0, 0, Header, 1, 13, 480
1, 0, Start_track
1, 0, Tempo, 638297
1, 0, Title_t, "15 Step"
1, 0, Time_signature, 10, 3, 9, 189
1, 0, Marker_t, "Intro"
1, 7200, Marker_t, ""
1, 31200, Marker_t, "Solo"
1, 40800, Marker_t, "Verse"
1, 55200, Marker_t, "Chorus"
1, 74400, Marker_t, "Bridge"
1, 88800, Marker_t, "Verse"
1, 112800, Marker_t, "Interlude"
1, 124800, Marker_t, ""
1, 148800, Marker_t, "Chorus"
1, 160800, Marker_t, "Outro"
1, 160800, End_track
2, 0, Start_track
2, 0, Title_t, "Soft karaoke"
2, 0, Text_t, "@KMIDI KARAOKE FILE"
2, 0, End_track
3, 0, Start_track
3, 0, Title_t, "Words"
3, 0, Text_t, "@LENGL"
3, 0, Text_t, "@T15 Step"
3, 0, Text_t, "@TRadiohead"
3, 0, Text_t, "@T-Fly-"
3, 7440, Text_t, "\\how"
3, 7680, Text_t, " come"
3, 7920, Text_t, " i"
3, 8160, Text_t, " end"
3, 8400, Text_t, " up"
3, 8640, Text_t, " where"
3, 8880, Text_t, " i"
3, 9120, Text_t, " start"
3, 9360, Text_t, "ed"
3, 9840, Text_t, "/how"
3, 10080, Text_t, " come"
3, 10320, Text_t, " i"
3, 10560, Text_t, " end"
3, 10800, Text_t, " up"
3, 11040, Text_t, " where"
3, 11220, Text_t, " i"
3, 11400, Text_t, " went"
3, 11520, Text_t, " wrong"
3, 12240, Text_t, "/won't"
3, 12480, Text_t, " take"
3, 12720, Text_t, " my"
3, 12960, Text_t, " eyes"
3, 13200, Text_t, " off"
3, 13440, Text_t, " the"
3, 13620, Text_t, " ball"
3, 13800, Text_t, " a"
3, 13920, Text_t, "gain"
3, 14640, Text_t, "/you"
3, 14880, Text_t, " reel"
3, 15120, Text_t, " me"
3, 15360, Text_t, " out"
3, 15600, Text_t, " then"
3, 15840, Text_t, " you"
3, 15960, Text_t, " cut"
3, 16200, Text_t, " the"
3, 16320, Text_t, " string"
3, 21840, Text_t, "\\how"
3, 22080, Text_t, " come"
3, 22320, Text_t, " i"
3, 22560, Text_t, " end"
3, 22800, Text_t, " up"
3, 23040, Text_t, " where"
3, 23280, Text_t, " i"
3, 23520, Text_t, " start"
3, 23760, Text_t, "ed"
3, 24240, Text_t, "/how"
3, 24480, Text_t, " come"
3, 24720, Text_t, " i"
3, 24960, Text_t, " end"
3, 25200, Text_t, " up"
3, 25440, Text_t, " where"
3, 25620, Text_t, " i"
3, 25800, Text_t, " went"
3, 25920, Text_t, " wrong"
3, 26640, Text_t, "/won't"
3, 26880, Text_t, " take"
3, 27120, Text_t, " my"
3, 27360, Text_t, " eyes"
3, 27600, Text_t, " off"
3, 27840, Text_t, " the"
3, 28020, Text_t, " ball"
3, 28200, Text_t, " a"
3, 28320, Text_t, "gain"
3, 29040, Text_t, "/first"
3, 29280, Text_t, " you"
3, 29400, Text_t, " reel.me"
3, 29640, Text_t, " out"
3, 29880, Text_t, " and"
3, 30120, Text_t, " then"
3, 30240, Text_t, " you"
3, 30360, Text_t, " cut"
3, 30600, Text_t, " the"
3, 30720, Text_t, " string"
3, 40800, Text_t, "\\you.used"
3, 41160, Text_t, " to"
3, 41280, Text_t, " be"
3, 41520, Text_t, " al"
3, 41760, Text_t, "right"
3, 43200, Text_t, "/what"
3, 43560, Text_t, " hap"
3, 43800, Text_t, "pened?"
3, 45480, Text_t, "/did"
3, 45600, Text_t, " the"
3, 45720, Text_t, " cat"
3, 46080, Text_t, " get"
3, 46320, Text_t, " your"
3, 46800, Text_t, " tongue"
3, 50040, Text_t, "/did"
3, 50160, Text_t, " your"
3, 50400, Text_t, " string"
3, 50760, Text_t, " co"
3, 50880, Text_t, "me"
3, 51120, Text_t, " un"
3, 51360, Text_t, "done"
3, 55200, Text_t, "/one"
3, 56640, Text_t, " by"
3, 57600, Text_t, " one"
3, 60000, Text_t, "/one"
3, 61440, Text_t, " by"
3, 62400, Text_t, " one"
3, 64800, Text_t, "/it"
3, 66240, Text_t, " comes"
3, 66480, Text_t, " to"
3, 67200, Text_t, " us"
3, 68160, Text_t, " all"
3, 69120, Text_t, "/it's"
3, 69360, Text_t, " as"
3, 69600, Text_t, " soft"
3, 71040, Text_t, " as"
3, 71280, Text_t, " your"
3, 72000, Text_t, " pil"
3, 72960, Text_t, "low"
3, 79200, Text_t, "\\Uh"
3, 81120, Text_t, " uh"
3, 81600, Text_t, " uh"
3, 82560, Text_t, " uh"
3, 84000, Text_t, "/Uh"
3, 85920, Text_t, " uh"
3, 86400, Text_t, " uh"
3, 88800, Text_t, "/you.used"
3, 89160, Text_t, " to"
3, 89280, Text_t, " be"
3, 89520, Text_t, " al"
3, 89760, Text_t, "right"
3, 91200, Text_t, "/what"
3, 91560, Text_t, " hap"
3, 91800, Text_t, "pened?"
3, 99480, Text_t, "\\et"
3, 99600, Text_t, "ce"
3, 100080, Text_t, "tera"
3, 100320, Text_t, " et"
3, 100440, Text_t, "ce"
3, 100560, Text_t, "tera"
3, 103200, Text_t, "/thanks"
3, 103560, Text_t, " for"
3, 103800, Text_t, " what"
3, 104040, Text_t, "ev"
3, 104280, Text_t, "er"
3, 108000, Text_t, "/fif"
3, 108240, Text_t, "teen"
3, 108600, Text_t, " steps"
3, 110400, Text_t, "/then"
3, 110760, Text_t, " a"
3, 111120, Text_t, " shear"
3, 112080, Text_t, " drop"
3, 149040, Text_t, "\\how"
3, 149280, Text_t, " come"
3, 149520, Text_t, " i"
3, 149760, Text_t, " end"
3, 150000, Text_t, " up"
3, 150240, Text_t, " where"
3, 150480, Text_t, " i"
3, 150720, Text_t, " start"
3, 150960, Text_t, "ed"
3, 151440, Text_t, "/how"
3, 151680, Text_t, " come"
3, 151920, Text_t, " i"
3, 152160, Text_t, " end"
3, 152400, Text_t, " up"
3, 152640, Text_t, " where"
3, 152820, Text_t, " i"
3, 153000, Text_t, " went"
3, 153120, Text_t, " wrong"
3, 153840, Text_t, "/won't"
3, 154080, Text_t, " take"
3, 154320, Text_t, " my"
3, 154560, Text_t, " eyes"
3, 154800, Text_t, " off"
3, 155040, Text_t, " the"
3, 155220, Text_t, " ball"
3, 155400, Text_t, " a"
3, 155520, Text_t, "gain"
3, 156240, Text_t, "/you"
3, 156480, Text_t, " reel"
3, 156720, Text_t, " me"
3, 156960, Text_t, " out"
3, 157200, Text_t, " then"
3, 157440, Text_t, " you"
3, 157680, Text_t, " cut"
3, 158040, Text_t, " the"
3, 158160, Text_t, " string"
3, 158160, End_track
4, 0, Start_track
4, 0, Title_t, "Jonny Greenwood"
4, 0, Control_c, 1, 100, 0
4, 0, Control_c, 1, 101, 0
4, 0, Control_c, 1, 6, 12
4, 0, Pitch_bend_c, 1, 8192
4, 0, Control_c, 1, 101, 0
4, 0, Control_c, 1, 100, 1
4, 0, Control_c, 1, 6, 64
4, 0, Control_c, 1, 38, 0
4, 0, Control_c, 1, 101, 127
4, 0, Control_c, 1, 100, 127
4, 0, Control_c, 0, 100, 0
4, 0, Control_c, 0, 101, 0
4, 0, Control_c, 0, 6, 12
4, 0, Pitch_bend_c, 0, 8192
4, 0, Control_c, 0, 101, 0
4, 0, Control_c, 0, 100, 1
4, 0, Control_c, 0, 6, 64
4, 0, Control_c, 0, 38, 0
4, 0, Control_c, 0, 101, 127
4, 0, Control_c, 0, 100, 127
4, 0, Control_c, 1, 101, 0
4, 0, Control_c, 1, 100, 2
4, 0, Control_c, 1, 6, 64
4, 0, Control_c, 1, 101, 127
4, 0, Control_c, 1, 100, 127
4, 0, Control_c, 0, 101, 0
4, 0, Control_c, 0, 100, 2
4, 0, Control_c, 0, 6, 64
4, 0, Control_c, 0, 101, 127
4, 0, Control_c, 0, 100, 127
4, 0, Program_c, 1, 26
4, 0, Program_c, 0, 26
4, 0, Control_c, 1, 0, 0
4, 0, Control_c, 0, 0, 0
4, 0, Control_c, 1, 7, 104
4, 0, Control_c, 0, 7, 104
4, 0, Control_c, 1, 10, 64
4, 0, Control_c, 0, 10, 64
4, 0, Control_c, 1, 93, 0
4, 0, Control_c, 0, 93, 0
4, 0, Control_c, 1, 91, 0
4, 0, Control_c, 0, 91, 0
4, 0, Control_c, 1, 92, 0
4, 0, Control_c, 0, 92, 0
4, 0, Control_c, 1, 95, 0
4, 0, Control_c, 0, 95, 0
4, 31200, Note_on_c, 0, 56, 95
4, 31560, Note_off_c, 0, 56, 80
4, 31560, Note_on_c, 0, 63, 63
4, 31560, Note_on_c, 0, 59, 63
4, 31920, Note_off_c, 0, 63, 80
4, 31920, Note_off_c, 0, 59, 80
4, 31920, Note_on_c, 0, 61, 63
4, 31920, Note_on_c, 0, 58, 63
4, 32160, Note_off_c, 0, 61, 80
4, 32160, Note_off_c, 0, 58, 80
4, 32160, Note_on_c, 1, 63, 63
4, 32160, Note_on_c, 0, 59, 63
4, 32214, Pitch_bend_c, 1, 8832
4, 32220, Pitch_bend_c, 1, 9600
4, 32220, Note_off_c, 0, 59, 80
4, 32220, Note_on_c, 0, 60, 63
4, 32280, Note_off_c, 1, 63, 80
4, 32280, Pitch_bend_c, 1, 8192
4, 32280, Note_off_c, 0, 60, 80
4, 32280, Note_on_c, 0, 61, 63
4, 32400, Note_on_c, 0, 49, 95
4, 32760, Note_off_c, 0, 61, 80
4, 32760, Note_on_c, 0, 65, 63
4, 32760, Note_on_c, 0, 61, 63
4, 33000, Note_off_c, 0, 65, 80
4, 33000, Note_on_c, 0, 53, 63
4, 33120, Note_off_c, 0, 61, 80
4, 33120, Note_off_c, 0, 53, 80
4, 33120, Note_on_c, 0, 63, 63
4, 33120, Note_on_c, 0, 59, 63
4, 33360, Note_off_c, 0, 63, 80
4, 33360, Note_on_c, 0, 63, 63
4, 33450, Note_off_c, 0, 63, 80
4, 33450, Note_on_c, 0, 64, 63
4, 33540, Note_off_c, 0, 64, 80
4, 33540, Note_on_c, 0, 65, 63
4, 33600, Note_off_c, 0, 49, 80
4, 33600, Note_off_c, 0, 65, 80
4, 33600, Note_on_c, 0, 51, 95
4, 33960, Note_off_c, 0, 59, 80
4, 33960, Note_off_c, 0, 51, 80
4, 33960, Note_on_c, 0, 66, 63
4, 33960, Note_on_c, 0, 63, 63
4, 34200, Note_off_c, 0, 66, 80
4, 34200, Note_off_c, 0, 63, 80
4, 34200, Note_on_c, 0, 58, 63
4, 34320, Note_off_c, 0, 58, 80
4, 34320, Note_on_c, 0, 65, 63
4, 34320, Note_on_c, 0, 61, 63
4, 34560, Note_off_c, 0, 65, 80
4, 34560, Note_off_c, 0, 61, 80
4, 34560, Note_on_c, 0, 63, 63
4, 34800, Note_off_c, 0, 63, 80
4, 34800, Note_on_c, 0, 49, 95
4, 35160, Note_off_c, 0, 49, 80
4, 35160, Note_on_c, 0, 65, 63
4, 35160, Note_on_c, 0, 61, 63
4, 35400, Note_off_c, 0, 65, 80
4, 35400, Note_off_c, 0, 61, 80
4, 35400, Note_on_c, 0, 56, 63
4, 35520, Note_off_c, 0, 56, 80
4, 35520, Note_on_c, 0, 63, 63
4, 35520, Note_on_c, 0, 59, 63
4, 35640, Note_off_c, 0, 63, 80
4, 35640, Note_off_c, 0, 59, 80
4, 35640, Note_on_c, 0, 65, 63
4, 35760, Note_off_c, 0, 65, 80
4, 35760, Note_on_c, 0, 59, 63
4, 35760, Note_on_c, 0, 56, 63
4, 35880, Note_off_c, 0, 59, 80
4, 35880, Note_off_c, 0, 56, 80
4, 35880, Note_on_c, 0, 58, 63
4, 36000, Note_off_c, 0, 58, 80
4, 36000, Note_on_c, 0, 56, 95
4, 36360, Note_off_c, 0, 56, 80
4, 36360, Note_on_c, 0, 63, 63
4, 36360, Note_on_c, 0, 59, 63
4, 36720, Note_off_c, 0, 63, 80
4, 36720, Note_off_c, 0, 59, 80
4, 36720, Note_on_c, 0, 61, 63
4, 36720, Note_on_c, 0, 58, 63
4, 36960, Note_off_c, 0, 61, 80
4, 36960, Note_off_c, 0, 58, 80
4, 36960, Note_on_c, 1, 63, 63
4, 36960, Note_on_c, 0, 59, 63
4, 37014, Pitch_bend_c, 1, 8832
4, 37020, Pitch_bend_c, 1, 9600
4, 37020, Note_off_c, 0, 59, 80
4, 37020, Note_on_c, 0, 60, 63
4, 37080, Note_off_c, 1, 63, 80
4, 37080, Pitch_bend_c, 1, 8192
4, 37080, Note_off_c, 0, 60, 80
4, 37080, Note_on_c, 0, 61, 63
4, 37200, Note_on_c, 0, 49, 95
4, 37560, Note_off_c, 0, 61, 80
4, 37560, Note_on_c, 0, 65, 63
4, 37560, Note_on_c, 0, 61, 63
4, 37800, Note_off_c, 0, 65, 80
4, 37800, Note_on_c, 0, 53, 63
4, 37920, Note_off_c, 0, 61, 80
4, 37920, Note_off_c, 0, 53, 80
4, 37920, Note_on_c, 0, 63, 63
4, 37920, Note_on_c, 0, 59, 63
4, 38160, Note_off_c, 0, 63, 80
4, 38160, Note_on_c, 0, 63, 63
4, 38250, Note_off_c, 0, 63, 80
4, 38250, Note_on_c, 0, 64, 63
4, 38340, Note_off_c, 0, 64, 80
4, 38340, Note_on_c, 0, 65, 63
4, 38400, Note_off_c, 0, 49, 80
4, 38400, Note_off_c, 0, 65, 80
4, 38400, Note_on_c, 0, 51, 95
4, 38760, Note_off_c, 0, 59, 80
4, 38760, Note_off_c, 0, 51, 80
4, 38760, Note_on_c, 0, 66, 63
4, 38760, Note_on_c, 0, 63, 63
4, 39000, Note_off_c, 0, 66, 80
4, 39000, Note_off_c, 0, 63, 80
4, 39000, Note_on_c, 0, 58, 63
4, 39120, Note_off_c, 0, 58, 80
4, 39120, Note_on_c, 0, 65, 63
4, 39120, Note_on_c, 0, 61, 63
4, 39360, Note_off_c, 0, 65, 80
4, 39360, Note_off_c, 0, 61, 80
4, 39360, Note_on_c, 0, 63, 63
4, 39600, Note_off_c, 0, 63, 80
4, 39600, Note_on_c, 0, 49, 95
4, 39960, Note_off_c, 0, 49, 80
4, 39960, Note_on_c, 0, 65, 63
4, 39960, Note_on_c, 0, 61, 63
4, 40200, Note_off_c, 0, 65, 80
4, 40200, Note_off_c, 0, 61, 80
4, 40200, Note_on_c, 0, 56, 63
4, 40320, Note_off_c, 0, 56, 80
4, 40320, Note_on_c, 0, 63, 63
4, 40320, Note_on_c, 0, 59, 63
4, 40440, Note_off_c, 0, 63, 80
4, 40440, Note_off_c, 0, 59, 80
4, 40440, Note_on_c, 0, 65, 63
4, 40560, Note_off_c, 0, 65, 80
4, 40560, Note_on_c, 0, 59, 63
4, 40560, Note_on_c, 0, 56, 63
4, 40680, Note_off_c, 0, 59, 80
4, 40680, Note_off_c, 0, 56, 80
4, 40680, Note_on_c, 0, 58, 63
4, 40800, Note_off_c, 0, 58, 80
4, 41160, Note_on_c, 0, 63, 63
4, 41160, Note_on_c, 0, 59, 63
4, 41520, Note_off_c, 0, 63, 80
4, 41520, Note_off_c, 0, 59, 80
4, 41520, Note_on_c, 0, 61, 63
4, 41520, Note_on_c, 0, 58, 63
4, 41760, Note_off_c, 0, 61, 80
4, 41760, Note_off_c, 0, 58, 80
4, 41760, Note_on_c, 1, 63, 63
4, 41760, Note_on_c, 0, 59, 63
4, 41814, Pitch_bend_c, 1, 8832
4, 41820, Pitch_bend_c, 1, 9600
4, 41820, Note_off_c, 0, 59, 80
4, 41820, Note_on_c, 0, 60, 63
4, 41880, Note_off_c, 1, 63, 80
4, 41880, Pitch_bend_c, 1, 8192
4, 41880, Note_off_c, 0, 60, 80
4, 41880, Note_on_c, 0, 61, 63
4, 42360, Note_off_c, 0, 61, 80
4, 42360, Note_on_c, 0, 65, 63
4, 42360, Note_on_c, 0, 61, 63
4, 42600, Note_off_c, 0, 65, 80
4, 42600, Note_on_c, 0, 53, 63
4, 42720, Note_off_c, 0, 61, 80
4, 42720, Note_off_c, 0, 53, 80
4, 42720, Note_on_c, 0, 63, 63
4, 42720, Note_on_c, 0, 59, 63
4, 42960, Note_off_c, 0, 63, 80
4, 42960, Note_on_c, 0, 63, 63
4, 43050, Note_off_c, 0, 63, 80
4, 43050, Note_on_c, 0, 64, 63
4, 43140, Note_off_c, 0, 64, 80
4, 43140, Note_on_c, 0, 65, 63
4, 43200, Note_off_c, 0, 59, 80
4, 43200, Note_off_c, 0, 65, 80
4, 43560, Note_on_c, 0, 66, 63
4, 43560, Note_on_c, 0, 63, 63
4, 43800, Note_off_c, 0, 66, 80
4, 43800, Note_off_c, 0, 63, 80
4, 43800, Note_on_c, 0, 58, 63
4, 43920, Note_off_c, 0, 58, 80
4, 43920, Note_on_c, 0, 65, 63
4, 43920, Note_on_c, 0, 61, 63
4, 44160, Note_off_c, 0, 65, 80
4, 44160, Note_off_c, 0, 61, 80
4, 44160, Note_on_c, 0, 63, 63
4, 44400, Note_off_c, 0, 63, 80
4, 44760, Note_on_c, 0, 65, 63
4, 44760, Note_on_c, 0, 61, 63
4, 45000, Note_off_c, 0, 65, 80
4, 45000, Note_off_c, 0, 61, 80
4, 45000, Note_on_c, 0, 56, 63
4, 45120, Note_off_c, 0, 56, 80
4, 45120, Note_on_c, 0, 63, 63
4, 45120, Note_on_c, 0, 59, 63
4, 45240, Note_off_c, 0, 63, 80
4, 45240, Note_off_c, 0, 59, 80
4, 45240, Note_on_c, 0, 65, 63
4, 45360, Note_off_c, 0, 65, 80
4, 45360, Note_on_c, 0, 59, 63
4, 45360, Note_on_c, 0, 56, 63
4, 45480, Note_off_c, 0, 59, 80
4, 45480, Note_off_c, 0, 56, 80
4, 45480, Note_on_c, 0, 58, 63
4, 45600, Note_off_c, 0, 58, 80
4, 45960, Note_on_c, 0, 63, 63
4, 45960, Note_on_c, 0, 59, 63
4, 46320, Note_off_c, 0, 63, 80
4, 46320, Note_off_c, 0, 59, 80
4, 46320, Note_on_c, 0, 61, 63
4, 46320, Note_on_c, 0, 58, 63
4, 46560, Note_off_c, 0, 61, 80
4, 46560, Note_off_c, 0, 58, 80
4, 46560, Note_on_c, 1, 63, 63
4, 46560, Note_on_c, 0, 59, 63
4, 46614, Pitch_bend_c, 1, 8832
4, 46620, Pitch_bend_c, 1, 9600
4, 46620, Note_off_c, 0, 59, 80
4, 46620, Note_on_c, 0, 60, 63
4, 46680, Note_off_c, 1, 63, 80
4, 46680, Pitch_bend_c, 1, 8192
4, 46680, Note_off_c, 0, 60, 80
4, 46680, Note_on_c, 0, 61, 63
4, 47160, Note_off_c, 0, 61, 80
4, 47160, Note_on_c, 0, 65, 63
4, 47160, Note_on_c, 0, 61, 63
4, 47400, Note_off_c, 0, 65, 80
4, 47400, Note_on_c, 0, 53, 63
4, 47520, Note_off_c, 0, 61, 80
4, 47520, Note_off_c, 0, 53, 80
4, 47520, Note_on_c, 0, 63, 63
4, 47520, Note_on_c, 0, 59, 63
4, 47760, Note_off_c, 0, 63, 80
4, 47760, Note_on_c, 0, 63, 63
4, 47850, Note_off_c, 0, 63, 80
4, 47850, Note_on_c, 0, 64, 63
4, 47940, Note_off_c, 0, 64, 80
4, 47940, Note_on_c, 0, 65, 63
4, 48000, Note_off_c, 0, 59, 80
4, 48000, Note_off_c, 0, 65, 80
4, 48360, Note_on_c, 0, 66, 63
4, 48360, Note_on_c, 0, 63, 63
4, 48600, Note_off_c, 0, 66, 80
4, 48600, Note_off_c, 0, 63, 80
4, 48600, Note_on_c, 0, 58, 63
4, 48720, Note_off_c, 0, 58, 80
4, 48720, Note_on_c, 0, 65, 63
4, 48720, Note_on_c, 0, 61, 63
4, 48960, Note_off_c, 0, 65, 80
4, 48960, Note_off_c, 0, 61, 80
4, 48960, Note_on_c, 0, 63, 63
4, 49200, Note_off_c, 0, 63, 80
4, 49560, Note_on_c, 0, 65, 63
4, 49560, Note_on_c, 0, 61, 63
4, 49800, Note_off_c, 0, 65, 80
4, 49800, Note_off_c, 0, 61, 80
4, 49800, Note_on_c, 0, 56, 63
4, 49920, Note_off_c, 0, 56, 80
4, 49920, Note_on_c, 0, 63, 63
4, 49920, Note_on_c, 0, 59, 63
4, 50040, Note_off_c, 0, 63, 80
4, 50040, Note_off_c, 0, 59, 80
4, 50040, Note_on_c, 0, 65, 63
4, 50160, Note_off_c, 0, 65, 80
4, 50160, Note_on_c, 0, 59, 63
4, 50160, Note_on_c, 0, 56, 63
4, 50280, Note_off_c, 0, 59, 80
4, 50280, Note_off_c, 0, 56, 80
4, 50280, Note_on_c, 0, 58, 63
4, 50400, Note_off_c, 0, 58, 80
4, 50760, Note_on_c, 0, 63, 63
4, 50760, Note_on_c, 0, 59, 63
4, 51120, Note_off_c, 0, 63, 80
4, 51120, Note_off_c, 0, 59, 80
4, 51120, Note_on_c, 0, 61, 63
4, 51120, Note_on_c, 0, 58, 63
4, 51360, Note_off_c, 0, 61, 80
4, 51360, Note_off_c, 0, 58, 80
4, 51360, Note_on_c, 1, 63, 63
4, 51360, Note_on_c, 0, 59, 63
4, 51414, Pitch_bend_c, 1, 8832
4, 51420, Pitch_bend_c, 1, 9600
4, 51420, Note_off_c, 0, 59, 80
4, 51420, Note_on_c, 0, 60, 63
4, 51480, Note_off_c, 1, 63, 80
4, 51480, Pitch_bend_c, 1, 8192
4, 51480, Note_off_c, 0, 60, 80
4, 51480, Note_on_c, 0, 61, 63
4, 51960, Note_off_c, 0, 61, 80
4, 51960, Note_on_c, 0, 65, 63
4, 51960, Note_on_c, 0, 61, 63
4, 52200, Note_off_c, 0, 65, 80
4, 52200, Note_on_c, 0, 53, 63
4, 52320, Note_off_c, 0, 61, 80
4, 52320, Note_off_c, 0, 53, 80
4, 52320, Note_on_c, 0, 63, 63
4, 52320, Note_on_c, 0, 59, 63
4, 52560, Note_off_c, 0, 63, 80
4, 52560, Note_on_c, 0, 63, 63
4, 52650, Note_off_c, 0, 63, 80
4, 52650, Note_on_c, 0, 64, 63
4, 52740, Note_off_c, 0, 64, 80
4, 52740, Note_on_c, 0, 65, 63
4, 52800, Note_off_c, 0, 59, 80
4, 52800, Note_off_c, 0, 65, 80
4, 53160, Note_on_c, 0, 66, 63
4, 53160, Note_on_c, 0, 63, 63
4, 53400, Note_off_c, 0, 66, 80
4, 53400, Note_off_c, 0, 63, 80
4, 53400, Note_on_c, 0, 58, 63
4, 53520, Note_off_c, 0, 58, 80
4, 53520, Note_on_c, 0, 65, 63
4, 53520, Note_on_c, 0, 61, 63
4, 53760, Note_off_c, 0, 65, 80
4, 53760, Note_off_c, 0, 61, 80
4, 53760, Note_on_c, 0, 63, 63
4, 54000, Note_off_c, 0, 63, 80
4, 54360, Note_on_c, 0, 65, 63
4, 54360, Note_on_c, 0, 61, 63
4, 54600, Note_off_c, 0, 65, 80
4, 54600, Note_off_c, 0, 61, 80
4, 54600, Note_on_c, 0, 56, 63
4, 54720, Note_off_c, 0, 56, 80
4, 54720, Note_on_c, 0, 63, 63
4, 54720, Note_on_c, 0, 59, 63
4, 54840, Note_off_c, 0, 63, 80
4, 54840, Note_off_c, 0, 59, 80
4, 54840, Note_on_c, 0, 65, 63
4, 54960, Note_off_c, 0, 65, 80
4, 54960, Note_on_c, 0, 59, 63
4, 54960, Note_on_c, 0, 56, 63
4, 55080, Note_off_c, 0, 59, 80
4, 55080, Note_off_c, 0, 56, 80
4, 55080, Note_on_c, 0, 58, 63
4, 55200, Note_off_c, 0, 58, 80
4, 55560, Note_on_c, 0, 63, 63
4, 55560, Note_on_c, 0, 59, 63
4, 55920, Note_off_c, 0, 63, 80
4, 55920, Note_off_c, 0, 59, 80
4, 55920, Note_on_c, 0, 61, 63
4, 55920, Note_on_c, 0, 58, 63
4, 56160, Note_off_c, 0, 61, 80
4, 56160, Note_off_c, 0, 58, 80
4, 56160, Note_on_c, 1, 63, 63
4, 56160, Note_on_c, 0, 59, 63
4, 56214, Pitch_bend_c, 1, 8832
4, 56220, Pitch_bend_c, 1, 9600
4, 56220, Note_off_c, 0, 59, 80
4, 56220, Note_on_c, 0, 60, 63
4, 56280, Note_off_c, 1, 63, 80
4, 56280, Pitch_bend_c, 1, 8192
4, 56280, Note_off_c, 0, 60, 80
4, 56280, Note_on_c, 0, 73, 63
4, 56280, Note_on_c, 0, 61, 63
4, 56760, Note_off_c, 0, 61, 80
4, 56760, Note_on_c, 0, 65, 63
4, 56760, Note_on_c, 0, 61, 63
4, 57000, Note_off_c, 0, 65, 80
4, 57000, Note_on_c, 0, 53, 63
4, 57120, Note_off_c, 0, 61, 80
4, 57120, Note_off_c, 0, 53, 80
4, 57120, Note_on_c, 0, 63, 63
4, 57120, Note_on_c, 0, 59, 63
4, 57360, Note_off_c, 0, 63, 80
4, 57360, Note_on_c, 0, 63, 63
4, 57450, Note_off_c, 0, 63, 80
4, 57450, Note_on_c, 0, 64, 63
4, 57540, Note_off_c, 0, 73, 80
4, 57540, Note_off_c, 0, 64, 80
4, 57540, Note_on_c, 0, 73, 63
4, 57540, Note_on_c, 0, 65, 63
4, 57600, Note_off_c, 0, 59, 80
4, 57600, Note_off_c, 0, 73, 80
4, 57600, Note_off_c, 0, 65, 80
4, 57960, Note_on_c, 0, 66, 63
4, 57960, Note_on_c, 0, 63, 63
4, 58200, Note_off_c, 0, 66, 80
4, 58200, Note_off_c, 0, 63, 80
4, 58200, Note_on_c, 0, 58, 63
4, 58320, Note_off_c, 0, 58, 80
4, 58320, Note_on_c, 0, 65, 63
4, 58320, Note_on_c, 0, 61, 63
4, 58560, Note_off_c, 0, 65, 80
4, 58560, Note_off_c, 0, 61, 80
4, 58560, Note_on_c, 0, 63, 63
4, 58800, Note_off_c, 0, 63, 80
4, 58800, Note_on_c, 0, 73, 63
4, 59160, Note_off_c, 0, 73, 80
4, 59160, Note_on_c, 0, 65, 63
4, 59160, Note_on_c, 0, 61, 63
4, 59400, Note_off_c, 0, 65, 80
4, 59400, Note_off_c, 0, 61, 80
4, 59400, Note_on_c, 0, 56, 63
4, 59520, Note_off_c, 0, 56, 80
4, 59520, Note_on_c, 0, 63, 63
4, 59520, Note_on_c, 0, 59, 63
4, 59640, Note_off_c, 0, 63, 80
4, 59640, Note_off_c, 0, 59, 80
4, 59640, Note_on_c, 0, 65, 63
4, 59760, Note_off_c, 0, 65, 80
4, 59760, Note_on_c, 0, 59, 63
4, 59760, Note_on_c, 0, 56, 63
4, 59880, Note_off_c, 0, 59, 80
4, 59880, Note_off_c, 0, 56, 80
4, 59880, Note_on_c, 0, 58, 63
4, 60000, Note_off_c, 0, 58, 80
4, 60360, Note_on_c, 0, 63, 63
4, 60360, Note_on_c, 0, 59, 63
4, 60720, Note_off_c, 0, 63, 80
4, 60720, Note_off_c, 0, 59, 80
4, 60720, Note_on_c, 0, 61, 63
4, 60720, Note_on_c, 0, 58, 63
4, 60960, Note_off_c, 0, 61, 80
4, 60960, Note_off_c, 0, 58, 80
4, 60960, Note_on_c, 1, 63, 63
4, 60960, Note_on_c, 0, 59, 63
4, 61014, Pitch_bend_c, 1, 8832
4, 61020, Pitch_bend_c, 1, 9600
4, 61020, Note_off_c, 0, 59, 80
4, 61020, Note_on_c, 0, 60, 63
4, 61080, Note_off_c, 1, 63, 80
4, 61080, Pitch_bend_c, 1, 8192
4, 61080, Note_off_c, 0, 60, 80
4, 61080, Note_on_c, 0, 73, 63
4, 61080, Note_on_c, 0, 61, 63
4, 61560, Note_off_c, 0, 61, 80
4, 61560, Note_on_c, 0, 65, 63
4, 61560, Note_on_c, 0, 61, 63
4, 61800, Note_off_c, 0, 65, 80
4, 61800, Note_on_c, 0, 53, 63
4, 61920, Note_off_c, 0, 61, 80
4, 61920, Note_off_c, 0, 53, 80
4, 61920, Note_on_c, 0, 63, 63
4, 61920, Note_on_c, 0, 59, 63
4, 62160, Note_off_c, 0, 63, 80
4, 62160, Note_on_c, 0, 63, 63
4, 62250, Note_off_c, 0, 63, 80
4, 62250, Note_on_c, 0, 64, 63
4, 62340, Note_off_c, 0, 73, 80
4, 62340, Note_off_c, 0, 64, 80
4, 62340, Note_on_c, 0, 73, 63
4, 62340, Note_on_c, 0, 65, 63
4, 62400, Note_off_c, 0, 59, 80
4, 62400, Note_off_c, 0, 73, 80
4, 62400, Note_off_c, 0, 65, 80
4, 62760, Note_on_c, 0, 66, 63
4, 62760, Note_on_c, 0, 63, 63
4, 63000, Note_off_c, 0, 66, 80
4, 63000, Note_off_c, 0, 63, 80
4, 63000, Note_on_c, 0, 58, 63
4, 63120, Note_off_c, 0, 58, 80
4, 63120, Note_on_c, 0, 65, 63
4, 63120, Note_on_c, 0, 61, 63
4, 63360, Note_off_c, 0, 65, 80
4, 63360, Note_off_c, 0, 61, 80
4, 63360, Note_on_c, 0, 63, 63
4, 63600, Note_off_c, 0, 63, 80
4, 63600, Note_on_c, 0, 73, 63
4, 63960, Note_off_c, 0, 73, 80
4, 63960, Note_on_c, 0, 65, 63
4, 63960, Note_on_c, 0, 61, 63
4, 64200, Note_off_c, 0, 65, 80
4, 64200, Note_off_c, 0, 61, 80
4, 64200, Note_on_c, 0, 56, 63
4, 64320, Note_off_c, 0, 56, 80
4, 64320, Note_on_c, 0, 63, 63
4, 64320, Note_on_c, 0, 59, 63
4, 64440, Note_off_c, 0, 63, 80
4, 64440, Note_off_c, 0, 59, 80
4, 64440, Note_on_c, 0, 65, 63
4, 64560, Note_off_c, 0, 65, 80
4, 64560, Note_on_c, 0, 59, 63
4, 64560, Note_on_c, 0, 56, 63
4, 64680, Note_off_c, 0, 59, 80
4, 64680, Note_off_c, 0, 56, 80
4, 64680, Note_on_c, 0, 58, 63
4, 64800, Note_off_c, 0, 58, 80
4, 65160, Note_on_c, 0, 63, 63
4, 65160, Note_on_c, 0, 59, 63
4, 65520, Note_off_c, 0, 63, 80
4, 65520, Note_off_c, 0, 59, 80
4, 65520, Note_on_c, 0, 61, 63
4, 65520, Note_on_c, 0, 58, 63
4, 65760, Note_off_c, 0, 61, 80
4, 65760, Note_off_c, 0, 58, 80
4, 65760, Note_on_c, 1, 63, 63
4, 65760, Note_on_c, 0, 59, 63
4, 65814, Pitch_bend_c, 1, 8832
4, 65820, Pitch_bend_c, 1, 9600
4, 65820, Note_off_c, 0, 59, 80
4, 65820, Note_on_c, 0, 60, 63
4, 65880, Note_off_c, 1, 63, 80
4, 65880, Pitch_bend_c, 1, 8192
4, 65880, Note_off_c, 0, 60, 80
4, 65880, Note_on_c, 0, 73, 63
4, 65880, Note_on_c, 0, 61, 63
4, 66360, Note_off_c, 0, 61, 80
4, 66360, Note_on_c, 0, 65, 63
4, 66360, Note_on_c, 0, 61, 63
4, 66600, Note_off_c, 0, 65, 80
4, 66600, Note_on_c, 0, 53, 63
4, 66720, Note_off_c, 0, 61, 80
4, 66720, Note_off_c, 0, 53, 80
4, 66720, Note_on_c, 0, 63, 63
4, 66720, Note_on_c, 0, 59, 63
4, 66960, Note_off_c, 0, 63, 80
4, 66960, Note_on_c, 0, 63, 63
4, 67050, Note_off_c, 0, 63, 80
4, 67050, Note_on_c, 0, 64, 63
4, 67140, Note_off_c, 0, 73, 80
4, 67140, Note_off_c, 0, 64, 80
4, 67140, Note_on_c, 0, 73, 63
4, 67140, Note_on_c, 0, 65, 63
4, 67200, Note_off_c, 0, 59, 80
4, 67200, Note_off_c, 0, 73, 80
4, 67200, Note_off_c, 0, 65, 80
4, 67560, Note_on_c, 0, 66, 63
4, 67560, Note_on_c, 0, 63, 63
4, 67800, Note_off_c, 0, 66, 80
4, 67800, Note_off_c, 0, 63, 80
4, 67800, Note_on_c, 0, 58, 63
4, 67920, Note_off_c, 0, 58, 80
4, 67920, Note_on_c, 0, 65, 63
4, 67920, Note_on_c, 0, 61, 63
4, 68160, Note_off_c, 0, 65, 80
4, 68160, Note_off_c, 0, 61, 80
4, 68160, Note_on_c, 0, 63, 63
4, 68400, Note_off_c, 0, 63, 80
4, 68400, Note_on_c, 0, 73, 63
4, 68760, Note_off_c, 0, 73, 80
4, 68760, Note_on_c, 0, 65, 63
4, 68760, Note_on_c, 0, 61, 63
4, 69000, Note_off_c, 0, 65, 80
4, 69000, Note_off_c, 0, 61, 80
4, 69000, Note_on_c, 0, 56, 63
4, 69120, Note_off_c, 0, 56, 80
4, 69120, Note_on_c, 0, 63, 63
4, 69120, Note_on_c, 0, 59, 63
4, 69240, Note_off_c, 0, 63, 80
4, 69240, Note_off_c, 0, 59, 80
4, 69240, Note_on_c, 0, 65, 63
4, 69360, Note_off_c, 0, 65, 80
4, 69360, Note_on_c, 0, 59, 63
4, 69360, Note_on_c, 0, 56, 63
4, 69480, Note_off_c, 0, 59, 80
4, 69480, Note_off_c, 0, 56, 80
4, 69480, Note_on_c, 0, 58, 63
4, 69600, Note_off_c, 0, 58, 80
4, 69960, Note_on_c, 0, 63, 63
4, 69960, Note_on_c, 0, 59, 63
4, 70320, Note_off_c, 0, 63, 80
4, 70320, Note_off_c, 0, 59, 80
4, 70320, Note_on_c, 0, 61, 63
4, 70320, Note_on_c, 0, 58, 63
4, 70560, Note_off_c, 0, 61, 80
4, 70560, Note_off_c, 0, 58, 80
4, 70560, Note_on_c, 1, 63, 63
4, 70560, Note_on_c, 0, 59, 63
4, 70614, Pitch_bend_c, 1, 8832
4, 70620, Pitch_bend_c, 1, 9600
4, 70620, Note_off_c, 0, 59, 80
4, 70620, Note_on_c, 0, 60, 63
4, 70680, Note_off_c, 1, 63, 80
4, 70680, Pitch_bend_c, 1, 8192
4, 70680, Note_off_c, 0, 60, 80
4, 70680, Note_on_c, 0, 73, 63
4, 70680, Note_on_c, 0, 61, 63
4, 71160, Note_off_c, 0, 61, 80
4, 71160, Note_on_c, 0, 65, 63
4, 71160, Note_on_c, 0, 61, 63
4, 71400, Note_off_c, 0, 65, 80
4, 71400, Note_on_c, 0, 53, 63
4, 71520, Note_off_c, 0, 61, 80
4, 71520, Note_off_c, 0, 53, 80
4, 71520, Note_on_c, 0, 63, 63
4, 71520, Note_on_c, 0, 59, 63
4, 71760, Note_off_c, 0, 63, 80
4, 71760, Note_on_c, 0, 63, 63
4, 71850, Note_off_c, 0, 63, 80
4, 71850, Note_on_c, 0, 64, 63
4, 71940, Note_off_c, 0, 73, 80
4, 71940, Note_off_c, 0, 64, 80
4, 71940, Note_on_c, 0, 73, 63
4, 71940, Note_on_c, 0, 65, 63
4, 72000, Note_off_c, 0, 59, 80
4, 72000, Note_off_c, 0, 73, 80
4, 72000, Note_off_c, 0, 65, 80
4, 72360, Note_on_c, 0, 66, 63
4, 72360, Note_on_c, 0, 63, 63
4, 72600, Note_off_c, 0, 66, 80
4, 72600, Note_off_c, 0, 63, 80
4, 72600, Note_on_c, 0, 58, 63
4, 72720, Note_off_c, 0, 58, 80
4, 72720, Note_on_c, 0, 65, 63
4, 72720, Note_on_c, 0, 61, 63
4, 72960, Note_off_c, 0, 65, 80
4, 72960, Note_off_c, 0, 61, 80
4, 72960, Note_on_c, 0, 63, 63
4, 73200, Note_off_c, 0, 63, 80
4, 73200, Note_on_c, 0, 73, 63
4, 73560, Note_off_c, 0, 73, 80
4, 73560, Note_on_c, 0, 65, 63
4, 73560, Note_on_c, 0, 61, 63
4, 73800, Note_off_c, 0, 65, 80
4, 73800, Note_off_c, 0, 61, 80
4, 73800, Note_on_c, 0, 56, 63
4, 73920, Note_off_c, 0, 56, 80
4, 73920, Note_on_c, 0, 63, 63
4, 73920, Note_on_c, 0, 59, 63
4, 74040, Note_off_c, 0, 63, 80
4, 74040, Note_off_c, 0, 59, 80
4, 74040, Note_on_c, 0, 65, 63
4, 74160, Note_off_c, 0, 65, 80
4, 74160, Note_on_c, 0, 59, 63
4, 74160, Note_on_c, 0, 56, 63
4, 74280, Note_off_c, 0, 59, 80
4, 74280, Note_off_c, 0, 56, 80
4, 74280, Note_on_c, 0, 58, 63
4, 74400, Note_off_c, 0, 58, 80
4, 74400, Note_on_c, 0, 61, 63
4, 74760, Note_off_c, 0, 61, 80
4, 74760, Note_on_c, 0, 61, 63
4, 75000, Note_on_c, 0, 64, 63
4, 75120, Note_off_c, 0, 61, 80
4, 75120, Note_on_c, 0, 61, 63
4, 75360, Note_on_c, 0, 68, 63
4, 75600, Note_off_c, 0, 64, 80
4, 75600, Note_on_c, 0, 64, 63
4, 75840, Note_off_c, 0, 68, 80
4, 75840, Note_on_c, 0, 68, 63
4, 76080, Note_off_c, 0, 64, 80
4, 76080, Note_on_c, 0, 64, 63
4, 76320, Note_off_c, 0, 68, 80
4, 76320, Note_on_c, 0, 68, 63
4, 76800, Note_off_c, 0, 61, 80
4, 76800, Note_on_c, 0, 60, 63
4, 77160, Note_off_c, 0, 60, 80
4, 77160, Note_on_c, 0, 60, 63
4, 77400, Note_off_c, 0, 64, 80
4, 77400, Note_on_c, 0, 63, 63
4, 77520, Note_off_c, 0, 60, 80
4, 77520, Note_on_c, 0, 60, 63
4, 77640, Note_off_c, 0, 60, 80
4, 77640, Note_on_c, 0, 60, 63
4, 77760, Note_off_c, 0, 68, 80
4, 77760, Note_on_c, 0, 67, 63
4, 78000, Note_off_c, 0, 63, 80
4, 78000, Note_on_c, 0, 63, 63
4, 78240, Note_off_c, 0, 67, 80
4, 78240, Note_on_c, 0, 67, 63
4, 78480, Note_off_c, 0, 63, 80
4, 78480, Note_on_c, 0, 63, 63
4, 78720, Note_off_c, 0, 60, 80
4, 78720, Note_on_c, 0, 60, 63
4, 79200, Note_off_c, 0, 60, 80
4, 79200, Note_on_c, 0, 56, 47
4, 79560, Note_off_c, 0, 67, 80
4, 79560, Note_on_c, 0, 63, 47
4, 79800, Note_off_c, 0, 56, 80
4, 79800, Note_on_c, 0, 56, 47
4, 79920, Note_off_c, 0, 63, 80
4, 79920, Note_on_c, 0, 61, 47
4, 80160, Note_off_c, 0, 63, 80
4, 80160, Note_on_c, 0, 58, 47
4, 80280, Note_off_c, 0, 58, 80
4, 80280, Note_on_c, 0, 59, 38
4, 80400, Note_off_c, 0, 56, 80
4, 80400, Note_on_c, 0, 56, 47
4, 80640, Note_off_c, 0, 59, 80
4, 80640, Note_on_c, 0, 58, 47
4, 80880, Note_off_c, 0, 58, 80
4, 80880, Note_on_c, 0, 59, 47
4, 81120, Note_off_c, 0, 56, 80
4, 81120, Note_on_c, 0, 56, 47
4, 81360, Note_off_c, 0, 56, 80
4, 81360, Note_on_c, 0, 54, 47
4, 81600, Note_off_c, 0, 54, 80
4, 81600, Note_on_c, 0, 56, 47
4, 81960, Note_off_c, 0, 61, 80
4, 81960, Note_on_c, 0, 63, 47
4, 82200, Note_off_c, 0, 56, 80
4, 82200, Note_on_c, 0, 56, 47
4, 82320, Note_off_c, 0, 63, 80
4, 82320, Note_on_c, 0, 61, 47
4, 82440, Note_off_c, 0, 61, 80
4, 82440, Note_on_c, 0, 63, 47
4, 82560, Note_off_c, 0, 59, 80
4, 82560, Note_on_c, 0, 58, 47
4, 82680, Note_off_c, 0, 58, 80
4, 82680, Note_on_c, 0, 59, 38
4, 82800, Note_off_c, 0, 56, 80
4, 82800, Note_on_c, 0, 56, 47
4, 83040, Note_off_c, 0, 59, 80
4, 83040, Note_on_c, 0, 58, 47
4, 83280, Note_off_c, 0, 58, 80
4, 83280, Note_on_c, 0, 59, 47
4, 83520, Note_off_c, 0, 56, 80
4, 83520, Note_on_c, 0, 56, 47
4, 83760, Note_off_c, 0, 56, 80
4, 83760, Note_on_c, 0, 54, 47
4, 84000, Note_off_c, 0, 54, 80
4, 84000, Note_on_c, 0, 56, 47
4, 84360, Note_off_c, 0, 63, 80
4, 84360, Note_on_c, 0, 63, 47
4, 84600, Note_off_c, 0, 56, 80
4, 84600, Note_on_c, 0, 56, 47
4, 84720, Note_off_c, 0, 63, 80
4, 84720, Note_on_c, 0, 61, 47
4, 84960, Note_off_c, 0, 59, 80
4, 84960, Note_on_c, 0, 58, 47
4, 85080, Note_off_c, 0, 58, 80
4, 85080, Note_on_c, 0, 59, 38
4, 85200, Note_off_c, 0, 56, 80
4, 85200, Note_on_c, 0, 56, 47
4, 85440, Note_off_c, 0, 59, 80
4, 85440, Note_on_c, 0, 58, 47
4, 85680, Note_off_c, 0, 58, 80
4, 85680, Note_on_c, 0, 59, 47
4, 85920, Note_off_c, 0, 56, 80
4, 85920, Note_on_c, 0, 56, 47
4, 86160, Note_off_c, 0, 56, 80
4, 86160, Note_on_c, 0, 54, 47
4, 86400, Note_off_c, 0, 54, 80
4, 86400, Note_on_c, 0, 56, 47
4, 86760, Note_off_c, 0, 61, 80
4, 86760, Note_on_c, 0, 63, 47
4, 87000, Note_off_c, 0, 56, 80
4, 87000, Note_on_c, 0, 56, 47
4, 87120, Note_off_c, 0, 63, 80
4, 87120, Note_on_c, 0, 61, 47
4, 87240, Note_off_c, 0, 61, 80
4, 87240, Note_on_c, 0, 63, 47
4, 87360, Note_off_c, 0, 59, 80
4, 87360, Note_on_c, 0, 58, 47
4, 87480, Note_off_c, 0, 58, 80
4, 87480, Note_on_c, 0, 59, 38
4, 87600, Note_off_c, 0, 56, 80
4, 87600, Note_on_c, 0, 56, 47
4, 87840, Note_off_c, 0, 59, 80
4, 87840, Note_on_c, 0, 58, 47
4, 88080, Note_off_c, 0, 58, 80
4, 88080, Note_on_c, 0, 59, 47
4, 88320, Note_off_c, 0, 56, 80
4, 88320, Note_on_c, 0, 56, 47
4, 88560, Note_off_c, 0, 56, 80
4, 88560, Note_on_c, 0, 54, 47
4, 88800, Note_off_c, 0, 63, 80
4, 88800, Note_off_c, 0, 59, 80
4, 88800, Note_off_c, 0, 54, 80
4, 89160, Note_on_c, 0, 63, 63
4, 89160, Note_on_c, 0, 59, 63
4, 89520, Note_off_c, 0, 63, 80
4, 89520, Note_off_c, 0, 59, 80
4, 89520, Note_on_c, 0, 61, 63
4, 89520, Note_on_c, 0, 58, 63
4, 89760, Note_off_c, 0, 61, 80
4, 89760, Note_off_c, 0, 58, 80
4, 89760, Note_on_c, 1, 63, 63
4, 89760, Note_on_c, 0, 59, 63
4, 89814, Pitch_bend_c, 1, 8832
4, 89820, Pitch_bend_c, 1, 9600
4, 89820, Note_off_c, 0, 59, 80
4, 89820, Note_on_c, 0, 60, 63
4, 89880, Note_off_c, 1, 63, 80
4, 89880, Pitch_bend_c, 1, 8192
4, 89880, Note_off_c, 0, 60, 80
4, 89880, Note_on_c, 0, 61, 63
4, 90360, Note_off_c, 0, 61, 80
4, 90360, Note_on_c, 0, 65, 63
4, 90360, Note_on_c, 0, 61, 63
4, 90600, Note_off_c, 0, 65, 80
4, 90600, Note_on_c, 0, 53, 63
4, 90720, Note_off_c, 0, 61, 80
4, 90720, Note_off_c, 0, 53, 80
4, 90720, Note_on_c, 0, 63, 63
4, 90720, Note_on_c, 0, 59, 63
4, 90960, Note_off_c, 0, 63, 80
4, 90960, Note_on_c, 0, 63, 63
4, 91050, Note_off_c, 0, 63, 80
4, 91050, Note_on_c, 0, 64, 63
4, 91140, Note_off_c, 0, 64, 80
4, 91140, Note_on_c, 0, 65, 63
4, 91200, Note_off_c, 0, 59, 80
4, 91200, Note_off_c, 0, 65, 80
4, 91560, Note_on_c, 0, 66, 63
4, 91560, Note_on_c, 0, 63, 63
4, 91800, Note_off_c, 0, 66, 80
4, 91800, Note_off_c, 0, 63, 80
4, 91800, Note_on_c, 0, 58, 63
4, 91920, Note_off_c, 0, 58, 80
4, 91920, Note_on_c, 0, 65, 63
4, 91920, Note_on_c, 0, 61, 63
4, 92160, Note_off_c, 0, 65, 80
4, 92160, Note_off_c, 0, 61, 80
4, 92160, Note_on_c, 0, 63, 63
4, 92400, Note_off_c, 0, 63, 80
4, 92760, Note_on_c, 0, 65, 63
4, 92760, Note_on_c, 0, 61, 63
4, 93000, Note_off_c, 0, 65, 80
4, 93000, Note_off_c, 0, 61, 80
4, 93000, Note_on_c, 0, 56, 63
4, 93120, Note_off_c, 0, 56, 80
4, 93120, Note_on_c, 0, 63, 63
4, 93120, Note_on_c, 0, 59, 63
4, 93240, Note_off_c, 0, 63, 80
4, 93240, Note_off_c, 0, 59, 80
4, 93240, Note_on_c, 0, 65, 63
4, 93360, Note_off_c, 0, 65, 80
4, 93360, Note_on_c, 0, 59, 63
4, 93360, Note_on_c, 0, 56, 63
4, 93480, Note_off_c, 0, 59, 80
4, 93480, Note_off_c, 0, 56, 80
4, 93480, Note_on_c, 0, 58, 63
4, 93600, Note_off_c, 0, 58, 80
4, 93960, Note_on_c, 0, 63, 63
4, 93960, Note_on_c, 0, 59, 63
4, 94320, Note_off_c, 0, 63, 80
4, 94320, Note_off_c, 0, 59, 80
4, 94320, Note_on_c, 0, 61, 63
4, 94320, Note_on_c, 0, 58, 63
4, 94560, Note_off_c, 0, 61, 80
4, 94560, Note_off_c, 0, 58, 80
4, 94560, Note_on_c, 1, 63, 63
4, 94560, Note_on_c, 0, 59, 63
4, 94614, Pitch_bend_c, 1, 8832
4, 94620, Pitch_bend_c, 1, 9600
4, 94620, Note_off_c, 0, 59, 80
4, 94620, Note_on_c, 0, 60, 63
4, 94680, Note_off_c, 1, 63, 80
4, 94680, Pitch_bend_c, 1, 8192
4, 94680, Note_off_c, 0, 60, 80
4, 94680, Note_on_c, 0, 61, 63
4, 95160, Note_off_c, 0, 61, 80
4, 95160, Note_on_c, 0, 65, 63
4, 95160, Note_on_c, 0, 61, 63
4, 95400, Note_off_c, 0, 65, 80
4, 95400, Note_on_c, 0, 53, 63
4, 95520, Note_off_c, 0, 61, 80
4, 95520, Note_off_c, 0, 53, 80
4, 95520, Note_on_c, 0, 63, 63
4, 95520, Note_on_c, 0, 59, 63
4, 95760, Note_off_c, 0, 63, 80
4, 95760, Note_on_c, 0, 63, 63
4, 95850, Note_off_c, 0, 63, 80
4, 95850, Note_on_c, 0, 64, 63
4, 95940, Note_off_c, 0, 64, 80
4, 95940, Note_on_c, 0, 65, 63
4, 96000, Note_off_c, 0, 59, 80
4, 96000, Note_off_c, 0, 65, 80
4, 96360, Note_on_c, 0, 66, 63
4, 96360, Note_on_c, 0, 63, 63
4, 96600, Note_off_c, 0, 66, 80
4, 96600, Note_off_c, 0, 63, 80
4, 96600, Note_on_c, 0, 58, 63
4, 96720, Note_off_c, 0, 58, 80
4, 96720, Note_on_c, 0, 65, 63
4, 96720, Note_on_c, 0, 61, 63
4, 96960, Note_off_c, 0, 65, 80
4, 96960, Note_off_c, 0, 61, 80
4, 96960, Note_on_c, 0, 63, 63
4, 97200, Note_off_c, 0, 63, 80
4, 97560, Note_on_c, 0, 65, 63
4, 97560, Note_on_c, 0, 61, 63
4, 97800, Note_off_c, 0, 65, 80
4, 97800, Note_off_c, 0, 61, 80
4, 97800, Note_on_c, 0, 56, 63
4, 97920, Note_off_c, 0, 56, 80
4, 97920, Note_on_c, 0, 63, 63
4, 97920, Note_on_c, 0, 59, 63
4, 98040, Note_off_c, 0, 63, 80
4, 98040, Note_off_c, 0, 59, 80
4, 98040, Note_on_c, 0, 65, 63
4, 98160, Note_off_c, 0, 65, 80
4, 98160, Note_on_c, 0, 59, 63
4, 98160, Note_on_c, 0, 56, 63
4, 98280, Note_off_c, 0, 59, 80
4, 98280, Note_off_c, 0, 56, 80
4, 98280, Note_on_c, 0, 58, 63
4, 98400, Note_off_c, 0, 58, 80
4, 98760, Note_on_c, 0, 63, 63
4, 98760, Note_on_c, 0, 59, 63
4, 99120, Note_off_c, 0, 63, 80
4, 99120, Note_off_c, 0, 59, 80
4, 99120, Note_on_c, 0, 61, 63
4, 99120, Note_on_c, 0, 58, 63
4, 99360, Note_off_c, 0, 61, 80
4, 99360, Note_off_c, 0, 58, 80
4, 99360, Note_on_c, 1, 63, 63
4, 99360, Note_on_c, 0, 59, 63
4, 99414, Pitch_bend_c, 1, 8832
4, 99420, Pitch_bend_c, 1, 9600
4, 99420, Note_off_c, 0, 59, 80
4, 99420, Note_on_c, 0, 60, 63
4, 99480, Note_off_c, 1, 63, 80
4, 99480, Pitch_bend_c, 1, 8192
4, 99480, Note_off_c, 0, 60, 80
4, 99480, Note_on_c, 0, 61, 63
4, 99960, Note_off_c, 0, 61, 80
4, 99960, Note_on_c, 0, 65, 63
4, 99960, Note_on_c, 0, 61, 63
4, 100200, Note_off_c, 0, 65, 80
4, 100200, Note_on_c, 0, 53, 63
4, 100320, Note_off_c, 0, 61, 80
4, 100320, Note_off_c, 0, 53, 80
4, 100320, Note_on_c, 0, 63, 63
4, 100320, Note_on_c, 0, 59, 63
4, 100560, Note_off_c, 0, 63, 80
4, 100560, Note_on_c, 0, 63, 63
4, 100650, Note_off_c, 0, 63, 80
4, 100650, Note_on_c, 0, 64, 63
4, 100740, Note_off_c, 0, 64, 80
4, 100740, Note_on_c, 0, 65, 63
4, 100800, Note_off_c, 0, 59, 80
4, 100800, Note_off_c, 0, 65, 80
4, 101160, Note_on_c, 0, 66, 63
4, 101160, Note_on_c, 0, 63, 63
4, 101400, Note_off_c, 0, 66, 80
4, 101400, Note_off_c, 0, 63, 80
4, 101400, Note_on_c, 0, 58, 63
4, 101520, Note_off_c, 0, 58, 80
4, 101520, Note_on_c, 0, 65, 63
4, 101520, Note_on_c, 0, 61, 63
4, 101760, Note_off_c, 0, 65, 80
4, 101760, Note_off_c, 0, 61, 80
4, 101760, Note_on_c, 0, 63, 63
4, 102000, Note_off_c, 0, 63, 80
4, 102360, Note_on_c, 0, 65, 63
4, 102360, Note_on_c, 0, 61, 63
4, 102600, Note_off_c, 0, 65, 80
4, 102600, Note_off_c, 0, 61, 80
4, 102600, Note_on_c, 0, 56, 63
4, 102720, Note_off_c, 0, 56, 80
4, 102720, Note_on_c, 0, 63, 63
4, 102720, Note_on_c, 0, 59, 63
4, 102840, Note_off_c, 0, 63, 80
4, 102840, Note_off_c, 0, 59, 80
4, 102840, Note_on_c, 0, 65, 63
4, 102960, Note_off_c, 0, 65, 80
4, 102960, Note_on_c, 0, 59, 63
4, 102960, Note_on_c, 0, 56, 63
4, 103080, Note_off_c, 0, 59, 80
4, 103080, Note_off_c, 0, 56, 80
4, 103080, Note_on_c, 0, 58, 63
4, 103200, Note_off_c, 0, 58, 80
4, 103560, Note_on_c, 0, 63, 63
4, 103560, Note_on_c, 0, 59, 63
4, 103920, Note_off_c, 0, 63, 80
4, 103920, Note_off_c, 0, 59, 80
4, 103920, Note_on_c, 0, 61, 63
4, 103920, Note_on_c, 0, 58, 63
4, 104160, Note_off_c, 0, 61, 80
4, 104160, Note_off_c, 0, 58, 80
4, 104160, Note_on_c, 1, 63, 63
4, 104160, Note_on_c, 0, 59, 63
4, 104214, Pitch_bend_c, 1, 8832
4, 104220, Pitch_bend_c, 1, 9600
4, 104220, Note_off_c, 0, 59, 80
4, 104220, Note_on_c, 0, 60, 63
4, 104280, Note_off_c, 1, 63, 80
4, 104280, Pitch_bend_c, 1, 8192
4, 104280, Note_off_c, 0, 60, 80
4, 104280, Note_on_c, 0, 61, 63
4, 104760, Note_off_c, 0, 61, 80
4, 104760, Note_on_c, 0, 65, 63
4, 104760, Note_on_c, 0, 61, 63
4, 105000, Note_off_c, 0, 65, 80
4, 105000, Note_on_c, 0, 53, 63
4, 105120, Note_off_c, 0, 61, 80
4, 105120, Note_off_c, 0, 53, 80
4, 105120, Note_on_c, 0, 63, 63
4, 105120, Note_on_c, 0, 59, 63
4, 105360, Note_off_c, 0, 63, 80
4, 105360, Note_on_c, 0, 63, 63
4, 105450, Note_off_c, 0, 63, 80
4, 105450, Note_on_c, 0, 64, 63
4, 105540, Note_off_c, 0, 64, 80
4, 105540, Note_on_c, 0, 65, 63
4, 105600, Note_off_c, 0, 59, 80
4, 105600, Note_off_c, 0, 65, 80
4, 105960, Note_on_c, 0, 66, 63
4, 105960, Note_on_c, 0, 63, 63
4, 106200, Note_off_c, 0, 66, 80
4, 106200, Note_off_c, 0, 63, 80
4, 106200, Note_on_c, 0, 58, 63
4, 106320, Note_off_c, 0, 58, 80
4, 106320, Note_on_c, 0, 65, 63
4, 106320, Note_on_c, 0, 61, 63
4, 106560, Note_off_c, 0, 65, 80
4, 106560, Note_off_c, 0, 61, 80
4, 106560, Note_on_c, 0, 63, 63
4, 106800, Note_off_c, 0, 63, 80
4, 107160, Note_on_c, 0, 65, 63
4, 107160, Note_on_c, 0, 61, 63
4, 107400, Note_off_c, 0, 65, 80
4, 107400, Note_off_c, 0, 61, 80
4, 107400, Note_on_c, 0, 56, 63
4, 107520, Note_off_c, 0, 56, 80
4, 107520, Note_on_c, 0, 63, 63
4, 107520, Note_on_c, 0, 59, 63
4, 107640, Note_off_c, 0, 63, 80
4, 107640, Note_off_c, 0, 59, 80
4, 107640, Note_on_c, 0, 65, 63
4, 107760, Note_off_c, 0, 65, 80
4, 107760, Note_on_c, 0, 59, 63
4, 107760, Note_on_c, 0, 56, 63
4, 107880, Note_off_c, 0, 59, 80
4, 107880, Note_off_c, 0, 56, 80
4, 107880, Note_on_c, 0, 58, 63
4, 108000, Note_off_c, 0, 58, 80
4, 108360, Note_on_c, 0, 63, 63
4, 108360, Note_on_c, 0, 59, 63
4, 108720, Note_off_c, 0, 63, 80
4, 108720, Note_off_c, 0, 59, 80
4, 108720, Note_on_c, 0, 61, 63
4, 108720, Note_on_c, 0, 58, 63
4, 108960, Note_off_c, 0, 61, 80
4, 108960, Note_off_c, 0, 58, 80
4, 108960, Note_on_c, 1, 63, 63
4, 108960, Note_on_c, 0, 59, 63
4, 109014, Pitch_bend_c, 1, 8832
4, 109020, Pitch_bend_c, 1, 9600
4, 109020, Note_off_c, 0, 59, 80
4, 109020, Note_on_c, 0, 60, 63
4, 109080, Note_off_c, 1, 63, 80
4, 109080, Pitch_bend_c, 1, 8192
4, 109080, Note_off_c, 0, 60, 80
4, 109080, Note_on_c, 0, 61, 63
4, 109560, Note_off_c, 0, 61, 80
4, 109560, Note_on_c, 0, 65, 63
4, 109560, Note_on_c, 0, 61, 63
4, 109800, Note_off_c, 0, 65, 80
4, 109800, Note_on_c, 0, 53, 63
4, 109920, Note_off_c, 0, 61, 80
4, 109920, Note_off_c, 0, 53, 80
4, 109920, Note_on_c, 0, 63, 63
4, 109920, Note_on_c, 0, 59, 63
4, 110160, Note_off_c, 0, 63, 80
4, 110160, Note_on_c, 0, 63, 63
4, 110250, Note_off_c, 0, 63, 80
4, 110250, Note_on_c, 0, 64, 63
4, 110340, Note_off_c, 0, 64, 80
4, 110340, Note_on_c, 0, 65, 63
4, 110400, Note_off_c, 0, 59, 80
4, 110400, Note_off_c, 0, 65, 80
4, 110760, Note_on_c, 0, 66, 63
4, 110760, Note_on_c, 0, 63, 63
4, 111000, Note_off_c, 0, 66, 80
4, 111000, Note_off_c, 0, 63, 80
4, 111000, Note_on_c, 0, 58, 63
4, 111120, Note_off_c, 0, 58, 80
4, 111120, Note_on_c, 0, 65, 63
4, 111120, Note_on_c, 0, 61, 63
4, 111360, Note_off_c, 0, 65, 80
4, 111360, Note_off_c, 0, 61, 80
4, 111360, Note_on_c, 0, 63, 63
4, 111600, Note_off_c, 0, 63, 80
4, 111960, Note_on_c, 0, 65, 63
4, 111960, Note_on_c, 0, 61, 63
4, 112200, Note_off_c, 0, 65, 80
4, 112200, Note_off_c, 0, 61, 80
4, 112200, Note_on_c, 0, 56, 63
4, 112320, Note_off_c, 0, 56, 80
4, 112320, Note_on_c, 0, 63, 63
4, 112320, Note_on_c, 0, 59, 63
4, 112440, Note_off_c, 0, 63, 80
4, 112440, Note_off_c, 0, 59, 80
4, 112440, Note_on_c, 0, 65, 63
4, 112560, Note_off_c, 0, 65, 80
4, 112560, Note_on_c, 0, 59, 63
4, 112560, Note_on_c, 0, 56, 63
4, 112680, Note_off_c, 0, 59, 80
4, 112680, Note_off_c, 0, 56, 80
4, 112680, Note_on_c, 0, 58, 63
4, 112800, Note_off_c, 0, 58, 80
4, 155520, Note_on_c, 1, 75, 95
4, 155880, Pitch_bend_c, 1, 7552
4, 155910, Pitch_bend_c, 1, 6784
4, 155940, Pitch_bend_c, 1, 6144
4, 155970, Pitch_bend_c, 1, 5504
4, 156000, Pitch_bend_c, 1, 4736
4, 156000, Pitch_bend_c, 1, 4736
4, 156004, Pitch_bend_c, 1, 4736
4, 156009, Pitch_bend_c, 1, 4736
4, 156013, Pitch_bend_c, 1, 4736
4, 156018, Pitch_bend_c, 1, 4736
4, 156022, Pitch_bend_c, 1, 4736
4, 156026, Pitch_bend_c, 1, 4608
4, 156031, Pitch_bend_c, 1, 4608
4, 156035, Pitch_bend_c, 1, 4608
4, 156040, Pitch_bend_c, 1, 4608
4, 156044, Pitch_bend_c, 1, 4608
4, 156048, Pitch_bend_c, 1, 4736
4, 156053, Pitch_bend_c, 1, 4736
4, 156057, Pitch_bend_c, 1, 4736
4, 156062, Pitch_bend_c, 1, 4736
4, 156066, Pitch_bend_c, 1, 4736
4, 156070, Pitch_bend_c, 1, 4736
4, 156075, Pitch_bend_c, 1, 4736
4, 156079, Pitch_bend_c, 1, 4736
4, 156084, Pitch_bend_c, 1, 4736
4, 156088, Pitch_bend_c, 1, 4736
4, 156093, Pitch_bend_c, 1, 4736
4, 156097, Pitch_bend_c, 1, 4864
4, 156101, Pitch_bend_c, 1, 4864
4, 156106, Pitch_bend_c, 1, 4864
4, 156110, Pitch_bend_c, 1, 4864
4, 156115, Pitch_bend_c, 1, 4864
4, 156119, Pitch_bend_c, 1, 4736
4, 156123, Pitch_bend_c, 1, 4736
4, 156128, Pitch_bend_c, 1, 4736
4, 156132, Pitch_bend_c, 1, 4736
4, 156137, Pitch_bend_c, 1, 4736
4, 156141, Pitch_bend_c, 1, 4736
4, 156145, Pitch_bend_c, 1, 4736
4, 156150, Pitch_bend_c, 1, 4736
4, 156154, Pitch_bend_c, 1, 4864
4, 156159, Pitch_bend_c, 1, 4864
4, 156163, Pitch_bend_c, 1, 4864
4, 156167, Pitch_bend_c, 1, 4864
4, 156172, Pitch_bend_c, 1, 4864
4, 156176, Pitch_bend_c, 1, 4864
4, 156181, Pitch_bend_c, 1, 4864
4, 156185, Pitch_bend_c, 1, 4864
4, 156189, Pitch_bend_c, 1, 4864
4, 156194, Pitch_bend_c, 1, 4864
4, 156198, Pitch_bend_c, 1, 4864
4, 156203, Pitch_bend_c, 1, 4736
4, 156207, Pitch_bend_c, 1, 4736
4, 156211, Pitch_bend_c, 1, 4736
4, 156216, Pitch_bend_c, 1, 4736
4, 156220, Pitch_bend_c, 1, 4736
4, 156225, Pitch_bend_c, 1, 4608
4, 156229, Pitch_bend_c, 1, 4608
4, 156234, Pitch_bend_c, 1, 4608
4, 156238, Pitch_bend_c, 1, 4608
4, 156242, Pitch_bend_c, 1, 4608
4, 156247, Pitch_bend_c, 1, 4608
4, 156251, Pitch_bend_c, 1, 4608
4, 156256, Pitch_bend_c, 1, 4608
4, 156260, Pitch_bend_c, 1, 4608
4, 156264, Pitch_bend_c, 1, 4608
4, 156269, Pitch_bend_c, 1, 4608
4, 156273, Pitch_bend_c, 1, 4736
4, 156278, Pitch_bend_c, 1, 4736
4, 156282, Pitch_bend_c, 1, 4736
4, 156286, Pitch_bend_c, 1, 4736
4, 156291, Pitch_bend_c, 1, 4864
4, 156295, Pitch_bend_c, 1, 4864
4, 156300, Pitch_bend_c, 1, 4992
4, 156304, Pitch_bend_c, 1, 4992
4, 156308, Pitch_bend_c, 1, 4992
4, 156313, Pitch_bend_c, 1, 4992
4, 156317, Pitch_bend_c, 1, 4992
4, 156322, Pitch_bend_c, 1, 4992
4, 156326, Pitch_bend_c, 1, 4992
4, 156330, Pitch_bend_c, 1, 4992
4, 156335, Pitch_bend_c, 1, 4992
4, 156339, Pitch_bend_c, 1, 4864
4, 156344, Pitch_bend_c, 1, 4864
4, 156348, Pitch_bend_c, 1, 4736
4, 156352, Pitch_bend_c, 1, 4736
4, 156357, Pitch_bend_c, 1, 4736
4, 156361, Pitch_bend_c, 1, 4608
4, 156366, Pitch_bend_c, 1, 4608
4, 156370, Pitch_bend_c, 1, 4480
4, 156375, Pitch_bend_c, 1, 4480
4, 156379, Pitch_bend_c, 1, 4480
4, 156383, Pitch_bend_c, 1, 4480
4, 156388, Pitch_bend_c, 1, 4480
4, 156392, Pitch_bend_c, 1, 4480
4, 156397, Pitch_bend_c, 1, 4480
4, 156401, Pitch_bend_c, 1, 4480
4, 156405, Pitch_bend_c, 1, 4480
4, 156410, Pitch_bend_c, 1, 4608
4, 156414, Pitch_bend_c, 1, 4608
4, 156419, Pitch_bend_c, 1, 4736
4, 156423, Pitch_bend_c, 1, 4736
4, 156427, Pitch_bend_c, 1, 4736
4, 156432, Pitch_bend_c, 1, 4864
4, 156436, Pitch_bend_c, 1, 4864
4, 156441, Pitch_bend_c, 1, 4992
4, 156445, Pitch_bend_c, 1, 4992
4, 156449, Pitch_bend_c, 1, 4992
4, 156454, Pitch_bend_c, 1, 4992
4, 156458, Pitch_bend_c, 1, 4992
4, 156463, Pitch_bend_c, 1, 4992
4, 156467, Pitch_bend_c, 1, 4992
4, 156471, Pitch_bend_c, 1, 4992
4, 156476, Pitch_bend_c, 1, 4992
4, 156480, Pitch_bend_c, 1, 4864
4, 156485, Pitch_bend_c, 1, 4864
4, 156489, Pitch_bend_c, 1, 4736
4, 156493, Pitch_bend_c, 1, 4736
4, 156498, Pitch_bend_c, 1, 4736
4, 156502, Pitch_bend_c, 1, 4608
4, 156507, Pitch_bend_c, 1, 4608
4, 156511, Pitch_bend_c, 1, 4480
4, 156516, Pitch_bend_c, 1, 4480
4, 156520, Pitch_bend_c, 1, 4480
4, 156524, Pitch_bend_c, 1, 4480
4, 156529, Pitch_bend_c, 1, 4480
4, 156533, Pitch_bend_c, 1, 4480
4, 156538, Pitch_bend_c, 1, 4480
4, 156542, Pitch_bend_c, 1, 4480
4, 156546, Pitch_bend_c, 1, 4480
4, 156551, Pitch_bend_c, 1, 4608
4, 156555, Pitch_bend_c, 1, 4608
4, 156560, Pitch_bend_c, 1, 4736
4, 156564, Pitch_bend_c, 1, 4736
4, 156568, Pitch_bend_c, 1, 4736
4, 156573, Pitch_bend_c, 1, 4864
4, 156577, Pitch_bend_c, 1, 4864
4, 156582, Pitch_bend_c, 1, 4864
4, 156586, Pitch_bend_c, 1, 4864
4, 156590, Pitch_bend_c, 1, 4992
4, 156595, Pitch_bend_c, 1, 4992
4, 156599, Pitch_bend_c, 1, 4992
4, 156604, Pitch_bend_c, 1, 4992
4, 156608, Pitch_bend_c, 1, 4992
4, 156612, Pitch_bend_c, 1, 4864
4, 156617, Pitch_bend_c, 1, 4864
4, 156621, Pitch_bend_c, 1, 4864
4, 156626, Pitch_bend_c, 1, 4864
4, 156630, Pitch_bend_c, 1, 4736
4, 156634, Pitch_bend_c, 1, 4736
4, 156639, Pitch_bend_c, 1, 4736
4, 156643, Pitch_bend_c, 1, 4608
4, 156648, Pitch_bend_c, 1, 4608
4, 156652, Pitch_bend_c, 1, 4608
4, 156657, Pitch_bend_c, 1, 4608
4, 156661, Pitch_bend_c, 1, 4480
4, 156665, Pitch_bend_c, 1, 4480
4, 156670, Pitch_bend_c, 1, 4480
4, 156674, Pitch_bend_c, 1, 4480
4, 156679, Pitch_bend_c, 1, 4480
4, 156683, Pitch_bend_c, 1, 4608
4, 156687, Pitch_bend_c, 1, 4608
4, 156692, Pitch_bend_c, 1, 4608
4, 156696, Pitch_bend_c, 1, 4608
4, 156701, Pitch_bend_c, 1, 4736
4, 156705, Pitch_bend_c, 1, 4736
4, 156709, Pitch_bend_c, 1, 4736
4, 156714, Pitch_bend_c, 1, 4864
4, 156718, Pitch_bend_c, 1, 4864
4, 156723, Pitch_bend_c, 1, 4864
4, 156727, Pitch_bend_c, 1, 4992
4, 156731, Pitch_bend_c, 1, 4992
4, 156736, Pitch_bend_c, 1, 4992
4, 156740, Pitch_bend_c, 1, 4992
4, 156745, Pitch_bend_c, 1, 4992
4, 156749, Pitch_bend_c, 1, 4992
4, 156753, Pitch_bend_c, 1, 4992
4, 156758, Pitch_bend_c, 1, 4864
4, 156762, Pitch_bend_c, 1, 4864
4, 156767, Pitch_bend_c, 1, 4864
4, 156771, Pitch_bend_c, 1, 4736
4, 156775, Pitch_bend_c, 1, 4736
4, 156780, Pitch_bend_c, 1, 4736
4, 156784, Pitch_bend_c, 1, 4608
4, 156789, Pitch_bend_c, 1, 4608
4, 156793, Pitch_bend_c, 1, 4608
4, 156798, Pitch_bend_c, 1, 4480
4, 156802, Pitch_bend_c, 1, 4480
4, 156806, Pitch_bend_c, 1, 4480
4, 156811, Pitch_bend_c, 1, 4480
4, 156815, Pitch_bend_c, 1, 4480
4, 156820, Pitch_bend_c, 1, 4480
4, 156824, Pitch_bend_c, 1, 4480
4, 156828, Pitch_bend_c, 1, 4608
4, 156833, Pitch_bend_c, 1, 4608
4, 156837, Pitch_bend_c, 1, 4608
4, 156842, Pitch_bend_c, 1, 4736
4, 156846, Pitch_bend_c, 1, 4736
4, 156850, Pitch_bend_c, 1, 4736
4, 156855, Pitch_bend_c, 1, 4864
4, 156859, Pitch_bend_c, 1, 4864
4, 156864, Pitch_bend_c, 1, 4992
4, 156868, Pitch_bend_c, 1, 4992
4, 156872, Pitch_bend_c, 1, 4992
4, 156877, Pitch_bend_c, 1, 4992
4, 156881, Pitch_bend_c, 1, 4992
4, 156886, Pitch_bend_c, 1, 4992
4, 156890, Pitch_bend_c, 1, 4992
4, 156894, Pitch_bend_c, 1, 4992
4, 156899, Pitch_bend_c, 1, 4992
4, 156903, Pitch_bend_c, 1, 4864
4, 156908, Pitch_bend_c, 1, 4864
4, 156912, Pitch_bend_c, 1, 4736
4, 156916, Pitch_bend_c, 1, 4736
4, 156921, Pitch_bend_c, 1, 4736
4, 156925, Pitch_bend_c, 1, 4608
4, 156930, Pitch_bend_c, 1, 4608
4, 156934, Pitch_bend_c, 1, 4480
4, 156939, Pitch_bend_c, 1, 4480
4, 156943, Pitch_bend_c, 1, 4480
4, 156947, Pitch_bend_c, 1, 4480
4, 156952, Pitch_bend_c, 1, 4480
4, 156956, Pitch_bend_c, 1, 4480
4, 156961, Pitch_bend_c, 1, 4480
4, 156965, Pitch_bend_c, 1, 4480
4, 156969, Pitch_bend_c, 1, 4480
4, 156974, Pitch_bend_c, 1, 4608
4, 156978, Pitch_bend_c, 1, 4608
4, 156983, Pitch_bend_c, 1, 4736
4, 156987, Pitch_bend_c, 1, 4736
4, 156991, Pitch_bend_c, 1, 4736
4, 156996, Pitch_bend_c, 1, 4864
4, 157000, Pitch_bend_c, 1, 4864
4, 157005, Pitch_bend_c, 1, 4864
4, 157009, Pitch_bend_c, 1, 4864
4, 157013, Pitch_bend_c, 1, 4992
4, 157018, Pitch_bend_c, 1, 4992
4, 157022, Pitch_bend_c, 1, 4992
4, 157027, Pitch_bend_c, 1, 4992
4, 157031, Pitch_bend_c, 1, 4992
4, 157035, Pitch_bend_c, 1, 4864
4, 157040, Pitch_bend_c, 1, 4864
4, 157044, Pitch_bend_c, 1, 4864
4, 157049, Pitch_bend_c, 1, 4864
4, 157053, Pitch_bend_c, 1, 4736
4, 157057, Pitch_bend_c, 1, 4736
4, 157062, Pitch_bend_c, 1, 4736
4, 157066, Pitch_bend_c, 1, 4608
4, 157071, Pitch_bend_c, 1, 4608
4, 157075, Pitch_bend_c, 1, 4608
4, 157080, Pitch_bend_c, 1, 4608
4, 157084, Pitch_bend_c, 1, 4480
4, 157088, Pitch_bend_c, 1, 4480
4, 157093, Pitch_bend_c, 1, 4480
4, 157097, Pitch_bend_c, 1, 4480
4, 157102, Pitch_bend_c, 1, 4480
4, 157106, Pitch_bend_c, 1, 4608
4, 157110, Pitch_bend_c, 1, 4608
4, 157115, Pitch_bend_c, 1, 4608
4, 157119, Pitch_bend_c, 1, 4608
4, 157124, Pitch_bend_c, 1, 4736
4, 157128, Pitch_bend_c, 1, 4736
4, 157132, Pitch_bend_c, 1, 4736
4, 157137, Pitch_bend_c, 1, 4864
4, 157141, Pitch_bend_c, 1, 4864
4, 157146, Pitch_bend_c, 1, 4864
4, 157150, Pitch_bend_c, 1, 4864
4, 157154, Pitch_bend_c, 1, 4864
4, 157159, Pitch_bend_c, 1, 4864
4, 157163, Pitch_bend_c, 1, 4864
4, 157168, Pitch_bend_c, 1, 4864
4, 157172, Pitch_bend_c, 1, 4864
4, 157176, Pitch_bend_c, 1, 4864
4, 157181, Pitch_bend_c, 1, 4864
4, 157185, Pitch_bend_c, 1, 4864
4, 157190, Pitch_bend_c, 1, 4864
4, 157194, Pitch_bend_c, 1, 4736
4, 157198, Pitch_bend_c, 1, 4736
4, 157203, Pitch_bend_c, 1, 4736
4, 157207, Pitch_bend_c, 1, 4608
4, 157212, Pitch_bend_c, 1, 4608
4, 157216, Pitch_bend_c, 1, 4608
4, 157221, Pitch_bend_c, 1, 4608
4, 157225, Pitch_bend_c, 1, 4608
4, 157229, Pitch_bend_c, 1, 4608
4, 157234, Pitch_bend_c, 1, 4608
4, 157238, Pitch_bend_c, 1, 4608
4, 157243, Pitch_bend_c, 1, 4608
4, 157247, Pitch_bend_c, 1, 4608
4, 157251, Pitch_bend_c, 1, 4608
4, 157256, Pitch_bend_c, 1, 4608
4, 157260, Pitch_bend_c, 1, 4608
4, 157265, Pitch_bend_c, 1, 4736
4, 157269, Pitch_bend_c, 1, 4736
4, 157273, Pitch_bend_c, 1, 4736
4, 157278, Pitch_bend_c, 1, 4864
4, 157282, Pitch_bend_c, 1, 4864
4, 157287, Pitch_bend_c, 1, 4864
4, 157291, Pitch_bend_c, 1, 4864
4, 157295, Pitch_bend_c, 1, 4992
4, 157300, Pitch_bend_c, 1, 4992
4, 157304, Pitch_bend_c, 1, 4992
4, 157309, Pitch_bend_c, 1, 4992
4, 157313, Pitch_bend_c, 1, 4992
4, 157317, Pitch_bend_c, 1, 4864
4, 157322, Pitch_bend_c, 1, 4864
4, 157326, Pitch_bend_c, 1, 4864
4, 157331, Pitch_bend_c, 1, 4864
4, 157335, Pitch_bend_c, 1, 4736
4, 157339, Pitch_bend_c, 1, 4736
4, 157344, Pitch_bend_c, 1, 4736
4, 157348, Pitch_bend_c, 1, 4608
4, 157353, Pitch_bend_c, 1, 4608
4, 157357, Pitch_bend_c, 1, 4608
4, 157362, Pitch_bend_c, 1, 4608
4, 157366, Pitch_bend_c, 1, 4480
4, 157370, Pitch_bend_c, 1, 4480
4, 157375, Pitch_bend_c, 1, 4480
4, 157379, Pitch_bend_c, 1, 4480
4, 157384, Pitch_bend_c, 1, 4480
4, 157388, Pitch_bend_c, 1, 4608
4, 157392, Pitch_bend_c, 1, 4608
4, 157397, Pitch_bend_c, 1, 4608
4, 157401, Pitch_bend_c, 1, 4608
4, 157406, Pitch_bend_c, 1, 4736
4, 157410, Pitch_bend_c, 1, 4736
4, 157414, Pitch_bend_c, 1, 4736
4, 157419, Pitch_bend_c, 1, 4736
4, 157423, Pitch_bend_c, 1, 4736
4, 157428, Pitch_bend_c, 1, 4736
4, 157432, Pitch_bend_c, 1, 4864
4, 157436, Pitch_bend_c, 1, 4864
4, 157440, Note_off_c, 1, 75, 80
4, 157440, Pitch_bend_c, 1, 8192
4, 157440, Note_on_c, 1, 75, 95
4, 157530, Pitch_bend_c, 1, 7552
4, 157538, Pitch_bend_c, 1, 6784
4, 157545, Pitch_bend_c, 1, 6144
4, 157552, Pitch_bend_c, 1, 5504
4, 157560, Note_off_c, 1, 75, 80
4, 157560, Pitch_bend_c, 1, 8192
4, 157560, Note_on_c, 1, 70, 76
4, 157560, Pitch_bend_c, 1, 8192
4, 157564, Pitch_bend_c, 1, 8192
4, 157569, Pitch_bend_c, 1, 8192
4, 157573, Pitch_bend_c, 1, 8192
4, 157578, Pitch_bend_c, 1, 8192
4, 157582, Pitch_bend_c, 1, 8192
4, 157586, Pitch_bend_c, 1, 8192
4, 157591, Pitch_bend_c, 1, 8192
4, 157595, Pitch_bend_c, 1, 8192
4, 157600, Pitch_bend_c, 1, 8192
4, 157604, Pitch_bend_c, 1, 8192
4, 157608, Pitch_bend_c, 1, 8192
4, 157613, Pitch_bend_c, 1, 8192
4, 157617, Pitch_bend_c, 1, 8192
4, 157622, Pitch_bend_c, 1, 8192
4, 157626, Pitch_bend_c, 1, 8192
4, 157630, Pitch_bend_c, 1, 8192
4, 157635, Pitch_bend_c, 1, 8192
4, 157639, Pitch_bend_c, 1, 8192
4, 157644, Pitch_bend_c, 1, 8192
4, 157648, Pitch_bend_c, 1, 8192
4, 157653, Pitch_bend_c, 1, 8192
4, 157657, Pitch_bend_c, 1, 8192
4, 157661, Pitch_bend_c, 1, 8192
4, 157666, Pitch_bend_c, 1, 8192
4, 157670, Pitch_bend_c, 1, 8192
4, 157675, Pitch_bend_c, 1, 8192
4, 157679, Pitch_bend_c, 1, 8192
4, 157683, Pitch_bend_c, 1, 8192
4, 157688, Pitch_bend_c, 1, 8192
4, 157692, Pitch_bend_c, 1, 8192
4, 157697, Pitch_bend_c, 1, 8192
4, 157701, Pitch_bend_c, 1, 8192
4, 157705, Pitch_bend_c, 1, 8192
4, 157710, Pitch_bend_c, 1, 8320
4, 157714, Pitch_bend_c, 1, 8320
4, 157719, Pitch_bend_c, 1, 8320
4, 157723, Pitch_bend_c, 1, 8320
4, 157727, Pitch_bend_c, 1, 8320
4, 157732, Pitch_bend_c, 1, 8320
4, 157736, Pitch_bend_c, 1, 8320
4, 157741, Pitch_bend_c, 1, 8320
4, 157745, Pitch_bend_c, 1, 8320
4, 157749, Pitch_bend_c, 1, 8320
4, 157754, Pitch_bend_c, 1, 8320
4, 157758, Pitch_bend_c, 1, 8320
4, 157763, Pitch_bend_c, 1, 8320
4, 157767, Pitch_bend_c, 1, 8192
4, 157771, Pitch_bend_c, 1, 8192
4, 157776, Pitch_bend_c, 1, 8192
4, 157780, Pitch_bend_c, 1, 8064
4, 157785, Pitch_bend_c, 1, 8064
4, 157789, Pitch_bend_c, 1, 8064
4, 157794, Pitch_bend_c, 1, 8064
4, 157798, Pitch_bend_c, 1, 8064
4, 157802, Pitch_bend_c, 1, 8064
4, 157807, Pitch_bend_c, 1, 8064
4, 157811, Pitch_bend_c, 1, 8064
4, 157816, Pitch_bend_c, 1, 8064
4, 157820, Pitch_bend_c, 1, 8064
4, 157824, Pitch_bend_c, 1, 8064
4, 157829, Pitch_bend_c, 1, 8064
4, 157833, Pitch_bend_c, 1, 8064
4, 157838, Pitch_bend_c, 1, 8192
4, 157842, Pitch_bend_c, 1, 8192
4, 157846, Pitch_bend_c, 1, 8192
4, 157851, Pitch_bend_c, 1, 8320
4, 157855, Pitch_bend_c, 1, 8320
4, 157860, Pitch_bend_c, 1, 8320
4, 157864, Pitch_bend_c, 1, 8320
4, 157868, Pitch_bend_c, 1, 8448
4, 157873, Pitch_bend_c, 1, 8448
4, 157877, Pitch_bend_c, 1, 8448
4, 157882, Pitch_bend_c, 1, 8448
4, 157886, Pitch_bend_c, 1, 8448
4, 157890, Pitch_bend_c, 1, 8320
4, 157895, Pitch_bend_c, 1, 8320
4, 157899, Pitch_bend_c, 1, 8320
4, 157904, Pitch_bend_c, 1, 8320
4, 157908, Pitch_bend_c, 1, 8192
4, 157912, Pitch_bend_c, 1, 8192
4, 157917, Pitch_bend_c, 1, 8192
4, 157921, Pitch_bend_c, 1, 8064
4, 157926, Pitch_bend_c, 1, 8064
4, 157930, Pitch_bend_c, 1, 8064
4, 157935, Pitch_bend_c, 1, 8064
4, 157939, Pitch_bend_c, 1, 7936
4, 157943, Pitch_bend_c, 1, 7936
4, 157948, Pitch_bend_c, 1, 7936
4, 157952, Pitch_bend_c, 1, 7936
4, 157957, Pitch_bend_c, 1, 7936
4, 157961, Pitch_bend_c, 1, 8064
4, 157965, Pitch_bend_c, 1, 8064
4, 157970, Pitch_bend_c, 1, 8064
4, 157974, Pitch_bend_c, 1, 8064
4, 157979, Pitch_bend_c, 1, 8192
4, 157983, Pitch_bend_c, 1, 8192
4, 157987, Pitch_bend_c, 1, 8192
4, 157992, Pitch_bend_c, 1, 8320
4, 157996, Pitch_bend_c, 1, 8320
4, 158001, Pitch_bend_c, 1, 8320
4, 158005, Pitch_bend_c, 1, 8320
4, 158009, Pitch_bend_c, 1, 8320
4, 158014, Pitch_bend_c, 1, 8448
4, 158018, Pitch_bend_c, 1, 8448
4, 158023, Pitch_bend_c, 1, 8448
4, 158027, Pitch_bend_c, 1, 8320
4, 158031, Pitch_bend_c, 1, 8320
4, 158036, Pitch_bend_c, 1, 8320
4, 158040, Pitch_bend_c, 1, 8320
4, 158045, Pitch_bend_c, 1, 8320
4, 158049, Pitch_bend_c, 1, 8192
4, 158053, Pitch_bend_c, 1, 8192
4, 158058, Pitch_bend_c, 1, 8192
4, 158062, Pitch_bend_c, 1, 8064
4, 158067, Pitch_bend_c, 1, 8064
4, 158071, Pitch_bend_c, 1, 8064
4, 158076, Pitch_bend_c, 1, 8064
4, 158080, Pitch_bend_c, 1, 8064
4, 158084, Pitch_bend_c, 1, 7936
4, 158089, Pitch_bend_c, 1, 7936
4, 158093, Pitch_bend_c, 1, 7936
4, 158098, Pitch_bend_c, 1, 8064
4, 158102, Pitch_bend_c, 1, 8064
4, 158106, Pitch_bend_c, 1, 8064
4, 158111, Pitch_bend_c, 1, 8064
4, 158115, Pitch_bend_c, 1, 8064
4, 158120, Pitch_bend_c, 1, 8192
4, 158124, Pitch_bend_c, 1, 8192
4, 158128, Pitch_bend_c, 1, 8192
4, 158133, Pitch_bend_c, 1, 8320
4, 158137, Pitch_bend_c, 1, 8320
4, 158142, Pitch_bend_c, 1, 8448
4, 158146, Pitch_bend_c, 1, 8448
4, 158150, Pitch_bend_c, 1, 8448
4, 158155, Pitch_bend_c, 1, 8448
4, 158159, Pitch_bend_c, 1, 8448
4, 158164, Pitch_bend_c, 1, 8448
4, 158168, Pitch_bend_c, 1, 8448
4, 158172, Pitch_bend_c, 1, 8448
4, 158177, Pitch_bend_c, 1, 8448
4, 158181, Pitch_bend_c, 1, 8320
4, 158186, Pitch_bend_c, 1, 8320
4, 158190, Pitch_bend_c, 1, 8192
4, 158194, Pitch_bend_c, 1, 8192
4, 158199, Pitch_bend_c, 1, 8192
4, 158203, Pitch_bend_c, 1, 8064
4, 158208, Pitch_bend_c, 1, 8064
4, 158212, Pitch_bend_c, 1, 7936
4, 158217, Pitch_bend_c, 1, 7936
4, 158221, Pitch_bend_c, 1, 7936
4, 158225, Pitch_bend_c, 1, 7936
4, 158230, Pitch_bend_c, 1, 7936
4, 158234, Pitch_bend_c, 1, 7936
4, 158239, Pitch_bend_c, 1, 7936
4, 158243, Pitch_bend_c, 1, 7936
4, 158247, Pitch_bend_c, 1, 7936
4, 158252, Pitch_bend_c, 1, 8064
4, 158256, Pitch_bend_c, 1, 8064
4, 158261, Pitch_bend_c, 1, 8192
4, 158265, Pitch_bend_c, 1, 8192
4, 158269, Pitch_bend_c, 1, 8192
4, 158274, Pitch_bend_c, 1, 8192
4, 158278, Pitch_bend_c, 1, 8192
4, 158280, Note_off_c, 1, 70, 80
4, 158280, Pitch_bend_c, 1, 8192
4, 170400, Note_on_c, 1, 70, 63
4, 170490, Pitch_bend_c, 1, 8832
4, 170498, Pitch_bend_c, 1, 9600
4, 170505, Pitch_bend_c, 1, 10240
4, 170512, Pitch_bend_c, 1, 10880
4, 170520, Pitch_bend_c, 1, 11648
4, 170610, Pitch_bend_c, 1, 11008
4, 170618, Pitch_bend_c, 1, 10240
4, 170625, Pitch_bend_c, 1, 9600
4, 170632, Pitch_bend_c, 1, 8960
4, 170640, Pitch_bend_c, 1, 8192
4, 172560, Note_off_c, 1, 70, 80
4, 172560, Pitch_bend_c, 1, 8192
4, 172560, Note_on_c, 1, 70, 63
4, 172560, Pitch_bend_c, 1, 8192
4, 172564, Pitch_bend_c, 1, 8192
4, 172569, Pitch_bend_c, 1, 8192
4, 172573, Pitch_bend_c, 1, 8192
4, 172578, Pitch_bend_c, 1, 8192
4, 172582, Pitch_bend_c, 1, 8192
4, 172586, Pitch_bend_c, 1, 8192
4, 172591, Pitch_bend_c, 1, 8192
4, 172595, Pitch_bend_c, 1, 8192
4, 172600, Pitch_bend_c, 1, 8192
4, 172604, Pitch_bend_c, 1, 8192
4, 172608, Pitch_bend_c, 1, 8192
4, 172613, Pitch_bend_c, 1, 8192
4, 172617, Pitch_bend_c, 1, 8192
4, 172622, Pitch_bend_c, 1, 8192
4, 172626, Pitch_bend_c, 1, 8192
4, 172630, Pitch_bend_c, 1, 8192
4, 172635, Pitch_bend_c, 1, 8192
4, 172639, Pitch_bend_c, 1, 8192
4, 172644, Pitch_bend_c, 1, 8192
4, 172648, Pitch_bend_c, 1, 8192
4, 172653, Pitch_bend_c, 1, 8192
4, 172657, Pitch_bend_c, 1, 8192
4, 172661, Pitch_bend_c, 1, 8192
4, 172666, Pitch_bend_c, 1, 8192
4, 172670, Pitch_bend_c, 1, 8192
4, 172675, Pitch_bend_c, 1, 8192
4, 172679, Pitch_bend_c, 1, 8192
4, 172683, Pitch_bend_c, 1, 8192
4, 172688, Pitch_bend_c, 1, 8192
4, 172692, Pitch_bend_c, 1, 8192
4, 172697, Pitch_bend_c, 1, 8192
4, 172701, Pitch_bend_c, 1, 8192
4, 172705, Pitch_bend_c, 1, 8192
4, 172710, Pitch_bend_c, 1, 8320
4, 172714, Pitch_bend_c, 1, 8320
4, 172719, Pitch_bend_c, 1, 8448
4, 172723, Pitch_bend_c, 1, 8448
4, 172727, Pitch_bend_c, 1, 8448
4, 172732, Pitch_bend_c, 1, 8448
4, 172736, Pitch_bend_c, 1, 8448
4, 172741, Pitch_bend_c, 1, 8448
4, 172745, Pitch_bend_c, 1, 8448
4, 172749, Pitch_bend_c, 1, 8448
4, 172754, Pitch_bend_c, 1, 8448
4, 172758, Pitch_bend_c, 1, 8320
4, 172763, Pitch_bend_c, 1, 8320
4, 172767, Pitch_bend_c, 1, 8192
4, 172771, Pitch_bend_c, 1, 8192
4, 172776, Pitch_bend_c, 1, 8192
4, 172780, Pitch_bend_c, 1, 8064
4, 172785, Pitch_bend_c, 1, 8064
4, 172789, Pitch_bend_c, 1, 7936
4, 172794, Pitch_bend_c, 1, 7936
4, 172798, Pitch_bend_c, 1, 7936
4, 172800, Note_off_c, 1, 70, 80
4, 172800, Pitch_bend_c, 1, 8192
4, 172800, Note_on_c, 0, 70, 63
4, 173040, Note_off_c, 0, 70, 80
4, 173040, Note_on_c, 1, 70, 63
4, 173112, Pitch_bend_c, 1, 8832
4, 173119, Pitch_bend_c, 1, 9600
4, 173126, Pitch_bend_c, 1, 10240
4, 173133, Pitch_bend_c, 1, 10880
4, 173139, Pitch_bend_c, 1, 11648
4, 173146, Pitch_bend_c, 1, 12288
4, 173153, Pitch_bend_c, 1, 12928
4, 173160, Pitch_bend_c, 1, 13696
4, 173232, Pitch_bend_c, 1, 13056
4, 173239, Pitch_bend_c, 1, 12288
4, 173246, Pitch_bend_c, 1, 11648
4, 173253, Pitch_bend_c, 1, 11008
4, 173259, Pitch_bend_c, 1, 10240
4, 173266, Pitch_bend_c, 1, 9600
4, 173273, Pitch_bend_c, 1, 8960
4, 173280, Pitch_bend_c, 1, 8192
4, 175200, Note_off_c, 1, 70, 80
4, 175200, Pitch_bend_c, 1, 8192
4, 175200, End_track
5, 0, Start_track
5, 0, Title_t, "Phil Selway"
5, 0, Control_c, 9, 100, 0
5, 0, Control_c, 9, 101, 0
5, 0, Control_c, 9, 6, 12
5, 0, Pitch_bend_c, 9, 8192
5, 0, Control_c, 9, 101, 0
5, 0, Control_c, 9, 100, 1
5, 0, Control_c, 9, 6, 64
5, 0, Control_c, 9, 38, 0
5, 0, Control_c, 9, 101, 127
5, 0, Control_c, 9, 100, 127
5, 0, Program_c, 9, 0
5, 0, Control_c, 9, 0, 0
5, 0, Control_c, 9, 7, 96
5, 0, Control_c, 9, 10, 64
5, 0, Control_c, 9, 93, 0
5, 0, Control_c, 9, 91, 0
5, 0, Control_c, 9, 92, 0
5, 0, Control_c, 9, 95, 0
5, 0, Note_on_c, 9, 36, 127
5, 240, Note_off_c, 9, 36, 80
5, 240, Note_on_c, 9, 40, 127
5, 600, Note_off_c, 9, 40, 80
5, 600, Note_on_c, 9, 40, 127
5, 720, Note_off_c, 9, 40, 80
5, 720, Note_on_c, 9, 36, 127
5, 840, Note_off_c, 9, 36, 80
5, 840, Note_on_c, 9, 36, 127
5, 960, Note_off_c, 9, 36, 80
5, 960, Note_on_c, 9, 40, 127
5, 1080, Note_off_c, 9, 40, 80
5, 1200, Note_on_c, 9, 36, 127
5, 1440, Note_off_c, 9, 36, 80
5, 1440, Note_on_c, 9, 40, 127
5, 1800, Note_off_c, 9, 40, 80
5, 1800, Note_on_c, 9, 40, 127
5, 1920, Note_off_c, 9, 40, 80
5, 2160, Note_on_c, 9, 40, 127
5, 2280, Note_off_c, 9, 40, 80
5, 2400, Note_on_c, 9, 36, 127
5, 2640, Note_off_c, 9, 36, 80
5, 2640, Note_on_c, 9, 40, 127
5, 3000, Note_off_c, 9, 40, 80
5, 3000, Note_on_c, 9, 40, 127
5, 3120, Note_off_c, 9, 40, 80
5, 3120, Note_on_c, 9, 36, 127
5, 3240, Note_off_c, 9, 36, 80
5, 3240, Note_on_c, 9, 36, 127
5, 3360, Note_off_c, 9, 36, 80
5, 3360, Note_on_c, 9, 40, 127
5, 3480, Note_off_c, 9, 40, 80
5, 3600, Note_on_c, 9, 36, 127
5, 3840, Note_off_c, 9, 36, 80
5, 3840, Note_on_c, 9, 40, 127
5, 4200, Note_off_c, 9, 40, 80
5, 4200, Note_on_c, 9, 40, 127
5, 4320, Note_off_c, 9, 40, 80
5, 4560, Note_on_c, 9, 40, 127
5, 4680, Note_off_c, 9, 40, 80
5, 4800, Note_on_c, 9, 36, 127
5, 5040, Note_off_c, 9, 36, 80
5, 5040, Note_on_c, 9, 40, 127
5, 5400, Note_off_c, 9, 40, 80
5, 5400, Note_on_c, 9, 40, 127
5, 5520, Note_off_c, 9, 40, 80
5, 5520, Note_on_c, 9, 36, 127
5, 5640, Note_off_c, 9, 36, 80
5, 5640, Note_on_c, 9, 36, 127
5, 5760, Note_off_c, 9, 36, 80
5, 5760, Note_on_c, 9, 40, 127
5, 5880, Note_off_c, 9, 40, 80
5, 6000, Note_on_c, 9, 36, 127
5, 6240, Note_off_c, 9, 36, 80
5, 6240, Note_on_c, 9, 40, 127
5, 6600, Note_off_c, 9, 40, 80
5, 6600, Note_on_c, 9, 40, 127
5, 6720, Note_off_c, 9, 40, 80
5, 6960, Note_on_c, 9, 40, 127
5, 7080, Note_off_c, 9, 40, 80
5, 7200, Note_on_c, 9, 36, 127
5, 7440, Note_off_c, 9, 36, 80
5, 7440, Note_on_c, 9, 40, 127
5, 7800, Note_off_c, 9, 40, 80
5, 7800, Note_on_c, 9, 40, 127
5, 7920, Note_off_c, 9, 40, 80
5, 7920, Note_on_c, 9, 36, 127
5, 8040, Note_off_c, 9, 36, 80
5, 8040, Note_on_c, 9, 36, 127
5, 8160, Note_off_c, 9, 36, 80
5, 8160, Note_on_c, 9, 40, 127
5, 8280, Note_off_c, 9, 40, 80
5, 8400, Note_on_c, 9, 36, 127
5, 8640, Note_off_c, 9, 36, 80
5, 8640, Note_on_c, 9, 40, 127
5, 9000, Note_off_c, 9, 40, 80
5, 9000, Note_on_c, 9, 40, 127
5, 9120, Note_off_c, 9, 40, 80
5, 9360, Note_on_c, 9, 40, 127
5, 9480, Note_off_c, 9, 40, 80
5, 9600, Note_on_c, 9, 36, 127
5, 9840, Note_off_c, 9, 36, 80
5, 9840, Note_on_c, 9, 40, 127
5, 10200, Note_off_c, 9, 40, 80
5, 10200, Note_on_c, 9, 40, 127
5, 10320, Note_off_c, 9, 40, 80
5, 10320, Note_on_c, 9, 36, 127
5, 10440, Note_off_c, 9, 36, 80
5, 10440, Note_on_c, 9, 36, 127
5, 10560, Note_off_c, 9, 36, 80
5, 10560, Note_on_c, 9, 40, 127
5, 10680, Note_off_c, 9, 40, 80
5, 10800, Note_on_c, 9, 36, 127
5, 11040, Note_off_c, 9, 36, 80
5, 11040, Note_on_c, 9, 40, 127
5, 11400, Note_off_c, 9, 40, 80
5, 11400, Note_on_c, 9, 40, 127
5, 11520, Note_off_c, 9, 40, 80
5, 11760, Note_on_c, 9, 40, 127
5, 11880, Note_off_c, 9, 40, 80
5, 12000, Note_on_c, 9, 36, 127
5, 12240, Note_off_c, 9, 36, 80
5, 12240, Note_on_c, 9, 40, 127
5, 12600, Note_off_c, 9, 40, 80
5, 12600, Note_on_c, 9, 40, 127
5, 12720, Note_off_c, 9, 40, 80
5, 12720, Note_on_c, 9, 36, 127
5, 12840, Note_off_c, 9, 36, 80
5, 12840, Note_on_c, 9, 36, 127
5, 12960, Note_off_c, 9, 36, 80
5, 12960, Note_on_c, 9, 40, 127
5, 13080, Note_off_c, 9, 40, 80
5, 13200, Note_on_c, 9, 36, 127
5, 13440, Note_off_c, 9, 36, 80
5, 13440, Note_on_c, 9, 40, 127
5, 13800, Note_off_c, 9, 40, 80
5, 13800, Note_on_c, 9, 40, 127
5, 13920, Note_off_c, 9, 40, 80
5, 14160, Note_on_c, 9, 40, 127
5, 14280, Note_off_c, 9, 40, 80
5, 14400, Note_on_c, 9, 36, 127
5, 14640, Note_off_c, 9, 36, 80
5, 14640, Note_on_c, 9, 40, 127
5, 15000, Note_off_c, 9, 40, 80
5, 15000, Note_on_c, 9, 40, 127
5, 15120, Note_off_c, 9, 40, 80
5, 15120, Note_on_c, 9, 36, 127
5, 15240, Note_off_c, 9, 36, 80
5, 15240, Note_on_c, 9, 36, 127
5, 15360, Note_off_c, 9, 36, 80
5, 15360, Note_on_c, 9, 40, 127
5, 15480, Note_off_c, 9, 40, 80
5, 15600, Note_on_c, 9, 36, 127
5, 15840, Note_off_c, 9, 36, 80
5, 15840, Note_on_c, 9, 40, 127
5, 16200, Note_off_c, 9, 40, 80
5, 16200, Note_on_c, 9, 40, 127
5, 16320, Note_off_c, 9, 40, 80
5, 16560, Note_on_c, 9, 40, 127
5, 16680, Note_off_c, 9, 40, 80
5, 16800, Note_on_c, 9, 42, 127
5, 16800, Note_on_c, 9, 36, 127
5, 16920, Note_off_c, 9, 42, 80
5, 16920, Note_off_c, 9, 36, 80
5, 16920, Note_on_c, 9, 40, 127
5, 17040, Note_off_c, 9, 40, 80
5, 17040, Note_on_c, 9, 42, 127
5, 17040, Note_on_c, 9, 40, 127
5, 17160, Note_off_c, 9, 42, 80
5, 17160, Note_off_c, 9, 40, 80
5, 17160, Note_on_c, 9, 36, 127
5, 17280, Note_off_c, 9, 36, 80
5, 17280, Note_on_c, 9, 42, 127
5, 17400, Note_off_c, 9, 42, 80
5, 17400, Note_on_c, 9, 40, 127
5, 17520, Note_off_c, 9, 40, 80
5, 17520, Note_on_c, 9, 42, 127
5, 17520, Note_on_c, 9, 36, 127
5, 17640, Note_off_c, 9, 42, 80
5, 17640, Note_off_c, 9, 36, 80
5, 17640, Note_on_c, 9, 36, 127
5, 17760, Note_off_c, 9, 36, 80
5, 17760, Note_on_c, 9, 42, 127
5, 17760, Note_on_c, 9, 40, 127
5, 17880, Note_off_c, 9, 42, 80
5, 17880, Note_off_c, 9, 40, 80
5, 18000, Note_on_c, 9, 42, 127
5, 18000, Note_on_c, 9, 36, 127
5, 18120, Note_off_c, 9, 42, 80
5, 18120, Note_off_c, 9, 36, 80
5, 18120, Note_on_c, 9, 36, 127
5, 18240, Note_off_c, 9, 36, 80
5, 18240, Note_on_c, 9, 42, 127
5, 18240, Note_on_c, 9, 40, 127
5, 18360, Note_off_c, 9, 42, 80
5, 18360, Note_off_c, 9, 40, 80
5, 18360, Note_on_c, 9, 36, 127
5, 18480, Note_off_c, 9, 36, 80
5, 18480, Note_on_c, 9, 42, 127
5, 18600, Note_off_c, 9, 42, 80
5, 18600, Note_on_c, 9, 40, 127
5, 18720, Note_off_c, 9, 40, 80
5, 18720, Note_on_c, 9, 42, 127
5, 18720, Note_on_c, 9, 36, 127
5, 18840, Note_off_c, 9, 42, 80
5, 18840, Note_off_c, 9, 36, 80
5, 18840, Note_on_c, 9, 36, 127
5, 18960, Note_off_c, 9, 36, 80
5, 18960, Note_on_c, 9, 42, 127
5, 18960, Note_on_c, 9, 40, 127
5, 19200, Note_off_c, 9, 42, 80
5, 19200, Note_off_c, 9, 40, 80
5, 19200, Note_on_c, 9, 42, 127
5, 19200, Note_on_c, 9, 36, 127
5, 19320, Note_off_c, 9, 42, 80
5, 19320, Note_off_c, 9, 36, 80
5, 19320, Note_on_c, 9, 36, 127
5, 19440, Note_off_c, 9, 36, 80
5, 19440, Note_on_c, 9, 42, 127
5, 19440, Note_on_c, 9, 40, 127
5, 19560, Note_off_c, 9, 42, 80
5, 19560, Note_off_c, 9, 40, 80
5, 19560, Note_on_c, 9, 36, 127
5, 19680, Note_off_c, 9, 36, 80
5, 19680, Note_on_c, 9, 42, 127
5, 19800, Note_off_c, 9, 42, 80
5, 19800, Note_on_c, 9, 40, 127
5, 19920, Note_off_c, 9, 40, 80
5, 19920, Note_on_c, 9, 42, 127
5, 19920, Note_on_c, 9, 36, 127
5, 20040, Note_off_c, 9, 42, 80
5, 20040, Note_off_c, 9, 36, 80
5, 20040, Note_on_c, 9, 36, 127
5, 20160, Note_off_c, 9, 36, 80
5, 20160, Note_on_c, 9, 42, 127
5, 20160, Note_on_c, 9, 40, 127
5, 20400, Note_off_c, 9, 42, 80
5, 20400, Note_off_c, 9, 40, 80
5, 20400, Note_on_c, 9, 42, 127
5, 20400, Note_on_c, 9, 36, 127
5, 20520, Note_off_c, 9, 42, 80
5, 20520, Note_off_c, 9, 36, 80
5, 20520, Note_on_c, 9, 36, 127
5, 20640, Note_off_c, 9, 36, 80
5, 20640, Note_on_c, 9, 42, 127
5, 20640, Note_on_c, 9, 40, 127
5, 20760, Note_off_c, 9, 42, 80
5, 20760, Note_off_c, 9, 40, 80
5, 20760, Note_on_c, 9, 36, 127
5, 20880, Note_off_c, 9, 36, 80
5, 20880, Note_on_c, 9, 42, 127
5, 21000, Note_off_c, 9, 42, 80
5, 21000, Note_on_c, 9, 40, 127
5, 21120, Note_off_c, 9, 40, 80
5, 21120, Note_on_c, 9, 42, 127
5, 21120, Note_on_c, 9, 36, 127
5, 21240, Note_off_c, 9, 42, 80
5, 21240, Note_off_c, 9, 36, 80
5, 21240, Note_on_c, 9, 36, 127
5, 21360, Note_off_c, 9, 36, 80
5, 21360, Note_on_c, 9, 42, 127
5, 21360, Note_on_c, 9, 40, 127
5, 21600, Note_off_c, 9, 42, 80
5, 21600, Note_off_c, 9, 40, 80
5, 21600, Note_on_c, 9, 42, 127
5, 21600, Note_on_c, 9, 36, 127
5, 21720, Note_off_c, 9, 42, 80
5, 21720, Note_off_c, 9, 36, 80
5, 21720, Note_on_c, 9, 40, 127
5, 21840, Note_off_c, 9, 40, 80
5, 21840, Note_on_c, 9, 42, 127
5, 21840, Note_on_c, 9, 40, 127
5, 21960, Note_off_c, 9, 42, 80
5, 21960, Note_off_c, 9, 40, 80
5, 21960, Note_on_c, 9, 36, 127
5, 22080, Note_off_c, 9, 36, 80
5, 22080, Note_on_c, 9, 42, 127
5, 22200, Note_off_c, 9, 42, 80
5, 22200, Note_on_c, 9, 40, 127
5, 22320, Note_off_c, 9, 40, 80
5, 22320, Note_on_c, 9, 42, 127
5, 22320, Note_on_c, 9, 36, 127
5, 22440, Note_off_c, 9, 42, 80
5, 22440, Note_off_c, 9, 36, 80
5, 22440, Note_on_c, 9, 36, 127
5, 22560, Note_off_c, 9, 36, 80
5, 22560, Note_on_c, 9, 42, 127
5, 22560, Note_on_c, 9, 40, 127
5, 22680, Note_off_c, 9, 42, 80
5, 22680, Note_off_c, 9, 40, 80
5, 22800, Note_on_c, 9, 42, 127
5, 22800, Note_on_c, 9, 36, 127
5, 22920, Note_off_c, 9, 42, 80
5, 22920, Note_off_c, 9, 36, 80
5, 22920, Note_on_c, 9, 36, 127
5, 23040, Note_off_c, 9, 36, 80
5, 23040, Note_on_c, 9, 42, 127
5, 23040, Note_on_c, 9, 40, 127
5, 23160, Note_off_c, 9, 42, 80
5, 23160, Note_off_c, 9, 40, 80
5, 23160, Note_on_c, 9, 36, 127
5, 23280, Note_off_c, 9, 36, 80
5, 23280, Note_on_c, 9, 42, 127
5, 23400, Note_off_c, 9, 42, 80
5, 23400, Note_on_c, 9, 40, 127
5, 23520, Note_off_c, 9, 40, 80
5, 23520, Note_on_c, 9, 42, 127
5, 23520, Note_on_c, 9, 36, 127
5, 23640, Note_off_c, 9, 42, 80
5, 23640, Note_off_c, 9, 36, 80
5, 23640, Note_on_c, 9, 36, 127
5, 23760, Note_off_c, 9, 36, 80
5, 23760, Note_on_c, 9, 42, 127
5, 23760, Note_on_c, 9, 40, 127
5, 24000, Note_off_c, 9, 42, 80
5, 24000, Note_off_c, 9, 40, 80
5, 24000, Note_on_c, 9, 42, 127
5, 24000, Note_on_c, 9, 36, 127
5, 24120, Note_off_c, 9, 42, 80
5, 24120, Note_off_c, 9, 36, 80
5, 24120, Note_on_c, 9, 36, 127
5, 24240, Note_off_c, 9, 36, 80
5, 24240, Note_on_c, 9, 42, 127
5, 24240, Note_on_c, 9, 40, 127
5, 24360, Note_off_c, 9, 42, 80
5, 24360, Note_off_c, 9, 40, 80
5, 24360, Note_on_c, 9, 36, 127
5, 24480, Note_off_c, 9, 36, 80
5, 24480, Note_on_c, 9, 42, 127
5, 24600, Note_off_c, 9, 42, 80
5, 24600, Note_on_c, 9, 40, 127
5, 24720, Note_off_c, 9, 40, 80
5, 24720, Note_on_c, 9, 42, 127
5, 24720, Note_on_c, 9, 36, 127
5, 24840, Note_off_c, 9, 42, 80
5, 24840, Note_off_c, 9, 36, 80
5, 24840, Note_on_c, 9, 36, 127
5, 24960, Note_off_c, 9, 36, 80
5, 24960, Note_on_c, 9, 42, 127
5, 24960, Note_on_c, 9, 40, 127
5, 25200, Note_off_c, 9, 42, 80
5, 25200, Note_off_c, 9, 40, 80
5, 25200, Note_on_c, 9, 42, 127
5, 25200, Note_on_c, 9, 36, 127
5, 25320, Note_off_c, 9, 42, 80
5, 25320, Note_off_c, 9, 36, 80
5, 25320, Note_on_c, 9, 36, 127
5, 25440, Note_off_c, 9, 36, 80
5, 25440, Note_on_c, 9, 42, 127
5, 25440, Note_on_c, 9, 40, 127
5, 25560, Note_off_c, 9, 42, 80
5, 25560, Note_off_c, 9, 40, 80
5, 25560, Note_on_c, 9, 36, 127
5, 25680, Note_off_c, 9, 36, 80
5, 25680, Note_on_c, 9, 42, 127
5, 25800, Note_off_c, 9, 42, 80
5, 25800, Note_on_c, 9, 40, 127
5, 25920, Note_off_c, 9, 40, 80
5, 25920, Note_on_c, 9, 42, 127
5, 25920, Note_on_c, 9, 36, 127
5, 26040, Note_off_c, 9, 42, 80
5, 26040, Note_off_c, 9, 36, 80
5, 26040, Note_on_c, 9, 36, 127
5, 26160, Note_off_c, 9, 36, 80
5, 26160, Note_on_c, 9, 42, 127
5, 26160, Note_on_c, 9, 40, 127
5, 26400, Note_off_c, 9, 42, 80
5, 26400, Note_off_c, 9, 40, 80
5, 26400, Note_on_c, 9, 42, 127
5, 26400, Note_on_c, 9, 36, 127
5, 26520, Note_off_c, 9, 42, 80
5, 26520, Note_off_c, 9, 36, 80
5, 26520, Note_on_c, 9, 36, 127
5, 26640, Note_off_c, 9, 36, 80
5, 26640, Note_on_c, 9, 42, 127
5, 26640, Note_on_c, 9, 40, 127
5, 26760, Note_off_c, 9, 42, 80
5, 26760, Note_off_c, 9, 40, 80
5, 26760, Note_on_c, 9, 36, 127
5, 26880, Note_off_c, 9, 36, 80
5, 26880, Note_on_c, 9, 42, 127
5, 27000, Note_off_c, 9, 42, 80
5, 27000, Note_on_c, 9, 40, 127
5, 27120, Note_off_c, 9, 40, 80
5, 27120, Note_on_c, 9, 42, 127
5, 27120, Note_on_c, 9, 36, 127
5, 27240, Note_off_c, 9, 42, 80
5, 27240, Note_off_c, 9, 36, 80
5, 27240, Note_on_c, 9, 36, 127
5, 27360, Note_off_c, 9, 36, 80
5, 27360, Note_on_c, 9, 42, 127
5, 27360, Note_on_c, 9, 40, 127
5, 27600, Note_off_c, 9, 42, 80
5, 27600, Note_off_c, 9, 40, 80
5, 27600, Note_on_c, 9, 42, 127
5, 27600, Note_on_c, 9, 36, 127
5, 27720, Note_off_c, 9, 42, 80
5, 27720, Note_off_c, 9, 36, 80
5, 27720, Note_on_c, 9, 36, 127
5, 27840, Note_off_c, 9, 36, 80
5, 27840, Note_on_c, 9, 42, 127
5, 27840, Note_on_c, 9, 40, 127
5, 27960, Note_off_c, 9, 42, 80
5, 27960, Note_off_c, 9, 40, 80
5, 27960, Note_on_c, 9, 36, 127
5, 28080, Note_off_c, 9, 36, 80
5, 28080, Note_on_c, 9, 42, 127
5, 28200, Note_off_c, 9, 42, 80
5, 28200, Note_on_c, 9, 40, 127
5, 28320, Note_off_c, 9, 40, 80
5, 28320, Note_on_c, 9, 42, 127
5, 28320, Note_on_c, 9, 36, 127
5, 28440, Note_off_c, 9, 42, 80
5, 28440, Note_off_c, 9, 36, 80
5, 28440, Note_on_c, 9, 36, 127
5, 28560, Note_off_c, 9, 36, 80
5, 28560, Note_on_c, 9, 42, 127
5, 28560, Note_on_c, 9, 38, 127
5, 28800, Note_off_c, 9, 42, 80
5, 28800, Note_off_c, 9, 38, 80
5, 29040, Note_on_c, 9, 40, 127
5, 29280, Note_off_c, 9, 40, 80
5, 29280, Note_on_c, 9, 40, 127
5, 29760, Note_off_c, 9, 40, 80
5, 29760, Note_on_c, 9, 40, 127
5, 30000, Note_off_c, 9, 40, 80
5, 30000, Note_on_c, 9, 40, 127
5, 30480, Note_off_c, 9, 40, 80
5, 30480, Note_on_c, 9, 40, 127
5, 30600, Note_off_c, 9, 40, 80
5, 30720, Note_on_c, 9, 36, 127
5, 30840, Note_off_c, 9, 36, 80
5, 30840, Note_on_c, 9, 36, 127
5, 30960, Note_off_c, 9, 36, 80
5, 30960, Note_on_c, 9, 40, 127
5, 31200, Note_off_c, 9, 40, 80
5, 31200, Note_on_c, 9, 42, 127
5, 31200, Note_on_c, 9, 36, 127
5, 31320, Note_off_c, 9, 42, 80
5, 31320, Note_off_c, 9, 36, 80
5, 31320, Note_on_c, 9, 36, 127
5, 31440, Note_off_c, 9, 36, 80
5, 31440, Note_on_c, 9, 42, 127
5, 31440, Note_on_c, 9, 40, 127
5, 31560, Note_off_c, 9, 42, 80
5, 31560, Note_off_c, 9, 40, 80
5, 31560, Note_on_c, 9, 36, 127
5, 31680, Note_off_c, 9, 36, 80
5, 31680, Note_on_c, 9, 42, 127
5, 31800, Note_off_c, 9, 42, 80
5, 31800, Note_on_c, 9, 40, 127
5, 31920, Note_off_c, 9, 40, 80
5, 31920, Note_on_c, 9, 42, 127
5, 31920, Note_on_c, 9, 36, 127
5, 32040, Note_off_c, 9, 42, 80
5, 32040, Note_off_c, 9, 36, 80
5, 32040, Note_on_c, 9, 36, 127
5, 32160, Note_off_c, 9, 36, 80
5, 32160, Note_on_c, 9, 42, 127
5, 32160, Note_on_c, 9, 40, 127
5, 32400, Note_off_c, 9, 42, 80
5, 32400, Note_off_c, 9, 40, 80
5, 32400, Note_on_c, 9, 42, 127
5, 32400, Note_on_c, 9, 36, 127
5, 32520, Note_off_c, 9, 42, 80
5, 32520, Note_off_c, 9, 36, 80
5, 32520, Note_on_c, 9, 36, 127
5, 32640, Note_off_c, 9, 36, 80
5, 32640, Note_on_c, 9, 42, 127
5, 32640, Note_on_c, 9, 40, 127
5, 32760, Note_off_c, 9, 42, 80
5, 32760, Note_off_c, 9, 40, 80
5, 32760, Note_on_c, 9, 36, 127
5, 32880, Note_off_c, 9, 36, 80
5, 32880, Note_on_c, 9, 42, 127
5, 33000, Note_off_c, 9, 42, 80
5, 33000, Note_on_c, 9, 40, 127
5, 33120, Note_off_c, 9, 40, 80
5, 33120, Note_on_c, 9, 42, 127
5, 33120, Note_on_c, 9, 36, 127
5, 33240, Note_off_c, 9, 42, 80
5, 33240, Note_off_c, 9, 36, 80
5, 33240, Note_on_c, 9, 36, 127
5, 33360, Note_off_c, 9, 36, 80
5, 33360, Note_on_c, 9, 42, 127
5, 33360, Note_on_c, 9, 40, 127
5, 33600, Note_off_c, 9, 42, 80
5, 33600, Note_off_c, 9, 40, 80
5, 33600, Note_on_c, 9, 42, 127
5, 33600, Note_on_c, 9, 36, 127
5, 33720, Note_off_c, 9, 42, 80
5, 33720, Note_off_c, 9, 36, 80
5, 33720, Note_on_c, 9, 36, 127
5, 33840, Note_off_c, 9, 36, 80
5, 33840, Note_on_c, 9, 42, 127
5, 33840, Note_on_c, 9, 40, 127
5, 33960, Note_off_c, 9, 42, 80
5, 33960, Note_off_c, 9, 40, 80
5, 33960, Note_on_c, 9, 36, 127
5, 34080, Note_off_c, 9, 36, 80
5, 34080, Note_on_c, 9, 42, 127
5, 34200, Note_off_c, 9, 42, 80
5, 34200, Note_on_c, 9, 40, 127
5, 34320, Note_off_c, 9, 40, 80
5, 34320, Note_on_c, 9, 42, 127
5, 34320, Note_on_c, 9, 36, 127
5, 34440, Note_off_c, 9, 42, 80
5, 34440, Note_off_c, 9, 36, 80
5, 34440, Note_on_c, 9, 36, 127
5, 34560, Note_off_c, 9, 36, 80
5, 34560, Note_on_c, 9, 42, 127
5, 34560, Note_on_c, 9, 40, 127
5, 34800, Note_off_c, 9, 42, 80
5, 34800, Note_off_c, 9, 40, 80
5, 34800, Note_on_c, 9, 42, 127
5, 34800, Note_on_c, 9, 36, 127
5, 34920, Note_off_c, 9, 42, 80
5, 34920, Note_off_c, 9, 36, 80
5, 34920, Note_on_c, 9, 36, 127
5, 35040, Note_off_c, 9, 36, 80
5, 35040, Note_on_c, 9, 42, 127
5, 35040, Note_on_c, 9, 40, 127
5, 35160, Note_off_c, 9, 42, 80
5, 35160, Note_off_c, 9, 40, 80
5, 35160, Note_on_c, 9, 36, 127
5, 35280, Note_off_c, 9, 36, 80
5, 35280, Note_on_c, 9, 42, 127
5, 35400, Note_off_c, 9, 42, 80
5, 35400, Note_on_c, 9, 40, 127
5, 35520, Note_off_c, 9, 40, 80
5, 35520, Note_on_c, 9, 42, 127
5, 35520, Note_on_c, 9, 36, 127
5, 35640, Note_off_c, 9, 42, 80
5, 35640, Note_off_c, 9, 36, 80
5, 35640, Note_on_c, 9, 36, 127
5, 35760, Note_off_c, 9, 36, 80
5, 35760, Note_on_c, 9, 42, 127
5, 35760, Note_on_c, 9, 40, 127
5, 36000, Note_off_c, 9, 42, 80
5, 36000, Note_off_c, 9, 40, 80
5, 36000, Note_on_c, 9, 42, 127
5, 36000, Note_on_c, 9, 36, 127
5, 36120, Note_off_c, 9, 42, 80
5, 36120, Note_off_c, 9, 36, 80
5, 36120, Note_on_c, 9, 36, 127
5, 36240, Note_off_c, 9, 36, 80
5, 36240, Note_on_c, 9, 42, 127
5, 36240, Note_on_c, 9, 40, 127
5, 36360, Note_off_c, 9, 42, 80
5, 36360, Note_off_c, 9, 40, 80
5, 36360, Note_on_c, 9, 36, 127
5, 36480, Note_off_c, 9, 36, 80
5, 36480, Note_on_c, 9, 42, 127
5, 36600, Note_off_c, 9, 42, 80
5, 36600, Note_on_c, 9, 40, 127
5, 36720, Note_off_c, 9, 40, 80
5, 36720, Note_on_c, 9, 42, 127
5, 36720, Note_on_c, 9, 36, 127
5, 36840, Note_off_c, 9, 42, 80
5, 36840, Note_off_c, 9, 36, 80
5, 36840, Note_on_c, 9, 36, 127
5, 36960, Note_off_c, 9, 36, 80
5, 36960, Note_on_c, 9, 42, 127
5, 36960, Note_on_c, 9, 40, 127
5, 37200, Note_off_c, 9, 42, 80
5, 37200, Note_off_c, 9, 40, 80
5, 37200, Note_on_c, 9, 42, 127
5, 37200, Note_on_c, 9, 36, 127
5, 37320, Note_off_c, 9, 42, 80
5, 37320, Note_off_c, 9, 36, 80
5, 37320, Note_on_c, 9, 36, 127
5, 37440, Note_off_c, 9, 36, 80
5, 37440, Note_on_c, 9, 42, 127
5, 37440, Note_on_c, 9, 40, 127
5, 37560, Note_off_c, 9, 42, 80
5, 37560, Note_off_c, 9, 40, 80
5, 37560, Note_on_c, 9, 36, 127
5, 37680, Note_off_c, 9, 36, 80
5, 37680, Note_on_c, 9, 42, 127
5, 37800, Note_off_c, 9, 42, 80
5, 37800, Note_on_c, 9, 40, 127
5, 37920, Note_off_c, 9, 40, 80
5, 37920, Note_on_c, 9, 42, 127
5, 37920, Note_on_c, 9, 36, 127
5, 38040, Note_off_c, 9, 42, 80
5, 38040, Note_off_c, 9, 36, 80
5, 38040, Note_on_c, 9, 36, 127
5, 38160, Note_off_c, 9, 36, 80
5, 38160, Note_on_c, 9, 42, 127
5, 38160, Note_on_c, 9, 40, 127
5, 38400, Note_off_c, 9, 42, 80
5, 38400, Note_off_c, 9, 40, 80
5, 38400, Note_on_c, 9, 42, 127
5, 38400, Note_on_c, 9, 36, 127
5, 38520, Note_off_c, 9, 42, 80
5, 38520, Note_off_c, 9, 36, 80
5, 38520, Note_on_c, 9, 36, 127
5, 38640, Note_off_c, 9, 36, 80
5, 38640, Note_on_c, 9, 42, 127
5, 38640, Note_on_c, 9, 40, 127
5, 38760, Note_off_c, 9, 42, 80
5, 38760, Note_off_c, 9, 40, 80
5, 38760, Note_on_c, 9, 36, 127
5, 38880, Note_off_c, 9, 36, 80
5, 38880, Note_on_c, 9, 42, 127
5, 39000, Note_off_c, 9, 42, 80
5, 39000, Note_on_c, 9, 40, 127
5, 39120, Note_off_c, 9, 40, 80
5, 39120, Note_on_c, 9, 42, 127
5, 39120, Note_on_c, 9, 36, 127
5, 39240, Note_off_c, 9, 42, 80
5, 39240, Note_off_c, 9, 36, 80
5, 39240, Note_on_c, 9, 36, 127
5, 39360, Note_off_c, 9, 36, 80
5, 39360, Note_on_c, 9, 42, 127
5, 39360, Note_on_c, 9, 40, 127
5, 39600, Note_off_c, 9, 42, 80
5, 39600, Note_off_c, 9, 40, 80
5, 39600, Note_on_c, 9, 42, 127
5, 39600, Note_on_c, 9, 36, 127
5, 39720, Note_off_c, 9, 42, 80
5, 39720, Note_off_c, 9, 36, 80
5, 39720, Note_on_c, 9, 36, 127
5, 39840, Note_off_c, 9, 36, 80
5, 39840, Note_on_c, 9, 42, 127
5, 39840, Note_on_c, 9, 40, 127
5, 39960, Note_off_c, 9, 42, 80
5, 39960, Note_off_c, 9, 40, 80
5, 39960, Note_on_c, 9, 36, 127
5, 40080, Note_off_c, 9, 36, 80
5, 40080, Note_on_c, 9, 42, 127
5, 40200, Note_off_c, 9, 42, 80
5, 40200, Note_on_c, 9, 40, 127
5, 40320, Note_off_c, 9, 40, 80
5, 40320, Note_on_c, 9, 42, 127
5, 40320, Note_on_c, 9, 36, 127
5, 40440, Note_off_c, 9, 42, 80
5, 40440, Note_off_c, 9, 36, 80
5, 40440, Note_on_c, 9, 36, 127
5, 40560, Note_off_c, 9, 36, 80
5, 40560, Note_on_c, 9, 42, 127
5, 40560, Note_on_c, 9, 40, 127
5, 40800, Note_off_c, 9, 42, 80
5, 40800, Note_off_c, 9, 40, 80
5, 40800, Note_on_c, 9, 42, 127
5, 40800, Note_on_c, 9, 36, 127
5, 40920, Note_off_c, 9, 42, 80
5, 40920, Note_off_c, 9, 36, 80
5, 40920, Note_on_c, 9, 36, 127
5, 41040, Note_off_c, 9, 36, 80
5, 41040, Note_on_c, 9, 42, 127
5, 41040, Note_on_c, 9, 40, 127
5, 41160, Note_off_c, 9, 42, 80
5, 41160, Note_off_c, 9, 40, 80
5, 41160, Note_on_c, 9, 36, 127
5, 41280, Note_off_c, 9, 36, 80
5, 41280, Note_on_c, 9, 42, 127
5, 41400, Note_off_c, 9, 42, 80
5, 41400, Note_on_c, 9, 40, 127
5, 41520, Note_off_c, 9, 40, 80
5, 41520, Note_on_c, 9, 42, 127
5, 41520, Note_on_c, 9, 36, 127
5, 41640, Note_off_c, 9, 42, 80
5, 41640, Note_off_c, 9, 36, 80
5, 41640, Note_on_c, 9, 36, 127
5, 41760, Note_off_c, 9, 36, 80
5, 41760, Note_on_c, 9, 42, 127
5, 41760, Note_on_c, 9, 40, 127
5, 42000, Note_off_c, 9, 42, 80
5, 42000, Note_off_c, 9, 40, 80
5, 42000, Note_on_c, 9, 42, 127
5, 42000, Note_on_c, 9, 36, 127
5, 42120, Note_off_c, 9, 42, 80
5, 42120, Note_off_c, 9, 36, 80
5, 42120, Note_on_c, 9, 36, 127
5, 42240, Note_off_c, 9, 36, 80
5, 42240, Note_on_c, 9, 42, 127
5, 42240, Note_on_c, 9, 40, 127
5, 42360, Note_off_c, 9, 42, 80
5, 42360, Note_off_c, 9, 40, 80
5, 42360, Note_on_c, 9, 36, 127
5, 42480, Note_off_c, 9, 36, 80
5, 42480, Note_on_c, 9, 42, 127
5, 42600, Note_off_c, 9, 42, 80
5, 42600, Note_on_c, 9, 40, 127
5, 42720, Note_off_c, 9, 40, 80
5, 42720, Note_on_c, 9, 42, 127
5, 42720, Note_on_c, 9, 36, 127
5, 42840, Note_off_c, 9, 42, 80
5, 42840, Note_off_c, 9, 36, 80
5, 42840, Note_on_c, 9, 36, 127
5, 42960, Note_off_c, 9, 36, 80
5, 42960, Note_on_c, 9, 42, 127
5, 42960, Note_on_c, 9, 40, 127
5, 43200, Note_off_c, 9, 42, 80
5, 43200, Note_off_c, 9, 40, 80
5, 43200, Note_on_c, 9, 42, 127
5, 43200, Note_on_c, 9, 36, 127
5, 43320, Note_off_c, 9, 42, 80
5, 43320, Note_off_c, 9, 36, 80
5, 43320, Note_on_c, 9, 36, 127
5, 43440, Note_off_c, 9, 36, 80
5, 43440, Note_on_c, 9, 42, 127
5, 43440, Note_on_c, 9, 40, 127
5, 43560, Note_off_c, 9, 42, 80
5, 43560, Note_off_c, 9, 40, 80
5, 43560, Note_on_c, 9, 36, 127
5, 43680, Note_off_c, 9, 36, 80
5, 43680, Note_on_c, 9, 42, 127
5, 43800, Note_off_c, 9, 42, 80
5, 43800, Note_on_c, 9, 40, 127
5, 43920, Note_off_c, 9, 40, 80
5, 43920, Note_on_c, 9, 42, 127
5, 43920, Note_on_c, 9, 36, 127
5, 44040, Note_off_c, 9, 42, 80
5, 44040, Note_off_c, 9, 36, 80
5, 44040, Note_on_c, 9, 36, 127
5, 44160, Note_off_c, 9, 36, 80
5, 44160, Note_on_c, 9, 42, 127
5, 44160, Note_on_c, 9, 40, 127
5, 44400, Note_off_c, 9, 42, 80
5, 44400, Note_off_c, 9, 40, 80
5, 44400, Note_on_c, 9, 42, 127
5, 44400, Note_on_c, 9, 36, 127
5, 44520, Note_off_c, 9, 42, 80
5, 44520, Note_off_c, 9, 36, 80
5, 44520, Note_on_c, 9, 36, 127
5, 44640, Note_off_c, 9, 36, 80
5, 44640, Note_on_c, 9, 42, 127
5, 44640, Note_on_c, 9, 40, 127
5, 44760, Note_off_c, 9, 42, 80
5, 44760, Note_off_c, 9, 40, 80
5, 44760, Note_on_c, 9, 36, 127
5, 44880, Note_off_c, 9, 36, 80
5, 44880, Note_on_c, 9, 42, 127
5, 45000, Note_off_c, 9, 42, 80
5, 45000, Note_on_c, 9, 40, 127
5, 45120, Note_off_c, 9, 40, 80
5, 45120, Note_on_c, 9, 42, 127
5, 45120, Note_on_c, 9, 36, 127
5, 45240, Note_off_c, 9, 42, 80
5, 45240, Note_off_c, 9, 36, 80
5, 45240, Note_on_c, 9, 36, 127
5, 45360, Note_off_c, 9, 36, 80
5, 45360, Note_on_c, 9, 42, 127
5, 45360, Note_on_c, 9, 40, 127
5, 45600, Note_off_c, 9, 42, 80
5, 45600, Note_off_c, 9, 40, 80
5, 45600, Note_on_c, 9, 42, 127
5, 45600, Note_on_c, 9, 36, 127
5, 45720, Note_off_c, 9, 42, 80
5, 45720, Note_off_c, 9, 36, 80
5, 45720, Note_on_c, 9, 36, 127
5, 45840, Note_off_c, 9, 36, 80
5, 45840, Note_on_c, 9, 42, 127
5, 45840, Note_on_c, 9, 40, 127
5, 45960, Note_off_c, 9, 42, 80
5, 45960, Note_off_c, 9, 40, 80
5, 45960, Note_on_c, 9, 36, 127
5, 46080, Note_off_c, 9, 36, 80
5, 46080, Note_on_c, 9, 42, 127
5, 46200, Note_off_c, 9, 42, 80
5, 46200, Note_on_c, 9, 40, 127
5, 46320, Note_off_c, 9, 40, 80
5, 46320, Note_on_c, 9, 42, 127
5, 46320, Note_on_c, 9, 36, 127
5, 46440, Note_off_c, 9, 42, 80
5, 46440, Note_off_c, 9, 36, 80
5, 46440, Note_on_c, 9, 36, 127
5, 46560, Note_off_c, 9, 36, 80
5, 46560, Note_on_c, 9, 42, 127
5, 46560, Note_on_c, 9, 40, 127
5, 46800, Note_off_c, 9, 42, 80
5, 46800, Note_off_c, 9, 40, 80
5, 46800, Note_on_c, 9, 42, 127
5, 46800, Note_on_c, 9, 36, 127
5, 46920, Note_off_c, 9, 42, 80
5, 46920, Note_off_c, 9, 36, 80
5, 46920, Note_on_c, 9, 36, 127
5, 47040, Note_off_c, 9, 36, 80
5, 47040, Note_on_c, 9, 42, 127
5, 47040, Note_on_c, 9, 40, 127
5, 47160, Note_off_c, 9, 42, 80
5, 47160, Note_off_c, 9, 40, 80
5, 47160, Note_on_c, 9, 36, 127
5, 47280, Note_off_c, 9, 36, 80
5, 47280, Note_on_c, 9, 42, 127
5, 47400, Note_off_c, 9, 42, 80
5, 47400, Note_on_c, 9, 40, 127
5, 47520, Note_off_c, 9, 40, 80
5, 47520, Note_on_c, 9, 42, 127
5, 47520, Note_on_c, 9, 36, 127
5, 47640, Note_off_c, 9, 42, 80
5, 47640, Note_off_c, 9, 36, 80
5, 47640, Note_on_c, 9, 36, 127
5, 47760, Note_off_c, 9, 36, 80
5, 47760, Note_on_c, 9, 42, 127
5, 47760, Note_on_c, 9, 40, 127
5, 48000, Note_off_c, 9, 42, 80
5, 48000, Note_off_c, 9, 40, 80
5, 48000, Note_on_c, 9, 42, 127
5, 48000, Note_on_c, 9, 36, 127
5, 48120, Note_off_c, 9, 42, 80
5, 48120, Note_off_c, 9, 36, 80
5, 48120, Note_on_c, 9, 36, 127
5, 48240, Note_off_c, 9, 36, 80
5, 48240, Note_on_c, 9, 42, 127
5, 48240, Note_on_c, 9, 40, 127
5, 48360, Note_off_c, 9, 42, 80
5, 48360, Note_off_c, 9, 40, 80
5, 48360, Note_on_c, 9, 36, 127
5, 48480, Note_off_c, 9, 36, 80
5, 48480, Note_on_c, 9, 42, 127
5, 48600, Note_off_c, 9, 42, 80
5, 48600, Note_on_c, 9, 40, 127
5, 48720, Note_off_c, 9, 40, 80
5, 48720, Note_on_c, 9, 42, 127
5, 48720, Note_on_c, 9, 36, 127
5, 48840, Note_off_c, 9, 42, 80
5, 48840, Note_off_c, 9, 36, 80
5, 48840, Note_on_c, 9, 36, 127
5, 48960, Note_off_c, 9, 36, 80
5, 48960, Note_on_c, 9, 42, 127
5, 48960, Note_on_c, 9, 40, 127
5, 49200, Note_off_c, 9, 42, 80
5, 49200, Note_off_c, 9, 40, 80
5, 49200, Note_on_c, 9, 42, 127
5, 49200, Note_on_c, 9, 36, 127
5, 49320, Note_off_c, 9, 42, 80
5, 49320, Note_off_c, 9, 36, 80
5, 49320, Note_on_c, 9, 36, 127
5, 49440, Note_off_c, 9, 36, 80
5, 49440, Note_on_c, 9, 42, 127
5, 49440, Note_on_c, 9, 40, 127
5, 49560, Note_off_c, 9, 42, 80
5, 49560, Note_off_c, 9, 40, 80
5, 49560, Note_on_c, 9, 36, 127
5, 49680, Note_off_c, 9, 36, 80
5, 49680, Note_on_c, 9, 42, 127
5, 49800, Note_off_c, 9, 42, 80
5, 49800, Note_on_c, 9, 40, 127
5, 49920, Note_off_c, 9, 40, 80
5, 49920, Note_on_c, 9, 42, 127
5, 49920, Note_on_c, 9, 36, 127
5, 50040, Note_off_c, 9, 42, 80
5, 50040, Note_off_c, 9, 36, 80
5, 50040, Note_on_c, 9, 36, 127
5, 50160, Note_off_c, 9, 36, 80
5, 50160, Note_on_c, 9, 42, 127
5, 50160, Note_on_c, 9, 40, 127
5, 50400, Note_off_c, 9, 42, 80
5, 50400, Note_off_c, 9, 40, 80
5, 50400, Note_on_c, 9, 42, 127
5, 50400, Note_on_c, 9, 36, 127
5, 50520, Note_off_c, 9, 42, 80
5, 50520, Note_off_c, 9, 36, 80
5, 50520, Note_on_c, 9, 36, 127
5, 50640, Note_off_c, 9, 36, 80
5, 50640, Note_on_c, 9, 42, 127
5, 50640, Note_on_c, 9, 40, 127
5, 50760, Note_off_c, 9, 42, 80
5, 50760, Note_off_c, 9, 40, 80
5, 50760, Note_on_c, 9, 36, 127
5, 50880, Note_off_c, 9, 36, 80
5, 50880, Note_on_c, 9, 42, 127
5, 51000, Note_off_c, 9, 42, 80
5, 51000, Note_on_c, 9, 40, 127
5, 51120, Note_off_c, 9, 40, 80
5, 51120, Note_on_c, 9, 42, 127
5, 51120, Note_on_c, 9, 36, 127
5, 51240, Note_off_c, 9, 42, 80
5, 51240, Note_off_c, 9, 36, 80
5, 51240, Note_on_c, 9, 36, 127
5, 51360, Note_off_c, 9, 36, 80
5, 51360, Note_on_c, 9, 42, 127
5, 51360, Note_on_c, 9, 40, 127
5, 51600, Note_off_c, 9, 42, 80
5, 51600, Note_off_c, 9, 40, 80
5, 51600, Note_on_c, 9, 42, 127
5, 51600, Note_on_c, 9, 36, 127
5, 51720, Note_off_c, 9, 42, 80
5, 51720, Note_off_c, 9, 36, 80
5, 51720, Note_on_c, 9, 36, 127
5, 51840, Note_off_c, 9, 36, 80
5, 51840, Note_on_c, 9, 42, 127
5, 51840, Note_on_c, 9, 40, 127
5, 51960, Note_off_c, 9, 42, 80
5, 51960, Note_off_c, 9, 40, 80
5, 51960, Note_on_c, 9, 36, 127
5, 52080, Note_off_c, 9, 36, 80
5, 52080, Note_on_c, 9, 42, 127
5, 52200, Note_off_c, 9, 42, 80
5, 52200, Note_on_c, 9, 40, 127
5, 52320, Note_off_c, 9, 40, 80
5, 52320, Note_on_c, 9, 42, 127
5, 52320, Note_on_c, 9, 36, 127
5, 52440, Note_off_c, 9, 42, 80
5, 52440, Note_off_c, 9, 36, 80
5, 52440, Note_on_c, 9, 36, 127
5, 52560, Note_off_c, 9, 36, 80
5, 52560, Note_on_c, 9, 42, 127
5, 52560, Note_on_c, 9, 40, 127
5, 52800, Note_off_c, 9, 42, 80
5, 52800, Note_off_c, 9, 40, 80
5, 52800, Note_on_c, 9, 42, 127
5, 52800, Note_on_c, 9, 36, 127
5, 52920, Note_off_c, 9, 42, 80
5, 52920, Note_off_c, 9, 36, 80
5, 52920, Note_on_c, 9, 36, 127
5, 53040, Note_off_c, 9, 36, 80
5, 53040, Note_on_c, 9, 42, 127
5, 53040, Note_on_c, 9, 40, 127
5, 53160, Note_off_c, 9, 42, 80
5, 53160, Note_off_c, 9, 40, 80
5, 53160, Note_on_c, 9, 36, 127
5, 53280, Note_off_c, 9, 36, 80
5, 53280, Note_on_c, 9, 42, 127
5, 53400, Note_off_c, 9, 42, 80
5, 53400, Note_on_c, 9, 40, 127
5, 53520, Note_off_c, 9, 40, 80
5, 53520, Note_on_c, 9, 42, 127
5, 53520, Note_on_c, 9, 36, 127
5, 53640, Note_off_c, 9, 42, 80
5, 53640, Note_off_c, 9, 36, 80
5, 53640, Note_on_c, 9, 36, 127
5, 53760, Note_off_c, 9, 36, 80
5, 53760, Note_on_c, 9, 42, 127
5, 53760, Note_on_c, 9, 40, 127
5, 54000, Note_off_c, 9, 42, 80
5, 54000, Note_off_c, 9, 40, 80
5, 54000, Note_on_c, 9, 42, 127
5, 54000, Note_on_c, 9, 36, 127
5, 54120, Note_off_c, 9, 42, 80
5, 54120, Note_off_c, 9, 36, 80
5, 54120, Note_on_c, 9, 36, 127
5, 54240, Note_off_c, 9, 36, 80
5, 54240, Note_on_c, 9, 42, 127
5, 54240, Note_on_c, 9, 40, 127
5, 54360, Note_off_c, 9, 42, 80
5, 54360, Note_off_c, 9, 40, 80
5, 54360, Note_on_c, 9, 36, 127
5, 54480, Note_off_c, 9, 36, 80
5, 54480, Note_on_c, 9, 42, 127
5, 54600, Note_off_c, 9, 42, 80
5, 54600, Note_on_c, 9, 40, 127
5, 54720, Note_off_c, 9, 40, 80
5, 54720, Note_on_c, 9, 42, 127
5, 54720, Note_on_c, 9, 36, 127
5, 54840, Note_off_c, 9, 42, 80
5, 54840, Note_off_c, 9, 36, 80
5, 54840, Note_on_c, 9, 36, 127
5, 54960, Note_off_c, 9, 36, 80
5, 54960, Note_on_c, 9, 42, 127
5, 54960, Note_on_c, 9, 40, 127
5, 55200, Note_off_c, 9, 42, 80
5, 55200, Note_off_c, 9, 40, 80
5, 55200, Note_on_c, 9, 46, 111
5, 55200, Note_on_c, 9, 59, 111
5, 55200, Note_on_c, 9, 36, 111
5, 55320, Note_off_c, 9, 46, 80
5, 55320, Note_off_c, 9, 59, 80
5, 55320, Note_off_c, 9, 36, 80
5, 55320, Note_on_c, 9, 36, 111
5, 55440, Note_off_c, 9, 36, 80
5, 55440, Note_on_c, 9, 46, 111
5, 55440, Note_on_c, 9, 59, 111
5, 55440, Note_on_c, 9, 40, 111
5, 55560, Note_off_c, 9, 46, 80
5, 55560, Note_off_c, 9, 59, 80
5, 55560, Note_off_c, 9, 40, 80
5, 55560, Note_on_c, 9, 40, 111
5, 55560, Note_on_c, 9, 36, 111
5, 55680, Note_off_c, 9, 40, 80
5, 55680, Note_off_c, 9, 36, 80
5, 55680, Note_on_c, 9, 46, 111
5, 55680, Note_on_c, 9, 59, 111
5, 55800, Note_off_c, 9, 46, 80
5, 55800, Note_off_c, 9, 59, 80
5, 55800, Note_on_c, 9, 40, 111
5, 55920, Note_off_c, 9, 40, 80
5, 55920, Note_on_c, 9, 46, 111
5, 55920, Note_on_c, 9, 59, 111
5, 55920, Note_on_c, 9, 36, 111
5, 56040, Note_off_c, 9, 46, 80
5, 56040, Note_off_c, 9, 59, 80
5, 56040, Note_off_c, 9, 36, 80
5, 56040, Note_on_c, 9, 36, 111
5, 56160, Note_off_c, 9, 36, 80
5, 56160, Note_on_c, 9, 46, 111
5, 56160, Note_on_c, 9, 59, 111
5, 56160, Note_on_c, 9, 40, 111
5, 56400, Note_off_c, 9, 46, 80
5, 56400, Note_off_c, 9, 59, 80
5, 56400, Note_off_c, 9, 40, 80
5, 56400, Note_on_c, 9, 46, 111
5, 56400, Note_on_c, 9, 59, 111
5, 56400, Note_on_c, 9, 36, 111
5, 56520, Note_off_c, 9, 46, 80
5, 56520, Note_off_c, 9, 59, 80
5, 56520, Note_off_c, 9, 36, 80
5, 56520, Note_on_c, 9, 36, 111
5, 56640, Note_off_c, 9, 36, 80
5, 56640, Note_on_c, 9, 46, 111
5, 56640, Note_on_c, 9, 59, 111
5, 56640, Note_on_c, 9, 40, 111
5, 56760, Note_off_c, 9, 46, 80
5, 56760, Note_off_c, 9, 59, 80
5, 56760, Note_off_c, 9, 40, 80
5, 56760, Note_on_c, 9, 40, 111
5, 56760, Note_on_c, 9, 36, 111
5, 56880, Note_off_c, 9, 40, 80
5, 56880, Note_off_c, 9, 36, 80
5, 56880, Note_on_c, 9, 46, 111
5, 56880, Note_on_c, 9, 59, 111
5, 57000, Note_off_c, 9, 46, 80
5, 57000, Note_off_c, 9, 59, 80
5, 57000, Note_on_c, 9, 40, 111
5, 57120, Note_off_c, 9, 40, 80
5, 57120, Note_on_c, 9, 46, 111
5, 57120, Note_on_c, 9, 59, 111
5, 57120, Note_on_c, 9, 36, 111
5, 57240, Note_off_c, 9, 46, 80
5, 57240, Note_off_c, 9, 59, 80
5, 57240, Note_off_c, 9, 36, 80
5, 57240, Note_on_c, 9, 36, 111
5, 57360, Note_off_c, 9, 36, 80
5, 57360, Note_on_c, 9, 46, 111
5, 57360, Note_on_c, 9, 59, 111
5, 57360, Note_on_c, 9, 40, 111
5, 57600, Note_off_c, 9, 46, 80
5, 57600, Note_off_c, 9, 59, 80
5, 57600, Note_off_c, 9, 40, 80
5, 57600, Note_on_c, 9, 46, 111
5, 57600, Note_on_c, 9, 59, 111
5, 57600, Note_on_c, 9, 36, 111
5, 57720, Note_off_c, 9, 46, 80
5, 57720, Note_off_c, 9, 59, 80
5, 57720, Note_off_c, 9, 36, 80
5, 57720, Note_on_c, 9, 36, 111
5, 57840, Note_off_c, 9, 36, 80
5, 57840, Note_on_c, 9, 46, 111
5, 57840, Note_on_c, 9, 59, 111
5, 57840, Note_on_c, 9, 40, 111
5, 57960, Note_off_c, 9, 46, 80
5, 57960, Note_off_c, 9, 59, 80
5, 57960, Note_off_c, 9, 40, 80
5, 57960, Note_on_c, 9, 40, 111
5, 57960, Note_on_c, 9, 36, 111
5, 58080, Note_off_c, 9, 40, 80
5, 58080, Note_off_c, 9, 36, 80
5, 58080, Note_on_c, 9, 46, 111
5, 58080, Note_on_c, 9, 59, 111
5, 58200, Note_off_c, 9, 46, 80
5, 58200, Note_off_c, 9, 59, 80
5, 58200, Note_on_c, 9, 40, 111
5, 58320, Note_off_c, 9, 40, 80
5, 58320, Note_on_c, 9, 46, 111
5, 58320, Note_on_c, 9, 59, 111
5, 58320, Note_on_c, 9, 36, 111
5, 58440, Note_off_c, 9, 46, 80
5, 58440, Note_off_c, 9, 59, 80
5, 58440, Note_off_c, 9, 36, 80
5, 58440, Note_on_c, 9, 36, 111
5, 58560, Note_off_c, 9, 36, 80
5, 58560, Note_on_c, 9, 46, 111
5, 58560, Note_on_c, 9, 59, 111
5, 58560, Note_on_c, 9, 40, 111
5, 58800, Note_off_c, 9, 46, 80
5, 58800, Note_off_c, 9, 59, 80
5, 58800, Note_off_c, 9, 40, 80
5, 58800, Note_on_c, 9, 46, 111
5, 58800, Note_on_c, 9, 59, 111
5, 58800, Note_on_c, 9, 36, 111
5, 58920, Note_off_c, 9, 46, 80
5, 58920, Note_off_c, 9, 59, 80
5, 58920, Note_off_c, 9, 36, 80
5, 58920, Note_on_c, 9, 36, 111
5, 59040, Note_off_c, 9, 36, 80
5, 59040, Note_on_c, 9, 46, 111
5, 59040, Note_on_c, 9, 59, 111
5, 59040, Note_on_c, 9, 40, 111
5, 59160, Note_off_c, 9, 46, 80
5, 59160, Note_off_c, 9, 59, 80
5, 59160, Note_off_c, 9, 40, 80
5, 59160, Note_on_c, 9, 40, 111
5, 59160, Note_on_c, 9, 36, 111
5, 59280, Note_off_c, 9, 40, 80
5, 59280, Note_off_c, 9, 36, 80
5, 59280, Note_on_c, 9, 46, 111
5, 59280, Note_on_c, 9, 59, 111
5, 59400, Note_off_c, 9, 46, 80
5, 59400, Note_off_c, 9, 59, 80
5, 59400, Note_on_c, 9, 40, 111
5, 59520, Note_off_c, 9, 40, 80
5, 59520, Note_on_c, 9, 46, 111
5, 59520, Note_on_c, 9, 59, 111
5, 59520, Note_on_c, 9, 36, 111
5, 59640, Note_off_c, 9, 46, 80
5, 59640, Note_off_c, 9, 59, 80
5, 59640, Note_off_c, 9, 36, 80
5, 59640, Note_on_c, 9, 36, 111
5, 59760, Note_off_c, 9, 36, 80
5, 59760, Note_on_c, 9, 46, 111
5, 59760, Note_on_c, 9, 59, 111
5, 59760, Note_on_c, 9, 40, 111
5, 60000, Note_off_c, 9, 46, 80
5, 60000, Note_off_c, 9, 59, 80
5, 60000, Note_off_c, 9, 40, 80
5, 60000, Note_on_c, 9, 46, 111
5, 60000, Note_on_c, 9, 59, 111
5, 60000, Note_on_c, 9, 36, 111
5, 60120, Note_off_c, 9, 46, 80
5, 60120, Note_off_c, 9, 59, 80
5, 60120, Note_off_c, 9, 36, 80
5, 60120, Note_on_c, 9, 36, 111
5, 60240, Note_off_c, 9, 36, 80
5, 60240, Note_on_c, 9, 46, 111
5, 60240, Note_on_c, 9, 59, 111
5, 60240, Note_on_c, 9, 40, 111
5, 60360, Note_off_c, 9, 46, 80
5, 60360, Note_off_c, 9, 59, 80
5, 60360, Note_off_c, 9, 40, 80
5, 60360, Note_on_c, 9, 40, 111
5, 60360, Note_on_c, 9, 36, 111
5, 60480, Note_off_c, 9, 40, 80
5, 60480, Note_off_c, 9, 36, 80
5, 60480, Note_on_c, 9, 46, 111
5, 60480, Note_on_c, 9, 59, 111
5, 60600, Note_off_c, 9, 46, 80
5, 60600, Note_off_c, 9, 59, 80
5, 60600, Note_on_c, 9, 40, 111
5, 60720, Note_off_c, 9, 40, 80
5, 60720, Note_on_c, 9, 46, 111
5, 60720, Note_on_c, 9, 59, 111
5, 60720, Note_on_c, 9, 36, 111
5, 60840, Note_off_c, 9, 46, 80
5, 60840, Note_off_c, 9, 59, 80
5, 60840, Note_off_c, 9, 36, 80
5, 60840, Note_on_c, 9, 36, 111
5, 60960, Note_off_c, 9, 36, 80
5, 60960, Note_on_c, 9, 46, 111
5, 60960, Note_on_c, 9, 59, 111
5, 60960, Note_on_c, 9, 40, 111
5, 61200, Note_off_c, 9, 46, 80
5, 61200, Note_off_c, 9, 59, 80
5, 61200, Note_off_c, 9, 40, 80
5, 61200, Note_on_c, 9, 46, 111
5, 61200, Note_on_c, 9, 59, 111
5, 61200, Note_on_c, 9, 36, 111
5, 61320, Note_off_c, 9, 46, 80
5, 61320, Note_off_c, 9, 59, 80
5, 61320, Note_off_c, 9, 36, 80
5, 61320, Note_on_c, 9, 36, 111
5, 61440, Note_off_c, 9, 36, 80
5, 61440, Note_on_c, 9, 46, 111
5, 61440, Note_on_c, 9, 59, 111
5, 61440, Note_on_c, 9, 40, 111
5, 61560, Note_off_c, 9, 46, 80
5, 61560, Note_off_c, 9, 59, 80
5, 61560, Note_off_c, 9, 40, 80
5, 61560, Note_on_c, 9, 40, 111
5, 61560, Note_on_c, 9, 36, 111
5, 61680, Note_off_c, 9, 40, 80
5, 61680, Note_off_c, 9, 36, 80
5, 61680, Note_on_c, 9, 46, 111
5, 61680, Note_on_c, 9, 59, 111
5, 61800, Note_off_c, 9, 46, 80
5, 61800, Note_off_c, 9, 59, 80
5, 61800, Note_on_c, 9, 40, 111
5, 61920, Note_off_c, 9, 40, 80
5, 61920, Note_on_c, 9, 46, 111
5, 61920, Note_on_c, 9, 59, 111
5, 61920, Note_on_c, 9, 36, 111
5, 62040, Note_off_c, 9, 46, 80
5, 62040, Note_off_c, 9, 59, 80
5, 62040, Note_off_c, 9, 36, 80
5, 62040, Note_on_c, 9, 36, 111
5, 62160, Note_off_c, 9, 36, 80
5, 62160, Note_on_c, 9, 46, 111
5, 62160, Note_on_c, 9, 59, 111
5, 62160, Note_on_c, 9, 40, 111
5, 62400, Note_off_c, 9, 46, 80
5, 62400, Note_off_c, 9, 59, 80
5, 62400, Note_off_c, 9, 40, 80
5, 62400, Note_on_c, 9, 46, 111
5, 62400, Note_on_c, 9, 59, 111
5, 62400, Note_on_c, 9, 36, 111
5, 62520, Note_off_c, 9, 46, 80
5, 62520, Note_off_c, 9, 59, 80
5, 62520, Note_off_c, 9, 36, 80
5, 62520, Note_on_c, 9, 36, 111
5, 62640, Note_off_c, 9, 36, 80
5, 62640, Note_on_c, 9, 46, 111
5, 62640, Note_on_c, 9, 59, 111
5, 62640, Note_on_c, 9, 40, 111
5, 62760, Note_off_c, 9, 46, 80
5, 62760, Note_off_c, 9, 59, 80
5, 62760, Note_off_c, 9, 40, 80
5, 62760, Note_on_c, 9, 40, 111
5, 62760, Note_on_c, 9, 36, 111
5, 62880, Note_off_c, 9, 40, 80
5, 62880, Note_off_c, 9, 36, 80
5, 62880, Note_on_c, 9, 46, 111
5, 62880, Note_on_c, 9, 59, 111
5, 63000, Note_off_c, 9, 46, 80
5, 63000, Note_off_c, 9, 59, 80
5, 63000, Note_on_c, 9, 40, 111
5, 63120, Note_off_c, 9, 40, 80
5, 63120, Note_on_c, 9, 46, 111
5, 63120, Note_on_c, 9, 59, 111
5, 63120, Note_on_c, 9, 36, 111
5, 63240, Note_off_c, 9, 46, 80
5, 63240, Note_off_c, 9, 59, 80
5, 63240, Note_off_c, 9, 36, 80
5, 63240, Note_on_c, 9, 36, 111
5, 63360, Note_off_c, 9, 36, 80
5, 63360, Note_on_c, 9, 46, 111
5, 63360, Note_on_c, 9, 59, 111
5, 63360, Note_on_c, 9, 40, 111
5, 63600, Note_off_c, 9, 46, 80
5, 63600, Note_off_c, 9, 59, 80
5, 63600, Note_off_c, 9, 40, 80
5, 63600, Note_on_c, 9, 46, 111
5, 63600, Note_on_c, 9, 59, 111
5, 63600, Note_on_c, 9, 36, 111
5, 63720, Note_off_c, 9, 46, 80
5, 63720, Note_off_c, 9, 59, 80
5, 63720, Note_off_c, 9, 36, 80
5, 63720, Note_on_c, 9, 36, 111
5, 63840, Note_off_c, 9, 36, 80
5, 63840, Note_on_c, 9, 46, 111
5, 63840, Note_on_c, 9, 59, 111
5, 63840, Note_on_c, 9, 40, 111
5, 63960, Note_off_c, 9, 46, 80
5, 63960, Note_off_c, 9, 59, 80
5, 63960, Note_off_c, 9, 40, 80
5, 63960, Note_on_c, 9, 40, 111
5, 63960, Note_on_c, 9, 36, 111
5, 64080, Note_off_c, 9, 40, 80
5, 64080, Note_off_c, 9, 36, 80
5, 64080, Note_on_c, 9, 46, 111
5, 64080, Note_on_c, 9, 59, 111
5, 64200, Note_off_c, 9, 46, 80
5, 64200, Note_off_c, 9, 59, 80
5, 64200, Note_on_c, 9, 40, 111
5, 64320, Note_off_c, 9, 40, 80
5, 64320, Note_on_c, 9, 46, 111
5, 64320, Note_on_c, 9, 59, 111
5, 64320, Note_on_c, 9, 36, 111
5, 64440, Note_off_c, 9, 46, 80
5, 64440, Note_off_c, 9, 59, 80
5, 64440, Note_off_c, 9, 36, 80
5, 64440, Note_on_c, 9, 36, 111
5, 64560, Note_off_c, 9, 36, 80
5, 64560, Note_on_c, 9, 46, 111
5, 64560, Note_on_c, 9, 59, 111
5, 64560, Note_on_c, 9, 40, 111
5, 64800, Note_off_c, 9, 46, 80
5, 64800, Note_off_c, 9, 59, 80
5, 64800, Note_off_c, 9, 40, 80
5, 64800, Note_on_c, 9, 46, 111
5, 64800, Note_on_c, 9, 59, 111
5, 64800, Note_on_c, 9, 36, 111
5, 64920, Note_off_c, 9, 46, 80
5, 64920, Note_off_c, 9, 59, 80
5, 64920, Note_off_c, 9, 36, 80
5, 64920, Note_on_c, 9, 36, 111
5, 65040, Note_off_c, 9, 36, 80
5, 65040, Note_on_c, 9, 46, 111
5, 65040, Note_on_c, 9, 59, 111
5, 65040, Note_on_c, 9, 40, 111
5, 65160, Note_off_c, 9, 46, 80
5, 65160, Note_off_c, 9, 59, 80
5, 65160, Note_off_c, 9, 40, 80
5, 65160, Note_on_c, 9, 40, 111
5, 65160, Note_on_c, 9, 36, 111
5, 65280, Note_off_c, 9, 40, 80
5, 65280, Note_off_c, 9, 36, 80
5, 65280, Note_on_c, 9, 46, 111
5, 65280, Note_on_c, 9, 59, 111
5, 65400, Note_off_c, 9, 46, 80
5, 65400, Note_off_c, 9, 59, 80
5, 65400, Note_on_c, 9, 40, 111
5, 65520, Note_off_c, 9, 40, 80
5, 65520, Note_on_c, 9, 46, 111
5, 65520, Note_on_c, 9, 59, 111
5, 65520, Note_on_c, 9, 36, 111
5, 65640, Note_off_c, 9, 46, 80
5, 65640, Note_off_c, 9, 59, 80
5, 65640, Note_off_c, 9, 36, 80
5, 65640, Note_on_c, 9, 36, 111
5, 65760, Note_off_c, 9, 36, 80
5, 65760, Note_on_c, 9, 46, 111
5, 65760, Note_on_c, 9, 59, 111
5, 65760, Note_on_c, 9, 40, 111
5, 66000, Note_off_c, 9, 46, 80
5, 66000, Note_off_c, 9, 59, 80
5, 66000, Note_off_c, 9, 40, 80
5, 66000, Note_on_c, 9, 46, 111
5, 66000, Note_on_c, 9, 59, 111
5, 66000, Note_on_c, 9, 36, 111
5, 66120, Note_off_c, 9, 46, 80
5, 66120, Note_off_c, 9, 59, 80
5, 66120, Note_off_c, 9, 36, 80
5, 66120, Note_on_c, 9, 36, 111
5, 66240, Note_off_c, 9, 36, 80
5, 66240, Note_on_c, 9, 46, 111
5, 66240, Note_on_c, 9, 59, 111
5, 66240, Note_on_c, 9, 40, 111
5, 66360, Note_off_c, 9, 46, 80
5, 66360, Note_off_c, 9, 59, 80
5, 66360, Note_off_c, 9, 40, 80
5, 66360, Note_on_c, 9, 40, 111
5, 66360, Note_on_c, 9, 36, 111
5, 66480, Note_off_c, 9, 40, 80
5, 66480, Note_off_c, 9, 36, 80
5, 66480, Note_on_c, 9, 46, 111
5, 66480, Note_on_c, 9, 59, 111
5, 66600, Note_off_c, 9, 46, 80
5, 66600, Note_off_c, 9, 59, 80
5, 66600, Note_on_c, 9, 40, 111
5, 66720, Note_off_c, 9, 40, 80
5, 66720, Note_on_c, 9, 46, 111
5, 66720, Note_on_c, 9, 59, 111
5, 66720, Note_on_c, 9, 36, 111
5, 66840, Note_off_c, 9, 46, 80
5, 66840, Note_off_c, 9, 59, 80
5, 66840, Note_off_c, 9, 36, 80
5, 66840, Note_on_c, 9, 36, 111
5, 66960, Note_off_c, 9, 36, 80
5, 66960, Note_on_c, 9, 46, 111
5, 66960, Note_on_c, 9, 59, 111
5, 66960, Note_on_c, 9, 40, 111
5, 67200, Note_off_c, 9, 46, 80
5, 67200, Note_off_c, 9, 59, 80
5, 67200, Note_off_c, 9, 40, 80
5, 67200, Note_on_c, 9, 46, 111
5, 67200, Note_on_c, 9, 59, 111
5, 67200, Note_on_c, 9, 36, 111
5, 67320, Note_off_c, 9, 46, 80
5, 67320, Note_off_c, 9, 59, 80
5, 67320, Note_off_c, 9, 36, 80
5, 67320, Note_on_c, 9, 36, 111
5, 67440, Note_off_c, 9, 36, 80
5, 67440, Note_on_c, 9, 46, 111
5, 67440, Note_on_c, 9, 59, 111
5, 67440, Note_on_c, 9, 40, 111
5, 67560, Note_off_c, 9, 46, 80
5, 67560, Note_off_c, 9, 59, 80
5, 67560, Note_off_c, 9, 40, 80
5, 67560, Note_on_c, 9, 40, 111
5, 67560, Note_on_c, 9, 36, 111
5, 67680, Note_off_c, 9, 40, 80
5, 67680, Note_off_c, 9, 36, 80
5, 67680, Note_on_c, 9, 46, 111
5, 67680, Note_on_c, 9, 59, 111
5, 67800, Note_off_c, 9, 46, 80
5, 67800, Note_off_c, 9, 59, 80
5, 67800, Note_on_c, 9, 40, 111
5, 67920, Note_off_c, 9, 40, 80
5, 67920, Note_on_c, 9, 46, 111
5, 67920, Note_on_c, 9, 59, 111
5, 67920, Note_on_c, 9, 36, 111
5, 68040, Note_off_c, 9, 46, 80
5, 68040, Note_off_c, 9, 59, 80
5, 68040, Note_off_c, 9, 36, 80
5, 68040, Note_on_c, 9, 36, 111
5, 68160, Note_off_c, 9, 36, 80
5, 68160, Note_on_c, 9, 46, 111
5, 68160, Note_on_c, 9, 59, 111
5, 68160, Note_on_c, 9, 40, 111
5, 68400, Note_off_c, 9, 46, 80
5, 68400, Note_off_c, 9, 59, 80
5, 68400, Note_off_c, 9, 40, 80
5, 68400, Note_on_c, 9, 46, 111
5, 68400, Note_on_c, 9, 59, 111
5, 68400, Note_on_c, 9, 36, 111
5, 68520, Note_off_c, 9, 46, 80
5, 68520, Note_off_c, 9, 59, 80
5, 68520, Note_off_c, 9, 36, 80
5, 68520, Note_on_c, 9, 36, 111
5, 68640, Note_off_c, 9, 36, 80
5, 68640, Note_on_c, 9, 46, 111
5, 68640, Note_on_c, 9, 59, 111
5, 68640, Note_on_c, 9, 40, 111
5, 68760, Note_off_c, 9, 46, 80
5, 68760, Note_off_c, 9, 59, 80
5, 68760, Note_off_c, 9, 40, 80
5, 68760, Note_on_c, 9, 40, 111
5, 68760, Note_on_c, 9, 36, 111
5, 68880, Note_off_c, 9, 40, 80
5, 68880, Note_off_c, 9, 36, 80
5, 68880, Note_on_c, 9, 46, 111
5, 68880, Note_on_c, 9, 59, 111
5, 69000, Note_off_c, 9, 46, 80
5, 69000, Note_off_c, 9, 59, 80
5, 69000, Note_on_c, 9, 40, 111
5, 69120, Note_off_c, 9, 40, 80
5, 69120, Note_on_c, 9, 46, 111
5, 69120, Note_on_c, 9, 59, 111
5, 69120, Note_on_c, 9, 36, 111
5, 69240, Note_off_c, 9, 46, 80
5, 69240, Note_off_c, 9, 59, 80
5, 69240, Note_off_c, 9, 36, 80
5, 69240, Note_on_c, 9, 36, 111
5, 69360, Note_off_c, 9, 36, 80
5, 69360, Note_on_c, 9, 46, 111
5, 69360, Note_on_c, 9, 59, 111
5, 69360, Note_on_c, 9, 40, 111
5, 69600, Note_off_c, 9, 46, 80
5, 69600, Note_off_c, 9, 59, 80
5, 69600, Note_off_c, 9, 40, 80
5, 69600, Note_on_c, 9, 46, 111
5, 69600, Note_on_c, 9, 59, 111
5, 69600, Note_on_c, 9, 36, 111
5, 69720, Note_off_c, 9, 46, 80
5, 69720, Note_off_c, 9, 59, 80
5, 69720, Note_off_c, 9, 36, 80
5, 69720, Note_on_c, 9, 36, 111
5, 69840, Note_off_c, 9, 36, 80
5, 69840, Note_on_c, 9, 46, 111
5, 69840, Note_on_c, 9, 59, 111
5, 69840, Note_on_c, 9, 40, 111
5, 69960, Note_off_c, 9, 46, 80
5, 69960, Note_off_c, 9, 59, 80
5, 69960, Note_off_c, 9, 40, 80
5, 69960, Note_on_c, 9, 40, 111
5, 69960, Note_on_c, 9, 36, 111
5, 70080, Note_off_c, 9, 40, 80
5, 70080, Note_off_c, 9, 36, 80
5, 70080, Note_on_c, 9, 46, 111
5, 70080, Note_on_c, 9, 59, 111
5, 70200, Note_off_c, 9, 46, 80
5, 70200, Note_off_c, 9, 59, 80
5, 70200, Note_on_c, 9, 40, 111
5, 70320, Note_off_c, 9, 40, 80
5, 70320, Note_on_c, 9, 46, 111
5, 70320, Note_on_c, 9, 59, 111
5, 70320, Note_on_c, 9, 36, 111
5, 70440, Note_off_c, 9, 46, 80
5, 70440, Note_off_c, 9, 59, 80
5, 70440, Note_off_c, 9, 36, 80
5, 70440, Note_on_c, 9, 36, 111
5, 70560, Note_off_c, 9, 36, 80
5, 70560, Note_on_c, 9, 46, 111
5, 70560, Note_on_c, 9, 59, 111
5, 70560, Note_on_c, 9, 40, 111
5, 70800, Note_off_c, 9, 46, 80
5, 70800, Note_off_c, 9, 59, 80
5, 70800, Note_off_c, 9, 40, 80
5, 70800, Note_on_c, 9, 46, 111
5, 70800, Note_on_c, 9, 59, 111
5, 70800, Note_on_c, 9, 36, 111
5, 70920, Note_off_c, 9, 46, 80
5, 70920, Note_off_c, 9, 59, 80
5, 70920, Note_off_c, 9, 36, 80
5, 70920, Note_on_c, 9, 36, 111
5, 71040, Note_off_c, 9, 36, 80
5, 71040, Note_on_c, 9, 46, 111
5, 71040, Note_on_c, 9, 59, 111
5, 71040, Note_on_c, 9, 40, 111
5, 71160, Note_off_c, 9, 46, 80
5, 71160, Note_off_c, 9, 59, 80
5, 71160, Note_off_c, 9, 40, 80
5, 71160, Note_on_c, 9, 40, 111
5, 71160, Note_on_c, 9, 36, 111
5, 71280, Note_off_c, 9, 40, 80
5, 71280, Note_off_c, 9, 36, 80
5, 71280, Note_on_c, 9, 46, 111
5, 71280, Note_on_c, 9, 59, 111
5, 71400, Note_off_c, 9, 46, 80
5, 71400, Note_off_c, 9, 59, 80
5, 71400, Note_on_c, 9, 40, 111
5, 71520, Note_off_c, 9, 40, 80
5, 71520, Note_on_c, 9, 46, 111
5, 71520, Note_on_c, 9, 59, 111
5, 71520, Note_on_c, 9, 36, 111
5, 71640, Note_off_c, 9, 46, 80
5, 71640, Note_off_c, 9, 59, 80
5, 71640, Note_off_c, 9, 36, 80
5, 71640, Note_on_c, 9, 36, 111
5, 71760, Note_off_c, 9, 36, 80
5, 71760, Note_on_c, 9, 46, 111
5, 71760, Note_on_c, 9, 59, 111
5, 71760, Note_on_c, 9, 40, 111
5, 72000, Note_off_c, 9, 46, 80
5, 72000, Note_off_c, 9, 59, 80
5, 72000, Note_off_c, 9, 40, 80
5, 72000, Note_on_c, 9, 46, 111
5, 72000, Note_on_c, 9, 59, 111
5, 72000, Note_on_c, 9, 36, 111
5, 72120, Note_off_c, 9, 46, 80
5, 72120, Note_off_c, 9, 59, 80
5, 72120, Note_off_c, 9, 36, 80
5, 72120, Note_on_c, 9, 36, 111
5, 72240, Note_off_c, 9, 36, 80
5, 72240, Note_on_c, 9, 46, 111
5, 72240, Note_on_c, 9, 59, 111
5, 72240, Note_on_c, 9, 40, 111
5, 72360, Note_off_c, 9, 46, 80
5, 72360, Note_off_c, 9, 59, 80
5, 72360, Note_off_c, 9, 40, 80
5, 72360, Note_on_c, 9, 40, 111
5, 72360, Note_on_c, 9, 36, 111
5, 72480, Note_off_c, 9, 40, 80
5, 72480, Note_off_c, 9, 36, 80
5, 72480, Note_on_c, 9, 46, 111
5, 72480, Note_on_c, 9, 59, 111
5, 72600, Note_off_c, 9, 46, 80
5, 72600, Note_off_c, 9, 59, 80
5, 72600, Note_on_c, 9, 40, 111
5, 72720, Note_off_c, 9, 40, 80
5, 72720, Note_on_c, 9, 46, 111
5, 72720, Note_on_c, 9, 59, 111
5, 72720, Note_on_c, 9, 36, 111
5, 72840, Note_off_c, 9, 46, 80
5, 72840, Note_off_c, 9, 59, 80
5, 72840, Note_off_c, 9, 36, 80
5, 72840, Note_on_c, 9, 36, 111
5, 72960, Note_off_c, 9, 36, 80
5, 72960, Note_on_c, 9, 46, 111
5, 72960, Note_on_c, 9, 59, 111
5, 72960, Note_on_c, 9, 40, 111
5, 73200, Note_off_c, 9, 46, 80
5, 73200, Note_off_c, 9, 59, 80
5, 73200, Note_off_c, 9, 40, 80
5, 73200, Note_on_c, 9, 46, 111
5, 73200, Note_on_c, 9, 59, 111
5, 73200, Note_on_c, 9, 36, 111
5, 73320, Note_off_c, 9, 46, 80
5, 73320, Note_off_c, 9, 59, 80
5, 73320, Note_off_c, 9, 36, 80
5, 73320, Note_on_c, 9, 36, 111
5, 73440, Note_off_c, 9, 36, 80
5, 73440, Note_on_c, 9, 46, 111
5, 73440, Note_on_c, 9, 59, 111
5, 73440, Note_on_c, 9, 40, 111
5, 73560, Note_off_c, 9, 46, 80
5, 73560, Note_off_c, 9, 59, 80
5, 73560, Note_off_c, 9, 40, 80
5, 73560, Note_on_c, 9, 40, 111
5, 73560, Note_on_c, 9, 36, 111
5, 73680, Note_off_c, 9, 40, 80
5, 73680, Note_off_c, 9, 36, 80
5, 73680, Note_on_c, 9, 46, 111
5, 73680, Note_on_c, 9, 59, 111
5, 73800, Note_off_c, 9, 46, 80
5, 73800, Note_off_c, 9, 59, 80
5, 73800, Note_on_c, 9, 40, 111
5, 73920, Note_off_c, 9, 40, 80
5, 73920, Note_on_c, 9, 46, 111
5, 73920, Note_on_c, 9, 59, 111
5, 73920, Note_on_c, 9, 36, 111
5, 74040, Note_off_c, 9, 46, 80
5, 74040, Note_off_c, 9, 59, 80
5, 74040, Note_off_c, 9, 36, 80
5, 74040, Note_on_c, 9, 36, 111
5, 74160, Note_off_c, 9, 36, 80
5, 74160, Note_on_c, 9, 46, 111
5, 74160, Note_on_c, 9, 59, 111
5, 74160, Note_on_c, 9, 40, 111
5, 74400, Note_off_c, 9, 46, 80
5, 74400, Note_off_c, 9, 59, 80
5, 74400, Note_off_c, 9, 40, 80
5, 74400, Note_on_c, 9, 49, 95
5, 74400, Note_on_c, 9, 36, 95
5, 74520, Note_off_c, 9, 49, 80
5, 74520, Note_off_c, 9, 36, 80
5, 74640, Note_on_c, 9, 40, 95
5, 74880, Note_off_c, 9, 40, 80
5, 74880, Note_on_c, 9, 42, 95
5, 75000, Note_off_c, 9, 42, 80
5, 75000, Note_on_c, 9, 40, 95
5, 75120, Note_off_c, 9, 40, 80
5, 75120, Note_on_c, 9, 36, 95
5, 75240, Note_off_c, 9, 36, 80
5, 75240, Note_on_c, 9, 36, 95
5, 75360, Note_off_c, 9, 36, 80
5, 75360, Note_on_c, 9, 40, 95
5, 75600, Note_off_c, 9, 40, 80
5, 75600, Note_on_c, 9, 36, 95
5, 75720, Note_off_c, 9, 36, 80
5, 75720, Note_on_c, 9, 36, 95
5, 75840, Note_off_c, 9, 36, 80
5, 75840, Note_on_c, 9, 40, 95
5, 76080, Note_off_c, 9, 40, 80
5, 76080, Note_on_c, 9, 46, 79
5, 76200, Note_off_c, 9, 46, 80
5, 76200, Note_on_c, 9, 40, 95
5, 76320, Note_off_c, 9, 40, 80
5, 76320, Note_on_c, 9, 36, 95
5, 76440, Note_off_c, 9, 36, 80
5, 76440, Note_on_c, 9, 36, 95
5, 76560, Note_off_c, 9, 36, 80
5, 76560, Note_on_c, 9, 40, 95
5, 76680, Note_off_c, 9, 40, 80
5, 76680, Note_on_c, 9, 42, 95
5, 76800, Note_off_c, 9, 42, 80
5, 76800, Note_on_c, 9, 42, 95
5, 76800, Note_on_c, 9, 36, 95
5, 76920, Note_off_c, 9, 42, 80
5, 76920, Note_off_c, 9, 36, 80
5, 77040, Note_on_c, 9, 40, 95
5, 77280, Note_off_c, 9, 40, 80
5, 77280, Note_on_c, 9, 42, 95
5, 77400, Note_off_c, 9, 42, 80
5, 77400, Note_on_c, 9, 40, 95
5, 77520, Note_off_c, 9, 40, 80
5, 77520, Note_on_c, 9, 36, 95
5, 77640, Note_off_c, 9, 36, 80
5, 77640, Note_on_c, 9, 36, 95
5, 77760, Note_off_c, 9, 36, 80
5, 77760, Note_on_c, 9, 40, 95
5, 78000, Note_off_c, 9, 40, 80
5, 78000, Note_on_c, 9, 36, 95
5, 78120, Note_off_c, 9, 36, 80
5, 78120, Note_on_c, 9, 36, 95
5, 78240, Note_off_c, 9, 36, 80
5, 78240, Note_on_c, 9, 40, 95
5, 78480, Note_off_c, 9, 40, 80
5, 78480, Note_on_c, 9, 46, 79
5, 78600, Note_off_c, 9, 46, 80
5, 78600, Note_on_c, 9, 40, 95
5, 78720, Note_off_c, 9, 40, 80
5, 78720, Note_on_c, 9, 36, 95
5, 78840, Note_off_c, 9, 36, 80
5, 78840, Note_on_c, 9, 36, 95
5, 78960, Note_off_c, 9, 36, 80
5, 78960, Note_on_c, 9, 40, 95
5, 79080, Note_off_c, 9, 40, 80
5, 79080, Note_on_c, 9, 42, 95
5, 79200, Note_off_c, 9, 42, 80
5, 79200, Note_on_c, 9, 42, 95
5, 79200, Note_on_c, 9, 36, 95
5, 79320, Note_off_c, 9, 42, 80
5, 79320, Note_off_c, 9, 36, 80
5, 79440, Note_on_c, 9, 40, 95
5, 79560, Note_off_c, 9, 40, 80
5, 79560, Note_on_c, 9, 36, 95
5, 79680, Note_off_c, 9, 36, 80
5, 79680, Note_on_c, 9, 42, 95
5, 79800, Note_off_c, 9, 42, 80
5, 79800, Note_on_c, 9, 40, 95
5, 79920, Note_off_c, 9, 40, 80
5, 79920, Note_on_c, 9, 36, 95
5, 80160, Note_off_c, 9, 36, 80
5, 80160, Note_on_c, 9, 40, 95
5, 80280, Note_off_c, 9, 40, 80
5, 80280, Note_on_c, 9, 36, 95
5, 80400, Note_off_c, 9, 36, 80
5, 80400, Note_on_c, 9, 40, 95
5, 80520, Note_off_c, 9, 40, 80
5, 80520, Note_on_c, 9, 40, 95
5, 80640, Note_off_c, 9, 40, 80
5, 80640, Note_on_c, 9, 40, 95
5, 80880, Note_off_c, 9, 40, 80
5, 80880, Note_on_c, 9, 40, 95
5, 81360, Note_off_c, 9, 40, 80
5, 81360, Note_on_c, 9, 40, 95
5, 81600, Note_off_c, 9, 40, 80
5, 81600, Note_on_c, 9, 42, 95
5, 81600, Note_on_c, 9, 40, 95
5, 81600, Note_on_c, 9, 36, 95
5, 81720, Note_off_c, 9, 42, 80
5, 81720, Note_off_c, 9, 40, 80
5, 81720, Note_off_c, 9, 36, 80
5, 81840, Note_on_c, 9, 40, 95
5, 81960, Note_off_c, 9, 40, 80
5, 81960, Note_on_c, 9, 36, 95
5, 82080, Note_off_c, 9, 36, 80
5, 82080, Note_on_c, 9, 42, 95
5, 82200, Note_off_c, 9, 42, 80
5, 82200, Note_on_c, 9, 40, 95
5, 82320, Note_off_c, 9, 40, 80
5, 82320, Note_on_c, 9, 40, 95
5, 82320, Note_on_c, 9, 36, 95
5, 82560, Note_off_c, 9, 40, 80
5, 82560, Note_off_c, 9, 36, 80
5, 82560, Note_on_c, 9, 40, 95
5, 82680, Note_off_c, 9, 40, 80
5, 82680, Note_on_c, 9, 36, 95
5, 82800, Note_off_c, 9, 36, 80
5, 82800, Note_on_c, 9, 40, 95
5, 82920, Note_off_c, 9, 40, 80
5, 82920, Note_on_c, 9, 40, 95
5, 83040, Note_off_c, 9, 40, 80
5, 83040, Note_on_c, 9, 40, 95
5, 83280, Note_off_c, 9, 40, 80
5, 83280, Note_on_c, 9, 40, 95
5, 83760, Note_off_c, 9, 40, 80
5, 83760, Note_on_c, 9, 40, 95
5, 84000, Note_off_c, 9, 40, 80
5, 84000, Note_on_c, 9, 42, 95
5, 84000, Note_on_c, 9, 40, 95
5, 84000, Note_on_c, 9, 36, 95
5, 84120, Note_off_c, 9, 42, 80
5, 84120, Note_off_c, 9, 40, 80
5, 84120, Note_off_c, 9, 36, 80
5, 84120, Note_on_c, 9, 40, 95
5, 84240, Note_off_c, 9, 40, 80
5, 84240, Note_on_c, 9, 40, 95
5, 84360, Note_off_c, 9, 40, 80
5, 84360, Note_on_c, 9, 36, 95
5, 84480, Note_off_c, 9, 36, 80
5, 84480, Note_on_c, 9, 42, 95
5, 84600, Note_off_c, 9, 42, 80
5, 84600, Note_on_c, 9, 40, 95
5, 84720, Note_off_c, 9, 40, 80
5, 84720, Note_on_c, 9, 36, 95
5, 84960, Note_off_c, 9, 36, 80
5, 84960, Note_on_c, 9, 40, 95
5, 85080, Note_off_c, 9, 40, 80
5, 85080, Note_on_c, 9, 36, 95
5, 85200, Note_off_c, 9, 36, 80
5, 85200, Note_on_c, 9, 40, 95
5, 85320, Note_off_c, 9, 40, 80
5, 85320, Note_on_c, 9, 40, 95
5, 85440, Note_off_c, 9, 40, 80
5, 85440, Note_on_c, 9, 40, 95
5, 85680, Note_off_c, 9, 40, 80
5, 85680, Note_on_c, 9, 40, 95
5, 86160, Note_off_c, 9, 40, 80
5, 86160, Note_on_c, 9, 40, 95
5, 86400, Note_off_c, 9, 40, 80
5, 86400, Note_on_c, 9, 42, 95
5, 86400, Note_on_c, 9, 40, 95
5, 86400, Note_on_c, 9, 36, 95
5, 86520, Note_off_c, 9, 42, 80
5, 86520, Note_off_c, 9, 40, 80
5, 86520, Note_off_c, 9, 36, 80
5, 86520, Note_on_c, 9, 40, 95
5, 86640, Note_off_c, 9, 40, 80
5, 86640, Note_on_c, 9, 40, 95
5, 86760, Note_off_c, 9, 40, 80
5, 86760, Note_on_c, 9, 40, 95
5, 86760, Note_on_c, 9, 36, 95
5, 86880, Note_off_c, 9, 40, 80
5, 86880, Note_off_c, 9, 36, 80
5, 86880, Note_on_c, 9, 42, 95
5, 87000, Note_off_c, 9, 42, 80
5, 87000, Note_on_c, 9, 40, 95
5, 87120, Note_off_c, 9, 40, 80
5, 87120, Note_on_c, 9, 40, 95
5, 87120, Note_on_c, 9, 36, 95
5, 87360, Note_off_c, 9, 40, 80
5, 87360, Note_off_c, 9, 36, 80
5, 87360, Note_on_c, 9, 40, 95
5, 87480, Note_off_c, 9, 40, 80
5, 87480, Note_on_c, 9, 36, 95
5, 87600, Note_off_c, 9, 36, 80
5, 87600, Note_on_c, 9, 40, 95
5, 87720, Note_off_c, 9, 40, 80
5, 87720, Note_on_c, 9, 40, 95
5, 87840, Note_off_c, 9, 40, 80
5, 87840, Note_on_c, 9, 40, 95
5, 88080, Note_off_c, 9, 40, 80
5, 88080, Note_on_c, 9, 40, 95
5, 88560, Note_off_c, 9, 40, 80
5, 88560, Note_on_c, 9, 40, 95
5, 88800, Note_off_c, 9, 40, 80
5, 88800, Note_on_c, 9, 42, 127
5, 88800, Note_on_c, 9, 36, 127
5, 88920, Note_off_c, 9, 42, 80
5, 88920, Note_off_c, 9, 36, 80
5, 88920, Note_on_c, 9, 36, 127
5, 89040, Note_off_c, 9, 36, 80
5, 89040, Note_on_c, 9, 42, 127
5, 89040, Note_on_c, 9, 40, 127
5, 89160, Note_off_c, 9, 42, 80
5, 89160, Note_off_c, 9, 40, 80
5, 89160, Note_on_c, 9, 36, 127
5, 89280, Note_off_c, 9, 36, 80
5, 89280, Note_on_c, 9, 42, 127
5, 89400, Note_off_c, 9, 42, 80
5, 89400, Note_on_c, 9, 40, 127
5, 89520, Note_off_c, 9, 40, 80
5, 89520, Note_on_c, 9, 42, 127
5, 89520, Note_on_c, 9, 36, 127
5, 89640, Note_off_c, 9, 42, 80
5, 89640, Note_off_c, 9, 36, 80
5, 89640, Note_on_c, 9, 36, 127
5, 89760, Note_off_c, 9, 36, 80
5, 89760, Note_on_c, 9, 42, 127
5, 89760, Note_on_c, 9, 40, 127
5, 90000, Note_off_c, 9, 42, 80
5, 90000, Note_off_c, 9, 40, 80
5, 90000, Note_on_c, 9, 42, 127
5, 90000, Note_on_c, 9, 36, 127
5, 90120, Note_off_c, 9, 42, 80
5, 90120, Note_off_c, 9, 36, 80
5, 90120, Note_on_c, 9, 36, 127
5, 90240, Note_off_c, 9, 36, 80
5, 90240, Note_on_c, 9, 42, 127
5, 90240, Note_on_c, 9, 40, 127
5, 90360, Note_off_c, 9, 42, 80
5, 90360, Note_off_c, 9, 40, 80
5, 90360, Note_on_c, 9, 36, 127
5, 90480, Note_off_c, 9, 36, 80
5, 90480, Note_on_c, 9, 42, 127
5, 90600, Note_off_c, 9, 42, 80
5, 90600, Note_on_c, 9, 40, 127
5, 90720, Note_off_c, 9, 40, 80
5, 90720, Note_on_c, 9, 42, 127
5, 90720, Note_on_c, 9, 36, 127
5, 90840, Note_off_c, 9, 42, 80
5, 90840, Note_off_c, 9, 36, 80
5, 90840, Note_on_c, 9, 36, 127
5, 90960, Note_off_c, 9, 36, 80
5, 90960, Note_on_c, 9, 42, 127
5, 90960, Note_on_c, 9, 40, 127
5, 91200, Note_off_c, 9, 42, 80
5, 91200, Note_off_c, 9, 40, 80
5, 91200, Note_on_c, 9, 42, 127
5, 91200, Note_on_c, 9, 36, 127
5, 91320, Note_off_c, 9, 42, 80
5, 91320, Note_off_c, 9, 36, 80
5, 91320, Note_on_c, 9, 36, 127
5, 91440, Note_off_c, 9, 36, 80
5, 91440, Note_on_c, 9, 42, 127
5, 91440, Note_on_c, 9, 40, 127
5, 91560, Note_off_c, 9, 42, 80
5, 91560, Note_off_c, 9, 40, 80
5, 91560, Note_on_c, 9, 36, 127
5, 91680, Note_off_c, 9, 36, 80
5, 91680, Note_on_c, 9, 42, 127
5, 91800, Note_off_c, 9, 42, 80
5, 91800, Note_on_c, 9, 40, 127
5, 91920, Note_off_c, 9, 40, 80
5, 91920, Note_on_c, 9, 42, 127
5, 91920, Note_on_c, 9, 36, 127
5, 92040, Note_off_c, 9, 42, 80
5, 92040, Note_off_c, 9, 36, 80
5, 92040, Note_on_c, 9, 36, 127
5, 92160, Note_off_c, 9, 36, 80
5, 92160, Note_on_c, 9, 42, 127
5, 92160, Note_on_c, 9, 40, 127
5, 92400, Note_off_c, 9, 42, 80
5, 92400, Note_off_c, 9, 40, 80
5, 92400, Note_on_c, 9, 42, 127
5, 92400, Note_on_c, 9, 36, 127
5, 92520, Note_off_c, 9, 42, 80
5, 92520, Note_off_c, 9, 36, 80
5, 92520, Note_on_c, 9, 36, 127
5, 92640, Note_off_c, 9, 36, 80
5, 92640, Note_on_c, 9, 42, 127
5, 92640, Note_on_c, 9, 40, 127
5, 92760, Note_off_c, 9, 42, 80
5, 92760, Note_off_c, 9, 40, 80
5, 92760, Note_on_c, 9, 36, 127
5, 92880, Note_off_c, 9, 36, 80
5, 92880, Note_on_c, 9, 42, 127
5, 93000, Note_off_c, 9, 42, 80
5, 93000, Note_on_c, 9, 40, 127
5, 93120, Note_off_c, 9, 40, 80
5, 93120, Note_on_c, 9, 42, 127
5, 93120, Note_on_c, 9, 36, 127
5, 93240, Note_off_c, 9, 42, 80
5, 93240, Note_off_c, 9, 36, 80
5, 93240, Note_on_c, 9, 36, 127
5, 93360, Note_off_c, 9, 36, 80
5, 93360, Note_on_c, 9, 42, 127
5, 93360, Note_on_c, 9, 40, 127
5, 93600, Note_off_c, 9, 42, 80
5, 93600, Note_off_c, 9, 40, 80
5, 93600, Note_on_c, 9, 42, 127
5, 93600, Note_on_c, 9, 36, 127
5, 93720, Note_off_c, 9, 42, 80
5, 93720, Note_off_c, 9, 36, 80
5, 93720, Note_on_c, 9, 36, 127
5, 93840, Note_off_c, 9, 36, 80
5, 93840, Note_on_c, 9, 42, 127
5, 93840, Note_on_c, 9, 40, 127
5, 93960, Note_off_c, 9, 42, 80
5, 93960, Note_off_c, 9, 40, 80
5, 93960, Note_on_c, 9, 36, 127
5, 94080, Note_off_c, 9, 36, 80
5, 94080, Note_on_c, 9, 42, 127
5, 94200, Note_off_c, 9, 42, 80
5, 94200, Note_on_c, 9, 40, 127
5, 94320, Note_off_c, 9, 40, 80
5, 94320, Note_on_c, 9, 42, 127
5, 94320, Note_on_c, 9, 36, 127
5, 94440, Note_off_c, 9, 42, 80
5, 94440, Note_off_c, 9, 36, 80
5, 94440, Note_on_c, 9, 36, 127
5, 94560, Note_off_c, 9, 36, 80
5, 94560, Note_on_c, 9, 42, 127
5, 94560, Note_on_c, 9, 40, 127
5, 94800, Note_off_c, 9, 42, 80
5, 94800, Note_off_c, 9, 40, 80
5, 94800, Note_on_c, 9, 42, 127
5, 94800, Note_on_c, 9, 36, 127
5, 94920, Note_off_c, 9, 42, 80
5, 94920, Note_off_c, 9, 36, 80
5, 94920, Note_on_c, 9, 36, 127
5, 95040, Note_off_c, 9, 36, 80
5, 95040, Note_on_c, 9, 42, 127
5, 95040, Note_on_c, 9, 40, 127
5, 95160, Note_off_c, 9, 42, 80
5, 95160, Note_off_c, 9, 40, 80
5, 95160, Note_on_c, 9, 36, 127
5, 95280, Note_off_c, 9, 36, 80
5, 95280, Note_on_c, 9, 42, 127
5, 95400, Note_off_c, 9, 42, 80
5, 95400, Note_on_c, 9, 40, 127
5, 95520, Note_off_c, 9, 40, 80
5, 95520, Note_on_c, 9, 42, 127
5, 95520, Note_on_c, 9, 36, 127
5, 95640, Note_off_c, 9, 42, 80
5, 95640, Note_off_c, 9, 36, 80
5, 95640, Note_on_c, 9, 36, 127
5, 95760, Note_off_c, 9, 36, 80
5, 95760, Note_on_c, 9, 42, 127
5, 95760, Note_on_c, 9, 40, 127
5, 96000, Note_off_c, 9, 42, 80
5, 96000, Note_off_c, 9, 40, 80
5, 96000, Note_on_c, 9, 42, 127
5, 96000, Note_on_c, 9, 36, 127
5, 96120, Note_off_c, 9, 42, 80
5, 96120, Note_off_c, 9, 36, 80
5, 96120, Note_on_c, 9, 36, 127
5, 96240, Note_off_c, 9, 36, 80
5, 96240, Note_on_c, 9, 42, 127
5, 96240, Note_on_c, 9, 40, 127
5, 96360, Note_off_c, 9, 42, 80
5, 96360, Note_off_c, 9, 40, 80
5, 96360, Note_on_c, 9, 36, 127
5, 96480, Note_off_c, 9, 36, 80
5, 96480, Note_on_c, 9, 42, 127
5, 96600, Note_off_c, 9, 42, 80
5, 96600, Note_on_c, 9, 40, 127
5, 96720, Note_off_c, 9, 40, 80
5, 96720, Note_on_c, 9, 42, 127
5, 96720, Note_on_c, 9, 36, 127
5, 96840, Note_off_c, 9, 42, 80
5, 96840, Note_off_c, 9, 36, 80
5, 96840, Note_on_c, 9, 36, 127
5, 96960, Note_off_c, 9, 36, 80
5, 96960, Note_on_c, 9, 42, 127
5, 96960, Note_on_c, 9, 40, 127
5, 97200, Note_off_c, 9, 42, 80
5, 97200, Note_off_c, 9, 40, 80
5, 97200, Note_on_c, 9, 42, 127
5, 97200, Note_on_c, 9, 36, 127
5, 97320, Note_off_c, 9, 42, 80
5, 97320, Note_off_c, 9, 36, 80
5, 97320, Note_on_c, 9, 36, 127
5, 97440, Note_off_c, 9, 36, 80
5, 97440, Note_on_c, 9, 42, 127
5, 97440, Note_on_c, 9, 40, 127
5, 97560, Note_off_c, 9, 42, 80
5, 97560, Note_off_c, 9, 40, 80
5, 97560, Note_on_c, 9, 36, 127
5, 97680, Note_off_c, 9, 36, 80
5, 97680, Note_on_c, 9, 42, 127
5, 97800, Note_off_c, 9, 42, 80
5, 97800, Note_on_c, 9, 40, 127
5, 97920, Note_off_c, 9, 40, 80
5, 97920, Note_on_c, 9, 42, 127
5, 97920, Note_on_c, 9, 36, 127
5, 98040, Note_off_c, 9, 42, 80
5, 98040, Note_off_c, 9, 36, 80
5, 98040, Note_on_c, 9, 36, 127
5, 98160, Note_off_c, 9, 36, 80
5, 98160, Note_on_c, 9, 42, 127
5, 98160, Note_on_c, 9, 40, 127
5, 98400, Note_off_c, 9, 42, 80
5, 98400, Note_off_c, 9, 40, 80
5, 98400, Note_on_c, 9, 42, 127
5, 98400, Note_on_c, 9, 36, 127
5, 98520, Note_off_c, 9, 42, 80
5, 98520, Note_off_c, 9, 36, 80
5, 98520, Note_on_c, 9, 36, 127
5, 98640, Note_off_c, 9, 36, 80
5, 98640, Note_on_c, 9, 42, 127
5, 98640, Note_on_c, 9, 40, 127
5, 98760, Note_off_c, 9, 42, 80
5, 98760, Note_off_c, 9, 40, 80
5, 98760, Note_on_c, 9, 36, 127
5, 98880, Note_off_c, 9, 36, 80
5, 98880, Note_on_c, 9, 42, 127
5, 99000, Note_off_c, 9, 42, 80
5, 99000, Note_on_c, 9, 40, 127
5, 99120, Note_off_c, 9, 40, 80
5, 99120, Note_on_c, 9, 42, 127
5, 99120, Note_on_c, 9, 36, 127
5, 99240, Note_off_c, 9, 42, 80
5, 99240, Note_off_c, 9, 36, 80
5, 99240, Note_on_c, 9, 36, 127
5, 99360, Note_off_c, 9, 36, 80
5, 99360, Note_on_c, 9, 42, 127
5, 99360, Note_on_c, 9, 40, 127
5, 99600, Note_off_c, 9, 42, 80
5, 99600, Note_off_c, 9, 40, 80
5, 99600, Note_on_c, 9, 42, 127
5, 99600, Note_on_c, 9, 36, 127
5, 99720, Note_off_c, 9, 42, 80
5, 99720, Note_off_c, 9, 36, 80
5, 99720, Note_on_c, 9, 36, 127
5, 99840, Note_off_c, 9, 36, 80
5, 99840, Note_on_c, 9, 42, 127
5, 99840, Note_on_c, 9, 40, 127
5, 99960, Note_off_c, 9, 42, 80
5, 99960, Note_off_c, 9, 40, 80
5, 99960, Note_on_c, 9, 36, 127
5, 100080, Note_off_c, 9, 36, 80
5, 100080, Note_on_c, 9, 42, 127
5, 100200, Note_off_c, 9, 42, 80
5, 100200, Note_on_c, 9, 40, 127
5, 100320, Note_off_c, 9, 40, 80
5, 100320, Note_on_c, 9, 42, 127
5, 100320, Note_on_c, 9, 36, 127
5, 100440, Note_off_c, 9, 42, 80
5, 100440, Note_off_c, 9, 36, 80
5, 100440, Note_on_c, 9, 36, 127
5, 100560, Note_off_c, 9, 36, 80
5, 100560, Note_on_c, 9, 42, 127
5, 100560, Note_on_c, 9, 40, 127
5, 100800, Note_off_c, 9, 42, 80
5, 100800, Note_off_c, 9, 40, 80
5, 100800, Note_on_c, 9, 42, 127
5, 100800, Note_on_c, 9, 36, 127
5, 100920, Note_off_c, 9, 42, 80
5, 100920, Note_off_c, 9, 36, 80
5, 100920, Note_on_c, 9, 36, 127
5, 101040, Note_off_c, 9, 36, 80
5, 101040, Note_on_c, 9, 42, 127
5, 101040, Note_on_c, 9, 40, 127
5, 101160, Note_off_c, 9, 42, 80
5, 101160, Note_off_c, 9, 40, 80
5, 101160, Note_on_c, 9, 36, 127
5, 101280, Note_off_c, 9, 36, 80
5, 101280, Note_on_c, 9, 42, 127
5, 101400, Note_off_c, 9, 42, 80
5, 101400, Note_on_c, 9, 40, 127
5, 101520, Note_off_c, 9, 40, 80
5, 101520, Note_on_c, 9, 42, 127
5, 101520, Note_on_c, 9, 36, 127
5, 101640, Note_off_c, 9, 42, 80
5, 101640, Note_off_c, 9, 36, 80
5, 101640, Note_on_c, 9, 36, 127
5, 101760, Note_off_c, 9, 36, 80
5, 101760, Note_on_c, 9, 42, 127
5, 101760, Note_on_c, 9, 40, 127
5, 102000, Note_off_c, 9, 42, 80
5, 102000, Note_off_c, 9, 40, 80
5, 102000, Note_on_c, 9, 42, 127
5, 102000, Note_on_c, 9, 36, 127
5, 102120, Note_off_c, 9, 42, 80
5, 102120, Note_off_c, 9, 36, 80
5, 102120, Note_on_c, 9, 36, 127
5, 102240, Note_off_c, 9, 36, 80
5, 102240, Note_on_c, 9, 42, 127
5, 102240, Note_on_c, 9, 40, 127
5, 102360, Note_off_c, 9, 42, 80
5, 102360, Note_off_c, 9, 40, 80
5, 102360, Note_on_c, 9, 36, 127
5, 102480, Note_off_c, 9, 36, 80
5, 102480, Note_on_c, 9, 42, 127
5, 102600, Note_off_c, 9, 42, 80
5, 102600, Note_on_c, 9, 40, 127
5, 102720, Note_off_c, 9, 40, 80
5, 102720, Note_on_c, 9, 42, 127
5, 102720, Note_on_c, 9, 36, 127
5, 102840, Note_off_c, 9, 42, 80
5, 102840, Note_off_c, 9, 36, 80
5, 102840, Note_on_c, 9, 36, 127
5, 102960, Note_off_c, 9, 36, 80
5, 102960, Note_on_c, 9, 42, 127
5, 102960, Note_on_c, 9, 40, 127
5, 103200, Note_off_c, 9, 42, 80
5, 103200, Note_off_c, 9, 40, 80
5, 103200, Note_on_c, 9, 42, 127
5, 103200, Note_on_c, 9, 36, 127
5, 103320, Note_off_c, 9, 42, 80
5, 103320, Note_off_c, 9, 36, 80
5, 103320, Note_on_c, 9, 36, 127
5, 103440, Note_off_c, 9, 36, 80
5, 103440, Note_on_c, 9, 42, 127
5, 103440, Note_on_c, 9, 40, 127
5, 103560, Note_off_c, 9, 42, 80
5, 103560, Note_off_c, 9, 40, 80
5, 103560, Note_on_c, 9, 36, 127
5, 103680, Note_off_c, 9, 36, 80
5, 103680, Note_on_c, 9, 42, 127
5, 103800, Note_off_c, 9, 42, 80
5, 103800, Note_on_c, 9, 40, 127
5, 103920, Note_off_c, 9, 40, 80
5, 103920, Note_on_c, 9, 42, 127
5, 103920, Note_on_c, 9, 36, 127
5, 104040, Note_off_c, 9, 42, 80
5, 104040, Note_off_c, 9, 36, 80
5, 104040, Note_on_c, 9, 36, 127
5, 104160, Note_off_c, 9, 36, 80
5, 104160, Note_on_c, 9, 42, 127
5, 104160, Note_on_c, 9, 40, 127
5, 104400, Note_off_c, 9, 42, 80
5, 104400, Note_off_c, 9, 40, 80
5, 104400, Note_on_c, 9, 42, 127
5, 104400, Note_on_c, 9, 36, 127
5, 104520, Note_off_c, 9, 42, 80
5, 104520, Note_off_c, 9, 36, 80
5, 104520, Note_on_c, 9, 36, 127
5, 104640, Note_off_c, 9, 36, 80
5, 104640, Note_on_c, 9, 42, 127
5, 104640, Note_on_c, 9, 40, 127
5, 104760, Note_off_c, 9, 42, 80
5, 104760, Note_off_c, 9, 40, 80
5, 104760, Note_on_c, 9, 36, 127
5, 104880, Note_off_c, 9, 36, 80
5, 104880, Note_on_c, 9, 42, 127
5, 105000, Note_off_c, 9, 42, 80
5, 105000, Note_on_c, 9, 40, 127
5, 105120, Note_off_c, 9, 40, 80
5, 105120, Note_on_c, 9, 42, 127
5, 105120, Note_on_c, 9, 36, 127
5, 105240, Note_off_c, 9, 42, 80
5, 105240, Note_off_c, 9, 36, 80
5, 105240, Note_on_c, 9, 36, 127
5, 105360, Note_off_c, 9, 36, 80
5, 105360, Note_on_c, 9, 42, 127
5, 105360, Note_on_c, 9, 40, 127
5, 105600, Note_off_c, 9, 42, 80
5, 105600, Note_off_c, 9, 40, 80
5, 105600, Note_on_c, 9, 42, 127
5, 105600, Note_on_c, 9, 36, 127
5, 105720, Note_off_c, 9, 42, 80
5, 105720, Note_off_c, 9, 36, 80
5, 105720, Note_on_c, 9, 36, 127
5, 105840, Note_off_c, 9, 36, 80
5, 105840, Note_on_c, 9, 42, 127
5, 105840, Note_on_c, 9, 40, 127
5, 105960, Note_off_c, 9, 42, 80
5, 105960, Note_off_c, 9, 40, 80
5, 105960, Note_on_c, 9, 36, 127
5, 106080, Note_off_c, 9, 36, 80
5, 106080, Note_on_c, 9, 42, 127
5, 106200, Note_off_c, 9, 42, 80
5, 106200, Note_on_c, 9, 40, 127
5, 106320, Note_off_c, 9, 40, 80
5, 106320, Note_on_c, 9, 42, 127
5, 106320, Note_on_c, 9, 36, 127
5, 106440, Note_off_c, 9, 42, 80
5, 106440, Note_off_c, 9, 36, 80
5, 106440, Note_on_c, 9, 36, 127
5, 106560, Note_off_c, 9, 36, 80
5, 106560, Note_on_c, 9, 42, 127
5, 106560, Note_on_c, 9, 40, 127
5, 106800, Note_off_c, 9, 42, 80
5, 106800, Note_off_c, 9, 40, 80
5, 106800, Note_on_c, 9, 42, 127
5, 106800, Note_on_c, 9, 36, 127
5, 106920, Note_off_c, 9, 42, 80
5, 106920, Note_off_c, 9, 36, 80
5, 106920, Note_on_c, 9, 36, 127
5, 107040, Note_off_c, 9, 36, 80
5, 107040, Note_on_c, 9, 42, 127
5, 107040, Note_on_c, 9, 40, 127
5, 107160, Note_off_c, 9, 42, 80
5, 107160, Note_off_c, 9, 40, 80
5, 107160, Note_on_c, 9, 36, 127
5, 107280, Note_off_c, 9, 36, 80
5, 107280, Note_on_c, 9, 42, 127
5, 107400, Note_off_c, 9, 42, 80
5, 107400, Note_on_c, 9, 40, 127
5, 107520, Note_off_c, 9, 40, 80
5, 107520, Note_on_c, 9, 42, 127
5, 107520, Note_on_c, 9, 36, 127
5, 107640, Note_off_c, 9, 42, 80
5, 107640, Note_off_c, 9, 36, 80
5, 107640, Note_on_c, 9, 36, 127
5, 107760, Note_off_c, 9, 36, 80
5, 107760, Note_on_c, 9, 42, 127
5, 107760, Note_on_c, 9, 40, 127
5, 108000, Note_off_c, 9, 42, 80
5, 108000, Note_off_c, 9, 40, 80
5, 108000, Note_on_c, 9, 42, 127
5, 108000, Note_on_c, 9, 36, 127
5, 108120, Note_off_c, 9, 42, 80
5, 108120, Note_off_c, 9, 36, 80
5, 108120, Note_on_c, 9, 36, 127
5, 108240, Note_off_c, 9, 36, 80
5, 108240, Note_on_c, 9, 42, 127
5, 108240, Note_on_c, 9, 40, 127
5, 108360, Note_off_c, 9, 42, 80
5, 108360, Note_off_c, 9, 40, 80
5, 108360, Note_on_c, 9, 36, 127
5, 108480, Note_off_c, 9, 36, 80
5, 108480, Note_on_c, 9, 42, 127
5, 108600, Note_off_c, 9, 42, 80
5, 108600, Note_on_c, 9, 40, 127
5, 108720, Note_off_c, 9, 40, 80
5, 108720, Note_on_c, 9, 42, 127
5, 108720, Note_on_c, 9, 36, 127
5, 108840, Note_off_c, 9, 42, 80
5, 108840, Note_off_c, 9, 36, 80
5, 108840, Note_on_c, 9, 36, 127
5, 108960, Note_off_c, 9, 36, 80
5, 108960, Note_on_c, 9, 42, 127
5, 108960, Note_on_c, 9, 40, 127
5, 109200, Note_off_c, 9, 42, 80
5, 109200, Note_off_c, 9, 40, 80
5, 109200, Note_on_c, 9, 42, 127
5, 109200, Note_on_c, 9, 36, 127
5, 109320, Note_off_c, 9, 42, 80
5, 109320, Note_off_c, 9, 36, 80
5, 109320, Note_on_c, 9, 36, 127
5, 109440, Note_off_c, 9, 36, 80
5, 109440, Note_on_c, 9, 42, 127
5, 109440, Note_on_c, 9, 40, 127
5, 109560, Note_off_c, 9, 42, 80
5, 109560, Note_off_c, 9, 40, 80
5, 109560, Note_on_c, 9, 36, 127
5, 109680, Note_off_c, 9, 36, 80
5, 109680, Note_on_c, 9, 42, 127
5, 109800, Note_off_c, 9, 42, 80
5, 109800, Note_on_c, 9, 40, 127
5, 109920, Note_off_c, 9, 40, 80
5, 109920, Note_on_c, 9, 42, 127
5, 109920, Note_on_c, 9, 36, 127
5, 110040, Note_off_c, 9, 42, 80
5, 110040, Note_off_c, 9, 36, 80
5, 110040, Note_on_c, 9, 36, 127
5, 110160, Note_off_c, 9, 36, 80
5, 110160, Note_on_c, 9, 42, 127
5, 110160, Note_on_c, 9, 40, 127
5, 110400, Note_off_c, 9, 42, 80
5, 110400, Note_off_c, 9, 40, 80
5, 110400, Note_on_c, 9, 42, 127
5, 110400, Note_on_c, 9, 36, 127
5, 110520, Note_off_c, 9, 42, 80
5, 110520, Note_off_c, 9, 36, 80
5, 110520, Note_on_c, 9, 36, 127
5, 110640, Note_off_c, 9, 36, 80
5, 110640, Note_on_c, 9, 42, 127
5, 110640, Note_on_c, 9, 40, 127
5, 110760, Note_off_c, 9, 42, 80
5, 110760, Note_off_c, 9, 40, 80
5, 110760, Note_on_c, 9, 36, 127
5, 110880, Note_off_c, 9, 36, 80
5, 110880, Note_on_c, 9, 42, 127
5, 111000, Note_off_c, 9, 42, 80
5, 111000, Note_on_c, 9, 40, 127
5, 111120, Note_off_c, 9, 40, 80
5, 111120, Note_on_c, 9, 42, 127
5, 111120, Note_on_c, 9, 36, 127
5, 111240, Note_off_c, 9, 42, 80
5, 111240, Note_off_c, 9, 36, 80
5, 111240, Note_on_c, 9, 36, 127
5, 111360, Note_off_c, 9, 36, 80
5, 111360, Note_on_c, 9, 42, 127
5, 111360, Note_on_c, 9, 40, 127
5, 111600, Note_off_c, 9, 42, 80
5, 111600, Note_off_c, 9, 40, 80
5, 111600, Note_on_c, 9, 42, 127
5, 111600, Note_on_c, 9, 36, 127
5, 111720, Note_off_c, 9, 42, 80
5, 111720, Note_off_c, 9, 36, 80
5, 111720, Note_on_c, 9, 36, 127
5, 111840, Note_off_c, 9, 36, 80
5, 111840, Note_on_c, 9, 42, 127
5, 111840, Note_on_c, 9, 40, 127
5, 111960, Note_off_c, 9, 42, 80
5, 111960, Note_off_c, 9, 40, 80
5, 111960, Note_on_c, 9, 36, 127
5, 112080, Note_off_c, 9, 36, 80
5, 112080, Note_on_c, 9, 42, 127
5, 112200, Note_off_c, 9, 42, 80
5, 112200, Note_on_c, 9, 40, 127
5, 112320, Note_off_c, 9, 40, 80
5, 112320, Note_on_c, 9, 42, 127
5, 112320, Note_on_c, 9, 36, 127
5, 112440, Note_off_c, 9, 42, 80
5, 112440, Note_off_c, 9, 36, 80
5, 112440, Note_on_c, 9, 36, 127
5, 112560, Note_off_c, 9, 36, 80
5, 112560, Note_on_c, 9, 42, 127
5, 112560, Note_on_c, 9, 40, 127
5, 112800, Note_off_c, 9, 42, 80
5, 112800, Note_off_c, 9, 40, 80
5, 112800, Note_on_c, 9, 42, 95
5, 112800, Note_on_c, 9, 57, 95
5, 112800, Note_on_c, 9, 36, 95
5, 112920, Note_off_c, 9, 42, 80
5, 112920, Note_off_c, 9, 57, 80
5, 112920, Note_off_c, 9, 36, 80
5, 113040, Note_on_c, 9, 40, 95
5, 113160, Note_off_c, 9, 40, 80
5, 113160, Note_on_c, 9, 36, 95
5, 113280, Note_off_c, 9, 36, 80
5, 113280, Note_on_c, 9, 42, 95
5, 113400, Note_off_c, 9, 42, 80
5, 113400, Note_on_c, 9, 40, 95
5, 113520, Note_off_c, 9, 40, 80
5, 113520, Note_on_c, 9, 42, 95
5, 113520, Note_on_c, 9, 36, 95
5, 113760, Note_off_c, 9, 42, 80
5, 113760, Note_off_c, 9, 36, 80
5, 113760, Note_on_c, 9, 40, 95
5, 113880, Note_off_c, 9, 40, 80
5, 113880, Note_on_c, 9, 36, 95
5, 114000, Note_off_c, 9, 36, 80
5, 114000, Note_on_c, 9, 42, 95
5, 114000, Note_on_c, 9, 36, 95
5, 114120, Note_off_c, 9, 42, 80
5, 114120, Note_off_c, 9, 36, 80
5, 114240, Note_on_c, 9, 40, 95
5, 114360, Note_off_c, 9, 40, 80
5, 114360, Note_on_c, 9, 36, 95
5, 114480, Note_off_c, 9, 36, 80
5, 114480, Note_on_c, 9, 42, 95
5, 114600, Note_off_c, 9, 42, 80
5, 114600, Note_on_c, 9, 40, 95
5, 114720, Note_off_c, 9, 40, 80
5, 114720, Note_on_c, 9, 36, 95
5, 114840, Note_off_c, 9, 36, 80
5, 114840, Note_on_c, 9, 40, 95
5, 114960, Note_off_c, 9, 40, 80
5, 114960, Note_on_c, 9, 40, 95
5, 114960, Note_on_c, 9, 36, 95
5, 115080, Note_off_c, 9, 40, 80
5, 115080, Note_off_c, 9, 36, 80
5, 115080, Note_on_c, 9, 40, 95
5, 115200, Note_off_c, 9, 40, 80
5, 115200, Note_on_c, 9, 42, 95
5, 115200, Note_on_c, 9, 40, 95
5, 115200, Note_on_c, 9, 36, 95
5, 115320, Note_off_c, 9, 42, 80
5, 115320, Note_off_c, 9, 40, 80
5, 115320, Note_off_c, 9, 36, 80
5, 115320, Note_on_c, 9, 36, 95
5, 115440, Note_off_c, 9, 36, 80
5, 115440, Note_on_c, 9, 36, 95
5, 115560, Note_off_c, 9, 36, 80
5, 115560, Note_on_c, 9, 40, 95
5, 115560, Note_on_c, 9, 36, 95
5, 115680, Note_off_c, 9, 40, 80
5, 115680, Note_off_c, 9, 36, 80
5, 115680, Note_on_c, 9, 42, 95
5, 115800, Note_off_c, 9, 42, 80
5, 115800, Note_on_c, 9, 40, 95
5, 115920, Note_off_c, 9, 40, 80
5, 115920, Note_on_c, 9, 42, 95
5, 115920, Note_on_c, 9, 36, 95
5, 116160, Note_off_c, 9, 42, 80
5, 116160, Note_off_c, 9, 36, 80
5, 116160, Note_on_c, 9, 40, 95
5, 116280, Note_off_c, 9, 40, 80
5, 116280, Note_on_c, 9, 36, 95
5, 116400, Note_off_c, 9, 36, 80
5, 116400, Note_on_c, 9, 42, 95
5, 116400, Note_on_c, 9, 36, 95
5, 116520, Note_off_c, 9, 42, 80
5, 116520, Note_off_c, 9, 36, 80
5, 116640, Note_on_c, 9, 40, 95
5, 116760, Note_off_c, 9, 40, 80
5, 116760, Note_on_c, 9, 36, 95
5, 116880, Note_off_c, 9, 36, 80
5, 116880, Note_on_c, 9, 42, 95
5, 117000, Note_off_c, 9, 42, 80
5, 117000, Note_on_c, 9, 40, 95
5, 117120, Note_off_c, 9, 40, 80
5, 117120, Note_on_c, 9, 36, 95
5, 117240, Note_off_c, 9, 36, 80
5, 117240, Note_on_c, 9, 40, 95
5, 117360, Note_off_c, 9, 40, 80
5, 117360, Note_on_c, 9, 40, 95
5, 117360, Note_on_c, 9, 36, 95
5, 117480, Note_off_c, 9, 40, 80
5, 117480, Note_off_c, 9, 36, 80
5, 117480, Note_on_c, 9, 40, 95
5, 117600, Note_off_c, 9, 40, 80
5, 117600, Note_on_c, 9, 40, 95
5, 117720, Note_off_c, 9, 40, 80
5, 117960, Note_on_c, 9, 36, 95
5, 118080, Note_off_c, 9, 36, 80
5, 118080, Note_on_c, 9, 36, 95
5, 118200, Note_off_c, 9, 36, 80
5, 118200, Note_on_c, 9, 36, 95
5, 118560, Note_off_c, 9, 36, 80
5, 118560, Note_on_c, 9, 40, 95
5, 118800, Note_off_c, 9, 40, 80
5, 118800, Note_on_c, 9, 40, 95
5, 118920, Note_off_c, 9, 40, 80
5, 118920, Note_on_c, 9, 36, 95
5, 119040, Note_off_c, 9, 36, 80
5, 119040, Note_on_c, 9, 36, 95
5, 119160, Note_off_c, 9, 36, 80
5, 119160, Note_on_c, 9, 36, 95
5, 119280, Note_off_c, 9, 36, 80
5, 119280, Note_on_c, 9, 36, 95
5, 119760, Note_off_c, 9, 36, 80
5, 119760, Note_on_c, 9, 40, 95
5, 120000, Note_off_c, 9, 40, 80
5, 120000, Note_on_c, 9, 40, 95
5, 120120, Note_off_c, 9, 40, 80
5, 120120, Note_on_c, 9, 36, 95
5, 120240, Note_off_c, 9, 36, 80
5, 120240, Note_on_c, 9, 36, 95
5, 120360, Note_off_c, 9, 36, 80
5, 120360, Note_on_c, 9, 36, 95
5, 120480, Note_off_c, 9, 36, 80
5, 120480, Note_on_c, 9, 40, 95
5, 120600, Note_off_c, 9, 40, 80
5, 120720, Note_on_c, 9, 40, 95
5, 120960, Note_off_c, 9, 40, 80
5, 120960, Note_on_c, 9, 40, 95
5, 121080, Note_off_c, 9, 40, 80
5, 121080, Note_on_c, 9, 36, 95
5, 121200, Note_off_c, 9, 36, 80
5, 121200, Note_on_c, 9, 36, 95
5, 121320, Note_off_c, 9, 36, 80
5, 121320, Note_on_c, 9, 36, 95
5, 121560, Note_off_c, 9, 36, 80
5, 121560, Note_on_c, 9, 40, 95
5, 121800, Note_off_c, 9, 40, 80
5, 121800, Note_on_c, 9, 40, 95
5, 121920, Note_off_c, 9, 40, 80
5, 121920, Note_on_c, 9, 36, 95
5, 122040, Note_off_c, 9, 36, 80
5, 122040, Note_on_c, 9, 36, 95
5, 122160, Note_off_c, 9, 36, 80
5, 122160, Note_on_c, 9, 36, 95
5, 122280, Note_off_c, 9, 36, 80
5, 122280, Note_on_c, 9, 42, 95
5, 122400, Note_off_c, 9, 42, 80
5, 122400, Note_on_c, 9, 42, 47
5, 122400, Note_on_c, 9, 40, 95
5, 122520, Note_off_c, 9, 42, 80
5, 122520, Note_off_c, 9, 40, 80
5, 122640, Note_on_c, 9, 40, 95
5, 122760, Note_off_c, 9, 40, 80
5, 122760, Note_on_c, 9, 36, 47
5, 122880, Note_off_c, 9, 36, 80
5, 122880, Note_on_c, 9, 36, 47
5, 123000, Note_off_c, 9, 36, 80
5, 123000, Note_on_c, 9, 40, 95
5, 123120, Note_off_c, 9, 40, 80
5, 123240, Note_on_c, 9, 40, 95
5, 123480, Note_off_c, 9, 40, 80
5, 123480, Note_on_c, 9, 40, 95
5, 123600, Note_off_c, 9, 40, 80
5, 123600, Note_on_c, 9, 36, 95
5, 123720, Note_off_c, 9, 36, 80
5, 123720, Note_on_c, 9, 36, 95
5, 123960, Note_off_c, 9, 36, 80
5, 123960, Note_on_c, 9, 40, 95
5, 124200, Note_off_c, 9, 40, 80
5, 124200, Note_on_c, 9, 40, 95
5, 124320, Note_off_c, 9, 40, 80
5, 124320, Note_on_c, 9, 36, 95
5, 124440, Note_off_c, 9, 36, 80
5, 124440, Note_on_c, 9, 36, 95
5, 124560, Note_off_c, 9, 36, 80
5, 124560, Note_on_c, 9, 36, 95
5, 124680, Note_off_c, 9, 36, 80
5, 124680, Note_on_c, 9, 42, 95
5, 124800, Note_off_c, 9, 42, 80
5, 124800, Note_on_c, 9, 46, 111
5, 124800, Note_on_c, 9, 59, 111
5, 124800, Note_on_c, 9, 36, 111
5, 124920, Note_off_c, 9, 46, 80
5, 124920, Note_off_c, 9, 59, 80
5, 124920, Note_off_c, 9, 36, 80
5, 124920, Note_on_c, 9, 36, 111
5, 125040, Note_off_c, 9, 36, 80
5, 125040, Note_on_c, 9, 46, 111
5, 125040, Note_on_c, 9, 59, 111
5, 125040, Note_on_c, 9, 40, 111
5, 125160, Note_off_c, 9, 46, 80
5, 125160, Note_off_c, 9, 59, 80
5, 125160, Note_off_c, 9, 40, 80
5, 125160, Note_on_c, 9, 40, 111
5, 125160, Note_on_c, 9, 36, 111
5, 125280, Note_off_c, 9, 40, 80
5, 125280, Note_off_c, 9, 36, 80
5, 125280, Note_on_c, 9, 46, 111
5, 125280, Note_on_c, 9, 59, 111
5, 125400, Note_off_c, 9, 46, 80
5, 125400, Note_off_c, 9, 59, 80
5, 125400, Note_on_c, 9, 40, 111
5, 125520, Note_off_c, 9, 40, 80
5, 125520, Note_on_c, 9, 46, 111
5, 125520, Note_on_c, 9, 59, 111
5, 125520, Note_on_c, 9, 36, 111
5, 125640, Note_off_c, 9, 46, 80
5, 125640, Note_off_c, 9, 59, 80
5, 125640, Note_off_c, 9, 36, 80
5, 125640, Note_on_c, 9, 36, 111
5, 125760, Note_off_c, 9, 36, 80
5, 125760, Note_on_c, 9, 46, 111
5, 125760, Note_on_c, 9, 59, 111
5, 125760, Note_on_c, 9, 40, 111
5, 126000, Note_off_c, 9, 46, 80
5, 126000, Note_off_c, 9, 59, 80
5, 126000, Note_off_c, 9, 40, 80
5, 126000, Note_on_c, 9, 46, 111
5, 126000, Note_on_c, 9, 59, 111
5, 126000, Note_on_c, 9, 36, 111
5, 126120, Note_off_c, 9, 46, 80
5, 126120, Note_off_c, 9, 59, 80
5, 126120, Note_off_c, 9, 36, 80
5, 126120, Note_on_c, 9, 36, 111
5, 126240, Note_off_c, 9, 36, 80
5, 126240, Note_on_c, 9, 46, 111
5, 126240, Note_on_c, 9, 59, 111
5, 126240, Note_on_c, 9, 40, 111
5, 126360, Note_off_c, 9, 46, 80
5, 126360, Note_off_c, 9, 59, 80
5, 126360, Note_off_c, 9, 40, 80
5, 126360, Note_on_c, 9, 40, 111
5, 126360, Note_on_c, 9, 36, 111
5, 126480, Note_off_c, 9, 40, 80
5, 126480, Note_off_c, 9, 36, 80
5, 126480, Note_on_c, 9, 46, 111
5, 126480, Note_on_c, 9, 59, 111
5, 126600, Note_off_c, 9, 46, 80
5, 126600, Note_off_c, 9, 59, 80
5, 126600, Note_on_c, 9, 40, 111
5, 126720, Note_off_c, 9, 40, 80
5, 126720, Note_on_c, 9, 46, 111
5, 126720, Note_on_c, 9, 59, 111
5, 126720, Note_on_c, 9, 36, 111
5, 126840, Note_off_c, 9, 46, 80
5, 126840, Note_off_c, 9, 59, 80
5, 126840, Note_off_c, 9, 36, 80
5, 126840, Note_on_c, 9, 36, 111
5, 126960, Note_off_c, 9, 36, 80
5, 126960, Note_on_c, 9, 46, 111
5, 126960, Note_on_c, 9, 59, 111
5, 126960, Note_on_c, 9, 40, 111
5, 127200, Note_off_c, 9, 46, 80
5, 127200, Note_off_c, 9, 59, 80
5, 127200, Note_off_c, 9, 40, 80
5, 127200, Note_on_c, 9, 46, 111
5, 127200, Note_on_c, 9, 59, 111
5, 127200, Note_on_c, 9, 36, 111
5, 127320, Note_off_c, 9, 46, 80
5, 127320, Note_off_c, 9, 59, 80
5, 127320, Note_off_c, 9, 36, 80
5, 127320, Note_on_c, 9, 36, 111
5, 127440, Note_off_c, 9, 36, 80
5, 127440, Note_on_c, 9, 46, 111
5, 127440, Note_on_c, 9, 59, 111
5, 127440, Note_on_c, 9, 40, 111
5, 127560, Note_off_c, 9, 46, 80
5, 127560, Note_off_c, 9, 59, 80
5, 127560, Note_off_c, 9, 40, 80
5, 127560, Note_on_c, 9, 40, 111
5, 127560, Note_on_c, 9, 36, 111
5, 127680, Note_off_c, 9, 40, 80
5, 127680, Note_off_c, 9, 36, 80
5, 127680, Note_on_c, 9, 46, 111
5, 127680, Note_on_c, 9, 59, 111
5, 127800, Note_off_c, 9, 46, 80
5, 127800, Note_off_c, 9, 59, 80
5, 127800, Note_on_c, 9, 40, 111
5, 127920, Note_off_c, 9, 40, 80
5, 127920, Note_on_c, 9, 46, 111
5, 127920, Note_on_c, 9, 59, 111
5, 127920, Note_on_c, 9, 36, 111
5, 128040, Note_off_c, 9, 46, 80
5, 128040, Note_off_c, 9, 59, 80
5, 128040, Note_off_c, 9, 36, 80
5, 128040, Note_on_c, 9, 36, 111
5, 128160, Note_off_c, 9, 36, 80
5, 128160, Note_on_c, 9, 46, 111
5, 128160, Note_on_c, 9, 59, 111
5, 128160, Note_on_c, 9, 40, 111
5, 128400, Note_off_c, 9, 46, 80
5, 128400, Note_off_c, 9, 59, 80
5, 128400, Note_off_c, 9, 40, 80
5, 128400, Note_on_c, 9, 46, 111
5, 128400, Note_on_c, 9, 59, 111
5, 128400, Note_on_c, 9, 36, 111
5, 128520, Note_off_c, 9, 46, 80
5, 128520, Note_off_c, 9, 59, 80
5, 128520, Note_off_c, 9, 36, 80
5, 128520, Note_on_c, 9, 36, 111
5, 128640, Note_off_c, 9, 36, 80
5, 128640, Note_on_c, 9, 46, 111
5, 128640, Note_on_c, 9, 59, 111
5, 128640, Note_on_c, 9, 40, 111
5, 128760, Note_off_c, 9, 46, 80
5, 128760, Note_off_c, 9, 59, 80
5, 128760, Note_off_c, 9, 40, 80
5, 128760, Note_on_c, 9, 40, 111
5, 128760, Note_on_c, 9, 36, 111
5, 128880, Note_off_c, 9, 40, 80
5, 128880, Note_off_c, 9, 36, 80
5, 128880, Note_on_c, 9, 46, 111
5, 128880, Note_on_c, 9, 59, 111
5, 129000, Note_off_c, 9, 46, 80
5, 129000, Note_off_c, 9, 59, 80
5, 129000, Note_on_c, 9, 40, 111
5, 129120, Note_off_c, 9, 40, 80
5, 129120, Note_on_c, 9, 46, 111
5, 129120, Note_on_c, 9, 59, 111
5, 129120, Note_on_c, 9, 36, 111
5, 129240, Note_off_c, 9, 46, 80
5, 129240, Note_off_c, 9, 59, 80
5, 129240, Note_off_c, 9, 36, 80
5, 129240, Note_on_c, 9, 36, 111
5, 129360, Note_off_c, 9, 36, 80
5, 129360, Note_on_c, 9, 46, 111
5, 129360, Note_on_c, 9, 59, 111
5, 129360, Note_on_c, 9, 40, 111
5, 129600, Note_off_c, 9, 46, 80
5, 129600, Note_off_c, 9, 59, 80
5, 129600, Note_off_c, 9, 40, 80
5, 129600, Note_on_c, 9, 46, 111
5, 129600, Note_on_c, 9, 59, 111
5, 129600, Note_on_c, 9, 36, 111
5, 129720, Note_off_c, 9, 46, 80
5, 129720, Note_off_c, 9, 59, 80
5, 129720, Note_off_c, 9, 36, 80
5, 129720, Note_on_c, 9, 36, 111
5, 129840, Note_off_c, 9, 36, 80
5, 129840, Note_on_c, 9, 46, 111
5, 129840, Note_on_c, 9, 59, 111
5, 129840, Note_on_c, 9, 40, 111
5, 129960, Note_off_c, 9, 46, 80
5, 129960, Note_off_c, 9, 59, 80
5, 129960, Note_off_c, 9, 40, 80
5, 129960, Note_on_c, 9, 40, 111
5, 129960, Note_on_c, 9, 36, 111
5, 130080, Note_off_c, 9, 40, 80
5, 130080, Note_off_c, 9, 36, 80
5, 130080, Note_on_c, 9, 46, 111
5, 130080, Note_on_c, 9, 59, 111
5, 130200, Note_off_c, 9, 46, 80
5, 130200, Note_off_c, 9, 59, 80
5, 130200, Note_on_c, 9, 40, 111
5, 130320, Note_off_c, 9, 40, 80
5, 130320, Note_on_c, 9, 46, 111
5, 130320, Note_on_c, 9, 59, 111
5, 130320, Note_on_c, 9, 36, 111
5, 130440, Note_off_c, 9, 46, 80
5, 130440, Note_off_c, 9, 59, 80
5, 130440, Note_off_c, 9, 36, 80
5, 130440, Note_on_c, 9, 36, 111
5, 130560, Note_off_c, 9, 36, 80
5, 130560, Note_on_c, 9, 46, 111
5, 130560, Note_on_c, 9, 59, 111
5, 130560, Note_on_c, 9, 40, 111
5, 130800, Note_off_c, 9, 46, 80
5, 130800, Note_off_c, 9, 59, 80
5, 130800, Note_off_c, 9, 40, 80
5, 130800, Note_on_c, 9, 46, 111
5, 130800, Note_on_c, 9, 59, 111
5, 130800, Note_on_c, 9, 36, 111
5, 130920, Note_off_c, 9, 46, 80
5, 130920, Note_off_c, 9, 59, 80
5, 130920, Note_off_c, 9, 36, 80
5, 130920, Note_on_c, 9, 36, 111
5, 131040, Note_off_c, 9, 36, 80
5, 131040, Note_on_c, 9, 46, 111
5, 131040, Note_on_c, 9, 59, 111
5, 131040, Note_on_c, 9, 40, 111
5, 131160, Note_off_c, 9, 46, 80
5, 131160, Note_off_c, 9, 59, 80
5, 131160, Note_off_c, 9, 40, 80
5, 131160, Note_on_c, 9, 40, 111
5, 131160, Note_on_c, 9, 36, 111
5, 131280, Note_off_c, 9, 40, 80
5, 131280, Note_off_c, 9, 36, 80
5, 131280, Note_on_c, 9, 46, 111
5, 131280, Note_on_c, 9, 59, 111
5, 131400, Note_off_c, 9, 46, 80
5, 131400, Note_off_c, 9, 59, 80
5, 131400, Note_on_c, 9, 40, 111
5, 131520, Note_off_c, 9, 40, 80
5, 131520, Note_on_c, 9, 46, 111
5, 131520, Note_on_c, 9, 59, 111
5, 131520, Note_on_c, 9, 36, 111
5, 131640, Note_off_c, 9, 46, 80
5, 131640, Note_off_c, 9, 59, 80
5, 131640, Note_off_c, 9, 36, 80
5, 131640, Note_on_c, 9, 36, 111
5, 131760, Note_off_c, 9, 36, 80
5, 131760, Note_on_c, 9, 46, 111
5, 131760, Note_on_c, 9, 59, 111
5, 131760, Note_on_c, 9, 40, 111
5, 132000, Note_off_c, 9, 46, 80
5, 132000, Note_off_c, 9, 59, 80
5, 132000, Note_off_c, 9, 40, 80
5, 132000, Note_on_c, 9, 46, 111
5, 132000, Note_on_c, 9, 59, 111
5, 132000, Note_on_c, 9, 36, 111
5, 132120, Note_off_c, 9, 46, 80
5, 132120, Note_off_c, 9, 59, 80
5, 132120, Note_off_c, 9, 36, 80
5, 132120, Note_on_c, 9, 36, 111
5, 132240, Note_off_c, 9, 36, 80
5, 132240, Note_on_c, 9, 46, 111
5, 132240, Note_on_c, 9, 59, 111
5, 132240, Note_on_c, 9, 40, 111
5, 132360, Note_off_c, 9, 46, 80
5, 132360, Note_off_c, 9, 59, 80
5, 132360, Note_off_c, 9, 40, 80
5, 132360, Note_on_c, 9, 40, 111
5, 132360, Note_on_c, 9, 36, 111
5, 132480, Note_off_c, 9, 40, 80
5, 132480, Note_off_c, 9, 36, 80
5, 132480, Note_on_c, 9, 46, 111
5, 132480, Note_on_c, 9, 59, 111
5, 132600, Note_off_c, 9, 46, 80
5, 132600, Note_off_c, 9, 59, 80
5, 132600, Note_on_c, 9, 40, 111
5, 132720, Note_off_c, 9, 40, 80
5, 132720, Note_on_c, 9, 46, 111
5, 132720, Note_on_c, 9, 59, 111
5, 132720, Note_on_c, 9, 36, 111
5, 132840, Note_off_c, 9, 46, 80
5, 132840, Note_off_c, 9, 59, 80
5, 132840, Note_off_c, 9, 36, 80
5, 132840, Note_on_c, 9, 36, 111
5, 132960, Note_off_c, 9, 36, 80
5, 132960, Note_on_c, 9, 46, 111
5, 132960, Note_on_c, 9, 59, 111
5, 132960, Note_on_c, 9, 40, 111
5, 133200, Note_off_c, 9, 46, 80
5, 133200, Note_off_c, 9, 59, 80
5, 133200, Note_off_c, 9, 40, 80
5, 133200, Note_on_c, 9, 46, 111
5, 133200, Note_on_c, 9, 59, 111
5, 133200, Note_on_c, 9, 36, 111
5, 133320, Note_off_c, 9, 46, 80
5, 133320, Note_off_c, 9, 59, 80
5, 133320, Note_off_c, 9, 36, 80
5, 133320, Note_on_c, 9, 36, 111
5, 133440, Note_off_c, 9, 36, 80
5, 133440, Note_on_c, 9, 46, 111
5, 133440, Note_on_c, 9, 59, 111
5, 133440, Note_on_c, 9, 40, 111
5, 133560, Note_off_c, 9, 46, 80
5, 133560, Note_off_c, 9, 59, 80
5, 133560, Note_off_c, 9, 40, 80
5, 133560, Note_on_c, 9, 40, 111
5, 133560, Note_on_c, 9, 36, 111
5, 133680, Note_off_c, 9, 40, 80
5, 133680, Note_off_c, 9, 36, 80
5, 133680, Note_on_c, 9, 46, 111
5, 133680, Note_on_c, 9, 59, 111
5, 133800, Note_off_c, 9, 46, 80
5, 133800, Note_off_c, 9, 59, 80
5, 133800, Note_on_c, 9, 40, 111
5, 133920, Note_off_c, 9, 40, 80
5, 133920, Note_on_c, 9, 46, 111
5, 133920, Note_on_c, 9, 59, 111
5, 133920, Note_on_c, 9, 36, 111
5, 134040, Note_off_c, 9, 46, 80
5, 134040, Note_off_c, 9, 59, 80
5, 134040, Note_off_c, 9, 36, 80
5, 134040, Note_on_c, 9, 36, 111
5, 134160, Note_off_c, 9, 36, 80
5, 134160, Note_on_c, 9, 46, 111
5, 134160, Note_on_c, 9, 59, 111
5, 134160, Note_on_c, 9, 40, 111
5, 134400, Note_off_c, 9, 46, 80
5, 134400, Note_off_c, 9, 59, 80
5, 134400, Note_off_c, 9, 40, 80
5, 134400, Note_on_c, 9, 46, 111
5, 134400, Note_on_c, 9, 59, 111
5, 134400, Note_on_c, 9, 36, 111
5, 134520, Note_off_c, 9, 46, 80
5, 134520, Note_off_c, 9, 59, 80
5, 134520, Note_off_c, 9, 36, 80
5, 134520, Note_on_c, 9, 36, 111
5, 134640, Note_off_c, 9, 36, 80
5, 134640, Note_on_c, 9, 46, 111
5, 134640, Note_on_c, 9, 59, 111
5, 134640, Note_on_c, 9, 40, 111
5, 134760, Note_off_c, 9, 46, 80
5, 134760, Note_off_c, 9, 59, 80
5, 134760, Note_off_c, 9, 40, 80
5, 134760, Note_on_c, 9, 40, 111
5, 134760, Note_on_c, 9, 36, 111
5, 134880, Note_off_c, 9, 40, 80
5, 134880, Note_off_c, 9, 36, 80
5, 134880, Note_on_c, 9, 46, 111
5, 134880, Note_on_c, 9, 59, 111
5, 135000, Note_off_c, 9, 46, 80
5, 135000, Note_off_c, 9, 59, 80
5, 135000, Note_on_c, 9, 40, 111
5, 135120, Note_off_c, 9, 40, 80
5, 135120, Note_on_c, 9, 46, 111
5, 135120, Note_on_c, 9, 59, 111
5, 135120, Note_on_c, 9, 36, 111
5, 135240, Note_off_c, 9, 46, 80
5, 135240, Note_off_c, 9, 59, 80
5, 135240, Note_off_c, 9, 36, 80
5, 135240, Note_on_c, 9, 36, 111
5, 135360, Note_off_c, 9, 36, 80
5, 135360, Note_on_c, 9, 46, 111
5, 135360, Note_on_c, 9, 59, 111
5, 135360, Note_on_c, 9, 40, 111
5, 135600, Note_off_c, 9, 46, 80
5, 135600, Note_off_c, 9, 59, 80
5, 135600, Note_off_c, 9, 40, 80
5, 135600, Note_on_c, 9, 46, 111
5, 135600, Note_on_c, 9, 59, 111
5, 135600, Note_on_c, 9, 36, 111
5, 135720, Note_off_c, 9, 46, 80
5, 135720, Note_off_c, 9, 59, 80
5, 135720, Note_off_c, 9, 36, 80
5, 135720, Note_on_c, 9, 36, 111
5, 135840, Note_off_c, 9, 36, 80
5, 135840, Note_on_c, 9, 46, 111
5, 135840, Note_on_c, 9, 59, 111
5, 135840, Note_on_c, 9, 40, 111
5, 135960, Note_off_c, 9, 46, 80
5, 135960, Note_off_c, 9, 59, 80
5, 135960, Note_off_c, 9, 40, 80
5, 135960, Note_on_c, 9, 40, 111
5, 135960, Note_on_c, 9, 36, 111
5, 136080, Note_off_c, 9, 40, 80
5, 136080, Note_off_c, 9, 36, 80
5, 136080, Note_on_c, 9, 46, 111
5, 136080, Note_on_c, 9, 59, 111
5, 136200, Note_off_c, 9, 46, 80
5, 136200, Note_off_c, 9, 59, 80
5, 136200, Note_on_c, 9, 40, 111
5, 136320, Note_off_c, 9, 40, 80
5, 136320, Note_on_c, 9, 46, 111
5, 136320, Note_on_c, 9, 59, 111
5, 136320, Note_on_c, 9, 36, 111
5, 136440, Note_off_c, 9, 46, 80
5, 136440, Note_off_c, 9, 59, 80
5, 136440, Note_off_c, 9, 36, 80
5, 136440, Note_on_c, 9, 36, 111
5, 136560, Note_off_c, 9, 36, 80
5, 136560, Note_on_c, 9, 46, 111
5, 136560, Note_on_c, 9, 59, 111
5, 136560, Note_on_c, 9, 40, 111
5, 136800, Note_off_c, 9, 46, 80
5, 136800, Note_off_c, 9, 59, 80
5, 136800, Note_off_c, 9, 40, 80
5, 136800, Note_on_c, 9, 46, 111
5, 136800, Note_on_c, 9, 59, 111
5, 136800, Note_on_c, 9, 36, 111
5, 136920, Note_off_c, 9, 46, 80
5, 136920, Note_off_c, 9, 59, 80
5, 136920, Note_off_c, 9, 36, 80
5, 136920, Note_on_c, 9, 36, 111
5, 137040, Note_off_c, 9, 36, 80
5, 137040, Note_on_c, 9, 46, 111
5, 137040, Note_on_c, 9, 59, 111
5, 137040, Note_on_c, 9, 40, 111
5, 137160, Note_off_c, 9, 46, 80
5, 137160, Note_off_c, 9, 59, 80
5, 137160, Note_off_c, 9, 40, 80
5, 137160, Note_on_c, 9, 40, 111
5, 137160, Note_on_c, 9, 36, 111
5, 137280, Note_off_c, 9, 40, 80
5, 137280, Note_off_c, 9, 36, 80
5, 137280, Note_on_c, 9, 46, 111
5, 137280, Note_on_c, 9, 59, 111
5, 137400, Note_off_c, 9, 46, 80
5, 137400, Note_off_c, 9, 59, 80
5, 137400, Note_on_c, 9, 40, 111
5, 137520, Note_off_c, 9, 40, 80
5, 137520, Note_on_c, 9, 46, 111
5, 137520, Note_on_c, 9, 59, 111
5, 137520, Note_on_c, 9, 36, 111
5, 137640, Note_off_c, 9, 46, 80
5, 137640, Note_off_c, 9, 59, 80
5, 137640, Note_off_c, 9, 36, 80
5, 137640, Note_on_c, 9, 36, 111
5, 137760, Note_off_c, 9, 36, 80
5, 137760, Note_on_c, 9, 46, 111
5, 137760, Note_on_c, 9, 59, 111
5, 137760, Note_on_c, 9, 40, 111
5, 138000, Note_off_c, 9, 46, 80
5, 138000, Note_off_c, 9, 59, 80
5, 138000, Note_off_c, 9, 40, 80
5, 138000, Note_on_c, 9, 46, 111
5, 138000, Note_on_c, 9, 59, 111
5, 138000, Note_on_c, 9, 36, 111
5, 138120, Note_off_c, 9, 46, 80
5, 138120, Note_off_c, 9, 59, 80
5, 138120, Note_off_c, 9, 36, 80
5, 138120, Note_on_c, 9, 36, 111
5, 138240, Note_off_c, 9, 36, 80
5, 138240, Note_on_c, 9, 46, 111
5, 138240, Note_on_c, 9, 59, 111
5, 138240, Note_on_c, 9, 40, 111
5, 138360, Note_off_c, 9, 46, 80
5, 138360, Note_off_c, 9, 59, 80
5, 138360, Note_off_c, 9, 40, 80
5, 138360, Note_on_c, 9, 40, 111
5, 138360, Note_on_c, 9, 36, 111
5, 138480, Note_off_c, 9, 40, 80
5, 138480, Note_off_c, 9, 36, 80
5, 138480, Note_on_c, 9, 46, 111
5, 138480, Note_on_c, 9, 59, 111
5, 138600, Note_off_c, 9, 46, 80
5, 138600, Note_off_c, 9, 59, 80
5, 138600, Note_on_c, 9, 40, 111
5, 138720, Note_off_c, 9, 40, 80
5, 138720, Note_on_c, 9, 46, 111
5, 138720, Note_on_c, 9, 59, 111
5, 138720, Note_on_c, 9, 36, 111
5, 138840, Note_off_c, 9, 46, 80
5, 138840, Note_off_c, 9, 59, 80
5, 138840, Note_off_c, 9, 36, 80
5, 138840, Note_on_c, 9, 36, 111
5, 138960, Note_off_c, 9, 36, 80
5, 138960, Note_on_c, 9, 46, 111
5, 138960, Note_on_c, 9, 59, 111
5, 138960, Note_on_c, 9, 40, 111
5, 139200, Note_off_c, 9, 46, 80
5, 139200, Note_off_c, 9, 59, 80
5, 139200, Note_off_c, 9, 40, 80
5, 139200, Note_on_c, 9, 46, 111
5, 139200, Note_on_c, 9, 59, 111
5, 139200, Note_on_c, 9, 36, 111
5, 139320, Note_off_c, 9, 46, 80
5, 139320, Note_off_c, 9, 59, 80
5, 139320, Note_off_c, 9, 36, 80
5, 139320, Note_on_c, 9, 36, 111
5, 139440, Note_off_c, 9, 36, 80
5, 139440, Note_on_c, 9, 46, 111
5, 139440, Note_on_c, 9, 59, 111
5, 139440, Note_on_c, 9, 40, 111
5, 139560, Note_off_c, 9, 46, 80
5, 139560, Note_off_c, 9, 59, 80
5, 139560, Note_off_c, 9, 40, 80
5, 139560, Note_on_c, 9, 40, 111
5, 139560, Note_on_c, 9, 36, 111
5, 139680, Note_off_c, 9, 40, 80
5, 139680, Note_off_c, 9, 36, 80
5, 139680, Note_on_c, 9, 46, 111
5, 139680, Note_on_c, 9, 59, 111
5, 139800, Note_off_c, 9, 46, 80
5, 139800, Note_off_c, 9, 59, 80
5, 139800, Note_on_c, 9, 40, 111
5, 139920, Note_off_c, 9, 40, 80
5, 139920, Note_on_c, 9, 46, 111
5, 139920, Note_on_c, 9, 59, 111
5, 139920, Note_on_c, 9, 36, 111
5, 140040, Note_off_c, 9, 46, 80
5, 140040, Note_off_c, 9, 59, 80
5, 140040, Note_off_c, 9, 36, 80
5, 140040, Note_on_c, 9, 36, 111
5, 140160, Note_off_c, 9, 36, 80
5, 140160, Note_on_c, 9, 46, 111
5, 140160, Note_on_c, 9, 59, 111
5, 140160, Note_on_c, 9, 40, 111
5, 140400, Note_off_c, 9, 46, 80
5, 140400, Note_off_c, 9, 59, 80
5, 140400, Note_off_c, 9, 40, 80
5, 140400, Note_on_c, 9, 46, 111
5, 140400, Note_on_c, 9, 59, 111
5, 140400, Note_on_c, 9, 36, 111
5, 140520, Note_off_c, 9, 46, 80
5, 140520, Note_off_c, 9, 59, 80
5, 140520, Note_off_c, 9, 36, 80
5, 140520, Note_on_c, 9, 36, 111
5, 140640, Note_off_c, 9, 36, 80
5, 140640, Note_on_c, 9, 46, 111
5, 140640, Note_on_c, 9, 59, 111
5, 140640, Note_on_c, 9, 40, 111
5, 140760, Note_off_c, 9, 46, 80
5, 140760, Note_off_c, 9, 59, 80
5, 140760, Note_off_c, 9, 40, 80
5, 140760, Note_on_c, 9, 40, 111
5, 140760, Note_on_c, 9, 36, 111
5, 140880, Note_off_c, 9, 40, 80
5, 140880, Note_off_c, 9, 36, 80
5, 140880, Note_on_c, 9, 46, 111
5, 140880, Note_on_c, 9, 59, 111
5, 141000, Note_off_c, 9, 46, 80
5, 141000, Note_off_c, 9, 59, 80
5, 141000, Note_on_c, 9, 40, 111
5, 141120, Note_off_c, 9, 40, 80
5, 141120, Note_on_c, 9, 46, 111
5, 141120, Note_on_c, 9, 59, 111
5, 141120, Note_on_c, 9, 36, 111
5, 141240, Note_off_c, 9, 46, 80
5, 141240, Note_off_c, 9, 59, 80
5, 141240, Note_off_c, 9, 36, 80
5, 141240, Note_on_c, 9, 36, 111
5, 141360, Note_off_c, 9, 36, 80
5, 141360, Note_on_c, 9, 46, 111
5, 141360, Note_on_c, 9, 59, 111
5, 141360, Note_on_c, 9, 40, 111
5, 141600, Note_off_c, 9, 46, 80
5, 141600, Note_off_c, 9, 59, 80
5, 141600, Note_off_c, 9, 40, 80
5, 141600, Note_on_c, 9, 46, 111
5, 141600, Note_on_c, 9, 59, 111
5, 141600, Note_on_c, 9, 36, 111
5, 141720, Note_off_c, 9, 46, 80
5, 141720, Note_off_c, 9, 59, 80
5, 141720, Note_off_c, 9, 36, 80
5, 141720, Note_on_c, 9, 36, 111
5, 141840, Note_off_c, 9, 36, 80
5, 141840, Note_on_c, 9, 46, 111
5, 141840, Note_on_c, 9, 59, 111
5, 141840, Note_on_c, 9, 40, 111
5, 141960, Note_off_c, 9, 46, 80
5, 141960, Note_off_c, 9, 59, 80
5, 141960, Note_off_c, 9, 40, 80
5, 141960, Note_on_c, 9, 40, 111
5, 141960, Note_on_c, 9, 36, 111
5, 142080, Note_off_c, 9, 40, 80
5, 142080, Note_off_c, 9, 36, 80
5, 142080, Note_on_c, 9, 46, 111
5, 142080, Note_on_c, 9, 59, 111
5, 142200, Note_off_c, 9, 46, 80
5, 142200, Note_off_c, 9, 59, 80
5, 142200, Note_on_c, 9, 40, 111
5, 142320, Note_off_c, 9, 40, 80
5, 142320, Note_on_c, 9, 46, 111
5, 142320, Note_on_c, 9, 59, 111
5, 142320, Note_on_c, 9, 36, 111
5, 142440, Note_off_c, 9, 46, 80
5, 142440, Note_off_c, 9, 59, 80
5, 142440, Note_off_c, 9, 36, 80
5, 142440, Note_on_c, 9, 36, 111
5, 142560, Note_off_c, 9, 36, 80
5, 142560, Note_on_c, 9, 46, 111
5, 142560, Note_on_c, 9, 59, 111
5, 142560, Note_on_c, 9, 40, 111
5, 142800, Note_off_c, 9, 46, 80
5, 142800, Note_off_c, 9, 59, 80
5, 142800, Note_off_c, 9, 40, 80
5, 142800, Note_on_c, 9, 46, 111
5, 142800, Note_on_c, 9, 59, 111
5, 142800, Note_on_c, 9, 36, 111
5, 142920, Note_off_c, 9, 46, 80
5, 142920, Note_off_c, 9, 59, 80
5, 142920, Note_off_c, 9, 36, 80
5, 142920, Note_on_c, 9, 36, 111
5, 143040, Note_off_c, 9, 36, 80
5, 143040, Note_on_c, 9, 46, 111
5, 143040, Note_on_c, 9, 59, 111
5, 143040, Note_on_c, 9, 40, 111
5, 143160, Note_off_c, 9, 46, 80
5, 143160, Note_off_c, 9, 59, 80
5, 143160, Note_off_c, 9, 40, 80
5, 143160, Note_on_c, 9, 40, 111
5, 143160, Note_on_c, 9, 36, 111
5, 143280, Note_off_c, 9, 40, 80
5, 143280, Note_off_c, 9, 36, 80
5, 143280, Note_on_c, 9, 46, 111
5, 143280, Note_on_c, 9, 59, 111
5, 143400, Note_off_c, 9, 46, 80
5, 143400, Note_off_c, 9, 59, 80
5, 143400, Note_on_c, 9, 40, 111
5, 143520, Note_off_c, 9, 40, 80
5, 143520, Note_on_c, 9, 46, 111
5, 143520, Note_on_c, 9, 59, 111
5, 143520, Note_on_c, 9, 36, 111
5, 143640, Note_off_c, 9, 46, 80
5, 143640, Note_off_c, 9, 59, 80
5, 143640, Note_off_c, 9, 36, 80
5, 143640, Note_on_c, 9, 36, 111
5, 143760, Note_off_c, 9, 36, 80
5, 143760, Note_on_c, 9, 46, 111
5, 143760, Note_on_c, 9, 59, 111
5, 143760, Note_on_c, 9, 40, 111
5, 144000, Note_off_c, 9, 46, 80
5, 144000, Note_off_c, 9, 59, 80
5, 144000, Note_off_c, 9, 40, 80
5, 144000, Note_on_c, 9, 46, 111
5, 144000, Note_on_c, 9, 59, 111
5, 144000, Note_on_c, 9, 36, 111
5, 144120, Note_off_c, 9, 46, 80
5, 144120, Note_off_c, 9, 59, 80
5, 144120, Note_off_c, 9, 36, 80
5, 144120, Note_on_c, 9, 36, 111
5, 144240, Note_off_c, 9, 36, 80
5, 144240, Note_on_c, 9, 46, 111
5, 144240, Note_on_c, 9, 59, 111
5, 144240, Note_on_c, 9, 40, 111
5, 144360, Note_off_c, 9, 46, 80
5, 144360, Note_off_c, 9, 59, 80
5, 144360, Note_off_c, 9, 40, 80
5, 144360, Note_on_c, 9, 40, 111
5, 144360, Note_on_c, 9, 36, 111
5, 144480, Note_off_c, 9, 40, 80
5, 144480, Note_off_c, 9, 36, 80
5, 144480, Note_on_c, 9, 46, 111
5, 144480, Note_on_c, 9, 59, 111
5, 144600, Note_off_c, 9, 46, 80
5, 144600, Note_off_c, 9, 59, 80
5, 144600, Note_on_c, 9, 40, 111
5, 144720, Note_off_c, 9, 40, 80
5, 144720, Note_on_c, 9, 46, 111
5, 144720, Note_on_c, 9, 59, 111
5, 144720, Note_on_c, 9, 36, 111
5, 144840, Note_off_c, 9, 46, 80
5, 144840, Note_off_c, 9, 59, 80
5, 144840, Note_off_c, 9, 36, 80
5, 144840, Note_on_c, 9, 36, 111
5, 144960, Note_off_c, 9, 36, 80
5, 144960, Note_on_c, 9, 46, 111
5, 144960, Note_on_c, 9, 59, 111
5, 144960, Note_on_c, 9, 40, 111
5, 145200, Note_off_c, 9, 46, 80
5, 145200, Note_off_c, 9, 59, 80
5, 145200, Note_off_c, 9, 40, 80
5, 145200, Note_on_c, 9, 46, 111
5, 145200, Note_on_c, 9, 59, 111
5, 145200, Note_on_c, 9, 36, 111
5, 145320, Note_off_c, 9, 46, 80
5, 145320, Note_off_c, 9, 59, 80
5, 145320, Note_off_c, 9, 36, 80
5, 145320, Note_on_c, 9, 36, 111
5, 145440, Note_off_c, 9, 36, 80
5, 145440, Note_on_c, 9, 46, 111
5, 145440, Note_on_c, 9, 59, 111
5, 145440, Note_on_c, 9, 40, 111
5, 145560, Note_off_c, 9, 46, 80
5, 145560, Note_off_c, 9, 59, 80
5, 145560, Note_off_c, 9, 40, 80
5, 145560, Note_on_c, 9, 40, 111
5, 145560, Note_on_c, 9, 36, 111
5, 145680, Note_off_c, 9, 40, 80
5, 145680, Note_off_c, 9, 36, 80
5, 145680, Note_on_c, 9, 46, 111
5, 145680, Note_on_c, 9, 59, 111
5, 145800, Note_off_c, 9, 46, 80
5, 145800, Note_off_c, 9, 59, 80
5, 145800, Note_on_c, 9, 40, 111
5, 145920, Note_off_c, 9, 40, 80
5, 145920, Note_on_c, 9, 46, 111
5, 145920, Note_on_c, 9, 59, 111
5, 145920, Note_on_c, 9, 36, 111
5, 146040, Note_off_c, 9, 46, 80
5, 146040, Note_off_c, 9, 59, 80
5, 146040, Note_off_c, 9, 36, 80
5, 146040, Note_on_c, 9, 36, 111
5, 146160, Note_off_c, 9, 36, 80
5, 146160, Note_on_c, 9, 46, 111
5, 146160, Note_on_c, 9, 59, 111
5, 146160, Note_on_c, 9, 40, 111
5, 146400, Note_off_c, 9, 46, 80
5, 146400, Note_off_c, 9, 59, 80
5, 146400, Note_off_c, 9, 40, 80
5, 146400, Note_on_c, 9, 46, 111
5, 146400, Note_on_c, 9, 59, 111
5, 146400, Note_on_c, 9, 36, 111
5, 146520, Note_off_c, 9, 46, 80
5, 146520, Note_off_c, 9, 59, 80
5, 146520, Note_off_c, 9, 36, 80
5, 146520, Note_on_c, 9, 36, 111
5, 146640, Note_off_c, 9, 36, 80
5, 146640, Note_on_c, 9, 46, 111
5, 146640, Note_on_c, 9, 59, 111
5, 146640, Note_on_c, 9, 40, 111
5, 146760, Note_off_c, 9, 46, 80
5, 146760, Note_off_c, 9, 59, 80
5, 146760, Note_off_c, 9, 40, 80
5, 146760, Note_on_c, 9, 40, 111
5, 146760, Note_on_c, 9, 36, 111
5, 146880, Note_off_c, 9, 40, 80
5, 146880, Note_off_c, 9, 36, 80
5, 146880, Note_on_c, 9, 46, 111
5, 146880, Note_on_c, 9, 59, 111
5, 147000, Note_off_c, 9, 46, 80
5, 147000, Note_off_c, 9, 59, 80
5, 147000, Note_on_c, 9, 40, 111
5, 147120, Note_off_c, 9, 40, 80
5, 147120, Note_on_c, 9, 46, 111
5, 147120, Note_on_c, 9, 59, 111
5, 147120, Note_on_c, 9, 36, 111
5, 147240, Note_off_c, 9, 46, 80
5, 147240, Note_off_c, 9, 59, 80
5, 147240, Note_off_c, 9, 36, 80
5, 147240, Note_on_c, 9, 36, 111
5, 147360, Note_off_c, 9, 36, 80
5, 147360, Note_on_c, 9, 46, 111
5, 147360, Note_on_c, 9, 59, 111
5, 147360, Note_on_c, 9, 40, 111
5, 147600, Note_off_c, 9, 46, 80
5, 147600, Note_off_c, 9, 59, 80
5, 147600, Note_off_c, 9, 40, 80
5, 147600, Note_on_c, 9, 46, 111
5, 147600, Note_on_c, 9, 59, 111
5, 147600, Note_on_c, 9, 36, 111
5, 147720, Note_off_c, 9, 46, 80
5, 147720, Note_off_c, 9, 59, 80
5, 147720, Note_off_c, 9, 36, 80
5, 147720, Note_on_c, 9, 36, 111
5, 147840, Note_off_c, 9, 36, 80
5, 147840, Note_on_c, 9, 46, 111
5, 147840, Note_on_c, 9, 59, 111
5, 147840, Note_on_c, 9, 40, 111
5, 147960, Note_off_c, 9, 46, 80
5, 147960, Note_off_c, 9, 59, 80
5, 147960, Note_off_c, 9, 40, 80
5, 147960, Note_on_c, 9, 40, 111
5, 147960, Note_on_c, 9, 36, 111
5, 148080, Note_off_c, 9, 40, 80
5, 148080, Note_off_c, 9, 36, 80
5, 148080, Note_on_c, 9, 46, 111
5, 148080, Note_on_c, 9, 59, 111
5, 148200, Note_off_c, 9, 46, 80
5, 148200, Note_off_c, 9, 59, 80
5, 148200, Note_on_c, 9, 40, 111
5, 148320, Note_off_c, 9, 40, 80
5, 148320, Note_on_c, 9, 46, 111
5, 148320, Note_on_c, 9, 59, 111
5, 148320, Note_on_c, 9, 36, 111
5, 148440, Note_off_c, 9, 46, 80
5, 148440, Note_off_c, 9, 59, 80
5, 148440, Note_off_c, 9, 36, 80
5, 148440, Note_on_c, 9, 36, 111
5, 148560, Note_off_c, 9, 36, 80
5, 148560, Note_on_c, 9, 46, 111
5, 148560, Note_on_c, 9, 59, 111
5, 148560, Note_on_c, 9, 40, 111
5, 148800, Note_off_c, 9, 46, 80
5, 148800, Note_off_c, 9, 59, 80
5, 148800, Note_off_c, 9, 40, 80
5, 148800, Note_on_c, 9, 46, 111
5, 148800, Note_on_c, 9, 59, 111
5, 148800, Note_on_c, 9, 36, 111
5, 148920, Note_off_c, 9, 46, 80
5, 148920, Note_off_c, 9, 59, 80
5, 148920, Note_off_c, 9, 36, 80
5, 148920, Note_on_c, 9, 36, 111
5, 149040, Note_off_c, 9, 36, 80
5, 149040, Note_on_c, 9, 46, 111
5, 149040, Note_on_c, 9, 59, 111
5, 149040, Note_on_c, 9, 40, 111
5, 149160, Note_off_c, 9, 46, 80
5, 149160, Note_off_c, 9, 59, 80
5, 149160, Note_off_c, 9, 40, 80
5, 149160, Note_on_c, 9, 40, 111
5, 149160, Note_on_c, 9, 36, 111
5, 149280, Note_off_c, 9, 40, 80
5, 149280, Note_off_c, 9, 36, 80
5, 149280, Note_on_c, 9, 46, 111
5, 149280, Note_on_c, 9, 59, 111
5, 149400, Note_off_c, 9, 46, 80
5, 149400, Note_off_c, 9, 59, 80
5, 149400, Note_on_c, 9, 40, 111
5, 149520, Note_off_c, 9, 40, 80
5, 149520, Note_on_c, 9, 46, 111
5, 149520, Note_on_c, 9, 59, 111
5, 149520, Note_on_c, 9, 36, 111
5, 149640, Note_off_c, 9, 46, 80
5, 149640, Note_off_c, 9, 59, 80
5, 149640, Note_off_c, 9, 36, 80
5, 149640, Note_on_c, 9, 36, 111
5, 149760, Note_off_c, 9, 36, 80
5, 149760, Note_on_c, 9, 46, 111
5, 149760, Note_on_c, 9, 59, 111
5, 149760, Note_on_c, 9, 40, 111
5, 150000, Note_off_c, 9, 46, 80
5, 150000, Note_off_c, 9, 59, 80
5, 150000, Note_off_c, 9, 40, 80
5, 150000, Note_on_c, 9, 46, 111
5, 150000, Note_on_c, 9, 59, 111
5, 150000, Note_on_c, 9, 36, 111
5, 150120, Note_off_c, 9, 46, 80
5, 150120, Note_off_c, 9, 59, 80
5, 150120, Note_off_c, 9, 36, 80
5, 150120, Note_on_c, 9, 36, 111
5, 150240, Note_off_c, 9, 36, 80
5, 150240, Note_on_c, 9, 46, 111
5, 150240, Note_on_c, 9, 59, 111
5, 150240, Note_on_c, 9, 40, 111
5, 150360, Note_off_c, 9, 46, 80
5, 150360, Note_off_c, 9, 59, 80
5, 150360, Note_off_c, 9, 40, 80
5, 150360, Note_on_c, 9, 40, 111
5, 150360, Note_on_c, 9, 36, 111
5, 150480, Note_off_c, 9, 40, 80
5, 150480, Note_off_c, 9, 36, 80
5, 150480, Note_on_c, 9, 46, 111
5, 150480, Note_on_c, 9, 59, 111
5, 150600, Note_off_c, 9, 46, 80
5, 150600, Note_off_c, 9, 59, 80
5, 150600, Note_on_c, 9, 40, 111
5, 150720, Note_off_c, 9, 40, 80
5, 150720, Note_on_c, 9, 46, 111
5, 150720, Note_on_c, 9, 59, 111
5, 150720, Note_on_c, 9, 36, 111
5, 150840, Note_off_c, 9, 46, 80
5, 150840, Note_off_c, 9, 59, 80
5, 150840, Note_off_c, 9, 36, 80
5, 150840, Note_on_c, 9, 36, 111
5, 150960, Note_off_c, 9, 36, 80
5, 150960, Note_on_c, 9, 46, 111
5, 150960, Note_on_c, 9, 59, 111
5, 150960, Note_on_c, 9, 40, 111
5, 151200, Note_off_c, 9, 46, 80
5, 151200, Note_off_c, 9, 59, 80
5, 151200, Note_off_c, 9, 40, 80
5, 151200, Note_on_c, 9, 46, 111
5, 151200, Note_on_c, 9, 59, 111
5, 151200, Note_on_c, 9, 36, 111
5, 151320, Note_off_c, 9, 46, 80
5, 151320, Note_off_c, 9, 59, 80
5, 151320, Note_off_c, 9, 36, 80
5, 151320, Note_on_c, 9, 36, 111
5, 151440, Note_off_c, 9, 36, 80
5, 151440, Note_on_c, 9, 46, 111
5, 151440, Note_on_c, 9, 59, 111
5, 151440, Note_on_c, 9, 40, 111
5, 151560, Note_off_c, 9, 46, 80
5, 151560, Note_off_c, 9, 59, 80
5, 151560, Note_off_c, 9, 40, 80
5, 151560, Note_on_c, 9, 40, 111
5, 151560, Note_on_c, 9, 36, 111
5, 151680, Note_off_c, 9, 40, 80
5, 151680, Note_off_c, 9, 36, 80
5, 151680, Note_on_c, 9, 46, 111
5, 151680, Note_on_c, 9, 59, 111
5, 151800, Note_off_c, 9, 46, 80
5, 151800, Note_off_c, 9, 59, 80
5, 151800, Note_on_c, 9, 40, 111
5, 151920, Note_off_c, 9, 40, 80
5, 151920, Note_on_c, 9, 46, 111
5, 151920, Note_on_c, 9, 59, 111
5, 151920, Note_on_c, 9, 36, 111
5, 152040, Note_off_c, 9, 46, 80
5, 152040, Note_off_c, 9, 59, 80
5, 152040, Note_off_c, 9, 36, 80
5, 152040, Note_on_c, 9, 36, 111
5, 152160, Note_off_c, 9, 36, 80
5, 152160, Note_on_c, 9, 46, 111
5, 152160, Note_on_c, 9, 59, 111
5, 152160, Note_on_c, 9, 40, 111
5, 152400, Note_off_c, 9, 46, 80
5, 152400, Note_off_c, 9, 59, 80
5, 152400, Note_off_c, 9, 40, 80
5, 152400, Note_on_c, 9, 46, 111
5, 152400, Note_on_c, 9, 59, 111
5, 152400, Note_on_c, 9, 36, 111
5, 152520, Note_off_c, 9, 46, 80
5, 152520, Note_off_c, 9, 59, 80
5, 152520, Note_off_c, 9, 36, 80
5, 152520, Note_on_c, 9, 36, 111
5, 152640, Note_off_c, 9, 36, 80
5, 152640, Note_on_c, 9, 46, 111
5, 152640, Note_on_c, 9, 59, 111
5, 152640, Note_on_c, 9, 40, 111
5, 152760, Note_off_c, 9, 46, 80
5, 152760, Note_off_c, 9, 59, 80
5, 152760, Note_off_c, 9, 40, 80
5, 152760, Note_on_c, 9, 40, 111
5, 152760, Note_on_c, 9, 36, 111
5, 152880, Note_off_c, 9, 40, 80
5, 152880, Note_off_c, 9, 36, 80
5, 152880, Note_on_c, 9, 46, 111
5, 152880, Note_on_c, 9, 59, 111
5, 153000, Note_off_c, 9, 46, 80
5, 153000, Note_off_c, 9, 59, 80
5, 153000, Note_on_c, 9, 40, 111
5, 153120, Note_off_c, 9, 40, 80
5, 153120, Note_on_c, 9, 46, 111
5, 153120, Note_on_c, 9, 59, 111
5, 153120, Note_on_c, 9, 36, 111
5, 153240, Note_off_c, 9, 46, 80
5, 153240, Note_off_c, 9, 59, 80
5, 153240, Note_off_c, 9, 36, 80
5, 153240, Note_on_c, 9, 36, 111
5, 153360, Note_off_c, 9, 36, 80
5, 153360, Note_on_c, 9, 46, 111
5, 153360, Note_on_c, 9, 59, 111
5, 153360, Note_on_c, 9, 40, 111
5, 153600, Note_off_c, 9, 46, 80
5, 153600, Note_off_c, 9, 59, 80
5, 153600, Note_off_c, 9, 40, 80
5, 153600, Note_on_c, 9, 46, 111
5, 153600, Note_on_c, 9, 59, 111
5, 153600, Note_on_c, 9, 36, 111
5, 153720, Note_off_c, 9, 46, 80
5, 153720, Note_off_c, 9, 59, 80
5, 153720, Note_off_c, 9, 36, 80
5, 153720, Note_on_c, 9, 36, 111
5, 153840, Note_off_c, 9, 36, 80
5, 153840, Note_on_c, 9, 46, 111
5, 153840, Note_on_c, 9, 59, 111
5, 153840, Note_on_c, 9, 40, 111
5, 153960, Note_off_c, 9, 46, 80
5, 153960, Note_off_c, 9, 59, 80
5, 153960, Note_off_c, 9, 40, 80
5, 153960, Note_on_c, 9, 40, 111
5, 153960, Note_on_c, 9, 36, 111
5, 154080, Note_off_c, 9, 40, 80
5, 154080, Note_off_c, 9, 36, 80
5, 154080, Note_on_c, 9, 46, 111
5, 154080, Note_on_c, 9, 59, 111
5, 154200, Note_off_c, 9, 46, 80
5, 154200, Note_off_c, 9, 59, 80
5, 154200, Note_on_c, 9, 40, 111
5, 154320, Note_off_c, 9, 40, 80
5, 154320, Note_on_c, 9, 46, 111
5, 154320, Note_on_c, 9, 59, 111
5, 154320, Note_on_c, 9, 36, 111
5, 154440, Note_off_c, 9, 46, 80
5, 154440, Note_off_c, 9, 59, 80
5, 154440, Note_off_c, 9, 36, 80
5, 154440, Note_on_c, 9, 36, 111
5, 154560, Note_off_c, 9, 36, 80
5, 154560, Note_on_c, 9, 46, 111
5, 154560, Note_on_c, 9, 59, 111
5, 154560, Note_on_c, 9, 40, 111
5, 154800, Note_off_c, 9, 46, 80
5, 154800, Note_off_c, 9, 59, 80
5, 154800, Note_off_c, 9, 40, 80
5, 154800, Note_on_c, 9, 46, 111
5, 154800, Note_on_c, 9, 59, 111
5, 154800, Note_on_c, 9, 36, 111
5, 154920, Note_off_c, 9, 46, 80
5, 154920, Note_off_c, 9, 59, 80
5, 154920, Note_off_c, 9, 36, 80
5, 154920, Note_on_c, 9, 36, 111
5, 155040, Note_off_c, 9, 36, 80
5, 155040, Note_on_c, 9, 46, 111
5, 155040, Note_on_c, 9, 59, 111
5, 155040, Note_on_c, 9, 40, 111
5, 155160, Note_off_c, 9, 46, 80
5, 155160, Note_off_c, 9, 59, 80
5, 155160, Note_off_c, 9, 40, 80
5, 155160, Note_on_c, 9, 40, 111
5, 155160, Note_on_c, 9, 36, 111
5, 155280, Note_off_c, 9, 40, 80
5, 155280, Note_off_c, 9, 36, 80
5, 155280, Note_on_c, 9, 46, 111
5, 155280, Note_on_c, 9, 59, 111
5, 155400, Note_off_c, 9, 46, 80
5, 155400, Note_off_c, 9, 59, 80
5, 155400, Note_on_c, 9, 40, 111
5, 155520, Note_off_c, 9, 40, 80
5, 155520, Note_on_c, 9, 46, 111
5, 155520, Note_on_c, 9, 59, 111
5, 155520, Note_on_c, 9, 36, 111
5, 155640, Note_off_c, 9, 46, 80
5, 155640, Note_off_c, 9, 59, 80
5, 155640, Note_off_c, 9, 36, 80
5, 155640, Note_on_c, 9, 36, 111
5, 155760, Note_off_c, 9, 36, 80
5, 155760, Note_on_c, 9, 46, 111
5, 155760, Note_on_c, 9, 59, 111
5, 155760, Note_on_c, 9, 40, 111
5, 156000, Note_off_c, 9, 46, 80
5, 156000, Note_off_c, 9, 59, 80
5, 156000, Note_off_c, 9, 40, 80
5, 156000, Note_on_c, 9, 36, 127
5, 156240, Note_off_c, 9, 36, 80
5, 156480, Note_on_c, 9, 40, 127
5, 156720, Note_off_c, 9, 40, 80
5, 156960, Note_on_c, 9, 40, 127
5, 157200, Note_off_c, 9, 40, 80
5, 157200, Note_on_c, 9, 40, 127
5, 157440, Note_off_c, 9, 40, 80
5, 157680, Note_on_c, 9, 40, 127
5, 157920, Note_off_c, 9, 40, 80
5, 157920, Note_on_c, 9, 45, 127
5, 157920, Note_on_c, 9, 36, 127
5, 158040, Note_off_c, 9, 45, 80
5, 158040, Note_off_c, 9, 36, 80
5, 158040, Note_on_c, 9, 45, 127
5, 158160, Note_off_c, 9, 45, 80
5, 158160, Note_on_c, 9, 45, 127
5, 158160, Note_on_c, 9, 36, 127
5, 158280, Note_off_c, 9, 45, 80
5, 158280, Note_off_c, 9, 36, 80
5, 158280, Note_on_c, 9, 45, 127
5, 158400, Note_off_c, 9, 45, 80
5, 158400, Note_on_c, 9, 46, 111
5, 158400, Note_on_c, 9, 59, 111
5, 158400, Note_on_c, 9, 36, 111
5, 158520, Note_off_c, 9, 46, 80
5, 158520, Note_off_c, 9, 59, 80
5, 158520, Note_off_c, 9, 36, 80
5, 158520, Note_on_c, 9, 36, 111
5, 158640, Note_off_c, 9, 36, 80
5, 158640, Note_on_c, 9, 46, 111
5, 158640, Note_on_c, 9, 59, 111
5, 158640, Note_on_c, 9, 40, 111
5, 158760, Note_off_c, 9, 46, 80
5, 158760, Note_off_c, 9, 59, 80
5, 158760, Note_off_c, 9, 40, 80
5, 158760, Note_on_c, 9, 40, 111
5, 158760, Note_on_c, 9, 36, 111
5, 158880, Note_off_c, 9, 40, 80
5, 158880, Note_off_c, 9, 36, 80
5, 158880, Note_on_c, 9, 46, 111
5, 158880, Note_on_c, 9, 59, 111
5, 159000, Note_off_c, 9, 46, 80
5, 159000, Note_off_c, 9, 59, 80
5, 159000, Note_on_c, 9, 40, 111
5, 159120, Note_off_c, 9, 40, 80
5, 159120, Note_on_c, 9, 46, 111
5, 159120, Note_on_c, 9, 59, 111
5, 159120, Note_on_c, 9, 36, 111
5, 159240, Note_off_c, 9, 46, 80
5, 159240, Note_off_c, 9, 59, 80
5, 159240, Note_off_c, 9, 36, 80
5, 159240, Note_on_c, 9, 36, 111
5, 159360, Note_off_c, 9, 36, 80
5, 159360, Note_on_c, 9, 46, 111
5, 159360, Note_on_c, 9, 59, 111
5, 159360, Note_on_c, 9, 40, 111
5, 159600, Note_off_c, 9, 46, 80
5, 159600, Note_off_c, 9, 59, 80
5, 159600, Note_off_c, 9, 40, 80
5, 159600, Note_on_c, 9, 46, 111
5, 159600, Note_on_c, 9, 59, 111
5, 159600, Note_on_c, 9, 36, 111
5, 159720, Note_off_c, 9, 46, 80
5, 159720, Note_off_c, 9, 59, 80
5, 159720, Note_off_c, 9, 36, 80
5, 159720, Note_on_c, 9, 36, 111
5, 159840, Note_off_c, 9, 36, 80
5, 159840, Note_on_c, 9, 46, 111
5, 159840, Note_on_c, 9, 59, 111
5, 159840, Note_on_c, 9, 40, 111
5, 159960, Note_off_c, 9, 46, 80
5, 159960, Note_off_c, 9, 59, 80
5, 159960, Note_off_c, 9, 40, 80
5, 159960, Note_on_c, 9, 40, 111
5, 159960, Note_on_c, 9, 36, 111
5, 160080, Note_off_c, 9, 40, 80
5, 160080, Note_off_c, 9, 36, 80
5, 160080, Note_on_c, 9, 46, 111
5, 160080, Note_on_c, 9, 59, 111
5, 160200, Note_off_c, 9, 46, 80
5, 160200, Note_off_c, 9, 59, 80
5, 160200, Note_on_c, 9, 40, 111
5, 160320, Note_off_c, 9, 40, 80
5, 160320, Note_on_c, 9, 46, 111
5, 160320, Note_on_c, 9, 59, 111
5, 160320, Note_on_c, 9, 36, 111
5, 160440, Note_off_c, 9, 46, 80
5, 160440, Note_off_c, 9, 59, 80
5, 160440, Note_off_c, 9, 36, 80
5, 160440, Note_on_c, 9, 36, 111
5, 160560, Note_off_c, 9, 36, 80
5, 160560, Note_on_c, 9, 46, 111
5, 160560, Note_on_c, 9, 59, 111
5, 160560, Note_on_c, 9, 40, 111
5, 160800, Note_off_c, 9, 46, 80
5, 160800, Note_off_c, 9, 59, 80
5, 160800, Note_off_c, 9, 40, 80
5, 160800, Note_on_c, 9, 46, 95
5, 160800, Note_on_c, 9, 59, 95
5, 160800, Note_on_c, 9, 36, 95
5, 160920, Note_off_c, 9, 46, 80
5, 160920, Note_off_c, 9, 59, 80
5, 160920, Note_off_c, 9, 36, 80
5, 161040, Note_on_c, 9, 46, 95
5, 161040, Note_on_c, 9, 59, 95
5, 161040, Note_on_c, 9, 40, 95
5, 161160, Note_off_c, 9, 46, 80
5, 161160, Note_off_c, 9, 59, 80
5, 161160, Note_off_c, 9, 40, 80
5, 161160, Note_on_c, 9, 40, 95
5, 161280, Note_off_c, 9, 40, 80
5, 161280, Note_on_c, 9, 46, 95
5, 161280, Note_on_c, 9, 59, 95
5, 161400, Note_off_c, 9, 46, 80
5, 161400, Note_off_c, 9, 59, 80
5, 161400, Note_on_c, 9, 40, 95
5, 161520, Note_off_c, 9, 40, 80
5, 161520, Note_on_c, 9, 46, 95
5, 161520, Note_on_c, 9, 59, 95
5, 161640, Note_off_c, 9, 46, 80
5, 161640, Note_off_c, 9, 59, 80
5, 161760, Note_on_c, 9, 46, 95
5, 161760, Note_on_c, 9, 59, 95
5, 161760, Note_on_c, 9, 40, 95
5, 162000, Note_off_c, 9, 46, 80
5, 162000, Note_off_c, 9, 59, 80
5, 162000, Note_off_c, 9, 40, 80
5, 162000, Note_on_c, 9, 46, 95
5, 162000, Note_on_c, 9, 59, 95
5, 162000, Note_on_c, 9, 36, 95
5, 162120, Note_off_c, 9, 46, 80
5, 162120, Note_off_c, 9, 59, 80
5, 162120, Note_off_c, 9, 36, 80
5, 162240, Note_on_c, 9, 46, 95
5, 162240, Note_on_c, 9, 59, 95
5, 162240, Note_on_c, 9, 40, 95
5, 162360, Note_off_c, 9, 46, 80
5, 162360, Note_off_c, 9, 59, 80
5, 162360, Note_off_c, 9, 40, 80
5, 162360, Note_on_c, 9, 40, 95
5, 162480, Note_off_c, 9, 40, 80
5, 162480, Note_on_c, 9, 46, 95
5, 162480, Note_on_c, 9, 59, 95
5, 162600, Note_off_c, 9, 46, 80
5, 162600, Note_off_c, 9, 59, 80
5, 162600, Note_on_c, 9, 40, 95
5, 162720, Note_off_c, 9, 40, 80
5, 162720, Note_on_c, 9, 46, 95
5, 162720, Note_on_c, 9, 59, 95
5, 162840, Note_off_c, 9, 46, 80
5, 162840, Note_off_c, 9, 59, 80
5, 162960, Note_on_c, 9, 46, 95
5, 162960, Note_on_c, 9, 59, 95
5, 162960, Note_on_c, 9, 40, 95
5, 163200, Note_off_c, 9, 46, 80
5, 163200, Note_off_c, 9, 59, 80
5, 163200, Note_off_c, 9, 40, 80
5, 163200, Note_on_c, 9, 46, 95
5, 163200, Note_on_c, 9, 59, 95
5, 163200, Note_on_c, 9, 40, 95
5, 163200, Note_on_c, 9, 36, 95
5, 163320, Note_off_c, 9, 46, 80
5, 163320, Note_off_c, 9, 59, 80
5, 163320, Note_off_c, 9, 40, 80
5, 163320, Note_off_c, 9, 36, 80
5, 163320, Note_on_c, 9, 40, 95
5, 163320, Note_on_c, 9, 36, 95
5, 163440, Note_off_c, 9, 40, 80
5, 163440, Note_off_c, 9, 36, 80
5, 163440, Note_on_c, 9, 46, 95
5, 163440, Note_on_c, 9, 59, 95
5, 163560, Note_off_c, 9, 46, 80
5, 163560, Note_off_c, 9, 59, 80
5, 163560, Note_on_c, 9, 40, 95
5, 163560, Note_on_c, 9, 36, 95
5, 163680, Note_off_c, 9, 40, 80
5, 163680, Note_off_c, 9, 36, 80
5, 163680, Note_on_c, 9, 46, 95
5, 163680, Note_on_c, 9, 59, 95
5, 163800, Note_off_c, 9, 46, 80
5, 163800, Note_off_c, 9, 59, 80
5, 163800, Note_on_c, 9, 40, 95
5, 163920, Note_off_c, 9, 40, 80
5, 163920, Note_on_c, 9, 46, 95
5, 163920, Note_on_c, 9, 59, 95
5, 163920, Note_on_c, 9, 36, 95
5, 164040, Note_off_c, 9, 46, 80
5, 164040, Note_off_c, 9, 59, 80
5, 164040, Note_off_c, 9, 36, 80
5, 164040, Note_on_c, 9, 36, 95
5, 164160, Note_off_c, 9, 36, 80
5, 164160, Note_on_c, 9, 46, 95
5, 164160, Note_on_c, 9, 59, 95
5, 164160, Note_on_c, 9, 40, 95
5, 164400, Note_off_c, 9, 46, 80
5, 164400, Note_off_c, 9, 59, 80
5, 164400, Note_off_c, 9, 40, 80
5, 164400, Note_on_c, 9, 46, 95
5, 164400, Note_on_c, 9, 59, 95
5, 164400, Note_on_c, 9, 36, 95
5, 164520, Note_off_c, 9, 46, 80
5, 164520, Note_off_c, 9, 59, 80
5, 164520, Note_off_c, 9, 36, 80
5, 164520, Note_on_c, 9, 36, 95
5, 164640, Note_off_c, 9, 36, 80
5, 164640, Note_on_c, 9, 46, 95
5, 164640, Note_on_c, 9, 59, 95
5, 164640, Note_on_c, 9, 40, 95
5, 164760, Note_off_c, 9, 46, 80
5, 164760, Note_off_c, 9, 59, 80
5, 164760, Note_off_c, 9, 40, 80
5, 164760, Note_on_c, 9, 40, 95
5, 164760, Note_on_c, 9, 36, 95
5, 164880, Note_off_c, 9, 40, 80
5, 164880, Note_off_c, 9, 36, 80
5, 164880, Note_on_c, 9, 46, 95
5, 164880, Note_on_c, 9, 59, 95
5, 165000, Note_off_c, 9, 46, 80
5, 165000, Note_off_c, 9, 59, 80
5, 165000, Note_on_c, 9, 40, 95
5, 165120, Note_off_c, 9, 40, 80
5, 165120, Note_on_c, 9, 46, 95
5, 165120, Note_on_c, 9, 59, 95
5, 165120, Note_on_c, 9, 36, 95
5, 165240, Note_off_c, 9, 46, 80
5, 165240, Note_off_c, 9, 59, 80
5, 165240, Note_off_c, 9, 36, 80
5, 165240, Note_on_c, 9, 36, 95
5, 165360, Note_off_c, 9, 36, 80
5, 165360, Note_on_c, 9, 46, 95
5, 165360, Note_on_c, 9, 59, 95
5, 165360, Note_on_c, 9, 40, 95
5, 165600, Note_off_c, 9, 46, 80
5, 165600, Note_off_c, 9, 59, 80
5, 165600, Note_off_c, 9, 40, 80
5, 165600, Note_on_c, 9, 46, 95
5, 165600, Note_on_c, 9, 59, 95
5, 165600, Note_on_c, 9, 36, 95
5, 165720, Note_off_c, 9, 46, 80
5, 165720, Note_off_c, 9, 59, 80
5, 165720, Note_off_c, 9, 36, 80
5, 165840, Note_on_c, 9, 46, 95
5, 165840, Note_on_c, 9, 59, 95
5, 165840, Note_on_c, 9, 40, 95
5, 165960, Note_off_c, 9, 46, 80
5, 165960, Note_off_c, 9, 59, 80
5, 165960, Note_off_c, 9, 40, 80
5, 165960, Note_on_c, 9, 40, 95
5, 166080, Note_off_c, 9, 40, 80
5, 166080, Note_on_c, 9, 46, 95
5, 166080, Note_on_c, 9, 59, 95
5, 166200, Note_off_c, 9, 46, 80
5, 166200, Note_off_c, 9, 59, 80
5, 166200, Note_on_c, 9, 40, 95
5, 166320, Note_off_c, 9, 40, 80
5, 166320, Note_on_c, 9, 46, 95
5, 166320, Note_on_c, 9, 59, 95
5, 166440, Note_off_c, 9, 46, 80
5, 166440, Note_off_c, 9, 59, 80
5, 166560, Note_on_c, 9, 46, 95
5, 166560, Note_on_c, 9, 59, 95
5, 166560, Note_on_c, 9, 40, 95
5, 166800, Note_off_c, 9, 46, 80
5, 166800, Note_off_c, 9, 59, 80
5, 166800, Note_off_c, 9, 40, 80
5, 166800, Note_on_c, 9, 46, 95
5, 166800, Note_on_c, 9, 59, 95
5, 166800, Note_on_c, 9, 36, 95
5, 166920, Note_off_c, 9, 46, 80
5, 166920, Note_off_c, 9, 59, 80
5, 166920, Note_off_c, 9, 36, 80
5, 167040, Note_on_c, 9, 46, 95
5, 167040, Note_on_c, 9, 59, 95
5, 167040, Note_on_c, 9, 40, 95
5, 167160, Note_off_c, 9, 46, 80
5, 167160, Note_off_c, 9, 59, 80
5, 167160, Note_off_c, 9, 40, 80
5, 167160, Note_on_c, 9, 40, 95
5, 167280, Note_off_c, 9, 40, 80
5, 167280, Note_on_c, 9, 46, 95
5, 167280, Note_on_c, 9, 59, 95
5, 167400, Note_off_c, 9, 46, 80
5, 167400, Note_off_c, 9, 59, 80
5, 167400, Note_on_c, 9, 40, 95
5, 167520, Note_off_c, 9, 40, 80
5, 167520, Note_on_c, 9, 46, 95
5, 167520, Note_on_c, 9, 59, 95
5, 167640, Note_off_c, 9, 46, 80
5, 167640, Note_off_c, 9, 59, 80
5, 167760, Note_on_c, 9, 46, 95
5, 167760, Note_on_c, 9, 59, 95
5, 167760, Note_on_c, 9, 40, 95
5, 168000, Note_off_c, 9, 46, 80
5, 168000, Note_off_c, 9, 59, 80
5, 168000, Note_off_c, 9, 40, 80
5, 168000, Note_on_c, 9, 46, 95
5, 168000, Note_on_c, 9, 59, 95
5, 168000, Note_on_c, 9, 36, 95
5, 168120, Note_off_c, 9, 46, 80
5, 168120, Note_off_c, 9, 59, 80
5, 168120, Note_off_c, 9, 36, 80
5, 168240, Note_on_c, 9, 46, 95
5, 168240, Note_on_c, 9, 59, 95
5, 168240, Note_on_c, 9, 40, 95
5, 168360, Note_off_c, 9, 46, 80
5, 168360, Note_off_c, 9, 59, 80
5, 168360, Note_off_c, 9, 40, 80
5, 168360, Note_on_c, 9, 40, 95
5, 168480, Note_off_c, 9, 40, 80
5, 168480, Note_on_c, 9, 46, 95
5, 168480, Note_on_c, 9, 59, 95
5, 168600, Note_off_c, 9, 46, 80
5, 168600, Note_off_c, 9, 59, 80
5, 168600, Note_on_c, 9, 40, 95
5, 168720, Note_off_c, 9, 40, 80
5, 168720, Note_on_c, 9, 46, 95
5, 168720, Note_on_c, 9, 59, 95
5, 168840, Note_off_c, 9, 46, 80
5, 168840, Note_off_c, 9, 59, 80
5, 168960, Note_on_c, 9, 46, 95
5, 168960, Note_on_c, 9, 59, 95
5, 168960, Note_on_c, 9, 40, 95
5, 169200, Note_off_c, 9, 46, 80
5, 169200, Note_off_c, 9, 59, 80
5, 169200, Note_off_c, 9, 40, 80
5, 169200, Note_on_c, 9, 46, 95
5, 169200, Note_on_c, 9, 59, 95
5, 169200, Note_on_c, 9, 36, 95
5, 169320, Note_off_c, 9, 46, 80
5, 169320, Note_off_c, 9, 59, 80
5, 169320, Note_off_c, 9, 36, 80
5, 169440, Note_on_c, 9, 46, 95
5, 169440, Note_on_c, 9, 59, 95
5, 169440, Note_on_c, 9, 40, 95
5, 169560, Note_off_c, 9, 46, 80
5, 169560, Note_off_c, 9, 59, 80
5, 169560, Note_off_c, 9, 40, 80
5, 169560, Note_on_c, 9, 40, 95
5, 169680, Note_off_c, 9, 40, 80
5, 169680, Note_on_c, 9, 46, 95
5, 169680, Note_on_c, 9, 59, 95
5, 169800, Note_off_c, 9, 46, 80
5, 169800, Note_off_c, 9, 59, 80
5, 169800, Note_on_c, 9, 40, 95
5, 169920, Note_off_c, 9, 40, 80
5, 169920, Note_on_c, 9, 46, 95
5, 169920, Note_on_c, 9, 59, 95
5, 170040, Note_off_c, 9, 46, 80
5, 170040, Note_off_c, 9, 59, 80
5, 170160, Note_on_c, 9, 46, 95
5, 170160, Note_on_c, 9, 59, 95
5, 170160, Note_on_c, 9, 40, 95
5, 170400, Note_off_c, 9, 46, 80
5, 170400, Note_off_c, 9, 59, 80
5, 170400, Note_off_c, 9, 40, 80
5, 170400, Note_on_c, 9, 46, 95
5, 170400, Note_on_c, 9, 59, 95
5, 170400, Note_on_c, 9, 40, 95
5, 170400, Note_on_c, 9, 36, 95
5, 170520, Note_off_c, 9, 46, 80
5, 170520, Note_off_c, 9, 59, 80
5, 170520, Note_off_c, 9, 40, 80
5, 170520, Note_off_c, 9, 36, 80
5, 170520, Note_on_c, 9, 40, 95
5, 170520, Note_on_c, 9, 36, 95
5, 170640, Note_off_c, 9, 40, 80
5, 170640, Note_off_c, 9, 36, 80
5, 170640, Note_on_c, 9, 46, 95
5, 170640, Note_on_c, 9, 59, 95
5, 170760, Note_off_c, 9, 46, 80
5, 170760, Note_off_c, 9, 59, 80
5, 170760, Note_on_c, 9, 40, 95
5, 170760, Note_on_c, 9, 36, 95
5, 170880, Note_off_c, 9, 40, 80
5, 170880, Note_off_c, 9, 36, 80
5, 170880, Note_on_c, 9, 46, 95
5, 170880, Note_on_c, 9, 59, 95
5, 171000, Note_off_c, 9, 46, 80
5, 171000, Note_off_c, 9, 59, 80
5, 171000, Note_on_c, 9, 40, 95
5, 171120, Note_off_c, 9, 40, 80
5, 171120, Note_on_c, 9, 46, 95
5, 171120, Note_on_c, 9, 59, 95
5, 171120, Note_on_c, 9, 36, 95
5, 171240, Note_off_c, 9, 46, 80
5, 171240, Note_off_c, 9, 59, 80
5, 171240, Note_off_c, 9, 36, 80
5, 171240, Note_on_c, 9, 36, 95
5, 171360, Note_off_c, 9, 36, 80
5, 171360, Note_on_c, 9, 46, 95
5, 171360, Note_on_c, 9, 59, 95
5, 171360, Note_on_c, 9, 40, 95
5, 171600, Note_off_c, 9, 46, 80
5, 171600, Note_off_c, 9, 59, 80
5, 171600, Note_off_c, 9, 40, 80
5, 171600, Note_on_c, 9, 46, 95
5, 171600, Note_on_c, 9, 59, 95
5, 171600, Note_on_c, 9, 36, 95
5, 171720, Note_off_c, 9, 46, 80
5, 171720, Note_off_c, 9, 59, 80
5, 171720, Note_off_c, 9, 36, 80
5, 171720, Note_on_c, 9, 36, 95
5, 171840, Note_off_c, 9, 36, 80
5, 171840, Note_on_c, 9, 46, 95
5, 171840, Note_on_c, 9, 59, 95
5, 171840, Note_on_c, 9, 40, 95
5, 171960, Note_off_c, 9, 46, 80
5, 171960, Note_off_c, 9, 59, 80
5, 171960, Note_off_c, 9, 40, 80
5, 171960, Note_on_c, 9, 40, 95
5, 171960, Note_on_c, 9, 36, 95
5, 172080, Note_off_c, 9, 40, 80
5, 172080, Note_off_c, 9, 36, 80
5, 172080, Note_on_c, 9, 46, 95
5, 172080, Note_on_c, 9, 59, 95
5, 172200, Note_off_c, 9, 46, 80
5, 172200, Note_off_c, 9, 59, 80
5, 172200, Note_on_c, 9, 40, 95
5, 172320, Note_off_c, 9, 40, 80
5, 172320, Note_on_c, 9, 46, 95
5, 172320, Note_on_c, 9, 59, 95
5, 172320, Note_on_c, 9, 36, 95
5, 172440, Note_off_c, 9, 46, 80
5, 172440, Note_off_c, 9, 59, 80
5, 172440, Note_off_c, 9, 36, 80
5, 172440, Note_on_c, 9, 36, 95
5, 172560, Note_off_c, 9, 36, 80
5, 172560, Note_on_c, 9, 46, 95
5, 172560, Note_on_c, 9, 59, 95
5, 172560, Note_on_c, 9, 40, 95
5, 172800, Note_off_c, 9, 46, 80
5, 172800, Note_off_c, 9, 59, 80
5, 172800, Note_off_c, 9, 40, 80
5, 172800, Note_on_c, 9, 59, 63
5, 172800, Note_on_c, 9, 36, 63
5, 174720, Note_off_c, 9, 59, 80
5, 174720, Note_off_c, 9, 36, 80
5, 174720, End_track
6, 0, Start_track
6, 0, Title_t, "Phil Selway"
6, 0, Control_c, 9, 100, 0
6, 0, Control_c, 9, 101, 0
6, 0, Control_c, 9, 6, 12
6, 0, Pitch_bend_c, 9, 8192
6, 0, Control_c, 9, 101, 0
6, 0, Control_c, 9, 100, 1
6, 0, Control_c, 9, 6, 64
6, 0, Control_c, 9, 38, 0
6, 0, Control_c, 9, 101, 127
6, 0, Control_c, 9, 100, 127
6, 0, Program_c, 9, 0
6, 0, Control_c, 9, 0, 0
6, 0, Control_c, 9, 7, 96
6, 0, Control_c, 9, 10, 64
6, 0, Control_c, 9, 93, 0
6, 0, Control_c, 9, 91, 0
6, 0, Control_c, 9, 92, 0
6, 0, Control_c, 9, 95, 0
6, 0, Note_on_c, 9, 42, 79
6, 0, Note_on_c, 9, 39, 47
6, 60, Note_off_c, 9, 42, 80
6, 60, Note_off_c, 9, 39, 80
6, 60, Note_on_c, 9, 42, 79
6, 120, Note_off_c, 9, 42, 80
6, 120, Note_on_c, 9, 42, 79
6, 240, Note_off_c, 9, 42, 80
6, 240, Note_on_c, 9, 39, 127
6, 360, Note_off_c, 9, 39, 80
6, 360, Note_on_c, 9, 42, 79
6, 480, Note_off_c, 9, 42, 80
6, 480, Note_on_c, 9, 42, 79
6, 480, Note_on_c, 9, 39, 111
6, 540, Note_off_c, 9, 42, 80
6, 540, Note_off_c, 9, 39, 80
6, 540, Note_on_c, 9, 42, 79
6, 600, Note_off_c, 9, 42, 80
6, 600, Note_on_c, 9, 42, 79
6, 660, Note_off_c, 9, 42, 80
6, 660, Note_on_c, 9, 42, 79
6, 720, Note_off_c, 9, 42, 80
6, 720, Note_on_c, 9, 42, 79
6, 720, Note_on_c, 9, 39, 111
6, 840, Note_off_c, 9, 42, 80
6, 840, Note_off_c, 9, 39, 80
6, 840, Note_on_c, 9, 42, 79
6, 960, Note_off_c, 9, 42, 80
6, 960, Note_on_c, 9, 42, 79
6, 960, Note_on_c, 9, 39, 127
6, 1200, Note_off_c, 9, 42, 80
6, 1200, Note_off_c, 9, 39, 80
6, 1200, Note_on_c, 9, 42, 79
6, 1200, Note_on_c, 9, 39, 47
6, 1260, Note_off_c, 9, 42, 80
6, 1260, Note_off_c, 9, 39, 80
6, 1260, Note_on_c, 9, 42, 79
6, 1320, Note_off_c, 9, 42, 80
6, 1320, Note_on_c, 9, 42, 79
6, 1440, Note_off_c, 9, 42, 80
6, 1440, Note_on_c, 9, 39, 127
6, 1560, Note_off_c, 9, 39, 80
6, 1560, Note_on_c, 9, 42, 79
6, 1680, Note_off_c, 9, 42, 80
6, 1680, Note_on_c, 9, 42, 79
6, 1740, Note_off_c, 9, 42, 80
6, 1740, Note_on_c, 9, 42, 79
6, 1800, Note_off_c, 9, 42, 80
6, 1800, Note_on_c, 9, 42, 79
6, 1800, Note_on_c, 9, 39, 127
6, 1860, Note_off_c, 9, 42, 80
6, 1860, Note_off_c, 9, 39, 80
6, 1860, Note_on_c, 9, 42, 79
6, 1980, Note_off_c, 9, 42, 80
6, 1980, Note_on_c, 9, 42, 79
6, 2040, Note_off_c, 9, 42, 80
6, 2040, Note_on_c, 9, 42, 127
6, 2160, Note_off_c, 9, 42, 80
6, 2160, Note_on_c, 9, 42, 127
6, 2160, Note_on_c, 9, 39, 127
6, 2280, Note_off_c, 9, 42, 80
6, 2280, Note_off_c, 9, 39, 80
6, 2280, Note_on_c, 9, 42, 79
6, 2400, Note_off_c, 9, 42, 80
6, 2400, Note_on_c, 9, 42, 79
6, 2400, Note_on_c, 9, 39, 47
6, 2460, Note_off_c, 9, 42, 80
6, 2460, Note_off_c, 9, 39, 80
6, 2460, Note_on_c, 9, 42, 79
6, 2520, Note_off_c, 9, 42, 80
6, 2520, Note_on_c, 9, 42, 79
6, 2640, Note_off_c, 9, 42, 80
6, 2640, Note_on_c, 9, 39, 127
6, 2760, Note_off_c, 9, 39, 80
6, 2760, Note_on_c, 9, 42, 79
6, 2880, Note_off_c, 9, 42, 80
6, 2880, Note_on_c, 9, 42, 79
6, 2880, Note_on_c, 9, 39, 111
6, 2940, Note_off_c, 9, 42, 80
6, 2940, Note_off_c, 9, 39, 80
6, 2940, Note_on_c, 9, 42, 79
6, 3000, Note_off_c, 9, 42, 80
6, 3000, Note_on_c, 9, 42, 79
6, 3060, Note_off_c, 9, 42, 80
6, 3060, Note_on_c, 9, 42, 79
6, 3120, Note_off_c, 9, 42, 80
6, 3120, Note_on_c, 9, 42, 79
6, 3120, Note_on_c, 9, 39, 111
6, 3240, Note_off_c, 9, 42, 80
6, 3240, Note_off_c, 9, 39, 80
6, 3240, Note_on_c, 9, 42, 79
6, 3360, Note_off_c, 9, 42, 80
6, 3360, Note_on_c, 9, 42, 79
6, 3360, Note_on_c, 9, 39, 127
6, 3600, Note_off_c, 9, 42, 80
6, 3600, Note_off_c, 9, 39, 80
6, 3600, Note_on_c, 9, 42, 79
6, 3600, Note_on_c, 9, 39, 47
6, 3660, Note_off_c, 9, 42, 80
6, 3660, Note_off_c, 9, 39, 80
6, 3660, Note_on_c, 9, 42, 79
6, 3720, Note_off_c, 9, 42, 80
6, 3720, Note_on_c, 9, 42, 79
6, 3840, Note_off_c, 9, 42, 80
6, 3840, Note_on_c, 9, 39, 127
6, 3960, Note_off_c, 9, 39, 80
6, 3960, Note_on_c, 9, 42, 79
6, 4080, Note_off_c, 9, 42, 80
6, 4080, Note_on_c, 9, 42, 79
6, 4140, Note_off_c, 9, 42, 80
6, 4140, Note_on_c, 9, 42, 79
6, 4200, Note_off_c, 9, 42, 80
6, 4200, Note_on_c, 9, 42, 79
6, 4200, Note_on_c, 9, 39, 127
6, 4260, Note_off_c, 9, 42, 80
6, 4260, Note_off_c, 9, 39, 80
6, 4260, Note_on_c, 9, 42, 79
6, 4380, Note_off_c, 9, 42, 80
6, 4380, Note_on_c, 9, 42, 79
6, 4440, Note_off_c, 9, 42, 80
6, 4440, Note_on_c, 9, 42, 127
6, 4560, Note_off_c, 9, 42, 80
6, 4560, Note_on_c, 9, 42, 127
6, 4560, Note_on_c, 9, 39, 127
6, 4680, Note_off_c, 9, 42, 80
6, 4680, Note_off_c, 9, 39, 80
6, 4680, Note_on_c, 9, 42, 79
6, 4800, Note_off_c, 9, 42, 80
6, 4800, Note_on_c, 9, 42, 79
6, 4800, Note_on_c, 9, 39, 47
6, 4860, Note_off_c, 9, 42, 80
6, 4860, Note_off_c, 9, 39, 80
6, 4860, Note_on_c, 9, 42, 79
6, 4920, Note_off_c, 9, 42, 80
6, 4920, Note_on_c, 9, 42, 79
6, 5040, Note_off_c, 9, 42, 80
6, 5040, Note_on_c, 9, 39, 127
6, 5160, Note_off_c, 9, 39, 80
6, 5160, Note_on_c, 9, 42, 79
6, 5280, Note_off_c, 9, 42, 80
6, 5280, Note_on_c, 9, 42, 79
6, 5280, Note_on_c, 9, 39, 111
6, 5340, Note_off_c, 9, 42, 80
6, 5340, Note_off_c, 9, 39, 80
6, 5340, Note_on_c, 9, 42, 79
6, 5400, Note_off_c, 9, 42, 80
6, 5400, Note_on_c, 9, 42, 79
6, 5460, Note_off_c, 9, 42, 80
6, 5460, Note_on_c, 9, 42, 79
6, 5520, Note_off_c, 9, 42, 80
6, 5520, Note_on_c, 9, 42, 79
6, 5520, Note_on_c, 9, 39, 111
6, 5640, Note_off_c, 9, 42, 80
6, 5640, Note_off_c, 9, 39, 80
6, 5640, Note_on_c, 9, 42, 79
6, 5760, Note_off_c, 9, 42, 80
6, 5760, Note_on_c, 9, 42, 79
6, 5760, Note_on_c, 9, 39, 127
6, 6000, Note_off_c, 9, 42, 80
6, 6000, Note_off_c, 9, 39, 80
6, 6000, Note_on_c, 9, 42, 79
6, 6000, Note_on_c, 9, 39, 47
6, 6060, Note_off_c, 9, 42, 80
6, 6060, Note_off_c, 9, 39, 80
6, 6060, Note_on_c, 9, 42, 79
6, 6120, Note_off_c, 9, 42, 80
6, 6120, Note_on_c, 9, 42, 79
6, 6240, Note_off_c, 9, 42, 80
6, 6240, Note_on_c, 9, 39, 127
6, 6360, Note_off_c, 9, 39, 80
6, 6360, Note_on_c, 9, 42, 79
6, 6480, Note_off_c, 9, 42, 80
6, 6480, Note_on_c, 9, 42, 79
6, 6540, Note_off_c, 9, 42, 80
6, 6540, Note_on_c, 9, 42, 79
6, 6600, Note_off_c, 9, 42, 80
6, 6600, Note_on_c, 9, 42, 79
6, 6600, Note_on_c, 9, 39, 127
6, 6660, Note_off_c, 9, 42, 80
6, 6660, Note_off_c, 9, 39, 80
6, 6660, Note_on_c, 9, 42, 79
6, 6780, Note_off_c, 9, 42, 80
6, 6780, Note_on_c, 9, 42, 79
6, 6840, Note_off_c, 9, 42, 80
6, 6840, Note_on_c, 9, 42, 127
6, 6960, Note_off_c, 9, 42, 80
6, 6960, Note_on_c, 9, 42, 127
6, 6960, Note_on_c, 9, 39, 127
6, 7080, Note_off_c, 9, 42, 80
6, 7080, Note_off_c, 9, 39, 80
6, 7080, Note_on_c, 9, 42, 79
6, 7200, Note_off_c, 9, 42, 80
6, 7200, Note_on_c, 9, 42, 79
6, 7200, Note_on_c, 9, 39, 47
6, 7260, Note_off_c, 9, 42, 80
6, 7260, Note_off_c, 9, 39, 80
6, 7260, Note_on_c, 9, 42, 79
6, 7320, Note_off_c, 9, 42, 80
6, 7320, Note_on_c, 9, 42, 79
6, 7440, Note_off_c, 9, 42, 80
6, 7440, Note_on_c, 9, 39, 127
6, 7560, Note_off_c, 9, 39, 80
6, 7560, Note_on_c, 9, 42, 79
6, 7680, Note_off_c, 9, 42, 80
6, 7680, Note_on_c, 9, 42, 79
6, 7680, Note_on_c, 9, 39, 111
6, 7740, Note_off_c, 9, 42, 80
6, 7740, Note_off_c, 9, 39, 80
6, 7740, Note_on_c, 9, 42, 79
6, 7800, Note_off_c, 9, 42, 80
6, 7800, Note_on_c, 9, 42, 79
6, 7860, Note_off_c, 9, 42, 80
6, 7860, Note_on_c, 9, 42, 79
6, 7920, Note_off_c, 9, 42, 80
6, 7920, Note_on_c, 9, 42, 79
6, 7920, Note_on_c, 9, 39, 111
6, 8040, Note_off_c, 9, 42, 80
6, 8040, Note_off_c, 9, 39, 80
6, 8040, Note_on_c, 9, 42, 79
6, 8160, Note_off_c, 9, 42, 80
6, 8160, Note_on_c, 9, 42, 79
6, 8160, Note_on_c, 9, 39, 127
6, 8400, Note_off_c, 9, 42, 80
6, 8400, Note_off_c, 9, 39, 80
6, 8400, Note_on_c, 9, 42, 79
6, 8400, Note_on_c, 9, 39, 47
6, 8460, Note_off_c, 9, 42, 80
6, 8460, Note_off_c, 9, 39, 80
6, 8460, Note_on_c, 9, 42, 79
6, 8520, Note_off_c, 9, 42, 80
6, 8520, Note_on_c, 9, 42, 79
6, 8640, Note_off_c, 9, 42, 80
6, 8640, Note_on_c, 9, 39, 127
6, 8760, Note_off_c, 9, 39, 80
6, 8760, Note_on_c, 9, 42, 79
6, 8880, Note_off_c, 9, 42, 80
6, 8880, Note_on_c, 9, 42, 79
6, 8940, Note_off_c, 9, 42, 80
6, 8940, Note_on_c, 9, 42, 79
6, 9000, Note_off_c, 9, 42, 80
6, 9000, Note_on_c, 9, 42, 79
6, 9000, Note_on_c, 9, 39, 127
6, 9060, Note_off_c, 9, 42, 80
6, 9060, Note_off_c, 9, 39, 80
6, 9060, Note_on_c, 9, 42, 79
6, 9180, Note_off_c, 9, 42, 80
6, 9180, Note_on_c, 9, 42, 79
6, 9240, Note_off_c, 9, 42, 80
6, 9240, Note_on_c, 9, 42, 127
6, 9360, Note_off_c, 9, 42, 80
6, 9360, Note_on_c, 9, 42, 127
6, 9360, Note_on_c, 9, 39, 127
6, 9480, Note_off_c, 9, 42, 80
6, 9480, Note_off_c, 9, 39, 80
6, 9480, Note_on_c, 9, 42, 79
6, 9600, Note_off_c, 9, 42, 80
6, 9600, Note_on_c, 9, 42, 79
6, 9600, Note_on_c, 9, 39, 47
6, 9660, Note_off_c, 9, 42, 80
6, 9660, Note_off_c, 9, 39, 80
6, 9660, Note_on_c, 9, 42, 79
6, 9720, Note_off_c, 9, 42, 80
6, 9720, Note_on_c, 9, 42, 79
6, 9840, Note_off_c, 9, 42, 80
6, 9840, Note_on_c, 9, 39, 127
6, 9960, Note_off_c, 9, 39, 80
6, 9960, Note_on_c, 9, 42, 79
6, 10080, Note_off_c, 9, 42, 80
6, 10080, Note_on_c, 9, 42, 79
6, 10080, Note_on_c, 9, 39, 111
6, 10140, Note_off_c, 9, 42, 80
6, 10140, Note_off_c, 9, 39, 80
6, 10140, Note_on_c, 9, 42, 79
6, 10200, Note_off_c, 9, 42, 80
6, 10200, Note_on_c, 9, 42, 79
6, 10260, Note_off_c, 9, 42, 80
6, 10260, Note_on_c, 9, 42, 79
6, 10320, Note_off_c, 9, 42, 80
6, 10320, Note_on_c, 9, 42, 79
6, 10320, Note_on_c, 9, 39, 111
6, 10440, Note_off_c, 9, 42, 80
6, 10440, Note_off_c, 9, 39, 80
6, 10440, Note_on_c, 9, 42, 79
6, 10560, Note_off_c, 9, 42, 80
6, 10560, Note_on_c, 9, 42, 79
6, 10560, Note_on_c, 9, 39, 127
6, 10800, Note_off_c, 9, 42, 80
6, 10800, Note_off_c, 9, 39, 80
6, 10800, Note_on_c, 9, 42, 79
6, 10800, Note_on_c, 9, 39, 47
6, 10860, Note_off_c, 9, 42, 80
6, 10860, Note_off_c, 9, 39, 80
6, 10860, Note_on_c, 9, 42, 79
6, 10920, Note_off_c, 9, 42, 80
6, 10920, Note_on_c, 9, 42, 79
6, 11040, Note_off_c, 9, 42, 80
6, 11040, Note_on_c, 9, 39, 127
6, 11160, Note_off_c, 9, 39, 80
6, 11160, Note_on_c, 9, 42, 79
6, 11280, Note_off_c, 9, 42, 80
6, 11280, Note_on_c, 9, 42, 79
6, 11340, Note_off_c, 9, 42, 80
6, 11340, Note_on_c, 9, 42, 79
6, 11400, Note_off_c, 9, 42, 80
6, 11400, Note_on_c, 9, 42, 79
6, 11400, Note_on_c, 9, 39, 127
6, 11460, Note_off_c, 9, 42, 80
6, 11460, Note_off_c, 9, 39, 80
6, 11460, Note_on_c, 9, 42, 79
6, 11580, Note_off_c, 9, 42, 80
6, 11580, Note_on_c, 9, 42, 79
6, 11640, Note_off_c, 9, 42, 80
6, 11640, Note_on_c, 9, 42, 127
6, 11760, Note_off_c, 9, 42, 80
6, 11760, Note_on_c, 9, 42, 127
6, 11760, Note_on_c, 9, 39, 127
6, 11880, Note_off_c, 9, 42, 80
6, 11880, Note_off_c, 9, 39, 80
6, 11880, Note_on_c, 9, 42, 79
6, 12000, Note_off_c, 9, 42, 80
6, 12000, Note_on_c, 9, 42, 79
6, 12000, Note_on_c, 9, 39, 47
6, 12060, Note_off_c, 9, 42, 80
6, 12060, Note_off_c, 9, 39, 80
6, 12060, Note_on_c, 9, 42, 79
6, 12120, Note_off_c, 9, 42, 80
6, 12120, Note_on_c, 9, 42, 79
6, 12240, Note_off_c, 9, 42, 80
6, 12240, Note_on_c, 9, 39, 127
6, 12360, Note_off_c, 9, 39, 80
6, 12360, Note_on_c, 9, 42, 79
6, 12480, Note_off_c, 9, 42, 80
6, 12480, Note_on_c, 9, 42, 79
6, 12480, Note_on_c, 9, 39, 111
6, 12540, Note_off_c, 9, 42, 80
6, 12540, Note_off_c, 9, 39, 80
6, 12540, Note_on_c, 9, 42, 79
6, 12600, Note_off_c, 9, 42, 80
6, 12600, Note_on_c, 9, 42, 79
6, 12660, Note_off_c, 9, 42, 80
6, 12660, Note_on_c, 9, 42, 79
6, 12720, Note_off_c, 9, 42, 80
6, 12720, Note_on_c, 9, 42, 79
6, 12720, Note_on_c, 9, 39, 111
6, 12840, Note_off_c, 9, 42, 80
6, 12840, Note_off_c, 9, 39, 80
6, 12840, Note_on_c, 9, 42, 79
6, 12960, Note_off_c, 9, 42, 80
6, 12960, Note_on_c, 9, 42, 79
6, 12960, Note_on_c, 9, 39, 127
6, 13200, Note_off_c, 9, 42, 80
6, 13200, Note_off_c, 9, 39, 80
6, 13200, Note_on_c, 9, 42, 79
6, 13200, Note_on_c, 9, 39, 47
6, 13260, Note_off_c, 9, 42, 80
6, 13260, Note_off_c, 9, 39, 80
6, 13260, Note_on_c, 9, 42, 79
6, 13320, Note_off_c, 9, 42, 80
6, 13320, Note_on_c, 9, 42, 79
6, 13440, Note_off_c, 9, 42, 80
6, 13440, Note_on_c, 9, 39, 127
6, 13560, Note_off_c, 9, 39, 80
6, 13560, Note_on_c, 9, 42, 79
6, 13680, Note_off_c, 9, 42, 80
6, 13680, Note_on_c, 9, 42, 79
6, 13740, Note_off_c, 9, 42, 80
6, 13740, Note_on_c, 9, 42, 79
6, 13800, Note_off_c, 9, 42, 80
6, 13800, Note_on_c, 9, 42, 79
6, 13800, Note_on_c, 9, 39, 127
6, 13860, Note_off_c, 9, 42, 80
6, 13860, Note_off_c, 9, 39, 80
6, 13860, Note_on_c, 9, 42, 79
6, 13980, Note_off_c, 9, 42, 80
6, 13980, Note_on_c, 9, 42, 79
6, 14040, Note_off_c, 9, 42, 80
6, 14040, Note_on_c, 9, 42, 127
6, 14160, Note_off_c, 9, 42, 80
6, 14160, Note_on_c, 9, 42, 127
6, 14160, Note_on_c, 9, 39, 127
6, 14280, Note_off_c, 9, 42, 80
6, 14280, Note_off_c, 9, 39, 80
6, 14280, Note_on_c, 9, 42, 79
6, 14400, Note_off_c, 9, 42, 80
6, 14400, Note_on_c, 9, 42, 127
6, 14640, Note_off_c, 9, 42, 80
6, 14640, Note_on_c, 9, 42, 127
6, 14880, Note_off_c, 9, 42, 80
6, 14880, Note_on_c, 9, 42, 127
6, 15120, Note_off_c, 9, 42, 80
6, 15120, Note_on_c, 9, 42, 127
6, 15360, Note_off_c, 9, 42, 80
6, 15360, Note_on_c, 9, 42, 127
6, 15600, Note_off_c, 9, 42, 80
6, 15600, Note_on_c, 9, 42, 127
6, 15840, Note_off_c, 9, 42, 80
6, 15840, Note_on_c, 9, 42, 127
6, 16080, Note_off_c, 9, 42, 80
6, 16080, Note_on_c, 9, 42, 127
6, 16320, Note_off_c, 9, 42, 80
6, 16320, Note_on_c, 9, 42, 127
6, 16560, Note_off_c, 9, 42, 80
6, 16560, Note_on_c, 9, 42, 127
6, 16800, Note_off_c, 9, 42, 80
6, 17040, Note_on_c, 9, 39, 111
6, 17280, Note_off_c, 9, 39, 80
6, 17280, Note_on_c, 9, 39, 111
6, 17520, Note_off_c, 9, 39, 80
6, 17520, Note_on_c, 9, 39, 111
6, 17760, Note_off_c, 9, 39, 80
6, 17760, Note_on_c, 9, 39, 111
6, 18240, Note_off_c, 9, 39, 80
6, 18240, Note_on_c, 9, 39, 111
6, 18600, Note_off_c, 9, 39, 80
6, 18600, Note_on_c, 9, 39, 111
6, 18960, Note_off_c, 9, 39, 80
6, 18960, Note_on_c, 9, 39, 111
6, 19200, Note_off_c, 9, 39, 80
6, 19440, Note_on_c, 9, 39, 111
6, 19680, Note_off_c, 9, 39, 80
6, 19680, Note_on_c, 9, 39, 111
6, 19920, Note_off_c, 9, 39, 80
6, 19920, Note_on_c, 9, 39, 111
6, 20160, Note_off_c, 9, 39, 80
6, 20160, Note_on_c, 9, 39, 111
6, 20640, Note_off_c, 9, 39, 80
6, 20640, Note_on_c, 9, 39, 111
6, 21000, Note_off_c, 9, 39, 80
6, 21000, Note_on_c, 9, 39, 111
6, 21360, Note_off_c, 9, 39, 80
6, 21360, Note_on_c, 9, 39, 111
6, 21600, Note_off_c, 9, 39, 80
6, 21840, Note_on_c, 9, 39, 111
6, 22080, Note_off_c, 9, 39, 80
6, 22080, Note_on_c, 9, 39, 111
6, 22320, Note_off_c, 9, 39, 80
6, 22320, Note_on_c, 9, 39, 111
6, 22560, Note_off_c, 9, 39, 80
6, 22560, Note_on_c, 9, 39, 111
6, 23040, Note_off_c, 9, 39, 80
6, 23040, Note_on_c, 9, 39, 111
6, 23400, Note_off_c, 9, 39, 80
6, 23400, Note_on_c, 9, 39, 111
6, 23760, Note_off_c, 9, 39, 80
6, 23760, Note_on_c, 9, 39, 111
6, 24000, Note_off_c, 9, 39, 80
6, 24240, Note_on_c, 9, 39, 111
6, 24480, Note_off_c, 9, 39, 80
6, 24480, Note_on_c, 9, 39, 111
6, 24720, Note_off_c, 9, 39, 80
6, 24720, Note_on_c, 9, 39, 111
6, 24960, Note_off_c, 9, 39, 80
6, 24960, Note_on_c, 9, 39, 111
6, 25440, Note_off_c, 9, 39, 80
6, 25440, Note_on_c, 9, 39, 111
6, 25800, Note_off_c, 9, 39, 80
6, 25800, Note_on_c, 9, 39, 111
6, 26160, Note_off_c, 9, 39, 80
6, 26160, Note_on_c, 9, 39, 111
6, 26400, Note_off_c, 9, 39, 80
6, 26640, Note_on_c, 9, 39, 111
6, 26880, Note_off_c, 9, 39, 80
6, 26880, Note_on_c, 9, 39, 111
6, 27120, Note_off_c, 9, 39, 80
6, 27120, Note_on_c, 9, 39, 111
6, 27360, Note_off_c, 9, 39, 80
6, 27360, Note_on_c, 9, 39, 111
6, 27840, Note_off_c, 9, 39, 80
6, 27840, Note_on_c, 9, 39, 111
6, 28200, Note_off_c, 9, 39, 80
6, 28200, Note_on_c, 9, 39, 111
6, 28560, Note_off_c, 9, 39, 80
6, 28560, Note_on_c, 9, 39, 111
6, 28800, Note_off_c, 9, 39, 80
6, 31200, Note_on_c, 9, 57, 127
6, 31440, Note_off_c, 9, 57, 80
6, 31440, Note_on_c, 9, 39, 111
6, 31680, Note_off_c, 9, 39, 80
6, 31680, Note_on_c, 9, 39, 111
6, 31920, Note_off_c, 9, 39, 80
6, 31920, Note_on_c, 9, 39, 111
6, 32160, Note_off_c, 9, 39, 80
6, 32160, Note_on_c, 9, 39, 111
6, 32640, Note_off_c, 9, 39, 80
6, 32640, Note_on_c, 9, 39, 111
6, 33000, Note_off_c, 9, 39, 80
6, 33000, Note_on_c, 9, 39, 111
6, 33360, Note_off_c, 9, 39, 80
6, 33360, Note_on_c, 9, 39, 111
6, 33600, Note_off_c, 9, 39, 80
6, 33840, Note_on_c, 9, 39, 111
6, 34080, Note_off_c, 9, 39, 80
6, 34080, Note_on_c, 9, 39, 111
6, 34320, Note_off_c, 9, 39, 80
6, 34320, Note_on_c, 9, 39, 111
6, 34560, Note_off_c, 9, 39, 80
6, 34560, Note_on_c, 9, 39, 111
6, 35040, Note_off_c, 9, 39, 80
6, 35040, Note_on_c, 9, 39, 111
6, 35400, Note_off_c, 9, 39, 80
6, 35400, Note_on_c, 9, 39, 111
6, 35760, Note_off_c, 9, 39, 80
6, 35760, Note_on_c, 9, 39, 111
6, 36000, Note_off_c, 9, 39, 80
6, 36000, Note_on_c, 9, 57, 127
6, 36240, Note_off_c, 9, 57, 80
6, 36240, Note_on_c, 9, 39, 111
6, 36480, Note_off_c, 9, 39, 80
6, 36480, Note_on_c, 9, 39, 111
6, 36720, Note_off_c, 9, 39, 80
6, 36720, Note_on_c, 9, 39, 111
6, 36960, Note_off_c, 9, 39, 80
6, 36960, Note_on_c, 9, 39, 111
6, 37440, Note_off_c, 9, 39, 80
6, 37440, Note_on_c, 9, 39, 111
6, 37800, Note_off_c, 9, 39, 80
6, 37800, Note_on_c, 9, 39, 111
6, 38160, Note_off_c, 9, 39, 80
6, 38160, Note_on_c, 9, 39, 111
6, 38400, Note_off_c, 9, 39, 80
6, 38640, Note_on_c, 9, 39, 111
6, 38880, Note_off_c, 9, 39, 80
6, 38880, Note_on_c, 9, 39, 111
6, 39120, Note_off_c, 9, 39, 80
6, 39120, Note_on_c, 9, 39, 111
6, 39360, Note_off_c, 9, 39, 80
6, 39360, Note_on_c, 9, 39, 111
6, 39840, Note_off_c, 9, 39, 80
6, 39840, Note_on_c, 9, 39, 111
6, 40200, Note_off_c, 9, 39, 80
6, 40200, Note_on_c, 9, 39, 111
6, 40560, Note_off_c, 9, 39, 80
6, 40560, Note_on_c, 9, 39, 111
6, 40800, Note_off_c, 9, 39, 80
6, 40800, Note_on_c, 9, 57, 127
6, 41040, Note_off_c, 9, 57, 80
6, 41040, Note_on_c, 9, 39, 111
6, 41280, Note_off_c, 9, 39, 80
6, 41280, Note_on_c, 9, 39, 111
6, 41520, Note_off_c, 9, 39, 80
6, 41520, Note_on_c, 9, 39, 111
6, 41760, Note_off_c, 9, 39, 80
6, 41760, Note_on_c, 9, 39, 111
6, 42240, Note_off_c, 9, 39, 80
6, 42240, Note_on_c, 9, 39, 111
6, 42600, Note_off_c, 9, 39, 80
6, 42600, Note_on_c, 9, 39, 111
6, 42960, Note_off_c, 9, 39, 80
6, 42960, Note_on_c, 9, 39, 111
6, 43200, Note_off_c, 9, 39, 80
6, 43440, Note_on_c, 9, 39, 111
6, 43680, Note_off_c, 9, 39, 80
6, 43680, Note_on_c, 9, 39, 111
6, 43920, Note_off_c, 9, 39, 80
6, 43920, Note_on_c, 9, 39, 111
6, 44160, Note_off_c, 9, 39, 80
6, 44160, Note_on_c, 9, 39, 111
6, 44640, Note_off_c, 9, 39, 80
6, 44640, Note_on_c, 9, 39, 111
6, 45000, Note_off_c, 9, 39, 80
6, 45000, Note_on_c, 9, 39, 111
6, 45360, Note_off_c, 9, 39, 80
6, 45360, Note_on_c, 9, 39, 111
6, 45600, Note_off_c, 9, 39, 80
6, 45600, Note_on_c, 9, 57, 127
6, 45840, Note_off_c, 9, 57, 80
6, 45840, Note_on_c, 9, 39, 111
6, 46080, Note_off_c, 9, 39, 80
6, 46080, Note_on_c, 9, 39, 111
6, 46320, Note_off_c, 9, 39, 80
6, 46320, Note_on_c, 9, 39, 111
6, 46560, Note_off_c, 9, 39, 80
6, 46560, Note_on_c, 9, 39, 111
6, 47040, Note_off_c, 9, 39, 80
6, 47040, Note_on_c, 9, 39, 111
6, 47400, Note_off_c, 9, 39, 80
6, 47400, Note_on_c, 9, 39, 111
6, 47760, Note_off_c, 9, 39, 80
6, 47760, Note_on_c, 9, 39, 111
6, 48000, Note_off_c, 9, 39, 80
6, 48240, Note_on_c, 9, 39, 111
6, 48480, Note_off_c, 9, 39, 80
6, 48480, Note_on_c, 9, 39, 111
6, 48720, Note_off_c, 9, 39, 80
6, 48720, Note_on_c, 9, 39, 111
6, 48960, Note_off_c, 9, 39, 80
6, 48960, Note_on_c, 9, 39, 111
6, 49440, Note_off_c, 9, 39, 80
6, 49440, Note_on_c, 9, 39, 111
6, 49800, Note_off_c, 9, 39, 80
6, 49800, Note_on_c, 9, 39, 111
6, 50160, Note_off_c, 9, 39, 80
6, 50160, Note_on_c, 9, 39, 111
6, 50400, Note_off_c, 9, 39, 80
6, 50400, Note_on_c, 9, 57, 127
6, 50640, Note_off_c, 9, 57, 80
6, 50640, Note_on_c, 9, 39, 111
6, 50880, Note_off_c, 9, 39, 80
6, 50880, Note_on_c, 9, 39, 111
6, 51120, Note_off_c, 9, 39, 80
6, 51120, Note_on_c, 9, 39, 111
6, 51360, Note_off_c, 9, 39, 80
6, 51360, Note_on_c, 9, 39, 111
6, 51840, Note_off_c, 9, 39, 80
6, 51840, Note_on_c, 9, 39, 111
6, 52200, Note_off_c, 9, 39, 80
6, 52200, Note_on_c, 9, 39, 111
6, 52560, Note_off_c, 9, 39, 80
6, 52560, Note_on_c, 9, 39, 111
6, 52800, Note_off_c, 9, 39, 80
6, 53040, Note_on_c, 9, 39, 111
6, 53280, Note_off_c, 9, 39, 80
6, 53280, Note_on_c, 9, 39, 111
6, 53520, Note_off_c, 9, 39, 80
6, 53520, Note_on_c, 9, 39, 111
6, 53760, Note_off_c, 9, 39, 80
6, 53760, Note_on_c, 9, 39, 111
6, 54240, Note_off_c, 9, 39, 80
6, 54240, Note_on_c, 9, 39, 111
6, 54600, Note_off_c, 9, 39, 80
6, 54600, Note_on_c, 9, 39, 111
6, 54960, Note_off_c, 9, 39, 80
6, 54960, Note_on_c, 9, 39, 111
6, 55200, Note_off_c, 9, 39, 80
6, 55200, Note_on_c, 9, 57, 127
6, 55440, Note_off_c, 9, 57, 80
6, 55440, Note_on_c, 9, 39, 111
6, 55680, Note_off_c, 9, 39, 80
6, 55680, Note_on_c, 9, 39, 111
6, 55920, Note_off_c, 9, 39, 80
6, 55920, Note_on_c, 9, 39, 111
6, 56160, Note_off_c, 9, 39, 80
6, 56160, Note_on_c, 9, 39, 111
6, 56640, Note_off_c, 9, 39, 80
6, 56640, Note_on_c, 9, 39, 111
6, 57000, Note_off_c, 9, 39, 80
6, 57000, Note_on_c, 9, 39, 111
6, 57360, Note_off_c, 9, 39, 80
6, 57360, Note_on_c, 9, 39, 111
6, 57600, Note_off_c, 9, 39, 80
6, 57600, Note_on_c, 9, 57, 127
6, 57840, Note_off_c, 9, 57, 80
6, 57840, Note_on_c, 9, 39, 111
6, 58080, Note_off_c, 9, 39, 80
6, 58080, Note_on_c, 9, 39, 111
6, 58320, Note_off_c, 9, 39, 80
6, 58320, Note_on_c, 9, 39, 111
6, 58560, Note_off_c, 9, 39, 80
6, 58560, Note_on_c, 9, 39, 111
6, 59040, Note_off_c, 9, 39, 80
6, 59040, Note_on_c, 9, 39, 111
6, 59400, Note_off_c, 9, 39, 80
6, 59400, Note_on_c, 9, 39, 111
6, 59760, Note_off_c, 9, 39, 80
6, 59760, Note_on_c, 9, 39, 111
6, 60000, Note_off_c, 9, 39, 80
6, 60000, Note_on_c, 9, 57, 127
6, 60240, Note_off_c, 9, 57, 80
6, 60240, Note_on_c, 9, 39, 111
6, 60480, Note_off_c, 9, 39, 80
6, 60480, Note_on_c, 9, 39, 111
6, 60720, Note_off_c, 9, 39, 80
6, 60720, Note_on_c, 9, 39, 111
6, 60960, Note_off_c, 9, 39, 80
6, 60960, Note_on_c, 9, 39, 111
6, 61440, Note_off_c, 9, 39, 80
6, 61440, Note_on_c, 9, 39, 111
6, 61800, Note_off_c, 9, 39, 80
6, 61800, Note_on_c, 9, 39, 111
6, 62160, Note_off_c, 9, 39, 80
6, 62160, Note_on_c, 9, 39, 111
6, 62400, Note_off_c, 9, 39, 80
6, 62400, Note_on_c, 9, 57, 127
6, 62640, Note_off_c, 9, 57, 80
6, 62640, Note_on_c, 9, 39, 111
6, 62880, Note_off_c, 9, 39, 80
6, 62880, Note_on_c, 9, 39, 111
6, 63120, Note_off_c, 9, 39, 80
6, 63120, Note_on_c, 9, 39, 111
6, 63360, Note_off_c, 9, 39, 80
6, 63360, Note_on_c, 9, 39, 111
6, 63840, Note_off_c, 9, 39, 80
6, 63840, Note_on_c, 9, 39, 111
6, 64200, Note_off_c, 9, 39, 80
6, 64200, Note_on_c, 9, 39, 111
6, 64560, Note_off_c, 9, 39, 80
6, 64560, Note_on_c, 9, 39, 111
6, 64800, Note_off_c, 9, 39, 80
6, 64800, Note_on_c, 9, 57, 127
6, 65040, Note_off_c, 9, 57, 80
6, 65040, Note_on_c, 9, 39, 111
6, 65280, Note_off_c, 9, 39, 80
6, 65280, Note_on_c, 9, 39, 111
6, 65520, Note_off_c, 9, 39, 80
6, 65520, Note_on_c, 9, 39, 111
6, 65760, Note_off_c, 9, 39, 80
6, 65760, Note_on_c, 9, 39, 111
6, 66240, Note_off_c, 9, 39, 80
6, 66240, Note_on_c, 9, 39, 111
6, 66600, Note_off_c, 9, 39, 80
6, 66600, Note_on_c, 9, 39, 111
6, 66960, Note_off_c, 9, 39, 80
6, 66960, Note_on_c, 9, 39, 111
6, 67200, Note_off_c, 9, 39, 80
6, 67200, Note_on_c, 9, 57, 127
6, 67440, Note_off_c, 9, 57, 80
6, 67440, Note_on_c, 9, 39, 111
6, 67680, Note_off_c, 9, 39, 80
6, 67680, Note_on_c, 9, 39, 111
6, 67920, Note_off_c, 9, 39, 80
6, 67920, Note_on_c, 9, 39, 111
6, 68160, Note_off_c, 9, 39, 80
6, 68160, Note_on_c, 9, 39, 111
6, 68640, Note_off_c, 9, 39, 80
6, 68640, Note_on_c, 9, 39, 111
6, 69000, Note_off_c, 9, 39, 80
6, 69000, Note_on_c, 9, 39, 111
6, 69360, Note_off_c, 9, 39, 80
6, 69360, Note_on_c, 9, 39, 111
6, 69600, Note_off_c, 9, 39, 80
6, 69600, Note_on_c, 9, 57, 127
6, 69840, Note_off_c, 9, 57, 80
6, 69840, Note_on_c, 9, 39, 111
6, 70080, Note_off_c, 9, 39, 80
6, 70080, Note_on_c, 9, 39, 111
6, 70320, Note_off_c, 9, 39, 80
6, 70320, Note_on_c, 9, 39, 111
6, 70560, Note_off_c, 9, 39, 80
6, 70560, Note_on_c, 9, 39, 111
6, 71040, Note_off_c, 9, 39, 80
6, 71040, Note_on_c, 9, 39, 111
6, 71400, Note_off_c, 9, 39, 80
6, 71400, Note_on_c, 9, 39, 111
6, 71760, Note_off_c, 9, 39, 80
6, 71760, Note_on_c, 9, 39, 111
6, 72000, Note_off_c, 9, 39, 80
6, 72000, Note_on_c, 9, 57, 127
6, 72240, Note_off_c, 9, 57, 80
6, 72240, Note_on_c, 9, 39, 111
6, 72480, Note_off_c, 9, 39, 80
6, 72480, Note_on_c, 9, 39, 111
6, 72720, Note_off_c, 9, 39, 80
6, 72720, Note_on_c, 9, 39, 111
6, 72960, Note_off_c, 9, 39, 80
6, 72960, Note_on_c, 9, 39, 111
6, 73440, Note_off_c, 9, 39, 80
6, 73440, Note_on_c, 9, 39, 111
6, 73800, Note_off_c, 9, 39, 80
6, 73800, Note_on_c, 9, 39, 111
6, 74160, Note_off_c, 9, 39, 80
6, 74160, Note_on_c, 9, 39, 111
6, 74400, Note_off_c, 9, 39, 80
6, 79200, Note_on_c, 9, 59, 95
6, 79440, Note_off_c, 9, 59, 80
6, 79440, Note_on_c, 9, 59, 95
6, 79680, Note_off_c, 9, 59, 80
6, 79680, Note_on_c, 9, 59, 95
6, 79920, Note_off_c, 9, 59, 80
6, 79920, Note_on_c, 9, 59, 95
6, 80160, Note_off_c, 9, 59, 80
6, 80160, Note_on_c, 9, 59, 95
6, 80400, Note_off_c, 9, 59, 80
6, 80400, Note_on_c, 9, 59, 95
6, 80640, Note_off_c, 9, 59, 80
6, 80640, Note_on_c, 9, 59, 95
6, 80880, Note_off_c, 9, 59, 80
6, 80880, Note_on_c, 9, 59, 95
6, 81120, Note_off_c, 9, 59, 80
6, 81120, Note_on_c, 9, 59, 95
6, 81360, Note_off_c, 9, 59, 80
6, 81360, Note_on_c, 9, 59, 95
6, 81600, Note_off_c, 9, 59, 80
6, 81600, Note_on_c, 9, 59, 95
6, 81840, Note_off_c, 9, 59, 80
6, 81840, Note_on_c, 9, 59, 95
6, 82080, Note_off_c, 9, 59, 80
6, 82080, Note_on_c, 9, 59, 95
6, 82320, Note_off_c, 9, 59, 80
6, 82320, Note_on_c, 9, 59, 95
6, 82560, Note_off_c, 9, 59, 80
6, 82560, Note_on_c, 9, 59, 95
6, 82800, Note_off_c, 9, 59, 80
6, 82800, Note_on_c, 9, 59, 95
6, 83040, Note_off_c, 9, 59, 80
6, 83040, Note_on_c, 9, 59, 95
6, 83280, Note_off_c, 9, 59, 80
6, 83280, Note_on_c, 9, 59, 95
6, 83520, Note_off_c, 9, 59, 80
6, 83520, Note_on_c, 9, 59, 95
6, 83760, Note_off_c, 9, 59, 80
6, 83760, Note_on_c, 9, 59, 95
6, 84000, Note_off_c, 9, 59, 80
6, 84000, Note_on_c, 9, 59, 95
6, 84240, Note_off_c, 9, 59, 80
6, 84240, Note_on_c, 9, 59, 95
6, 84240, Note_on_c, 9, 39, 111
6, 84480, Note_off_c, 9, 59, 80
6, 84480, Note_off_c, 9, 39, 80
6, 84480, Note_on_c, 9, 59, 95
6, 84480, Note_on_c, 9, 39, 111
6, 84720, Note_off_c, 9, 59, 80
6, 84720, Note_off_c, 9, 39, 80
6, 84720, Note_on_c, 9, 59, 95
6, 84720, Note_on_c, 9, 39, 111
6, 84960, Note_off_c, 9, 59, 80
6, 84960, Note_off_c, 9, 39, 80
6, 84960, Note_on_c, 9, 59, 95
6, 84960, Note_on_c, 9, 39, 111
6, 85200, Note_off_c, 9, 59, 80
6, 85200, Note_off_c, 9, 39, 80
6, 85200, Note_on_c, 9, 59, 95
6, 85440, Note_off_c, 9, 59, 80
6, 85440, Note_on_c, 9, 59, 95
6, 85440, Note_on_c, 9, 39, 111
6, 85800, Note_off_c, 9, 59, 80
6, 85800, Note_off_c, 9, 39, 80
6, 85800, Note_on_c, 9, 59, 95
6, 85800, Note_on_c, 9, 39, 111
6, 86160, Note_off_c, 9, 59, 80
6, 86160, Note_off_c, 9, 39, 80
6, 86160, Note_on_c, 9, 59, 95
6, 86160, Note_on_c, 9, 39, 111
6, 86400, Note_off_c, 9, 59, 80
6, 86400, Note_off_c, 9, 39, 80
6, 86400, Note_on_c, 9, 59, 95
6, 86640, Note_off_c, 9, 59, 80
6, 86640, Note_on_c, 9, 59, 95
6, 86640, Note_on_c, 9, 39, 111
6, 86880, Note_off_c, 9, 59, 80
6, 86880, Note_off_c, 9, 39, 80
6, 86880, Note_on_c, 9, 59, 95
6, 86880, Note_on_c, 9, 39, 111
6, 87120, Note_off_c, 9, 59, 80
6, 87120, Note_off_c, 9, 39, 80
6, 87120, Note_on_c, 9, 59, 95
6, 87120, Note_on_c, 9, 39, 111
6, 87360, Note_off_c, 9, 59, 80
6, 87360, Note_off_c, 9, 39, 80
6, 87360, Note_on_c, 9, 59, 95
6, 87360, Note_on_c, 9, 39, 111
6, 87600, Note_off_c, 9, 59, 80
6, 87600, Note_off_c, 9, 39, 80
6, 87600, Note_on_c, 9, 59, 95
6, 87840, Note_off_c, 9, 59, 80
6, 87840, Note_on_c, 9, 59, 95
6, 87840, Note_on_c, 9, 39, 111
6, 88200, Note_off_c, 9, 59, 80
6, 88200, Note_off_c, 9, 39, 80
6, 88200, Note_on_c, 9, 59, 95
6, 88200, Note_on_c, 9, 39, 111
6, 88560, Note_off_c, 9, 59, 80
6, 88560, Note_off_c, 9, 39, 80
6, 88560, Note_on_c, 9, 59, 95
6, 88560, Note_on_c, 9, 39, 111
6, 88800, Note_off_c, 9, 59, 80
6, 88800, Note_off_c, 9, 39, 80
6, 88800, Note_on_c, 9, 57, 127
6, 89040, Note_off_c, 9, 57, 80
6, 89040, Note_on_c, 9, 39, 111
6, 89280, Note_off_c, 9, 39, 80
6, 89280, Note_on_c, 9, 39, 111
6, 89520, Note_off_c, 9, 39, 80
6, 89520, Note_on_c, 9, 39, 111
6, 89760, Note_off_c, 9, 39, 80
6, 89760, Note_on_c, 9, 39, 111
6, 90240, Note_off_c, 9, 39, 80
6, 90240, Note_on_c, 9, 39, 111
6, 90600, Note_off_c, 9, 39, 80
6, 90600, Note_on_c, 9, 39, 111
6, 90960, Note_off_c, 9, 39, 80
6, 90960, Note_on_c, 9, 39, 111
6, 91200, Note_off_c, 9, 39, 80
6, 91440, Note_on_c, 9, 39, 111
6, 91680, Note_off_c, 9, 39, 80
6, 91680, Note_on_c, 9, 39, 111
6, 91920, Note_off_c, 9, 39, 80
6, 91920, Note_on_c, 9, 39, 111
6, 92160, Note_off_c, 9, 39, 80
6, 92160, Note_on_c, 9, 39, 111
6, 92640, Note_off_c, 9, 39, 80
6, 92640, Note_on_c, 9, 39, 111
6, 93000, Note_off_c, 9, 39, 80
6, 93000, Note_on_c, 9, 39, 111
6, 93360, Note_off_c, 9, 39, 80
6, 93360, Note_on_c, 9, 39, 111
6, 93600, Note_off_c, 9, 39, 80
6, 93600, Note_on_c, 9, 57, 127
6, 93840, Note_off_c, 9, 57, 80
6, 93840, Note_on_c, 9, 39, 111
6, 94080, Note_off_c, 9, 39, 80
6, 94080, Note_on_c, 9, 39, 111
6, 94320, Note_off_c, 9, 39, 80
6, 94320, Note_on_c, 9, 39, 111
6, 94560, Note_off_c, 9, 39, 80
6, 94560, Note_on_c, 9, 39, 111
6, 95040, Note_off_c, 9, 39, 80
6, 95040, Note_on_c, 9, 39, 111
6, 95400, Note_off_c, 9, 39, 80
6, 95400, Note_on_c, 9, 39, 111
6, 95760, Note_off_c, 9, 39, 80
6, 95760, Note_on_c, 9, 39, 111
6, 96000, Note_off_c, 9, 39, 80
6, 96240, Note_on_c, 9, 39, 111
6, 96480, Note_off_c, 9, 39, 80
6, 96480, Note_on_c, 9, 39, 111
6, 96720, Note_off_c, 9, 39, 80
6, 96720, Note_on_c, 9, 39, 111
6, 96960, Note_off_c, 9, 39, 80
6, 96960, Note_on_c, 9, 39, 111
6, 97440, Note_off_c, 9, 39, 80
6, 97440, Note_on_c, 9, 39, 111
6, 97800, Note_off_c, 9, 39, 80
6, 97800, Note_on_c, 9, 39, 111
6, 98160, Note_off_c, 9, 39, 80
6, 98160, Note_on_c, 9, 39, 111
6, 98400, Note_off_c, 9, 39, 80
6, 98400, Note_on_c, 9, 57, 127
6, 98640, Note_off_c, 9, 57, 80
6, 98640, Note_on_c, 9, 39, 111
6, 98880, Note_off_c, 9, 39, 80
6, 98880, Note_on_c, 9, 39, 111
6, 99120, Note_off_c, 9, 39, 80
6, 99120, Note_on_c, 9, 39, 111
6, 99360, Note_off_c, 9, 39, 80
6, 99360, Note_on_c, 9, 39, 111
6, 99840, Note_off_c, 9, 39, 80
6, 99840, Note_on_c, 9, 39, 111
6, 100200, Note_off_c, 9, 39, 80
6, 100200, Note_on_c, 9, 39, 111
6, 100560, Note_off_c, 9, 39, 80
6, 100560, Note_on_c, 9, 39, 111
6, 100800, Note_off_c, 9, 39, 80
6, 101040, Note_on_c, 9, 39, 111
6, 101280, Note_off_c, 9, 39, 80
6, 101280, Note_on_c, 9, 39, 111
6, 101520, Note_off_c, 9, 39, 80
6, 101520, Note_on_c, 9, 39, 111
6, 101760, Note_off_c, 9, 39, 80
6, 101760, Note_on_c, 9, 39, 111
6, 102240, Note_off_c, 9, 39, 80
6, 102240, Note_on_c, 9, 39, 111
6, 102600, Note_off_c, 9, 39, 80
6, 102600, Note_on_c, 9, 39, 111
6, 102960, Note_off_c, 9, 39, 80
6, 102960, Note_on_c, 9, 39, 111
6, 103200, Note_off_c, 9, 39, 80
6, 103200, Note_on_c, 9, 57, 127
6, 103440, Note_off_c, 9, 57, 80
6, 103440, Note_on_c, 9, 39, 111
6, 103680, Note_off_c, 9, 39, 80
6, 103680, Note_on_c, 9, 39, 111
6, 103920, Note_off_c, 9, 39, 80
6, 103920, Note_on_c, 9, 39, 111
6, 104160, Note_off_c, 9, 39, 80
6, 104160, Note_on_c, 9, 39, 111
6, 104640, Note_off_c, 9, 39, 80
6, 104640, Note_on_c, 9, 39, 111
6, 105000, Note_off_c, 9, 39, 80
6, 105000, Note_on_c, 9, 39, 111
6, 105360, Note_off_c, 9, 39, 80
6, 105360, Note_on_c, 9, 39, 111
6, 105600, Note_off_c, 9, 39, 80
6, 105840, Note_on_c, 9, 39, 111
6, 106080, Note_off_c, 9, 39, 80
6, 106080, Note_on_c, 9, 39, 111
6, 106320, Note_off_c, 9, 39, 80
6, 106320, Note_on_c, 9, 39, 111
6, 106560, Note_off_c, 9, 39, 80
6, 106560, Note_on_c, 9, 39, 111
6, 107040, Note_off_c, 9, 39, 80
6, 107040, Note_on_c, 9, 39, 111
6, 107400, Note_off_c, 9, 39, 80
6, 107400, Note_on_c, 9, 39, 111
6, 107760, Note_off_c, 9, 39, 80
6, 107760, Note_on_c, 9, 39, 111
6, 108000, Note_off_c, 9, 39, 80
6, 108000, Note_on_c, 9, 57, 127
6, 108240, Note_off_c, 9, 57, 80
6, 108240, Note_on_c, 9, 39, 111
6, 108480, Note_off_c, 9, 39, 80
6, 108480, Note_on_c, 9, 39, 111
6, 108720, Note_off_c, 9, 39, 80
6, 108720, Note_on_c, 9, 39, 111
6, 108960, Note_off_c, 9, 39, 80
6, 108960, Note_on_c, 9, 39, 111
6, 109440, Note_off_c, 9, 39, 80
6, 109440, Note_on_c, 9, 39, 111
6, 109800, Note_off_c, 9, 39, 80
6, 109800, Note_on_c, 9, 39, 111
6, 110160, Note_off_c, 9, 39, 80
6, 110160, Note_on_c, 9, 39, 111
6, 110400, Note_off_c, 9, 39, 80
6, 110640, Note_on_c, 9, 39, 111
6, 110880, Note_off_c, 9, 39, 80
6, 110880, Note_on_c, 9, 39, 111
6, 111120, Note_off_c, 9, 39, 80
6, 111120, Note_on_c, 9, 39, 111
6, 111360, Note_off_c, 9, 39, 80
6, 111360, Note_on_c, 9, 39, 111
6, 111840, Note_off_c, 9, 39, 80
6, 111840, Note_on_c, 9, 39, 111
6, 112200, Note_off_c, 9, 39, 80
6, 112200, Note_on_c, 9, 39, 111
6, 112560, Note_off_c, 9, 39, 80
6, 112560, Note_on_c, 9, 39, 111
6, 112800, Note_off_c, 9, 39, 80
6, 122400, Note_on_c, 9, 30, 47
6, 122400, Note_on_c, 9, 80, 47
6, 122460, Note_off_c, 9, 30, 80
6, 122460, Note_off_c, 9, 80, 80
6, 122460, Note_on_c, 9, 30, 47
6, 122460, Note_on_c, 9, 80, 47
6, 122520, Note_off_c, 9, 30, 80
6, 122520, Note_off_c, 9, 80, 80
6, 122520, Note_on_c, 9, 30, 47
6, 122520, Note_on_c, 9, 80, 47
6, 122580, Note_off_c, 9, 30, 80
6, 122580, Note_off_c, 9, 80, 80
6, 122580, Note_on_c, 9, 80, 47
6, 122640, Note_off_c, 9, 80, 80
6, 122640, Note_on_c, 9, 80, 47
6, 122700, Note_off_c, 9, 80, 80
6, 122700, Note_on_c, 9, 80, 47
6, 122760, Note_off_c, 9, 80, 80
6, 122760, Note_on_c, 9, 80, 47
6, 122820, Note_off_c, 9, 80, 80
6, 122820, Note_on_c, 9, 80, 47
6, 122880, Note_off_c, 9, 80, 80
6, 122880, Note_on_c, 9, 80, 47
6, 122940, Note_off_c, 9, 80, 80
6, 122940, Note_on_c, 9, 30, 47
6, 122940, Note_on_c, 9, 80, 47
6, 123000, Note_off_c, 9, 30, 80
6, 123000, Note_off_c, 9, 80, 80
6, 123000, Note_on_c, 9, 80, 47
6, 123060, Note_off_c, 9, 80, 80
6, 123060, Note_on_c, 9, 80, 47
6, 123120, Note_off_c, 9, 80, 80
6, 123120, Note_on_c, 9, 80, 47
6, 123180, Note_off_c, 9, 80, 80
6, 123180, Note_on_c, 9, 80, 47
6, 123240, Note_off_c, 9, 80, 80
6, 123240, Note_on_c, 9, 80, 47
6, 123300, Note_off_c, 9, 80, 80
6, 123300, Note_on_c, 9, 30, 47
6, 123300, Note_on_c, 9, 80, 47
6, 123360, Note_off_c, 9, 30, 80
6, 123360, Note_off_c, 9, 80, 80
6, 123360, Note_on_c, 9, 80, 47
6, 123420, Note_off_c, 9, 80, 80
6, 123420, Note_on_c, 9, 30, 47
6, 123420, Note_on_c, 9, 80, 47
6, 123480, Note_off_c, 9, 30, 80
6, 123480, Note_off_c, 9, 80, 80
6, 123480, Note_on_c, 9, 80, 47
6, 123540, Note_off_c, 9, 80, 80
6, 123540, Note_on_c, 9, 80, 47
6, 123600, Note_off_c, 9, 80, 80
6, 123600, Note_on_c, 9, 80, 47
6, 123660, Note_off_c, 9, 80, 80
6, 123660, Note_on_c, 9, 80, 47
6, 123720, Note_off_c, 9, 80, 80
6, 123720, Note_on_c, 9, 80, 47
6, 123780, Note_off_c, 9, 80, 80
6, 123780, Note_on_c, 9, 30, 47
6, 123780, Note_on_c, 9, 80, 47
6, 123840, Note_off_c, 9, 30, 80
6, 123840, Note_off_c, 9, 80, 80
6, 123840, Note_on_c, 9, 80, 47
6, 123900, Note_off_c, 9, 80, 80
6, 123900, Note_on_c, 9, 30, 47
6, 123900, Note_on_c, 9, 80, 47
6, 123960, Note_off_c, 9, 30, 80
6, 123960, Note_off_c, 9, 80, 80
6, 123960, Note_on_c, 9, 80, 47
6, 124020, Note_off_c, 9, 80, 80
6, 124020, Note_on_c, 9, 80, 47
6, 124080, Note_off_c, 9, 80, 80
6, 124080, Note_on_c, 9, 80, 47
6, 124140, Note_off_c, 9, 80, 80
6, 124140, Note_on_c, 9, 80, 47
6, 124200, Note_off_c, 9, 80, 80
6, 124200, Note_on_c, 9, 80, 47
6, 124260, Note_off_c, 9, 80, 80
6, 124260, Note_on_c, 9, 80, 47
6, 124320, Note_off_c, 9, 80, 80
6, 124320, Note_on_c, 9, 30, 47
6, 124320, Note_on_c, 9, 80, 47
6, 124380, Note_off_c, 9, 30, 80
6, 124380, Note_off_c, 9, 80, 80
6, 124380, Note_on_c, 9, 80, 47
6, 124440, Note_off_c, 9, 80, 80
6, 124440, Note_on_c, 9, 30, 47
6, 124440, Note_on_c, 9, 80, 47
6, 124500, Note_off_c, 9, 30, 80
6, 124500, Note_off_c, 9, 80, 80
6, 124500, Note_on_c, 9, 80, 47
6, 124560, Note_off_c, 9, 80, 80
6, 124560, Note_on_c, 9, 80, 47
6, 124620, Note_off_c, 9, 80, 80
6, 124620, Note_on_c, 9, 80, 47
6, 124680, Note_off_c, 9, 80, 80
6, 124680, Note_on_c, 9, 80, 47
6, 124740, Note_off_c, 9, 80, 80
6, 124740, Note_on_c, 9, 80, 47
6, 124800, Note_off_c, 9, 80, 80
6, 124800, Note_on_c, 9, 80, 127
6, 124860, Note_off_c, 9, 80, 80
6, 124860, Note_on_c, 9, 80, 127
6, 124920, Note_off_c, 9, 80, 80
6, 124920, Note_on_c, 9, 80, 127
6, 124980, Note_off_c, 9, 80, 80
6, 124980, Note_on_c, 9, 80, 127
6, 125040, Note_off_c, 9, 80, 80
6, 125040, Note_on_c, 9, 80, 127
6, 125040, Note_on_c, 9, 39, 127
6, 125100, Note_off_c, 9, 80, 80
6, 125100, Note_off_c, 9, 39, 80
6, 125100, Note_on_c, 9, 80, 127
6, 125160, Note_off_c, 9, 80, 80
6, 125160, Note_on_c, 9, 80, 127
6, 125220, Note_off_c, 9, 80, 80
6, 125220, Note_on_c, 9, 80, 127
6, 125280, Note_off_c, 9, 80, 80
6, 125280, Note_on_c, 9, 80, 127
6, 125280, Note_on_c, 9, 39, 127
6, 125340, Note_off_c, 9, 80, 80
6, 125340, Note_off_c, 9, 39, 80
6, 125340, Note_on_c, 9, 80, 127
6, 125400, Note_off_c, 9, 80, 80
6, 125400, Note_on_c, 9, 80, 127
6, 125460, Note_off_c, 9, 80, 80
6, 125460, Note_on_c, 9, 80, 127
6, 125520, Note_off_c, 9, 80, 80
6, 125520, Note_on_c, 9, 80, 127
6, 125520, Note_on_c, 9, 39, 127
6, 125580, Note_off_c, 9, 80, 80
6, 125580, Note_off_c, 9, 39, 80
6, 125580, Note_on_c, 9, 80, 127
6, 125640, Note_off_c, 9, 80, 80
6, 125640, Note_on_c, 9, 80, 127
6, 125700, Note_off_c, 9, 80, 80
6, 125700, Note_on_c, 9, 80, 127
6, 125760, Note_off_c, 9, 80, 80
6, 125760, Note_on_c, 9, 80, 127
6, 125760, Note_on_c, 9, 39, 127
6, 125820, Note_off_c, 9, 80, 80
6, 125820, Note_off_c, 9, 39, 80
6, 125820, Note_on_c, 9, 80, 127
6, 125880, Note_off_c, 9, 80, 80
6, 125880, Note_on_c, 9, 80, 127
6, 125940, Note_off_c, 9, 80, 80
6, 125940, Note_on_c, 9, 80, 127
6, 126000, Note_off_c, 9, 80, 80
6, 126000, Note_on_c, 9, 80, 127
6, 126060, Note_off_c, 9, 80, 80
6, 126060, Note_on_c, 9, 80, 127
6, 126120, Note_off_c, 9, 80, 80
6, 126120, Note_on_c, 9, 80, 127
6, 126180, Note_off_c, 9, 80, 80
6, 126180, Note_on_c, 9, 80, 127
6, 126240, Note_off_c, 9, 80, 80
6, 126240, Note_on_c, 9, 80, 127
6, 126240, Note_on_c, 9, 39, 127
6, 126300, Note_off_c, 9, 80, 80
6, 126300, Note_off_c, 9, 39, 80
6, 126300, Note_on_c, 9, 80, 127
6, 126360, Note_off_c, 9, 80, 80
6, 126360, Note_on_c, 9, 80, 127
6, 126420, Note_off_c, 9, 80, 80
6, 126420, Note_on_c, 9, 80, 127
6, 126480, Note_off_c, 9, 80, 80
6, 126480, Note_on_c, 9, 80, 127
6, 126540, Note_off_c, 9, 80, 80
6, 126540, Note_on_c, 9, 80, 127
6, 126600, Note_off_c, 9, 80, 80
6, 126600, Note_on_c, 9, 80, 127
6, 126600, Note_on_c, 9, 39, 127
6, 126660, Note_off_c, 9, 80, 80
6, 126660, Note_off_c, 9, 39, 80
6, 126660, Note_on_c, 9, 80, 127
6, 126720, Note_off_c, 9, 80, 80
6, 126720, Note_on_c, 9, 80, 127
6, 126780, Note_off_c, 9, 80, 80
6, 126780, Note_on_c, 9, 80, 127
6, 126840, Note_off_c, 9, 80, 80
6, 126840, Note_on_c, 9, 80, 127
6, 126900, Note_off_c, 9, 80, 80
6, 126900, Note_on_c, 9, 80, 127
6, 126960, Note_off_c, 9, 80, 80
6, 126960, Note_on_c, 9, 80, 127
6, 126960, Note_on_c, 9, 39, 127
6, 127020, Note_off_c, 9, 80, 80
6, 127020, Note_off_c, 9, 39, 80
6, 127020, Note_on_c, 9, 80, 127
6, 127080, Note_off_c, 9, 80, 80
6, 127080, Note_on_c, 9, 80, 127
6, 127140, Note_off_c, 9, 80, 80
6, 127140, Note_on_c, 9, 80, 127
6, 127200, Note_off_c, 9, 80, 80
6, 127200, Note_on_c, 9, 80, 127
6, 127260, Note_off_c, 9, 80, 80
6, 127260, Note_on_c, 9, 80, 127
6, 127320, Note_off_c, 9, 80, 80
6, 127320, Note_on_c, 9, 80, 127
6, 127380, Note_off_c, 9, 80, 80
6, 127380, Note_on_c, 9, 80, 127
6, 127440, Note_off_c, 9, 80, 80
6, 127440, Note_on_c, 9, 80, 127
6, 127440, Note_on_c, 9, 39, 127
6, 127500, Note_off_c, 9, 80, 80
6, 127500, Note_off_c, 9, 39, 80
6, 127500, Note_on_c, 9, 80, 127
6, 127560, Note_off_c, 9, 80, 80
6, 127560, Note_on_c, 9, 80, 127
6, 127620, Note_off_c, 9, 80, 80
6, 127620, Note_on_c, 9, 80, 127
6, 127680, Note_off_c, 9, 80, 80
6, 127680, Note_on_c, 9, 80, 127
6, 127680, Note_on_c, 9, 39, 127
6, 127740, Note_off_c, 9, 80, 80
6, 127740, Note_off_c, 9, 39, 80
6, 127740, Note_on_c, 9, 80, 127
6, 127800, Note_off_c, 9, 80, 80
6, 127800, Note_on_c, 9, 80, 127
6, 127860, Note_off_c, 9, 80, 80
6, 127860, Note_on_c, 9, 80, 127
6, 127920, Note_off_c, 9, 80, 80
6, 127920, Note_on_c, 9, 80, 127
6, 127920, Note_on_c, 9, 39, 127
6, 127980, Note_off_c, 9, 80, 80
6, 127980, Note_off_c, 9, 39, 80
6, 127980, Note_on_c, 9, 80, 127
6, 128040, Note_off_c, 9, 80, 80
6, 128040, Note_on_c, 9, 80, 127
6, 128100, Note_off_c, 9, 80, 80
6, 128100, Note_on_c, 9, 80, 127
6, 128160, Note_off_c, 9, 80, 80
6, 128160, Note_on_c, 9, 80, 127
6, 128160, Note_on_c, 9, 39, 127
6, 128220, Note_off_c, 9, 80, 80
6, 128220, Note_off_c, 9, 39, 80
6, 128220, Note_on_c, 9, 80, 127
6, 128280, Note_off_c, 9, 80, 80
6, 128280, Note_on_c, 9, 80, 127
6, 128340, Note_off_c, 9, 80, 80
6, 128340, Note_on_c, 9, 80, 127
6, 128400, Note_off_c, 9, 80, 80
6, 128400, Note_on_c, 9, 80, 127
6, 128460, Note_off_c, 9, 80, 80
6, 128460, Note_on_c, 9, 80, 127
6, 128520, Note_off_c, 9, 80, 80
6, 128520, Note_on_c, 9, 80, 127
6, 128580, Note_off_c, 9, 80, 80
6, 128580, Note_on_c, 9, 80, 127
6, 128640, Note_off_c, 9, 80, 80
6, 128640, Note_on_c, 9, 80, 127
6, 128640, Note_on_c, 9, 39, 127
6, 128700, Note_off_c, 9, 80, 80
6, 128700, Note_off_c, 9, 39, 80
6, 128700, Note_on_c, 9, 80, 127
6, 128760, Note_off_c, 9, 80, 80
6, 128760, Note_on_c, 9, 80, 127
6, 128820, Note_off_c, 9, 80, 80
6, 128820, Note_on_c, 9, 80, 127
6, 128880, Note_off_c, 9, 80, 80
6, 128880, Note_on_c, 9, 80, 127
6, 128940, Note_off_c, 9, 80, 80
6, 128940, Note_on_c, 9, 80, 127
6, 129000, Note_off_c, 9, 80, 80
6, 129000, Note_on_c, 9, 80, 127
6, 129000, Note_on_c, 9, 39, 127
6, 129060, Note_off_c, 9, 80, 80
6, 129060, Note_off_c, 9, 39, 80
6, 129060, Note_on_c, 9, 80, 127
6, 129120, Note_off_c, 9, 80, 80
6, 129120, Note_on_c, 9, 80, 127
6, 129180, Note_off_c, 9, 80, 80
6, 129180, Note_on_c, 9, 80, 127
6, 129240, Note_off_c, 9, 80, 80
6, 129240, Note_on_c, 9, 80, 127
6, 129300, Note_off_c, 9, 80, 80
6, 129300, Note_on_c, 9, 80, 127
6, 129360, Note_off_c, 9, 80, 80
6, 129360, Note_on_c, 9, 80, 127
6, 129360, Note_on_c, 9, 39, 127
6, 129420, Note_off_c, 9, 80, 80
6, 129420, Note_off_c, 9, 39, 80
6, 129420, Note_on_c, 9, 80, 127
6, 129480, Note_off_c, 9, 80, 80
6, 129480, Note_on_c, 9, 80, 127
6, 129540, Note_off_c, 9, 80, 80
6, 129540, Note_on_c, 9, 80, 127
6, 129600, Note_off_c, 9, 80, 80
6, 129600, Note_on_c, 9, 80, 127
6, 129660, Note_off_c, 9, 80, 80
6, 129660, Note_on_c, 9, 80, 127
6, 129720, Note_off_c, 9, 80, 80
6, 129720, Note_on_c, 9, 80, 127
6, 129780, Note_off_c, 9, 80, 80
6, 129780, Note_on_c, 9, 80, 127
6, 129840, Note_off_c, 9, 80, 80
6, 129840, Note_on_c, 9, 80, 127
6, 129840, Note_on_c, 9, 39, 127
6, 129900, Note_off_c, 9, 80, 80
6, 129900, Note_off_c, 9, 39, 80
6, 129900, Note_on_c, 9, 80, 127
6, 129960, Note_off_c, 9, 80, 80
6, 129960, Note_on_c, 9, 80, 127
6, 130020, Note_off_c, 9, 80, 80
6, 130020, Note_on_c, 9, 80, 127
6, 130080, Note_off_c, 9, 80, 80
6, 130080, Note_on_c, 9, 80, 127
6, 130080, Note_on_c, 9, 39, 127
6, 130140, Note_off_c, 9, 80, 80
6, 130140, Note_off_c, 9, 39, 80
6, 130140, Note_on_c, 9, 80, 127
6, 130200, Note_off_c, 9, 80, 80
6, 130200, Note_on_c, 9, 80, 127
6, 130260, Note_off_c, 9, 80, 80
6, 130260, Note_on_c, 9, 80, 127
6, 130320, Note_off_c, 9, 80, 80
6, 130320, Note_on_c, 9, 80, 127
6, 130320, Note_on_c, 9, 39, 127
6, 130380, Note_off_c, 9, 80, 80
6, 130380, Note_off_c, 9, 39, 80
6, 130380, Note_on_c, 9, 80, 127
6, 130440, Note_off_c, 9, 80, 80
6, 130440, Note_on_c, 9, 80, 127
6, 130500, Note_off_c, 9, 80, 80
6, 130500, Note_on_c, 9, 80, 127
6, 130560, Note_off_c, 9, 80, 80
6, 130560, Note_on_c, 9, 80, 127
6, 130560, Note_on_c, 9, 39, 127
6, 130620, Note_off_c, 9, 80, 80
6, 130620, Note_off_c, 9, 39, 80
6, 130620, Note_on_c, 9, 80, 127
6, 130680, Note_off_c, 9, 80, 80
6, 130680, Note_on_c, 9, 80, 127
6, 130740, Note_off_c, 9, 80, 80
6, 130740, Note_on_c, 9, 80, 127
6, 130800, Note_off_c, 9, 80, 80
6, 130800, Note_on_c, 9, 80, 127
6, 130860, Note_off_c, 9, 80, 80
6, 130860, Note_on_c, 9, 80, 127
6, 130920, Note_off_c, 9, 80, 80
6, 130920, Note_on_c, 9, 80, 127
6, 130980, Note_off_c, 9, 80, 80
6, 130980, Note_on_c, 9, 80, 127
6, 131040, Note_off_c, 9, 80, 80
6, 131040, Note_on_c, 9, 80, 127
6, 131040, Note_on_c, 9, 39, 127
6, 131100, Note_off_c, 9, 80, 80
6, 131100, Note_off_c, 9, 39, 80
6, 131100, Note_on_c, 9, 80, 127
6, 131160, Note_off_c, 9, 80, 80
6, 131160, Note_on_c, 9, 80, 127
6, 131220, Note_off_c, 9, 80, 80
6, 131220, Note_on_c, 9, 80, 127
6, 131280, Note_off_c, 9, 80, 80
6, 131280, Note_on_c, 9, 80, 127
6, 131340, Note_off_c, 9, 80, 80
6, 131340, Note_on_c, 9, 80, 127
6, 131400, Note_off_c, 9, 80, 80
6, 131400, Note_on_c, 9, 80, 127
6, 131400, Note_on_c, 9, 39, 127
6, 131460, Note_off_c, 9, 80, 80
6, 131460, Note_off_c, 9, 39, 80
6, 131460, Note_on_c, 9, 80, 127
6, 131520, Note_off_c, 9, 80, 80
6, 131520, Note_on_c, 9, 80, 127
6, 131580, Note_off_c, 9, 80, 80
6, 131580, Note_on_c, 9, 80, 127
6, 131640, Note_off_c, 9, 80, 80
6, 131640, Note_on_c, 9, 80, 127
6, 131700, Note_off_c, 9, 80, 80
6, 131700, Note_on_c, 9, 80, 127
6, 131760, Note_off_c, 9, 80, 80
6, 131760, Note_on_c, 9, 80, 127
6, 131760, Note_on_c, 9, 39, 127
6, 131820, Note_off_c, 9, 80, 80
6, 131820, Note_off_c, 9, 39, 80
6, 131820, Note_on_c, 9, 80, 127
6, 131880, Note_off_c, 9, 80, 80
6, 131880, Note_on_c, 9, 80, 127
6, 131940, Note_off_c, 9, 80, 80
6, 131940, Note_on_c, 9, 80, 127
6, 132000, Note_off_c, 9, 80, 80
6, 132000, Note_on_c, 9, 80, 127
6, 132060, Note_off_c, 9, 80, 80
6, 132060, Note_on_c, 9, 80, 127
6, 132120, Note_off_c, 9, 80, 80
6, 132120, Note_on_c, 9, 80, 127
6, 132180, Note_off_c, 9, 80, 80
6, 132180, Note_on_c, 9, 80, 127
6, 132240, Note_off_c, 9, 80, 80
6, 132240, Note_on_c, 9, 80, 127
6, 132240, Note_on_c, 9, 39, 127
6, 132300, Note_off_c, 9, 80, 80
6, 132300, Note_off_c, 9, 39, 80
6, 132300, Note_on_c, 9, 80, 127
6, 132360, Note_off_c, 9, 80, 80
6, 132360, Note_on_c, 9, 80, 127
6, 132420, Note_off_c, 9, 80, 80
6, 132420, Note_on_c, 9, 80, 127
6, 132480, Note_off_c, 9, 80, 80
6, 132480, Note_on_c, 9, 80, 127
6, 132480, Note_on_c, 9, 39, 127
6, 132540, Note_off_c, 9, 80, 80
6, 132540, Note_off_c, 9, 39, 80
6, 132540, Note_on_c, 9, 80, 127
6, 132600, Note_off_c, 9, 80, 80
6, 132600, Note_on_c, 9, 80, 127
6, 132660, Note_off_c, 9, 80, 80
6, 132660, Note_on_c, 9, 80, 127
6, 132720, Note_off_c, 9, 80, 80
6, 132720, Note_on_c, 9, 80, 127
6, 132720, Note_on_c, 9, 39, 127
6, 132780, Note_off_c, 9, 80, 80
6, 132780, Note_off_c, 9, 39, 80
6, 132780, Note_on_c, 9, 80, 127
6, 132840, Note_off_c, 9, 80, 80
6, 132840, Note_on_c, 9, 80, 127
6, 132900, Note_off_c, 9, 80, 80
6, 132900, Note_on_c, 9, 80, 127
6, 132960, Note_off_c, 9, 80, 80
6, 132960, Note_on_c, 9, 80, 127
6, 132960, Note_on_c, 9, 39, 127
6, 133020, Note_off_c, 9, 80, 80
6, 133020, Note_off_c, 9, 39, 80
6, 133020, Note_on_c, 9, 80, 127
6, 133080, Note_off_c, 9, 80, 80
6, 133080, Note_on_c, 9, 80, 127
6, 133140, Note_off_c, 9, 80, 80
6, 133140, Note_on_c, 9, 80, 127
6, 133200, Note_off_c, 9, 80, 80
6, 133200, Note_on_c, 9, 80, 127
6, 133260, Note_off_c, 9, 80, 80
6, 133260, Note_on_c, 9, 80, 127
6, 133320, Note_off_c, 9, 80, 80
6, 133320, Note_on_c, 9, 80, 127
6, 133380, Note_off_c, 9, 80, 80
6, 133380, Note_on_c, 9, 80, 127
6, 133440, Note_off_c, 9, 80, 80
6, 133440, Note_on_c, 9, 80, 127
6, 133440, Note_on_c, 9, 39, 127
6, 133500, Note_off_c, 9, 80, 80
6, 133500, Note_off_c, 9, 39, 80
6, 133500, Note_on_c, 9, 80, 127
6, 133560, Note_off_c, 9, 80, 80
6, 133560, Note_on_c, 9, 80, 127
6, 133620, Note_off_c, 9, 80, 80
6, 133620, Note_on_c, 9, 80, 127
6, 133680, Note_off_c, 9, 80, 80
6, 133680, Note_on_c, 9, 80, 127
6, 133740, Note_off_c, 9, 80, 80
6, 133740, Note_on_c, 9, 80, 127
6, 133800, Note_off_c, 9, 80, 80
6, 133800, Note_on_c, 9, 80, 127
6, 133800, Note_on_c, 9, 39, 127
6, 133860, Note_off_c, 9, 80, 80
6, 133860, Note_off_c, 9, 39, 80
6, 133860, Note_on_c, 9, 80, 127
6, 133920, Note_off_c, 9, 80, 80
6, 133920, Note_on_c, 9, 80, 127
6, 133980, Note_off_c, 9, 80, 80
6, 133980, Note_on_c, 9, 80, 127
6, 134040, Note_off_c, 9, 80, 80
6, 134040, Note_on_c, 9, 80, 127
6, 134100, Note_off_c, 9, 80, 80
6, 134100, Note_on_c, 9, 80, 127
6, 134160, Note_off_c, 9, 80, 80
6, 134160, Note_on_c, 9, 80, 127
6, 134160, Note_on_c, 9, 39, 127
6, 134220, Note_off_c, 9, 80, 80
6, 134220, Note_off_c, 9, 39, 80
6, 134220, Note_on_c, 9, 80, 127
6, 134280, Note_off_c, 9, 80, 80
6, 134280, Note_on_c, 9, 80, 127
6, 134340, Note_off_c, 9, 80, 80
6, 134340, Note_on_c, 9, 80, 127
6, 134400, Note_off_c, 9, 80, 80
6, 134400, Note_on_c, 9, 57, 127
6, 134640, Note_off_c, 9, 57, 80
6, 134640, Note_on_c, 9, 39, 111
6, 134880, Note_off_c, 9, 39, 80
6, 134880, Note_on_c, 9, 39, 111
6, 135120, Note_off_c, 9, 39, 80
6, 135120, Note_on_c, 9, 39, 111
6, 135360, Note_off_c, 9, 39, 80
6, 135360, Note_on_c, 9, 39, 111
6, 135840, Note_off_c, 9, 39, 80
6, 135840, Note_on_c, 9, 39, 111
6, 136200, Note_off_c, 9, 39, 80
6, 136200, Note_on_c, 9, 39, 111
6, 136560, Note_off_c, 9, 39, 80
6, 136560, Note_on_c, 9, 39, 111
6, 136800, Note_off_c, 9, 39, 80
6, 136800, Note_on_c, 9, 80, 127
6, 136860, Note_off_c, 9, 80, 80
6, 136860, Note_on_c, 9, 80, 127
6, 136920, Note_off_c, 9, 80, 80
6, 136920, Note_on_c, 9, 80, 127
6, 136980, Note_off_c, 9, 80, 80
6, 136980, Note_on_c, 9, 80, 127
6, 137040, Note_off_c, 9, 80, 80
6, 137040, Note_on_c, 9, 80, 127
6, 137040, Note_on_c, 9, 39, 127
6, 137100, Note_off_c, 9, 80, 80
6, 137100, Note_off_c, 9, 39, 80
6, 137100, Note_on_c, 9, 80, 127
6, 137160, Note_off_c, 9, 80, 80
6, 137160, Note_on_c, 9, 80, 127
6, 137220, Note_off_c, 9, 80, 80
6, 137220, Note_on_c, 9, 80, 127
6, 137280, Note_off_c, 9, 80, 80
6, 137280, Note_on_c, 9, 80, 127
6, 137280, Note_on_c, 9, 39, 127
6, 137340, Note_off_c, 9, 80, 80
6, 137340, Note_off_c, 9, 39, 80
6, 137340, Note_on_c, 9, 80, 127
6, 137400, Note_off_c, 9, 80, 80
6, 137400, Note_on_c, 9, 80, 127
6, 137460, Note_off_c, 9, 80, 80
6, 137460, Note_on_c, 9, 80, 127
6, 137520, Note_off_c, 9, 80, 80
6, 137520, Note_on_c, 9, 80, 127
6, 137520, Note_on_c, 9, 39, 127
6, 137580, Note_off_c, 9, 80, 80
6, 137580, Note_off_c, 9, 39, 80
6, 137580, Note_on_c, 9, 80, 127
6, 137640, Note_off_c, 9, 80, 80
6, 137640, Note_on_c, 9, 80, 127
6, 137700, Note_off_c, 9, 80, 80
6, 137700, Note_on_c, 9, 80, 127
6, 137760, Note_off_c, 9, 80, 80
6, 137760, Note_on_c, 9, 80, 127
6, 137760, Note_on_c, 9, 39, 127
6, 137820, Note_off_c, 9, 80, 80
6, 137820, Note_off_c, 9, 39, 80
6, 137820, Note_on_c, 9, 80, 127
6, 137880, Note_off_c, 9, 80, 80
6, 137880, Note_on_c, 9, 80, 127
6, 137940, Note_off_c, 9, 80, 80
6, 137940, Note_on_c, 9, 80, 127
6, 138000, Note_off_c, 9, 80, 80
6, 138000, Note_on_c, 9, 80, 127
6, 138060, Note_off_c, 9, 80, 80
6, 138060, Note_on_c, 9, 80, 127
6, 138120, Note_off_c, 9, 80, 80
6, 138120, Note_on_c, 9, 80, 127
6, 138180, Note_off_c, 9, 80, 80
6, 138180, Note_on_c, 9, 80, 127
6, 138240, Note_off_c, 9, 80, 80
6, 138240, Note_on_c, 9, 80, 127
6, 138240, Note_on_c, 9, 39, 127
6, 138300, Note_off_c, 9, 80, 80
6, 138300, Note_off_c, 9, 39, 80
6, 138300, Note_on_c, 9, 80, 127
6, 138360, Note_off_c, 9, 80, 80
6, 138360, Note_on_c, 9, 80, 127
6, 138420, Note_off_c, 9, 80, 80
6, 138420, Note_on_c, 9, 80, 127
6, 138480, Note_off_c, 9, 80, 80
6, 138480, Note_on_c, 9, 80, 127
6, 138540, Note_off_c, 9, 80, 80
6, 138540, Note_on_c, 9, 80, 127
6, 138600, Note_off_c, 9, 80, 80
6, 138600, Note_on_c, 9, 80, 127
6, 138600, Note_on_c, 9, 39, 127
6, 138660, Note_off_c, 9, 80, 80
6, 138660, Note_off_c, 9, 39, 80
6, 138660, Note_on_c, 9, 80, 127
6, 138720, Note_off_c, 9, 80, 80
6, 138720, Note_on_c, 9, 80, 127
6, 138780, Note_off_c, 9, 80, 80
6, 138780, Note_on_c, 9, 80, 127
6, 138840, Note_off_c, 9, 80, 80
6, 138840, Note_on_c, 9, 80, 127
6, 138900, Note_off_c, 9, 80, 80
6, 138900, Note_on_c, 9, 80, 127
6, 138960, Note_off_c, 9, 80, 80
6, 138960, Note_on_c, 9, 80, 127
6, 138960, Note_on_c, 9, 39, 127
6, 139020, Note_off_c, 9, 80, 80
6, 139020, Note_off_c, 9, 39, 80
6, 139020, Note_on_c, 9, 80, 127
6, 139080, Note_off_c, 9, 80, 80
6, 139080, Note_on_c, 9, 80, 127
6, 139140, Note_off_c, 9, 80, 80
6, 139140, Note_on_c, 9, 80, 127
6, 139200, Note_off_c, 9, 80, 80
6, 139200, Note_on_c, 9, 80, 127
6, 139260, Note_off_c, 9, 80, 80
6, 139260, Note_on_c, 9, 80, 127
6, 139320, Note_off_c, 9, 80, 80
6, 139320, Note_on_c, 9, 80, 127
6, 139380, Note_off_c, 9, 80, 80
6, 139380, Note_on_c, 9, 80, 127
6, 139440, Note_off_c, 9, 80, 80
6, 139440, Note_on_c, 9, 80, 127
6, 139440, Note_on_c, 9, 39, 127
6, 139500, Note_off_c, 9, 80, 80
6, 139500, Note_off_c, 9, 39, 80
6, 139500, Note_on_c, 9, 80, 127
6, 139560, Note_off_c, 9, 80, 80
6, 139560, Note_on_c, 9, 80, 127
6, 139620, Note_off_c, 9, 80, 80
6, 139620, Note_on_c, 9, 80, 127
6, 139680, Note_off_c, 9, 80, 80
6, 139680, Note_on_c, 9, 80, 127
6, 139680, Note_on_c, 9, 39, 127
6, 139740, Note_off_c, 9, 80, 80
6, 139740, Note_off_c, 9, 39, 80
6, 139740, Note_on_c, 9, 80, 127
6, 139800, Note_off_c, 9, 80, 80
6, 139800, Note_on_c, 9, 80, 127
6, 139860, Note_off_c, 9, 80, 80
6, 139860, Note_on_c, 9, 80, 127
6, 139920, Note_off_c, 9, 80, 80
6, 139920, Note_on_c, 9, 80, 127
6, 139920, Note_on_c, 9, 39, 127
6, 139980, Note_off_c, 9, 80, 80
6, 139980, Note_off_c, 9, 39, 80
6, 139980, Note_on_c, 9, 80, 127
6, 140040, Note_off_c, 9, 80, 80
6, 140040, Note_on_c, 9, 80, 127
6, 140100, Note_off_c, 9, 80, 80
6, 140100, Note_on_c, 9, 80, 127
6, 140160, Note_off_c, 9, 80, 80
6, 140160, Note_on_c, 9, 80, 127
6, 140160, Note_on_c, 9, 39, 127
6, 140220, Note_off_c, 9, 80, 80
6, 140220, Note_off_c, 9, 39, 80
6, 140220, Note_on_c, 9, 80, 127
6, 140280, Note_off_c, 9, 80, 80
6, 140280, Note_on_c, 9, 80, 127
6, 140340, Note_off_c, 9, 80, 80
6, 140340, Note_on_c, 9, 80, 127
6, 140400, Note_off_c, 9, 80, 80
6, 140400, Note_on_c, 9, 80, 127
6, 140460, Note_off_c, 9, 80, 80
6, 140460, Note_on_c, 9, 80, 127
6, 140520, Note_off_c, 9, 80, 80
6, 140520, Note_on_c, 9, 80, 127
6, 140580, Note_off_c, 9, 80, 80
6, 140580, Note_on_c, 9, 80, 127
6, 140640, Note_off_c, 9, 80, 80
6, 140640, Note_on_c, 9, 80, 127
6, 140640, Note_on_c, 9, 39, 127
6, 140700, Note_off_c, 9, 80, 80
6, 140700, Note_off_c, 9, 39, 80
6, 140700, Note_on_c, 9, 80, 127
6, 140760, Note_off_c, 9, 80, 80
6, 140760, Note_on_c, 9, 80, 127
6, 140820, Note_off_c, 9, 80, 80
6, 140820, Note_on_c, 9, 80, 127
6, 140880, Note_off_c, 9, 80, 80
6, 140880, Note_on_c, 9, 80, 127
6, 140940, Note_off_c, 9, 80, 80
6, 140940, Note_on_c, 9, 80, 127
6, 141000, Note_off_c, 9, 80, 80
6, 141000, Note_on_c, 9, 80, 127
6, 141000, Note_on_c, 9, 39, 127
6, 141060, Note_off_c, 9, 80, 80
6, 141060, Note_off_c, 9, 39, 80
6, 141060, Note_on_c, 9, 80, 127
6, 141120, Note_off_c, 9, 80, 80
6, 141120, Note_on_c, 9, 80, 127
6, 141180, Note_off_c, 9, 80, 80
6, 141180, Note_on_c, 9, 80, 127
6, 141240, Note_off_c, 9, 80, 80
6, 141240, Note_on_c, 9, 80, 127
6, 141300, Note_off_c, 9, 80, 80
6, 141300, Note_on_c, 9, 80, 127
6, 141360, Note_off_c, 9, 80, 80
6, 141360, Note_on_c, 9, 80, 127
6, 141360, Note_on_c, 9, 39, 127
6, 141420, Note_off_c, 9, 80, 80
6, 141420, Note_off_c, 9, 39, 80
6, 141420, Note_on_c, 9, 80, 127
6, 141480, Note_off_c, 9, 80, 80
6, 141480, Note_on_c, 9, 80, 127
6, 141540, Note_off_c, 9, 80, 80
6, 141540, Note_on_c, 9, 80, 127
6, 141600, Note_off_c, 9, 80, 80
6, 141600, Note_on_c, 9, 80, 127
6, 141660, Note_off_c, 9, 80, 80
6, 141660, Note_on_c, 9, 80, 127
6, 141720, Note_off_c, 9, 80, 80
6, 141720, Note_on_c, 9, 80, 127
6, 141780, Note_off_c, 9, 80, 80
6, 141780, Note_on_c, 9, 80, 127
6, 141840, Note_off_c, 9, 80, 80
6, 141840, Note_on_c, 9, 80, 127
6, 141840, Note_on_c, 9, 39, 127
6, 141900, Note_off_c, 9, 80, 80
6, 141900, Note_off_c, 9, 39, 80
6, 141900, Note_on_c, 9, 80, 127
6, 141960, Note_off_c, 9, 80, 80
6, 141960, Note_on_c, 9, 80, 127
6, 142020, Note_off_c, 9, 80, 80
6, 142020, Note_on_c, 9, 80, 127
6, 142080, Note_off_c, 9, 80, 80
6, 142080, Note_on_c, 9, 80, 127
6, 142080, Note_on_c, 9, 39, 127
6, 142140, Note_off_c, 9, 80, 80
6, 142140, Note_off_c, 9, 39, 80
6, 142140, Note_on_c, 9, 80, 127
6, 142200, Note_off_c, 9, 80, 80
6, 142200, Note_on_c, 9, 80, 127
6, 142260, Note_off_c, 9, 80, 80
6, 142260, Note_on_c, 9, 80, 127
6, 142320, Note_off_c, 9, 80, 80
6, 142320, Note_on_c, 9, 80, 127
6, 142320, Note_on_c, 9, 39, 127
6, 142380, Note_off_c, 9, 80, 80
6, 142380, Note_off_c, 9, 39, 80
6, 142380, Note_on_c, 9, 80, 127
6, 142440, Note_off_c, 9, 80, 80
6, 142440, Note_on_c, 9, 80, 127
6, 142500, Note_off_c, 9, 80, 80
6, 142500, Note_on_c, 9, 80, 127
6, 142560, Note_off_c, 9, 80, 80
6, 142560, Note_on_c, 9, 80, 127
6, 142560, Note_on_c, 9, 39, 127
6, 142620, Note_off_c, 9, 80, 80
6, 142620, Note_off_c, 9, 39, 80
6, 142620, Note_on_c, 9, 80, 127
6, 142680, Note_off_c, 9, 80, 80
6, 142680, Note_on_c, 9, 80, 127
6, 142740, Note_off_c, 9, 80, 80
6, 142740, Note_on_c, 9, 80, 127
6, 142800, Note_off_c, 9, 80, 80
6, 142800, Note_on_c, 9, 80, 127
6, 142860, Note_off_c, 9, 80, 80
6, 142860, Note_on_c, 9, 80, 127
6, 142920, Note_off_c, 9, 80, 80
6, 142920, Note_on_c, 9, 80, 127
6, 142980, Note_off_c, 9, 80, 80
6, 142980, Note_on_c, 9, 80, 127
6, 143040, Note_off_c, 9, 80, 80
6, 143040, Note_on_c, 9, 80, 127
6, 143040, Note_on_c, 9, 39, 127
6, 143100, Note_off_c, 9, 80, 80
6, 143100, Note_off_c, 9, 39, 80
6, 143100, Note_on_c, 9, 80, 127
6, 143160, Note_off_c, 9, 80, 80
6, 143160, Note_on_c, 9, 80, 127
6, 143220, Note_off_c, 9, 80, 80
6, 143220, Note_on_c, 9, 80, 127
6, 143280, Note_off_c, 9, 80, 80
6, 143280, Note_on_c, 9, 80, 127
6, 143340, Note_off_c, 9, 80, 80
6, 143340, Note_on_c, 9, 80, 127
6, 143400, Note_off_c, 9, 80, 80
6, 143400, Note_on_c, 9, 80, 127
6, 143400, Note_on_c, 9, 39, 127
6, 143460, Note_off_c, 9, 80, 80
6, 143460, Note_off_c, 9, 39, 80
6, 143460, Note_on_c, 9, 80, 127
6, 143520, Note_off_c, 9, 80, 80
6, 143520, Note_on_c, 9, 80, 127
6, 143580, Note_off_c, 9, 80, 80
6, 143580, Note_on_c, 9, 80, 127
6, 143640, Note_off_c, 9, 80, 80
6, 143640, Note_on_c, 9, 80, 127
6, 143700, Note_off_c, 9, 80, 80
6, 143700, Note_on_c, 9, 80, 127
6, 143760, Note_off_c, 9, 80, 80
6, 143760, Note_on_c, 9, 80, 127
6, 143760, Note_on_c, 9, 39, 127
6, 143820, Note_off_c, 9, 80, 80
6, 143820, Note_off_c, 9, 39, 80
6, 143820, Note_on_c, 9, 80, 127
6, 143880, Note_off_c, 9, 80, 80
6, 143880, Note_on_c, 9, 80, 127
6, 143940, Note_off_c, 9, 80, 80
6, 143940, Note_on_c, 9, 80, 127
6, 144000, Note_off_c, 9, 80, 80
6, 144000, Note_on_c, 9, 80, 127
6, 144060, Note_off_c, 9, 80, 80
6, 144060, Note_on_c, 9, 80, 127
6, 144120, Note_off_c, 9, 80, 80
6, 144120, Note_on_c, 9, 80, 127
6, 144180, Note_off_c, 9, 80, 80
6, 144180, Note_on_c, 9, 80, 127
6, 144240, Note_off_c, 9, 80, 80
6, 144240, Note_on_c, 9, 80, 127
6, 144240, Note_on_c, 9, 39, 127
6, 144300, Note_off_c, 9, 80, 80
6, 144300, Note_off_c, 9, 39, 80
6, 144300, Note_on_c, 9, 80, 127
6, 144360, Note_off_c, 9, 80, 80
6, 144360, Note_on_c, 9, 80, 127
6, 144420, Note_off_c, 9, 80, 80
6, 144420, Note_on_c, 9, 80, 127
6, 144480, Note_off_c, 9, 80, 80
6, 144480, Note_on_c, 9, 80, 127
6, 144480, Note_on_c, 9, 39, 127
6, 144540, Note_off_c, 9, 80, 80
6, 144540, Note_off_c, 9, 39, 80
6, 144540, Note_on_c, 9, 80, 127
6, 144600, Note_off_c, 9, 80, 80
6, 144600, Note_on_c, 9, 80, 127
6, 144660, Note_off_c, 9, 80, 80
6, 144660, Note_on_c, 9, 80, 127
6, 144720, Note_off_c, 9, 80, 80
6, 144720, Note_on_c, 9, 80, 127
6, 144720, Note_on_c, 9, 39, 127
6, 144780, Note_off_c, 9, 80, 80
6, 144780, Note_off_c, 9, 39, 80
6, 144780, Note_on_c, 9, 80, 127
6, 144840, Note_off_c, 9, 80, 80
6, 144840, Note_on_c, 9, 80, 127
6, 144900, Note_off_c, 9, 80, 80
6, 144900, Note_on_c, 9, 80, 127
6, 144960, Note_off_c, 9, 80, 80
6, 144960, Note_on_c, 9, 80, 127
6, 144960, Note_on_c, 9, 39, 127
6, 145020, Note_off_c, 9, 80, 80
6, 145020, Note_off_c, 9, 39, 80
6, 145020, Note_on_c, 9, 80, 127
6, 145080, Note_off_c, 9, 80, 80
6, 145080, Note_on_c, 9, 80, 127
6, 145140, Note_off_c, 9, 80, 80
6, 145140, Note_on_c, 9, 80, 127
6, 145200, Note_off_c, 9, 80, 80
6, 145200, Note_on_c, 9, 80, 127
6, 145260, Note_off_c, 9, 80, 80
6, 145260, Note_on_c, 9, 80, 127
6, 145320, Note_off_c, 9, 80, 80
6, 145320, Note_on_c, 9, 80, 127
6, 145380, Note_off_c, 9, 80, 80
6, 145380, Note_on_c, 9, 80, 127
6, 145440, Note_off_c, 9, 80, 80
6, 145440, Note_on_c, 9, 80, 127
6, 145440, Note_on_c, 9, 39, 127
6, 145500, Note_off_c, 9, 80, 80
6, 145500, Note_off_c, 9, 39, 80
6, 145500, Note_on_c, 9, 80, 127
6, 145560, Note_off_c, 9, 80, 80
6, 145560, Note_on_c, 9, 80, 127
6, 145620, Note_off_c, 9, 80, 80
6, 145620, Note_on_c, 9, 80, 127
6, 145680, Note_off_c, 9, 80, 80
6, 145680, Note_on_c, 9, 80, 127
6, 145740, Note_off_c, 9, 80, 80
6, 145740, Note_on_c, 9, 80, 127
6, 145800, Note_off_c, 9, 80, 80
6, 145800, Note_on_c, 9, 80, 127
6, 145800, Note_on_c, 9, 39, 127
6, 145860, Note_off_c, 9, 80, 80
6, 145860, Note_off_c, 9, 39, 80
6, 145860, Note_on_c, 9, 80, 127
6, 145920, Note_off_c, 9, 80, 80
6, 145920, Note_on_c, 9, 80, 127
6, 145980, Note_off_c, 9, 80, 80
6, 145980, Note_on_c, 9, 80, 127
6, 146040, Note_off_c, 9, 80, 80
6, 146040, Note_on_c, 9, 80, 127
6, 146100, Note_off_c, 9, 80, 80
6, 146100, Note_on_c, 9, 80, 127
6, 146160, Note_off_c, 9, 80, 80
6, 146160, Note_on_c, 9, 80, 127
6, 146160, Note_on_c, 9, 39, 127
6, 146220, Note_off_c, 9, 80, 80
6, 146220, Note_off_c, 9, 39, 80
6, 146220, Note_on_c, 9, 80, 127
6, 146280, Note_off_c, 9, 80, 80
6, 146280, Note_on_c, 9, 80, 127
6, 146340, Note_off_c, 9, 80, 80
6, 146340, Note_on_c, 9, 80, 127
6, 146400, Note_off_c, 9, 80, 80
6, 146400, Note_on_c, 9, 80, 127
6, 146460, Note_off_c, 9, 80, 80
6, 146460, Note_on_c, 9, 80, 127
6, 146520, Note_off_c, 9, 80, 80
6, 146520, Note_on_c, 9, 80, 127
6, 146580, Note_off_c, 9, 80, 80
6, 146580, Note_on_c, 9, 80, 127
6, 146640, Note_off_c, 9, 80, 80
6, 146640, Note_on_c, 9, 80, 127
6, 146640, Note_on_c, 9, 39, 127
6, 146700, Note_off_c, 9, 80, 80
6, 146700, Note_off_c, 9, 39, 80
6, 146700, Note_on_c, 9, 80, 127
6, 146760, Note_off_c, 9, 80, 80
6, 146760, Note_on_c, 9, 80, 127
6, 146820, Note_off_c, 9, 80, 80
6, 146820, Note_on_c, 9, 80, 127
6, 146880, Note_off_c, 9, 80, 80
6, 146880, Note_on_c, 9, 80, 127
6, 146880, Note_on_c, 9, 39, 127
6, 146940, Note_off_c, 9, 80, 80
6, 146940, Note_off_c, 9, 39, 80
6, 146940, Note_on_c, 9, 80, 127
6, 147000, Note_off_c, 9, 80, 80
6, 147000, Note_on_c, 9, 80, 127
6, 147060, Note_off_c, 9, 80, 80
6, 147060, Note_on_c, 9, 80, 127
6, 147120, Note_off_c, 9, 80, 80
6, 147120, Note_on_c, 9, 80, 127
6, 147120, Note_on_c, 9, 39, 127
6, 147180, Note_off_c, 9, 80, 80
6, 147180, Note_off_c, 9, 39, 80
6, 147180, Note_on_c, 9, 80, 127
6, 147240, Note_off_c, 9, 80, 80
6, 147240, Note_on_c, 9, 80, 127
6, 147300, Note_off_c, 9, 80, 80
6, 147300, Note_on_c, 9, 80, 127
6, 147360, Note_off_c, 9, 80, 80
6, 147360, Note_on_c, 9, 80, 127
6, 147360, Note_on_c, 9, 39, 127
6, 147420, Note_off_c, 9, 80, 80
6, 147420, Note_off_c, 9, 39, 80
6, 147420, Note_on_c, 9, 80, 127
6, 147480, Note_off_c, 9, 80, 80
6, 147480, Note_on_c, 9, 80, 127
6, 147540, Note_off_c, 9, 80, 80
6, 147540, Note_on_c, 9, 80, 127
6, 147600, Note_off_c, 9, 80, 80
6, 147600, Note_on_c, 9, 80, 127
6, 147660, Note_off_c, 9, 80, 80
6, 147660, Note_on_c, 9, 80, 127
6, 147720, Note_off_c, 9, 80, 80
6, 147720, Note_on_c, 9, 80, 127
6, 147780, Note_off_c, 9, 80, 80
6, 147780, Note_on_c, 9, 80, 127
6, 147840, Note_off_c, 9, 80, 80
6, 147840, Note_on_c, 9, 80, 127
6, 147840, Note_on_c, 9, 39, 127
6, 147900, Note_off_c, 9, 80, 80
6, 147900, Note_off_c, 9, 39, 80
6, 147900, Note_on_c, 9, 80, 127
6, 147960, Note_off_c, 9, 80, 80
6, 147960, Note_on_c, 9, 80, 127
6, 148020, Note_off_c, 9, 80, 80
6, 148020, Note_on_c, 9, 80, 127
6, 148080, Note_off_c, 9, 80, 80
6, 148080, Note_on_c, 9, 80, 127
6, 148140, Note_off_c, 9, 80, 80
6, 148140, Note_on_c, 9, 80, 127
6, 148200, Note_off_c, 9, 80, 80
6, 148200, Note_on_c, 9, 80, 127
6, 148200, Note_on_c, 9, 39, 127
6, 148260, Note_off_c, 9, 80, 80
6, 148260, Note_off_c, 9, 39, 80
6, 148260, Note_on_c, 9, 80, 127
6, 148320, Note_off_c, 9, 80, 80
6, 148320, Note_on_c, 9, 80, 127
6, 148380, Note_off_c, 9, 80, 80
6, 148380, Note_on_c, 9, 80, 127
6, 148440, Note_off_c, 9, 80, 80
6, 148440, Note_on_c, 9, 80, 127
6, 148500, Note_off_c, 9, 80, 80
6, 148500, Note_on_c, 9, 80, 127
6, 148560, Note_off_c, 9, 80, 80
6, 148560, Note_on_c, 9, 80, 127
6, 148560, Note_on_c, 9, 39, 127
6, 148620, Note_off_c, 9, 80, 80
6, 148620, Note_off_c, 9, 39, 80
6, 148620, Note_on_c, 9, 80, 127
6, 148680, Note_off_c, 9, 80, 80
6, 148680, Note_on_c, 9, 80, 127
6, 148740, Note_off_c, 9, 80, 80
6, 148740, Note_on_c, 9, 80, 127
6, 148800, Note_off_c, 9, 80, 80
6, 148800, Note_on_c, 9, 80, 127
6, 148860, Note_off_c, 9, 80, 80
6, 148860, Note_on_c, 9, 80, 127
6, 148920, Note_off_c, 9, 80, 80
6, 148920, Note_on_c, 9, 80, 127
6, 148980, Note_off_c, 9, 80, 80
6, 148980, Note_on_c, 9, 80, 127
6, 149040, Note_off_c, 9, 80, 80
6, 149040, Note_on_c, 9, 80, 127
6, 149040, Note_on_c, 9, 39, 127
6, 149100, Note_off_c, 9, 80, 80
6, 149100, Note_off_c, 9, 39, 80
6, 149100, Note_on_c, 9, 80, 127
6, 149160, Note_off_c, 9, 80, 80
6, 149160, Note_on_c, 9, 80, 127
6, 149220, Note_off_c, 9, 80, 80
6, 149220, Note_on_c, 9, 80, 127
6, 149280, Note_off_c, 9, 80, 80
6, 149280, Note_on_c, 9, 80, 127
6, 149280, Note_on_c, 9, 39, 127
6, 149340, Note_off_c, 9, 80, 80
6, 149340, Note_off_c, 9, 39, 80
6, 149340, Note_on_c, 9, 80, 127
6, 149400, Note_off_c, 9, 80, 80
6, 149400, Note_on_c, 9, 80, 127
6, 149460, Note_off_c, 9, 80, 80
6, 149460, Note_on_c, 9, 80, 127
6, 149520, Note_off_c, 9, 80, 80
6, 149520, Note_on_c, 9, 80, 127
6, 149520, Note_on_c, 9, 39, 127
6, 149580, Note_off_c, 9, 80, 80
6, 149580, Note_off_c, 9, 39, 80
6, 149580, Note_on_c, 9, 80, 127
6, 149640, Note_off_c, 9, 80, 80
6, 149640, Note_on_c, 9, 80, 127
6, 149700, Note_off_c, 9, 80, 80
6, 149700, Note_on_c, 9, 80, 127
6, 149760, Note_off_c, 9, 80, 80
6, 149760, Note_on_c, 9, 80, 127
6, 149760, Note_on_c, 9, 39, 127
6, 149820, Note_off_c, 9, 80, 80
6, 149820, Note_off_c, 9, 39, 80
6, 149820, Note_on_c, 9, 80, 127
6, 149880, Note_off_c, 9, 80, 80
6, 149880, Note_on_c, 9, 80, 127
6, 149940, Note_off_c, 9, 80, 80
6, 149940, Note_on_c, 9, 80, 127
6, 150000, Note_off_c, 9, 80, 80
6, 150000, Note_on_c, 9, 80, 127
6, 150060, Note_off_c, 9, 80, 80
6, 150060, Note_on_c, 9, 80, 127
6, 150120, Note_off_c, 9, 80, 80
6, 150120, Note_on_c, 9, 80, 127
6, 150180, Note_off_c, 9, 80, 80
6, 150180, Note_on_c, 9, 80, 127
6, 150240, Note_off_c, 9, 80, 80
6, 150240, Note_on_c, 9, 80, 127
6, 150240, Note_on_c, 9, 39, 127
6, 150300, Note_off_c, 9, 80, 80
6, 150300, Note_off_c, 9, 39, 80
6, 150300, Note_on_c, 9, 80, 127
6, 150360, Note_off_c, 9, 80, 80
6, 150360, Note_on_c, 9, 80, 127
6, 150420, Note_off_c, 9, 80, 80
6, 150420, Note_on_c, 9, 80, 127
6, 150480, Note_off_c, 9, 80, 80
6, 150480, Note_on_c, 9, 80, 127
6, 150540, Note_off_c, 9, 80, 80
6, 150540, Note_on_c, 9, 80, 127
6, 150600, Note_off_c, 9, 80, 80
6, 150600, Note_on_c, 9, 80, 127
6, 150600, Note_on_c, 9, 39, 127
6, 150660, Note_off_c, 9, 80, 80
6, 150660, Note_off_c, 9, 39, 80
6, 150660, Note_on_c, 9, 80, 127
6, 150720, Note_off_c, 9, 80, 80
6, 150720, Note_on_c, 9, 80, 127
6, 150780, Note_off_c, 9, 80, 80
6, 150780, Note_on_c, 9, 80, 127
6, 150840, Note_off_c, 9, 80, 80
6, 150840, Note_on_c, 9, 80, 127
6, 150900, Note_off_c, 9, 80, 80
6, 150900, Note_on_c, 9, 80, 127
6, 150960, Note_off_c, 9, 80, 80
6, 150960, Note_on_c, 9, 80, 127
6, 150960, Note_on_c, 9, 39, 127
6, 151020, Note_off_c, 9, 80, 80
6, 151020, Note_off_c, 9, 39, 80
6, 151020, Note_on_c, 9, 80, 127
6, 151080, Note_off_c, 9, 80, 80
6, 151080, Note_on_c, 9, 80, 127
6, 151140, Note_off_c, 9, 80, 80
6, 151140, Note_on_c, 9, 80, 127
6, 151200, Note_off_c, 9, 80, 80
6, 151200, Note_on_c, 9, 80, 127
6, 151260, Note_off_c, 9, 80, 80
6, 151260, Note_on_c, 9, 80, 127
6, 151320, Note_off_c, 9, 80, 80
6, 151320, Note_on_c, 9, 80, 127
6, 151380, Note_off_c, 9, 80, 80
6, 151380, Note_on_c, 9, 80, 127
6, 151440, Note_off_c, 9, 80, 80
6, 151440, Note_on_c, 9, 80, 127
6, 151440, Note_on_c, 9, 39, 127
6, 151500, Note_off_c, 9, 80, 80
6, 151500, Note_off_c, 9, 39, 80
6, 151500, Note_on_c, 9, 80, 127
6, 151560, Note_off_c, 9, 80, 80
6, 151560, Note_on_c, 9, 80, 127
6, 151620, Note_off_c, 9, 80, 80
6, 151620, Note_on_c, 9, 80, 127
6, 151680, Note_off_c, 9, 80, 80
6, 151680, Note_on_c, 9, 80, 127
6, 151680, Note_on_c, 9, 39, 127
6, 151740, Note_off_c, 9, 80, 80
6, 151740, Note_off_c, 9, 39, 80
6, 151740, Note_on_c, 9, 80, 127
6, 151800, Note_off_c, 9, 80, 80
6, 151800, Note_on_c, 9, 80, 127
6, 151860, Note_off_c, 9, 80, 80
6, 151860, Note_on_c, 9, 80, 127
6, 151920, Note_off_c, 9, 80, 80
6, 151920, Note_on_c, 9, 80, 127
6, 151920, Note_on_c, 9, 39, 127
6, 151980, Note_off_c, 9, 80, 80
6, 151980, Note_off_c, 9, 39, 80
6, 151980, Note_on_c, 9, 80, 127
6, 152040, Note_off_c, 9, 80, 80
6, 152040, Note_on_c, 9, 80, 127
6, 152100, Note_off_c, 9, 80, 80
6, 152100, Note_on_c, 9, 80, 127
6, 152160, Note_off_c, 9, 80, 80
6, 152160, Note_on_c, 9, 80, 127
6, 152160, Note_on_c, 9, 39, 127
6, 152220, Note_off_c, 9, 80, 80
6, 152220, Note_off_c, 9, 39, 80
6, 152220, Note_on_c, 9, 80, 127
6, 152280, Note_off_c, 9, 80, 80
6, 152280, Note_on_c, 9, 80, 127
6, 152340, Note_off_c, 9, 80, 80
6, 152340, Note_on_c, 9, 80, 127
6, 152400, Note_off_c, 9, 80, 80
6, 152400, Note_on_c, 9, 80, 127
6, 152460, Note_off_c, 9, 80, 80
6, 152460, Note_on_c, 9, 80, 127
6, 152520, Note_off_c, 9, 80, 80
6, 152520, Note_on_c, 9, 80, 127
6, 152580, Note_off_c, 9, 80, 80
6, 152580, Note_on_c, 9, 80, 127
6, 152640, Note_off_c, 9, 80, 80
6, 152640, Note_on_c, 9, 80, 127
6, 152640, Note_on_c, 9, 39, 127
6, 152700, Note_off_c, 9, 80, 80
6, 152700, Note_off_c, 9, 39, 80
6, 152700, Note_on_c, 9, 80, 127
6, 152760, Note_off_c, 9, 80, 80
6, 152760, Note_on_c, 9, 80, 127
6, 152820, Note_off_c, 9, 80, 80
6, 152820, Note_on_c, 9, 80, 127
6, 152880, Note_off_c, 9, 80, 80
6, 152880, Note_on_c, 9, 80, 127
6, 152940, Note_off_c, 9, 80, 80
6, 152940, Note_on_c, 9, 80, 127
6, 153000, Note_off_c, 9, 80, 80
6, 153000, Note_on_c, 9, 80, 127
6, 153000, Note_on_c, 9, 39, 127
6, 153060, Note_off_c, 9, 80, 80
6, 153060, Note_off_c, 9, 39, 80
6, 153060, Note_on_c, 9, 80, 127
6, 153120, Note_off_c, 9, 80, 80
6, 153120, Note_on_c, 9, 80, 127
6, 153180, Note_off_c, 9, 80, 80
6, 153180, Note_on_c, 9, 80, 127
6, 153240, Note_off_c, 9, 80, 80
6, 153240, Note_on_c, 9, 80, 127
6, 153300, Note_off_c, 9, 80, 80
6, 153300, Note_on_c, 9, 80, 127
6, 153360, Note_off_c, 9, 80, 80
6, 153360, Note_on_c, 9, 80, 127
6, 153360, Note_on_c, 9, 39, 127
6, 153420, Note_off_c, 9, 80, 80
6, 153420, Note_off_c, 9, 39, 80
6, 153420, Note_on_c, 9, 80, 127
6, 153480, Note_off_c, 9, 80, 80
6, 153480, Note_on_c, 9, 80, 127
6, 153540, Note_off_c, 9, 80, 80
6, 153540, Note_on_c, 9, 80, 127
6, 153600, Note_off_c, 9, 80, 80
6, 153600, Note_on_c, 9, 57, 127
6, 153840, Note_off_c, 9, 57, 80
6, 153840, Note_on_c, 9, 39, 111
6, 154080, Note_off_c, 9, 39, 80
6, 154080, Note_on_c, 9, 39, 111
6, 154320, Note_off_c, 9, 39, 80
6, 154320, Note_on_c, 9, 39, 111
6, 154560, Note_off_c, 9, 39, 80
6, 154560, Note_on_c, 9, 39, 111
6, 155040, Note_off_c, 9, 39, 80
6, 155040, Note_on_c, 9, 39, 111
6, 155400, Note_off_c, 9, 39, 80
6, 155400, Note_on_c, 9, 39, 111
6, 155760, Note_off_c, 9, 39, 80
6, 155760, Note_on_c, 9, 39, 111
6, 156000, Note_off_c, 9, 39, 80
6, 158400, Note_on_c, 9, 57, 127
6, 158640, Note_off_c, 9, 57, 80
6, 158640, Note_on_c, 9, 39, 111
6, 158880, Note_off_c, 9, 39, 80
6, 158880, Note_on_c, 9, 39, 111
6, 159120, Note_off_c, 9, 39, 80
6, 159120, Note_on_c, 9, 39, 111
6, 159360, Note_off_c, 9, 39, 80
6, 159360, Note_on_c, 9, 39, 111
6, 159840, Note_off_c, 9, 39, 80
6, 159840, Note_on_c, 9, 39, 111
6, 160200, Note_off_c, 9, 39, 80
6, 160200, Note_on_c, 9, 39, 111
6, 160560, Note_off_c, 9, 39, 80
6, 160560, Note_on_c, 9, 39, 111
6, 160800, Note_off_c, 9, 39, 80
6, 160800, End_track
7, 0, Start_track
7, 0, Title_t, "Thom Yorke"
7, 0, Control_c, 3, 100, 0
7, 0, Control_c, 3, 101, 0
7, 0, Control_c, 3, 6, 12
7, 0, Pitch_bend_c, 3, 8192
7, 0, Control_c, 3, 101, 0
7, 0, Control_c, 3, 100, 1
7, 0, Control_c, 3, 6, 64
7, 0, Control_c, 3, 38, 0
7, 0, Control_c, 3, 101, 127
7, 0, Control_c, 3, 100, 127
7, 0, Control_c, 2, 100, 0
7, 0, Control_c, 2, 101, 0
7, 0, Control_c, 2, 6, 12
7, 0, Pitch_bend_c, 2, 8192
7, 0, Control_c, 2, 101, 0
7, 0, Control_c, 2, 100, 1
7, 0, Control_c, 2, 6, 64
7, 0, Control_c, 2, 38, 0
7, 0, Control_c, 2, 101, 127
7, 0, Control_c, 2, 100, 127
7, 0, Control_c, 3, 101, 0
7, 0, Control_c, 3, 100, 2
7, 0, Control_c, 3, 6, 64
7, 0, Control_c, 3, 101, 127
7, 0, Control_c, 3, 100, 127
7, 0, Control_c, 2, 101, 0
7, 0, Control_c, 2, 100, 2
7, 0, Control_c, 2, 6, 64
7, 0, Control_c, 2, 101, 127
7, 0, Control_c, 2, 100, 127
7, 0, Program_c, 3, 73
7, 0, Program_c, 2, 73
7, 0, Control_c, 3, 0, 0
7, 0, Control_c, 2, 0, 0
7, 0, Control_c, 3, 7, 120
7, 0, Control_c, 2, 7, 120
7, 0, Control_c, 3, 10, 64
7, 0, Control_c, 2, 10, 64
7, 0, Control_c, 3, 93, 0
7, 0, Control_c, 2, 93, 0
7, 0, Control_c, 3, 91, 0
7, 0, Control_c, 2, 91, 0
7, 0, Control_c, 3, 92, 0
7, 0, Control_c, 2, 92, 0
7, 0, Control_c, 3, 95, 0
7, 0, Control_c, 2, 95, 0
7, 7440, Note_on_c, 2, 68, 127
7, 7680, Note_off_c, 2, 68, 80
7, 7680, Note_on_c, 2, 66, 127
7, 7920, Note_off_c, 2, 66, 80
7, 7920, Note_on_c, 2, 63, 127
7, 8160, Note_off_c, 2, 63, 80
7, 8160, Note_on_c, 2, 66, 127
7, 8400, Note_off_c, 2, 66, 80
7, 8400, Note_on_c, 2, 63, 127
7, 8640, Note_off_c, 2, 63, 80
7, 8640, Note_on_c, 2, 61, 127
7, 8880, Note_off_c, 2, 61, 80
7, 8880, Note_on_c, 3, 62, 127
7, 8880, Pitch_bend_c, 3, 8832
7, 9120, Note_off_c, 3, 62, 80
7, 9120, Pitch_bend_c, 3, 8192
7, 9120, Note_on_c, 3, 62, 127
7, 9120, Pitch_bend_c, 3, 8832
7, 9360, Note_off_c, 3, 62, 80
7, 9360, Pitch_bend_c, 3, 8192
7, 9360, Note_on_c, 2, 56, 127
7, 9600, Note_off_c, 2, 56, 80
7, 9840, Note_on_c, 2, 68, 127
7, 10080, Note_off_c, 2, 68, 80
7, 10080, Note_on_c, 2, 66, 127
7, 10320, Note_off_c, 2, 66, 80
7, 10320, Note_on_c, 2, 63, 127
7, 10560, Note_off_c, 2, 63, 80
7, 10560, Note_on_c, 2, 66, 127
7, 10800, Note_off_c, 2, 66, 80
7, 10800, Note_on_c, 2, 63, 127
7, 11040, Note_off_c, 2, 63, 80
7, 11040, Note_on_c, 2, 61, 127
7, 11220, Note_off_c, 2, 61, 80
7, 11220, Note_on_c, 2, 59, 127
7, 11400, Note_off_c, 2, 59, 80
7, 11400, Note_on_c, 2, 61, 127
7, 11520, Note_off_c, 2, 61, 80
7, 11520, Note_on_c, 3, 63, 127
7, 11520, Pitch_bend_c, 3, 8192
7, 11524, Pitch_bend_c, 3, 8192
7, 11529, Pitch_bend_c, 3, 8192
7, 11533, Pitch_bend_c, 3, 8192
7, 11538, Pitch_bend_c, 3, 8192
7, 11542, Pitch_bend_c, 3, 8192
7, 11546, Pitch_bend_c, 3, 8192
7, 11551, Pitch_bend_c, 3, 8192
7, 11555, Pitch_bend_c, 3, 8192
7, 11560, Pitch_bend_c, 3, 8192
7, 11564, Pitch_bend_c, 3, 8192
7, 11568, Pitch_bend_c, 3, 8192
7, 11573, Pitch_bend_c, 3, 8192
7, 11577, Pitch_bend_c, 3, 8192
7, 11582, Pitch_bend_c, 3, 8192
7, 11586, Pitch_bend_c, 3, 8192
7, 11590, Pitch_bend_c, 3, 8192
7, 11595, Pitch_bend_c, 3, 8192
7, 11599, Pitch_bend_c, 3, 8192
7, 11604, Pitch_bend_c, 3, 8192
7, 11608, Pitch_bend_c, 3, 8192
7, 11613, Pitch_bend_c, 3, 8192
7, 11617, Pitch_bend_c, 3, 8192
7, 11621, Pitch_bend_c, 3, 8192
7, 11626, Pitch_bend_c, 3, 8192
7, 11630, Pitch_bend_c, 3, 8192
7, 11635, Pitch_bend_c, 3, 8192
7, 11639, Pitch_bend_c, 3, 8192
7, 11643, Pitch_bend_c, 3, 8192
7, 11648, Pitch_bend_c, 3, 8192
7, 11652, Pitch_bend_c, 3, 8192
7, 11657, Pitch_bend_c, 3, 8192
7, 11661, Pitch_bend_c, 3, 8192
7, 11665, Pitch_bend_c, 3, 8192
7, 11670, Pitch_bend_c, 3, 8320
7, 11674, Pitch_bend_c, 3, 8320
7, 11679, Pitch_bend_c, 3, 8448
7, 11683, Pitch_bend_c, 3, 8448
7, 11687, Pitch_bend_c, 3, 8448
7, 11692, Pitch_bend_c, 3, 8448
7, 11696, Pitch_bend_c, 3, 8448
7, 11701, Pitch_bend_c, 3, 8448
7, 11705, Pitch_bend_c, 3, 8448
7, 11709, Pitch_bend_c, 3, 8448
7, 11714, Pitch_bend_c, 3, 8448
7, 11718, Pitch_bend_c, 3, 8320
7, 11723, Pitch_bend_c, 3, 8320
7, 11727, Pitch_bend_c, 3, 8192
7, 11731, Pitch_bend_c, 3, 8192
7, 11736, Pitch_bend_c, 3, 8192
7, 11740, Pitch_bend_c, 3, 8064
7, 11745, Pitch_bend_c, 3, 8064
7, 11749, Pitch_bend_c, 3, 7936
7, 11754, Pitch_bend_c, 3, 7936
7, 11758, Pitch_bend_c, 3, 7936
7, 11762, Pitch_bend_c, 3, 7936
7, 11767, Pitch_bend_c, 3, 7936
7, 11771, Pitch_bend_c, 3, 7936
7, 11776, Pitch_bend_c, 3, 7936
7, 11780, Pitch_bend_c, 3, 7936
7, 11784, Pitch_bend_c, 3, 7936
7, 11789, Pitch_bend_c, 3, 8064
7, 11793, Pitch_bend_c, 3, 8064
7, 11798, Pitch_bend_c, 3, 8192
7, 11802, Pitch_bend_c, 3, 8192
7, 11806, Pitch_bend_c, 3, 8192
7, 11811, Pitch_bend_c, 3, 8320
7, 11815, Pitch_bend_c, 3, 8320
7, 11820, Pitch_bend_c, 3, 8320
7, 11824, Pitch_bend_c, 3, 8320
7, 11828, Pitch_bend_c, 3, 8320
7, 11833, Pitch_bend_c, 3, 8320
7, 11837, Pitch_bend_c, 3, 8320
7, 11842, Pitch_bend_c, 3, 8320
7, 11846, Pitch_bend_c, 3, 8320
7, 11850, Pitch_bend_c, 3, 8320
7, 11855, Pitch_bend_c, 3, 8320
7, 11859, Pitch_bend_c, 3, 8320
7, 11864, Pitch_bend_c, 3, 8320
7, 11868, Pitch_bend_c, 3, 8192
7, 11872, Pitch_bend_c, 3, 8192
7, 11877, Pitch_bend_c, 3, 8192
7, 11881, Pitch_bend_c, 3, 8064
7, 11886, Pitch_bend_c, 3, 8064
7, 11890, Pitch_bend_c, 3, 8064
7, 11895, Pitch_bend_c, 3, 8064
7, 11899, Pitch_bend_c, 3, 8064
7, 11903, Pitch_bend_c, 3, 8064
7, 11908, Pitch_bend_c, 3, 8064
7, 11912, Pitch_bend_c, 3, 8064
7, 11917, Pitch_bend_c, 3, 8064
7, 11921, Pitch_bend_c, 3, 8064
7, 11925, Pitch_bend_c, 3, 8064
7, 11930, Pitch_bend_c, 3, 8064
7, 11934, Pitch_bend_c, 3, 8064
7, 11939, Pitch_bend_c, 3, 8192
7, 11943, Pitch_bend_c, 3, 8192
7, 11947, Pitch_bend_c, 3, 8192
7, 11952, Pitch_bend_c, 3, 8320
7, 11956, Pitch_bend_c, 3, 8320
7, 11961, Pitch_bend_c, 3, 8320
7, 11965, Pitch_bend_c, 3, 8320
7, 11969, Pitch_bend_c, 3, 8320
7, 11974, Pitch_bend_c, 3, 8320
7, 11978, Pitch_bend_c, 3, 8320
7, 11983, Pitch_bend_c, 3, 8320
7, 11987, Pitch_bend_c, 3, 8320
7, 11991, Pitch_bend_c, 3, 8320
7, 11996, Pitch_bend_c, 3, 8320
7, 12000, Note_off_c, 3, 63, 80
7, 12000, Pitch_bend_c, 3, 8192
7, 12240, Note_on_c, 2, 68, 127
7, 12480, Note_off_c, 2, 68, 80
7, 12480, Note_on_c, 2, 66, 127
7, 12720, Note_off_c, 2, 66, 80
7, 12720, Note_on_c, 2, 63, 127
7, 12960, Note_off_c, 2, 63, 80
7, 12960, Note_on_c, 2, 66, 127
7, 13200, Note_off_c, 2, 66, 80
7, 13200, Note_on_c, 2, 63, 127
7, 13440, Note_off_c, 2, 63, 80
7, 13440, Note_on_c, 2, 61, 127
7, 13620, Note_off_c, 2, 61, 80
7, 13620, Note_on_c, 2, 59, 127
7, 13800, Note_off_c, 2, 59, 80
7, 13800, Note_on_c, 2, 61, 127
7, 13920, Note_off_c, 2, 61, 80
7, 13920, Note_on_c, 3, 63, 127
7, 13920, Pitch_bend_c, 3, 8192
7, 13924, Pitch_bend_c, 3, 8192
7, 13929, Pitch_bend_c, 3, 8192
7, 13933, Pitch_bend_c, 3, 8192
7, 13938, Pitch_bend_c, 3, 8192
7, 13942, Pitch_bend_c, 3, 8192
7, 13946, Pitch_bend_c, 3, 8192
7, 13951, Pitch_bend_c, 3, 8192
7, 13955, Pitch_bend_c, 3, 8192
7, 13960, Pitch_bend_c, 3, 8192
7, 13964, Pitch_bend_c, 3, 8192
7, 13968, Pitch_bend_c, 3, 8192
7, 13973, Pitch_bend_c, 3, 8192
7, 13977, Pitch_bend_c, 3, 8192
7, 13982, Pitch_bend_c, 3, 8192
7, 13986, Pitch_bend_c, 3, 8192
7, 13990, Pitch_bend_c, 3, 8192
7, 13995, Pitch_bend_c, 3, 8192
7, 13999, Pitch_bend_c, 3, 8192
7, 14004, Pitch_bend_c, 3, 8192
7, 14008, Pitch_bend_c, 3, 8192
7, 14013, Pitch_bend_c, 3, 8192
7, 14017, Pitch_bend_c, 3, 8192
7, 14021, Pitch_bend_c, 3, 8192
7, 14026, Pitch_bend_c, 3, 8192
7, 14030, Pitch_bend_c, 3, 8192
7, 14035, Pitch_bend_c, 3, 8192
7, 14039, Pitch_bend_c, 3, 8192
7, 14043, Pitch_bend_c, 3, 8192
7, 14048, Pitch_bend_c, 3, 8192
7, 14052, Pitch_bend_c, 3, 8192
7, 14057, Pitch_bend_c, 3, 8192
7, 14061, Pitch_bend_c, 3, 8192
7, 14065, Pitch_bend_c, 3, 8192
7, 14070, Pitch_bend_c, 3, 8320
7, 14074, Pitch_bend_c, 3, 8320
7, 14079, Pitch_bend_c, 3, 8320
7, 14083, Pitch_bend_c, 3, 8448
7, 14087, Pitch_bend_c, 3, 8448
7, 14092, Pitch_bend_c, 3, 8448
7, 14096, Pitch_bend_c, 3, 8448
7, 14101, Pitch_bend_c, 3, 8448
7, 14105, Pitch_bend_c, 3, 8448
7, 14109, Pitch_bend_c, 3, 8448
7, 14114, Pitch_bend_c, 3, 8320
7, 14118, Pitch_bend_c, 3, 8320
7, 14123, Pitch_bend_c, 3, 8320
7, 14127, Pitch_bend_c, 3, 8192
7, 14131, Pitch_bend_c, 3, 8192
7, 14136, Pitch_bend_c, 3, 8192
7, 14140, Pitch_bend_c, 3, 8064
7, 14145, Pitch_bend_c, 3, 8064
7, 14149, Pitch_bend_c, 3, 8064
7, 14154, Pitch_bend_c, 3, 7936
7, 14158, Pitch_bend_c, 3, 7936
7, 14162, Pitch_bend_c, 3, 7936
7, 14167, Pitch_bend_c, 3, 7936
7, 14171, Pitch_bend_c, 3, 7936
7, 14176, Pitch_bend_c, 3, 7936
7, 14180, Pitch_bend_c, 3, 7936
7, 14184, Pitch_bend_c, 3, 8064
7, 14189, Pitch_bend_c, 3, 8064
7, 14193, Pitch_bend_c, 3, 8064
7, 14198, Pitch_bend_c, 3, 8192
7, 14202, Pitch_bend_c, 3, 8192
7, 14206, Pitch_bend_c, 3, 8192
7, 14211, Pitch_bend_c, 3, 8320
7, 14215, Pitch_bend_c, 3, 8320
7, 14220, Pitch_bend_c, 3, 8320
7, 14224, Pitch_bend_c, 3, 8448
7, 14228, Pitch_bend_c, 3, 8448
7, 14233, Pitch_bend_c, 3, 8448
7, 14237, Pitch_bend_c, 3, 8448
7, 14242, Pitch_bend_c, 3, 8448
7, 14246, Pitch_bend_c, 3, 8448
7, 14250, Pitch_bend_c, 3, 8448
7, 14255, Pitch_bend_c, 3, 8320
7, 14259, Pitch_bend_c, 3, 8320
7, 14264, Pitch_bend_c, 3, 8320
7, 14268, Pitch_bend_c, 3, 8192
7, 14272, Pitch_bend_c, 3, 8192
7, 14277, Pitch_bend_c, 3, 8192
7, 14281, Pitch_bend_c, 3, 8064
7, 14286, Pitch_bend_c, 3, 8064
7, 14290, Pitch_bend_c, 3, 8064
7, 14295, Pitch_bend_c, 3, 7936
7, 14299, Pitch_bend_c, 3, 7936
7, 14303, Pitch_bend_c, 3, 7936
7, 14308, Pitch_bend_c, 3, 7936
7, 14312, Pitch_bend_c, 3, 7936
7, 14317, Pitch_bend_c, 3, 7936
7, 14321, Pitch_bend_c, 3, 7936
7, 14325, Pitch_bend_c, 3, 8064
7, 14330, Pitch_bend_c, 3, 8064
7, 14334, Pitch_bend_c, 3, 8064
7, 14339, Pitch_bend_c, 3, 8192
7, 14343, Pitch_bend_c, 3, 8192
7, 14347, Pitch_bend_c, 3, 8192
7, 14352, Pitch_bend_c, 3, 8192
7, 14356, Pitch_bend_c, 3, 8320
7, 14361, Pitch_bend_c, 3, 8320
7, 14365, Pitch_bend_c, 3, 8320
7, 14369, Pitch_bend_c, 3, 8320
7, 14374, Pitch_bend_c, 3, 8320
7, 14378, Pitch_bend_c, 3, 8320
7, 14383, Pitch_bend_c, 3, 8320
7, 14387, Pitch_bend_c, 3, 8320
7, 14391, Pitch_bend_c, 3, 8320
7, 14396, Pitch_bend_c, 3, 8320
7, 14400, Note_off_c, 3, 63, 80
7, 14400, Pitch_bend_c, 3, 8192
7, 14640, Note_on_c, 2, 56, 127
7, 14880, Note_off_c, 2, 56, 80
7, 14880, Note_on_c, 2, 59, 127
7, 15120, Note_off_c, 2, 59, 80
7, 15120, Note_on_c, 2, 61, 127
7, 15360, Note_off_c, 2, 61, 80
7, 15360, Note_on_c, 2, 63, 127
7, 15600, Note_off_c, 2, 63, 80
7, 15600, Note_on_c, 2, 61, 127
7, 15840, Note_off_c, 2, 61, 80
7, 15840, Note_on_c, 2, 59, 127
7, 15960, Note_off_c, 2, 59, 80
7, 15960, Note_on_c, 2, 56, 127
7, 16200, Note_off_c, 2, 56, 80
7, 16200, Note_on_c, 2, 54, 127
7, 16320, Note_off_c, 2, 54, 80
7, 16320, Note_on_c, 2, 56, 127
7, 16800, Note_off_c, 2, 56, 80
7, 21840, Note_on_c, 2, 68, 127
7, 22080, Note_off_c, 2, 68, 80
7, 22080, Note_on_c, 2, 66, 127
7, 22320, Note_off_c, 2, 66, 80
7, 22320, Note_on_c, 2, 63, 127
7, 22560, Note_off_c, 2, 63, 80
7, 22560, Note_on_c, 2, 66, 127
7, 22800, Note_off_c, 2, 66, 80
7, 22800, Note_on_c, 2, 63, 127
7, 23040, Note_off_c, 2, 63, 80
7, 23040, Note_on_c, 2, 61, 127
7, 23280, Note_off_c, 2, 61, 80
7, 23280, Note_on_c, 3, 62, 127
7, 23280, Pitch_bend_c, 3, 8832
7, 23520, Note_off_c, 3, 62, 80
7, 23520, Pitch_bend_c, 3, 8192
7, 23520, Note_on_c, 3, 60, 127
7, 23520, Pitch_bend_c, 3, 8832
7, 23760, Note_off_c, 3, 60, 80
7, 23760, Pitch_bend_c, 3, 8192
7, 23760, Note_on_c, 2, 56, 127
7, 24000, Note_off_c, 2, 56, 80
7, 24240, Note_on_c, 2, 68, 127
7, 24480, Note_off_c, 2, 68, 80
7, 24480, Note_on_c, 2, 66, 127
7, 24720, Note_off_c, 2, 66, 80
7, 24720, Note_on_c, 2, 63, 127
7, 24960, Note_off_c, 2, 63, 80
7, 24960, Note_on_c, 2, 66, 127
7, 25200, Note_off_c, 2, 66, 80
7, 25200, Note_on_c, 2, 63, 127
7, 25440, Note_off_c, 2, 63, 80
7, 25440, Note_on_c, 2, 61, 127
7, 25620, Note_off_c, 2, 61, 80
7, 25620, Note_on_c, 2, 59, 127
7, 25800, Note_off_c, 2, 59, 80
7, 25800, Note_on_c, 2, 61, 127
7, 25920, Note_off_c, 2, 61, 80
7, 25920, Note_on_c, 3, 63, 127
7, 25920, Pitch_bend_c, 3, 8192
7, 25924, Pitch_bend_c, 3, 8192
7, 25929, Pitch_bend_c, 3, 8192
7, 25933, Pitch_bend_c, 3, 8192
7, 25938, Pitch_bend_c, 3, 8192
7, 25942, Pitch_bend_c, 3, 8192
7, 25946, Pitch_bend_c, 3, 8192
7, 25951, Pitch_bend_c, 3, 8192
7, 25955, Pitch_bend_c, 3, 8192
7, 25960, Pitch_bend_c, 3, 8192
7, 25964, Pitch_bend_c, 3, 8192
7, 25968, Pitch_bend_c, 3, 8192
7, 25973, Pitch_bend_c, 3, 8192
7, 25977, Pitch_bend_c, 3, 8192
7, 25982, Pitch_bend_c, 3, 8192
7, 25986, Pitch_bend_c, 3, 8192
7, 25990, Pitch_bend_c, 3, 8192
7, 25995, Pitch_bend_c, 3, 8192
7, 25999, Pitch_bend_c, 3, 8192
7, 26004, Pitch_bend_c, 3, 8192
7, 26008, Pitch_bend_c, 3, 8192
7, 26013, Pitch_bend_c, 3, 8192
7, 26017, Pitch_bend_c, 3, 8192
7, 26021, Pitch_bend_c, 3, 8192
7, 26026, Pitch_bend_c, 3, 8192
7, 26030, Pitch_bend_c, 3, 8192
7, 26035, Pitch_bend_c, 3, 8192
7, 26039, Pitch_bend_c, 3, 8192
7, 26043, Pitch_bend_c, 3, 8192
7, 26048, Pitch_bend_c, 3, 8192
7, 26052, Pitch_bend_c, 3, 8192
7, 26057, Pitch_bend_c, 3, 8192
7, 26061, Pitch_bend_c, 3, 8192
7, 26065, Pitch_bend_c, 3, 8192
7, 26070, Pitch_bend_c, 3, 8320
7, 26074, Pitch_bend_c, 3, 8320
7, 26079, Pitch_bend_c, 3, 8320
7, 26083, Pitch_bend_c, 3, 8448
7, 26087, Pitch_bend_c, 3, 8448
7, 26092, Pitch_bend_c, 3, 8448
7, 26096, Pitch_bend_c, 3, 8448
7, 26101, Pitch_bend_c, 3, 8448
7, 26105, Pitch_bend_c, 3, 8448
7, 26109, Pitch_bend_c, 3, 8448
7, 26114, Pitch_bend_c, 3, 8320
7, 26118, Pitch_bend_c, 3, 8320
7, 26123, Pitch_bend_c, 3, 8320
7, 26127, Pitch_bend_c, 3, 8192
7, 26131, Pitch_bend_c, 3, 8192
7, 26136, Pitch_bend_c, 3, 8192
7, 26140, Pitch_bend_c, 3, 8064
7, 26145, Pitch_bend_c, 3, 8064
7, 26149, Pitch_bend_c, 3, 8064
7, 26154, Pitch_bend_c, 3, 7936
7, 26158, Pitch_bend_c, 3, 7936
7, 26162, Pitch_bend_c, 3, 7936
7, 26167, Pitch_bend_c, 3, 7936
7, 26171, Pitch_bend_c, 3, 7936
7, 26176, Pitch_bend_c, 3, 7936
7, 26180, Pitch_bend_c, 3, 7936
7, 26184, Pitch_bend_c, 3, 8064
7, 26189, Pitch_bend_c, 3, 8064
7, 26193, Pitch_bend_c, 3, 8064
7, 26198, Pitch_bend_c, 3, 8192
7, 26202, Pitch_bend_c, 3, 8192
7, 26206, Pitch_bend_c, 3, 8192
7, 26211, Pitch_bend_c, 3, 8320
7, 26215, Pitch_bend_c, 3, 8320
7, 26220, Pitch_bend_c, 3, 8448
7, 26224, Pitch_bend_c, 3, 8448
7, 26228, Pitch_bend_c, 3, 8448
7, 26233, Pitch_bend_c, 3, 8448
7, 26237, Pitch_bend_c, 3, 8448
7, 26242, Pitch_bend_c, 3, 8448
7, 26246, Pitch_bend_c, 3, 8448
7, 26250, Pitch_bend_c, 3, 8448
7, 26255, Pitch_bend_c, 3, 8448
7, 26259, Pitch_bend_c, 3, 8320
7, 26264, Pitch_bend_c, 3, 8320
7, 26268, Pitch_bend_c, 3, 8192
7, 26272, Pitch_bend_c, 3, 8192
7, 26277, Pitch_bend_c, 3, 8192
7, 26281, Pitch_bend_c, 3, 8064
7, 26286, Pitch_bend_c, 3, 8064
7, 26290, Pitch_bend_c, 3, 7936
7, 26295, Pitch_bend_c, 3, 7936
7, 26299, Pitch_bend_c, 3, 7936
7, 26303, Pitch_bend_c, 3, 7936
7, 26308, Pitch_bend_c, 3, 7936
7, 26312, Pitch_bend_c, 3, 7936
7, 26317, Pitch_bend_c, 3, 7936
7, 26321, Pitch_bend_c, 3, 7936
7, 26325, Pitch_bend_c, 3, 7936
7, 26330, Pitch_bend_c, 3, 8064
7, 26334, Pitch_bend_c, 3, 8064
7, 26339, Pitch_bend_c, 3, 8192
7, 26343, Pitch_bend_c, 3, 8192
7, 26347, Pitch_bend_c, 3, 8192
7, 26352, Pitch_bend_c, 3, 8192
7, 26356, Pitch_bend_c, 3, 8320
7, 26361, Pitch_bend_c, 3, 8320
7, 26365, Pitch_bend_c, 3, 8320
7, 26369, Pitch_bend_c, 3, 8320
7, 26374, Pitch_bend_c, 3, 8320
7, 26378, Pitch_bend_c, 3, 8320
7, 26383, Pitch_bend_c, 3, 8320
7, 26387, Pitch_bend_c, 3, 8320
7, 26391, Pitch_bend_c, 3, 8320
7, 26396, Pitch_bend_c, 3, 8320
7, 26400, Note_off_c, 3, 63, 80
7, 26400, Pitch_bend_c, 3, 8192
7, 26640, Note_on_c, 2, 68, 127
7, 26880, Note_off_c, 2, 68, 80
7, 26880, Note_on_c, 2, 66, 127
7, 27120, Note_off_c, 2, 66, 80
7, 27120, Note_on_c, 2, 63, 127
7, 27360, Note_off_c, 2, 63, 80
7, 27360, Note_on_c, 2, 66, 127
7, 27600, Note_off_c, 2, 66, 80
7, 27600, Note_on_c, 2, 63, 127
7, 27840, Note_off_c, 2, 63, 80
7, 27840, Note_on_c, 2, 61, 127
7, 28020, Note_off_c, 2, 61, 80
7, 28020, Note_on_c, 2, 59, 127
7, 28200, Note_off_c, 2, 59, 80
7, 28200, Note_on_c, 2, 61, 127
7, 28320, Note_off_c, 2, 61, 80
7, 28320, Note_on_c, 3, 63, 127
7, 28320, Pitch_bend_c, 3, 8192
7, 28324, Pitch_bend_c, 3, 8192
7, 28329, Pitch_bend_c, 3, 8192
7, 28333, Pitch_bend_c, 3, 8192
7, 28338, Pitch_bend_c, 3, 8192
7, 28342, Pitch_bend_c, 3, 8192
7, 28346, Pitch_bend_c, 3, 8192
7, 28351, Pitch_bend_c, 3, 8192
7, 28355, Pitch_bend_c, 3, 8192
7, 28360, Pitch_bend_c, 3, 8192
7, 28364, Pitch_bend_c, 3, 8192
7, 28368, Pitch_bend_c, 3, 8192
7, 28373, Pitch_bend_c, 3, 8192
7, 28377, Pitch_bend_c, 3, 8192
7, 28382, Pitch_bend_c, 3, 8192
7, 28386, Pitch_bend_c, 3, 8192
7, 28390, Pitch_bend_c, 3, 8192
7, 28395, Pitch_bend_c, 3, 8192
7, 28399, Pitch_bend_c, 3, 8192
7, 28404, Pitch_bend_c, 3, 8192
7, 28408, Pitch_bend_c, 3, 8192
7, 28413, Pitch_bend_c, 3, 8192
7, 28417, Pitch_bend_c, 3, 8192
7, 28421, Pitch_bend_c, 3, 8192
7, 28426, Pitch_bend_c, 3, 8192
7, 28430, Pitch_bend_c, 3, 8192
7, 28435, Pitch_bend_c, 3, 8192
7, 28439, Pitch_bend_c, 3, 8192
7, 28443, Pitch_bend_c, 3, 8192
7, 28448, Pitch_bend_c, 3, 8192
7, 28452, Pitch_bend_c, 3, 8192
7, 28457, Pitch_bend_c, 3, 8192
7, 28461, Pitch_bend_c, 3, 8192
7, 28465, Pitch_bend_c, 3, 8192
7, 28470, Pitch_bend_c, 3, 8320
7, 28474, Pitch_bend_c, 3, 8320
7, 28479, Pitch_bend_c, 3, 8320
7, 28483, Pitch_bend_c, 3, 8448
7, 28487, Pitch_bend_c, 3, 8448
7, 28492, Pitch_bend_c, 3, 8448
7, 28496, Pitch_bend_c, 3, 8448
7, 28501, Pitch_bend_c, 3, 8448
7, 28505, Pitch_bend_c, 3, 8448
7, 28509, Pitch_bend_c, 3, 8448
7, 28514, Pitch_bend_c, 3, 8320
7, 28518, Pitch_bend_c, 3, 8320
7, 28523, Pitch_bend_c, 3, 8320
7, 28527, Pitch_bend_c, 3, 8192
7, 28531, Pitch_bend_c, 3, 8192
7, 28536, Pitch_bend_c, 3, 8192
7, 28540, Pitch_bend_c, 3, 8064
7, 28545, Pitch_bend_c, 3, 8064
7, 28549, Pitch_bend_c, 3, 8064
7, 28554, Pitch_bend_c, 3, 7936
7, 28558, Pitch_bend_c, 3, 7936
7, 28562, Pitch_bend_c, 3, 7936
7, 28567, Pitch_bend_c, 3, 7936
7, 28571, Pitch_bend_c, 3, 7936
7, 28576, Pitch_bend_c, 3, 7936
7, 28580, Pitch_bend_c, 3, 7936
7, 28584, Pitch_bend_c, 3, 8064
7, 28589, Pitch_bend_c, 3, 8064
7, 28593, Pitch_bend_c, 3, 8064
7, 28598, Pitch_bend_c, 3, 8192
7, 28602, Pitch_bend_c, 3, 8192
7, 28606, Pitch_bend_c, 3, 8192
7, 28611, Pitch_bend_c, 3, 8320
7, 28615, Pitch_bend_c, 3, 8320
7, 28620, Pitch_bend_c, 3, 8320
7, 28624, Pitch_bend_c, 3, 8448
7, 28628, Pitch_bend_c, 3, 8448
7, 28633, Pitch_bend_c, 3, 8448
7, 28637, Pitch_bend_c, 3, 8448
7, 28642, Pitch_bend_c, 3, 8448
7, 28646, Pitch_bend_c, 3, 8448
7, 28650, Pitch_bend_c, 3, 8448
7, 28655, Pitch_bend_c, 3, 8320
7, 28659, Pitch_bend_c, 3, 8320
7, 28664, Pitch_bend_c, 3, 8320
7, 28668, Pitch_bend_c, 3, 8192
7, 28672, Pitch_bend_c, 3, 8192
7, 28677, Pitch_bend_c, 3, 8192
7, 28681, Pitch_bend_c, 3, 8064
7, 28686, Pitch_bend_c, 3, 8064
7, 28690, Pitch_bend_c, 3, 8064
7, 28695, Pitch_bend_c, 3, 7936
7, 28699, Pitch_bend_c, 3, 7936
7, 28703, Pitch_bend_c, 3, 7936
7, 28708, Pitch_bend_c, 3, 7936
7, 28712, Pitch_bend_c, 3, 7936
7, 28717, Pitch_bend_c, 3, 7936
7, 28721, Pitch_bend_c, 3, 7936
7, 28725, Pitch_bend_c, 3, 8064
7, 28730, Pitch_bend_c, 3, 8064
7, 28734, Pitch_bend_c, 3, 8064
7, 28739, Pitch_bend_c, 3, 8192
7, 28743, Pitch_bend_c, 3, 8192
7, 28747, Pitch_bend_c, 3, 8192
7, 28752, Pitch_bend_c, 3, 8192
7, 28756, Pitch_bend_c, 3, 8320
7, 28761, Pitch_bend_c, 3, 8320
7, 28765, Pitch_bend_c, 3, 8320
7, 28769, Pitch_bend_c, 3, 8320
7, 28774, Pitch_bend_c, 3, 8320
7, 28778, Pitch_bend_c, 3, 8320
7, 28783, Pitch_bend_c, 3, 8320
7, 28787, Pitch_bend_c, 3, 8320
7, 28791, Pitch_bend_c, 3, 8320
7, 28796, Pitch_bend_c, 3, 8320
7, 28800, Note_off_c, 3, 63, 80
7, 28800, Pitch_bend_c, 3, 8192
7, 29040, Note_on_c, 2, 56, 127
7, 29280, Note_off_c, 2, 56, 80
7, 29280, Note_on_c, 2, 59, 127
7, 29400, Note_off_c, 2, 59, 80
7, 29400, Note_on_c, 2, 61, 127
7, 29640, Note_off_c, 2, 61, 80
7, 29640, Note_on_c, 2, 63, 127
7, 29880, Note_off_c, 2, 63, 80
7, 29880, Note_on_c, 2, 61, 127
7, 30120, Note_off_c, 2, 61, 80
7, 30120, Note_on_c, 2, 59, 127
7, 30240, Note_off_c, 2, 59, 80
7, 30240, Note_on_c, 2, 59, 127
7, 30360, Note_off_c, 2, 59, 80
7, 30360, Note_on_c, 2, 56, 127
7, 30600, Note_off_c, 2, 56, 80
7, 30600, Note_on_c, 2, 54, 127
7, 30720, Note_off_c, 2, 54, 80
7, 30720, Note_on_c, 2, 56, 127
7, 31200, Note_off_c, 2, 56, 80
7, 40800, Note_on_c, 2, 59, 95
7, 41160, Note_off_c, 2, 59, 80
7, 41160, Note_on_c, 2, 59, 95
7, 41280, Note_off_c, 2, 59, 80
7, 41280, Note_on_c, 2, 59, 95
7, 41520, Note_off_c, 2, 59, 80
7, 41520, Note_on_c, 2, 61, 95
7, 41760, Note_off_c, 2, 61, 80
7, 41760, Note_on_c, 2, 59, 95
7, 42240, Note_off_c, 2, 59, 80
7, 43200, Note_on_c, 2, 59, 95
7, 43560, Note_off_c, 2, 59, 80
7, 43560, Note_on_c, 2, 59, 95
7, 43800, Note_off_c, 2, 59, 80
7, 43800, Note_on_c, 2, 58, 95
7, 44760, Note_off_c, 2, 58, 80
7, 45480, Note_on_c, 2, 56, 95
7, 45600, Note_off_c, 2, 56, 80
7, 45600, Note_on_c, 2, 56, 95
7, 45720, Note_off_c, 2, 56, 80
7, 45720, Note_on_c, 2, 59, 95
7, 46080, Note_off_c, 2, 59, 80
7, 46080, Note_on_c, 2, 59, 95
7, 46320, Note_off_c, 2, 59, 80
7, 46320, Note_on_c, 2, 61, 95
7, 46800, Note_off_c, 2, 61, 80
7, 46800, Note_on_c, 2, 59, 95
7, 47760, Note_off_c, 2, 59, 80
7, 50040, Note_on_c, 2, 56, 95
7, 50160, Note_off_c, 2, 56, 80
7, 50160, Note_on_c, 2, 56, 95
7, 50400, Note_off_c, 2, 56, 80
7, 50400, Note_on_c, 2, 59, 95
7, 50760, Note_off_c, 2, 59, 80
7, 50760, Note_on_c, 2, 59, 95
7, 50880, Note_off_c, 2, 59, 80
7, 50880, Note_on_c, 2, 59, 95
7, 51120, Note_off_c, 2, 59, 80
7, 51120, Note_on_c, 2, 61, 95
7, 51360, Note_off_c, 2, 61, 80
7, 51360, Note_on_c, 2, 59, 95
7, 51840, Note_off_c, 2, 59, 80
7, 55200, Note_on_c, 2, 58, 95
7, 56640, Note_off_c, 2, 58, 80
7, 56640, Note_on_c, 2, 58, 95
7, 57600, Note_off_c, 2, 58, 80
7, 57600, Note_on_c, 2, 58, 95
7, 57720, Note_off_c, 2, 58, 80
7, 57720, Note_on_c, 2, 56, 95
7, 57840, Note_off_c, 2, 56, 80
7, 57840, Note_on_c, 2, 54, 95
7, 57960, Note_off_c, 2, 54, 80
7, 57960, Note_on_c, 2, 56, 95
7, 59880, Note_off_c, 2, 56, 80
7, 60000, Note_on_c, 2, 58, 95
7, 61440, Note_off_c, 2, 58, 80
7, 61440, Note_on_c, 2, 58, 95
7, 62400, Note_off_c, 2, 58, 80
7, 62400, Note_on_c, 2, 58, 95
7, 62520, Note_off_c, 2, 58, 80
7, 62520, Note_on_c, 2, 56, 95
7, 62640, Note_off_c, 2, 56, 80
7, 62640, Note_on_c, 2, 54, 95
7, 62760, Note_off_c, 2, 54, 80
7, 62760, Note_on_c, 2, 56, 95
7, 64680, Note_off_c, 2, 56, 80
7, 64800, Note_on_c, 2, 58, 95
7, 66240, Note_off_c, 2, 58, 80
7, 66240, Note_on_c, 2, 58, 95
7, 66480, Note_off_c, 2, 58, 80
7, 66480, Note_on_c, 2, 58, 95
7, 67200, Note_off_c, 2, 58, 80
7, 67200, Note_on_c, 3, 58, 95
7, 67200, Pitch_bend_c, 3, 8192
7, 67232, Pitch_bend_c, 3, 8320
7, 67280, Pitch_bend_c, 3, 8448
7, 67296, Pitch_bend_c, 3, 8576
7, 67312, Pitch_bend_c, 3, 8704
7, 67328, Pitch_bend_c, 3, 8960
7, 67344, Pitch_bend_c, 3, 9216
7, 67360, Pitch_bend_c, 3, 9344
7, 67376, Pitch_bend_c, 3, 9600
7, 67392, Pitch_bend_c, 3, 9856
7, 67408, Pitch_bend_c, 3, 9984
7, 67424, Pitch_bend_c, 3, 10112
7, 67440, Pitch_bend_c, 3, 10240
7, 68160, Note_off_c, 3, 58, 80
7, 68160, Pitch_bend_c, 3, 8192
7, 68160, Note_on_c, 2, 58, 95
7, 69120, Note_off_c, 2, 58, 80
7, 69120, Note_on_c, 2, 61, 95
7, 69360, Note_off_c, 2, 61, 80
7, 69360, Note_on_c, 2, 59, 95
7, 69600, Note_off_c, 2, 59, 80
7, 69600, Note_on_c, 2, 58, 95
7, 71040, Note_off_c, 2, 58, 80
7, 71040, Note_on_c, 2, 58, 95
7, 71280, Note_off_c, 2, 58, 80
7, 71280, Note_on_c, 2, 58, 95
7, 72000, Note_off_c, 2, 58, 80
7, 72000, Note_on_c, 3, 58, 95
7, 72000, Pitch_bend_c, 3, 8192
7, 72032, Pitch_bend_c, 3, 8320
7, 72080, Pitch_bend_c, 3, 8448
7, 72096, Pitch_bend_c, 3, 8576
7, 72112, Pitch_bend_c, 3, 8704
7, 72128, Pitch_bend_c, 3, 8960
7, 72144, Pitch_bend_c, 3, 9216
7, 72160, Pitch_bend_c, 3, 9344
7, 72176, Pitch_bend_c, 3, 9600
7, 72192, Pitch_bend_c, 3, 9856
7, 72208, Pitch_bend_c, 3, 9984
7, 72224, Pitch_bend_c, 3, 10112
7, 72240, Pitch_bend_c, 3, 10240
7, 72960, Note_off_c, 3, 58, 80
7, 72960, Pitch_bend_c, 3, 8192
7, 72960, Note_on_c, 2, 59, 95
7, 74400, Note_off_c, 2, 59, 80
7, 79200, Control_c, 2, 7, 9
7, 79200, Control_c, 3, 7, 9
7, 79200, Note_on_c, 3, 68, 111
7, 79200, Pitch_bend_c, 3, 8192
7, 79204, Pitch_bend_c, 3, 8192
7, 79209, Pitch_bend_c, 3, 8192
7, 79213, Pitch_bend_c, 3, 8192
7, 79218, Pitch_bend_c, 3, 8192
7, 79222, Pitch_bend_c, 3, 8192
7, 79226, Pitch_bend_c, 3, 8192
7, 79231, Pitch_bend_c, 3, 8192
7, 79235, Pitch_bend_c, 3, 8192
7, 79240, Pitch_bend_c, 3, 8192
7, 79244, Pitch_bend_c, 3, 8192
7, 79248, Pitch_bend_c, 3, 8192
7, 79253, Pitch_bend_c, 3, 8192
7, 79257, Pitch_bend_c, 3, 8192
7, 79262, Pitch_bend_c, 3, 8192
7, 79266, Pitch_bend_c, 3, 8192
7, 79270, Pitch_bend_c, 3, 8192
7, 79275, Pitch_bend_c, 3, 8192
7, 79279, Pitch_bend_c, 3, 8192
7, 79284, Pitch_bend_c, 3, 8192
7, 79288, Pitch_bend_c, 3, 8192
7, 79293, Pitch_bend_c, 3, 8192
7, 79297, Pitch_bend_c, 3, 8192
7, 79301, Pitch_bend_c, 3, 8192
7, 79306, Pitch_bend_c, 3, 8192
7, 79310, Pitch_bend_c, 3, 8192
7, 79315, Pitch_bend_c, 3, 8192
7, 79319, Pitch_bend_c, 3, 8192
7, 79320, Control_c, 2, 7, 18
7, 79320, Control_c, 3, 7, 18
7, 79323, Pitch_bend_c, 3, 8192
7, 79328, Pitch_bend_c, 3, 8192
7, 79332, Pitch_bend_c, 3, 8192
7, 79337, Pitch_bend_c, 3, 8192
7, 79341, Pitch_bend_c, 3, 8192
7, 79345, Pitch_bend_c, 3, 8192
7, 79350, Pitch_bend_c, 3, 8192
7, 79354, Pitch_bend_c, 3, 8192
7, 79359, Pitch_bend_c, 3, 8192
7, 79363, Pitch_bend_c, 3, 8192
7, 79367, Pitch_bend_c, 3, 8192
7, 79372, Pitch_bend_c, 3, 8192
7, 79376, Pitch_bend_c, 3, 8192
7, 79381, Pitch_bend_c, 3, 8192
7, 79385, Pitch_bend_c, 3, 8192
7, 79389, Pitch_bend_c, 3, 8192
7, 79394, Pitch_bend_c, 3, 8192
7, 79398, Pitch_bend_c, 3, 8192
7, 79403, Pitch_bend_c, 3, 8192
7, 79407, Pitch_bend_c, 3, 8192
7, 79411, Pitch_bend_c, 3, 8192
7, 79416, Pitch_bend_c, 3, 8192
7, 79420, Pitch_bend_c, 3, 8192
7, 79425, Pitch_bend_c, 3, 8192
7, 79429, Pitch_bend_c, 3, 8192
7, 79434, Pitch_bend_c, 3, 8192
7, 79438, Pitch_bend_c, 3, 8192
7, 79440, Control_c, 2, 7, 28
7, 79440, Control_c, 3, 7, 28
7, 79442, Pitch_bend_c, 3, 8192
7, 79447, Pitch_bend_c, 3, 8192
7, 79451, Pitch_bend_c, 3, 8192
7, 79456, Pitch_bend_c, 3, 8192
7, 79460, Pitch_bend_c, 3, 8192
7, 79464, Pitch_bend_c, 3, 8192
7, 79469, Pitch_bend_c, 3, 8192
7, 79473, Pitch_bend_c, 3, 8192
7, 79478, Pitch_bend_c, 3, 8192
7, 79482, Pitch_bend_c, 3, 8192
7, 79486, Pitch_bend_c, 3, 8192
7, 79491, Pitch_bend_c, 3, 8192
7, 79495, Pitch_bend_c, 3, 8192
7, 79500, Pitch_bend_c, 3, 8192
7, 79504, Pitch_bend_c, 3, 8192
7, 79508, Pitch_bend_c, 3, 8320
7, 79513, Pitch_bend_c, 3, 8320
7, 79517, Pitch_bend_c, 3, 8320
7, 79522, Pitch_bend_c, 3, 8320
7, 79526, Pitch_bend_c, 3, 8320
7, 79530, Pitch_bend_c, 3, 8192
7, 79535, Pitch_bend_c, 3, 8192
7, 79539, Pitch_bend_c, 3, 8192
7, 79544, Pitch_bend_c, 3, 8192
7, 79548, Pitch_bend_c, 3, 8192
7, 79552, Pitch_bend_c, 3, 8192
7, 79557, Pitch_bend_c, 3, 8192
7, 79560, Control_c, 2, 7, 37
7, 79560, Control_c, 3, 7, 37
7, 79561, Pitch_bend_c, 3, 8192
7, 79566, Pitch_bend_c, 3, 8192
7, 79570, Pitch_bend_c, 3, 8192
7, 79575, Pitch_bend_c, 3, 8192
7, 79579, Pitch_bend_c, 3, 8064
7, 79583, Pitch_bend_c, 3, 8064
7, 79588, Pitch_bend_c, 3, 8064
7, 79592, Pitch_bend_c, 3, 8064
7, 79597, Pitch_bend_c, 3, 8064
7, 79601, Pitch_bend_c, 3, 8192
7, 79605, Pitch_bend_c, 3, 8192
7, 79610, Pitch_bend_c, 3, 8192
7, 79614, Pitch_bend_c, 3, 8192
7, 79619, Pitch_bend_c, 3, 8192
7, 79623, Pitch_bend_c, 3, 8192
7, 79627, Pitch_bend_c, 3, 8192
7, 79632, Pitch_bend_c, 3, 8320
7, 79636, Pitch_bend_c, 3, 8320
7, 79641, Pitch_bend_c, 3, 8320
7, 79645, Pitch_bend_c, 3, 8320
7, 79649, Pitch_bend_c, 3, 8448
7, 79654, Pitch_bend_c, 3, 8448
7, 79658, Pitch_bend_c, 3, 8448
7, 79663, Pitch_bend_c, 3, 8448
7, 79667, Pitch_bend_c, 3, 8448
7, 79671, Pitch_bend_c, 3, 8320
7, 79676, Pitch_bend_c, 3, 8320
7, 79680, Control_c, 2, 7, 46
7, 79680, Control_c, 3, 7, 46
7, 79680, Pitch_bend_c, 3, 8320
7, 79685, Pitch_bend_c, 3, 8320
7, 79689, Pitch_bend_c, 3, 8192
7, 79693, Pitch_bend_c, 3, 8192
7, 79698, Pitch_bend_c, 3, 8192
7, 79702, Pitch_bend_c, 3, 8064
7, 79707, Pitch_bend_c, 3, 8064
7, 79711, Pitch_bend_c, 3, 8064
7, 79716, Pitch_bend_c, 3, 8064
7, 79720, Pitch_bend_c, 3, 7936
7, 79724, Pitch_bend_c, 3, 7936
7, 79729, Pitch_bend_c, 3, 7936
7, 79733, Pitch_bend_c, 3, 7936
7, 79738, Pitch_bend_c, 3, 7936
7, 79742, Pitch_bend_c, 3, 8064
7, 79746, Pitch_bend_c, 3, 8064
7, 79751, Pitch_bend_c, 3, 8064
7, 79755, Pitch_bend_c, 3, 8064
7, 79760, Pitch_bend_c, 3, 8192
7, 79764, Pitch_bend_c, 3, 8192
7, 79768, Pitch_bend_c, 3, 8192
7, 79773, Pitch_bend_c, 3, 8320
7, 79777, Pitch_bend_c, 3, 8320
7, 79782, Pitch_bend_c, 3, 8320
7, 79786, Pitch_bend_c, 3, 8320
7, 79790, Pitch_bend_c, 3, 8448
7, 79795, Pitch_bend_c, 3, 8448
7, 79799, Pitch_bend_c, 3, 8448
7, 79800, Control_c, 2, 7, 55
7, 79800, Control_c, 3, 7, 55
7, 79804, Pitch_bend_c, 3, 8448
7, 79808, Pitch_bend_c, 3, 8448
7, 79812, Pitch_bend_c, 3, 8320
7, 79817, Pitch_bend_c, 3, 8320
7, 79821, Pitch_bend_c, 3, 8320
7, 79826, Pitch_bend_c, 3, 8320
7, 79830, Pitch_bend_c, 3, 8192
7, 79834, Pitch_bend_c, 3, 8192
7, 79839, Pitch_bend_c, 3, 8192
7, 79843, Pitch_bend_c, 3, 8064
7, 79848, Pitch_bend_c, 3, 8064
7, 79852, Pitch_bend_c, 3, 8064
7, 79857, Pitch_bend_c, 3, 8064
7, 79861, Pitch_bend_c, 3, 7936
7, 79865, Pitch_bend_c, 3, 7936
7, 79870, Pitch_bend_c, 3, 7936
7, 79874, Pitch_bend_c, 3, 7936
7, 79879, Pitch_bend_c, 3, 7936
7, 79883, Pitch_bend_c, 3, 8064
7, 79887, Pitch_bend_c, 3, 8064
7, 79892, Pitch_bend_c, 3, 8064
7, 79896, Pitch_bend_c, 3, 8064
7, 79901, Pitch_bend_c, 3, 8192
7, 79905, Pitch_bend_c, 3, 8192
7, 79909, Pitch_bend_c, 3, 8192
7, 79914, Pitch_bend_c, 3, 8320
7, 79918, Pitch_bend_c, 3, 8320
7, 79920, Control_c, 2, 7, 65
7, 79920, Control_c, 3, 7, 65
7, 79923, Pitch_bend_c, 3, 8320
7, 79927, Pitch_bend_c, 3, 8320
7, 79931, Pitch_bend_c, 3, 8448
7, 79936, Pitch_bend_c, 3, 8448
7, 79940, Pitch_bend_c, 3, 8448
7, 79945, Pitch_bend_c, 3, 8448
7, 79949, Pitch_bend_c, 3, 8448
7, 79953, Pitch_bend_c, 3, 8320
7, 79958, Pitch_bend_c, 3, 8320
7, 79962, Pitch_bend_c, 3, 8320
7, 79967, Pitch_bend_c, 3, 8320
7, 79971, Pitch_bend_c, 3, 8192
7, 79975, Pitch_bend_c, 3, 8192
7, 79980, Pitch_bend_c, 3, 8192
7, 79984, Pitch_bend_c, 3, 8064
7, 79989, Pitch_bend_c, 3, 8064
7, 79993, Pitch_bend_c, 3, 8064
7, 79998, Pitch_bend_c, 3, 8064
7, 80002, Pitch_bend_c, 3, 7936
7, 80006, Pitch_bend_c, 3, 7936
7, 80011, Pitch_bend_c, 3, 7936
7, 80015, Pitch_bend_c, 3, 7936
7, 80020, Pitch_bend_c, 3, 7936
7, 80024, Pitch_bend_c, 3, 8064
7, 80028, Pitch_bend_c, 3, 8064
7, 80033, Pitch_bend_c, 3, 8064
7, 80037, Pitch_bend_c, 3, 8064
7, 80040, Control_c, 2, 7, 74
7, 80040, Control_c, 3, 7, 74
7, 80042, Pitch_bend_c, 3, 8192
7, 80046, Pitch_bend_c, 3, 8192
7, 80050, Pitch_bend_c, 3, 8192
7, 80055, Pitch_bend_c, 3, 8320
7, 80059, Pitch_bend_c, 3, 8320
7, 80064, Pitch_bend_c, 3, 8448
7, 80068, Pitch_bend_c, 3, 8448
7, 80072, Pitch_bend_c, 3, 8448
7, 80077, Pitch_bend_c, 3, 8448
7, 80081, Pitch_bend_c, 3, 8448
7, 80086, Pitch_bend_c, 3, 8448
7, 80090, Pitch_bend_c, 3, 8448
7, 80094, Pitch_bend_c, 3, 8448
7, 80099, Pitch_bend_c, 3, 8448
7, 80103, Pitch_bend_c, 3, 8320
7, 80108, Pitch_bend_c, 3, 8320
7, 80112, Pitch_bend_c, 3, 8192
7, 80116, Pitch_bend_c, 3, 8192
7, 80121, Pitch_bend_c, 3, 8192
7, 80125, Pitch_bend_c, 3, 8064
7, 80130, Pitch_bend_c, 3, 8064
7, 80134, Pitch_bend_c, 3, 7936
7, 80139, Pitch_bend_c, 3, 7936
7, 80143, Pitch_bend_c, 3, 7936
7, 80147, Pitch_bend_c, 3, 7936
7, 80152, Pitch_bend_c, 3, 7936
7, 80156, Pitch_bend_c, 3, 7936
7, 80160, Control_c, 2, 7, 83
7, 80160, Control_c, 3, 7, 83
7, 80161, Pitch_bend_c, 3, 7936
7, 80165, Pitch_bend_c, 3, 7936
7, 80169, Pitch_bend_c, 3, 7936
7, 80174, Pitch_bend_c, 3, 8064
7, 80178, Pitch_bend_c, 3, 8064
7, 80183, Pitch_bend_c, 3, 8192
7, 80187, Pitch_bend_c, 3, 8192
7, 80191, Pitch_bend_c, 3, 8192
7, 80196, Pitch_bend_c, 3, 8320
7, 80200, Pitch_bend_c, 3, 8320
7, 80205, Pitch_bend_c, 3, 8320
7, 80209, Pitch_bend_c, 3, 8448
7, 80213, Pitch_bend_c, 3, 8448
7, 80218, Pitch_bend_c, 3, 8448
7, 80222, Pitch_bend_c, 3, 8448
7, 80227, Pitch_bend_c, 3, 8448
7, 80231, Pitch_bend_c, 3, 8448
7, 80235, Pitch_bend_c, 3, 8448
7, 80240, Pitch_bend_c, 3, 8320
7, 80244, Pitch_bend_c, 3, 8320
7, 80249, Pitch_bend_c, 3, 8320
7, 80253, Pitch_bend_c, 3, 8192
7, 80257, Pitch_bend_c, 3, 8192
7, 80262, Pitch_bend_c, 3, 8192
7, 80266, Pitch_bend_c, 3, 8064
7, 80271, Pitch_bend_c, 3, 8064
7, 80275, Pitch_bend_c, 3, 8064
7, 80280, Control_c, 2, 7, 92
7, 80280, Control_c, 3, 7, 92
7, 80280, Pitch_bend_c, 3, 7936
7, 80284, Pitch_bend_c, 3, 7936
7, 80288, Pitch_bend_c, 3, 7936
7, 80293, Pitch_bend_c, 3, 7936
7, 80297, Pitch_bend_c, 3, 7936
7, 80302, Pitch_bend_c, 3, 7936
7, 80306, Pitch_bend_c, 3, 7936
7, 80310, Pitch_bend_c, 3, 8064
7, 80315, Pitch_bend_c, 3, 8064
7, 80319, Pitch_bend_c, 3, 8064
7, 80324, Pitch_bend_c, 3, 8192
7, 80328, Pitch_bend_c, 3, 8192
7, 80332, Pitch_bend_c, 3, 8192
7, 80337, Pitch_bend_c, 3, 8320
7, 80341, Pitch_bend_c, 3, 8320
7, 80346, Pitch_bend_c, 3, 8448
7, 80350, Pitch_bend_c, 3, 8448
7, 80354, Pitch_bend_c, 3, 8448
7, 80359, Pitch_bend_c, 3, 8448
7, 80363, Pitch_bend_c, 3, 8448
7, 80368, Pitch_bend_c, 3, 8448
7, 80372, Pitch_bend_c, 3, 8448
7, 80376, Pitch_bend_c, 3, 8448
7, 80381, Pitch_bend_c, 3, 8448
7, 80385, Pitch_bend_c, 3, 8320
7, 80390, Pitch_bend_c, 3, 8320
7, 80394, Pitch_bend_c, 3, 8192
7, 80398, Pitch_bend_c, 3, 8192
7, 80400, Control_c, 2, 7, 102
7, 80400, Control_c, 3, 7, 102
7, 80403, Pitch_bend_c, 3, 8192
7, 80407, Pitch_bend_c, 3, 8064
7, 80412, Pitch_bend_c, 3, 8064
7, 80416, Pitch_bend_c, 3, 7936
7, 80421, Pitch_bend_c, 3, 7936
7, 80425, Pitch_bend_c, 3, 7936
7, 80429, Pitch_bend_c, 3, 7936
7, 80434, Pitch_bend_c, 3, 7936
7, 80438, Pitch_bend_c, 3, 7936
7, 80443, Pitch_bend_c, 3, 7936
7, 80447, Pitch_bend_c, 3, 7936
7, 80451, Pitch_bend_c, 3, 7936
7, 80456, Pitch_bend_c, 3, 8064
7, 80460, Pitch_bend_c, 3, 8064
7, 80465, Pitch_bend_c, 3, 8192
7, 80469, Pitch_bend_c, 3, 8192
7, 80473, Pitch_bend_c, 3, 8192
7, 80478, Pitch_bend_c, 3, 8320
7, 80482, Pitch_bend_c, 3, 8320
7, 80487, Pitch_bend_c, 3, 8448
7, 80491, Pitch_bend_c, 3, 8448
7, 80495, Pitch_bend_c, 3, 8448
7, 80500, Pitch_bend_c, 3, 8448
7, 80504, Pitch_bend_c, 3, 8448
7, 80509, Pitch_bend_c, 3, 8448
7, 80513, Pitch_bend_c, 3, 8448
7, 80517, Pitch_bend_c, 3, 8448
7, 80520, Control_c, 2, 7, 111
7, 80520, Control_c, 3, 7, 111
7, 80522, Pitch_bend_c, 3, 8448
7, 80526, Pitch_bend_c, 3, 8320
7, 80531, Pitch_bend_c, 3, 8320
7, 80535, Pitch_bend_c, 3, 8192
7, 80539, Pitch_bend_c, 3, 8192
7, 80544, Pitch_bend_c, 3, 8192
7, 80548, Pitch_bend_c, 3, 8064
7, 80553, Pitch_bend_c, 3, 8064
7, 80557, Pitch_bend_c, 3, 7936
7, 80562, Pitch_bend_c, 3, 7936
7, 80566, Pitch_bend_c, 3, 7936
7, 80570, Pitch_bend_c, 3, 7936
7, 80575, Pitch_bend_c, 3, 7936
7, 80579, Pitch_bend_c, 3, 7936
7, 80584, Pitch_bend_c, 3, 7936
7, 80588, Pitch_bend_c, 3, 7936
7, 80592, Pitch_bend_c, 3, 7936
7, 80597, Pitch_bend_c, 3, 8064
7, 80601, Pitch_bend_c, 3, 8064
7, 80606, Pitch_bend_c, 3, 8192
7, 80610, Pitch_bend_c, 3, 8192
7, 80614, Pitch_bend_c, 3, 8192
7, 80619, Pitch_bend_c, 3, 8320
7, 80623, Pitch_bend_c, 3, 8320
7, 80628, Pitch_bend_c, 3, 8320
7, 80632, Pitch_bend_c, 3, 8320
7, 80636, Pitch_bend_c, 3, 8320
7, 80640, Control_c, 2, 7, 120
7, 80640, Control_c, 3, 7, 120
7, 80641, Pitch_bend_c, 3, 8320
7, 80645, Pitch_bend_c, 3, 8320
7, 80650, Pitch_bend_c, 3, 8320
7, 80654, Pitch_bend_c, 3, 8320
7, 80658, Pitch_bend_c, 3, 8320
7, 80663, Pitch_bend_c, 3, 8320
7, 80667, Pitch_bend_c, 3, 8320
7, 80672, Pitch_bend_c, 3, 8320
7, 80676, Pitch_bend_c, 3, 8192
7, 80680, Pitch_bend_c, 3, 8192
7, 80685, Pitch_bend_c, 3, 8192
7, 80689, Pitch_bend_c, 3, 8064
7, 80694, Pitch_bend_c, 3, 8064
7, 80698, Pitch_bend_c, 3, 8064
7, 80703, Pitch_bend_c, 3, 8064
7, 80707, Pitch_bend_c, 3, 8064
7, 80711, Pitch_bend_c, 3, 8064
7, 80716, Pitch_bend_c, 3, 8064
7, 80720, Pitch_bend_c, 3, 8064
7, 80725, Pitch_bend_c, 3, 8064
7, 80729, Pitch_bend_c, 3, 8064
7, 80733, Pitch_bend_c, 3, 8064
7, 80738, Pitch_bend_c, 3, 8064
7, 80742, Pitch_bend_c, 3, 8064
7, 80747, Pitch_bend_c, 3, 8192
7, 80751, Pitch_bend_c, 3, 8192
7, 80755, Pitch_bend_c, 3, 8192
7, 80760, Pitch_bend_c, 3, 8320
7, 80764, Pitch_bend_c, 3, 8320
7, 80769, Pitch_bend_c, 3, 8320
7, 80773, Pitch_bend_c, 3, 8320
7, 80777, Pitch_bend_c, 3, 8448
7, 80782, Pitch_bend_c, 3, 8448
7, 80786, Pitch_bend_c, 3, 8448
7, 80791, Pitch_bend_c, 3, 8448
7, 80795, Pitch_bend_c, 3, 8448
7, 80799, Pitch_bend_c, 3, 8320
7, 80804, Pitch_bend_c, 3, 8320
7, 80808, Pitch_bend_c, 3, 8320
7, 80813, Pitch_bend_c, 3, 8320
7, 80817, Pitch_bend_c, 3, 8192
7, 80821, Pitch_bend_c, 3, 8192
7, 80826, Pitch_bend_c, 3, 8192
7, 80830, Pitch_bend_c, 3, 8064
7, 80835, Pitch_bend_c, 3, 8064
7, 80839, Pitch_bend_c, 3, 8064
7, 80844, Pitch_bend_c, 3, 8064
7, 80848, Pitch_bend_c, 3, 7936
7, 80852, Pitch_bend_c, 3, 7936
7, 80857, Pitch_bend_c, 3, 7936
7, 80861, Pitch_bend_c, 3, 7936
7, 80866, Pitch_bend_c, 3, 7936
7, 80870, Pitch_bend_c, 3, 8064
7, 80874, Pitch_bend_c, 3, 8064
7, 80879, Pitch_bend_c, 3, 8064
7, 80883, Pitch_bend_c, 3, 8064
7, 80888, Pitch_bend_c, 3, 8192
7, 80892, Pitch_bend_c, 3, 8192
7, 80896, Pitch_bend_c, 3, 8192
7, 80901, Pitch_bend_c, 3, 8320
7, 80905, Pitch_bend_c, 3, 8320
7, 80910, Pitch_bend_c, 3, 8320
7, 80914, Pitch_bend_c, 3, 8320
7, 80918, Pitch_bend_c, 3, 8448
7, 80923, Pitch_bend_c, 3, 8448
7, 80927, Pitch_bend_c, 3, 8448
7, 80932, Pitch_bend_c, 3, 8448
7, 80936, Pitch_bend_c, 3, 8448
7, 80940, Pitch_bend_c, 3, 8320
7, 80945, Pitch_bend_c, 3, 8320
7, 80949, Pitch_bend_c, 3, 8320
7, 80954, Pitch_bend_c, 3, 8320
7, 80958, Pitch_bend_c, 3, 8192
7, 80962, Pitch_bend_c, 3, 8192
7, 80967, Pitch_bend_c, 3, 8192
7, 80971, Pitch_bend_c, 3, 8064
7, 80976, Pitch_bend_c, 3, 8064
7, 80980, Pitch_bend_c, 3, 8064
7, 80985, Pitch_bend_c, 3, 8064
7, 80989, Pitch_bend_c, 3, 7936
7, 80993, Pitch_bend_c, 3, 7936
7, 80998, Pitch_bend_c, 3, 7936
7, 81002, Pitch_bend_c, 3, 7936
7, 81007, Pitch_bend_c, 3, 7936
7, 81011, Pitch_bend_c, 3, 8064
7, 81015, Pitch_bend_c, 3, 8064
7, 81020, Pitch_bend_c, 3, 8064
7, 81024, Pitch_bend_c, 3, 8064
7, 81029, Pitch_bend_c, 3, 8192
7, 81033, Pitch_bend_c, 3, 8192
7, 81037, Pitch_bend_c, 3, 8192
7, 81042, Pitch_bend_c, 3, 8320
7, 81046, Pitch_bend_c, 3, 8320
7, 81051, Pitch_bend_c, 3, 8320
7, 81055, Pitch_bend_c, 3, 8448
7, 81059, Pitch_bend_c, 3, 8448
7, 81064, Pitch_bend_c, 3, 8448
7, 81068, Pitch_bend_c, 3, 8448
7, 81073, Pitch_bend_c, 3, 8448
7, 81077, Pitch_bend_c, 3, 8448
7, 81081, Pitch_bend_c, 3, 8448
7, 81086, Pitch_bend_c, 3, 8320
7, 81090, Pitch_bend_c, 3, 8320
7, 81095, Pitch_bend_c, 3, 8320
7, 81099, Pitch_bend_c, 3, 8192
7, 81103, Pitch_bend_c, 3, 8192
7, 81108, Pitch_bend_c, 3, 8192
7, 81112, Pitch_bend_c, 3, 8064
7, 81117, Pitch_bend_c, 3, 8064
7, 81120, Note_on_c, 3, 68, 95
7, 81120, Pitch_bend_c, 3, 8192
7, 81121, Pitch_bend_c, 3, 8064
7, 81124, Pitch_bend_c, 3, 8192
7, 81126, Pitch_bend_c, 3, 7936
7, 81129, Pitch_bend_c, 3, 8192
7, 81130, Pitch_bend_c, 3, 7936
7, 81133, Pitch_bend_c, 3, 8192
7, 81134, Pitch_bend_c, 3, 7936
7, 81138, Pitch_bend_c, 3, 8192
7, 81139, Pitch_bend_c, 3, 7936
7, 81142, Pitch_bend_c, 3, 8192
7, 81143, Pitch_bend_c, 3, 7936
7, 81146, Pitch_bend_c, 3, 8192
7, 81148, Pitch_bend_c, 3, 7936
7, 81151, Pitch_bend_c, 3, 8192
7, 81152, Pitch_bend_c, 3, 7936
7, 81155, Pitch_bend_c, 3, 8192
7, 81156, Pitch_bend_c, 3, 8064
7, 81160, Pitch_bend_c, 3, 8192
7, 81161, Pitch_bend_c, 3, 8064
7, 81164, Pitch_bend_c, 3, 8192
7, 81165, Pitch_bend_c, 3, 8064
7, 81168, Pitch_bend_c, 3, 8192
7, 81170, Pitch_bend_c, 3, 8192
7, 81173, Pitch_bend_c, 3, 8192
7, 81174, Pitch_bend_c, 3, 8192
7, 81177, Pitch_bend_c, 3, 8192
7, 81178, Pitch_bend_c, 3, 8192
7, 81182, Pitch_bend_c, 3, 8192
7, 81183, Pitch_bend_c, 3, 8320
7, 81186, Pitch_bend_c, 3, 8192
7, 81187, Pitch_bend_c, 3, 8320
7, 81190, Pitch_bend_c, 3, 8192
7, 81192, Pitch_bend_c, 3, 8320
7, 81195, Pitch_bend_c, 3, 8192
7, 81196, Pitch_bend_c, 3, 8448
7, 81199, Pitch_bend_c, 3, 8192
7, 81200, Pitch_bend_c, 3, 8448
7, 81204, Pitch_bend_c, 3, 8192
7, 81205, Pitch_bend_c, 3, 8448
7, 81208, Pitch_bend_c, 3, 8192
7, 81209, Pitch_bend_c, 3, 8448
7, 81213, Pitch_bend_c, 3, 8192
7, 81214, Pitch_bend_c, 3, 8448
7, 81217, Pitch_bend_c, 3, 8192
7, 81218, Pitch_bend_c, 3, 8448
7, 81221, Pitch_bend_c, 3, 8192
7, 81222, Pitch_bend_c, 3, 8448
7, 81226, Pitch_bend_c, 3, 8192
7, 81227, Pitch_bend_c, 3, 8320
7, 81230, Pitch_bend_c, 3, 8192
7, 81231, Pitch_bend_c, 3, 8320
7, 81235, Pitch_bend_c, 3, 8192
7, 81236, Pitch_bend_c, 3, 8320
7, 81239, Pitch_bend_c, 3, 8192
7, 81240, Pitch_bend_c, 3, 8192
7, 81243, Pitch_bend_c, 3, 8192
7, 81244, Pitch_bend_c, 3, 8192
7, 81248, Pitch_bend_c, 3, 8192
7, 81249, Pitch_bend_c, 3, 8192
7, 81252, Pitch_bend_c, 3, 8192
7, 81253, Pitch_bend_c, 3, 8064
7, 81257, Pitch_bend_c, 3, 8192
7, 81258, Pitch_bend_c, 3, 8064
7, 81261, Pitch_bend_c, 3, 8192
7, 81262, Pitch_bend_c, 3, 8064
7, 81265, Pitch_bend_c, 3, 8192
7, 81267, Pitch_bend_c, 3, 7936
7, 81270, Pitch_bend_c, 3, 8320
7, 81271, Pitch_bend_c, 3, 7936
7, 81274, Pitch_bend_c, 3, 8320
7, 81275, Pitch_bend_c, 3, 7936
7, 81279, Pitch_bend_c, 3, 8320
7, 81280, Pitch_bend_c, 3, 7936
7, 81283, Pitch_bend_c, 3, 8448
7, 81284, Pitch_bend_c, 3, 7936
7, 81287, Pitch_bend_c, 3, 8448
7, 81289, Pitch_bend_c, 3, 7936
7, 81292, Pitch_bend_c, 3, 8448
7, 81293, Pitch_bend_c, 3, 7936
7, 81296, Pitch_bend_c, 3, 8448
7, 81297, Pitch_bend_c, 3, 8064
7, 81301, Pitch_bend_c, 3, 8448
7, 81302, Pitch_bend_c, 3, 8064
7, 81305, Pitch_bend_c, 3, 8448
7, 81306, Pitch_bend_c, 3, 8064
7, 81309, Pitch_bend_c, 3, 8448
7, 81311, Pitch_bend_c, 3, 8192
7, 81314, Pitch_bend_c, 3, 8320
7, 81315, Pitch_bend_c, 3, 8192
7, 81318, Pitch_bend_c, 3, 8320
7, 81319, Pitch_bend_c, 3, 8192
7, 81323, Pitch_bend_c, 3, 8320
7, 81324, Pitch_bend_c, 3, 8320
7, 81327, Pitch_bend_c, 3, 8192
7, 81328, Pitch_bend_c, 3, 8320
7, 81331, Pitch_bend_c, 3, 8192
7, 81333, Pitch_bend_c, 3, 8320
7, 81336, Pitch_bend_c, 3, 8192
7, 81337, Pitch_bend_c, 3, 8320
7, 81340, Pitch_bend_c, 3, 8064
7, 81341, Pitch_bend_c, 3, 8320
7, 81345, Pitch_bend_c, 3, 8064
7, 81346, Pitch_bend_c, 3, 8320
7, 81349, Pitch_bend_c, 3, 8064
7, 81350, Pitch_bend_c, 3, 8320
7, 81354, Pitch_bend_c, 3, 7936
7, 81355, Pitch_bend_c, 3, 8320
7, 81358, Pitch_bend_c, 3, 7936
7, 81359, Pitch_bend_c, 3, 8320
7, 81362, Pitch_bend_c, 3, 7936
7, 81363, Pitch_bend_c, 3, 8320
7, 81367, Pitch_bend_c, 3, 7936
7, 81368, Pitch_bend_c, 3, 8320
7, 81371, Pitch_bend_c, 3, 7936
7, 81372, Pitch_bend_c, 3, 8320
7, 81376, Pitch_bend_c, 3, 7936
7, 81377, Pitch_bend_c, 3, 8320
7, 81380, Pitch_bend_c, 3, 7936
7, 81381, Pitch_bend_c, 3, 8192
7, 81384, Pitch_bend_c, 3, 8064
7, 81385, Pitch_bend_c, 3, 8192
7, 81389, Pitch_bend_c, 3, 8064
7, 81390, Pitch_bend_c, 3, 8192
7, 81393, Pitch_bend_c, 3, 8064
7, 81394, Pitch_bend_c, 3, 8064
7, 81398, Pitch_bend_c, 3, 8192
7, 81399, Pitch_bend_c, 3, 8064
7, 81402, Pitch_bend_c, 3, 8192
7, 81403, Pitch_bend_c, 3, 8064
7, 81406, Pitch_bend_c, 3, 8192
7, 81408, Pitch_bend_c, 3, 8064
7, 81411, Pitch_bend_c, 3, 8320
7, 81412, Pitch_bend_c, 3, 8064
7, 81415, Pitch_bend_c, 3, 8320
7, 81416, Pitch_bend_c, 3, 8064
7, 81420, Pitch_bend_c, 3, 8320
7, 81421, Pitch_bend_c, 3, 8064
7, 81424, Pitch_bend_c, 3, 8320
7, 81425, Pitch_bend_c, 3, 8064
7, 81428, Pitch_bend_c, 3, 8320
7, 81430, Pitch_bend_c, 3, 8064
7, 81433, Pitch_bend_c, 3, 8320
7, 81434, Pitch_bend_c, 3, 8064
7, 81437, Pitch_bend_c, 3, 8320
7, 81438, Pitch_bend_c, 3, 8064
7, 81442, Pitch_bend_c, 3, 8320
7, 81443, Pitch_bend_c, 3, 8064
7, 81446, Pitch_bend_c, 3, 8320
7, 81447, Pitch_bend_c, 3, 8064
7, 81450, Pitch_bend_c, 3, 8320
7, 81452, Pitch_bend_c, 3, 8192
7, 81455, Pitch_bend_c, 3, 8320
7, 81456, Pitch_bend_c, 3, 8192
7, 81459, Pitch_bend_c, 3, 8320
7, 81460, Pitch_bend_c, 3, 8192
7, 81464, Pitch_bend_c, 3, 8320
7, 81465, Pitch_bend_c, 3, 8320
7, 81468, Pitch_bend_c, 3, 8192
7, 81469, Pitch_bend_c, 3, 8320
7, 81472, Pitch_bend_c, 3, 8192
7, 81474, Pitch_bend_c, 3, 8320
7, 81477, Pitch_bend_c, 3, 8192
7, 81478, Pitch_bend_c, 3, 8448
7, 81481, Pitch_bend_c, 3, 8064
7, 81482, Pitch_bend_c, 3, 8448
7, 81486, Pitch_bend_c, 3, 8064
7, 81487, Pitch_bend_c, 3, 8448
7, 81490, Pitch_bend_c, 3, 8064
7, 81491, Pitch_bend_c, 3, 8448
7, 81495, Pitch_bend_c, 3, 8064
7, 81496, Pitch_bend_c, 3, 8448
7, 81499, Pitch_bend_c, 3, 8064
7, 81500, Pitch_bend_c, 3, 8448
7, 81503, Pitch_bend_c, 3, 8064
7, 81504, Pitch_bend_c, 3, 8448
7, 81508, Pitch_bend_c, 3, 8064
7, 81509, Pitch_bend_c, 3, 8320
7, 81512, Pitch_bend_c, 3, 8064
7, 81513, Pitch_bend_c, 3, 8320
7, 81517, Pitch_bend_c, 3, 8064
7, 81518, Pitch_bend_c, 3, 8320
7, 81521, Pitch_bend_c, 3, 8064
7, 81522, Pitch_bend_c, 3, 8192
7, 81525, Pitch_bend_c, 3, 8064
7, 81526, Pitch_bend_c, 3, 8192
7, 81530, Pitch_bend_c, 3, 8064
7, 81531, Pitch_bend_c, 3, 8192
7, 81534, Pitch_bend_c, 3, 8064
7, 81535, Pitch_bend_c, 3, 8064
7, 81539, Pitch_bend_c, 3, 8192
7, 81540, Pitch_bend_c, 3, 8064
7, 81543, Pitch_bend_c, 3, 8192
7, 81544, Pitch_bend_c, 3, 8064
7, 81547, Pitch_bend_c, 3, 8192
7, 81549, Pitch_bend_c, 3, 7936
7, 81552, Pitch_bend_c, 3, 8320
7, 81553, Pitch_bend_c, 3, 7936
7, 81556, Pitch_bend_c, 3, 8320
7, 81557, Pitch_bend_c, 3, 7936
7, 81561, Pitch_bend_c, 3, 8320
7, 81562, Pitch_bend_c, 3, 7936
7, 81565, Pitch_bend_c, 3, 8320
7, 81566, Pitch_bend_c, 3, 7936
7, 81569, Pitch_bend_c, 3, 8320
7, 81571, Pitch_bend_c, 3, 7936
7, 81574, Pitch_bend_c, 3, 8320
7, 81575, Pitch_bend_c, 3, 7936
7, 81578, Pitch_bend_c, 3, 8320
7, 81579, Pitch_bend_c, 3, 8064
7, 81583, Pitch_bend_c, 3, 8320
7, 81584, Pitch_bend_c, 3, 8064
7, 81587, Pitch_bend_c, 3, 8320
7, 81588, Pitch_bend_c, 3, 8064
7, 81591, Pitch_bend_c, 3, 8320
7, 81593, Pitch_bend_c, 3, 8192
7, 81596, Pitch_bend_c, 3, 8320
7, 81597, Pitch_bend_c, 3, 8192
7, 81600, Note_off_c, 3, 68, 80
7, 81600, Pitch_bend_c, 3, 8192
7, 81600, Note_on_c, 3, 68, 95
7, 81600, Pitch_bend_c, 3, 8192
7, 81601, Pitch_bend_c, 3, 8192
7, 81604, Pitch_bend_c, 3, 8192
7, 81606, Pitch_bend_c, 3, 8320
7, 81609, Pitch_bend_c, 3, 8192
7, 81610, Pitch_bend_c, 3, 8320
7, 81613, Pitch_bend_c, 3, 8192
7, 81615, Pitch_bend_c, 3, 8320
7, 81618, Pitch_bend_c, 3, 8192
7, 81619, Pitch_bend_c, 3, 8320
7, 81622, Pitch_bend_c, 3, 8192
7, 81623, Pitch_bend_c, 3, 8320
7, 81626, Pitch_bend_c, 3, 8192
7, 81628, Pitch_bend_c, 3, 8448
7, 81631, Pitch_bend_c, 3, 8192
7, 81632, Pitch_bend_c, 3, 8448
7, 81635, Pitch_bend_c, 3, 8192
7, 81637, Pitch_bend_c, 3, 8448
7, 81640, Pitch_bend_c, 3, 8192
7, 81641, Pitch_bend_c, 3, 8320
7, 81644, Pitch_bend_c, 3, 8192
7, 81645, Pitch_bend_c, 3, 8320
7, 81648, Pitch_bend_c, 3, 8192
7, 81650, Pitch_bend_c, 3, 8320
7, 81653, Pitch_bend_c, 3, 8192
7, 81654, Pitch_bend_c, 3, 8320
7, 81657, Pitch_bend_c, 3, 8192
7, 81659, Pitch_bend_c, 3, 8320
7, 81662, Pitch_bend_c, 3, 8192
7, 81663, Pitch_bend_c, 3, 8192
7, 81666, Pitch_bend_c, 3, 8192
7, 81667, Pitch_bend_c, 3, 8192
7, 81670, Pitch_bend_c, 3, 8192
7, 81672, Pitch_bend_c, 3, 8192
7, 81675, Pitch_bend_c, 3, 8192
7, 81676, Pitch_bend_c, 3, 8064
7, 81679, Pitch_bend_c, 3, 8192
7, 81681, Pitch_bend_c, 3, 8064
7, 81684, Pitch_bend_c, 3, 8192
7, 81685, Pitch_bend_c, 3, 8064
7, 81688, Pitch_bend_c, 3, 8192
7, 81690, Pitch_bend_c, 3, 8064
7, 81693, Pitch_bend_c, 3, 8192
7, 81694, Pitch_bend_c, 3, 8064
7, 81697, Pitch_bend_c, 3, 8192
7, 81698, Pitch_bend_c, 3, 7936
7, 81701, Pitch_bend_c, 3, 8192
7, 81703, Pitch_bend_c, 3, 7936
7, 81706, Pitch_bend_c, 3, 8192
7, 81707, Pitch_bend_c, 3, 7936
7, 81710, Pitch_bend_c, 3, 8192
7, 81712, Pitch_bend_c, 3, 8064
7, 81715, Pitch_bend_c, 3, 8192
7, 81716, Pitch_bend_c, 3, 8064
7, 81719, Pitch_bend_c, 3, 8192
7, 81720, Pitch_bend_c, 3, 8064
7, 81723, Pitch_bend_c, 3, 8192
7, 81725, Pitch_bend_c, 3, 8064
7, 81728, Pitch_bend_c, 3, 8192
7, 81729, Pitch_bend_c, 3, 8064
7, 81732, Pitch_bend_c, 3, 8192
7, 81734, Pitch_bend_c, 3, 8192
7, 81737, Pitch_bend_c, 3, 8192
7, 81738, Pitch_bend_c, 3, 8192
7, 81741, Pitch_bend_c, 3, 8192
7, 81742, Pitch_bend_c, 3, 8192
7, 81745, Pitch_bend_c, 3, 8192
7, 81747, Pitch_bend_c, 3, 8320
7, 81750, Pitch_bend_c, 3, 8320
7, 81751, Pitch_bend_c, 3, 8320
7, 81754, Pitch_bend_c, 3, 8320
7, 81756, Pitch_bend_c, 3, 8320
7, 81759, Pitch_bend_c, 3, 8320
7, 81760, Pitch_bend_c, 3, 8448
7, 81763, Pitch_bend_c, 3, 8320
7, 81764, Pitch_bend_c, 3, 8448
7, 81767, Pitch_bend_c, 3, 8320
7, 81769, Pitch_bend_c, 3, 8448
7, 81772, Pitch_bend_c, 3, 8320
7, 81773, Pitch_bend_c, 3, 8448
7, 81776, Pitch_bend_c, 3, 8320
7, 81778, Pitch_bend_c, 3, 8448
7, 81781, Pitch_bend_c, 3, 8320
7, 81782, Pitch_bend_c, 3, 8448
7, 81785, Pitch_bend_c, 3, 8320
7, 81786, Pitch_bend_c, 3, 8448
7, 81789, Pitch_bend_c, 3, 8320
7, 81791, Pitch_bend_c, 3, 8320
7, 81794, Pitch_bend_c, 3, 8320
7, 81795, Pitch_bend_c, 3, 8320
7, 81798, Pitch_bend_c, 3, 8320
7, 81800, Pitch_bend_c, 3, 8320
7, 81803, Pitch_bend_c, 3, 8320
7, 81804, Pitch_bend_c, 3, 8192
7, 81807, Pitch_bend_c, 3, 8192
7, 81808, Pitch_bend_c, 3, 8192
7, 81811, Pitch_bend_c, 3, 8192
7, 81813, Pitch_bend_c, 3, 8192
7, 81816, Pitch_bend_c, 3, 8192
7, 81817, Pitch_bend_c, 3, 8064
7, 81820, Pitch_bend_c, 3, 8064
7, 81822, Pitch_bend_c, 3, 8064
7, 81825, Pitch_bend_c, 3, 8064
7, 81826, Pitch_bend_c, 3, 8064
7, 81829, Pitch_bend_c, 3, 8064
7, 81831, Pitch_bend_c, 3, 7936
7, 81834, Pitch_bend_c, 3, 8064
7, 81835, Pitch_bend_c, 3, 7936
7, 81838, Pitch_bend_c, 3, 8064
7, 81839, Pitch_bend_c, 3, 7936
7, 81842, Pitch_bend_c, 3, 8064
7, 81844, Pitch_bend_c, 3, 7936
7, 81847, Pitch_bend_c, 3, 8064
7, 81848, Pitch_bend_c, 3, 7936
7, 81851, Pitch_bend_c, 3, 8064
7, 81853, Pitch_bend_c, 3, 7936
7, 81856, Pitch_bend_c, 3, 8064
7, 81857, Pitch_bend_c, 3, 7936
7, 81860, Pitch_bend_c, 3, 8064
7, 81861, Pitch_bend_c, 3, 8064
7, 81864, Pitch_bend_c, 3, 8064
7, 81866, Pitch_bend_c, 3, 8064
7, 81869, Pitch_bend_c, 3, 8064
7, 81870, Pitch_bend_c, 3, 8064
7, 81873, Pitch_bend_c, 3, 8064
7, 81875, Pitch_bend_c, 3, 8192
7, 81878, Pitch_bend_c, 3, 8192
7, 81879, Pitch_bend_c, 3, 8192
7, 81882, Pitch_bend_c, 3, 8192
7, 81883, Pitch_bend_c, 3, 8192
7, 81886, Pitch_bend_c, 3, 8192
7, 81888, Pitch_bend_c, 3, 8320
7, 81891, Pitch_bend_c, 3, 8320
7, 81892, Pitch_bend_c, 3, 8320
7, 81895, Pitch_bend_c, 3, 8320
7, 81897, Pitch_bend_c, 3, 8320
7, 81900, Pitch_bend_c, 3, 8320
7, 81901, Pitch_bend_c, 3, 8448
7, 81904, Pitch_bend_c, 3, 8448
7, 81905, Pitch_bend_c, 3, 8448
7, 81908, Pitch_bend_c, 3, 8448
7, 81910, Pitch_bend_c, 3, 8448
7, 81913, Pitch_bend_c, 3, 8448
7, 81914, Pitch_bend_c, 3, 8448
7, 81917, Pitch_bend_c, 3, 8448
7, 81919, Pitch_bend_c, 3, 8448
7, 81922, Pitch_bend_c, 3, 8448
7, 81923, Pitch_bend_c, 3, 8448
7, 81926, Pitch_bend_c, 3, 8448
7, 81927, Pitch_bend_c, 3, 8448
7, 81930, Pitch_bend_c, 3, 8448
7, 81932, Pitch_bend_c, 3, 8320
7, 81935, Pitch_bend_c, 3, 8320
7, 81936, Pitch_bend_c, 3, 8320
7, 81939, Pitch_bend_c, 3, 8320
7, 81941, Pitch_bend_c, 3, 8320
7, 81944, Pitch_bend_c, 3, 8320
7, 81945, Pitch_bend_c, 3, 8192
7, 81948, Pitch_bend_c, 3, 8192
7, 81949, Pitch_bend_c, 3, 8192
7, 81952, Pitch_bend_c, 3, 8192
7, 81954, Pitch_bend_c, 3, 8192
7, 81957, Pitch_bend_c, 3, 8192
7, 81958, Pitch_bend_c, 3, 8064
7, 81961, Pitch_bend_c, 3, 8064
7, 81963, Pitch_bend_c, 3, 8064
7, 81966, Pitch_bend_c, 3, 8064
7, 81967, Pitch_bend_c, 3, 8064
7, 81970, Pitch_bend_c, 3, 8064
7, 81972, Pitch_bend_c, 3, 7936
7, 81975, Pitch_bend_c, 3, 7936
7, 81976, Pitch_bend_c, 3, 7936
7, 81979, Pitch_bend_c, 3, 7936
7, 81980, Pitch_bend_c, 3, 7936
7, 81983, Pitch_bend_c, 3, 7936
7, 81985, Pitch_bend_c, 3, 7936
7, 81988, Pitch_bend_c, 3, 7936
7, 81989, Pitch_bend_c, 3, 7936
7, 81992, Pitch_bend_c, 3, 7936
7, 81994, Pitch_bend_c, 3, 7936
7, 81997, Pitch_bend_c, 3, 7936
7, 81998, Pitch_bend_c, 3, 7936
7, 82001, Pitch_bend_c, 3, 7936
7, 82002, Pitch_bend_c, 3, 8064
7, 82005, Pitch_bend_c, 3, 8064
7, 82007, Pitch_bend_c, 3, 8064
7, 82010, Pitch_bend_c, 3, 8064
7, 82011, Pitch_bend_c, 3, 8064
7, 82014, Pitch_bend_c, 3, 8064
7, 82016, Pitch_bend_c, 3, 8192
7, 82019, Pitch_bend_c, 3, 8192
7, 82020, Pitch_bend_c, 3, 8192
7, 82023, Pitch_bend_c, 3, 8192
7, 82024, Pitch_bend_c, 3, 8192
7, 82027, Pitch_bend_c, 3, 8192
7, 82029, Pitch_bend_c, 3, 8320
7, 82032, Pitch_bend_c, 3, 8320
7, 82033, Pitch_bend_c, 3, 8320
7, 82036, Pitch_bend_c, 3, 8320
7, 82038, Pitch_bend_c, 3, 8320
7, 82041, Pitch_bend_c, 3, 8448
7, 82042, Pitch_bend_c, 3, 8448
7, 82045, Pitch_bend_c, 3, 8448
7, 82046, Pitch_bend_c, 3, 8448
7, 82049, Pitch_bend_c, 3, 8448
7, 82051, Pitch_bend_c, 3, 8448
7, 82054, Pitch_bend_c, 3, 8448
7, 82055, Pitch_bend_c, 3, 8448
7, 82058, Pitch_bend_c, 3, 8448
7, 82060, Pitch_bend_c, 3, 8448
7, 82063, Pitch_bend_c, 3, 8448
7, 82064, Pitch_bend_c, 3, 8448
7, 82067, Pitch_bend_c, 3, 8448
7, 82068, Pitch_bend_c, 3, 8448
7, 82071, Pitch_bend_c, 3, 8448
7, 82073, Pitch_bend_c, 3, 8320
7, 82076, Pitch_bend_c, 3, 8448
7, 82077, Pitch_bend_c, 3, 8320
7, 82080, Pitch_bend_c, 3, 8320
7, 82082, Pitch_bend_c, 3, 8320
7, 82085, Pitch_bend_c, 3, 8320
7, 82086, Pitch_bend_c, 3, 8192
7, 82089, Pitch_bend_c, 3, 8192
7, 82090, Pitch_bend_c, 3, 8192
7, 82093, Pitch_bend_c, 3, 8192
7, 82095, Pitch_bend_c, 3, 8192
7, 82098, Pitch_bend_c, 3, 8192
7, 82099, Pitch_bend_c, 3, 8064
7, 82102, Pitch_bend_c, 3, 8064
7, 82104, Pitch_bend_c, 3, 8064
7, 82107, Pitch_bend_c, 3, 8064
7, 82108, Pitch_bend_c, 3, 8064
7, 82111, Pitch_bend_c, 3, 7936
7, 82113, Pitch_bend_c, 3, 7936
7, 82116, Pitch_bend_c, 3, 7936
7, 82117, Pitch_bend_c, 3, 7936
7, 82120, Pitch_bend_c, 3, 7936
7, 82121, Pitch_bend_c, 3, 7936
7, 82124, Pitch_bend_c, 3, 7936
7, 82126, Pitch_bend_c, 3, 7936
7, 82129, Pitch_bend_c, 3, 7936
7, 82130, Pitch_bend_c, 3, 7936
7, 82133, Pitch_bend_c, 3, 7936
7, 82135, Pitch_bend_c, 3, 7936
7, 82138, Pitch_bend_c, 3, 7936
7, 82139, Pitch_bend_c, 3, 7936
7, 82142, Pitch_bend_c, 3, 7936
7, 82143, Pitch_bend_c, 3, 8064
7, 82146, Pitch_bend_c, 3, 7936
7, 82148, Pitch_bend_c, 3, 8064
7, 82151, Pitch_bend_c, 3, 8064
7, 82152, Pitch_bend_c, 3, 8064
7, 82155, Pitch_bend_c, 3, 8064
7, 82157, Pitch_bend_c, 3, 8192
7, 82160, Pitch_bend_c, 3, 8192
7, 82161, Pitch_bend_c, 3, 8192
7, 82164, Pitch_bend_c, 3, 8192
7, 82165, Pitch_bend_c, 3, 8192
7, 82168, Pitch_bend_c, 3, 8192
7, 82170, Pitch_bend_c, 3, 8320
7, 82173, Pitch_bend_c, 3, 8320
7, 82174, Pitch_bend_c, 3, 8320
7, 82177, Pitch_bend_c, 3, 8320
7, 82179, Pitch_bend_c, 3, 8320
7, 82182, Pitch_bend_c, 3, 8448
7, 82183, Pitch_bend_c, 3, 8320
7, 82186, Pitch_bend_c, 3, 8448
7, 82187, Pitch_bend_c, 3, 8448
7, 82190, Pitch_bend_c, 3, 8448
7, 82192, Pitch_bend_c, 3, 8448
7, 82195, Pitch_bend_c, 3, 8448
7, 82196, Pitch_bend_c, 3, 8448
7, 82199, Pitch_bend_c, 3, 8448
7, 82201, Pitch_bend_c, 3, 8448
7, 82204, Pitch_bend_c, 3, 8448
7, 82205, Pitch_bend_c, 3, 8448
7, 82208, Pitch_bend_c, 3, 8448
7, 82209, Pitch_bend_c, 3, 8320
7, 82212, Pitch_bend_c, 3, 8448
7, 82214, Pitch_bend_c, 3, 8320
7, 82217, Pitch_bend_c, 3, 8448
7, 82218, Pitch_bend_c, 3, 8320
7, 82221, Pitch_bend_c, 3, 8320
7, 82223, Pitch_bend_c, 3, 8320
7, 82226, Pitch_bend_c, 3, 8320
7, 82227, Pitch_bend_c, 3, 8192
7, 82230, Pitch_bend_c, 3, 8192
7, 82231, Pitch_bend_c, 3, 8192
7, 82234, Pitch_bend_c, 3, 8192
7, 82236, Pitch_bend_c, 3, 8192
7, 82239, Pitch_bend_c, 3, 8192
7, 82240, Pitch_bend_c, 3, 8064
7, 82243, Pitch_bend_c, 3, 8064
7, 82245, Pitch_bend_c, 3, 8064
7, 82248, Pitch_bend_c, 3, 8064
7, 82249, Pitch_bend_c, 3, 8064
7, 82252, Pitch_bend_c, 3, 7936
7, 82254, Pitch_bend_c, 3, 8064
7, 82257, Pitch_bend_c, 3, 7936
7, 82258, Pitch_bend_c, 3, 7936
7, 82261, Pitch_bend_c, 3, 7936
7, 82262, Pitch_bend_c, 3, 7936
7, 82265, Pitch_bend_c, 3, 7936
7, 82267, Pitch_bend_c, 3, 7936
7, 82270, Pitch_bend_c, 3, 7936
7, 82271, Pitch_bend_c, 3, 7936
7, 82274, Pitch_bend_c, 3, 7936
7, 82276, Pitch_bend_c, 3, 7936
7, 82279, Pitch_bend_c, 3, 7936
7, 82280, Pitch_bend_c, 3, 8064
7, 82283, Pitch_bend_c, 3, 7936
7, 82284, Pitch_bend_c, 3, 8064
7, 82287, Pitch_bend_c, 3, 7936
7, 82289, Pitch_bend_c, 3, 8064
7, 82292, Pitch_bend_c, 3, 8064
7, 82293, Pitch_bend_c, 3, 8064
7, 82296, Pitch_bend_c, 3, 8064
7, 82298, Pitch_bend_c, 3, 8192
7, 82301, Pitch_bend_c, 3, 8192
7, 82302, Pitch_bend_c, 3, 8192
7, 82305, Pitch_bend_c, 3, 8192
7, 82306, Pitch_bend_c, 3, 8192
7, 82309, Pitch_bend_c, 3, 8192
7, 82311, Pitch_bend_c, 3, 8320
7, 82314, Pitch_bend_c, 3, 8320
7, 82315, Pitch_bend_c, 3, 8320
7, 82318, Pitch_bend_c, 3, 8320
7, 82320, Pitch_bend_c, 3, 8320
7, 82323, Pitch_bend_c, 3, 8448
7, 82324, Pitch_bend_c, 3, 8320
7, 82327, Pitch_bend_c, 3, 8448
7, 82328, Pitch_bend_c, 3, 8448
7, 82331, Pitch_bend_c, 3, 8448
7, 82333, Pitch_bend_c, 3, 8448
7, 82336, Pitch_bend_c, 3, 8448
7, 82337, Pitch_bend_c, 3, 8448
7, 82340, Pitch_bend_c, 3, 8448
7, 82342, Pitch_bend_c, 3, 8448
7, 82345, Pitch_bend_c, 3, 8448
7, 82346, Pitch_bend_c, 3, 8448
7, 82349, Pitch_bend_c, 3, 8448
7, 82350, Pitch_bend_c, 3, 8320
7, 82353, Pitch_bend_c, 3, 8448
7, 82355, Pitch_bend_c, 3, 8320
7, 82358, Pitch_bend_c, 3, 8448
7, 82359, Pitch_bend_c, 3, 8320
7, 82362, Pitch_bend_c, 3, 8320
7, 82364, Pitch_bend_c, 3, 8320
7, 82367, Pitch_bend_c, 3, 8320
7, 82368, Pitch_bend_c, 3, 8192
7, 82371, Pitch_bend_c, 3, 8192
7, 82372, Pitch_bend_c, 3, 8192
7, 82375, Pitch_bend_c, 3, 8192
7, 82377, Pitch_bend_c, 3, 8192
7, 82380, Pitch_bend_c, 3, 8192
7, 82381, Pitch_bend_c, 3, 8064
7, 82384, Pitch_bend_c, 3, 8064
7, 82386, Pitch_bend_c, 3, 8064
7, 82389, Pitch_bend_c, 3, 8064
7, 82390, Pitch_bend_c, 3, 8064
7, 82393, Pitch_bend_c, 3, 7936
7, 82395, Pitch_bend_c, 3, 8064
7, 82398, Pitch_bend_c, 3, 7936
7, 82399, Pitch_bend_c, 3, 7936
7, 82402, Pitch_bend_c, 3, 7936
7, 82403, Pitch_bend_c, 3, 7936
7, 82406, Pitch_bend_c, 3, 7936
7, 82408, Pitch_bend_c, 3, 7936
7, 82411, Pitch_bend_c, 3, 7936
7, 82412, Pitch_bend_c, 3, 7936
7, 82415, Pitch_bend_c, 3, 7936
7, 82417, Pitch_bend_c, 3, 7936
7, 82420, Pitch_bend_c, 3, 7936
7, 82421, Pitch_bend_c, 3, 8064
7, 82424, Pitch_bend_c, 3, 7936
7, 82425, Pitch_bend_c, 3, 8064
7, 82428, Pitch_bend_c, 3, 7936
7, 82430, Pitch_bend_c, 3, 8064
7, 82433, Pitch_bend_c, 3, 8064
7, 82434, Pitch_bend_c, 3, 8064
7, 82437, Pitch_bend_c, 3, 8064
7, 82439, Pitch_bend_c, 3, 8192
7, 82442, Pitch_bend_c, 3, 8192
7, 82443, Pitch_bend_c, 3, 8192
7, 82446, Pitch_bend_c, 3, 8192
7, 82447, Pitch_bend_c, 3, 8192
7, 82450, Pitch_bend_c, 3, 8192
7, 82452, Pitch_bend_c, 3, 8320
7, 82455, Pitch_bend_c, 3, 8320
7, 82456, Pitch_bend_c, 3, 8320
7, 82459, Pitch_bend_c, 3, 8320
7, 82461, Pitch_bend_c, 3, 8320
7, 82464, Pitch_bend_c, 3, 8320
7, 82465, Pitch_bend_c, 3, 8448
7, 82468, Pitch_bend_c, 3, 8448
7, 82469, Pitch_bend_c, 3, 8448
7, 82472, Pitch_bend_c, 3, 8448
7, 82474, Pitch_bend_c, 3, 8448
7, 82477, Pitch_bend_c, 3, 8448
7, 82478, Pitch_bend_c, 3, 8448
7, 82481, Pitch_bend_c, 3, 8448
7, 82483, Pitch_bend_c, 3, 8448
7, 82486, Pitch_bend_c, 3, 8448
7, 82487, Pitch_bend_c, 3, 8448
7, 82490, Pitch_bend_c, 3, 8448
7, 82491, Pitch_bend_c, 3, 8448
7, 82494, Pitch_bend_c, 3, 8448
7, 82496, Pitch_bend_c, 3, 8320
7, 82499, Pitch_bend_c, 3, 8320
7, 82500, Pitch_bend_c, 3, 8320
7, 82503, Pitch_bend_c, 3, 8320
7, 82505, Pitch_bend_c, 3, 8320
7, 82508, Pitch_bend_c, 3, 8320
7, 82509, Pitch_bend_c, 3, 8192
7, 82512, Pitch_bend_c, 3, 8192
7, 82513, Pitch_bend_c, 3, 8192
7, 82516, Pitch_bend_c, 3, 8192
7, 82518, Pitch_bend_c, 3, 8192
7, 82521, Pitch_bend_c, 3, 8192
7, 82522, Pitch_bend_c, 3, 8064
7, 82525, Pitch_bend_c, 3, 8064
7, 82527, Pitch_bend_c, 3, 8064
7, 82530, Pitch_bend_c, 3, 8064
7, 82531, Pitch_bend_c, 3, 8064
7, 82534, Pitch_bend_c, 3, 8064
7, 82536, Pitch_bend_c, 3, 7936
7, 82539, Pitch_bend_c, 3, 7936
7, 82540, Pitch_bend_c, 3, 7936
7, 82543, Pitch_bend_c, 3, 7936
7, 82544, Pitch_bend_c, 3, 7936
7, 82547, Pitch_bend_c, 3, 7936
7, 82549, Pitch_bend_c, 3, 7936
7, 82552, Pitch_bend_c, 3, 7936
7, 82553, Pitch_bend_c, 3, 7936
7, 82556, Pitch_bend_c, 3, 7936
7, 82558, Pitch_bend_c, 3, 7936
7, 82560, Note_off_c, 3, 68, 80
7, 82560, Pitch_bend_c, 3, 8192
7, 82560, Note_on_c, 3, 68, 111
7, 82560, Pitch_bend_c, 3, 8192
7, 82562, Pitch_bend_c, 3, 7936
7, 82564, Pitch_bend_c, 3, 8192
7, 82566, Pitch_bend_c, 3, 8064
7, 82569, Pitch_bend_c, 3, 8192
7, 82571, Pitch_bend_c, 3, 8064
7, 82573, Pitch_bend_c, 3, 8192
7, 82575, Pitch_bend_c, 3, 8064
7, 82578, Pitch_bend_c, 3, 8192
7, 82580, Pitch_bend_c, 3, 8192
7, 82582, Pitch_bend_c, 3, 8192
7, 82584, Pitch_bend_c, 3, 8192
7, 82586, Pitch_bend_c, 3, 8192
7, 82588, Pitch_bend_c, 3, 8192
7, 82591, Pitch_bend_c, 3, 8192
7, 82593, Pitch_bend_c, 3, 8192
7, 82595, Pitch_bend_c, 3, 8192
7, 82597, Pitch_bend_c, 3, 8320
7, 82600, Pitch_bend_c, 3, 8192
7, 82602, Pitch_bend_c, 3, 8320
7, 82604, Pitch_bend_c, 3, 8192
7, 82606, Pitch_bend_c, 3, 8320
7, 82608, Pitch_bend_c, 3, 8192
7, 82610, Pitch_bend_c, 3, 8320
7, 82613, Pitch_bend_c, 3, 8192
7, 82615, Pitch_bend_c, 3, 8320
7, 82617, Pitch_bend_c, 3, 8192
7, 82619, Pitch_bend_c, 3, 8320
7, 82622, Pitch_bend_c, 3, 8192
7, 82624, Pitch_bend_c, 3, 8320
7, 82626, Pitch_bend_c, 3, 8192
7, 82628, Pitch_bend_c, 3, 8320
7, 82630, Pitch_bend_c, 3, 8192
7, 82632, Pitch_bend_c, 3, 8320
7, 82635, Pitch_bend_c, 3, 8192
7, 82637, Pitch_bend_c, 3, 8320
7, 82639, Pitch_bend_c, 3, 8192
7, 82641, Pitch_bend_c, 3, 8320
7, 82644, Pitch_bend_c, 3, 8192
7, 82646, Pitch_bend_c, 3, 8192
7, 82648, Pitch_bend_c, 3, 8192
7, 82650, Pitch_bend_c, 3, 8192
7, 82653, Pitch_bend_c, 3, 8192
7, 82654, Pitch_bend_c, 3, 8192
7, 82657, Pitch_bend_c, 3, 8192
7, 82659, Pitch_bend_c, 3, 8192
7, 82661, Pitch_bend_c, 3, 8192
7, 82663, Pitch_bend_c, 3, 8192
7, 82666, Pitch_bend_c, 3, 8192
7, 82668, Pitch_bend_c, 3, 8064
7, 82670, Pitch_bend_c, 3, 8192
7, 82672, Pitch_bend_c, 3, 8064
7, 82675, Pitch_bend_c, 3, 8192
7, 82677, Pitch_bend_c, 3, 8064
7, 82679, Pitch_bend_c, 3, 8192
7, 82681, Pitch_bend_c, 3, 8064
7, 82683, Pitch_bend_c, 3, 8192
7, 82685, Pitch_bend_c, 3, 8064
7, 82688, Pitch_bend_c, 3, 8192
7, 82690, Pitch_bend_c, 3, 8064
7, 82692, Pitch_bend_c, 3, 8192
7, 82694, Pitch_bend_c, 3, 8064
7, 82697, Pitch_bend_c, 3, 8192
7, 82699, Pitch_bend_c, 3, 8064
7, 82701, Pitch_bend_c, 3, 8192
7, 82703, Pitch_bend_c, 3, 8064
7, 82705, Pitch_bend_c, 3, 8192
7, 82707, Pitch_bend_c, 3, 8064
7, 82710, Pitch_bend_c, 3, 8192
7, 82712, Pitch_bend_c, 3, 8064
7, 82714, Pitch_bend_c, 3, 8320
7, 82716, Pitch_bend_c, 3, 8192
7, 82719, Pitch_bend_c, 3, 8320
7, 82721, Pitch_bend_c, 3, 8192
7, 82723, Pitch_bend_c, 3, 8320
7, 82725, Pitch_bend_c, 3, 8192
7, 82727, Pitch_bend_c, 3, 8320
7, 82729, Pitch_bend_c, 3, 8192
7, 82732, Pitch_bend_c, 3, 8320
7, 82734, Pitch_bend_c, 3, 8320
7, 82736, Pitch_bend_c, 3, 8320
7, 82738, Pitch_bend_c, 3, 8320
7, 82741, Pitch_bend_c, 3, 8320
7, 82743, Pitch_bend_c, 3, 8320
7, 82745, Pitch_bend_c, 3, 8320
7, 82747, Pitch_bend_c, 3, 8320
7, 82749, Pitch_bend_c, 3, 8320
7, 82751, Pitch_bend_c, 3, 8320
7, 82754, Pitch_bend_c, 3, 8320
7, 82756, Pitch_bend_c, 3, 8320
7, 82758, Pitch_bend_c, 3, 8320
7, 82760, Pitch_bend_c, 3, 8320
7, 82763, Pitch_bend_c, 3, 8192
7, 82765, Pitch_bend_c, 3, 8320
7, 82767, Pitch_bend_c, 3, 8192
7, 82769, Pitch_bend_c, 3, 8320
7, 82771, Pitch_bend_c, 3, 8192
7, 82773, Pitch_bend_c, 3, 8320
7, 82776, Pitch_bend_c, 3, 8192
7, 82778, Pitch_bend_c, 3, 8320
7, 82780, Pitch_bend_c, 3, 8192
7, 82782, Pitch_bend_c, 3, 8320
7, 82785, Pitch_bend_c, 3, 8064
7, 82787, Pitch_bend_c, 3, 8320
7, 82789, Pitch_bend_c, 3, 8064
7, 82791, Pitch_bend_c, 3, 8192
7, 82794, Pitch_bend_c, 3, 8064
7, 82795, Pitch_bend_c, 3, 8192
7, 82798, Pitch_bend_c, 3, 8064
7, 82800, Pitch_bend_c, 3, 8192
7, 82802, Pitch_bend_c, 3, 8064
7, 82804, Pitch_bend_c, 3, 8064
7, 82807, Pitch_bend_c, 3, 8064
7, 82809, Pitch_bend_c, 3, 8064
7, 82811, Pitch_bend_c, 3, 8064
7, 82813, Pitch_bend_c, 3, 8064
7, 82816, Pitch_bend_c, 3, 8064
7, 82818, Pitch_bend_c, 3, 8064
7, 82820, Pitch_bend_c, 3, 8064
7, 82822, Pitch_bend_c, 3, 8064
7, 82824, Pitch_bend_c, 3, 8064
7, 82826, Pitch_bend_c, 3, 8064
7, 82829, Pitch_bend_c, 3, 8064
7, 82831, Pitch_bend_c, 3, 8064
7, 82833, Pitch_bend_c, 3, 8192
7, 82835, Pitch_bend_c, 3, 8064
7, 82838, Pitch_bend_c, 3, 8192
7, 82840, Pitch_bend_c, 3, 8064
7, 82842, Pitch_bend_c, 3, 8192
7, 82844, Pitch_bend_c, 3, 8064
7, 82846, Pitch_bend_c, 3, 8192
7, 82848, Pitch_bend_c, 3, 8064
7, 82851, Pitch_bend_c, 3, 8320
7, 82853, Pitch_bend_c, 3, 8064
7, 82855, Pitch_bend_c, 3, 8320
7, 82857, Pitch_bend_c, 3, 8064
7, 82860, Pitch_bend_c, 3, 8320
7, 82862, Pitch_bend_c, 3, 8192
7, 82864, Pitch_bend_c, 3, 8448
7, 82866, Pitch_bend_c, 3, 8192
7, 82868, Pitch_bend_c, 3, 8448
7, 82870, Pitch_bend_c, 3, 8192
7, 82873, Pitch_bend_c, 3, 8448
7, 82875, Pitch_bend_c, 3, 8192
7, 82877, Pitch_bend_c, 3, 8448
7, 82879, Pitch_bend_c, 3, 8192
7, 82882, Pitch_bend_c, 3, 8448
7, 82884, Pitch_bend_c, 3, 8192
7, 82886, Pitch_bend_c, 3, 8448
7, 82888, Pitch_bend_c, 3, 8192
7, 82890, Pitch_bend_c, 3, 8448
7, 82892, Pitch_bend_c, 3, 8192
7, 82895, Pitch_bend_c, 3, 8320
7, 82897, Pitch_bend_c, 3, 8192
7, 82899, Pitch_bend_c, 3, 8320
7, 82901, Pitch_bend_c, 3, 8192
7, 82904, Pitch_bend_c, 3, 8320
7, 82906, Pitch_bend_c, 3, 8192
7, 82908, Pitch_bend_c, 3, 8192
7, 82910, Pitch_bend_c, 3, 8192
7, 82912, Pitch_bend_c, 3, 8192
7, 82914, Pitch_bend_c, 3, 8192
7, 82917, Pitch_bend_c, 3, 8192
7, 82919, Pitch_bend_c, 3, 8192
7, 82921, Pitch_bend_c, 3, 8064
7, 82923, Pitch_bend_c, 3, 8192
7, 82926, Pitch_bend_c, 3, 8064
7, 82928, Pitch_bend_c, 3, 8192
7, 82930, Pitch_bend_c, 3, 8064
7, 82932, Pitch_bend_c, 3, 8192
7, 82935, Pitch_bend_c, 3, 7936
7, 82936, Pitch_bend_c, 3, 8192
7, 82939, Pitch_bend_c, 3, 7936
7, 82941, Pitch_bend_c, 3, 8192
7, 82943, Pitch_bend_c, 3, 7936
7, 82945, Pitch_bend_c, 3, 8192
7, 82948, Pitch_bend_c, 3, 7936
7, 82950, Pitch_bend_c, 3, 8192
7, 82952, Pitch_bend_c, 3, 7936
7, 82954, Pitch_bend_c, 3, 8192
7, 82957, Pitch_bend_c, 3, 7936
7, 82959, Pitch_bend_c, 3, 8192
7, 82961, Pitch_bend_c, 3, 7936
7, 82963, Pitch_bend_c, 3, 8192
7, 82965, Pitch_bend_c, 3, 8064
7, 82967, Pitch_bend_c, 3, 8192
7, 82970, Pitch_bend_c, 3, 8064
7, 82972, Pitch_bend_c, 3, 8192
7, 82974, Pitch_bend_c, 3, 8064
7, 82976, Pitch_bend_c, 3, 8192
7, 82979, Pitch_bend_c, 3, 8192
7, 82981, Pitch_bend_c, 3, 8192
7, 82983, Pitch_bend_c, 3, 8192
7, 82985, Pitch_bend_c, 3, 8192
7, 82987, Pitch_bend_c, 3, 8192
7, 82989, Pitch_bend_c, 3, 8192
7, 82992, Pitch_bend_c, 3, 8320
7, 82994, Pitch_bend_c, 3, 8192
7, 82996, Pitch_bend_c, 3, 8320
7, 82998, Pitch_bend_c, 3, 8192
7, 83001, Pitch_bend_c, 3, 8320
7, 83003, Pitch_bend_c, 3, 8192
7, 83005, Pitch_bend_c, 3, 8448
7, 83007, Pitch_bend_c, 3, 8192
7, 83009, Pitch_bend_c, 3, 8448
7, 83011, Pitch_bend_c, 3, 8192
7, 83014, Pitch_bend_c, 3, 8448
7, 83016, Pitch_bend_c, 3, 8192
7, 83018, Pitch_bend_c, 3, 8448
7, 83020, Pitch_bend_c, 3, 8192
7, 83023, Pitch_bend_c, 3, 8448
7, 83025, Pitch_bend_c, 3, 8192
7, 83027, Pitch_bend_c, 3, 8448
7, 83029, Pitch_bend_c, 3, 8192
7, 83031, Pitch_bend_c, 3, 8448
7, 83033, Pitch_bend_c, 3, 8192
7, 83036, Pitch_bend_c, 3, 8320
7, 83038, Pitch_bend_c, 3, 8192
7, 83040, Note_off_c, 3, 68, 80
7, 83040, Pitch_bend_c, 3, 8192
7, 83040, Pitch_bend_c, 3, 8320
7, 83045, Pitch_bend_c, 3, 8320
7, 83049, Pitch_bend_c, 3, 8192
7, 83053, Pitch_bend_c, 3, 8192
7, 83058, Pitch_bend_c, 3, 8192
7, 83062, Pitch_bend_c, 3, 8064
7, 83067, Pitch_bend_c, 3, 8064
7, 83071, Pitch_bend_c, 3, 8064
7, 83076, Pitch_bend_c, 3, 7936
7, 83080, Pitch_bend_c, 3, 7936
7, 83084, Pitch_bend_c, 3, 7936
7, 83089, Pitch_bend_c, 3, 7936
7, 83093, Pitch_bend_c, 3, 7936
7, 83098, Pitch_bend_c, 3, 7936
7, 83102, Pitch_bend_c, 3, 7936
7, 83106, Pitch_bend_c, 3, 8064
7, 83111, Pitch_bend_c, 3, 8064
7, 83115, Pitch_bend_c, 3, 8064
7, 83120, Pitch_bend_c, 3, 8192
7, 83124, Pitch_bend_c, 3, 8192
7, 83128, Pitch_bend_c, 3, 8192
7, 83133, Pitch_bend_c, 3, 8320
7, 83137, Pitch_bend_c, 3, 8320
7, 83142, Pitch_bend_c, 3, 8320
7, 83146, Pitch_bend_c, 3, 8448
7, 83150, Pitch_bend_c, 3, 8448
7, 83155, Pitch_bend_c, 3, 8448
7, 83159, Pitch_bend_c, 3, 8448
7, 83164, Pitch_bend_c, 3, 8448
7, 83168, Pitch_bend_c, 3, 8448
7, 83172, Pitch_bend_c, 3, 8448
7, 83177, Pitch_bend_c, 3, 8320
7, 83181, Pitch_bend_c, 3, 8320
7, 83186, Pitch_bend_c, 3, 8320
7, 83190, Pitch_bend_c, 3, 8192
7, 83194, Pitch_bend_c, 3, 8192
7, 83199, Pitch_bend_c, 3, 8192
7, 83203, Pitch_bend_c, 3, 8064
7, 83208, Pitch_bend_c, 3, 8064
7, 83212, Pitch_bend_c, 3, 8064
7, 83217, Pitch_bend_c, 3, 7936
7, 83221, Pitch_bend_c, 3, 7936
7, 83225, Pitch_bend_c, 3, 7936
7, 83230, Pitch_bend_c, 3, 7936
7, 83234, Pitch_bend_c, 3, 7936
7, 83239, Pitch_bend_c, 3, 7936
7, 83243, Pitch_bend_c, 3, 7936
7, 83247, Pitch_bend_c, 3, 8064
7, 83252, Pitch_bend_c, 3, 8064
7, 83256, Pitch_bend_c, 3, 8064
7, 83261, Pitch_bend_c, 3, 8192
7, 83265, Pitch_bend_c, 3, 8192
7, 83269, Pitch_bend_c, 3, 8192
7, 83274, Pitch_bend_c, 3, 8320
7, 83278, Pitch_bend_c, 3, 8320
7, 83283, Pitch_bend_c, 3, 8448
7, 83287, Pitch_bend_c, 3, 8448
7, 83291, Pitch_bend_c, 3, 8448
7, 83296, Pitch_bend_c, 3, 8448
7, 83300, Pitch_bend_c, 3, 8448
7, 83305, Pitch_bend_c, 3, 8448
7, 83309, Pitch_bend_c, 3, 8448
7, 83313, Pitch_bend_c, 3, 8448
7, 83318, Pitch_bend_c, 3, 8448
7, 83322, Pitch_bend_c, 3, 8320
7, 83327, Pitch_bend_c, 3, 8320
7, 83331, Pitch_bend_c, 3, 8192
7, 83335, Pitch_bend_c, 3, 8192
7, 83340, Pitch_bend_c, 3, 8192
7, 83344, Pitch_bend_c, 3, 8064
7, 83349, Pitch_bend_c, 3, 8064
7, 83353, Pitch_bend_c, 3, 7936
7, 83358, Pitch_bend_c, 3, 7936
7, 83362, Pitch_bend_c, 3, 7936
7, 83366, Pitch_bend_c, 3, 7936
7, 83371, Pitch_bend_c, 3, 7936
7, 83375, Pitch_bend_c, 3, 7936
7, 83380, Pitch_bend_c, 3, 7936
7, 83384, Pitch_bend_c, 3, 7936
7, 83388, Pitch_bend_c, 3, 7936
7, 83393, Pitch_bend_c, 3, 8064
7, 83397, Pitch_bend_c, 3, 8064
7, 83402, Pitch_bend_c, 3, 8192
7, 83406, Pitch_bend_c, 3, 8192
7, 83410, Pitch_bend_c, 3, 8192
7, 83415, Pitch_bend_c, 3, 8320
7, 83419, Pitch_bend_c, 3, 8320
7, 83424, Pitch_bend_c, 3, 8320
7, 83428, Pitch_bend_c, 3, 8320
7, 83432, Pitch_bend_c, 3, 8448
7, 83437, Pitch_bend_c, 3, 8448
7, 83441, Pitch_bend_c, 3, 8448
7, 83446, Pitch_bend_c, 3, 8448
7, 83450, Pitch_bend_c, 3, 8448
7, 83454, Pitch_bend_c, 3, 8320
7, 83459, Pitch_bend_c, 3, 8320
7, 83463, Pitch_bend_c, 3, 8320
7, 83468, Pitch_bend_c, 3, 8320
7, 83472, Pitch_bend_c, 3, 8192
7, 83476, Pitch_bend_c, 3, 8192
7, 83481, Pitch_bend_c, 3, 8192
7, 83485, Pitch_bend_c, 3, 8064
7, 83490, Pitch_bend_c, 3, 8064
7, 83494, Pitch_bend_c, 3, 8064
7, 83499, Pitch_bend_c, 3, 8064
7, 83503, Pitch_bend_c, 3, 7936
7, 83507, Pitch_bend_c, 3, 7936
7, 83512, Pitch_bend_c, 3, 7936
7, 83516, Pitch_bend_c, 3, 7936
7, 83521, Pitch_bend_c, 3, 7936
7, 83525, Pitch_bend_c, 3, 8064
7, 83529, Pitch_bend_c, 3, 8064
7, 83534, Pitch_bend_c, 3, 8064
7, 83538, Pitch_bend_c, 3, 8064
7, 83543, Pitch_bend_c, 3, 8192
7, 83547, Pitch_bend_c, 3, 8192
7, 83551, Pitch_bend_c, 3, 8192
7, 83556, Pitch_bend_c, 3, 8320
7, 83560, Pitch_bend_c, 3, 8320
7, 83565, Pitch_bend_c, 3, 8320
7, 83569, Pitch_bend_c, 3, 8320
7, 83573, Pitch_bend_c, 3, 8448
7, 83578, Pitch_bend_c, 3, 8448
7, 83582, Pitch_bend_c, 3, 8448
7, 83587, Pitch_bend_c, 3, 8448
7, 83591, Pitch_bend_c, 3, 8448
7, 83595, Pitch_bend_c, 3, 8320
7, 83600, Pitch_bend_c, 3, 8320
7, 83604, Pitch_bend_c, 3, 8320
7, 83609, Pitch_bend_c, 3, 8320
7, 83613, Pitch_bend_c, 3, 8192
7, 83617, Pitch_bend_c, 3, 8192
7, 83622, Pitch_bend_c, 3, 8192
7, 83626, Pitch_bend_c, 3, 8064
7, 83631, Pitch_bend_c, 3, 8064
7, 83635, Pitch_bend_c, 3, 8064
7, 83640, Pitch_bend_c, 3, 8064
7, 83644, Pitch_bend_c, 3, 7936
7, 83648, Pitch_bend_c, 3, 7936
7, 83653, Pitch_bend_c, 3, 7936
7, 83657, Pitch_bend_c, 3, 7936
7, 83662, Pitch_bend_c, 3, 7936
7, 83666, Pitch_bend_c, 3, 8064
7, 83670, Pitch_bend_c, 3, 8064
7, 83675, Pitch_bend_c, 3, 8064
7, 83679, Pitch_bend_c, 3, 8064
7, 83684, Pitch_bend_c, 3, 8192
7, 83688, Pitch_bend_c, 3, 8192
7, 83692, Pitch_bend_c, 3, 8192
7, 83697, Pitch_bend_c, 3, 8320
7, 83701, Pitch_bend_c, 3, 8320
7, 83706, Pitch_bend_c, 3, 8320
7, 83710, Pitch_bend_c, 3, 8448
7, 83714, Pitch_bend_c, 3, 8448
7, 83719, Pitch_bend_c, 3, 8448
7, 83723, Pitch_bend_c, 3, 8448
7, 83728, Pitch_bend_c, 3, 8448
7, 83732, Pitch_bend_c, 3, 8448
7, 83736, Pitch_bend_c, 3, 8448
7, 83741, Pitch_bend_c, 3, 8320
7, 83745, Pitch_bend_c, 3, 8320
7, 83750, Pitch_bend_c, 3, 8320
7, 83754, Pitch_bend_c, 3, 8192
7, 83758, Pitch_bend_c, 3, 8192
7, 83763, Pitch_bend_c, 3, 8192
7, 83767, Pitch_bend_c, 3, 8064
7, 83772, Pitch_bend_c, 3, 8064
7, 83776, Pitch_bend_c, 3, 8064
7, 83781, Pitch_bend_c, 3, 7936
7, 83785, Pitch_bend_c, 3, 7936
7, 83789, Pitch_bend_c, 3, 7936
7, 83794, Pitch_bend_c, 3, 7936
7, 83798, Pitch_bend_c, 3, 7936
7, 83803, Pitch_bend_c, 3, 7936
7, 83807, Pitch_bend_c, 3, 7936
7, 83811, Pitch_bend_c, 3, 8064
7, 83816, Pitch_bend_c, 3, 8064
7, 83820, Pitch_bend_c, 3, 8064
7, 83825, Pitch_bend_c, 3, 8192
7, 83829, Pitch_bend_c, 3, 8192
7, 83833, Pitch_bend_c, 3, 8192
7, 83838, Pitch_bend_c, 3, 8320
7, 83842, Pitch_bend_c, 3, 8320
7, 83847, Pitch_bend_c, 3, 8320
7, 83851, Pitch_bend_c, 3, 8320
7, 83855, Pitch_bend_c, 3, 8448
7, 83860, Pitch_bend_c, 3, 8448
7, 83864, Pitch_bend_c, 3, 8448
7, 83869, Pitch_bend_c, 3, 8448
7, 83873, Pitch_bend_c, 3, 8448
7, 83877, Pitch_bend_c, 3, 8320
7, 83882, Pitch_bend_c, 3, 8320
7, 83886, Pitch_bend_c, 3, 8320
7, 83891, Pitch_bend_c, 3, 8320
7, 83895, Pitch_bend_c, 3, 8192
7, 83899, Pitch_bend_c, 3, 8192
7, 83904, Pitch_bend_c, 3, 8192
7, 83908, Pitch_bend_c, 3, 8064
7, 83913, Pitch_bend_c, 3, 8064
7, 83917, Pitch_bend_c, 3, 8064
7, 83922, Pitch_bend_c, 3, 8064
7, 83926, Pitch_bend_c, 3, 7936
7, 83930, Pitch_bend_c, 3, 7936
7, 83935, Pitch_bend_c, 3, 7936
7, 83939, Pitch_bend_c, 3, 7936
7, 83944, Pitch_bend_c, 3, 7936
7, 83948, Pitch_bend_c, 3, 8064
7, 83952, Pitch_bend_c, 3, 8064
7, 83957, Pitch_bend_c, 3, 8064
7, 83961, Pitch_bend_c, 3, 8064
7, 83966, Pitch_bend_c, 3, 8192
7, 83970, Pitch_bend_c, 3, 8192
7, 83974, Pitch_bend_c, 3, 8192
7, 83979, Pitch_bend_c, 3, 8192
7, 83983, Pitch_bend_c, 3, 8192
7, 83988, Pitch_bend_c, 3, 8192
7, 83992, Pitch_bend_c, 3, 8192
7, 83996, Pitch_bend_c, 3, 8192
7, 84000, Note_off_c, 3, 68, 80
7, 84000, Pitch_bend_c, 3, 8192
7, 84000, Note_on_c, 3, 68, 111
7, 84000, Pitch_bend_c, 3, 8192
7, 84096, Pitch_bend_c, 3, 8320
7, 84288, Pitch_bend_c, 3, 8448
7, 84352, Pitch_bend_c, 3, 8576
7, 84416, Pitch_bend_c, 3, 8704
7, 84480, Pitch_bend_c, 3, 8832
7, 84496, Pitch_bend_c, 3, 8960
7, 84544, Pitch_bend_c, 3, 9088
7, 84560, Pitch_bend_c, 3, 9216
7, 84624, Pitch_bend_c, 3, 9344
7, 84672, Pitch_bend_c, 3, 9472
7, 84688, Pitch_bend_c, 3, 9600
7, 84736, Pitch_bend_c, 3, 9728
7, 84752, Pitch_bend_c, 3, 9856
7, 84800, Pitch_bend_c, 3, 9984
7, 84864, Pitch_bend_c, 3, 10112
7, 84928, Pitch_bend_c, 3, 10240
7, 84960, Pitch_bend_c, 3, 10112
7, 84964, Pitch_bend_c, 3, 10112
7, 84969, Pitch_bend_c, 3, 10112
7, 84973, Pitch_bend_c, 3, 10112
7, 84978, Pitch_bend_c, 3, 10112
7, 84982, Pitch_bend_c, 3, 10240
7, 84986, Pitch_bend_c, 3, 10240
7, 84991, Pitch_bend_c, 3, 10240
7, 84992, Pitch_bend_c, 3, 10240
7, 84996, Pitch_bend_c, 3, 10368
7, 85001, Pitch_bend_c, 3, 10368
7, 85005, Pitch_bend_c, 3, 10368
7, 85010, Pitch_bend_c, 3, 10368
7, 85014, Pitch_bend_c, 3, 10368
7, 85018, Pitch_bend_c, 3, 10368
7, 85023, Pitch_bend_c, 3, 10368
7, 85024, Pitch_bend_c, 3, 10368
7, 85028, Pitch_bend_c, 3, 10368
7, 85033, Pitch_bend_c, 3, 10368
7, 85037, Pitch_bend_c, 3, 10368
7, 85042, Pitch_bend_c, 3, 10368
7, 85046, Pitch_bend_c, 3, 10240
7, 85050, Pitch_bend_c, 3, 10240
7, 85055, Pitch_bend_c, 3, 10240
7, 85056, Pitch_bend_c, 3, 10240
7, 85060, Pitch_bend_c, 3, 10240
7, 85065, Pitch_bend_c, 3, 10240
7, 85069, Pitch_bend_c, 3, 10112
7, 85074, Pitch_bend_c, 3, 10112
7, 85078, Pitch_bend_c, 3, 10112
7, 85082, Pitch_bend_c, 3, 10112
7, 85087, Pitch_bend_c, 3, 10112
7, 85088, Pitch_bend_c, 3, 10112
7, 85092, Pitch_bend_c, 3, 10112
7, 85097, Pitch_bend_c, 3, 10112
7, 85101, Pitch_bend_c, 3, 10112
7, 85106, Pitch_bend_c, 3, 10112
7, 85110, Pitch_bend_c, 3, 10112
7, 85114, Pitch_bend_c, 3, 10112
7, 85119, Pitch_bend_c, 3, 10240
7, 85120, Pitch_bend_c, 3, 10240
7, 85124, Pitch_bend_c, 3, 10240
7, 85129, Pitch_bend_c, 3, 10240
7, 85133, Pitch_bend_c, 3, 10240
7, 85138, Pitch_bend_c, 3, 10368
7, 85142, Pitch_bend_c, 3, 10368
7, 85146, Pitch_bend_c, 3, 10368
7, 85151, Pitch_bend_c, 3, 10368
7, 85152, Pitch_bend_c, 3, 10368
7, 85156, Pitch_bend_c, 3, 10368
7, 85161, Pitch_bend_c, 3, 10368
7, 85165, Pitch_bend_c, 3, 10368
7, 85170, Pitch_bend_c, 3, 10368
7, 85174, Pitch_bend_c, 3, 10368
7, 85178, Pitch_bend_c, 3, 10368
7, 85183, Pitch_bend_c, 3, 10368
7, 85184, Pitch_bend_c, 3, 10368
7, 85188, Pitch_bend_c, 3, 10240
7, 85193, Pitch_bend_c, 3, 10240
7, 85197, Pitch_bend_c, 3, 10240
7, 85202, Pitch_bend_c, 3, 10240
7, 85206, Pitch_bend_c, 3, 10112
7, 85210, Pitch_bend_c, 3, 10112
7, 85215, Pitch_bend_c, 3, 10112
7, 85216, Pitch_bend_c, 3, 10112
7, 85220, Pitch_bend_c, 3, 10112
7, 85225, Pitch_bend_c, 3, 10112
7, 85229, Pitch_bend_c, 3, 10112
7, 85234, Pitch_bend_c, 3, 10112
7, 85238, Pitch_bend_c, 3, 10112
7, 85242, Pitch_bend_c, 3, 10112
7, 85247, Pitch_bend_c, 3, 10112
7, 85248, Pitch_bend_c, 3, 10112
7, 85252, Pitch_bend_c, 3, 10112
7, 85257, Pitch_bend_c, 3, 10112
7, 85261, Pitch_bend_c, 3, 10240
7, 85266, Pitch_bend_c, 3, 10240
7, 85270, Pitch_bend_c, 3, 10240
7, 85274, Pitch_bend_c, 3, 10240
7, 85279, Pitch_bend_c, 3, 10368
7, 85280, Pitch_bend_c, 3, 10368
7, 85284, Pitch_bend_c, 3, 10368
7, 85289, Pitch_bend_c, 3, 10368
7, 85293, Pitch_bend_c, 3, 10368
7, 85298, Pitch_bend_c, 3, 10368
7, 85302, Pitch_bend_c, 3, 10368
7, 85306, Pitch_bend_c, 3, 10368
7, 85311, Pitch_bend_c, 3, 10368
7, 85312, Pitch_bend_c, 3, 10368
7, 85316, Pitch_bend_c, 3, 10368
7, 85321, Pitch_bend_c, 3, 10368
7, 85325, Pitch_bend_c, 3, 10368
7, 85330, Pitch_bend_c, 3, 10240
7, 85334, Pitch_bend_c, 3, 10240
7, 85338, Pitch_bend_c, 3, 10240
7, 85343, Pitch_bend_c, 3, 10240
7, 85344, Pitch_bend_c, 3, 10240
7, 85348, Pitch_bend_c, 3, 10240
7, 85353, Pitch_bend_c, 3, 10112
7, 85357, Pitch_bend_c, 3, 10112
7, 85362, Pitch_bend_c, 3, 10112
7, 85366, Pitch_bend_c, 3, 10112
7, 85370, Pitch_bend_c, 3, 10112
7, 85375, Pitch_bend_c, 3, 10112
7, 85376, Pitch_bend_c, 3, 10112
7, 85380, Pitch_bend_c, 3, 10112
7, 85385, Pitch_bend_c, 3, 10112
7, 85389, Pitch_bend_c, 3, 10112
7, 85394, Pitch_bend_c, 3, 10112
7, 85398, Pitch_bend_c, 3, 10240
7, 85402, Pitch_bend_c, 3, 10240
7, 85407, Pitch_bend_c, 3, 10240
7, 85408, Pitch_bend_c, 3, 10240
7, 85412, Pitch_bend_c, 3, 10240
7, 85417, Pitch_bend_c, 3, 10240
7, 85421, Pitch_bend_c, 3, 10368
7, 85426, Pitch_bend_c, 3, 10368
7, 85430, Pitch_bend_c, 3, 10368
7, 85434, Pitch_bend_c, 3, 10368
7, 85439, Pitch_bend_c, 3, 10368
7, 85440, Pitch_bend_c, 3, 10496
7, 85444, Pitch_bend_c, 3, 10496
7, 85449, Pitch_bend_c, 3, 10368
7, 85453, Pitch_bend_c, 3, 10368
7, 85458, Pitch_bend_c, 3, 10368
7, 85462, Pitch_bend_c, 3, 10368
7, 85466, Pitch_bend_c, 3, 10368
7, 85471, Pitch_bend_c, 3, 10240
7, 85472, Pitch_bend_c, 3, 10240
7, 85476, Pitch_bend_c, 3, 10240
7, 85481, Pitch_bend_c, 3, 10240
7, 85485, Pitch_bend_c, 3, 10240
7, 85490, Pitch_bend_c, 3, 10240
7, 85494, Pitch_bend_c, 3, 10112
7, 85498, Pitch_bend_c, 3, 10112
7, 85503, Pitch_bend_c, 3, 10112
7, 85504, Pitch_bend_c, 3, 10112
7, 85508, Pitch_bend_c, 3, 10112
7, 85513, Pitch_bend_c, 3, 10112
7, 85517, Pitch_bend_c, 3, 10112
7, 85522, Pitch_bend_c, 3, 10112
7, 85526, Pitch_bend_c, 3, 10112
7, 85530, Pitch_bend_c, 3, 10112
7, 85535, Pitch_bend_c, 3, 10112
7, 85536, Pitch_bend_c, 3, 10112
7, 85540, Pitch_bend_c, 3, 10240
7, 85545, Pitch_bend_c, 3, 10240
7, 85549, Pitch_bend_c, 3, 10240
7, 85554, Pitch_bend_c, 3, 10240
7, 85558, Pitch_bend_c, 3, 10240
7, 85562, Pitch_bend_c, 3, 10368
7, 85567, Pitch_bend_c, 3, 10368
7, 85568, Pitch_bend_c, 3, 10368
7, 85572, Pitch_bend_c, 3, 10368
7, 85577, Pitch_bend_c, 3, 10368
7, 85581, Pitch_bend_c, 3, 10368
7, 85586, Pitch_bend_c, 3, 10368
7, 85590, Pitch_bend_c, 3, 10368
7, 85594, Pitch_bend_c, 3, 10368
7, 85599, Pitch_bend_c, 3, 10368
7, 85600, Pitch_bend_c, 3, 10368
7, 85604, Pitch_bend_c, 3, 10368
7, 85609, Pitch_bend_c, 3, 10240
7, 85613, Pitch_bend_c, 3, 10240
7, 85618, Pitch_bend_c, 3, 10240
7, 85622, Pitch_bend_c, 3, 10240
7, 85626, Pitch_bend_c, 3, 10240
7, 85631, Pitch_bend_c, 3, 10240
7, 85632, Pitch_bend_c, 3, 10112
7, 85636, Pitch_bend_c, 3, 10112
7, 85641, Pitch_bend_c, 3, 10112
7, 85645, Pitch_bend_c, 3, 10112
7, 85650, Pitch_bend_c, 3, 9984
7, 85654, Pitch_bend_c, 3, 9984
7, 85658, Pitch_bend_c, 3, 9984
7, 85663, Pitch_bend_c, 3, 10112
7, 85664, Pitch_bend_c, 3, 10112
7, 85668, Pitch_bend_c, 3, 10112
7, 85673, Pitch_bend_c, 3, 10112
7, 85677, Pitch_bend_c, 3, 10112
7, 85682, Pitch_bend_c, 3, 10240
7, 85686, Pitch_bend_c, 3, 10240
7, 85690, Pitch_bend_c, 3, 10240
7, 85695, Pitch_bend_c, 3, 10240
7, 85696, Pitch_bend_c, 3, 10240
7, 85700, Pitch_bend_c, 3, 10368
7, 85705, Pitch_bend_c, 3, 10368
7, 85709, Pitch_bend_c, 3, 10368
7, 85714, Pitch_bend_c, 3, 10368
7, 85718, Pitch_bend_c, 3, 10368
7, 85722, Pitch_bend_c, 3, 10368
7, 85727, Pitch_bend_c, 3, 10368
7, 85728, Pitch_bend_c, 3, 10368
7, 85732, Pitch_bend_c, 3, 10368
7, 85737, Pitch_bend_c, 3, 10368
7, 85741, Pitch_bend_c, 3, 10368
7, 85746, Pitch_bend_c, 3, 10368
7, 85750, Pitch_bend_c, 3, 10368
7, 85754, Pitch_bend_c, 3, 10368
7, 85759, Pitch_bend_c, 3, 10240
7, 85760, Pitch_bend_c, 3, 10240
7, 85764, Pitch_bend_c, 3, 10240
7, 85769, Pitch_bend_c, 3, 10112
7, 85773, Pitch_bend_c, 3, 10112
7, 85778, Pitch_bend_c, 3, 10112
7, 85782, Pitch_bend_c, 3, 10112
7, 85786, Pitch_bend_c, 3, 10112
7, 85791, Pitch_bend_c, 3, 10112
7, 85792, Pitch_bend_c, 3, 10112
7, 85796, Pitch_bend_c, 3, 10112
7, 85801, Pitch_bend_c, 3, 10112
7, 85805, Pitch_bend_c, 3, 10112
7, 85810, Pitch_bend_c, 3, 10112
7, 85814, Pitch_bend_c, 3, 10112
7, 85818, Pitch_bend_c, 3, 10112
7, 85823, Pitch_bend_c, 3, 10240
7, 85824, Pitch_bend_c, 3, 10240
7, 85828, Pitch_bend_c, 3, 10240
7, 85833, Pitch_bend_c, 3, 10240
7, 85837, Pitch_bend_c, 3, 10240
7, 85842, Pitch_bend_c, 3, 10240
7, 85846, Pitch_bend_c, 3, 10368
7, 85850, Pitch_bend_c, 3, 10368
7, 85855, Pitch_bend_c, 3, 10368
7, 85856, Pitch_bend_c, 3, 10368
7, 85860, Pitch_bend_c, 3, 10368
7, 85865, Pitch_bend_c, 3, 10368
7, 85869, Pitch_bend_c, 3, 10368
7, 85874, Pitch_bend_c, 3, 10368
7, 85878, Pitch_bend_c, 3, 10368
7, 85882, Pitch_bend_c, 3, 10368
7, 85887, Pitch_bend_c, 3, 10368
7, 85888, Pitch_bend_c, 3, 10368
7, 85892, Pitch_bend_c, 3, 10368
7, 85897, Pitch_bend_c, 3, 10240
7, 85901, Pitch_bend_c, 3, 10240
7, 85906, Pitch_bend_c, 3, 10240
7, 85910, Pitch_bend_c, 3, 10240
7, 85914, Pitch_bend_c, 3, 10112
7, 85919, Pitch_bend_c, 3, 10112
7, 85920, Pitch_bend_c, 3, 10112
7, 85920, Note_on_c, 3, 68, 111
7, 85920, Pitch_bend_c, 3, 10240
7, 85924, Pitch_bend_c, 3, 10112
7, 85924, Pitch_bend_c, 3, 10240
7, 85929, Pitch_bend_c, 3, 10112
7, 85929, Pitch_bend_c, 3, 10240
7, 85933, Pitch_bend_c, 3, 10112
7, 85933, Pitch_bend_c, 3, 10368
7, 85938, Pitch_bend_c, 3, 10112
7, 85938, Pitch_bend_c, 3, 10368
7, 85942, Pitch_bend_c, 3, 10112
7, 85942, Pitch_bend_c, 3, 10368
7, 85946, Pitch_bend_c, 3, 10112
7, 85946, Pitch_bend_c, 3, 10368
7, 85951, Pitch_bend_c, 3, 10112
7, 85951, Pitch_bend_c, 3, 10368
7, 85952, Pitch_bend_c, 3, 10112
7, 85952, Pitch_bend_c, 3, 10368
7, 85956, Pitch_bend_c, 3, 10112
7, 85956, Pitch_bend_c, 3, 10368
7, 85961, Pitch_bend_c, 3, 10112
7, 85961, Pitch_bend_c, 3, 10368
7, 85965, Pitch_bend_c, 3, 10240
7, 85965, Pitch_bend_c, 3, 10368
7, 85970, Pitch_bend_c, 3, 10240
7, 85970, Pitch_bend_c, 3, 10368
7, 85974, Pitch_bend_c, 3, 10240
7, 85974, Pitch_bend_c, 3, 10368
7, 85978, Pitch_bend_c, 3, 10240
7, 85978, Pitch_bend_c, 3, 10368
7, 85983, Pitch_bend_c, 3, 10368
7, 85983, Pitch_bend_c, 3, 10240
7, 85984, Pitch_bend_c, 3, 10240
7, 85984, Pitch_bend_c, 3, 10240
7, 85988, Pitch_bend_c, 3, 10368
7, 85988, Pitch_bend_c, 3, 10240
7, 85993, Pitch_bend_c, 3, 10368
7, 85993, Pitch_bend_c, 3, 10240
7, 85997, Pitch_bend_c, 3, 10368
7, 85997, Pitch_bend_c, 3, 10112
7, 86002, Pitch_bend_c, 3, 10368
7, 86002, Pitch_bend_c, 3, 10112
7, 86006, Pitch_bend_c, 3, 10368
7, 86006, Pitch_bend_c, 3, 10112
7, 86010, Pitch_bend_c, 3, 10368
7, 86010, Pitch_bend_c, 3, 10112
7, 86015, Pitch_bend_c, 3, 10368
7, 86015, Pitch_bend_c, 3, 10112
7, 86016, Pitch_bend_c, 3, 10368
7, 86016, Pitch_bend_c, 3, 10112
7, 86020, Pitch_bend_c, 3, 10368
7, 86020, Pitch_bend_c, 3, 10112
7, 86025, Pitch_bend_c, 3, 10368
7, 86025, Pitch_bend_c, 3, 10112
7, 86029, Pitch_bend_c, 3, 10368
7, 86029, Pitch_bend_c, 3, 10112
7, 86034, Pitch_bend_c, 3, 10240
7, 86034, Pitch_bend_c, 3, 10112
7, 86038, Pitch_bend_c, 3, 10240
7, 86038, Pitch_bend_c, 3, 10112
7, 86042, Pitch_bend_c, 3, 10240
7, 86042, Pitch_bend_c, 3, 10112
7, 86047, Pitch_bend_c, 3, 10240
7, 86047, Pitch_bend_c, 3, 10112
7, 86048, Pitch_bend_c, 3, 10240
7, 86048, Pitch_bend_c, 3, 10112
7, 86052, Pitch_bend_c, 3, 10240
7, 86052, Pitch_bend_c, 3, 10112
7, 86057, Pitch_bend_c, 3, 10112
7, 86057, Pitch_bend_c, 3, 10240
7, 86061, Pitch_bend_c, 3, 10112
7, 86061, Pitch_bend_c, 3, 10240
7, 86066, Pitch_bend_c, 3, 10112
7, 86066, Pitch_bend_c, 3, 10240
7, 86070, Pitch_bend_c, 3, 10112
7, 86070, Pitch_bend_c, 3, 10368
7, 86074, Pitch_bend_c, 3, 10112
7, 86074, Pitch_bend_c, 3, 10368
7, 86079, Pitch_bend_c, 3, 10112
7, 86079, Pitch_bend_c, 3, 10368
7, 86080, Pitch_bend_c, 3, 10112
7, 86080, Pitch_bend_c, 3, 10368
7, 86084, Pitch_bend_c, 3, 10112
7, 86084, Pitch_bend_c, 3, 10368
7, 86089, Pitch_bend_c, 3, 10112
7, 86089, Pitch_bend_c, 3, 10368
7, 86093, Pitch_bend_c, 3, 10112
7, 86093, Pitch_bend_c, 3, 10368
7, 86098, Pitch_bend_c, 3, 10112
7, 86098, Pitch_bend_c, 3, 10368
7, 86102, Pitch_bend_c, 3, 10112
7, 86102, Pitch_bend_c, 3, 10368
7, 86106, Pitch_bend_c, 3, 10240
7, 86106, Pitch_bend_c, 3, 10368
7, 86111, Pitch_bend_c, 3, 10240
7, 86111, Pitch_bend_c, 3, 10368
7, 86112, Pitch_bend_c, 3, 10240
7, 86112, Pitch_bend_c, 3, 10368
7, 86116, Pitch_bend_c, 3, 10240
7, 86116, Pitch_bend_c, 3, 10368
7, 86121, Pitch_bend_c, 3, 10240
7, 86121, Pitch_bend_c, 3, 10240
7, 86125, Pitch_bend_c, 3, 10240
7, 86125, Pitch_bend_c, 3, 10240
7, 86130, Pitch_bend_c, 3, 10368
7, 86130, Pitch_bend_c, 3, 10240
7, 86134, Pitch_bend_c, 3, 10368
7, 86134, Pitch_bend_c, 3, 10240
7, 86138, Pitch_bend_c, 3, 10368
7, 86138, Pitch_bend_c, 3, 10112
7, 86143, Pitch_bend_c, 3, 10368
7, 86143, Pitch_bend_c, 3, 10112
7, 86144, Pitch_bend_c, 3, 10368
7, 86144, Pitch_bend_c, 3, 10112
7, 86148, Pitch_bend_c, 3, 10368
7, 86148, Pitch_bend_c, 3, 10112
7, 86153, Pitch_bend_c, 3, 10368
7, 86153, Pitch_bend_c, 3, 10112
7, 86157, Pitch_bend_c, 3, 10368
7, 86157, Pitch_bend_c, 3, 10112
7, 86162, Pitch_bend_c, 3, 10368
7, 86162, Pitch_bend_c, 3, 10112
7, 86166, Pitch_bend_c, 3, 10368
7, 86166, Pitch_bend_c, 3, 10112
7, 86170, Pitch_bend_c, 3, 10368
7, 86170, Pitch_bend_c, 3, 10112
7, 86175, Pitch_bend_c, 3, 10240
7, 86175, Pitch_bend_c, 3, 10112
7, 86176, Pitch_bend_c, 3, 10240
7, 86176, Pitch_bend_c, 3, 10112
7, 86180, Pitch_bend_c, 3, 10240
7, 86180, Pitch_bend_c, 3, 10112
7, 86185, Pitch_bend_c, 3, 10240
7, 86185, Pitch_bend_c, 3, 10112
7, 86189, Pitch_bend_c, 3, 10240
7, 86189, Pitch_bend_c, 3, 10112
7, 86194, Pitch_bend_c, 3, 10112
7, 86194, Pitch_bend_c, 3, 10112
7, 86198, Pitch_bend_c, 3, 10112
7, 86198, Pitch_bend_c, 3, 10240
7, 86202, Pitch_bend_c, 3, 10112
7, 86202, Pitch_bend_c, 3, 10240
7, 86207, Pitch_bend_c, 3, 10112
7, 86207, Pitch_bend_c, 3, 10240
7, 86208, Pitch_bend_c, 3, 10112
7, 86208, Pitch_bend_c, 3, 10368
7, 86212, Pitch_bend_c, 3, 10112
7, 86212, Pitch_bend_c, 3, 10368
7, 86217, Pitch_bend_c, 3, 10112
7, 86217, Pitch_bend_c, 3, 10368
7, 86221, Pitch_bend_c, 3, 10112
7, 86221, Pitch_bend_c, 3, 10368
7, 86226, Pitch_bend_c, 3, 10112
7, 86226, Pitch_bend_c, 3, 10368
7, 86230, Pitch_bend_c, 3, 10112
7, 86230, Pitch_bend_c, 3, 10368
7, 86234, Pitch_bend_c, 3, 10112
7, 86234, Pitch_bend_c, 3, 10368
7, 86239, Pitch_bend_c, 3, 10112
7, 86239, Pitch_bend_c, 3, 10368
7, 86240, Pitch_bend_c, 3, 10112
7, 86240, Pitch_bend_c, 3, 10368
7, 86244, Pitch_bend_c, 3, 10112
7, 86244, Pitch_bend_c, 3, 10368
7, 86249, Pitch_bend_c, 3, 10240
7, 86249, Pitch_bend_c, 3, 10368
7, 86253, Pitch_bend_c, 3, 10240
7, 86253, Pitch_bend_c, 3, 10368
7, 86258, Pitch_bend_c, 3, 10240
7, 86258, Pitch_bend_c, 3, 10240
7, 86262, Pitch_bend_c, 3, 10240
7, 86262, Pitch_bend_c, 3, 10240
7, 86266, Pitch_bend_c, 3, 10368
7, 86266, Pitch_bend_c, 3, 10240
7, 86271, Pitch_bend_c, 3, 10368
7, 86271, Pitch_bend_c, 3, 10240
7, 86272, Pitch_bend_c, 3, 10368
7, 86272, Pitch_bend_c, 3, 10240
7, 86276, Pitch_bend_c, 3, 10368
7, 86276, Pitch_bend_c, 3, 10240
7, 86281, Pitch_bend_c, 3, 10368
7, 86281, Pitch_bend_c, 3, 10112
7, 86285, Pitch_bend_c, 3, 10368
7, 86285, Pitch_bend_c, 3, 10112
7, 86290, Pitch_bend_c, 3, 10368
7, 86290, Pitch_bend_c, 3, 10112
7, 86294, Pitch_bend_c, 3, 10368
7, 86294, Pitch_bend_c, 3, 10112
7, 86298, Pitch_bend_c, 3, 10368
7, 86298, Pitch_bend_c, 3, 10112
7, 86303, Pitch_bend_c, 3, 10368
7, 86303, Pitch_bend_c, 3, 10112
7, 86304, Pitch_bend_c, 3, 10368
7, 86304, Pitch_bend_c, 3, 10112
7, 86308, Pitch_bend_c, 3, 10368
7, 86308, Pitch_bend_c, 3, 10112
7, 86313, Pitch_bend_c, 3, 10368
7, 86313, Pitch_bend_c, 3, 10112
7, 86317, Pitch_bend_c, 3, 10240
7, 86317, Pitch_bend_c, 3, 10112
7, 86322, Pitch_bend_c, 3, 10240
7, 86322, Pitch_bend_c, 3, 10112
7, 86326, Pitch_bend_c, 3, 10240
7, 86326, Pitch_bend_c, 3, 10112
7, 86330, Pitch_bend_c, 3, 10240
7, 86330, Pitch_bend_c, 3, 10112
7, 86335, Pitch_bend_c, 3, 10112
7, 86335, Pitch_bend_c, 3, 10240
7, 86336, Pitch_bend_c, 3, 10112
7, 86336, Pitch_bend_c, 3, 10240
7, 86340, Pitch_bend_c, 3, 10112
7, 86340, Pitch_bend_c, 3, 10240
7, 86345, Pitch_bend_c, 3, 10112
7, 86345, Pitch_bend_c, 3, 10240
7, 86349, Pitch_bend_c, 3, 10112
7, 86349, Pitch_bend_c, 3, 10240
7, 86354, Pitch_bend_c, 3, 10112
7, 86354, Pitch_bend_c, 3, 10240
7, 86358, Pitch_bend_c, 3, 10112
7, 86358, Pitch_bend_c, 3, 10368
7, 86362, Pitch_bend_c, 3, 10112
7, 86362, Pitch_bend_c, 3, 10368
7, 86367, Pitch_bend_c, 3, 10112
7, 86367, Pitch_bend_c, 3, 10368
7, 86368, Pitch_bend_c, 3, 10112
7, 86368, Pitch_bend_c, 3, 10368
7, 86372, Pitch_bend_c, 3, 10112
7, 86372, Pitch_bend_c, 3, 10368
7, 86377, Pitch_bend_c, 3, 10112
7, 86377, Pitch_bend_c, 3, 10368
7, 86381, Pitch_bend_c, 3, 10112
7, 86381, Pitch_bend_c, 3, 10368
7, 86386, Pitch_bend_c, 3, 10112
7, 86386, Pitch_bend_c, 3, 10368
7, 86390, Pitch_bend_c, 3, 10240
7, 86390, Pitch_bend_c, 3, 10368
7, 86394, Pitch_bend_c, 3, 10240
7, 86394, Pitch_bend_c, 3, 10368
7, 86399, Pitch_bend_c, 3, 10240
7, 86399, Pitch_bend_c, 3, 10240
7, 86400, Pitch_bend_c, 3, 10240
7, 86400, Pitch_bend_c, 3, 10240
7, 86400, Note_on_c, 3, 68, 111
7, 86400, Pitch_bend_c, 3, 10240
7, 86404, Pitch_bend_c, 3, 10240
7, 86404, Pitch_bend_c, 3, 10240
7, 86404, Pitch_bend_c, 3, 10240
7, 86409, Pitch_bend_c, 3, 10368
7, 86409, Pitch_bend_c, 3, 10240
7, 86409, Pitch_bend_c, 3, 10240
7, 86413, Pitch_bend_c, 3, 10368
7, 86413, Pitch_bend_c, 3, 10240
7, 86413, Pitch_bend_c, 3, 10240
7, 86418, Pitch_bend_c, 3, 10368
7, 86418, Pitch_bend_c, 3, 10240
7, 86418, Pitch_bend_c, 3, 10368
7, 86422, Pitch_bend_c, 3, 10368
7, 86422, Pitch_bend_c, 3, 10240
7, 86422, Pitch_bend_c, 3, 10368
7, 86426, Pitch_bend_c, 3, 10368
7, 86426, Pitch_bend_c, 3, 10112
7, 86426, Pitch_bend_c, 3, 10368
7, 86431, Pitch_bend_c, 3, 10368
7, 86431, Pitch_bend_c, 3, 10112
7, 86431, Pitch_bend_c, 3, 10368
7, 86432, Pitch_bend_c, 3, 10368
7, 86432, Pitch_bend_c, 3, 10112
7, 86432, Pitch_bend_c, 3, 10368
7, 86436, Pitch_bend_c, 3, 10368
7, 86436, Pitch_bend_c, 3, 10112
7, 86436, Pitch_bend_c, 3, 10368
7, 86441, Pitch_bend_c, 3, 10368
7, 86441, Pitch_bend_c, 3, 10112
7, 86441, Pitch_bend_c, 3, 10368
7, 86445, Pitch_bend_c, 3, 10368
7, 86445, Pitch_bend_c, 3, 10112
7, 86445, Pitch_bend_c, 3, 10368
7, 86450, Pitch_bend_c, 3, 10368
7, 86450, Pitch_bend_c, 3, 10112
7, 86450, Pitch_bend_c, 3, 10368
7, 86454, Pitch_bend_c, 3, 10240
7, 86454, Pitch_bend_c, 3, 10112
7, 86454, Pitch_bend_c, 3, 10368
7, 86458, Pitch_bend_c, 3, 10240
7, 86458, Pitch_bend_c, 3, 10112
7, 86458, Pitch_bend_c, 3, 10368
7, 86463, Pitch_bend_c, 3, 10240
7, 86463, Pitch_bend_c, 3, 10112
7, 86463, Pitch_bend_c, 3, 10240
7, 86464, Pitch_bend_c, 3, 10240
7, 86464, Pitch_bend_c, 3, 10112
7, 86464, Pitch_bend_c, 3, 10240
7, 86468, Pitch_bend_c, 3, 10240
7, 86468, Pitch_bend_c, 3, 10112
7, 86468, Pitch_bend_c, 3, 10240
7, 86473, Pitch_bend_c, 3, 10112
7, 86473, Pitch_bend_c, 3, 10112
7, 86473, Pitch_bend_c, 3, 10240
7, 86477, Pitch_bend_c, 3, 10112
7, 86477, Pitch_bend_c, 3, 10240
7, 86477, Pitch_bend_c, 3, 10240
7, 86482, Pitch_bend_c, 3, 10112
7, 86482, Pitch_bend_c, 3, 10240
7, 86482, Pitch_bend_c, 3, 10112
7, 86486, Pitch_bend_c, 3, 10112
7, 86486, Pitch_bend_c, 3, 10240
7, 86486, Pitch_bend_c, 3, 10112
7, 86490, Pitch_bend_c, 3, 10112
7, 86490, Pitch_bend_c, 3, 10240
7, 86490, Pitch_bend_c, 3, 10112
7, 86495, Pitch_bend_c, 3, 10112
7, 86495, Pitch_bend_c, 3, 10368
7, 86495, Pitch_bend_c, 3, 10112
7, 86496, Pitch_bend_c, 3, 10112
7, 86496, Pitch_bend_c, 3, 10368
7, 86496, Pitch_bend_c, 3, 10112
7, 86500, Pitch_bend_c, 3, 9984
7, 86500, Pitch_bend_c, 3, 10368
7, 86500, Pitch_bend_c, 3, 10112
7, 86505, Pitch_bend_c, 3, 9984
7, 86505, Pitch_bend_c, 3, 10368
7, 86505, Pitch_bend_c, 3, 10112
7, 86509, Pitch_bend_c, 3, 10112
7, 86509, Pitch_bend_c, 3, 10368
7, 86509, Pitch_bend_c, 3, 10112
7, 86514, Pitch_bend_c, 3, 10112
7, 86514, Pitch_bend_c, 3, 10368
7, 86514, Pitch_bend_c, 3, 10112
7, 86518, Pitch_bend_c, 3, 10112
7, 86518, Pitch_bend_c, 3, 10368
7, 86518, Pitch_bend_c, 3, 10112
7, 86522, Pitch_bend_c, 3, 10112
7, 86522, Pitch_bend_c, 3, 10368
7, 86522, Pitch_bend_c, 3, 10112
7, 86527, Pitch_bend_c, 3, 10112
7, 86527, Pitch_bend_c, 3, 10368
7, 86527, Pitch_bend_c, 3, 10112
7, 86528, Pitch_bend_c, 3, 10112
7, 86528, Pitch_bend_c, 3, 10368
7, 86528, Pitch_bend_c, 3, 10112
7, 86532, Pitch_bend_c, 3, 10240
7, 86532, Pitch_bend_c, 3, 10368
7, 86532, Pitch_bend_c, 3, 10112
7, 86537, Pitch_bend_c, 3, 10240
7, 86537, Pitch_bend_c, 3, 10368
7, 86537, Pitch_bend_c, 3, 10240
7, 86541, Pitch_bend_c, 3, 10240
7, 86541, Pitch_bend_c, 3, 10240
7, 86541, Pitch_bend_c, 3, 10240
7, 86546, Pitch_bend_c, 3, 10368
7, 86546, Pitch_bend_c, 3, 10240
7, 86546, Pitch_bend_c, 3, 10240
7, 86550, Pitch_bend_c, 3, 10368
7, 86550, Pitch_bend_c, 3, 10240
7, 86550, Pitch_bend_c, 3, 10368
7, 86554, Pitch_bend_c, 3, 10368
7, 86554, Pitch_bend_c, 3, 10240
7, 86554, Pitch_bend_c, 3, 10368
7, 86559, Pitch_bend_c, 3, 10368
7, 86559, Pitch_bend_c, 3, 10240
7, 86559, Pitch_bend_c, 3, 10368
7, 86560, Pitch_bend_c, 3, 10368
7, 86560, Pitch_bend_c, 3, 10240
7, 86560, Pitch_bend_c, 3, 10368
7, 86564, Pitch_bend_c, 3, 10368
7, 86564, Pitch_bend_c, 3, 10112
7, 86564, Pitch_bend_c, 3, 10368
7, 86569, Pitch_bend_c, 3, 10496
7, 86569, Pitch_bend_c, 3, 10112
7, 86569, Pitch_bend_c, 3, 10368
7, 86573, Pitch_bend_c, 3, 10496
7, 86573, Pitch_bend_c, 3, 10112
7, 86573, Pitch_bend_c, 3, 10368
7, 86578, Pitch_bend_c, 3, 10368
7, 86578, Pitch_bend_c, 3, 10112
7, 86578, Pitch_bend_c, 3, 10368
7, 86582, Pitch_bend_c, 3, 10368
7, 86582, Pitch_bend_c, 3, 10112
7, 86582, Pitch_bend_c, 3, 10368
7, 86586, Pitch_bend_c, 3, 10368
7, 86586, Pitch_bend_c, 3, 10112
7, 86586, Pitch_bend_c, 3, 10368
7, 86591, Pitch_bend_c, 3, 10368
7, 86591, Pitch_bend_c, 3, 10112
7, 86591, Pitch_bend_c, 3, 10368
7, 86592, Pitch_bend_c, 3, 10368
7, 86592, Pitch_bend_c, 3, 10112
7, 86592, Pitch_bend_c, 3, 10368
7, 86596, Pitch_bend_c, 3, 10240
7, 86596, Pitch_bend_c, 3, 10112
7, 86596, Pitch_bend_c, 3, 10368
7, 86601, Pitch_bend_c, 3, 10240
7, 86601, Pitch_bend_c, 3, 10112
7, 86601, Pitch_bend_c, 3, 10240
7, 86605, Pitch_bend_c, 3, 10240
7, 86605, Pitch_bend_c, 3, 10112
7, 86605, Pitch_bend_c, 3, 10240
7, 86610, Pitch_bend_c, 3, 10240
7, 86610, Pitch_bend_c, 3, 10112
7, 86610, Pitch_bend_c, 3, 10240
7, 86614, Pitch_bend_c, 3, 10240
7, 86614, Pitch_bend_c, 3, 10112
7, 86614, Pitch_bend_c, 3, 10240
7, 86618, Pitch_bend_c, 3, 10112
7, 86618, Pitch_bend_c, 3, 10240
7, 86618, Pitch_bend_c, 3, 10112
7, 86623, Pitch_bend_c, 3, 10112
7, 86623, Pitch_bend_c, 3, 10240
7, 86623, Pitch_bend_c, 3, 10112
7, 86624, Pitch_bend_c, 3, 10112
7, 86624, Pitch_bend_c, 3, 10240
7, 86624, Pitch_bend_c, 3, 10112
7, 86628, Pitch_bend_c, 3, 10112
7, 86628, Pitch_bend_c, 3, 10240
7, 86628, Pitch_bend_c, 3, 10112
7, 86633, Pitch_bend_c, 3, 10112
7, 86633, Pitch_bend_c, 3, 10368
7, 86633, Pitch_bend_c, 3, 10112
7, 86637, Pitch_bend_c, 3, 10112
7, 86637, Pitch_bend_c, 3, 10368
7, 86637, Pitch_bend_c, 3, 10112
7, 86642, Pitch_bend_c, 3, 10112
7, 86642, Pitch_bend_c, 3, 10368
7, 86642, Pitch_bend_c, 3, 10112
7, 86646, Pitch_bend_c, 3, 10112
7, 86646, Pitch_bend_c, 3, 10368
7, 86646, Pitch_bend_c, 3, 10112
7, 86650, Pitch_bend_c, 3, 10112
7, 86650, Pitch_bend_c, 3, 10368
7, 86650, Pitch_bend_c, 3, 10112
7, 86655, Pitch_bend_c, 3, 10112
7, 86655, Pitch_bend_c, 3, 10496
7, 86655, Pitch_bend_c, 3, 10112
7, 86656, Pitch_bend_c, 3, 10112
7, 86656, Pitch_bend_c, 3, 10368
7, 86656, Pitch_bend_c, 3, 10112
7, 86660, Pitch_bend_c, 3, 10112
7, 86660, Pitch_bend_c, 3, 10368
7, 86660, Pitch_bend_c, 3, 10112
7, 86665, Pitch_bend_c, 3, 10112
7, 86665, Pitch_bend_c, 3, 10368
7, 86665, Pitch_bend_c, 3, 10112
7, 86669, Pitch_bend_c, 3, 10240
7, 86669, Pitch_bend_c, 3, 10368
7, 86669, Pitch_bend_c, 3, 10112
7, 86674, Pitch_bend_c, 3, 10240
7, 86674, Pitch_bend_c, 3, 10368
7, 86674, Pitch_bend_c, 3, 10240
7, 86678, Pitch_bend_c, 3, 10240
7, 86678, Pitch_bend_c, 3, 10368
7, 86678, Pitch_bend_c, 3, 10240
7, 86682, Pitch_bend_c, 3, 10240
7, 86682, Pitch_bend_c, 3, 10368
7, 86682, Pitch_bend_c, 3, 10240
7, 86687, Pitch_bend_c, 3, 10240
7, 86687, Pitch_bend_c, 3, 10240
7, 86687, Pitch_bend_c, 3, 10240
7, 86688, Pitch_bend_c, 3, 10368
7, 86688, Pitch_bend_c, 3, 10240
7, 86688, Pitch_bend_c, 3, 10240
7, 86692, Pitch_bend_c, 3, 10368
7, 86692, Pitch_bend_c, 3, 10240
7, 86692, Pitch_bend_c, 3, 10240
7, 86697, Pitch_bend_c, 3, 10368
7, 86697, Pitch_bend_c, 3, 10240
7, 86697, Pitch_bend_c, 3, 10368
7, 86701, Pitch_bend_c, 3, 10368
7, 86701, Pitch_bend_c, 3, 10240
7, 86701, Pitch_bend_c, 3, 10368
7, 86706, Pitch_bend_c, 3, 10368
7, 86706, Pitch_bend_c, 3, 10112
7, 86706, Pitch_bend_c, 3, 10368
7, 86710, Pitch_bend_c, 3, 10368
7, 86710, Pitch_bend_c, 3, 10112
7, 86710, Pitch_bend_c, 3, 10368
7, 86714, Pitch_bend_c, 3, 10368
7, 86714, Pitch_bend_c, 3, 10112
7, 86714, Pitch_bend_c, 3, 10368
7, 86719, Pitch_bend_c, 3, 10368
7, 86719, Pitch_bend_c, 3, 10112
7, 86719, Pitch_bend_c, 3, 10368
7, 86720, Pitch_bend_c, 3, 10368
7, 86720, Pitch_bend_c, 3, 10112
7, 86720, Pitch_bend_c, 3, 10368
7, 86724, Pitch_bend_c, 3, 10368
7, 86724, Pitch_bend_c, 3, 10112
7, 86724, Pitch_bend_c, 3, 10368
7, 86729, Pitch_bend_c, 3, 10368
7, 86729, Pitch_bend_c, 3, 10112
7, 86729, Pitch_bend_c, 3, 10368
7, 86733, Pitch_bend_c, 3, 10368
7, 86733, Pitch_bend_c, 3, 10112
7, 86733, Pitch_bend_c, 3, 10368
7, 86738, Pitch_bend_c, 3, 10368
7, 86738, Pitch_bend_c, 3, 10112
7, 86738, Pitch_bend_c, 3, 10368
7, 86742, Pitch_bend_c, 3, 10240
7, 86742, Pitch_bend_c, 3, 10112
7, 86742, Pitch_bend_c, 3, 10240
7, 86746, Pitch_bend_c, 3, 10240
7, 86746, Pitch_bend_c, 3, 10112
7, 86746, Pitch_bend_c, 3, 10240
7, 86751, Pitch_bend_c, 3, 10240
7, 86751, Pitch_bend_c, 3, 10112
7, 86751, Pitch_bend_c, 3, 10240
7, 86752, Pitch_bend_c, 3, 10240
7, 86752, Pitch_bend_c, 3, 10112
7, 86752, Pitch_bend_c, 3, 10240
7, 86756, Pitch_bend_c, 3, 10240
7, 86756, Pitch_bend_c, 3, 10240
7, 86756, Pitch_bend_c, 3, 10240
7, 86761, Pitch_bend_c, 3, 10112
7, 86761, Pitch_bend_c, 3, 10240
7, 86761, Pitch_bend_c, 3, 10240
7, 86765, Pitch_bend_c, 3, 10112
7, 86765, Pitch_bend_c, 3, 10240
7, 86765, Pitch_bend_c, 3, 10112
7, 86770, Pitch_bend_c, 3, 10112
7, 86770, Pitch_bend_c, 3, 10240
7, 86770, Pitch_bend_c, 3, 10112
7, 86774, Pitch_bend_c, 3, 10112
7, 86774, Pitch_bend_c, 3, 10368
7, 86774, Pitch_bend_c, 3, 10112
7, 86778, Pitch_bend_c, 3, 10112
7, 86778, Pitch_bend_c, 3, 10368
7, 86778, Pitch_bend_c, 3, 10112
7, 86783, Pitch_bend_c, 3, 10112
7, 86783, Pitch_bend_c, 3, 10368
7, 86783, Pitch_bend_c, 3, 10112
7, 86784, Pitch_bend_c, 3, 9984
7, 86784, Pitch_bend_c, 3, 10368
7, 86784, Pitch_bend_c, 3, 10112
7, 86788, Pitch_bend_c, 3, 9984
7, 86788, Pitch_bend_c, 3, 10368
7, 86788, Pitch_bend_c, 3, 10112
7, 86793, Pitch_bend_c, 3, 10112
7, 86793, Pitch_bend_c, 3, 10368
7, 86793, Pitch_bend_c, 3, 10112
7, 86797, Pitch_bend_c, 3, 10112
7, 86797, Pitch_bend_c, 3, 10368
7, 86797, Pitch_bend_c, 3, 10112
7, 86802, Pitch_bend_c, 3, 10112
7, 86802, Pitch_bend_c, 3, 10368
7, 86802, Pitch_bend_c, 3, 10112
7, 86806, Pitch_bend_c, 3, 10112
7, 86806, Pitch_bend_c, 3, 10368
7, 86806, Pitch_bend_c, 3, 10112
7, 86810, Pitch_bend_c, 3, 10112
7, 86810, Pitch_bend_c, 3, 10368
7, 86810, Pitch_bend_c, 3, 10112
7, 86815, Pitch_bend_c, 3, 10240
7, 86815, Pitch_bend_c, 3, 10368
7, 86815, Pitch_bend_c, 3, 10240
7, 86816, Pitch_bend_c, 3, 10240
7, 86816, Pitch_bend_c, 3, 10368
7, 86816, Pitch_bend_c, 3, 10240
7, 86820, Pitch_bend_c, 3, 10240
7, 86820, Pitch_bend_c, 3, 10368
7, 86820, Pitch_bend_c, 3, 10240
7, 86825, Pitch_bend_c, 3, 10368
7, 86825, Pitch_bend_c, 3, 10368
7, 86825, Pitch_bend_c, 3, 10240
7, 86829, Pitch_bend_c, 3, 10368
7, 86829, Pitch_bend_c, 3, 10240
7, 86829, Pitch_bend_c, 3, 10240
7, 86834, Pitch_bend_c, 3, 10368
7, 86834, Pitch_bend_c, 3, 10240
7, 86834, Pitch_bend_c, 3, 10368
7, 86838, Pitch_bend_c, 3, 10368
7, 86838, Pitch_bend_c, 3, 10240
7, 86838, Pitch_bend_c, 3, 10368
7, 86842, Pitch_bend_c, 3, 10368
7, 86842, Pitch_bend_c, 3, 10240
7, 86842, Pitch_bend_c, 3, 10368
7, 86847, Pitch_bend_c, 3, 10368
7, 86847, Pitch_bend_c, 3, 10112
7, 86847, Pitch_bend_c, 3, 10368
7, 86848, Pitch_bend_c, 3, 10368
7, 86848, Pitch_bend_c, 3, 10112
7, 86848, Pitch_bend_c, 3, 10368
7, 86852, Pitch_bend_c, 3, 10368
7, 86852, Pitch_bend_c, 3, 10112
7, 86852, Pitch_bend_c, 3, 10368
7, 86857, Pitch_bend_c, 3, 10368
7, 86857, Pitch_bend_c, 3, 10112
7, 86857, Pitch_bend_c, 3, 10368
7, 86861, Pitch_bend_c, 3, 10368
7, 86861, Pitch_bend_c, 3, 10112
7, 86861, Pitch_bend_c, 3, 10368
7, 86866, Pitch_bend_c, 3, 10368
7, 86866, Pitch_bend_c, 3, 10112
7, 86866, Pitch_bend_c, 3, 10368
7, 86870, Pitch_bend_c, 3, 10368
7, 86870, Pitch_bend_c, 3, 10112
7, 86870, Pitch_bend_c, 3, 10368
7, 86874, Pitch_bend_c, 3, 10368
7, 86874, Pitch_bend_c, 3, 10112
7, 86874, Pitch_bend_c, 3, 10368
7, 86879, Pitch_bend_c, 3, 10240
7, 86879, Pitch_bend_c, 3, 10112
7, 86879, Pitch_bend_c, 3, 10368
7, 86880, Pitch_bend_c, 3, 10368
7, 86880, Note_off_c, 3, 68, 80
7, 86880, Pitch_bend_c, 3, 10112
7, 86880, Pitch_bend_c, 3, 8192
7, 86880, Pitch_bend_c, 3, 10368
7, 86884, Pitch_bend_c, 3, 10240
7, 86884, Pitch_bend_c, 3, 10240
7, 86889, Pitch_bend_c, 3, 10240
7, 86889, Pitch_bend_c, 3, 10240
7, 86893, Pitch_bend_c, 3, 10240
7, 86893, Pitch_bend_c, 3, 10240
7, 86898, Pitch_bend_c, 3, 10240
7, 86898, Pitch_bend_c, 3, 10240
7, 86902, Pitch_bend_c, 3, 10112
7, 86902, Pitch_bend_c, 3, 10112
7, 86906, Pitch_bend_c, 3, 10112
7, 86906, Pitch_bend_c, 3, 10112
7, 86911, Pitch_bend_c, 3, 10112
7, 86911, Pitch_bend_c, 3, 10112
7, 86912, Pitch_bend_c, 3, 10112
7, 86912, Pitch_bend_c, 3, 10112
7, 86916, Pitch_bend_c, 3, 10112
7, 86916, Pitch_bend_c, 3, 10112
7, 86921, Pitch_bend_c, 3, 10112
7, 86921, Pitch_bend_c, 3, 10112
7, 86925, Pitch_bend_c, 3, 10112
7, 86925, Pitch_bend_c, 3, 10112
7, 86930, Pitch_bend_c, 3, 10112
7, 86930, Pitch_bend_c, 3, 10112
7, 86934, Pitch_bend_c, 3, 10112
7, 86934, Pitch_bend_c, 3, 10112
7, 86938, Pitch_bend_c, 3, 10112
7, 86938, Pitch_bend_c, 3, 10112
7, 86943, Pitch_bend_c, 3, 10112
7, 86943, Pitch_bend_c, 3, 10112
7, 86944, Pitch_bend_c, 3, 10112
7, 86944, Pitch_bend_c, 3, 10112
7, 86948, Pitch_bend_c, 3, 10112
7, 86948, Pitch_bend_c, 3, 10112
7, 86953, Pitch_bend_c, 3, 10240
7, 86953, Pitch_bend_c, 3, 10112
7, 86957, Pitch_bend_c, 3, 10240
7, 86957, Pitch_bend_c, 3, 10240
7, 86962, Pitch_bend_c, 3, 10240
7, 86962, Pitch_bend_c, 3, 10240
7, 86966, Pitch_bend_c, 3, 10368
7, 86966, Pitch_bend_c, 3, 10240
7, 86970, Pitch_bend_c, 3, 10368
7, 86970, Pitch_bend_c, 3, 10368
7, 86975, Pitch_bend_c, 3, 10368
7, 86975, Pitch_bend_c, 3, 10368
7, 86976, Pitch_bend_c, 3, 10368
7, 86976, Pitch_bend_c, 3, 10368
7, 86980, Pitch_bend_c, 3, 10368
7, 86980, Pitch_bend_c, 3, 10368
7, 86985, Pitch_bend_c, 3, 10368
7, 86985, Pitch_bend_c, 3, 10368
7, 86989, Pitch_bend_c, 3, 10368
7, 86989, Pitch_bend_c, 3, 10368
7, 86994, Pitch_bend_c, 3, 10368
7, 86994, Pitch_bend_c, 3, 10368
7, 86998, Pitch_bend_c, 3, 10368
7, 86998, Pitch_bend_c, 3, 10368
7, 87002, Pitch_bend_c, 3, 10368
7, 87002, Pitch_bend_c, 3, 10368
7, 87007, Pitch_bend_c, 3, 10368
7, 87007, Pitch_bend_c, 3, 10368
7, 87008, Pitch_bend_c, 3, 10368
7, 87008, Pitch_bend_c, 3, 10368
7, 87012, Pitch_bend_c, 3, 10368
7, 87012, Pitch_bend_c, 3, 10368
7, 87017, Pitch_bend_c, 3, 10368
7, 87017, Pitch_bend_c, 3, 10368
7, 87021, Pitch_bend_c, 3, 10368
7, 87021, Pitch_bend_c, 3, 10368
7, 87026, Pitch_bend_c, 3, 10240
7, 87026, Pitch_bend_c, 3, 10240
7, 87030, Pitch_bend_c, 3, 10240
7, 87030, Pitch_bend_c, 3, 10240
7, 87034, Pitch_bend_c, 3, 10240
7, 87034, Pitch_bend_c, 3, 10240
7, 87039, Pitch_bend_c, 3, 10112
7, 87039, Pitch_bend_c, 3, 10240
7, 87040, Pitch_bend_c, 3, 10240
7, 87040, Pitch_bend_c, 3, 10240
7, 87044, Pitch_bend_c, 3, 10112
7, 87044, Pitch_bend_c, 3, 10112
7, 87049, Pitch_bend_c, 3, 10112
7, 87049, Pitch_bend_c, 3, 10112
7, 87053, Pitch_bend_c, 3, 10112
7, 87053, Pitch_bend_c, 3, 10112
7, 87058, Pitch_bend_c, 3, 10112
7, 87058, Pitch_bend_c, 3, 10112
7, 87062, Pitch_bend_c, 3, 10112
7, 87062, Pitch_bend_c, 3, 10112
7, 87066, Pitch_bend_c, 3, 10112
7, 87066, Pitch_bend_c, 3, 10112
7, 87071, Pitch_bend_c, 3, 10112
7, 87071, Pitch_bend_c, 3, 10112
7, 87072, Pitch_bend_c, 3, 10112
7, 87072, Pitch_bend_c, 3, 10112
7, 87076, Pitch_bend_c, 3, 10112
7, 87076, Pitch_bend_c, 3, 10112
7, 87081, Pitch_bend_c, 3, 10112
7, 87081, Pitch_bend_c, 3, 10112
7, 87085, Pitch_bend_c, 3, 10112
7, 87085, Pitch_bend_c, 3, 10112
7, 87090, Pitch_bend_c, 3, 10240
7, 87090, Pitch_bend_c, 3, 10112
7, 87094, Pitch_bend_c, 3, 10240
7, 87094, Pitch_bend_c, 3, 10112
7, 87098, Pitch_bend_c, 3, 10240
7, 87098, Pitch_bend_c, 3, 10240
7, 87103, Pitch_bend_c, 3, 10240
7, 87103, Pitch_bend_c, 3, 10240
7, 87104, Pitch_bend_c, 3, 10240
7, 87104, Pitch_bend_c, 3, 10240
7, 87108, Pitch_bend_c, 3, 10240
7, 87108, Pitch_bend_c, 3, 10240
7, 87113, Pitch_bend_c, 3, 10368
7, 87113, Pitch_bend_c, 3, 10368
7, 87117, Pitch_bend_c, 3, 10368
7, 87117, Pitch_bend_c, 3, 10368
7, 87122, Pitch_bend_c, 3, 10368
7, 87122, Pitch_bend_c, 3, 10368
7, 87126, Pitch_bend_c, 3, 10368
7, 87126, Pitch_bend_c, 3, 10368
7, 87130, Pitch_bend_c, 3, 10368
7, 87130, Pitch_bend_c, 3, 10368
7, 87135, Pitch_bend_c, 3, 10368
7, 87135, Pitch_bend_c, 3, 10368
7, 87136, Pitch_bend_c, 3, 10368
7, 87136, Pitch_bend_c, 3, 10368
7, 87140, Pitch_bend_c, 3, 10368
7, 87140, Pitch_bend_c, 3, 10368
7, 87145, Pitch_bend_c, 3, 10368
7, 87145, Pitch_bend_c, 3, 10368
7, 87149, Pitch_bend_c, 3, 10368
7, 87149, Pitch_bend_c, 3, 10368
7, 87154, Pitch_bend_c, 3, 10368
7, 87154, Pitch_bend_c, 3, 10368
7, 87158, Pitch_bend_c, 3, 10368
7, 87158, Pitch_bend_c, 3, 10368
7, 87162, Pitch_bend_c, 3, 10368
7, 87162, Pitch_bend_c, 3, 10240
7, 87167, Pitch_bend_c, 3, 10240
7, 87167, Pitch_bend_c, 3, 10240
7, 87168, Pitch_bend_c, 3, 10240
7, 87168, Pitch_bend_c, 3, 10368
7, 87172, Pitch_bend_c, 3, 10240
7, 87172, Pitch_bend_c, 3, 10240
7, 87177, Pitch_bend_c, 3, 10240
7, 87177, Pitch_bend_c, 3, 10240
7, 87181, Pitch_bend_c, 3, 10112
7, 87181, Pitch_bend_c, 3, 10240
7, 87186, Pitch_bend_c, 3, 10112
7, 87186, Pitch_bend_c, 3, 10112
7, 87190, Pitch_bend_c, 3, 10112
7, 87190, Pitch_bend_c, 3, 10112
7, 87194, Pitch_bend_c, 3, 10112
7, 87194, Pitch_bend_c, 3, 10112
7, 87199, Pitch_bend_c, 3, 10112
7, 87199, Pitch_bend_c, 3, 10112
7, 87200, Pitch_bend_c, 3, 10112
7, 87200, Pitch_bend_c, 3, 10112
7, 87204, Pitch_bend_c, 3, 10112
7, 87204, Pitch_bend_c, 3, 10112
7, 87209, Pitch_bend_c, 3, 10112
7, 87209, Pitch_bend_c, 3, 10112
7, 87213, Pitch_bend_c, 3, 10112
7, 87213, Pitch_bend_c, 3, 10112
7, 87218, Pitch_bend_c, 3, 10112
7, 87218, Pitch_bend_c, 3, 10112
7, 87222, Pitch_bend_c, 3, 10112
7, 87222, Pitch_bend_c, 3, 10112
7, 87226, Pitch_bend_c, 3, 10112
7, 87226, Pitch_bend_c, 3, 10112
7, 87231, Pitch_bend_c, 3, 10240
7, 87231, Pitch_bend_c, 3, 10112
7, 87232, Pitch_bend_c, 3, 10240
7, 87232, Pitch_bend_c, 3, 10112
7, 87236, Pitch_bend_c, 3, 10240
7, 87236, Pitch_bend_c, 3, 10240
7, 87241, Pitch_bend_c, 3, 10240
7, 87241, Pitch_bend_c, 3, 10240
7, 87245, Pitch_bend_c, 3, 10240
7, 87245, Pitch_bend_c, 3, 10240
7, 87250, Pitch_bend_c, 3, 10368
7, 87250, Pitch_bend_c, 3, 10240
7, 87254, Pitch_bend_c, 3, 10368
7, 87254, Pitch_bend_c, 3, 10368
7, 87258, Pitch_bend_c, 3, 10368
7, 87258, Pitch_bend_c, 3, 10368
7, 87263, Pitch_bend_c, 3, 10368
7, 87263, Pitch_bend_c, 3, 10368
7, 87264, Pitch_bend_c, 3, 10368
7, 87264, Pitch_bend_c, 3, 10368
7, 87268, Pitch_bend_c, 3, 10368
7, 87268, Pitch_bend_c, 3, 10368
7, 87273, Pitch_bend_c, 3, 10368
7, 87273, Pitch_bend_c, 3, 10368
7, 87277, Pitch_bend_c, 3, 10368
7, 87277, Pitch_bend_c, 3, 10368
7, 87282, Pitch_bend_c, 3, 10368
7, 87282, Pitch_bend_c, 3, 10368
7, 87286, Pitch_bend_c, 3, 10368
7, 87286, Pitch_bend_c, 3, 10368
7, 87290, Pitch_bend_c, 3, 10368
7, 87290, Pitch_bend_c, 3, 10368
7, 87295, Pitch_bend_c, 3, 10368
7, 87295, Pitch_bend_c, 3, 10368
7, 87296, Pitch_bend_c, 3, 10368
7, 87296, Pitch_bend_c, 3, 10368
7, 87300, Pitch_bend_c, 3, 10368
7, 87300, Pitch_bend_c, 3, 10368
7, 87305, Pitch_bend_c, 3, 10240
7, 87305, Pitch_bend_c, 3, 10368
7, 87309, Pitch_bend_c, 3, 10240
7, 87309, Pitch_bend_c, 3, 10240
7, 87314, Pitch_bend_c, 3, 10240
7, 87314, Pitch_bend_c, 3, 10240
7, 87318, Pitch_bend_c, 3, 10240
7, 87318, Pitch_bend_c, 3, 10240
7, 87322, Pitch_bend_c, 3, 10112
7, 87322, Pitch_bend_c, 3, 10240
7, 87327, Pitch_bend_c, 3, 10112
7, 87327, Pitch_bend_c, 3, 10112
7, 87328, Pitch_bend_c, 3, 10112
7, 87328, Pitch_bend_c, 3, 10112
7, 87332, Pitch_bend_c, 3, 10112
7, 87332, Pitch_bend_c, 3, 10112
7, 87337, Pitch_bend_c, 3, 10112
7, 87337, Pitch_bend_c, 3, 10112
7, 87341, Pitch_bend_c, 3, 10112
7, 87341, Pitch_bend_c, 3, 10112
7, 87346, Pitch_bend_c, 3, 10112
7, 87346, Pitch_bend_c, 3, 10112
7, 87350, Pitch_bend_c, 3, 10112
7, 87350, Pitch_bend_c, 3, 10112
7, 87354, Pitch_bend_c, 3, 10112
7, 87354, Pitch_bend_c, 3, 10112
7, 87359, Pitch_bend_c, 3, 10112
7, 87359, Pitch_bend_c, 3, 10112
7, 87360, Pitch_bend_c, 3, 10112
7, 87360, Pitch_bend_c, 3, 10112
7, 87364, Pitch_bend_c, 3, 10112
7, 87364, Pitch_bend_c, 3, 10112
7, 87369, Pitch_bend_c, 3, 10240
7, 87369, Pitch_bend_c, 3, 10112
7, 87373, Pitch_bend_c, 3, 10240
7, 87373, Pitch_bend_c, 3, 10112
7, 87378, Pitch_bend_c, 3, 10240
7, 87378, Pitch_bend_c, 3, 10240
7, 87382, Pitch_bend_c, 3, 10240
7, 87382, Pitch_bend_c, 3, 10240
7, 87386, Pitch_bend_c, 3, 10240
7, 87386, Pitch_bend_c, 3, 10240
7, 87391, Pitch_bend_c, 3, 10240
7, 87391, Pitch_bend_c, 3, 10240
7, 87392, Pitch_bend_c, 3, 10368
7, 87392, Pitch_bend_c, 3, 10240
7, 87396, Pitch_bend_c, 3, 10368
7, 87396, Pitch_bend_c, 3, 10368
7, 87401, Pitch_bend_c, 3, 10368
7, 87401, Pitch_bend_c, 3, 10368
7, 87405, Pitch_bend_c, 3, 10368
7, 87405, Pitch_bend_c, 3, 10368
7, 87410, Pitch_bend_c, 3, 10368
7, 87410, Pitch_bend_c, 3, 10368
7, 87414, Pitch_bend_c, 3, 10496
7, 87414, Pitch_bend_c, 3, 10368
7, 87418, Pitch_bend_c, 3, 10496
7, 87418, Pitch_bend_c, 3, 10368
7, 87423, Pitch_bend_c, 3, 10496
7, 87423, Pitch_bend_c, 3, 10368
7, 87424, Pitch_bend_c, 3, 10368
7, 87424, Pitch_bend_c, 3, 10368
7, 87428, Pitch_bend_c, 3, 10368
7, 87428, Pitch_bend_c, 3, 10368
7, 87433, Pitch_bend_c, 3, 10368
7, 87433, Pitch_bend_c, 3, 10368
7, 87437, Pitch_bend_c, 3, 10368
7, 87437, Pitch_bend_c, 3, 10368
7, 87442, Pitch_bend_c, 3, 10368
7, 87442, Pitch_bend_c, 3, 10368
7, 87446, Pitch_bend_c, 3, 10368
7, 87446, Pitch_bend_c, 3, 10240
7, 87450, Pitch_bend_c, 3, 10240
7, 87450, Pitch_bend_c, 3, 10240
7, 87455, Pitch_bend_c, 3, 10240
7, 87455, Pitch_bend_c, 3, 10240
7, 87456, Pitch_bend_c, 3, 10240
7, 87456, Pitch_bend_c, 3, 10240
7, 87460, Pitch_bend_c, 3, 10240
7, 87460, Pitch_bend_c, 3, 10240
7, 87465, Pitch_bend_c, 3, 10112
7, 87465, Pitch_bend_c, 3, 10112
7, 87469, Pitch_bend_c, 3, 10112
7, 87469, Pitch_bend_c, 3, 10112
7, 87474, Pitch_bend_c, 3, 10112
7, 87474, Pitch_bend_c, 3, 10112
7, 87478, Pitch_bend_c, 3, 10112
7, 87478, Pitch_bend_c, 3, 10112
7, 87482, Pitch_bend_c, 3, 10112
7, 87482, Pitch_bend_c, 3, 10112
7, 87487, Pitch_bend_c, 3, 10112
7, 87487, Pitch_bend_c, 3, 9984
7, 87488, Pitch_bend_c, 3, 10112
7, 87488, Pitch_bend_c, 3, 10112
7, 87492, Pitch_bend_c, 3, 10112
7, 87492, Pitch_bend_c, 3, 10112
7, 87497, Pitch_bend_c, 3, 10112
7, 87497, Pitch_bend_c, 3, 10112
7, 87501, Pitch_bend_c, 3, 10112
7, 87501, Pitch_bend_c, 3, 10112
7, 87506, Pitch_bend_c, 3, 10112
7, 87506, Pitch_bend_c, 3, 10112
7, 87510, Pitch_bend_c, 3, 10112
7, 87510, Pitch_bend_c, 3, 10112
7, 87514, Pitch_bend_c, 3, 10240
7, 87514, Pitch_bend_c, 3, 10112
7, 87519, Pitch_bend_c, 3, 10240
7, 87519, Pitch_bend_c, 3, 10240
7, 87520, Pitch_bend_c, 3, 10240
7, 87520, Pitch_bend_c, 3, 10240
7, 87524, Pitch_bend_c, 3, 10240
7, 87524, Pitch_bend_c, 3, 10240
7, 87529, Pitch_bend_c, 3, 10240
7, 87529, Pitch_bend_c, 3, 10240
7, 87533, Pitch_bend_c, 3, 10240
7, 87533, Pitch_bend_c, 3, 10240
7, 87538, Pitch_bend_c, 3, 10368
7, 87538, Pitch_bend_c, 3, 10368
7, 87542, Pitch_bend_c, 3, 10368
7, 87542, Pitch_bend_c, 3, 10368
7, 87546, Pitch_bend_c, 3, 10368
7, 87546, Pitch_bend_c, 3, 10368
7, 87551, Pitch_bend_c, 3, 10368
7, 87551, Pitch_bend_c, 3, 10368
7, 87552, Pitch_bend_c, 3, 10368
7, 87552, Pitch_bend_c, 3, 10368
7, 87556, Pitch_bend_c, 3, 10496
7, 87556, Pitch_bend_c, 3, 10368
7, 87561, Pitch_bend_c, 3, 10496
7, 87561, Pitch_bend_c, 3, 10368
7, 87565, Pitch_bend_c, 3, 10368
7, 87565, Pitch_bend_c, 3, 10368
7, 87570, Pitch_bend_c, 3, 10368
7, 87570, Pitch_bend_c, 3, 10368
7, 87574, Pitch_bend_c, 3, 10368
7, 87574, Pitch_bend_c, 3, 10368
7, 87578, Pitch_bend_c, 3, 10368
7, 87578, Pitch_bend_c, 3, 10368
7, 87583, Pitch_bend_c, 3, 10368
7, 87583, Pitch_bend_c, 3, 10368
7, 87584, Pitch_bend_c, 3, 10368
7, 87584, Pitch_bend_c, 3, 10368
7, 87588, Pitch_bend_c, 3, 10240
7, 87588, Pitch_bend_c, 3, 10368
7, 87593, Pitch_bend_c, 3, 10240
7, 87593, Pitch_bend_c, 3, 10240
7, 87597, Pitch_bend_c, 3, 10240
7, 87597, Pitch_bend_c, 3, 10240
7, 87602, Pitch_bend_c, 3, 10112
7, 87602, Pitch_bend_c, 3, 10240
7, 87606, Pitch_bend_c, 3, 10112
7, 87606, Pitch_bend_c, 3, 10112
7, 87610, Pitch_bend_c, 3, 10112
7, 87610, Pitch_bend_c, 3, 10112
7, 87615, Pitch_bend_c, 3, 10112
7, 87615, Pitch_bend_c, 3, 10112
7, 87616, Pitch_bend_c, 3, 10112
7, 87616, Pitch_bend_c, 3, 10112
7, 87620, Pitch_bend_c, 3, 10112
7, 87620, Pitch_bend_c, 3, 10112
7, 87625, Pitch_bend_c, 3, 10112
7, 87625, Pitch_bend_c, 3, 10112
7, 87629, Pitch_bend_c, 3, 10112
7, 87629, Pitch_bend_c, 3, 10112
7, 87634, Pitch_bend_c, 3, 10112
7, 87634, Pitch_bend_c, 3, 10112
7, 87638, Pitch_bend_c, 3, 10112
7, 87638, Pitch_bend_c, 3, 10112
7, 87642, Pitch_bend_c, 3, 10112
7, 87642, Pitch_bend_c, 3, 10112
7, 87647, Pitch_bend_c, 3, 10112
7, 87647, Pitch_bend_c, 3, 10112
7, 87648, Pitch_bend_c, 3, 10112
7, 87648, Pitch_bend_c, 3, 10112
7, 87652, Pitch_bend_c, 3, 10112
7, 87652, Pitch_bend_c, 3, 10112
7, 87657, Pitch_bend_c, 3, 10112
7, 87657, Pitch_bend_c, 3, 10240
7, 87661, Pitch_bend_c, 3, 10240
7, 87661, Pitch_bend_c, 3, 10240
7, 87666, Pitch_bend_c, 3, 10240
7, 87666, Pitch_bend_c, 3, 10240
7, 87670, Pitch_bend_c, 3, 10240
7, 87670, Pitch_bend_c, 3, 10240
7, 87674, Pitch_bend_c, 3, 10368
7, 87674, Pitch_bend_c, 3, 10240
7, 87679, Pitch_bend_c, 3, 10368
7, 87679, Pitch_bend_c, 3, 10240
7, 87680, Pitch_bend_c, 3, 10368
7, 87680, Pitch_bend_c, 3, 10368
7, 87684, Pitch_bend_c, 3, 10368
7, 87684, Pitch_bend_c, 3, 10368
7, 87689, Pitch_bend_c, 3, 10368
7, 87689, Pitch_bend_c, 3, 10368
7, 87693, Pitch_bend_c, 3, 10368
7, 87693, Pitch_bend_c, 3, 10368
7, 87698, Pitch_bend_c, 3, 10368
7, 87698, Pitch_bend_c, 3, 10368
7, 87702, Pitch_bend_c, 3, 10368
7, 87702, Pitch_bend_c, 3, 10368
7, 87706, Pitch_bend_c, 3, 10368
7, 87706, Pitch_bend_c, 3, 10368
7, 87711, Pitch_bend_c, 3, 10368
7, 87711, Pitch_bend_c, 3, 10368
7, 87712, Pitch_bend_c, 3, 10368
7, 87712, Pitch_bend_c, 3, 10368
7, 87716, Pitch_bend_c, 3, 10368
7, 87716, Pitch_bend_c, 3, 10368
7, 87721, Pitch_bend_c, 3, 10368
7, 87721, Pitch_bend_c, 3, 10368
7, 87725, Pitch_bend_c, 3, 10240
7, 87725, Pitch_bend_c, 3, 10368
7, 87730, Pitch_bend_c, 3, 10240
7, 87730, Pitch_bend_c, 3, 10368
7, 87734, Pitch_bend_c, 3, 10240
7, 87734, Pitch_bend_c, 3, 10240
7, 87738, Pitch_bend_c, 3, 10240
7, 87738, Pitch_bend_c, 3, 10240
7, 87743, Pitch_bend_c, 3, 10240
7, 87743, Pitch_bend_c, 3, 10240
7, 87744, Pitch_bend_c, 3, 10112
7, 87744, Pitch_bend_c, 3, 10112
7, 87748, Pitch_bend_c, 3, 10112
7, 87748, Pitch_bend_c, 3, 10112
7, 87753, Pitch_bend_c, 3, 10112
7, 87753, Pitch_bend_c, 3, 10112
7, 87757, Pitch_bend_c, 3, 10112
7, 87757, Pitch_bend_c, 3, 10112
7, 87762, Pitch_bend_c, 3, 10112
7, 87762, Pitch_bend_c, 3, 10112
7, 87766, Pitch_bend_c, 3, 10112
7, 87766, Pitch_bend_c, 3, 10112
7, 87770, Pitch_bend_c, 3, 10112
7, 87770, Pitch_bend_c, 3, 10112
7, 87775, Pitch_bend_c, 3, 10112
7, 87775, Pitch_bend_c, 3, 10112
7, 87776, Pitch_bend_c, 3, 10112
7, 87776, Pitch_bend_c, 3, 10112
7, 87780, Pitch_bend_c, 3, 10112
7, 87780, Pitch_bend_c, 3, 10112
7, 87785, Pitch_bend_c, 3, 10112
7, 87785, Pitch_bend_c, 3, 10112
7, 87789, Pitch_bend_c, 3, 10112
7, 87789, Pitch_bend_c, 3, 10112
7, 87794, Pitch_bend_c, 3, 10112
7, 87794, Pitch_bend_c, 3, 10112
7, 87798, Pitch_bend_c, 3, 10240
7, 87798, Pitch_bend_c, 3, 10112
7, 87802, Pitch_bend_c, 3, 10240
7, 87802, Pitch_bend_c, 3, 10240
7, 87807, Pitch_bend_c, 3, 10240
7, 87807, Pitch_bend_c, 3, 10240
7, 87808, Pitch_bend_c, 3, 10240
7, 87808, Pitch_bend_c, 3, 10240
7, 87812, Pitch_bend_c, 3, 10240
7, 87812, Pitch_bend_c, 3, 10240
7, 87817, Pitch_bend_c, 3, 10368
7, 87817, Pitch_bend_c, 3, 10240
7, 87821, Pitch_bend_c, 3, 10368
7, 87821, Pitch_bend_c, 3, 10368
7, 87826, Pitch_bend_c, 3, 10368
7, 87826, Pitch_bend_c, 3, 10368
7, 87830, Pitch_bend_c, 3, 10368
7, 87830, Pitch_bend_c, 3, 10368
7, 87834, Pitch_bend_c, 3, 10368
7, 87834, Pitch_bend_c, 3, 10368
7, 87839, Pitch_bend_c, 3, 10368
7, 87839, Pitch_bend_c, 3, 10368
7, 87840, Note_off_c, 3, 68, 80
7, 87840, Pitch_bend_c, 3, 10368
7, 87840, Pitch_bend_c, 3, 8192
7, 87840, Pitch_bend_c, 3, 10368
7, 87844, Pitch_bend_c, 3, 10368
7, 87849, Pitch_bend_c, 3, 10368
7, 87853, Pitch_bend_c, 3, 10368
7, 87858, Pitch_bend_c, 3, 10368
7, 87862, Pitch_bend_c, 3, 10368
7, 87866, Pitch_bend_c, 3, 10368
7, 87871, Pitch_bend_c, 3, 10368
7, 87872, Pitch_bend_c, 3, 10240
7, 87876, Pitch_bend_c, 3, 10240
7, 87881, Pitch_bend_c, 3, 10240
7, 87885, Pitch_bend_c, 3, 10240
7, 87890, Pitch_bend_c, 3, 10112
7, 87894, Pitch_bend_c, 3, 10112
7, 87898, Pitch_bend_c, 3, 10112
7, 87903, Pitch_bend_c, 3, 10112
7, 87904, Pitch_bend_c, 3, 10112
7, 87908, Pitch_bend_c, 3, 10112
7, 87913, Pitch_bend_c, 3, 10112
7, 87917, Pitch_bend_c, 3, 10112
7, 87922, Pitch_bend_c, 3, 10112
7, 87926, Pitch_bend_c, 3, 10112
7, 87930, Pitch_bend_c, 3, 10112
7, 87935, Pitch_bend_c, 3, 10240
7, 87936, Pitch_bend_c, 3, 10112
7, 87940, Pitch_bend_c, 3, 10112
7, 87945, Pitch_bend_c, 3, 10240
7, 87949, Pitch_bend_c, 3, 10240
7, 87954, Pitch_bend_c, 3, 10240
7, 87958, Pitch_bend_c, 3, 10240
7, 87962, Pitch_bend_c, 3, 10368
7, 87967, Pitch_bend_c, 3, 10368
7, 87968, Pitch_bend_c, 3, 10368
7, 87972, Pitch_bend_c, 3, 10368
7, 87977, Pitch_bend_c, 3, 10368
7, 87981, Pitch_bend_c, 3, 10368
7, 87986, Pitch_bend_c, 3, 10368
7, 87990, Pitch_bend_c, 3, 10368
7, 87994, Pitch_bend_c, 3, 10368
7, 87999, Pitch_bend_c, 3, 10368
7, 88000, Pitch_bend_c, 3, 10368
7, 88004, Pitch_bend_c, 3, 10368
7, 88009, Pitch_bend_c, 3, 10368
7, 88013, Pitch_bend_c, 3, 10240
7, 88018, Pitch_bend_c, 3, 10240
7, 88022, Pitch_bend_c, 3, 10240
7, 88026, Pitch_bend_c, 3, 10112
7, 88031, Pitch_bend_c, 3, 10112
7, 88032, Pitch_bend_c, 3, 10112
7, 88036, Pitch_bend_c, 3, 10112
7, 88041, Pitch_bend_c, 3, 10112
7, 88045, Pitch_bend_c, 3, 10112
7, 88050, Pitch_bend_c, 3, 10112
7, 88054, Pitch_bend_c, 3, 10112
7, 88058, Pitch_bend_c, 3, 10112
7, 88063, Pitch_bend_c, 3, 10112
7, 88064, Pitch_bend_c, 3, 10112
7, 88068, Pitch_bend_c, 3, 10112
7, 88073, Pitch_bend_c, 3, 10112
7, 88077, Pitch_bend_c, 3, 10112
7, 88082, Pitch_bend_c, 3, 10112
7, 88086, Pitch_bend_c, 3, 10240
7, 88090, Pitch_bend_c, 3, 10240
7, 88095, Pitch_bend_c, 3, 10240
7, 88096, Pitch_bend_c, 3, 10240
7, 88100, Pitch_bend_c, 3, 10368
7, 88105, Pitch_bend_c, 3, 10368
7, 88109, Pitch_bend_c, 3, 10368
7, 88114, Pitch_bend_c, 3, 10368
7, 88118, Pitch_bend_c, 3, 10368
7, 88122, Pitch_bend_c, 3, 10368
7, 88127, Pitch_bend_c, 3, 10368
7, 88128, Pitch_bend_c, 3, 10368
7, 88132, Pitch_bend_c, 3, 10368
7, 88137, Pitch_bend_c, 3, 10368
7, 88141, Pitch_bend_c, 3, 10368
7, 88146, Pitch_bend_c, 3, 10368
7, 88150, Pitch_bend_c, 3, 10368
7, 88154, Pitch_bend_c, 3, 10240
7, 88159, Pitch_bend_c, 3, 10240
7, 88160, Pitch_bend_c, 3, 10240
7, 88164, Pitch_bend_c, 3, 10240
7, 88169, Pitch_bend_c, 3, 10240
7, 88173, Pitch_bend_c, 3, 10112
7, 88178, Pitch_bend_c, 3, 10112
7, 88182, Pitch_bend_c, 3, 10112
7, 88186, Pitch_bend_c, 3, 10112
7, 88191, Pitch_bend_c, 3, 10112
7, 88192, Pitch_bend_c, 3, 10112
7, 88196, Pitch_bend_c, 3, 10112
7, 88201, Pitch_bend_c, 3, 10112
7, 88205, Pitch_bend_c, 3, 10112
7, 88210, Pitch_bend_c, 3, 10112
7, 88214, Pitch_bend_c, 3, 10112
7, 88218, Pitch_bend_c, 3, 10112
7, 88223, Pitch_bend_c, 3, 10112
7, 88224, Pitch_bend_c, 3, 10112
7, 88228, Pitch_bend_c, 3, 10240
7, 88233, Pitch_bend_c, 3, 10240
7, 88237, Pitch_bend_c, 3, 10240
7, 88242, Pitch_bend_c, 3, 10368
7, 88246, Pitch_bend_c, 3, 10368
7, 88250, Pitch_bend_c, 3, 10368
7, 88255, Pitch_bend_c, 3, 10368
7, 88256, Pitch_bend_c, 3, 10368
7, 88260, Pitch_bend_c, 3, 10368
7, 88265, Pitch_bend_c, 3, 10368
7, 88269, Pitch_bend_c, 3, 10368
7, 88274, Pitch_bend_c, 3, 10368
7, 88278, Pitch_bend_c, 3, 10368
7, 88282, Pitch_bend_c, 3, 10368
7, 88287, Pitch_bend_c, 3, 10368
7, 88288, Pitch_bend_c, 3, 10240
7, 88292, Pitch_bend_c, 3, 10240
7, 88297, Pitch_bend_c, 3, 10240
7, 88301, Pitch_bend_c, 3, 10240
7, 88306, Pitch_bend_c, 3, 10240
7, 88310, Pitch_bend_c, 3, 10240
7, 88314, Pitch_bend_c, 3, 10112
7, 88319, Pitch_bend_c, 3, 10112
7, 88320, Pitch_bend_c, 3, 10112
7, 88324, Pitch_bend_c, 3, 10112
7, 88329, Pitch_bend_c, 3, 10112
7, 88333, Pitch_bend_c, 3, 9984
7, 88338, Pitch_bend_c, 3, 9984
7, 88342, Pitch_bend_c, 3, 9984
7, 88346, Pitch_bend_c, 3, 10112
7, 88351, Pitch_bend_c, 3, 10112
7, 88352, Pitch_bend_c, 3, 10112
7, 88356, Pitch_bend_c, 3, 10112
7, 88361, Pitch_bend_c, 3, 10240
7, 88365, Pitch_bend_c, 3, 10240
7, 88370, Pitch_bend_c, 3, 10240
7, 88374, Pitch_bend_c, 3, 10240
7, 88378, Pitch_bend_c, 3, 10240
7, 88383, Pitch_bend_c, 3, 10240
7, 88384, Pitch_bend_c, 3, 10368
7, 88388, Pitch_bend_c, 3, 10368
7, 88393, Pitch_bend_c, 3, 10368
7, 88397, Pitch_bend_c, 3, 10368
7, 88402, Pitch_bend_c, 3, 10496
7, 88406, Pitch_bend_c, 3, 10496
7, 88410, Pitch_bend_c, 3, 10496
7, 88415, Pitch_bend_c, 3, 10368
7, 88416, Pitch_bend_c, 3, 10368
7, 88420, Pitch_bend_c, 3, 10368
7, 88425, Pitch_bend_c, 3, 10368
7, 88429, Pitch_bend_c, 3, 10368
7, 88434, Pitch_bend_c, 3, 10240
7, 88438, Pitch_bend_c, 3, 10240
7, 88442, Pitch_bend_c, 3, 10240
7, 88447, Pitch_bend_c, 3, 10240
7, 88448, Pitch_bend_c, 3, 10240
7, 88452, Pitch_bend_c, 3, 10112
7, 88457, Pitch_bend_c, 3, 10112
7, 88461, Pitch_bend_c, 3, 10112
7, 88466, Pitch_bend_c, 3, 10112
7, 88470, Pitch_bend_c, 3, 10112
7, 88474, Pitch_bend_c, 3, 10112
7, 88479, Pitch_bend_c, 3, 10112
7, 88480, Pitch_bend_c, 3, 10112
7, 88484, Pitch_bend_c, 3, 10112
7, 88489, Pitch_bend_c, 3, 10112
7, 88493, Pitch_bend_c, 3, 10112
7, 88498, Pitch_bend_c, 3, 10112
7, 88502, Pitch_bend_c, 3, 10112
7, 88506, Pitch_bend_c, 3, 10240
7, 88511, Pitch_bend_c, 3, 10240
7, 88512, Pitch_bend_c, 3, 10240
7, 88516, Pitch_bend_c, 3, 10240
7, 88521, Pitch_bend_c, 3, 10240
7, 88525, Pitch_bend_c, 3, 10368
7, 88530, Pitch_bend_c, 3, 10368
7, 88534, Pitch_bend_c, 3, 10368
7, 88538, Pitch_bend_c, 3, 10368
7, 88543, Pitch_bend_c, 3, 10368
7, 88544, Pitch_bend_c, 3, 10368
7, 88548, Pitch_bend_c, 3, 10368
7, 88553, Pitch_bend_c, 3, 10368
7, 88557, Pitch_bend_c, 3, 10368
7, 88562, Pitch_bend_c, 3, 10368
7, 88566, Pitch_bend_c, 3, 10368
7, 88570, Pitch_bend_c, 3, 10240
7, 88575, Pitch_bend_c, 3, 10240
7, 88576, Pitch_bend_c, 3, 10240
7, 88580, Pitch_bend_c, 3, 10240
7, 88585, Pitch_bend_c, 3, 10240
7, 88589, Pitch_bend_c, 3, 10240
7, 88594, Pitch_bend_c, 3, 10240
7, 88598, Pitch_bend_c, 3, 10112
7, 88602, Pitch_bend_c, 3, 10112
7, 88607, Pitch_bend_c, 3, 10112
7, 88608, Pitch_bend_c, 3, 10112
7, 88612, Pitch_bend_c, 3, 10112
7, 88617, Pitch_bend_c, 3, 10112
7, 88621, Pitch_bend_c, 3, 10112
7, 88626, Pitch_bend_c, 3, 10112
7, 88630, Pitch_bend_c, 3, 10112
7, 88634, Pitch_bend_c, 3, 10112
7, 88639, Pitch_bend_c, 3, 10112
7, 88640, Pitch_bend_c, 3, 10112
7, 88644, Pitch_bend_c, 3, 10240
7, 88649, Pitch_bend_c, 3, 10240
7, 88653, Pitch_bend_c, 3, 10240
7, 88658, Pitch_bend_c, 3, 10240
7, 88662, Pitch_bend_c, 3, 10240
7, 88666, Pitch_bend_c, 3, 10368
7, 88671, Pitch_bend_c, 3, 10368
7, 88672, Pitch_bend_c, 3, 10368
7, 88676, Pitch_bend_c, 3, 10368
7, 88681, Pitch_bend_c, 3, 10368
7, 88685, Pitch_bend_c, 3, 10368
7, 88690, Pitch_bend_c, 3, 10368
7, 88694, Pitch_bend_c, 3, 10368
7, 88698, Pitch_bend_c, 3, 10368
7, 88703, Pitch_bend_c, 3, 10368
7, 88704, Pitch_bend_c, 3, 10368
7, 88708, Pitch_bend_c, 3, 10368
7, 88713, Pitch_bend_c, 3, 10368
7, 88717, Pitch_bend_c, 3, 10368
7, 88722, Pitch_bend_c, 3, 10240
7, 88726, Pitch_bend_c, 3, 10240
7, 88730, Pitch_bend_c, 3, 10240
7, 88735, Pitch_bend_c, 3, 10112
7, 88736, Pitch_bend_c, 3, 10112
7, 88740, Pitch_bend_c, 3, 10112
7, 88745, Pitch_bend_c, 3, 10112
7, 88749, Pitch_bend_c, 3, 10112
7, 88754, Pitch_bend_c, 3, 10112
7, 88758, Pitch_bend_c, 3, 9984
7, 88762, Pitch_bend_c, 3, 9984
7, 88767, Pitch_bend_c, 3, 10112
7, 88768, Pitch_bend_c, 3, 10112
7, 88772, Pitch_bend_c, 3, 10112
7, 88777, Pitch_bend_c, 3, 10112
7, 88781, Pitch_bend_c, 3, 10240
7, 88786, Pitch_bend_c, 3, 10240
7, 88790, Pitch_bend_c, 3, 10240
7, 88794, Pitch_bend_c, 3, 10240
7, 88799, Pitch_bend_c, 3, 10240
7, 88800, Pitch_bend_c, 3, 10240
7, 88800, Note_on_c, 2, 59, 95
7, 88804, Pitch_bend_c, 3, 10240
7, 88809, Pitch_bend_c, 3, 10368
7, 88813, Pitch_bend_c, 3, 10368
7, 88818, Pitch_bend_c, 3, 10368
7, 88822, Pitch_bend_c, 3, 10368
7, 88826, Pitch_bend_c, 3, 10368
7, 88831, Pitch_bend_c, 3, 10368
7, 88832, Pitch_bend_c, 3, 10368
7, 88836, Pitch_bend_c, 3, 10368
7, 88841, Pitch_bend_c, 3, 10368
7, 88845, Pitch_bend_c, 3, 10368
7, 88850, Pitch_bend_c, 3, 10368
7, 88854, Pitch_bend_c, 3, 10368
7, 88858, Pitch_bend_c, 3, 10240
7, 88863, Pitch_bend_c, 3, 10240
7, 88864, Pitch_bend_c, 3, 10240
7, 88868, Pitch_bend_c, 3, 10240
7, 88873, Pitch_bend_c, 3, 10240
7, 88877, Pitch_bend_c, 3, 10240
7, 88882, Pitch_bend_c, 3, 10112
7, 88886, Pitch_bend_c, 3, 10112
7, 88890, Pitch_bend_c, 3, 10112
7, 88895, Pitch_bend_c, 3, 10112
7, 88896, Pitch_bend_c, 3, 10112
7, 88900, Pitch_bend_c, 3, 10112
7, 88905, Pitch_bend_c, 3, 10112
7, 88909, Pitch_bend_c, 3, 10112
7, 88914, Pitch_bend_c, 3, 10112
7, 88918, Pitch_bend_c, 3, 10112
7, 88922, Pitch_bend_c, 3, 10240
7, 88927, Pitch_bend_c, 3, 10240
7, 88928, Pitch_bend_c, 3, 10240
7, 88932, Pitch_bend_c, 3, 10240
7, 88937, Pitch_bend_c, 3, 10240
7, 88941, Pitch_bend_c, 3, 10240
7, 88946, Pitch_bend_c, 3, 10240
7, 88950, Pitch_bend_c, 3, 10368
7, 88954, Pitch_bend_c, 3, 10368
7, 88959, Pitch_bend_c, 3, 10368
7, 88960, Pitch_bend_c, 3, 10368
7, 88964, Pitch_bend_c, 3, 10368
7, 88969, Pitch_bend_c, 3, 10496
7, 88973, Pitch_bend_c, 3, 10496
7, 88978, Pitch_bend_c, 3, 10496
7, 88982, Pitch_bend_c, 3, 10368
7, 88986, Pitch_bend_c, 3, 10368
7, 88991, Pitch_bend_c, 3, 10368
7, 88992, Pitch_bend_c, 3, 10368
7, 88996, Pitch_bend_c, 3, 10368
7, 89001, Pitch_bend_c, 3, 10240
7, 89005, Pitch_bend_c, 3, 10240
7, 89010, Pitch_bend_c, 3, 10240
7, 89014, Pitch_bend_c, 3, 10240
7, 89018, Pitch_bend_c, 3, 10112
7, 89023, Pitch_bend_c, 3, 10112
7, 89024, Pitch_bend_c, 3, 10112
7, 89028, Pitch_bend_c, 3, 10112
7, 89033, Pitch_bend_c, 3, 10112
7, 89037, Pitch_bend_c, 3, 9984
7, 89042, Pitch_bend_c, 3, 9984
7, 89046, Pitch_bend_c, 3, 9984
7, 89050, Pitch_bend_c, 3, 10112
7, 89055, Pitch_bend_c, 3, 10112
7, 89056, Pitch_bend_c, 3, 10112
7, 89060, Pitch_bend_c, 3, 10112
7, 89065, Pitch_bend_c, 3, 10112
7, 89069, Pitch_bend_c, 3, 10240
7, 89074, Pitch_bend_c, 3, 10240
7, 89078, Pitch_bend_c, 3, 10240
7, 89082, Pitch_bend_c, 3, 10240
7, 89087, Pitch_bend_c, 3, 10368
7, 89088, Pitch_bend_c, 3, 10368
7, 89092, Pitch_bend_c, 3, 10368
7, 89097, Pitch_bend_c, 3, 10368
7, 89101, Pitch_bend_c, 3, 10368
7, 89106, Pitch_bend_c, 3, 10368
7, 89110, Pitch_bend_c, 3, 10368
7, 89114, Pitch_bend_c, 3, 10368
7, 89119, Pitch_bend_c, 3, 10368
7, 89120, Pitch_bend_c, 3, 10368
7, 89124, Pitch_bend_c, 3, 10368
7, 89129, Pitch_bend_c, 3, 10368
7, 89133, Pitch_bend_c, 3, 10368
7, 89138, Pitch_bend_c, 3, 10368
7, 89142, Pitch_bend_c, 3, 10240
7, 89146, Pitch_bend_c, 3, 10240
7, 89151, Pitch_bend_c, 3, 10240
7, 89152, Pitch_bend_c, 3, 10240
7, 89156, Pitch_bend_c, 3, 10112
7, 89160, Note_off_c, 2, 59, 80
7, 89160, Note_on_c, 2, 59, 95
7, 89161, Pitch_bend_c, 3, 10112
7, 89165, Pitch_bend_c, 3, 10112
7, 89170, Pitch_bend_c, 3, 10112
7, 89174, Pitch_bend_c, 3, 10112
7, 89178, Pitch_bend_c, 3, 9984
7, 89183, Pitch_bend_c, 3, 9984
7, 89184, Pitch_bend_c, 3, 10112
7, 89188, Pitch_bend_c, 3, 10112
7, 89193, Pitch_bend_c, 3, 10112
7, 89197, Pitch_bend_c, 3, 10112
7, 89202, Pitch_bend_c, 3, 10112
7, 89206, Pitch_bend_c, 3, 10240
7, 89210, Pitch_bend_c, 3, 10240
7, 89215, Pitch_bend_c, 3, 10240
7, 89216, Pitch_bend_c, 3, 10240
7, 89220, Pitch_bend_c, 3, 10240
7, 89225, Pitch_bend_c, 3, 10240
7, 89229, Pitch_bend_c, 3, 10368
7, 89234, Pitch_bend_c, 3, 10368
7, 89238, Pitch_bend_c, 3, 10368
7, 89242, Pitch_bend_c, 3, 10368
7, 89247, Pitch_bend_c, 3, 10368
7, 89248, Pitch_bend_c, 3, 10368
7, 89252, Pitch_bend_c, 3, 10368
7, 89257, Pitch_bend_c, 3, 10368
7, 89261, Pitch_bend_c, 3, 10368
7, 89266, Pitch_bend_c, 3, 10368
7, 89270, Pitch_bend_c, 3, 10368
7, 89274, Pitch_bend_c, 3, 10368
7, 89279, Pitch_bend_c, 3, 10368
7, 89280, Pitch_bend_c, 3, 10368
7, 89280, Note_off_c, 2, 59, 80
7, 89280, Note_on_c, 2, 59, 95
7, 89284, Pitch_bend_c, 3, 10240
7, 89289, Pitch_bend_c, 3, 10240
7, 89293, Pitch_bend_c, 3, 10240
7, 89298, Pitch_bend_c, 3, 10112
7, 89302, Pitch_bend_c, 3, 10112
7, 89306, Pitch_bend_c, 3, 10112
7, 89311, Pitch_bend_c, 3, 10112
7, 89312, Pitch_bend_c, 3, 10112
7, 89316, Pitch_bend_c, 3, 10112
7, 89321, Pitch_bend_c, 3, 10112
7, 89325, Pitch_bend_c, 3, 10112
7, 89330, Pitch_bend_c, 3, 10112
7, 89334, Pitch_bend_c, 3, 10112
7, 89338, Pitch_bend_c, 3, 10112
7, 89343, Pitch_bend_c, 3, 10112
7, 89344, Pitch_bend_c, 3, 10112
7, 89348, Pitch_bend_c, 3, 10112
7, 89353, Pitch_bend_c, 3, 10112
7, 89357, Pitch_bend_c, 3, 10240
7, 89362, Pitch_bend_c, 3, 10240
7, 89366, Pitch_bend_c, 3, 10240
7, 89370, Pitch_bend_c, 3, 10368
7, 89375, Pitch_bend_c, 3, 10368
7, 89376, Pitch_bend_c, 3, 10368
7, 89380, Pitch_bend_c, 3, 10368
7, 89385, Pitch_bend_c, 3, 10368
7, 89389, Pitch_bend_c, 3, 10368
7, 89394, Pitch_bend_c, 3, 10368
7, 89398, Pitch_bend_c, 3, 10368
7, 89402, Pitch_bend_c, 3, 10368
7, 89407, Pitch_bend_c, 3, 10368
7, 89408, Pitch_bend_c, 3, 10368
7, 89412, Pitch_bend_c, 3, 10368
7, 89417, Pitch_bend_c, 3, 10368
7, 89421, Pitch_bend_c, 3, 10368
7, 89426, Pitch_bend_c, 3, 10240
7, 89430, Pitch_bend_c, 3, 10240
7, 89434, Pitch_bend_c, 3, 10240
7, 89439, Pitch_bend_c, 3, 10112
7, 89440, Pitch_bend_c, 3, 10240
7, 89444, Pitch_bend_c, 3, 10112
7, 89449, Pitch_bend_c, 3, 10112
7, 89453, Pitch_bend_c, 3, 10112
7, 89458, Pitch_bend_c, 3, 10112
7, 89462, Pitch_bend_c, 3, 10112
7, 89466, Pitch_bend_c, 3, 10112
7, 89471, Pitch_bend_c, 3, 10112
7, 89472, Pitch_bend_c, 3, 10112
7, 89476, Pitch_bend_c, 3, 10112
7, 89481, Pitch_bend_c, 3, 10112
7, 89485, Pitch_bend_c, 3, 10112
7, 89490, Pitch_bend_c, 3, 10112
7, 89494, Pitch_bend_c, 3, 10240
7, 89498, Pitch_bend_c, 3, 10240
7, 89503, Pitch_bend_c, 3, 10240
7, 89504, Pitch_bend_c, 3, 10240
7, 89508, Pitch_bend_c, 3, 10240
7, 89513, Pitch_bend_c, 3, 10240
7, 89517, Pitch_bend_c, 3, 10368
7, 89520, Note_off_c, 2, 59, 80
7, 89520, Note_on_c, 2, 61, 95
7, 89522, Pitch_bend_c, 3, 10368
7, 89526, Pitch_bend_c, 3, 10368
7, 89530, Pitch_bend_c, 3, 10368
7, 89535, Pitch_bend_c, 3, 10368
7, 89536, Pitch_bend_c, 3, 10368
7, 89540, Pitch_bend_c, 3, 10368
7, 89545, Pitch_bend_c, 3, 10368
7, 89549, Pitch_bend_c, 3, 10368
7, 89554, Pitch_bend_c, 3, 10368
7, 89558, Pitch_bend_c, 3, 10368
7, 89562, Pitch_bend_c, 3, 10240
7, 89567, Pitch_bend_c, 3, 10240
7, 89568, Pitch_bend_c, 3, 10240
7, 89572, Pitch_bend_c, 3, 10240
7, 89577, Pitch_bend_c, 3, 10240
7, 89581, Pitch_bend_c, 3, 10112
7, 89586, Pitch_bend_c, 3, 10112
7, 89590, Pitch_bend_c, 3, 10112
7, 89594, Pitch_bend_c, 3, 10112
7, 89599, Pitch_bend_c, 3, 10112
7, 89600, Pitch_bend_c, 3, 10112
7, 89604, Pitch_bend_c, 3, 10112
7, 89609, Pitch_bend_c, 3, 10112
7, 89613, Pitch_bend_c, 3, 10112
7, 89618, Pitch_bend_c, 3, 10112
7, 89622, Pitch_bend_c, 3, 10112
7, 89626, Pitch_bend_c, 3, 10112
7, 89631, Pitch_bend_c, 3, 10112
7, 89632, Pitch_bend_c, 3, 10112
7, 89636, Pitch_bend_c, 3, 10240
7, 89641, Pitch_bend_c, 3, 10240
7, 89645, Pitch_bend_c, 3, 10240
7, 89650, Pitch_bend_c, 3, 10368
7, 89654, Pitch_bend_c, 3, 10368
7, 89658, Pitch_bend_c, 3, 10368
7, 89663, Pitch_bend_c, 3, 10368
7, 89664, Pitch_bend_c, 3, 10368
7, 89668, Pitch_bend_c, 3, 10368
7, 89673, Pitch_bend_c, 3, 10368
7, 89677, Pitch_bend_c, 3, 10368
7, 89682, Pitch_bend_c, 3, 10368
7, 89686, Pitch_bend_c, 3, 10368
7, 89690, Pitch_bend_c, 3, 10368
7, 89695, Pitch_bend_c, 3, 10368
7, 89696, Pitch_bend_c, 3, 10368
7, 89700, Pitch_bend_c, 3, 10240
7, 89705, Pitch_bend_c, 3, 10240
7, 89709, Pitch_bend_c, 3, 10240
7, 89714, Pitch_bend_c, 3, 10240
7, 89718, Pitch_bend_c, 3, 10240
7, 89722, Pitch_bend_c, 3, 10240
7, 89727, Pitch_bend_c, 3, 10112
7, 89728, Pitch_bend_c, 3, 10112
7, 89732, Pitch_bend_c, 3, 10112
7, 89737, Pitch_bend_c, 3, 10112
7, 89741, Pitch_bend_c, 3, 10112
7, 89746, Pitch_bend_c, 3, 10112
7, 89750, Pitch_bend_c, 3, 10112
7, 89754, Pitch_bend_c, 3, 10112
7, 89759, Pitch_bend_c, 3, 10112
7, 89760, Pitch_bend_c, 3, 10112
7, 89760, Note_off_c, 2, 61, 80
7, 89760, Note_on_c, 2, 59, 95
7, 89764, Pitch_bend_c, 3, 10112
7, 89769, Pitch_bend_c, 3, 10112
7, 89773, Pitch_bend_c, 3, 10240
7, 89778, Pitch_bend_c, 3, 10240
7, 89782, Pitch_bend_c, 3, 10240
7, 89786, Pitch_bend_c, 3, 10240
7, 89791, Pitch_bend_c, 3, 10240
7, 89792, Pitch_bend_c, 3, 10368
7, 89796, Pitch_bend_c, 3, 10368
7, 89801, Pitch_bend_c, 3, 10368
7, 89805, Pitch_bend_c, 3, 10368
7, 89810, Pitch_bend_c, 3, 10368
7, 89814, Pitch_bend_c, 3, 10368
7, 89818, Pitch_bend_c, 3, 10368
7, 89823, Pitch_bend_c, 3, 10368
7, 89824, Pitch_bend_c, 3, 10368
7, 89828, Pitch_bend_c, 3, 10368
7, 89833, Pitch_bend_c, 3, 10368
7, 89837, Pitch_bend_c, 3, 10368
7, 89842, Pitch_bend_c, 3, 10240
7, 89846, Pitch_bend_c, 3, 10240
7, 89850, Pitch_bend_c, 3, 10240
7, 89855, Pitch_bend_c, 3, 10240
7, 89856, Pitch_bend_c, 3, 10240
7, 89860, Pitch_bend_c, 3, 10240
7, 89865, Pitch_bend_c, 3, 10240
7, 89869, Pitch_bend_c, 3, 10112
7, 89874, Pitch_bend_c, 3, 10112
7, 89878, Pitch_bend_c, 3, 10112
7, 89882, Pitch_bend_c, 3, 10112
7, 89887, Pitch_bend_c, 3, 10112
7, 89888, Pitch_bend_c, 3, 10112
7, 89892, Pitch_bend_c, 3, 10112
7, 89897, Pitch_bend_c, 3, 10112
7, 89901, Pitch_bend_c, 3, 10112
7, 89906, Pitch_bend_c, 3, 10112
7, 89910, Pitch_bend_c, 3, 10112
7, 89914, Pitch_bend_c, 3, 10240
7, 89919, Pitch_bend_c, 3, 10240
7, 89920, Pitch_bend_c, 3, 10240
7, 89924, Pitch_bend_c, 3, 10240
7, 89929, Pitch_bend_c, 3, 10240
7, 89933, Pitch_bend_c, 3, 10240
7, 89938, Pitch_bend_c, 3, 10368
7, 89942, Pitch_bend_c, 3, 10368
7, 89946, Pitch_bend_c, 3, 10368
7, 89951, Pitch_bend_c, 3, 10368
7, 89952, Pitch_bend_c, 3, 10368
7, 89956, Pitch_bend_c, 3, 10368
7, 89961, Pitch_bend_c, 3, 10368
7, 89965, Pitch_bend_c, 3, 10368
7, 89970, Pitch_bend_c, 3, 10368
7, 89974, Pitch_bend_c, 3, 10368
7, 89978, Pitch_bend_c, 3, 10368
7, 89983, Pitch_bend_c, 3, 10240
7, 89984, Pitch_bend_c, 3, 10240
7, 89988, Pitch_bend_c, 3, 10240
7, 89993, Pitch_bend_c, 3, 10240
7, 89997, Pitch_bend_c, 3, 10240
7, 90002, Pitch_bend_c, 3, 10240
7, 90006, Pitch_bend_c, 3, 10240
7, 90010, Pitch_bend_c, 3, 10112
7, 90015, Pitch_bend_c, 3, 10112
7, 90016, Pitch_bend_c, 3, 10112
7, 90020, Pitch_bend_c, 3, 10112
7, 90025, Pitch_bend_c, 3, 10112
7, 90029, Pitch_bend_c, 3, 10112
7, 90034, Pitch_bend_c, 3, 10112
7, 90038, Pitch_bend_c, 3, 10112
7, 90042, Pitch_bend_c, 3, 10112
7, 90047, Pitch_bend_c, 3, 10112
7, 90048, Pitch_bend_c, 3, 10112
7, 90052, Pitch_bend_c, 3, 10112
7, 90057, Pitch_bend_c, 3, 10240
7, 90061, Pitch_bend_c, 3, 10240
7, 90066, Pitch_bend_c, 3, 10240
7, 90070, Pitch_bend_c, 3, 10240
7, 90074, Pitch_bend_c, 3, 10368
7, 90079, Pitch_bend_c, 3, 10368
7, 90080, Pitch_bend_c, 3, 10368
7, 90084, Pitch_bend_c, 3, 10368
7, 90089, Pitch_bend_c, 3, 10368
7, 90093, Pitch_bend_c, 3, 10368
7, 90098, Pitch_bend_c, 3, 10368
7, 90102, Pitch_bend_c, 3, 10368
7, 90106, Pitch_bend_c, 3, 10368
7, 90111, Pitch_bend_c, 3, 10368
7, 90112, Pitch_bend_c, 3, 10368
7, 90116, Pitch_bend_c, 3, 10368
7, 90121, Pitch_bend_c, 3, 10368
7, 90125, Pitch_bend_c, 3, 10368
7, 90130, Pitch_bend_c, 3, 10240
7, 90134, Pitch_bend_c, 3, 10240
7, 90138, Pitch_bend_c, 3, 10240
7, 90143, Pitch_bend_c, 3, 10240
7, 90144, Pitch_bend_c, 3, 10240
7, 90148, Pitch_bend_c, 3, 10240
7, 90153, Pitch_bend_c, 3, 10112
7, 90157, Pitch_bend_c, 3, 10112
7, 90162, Pitch_bend_c, 3, 10112
7, 90166, Pitch_bend_c, 3, 10112
7, 90170, Pitch_bend_c, 3, 10112
7, 90175, Pitch_bend_c, 3, 10112
7, 90176, Pitch_bend_c, 3, 10112
7, 90180, Pitch_bend_c, 3, 10112
7, 90185, Pitch_bend_c, 3, 10112
7, 90189, Pitch_bend_c, 3, 10112
7, 90194, Pitch_bend_c, 3, 10112
7, 90198, Pitch_bend_c, 3, 10240
7, 90202, Pitch_bend_c, 3, 10240
7, 90207, Pitch_bend_c, 3, 10240
7, 90208, Pitch_bend_c, 3, 10240
7, 90212, Pitch_bend_c, 3, 10240
7, 90217, Pitch_bend_c, 3, 10368
7, 90221, Pitch_bend_c, 3, 10368
7, 90226, Pitch_bend_c, 3, 10368
7, 90230, Pitch_bend_c, 3, 10368
7, 90234, Pitch_bend_c, 3, 10368
7, 90239, Pitch_bend_c, 3, 10368
7, 90240, Note_off_c, 3, 68, 80
7, 90240, Pitch_bend_c, 3, 10368
7, 90240, Pitch_bend_c, 3, 8192
7, 90240, Note_off_c, 2, 59, 80
7, 91200, Note_on_c, 2, 59, 95
7, 91560, Note_off_c, 2, 59, 80
7, 91560, Note_on_c, 2, 59, 95
7, 91800, Note_off_c, 2, 59, 80
7, 91800, Note_on_c, 2, 58, 95
7, 92760, Note_off_c, 2, 58, 80
7, 93480, Note_on_c, 2, 56, 95
7, 93600, Note_off_c, 2, 56, 80
7, 93600, Note_on_c, 2, 56, 95
7, 93720, Note_off_c, 2, 56, 80
7, 93720, Note_on_c, 2, 59, 95
7, 94080, Note_off_c, 2, 59, 80
7, 94080, Note_on_c, 2, 59, 95
7, 94320, Note_off_c, 2, 59, 80
7, 94320, Note_on_c, 2, 61, 95
7, 94800, Note_off_c, 2, 61, 80
7, 94800, Note_on_c, 2, 59, 95
7, 95760, Note_off_c, 2, 59, 80
7, 98160, Note_on_c, 2, 56, 95
7, 98400, Note_off_c, 2, 56, 80
7, 98400, Note_on_c, 2, 59, 95
7, 98520, Note_off_c, 2, 59, 80
7, 98520, Note_on_c, 2, 59, 95
7, 98640, Note_off_c, 2, 59, 80
7, 98640, Note_on_c, 2, 59, 95
7, 99120, Note_off_c, 2, 59, 80
7, 99120, Note_on_c, 2, 56, 95
7, 99360, Note_off_c, 2, 56, 80
7, 99360, Note_on_c, 2, 59, 95
7, 99480, Note_off_c, 2, 59, 80
7, 99480, Note_on_c, 2, 59, 95
7, 99600, Note_off_c, 2, 59, 80
7, 99600, Note_on_c, 2, 59, 95
7, 100080, Note_off_c, 2, 59, 80
7, 100080, Note_on_c, 2, 56, 95
7, 100320, Note_off_c, 2, 56, 80
7, 100320, Note_on_c, 2, 59, 95
7, 100440, Note_off_c, 2, 59, 80
7, 100440, Note_on_c, 2, 59, 95
7, 100560, Note_off_c, 2, 59, 80
7, 100560, Note_on_c, 2, 59, 95
7, 101160, Note_off_c, 2, 59, 80
7, 103200, Note_on_c, 2, 59, 95
7, 103560, Note_off_c, 2, 59, 80
7, 103560, Note_on_c, 2, 59, 95
7, 103800, Note_off_c, 2, 59, 80
7, 103800, Note_on_c, 2, 59, 95
7, 104040, Note_off_c, 2, 59, 80
7, 104040, Note_on_c, 2, 59, 95
7, 104280, Note_off_c, 2, 59, 80
7, 104280, Note_on_c, 2, 59, 95
7, 105240, Note_off_c, 2, 59, 80
7, 108000, Note_on_c, 2, 59, 95
7, 108240, Note_off_c, 2, 59, 80
7, 108240, Note_on_c, 2, 59, 95
7, 108600, Note_off_c, 2, 59, 80
7, 108600, Note_on_c, 2, 59, 95
7, 110040, Note_off_c, 2, 59, 80
7, 110400, Note_on_c, 2, 58, 95
7, 110760, Note_off_c, 2, 58, 80
7, 110760, Note_on_c, 2, 59, 95
7, 111120, Note_off_c, 2, 59, 80
7, 111120, Note_on_c, 2, 56, 95
7, 112080, Note_off_c, 2, 56, 80
7, 112080, Note_on_c, 2, 56, 95
7, 114720, Note_off_c, 2, 56, 80
7, 149040, Note_on_c, 2, 68, 127
7, 149280, Note_off_c, 2, 68, 80
7, 149280, Note_on_c, 2, 66, 127
7, 149520, Note_off_c, 2, 66, 80
7, 149520, Note_on_c, 2, 63, 127
7, 149760, Note_off_c, 2, 63, 80
7, 149760, Note_on_c, 2, 66, 127
7, 150000, Note_off_c, 2, 66, 80
7, 150000, Note_on_c, 2, 63, 127
7, 150240, Note_off_c, 2, 63, 80
7, 150240, Note_on_c, 2, 59, 127
7, 150480, Note_off_c, 2, 59, 80
7, 150480, Note_on_c, 2, 61, 127
7, 150720, Note_off_c, 2, 61, 80
7, 150720, Note_on_c, 2, 61, 127
7, 150960, Note_off_c, 2, 61, 80
7, 150960, Note_on_c, 2, 56, 127
7, 151200, Note_off_c, 2, 56, 80
7, 151440, Note_on_c, 2, 68, 127
7, 151680, Note_off_c, 2, 68, 80
7, 151680, Note_on_c, 2, 66, 127
7, 151920, Note_off_c, 2, 66, 80
7, 151920, Note_on_c, 2, 63, 127
7, 152160, Note_off_c, 2, 63, 80
7, 152160, Note_on_c, 2, 66, 127
7, 152400, Note_off_c, 2, 66, 80
7, 152400, Note_on_c, 2, 63, 127
7, 152640, Note_off_c, 2, 63, 80
7, 152640, Note_on_c, 2, 61, 127
7, 152820, Note_off_c, 2, 61, 80
7, 152820, Note_on_c, 2, 59, 127
7, 153000, Note_off_c, 2, 59, 80
7, 153000, Note_on_c, 2, 61, 127
7, 153120, Note_off_c, 2, 61, 80
7, 153120, Note_on_c, 3, 63, 127
7, 153120, Pitch_bend_c, 3, 8192
7, 153124, Pitch_bend_c, 3, 8192
7, 153129, Pitch_bend_c, 3, 8192
7, 153133, Pitch_bend_c, 3, 8192
7, 153138, Pitch_bend_c, 3, 8192
7, 153142, Pitch_bend_c, 3, 8192
7, 153146, Pitch_bend_c, 3, 8192
7, 153151, Pitch_bend_c, 3, 8192
7, 153155, Pitch_bend_c, 3, 8192
7, 153160, Pitch_bend_c, 3, 8192
7, 153164, Pitch_bend_c, 3, 8192
7, 153168, Pitch_bend_c, 3, 8192
7, 153173, Pitch_bend_c, 3, 8192
7, 153177, Pitch_bend_c, 3, 8192
7, 153182, Pitch_bend_c, 3, 8192
7, 153186, Pitch_bend_c, 3, 8192
7, 153190, Pitch_bend_c, 3, 8192
7, 153195, Pitch_bend_c, 3, 8192
7, 153199, Pitch_bend_c, 3, 8192
7, 153204, Pitch_bend_c, 3, 8192
7, 153208, Pitch_bend_c, 3, 8192
7, 153213, Pitch_bend_c, 3, 8192
7, 153217, Pitch_bend_c, 3, 8192
7, 153221, Pitch_bend_c, 3, 8192
7, 153226, Pitch_bend_c, 3, 8192
7, 153230, Pitch_bend_c, 3, 8192
7, 153235, Pitch_bend_c, 3, 8192
7, 153239, Pitch_bend_c, 3, 8192
7, 153243, Pitch_bend_c, 3, 8192
7, 153248, Pitch_bend_c, 3, 8192
7, 153252, Pitch_bend_c, 3, 8192
7, 153257, Pitch_bend_c, 3, 8192
7, 153261, Pitch_bend_c, 3, 8192
7, 153265, Pitch_bend_c, 3, 8192
7, 153270, Pitch_bend_c, 3, 8320
7, 153274, Pitch_bend_c, 3, 8320
7, 153279, Pitch_bend_c, 3, 8320
7, 153283, Pitch_bend_c, 3, 8320
7, 153287, Pitch_bend_c, 3, 8448
7, 153292, Pitch_bend_c, 3, 8448
7, 153296, Pitch_bend_c, 3, 8448
7, 153301, Pitch_bend_c, 3, 8448
7, 153305, Pitch_bend_c, 3, 8448
7, 153309, Pitch_bend_c, 3, 8320
7, 153314, Pitch_bend_c, 3, 8320
7, 153318, Pitch_bend_c, 3, 8320
7, 153323, Pitch_bend_c, 3, 8320
7, 153327, Pitch_bend_c, 3, 8192
7, 153331, Pitch_bend_c, 3, 8192
7, 153336, Pitch_bend_c, 3, 8192
7, 153340, Pitch_bend_c, 3, 8064
7, 153345, Pitch_bend_c, 3, 8064
7, 153349, Pitch_bend_c, 3, 8064
7, 153354, Pitch_bend_c, 3, 8064
7, 153358, Pitch_bend_c, 3, 7936
7, 153362, Pitch_bend_c, 3, 7936
7, 153367, Pitch_bend_c, 3, 7936
7, 153371, Pitch_bend_c, 3, 7936
7, 153376, Pitch_bend_c, 3, 7936
7, 153380, Pitch_bend_c, 3, 8064
7, 153384, Pitch_bend_c, 3, 8064
7, 153389, Pitch_bend_c, 3, 8064
7, 153393, Pitch_bend_c, 3, 8064
7, 153398, Pitch_bend_c, 3, 8192
7, 153402, Pitch_bend_c, 3, 8192
7, 153406, Pitch_bend_c, 3, 8192
7, 153411, Pitch_bend_c, 3, 8320
7, 153415, Pitch_bend_c, 3, 8320
7, 153420, Pitch_bend_c, 3, 8320
7, 153424, Pitch_bend_c, 3, 8320
7, 153428, Pitch_bend_c, 3, 8320
7, 153433, Pitch_bend_c, 3, 8320
7, 153437, Pitch_bend_c, 3, 8320
7, 153442, Pitch_bend_c, 3, 8320
7, 153446, Pitch_bend_c, 3, 8320
7, 153450, Pitch_bend_c, 3, 8320
7, 153455, Pitch_bend_c, 3, 8320
7, 153459, Pitch_bend_c, 3, 8320
7, 153464, Pitch_bend_c, 3, 8320
7, 153468, Pitch_bend_c, 3, 8192
7, 153472, Pitch_bend_c, 3, 8192
7, 153477, Pitch_bend_c, 3, 8192
7, 153481, Pitch_bend_c, 3, 8064
7, 153486, Pitch_bend_c, 3, 8064
7, 153490, Pitch_bend_c, 3, 8064
7, 153495, Pitch_bend_c, 3, 8064
7, 153499, Pitch_bend_c, 3, 8064
7, 153503, Pitch_bend_c, 3, 8064
7, 153508, Pitch_bend_c, 3, 8064
7, 153512, Pitch_bend_c, 3, 8064
7, 153517, Pitch_bend_c, 3, 8064
7, 153521, Pitch_bend_c, 3, 8064
7, 153525, Pitch_bend_c, 3, 8064
7, 153530, Pitch_bend_c, 3, 8064
7, 153534, Pitch_bend_c, 3, 8064
7, 153539, Pitch_bend_c, 3, 8192
7, 153543, Pitch_bend_c, 3, 8192
7, 153547, Pitch_bend_c, 3, 8192
7, 153552, Pitch_bend_c, 3, 8192
7, 153556, Pitch_bend_c, 3, 8320
7, 153561, Pitch_bend_c, 3, 8320
7, 153565, Pitch_bend_c, 3, 8320
7, 153569, Pitch_bend_c, 3, 8320
7, 153574, Pitch_bend_c, 3, 8320
7, 153578, Pitch_bend_c, 3, 8320
7, 153583, Pitch_bend_c, 3, 8320
7, 153587, Pitch_bend_c, 3, 8320
7, 153591, Pitch_bend_c, 3, 8320
7, 153596, Pitch_bend_c, 3, 8320
7, 153600, Note_off_c, 3, 63, 80
7, 153600, Pitch_bend_c, 3, 8192
7, 153840, Note_on_c, 2, 68, 127
7, 154080, Note_off_c, 2, 68, 80
7, 154080, Note_on_c, 2, 66, 127
7, 154320, Note_off_c, 2, 66, 80
7, 154320, Note_on_c, 2, 63, 127
7, 154560, Note_off_c, 2, 63, 80
7, 154560, Note_on_c, 2, 66, 127
7, 154800, Note_off_c, 2, 66, 80
7, 154800, Note_on_c, 2, 63, 127
7, 155040, Note_off_c, 2, 63, 80
7, 155040, Note_on_c, 2, 61, 127
7, 155220, Note_off_c, 2, 61, 80
7, 155220, Note_on_c, 2, 59, 127
7, 155400, Note_off_c, 2, 59, 80
7, 155400, Note_on_c, 2, 61, 127
7, 155520, Note_off_c, 2, 61, 80
7, 155520, Note_on_c, 3, 63, 127
7, 155520, Pitch_bend_c, 3, 8192
7, 155524, Pitch_bend_c, 3, 8192
7, 155529, Pitch_bend_c, 3, 8192
7, 155533, Pitch_bend_c, 3, 8192
7, 155538, Pitch_bend_c, 3, 8192
7, 155542, Pitch_bend_c, 3, 8192
7, 155546, Pitch_bend_c, 3, 8192
7, 155551, Pitch_bend_c, 3, 8192
7, 155555, Pitch_bend_c, 3, 8192
7, 155560, Pitch_bend_c, 3, 8192
7, 155564, Pitch_bend_c, 3, 8192
7, 155568, Pitch_bend_c, 3, 8192
7, 155573, Pitch_bend_c, 3, 8192
7, 155577, Pitch_bend_c, 3, 8192
7, 155582, Pitch_bend_c, 3, 8192
7, 155586, Pitch_bend_c, 3, 8192
7, 155590, Pitch_bend_c, 3, 8192
7, 155595, Pitch_bend_c, 3, 8192
7, 155599, Pitch_bend_c, 3, 8192
7, 155604, Pitch_bend_c, 3, 8192
7, 155608, Pitch_bend_c, 3, 8192
7, 155613, Pitch_bend_c, 3, 8192
7, 155617, Pitch_bend_c, 3, 8192
7, 155621, Pitch_bend_c, 3, 8192
7, 155626, Pitch_bend_c, 3, 8192
7, 155630, Pitch_bend_c, 3, 8192
7, 155635, Pitch_bend_c, 3, 8192
7, 155639, Pitch_bend_c, 3, 8192
7, 155643, Pitch_bend_c, 3, 8192
7, 155648, Pitch_bend_c, 3, 8192
7, 155652, Pitch_bend_c, 3, 8192
7, 155657, Pitch_bend_c, 3, 8192
7, 155661, Pitch_bend_c, 3, 8192
7, 155665, Pitch_bend_c, 3, 8192
7, 155670, Pitch_bend_c, 3, 8320
7, 155674, Pitch_bend_c, 3, 8320
7, 155679, Pitch_bend_c, 3, 8320
7, 155683, Pitch_bend_c, 3, 8320
7, 155687, Pitch_bend_c, 3, 8448
7, 155692, Pitch_bend_c, 3, 8448
7, 155696, Pitch_bend_c, 3, 8448
7, 155701, Pitch_bend_c, 3, 8448
7, 155705, Pitch_bend_c, 3, 8448
7, 155709, Pitch_bend_c, 3, 8320
7, 155714, Pitch_bend_c, 3, 8320
7, 155718, Pitch_bend_c, 3, 8320
7, 155723, Pitch_bend_c, 3, 8320
7, 155727, Pitch_bend_c, 3, 8192
7, 155731, Pitch_bend_c, 3, 8192
7, 155736, Pitch_bend_c, 3, 8192
7, 155740, Pitch_bend_c, 3, 8064
7, 155745, Pitch_bend_c, 3, 8064
7, 155749, Pitch_bend_c, 3, 8064
7, 155754, Pitch_bend_c, 3, 8064
7, 155758, Pitch_bend_c, 3, 7936
7, 155762, Pitch_bend_c, 3, 7936
7, 155767, Pitch_bend_c, 3, 7936
7, 155771, Pitch_bend_c, 3, 7936
7, 155776, Pitch_bend_c, 3, 7936
7, 155780, Pitch_bend_c, 3, 8064
7, 155784, Pitch_bend_c, 3, 8064
7, 155789, Pitch_bend_c, 3, 8064
7, 155793, Pitch_bend_c, 3, 8064
7, 155798, Pitch_bend_c, 3, 8192
7, 155802, Pitch_bend_c, 3, 8192
7, 155806, Pitch_bend_c, 3, 8192
7, 155811, Pitch_bend_c, 3, 8320
7, 155815, Pitch_bend_c, 3, 8320
7, 155820, Pitch_bend_c, 3, 8320
7, 155824, Pitch_bend_c, 3, 8448
7, 155828, Pitch_bend_c, 3, 8448
7, 155833, Pitch_bend_c, 3, 8448
7, 155837, Pitch_bend_c, 3, 8448
7, 155842, Pitch_bend_c, 3, 8448
7, 155846, Pitch_bend_c, 3, 8448
7, 155850, Pitch_bend_c, 3, 8448
7, 155855, Pitch_bend_c, 3, 8320
7, 155859, Pitch_bend_c, 3, 8320
7, 155864, Pitch_bend_c, 3, 8320
7, 155868, Pitch_bend_c, 3, 8192
7, 155872, Pitch_bend_c, 3, 8192
7, 155877, Pitch_bend_c, 3, 8192
7, 155881, Pitch_bend_c, 3, 8064
7, 155886, Pitch_bend_c, 3, 8064
7, 155890, Pitch_bend_c, 3, 8064
7, 155895, Pitch_bend_c, 3, 7936
7, 155899, Pitch_bend_c, 3, 7936
7, 155903, Pitch_bend_c, 3, 7936
7, 155908, Pitch_bend_c, 3, 7936
7, 155912, Pitch_bend_c, 3, 7936
7, 155917, Pitch_bend_c, 3, 7936
7, 155921, Pitch_bend_c, 3, 7936
7, 155925, Pitch_bend_c, 3, 8064
7, 155930, Pitch_bend_c, 3, 8064
7, 155934, Pitch_bend_c, 3, 8064
7, 155939, Pitch_bend_c, 3, 8192
7, 155943, Pitch_bend_c, 3, 8192
7, 155947, Pitch_bend_c, 3, 8192
7, 155952, Pitch_bend_c, 3, 8320
7, 155956, Pitch_bend_c, 3, 8320
7, 155961, Pitch_bend_c, 3, 8320
7, 155965, Pitch_bend_c, 3, 8320
7, 155969, Pitch_bend_c, 3, 8320
7, 155974, Pitch_bend_c, 3, 8320
7, 155978, Pitch_bend_c, 3, 8320
7, 155983, Pitch_bend_c, 3, 8320
7, 155987, Pitch_bend_c, 3, 8320
7, 155991, Pitch_bend_c, 3, 8320
7, 155996, Pitch_bend_c, 3, 8320
7, 156000, Note_off_c, 3, 63, 80
7, 156000, Pitch_bend_c, 3, 8192
7, 156240, Note_on_c, 2, 56, 127
7, 156480, Note_off_c, 2, 56, 80
7, 156480, Note_on_c, 2, 59, 127
7, 156720, Note_off_c, 2, 59, 80
7, 156720, Note_on_c, 2, 61, 127
7, 156960, Note_off_c, 2, 61, 80
7, 156960, Note_on_c, 2, 63, 127
7, 157200, Note_off_c, 2, 63, 80
7, 157200, Note_on_c, 2, 61, 127
7, 157440, Note_off_c, 2, 61, 80
7, 157440, Note_on_c, 2, 59, 127
7, 157680, Note_off_c, 2, 59, 80
7, 157680, Note_on_c, 2, 56, 127
7, 158040, Note_off_c, 2, 56, 80
7, 158040, Note_on_c, 2, 54, 127
7, 158160, Note_off_c, 2, 54, 80
7, 158160, Note_on_c, 2, 56, 127
7, 158880, Note_off_c, 2, 56, 80
7, 158880, End_track
8, 0, Start_track
8, 0, Title_t, "Colin Greenwood"
8, 0, Control_c, 5, 100, 0
8, 0, Control_c, 5, 101, 0
8, 0, Control_c, 5, 6, 12
8, 0, Pitch_bend_c, 5, 8192
8, 0, Control_c, 5, 101, 0
8, 0, Control_c, 5, 100, 1
8, 0, Control_c, 5, 6, 64
8, 0, Control_c, 5, 38, 0
8, 0, Control_c, 5, 101, 127
8, 0, Control_c, 5, 100, 127
8, 0, Control_c, 4, 100, 0
8, 0, Control_c, 4, 101, 0
8, 0, Control_c, 4, 6, 12
8, 0, Pitch_bend_c, 4, 8192
8, 0, Control_c, 4, 101, 0
8, 0, Control_c, 4, 100, 1
8, 0, Control_c, 4, 6, 64
8, 0, Control_c, 4, 38, 0
8, 0, Control_c, 4, 101, 127
8, 0, Control_c, 4, 100, 127
8, 0, Control_c, 5, 101, 0
8, 0, Control_c, 5, 100, 2
8, 0, Control_c, 5, 6, 64
8, 0, Control_c, 5, 101, 127
8, 0, Control_c, 5, 100, 127
8, 0, Control_c, 4, 101, 0
8, 0, Control_c, 4, 100, 2
8, 0, Control_c, 4, 6, 64
8, 0, Control_c, 4, 101, 127
8, 0, Control_c, 4, 100, 127
8, 0, Program_c, 5, 32
8, 0, Program_c, 4, 32
8, 0, Control_c, 5, 0, 0
8, 0, Control_c, 4, 0, 0
8, 0, Control_c, 5, 7, 127
8, 0, Control_c, 4, 7, 127
8, 0, Control_c, 5, 10, 64
8, 0, Control_c, 4, 10, 64
8, 0, Control_c, 5, 93, 0
8, 0, Control_c, 4, 93, 0
8, 0, Control_c, 5, 91, 0
8, 0, Control_c, 4, 91, 0
8, 0, Control_c, 5, 92, 0
8, 0, Control_c, 4, 92, 0
8, 0, Control_c, 5, 95, 0
8, 0, Control_c, 4, 95, 0
8, 40800, Note_on_c, 4, 44, 79
8, 41760, Note_off_c, 4, 44, 80
8, 42000, Note_on_c, 4, 49, 79
8, 42960, Note_off_c, 4, 49, 80
8, 43200, Note_on_c, 4, 51, 79
8, 44160, Note_off_c, 4, 51, 80
8, 44400, Note_on_c, 4, 49, 79
8, 45360, Note_off_c, 4, 49, 80
8, 45600, Note_on_c, 4, 44, 79
8, 46560, Note_off_c, 4, 44, 80
8, 46800, Note_on_c, 4, 49, 79
8, 47760, Note_off_c, 4, 49, 80
8, 48000, Note_on_c, 4, 51, 79
8, 48960, Note_off_c, 4, 51, 80
8, 49200, Note_on_c, 4, 49, 79
8, 50160, Note_off_c, 4, 49, 80
8, 50400, Note_on_c, 4, 44, 79
8, 51360, Note_off_c, 4, 44, 80
8, 51600, Note_on_c, 4, 49, 79
8, 52560, Note_off_c, 4, 49, 80
8, 52800, Note_on_c, 4, 51, 79
8, 53760, Note_off_c, 4, 51, 80
8, 54000, Note_on_c, 4, 49, 79
8, 54960, Note_off_c, 4, 49, 80
8, 55200, Note_on_c, 4, 35, 127
8, 55560, Note_off_c, 4, 35, 80
8, 55560, Note_on_c, 4, 32, 127
8, 55920, Note_off_c, 4, 32, 80
8, 55920, Note_on_c, 4, 30, 127
8, 56160, Note_off_c, 4, 30, 80
8, 56160, Note_on_c, 4, 35, 127
8, 56400, Note_off_c, 4, 35, 80
8, 56400, Note_on_c, 4, 37, 127
8, 56760, Note_off_c, 4, 37, 80
8, 56760, Note_on_c, 4, 32, 127
8, 57120, Note_off_c, 4, 32, 80
8, 57120, Note_on_c, 4, 30, 127
8, 57360, Note_off_c, 4, 30, 80
8, 57360, Note_on_c, 4, 32, 127
8, 57600, Note_off_c, 4, 32, 80
8, 57600, Note_on_c, 4, 39, 127
8, 57960, Note_off_c, 4, 39, 80
8, 57960, Note_on_c, 4, 32, 127
8, 58320, Note_off_c, 4, 32, 80
8, 58320, Note_on_c, 4, 30, 127
8, 58560, Note_off_c, 4, 30, 80
8, 58560, Note_on_c, 4, 35, 127
8, 58800, Note_off_c, 4, 35, 80
8, 58800, Note_on_c, 4, 37, 127
8, 59160, Note_off_c, 4, 37, 80
8, 59160, Note_on_c, 4, 32, 127
8, 59520, Note_off_c, 4, 32, 80
8, 59520, Note_on_c, 4, 30, 127
8, 59760, Note_off_c, 4, 30, 80
8, 59760, Note_on_c, 4, 37, 127
8, 60000, Note_off_c, 4, 37, 80
8, 60000, Note_on_c, 4, 35, 127
8, 60360, Note_off_c, 4, 35, 80
8, 60360, Note_on_c, 4, 32, 127
8, 60720, Note_off_c, 4, 32, 80
8, 60720, Note_on_c, 4, 30, 127
8, 60960, Note_off_c, 4, 30, 80
8, 60960, Note_on_c, 4, 35, 127
8, 61200, Note_off_c, 4, 35, 80
8, 61200, Note_on_c, 4, 37, 127
8, 61560, Note_off_c, 4, 37, 80
8, 61560, Note_on_c, 4, 32, 127
8, 61920, Note_off_c, 4, 32, 80
8, 61920, Note_on_c, 4, 30, 127
8, 62160, Note_off_c, 4, 30, 80
8, 62160, Note_on_c, 4, 32, 127
8, 62400, Note_off_c, 4, 32, 80
8, 62400, Note_on_c, 4, 39, 127
8, 62760, Note_off_c, 4, 39, 80
8, 62760, Note_on_c, 4, 32, 127
8, 63120, Note_off_c, 4, 32, 80
8, 63120, Note_on_c, 4, 30, 127
8, 63360, Note_off_c, 4, 30, 80
8, 63360, Note_on_c, 4, 35, 127
8, 63600, Note_off_c, 4, 35, 80
8, 63600, Note_on_c, 4, 37, 127
8, 63960, Note_off_c, 4, 37, 80
8, 63960, Note_on_c, 4, 32, 127
8, 64320, Note_off_c, 4, 32, 80
8, 64320, Note_on_c, 4, 30, 127
8, 64560, Note_off_c, 4, 30, 80
8, 64560, Note_on_c, 4, 37, 127
8, 64800, Note_off_c, 4, 37, 80
8, 64800, Note_on_c, 4, 35, 127
8, 65160, Note_off_c, 4, 35, 80
8, 65160, Note_on_c, 4, 32, 127
8, 65520, Note_off_c, 4, 32, 80
8, 65520, Note_on_c, 4, 30, 127
8, 65760, Note_off_c, 4, 30, 80
8, 65760, Note_on_c, 4, 35, 127
8, 66000, Note_off_c, 4, 35, 80
8, 66000, Note_on_c, 4, 37, 127
8, 66360, Note_off_c, 4, 37, 80
8, 66360, Note_on_c, 4, 32, 127
8, 66720, Note_off_c, 4, 32, 80
8, 66720, Note_on_c, 4, 30, 127
8, 66960, Note_off_c, 4, 30, 80
8, 66960, Note_on_c, 4, 32, 127
8, 67200, Note_off_c, 4, 32, 80
8, 67200, Note_on_c, 4, 39, 127
8, 67560, Note_off_c, 4, 39, 80
8, 67560, Note_on_c, 4, 32, 127
8, 67920, Note_off_c, 4, 32, 80
8, 67920, Note_on_c, 4, 30, 127
8, 68160, Note_off_c, 4, 30, 80
8, 68160, Note_on_c, 4, 35, 127
8, 68400, Note_off_c, 4, 35, 80
8, 68400, Note_on_c, 4, 37, 127
8, 68760, Note_off_c, 4, 37, 80
8, 68760, Note_on_c, 4, 32, 127
8, 69120, Note_off_c, 4, 32, 80
8, 69120, Note_on_c, 4, 30, 127
8, 69360, Note_off_c, 4, 30, 80
8, 69360, Note_on_c, 4, 37, 127
8, 69600, Note_off_c, 4, 37, 80
8, 69600, Note_on_c, 4, 35, 127
8, 69960, Note_off_c, 4, 35, 80
8, 69960, Note_on_c, 4, 32, 127
8, 70320, Note_off_c, 4, 32, 80
8, 70320, Note_on_c, 4, 30, 127
8, 70560, Note_off_c, 4, 30, 80
8, 70560, Note_on_c, 4, 35, 127
8, 70800, Note_off_c, 4, 35, 80
8, 70800, Note_on_c, 4, 37, 127
8, 71160, Note_off_c, 4, 37, 80
8, 71160, Note_on_c, 4, 32, 127
8, 71520, Note_off_c, 4, 32, 80
8, 71520, Note_on_c, 4, 30, 127
8, 71760, Note_off_c, 4, 30, 80
8, 71760, Note_on_c, 4, 32, 127
8, 72000, Note_off_c, 4, 32, 80
8, 72000, Note_on_c, 4, 39, 127
8, 72360, Note_off_c, 4, 39, 80
8, 72360, Note_on_c, 4, 32, 127
8, 72720, Note_off_c, 4, 32, 80
8, 72720, Note_on_c, 4, 30, 127
8, 72960, Note_off_c, 4, 30, 80
8, 72960, Note_on_c, 4, 35, 127
8, 73200, Note_off_c, 4, 35, 80
8, 73200, Note_on_c, 4, 37, 127
8, 73560, Note_off_c, 4, 37, 80
8, 73560, Note_on_c, 4, 32, 127
8, 73920, Note_off_c, 4, 32, 80
8, 73920, Note_on_c, 4, 30, 127
8, 74160, Note_off_c, 4, 30, 80
8, 74160, Note_on_c, 4, 37, 127
8, 74400, Note_off_c, 4, 37, 80
8, 74400, Note_on_c, 4, 37, 95
8, 76320, Note_off_c, 4, 37, 80
8, 88800, Note_on_c, 4, 44, 79
8, 89760, Note_off_c, 4, 44, 80
8, 90000, Note_on_c, 4, 49, 79
8, 90960, Note_off_c, 4, 49, 80
8, 91200, Note_on_c, 4, 51, 79
8, 92160, Note_off_c, 4, 51, 80
8, 92400, Note_on_c, 4, 49, 79
8, 93360, Note_off_c, 4, 49, 80
8, 93600, Note_on_c, 4, 44, 79
8, 94560, Note_off_c, 4, 44, 80
8, 94800, Note_on_c, 4, 49, 79
8, 95760, Note_off_c, 4, 49, 80
8, 96000, Note_on_c, 4, 51, 79
8, 96960, Note_off_c, 4, 51, 80
8, 97200, Note_on_c, 4, 49, 79
8, 98160, Note_off_c, 4, 49, 80
8, 98400, Note_on_c, 4, 44, 79
8, 99360, Note_off_c, 4, 44, 80
8, 99600, Note_on_c, 4, 49, 79
8, 100560, Note_off_c, 4, 49, 80
8, 100800, Note_on_c, 4, 51, 79
8, 101760, Note_off_c, 4, 51, 80
8, 102000, Note_on_c, 4, 49, 79
8, 102960, Note_off_c, 4, 49, 80
8, 103200, Note_on_c, 4, 44, 79
8, 104160, Note_off_c, 4, 44, 80
8, 104400, Note_on_c, 4, 49, 79
8, 105360, Note_off_c, 4, 49, 80
8, 105600, Note_on_c, 4, 51, 79
8, 106560, Note_off_c, 4, 51, 80
8, 106800, Note_on_c, 4, 49, 79
8, 107760, Note_off_c, 4, 49, 80
8, 108000, Note_on_c, 4, 44, 79
8, 108960, Note_off_c, 4, 44, 80
8, 109200, Note_on_c, 4, 49, 79
8, 110160, Note_off_c, 4, 49, 80
8, 110400, Note_on_c, 4, 51, 79
8, 111360, Note_off_c, 4, 51, 80
8, 111600, Note_on_c, 4, 49, 79
8, 112560, Note_off_c, 4, 49, 80
8, 124800, Note_on_c, 4, 35, 127
8, 125160, Note_off_c, 4, 35, 80
8, 125160, Note_on_c, 4, 32, 127
8, 125400, Note_off_c, 4, 32, 80
8, 125400, Note_on_c, 4, 30, 111
8, 125520, Note_off_c, 4, 30, 80
8, 125520, Note_on_c, 4, 32, 111
8, 125640, Note_off_c, 4, 32, 80
8, 125640, Note_on_c, 4, 30, 111
8, 125760, Note_off_c, 4, 30, 80
8, 125760, Note_on_c, 4, 35, 111
8, 125880, Note_off_c, 4, 35, 80
8, 125880, Note_on_c, 4, 30, 111
8, 126000, Note_off_c, 4, 30, 80
8, 126000, Note_on_c, 4, 35, 127
8, 126360, Note_off_c, 4, 35, 80
8, 126360, Note_on_c, 4, 32, 127
8, 126600, Note_off_c, 4, 32, 80
8, 126600, Note_on_c, 4, 30, 111
8, 126720, Note_off_c, 4, 30, 80
8, 126720, Note_on_c, 4, 32, 111
8, 126840, Note_off_c, 4, 32, 80
8, 126840, Note_on_c, 4, 30, 111
8, 126960, Note_off_c, 4, 30, 80
8, 126960, Note_on_c, 4, 35, 111
8, 127080, Note_off_c, 4, 35, 80
8, 127080, Note_on_c, 4, 30, 111
8, 127200, Note_off_c, 4, 30, 80
8, 127200, Note_on_c, 4, 35, 127
8, 127560, Note_off_c, 4, 35, 80
8, 127560, Note_on_c, 4, 32, 127
8, 127800, Note_off_c, 4, 32, 80
8, 127800, Note_on_c, 4, 30, 111
8, 127920, Note_off_c, 4, 30, 80
8, 127920, Note_on_c, 4, 32, 111
8, 128040, Note_off_c, 4, 32, 80
8, 128040, Note_on_c, 4, 30, 111
8, 128160, Note_off_c, 4, 30, 80
8, 128160, Note_on_c, 4, 35, 111
8, 128280, Note_off_c, 4, 35, 80
8, 128280, Note_on_c, 4, 30, 111
8, 128400, Note_off_c, 4, 30, 80
8, 128400, Note_on_c, 4, 35, 127
8, 128760, Note_off_c, 4, 35, 80
8, 128760, Note_on_c, 4, 32, 127
8, 129000, Note_off_c, 4, 32, 80
8, 129000, Note_on_c, 4, 30, 111
8, 129120, Note_off_c, 4, 30, 80
8, 129120, Note_on_c, 4, 32, 111
8, 129240, Note_off_c, 4, 32, 80
8, 129240, Note_on_c, 4, 30, 111
8, 129360, Note_off_c, 4, 30, 80
8, 129360, Note_on_c, 4, 35, 111
8, 129480, Note_off_c, 4, 35, 80
8, 129480, Note_on_c, 4, 30, 111
8, 129600, Note_off_c, 4, 30, 80
8, 129600, Note_on_c, 4, 35, 127
8, 129960, Note_off_c, 4, 35, 80
8, 129960, Note_on_c, 4, 32, 127
8, 130200, Note_off_c, 4, 32, 80
8, 130200, Note_on_c, 4, 30, 111
8, 130320, Note_off_c, 4, 30, 80
8, 130320, Note_on_c, 4, 32, 111
8, 130440, Note_off_c, 4, 32, 80
8, 130440, Note_on_c, 4, 30, 111
8, 130560, Note_off_c, 4, 30, 80
8, 130560, Note_on_c, 4, 35, 111
8, 130680, Note_off_c, 4, 35, 80
8, 130680, Note_on_c, 4, 30, 111
8, 130800, Note_off_c, 4, 30, 80
8, 130800, Note_on_c, 4, 35, 127
8, 131160, Note_off_c, 4, 35, 80
8, 131160, Note_on_c, 4, 32, 127
8, 131400, Note_off_c, 4, 32, 80
8, 131400, Note_on_c, 4, 30, 111
8, 131520, Note_off_c, 4, 30, 80
8, 131520, Note_on_c, 4, 32, 111
8, 131640, Note_off_c, 4, 32, 80
8, 131640, Note_on_c, 4, 30, 111
8, 131760, Note_off_c, 4, 30, 80
8, 131760, Note_on_c, 4, 35, 111
8, 131880, Note_off_c, 4, 35, 80
8, 131880, Note_on_c, 4, 30, 111
8, 132000, Note_off_c, 4, 30, 80
8, 132000, Note_on_c, 4, 35, 127
8, 132360, Note_off_c, 4, 35, 80
8, 132360, Note_on_c, 4, 32, 127
8, 132600, Note_off_c, 4, 32, 80
8, 132600, Note_on_c, 4, 30, 111
8, 132720, Note_off_c, 4, 30, 80
8, 132720, Note_on_c, 4, 32, 111
8, 132840, Note_off_c, 4, 32, 80
8, 132840, Note_on_c, 4, 30, 111
8, 132960, Note_off_c, 4, 30, 80
8, 132960, Note_on_c, 4, 35, 111
8, 133080, Note_off_c, 4, 35, 80
8, 133080, Note_on_c, 4, 30, 111
8, 133200, Note_off_c, 4, 30, 80
8, 133200, Note_on_c, 4, 35, 127
8, 133560, Note_off_c, 4, 35, 80
8, 133560, Note_on_c, 4, 32, 127
8, 133800, Note_off_c, 4, 32, 80
8, 133800, Note_on_c, 4, 30, 111
8, 133920, Note_off_c, 4, 30, 80
8, 133920, Note_on_c, 4, 32, 111
8, 134040, Note_off_c, 4, 32, 80
8, 134040, Note_on_c, 4, 30, 111
8, 134160, Note_off_c, 4, 30, 80
8, 134160, Note_on_c, 4, 35, 111
8, 134280, Note_off_c, 4, 35, 80
8, 134280, Note_on_c, 4, 30, 111
8, 134400, Note_off_c, 4, 30, 80
8, 134400, Note_on_c, 4, 35, 127
8, 134760, Note_off_c, 4, 35, 80
8, 134760, Note_on_c, 4, 32, 127
8, 135000, Note_off_c, 4, 32, 80
8, 135000, Note_on_c, 4, 30, 111
8, 135120, Note_off_c, 4, 30, 80
8, 135120, Note_on_c, 4, 32, 111
8, 135240, Note_off_c, 4, 32, 80
8, 135240, Note_on_c, 4, 30, 111
8, 135360, Note_off_c, 4, 30, 80
8, 135360, Note_on_c, 4, 35, 111
8, 135480, Note_off_c, 4, 35, 80
8, 135480, Note_on_c, 4, 30, 111
8, 135600, Note_off_c, 4, 30, 80
8, 135600, Note_on_c, 4, 35, 127
8, 135960, Note_off_c, 4, 35, 80
8, 135960, Note_on_c, 4, 32, 127
8, 136200, Note_off_c, 4, 32, 80
8, 136200, Note_on_c, 4, 30, 111
8, 136320, Note_off_c, 4, 30, 80
8, 136320, Note_on_c, 4, 32, 111
8, 136440, Note_off_c, 4, 32, 80
8, 136440, Note_on_c, 4, 30, 111
8, 136560, Note_off_c, 4, 30, 80
8, 136560, Note_on_c, 4, 35, 111
8, 136680, Note_off_c, 4, 35, 80
8, 136680, Note_on_c, 4, 30, 111
8, 136800, Note_off_c, 4, 30, 80
8, 136800, Note_on_c, 4, 35, 127
8, 137160, Note_off_c, 4, 35, 80
8, 137160, Note_on_c, 4, 32, 127
8, 137400, Note_off_c, 4, 32, 80
8, 137400, Note_on_c, 4, 30, 111
8, 137520, Note_off_c, 4, 30, 80
8, 137520, Note_on_c, 4, 32, 111
8, 137640, Note_off_c, 4, 32, 80
8, 137640, Note_on_c, 4, 30, 111
8, 137760, Note_off_c, 4, 30, 80
8, 137760, Note_on_c, 4, 35, 111
8, 137880, Note_off_c, 4, 35, 80
8, 137880, Note_on_c, 4, 30, 111
8, 138000, Note_off_c, 4, 30, 80
8, 138000, Note_on_c, 4, 35, 127
8, 138360, Note_off_c, 4, 35, 80
8, 138360, Note_on_c, 4, 32, 127
8, 138600, Note_off_c, 4, 32, 80
8, 138600, Note_on_c, 4, 30, 111
8, 138720, Note_off_c, 4, 30, 80
8, 138720, Note_on_c, 4, 32, 111
8, 138840, Note_off_c, 4, 32, 80
8, 138840, Note_on_c, 4, 30, 111
8, 138960, Note_off_c, 4, 30, 80
8, 138960, Note_on_c, 4, 35, 111
8, 139080, Note_off_c, 4, 35, 80
8, 139080, Note_on_c, 4, 30, 111
8, 139200, Note_off_c, 4, 30, 80
8, 139200, Note_on_c, 4, 35, 127
8, 139560, Note_off_c, 4, 35, 80
8, 139560, Note_on_c, 4, 32, 127
8, 139800, Note_off_c, 4, 32, 80
8, 139800, Note_on_c, 4, 30, 111
8, 139920, Note_off_c, 4, 30, 80
8, 139920, Note_on_c, 4, 32, 111
8, 140040, Note_off_c, 4, 32, 80
8, 140040, Note_on_c, 4, 30, 111
8, 140160, Note_off_c, 4, 30, 80
8, 140160, Note_on_c, 4, 35, 111
8, 140280, Note_off_c, 4, 35, 80
8, 140280, Note_on_c, 4, 30, 111
8, 140400, Note_off_c, 4, 30, 80
8, 140400, Note_on_c, 4, 35, 127
8, 140760, Note_off_c, 4, 35, 80
8, 140760, Note_on_c, 4, 32, 127
8, 141000, Note_off_c, 4, 32, 80
8, 141000, Note_on_c, 4, 30, 111
8, 141120, Note_off_c, 4, 30, 80
8, 141120, Note_on_c, 4, 32, 111
8, 141240, Note_off_c, 4, 32, 80
8, 141240, Note_on_c, 4, 30, 111
8, 141360, Note_off_c, 4, 30, 80
8, 141360, Note_on_c, 4, 35, 111
8, 141480, Note_off_c, 4, 35, 80
8, 141480, Note_on_c, 4, 30, 111
8, 141600, Note_off_c, 4, 30, 80
8, 141600, Note_on_c, 4, 35, 127
8, 141960, Note_off_c, 4, 35, 80
8, 141960, Note_on_c, 4, 32, 127
8, 142200, Note_off_c, 4, 32, 80
8, 142200, Note_on_c, 4, 30, 111
8, 142320, Note_off_c, 4, 30, 80
8, 142320, Note_on_c, 4, 32, 111
8, 142440, Note_off_c, 4, 32, 80
8, 142440, Note_on_c, 4, 30, 111
8, 142560, Note_off_c, 4, 30, 80
8, 142560, Note_on_c, 4, 35, 111
8, 142680, Note_off_c, 4, 35, 80
8, 142680, Note_on_c, 4, 30, 111
8, 142800, Note_off_c, 4, 30, 80
8, 142800, Note_on_c, 4, 35, 127
8, 143160, Note_off_c, 4, 35, 80
8, 143160, Note_on_c, 4, 32, 127
8, 143400, Note_off_c, 4, 32, 80
8, 143400, Note_on_c, 4, 30, 111
8, 143520, Note_off_c, 4, 30, 80
8, 143520, Note_on_c, 4, 32, 111
8, 143640, Note_off_c, 4, 32, 80
8, 143640, Note_on_c, 4, 30, 111
8, 143760, Note_off_c, 4, 30, 80
8, 143760, Note_on_c, 4, 35, 111
8, 143880, Note_off_c, 4, 35, 80
8, 143880, Note_on_c, 4, 30, 111
8, 144000, Note_off_c, 4, 30, 80
8, 144000, Note_on_c, 4, 35, 127
8, 144360, Note_off_c, 4, 35, 80
8, 144360, Note_on_c, 4, 32, 127
8, 144600, Note_off_c, 4, 32, 80
8, 144600, Note_on_c, 4, 30, 111
8, 144720, Note_off_c, 4, 30, 80
8, 144720, Note_on_c, 4, 32, 111
8, 144840, Note_off_c, 4, 32, 80
8, 144840, Note_on_c, 4, 30, 111
8, 144960, Note_off_c, 4, 30, 80
8, 144960, Note_on_c, 4, 35, 111
8, 145080, Note_off_c, 4, 35, 80
8, 145080, Note_on_c, 4, 30, 111
8, 145200, Note_off_c, 4, 30, 80
8, 145200, Note_on_c, 4, 35, 127
8, 145560, Note_off_c, 4, 35, 80
8, 145560, Note_on_c, 4, 32, 127
8, 145800, Note_off_c, 4, 32, 80
8, 145800, Note_on_c, 4, 30, 111
8, 145920, Note_off_c, 4, 30, 80
8, 145920, Note_on_c, 4, 32, 111
8, 146040, Note_off_c, 4, 32, 80
8, 146040, Note_on_c, 4, 30, 111
8, 146160, Note_off_c, 4, 30, 80
8, 146160, Note_on_c, 4, 35, 111
8, 146280, Note_off_c, 4, 35, 80
8, 146280, Note_on_c, 4, 30, 111
8, 146400, Note_off_c, 4, 30, 80
8, 146400, Note_on_c, 4, 35, 127
8, 146760, Note_off_c, 4, 35, 80
8, 146760, Note_on_c, 4, 32, 127
8, 147000, Note_off_c, 4, 32, 80
8, 147000, Note_on_c, 4, 30, 111
8, 147120, Note_off_c, 4, 30, 80
8, 147120, Note_on_c, 4, 32, 111
8, 147240, Note_off_c, 4, 32, 80
8, 147240, Note_on_c, 4, 30, 111
8, 147360, Note_off_c, 4, 30, 80
8, 147360, Note_on_c, 4, 35, 111
8, 147480, Note_off_c, 4, 35, 80
8, 147480, Note_on_c, 4, 30, 111
8, 147600, Note_off_c, 4, 30, 80
8, 147600, Note_on_c, 4, 35, 127
8, 147960, Note_off_c, 4, 35, 80
8, 147960, Note_on_c, 4, 32, 127
8, 148200, Note_off_c, 4, 32, 80
8, 148200, Note_on_c, 4, 30, 111
8, 148320, Note_off_c, 4, 30, 80
8, 148320, Note_on_c, 4, 32, 111
8, 148440, Note_off_c, 4, 32, 80
8, 148440, Note_on_c, 4, 30, 111
8, 148560, Note_off_c, 4, 30, 80
8, 148560, Note_on_c, 4, 35, 111
8, 148680, Note_off_c, 4, 35, 80
8, 148680, Note_on_c, 4, 30, 111
8, 148800, Note_off_c, 4, 30, 80
8, 148800, Note_on_c, 4, 35, 127
8, 149160, Note_off_c, 4, 35, 80
8, 149160, Note_on_c, 4, 32, 127
8, 149400, Note_off_c, 4, 32, 80
8, 149400, Note_on_c, 4, 30, 111
8, 149520, Note_off_c, 4, 30, 80
8, 149520, Note_on_c, 4, 32, 111
8, 149640, Note_off_c, 4, 32, 80
8, 149640, Note_on_c, 4, 30, 111
8, 149760, Note_off_c, 4, 30, 80
8, 149760, Note_on_c, 4, 35, 111
8, 149880, Note_off_c, 4, 35, 80
8, 149880, Note_on_c, 4, 30, 111
8, 150000, Note_off_c, 4, 30, 80
8, 150000, Note_on_c, 4, 35, 127
8, 150360, Note_off_c, 4, 35, 80
8, 150360, Note_on_c, 4, 32, 127
8, 150600, Note_off_c, 4, 32, 80
8, 150600, Note_on_c, 4, 30, 111
8, 150720, Note_off_c, 4, 30, 80
8, 150720, Note_on_c, 4, 32, 111
8, 150840, Note_off_c, 4, 32, 80
8, 150840, Note_on_c, 4, 30, 111
8, 150960, Note_off_c, 4, 30, 80
8, 150960, Note_on_c, 4, 35, 111
8, 151080, Note_off_c, 4, 35, 80
8, 151080, Note_on_c, 4, 30, 111
8, 151200, Note_off_c, 4, 30, 80
8, 151200, Note_on_c, 4, 35, 127
8, 151560, Note_off_c, 4, 35, 80
8, 151560, Note_on_c, 4, 32, 127
8, 151800, Note_off_c, 4, 32, 80
8, 151800, Note_on_c, 4, 30, 111
8, 151920, Note_off_c, 4, 30, 80
8, 151920, Note_on_c, 4, 32, 111
8, 152040, Note_off_c, 4, 32, 80
8, 152040, Note_on_c, 4, 30, 111
8, 152160, Note_off_c, 4, 30, 80
8, 152160, Note_on_c, 4, 35, 111
8, 152280, Note_off_c, 4, 35, 80
8, 152280, Note_on_c, 4, 30, 111
8, 152400, Note_off_c, 4, 30, 80
8, 152400, Note_on_c, 4, 35, 127
8, 152760, Note_off_c, 4, 35, 80
8, 152760, Note_on_c, 4, 32, 127
8, 153000, Note_off_c, 4, 32, 80
8, 153000, Note_on_c, 4, 30, 111
8, 153120, Note_off_c, 4, 30, 80
8, 153120, Note_on_c, 4, 32, 111
8, 153240, Note_off_c, 4, 32, 80
8, 153240, Note_on_c, 4, 30, 111
8, 153360, Note_off_c, 4, 30, 80
8, 153360, Note_on_c, 4, 35, 111
8, 153480, Note_off_c, 4, 35, 80
8, 153480, Note_on_c, 4, 30, 111
8, 153600, Note_off_c, 4, 30, 80
8, 153600, Note_on_c, 4, 35, 127
8, 153960, Note_off_c, 4, 35, 80
8, 153960, Note_on_c, 4, 32, 127
8, 154200, Note_off_c, 4, 32, 80
8, 154200, Note_on_c, 4, 30, 111
8, 154320, Note_off_c, 4, 30, 80
8, 154320, Note_on_c, 4, 32, 111
8, 154440, Note_off_c, 4, 32, 80
8, 154440, Note_on_c, 4, 30, 111
8, 154560, Note_off_c, 4, 30, 80
8, 154560, Note_on_c, 4, 35, 111
8, 154680, Note_off_c, 4, 35, 80
8, 154680, Note_on_c, 4, 30, 111
8, 154800, Note_off_c, 4, 30, 80
8, 154800, Note_on_c, 4, 35, 127
8, 155160, Note_off_c, 4, 35, 80
8, 155160, Note_on_c, 4, 32, 127
8, 155400, Note_off_c, 4, 32, 80
8, 155400, Note_on_c, 4, 30, 111
8, 155520, Note_off_c, 4, 30, 80
8, 155520, Note_on_c, 4, 32, 111
8, 155640, Note_off_c, 4, 32, 80
8, 155640, Note_on_c, 4, 30, 111
8, 155760, Note_off_c, 4, 30, 80
8, 155760, Note_on_c, 4, 35, 111
8, 155880, Note_off_c, 4, 35, 80
8, 155880, Note_on_c, 4, 30, 111
8, 156000, Note_off_c, 4, 30, 80
8, 158400, Note_on_c, 4, 35, 127
8, 158760, Note_off_c, 4, 35, 80
8, 158760, Note_on_c, 4, 32, 127
8, 159000, Note_off_c, 4, 32, 80
8, 159000, Note_on_c, 4, 30, 111
8, 159120, Note_off_c, 4, 30, 80
8, 159120, Note_on_c, 4, 32, 111
8, 159240, Note_off_c, 4, 32, 80
8, 159240, Note_on_c, 4, 30, 111
8, 159360, Note_off_c, 4, 30, 80
8, 159360, Note_on_c, 4, 35, 111
8, 159480, Note_off_c, 4, 35, 80
8, 159480, Note_on_c, 4, 30, 111
8, 159600, Note_off_c, 4, 30, 80
8, 159600, Note_on_c, 4, 35, 127
8, 159960, Note_off_c, 4, 35, 80
8, 159960, Note_on_c, 4, 32, 127
8, 160200, Note_off_c, 4, 32, 80
8, 160200, Note_on_c, 4, 30, 111
8, 160320, Note_off_c, 4, 30, 80
8, 160320, Note_on_c, 4, 32, 111
8, 160440, Note_off_c, 4, 32, 80
8, 160440, Note_on_c, 4, 30, 111
8, 160560, Note_off_c, 4, 30, 80
8, 160560, Note_on_c, 4, 35, 111
8, 160680, Note_off_c, 4, 35, 80
8, 160680, Note_on_c, 4, 30, 111
8, 160800, Note_off_c, 4, 30, 80
8, 160800, End_track
9, 0, Start_track
9, 0, Title_t, "Ed O'Brien"
9, 0, Control_c, 7, 100, 0
9, 0, Control_c, 7, 101, 0
9, 0, Control_c, 7, 6, 12
9, 0, Pitch_bend_c, 7, 8192
9, 0, Control_c, 7, 101, 0
9, 0, Control_c, 7, 100, 1
9, 0, Control_c, 7, 6, 64
9, 0, Control_c, 7, 38, 0
9, 0, Control_c, 7, 101, 127
9, 0, Control_c, 7, 100, 127
9, 0, Control_c, 6, 100, 0
9, 0, Control_c, 6, 101, 0
9, 0, Control_c, 6, 6, 12
9, 0, Pitch_bend_c, 6, 8192
9, 0, Control_c, 6, 101, 0
9, 0, Control_c, 6, 100, 1
9, 0, Control_c, 6, 6, 64
9, 0, Control_c, 6, 38, 0
9, 0, Control_c, 6, 101, 127
9, 0, Control_c, 6, 100, 127
9, 0, Control_c, 7, 101, 0
9, 0, Control_c, 7, 100, 2
9, 0, Control_c, 7, 6, 64
9, 0, Control_c, 7, 101, 127
9, 0, Control_c, 7, 100, 127
9, 0, Control_c, 6, 101, 0
9, 0, Control_c, 6, 100, 2
9, 0, Control_c, 6, 6, 64
9, 0, Control_c, 6, 101, 127
9, 0, Control_c, 6, 100, 127
9, 0, Program_c, 7, 30
9, 0, Program_c, 6, 30
9, 0, Control_c, 7, 0, 0
9, 0, Control_c, 6, 0, 0
9, 0, Control_c, 7, 7, 104
9, 0, Control_c, 6, 7, 104
9, 0, Control_c, 7, 10, 64
9, 0, Control_c, 6, 10, 64
9, 0, Control_c, 7, 93, 0
9, 0, Control_c, 6, 93, 0
9, 0, Control_c, 7, 91, 0
9, 0, Control_c, 6, 91, 0
9, 0, Control_c, 7, 92, 0
9, 0, Control_c, 6, 92, 0
9, 0, Control_c, 7, 95, 0
9, 0, Control_c, 6, 95, 0
9, 101040, Note_on_c, 6, 56, 76
9, 101280, Note_off_c, 6, 56, 80
9, 101280, Note_on_c, 6, 54, 76
9, 101520, Note_off_c, 6, 54, 80
9, 101520, Note_on_c, 6, 51, 76
9, 101760, Note_off_c, 6, 51, 80
9, 101760, Note_on_c, 6, 49, 76
9, 101880, Note_off_c, 6, 49, 80
9, 101880, Note_on_c, 6, 47, 76
9, 102000, Note_off_c, 6, 47, 80
9, 102000, Note_on_c, 6, 44, 95
9, 102480, Note_off_c, 6, 44, 80
9, 102480, Note_on_c, 6, 44, 76
9, 102570, Note_off_c, 6, 44, 80
9, 102600, Note_on_c, 6, 42, 76
9, 102690, Note_off_c, 6, 42, 80
9, 102720, Note_on_c, 6, 42, 76
9, 102810, Note_off_c, 6, 42, 80
9, 102840, Note_on_c, 6, 44, 95
9, 103200, Note_off_c, 6, 44, 80
9, 132240, Note_on_c, 6, 56, 76
9, 132480, Note_off_c, 6, 56, 80
9, 132480, Note_on_c, 6, 54, 76
9, 132720, Note_off_c, 6, 54, 80
9, 132720, Note_on_c, 6, 51, 76
9, 132960, Note_off_c, 6, 51, 80
9, 132960, Note_on_c, 6, 49, 76
9, 133080, Note_off_c, 6, 49, 80
9, 133080, Note_on_c, 6, 47, 76
9, 133200, Note_off_c, 6, 47, 80
9, 133200, Note_on_c, 6, 44, 95
9, 133680, Note_off_c, 6, 44, 80
9, 133680, Note_on_c, 6, 44, 76
9, 133770, Note_off_c, 6, 44, 80
9, 133800, Note_on_c, 6, 42, 76
9, 133890, Note_off_c, 6, 42, 80
9, 133920, Note_on_c, 6, 42, 76
9, 134010, Note_off_c, 6, 42, 80
9, 134040, Note_on_c, 6, 44, 95
9, 134400, Note_off_c, 6, 44, 80
9, 144240, Note_on_c, 6, 56, 76
9, 144480, Note_off_c, 6, 56, 80
9, 144480, Note_on_c, 6, 54, 76
9, 144720, Note_off_c, 6, 54, 80
9, 144720, Note_on_c, 6, 51, 76
9, 144960, Note_off_c, 6, 51, 80
9, 144960, Note_on_c, 6, 49, 76
9, 145080, Note_off_c, 6, 49, 80
9, 145080, Note_on_c, 6, 47, 76
9, 145200, Note_off_c, 6, 47, 80
9, 145200, Note_on_c, 6, 44, 95
9, 145680, Note_off_c, 6, 44, 80
9, 145680, Note_on_c, 6, 44, 76
9, 145770, Note_off_c, 6, 44, 80
9, 145800, Note_on_c, 6, 42, 76
9, 145890, Note_off_c, 6, 42, 80
9, 145920, Note_on_c, 6, 42, 76
9, 146010, Note_off_c, 6, 42, 80
9, 146040, Note_on_c, 6, 44, 95
9, 146400, Note_off_c, 6, 44, 80
9, 146640, Note_on_c, 6, 56, 76
9, 146880, Note_off_c, 6, 56, 80
9, 146880, Note_on_c, 6, 54, 76
9, 147120, Note_off_c, 6, 54, 80
9, 147120, Note_on_c, 6, 51, 76
9, 147360, Note_off_c, 6, 51, 80
9, 147360, Note_on_c, 6, 49, 76
9, 147480, Note_off_c, 6, 49, 80
9, 147480, Note_on_c, 6, 47, 76
9, 147600, Note_off_c, 6, 47, 80
9, 147600, Note_on_c, 6, 44, 95
9, 148080, Note_off_c, 6, 44, 80
9, 148080, Note_on_c, 6, 44, 76
9, 148170, Note_off_c, 6, 44, 80
9, 148200, Note_on_c, 6, 42, 76
9, 148290, Note_off_c, 6, 42, 80
9, 148320, Note_on_c, 6, 42, 76
9, 148410, Note_off_c, 6, 42, 80
9, 148440, Note_on_c, 6, 44, 95
9, 148800, Note_off_c, 6, 44, 80
9, 148800, End_track
10, 0, Start_track
10, 0, Title_t, "Sound Effect #1"
10, 0, Control_c, 10, 100, 0
10, 0, Control_c, 10, 101, 0
10, 0, Control_c, 10, 6, 12
10, 0, Pitch_bend_c, 10, 8192
10, 0, Control_c, 10, 101, 0
10, 0, Control_c, 10, 100, 1
10, 0, Control_c, 10, 6, 64
10, 0, Control_c, 10, 38, 0
10, 0, Control_c, 10, 101, 127
10, 0, Control_c, 10, 100, 127
10, 0, Control_c, 8, 100, 0
10, 0, Control_c, 8, 101, 0
10, 0, Control_c, 8, 6, 12
10, 0, Pitch_bend_c, 8, 8192
10, 0, Control_c, 8, 101, 0
10, 0, Control_c, 8, 100, 1
10, 0, Control_c, 8, 6, 64
10, 0, Control_c, 8, 38, 0
10, 0, Control_c, 8, 101, 127
10, 0, Control_c, 8, 100, 127
10, 0, Control_c, 10, 101, 0
10, 0, Control_c, 10, 100, 2
10, 0, Control_c, 10, 6, 64
10, 0, Control_c, 10, 101, 127
10, 0, Control_c, 10, 100, 127
10, 0, Control_c, 8, 101, 0
10, 0, Control_c, 8, 100, 2
10, 0, Control_c, 8, 6, 64
10, 0, Control_c, 8, 101, 127
10, 0, Control_c, 8, 100, 127
10, 0, Program_c, 10, 126
10, 0, Program_c, 8, 126
10, 0, Control_c, 10, 0, 0
10, 0, Control_c, 8, 0, 0
10, 0, Control_c, 10, 7, 104
10, 0, Control_c, 8, 7, 104
10, 0, Control_c, 10, 10, 64
10, 0, Control_c, 8, 10, 64
10, 0, Control_c, 10, 93, 0
10, 0, Control_c, 8, 93, 0
10, 0, Control_c, 10, 91, 0
10, 0, Control_c, 8, 91, 0
10, 0, Control_c, 10, 92, 0
10, 0, Control_c, 8, 92, 0
10, 0, Control_c, 10, 95, 0
10, 0, Control_c, 8, 95, 0
10, 106080, Note_on_c, 8, 68, 95
10, 106080, Note_on_c, 8, 59, 95
10, 107040, Note_off_c, 8, 68, 80
10, 107040, Note_off_c, 8, 59, 80
10, 124800, Note_on_c, 8, 68, 95
10, 124800, Note_on_c, 8, 59, 95
10, 125760, Note_off_c, 8, 68, 80
10, 125760, Note_off_c, 8, 59, 80
10, 136800, Note_on_c, 8, 68, 95
10, 136800, Note_on_c, 8, 59, 95
10, 137760, Note_off_c, 8, 68, 80
10, 137760, Note_off_c, 8, 59, 80
10, 137760, End_track
11, 0, Start_track
11, 0, Title_t, "Sound Effect #2"
11, 0, Control_c, 12, 100, 0
11, 0, Control_c, 12, 101, 0
11, 0, Control_c, 12, 6, 12
11, 0, Pitch_bend_c, 12, 8192
11, 0, Control_c, 12, 101, 0
11, 0, Control_c, 12, 100, 1
11, 0, Control_c, 12, 6, 64
11, 0, Control_c, 12, 38, 0
11, 0, Control_c, 12, 101, 127
11, 0, Control_c, 12, 100, 127
11, 0, Control_c, 11, 100, 0
11, 0, Control_c, 11, 101, 0
11, 0, Control_c, 11, 6, 12
11, 0, Pitch_bend_c, 11, 8192
11, 0, Control_c, 11, 101, 0
11, 0, Control_c, 11, 100, 1
11, 0, Control_c, 11, 6, 64
11, 0, Control_c, 11, 38, 0
11, 0, Control_c, 11, 101, 127
11, 0, Control_c, 11, 100, 127
11, 0, Control_c, 12, 101, 0
11, 0, Control_c, 12, 100, 2
11, 0, Control_c, 12, 6, 64
11, 0, Control_c, 12, 101, 127
11, 0, Control_c, 12, 100, 127
11, 0, Control_c, 11, 101, 0
11, 0, Control_c, 11, 100, 2
11, 0, Control_c, 11, 6, 64
11, 0, Control_c, 11, 101, 127
11, 0, Control_c, 11, 100, 127
11, 0, Program_c, 12, 120
11, 0, Program_c, 11, 120
11, 0, Control_c, 12, 0, 0
11, 0, Control_c, 11, 0, 0
11, 0, Control_c, 12, 7, 104
11, 0, Control_c, 11, 7, 104
11, 0, Control_c, 12, 10, 64
11, 0, Control_c, 11, 10, 64
11, 0, Control_c, 12, 93, 0
11, 0, Control_c, 11, 93, 0
11, 0, Control_c, 12, 91, 0
11, 0, Control_c, 11, 91, 0
11, 0, Control_c, 12, 92, 0
11, 0, Control_c, 11, 92, 0
11, 0, Control_c, 12, 95, 0
11, 0, Control_c, 11, 95, 0
11, 112440, Note_on_c, 11, 62, 127
11, 112560, Note_off_c, 11, 62, 80
11, 112560, Note_on_c, 11, 62, 127
11, 112680, Note_off_c, 11, 62, 80
11, 112680, Note_on_c, 11, 62, 127
11, 112800, Note_off_c, 11, 62, 80
11, 112800, Note_on_c, 11, 63, 127
11, 112920, Note_on_c, 11, 71, 127
11, 113040, Note_off_c, 11, 63, 80
11, 113040, Note_on_c, 11, 63, 127
11, 113160, Note_off_c, 11, 71, 80
11, 113160, Note_on_c, 11, 71, 127
11, 115080, Note_off_c, 11, 63, 80
11, 115080, Note_off_c, 11, 71, 80
11, 117000, Note_on_c, 11, 69, 111
11, 117120, Note_off_c, 11, 69, 80
11, 117120, Note_on_c, 12, 60, 111
11, 117120, Pitch_bend_c, 12, 8192
11, 117124, Pitch_bend_c, 12, 8192
11, 117129, Pitch_bend_c, 12, 8192
11, 117133, Pitch_bend_c, 12, 8192
11, 117138, Pitch_bend_c, 12, 8192
11, 117142, Pitch_bend_c, 12, 8192
11, 117146, Pitch_bend_c, 12, 8192
11, 117151, Pitch_bend_c, 12, 8192
11, 117155, Pitch_bend_c, 12, 8192
11, 117160, Pitch_bend_c, 12, 8192
11, 117164, Pitch_bend_c, 12, 8192
11, 117168, Pitch_bend_c, 12, 8192
11, 117173, Pitch_bend_c, 12, 8192
11, 117177, Pitch_bend_c, 12, 8192
11, 117182, Pitch_bend_c, 12, 8192
11, 117186, Pitch_bend_c, 12, 8192
11, 117190, Pitch_bend_c, 12, 8192
11, 117195, Pitch_bend_c, 12, 8192
11, 117199, Pitch_bend_c, 12, 8192
11, 117204, Pitch_bend_c, 12, 8192
11, 117208, Pitch_bend_c, 12, 8192
11, 117213, Pitch_bend_c, 12, 8192
11, 117217, Pitch_bend_c, 12, 8192
11, 117221, Pitch_bend_c, 12, 8192
11, 117226, Pitch_bend_c, 12, 8192
11, 117230, Pitch_bend_c, 12, 8192
11, 117235, Pitch_bend_c, 12, 8192
11, 117239, Pitch_bend_c, 12, 8192
11, 117243, Pitch_bend_c, 12, 8192
11, 117248, Pitch_bend_c, 12, 8192
11, 117252, Pitch_bend_c, 12, 8192
11, 117257, Pitch_bend_c, 12, 8192
11, 117261, Pitch_bend_c, 12, 8192
11, 117265, Pitch_bend_c, 12, 8192
11, 117270, Pitch_bend_c, 12, 8320
11, 117274, Pitch_bend_c, 12, 8320
11, 117279, Pitch_bend_c, 12, 8320
11, 117283, Pitch_bend_c, 12, 8320
11, 117287, Pitch_bend_c, 12, 8320
11, 117292, Pitch_bend_c, 12, 8320
11, 117296, Pitch_bend_c, 12, 8320
11, 117301, Pitch_bend_c, 12, 8320
11, 117305, Pitch_bend_c, 12, 8320
11, 117309, Pitch_bend_c, 12, 8320
11, 117314, Pitch_bend_c, 12, 8320
11, 117318, Pitch_bend_c, 12, 8320
11, 117323, Pitch_bend_c, 12, 8320
11, 117327, Pitch_bend_c, 12, 8192
11, 117331, Pitch_bend_c, 12, 8192
11, 117336, Pitch_bend_c, 12, 8192
11, 117340, Pitch_bend_c, 12, 8064
11, 117345, Pitch_bend_c, 12, 8064
11, 117349, Pitch_bend_c, 12, 8064
11, 117354, Pitch_bend_c, 12, 8064
11, 117358, Pitch_bend_c, 12, 8064
11, 117360, Note_off_c, 12, 60, 80
11, 117360, Pitch_bend_c, 12, 8192
11, 117360, Note_on_c, 12, 60, 111
11, 117360, Pitch_bend_c, 12, 8192
11, 117364, Pitch_bend_c, 12, 8192
11, 117369, Pitch_bend_c, 12, 8192
11, 117373, Pitch_bend_c, 12, 8192
11, 117378, Pitch_bend_c, 12, 8192
11, 117382, Pitch_bend_c, 12, 8192
11, 117386, Pitch_bend_c, 12, 8192
11, 117391, Pitch_bend_c, 12, 8192
11, 117395, Pitch_bend_c, 12, 8192
11, 117400, Pitch_bend_c, 12, 8192
11, 117404, Pitch_bend_c, 12, 8192
11, 117408, Pitch_bend_c, 12, 8192
11, 117413, Pitch_bend_c, 12, 8192
11, 117417, Pitch_bend_c, 12, 8192
11, 117422, Pitch_bend_c, 12, 8192
11, 117426, Pitch_bend_c, 12, 8192
11, 117430, Pitch_bend_c, 12, 8192
11, 117435, Pitch_bend_c, 12, 8192
11, 117439, Pitch_bend_c, 12, 8192
11, 117444, Pitch_bend_c, 12, 8192
11, 117448, Pitch_bend_c, 12, 8192
11, 117453, Pitch_bend_c, 12, 8192
11, 117457, Pitch_bend_c, 12, 8192
11, 117461, Pitch_bend_c, 12, 8192
11, 117466, Pitch_bend_c, 12, 8192
11, 117470, Pitch_bend_c, 12, 8192
11, 117475, Pitch_bend_c, 12, 8192
11, 117479, Pitch_bend_c, 12, 8192
11, 117483, Pitch_bend_c, 12, 8192
11, 117488, Pitch_bend_c, 12, 8192
11, 117492, Pitch_bend_c, 12, 8192
11, 117497, Pitch_bend_c, 12, 8192
11, 117501, Pitch_bend_c, 12, 8192
11, 117505, Pitch_bend_c, 12, 8192
11, 117510, Pitch_bend_c, 12, 8320
11, 117514, Pitch_bend_c, 12, 8320
11, 117519, Pitch_bend_c, 12, 8320
11, 117523, Pitch_bend_c, 12, 8448
11, 117527, Pitch_bend_c, 12, 8448
11, 117532, Pitch_bend_c, 12, 8448
11, 117536, Pitch_bend_c, 12, 8448
11, 117541, Pitch_bend_c, 12, 8448
11, 117545, Pitch_bend_c, 12, 8448
11, 117549, Pitch_bend_c, 12, 8448
11, 117554, Pitch_bend_c, 12, 8320
11, 117558, Pitch_bend_c, 12, 8320
11, 117563, Pitch_bend_c, 12, 8320
11, 117567, Pitch_bend_c, 12, 8192
11, 117571, Pitch_bend_c, 12, 8192
11, 117576, Pitch_bend_c, 12, 8192
11, 117580, Pitch_bend_c, 12, 8064
11, 117585, Pitch_bend_c, 12, 8064
11, 117589, Pitch_bend_c, 12, 8064
11, 117594, Pitch_bend_c, 12, 7936
11, 117598, Pitch_bend_c, 12, 7936
11, 117600, Note_off_c, 12, 60, 80
11, 117600, Pitch_bend_c, 12, 8192
11, 117600, End_track
12, 0, Start_track
12, 0, Title_t, "Sound Effect #3"
12, 0, Control_c, 14, 100, 0
12, 0, Control_c, 14, 101, 0
12, 0, Control_c, 14, 6, 12
12, 0, Pitch_bend_c, 14, 8192
12, 0, Control_c, 14, 101, 0
12, 0, Control_c, 14, 100, 1
12, 0, Control_c, 14, 6, 64
12, 0, Control_c, 14, 38, 0
12, 0, Control_c, 14, 101, 127
12, 0, Control_c, 14, 100, 127
12, 0, Control_c, 13, 100, 0
12, 0, Control_c, 13, 101, 0
12, 0, Control_c, 13, 6, 12
12, 0, Pitch_bend_c, 13, 8192
12, 0, Control_c, 13, 101, 0
12, 0, Control_c, 13, 100, 1
12, 0, Control_c, 13, 6, 64
12, 0, Control_c, 13, 38, 0
12, 0, Control_c, 13, 101, 127
12, 0, Control_c, 13, 100, 127
12, 0, Control_c, 14, 101, 0
12, 0, Control_c, 14, 100, 2
12, 0, Control_c, 14, 6, 64
12, 0, Control_c, 14, 101, 127
12, 0, Control_c, 14, 100, 127
12, 0, Control_c, 13, 101, 0
12, 0, Control_c, 13, 100, 2
12, 0, Control_c, 13, 6, 64
12, 0, Control_c, 13, 101, 127
12, 0, Control_c, 13, 100, 127
12, 0, Program_c, 14, 19
12, 0, Program_c, 13, 19
12, 0, Control_c, 14, 0, 0
12, 0, Control_c, 13, 0, 0
12, 0, Control_c, 14, 7, 104
12, 0, Control_c, 13, 7, 104
12, 0, Control_c, 14, 10, 64
12, 0, Control_c, 13, 10, 64
12, 0, Control_c, 14, 93, 0
12, 0, Control_c, 13, 93, 0
12, 0, Control_c, 14, 91, 0
12, 0, Control_c, 13, 91, 0
12, 0, Control_c, 14, 92, 0
12, 0, Control_c, 13, 92, 0
12, 0, Control_c, 14, 95, 0
12, 0, Control_c, 13, 95, 0
12, 112800, Control_c, 13, 7, 8
12, 112800, Control_c, 14, 7, 8
12, 112800, Note_on_c, 13, 75, 127
12, 112920, Control_c, 13, 7, 16
12, 112920, Control_c, 14, 7, 16
12, 113040, Control_c, 13, 7, 24
12, 113040, Control_c, 14, 7, 24
12, 113160, Control_c, 13, 7, 32
12, 113160, Control_c, 14, 7, 32
12, 113280, Control_c, 13, 7, 40
12, 113280, Control_c, 14, 7, 40
12, 113400, Control_c, 13, 7, 48
12, 113400, Control_c, 14, 7, 48
12, 113520, Control_c, 13, 7, 56
12, 113520, Control_c, 14, 7, 56
12, 113640, Control_c, 13, 7, 64
12, 113640, Control_c, 14, 7, 64
12, 113760, Control_c, 13, 7, 72
12, 113760, Control_c, 14, 7, 72
12, 113880, Control_c, 13, 7, 80
12, 113880, Control_c, 14, 7, 80
12, 114000, Control_c, 13, 7, 88
12, 114000, Control_c, 14, 7, 88
12, 114120, Control_c, 13, 7, 96
12, 114120, Control_c, 14, 7, 96
12, 114240, Control_c, 13, 7, 104
12, 114240, Control_c, 14, 7, 104
12, 114720, Note_off_c, 13, 75, 80
12, 114720, Note_on_c, 13, 75, 111
12, 115200, Note_off_c, 13, 75, 80
12, 115200, Note_on_c, 13, 75, 127
12, 117120, Note_off_c, 13, 75, 80
12, 117120, Note_on_c, 13, 75, 127
12, 119520, Note_off_c, 13, 75, 80
12, 164160, Control_c, 13, 7, 10
12, 164160, Control_c, 14, 7, 10
12, 164160, Note_on_c, 13, 63, 127
12, 164280, Control_c, 13, 7, 21
12, 164280, Control_c, 14, 7, 21
12, 164400, Control_c, 13, 7, 31
12, 164400, Control_c, 14, 7, 31
12, 164520, Control_c, 13, 7, 42
12, 164520, Control_c, 14, 7, 42
12, 164640, Control_c, 13, 7, 52
12, 164640, Control_c, 14, 7, 52
12, 164760, Control_c, 13, 7, 62
12, 164760, Control_c, 14, 7, 62
12, 164880, Control_c, 13, 7, 73
12, 164880, Control_c, 14, 7, 73
12, 165000, Control_c, 13, 7, 83
12, 165000, Control_c, 14, 7, 83
12, 165120, Control_c, 13, 7, 94
12, 165120, Control_c, 14, 7, 94
12, 165240, Control_c, 13, 7, 104
12, 165240, Control_c, 14, 7, 104
12, 165600, Note_on_c, 13, 67, 79
12, 168000, Note_off_c, 13, 67, 80
12, 169920, Note_off_c, 13, 63, 80
12, 175200, Note_on_c, 13, 70, 63
12, 175200, Note_on_c, 13, 63, 63
12, 175200, Note_on_c, 13, 58, 63
12, 182880, Note_off_c, 13, 70, 80
12, 182880, Note_off_c, 13, 63, 80
12, 182880, Note_off_c, 13, 58, 80
12, 182880, End_track
13, 0, Start_track
13, 0, Title_t, "Sound Effect #3"
13, 0, Control_c, 15, 100, 0
13, 0, Control_c, 15, 101, 0
13, 0, Control_c, 15, 6, 12
13, 0, Pitch_bend_c, 15, 8192
13, 0, Control_c, 15, 101, 0
13, 0, Control_c, 15, 100, 1
13, 0, Control_c, 15, 6, 64
13, 0, Control_c, 15, 38, 0
13, 0, Control_c, 15, 101, 127
13, 0, Control_c, 15, 100, 127
13, 0, Control_c, 15, 101, 0
13, 0, Control_c, 15, 100, 2
13, 0, Control_c, 15, 6, 64
13, 0, Control_c, 15, 101, 127
13, 0, Control_c, 15, 100, 127
13, 0, Program_c, 15, 89
13, 0, Control_c, 15, 0, 0
13, 0, Control_c, 15, 7, 104
13, 0, Control_c, 15, 10, 64
13, 0, Control_c, 15, 93, 0
13, 0, Control_c, 15, 91, 0
13, 0, Control_c, 15, 92, 0
13, 0, Control_c, 15, 95, 0
13, 112800, Control_c, 15, 7, 8
13, 112800, Note_on_c, 15, 68, 127
13, 112800, Note_on_c, 15, 56, 127
13, 112920, Control_c, 15, 7, 16
13, 113040, Control_c, 15, 7, 24
13, 113160, Control_c, 15, 7, 32
13, 113280, Control_c, 15, 7, 40
13, 113400, Control_c, 15, 7, 48
13, 113520, Control_c, 15, 7, 56
13, 113640, Control_c, 15, 7, 64
13, 113760, Control_c, 15, 7, 72
13, 113880, Control_c, 15, 7, 80
13, 114000, Control_c, 15, 7, 88
13, 114120, Control_c, 15, 7, 96
13, 114240, Control_c, 15, 7, 104
13, 117600, Note_on_c, 15, 73, 95
13, 117600, Note_on_c, 15, 68, 95
13, 117600, Note_on_c, 15, 64, 95
13, 120000, Note_on_c, 15, 75, 95
13, 120000, Note_on_c, 15, 70, 95
13, 120000, Note_on_c, 15, 66, 95
13, 121440, Note_off_c, 15, 73, 80
13, 121440, Note_off_c, 15, 68, 80
13, 121440, Note_off_c, 15, 64, 80
13, 122400, Note_on_c, 15, 73, 95
13, 122400, Note_on_c, 15, 68, 95
13, 122400, Note_on_c, 15, 64, 95
13, 123840, Note_off_c, 15, 75, 80
13, 123840, Note_off_c, 15, 70, 80
13, 123840, Note_off_c, 15, 66, 80
13, 124320, Note_off_c, 15, 68, 80
13, 124320, Note_off_c, 15, 56, 80
13, 124800, Control_c, 15, 7, 8
13, 124800, Note_on_c, 15, 75, 95
13, 124800, Note_on_c, 15, 70, 95
13, 124800, Note_on_c, 15, 66, 95
13, 124920, Control_c, 15, 7, 16
13, 125040, Control_c, 15, 7, 24
13, 125160, Control_c, 15, 7, 32
13, 125280, Control_c, 15, 7, 40
13, 125400, Control_c, 15, 7, 48
13, 125520, Control_c, 15, 7, 56
13, 125640, Control_c, 15, 7, 64
13, 125760, Control_c, 15, 7, 72
13, 125880, Control_c, 15, 7, 80
13, 126000, Control_c, 15, 7, 88
13, 126120, Control_c, 15, 7, 96
13, 126240, Note_off_c, 15, 73, 80
13, 126240, Note_off_c, 15, 68, 80
13, 126240, Note_off_c, 15, 64, 80
13, 126240, Control_c, 15, 7, 104
13, 128640, Note_off_c, 15, 75, 80
13, 128640, Note_off_c, 15, 70, 80
13, 128640, Note_off_c, 15, 66, 80
13, 129600, Note_on_c, 15, 73, 95
13, 129600, Note_on_c, 15, 68, 95
13, 129600, Note_on_c, 15, 64, 95
13, 132000, Note_on_c, 15, 75, 95
13, 132000, Note_on_c, 15, 70, 95
13, 132000, Note_on_c, 15, 66, 95
13, 133440, Note_off_c, 15, 73, 80
13, 133440, Note_off_c, 15, 68, 80
13, 133440, Note_off_c, 15, 64, 80
13, 134304, Note_off_c, 15, 75, 80
13, 134304, Note_off_c, 15, 70, 80
13, 134304, Note_off_c, 15, 66, 80
13, 134400, Note_on_c, 15, 73, 95
13, 134400, Note_on_c, 15, 68, 95
13, 134400, Note_on_c, 15, 64, 95
13, 136800, Control_c, 15, 7, 8
13, 136800, Note_on_c, 15, 71, 95
13, 136800, Note_on_c, 15, 66, 95
13, 136920, Control_c, 15, 7, 16
13, 137040, Control_c, 15, 7, 24
13, 137160, Control_c, 15, 7, 32
13, 137280, Control_c, 15, 7, 40
13, 137400, Control_c, 15, 7, 48
13, 137520, Control_c, 15, 7, 56
13, 137640, Control_c, 15, 7, 64
13, 137760, Control_c, 15, 7, 72
13, 137880, Control_c, 15, 7, 80
13, 138000, Control_c, 15, 7, 88
13, 138120, Control_c, 15, 7, 96
13, 138240, Note_off_c, 15, 73, 80
13, 138240, Note_off_c, 15, 68, 80
13, 138240, Note_off_c, 15, 64, 80
13, 138240, Control_c, 15, 7, 104
13, 140640, Note_off_c, 15, 71, 80
13, 140640, Note_off_c, 15, 66, 80
13, 141600, Note_on_c, 15, 73, 95
13, 141600, Note_on_c, 15, 68, 95
13, 141600, Note_on_c, 15, 64, 95
13, 144000, Note_on_c, 15, 75, 95
13, 144000, Note_on_c, 15, 70, 95
13, 144000, Note_on_c, 15, 66, 95
13, 145440, Note_off_c, 15, 73, 80
13, 145440, Note_off_c, 15, 68, 80
13, 145440, Note_off_c, 15, 64, 80
13, 146304, Note_off_c, 15, 75, 80
13, 146304, Note_off_c, 15, 70, 80
13, 146304, Note_off_c, 15, 66, 80
13, 146400, Note_on_c, 15, 73, 95
13, 146400, Note_on_c, 15, 68, 95
13, 146400, Note_on_c, 15, 64, 95
13, 148800, Control_c, 15, 7, 8
13, 148800, Note_on_c, 15, 75, 95
13, 148800, Note_on_c, 15, 71, 95
13, 148800, Note_on_c, 15, 66, 95
13, 148920, Control_c, 15, 7, 16
13, 149040, Control_c, 15, 7, 24
13, 149160, Control_c, 15, 7, 32
13, 149280, Control_c, 15, 7, 40
13, 149400, Control_c, 15, 7, 48
13, 149520, Control_c, 15, 7, 56
13, 149640, Control_c, 15, 7, 64
13, 149760, Control_c, 15, 7, 72
13, 149880, Control_c, 15, 7, 80
13, 150000, Control_c, 15, 7, 88
13, 150120, Control_c, 15, 7, 96
13, 150240, Note_off_c, 15, 73, 80
13, 150240, Note_off_c, 15, 68, 80
13, 150240, Note_off_c, 15, 64, 80
13, 150240, Control_c, 15, 7, 104
13, 152640, Note_off_c, 15, 75, 80
13, 152640, Note_off_c, 15, 71, 80
13, 152640, Note_off_c, 15, 66, 80
13, 153600, Note_on_c, 15, 73, 95
13, 153600, Note_on_c, 15, 68, 95
13, 153600, Note_on_c, 15, 64, 95
13, 155712, Note_off_c, 15, 73, 80
13, 155712, Note_off_c, 15, 68, 80
13, 155712, Note_off_c, 15, 64, 80
13, 156000, Control_c, 15, 7, 8
13, 156000, Note_on_c, 15, 75, 63
13, 156000, Note_on_c, 15, 70, 63
13, 156000, Note_on_c, 15, 66, 63
13, 156120, Control_c, 15, 7, 16
13, 156240, Control_c, 15, 7, 24
13, 156360, Control_c, 15, 7, 32
13, 156480, Control_c, 15, 7, 40
13, 156600, Control_c, 15, 7, 48
13, 156720, Control_c, 15, 7, 56
13, 156840, Control_c, 15, 7, 64
13, 156960, Control_c, 15, 7, 72
13, 157080, Control_c, 15, 7, 80
13, 157200, Control_c, 15, 7, 88
13, 157320, Control_c, 15, 7, 96
13, 157440, Control_c, 15, 7, 104
13, 158304, Note_off_c, 15, 75, 80
13, 158304, Note_off_c, 15, 70, 80
13, 158304, Note_off_c, 15, 66, 80
13, 158400, Control_c, 15, 7, 8
13, 158400, Note_on_c, 15, 75, 95
13, 158400, Note_on_c, 15, 71, 95
13, 158400, Note_on_c, 15, 66, 95
13, 158520, Control_c, 15, 7, 16
13, 158640, Control_c, 15, 7, 24
13, 158760, Control_c, 15, 7, 32
13, 158880, Control_c, 15, 7, 40
13, 159000, Control_c, 15, 7, 48
13, 159120, Control_c, 15, 7, 56
13, 159240, Control_c, 15, 7, 64
13, 159360, Control_c, 15, 7, 72
13, 159480, Control_c, 15, 7, 80
13, 159600, Control_c, 15, 7, 88
13, 159720, Control_c, 15, 7, 96
13, 159840, Control_c, 15, 7, 104
13, 160800, Control_c, 15, 7, 8
13, 160800, Note_on_c, 15, 75, 127
13, 160800, Note_on_c, 15, 72, 127
13, 160800, Note_on_c, 15, 67, 127
13, 160920, Control_c, 15, 7, 16
13, 161040, Control_c, 15, 7, 24
13, 161160, Control_c, 15, 7, 32
13, 161280, Control_c, 15, 7, 40
13, 161400, Control_c, 15, 7, 48
13, 161520, Control_c, 15, 7, 56
13, 161640, Control_c, 15, 7, 64
13, 161760, Control_c, 15, 7, 72
13, 161880, Control_c, 15, 7, 80
13, 162000, Control_c, 15, 7, 88
13, 162120, Control_c, 15, 7, 96
13, 162240, Note_off_c, 15, 75, 80
13, 162240, Note_off_c, 15, 71, 80
13, 162240, Note_off_c, 15, 66, 80
13, 162240, Control_c, 15, 7, 104
13, 165600, Note_off_c, 15, 75, 80
13, 165600, Note_off_c, 15, 72, 80
13, 165600, Note_off_c, 15, 67, 80
13, 168000, Control_c, 15, 7, 8
13, 168000, Note_on_c, 15, 75, 127
13, 168000, Note_on_c, 15, 72, 127
13, 168000, Note_on_c, 15, 67, 127
13, 168120, Control_c, 15, 7, 16
13, 168240, Control_c, 15, 7, 24
13, 168360, Control_c, 15, 7, 32
13, 168480, Control_c, 15, 7, 40
13, 168600, Control_c, 15, 7, 48
13, 168720, Control_c, 15, 7, 56
13, 168840, Control_c, 15, 7, 64
13, 168960, Control_c, 15, 7, 72
13, 169080, Control_c, 15, 7, 80
13, 169200, Control_c, 15, 7, 88
13, 169320, Control_c, 15, 7, 96
13, 169440, Control_c, 15, 7, 104
13, 172800, Note_off_c, 15, 75, 80
13, 172800, Note_off_c, 15, 72, 80
13, 172800, Note_off_c, 15, 67, 80
13, 172800, Note_on_c, 15, 64, 63
13, 172800, Note_on_c, 15, 61, 63
13, 172800, Note_on_c, 15, 56, 63
13, 192000, Note_off_c, 15, 64, 80
13, 192000, Note_off_c, 15, 61, 80
13, 192000, Note_off_c, 15, 56, 80
13, 192000, End_track
0, 0, End_of_file
