0, 0, Header, 1, 8, 120
1, 0, Start_track
1, 0, Time_signature, 4, 2, 24, 8
1, 0, Key_signature, 0, "major"
1, 0, Tempo, 416667
1, 0, End_track
2, 0, Start_track
2, 0, Title_t, "Staff"
2, 0, Program_c, 9, 0
2, 0, Note_on_c, 9, 36, 110
2, 0, Note_on_c, 9, 47, 110
2, 0, Note_on_c, 9, 48, 110
2, 0, Note_on_c, 9, 49, 110
2, 28, Note_off_c, 9, 36, 0
2, 28, Note_off_c, 9, 47, 0
2, 28, Note_off_c, 9, 48, 0
2, 28, Note_off_c, 9, 49, 0
2, 29, Note_on_c, 9, 48, 110
2, 58, Note_off_c, 9, 48, 0
2, 59, Note_on_c, 9, 48, 110
2, 88, Note_off_c, 9, 48, 0
2, 89, Note_on_c, 9, 47, 110
2, 89, Note_on_c, 9, 48, 110
2, 118, Note_off_c, 9, 47, 0
2, 118, Note_off_c, 9, 48, 0
2, 119, Note_on_c, 9, 36, 110
2, 119, Note_on_c, 9, 48, 110
2, 148, Note_off_c, 9, 36, 0
2, 148, Note_off_c, 9, 48, 0
2, 149, Note_on_c, 9, 48, 110
2, 178, Note_off_c, 9, 48, 0
2, 179, Note_on_c, 9, 48, 110
2, 208, Note_off_c, 9, 48, 0
2, 209, Note_on_c, 9, 48, 110
2, 238, Note_off_c, 9, 48, 0
2, 239, Note_on_c, 9, 36, 110
2, 239, Note_on_c, 9, 47, 110
2, 239, Note_on_c, 9, 48, 110
2, 268, Note_off_c, 9, 36, 0
2, 268, Note_off_c, 9, 47, 0
2, 268, Note_off_c, 9, 48, 0
2, 269, Note_on_c, 9, 48, 110
2, 298, Note_off_c, 9, 48, 0
2, 299, Note_on_c, 9, 48, 110
2, 328, Note_off_c, 9, 48, 0
2, 329, Note_on_c, 9, 48, 110
2, 358, Note_off_c, 9, 48, 0
2, 359, Note_on_c, 9, 36, 110
2, 359, Note_on_c, 9, 47, 110
2, 359, Note_on_c, 9, 48, 110
2, 388, Note_off_c, 9, 36, 0
2, 388, Note_off_c, 9, 47, 0
2, 388, Note_off_c, 9, 48, 0
2, 389, Note_on_c, 9, 48, 110
2, 418, Note_off_c, 9, 48, 0
2, 419, Note_on_c, 9, 48, 110
2, 448, Note_off_c, 9, 48, 0
2, 449, Note_on_c, 9, 48, 110
2, 478, Note_off_c, 9, 48, 0
2, 479, Note_on_c, 9, 36, 110
2, 479, Note_on_c, 9, 47, 110
2, 479, Note_on_c, 9, 48, 110
2, 508, Note_off_c, 9, 36, 0
2, 508, Note_off_c, 9, 47, 0
2, 508, Note_off_c, 9, 48, 0
2, 509, Note_on_c, 9, 48, 110
2, 538, Note_off_c, 9, 48, 0
2, 539, Note_on_c, 9, 48, 110
2, 568, Note_off_c, 9, 48, 0
2, 569, Note_on_c, 9, 47, 110
2, 569, Note_on_c, 9, 48, 110
2, 598, Note_off_c, 9, 47, 0
2, 598, Note_off_c, 9, 48, 0
2, 599, Note_on_c, 9, 36, 110
2, 599, Note_on_c, 9, 48, 110
2, 628, Note_off_c, 9, 36, 0
2, 628, Note_off_c, 9, 48, 0
2, 629, Note_on_c, 9, 48, 110
2, 658, Note_off_c, 9, 48, 0
2, 659, Note_on_c, 9, 48, 110
2, 688, Note_off_c, 9, 48, 0
2, 689, Note_on_c, 9, 48, 110
2, 718, Note_off_c, 9, 48, 0
2, 719, Note_on_c, 9, 36, 110
2, 719, Note_on_c, 9, 47, 110
2, 719, Note_on_c, 9, 48, 110
2, 748, Note_off_c, 9, 36, 0
2, 748, Note_off_c, 9, 47, 0
2, 748, Note_off_c, 9, 48, 0
2, 749, Note_on_c, 9, 48, 110
2, 778, Note_off_c, 9, 48, 0
2, 779, Note_on_c, 9, 48, 110
2, 808, Note_off_c, 9, 48, 0
2, 809, Note_on_c, 9, 48, 110
2, 838, Note_off_c, 9, 48, 0
2, 839, Note_on_c, 9, 36, 110
2, 839, Note_on_c, 9, 47, 110
2, 839, Note_on_c, 9, 48, 110
2, 868, Note_off_c, 9, 36, 0
2, 868, Note_off_c, 9, 47, 0
2, 868, Note_off_c, 9, 48, 0
2, 869, Note_on_c, 9, 48, 110
2, 898, Note_off_c, 9, 48, 0
2, 899, Note_on_c, 9, 48, 110
2, 928, Note_off_c, 9, 48, 0
2, 929, Note_on_c, 9, 48, 110
2, 958, Note_off_c, 9, 48, 0
2, 959, Note_on_c, 9, 36, 110
2, 959, Note_on_c, 9, 47, 110
2, 959, Note_on_c, 9, 48, 110
2, 988, Note_off_c, 9, 36, 0
2, 988, Note_off_c, 9, 47, 0
2, 988, Note_off_c, 9, 48, 0
2, 989, Note_on_c, 9, 48, 110
2, 1018, Note_off_c, 9, 48, 0
2, 1019, Note_on_c, 9, 48, 110
2, 1048, Note_off_c, 9, 48, 0
2, 1049, Note_on_c, 9, 47, 110
2, 1049, Note_on_c, 9, 48, 110
2, 1078, Note_off_c, 9, 47, 0
2, 1078, Note_off_c, 9, 48, 0
2, 1079, Note_on_c, 9, 36, 110
2, 1079, Note_on_c, 9, 48, 110
2, 1108, Note_off_c, 9, 36, 0
2, 1108, Note_off_c, 9, 48, 0
2, 1109, Note_on_c, 9, 48, 110
2, 1138, Note_off_c, 9, 48, 0
2, 1139, Note_on_c, 9, 48, 110
2, 1168, Note_off_c, 9, 48, 0
2, 1169, Note_on_c, 9, 48, 110
2, 1198, Note_off_c, 9, 48, 0
2, 1199, Note_on_c, 9, 36, 110
2, 1199, Note_on_c, 9, 47, 110
2, 1199, Note_on_c, 9, 48, 110
2, 1228, Note_off_c, 9, 36, 0
2, 1228, Note_off_c, 9, 47, 0
2, 1228, Note_off_c, 9, 48, 0
2, 1229, Note_on_c, 9, 48, 110
2, 1258, Note_off_c, 9, 48, 0
2, 1259, Note_on_c, 9, 48, 110
2, 1288, Note_off_c, 9, 48, 0
2, 1289, Note_on_c, 9, 48, 110
2, 1318, Note_off_c, 9, 48, 0
2, 1319, Note_on_c, 9, 36, 110
2, 1319, Note_on_c, 9, 47, 110
2, 1319, Note_on_c, 9, 48, 110
2, 1348, Note_off_c, 9, 36, 0
2, 1348, Note_off_c, 9, 47, 0
2, 1348, Note_off_c, 9, 48, 0
2, 1349, Note_on_c, 9, 48, 110
2, 1378, Note_off_c, 9, 48, 0
2, 1379, Note_on_c, 9, 48, 110
2, 1408, Note_off_c, 9, 48, 0
2, 1409, Note_on_c, 9, 48, 110
2, 1438, Note_off_c, 9, 48, 0
2, 1439, Note_on_c, 9, 36, 110
2, 1439, Note_on_c, 9, 47, 110
2, 1439, Note_on_c, 9, 48, 110
2, 1468, Note_off_c, 9, 36, 0
2, 1468, Note_off_c, 9, 47, 0
2, 1468, Note_off_c, 9, 48, 0
2, 1469, Note_on_c, 9, 48, 110
2, 1498, Note_off_c, 9, 48, 0
2, 1499, Note_on_c, 9, 48, 110
2, 1528, Note_off_c, 9, 48, 0
2, 1529, Note_on_c, 9, 47, 110
2, 1529, Note_on_c, 9, 48, 110
2, 1558, Note_off_c, 9, 47, 0
2, 1558, Note_off_c, 9, 48, 0
2, 1559, Note_on_c, 9, 36, 110
2, 1559, Note_on_c, 9, 48, 110
2, 1588, Note_off_c, 9, 36, 0
2, 1588, Note_off_c, 9, 48, 0
2, 1589, Note_on_c, 9, 48, 110
2, 1618, Note_off_c, 9, 48, 0
2, 1619, Note_on_c, 9, 48, 110
2, 1648, Note_off_c, 9, 48, 0
2, 1649, Note_on_c, 9, 48, 110
2, 1678, Note_off_c, 9, 48, 0
2, 1679, Note_on_c, 9, 36, 110
2, 1679, Note_on_c, 9, 47, 110
2, 1679, Note_on_c, 9, 48, 110
2, 1708, Note_off_c, 9, 36, 0
2, 1708, Note_off_c, 9, 47, 0
2, 1708, Note_off_c, 9, 48, 0
2, 1709, Note_on_c, 9, 48, 110
2, 1738, Note_off_c, 9, 48, 0
2, 1739, Note_on_c, 9, 48, 110
2, 1768, Note_off_c, 9, 48, 0
2, 1769, Note_on_c, 9, 48, 110
2, 1798, Note_off_c, 9, 48, 0
2, 1799, Note_on_c, 9, 36, 110
2, 1799, Note_on_c, 9, 47, 110
2, 1799, Note_on_c, 9, 48, 110
2, 1828, Note_off_c, 9, 36, 0
2, 1828, Note_off_c, 9, 47, 0
2, 1828, Note_off_c, 9, 48, 0
2, 1829, Note_on_c, 9, 48, 110
2, 1858, Note_off_c, 9, 48, 0
2, 1859, Note_on_c, 9, 48, 110
2, 1888, Note_off_c, 9, 48, 0
2, 1889, Note_on_c, 9, 48, 110
2, 1918, Note_off_c, 9, 48, 0
2, 1919, Note_on_c, 9, 36, 110
2, 1919, Note_on_c, 9, 47, 110
2, 1919, Note_on_c, 9, 48, 110
2, 1919, Note_on_c, 9, 49, 110
2, 1948, Note_off_c, 9, 36, 0
2, 1948, Note_off_c, 9, 47, 0
2, 1948, Note_off_c, 9, 48, 0
2, 1948, Note_off_c, 9, 49, 0
2, 1949, Note_on_c, 9, 48, 110
2, 1978, Note_off_c, 9, 48, 0
2, 1979, Note_on_c, 9, 48, 110
2, 2008, Note_off_c, 9, 48, 0
2, 2009, Note_on_c, 9, 47, 110
2, 2009, Note_on_c, 9, 48, 110
2, 2038, Note_off_c, 9, 47, 0
2, 2038, Note_off_c, 9, 48, 0
2, 2039, Note_on_c, 9, 36, 110
2, 2039, Note_on_c, 9, 48, 110
2, 2068, Note_off_c, 9, 36, 0
2, 2068, Note_off_c, 9, 48, 0
2, 2069, Note_on_c, 9, 48, 110
2, 2098, Note_off_c, 9, 48, 0
2, 2099, Note_on_c, 9, 48, 110
2, 2128, Note_off_c, 9, 48, 0
2, 2129, Note_on_c, 9, 48, 110
2, 2158, Note_off_c, 9, 48, 0
2, 2159, Note_on_c, 9, 36, 110
2, 2159, Note_on_c, 9, 47, 110
2, 2159, Note_on_c, 9, 48, 110
2, 2188, Note_off_c, 9, 36, 0
2, 2188, Note_off_c, 9, 47, 0
2, 2188, Note_off_c, 9, 48, 0
2, 2189, Note_on_c, 9, 48, 110
2, 2218, Note_off_c, 9, 48, 0
2, 2219, Note_on_c, 9, 48, 110
2, 2248, Note_off_c, 9, 48, 0
2, 2249, Note_on_c, 9, 48, 110
2, 2278, Note_off_c, 9, 48, 0
2, 2279, Note_on_c, 9, 36, 110
2, 2279, Note_on_c, 9, 47, 110
2, 2279, Note_on_c, 9, 48, 110
2, 2308, Note_off_c, 9, 36, 0
2, 2308, Note_off_c, 9, 47, 0
2, 2308, Note_off_c, 9, 48, 0
2, 2309, Note_on_c, 9, 48, 110
2, 2338, Note_off_c, 9, 48, 0
2, 2339, Note_on_c, 9, 48, 110
2, 2368, Note_off_c, 9, 48, 0
2, 2369, Note_on_c, 9, 48, 110
2, 2398, Note_off_c, 9, 48, 0
2, 2399, Note_on_c, 9, 36, 110
2, 2399, Note_on_c, 9, 47, 110
2, 2399, Note_on_c, 9, 48, 110
2, 2428, Note_off_c, 9, 36, 0
2, 2428, Note_off_c, 9, 47, 0
2, 2428, Note_off_c, 9, 48, 0
2, 2429, Note_on_c, 9, 48, 110
2, 2458, Note_off_c, 9, 48, 0
2, 2459, Note_on_c, 9, 48, 110
2, 2488, Note_off_c, 9, 48, 0
2, 2489, Note_on_c, 9, 47, 110
2, 2489, Note_on_c, 9, 48, 110
2, 2518, Note_off_c, 9, 47, 0
2, 2518, Note_off_c, 9, 48, 0
2, 2519, Note_on_c, 9, 36, 110
2, 2519, Note_on_c, 9, 48, 110
2, 2548, Note_off_c, 9, 36, 0
2, 2548, Note_off_c, 9, 48, 0
2, 2549, Note_on_c, 9, 48, 110
2, 2578, Note_off_c, 9, 48, 0
2, 2579, Note_on_c, 9, 48, 110
2, 2608, Note_off_c, 9, 48, 0
2, 2609, Note_on_c, 9, 48, 110
2, 2638, Note_off_c, 9, 48, 0
2, 2639, Note_on_c, 9, 48, 110
2, 2639, Note_on_c, 9, 36, 110
2, 2639, Note_on_c, 9, 47, 110
2, 2668, Note_off_c, 9, 48, 0
2, 2668, Note_off_c, 9, 36, 0
2, 2668, Note_off_c, 9, 47, 0
2, 2669, Note_on_c, 9, 48, 110
2, 2698, Note_off_c, 9, 48, 0
2, 2699, Note_on_c, 9, 48, 110
2, 2728, Note_off_c, 9, 48, 0
2, 2729, Note_on_c, 9, 48, 110
2, 2758, Note_off_c, 9, 48, 0
2, 2759, Note_on_c, 9, 36, 110
2, 2759, Note_on_c, 9, 47, 110
2, 2759, Note_on_c, 9, 48, 110
2, 2788, Note_off_c, 9, 36, 0
2, 2788, Note_off_c, 9, 47, 0
2, 2788, Note_off_c, 9, 48, 0
2, 2789, Note_on_c, 9, 48, 110
2, 2818, Note_off_c, 9, 48, 0
2, 2819, Note_on_c, 9, 48, 110
2, 2848, Note_off_c, 9, 48, 0
2, 2849, Note_on_c, 9, 48, 110
2, 2878, Note_off_c, 9, 48, 0
2, 2879, Note_on_c, 9, 36, 110
2, 2879, Note_on_c, 9, 47, 110
2, 2879, Note_on_c, 9, 48, 110
2, 2879, Note_on_c, 9, 49, 110
2, 2908, Note_off_c, 9, 36, 0
2, 2908, Note_off_c, 9, 47, 0
2, 2908, Note_off_c, 9, 48, 0
2, 2908, Note_off_c, 9, 49, 0
2, 2909, Note_on_c, 9, 48, 110
2, 2938, Note_off_c, 9, 48, 0
2, 2939, Note_on_c, 9, 48, 110
2, 2968, Note_off_c, 9, 48, 0
2, 2969, Note_on_c, 9, 47, 110
2, 2969, Note_on_c, 9, 48, 110
2, 2998, Note_off_c, 9, 47, 0
2, 2998, Note_off_c, 9, 48, 0
2, 2999, Note_on_c, 9, 36, 110
2, 2999, Note_on_c, 9, 48, 110
2, 3028, Note_off_c, 9, 36, 0
2, 3028, Note_off_c, 9, 48, 0
2, 3029, Note_on_c, 9, 48, 110
2, 3058, Note_off_c, 9, 48, 0
2, 3059, Note_on_c, 9, 48, 110
2, 3088, Note_off_c, 9, 48, 0
2, 3089, Note_on_c, 9, 48, 110
2, 3118, Note_off_c, 9, 48, 0
2, 3119, Note_on_c, 9, 36, 110
2, 3119, Note_on_c, 9, 47, 110
2, 3119, Note_on_c, 9, 48, 110
2, 3148, Note_off_c, 9, 36, 0
2, 3148, Note_off_c, 9, 47, 0
2, 3148, Note_off_c, 9, 48, 0
2, 3149, Note_on_c, 9, 48, 110
2, 3178, Note_off_c, 9, 48, 0
2, 3179, Note_on_c, 9, 48, 110
2, 3208, Note_off_c, 9, 48, 0
2, 3209, Note_on_c, 9, 48, 110
2, 3238, Note_off_c, 9, 48, 0
2, 3239, Note_on_c, 9, 36, 110
2, 3239, Note_on_c, 9, 47, 110
2, 3239, Note_on_c, 9, 48, 110
2, 3268, Note_off_c, 9, 36, 0
2, 3268, Note_off_c, 9, 47, 0
2, 3268, Note_off_c, 9, 48, 0
2, 3269, Note_on_c, 9, 48, 110
2, 3298, Note_off_c, 9, 48, 0
2, 3299, Note_on_c, 9, 48, 110
2, 3328, Note_off_c, 9, 48, 0
2, 3329, Note_on_c, 9, 48, 110
2, 3358, Note_off_c, 9, 48, 0
2, 3359, Note_on_c, 9, 36, 110
2, 3359, Note_on_c, 9, 47, 110
2, 3359, Note_on_c, 9, 48, 110
2, 3388, Note_off_c, 9, 36, 0
2, 3388, Note_off_c, 9, 47, 0
2, 3388, Note_off_c, 9, 48, 0
2, 3389, Note_on_c, 9, 48, 110
2, 3418, Note_off_c, 9, 48, 0
2, 3419, Note_on_c, 9, 48, 110
2, 3448, Note_off_c, 9, 48, 0
2, 3449, Note_on_c, 9, 47, 110
2, 3449, Note_on_c, 9, 48, 110
2, 3478, Note_off_c, 9, 47, 0
2, 3478, Note_off_c, 9, 48, 0
2, 3479, Note_on_c, 9, 36, 110
2, 3479, Note_on_c, 9, 48, 110
2, 3508, Note_off_c, 9, 36, 0
2, 3508, Note_off_c, 9, 48, 0
2, 3509, Note_on_c, 9, 48, 110
2, 3538, Note_off_c, 9, 48, 0
2, 3539, Note_on_c, 9, 48, 110
2, 3568, Note_off_c, 9, 48, 0
2, 3569, Note_on_c, 9, 48, 110
2, 3598, Note_off_c, 9, 48, 0
2, 3599, Note_on_c, 9, 36, 110
2, 3599, Note_on_c, 9, 47, 110
2, 3599, Note_on_c, 9, 48, 110
2, 3628, Note_off_c, 9, 36, 0
2, 3628, Note_off_c, 9, 47, 0
2, 3628, Note_off_c, 9, 48, 0
2, 3629, Note_on_c, 9, 48, 110
2, 3658, Note_off_c, 9, 48, 0
2, 3659, Note_on_c, 9, 48, 110
2, 3688, Note_off_c, 9, 48, 0
2, 3689, Note_on_c, 9, 48, 110
2, 3718, Note_off_c, 9, 48, 0
2, 3719, Note_on_c, 9, 36, 110
2, 3719, Note_on_c, 9, 47, 110
2, 3719, Note_on_c, 9, 48, 110
2, 3748, Note_off_c, 9, 36, 0
2, 3748, Note_off_c, 9, 47, 0
2, 3748, Note_off_c, 9, 48, 0
2, 3749, Note_on_c, 9, 48, 110
2, 3778, Note_off_c, 9, 48, 0
2, 3779, Note_on_c, 9, 48, 110
2, 3808, Note_off_c, 9, 48, 0
2, 3809, Note_on_c, 9, 48, 110
2, 3838, Note_off_c, 9, 48, 0
2, 3839, Note_on_c, 9, 36, 110
2, 3839, Note_on_c, 9, 47, 110
2, 3839, Note_on_c, 9, 48, 110
2, 3839, Note_on_c, 9, 49, 110
2, 3868, Note_off_c, 9, 36, 0
2, 3868, Note_off_c, 9, 47, 0
2, 3868, Note_off_c, 9, 48, 0
2, 3868, Note_off_c, 9, 49, 0
2, 3869, Note_on_c, 9, 48, 110
2, 3898, Note_off_c, 9, 48, 0
2, 3899, Note_on_c, 9, 48, 110
2, 3928, Note_off_c, 9, 48, 0
2, 3929, Note_on_c, 9, 48, 110
2, 3929, Note_on_c, 9, 47, 110
2, 3958, Note_off_c, 9, 48, 0
2, 3958, Note_off_c, 9, 47, 0
2, 3959, Note_on_c, 9, 36, 110
2, 3959, Note_on_c, 9, 48, 110
2, 3988, Note_off_c, 9, 36, 0
2, 3988, Note_off_c, 9, 48, 0
2, 3989, Note_on_c, 9, 48, 110
2, 4018, Note_off_c, 9, 48, 0
2, 4019, Note_on_c, 9, 48, 110
2, 4048, Note_off_c, 9, 48, 0
2, 4049, Note_on_c, 9, 48, 110
2, 4078, Note_off_c, 9, 48, 0
2, 4079, Note_on_c, 9, 36, 110
2, 4079, Note_on_c, 9, 47, 110
2, 4079, Note_on_c, 9, 48, 110
2, 4108, Note_off_c, 9, 36, 0
2, 4108, Note_off_c, 9, 47, 0
2, 4108, Note_off_c, 9, 48, 0
2, 4109, Note_on_c, 9, 48, 110
2, 4138, Note_off_c, 9, 48, 0
2, 4139, Note_on_c, 9, 48, 110
2, 4168, Note_off_c, 9, 48, 0
2, 4169, Note_on_c, 9, 48, 110
2, 4198, Note_off_c, 9, 48, 0
2, 4199, Note_on_c, 9, 36, 110
2, 4199, Note_on_c, 9, 47, 110
2, 4199, Note_on_c, 9, 48, 110
2, 4228, Note_off_c, 9, 36, 0
2, 4228, Note_off_c, 9, 47, 0
2, 4228, Note_off_c, 9, 48, 0
2, 4229, Note_on_c, 9, 48, 110
2, 4258, Note_off_c, 9, 48, 0
2, 4259, Note_on_c, 9, 48, 110
2, 4288, Note_off_c, 9, 48, 0
2, 4289, Note_on_c, 9, 48, 110
2, 4318, Note_off_c, 9, 48, 0
2, 4319, Note_on_c, 9, 36, 110
2, 4319, Note_on_c, 9, 47, 110
2, 4319, Note_on_c, 9, 48, 110
2, 4348, Note_off_c, 9, 36, 0
2, 4348, Note_off_c, 9, 47, 0
2, 4348, Note_off_c, 9, 48, 0
2, 4349, Note_on_c, 9, 48, 110
2, 4378, Note_off_c, 9, 48, 0
2, 4379, Note_on_c, 9, 48, 110
2, 4408, Note_off_c, 9, 48, 0
2, 4409, Note_on_c, 9, 47, 110
2, 4409, Note_on_c, 9, 48, 110
2, 4438, Note_off_c, 9, 47, 0
2, 4438, Note_off_c, 9, 48, 0
2, 4439, Note_on_c, 9, 36, 110
2, 4439, Note_on_c, 9, 48, 110
2, 4468, Note_off_c, 9, 36, 0
2, 4468, Note_off_c, 9, 48, 0
2, 4469, Note_on_c, 9, 48, 110
2, 4498, Note_off_c, 9, 48, 0
2, 4499, Note_on_c, 9, 48, 110
2, 4528, Note_off_c, 9, 48, 0
2, 4529, Note_on_c, 9, 48, 110
2, 4558, Note_off_c, 9, 48, 0
2, 4559, Note_on_c, 9, 36, 110
2, 4559, Note_on_c, 9, 47, 110
2, 4559, Note_on_c, 9, 48, 110
2, 4588, Note_off_c, 9, 36, 0
2, 4588, Note_off_c, 9, 47, 0
2, 4588, Note_off_c, 9, 48, 0
2, 4589, Note_on_c, 9, 48, 110
2, 4618, Note_off_c, 9, 48, 0
2, 4619, Note_on_c, 9, 48, 110
2, 4648, Note_off_c, 9, 48, 0
2, 4649, Note_on_c, 9, 48, 110
2, 4678, Note_off_c, 9, 48, 0
2, 4679, Note_on_c, 9, 36, 110
2, 4679, Note_on_c, 9, 47, 110
2, 4679, Note_on_c, 9, 48, 110
2, 4708, Note_off_c, 9, 36, 0
2, 4708, Note_off_c, 9, 47, 0
2, 4708, Note_off_c, 9, 48, 0
2, 4709, Note_on_c, 9, 48, 110
2, 4738, Note_off_c, 9, 48, 0
2, 4739, Note_on_c, 9, 48, 110
2, 4768, Note_off_c, 9, 48, 0
2, 4769, Note_on_c, 9, 48, 110
2, 4798, Note_off_c, 9, 48, 0
2, 4799, Note_on_c, 9, 36, 110
2, 4799, Note_on_c, 9, 47, 110
2, 4799, Note_on_c, 9, 48, 110
2, 4799, Note_on_c, 9, 49, 110
2, 4828, Note_off_c, 9, 36, 0
2, 4828, Note_off_c, 9, 47, 0
2, 4828, Note_off_c, 9, 48, 0
2, 4828, Note_off_c, 9, 49, 0
2, 4829, Note_on_c, 9, 48, 110
2, 4858, Note_off_c, 9, 48, 0
2, 4859, Note_on_c, 9, 48, 110
2, 4888, Note_off_c, 9, 48, 0
2, 4889, Note_on_c, 9, 47, 110
2, 4889, Note_on_c, 9, 48, 110
2, 4918, Note_off_c, 9, 47, 0
2, 4918, Note_off_c, 9, 48, 0
2, 4919, Note_on_c, 9, 36, 110
2, 4919, Note_on_c, 9, 48, 110
2, 4948, Note_off_c, 9, 36, 0
2, 4948, Note_off_c, 9, 48, 0
2, 4949, Note_on_c, 9, 48, 110
2, 4978, Note_off_c, 9, 48, 0
2, 4979, Note_on_c, 9, 48, 110
2, 5008, Note_off_c, 9, 48, 0
2, 5009, Note_on_c, 9, 48, 110
2, 5038, Note_off_c, 9, 48, 0
2, 5039, Note_on_c, 9, 36, 110
2, 5039, Note_on_c, 9, 47, 110
2, 5039, Note_on_c, 9, 48, 110
2, 5068, Note_off_c, 9, 36, 0
2, 5068, Note_off_c, 9, 47, 0
2, 5068, Note_off_c, 9, 48, 0
2, 5069, Note_on_c, 9, 48, 110
2, 5098, Note_off_c, 9, 48, 0
2, 5099, Note_on_c, 9, 48, 110
2, 5128, Note_off_c, 9, 48, 0
2, 5129, Note_on_c, 9, 48, 110
2, 5158, Note_off_c, 9, 48, 0
2, 5159, Note_on_c, 9, 36, 110
2, 5159, Note_on_c, 9, 47, 110
2, 5159, Note_on_c, 9, 48, 110
2, 5188, Note_off_c, 9, 36, 0
2, 5188, Note_off_c, 9, 47, 0
2, 5188, Note_off_c, 9, 48, 0
2, 5189, Note_on_c, 9, 48, 110
2, 5218, Note_off_c, 9, 48, 0
2, 5219, Note_on_c, 9, 48, 110
2, 5248, Note_off_c, 9, 48, 0
2, 5249, Note_on_c, 9, 48, 110
2, 5278, Note_off_c, 9, 48, 0
2, 5279, Note_on_c, 9, 36, 110
2, 5279, Note_on_c, 9, 47, 110
2, 5279, Note_on_c, 9, 48, 110
2, 5308, Note_off_c, 9, 36, 0
2, 5308, Note_off_c, 9, 47, 0
2, 5308, Note_off_c, 9, 48, 0
2, 5309, Note_on_c, 9, 48, 110
2, 5338, Note_off_c, 9, 48, 0
2, 5339, Note_on_c, 9, 48, 110
2, 5368, Note_off_c, 9, 48, 0
2, 5369, Note_on_c, 9, 47, 110
2, 5369, Note_on_c, 9, 48, 110
2, 5398, Note_off_c, 9, 47, 0
2, 5398, Note_off_c, 9, 48, 0
2, 5399, Note_on_c, 9, 36, 110
2, 5399, Note_on_c, 9, 48, 110
2, 5428, Note_off_c, 9, 36, 0
2, 5428, Note_off_c, 9, 48, 0
2, 5429, Note_on_c, 9, 48, 110
2, 5458, Note_off_c, 9, 48, 0
2, 5459, Note_on_c, 9, 48, 110
2, 5488, Note_off_c, 9, 48, 0
2, 5489, Note_on_c, 9, 48, 110
2, 5518, Note_off_c, 9, 48, 0
2, 5519, Note_on_c, 9, 36, 110
2, 5519, Note_on_c, 9, 47, 110
2, 5519, Note_on_c, 9, 48, 110
2, 5548, Note_off_c, 9, 36, 0
2, 5548, Note_off_c, 9, 47, 0
2, 5548, Note_off_c, 9, 48, 0
2, 5549, Note_on_c, 9, 48, 110
2, 5578, Note_off_c, 9, 48, 0
2, 5579, Note_on_c, 9, 48, 110
2, 5608, Note_off_c, 9, 48, 0
2, 5609, Note_on_c, 9, 48, 110
2, 5638, Note_off_c, 9, 48, 0
2, 5639, Note_on_c, 9, 36, 110
2, 5639, Note_on_c, 9, 47, 110
2, 5639, Note_on_c, 9, 48, 110
2, 5668, Note_off_c, 9, 36, 0
2, 5668, Note_off_c, 9, 47, 0
2, 5668, Note_off_c, 9, 48, 0
2, 5669, Note_on_c, 9, 48, 110
2, 5698, Note_off_c, 9, 48, 0
2, 5759, Note_on_c, 9, 49, 110
2, 5848, Note_off_c, 9, 49, 0
2, 5849, Note_on_c, 9, 49, 110
2, 5938, Note_off_c, 9, 49, 0
2, 5939, Note_on_c, 9, 49, 110
2, 5998, Note_off_c, 9, 49, 0
2, 5999, Note_on_c, 9, 37, 110
2, 5999, Note_on_c, 9, 38, 110
2, 6058, Note_off_c, 9, 37, 0
2, 6058, Note_off_c, 9, 38, 0
2, 6059, Note_on_c, 9, 38, 110
2, 6118, Note_off_c, 9, 38, 0
2, 6119, Note_on_c, 9, 37, 110
2, 6119, Note_on_c, 9, 38, 110
2, 6178, Note_off_c, 9, 37, 0
2, 6178, Note_off_c, 9, 38, 0
2, 6179, Note_on_c, 9, 38, 110
2, 6238, Note_off_c, 9, 38, 0
2, 6239, Note_on_c, 9, 49, 110
2, 6328, Note_off_c, 9, 49, 0
2, 6329, Note_on_c, 9, 49, 110
2, 6418, Note_off_c, 9, 49, 0
2, 6419, Note_on_c, 9, 49, 110
2, 6478, Note_off_c, 9, 49, 0
2, 6479, Note_on_c, 9, 37, 110
2, 6479, Note_on_c, 9, 38, 110
2, 6508, Note_off_c, 9, 37, 0
2, 6508, Note_off_c, 9, 38, 0
2, 6509, Note_on_c, 9, 38, 110
2, 6538, Note_off_c, 9, 38, 0
2, 6539, Note_on_c, 9, 38, 110
2, 6568, Note_off_c, 9, 38, 0
2, 6569, Note_on_c, 9, 38, 110
2, 6598, Note_off_c, 9, 38, 0
2, 6599, Note_on_c, 9, 37, 110
2, 6599, Note_on_c, 9, 38, 110
2, 6628, Note_off_c, 9, 37, 0
2, 6628, Note_off_c, 9, 38, 0
2, 6629, Note_on_c, 9, 38, 110
2, 6658, Note_off_c, 9, 38, 0
2, 6659, Note_on_c, 9, 38, 110
2, 6688, Note_off_c, 9, 38, 0
2, 6689, Note_on_c, 9, 38, 110
2, 6718, Note_off_c, 9, 38, 0
2, 6719, Note_on_c, 9, 49, 110
2, 6808, Note_off_c, 9, 49, 0
2, 6809, Note_on_c, 9, 49, 110
2, 6898, Note_off_c, 9, 49, 0
2, 6899, Note_on_c, 9, 49, 110
2, 6958, Note_off_c, 9, 49, 0
2, 6959, Note_on_c, 9, 37, 110
2, 6959, Note_on_c, 9, 38, 110
2, 7018, Note_off_c, 9, 37, 0
2, 7018, Note_off_c, 9, 38, 0
2, 7019, Note_on_c, 9, 38, 110
2, 7078, Note_off_c, 9, 38, 0
2, 7079, Note_on_c, 9, 37, 110
2, 7079, Note_on_c, 9, 38, 110
2, 7138, Note_off_c, 9, 37, 0
2, 7138, Note_off_c, 9, 38, 0
2, 7139, Note_on_c, 9, 38, 110
2, 7198, Note_off_c, 9, 38, 0
2, 7199, Note_on_c, 9, 49, 110
2, 7288, Note_off_c, 9, 49, 0
2, 7289, Note_on_c, 9, 49, 110
2, 7378, Note_off_c, 9, 49, 0
2, 7379, Note_on_c, 9, 49, 110
2, 7438, Note_off_c, 9, 49, 0
2, 7439, Note_on_c, 9, 37, 110
2, 7439, Note_on_c, 9, 38, 110
2, 7468, Note_off_c, 9, 37, 0
2, 7468, Note_off_c, 9, 38, 0
2, 7469, Note_on_c, 9, 38, 110
2, 7498, Note_off_c, 9, 38, 0
2, 7499, Note_on_c, 9, 38, 110
2, 7528, Note_off_c, 9, 38, 0
2, 7529, Note_on_c, 9, 38, 110
2, 7558, Note_off_c, 9, 38, 0
2, 7559, Note_on_c, 9, 37, 110
2, 7559, Note_on_c, 9, 38, 110
2, 7588, Note_off_c, 9, 37, 0
2, 7588, Note_off_c, 9, 38, 0
2, 7589, Note_on_c, 9, 38, 110
2, 7618, Note_off_c, 9, 38, 0
2, 7619, Note_on_c, 9, 38, 110
2, 7648, Note_off_c, 9, 38, 0
2, 7649, Note_on_c, 9, 38, 110
2, 7678, Note_off_c, 9, 38, 0
2, 7679, Note_on_c, 9, 49, 110
2, 7768, Note_off_c, 9, 49, 0
2, 7769, Note_on_c, 9, 49, 110
2, 7858, Note_off_c, 9, 49, 0
2, 7859, Note_on_c, 9, 49, 110
2, 7918, Note_off_c, 9, 49, 0
2, 7919, Note_on_c, 9, 37, 110
2, 7919, Note_on_c, 9, 38, 110
2, 7978, Note_off_c, 9, 37, 0
2, 7978, Note_off_c, 9, 38, 0
2, 7979, Note_on_c, 9, 38, 110
2, 8038, Note_off_c, 9, 38, 0
2, 8039, Note_on_c, 9, 37, 110
2, 8039, Note_on_c, 9, 38, 110
2, 8098, Note_off_c, 9, 37, 0
2, 8098, Note_off_c, 9, 38, 0
2, 8099, Note_on_c, 9, 38, 110
2, 8158, Note_off_c, 9, 38, 0
2, 8159, Note_on_c, 9, 49, 110
2, 8248, Note_off_c, 9, 49, 0
2, 8249, Note_on_c, 9, 49, 110
2, 8338, Note_off_c, 9, 49, 0
2, 8339, Note_on_c, 9, 49, 110
2, 8398, Note_off_c, 9, 49, 0
2, 8399, Note_on_c, 9, 37, 110
2, 8399, Note_on_c, 9, 38, 110
2, 8428, Note_off_c, 9, 37, 0
2, 8428, Note_off_c, 9, 38, 0
2, 8429, Note_on_c, 9, 38, 110
2, 8458, Note_off_c, 9, 38, 0
2, 8459, Note_on_c, 9, 38, 110
2, 8488, Note_off_c, 9, 38, 0
2, 8489, Note_on_c, 9, 38, 110
2, 8518, Note_off_c, 9, 38, 0
2, 8519, Note_on_c, 9, 37, 110
2, 8519, Note_on_c, 9, 38, 110
2, 8548, Note_off_c, 9, 37, 0
2, 8548, Note_off_c, 9, 38, 0
2, 8549, Note_on_c, 9, 38, 110
2, 8578, Note_off_c, 9, 38, 0
2, 8579, Note_on_c, 9, 38, 110
2, 8608, Note_off_c, 9, 38, 0
2, 8609, Note_on_c, 9, 38, 110
2, 8638, Note_off_c, 9, 38, 0
2, 8639, Note_on_c, 9, 49, 110
2, 8728, Note_off_c, 9, 49, 0
2, 8729, Note_on_c, 9, 49, 110
2, 8818, Note_off_c, 9, 49, 0
2, 8819, Note_on_c, 9, 49, 110
2, 8878, Note_off_c, 9, 49, 0
2, 8879, Note_on_c, 9, 37, 110
2, 8879, Note_on_c, 9, 38, 110
2, 8938, Note_off_c, 9, 37, 0
2, 8938, Note_off_c, 9, 38, 0
2, 8939, Note_on_c, 9, 38, 110
2, 8998, Note_off_c, 9, 38, 0
2, 8999, Note_on_c, 9, 37, 110
2, 8999, Note_on_c, 9, 38, 110
2, 9058, Note_off_c, 9, 37, 0
2, 9058, Note_off_c, 9, 38, 0
2, 9059, Note_on_c, 9, 38, 110
2, 9118, Note_off_c, 9, 38, 0
2, 9119, Note_on_c, 9, 49, 110
2, 9208, Note_off_c, 9, 49, 0
2, 9209, Note_on_c, 9, 49, 110
2, 9298, Note_off_c, 9, 49, 0
2, 9299, Note_on_c, 9, 49, 110
2, 9358, Note_off_c, 9, 49, 0
2, 9359, Note_on_c, 9, 37, 110
2, 9359, Note_on_c, 9, 38, 110
2, 9388, Note_off_c, 9, 37, 0
2, 9388, Note_off_c, 9, 38, 0
2, 9389, Note_on_c, 9, 38, 110
2, 9418, Note_off_c, 9, 38, 0
2, 9419, Note_on_c, 9, 38, 110
2, 9448, Note_off_c, 9, 38, 0
2, 9449, Note_on_c, 9, 38, 110
2, 9478, Note_off_c, 9, 38, 0
2, 9479, Note_on_c, 9, 37, 110
2, 9479, Note_on_c, 9, 38, 110
2, 9508, Note_off_c, 9, 37, 0
2, 9508, Note_off_c, 9, 38, 0
2, 9509, Note_on_c, 9, 38, 110
2, 9538, Note_off_c, 9, 38, 0
2, 9539, Note_on_c, 9, 38, 110
2, 9568, Note_off_c, 9, 38, 0
2, 9569, Note_on_c, 9, 38, 110
2, 9598, Note_off_c, 9, 38, 0
2, 17279, Note_on_c, 9, 36, 110
2, 17338, Note_off_c, 9, 36, 0
2, 17339, Note_on_c, 9, 38, 110
2, 17398, Note_off_c, 9, 38, 0
2, 17399, Note_on_c, 9, 36, 110
2, 17458, Note_off_c, 9, 36, 0
2, 17459, Note_on_c, 9, 38, 110
2, 17518, Note_off_c, 9, 38, 0
2, 17519, Note_on_c, 9, 36, 110
2, 17578, Note_off_c, 9, 36, 0
2, 17579, Note_on_c, 9, 38, 110
2, 17638, Note_off_c, 9, 38, 0
2, 17639, Note_on_c, 9, 36, 110
2, 17698, Note_off_c, 9, 36, 0
2, 17699, Note_on_c, 9, 38, 110
2, 17758, Note_off_c, 9, 38, 0
2, 17759, Note_on_c, 9, 36, 110
2, 17818, Note_off_c, 9, 36, 0
2, 17819, Note_on_c, 9, 38, 110
2, 17878, Note_off_c, 9, 38, 0
2, 17879, Note_on_c, 9, 36, 110
2, 17938, Note_off_c, 9, 36, 0
2, 17939, Note_on_c, 9, 38, 110
2, 17998, Note_off_c, 9, 38, 0
2, 17999, Note_on_c, 9, 36, 110
2, 18058, Note_off_c, 9, 36, 0
2, 18059, Note_on_c, 9, 38, 110
2, 18118, Note_off_c, 9, 38, 0
2, 18119, Note_on_c, 9, 36, 110
2, 18178, Note_off_c, 9, 36, 0
2, 18179, Note_on_c, 9, 38, 110
2, 18238, Note_off_c, 9, 38, 0
2, 18239, Note_on_c, 9, 36, 110
2, 18298, Note_off_c, 9, 36, 0
2, 18299, Note_on_c, 9, 38, 110
2, 18358, Note_off_c, 9, 38, 0
2, 18359, Note_on_c, 9, 36, 110
2, 18418, Note_off_c, 9, 36, 0
2, 18419, Note_on_c, 9, 38, 110
2, 18478, Note_off_c, 9, 38, 0
2, 18479, Note_on_c, 9, 36, 110
2, 18538, Note_off_c, 9, 36, 0
2, 18539, Note_on_c, 9, 38, 110
2, 18598, Note_off_c, 9, 38, 0
2, 18599, Note_on_c, 9, 36, 110
2, 18658, Note_off_c, 9, 36, 0
2, 18659, Note_on_c, 9, 38, 110
2, 18718, Note_off_c, 9, 38, 0
2, 18719, Note_on_c, 9, 36, 110
2, 18778, Note_off_c, 9, 36, 0
2, 18779, Note_on_c, 9, 38, 110
2, 18838, Note_off_c, 9, 38, 0
2, 18839, Note_on_c, 9, 36, 110
2, 18898, Note_off_c, 9, 36, 0
2, 18899, Note_on_c, 9, 38, 110
2, 18958, Note_off_c, 9, 38, 0
2, 18959, Note_on_c, 9, 36, 110
2, 19018, Note_off_c, 9, 36, 0
2, 19019, Note_on_c, 9, 38, 110
2, 19078, Note_off_c, 9, 38, 0
2, 19079, Note_on_c, 9, 36, 110
2, 19079, Note_on_c, 9, 38, 110
2, 19108, Note_off_c, 9, 36, 0
2, 19108, Note_off_c, 9, 38, 0
2, 19109, Note_on_c, 9, 38, 110
2, 19138, Note_off_c, 9, 38, 0
2, 19139, Note_on_c, 9, 38, 110
2, 19198, Note_off_c, 9, 38, 0
2, 19199, Note_on_c, 9, 36, 110
2, 19258, Note_off_c, 9, 36, 0
2, 19259, Note_on_c, 9, 38, 110
2, 19318, Note_off_c, 9, 38, 0
2, 19319, Note_on_c, 9, 36, 110
2, 19378, Note_off_c, 9, 36, 0
2, 19379, Note_on_c, 9, 38, 110
2, 19438, Note_off_c, 9, 38, 0
2, 19439, Note_on_c, 9, 36, 110
2, 19498, Note_off_c, 9, 36, 0
2, 19499, Note_on_c, 9, 38, 110
2, 19558, Note_off_c, 9, 38, 0
2, 19559, Note_on_c, 9, 36, 110
2, 19618, Note_off_c, 9, 36, 0
2, 19619, Note_on_c, 9, 38, 110
2, 19678, Note_off_c, 9, 38, 0
2, 19679, Note_on_c, 9, 36, 110
2, 19738, Note_off_c, 9, 36, 0
2, 19739, Note_on_c, 9, 38, 110
2, 19798, Note_off_c, 9, 38, 0
2, 19799, Note_on_c, 9, 36, 110
2, 19858, Note_off_c, 9, 36, 0
2, 19859, Note_on_c, 9, 38, 110
2, 19918, Note_off_c, 9, 38, 0
2, 19919, Note_on_c, 9, 36, 110
2, 19978, Note_off_c, 9, 36, 0
2, 19979, Note_on_c, 9, 38, 110
2, 20038, Note_off_c, 9, 38, 0
2, 20039, Note_on_c, 9, 36, 110
2, 20098, Note_off_c, 9, 36, 0
2, 20099, Note_on_c, 9, 38, 110
2, 20158, Note_off_c, 9, 38, 0
2, 20159, Note_on_c, 9, 36, 110
2, 20218, Note_off_c, 9, 36, 0
2, 20219, Note_on_c, 9, 38, 110
2, 20278, Note_off_c, 9, 38, 0
2, 20279, Note_on_c, 9, 36, 110
2, 20338, Note_off_c, 9, 36, 0
2, 20339, Note_on_c, 9, 38, 110
2, 20398, Note_off_c, 9, 38, 0
2, 20399, Note_on_c, 9, 36, 110
2, 20458, Note_off_c, 9, 36, 0
2, 20459, Note_on_c, 9, 38, 110
2, 20518, Note_off_c, 9, 38, 0
2, 20519, Note_on_c, 9, 36, 110
2, 20578, Note_off_c, 9, 36, 0
2, 20579, Note_on_c, 9, 38, 110
2, 20638, Note_off_c, 9, 38, 0
2, 20639, Note_on_c, 9, 36, 110
2, 20698, Note_off_c, 9, 36, 0
2, 20699, Note_on_c, 9, 38, 110
2, 20758, Note_off_c, 9, 38, 0
2, 20759, Note_on_c, 9, 36, 110
2, 20818, Note_off_c, 9, 36, 0
2, 20819, Note_on_c, 9, 38, 110
2, 20878, Note_off_c, 9, 38, 0
2, 20879, Note_on_c, 9, 36, 110
2, 20938, Note_off_c, 9, 36, 0
2, 20939, Note_on_c, 9, 38, 110
2, 20998, Note_off_c, 9, 38, 0
2, 20999, Note_on_c, 9, 36, 110
2, 20999, Note_on_c, 9, 38, 110
2, 21028, Note_off_c, 9, 36, 0
2, 21028, Note_off_c, 9, 38, 0
2, 21029, Note_on_c, 9, 38, 110
2, 21058, Note_off_c, 9, 38, 0
2, 21059, Note_on_c, 9, 38, 110
2, 21118, Note_off_c, 9, 38, 0
2, 21119, Note_on_c, 9, 36, 110
2, 21178, Note_off_c, 9, 36, 0
2, 21179, Note_on_c, 9, 38, 110
2, 21238, Note_off_c, 9, 38, 0
2, 21239, Note_on_c, 9, 36, 110
2, 21298, Note_off_c, 9, 36, 0
2, 21299, Note_on_c, 9, 38, 110
2, 21358, Note_off_c, 9, 38, 0
2, 21359, Note_on_c, 9, 36, 110
2, 21418, Note_off_c, 9, 36, 0
2, 21419, Note_on_c, 9, 38, 110
2, 21478, Note_off_c, 9, 38, 0
2, 21479, Note_on_c, 9, 36, 110
2, 21538, Note_off_c, 9, 36, 0
2, 21539, Note_on_c, 9, 38, 110
2, 21598, Note_off_c, 9, 38, 0
2, 21599, Note_on_c, 9, 36, 110
2, 21658, Note_off_c, 9, 36, 0
2, 21659, Note_on_c, 9, 38, 110
2, 21718, Note_off_c, 9, 38, 0
2, 21719, Note_on_c, 9, 36, 110
2, 21778, Note_off_c, 9, 36, 0
2, 21779, Note_on_c, 9, 38, 110
2, 21838, Note_off_c, 9, 38, 0
2, 21839, Note_on_c, 9, 36, 110
2, 21898, Note_off_c, 9, 36, 0
2, 21899, Note_on_c, 9, 38, 110
2, 21958, Note_off_c, 9, 38, 0
2, 21959, Note_on_c, 9, 36, 110
2, 22018, Note_off_c, 9, 36, 0
2, 22019, Note_on_c, 9, 38, 110
2, 22078, Note_off_c, 9, 38, 0
2, 22079, Note_on_c, 9, 36, 110
2, 22138, Note_off_c, 9, 36, 0
2, 22139, Note_on_c, 9, 38, 110
2, 22198, Note_off_c, 9, 38, 0
2, 22199, Note_on_c, 9, 36, 110
2, 22258, Note_off_c, 9, 36, 0
2, 22259, Note_on_c, 9, 38, 110
2, 22318, Note_off_c, 9, 38, 0
2, 22319, Note_on_c, 9, 36, 110
2, 22378, Note_off_c, 9, 36, 0
2, 22379, Note_on_c, 9, 38, 110
2, 22438, Note_off_c, 9, 38, 0
2, 22439, Note_on_c, 9, 36, 110
2, 22498, Note_off_c, 9, 36, 0
2, 22499, Note_on_c, 9, 38, 110
2, 22558, Note_off_c, 9, 38, 0
2, 22559, Note_on_c, 9, 36, 110
2, 22618, Note_off_c, 9, 36, 0
2, 22619, Note_on_c, 9, 38, 110
2, 22678, Note_off_c, 9, 38, 0
2, 22679, Note_on_c, 9, 36, 110
2, 22738, Note_off_c, 9, 36, 0
2, 22739, Note_on_c, 9, 38, 110
2, 22798, Note_off_c, 9, 38, 0
2, 22799, Note_on_c, 9, 36, 110
2, 22858, Note_off_c, 9, 36, 0
2, 22859, Note_on_c, 9, 38, 110
2, 22918, Note_off_c, 9, 38, 0
2, 22919, Note_on_c, 9, 36, 110
2, 22919, Note_on_c, 9, 38, 110
2, 22948, Note_off_c, 9, 36, 0
2, 22948, Note_off_c, 9, 38, 0
2, 22949, Note_on_c, 9, 38, 110
2, 22978, Note_off_c, 9, 38, 0
2, 22979, Note_on_c, 9, 38, 110
2, 23038, Note_off_c, 9, 38, 0
2, 23039, Note_on_c, 9, 36, 110
2, 23098, Note_off_c, 9, 36, 0
2, 23099, Note_on_c, 9, 38, 110
2, 23158, Note_off_c, 9, 38, 0
2, 23159, Note_on_c, 9, 36, 110
2, 23218, Note_off_c, 9, 36, 0
2, 23219, Note_on_c, 9, 38, 110
2, 23278, Note_off_c, 9, 38, 0
2, 23279, Note_on_c, 9, 36, 110
2, 23338, Note_off_c, 9, 36, 0
2, 23339, Note_on_c, 9, 38, 110
2, 23398, Note_off_c, 9, 38, 0
2, 23399, Note_on_c, 9, 36, 110
2, 23458, Note_off_c, 9, 36, 0
2, 23459, Note_on_c, 9, 38, 110
2, 23518, Note_off_c, 9, 38, 0
2, 23519, Note_on_c, 9, 36, 110
2, 23578, Note_off_c, 9, 36, 0
2, 23579, Note_on_c, 9, 38, 110
2, 23638, Note_off_c, 9, 38, 0
2, 23639, Note_on_c, 9, 36, 110
2, 23698, Note_off_c, 9, 36, 0
2, 23699, Note_on_c, 9, 38, 110
2, 23758, Note_off_c, 9, 38, 0
2, 23759, Note_on_c, 9, 36, 110
2, 23818, Note_off_c, 9, 36, 0
2, 23819, Note_on_c, 9, 38, 110
2, 23878, Note_off_c, 9, 38, 0
2, 23879, Note_on_c, 9, 36, 110
2, 23938, Note_off_c, 9, 36, 0
2, 23939, Note_on_c, 9, 38, 110
2, 23998, Note_off_c, 9, 38, 0
2, 23999, Note_on_c, 9, 36, 110
2, 24058, Note_off_c, 9, 36, 0
2, 24059, Note_on_c, 9, 38, 110
2, 24118, Note_off_c, 9, 38, 0
2, 24119, Note_on_c, 9, 36, 110
2, 24178, Note_off_c, 9, 36, 0
2, 24179, Note_on_c, 9, 38, 110
2, 24238, Note_off_c, 9, 38, 0
2, 24239, Note_on_c, 9, 36, 110
2, 24298, Note_off_c, 9, 36, 0
2, 24299, Note_on_c, 9, 38, 110
2, 24358, Note_off_c, 9, 38, 0
2, 24359, Note_on_c, 9, 36, 110
2, 24418, Note_off_c, 9, 36, 0
2, 24419, Note_on_c, 9, 38, 110
2, 24478, Note_off_c, 9, 38, 0
2, 24479, Note_on_c, 9, 36, 110
2, 24538, Note_off_c, 9, 36, 0
2, 24539, Note_on_c, 9, 38, 110
2, 24598, Note_off_c, 9, 38, 0
2, 24599, Note_on_c, 9, 36, 110
2, 24658, Note_off_c, 9, 36, 0
2, 24659, Note_on_c, 9, 38, 110
2, 24718, Note_off_c, 9, 38, 0
2, 24719, Note_on_c, 9, 36, 110
2, 24778, Note_off_c, 9, 36, 0
2, 24779, Note_on_c, 9, 38, 110
2, 24838, Note_off_c, 9, 38, 0
2, 24839, Note_on_c, 9, 36, 110
2, 24839, Note_on_c, 9, 38, 110
2, 24868, Note_off_c, 9, 36, 0
2, 24868, Note_off_c, 9, 38, 0
2, 24869, Note_on_c, 9, 38, 110
2, 24898, Note_off_c, 9, 38, 0
2, 24899, Note_on_c, 9, 38, 110
2, 24958, Note_off_c, 9, 38, 0
2, 24959, Note_on_c, 9, 36, 110
2, 25018, Note_off_c, 9, 36, 0
2, 25019, Note_on_c, 9, 38, 110
2, 25078, Note_off_c, 9, 38, 0
2, 25079, Note_on_c, 9, 36, 110
2, 25138, Note_off_c, 9, 36, 0
2, 25139, Note_on_c, 9, 38, 110
2, 25198, Note_off_c, 9, 38, 0
2, 25199, Note_on_c, 9, 36, 110
2, 25258, Note_off_c, 9, 36, 0
2, 25259, Note_on_c, 9, 38, 110
2, 25318, Note_off_c, 9, 38, 0
2, 25319, Note_on_c, 9, 36, 110
2, 25378, Note_off_c, 9, 36, 0
2, 25379, Note_on_c, 9, 38, 110
2, 25438, Note_off_c, 9, 38, 0
2, 25439, Note_on_c, 9, 36, 110
2, 25498, Note_off_c, 9, 36, 0
2, 25499, Note_on_c, 9, 38, 110
2, 25558, Note_off_c, 9, 38, 0
2, 25559, Note_on_c, 9, 36, 110
2, 25618, Note_off_c, 9, 36, 0
2, 25619, Note_on_c, 9, 38, 110
2, 25678, Note_off_c, 9, 38, 0
2, 25679, Note_on_c, 9, 36, 110
2, 25738, Note_off_c, 9, 36, 0
2, 25739, Note_on_c, 9, 38, 110
2, 25798, Note_off_c, 9, 38, 0
2, 25799, Note_on_c, 9, 36, 110
2, 25858, Note_off_c, 9, 36, 0
2, 25859, Note_on_c, 9, 38, 110
2, 25918, Note_off_c, 9, 38, 0
2, 25919, Note_on_c, 9, 36, 110
2, 25978, Note_off_c, 9, 36, 0
2, 25979, Note_on_c, 9, 38, 110
2, 26038, Note_off_c, 9, 38, 0
2, 26039, Note_on_c, 9, 36, 110
2, 26098, Note_off_c, 9, 36, 0
2, 26099, Note_on_c, 9, 38, 110
2, 26158, Note_off_c, 9, 38, 0
2, 26159, Note_on_c, 9, 36, 110
2, 26218, Note_off_c, 9, 36, 0
2, 26219, Note_on_c, 9, 38, 110
2, 26278, Note_off_c, 9, 38, 0
2, 26279, Note_on_c, 9, 36, 110
2, 26338, Note_off_c, 9, 36, 0
2, 26339, Note_on_c, 9, 38, 110
2, 26398, Note_off_c, 9, 38, 0
2, 26399, Note_on_c, 9, 36, 110
2, 26458, Note_off_c, 9, 36, 0
2, 26459, Note_on_c, 9, 38, 110
2, 26518, Note_off_c, 9, 38, 0
2, 26519, Note_on_c, 9, 36, 110
2, 26578, Note_off_c, 9, 36, 0
2, 26579, Note_on_c, 9, 38, 110
2, 26638, Note_off_c, 9, 38, 0
2, 26639, Note_on_c, 9, 36, 110
2, 26698, Note_off_c, 9, 36, 0
2, 26699, Note_on_c, 9, 38, 110
2, 26758, Note_off_c, 9, 38, 0
2, 26759, Note_on_c, 9, 38, 110
2, 26759, Note_on_c, 9, 36, 110
2, 26788, Note_off_c, 9, 38, 0
2, 26788, Note_off_c, 9, 36, 0
2, 26789, Note_on_c, 9, 38, 110
2, 26818, Note_off_c, 9, 38, 0
2, 26819, Note_on_c, 9, 38, 110
2, 26878, Note_off_c, 9, 38, 0
2, 26879, Note_on_c, 9, 36, 110
2, 26938, Note_off_c, 9, 36, 0
2, 26939, Note_on_c, 9, 38, 110
2, 26998, Note_off_c, 9, 38, 0
2, 26999, Note_on_c, 9, 36, 110
2, 27058, Note_off_c, 9, 36, 0
2, 27059, Note_on_c, 9, 38, 110
2, 27118, Note_off_c, 9, 38, 0
2, 27119, Note_on_c, 9, 36, 110
2, 27178, Note_off_c, 9, 36, 0
2, 27179, Note_on_c, 9, 38, 110
2, 27238, Note_off_c, 9, 38, 0
2, 27239, Note_on_c, 9, 36, 110
2, 27298, Note_off_c, 9, 36, 0
2, 27299, Note_on_c, 9, 38, 110
2, 27358, Note_off_c, 9, 38, 0
2, 27359, Note_on_c, 9, 36, 110
2, 27418, Note_off_c, 9, 36, 0
2, 27419, Note_on_c, 9, 38, 110
2, 27478, Note_off_c, 9, 38, 0
2, 27479, Note_on_c, 9, 36, 110
2, 27538, Note_off_c, 9, 36, 0
2, 27539, Note_on_c, 9, 38, 110
2, 27598, Note_off_c, 9, 38, 0
2, 27599, Note_on_c, 9, 36, 110
2, 27658, Note_off_c, 9, 36, 0
2, 27659, Note_on_c, 9, 38, 110
2, 27718, Note_off_c, 9, 38, 0
2, 27719, Note_on_c, 9, 36, 110
2, 27778, Note_off_c, 9, 36, 0
2, 27779, Note_on_c, 9, 38, 110
2, 27838, Note_off_c, 9, 38, 0
2, 27839, Note_on_c, 9, 36, 110
2, 27898, Note_off_c, 9, 36, 0
2, 27899, Note_on_c, 9, 38, 110
2, 27958, Note_off_c, 9, 38, 0
2, 27959, Note_on_c, 9, 36, 110
2, 28018, Note_off_c, 9, 36, 0
2, 28019, Note_on_c, 9, 38, 110
2, 28078, Note_off_c, 9, 38, 0
2, 28079, Note_on_c, 9, 36, 110
2, 28138, Note_off_c, 9, 36, 0
2, 28139, Note_on_c, 9, 38, 110
2, 28198, Note_off_c, 9, 38, 0
2, 28199, Note_on_c, 9, 36, 110
2, 28258, Note_off_c, 9, 36, 0
2, 28259, Note_on_c, 9, 38, 110
2, 28318, Note_off_c, 9, 38, 0
2, 28319, Note_on_c, 9, 36, 110
2, 28378, Note_off_c, 9, 36, 0
2, 28379, Note_on_c, 9, 38, 110
2, 28438, Note_off_c, 9, 38, 0
2, 28439, Note_on_c, 9, 36, 110
2, 28498, Note_off_c, 9, 36, 0
2, 28499, Note_on_c, 9, 38, 110
2, 28558, Note_off_c, 9, 38, 0
2, 28559, Note_on_c, 9, 36, 110
2, 28618, Note_off_c, 9, 36, 0
2, 28619, Note_on_c, 9, 38, 110
2, 28678, Note_off_c, 9, 38, 0
2, 28679, Note_on_c, 9, 36, 110
2, 28679, Note_on_c, 9, 38, 110
2, 28708, Note_off_c, 9, 36, 0
2, 28708, Note_off_c, 9, 38, 0
2, 28709, Note_on_c, 9, 38, 110
2, 28738, Note_off_c, 9, 38, 0
2, 28739, Note_on_c, 9, 38, 110
2, 28798, Note_off_c, 9, 38, 0
2, 28799, Note_on_c, 9, 36, 110
2, 28899, Note_off_c, 9, 36, 0
2, 28919, Note_on_c, 9, 38, 110
2, 29019, Note_off_c, 9, 38, 0
2, 29039, Note_on_c, 9, 36, 110
2, 29098, Note_off_c, 9, 36, 0
2, 29099, Note_on_c, 9, 38, 110
2, 29158, Note_off_c, 9, 38, 0
2, 29159, Note_on_c, 9, 36, 110
2, 29218, Note_off_c, 9, 36, 0
2, 29219, Note_on_c, 9, 38, 110
2, 29278, Note_off_c, 9, 38, 0
2, 29279, Note_on_c, 9, 36, 110
2, 29379, Note_off_c, 9, 36, 0
2, 29399, Note_on_c, 9, 38, 110
2, 29499, Note_off_c, 9, 38, 0
2, 29519, Note_on_c, 9, 36, 110
2, 29578, Note_off_c, 9, 36, 0
2, 29579, Note_on_c, 9, 38, 110
2, 29638, Note_off_c, 9, 38, 0
2, 29639, Note_on_c, 9, 36, 110
2, 29698, Note_off_c, 9, 36, 0
2, 29699, Note_on_c, 9, 38, 110
2, 29758, Note_off_c, 9, 38, 0
2, 29759, Note_on_c, 9, 36, 110
2, 29859, Note_off_c, 9, 36, 0
2, 29879, Note_on_c, 9, 38, 110
2, 29979, Note_off_c, 9, 38, 0
2, 29999, Note_on_c, 9, 36, 110
2, 30058, Note_off_c, 9, 36, 0
2, 30059, Note_on_c, 9, 38, 110
2, 30118, Note_off_c, 9, 38, 0
2, 30119, Note_on_c, 9, 36, 110
2, 30178, Note_off_c, 9, 36, 0
2, 30179, Note_on_c, 9, 38, 110
2, 30238, Note_off_c, 9, 38, 0
2, 30239, Note_on_c, 9, 36, 110
2, 30339, Note_off_c, 9, 36, 0
2, 30359, Note_on_c, 9, 38, 110
2, 30459, Note_off_c, 9, 38, 0
2, 30479, Note_on_c, 9, 36, 110
2, 30538, Note_off_c, 9, 36, 0
2, 30539, Note_on_c, 9, 38, 110
2, 30598, Note_off_c, 9, 38, 0
2, 30599, Note_on_c, 9, 36, 110
2, 30599, Note_on_c, 9, 38, 110
2, 30628, Note_off_c, 9, 36, 0
2, 30628, Note_off_c, 9, 38, 0
2, 30629, Note_on_c, 9, 38, 110
2, 30658, Note_off_c, 9, 38, 0
2, 30659, Note_on_c, 9, 38, 110
2, 30718, Note_off_c, 9, 38, 0
2, 30719, Note_on_c, 9, 36, 110
2, 30819, Note_off_c, 9, 36, 0
2, 30839, Note_on_c, 9, 38, 110
2, 30939, Note_off_c, 9, 38, 0
2, 30959, Note_on_c, 9, 36, 110
2, 31018, Note_off_c, 9, 36, 0
2, 31019, Note_on_c, 9, 38, 110
2, 31078, Note_off_c, 9, 38, 0
2, 31079, Note_on_c, 9, 36, 110
2, 31138, Note_off_c, 9, 36, 0
2, 31139, Note_on_c, 9, 38, 110
2, 31198, Note_off_c, 9, 38, 0
2, 31199, Note_on_c, 9, 36, 110
2, 31299, Note_off_c, 9, 36, 0
2, 31319, Note_on_c, 9, 38, 110
2, 31419, Note_off_c, 9, 38, 0
2, 31439, Note_on_c, 9, 36, 110
2, 31498, Note_off_c, 9, 36, 0
2, 31499, Note_on_c, 9, 38, 110
2, 31558, Note_off_c, 9, 38, 0
2, 31559, Note_on_c, 9, 36, 110
2, 31618, Note_off_c, 9, 36, 0
2, 31619, Note_on_c, 9, 38, 110
2, 31678, Note_off_c, 9, 38, 0
2, 31679, Note_on_c, 9, 36, 110
2, 31779, Note_off_c, 9, 36, 0
2, 31799, Note_on_c, 9, 38, 110
2, 31899, Note_off_c, 9, 38, 0
2, 31919, Note_on_c, 9, 36, 110
2, 31978, Note_off_c, 9, 36, 0
2, 31979, Note_on_c, 9, 38, 110
2, 32038, Note_off_c, 9, 38, 0
2, 32039, Note_on_c, 9, 36, 110
2, 32098, Note_off_c, 9, 36, 0
2, 32099, Note_on_c, 9, 38, 110
2, 32158, Note_off_c, 9, 38, 0
2, 32159, Note_on_c, 9, 36, 110
2, 32259, Note_off_c, 9, 36, 0
2, 32279, Note_on_c, 9, 38, 110
2, 32379, Note_off_c, 9, 38, 0
2, 32399, Note_on_c, 9, 36, 110
2, 32458, Note_off_c, 9, 36, 0
2, 32459, Note_on_c, 9, 38, 110
2, 32518, Note_off_c, 9, 38, 0
2, 32519, Note_on_c, 9, 36, 110
2, 32519, Note_on_c, 9, 38, 110
2, 32548, Note_off_c, 9, 36, 0
2, 32548, Note_off_c, 9, 38, 0
2, 32549, Note_on_c, 9, 38, 110
2, 32578, Note_off_c, 9, 38, 0
2, 32579, Note_on_c, 9, 38, 110
2, 32638, Note_off_c, 9, 38, 0
2, 32639, Note_on_c, 9, 36, 110
2, 32698, Note_off_c, 9, 36, 0
2, 32699, Note_on_c, 9, 38, 110
2, 32758, Note_off_c, 9, 38, 0
2, 32759, Note_on_c, 9, 36, 110
2, 32818, Note_off_c, 9, 36, 0
2, 32819, Note_on_c, 9, 38, 110
2, 32878, Note_off_c, 9, 38, 0
2, 32879, Note_on_c, 9, 36, 110
2, 32938, Note_off_c, 9, 36, 0
2, 32939, Note_on_c, 9, 38, 110
2, 32998, Note_off_c, 9, 38, 0
2, 32999, Note_on_c, 9, 36, 110
2, 33058, Note_off_c, 9, 36, 0
2, 33059, Note_on_c, 9, 38, 110
2, 33118, Note_off_c, 9, 38, 0
2, 33119, Note_on_c, 9, 36, 110
2, 33178, Note_off_c, 9, 36, 0
2, 33179, Note_on_c, 9, 38, 110
2, 33238, Note_off_c, 9, 38, 0
2, 33239, Note_on_c, 9, 36, 110
2, 33298, Note_off_c, 9, 36, 0
2, 33299, Note_on_c, 9, 38, 110
2, 33358, Note_off_c, 9, 38, 0
2, 33359, Note_on_c, 9, 36, 110
2, 33418, Note_off_c, 9, 36, 0
2, 33419, Note_on_c, 9, 38, 110
2, 33478, Note_off_c, 9, 38, 0
2, 33479, Note_on_c, 9, 36, 110
2, 33538, Note_off_c, 9, 36, 0
2, 33539, Note_on_c, 9, 38, 110
2, 33598, Note_off_c, 9, 38, 0
2, 33599, Note_on_c, 9, 36, 110
2, 33658, Note_off_c, 9, 36, 0
2, 33659, Note_on_c, 9, 38, 110
2, 33718, Note_off_c, 9, 38, 0
2, 33719, Note_on_c, 9, 36, 110
2, 33778, Note_off_c, 9, 36, 0
2, 33779, Note_on_c, 9, 38, 110
2, 33838, Note_off_c, 9, 38, 0
2, 33839, Note_on_c, 9, 36, 110
2, 33898, Note_off_c, 9, 36, 0
2, 33899, Note_on_c, 9, 38, 110
2, 33958, Note_off_c, 9, 38, 0
2, 33959, Note_on_c, 9, 36, 110
2, 34018, Note_off_c, 9, 36, 0
2, 34019, Note_on_c, 9, 38, 110
2, 34078, Note_off_c, 9, 38, 0
2, 34079, Note_on_c, 9, 36, 110
2, 34138, Note_off_c, 9, 36, 0
2, 34139, Note_on_c, 9, 38, 110
2, 34198, Note_off_c, 9, 38, 0
2, 34199, Note_on_c, 9, 36, 110
2, 34258, Note_off_c, 9, 36, 0
2, 34259, Note_on_c, 9, 38, 110
2, 34318, Note_off_c, 9, 38, 0
2, 34319, Note_on_c, 9, 36, 110
2, 34378, Note_off_c, 9, 36, 0
2, 34379, Note_on_c, 9, 38, 110
2, 34438, Note_off_c, 9, 38, 0
2, 34439, Note_on_c, 9, 36, 110
2, 34439, Note_on_c, 9, 38, 110
2, 34468, Note_off_c, 9, 36, 0
2, 34468, Note_off_c, 9, 38, 0
2, 34469, Note_on_c, 9, 38, 110
2, 34498, Note_off_c, 9, 38, 0
2, 34499, Note_on_c, 9, 38, 110
2, 34558, Note_off_c, 9, 38, 0
2, 34559, Note_on_c, 9, 36, 110
2, 34618, Note_off_c, 9, 36, 0
2, 34619, Note_on_c, 9, 38, 110
2, 34678, Note_off_c, 9, 38, 0
2, 34679, Note_on_c, 9, 36, 110
2, 34738, Note_off_c, 9, 36, 0
2, 34739, Note_on_c, 9, 38, 110
2, 34798, Note_off_c, 9, 38, 0
2, 34799, Note_on_c, 9, 36, 110
2, 34858, Note_off_c, 9, 36, 0
2, 34859, Note_on_c, 9, 38, 110
2, 34918, Note_off_c, 9, 38, 0
2, 34919, Note_on_c, 9, 36, 110
2, 34978, Note_off_c, 9, 36, 0
2, 34979, Note_on_c, 9, 38, 110
2, 35038, Note_off_c, 9, 38, 0
2, 35039, Note_on_c, 9, 36, 110
2, 35098, Note_off_c, 9, 36, 0
2, 35099, Note_on_c, 9, 38, 110
2, 35158, Note_off_c, 9, 38, 0
2, 35159, Note_on_c, 9, 36, 110
2, 35218, Note_off_c, 9, 36, 0
2, 35219, Note_on_c, 9, 38, 110
2, 35278, Note_off_c, 9, 38, 0
2, 35279, Note_on_c, 9, 36, 110
2, 35338, Note_off_c, 9, 36, 0
2, 35339, Note_on_c, 9, 38, 110
2, 35398, Note_off_c, 9, 38, 0
2, 35399, Note_on_c, 9, 36, 110
2, 35458, Note_off_c, 9, 36, 0
2, 35459, Note_on_c, 9, 38, 110
2, 35518, Note_off_c, 9, 38, 0
2, 35519, Note_on_c, 9, 36, 110
2, 35578, Note_off_c, 9, 36, 0
2, 35579, Note_on_c, 9, 38, 110
2, 35638, Note_off_c, 9, 38, 0
2, 35639, Note_on_c, 9, 36, 110
2, 35698, Note_off_c, 9, 36, 0
2, 35699, Note_on_c, 9, 38, 110
2, 35758, Note_off_c, 9, 38, 0
2, 35759, Note_on_c, 9, 36, 110
2, 35818, Note_off_c, 9, 36, 0
2, 35819, Note_on_c, 9, 38, 110
2, 35878, Note_off_c, 9, 38, 0
2, 35879, Note_on_c, 9, 36, 110
2, 35938, Note_off_c, 9, 36, 0
2, 35939, Note_on_c, 9, 38, 110
2, 35998, Note_off_c, 9, 38, 0
2, 35999, Note_on_c, 9, 36, 110
2, 36058, Note_off_c, 9, 36, 0
2, 36059, Note_on_c, 9, 38, 110
2, 36118, Note_off_c, 9, 38, 0
2, 36119, Note_on_c, 9, 36, 110
2, 36178, Note_off_c, 9, 36, 0
2, 36179, Note_on_c, 9, 38, 110
2, 36238, Note_off_c, 9, 38, 0
2, 36239, Note_on_c, 9, 36, 110
2, 36298, Note_off_c, 9, 36, 0
2, 36299, Note_on_c, 9, 38, 110
2, 36358, Note_off_c, 9, 38, 0
2, 36359, Note_on_c, 9, 36, 110
2, 36359, Note_on_c, 9, 38, 110
2, 36388, Note_off_c, 9, 36, 0
2, 36388, Note_off_c, 9, 38, 0
2, 36389, Note_on_c, 9, 38, 110
2, 36418, Note_off_c, 9, 38, 0
2, 36419, Note_on_c, 9, 38, 110
2, 36478, Note_off_c, 9, 38, 0
2, 36479, Note_on_c, 9, 36, 110
2, 36538, Note_off_c, 9, 36, 0
2, 36539, Note_on_c, 9, 38, 110
2, 36598, Note_off_c, 9, 38, 0
2, 36599, Note_on_c, 9, 36, 110
2, 36658, Note_off_c, 9, 36, 0
2, 36659, Note_on_c, 9, 38, 110
2, 36718, Note_off_c, 9, 38, 0
2, 36719, Note_on_c, 9, 36, 110
2, 36778, Note_off_c, 9, 36, 0
2, 36779, Note_on_c, 9, 38, 110
2, 36838, Note_off_c, 9, 38, 0
2, 36839, Note_on_c, 9, 36, 110
2, 36898, Note_off_c, 9, 36, 0
2, 36899, Note_on_c, 9, 38, 110
2, 36958, Note_off_c, 9, 38, 0
2, 36959, Note_on_c, 9, 36, 110
2, 37018, Note_off_c, 9, 36, 0
2, 37019, Note_on_c, 9, 38, 110
2, 37078, Note_off_c, 9, 38, 0
2, 37079, Note_on_c, 9, 36, 110
2, 37138, Note_off_c, 9, 36, 0
2, 37139, Note_on_c, 9, 38, 110
2, 37198, Note_off_c, 9, 38, 0
2, 37199, Note_on_c, 9, 36, 110
2, 37258, Note_off_c, 9, 36, 0
2, 37259, Note_on_c, 9, 38, 110
2, 37318, Note_off_c, 9, 38, 0
2, 37319, Note_on_c, 9, 36, 110
2, 37378, Note_off_c, 9, 36, 0
2, 37379, Note_on_c, 9, 38, 110
2, 37438, Note_off_c, 9, 38, 0
2, 37439, Note_on_c, 9, 36, 110
2, 37498, Note_off_c, 9, 36, 0
2, 37499, Note_on_c, 9, 38, 110
2, 37558, Note_off_c, 9, 38, 0
2, 37559, Note_on_c, 9, 36, 110
2, 37618, Note_off_c, 9, 36, 0
2, 37619, Note_on_c, 9, 38, 110
2, 37678, Note_off_c, 9, 38, 0
2, 37679, Note_on_c, 9, 36, 110
2, 37738, Note_off_c, 9, 36, 0
2, 37739, Note_on_c, 9, 38, 110
2, 37798, Note_off_c, 9, 38, 0
2, 37799, Note_on_c, 9, 36, 110
2, 37858, Note_off_c, 9, 36, 0
2, 37859, Note_on_c, 9, 38, 110
2, 37918, Note_off_c, 9, 38, 0
2, 37919, Note_on_c, 9, 36, 110
2, 37978, Note_off_c, 9, 36, 0
2, 37979, Note_on_c, 9, 38, 110
2, 38038, Note_off_c, 9, 38, 0
2, 38039, Note_on_c, 9, 36, 110
2, 38098, Note_off_c, 9, 36, 0
2, 38099, Note_on_c, 9, 38, 110
2, 38158, Note_off_c, 9, 38, 0
2, 38159, Note_on_c, 9, 36, 110
2, 38218, Note_off_c, 9, 36, 0
2, 38219, Note_on_c, 9, 38, 110
2, 38278, Note_off_c, 9, 38, 0
2, 38279, Note_on_c, 9, 36, 110
2, 38279, Note_on_c, 9, 38, 110
2, 38308, Note_off_c, 9, 36, 0
2, 38308, Note_off_c, 9, 38, 0
2, 38309, Note_on_c, 9, 38, 110
2, 38338, Note_off_c, 9, 38, 0
2, 38339, Note_on_c, 9, 38, 110
2, 38398, Note_off_c, 9, 38, 0
2, 38399, Note_on_c, 9, 36, 110
2, 38458, Note_off_c, 9, 36, 0
2, 38459, Note_on_c, 9, 38, 110
2, 38518, Note_off_c, 9, 38, 0
2, 38519, Note_on_c, 9, 36, 110
2, 38578, Note_off_c, 9, 36, 0
2, 38579, Note_on_c, 9, 38, 110
2, 38638, Note_off_c, 9, 38, 0
2, 38639, Note_on_c, 9, 36, 110
2, 38698, Note_off_c, 9, 36, 0
2, 38699, Note_on_c, 9, 38, 110
2, 38758, Note_off_c, 9, 38, 0
2, 38759, Note_on_c, 9, 36, 110
2, 38818, Note_off_c, 9, 36, 0
2, 38819, Note_on_c, 9, 38, 110
2, 38878, Note_off_c, 9, 38, 0
2, 38879, Note_on_c, 9, 36, 110
2, 38938, Note_off_c, 9, 36, 0
2, 38939, Note_on_c, 9, 38, 110
2, 38998, Note_off_c, 9, 38, 0
2, 38999, Note_on_c, 9, 36, 110
2, 39058, Note_off_c, 9, 36, 0
2, 39059, Note_on_c, 9, 38, 110
2, 39118, Note_off_c, 9, 38, 0
2, 39119, Note_on_c, 9, 36, 110
2, 39178, Note_off_c, 9, 36, 0
2, 39179, Note_on_c, 9, 38, 110
2, 39238, Note_off_c, 9, 38, 0
2, 39239, Note_on_c, 9, 36, 110
2, 39298, Note_off_c, 9, 36, 0
2, 39299, Note_on_c, 9, 38, 110
2, 39358, Note_off_c, 9, 38, 0
2, 39359, Note_on_c, 9, 36, 110
2, 39418, Note_off_c, 9, 36, 0
2, 39419, Note_on_c, 9, 38, 110
2, 39478, Note_off_c, 9, 38, 0
2, 39479, Note_on_c, 9, 36, 110
2, 39538, Note_off_c, 9, 36, 0
2, 39539, Note_on_c, 9, 38, 110
2, 39598, Note_off_c, 9, 38, 0
2, 39599, Note_on_c, 9, 36, 110
2, 39658, Note_off_c, 9, 36, 0
2, 39659, Note_on_c, 9, 38, 110
2, 39718, Note_off_c, 9, 38, 0
2, 39719, Note_on_c, 9, 36, 110
2, 39778, Note_off_c, 9, 36, 0
2, 39779, Note_on_c, 9, 38, 110
2, 39838, Note_off_c, 9, 38, 0
2, 39839, Note_on_c, 9, 36, 110
2, 39898, Note_off_c, 9, 36, 0
2, 39899, Note_on_c, 9, 38, 110
2, 39958, Note_off_c, 9, 38, 0
2, 39959, Note_on_c, 9, 36, 110
2, 40018, Note_off_c, 9, 36, 0
2, 40019, Note_on_c, 9, 38, 110
2, 40078, Note_off_c, 9, 38, 0
2, 40079, Note_on_c, 9, 36, 110
2, 40138, Note_off_c, 9, 36, 0
2, 40139, Note_on_c, 9, 38, 110
2, 40198, Note_off_c, 9, 38, 0
2, 40199, Note_on_c, 9, 36, 110
2, 40199, Note_on_c, 9, 38, 110
2, 40228, Note_off_c, 9, 36, 0
2, 40228, Note_off_c, 9, 38, 0
2, 40229, Note_on_c, 9, 38, 110
2, 40258, Note_off_c, 9, 38, 0
2, 40259, Note_on_c, 9, 38, 110
2, 40318, Note_off_c, 9, 38, 0
2, 40319, Note_on_c, 9, 36, 110
2, 40419, Note_off_c, 9, 36, 0
2, 40439, Note_on_c, 9, 38, 110
2, 40539, Note_off_c, 9, 38, 0
2, 40559, Note_on_c, 9, 36, 110
2, 40618, Note_off_c, 9, 36, 0
2, 40619, Note_on_c, 9, 38, 110
2, 40678, Note_off_c, 9, 38, 0
2, 40679, Note_on_c, 9, 36, 110
2, 40738, Note_off_c, 9, 36, 0
2, 40739, Note_on_c, 9, 38, 110
2, 40798, Note_off_c, 9, 38, 0
2, 40799, Note_on_c, 9, 36, 110
2, 40899, Note_off_c, 9, 36, 0
2, 40919, Note_on_c, 9, 38, 110
2, 41019, Note_off_c, 9, 38, 0
2, 41039, Note_on_c, 9, 36, 110
2, 41098, Note_off_c, 9, 36, 0
2, 41099, Note_on_c, 9, 38, 110
2, 41158, Note_off_c, 9, 38, 0
2, 41159, Note_on_c, 9, 36, 110
2, 41218, Note_off_c, 9, 36, 0
2, 41219, Note_on_c, 9, 38, 110
2, 41278, Note_off_c, 9, 38, 0
2, 41279, Note_on_c, 9, 36, 110
2, 41379, Note_off_c, 9, 36, 0
2, 41399, Note_on_c, 9, 38, 110
2, 41499, Note_off_c, 9, 38, 0
2, 41519, Note_on_c, 9, 36, 110
2, 41578, Note_off_c, 9, 36, 0
2, 41579, Note_on_c, 9, 38, 110
2, 41638, Note_off_c, 9, 38, 0
2, 41639, Note_on_c, 9, 36, 110
2, 41698, Note_off_c, 9, 36, 0
2, 41699, Note_on_c, 9, 38, 110
2, 41758, Note_off_c, 9, 38, 0
2, 41759, Note_on_c, 9, 36, 110
2, 41859, Note_off_c, 9, 36, 0
2, 41879, Note_on_c, 9, 38, 110
2, 41979, Note_off_c, 9, 38, 0
2, 41999, Note_on_c, 9, 36, 110
2, 42058, Note_off_c, 9, 36, 0
2, 42059, Note_on_c, 9, 38, 110
2, 42118, Note_off_c, 9, 38, 0
2, 42119, Note_on_c, 9, 36, 110
2, 42119, Note_on_c, 9, 38, 110
2, 42148, Note_off_c, 9, 36, 0
2, 42148, Note_off_c, 9, 38, 0
2, 42149, Note_on_c, 9, 38, 110
2, 42178, Note_off_c, 9, 38, 0
2, 42179, Note_on_c, 9, 38, 110
2, 42238, Note_off_c, 9, 38, 0
2, 42239, Note_on_c, 9, 36, 110
2, 42339, Note_off_c, 9, 36, 0
2, 42359, Note_on_c, 9, 38, 110
2, 42459, Note_off_c, 9, 38, 0
2, 42479, Note_on_c, 9, 36, 110
2, 42538, Note_off_c, 9, 36, 0
2, 42539, Note_on_c, 9, 38, 110
2, 42598, Note_off_c, 9, 38, 0
2, 42599, Note_on_c, 9, 36, 110
2, 42658, Note_off_c, 9, 36, 0
2, 42659, Note_on_c, 9, 38, 110
2, 42718, Note_off_c, 9, 38, 0
2, 42719, Note_on_c, 9, 36, 110
2, 42819, Note_off_c, 9, 36, 0
2, 42839, Note_on_c, 9, 38, 110
2, 42939, Note_off_c, 9, 38, 0
2, 42959, Note_on_c, 9, 36, 110
2, 43018, Note_off_c, 9, 36, 0
2, 43019, Note_on_c, 9, 38, 110
2, 43078, Note_off_c, 9, 38, 0
2, 43079, Note_on_c, 9, 36, 110
2, 43138, Note_off_c, 9, 36, 0
2, 43139, Note_on_c, 9, 38, 110
2, 43198, Note_off_c, 9, 38, 0
2, 43199, Note_on_c, 9, 36, 110
2, 43299, Note_off_c, 9, 36, 0
2, 43319, Note_on_c, 9, 38, 110
2, 43419, Note_off_c, 9, 38, 0
2, 43439, Note_on_c, 9, 36, 110
2, 43498, Note_off_c, 9, 36, 0
2, 43499, Note_on_c, 9, 38, 110
2, 43558, Note_off_c, 9, 38, 0
2, 43559, Note_on_c, 9, 36, 110
2, 43618, Note_off_c, 9, 36, 0
2, 43619, Note_on_c, 9, 38, 110
2, 43678, Note_off_c, 9, 38, 0
2, 43679, Note_on_c, 9, 36, 110
2, 43779, Note_off_c, 9, 36, 0
2, 43799, Note_on_c, 9, 38, 110
2, 43899, Note_off_c, 9, 38, 0
2, 43919, Note_on_c, 9, 36, 110
2, 43978, Note_off_c, 9, 36, 0
2, 43979, Note_on_c, 9, 38, 110
2, 44038, Note_off_c, 9, 38, 0
2, 44039, Note_on_c, 9, 36, 110
2, 44039, Note_on_c, 9, 38, 110
2, 44068, Note_off_c, 9, 36, 0
2, 44068, Note_off_c, 9, 38, 0
2, 44069, Note_on_c, 9, 38, 110
2, 44098, Note_off_c, 9, 38, 0
2, 44099, Note_on_c, 9, 38, 110
2, 44158, Note_off_c, 9, 38, 0
2, 44159, Note_on_c, 9, 36, 110
2, 44259, Note_off_c, 9, 36, 0
2, 44279, Note_on_c, 9, 38, 110
2, 44379, Note_off_c, 9, 38, 0
2, 44399, Note_on_c, 9, 36, 110
2, 44458, Note_off_c, 9, 36, 0
2, 44459, Note_on_c, 9, 38, 110
2, 44518, Note_off_c, 9, 38, 0
2, 44519, Note_on_c, 9, 36, 110
2, 44578, Note_off_c, 9, 36, 0
2, 44579, Note_on_c, 9, 38, 110
2, 44638, Note_off_c, 9, 38, 0
2, 44639, Note_on_c, 9, 36, 110
2, 44739, Note_off_c, 9, 36, 0
2, 44759, Note_on_c, 9, 38, 110
2, 44859, Note_off_c, 9, 38, 0
2, 44879, Note_on_c, 9, 36, 110
2, 44938, Note_off_c, 9, 36, 0
2, 44939, Note_on_c, 9, 38, 110
2, 44998, Note_off_c, 9, 38, 0
2, 44999, Note_on_c, 9, 36, 110
2, 45058, Note_off_c, 9, 36, 0
2, 45059, Note_on_c, 9, 38, 110
2, 45118, Note_off_c, 9, 38, 0
2, 45119, Note_on_c, 9, 36, 110
2, 45219, Note_off_c, 9, 36, 0
2, 45239, Note_on_c, 9, 38, 110
2, 45339, Note_off_c, 9, 38, 0
2, 45359, Note_on_c, 9, 36, 110
2, 45418, Note_off_c, 9, 36, 0
2, 45419, Note_on_c, 9, 38, 110
2, 45478, Note_off_c, 9, 38, 0
2, 45479, Note_on_c, 9, 36, 110
2, 45538, Note_off_c, 9, 36, 0
2, 45539, Note_on_c, 9, 38, 110
2, 45598, Note_off_c, 9, 38, 0
2, 45599, Note_on_c, 9, 36, 110
2, 45699, Note_off_c, 9, 36, 0
2, 45719, Note_on_c, 9, 38, 110
2, 45819, Note_off_c, 9, 38, 0
2, 45839, Note_on_c, 9, 36, 110
2, 45898, Note_off_c, 9, 36, 0
2, 45899, Note_on_c, 9, 38, 110
2, 45958, Note_off_c, 9, 38, 0
2, 45959, Note_on_c, 9, 36, 110
2, 45959, Note_on_c, 9, 38, 110
2, 45988, Note_off_c, 9, 36, 0
2, 45988, Note_off_c, 9, 38, 0
2, 45989, Note_on_c, 9, 38, 110
2, 46018, Note_off_c, 9, 38, 0
2, 46019, Note_on_c, 9, 38, 110
2, 46078, Note_off_c, 9, 38, 0
2, 46079, Note_on_c, 9, 36, 110
2, 46179, Note_off_c, 9, 36, 0
2, 46199, Note_on_c, 9, 38, 110
2, 46299, Note_off_c, 9, 38, 0
2, 46319, Note_on_c, 9, 36, 110
2, 46378, Note_off_c, 9, 36, 0
2, 46379, Note_on_c, 9, 38, 110
2, 46438, Note_off_c, 9, 38, 0
2, 46439, Note_on_c, 9, 36, 110
2, 46498, Note_off_c, 9, 36, 0
2, 46499, Note_on_c, 9, 38, 110
2, 46558, Note_off_c, 9, 38, 0
2, 46559, Note_on_c, 9, 36, 110
2, 46659, Note_off_c, 9, 36, 0
2, 46679, Note_on_c, 9, 38, 110
2, 46779, Note_off_c, 9, 38, 0
2, 46799, Note_on_c, 9, 36, 110
2, 46858, Note_off_c, 9, 36, 0
2, 46859, Note_on_c, 9, 38, 110
2, 46918, Note_off_c, 9, 38, 0
2, 46919, Note_on_c, 9, 36, 110
2, 46978, Note_off_c, 9, 36, 0
2, 46979, Note_on_c, 9, 38, 110
2, 47038, Note_off_c, 9, 38, 0
2, 47039, Note_on_c, 9, 36, 110
2, 47139, Note_off_c, 9, 36, 0
2, 47159, Note_on_c, 9, 38, 110
2, 47259, Note_off_c, 9, 38, 0
2, 47279, Note_on_c, 9, 36, 110
2, 47338, Note_off_c, 9, 36, 0
2, 47339, Note_on_c, 9, 38, 110
2, 47398, Note_off_c, 9, 38, 0
2, 47399, Note_on_c, 9, 36, 110
2, 47458, Note_off_c, 9, 36, 0
2, 47459, Note_on_c, 9, 38, 110
2, 47518, Note_off_c, 9, 38, 0
2, 47519, Note_on_c, 9, 36, 110
2, 47619, Note_off_c, 9, 36, 0
2, 47639, Note_on_c, 9, 38, 110
2, 47739, Note_off_c, 9, 38, 0
2, 47759, Note_on_c, 9, 36, 110
2, 47818, Note_off_c, 9, 36, 0
2, 47819, Note_on_c, 9, 38, 110
2, 47878, Note_off_c, 9, 38, 0
2, 47879, Note_on_c, 9, 36, 110
2, 47879, Note_on_c, 9, 38, 110
2, 47908, Note_off_c, 9, 36, 0
2, 47908, Note_off_c, 9, 38, 0
2, 47909, Note_on_c, 9, 38, 110
2, 47938, Note_off_c, 9, 38, 0
2, 47939, Note_on_c, 9, 38, 110
2, 47998, Note_off_c, 9, 38, 0
2, 49799, Note_on_c, 9, 49, 110
2, 49899, Note_off_c, 9, 49, 0
2, 51839, Note_on_c, 9, 36, 110
2, 51898, Note_off_c, 9, 36, 0
2, 51899, Note_on_c, 9, 38, 110
2, 51958, Note_off_c, 9, 38, 0
2, 51959, Note_on_c, 9, 36, 110
2, 52018, Note_off_c, 9, 36, 0
2, 52019, Note_on_c, 9, 38, 110
2, 52078, Note_off_c, 9, 38, 0
2, 52079, Note_on_c, 9, 36, 110
2, 52138, Note_off_c, 9, 36, 0
2, 52139, Note_on_c, 9, 38, 110
2, 52198, Note_off_c, 9, 38, 0
2, 52199, Note_on_c, 9, 36, 110
2, 52258, Note_off_c, 9, 36, 0
2, 52259, Note_on_c, 9, 38, 110
2, 52318, Note_off_c, 9, 38, 0
2, 52319, Note_on_c, 9, 36, 110
2, 52378, Note_off_c, 9, 36, 0
2, 52379, Note_on_c, 9, 38, 110
2, 52438, Note_off_c, 9, 38, 0
2, 52439, Note_on_c, 9, 36, 110
2, 52498, Note_off_c, 9, 36, 0
2, 52499, Note_on_c, 9, 38, 110
2, 52558, Note_off_c, 9, 38, 0
2, 52559, Note_on_c, 9, 36, 110
2, 52618, Note_off_c, 9, 36, 0
2, 52619, Note_on_c, 9, 38, 110
2, 52678, Note_off_c, 9, 38, 0
2, 52679, Note_on_c, 9, 36, 110
2, 52738, Note_off_c, 9, 36, 0
2, 52739, Note_on_c, 9, 38, 110
2, 52798, Note_off_c, 9, 38, 0
2, 52799, Note_on_c, 9, 36, 110
2, 52858, Note_off_c, 9, 36, 0
2, 52859, Note_on_c, 9, 38, 110
2, 52918, Note_off_c, 9, 38, 0
2, 52919, Note_on_c, 9, 36, 110
2, 52978, Note_off_c, 9, 36, 0
2, 52979, Note_on_c, 9, 38, 110
2, 53038, Note_off_c, 9, 38, 0
2, 53039, Note_on_c, 9, 36, 110
2, 53098, Note_off_c, 9, 36, 0
2, 53099, Note_on_c, 9, 38, 110
2, 53158, Note_off_c, 9, 38, 0
2, 53159, Note_on_c, 9, 36, 110
2, 53218, Note_off_c, 9, 36, 0
2, 53219, Note_on_c, 9, 38, 110
2, 53278, Note_off_c, 9, 38, 0
2, 53279, Note_on_c, 9, 36, 110
2, 53338, Note_off_c, 9, 36, 0
2, 53339, Note_on_c, 9, 38, 110
2, 53398, Note_off_c, 9, 38, 0
2, 53399, Note_on_c, 9, 36, 110
2, 53458, Note_off_c, 9, 36, 0
2, 53459, Note_on_c, 9, 38, 110
2, 53518, Note_off_c, 9, 38, 0
2, 53519, Note_on_c, 9, 36, 110
2, 53578, Note_off_c, 9, 36, 0
2, 53579, Note_on_c, 9, 38, 110
2, 53638, Note_off_c, 9, 38, 0
2, 53639, Note_on_c, 9, 36, 110
2, 53639, Note_on_c, 9, 38, 110
2, 53668, Note_off_c, 9, 36, 0
2, 53668, Note_off_c, 9, 38, 0
2, 53669, Note_on_c, 9, 38, 110
2, 53698, Note_off_c, 9, 38, 0
2, 53699, Note_on_c, 9, 38, 110
2, 53758, Note_off_c, 9, 38, 0
2, 53759, Note_on_c, 9, 36, 110
2, 53818, Note_off_c, 9, 36, 0
2, 53819, Note_on_c, 9, 38, 110
2, 53878, Note_off_c, 9, 38, 0
2, 53879, Note_on_c, 9, 36, 110
2, 53938, Note_off_c, 9, 36, 0
2, 53939, Note_on_c, 9, 38, 110
2, 53998, Note_off_c, 9, 38, 0
2, 53999, Note_on_c, 9, 36, 110
2, 54058, Note_off_c, 9, 36, 0
2, 54059, Note_on_c, 9, 38, 110
2, 54118, Note_off_c, 9, 38, 0
2, 54119, Note_on_c, 9, 36, 110
2, 54178, Note_off_c, 9, 36, 0
2, 54179, Note_on_c, 9, 38, 110
2, 54238, Note_off_c, 9, 38, 0
2, 54239, Note_on_c, 9, 36, 110
2, 54298, Note_off_c, 9, 36, 0
2, 54299, Note_on_c, 9, 38, 110
2, 54358, Note_off_c, 9, 38, 0
2, 54359, Note_on_c, 9, 36, 110
2, 54418, Note_off_c, 9, 36, 0
2, 54419, Note_on_c, 9, 38, 110
2, 54478, Note_off_c, 9, 38, 0
2, 54479, Note_on_c, 9, 36, 110
2, 54538, Note_off_c, 9, 36, 0
2, 54539, Note_on_c, 9, 38, 110
2, 54598, Note_off_c, 9, 38, 0
2, 54599, Note_on_c, 9, 36, 110
2, 54658, Note_off_c, 9, 36, 0
2, 54659, Note_on_c, 9, 38, 110
2, 54718, Note_off_c, 9, 38, 0
2, 54719, Note_on_c, 9, 36, 110
2, 54778, Note_off_c, 9, 36, 0
2, 54779, Note_on_c, 9, 38, 110
2, 54838, Note_off_c, 9, 38, 0
2, 54839, Note_on_c, 9, 36, 110
2, 54898, Note_off_c, 9, 36, 0
2, 54899, Note_on_c, 9, 38, 110
2, 54958, Note_off_c, 9, 38, 0
2, 54959, Note_on_c, 9, 36, 110
2, 55018, Note_off_c, 9, 36, 0
2, 55019, Note_on_c, 9, 38, 110
2, 55078, Note_off_c, 9, 38, 0
2, 55079, Note_on_c, 9, 36, 110
2, 55138, Note_off_c, 9, 36, 0
2, 55139, Note_on_c, 9, 38, 110
2, 55198, Note_off_c, 9, 38, 0
2, 55199, Note_on_c, 9, 36, 110
2, 55258, Note_off_c, 9, 36, 0
2, 55259, Note_on_c, 9, 38, 110
2, 55318, Note_off_c, 9, 38, 0
2, 55319, Note_on_c, 9, 36, 110
2, 55378, Note_off_c, 9, 36, 0
2, 55379, Note_on_c, 9, 38, 110
2, 55438, Note_off_c, 9, 38, 0
2, 55439, Note_on_c, 9, 36, 110
2, 55498, Note_off_c, 9, 36, 0
2, 55499, Note_on_c, 9, 38, 110
2, 55558, Note_off_c, 9, 38, 0
2, 55559, Note_on_c, 9, 36, 110
2, 55559, Note_on_c, 9, 38, 110
2, 55588, Note_off_c, 9, 36, 0
2, 55588, Note_off_c, 9, 38, 0
2, 55589, Note_on_c, 9, 38, 110
2, 55618, Note_off_c, 9, 38, 0
2, 55619, Note_on_c, 9, 38, 110
2, 55678, Note_off_c, 9, 38, 0
2, 55679, Note_on_c, 9, 36, 110
2, 55738, Note_off_c, 9, 36, 0
2, 55739, Note_on_c, 9, 38, 110
2, 55798, Note_off_c, 9, 38, 0
2, 55799, Note_on_c, 9, 36, 110
2, 55858, Note_off_c, 9, 36, 0
2, 55859, Note_on_c, 9, 38, 110
2, 55918, Note_off_c, 9, 38, 0
2, 55919, Note_on_c, 9, 36, 110
2, 55978, Note_off_c, 9, 36, 0
2, 55979, Note_on_c, 9, 38, 110
2, 56038, Note_off_c, 9, 38, 0
2, 56039, Note_on_c, 9, 36, 110
2, 56098, Note_off_c, 9, 36, 0
2, 56099, Note_on_c, 9, 38, 110
2, 56158, Note_off_c, 9, 38, 0
2, 56159, Note_on_c, 9, 36, 110
2, 56218, Note_off_c, 9, 36, 0
2, 56219, Note_on_c, 9, 38, 110
2, 56278, Note_off_c, 9, 38, 0
2, 56279, Note_on_c, 9, 36, 110
2, 56338, Note_off_c, 9, 36, 0
2, 56339, Note_on_c, 9, 38, 110
2, 56398, Note_off_c, 9, 38, 0
2, 56399, Note_on_c, 9, 36, 110
2, 56458, Note_off_c, 9, 36, 0
2, 56459, Note_on_c, 9, 38, 110
2, 56518, Note_off_c, 9, 38, 0
2, 56519, Note_on_c, 9, 36, 110
2, 56578, Note_off_c, 9, 36, 0
2, 56579, Note_on_c, 9, 38, 110
2, 56638, Note_off_c, 9, 38, 0
2, 56639, Note_on_c, 9, 36, 110
2, 56698, Note_off_c, 9, 36, 0
2, 56699, Note_on_c, 9, 38, 110
2, 56758, Note_off_c, 9, 38, 0
2, 56759, Note_on_c, 9, 36, 110
2, 56818, Note_off_c, 9, 36, 0
2, 56819, Note_on_c, 9, 38, 110
2, 56878, Note_off_c, 9, 38, 0
2, 56879, Note_on_c, 9, 36, 110
2, 56938, Note_off_c, 9, 36, 0
2, 56939, Note_on_c, 9, 38, 110
2, 56998, Note_off_c, 9, 38, 0
2, 56999, Note_on_c, 9, 36, 110
2, 57058, Note_off_c, 9, 36, 0
2, 57059, Note_on_c, 9, 38, 110
2, 57118, Note_off_c, 9, 38, 0
2, 57119, Note_on_c, 9, 36, 110
2, 57178, Note_off_c, 9, 36, 0
2, 57179, Note_on_c, 9, 38, 110
2, 57238, Note_off_c, 9, 38, 0
2, 57239, Note_on_c, 9, 36, 110
2, 57298, Note_off_c, 9, 36, 0
2, 57299, Note_on_c, 9, 38, 110
2, 57358, Note_off_c, 9, 38, 0
2, 57359, Note_on_c, 9, 36, 110
2, 57418, Note_off_c, 9, 36, 0
2, 57419, Note_on_c, 9, 38, 110
2, 57478, Note_off_c, 9, 38, 0
2, 57479, Note_on_c, 9, 36, 110
2, 57479, Note_on_c, 9, 38, 110
2, 57508, Note_off_c, 9, 36, 0
2, 57508, Note_off_c, 9, 38, 0
2, 57509, Note_on_c, 9, 38, 110
2, 57538, Note_off_c, 9, 38, 0
2, 57539, Note_on_c, 9, 38, 110
2, 57598, Note_off_c, 9, 38, 0
2, 57599, Note_on_c, 9, 36, 110
2, 57658, Note_off_c, 9, 36, 0
2, 57659, Note_on_c, 9, 38, 110
2, 57718, Note_off_c, 9, 38, 0
2, 57719, Note_on_c, 9, 36, 110
2, 57778, Note_off_c, 9, 36, 0
2, 57779, Note_on_c, 9, 38, 110
2, 57838, Note_off_c, 9, 38, 0
2, 57839, Note_on_c, 9, 36, 110
2, 57898, Note_off_c, 9, 36, 0
2, 57899, Note_on_c, 9, 38, 110
2, 57958, Note_off_c, 9, 38, 0
2, 57959, Note_on_c, 9, 36, 110
2, 58018, Note_off_c, 9, 36, 0
2, 58019, Note_on_c, 9, 38, 110
2, 58078, Note_off_c, 9, 38, 0
2, 58079, Note_on_c, 9, 36, 110
2, 58138, Note_off_c, 9, 36, 0
2, 58139, Note_on_c, 9, 38, 110
2, 58198, Note_off_c, 9, 38, 0
2, 58199, Note_on_c, 9, 36, 110
2, 58258, Note_off_c, 9, 36, 0
2, 58259, Note_on_c, 9, 38, 110
2, 58318, Note_off_c, 9, 38, 0
2, 58319, Note_on_c, 9, 36, 110
2, 58378, Note_off_c, 9, 36, 0
2, 58379, Note_on_c, 9, 38, 110
2, 58438, Note_off_c, 9, 38, 0
2, 58439, Note_on_c, 9, 36, 110
2, 58498, Note_off_c, 9, 36, 0
2, 58499, Note_on_c, 9, 38, 110
2, 58558, Note_off_c, 9, 38, 0
2, 58559, Note_on_c, 9, 36, 110
2, 58618, Note_off_c, 9, 36, 0
2, 58619, Note_on_c, 9, 38, 110
2, 58678, Note_off_c, 9, 38, 0
2, 58679, Note_on_c, 9, 36, 110
2, 58738, Note_off_c, 9, 36, 0
2, 58739, Note_on_c, 9, 38, 110
2, 58798, Note_off_c, 9, 38, 0
2, 58799, Note_on_c, 9, 36, 110
2, 58858, Note_off_c, 9, 36, 0
2, 58859, Note_on_c, 9, 38, 110
2, 58918, Note_off_c, 9, 38, 0
2, 58919, Note_on_c, 9, 36, 110
2, 58978, Note_off_c, 9, 36, 0
2, 58979, Note_on_c, 9, 38, 110
2, 59038, Note_off_c, 9, 38, 0
2, 59039, Note_on_c, 9, 36, 110
2, 59098, Note_off_c, 9, 36, 0
2, 59099, Note_on_c, 9, 38, 110
2, 59158, Note_off_c, 9, 38, 0
2, 59159, Note_on_c, 9, 36, 110
2, 59218, Note_off_c, 9, 36, 0
2, 59219, Note_on_c, 9, 38, 110
2, 59278, Note_off_c, 9, 38, 0
2, 59279, Note_on_c, 9, 36, 110
2, 59338, Note_off_c, 9, 36, 0
2, 59339, Note_on_c, 9, 38, 110
2, 59398, Note_off_c, 9, 38, 0
2, 59399, Note_on_c, 9, 36, 110
2, 59399, Note_on_c, 9, 38, 110
2, 59428, Note_off_c, 9, 36, 0
2, 59428, Note_off_c, 9, 38, 0
2, 59429, Note_on_c, 9, 38, 110
2, 59458, Note_off_c, 9, 38, 0
2, 59459, Note_on_c, 9, 38, 110
2, 59518, Note_off_c, 9, 38, 0
2, 59519, Note_on_c, 9, 36, 110
2, 59578, Note_off_c, 9, 36, 0
2, 59579, Note_on_c, 9, 38, 110
2, 59638, Note_off_c, 9, 38, 0
2, 59639, Note_on_c, 9, 36, 110
2, 59698, Note_off_c, 9, 36, 0
2, 59699, Note_on_c, 9, 38, 110
2, 59758, Note_off_c, 9, 38, 0
2, 59759, Note_on_c, 9, 36, 110
2, 59818, Note_off_c, 9, 36, 0
2, 59819, Note_on_c, 9, 38, 110
2, 59878, Note_off_c, 9, 38, 0
2, 59879, Note_on_c, 9, 36, 110
2, 59938, Note_off_c, 9, 36, 0
2, 59939, Note_on_c, 9, 38, 110
2, 59998, Note_off_c, 9, 38, 0
2, 59999, Note_on_c, 9, 36, 110
2, 60058, Note_off_c, 9, 36, 0
2, 60059, Note_on_c, 9, 38, 110
2, 60118, Note_off_c, 9, 38, 0
2, 60119, Note_on_c, 9, 36, 110
2, 60178, Note_off_c, 9, 36, 0
2, 60179, Note_on_c, 9, 38, 110
2, 60238, Note_off_c, 9, 38, 0
2, 60239, Note_on_c, 9, 36, 110
2, 60298, Note_off_c, 9, 36, 0
2, 60299, Note_on_c, 9, 38, 110
2, 60358, Note_off_c, 9, 38, 0
2, 60359, Note_on_c, 9, 36, 110
2, 60418, Note_off_c, 9, 36, 0
2, 60419, Note_on_c, 9, 38, 110
2, 60478, Note_off_c, 9, 38, 0
2, 60479, Note_on_c, 9, 36, 110
2, 60538, Note_off_c, 9, 36, 0
2, 60539, Note_on_c, 9, 38, 110
2, 60598, Note_off_c, 9, 38, 0
2, 60599, Note_on_c, 9, 36, 110
2, 60658, Note_off_c, 9, 36, 0
2, 60659, Note_on_c, 9, 38, 110
2, 60718, Note_off_c, 9, 38, 0
2, 60719, Note_on_c, 9, 36, 110
2, 60778, Note_off_c, 9, 36, 0
2, 60779, Note_on_c, 9, 38, 110
2, 60838, Note_off_c, 9, 38, 0
2, 60839, Note_on_c, 9, 36, 110
2, 60898, Note_off_c, 9, 36, 0
2, 60899, Note_on_c, 9, 38, 110
2, 60958, Note_off_c, 9, 38, 0
2, 60959, Note_on_c, 9, 36, 110
2, 61018, Note_off_c, 9, 36, 0
2, 61019, Note_on_c, 9, 38, 110
2, 61078, Note_off_c, 9, 38, 0
2, 61079, Note_on_c, 9, 36, 110
2, 61138, Note_off_c, 9, 36, 0
2, 61139, Note_on_c, 9, 38, 110
2, 61198, Note_off_c, 9, 38, 0
2, 61199, Note_on_c, 9, 36, 110
2, 61258, Note_off_c, 9, 36, 0
2, 61259, Note_on_c, 9, 38, 110
2, 61318, Note_off_c, 9, 38, 0
2, 61319, Note_on_c, 9, 36, 110
2, 61319, Note_on_c, 9, 38, 110
2, 61348, Note_off_c, 9, 36, 0
2, 61348, Note_off_c, 9, 38, 0
2, 61349, Note_on_c, 9, 38, 110
2, 61378, Note_off_c, 9, 38, 0
2, 61379, Note_on_c, 9, 38, 110
2, 61438, Note_off_c, 9, 38, 0
2, 61439, Note_on_c, 9, 36, 110
2, 61498, Note_off_c, 9, 36, 0
2, 61499, Note_on_c, 9, 38, 110
2, 61558, Note_off_c, 9, 38, 0
2, 61559, Note_on_c, 9, 36, 110
2, 61618, Note_off_c, 9, 36, 0
2, 61619, Note_on_c, 9, 38, 110
2, 61678, Note_off_c, 9, 38, 0
2, 61679, Note_on_c, 9, 36, 110
2, 61738, Note_off_c, 9, 36, 0
2, 61739, Note_on_c, 9, 38, 110
2, 61798, Note_off_c, 9, 38, 0
2, 61799, Note_on_c, 9, 36, 110
2, 61858, Note_off_c, 9, 36, 0
2, 61859, Note_on_c, 9, 38, 110
2, 61918, Note_off_c, 9, 38, 0
2, 61919, Note_on_c, 9, 36, 110
2, 61978, Note_off_c, 9, 36, 0
2, 61979, Note_on_c, 9, 38, 110
2, 62038, Note_off_c, 9, 38, 0
2, 62039, Note_on_c, 9, 36, 110
2, 62098, Note_off_c, 9, 36, 0
2, 62099, Note_on_c, 9, 38, 110
2, 62158, Note_off_c, 9, 38, 0
2, 62159, Note_on_c, 9, 36, 110
2, 62218, Note_off_c, 9, 36, 0
2, 62219, Note_on_c, 9, 38, 110
2, 62278, Note_off_c, 9, 38, 0
2, 62279, Note_on_c, 9, 36, 110
2, 62338, Note_off_c, 9, 36, 0
2, 62339, Note_on_c, 9, 38, 110
2, 62398, Note_off_c, 9, 38, 0
2, 62399, Note_on_c, 9, 36, 110
2, 62458, Note_off_c, 9, 36, 0
2, 62459, Note_on_c, 9, 38, 110
2, 62518, Note_off_c, 9, 38, 0
2, 62519, Note_on_c, 9, 36, 110
2, 62578, Note_off_c, 9, 36, 0
2, 62579, Note_on_c, 9, 38, 110
2, 62638, Note_off_c, 9, 38, 0
2, 62639, Note_on_c, 9, 36, 110
2, 62698, Note_off_c, 9, 36, 0
2, 62699, Note_on_c, 9, 38, 110
2, 62758, Note_off_c, 9, 38, 0
2, 62759, Note_on_c, 9, 36, 110
2, 62818, Note_off_c, 9, 36, 0
2, 62819, Note_on_c, 9, 38, 110
2, 62878, Note_off_c, 9, 38, 0
2, 62879, Note_on_c, 9, 36, 110
2, 62938, Note_off_c, 9, 36, 0
2, 62939, Note_on_c, 9, 38, 110
2, 62998, Note_off_c, 9, 38, 0
2, 62999, Note_on_c, 9, 36, 110
2, 63058, Note_off_c, 9, 36, 0
2, 63059, Note_on_c, 9, 38, 110
2, 63118, Note_off_c, 9, 38, 0
2, 63119, Note_on_c, 9, 36, 110
2, 63178, Note_off_c, 9, 36, 0
2, 63179, Note_on_c, 9, 38, 110
2, 63238, Note_off_c, 9, 38, 0
2, 63239, Note_on_c, 9, 36, 110
2, 63239, Note_on_c, 9, 38, 110
2, 63268, Note_off_c, 9, 36, 0
2, 63268, Note_off_c, 9, 38, 0
2, 63269, Note_on_c, 9, 38, 110
2, 63298, Note_off_c, 9, 38, 0
2, 63299, Note_on_c, 9, 38, 110
2, 63358, Note_off_c, 9, 38, 0
2, 63359, Note_on_c, 9, 36, 110
2, 63418, Note_off_c, 9, 36, 0
2, 63419, Note_on_c, 9, 38, 110
2, 63478, Note_off_c, 9, 38, 0
2, 63479, Note_on_c, 9, 36, 110
2, 63538, Note_off_c, 9, 36, 0
2, 63539, Note_on_c, 9, 38, 110
2, 63598, Note_off_c, 9, 38, 0
2, 63599, Note_on_c, 9, 36, 110
2, 63658, Note_off_c, 9, 36, 0
2, 63659, Note_on_c, 9, 38, 110
2, 63718, Note_off_c, 9, 38, 0
2, 63719, Note_on_c, 9, 36, 110
2, 63778, Note_off_c, 9, 36, 0
2, 63779, Note_on_c, 9, 38, 110
2, 63838, Note_off_c, 9, 38, 0
2, 63839, Note_on_c, 9, 36, 110
2, 63898, Note_off_c, 9, 36, 0
2, 63899, Note_on_c, 9, 38, 110
2, 63958, Note_off_c, 9, 38, 0
2, 63959, Note_on_c, 9, 36, 110
2, 64018, Note_off_c, 9, 36, 0
2, 64019, Note_on_c, 9, 38, 110
2, 64078, Note_off_c, 9, 38, 0
2, 64079, Note_on_c, 9, 36, 110
2, 64138, Note_off_c, 9, 36, 0
2, 64139, Note_on_c, 9, 38, 110
2, 64198, Note_off_c, 9, 38, 0
2, 64199, Note_on_c, 9, 36, 110
2, 64258, Note_off_c, 9, 36, 0
2, 64259, Note_on_c, 9, 38, 110
2, 64318, Note_off_c, 9, 38, 0
2, 64319, Note_on_c, 9, 36, 110
2, 64378, Note_off_c, 9, 36, 0
2, 64379, Note_on_c, 9, 38, 110
2, 64438, Note_off_c, 9, 38, 0
2, 64439, Note_on_c, 9, 36, 110
2, 64498, Note_off_c, 9, 36, 0
2, 64499, Note_on_c, 9, 38, 110
2, 64558, Note_off_c, 9, 38, 0
2, 64559, Note_on_c, 9, 36, 110
2, 64618, Note_off_c, 9, 36, 0
2, 64619, Note_on_c, 9, 38, 110
2, 64678, Note_off_c, 9, 38, 0
2, 64679, Note_on_c, 9, 36, 110
2, 64738, Note_off_c, 9, 36, 0
2, 64739, Note_on_c, 9, 38, 110
2, 64798, Note_off_c, 9, 38, 0
2, 64799, Note_on_c, 9, 36, 110
2, 64858, Note_off_c, 9, 36, 0
2, 64859, Note_on_c, 9, 38, 110
2, 64918, Note_off_c, 9, 38, 0
2, 64919, Note_on_c, 9, 36, 110
2, 64978, Note_off_c, 9, 36, 0
2, 64979, Note_on_c, 9, 38, 110
2, 65038, Note_off_c, 9, 38, 0
2, 65039, Note_on_c, 9, 36, 110
2, 65098, Note_off_c, 9, 36, 0
2, 65099, Note_on_c, 9, 38, 110
2, 65158, Note_off_c, 9, 38, 0
2, 65159, Note_on_c, 9, 36, 110
2, 65159, Note_on_c, 9, 38, 110
2, 65188, Note_off_c, 9, 36, 0
2, 65188, Note_off_c, 9, 38, 0
2, 65189, Note_on_c, 9, 38, 110
2, 65218, Note_off_c, 9, 38, 0
2, 65219, Note_on_c, 9, 38, 110
2, 65278, Note_off_c, 9, 38, 0
2, 65279, Note_on_c, 9, 36, 110
2, 65338, Note_off_c, 9, 36, 0
2, 65339, Note_on_c, 9, 38, 110
2, 65398, Note_off_c, 9, 38, 0
2, 65399, Note_on_c, 9, 36, 110
2, 65458, Note_off_c, 9, 36, 0
2, 65459, Note_on_c, 9, 38, 110
2, 65518, Note_off_c, 9, 38, 0
2, 65519, Note_on_c, 9, 36, 110
2, 65578, Note_off_c, 9, 36, 0
2, 65579, Note_on_c, 9, 38, 110
2, 65638, Note_off_c, 9, 38, 0
2, 65639, Note_on_c, 9, 36, 110
2, 65698, Note_off_c, 9, 36, 0
2, 65699, Note_on_c, 9, 38, 110
2, 65758, Note_off_c, 9, 38, 0
2, 65759, Note_on_c, 9, 36, 110
2, 65818, Note_off_c, 9, 36, 0
2, 65819, Note_on_c, 9, 38, 110
2, 65878, Note_off_c, 9, 38, 0
2, 65879, Note_on_c, 9, 36, 110
2, 65938, Note_off_c, 9, 36, 0
2, 65939, Note_on_c, 9, 38, 110
2, 65998, Note_off_c, 9, 38, 0
2, 65999, Note_on_c, 9, 36, 110
2, 66058, Note_off_c, 9, 36, 0
2, 66059, Note_on_c, 9, 38, 110
2, 66118, Note_off_c, 9, 38, 0
2, 66119, Note_on_c, 9, 36, 110
2, 66178, Note_off_c, 9, 36, 0
2, 66179, Note_on_c, 9, 38, 110
2, 66238, Note_off_c, 9, 38, 0
2, 66239, Note_on_c, 9, 36, 110
2, 66298, Note_off_c, 9, 36, 0
2, 66299, Note_on_c, 9, 38, 110
2, 66358, Note_off_c, 9, 38, 0
2, 66359, Note_on_c, 9, 36, 110
2, 66418, Note_off_c, 9, 36, 0
2, 66419, Note_on_c, 9, 38, 110
2, 66478, Note_off_c, 9, 38, 0
2, 66479, Note_on_c, 9, 36, 110
2, 66538, Note_off_c, 9, 36, 0
2, 66539, Note_on_c, 9, 38, 110
2, 66598, Note_off_c, 9, 38, 0
2, 66599, Note_on_c, 9, 36, 110
2, 66658, Note_off_c, 9, 36, 0
2, 66659, Note_on_c, 9, 38, 110
2, 66718, Note_off_c, 9, 38, 0
2, 66719, Note_on_c, 9, 36, 110
2, 66778, Note_off_c, 9, 36, 0
2, 66779, Note_on_c, 9, 38, 110
2, 66838, Note_off_c, 9, 38, 0
2, 66839, Note_on_c, 9, 36, 110
2, 66898, Note_off_c, 9, 36, 0
2, 66899, Note_on_c, 9, 38, 110
2, 66958, Note_off_c, 9, 38, 0
2, 66959, Note_on_c, 9, 36, 110
2, 67018, Note_off_c, 9, 36, 0
2, 67019, Note_on_c, 9, 38, 110
2, 67078, Note_off_c, 9, 38, 0
2, 67079, Note_on_c, 9, 36, 110
2, 67079, Note_on_c, 9, 38, 110
2, 67108, Note_off_c, 9, 36, 0
2, 67108, Note_off_c, 9, 38, 0
2, 67109, Note_on_c, 9, 38, 110
2, 67138, Note_off_c, 9, 38, 0
2, 67139, Note_on_c, 9, 38, 110
2, 67198, Note_off_c, 9, 38, 0
2, 67199, Note_on_c, 9, 36, 110
2, 67258, Note_off_c, 9, 36, 0
2, 67259, Note_on_c, 9, 38, 110
2, 67318, Note_off_c, 9, 38, 0
2, 67319, Note_on_c, 9, 36, 110
2, 67378, Note_off_c, 9, 36, 0
2, 67379, Note_on_c, 9, 38, 110
2, 67438, Note_off_c, 9, 38, 0
2, 67439, Note_on_c, 9, 36, 110
2, 67498, Note_off_c, 9, 36, 0
2, 67499, Note_on_c, 9, 38, 110
2, 67558, Note_off_c, 9, 38, 0
2, 67559, Note_on_c, 9, 36, 110
2, 67618, Note_off_c, 9, 36, 0
2, 67619, Note_on_c, 9, 38, 110
2, 67678, Note_off_c, 9, 38, 0
2, 67679, Note_on_c, 9, 36, 110
2, 67738, Note_off_c, 9, 36, 0
2, 67739, Note_on_c, 9, 38, 110
2, 67798, Note_off_c, 9, 38, 0
2, 67799, Note_on_c, 9, 36, 110
2, 67858, Note_off_c, 9, 36, 0
2, 67859, Note_on_c, 9, 38, 110
2, 67918, Note_off_c, 9, 38, 0
2, 67919, Note_on_c, 9, 36, 110
2, 67978, Note_off_c, 9, 36, 0
2, 67979, Note_on_c, 9, 38, 110
2, 68038, Note_off_c, 9, 38, 0
2, 68039, Note_on_c, 9, 36, 110
2, 68098, Note_off_c, 9, 36, 0
2, 68099, Note_on_c, 9, 38, 110
2, 68158, Note_off_c, 9, 38, 0
2, 68159, Note_on_c, 9, 36, 110
2, 68218, Note_off_c, 9, 36, 0
2, 68219, Note_on_c, 9, 38, 110
2, 68278, Note_off_c, 9, 38, 0
2, 68279, Note_on_c, 9, 36, 110
2, 68338, Note_off_c, 9, 36, 0
2, 68339, Note_on_c, 9, 38, 110
2, 68398, Note_off_c, 9, 38, 0
2, 68399, Note_on_c, 9, 36, 110
2, 68458, Note_off_c, 9, 36, 0
2, 68459, Note_on_c, 9, 38, 110
2, 68518, Note_off_c, 9, 38, 0
2, 68519, Note_on_c, 9, 36, 110
2, 68578, Note_off_c, 9, 36, 0
2, 68579, Note_on_c, 9, 38, 110
2, 68638, Note_off_c, 9, 38, 0
2, 68639, Note_on_c, 9, 36, 110
2, 68698, Note_off_c, 9, 36, 0
2, 68699, Note_on_c, 9, 38, 110
2, 68758, Note_off_c, 9, 38, 0
2, 68759, Note_on_c, 9, 36, 110
2, 68818, Note_off_c, 9, 36, 0
2, 68819, Note_on_c, 9, 38, 110
2, 68878, Note_off_c, 9, 38, 0
2, 68879, Note_on_c, 9, 36, 110
2, 68938, Note_off_c, 9, 36, 0
2, 68939, Note_on_c, 9, 38, 110
2, 68998, Note_off_c, 9, 38, 0
2, 68999, Note_on_c, 9, 36, 110
2, 68999, Note_on_c, 9, 38, 110
2, 69028, Note_off_c, 9, 36, 0
2, 69028, Note_off_c, 9, 38, 0
2, 69029, Note_on_c, 9, 38, 110
2, 69058, Note_off_c, 9, 38, 0
2, 69059, Note_on_c, 9, 38, 110
2, 69118, Note_off_c, 9, 38, 0
2, 69119, Note_on_c, 9, 36, 110
2, 69178, Note_off_c, 9, 36, 0
2, 69179, Note_on_c, 9, 38, 110
2, 69238, Note_off_c, 9, 38, 0
2, 69239, Note_on_c, 9, 36, 110
2, 69298, Note_off_c, 9, 36, 0
2, 69299, Note_on_c, 9, 38, 110
2, 69358, Note_off_c, 9, 38, 0
2, 69359, Note_on_c, 9, 36, 110
2, 69418, Note_off_c, 9, 36, 0
2, 69419, Note_on_c, 9, 38, 110
2, 69478, Note_off_c, 9, 38, 0
2, 69479, Note_on_c, 9, 36, 110
2, 69538, Note_off_c, 9, 36, 0
2, 69539, Note_on_c, 9, 38, 110
2, 69598, Note_off_c, 9, 38, 0
2, 69599, Note_on_c, 9, 36, 110
2, 69658, Note_off_c, 9, 36, 0
2, 69659, Note_on_c, 9, 38, 110
2, 69718, Note_off_c, 9, 38, 0
2, 69719, Note_on_c, 9, 36, 110
2, 69778, Note_off_c, 9, 36, 0
2, 69779, Note_on_c, 9, 38, 110
2, 69838, Note_off_c, 9, 38, 0
2, 69839, Note_on_c, 9, 36, 110
2, 69898, Note_off_c, 9, 36, 0
2, 69899, Note_on_c, 9, 38, 110
2, 69958, Note_off_c, 9, 38, 0
2, 69959, Note_on_c, 9, 36, 110
2, 70018, Note_off_c, 9, 36, 0
2, 70019, Note_on_c, 9, 38, 110
2, 70078, Note_off_c, 9, 38, 0
2, 70079, Note_on_c, 9, 36, 110
2, 70138, Note_off_c, 9, 36, 0
2, 70139, Note_on_c, 9, 38, 110
2, 70198, Note_off_c, 9, 38, 0
2, 70199, Note_on_c, 9, 36, 110
2, 70258, Note_off_c, 9, 36, 0
2, 70259, Note_on_c, 9, 38, 110
2, 70318, Note_off_c, 9, 38, 0
2, 70319, Note_on_c, 9, 36, 110
2, 70378, Note_off_c, 9, 36, 0
2, 70379, Note_on_c, 9, 38, 110
2, 70438, Note_off_c, 9, 38, 0
2, 70439, Note_on_c, 9, 36, 110
2, 70498, Note_off_c, 9, 36, 0
2, 70499, Note_on_c, 9, 38, 110
2, 70558, Note_off_c, 9, 38, 0
2, 70559, Note_on_c, 9, 36, 110
2, 70618, Note_off_c, 9, 36, 0
2, 70619, Note_on_c, 9, 38, 110
2, 70678, Note_off_c, 9, 38, 0
2, 70679, Note_on_c, 9, 36, 110
2, 70738, Note_off_c, 9, 36, 0
2, 70739, Note_on_c, 9, 38, 110
2, 70798, Note_off_c, 9, 38, 0
2, 70799, Note_on_c, 9, 36, 110
2, 70858, Note_off_c, 9, 36, 0
2, 70859, Note_on_c, 9, 38, 110
2, 70918, Note_off_c, 9, 38, 0
2, 70919, Note_on_c, 9, 36, 110
2, 70919, Note_on_c, 9, 38, 110
2, 70948, Note_off_c, 9, 36, 0
2, 70948, Note_off_c, 9, 38, 0
2, 70949, Note_on_c, 9, 38, 110
2, 70978, Note_off_c, 9, 38, 0
2, 70979, Note_on_c, 9, 38, 110
2, 71038, Note_off_c, 9, 38, 0
2, 71039, Note_on_c, 9, 36, 110
2, 71098, Note_off_c, 9, 36, 0
2, 71099, Note_on_c, 9, 38, 110
2, 71158, Note_off_c, 9, 38, 0
2, 71159, Note_on_c, 9, 36, 110
2, 71218, Note_off_c, 9, 36, 0
2, 71219, Note_on_c, 9, 38, 110
2, 71278, Note_off_c, 9, 38, 0
2, 71279, Note_on_c, 9, 36, 110
2, 71338, Note_off_c, 9, 36, 0
2, 71339, Note_on_c, 9, 38, 110
2, 71398, Note_off_c, 9, 38, 0
2, 71399, Note_on_c, 9, 36, 110
2, 71458, Note_off_c, 9, 36, 0
2, 71459, Note_on_c, 9, 38, 110
2, 71518, Note_off_c, 9, 38, 0
2, 71519, Note_on_c, 9, 36, 110
2, 71578, Note_off_c, 9, 36, 0
2, 71579, Note_on_c, 9, 38, 110
2, 71638, Note_off_c, 9, 38, 0
2, 71639, Note_on_c, 9, 36, 110
2, 71698, Note_off_c, 9, 36, 0
2, 71699, Note_on_c, 9, 38, 110
2, 71758, Note_off_c, 9, 38, 0
2, 71759, Note_on_c, 9, 36, 110
2, 71818, Note_off_c, 9, 36, 0
2, 71819, Note_on_c, 9, 38, 110
2, 71878, Note_off_c, 9, 38, 0
2, 71879, Note_on_c, 9, 36, 110
2, 71938, Note_off_c, 9, 36, 0
2, 71939, Note_on_c, 9, 38, 110
2, 71998, Note_off_c, 9, 38, 0
2, 71999, Note_on_c, 9, 36, 110
2, 72058, Note_off_c, 9, 36, 0
2, 72059, Note_on_c, 9, 38, 110
2, 72118, Note_off_c, 9, 38, 0
2, 72119, Note_on_c, 9, 36, 110
2, 72178, Note_off_c, 9, 36, 0
2, 72179, Note_on_c, 9, 38, 110
2, 72238, Note_off_c, 9, 38, 0
2, 72239, Note_on_c, 9, 36, 110
2, 72298, Note_off_c, 9, 36, 0
2, 72299, Note_on_c, 9, 38, 110
2, 72358, Note_off_c, 9, 38, 0
2, 72359, Note_on_c, 9, 36, 110
2, 72418, Note_off_c, 9, 36, 0
2, 72419, Note_on_c, 9, 38, 110
2, 72478, Note_off_c, 9, 38, 0
2, 72479, Note_on_c, 9, 36, 110
2, 72538, Note_off_c, 9, 36, 0
2, 72539, Note_on_c, 9, 38, 110
2, 72598, Note_off_c, 9, 38, 0
2, 72599, Note_on_c, 9, 36, 110
2, 72658, Note_off_c, 9, 36, 0
2, 72659, Note_on_c, 9, 38, 110
2, 72718, Note_off_c, 9, 38, 0
2, 72719, Note_on_c, 9, 36, 110
2, 72778, Note_off_c, 9, 36, 0
2, 72779, Note_on_c, 9, 38, 110
2, 72838, Note_off_c, 9, 38, 0
2, 72839, Note_on_c, 9, 36, 110
2, 72839, Note_on_c, 9, 38, 110
2, 72868, Note_off_c, 9, 36, 0
2, 72868, Note_off_c, 9, 38, 0
2, 72869, Note_on_c, 9, 38, 110
2, 72898, Note_off_c, 9, 38, 0
2, 72899, Note_on_c, 9, 38, 110
2, 72958, Note_off_c, 9, 38, 0
2, 72959, Note_on_c, 9, 36, 110
2, 73018, Note_off_c, 9, 36, 0
2, 73019, Note_on_c, 9, 38, 110
2, 73078, Note_off_c, 9, 38, 0
2, 73079, Note_on_c, 9, 36, 110
2, 73138, Note_off_c, 9, 36, 0
2, 73139, Note_on_c, 9, 38, 110
2, 73198, Note_off_c, 9, 38, 0
2, 73199, Note_on_c, 9, 36, 110
2, 73258, Note_off_c, 9, 36, 0
2, 73259, Note_on_c, 9, 38, 110
2, 73318, Note_off_c, 9, 38, 0
2, 73319, Note_on_c, 9, 36, 110
2, 73378, Note_off_c, 9, 36, 0
2, 73379, Note_on_c, 9, 38, 110
2, 73438, Note_off_c, 9, 38, 0
2, 73439, Note_on_c, 9, 36, 110
2, 73498, Note_off_c, 9, 36, 0
2, 73499, Note_on_c, 9, 38, 110
2, 73558, Note_off_c, 9, 38, 0
2, 73559, Note_on_c, 9, 36, 110
2, 73618, Note_off_c, 9, 36, 0
2, 73619, Note_on_c, 9, 38, 110
2, 73678, Note_off_c, 9, 38, 0
2, 73679, Note_on_c, 9, 36, 110
2, 73738, Note_off_c, 9, 36, 0
2, 73739, Note_on_c, 9, 38, 110
2, 73798, Note_off_c, 9, 38, 0
2, 73799, Note_on_c, 9, 36, 110
2, 73858, Note_off_c, 9, 36, 0
2, 73859, Note_on_c, 9, 38, 110
2, 73918, Note_off_c, 9, 38, 0
2, 73919, Note_on_c, 9, 36, 110
2, 73978, Note_off_c, 9, 36, 0
2, 73979, Note_on_c, 9, 38, 110
2, 74038, Note_off_c, 9, 38, 0
2, 74039, Note_on_c, 9, 36, 110
2, 74098, Note_off_c, 9, 36, 0
2, 74099, Note_on_c, 9, 38, 110
2, 74158, Note_off_c, 9, 38, 0
2, 74159, Note_on_c, 9, 36, 110
2, 74218, Note_off_c, 9, 36, 0
2, 74219, Note_on_c, 9, 38, 110
2, 74278, Note_off_c, 9, 38, 0
2, 74279, Note_on_c, 9, 36, 110
2, 74338, Note_off_c, 9, 36, 0
2, 74339, Note_on_c, 9, 38, 110
2, 74398, Note_off_c, 9, 38, 0
2, 74399, Note_on_c, 9, 36, 110
2, 74458, Note_off_c, 9, 36, 0
2, 74459, Note_on_c, 9, 38, 110
2, 74518, Note_off_c, 9, 38, 0
2, 74519, Note_on_c, 9, 36, 110
2, 74578, Note_off_c, 9, 36, 0
2, 74579, Note_on_c, 9, 38, 110
2, 74638, Note_off_c, 9, 38, 0
2, 74639, Note_on_c, 9, 36, 110
2, 74698, Note_off_c, 9, 36, 0
2, 74699, Note_on_c, 9, 38, 110
2, 74758, Note_off_c, 9, 38, 0
2, 74759, Note_on_c, 9, 36, 110
2, 74759, Note_on_c, 9, 38, 110
2, 74788, Note_off_c, 9, 36, 0
2, 74788, Note_off_c, 9, 38, 0
2, 74789, Note_on_c, 9, 38, 110
2, 74818, Note_off_c, 9, 38, 0
2, 74819, Note_on_c, 9, 38, 110
2, 74878, Note_off_c, 9, 38, 0
2, 74879, Note_on_c, 9, 36, 110
2, 74938, Note_off_c, 9, 36, 0
2, 74939, Note_on_c, 9, 38, 110
2, 74998, Note_off_c, 9, 38, 0
2, 74999, Note_on_c, 9, 36, 110
2, 75058, Note_off_c, 9, 36, 0
2, 75059, Note_on_c, 9, 38, 110
2, 75118, Note_off_c, 9, 38, 0
2, 75119, Note_on_c, 9, 36, 110
2, 75178, Note_off_c, 9, 36, 0
2, 75179, Note_on_c, 9, 38, 110
2, 75238, Note_off_c, 9, 38, 0
2, 75239, Note_on_c, 9, 36, 110
2, 75298, Note_off_c, 9, 36, 0
2, 75299, Note_on_c, 9, 38, 110
2, 75358, Note_off_c, 9, 38, 0
2, 75359, Note_on_c, 9, 36, 110
2, 75418, Note_off_c, 9, 36, 0
2, 75419, Note_on_c, 9, 38, 110
2, 75478, Note_off_c, 9, 38, 0
2, 75479, Note_on_c, 9, 36, 110
2, 75538, Note_off_c, 9, 36, 0
2, 75539, Note_on_c, 9, 38, 110
2, 75598, Note_off_c, 9, 38, 0
2, 75599, Note_on_c, 9, 36, 110
2, 75658, Note_off_c, 9, 36, 0
2, 75659, Note_on_c, 9, 38, 110
2, 75718, Note_off_c, 9, 38, 0
2, 75719, Note_on_c, 9, 36, 110
2, 75778, Note_off_c, 9, 36, 0
2, 75779, Note_on_c, 9, 38, 110
2, 75838, Note_off_c, 9, 38, 0
2, 75839, Note_on_c, 9, 36, 110
2, 75898, Note_off_c, 9, 36, 0
2, 75899, Note_on_c, 9, 38, 110
2, 75958, Note_off_c, 9, 38, 0
2, 75959, Note_on_c, 9, 36, 110
2, 76018, Note_off_c, 9, 36, 0
2, 76019, Note_on_c, 9, 38, 110
2, 76078, Note_off_c, 9, 38, 0
2, 76079, Note_on_c, 9, 36, 110
2, 76138, Note_off_c, 9, 36, 0
2, 76139, Note_on_c, 9, 38, 110
2, 76198, Note_off_c, 9, 38, 0
2, 76199, Note_on_c, 9, 36, 110
2, 76258, Note_off_c, 9, 36, 0
2, 76259, Note_on_c, 9, 38, 110
2, 76318, Note_off_c, 9, 38, 0
2, 76319, Note_on_c, 9, 36, 110
2, 76378, Note_off_c, 9, 36, 0
2, 76379, Note_on_c, 9, 38, 110
2, 76438, Note_off_c, 9, 38, 0
2, 76439, Note_on_c, 9, 36, 110
2, 76498, Note_off_c, 9, 36, 0
2, 76499, Note_on_c, 9, 38, 110
2, 76558, Note_off_c, 9, 38, 0
2, 76559, Note_on_c, 9, 36, 110
2, 76618, Note_off_c, 9, 36, 0
2, 76619, Note_on_c, 9, 38, 110
2, 76678, Note_off_c, 9, 38, 0
2, 76679, Note_on_c, 9, 36, 110
2, 76679, Note_on_c, 9, 38, 110
2, 76708, Note_off_c, 9, 36, 0
2, 76708, Note_off_c, 9, 38, 0
2, 76709, Note_on_c, 9, 38, 110
2, 76738, Note_off_c, 9, 38, 0
2, 76739, Note_on_c, 9, 38, 110
2, 76798, Note_off_c, 9, 38, 0
2, 76799, Note_on_c, 9, 36, 110
2, 76858, Note_off_c, 9, 36, 0
2, 76859, Note_on_c, 9, 38, 110
2, 76918, Note_off_c, 9, 38, 0
2, 76919, Note_on_c, 9, 36, 110
2, 76978, Note_off_c, 9, 36, 0
2, 76979, Note_on_c, 9, 38, 110
2, 77038, Note_off_c, 9, 38, 0
2, 77039, Note_on_c, 9, 36, 110
2, 77098, Note_off_c, 9, 36, 0
2, 77099, Note_on_c, 9, 38, 110
2, 77158, Note_off_c, 9, 38, 0
2, 77159, Note_on_c, 9, 36, 110
2, 77218, Note_off_c, 9, 36, 0
2, 77219, Note_on_c, 9, 38, 110
2, 77278, Note_off_c, 9, 38, 0
2, 77279, Note_on_c, 9, 36, 110
2, 77338, Note_off_c, 9, 36, 0
2, 77339, Note_on_c, 9, 38, 110
2, 77398, Note_off_c, 9, 38, 0
2, 77399, Note_on_c, 9, 36, 110
2, 77458, Note_off_c, 9, 36, 0
2, 77459, Note_on_c, 9, 38, 110
2, 77518, Note_off_c, 9, 38, 0
2, 77519, Note_on_c, 9, 36, 110
2, 77578, Note_off_c, 9, 36, 0
2, 77579, Note_on_c, 9, 38, 110
2, 77638, Note_off_c, 9, 38, 0
2, 77639, Note_on_c, 9, 36, 110
2, 77698, Note_off_c, 9, 36, 0
2, 77699, Note_on_c, 9, 38, 110
2, 77758, Note_off_c, 9, 38, 0
2, 77759, Note_on_c, 9, 36, 110
2, 77818, Note_off_c, 9, 36, 0
2, 77819, Note_on_c, 9, 38, 110
2, 77878, Note_off_c, 9, 38, 0
2, 77879, Note_on_c, 9, 36, 110
2, 77938, Note_off_c, 9, 36, 0
2, 77939, Note_on_c, 9, 38, 110
2, 77998, Note_off_c, 9, 38, 0
2, 77999, Note_on_c, 9, 36, 110
2, 78058, Note_off_c, 9, 36, 0
2, 78059, Note_on_c, 9, 38, 110
2, 78118, Note_off_c, 9, 38, 0
2, 78119, Note_on_c, 9, 36, 110
2, 78178, Note_off_c, 9, 36, 0
2, 78179, Note_on_c, 9, 38, 110
2, 78238, Note_off_c, 9, 38, 0
2, 78239, Note_on_c, 9, 36, 110
2, 78298, Note_off_c, 9, 36, 0
2, 78299, Note_on_c, 9, 38, 110
2, 78358, Note_off_c, 9, 38, 0
2, 78359, Note_on_c, 9, 36, 110
2, 78418, Note_off_c, 9, 36, 0
2, 78419, Note_on_c, 9, 38, 110
2, 78478, Note_off_c, 9, 38, 0
2, 78479, Note_on_c, 9, 36, 110
2, 78538, Note_off_c, 9, 36, 0
2, 78539, Note_on_c, 9, 38, 110
2, 78598, Note_off_c, 9, 38, 0
2, 78599, Note_on_c, 9, 36, 110
2, 78599, Note_on_c, 9, 38, 110
2, 78628, Note_off_c, 9, 36, 0
2, 78628, Note_off_c, 9, 38, 0
2, 78629, Note_on_c, 9, 38, 110
2, 78658, Note_off_c, 9, 38, 0
2, 78659, Note_on_c, 9, 38, 110
2, 78718, Note_off_c, 9, 38, 0
2, 78718, End_track
3, 0, Start_track
3, 0, Title_t, "Staff-1"
3, 1919, Program_c, 10, 30
3, 1919, Note_on_c, 10, 47, 110
3, 2008, Note_off_c, 10, 47, 0
3, 2009, Note_on_c, 10, 49, 110
3, 2098, Note_off_c, 10, 49, 0
3, 2099, Note_on_c, 10, 51, 110
3, 2158, Note_off_c, 10, 51, 0
3, 2159, Note_on_c, 10, 47, 110
3, 2248, Note_off_c, 10, 47, 0
3, 2249, Note_on_c, 10, 49, 110
3, 2338, Note_off_c, 10, 49, 0
3, 2339, Note_on_c, 10, 51, 110
3, 2398, Note_off_c, 10, 51, 0
3, 2399, Note_on_c, 10, 47, 110
3, 2488, Note_off_c, 10, 47, 0
3, 2489, Note_on_c, 10, 49, 110
3, 2578, Note_off_c, 10, 49, 0
3, 2579, Note_on_c, 10, 51, 110
3, 2638, Note_off_c, 10, 51, 0
3, 2639, Note_on_c, 10, 47, 110
3, 2728, Note_off_c, 10, 47, 0
3, 2729, Note_on_c, 10, 49, 110
3, 2818, Note_off_c, 10, 49, 0
3, 2819, Note_on_c, 10, 51, 110
3, 2878, Note_off_c, 10, 51, 0
3, 2879, Note_on_c, 10, 47, 110
3, 2968, Note_off_c, 10, 47, 0
3, 2969, Note_on_c, 10, 49, 110
3, 3058, Note_off_c, 10, 49, 0
3, 3059, Note_on_c, 10, 51, 110
3, 3118, Note_off_c, 10, 51, 0
3, 3119, Note_on_c, 10, 47, 110
3, 3208, Note_off_c, 10, 47, 0
3, 3209, Note_on_c, 10, 49, 110
3, 3298, Note_off_c, 10, 49, 0
3, 3299, Note_on_c, 10, 51, 110
3, 3358, Note_off_c, 10, 51, 0
3, 3359, Note_on_c, 10, 47, 110
3, 3448, Note_off_c, 10, 47, 0
3, 3449, Note_on_c, 10, 49, 110
3, 3538, Note_off_c, 10, 49, 0
3, 3539, Note_on_c, 10, 51, 110
3, 3598, Note_off_c, 10, 51, 0
3, 3599, Note_on_c, 10, 47, 110
3, 3688, Note_off_c, 10, 47, 0
3, 3689, Note_on_c, 10, 49, 110
3, 3778, Note_off_c, 10, 49, 0
3, 3779, Note_on_c, 10, 51, 110
3, 3838, Note_off_c, 10, 51, 0
3, 3839, Note_on_c, 10, 47, 110
3, 3928, Note_off_c, 10, 47, 0
3, 3929, Note_on_c, 10, 49, 110
3, 4018, Note_off_c, 10, 49, 0
3, 4019, Note_on_c, 10, 51, 110
3, 4078, Note_off_c, 10, 51, 0
3, 4079, Note_on_c, 10, 47, 110
3, 4168, Note_off_c, 10, 47, 0
3, 4169, Note_on_c, 10, 49, 110
3, 4258, Note_off_c, 10, 49, 0
3, 4259, Note_on_c, 10, 51, 110
3, 4318, Note_off_c, 10, 51, 0
3, 4319, Note_on_c, 10, 47, 110
3, 4408, Note_off_c, 10, 47, 0
3, 4409, Note_on_c, 10, 49, 110
3, 4498, Note_off_c, 10, 49, 0
3, 4499, Note_on_c, 10, 51, 110
3, 4558, Note_off_c, 10, 51, 0
3, 4559, Note_on_c, 10, 47, 110
3, 4648, Note_off_c, 10, 47, 0
3, 4649, Note_on_c, 10, 49, 110
3, 4738, Note_off_c, 10, 49, 0
3, 4739, Note_on_c, 10, 51, 110
3, 4798, Note_off_c, 10, 51, 0
3, 4799, Note_on_c, 10, 47, 110
3, 4888, Note_off_c, 10, 47, 0
3, 4889, Note_on_c, 10, 49, 110
3, 4978, Note_off_c, 10, 49, 0
3, 4979, Note_on_c, 10, 51, 110
3, 5038, Note_off_c, 10, 51, 0
3, 5039, Note_on_c, 10, 47, 110
3, 5128, Note_off_c, 10, 47, 0
3, 5129, Note_on_c, 10, 49, 110
3, 5218, Note_off_c, 10, 49, 0
3, 5219, Note_on_c, 10, 51, 110
3, 5278, Note_off_c, 10, 51, 0
3, 5279, Note_on_c, 10, 47, 110
3, 5368, Note_off_c, 10, 47, 0
3, 5369, Note_on_c, 10, 49, 110
3, 5458, Note_off_c, 10, 49, 0
3, 5459, Note_on_c, 10, 51, 110
3, 5518, Note_off_c, 10, 51, 0
3, 5519, Note_on_c, 10, 47, 110
3, 5608, Note_off_c, 10, 47, 0
3, 5609, Note_on_c, 10, 49, 110
3, 5698, Note_off_c, 10, 49, 0
3, 5699, Note_on_c, 10, 51, 110
3, 5719, Note_off_c, 10, 51, 0
3, 5759, Note_on_c, 10, 47, 110
3, 5759, Note_on_c, 10, 54, 110
3, 5759, Note_on_c, 10, 59, 110
3, 5848, Note_off_c, 10, 47, 0
3, 5848, Note_off_c, 10, 54, 0
3, 5848, Note_off_c, 10, 59, 0
3, 5849, Note_on_c, 10, 47, 110
3, 5849, Note_on_c, 10, 54, 110
3, 5849, Note_on_c, 10, 59, 110
3, 5938, Note_off_c, 10, 47, 0
3, 5938, Note_off_c, 10, 54, 0
3, 5938, Note_off_c, 10, 59, 0
3, 5939, Note_on_c, 10, 47, 110
3, 5939, Note_on_c, 10, 54, 110
3, 5939, Note_on_c, 10, 59, 110
3, 6039, Note_off_c, 10, 47, 0
3, 6039, Note_off_c, 10, 54, 0
3, 6039, Note_off_c, 10, 59, 0
3, 6239, Note_on_c, 10, 47, 110
3, 6239, Note_on_c, 10, 54, 110
3, 6239, Note_on_c, 10, 59, 110
3, 6328, Note_off_c, 10, 47, 0
3, 6328, Note_off_c, 10, 54, 0
3, 6328, Note_off_c, 10, 59, 0
3, 6329, Note_on_c, 10, 47, 110
3, 6329, Note_on_c, 10, 54, 110
3, 6329, Note_on_c, 10, 59, 110
3, 6418, Note_off_c, 10, 47, 0
3, 6418, Note_off_c, 10, 54, 0
3, 6418, Note_off_c, 10, 59, 0
3, 6419, Note_on_c, 10, 47, 110
3, 6419, Note_on_c, 10, 54, 110
3, 6419, Note_on_c, 10, 59, 110
3, 6519, Note_off_c, 10, 47, 0
3, 6519, Note_off_c, 10, 54, 0
3, 6519, Note_off_c, 10, 59, 0
3, 6719, Note_on_c, 10, 47, 110
3, 6719, Note_on_c, 10, 54, 110
3, 6719, Note_on_c, 10, 59, 110
3, 6808, Note_off_c, 10, 47, 0
3, 6808, Note_off_c, 10, 54, 0
3, 6808, Note_off_c, 10, 59, 0
3, 6809, Note_on_c, 10, 47, 110
3, 6809, Note_on_c, 10, 54, 110
3, 6809, Note_on_c, 10, 59, 110
3, 6898, Note_off_c, 10, 47, 0
3, 6898, Note_off_c, 10, 54, 0
3, 6898, Note_off_c, 10, 59, 0
3, 6899, Note_on_c, 10, 47, 110
3, 6899, Note_on_c, 10, 54, 110
3, 6899, Note_on_c, 10, 59, 110
3, 6999, Note_off_c, 10, 47, 0
3, 6999, Note_off_c, 10, 54, 0
3, 6999, Note_off_c, 10, 59, 0
3, 7199, Note_on_c, 10, 47, 110
3, 7199, Note_on_c, 10, 54, 110
3, 7199, Note_on_c, 10, 59, 110
3, 7288, Note_off_c, 10, 47, 0
3, 7288, Note_off_c, 10, 54, 0
3, 7288, Note_off_c, 10, 59, 0
3, 7289, Note_on_c, 10, 47, 110
3, 7289, Note_on_c, 10, 54, 110
3, 7289, Note_on_c, 10, 59, 110
3, 7378, Note_off_c, 10, 47, 0
3, 7378, Note_off_c, 10, 54, 0
3, 7378, Note_off_c, 10, 59, 0
3, 7379, Note_on_c, 10, 47, 110
3, 7379, Note_on_c, 10, 54, 110
3, 7379, Note_on_c, 10, 59, 110
3, 7479, Note_off_c, 10, 47, 0
3, 7479, Note_off_c, 10, 54, 0
3, 7479, Note_off_c, 10, 59, 0
3, 7679, Note_on_c, 10, 47, 110
3, 7679, Note_on_c, 10, 54, 110
3, 7679, Note_on_c, 10, 59, 110
3, 7768, Note_off_c, 10, 47, 0
3, 7768, Note_off_c, 10, 54, 0
3, 7768, Note_off_c, 10, 59, 0
3, 7769, Note_on_c, 10, 47, 110
3, 7769, Note_on_c, 10, 54, 110
3, 7769, Note_on_c, 10, 59, 110
3, 7858, Note_off_c, 10, 47, 0
3, 7858, Note_off_c, 10, 54, 0
3, 7858, Note_off_c, 10, 59, 0
3, 7859, Note_on_c, 10, 47, 110
3, 7859, Note_on_c, 10, 54, 110
3, 7859, Note_on_c, 10, 59, 110
3, 7959, Note_off_c, 10, 47, 0
3, 7959, Note_off_c, 10, 54, 0
3, 7959, Note_off_c, 10, 59, 0
3, 8159, Note_on_c, 10, 47, 110
3, 8159, Note_on_c, 10, 54, 110
3, 8159, Note_on_c, 10, 59, 110
3, 8248, Note_off_c, 10, 47, 0
3, 8248, Note_off_c, 10, 54, 0
3, 8248, Note_off_c, 10, 59, 0
3, 8249, Note_on_c, 10, 47, 110
3, 8249, Note_on_c, 10, 54, 110
3, 8249, Note_on_c, 10, 59, 110
3, 8338, Note_off_c, 10, 47, 0
3, 8338, Note_off_c, 10, 54, 0
3, 8338, Note_off_c, 10, 59, 0
3, 8339, Note_on_c, 10, 47, 110
3, 8339, Note_on_c, 10, 54, 110
3, 8339, Note_on_c, 10, 59, 110
3, 8439, Note_off_c, 10, 47, 0
3, 8439, Note_off_c, 10, 54, 0
3, 8439, Note_off_c, 10, 59, 0
3, 8639, Note_on_c, 10, 47, 110
3, 8639, Note_on_c, 10, 54, 110
3, 8639, Note_on_c, 10, 59, 110
3, 8728, Note_off_c, 10, 47, 0
3, 8728, Note_off_c, 10, 54, 0
3, 8728, Note_off_c, 10, 59, 0
3, 8729, Note_on_c, 10, 47, 110
3, 8729, Note_on_c, 10, 54, 110
3, 8729, Note_on_c, 10, 59, 110
3, 8818, Note_off_c, 10, 47, 0
3, 8818, Note_off_c, 10, 54, 0
3, 8818, Note_off_c, 10, 59, 0
3, 8819, Note_on_c, 10, 47, 110
3, 8819, Note_on_c, 10, 54, 110
3, 8819, Note_on_c, 10, 59, 110
3, 8919, Note_off_c, 10, 47, 0
3, 8919, Note_off_c, 10, 54, 0
3, 8919, Note_off_c, 10, 59, 0
3, 9119, Note_on_c, 10, 47, 110
3, 9119, Note_on_c, 10, 54, 110
3, 9119, Note_on_c, 10, 59, 110
3, 9208, Note_off_c, 10, 47, 0
3, 9208, Note_off_c, 10, 54, 0
3, 9208, Note_off_c, 10, 59, 0
3, 9209, Note_on_c, 10, 47, 110
3, 9209, Note_on_c, 10, 54, 110
3, 9209, Note_on_c, 10, 59, 110
3, 9298, Note_off_c, 10, 47, 0
3, 9298, Note_off_c, 10, 54, 0
3, 9298, Note_off_c, 10, 59, 0
3, 9299, Note_on_c, 10, 47, 110
3, 9299, Note_on_c, 10, 54, 110
3, 9299, Note_on_c, 10, 59, 110
3, 9399, Note_off_c, 10, 47, 0
3, 9399, Note_off_c, 10, 54, 0
3, 9399, Note_off_c, 10, 59, 0
3, 9399, End_track
4, 0, Start_track
4, 0, Title_t, "Staff-5"
4, 17339, Program_c, 14, 30
4, 17339, Note_on_c, 14, 66, 110
4, 17339, Note_on_c, 14, 71, 110
4, 17339, Note_on_c, 14, 75, 110
4, 17398, Note_off_c, 14, 66, 0
4, 17398, Note_off_c, 14, 71, 0
4, 17398, Note_off_c, 14, 75, 0
4, 17459, Note_on_c, 14, 66, 110
4, 17459, Note_on_c, 14, 71, 110
4, 17459, Note_on_c, 14, 75, 110
4, 17518, Note_off_c, 14, 66, 0
4, 17518, Note_off_c, 14, 71, 0
4, 17518, Note_off_c, 14, 75, 0
4, 17579, Note_on_c, 14, 66, 110
4, 17579, Note_on_c, 14, 71, 110
4, 17579, Note_on_c, 14, 75, 110
4, 17638, Note_off_c, 14, 66, 0
4, 17638, Note_off_c, 14, 71, 0
4, 17638, Note_off_c, 14, 75, 0
4, 17699, Note_on_c, 14, 66, 110
4, 17699, Note_on_c, 14, 71, 110
4, 17699, Note_on_c, 14, 75, 110
4, 17758, Note_off_c, 14, 66, 0
4, 17758, Note_off_c, 14, 71, 0
4, 17758, Note_off_c, 14, 75, 0
4, 17819, Note_on_c, 14, 66, 110
4, 17819, Note_on_c, 14, 71, 110
4, 17819, Note_on_c, 14, 75, 110
4, 17878, Note_off_c, 14, 66, 0
4, 17878, Note_off_c, 14, 71, 0
4, 17878, Note_off_c, 14, 75, 0
4, 17939, Note_on_c, 14, 66, 110
4, 17939, Note_on_c, 14, 71, 110
4, 17939, Note_on_c, 14, 75, 110
4, 17998, Note_off_c, 14, 66, 0
4, 17998, Note_off_c, 14, 71, 0
4, 17998, Note_off_c, 14, 75, 0
4, 18059, Note_on_c, 14, 66, 110
4, 18059, Note_on_c, 14, 71, 110
4, 18059, Note_on_c, 14, 75, 110
4, 18118, Note_off_c, 14, 66, 0
4, 18118, Note_off_c, 14, 71, 0
4, 18118, Note_off_c, 14, 75, 0
4, 18179, Note_on_c, 14, 66, 110
4, 18179, Note_on_c, 14, 71, 110
4, 18179, Note_on_c, 14, 75, 110
4, 18238, Note_off_c, 14, 66, 0
4, 18238, Note_off_c, 14, 71, 0
4, 18238, Note_off_c, 14, 75, 0
4, 18299, Note_on_c, 14, 66, 110
4, 18299, Note_on_c, 14, 71, 110
4, 18299, Note_on_c, 14, 75, 110
4, 18358, Note_off_c, 14, 66, 0
4, 18358, Note_off_c, 14, 71, 0
4, 18358, Note_off_c, 14, 75, 0
4, 18419, Note_on_c, 14, 66, 110
4, 18419, Note_on_c, 14, 71, 110
4, 18419, Note_on_c, 14, 75, 110
4, 18478, Note_off_c, 14, 66, 0
4, 18478, Note_off_c, 14, 71, 0
4, 18478, Note_off_c, 14, 75, 0
4, 18539, Note_on_c, 14, 66, 110
4, 18539, Note_on_c, 14, 71, 110
4, 18539, Note_on_c, 14, 75, 110
4, 18598, Note_off_c, 14, 66, 0
4, 18598, Note_off_c, 14, 71, 0
4, 18598, Note_off_c, 14, 75, 0
4, 18659, Note_on_c, 14, 66, 110
4, 18659, Note_on_c, 14, 71, 110
4, 18659, Note_on_c, 14, 75, 110
4, 18718, Note_off_c, 14, 66, 0
4, 18718, Note_off_c, 14, 71, 0
4, 18718, Note_off_c, 14, 75, 0
4, 18779, Note_on_c, 14, 66, 110
4, 18779, Note_on_c, 14, 71, 110
4, 18779, Note_on_c, 14, 75, 110
4, 18838, Note_off_c, 14, 66, 0
4, 18838, Note_off_c, 14, 71, 0
4, 18838, Note_off_c, 14, 75, 0
4, 18899, Note_on_c, 14, 66, 110
4, 18899, Note_on_c, 14, 71, 110
4, 18899, Note_on_c, 14, 75, 110
4, 18958, Note_off_c, 14, 66, 0
4, 18958, Note_off_c, 14, 71, 0
4, 18958, Note_off_c, 14, 75, 0
4, 19019, Note_on_c, 14, 66, 110
4, 19019, Note_on_c, 14, 71, 110
4, 19019, Note_on_c, 14, 75, 110
4, 19078, Note_off_c, 14, 66, 0
4, 19078, Note_off_c, 14, 71, 0
4, 19078, Note_off_c, 14, 75, 0
4, 19139, Note_on_c, 14, 66, 110
4, 19139, Note_on_c, 14, 71, 110
4, 19139, Note_on_c, 14, 75, 110
4, 19198, Note_off_c, 14, 66, 0
4, 19198, Note_off_c, 14, 71, 0
4, 19198, Note_off_c, 14, 75, 0
4, 19259, Note_on_c, 14, 64, 110
4, 19259, Note_on_c, 14, 68, 110
4, 19259, Note_on_c, 14, 73, 110
4, 19318, Note_off_c, 14, 64, 0
4, 19318, Note_off_c, 14, 68, 0
4, 19318, Note_off_c, 14, 73, 0
4, 19379, Note_on_c, 14, 64, 110
4, 19379, Note_on_c, 14, 68, 110
4, 19379, Note_on_c, 14, 73, 110
4, 19438, Note_off_c, 14, 64, 0
4, 19438, Note_off_c, 14, 68, 0
4, 19438, Note_off_c, 14, 73, 0
4, 19499, Note_on_c, 14, 64, 110
4, 19499, Note_on_c, 14, 68, 110
4, 19499, Note_on_c, 14, 73, 110
4, 19558, Note_off_c, 14, 64, 0
4, 19558, Note_off_c, 14, 68, 0
4, 19558, Note_off_c, 14, 73, 0
4, 19619, Note_on_c, 14, 64, 110
4, 19619, Note_on_c, 14, 68, 110
4, 19619, Note_on_c, 14, 73, 110
4, 19678, Note_off_c, 14, 64, 0
4, 19678, Note_off_c, 14, 68, 0
4, 19678, Note_off_c, 14, 73, 0
4, 19739, Note_on_c, 14, 64, 110
4, 19739, Note_on_c, 14, 68, 110
4, 19739, Note_on_c, 14, 73, 110
4, 19798, Note_off_c, 14, 64, 0
4, 19798, Note_off_c, 14, 68, 0
4, 19798, Note_off_c, 14, 73, 0
4, 19859, Note_on_c, 14, 64, 110
4, 19859, Note_on_c, 14, 68, 110
4, 19859, Note_on_c, 14, 73, 110
4, 19918, Note_off_c, 14, 64, 0
4, 19918, Note_off_c, 14, 68, 0
4, 19918, Note_off_c, 14, 73, 0
4, 19979, Note_on_c, 14, 64, 110
4, 19979, Note_on_c, 14, 68, 110
4, 19979, Note_on_c, 14, 73, 110
4, 20038, Note_off_c, 14, 64, 0
4, 20038, Note_off_c, 14, 68, 0
4, 20038, Note_off_c, 14, 73, 0
4, 20099, Note_on_c, 14, 64, 110
4, 20099, Note_on_c, 14, 68, 110
4, 20099, Note_on_c, 14, 73, 110
4, 20158, Note_off_c, 14, 64, 0
4, 20158, Note_off_c, 14, 68, 0
4, 20158, Note_off_c, 14, 73, 0
4, 20219, Note_on_c, 14, 64, 110
4, 20219, Note_on_c, 14, 68, 110
4, 20219, Note_on_c, 14, 73, 110
4, 20278, Note_off_c, 14, 64, 0
4, 20278, Note_off_c, 14, 68, 0
4, 20278, Note_off_c, 14, 73, 0
4, 20339, Note_on_c, 14, 64, 110
4, 20339, Note_on_c, 14, 68, 110
4, 20339, Note_on_c, 14, 73, 110
4, 20398, Note_off_c, 14, 64, 0
4, 20398, Note_off_c, 14, 68, 0
4, 20398, Note_off_c, 14, 73, 0
4, 20459, Note_on_c, 14, 64, 110
4, 20459, Note_on_c, 14, 68, 110
4, 20459, Note_on_c, 14, 73, 110
4, 20518, Note_off_c, 14, 64, 0
4, 20518, Note_off_c, 14, 68, 0
4, 20518, Note_off_c, 14, 73, 0
4, 20579, Note_on_c, 14, 64, 110
4, 20579, Note_on_c, 14, 68, 110
4, 20579, Note_on_c, 14, 73, 110
4, 20638, Note_off_c, 14, 64, 0
4, 20638, Note_off_c, 14, 68, 0
4, 20638, Note_off_c, 14, 73, 0
4, 20699, Note_on_c, 14, 64, 110
4, 20699, Note_on_c, 14, 68, 110
4, 20699, Note_on_c, 14, 73, 110
4, 20758, Note_off_c, 14, 64, 0
4, 20758, Note_off_c, 14, 68, 0
4, 20758, Note_off_c, 14, 73, 0
4, 20819, Note_on_c, 14, 64, 110
4, 20819, Note_on_c, 14, 68, 110
4, 20819, Note_on_c, 14, 73, 110
4, 20878, Note_off_c, 14, 64, 0
4, 20878, Note_off_c, 14, 68, 0
4, 20878, Note_off_c, 14, 73, 0
4, 20939, Note_on_c, 14, 64, 110
4, 20939, Note_on_c, 14, 68, 110
4, 20939, Note_on_c, 14, 73, 110
4, 20998, Note_off_c, 14, 64, 0
4, 20998, Note_off_c, 14, 68, 0
4, 20998, Note_off_c, 14, 73, 0
4, 21059, Note_on_c, 14, 64, 110
4, 21059, Note_on_c, 14, 68, 110
4, 21059, Note_on_c, 14, 73, 110
4, 21118, Note_off_c, 14, 64, 0
4, 21118, Note_off_c, 14, 68, 0
4, 21118, Note_off_c, 14, 73, 0
4, 21179, Note_on_c, 14, 66, 110
4, 21179, Note_on_c, 14, 71, 110
4, 21179, Note_on_c, 14, 75, 110
4, 21238, Note_off_c, 14, 66, 0
4, 21238, Note_off_c, 14, 71, 0
4, 21238, Note_off_c, 14, 75, 0
4, 21299, Note_on_c, 14, 66, 110
4, 21299, Note_on_c, 14, 71, 110
4, 21299, Note_on_c, 14, 75, 110
4, 21358, Note_off_c, 14, 66, 0
4, 21358, Note_off_c, 14, 71, 0
4, 21358, Note_off_c, 14, 75, 0
4, 21419, Note_on_c, 14, 66, 110
4, 21419, Note_on_c, 14, 71, 110
4, 21419, Note_on_c, 14, 75, 110
4, 21478, Note_off_c, 14, 66, 0
4, 21478, Note_off_c, 14, 71, 0
4, 21478, Note_off_c, 14, 75, 0
4, 21539, Note_on_c, 14, 66, 110
4, 21539, Note_on_c, 14, 71, 110
4, 21539, Note_on_c, 14, 75, 110
4, 21598, Note_off_c, 14, 66, 0
4, 21598, Note_off_c, 14, 71, 0
4, 21598, Note_off_c, 14, 75, 0
4, 21659, Note_on_c, 14, 66, 110
4, 21659, Note_on_c, 14, 71, 110
4, 21659, Note_on_c, 14, 75, 110
4, 21718, Note_off_c, 14, 66, 0
4, 21718, Note_off_c, 14, 71, 0
4, 21718, Note_off_c, 14, 75, 0
4, 21779, Note_on_c, 14, 66, 110
4, 21779, Note_on_c, 14, 71, 110
4, 21779, Note_on_c, 14, 75, 110
4, 21838, Note_off_c, 14, 66, 0
4, 21838, Note_off_c, 14, 71, 0
4, 21838, Note_off_c, 14, 75, 0
4, 21899, Note_on_c, 14, 66, 110
4, 21899, Note_on_c, 14, 71, 110
4, 21899, Note_on_c, 14, 75, 110
4, 21958, Note_off_c, 14, 66, 0
4, 21958, Note_off_c, 14, 71, 0
4, 21958, Note_off_c, 14, 75, 0
4, 22019, Note_on_c, 14, 66, 110
4, 22019, Note_on_c, 14, 71, 110
4, 22019, Note_on_c, 14, 75, 110
4, 22078, Note_off_c, 14, 66, 0
4, 22078, Note_off_c, 14, 71, 0
4, 22078, Note_off_c, 14, 75, 0
4, 22139, Note_on_c, 14, 66, 110
4, 22139, Note_on_c, 14, 71, 110
4, 22139, Note_on_c, 14, 75, 110
4, 22198, Note_off_c, 14, 66, 0
4, 22198, Note_off_c, 14, 71, 0
4, 22198, Note_off_c, 14, 75, 0
4, 22259, Note_on_c, 14, 66, 110
4, 22259, Note_on_c, 14, 71, 110
4, 22259, Note_on_c, 14, 75, 110
4, 22318, Note_off_c, 14, 66, 0
4, 22318, Note_off_c, 14, 71, 0
4, 22318, Note_off_c, 14, 75, 0
4, 22379, Note_on_c, 14, 66, 110
4, 22379, Note_on_c, 14, 71, 110
4, 22379, Note_on_c, 14, 75, 110
4, 22438, Note_off_c, 14, 66, 0
4, 22438, Note_off_c, 14, 71, 0
4, 22438, Note_off_c, 14, 75, 0
4, 22499, Note_on_c, 14, 66, 110
4, 22499, Note_on_c, 14, 71, 110
4, 22499, Note_on_c, 14, 75, 110
4, 22558, Note_off_c, 14, 66, 0
4, 22558, Note_off_c, 14, 71, 0
4, 22558, Note_off_c, 14, 75, 0
4, 22619, Note_on_c, 14, 66, 110
4, 22619, Note_on_c, 14, 71, 110
4, 22619, Note_on_c, 14, 75, 110
4, 22678, Note_off_c, 14, 66, 0
4, 22678, Note_off_c, 14, 71, 0
4, 22678, Note_off_c, 14, 75, 0
4, 22739, Note_on_c, 14, 66, 110
4, 22739, Note_on_c, 14, 71, 110
4, 22739, Note_on_c, 14, 75, 110
4, 22798, Note_off_c, 14, 66, 0
4, 22798, Note_off_c, 14, 71, 0
4, 22798, Note_off_c, 14, 75, 0
4, 22859, Note_on_c, 14, 66, 110
4, 22859, Note_on_c, 14, 71, 110
4, 22859, Note_on_c, 14, 75, 110
4, 22918, Note_off_c, 14, 66, 0
4, 22918, Note_off_c, 14, 71, 0
4, 22918, Note_off_c, 14, 75, 0
4, 22979, Note_on_c, 14, 66, 110
4, 22979, Note_on_c, 14, 71, 110
4, 22979, Note_on_c, 14, 75, 110
4, 23038, Note_off_c, 14, 66, 0
4, 23038, Note_off_c, 14, 71, 0
4, 23038, Note_off_c, 14, 75, 0
4, 23099, Note_on_c, 14, 64, 110
4, 23099, Note_on_c, 14, 68, 110
4, 23099, Note_on_c, 14, 73, 110
4, 23158, Note_off_c, 14, 64, 0
4, 23158, Note_off_c, 14, 68, 0
4, 23158, Note_off_c, 14, 73, 0
4, 23219, Note_on_c, 14, 64, 110
4, 23219, Note_on_c, 14, 68, 110
4, 23219, Note_on_c, 14, 73, 110
4, 23278, Note_off_c, 14, 64, 0
4, 23278, Note_off_c, 14, 68, 0
4, 23278, Note_off_c, 14, 73, 0
4, 23339, Note_on_c, 14, 64, 110
4, 23339, Note_on_c, 14, 68, 110
4, 23339, Note_on_c, 14, 73, 110
4, 23398, Note_off_c, 14, 64, 0
4, 23398, Note_off_c, 14, 68, 0
4, 23398, Note_off_c, 14, 73, 0
4, 23459, Note_on_c, 14, 64, 110
4, 23459, Note_on_c, 14, 68, 110
4, 23459, Note_on_c, 14, 73, 110
4, 23518, Note_off_c, 14, 64, 0
4, 23518, Note_off_c, 14, 68, 0
4, 23518, Note_off_c, 14, 73, 0
4, 23579, Note_on_c, 14, 64, 110
4, 23579, Note_on_c, 14, 68, 110
4, 23579, Note_on_c, 14, 73, 110
4, 23638, Note_off_c, 14, 64, 0
4, 23638, Note_off_c, 14, 68, 0
4, 23638, Note_off_c, 14, 73, 0
4, 23699, Note_on_c, 14, 64, 110
4, 23699, Note_on_c, 14, 68, 110
4, 23699, Note_on_c, 14, 73, 110
4, 23758, Note_off_c, 14, 64, 0
4, 23758, Note_off_c, 14, 68, 0
4, 23758, Note_off_c, 14, 73, 0
4, 23819, Note_on_c, 14, 64, 110
4, 23819, Note_on_c, 14, 68, 110
4, 23819, Note_on_c, 14, 73, 110
4, 23878, Note_off_c, 14, 64, 0
4, 23878, Note_off_c, 14, 68, 0
4, 23878, Note_off_c, 14, 73, 0
4, 23939, Note_on_c, 14, 64, 110
4, 23939, Note_on_c, 14, 68, 110
4, 23939, Note_on_c, 14, 73, 110
4, 23998, Note_off_c, 14, 64, 0
4, 23998, Note_off_c, 14, 68, 0
4, 23998, Note_off_c, 14, 73, 0
4, 24059, Note_on_c, 14, 64, 110
4, 24059, Note_on_c, 14, 68, 110
4, 24059, Note_on_c, 14, 73, 110
4, 24118, Note_off_c, 14, 64, 0
4, 24118, Note_off_c, 14, 68, 0
4, 24118, Note_off_c, 14, 73, 0
4, 24179, Note_on_c, 14, 64, 110
4, 24179, Note_on_c, 14, 68, 110
4, 24179, Note_on_c, 14, 73, 110
4, 24238, Note_off_c, 14, 64, 0
4, 24238, Note_off_c, 14, 68, 0
4, 24238, Note_off_c, 14, 73, 0
4, 24299, Note_on_c, 14, 64, 110
4, 24299, Note_on_c, 14, 68, 110
4, 24299, Note_on_c, 14, 73, 110
4, 24358, Note_off_c, 14, 64, 0
4, 24358, Note_off_c, 14, 68, 0
4, 24358, Note_off_c, 14, 73, 0
4, 24419, Note_on_c, 14, 64, 110
4, 24419, Note_on_c, 14, 68, 110
4, 24419, Note_on_c, 14, 73, 110
4, 24478, Note_off_c, 14, 64, 0
4, 24478, Note_off_c, 14, 68, 0
4, 24478, Note_off_c, 14, 73, 0
4, 24539, Note_on_c, 14, 64, 110
4, 24539, Note_on_c, 14, 68, 110
4, 24539, Note_on_c, 14, 73, 110
4, 24598, Note_off_c, 14, 64, 0
4, 24598, Note_off_c, 14, 68, 0
4, 24598, Note_off_c, 14, 73, 0
4, 24659, Note_on_c, 14, 64, 110
4, 24659, Note_on_c, 14, 68, 110
4, 24659, Note_on_c, 14, 73, 110
4, 24718, Note_off_c, 14, 64, 0
4, 24718, Note_off_c, 14, 68, 0
4, 24718, Note_off_c, 14, 73, 0
4, 24779, Note_on_c, 14, 64, 110
4, 24779, Note_on_c, 14, 68, 110
4, 24779, Note_on_c, 14, 73, 110
4, 24838, Note_off_c, 14, 64, 0
4, 24838, Note_off_c, 14, 68, 0
4, 24838, Note_off_c, 14, 73, 0
4, 24899, Note_on_c, 14, 64, 110
4, 24899, Note_on_c, 14, 68, 110
4, 24899, Note_on_c, 14, 73, 110
4, 24958, Note_off_c, 14, 64, 0
4, 24958, Note_off_c, 14, 68, 0
4, 24958, Note_off_c, 14, 73, 0
4, 25019, Note_on_c, 14, 66, 110
4, 25019, Note_on_c, 14, 71, 110
4, 25019, Note_on_c, 14, 75, 110
4, 25078, Note_off_c, 14, 66, 0
4, 25078, Note_off_c, 14, 71, 0
4, 25078, Note_off_c, 14, 75, 0
4, 25139, Note_on_c, 14, 66, 110
4, 25139, Note_on_c, 14, 71, 110
4, 25139, Note_on_c, 14, 75, 110
4, 25198, Note_off_c, 14, 66, 0
4, 25198, Note_off_c, 14, 71, 0
4, 25198, Note_off_c, 14, 75, 0
4, 25259, Note_on_c, 14, 66, 110
4, 25259, Note_on_c, 14, 71, 110
4, 25259, Note_on_c, 14, 75, 110
4, 25318, Note_off_c, 14, 66, 0
4, 25318, Note_off_c, 14, 71, 0
4, 25318, Note_off_c, 14, 75, 0
4, 25379, Note_on_c, 14, 66, 110
4, 25379, Note_on_c, 14, 71, 110
4, 25379, Note_on_c, 14, 75, 110
4, 25438, Note_off_c, 14, 66, 0
4, 25438, Note_off_c, 14, 71, 0
4, 25438, Note_off_c, 14, 75, 0
4, 25499, Note_on_c, 14, 66, 110
4, 25499, Note_on_c, 14, 71, 110
4, 25499, Note_on_c, 14, 75, 110
4, 25558, Note_off_c, 14, 66, 0
4, 25558, Note_off_c, 14, 71, 0
4, 25558, Note_off_c, 14, 75, 0
4, 25619, Note_on_c, 14, 66, 110
4, 25619, Note_on_c, 14, 71, 110
4, 25619, Note_on_c, 14, 75, 110
4, 25678, Note_off_c, 14, 66, 0
4, 25678, Note_off_c, 14, 71, 0
4, 25678, Note_off_c, 14, 75, 0
4, 25739, Note_on_c, 14, 66, 110
4, 25739, Note_on_c, 14, 71, 110
4, 25739, Note_on_c, 14, 75, 110
4, 25798, Note_off_c, 14, 66, 0
4, 25798, Note_off_c, 14, 71, 0
4, 25798, Note_off_c, 14, 75, 0
4, 25859, Note_on_c, 14, 66, 110
4, 25859, Note_on_c, 14, 71, 110
4, 25859, Note_on_c, 14, 75, 110
4, 25918, Note_off_c, 14, 66, 0
4, 25918, Note_off_c, 14, 71, 0
4, 25918, Note_off_c, 14, 75, 0
4, 25979, Note_on_c, 14, 66, 110
4, 25979, Note_on_c, 14, 71, 110
4, 25979, Note_on_c, 14, 75, 110
4, 26038, Note_off_c, 14, 66, 0
4, 26038, Note_off_c, 14, 71, 0
4, 26038, Note_off_c, 14, 75, 0
4, 26099, Note_on_c, 14, 66, 110
4, 26099, Note_on_c, 14, 71, 110
4, 26099, Note_on_c, 14, 75, 110
4, 26158, Note_off_c, 14, 66, 0
4, 26158, Note_off_c, 14, 71, 0
4, 26158, Note_off_c, 14, 75, 0
4, 26219, Note_on_c, 14, 66, 110
4, 26219, Note_on_c, 14, 71, 110
4, 26219, Note_on_c, 14, 75, 110
4, 26278, Note_off_c, 14, 66, 0
4, 26278, Note_off_c, 14, 71, 0
4, 26278, Note_off_c, 14, 75, 0
4, 26339, Note_on_c, 14, 66, 110
4, 26339, Note_on_c, 14, 71, 110
4, 26339, Note_on_c, 14, 75, 110
4, 26398, Note_off_c, 14, 66, 0
4, 26398, Note_off_c, 14, 71, 0
4, 26398, Note_off_c, 14, 75, 0
4, 26459, Note_on_c, 14, 66, 110
4, 26459, Note_on_c, 14, 71, 110
4, 26459, Note_on_c, 14, 75, 110
4, 26518, Note_off_c, 14, 66, 0
4, 26518, Note_off_c, 14, 71, 0
4, 26518, Note_off_c, 14, 75, 0
4, 26579, Note_on_c, 14, 66, 110
4, 26579, Note_on_c, 14, 71, 110
4, 26579, Note_on_c, 14, 75, 110
4, 26638, Note_off_c, 14, 66, 0
4, 26638, Note_off_c, 14, 71, 0
4, 26638, Note_off_c, 14, 75, 0
4, 26699, Note_on_c, 14, 66, 110
4, 26699, Note_on_c, 14, 71, 110
4, 26699, Note_on_c, 14, 75, 110
4, 26758, Note_off_c, 14, 66, 0
4, 26758, Note_off_c, 14, 71, 0
4, 26758, Note_off_c, 14, 75, 0
4, 26819, Note_on_c, 14, 66, 110
4, 26819, Note_on_c, 14, 71, 110
4, 26819, Note_on_c, 14, 75, 110
4, 26878, Note_off_c, 14, 66, 0
4, 26878, Note_off_c, 14, 71, 0
4, 26878, Note_off_c, 14, 75, 0
4, 26939, Note_on_c, 14, 64, 110
4, 26939, Note_on_c, 14, 68, 110
4, 26939, Note_on_c, 14, 73, 110
4, 26998, Note_off_c, 14, 64, 0
4, 26998, Note_off_c, 14, 68, 0
4, 26998, Note_off_c, 14, 73, 0
4, 27059, Note_on_c, 14, 64, 110
4, 27059, Note_on_c, 14, 68, 110
4, 27059, Note_on_c, 14, 73, 110
4, 27118, Note_off_c, 14, 64, 0
4, 27118, Note_off_c, 14, 68, 0
4, 27118, Note_off_c, 14, 73, 0
4, 27179, Note_on_c, 14, 64, 110
4, 27179, Note_on_c, 14, 68, 110
4, 27179, Note_on_c, 14, 73, 110
4, 27238, Note_off_c, 14, 64, 0
4, 27238, Note_off_c, 14, 68, 0
4, 27238, Note_off_c, 14, 73, 0
4, 27299, Note_on_c, 14, 64, 110
4, 27299, Note_on_c, 14, 68, 110
4, 27299, Note_on_c, 14, 73, 110
4, 27358, Note_off_c, 14, 64, 0
4, 27358, Note_off_c, 14, 68, 0
4, 27358, Note_off_c, 14, 73, 0
4, 27419, Note_on_c, 14, 64, 110
4, 27419, Note_on_c, 14, 68, 110
4, 27419, Note_on_c, 14, 73, 110
4, 27478, Note_off_c, 14, 64, 0
4, 27478, Note_off_c, 14, 68, 0
4, 27478, Note_off_c, 14, 73, 0
4, 27539, Note_on_c, 14, 64, 110
4, 27539, Note_on_c, 14, 68, 110
4, 27539, Note_on_c, 14, 73, 110
4, 27598, Note_off_c, 14, 64, 0
4, 27598, Note_off_c, 14, 68, 0
4, 27598, Note_off_c, 14, 73, 0
4, 27659, Note_on_c, 14, 64, 110
4, 27659, Note_on_c, 14, 68, 110
4, 27659, Note_on_c, 14, 73, 110
4, 27718, Note_off_c, 14, 64, 0
4, 27718, Note_off_c, 14, 68, 0
4, 27718, Note_off_c, 14, 73, 0
4, 27779, Note_on_c, 14, 64, 110
4, 27779, Note_on_c, 14, 68, 110
4, 27779, Note_on_c, 14, 73, 110
4, 27838, Note_off_c, 14, 64, 0
4, 27838, Note_off_c, 14, 68, 0
4, 27838, Note_off_c, 14, 73, 0
4, 27899, Note_on_c, 14, 64, 110
4, 27899, Note_on_c, 14, 68, 110
4, 27899, Note_on_c, 14, 73, 110
4, 27958, Note_off_c, 14, 64, 0
4, 27958, Note_off_c, 14, 68, 0
4, 27958, Note_off_c, 14, 73, 0
4, 28019, Note_on_c, 14, 64, 110
4, 28019, Note_on_c, 14, 68, 110
4, 28019, Note_on_c, 14, 73, 110
4, 28078, Note_off_c, 14, 64, 0
4, 28078, Note_off_c, 14, 68, 0
4, 28078, Note_off_c, 14, 73, 0
4, 28139, Note_on_c, 14, 64, 110
4, 28139, Note_on_c, 14, 68, 110
4, 28139, Note_on_c, 14, 73, 110
4, 28198, Note_off_c, 14, 64, 0
4, 28198, Note_off_c, 14, 68, 0
4, 28198, Note_off_c, 14, 73, 0
4, 28259, Note_on_c, 14, 64, 110
4, 28259, Note_on_c, 14, 68, 110
4, 28259, Note_on_c, 14, 73, 110
4, 28318, Note_off_c, 14, 64, 0
4, 28318, Note_off_c, 14, 68, 0
4, 28318, Note_off_c, 14, 73, 0
4, 28379, Note_on_c, 14, 64, 110
4, 28379, Note_on_c, 14, 68, 110
4, 28379, Note_on_c, 14, 73, 110
4, 28438, Note_off_c, 14, 64, 0
4, 28438, Note_off_c, 14, 68, 0
4, 28438, Note_off_c, 14, 73, 0
4, 28499, Note_on_c, 14, 64, 110
4, 28499, Note_on_c, 14, 68, 110
4, 28499, Note_on_c, 14, 73, 110
4, 28558, Note_off_c, 14, 64, 0
4, 28558, Note_off_c, 14, 68, 0
4, 28558, Note_off_c, 14, 73, 0
4, 28619, Note_on_c, 14, 64, 110
4, 28619, Note_on_c, 14, 68, 110
4, 28619, Note_on_c, 14, 73, 110
4, 28678, Note_off_c, 14, 64, 0
4, 28678, Note_off_c, 14, 68, 0
4, 28678, Note_off_c, 14, 73, 0
4, 28739, Note_on_c, 14, 64, 110
4, 28739, Note_on_c, 14, 68, 110
4, 28739, Note_on_c, 14, 73, 110
4, 28798, Note_off_c, 14, 64, 0
4, 28798, Note_off_c, 14, 68, 0
4, 28798, Note_off_c, 14, 73, 0
4, 28799, Note_on_c, 14, 68, 110
4, 28959, Note_off_c, 14, 68, 0
4, 28979, Note_on_c, 14, 68, 110
4, 29079, Note_off_c, 14, 68, 0
4, 29099, Note_on_c, 14, 66, 110
4, 29158, Note_off_c, 14, 66, 0
4, 29159, Note_on_c, 14, 63, 110
4, 29259, Note_off_c, 14, 63, 0
4, 29279, Note_on_c, 14, 61, 110
4, 29439, Note_off_c, 14, 61, 0
4, 29459, Note_on_c, 14, 68, 110
4, 29559, Note_off_c, 14, 68, 0
4, 29579, Note_on_c, 14, 66, 110
4, 29638, Note_off_c, 14, 66, 0
4, 29639, Note_on_c, 14, 63, 110
4, 29739, Note_off_c, 14, 63, 0
4, 29759, Note_on_c, 14, 59, 110
4, 29919, Note_off_c, 14, 59, 0
4, 29939, Note_on_c, 14, 68, 110
4, 30039, Note_off_c, 14, 68, 0
4, 30059, Note_on_c, 14, 66, 110
4, 30118, Note_off_c, 14, 66, 0
4, 30119, Note_on_c, 14, 63, 110
4, 30219, Note_off_c, 14, 63, 0
4, 30239, Note_on_c, 14, 59, 110
4, 30399, Note_off_c, 14, 59, 0
4, 30419, Note_on_c, 14, 68, 110
4, 30519, Note_off_c, 14, 68, 0
4, 30539, Note_on_c, 14, 66, 110
4, 30598, Note_off_c, 14, 66, 0
4, 30599, Note_on_c, 14, 63, 110
4, 30699, Note_off_c, 14, 63, 0
4, 30719, Note_on_c, 14, 59, 110
4, 30879, Note_off_c, 14, 59, 0
4, 30899, Note_on_c, 14, 61, 110
4, 31059, Note_off_c, 14, 61, 0
4, 31079, Note_on_c, 14, 63, 110
4, 31179, Note_off_c, 14, 63, 0
4, 31199, Note_on_c, 14, 59, 110
4, 31359, Note_off_c, 14, 59, 0
4, 31379, Note_on_c, 14, 61, 110
4, 31539, Note_off_c, 14, 61, 0
4, 31559, Note_on_c, 14, 63, 110
4, 31659, Note_off_c, 14, 63, 0
4, 31679, Note_on_c, 14, 59, 110
4, 31839, Note_off_c, 14, 59, 0
4, 31859, Note_on_c, 14, 61, 110
4, 32019, Note_off_c, 14, 61, 0
4, 32039, Note_on_c, 14, 63, 110
4, 32139, Note_off_c, 14, 63, 0
4, 32159, Note_on_c, 14, 56, 110
4, 32319, Note_off_c, 14, 56, 0
4, 32339, Note_on_c, 14, 64, 110
4, 32439, Note_off_c, 14, 64, 0
4, 32459, Note_on_c, 14, 60, 110
4, 32518, Note_off_c, 14, 60, 0
4, 32519, Note_on_c, 14, 61, 110
4, 32619, Note_off_c, 14, 61, 0
4, 32699, Note_on_c, 14, 66, 110
4, 32699, Note_on_c, 14, 71, 110
4, 32699, Note_on_c, 14, 75, 110
4, 32758, Note_off_c, 14, 66, 0
4, 32758, Note_off_c, 14, 71, 0
4, 32758, Note_off_c, 14, 75, 0
4, 32819, Note_on_c, 14, 66, 110
4, 32819, Note_on_c, 14, 71, 110
4, 32819, Note_on_c, 14, 75, 110
4, 32878, Note_off_c, 14, 66, 0
4, 32878, Note_off_c, 14, 71, 0
4, 32878, Note_off_c, 14, 75, 0
4, 32939, Note_on_c, 14, 66, 110
4, 32939, Note_on_c, 14, 71, 110
4, 32939, Note_on_c, 14, 75, 110
4, 32998, Note_off_c, 14, 66, 0
4, 32998, Note_off_c, 14, 71, 0
4, 32998, Note_off_c, 14, 75, 0
4, 33059, Note_on_c, 14, 66, 110
4, 33059, Note_on_c, 14, 71, 110
4, 33059, Note_on_c, 14, 75, 110
4, 33118, Note_off_c, 14, 66, 0
4, 33118, Note_off_c, 14, 71, 0
4, 33118, Note_off_c, 14, 75, 0
4, 33179, Note_on_c, 14, 66, 110
4, 33179, Note_on_c, 14, 71, 110
4, 33179, Note_on_c, 14, 75, 110
4, 33238, Note_off_c, 14, 66, 0
4, 33238, Note_off_c, 14, 71, 0
4, 33238, Note_off_c, 14, 75, 0
4, 33299, Note_on_c, 14, 66, 110
4, 33299, Note_on_c, 14, 71, 110
4, 33299, Note_on_c, 14, 75, 110
4, 33358, Note_off_c, 14, 66, 0
4, 33358, Note_off_c, 14, 71, 0
4, 33358, Note_off_c, 14, 75, 0
4, 33419, Note_on_c, 14, 66, 110
4, 33419, Note_on_c, 14, 71, 110
4, 33419, Note_on_c, 14, 75, 110
4, 33478, Note_off_c, 14, 66, 0
4, 33478, Note_off_c, 14, 71, 0
4, 33478, Note_off_c, 14, 75, 0
4, 33539, Note_on_c, 14, 66, 110
4, 33539, Note_on_c, 14, 71, 110
4, 33539, Note_on_c, 14, 75, 110
4, 33598, Note_off_c, 14, 66, 0
4, 33598, Note_off_c, 14, 71, 0
4, 33598, Note_off_c, 14, 75, 0
4, 33659, Note_on_c, 14, 66, 110
4, 33659, Note_on_c, 14, 71, 110
4, 33659, Note_on_c, 14, 75, 110
4, 33718, Note_off_c, 14, 66, 0
4, 33718, Note_off_c, 14, 71, 0
4, 33718, Note_off_c, 14, 75, 0
4, 33779, Note_on_c, 14, 66, 110
4, 33779, Note_on_c, 14, 71, 110
4, 33779, Note_on_c, 14, 75, 110
4, 33838, Note_off_c, 14, 66, 0
4, 33838, Note_off_c, 14, 71, 0
4, 33838, Note_off_c, 14, 75, 0
4, 33899, Note_on_c, 14, 66, 110
4, 33899, Note_on_c, 14, 71, 110
4, 33899, Note_on_c, 14, 75, 110
4, 33958, Note_off_c, 14, 66, 0
4, 33958, Note_off_c, 14, 71, 0
4, 33958, Note_off_c, 14, 75, 0
4, 34019, Note_on_c, 14, 66, 110
4, 34019, Note_on_c, 14, 71, 110
4, 34019, Note_on_c, 14, 75, 110
4, 34078, Note_off_c, 14, 66, 0
4, 34078, Note_off_c, 14, 71, 0
4, 34078, Note_off_c, 14, 75, 0
4, 34139, Note_on_c, 14, 66, 110
4, 34139, Note_on_c, 14, 71, 110
4, 34139, Note_on_c, 14, 75, 110
4, 34198, Note_off_c, 14, 66, 0
4, 34198, Note_off_c, 14, 71, 0
4, 34198, Note_off_c, 14, 75, 0
4, 34259, Note_on_c, 14, 66, 110
4, 34259, Note_on_c, 14, 71, 110
4, 34259, Note_on_c, 14, 75, 110
4, 34318, Note_off_c, 14, 66, 0
4, 34318, Note_off_c, 14, 71, 0
4, 34318, Note_off_c, 14, 75, 0
4, 34379, Note_on_c, 14, 66, 110
4, 34379, Note_on_c, 14, 71, 110
4, 34379, Note_on_c, 14, 75, 110
4, 34438, Note_off_c, 14, 66, 0
4, 34438, Note_off_c, 14, 71, 0
4, 34438, Note_off_c, 14, 75, 0
4, 34499, Note_on_c, 14, 66, 110
4, 34499, Note_on_c, 14, 71, 110
4, 34499, Note_on_c, 14, 75, 110
4, 34558, Note_off_c, 14, 66, 0
4, 34558, Note_off_c, 14, 71, 0
4, 34558, Note_off_c, 14, 75, 0
4, 34619, Note_on_c, 14, 64, 110
4, 34619, Note_on_c, 14, 68, 110
4, 34619, Note_on_c, 14, 73, 110
4, 34678, Note_off_c, 14, 64, 0
4, 34678, Note_off_c, 14, 68, 0
4, 34678, Note_off_c, 14, 73, 0
4, 34739, Note_on_c, 14, 64, 110
4, 34739, Note_on_c, 14, 68, 110
4, 34739, Note_on_c, 14, 73, 110
4, 34798, Note_off_c, 14, 64, 0
4, 34798, Note_off_c, 14, 68, 0
4, 34798, Note_off_c, 14, 73, 0
4, 34859, Note_on_c, 14, 64, 110
4, 34859, Note_on_c, 14, 68, 110
4, 34859, Note_on_c, 14, 73, 110
4, 34918, Note_off_c, 14, 64, 0
4, 34918, Note_off_c, 14, 68, 0
4, 34918, Note_off_c, 14, 73, 0
4, 34979, Note_on_c, 14, 64, 110
4, 34979, Note_on_c, 14, 68, 110
4, 34979, Note_on_c, 14, 73, 110
4, 35038, Note_off_c, 14, 64, 0
4, 35038, Note_off_c, 14, 68, 0
4, 35038, Note_off_c, 14, 73, 0
4, 35099, Note_on_c, 14, 64, 110
4, 35099, Note_on_c, 14, 68, 110
4, 35099, Note_on_c, 14, 73, 110
4, 35158, Note_off_c, 14, 64, 0
4, 35158, Note_off_c, 14, 68, 0
4, 35158, Note_off_c, 14, 73, 0
4, 35219, Note_on_c, 14, 64, 110
4, 35219, Note_on_c, 14, 68, 110
4, 35219, Note_on_c, 14, 73, 110
4, 35278, Note_off_c, 14, 64, 0
4, 35278, Note_off_c, 14, 68, 0
4, 35278, Note_off_c, 14, 73, 0
4, 35339, Note_on_c, 14, 64, 110
4, 35339, Note_on_c, 14, 68, 110
4, 35339, Note_on_c, 14, 73, 110
4, 35398, Note_off_c, 14, 64, 0
4, 35398, Note_off_c, 14, 68, 0
4, 35398, Note_off_c, 14, 73, 0
4, 35459, Note_on_c, 14, 64, 110
4, 35459, Note_on_c, 14, 68, 110
4, 35459, Note_on_c, 14, 73, 110
4, 35518, Note_off_c, 14, 64, 0
4, 35518, Note_off_c, 14, 68, 0
4, 35518, Note_off_c, 14, 73, 0
4, 35579, Note_on_c, 14, 64, 110
4, 35579, Note_on_c, 14, 68, 110
4, 35579, Note_on_c, 14, 73, 110
4, 35638, Note_off_c, 14, 64, 0
4, 35638, Note_off_c, 14, 68, 0
4, 35638, Note_off_c, 14, 73, 0
4, 35699, Note_on_c, 14, 64, 110
4, 35699, Note_on_c, 14, 68, 110
4, 35699, Note_on_c, 14, 73, 110
4, 35758, Note_off_c, 14, 64, 0
4, 35758, Note_off_c, 14, 68, 0
4, 35758, Note_off_c, 14, 73, 0
4, 35819, Note_on_c, 14, 64, 110
4, 35819, Note_on_c, 14, 68, 110
4, 35819, Note_on_c, 14, 73, 110
4, 35878, Note_off_c, 14, 64, 0
4, 35878, Note_off_c, 14, 68, 0
4, 35878, Note_off_c, 14, 73, 0
4, 35939, Note_on_c, 14, 64, 110
4, 35939, Note_on_c, 14, 68, 110
4, 35939, Note_on_c, 14, 73, 110
4, 35998, Note_off_c, 14, 64, 0
4, 35998, Note_off_c, 14, 68, 0
4, 35998, Note_off_c, 14, 73, 0
4, 36059, Note_on_c, 14, 64, 110
4, 36059, Note_on_c, 14, 68, 110
4, 36059, Note_on_c, 14, 73, 110
4, 36118, Note_off_c, 14, 64, 0
4, 36118, Note_off_c, 14, 68, 0
4, 36118, Note_off_c, 14, 73, 0
4, 36179, Note_on_c, 14, 64, 110
4, 36179, Note_on_c, 14, 68, 110
4, 36179, Note_on_c, 14, 73, 110
4, 36238, Note_off_c, 14, 64, 0
4, 36238, Note_off_c, 14, 68, 0
4, 36238, Note_off_c, 14, 73, 0
4, 36299, Note_on_c, 14, 64, 110
4, 36299, Note_on_c, 14, 68, 110
4, 36299, Note_on_c, 14, 73, 110
4, 36358, Note_off_c, 14, 64, 0
4, 36358, Note_off_c, 14, 68, 0
4, 36358, Note_off_c, 14, 73, 0
4, 36419, Note_on_c, 14, 64, 110
4, 36419, Note_on_c, 14, 68, 110
4, 36419, Note_on_c, 14, 73, 110
4, 36478, Note_off_c, 14, 64, 0
4, 36478, Note_off_c, 14, 68, 0
4, 36478, Note_off_c, 14, 73, 0
4, 36539, Note_on_c, 14, 66, 110
4, 36539, Note_on_c, 14, 71, 110
4, 36539, Note_on_c, 14, 75, 110
4, 36598, Note_off_c, 14, 66, 0
4, 36598, Note_off_c, 14, 71, 0
4, 36598, Note_off_c, 14, 75, 0
4, 36659, Note_on_c, 14, 66, 110
4, 36659, Note_on_c, 14, 71, 110
4, 36659, Note_on_c, 14, 75, 110
4, 36718, Note_off_c, 14, 66, 0
4, 36718, Note_off_c, 14, 71, 0
4, 36718, Note_off_c, 14, 75, 0
4, 36779, Note_on_c, 14, 66, 110
4, 36779, Note_on_c, 14, 71, 110
4, 36779, Note_on_c, 14, 75, 110
4, 36838, Note_off_c, 14, 66, 0
4, 36838, Note_off_c, 14, 71, 0
4, 36838, Note_off_c, 14, 75, 0
4, 36899, Note_on_c, 14, 66, 110
4, 36899, Note_on_c, 14, 71, 110
4, 36899, Note_on_c, 14, 75, 110
4, 36958, Note_off_c, 14, 66, 0
4, 36958, Note_off_c, 14, 71, 0
4, 36958, Note_off_c, 14, 75, 0
4, 37019, Note_on_c, 14, 66, 110
4, 37019, Note_on_c, 14, 71, 110
4, 37019, Note_on_c, 14, 75, 110
4, 37078, Note_off_c, 14, 66, 0
4, 37078, Note_off_c, 14, 71, 0
4, 37078, Note_off_c, 14, 75, 0
4, 37139, Note_on_c, 14, 66, 110
4, 37139, Note_on_c, 14, 71, 110
4, 37139, Note_on_c, 14, 75, 110
4, 37198, Note_off_c, 14, 66, 0
4, 37198, Note_off_c, 14, 71, 0
4, 37198, Note_off_c, 14, 75, 0
4, 37259, Note_on_c, 14, 66, 110
4, 37259, Note_on_c, 14, 71, 110
4, 37259, Note_on_c, 14, 75, 110
4, 37318, Note_off_c, 14, 66, 0
4, 37318, Note_off_c, 14, 71, 0
4, 37318, Note_off_c, 14, 75, 0
4, 37379, Note_on_c, 14, 66, 110
4, 37379, Note_on_c, 14, 71, 110
4, 37379, Note_on_c, 14, 75, 110
4, 37438, Note_off_c, 14, 66, 0
4, 37438, Note_off_c, 14, 71, 0
4, 37438, Note_off_c, 14, 75, 0
4, 37499, Note_on_c, 14, 66, 110
4, 37499, Note_on_c, 14, 71, 110
4, 37499, Note_on_c, 14, 75, 110
4, 37558, Note_off_c, 14, 66, 0
4, 37558, Note_off_c, 14, 71, 0
4, 37558, Note_off_c, 14, 75, 0
4, 37619, Note_on_c, 14, 66, 110
4, 37619, Note_on_c, 14, 71, 110
4, 37619, Note_on_c, 14, 75, 110
4, 37678, Note_off_c, 14, 66, 0
4, 37678, Note_off_c, 14, 71, 0
4, 37678, Note_off_c, 14, 75, 0
4, 37739, Note_on_c, 14, 66, 110
4, 37739, Note_on_c, 14, 71, 110
4, 37739, Note_on_c, 14, 75, 110
4, 37798, Note_off_c, 14, 66, 0
4, 37798, Note_off_c, 14, 71, 0
4, 37798, Note_off_c, 14, 75, 0
4, 37859, Note_on_c, 14, 66, 110
4, 37859, Note_on_c, 14, 71, 110
4, 37859, Note_on_c, 14, 75, 110
4, 37918, Note_off_c, 14, 66, 0
4, 37918, Note_off_c, 14, 71, 0
4, 37918, Note_off_c, 14, 75, 0
4, 37979, Note_on_c, 14, 66, 110
4, 37979, Note_on_c, 14, 71, 110
4, 37979, Note_on_c, 14, 75, 110
4, 38038, Note_off_c, 14, 66, 0
4, 38038, Note_off_c, 14, 71, 0
4, 38038, Note_off_c, 14, 75, 0
4, 38099, Note_on_c, 14, 66, 110
4, 38099, Note_on_c, 14, 71, 110
4, 38099, Note_on_c, 14, 75, 110
4, 38158, Note_off_c, 14, 66, 0
4, 38158, Note_off_c, 14, 71, 0
4, 38158, Note_off_c, 14, 75, 0
4, 38219, Note_on_c, 14, 66, 110
4, 38219, Note_on_c, 14, 71, 110
4, 38219, Note_on_c, 14, 75, 110
4, 38278, Note_off_c, 14, 66, 0
4, 38278, Note_off_c, 14, 71, 0
4, 38278, Note_off_c, 14, 75, 0
4, 38339, Note_on_c, 14, 66, 110
4, 38339, Note_on_c, 14, 71, 110
4, 38339, Note_on_c, 14, 75, 110
4, 38398, Note_off_c, 14, 66, 0
4, 38398, Note_off_c, 14, 71, 0
4, 38398, Note_off_c, 14, 75, 0
4, 38459, Note_on_c, 14, 64, 110
4, 38459, Note_on_c, 14, 68, 110
4, 38459, Note_on_c, 14, 73, 110
4, 38518, Note_off_c, 14, 64, 0
4, 38518, Note_off_c, 14, 68, 0
4, 38518, Note_off_c, 14, 73, 0
4, 38579, Note_on_c, 14, 64, 110
4, 38579, Note_on_c, 14, 68, 110
4, 38579, Note_on_c, 14, 73, 110
4, 38638, Note_off_c, 14, 64, 0
4, 38638, Note_off_c, 14, 68, 0
4, 38638, Note_off_c, 14, 73, 0
4, 38699, Note_on_c, 14, 64, 110
4, 38699, Note_on_c, 14, 68, 110
4, 38699, Note_on_c, 14, 73, 110
4, 38758, Note_off_c, 14, 64, 0
4, 38758, Note_off_c, 14, 68, 0
4, 38758, Note_off_c, 14, 73, 0
4, 38819, Note_on_c, 14, 64, 110
4, 38819, Note_on_c, 14, 68, 110
4, 38819, Note_on_c, 14, 73, 110
4, 38878, Note_off_c, 14, 64, 0
4, 38878, Note_off_c, 14, 68, 0
4, 38878, Note_off_c, 14, 73, 0
4, 38939, Note_on_c, 14, 64, 110
4, 38939, Note_on_c, 14, 68, 110
4, 38939, Note_on_c, 14, 73, 110
4, 38998, Note_off_c, 14, 64, 0
4, 38998, Note_off_c, 14, 68, 0
4, 38998, Note_off_c, 14, 73, 0
4, 39059, Note_on_c, 14, 64, 110
4, 39059, Note_on_c, 14, 68, 110
4, 39059, Note_on_c, 14, 73, 110
4, 39118, Note_off_c, 14, 64, 0
4, 39118, Note_off_c, 14, 68, 0
4, 39118, Note_off_c, 14, 73, 0
4, 39179, Note_on_c, 14, 64, 110
4, 39179, Note_on_c, 14, 68, 110
4, 39179, Note_on_c, 14, 73, 110
4, 39238, Note_off_c, 14, 64, 0
4, 39238, Note_off_c, 14, 68, 0
4, 39238, Note_off_c, 14, 73, 0
4, 39299, Note_on_c, 14, 73, 110
4, 39299, Note_on_c, 14, 64, 110
4, 39299, Note_on_c, 14, 68, 110
4, 39358, Note_off_c, 14, 73, 0
4, 39358, Note_off_c, 14, 64, 0
4, 39358, Note_off_c, 14, 68, 0
4, 39419, Note_on_c, 14, 64, 110
4, 39419, Note_on_c, 14, 68, 110
4, 39419, Note_on_c, 14, 73, 110
4, 39478, Note_off_c, 14, 64, 0
4, 39478, Note_off_c, 14, 68, 0
4, 39478, Note_off_c, 14, 73, 0
4, 39539, Note_on_c, 14, 64, 110
4, 39539, Note_on_c, 14, 68, 110
4, 39539, Note_on_c, 14, 73, 110
4, 39598, Note_off_c, 14, 64, 0
4, 39598, Note_off_c, 14, 68, 0
4, 39598, Note_off_c, 14, 73, 0
4, 39659, Note_on_c, 14, 64, 110
4, 39659, Note_on_c, 14, 68, 110
4, 39659, Note_on_c, 14, 73, 110
4, 39718, Note_off_c, 14, 64, 0
4, 39718, Note_off_c, 14, 68, 0
4, 39718, Note_off_c, 14, 73, 0
4, 39779, Note_on_c, 14, 64, 110
4, 39779, Note_on_c, 14, 68, 110
4, 39779, Note_on_c, 14, 73, 110
4, 39838, Note_off_c, 14, 64, 0
4, 39838, Note_off_c, 14, 68, 0
4, 39838, Note_off_c, 14, 73, 0
4, 39899, Note_on_c, 14, 64, 110
4, 39899, Note_on_c, 14, 68, 110
4, 39899, Note_on_c, 14, 73, 110
4, 39958, Note_off_c, 14, 64, 0
4, 39958, Note_off_c, 14, 68, 0
4, 39958, Note_off_c, 14, 73, 0
4, 40019, Note_on_c, 14, 64, 110
4, 40019, Note_on_c, 14, 68, 110
4, 40019, Note_on_c, 14, 73, 110
4, 40078, Note_off_c, 14, 64, 0
4, 40078, Note_off_c, 14, 68, 0
4, 40078, Note_off_c, 14, 73, 0
4, 40139, Note_on_c, 14, 64, 110
4, 40139, Note_on_c, 14, 68, 110
4, 40139, Note_on_c, 14, 73, 110
4, 40198, Note_off_c, 14, 64, 0
4, 40198, Note_off_c, 14, 68, 0
4, 40198, Note_off_c, 14, 73, 0
4, 40259, Note_on_c, 14, 64, 110
4, 40259, Note_on_c, 14, 68, 110
4, 40259, Note_on_c, 14, 73, 110
4, 40318, Note_off_c, 14, 64, 0
4, 40318, Note_off_c, 14, 68, 0
4, 40318, Note_off_c, 14, 73, 0
4, 40319, Note_on_c, 14, 68, 110
4, 40479, Note_off_c, 14, 68, 0
4, 40499, Note_on_c, 14, 68, 110
4, 40599, Note_off_c, 14, 68, 0
4, 40619, Note_on_c, 14, 66, 110
4, 40678, Note_off_c, 14, 66, 0
4, 40679, Note_on_c, 14, 63, 110
4, 40779, Note_off_c, 14, 63, 0
4, 40799, Note_on_c, 14, 61, 110
4, 40959, Note_off_c, 14, 61, 0
4, 40979, Note_on_c, 14, 68, 110
4, 41079, Note_off_c, 14, 68, 0
4, 41099, Note_on_c, 14, 66, 110
4, 41158, Note_off_c, 14, 66, 0
4, 41159, Note_on_c, 14, 63, 110
4, 41259, Note_off_c, 14, 63, 0
4, 41279, Note_on_c, 14, 59, 110
4, 41439, Note_off_c, 14, 59, 0
4, 41459, Note_on_c, 14, 68, 110
4, 41559, Note_off_c, 14, 68, 0
4, 41579, Note_on_c, 14, 66, 110
4, 41638, Note_off_c, 14, 66, 0
4, 41639, Note_on_c, 14, 63, 110
4, 41739, Note_off_c, 14, 63, 0
4, 41759, Note_on_c, 14, 59, 110
4, 41919, Note_off_c, 14, 59, 0
4, 41939, Note_on_c, 14, 68, 110
4, 42039, Note_off_c, 14, 68, 0
4, 42059, Note_on_c, 14, 66, 110
4, 42118, Note_off_c, 14, 66, 0
4, 42119, Note_on_c, 14, 63, 110
4, 42219, Note_off_c, 14, 63, 0
4, 42239, Note_on_c, 14, 59, 110
4, 42399, Note_off_c, 14, 59, 0
4, 42419, Note_on_c, 14, 61, 110
4, 42579, Note_off_c, 14, 61, 0
4, 42599, Note_on_c, 14, 63, 110
4, 42699, Note_off_c, 14, 63, 0
4, 42719, Note_on_c, 14, 59, 110
4, 42879, Note_off_c, 14, 59, 0
4, 42899, Note_on_c, 14, 61, 110
4, 43059, Note_off_c, 14, 61, 0
4, 43079, Note_on_c, 14, 63, 110
4, 43179, Note_off_c, 14, 63, 0
4, 43199, Note_on_c, 14, 59, 110
4, 43359, Note_off_c, 14, 59, 0
4, 43379, Note_on_c, 14, 61, 110
4, 43539, Note_off_c, 14, 61, 0
4, 43559, Note_on_c, 14, 63, 110
4, 43659, Note_off_c, 14, 63, 0
4, 43679, Note_on_c, 14, 56, 110
4, 43839, Note_off_c, 14, 56, 0
4, 43859, Note_on_c, 14, 64, 110
4, 43959, Note_off_c, 14, 64, 0
4, 43979, Note_on_c, 14, 60, 110
4, 44038, Note_off_c, 14, 60, 0
4, 44039, Note_on_c, 14, 61, 110
4, 44139, Note_off_c, 14, 61, 0
4, 44159, Note_on_c, 14, 68, 110
4, 44319, Note_off_c, 14, 68, 0
4, 44339, Note_on_c, 14, 68, 110
4, 44439, Note_off_c, 14, 68, 0
4, 44459, Note_on_c, 14, 66, 110
4, 44518, Note_off_c, 14, 66, 0
4, 44519, Note_on_c, 14, 63, 110
4, 44619, Note_off_c, 14, 63, 0
4, 44639, Note_on_c, 14, 61, 110
4, 44799, Note_off_c, 14, 61, 0
4, 44819, Note_on_c, 14, 68, 110
4, 44919, Note_off_c, 14, 68, 0
4, 44939, Note_on_c, 14, 66, 110
4, 44998, Note_off_c, 14, 66, 0
4, 44999, Note_on_c, 14, 63, 110
4, 45099, Note_off_c, 14, 63, 0
4, 45119, Note_on_c, 14, 59, 110
4, 45279, Note_off_c, 14, 59, 0
4, 45299, Note_on_c, 14, 68, 110
4, 45399, Note_off_c, 14, 68, 0
4, 45419, Note_on_c, 14, 66, 110
4, 45478, Note_off_c, 14, 66, 0
4, 45479, Note_on_c, 14, 63, 110
4, 45579, Note_off_c, 14, 63, 0
4, 45599, Note_on_c, 14, 59, 110
4, 45759, Note_off_c, 14, 59, 0
4, 45779, Note_on_c, 14, 68, 110
4, 45879, Note_off_c, 14, 68, 0
4, 45899, Note_on_c, 14, 66, 110
4, 45958, Note_off_c, 14, 66, 0
4, 45959, Note_on_c, 14, 63, 110
4, 46059, Note_off_c, 14, 63, 0
4, 46079, Note_on_c, 14, 59, 110
4, 46239, Note_off_c, 14, 59, 0
4, 46259, Note_on_c, 14, 61, 110
4, 46419, Note_off_c, 14, 61, 0
4, 46439, Note_on_c, 14, 63, 110
4, 46539, Note_off_c, 14, 63, 0
4, 46559, Note_on_c, 14, 59, 110
4, 46719, Note_off_c, 14, 59, 0
4, 46739, Note_on_c, 14, 61, 110
4, 46899, Note_off_c, 14, 61, 0
4, 46919, Note_on_c, 14, 63, 110
4, 47019, Note_off_c, 14, 63, 0
4, 47039, Note_on_c, 14, 59, 110
4, 47199, Note_off_c, 14, 59, 0
4, 47219, Note_on_c, 14, 61, 110
4, 47379, Note_off_c, 14, 61, 0
4, 47399, Note_on_c, 14, 63, 110
4, 47499, Note_off_c, 14, 63, 0
4, 47519, Note_on_c, 14, 56, 110
4, 47679, Note_off_c, 14, 56, 0
4, 47699, Note_on_c, 14, 64, 110
4, 47799, Note_off_c, 14, 64, 0
4, 47819, Note_on_c, 14, 60, 110
4, 47878, Note_off_c, 14, 60, 0
4, 47879, Note_on_c, 14, 61, 110
4, 47979, Note_off_c, 14, 61, 0
4, 49919, Note_on_c, 14, 64, 110
4, 49919, Note_on_c, 14, 68, 110
4, 49919, Note_on_c, 14, 71, 110
4, 50458, Note_off_c, 14, 64, 0
4, 50458, Note_off_c, 14, 68, 0
4, 50458, Note_off_c, 14, 71, 0
4, 50459, Note_on_c, 14, 71, 110
4, 50518, Note_off_c, 14, 71, 0
4, 50519, Note_on_c, 14, 71, 110
4, 50578, Note_off_c, 14, 71, 0
4, 50579, Note_on_c, 14, 71, 110
4, 50638, Note_off_c, 14, 71, 0
4, 50639, Note_on_c, 14, 71, 110
4, 50739, Note_off_c, 14, 71, 0
4, 50759, Note_on_c, 14, 71, 110
4, 50818, Note_off_c, 14, 71, 0
4, 50819, Note_on_c, 14, 71, 110
4, 50878, Note_off_c, 14, 71, 0
4, 50879, Note_on_c, 14, 71, 110
4, 51209, Note_off_c, 14, 71, 0
4, 51419, Note_on_c, 14, 68, 110
4, 51478, Note_off_c, 14, 68, 0
4, 51479, Note_on_c, 14, 68, 110
4, 51538, Note_off_c, 14, 68, 0
4, 51539, Note_on_c, 14, 68, 110
4, 51598, Note_off_c, 14, 68, 0
4, 51599, Note_on_c, 14, 64, 110
4, 51658, Note_off_c, 14, 64, 0
4, 51659, Note_on_c, 14, 64, 110
4, 51718, Note_off_c, 14, 64, 0
4, 51719, Note_on_c, 14, 64, 110
4, 51778, Note_off_c, 14, 64, 0
4, 51779, Note_on_c, 14, 64, 110
4, 51838, Note_off_c, 14, 64, 0
4, 51839, Note_on_c, 14, 75, 110
4, 51939, Note_off_c, 14, 75, 0
4, 51959, Note_on_c, 14, 75, 110
4, 52119, Note_off_c, 14, 75, 0
4, 52139, Note_on_c, 14, 75, 110
4, 52198, Note_off_c, 14, 75, 0
4, 52199, Note_on_c, 14, 75, 110
4, 52258, Note_off_c, 14, 75, 0
4, 52259, Note_on_c, 14, 75, 110
4, 52318, Note_off_c, 14, 75, 0
4, 52319, Note_on_c, 14, 78, 110
4, 52378, Note_off_c, 14, 78, 0
4, 52379, Note_on_c, 14, 78, 110
4, 52438, Note_off_c, 14, 78, 0
4, 52439, Note_on_c, 14, 78, 110
4, 52498, Note_off_c, 14, 78, 0
4, 52499, Note_on_c, 14, 75, 110
4, 52599, Note_off_c, 14, 75, 0
4, 52619, Note_on_c, 14, 75, 110
4, 52678, Note_off_c, 14, 75, 0
4, 52679, Note_on_c, 14, 75, 110
4, 52738, Note_off_c, 14, 75, 0
4, 52739, Note_on_c, 14, 75, 110
4, 52798, Note_off_c, 14, 75, 0
4, 52799, Note_on_c, 14, 80, 110
4, 52858, Note_off_c, 14, 80, 0
4, 52859, Note_on_c, 14, 80, 110
4, 52918, Note_off_c, 14, 80, 0
4, 52919, Note_on_c, 14, 80, 110
4, 52978, Note_off_c, 14, 80, 0
4, 52979, Note_on_c, 14, 75, 110
4, 53079, Note_off_c, 14, 75, 0
4, 53099, Note_on_c, 14, 75, 110
4, 53158, Note_off_c, 14, 75, 0
4, 53159, Note_on_c, 14, 75, 110
4, 53218, Note_off_c, 14, 75, 0
4, 53219, Note_on_c, 14, 82, 110
4, 53278, Note_off_c, 14, 82, 0
4, 53279, Note_on_c, 14, 82, 110
4, 53338, Note_off_c, 14, 82, 0
4, 53339, Note_on_c, 14, 82, 110
4, 53398, Note_off_c, 14, 82, 0
4, 53399, Note_on_c, 14, 82, 110
4, 53458, Note_off_c, 14, 82, 0
4, 53459, Note_on_c, 14, 82, 110
4, 53518, Note_off_c, 14, 82, 0
4, 53519, Note_on_c, 14, 82, 110
4, 53619, Note_off_c, 14, 82, 0
4, 53639, Note_on_c, 14, 76, 110
4, 53739, Note_off_c, 14, 76, 0
4, 53759, Note_on_c, 14, 71, 110
4, 53859, Note_off_c, 14, 71, 0
4, 53879, Note_on_c, 14, 71, 110
4, 54039, Note_off_c, 14, 71, 0
4, 54059, Note_on_c, 14, 71, 110
4, 54118, Note_off_c, 14, 71, 0
4, 54119, Note_on_c, 14, 71, 110
4, 54178, Note_off_c, 14, 71, 0
4, 54179, Note_on_c, 14, 71, 110
4, 54238, Note_off_c, 14, 71, 0
4, 54239, Note_on_c, 14, 73, 110
4, 54339, Note_off_c, 14, 73, 0
4, 54359, Note_on_c, 14, 71, 110
4, 54418, Note_off_c, 14, 71, 0
4, 54419, Note_on_c, 14, 68, 110
4, 54519, Note_off_c, 14, 68, 0
4, 54539, Note_on_c, 14, 73, 110
4, 54598, Note_off_c, 14, 73, 0
4, 54599, Note_on_c, 14, 71, 110
4, 54658, Note_off_c, 14, 71, 0
4, 54659, Note_on_c, 14, 68, 110
4, 54718, Note_off_c, 14, 68, 0
4, 54839, Note_on_c, 14, 71, 110
4, 54999, Note_off_c, 14, 71, 0
4, 55019, Note_on_c, 14, 71, 110
4, 55078, Note_off_c, 14, 71, 0
4, 55079, Note_on_c, 14, 71, 110
4, 55138, Note_off_c, 14, 71, 0
4, 55139, Note_on_c, 14, 71, 110
4, 55198, Note_off_c, 14, 71, 0
4, 55199, Note_on_c, 14, 67, 110
4, 55258, Note_off_c, 14, 67, 0
4, 55259, Note_on_c, 14, 67, 110
4, 55318, Note_off_c, 14, 67, 0
4, 55319, Note_on_c, 14, 67, 110
4, 55378, Note_off_c, 14, 67, 0
4, 55379, Note_on_c, 14, 67, 110
4, 55589, Note_off_c, 14, 67, 0
4, 55739, Note_on_c, 14, 66, 110
4, 55739, Note_on_c, 14, 71, 110
4, 55739, Note_on_c, 14, 75, 110
4, 55798, Note_off_c, 14, 66, 0
4, 55798, Note_off_c, 14, 71, 0
4, 55798, Note_off_c, 14, 75, 0
4, 55859, Note_on_c, 14, 66, 110
4, 55859, Note_on_c, 14, 71, 110
4, 55859, Note_on_c, 14, 75, 110
4, 55918, Note_off_c, 14, 66, 0
4, 55918, Note_off_c, 14, 71, 0
4, 55918, Note_off_c, 14, 75, 0
4, 55979, Note_on_c, 14, 66, 110
4, 55979, Note_on_c, 14, 71, 110
4, 55979, Note_on_c, 14, 75, 110
4, 56038, Note_off_c, 14, 66, 0
4, 56038, Note_off_c, 14, 71, 0
4, 56038, Note_off_c, 14, 75, 0
4, 56099, Note_on_c, 14, 66, 110
4, 56099, Note_on_c, 14, 71, 110
4, 56099, Note_on_c, 14, 75, 110
4, 56158, Note_off_c, 14, 66, 0
4, 56158, Note_off_c, 14, 71, 0
4, 56158, Note_off_c, 14, 75, 0
4, 56219, Note_on_c, 14, 66, 110
4, 56219, Note_on_c, 14, 71, 110
4, 56219, Note_on_c, 14, 75, 110
4, 56278, Note_off_c, 14, 66, 0
4, 56278, Note_off_c, 14, 71, 0
4, 56278, Note_off_c, 14, 75, 0
4, 56339, Note_on_c, 14, 66, 110
4, 56339, Note_on_c, 14, 71, 110
4, 56339, Note_on_c, 14, 75, 110
4, 56398, Note_off_c, 14, 66, 0
4, 56398, Note_off_c, 14, 71, 0
4, 56398, Note_off_c, 14, 75, 0
4, 56459, Note_on_c, 14, 66, 110
4, 56459, Note_on_c, 14, 71, 110
4, 56459, Note_on_c, 14, 75, 110
4, 56518, Note_off_c, 14, 66, 0
4, 56518, Note_off_c, 14, 71, 0
4, 56518, Note_off_c, 14, 75, 0
4, 56579, Note_on_c, 14, 66, 110
4, 56579, Note_on_c, 14, 71, 110
4, 56579, Note_on_c, 14, 75, 110
4, 56638, Note_off_c, 14, 66, 0
4, 56638, Note_off_c, 14, 71, 0
4, 56638, Note_off_c, 14, 75, 0
4, 56699, Note_on_c, 14, 66, 110
4, 56699, Note_on_c, 14, 71, 110
4, 56699, Note_on_c, 14, 75, 110
4, 56758, Note_off_c, 14, 66, 0
4, 56758, Note_off_c, 14, 71, 0
4, 56758, Note_off_c, 14, 75, 0
4, 56819, Note_on_c, 14, 66, 110
4, 56819, Note_on_c, 14, 71, 110
4, 56819, Note_on_c, 14, 75, 110
4, 56878, Note_off_c, 14, 66, 0
4, 56878, Note_off_c, 14, 71, 0
4, 56878, Note_off_c, 14, 75, 0
4, 56939, Note_on_c, 14, 66, 110
4, 56939, Note_on_c, 14, 71, 110
4, 56939, Note_on_c, 14, 75, 110
4, 56998, Note_off_c, 14, 66, 0
4, 56998, Note_off_c, 14, 71, 0
4, 56998, Note_off_c, 14, 75, 0
4, 57059, Note_on_c, 14, 66, 110
4, 57059, Note_on_c, 14, 71, 110
4, 57059, Note_on_c, 14, 75, 110
4, 57118, Note_off_c, 14, 66, 0
4, 57118, Note_off_c, 14, 71, 0
4, 57118, Note_off_c, 14, 75, 0
4, 57179, Note_on_c, 14, 66, 110
4, 57179, Note_on_c, 14, 71, 110
4, 57179, Note_on_c, 14, 75, 110
4, 57238, Note_off_c, 14, 66, 0
4, 57238, Note_off_c, 14, 71, 0
4, 57238, Note_off_c, 14, 75, 0
4, 57299, Note_on_c, 14, 66, 110
4, 57299, Note_on_c, 14, 71, 110
4, 57299, Note_on_c, 14, 75, 110
4, 57358, Note_off_c, 14, 66, 0
4, 57358, Note_off_c, 14, 71, 0
4, 57358, Note_off_c, 14, 75, 0
4, 57419, Note_on_c, 14, 66, 110
4, 57419, Note_on_c, 14, 71, 110
4, 57419, Note_on_c, 14, 75, 110
4, 57478, Note_off_c, 14, 66, 0
4, 57478, Note_off_c, 14, 71, 0
4, 57478, Note_off_c, 14, 75, 0
4, 57539, Note_on_c, 14, 75, 110
4, 57539, Note_on_c, 14, 66, 110
4, 57539, Note_on_c, 14, 71, 110
4, 57598, Note_off_c, 14, 75, 0
4, 57598, Note_off_c, 14, 66, 0
4, 57598, Note_off_c, 14, 71, 0
4, 57659, Note_on_c, 14, 64, 110
4, 57659, Note_on_c, 14, 68, 110
4, 57659, Note_on_c, 14, 73, 110
4, 57718, Note_off_c, 14, 64, 0
4, 57718, Note_off_c, 14, 68, 0
4, 57718, Note_off_c, 14, 73, 0
4, 57779, Note_on_c, 14, 64, 110
4, 57779, Note_on_c, 14, 68, 110
4, 57779, Note_on_c, 14, 73, 110
4, 57838, Note_off_c, 14, 64, 0
4, 57838, Note_off_c, 14, 68, 0
4, 57838, Note_off_c, 14, 73, 0
4, 57899, Note_on_c, 14, 64, 110
4, 57899, Note_on_c, 14, 68, 110
4, 57899, Note_on_c, 14, 73, 110
4, 57958, Note_off_c, 14, 64, 0
4, 57958, Note_off_c, 14, 68, 0
4, 57958, Note_off_c, 14, 73, 0
4, 58019, Note_on_c, 14, 64, 110
4, 58019, Note_on_c, 14, 68, 110
4, 58019, Note_on_c, 14, 73, 110
4, 58078, Note_off_c, 14, 64, 0
4, 58078, Note_off_c, 14, 68, 0
4, 58078, Note_off_c, 14, 73, 0
4, 58139, Note_on_c, 14, 64, 110
4, 58139, Note_on_c, 14, 68, 110
4, 58139, Note_on_c, 14, 73, 110
4, 58198, Note_off_c, 14, 64, 0
4, 58198, Note_off_c, 14, 68, 0
4, 58198, Note_off_c, 14, 73, 0
4, 58259, Note_on_c, 14, 64, 110
4, 58259, Note_on_c, 14, 68, 110
4, 58259, Note_on_c, 14, 73, 110
4, 58318, Note_off_c, 14, 64, 0
4, 58318, Note_off_c, 14, 68, 0
4, 58318, Note_off_c, 14, 73, 0
4, 58379, Note_on_c, 14, 64, 110
4, 58379, Note_on_c, 14, 68, 110
4, 58379, Note_on_c, 14, 73, 110
4, 58438, Note_off_c, 14, 64, 0
4, 58438, Note_off_c, 14, 68, 0
4, 58438, Note_off_c, 14, 73, 0
4, 58499, Note_on_c, 14, 64, 110
4, 58499, Note_on_c, 14, 68, 110
4, 58499, Note_on_c, 14, 73, 110
4, 58558, Note_off_c, 14, 64, 0
4, 58558, Note_off_c, 14, 68, 0
4, 58558, Note_off_c, 14, 73, 0
4, 58619, Note_on_c, 14, 64, 110
4, 58619, Note_on_c, 14, 68, 110
4, 58619, Note_on_c, 14, 73, 110
4, 58678, Note_off_c, 14, 64, 0
4, 58678, Note_off_c, 14, 68, 0
4, 58678, Note_off_c, 14, 73, 0
4, 58739, Note_on_c, 14, 64, 110
4, 58739, Note_on_c, 14, 68, 110
4, 58739, Note_on_c, 14, 73, 110
4, 58798, Note_off_c, 14, 64, 0
4, 58798, Note_off_c, 14, 68, 0
4, 58798, Note_off_c, 14, 73, 0
4, 58859, Note_on_c, 14, 64, 110
4, 58859, Note_on_c, 14, 68, 110
4, 58859, Note_on_c, 14, 73, 110
4, 58918, Note_off_c, 14, 64, 0
4, 58918, Note_off_c, 14, 68, 0
4, 58918, Note_off_c, 14, 73, 0
4, 58979, Note_on_c, 14, 64, 110
4, 58979, Note_on_c, 14, 68, 110
4, 58979, Note_on_c, 14, 73, 110
4, 59038, Note_off_c, 14, 64, 0
4, 59038, Note_off_c, 14, 68, 0
4, 59038, Note_off_c, 14, 73, 0
4, 59099, Note_on_c, 14, 64, 110
4, 59099, Note_on_c, 14, 68, 110
4, 59099, Note_on_c, 14, 73, 110
4, 59158, Note_off_c, 14, 64, 0
4, 59158, Note_off_c, 14, 68, 0
4, 59158, Note_off_c, 14, 73, 0
4, 59219, Note_on_c, 14, 64, 110
4, 59219, Note_on_c, 14, 68, 110
4, 59219, Note_on_c, 14, 73, 110
4, 59278, Note_off_c, 14, 64, 0
4, 59278, Note_off_c, 14, 68, 0
4, 59278, Note_off_c, 14, 73, 0
4, 59339, Note_on_c, 14, 64, 110
4, 59339, Note_on_c, 14, 68, 110
4, 59339, Note_on_c, 14, 73, 110
4, 59398, Note_off_c, 14, 64, 0
4, 59398, Note_off_c, 14, 68, 0
4, 59398, Note_off_c, 14, 73, 0
4, 59459, Note_on_c, 14, 64, 110
4, 59459, Note_on_c, 14, 68, 110
4, 59459, Note_on_c, 14, 73, 110
4, 59518, Note_off_c, 14, 64, 0
4, 59518, Note_off_c, 14, 68, 0
4, 59518, Note_off_c, 14, 73, 0
4, 59579, Note_on_c, 14, 66, 110
4, 59579, Note_on_c, 14, 71, 110
4, 59579, Note_on_c, 14, 75, 110
4, 59638, Note_off_c, 14, 66, 0
4, 59638, Note_off_c, 14, 71, 0
4, 59638, Note_off_c, 14, 75, 0
4, 59699, Note_on_c, 14, 66, 110
4, 59699, Note_on_c, 14, 71, 110
4, 59699, Note_on_c, 14, 75, 110
4, 59758, Note_off_c, 14, 66, 0
4, 59758, Note_off_c, 14, 71, 0
4, 59758, Note_off_c, 14, 75, 0
4, 59819, Note_on_c, 14, 66, 110
4, 59819, Note_on_c, 14, 71, 110
4, 59819, Note_on_c, 14, 75, 110
4, 59878, Note_off_c, 14, 66, 0
4, 59878, Note_off_c, 14, 71, 0
4, 59878, Note_off_c, 14, 75, 0
4, 59939, Note_on_c, 14, 66, 110
4, 59939, Note_on_c, 14, 71, 110
4, 59939, Note_on_c, 14, 75, 110
4, 59998, Note_off_c, 14, 66, 0
4, 59998, Note_off_c, 14, 71, 0
4, 59998, Note_off_c, 14, 75, 0
4, 60059, Note_on_c, 14, 66, 110
4, 60059, Note_on_c, 14, 71, 110
4, 60059, Note_on_c, 14, 75, 110
4, 60118, Note_off_c, 14, 66, 0
4, 60118, Note_off_c, 14, 71, 0
4, 60118, Note_off_c, 14, 75, 0
4, 60179, Note_on_c, 14, 66, 110
4, 60179, Note_on_c, 14, 71, 110
4, 60179, Note_on_c, 14, 75, 110
4, 60238, Note_off_c, 14, 66, 0
4, 60238, Note_off_c, 14, 71, 0
4, 60238, Note_off_c, 14, 75, 0
4, 60299, Note_on_c, 14, 66, 110
4, 60299, Note_on_c, 14, 71, 110
4, 60299, Note_on_c, 14, 75, 110
4, 60358, Note_off_c, 14, 66, 0
4, 60358, Note_off_c, 14, 71, 0
4, 60358, Note_off_c, 14, 75, 0
4, 60419, Note_on_c, 14, 71, 110
4, 60419, Note_on_c, 14, 66, 110
4, 60419, Note_on_c, 14, 75, 110
4, 60478, Note_off_c, 14, 71, 0
4, 60478, Note_off_c, 14, 66, 0
4, 60478, Note_off_c, 14, 75, 0
4, 60539, Note_on_c, 14, 66, 110
4, 60539, Note_on_c, 14, 71, 110
4, 60539, Note_on_c, 14, 75, 110
4, 60598, Note_off_c, 14, 66, 0
4, 60598, Note_off_c, 14, 71, 0
4, 60598, Note_off_c, 14, 75, 0
4, 60659, Note_on_c, 14, 66, 110
4, 60659, Note_on_c, 14, 71, 110
4, 60659, Note_on_c, 14, 75, 110
4, 60718, Note_off_c, 14, 66, 0
4, 60718, Note_off_c, 14, 71, 0
4, 60718, Note_off_c, 14, 75, 0
4, 60779, Note_on_c, 14, 66, 110
4, 60779, Note_on_c, 14, 71, 110
4, 60779, Note_on_c, 14, 75, 110
4, 60838, Note_off_c, 14, 66, 0
4, 60838, Note_off_c, 14, 71, 0
4, 60838, Note_off_c, 14, 75, 0
4, 60899, Note_on_c, 14, 66, 110
4, 60899, Note_on_c, 14, 71, 110
4, 60899, Note_on_c, 14, 75, 110
4, 60958, Note_off_c, 14, 66, 0
4, 60958, Note_off_c, 14, 71, 0
4, 60958, Note_off_c, 14, 75, 0
4, 61019, Note_on_c, 14, 66, 110
4, 61019, Note_on_c, 14, 71, 110
4, 61019, Note_on_c, 14, 75, 110
4, 61078, Note_off_c, 14, 66, 0
4, 61078, Note_off_c, 14, 71, 0
4, 61078, Note_off_c, 14, 75, 0
4, 61139, Note_on_c, 14, 66, 110
4, 61139, Note_on_c, 14, 71, 110
4, 61139, Note_on_c, 14, 75, 110
4, 61198, Note_off_c, 14, 66, 0
4, 61198, Note_off_c, 14, 71, 0
4, 61198, Note_off_c, 14, 75, 0
4, 61259, Note_on_c, 14, 66, 110
4, 61259, Note_on_c, 14, 71, 110
4, 61259, Note_on_c, 14, 75, 110
4, 61318, Note_off_c, 14, 66, 0
4, 61318, Note_off_c, 14, 71, 0
4, 61318, Note_off_c, 14, 75, 0
4, 61379, Note_on_c, 14, 66, 110
4, 61379, Note_on_c, 14, 71, 110
4, 61379, Note_on_c, 14, 75, 110
4, 61438, Note_off_c, 14, 66, 0
4, 61438, Note_off_c, 14, 71, 0
4, 61438, Note_off_c, 14, 75, 0
4, 61499, Note_on_c, 14, 64, 110
4, 61499, Note_on_c, 14, 68, 110
4, 61499, Note_on_c, 14, 73, 110
4, 61558, Note_off_c, 14, 64, 0
4, 61558, Note_off_c, 14, 68, 0
4, 61558, Note_off_c, 14, 73, 0
4, 61619, Note_on_c, 14, 64, 110
4, 61619, Note_on_c, 14, 68, 110
4, 61619, Note_on_c, 14, 73, 110
4, 61678, Note_off_c, 14, 64, 0
4, 61678, Note_off_c, 14, 68, 0
4, 61678, Note_off_c, 14, 73, 0
4, 61739, Note_on_c, 14, 64, 110
4, 61739, Note_on_c, 14, 68, 110
4, 61739, Note_on_c, 14, 73, 110
4, 61798, Note_off_c, 14, 64, 0
4, 61798, Note_off_c, 14, 68, 0
4, 61798, Note_off_c, 14, 73, 0
4, 61859, Note_on_c, 14, 64, 110
4, 61859, Note_on_c, 14, 68, 110
4, 61859, Note_on_c, 14, 73, 110
4, 61918, Note_off_c, 14, 64, 0
4, 61918, Note_off_c, 14, 68, 0
4, 61918, Note_off_c, 14, 73, 0
4, 61979, Note_on_c, 14, 64, 110
4, 61979, Note_on_c, 14, 68, 110
4, 61979, Note_on_c, 14, 73, 110
4, 62038, Note_off_c, 14, 64, 0
4, 62038, Note_off_c, 14, 68, 0
4, 62038, Note_off_c, 14, 73, 0
4, 62099, Note_on_c, 14, 64, 110
4, 62099, Note_on_c, 14, 68, 110
4, 62099, Note_on_c, 14, 73, 110
4, 62158, Note_off_c, 14, 64, 0
4, 62158, Note_off_c, 14, 68, 0
4, 62158, Note_off_c, 14, 73, 0
4, 62219, Note_on_c, 14, 64, 110
4, 62219, Note_on_c, 14, 68, 110
4, 62219, Note_on_c, 14, 73, 110
4, 62278, Note_off_c, 14, 64, 0
4, 62278, Note_off_c, 14, 68, 0
4, 62278, Note_off_c, 14, 73, 0
4, 62339, Note_on_c, 14, 64, 110
4, 62339, Note_on_c, 14, 68, 110
4, 62339, Note_on_c, 14, 73, 110
4, 62398, Note_off_c, 14, 64, 0
4, 62398, Note_off_c, 14, 68, 0
4, 62398, Note_off_c, 14, 73, 0
4, 62459, Note_on_c, 14, 64, 110
4, 62459, Note_on_c, 14, 68, 110
4, 62459, Note_on_c, 14, 73, 110
4, 62518, Note_off_c, 14, 64, 0
4, 62518, Note_off_c, 14, 68, 0
4, 62518, Note_off_c, 14, 73, 0
4, 62579, Note_on_c, 14, 64, 110
4, 62579, Note_on_c, 14, 68, 110
4, 62579, Note_on_c, 14, 73, 110
4, 62638, Note_off_c, 14, 64, 0
4, 62638, Note_off_c, 14, 68, 0
4, 62638, Note_off_c, 14, 73, 0
4, 62699, Note_on_c, 14, 64, 110
4, 62699, Note_on_c, 14, 68, 110
4, 62699, Note_on_c, 14, 73, 110
4, 62758, Note_off_c, 14, 64, 0
4, 62758, Note_off_c, 14, 68, 0
4, 62758, Note_off_c, 14, 73, 0
4, 62819, Note_on_c, 14, 64, 110
4, 62819, Note_on_c, 14, 68, 110
4, 62819, Note_on_c, 14, 73, 110
4, 62878, Note_off_c, 14, 64, 0
4, 62878, Note_off_c, 14, 68, 0
4, 62878, Note_off_c, 14, 73, 0
4, 62939, Note_on_c, 14, 64, 110
4, 62939, Note_on_c, 14, 68, 110
4, 62939, Note_on_c, 14, 73, 110
4, 62998, Note_off_c, 14, 64, 0
4, 62998, Note_off_c, 14, 68, 0
4, 62998, Note_off_c, 14, 73, 0
4, 63059, Note_on_c, 14, 64, 110
4, 63059, Note_on_c, 14, 68, 110
4, 63059, Note_on_c, 14, 73, 110
4, 63118, Note_off_c, 14, 64, 0
4, 63118, Note_off_c, 14, 68, 0
4, 63118, Note_off_c, 14, 73, 0
4, 63179, Note_on_c, 14, 64, 110
4, 63179, Note_on_c, 14, 68, 110
4, 63179, Note_on_c, 14, 73, 110
4, 63238, Note_off_c, 14, 64, 0
4, 63238, Note_off_c, 14, 68, 0
4, 63238, Note_off_c, 14, 73, 0
4, 63299, Note_on_c, 14, 64, 110
4, 63299, Note_on_c, 14, 68, 110
4, 63299, Note_on_c, 14, 73, 110
4, 63358, Note_off_c, 14, 64, 0
4, 63358, Note_off_c, 14, 68, 0
4, 63358, Note_off_c, 14, 73, 0
4, 63359, Note_on_c, 14, 71, 110
4, 63418, Note_off_c, 14, 71, 0
4, 63419, Note_on_c, 14, 71, 110
4, 63478, Note_off_c, 14, 71, 0
4, 63479, Note_on_c, 14, 71, 110
4, 63538, Note_off_c, 14, 71, 0
4, 63539, Note_on_c, 14, 71, 110
4, 63598, Note_off_c, 14, 71, 0
4, 63599, Note_on_c, 14, 71, 110
4, 63658, Note_off_c, 14, 71, 0
4, 63659, Note_on_c, 14, 71, 110
4, 63718, Note_off_c, 14, 71, 0
4, 63719, Note_on_c, 14, 71, 110
4, 63778, Note_off_c, 14, 71, 0
4, 63779, Note_on_c, 14, 71, 110
4, 63838, Note_off_c, 14, 71, 0
4, 63839, Note_on_c, 14, 71, 110
4, 63898, Note_off_c, 14, 71, 0
4, 63899, Note_on_c, 14, 70, 110
4, 63958, Note_off_c, 14, 70, 0
4, 63959, Note_on_c, 14, 71, 110
4, 64018, Note_off_c, 14, 71, 0
4, 64019, Note_on_c, 14, 73, 110
4, 64119, Note_off_c, 14, 73, 0
4, 64139, Note_on_c, 14, 71, 110
4, 64239, Note_off_c, 14, 71, 0
4, 64259, Note_on_c, 14, 70, 110
4, 64318, Note_off_c, 14, 70, 0
4, 64319, Note_on_c, 14, 71, 110
4, 64378, Note_off_c, 14, 71, 0
4, 64379, Note_on_c, 14, 71, 110
4, 64438, Note_off_c, 14, 71, 0
4, 64439, Note_on_c, 14, 71, 110
4, 64498, Note_off_c, 14, 71, 0
4, 64499, Note_on_c, 14, 71, 110
4, 64558, Note_off_c, 14, 71, 0
4, 64559, Note_on_c, 14, 71, 110
4, 64618, Note_off_c, 14, 71, 0
4, 64619, Note_on_c, 14, 71, 110
4, 64678, Note_off_c, 14, 71, 0
4, 64679, Note_on_c, 14, 71, 110
4, 64738, Note_off_c, 14, 71, 0
4, 64739, Note_on_c, 14, 71, 110
4, 64798, Note_off_c, 14, 71, 0
4, 64799, Note_on_c, 14, 71, 110
4, 64858, Note_off_c, 14, 71, 0
4, 64859, Note_on_c, 14, 70, 110
4, 64918, Note_off_c, 14, 70, 0
4, 64919, Note_on_c, 14, 71, 110
4, 64978, Note_off_c, 14, 71, 0
4, 64979, Note_on_c, 14, 73, 110
4, 65079, Note_off_c, 14, 73, 0
4, 65099, Note_on_c, 14, 71, 110
4, 65199, Note_off_c, 14, 71, 0
4, 65219, Note_on_c, 14, 75, 110
4, 65278, Note_off_c, 14, 75, 0
4, 65279, Note_on_c, 14, 70, 110
4, 65338, Note_off_c, 14, 70, 0
4, 65339, Note_on_c, 14, 70, 110
4, 65398, Note_off_c, 14, 70, 0
4, 65399, Note_on_c, 14, 70, 110
4, 65458, Note_off_c, 14, 70, 0
4, 65459, Note_on_c, 14, 70, 110
4, 65518, Note_off_c, 14, 70, 0
4, 65519, Note_on_c, 14, 70, 110
4, 65578, Note_off_c, 14, 70, 0
4, 65579, Note_on_c, 14, 70, 110
4, 65638, Note_off_c, 14, 70, 0
4, 65639, Note_on_c, 14, 70, 110
4, 65698, Note_off_c, 14, 70, 0
4, 65699, Note_on_c, 14, 70, 110
4, 65758, Note_off_c, 14, 70, 0
4, 65759, Note_on_c, 14, 70, 110
4, 65818, Note_off_c, 14, 70, 0
4, 65819, Note_on_c, 14, 70, 110
4, 65878, Note_off_c, 14, 70, 0
4, 65879, Note_on_c, 14, 70, 110
4, 65938, Note_off_c, 14, 70, 0
4, 65939, Note_on_c, 14, 75, 110
4, 66099, Note_off_c, 14, 75, 0
4, 66119, Note_on_c, 14, 73, 110
4, 66219, Note_off_c, 14, 73, 0
4, 66239, Note_on_c, 14, 70, 110
4, 66298, Note_off_c, 14, 70, 0
4, 66299, Note_on_c, 14, 70, 110
4, 66358, Note_off_c, 14, 70, 0
4, 66359, Note_on_c, 14, 70, 110
4, 66418, Note_off_c, 14, 70, 0
4, 66419, Note_on_c, 14, 70, 110
4, 66478, Note_off_c, 14, 70, 0
4, 66479, Note_on_c, 14, 70, 110
4, 66538, Note_off_c, 14, 70, 0
4, 66539, Note_on_c, 14, 70, 110
4, 66598, Note_off_c, 14, 70, 0
4, 66599, Note_on_c, 14, 70, 110
4, 66658, Note_off_c, 14, 70, 0
4, 66659, Note_on_c, 14, 70, 110
4, 66718, Note_off_c, 14, 70, 0
4, 66719, Note_on_c, 14, 69, 110
4, 66778, Note_off_c, 14, 69, 0
4, 66779, Note_on_c, 14, 69, 110
4, 66838, Note_off_c, 14, 69, 0
4, 66839, Note_on_c, 14, 69, 110
4, 66898, Note_off_c, 14, 69, 0
4, 66899, Note_on_c, 14, 69, 110
4, 66958, Note_off_c, 14, 69, 0
4, 66959, Note_on_c, 14, 67, 110
4, 67018, Note_off_c, 14, 67, 0
4, 67019, Note_on_c, 14, 67, 110
4, 67078, Note_off_c, 14, 67, 0
4, 67079, Note_on_c, 14, 67, 110
4, 67138, Note_off_c, 14, 67, 0
4, 67139, Note_on_c, 14, 67, 110
4, 67198, Note_off_c, 14, 67, 0
4, 67199, Note_on_c, 14, 71, 110
4, 67258, Note_off_c, 14, 71, 0
4, 67259, Note_on_c, 14, 71, 110
4, 67318, Note_off_c, 14, 71, 0
4, 67319, Note_on_c, 14, 71, 110
4, 67378, Note_off_c, 14, 71, 0
4, 67379, Note_on_c, 14, 71, 110
4, 67438, Note_off_c, 14, 71, 0
4, 67439, Note_on_c, 14, 71, 110
4, 67498, Note_off_c, 14, 71, 0
4, 67499, Note_on_c, 14, 71, 110
4, 67558, Note_off_c, 14, 71, 0
4, 67559, Note_on_c, 14, 71, 110
4, 67618, Note_off_c, 14, 71, 0
4, 67619, Note_on_c, 14, 71, 110
4, 67678, Note_off_c, 14, 71, 0
4, 67679, Note_on_c, 14, 71, 110
4, 67738, Note_off_c, 14, 71, 0
4, 67739, Note_on_c, 14, 70, 110
4, 67798, Note_off_c, 14, 70, 0
4, 67799, Note_on_c, 14, 71, 110
4, 67858, Note_off_c, 14, 71, 0
4, 67859, Note_on_c, 14, 73, 110
4, 67959, Note_off_c, 14, 73, 0
4, 67979, Note_on_c, 14, 71, 110
4, 68079, Note_off_c, 14, 71, 0
4, 68099, Note_on_c, 14, 70, 110
4, 68158, Note_off_c, 14, 70, 0
4, 68159, Note_on_c, 14, 71, 110
4, 68218, Note_off_c, 14, 71, 0
4, 68219, Note_on_c, 14, 71, 110
4, 68278, Note_off_c, 14, 71, 0
4, 68279, Note_on_c, 14, 71, 110
4, 68338, Note_off_c, 14, 71, 0
4, 68339, Note_on_c, 14, 71, 110
4, 68398, Note_off_c, 14, 71, 0
4, 68399, Note_on_c, 14, 71, 110
4, 68458, Note_off_c, 14, 71, 0
4, 68459, Note_on_c, 14, 71, 110
4, 68518, Note_off_c, 14, 71, 0
4, 68519, Note_on_c, 14, 71, 110
4, 68578, Note_off_c, 14, 71, 0
4, 68579, Note_on_c, 14, 71, 110
4, 68638, Note_off_c, 14, 71, 0
4, 68639, Note_on_c, 14, 71, 110
4, 68698, Note_off_c, 14, 71, 0
4, 68699, Note_on_c, 14, 70, 110
4, 68758, Note_off_c, 14, 70, 0
4, 68759, Note_on_c, 14, 71, 110
4, 68818, Note_off_c, 14, 71, 0
4, 68819, Note_on_c, 14, 73, 110
4, 68919, Note_off_c, 14, 73, 0
4, 68939, Note_on_c, 14, 71, 110
4, 69039, Note_off_c, 14, 71, 0
4, 69059, Note_on_c, 14, 75, 110
4, 69118, Note_off_c, 14, 75, 0
4, 69119, Note_on_c, 14, 70, 110
4, 69178, Note_off_c, 14, 70, 0
4, 69179, Note_on_c, 14, 70, 110
4, 69238, Note_off_c, 14, 70, 0
4, 69239, Note_on_c, 14, 70, 110
4, 69298, Note_off_c, 14, 70, 0
4, 69299, Note_on_c, 14, 70, 110
4, 69358, Note_off_c, 14, 70, 0
4, 69359, Note_on_c, 14, 70, 110
4, 69418, Note_off_c, 14, 70, 0
4, 69419, Note_on_c, 14, 70, 110
4, 69478, Note_off_c, 14, 70, 0
4, 69479, Note_on_c, 14, 70, 110
4, 69538, Note_off_c, 14, 70, 0
4, 69539, Note_on_c, 14, 70, 110
4, 69598, Note_off_c, 14, 70, 0
4, 69599, Note_on_c, 14, 70, 110
4, 69658, Note_off_c, 14, 70, 0
4, 69659, Note_on_c, 14, 70, 110
4, 69718, Note_off_c, 14, 70, 0
4, 69719, Note_on_c, 14, 70, 110
4, 69778, Note_off_c, 14, 70, 0
4, 69779, Note_on_c, 14, 75, 110
4, 69939, Note_off_c, 14, 75, 0
4, 69959, Note_on_c, 14, 73, 110
4, 70059, Note_off_c, 14, 73, 0
4, 70079, Note_on_c, 14, 70, 110
4, 70138, Note_off_c, 14, 70, 0
4, 70139, Note_on_c, 14, 70, 110
4, 70198, Note_off_c, 14, 70, 0
4, 70199, Note_on_c, 14, 70, 110
4, 70258, Note_off_c, 14, 70, 0
4, 70259, Note_on_c, 14, 70, 110
4, 70318, Note_off_c, 14, 70, 0
4, 70319, Note_on_c, 14, 70, 110
4, 70378, Note_off_c, 14, 70, 0
4, 70379, Note_on_c, 14, 70, 110
4, 70438, Note_off_c, 14, 70, 0
4, 70439, Note_on_c, 14, 70, 110
4, 70498, Note_off_c, 14, 70, 0
4, 70499, Note_on_c, 14, 70, 110
4, 70558, Note_off_c, 14, 70, 0
4, 70559, Note_on_c, 14, 69, 110
4, 70618, Note_off_c, 14, 69, 0
4, 70619, Note_on_c, 14, 69, 110
4, 70678, Note_off_c, 14, 69, 0
4, 70679, Note_on_c, 14, 69, 110
4, 70738, Note_off_c, 14, 69, 0
4, 70739, Note_on_c, 14, 69, 110
4, 70798, Note_off_c, 14, 69, 0
4, 70799, Note_on_c, 14, 67, 110
4, 70858, Note_off_c, 14, 67, 0
4, 70859, Note_on_c, 14, 67, 110
4, 70918, Note_off_c, 14, 67, 0
4, 70919, Note_on_c, 14, 67, 110
4, 70978, Note_off_c, 14, 67, 0
4, 70979, Note_on_c, 14, 67, 110
4, 71038, Note_off_c, 14, 67, 0
4, 71039, Note_on_c, 14, 68, 110
4, 71098, Note_off_c, 14, 68, 0
4, 71099, Note_on_c, 14, 68, 110
4, 71158, Note_off_c, 14, 68, 0
4, 71159, Note_on_c, 14, 66, 110
4, 71218, Note_off_c, 14, 66, 0
4, 71219, Note_on_c, 14, 66, 110
4, 71278, Note_off_c, 14, 66, 0
4, 71279, Note_on_c, 14, 63, 110
4, 71338, Note_off_c, 14, 63, 0
4, 71339, Note_on_c, 14, 63, 110
4, 71398, Note_off_c, 14, 63, 0
4, 71399, Note_on_c, 14, 63, 110
4, 71458, Note_off_c, 14, 63, 0
4, 71459, Note_on_c, 14, 68, 110
4, 71518, Note_off_c, 14, 68, 0
4, 71519, Note_on_c, 14, 68, 110
4, 71578, Note_off_c, 14, 68, 0
4, 71579, Note_on_c, 14, 68, 110
4, 71638, Note_off_c, 14, 68, 0
4, 71639, Note_on_c, 14, 66, 110
4, 71698, Note_off_c, 14, 66, 0
4, 71699, Note_on_c, 14, 66, 110
4, 71758, Note_off_c, 14, 66, 0
4, 71759, Note_on_c, 14, 63, 110
4, 71818, Note_off_c, 14, 63, 0
4, 71819, Note_on_c, 14, 63, 110
4, 71878, Note_off_c, 14, 63, 0
4, 71879, Note_on_c, 14, 63, 110
4, 71938, Note_off_c, 14, 63, 0
4, 71939, Note_on_c, 14, 63, 110
4, 71998, Note_off_c, 14, 63, 0
4, 71999, Note_on_c, 14, 68, 110
4, 72058, Note_off_c, 14, 68, 0
4, 72059, Note_on_c, 14, 68, 110
4, 72118, Note_off_c, 14, 68, 0
4, 72119, Note_on_c, 14, 66, 110
4, 72178, Note_off_c, 14, 66, 0
4, 72179, Note_on_c, 14, 66, 110
4, 72238, Note_off_c, 14, 66, 0
4, 72239, Note_on_c, 14, 63, 110
4, 72298, Note_off_c, 14, 63, 0
4, 72299, Note_on_c, 14, 63, 110
4, 72358, Note_off_c, 14, 63, 0
4, 72359, Note_on_c, 14, 63, 110
4, 72418, Note_off_c, 14, 63, 0
4, 72419, Note_on_c, 14, 68, 110
4, 72478, Note_off_c, 14, 68, 0
4, 72479, Note_on_c, 14, 68, 110
4, 72538, Note_off_c, 14, 68, 0
4, 72539, Note_on_c, 14, 68, 110
4, 72598, Note_off_c, 14, 68, 0
4, 72599, Note_on_c, 14, 66, 110
4, 72658, Note_off_c, 14, 66, 0
4, 72659, Note_on_c, 14, 66, 110
4, 72718, Note_off_c, 14, 66, 0
4, 72719, Note_on_c, 14, 63, 110
4, 72778, Note_off_c, 14, 63, 0
4, 72779, Note_on_c, 14, 63, 110
4, 72838, Note_off_c, 14, 63, 0
4, 72839, Note_on_c, 14, 63, 110
4, 72898, Note_off_c, 14, 63, 0
4, 72899, Note_on_c, 14, 63, 110
4, 72958, Note_off_c, 14, 63, 0
4, 72959, Note_on_c, 14, 68, 110
4, 73018, Note_off_c, 14, 68, 0
4, 73019, Note_on_c, 14, 68, 110
4, 73078, Note_off_c, 14, 68, 0
4, 73079, Note_on_c, 14, 66, 110
4, 73138, Note_off_c, 14, 66, 0
4, 73139, Note_on_c, 14, 66, 110
4, 73198, Note_off_c, 14, 66, 0
4, 73199, Note_on_c, 14, 63, 110
4, 73258, Note_off_c, 14, 63, 0
4, 73259, Note_on_c, 14, 63, 110
4, 73318, Note_off_c, 14, 63, 0
4, 73319, Note_on_c, 14, 63, 110
4, 73378, Note_off_c, 14, 63, 0
4, 73379, Note_on_c, 14, 68, 110
4, 73438, Note_off_c, 14, 68, 0
4, 73439, Note_on_c, 14, 68, 110
4, 73498, Note_off_c, 14, 68, 0
4, 73499, Note_on_c, 14, 68, 110
4, 73558, Note_off_c, 14, 68, 0
4, 73559, Note_on_c, 14, 66, 110
4, 73618, Note_off_c, 14, 66, 0
4, 73619, Note_on_c, 14, 66, 110
4, 73678, Note_off_c, 14, 66, 0
4, 73679, Note_on_c, 14, 63, 110
4, 73738, Note_off_c, 14, 63, 0
4, 73739, Note_on_c, 14, 63, 110
4, 73798, Note_off_c, 14, 63, 0
4, 73799, Note_on_c, 14, 63, 110
4, 73858, Note_off_c, 14, 63, 0
4, 73859, Note_on_c, 14, 63, 110
4, 73918, Note_off_c, 14, 63, 0
4, 73919, Note_on_c, 14, 68, 110
4, 73978, Note_off_c, 14, 68, 0
4, 73979, Note_on_c, 14, 68, 110
4, 74038, Note_off_c, 14, 68, 0
4, 74039, Note_on_c, 14, 66, 110
4, 74098, Note_off_c, 14, 66, 0
4, 74099, Note_on_c, 14, 66, 110
4, 74158, Note_off_c, 14, 66, 0
4, 74159, Note_on_c, 14, 63, 110
4, 74218, Note_off_c, 14, 63, 0
4, 74219, Note_on_c, 14, 63, 110
4, 74278, Note_off_c, 14, 63, 0
4, 74279, Note_on_c, 14, 63, 110
4, 74338, Note_off_c, 14, 63, 0
4, 74339, Note_on_c, 14, 68, 110
4, 74398, Note_off_c, 14, 68, 0
4, 74399, Note_on_c, 14, 68, 110
4, 74458, Note_off_c, 14, 68, 0
4, 74459, Note_on_c, 14, 68, 110
4, 74518, Note_off_c, 14, 68, 0
4, 74519, Note_on_c, 14, 66, 110
4, 74578, Note_off_c, 14, 66, 0
4, 74579, Note_on_c, 14, 66, 110
4, 74638, Note_off_c, 14, 66, 0
4, 74639, Note_on_c, 14, 63, 110
4, 74698, Note_off_c, 14, 63, 0
4, 74699, Note_on_c, 14, 63, 110
4, 74758, Note_off_c, 14, 63, 0
4, 74759, Note_on_c, 14, 63, 110
4, 74818, Note_off_c, 14, 63, 0
4, 74819, Note_on_c, 14, 63, 110
4, 74878, Note_off_c, 14, 63, 0
4, 74879, Note_on_c, 14, 68, 110
4, 74938, Note_off_c, 14, 68, 0
4, 74939, Note_on_c, 14, 68, 110
4, 74998, Note_off_c, 14, 68, 0
4, 74999, Note_on_c, 14, 66, 110
4, 75058, Note_off_c, 14, 66, 0
4, 75059, Note_on_c, 14, 66, 110
4, 75118, Note_off_c, 14, 66, 0
4, 75119, Note_on_c, 14, 63, 110
4, 75178, Note_off_c, 14, 63, 0
4, 75179, Note_on_c, 14, 63, 110
4, 75238, Note_off_c, 14, 63, 0
4, 75239, Note_on_c, 14, 63, 110
4, 75298, Note_off_c, 14, 63, 0
4, 75299, Note_on_c, 14, 68, 110
4, 75358, Note_off_c, 14, 68, 0
4, 75359, Note_on_c, 14, 68, 110
4, 75418, Note_off_c, 14, 68, 0
4, 75419, Note_on_c, 14, 68, 110
4, 75478, Note_off_c, 14, 68, 0
4, 75479, Note_on_c, 14, 66, 110
4, 75538, Note_off_c, 14, 66, 0
4, 75539, Note_on_c, 14, 66, 110
4, 75598, Note_off_c, 14, 66, 0
4, 75599, Note_on_c, 14, 63, 110
4, 75658, Note_off_c, 14, 63, 0
4, 75659, Note_on_c, 14, 63, 110
4, 75718, Note_off_c, 14, 63, 0
4, 75719, Note_on_c, 14, 63, 110
4, 75778, Note_off_c, 14, 63, 0
4, 75779, Note_on_c, 14, 63, 110
4, 75838, Note_off_c, 14, 63, 0
4, 75839, Note_on_c, 14, 68, 110
4, 75898, Note_off_c, 14, 68, 0
4, 75899, Note_on_c, 14, 68, 110
4, 75958, Note_off_c, 14, 68, 0
4, 75959, Note_on_c, 14, 66, 110
4, 76018, Note_off_c, 14, 66, 0
4, 76019, Note_on_c, 14, 66, 110
4, 76078, Note_off_c, 14, 66, 0
4, 76079, Note_on_c, 14, 63, 110
4, 76138, Note_off_c, 14, 63, 0
4, 76139, Note_on_c, 14, 63, 110
4, 76198, Note_off_c, 14, 63, 0
4, 76199, Note_on_c, 14, 63, 110
4, 76258, Note_off_c, 14, 63, 0
4, 76259, Note_on_c, 14, 68, 110
4, 76318, Note_off_c, 14, 68, 0
4, 76319, Note_on_c, 14, 68, 110
4, 76378, Note_off_c, 14, 68, 0
4, 76379, Note_on_c, 14, 68, 110
4, 76438, Note_off_c, 14, 68, 0
4, 76439, Note_on_c, 14, 66, 110
4, 76498, Note_off_c, 14, 66, 0
4, 76499, Note_on_c, 14, 66, 110
4, 76558, Note_off_c, 14, 66, 0
4, 76559, Note_on_c, 14, 63, 110
4, 76618, Note_off_c, 14, 63, 0
4, 76619, Note_on_c, 14, 63, 110
4, 76678, Note_off_c, 14, 63, 0
4, 76679, Note_on_c, 14, 63, 110
4, 76738, Note_off_c, 14, 63, 0
4, 76739, Note_on_c, 14, 63, 110
4, 76798, Note_off_c, 14, 63, 0
4, 76799, Note_on_c, 14, 68, 110
4, 76858, Note_off_c, 14, 68, 0
4, 76859, Note_on_c, 14, 68, 110
4, 76918, Note_off_c, 14, 68, 0
4, 76919, Note_on_c, 14, 66, 110
4, 76978, Note_off_c, 14, 66, 0
4, 76979, Note_on_c, 14, 66, 110
4, 77038, Note_off_c, 14, 66, 0
4, 77039, Note_on_c, 14, 63, 110
4, 77098, Note_off_c, 14, 63, 0
4, 77099, Note_on_c, 14, 63, 110
4, 77158, Note_off_c, 14, 63, 0
4, 77159, Note_on_c, 14, 63, 110
4, 77218, Note_off_c, 14, 63, 0
4, 77219, Note_on_c, 14, 68, 110
4, 77278, Note_off_c, 14, 68, 0
4, 77279, Note_on_c, 14, 68, 110
4, 77338, Note_off_c, 14, 68, 0
4, 77339, Note_on_c, 14, 68, 110
4, 77398, Note_off_c, 14, 68, 0
4, 77399, Note_on_c, 14, 66, 110
4, 77458, Note_off_c, 14, 66, 0
4, 77459, Note_on_c, 14, 66, 110
4, 77518, Note_off_c, 14, 66, 0
4, 77519, Note_on_c, 14, 63, 110
4, 77578, Note_off_c, 14, 63, 0
4, 77579, Note_on_c, 14, 63, 110
4, 77638, Note_off_c, 14, 63, 0
4, 77639, Note_on_c, 14, 63, 110
4, 77698, Note_off_c, 14, 63, 0
4, 77699, Note_on_c, 14, 63, 110
4, 77758, Note_off_c, 14, 63, 0
4, 77759, Note_on_c, 14, 68, 110
4, 77818, Note_off_c, 14, 68, 0
4, 77819, Note_on_c, 14, 68, 110
4, 77878, Note_off_c, 14, 68, 0
4, 77879, Note_on_c, 14, 66, 110
4, 77938, Note_off_c, 14, 66, 0
4, 77939, Note_on_c, 14, 66, 110
4, 77998, Note_off_c, 14, 66, 0
4, 77999, Note_on_c, 14, 63, 110
4, 78058, Note_off_c, 14, 63, 0
4, 78059, Note_on_c, 14, 63, 110
4, 78118, Note_off_c, 14, 63, 0
4, 78119, Note_on_c, 14, 61, 110
4, 78178, Note_off_c, 14, 61, 0
4, 78179, Note_on_c, 14, 61, 110
4, 78238, Note_off_c, 14, 61, 0
4, 78239, Note_on_c, 14, 63, 110
4, 78298, Note_off_c, 14, 63, 0
4, 78299, Note_on_c, 14, 63, 110
4, 78358, Note_off_c, 14, 63, 0
4, 78359, Note_on_c, 14, 66, 110
4, 78418, Note_off_c, 14, 66, 0
4, 78419, Note_on_c, 14, 66, 110
4, 78478, Note_off_c, 14, 66, 0
4, 78479, Note_on_c, 14, 63, 110
4, 78538, Note_off_c, 14, 63, 0
4, 78539, Note_on_c, 14, 63, 110
4, 78598, Note_off_c, 14, 63, 0
4, 78599, Note_on_c, 14, 61, 110
4, 78658, Note_off_c, 14, 61, 0
4, 78659, Note_on_c, 14, 61, 110
4, 78718, Note_off_c, 14, 61, 0
4, 78719, Note_on_c, 14, 75, 110
4, 78819, Note_off_c, 14, 75, 0
4, 78839, Note_on_c, 14, 75, 110
4, 78999, Note_off_c, 14, 75, 0
4, 79019, Note_on_c, 14, 75, 110
4, 79078, Note_off_c, 14, 75, 0
4, 79079, Note_on_c, 14, 75, 110
4, 79138, Note_off_c, 14, 75, 0
4, 79139, Note_on_c, 14, 75, 110
4, 79198, Note_off_c, 14, 75, 0
4, 79199, Note_on_c, 14, 75, 110
4, 79299, Note_off_c, 14, 75, 0
4, 79319, Note_on_c, 14, 75, 110
4, 79378, Note_off_c, 14, 75, 0
4, 79379, Note_on_c, 14, 75, 110
4, 79479, Note_off_c, 14, 75, 0
4, 79499, Note_on_c, 14, 75, 110
4, 79558, Note_off_c, 14, 75, 0
4, 79559, Note_on_c, 14, 75, 110
4, 79618, Note_off_c, 14, 75, 0
4, 79619, Note_on_c, 14, 75, 110
4, 79779, Note_off_c, 14, 75, 0
4, 79799, Note_on_c, 14, 75, 110
4, 79959, Note_off_c, 14, 75, 0
4, 79979, Note_on_c, 14, 75, 110
4, 80038, Note_off_c, 14, 75, 0
4, 80039, Note_on_c, 14, 75, 110
4, 80098, Note_off_c, 14, 75, 0
4, 80099, Note_on_c, 14, 75, 110
4, 80158, Note_off_c, 14, 75, 0
4, 80159, Note_on_c, 14, 75, 110
4, 80259, Note_off_c, 14, 75, 0
4, 80279, Note_on_c, 14, 75, 110
4, 80338, Note_off_c, 14, 75, 0
4, 80339, Note_on_c, 14, 75, 110
4, 80439, Note_off_c, 14, 75, 0
4, 80459, Note_on_c, 14, 75, 110
4, 80518, Note_off_c, 14, 75, 0
4, 80519, Note_on_c, 14, 75, 110
4, 80578, Note_off_c, 14, 75, 0
4, 80579, Note_on_c, 14, 75, 110
4, 80638, Note_off_c, 14, 75, 0
4, 80639, Note_on_c, 14, 71, 110
4, 80739, Note_off_c, 14, 71, 0
4, 80759, Note_on_c, 14, 71, 110
4, 80919, Note_off_c, 14, 71, 0
4, 80939, Note_on_c, 14, 71, 110
4, 80998, Note_off_c, 14, 71, 0
4, 80999, Note_on_c, 14, 71, 110
4, 81058, Note_off_c, 14, 71, 0
4, 81059, Note_on_c, 14, 71, 110
4, 81118, Note_off_c, 14, 71, 0
4, 81119, Note_on_c, 14, 71, 110
4, 81219, Note_off_c, 14, 71, 0
4, 81239, Note_on_c, 14, 71, 110
4, 81298, Note_off_c, 14, 71, 0
4, 81299, Note_on_c, 14, 71, 110
4, 81399, Note_off_c, 14, 71, 0
4, 81419, Note_on_c, 14, 71, 110
4, 81478, Note_off_c, 14, 71, 0
4, 81479, Note_on_c, 14, 71, 110
4, 81538, Note_off_c, 14, 71, 0
4, 81539, Note_on_c, 14, 71, 110
4, 81699, Note_off_c, 14, 71, 0
4, 81719, Note_on_c, 14, 71, 110
4, 81879, Note_off_c, 14, 71, 0
4, 81899, Note_on_c, 14, 71, 110
4, 81958, Note_off_c, 14, 71, 0
4, 81959, Note_on_c, 14, 71, 110
4, 82018, Note_off_c, 14, 71, 0
4, 82019, Note_on_c, 14, 71, 110
4, 82078, Note_off_c, 14, 71, 0
4, 82079, Note_on_c, 14, 67, 110
4, 82138, Note_off_c, 14, 67, 0
4, 82139, Note_on_c, 14, 67, 110
4, 82198, Note_off_c, 14, 67, 0
4, 82199, Note_on_c, 14, 67, 110
4, 82258, Note_off_c, 14, 67, 0
4, 82259, Note_on_c, 14, 67, 110
4, 82469, Note_off_c, 14, 67, 0
4, 82559, Note_on_c, 14, 75, 110
4, 82659, Note_off_c, 14, 75, 0
4, 82679, Note_on_c, 14, 75, 110
4, 82839, Note_off_c, 14, 75, 0
4, 82859, Note_on_c, 14, 75, 110
4, 82918, Note_off_c, 14, 75, 0
4, 82919, Note_on_c, 14, 75, 110
4, 82978, Note_off_c, 14, 75, 0
4, 82979, Note_on_c, 14, 75, 110
4, 83038, Note_off_c, 14, 75, 0
4, 83039, Note_on_c, 14, 75, 110
4, 83139, Note_off_c, 14, 75, 0
4, 83159, Note_on_c, 14, 75, 110
4, 83218, Note_off_c, 14, 75, 0
4, 83219, Note_on_c, 14, 75, 110
4, 83319, Note_off_c, 14, 75, 0
4, 83339, Note_on_c, 14, 75, 110
4, 83398, Note_off_c, 14, 75, 0
4, 83399, Note_on_c, 14, 75, 110
4, 83458, Note_off_c, 14, 75, 0
4, 83459, Note_on_c, 14, 75, 110
4, 83619, Note_off_c, 14, 75, 0
4, 83639, Note_on_c, 14, 75, 110
4, 83799, Note_off_c, 14, 75, 0
4, 83819, Note_on_c, 14, 75, 110
4, 83878, Note_off_c, 14, 75, 0
4, 83879, Note_on_c, 14, 75, 110
4, 83938, Note_off_c, 14, 75, 0
4, 83939, Note_on_c, 14, 75, 110
4, 83998, Note_off_c, 14, 75, 0
4, 83999, Note_on_c, 14, 75, 110
4, 84099, Note_off_c, 14, 75, 0
4, 84119, Note_on_c, 14, 75, 110
4, 84178, Note_off_c, 14, 75, 0
4, 84179, Note_on_c, 14, 75, 110
4, 84279, Note_off_c, 14, 75, 0
4, 84299, Note_on_c, 14, 75, 110
4, 84358, Note_off_c, 14, 75, 0
4, 84359, Note_on_c, 14, 75, 110
4, 84418, Note_off_c, 14, 75, 0
4, 84419, Note_on_c, 14, 75, 110
4, 84478, Note_off_c, 14, 75, 0
4, 84479, Note_on_c, 14, 71, 110
4, 84579, Note_off_c, 14, 71, 0
4, 84599, Note_on_c, 14, 71, 110
4, 84759, Note_off_c, 14, 71, 0
4, 84779, Note_on_c, 14, 71, 110
4, 84838, Note_off_c, 14, 71, 0
4, 84839, Note_on_c, 14, 71, 110
4, 84898, Note_off_c, 14, 71, 0
4, 84899, Note_on_c, 14, 71, 110
4, 84958, Note_off_c, 14, 71, 0
4, 84959, Note_on_c, 14, 71, 110
4, 85059, Note_off_c, 14, 71, 0
4, 85079, Note_on_c, 14, 71, 110
4, 85138, Note_off_c, 14, 71, 0
4, 85139, Note_on_c, 14, 71, 110
4, 85239, Note_off_c, 14, 71, 0
4, 85259, Note_on_c, 14, 71, 110
4, 85318, Note_off_c, 14, 71, 0
4, 85319, Note_on_c, 14, 71, 110
4, 85378, Note_off_c, 14, 71, 0
4, 85379, Note_on_c, 14, 71, 110
4, 85539, Note_off_c, 14, 71, 0
4, 85559, Note_on_c, 14, 71, 110
4, 85719, Note_off_c, 14, 71, 0
4, 85739, Note_on_c, 14, 71, 110
4, 85798, Note_off_c, 14, 71, 0
4, 85799, Note_on_c, 14, 71, 110
4, 85858, Note_off_c, 14, 71, 0
4, 85859, Note_on_c, 14, 71, 110
4, 85918, Note_off_c, 14, 71, 0
4, 85919, Note_on_c, 14, 67, 110
4, 86025, Note_off_c, 14, 67, 0
4, 86027, Note_on_c, 14, 67, 110
4, 86133, Note_off_c, 14, 67, 0
4, 86135, Note_on_c, 14, 67, 110
4, 86241, Note_off_c, 14, 67, 0
4, 86243, Note_on_c, 14, 67, 110
4, 86349, Note_off_c, 14, 67, 0
4, 86351, Note_on_c, 14, 67, 110
4, 86457, Note_off_c, 14, 67, 0
4, 86459, Note_on_c, 14, 67, 110
4, 86565, Note_off_c, 14, 67, 0
4, 86567, Note_on_c, 14, 67, 110
4, 86708, Note_off_c, 14, 67, 0
4, 86711, Note_on_c, 14, 67, 110
4, 86852, Note_off_c, 14, 67, 0
4, 86855, Note_on_c, 14, 67, 110
4, 87359, Note_off_c, 14, 67, 0
4, 88007, Note_on_c, 14, 75, 110
4, 88247, Note_off_c, 14, 75, 0
4, 88247, End_track
5, 0, Start_track
5, 0, Title_t, "Staff-3"
5, 9599, Program_c, 12, 27
5, 9599, Note_on_c, 12, 75, 110
5, 9699, Note_off_c, 12, 75, 0
5, 9719, Note_on_c, 12, 75, 110
5, 9879, Note_off_c, 12, 75, 0
5, 9899, Note_on_c, 12, 75, 110
5, 9958, Note_off_c, 12, 75, 0
5, 9959, Note_on_c, 12, 75, 110
5, 10018, Note_off_c, 12, 75, 0
5, 10019, Note_on_c, 12, 75, 110
5, 10078, Note_off_c, 12, 75, 0
5, 10079, Note_on_c, 12, 78, 110
5, 10138, Note_off_c, 12, 78, 0
5, 10139, Note_on_c, 12, 78, 110
5, 10198, Note_off_c, 12, 78, 0
5, 10199, Note_on_c, 12, 78, 110
5, 10258, Note_off_c, 12, 78, 0
5, 10259, Note_on_c, 12, 75, 110
5, 10359, Note_off_c, 12, 75, 0
5, 10379, Note_on_c, 12, 75, 110
5, 10438, Note_off_c, 12, 75, 0
5, 10439, Note_on_c, 12, 75, 110
5, 10498, Note_off_c, 12, 75, 0
5, 10499, Note_on_c, 12, 75, 110
5, 10558, Note_off_c, 12, 75, 0
5, 10559, Note_on_c, 12, 80, 110
5, 10618, Note_off_c, 12, 80, 0
5, 10619, Note_on_c, 12, 80, 110
5, 10678, Note_off_c, 12, 80, 0
5, 10679, Note_on_c, 12, 80, 110
5, 10738, Note_off_c, 12, 80, 0
5, 10739, Note_on_c, 12, 75, 110
5, 10839, Note_off_c, 12, 75, 0
5, 10859, Note_on_c, 12, 75, 110
5, 10918, Note_off_c, 12, 75, 0
5, 10919, Note_on_c, 12, 75, 110
5, 10978, Note_off_c, 12, 75, 0
5, 10979, Note_on_c, 12, 82, 110
5, 11038, Note_off_c, 12, 82, 0
5, 11039, Note_on_c, 12, 82, 110
5, 11098, Note_off_c, 12, 82, 0
5, 11099, Note_on_c, 12, 82, 110
5, 11158, Note_off_c, 12, 82, 0
5, 11159, Note_on_c, 12, 82, 110
5, 11218, Note_off_c, 12, 82, 0
5, 11219, Note_on_c, 12, 82, 110
5, 11278, Note_off_c, 12, 82, 0
5, 11279, Note_on_c, 12, 82, 110
5, 11379, Note_off_c, 12, 82, 0
5, 11399, Note_on_c, 12, 76, 110
5, 11499, Note_off_c, 12, 76, 0
5, 11519, Note_on_c, 12, 71, 110
5, 11619, Note_off_c, 12, 71, 0
5, 11639, Note_on_c, 12, 71, 110
5, 11799, Note_off_c, 12, 71, 0
5, 11819, Note_on_c, 12, 71, 110
5, 11878, Note_off_c, 12, 71, 0
5, 11879, Note_on_c, 12, 71, 110
5, 11938, Note_off_c, 12, 71, 0
5, 11939, Note_on_c, 12, 71, 110
5, 11998, Note_off_c, 12, 71, 0
5, 11999, Note_on_c, 12, 73, 110
5, 12099, Note_off_c, 12, 73, 0
5, 12119, Note_on_c, 12, 71, 110
5, 12178, Note_off_c, 12, 71, 0
5, 12179, Note_on_c, 12, 68, 110
5, 12279, Note_off_c, 12, 68, 0
5, 12299, Note_on_c, 12, 73, 110
5, 12358, Note_off_c, 12, 73, 0
5, 12359, Note_on_c, 12, 71, 110
5, 12418, Note_off_c, 12, 71, 0
5, 12419, Note_on_c, 12, 68, 110
5, 12599, Note_on_c, 12, 71, 110
5, 12759, Note_off_c, 12, 71, 0
5, 12779, Note_on_c, 12, 71, 110
5, 12838, Note_off_c, 12, 71, 0
5, 12839, Note_on_c, 12, 71, 110
5, 12898, Note_off_c, 12, 71, 0
5, 12899, Note_on_c, 12, 71, 110
5, 12958, Note_off_c, 12, 71, 0
5, 12959, Note_on_c, 12, 67, 110
5, 13018, Note_off_c, 12, 67, 0
5, 13019, Note_on_c, 12, 67, 110
5, 13078, Note_off_c, 12, 67, 0
5, 13079, Note_on_c, 12, 67, 110
5, 13138, Note_off_c, 12, 67, 0
5, 13139, Note_on_c, 12, 67, 110
5, 13349, Note_off_c, 12, 67, 0
5, 13439, Note_on_c, 12, 75, 110
5, 13539, Note_off_c, 12, 75, 0
5, 13559, Note_on_c, 12, 75, 110
5, 13719, Note_off_c, 12, 75, 0
5, 13739, Note_on_c, 12, 75, 110
5, 13798, Note_off_c, 12, 75, 0
5, 13799, Note_on_c, 12, 75, 110
5, 13858, Note_off_c, 12, 75, 0
5, 13859, Note_on_c, 12, 75, 110
5, 13918, Note_off_c, 12, 75, 0
5, 13919, Note_on_c, 12, 78, 110
5, 13978, Note_off_c, 12, 78, 0
5, 13979, Note_on_c, 12, 78, 110
5, 14038, Note_off_c, 12, 78, 0
5, 14039, Note_on_c, 12, 78, 110
5, 14098, Note_off_c, 12, 78, 0
5, 14099, Note_on_c, 12, 75, 110
5, 14199, Note_off_c, 12, 75, 0
5, 14219, Note_on_c, 12, 75, 110
5, 14278, Note_off_c, 12, 75, 0
5, 14279, Note_on_c, 12, 75, 110
5, 14338, Note_off_c, 12, 75, 0
5, 14339, Note_on_c, 12, 75, 110
5, 14398, Note_off_c, 12, 75, 0
5, 14399, Note_on_c, 12, 80, 110
5, 14458, Note_off_c, 12, 80, 0
5, 14459, Note_on_c, 12, 80, 110
5, 14518, Note_off_c, 12, 80, 0
5, 14519, Note_on_c, 12, 80, 110
5, 14578, Note_off_c, 12, 80, 0
5, 14579, Note_on_c, 12, 75, 110
5, 14679, Note_off_c, 12, 75, 0
5, 14699, Note_on_c, 12, 75, 110
5, 14758, Note_off_c, 12, 75, 0
5, 14759, Note_on_c, 12, 75, 110
5, 14818, Note_off_c, 12, 75, 0
5, 14819, Note_on_c, 12, 82, 110
5, 14878, Note_off_c, 12, 82, 0
5, 14879, Note_on_c, 12, 82, 110
5, 14938, Note_off_c, 12, 82, 0
5, 14939, Note_on_c, 12, 82, 110
5, 14998, Note_off_c, 12, 82, 0
5, 14999, Note_on_c, 12, 82, 110
5, 15058, Note_off_c, 12, 82, 0
5, 15059, Note_on_c, 12, 82, 110
5, 15118, Note_off_c, 12, 82, 0
5, 15119, Note_on_c, 12, 82, 110
5, 15219, Note_off_c, 12, 82, 0
5, 15239, Note_on_c, 12, 76, 110
5, 15339, Note_off_c, 12, 76, 0
5, 15359, Note_on_c, 12, 71, 110
5, 15459, Note_off_c, 12, 71, 0
5, 15479, Note_on_c, 12, 71, 110
5, 15639, Note_off_c, 12, 71, 0
5, 15659, Note_on_c, 12, 71, 110
5, 15718, Note_off_c, 12, 71, 0
5, 15719, Note_on_c, 12, 71, 110
5, 15778, Note_off_c, 12, 71, 0
5, 15779, Note_on_c, 12, 71, 110
5, 15838, Note_off_c, 12, 71, 0
5, 15839, Note_on_c, 12, 73, 110
5, 15939, Note_off_c, 12, 73, 0
5, 15959, Note_on_c, 12, 71, 110
5, 16018, Note_off_c, 12, 71, 0
5, 16019, Note_off_c, 12, 68, 0
5, 16019, Note_on_c, 12, 68, 110
5, 16119, Note_off_c, 12, 68, 0
5, 16139, Note_on_c, 12, 73, 110
5, 16198, Note_off_c, 12, 73, 0
5, 16199, Note_on_c, 12, 71, 110
5, 16258, Note_off_c, 12, 71, 0
5, 16259, Note_on_c, 12, 68, 110
5, 16439, Note_on_c, 12, 71, 110
5, 16599, Note_off_c, 12, 71, 0
5, 16619, Note_on_c, 12, 71, 110
5, 16678, Note_off_c, 12, 71, 0
5, 16679, Note_on_c, 12, 71, 110
5, 16738, Note_off_c, 12, 71, 0
5, 16739, Note_on_c, 12, 71, 110
5, 16798, Note_off_c, 12, 71, 0
5, 16799, Note_on_c, 12, 67, 110
5, 16858, Note_off_c, 12, 67, 0
5, 16859, Note_on_c, 12, 67, 110
5, 16918, Note_off_c, 12, 67, 0
5, 16919, Note_on_c, 12, 67, 110
5, 16978, Note_off_c, 12, 67, 0
5, 16979, Note_on_c, 12, 67, 110
5, 17189, Note_off_c, 12, 67, 0
5, 88247, Note_off_c, 12, 68, 0
5, 88247, End_track
6, 0, Start_track
6, 0, Title_t, "Staff-4"
6, 5759, Program_c, 13, 33
6, 5759, Note_on_c, 13, 35, 110
6, 5848, Note_off_c, 13, 35, 0
6, 5849, Note_on_c, 13, 35, 110
6, 5938, Note_off_c, 13, 35, 0
6, 5939, Note_on_c, 13, 35, 110
6, 6039, Note_off_c, 13, 35, 0
6, 6239, Note_on_c, 13, 35, 110
6, 6328, Note_off_c, 13, 35, 0
6, 6329, Note_on_c, 13, 35, 110
6, 6418, Note_off_c, 13, 35, 0
6, 6419, Note_on_c, 13, 35, 110
6, 6519, Note_off_c, 13, 35, 0
6, 6719, Note_on_c, 13, 35, 110
6, 6808, Note_off_c, 13, 35, 0
6, 6809, Note_on_c, 13, 35, 110
6, 6898, Note_off_c, 13, 35, 0
6, 6899, Note_on_c, 13, 35, 110
6, 6999, Note_off_c, 13, 35, 0
6, 7199, Note_on_c, 13, 35, 110
6, 7288, Note_off_c, 13, 35, 0
6, 7289, Note_on_c, 13, 35, 110
6, 7378, Note_off_c, 13, 35, 0
6, 7379, Note_on_c, 13, 35, 110
6, 7479, Note_off_c, 13, 35, 0
6, 7679, Note_on_c, 13, 35, 110
6, 7768, Note_off_c, 13, 35, 0
6, 7769, Note_on_c, 13, 35, 110
6, 7858, Note_off_c, 13, 35, 0
6, 7859, Note_on_c, 13, 35, 110
6, 7959, Note_off_c, 13, 35, 0
6, 8159, Note_on_c, 13, 35, 110
6, 8248, Note_off_c, 13, 35, 0
6, 8249, Note_on_c, 13, 35, 110
6, 8338, Note_off_c, 13, 35, 0
6, 8339, Note_on_c, 13, 35, 110
6, 8439, Note_off_c, 13, 35, 0
6, 8639, Note_on_c, 13, 35, 110
6, 8728, Note_off_c, 13, 35, 0
6, 8729, Note_on_c, 13, 35, 110
6, 8818, Note_off_c, 13, 35, 0
6, 8819, Note_on_c, 13, 35, 110
6, 8919, Note_off_c, 13, 35, 0
6, 9119, Note_on_c, 13, 35, 110
6, 9208, Note_off_c, 13, 35, 0
6, 9209, Note_on_c, 13, 35, 110
6, 9298, Note_off_c, 13, 35, 0
6, 9299, Note_on_c, 13, 35, 110
6, 9399, Note_off_c, 13, 35, 0
6, 9599, Note_on_c, 13, 35, 110
6, 10049, Note_off_c, 13, 35, 0
6, 10079, Note_on_c, 13, 35, 110
6, 10529, Note_off_c, 13, 35, 0
6, 10559, Note_on_c, 13, 35, 110
6, 10978, Note_off_c, 13, 35, 0
6, 10979, Note_on_c, 13, 35, 110
6, 11038, Note_off_c, 13, 35, 0
6, 11039, Note_on_c, 13, 35, 110
6, 11098, Note_off_c, 13, 35, 0
6, 11099, Note_on_c, 13, 35, 110
6, 11158, Note_off_c, 13, 35, 0
6, 11159, Note_on_c, 13, 35, 110
6, 11218, Note_off_c, 13, 35, 0
6, 11219, Note_on_c, 13, 35, 110
6, 11278, Note_off_c, 13, 35, 0
6, 11279, Note_on_c, 13, 35, 110
6, 11379, Note_off_c, 13, 35, 0
6, 11399, Note_on_c, 13, 35, 110
6, 11499, Note_off_c, 13, 35, 0
6, 11519, Note_on_c, 13, 40, 110
6, 11969, Note_off_c, 13, 40, 0
6, 11999, Note_on_c, 13, 40, 110
6, 12449, Note_off_c, 13, 40, 0
6, 12479, Note_on_c, 13, 40, 110
6, 12898, Note_off_c, 13, 40, 0
6, 12899, Note_on_c, 13, 40, 110
6, 12958, Note_off_c, 13, 40, 0
6, 12959, Note_on_c, 13, 40, 110
6, 13018, Note_off_c, 13, 40, 0
6, 13019, Note_on_c, 13, 40, 110
6, 13078, Note_off_c, 13, 40, 0
6, 13079, Note_on_c, 13, 40, 110
6, 13138, Note_off_c, 13, 40, 0
6, 13139, Note_on_c, 13, 40, 110
6, 13438, Note_off_c, 13, 40, 0
6, 13439, Note_on_c, 13, 35, 110
6, 13889, Note_off_c, 13, 35, 0
6, 13919, Note_on_c, 13, 35, 110
6, 14369, Note_off_c, 13, 35, 0
6, 14399, Note_on_c, 13, 35, 110
6, 14818, Note_off_c, 13, 35, 0
6, 14819, Note_on_c, 13, 35, 110
6, 14878, Note_off_c, 13, 35, 0
6, 14879, Note_on_c, 13, 35, 110
6, 14938, Note_off_c, 13, 35, 0
6, 14939, Note_on_c, 13, 35, 110
6, 14998, Note_off_c, 13, 35, 0
6, 14999, Note_on_c, 13, 35, 110
6, 15058, Note_off_c, 13, 35, 0
6, 15059, Note_on_c, 13, 35, 110
6, 15118, Note_off_c, 13, 35, 0
6, 15119, Note_on_c, 13, 35, 110
6, 15219, Note_off_c, 13, 35, 0
6, 15239, Note_on_c, 13, 35, 110
6, 15339, Note_off_c, 13, 35, 0
6, 15359, Note_on_c, 13, 40, 110
6, 15809, Note_off_c, 13, 40, 0
6, 15839, Note_on_c, 13, 40, 110
6, 16289, Note_off_c, 13, 40, 0
6, 16319, Note_on_c, 13, 40, 110
6, 16738, Note_off_c, 13, 40, 0
6, 16739, Note_on_c, 13, 40, 110
6, 16798, Note_off_c, 13, 40, 0
6, 16799, Note_on_c, 13, 40, 110
6, 16858, Note_off_c, 13, 40, 0
6, 16859, Note_on_c, 13, 40, 110
6, 16918, Note_off_c, 13, 40, 0
6, 16919, Note_on_c, 13, 40, 110
6, 16978, Note_off_c, 13, 40, 0
6, 16979, Note_on_c, 13, 40, 110
6, 17278, Note_off_c, 13, 40, 0
6, 17279, Note_on_c, 13, 35, 110
6, 17338, Note_off_c, 13, 35, 0
6, 17339, Note_on_c, 13, 39, 110
6, 17439, Note_off_c, 13, 39, 0
6, 17459, Note_on_c, 13, 39, 110
6, 17518, Note_off_c, 13, 39, 0
6, 17519, Note_on_c, 13, 42, 110
6, 17578, Note_off_c, 13, 42, 0
6, 17579, Note_on_c, 13, 47, 110
6, 17638, Note_off_c, 13, 47, 0
6, 17639, Note_on_c, 13, 42, 110
6, 17739, Note_off_c, 13, 42, 0
6, 17759, Note_on_c, 13, 35, 110
6, 17818, Note_off_c, 13, 35, 0
6, 17819, Note_on_c, 13, 39, 110
6, 17919, Note_off_c, 13, 39, 0
6, 17939, Note_on_c, 13, 39, 110
6, 17998, Note_off_c, 13, 39, 0
6, 17999, Note_on_c, 13, 42, 110
6, 18058, Note_off_c, 13, 42, 0
6, 18059, Note_on_c, 13, 47, 110
6, 18118, Note_off_c, 13, 47, 0
6, 18119, Note_on_c, 13, 42, 110
6, 18219, Note_off_c, 13, 42, 0
6, 18239, Note_on_c, 13, 35, 110
6, 18298, Note_off_c, 13, 35, 0
6, 18299, Note_on_c, 13, 39, 110
6, 18399, Note_off_c, 13, 39, 0
6, 18419, Note_on_c, 13, 39, 110
6, 18478, Note_off_c, 13, 39, 0
6, 18479, Note_on_c, 13, 42, 110
6, 18538, Note_off_c, 13, 42, 0
6, 18539, Note_on_c, 13, 47, 110
6, 18598, Note_off_c, 13, 47, 0
6, 18599, Note_on_c, 13, 42, 110
6, 18699, Note_off_c, 13, 42, 0
6, 18719, Note_on_c, 13, 35, 110
6, 18778, Note_off_c, 13, 35, 0
6, 18779, Note_on_c, 13, 39, 110
6, 18879, Note_off_c, 13, 39, 0
6, 18899, Note_on_c, 13, 39, 110
6, 18958, Note_off_c, 13, 39, 0
6, 18959, Note_on_c, 13, 42, 110
6, 19018, Note_off_c, 13, 42, 0
6, 19019, Note_on_c, 13, 47, 110
6, 19078, Note_off_c, 13, 47, 0
6, 19079, Note_on_c, 13, 42, 110
6, 19179, Note_off_c, 13, 42, 0
6, 19199, Note_on_c, 13, 40, 110
6, 19258, Note_off_c, 13, 40, 0
6, 19259, Note_on_c, 13, 44, 110
6, 19359, Note_off_c, 13, 44, 0
6, 19379, Note_on_c, 13, 44, 110
6, 19438, Note_off_c, 13, 44, 0
6, 19439, Note_on_c, 13, 51, 110
6, 19498, Note_off_c, 13, 51, 0
6, 19499, Note_on_c, 13, 47, 110
6, 19599, Note_off_c, 13, 47, 0
6, 19619, Note_on_c, 13, 47, 110
6, 19678, Note_off_c, 13, 47, 0
6, 19679, Note_on_c, 13, 40, 110
6, 19738, Note_off_c, 13, 40, 0
6, 19739, Note_on_c, 13, 44, 110
6, 19839, Note_off_c, 13, 44, 0
6, 19859, Note_on_c, 13, 44, 110
6, 19918, Note_off_c, 13, 44, 0
6, 19919, Note_on_c, 13, 51, 110
6, 19978, Note_off_c, 13, 51, 0
6, 19979, Note_on_c, 13, 47, 110
6, 20079, Note_off_c, 13, 47, 0
6, 20099, Note_on_c, 13, 47, 110
6, 20158, Note_off_c, 13, 47, 0
6, 20159, Note_on_c, 13, 40, 110
6, 20218, Note_off_c, 13, 40, 0
6, 20219, Note_on_c, 13, 44, 110
6, 20319, Note_off_c, 13, 44, 0
6, 20339, Note_on_c, 13, 44, 110
6, 20398, Note_off_c, 13, 44, 0
6, 20399, Note_on_c, 13, 51, 110
6, 20458, Note_off_c, 13, 51, 0
6, 20459, Note_on_c, 13, 47, 110
6, 20559, Note_off_c, 13, 47, 0
6, 20579, Note_on_c, 13, 47, 110
6, 20638, Note_off_c, 13, 47, 0
6, 20639, Note_on_c, 13, 40, 110
6, 20698, Note_off_c, 13, 40, 0
6, 20699, Note_on_c, 13, 43, 110
6, 20758, Note_off_c, 13, 43, 0
6, 20759, Note_on_c, 13, 43, 110
6, 20818, Note_off_c, 13, 43, 0
6, 20819, Note_on_c, 13, 43, 110
6, 20878, Note_off_c, 13, 43, 0
6, 20879, Note_on_c, 13, 42, 110
6, 20938, Note_off_c, 13, 42, 0
6, 20939, Note_on_c, 13, 42, 110
6, 20998, Note_off_c, 13, 42, 0
6, 20999, Note_on_c, 13, 40, 110
6, 21058, Note_off_c, 13, 40, 0
6, 21059, Note_on_c, 13, 40, 110
6, 21118, Note_off_c, 13, 40, 0
6, 21119, Note_on_c, 13, 35, 110
6, 21178, Note_off_c, 13, 35, 0
6, 21179, Note_on_c, 13, 39, 110
6, 21279, Note_off_c, 13, 39, 0
6, 21299, Note_on_c, 13, 39, 110
6, 21358, Note_off_c, 13, 39, 0
6, 21359, Note_on_c, 13, 42, 110
6, 21418, Note_off_c, 13, 42, 0
6, 21419, Note_on_c, 13, 47, 110
6, 21478, Note_off_c, 13, 47, 0
6, 21479, Note_on_c, 13, 42, 110
6, 21579, Note_off_c, 13, 42, 0
6, 21599, Note_on_c, 13, 35, 110
6, 21658, Note_off_c, 13, 35, 0
6, 21659, Note_on_c, 13, 39, 110
6, 21759, Note_off_c, 13, 39, 0
6, 21779, Note_on_c, 13, 39, 110
6, 21838, Note_off_c, 13, 39, 0
6, 21839, Note_on_c, 13, 42, 110
6, 21898, Note_off_c, 13, 42, 0
6, 21899, Note_on_c, 13, 47, 110
6, 21958, Note_off_c, 13, 47, 0
6, 21959, Note_on_c, 13, 42, 110
6, 22059, Note_off_c, 13, 42, 0
6, 22079, Note_on_c, 13, 35, 110
6, 22138, Note_off_c, 13, 35, 0
6, 22139, Note_on_c, 13, 39, 110
6, 22239, Note_off_c, 13, 39, 0
6, 22259, Note_on_c, 13, 39, 110
6, 22318, Note_off_c, 13, 39, 0
6, 22319, Note_on_c, 13, 42, 110
6, 22378, Note_off_c, 13, 42, 0
6, 22379, Note_on_c, 13, 47, 110
6, 22438, Note_off_c, 13, 47, 0
6, 22439, Note_on_c, 13, 42, 110
6, 22539, Note_off_c, 13, 42, 0
6, 22559, Note_on_c, 13, 35, 110
6, 22618, Note_off_c, 13, 35, 0
6, 22619, Note_on_c, 13, 39, 110
6, 22719, Note_off_c, 13, 39, 0
6, 22739, Note_on_c, 13, 39, 110
6, 22798, Note_off_c, 13, 39, 0
6, 22799, Note_on_c, 13, 42, 110
6, 22858, Note_off_c, 13, 42, 0
6, 22859, Note_on_c, 13, 47, 110
6, 22918, Note_off_c, 13, 47, 0
6, 22919, Note_on_c, 13, 42, 110
6, 23019, Note_off_c, 13, 42, 0
6, 23039, Note_on_c, 13, 40, 110
6, 23098, Note_off_c, 13, 40, 0
6, 23099, Note_on_c, 13, 44, 110
6, 23199, Note_off_c, 13, 44, 0
6, 23219, Note_on_c, 13, 44, 110
6, 23278, Note_off_c, 13, 44, 0
6, 23279, Note_on_c, 13, 51, 110
6, 23338, Note_off_c, 13, 51, 0
6, 23339, Note_on_c, 13, 47, 110
6, 23439, Note_off_c, 13, 47, 0
6, 23459, Note_on_c, 13, 47, 110
6, 23518, Note_off_c, 13, 47, 0
6, 23519, Note_on_c, 13, 40, 110
6, 23578, Note_off_c, 13, 40, 0
6, 23579, Note_on_c, 13, 44, 110
6, 23679, Note_off_c, 13, 44, 0
6, 23699, Note_on_c, 13, 44, 110
6, 23758, Note_off_c, 13, 44, 0
6, 23759, Note_on_c, 13, 51, 110
6, 23818, Note_off_c, 13, 51, 0
6, 23819, Note_on_c, 13, 47, 110
6, 23919, Note_off_c, 13, 47, 0
6, 23939, Note_on_c, 13, 47, 110
6, 23998, Note_off_c, 13, 47, 0
6, 23999, Note_on_c, 13, 40, 110
6, 24058, Note_off_c, 13, 40, 0
6, 24059, Note_on_c, 13, 44, 110
6, 24159, Note_off_c, 13, 44, 0
6, 24179, Note_on_c, 13, 44, 110
6, 24238, Note_off_c, 13, 44, 0
6, 24239, Note_on_c, 13, 51, 110
6, 24298, Note_off_c, 13, 51, 0
6, 24299, Note_on_c, 13, 47, 110
6, 24399, Note_off_c, 13, 47, 0
6, 24419, Note_on_c, 13, 47, 110
6, 24478, Note_off_c, 13, 47, 0
6, 24479, Note_on_c, 13, 40, 110
6, 24538, Note_off_c, 13, 40, 0
6, 24539, Note_on_c, 13, 43, 110
6, 24598, Note_off_c, 13, 43, 0
6, 24599, Note_on_c, 13, 43, 110
6, 24658, Note_off_c, 13, 43, 0
6, 24659, Note_on_c, 13, 43, 110
6, 24718, Note_off_c, 13, 43, 0
6, 24719, Note_on_c, 13, 42, 110
6, 24778, Note_off_c, 13, 42, 0
6, 24779, Note_on_c, 13, 42, 110
6, 24838, Note_off_c, 13, 42, 0
6, 24839, Note_on_c, 13, 40, 110
6, 24898, Note_off_c, 13, 40, 0
6, 24899, Note_on_c, 13, 40, 110
6, 24958, Note_off_c, 13, 40, 0
6, 24959, Note_on_c, 13, 35, 110
6, 25018, Note_off_c, 13, 35, 0
6, 25019, Note_on_c, 13, 39, 110
6, 25119, Note_off_c, 13, 39, 0
6, 25139, Note_on_c, 13, 39, 110
6, 25198, Note_off_c, 13, 39, 0
6, 25199, Note_on_c, 13, 42, 110
6, 25258, Note_off_c, 13, 42, 0
6, 25259, Note_on_c, 13, 47, 110
6, 25318, Note_off_c, 13, 47, 0
6, 25319, Note_on_c, 13, 42, 110
6, 25419, Note_off_c, 13, 42, 0
6, 25439, Note_on_c, 13, 35, 110
6, 25498, Note_off_c, 13, 35, 0
6, 25499, Note_on_c, 13, 39, 110
6, 25599, Note_off_c, 13, 39, 0
6, 25619, Note_on_c, 13, 39, 110
6, 25678, Note_off_c, 13, 39, 0
6, 25679, Note_on_c, 13, 42, 110
6, 25738, Note_off_c, 13, 42, 0
6, 25739, Note_on_c, 13, 47, 110
6, 25798, Note_off_c, 13, 47, 0
6, 25799, Note_on_c, 13, 42, 110
6, 25899, Note_off_c, 13, 42, 0
6, 25919, Note_on_c, 13, 35, 110
6, 25978, Note_off_c, 13, 35, 0
6, 25979, Note_on_c, 13, 39, 110
6, 26079, Note_off_c, 13, 39, 0
6, 26099, Note_on_c, 13, 39, 110
6, 26158, Note_off_c, 13, 39, 0
6, 26159, Note_on_c, 13, 42, 110
6, 26218, Note_off_c, 13, 42, 0
6, 26219, Note_on_c, 13, 47, 110
6, 26278, Note_off_c, 13, 47, 0
6, 26279, Note_on_c, 13, 42, 110
6, 26379, Note_off_c, 13, 42, 0
6, 26399, Note_on_c, 13, 35, 110
6, 26458, Note_off_c, 13, 35, 0
6, 26459, Note_on_c, 13, 39, 110
6, 26559, Note_off_c, 13, 39, 0
6, 26579, Note_on_c, 13, 39, 110
6, 26638, Note_off_c, 13, 39, 0
6, 26639, Note_on_c, 13, 42, 110
6, 26698, Note_off_c, 13, 42, 0
6, 26699, Note_on_c, 13, 47, 110
6, 26758, Note_off_c, 13, 47, 0
6, 26759, Note_on_c, 13, 42, 110
6, 26859, Note_off_c, 13, 42, 0
6, 26879, Note_on_c, 13, 40, 110
6, 26938, Note_off_c, 13, 40, 0
6, 26939, Note_on_c, 13, 44, 110
6, 27039, Note_off_c, 13, 44, 0
6, 27059, Note_on_c, 13, 44, 110
6, 27118, Note_off_c, 13, 44, 0
6, 27119, Note_on_c, 13, 51, 110
6, 27178, Note_off_c, 13, 51, 0
6, 27179, Note_on_c, 13, 47, 110
6, 27279, Note_off_c, 13, 47, 0
6, 27299, Note_on_c, 13, 47, 110
6, 27358, Note_off_c, 13, 47, 0
6, 27359, Note_on_c, 13, 40, 110
6, 27418, Note_off_c, 13, 40, 0
6, 27419, Note_on_c, 13, 44, 110
6, 27519, Note_off_c, 13, 44, 0
6, 27539, Note_on_c, 13, 44, 110
6, 27598, Note_off_c, 13, 44, 0
6, 27599, Note_on_c, 13, 51, 110
6, 27658, Note_off_c, 13, 51, 0
6, 27659, Note_on_c, 13, 47, 110
6, 27759, Note_off_c, 13, 47, 0
6, 27779, Note_on_c, 13, 47, 110
6, 27838, Note_off_c, 13, 47, 0
6, 27839, Note_on_c, 13, 40, 110
6, 27898, Note_off_c, 13, 40, 0
6, 27899, Note_on_c, 13, 44, 110
6, 27999, Note_off_c, 13, 44, 0
6, 28019, Note_on_c, 13, 44, 110
6, 28078, Note_off_c, 13, 44, 0
6, 28079, Note_on_c, 13, 51, 110
6, 28138, Note_off_c, 13, 51, 0
6, 28139, Note_on_c, 13, 47, 110
6, 28239, Note_off_c, 13, 47, 0
6, 28259, Note_on_c, 13, 47, 110
6, 28318, Note_off_c, 13, 47, 0
6, 28319, Note_on_c, 13, 40, 110
6, 28378, Note_off_c, 13, 40, 0
6, 28379, Note_on_c, 13, 43, 110
6, 28438, Note_off_c, 13, 43, 0
6, 28439, Note_on_c, 13, 43, 110
6, 28498, Note_off_c, 13, 43, 0
6, 28499, Note_on_c, 13, 43, 110
6, 28558, Note_off_c, 13, 43, 0
6, 28559, Note_on_c, 13, 42, 110
6, 28618, Note_off_c, 13, 42, 0
6, 28619, Note_on_c, 13, 42, 110
6, 28678, Note_off_c, 13, 42, 0
6, 28679, Note_on_c, 13, 40, 110
6, 28738, Note_off_c, 13, 40, 0
6, 28739, Note_on_c, 13, 40, 110
6, 28798, Note_off_c, 13, 40, 0
6, 28799, Note_on_c, 13, 44, 110
6, 28959, Note_off_c, 13, 44, 0
6, 28979, Note_on_c, 13, 44, 110
6, 29079, Note_off_c, 13, 44, 0
6, 29099, Note_on_c, 13, 44, 110
6, 29158, Note_off_c, 13, 44, 0
6, 29159, Note_on_c, 13, 44, 110
6, 29259, Note_off_c, 13, 44, 0
6, 29279, Note_on_c, 13, 42, 110
6, 29439, Note_off_c, 13, 42, 0
6, 29459, Note_on_c, 13, 42, 110
6, 29559, Note_off_c, 13, 42, 0
6, 29579, Note_on_c, 13, 42, 110
6, 29638, Note_off_c, 13, 42, 0
6, 29639, Note_on_c, 13, 42, 110
6, 29739, Note_off_c, 13, 42, 0
6, 29759, Note_on_c, 13, 40, 110
6, 29919, Note_off_c, 13, 40, 0
6, 29939, Note_on_c, 13, 40, 110
6, 30039, Note_off_c, 13, 40, 0
6, 30059, Note_on_c, 13, 40, 110
6, 30118, Note_off_c, 13, 40, 0
6, 30119, Note_on_c, 13, 40, 110
6, 30219, Note_off_c, 13, 40, 0
6, 30239, Note_on_c, 13, 40, 110
6, 30399, Note_off_c, 13, 40, 0
6, 30419, Note_on_c, 13, 40, 110
6, 30519, Note_off_c, 13, 40, 0
6, 30539, Note_on_c, 13, 40, 110
6, 30598, Note_off_c, 13, 40, 0
6, 30599, Note_on_c, 13, 40, 110
6, 30699, Note_off_c, 13, 40, 0
6, 30719, Note_on_c, 13, 35, 110
6, 30879, Note_off_c, 13, 35, 0
6, 30899, Note_on_c, 13, 35, 110
6, 30999, Note_off_c, 13, 35, 0
6, 31019, Note_on_c, 13, 35, 110
6, 31078, Note_off_c, 13, 35, 0
6, 31079, Note_on_c, 13, 34, 110
6, 31179, Note_off_c, 13, 34, 0
6, 31199, Note_on_c, 13, 32, 110
6, 31359, Note_off_c, 13, 32, 0
6, 31379, Note_on_c, 13, 32, 110
6, 31479, Note_off_c, 13, 32, 0
6, 31499, Note_on_c, 13, 32, 110
6, 31558, Note_off_c, 13, 32, 0
6, 31559, Note_on_c, 13, 32, 110
6, 31659, Note_off_c, 13, 32, 0
6, 31679, Note_on_c, 13, 37, 110
6, 31839, Note_off_c, 13, 37, 0
6, 31859, Note_on_c, 13, 37, 110
6, 31959, Note_off_c, 13, 37, 0
6, 31979, Note_on_c, 13, 37, 110
6, 32038, Note_off_c, 13, 37, 0
6, 32039, Note_on_c, 13, 37, 110
6, 32139, Note_off_c, 13, 37, 0
6, 32159, Note_on_c, 13, 30, 110
6, 32319, Note_off_c, 13, 30, 0
6, 32339, Note_on_c, 13, 30, 110
6, 32439, Note_off_c, 13, 30, 0
6, 32459, Note_on_c, 13, 30, 110
6, 32518, Note_off_c, 13, 30, 0
6, 32519, Note_on_c, 13, 30, 110
6, 32619, Note_off_c, 13, 30, 0
6, 32639, Note_on_c, 13, 35, 110
6, 32698, Note_off_c, 13, 35, 0
6, 32699, Note_on_c, 13, 39, 110
6, 32799, Note_off_c, 13, 39, 0
6, 32819, Note_on_c, 13, 39, 110
6, 32878, Note_off_c, 13, 39, 0
6, 32879, Note_on_c, 13, 42, 110
6, 32938, Note_off_c, 13, 42, 0
6, 32939, Note_on_c, 13, 47, 110
6, 32998, Note_off_c, 13, 47, 0
6, 32999, Note_on_c, 13, 42, 110
6, 33099, Note_off_c, 13, 42, 0
6, 33119, Note_on_c, 13, 35, 110
6, 33178, Note_off_c, 13, 35, 0
6, 33179, Note_on_c, 13, 39, 110
6, 33279, Note_off_c, 13, 39, 0
6, 33299, Note_on_c, 13, 39, 110
6, 33358, Note_off_c, 13, 39, 0
6, 33359, Note_on_c, 13, 42, 110
6, 33418, Note_off_c, 13, 42, 0
6, 33419, Note_on_c, 13, 47, 110
6, 33478, Note_off_c, 13, 47, 0
6, 33479, Note_on_c, 13, 42, 110
6, 33579, Note_off_c, 13, 42, 0
6, 33599, Note_on_c, 13, 35, 110
6, 33658, Note_off_c, 13, 35, 0
6, 33659, Note_on_c, 13, 39, 110
6, 33759, Note_off_c, 13, 39, 0
6, 33779, Note_on_c, 13, 39, 110
6, 33838, Note_off_c, 13, 39, 0
6, 33839, Note_on_c, 13, 42, 110
6, 33898, Note_off_c, 13, 42, 0
6, 33899, Note_on_c, 13, 47, 110
6, 33958, Note_off_c, 13, 47, 0
6, 33959, Note_on_c, 13, 42, 110
6, 34059, Note_off_c, 13, 42, 0
6, 34079, Note_on_c, 13, 35, 110
6, 34138, Note_off_c, 13, 35, 0
6, 34139, Note_on_c, 13, 39, 110
6, 34239, Note_off_c, 13, 39, 0
6, 34259, Note_on_c, 13, 39, 110
6, 34318, Note_off_c, 13, 39, 0
6, 34319, Note_on_c, 13, 42, 110
6, 34378, Note_off_c, 13, 42, 0
6, 34379, Note_on_c, 13, 47, 110
6, 34438, Note_off_c, 13, 47, 0
6, 34439, Note_on_c, 13, 42, 110
6, 34539, Note_off_c, 13, 42, 0
6, 34559, Note_on_c, 13, 40, 110
6, 34618, Note_off_c, 13, 40, 0
6, 34619, Note_on_c, 13, 44, 110
6, 34719, Note_off_c, 13, 44, 0
6, 34739, Note_on_c, 13, 44, 110
6, 34798, Note_off_c, 13, 44, 0
6, 34799, Note_on_c, 13, 51, 110
6, 34858, Note_off_c, 13, 51, 0
6, 34859, Note_on_c, 13, 47, 110
6, 34959, Note_off_c, 13, 47, 0
6, 34979, Note_on_c, 13, 47, 110
6, 35038, Note_off_c, 13, 47, 0
6, 35039, Note_on_c, 13, 40, 110
6, 35098, Note_off_c, 13, 40, 0
6, 35099, Note_on_c, 13, 44, 110
6, 35199, Note_off_c, 13, 44, 0
6, 35219, Note_on_c, 13, 44, 110
6, 35278, Note_off_c, 13, 44, 0
6, 35279, Note_on_c, 13, 51, 110
6, 35338, Note_off_c, 13, 51, 0
6, 35339, Note_on_c, 13, 47, 110
6, 35439, Note_off_c, 13, 47, 0
6, 35459, Note_on_c, 13, 47, 110
6, 35518, Note_off_c, 13, 47, 0
6, 35519, Note_on_c, 13, 40, 110
6, 35578, Note_off_c, 13, 40, 0
6, 35579, Note_on_c, 13, 44, 110
6, 35679, Note_off_c, 13, 44, 0
6, 35699, Note_on_c, 13, 44, 110
6, 35758, Note_off_c, 13, 44, 0
6, 35759, Note_on_c, 13, 51, 110
6, 35818, Note_off_c, 13, 51, 0
6, 35819, Note_on_c, 13, 47, 110
6, 35919, Note_off_c, 13, 47, 0
6, 35939, Note_on_c, 13, 47, 110
6, 35998, Note_off_c, 13, 47, 0
6, 35999, Note_on_c, 13, 40, 110
6, 36058, Note_off_c, 13, 40, 0
6, 36059, Note_on_c, 13, 43, 110
6, 36118, Note_off_c, 13, 43, 0
6, 36119, Note_on_c, 13, 43, 110
6, 36178, Note_off_c, 13, 43, 0
6, 36179, Note_on_c, 13, 43, 110
6, 36238, Note_off_c, 13, 43, 0
6, 36239, Note_on_c, 13, 42, 110
6, 36298, Note_off_c, 13, 42, 0
6, 36299, Note_on_c, 13, 42, 110
6, 36358, Note_off_c, 13, 42, 0
6, 36359, Note_on_c, 13, 40, 110
6, 36418, Note_off_c, 13, 40, 0
6, 36419, Note_on_c, 13, 40, 110
6, 36478, Note_off_c, 13, 40, 0
6, 36479, Note_on_c, 13, 35, 110
6, 36538, Note_off_c, 13, 35, 0
6, 36539, Note_on_c, 13, 39, 110
6, 36639, Note_off_c, 13, 39, 0
6, 36659, Note_on_c, 13, 39, 110
6, 36718, Note_off_c, 13, 39, 0
6, 36719, Note_on_c, 13, 42, 110
6, 36778, Note_off_c, 13, 42, 0
6, 36779, Note_on_c, 13, 47, 110
6, 36838, Note_off_c, 13, 47, 0
6, 36839, Note_on_c, 13, 42, 110
6, 36939, Note_off_c, 13, 42, 0
6, 36959, Note_on_c, 13, 35, 110
6, 37018, Note_off_c, 13, 35, 0
6, 37019, Note_on_c, 13, 39, 110
6, 37119, Note_off_c, 13, 39, 0
6, 37139, Note_on_c, 13, 39, 110
6, 37198, Note_off_c, 13, 39, 0
6, 37199, Note_on_c, 13, 42, 110
6, 37258, Note_off_c, 13, 42, 0
6, 37259, Note_on_c, 13, 47, 110
6, 37318, Note_off_c, 13, 47, 0
6, 37319, Note_on_c, 13, 42, 110
6, 37419, Note_off_c, 13, 42, 0
6, 37439, Note_on_c, 13, 35, 110
6, 37498, Note_off_c, 13, 35, 0
6, 37499, Note_on_c, 13, 39, 110
6, 37599, Note_off_c, 13, 39, 0
6, 37619, Note_on_c, 13, 39, 110
6, 37678, Note_off_c, 13, 39, 0
6, 37679, Note_on_c, 13, 42, 110
6, 37738, Note_off_c, 13, 42, 0
6, 37739, Note_on_c, 13, 47, 110
6, 37798, Note_off_c, 13, 47, 0
6, 37799, Note_on_c, 13, 42, 110
6, 37899, Note_off_c, 13, 42, 0
6, 37919, Note_on_c, 13, 35, 110
6, 37978, Note_off_c, 13, 35, 0
6, 37979, Note_on_c, 13, 39, 110
6, 38079, Note_off_c, 13, 39, 0
6, 38099, Note_on_c, 13, 39, 110
6, 38158, Note_off_c, 13, 39, 0
6, 38159, Note_on_c, 13, 42, 110
6, 38218, Note_off_c, 13, 42, 0
6, 38219, Note_on_c, 13, 47, 110
6, 38278, Note_off_c, 13, 47, 0
6, 38279, Note_on_c, 13, 42, 110
6, 38379, Note_off_c, 13, 42, 0
6, 38399, Note_on_c, 13, 40, 110
6, 38458, Note_off_c, 13, 40, 0
6, 38459, Note_on_c, 13, 44, 110
6, 38559, Note_off_c, 13, 44, 0
6, 38579, Note_on_c, 13, 44, 110
6, 38638, Note_off_c, 13, 44, 0
6, 38639, Note_on_c, 13, 51, 110
6, 38698, Note_off_c, 13, 51, 0
6, 38699, Note_on_c, 13, 47, 110
6, 38799, Note_off_c, 13, 47, 0
6, 38819, Note_on_c, 13, 47, 110
6, 38878, Note_off_c, 13, 47, 0
6, 38879, Note_on_c, 13, 40, 110
6, 38938, Note_off_c, 13, 40, 0
6, 38939, Note_on_c, 13, 44, 110
6, 39039, Note_off_c, 13, 44, 0
6, 39059, Note_on_c, 13, 44, 110
6, 39118, Note_off_c, 13, 44, 0
6, 39119, Note_on_c, 13, 51, 110
6, 39178, Note_off_c, 13, 51, 0
6, 39179, Note_on_c, 13, 47, 110
6, 39279, Note_off_c, 13, 47, 0
6, 39299, Note_on_c, 13, 47, 110
6, 39358, Note_off_c, 13, 47, 0
6, 39359, Note_on_c, 13, 40, 110
6, 39418, Note_off_c, 13, 40, 0
6, 39419, Note_on_c, 13, 44, 110
6, 39519, Note_off_c, 13, 44, 0
6, 39539, Note_on_c, 13, 44, 110
6, 39598, Note_off_c, 13, 44, 0
6, 39599, Note_on_c, 13, 51, 110
6, 39658, Note_off_c, 13, 51, 0
6, 39659, Note_on_c, 13, 47, 110
6, 39759, Note_off_c, 13, 47, 0
6, 39779, Note_on_c, 13, 47, 110
6, 39838, Note_off_c, 13, 47, 0
6, 39839, Note_on_c, 13, 40, 110
6, 39898, Note_off_c, 13, 40, 0
6, 39899, Note_on_c, 13, 43, 110
6, 39958, Note_off_c, 13, 43, 0
6, 39959, Note_on_c, 13, 43, 110
6, 40018, Note_off_c, 13, 43, 0
6, 40019, Note_on_c, 13, 43, 110
6, 40078, Note_off_c, 13, 43, 0
6, 40079, Note_on_c, 13, 42, 110
6, 40138, Note_off_c, 13, 42, 0
6, 40139, Note_on_c, 13, 42, 110
6, 40198, Note_off_c, 13, 42, 0
6, 40199, Note_on_c, 13, 40, 110
6, 40258, Note_off_c, 13, 40, 0
6, 40259, Note_on_c, 13, 40, 110
6, 40318, Note_off_c, 13, 40, 0
6, 40319, Note_on_c, 13, 44, 110
6, 40479, Note_off_c, 13, 44, 0
6, 40499, Note_on_c, 13, 44, 110
6, 40599, Note_off_c, 13, 44, 0
6, 40619, Note_on_c, 13, 44, 110
6, 40678, Note_off_c, 13, 44, 0
6, 40679, Note_on_c, 13, 44, 110
6, 40779, Note_off_c, 13, 44, 0
6, 40799, Note_on_c, 13, 42, 110
6, 40959, Note_off_c, 13, 42, 0
6, 40979, Note_on_c, 13, 42, 110
6, 41079, Note_off_c, 13, 42, 0
6, 41099, Note_on_c, 13, 42, 110
6, 41158, Note_off_c, 13, 42, 0
6, 41159, Note_on_c, 13, 42, 110
6, 41259, Note_off_c, 13, 42, 0
6, 41279, Note_on_c, 13, 40, 110
6, 41439, Note_off_c, 13, 40, 0
6, 41459, Note_on_c, 13, 40, 110
6, 41559, Note_off_c, 13, 40, 0
6, 41579, Note_on_c, 13, 40, 110
6, 41638, Note_off_c, 13, 40, 0
6, 41639, Note_on_c, 13, 40, 110
6, 41739, Note_off_c, 13, 40, 0
6, 41759, Note_on_c, 13, 40, 110
6, 41919, Note_off_c, 13, 40, 0
6, 41939, Note_on_c, 13, 40, 110
6, 42039, Note_off_c, 13, 40, 0
6, 42059, Note_on_c, 13, 40, 110
6, 42118, Note_off_c, 13, 40, 0
6, 42119, Note_on_c, 13, 40, 110
6, 42219, Note_off_c, 13, 40, 0
6, 42239, Note_on_c, 13, 35, 110
6, 42399, Note_off_c, 13, 35, 0
6, 42419, Note_on_c, 13, 35, 110
6, 42519, Note_off_c, 13, 35, 0
6, 42539, Note_on_c, 13, 35, 110
6, 42598, Note_off_c, 13, 35, 0
6, 42599, Note_on_c, 13, 34, 110
6, 42699, Note_off_c, 13, 34, 0
6, 42719, Note_on_c, 13, 32, 110
6, 42879, Note_off_c, 13, 32, 0
6, 42899, Note_on_c, 13, 32, 110
6, 42999, Note_off_c, 13, 32, 0
6, 43019, Note_on_c, 13, 32, 110
6, 43078, Note_off_c, 13, 32, 0
6, 43079, Note_on_c, 13, 32, 110
6, 43179, Note_off_c, 13, 32, 0
6, 43199, Note_on_c, 13, 37, 110
6, 43359, Note_off_c, 13, 37, 0
6, 43379, Note_on_c, 13, 37, 110
6, 43479, Note_off_c, 13, 37, 0
6, 43499, Note_on_c, 13, 37, 110
6, 43558, Note_off_c, 13, 37, 0
6, 43559, Note_on_c, 13, 37, 110
6, 43659, Note_off_c, 13, 37, 0
6, 43679, Note_on_c, 13, 30, 110
6, 43839, Note_off_c, 13, 30, 0
6, 43859, Note_on_c, 13, 30, 110
6, 43959, Note_off_c, 13, 30, 0
6, 43979, Note_on_c, 13, 30, 110
6, 44038, Note_off_c, 13, 30, 0
6, 44039, Note_on_c, 13, 30, 110
6, 44139, Note_off_c, 13, 30, 0
6, 44159, Note_on_c, 13, 44, 110
6, 44319, Note_off_c, 13, 44, 0
6, 44339, Note_on_c, 13, 44, 110
6, 44439, Note_off_c, 13, 44, 0
6, 44459, Note_on_c, 13, 44, 110
6, 44518, Note_off_c, 13, 44, 0
6, 44519, Note_on_c, 13, 44, 110
6, 44619, Note_off_c, 13, 44, 0
6, 44639, Note_on_c, 13, 42, 110
6, 44799, Note_off_c, 13, 42, 0
6, 44819, Note_on_c, 13, 42, 110
6, 44919, Note_off_c, 13, 42, 0
6, 44939, Note_on_c, 13, 42, 110
6, 44998, Note_off_c, 13, 42, 0
6, 44999, Note_on_c, 13, 42, 110
6, 45099, Note_off_c, 13, 42, 0
6, 45119, Note_on_c, 13, 40, 110
6, 45279, Note_off_c, 13, 40, 0
6, 45299, Note_on_c, 13, 40, 110
6, 45399, Note_off_c, 13, 40, 0
6, 45419, Note_on_c, 13, 40, 110
6, 45478, Note_off_c, 13, 40, 0
6, 45479, Note_on_c, 13, 40, 110
6, 45579, Note_off_c, 13, 40, 0
6, 45599, Note_on_c, 13, 40, 110
6, 45759, Note_off_c, 13, 40, 0
6, 45779, Note_on_c, 13, 40, 110
6, 45879, Note_off_c, 13, 40, 0
6, 45899, Note_on_c, 13, 40, 110
6, 45958, Note_off_c, 13, 40, 0
6, 45959, Note_on_c, 13, 40, 110
6, 46059, Note_off_c, 13, 40, 0
6, 46079, Note_on_c, 13, 35, 110
6, 46239, Note_off_c, 13, 35, 0
6, 46259, Note_on_c, 13, 35, 110
6, 46359, Note_off_c, 13, 35, 0
6, 46379, Note_on_c, 13, 35, 110
6, 46438, Note_off_c, 13, 35, 0
6, 46439, Note_on_c, 13, 34, 110
6, 46539, Note_off_c, 13, 34, 0
6, 46559, Note_on_c, 13, 32, 110
6, 46719, Note_off_c, 13, 32, 0
6, 46739, Note_on_c, 13, 32, 110
6, 46839, Note_off_c, 13, 32, 0
6, 46859, Note_on_c, 13, 32, 110
6, 46918, Note_off_c, 13, 32, 0
6, 46919, Note_on_c, 13, 32, 110
6, 47019, Note_off_c, 13, 32, 0
6, 47039, Note_on_c, 13, 37, 110
6, 47199, Note_off_c, 13, 37, 0
6, 47219, Note_on_c, 13, 37, 110
6, 47319, Note_off_c, 13, 37, 0
6, 47339, Note_on_c, 13, 37, 110
6, 47398, Note_off_c, 13, 37, 0
6, 47399, Note_on_c, 13, 37, 110
6, 47499, Note_off_c, 13, 37, 0
6, 47519, Note_on_c, 13, 30, 110
6, 47679, Note_off_c, 13, 30, 0
6, 47699, Note_on_c, 13, 30, 110
6, 47799, Note_off_c, 13, 30, 0
6, 47819, Note_on_c, 13, 30, 110
6, 47878, Note_off_c, 13, 30, 0
6, 47879, Note_on_c, 13, 30, 110
6, 47979, Note_off_c, 13, 30, 0
6, 47999, Note_on_c, 13, 35, 110
6, 48058, Note_off_c, 13, 35, 0
6, 48059, Note_on_c, 13, 39, 110
6, 48159, Note_off_c, 13, 39, 0
6, 48179, Note_on_c, 13, 39, 110
6, 48238, Note_off_c, 13, 39, 0
6, 48239, Note_on_c, 13, 42, 110
6, 48298, Note_off_c, 13, 42, 0
6, 48299, Note_on_c, 13, 47, 110
6, 48358, Note_off_c, 13, 47, 0
6, 48359, Note_on_c, 13, 42, 110
6, 48459, Note_off_c, 13, 42, 0
6, 48479, Note_on_c, 13, 35, 110
6, 48538, Note_off_c, 13, 35, 0
6, 48539, Note_on_c, 13, 39, 110
6, 48639, Note_off_c, 13, 39, 0
6, 48659, Note_on_c, 13, 39, 110
6, 48718, Note_off_c, 13, 39, 0
6, 48719, Note_on_c, 13, 42, 110
6, 48778, Note_off_c, 13, 42, 0
6, 48779, Note_on_c, 13, 47, 110
6, 48838, Note_off_c, 13, 47, 0
6, 48839, Note_on_c, 13, 42, 110
6, 48939, Note_off_c, 13, 42, 0
6, 48959, Note_on_c, 13, 35, 110
6, 49018, Note_off_c, 13, 35, 0
6, 49019, Note_on_c, 13, 39, 110
6, 49119, Note_off_c, 13, 39, 0
6, 49139, Note_on_c, 13, 39, 110
6, 49198, Note_off_c, 13, 39, 0
6, 49199, Note_on_c, 13, 42, 110
6, 49258, Note_off_c, 13, 42, 0
6, 49259, Note_on_c, 13, 47, 110
6, 49318, Note_off_c, 13, 47, 0
6, 49319, Note_on_c, 13, 42, 110
6, 49419, Note_off_c, 13, 42, 0
6, 49439, Note_on_c, 13, 35, 110
6, 49498, Note_off_c, 13, 35, 0
6, 49499, Note_on_c, 13, 39, 110
6, 49599, Note_off_c, 13, 39, 0
6, 49619, Note_on_c, 13, 39, 110
6, 49678, Note_off_c, 13, 39, 0
6, 49679, Note_on_c, 13, 42, 110
6, 49738, Note_off_c, 13, 42, 0
6, 49739, Note_on_c, 13, 47, 110
6, 49798, Note_off_c, 13, 47, 0
6, 49799, Note_on_c, 13, 42, 110
6, 49899, Note_off_c, 13, 42, 0
6, 49919, Note_on_c, 13, 40, 110
6, 49978, Note_off_c, 13, 40, 0
6, 49979, Note_on_c, 13, 44, 110
6, 50079, Note_off_c, 13, 44, 0
6, 50099, Note_on_c, 13, 44, 110
6, 50158, Note_off_c, 13, 44, 0
6, 50159, Note_on_c, 13, 51, 110
6, 50218, Note_off_c, 13, 51, 0
6, 50219, Note_on_c, 13, 47, 110
6, 50319, Note_off_c, 13, 47, 0
6, 50339, Note_on_c, 13, 47, 110
6, 50398, Note_off_c, 13, 47, 0
6, 50399, Note_on_c, 13, 40, 110
6, 50458, Note_off_c, 13, 40, 0
6, 50459, Note_on_c, 13, 44, 110
6, 50559, Note_off_c, 13, 44, 0
6, 50579, Note_on_c, 13, 44, 110
6, 50638, Note_off_c, 13, 44, 0
6, 50639, Note_on_c, 13, 51, 110
6, 50698, Note_off_c, 13, 51, 0
6, 50699, Note_on_c, 13, 47, 110
6, 50799, Note_off_c, 13, 47, 0
6, 50819, Note_on_c, 13, 47, 110
6, 50878, Note_off_c, 13, 47, 0
6, 50879, Note_on_c, 13, 40, 110
6, 50938, Note_off_c, 13, 40, 0
6, 50939, Note_on_c, 13, 44, 110
6, 51039, Note_off_c, 13, 44, 0
6, 51059, Note_on_c, 13, 44, 110
6, 51118, Note_off_c, 13, 44, 0
6, 51119, Note_on_c, 13, 51, 110
6, 51178, Note_off_c, 13, 51, 0
6, 51179, Note_on_c, 13, 47, 110
6, 51279, Note_off_c, 13, 47, 0
6, 51299, Note_on_c, 13, 47, 110
6, 51358, Note_off_c, 13, 47, 0
6, 51359, Note_on_c, 13, 40, 110
6, 51418, Note_off_c, 13, 40, 0
6, 51419, Note_on_c, 13, 43, 110
6, 51478, Note_off_c, 13, 43, 0
6, 51479, Note_on_c, 13, 43, 110
6, 51538, Note_off_c, 13, 43, 0
6, 51539, Note_on_c, 13, 43, 110
6, 51598, Note_off_c, 13, 43, 0
6, 51599, Note_on_c, 13, 42, 110
6, 51658, Note_off_c, 13, 42, 0
6, 51659, Note_on_c, 13, 42, 110
6, 51718, Note_off_c, 13, 42, 0
6, 51719, Note_on_c, 13, 40, 110
6, 51778, Note_off_c, 13, 40, 0
6, 51779, Note_on_c, 13, 40, 110
6, 51838, Note_off_c, 13, 40, 0
6, 51839, Note_on_c, 13, 35, 110
6, 51898, Note_off_c, 13, 35, 0
6, 51899, Note_on_c, 13, 39, 110
6, 51999, Note_off_c, 13, 39, 0
6, 52019, Note_on_c, 13, 39, 110
6, 52078, Note_off_c, 13, 39, 0
6, 52079, Note_on_c, 13, 42, 110
6, 52138, Note_off_c, 13, 42, 0
6, 52139, Note_on_c, 13, 47, 110
6, 52198, Note_off_c, 13, 47, 0
6, 52199, Note_on_c, 13, 42, 110
6, 52299, Note_off_c, 13, 42, 0
6, 52319, Note_on_c, 13, 35, 110
6, 52378, Note_off_c, 13, 35, 0
6, 52379, Note_on_c, 13, 39, 110
6, 52479, Note_off_c, 13, 39, 0
6, 52499, Note_on_c, 13, 39, 110
6, 52558, Note_off_c, 13, 39, 0
6, 52559, Note_on_c, 13, 42, 110
6, 52618, Note_off_c, 13, 42, 0
6, 52619, Note_on_c, 13, 47, 110
6, 52678, Note_off_c, 13, 47, 0
6, 52679, Note_on_c, 13, 42, 110
6, 52779, Note_off_c, 13, 42, 0
6, 52799, Note_on_c, 13, 35, 110
6, 52858, Note_off_c, 13, 35, 0
6, 52859, Note_on_c, 13, 39, 110
6, 52959, Note_off_c, 13, 39, 0
6, 52979, Note_on_c, 13, 39, 110
6, 53038, Note_off_c, 13, 39, 0
6, 53039, Note_on_c, 13, 42, 110
6, 53098, Note_off_c, 13, 42, 0
6, 53099, Note_on_c, 13, 47, 110
6, 53158, Note_off_c, 13, 47, 0
6, 53159, Note_on_c, 13, 42, 110
6, 53259, Note_off_c, 13, 42, 0
6, 53279, Note_on_c, 13, 35, 110
6, 53338, Note_off_c, 13, 35, 0
6, 53339, Note_on_c, 13, 39, 110
6, 53439, Note_off_c, 13, 39, 0
6, 53459, Note_on_c, 13, 39, 110
6, 53518, Note_off_c, 13, 39, 0
6, 53519, Note_on_c, 13, 42, 110
6, 53578, Note_off_c, 13, 42, 0
6, 53579, Note_on_c, 13, 47, 110
6, 53638, Note_off_c, 13, 47, 0
6, 53639, Note_on_c, 13, 42, 110
6, 53739, Note_off_c, 13, 42, 0
6, 53759, Note_on_c, 13, 40, 110
6, 53818, Note_off_c, 13, 40, 0
6, 53819, Note_on_c, 13, 44, 110
6, 53919, Note_off_c, 13, 44, 0
6, 53939, Note_on_c, 13, 44, 110
6, 53998, Note_off_c, 13, 44, 0
6, 53999, Note_on_c, 13, 51, 110
6, 54058, Note_off_c, 13, 51, 0
6, 54059, Note_on_c, 13, 47, 110
6, 54159, Note_off_c, 13, 47, 0
6, 54179, Note_on_c, 13, 47, 110
6, 54238, Note_off_c, 13, 47, 0
6, 54239, Note_on_c, 13, 40, 110
6, 54298, Note_off_c, 13, 40, 0
6, 54299, Note_on_c, 13, 44, 110
6, 54399, Note_off_c, 13, 44, 0
6, 54419, Note_on_c, 13, 44, 110
6, 54478, Note_off_c, 13, 44, 0
6, 54479, Note_on_c, 13, 51, 110
6, 54538, Note_off_c, 13, 51, 0
6, 54539, Note_on_c, 13, 47, 110
6, 54639, Note_off_c, 13, 47, 0
6, 54659, Note_on_c, 13, 47, 110
6, 54718, Note_off_c, 13, 47, 0
6, 54719, Note_on_c, 13, 40, 110
6, 54778, Note_off_c, 13, 40, 0
6, 54779, Note_on_c, 13, 44, 110
6, 54879, Note_off_c, 13, 44, 0
6, 54899, Note_on_c, 13, 44, 110
6, 54958, Note_off_c, 13, 44, 0
6, 54959, Note_on_c, 13, 51, 110
6, 55018, Note_off_c, 13, 51, 0
6, 55019, Note_on_c, 13, 47, 110
6, 55119, Note_off_c, 13, 47, 0
6, 55139, Note_on_c, 13, 47, 110
6, 55198, Note_off_c, 13, 47, 0
6, 55199, Note_on_c, 13, 40, 110
6, 55258, Note_off_c, 13, 40, 0
6, 55259, Note_on_c, 13, 43, 110
6, 55318, Note_off_c, 13, 43, 0
6, 55319, Note_on_c, 13, 43, 110
6, 55378, Note_off_c, 13, 43, 0
6, 55379, Note_on_c, 13, 43, 110
6, 55438, Note_off_c, 13, 43, 0
6, 55439, Note_on_c, 13, 42, 110
6, 55498, Note_off_c, 13, 42, 0
6, 55499, Note_on_c, 13, 42, 110
6, 55558, Note_off_c, 13, 42, 0
6, 55559, Note_on_c, 13, 40, 110
6, 55618, Note_off_c, 13, 40, 0
6, 55619, Note_on_c, 13, 40, 110
6, 55678, Note_off_c, 13, 40, 0
6, 55679, Note_on_c, 13, 35, 110
6, 55738, Note_off_c, 13, 35, 0
6, 55739, Note_on_c, 13, 39, 110
6, 55839, Note_off_c, 13, 39, 0
6, 55859, Note_on_c, 13, 39, 110
6, 55918, Note_off_c, 13, 39, 0
6, 55919, Note_on_c, 13, 42, 110
6, 55978, Note_off_c, 13, 42, 0
6, 55979, Note_on_c, 13, 47, 110
6, 56038, Note_off_c, 13, 47, 0
6, 56039, Note_on_c, 13, 42, 110
6, 56139, Note_off_c, 13, 42, 0
6, 56159, Note_on_c, 13, 35, 110
6, 56218, Note_off_c, 13, 35, 0
6, 56219, Note_on_c, 13, 39, 110
6, 56319, Note_off_c, 13, 39, 0
6, 56339, Note_on_c, 13, 39, 110
6, 56398, Note_off_c, 13, 39, 0
6, 56399, Note_on_c, 13, 42, 110
6, 56458, Note_off_c, 13, 42, 0
6, 56459, Note_on_c, 13, 47, 110
6, 56518, Note_off_c, 13, 47, 0
6, 56519, Note_on_c, 13, 42, 110
6, 56619, Note_off_c, 13, 42, 0
6, 56639, Note_on_c, 13, 35, 110
6, 56698, Note_off_c, 13, 35, 0
6, 56699, Note_on_c, 13, 39, 110
6, 56799, Note_off_c, 13, 39, 0
6, 56819, Note_on_c, 13, 39, 110
6, 56878, Note_off_c, 13, 39, 0
6, 56879, Note_on_c, 13, 42, 110
6, 56938, Note_off_c, 13, 42, 0
6, 56939, Note_on_c, 13, 47, 110
6, 56998, Note_off_c, 13, 47, 0
6, 56999, Note_on_c, 13, 42, 110
6, 57099, Note_off_c, 13, 42, 0
6, 57119, Note_on_c, 13, 35, 110
6, 57178, Note_off_c, 13, 35, 0
6, 57179, Note_on_c, 13, 39, 110
6, 57279, Note_off_c, 13, 39, 0
6, 57299, Note_on_c, 13, 39, 110
6, 57358, Note_off_c, 13, 39, 0
6, 57359, Note_on_c, 13, 42, 110
6, 57418, Note_off_c, 13, 42, 0
6, 57419, Note_on_c, 13, 47, 110
6, 57478, Note_off_c, 13, 47, 0
6, 57479, Note_on_c, 13, 42, 110
6, 57579, Note_off_c, 13, 42, 0
6, 57599, Note_on_c, 13, 40, 110
6, 57658, Note_off_c, 13, 40, 0
6, 57659, Note_on_c, 13, 44, 110
6, 57759, Note_off_c, 13, 44, 0
6, 57779, Note_on_c, 13, 44, 110
6, 57838, Note_off_c, 13, 44, 0
6, 57839, Note_on_c, 13, 51, 110
6, 57898, Note_off_c, 13, 51, 0
6, 57899, Note_on_c, 13, 47, 110
6, 57999, Note_off_c, 13, 47, 0
6, 58019, Note_on_c, 13, 47, 110
6, 58078, Note_off_c, 13, 47, 0
6, 58079, Note_on_c, 13, 40, 110
6, 58138, Note_off_c, 13, 40, 0
6, 58139, Note_on_c, 13, 44, 110
6, 58239, Note_off_c, 13, 44, 0
6, 58259, Note_on_c, 13, 44, 110
6, 58318, Note_off_c, 13, 44, 0
6, 58319, Note_on_c, 13, 51, 110
6, 58378, Note_off_c, 13, 51, 0
6, 58379, Note_on_c, 13, 47, 110
6, 58479, Note_off_c, 13, 47, 0
6, 58499, Note_on_c, 13, 47, 110
6, 58558, Note_off_c, 13, 47, 0
6, 58559, Note_on_c, 13, 40, 110
6, 58618, Note_off_c, 13, 40, 0
6, 58619, Note_on_c, 13, 44, 110
6, 58719, Note_off_c, 13, 44, 0
6, 58739, Note_on_c, 13, 44, 110
6, 58798, Note_off_c, 13, 44, 0
6, 58799, Note_on_c, 13, 51, 110
6, 58858, Note_off_c, 13, 51, 0
6, 58859, Note_on_c, 13, 47, 110
6, 58959, Note_off_c, 13, 47, 0
6, 58979, Note_on_c, 13, 47, 110
6, 59038, Note_off_c, 13, 47, 0
6, 59039, Note_on_c, 13, 40, 110
6, 59098, Note_off_c, 13, 40, 0
6, 59099, Note_on_c, 13, 43, 110
6, 59158, Note_off_c, 13, 43, 0
6, 59159, Note_on_c, 13, 43, 110
6, 59218, Note_off_c, 13, 43, 0
6, 59219, Note_on_c, 13, 43, 110
6, 59278, Note_off_c, 13, 43, 0
6, 59279, Note_on_c, 13, 42, 110
6, 59338, Note_off_c, 13, 42, 0
6, 59339, Note_on_c, 13, 42, 110
6, 59398, Note_off_c, 13, 42, 0
6, 59399, Note_on_c, 13, 40, 110
6, 59458, Note_off_c, 13, 40, 0
6, 59459, Note_on_c, 13, 40, 110
6, 59518, Note_off_c, 13, 40, 0
6, 59519, Note_on_c, 13, 35, 110
6, 59578, Note_off_c, 13, 35, 0
6, 59579, Note_on_c, 13, 39, 110
6, 59679, Note_off_c, 13, 39, 0
6, 59699, Note_on_c, 13, 39, 110
6, 59758, Note_off_c, 13, 39, 0
6, 59759, Note_on_c, 13, 42, 110
6, 59818, Note_off_c, 13, 42, 0
6, 59819, Note_on_c, 13, 47, 110
6, 59878, Note_off_c, 13, 47, 0
6, 59879, Note_on_c, 13, 42, 110
6, 59979, Note_off_c, 13, 42, 0
6, 59999, Note_on_c, 13, 35, 110
6, 60058, Note_off_c, 13, 35, 0
6, 60059, Note_on_c, 13, 39, 110
6, 60159, Note_off_c, 13, 39, 0
6, 60179, Note_on_c, 13, 39, 110
6, 60238, Note_off_c, 13, 39, 0
6, 60239, Note_on_c, 13, 42, 110
6, 60298, Note_off_c, 13, 42, 0
6, 60299, Note_on_c, 13, 47, 110
6, 60358, Note_off_c, 13, 47, 0
6, 60359, Note_on_c, 13, 42, 110
6, 60459, Note_off_c, 13, 42, 0
6, 60479, Note_on_c, 13, 35, 110
6, 60538, Note_off_c, 13, 35, 0
6, 60539, Note_on_c, 13, 39, 110
6, 60639, Note_off_c, 13, 39, 0
6, 60659, Note_on_c, 13, 39, 110
6, 60718, Note_off_c, 13, 39, 0
6, 60719, Note_on_c, 13, 42, 110
6, 60778, Note_off_c, 13, 42, 0
6, 60779, Note_on_c, 13, 47, 110
6, 60838, Note_off_c, 13, 47, 0
6, 60839, Note_on_c, 13, 42, 110
6, 60939, Note_off_c, 13, 42, 0
6, 60959, Note_on_c, 13, 35, 110
6, 61018, Note_off_c, 13, 35, 0
6, 61019, Note_on_c, 13, 39, 110
6, 61119, Note_off_c, 13, 39, 0
6, 61139, Note_on_c, 13, 39, 110
6, 61198, Note_off_c, 13, 39, 0
6, 61199, Note_on_c, 13, 42, 110
6, 61258, Note_off_c, 13, 42, 0
6, 61259, Note_on_c, 13, 47, 110
6, 61318, Note_off_c, 13, 47, 0
6, 61319, Note_on_c, 13, 42, 110
6, 61419, Note_off_c, 13, 42, 0
6, 61439, Note_on_c, 13, 40, 110
6, 61498, Note_off_c, 13, 40, 0
6, 61499, Note_on_c, 13, 44, 110
6, 61599, Note_off_c, 13, 44, 0
6, 61619, Note_on_c, 13, 44, 110
6, 61678, Note_off_c, 13, 44, 0
6, 61679, Note_on_c, 13, 51, 110
6, 61738, Note_off_c, 13, 51, 0
6, 61739, Note_on_c, 13, 47, 110
6, 61839, Note_off_c, 13, 47, 0
6, 61859, Note_on_c, 13, 47, 110
6, 61918, Note_off_c, 13, 47, 0
6, 61919, Note_on_c, 13, 40, 110
6, 61978, Note_off_c, 13, 40, 0
6, 61979, Note_on_c, 13, 44, 110
6, 62079, Note_off_c, 13, 44, 0
6, 62099, Note_on_c, 13, 44, 110
6, 62158, Note_off_c, 13, 44, 0
6, 62159, Note_on_c, 13, 51, 110
6, 62218, Note_off_c, 13, 51, 0
6, 62219, Note_on_c, 13, 47, 110
6, 62319, Note_off_c, 13, 47, 0
6, 62339, Note_on_c, 13, 47, 110
6, 62398, Note_off_c, 13, 47, 0
6, 62399, Note_on_c, 13, 40, 110
6, 62458, Note_off_c, 13, 40, 0
6, 62459, Note_on_c, 13, 44, 110
6, 62559, Note_off_c, 13, 44, 0
6, 62579, Note_on_c, 13, 44, 110
6, 62638, Note_off_c, 13, 44, 0
6, 62639, Note_on_c, 13, 51, 110
6, 62698, Note_off_c, 13, 51, 0
6, 62699, Note_on_c, 13, 47, 110
6, 62799, Note_off_c, 13, 47, 0
6, 62819, Note_on_c, 13, 47, 110
6, 62878, Note_off_c, 13, 47, 0
6, 62879, Note_on_c, 13, 40, 110
6, 62938, Note_off_c, 13, 40, 0
6, 62939, Note_on_c, 13, 43, 110
6, 62998, Note_off_c, 13, 43, 0
6, 62999, Note_on_c, 13, 43, 110
6, 63058, Note_off_c, 13, 43, 0
6, 63059, Note_on_c, 13, 43, 110
6, 63118, Note_off_c, 13, 43, 0
6, 63119, Note_on_c, 13, 42, 110
6, 63178, Note_off_c, 13, 42, 0
6, 63179, Note_on_c, 13, 42, 110
6, 63238, Note_off_c, 13, 42, 0
6, 63239, Note_on_c, 13, 40, 110
6, 63298, Note_off_c, 13, 40, 0
6, 63299, Note_on_c, 13, 40, 110
6, 63358, Note_off_c, 13, 40, 0
6, 63359, Note_on_c, 13, 35, 110
6, 63418, Note_off_c, 13, 35, 0
6, 63419, Note_on_c, 13, 39, 110
6, 63519, Note_off_c, 13, 39, 0
6, 63539, Note_on_c, 13, 39, 110
6, 63598, Note_off_c, 13, 39, 0
6, 63599, Note_on_c, 13, 42, 110
6, 63658, Note_off_c, 13, 42, 0
6, 63659, Note_on_c, 13, 47, 110
6, 63718, Note_off_c, 13, 47, 0
6, 63719, Note_on_c, 13, 42, 110
6, 63819, Note_off_c, 13, 42, 0
6, 63839, Note_on_c, 13, 35, 110
6, 63898, Note_off_c, 13, 35, 0
6, 63899, Note_on_c, 13, 39, 110
6, 63999, Note_off_c, 13, 39, 0
6, 64019, Note_on_c, 13, 39, 110
6, 64078, Note_off_c, 13, 39, 0
6, 64079, Note_on_c, 13, 42, 110
6, 64138, Note_off_c, 13, 42, 0
6, 64139, Note_on_c, 13, 47, 110
6, 64198, Note_off_c, 13, 47, 0
6, 64199, Note_on_c, 13, 42, 110
6, 64299, Note_off_c, 13, 42, 0
6, 64319, Note_on_c, 13, 35, 110
6, 64378, Note_off_c, 13, 35, 0
6, 64379, Note_on_c, 13, 39, 110
6, 64479, Note_off_c, 13, 39, 0
6, 64499, Note_on_c, 13, 39, 110
6, 64558, Note_off_c, 13, 39, 0
6, 64559, Note_on_c, 13, 42, 110
6, 64618, Note_off_c, 13, 42, 0
6, 64619, Note_on_c, 13, 47, 110
6, 64678, Note_off_c, 13, 47, 0
6, 64679, Note_on_c, 13, 42, 110
6, 64779, Note_off_c, 13, 42, 0
6, 64799, Note_on_c, 13, 35, 110
6, 64858, Note_off_c, 13, 35, 0
6, 64859, Note_on_c, 13, 39, 110
6, 64959, Note_off_c, 13, 39, 0
6, 64979, Note_on_c, 13, 39, 110
6, 65038, Note_off_c, 13, 39, 0
6, 65039, Note_on_c, 13, 42, 110
6, 65098, Note_off_c, 13, 42, 0
6, 65099, Note_on_c, 13, 47, 110
6, 65158, Note_off_c, 13, 47, 0
6, 65159, Note_on_c, 13, 42, 110
6, 65259, Note_off_c, 13, 42, 0
6, 65279, Note_on_c, 13, 40, 110
6, 65338, Note_off_c, 13, 40, 0
6, 65339, Note_on_c, 13, 44, 110
6, 65439, Note_off_c, 13, 44, 0
6, 65459, Note_on_c, 13, 44, 110
6, 65518, Note_off_c, 13, 44, 0
6, 65519, Note_on_c, 13, 51, 110
6, 65578, Note_off_c, 13, 51, 0
6, 65579, Note_on_c, 13, 47, 110
6, 65679, Note_off_c, 13, 47, 0
6, 65699, Note_on_c, 13, 47, 110
6, 65758, Note_off_c, 13, 47, 0
6, 65759, Note_on_c, 13, 40, 110
6, 65818, Note_off_c, 13, 40, 0
6, 65819, Note_on_c, 13, 44, 110
6, 65919, Note_off_c, 13, 44, 0
6, 65939, Note_on_c, 13, 44, 110
6, 65998, Note_off_c, 13, 44, 0
6, 65999, Note_on_c, 13, 51, 110
6, 66058, Note_off_c, 13, 51, 0
6, 66059, Note_on_c, 13, 47, 110
6, 66159, Note_off_c, 13, 47, 0
6, 66179, Note_on_c, 13, 47, 110
6, 66238, Note_off_c, 13, 47, 0
6, 66239, Note_on_c, 13, 40, 110
6, 66298, Note_off_c, 13, 40, 0
6, 66299, Note_on_c, 13, 44, 110
6, 66399, Note_off_c, 13, 44, 0
6, 66419, Note_on_c, 13, 44, 110
6, 66478, Note_off_c, 13, 44, 0
6, 66479, Note_on_c, 13, 51, 110
6, 66538, Note_off_c, 13, 51, 0
6, 66539, Note_on_c, 13, 47, 110
6, 66639, Note_off_c, 13, 47, 0
6, 66659, Note_on_c, 13, 47, 110
6, 66718, Note_off_c, 13, 47, 0
6, 66719, Note_on_c, 13, 40, 110
6, 66778, Note_off_c, 13, 40, 0
6, 66779, Note_on_c, 13, 43, 110
6, 66838, Note_off_c, 13, 43, 0
6, 66839, Note_on_c, 13, 43, 110
6, 66898, Note_off_c, 13, 43, 0
6, 66899, Note_on_c, 13, 43, 110
6, 66958, Note_off_c, 13, 43, 0
6, 66959, Note_on_c, 13, 42, 110
6, 67018, Note_off_c, 13, 42, 0
6, 67019, Note_on_c, 13, 42, 110
6, 67078, Note_off_c, 13, 42, 0
6, 67079, Note_on_c, 13, 40, 110
6, 67138, Note_off_c, 13, 40, 0
6, 67139, Note_on_c, 13, 40, 110
6, 67198, Note_off_c, 13, 40, 0
6, 67199, Note_on_c, 13, 35, 110
6, 67258, Note_off_c, 13, 35, 0
6, 67259, Note_on_c, 13, 39, 110
6, 67359, Note_off_c, 13, 39, 0
6, 67379, Note_on_c, 13, 39, 110
6, 67438, Note_off_c, 13, 39, 0
6, 67439, Note_on_c, 13, 42, 110
6, 67498, Note_off_c, 13, 42, 0
6, 67499, Note_on_c, 13, 47, 110
6, 67558, Note_off_c, 13, 47, 0
6, 67559, Note_on_c, 13, 42, 110
6, 67659, Note_off_c, 13, 42, 0
6, 67679, Note_on_c, 13, 35, 110
6, 67738, Note_off_c, 13, 35, 0
6, 67739, Note_on_c, 13, 39, 110
6, 67839, Note_off_c, 13, 39, 0
6, 67859, Note_on_c, 13, 39, 110
6, 67918, Note_off_c, 13, 39, 0
6, 67919, Note_on_c, 13, 42, 110
6, 67978, Note_off_c, 13, 42, 0
6, 67979, Note_on_c, 13, 47, 110
6, 68038, Note_off_c, 13, 47, 0
6, 68039, Note_on_c, 13, 42, 110
6, 68139, Note_off_c, 13, 42, 0
6, 68159, Note_on_c, 13, 35, 110
6, 68218, Note_off_c, 13, 35, 0
6, 68219, Note_on_c, 13, 39, 110
6, 68319, Note_off_c, 13, 39, 0
6, 68339, Note_on_c, 13, 39, 110
6, 68398, Note_off_c, 13, 39, 0
6, 68399, Note_on_c, 13, 42, 110
6, 68458, Note_off_c, 13, 42, 0
6, 68459, Note_on_c, 13, 47, 110
6, 68518, Note_off_c, 13, 47, 0
6, 68519, Note_on_c, 13, 42, 110
6, 68619, Note_off_c, 13, 42, 0
6, 68639, Note_on_c, 13, 35, 110
6, 68698, Note_off_c, 13, 35, 0
6, 68699, Note_on_c, 13, 39, 110
6, 68799, Note_off_c, 13, 39, 0
6, 68819, Note_on_c, 13, 39, 110
6, 68878, Note_off_c, 13, 39, 0
6, 68879, Note_on_c, 13, 42, 110
6, 68938, Note_off_c, 13, 42, 0
6, 68939, Note_on_c, 13, 47, 110
6, 68998, Note_off_c, 13, 47, 0
6, 68999, Note_on_c, 13, 42, 110
6, 69099, Note_off_c, 13, 42, 0
6, 69119, Note_on_c, 13, 40, 110
6, 69178, Note_off_c, 13, 40, 0
6, 69179, Note_on_c, 13, 44, 110
6, 69279, Note_off_c, 13, 44, 0
6, 69299, Note_on_c, 13, 44, 110
6, 69358, Note_off_c, 13, 44, 0
6, 69359, Note_on_c, 13, 51, 110
6, 69418, Note_off_c, 13, 51, 0
6, 69419, Note_on_c, 13, 47, 110
6, 69519, Note_off_c, 13, 47, 0
6, 69539, Note_on_c, 13, 47, 110
6, 69598, Note_off_c, 13, 47, 0
6, 69599, Note_on_c, 13, 40, 110
6, 69658, Note_off_c, 13, 40, 0
6, 69659, Note_on_c, 13, 44, 110
6, 69759, Note_off_c, 13, 44, 0
6, 69779, Note_on_c, 13, 44, 110
6, 69838, Note_off_c, 13, 44, 0
6, 69839, Note_on_c, 13, 51, 110
6, 69898, Note_off_c, 13, 51, 0
6, 69899, Note_on_c, 13, 47, 110
6, 69999, Note_off_c, 13, 47, 0
6, 70019, Note_on_c, 13, 47, 110
6, 70078, Note_off_c, 13, 47, 0
6, 70079, Note_on_c, 13, 40, 110
6, 70138, Note_off_c, 13, 40, 0
6, 70139, Note_on_c, 13, 44, 110
6, 70239, Note_off_c, 13, 44, 0
6, 70259, Note_on_c, 13, 44, 110
6, 70318, Note_off_c, 13, 44, 0
6, 70319, Note_on_c, 13, 51, 110
6, 70378, Note_off_c, 13, 51, 0
6, 70379, Note_on_c, 13, 47, 110
6, 70479, Note_off_c, 13, 47, 0
6, 70499, Note_on_c, 13, 47, 110
6, 70558, Note_off_c, 13, 47, 0
6, 70559, Note_on_c, 13, 40, 110
6, 70618, Note_off_c, 13, 40, 0
6, 70619, Note_on_c, 13, 43, 110
6, 70678, Note_off_c, 13, 43, 0
6, 70679, Note_on_c, 13, 43, 110
6, 70738, Note_off_c, 13, 43, 0
6, 70739, Note_on_c, 13, 43, 110
6, 70798, Note_off_c, 13, 43, 0
6, 70799, Note_on_c, 13, 42, 110
6, 70858, Note_off_c, 13, 42, 0
6, 70859, Note_on_c, 13, 42, 110
6, 70918, Note_off_c, 13, 42, 0
6, 70919, Note_on_c, 13, 40, 110
6, 70978, Note_off_c, 13, 40, 0
6, 70979, Note_on_c, 13, 40, 110
6, 71038, Note_off_c, 13, 40, 0
6, 71039, Note_on_c, 13, 35, 110
6, 71098, Note_off_c, 13, 35, 0
6, 71099, Note_on_c, 13, 39, 110
6, 71199, Note_off_c, 13, 39, 0
6, 71219, Note_on_c, 13, 39, 110
6, 71278, Note_off_c, 13, 39, 0
6, 71279, Note_on_c, 13, 42, 110
6, 71338, Note_off_c, 13, 42, 0
6, 71339, Note_on_c, 13, 47, 110
6, 71398, Note_off_c, 13, 47, 0
6, 71399, Note_on_c, 13, 42, 110
6, 71499, Note_off_c, 13, 42, 0
6, 71519, Note_on_c, 13, 35, 110
6, 71578, Note_off_c, 13, 35, 0
6, 71579, Note_on_c, 13, 39, 110
6, 71679, Note_off_c, 13, 39, 0
6, 71699, Note_on_c, 13, 39, 110
6, 71758, Note_off_c, 13, 39, 0
6, 71759, Note_on_c, 13, 42, 110
6, 71818, Note_off_c, 13, 42, 0
6, 71819, Note_on_c, 13, 47, 110
6, 71878, Note_off_c, 13, 47, 0
6, 71879, Note_on_c, 13, 42, 110
6, 71979, Note_off_c, 13, 42, 0
6, 71999, Note_on_c, 13, 35, 110
6, 72058, Note_off_c, 13, 35, 0
6, 72059, Note_on_c, 13, 39, 110
6, 72159, Note_off_c, 13, 39, 0
6, 72179, Note_on_c, 13, 39, 110
6, 72238, Note_off_c, 13, 39, 0
6, 72239, Note_on_c, 13, 42, 110
6, 72298, Note_off_c, 13, 42, 0
6, 72299, Note_on_c, 13, 47, 110
6, 72358, Note_off_c, 13, 47, 0
6, 72359, Note_on_c, 13, 42, 110
6, 72459, Note_off_c, 13, 42, 0
6, 72479, Note_on_c, 13, 35, 110
6, 72538, Note_off_c, 13, 35, 0
6, 72539, Note_on_c, 13, 39, 110
6, 72639, Note_off_c, 13, 39, 0
6, 72659, Note_on_c, 13, 39, 110
6, 72718, Note_off_c, 13, 39, 0
6, 72719, Note_on_c, 13, 42, 110
6, 72778, Note_off_c, 13, 42, 0
6, 72779, Note_on_c, 13, 47, 110
6, 72838, Note_off_c, 13, 47, 0
6, 72839, Note_on_c, 13, 42, 110
6, 72939, Note_off_c, 13, 42, 0
6, 72959, Note_on_c, 13, 40, 110
6, 73018, Note_off_c, 13, 40, 0
6, 73019, Note_on_c, 13, 44, 110
6, 73119, Note_off_c, 13, 44, 0
6, 73139, Note_on_c, 13, 44, 110
6, 73198, Note_off_c, 13, 44, 0
6, 73199, Note_on_c, 13, 51, 110
6, 73258, Note_off_c, 13, 51, 0
6, 73259, Note_on_c, 13, 47, 110
6, 73359, Note_off_c, 13, 47, 0
6, 73379, Note_on_c, 13, 47, 110
6, 73438, Note_off_c, 13, 47, 0
6, 73439, Note_on_c, 13, 40, 110
6, 73498, Note_off_c, 13, 40, 0
6, 73499, Note_on_c, 13, 44, 110
6, 73599, Note_off_c, 13, 44, 0
6, 73619, Note_on_c, 13, 44, 110
6, 73678, Note_off_c, 13, 44, 0
6, 73679, Note_on_c, 13, 51, 110
6, 73738, Note_off_c, 13, 51, 0
6, 73739, Note_on_c, 13, 47, 110
6, 73839, Note_off_c, 13, 47, 0
6, 73859, Note_on_c, 13, 47, 110
6, 73918, Note_off_c, 13, 47, 0
6, 73919, Note_on_c, 13, 40, 110
6, 73978, Note_off_c, 13, 40, 0
6, 73979, Note_on_c, 13, 44, 110
6, 74079, Note_off_c, 13, 44, 0
6, 74099, Note_on_c, 13, 44, 110
6, 74158, Note_off_c, 13, 44, 0
6, 74159, Note_on_c, 13, 51, 110
6, 74218, Note_off_c, 13, 51, 0
6, 74219, Note_on_c, 13, 47, 110
6, 74319, Note_off_c, 13, 47, 0
6, 74339, Note_on_c, 13, 47, 110
6, 74398, Note_off_c, 13, 47, 0
6, 74399, Note_on_c, 13, 40, 110
6, 74458, Note_off_c, 13, 40, 0
6, 74459, Note_on_c, 13, 43, 110
6, 74518, Note_off_c, 13, 43, 0
6, 74519, Note_on_c, 13, 43, 110
6, 74578, Note_off_c, 13, 43, 0
6, 74579, Note_on_c, 13, 43, 110
6, 74638, Note_off_c, 13, 43, 0
6, 74639, Note_on_c, 13, 42, 110
6, 74698, Note_off_c, 13, 42, 0
6, 74699, Note_on_c, 13, 42, 110
6, 74758, Note_off_c, 13, 42, 0
6, 74759, Note_on_c, 13, 40, 110
6, 74818, Note_off_c, 13, 40, 0
6, 74819, Note_on_c, 13, 40, 110
6, 74878, Note_off_c, 13, 40, 0
6, 74879, Note_on_c, 13, 35, 110
6, 74938, Note_off_c, 13, 35, 0
6, 74939, Note_on_c, 13, 39, 110
6, 75039, Note_off_c, 13, 39, 0
6, 75059, Note_on_c, 13, 39, 110
6, 75118, Note_off_c, 13, 39, 0
6, 75119, Note_on_c, 13, 42, 110
6, 75178, Note_off_c, 13, 42, 0
6, 75179, Note_on_c, 13, 47, 110
6, 75238, Note_off_c, 13, 47, 0
6, 75239, Note_on_c, 13, 42, 110
6, 75339, Note_off_c, 13, 42, 0
6, 75359, Note_on_c, 13, 35, 110
6, 75418, Note_off_c, 13, 35, 0
6, 75419, Note_on_c, 13, 39, 110
6, 75519, Note_off_c, 13, 39, 0
6, 75539, Note_on_c, 13, 39, 110
6, 75598, Note_off_c, 13, 39, 0
6, 75599, Note_on_c, 13, 42, 110
6, 75658, Note_off_c, 13, 42, 0
6, 75659, Note_on_c, 13, 47, 110
6, 75718, Note_off_c, 13, 47, 0
6, 75719, Note_on_c, 13, 42, 110
6, 75819, Note_off_c, 13, 42, 0
6, 75839, Note_on_c, 13, 35, 110
6, 75898, Note_off_c, 13, 35, 0
6, 75899, Note_on_c, 13, 39, 110
6, 75999, Note_off_c, 13, 39, 0
6, 76019, Note_on_c, 13, 39, 110
6, 76078, Note_off_c, 13, 39, 0
6, 76079, Note_on_c, 13, 42, 110
6, 76138, Note_off_c, 13, 42, 0
6, 76139, Note_on_c, 13, 47, 110
6, 76198, Note_off_c, 13, 47, 0
6, 76199, Note_on_c, 13, 42, 110
6, 76299, Note_off_c, 13, 42, 0
6, 76319, Note_on_c, 13, 35, 110
6, 76378, Note_off_c, 13, 35, 0
6, 76379, Note_on_c, 13, 39, 110
6, 76479, Note_off_c, 13, 39, 0
6, 76499, Note_on_c, 13, 39, 110
6, 76558, Note_off_c, 13, 39, 0
6, 76559, Note_on_c, 13, 42, 110
6, 76618, Note_off_c, 13, 42, 0
6, 76619, Note_on_c, 13, 47, 110
6, 76678, Note_off_c, 13, 47, 0
6, 76679, Note_on_c, 13, 42, 110
6, 76779, Note_off_c, 13, 42, 0
6, 76799, Note_on_c, 13, 40, 110
6, 76858, Note_off_c, 13, 40, 0
6, 76859, Note_on_c, 13, 44, 110
6, 76959, Note_off_c, 13, 44, 0
6, 76979, Note_on_c, 13, 44, 110
6, 77038, Note_off_c, 13, 44, 0
6, 77039, Note_on_c, 13, 51, 110
6, 77098, Note_off_c, 13, 51, 0
6, 77099, Note_on_c, 13, 47, 110
6, 77199, Note_off_c, 13, 47, 0
6, 77219, Note_on_c, 13, 47, 110
6, 77278, Note_off_c, 13, 47, 0
6, 77279, Note_on_c, 13, 40, 110
6, 77338, Note_off_c, 13, 40, 0
6, 77339, Note_on_c, 13, 44, 110
6, 77439, Note_off_c, 13, 44, 0
6, 77459, Note_on_c, 13, 44, 110
6, 77518, Note_off_c, 13, 44, 0
6, 77519, Note_on_c, 13, 51, 110
6, 77578, Note_off_c, 13, 51, 0
6, 77579, Note_on_c, 13, 47, 110
6, 77679, Note_off_c, 13, 47, 0
6, 77699, Note_on_c, 13, 47, 110
6, 77758, Note_off_c, 13, 47, 0
6, 77759, Note_on_c, 13, 40, 110
6, 77818, Note_off_c, 13, 40, 0
6, 77819, Note_on_c, 13, 44, 110
6, 77919, Note_off_c, 13, 44, 0
6, 77939, Note_on_c, 13, 44, 110
6, 77998, Note_off_c, 13, 44, 0
6, 77999, Note_on_c, 13, 51, 110
6, 78058, Note_off_c, 13, 51, 0
6, 78059, Note_on_c, 13, 47, 110
6, 78159, Note_off_c, 13, 47, 0
6, 78179, Note_on_c, 13, 47, 110
6, 78238, Note_off_c, 13, 47, 0
6, 78239, Note_on_c, 13, 40, 110
6, 78298, Note_off_c, 13, 40, 0
6, 78299, Note_on_c, 13, 43, 110
6, 78358, Note_off_c, 13, 43, 0
6, 78359, Note_on_c, 13, 43, 110
6, 78418, Note_off_c, 13, 43, 0
6, 78419, Note_on_c, 13, 43, 110
6, 78478, Note_off_c, 13, 43, 0
6, 78479, Note_on_c, 13, 42, 110
6, 78538, Note_off_c, 13, 42, 0
6, 78539, Note_on_c, 13, 42, 110
6, 78598, Note_off_c, 13, 42, 0
6, 78599, Note_on_c, 13, 40, 110
6, 78658, Note_off_c, 13, 40, 0
6, 78659, Note_on_c, 13, 40, 110
6, 78718, Note_off_c, 13, 40, 0
6, 78718, End_track
7, 0, Start_track
7, 0, Title_t, "Staff-2"
7, 0, End_track
8, 0, Start_track
8, 0, Title_t, "A Certain Romance"
8, 0, End_track
0, 0, End_of_file
