0, 0, Header, 1, 23, 192
1, 0, Start_track
1, 0, Tempo, 750000
1, 0, Time_signature, 4, 2, 24, 8
1, 0, Key_signature, 0, "major"
1, 3072, Time_signature, 7, 3, 12, 8
1, 3744, Time_signature, 4, 2, 24, 8
1, 26784, Time_signature, 6, 2, 24, 8
1, 27936, Time_signature, 4, 2, 24, 8
1, 34080, Time_signature, 2, 2, 24, 8
1, 34464, Time_signature, 3, 2, 24, 8
1, 35040, Time_signature, 4, 2, 24, 8
1, 36576, Time_signature, 6, 2, 24, 8
1, 37728, Time_signature, 4, 2, 24, 8
1, 38496, Time_signature, 6, 2, 24, 8
1, 39648, Time_signature, 4, 2, 24, 8
1, 40416, Time_signature, 6, 2, 24, 8
1, 41568, Time_signature, 4, 2, 24, 8
1, 41568, End_track
2, 0, Start_track
2, 0, Title_t, "Guitar"
2, 0, Channel_prefix, 0
2, 0, Control_c, 0, 7, 100
2, 0, Program_c, 0, 0
2, 672, Note_on_c, 0, 67, 67
2, 766, Note_off_c, 0, 67, 64
2, 768, Note_on_c, 0, 59, 85
2, 768, Note_on_c, 0, 62, 85
2, 768, Note_on_c, 0, 67, 85
2, 862, Note_off_c, 0, 67, 64
2, 862, Note_off_c, 0, 62, 64
2, 862, Note_off_c, 0, 59, 64
2, 864, Note_on_c, 0, 59, 67
2, 864, Note_on_c, 0, 62, 67
2, 864, Note_on_c, 0, 67, 67
2, 958, Note_off_c, 0, 67, 64
2, 958, Note_off_c, 0, 62, 64
2, 958, Note_off_c, 0, 59, 64
2, 960, Note_on_c, 0, 59, 85
2, 960, Note_on_c, 0, 62, 85
2, 960, Note_on_c, 0, 67, 85
2, 1054, Note_off_c, 0, 62, 64
2, 1056, Note_on_c, 0, 62, 85
2, 1102, Note_off_c, 0, 67, 64
2, 1118, Note_off_c, 0, 59, 64
2, 1150, Note_off_c, 0, 62, 64
2, 1152, Note_on_c, 0, 59, 85
2, 1152, Note_on_c, 0, 62, 85
2, 1152, Note_on_c, 0, 66, 85
2, 1246, Note_off_c, 0, 66, 64
2, 1246, Note_off_c, 0, 62, 64
2, 1246, Note_off_c, 0, 59, 64
2, 1248, Note_on_c, 0, 62, 65
2, 1248, Note_on_c, 0, 59, 65
2, 1248, Note_on_c, 0, 66, 65
2, 1342, Note_off_c, 0, 66, 64
2, 1342, Note_off_c, 0, 59, 64
2, 1342, Note_off_c, 0, 62, 64
2, 1344, Note_on_c, 0, 62, 85
2, 1344, Note_on_c, 0, 59, 85
2, 1344, Note_on_c, 0, 66, 85
2, 1438, Note_off_c, 0, 62, 64
2, 1440, Note_on_c, 0, 62, 87
2, 1470, Note_off_c, 0, 66, 64
2, 1486, Note_off_c, 0, 59, 64
2, 1534, Note_off_c, 0, 62, 64
2, 1536, Note_on_c, 0, 55, 85
2, 1536, Note_on_c, 0, 59, 85
2, 1536, Note_on_c, 0, 64, 85
2, 1630, Note_off_c, 0, 64, 64
2, 1630, Note_off_c, 0, 59, 64
2, 1630, Note_off_c, 0, 55, 64
2, 1632, Note_on_c, 0, 55, 68
2, 1632, Note_on_c, 0, 59, 68
2, 1632, Note_on_c, 0, 64, 68
2, 1726, Note_off_c, 0, 64, 64
2, 1726, Note_off_c, 0, 59, 64
2, 1726, Note_off_c, 0, 55, 64
2, 1728, Note_on_c, 0, 55, 85
2, 1728, Note_on_c, 0, 59, 85
2, 1728, Note_on_c, 0, 64, 85
2, 1822, Note_off_c, 0, 64, 64
2, 1822, Note_off_c, 0, 59, 64
2, 1822, Note_off_c, 0, 55, 64
2, 1824, Note_on_c, 0, 55, 65
2, 1824, Note_on_c, 0, 59, 65
2, 1824, Note_on_c, 0, 64, 65
2, 1918, Note_off_c, 0, 64, 64
2, 1918, Note_off_c, 0, 59, 64
2, 1918, Note_off_c, 0, 55, 64
2, 1920, Note_on_c, 0, 55, 85
2, 1920, Note_on_c, 0, 59, 85
2, 1920, Note_on_c, 0, 62, 85
2, 1920, Note_on_c, 0, 64, 85
2, 2014, Note_off_c, 0, 64, 64
2, 2014, Note_off_c, 0, 62, 64
2, 2014, Note_off_c, 0, 59, 64
2, 2014, Note_off_c, 0, 55, 64
2, 2016, Note_on_c, 0, 55, 64
2, 2016, Note_on_c, 0, 59, 64
2, 2016, Note_on_c, 0, 62, 64
2, 2016, Note_on_c, 0, 64, 64
2, 2110, Note_off_c, 0, 64, 64
2, 2110, Note_off_c, 0, 62, 64
2, 2110, Note_off_c, 0, 59, 64
2, 2110, Note_off_c, 0, 55, 64
2, 2112, Note_on_c, 0, 55, 85
2, 2112, Note_on_c, 0, 59, 85
2, 2112, Note_on_c, 0, 62, 85
2, 2112, Note_on_c, 0, 64, 85
2, 2206, Note_off_c, 0, 64, 64
2, 2206, Note_off_c, 0, 62, 64
2, 2206, Note_off_c, 0, 59, 64
2, 2206, Note_off_c, 0, 55, 64
2, 2208, Note_on_c, 0, 55, 64
2, 2208, Note_on_c, 0, 59, 64
2, 2208, Note_on_c, 0, 62, 64
2, 2208, Note_on_c, 0, 64, 64
2, 2302, Note_off_c, 0, 64, 64
2, 2302, Note_off_c, 0, 62, 64
2, 2302, Note_off_c, 0, 59, 64
2, 2302, Note_off_c, 0, 55, 64
2, 2304, Note_on_c, 0, 55, 86
2, 2304, Note_on_c, 0, 60, 86
2, 2304, Note_on_c, 0, 64, 86
2, 2398, Note_off_c, 0, 60, 64
2, 2400, Note_on_c, 0, 59, 65
2, 2494, Note_off_c, 0, 55, 64
2, 2494, Note_off_c, 0, 64, 64
2, 2494, Note_off_c, 0, 59, 64
2, 2496, Note_on_c, 0, 55, 86
2, 2496, Note_on_c, 0, 60, 86
2, 2496, Note_on_c, 0, 64, 86
2, 2590, Note_off_c, 0, 60, 64
2, 2592, Note_on_c, 0, 59, 65
2, 2686, Note_off_c, 0, 55, 64
2, 2686, Note_off_c, 0, 64, 64
2, 2686, Note_off_c, 0, 59, 64
2, 2688, Note_on_c, 0, 55, 86
2, 2688, Note_on_c, 0, 60, 86
2, 2688, Note_on_c, 0, 64, 86
2, 2782, Note_off_c, 0, 60, 64
2, 2784, Note_on_c, 0, 59, 64
2, 2878, Note_off_c, 0, 55, 64
2, 2878, Note_off_c, 0, 64, 64
2, 2878, Note_off_c, 0, 59, 64
2, 2880, Note_on_c, 0, 55, 86
2, 2880, Note_on_c, 0, 60, 86
2, 2880, Note_on_c, 0, 64, 86
2, 2974, Note_off_c, 0, 60, 64
2, 2976, Note_on_c, 0, 59, 64
2, 3070, Note_off_c, 0, 55, 64
2, 3070, Note_off_c, 0, 64, 64
2, 3070, Note_off_c, 0, 59, 64
2, 3072, Note_on_c, 0, 55, 86
2, 3072, Note_on_c, 0, 60, 86
2, 3072, Note_on_c, 0, 64, 86
2, 3166, Note_off_c, 0, 60, 64
2, 3168, Note_on_c, 0, 59, 65
2, 3262, Note_off_c, 0, 55, 64
2, 3262, Note_off_c, 0, 64, 64
2, 3262, Note_off_c, 0, 59, 64
2, 3264, Note_on_c, 0, 55, 86
2, 3264, Note_on_c, 0, 60, 86
2, 3264, Note_on_c, 0, 64, 86
2, 3358, Note_off_c, 0, 60, 64
2, 3360, Note_on_c, 0, 59, 65
2, 3454, Note_off_c, 0, 55, 64
2, 3454, Note_off_c, 0, 64, 64
2, 3454, Note_off_c, 0, 59, 64
2, 3456, Note_on_c, 0, 55, 86
2, 3456, Note_on_c, 0, 60, 86
2, 3456, Note_on_c, 0, 64, 86
2, 3550, Note_off_c, 0, 60, 64
2, 3552, Note_on_c, 0, 59, 64
2, 3646, Note_off_c, 0, 55, 64
2, 3646, Note_off_c, 0, 64, 64
2, 3646, Note_off_c, 0, 59, 64
2, 3648, Note_on_c, 0, 55, 86
2, 3648, Note_on_c, 0, 60, 86
2, 3648, Note_on_c, 0, 64, 86
2, 3742, Note_off_c, 0, 64, 64
2, 3742, Note_off_c, 0, 60, 64
2, 3742, Note_off_c, 0, 55, 64
2, 3840, Note_on_c, 0, 67, 79
2, 3840, Note_on_c, 0, 59, 79
2, 3840, Note_on_c, 0, 62, 79
2, 4030, Note_off_c, 0, 62, 64
2, 4030, Note_off_c, 0, 59, 64
2, 4030, Note_off_c, 0, 67, 64
2, 4032, Note_on_c, 0, 67, 67
2, 4032, Note_on_c, 0, 59, 67
2, 4032, Note_on_c, 0, 62, 67
2, 4126, Note_off_c, 0, 62, 64
2, 4126, Note_off_c, 0, 59, 64
2, 4126, Note_off_c, 0, 67, 64
2, 4224, Note_on_c, 0, 66, 79
2, 4224, Note_on_c, 0, 59, 79
2, 4224, Note_on_c, 0, 62, 79
2, 4414, Note_off_c, 0, 62, 64
2, 4414, Note_off_c, 0, 59, 64
2, 4414, Note_off_c, 0, 66, 64
2, 4416, Note_on_c, 0, 66, 67
2, 4416, Note_on_c, 0, 59, 67
2, 4416, Note_on_c, 0, 62, 67
2, 4510, Note_off_c, 0, 62, 64
2, 4510, Note_off_c, 0, 59, 64
2, 4510, Note_off_c, 0, 66, 64
2, 4608, Note_on_c, 0, 55, 79
2, 4608, Note_on_c, 0, 64, 79
2, 4608, Note_on_c, 0, 59, 79
2, 4798, Note_off_c, 0, 59, 64
2, 4798, Note_off_c, 0, 64, 64
2, 4798, Note_off_c, 0, 55, 64
2, 4800, Note_on_c, 0, 55, 67
2, 4800, Note_on_c, 0, 64, 67
2, 4800, Note_on_c, 0, 59, 67
2, 4894, Note_off_c, 0, 59, 64
2, 4894, Note_off_c, 0, 64, 64
2, 4894, Note_off_c, 0, 55, 64
2, 4992, Note_on_c, 0, 59, 67
2, 4992, Note_on_c, 0, 62, 79
2, 4992, Note_on_c, 0, 55, 79
2, 4992, Note_on_c, 0, 64, 79
2, 5182, Note_off_c, 0, 64, 64
2, 5182, Note_off_c, 0, 55, 64
2, 5182, Note_off_c, 0, 62, 64
2, 5182, Note_off_c, 0, 59, 64
2, 5184, Note_on_c, 0, 59, 67
2, 5184, Note_on_c, 0, 62, 67
2, 5184, Note_on_c, 0, 55, 67
2, 5184, Note_on_c, 0, 64, 67
2, 5278, Note_off_c, 0, 64, 64
2, 5278, Note_off_c, 0, 55, 64
2, 5278, Note_off_c, 0, 62, 64
2, 5278, Note_off_c, 0, 59, 64
2, 5376, Note_on_c, 0, 64, 79
2, 5376, Note_on_c, 0, 60, 79
2, 5376, Note_on_c, 0, 55, 79
2, 5566, Note_off_c, 0, 55, 64
2, 5566, Note_off_c, 0, 60, 64
2, 5566, Note_off_c, 0, 64, 64
2, 5568, Note_on_c, 0, 64, 67
2, 5568, Note_on_c, 0, 60, 67
2, 5568, Note_on_c, 0, 55, 67
2, 5662, Note_off_c, 0, 55, 64
2, 5662, Note_off_c, 0, 60, 64
2, 5662, Note_off_c, 0, 64, 64
2, 5760, Note_on_c, 0, 64, 79
2, 5760, Note_on_c, 0, 59, 79
2, 5760, Note_on_c, 0, 55, 79
2, 5950, Note_off_c, 0, 55, 64
2, 5950, Note_off_c, 0, 59, 64
2, 5950, Note_off_c, 0, 64, 64
2, 5952, Note_on_c, 0, 64, 67
2, 5952, Note_on_c, 0, 59, 67
2, 5952, Note_on_c, 0, 55, 67
2, 6046, Note_off_c, 0, 55, 64
2, 6046, Note_off_c, 0, 59, 64
2, 6046, Note_off_c, 0, 64, 64
2, 6144, Note_on_c, 0, 60, 79
2, 6144, Note_on_c, 0, 57, 79
2, 6144, Note_on_c, 0, 64, 79
2, 6334, Note_off_c, 0, 64, 64
2, 6334, Note_off_c, 0, 57, 64
2, 6334, Note_off_c, 0, 60, 64
2, 6336, Note_on_c, 0, 60, 67
2, 6336, Note_on_c, 0, 57, 67
2, 6336, Note_on_c, 0, 64, 67
2, 6430, Note_off_c, 0, 64, 64
2, 6430, Note_off_c, 0, 57, 64
2, 6430, Note_off_c, 0, 60, 64
2, 6528, Note_on_c, 0, 60, 79
2, 6528, Note_on_c, 0, 64, 79
2, 6528, Note_on_c, 0, 55, 79
2, 6718, Note_off_c, 0, 55, 64
2, 6718, Note_off_c, 0, 64, 64
2, 6718, Note_off_c, 0, 60, 64
2, 6720, Note_on_c, 0, 60, 67
2, 6720, Note_on_c, 0, 64, 67
2, 6720, Note_on_c, 0, 55, 67
2, 6814, Note_off_c, 0, 55, 64
2, 6814, Note_off_c, 0, 64, 64
2, 6814, Note_off_c, 0, 60, 64
2, 6912, Note_on_c, 0, 67, 79
2, 6912, Note_on_c, 0, 59, 79
2, 6912, Note_on_c, 0, 62, 79
2, 7102, Note_off_c, 0, 62, 64
2, 7102, Note_off_c, 0, 59, 64
2, 7102, Note_off_c, 0, 67, 64
2, 7104, Note_on_c, 0, 67, 67
2, 7104, Note_on_c, 0, 59, 67
2, 7104, Note_on_c, 0, 62, 67
2, 7198, Note_off_c, 0, 62, 64
2, 7198, Note_off_c, 0, 59, 64
2, 7198, Note_off_c, 0, 67, 64
2, 7296, Note_on_c, 0, 66, 79
2, 7296, Note_on_c, 0, 59, 79
2, 7296, Note_on_c, 0, 62, 79
2, 7486, Note_off_c, 0, 62, 64
2, 7486, Note_off_c, 0, 59, 64
2, 7486, Note_off_c, 0, 66, 64
2, 7488, Note_on_c, 0, 66, 67
2, 7488, Note_on_c, 0, 59, 67
2, 7488, Note_on_c, 0, 62, 67
2, 7582, Note_off_c, 0, 62, 64
2, 7582, Note_off_c, 0, 59, 64
2, 7582, Note_off_c, 0, 66, 64
2, 7680, Note_on_c, 0, 55, 79
2, 7680, Note_on_c, 0, 64, 79
2, 7680, Note_on_c, 0, 59, 79
2, 7870, Note_off_c, 0, 59, 64
2, 7870, Note_off_c, 0, 64, 64
2, 7870, Note_off_c, 0, 55, 64
2, 7872, Note_on_c, 0, 55, 67
2, 7872, Note_on_c, 0, 64, 67
2, 7872, Note_on_c, 0, 59, 67
2, 7966, Note_off_c, 0, 59, 64
2, 7966, Note_off_c, 0, 64, 64
2, 7966, Note_off_c, 0, 55, 64
2, 8064, Note_on_c, 0, 59, 67
2, 8064, Note_on_c, 0, 62, 79
2, 8064, Note_on_c, 0, 55, 79
2, 8064, Note_on_c, 0, 64, 79
2, 8254, Note_off_c, 0, 64, 64
2, 8254, Note_off_c, 0, 55, 64
2, 8254, Note_off_c, 0, 62, 64
2, 8254, Note_off_c, 0, 59, 64
2, 8256, Note_on_c, 0, 59, 67
2, 8256, Note_on_c, 0, 62, 67
2, 8256, Note_on_c, 0, 55, 67
2, 8256, Note_on_c, 0, 64, 67
2, 8350, Note_off_c, 0, 64, 64
2, 8350, Note_off_c, 0, 55, 64
2, 8350, Note_off_c, 0, 62, 64
2, 8350, Note_off_c, 0, 59, 64
2, 8448, Note_on_c, 0, 55, 79
2, 8448, Note_on_c, 0, 64, 79
2, 8448, Note_on_c, 0, 60, 79
2, 8638, Note_off_c, 0, 60, 64
2, 8638, Note_off_c, 0, 64, 64
2, 8638, Note_off_c, 0, 55, 64
2, 8640, Note_on_c, 0, 55, 67
2, 8640, Note_on_c, 0, 64, 67
2, 8640, Note_on_c, 0, 60, 67
2, 8734, Note_off_c, 0, 60, 64
2, 8734, Note_off_c, 0, 64, 64
2, 8734, Note_off_c, 0, 55, 64
2, 8832, Note_on_c, 0, 57, 79
2, 8832, Note_on_c, 0, 65, 79
2, 8832, Note_on_c, 0, 60, 79
2, 9022, Note_off_c, 0, 60, 64
2, 9022, Note_off_c, 0, 65, 64
2, 9022, Note_off_c, 0, 57, 64
2, 9024, Note_on_c, 0, 57, 67
2, 9024, Note_on_c, 0, 65, 67
2, 9024, Note_on_c, 0, 60, 67
2, 9118, Note_off_c, 0, 60, 64
2, 9118, Note_off_c, 0, 65, 64
2, 9118, Note_off_c, 0, 57, 64
2, 9216, Note_on_c, 0, 64, 79
2, 9216, Note_on_c, 0, 59, 79
2, 9216, Note_on_c, 0, 55, 79
2, 9406, Note_off_c, 0, 55, 64
2, 9406, Note_off_c, 0, 59, 64
2, 9406, Note_off_c, 0, 64, 64
2, 9408, Note_on_c, 0, 55, 67
2, 9408, Note_on_c, 0, 64, 67
2, 9408, Note_on_c, 0, 59, 67
2, 9502, Note_off_c, 0, 59, 64
2, 9502, Note_off_c, 0, 64, 64
2, 9502, Note_off_c, 0, 55, 64
2, 9600, Note_on_c, 0, 59, 67
2, 9600, Note_on_c, 0, 62, 79
2, 9600, Note_on_c, 0, 55, 79
2, 9600, Note_on_c, 0, 64, 79
2, 9790, Note_off_c, 0, 64, 64
2, 9790, Note_off_c, 0, 55, 64
2, 9790, Note_off_c, 0, 62, 64
2, 9790, Note_off_c, 0, 59, 64
2, 9792, Note_on_c, 0, 59, 67
2, 9792, Note_on_c, 0, 62, 67
2, 9792, Note_on_c, 0, 55, 67
2, 9792, Note_on_c, 0, 64, 67
2, 9886, Note_off_c, 0, 64, 64
2, 9886, Note_off_c, 0, 55, 64
2, 9886, Note_off_c, 0, 62, 64
2, 9886, Note_off_c, 0, 59, 64
2, 9984, Note_on_c, 0, 55, 79
2, 9984, Note_on_c, 0, 64, 79
2, 9984, Note_on_c, 0, 60, 79
2, 10174, Note_off_c, 0, 60, 64
2, 10174, Note_off_c, 0, 64, 64
2, 10174, Note_off_c, 0, 55, 64
2, 10176, Note_on_c, 0, 55, 67
2, 10176, Note_on_c, 0, 64, 67
2, 10176, Note_on_c, 0, 60, 67
2, 10270, Note_off_c, 0, 60, 64
2, 10270, Note_off_c, 0, 64, 64
2, 10270, Note_off_c, 0, 55, 64
2, 10368, Note_on_c, 0, 57, 79
2, 10368, Note_on_c, 0, 65, 79
2, 10368, Note_on_c, 0, 60, 79
2, 10558, Note_off_c, 0, 60, 64
2, 10558, Note_off_c, 0, 65, 64
2, 10558, Note_off_c, 0, 57, 64
2, 10560, Note_on_c, 0, 57, 67
2, 10560, Note_on_c, 0, 65, 67
2, 10560, Note_on_c, 0, 60, 67
2, 10654, Note_off_c, 0, 60, 64
2, 10654, Note_off_c, 0, 65, 64
2, 10654, Note_off_c, 0, 57, 64
2, 10752, Note_on_c, 0, 64, 79
2, 10752, Note_on_c, 0, 59, 79
2, 10752, Note_on_c, 0, 55, 79
2, 10942, Note_off_c, 0, 55, 64
2, 10942, Note_off_c, 0, 59, 64
2, 10942, Note_off_c, 0, 64, 64
2, 10944, Note_on_c, 0, 55, 67
2, 10944, Note_on_c, 0, 64, 67
2, 10944, Note_on_c, 0, 59, 67
2, 11038, Note_off_c, 0, 59, 64
2, 11038, Note_off_c, 0, 64, 64
2, 11038, Note_off_c, 0, 55, 64
2, 11136, Note_on_c, 0, 60, 67
2, 11136, Note_on_c, 0, 55, 79
2, 11136, Note_on_c, 0, 64, 79
2, 11326, Note_off_c, 0, 64, 64
2, 11326, Note_off_c, 0, 55, 64
2, 11326, Note_off_c, 0, 60, 64
2, 11328, Note_on_c, 0, 60, 67
2, 11328, Note_on_c, 0, 55, 67
2, 11328, Note_on_c, 0, 64, 67
2, 11422, Note_off_c, 0, 64, 64
2, 11422, Note_off_c, 0, 55, 64
2, 11422, Note_off_c, 0, 60, 64
2, 11520, Note_on_c, 0, 67, 79
2, 11520, Note_on_c, 0, 59, 79
2, 11520, Note_on_c, 0, 62, 79
2, 11710, Note_off_c, 0, 62, 64
2, 11710, Note_off_c, 0, 59, 64
2, 11710, Note_off_c, 0, 67, 64
2, 11712, Note_on_c, 0, 67, 67
2, 11712, Note_on_c, 0, 59, 67
2, 11712, Note_on_c, 0, 62, 67
2, 11806, Note_off_c, 0, 62, 64
2, 11806, Note_off_c, 0, 59, 64
2, 11806, Note_off_c, 0, 67, 64
2, 11904, Note_on_c, 0, 66, 79
2, 11904, Note_on_c, 0, 59, 79
2, 11904, Note_on_c, 0, 62, 79
2, 12094, Note_off_c, 0, 62, 64
2, 12094, Note_off_c, 0, 59, 64
2, 12094, Note_off_c, 0, 66, 64
2, 12096, Note_on_c, 0, 66, 67
2, 12096, Note_on_c, 0, 59, 67
2, 12096, Note_on_c, 0, 62, 67
2, 12190, Note_off_c, 0, 62, 64
2, 12190, Note_off_c, 0, 59, 64
2, 12190, Note_off_c, 0, 66, 64
2, 12288, Note_on_c, 0, 55, 79
2, 12288, Note_on_c, 0, 64, 79
2, 12288, Note_on_c, 0, 59, 79
2, 12478, Note_off_c, 0, 59, 64
2, 12478, Note_off_c, 0, 64, 64
2, 12478, Note_off_c, 0, 55, 64
2, 12480, Note_on_c, 0, 55, 67
2, 12480, Note_on_c, 0, 64, 67
2, 12480, Note_on_c, 0, 59, 67
2, 12574, Note_off_c, 0, 59, 64
2, 12574, Note_off_c, 0, 64, 64
2, 12574, Note_off_c, 0, 55, 64
2, 12672, Note_on_c, 0, 59, 67
2, 12672, Note_on_c, 0, 62, 79
2, 12672, Note_on_c, 0, 55, 79
2, 12672, Note_on_c, 0, 64, 79
2, 12862, Note_off_c, 0, 64, 64
2, 12862, Note_off_c, 0, 55, 64
2, 12862, Note_off_c, 0, 62, 64
2, 12862, Note_off_c, 0, 59, 64
2, 12864, Note_on_c, 0, 59, 67
2, 12864, Note_on_c, 0, 62, 67
2, 12864, Note_on_c, 0, 55, 67
2, 12864, Note_on_c, 0, 64, 67
2, 12958, Note_off_c, 0, 64, 64
2, 12958, Note_off_c, 0, 55, 64
2, 12958, Note_off_c, 0, 62, 64
2, 12958, Note_off_c, 0, 59, 64
2, 13056, Note_on_c, 0, 64, 79
2, 13056, Note_on_c, 0, 60, 79
2, 13056, Note_on_c, 0, 55, 79
2, 13246, Note_off_c, 0, 55, 64
2, 13246, Note_off_c, 0, 60, 64
2, 13246, Note_off_c, 0, 64, 64
2, 13248, Note_on_c, 0, 64, 67
2, 13248, Note_on_c, 0, 60, 67
2, 13248, Note_on_c, 0, 55, 67
2, 13342, Note_off_c, 0, 55, 64
2, 13342, Note_off_c, 0, 60, 64
2, 13342, Note_off_c, 0, 64, 64
2, 13440, Note_on_c, 0, 64, 79
2, 13440, Note_on_c, 0, 59, 79
2, 13440, Note_on_c, 0, 55, 79
2, 13630, Note_off_c, 0, 55, 64
2, 13630, Note_off_c, 0, 59, 64
2, 13630, Note_off_c, 0, 64, 64
2, 13632, Note_on_c, 0, 64, 67
2, 13632, Note_on_c, 0, 59, 67
2, 13632, Note_on_c, 0, 55, 67
2, 13726, Note_off_c, 0, 55, 64
2, 13726, Note_off_c, 0, 59, 64
2, 13726, Note_off_c, 0, 64, 64
2, 13824, Note_on_c, 0, 60, 79
2, 13824, Note_on_c, 0, 57, 79
2, 13824, Note_on_c, 0, 64, 79
2, 14014, Note_off_c, 0, 64, 64
2, 14014, Note_off_c, 0, 57, 64
2, 14014, Note_off_c, 0, 60, 64
2, 14016, Note_on_c, 0, 60, 67
2, 14016, Note_on_c, 0, 57, 67
2, 14016, Note_on_c, 0, 64, 67
2, 14110, Note_off_c, 0, 64, 64
2, 14110, Note_off_c, 0, 57, 64
2, 14110, Note_off_c, 0, 60, 64
2, 14208, Note_on_c, 0, 60, 79
2, 14208, Note_on_c, 0, 64, 79
2, 14208, Note_on_c, 0, 55, 79
2, 14398, Note_off_c, 0, 55, 64
2, 14398, Note_off_c, 0, 64, 64
2, 14398, Note_off_c, 0, 60, 64
2, 14400, Note_on_c, 0, 60, 67
2, 14400, Note_on_c, 0, 64, 67
2, 14400, Note_on_c, 0, 55, 67
2, 14494, Note_off_c, 0, 55, 64
2, 14494, Note_off_c, 0, 64, 64
2, 14494, Note_off_c, 0, 60, 64
2, 14592, Note_on_c, 0, 67, 79
2, 14592, Note_on_c, 0, 59, 79
2, 14592, Note_on_c, 0, 62, 79
2, 14782, Note_off_c, 0, 62, 64
2, 14782, Note_off_c, 0, 59, 64
2, 14782, Note_off_c, 0, 67, 64
2, 14784, Note_on_c, 0, 67, 67
2, 14784, Note_on_c, 0, 59, 67
2, 14784, Note_on_c, 0, 62, 67
2, 14878, Note_off_c, 0, 62, 64
2, 14878, Note_off_c, 0, 59, 64
2, 14878, Note_off_c, 0, 67, 64
2, 14976, Note_on_c, 0, 66, 79
2, 14976, Note_on_c, 0, 59, 79
2, 14976, Note_on_c, 0, 62, 79
2, 15166, Note_off_c, 0, 62, 64
2, 15166, Note_off_c, 0, 59, 64
2, 15166, Note_off_c, 0, 66, 64
2, 15168, Note_on_c, 0, 66, 67
2, 15168, Note_on_c, 0, 59, 67
2, 15168, Note_on_c, 0, 62, 67
2, 15262, Note_off_c, 0, 62, 64
2, 15262, Note_off_c, 0, 59, 64
2, 15262, Note_off_c, 0, 66, 64
2, 15360, Note_on_c, 0, 55, 79
2, 15360, Note_on_c, 0, 64, 79
2, 15360, Note_on_c, 0, 59, 79
2, 15550, Note_off_c, 0, 59, 64
2, 15550, Note_off_c, 0, 64, 64
2, 15550, Note_off_c, 0, 55, 64
2, 15552, Note_on_c, 0, 55, 67
2, 15552, Note_on_c, 0, 64, 67
2, 15552, Note_on_c, 0, 59, 67
2, 15646, Note_off_c, 0, 59, 64
2, 15646, Note_off_c, 0, 64, 64
2, 15646, Note_off_c, 0, 55, 64
2, 15744, Note_on_c, 0, 59, 67
2, 15744, Note_on_c, 0, 62, 79
2, 15744, Note_on_c, 0, 55, 79
2, 15744, Note_on_c, 0, 64, 79
2, 15934, Note_off_c, 0, 64, 64
2, 15934, Note_off_c, 0, 55, 64
2, 15934, Note_off_c, 0, 62, 64
2, 15934, Note_off_c, 0, 59, 64
2, 15936, Note_on_c, 0, 59, 67
2, 15936, Note_on_c, 0, 62, 67
2, 15936, Note_on_c, 0, 55, 67
2, 15936, Note_on_c, 0, 64, 67
2, 16030, Note_off_c, 0, 64, 64
2, 16030, Note_off_c, 0, 55, 64
2, 16030, Note_off_c, 0, 62, 64
2, 16030, Note_off_c, 0, 59, 64
2, 16128, Note_on_c, 0, 55, 79
2, 16128, Note_on_c, 0, 64, 79
2, 16128, Note_on_c, 0, 60, 79
2, 16318, Note_off_c, 0, 60, 64
2, 16318, Note_off_c, 0, 64, 64
2, 16318, Note_off_c, 0, 55, 64
2, 16320, Note_on_c, 0, 55, 67
2, 16320, Note_on_c, 0, 64, 67
2, 16320, Note_on_c, 0, 60, 67
2, 16414, Note_off_c, 0, 60, 64
2, 16414, Note_off_c, 0, 64, 64
2, 16414, Note_off_c, 0, 55, 64
2, 16512, Note_on_c, 0, 57, 79
2, 16512, Note_on_c, 0, 65, 79
2, 16512, Note_on_c, 0, 60, 79
2, 16702, Note_off_c, 0, 60, 64
2, 16702, Note_off_c, 0, 65, 64
2, 16702, Note_off_c, 0, 57, 64
2, 16704, Note_on_c, 0, 57, 67
2, 16704, Note_on_c, 0, 65, 67
2, 16704, Note_on_c, 0, 60, 67
2, 16798, Note_off_c, 0, 60, 64
2, 16798, Note_off_c, 0, 65, 64
2, 16798, Note_off_c, 0, 57, 64
2, 16896, Note_on_c, 0, 64, 79
2, 16896, Note_on_c, 0, 59, 79
2, 16896, Note_on_c, 0, 55, 79
2, 17086, Note_off_c, 0, 55, 64
2, 17086, Note_off_c, 0, 59, 64
2, 17086, Note_off_c, 0, 64, 64
2, 17088, Note_on_c, 0, 55, 67
2, 17088, Note_on_c, 0, 64, 67
2, 17088, Note_on_c, 0, 59, 67
2, 17182, Note_off_c, 0, 59, 64
2, 17182, Note_off_c, 0, 64, 64
2, 17182, Note_off_c, 0, 55, 64
2, 17280, Note_on_c, 0, 59, 67
2, 17280, Note_on_c, 0, 62, 79
2, 17280, Note_on_c, 0, 55, 79
2, 17470, Note_off_c, 0, 55, 64
2, 17470, Note_off_c, 0, 62, 64
2, 17470, Note_off_c, 0, 59, 64
2, 17472, Note_on_c, 0, 59, 67
2, 17472, Note_on_c, 0, 62, 67
2, 17472, Note_on_c, 0, 55, 67
2, 17566, Note_off_c, 0, 55, 64
2, 17566, Note_off_c, 0, 62, 64
2, 17566, Note_off_c, 0, 59, 64
2, 17664, Note_on_c, 0, 55, 70
2, 17664, Note_on_c, 0, 60, 70
2, 17664, Note_on_c, 0, 64, 70
2, 17854, Note_off_c, 0, 64, 64
2, 17854, Note_off_c, 0, 60, 64
2, 17854, Note_off_c, 0, 55, 64
2, 17856, Note_on_c, 0, 55, 71
2, 17856, Note_on_c, 0, 60, 71
2, 17856, Note_on_c, 0, 64, 71
2, 18142, Note_off_c, 0, 64, 64
2, 18142, Note_off_c, 0, 60, 64
2, 18142, Note_off_c, 0, 55, 64
2, 18240, Note_on_c, 0, 55, 76
2, 18240, Note_on_c, 0, 60, 76
2, 18240, Note_on_c, 0, 64, 76
2, 18302, Note_off_c, 0, 64, 64
2, 18302, Note_off_c, 0, 60, 64
2, 18302, Note_off_c, 0, 55, 64
2, 18432, Note_on_c, 0, 67, 79
2, 18432, Note_on_c, 0, 59, 79
2, 18432, Note_on_c, 0, 62, 79
2, 18622, Note_off_c, 0, 62, 64
2, 18622, Note_off_c, 0, 59, 64
2, 18622, Note_off_c, 0, 67, 64
2, 18624, Note_on_c, 0, 67, 67
2, 18624, Note_on_c, 0, 59, 67
2, 18624, Note_on_c, 0, 62, 67
2, 18718, Note_off_c, 0, 62, 64
2, 18718, Note_off_c, 0, 59, 64
2, 18718, Note_off_c, 0, 67, 64
2, 18816, Note_on_c, 0, 66, 79
2, 18816, Note_on_c, 0, 59, 79
2, 18816, Note_on_c, 0, 62, 79
2, 19006, Note_off_c, 0, 62, 64
2, 19006, Note_off_c, 0, 59, 64
2, 19006, Note_off_c, 0, 66, 64
2, 19008, Note_on_c, 0, 66, 67
2, 19008, Note_on_c, 0, 59, 67
2, 19008, Note_on_c, 0, 62, 67
2, 19102, Note_off_c, 0, 62, 64
2, 19102, Note_off_c, 0, 59, 64
2, 19102, Note_off_c, 0, 66, 64
2, 19200, Note_on_c, 0, 55, 79
2, 19200, Note_on_c, 0, 64, 79
2, 19200, Note_on_c, 0, 59, 79
2, 19390, Note_off_c, 0, 59, 64
2, 19390, Note_off_c, 0, 64, 64
2, 19390, Note_off_c, 0, 55, 64
2, 19392, Note_on_c, 0, 55, 67
2, 19392, Note_on_c, 0, 64, 67
2, 19392, Note_on_c, 0, 59, 67
2, 19486, Note_off_c, 0, 59, 64
2, 19486, Note_off_c, 0, 64, 64
2, 19486, Note_off_c, 0, 55, 64
2, 19584, Note_on_c, 0, 59, 67
2, 19584, Note_on_c, 0, 62, 79
2, 19584, Note_on_c, 0, 55, 79
2, 19584, Note_on_c, 0, 64, 79
2, 19774, Note_off_c, 0, 64, 64
2, 19774, Note_off_c, 0, 55, 64
2, 19774, Note_off_c, 0, 62, 64
2, 19774, Note_off_c, 0, 59, 64
2, 19776, Note_on_c, 0, 59, 67
2, 19776, Note_on_c, 0, 62, 67
2, 19776, Note_on_c, 0, 55, 67
2, 19776, Note_on_c, 0, 64, 67
2, 19870, Note_off_c, 0, 64, 64
2, 19870, Note_off_c, 0, 55, 64
2, 19870, Note_off_c, 0, 62, 64
2, 19870, Note_off_c, 0, 59, 64
2, 19968, Note_on_c, 0, 64, 79
2, 19968, Note_on_c, 0, 60, 79
2, 19968, Note_on_c, 0, 55, 79
2, 20158, Note_off_c, 0, 55, 64
2, 20158, Note_off_c, 0, 60, 64
2, 20158, Note_off_c, 0, 64, 64
2, 20160, Note_on_c, 0, 64, 67
2, 20160, Note_on_c, 0, 60, 67
2, 20160, Note_on_c, 0, 55, 67
2, 20254, Note_off_c, 0, 55, 64
2, 20254, Note_off_c, 0, 60, 64
2, 20254, Note_off_c, 0, 64, 64
2, 20352, Note_on_c, 0, 64, 79
2, 20352, Note_on_c, 0, 59, 79
2, 20352, Note_on_c, 0, 55, 79
2, 20542, Note_off_c, 0, 55, 64
2, 20542, Note_off_c, 0, 59, 64
2, 20542, Note_off_c, 0, 64, 64
2, 20544, Note_on_c, 0, 64, 67
2, 20544, Note_on_c, 0, 59, 67
2, 20544, Note_on_c, 0, 55, 67
2, 20638, Note_off_c, 0, 55, 64
2, 20638, Note_off_c, 0, 59, 64
2, 20638, Note_off_c, 0, 64, 64
2, 20736, Note_on_c, 0, 60, 79
2, 20736, Note_on_c, 0, 57, 79
2, 20736, Note_on_c, 0, 64, 79
2, 20926, Note_off_c, 0, 64, 64
2, 20926, Note_off_c, 0, 57, 64
2, 20926, Note_off_c, 0, 60, 64
2, 20928, Note_on_c, 0, 60, 67
2, 20928, Note_on_c, 0, 57, 67
2, 20928, Note_on_c, 0, 64, 67
2, 21022, Note_off_c, 0, 64, 64
2, 21022, Note_off_c, 0, 57, 64
2, 21022, Note_off_c, 0, 60, 64
2, 21120, Note_on_c, 0, 60, 79
2, 21120, Note_on_c, 0, 64, 79
2, 21120, Note_on_c, 0, 55, 79
2, 21310, Note_off_c, 0, 55, 64
2, 21310, Note_off_c, 0, 64, 64
2, 21310, Note_off_c, 0, 60, 64
2, 21312, Note_on_c, 0, 60, 67
2, 21312, Note_on_c, 0, 64, 67
2, 21312, Note_on_c, 0, 55, 67
2, 21406, Note_off_c, 0, 55, 64
2, 21406, Note_off_c, 0, 64, 64
2, 21406, Note_off_c, 0, 60, 64
2, 21504, Note_on_c, 0, 67, 79
2, 21504, Note_on_c, 0, 59, 79
2, 21504, Note_on_c, 0, 62, 79
2, 21694, Note_off_c, 0, 62, 64
2, 21694, Note_off_c, 0, 59, 64
2, 21694, Note_off_c, 0, 67, 64
2, 21696, Note_on_c, 0, 67, 67
2, 21696, Note_on_c, 0, 59, 67
2, 21696, Note_on_c, 0, 62, 67
2, 21790, Note_off_c, 0, 62, 64
2, 21790, Note_off_c, 0, 59, 64
2, 21790, Note_off_c, 0, 67, 64
2, 21888, Note_on_c, 0, 66, 79
2, 21888, Note_on_c, 0, 59, 79
2, 21888, Note_on_c, 0, 62, 79
2, 22078, Note_off_c, 0, 62, 64
2, 22078, Note_off_c, 0, 59, 64
2, 22078, Note_off_c, 0, 66, 64
2, 22080, Note_on_c, 0, 66, 67
2, 22080, Note_on_c, 0, 59, 67
2, 22080, Note_on_c, 0, 62, 67
2, 22174, Note_off_c, 0, 62, 64
2, 22174, Note_off_c, 0, 59, 64
2, 22174, Note_off_c, 0, 66, 64
2, 22272, Note_on_c, 0, 55, 79
2, 22272, Note_on_c, 0, 64, 79
2, 22272, Note_on_c, 0, 59, 79
2, 22462, Note_off_c, 0, 59, 64
2, 22462, Note_off_c, 0, 64, 64
2, 22462, Note_off_c, 0, 55, 64
2, 22464, Note_on_c, 0, 55, 67
2, 22464, Note_on_c, 0, 64, 67
2, 22464, Note_on_c, 0, 59, 67
2, 22558, Note_off_c, 0, 59, 64
2, 22558, Note_off_c, 0, 64, 64
2, 22558, Note_off_c, 0, 55, 64
2, 22656, Note_on_c, 0, 59, 67
2, 22656, Note_on_c, 0, 62, 79
2, 22656, Note_on_c, 0, 55, 79
2, 22656, Note_on_c, 0, 64, 79
2, 22846, Note_off_c, 0, 64, 64
2, 22846, Note_off_c, 0, 55, 64
2, 22846, Note_off_c, 0, 62, 64
2, 22846, Note_off_c, 0, 59, 64
2, 22848, Note_on_c, 0, 59, 67
2, 22848, Note_on_c, 0, 62, 67
2, 22848, Note_on_c, 0, 55, 67
2, 22848, Note_on_c, 0, 64, 67
2, 22942, Note_off_c, 0, 64, 64
2, 22942, Note_off_c, 0, 55, 64
2, 22942, Note_off_c, 0, 62, 64
2, 22942, Note_off_c, 0, 59, 64
2, 23040, Note_on_c, 0, 55, 79
2, 23040, Note_on_c, 0, 64, 79
2, 23040, Note_on_c, 0, 60, 79
2, 23230, Note_off_c, 0, 60, 64
2, 23230, Note_off_c, 0, 64, 64
2, 23230, Note_off_c, 0, 55, 64
2, 23232, Note_on_c, 0, 55, 67
2, 23232, Note_on_c, 0, 64, 67
2, 23232, Note_on_c, 0, 60, 67
2, 23326, Note_off_c, 0, 60, 64
2, 23326, Note_off_c, 0, 64, 64
2, 23326, Note_off_c, 0, 55, 64
2, 23424, Note_on_c, 0, 57, 79
2, 23424, Note_on_c, 0, 65, 79
2, 23424, Note_on_c, 0, 60, 79
2, 23614, Note_off_c, 0, 60, 64
2, 23614, Note_off_c, 0, 65, 64
2, 23614, Note_off_c, 0, 57, 64
2, 23616, Note_on_c, 0, 57, 67
2, 23616, Note_on_c, 0, 65, 67
2, 23616, Note_on_c, 0, 60, 67
2, 23710, Note_off_c, 0, 60, 64
2, 23710, Note_off_c, 0, 65, 64
2, 23710, Note_off_c, 0, 57, 64
2, 23808, Note_on_c, 0, 64, 79
2, 23808, Note_on_c, 0, 59, 79
2, 23808, Note_on_c, 0, 55, 79
2, 23998, Note_off_c, 0, 55, 64
2, 23998, Note_off_c, 0, 59, 64
2, 23998, Note_off_c, 0, 64, 64
2, 24000, Note_on_c, 0, 55, 67
2, 24000, Note_on_c, 0, 64, 67
2, 24000, Note_on_c, 0, 59, 67
2, 24094, Note_off_c, 0, 59, 64
2, 24094, Note_off_c, 0, 64, 64
2, 24094, Note_off_c, 0, 55, 64
2, 24192, Note_on_c, 0, 59, 67
2, 24192, Note_on_c, 0, 62, 79
2, 24192, Note_on_c, 0, 55, 79
2, 24382, Note_off_c, 0, 55, 64
2, 24382, Note_off_c, 0, 62, 64
2, 24382, Note_off_c, 0, 59, 64
2, 24384, Note_on_c, 0, 59, 67
2, 24384, Note_on_c, 0, 62, 67
2, 24384, Note_on_c, 0, 55, 67
2, 24478, Note_off_c, 0, 55, 64
2, 24478, Note_off_c, 0, 62, 64
2, 24478, Note_off_c, 0, 59, 64
2, 24576, Note_on_c, 0, 55, 70
2, 24576, Note_on_c, 0, 60, 70
2, 24576, Note_on_c, 0, 64, 70
2, 24766, Note_off_c, 0, 64, 64
2, 24766, Note_off_c, 0, 60, 64
2, 24766, Note_off_c, 0, 55, 64
2, 24768, Note_on_c, 0, 55, 71
2, 24768, Note_on_c, 0, 60, 71
2, 24768, Note_on_c, 0, 64, 71
2, 25054, Note_off_c, 0, 64, 64
2, 25054, Note_off_c, 0, 60, 64
2, 25054, Note_off_c, 0, 55, 64
2, 25152, Note_on_c, 0, 55, 76
2, 25152, Note_on_c, 0, 60, 76
2, 25152, Note_on_c, 0, 64, 76
2, 25214, Note_off_c, 0, 64, 64
2, 25214, Note_off_c, 0, 60, 64
2, 25214, Note_off_c, 0, 55, 64
2, 50880, Note_on_c, 0, 67, 79
2, 50880, Note_on_c, 0, 59, 79
2, 50880, Note_on_c, 0, 62, 79
2, 51070, Note_off_c, 0, 62, 64
2, 51070, Note_off_c, 0, 59, 64
2, 51070, Note_off_c, 0, 67, 64
2, 51072, Note_on_c, 0, 67, 67
2, 51072, Note_on_c, 0, 59, 67
2, 51072, Note_on_c, 0, 62, 67
2, 51166, Note_off_c, 0, 62, 64
2, 51166, Note_off_c, 0, 59, 64
2, 51166, Note_off_c, 0, 67, 64
2, 51264, Note_on_c, 0, 66, 79
2, 51264, Note_on_c, 0, 59, 79
2, 51264, Note_on_c, 0, 62, 79
2, 51454, Note_off_c, 0, 62, 64
2, 51454, Note_off_c, 0, 59, 64
2, 51454, Note_off_c, 0, 66, 64
2, 51456, Note_on_c, 0, 66, 67
2, 51456, Note_on_c, 0, 59, 67
2, 51456, Note_on_c, 0, 62, 67
2, 51550, Note_off_c, 0, 62, 64
2, 51550, Note_off_c, 0, 59, 64
2, 51550, Note_off_c, 0, 66, 64
2, 51648, Note_on_c, 0, 55, 79
2, 51648, Note_on_c, 0, 64, 79
2, 51648, Note_on_c, 0, 59, 79
2, 51838, Note_off_c, 0, 59, 64
2, 51838, Note_off_c, 0, 64, 64
2, 51838, Note_off_c, 0, 55, 64
2, 51840, Note_on_c, 0, 55, 67
2, 51840, Note_on_c, 0, 64, 67
2, 51840, Note_on_c, 0, 59, 67
2, 51934, Note_off_c, 0, 59, 64
2, 51934, Note_off_c, 0, 64, 64
2, 51934, Note_off_c, 0, 55, 64
2, 52032, Note_on_c, 0, 59, 67
2, 52032, Note_on_c, 0, 62, 79
2, 52032, Note_on_c, 0, 55, 79
2, 52032, Note_on_c, 0, 64, 79
2, 52222, Note_off_c, 0, 64, 64
2, 52222, Note_off_c, 0, 55, 64
2, 52222, Note_off_c, 0, 62, 64
2, 52222, Note_off_c, 0, 59, 64
2, 52224, Note_on_c, 0, 59, 67
2, 52224, Note_on_c, 0, 62, 67
2, 52224, Note_on_c, 0, 55, 67
2, 52224, Note_on_c, 0, 64, 67
2, 52318, Note_off_c, 0, 64, 64
2, 52318, Note_off_c, 0, 55, 64
2, 52318, Note_off_c, 0, 62, 64
2, 52318, Note_off_c, 0, 59, 64
2, 52416, Note_on_c, 0, 64, 79
2, 52416, Note_on_c, 0, 60, 79
2, 52416, Note_on_c, 0, 55, 79
2, 52606, Note_off_c, 0, 55, 64
2, 52606, Note_off_c, 0, 60, 64
2, 52606, Note_off_c, 0, 64, 64
2, 52608, Note_on_c, 0, 64, 67
2, 52608, Note_on_c, 0, 60, 67
2, 52608, Note_on_c, 0, 55, 67
2, 52702, Note_off_c, 0, 55, 64
2, 52702, Note_off_c, 0, 60, 64
2, 52702, Note_off_c, 0, 64, 64
2, 52800, Note_on_c, 0, 64, 79
2, 52800, Note_on_c, 0, 59, 79
2, 52800, Note_on_c, 0, 55, 79
2, 52990, Note_off_c, 0, 55, 64
2, 52990, Note_off_c, 0, 59, 64
2, 52990, Note_off_c, 0, 64, 64
2, 52992, Note_on_c, 0, 64, 67
2, 52992, Note_on_c, 0, 59, 67
2, 52992, Note_on_c, 0, 55, 67
2, 53086, Note_off_c, 0, 55, 64
2, 53086, Note_off_c, 0, 59, 64
2, 53086, Note_off_c, 0, 64, 64
2, 53184, Note_on_c, 0, 60, 79
2, 53184, Note_on_c, 0, 57, 79
2, 53184, Note_on_c, 0, 64, 79
2, 53374, Note_off_c, 0, 64, 64
2, 53374, Note_off_c, 0, 57, 64
2, 53374, Note_off_c, 0, 60, 64
2, 53376, Note_on_c, 0, 60, 67
2, 53376, Note_on_c, 0, 57, 67
2, 53376, Note_on_c, 0, 64, 67
2, 53470, Note_off_c, 0, 64, 64
2, 53470, Note_off_c, 0, 57, 64
2, 53470, Note_off_c, 0, 60, 64
2, 53568, Note_on_c, 0, 60, 79
2, 53568, Note_on_c, 0, 64, 79
2, 53568, Note_on_c, 0, 55, 79
2, 53758, Note_off_c, 0, 55, 64
2, 53758, Note_off_c, 0, 64, 64
2, 53758, Note_off_c, 0, 60, 64
2, 53760, Note_on_c, 0, 60, 67
2, 53760, Note_on_c, 0, 64, 67
2, 53760, Note_on_c, 0, 55, 67
2, 53854, Note_off_c, 0, 55, 64
2, 53854, Note_off_c, 0, 64, 64
2, 53854, Note_off_c, 0, 60, 64
2, 53952, Note_on_c, 0, 67, 79
2, 53952, Note_on_c, 0, 59, 79
2, 53952, Note_on_c, 0, 62, 79
2, 54142, Note_off_c, 0, 62, 64
2, 54142, Note_off_c, 0, 59, 64
2, 54142, Note_off_c, 0, 67, 64
2, 54144, Note_on_c, 0, 67, 67
2, 54144, Note_on_c, 0, 59, 67
2, 54144, Note_on_c, 0, 62, 67
2, 54238, Note_off_c, 0, 62, 64
2, 54238, Note_off_c, 0, 59, 64
2, 54238, Note_off_c, 0, 67, 64
2, 54336, Note_on_c, 0, 66, 79
2, 54336, Note_on_c, 0, 59, 79
2, 54336, Note_on_c, 0, 62, 79
2, 54526, Note_off_c, 0, 62, 64
2, 54526, Note_off_c, 0, 59, 64
2, 54526, Note_off_c, 0, 66, 64
2, 54528, Note_on_c, 0, 66, 67
2, 54528, Note_on_c, 0, 59, 67
2, 54528, Note_on_c, 0, 62, 67
2, 54622, Note_off_c, 0, 62, 64
2, 54622, Note_off_c, 0, 59, 64
2, 54622, Note_off_c, 0, 66, 64
2, 54720, Note_on_c, 0, 55, 79
2, 54720, Note_on_c, 0, 64, 79
2, 54720, Note_on_c, 0, 59, 79
2, 54910, Note_off_c, 0, 59, 64
2, 54910, Note_off_c, 0, 64, 64
2, 54910, Note_off_c, 0, 55, 64
2, 54912, Note_on_c, 0, 55, 67
2, 54912, Note_on_c, 0, 64, 67
2, 54912, Note_on_c, 0, 59, 67
2, 55006, Note_off_c, 0, 59, 64
2, 55006, Note_off_c, 0, 64, 64
2, 55006, Note_off_c, 0, 55, 64
2, 55104, Note_on_c, 0, 59, 67
2, 55104, Note_on_c, 0, 62, 79
2, 55104, Note_on_c, 0, 55, 79
2, 55104, Note_on_c, 0, 64, 79
2, 55294, Note_off_c, 0, 64, 64
2, 55294, Note_off_c, 0, 55, 64
2, 55294, Note_off_c, 0, 62, 64
2, 55294, Note_off_c, 0, 59, 64
2, 55296, Note_on_c, 0, 59, 67
2, 55296, Note_on_c, 0, 62, 67
2, 55296, Note_on_c, 0, 55, 67
2, 55296, Note_on_c, 0, 64, 67
2, 55390, Note_off_c, 0, 64, 64
2, 55390, Note_off_c, 0, 55, 64
2, 55390, Note_off_c, 0, 62, 64
2, 55390, Note_off_c, 0, 59, 64
2, 55488, Note_on_c, 0, 55, 79
2, 55488, Note_on_c, 0, 64, 79
2, 55488, Note_on_c, 0, 60, 79
2, 55678, Note_off_c, 0, 60, 64
2, 55678, Note_off_c, 0, 64, 64
2, 55678, Note_off_c, 0, 55, 64
2, 55680, Note_on_c, 0, 55, 67
2, 55680, Note_on_c, 0, 64, 67
2, 55680, Note_on_c, 0, 60, 67
2, 55774, Note_off_c, 0, 60, 64
2, 55774, Note_off_c, 0, 64, 64
2, 55774, Note_off_c, 0, 55, 64
2, 55872, Note_on_c, 0, 57, 79
2, 55872, Note_on_c, 0, 65, 79
2, 55872, Note_on_c, 0, 60, 79
2, 56062, Note_off_c, 0, 60, 64
2, 56062, Note_off_c, 0, 65, 64
2, 56062, Note_off_c, 0, 57, 64
2, 56064, Note_on_c, 0, 57, 67
2, 56064, Note_on_c, 0, 65, 67
2, 56064, Note_on_c, 0, 60, 67
2, 56158, Note_off_c, 0, 60, 64
2, 56158, Note_off_c, 0, 65, 64
2, 56158, Note_off_c, 0, 57, 64
2, 56256, Note_on_c, 0, 64, 79
2, 56256, Note_on_c, 0, 59, 79
2, 56256, Note_on_c, 0, 55, 79
2, 56446, Note_off_c, 0, 55, 64
2, 56446, Note_off_c, 0, 59, 64
2, 56446, Note_off_c, 0, 64, 64
2, 56448, Note_on_c, 0, 55, 67
2, 56448, Note_on_c, 0, 64, 67
2, 56448, Note_on_c, 0, 59, 67
2, 56542, Note_off_c, 0, 59, 64
2, 56542, Note_off_c, 0, 64, 64
2, 56542, Note_off_c, 0, 55, 64
2, 56640, Note_on_c, 0, 59, 67
2, 56640, Note_on_c, 0, 62, 79
2, 56640, Note_on_c, 0, 55, 79
2, 56830, Note_off_c, 0, 55, 64
2, 56830, Note_off_c, 0, 62, 64
2, 56830, Note_off_c, 0, 59, 64
2, 56832, Note_on_c, 0, 59, 67
2, 56832, Note_on_c, 0, 62, 67
2, 56832, Note_on_c, 0, 55, 67
2, 56926, Note_off_c, 0, 55, 64
2, 56926, Note_off_c, 0, 62, 64
2, 56926, Note_off_c, 0, 59, 64
2, 57024, Note_on_c, 0, 55, 70
2, 57024, Note_on_c, 0, 60, 70
2, 57024, Note_on_c, 0, 64, 70
2, 57214, Note_off_c, 0, 64, 64
2, 57214, Note_off_c, 0, 60, 64
2, 57214, Note_off_c, 0, 55, 64
2, 57216, Note_on_c, 0, 55, 71
2, 57216, Note_on_c, 0, 60, 71
2, 57216, Note_on_c, 0, 64, 71
2, 57502, Note_off_c, 0, 64, 64
2, 57502, Note_off_c, 0, 60, 64
2, 57502, Note_off_c, 0, 55, 64
2, 57600, Note_on_c, 0, 55, 76
2, 57600, Note_on_c, 0, 60, 76
2, 57600, Note_on_c, 0, 64, 76
2, 57662, Note_off_c, 0, 64, 64
2, 57662, Note_off_c, 0, 60, 64
2, 57662, Note_off_c, 0, 55, 64
2, 71520, Control_c, 0, 7, 100
2, 71520, End_track
3, 0, Start_track
3, 0, Title_t, "Applause"
3, 0, Channel_prefix, 1
3, 0, Control_c, 1, 7, 100
3, 0, Program_c, 1, 126
3, 576, Note_on_c, 1, 53, 100
3, 579, Control_c, 1, 7, 95
3, 585, Control_c, 1, 7, 96
3, 595, Control_c, 1, 7, 97
3, 598, Control_c, 1, 7, 98
3, 608, Control_c, 1, 7, 100
3, 614, Control_c, 1, 7, 101
3, 620, Control_c, 1, 7, 102
3, 624, Control_c, 1, 7, 103
3, 640, Control_c, 1, 7, 105
3, 643, Control_c, 1, 7, 106
3, 656, Control_c, 1, 7, 107
3, 659, Control_c, 1, 7, 108
3, 672, Control_c, 1, 7, 110
3, 678, Control_c, 1, 7, 111
3, 684, Control_c, 1, 7, 112
3, 688, Control_c, 1, 7, 113
3, 700, Control_c, 1, 7, 114
3, 704, Control_c, 1, 7, 115
3, 710, Control_c, 1, 7, 116
3, 720, Control_c, 1, 7, 117
3, 726, Control_c, 1, 7, 118
3, 732, Control_c, 1, 7, 119
3, 736, Control_c, 1, 7, 120
3, 748, Control_c, 1, 7, 121
3, 755, Control_c, 1, 7, 122
3, 764, Control_c, 1, 7, 123
3, 774, Control_c, 1, 7, 124
3, 777, Control_c, 1, 7, 125
3, 787, Control_c, 1, 7, 126
3, 796, Control_c, 1, 7, 127
3, 905, Control_c, 1, 7, 126
3, 908, Control_c, 1, 7, 125
3, 912, Control_c, 1, 7, 124
3, 915, Control_c, 1, 7, 123
3, 921, Control_c, 1, 7, 122
3, 937, Control_c, 1, 7, 121
3, 947, Control_c, 1, 7, 120
3, 956, Control_c, 1, 7, 119
3, 979, Control_c, 1, 7, 118
3, 985, Control_c, 1, 7, 117
3, 1001, Control_c, 1, 7, 116
3, 1008, Control_c, 1, 7, 115
3, 1017, Control_c, 1, 7, 114
3, 1027, Control_c, 1, 7, 113
3, 1030, Control_c, 1, 7, 112
3, 1043, Control_c, 1, 7, 111
3, 1049, Control_c, 1, 7, 110
3, 1052, Control_c, 1, 7, 109
3, 1062, Control_c, 1, 7, 108
3, 1068, Control_c, 1, 7, 107
3, 1078, Control_c, 1, 7, 106
3, 1094, Control_c, 1, 7, 105
3, 1100, Control_c, 1, 7, 104
3, 1110, Control_c, 1, 7, 103
3, 1123, Control_c, 1, 7, 102
3, 1139, Control_c, 1, 7, 101
3, 1145, Control_c, 1, 7, 100
3, 1161, Control_c, 1, 7, 98
3, 1193, Control_c, 1, 7, 97
3, 1273, Control_c, 1, 7, 96
3, 1289, Control_c, 1, 7, 95
3, 1302, Control_c, 1, 7, 94
3, 1324, Control_c, 1, 7, 93
3, 1331, Control_c, 1, 7, 91
3, 1363, Control_c, 1, 7, 89
3, 1404, Control_c, 1, 7, 87
3, 1433, Control_c, 1, 7, 86
3, 1449, Control_c, 1, 7, 85
3, 1456, Control_c, 1, 7, 84
3, 1472, Control_c, 1, 7, 83
3, 1478, Control_c, 1, 7, 82
3, 1481, Control_c, 1, 7, 80
3, 1488, Control_c, 1, 7, 79
3, 1494, Control_c, 1, 7, 78
3, 1497, Control_c, 1, 7, 76
3, 1504, Control_c, 1, 7, 75
3, 1510, Control_c, 1, 7, 74
3, 1516, Control_c, 1, 7, 73
3, 1520, Control_c, 1, 7, 70
3, 1523, Control_c, 1, 7, 66
3, 1564, Control_c, 1, 7, 65
3, 1571, Control_c, 1, 7, 64
3, 1574, Control_c, 1, 7, 63
3, 1580, Control_c, 1, 7, 62
3, 1590, Control_c, 1, 7, 60
3, 1600, Control_c, 1, 7, 57
3, 1616, Control_c, 1, 7, 56
3, 1632, Control_c, 1, 7, 55
3, 1638, Control_c, 1, 7, 54
3, 1699, Control_c, 1, 7, 53
3, 1712, Control_c, 1, 7, 52
3, 1744, Control_c, 1, 7, 51
3, 1772, Control_c, 1, 7, 49
3, 1788, Control_c, 1, 7, 47
3, 1814, Control_c, 1, 7, 46
3, 1824, Control_c, 1, 7, 45
3, 1830, Control_c, 1, 7, 44
3, 1840, Control_c, 1, 7, 42
3, 1852, Control_c, 1, 7, 40
3, 1884, Control_c, 1, 7, 39
3, 1913, Control_c, 1, 7, 38
3, 1920, Control_c, 1, 7, 37
3, 1955, Control_c, 1, 7, 35
3, 1996, Control_c, 1, 7, 34
3, 2012, Control_c, 1, 7, 33
3, 2019, Control_c, 1, 7, 32
3, 2044, Control_c, 1, 7, 31
3, 2070, Control_c, 1, 7, 30
3, 2080, Control_c, 1, 7, 29
3, 2089, Control_c, 1, 7, 27
3, 2102, Control_c, 1, 7, 26
3, 2105, Control_c, 1, 7, 25
3, 2118, Control_c, 1, 7, 24
3, 2124, Control_c, 1, 7, 22
3, 2131, Control_c, 1, 7, 21
3, 2134, Control_c, 1, 7, 20
3, 2144, Control_c, 1, 7, 18
3, 2166, Control_c, 1, 7, 17
3, 2192, Control_c, 1, 7, 16
3, 2201, Control_c, 1, 7, 15
3, 2204, Control_c, 1, 7, 14
3, 2211, Control_c, 1, 7, 13
3, 2220, Control_c, 1, 7, 12
3, 2227, Control_c, 1, 7, 11
3, 2236, Control_c, 1, 7, 10
3, 2240, Control_c, 1, 7, 9
3, 2243, Control_c, 1, 7, 8
3, 2246, Control_c, 1, 7, 7
3, 2256, Control_c, 1, 7, 6
3, 2259, Control_c, 1, 7, 5
3, 2265, Control_c, 1, 7, 3
3, 2278, Control_c, 1, 7, 2
3, 2281, Control_c, 1, 7, 1
3, 2291, Control_c, 1, 7, 0
3, 2294, Control_c, 1, 7, 0
3, 2302, Note_off_c, 1, 53, 64
3, 71520, Control_c, 1, 7, 100
3, 71520, End_track
4, 0, Start_track
4, 0, Title_t, "Guitar"
4, 0, Channel_prefix, 2
4, 0, Control_c, 2, 7, 100
4, 0, Program_c, 2, 0
4, 672, Note_on_c, 2, 55, 66
4, 672, Note_on_c, 2, 67, 66
4, 766, Note_off_c, 2, 67, 64
4, 766, Note_off_c, 2, 55, 64
4, 768, Note_on_c, 2, 55, 85
4, 768, Note_on_c, 2, 67, 85
4, 768, Note_on_c, 2, 59, 85
4, 768, Note_on_c, 2, 62, 85
4, 862, Note_off_c, 2, 62, 64
4, 862, Note_off_c, 2, 59, 64
4, 862, Note_off_c, 2, 67, 64
4, 862, Note_off_c, 2, 55, 64
4, 864, Note_on_c, 2, 55, 68
4, 864, Note_on_c, 2, 59, 68
4, 864, Note_on_c, 2, 62, 68
4, 864, Note_on_c, 2, 67, 68
4, 958, Note_off_c, 2, 67, 64
4, 958, Note_off_c, 2, 62, 64
4, 958, Note_off_c, 2, 59, 64
4, 958, Note_off_c, 2, 55, 64
4, 960, Note_on_c, 2, 55, 74
4, 960, Note_on_c, 2, 59, 74
4, 960, Note_on_c, 2, 62, 74
4, 960, Note_on_c, 2, 67, 74
4, 1054, Note_off_c, 2, 62, 64
4, 1056, Note_on_c, 2, 62, 83
4, 1150, Note_off_c, 2, 59, 64
4, 1150, Note_off_c, 2, 55, 64
4, 1150, Note_off_c, 2, 67, 64
4, 1150, Note_off_c, 2, 62, 64
4, 1152, Note_on_c, 2, 54, 85
4, 1152, Note_on_c, 2, 59, 85
4, 1152, Note_on_c, 2, 62, 85
4, 1152, Note_on_c, 2, 66, 85
4, 1246, Note_off_c, 2, 66, 64
4, 1246, Note_off_c, 2, 62, 64
4, 1246, Note_off_c, 2, 59, 64
4, 1246, Note_off_c, 2, 54, 64
4, 1248, Note_on_c, 2, 54, 68
4, 1248, Note_on_c, 2, 59, 68
4, 1248, Note_on_c, 2, 62, 68
4, 1248, Note_on_c, 2, 66, 68
4, 1342, Note_off_c, 2, 66, 64
4, 1342, Note_off_c, 2, 62, 64
4, 1342, Note_off_c, 2, 59, 64
4, 1342, Note_off_c, 2, 54, 64
4, 1344, Note_on_c, 2, 54, 75
4, 1344, Note_on_c, 2, 59, 75
4, 1344, Note_on_c, 2, 62, 75
4, 1344, Note_on_c, 2, 66, 75
4, 1438, Note_off_c, 2, 62, 64
4, 1440, Note_on_c, 2, 62, 84
4, 1534, Note_off_c, 2, 59, 64
4, 1534, Note_off_c, 2, 54, 64
4, 1534, Note_off_c, 2, 66, 64
4, 1534, Note_off_c, 2, 62, 64
4, 1536, Note_on_c, 2, 59, 85
4, 1536, Note_on_c, 2, 52, 85
4, 1536, Note_on_c, 2, 55, 85
4, 1630, Note_off_c, 2, 55, 64
4, 1630, Note_off_c, 2, 52, 64
4, 1632, Note_on_c, 2, 52, 72
4, 1632, Note_on_c, 2, 55, 72
4, 1726, Note_off_c, 2, 55, 64
4, 1726, Note_off_c, 2, 52, 64
4, 1728, Note_on_c, 2, 52, 75
4, 1728, Note_on_c, 2, 55, 75
4, 1822, Note_off_c, 2, 55, 64
4, 1822, Note_off_c, 2, 52, 64
4, 1824, Note_on_c, 2, 52, 72
4, 1824, Note_on_c, 2, 55, 72
4, 1918, Note_off_c, 2, 55, 64
4, 1918, Note_off_c, 2, 59, 64
4, 1918, Note_off_c, 2, 52, 64
4, 1920, Note_on_c, 2, 52, 85
4, 1920, Note_on_c, 2, 62, 85
4, 1920, Note_on_c, 2, 55, 85
4, 1920, Note_on_c, 2, 59, 85
4, 2014, Note_off_c, 2, 59, 64
4, 2014, Note_off_c, 2, 55, 64
4, 2014, Note_off_c, 2, 52, 64
4, 2016, Note_on_c, 2, 59, 76
4, 2016, Note_on_c, 2, 55, 76
4, 2016, Note_on_c, 2, 52, 76
4, 2110, Note_off_c, 2, 52, 64
4, 2110, Note_off_c, 2, 55, 64
4, 2110, Note_off_c, 2, 59, 64
4, 2112, Note_on_c, 2, 59, 72
4, 2112, Note_on_c, 2, 55, 72
4, 2112, Note_on_c, 2, 52, 72
4, 2206, Note_off_c, 2, 52, 64
4, 2206, Note_off_c, 2, 55, 64
4, 2206, Note_off_c, 2, 59, 64
4, 2208, Note_on_c, 2, 59, 71
4, 2208, Note_on_c, 2, 55, 71
4, 2208, Note_on_c, 2, 52, 71
4, 2302, Note_off_c, 2, 52, 64
4, 2302, Note_off_c, 2, 55, 64
4, 2302, Note_off_c, 2, 62, 64
4, 2302, Note_off_c, 2, 59, 64
4, 2304, Note_on_c, 2, 55, 86
4, 2304, Note_on_c, 2, 60, 86
4, 2304, Note_on_c, 2, 64, 86
4, 2398, Note_off_c, 2, 60, 64
4, 2400, Note_on_c, 2, 59, 65
4, 2494, Note_off_c, 2, 55, 64
4, 2494, Note_off_c, 2, 64, 64
4, 2494, Note_off_c, 2, 59, 64
4, 2496, Note_on_c, 2, 55, 86
4, 2496, Note_on_c, 2, 60, 86
4, 2496, Note_on_c, 2, 64, 86
4, 2590, Note_off_c, 2, 60, 64
4, 2592, Note_on_c, 2, 59, 65
4, 2686, Note_off_c, 2, 55, 64
4, 2686, Note_off_c, 2, 64, 64
4, 2686, Note_off_c, 2, 59, 64
4, 2688, Note_on_c, 2, 55, 86
4, 2688, Note_on_c, 2, 60, 86
4, 2688, Note_on_c, 2, 64, 86
4, 2782, Note_off_c, 2, 60, 64
4, 2784, Note_on_c, 2, 59, 64
4, 2878, Note_off_c, 2, 55, 64
4, 2878, Note_off_c, 2, 64, 64
4, 2878, Note_off_c, 2, 59, 64
4, 2880, Note_on_c, 2, 55, 86
4, 2880, Note_on_c, 2, 60, 86
4, 2880, Note_on_c, 2, 64, 86
4, 2974, Note_off_c, 2, 60, 64
4, 2976, Note_on_c, 2, 59, 64
4, 3070, Note_off_c, 2, 55, 64
4, 3070, Note_off_c, 2, 64, 64
4, 3070, Note_off_c, 2, 59, 64
4, 3072, Note_on_c, 2, 55, 86
4, 3072, Note_on_c, 2, 60, 86
4, 3072, Note_on_c, 2, 64, 86
4, 3166, Note_off_c, 2, 60, 64
4, 3168, Note_on_c, 2, 59, 65
4, 3262, Note_off_c, 2, 55, 64
4, 3262, Note_off_c, 2, 64, 64
4, 3262, Note_off_c, 2, 59, 64
4, 3264, Note_on_c, 2, 55, 86
4, 3264, Note_on_c, 2, 60, 86
4, 3264, Note_on_c, 2, 64, 86
4, 3358, Note_off_c, 2, 60, 64
4, 3360, Note_on_c, 2, 59, 65
4, 3454, Note_off_c, 2, 55, 64
4, 3454, Note_off_c, 2, 64, 64
4, 3454, Note_off_c, 2, 59, 64
4, 3456, Note_on_c, 2, 55, 86
4, 3456, Note_on_c, 2, 60, 86
4, 3456, Note_on_c, 2, 64, 86
4, 3550, Note_off_c, 2, 60, 64
4, 3552, Note_on_c, 2, 59, 64
4, 3646, Note_off_c, 2, 55, 64
4, 3646, Note_off_c, 2, 64, 64
4, 3646, Note_off_c, 2, 59, 64
4, 3648, Note_on_c, 2, 55, 86
4, 3648, Note_on_c, 2, 60, 86
4, 3648, Note_on_c, 2, 64, 86
4, 3742, Note_off_c, 2, 64, 64
4, 3742, Note_off_c, 2, 60, 64
4, 3742, Note_off_c, 2, 55, 64
4, 3840, Note_on_c, 2, 59, 79
4, 3840, Note_on_c, 2, 62, 79
4, 3840, Note_on_c, 2, 67, 79
4, 4030, Note_off_c, 2, 67, 64
4, 4030, Note_off_c, 2, 62, 64
4, 4030, Note_off_c, 2, 59, 64
4, 4032, Note_on_c, 2, 67, 67
4, 4032, Note_on_c, 2, 59, 67
4, 4032, Note_on_c, 2, 62, 67
4, 4126, Note_off_c, 2, 62, 64
4, 4126, Note_off_c, 2, 59, 64
4, 4126, Note_off_c, 2, 67, 64
4, 4224, Note_on_c, 2, 59, 79
4, 4224, Note_on_c, 2, 62, 79
4, 4224, Note_on_c, 2, 66, 79
4, 4414, Note_off_c, 2, 66, 64
4, 4414, Note_off_c, 2, 62, 64
4, 4414, Note_off_c, 2, 59, 64
4, 4416, Note_on_c, 2, 59, 67
4, 4416, Note_on_c, 2, 62, 67
4, 4416, Note_on_c, 2, 66, 67
4, 4510, Note_off_c, 2, 66, 64
4, 4510, Note_off_c, 2, 62, 64
4, 4510, Note_off_c, 2, 59, 64
4, 4608, Note_on_c, 2, 55, 79
4, 4608, Note_on_c, 2, 64, 79
4, 4608, Note_on_c, 2, 59, 79
4, 4798, Note_off_c, 2, 59, 64
4, 4798, Note_off_c, 2, 64, 64
4, 4798, Note_off_c, 2, 55, 64
4, 4800, Note_on_c, 2, 55, 67
4, 4800, Note_on_c, 2, 64, 67
4, 4800, Note_on_c, 2, 59, 67
4, 4894, Note_off_c, 2, 59, 64
4, 4894, Note_off_c, 2, 64, 64
4, 4894, Note_off_c, 2, 55, 64
4, 4992, Note_on_c, 2, 59, 67
4, 4992, Note_on_c, 2, 62, 79
4, 4992, Note_on_c, 2, 55, 79
4, 4992, Note_on_c, 2, 64, 79
4, 5182, Note_off_c, 2, 64, 64
4, 5182, Note_off_c, 2, 55, 64
4, 5182, Note_off_c, 2, 62, 64
4, 5182, Note_off_c, 2, 59, 64
4, 5184, Note_on_c, 2, 59, 67
4, 5184, Note_on_c, 2, 62, 67
4, 5184, Note_on_c, 2, 55, 67
4, 5184, Note_on_c, 2, 64, 67
4, 5278, Note_off_c, 2, 64, 64
4, 5278, Note_off_c, 2, 55, 64
4, 5278, Note_off_c, 2, 62, 64
4, 5278, Note_off_c, 2, 59, 64
4, 5376, Note_on_c, 2, 64, 79
4, 5376, Note_on_c, 2, 60, 79
4, 5376, Note_on_c, 2, 55, 79
4, 5566, Note_off_c, 2, 55, 64
4, 5566, Note_off_c, 2, 60, 64
4, 5566, Note_off_c, 2, 64, 64
4, 5568, Note_on_c, 2, 64, 67
4, 5568, Note_on_c, 2, 60, 67
4, 5568, Note_on_c, 2, 55, 67
4, 5662, Note_off_c, 2, 55, 64
4, 5662, Note_off_c, 2, 60, 64
4, 5662, Note_off_c, 2, 64, 64
4, 5760, Note_on_c, 2, 64, 79
4, 5760, Note_on_c, 2, 59, 79
4, 5760, Note_on_c, 2, 55, 79
4, 5950, Note_off_c, 2, 55, 64
4, 5950, Note_off_c, 2, 59, 64
4, 5950, Note_off_c, 2, 64, 64
4, 5952, Note_on_c, 2, 64, 67
4, 5952, Note_on_c, 2, 59, 67
4, 5952, Note_on_c, 2, 55, 67
4, 6046, Note_off_c, 2, 55, 64
4, 6046, Note_off_c, 2, 59, 64
4, 6046, Note_off_c, 2, 64, 64
4, 6144, Note_on_c, 2, 60, 79
4, 6144, Note_on_c, 2, 57, 79
4, 6144, Note_on_c, 2, 64, 79
4, 6334, Note_off_c, 2, 64, 64
4, 6334, Note_off_c, 2, 57, 64
4, 6334, Note_off_c, 2, 60, 64
4, 6336, Note_on_c, 2, 60, 67
4, 6336, Note_on_c, 2, 57, 67
4, 6336, Note_on_c, 2, 64, 67
4, 6430, Note_off_c, 2, 64, 64
4, 6430, Note_off_c, 2, 57, 64
4, 6430, Note_off_c, 2, 60, 64
4, 6528, Note_on_c, 2, 60, 79
4, 6528, Note_on_c, 2, 64, 79
4, 6528, Note_on_c, 2, 55, 79
4, 6718, Note_off_c, 2, 55, 64
4, 6718, Note_off_c, 2, 64, 64
4, 6718, Note_off_c, 2, 60, 64
4, 6720, Note_on_c, 2, 60, 67
4, 6720, Note_on_c, 2, 64, 67
4, 6720, Note_on_c, 2, 55, 67
4, 6814, Note_off_c, 2, 55, 64
4, 6814, Note_off_c, 2, 64, 64
4, 6814, Note_off_c, 2, 60, 64
4, 6912, Note_on_c, 2, 67, 79
4, 6912, Note_on_c, 2, 59, 79
4, 6912, Note_on_c, 2, 62, 79
4, 7102, Note_off_c, 2, 62, 64
4, 7102, Note_off_c, 2, 59, 64
4, 7102, Note_off_c, 2, 67, 64
4, 7104, Note_on_c, 2, 67, 67
4, 7104, Note_on_c, 2, 59, 67
4, 7104, Note_on_c, 2, 62, 67
4, 7198, Note_off_c, 2, 62, 64
4, 7198, Note_off_c, 2, 59, 64
4, 7198, Note_off_c, 2, 67, 64
4, 7296, Note_on_c, 2, 66, 79
4, 7296, Note_on_c, 2, 59, 79
4, 7296, Note_on_c, 2, 62, 79
4, 7486, Note_off_c, 2, 62, 64
4, 7486, Note_off_c, 2, 59, 64
4, 7486, Note_off_c, 2, 66, 64
4, 7488, Note_on_c, 2, 66, 67
4, 7488, Note_on_c, 2, 59, 67
4, 7488, Note_on_c, 2, 62, 67
4, 7582, Note_off_c, 2, 62, 64
4, 7582, Note_off_c, 2, 59, 64
4, 7582, Note_off_c, 2, 66, 64
4, 7680, Note_on_c, 2, 55, 79
4, 7680, Note_on_c, 2, 64, 79
4, 7680, Note_on_c, 2, 59, 79
4, 7870, Note_off_c, 2, 59, 64
4, 7870, Note_off_c, 2, 64, 64
4, 7870, Note_off_c, 2, 55, 64
4, 7872, Note_on_c, 2, 55, 67
4, 7872, Note_on_c, 2, 64, 67
4, 7872, Note_on_c, 2, 59, 67
4, 7966, Note_off_c, 2, 59, 64
4, 7966, Note_off_c, 2, 64, 64
4, 7966, Note_off_c, 2, 55, 64
4, 8064, Note_on_c, 2, 59, 67
4, 8064, Note_on_c, 2, 62, 79
4, 8064, Note_on_c, 2, 55, 79
4, 8064, Note_on_c, 2, 64, 79
4, 8254, Note_off_c, 2, 64, 64
4, 8254, Note_off_c, 2, 55, 64
4, 8254, Note_off_c, 2, 62, 64
4, 8254, Note_off_c, 2, 59, 64
4, 8256, Note_on_c, 2, 59, 67
4, 8256, Note_on_c, 2, 62, 67
4, 8256, Note_on_c, 2, 55, 67
4, 8256, Note_on_c, 2, 64, 67
4, 8350, Note_off_c, 2, 64, 64
4, 8350, Note_off_c, 2, 55, 64
4, 8350, Note_off_c, 2, 62, 64
4, 8350, Note_off_c, 2, 59, 64
4, 8448, Note_on_c, 2, 55, 79
4, 8448, Note_on_c, 2, 64, 79
4, 8448, Note_on_c, 2, 60, 79
4, 8638, Note_off_c, 2, 60, 64
4, 8638, Note_off_c, 2, 64, 64
4, 8638, Note_off_c, 2, 55, 64
4, 8640, Note_on_c, 2, 55, 67
4, 8640, Note_on_c, 2, 64, 67
4, 8640, Note_on_c, 2, 60, 67
4, 8734, Note_off_c, 2, 60, 64
4, 8734, Note_off_c, 2, 64, 64
4, 8734, Note_off_c, 2, 55, 64
4, 8832, Note_on_c, 2, 57, 79
4, 8832, Note_on_c, 2, 65, 79
4, 8832, Note_on_c, 2, 60, 79
4, 9022, Note_off_c, 2, 60, 64
4, 9022, Note_off_c, 2, 65, 64
4, 9022, Note_off_c, 2, 57, 64
4, 9024, Note_on_c, 2, 57, 67
4, 9024, Note_on_c, 2, 65, 67
4, 9024, Note_on_c, 2, 60, 67
4, 9118, Note_off_c, 2, 60, 64
4, 9118, Note_off_c, 2, 65, 64
4, 9118, Note_off_c, 2, 57, 64
4, 9216, Note_on_c, 2, 64, 79
4, 9216, Note_on_c, 2, 59, 79
4, 9216, Note_on_c, 2, 55, 79
4, 9406, Note_off_c, 2, 55, 64
4, 9406, Note_off_c, 2, 59, 64
4, 9406, Note_off_c, 2, 64, 64
4, 9408, Note_on_c, 2, 55, 67
4, 9408, Note_on_c, 2, 64, 67
4, 9408, Note_on_c, 2, 59, 67
4, 9502, Note_off_c, 2, 59, 64
4, 9502, Note_off_c, 2, 64, 64
4, 9502, Note_off_c, 2, 55, 64
4, 9600, Note_on_c, 2, 59, 67
4, 9600, Note_on_c, 2, 62, 79
4, 9600, Note_on_c, 2, 55, 79
4, 9600, Note_on_c, 2, 64, 79
4, 9790, Note_off_c, 2, 64, 64
4, 9790, Note_off_c, 2, 55, 64
4, 9790, Note_off_c, 2, 62, 64
4, 9790, Note_off_c, 2, 59, 64
4, 9792, Note_on_c, 2, 59, 67
4, 9792, Note_on_c, 2, 62, 67
4, 9792, Note_on_c, 2, 55, 67
4, 9792, Note_on_c, 2, 64, 67
4, 9886, Note_off_c, 2, 64, 64
4, 9886, Note_off_c, 2, 55, 64
4, 9886, Note_off_c, 2, 62, 64
4, 9886, Note_off_c, 2, 59, 64
4, 9984, Note_on_c, 2, 55, 79
4, 9984, Note_on_c, 2, 64, 79
4, 9984, Note_on_c, 2, 60, 79
4, 10174, Note_off_c, 2, 60, 64
4, 10174, Note_off_c, 2, 64, 64
4, 10174, Note_off_c, 2, 55, 64
4, 10176, Note_on_c, 2, 55, 67
4, 10176, Note_on_c, 2, 64, 67
4, 10176, Note_on_c, 2, 60, 67
4, 10270, Note_off_c, 2, 60, 64
4, 10270, Note_off_c, 2, 64, 64
4, 10270, Note_off_c, 2, 55, 64
4, 10368, Note_on_c, 2, 57, 79
4, 10368, Note_on_c, 2, 65, 79
4, 10368, Note_on_c, 2, 60, 79
4, 10558, Note_off_c, 2, 60, 64
4, 10558, Note_off_c, 2, 65, 64
4, 10558, Note_off_c, 2, 57, 64
4, 10560, Note_on_c, 2, 57, 67
4, 10560, Note_on_c, 2, 65, 67
4, 10560, Note_on_c, 2, 60, 67
4, 10654, Note_off_c, 2, 60, 64
4, 10654, Note_off_c, 2, 65, 64
4, 10654, Note_off_c, 2, 57, 64
4, 10752, Note_on_c, 2, 64, 79
4, 10752, Note_on_c, 2, 59, 79
4, 10752, Note_on_c, 2, 55, 79
4, 10942, Note_off_c, 2, 55, 64
4, 10942, Note_off_c, 2, 59, 64
4, 10942, Note_off_c, 2, 64, 64
4, 10944, Note_on_c, 2, 55, 67
4, 10944, Note_on_c, 2, 64, 67
4, 10944, Note_on_c, 2, 59, 67
4, 11038, Note_off_c, 2, 59, 64
4, 11038, Note_off_c, 2, 64, 64
4, 11038, Note_off_c, 2, 55, 64
4, 11136, Note_on_c, 2, 60, 67
4, 11136, Note_on_c, 2, 55, 79
4, 11136, Note_on_c, 2, 64, 79
4, 11326, Note_off_c, 2, 64, 64
4, 11326, Note_off_c, 2, 55, 64
4, 11326, Note_off_c, 2, 60, 64
4, 11328, Note_on_c, 2, 60, 67
4, 11328, Note_on_c, 2, 55, 67
4, 11328, Note_on_c, 2, 64, 67
4, 11422, Note_off_c, 2, 64, 64
4, 11422, Note_off_c, 2, 55, 64
4, 11422, Note_off_c, 2, 60, 64
4, 11520, Note_on_c, 2, 67, 79
4, 11520, Note_on_c, 2, 59, 79
4, 11520, Note_on_c, 2, 62, 79
4, 11710, Note_off_c, 2, 62, 64
4, 11710, Note_off_c, 2, 59, 64
4, 11710, Note_off_c, 2, 67, 64
4, 11712, Note_on_c, 2, 67, 67
4, 11712, Note_on_c, 2, 59, 67
4, 11712, Note_on_c, 2, 62, 67
4, 11806, Note_off_c, 2, 62, 64
4, 11806, Note_off_c, 2, 59, 64
4, 11806, Note_off_c, 2, 67, 64
4, 11904, Note_on_c, 2, 66, 79
4, 11904, Note_on_c, 2, 59, 79
4, 11904, Note_on_c, 2, 62, 79
4, 12094, Note_off_c, 2, 62, 64
4, 12094, Note_off_c, 2, 59, 64
4, 12094, Note_off_c, 2, 66, 64
4, 12096, Note_on_c, 2, 66, 67
4, 12096, Note_on_c, 2, 59, 67
4, 12096, Note_on_c, 2, 62, 67
4, 12190, Note_off_c, 2, 62, 64
4, 12190, Note_off_c, 2, 59, 64
4, 12190, Note_off_c, 2, 66, 64
4, 12288, Note_on_c, 2, 55, 79
4, 12288, Note_on_c, 2, 64, 79
4, 12288, Note_on_c, 2, 59, 79
4, 12478, Note_off_c, 2, 59, 64
4, 12478, Note_off_c, 2, 64, 64
4, 12478, Note_off_c, 2, 55, 64
4, 12480, Note_on_c, 2, 55, 67
4, 12480, Note_on_c, 2, 64, 67
4, 12480, Note_on_c, 2, 59, 67
4, 12574, Note_off_c, 2, 59, 64
4, 12574, Note_off_c, 2, 64, 64
4, 12574, Note_off_c, 2, 55, 64
4, 12672, Note_on_c, 2, 59, 67
4, 12672, Note_on_c, 2, 62, 79
4, 12672, Note_on_c, 2, 55, 79
4, 12672, Note_on_c, 2, 64, 79
4, 12862, Note_off_c, 2, 64, 64
4, 12862, Note_off_c, 2, 55, 64
4, 12862, Note_off_c, 2, 62, 64
4, 12862, Note_off_c, 2, 59, 64
4, 12864, Note_on_c, 2, 59, 67
4, 12864, Note_on_c, 2, 62, 67
4, 12864, Note_on_c, 2, 55, 67
4, 12864, Note_on_c, 2, 64, 67
4, 12958, Note_off_c, 2, 64, 64
4, 12958, Note_off_c, 2, 55, 64
4, 12958, Note_off_c, 2, 62, 64
4, 12958, Note_off_c, 2, 59, 64
4, 13056, Note_on_c, 2, 64, 79
4, 13056, Note_on_c, 2, 60, 79
4, 13056, Note_on_c, 2, 55, 79
4, 13246, Note_off_c, 2, 55, 64
4, 13246, Note_off_c, 2, 60, 64
4, 13246, Note_off_c, 2, 64, 64
4, 13248, Note_on_c, 2, 64, 67
4, 13248, Note_on_c, 2, 60, 67
4, 13248, Note_on_c, 2, 55, 67
4, 13342, Note_off_c, 2, 55, 64
4, 13342, Note_off_c, 2, 60, 64
4, 13342, Note_off_c, 2, 64, 64
4, 13440, Note_on_c, 2, 64, 79
4, 13440, Note_on_c, 2, 59, 79
4, 13440, Note_on_c, 2, 55, 79
4, 13630, Note_off_c, 2, 55, 64
4, 13630, Note_off_c, 2, 59, 64
4, 13630, Note_off_c, 2, 64, 64
4, 13632, Note_on_c, 2, 64, 67
4, 13632, Note_on_c, 2, 59, 67
4, 13632, Note_on_c, 2, 55, 67
4, 13726, Note_off_c, 2, 55, 64
4, 13726, Note_off_c, 2, 59, 64
4, 13726, Note_off_c, 2, 64, 64
4, 13824, Note_on_c, 2, 60, 79
4, 13824, Note_on_c, 2, 57, 79
4, 13824, Note_on_c, 2, 64, 79
4, 14014, Note_off_c, 2, 64, 64
4, 14014, Note_off_c, 2, 57, 64
4, 14014, Note_off_c, 2, 60, 64
4, 14016, Note_on_c, 2, 60, 67
4, 14016, Note_on_c, 2, 57, 67
4, 14016, Note_on_c, 2, 64, 67
4, 14110, Note_off_c, 2, 64, 64
4, 14110, Note_off_c, 2, 57, 64
4, 14110, Note_off_c, 2, 60, 64
4, 14208, Note_on_c, 2, 60, 79
4, 14208, Note_on_c, 2, 64, 79
4, 14208, Note_on_c, 2, 55, 79
4, 14398, Note_off_c, 2, 55, 64
4, 14398, Note_off_c, 2, 64, 64
4, 14398, Note_off_c, 2, 60, 64
4, 14400, Note_on_c, 2, 60, 67
4, 14400, Note_on_c, 2, 64, 67
4, 14400, Note_on_c, 2, 55, 67
4, 14494, Note_off_c, 2, 55, 64
4, 14494, Note_off_c, 2, 64, 64
4, 14494, Note_off_c, 2, 60, 64
4, 14592, Note_on_c, 2, 67, 79
4, 14592, Note_on_c, 2, 59, 79
4, 14592, Note_on_c, 2, 62, 79
4, 14782, Note_off_c, 2, 62, 64
4, 14782, Note_off_c, 2, 59, 64
4, 14782, Note_off_c, 2, 67, 64
4, 14784, Note_on_c, 2, 67, 67
4, 14784, Note_on_c, 2, 59, 67
4, 14784, Note_on_c, 2, 62, 67
4, 14878, Note_off_c, 2, 62, 64
4, 14878, Note_off_c, 2, 59, 64
4, 14878, Note_off_c, 2, 67, 64
4, 14976, Note_on_c, 2, 66, 79
4, 14976, Note_on_c, 2, 59, 79
4, 14976, Note_on_c, 2, 62, 79
4, 15166, Note_off_c, 2, 62, 64
4, 15166, Note_off_c, 2, 59, 64
4, 15166, Note_off_c, 2, 66, 64
4, 15168, Note_on_c, 2, 66, 67
4, 15168, Note_on_c, 2, 59, 67
4, 15168, Note_on_c, 2, 62, 67
4, 15262, Note_off_c, 2, 62, 64
4, 15262, Note_off_c, 2, 59, 64
4, 15262, Note_off_c, 2, 66, 64
4, 15360, Note_on_c, 2, 55, 79
4, 15360, Note_on_c, 2, 64, 79
4, 15360, Note_on_c, 2, 59, 79
4, 15550, Note_off_c, 2, 59, 64
4, 15550, Note_off_c, 2, 64, 64
4, 15550, Note_off_c, 2, 55, 64
4, 15552, Note_on_c, 2, 55, 67
4, 15552, Note_on_c, 2, 64, 67
4, 15552, Note_on_c, 2, 59, 67
4, 15646, Note_off_c, 2, 59, 64
4, 15646, Note_off_c, 2, 64, 64
4, 15646, Note_off_c, 2, 55, 64
4, 15744, Note_on_c, 2, 59, 67
4, 15744, Note_on_c, 2, 62, 79
4, 15744, Note_on_c, 2, 55, 79
4, 15744, Note_on_c, 2, 64, 79
4, 15934, Note_off_c, 2, 64, 64
4, 15934, Note_off_c, 2, 55, 64
4, 15934, Note_off_c, 2, 62, 64
4, 15934, Note_off_c, 2, 59, 64
4, 15936, Note_on_c, 2, 59, 67
4, 15936, Note_on_c, 2, 62, 67
4, 15936, Note_on_c, 2, 55, 67
4, 15936, Note_on_c, 2, 64, 67
4, 16030, Note_off_c, 2, 64, 64
4, 16030, Note_off_c, 2, 55, 64
4, 16030, Note_off_c, 2, 62, 64
4, 16030, Note_off_c, 2, 59, 64
4, 16128, Note_on_c, 2, 55, 79
4, 16128, Note_on_c, 2, 64, 79
4, 16128, Note_on_c, 2, 60, 79
4, 16318, Note_off_c, 2, 60, 64
4, 16318, Note_off_c, 2, 64, 64
4, 16318, Note_off_c, 2, 55, 64
4, 16320, Note_on_c, 2, 55, 67
4, 16320, Note_on_c, 2, 64, 67
4, 16320, Note_on_c, 2, 60, 67
4, 16414, Note_off_c, 2, 60, 64
4, 16414, Note_off_c, 2, 64, 64
4, 16414, Note_off_c, 2, 55, 64
4, 16512, Note_on_c, 2, 57, 79
4, 16512, Note_on_c, 2, 65, 79
4, 16512, Note_on_c, 2, 60, 79
4, 16702, Note_off_c, 2, 60, 64
4, 16702, Note_off_c, 2, 65, 64
4, 16702, Note_off_c, 2, 57, 64
4, 16704, Note_on_c, 2, 57, 67
4, 16704, Note_on_c, 2, 65, 67
4, 16704, Note_on_c, 2, 60, 67
4, 16798, Note_off_c, 2, 60, 64
4, 16798, Note_off_c, 2, 65, 64
4, 16798, Note_off_c, 2, 57, 64
4, 16896, Note_on_c, 2, 64, 79
4, 16896, Note_on_c, 2, 59, 79
4, 16896, Note_on_c, 2, 55, 79
4, 17086, Note_off_c, 2, 55, 64
4, 17086, Note_off_c, 2, 59, 64
4, 17086, Note_off_c, 2, 64, 64
4, 17088, Note_on_c, 2, 55, 67
4, 17088, Note_on_c, 2, 64, 67
4, 17088, Note_on_c, 2, 59, 67
4, 17182, Note_off_c, 2, 59, 64
4, 17182, Note_off_c, 2, 64, 64
4, 17182, Note_off_c, 2, 55, 64
4, 17280, Note_on_c, 2, 59, 67
4, 17280, Note_on_c, 2, 62, 79
4, 17280, Note_on_c, 2, 55, 79
4, 17470, Note_off_c, 2, 55, 64
4, 17470, Note_off_c, 2, 62, 64
4, 17470, Note_off_c, 2, 59, 64
4, 17472, Note_on_c, 2, 59, 67
4, 17472, Note_on_c, 2, 62, 67
4, 17472, Note_on_c, 2, 55, 67
4, 17566, Note_off_c, 2, 55, 64
4, 17566, Note_off_c, 2, 62, 64
4, 17566, Note_off_c, 2, 59, 64
4, 17664, Note_on_c, 2, 55, 70
4, 17664, Note_on_c, 2, 60, 70
4, 17664, Note_on_c, 2, 64, 70
4, 17854, Note_off_c, 2, 64, 64
4, 17854, Note_off_c, 2, 60, 64
4, 17854, Note_off_c, 2, 55, 64
4, 17856, Note_on_c, 2, 55, 71
4, 17856, Note_on_c, 2, 60, 71
4, 17856, Note_on_c, 2, 64, 71
4, 18142, Note_off_c, 2, 64, 64
4, 18142, Note_off_c, 2, 60, 64
4, 18142, Note_off_c, 2, 55, 64
4, 18240, Note_on_c, 2, 55, 76
4, 18240, Note_on_c, 2, 60, 76
4, 18240, Note_on_c, 2, 64, 76
4, 18302, Note_off_c, 2, 64, 64
4, 18302, Note_off_c, 2, 60, 64
4, 18302, Note_off_c, 2, 55, 64
4, 18432, Note_on_c, 2, 67, 79
4, 18432, Note_on_c, 2, 59, 79
4, 18432, Note_on_c, 2, 62, 79
4, 18622, Note_off_c, 2, 62, 64
4, 18622, Note_off_c, 2, 59, 64
4, 18622, Note_off_c, 2, 67, 64
4, 18624, Note_on_c, 2, 67, 67
4, 18624, Note_on_c, 2, 59, 67
4, 18624, Note_on_c, 2, 62, 67
4, 18718, Note_off_c, 2, 62, 64
4, 18718, Note_off_c, 2, 59, 64
4, 18718, Note_off_c, 2, 67, 64
4, 18816, Note_on_c, 2, 66, 79
4, 18816, Note_on_c, 2, 59, 79
4, 18816, Note_on_c, 2, 62, 79
4, 19006, Note_off_c, 2, 62, 64
4, 19006, Note_off_c, 2, 59, 64
4, 19006, Note_off_c, 2, 66, 64
4, 19008, Note_on_c, 2, 66, 67
4, 19008, Note_on_c, 2, 59, 67
4, 19008, Note_on_c, 2, 62, 67
4, 19102, Note_off_c, 2, 62, 64
4, 19102, Note_off_c, 2, 59, 64
4, 19102, Note_off_c, 2, 66, 64
4, 19200, Note_on_c, 2, 55, 79
4, 19200, Note_on_c, 2, 64, 79
4, 19200, Note_on_c, 2, 59, 79
4, 19390, Note_off_c, 2, 59, 64
4, 19390, Note_off_c, 2, 64, 64
4, 19390, Note_off_c, 2, 55, 64
4, 19392, Note_on_c, 2, 55, 67
4, 19392, Note_on_c, 2, 64, 67
4, 19392, Note_on_c, 2, 59, 67
4, 19486, Note_off_c, 2, 59, 64
4, 19486, Note_off_c, 2, 64, 64
4, 19486, Note_off_c, 2, 55, 64
4, 19584, Note_on_c, 2, 59, 67
4, 19584, Note_on_c, 2, 62, 79
4, 19584, Note_on_c, 2, 55, 79
4, 19584, Note_on_c, 2, 64, 79
4, 19774, Note_off_c, 2, 64, 64
4, 19774, Note_off_c, 2, 55, 64
4, 19774, Note_off_c, 2, 62, 64
4, 19774, Note_off_c, 2, 59, 64
4, 19776, Note_on_c, 2, 59, 67
4, 19776, Note_on_c, 2, 62, 67
4, 19776, Note_on_c, 2, 55, 67
4, 19776, Note_on_c, 2, 64, 67
4, 19870, Note_off_c, 2, 64, 64
4, 19870, Note_off_c, 2, 55, 64
4, 19870, Note_off_c, 2, 62, 64
4, 19870, Note_off_c, 2, 59, 64
4, 19968, Note_on_c, 2, 64, 79
4, 19968, Note_on_c, 2, 60, 79
4, 19968, Note_on_c, 2, 55, 79
4, 20158, Note_off_c, 2, 55, 64
4, 20158, Note_off_c, 2, 60, 64
4, 20158, Note_off_c, 2, 64, 64
4, 20160, Note_on_c, 2, 64, 67
4, 20160, Note_on_c, 2, 60, 67
4, 20160, Note_on_c, 2, 55, 67
4, 20254, Note_off_c, 2, 55, 64
4, 20254, Note_off_c, 2, 60, 64
4, 20254, Note_off_c, 2, 64, 64
4, 20352, Note_on_c, 2, 64, 79
4, 20352, Note_on_c, 2, 59, 79
4, 20352, Note_on_c, 2, 55, 79
4, 20542, Note_off_c, 2, 55, 64
4, 20542, Note_off_c, 2, 59, 64
4, 20542, Note_off_c, 2, 64, 64
4, 20544, Note_on_c, 2, 64, 67
4, 20544, Note_on_c, 2, 59, 67
4, 20544, Note_on_c, 2, 55, 67
4, 20638, Note_off_c, 2, 55, 64
4, 20638, Note_off_c, 2, 59, 64
4, 20638, Note_off_c, 2, 64, 64
4, 20736, Note_on_c, 2, 60, 79
4, 20736, Note_on_c, 2, 57, 79
4, 20736, Note_on_c, 2, 64, 79
4, 20926, Note_off_c, 2, 64, 64
4, 20926, Note_off_c, 2, 57, 64
4, 20926, Note_off_c, 2, 60, 64
4, 20928, Note_on_c, 2, 60, 67
4, 20928, Note_on_c, 2, 57, 67
4, 20928, Note_on_c, 2, 64, 67
4, 21022, Note_off_c, 2, 64, 64
4, 21022, Note_off_c, 2, 57, 64
4, 21022, Note_off_c, 2, 60, 64
4, 21120, Note_on_c, 2, 60, 79
4, 21120, Note_on_c, 2, 64, 79
4, 21120, Note_on_c, 2, 55, 79
4, 21310, Note_off_c, 2, 55, 64
4, 21310, Note_off_c, 2, 64, 64
4, 21310, Note_off_c, 2, 60, 64
4, 21312, Note_on_c, 2, 60, 67
4, 21312, Note_on_c, 2, 64, 67
4, 21312, Note_on_c, 2, 55, 67
4, 21406, Note_off_c, 2, 55, 64
4, 21406, Note_off_c, 2, 64, 64
4, 21406, Note_off_c, 2, 60, 64
4, 21504, Note_on_c, 2, 67, 79
4, 21504, Note_on_c, 2, 59, 79
4, 21504, Note_on_c, 2, 62, 79
4, 21694, Note_off_c, 2, 62, 64
4, 21694, Note_off_c, 2, 59, 64
4, 21694, Note_off_c, 2, 67, 64
4, 21696, Note_on_c, 2, 67, 67
4, 21696, Note_on_c, 2, 59, 67
4, 21696, Note_on_c, 2, 62, 67
4, 21790, Note_off_c, 2, 62, 64
4, 21790, Note_off_c, 2, 59, 64
4, 21790, Note_off_c, 2, 67, 64
4, 21888, Note_on_c, 2, 66, 79
4, 21888, Note_on_c, 2, 59, 79
4, 21888, Note_on_c, 2, 62, 79
4, 22078, Note_off_c, 2, 62, 64
4, 22078, Note_off_c, 2, 59, 64
4, 22078, Note_off_c, 2, 66, 64
4, 22080, Note_on_c, 2, 66, 67
4, 22080, Note_on_c, 2, 59, 67
4, 22080, Note_on_c, 2, 62, 67
4, 22174, Note_off_c, 2, 62, 64
4, 22174, Note_off_c, 2, 59, 64
4, 22174, Note_off_c, 2, 66, 64
4, 22272, Note_on_c, 2, 55, 79
4, 22272, Note_on_c, 2, 64, 79
4, 22272, Note_on_c, 2, 59, 79
4, 22462, Note_off_c, 2, 59, 64
4, 22462, Note_off_c, 2, 64, 64
4, 22462, Note_off_c, 2, 55, 64
4, 22464, Note_on_c, 2, 55, 67
4, 22464, Note_on_c, 2, 64, 67
4, 22464, Note_on_c, 2, 59, 67
4, 22558, Note_off_c, 2, 59, 64
4, 22558, Note_off_c, 2, 64, 64
4, 22558, Note_off_c, 2, 55, 64
4, 22656, Note_on_c, 2, 59, 67
4, 22656, Note_on_c, 2, 62, 79
4, 22656, Note_on_c, 2, 55, 79
4, 22656, Note_on_c, 2, 64, 79
4, 22846, Note_off_c, 2, 64, 64
4, 22846, Note_off_c, 2, 55, 64
4, 22846, Note_off_c, 2, 62, 64
4, 22846, Note_off_c, 2, 59, 64
4, 22848, Note_on_c, 2, 59, 67
4, 22848, Note_on_c, 2, 62, 67
4, 22848, Note_on_c, 2, 55, 67
4, 22848, Note_on_c, 2, 64, 67
4, 22942, Note_off_c, 2, 64, 64
4, 22942, Note_off_c, 2, 55, 64
4, 22942, Note_off_c, 2, 62, 64
4, 22942, Note_off_c, 2, 59, 64
4, 23040, Note_on_c, 2, 55, 79
4, 23040, Note_on_c, 2, 64, 79
4, 23040, Note_on_c, 2, 60, 79
4, 23230, Note_off_c, 2, 60, 64
4, 23230, Note_off_c, 2, 64, 64
4, 23230, Note_off_c, 2, 55, 64
4, 23232, Note_on_c, 2, 55, 67
4, 23232, Note_on_c, 2, 64, 67
4, 23232, Note_on_c, 2, 60, 67
4, 23326, Note_off_c, 2, 60, 64
4, 23326, Note_off_c, 2, 64, 64
4, 23326, Note_off_c, 2, 55, 64
4, 23424, Note_on_c, 2, 57, 79
4, 23424, Note_on_c, 2, 65, 79
4, 23424, Note_on_c, 2, 60, 79
4, 23614, Note_off_c, 2, 60, 64
4, 23614, Note_off_c, 2, 65, 64
4, 23614, Note_off_c, 2, 57, 64
4, 23616, Note_on_c, 2, 57, 67
4, 23616, Note_on_c, 2, 65, 67
4, 23616, Note_on_c, 2, 60, 67
4, 23710, Note_off_c, 2, 60, 64
4, 23710, Note_off_c, 2, 65, 64
4, 23710, Note_off_c, 2, 57, 64
4, 23808, Note_on_c, 2, 64, 79
4, 23808, Note_on_c, 2, 59, 79
4, 23808, Note_on_c, 2, 55, 79
4, 23998, Note_off_c, 2, 55, 64
4, 23998, Note_off_c, 2, 59, 64
4, 23998, Note_off_c, 2, 64, 64
4, 24000, Note_on_c, 2, 55, 67
4, 24000, Note_on_c, 2, 64, 67
4, 24000, Note_on_c, 2, 59, 67
4, 24094, Note_off_c, 2, 59, 64
4, 24094, Note_off_c, 2, 64, 64
4, 24094, Note_off_c, 2, 55, 64
4, 24192, Note_on_c, 2, 59, 67
4, 24192, Note_on_c, 2, 62, 79
4, 24192, Note_on_c, 2, 55, 79
4, 24382, Note_off_c, 2, 55, 64
4, 24382, Note_off_c, 2, 62, 64
4, 24382, Note_off_c, 2, 59, 64
4, 24384, Note_on_c, 2, 59, 67
4, 24384, Note_on_c, 2, 62, 67
4, 24384, Note_on_c, 2, 55, 67
4, 24478, Note_off_c, 2, 55, 64
4, 24478, Note_off_c, 2, 62, 64
4, 24478, Note_off_c, 2, 59, 64
4, 24576, Note_on_c, 2, 55, 70
4, 24576, Note_on_c, 2, 60, 70
4, 24576, Note_on_c, 2, 64, 70
4, 24766, Note_off_c, 2, 64, 64
4, 24766, Note_off_c, 2, 60, 64
4, 24766, Note_off_c, 2, 55, 64
4, 24768, Note_on_c, 2, 55, 71
4, 24768, Note_on_c, 2, 60, 71
4, 24768, Note_on_c, 2, 64, 71
4, 25054, Note_off_c, 2, 64, 64
4, 25054, Note_off_c, 2, 60, 64
4, 25054, Note_off_c, 2, 55, 64
4, 25152, Note_on_c, 2, 55, 76
4, 25152, Note_on_c, 2, 60, 76
4, 25152, Note_on_c, 2, 64, 76
4, 25214, Note_off_c, 2, 64, 64
4, 25214, Note_off_c, 2, 60, 64
4, 25214, Note_off_c, 2, 55, 64
4, 50880, Note_on_c, 2, 67, 79
4, 50880, Note_on_c, 2, 59, 79
4, 50880, Note_on_c, 2, 62, 79
4, 51070, Note_off_c, 2, 62, 64
4, 51070, Note_off_c, 2, 59, 64
4, 51070, Note_off_c, 2, 67, 64
4, 51072, Note_on_c, 2, 67, 67
4, 51072, Note_on_c, 2, 59, 67
4, 51072, Note_on_c, 2, 62, 67
4, 51166, Note_off_c, 2, 62, 64
4, 51166, Note_off_c, 2, 59, 64
4, 51166, Note_off_c, 2, 67, 64
4, 51264, Note_on_c, 2, 66, 79
4, 51264, Note_on_c, 2, 59, 79
4, 51264, Note_on_c, 2, 62, 79
4, 51454, Note_off_c, 2, 62, 64
4, 51454, Note_off_c, 2, 59, 64
4, 51454, Note_off_c, 2, 66, 64
4, 51456, Note_on_c, 2, 66, 67
4, 51456, Note_on_c, 2, 59, 67
4, 51456, Note_on_c, 2, 62, 67
4, 51550, Note_off_c, 2, 62, 64
4, 51550, Note_off_c, 2, 59, 64
4, 51550, Note_off_c, 2, 66, 64
4, 51648, Note_on_c, 2, 55, 79
4, 51648, Note_on_c, 2, 64, 79
4, 51648, Note_on_c, 2, 59, 79
4, 51838, Note_off_c, 2, 59, 64
4, 51838, Note_off_c, 2, 64, 64
4, 51838, Note_off_c, 2, 55, 64
4, 51840, Note_on_c, 2, 55, 67
4, 51840, Note_on_c, 2, 64, 67
4, 51840, Note_on_c, 2, 59, 67
4, 51934, Note_off_c, 2, 59, 64
4, 51934, Note_off_c, 2, 64, 64
4, 51934, Note_off_c, 2, 55, 64
4, 52032, Note_on_c, 2, 59, 67
4, 52032, Note_on_c, 2, 62, 79
4, 52032, Note_on_c, 2, 55, 79
4, 52032, Note_on_c, 2, 64, 79
4, 52222, Note_off_c, 2, 64, 64
4, 52222, Note_off_c, 2, 55, 64
4, 52222, Note_off_c, 2, 62, 64
4, 52222, Note_off_c, 2, 59, 64
4, 52224, Note_on_c, 2, 59, 67
4, 52224, Note_on_c, 2, 62, 67
4, 52224, Note_on_c, 2, 55, 67
4, 52224, Note_on_c, 2, 64, 67
4, 52318, Note_off_c, 2, 64, 64
4, 52318, Note_off_c, 2, 55, 64
4, 52318, Note_off_c, 2, 62, 64
4, 52318, Note_off_c, 2, 59, 64
4, 52416, Note_on_c, 2, 64, 79
4, 52416, Note_on_c, 2, 60, 79
4, 52416, Note_on_c, 2, 55, 79
4, 52606, Note_off_c, 2, 55, 64
4, 52606, Note_off_c, 2, 60, 64
4, 52606, Note_off_c, 2, 64, 64
4, 52608, Note_on_c, 2, 64, 67
4, 52608, Note_on_c, 2, 60, 67
4, 52608, Note_on_c, 2, 55, 67
4, 52702, Note_off_c, 2, 55, 64
4, 52702, Note_off_c, 2, 60, 64
4, 52702, Note_off_c, 2, 64, 64
4, 52800, Note_on_c, 2, 64, 79
4, 52800, Note_on_c, 2, 59, 79
4, 52800, Note_on_c, 2, 55, 79
4, 52990, Note_off_c, 2, 55, 64
4, 52990, Note_off_c, 2, 59, 64
4, 52990, Note_off_c, 2, 64, 64
4, 52992, Note_on_c, 2, 64, 67
4, 52992, Note_on_c, 2, 59, 67
4, 52992, Note_on_c, 2, 55, 67
4, 53086, Note_off_c, 2, 55, 64
4, 53086, Note_off_c, 2, 59, 64
4, 53086, Note_off_c, 2, 64, 64
4, 53184, Note_on_c, 2, 60, 79
4, 53184, Note_on_c, 2, 57, 79
4, 53184, Note_on_c, 2, 64, 79
4, 53374, Note_off_c, 2, 64, 64
4, 53374, Note_off_c, 2, 57, 64
4, 53374, Note_off_c, 2, 60, 64
4, 53376, Note_on_c, 2, 60, 67
4, 53376, Note_on_c, 2, 57, 67
4, 53376, Note_on_c, 2, 64, 67
4, 53470, Note_off_c, 2, 64, 64
4, 53470, Note_off_c, 2, 57, 64
4, 53470, Note_off_c, 2, 60, 64
4, 53568, Note_on_c, 2, 60, 79
4, 53568, Note_on_c, 2, 64, 79
4, 53568, Note_on_c, 2, 55, 79
4, 53758, Note_off_c, 2, 55, 64
4, 53758, Note_off_c, 2, 64, 64
4, 53758, Note_off_c, 2, 60, 64
4, 53760, Note_on_c, 2, 60, 67
4, 53760, Note_on_c, 2, 64, 67
4, 53760, Note_on_c, 2, 55, 67
4, 53854, Note_off_c, 2, 55, 64
4, 53854, Note_off_c, 2, 64, 64
4, 53854, Note_off_c, 2, 60, 64
4, 53952, Note_on_c, 2, 67, 79
4, 53952, Note_on_c, 2, 59, 79
4, 53952, Note_on_c, 2, 62, 79
4, 54142, Note_off_c, 2, 62, 64
4, 54142, Note_off_c, 2, 59, 64
4, 54142, Note_off_c, 2, 67, 64
4, 54144, Note_on_c, 2, 67, 67
4, 54144, Note_on_c, 2, 59, 67
4, 54144, Note_on_c, 2, 62, 67
4, 54238, Note_off_c, 2, 62, 64
4, 54238, Note_off_c, 2, 59, 64
4, 54238, Note_off_c, 2, 67, 64
4, 54336, Note_on_c, 2, 66, 79
4, 54336, Note_on_c, 2, 59, 79
4, 54336, Note_on_c, 2, 62, 79
4, 54526, Note_off_c, 2, 62, 64
4, 54526, Note_off_c, 2, 59, 64
4, 54526, Note_off_c, 2, 66, 64
4, 54528, Note_on_c, 2, 66, 67
4, 54528, Note_on_c, 2, 59, 67
4, 54528, Note_on_c, 2, 62, 67
4, 54622, Note_off_c, 2, 62, 64
4, 54622, Note_off_c, 2, 59, 64
4, 54622, Note_off_c, 2, 66, 64
4, 54720, Note_on_c, 2, 55, 79
4, 54720, Note_on_c, 2, 64, 79
4, 54720, Note_on_c, 2, 59, 79
4, 54910, Note_off_c, 2, 59, 64
4, 54910, Note_off_c, 2, 64, 64
4, 54910, Note_off_c, 2, 55, 64
4, 54912, Note_on_c, 2, 55, 67
4, 54912, Note_on_c, 2, 64, 67
4, 54912, Note_on_c, 2, 59, 67
4, 55006, Note_off_c, 2, 59, 64
4, 55006, Note_off_c, 2, 64, 64
4, 55006, Note_off_c, 2, 55, 64
4, 55104, Note_on_c, 2, 59, 67
4, 55104, Note_on_c, 2, 62, 79
4, 55104, Note_on_c, 2, 55, 79
4, 55104, Note_on_c, 2, 64, 79
4, 55294, Note_off_c, 2, 64, 64
4, 55294, Note_off_c, 2, 55, 64
4, 55294, Note_off_c, 2, 62, 64
4, 55294, Note_off_c, 2, 59, 64
4, 55296, Note_on_c, 2, 59, 67
4, 55296, Note_on_c, 2, 62, 67
4, 55296, Note_on_c, 2, 55, 67
4, 55296, Note_on_c, 2, 64, 67
4, 55390, Note_off_c, 2, 64, 64
4, 55390, Note_off_c, 2, 55, 64
4, 55390, Note_off_c, 2, 62, 64
4, 55390, Note_off_c, 2, 59, 64
4, 55488, Note_on_c, 2, 55, 79
4, 55488, Note_on_c, 2, 64, 79
4, 55488, Note_on_c, 2, 60, 79
4, 55678, Note_off_c, 2, 60, 64
4, 55678, Note_off_c, 2, 64, 64
4, 55678, Note_off_c, 2, 55, 64
4, 55680, Note_on_c, 2, 55, 67
4, 55680, Note_on_c, 2, 64, 67
4, 55680, Note_on_c, 2, 60, 67
4, 55774, Note_off_c, 2, 60, 64
4, 55774, Note_off_c, 2, 64, 64
4, 55774, Note_off_c, 2, 55, 64
4, 55872, Note_on_c, 2, 57, 79
4, 55872, Note_on_c, 2, 65, 79
4, 55872, Note_on_c, 2, 60, 79
4, 56062, Note_off_c, 2, 60, 64
4, 56062, Note_off_c, 2, 65, 64
4, 56062, Note_off_c, 2, 57, 64
4, 56064, Note_on_c, 2, 57, 67
4, 56064, Note_on_c, 2, 65, 67
4, 56064, Note_on_c, 2, 60, 67
4, 56158, Note_off_c, 2, 60, 64
4, 56158, Note_off_c, 2, 65, 64
4, 56158, Note_off_c, 2, 57, 64
4, 56256, Note_on_c, 2, 64, 79
4, 56256, Note_on_c, 2, 59, 79
4, 56256, Note_on_c, 2, 55, 79
4, 56446, Note_off_c, 2, 55, 64
4, 56446, Note_off_c, 2, 59, 64
4, 56446, Note_off_c, 2, 64, 64
4, 56448, Note_on_c, 2, 55, 67
4, 56448, Note_on_c, 2, 64, 67
4, 56448, Note_on_c, 2, 59, 67
4, 56542, Note_off_c, 2, 59, 64
4, 56542, Note_off_c, 2, 64, 64
4, 56542, Note_off_c, 2, 55, 64
4, 56640, Note_on_c, 2, 59, 67
4, 56640, Note_on_c, 2, 62, 79
4, 56640, Note_on_c, 2, 55, 79
4, 56830, Note_off_c, 2, 55, 64
4, 56830, Note_off_c, 2, 62, 64
4, 56830, Note_off_c, 2, 59, 64
4, 56832, Note_on_c, 2, 59, 67
4, 56832, Note_on_c, 2, 62, 67
4, 56832, Note_on_c, 2, 55, 67
4, 56926, Note_off_c, 2, 55, 64
4, 56926, Note_off_c, 2, 62, 64
4, 56926, Note_off_c, 2, 59, 64
4, 57024, Note_on_c, 2, 55, 70
4, 57024, Note_on_c, 2, 60, 70
4, 57024, Note_on_c, 2, 64, 70
4, 57214, Note_off_c, 2, 64, 64
4, 57214, Note_off_c, 2, 60, 64
4, 57214, Note_off_c, 2, 55, 64
4, 57216, Note_on_c, 2, 55, 71
4, 57216, Note_on_c, 2, 60, 71
4, 57216, Note_on_c, 2, 64, 71
4, 57502, Note_off_c, 2, 64, 64
4, 57502, Note_off_c, 2, 60, 64
4, 57502, Note_off_c, 2, 55, 64
4, 57600, Note_on_c, 2, 55, 76
4, 57600, Note_on_c, 2, 60, 76
4, 57600, Note_on_c, 2, 64, 76
4, 57662, Note_off_c, 2, 64, 64
4, 57662, Note_off_c, 2, 60, 64
4, 57662, Note_off_c, 2, 55, 64
4, 71520, Control_c, 2, 7, 100
4, 71520, End_track
5, 0, Start_track
5, 0, Title_t, "Piano"
5, 0, Channel_prefix, 3
5, 0, Control_c, 3, 7, 100
5, 0, Program_c, 3, 0
5, 2400, Note_on_c, 3, 55, 85
5, 2400, Note_on_c, 3, 52, 85
5, 2400, Note_on_c, 3, 48, 85
5, 2494, Note_off_c, 3, 48, 64
5, 2494, Note_off_c, 3, 52, 64
5, 2494, Note_off_c, 3, 55, 64
5, 2496, Note_on_c, 3, 55, 100
5, 2496, Note_on_c, 3, 52, 100
5, 2496, Note_on_c, 3, 48, 100
5, 2686, Note_off_c, 3, 48, 64
5, 2686, Note_off_c, 3, 52, 64
5, 2686, Note_off_c, 3, 55, 64
5, 2688, Note_on_c, 3, 55, 87
5, 2688, Note_on_c, 3, 52, 87
5, 2688, Note_on_c, 3, 48, 87
5, 2782, Note_off_c, 3, 48, 64
5, 2782, Note_off_c, 3, 52, 64
5, 2782, Note_off_c, 3, 55, 64
5, 2784, Note_on_c, 3, 55, 100
5, 2784, Note_on_c, 3, 52, 100
5, 2784, Note_on_c, 3, 48, 100
5, 3070, Note_off_c, 3, 48, 64
5, 3070, Note_off_c, 3, 52, 64
5, 3070, Note_off_c, 3, 55, 64
5, 3168, Note_on_c, 3, 55, 84
5, 3168, Note_on_c, 3, 52, 84
5, 3168, Note_on_c, 3, 48, 84
5, 3262, Note_off_c, 3, 48, 64
5, 3262, Note_off_c, 3, 52, 64
5, 3262, Note_off_c, 3, 55, 64
5, 3264, Note_on_c, 3, 55, 100
5, 3264, Note_on_c, 3, 52, 100
5, 3264, Note_on_c, 3, 48, 100
5, 3454, Note_off_c, 3, 48, 64
5, 3454, Note_off_c, 3, 52, 64
5, 3454, Note_off_c, 3, 55, 64
5, 3456, Note_on_c, 3, 52, 83
5, 3456, Note_on_c, 3, 55, 83
5, 3456, Note_on_c, 3, 48, 83
5, 3550, Note_off_c, 3, 48, 64
5, 3550, Note_off_c, 3, 55, 64
5, 3550, Note_off_c, 3, 52, 64
5, 3552, Note_on_c, 3, 48, 100
5, 3552, Note_on_c, 3, 55, 100
5, 3552, Note_on_c, 3, 52, 100
5, 3742, Note_off_c, 3, 52, 64
5, 3742, Note_off_c, 3, 55, 64
5, 3742, Note_off_c, 3, 48, 64
5, 3744, Note_on_c, 3, 59, 80
5, 3744, Note_on_c, 3, 55, 80
5, 3744, Note_on_c, 3, 50, 80
5, 3934, Note_off_c, 3, 50, 64
5, 3934, Note_off_c, 3, 55, 64
5, 3934, Note_off_c, 3, 59, 64
5, 3936, Note_on_c, 3, 59, 80
5, 3936, Note_on_c, 3, 55, 80
5, 3936, Note_on_c, 3, 50, 80
5, 4126, Note_off_c, 3, 50, 64
5, 4126, Note_off_c, 3, 55, 64
5, 4126, Note_off_c, 3, 59, 64
5, 4128, Note_on_c, 3, 54, 80
5, 4128, Note_on_c, 3, 59, 80
5, 4128, Note_on_c, 3, 50, 80
5, 4318, Note_off_c, 3, 50, 64
5, 4318, Note_off_c, 3, 59, 64
5, 4318, Note_off_c, 3, 54, 64
5, 4320, Note_on_c, 3, 54, 80
5, 4320, Note_on_c, 3, 59, 80
5, 4320, Note_on_c, 3, 50, 80
5, 4510, Note_off_c, 3, 50, 64
5, 4510, Note_off_c, 3, 59, 64
5, 4510, Note_off_c, 3, 54, 64
5, 4512, Note_on_c, 3, 55, 80
5, 4512, Note_on_c, 3, 59, 80
5, 4512, Note_on_c, 3, 52, 80
5, 4702, Note_off_c, 3, 52, 64
5, 4702, Note_off_c, 3, 59, 64
5, 4702, Note_off_c, 3, 55, 64
5, 4704, Note_on_c, 3, 55, 80
5, 4704, Note_on_c, 3, 59, 80
5, 4704, Note_on_c, 3, 52, 80
5, 4894, Note_off_c, 3, 52, 64
5, 4894, Note_off_c, 3, 59, 64
5, 4894, Note_off_c, 3, 55, 64
5, 4896, Note_on_c, 3, 52, 80
5, 4896, Note_on_c, 3, 55, 80
5, 4896, Note_on_c, 3, 59, 80
5, 4896, Note_on_c, 3, 50, 80
5, 5086, Note_off_c, 3, 50, 64
5, 5086, Note_off_c, 3, 59, 64
5, 5086, Note_off_c, 3, 55, 64
5, 5086, Note_off_c, 3, 52, 64
5, 5088, Note_on_c, 3, 52, 80
5, 5088, Note_on_c, 3, 55, 80
5, 5088, Note_on_c, 3, 59, 80
5, 5088, Note_on_c, 3, 50, 80
5, 5278, Note_off_c, 3, 50, 64
5, 5278, Note_off_c, 3, 59, 64
5, 5278, Note_off_c, 3, 55, 64
5, 5278, Note_off_c, 3, 52, 64
5, 5280, Note_on_c, 3, 52, 80
5, 5280, Note_on_c, 3, 48, 80
5, 5280, Note_on_c, 3, 55, 80
5, 5470, Note_off_c, 3, 55, 64
5, 5470, Note_off_c, 3, 48, 64
5, 5470, Note_off_c, 3, 52, 64
5, 5472, Note_on_c, 3, 52, 80
5, 5472, Note_on_c, 3, 48, 80
5, 5472, Note_on_c, 3, 55, 80
5, 5662, Note_off_c, 3, 55, 64
5, 5662, Note_off_c, 3, 48, 64
5, 5662, Note_off_c, 3, 52, 64
5, 5664, Note_on_c, 3, 52, 80
5, 5664, Note_on_c, 3, 55, 80
5, 5664, Note_on_c, 3, 47, 80
5, 5854, Note_off_c, 3, 47, 64
5, 5854, Note_off_c, 3, 55, 64
5, 5854, Note_off_c, 3, 52, 64
5, 5856, Note_on_c, 3, 52, 80
5, 5856, Note_on_c, 3, 55, 80
5, 5856, Note_on_c, 3, 47, 80
5, 6046, Note_off_c, 3, 47, 64
5, 6046, Note_off_c, 3, 55, 64
5, 6046, Note_off_c, 3, 52, 64
5, 6048, Note_on_c, 3, 52, 80
5, 6048, Note_on_c, 3, 48, 80
5, 6048, Note_on_c, 3, 57, 80
5, 6238, Note_off_c, 3, 57, 64
5, 6238, Note_off_c, 3, 48, 64
5, 6238, Note_off_c, 3, 52, 64
5, 6240, Note_on_c, 3, 52, 80
5, 6240, Note_on_c, 3, 48, 80
5, 6240, Note_on_c, 3, 57, 80
5, 6430, Note_off_c, 3, 57, 64
5, 6430, Note_off_c, 3, 48, 64
5, 6430, Note_off_c, 3, 52, 64
5, 6432, Note_on_c, 3, 55, 80
5, 6432, Note_on_c, 3, 48, 80
5, 6432, Note_on_c, 3, 52, 80
5, 6512, Note_on_c, 3, 60, 89
5, 6512, Note_on_c, 3, 59, 89
5, 6576, Note_on_c, 3, 57, 80
5, 6590, Note_off_c, 3, 59, 64
5, 6590, Note_off_c, 3, 60, 64
5, 6622, Note_off_c, 3, 52, 64
5, 6622, Note_off_c, 3, 48, 64
5, 6622, Note_off_c, 3, 55, 64
5, 6622, Note_off_c, 3, 57, 64
5, 6624, Note_on_c, 3, 60, 92
5, 6624, Note_on_c, 3, 59, 92
5, 6624, Note_on_c, 3, 48, 92
5, 6624, Note_on_c, 3, 52, 92
5, 6624, Note_on_c, 3, 55, 92
5, 6814, Note_off_c, 3, 55, 64
5, 6814, Note_off_c, 3, 52, 64
5, 6814, Note_off_c, 3, 48, 64
5, 6814, Note_off_c, 3, 59, 64
5, 6814, Note_off_c, 3, 60, 64
5, 6816, Note_on_c, 3, 59, 80
5, 6816, Note_on_c, 3, 55, 80
5, 6816, Note_on_c, 3, 50, 80
5, 7006, Note_off_c, 3, 50, 64
5, 7006, Note_off_c, 3, 55, 64
5, 7006, Note_off_c, 3, 59, 64
5, 7008, Note_on_c, 3, 59, 80
5, 7008, Note_on_c, 3, 55, 80
5, 7008, Note_on_c, 3, 50, 80
5, 7198, Note_off_c, 3, 50, 64
5, 7198, Note_off_c, 3, 55, 64
5, 7198, Note_off_c, 3, 59, 64
5, 7200, Note_on_c, 3, 54, 80
5, 7200, Note_on_c, 3, 59, 80
5, 7200, Note_on_c, 3, 50, 80
5, 7390, Note_off_c, 3, 50, 64
5, 7390, Note_off_c, 3, 59, 64
5, 7390, Note_off_c, 3, 54, 64
5, 7392, Note_on_c, 3, 54, 80
5, 7392, Note_on_c, 3, 59, 80
5, 7392, Note_on_c, 3, 50, 80
5, 7582, Note_off_c, 3, 50, 64
5, 7582, Note_off_c, 3, 59, 64
5, 7582, Note_off_c, 3, 54, 64
5, 7584, Note_on_c, 3, 55, 80
5, 7584, Note_on_c, 3, 59, 80
5, 7584, Note_on_c, 3, 52, 80
5, 7774, Note_off_c, 3, 52, 64
5, 7774, Note_off_c, 3, 59, 64
5, 7774, Note_off_c, 3, 55, 64
5, 7776, Note_on_c, 3, 55, 80
5, 7776, Note_on_c, 3, 59, 80
5, 7776, Note_on_c, 3, 52, 80
5, 7966, Note_off_c, 3, 52, 64
5, 7966, Note_off_c, 3, 59, 64
5, 7966, Note_off_c, 3, 55, 64
5, 7968, Note_on_c, 3, 52, 80
5, 7968, Note_on_c, 3, 55, 80
5, 7968, Note_on_c, 3, 59, 80
5, 7968, Note_on_c, 3, 50, 80
5, 8158, Note_off_c, 3, 50, 64
5, 8158, Note_off_c, 3, 59, 64
5, 8158, Note_off_c, 3, 55, 64
5, 8158, Note_off_c, 3, 52, 64
5, 8160, Note_on_c, 3, 52, 80
5, 8160, Note_on_c, 3, 55, 80
5, 8160, Note_on_c, 3, 59, 80
5, 8160, Note_on_c, 3, 50, 80
5, 8350, Note_off_c, 3, 50, 64
5, 8350, Note_off_c, 3, 59, 64
5, 8350, Note_off_c, 3, 55, 64
5, 8350, Note_off_c, 3, 52, 64
5, 8352, Note_on_c, 3, 52, 80
5, 8352, Note_on_c, 3, 48, 80
5, 8352, Note_on_c, 3, 55, 80
5, 8542, Note_off_c, 3, 55, 64
5, 8542, Note_off_c, 3, 48, 64
5, 8542, Note_off_c, 3, 52, 64
5, 8544, Note_on_c, 3, 52, 80
5, 8544, Note_on_c, 3, 48, 80
5, 8544, Note_on_c, 3, 55, 80
5, 8734, Note_off_c, 3, 55, 64
5, 8734, Note_off_c, 3, 48, 64
5, 8734, Note_off_c, 3, 52, 64
5, 8736, Note_on_c, 3, 48, 80
5, 8736, Note_on_c, 3, 53, 80
5, 8736, Note_on_c, 3, 57, 80
5, 8926, Note_off_c, 3, 57, 64
5, 8926, Note_off_c, 3, 53, 64
5, 8926, Note_off_c, 3, 48, 64
5, 8928, Note_on_c, 3, 48, 80
5, 8928, Note_on_c, 3, 53, 80
5, 8928, Note_on_c, 3, 57, 80
5, 9118, Note_off_c, 3, 57, 64
5, 9118, Note_off_c, 3, 53, 64
5, 9118, Note_off_c, 3, 48, 64
5, 9120, Note_on_c, 3, 59, 80
5, 9120, Note_on_c, 3, 55, 80
5, 9120, Note_on_c, 3, 52, 80
5, 9310, Note_off_c, 3, 52, 64
5, 9310, Note_off_c, 3, 55, 64
5, 9310, Note_off_c, 3, 59, 64
5, 9312, Note_on_c, 3, 59, 80
5, 9312, Note_on_c, 3, 55, 80
5, 9312, Note_on_c, 3, 52, 80
5, 9502, Note_off_c, 3, 52, 64
5, 9502, Note_off_c, 3, 55, 64
5, 9502, Note_off_c, 3, 59, 64
5, 9504, Note_on_c, 3, 50, 80
5, 9504, Note_on_c, 3, 59, 80
5, 9504, Note_on_c, 3, 55, 80
5, 9504, Note_on_c, 3, 52, 80
5, 9694, Note_off_c, 3, 52, 64
5, 9694, Note_off_c, 3, 55, 64
5, 9694, Note_off_c, 3, 59, 64
5, 9694, Note_off_c, 3, 50, 64
5, 9696, Note_on_c, 3, 50, 80
5, 9696, Note_on_c, 3, 59, 80
5, 9696, Note_on_c, 3, 52, 80
5, 9696, Note_on_c, 3, 55, 80
5, 9886, Note_off_c, 3, 55, 64
5, 9886, Note_off_c, 3, 52, 64
5, 9886, Note_off_c, 3, 59, 64
5, 9886, Note_off_c, 3, 50, 64
5, 9888, Note_on_c, 3, 52, 80
5, 9888, Note_on_c, 3, 48, 80
5, 9888, Note_on_c, 3, 55, 80
5, 10078, Note_off_c, 3, 55, 64
5, 10078, Note_off_c, 3, 48, 64
5, 10078, Note_off_c, 3, 52, 64
5, 10080, Note_on_c, 3, 52, 80
5, 10080, Note_on_c, 3, 48, 80
5, 10080, Note_on_c, 3, 55, 80
5, 10270, Note_off_c, 3, 55, 64
5, 10270, Note_off_c, 3, 48, 64
5, 10270, Note_off_c, 3, 52, 64
5, 10272, Note_on_c, 3, 48, 80
5, 10272, Note_on_c, 3, 53, 80
5, 10272, Note_on_c, 3, 57, 80
5, 10462, Note_off_c, 3, 57, 64
5, 10462, Note_off_c, 3, 53, 64
5, 10462, Note_off_c, 3, 48, 64
5, 10464, Note_on_c, 3, 48, 80
5, 10464, Note_on_c, 3, 53, 80
5, 10464, Note_on_c, 3, 57, 80
5, 10654, Note_off_c, 3, 57, 64
5, 10654, Note_off_c, 3, 53, 64
5, 10654, Note_off_c, 3, 48, 64
5, 10656, Note_on_c, 3, 59, 80
5, 10656, Note_on_c, 3, 55, 80
5, 10656, Note_on_c, 3, 52, 80
5, 10846, Note_off_c, 3, 52, 64
5, 10846, Note_off_c, 3, 55, 64
5, 10846, Note_off_c, 3, 59, 64
5, 10848, Note_on_c, 3, 59, 80
5, 10848, Note_on_c, 3, 55, 80
5, 10848, Note_on_c, 3, 52, 80
5, 11038, Note_off_c, 3, 52, 64
5, 11038, Note_off_c, 3, 55, 64
5, 11038, Note_off_c, 3, 59, 64
5, 11040, Note_on_c, 3, 55, 80
5, 11040, Note_on_c, 3, 52, 80
5, 11040, Note_on_c, 3, 48, 80
5, 11040, Note_on_c, 3, 59, 80
5, 11230, Note_off_c, 3, 59, 64
5, 11230, Note_off_c, 3, 48, 64
5, 11230, Note_off_c, 3, 52, 64
5, 11230, Note_off_c, 3, 55, 64
5, 11232, Note_on_c, 3, 59, 80
5, 11232, Note_on_c, 3, 52, 80
5, 11232, Note_on_c, 3, 48, 80
5, 11232, Note_on_c, 3, 55, 80
5, 11422, Note_off_c, 3, 55, 64
5, 11422, Note_off_c, 3, 48, 64
5, 11422, Note_off_c, 3, 52, 64
5, 11422, Note_off_c, 3, 59, 64
5, 11424, Note_on_c, 3, 59, 80
5, 11424, Note_on_c, 3, 55, 80
5, 11424, Note_on_c, 3, 50, 80
5, 11614, Note_off_c, 3, 50, 64
5, 11614, Note_off_c, 3, 55, 64
5, 11614, Note_off_c, 3, 59, 64
5, 11616, Note_on_c, 3, 59, 80
5, 11616, Note_on_c, 3, 55, 80
5, 11616, Note_on_c, 3, 50, 80
5, 11806, Note_off_c, 3, 50, 64
5, 11806, Note_off_c, 3, 55, 64
5, 11806, Note_off_c, 3, 59, 64
5, 11808, Note_on_c, 3, 54, 80
5, 11808, Note_on_c, 3, 59, 80
5, 11808, Note_on_c, 3, 50, 80
5, 11998, Note_off_c, 3, 50, 64
5, 11998, Note_off_c, 3, 59, 64
5, 11998, Note_off_c, 3, 54, 64
5, 12000, Note_on_c, 3, 54, 80
5, 12000, Note_on_c, 3, 59, 80
5, 12000, Note_on_c, 3, 50, 80
5, 12190, Note_off_c, 3, 50, 64
5, 12190, Note_off_c, 3, 59, 64
5, 12190, Note_off_c, 3, 54, 64
5, 12192, Note_on_c, 3, 55, 80
5, 12192, Note_on_c, 3, 59, 80
5, 12192, Note_on_c, 3, 52, 80
5, 12382, Note_off_c, 3, 52, 64
5, 12382, Note_off_c, 3, 59, 64
5, 12382, Note_off_c, 3, 55, 64
5, 12384, Note_on_c, 3, 55, 80
5, 12384, Note_on_c, 3, 59, 80
5, 12384, Note_on_c, 3, 52, 80
5, 12574, Note_off_c, 3, 52, 64
5, 12574, Note_off_c, 3, 59, 64
5, 12574, Note_off_c, 3, 55, 64
5, 12576, Note_on_c, 3, 52, 80
5, 12576, Note_on_c, 3, 55, 80
5, 12576, Note_on_c, 3, 59, 80
5, 12576, Note_on_c, 3, 50, 80
5, 12766, Note_off_c, 3, 50, 64
5, 12766, Note_off_c, 3, 59, 64
5, 12766, Note_off_c, 3, 55, 64
5, 12766, Note_off_c, 3, 52, 64
5, 12768, Note_on_c, 3, 52, 80
5, 12768, Note_on_c, 3, 55, 80
5, 12768, Note_on_c, 3, 59, 80
5, 12768, Note_on_c, 3, 50, 80
5, 12958, Note_off_c, 3, 50, 64
5, 12958, Note_off_c, 3, 59, 64
5, 12958, Note_off_c, 3, 55, 64
5, 12958, Note_off_c, 3, 52, 64
5, 12960, Note_on_c, 3, 52, 80
5, 12960, Note_on_c, 3, 48, 80
5, 12960, Note_on_c, 3, 55, 80
5, 13150, Note_off_c, 3, 55, 64
5, 13150, Note_off_c, 3, 48, 64
5, 13150, Note_off_c, 3, 52, 64
5, 13152, Note_on_c, 3, 52, 80
5, 13152, Note_on_c, 3, 48, 80
5, 13152, Note_on_c, 3, 55, 80
5, 13342, Note_off_c, 3, 55, 64
5, 13342, Note_off_c, 3, 48, 64
5, 13342, Note_off_c, 3, 52, 64
5, 13344, Note_on_c, 3, 52, 80
5, 13344, Note_on_c, 3, 55, 80
5, 13344, Note_on_c, 3, 47, 80
5, 13534, Note_off_c, 3, 47, 64
5, 13534, Note_off_c, 3, 55, 64
5, 13534, Note_off_c, 3, 52, 64
5, 13536, Note_on_c, 3, 52, 80
5, 13536, Note_on_c, 3, 55, 80
5, 13536, Note_on_c, 3, 47, 80
5, 13726, Note_off_c, 3, 47, 64
5, 13726, Note_off_c, 3, 55, 64
5, 13726, Note_off_c, 3, 52, 64
5, 13728, Note_on_c, 3, 52, 80
5, 13728, Note_on_c, 3, 48, 80
5, 13728, Note_on_c, 3, 57, 80
5, 13918, Note_off_c, 3, 57, 64
5, 13918, Note_off_c, 3, 48, 64
5, 13918, Note_off_c, 3, 52, 64
5, 13920, Note_on_c, 3, 52, 80
5, 13920, Note_on_c, 3, 48, 80
5, 13920, Note_on_c, 3, 57, 80
5, 14110, Note_off_c, 3, 57, 64
5, 14110, Note_off_c, 3, 48, 64
5, 14110, Note_off_c, 3, 52, 64
5, 14112, Note_on_c, 3, 55, 80
5, 14112, Note_on_c, 3, 48, 80
5, 14112, Note_on_c, 3, 52, 80
5, 14192, Note_on_c, 3, 60, 90
5, 14192, Note_on_c, 3, 59, 90
5, 14270, Note_off_c, 3, 59, 64
5, 14270, Note_off_c, 3, 60, 64
5, 14272, Note_on_c, 3, 57, 80
5, 14302, Note_off_c, 3, 52, 64
5, 14302, Note_off_c, 3, 48, 64
5, 14302, Note_off_c, 3, 55, 64
5, 14302, Note_off_c, 3, 57, 64
5, 14304, Note_on_c, 3, 60, 90
5, 14304, Note_on_c, 3, 59, 90
5, 14304, Note_on_c, 3, 48, 80
5, 14304, Note_on_c, 3, 52, 80
5, 14304, Note_on_c, 3, 55, 80
5, 14366, Note_off_c, 3, 59, 64
5, 14366, Note_off_c, 3, 60, 64
5, 14368, Note_on_c, 3, 57, 80
5, 14414, Note_off_c, 3, 57, 64
5, 14494, Note_off_c, 3, 48, 64
5, 14494, Note_off_c, 3, 52, 64
5, 14494, Note_off_c, 3, 55, 64
5, 14496, Note_on_c, 3, 59, 80
5, 14496, Note_on_c, 3, 55, 80
5, 14496, Note_on_c, 3, 50, 80
5, 14686, Note_off_c, 3, 50, 64
5, 14686, Note_off_c, 3, 55, 64
5, 14686, Note_off_c, 3, 59, 64
5, 14688, Note_on_c, 3, 59, 80
5, 14688, Note_on_c, 3, 55, 80
5, 14688, Note_on_c, 3, 50, 80
5, 14878, Note_off_c, 3, 50, 64
5, 14878, Note_off_c, 3, 55, 64
5, 14878, Note_off_c, 3, 59, 64
5, 14880, Note_on_c, 3, 54, 80
5, 14880, Note_on_c, 3, 59, 80
5, 14880, Note_on_c, 3, 50, 80
5, 15070, Note_off_c, 3, 50, 64
5, 15070, Note_off_c, 3, 59, 64
5, 15070, Note_off_c, 3, 54, 64
5, 15072, Note_on_c, 3, 54, 80
5, 15072, Note_on_c, 3, 59, 80
5, 15072, Note_on_c, 3, 50, 80
5, 15262, Note_off_c, 3, 50, 64
5, 15262, Note_off_c, 3, 59, 64
5, 15262, Note_off_c, 3, 54, 64
5, 15264, Note_on_c, 3, 55, 80
5, 15264, Note_on_c, 3, 59, 80
5, 15264, Note_on_c, 3, 52, 80
5, 15454, Note_off_c, 3, 52, 64
5, 15454, Note_off_c, 3, 59, 64
5, 15454, Note_off_c, 3, 55, 64
5, 15456, Note_on_c, 3, 55, 80
5, 15456, Note_on_c, 3, 59, 80
5, 15456, Note_on_c, 3, 52, 80
5, 15646, Note_off_c, 3, 52, 64
5, 15646, Note_off_c, 3, 59, 64
5, 15646, Note_off_c, 3, 55, 64
5, 15648, Note_on_c, 3, 52, 80
5, 15648, Note_on_c, 3, 55, 80
5, 15648, Note_on_c, 3, 59, 80
5, 15648, Note_on_c, 3, 50, 80
5, 15838, Note_off_c, 3, 50, 64
5, 15838, Note_off_c, 3, 59, 64
5, 15838, Note_off_c, 3, 55, 64
5, 15838, Note_off_c, 3, 52, 64
5, 15840, Note_on_c, 3, 52, 80
5, 15840, Note_on_c, 3, 55, 80
5, 15840, Note_on_c, 3, 59, 80
5, 15840, Note_on_c, 3, 50, 80
5, 16030, Note_off_c, 3, 50, 64
5, 16030, Note_off_c, 3, 59, 64
5, 16030, Note_off_c, 3, 55, 64
5, 16030, Note_off_c, 3, 52, 64
5, 16032, Note_on_c, 3, 52, 80
5, 16032, Note_on_c, 3, 48, 80
5, 16032, Note_on_c, 3, 55, 80
5, 16222, Note_off_c, 3, 55, 64
5, 16222, Note_off_c, 3, 48, 64
5, 16222, Note_off_c, 3, 52, 64
5, 16224, Note_on_c, 3, 52, 80
5, 16224, Note_on_c, 3, 48, 80
5, 16224, Note_on_c, 3, 55, 80
5, 16414, Note_off_c, 3, 55, 64
5, 16414, Note_off_c, 3, 48, 64
5, 16414, Note_off_c, 3, 52, 64
5, 16416, Note_on_c, 3, 48, 80
5, 16416, Note_on_c, 3, 53, 80
5, 16416, Note_on_c, 3, 57, 80
5, 16606, Note_off_c, 3, 57, 64
5, 16606, Note_off_c, 3, 53, 64
5, 16606, Note_off_c, 3, 48, 64
5, 16608, Note_on_c, 3, 48, 80
5, 16608, Note_on_c, 3, 53, 80
5, 16608, Note_on_c, 3, 57, 80
5, 16798, Note_off_c, 3, 57, 64
5, 16798, Note_off_c, 3, 53, 64
5, 16798, Note_off_c, 3, 48, 64
5, 16800, Note_on_c, 3, 59, 80
5, 16800, Note_on_c, 3, 55, 80
5, 16800, Note_on_c, 3, 52, 80
5, 16990, Note_off_c, 3, 52, 64
5, 16990, Note_off_c, 3, 55, 64
5, 16990, Note_off_c, 3, 59, 64
5, 16992, Note_on_c, 3, 59, 80
5, 16992, Note_on_c, 3, 55, 80
5, 16992, Note_on_c, 3, 52, 80
5, 17182, Note_off_c, 3, 52, 64
5, 17182, Note_off_c, 3, 55, 64
5, 17182, Note_off_c, 3, 59, 64
5, 17184, Note_on_c, 3, 50, 80
5, 17184, Note_on_c, 3, 59, 80
5, 17184, Note_on_c, 3, 55, 80
5, 17184, Note_on_c, 3, 52, 80
5, 17374, Note_off_c, 3, 52, 64
5, 17374, Note_off_c, 3, 55, 64
5, 17374, Note_off_c, 3, 59, 64
5, 17374, Note_off_c, 3, 50, 64
5, 17376, Note_on_c, 3, 50, 80
5, 17376, Note_on_c, 3, 59, 80
5, 17376, Note_on_c, 3, 52, 80
5, 17376, Note_on_c, 3, 55, 80
5, 17566, Note_off_c, 3, 55, 64
5, 17566, Note_off_c, 3, 52, 64
5, 17566, Note_off_c, 3, 59, 64
5, 17566, Note_off_c, 3, 50, 64
5, 17568, Note_on_c, 3, 72, 80
5, 17568, Note_on_c, 3, 67, 80
5, 17568, Note_on_c, 3, 60, 80
5, 17568, Note_on_c, 3, 55, 80
5, 17568, Note_on_c, 3, 52, 80
5, 17568, Note_on_c, 3, 48, 80
5, 17758, Note_off_c, 3, 48, 64
5, 17758, Note_off_c, 3, 52, 64
5, 17758, Note_off_c, 3, 55, 64
5, 17758, Note_off_c, 3, 60, 64
5, 17758, Note_off_c, 3, 67, 64
5, 17758, Note_off_c, 3, 72, 64
5, 17760, Note_on_c, 3, 72, 80
5, 17760, Note_on_c, 3, 67, 80
5, 17760, Note_on_c, 3, 60, 80
5, 17760, Note_on_c, 3, 55, 80
5, 17760, Note_on_c, 3, 52, 80
5, 17760, Note_on_c, 3, 48, 80
5, 17950, Note_off_c, 3, 48, 64
5, 17950, Note_off_c, 3, 52, 64
5, 17950, Note_off_c, 3, 55, 64
5, 17950, Note_off_c, 3, 60, 64
5, 17950, Note_off_c, 3, 67, 64
5, 17950, Note_off_c, 3, 72, 64
5, 17952, Note_on_c, 3, 72, 80
5, 17952, Note_on_c, 3, 67, 80
5, 17952, Note_on_c, 3, 48, 80
5, 17952, Note_on_c, 3, 52, 80
5, 17952, Note_on_c, 3, 60, 80
5, 17952, Note_on_c, 3, 55, 80
5, 18110, Note_off_c, 3, 55, 64
5, 18110, Note_off_c, 3, 60, 64
5, 18110, Note_off_c, 3, 52, 64
5, 18110, Note_off_c, 3, 48, 64
5, 18110, Note_off_c, 3, 67, 64
5, 18110, Note_off_c, 3, 72, 64
5, 18112, Note_on_c, 3, 60, 80
5, 18112, Note_on_c, 3, 55, 80
5, 18112, Note_on_c, 3, 52, 80
5, 18112, Note_on_c, 3, 48, 80
5, 18112, Note_on_c, 3, 72, 80
5, 18112, Note_on_c, 3, 67, 80
5, 18142, Note_off_c, 3, 67, 64
5, 18142, Note_off_c, 3, 72, 64
5, 18142, Note_off_c, 3, 48, 64
5, 18142, Note_off_c, 3, 52, 64
5, 18142, Note_off_c, 3, 55, 64
5, 18142, Note_off_c, 3, 60, 64
5, 18144, Note_on_c, 3, 72, 80
5, 18144, Note_on_c, 3, 67, 80
5, 18144, Note_on_c, 3, 60, 80
5, 18144, Note_on_c, 3, 48, 80
5, 18144, Note_on_c, 3, 52, 80
5, 18144, Note_on_c, 3, 55, 80
5, 18334, Note_off_c, 3, 55, 64
5, 18334, Note_off_c, 3, 52, 64
5, 18334, Note_off_c, 3, 48, 64
5, 18334, Note_off_c, 3, 60, 64
5, 18334, Note_off_c, 3, 67, 64
5, 18334, Note_off_c, 3, 72, 64
5, 18336, Note_on_c, 3, 59, 80
5, 18336, Note_on_c, 3, 55, 80
5, 18336, Note_on_c, 3, 50, 80
5, 18526, Note_off_c, 3, 50, 64
5, 18526, Note_off_c, 3, 55, 64
5, 18526, Note_off_c, 3, 59, 64
5, 18528, Note_on_c, 3, 59, 80
5, 18528, Note_on_c, 3, 55, 80
5, 18528, Note_on_c, 3, 50, 80
5, 18718, Note_off_c, 3, 50, 64
5, 18718, Note_off_c, 3, 55, 64
5, 18718, Note_off_c, 3, 59, 64
5, 18720, Note_on_c, 3, 54, 80
5, 18720, Note_on_c, 3, 59, 80
5, 18720, Note_on_c, 3, 50, 80
5, 18910, Note_off_c, 3, 50, 64
5, 18910, Note_off_c, 3, 59, 64
5, 18910, Note_off_c, 3, 54, 64
5, 18912, Note_on_c, 3, 54, 80
5, 18912, Note_on_c, 3, 59, 80
5, 18912, Note_on_c, 3, 50, 80
5, 19102, Note_off_c, 3, 50, 64
5, 19102, Note_off_c, 3, 59, 64
5, 19102, Note_off_c, 3, 54, 64
5, 19104, Note_on_c, 3, 55, 80
5, 19104, Note_on_c, 3, 59, 80
5, 19104, Note_on_c, 3, 52, 80
5, 19294, Note_off_c, 3, 52, 64
5, 19294, Note_off_c, 3, 59, 64
5, 19294, Note_off_c, 3, 55, 64
5, 19296, Note_on_c, 3, 55, 80
5, 19296, Note_on_c, 3, 59, 80
5, 19296, Note_on_c, 3, 52, 80
5, 19486, Note_off_c, 3, 52, 64
5, 19486, Note_off_c, 3, 59, 64
5, 19486, Note_off_c, 3, 55, 64
5, 19488, Note_on_c, 3, 52, 80
5, 19488, Note_on_c, 3, 55, 80
5, 19488, Note_on_c, 3, 59, 80
5, 19488, Note_on_c, 3, 50, 80
5, 19678, Note_off_c, 3, 50, 64
5, 19678, Note_off_c, 3, 59, 64
5, 19678, Note_off_c, 3, 55, 64
5, 19678, Note_off_c, 3, 52, 64
5, 19680, Note_on_c, 3, 52, 80
5, 19680, Note_on_c, 3, 55, 80
5, 19680, Note_on_c, 3, 59, 80
5, 19680, Note_on_c, 3, 50, 80
5, 19870, Note_off_c, 3, 50, 64
5, 19870, Note_off_c, 3, 59, 64
5, 19870, Note_off_c, 3, 55, 64
5, 19870, Note_off_c, 3, 52, 64
5, 19872, Note_on_c, 3, 52, 80
5, 19872, Note_on_c, 3, 48, 80
5, 19872, Note_on_c, 3, 55, 80
5, 20062, Note_off_c, 3, 55, 64
5, 20062, Note_off_c, 3, 48, 64
5, 20062, Note_off_c, 3, 52, 64
5, 20064, Note_on_c, 3, 52, 80
5, 20064, Note_on_c, 3, 48, 80
5, 20064, Note_on_c, 3, 55, 80
5, 20254, Note_off_c, 3, 55, 64
5, 20254, Note_off_c, 3, 48, 64
5, 20254, Note_off_c, 3, 52, 64
5, 20256, Note_on_c, 3, 52, 80
5, 20256, Note_on_c, 3, 55, 80
5, 20256, Note_on_c, 3, 47, 80
5, 20446, Note_off_c, 3, 47, 64
5, 20446, Note_off_c, 3, 55, 64
5, 20446, Note_off_c, 3, 52, 64
5, 20448, Note_on_c, 3, 52, 80
5, 20448, Note_on_c, 3, 55, 80
5, 20448, Note_on_c, 3, 47, 80
5, 20638, Note_off_c, 3, 47, 64
5, 20638, Note_off_c, 3, 55, 64
5, 20638, Note_off_c, 3, 52, 64
5, 20640, Note_on_c, 3, 52, 80
5, 20640, Note_on_c, 3, 48, 80
5, 20640, Note_on_c, 3, 57, 80
5, 20830, Note_off_c, 3, 57, 64
5, 20830, Note_off_c, 3, 48, 64
5, 20830, Note_off_c, 3, 52, 64
5, 20832, Note_on_c, 3, 52, 80
5, 20832, Note_on_c, 3, 48, 80
5, 20832, Note_on_c, 3, 57, 80
5, 21022, Note_off_c, 3, 57, 64
5, 21022, Note_off_c, 3, 48, 64
5, 21022, Note_off_c, 3, 52, 64
5, 21024, Note_on_c, 3, 55, 80
5, 21024, Note_on_c, 3, 48, 80
5, 21024, Note_on_c, 3, 52, 80
5, 21104, Note_on_c, 3, 60, 90
5, 21104, Note_on_c, 3, 59, 90
5, 21182, Note_off_c, 3, 59, 64
5, 21182, Note_off_c, 3, 60, 64
5, 21184, Note_on_c, 3, 57, 80
5, 21214, Note_off_c, 3, 52, 64
5, 21214, Note_off_c, 3, 48, 64
5, 21214, Note_off_c, 3, 55, 64
5, 21214, Note_off_c, 3, 57, 64
5, 21216, Note_on_c, 3, 60, 90
5, 21216, Note_on_c, 3, 59, 90
5, 21216, Note_on_c, 3, 48, 80
5, 21216, Note_on_c, 3, 52, 80
5, 21216, Note_on_c, 3, 55, 80
5, 21278, Note_off_c, 3, 59, 64
5, 21278, Note_off_c, 3, 60, 64
5, 21280, Note_on_c, 3, 57, 80
5, 21326, Note_off_c, 3, 57, 64
5, 21406, Note_off_c, 3, 48, 64
5, 21406, Note_off_c, 3, 52, 64
5, 21406, Note_off_c, 3, 55, 64
5, 21408, Note_on_c, 3, 59, 80
5, 21408, Note_on_c, 3, 55, 80
5, 21408, Note_on_c, 3, 50, 80
5, 21598, Note_off_c, 3, 50, 64
5, 21598, Note_off_c, 3, 55, 64
5, 21598, Note_off_c, 3, 59, 64
5, 21600, Note_on_c, 3, 59, 80
5, 21600, Note_on_c, 3, 55, 80
5, 21600, Note_on_c, 3, 50, 80
5, 21790, Note_off_c, 3, 50, 64
5, 21790, Note_off_c, 3, 55, 64
5, 21790, Note_off_c, 3, 59, 64
5, 21792, Note_on_c, 3, 54, 80
5, 21792, Note_on_c, 3, 59, 80
5, 21792, Note_on_c, 3, 50, 80
5, 21982, Note_off_c, 3, 50, 64
5, 21982, Note_off_c, 3, 59, 64
5, 21982, Note_off_c, 3, 54, 64
5, 21984, Note_on_c, 3, 54, 80
5, 21984, Note_on_c, 3, 59, 80
5, 21984, Note_on_c, 3, 50, 80
5, 22174, Note_off_c, 3, 50, 64
5, 22174, Note_off_c, 3, 59, 64
5, 22174, Note_off_c, 3, 54, 64
5, 22176, Note_on_c, 3, 55, 80
5, 22176, Note_on_c, 3, 59, 80
5, 22176, Note_on_c, 3, 52, 80
5, 22366, Note_off_c, 3, 52, 64
5, 22366, Note_off_c, 3, 59, 64
5, 22366, Note_off_c, 3, 55, 64
5, 22368, Note_on_c, 3, 55, 80
5, 22368, Note_on_c, 3, 59, 80
5, 22368, Note_on_c, 3, 52, 80
5, 22558, Note_off_c, 3, 52, 64
5, 22558, Note_off_c, 3, 59, 64
5, 22558, Note_off_c, 3, 55, 64
5, 22560, Note_on_c, 3, 52, 80
5, 22560, Note_on_c, 3, 55, 80
5, 22560, Note_on_c, 3, 59, 80
5, 22560, Note_on_c, 3, 50, 80
5, 22750, Note_off_c, 3, 50, 64
5, 22750, Note_off_c, 3, 59, 64
5, 22750, Note_off_c, 3, 55, 64
5, 22750, Note_off_c, 3, 52, 64
5, 22752, Note_on_c, 3, 52, 80
5, 22752, Note_on_c, 3, 55, 80
5, 22752, Note_on_c, 3, 59, 80
5, 22752, Note_on_c, 3, 50, 80
5, 22942, Note_off_c, 3, 50, 64
5, 22942, Note_off_c, 3, 59, 64
5, 22942, Note_off_c, 3, 55, 64
5, 22942, Note_off_c, 3, 52, 64
5, 22944, Note_on_c, 3, 52, 80
5, 22944, Note_on_c, 3, 48, 80
5, 22944, Note_on_c, 3, 55, 80
5, 23134, Note_off_c, 3, 55, 64
5, 23134, Note_off_c, 3, 48, 64
5, 23134, Note_off_c, 3, 52, 64
5, 23136, Note_on_c, 3, 52, 80
5, 23136, Note_on_c, 3, 48, 80
5, 23136, Note_on_c, 3, 55, 80
5, 23326, Note_off_c, 3, 55, 64
5, 23326, Note_off_c, 3, 48, 64
5, 23326, Note_off_c, 3, 52, 64
5, 23328, Note_on_c, 3, 48, 80
5, 23328, Note_on_c, 3, 53, 80
5, 23328, Note_on_c, 3, 57, 80
5, 23518, Note_off_c, 3, 57, 64
5, 23518, Note_off_c, 3, 53, 64
5, 23518, Note_off_c, 3, 48, 64
5, 23520, Note_on_c, 3, 48, 80
5, 23520, Note_on_c, 3, 53, 80
5, 23520, Note_on_c, 3, 57, 80
5, 23710, Note_off_c, 3, 57, 64
5, 23710, Note_off_c, 3, 53, 64
5, 23710, Note_off_c, 3, 48, 64
5, 23712, Note_on_c, 3, 59, 80
5, 23712, Note_on_c, 3, 55, 80
5, 23712, Note_on_c, 3, 52, 80
5, 23902, Note_off_c, 3, 52, 64
5, 23902, Note_off_c, 3, 55, 64
5, 23902, Note_off_c, 3, 59, 64
5, 23904, Note_on_c, 3, 59, 80
5, 23904, Note_on_c, 3, 55, 80
5, 23904, Note_on_c, 3, 52, 80
5, 24094, Note_off_c, 3, 52, 64
5, 24094, Note_off_c, 3, 55, 64
5, 24094, Note_off_c, 3, 59, 64
5, 24096, Note_on_c, 3, 50, 80
5, 24096, Note_on_c, 3, 59, 80
5, 24096, Note_on_c, 3, 55, 80
5, 24096, Note_on_c, 3, 52, 80
5, 24286, Note_off_c, 3, 52, 64
5, 24286, Note_off_c, 3, 55, 64
5, 24286, Note_off_c, 3, 59, 64
5, 24286, Note_off_c, 3, 50, 64
5, 24288, Note_on_c, 3, 50, 80
5, 24288, Note_on_c, 3, 59, 80
5, 24288, Note_on_c, 3, 52, 80
5, 24288, Note_on_c, 3, 55, 80
5, 24478, Note_off_c, 3, 55, 64
5, 24478, Note_off_c, 3, 52, 64
5, 24478, Note_off_c, 3, 59, 64
5, 24478, Note_off_c, 3, 50, 64
5, 24480, Note_on_c, 3, 67, 80
5, 24480, Note_on_c, 3, 60, 80
5, 24480, Note_on_c, 3, 55, 80
5, 24480, Note_on_c, 3, 52, 80
5, 24480, Note_on_c, 3, 48, 80
5, 24670, Note_off_c, 3, 48, 64
5, 24670, Note_off_c, 3, 52, 64
5, 24670, Note_off_c, 3, 55, 64
5, 24670, Note_off_c, 3, 60, 64
5, 24670, Note_off_c, 3, 67, 64
5, 24672, Note_on_c, 3, 67, 80
5, 24672, Note_on_c, 3, 60, 80
5, 24672, Note_on_c, 3, 55, 80
5, 24672, Note_on_c, 3, 52, 80
5, 24672, Note_on_c, 3, 48, 80
5, 24862, Note_off_c, 3, 48, 64
5, 24862, Note_off_c, 3, 52, 64
5, 24862, Note_off_c, 3, 55, 64
5, 24862, Note_off_c, 3, 60, 64
5, 24862, Note_off_c, 3, 67, 64
5, 24864, Note_on_c, 3, 72, 80
5, 24864, Note_on_c, 3, 79, 80
5, 24864, Note_on_c, 3, 67, 80
5, 24864, Note_on_c, 3, 48, 80
5, 24864, Note_on_c, 3, 52, 80
5, 24864, Note_on_c, 3, 60, 80
5, 24864, Note_on_c, 3, 55, 80
5, 25054, Note_off_c, 3, 55, 64
5, 25054, Note_off_c, 3, 60, 64
5, 25054, Note_off_c, 3, 52, 64
5, 25054, Note_off_c, 3, 48, 64
5, 25054, Note_off_c, 3, 67, 64
5, 25054, Note_off_c, 3, 79, 64
5, 25054, Note_off_c, 3, 72, 64
5, 25056, Note_on_c, 3, 55, 80
5, 25056, Note_on_c, 3, 72, 80
5, 25056, Note_on_c, 3, 76, 80
5, 25056, Note_on_c, 3, 67, 80
5, 25056, Note_on_c, 3, 60, 80
5, 25056, Note_on_c, 3, 48, 80
5, 25056, Note_on_c, 3, 52, 80
5, 25246, Note_off_c, 3, 52, 64
5, 25246, Note_off_c, 3, 48, 64
5, 25246, Note_off_c, 3, 60, 64
5, 25246, Note_off_c, 3, 67, 64
5, 25246, Note_off_c, 3, 76, 64
5, 25246, Note_off_c, 3, 72, 64
5, 25246, Note_off_c, 3, 55, 64
5, 25248, Note_on_c, 3, 48, 80
5, 25248, Note_on_c, 3, 52, 80
5, 25248, Note_on_c, 3, 55, 80
5, 25248, Note_on_c, 3, 60, 80
5, 25438, Note_off_c, 3, 60, 64
5, 25438, Note_off_c, 3, 55, 64
5, 25438, Note_off_c, 3, 52, 64
5, 25438, Note_off_c, 3, 48, 64
5, 25440, Note_on_c, 3, 48, 80
5, 25440, Note_on_c, 3, 52, 80
5, 25440, Note_on_c, 3, 55, 80
5, 25440, Note_on_c, 3, 60, 80
5, 25440, Note_on_c, 3, 64, 80
5, 25534, Note_off_c, 3, 64, 64
5, 25534, Note_off_c, 3, 60, 64
5, 25534, Note_off_c, 3, 55, 64
5, 25534, Note_off_c, 3, 52, 64
5, 25534, Note_off_c, 3, 48, 64
5, 25536, Note_on_c, 3, 48, 80
5, 25536, Note_on_c, 3, 52, 80
5, 25536, Note_on_c, 3, 55, 80
5, 25536, Note_on_c, 3, 60, 80
5, 25536, Note_on_c, 3, 64, 80
5, 25630, Note_off_c, 3, 64, 64
5, 25630, Note_off_c, 3, 60, 64
5, 25630, Note_off_c, 3, 55, 64
5, 25630, Note_off_c, 3, 52, 64
5, 25630, Note_off_c, 3, 48, 64
5, 25632, Note_on_c, 3, 59, 90
5, 25632, Note_on_c, 3, 62, 90
5, 25632, Note_on_c, 3, 54, 90
5, 25632, Note_on_c, 3, 66, 90
5, 26014, Note_off_c, 3, 66, 64
5, 26014, Note_off_c, 3, 54, 64
5, 26014, Note_off_c, 3, 62, 64
5, 26014, Note_off_c, 3, 59, 64
5, 34560, Note_on_c, 3, 40, 80
5, 34560, Note_on_c, 3, 64, 80
5, 34560, Note_on_c, 3, 52, 80
5, 34630, Note_off_c, 3, 52, 64
5, 34630, Note_off_c, 3, 64, 64
5, 34630, Note_off_c, 3, 40, 64
5, 34656, Note_on_c, 3, 40, 80
5, 34656, Note_on_c, 3, 52, 80
5, 34656, Note_on_c, 3, 64, 80
5, 34726, Note_off_c, 3, 64, 64
5, 34726, Note_off_c, 3, 52, 64
5, 34726, Note_off_c, 3, 40, 64
5, 34752, Note_on_c, 3, 40, 80
5, 34752, Note_on_c, 3, 52, 80
5, 34752, Note_on_c, 3, 64, 80
5, 34822, Note_off_c, 3, 64, 64
5, 34822, Note_off_c, 3, 52, 64
5, 34822, Note_off_c, 3, 40, 64
5, 34848, Note_on_c, 3, 40, 80
5, 34848, Note_on_c, 3, 52, 80
5, 34848, Note_on_c, 3, 64, 80
5, 34918, Note_off_c, 3, 64, 64
5, 34918, Note_off_c, 3, 52, 64
5, 34918, Note_off_c, 3, 40, 64
5, 34944, Note_on_c, 3, 40, 80
5, 34944, Note_on_c, 3, 52, 80
5, 34944, Note_on_c, 3, 64, 80
5, 35014, Note_off_c, 3, 64, 64
5, 35014, Note_off_c, 3, 52, 64
5, 35014, Note_off_c, 3, 40, 64
5, 35040, Note_on_c, 3, 40, 80
5, 35040, Note_on_c, 3, 52, 80
5, 35040, Note_on_c, 3, 64, 80
5, 35110, Note_off_c, 3, 64, 64
5, 35110, Note_off_c, 3, 52, 64
5, 35110, Note_off_c, 3, 40, 64
5, 35136, Note_on_c, 3, 40, 80
5, 35136, Note_on_c, 3, 52, 80
5, 35136, Note_on_c, 3, 64, 80
5, 35206, Note_off_c, 3, 64, 64
5, 35206, Note_off_c, 3, 52, 64
5, 35206, Note_off_c, 3, 40, 64
5, 35232, Note_on_c, 3, 40, 80
5, 35232, Note_on_c, 3, 52, 80
5, 35232, Note_on_c, 3, 64, 80
5, 35302, Note_off_c, 3, 64, 64
5, 35302, Note_off_c, 3, 52, 64
5, 35302, Note_off_c, 3, 40, 64
5, 35328, Note_on_c, 3, 40, 80
5, 35328, Note_on_c, 3, 52, 80
5, 35328, Note_on_c, 3, 64, 80
5, 35398, Note_off_c, 3, 64, 64
5, 35398, Note_off_c, 3, 52, 64
5, 35398, Note_off_c, 3, 40, 64
5, 35424, Note_on_c, 3, 40, 80
5, 35424, Note_on_c, 3, 52, 80
5, 35424, Note_on_c, 3, 64, 80
5, 35494, Note_off_c, 3, 64, 64
5, 35494, Note_off_c, 3, 52, 64
5, 35494, Note_off_c, 3, 40, 64
5, 35520, Note_on_c, 3, 40, 80
5, 35520, Note_on_c, 3, 52, 80
5, 35520, Note_on_c, 3, 64, 80
5, 35590, Note_off_c, 3, 64, 64
5, 35590, Note_off_c, 3, 52, 64
5, 35590, Note_off_c, 3, 40, 64
5, 35616, Note_on_c, 3, 40, 80
5, 35616, Note_on_c, 3, 52, 80
5, 35616, Note_on_c, 3, 64, 80
5, 35686, Note_off_c, 3, 64, 64
5, 35686, Note_off_c, 3, 52, 64
5, 35686, Note_off_c, 3, 40, 64
5, 35712, Note_on_c, 3, 40, 80
5, 35712, Note_on_c, 3, 52, 80
5, 35712, Note_on_c, 3, 64, 80
5, 35782, Note_off_c, 3, 64, 64
5, 35782, Note_off_c, 3, 52, 64
5, 35782, Note_off_c, 3, 40, 64
5, 35808, Note_on_c, 3, 40, 80
5, 35808, Note_on_c, 3, 52, 80
5, 35808, Note_on_c, 3, 64, 80
5, 35878, Note_off_c, 3, 64, 64
5, 35878, Note_off_c, 3, 52, 64
5, 35878, Note_off_c, 3, 40, 64
5, 35904, Note_on_c, 3, 40, 80
5, 35904, Note_on_c, 3, 52, 80
5, 35904, Note_on_c, 3, 64, 80
5, 35974, Note_off_c, 3, 64, 64
5, 35974, Note_off_c, 3, 52, 64
5, 35974, Note_off_c, 3, 40, 64
5, 36000, Note_on_c, 3, 40, 80
5, 36000, Note_on_c, 3, 52, 80
5, 36000, Note_on_c, 3, 64, 80
5, 36070, Note_off_c, 3, 64, 64
5, 36070, Note_off_c, 3, 52, 64
5, 36070, Note_off_c, 3, 40, 64
5, 36096, Note_on_c, 3, 40, 80
5, 36096, Note_on_c, 3, 52, 80
5, 36096, Note_on_c, 3, 64, 80
5, 36166, Note_off_c, 3, 64, 64
5, 36166, Note_off_c, 3, 52, 64
5, 36166, Note_off_c, 3, 40, 64
5, 36192, Note_on_c, 3, 40, 80
5, 36192, Note_on_c, 3, 52, 80
5, 36192, Note_on_c, 3, 64, 80
5, 36262, Note_off_c, 3, 64, 64
5, 36262, Note_off_c, 3, 52, 64
5, 36262, Note_off_c, 3, 40, 64
5, 36288, Note_on_c, 3, 40, 80
5, 36288, Note_on_c, 3, 52, 80
5, 36288, Note_on_c, 3, 64, 80
5, 36358, Note_off_c, 3, 64, 64
5, 36358, Note_off_c, 3, 52, 64
5, 36358, Note_off_c, 3, 40, 64
5, 36384, Note_on_c, 3, 40, 80
5, 36384, Note_on_c, 3, 52, 80
5, 36384, Note_on_c, 3, 64, 80
5, 36454, Note_off_c, 3, 64, 64
5, 36454, Note_off_c, 3, 52, 64
5, 36454, Note_off_c, 3, 40, 64
5, 36480, Note_on_c, 3, 64, 80
5, 36480, Note_on_c, 3, 40, 80
5, 36480, Note_on_c, 3, 52, 80
5, 36550, Note_off_c, 3, 52, 64
5, 36550, Note_off_c, 3, 40, 64
5, 36550, Note_off_c, 3, 64, 64
5, 36576, Note_on_c, 3, 40, 80
5, 36576, Note_on_c, 3, 52, 80
5, 36576, Note_on_c, 3, 64, 80
5, 36646, Note_off_c, 3, 64, 64
5, 36646, Note_off_c, 3, 52, 64
5, 36646, Note_off_c, 3, 40, 64
5, 36672, Note_on_c, 3, 40, 80
5, 36672, Note_on_c, 3, 52, 80
5, 36672, Note_on_c, 3, 64, 80
5, 36742, Note_off_c, 3, 64, 64
5, 36742, Note_off_c, 3, 52, 64
5, 36742, Note_off_c, 3, 40, 64
5, 36768, Note_on_c, 3, 40, 80
5, 36768, Note_on_c, 3, 52, 80
5, 36768, Note_on_c, 3, 64, 80
5, 36838, Note_off_c, 3, 64, 64
5, 36838, Note_off_c, 3, 52, 64
5, 36838, Note_off_c, 3, 40, 64
5, 36864, Note_on_c, 3, 40, 80
5, 36864, Note_on_c, 3, 64, 80
5, 36864, Note_on_c, 3, 52, 80
5, 36934, Note_off_c, 3, 52, 64
5, 36934, Note_off_c, 3, 64, 64
5, 36934, Note_off_c, 3, 40, 64
5, 36960, Note_on_c, 3, 62, 82
5, 36960, Note_on_c, 3, 50, 82
5, 36960, Note_on_c, 3, 38, 82
5, 37078, Note_off_c, 3, 38, 64
5, 37078, Note_off_c, 3, 50, 64
5, 37078, Note_off_c, 3, 62, 64
5, 37104, Note_on_c, 3, 69, 89
5, 37104, Note_on_c, 3, 45, 89
5, 37104, Note_on_c, 3, 57, 89
5, 37152, Note_on_c, 3, 52, 90
5, 37152, Note_on_c, 3, 64, 90
5, 37222, Note_off_c, 3, 57, 64
5, 37222, Note_off_c, 3, 45, 64
5, 37222, Note_off_c, 3, 69, 64
5, 37248, Note_on_c, 3, 74, 97
5, 37248, Note_on_c, 3, 50, 97
5, 37248, Note_on_c, 3, 62, 97
5, 37270, Note_off_c, 3, 52, 64
5, 37270, Note_off_c, 3, 64, 64
5, 37296, Note_on_c, 3, 52, 100
5, 37296, Note_on_c, 3, 64, 100
5, 37366, Note_off_c, 3, 74, 64
5, 37366, Note_off_c, 3, 50, 64
5, 37366, Note_off_c, 3, 62, 64
5, 37392, Note_on_c, 3, 69, 100
5, 37392, Note_on_c, 3, 45, 100
5, 37392, Note_on_c, 3, 57, 100
5, 37414, Note_off_c, 3, 52, 64
5, 37414, Note_off_c, 3, 64, 64
5, 37440, Note_on_c, 3, 52, 100
5, 37440, Note_on_c, 3, 64, 100
5, 37510, Note_off_c, 3, 69, 64
5, 37510, Note_off_c, 3, 45, 64
5, 37510, Note_off_c, 3, 57, 64
5, 37536, Note_on_c, 3, 74, 100
5, 37536, Note_on_c, 3, 50, 100
5, 37536, Note_on_c, 3, 62, 100
5, 37558, Note_off_c, 3, 52, 64
5, 37558, Note_off_c, 3, 64, 64
5, 37584, Note_on_c, 3, 52, 97
5, 37584, Note_on_c, 3, 64, 97
5, 37606, Note_off_c, 3, 74, 64
5, 37606, Note_off_c, 3, 50, 64
5, 37606, Note_off_c, 3, 62, 64
5, 37632, Note_on_c, 3, 69, 93
5, 37632, Note_on_c, 3, 45, 93
5, 37632, Note_on_c, 3, 57, 93
5, 37654, Note_off_c, 3, 52, 64
5, 37654, Note_off_c, 3, 64, 64
5, 37680, Note_on_c, 3, 52, 85
5, 37680, Note_on_c, 3, 64, 85
5, 37702, Note_off_c, 3, 69, 64
5, 37702, Note_off_c, 3, 45, 64
5, 37702, Note_off_c, 3, 57, 64
5, 37726, Note_off_c, 3, 52, 64
5, 37726, Note_off_c, 3, 64, 64
5, 37728, Note_on_c, 3, 40, 80
5, 37728, Note_on_c, 3, 52, 80
5, 37728, Note_on_c, 3, 64, 80
5, 37798, Note_off_c, 3, 64, 64
5, 37798, Note_off_c, 3, 52, 64
5, 37798, Note_off_c, 3, 40, 64
5, 37824, Note_on_c, 3, 40, 80
5, 37824, Note_on_c, 3, 52, 80
5, 37824, Note_on_c, 3, 64, 80
5, 37894, Note_off_c, 3, 64, 64
5, 37894, Note_off_c, 3, 52, 64
5, 37894, Note_off_c, 3, 40, 64
5, 37920, Note_on_c, 3, 40, 80
5, 37920, Note_on_c, 3, 52, 80
5, 37920, Note_on_c, 3, 64, 80
5, 37990, Note_off_c, 3, 64, 64
5, 37990, Note_off_c, 3, 52, 64
5, 37990, Note_off_c, 3, 40, 64
5, 38016, Note_on_c, 3, 40, 80
5, 38016, Note_on_c, 3, 52, 80
5, 38016, Note_on_c, 3, 64, 80
5, 38086, Note_off_c, 3, 64, 64
5, 38086, Note_off_c, 3, 52, 64
5, 38086, Note_off_c, 3, 40, 64
5, 38160, Note_on_c, 3, 57, 81
5, 38160, Note_on_c, 3, 47, 81
5, 38160, Note_on_c, 3, 61, 81
5, 38160, Note_on_c, 3, 66, 81
5, 38230, Note_off_c, 3, 66, 64
5, 38230, Note_off_c, 3, 61, 64
5, 38230, Note_off_c, 3, 47, 64
5, 38230, Note_off_c, 3, 57, 64
5, 38304, Note_on_c, 3, 47, 100
5, 38304, Note_on_c, 3, 57, 100
5, 38304, Note_on_c, 3, 61, 100
5, 38304, Note_on_c, 3, 66, 100
5, 38494, Note_off_c, 3, 66, 64
5, 38494, Note_off_c, 3, 61, 64
5, 38494, Note_off_c, 3, 57, 64
5, 38494, Note_off_c, 3, 47, 64
5, 38496, Note_on_c, 3, 64, 80
5, 38496, Note_on_c, 3, 40, 80
5, 38496, Note_on_c, 3, 52, 80
5, 38558, Note_off_c, 3, 52, 64
5, 38558, Note_off_c, 3, 40, 64
5, 38558, Note_off_c, 3, 64, 64
5, 38560, Note_on_c, 3, 64, 80
5, 38560, Note_on_c, 3, 40, 80
5, 38560, Note_on_c, 3, 52, 80
5, 38606, Note_off_c, 3, 52, 64
5, 38606, Note_off_c, 3, 40, 64
5, 38606, Note_off_c, 3, 64, 64
5, 38656, Note_on_c, 3, 64, 80
5, 38656, Note_on_c, 3, 52, 80
5, 38656, Note_on_c, 3, 40, 80
5, 38798, Note_off_c, 3, 40, 64
5, 38798, Note_off_c, 3, 52, 64
5, 38798, Note_off_c, 3, 64, 64
5, 38880, Note_on_c, 3, 47, 81
5, 38880, Note_on_c, 3, 57, 81
5, 38880, Note_on_c, 3, 61, 81
5, 38880, Note_on_c, 3, 66, 81
5, 38942, Note_off_c, 3, 66, 64
5, 38942, Note_off_c, 3, 61, 64
5, 38942, Note_off_c, 3, 57, 64
5, 38942, Note_off_c, 3, 47, 64
5, 38944, Note_on_c, 3, 47, 83
5, 38944, Note_on_c, 3, 57, 83
5, 38944, Note_on_c, 3, 61, 83
5, 38944, Note_on_c, 3, 66, 83
5, 38990, Note_off_c, 3, 66, 64
5, 38990, Note_off_c, 3, 61, 64
5, 38990, Note_off_c, 3, 57, 64
5, 38990, Note_off_c, 3, 47, 64
5, 39072, Note_on_c, 3, 66, 83
5, 39072, Note_on_c, 3, 61, 83
5, 39072, Note_on_c, 3, 57, 83
5, 39072, Note_on_c, 3, 47, 83
5, 39262, Note_off_c, 3, 47, 64
5, 39262, Note_off_c, 3, 57, 64
5, 39262, Note_off_c, 3, 61, 64
5, 39262, Note_off_c, 3, 66, 64
5, 39360, Note_on_c, 3, 47, 94
5, 39360, Note_on_c, 3, 57, 94
5, 39360, Note_on_c, 3, 61, 94
5, 39360, Note_on_c, 3, 66, 94
5, 39422, Note_off_c, 3, 66, 64
5, 39422, Note_off_c, 3, 61, 64
5, 39422, Note_off_c, 3, 57, 64
5, 39422, Note_off_c, 3, 47, 64
5, 39456, Note_on_c, 3, 47, 99
5, 39456, Note_on_c, 3, 57, 99
5, 39456, Note_on_c, 3, 61, 99
5, 39456, Note_on_c, 3, 66, 99
5, 39518, Note_off_c, 3, 66, 64
5, 39518, Note_off_c, 3, 61, 64
5, 39518, Note_off_c, 3, 57, 64
5, 39518, Note_off_c, 3, 47, 64
5, 39648, Note_on_c, 3, 64, 80
5, 39648, Note_on_c, 3, 40, 80
5, 39648, Note_on_c, 3, 52, 80
5, 39710, Note_off_c, 3, 52, 64
5, 39710, Note_off_c, 3, 40, 64
5, 39710, Note_off_c, 3, 64, 64
5, 39712, Note_on_c, 3, 40, 80
5, 39712, Note_on_c, 3, 52, 80
5, 39712, Note_on_c, 3, 64, 80
5, 39758, Note_off_c, 3, 64, 64
5, 39758, Note_off_c, 3, 52, 64
5, 39758, Note_off_c, 3, 40, 64
5, 39808, Note_on_c, 3, 40, 80
5, 39808, Note_on_c, 3, 64, 80
5, 39808, Note_on_c, 3, 52, 80
5, 39998, Note_off_c, 3, 52, 64
5, 39998, Note_off_c, 3, 64, 64
5, 39998, Note_off_c, 3, 40, 64
5, 40032, Note_on_c, 3, 40, 80
5, 40032, Note_on_c, 3, 52, 80
5, 40032, Note_on_c, 3, 64, 80
5, 40094, Note_off_c, 3, 64, 64
5, 40094, Note_off_c, 3, 52, 64
5, 40094, Note_off_c, 3, 40, 64
5, 40096, Note_on_c, 3, 40, 80
5, 40096, Note_on_c, 3, 52, 80
5, 40096, Note_on_c, 3, 64, 80
5, 40142, Note_off_c, 3, 64, 64
5, 40142, Note_off_c, 3, 52, 64
5, 40142, Note_off_c, 3, 40, 64
5, 40192, Note_on_c, 3, 64, 80
5, 40192, Note_on_c, 3, 52, 80
5, 40192, Note_on_c, 3, 40, 80
5, 40382, Note_off_c, 3, 40, 64
5, 40382, Note_off_c, 3, 52, 64
5, 40382, Note_off_c, 3, 64, 64
5, 40416, Note_on_c, 3, 40, 80
5, 40416, Note_on_c, 3, 52, 80
5, 40416, Note_on_c, 3, 64, 80
5, 40478, Note_off_c, 3, 64, 64
5, 40478, Note_off_c, 3, 52, 64
5, 40478, Note_off_c, 3, 40, 64
5, 40480, Note_on_c, 3, 64, 80
5, 40480, Note_on_c, 3, 52, 80
5, 40480, Note_on_c, 3, 40, 80
5, 40526, Note_off_c, 3, 40, 64
5, 40526, Note_off_c, 3, 52, 64
5, 40526, Note_off_c, 3, 64, 64
5, 40576, Note_on_c, 3, 40, 80
5, 40576, Note_on_c, 3, 52, 80
5, 40576, Note_on_c, 3, 64, 80
5, 40766, Note_off_c, 3, 64, 64
5, 40766, Note_off_c, 3, 52, 64
5, 40766, Note_off_c, 3, 40, 64
5, 40800, Note_on_c, 3, 62, 84
5, 40800, Note_on_c, 3, 50, 84
5, 40800, Note_on_c, 3, 38, 84
5, 40918, Note_off_c, 3, 38, 64
5, 40918, Note_off_c, 3, 50, 64
5, 40918, Note_off_c, 3, 62, 64
5, 40944, Note_on_c, 3, 69, 92
5, 40944, Note_on_c, 3, 45, 92
5, 40944, Note_on_c, 3, 57, 92
5, 40992, Note_on_c, 3, 52, 95
5, 40992, Note_on_c, 3, 64, 95
5, 41062, Note_off_c, 3, 57, 64
5, 41062, Note_off_c, 3, 45, 64
5, 41062, Note_off_c, 3, 69, 64
5, 41088, Note_on_c, 3, 74, 100
5, 41088, Note_on_c, 3, 50, 100
5, 41088, Note_on_c, 3, 62, 100
5, 41110, Note_off_c, 3, 52, 64
5, 41110, Note_off_c, 3, 64, 64
5, 41136, Note_on_c, 3, 52, 100
5, 41136, Note_on_c, 3, 64, 100
5, 41206, Note_off_c, 3, 74, 64
5, 41206, Note_off_c, 3, 50, 64
5, 41206, Note_off_c, 3, 62, 64
5, 41232, Note_on_c, 3, 69, 100
5, 41232, Note_on_c, 3, 45, 100
5, 41232, Note_on_c, 3, 57, 100
5, 41254, Note_off_c, 3, 52, 64
5, 41254, Note_off_c, 3, 64, 64
5, 41280, Note_on_c, 3, 52, 100
5, 41280, Note_on_c, 3, 64, 100
5, 41350, Note_off_c, 3, 69, 64
5, 41350, Note_off_c, 3, 45, 64
5, 41350, Note_off_c, 3, 57, 64
5, 41376, Note_on_c, 3, 74, 100
5, 41376, Note_on_c, 3, 50, 100
5, 41376, Note_on_c, 3, 62, 100
5, 41398, Note_off_c, 3, 52, 64
5, 41398, Note_off_c, 3, 64, 64
5, 41424, Note_on_c, 3, 52, 100
5, 41424, Note_on_c, 3, 64, 100
5, 41446, Note_off_c, 3, 74, 64
5, 41446, Note_off_c, 3, 50, 64
5, 41446, Note_off_c, 3, 62, 64
5, 41472, Note_on_c, 3, 69, 93
5, 41472, Note_on_c, 3, 45, 93
5, 41472, Note_on_c, 3, 57, 93
5, 41494, Note_off_c, 3, 52, 64
5, 41494, Note_off_c, 3, 64, 64
5, 41520, Note_on_c, 3, 52, 87
5, 41520, Note_on_c, 3, 64, 87
5, 41542, Note_off_c, 3, 69, 64
5, 41542, Note_off_c, 3, 45, 64
5, 41542, Note_off_c, 3, 57, 64
5, 41566, Note_off_c, 3, 52, 64
5, 41566, Note_off_c, 3, 64, 64
5, 41568, Note_on_c, 3, 64, 80
5, 41568, Note_on_c, 3, 40, 80
5, 41568, Note_on_c, 3, 52, 80
5, 41630, Note_off_c, 3, 52, 64
5, 41630, Note_off_c, 3, 40, 64
5, 41630, Note_off_c, 3, 64, 64
5, 41632, Note_on_c, 3, 40, 80
5, 41632, Note_on_c, 3, 52, 80
5, 41632, Note_on_c, 3, 64, 80
5, 41678, Note_off_c, 3, 64, 64
5, 41678, Note_off_c, 3, 52, 64
5, 41678, Note_off_c, 3, 40, 64
5, 41728, Note_on_c, 3, 40, 80
5, 41728, Note_on_c, 3, 64, 80
5, 41728, Note_on_c, 3, 52, 80
5, 41918, Note_off_c, 3, 52, 64
5, 41918, Note_off_c, 3, 64, 64
5, 41918, Note_off_c, 3, 40, 64
5, 41952, Note_on_c, 3, 61, 80
5, 41952, Note_on_c, 3, 57, 80
5, 41952, Note_on_c, 3, 47, 80
5, 41952, Note_on_c, 3, 66, 80
5, 42014, Note_off_c, 3, 66, 64
5, 42014, Note_off_c, 3, 47, 64
5, 42014, Note_off_c, 3, 57, 64
5, 42014, Note_off_c, 3, 61, 64
5, 42016, Note_on_c, 3, 61, 88
5, 42016, Note_on_c, 3, 57, 88
5, 42016, Note_on_c, 3, 47, 88
5, 42016, Note_on_c, 3, 66, 88
5, 42062, Note_off_c, 3, 66, 64
5, 42062, Note_off_c, 3, 47, 64
5, 42062, Note_off_c, 3, 57, 64
5, 42062, Note_off_c, 3, 61, 64
5, 42112, Note_on_c, 3, 63, 99
5, 42112, Note_on_c, 3, 57, 99
5, 42112, Note_on_c, 3, 47, 99
5, 42112, Note_on_c, 3, 66, 99
5, 42302, Note_off_c, 3, 66, 64
5, 42302, Note_off_c, 3, 47, 64
5, 42302, Note_off_c, 3, 57, 64
5, 42302, Note_off_c, 3, 63, 64
5, 42336, Note_on_c, 3, 40, 80
5, 42336, Note_on_c, 3, 52, 80
5, 42336, Note_on_c, 3, 64, 80
5, 42398, Note_off_c, 3, 64, 64
5, 42398, Note_off_c, 3, 52, 64
5, 42398, Note_off_c, 3, 40, 64
5, 42400, Note_on_c, 3, 64, 80
5, 42400, Note_on_c, 3, 52, 80
5, 42400, Note_on_c, 3, 40, 80
5, 42446, Note_off_c, 3, 40, 64
5, 42446, Note_off_c, 3, 52, 64
5, 42446, Note_off_c, 3, 64, 64
5, 42496, Note_on_c, 3, 40, 80
5, 42496, Note_on_c, 3, 52, 80
5, 42496, Note_on_c, 3, 64, 80
5, 42686, Note_off_c, 3, 64, 64
5, 42686, Note_off_c, 3, 52, 64
5, 42686, Note_off_c, 3, 40, 64
5, 42720, Note_on_c, 3, 61, 80
5, 42720, Note_on_c, 3, 57, 80
5, 42720, Note_on_c, 3, 47, 80
5, 42720, Note_on_c, 3, 66, 80
5, 42782, Note_off_c, 3, 66, 64
5, 42782, Note_off_c, 3, 47, 64
5, 42782, Note_off_c, 3, 57, 64
5, 42782, Note_off_c, 3, 61, 64
5, 42784, Note_on_c, 3, 61, 86
5, 42784, Note_on_c, 3, 57, 86
5, 42784, Note_on_c, 3, 47, 86
5, 42784, Note_on_c, 3, 66, 86
5, 42830, Note_off_c, 3, 66, 64
5, 42830, Note_off_c, 3, 47, 64
5, 42830, Note_off_c, 3, 57, 64
5, 42830, Note_off_c, 3, 61, 64
5, 42880, Note_on_c, 3, 61, 95
5, 42880, Note_on_c, 3, 57, 95
5, 42880, Note_on_c, 3, 47, 95
5, 42880, Note_on_c, 3, 66, 95
5, 43070, Note_off_c, 3, 66, 64
5, 43070, Note_off_c, 3, 47, 64
5, 43070, Note_off_c, 3, 57, 64
5, 43070, Note_off_c, 3, 61, 64
5, 50784, Note_on_c, 3, 59, 80
5, 50784, Note_on_c, 3, 55, 80
5, 50784, Note_on_c, 3, 50, 80
5, 50974, Note_off_c, 3, 50, 64
5, 50974, Note_off_c, 3, 55, 64
5, 50974, Note_off_c, 3, 59, 64
5, 50976, Note_on_c, 3, 59, 80
5, 50976, Note_on_c, 3, 55, 80
5, 50976, Note_on_c, 3, 50, 80
5, 51166, Note_off_c, 3, 50, 64
5, 51166, Note_off_c, 3, 55, 64
5, 51166, Note_off_c, 3, 59, 64
5, 51168, Note_on_c, 3, 54, 80
5, 51168, Note_on_c, 3, 59, 80
5, 51168, Note_on_c, 3, 50, 80
5, 51358, Note_off_c, 3, 50, 64
5, 51358, Note_off_c, 3, 59, 64
5, 51358, Note_off_c, 3, 54, 64
5, 51360, Note_on_c, 3, 54, 80
5, 51360, Note_on_c, 3, 59, 80
5, 51360, Note_on_c, 3, 50, 80
5, 51550, Note_off_c, 3, 50, 64
5, 51550, Note_off_c, 3, 59, 64
5, 51550, Note_off_c, 3, 54, 64
5, 51552, Note_on_c, 3, 55, 80
5, 51552, Note_on_c, 3, 59, 80
5, 51552, Note_on_c, 3, 52, 80
5, 51742, Note_off_c, 3, 52, 64
5, 51742, Note_off_c, 3, 59, 64
5, 51742, Note_off_c, 3, 55, 64
5, 51744, Note_on_c, 3, 55, 80
5, 51744, Note_on_c, 3, 59, 80
5, 51744, Note_on_c, 3, 52, 80
5, 51934, Note_off_c, 3, 52, 64
5, 51934, Note_off_c, 3, 59, 64
5, 51934, Note_off_c, 3, 55, 64
5, 51936, Note_on_c, 3, 52, 80
5, 51936, Note_on_c, 3, 55, 80
5, 51936, Note_on_c, 3, 59, 80
5, 51936, Note_on_c, 3, 50, 80
5, 52126, Note_off_c, 3, 50, 64
5, 52126, Note_off_c, 3, 59, 64
5, 52126, Note_off_c, 3, 55, 64
5, 52126, Note_off_c, 3, 52, 64
5, 52128, Note_on_c, 3, 52, 80
5, 52128, Note_on_c, 3, 55, 80
5, 52128, Note_on_c, 3, 59, 80
5, 52128, Note_on_c, 3, 50, 80
5, 52318, Note_off_c, 3, 50, 64
5, 52318, Note_off_c, 3, 59, 64
5, 52318, Note_off_c, 3, 55, 64
5, 52318, Note_off_c, 3, 52, 64
5, 52320, Note_on_c, 3, 52, 80
5, 52320, Note_on_c, 3, 48, 80
5, 52320, Note_on_c, 3, 55, 80
5, 52510, Note_off_c, 3, 55, 64
5, 52510, Note_off_c, 3, 48, 64
5, 52510, Note_off_c, 3, 52, 64
5, 52512, Note_on_c, 3, 52, 80
5, 52512, Note_on_c, 3, 48, 80
5, 52512, Note_on_c, 3, 55, 80
5, 52702, Note_off_c, 3, 55, 64
5, 52702, Note_off_c, 3, 48, 64
5, 52702, Note_off_c, 3, 52, 64
5, 52704, Note_on_c, 3, 52, 80
5, 52704, Note_on_c, 3, 55, 80
5, 52704, Note_on_c, 3, 47, 80
5, 52894, Note_off_c, 3, 47, 64
5, 52894, Note_off_c, 3, 55, 64
5, 52894, Note_off_c, 3, 52, 64
5, 52896, Note_on_c, 3, 52, 80
5, 52896, Note_on_c, 3, 55, 80
5, 52896, Note_on_c, 3, 47, 80
5, 53086, Note_off_c, 3, 47, 64
5, 53086, Note_off_c, 3, 55, 64
5, 53086, Note_off_c, 3, 52, 64
5, 53088, Note_on_c, 3, 52, 80
5, 53088, Note_on_c, 3, 48, 80
5, 53088, Note_on_c, 3, 57, 80
5, 53278, Note_off_c, 3, 57, 64
5, 53278, Note_off_c, 3, 48, 64
5, 53278, Note_off_c, 3, 52, 64
5, 53280, Note_on_c, 3, 52, 80
5, 53280, Note_on_c, 3, 48, 80
5, 53280, Note_on_c, 3, 57, 80
5, 53470, Note_off_c, 3, 57, 64
5, 53470, Note_off_c, 3, 48, 64
5, 53470, Note_off_c, 3, 52, 64
5, 53472, Note_on_c, 3, 55, 80
5, 53472, Note_on_c, 3, 48, 80
5, 53472, Note_on_c, 3, 52, 80
5, 53552, Note_on_c, 3, 60, 90
5, 53552, Note_on_c, 3, 59, 90
5, 53630, Note_off_c, 3, 59, 64
5, 53630, Note_off_c, 3, 60, 64
5, 53632, Note_on_c, 3, 57, 80
5, 53662, Note_off_c, 3, 52, 64
5, 53662, Note_off_c, 3, 48, 64
5, 53662, Note_off_c, 3, 55, 64
5, 53662, Note_off_c, 3, 57, 64
5, 53664, Note_on_c, 3, 60, 90
5, 53664, Note_on_c, 3, 59, 90
5, 53664, Note_on_c, 3, 48, 80
5, 53664, Note_on_c, 3, 52, 80
5, 53664, Note_on_c, 3, 55, 80
5, 53726, Note_off_c, 3, 59, 64
5, 53726, Note_off_c, 3, 60, 64
5, 53728, Note_on_c, 3, 57, 80
5, 53774, Note_off_c, 3, 57, 64
5, 53854, Note_off_c, 3, 48, 64
5, 53854, Note_off_c, 3, 52, 64
5, 53854, Note_off_c, 3, 55, 64
5, 53856, Note_on_c, 3, 59, 80
5, 53856, Note_on_c, 3, 55, 80
5, 53856, Note_on_c, 3, 50, 80
5, 54046, Note_off_c, 3, 50, 64
5, 54046, Note_off_c, 3, 55, 64
5, 54046, Note_off_c, 3, 59, 64
5, 54048, Note_on_c, 3, 59, 80
5, 54048, Note_on_c, 3, 55, 80
5, 54048, Note_on_c, 3, 50, 80
5, 54238, Note_off_c, 3, 50, 64
5, 54238, Note_off_c, 3, 55, 64
5, 54238, Note_off_c, 3, 59, 64
5, 54240, Note_on_c, 3, 54, 80
5, 54240, Note_on_c, 3, 59, 80
5, 54240, Note_on_c, 3, 50, 80
5, 54430, Note_off_c, 3, 50, 64
5, 54430, Note_off_c, 3, 59, 64
5, 54430, Note_off_c, 3, 54, 64
5, 54432, Note_on_c, 3, 54, 80
5, 54432, Note_on_c, 3, 59, 80
5, 54432, Note_on_c, 3, 50, 80
5, 54622, Note_off_c, 3, 50, 64
5, 54622, Note_off_c, 3, 59, 64
5, 54622, Note_off_c, 3, 54, 64
5, 54624, Note_on_c, 3, 55, 80
5, 54624, Note_on_c, 3, 59, 80
5, 54624, Note_on_c, 3, 52, 80
5, 54814, Note_off_c, 3, 52, 64
5, 54814, Note_off_c, 3, 59, 64
5, 54814, Note_off_c, 3, 55, 64
5, 54816, Note_on_c, 3, 55, 80
5, 54816, Note_on_c, 3, 59, 80
5, 54816, Note_on_c, 3, 52, 80
5, 55006, Note_off_c, 3, 52, 64
5, 55006, Note_off_c, 3, 59, 64
5, 55006, Note_off_c, 3, 55, 64
5, 55008, Note_on_c, 3, 52, 80
5, 55008, Note_on_c, 3, 55, 80
5, 55008, Note_on_c, 3, 59, 80
5, 55008, Note_on_c, 3, 50, 80
5, 55198, Note_off_c, 3, 50, 64
5, 55198, Note_off_c, 3, 59, 64
5, 55198, Note_off_c, 3, 55, 64
5, 55198, Note_off_c, 3, 52, 64
5, 55200, Note_on_c, 3, 52, 80
5, 55200, Note_on_c, 3, 55, 80
5, 55200, Note_on_c, 3, 59, 80
5, 55200, Note_on_c, 3, 50, 80
5, 55390, Note_off_c, 3, 50, 64
5, 55390, Note_off_c, 3, 59, 64
5, 55390, Note_off_c, 3, 55, 64
5, 55390, Note_off_c, 3, 52, 64
5, 55392, Note_on_c, 3, 52, 80
5, 55392, Note_on_c, 3, 48, 80
5, 55392, Note_on_c, 3, 55, 80
5, 55582, Note_off_c, 3, 55, 64
5, 55582, Note_off_c, 3, 48, 64
5, 55582, Note_off_c, 3, 52, 64
5, 55584, Note_on_c, 3, 52, 80
5, 55584, Note_on_c, 3, 48, 80
5, 55584, Note_on_c, 3, 55, 80
5, 55774, Note_off_c, 3, 55, 64
5, 55774, Note_off_c, 3, 48, 64
5, 55774, Note_off_c, 3, 52, 64
5, 55776, Note_on_c, 3, 48, 80
5, 55776, Note_on_c, 3, 53, 80
5, 55776, Note_on_c, 3, 57, 80
5, 55966, Note_off_c, 3, 57, 64
5, 55966, Note_off_c, 3, 53, 64
5, 55966, Note_off_c, 3, 48, 64
5, 55968, Note_on_c, 3, 48, 80
5, 55968, Note_on_c, 3, 53, 80
5, 55968, Note_on_c, 3, 57, 80
5, 56158, Note_off_c, 3, 57, 64
5, 56158, Note_off_c, 3, 53, 64
5, 56158, Note_off_c, 3, 48, 64
5, 56160, Note_on_c, 3, 59, 80
5, 56160, Note_on_c, 3, 55, 80
5, 56160, Note_on_c, 3, 52, 80
5, 56350, Note_off_c, 3, 52, 64
5, 56350, Note_off_c, 3, 55, 64
5, 56350, Note_off_c, 3, 59, 64
5, 56352, Note_on_c, 3, 59, 80
5, 56352, Note_on_c, 3, 55, 80
5, 56352, Note_on_c, 3, 52, 80
5, 56542, Note_off_c, 3, 52, 64
5, 56542, Note_off_c, 3, 55, 64
5, 56542, Note_off_c, 3, 59, 64
5, 56544, Note_on_c, 3, 50, 80
5, 56544, Note_on_c, 3, 59, 80
5, 56544, Note_on_c, 3, 55, 80
5, 56544, Note_on_c, 3, 52, 80
5, 56734, Note_off_c, 3, 52, 64
5, 56734, Note_off_c, 3, 55, 64
5, 56734, Note_off_c, 3, 59, 64
5, 56734, Note_off_c, 3, 50, 64
5, 56736, Note_on_c, 3, 50, 80
5, 56736, Note_on_c, 3, 59, 80
5, 56736, Note_on_c, 3, 52, 80
5, 56736, Note_on_c, 3, 55, 80
5, 56926, Note_off_c, 3, 55, 64
5, 56926, Note_off_c, 3, 52, 64
5, 56926, Note_off_c, 3, 59, 64
5, 56926, Note_off_c, 3, 50, 64
5, 56928, Note_on_c, 3, 67, 80
5, 56928, Note_on_c, 3, 60, 80
5, 56928, Note_on_c, 3, 55, 80
5, 56928, Note_on_c, 3, 52, 80
5, 56928, Note_on_c, 3, 48, 80
5, 57118, Note_off_c, 3, 48, 64
5, 57118, Note_off_c, 3, 52, 64
5, 57118, Note_off_c, 3, 55, 64
5, 57118, Note_off_c, 3, 60, 64
5, 57118, Note_off_c, 3, 67, 64
5, 57120, Note_on_c, 3, 67, 80
5, 57120, Note_on_c, 3, 60, 80
5, 57120, Note_on_c, 3, 55, 80
5, 57120, Note_on_c, 3, 52, 80
5, 57120, Note_on_c, 3, 48, 80
5, 57310, Note_off_c, 3, 48, 64
5, 57310, Note_off_c, 3, 52, 64
5, 57310, Note_off_c, 3, 55, 64
5, 57310, Note_off_c, 3, 60, 64
5, 57310, Note_off_c, 3, 67, 64
5, 57312, Note_on_c, 3, 72, 80
5, 57312, Note_on_c, 3, 79, 80
5, 57312, Note_on_c, 3, 67, 80
5, 57312, Note_on_c, 3, 48, 80
5, 57312, Note_on_c, 3, 52, 80
5, 57312, Note_on_c, 3, 60, 80
5, 57312, Note_on_c, 3, 55, 80
5, 57502, Note_off_c, 3, 55, 64
5, 57502, Note_off_c, 3, 60, 64
5, 57502, Note_off_c, 3, 52, 64
5, 57502, Note_off_c, 3, 48, 64
5, 57502, Note_off_c, 3, 67, 64
5, 57502, Note_off_c, 3, 79, 64
5, 57502, Note_off_c, 3, 72, 64
5, 57504, Note_on_c, 3, 55, 80
5, 57504, Note_on_c, 3, 72, 80
5, 57504, Note_on_c, 3, 76, 80
5, 57504, Note_on_c, 3, 67, 80
5, 57504, Note_on_c, 3, 60, 80
5, 57504, Note_on_c, 3, 48, 80
5, 57504, Note_on_c, 3, 52, 80
5, 57694, Note_off_c, 3, 52, 64
5, 57694, Note_off_c, 3, 48, 64
5, 57694, Note_off_c, 3, 60, 64
5, 57694, Note_off_c, 3, 67, 64
5, 57694, Note_off_c, 3, 76, 64
5, 57694, Note_off_c, 3, 72, 64
5, 57694, Note_off_c, 3, 55, 64
5, 57696, Note_on_c, 3, 48, 80
5, 57696, Note_on_c, 3, 52, 80
5, 57696, Note_on_c, 3, 55, 80
5, 57696, Note_on_c, 3, 60, 80
5, 57886, Note_off_c, 3, 60, 64
5, 57886, Note_off_c, 3, 55, 64
5, 57886, Note_off_c, 3, 52, 64
5, 57886, Note_off_c, 3, 48, 64
5, 57888, Note_on_c, 3, 48, 80
5, 57888, Note_on_c, 3, 52, 80
5, 57888, Note_on_c, 3, 55, 80
5, 57888, Note_on_c, 3, 60, 80
5, 57888, Note_on_c, 3, 64, 80
5, 57982, Note_off_c, 3, 64, 64
5, 57982, Note_off_c, 3, 60, 64
5, 57982, Note_off_c, 3, 55, 64
5, 57982, Note_off_c, 3, 52, 64
5, 57982, Note_off_c, 3, 48, 64
5, 57984, Note_on_c, 3, 48, 80
5, 57984, Note_on_c, 3, 52, 80
5, 57984, Note_on_c, 3, 55, 80
5, 57984, Note_on_c, 3, 60, 80
5, 57984, Note_on_c, 3, 64, 80
5, 58078, Note_off_c, 3, 64, 64
5, 58078, Note_off_c, 3, 60, 64
5, 58078, Note_off_c, 3, 55, 64
5, 58078, Note_off_c, 3, 52, 64
5, 58078, Note_off_c, 3, 48, 64
5, 58080, Note_on_c, 3, 54, 100
5, 58462, Note_off_c, 3, 54, 64
5, 58464, Note_on_c, 3, 55, 100
5, 58464, Note_on_c, 3, 52, 90
5, 58464, Note_on_c, 3, 64, 90
5, 58542, Note_off_c, 3, 64, 64
5, 58560, Note_on_c, 3, 64, 90
5, 58638, Note_off_c, 3, 64, 64
5, 58656, Note_on_c, 3, 64, 90
5, 58734, Note_off_c, 3, 64, 64
5, 58752, Note_on_c, 3, 64, 90
5, 58830, Note_off_c, 3, 64, 64
5, 58846, Note_off_c, 3, 52, 64
5, 58846, Note_off_c, 3, 55, 64
5, 58848, Note_on_c, 3, 52, 90
5, 58848, Note_on_c, 3, 64, 90
5, 58848, Note_on_c, 3, 57, 100
5, 58926, Note_off_c, 3, 64, 64
5, 58926, Note_off_c, 3, 52, 64
5, 58944, Note_on_c, 3, 52, 90
5, 58944, Note_on_c, 3, 64, 90
5, 59022, Note_off_c, 3, 64, 64
5, 59022, Note_off_c, 3, 52, 64
5, 59040, Note_on_c, 3, 52, 90
5, 59040, Note_on_c, 3, 64, 90
5, 59118, Note_off_c, 3, 64, 64
5, 59118, Note_off_c, 3, 52, 64
5, 59136, Note_on_c, 3, 52, 90
5, 59136, Note_on_c, 3, 64, 90
5, 59214, Note_off_c, 3, 64, 64
5, 59214, Note_off_c, 3, 52, 64
5, 59230, Note_off_c, 3, 57, 64
5, 59232, Note_on_c, 3, 59, 100
5, 59232, Note_on_c, 3, 52, 90
5, 59232, Note_on_c, 3, 64, 90
5, 59310, Note_off_c, 3, 64, 64
5, 59310, Note_off_c, 3, 52, 64
5, 59328, Note_on_c, 3, 52, 90
5, 59328, Note_on_c, 3, 64, 90
5, 59406, Note_off_c, 3, 64, 64
5, 59406, Note_off_c, 3, 52, 64
5, 59424, Note_on_c, 3, 52, 90
5, 59424, Note_on_c, 3, 64, 90
5, 59502, Note_off_c, 3, 64, 64
5, 59502, Note_off_c, 3, 52, 64
5, 59520, Note_on_c, 3, 64, 90
5, 59520, Note_on_c, 3, 52, 90
5, 59598, Note_off_c, 3, 52, 64
5, 59598, Note_off_c, 3, 64, 64
5, 59614, Note_off_c, 3, 59, 64
5, 59616, Note_on_c, 3, 52, 90
5, 59616, Note_on_c, 3, 64, 90
5, 59616, Note_on_c, 3, 60, 100
5, 59694, Note_off_c, 3, 64, 64
5, 59694, Note_off_c, 3, 52, 64
5, 59712, Note_on_c, 3, 52, 90
5, 59712, Note_on_c, 3, 64, 90
5, 59790, Note_off_c, 3, 64, 64
5, 59790, Note_off_c, 3, 52, 64
5, 59808, Note_on_c, 3, 52, 90
5, 59808, Note_on_c, 3, 64, 90
5, 59886, Note_off_c, 3, 64, 64
5, 59886, Note_off_c, 3, 52, 64
5, 59904, Note_on_c, 3, 52, 90
5, 59904, Note_on_c, 3, 64, 90
5, 59982, Note_off_c, 3, 64, 64
5, 59982, Note_off_c, 3, 52, 64
5, 59998, Note_off_c, 3, 60, 64
5, 60000, Note_on_c, 3, 62, 100
5, 60000, Note_on_c, 3, 52, 90
5, 60000, Note_on_c, 3, 64, 90
5, 60078, Note_off_c, 3, 64, 64
5, 60078, Note_off_c, 3, 52, 64
5, 60096, Note_on_c, 3, 52, 90
5, 60096, Note_on_c, 3, 64, 90
5, 60174, Note_off_c, 3, 64, 64
5, 60174, Note_off_c, 3, 52, 64
5, 60192, Note_on_c, 3, 52, 90
5, 60192, Note_on_c, 3, 64, 90
5, 60270, Note_off_c, 3, 64, 64
5, 60270, Note_off_c, 3, 52, 64
5, 60288, Note_on_c, 3, 64, 90
5, 60288, Note_on_c, 3, 52, 90
5, 60366, Note_off_c, 3, 52, 64
5, 60366, Note_off_c, 3, 64, 64
5, 60382, Note_off_c, 3, 62, 64
5, 60384, Note_on_c, 3, 52, 90
5, 60384, Note_on_c, 3, 64, 90
5, 60384, Note_on_c, 3, 66, 100
5, 60462, Note_off_c, 3, 64, 64
5, 60462, Note_off_c, 3, 52, 64
5, 60480, Note_on_c, 3, 52, 90
5, 60480, Note_on_c, 3, 64, 90
5, 60558, Note_off_c, 3, 64, 64
5, 60558, Note_off_c, 3, 52, 64
5, 60576, Note_on_c, 3, 52, 90
5, 60576, Note_on_c, 3, 64, 90
5, 60654, Note_off_c, 3, 64, 64
5, 60654, Note_off_c, 3, 52, 64
5, 60672, Note_on_c, 3, 52, 90
5, 60672, Note_on_c, 3, 64, 90
5, 60750, Note_off_c, 3, 64, 64
5, 60750, Note_off_c, 3, 52, 64
5, 60766, Note_off_c, 3, 66, 64
5, 60768, Note_on_c, 3, 52, 90
5, 60768, Note_on_c, 3, 64, 90
5, 60768, Note_on_c, 3, 67, 100
5, 60846, Note_off_c, 3, 64, 64
5, 60846, Note_off_c, 3, 52, 64
5, 60864, Note_on_c, 3, 52, 90
5, 60864, Note_on_c, 3, 64, 90
5, 60942, Note_off_c, 3, 64, 64
5, 60942, Note_off_c, 3, 52, 64
5, 60960, Note_on_c, 3, 52, 90
5, 60960, Note_on_c, 3, 64, 90
5, 61038, Note_off_c, 3, 64, 64
5, 61038, Note_off_c, 3, 52, 64
5, 61056, Note_on_c, 3, 64, 90
5, 61056, Note_on_c, 3, 52, 90
5, 61134, Note_off_c, 3, 52, 64
5, 61134, Note_off_c, 3, 64, 64
5, 61150, Note_off_c, 3, 67, 64
5, 61152, Note_on_c, 3, 73, 100
5, 61152, Note_on_c, 3, 52, 90
5, 61152, Note_on_c, 3, 64, 90
5, 61230, Note_off_c, 3, 64, 64
5, 61230, Note_off_c, 3, 52, 64
5, 61248, Note_on_c, 3, 52, 90
5, 61248, Note_on_c, 3, 64, 90
5, 61326, Note_off_c, 3, 64, 64
5, 61326, Note_off_c, 3, 52, 64
5, 61344, Note_on_c, 3, 52, 90
5, 61344, Note_on_c, 3, 64, 90
5, 61422, Note_off_c, 3, 64, 64
5, 61422, Note_off_c, 3, 52, 64
5, 61440, Note_on_c, 3, 52, 90
5, 61440, Note_on_c, 3, 64, 90
5, 61518, Note_off_c, 3, 64, 64
5, 61518, Note_off_c, 3, 52, 64
5, 61534, Note_off_c, 3, 73, 64
5, 61536, Note_on_c, 3, 74, 99
5, 61536, Note_on_c, 3, 52, 99
5, 61536, Note_on_c, 3, 64, 99
5, 61614, Note_off_c, 3, 64, 64
5, 61614, Note_off_c, 3, 52, 64
5, 61632, Note_on_c, 3, 52, 94
5, 61632, Note_on_c, 3, 64, 94
5, 61710, Note_off_c, 3, 64, 64
5, 61710, Note_off_c, 3, 52, 64
5, 61728, Note_on_c, 3, 52, 86
5, 61728, Note_on_c, 3, 64, 86
5, 61806, Note_off_c, 3, 64, 64
5, 61806, Note_off_c, 3, 52, 64
5, 61824, Note_on_c, 3, 52, 80
5, 61824, Note_on_c, 3, 64, 80
5, 61902, Note_off_c, 3, 64, 64
5, 61902, Note_off_c, 3, 52, 64
5, 61918, Note_off_c, 3, 74, 64
5, 61920, Note_on_c, 3, 73, 77
5, 61920, Note_on_c, 3, 64, 77
5, 61920, Note_on_c, 3, 52, 77
5, 61998, Note_off_c, 3, 52, 64
5, 61998, Note_off_c, 3, 64, 64
5, 62016, Note_on_c, 3, 64, 70
5, 62016, Note_on_c, 3, 52, 70
5, 62094, Note_off_c, 3, 52, 64
5, 62094, Note_off_c, 3, 64, 64
5, 62112, Note_on_c, 3, 64, 66
5, 62112, Note_on_c, 3, 52, 66
5, 62190, Note_off_c, 3, 52, 64
5, 62190, Note_off_c, 3, 64, 64
5, 62208, Note_on_c, 3, 64, 61
5, 62208, Note_on_c, 3, 52, 61
5, 62286, Note_off_c, 3, 52, 64
5, 62286, Note_off_c, 3, 64, 64
5, 62302, Note_off_c, 3, 73, 64
5, 71520, Control_c, 3, 7, 100
5, 71520, End_track
6, 0, Start_track
6, 0, Title_t, "Bass"
6, 0, Channel_prefix, 4
6, 0, Control_c, 4, 7, 100
6, 0, Program_c, 4, 33
6, 2304, Note_on_c, 4, 36, 101
6, 2398, Note_off_c, 4, 36, 64
6, 2400, Note_on_c, 4, 36, 98
6, 2494, Note_off_c, 4, 36, 64
6, 2496, Note_on_c, 4, 36, 105
6, 2686, Note_off_c, 4, 36, 64
6, 2688, Note_on_c, 4, 36, 99
6, 2782, Note_off_c, 4, 36, 64
6, 2784, Note_on_c, 4, 36, 100
6, 3070, Note_off_c, 4, 36, 64
6, 3072, Note_on_c, 4, 36, 100
6, 3166, Note_off_c, 4, 36, 64
6, 3168, Note_on_c, 4, 36, 100
6, 3262, Note_off_c, 4, 36, 64
6, 3264, Note_on_c, 4, 36, 100
6, 3454, Note_off_c, 4, 36, 64
6, 3456, Note_on_c, 4, 36, 100
6, 3550, Note_off_c, 4, 36, 64
6, 3552, Note_on_c, 4, 36, 100
6, 3598, Note_off_c, 4, 36, 64
6, 3600, Note_on_c, 4, 43, 100
6, 3646, Note_off_c, 4, 43, 64
6, 3648, Note_on_c, 4, 43, 100
6, 3694, Note_off_c, 4, 43, 64
6, 3696, Note_on_c, 4, 40, 100
6, 3742, Note_off_c, 4, 40, 64
6, 3744, Note_on_c, 4, 43, 100
6, 3838, Note_off_c, 4, 43, 64
6, 3840, Note_on_c, 4, 43, 100
6, 3934, Note_off_c, 4, 43, 64
6, 3936, Note_on_c, 4, 43, 99
6, 4030, Note_off_c, 4, 43, 64
6, 4032, Note_on_c, 4, 43, 100
6, 4078, Note_off_c, 4, 43, 64
6, 4080, Note_on_c, 4, 40, 47
6, 4126, Note_off_c, 4, 40, 64
6, 4128, Note_on_c, 4, 42, 100
6, 4222, Note_off_c, 4, 42, 64
6, 4224, Note_on_c, 4, 42, 100
6, 4318, Note_off_c, 4, 42, 64
6, 4320, Note_on_c, 4, 42, 100
6, 4414, Note_off_c, 4, 42, 64
6, 4416, Note_on_c, 4, 42, 100
6, 4462, Note_off_c, 4, 42, 64
6, 4464, Note_on_c, 4, 38, 49
6, 4510, Note_off_c, 4, 38, 64
6, 4512, Note_on_c, 4, 40, 100
6, 4606, Note_off_c, 4, 40, 64
6, 4608, Note_on_c, 4, 40, 100
6, 4702, Note_off_c, 4, 40, 64
6, 4704, Note_on_c, 4, 40, 100
6, 4798, Note_off_c, 4, 40, 64
6, 4800, Note_on_c, 4, 40, 100
6, 4846, Note_off_c, 4, 40, 64
6, 4848, Note_on_c, 4, 38, 51
6, 4894, Note_off_c, 4, 38, 64
6, 4896, Note_on_c, 4, 40, 100
6, 4990, Note_off_c, 4, 40, 64
6, 4992, Note_on_c, 4, 38, 37
6, 5038, Note_off_c, 4, 38, 64
6, 5040, Note_on_c, 4, 33, 100
6, 5182, Note_off_c, 4, 33, 64
6, 5184, Note_on_c, 4, 35, 100
6, 5278, Note_off_c, 4, 35, 64
6, 5280, Note_on_c, 4, 36, 100
6, 5470, Note_off_c, 4, 36, 64
6, 5472, Note_on_c, 4, 36, 100
6, 5662, Note_off_c, 4, 36, 64
6, 5664, Note_on_c, 4, 35, 100
6, 5854, Note_off_c, 4, 35, 64
6, 5856, Note_on_c, 4, 35, 100
6, 6046, Note_off_c, 4, 35, 64
6, 6048, Note_on_c, 4, 33, 100
6, 6142, Note_off_c, 4, 33, 64
6, 6144, Note_on_c, 4, 33, 100
6, 6238, Note_off_c, 4, 33, 64
6, 6240, Note_on_c, 4, 33, 100
6, 6526, Note_off_c, 4, 33, 64
6, 6528, Note_on_c, 4, 28, 100
6, 6718, Note_off_c, 4, 28, 64
6, 6720, Note_on_c, 4, 30, 100
6, 6814, Note_off_c, 4, 30, 64
6, 6816, Note_on_c, 4, 31, 100
6, 7006, Note_off_c, 4, 31, 64
6, 7008, Note_on_c, 4, 31, 100
6, 7102, Note_off_c, 4, 31, 64
6, 7104, Note_on_c, 4, 33, 100
6, 7198, Note_off_c, 4, 33, 64
6, 7200, Note_on_c, 4, 35, 100
6, 7486, Note_off_c, 4, 35, 64
6, 7488, Note_on_c, 4, 38, 100
6, 7582, Note_off_c, 4, 38, 64
6, 7584, Note_on_c, 4, 40, 100
6, 7870, Note_off_c, 4, 40, 64
6, 7872, Note_on_c, 4, 38, 100
6, 8062, Note_off_c, 4, 38, 64
6, 8064, Note_on_c, 4, 33, 100
6, 8254, Note_off_c, 4, 33, 64
6, 8256, Note_on_c, 4, 35, 100
6, 8350, Note_off_c, 4, 35, 64
6, 8352, Note_on_c, 4, 36, 100
6, 8638, Note_off_c, 4, 36, 64
6, 8640, Note_on_c, 4, 40, 100
6, 8734, Note_off_c, 4, 40, 64
6, 8736, Note_on_c, 4, 41, 100
6, 8926, Note_off_c, 4, 41, 64
6, 8928, Note_on_c, 4, 41, 100
6, 9118, Note_off_c, 4, 41, 64
6, 9120, Note_on_c, 4, 40, 100
6, 9310, Note_off_c, 4, 40, 64
6, 9312, Note_on_c, 4, 40, 100
6, 9502, Note_off_c, 4, 40, 64
6, 9504, Note_on_c, 4, 38, 100
6, 9694, Note_off_c, 4, 38, 64
6, 9696, Note_on_c, 4, 38, 100
6, 9886, Note_off_c, 4, 38, 64
6, 9888, Note_on_c, 4, 36, 100
6, 10078, Note_off_c, 4, 36, 64
6, 10080, Note_on_c, 4, 36, 100
6, 10174, Note_off_c, 4, 36, 64
6, 10176, Note_on_c, 4, 40, 100
6, 10270, Note_off_c, 4, 40, 64
6, 10272, Note_on_c, 4, 41, 100
6, 10462, Note_off_c, 4, 41, 64
6, 10464, Note_on_c, 4, 41, 100
6, 10606, Note_off_c, 4, 41, 64
6, 10608, Note_on_c, 4, 36, 100
6, 10654, Note_off_c, 4, 36, 64
6, 10656, Note_on_c, 4, 40, 100
6, 10750, Note_off_c, 4, 40, 64
6, 10752, Note_on_c, 4, 40, 100
6, 10846, Note_off_c, 4, 40, 64
6, 10848, Note_on_c, 4, 40, 100
6, 10990, Note_off_c, 4, 40, 64
6, 10992, Note_on_c, 4, 38, 100
6, 11038, Note_off_c, 4, 38, 64
6, 11040, Note_on_c, 4, 36, 100
6, 11134, Note_off_c, 4, 36, 64
6, 11136, Note_on_c, 4, 36, 100
6, 11230, Note_off_c, 4, 36, 64
6, 11232, Note_on_c, 4, 36, 100
6, 11326, Note_off_c, 4, 36, 64
6, 11328, Note_on_c, 4, 38, 100
6, 11422, Note_off_c, 4, 38, 64
6, 11424, Note_on_c, 4, 31, 100
6, 11518, Note_off_c, 4, 31, 64
6, 11520, Note_on_c, 4, 43, 100
6, 11614, Note_off_c, 4, 43, 64
6, 11616, Note_on_c, 4, 43, 100
6, 11710, Note_off_c, 4, 43, 64
6, 11712, Note_on_c, 4, 43, 100
6, 11758, Note_off_c, 4, 43, 64
6, 11760, Note_on_c, 4, 40, 100
6, 11806, Note_off_c, 4, 40, 64
6, 11808, Note_on_c, 4, 42, 100
6, 11902, Note_off_c, 4, 42, 64
6, 11904, Note_on_c, 4, 42, 100
6, 11998, Note_off_c, 4, 42, 64
6, 12000, Note_on_c, 4, 42, 100
6, 12094, Note_off_c, 4, 42, 64
6, 12096, Note_on_c, 4, 42, 100
6, 12190, Note_off_c, 4, 42, 64
6, 12192, Note_on_c, 4, 40, 100
6, 12286, Note_off_c, 4, 40, 64
6, 12288, Note_on_c, 4, 40, 100
6, 12382, Note_off_c, 4, 40, 64
6, 12384, Note_on_c, 4, 40, 100
6, 12478, Note_off_c, 4, 40, 64
6, 12480, Note_on_c, 4, 40, 100
6, 12574, Note_off_c, 4, 40, 64
6, 12576, Note_on_c, 4, 40, 100
6, 12670, Note_off_c, 4, 40, 64
6, 12672, Note_on_c, 4, 40, 100
6, 12766, Note_off_c, 4, 40, 64
6, 12768, Note_on_c, 4, 38, 100
6, 12862, Note_off_c, 4, 38, 64
6, 12864, Note_on_c, 4, 38, 100
6, 12958, Note_off_c, 4, 38, 64
6, 12960, Note_on_c, 4, 36, 100
6, 13054, Note_off_c, 4, 36, 64
6, 13056, Note_on_c, 4, 36, 100
6, 13150, Note_off_c, 4, 36, 64
6, 13152, Note_on_c, 4, 36, 100
6, 13246, Note_off_c, 4, 36, 64
6, 13248, Note_on_c, 4, 36, 100
6, 13342, Note_off_c, 4, 36, 64
6, 13344, Note_on_c, 4, 35, 100
6, 13438, Note_off_c, 4, 35, 64
6, 13440, Note_on_c, 4, 35, 100
6, 13534, Note_off_c, 4, 35, 64
6, 13536, Note_on_c, 4, 35, 100
6, 13630, Note_off_c, 4, 35, 64
6, 13632, Note_on_c, 4, 35, 100
6, 13726, Note_off_c, 4, 35, 64
6, 13728, Note_on_c, 4, 33, 100
6, 13822, Note_off_c, 4, 33, 64
6, 13824, Note_on_c, 4, 33, 100
6, 13918, Note_off_c, 4, 33, 64
6, 13920, Note_on_c, 4, 33, 100
6, 14206, Note_off_c, 4, 33, 64
6, 14208, Note_on_c, 4, 28, 100
6, 14398, Note_off_c, 4, 28, 64
6, 14400, Note_on_c, 4, 30, 100
6, 14494, Note_off_c, 4, 30, 64
6, 14496, Note_on_c, 4, 31, 100
6, 14686, Note_off_c, 4, 31, 64
6, 14688, Note_on_c, 4, 31, 100
6, 14782, Note_off_c, 4, 31, 64
6, 14784, Note_on_c, 4, 33, 100
6, 14878, Note_off_c, 4, 33, 64
6, 14880, Note_on_c, 4, 35, 100
6, 15070, Note_off_c, 4, 35, 64
6, 15072, Note_on_c, 4, 35, 100
6, 15166, Note_off_c, 4, 35, 64
6, 15168, Note_on_c, 4, 38, 100
6, 15262, Note_off_c, 4, 38, 64
6, 15264, Note_on_c, 4, 40, 100
6, 15550, Note_off_c, 4, 40, 64
6, 15552, Note_on_c, 4, 40, 100
6, 15646, Note_off_c, 4, 40, 64
6, 15648, Note_on_c, 4, 38, 100
6, 15934, Note_off_c, 4, 38, 64
6, 15936, Note_on_c, 4, 38, 100
6, 16030, Note_off_c, 4, 38, 64
6, 16032, Note_on_c, 4, 36, 100
6, 16222, Note_off_c, 4, 36, 64
6, 16224, Note_on_c, 4, 36, 100
6, 16318, Note_off_c, 4, 36, 64
6, 16320, Note_on_c, 4, 40, 100
6, 16414, Note_off_c, 4, 40, 64
6, 16416, Note_on_c, 4, 41, 100
6, 16606, Note_off_c, 4, 41, 64
6, 16608, Note_on_c, 4, 41, 100
6, 16798, Note_off_c, 4, 41, 64
6, 16800, Note_on_c, 4, 40, 100
6, 16990, Note_off_c, 4, 40, 64
6, 16992, Note_on_c, 4, 40, 100
6, 17086, Note_off_c, 4, 40, 64
6, 17088, Note_on_c, 4, 40, 100
6, 17182, Note_off_c, 4, 40, 64
6, 17184, Note_on_c, 4, 38, 100
6, 17374, Note_off_c, 4, 38, 64
6, 17376, Note_on_c, 4, 38, 100
6, 17566, Note_off_c, 4, 38, 64
6, 17568, Note_on_c, 4, 36, 100
6, 17662, Note_off_c, 4, 36, 64
6, 17664, Note_on_c, 4, 36, 100
6, 17758, Note_off_c, 4, 36, 64
6, 17760, Note_on_c, 4, 36, 100
6, 17854, Note_off_c, 4, 36, 64
6, 17856, Note_on_c, 4, 36, 100
6, 17950, Note_off_c, 4, 36, 64
6, 17952, Note_on_c, 4, 36, 100
6, 18046, Note_off_c, 4, 36, 64
6, 18048, Note_on_c, 4, 36, 100
6, 18142, Note_off_c, 4, 36, 64
6, 18144, Note_on_c, 4, 36, 100
6, 18238, Note_off_c, 4, 36, 64
6, 18240, Note_on_c, 4, 36, 100
6, 18334, Note_off_c, 4, 36, 64
6, 18336, Note_on_c, 4, 31, 100
6, 18430, Note_off_c, 4, 31, 64
6, 18432, Note_on_c, 4, 31, 100
6, 18526, Note_off_c, 4, 31, 64
6, 18528, Note_on_c, 4, 31, 100
6, 18718, Note_off_c, 4, 31, 64
6, 18720, Note_on_c, 4, 30, 100
6, 18814, Note_off_c, 4, 30, 64
6, 18816, Note_on_c, 4, 30, 100
6, 18910, Note_off_c, 4, 30, 64
6, 18912, Note_on_c, 4, 30, 100
6, 19102, Note_off_c, 4, 30, 64
6, 19104, Note_on_c, 4, 28, 100
6, 19198, Note_off_c, 4, 28, 64
6, 19200, Note_on_c, 4, 28, 100
6, 19294, Note_off_c, 4, 28, 64
6, 19296, Note_on_c, 4, 28, 100
6, 19486, Note_off_c, 4, 28, 64
6, 19488, Note_on_c, 4, 38, 100
6, 19582, Note_off_c, 4, 38, 64
6, 19584, Note_on_c, 4, 38, 100
6, 19678, Note_off_c, 4, 38, 64
6, 19680, Note_on_c, 4, 38, 100
6, 19870, Note_off_c, 4, 38, 64
6, 19872, Note_on_c, 4, 36, 100
6, 20062, Note_off_c, 4, 36, 64
6, 20064, Note_on_c, 4, 36, 100
6, 20254, Note_off_c, 4, 36, 64
6, 20256, Note_on_c, 4, 35, 100
6, 20446, Note_off_c, 4, 35, 64
6, 20448, Note_on_c, 4, 35, 100
6, 20638, Note_off_c, 4, 35, 64
6, 20640, Note_on_c, 4, 33, 100
6, 20734, Note_off_c, 4, 33, 64
6, 20736, Note_on_c, 4, 33, 100
6, 20830, Note_off_c, 4, 33, 64
6, 20832, Note_on_c, 4, 33, 100
6, 21118, Note_off_c, 4, 33, 64
6, 21120, Note_on_c, 4, 28, 100
6, 21310, Note_off_c, 4, 28, 64
6, 21312, Note_on_c, 4, 30, 100
6, 21406, Note_off_c, 4, 30, 64
6, 21408, Note_on_c, 4, 31, 100
6, 21598, Note_off_c, 4, 31, 64
6, 21600, Note_on_c, 4, 31, 100
6, 21694, Note_off_c, 4, 31, 64
6, 21696, Note_on_c, 4, 31, 100
6, 21790, Note_off_c, 4, 31, 64
6, 21792, Note_on_c, 4, 30, 100
6, 21886, Note_off_c, 4, 30, 64
6, 21888, Note_on_c, 4, 30, 100
6, 21982, Note_off_c, 4, 30, 64
6, 21984, Note_on_c, 4, 30, 100
6, 22078, Note_off_c, 4, 30, 64
6, 22080, Note_on_c, 4, 30, 100
6, 22174, Note_off_c, 4, 30, 64
6, 22176, Note_on_c, 4, 28, 100
6, 22270, Note_off_c, 4, 28, 64
6, 22320, Note_on_c, 4, 28, 100
6, 22366, Note_off_c, 4, 28, 64
6, 22368, Note_on_c, 4, 28, 100
6, 22462, Note_off_c, 4, 28, 64
6, 22464, Note_on_c, 4, 28, 100
6, 22558, Note_off_c, 4, 28, 64
6, 22560, Note_on_c, 4, 38, 100
6, 22654, Note_off_c, 4, 38, 64
6, 22656, Note_on_c, 4, 38, 100
6, 22750, Note_off_c, 4, 38, 64
6, 22752, Note_on_c, 4, 38, 100
6, 22846, Note_off_c, 4, 38, 64
6, 22848, Note_on_c, 4, 38, 100
6, 22942, Note_off_c, 4, 38, 64
6, 22944, Note_on_c, 4, 36, 100
6, 23134, Note_off_c, 4, 36, 64
6, 23136, Note_on_c, 4, 36, 100
6, 23230, Note_off_c, 4, 36, 64
6, 23232, Note_on_c, 4, 28, 100
6, 23326, Note_off_c, 4, 28, 64
6, 23328, Note_on_c, 4, 29, 100
6, 23518, Note_off_c, 4, 29, 64
6, 23520, Note_on_c, 4, 29, 100
6, 23614, Note_off_c, 4, 29, 64
6, 23616, Note_on_c, 4, 29, 100
6, 23710, Note_off_c, 4, 29, 64
6, 23712, Note_on_c, 4, 28, 100
6, 23902, Note_off_c, 4, 28, 64
6, 23904, Note_on_c, 4, 28, 100
6, 24094, Note_off_c, 4, 28, 64
6, 24096, Note_on_c, 4, 38, 100
6, 24286, Note_off_c, 4, 38, 64
6, 24288, Note_on_c, 4, 38, 100
6, 24478, Note_off_c, 4, 38, 64
6, 24480, Note_on_c, 4, 36, 100
6, 24574, Note_off_c, 4, 36, 64
6, 24576, Note_on_c, 4, 36, 100
6, 24670, Note_off_c, 4, 36, 64
6, 24672, Note_on_c, 4, 36, 100
6, 24766, Note_off_c, 4, 36, 64
6, 24768, Note_on_c, 4, 36, 100
6, 24862, Note_off_c, 4, 36, 64
6, 24864, Note_on_c, 4, 36, 100
6, 24958, Note_off_c, 4, 36, 64
6, 24960, Note_on_c, 4, 36, 100
6, 25054, Note_off_c, 4, 36, 64
6, 25056, Note_on_c, 4, 36, 100
6, 25150, Note_off_c, 4, 36, 64
6, 25152, Note_on_c, 4, 36, 100
6, 25246, Note_off_c, 4, 36, 64
6, 25248, Note_on_c, 4, 36, 100
6, 25342, Note_off_c, 4, 36, 64
6, 25344, Note_on_c, 4, 36, 100
6, 25438, Note_off_c, 4, 36, 64
6, 25440, Note_on_c, 4, 36, 100
6, 25534, Note_off_c, 4, 36, 64
6, 25536, Note_on_c, 4, 36, 100
6, 25630, Note_off_c, 4, 36, 64
6, 25632, Note_on_c, 4, 30, 100
6, 25726, Note_off_c, 4, 30, 64
6, 25728, Note_on_c, 4, 30, 100
6, 25822, Note_off_c, 4, 30, 64
6, 25824, Note_on_c, 4, 30, 100
6, 25918, Note_off_c, 4, 30, 64
6, 25920, Note_on_c, 4, 30, 100
6, 26014, Note_off_c, 4, 30, 64
6, 26016, Note_on_c, 4, 31, 100
6, 26110, Note_off_c, 4, 31, 64
6, 26112, Note_on_c, 4, 31, 100
6, 26206, Note_off_c, 4, 31, 64
6, 26208, Note_on_c, 4, 31, 100
6, 26302, Note_off_c, 4, 31, 64
6, 26304, Note_on_c, 4, 31, 100
6, 26398, Note_off_c, 4, 31, 64
6, 26400, Note_on_c, 4, 33, 100
6, 26494, Note_off_c, 4, 33, 64
6, 26496, Note_on_c, 4, 33, 100
6, 26590, Note_off_c, 4, 33, 64
6, 26592, Note_on_c, 4, 33, 100
6, 26686, Note_off_c, 4, 33, 64
6, 26688, Note_on_c, 4, 33, 100
6, 26782, Note_off_c, 4, 33, 64
6, 26784, Note_on_c, 4, 35, 100
6, 26878, Note_off_c, 4, 35, 64
6, 26880, Note_on_c, 4, 35, 100
6, 26974, Note_off_c, 4, 35, 64
6, 26976, Note_on_c, 4, 35, 100
6, 27070, Note_off_c, 4, 35, 64
6, 27072, Note_on_c, 4, 35, 100
6, 27166, Note_off_c, 4, 35, 64
6, 27168, Note_on_c, 4, 36, 100
6, 27262, Note_off_c, 4, 36, 64
6, 27264, Note_on_c, 4, 36, 100
6, 27358, Note_off_c, 4, 36, 64
6, 27360, Note_on_c, 4, 36, 100
6, 27454, Note_off_c, 4, 36, 64
6, 27456, Note_on_c, 4, 36, 100
6, 27550, Note_off_c, 4, 36, 64
6, 27552, Note_on_c, 4, 38, 100
6, 27646, Note_off_c, 4, 38, 64
6, 27648, Note_on_c, 4, 38, 100
6, 27742, Note_off_c, 4, 38, 64
6, 27744, Note_on_c, 4, 38, 100
6, 27838, Note_off_c, 4, 38, 64
6, 27840, Note_on_c, 4, 38, 100
6, 27934, Note_off_c, 4, 38, 64
6, 27936, Note_on_c, 4, 40, 100
6, 28030, Note_off_c, 4, 40, 64
6, 28032, Note_on_c, 4, 40, 100
6, 28126, Note_off_c, 4, 40, 64
6, 28128, Note_on_c, 4, 40, 100
6, 28222, Note_off_c, 4, 40, 64
6, 28224, Note_on_c, 4, 40, 100
6, 28318, Note_off_c, 4, 40, 64
6, 28320, Note_on_c, 4, 40, 100
6, 28414, Note_off_c, 4, 40, 64
6, 28416, Note_on_c, 4, 40, 100
6, 28510, Note_off_c, 4, 40, 64
6, 28512, Note_on_c, 4, 40, 100
6, 28606, Note_off_c, 4, 40, 64
6, 28608, Note_on_c, 4, 40, 100
6, 28702, Note_off_c, 4, 40, 64
6, 28704, Note_on_c, 4, 28, 100
6, 28798, Note_off_c, 4, 28, 64
6, 28800, Note_on_c, 4, 28, 100
6, 28894, Note_off_c, 4, 28, 64
6, 28896, Note_on_c, 4, 28, 100
6, 28990, Note_off_c, 4, 28, 64
6, 28992, Note_on_c, 4, 28, 100
6, 29086, Note_off_c, 4, 28, 64
6, 29088, Note_on_c, 4, 28, 100
6, 29182, Note_off_c, 4, 28, 64
6, 29184, Note_on_c, 4, 28, 100
6, 29278, Note_off_c, 4, 28, 64
6, 29280, Note_on_c, 4, 28, 100
6, 29374, Note_off_c, 4, 28, 64
6, 29376, Note_on_c, 4, 28, 100
6, 29470, Note_off_c, 4, 28, 64
6, 29472, Note_on_c, 4, 28, 100
6, 29566, Note_off_c, 4, 28, 64
6, 29568, Note_on_c, 4, 28, 100
6, 29662, Note_off_c, 4, 28, 64
6, 29664, Note_on_c, 4, 28, 100
6, 29758, Note_off_c, 4, 28, 64
6, 29760, Note_on_c, 4, 28, 100
6, 29854, Note_off_c, 4, 28, 64
6, 29856, Note_on_c, 4, 28, 100
6, 29950, Note_off_c, 4, 28, 64
6, 29952, Note_on_c, 4, 28, 100
6, 30046, Note_off_c, 4, 28, 64
6, 30048, Note_on_c, 4, 28, 100
6, 30142, Note_off_c, 4, 28, 64
6, 30144, Note_on_c, 4, 28, 100
6, 30238, Note_off_c, 4, 28, 64
6, 30240, Note_on_c, 4, 28, 100
6, 30334, Note_off_c, 4, 28, 64
6, 30336, Note_on_c, 4, 28, 100
6, 30430, Note_off_c, 4, 28, 64
6, 30432, Note_on_c, 4, 28, 100
6, 30526, Note_off_c, 4, 28, 64
6, 30528, Note_on_c, 4, 28, 100
6, 30622, Note_off_c, 4, 28, 64
6, 30624, Note_on_c, 4, 28, 100
6, 30718, Note_off_c, 4, 28, 64
6, 30720, Note_on_c, 4, 28, 100
6, 30814, Note_off_c, 4, 28, 64
6, 30816, Note_on_c, 4, 28, 100
6, 30910, Note_off_c, 4, 28, 64
6, 30912, Note_on_c, 4, 28, 100
6, 31006, Note_off_c, 4, 28, 64
6, 31008, Note_on_c, 4, 28, 100
6, 31102, Note_off_c, 4, 28, 64
6, 31104, Note_on_c, 4, 28, 100
6, 31198, Note_off_c, 4, 28, 64
6, 31200, Note_on_c, 4, 28, 100
6, 31294, Note_off_c, 4, 28, 64
6, 31296, Note_on_c, 4, 28, 100
6, 31390, Note_off_c, 4, 28, 64
6, 31392, Note_on_c, 4, 28, 100
6, 31486, Note_off_c, 4, 28, 64
6, 31488, Note_on_c, 4, 28, 100
6, 31582, Note_off_c, 4, 28, 64
6, 31584, Note_on_c, 4, 28, 100
6, 31678, Note_off_c, 4, 28, 64
6, 31680, Note_on_c, 4, 28, 100
6, 31774, Note_off_c, 4, 28, 64
6, 31776, Note_on_c, 4, 28, 100
6, 31870, Note_off_c, 4, 28, 64
6, 31872, Note_on_c, 4, 28, 100
6, 31966, Note_off_c, 4, 28, 64
6, 31968, Note_on_c, 4, 28, 100
6, 32062, Note_off_c, 4, 28, 64
6, 32064, Note_on_c, 4, 28, 100
6, 32158, Note_off_c, 4, 28, 64
6, 32160, Note_on_c, 4, 28, 100
6, 32254, Note_off_c, 4, 28, 64
6, 32256, Note_on_c, 4, 28, 100
6, 32350, Note_off_c, 4, 28, 64
6, 32352, Note_on_c, 4, 28, 100
6, 32446, Note_off_c, 4, 28, 64
6, 32448, Note_on_c, 4, 28, 100
6, 32542, Note_off_c, 4, 28, 64
6, 32544, Note_on_c, 4, 28, 100
6, 32638, Note_off_c, 4, 28, 64
6, 32640, Note_on_c, 4, 28, 100
6, 32734, Note_off_c, 4, 28, 64
6, 32736, Note_on_c, 4, 28, 100
6, 32830, Note_off_c, 4, 28, 64
6, 32832, Note_on_c, 4, 28, 100
6, 32926, Note_off_c, 4, 28, 64
6, 32928, Note_on_c, 4, 28, 100
6, 33022, Note_off_c, 4, 28, 64
6, 33024, Note_on_c, 4, 28, 100
6, 33118, Note_off_c, 4, 28, 64
6, 33120, Note_on_c, 4, 28, 100
6, 33214, Note_off_c, 4, 28, 64
6, 33216, Note_on_c, 4, 28, 100
6, 33310, Note_off_c, 4, 28, 64
6, 33312, Note_on_c, 4, 28, 100
6, 33406, Note_off_c, 4, 28, 64
6, 33408, Note_on_c, 4, 28, 100
6, 33502, Note_off_c, 4, 28, 64
6, 33504, Note_on_c, 4, 28, 100
6, 33598, Note_off_c, 4, 28, 64
6, 33600, Note_on_c, 4, 28, 100
6, 33694, Note_off_c, 4, 28, 64
6, 33696, Note_on_c, 4, 28, 100
6, 33790, Note_off_c, 4, 28, 64
6, 33792, Note_on_c, 4, 28, 100
6, 33886, Note_off_c, 4, 28, 64
6, 33888, Note_on_c, 4, 28, 100
6, 33982, Note_off_c, 4, 28, 64
6, 33984, Note_on_c, 4, 28, 100
6, 34078, Note_off_c, 4, 28, 64
6, 34080, Note_on_c, 4, 28, 100
6, 34174, Note_off_c, 4, 28, 64
6, 34176, Note_on_c, 4, 28, 100
6, 34270, Note_off_c, 4, 28, 64
6, 34272, Note_on_c, 4, 28, 100
6, 34366, Note_off_c, 4, 28, 64
6, 34368, Note_on_c, 4, 28, 100
6, 34462, Note_off_c, 4, 28, 64
6, 34560, Note_on_c, 4, 40, 100
6, 34630, Note_off_c, 4, 40, 64
6, 34656, Note_on_c, 4, 28, 100
6, 34726, Note_off_c, 4, 28, 64
6, 34752, Note_on_c, 4, 28, 100
6, 34822, Note_off_c, 4, 28, 64
6, 34848, Note_on_c, 4, 28, 100
6, 34918, Note_off_c, 4, 28, 64
6, 34944, Note_on_c, 4, 28, 100
6, 35014, Note_off_c, 4, 28, 64
6, 35040, Note_on_c, 4, 40, 100
6, 35110, Note_off_c, 4, 40, 64
6, 35136, Note_on_c, 4, 40, 100
6, 35206, Note_off_c, 4, 40, 64
6, 35232, Note_on_c, 4, 40, 100
6, 35302, Note_off_c, 4, 40, 64
6, 35328, Note_on_c, 4, 40, 100
6, 35398, Note_off_c, 4, 40, 64
6, 35424, Note_on_c, 4, 40, 100
6, 35494, Note_off_c, 4, 40, 64
6, 35520, Note_on_c, 4, 40, 100
6, 35590, Note_off_c, 4, 40, 64
6, 35616, Note_on_c, 4, 40, 100
6, 35686, Note_off_c, 4, 40, 64
6, 35712, Note_on_c, 4, 40, 100
6, 35782, Note_off_c, 4, 40, 64
6, 35808, Note_on_c, 4, 40, 100
6, 35878, Note_off_c, 4, 40, 64
6, 35904, Note_on_c, 4, 40, 100
6, 35974, Note_off_c, 4, 40, 64
6, 36000, Note_on_c, 4, 40, 100
6, 36070, Note_off_c, 4, 40, 64
6, 36096, Note_on_c, 4, 40, 100
6, 36166, Note_off_c, 4, 40, 64
6, 36192, Note_on_c, 4, 40, 100
6, 36262, Note_off_c, 4, 40, 64
6, 36288, Note_on_c, 4, 40, 100
6, 36358, Note_off_c, 4, 40, 64
6, 36384, Note_on_c, 4, 40, 100
6, 36454, Note_off_c, 4, 40, 64
6, 36480, Note_on_c, 4, 40, 100
6, 36550, Note_off_c, 4, 40, 64
6, 36576, Note_on_c, 4, 40, 100
6, 36646, Note_off_c, 4, 40, 64
6, 36672, Note_on_c, 4, 40, 100
6, 36742, Note_off_c, 4, 40, 64
6, 36768, Note_on_c, 4, 40, 100
6, 36838, Note_off_c, 4, 40, 64
6, 36864, Note_on_c, 4, 40, 100
6, 36934, Note_off_c, 4, 40, 64
6, 36960, Note_on_c, 4, 38, 100
6, 37078, Note_off_c, 4, 38, 64
6, 37104, Note_on_c, 4, 45, 100
6, 37222, Note_off_c, 4, 45, 64
6, 37248, Note_on_c, 4, 50, 100
6, 37366, Note_off_c, 4, 50, 64
6, 37392, Note_on_c, 4, 45, 100
6, 37510, Note_off_c, 4, 45, 64
6, 37536, Note_on_c, 4, 38, 100
6, 37606, Note_off_c, 4, 38, 64
6, 37632, Note_on_c, 4, 45, 100
6, 37702, Note_off_c, 4, 45, 64
6, 37728, Note_on_c, 4, 40, 100
6, 37798, Note_off_c, 4, 40, 64
6, 37824, Note_on_c, 4, 39, 100
6, 37894, Note_off_c, 4, 39, 64
6, 37920, Note_on_c, 4, 37, 100
6, 37990, Note_off_c, 4, 37, 64
6, 38016, Note_on_c, 4, 36, 100
6, 38086, Note_off_c, 4, 36, 64
6, 38112, Note_on_c, 4, 35, 100
6, 38182, Note_off_c, 4, 35, 64
6, 38208, Note_on_c, 4, 35, 100
6, 38278, Note_off_c, 4, 35, 64
6, 38304, Note_on_c, 4, 35, 100
6, 38374, Note_off_c, 4, 35, 64
6, 38400, Note_on_c, 4, 35, 100
6, 38470, Note_off_c, 4, 35, 64
6, 38496, Note_on_c, 4, 40, 100
6, 38566, Note_off_c, 4, 40, 64
6, 38592, Note_on_c, 4, 39, 100
6, 38662, Note_off_c, 4, 39, 64
6, 38688, Note_on_c, 4, 37, 100
6, 38758, Note_off_c, 4, 37, 64
6, 38784, Note_on_c, 4, 36, 100
6, 38854, Note_off_c, 4, 36, 64
6, 38880, Note_on_c, 4, 35, 100
6, 38950, Note_off_c, 4, 35, 64
6, 38952, Note_on_c, 4, 33, 60
6, 38974, Note_off_c, 4, 33, 64
6, 38976, Note_on_c, 4, 35, 100
6, 39046, Note_off_c, 4, 35, 64
6, 39048, Note_on_c, 4, 33, 60
6, 39070, Note_off_c, 4, 33, 64
6, 39072, Note_on_c, 4, 35, 100
6, 39142, Note_off_c, 4, 35, 64
6, 39144, Note_on_c, 4, 33, 60
6, 39166, Note_off_c, 4, 33, 64
6, 39168, Note_on_c, 4, 35, 100
6, 39238, Note_off_c, 4, 35, 64
6, 39240, Note_on_c, 4, 33, 60
6, 39262, Note_off_c, 4, 33, 64
6, 39264, Note_on_c, 4, 35, 100
6, 39334, Note_off_c, 4, 35, 64
6, 39336, Note_on_c, 4, 33, 60
6, 39358, Note_off_c, 4, 33, 64
6, 39360, Note_on_c, 4, 35, 100
6, 39430, Note_off_c, 4, 35, 64
6, 39432, Note_on_c, 4, 33, 59
6, 39454, Note_off_c, 4, 33, 64
6, 39456, Note_on_c, 4, 35, 100
6, 39526, Note_off_c, 4, 35, 64
6, 39528, Note_on_c, 4, 33, 59
6, 39550, Note_off_c, 4, 33, 64
6, 39552, Note_on_c, 4, 35, 100
6, 39622, Note_off_c, 4, 35, 64
6, 39624, Note_on_c, 4, 33, 59
6, 39646, Note_off_c, 4, 33, 64
6, 39648, Note_on_c, 4, 40, 100
6, 39718, Note_off_c, 4, 40, 64
6, 39744, Note_on_c, 4, 39, 100
6, 39814, Note_off_c, 4, 39, 64
6, 39840, Note_on_c, 4, 37, 100
6, 39910, Note_off_c, 4, 37, 64
6, 39936, Note_on_c, 4, 35, 100
6, 40006, Note_off_c, 4, 35, 64
6, 40032, Note_on_c, 4, 40, 100
6, 40102, Note_off_c, 4, 40, 64
6, 40128, Note_on_c, 4, 39, 100
6, 40198, Note_off_c, 4, 39, 64
6, 40224, Note_on_c, 4, 37, 100
6, 40294, Note_off_c, 4, 37, 64
6, 40320, Note_on_c, 4, 35, 100
6, 40390, Note_off_c, 4, 35, 64
6, 40416, Note_on_c, 4, 40, 100
6, 40486, Note_off_c, 4, 40, 64
6, 40512, Note_on_c, 4, 39, 100
6, 40582, Note_off_c, 4, 39, 64
6, 40608, Note_on_c, 4, 37, 100
6, 40678, Note_off_c, 4, 37, 64
6, 40704, Note_on_c, 4, 35, 100
6, 40774, Note_off_c, 4, 35, 64
6, 40800, Note_on_c, 4, 38, 100
6, 40870, Note_off_c, 4, 38, 64
6, 40896, Note_on_c, 4, 38, 100
6, 40966, Note_off_c, 4, 38, 64
6, 40992, Note_on_c, 4, 45, 100
6, 41062, Note_off_c, 4, 45, 64
6, 41088, Note_on_c, 4, 45, 100
6, 41158, Note_off_c, 4, 45, 64
6, 41184, Note_on_c, 4, 45, 100
6, 41254, Note_off_c, 4, 45, 64
6, 41280, Note_on_c, 4, 45, 100
6, 41350, Note_off_c, 4, 45, 64
6, 41376, Note_on_c, 4, 45, 100
6, 41446, Note_off_c, 4, 45, 64
6, 41472, Note_on_c, 4, 45, 100
6, 41542, Note_off_c, 4, 45, 64
6, 41568, Note_on_c, 4, 40, 100
6, 41638, Note_off_c, 4, 40, 64
6, 41664, Note_on_c, 4, 39, 100
6, 41734, Note_off_c, 4, 39, 64
6, 41760, Note_on_c, 4, 37, 100
6, 41830, Note_off_c, 4, 37, 64
6, 41856, Note_on_c, 4, 36, 100
6, 41926, Note_off_c, 4, 36, 64
6, 41952, Note_on_c, 4, 35, 100
6, 42022, Note_off_c, 4, 35, 64
6, 42048, Note_on_c, 4, 35, 100
6, 42118, Note_off_c, 4, 35, 64
6, 42144, Note_on_c, 4, 39, 100
6, 42214, Note_off_c, 4, 39, 64
6, 42240, Note_on_c, 4, 42, 100
6, 42310, Note_off_c, 4, 42, 64
6, 42336, Note_on_c, 4, 40, 100
6, 42406, Note_off_c, 4, 40, 64
6, 42432, Note_on_c, 4, 39, 100
6, 42502, Note_off_c, 4, 39, 64
6, 42528, Note_on_c, 4, 37, 100
6, 42598, Note_off_c, 4, 37, 64
6, 42624, Note_on_c, 4, 36, 100
6, 42694, Note_off_c, 4, 36, 64
6, 42720, Note_on_c, 4, 35, 100
6, 42790, Note_off_c, 4, 35, 64
6, 42816, Note_on_c, 4, 35, 100
6, 42886, Note_off_c, 4, 35, 64
6, 42912, Note_on_c, 4, 35, 100
6, 42982, Note_off_c, 4, 35, 64
6, 43008, Note_on_c, 4, 35, 100
6, 43078, Note_off_c, 4, 35, 64
6, 43104, Note_on_c, 4, 36, 100
6, 43198, Note_off_c, 4, 36, 64
6, 43200, Note_on_c, 4, 36, 100
6, 43294, Note_off_c, 4, 36, 64
6, 43296, Note_on_c, 4, 40, 100
6, 43390, Note_off_c, 4, 40, 64
6, 43392, Note_on_c, 4, 43, 100
6, 43486, Note_off_c, 4, 43, 64
6, 43488, Note_on_c, 4, 48, 100
6, 43582, Note_off_c, 4, 48, 64
6, 43584, Note_on_c, 4, 48, 100
6, 43678, Note_off_c, 4, 48, 64
6, 43680, Note_on_c, 4, 43, 100
6, 43774, Note_off_c, 4, 43, 64
6, 43776, Note_on_c, 4, 40, 100
6, 43870, Note_off_c, 4, 40, 64
6, 43872, Note_on_c, 4, 43, 100
6, 43966, Note_off_c, 4, 43, 64
6, 43968, Note_on_c, 4, 43, 100
6, 44062, Note_off_c, 4, 43, 64
6, 44064, Note_on_c, 4, 40, 100
6, 44158, Note_off_c, 4, 40, 64
6, 44160, Note_on_c, 4, 38, 100
6, 44254, Note_off_c, 4, 38, 64
6, 44256, Note_on_c, 4, 43, 100
6, 44350, Note_off_c, 4, 43, 64
6, 44352, Note_on_c, 4, 43, 100
6, 44446, Note_off_c, 4, 43, 64
6, 44448, Note_on_c, 4, 40, 100
6, 44542, Note_off_c, 4, 40, 64
6, 44544, Note_on_c, 4, 38, 100
6, 44638, Note_off_c, 4, 38, 64
6, 44640, Note_on_c, 4, 38, 100
6, 44734, Note_off_c, 4, 38, 64
6, 44736, Note_on_c, 4, 38, 100
6, 44830, Note_off_c, 4, 38, 64
6, 44832, Note_on_c, 4, 42, 100
6, 44926, Note_off_c, 4, 42, 64
6, 44928, Note_on_c, 4, 45, 100
6, 45022, Note_off_c, 4, 45, 64
6, 45024, Note_on_c, 4, 50, 100
6, 45118, Note_off_c, 4, 50, 64
6, 45120, Note_on_c, 4, 50, 100
6, 45214, Note_off_c, 4, 50, 64
6, 45216, Note_on_c, 4, 45, 100
6, 45310, Note_off_c, 4, 45, 64
6, 45312, Note_on_c, 4, 42, 100
6, 45406, Note_off_c, 4, 42, 64
6, 45408, Note_on_c, 4, 45, 100
6, 45502, Note_off_c, 4, 45, 64
6, 45504, Note_on_c, 4, 45, 100
6, 45598, Note_off_c, 4, 45, 64
6, 45600, Note_on_c, 4, 42, 100
6, 45694, Note_off_c, 4, 42, 64
6, 45696, Note_on_c, 4, 40, 100
6, 45790, Note_off_c, 4, 40, 64
6, 45792, Note_on_c, 4, 45, 100
6, 45886, Note_off_c, 4, 45, 64
6, 45888, Note_on_c, 4, 45, 100
6, 45982, Note_off_c, 4, 45, 64
6, 45984, Note_on_c, 4, 42, 100
6, 46078, Note_off_c, 4, 42, 64
6, 46080, Note_on_c, 4, 40, 100
6, 46174, Note_off_c, 4, 40, 64
6, 46176, Note_on_c, 4, 40, 100
6, 46270, Note_off_c, 4, 40, 64
6, 46272, Note_on_c, 4, 40, 100
6, 46366, Note_off_c, 4, 40, 64
6, 46368, Note_on_c, 4, 40, 100
6, 46462, Note_off_c, 4, 40, 64
6, 46464, Note_on_c, 4, 40, 100
6, 46558, Note_off_c, 4, 40, 64
6, 46560, Note_on_c, 4, 40, 100
6, 46654, Note_off_c, 4, 40, 64
6, 46656, Note_on_c, 4, 40, 100
6, 46750, Note_off_c, 4, 40, 64
6, 46752, Note_on_c, 4, 38, 100
6, 46846, Note_off_c, 4, 38, 64
6, 46848, Note_on_c, 4, 38, 100
6, 46942, Note_off_c, 4, 38, 64
6, 46944, Note_on_c, 4, 36, 100
6, 47038, Note_off_c, 4, 36, 64
6, 47040, Note_on_c, 4, 36, 100
6, 47134, Note_off_c, 4, 36, 64
6, 47136, Note_on_c, 4, 40, 100
6, 47230, Note_off_c, 4, 40, 64
6, 47232, Note_on_c, 4, 43, 100
6, 47326, Note_off_c, 4, 43, 64
6, 47328, Note_on_c, 4, 48, 100
6, 47422, Note_off_c, 4, 48, 64
6, 47424, Note_on_c, 4, 48, 100
6, 47518, Note_off_c, 4, 48, 64
6, 47520, Note_on_c, 4, 48, 100
6, 47614, Note_off_c, 4, 48, 64
6, 47616, Note_on_c, 4, 48, 100
6, 47710, Note_off_c, 4, 48, 64
6, 47712, Note_on_c, 4, 43, 100
6, 47806, Note_off_c, 4, 43, 64
6, 47808, Note_on_c, 4, 43, 100
6, 47902, Note_off_c, 4, 43, 64
6, 47904, Note_on_c, 4, 43, 100
6, 47998, Note_off_c, 4, 43, 64
6, 48000, Note_on_c, 4, 40, 100
6, 48094, Note_off_c, 4, 40, 64
6, 48096, Note_on_c, 4, 38, 100
6, 48190, Note_off_c, 4, 38, 64
6, 48192, Note_on_c, 4, 38, 100
6, 48286, Note_off_c, 4, 38, 64
6, 48288, Note_on_c, 4, 38, 100
6, 48382, Note_off_c, 4, 38, 64
6, 48384, Note_on_c, 4, 40, 100
6, 48478, Note_off_c, 4, 40, 64
6, 48480, Note_on_c, 4, 38, 100
6, 48766, Note_off_c, 4, 38, 64
6, 48768, Note_on_c, 4, 42, 100
6, 48814, Note_off_c, 4, 42, 64
6, 48816, Note_on_c, 4, 45, 100
6, 48862, Note_off_c, 4, 45, 64
6, 48864, Note_on_c, 4, 50, 100
6, 49054, Note_off_c, 4, 50, 64
6, 49056, Note_on_c, 4, 50, 100
6, 49150, Note_off_c, 4, 50, 64
6, 49152, Note_on_c, 4, 45, 100
6, 49246, Note_off_c, 4, 45, 64
6, 49248, Note_on_c, 4, 45, 100
6, 49342, Note_off_c, 4, 45, 64
6, 49344, Note_on_c, 4, 45, 100
6, 49438, Note_off_c, 4, 45, 64
6, 49440, Note_on_c, 4, 42, 100
6, 49534, Note_off_c, 4, 42, 64
6, 49536, Note_on_c, 4, 40, 100
6, 49630, Note_off_c, 4, 40, 64
6, 49632, Note_on_c, 4, 45, 100
6, 49726, Note_off_c, 4, 45, 64
6, 49728, Note_on_c, 4, 45, 100
6, 49822, Note_off_c, 4, 45, 64
6, 49824, Note_on_c, 4, 42, 100
6, 49918, Note_off_c, 4, 42, 64
6, 49920, Note_on_c, 4, 40, 100
6, 50014, Note_off_c, 4, 40, 64
6, 50016, Note_on_c, 4, 40, 100
6, 50302, Note_off_c, 4, 40, 64
6, 50304, Note_on_c, 4, 38, 100
6, 50398, Note_off_c, 4, 38, 64
6, 50400, Note_on_c, 4, 36, 100
6, 50686, Note_off_c, 4, 36, 64
6, 50688, Note_on_c, 4, 38, 100
6, 50782, Note_off_c, 4, 38, 64
6, 50784, Note_on_c, 4, 43, 100
6, 50878, Note_off_c, 4, 43, 64
6, 50880, Note_on_c, 4, 43, 100
6, 50974, Note_off_c, 4, 43, 64
6, 50976, Note_on_c, 4, 43, 100
6, 51054, Note_off_c, 4, 43, 64
6, 51056, Note_on_c, 4, 43, 100
6, 51134, Note_off_c, 4, 43, 64
6, 51136, Note_on_c, 4, 40, 67
6, 51166, Note_off_c, 4, 40, 64
6, 51168, Note_on_c, 4, 42, 100
6, 51262, Note_off_c, 4, 42, 64
6, 51264, Note_on_c, 4, 42, 100
6, 51358, Note_off_c, 4, 42, 64
6, 51360, Note_on_c, 4, 42, 100
6, 51438, Note_off_c, 4, 42, 64
6, 51440, Note_on_c, 4, 42, 100
6, 51518, Note_off_c, 4, 42, 64
6, 51520, Note_on_c, 4, 38, 60
6, 51550, Note_off_c, 4, 38, 64
6, 51552, Note_on_c, 4, 40, 100
6, 51646, Note_off_c, 4, 40, 64
6, 51648, Note_on_c, 4, 40, 100
6, 51742, Note_off_c, 4, 40, 64
6, 51744, Note_on_c, 4, 40, 100
6, 51838, Note_off_c, 4, 40, 64
6, 51840, Note_on_c, 4, 40, 100
6, 51934, Note_off_c, 4, 40, 64
6, 51936, Note_on_c, 4, 38, 100
6, 52030, Note_off_c, 4, 38, 64
6, 52032, Note_on_c, 4, 38, 100
6, 52126, Note_off_c, 4, 38, 64
6, 52128, Note_on_c, 4, 38, 100
6, 52222, Note_off_c, 4, 38, 64
6, 52224, Note_on_c, 4, 38, 100
6, 52318, Note_off_c, 4, 38, 64
6, 52320, Note_on_c, 4, 36, 100
6, 52510, Note_off_c, 4, 36, 64
6, 52512, Note_on_c, 4, 36, 100
6, 52702, Note_off_c, 4, 36, 64
6, 52704, Note_on_c, 4, 35, 100
6, 52894, Note_off_c, 4, 35, 64
6, 52896, Note_on_c, 4, 35, 100
6, 53086, Note_off_c, 4, 35, 64
6, 53088, Note_on_c, 4, 33, 100
6, 53374, Note_off_c, 4, 33, 64
6, 53376, Note_on_c, 4, 33, 100
6, 53566, Note_off_c, 4, 33, 64
6, 53568, Note_on_c, 4, 28, 100
6, 53758, Note_off_c, 4, 28, 64
6, 53760, Note_on_c, 4, 30, 100
6, 53854, Note_off_c, 4, 30, 64
6, 53856, Note_on_c, 4, 31, 100
6, 54046, Note_off_c, 4, 31, 64
6, 54048, Note_on_c, 4, 31, 100
6, 54238, Note_off_c, 4, 31, 64
6, 54240, Note_on_c, 4, 30, 100
6, 54430, Note_off_c, 4, 30, 64
6, 54432, Note_on_c, 4, 30, 100
6, 54622, Note_off_c, 4, 30, 64
6, 54624, Note_on_c, 4, 28, 100
6, 54718, Note_off_c, 4, 28, 64
6, 54720, Note_on_c, 4, 28, 100
6, 54814, Note_off_c, 4, 28, 64
6, 54816, Note_on_c, 4, 28, 100
6, 55006, Note_off_c, 4, 28, 64
6, 55008, Note_on_c, 4, 38, 100
6, 55102, Note_off_c, 4, 38, 64
6, 55104, Note_on_c, 4, 38, 100
6, 55198, Note_off_c, 4, 38, 64
6, 55200, Note_on_c, 4, 38, 100
6, 55294, Note_off_c, 4, 38, 64
6, 55296, Note_on_c, 4, 38, 100
6, 55390, Note_off_c, 4, 38, 64
6, 55392, Note_on_c, 4, 36, 100
6, 55582, Note_off_c, 4, 36, 64
6, 55584, Note_on_c, 4, 36, 100
6, 55678, Note_off_c, 4, 36, 64
6, 55680, Note_on_c, 4, 28, 100
6, 55774, Note_off_c, 4, 28, 64
6, 55776, Note_on_c, 4, 29, 100
6, 55966, Note_off_c, 4, 29, 64
6, 55968, Note_on_c, 4, 29, 100
6, 56062, Note_off_c, 4, 29, 64
6, 56064, Note_on_c, 4, 29, 100
6, 56158, Note_off_c, 4, 29, 64
6, 56160, Note_on_c, 4, 28, 100
6, 56350, Note_off_c, 4, 28, 64
6, 56352, Note_on_c, 4, 28, 100
6, 56542, Note_off_c, 4, 28, 64
6, 56544, Note_on_c, 4, 38, 100
6, 56734, Note_off_c, 4, 38, 64
6, 56736, Note_on_c, 4, 38, 100
6, 56926, Note_off_c, 4, 38, 64
6, 56928, Note_on_c, 4, 36, 100
6, 57022, Note_off_c, 4, 36, 64
6, 57024, Note_on_c, 4, 36, 100
6, 57118, Note_off_c, 4, 36, 64
6, 57120, Note_on_c, 4, 36, 100
6, 57214, Note_off_c, 4, 36, 64
6, 57216, Note_on_c, 4, 36, 100
6, 57310, Note_off_c, 4, 36, 64
6, 57312, Note_on_c, 4, 36, 100
6, 57406, Note_off_c, 4, 36, 64
6, 57408, Note_on_c, 4, 36, 100
6, 57502, Note_off_c, 4, 36, 64
6, 57504, Note_on_c, 4, 36, 100
6, 57598, Note_off_c, 4, 36, 64
6, 57600, Note_on_c, 4, 36, 100
6, 57694, Note_off_c, 4, 36, 64
6, 57696, Note_on_c, 4, 36, 100
6, 57790, Note_off_c, 4, 36, 64
6, 57792, Note_on_c, 4, 36, 100
6, 57886, Note_off_c, 4, 36, 64
6, 57888, Note_on_c, 4, 36, 100
6, 57982, Note_off_c, 4, 36, 64
6, 57984, Note_on_c, 4, 36, 100
6, 58078, Note_off_c, 4, 36, 64
6, 58080, Note_on_c, 4, 30, 100
6, 58174, Note_off_c, 4, 30, 64
6, 58176, Note_on_c, 4, 30, 100
6, 58270, Note_off_c, 4, 30, 64
6, 58272, Note_on_c, 4, 30, 100
6, 58366, Note_off_c, 4, 30, 64
6, 58368, Note_on_c, 4, 30, 100
6, 58462, Note_off_c, 4, 30, 64
6, 58464, Note_on_c, 4, 31, 100
6, 58558, Note_off_c, 4, 31, 64
6, 58560, Note_on_c, 4, 31, 100
6, 58654, Note_off_c, 4, 31, 64
6, 58656, Note_on_c, 4, 31, 100
6, 58750, Note_off_c, 4, 31, 64
6, 58752, Note_on_c, 4, 31, 100
6, 58846, Note_off_c, 4, 31, 64
6, 58848, Note_on_c, 4, 33, 100
6, 58942, Note_off_c, 4, 33, 64
6, 58944, Note_on_c, 4, 33, 100
6, 59038, Note_off_c, 4, 33, 64
6, 59040, Note_on_c, 4, 33, 100
6, 59134, Note_off_c, 4, 33, 64
6, 59136, Note_on_c, 4, 33, 100
6, 59230, Note_off_c, 4, 33, 64
6, 59232, Note_on_c, 4, 35, 100
6, 59326, Note_off_c, 4, 35, 64
6, 59328, Note_on_c, 4, 35, 100
6, 59422, Note_off_c, 4, 35, 64
6, 59424, Note_on_c, 4, 35, 100
6, 59518, Note_off_c, 4, 35, 64
6, 59520, Note_on_c, 4, 35, 100
6, 59614, Note_off_c, 4, 35, 64
6, 59616, Note_on_c, 4, 36, 100
6, 59710, Note_off_c, 4, 36, 64
6, 59712, Note_on_c, 4, 36, 100
6, 59806, Note_off_c, 4, 36, 64
6, 59808, Note_on_c, 4, 36, 100
6, 59902, Note_off_c, 4, 36, 64
6, 59904, Note_on_c, 4, 36, 100
6, 59998, Note_off_c, 4, 36, 64
6, 60000, Note_on_c, 4, 38, 100
6, 60094, Note_off_c, 4, 38, 64
6, 60096, Note_on_c, 4, 38, 100
6, 60190, Note_off_c, 4, 38, 64
6, 60192, Note_on_c, 4, 38, 100
6, 60286, Note_off_c, 4, 38, 64
6, 60288, Note_on_c, 4, 38, 100
6, 60382, Note_off_c, 4, 38, 64
6, 60384, Note_on_c, 4, 40, 100
6, 60478, Note_off_c, 4, 40, 64
6, 60480, Note_on_c, 4, 40, 100
6, 60574, Note_off_c, 4, 40, 64
6, 60576, Note_on_c, 4, 40, 100
6, 60670, Note_off_c, 4, 40, 64
6, 60672, Note_on_c, 4, 40, 100
6, 60766, Note_off_c, 4, 40, 64
6, 60768, Note_on_c, 4, 40, 100
6, 60862, Note_off_c, 4, 40, 64
6, 60864, Note_on_c, 4, 40, 100
6, 60958, Note_off_c, 4, 40, 64
6, 60960, Note_on_c, 4, 40, 100
6, 61054, Note_off_c, 4, 40, 64
6, 61056, Note_on_c, 4, 40, 100
6, 61150, Note_off_c, 4, 40, 64
6, 61152, Note_on_c, 4, 28, 100
6, 61246, Note_off_c, 4, 28, 64
6, 61248, Note_on_c, 4, 28, 100
6, 61342, Note_off_c, 4, 28, 64
6, 61344, Note_on_c, 4, 28, 100
6, 61438, Note_off_c, 4, 28, 64
6, 61440, Note_on_c, 4, 28, 100
6, 61534, Note_off_c, 4, 28, 64
6, 61536, Note_on_c, 4, 28, 100
6, 61630, Note_off_c, 4, 28, 64
6, 61632, Note_on_c, 4, 28, 100
6, 61726, Note_off_c, 4, 28, 64
6, 61728, Note_on_c, 4, 28, 100
6, 61822, Note_off_c, 4, 28, 64
6, 61824, Note_on_c, 4, 28, 100
6, 61918, Note_off_c, 4, 28, 64
6, 61920, Note_on_c, 4, 28, 100
6, 62014, Note_off_c, 4, 28, 64
6, 62016, Note_on_c, 4, 28, 100
6, 62110, Note_off_c, 4, 28, 64
6, 62112, Note_on_c, 4, 28, 100
6, 62206, Note_off_c, 4, 28, 64
6, 62208, Note_on_c, 4, 28, 100
6, 62302, Note_off_c, 4, 28, 64
6, 62304, Note_on_c, 4, 28, 100
6, 62398, Note_off_c, 4, 28, 64
6, 62400, Note_on_c, 4, 28, 100
6, 62494, Note_off_c, 4, 28, 64
6, 62496, Note_on_c, 4, 28, 100
6, 62590, Note_off_c, 4, 28, 64
6, 62592, Note_on_c, 4, 28, 100
6, 62686, Note_off_c, 4, 28, 64
6, 62688, Note_on_c, 4, 28, 100
6, 62782, Note_off_c, 4, 28, 64
6, 62784, Note_on_c, 4, 28, 100
6, 62878, Note_off_c, 4, 28, 64
6, 62880, Note_on_c, 4, 28, 100
6, 62974, Note_off_c, 4, 28, 64
6, 62976, Note_on_c, 4, 28, 100
6, 63070, Note_off_c, 4, 28, 64
6, 63072, Note_on_c, 4, 28, 100
6, 63166, Note_off_c, 4, 28, 64
6, 63168, Note_on_c, 4, 28, 100
6, 63262, Note_off_c, 4, 28, 64
6, 63264, Note_on_c, 4, 28, 100
6, 63358, Note_off_c, 4, 28, 64
6, 63360, Note_on_c, 4, 28, 100
6, 63454, Note_off_c, 4, 28, 64
6, 63456, Note_on_c, 4, 28, 100
6, 63550, Note_off_c, 4, 28, 64
6, 63552, Note_on_c, 4, 28, 100
6, 63646, Note_off_c, 4, 28, 64
6, 63648, Note_on_c, 4, 28, 100
6, 63742, Note_off_c, 4, 28, 64
6, 63744, Note_on_c, 4, 28, 100
6, 63838, Note_off_c, 4, 28, 64
6, 63840, Note_on_c, 4, 28, 100
6, 63934, Note_off_c, 4, 28, 64
6, 63936, Note_on_c, 4, 28, 100
6, 64030, Note_off_c, 4, 28, 64
6, 64032, Note_on_c, 4, 28, 100
6, 64126, Note_off_c, 4, 28, 64
6, 64128, Note_on_c, 4, 28, 100
6, 64222, Note_off_c, 4, 28, 64
6, 64224, Note_on_c, 4, 28, 100
6, 64318, Note_off_c, 4, 28, 64
6, 64320, Note_on_c, 4, 28, 100
6, 64414, Note_off_c, 4, 28, 64
6, 64416, Note_on_c, 4, 28, 100
6, 64510, Note_off_c, 4, 28, 64
6, 64512, Note_on_c, 4, 28, 100
6, 64606, Note_off_c, 4, 28, 64
6, 64608, Note_on_c, 4, 28, 100
6, 64702, Note_off_c, 4, 28, 64
6, 64704, Note_on_c, 4, 28, 100
6, 64798, Note_off_c, 4, 28, 64
6, 64800, Note_on_c, 4, 28, 100
6, 64894, Note_off_c, 4, 28, 64
6, 64896, Note_on_c, 4, 28, 100
6, 64990, Note_off_c, 4, 28, 64
6, 64992, Note_on_c, 4, 28, 100
6, 65086, Note_off_c, 4, 28, 64
6, 65088, Note_on_c, 4, 28, 100
6, 65182, Note_off_c, 4, 28, 64
6, 65184, Note_on_c, 4, 28, 100
6, 65278, Note_off_c, 4, 28, 64
6, 65280, Note_on_c, 4, 28, 100
6, 65374, Note_off_c, 4, 28, 64
6, 65376, Note_on_c, 4, 28, 100
6, 65470, Note_off_c, 4, 28, 64
6, 65472, Note_on_c, 4, 28, 100
6, 65566, Note_off_c, 4, 28, 64
6, 65568, Note_on_c, 4, 28, 100
6, 65662, Note_off_c, 4, 28, 64
6, 65664, Note_on_c, 4, 28, 100
6, 65758, Note_off_c, 4, 28, 64
6, 65760, Note_on_c, 4, 28, 100
6, 65854, Note_off_c, 4, 28, 64
6, 65856, Note_on_c, 4, 28, 100
6, 65950, Note_off_c, 4, 28, 64
6, 65952, Note_on_c, 4, 28, 100
6, 66046, Note_off_c, 4, 28, 64
6, 66048, Note_on_c, 4, 28, 100
6, 66142, Note_off_c, 4, 28, 64
6, 66144, Note_on_c, 4, 28, 100
6, 66238, Note_off_c, 4, 28, 64
6, 66240, Note_on_c, 4, 28, 100
6, 66334, Note_off_c, 4, 28, 64
6, 66336, Note_on_c, 4, 28, 100
6, 66430, Note_off_c, 4, 28, 64
6, 66432, Note_on_c, 4, 28, 100
6, 66526, Note_off_c, 4, 28, 64
6, 66528, Note_on_c, 4, 28, 100
6, 66622, Note_off_c, 4, 28, 64
6, 66624, Note_on_c, 4, 28, 100
6, 66718, Note_off_c, 4, 28, 64
6, 66720, Note_on_c, 4, 28, 100
6, 66814, Note_off_c, 4, 28, 64
6, 66816, Note_on_c, 4, 28, 100
6, 66910, Note_off_c, 4, 28, 64
6, 71520, Control_c, 4, 7, 100
6, 71520, End_track
7, 0, Start_track
7, 0, Title_t, "Melody (Harmonica)"
7, 0, Channel_prefix, 5
7, 0, Control_c, 5, 7, 100
7, 0, Program_c, 5, 68
7, 0, Control_c, 5, 91, 126
7, 3840, Note_on_c, 5, 71, 100
7, 3934, Note_off_c, 5, 71, 64
7, 3936, Note_on_c, 5, 74, 100
7, 4030, Note_off_c, 5, 74, 64
7, 4032, Note_on_c, 5, 71, 100
7, 4078, Note_off_c, 5, 71, 64
7, 4080, Note_on_c, 5, 76, 100
7, 4222, Note_off_c, 5, 76, 64
7, 4224, Note_on_c, 5, 71, 100
7, 4270, Note_off_c, 5, 71, 64
7, 4272, Note_on_c, 5, 74, 100
7, 4414, Note_off_c, 5, 74, 64
7, 4416, Note_on_c, 5, 76, 100
7, 4590, Note_off_c, 5, 76, 64
7, 4592, Note_on_c, 5, 71, 100
7, 5182, Note_off_c, 5, 71, 64
7, 5376, Note_on_c, 5, 67, 100
7, 5422, Note_off_c, 5, 67, 64
7, 5424, Note_on_c, 5, 71, 100
7, 5566, Note_off_c, 5, 71, 64
7, 5568, Note_on_c, 5, 72, 100
7, 5662, Note_off_c, 5, 72, 64
7, 5664, Note_on_c, 5, 71, 100
7, 5710, Note_off_c, 5, 71, 64
7, 5712, Note_on_c, 5, 69, 100
7, 5758, Note_off_c, 5, 69, 64
7, 5760, Note_on_c, 5, 67, 100
7, 5950, Note_off_c, 5, 67, 64
7, 5952, Note_on_c, 5, 69, 100
7, 6046, Note_off_c, 5, 69, 64
7, 6048, Note_on_c, 5, 64, 100
7, 6142, Note_off_c, 5, 64, 64
7, 6144, Note_on_c, 5, 71, 100
7, 6190, Note_off_c, 5, 71, 64
7, 6192, Note_on_c, 5, 71, 100
7, 6622, Note_off_c, 5, 71, 64
7, 6912, Note_on_c, 5, 71, 100
7, 7006, Note_off_c, 5, 71, 64
7, 7008, Note_on_c, 5, 74, 100
7, 7102, Note_off_c, 5, 74, 64
7, 7104, Note_on_c, 5, 74, 100
7, 7150, Note_off_c, 5, 74, 64
7, 7152, Note_on_c, 5, 76, 100
7, 7294, Note_off_c, 5, 76, 64
7, 7296, Note_on_c, 5, 71, 100
7, 7390, Note_off_c, 5, 71, 64
7, 7392, Note_on_c, 5, 74, 100
7, 7486, Note_off_c, 5, 74, 64
7, 7488, Note_on_c, 5, 76, 100
7, 7550, Note_off_c, 5, 76, 64
7, 7552, Note_on_c, 5, 71, 100
7, 8078, Note_off_c, 5, 71, 64
7, 8448, Note_on_c, 5, 67, 100
7, 8542, Note_off_c, 5, 67, 64
7, 8544, Note_on_c, 5, 71, 100
7, 8638, Note_off_c, 5, 71, 64
7, 8640, Note_on_c, 5, 72, 100
7, 8734, Note_off_c, 5, 72, 64
7, 8736, Note_on_c, 5, 71, 100
7, 8830, Note_off_c, 5, 71, 64
7, 8832, Note_on_c, 5, 69, 100
7, 8878, Note_off_c, 5, 69, 64
7, 8880, Note_on_c, 5, 67, 100
7, 9022, Note_off_c, 5, 67, 64
7, 9024, Note_on_c, 5, 69, 100
7, 9070, Note_off_c, 5, 69, 64
7, 9072, Note_on_c, 5, 67, 100
7, 9478, Note_off_c, 5, 67, 64
7, 9984, Note_on_c, 5, 67, 100
7, 10078, Note_off_c, 5, 67, 64
7, 10080, Note_on_c, 5, 71, 100
7, 10174, Note_off_c, 5, 71, 64
7, 10176, Note_on_c, 5, 72, 100
7, 10270, Note_off_c, 5, 72, 64
7, 10272, Note_on_c, 5, 71, 100
7, 10366, Note_off_c, 5, 71, 64
7, 10368, Note_on_c, 5, 69, 100
7, 10414, Note_off_c, 5, 69, 64
7, 10416, Note_on_c, 5, 67, 100
7, 10558, Note_off_c, 5, 67, 64
7, 10560, Note_on_c, 5, 69, 100
7, 10606, Note_off_c, 5, 69, 64
7, 10608, Note_on_c, 5, 67, 100
7, 10942, Note_off_c, 5, 67, 64
7, 11520, Note_on_c, 5, 74, 100
7, 11614, Note_off_c, 5, 74, 64
7, 11616, Note_on_c, 5, 74, 100
7, 11662, Note_off_c, 5, 74, 64
7, 11664, Note_on_c, 5, 74, 100
7, 11758, Note_off_c, 5, 74, 64
7, 11760, Note_on_c, 5, 76, 100
7, 11902, Note_off_c, 5, 76, 64
7, 11904, Note_on_c, 5, 71, 100
7, 11998, Note_off_c, 5, 71, 64
7, 12000, Note_on_c, 5, 74, 100
7, 12046, Note_off_c, 5, 74, 64
7, 12048, Note_on_c, 5, 76, 100
7, 12142, Note_off_c, 5, 76, 64
7, 12144, Note_on_c, 5, 71, 100
7, 12670, Note_off_c, 5, 71, 64
7, 13056, Note_on_c, 5, 67, 100
7, 13150, Note_off_c, 5, 67, 64
7, 13152, Note_on_c, 5, 71, 100
7, 13198, Note_off_c, 5, 71, 64
7, 13200, Note_on_c, 5, 72, 100
7, 13294, Note_off_c, 5, 72, 64
7, 13296, Note_on_c, 5, 71, 100
7, 13438, Note_off_c, 5, 71, 64
7, 13440, Note_on_c, 5, 69, 100
7, 13534, Note_off_c, 5, 69, 64
7, 13536, Note_on_c, 5, 67, 100
7, 13630, Note_off_c, 5, 67, 64
7, 13632, Note_on_c, 5, 69, 100
7, 13678, Note_off_c, 5, 69, 64
7, 13680, Note_on_c, 5, 64, 100
7, 13822, Note_off_c, 5, 64, 64
7, 13824, Note_on_c, 5, 71, 100
7, 13870, Note_off_c, 5, 71, 64
7, 13872, Note_on_c, 5, 71, 100
7, 14206, Note_off_c, 5, 71, 64
7, 14592, Note_on_c, 5, 71, 100
7, 14686, Note_off_c, 5, 71, 64
7, 14688, Note_on_c, 5, 74, 100
7, 14782, Note_off_c, 5, 74, 64
7, 14784, Note_on_c, 5, 71, 100
7, 14878, Note_off_c, 5, 71, 64
7, 14880, Note_on_c, 5, 76, 100
7, 14926, Note_off_c, 5, 76, 64
7, 14928, Note_on_c, 5, 71, 100
7, 15070, Note_off_c, 5, 71, 64
7, 15072, Note_on_c, 5, 74, 100
7, 15118, Note_off_c, 5, 74, 64
7, 15120, Note_on_c, 5, 76, 100
7, 15262, Note_off_c, 5, 76, 64
7, 15264, Note_on_c, 5, 71, 100
7, 15790, Note_off_c, 5, 71, 64
7, 16128, Note_on_c, 5, 67, 100
7, 16222, Note_off_c, 5, 67, 64
7, 16224, Note_on_c, 5, 71, 100
7, 16318, Note_off_c, 5, 71, 64
7, 16320, Note_on_c, 5, 72, 100
7, 16414, Note_off_c, 5, 72, 64
7, 16416, Note_on_c, 5, 71, 100
7, 16510, Note_off_c, 5, 71, 64
7, 16512, Note_on_c, 5, 69, 100
7, 16558, Note_off_c, 5, 69, 64
7, 16560, Note_on_c, 5, 67, 100
7, 16798, Note_off_c, 5, 67, 64
7, 16800, Note_on_c, 5, 71, 100
7, 16862, Note_off_c, 5, 71, 64
7, 16864, Note_on_c, 5, 70, 100
7, 16894, Note_off_c, 5, 70, 64
7, 16896, Note_on_c, 5, 71, 100
7, 16958, Note_off_c, 5, 71, 64
7, 16960, Note_on_c, 5, 70, 100
7, 16990, Note_off_c, 5, 70, 64
7, 16992, Note_on_c, 5, 71, 100
7, 17054, Note_off_c, 5, 71, 64
7, 17056, Note_on_c, 5, 70, 100
7, 17086, Note_off_c, 5, 70, 64
7, 17088, Note_on_c, 5, 71, 100
7, 17150, Note_off_c, 5, 71, 64
7, 17152, Note_on_c, 5, 70, 100
7, 17182, Note_off_c, 5, 70, 64
7, 17184, Note_on_c, 5, 71, 100
7, 17246, Note_off_c, 5, 71, 64
7, 17248, Note_on_c, 5, 70, 100
7, 17278, Note_off_c, 5, 70, 64
7, 17280, Note_on_c, 5, 71, 100
7, 17342, Note_off_c, 5, 71, 64
7, 17344, Note_on_c, 5, 70, 100
7, 17374, Note_off_c, 5, 70, 64
7, 17376, Note_on_c, 5, 71, 100
7, 17470, Note_off_c, 5, 71, 64
7, 17472, Note_on_c, 5, 76, 100
7, 17518, Note_off_c, 5, 76, 64
7, 17520, Note_on_c, 5, 79, 100
7, 17950, Note_off_c, 5, 79, 64
7, 18432, Note_on_c, 5, 71, 100
7, 18526, Note_off_c, 5, 71, 64
7, 18528, Note_on_c, 5, 74, 100
7, 18622, Note_off_c, 5, 74, 64
7, 18624, Note_on_c, 5, 71, 100
7, 18670, Note_off_c, 5, 71, 64
7, 18672, Note_on_c, 5, 76, 100
7, 18814, Note_off_c, 5, 76, 64
7, 18816, Note_on_c, 5, 71, 100
7, 18910, Note_off_c, 5, 71, 64
7, 18912, Note_on_c, 5, 74, 100
7, 19022, Note_off_c, 5, 74, 64
7, 19024, Note_on_c, 5, 76, 100
7, 19198, Note_off_c, 5, 76, 64
7, 19200, Note_on_c, 5, 71, 100
7, 19646, Note_off_c, 5, 71, 64
7, 19968, Note_on_c, 5, 67, 100
7, 20062, Note_off_c, 5, 67, 64
7, 20064, Note_on_c, 5, 71, 100
7, 20158, Note_off_c, 5, 71, 64
7, 20160, Note_on_c, 5, 72, 100
7, 20206, Note_off_c, 5, 72, 64
7, 20208, Note_on_c, 5, 71, 100
7, 20350, Note_off_c, 5, 71, 64
7, 20352, Note_on_c, 5, 69, 100
7, 20446, Note_off_c, 5, 69, 64
7, 20448, Note_on_c, 5, 67, 100
7, 20542, Note_off_c, 5, 67, 64
7, 20544, Note_on_c, 5, 69, 100
7, 20638, Note_off_c, 5, 69, 64
7, 20640, Note_on_c, 5, 64, 100
7, 20734, Note_off_c, 5, 64, 64
7, 20736, Note_on_c, 5, 71, 100
7, 20782, Note_off_c, 5, 71, 64
7, 20784, Note_on_c, 5, 71, 100
7, 21118, Note_off_c, 5, 71, 64
7, 21504, Note_on_c, 5, 71, 100
7, 21598, Note_off_c, 5, 71, 64
7, 21600, Note_on_c, 5, 74, 100
7, 21694, Note_off_c, 5, 74, 64
7, 21696, Note_on_c, 5, 71, 100
7, 21790, Note_off_c, 5, 71, 64
7, 21792, Note_on_c, 5, 76, 100
7, 21838, Note_off_c, 5, 76, 64
7, 21840, Note_on_c, 5, 71, 100
7, 21982, Note_off_c, 5, 71, 64
7, 21984, Note_on_c, 5, 74, 100
7, 22078, Note_off_c, 5, 74, 64
7, 22080, Note_on_c, 5, 76, 100
7, 22126, Note_off_c, 5, 76, 64
7, 22128, Note_on_c, 5, 71, 100
7, 22654, Note_off_c, 5, 71, 64
7, 23040, Note_on_c, 5, 67, 100
7, 23086, Note_off_c, 5, 67, 64
7, 23088, Note_on_c, 5, 71, 100
7, 23230, Note_off_c, 5, 71, 64
7, 23232, Note_on_c, 5, 72, 100
7, 23326, Note_off_c, 5, 72, 64
7, 23328, Note_on_c, 5, 71, 100
7, 23422, Note_off_c, 5, 71, 64
7, 23424, Note_on_c, 5, 69, 100
7, 23470, Note_off_c, 5, 69, 64
7, 23472, Note_on_c, 5, 67, 100
7, 23710, Note_off_c, 5, 67, 64
7, 23904, Note_on_c, 5, 71, 100
7, 23998, Note_off_c, 5, 71, 64
7, 24000, Note_on_c, 5, 72, 100
7, 24094, Note_off_c, 5, 72, 64
7, 24096, Note_on_c, 5, 71, 100
7, 24286, Note_off_c, 5, 71, 64
7, 24288, Note_on_c, 5, 76, 100
7, 24478, Note_off_c, 5, 76, 64
7, 24480, Note_on_c, 5, 79, 100
7, 25054, Note_off_c, 5, 79, 64
7, 25152, Note_on_c, 5, 76, 100
7, 25246, Note_off_c, 5, 76, 64
7, 25248, Note_on_c, 5, 79, 100
7, 25438, Note_off_c, 5, 79, 64
7, 25440, Note_on_c, 5, 76, 100
7, 25630, Note_off_c, 5, 76, 64
7, 25633, Control_c, 5, 7, 100
7, 25633, Note_on_c, 5, 71, 86
7, 25662, Control_c, 5, 7, 99
7, 25689, Note_on_c, 5, 72, 68
7, 25691, Control_c, 5, 7, 98
7, 25692, Note_off_c, 5, 71, 64
7, 25720, Control_c, 5, 7, 97
7, 25728, Note_on_c, 5, 71, 86
7, 25729, Note_off_c, 5, 72, 64
7, 25748, Control_c, 5, 7, 96
7, 25777, Control_c, 5, 7, 95
7, 25784, Note_on_c, 5, 72, 68
7, 25787, Note_off_c, 5, 71, 64
7, 25806, Control_c, 5, 7, 94
7, 25824, Note_off_c, 5, 72, 64
7, 25824, Note_on_c, 5, 71, 86
7, 25835, Control_c, 5, 7, 93
7, 25864, Control_c, 5, 7, 92
7, 25880, Note_on_c, 5, 72, 68
7, 25883, Note_off_c, 5, 71, 64
7, 25892, Control_c, 5, 7, 91
7, 25916, Note_on_c, 5, 71, 86
7, 25920, Note_off_c, 5, 72, 64
7, 25921, Control_c, 5, 7, 90
7, 25950, Control_c, 5, 7, 89
7, 25976, Note_off_c, 5, 71, 64
7, 25976, Note_on_c, 5, 72, 68
7, 25979, Control_c, 5, 7, 88
7, 26008, Control_c, 5, 7, 87
7, 26014, Note_on_c, 5, 71, 92
7, 26016, Note_off_c, 5, 72, 64
7, 26036, Control_c, 5, 7, 86
7, 26065, Control_c, 5, 7, 85
7, 26072, Note_off_c, 5, 71, 64
7, 26073, Note_on_c, 5, 72, 70
7, 26094, Control_c, 5, 7, 84
7, 26110, Note_on_c, 5, 71, 92
7, 26113, Note_off_c, 5, 72, 64
7, 26123, Control_c, 5, 7, 83
7, 26152, Control_c, 5, 7, 82
7, 26174, Note_on_c, 5, 72, 80
7, 26176, Note_off_c, 5, 71, 64
7, 26180, Control_c, 5, 7, 81
7, 26209, Control_c, 5, 7, 80
7, 26211, Note_off_c, 5, 72, 64
7, 26211, Note_on_c, 5, 71, 80
7, 26238, Control_c, 5, 7, 79
7, 26267, Control_c, 5, 7, 78
7, 26275, Note_on_c, 5, 72, 78
7, 26278, Note_off_c, 5, 71, 64
7, 26296, Control_c, 5, 7, 77
7, 26308, Note_on_c, 5, 71, 68
7, 26312, Note_off_c, 5, 72, 64
7, 26324, Control_c, 5, 7, 76
7, 26353, Control_c, 5, 7, 75
7, 26363, Note_on_c, 5, 72, 78
7, 26364, Note_off_c, 5, 71, 64
7, 26382, Control_c, 5, 7, 74
7, 26403, Note_off_c, 5, 72, 64
7, 26403, Note_on_c, 5, 71, 86
7, 26411, Control_c, 5, 7, 73
7, 26440, Control_c, 5, 7, 72
7, 26460, Note_on_c, 5, 72, 68
7, 26462, Note_off_c, 5, 71, 64
7, 26468, Control_c, 5, 7, 71
7, 26497, Control_c, 5, 7, 70
7, 26497, Note_on_c, 5, 71, 80
7, 26500, Note_off_c, 5, 72, 64
7, 26526, Control_c, 5, 7, 69
7, 26552, Note_on_c, 5, 72, 76
7, 26553, Note_off_c, 5, 71, 64
7, 26555, Control_c, 5, 7, 68
7, 26584, Control_c, 5, 7, 67
7, 26590, Note_on_c, 5, 71, 78
7, 26592, Note_off_c, 5, 72, 64
7, 26612, Control_c, 5, 7, 66
7, 26641, Control_c, 5, 7, 65
7, 26651, Note_on_c, 5, 72, 76
7, 26652, Note_off_c, 5, 71, 64
7, 26670, Control_c, 5, 7, 64
7, 26683, Note_on_c, 5, 71, 80
7, 26689, Note_off_c, 5, 72, 64
7, 26699, Control_c, 5, 7, 63
7, 26728, Control_c, 5, 7, 62
7, 26742, Note_off_c, 5, 71, 64
7, 26744, Note_on_c, 5, 72, 74
7, 26756, Control_c, 5, 7, 61
7, 26787, Note_off_c, 5, 72, 64
7, 26787, Control_c, 5, 7, 60
7, 50784, Control_c, 5, 7, 99
7, 50880, Note_on_c, 5, 71, 100
7, 50974, Note_off_c, 5, 71, 64
7, 50976, Note_on_c, 5, 74, 100
7, 51070, Note_off_c, 5, 74, 64
7, 51072, Note_on_c, 5, 71, 100
7, 51118, Note_off_c, 5, 71, 64
7, 51120, Note_on_c, 5, 76, 100
7, 51262, Note_off_c, 5, 76, 64
7, 51264, Note_on_c, 5, 71, 100
7, 51358, Note_off_c, 5, 71, 64
7, 51360, Note_on_c, 5, 74, 100
7, 51454, Note_off_c, 5, 74, 64
7, 51456, Note_on_c, 5, 76, 100
7, 51550, Note_off_c, 5, 76, 64
7, 51552, Note_on_c, 5, 71, 100
7, 52062, Note_off_c, 5, 71, 64
7, 52416, Note_on_c, 5, 67, 100
7, 52510, Note_off_c, 5, 67, 64
7, 52512, Note_on_c, 5, 71, 100
7, 52606, Note_off_c, 5, 71, 64
7, 52608, Note_on_c, 5, 72, 100
7, 52654, Note_off_c, 5, 72, 64
7, 52656, Note_on_c, 5, 71, 100
7, 52798, Note_off_c, 5, 71, 64
7, 52800, Note_on_c, 5, 69, 100
7, 52894, Note_off_c, 5, 69, 64
7, 52896, Note_on_c, 5, 67, 100
7, 52990, Note_off_c, 5, 67, 64
7, 52992, Note_on_c, 5, 69, 100
7, 53086, Note_off_c, 5, 69, 64
7, 53088, Note_on_c, 5, 64, 100
7, 53182, Note_off_c, 5, 64, 64
7, 53184, Note_on_c, 5, 71, 100
7, 53230, Note_off_c, 5, 71, 64
7, 53232, Note_on_c, 5, 71, 100
7, 53566, Note_off_c, 5, 71, 64
7, 53952, Note_on_c, 5, 71, 100
7, 54046, Note_off_c, 5, 71, 64
7, 54048, Note_on_c, 5, 74, 100
7, 54142, Note_off_c, 5, 74, 64
7, 54144, Note_on_c, 5, 71, 100
7, 54190, Note_off_c, 5, 71, 64
7, 54192, Note_on_c, 5, 76, 100
7, 54334, Note_off_c, 5, 76, 64
7, 54336, Note_on_c, 5, 71, 100
7, 54430, Note_off_c, 5, 71, 64
7, 54432, Note_on_c, 5, 74, 100
7, 54526, Note_off_c, 5, 74, 64
7, 54528, Note_on_c, 5, 76, 100
7, 54622, Note_off_c, 5, 76, 64
7, 54624, Note_on_c, 5, 71, 100
7, 55150, Note_off_c, 5, 71, 64
7, 55488, Note_on_c, 5, 67, 100
7, 55582, Note_off_c, 5, 67, 64
7, 55584, Note_on_c, 5, 71, 100
7, 55678, Note_off_c, 5, 71, 64
7, 55680, Note_on_c, 5, 72, 100
7, 55726, Note_off_c, 5, 72, 64
7, 55728, Note_on_c, 5, 71, 100
7, 55870, Note_off_c, 5, 71, 64
7, 55872, Note_on_c, 5, 69, 100
7, 55918, Note_off_c, 5, 69, 64
7, 55920, Note_on_c, 5, 67, 100
7, 56158, Note_off_c, 5, 67, 64
7, 56160, Note_on_c, 5, 71, 100
7, 56222, Note_off_c, 5, 71, 64
7, 56224, Note_on_c, 5, 70, 100
7, 56254, Note_off_c, 5, 70, 64
7, 56256, Note_on_c, 5, 71, 100
7, 56318, Note_off_c, 5, 71, 64
7, 56320, Note_on_c, 5, 70, 100
7, 56350, Note_off_c, 5, 70, 64
7, 56352, Note_on_c, 5, 71, 100
7, 56414, Note_off_c, 5, 71, 64
7, 56416, Note_on_c, 5, 70, 100
7, 56446, Note_off_c, 5, 70, 64
7, 56448, Note_on_c, 5, 71, 100
7, 56510, Note_off_c, 5, 71, 64
7, 56512, Note_on_c, 5, 70, 100
7, 56542, Note_off_c, 5, 70, 64
7, 56544, Note_on_c, 5, 71, 100
7, 56606, Note_off_c, 5, 71, 64
7, 56608, Note_on_c, 5, 70, 100
7, 56638, Note_off_c, 5, 70, 64
7, 56640, Note_on_c, 5, 71, 100
7, 56702, Note_off_c, 5, 71, 64
7, 56704, Note_on_c, 5, 70, 100
7, 56734, Note_off_c, 5, 70, 64
7, 56736, Note_on_c, 5, 71, 100
7, 56830, Note_off_c, 5, 71, 64
7, 56832, Note_on_c, 5, 76, 100
7, 56878, Note_off_c, 5, 76, 64
7, 56880, Note_on_c, 5, 79, 100
7, 57310, Note_off_c, 5, 79, 64
7, 57600, Note_on_c, 5, 76, 100
7, 57694, Note_off_c, 5, 76, 64
7, 57696, Note_on_c, 5, 79, 100
7, 57886, Note_off_c, 5, 79, 64
7, 57888, Note_on_c, 5, 76, 100
7, 58078, Note_off_c, 5, 76, 64
7, 58081, Control_c, 5, 7, 100
7, 58081, Note_on_c, 5, 71, 86
7, 58110, Control_c, 5, 7, 99
7, 58137, Note_on_c, 5, 72, 68
7, 58139, Control_c, 5, 7, 98
7, 58140, Note_off_c, 5, 71, 64
7, 58168, Control_c, 5, 7, 97
7, 58176, Note_on_c, 5, 71, 86
7, 58177, Note_off_c, 5, 72, 64
7, 58196, Control_c, 5, 7, 96
7, 58225, Control_c, 5, 7, 95
7, 58232, Note_on_c, 5, 72, 68
7, 58235, Note_off_c, 5, 71, 64
7, 58254, Control_c, 5, 7, 94
7, 58272, Note_off_c, 5, 72, 64
7, 58272, Note_on_c, 5, 71, 86
7, 58283, Control_c, 5, 7, 93
7, 58312, Control_c, 5, 7, 92
7, 58328, Note_on_c, 5, 72, 68
7, 58331, Note_off_c, 5, 71, 64
7, 58340, Control_c, 5, 7, 91
7, 58364, Note_on_c, 5, 71, 86
7, 58368, Note_off_c, 5, 72, 64
7, 58369, Control_c, 5, 7, 90
7, 58398, Control_c, 5, 7, 89
7, 58424, Note_off_c, 5, 71, 64
7, 58424, Note_on_c, 5, 72, 68
7, 58427, Control_c, 5, 7, 88
7, 58456, Control_c, 5, 7, 87
7, 58462, Note_on_c, 5, 71, 92
7, 58464, Note_off_c, 5, 72, 64
7, 58484, Control_c, 5, 7, 86
7, 58513, Control_c, 5, 7, 85
7, 58520, Note_off_c, 5, 71, 64
7, 58521, Note_on_c, 5, 72, 70
7, 58542, Control_c, 5, 7, 84
7, 58558, Note_on_c, 5, 71, 92
7, 58561, Note_off_c, 5, 72, 64
7, 58571, Control_c, 5, 7, 83
7, 58600, Control_c, 5, 7, 82
7, 58622, Note_on_c, 5, 72, 80
7, 58624, Note_off_c, 5, 71, 64
7, 58628, Control_c, 5, 7, 81
7, 58657, Control_c, 5, 7, 80
7, 58659, Note_off_c, 5, 72, 64
7, 58659, Note_on_c, 5, 71, 80
7, 58686, Control_c, 5, 7, 79
7, 58715, Control_c, 5, 7, 78
7, 58723, Note_on_c, 5, 72, 78
7, 58726, Note_off_c, 5, 71, 64
7, 58744, Control_c, 5, 7, 77
7, 58756, Note_on_c, 5, 71, 68
7, 58760, Note_off_c, 5, 72, 64
7, 58772, Control_c, 5, 7, 76
7, 58801, Control_c, 5, 7, 75
7, 58811, Note_on_c, 5, 72, 78
7, 58812, Note_off_c, 5, 71, 64
7, 58830, Control_c, 5, 7, 74
7, 58851, Note_off_c, 5, 72, 64
7, 58851, Note_on_c, 5, 71, 86
7, 58859, Control_c, 5, 7, 73
7, 58888, Control_c, 5, 7, 72
7, 58908, Note_on_c, 5, 72, 68
7, 58910, Note_off_c, 5, 71, 64
7, 58916, Control_c, 5, 7, 71
7, 58945, Control_c, 5, 7, 70
7, 58945, Note_on_c, 5, 71, 80
7, 58948, Note_off_c, 5, 72, 64
7, 58974, Control_c, 5, 7, 69
7, 59000, Note_on_c, 5, 72, 76
7, 59001, Note_off_c, 5, 71, 64
7, 59003, Control_c, 5, 7, 68
7, 59032, Control_c, 5, 7, 67
7, 59038, Note_on_c, 5, 71, 78
7, 59040, Note_off_c, 5, 72, 64
7, 59060, Control_c, 5, 7, 66
7, 59089, Control_c, 5, 7, 65
7, 59099, Note_on_c, 5, 72, 76
7, 59100, Note_off_c, 5, 71, 64
7, 59118, Control_c, 5, 7, 64
7, 59131, Note_on_c, 5, 71, 80
7, 59137, Note_off_c, 5, 72, 64
7, 59147, Control_c, 5, 7, 63
7, 59176, Control_c, 5, 7, 62
7, 59190, Note_off_c, 5, 71, 64
7, 59192, Note_on_c, 5, 72, 74
7, 59204, Control_c, 5, 7, 61
7, 59235, Note_off_c, 5, 72, 64
7, 59235, Control_c, 5, 7, 60
7, 71520, Control_c, 5, 7, 100
7, 71520, End_track
8, 0, Start_track
8, 0, Title_t, "Strings"
8, 0, Channel_prefix, 6
8, 0, Control_c, 6, 7, 80
8, 0, Program_c, 6, 48
8, 25632, Control_c, 6, 7, 0
8, 25632, Note_on_c, 6, 47, 100
8, 25636, Control_c, 6, 7, 1
8, 25643, Control_c, 6, 7, 2
8, 25649, Control_c, 6, 7, 3
8, 25656, Control_c, 6, 7, 4
8, 25662, Control_c, 6, 7, 5
8, 25668, Control_c, 6, 7, 6
8, 25675, Control_c, 6, 7, 7
8, 25678, Note_off_c, 6, 47, 64
8, 25680, Note_on_c, 6, 48, 100
8, 25681, Control_c, 6, 7, 8
8, 25688, Control_c, 6, 7, 9
8, 25694, Control_c, 6, 7, 10
8, 25700, Control_c, 6, 7, 11
8, 25707, Control_c, 6, 7, 12
8, 25713, Control_c, 6, 7, 13
8, 25720, Control_c, 6, 7, 14
8, 25726, Note_off_c, 6, 48, 64
8, 25726, Control_c, 6, 7, 15
8, 25728, Note_on_c, 6, 47, 100
8, 25732, Control_c, 6, 7, 16
8, 25739, Control_c, 6, 7, 17
8, 25745, Control_c, 6, 7, 18
8, 25752, Control_c, 6, 7, 19
8, 25758, Control_c, 6, 7, 20
8, 25764, Control_c, 6, 7, 21
8, 25771, Control_c, 6, 7, 22
8, 25774, Note_off_c, 6, 47, 64
8, 25776, Note_on_c, 6, 48, 100
8, 25777, Control_c, 6, 7, 23
8, 25784, Control_c, 6, 7, 24
8, 25790, Control_c, 6, 7, 25
8, 25796, Control_c, 6, 7, 26
8, 25803, Control_c, 6, 7, 27
8, 25809, Control_c, 6, 7, 28
8, 25816, Control_c, 6, 7, 29
8, 25822, Note_off_c, 6, 48, 64
8, 25822, Control_c, 6, 7, 30
8, 25824, Note_on_c, 6, 47, 100
8, 25828, Control_c, 6, 7, 31
8, 25835, Control_c, 6, 7, 32
8, 25841, Control_c, 6, 7, 33
8, 25848, Control_c, 6, 7, 34
8, 25854, Control_c, 6, 7, 35
8, 25860, Control_c, 6, 7, 36
8, 25867, Control_c, 6, 7, 37
8, 25870, Note_off_c, 6, 47, 64
8, 25872, Note_on_c, 6, 48, 100
8, 25873, Control_c, 6, 7, 38
8, 25880, Control_c, 6, 7, 39
8, 25886, Control_c, 6, 7, 40
8, 25892, Control_c, 6, 7, 41
8, 25899, Control_c, 6, 7, 42
8, 25905, Control_c, 6, 7, 43
8, 25912, Control_c, 6, 7, 44
8, 25918, Note_off_c, 6, 48, 64
8, 25918, Control_c, 6, 7, 45
8, 25920, Note_on_c, 6, 47, 100
8, 25924, Control_c, 6, 7, 46
8, 25931, Control_c, 6, 7, 47
8, 25937, Control_c, 6, 7, 48
8, 25944, Control_c, 6, 7, 49
8, 25950, Control_c, 6, 7, 50
8, 25956, Control_c, 6, 7, 51
8, 25963, Control_c, 6, 7, 52
8, 25966, Note_off_c, 6, 47, 64
8, 25968, Note_on_c, 6, 48, 100
8, 25969, Control_c, 6, 7, 53
8, 25976, Control_c, 6, 7, 54
8, 25982, Control_c, 6, 7, 55
8, 25988, Control_c, 6, 7, 56
8, 25995, Control_c, 6, 7, 57
8, 26001, Control_c, 6, 7, 58
8, 26008, Control_c, 6, 7, 59
8, 26014, Note_off_c, 6, 48, 64
8, 26014, Control_c, 6, 7, 60
8, 26016, Control_c, 6, 7, 60
8, 26016, Note_on_c, 6, 59, 100
8, 26016, Note_on_c, 6, 47, 100
8, 26062, Note_off_c, 6, 47, 64
8, 26062, Note_off_c, 6, 59, 64
8, 26064, Note_on_c, 6, 60, 100
8, 26064, Note_on_c, 6, 48, 100
8, 26072, Control_c, 6, 7, 61
8, 26110, Note_off_c, 6, 48, 64
8, 26110, Note_off_c, 6, 60, 64
8, 26112, Note_on_c, 6, 59, 100
8, 26112, Note_on_c, 6, 47, 100
8, 26129, Control_c, 6, 7, 62
8, 26158, Note_off_c, 6, 47, 64
8, 26158, Note_off_c, 6, 59, 64
8, 26160, Note_on_c, 6, 60, 100
8, 26160, Note_on_c, 6, 48, 100
8, 26187, Control_c, 6, 7, 63
8, 26206, Note_off_c, 6, 48, 64
8, 26206, Note_off_c, 6, 60, 64
8, 26208, Note_on_c, 6, 59, 100
8, 26208, Note_on_c, 6, 47, 100
8, 26244, Control_c, 6, 7, 64
8, 26254, Note_off_c, 6, 47, 64
8, 26254, Note_off_c, 6, 59, 64
8, 26256, Note_on_c, 6, 60, 100
8, 26256, Note_on_c, 6, 48, 100
8, 26302, Note_off_c, 6, 48, 64
8, 26302, Note_off_c, 6, 60, 64
8, 26302, Control_c, 6, 7, 65
8, 26304, Note_on_c, 6, 59, 100
8, 26304, Note_on_c, 6, 47, 100
8, 26350, Note_off_c, 6, 47, 64
8, 26350, Note_off_c, 6, 59, 64
8, 26352, Note_on_c, 6, 60, 100
8, 26352, Note_on_c, 6, 48, 100
8, 26360, Control_c, 6, 7, 66
8, 26398, Note_off_c, 6, 48, 64
8, 26398, Note_off_c, 6, 60, 64
8, 26400, Note_on_c, 6, 59, 100
8, 26400, Note_on_c, 6, 47, 100
8, 26417, Control_c, 6, 7, 67
8, 26446, Note_off_c, 6, 47, 64
8, 26446, Note_off_c, 6, 59, 64
8, 26448, Note_on_c, 6, 60, 100
8, 26448, Note_on_c, 6, 48, 100
8, 26475, Control_c, 6, 7, 68
8, 26494, Note_off_c, 6, 48, 64
8, 26494, Note_off_c, 6, 60, 64
8, 26496, Note_on_c, 6, 59, 100
8, 26496, Note_on_c, 6, 47, 100
8, 26532, Control_c, 6, 7, 69
8, 26542, Note_off_c, 6, 47, 64
8, 26542, Note_off_c, 6, 59, 64
8, 26544, Note_on_c, 6, 60, 100
8, 26544, Note_on_c, 6, 48, 100
8, 26590, Note_off_c, 6, 48, 64
8, 26590, Note_off_c, 6, 60, 64
8, 26590, Control_c, 6, 7, 70
8, 26592, Note_on_c, 6, 59, 100
8, 26592, Note_on_c, 6, 47, 100
8, 26638, Note_off_c, 6, 47, 64
8, 26638, Note_off_c, 6, 59, 64
8, 26640, Note_on_c, 6, 60, 100
8, 26640, Note_on_c, 6, 48, 100
8, 26648, Control_c, 6, 7, 71
8, 26686, Note_off_c, 6, 48, 64
8, 26686, Note_off_c, 6, 60, 64
8, 26688, Note_on_c, 6, 59, 100
8, 26688, Note_on_c, 6, 47, 100
8, 26705, Control_c, 6, 7, 72
8, 26734, Note_off_c, 6, 47, 64
8, 26734, Note_off_c, 6, 59, 64
8, 26736, Note_on_c, 6, 60, 100
8, 26736, Note_on_c, 6, 48, 100
8, 26763, Control_c, 6, 7, 73
8, 26782, Note_off_c, 6, 48, 64
8, 26782, Note_off_c, 6, 60, 64
8, 26784, Note_on_c, 6, 59, 100
8, 26784, Note_on_c, 6, 47, 100
8, 26820, Control_c, 6, 7, 74
8, 26830, Note_off_c, 6, 47, 64
8, 26830, Note_off_c, 6, 59, 64
8, 26832, Note_on_c, 6, 60, 100
8, 26832, Note_on_c, 6, 48, 100
8, 26878, Note_off_c, 6, 48, 64
8, 26878, Note_off_c, 6, 60, 64
8, 26878, Control_c, 6, 7, 75
8, 26880, Note_on_c, 6, 59, 100
8, 26880, Note_on_c, 6, 47, 100
8, 26926, Note_off_c, 6, 47, 64
8, 26926, Note_off_c, 6, 59, 64
8, 26928, Note_on_c, 6, 60, 100
8, 26928, Note_on_c, 6, 48, 100
8, 26936, Control_c, 6, 7, 76
8, 26974, Note_off_c, 6, 48, 64
8, 26974, Note_off_c, 6, 60, 64
8, 26976, Note_on_c, 6, 59, 100
8, 26976, Note_on_c, 6, 47, 100
8, 26993, Control_c, 6, 7, 77
8, 27022, Note_off_c, 6, 47, 64
8, 27022, Note_off_c, 6, 59, 64
8, 27024, Note_on_c, 6, 60, 100
8, 27024, Note_on_c, 6, 48, 100
8, 27051, Control_c, 6, 7, 78
8, 27070, Note_off_c, 6, 48, 64
8, 27070, Note_off_c, 6, 60, 64
8, 27072, Note_on_c, 6, 59, 100
8, 27072, Note_on_c, 6, 47, 100
8, 27108, Control_c, 6, 7, 79
8, 27118, Note_off_c, 6, 47, 64
8, 27118, Note_off_c, 6, 59, 64
8, 27120, Note_on_c, 6, 60, 100
8, 27120, Note_on_c, 6, 48, 100
8, 27166, Note_off_c, 6, 48, 64
8, 27166, Note_off_c, 6, 60, 64
8, 27166, Control_c, 6, 7, 80
8, 27168, Note_on_c, 6, 59, 100
8, 27168, Note_on_c, 6, 47, 100
8, 27214, Note_off_c, 6, 47, 64
8, 27214, Note_off_c, 6, 59, 64
8, 27216, Note_on_c, 6, 60, 100
8, 27216, Note_on_c, 6, 48, 100
8, 27224, Control_c, 6, 7, 81
8, 27262, Note_off_c, 6, 48, 64
8, 27262, Note_off_c, 6, 60, 64
8, 27264, Note_on_c, 6, 59, 100
8, 27264, Note_on_c, 6, 47, 100
8, 27281, Control_c, 6, 7, 82
8, 27310, Note_off_c, 6, 47, 64
8, 27310, Note_off_c, 6, 59, 64
8, 27312, Note_on_c, 6, 60, 100
8, 27312, Note_on_c, 6, 48, 100
8, 27339, Control_c, 6, 7, 83
8, 27358, Note_off_c, 6, 48, 64
8, 27358, Note_off_c, 6, 60, 64
8, 27360, Note_on_c, 6, 59, 100
8, 27360, Note_on_c, 6, 47, 100
8, 27396, Control_c, 6, 7, 84
8, 27406, Note_off_c, 6, 47, 64
8, 27406, Note_off_c, 6, 59, 64
8, 27408, Note_on_c, 6, 60, 100
8, 27408, Note_on_c, 6, 48, 100
8, 27454, Note_off_c, 6, 48, 64
8, 27454, Note_off_c, 6, 60, 64
8, 27454, Control_c, 6, 7, 85
8, 27456, Note_on_c, 6, 59, 100
8, 27456, Note_on_c, 6, 47, 100
8, 27502, Note_off_c, 6, 47, 64
8, 27502, Note_off_c, 6, 59, 64
8, 27504, Note_on_c, 6, 60, 100
8, 27504, Note_on_c, 6, 48, 100
8, 27512, Control_c, 6, 7, 86
8, 27550, Note_off_c, 6, 48, 64
8, 27550, Note_off_c, 6, 60, 64
8, 27552, Note_on_c, 6, 59, 100
8, 27552, Note_on_c, 6, 47, 100
8, 27553, Note_on_c, 6, 71, 100
8, 27569, Control_c, 6, 7, 87
8, 27598, Note_off_c, 6, 47, 64
8, 27598, Note_off_c, 6, 59, 64
8, 27600, Note_off_c, 6, 71, 64
8, 27600, Note_on_c, 6, 72, 100
8, 27600, Note_on_c, 6, 60, 100
8, 27600, Note_on_c, 6, 48, 100
8, 27627, Control_c, 6, 7, 88
8, 27646, Note_off_c, 6, 48, 64
8, 27646, Note_off_c, 6, 60, 64
8, 27646, Note_off_c, 6, 72, 64
8, 27648, Note_on_c, 6, 71, 100
8, 27648, Note_on_c, 6, 59, 100
8, 27648, Note_on_c, 6, 47, 100
8, 27684, Control_c, 6, 7, 89
8, 27694, Note_off_c, 6, 47, 64
8, 27694, Note_off_c, 6, 59, 64
8, 27694, Note_off_c, 6, 71, 64
8, 27696, Note_on_c, 6, 72, 100
8, 27696, Note_on_c, 6, 60, 100
8, 27696, Note_on_c, 6, 48, 100
8, 27742, Note_off_c, 6, 48, 64
8, 27742, Note_off_c, 6, 60, 64
8, 27742, Note_off_c, 6, 72, 64
8, 27742, Control_c, 6, 7, 90
8, 27744, Note_on_c, 6, 71, 100
8, 27744, Note_on_c, 6, 59, 100
8, 27744, Note_on_c, 6, 47, 100
8, 27790, Note_off_c, 6, 47, 64
8, 27790, Note_off_c, 6, 59, 64
8, 27790, Note_off_c, 6, 71, 64
8, 27792, Note_on_c, 6, 72, 100
8, 27792, Note_on_c, 6, 60, 100
8, 27792, Note_on_c, 6, 48, 100
8, 27800, Control_c, 6, 7, 91
8, 27838, Note_off_c, 6, 48, 64
8, 27838, Note_off_c, 6, 60, 64
8, 27838, Note_off_c, 6, 72, 64
8, 27840, Note_on_c, 6, 71, 100
8, 27840, Note_on_c, 6, 59, 100
8, 27840, Note_on_c, 6, 47, 100
8, 27857, Control_c, 6, 7, 92
8, 27886, Note_off_c, 6, 47, 64
8, 27886, Note_off_c, 6, 59, 64
8, 27886, Note_off_c, 6, 71, 64
8, 27888, Note_on_c, 6, 72, 100
8, 27888, Note_on_c, 6, 60, 100
8, 27888, Note_on_c, 6, 48, 100
8, 27915, Control_c, 6, 7, 93
8, 27934, Note_off_c, 6, 48, 64
8, 27934, Note_off_c, 6, 60, 64
8, 27934, Note_off_c, 6, 72, 64
8, 27936, Note_on_c, 6, 71, 100
8, 27936, Note_on_c, 6, 59, 100
8, 27936, Note_on_c, 6, 47, 100
8, 27972, Control_c, 6, 7, 94
8, 27982, Note_off_c, 6, 47, 64
8, 27982, Note_off_c, 6, 59, 64
8, 27982, Note_off_c, 6, 71, 64
8, 27984, Note_on_c, 6, 72, 100
8, 27984, Note_on_c, 6, 60, 100
8, 27984, Note_on_c, 6, 48, 100
8, 28030, Note_off_c, 6, 48, 64
8, 28030, Note_off_c, 6, 60, 64
8, 28030, Note_off_c, 6, 72, 64
8, 28030, Control_c, 6, 7, 95
8, 28032, Note_on_c, 6, 71, 100
8, 28032, Note_on_c, 6, 59, 100
8, 28032, Note_on_c, 6, 47, 100
8, 28078, Note_off_c, 6, 47, 64
8, 28078, Note_off_c, 6, 59, 64
8, 28078, Note_off_c, 6, 71, 64
8, 28080, Note_on_c, 6, 72, 100
8, 28080, Note_on_c, 6, 60, 100
8, 28080, Note_on_c, 6, 48, 100
8, 28088, Control_c, 6, 7, 96
8, 28126, Note_off_c, 6, 48, 64
8, 28126, Note_off_c, 6, 60, 64
8, 28126, Note_off_c, 6, 72, 64
8, 28128, Note_on_c, 6, 71, 100
8, 28128, Note_on_c, 6, 59, 100
8, 28128, Note_on_c, 6, 47, 100
8, 28145, Control_c, 6, 7, 97
8, 28174, Note_off_c, 6, 47, 64
8, 28174, Note_off_c, 6, 59, 64
8, 28174, Note_off_c, 6, 71, 64
8, 28176, Note_on_c, 6, 72, 100
8, 28176, Note_on_c, 6, 60, 100
8, 28176, Note_on_c, 6, 48, 100
8, 28203, Control_c, 6, 7, 98
8, 28222, Note_off_c, 6, 48, 64
8, 28222, Note_off_c, 6, 60, 64
8, 28222, Note_off_c, 6, 72, 64
8, 28224, Note_on_c, 6, 71, 100
8, 28224, Note_on_c, 6, 59, 100
8, 28224, Note_on_c, 6, 47, 100
8, 28260, Control_c, 6, 7, 99
8, 28270, Note_off_c, 6, 47, 64
8, 28270, Note_off_c, 6, 59, 64
8, 28270, Note_off_c, 6, 71, 64
8, 28272, Note_on_c, 6, 72, 100
8, 28272, Note_on_c, 6, 60, 100
8, 28272, Note_on_c, 6, 48, 100
8, 28318, Note_off_c, 6, 48, 64
8, 28318, Note_off_c, 6, 60, 64
8, 28318, Note_off_c, 6, 72, 64
8, 28318, Control_c, 6, 7, 100
8, 28320, Note_on_c, 6, 47, 100
8, 28320, Note_on_c, 6, 59, 100
8, 28320, Note_on_c, 6, 71, 100
8, 28366, Note_off_c, 6, 71, 64
8, 28366, Note_off_c, 6, 59, 64
8, 28366, Note_off_c, 6, 47, 64
8, 28368, Note_on_c, 6, 48, 100
8, 28368, Note_on_c, 6, 60, 100
8, 28368, Note_on_c, 6, 72, 100
8, 28414, Note_off_c, 6, 72, 64
8, 28414, Note_off_c, 6, 60, 64
8, 28414, Note_off_c, 6, 48, 64
8, 28416, Note_on_c, 6, 47, 100
8, 28416, Note_on_c, 6, 59, 100
8, 28416, Note_on_c, 6, 71, 100
8, 28462, Note_off_c, 6, 71, 64
8, 28462, Note_off_c, 6, 59, 64
8, 28462, Note_off_c, 6, 47, 64
8, 28464, Note_on_c, 6, 48, 100
8, 28464, Note_on_c, 6, 60, 100
8, 28464, Note_on_c, 6, 72, 100
8, 28510, Note_off_c, 6, 72, 64
8, 28510, Note_off_c, 6, 60, 64
8, 28510, Note_off_c, 6, 48, 64
8, 28512, Note_on_c, 6, 47, 100
8, 28512, Note_on_c, 6, 59, 100
8, 28512, Note_on_c, 6, 71, 100
8, 28558, Note_off_c, 6, 71, 64
8, 28558, Note_off_c, 6, 59, 64
8, 28558, Note_off_c, 6, 47, 64
8, 28560, Note_on_c, 6, 48, 100
8, 28560, Note_on_c, 6, 60, 100
8, 28560, Note_on_c, 6, 72, 100
8, 28606, Note_off_c, 6, 72, 64
8, 28606, Note_off_c, 6, 60, 64
8, 28606, Note_off_c, 6, 48, 64
8, 28608, Note_on_c, 6, 47, 100
8, 28608, Note_on_c, 6, 59, 100
8, 28608, Note_on_c, 6, 71, 100
8, 28654, Note_off_c, 6, 71, 64
8, 28654, Note_off_c, 6, 59, 64
8, 28654, Note_off_c, 6, 47, 64
8, 28656, Note_on_c, 6, 48, 100
8, 28656, Note_on_c, 6, 60, 100
8, 28656, Note_on_c, 6, 72, 100
8, 28702, Note_off_c, 6, 72, 64
8, 28702, Note_off_c, 6, 60, 64
8, 28702, Note_off_c, 6, 48, 64
8, 28704, Note_on_c, 6, 71, 100
8, 28704, Note_on_c, 6, 59, 100
8, 28704, Control_c, 6, 7, 60
8, 28704, Note_on_c, 6, 24, 100
8, 28704, Note_on_c, 6, 44, 100
8, 28752, Note_on_c, 6, 52, 100
8, 28798, Note_off_c, 6, 59, 64
8, 28800, Note_on_c, 6, 57, 100
8, 28846, Note_off_c, 6, 24, 64
8, 28848, Note_on_c, 6, 25, 100
8, 28894, Note_off_c, 6, 44, 64
8, 28894, Note_off_c, 6, 57, 64
8, 28896, Note_on_c, 6, 45, 100
8, 28896, Note_on_c, 6, 58, 100
8, 28942, Note_off_c, 6, 52, 64
8, 28944, Note_on_c, 6, 53, 100
8, 28974, Note_off_c, 6, 71, 64
8, 28976, Note_on_c, 6, 72, 100
8, 28990, Note_off_c, 6, 25, 64
8, 28990, Note_off_c, 6, 58, 64
8, 28992, Note_on_c, 6, 26, 100
8, 28992, Note_on_c, 6, 58, 100
8, 29086, Note_off_c, 6, 58, 64
8, 29086, Note_off_c, 6, 45, 64
8, 29088, Note_on_c, 6, 46, 100
8, 29088, Note_on_c, 6, 59, 100
8, 29089, Control_c, 6, 7, 60
8, 29134, Note_off_c, 6, 53, 64
8, 29134, Note_off_c, 6, 26, 64
8, 29136, Note_on_c, 6, 27, 100
8, 29137, Note_on_c, 6, 54, 100
8, 29182, Note_off_c, 6, 59, 64
8, 29185, Note_on_c, 6, 60, 100
8, 29241, Control_c, 6, 7, 61
8, 29278, Note_off_c, 6, 46, 64
8, 29278, Note_off_c, 6, 27, 64
8, 29280, Note_off_c, 6, 60, 64
8, 29281, Note_on_c, 6, 28, 100
8, 29281, Note_on_c, 6, 47, 100
8, 29281, Note_on_c, 6, 60, 100
8, 29328, Note_off_c, 6, 54, 64
8, 29329, Note_on_c, 6, 55, 100
8, 29374, Note_off_c, 6, 72, 64
8, 29376, Note_off_c, 6, 60, 64
8, 29377, Note_on_c, 6, 73, 100
8, 29377, Note_on_c, 6, 61, 100
8, 29395, Control_c, 6, 7, 62
8, 29424, Note_off_c, 6, 28, 64
8, 29425, Note_on_c, 6, 29, 100
8, 29472, Note_off_c, 6, 47, 64
8, 29472, Note_off_c, 6, 61, 64
8, 29473, Note_on_c, 6, 48, 100
8, 29473, Note_on_c, 6, 61, 100
8, 29520, Note_off_c, 6, 55, 64
8, 29521, Note_on_c, 6, 56, 100
8, 29548, Control_c, 6, 7, 63
8, 29568, Note_off_c, 6, 29, 64
8, 29568, Note_off_c, 6, 61, 64
8, 29569, Note_on_c, 6, 30, 100
8, 29569, Note_on_c, 6, 62, 100
8, 29664, Note_off_c, 6, 62, 64
8, 29664, Note_off_c, 6, 73, 64
8, 29664, Note_off_c, 6, 48, 64
8, 29665, Note_on_c, 6, 74, 100
8, 29665, Note_on_c, 6, 49, 100
8, 29665, Note_on_c, 6, 62, 100
8, 29702, Control_c, 6, 7, 64
8, 29712, Note_off_c, 6, 56, 64
8, 29712, Note_off_c, 6, 30, 64
8, 29713, Note_on_c, 6, 57, 100
8, 29713, Note_on_c, 6, 31, 100
8, 29760, Note_off_c, 6, 62, 64
8, 29761, Note_on_c, 6, 63, 100
8, 29856, Note_off_c, 6, 49, 64
8, 29856, Note_off_c, 6, 31, 64
8, 29856, Note_off_c, 6, 63, 64
8, 29856, Control_c, 6, 7, 65
8, 29857, Note_on_c, 6, 32, 100
8, 29857, Note_on_c, 6, 50, 100
8, 29857, Note_on_c, 6, 63, 100
8, 29904, Note_off_c, 6, 57, 64
8, 29905, Note_on_c, 6, 58, 100
8, 29952, Note_off_c, 6, 74, 64
8, 29952, Note_off_c, 6, 63, 64
8, 29953, Note_on_c, 6, 75, 100
8, 29953, Note_on_c, 6, 64, 100
8, 30000, Note_off_c, 6, 32, 64
8, 30001, Note_on_c, 6, 33, 100
8, 30009, Control_c, 6, 7, 66
8, 30048, Note_off_c, 6, 50, 64
8, 30048, Note_off_c, 6, 64, 64
8, 30049, Note_on_c, 6, 51, 100
8, 30049, Note_on_c, 6, 64, 100
8, 30096, Note_off_c, 6, 58, 64
8, 30097, Note_on_c, 6, 59, 100
8, 30144, Note_off_c, 6, 33, 64
8, 30144, Note_off_c, 6, 64, 64
8, 30145, Note_on_c, 6, 34, 100
8, 30145, Note_on_c, 6, 65, 100
8, 30163, Control_c, 6, 7, 67
8, 30240, Note_off_c, 6, 65, 64
8, 30240, Note_off_c, 6, 75, 64
8, 30240, Note_off_c, 6, 51, 64
8, 30241, Note_on_c, 6, 76, 100
8, 30241, Note_on_c, 6, 52, 100
8, 30241, Note_on_c, 6, 65, 100
8, 30288, Note_off_c, 6, 59, 64
8, 30288, Note_off_c, 6, 34, 64
8, 30289, Note_on_c, 6, 60, 100
8, 30289, Note_on_c, 6, 35, 100
8, 30316, Control_c, 6, 7, 68
8, 30336, Note_off_c, 6, 65, 64
8, 30337, Note_on_c, 6, 66, 100
8, 30432, Note_off_c, 6, 52, 64
8, 30432, Note_off_c, 6, 35, 64
8, 30432, Note_off_c, 6, 66, 64
8, 30433, Note_on_c, 6, 36, 100
8, 30433, Note_on_c, 6, 53, 100
8, 30433, Note_on_c, 6, 66, 100
8, 30470, Control_c, 6, 7, 69
8, 30480, Note_off_c, 6, 60, 64
8, 30481, Note_on_c, 6, 61, 100
8, 30528, Note_off_c, 6, 76, 64
8, 30528, Note_off_c, 6, 66, 64
8, 30529, Note_on_c, 6, 77, 100
8, 30529, Note_on_c, 6, 67, 100
8, 30576, Note_off_c, 6, 36, 64
8, 30577, Note_on_c, 6, 37, 100
8, 30624, Note_off_c, 6, 53, 64
8, 30624, Note_off_c, 6, 67, 64
8, 30624, Control_c, 6, 7, 70
8, 30625, Note_on_c, 6, 54, 100
8, 30625, Note_on_c, 6, 67, 100
8, 30672, Note_off_c, 6, 61, 64
8, 30673, Note_on_c, 6, 62, 100
8, 30720, Note_off_c, 6, 37, 64
8, 30720, Note_off_c, 6, 67, 64
8, 30721, Note_on_c, 6, 38, 100
8, 30721, Note_on_c, 6, 68, 100
8, 30777, Control_c, 6, 7, 71
8, 30816, Note_off_c, 6, 68, 64
8, 30816, Note_off_c, 6, 77, 64
8, 30816, Note_off_c, 6, 54, 64
8, 30817, Note_on_c, 6, 78, 100
8, 30817, Note_on_c, 6, 55, 100
8, 30817, Note_on_c, 6, 68, 100
8, 30864, Note_off_c, 6, 62, 64
8, 30864, Note_off_c, 6, 38, 64
8, 30865, Note_on_c, 6, 63, 100
8, 30865, Note_on_c, 6, 39, 100
8, 30912, Note_off_c, 6, 68, 64
8, 30913, Note_on_c, 6, 69, 100
8, 30931, Control_c, 6, 7, 72
8, 31008, Note_off_c, 6, 55, 64
8, 31008, Note_off_c, 6, 39, 64
8, 31008, Note_off_c, 6, 69, 64
8, 31009, Note_on_c, 6, 40, 100
8, 31009, Note_on_c, 6, 56, 100
8, 31009, Note_on_c, 6, 69, 100
8, 31056, Note_off_c, 6, 63, 64
8, 31057, Note_on_c, 6, 64, 100
8, 31084, Control_c, 6, 7, 73
8, 31104, Note_off_c, 6, 78, 64
8, 31104, Note_off_c, 6, 69, 64
8, 31105, Note_on_c, 6, 79, 100
8, 31105, Note_on_c, 6, 70, 100
8, 31152, Note_off_c, 6, 40, 64
8, 31153, Note_on_c, 6, 41, 100
8, 31200, Note_off_c, 6, 56, 64
8, 31200, Note_off_c, 6, 70, 64
8, 31201, Note_on_c, 6, 57, 100
8, 31201, Note_on_c, 6, 70, 100
8, 31238, Control_c, 6, 7, 74
8, 31248, Note_off_c, 6, 64, 64
8, 31249, Note_on_c, 6, 65, 100
8, 31296, Note_off_c, 6, 41, 64
8, 31296, Note_off_c, 6, 70, 64
8, 31297, Note_on_c, 6, 42, 100
8, 31297, Note_on_c, 6, 71, 100
8, 31392, Note_off_c, 6, 71, 64
8, 31392, Note_off_c, 6, 79, 64
8, 31392, Note_off_c, 6, 57, 64
8, 31392, Control_c, 6, 7, 75
8, 31393, Note_on_c, 6, 80, 100
8, 31393, Note_on_c, 6, 58, 100
8, 31393, Note_on_c, 6, 71, 100
8, 31440, Note_off_c, 6, 65, 64
8, 31440, Note_off_c, 6, 42, 64
8, 31441, Note_on_c, 6, 66, 100
8, 31441, Note_on_c, 6, 43, 100
8, 31488, Note_off_c, 6, 71, 64
8, 31489, Note_on_c, 6, 72, 100
8, 31545, Control_c, 6, 7, 76
8, 31584, Note_off_c, 6, 58, 64
8, 31584, Note_off_c, 6, 43, 64
8, 31584, Note_off_c, 6, 72, 64
8, 31585, Note_on_c, 6, 44, 100
8, 31585, Note_on_c, 6, 59, 100
8, 31585, Note_on_c, 6, 72, 100
8, 31632, Note_off_c, 6, 66, 64
8, 31633, Note_on_c, 6, 67, 100
8, 31680, Note_off_c, 6, 80, 64
8, 31680, Note_off_c, 6, 72, 64
8, 31681, Note_on_c, 6, 81, 100
8, 31681, Note_on_c, 6, 73, 100
8, 31699, Control_c, 6, 7, 77
8, 31728, Note_off_c, 6, 44, 64
8, 31729, Note_on_c, 6, 45, 100
8, 31776, Note_off_c, 6, 59, 64
8, 31776, Note_off_c, 6, 73, 64
8, 31777, Note_on_c, 6, 60, 100
8, 31777, Note_on_c, 6, 73, 100
8, 31824, Note_off_c, 6, 67, 64
8, 31825, Note_on_c, 6, 68, 100
8, 31852, Control_c, 6, 7, 78
8, 31872, Note_off_c, 6, 45, 64
8, 31872, Note_off_c, 6, 73, 64
8, 31873, Note_on_c, 6, 46, 100
8, 31873, Note_on_c, 6, 74, 100
8, 31968, Note_off_c, 6, 74, 64
8, 31968, Note_off_c, 6, 81, 64
8, 31968, Note_off_c, 6, 60, 64
8, 31969, Note_on_c, 6, 82, 100
8, 31969, Note_on_c, 6, 61, 100
8, 31969, Note_on_c, 6, 74, 100
8, 32006, Control_c, 6, 7, 79
8, 32016, Note_off_c, 6, 68, 64
8, 32016, Note_off_c, 6, 46, 64
8, 32017, Note_on_c, 6, 69, 100
8, 32017, Note_on_c, 6, 47, 100
8, 32064, Note_off_c, 6, 74, 64
8, 32065, Note_on_c, 6, 75, 100
8, 32160, Note_off_c, 6, 61, 64
8, 32160, Note_off_c, 6, 47, 64
8, 32160, Note_off_c, 6, 75, 64
8, 32160, Control_c, 6, 7, 80
8, 32161, Note_on_c, 6, 48, 100
8, 32161, Note_on_c, 6, 62, 100
8, 32161, Note_on_c, 6, 75, 100
8, 32208, Note_off_c, 6, 69, 64
8, 32209, Note_on_c, 6, 70, 100
8, 32256, Note_off_c, 6, 82, 64
8, 32256, Note_off_c, 6, 75, 64
8, 32257, Note_on_c, 6, 83, 100
8, 32257, Note_on_c, 6, 76, 100
8, 32304, Note_off_c, 6, 48, 64
8, 32305, Note_on_c, 6, 49, 100
8, 32313, Control_c, 6, 7, 81
8, 32352, Note_off_c, 6, 62, 64
8, 32352, Note_off_c, 6, 76, 64
8, 32353, Note_on_c, 6, 63, 100
8, 32353, Note_on_c, 6, 76, 100
8, 32400, Note_off_c, 6, 70, 64
8, 32401, Note_on_c, 6, 71, 100
8, 32448, Note_off_c, 6, 49, 64
8, 32448, Note_off_c, 6, 76, 64
8, 32449, Note_on_c, 6, 50, 100
8, 32449, Note_on_c, 6, 77, 100
8, 32467, Control_c, 6, 7, 82
8, 32544, Note_off_c, 6, 77, 64
8, 32544, Note_off_c, 6, 83, 64
8, 32544, Note_off_c, 6, 63, 64
8, 32545, Note_on_c, 6, 84, 100
8, 32545, Note_on_c, 6, 64, 100
8, 32545, Note_on_c, 6, 77, 100
8, 32592, Note_off_c, 6, 71, 64
8, 32592, Note_off_c, 6, 50, 64
8, 32593, Note_on_c, 6, 72, 100
8, 32593, Note_on_c, 6, 51, 100
8, 32620, Control_c, 6, 7, 83
8, 32640, Note_off_c, 6, 77, 64
8, 32641, Note_on_c, 6, 78, 100
8, 32736, Note_off_c, 6, 64, 64
8, 32736, Note_off_c, 6, 51, 64
8, 32736, Note_off_c, 6, 78, 64
8, 32737, Note_on_c, 6, 52, 100
8, 32737, Note_on_c, 6, 65, 100
8, 32737, Note_on_c, 6, 78, 100
8, 32774, Control_c, 6, 7, 84
8, 32784, Note_off_c, 6, 72, 64
8, 32785, Note_on_c, 6, 73, 100
8, 32832, Note_off_c, 6, 84, 64
8, 32832, Note_off_c, 6, 78, 64
8, 32833, Note_on_c, 6, 85, 100
8, 32833, Note_on_c, 6, 79, 100
8, 32880, Note_off_c, 6, 52, 64
8, 32881, Note_on_c, 6, 53, 100
8, 32928, Note_off_c, 6, 65, 64
8, 32928, Note_off_c, 6, 79, 64
8, 32928, Control_c, 6, 7, 85
8, 32929, Note_on_c, 6, 66, 100
8, 32929, Note_on_c, 6, 79, 100
8, 32976, Note_off_c, 6, 73, 64
8, 32977, Note_on_c, 6, 74, 100
8, 33024, Note_off_c, 6, 53, 64
8, 33024, Note_off_c, 6, 79, 64
8, 33025, Note_on_c, 6, 54, 100
8, 33025, Note_on_c, 6, 80, 100
8, 33081, Control_c, 6, 7, 86
8, 33120, Note_off_c, 6, 80, 64
8, 33120, Note_off_c, 6, 85, 64
8, 33120, Note_off_c, 6, 66, 64
8, 33121, Note_on_c, 6, 86, 100
8, 33121, Note_on_c, 6, 67, 100
8, 33121, Note_on_c, 6, 80, 100
8, 33168, Note_off_c, 6, 74, 64
8, 33168, Note_off_c, 6, 54, 64
8, 33169, Note_on_c, 6, 75, 100
8, 33169, Note_on_c, 6, 55, 100
8, 33216, Note_off_c, 6, 80, 64
8, 33217, Note_on_c, 6, 81, 100
8, 33235, Control_c, 6, 7, 87
8, 33312, Note_off_c, 6, 67, 64
8, 33312, Note_off_c, 6, 55, 64
8, 33312, Note_off_c, 6, 81, 64
8, 33313, Note_on_c, 6, 56, 100
8, 33313, Note_on_c, 6, 68, 100
8, 33313, Note_on_c, 6, 81, 100
8, 33360, Note_off_c, 6, 75, 64
8, 33361, Note_on_c, 6, 76, 100
8, 33388, Control_c, 6, 7, 88
8, 33408, Note_off_c, 6, 86, 64
8, 33408, Note_off_c, 6, 81, 64
8, 33409, Note_on_c, 6, 87, 100
8, 33409, Note_on_c, 6, 82, 100
8, 33456, Note_off_c, 6, 56, 64
8, 33457, Note_on_c, 6, 57, 100
8, 33504, Note_off_c, 6, 68, 64
8, 33504, Note_off_c, 6, 82, 64
8, 33505, Note_on_c, 6, 69, 100
8, 33505, Note_on_c, 6, 82, 100
8, 33542, Control_c, 6, 7, 89
8, 33552, Note_off_c, 6, 76, 64
8, 33553, Note_on_c, 6, 77, 100
8, 33600, Note_off_c, 6, 57, 64
8, 33600, Note_off_c, 6, 82, 64
8, 33601, Note_on_c, 6, 88, 100
8, 33601, Note_on_c, 6, 58, 100
8, 33601, Note_on_c, 6, 83, 100
8, 33672, Note_off_c, 6, 88, 64
8, 33673, Note_on_c, 6, 89, 100
8, 33696, Note_off_c, 6, 87, 64
8, 33696, Note_off_c, 6, 69, 64
8, 33696, Note_off_c, 6, 83, 64
8, 33696, Control_c, 6, 7, 90
8, 33697, Note_on_c, 6, 88, 100
8, 33697, Note_on_c, 6, 70, 100
8, 33697, Note_on_c, 6, 83, 100
8, 33744, Note_off_c, 6, 77, 64
8, 33744, Note_off_c, 6, 58, 64
8, 33744, Note_off_c, 6, 89, 64
8, 33745, Note_on_c, 6, 90, 100
8, 33745, Note_on_c, 6, 49, 100
8, 33745, Note_on_c, 6, 78, 100
8, 33745, Note_on_c, 6, 59, 100
8, 33792, Note_off_c, 6, 83, 64
8, 33793, Note_on_c, 6, 84, 100
8, 33816, Note_off_c, 6, 90, 64
8, 33817, Note_on_c, 6, 91, 100
8, 33849, Control_c, 6, 7, 91
8, 33888, Note_off_c, 6, 70, 64
8, 33888, Note_off_c, 6, 49, 64
8, 33888, Note_off_c, 6, 59, 64
8, 33888, Note_off_c, 6, 84, 64
8, 33888, Note_off_c, 6, 91, 64
8, 33889, Note_on_c, 6, 92, 100
8, 33889, Note_on_c, 6, 50, 100
8, 33889, Note_on_c, 6, 60, 100
8, 33889, Note_on_c, 6, 71, 100
8, 33889, Note_on_c, 6, 84, 100
8, 33936, Note_off_c, 6, 78, 64
8, 33937, Note_on_c, 6, 79, 100
8, 33960, Note_off_c, 6, 92, 64
8, 33961, Note_on_c, 6, 93, 100
8, 33984, Note_off_c, 6, 88, 64
8, 33984, Note_off_c, 6, 84, 64
8, 33985, Note_on_c, 6, 89, 100
8, 33985, Note_on_c, 6, 85, 100
8, 34003, Control_c, 6, 7, 92
8, 34032, Note_off_c, 6, 50, 64
8, 34032, Note_off_c, 6, 60, 64
8, 34032, Note_off_c, 6, 93, 64
8, 34033, Note_on_c, 6, 94, 100
8, 34033, Note_on_c, 6, 51, 100
8, 34033, Note_on_c, 6, 61, 100
8, 34080, Note_off_c, 6, 71, 64
8, 34080, Note_off_c, 6, 85, 64
8, 34081, Note_on_c, 6, 72, 100
8, 34081, Note_on_c, 6, 85, 100
8, 34104, Note_off_c, 6, 94, 64
8, 34105, Note_on_c, 6, 95, 100
8, 34128, Note_off_c, 6, 79, 64
8, 34129, Note_on_c, 6, 80, 100
8, 34156, Control_c, 6, 7, 93
8, 34176, Note_off_c, 6, 51, 64
8, 34176, Note_off_c, 6, 61, 64
8, 34176, Note_off_c, 6, 85, 64
8, 34176, Note_off_c, 6, 95, 64
8, 34177, Note_on_c, 6, 96, 100
8, 34177, Note_on_c, 6, 52, 100
8, 34177, Note_on_c, 6, 62, 100
8, 34177, Note_on_c, 6, 86, 100
8, 34248, Note_off_c, 6, 96, 64
8, 34249, Note_on_c, 6, 97, 100
8, 34272, Note_off_c, 6, 89, 64
8, 34272, Note_off_c, 6, 72, 64
8, 34272, Note_off_c, 6, 86, 64
8, 34273, Note_on_c, 6, 90, 100
8, 34273, Note_on_c, 6, 73, 100
8, 34273, Note_on_c, 6, 86, 100
8, 34310, Control_c, 6, 7, 94
8, 34320, Note_off_c, 6, 80, 64
8, 34320, Note_off_c, 6, 52, 64
8, 34320, Note_off_c, 6, 62, 64
8, 34320, Note_off_c, 6, 97, 64
8, 34321, Note_on_c, 6, 98, 100
8, 34321, Note_on_c, 6, 51, 100
8, 34321, Note_on_c, 6, 53, 100
8, 34321, Note_on_c, 6, 81, 100
8, 34321, Note_on_c, 6, 63, 100
8, 34368, Note_off_c, 6, 81, 64
8, 34368, Note_off_c, 6, 73, 64
8, 34368, Note_off_c, 6, 86, 64
8, 34369, Note_on_c, 6, 75, 100
8, 34369, Note_on_c, 6, 87, 100
8, 34392, Note_off_c, 6, 98, 64
8, 34393, Note_on_c, 6, 99, 100
8, 34464, Note_off_c, 6, 90, 64
8, 34464, Note_off_c, 6, 51, 64
8, 34464, Note_off_c, 6, 53, 64
8, 34464, Note_off_c, 6, 63, 64
8, 34464, Note_off_c, 6, 75, 64
8, 34464, Note_off_c, 6, 87, 64
8, 34464, Note_off_c, 6, 99, 64
8, 34464, Note_on_c, 6, 100, 100
8, 34464, Note_on_c, 6, 64, 100
8, 34464, Note_on_c, 6, 76, 100
8, 34464, Note_on_c, 6, 52, 100
8, 34464, Note_on_c, 6, 88, 100
8, 34464, Control_c, 6, 7, 95
8, 34558, Note_off_c, 6, 88, 64
8, 34558, Note_off_c, 6, 52, 64
8, 34558, Note_off_c, 6, 76, 64
8, 34558, Note_off_c, 6, 64, 64
8, 34558, Note_off_c, 6, 100, 64
8, 43104, Note_on_c, 6, 67, 100
8, 43104, Note_on_c, 6, 64, 100
8, 43104, Note_on_c, 6, 60, 100
8, 43870, Note_off_c, 6, 60, 64
8, 43870, Note_off_c, 6, 64, 64
8, 43870, Note_off_c, 6, 67, 64
8, 43872, Note_on_c, 6, 59, 100
8, 43872, Note_on_c, 6, 67, 100
8, 43872, Note_on_c, 6, 62, 100
8, 44638, Note_off_c, 6, 62, 64
8, 44638, Note_off_c, 6, 67, 64
8, 44638, Note_off_c, 6, 59, 64
8, 44640, Note_on_c, 6, 66, 100
8, 44640, Note_on_c, 6, 57, 100
8, 44640, Note_on_c, 6, 62, 100
8, 45406, Note_off_c, 6, 62, 64
8, 45406, Note_off_c, 6, 57, 64
8, 45406, Note_off_c, 6, 66, 64
8, 45408, Note_on_c, 6, 57, 100
8, 45408, Note_on_c, 6, 61, 100
8, 45408, Note_on_c, 6, 64, 100
8, 46174, Note_off_c, 6, 64, 64
8, 46174, Note_off_c, 6, 61, 64
8, 46174, Note_off_c, 6, 57, 64
8, 46176, Note_on_c, 6, 56, 100
8, 46176, Note_on_c, 6, 59, 100
8, 46176, Note_on_c, 6, 64, 100
8, 46942, Note_off_c, 6, 64, 64
8, 46942, Note_off_c, 6, 59, 64
8, 46942, Note_off_c, 6, 56, 64
8, 46944, Note_on_c, 6, 55, 100
8, 46944, Note_on_c, 6, 60, 100
8, 46944, Note_on_c, 6, 64, 100
8, 47710, Note_off_c, 6, 64, 64
8, 47710, Note_off_c, 6, 60, 64
8, 47710, Note_off_c, 6, 55, 64
8, 47712, Note_on_c, 6, 55, 100
8, 47712, Note_on_c, 6, 59, 100
8, 47712, Note_on_c, 6, 62, 100
8, 48478, Note_off_c, 6, 62, 64
8, 48478, Note_off_c, 6, 59, 64
8, 48478, Note_off_c, 6, 55, 64
8, 48480, Note_on_c, 6, 66, 100
8, 48480, Note_on_c, 6, 57, 100
8, 48480, Note_on_c, 6, 62, 100
8, 49246, Note_off_c, 6, 62, 64
8, 49246, Note_off_c, 6, 57, 64
8, 49246, Note_off_c, 6, 66, 64
8, 49248, Note_on_c, 6, 57, 100
8, 49248, Note_on_c, 6, 61, 100
8, 49248, Note_on_c, 6, 64, 100
8, 50014, Note_off_c, 6, 64, 64
8, 50014, Note_off_c, 6, 61, 64
8, 50014, Note_off_c, 6, 57, 64
8, 50016, Note_on_c, 6, 64, 100
8, 50016, Note_on_c, 6, 52, 100
8, 50302, Note_off_c, 6, 52, 64
8, 50302, Note_off_c, 6, 64, 64
8, 50304, Note_on_c, 6, 62, 100
8, 50304, Note_on_c, 6, 50, 100
8, 50398, Note_off_c, 6, 50, 64
8, 50398, Note_off_c, 6, 62, 64
8, 50400, Note_on_c, 6, 60, 100
8, 50400, Note_on_c, 6, 48, 100
8, 50686, Note_off_c, 6, 48, 64
8, 50686, Note_off_c, 6, 60, 64
8, 50688, Note_on_c, 6, 62, 100
8, 50688, Note_on_c, 6, 50, 100
8, 50782, Note_off_c, 6, 50, 64
8, 50782, Note_off_c, 6, 62, 64
8, 50784, Note_on_c, 6, 55, 100
8, 50784, Note_on_c, 6, 43, 100
8, 50846, Note_off_c, 6, 43, 64
8, 50846, Note_off_c, 6, 55, 64
8, 58080, Control_c, 6, 7, 0
8, 58080, Note_on_c, 6, 47, 100
8, 58084, Control_c, 6, 7, 1
8, 58091, Control_c, 6, 7, 2
8, 58097, Control_c, 6, 7, 3
8, 58104, Control_c, 6, 7, 4
8, 58110, Control_c, 6, 7, 5
8, 58116, Control_c, 6, 7, 6
8, 58123, Control_c, 6, 7, 7
8, 58126, Note_off_c, 6, 47, 64
8, 58128, Note_on_c, 6, 48, 100
8, 58129, Control_c, 6, 7, 8
8, 58136, Control_c, 6, 7, 9
8, 58142, Control_c, 6, 7, 10
8, 58148, Control_c, 6, 7, 11
8, 58155, Control_c, 6, 7, 12
8, 58161, Control_c, 6, 7, 13
8, 58168, Control_c, 6, 7, 14
8, 58174, Note_off_c, 6, 48, 64
8, 58174, Control_c, 6, 7, 15
8, 58176, Note_on_c, 6, 47, 100
8, 58180, Control_c, 6, 7, 16
8, 58187, Control_c, 6, 7, 17
8, 58193, Control_c, 6, 7, 18
8, 58200, Control_c, 6, 7, 19
8, 58206, Control_c, 6, 7, 20
8, 58212, Control_c, 6, 7, 21
8, 58219, Control_c, 6, 7, 22
8, 58222, Note_off_c, 6, 47, 64
8, 58224, Note_on_c, 6, 48, 100
8, 58225, Control_c, 6, 7, 23
8, 58232, Control_c, 6, 7, 24
8, 58238, Control_c, 6, 7, 25
8, 58244, Control_c, 6, 7, 26
8, 58251, Control_c, 6, 7, 27
8, 58257, Control_c, 6, 7, 28
8, 58264, Control_c, 6, 7, 29
8, 58270, Note_off_c, 6, 48, 64
8, 58270, Control_c, 6, 7, 30
8, 58272, Note_on_c, 6, 47, 100
8, 58276, Control_c, 6, 7, 31
8, 58283, Control_c, 6, 7, 32
8, 58289, Control_c, 6, 7, 33
8, 58296, Control_c, 6, 7, 34
8, 58302, Control_c, 6, 7, 35
8, 58308, Control_c, 6, 7, 36
8, 58315, Control_c, 6, 7, 37
8, 58318, Note_off_c, 6, 47, 64
8, 58320, Note_on_c, 6, 48, 100
8, 58321, Control_c, 6, 7, 38
8, 58328, Control_c, 6, 7, 39
8, 58334, Control_c, 6, 7, 40
8, 58340, Control_c, 6, 7, 41
8, 58347, Control_c, 6, 7, 42
8, 58353, Control_c, 6, 7, 43
8, 58360, Control_c, 6, 7, 44
8, 58366, Note_off_c, 6, 48, 64
8, 58366, Control_c, 6, 7, 45
8, 58368, Note_on_c, 6, 47, 100
8, 58372, Control_c, 6, 7, 46
8, 58379, Control_c, 6, 7, 47
8, 58385, Control_c, 6, 7, 48
8, 58392, Control_c, 6, 7, 49
8, 58398, Control_c, 6, 7, 50
8, 58404, Control_c, 6, 7, 51
8, 58411, Control_c, 6, 7, 52
8, 58414, Note_off_c, 6, 47, 64
8, 58416, Note_on_c, 6, 48, 100
8, 58417, Control_c, 6, 7, 53
8, 58424, Control_c, 6, 7, 54
8, 58430, Control_c, 6, 7, 55
8, 58436, Control_c, 6, 7, 56
8, 58443, Control_c, 6, 7, 57
8, 58449, Control_c, 6, 7, 58
8, 58456, Control_c, 6, 7, 59
8, 58462, Note_off_c, 6, 48, 64
8, 58462, Control_c, 6, 7, 60
8, 58464, Control_c, 6, 7, 60
8, 58464, Note_on_c, 6, 59, 100
8, 58464, Note_on_c, 6, 47, 100
8, 58510, Note_off_c, 6, 47, 64
8, 58510, Note_off_c, 6, 59, 64
8, 58512, Note_on_c, 6, 60, 100
8, 58512, Note_on_c, 6, 48, 100
8, 58520, Control_c, 6, 7, 61
8, 58558, Note_off_c, 6, 48, 64
8, 58558, Note_off_c, 6, 60, 64
8, 58560, Note_on_c, 6, 59, 100
8, 58560, Note_on_c, 6, 47, 100
8, 58577, Control_c, 6, 7, 62
8, 58606, Note_off_c, 6, 47, 64
8, 58606, Note_off_c, 6, 59, 64
8, 58608, Note_on_c, 6, 60, 100
8, 58608, Note_on_c, 6, 48, 100
8, 58635, Control_c, 6, 7, 63
8, 58654, Note_off_c, 6, 48, 64
8, 58654, Note_off_c, 6, 60, 64
8, 58656, Note_on_c, 6, 59, 100
8, 58656, Note_on_c, 6, 47, 100
8, 58692, Control_c, 6, 7, 64
8, 58702, Note_off_c, 6, 47, 64
8, 58702, Note_off_c, 6, 59, 64
8, 58704, Note_on_c, 6, 60, 100
8, 58704, Note_on_c, 6, 48, 100
8, 58750, Note_off_c, 6, 48, 64
8, 58750, Note_off_c, 6, 60, 64
8, 58750, Control_c, 6, 7, 65
8, 58752, Note_on_c, 6, 59, 100
8, 58752, Note_on_c, 6, 47, 100
8, 58798, Note_off_c, 6, 47, 64
8, 58798, Note_off_c, 6, 59, 64
8, 58800, Note_on_c, 6, 60, 100
8, 58800, Note_on_c, 6, 48, 100
8, 58808, Control_c, 6, 7, 66
8, 58846, Note_off_c, 6, 48, 64
8, 58846, Note_off_c, 6, 60, 64
8, 58848, Note_on_c, 6, 59, 100
8, 58848, Note_on_c, 6, 47, 100
8, 58865, Control_c, 6, 7, 67
8, 58894, Note_off_c, 6, 47, 64
8, 58894, Note_off_c, 6, 59, 64
8, 58896, Note_on_c, 6, 60, 100
8, 58896, Note_on_c, 6, 48, 100
8, 58923, Control_c, 6, 7, 68
8, 58942, Note_off_c, 6, 48, 64
8, 58942, Note_off_c, 6, 60, 64
8, 58944, Note_on_c, 6, 59, 100
8, 58944, Note_on_c, 6, 47, 100
8, 58980, Control_c, 6, 7, 69
8, 58990, Note_off_c, 6, 47, 64
8, 58990, Note_off_c, 6, 59, 64
8, 58992, Note_on_c, 6, 60, 100
8, 58992, Note_on_c, 6, 48, 100
8, 59038, Note_off_c, 6, 48, 64
8, 59038, Note_off_c, 6, 60, 64
8, 59038, Control_c, 6, 7, 70
8, 59040, Note_on_c, 6, 59, 100
8, 59040, Note_on_c, 6, 47, 100
8, 59086, Note_off_c, 6, 47, 64
8, 59086, Note_off_c, 6, 59, 64
8, 59088, Note_on_c, 6, 60, 100
8, 59088, Note_on_c, 6, 48, 100
8, 59096, Control_c, 6, 7, 71
8, 59134, Note_off_c, 6, 48, 64
8, 59134, Note_off_c, 6, 60, 64
8, 59136, Note_on_c, 6, 59, 100
8, 59136, Note_on_c, 6, 47, 100
8, 59153, Control_c, 6, 7, 72
8, 59182, Note_off_c, 6, 47, 64
8, 59182, Note_off_c, 6, 59, 64
8, 59184, Note_on_c, 6, 60, 100
8, 59184, Note_on_c, 6, 48, 100
8, 59211, Control_c, 6, 7, 73
8, 59230, Note_off_c, 6, 48, 64
8, 59230, Note_off_c, 6, 60, 64
8, 59232, Note_on_c, 6, 59, 100
8, 59232, Note_on_c, 6, 47, 100
8, 59268, Control_c, 6, 7, 74
8, 59278, Note_off_c, 6, 47, 64
8, 59278, Note_off_c, 6, 59, 64
8, 59280, Note_on_c, 6, 60, 100
8, 59280, Note_on_c, 6, 48, 100
8, 59326, Note_off_c, 6, 48, 64
8, 59326, Note_off_c, 6, 60, 64
8, 59326, Control_c, 6, 7, 75
8, 59328, Note_on_c, 6, 59, 100
8, 59328, Note_on_c, 6, 47, 100
8, 59374, Note_off_c, 6, 47, 64
8, 59374, Note_off_c, 6, 59, 64
8, 59376, Note_on_c, 6, 60, 100
8, 59376, Note_on_c, 6, 48, 100
8, 59384, Control_c, 6, 7, 76
8, 59422, Note_off_c, 6, 48, 64
8, 59422, Note_off_c, 6, 60, 64
8, 59424, Note_on_c, 6, 59, 100
8, 59424, Note_on_c, 6, 47, 100
8, 59441, Control_c, 6, 7, 77
8, 59470, Note_off_c, 6, 47, 64
8, 59470, Note_off_c, 6, 59, 64
8, 59472, Note_on_c, 6, 60, 100
8, 59472, Note_on_c, 6, 48, 100
8, 59499, Control_c, 6, 7, 78
8, 59518, Note_off_c, 6, 48, 64
8, 59518, Note_off_c, 6, 60, 64
8, 59520, Note_on_c, 6, 59, 100
8, 59520, Note_on_c, 6, 47, 100
8, 59556, Control_c, 6, 7, 79
8, 59566, Note_off_c, 6, 47, 64
8, 59566, Note_off_c, 6, 59, 64
8, 59568, Note_on_c, 6, 60, 100
8, 59568, Note_on_c, 6, 48, 100
8, 59614, Note_off_c, 6, 48, 64
8, 59614, Note_off_c, 6, 60, 64
8, 59614, Control_c, 6, 7, 80
8, 59616, Note_on_c, 6, 59, 100
8, 59616, Note_on_c, 6, 47, 100
8, 59662, Note_off_c, 6, 47, 64
8, 59662, Note_off_c, 6, 59, 64
8, 59664, Note_on_c, 6, 60, 100
8, 59664, Note_on_c, 6, 48, 100
8, 59672, Control_c, 6, 7, 81
8, 59710, Note_off_c, 6, 48, 64
8, 59710, Note_off_c, 6, 60, 64
8, 59712, Note_on_c, 6, 59, 100
8, 59712, Note_on_c, 6, 47, 100
8, 59729, Control_c, 6, 7, 82
8, 59758, Note_off_c, 6, 47, 64
8, 59758, Note_off_c, 6, 59, 64
8, 59760, Note_on_c, 6, 60, 100
8, 59760, Note_on_c, 6, 48, 100
8, 59787, Control_c, 6, 7, 83
8, 59806, Note_off_c, 6, 48, 64
8, 59806, Note_off_c, 6, 60, 64
8, 59808, Note_on_c, 6, 59, 100
8, 59808, Note_on_c, 6, 47, 100
8, 59844, Control_c, 6, 7, 84
8, 59854, Note_off_c, 6, 47, 64
8, 59854, Note_off_c, 6, 59, 64
8, 59856, Note_on_c, 6, 60, 100
8, 59856, Note_on_c, 6, 48, 100
8, 59902, Note_off_c, 6, 48, 64
8, 59902, Note_off_c, 6, 60, 64
8, 59902, Control_c, 6, 7, 85
8, 59904, Note_on_c, 6, 59, 100
8, 59904, Note_on_c, 6, 47, 100
8, 59950, Note_off_c, 6, 47, 64
8, 59950, Note_off_c, 6, 59, 64
8, 59952, Note_on_c, 6, 60, 100
8, 59952, Note_on_c, 6, 48, 100
8, 59960, Control_c, 6, 7, 86
8, 59998, Note_off_c, 6, 48, 64
8, 59998, Note_off_c, 6, 60, 64
8, 60000, Note_on_c, 6, 59, 100
8, 60000, Note_on_c, 6, 47, 100
8, 60001, Note_on_c, 6, 71, 100
8, 60017, Control_c, 6, 7, 87
8, 60046, Note_off_c, 6, 47, 64
8, 60046, Note_off_c, 6, 59, 64
8, 60048, Note_off_c, 6, 71, 64
8, 60048, Note_on_c, 6, 72, 100
8, 60048, Note_on_c, 6, 60, 100
8, 60048, Note_on_c, 6, 48, 100
8, 60075, Control_c, 6, 7, 88
8, 60094, Note_off_c, 6, 48, 64
8, 60094, Note_off_c, 6, 60, 64
8, 60094, Note_off_c, 6, 72, 64
8, 60096, Note_on_c, 6, 71, 100
8, 60096, Note_on_c, 6, 59, 100
8, 60096, Note_on_c, 6, 47, 100
8, 60132, Control_c, 6, 7, 89
8, 60142, Note_off_c, 6, 47, 64
8, 60142, Note_off_c, 6, 59, 64
8, 60142, Note_off_c, 6, 71, 64
8, 60144, Note_on_c, 6, 72, 100
8, 60144, Note_on_c, 6, 60, 100
8, 60144, Note_on_c, 6, 48, 100
8, 60190, Note_off_c, 6, 48, 64
8, 60190, Note_off_c, 6, 60, 64
8, 60190, Note_off_c, 6, 72, 64
8, 60190, Control_c, 6, 7, 90
8, 60192, Note_on_c, 6, 71, 100
8, 60192, Note_on_c, 6, 59, 100
8, 60192, Note_on_c, 6, 47, 100
8, 60238, Note_off_c, 6, 47, 64
8, 60238, Note_off_c, 6, 59, 64
8, 60238, Note_off_c, 6, 71, 64
8, 60240, Note_on_c, 6, 72, 100
8, 60240, Note_on_c, 6, 60, 100
8, 60240, Note_on_c, 6, 48, 100
8, 60248, Control_c, 6, 7, 91
8, 60286, Note_off_c, 6, 48, 64
8, 60286, Note_off_c, 6, 60, 64
8, 60286, Note_off_c, 6, 72, 64
8, 60288, Note_on_c, 6, 71, 100
8, 60288, Note_on_c, 6, 59, 100
8, 60288, Note_on_c, 6, 47, 100
8, 60305, Control_c, 6, 7, 92
8, 60334, Note_off_c, 6, 47, 64
8, 60334, Note_off_c, 6, 59, 64
8, 60334, Note_off_c, 6, 71, 64
8, 60336, Note_on_c, 6, 72, 100
8, 60336, Note_on_c, 6, 60, 100
8, 60336, Note_on_c, 6, 48, 100
8, 60363, Control_c, 6, 7, 93
8, 60382, Note_off_c, 6, 48, 64
8, 60382, Note_off_c, 6, 60, 64
8, 60382, Note_off_c, 6, 72, 64
8, 60384, Note_on_c, 6, 71, 100
8, 60384, Note_on_c, 6, 59, 100
8, 60384, Note_on_c, 6, 47, 100
8, 60420, Control_c, 6, 7, 94
8, 60430, Note_off_c, 6, 47, 64
8, 60430, Note_off_c, 6, 59, 64
8, 60430, Note_off_c, 6, 71, 64
8, 60432, Note_on_c, 6, 72, 100
8, 60432, Note_on_c, 6, 60, 100
8, 60432, Note_on_c, 6, 48, 100
8, 60478, Note_off_c, 6, 48, 64
8, 60478, Note_off_c, 6, 60, 64
8, 60478, Note_off_c, 6, 72, 64
8, 60478, Control_c, 6, 7, 95
8, 60480, Note_on_c, 6, 71, 100
8, 60480, Note_on_c, 6, 59, 100
8, 60480, Note_on_c, 6, 47, 100
8, 60526, Note_off_c, 6, 47, 64
8, 60526, Note_off_c, 6, 59, 64
8, 60526, Note_off_c, 6, 71, 64
8, 60528, Note_on_c, 6, 72, 100
8, 60528, Note_on_c, 6, 60, 100
8, 60528, Note_on_c, 6, 48, 100
8, 60536, Control_c, 6, 7, 96
8, 60574, Note_off_c, 6, 48, 64
8, 60574, Note_off_c, 6, 60, 64
8, 60574, Note_off_c, 6, 72, 64
8, 60576, Note_on_c, 6, 71, 100
8, 60576, Note_on_c, 6, 59, 100
8, 60576, Note_on_c, 6, 47, 100
8, 60593, Control_c, 6, 7, 97
8, 60622, Note_off_c, 6, 47, 64
8, 60622, Note_off_c, 6, 59, 64
8, 60622, Note_off_c, 6, 71, 64
8, 60624, Note_on_c, 6, 72, 100
8, 60624, Note_on_c, 6, 60, 100
8, 60624, Note_on_c, 6, 48, 100
8, 60651, Control_c, 6, 7, 98
8, 60670, Note_off_c, 6, 48, 64
8, 60670, Note_off_c, 6, 60, 64
8, 60670, Note_off_c, 6, 72, 64
8, 60672, Note_on_c, 6, 71, 100
8, 60672, Note_on_c, 6, 59, 100
8, 60672, Note_on_c, 6, 47, 100
8, 60708, Control_c, 6, 7, 99
8, 60718, Note_off_c, 6, 47, 64
8, 60718, Note_off_c, 6, 59, 64
8, 60718, Note_off_c, 6, 71, 64
8, 60720, Note_on_c, 6, 72, 100
8, 60720, Note_on_c, 6, 60, 100
8, 60720, Note_on_c, 6, 48, 100
8, 60766, Note_off_c, 6, 48, 64
8, 60766, Note_off_c, 6, 60, 64
8, 60766, Note_off_c, 6, 72, 64
8, 60766, Control_c, 6, 7, 100
8, 60768, Note_on_c, 6, 47, 100
8, 60768, Note_on_c, 6, 59, 100
8, 60768, Note_on_c, 6, 71, 100
8, 60814, Note_off_c, 6, 71, 64
8, 60814, Note_off_c, 6, 59, 64
8, 60814, Note_off_c, 6, 47, 64
8, 60816, Note_on_c, 6, 48, 100
8, 60816, Note_on_c, 6, 60, 100
8, 60816, Note_on_c, 6, 72, 100
8, 60862, Note_off_c, 6, 72, 64
8, 60862, Note_off_c, 6, 60, 64
8, 60862, Note_off_c, 6, 48, 64
8, 60864, Note_on_c, 6, 47, 100
8, 60864, Note_on_c, 6, 59, 100
8, 60864, Note_on_c, 6, 71, 100
8, 60910, Note_off_c, 6, 71, 64
8, 60910, Note_off_c, 6, 59, 64
8, 60910, Note_off_c, 6, 47, 64
8, 60912, Note_on_c, 6, 48, 100
8, 60912, Note_on_c, 6, 60, 100
8, 60912, Note_on_c, 6, 72, 100
8, 60958, Note_off_c, 6, 72, 64
8, 60958, Note_off_c, 6, 60, 64
8, 60958, Note_off_c, 6, 48, 64
8, 60960, Note_on_c, 6, 47, 100
8, 60960, Note_on_c, 6, 59, 100
8, 60960, Note_on_c, 6, 71, 100
8, 61006, Note_off_c, 6, 71, 64
8, 61006, Note_off_c, 6, 59, 64
8, 61006, Note_off_c, 6, 47, 64
8, 61008, Note_on_c, 6, 48, 100
8, 61008, Note_on_c, 6, 60, 100
8, 61008, Note_on_c, 6, 72, 100
8, 61054, Note_off_c, 6, 72, 64
8, 61054, Note_off_c, 6, 60, 64
8, 61054, Note_off_c, 6, 48, 64
8, 61056, Note_on_c, 6, 47, 100
8, 61056, Note_on_c, 6, 59, 100
8, 61056, Note_on_c, 6, 71, 100
8, 61102, Note_off_c, 6, 71, 64
8, 61102, Note_off_c, 6, 59, 64
8, 61102, Note_off_c, 6, 47, 64
8, 61104, Note_on_c, 6, 48, 100
8, 61104, Note_on_c, 6, 60, 100
8, 61104, Note_on_c, 6, 72, 100
8, 61150, Note_off_c, 6, 72, 64
8, 61150, Note_off_c, 6, 60, 64
8, 61150, Note_off_c, 6, 48, 64
8, 61152, Note_on_c, 6, 47, 100
8, 61152, Note_on_c, 6, 59, 100
8, 61152, Note_on_c, 6, 71, 100
8, 61198, Note_off_c, 6, 71, 64
8, 61198, Note_off_c, 6, 59, 64
8, 61198, Note_off_c, 6, 47, 64
8, 61200, Note_on_c, 6, 48, 100
8, 61200, Note_on_c, 6, 60, 100
8, 61200, Note_on_c, 6, 72, 100
8, 61246, Note_off_c, 6, 72, 64
8, 61246, Note_off_c, 6, 60, 64
8, 61246, Note_off_c, 6, 48, 64
8, 61248, Note_on_c, 6, 47, 100
8, 61248, Note_on_c, 6, 59, 100
8, 61248, Note_on_c, 6, 71, 100
8, 61294, Note_off_c, 6, 71, 64
8, 61294, Note_off_c, 6, 59, 64
8, 61294, Note_off_c, 6, 47, 64
8, 61296, Note_on_c, 6, 48, 100
8, 61296, Note_on_c, 6, 60, 100
8, 61296, Note_on_c, 6, 72, 100
8, 61342, Note_off_c, 6, 72, 64
8, 61342, Note_off_c, 6, 60, 64
8, 61342, Note_off_c, 6, 48, 64
8, 61344, Note_on_c, 6, 47, 100
8, 61344, Note_on_c, 6, 59, 100
8, 61344, Note_on_c, 6, 71, 100
8, 61390, Note_off_c, 6, 71, 64
8, 61390, Note_off_c, 6, 59, 64
8, 61390, Note_off_c, 6, 47, 64
8, 61392, Note_on_c, 6, 48, 100
8, 61392, Note_on_c, 6, 60, 100
8, 61392, Note_on_c, 6, 72, 100
8, 61438, Note_off_c, 6, 72, 64
8, 61438, Note_off_c, 6, 60, 64
8, 61438, Note_off_c, 6, 48, 64
8, 61440, Note_on_c, 6, 47, 100
8, 61440, Note_on_c, 6, 59, 100
8, 61440, Note_on_c, 6, 71, 100
8, 61486, Note_off_c, 6, 71, 64
8, 61486, Note_off_c, 6, 59, 64
8, 61486, Note_off_c, 6, 47, 64
8, 61488, Note_on_c, 6, 48, 100
8, 61488, Note_on_c, 6, 60, 100
8, 61488, Note_on_c, 6, 72, 100
8, 61534, Note_off_c, 6, 72, 64
8, 61534, Note_off_c, 6, 60, 64
8, 61534, Note_off_c, 6, 48, 64
8, 61536, Control_c, 6, 7, 60
8, 61536, Note_on_c, 6, 72, 100
8, 61536, Note_on_c, 6, 46, 100
8, 61536, Note_on_c, 6, 27, 100
8, 61536, Note_on_c, 6, 59, 100
8, 61584, Note_on_c, 6, 54, 100
8, 61630, Note_off_c, 6, 59, 64
8, 61632, Note_on_c, 6, 60, 100
8, 61688, Control_c, 6, 7, 61
8, 61726, Note_off_c, 6, 27, 64
8, 61726, Note_off_c, 6, 46, 64
8, 61726, Note_off_c, 6, 60, 64
8, 61728, Note_on_c, 6, 28, 100
8, 61728, Note_on_c, 6, 47, 100
8, 61728, Note_on_c, 6, 60, 100
8, 61774, Note_off_c, 6, 54, 64
8, 61776, Note_on_c, 6, 55, 100
8, 61822, Note_off_c, 6, 72, 64
8, 61822, Note_off_c, 6, 60, 64
8, 61824, Note_on_c, 6, 73, 100
8, 61824, Note_on_c, 6, 61, 100
8, 61841, Control_c, 6, 7, 62
8, 61870, Note_off_c, 6, 28, 64
8, 61872, Note_on_c, 6, 29, 100
8, 61918, Note_off_c, 6, 47, 64
8, 61918, Note_off_c, 6, 61, 64
8, 61920, Note_on_c, 6, 48, 100
8, 61920, Note_on_c, 6, 61, 100
8, 61966, Note_off_c, 6, 55, 64
8, 61968, Note_on_c, 6, 56, 100
8, 61995, Control_c, 6, 7, 63
8, 62014, Note_off_c, 6, 29, 64
8, 62014, Note_off_c, 6, 61, 64
8, 62016, Note_on_c, 6, 30, 100
8, 62016, Note_on_c, 6, 62, 100
8, 62110, Note_off_c, 6, 62, 64
8, 62110, Note_off_c, 6, 73, 64
8, 62110, Note_off_c, 6, 48, 64
8, 62112, Note_on_c, 6, 74, 100
8, 62112, Note_on_c, 6, 49, 100
8, 62112, Note_on_c, 6, 62, 100
8, 62148, Control_c, 6, 7, 64
8, 62158, Note_off_c, 6, 56, 64
8, 62158, Note_off_c, 6, 30, 64
8, 62160, Note_on_c, 6, 57, 100
8, 62160, Note_on_c, 6, 31, 100
8, 62206, Note_off_c, 6, 62, 64
8, 62208, Note_on_c, 6, 63, 100
8, 62302, Note_off_c, 6, 49, 64
8, 62302, Note_off_c, 6, 31, 64
8, 62302, Note_off_c, 6, 63, 64
8, 62302, Control_c, 6, 7, 65
8, 62304, Note_on_c, 6, 32, 100
8, 62304, Note_on_c, 6, 50, 100
8, 62304, Note_on_c, 6, 63, 100
8, 62350, Note_off_c, 6, 57, 64
8, 62352, Note_on_c, 6, 58, 100
8, 62398, Note_off_c, 6, 74, 64
8, 62398, Note_off_c, 6, 63, 64
8, 62400, Note_on_c, 6, 75, 100
8, 62400, Note_on_c, 6, 64, 100
8, 62446, Note_off_c, 6, 32, 64
8, 62448, Note_on_c, 6, 33, 100
8, 62456, Control_c, 6, 7, 66
8, 62494, Note_off_c, 6, 50, 64
8, 62494, Note_off_c, 6, 64, 64
8, 62496, Note_on_c, 6, 51, 100
8, 62496, Note_on_c, 6, 64, 100
8, 62542, Note_off_c, 6, 58, 64
8, 62544, Note_on_c, 6, 59, 100
8, 62590, Note_off_c, 6, 33, 64
8, 62590, Note_off_c, 6, 64, 64
8, 62592, Note_on_c, 6, 34, 100
8, 62592, Note_on_c, 6, 65, 100
8, 62609, Control_c, 6, 7, 67
8, 62686, Note_off_c, 6, 65, 64
8, 62686, Note_off_c, 6, 75, 64
8, 62686, Note_off_c, 6, 51, 64
8, 62688, Note_on_c, 6, 76, 100
8, 62688, Note_on_c, 6, 52, 100
8, 62688, Note_on_c, 6, 65, 100
8, 62734, Note_off_c, 6, 59, 64
8, 62734, Note_off_c, 6, 34, 64
8, 62736, Note_on_c, 6, 60, 100
8, 62736, Note_on_c, 6, 35, 100
8, 62763, Control_c, 6, 7, 68
8, 62782, Note_off_c, 6, 65, 64
8, 62784, Note_on_c, 6, 66, 100
8, 62878, Note_off_c, 6, 52, 64
8, 62878, Note_off_c, 6, 35, 64
8, 62878, Note_off_c, 6, 66, 64
8, 62880, Note_on_c, 6, 36, 100
8, 62880, Note_on_c, 6, 53, 100
8, 62880, Note_on_c, 6, 66, 100
8, 62916, Control_c, 6, 7, 69
8, 62926, Note_off_c, 6, 60, 64
8, 62928, Note_on_c, 6, 61, 100
8, 62974, Note_off_c, 6, 76, 64
8, 62974, Note_off_c, 6, 66, 64
8, 62976, Note_on_c, 6, 77, 100
8, 62976, Note_on_c, 6, 67, 100
8, 63022, Note_off_c, 6, 36, 64
8, 63024, Note_on_c, 6, 37, 100
8, 63070, Note_off_c, 6, 53, 64
8, 63070, Note_off_c, 6, 67, 64
8, 63070, Control_c, 6, 7, 70
8, 63072, Note_on_c, 6, 54, 100
8, 63072, Note_on_c, 6, 67, 100
8, 63118, Note_off_c, 6, 61, 64
8, 63120, Note_on_c, 6, 62, 100
8, 63166, Note_off_c, 6, 37, 64
8, 63166, Note_off_c, 6, 67, 64
8, 63168, Note_on_c, 6, 38, 100
8, 63168, Note_on_c, 6, 68, 100
8, 63224, Control_c, 6, 7, 71
8, 63262, Note_off_c, 6, 68, 64
8, 63262, Note_off_c, 6, 77, 64
8, 63262, Note_off_c, 6, 54, 64
8, 63264, Note_on_c, 6, 78, 100
8, 63264, Note_on_c, 6, 55, 100
8, 63264, Note_on_c, 6, 68, 100
8, 63310, Note_off_c, 6, 62, 64
8, 63310, Note_off_c, 6, 38, 64
8, 63312, Note_on_c, 6, 63, 100
8, 63312, Note_on_c, 6, 39, 100
8, 63358, Note_off_c, 6, 68, 64
8, 63360, Note_on_c, 6, 69, 100
8, 63377, Control_c, 6, 7, 72
8, 63454, Note_off_c, 6, 55, 64
8, 63454, Note_off_c, 6, 39, 64
8, 63454, Note_off_c, 6, 69, 64
8, 63456, Note_on_c, 6, 40, 100
8, 63456, Note_on_c, 6, 56, 100
8, 63456, Note_on_c, 6, 69, 100
8, 63502, Note_off_c, 6, 63, 64
8, 63504, Note_on_c, 6, 64, 100
8, 63531, Control_c, 6, 7, 73
8, 63550, Note_off_c, 6, 78, 64
8, 63550, Note_off_c, 6, 69, 64
8, 63552, Note_on_c, 6, 79, 100
8, 63552, Note_on_c, 6, 70, 100
8, 63598, Note_off_c, 6, 40, 64
8, 63600, Note_on_c, 6, 41, 100
8, 63646, Note_off_c, 6, 56, 64
8, 63646, Note_off_c, 6, 70, 64
8, 63648, Note_on_c, 6, 57, 100
8, 63648, Note_on_c, 6, 70, 100
8, 63684, Control_c, 6, 7, 74
8, 63694, Note_off_c, 6, 64, 64
8, 63696, Note_on_c, 6, 65, 100
8, 63742, Note_off_c, 6, 41, 64
8, 63742, Note_off_c, 6, 70, 64
8, 63744, Note_on_c, 6, 42, 100
8, 63744, Note_on_c, 6, 71, 100
8, 63838, Note_off_c, 6, 71, 64
8, 63838, Note_off_c, 6, 79, 64
8, 63838, Note_off_c, 6, 57, 64
8, 63838, Control_c, 6, 7, 75
8, 63840, Note_on_c, 6, 80, 100
8, 63840, Note_on_c, 6, 58, 100
8, 63840, Note_on_c, 6, 71, 100
8, 63886, Note_off_c, 6, 65, 64
8, 63886, Note_off_c, 6, 42, 64
8, 63888, Note_on_c, 6, 66, 100
8, 63888, Note_on_c, 6, 43, 100
8, 63934, Note_off_c, 6, 71, 64
8, 63936, Note_on_c, 6, 72, 100
8, 63992, Control_c, 6, 7, 76
8, 64030, Note_off_c, 6, 58, 64
8, 64030, Note_off_c, 6, 43, 64
8, 64030, Note_off_c, 6, 72, 64
8, 64032, Note_on_c, 6, 44, 100
8, 64032, Note_on_c, 6, 59, 100
8, 64032, Note_on_c, 6, 72, 100
8, 64078, Note_off_c, 6, 66, 64
8, 64080, Note_on_c, 6, 67, 100
8, 64126, Note_off_c, 6, 80, 64
8, 64126, Note_off_c, 6, 72, 64
8, 64128, Note_on_c, 6, 81, 100
8, 64128, Note_on_c, 6, 73, 100
8, 64145, Control_c, 6, 7, 77
8, 64174, Note_off_c, 6, 44, 64
8, 64176, Note_on_c, 6, 45, 100
8, 64222, Note_off_c, 6, 59, 64
8, 64222, Note_off_c, 6, 73, 64
8, 64224, Note_on_c, 6, 60, 100
8, 64224, Note_on_c, 6, 73, 100
8, 64270, Note_off_c, 6, 67, 64
8, 64272, Note_on_c, 6, 68, 100
8, 64299, Control_c, 6, 7, 78
8, 64318, Note_off_c, 6, 45, 64
8, 64318, Note_off_c, 6, 73, 64
8, 64320, Note_on_c, 6, 46, 100
8, 64320, Note_on_c, 6, 74, 100
8, 64414, Note_off_c, 6, 74, 64
8, 64414, Note_off_c, 6, 81, 64
8, 64414, Note_off_c, 6, 60, 64
8, 64416, Note_on_c, 6, 82, 100
8, 64416, Note_on_c, 6, 61, 100
8, 64416, Note_on_c, 6, 74, 100
8, 64452, Control_c, 6, 7, 79
8, 64462, Note_off_c, 6, 68, 64
8, 64462, Note_off_c, 6, 46, 64
8, 64464, Note_on_c, 6, 69, 100
8, 64464, Note_on_c, 6, 47, 100
8, 64510, Note_off_c, 6, 74, 64
8, 64512, Note_on_c, 6, 75, 100
8, 64606, Note_off_c, 6, 61, 64
8, 64606, Note_off_c, 6, 47, 64
8, 64606, Note_off_c, 6, 75, 64
8, 64606, Control_c, 6, 7, 80
8, 64608, Note_on_c, 6, 48, 100
8, 64608, Note_on_c, 6, 62, 100
8, 64608, Note_on_c, 6, 75, 100
8, 64654, Note_off_c, 6, 69, 64
8, 64656, Note_on_c, 6, 70, 100
8, 64702, Note_off_c, 6, 82, 64
8, 64702, Note_off_c, 6, 75, 64
8, 64704, Note_on_c, 6, 83, 100
8, 64704, Note_on_c, 6, 76, 100
8, 64750, Note_off_c, 6, 48, 64
8, 64752, Note_on_c, 6, 49, 100
8, 64760, Control_c, 6, 7, 81
8, 64798, Note_off_c, 6, 62, 64
8, 64798, Note_off_c, 6, 76, 64
8, 64800, Note_on_c, 6, 63, 100
8, 64800, Note_on_c, 6, 76, 100
8, 64846, Note_off_c, 6, 70, 64
8, 64848, Note_on_c, 6, 71, 100
8, 64894, Note_off_c, 6, 49, 64
8, 64894, Note_off_c, 6, 76, 64
8, 64896, Note_on_c, 6, 50, 100
8, 64896, Note_on_c, 6, 77, 100
8, 64913, Control_c, 6, 7, 82
8, 64990, Note_off_c, 6, 77, 64
8, 64990, Note_off_c, 6, 83, 64
8, 64990, Note_off_c, 6, 63, 64
8, 64992, Note_on_c, 6, 84, 100
8, 64992, Note_on_c, 6, 64, 100
8, 64992, Note_on_c, 6, 77, 100
8, 65038, Note_off_c, 6, 71, 64
8, 65038, Note_off_c, 6, 50, 64
8, 65040, Note_on_c, 6, 72, 100
8, 65040, Note_on_c, 6, 51, 100
8, 65067, Control_c, 6, 7, 83
8, 65086, Note_off_c, 6, 77, 64
8, 65088, Note_on_c, 6, 78, 100
8, 65182, Note_off_c, 6, 64, 64
8, 65182, Note_off_c, 6, 51, 64
8, 65182, Note_off_c, 6, 78, 64
8, 65184, Note_on_c, 6, 52, 100
8, 65184, Note_on_c, 6, 65, 100
8, 65184, Note_on_c, 6, 78, 100
8, 65220, Control_c, 6, 7, 84
8, 65230, Note_off_c, 6, 72, 64
8, 65232, Note_on_c, 6, 73, 100
8, 65278, Note_off_c, 6, 84, 64
8, 65278, Note_off_c, 6, 78, 64
8, 65280, Note_on_c, 6, 85, 100
8, 65280, Note_on_c, 6, 79, 100
8, 65326, Note_off_c, 6, 52, 64
8, 65328, Note_on_c, 6, 53, 100
8, 65374, Note_off_c, 6, 65, 64
8, 65374, Note_off_c, 6, 79, 64
8, 65374, Control_c, 6, 7, 85
8, 65376, Note_on_c, 6, 66, 100
8, 65376, Note_on_c, 6, 79, 100
8, 65422, Note_off_c, 6, 73, 64
8, 65424, Note_on_c, 6, 74, 100
8, 65470, Note_off_c, 6, 53, 64
8, 65470, Note_off_c, 6, 79, 64
8, 65472, Note_on_c, 6, 54, 100
8, 65472, Note_on_c, 6, 80, 100
8, 65528, Control_c, 6, 7, 86
8, 65566, Note_off_c, 6, 80, 64
8, 65566, Note_off_c, 6, 85, 64
8, 65566, Note_off_c, 6, 66, 64
8, 65568, Note_on_c, 6, 86, 100
8, 65568, Note_on_c, 6, 67, 100
8, 65568, Note_on_c, 6, 80, 100
8, 65614, Note_off_c, 6, 74, 64
8, 65614, Note_off_c, 6, 54, 64
8, 65616, Note_on_c, 6, 75, 100
8, 65616, Note_on_c, 6, 55, 100
8, 65662, Note_off_c, 6, 80, 64
8, 65664, Note_on_c, 6, 81, 100
8, 65681, Control_c, 6, 7, 87
8, 65758, Note_off_c, 6, 67, 64
8, 65758, Note_off_c, 6, 55, 64
8, 65758, Note_off_c, 6, 81, 64
8, 65760, Note_on_c, 6, 56, 100
8, 65760, Note_on_c, 6, 68, 100
8, 65760, Note_on_c, 6, 81, 100
8, 65806, Note_off_c, 6, 75, 64
8, 65808, Note_on_c, 6, 76, 100
8, 65835, Control_c, 6, 7, 88
8, 65854, Note_off_c, 6, 86, 64
8, 65854, Note_off_c, 6, 81, 64
8, 65856, Note_on_c, 6, 87, 100
8, 65856, Note_on_c, 6, 82, 100
8, 65902, Note_off_c, 6, 56, 64
8, 65904, Note_on_c, 6, 57, 100
8, 65950, Note_off_c, 6, 68, 64
8, 65950, Note_off_c, 6, 82, 64
8, 65952, Note_on_c, 6, 69, 100
8, 65952, Note_on_c, 6, 82, 100
8, 65988, Control_c, 6, 7, 89
8, 65998, Note_off_c, 6, 76, 64
8, 66000, Note_on_c, 6, 77, 100
8, 66046, Note_off_c, 6, 57, 64
8, 66046, Note_off_c, 6, 82, 64
8, 66048, Note_on_c, 6, 88, 100
8, 66048, Note_on_c, 6, 58, 100
8, 66048, Note_on_c, 6, 83, 100
8, 66118, Note_off_c, 6, 88, 64
8, 66120, Note_on_c, 6, 89, 100
8, 66142, Note_off_c, 6, 87, 64
8, 66142, Note_off_c, 6, 69, 64
8, 66142, Note_off_c, 6, 83, 64
8, 66142, Control_c, 6, 7, 90
8, 66144, Note_on_c, 6, 88, 100
8, 66144, Note_on_c, 6, 70, 100
8, 66144, Note_on_c, 6, 83, 100
8, 66190, Note_off_c, 6, 77, 64
8, 66190, Note_off_c, 6, 58, 64
8, 66190, Note_off_c, 6, 89, 64
8, 66192, Note_on_c, 6, 90, 100
8, 66192, Note_on_c, 6, 49, 100
8, 66192, Note_on_c, 6, 78, 100
8, 66192, Note_on_c, 6, 59, 100
8, 66238, Note_off_c, 6, 83, 64
8, 66240, Note_on_c, 6, 84, 100
8, 66262, Note_off_c, 6, 90, 64
8, 66264, Note_on_c, 6, 91, 100
8, 66296, Control_c, 6, 7, 91
8, 66334, Note_off_c, 6, 70, 64
8, 66334, Note_off_c, 6, 49, 64
8, 66334, Note_off_c, 6, 59, 64
8, 66334, Note_off_c, 6, 84, 64
8, 66334, Note_off_c, 6, 91, 64
8, 66336, Note_on_c, 6, 92, 100
8, 66336, Note_on_c, 6, 50, 100
8, 66336, Note_on_c, 6, 60, 100
8, 66336, Note_on_c, 6, 71, 100
8, 66336, Note_on_c, 6, 84, 100
8, 66382, Note_off_c, 6, 78, 64
8, 66384, Note_on_c, 6, 79, 100
8, 66406, Note_off_c, 6, 92, 64
8, 66408, Note_on_c, 6, 93, 100
8, 66430, Note_off_c, 6, 88, 64
8, 66430, Note_off_c, 6, 84, 64
8, 66432, Note_on_c, 6, 89, 100
8, 66432, Note_on_c, 6, 85, 100
8, 66449, Control_c, 6, 7, 92
8, 66478, Note_off_c, 6, 50, 64
8, 66478, Note_off_c, 6, 60, 64
8, 66478, Note_off_c, 6, 93, 64
8, 66480, Note_on_c, 6, 94, 100
8, 66480, Note_on_c, 6, 51, 100
8, 66480, Note_on_c, 6, 61, 100
8, 66526, Note_off_c, 6, 71, 64
8, 66526, Note_off_c, 6, 85, 64
8, 66528, Note_on_c, 6, 72, 100
8, 66528, Note_on_c, 6, 85, 100
8, 66550, Note_off_c, 6, 94, 64
8, 66552, Note_on_c, 6, 95, 100
8, 66574, Note_off_c, 6, 79, 64
8, 66576, Note_on_c, 6, 80, 100
8, 66603, Control_c, 6, 7, 93
8, 66622, Note_off_c, 6, 51, 64
8, 66622, Note_off_c, 6, 61, 64
8, 66622, Note_off_c, 6, 85, 64
8, 66622, Note_off_c, 6, 95, 64
8, 66624, Note_on_c, 6, 96, 100
8, 66624, Note_on_c, 6, 52, 100
8, 66624, Note_on_c, 6, 62, 100
8, 66624, Note_on_c, 6, 86, 100
8, 66694, Note_off_c, 6, 96, 64
8, 66696, Note_on_c, 6, 97, 100
8, 66718, Note_off_c, 6, 89, 64
8, 66718, Note_off_c, 6, 72, 64
8, 66718, Note_off_c, 6, 86, 64
8, 66720, Note_on_c, 6, 90, 100
8, 66720, Note_on_c, 6, 73, 100
8, 66720, Note_on_c, 6, 86, 100
8, 66756, Control_c, 6, 7, 94
8, 66766, Note_off_c, 6, 80, 64
8, 66766, Note_off_c, 6, 52, 64
8, 66766, Note_off_c, 6, 62, 64
8, 66766, Note_off_c, 6, 97, 64
8, 66768, Note_on_c, 6, 98, 100
8, 66768, Note_on_c, 6, 51, 100
8, 66768, Note_on_c, 6, 53, 100
8, 66768, Note_on_c, 6, 81, 100
8, 66768, Note_on_c, 6, 63, 100
8, 66814, Note_off_c, 6, 81, 64
8, 66814, Note_off_c, 6, 73, 64
8, 66814, Note_off_c, 6, 86, 64
8, 66816, Note_on_c, 6, 75, 100
8, 66816, Note_on_c, 6, 87, 100
8, 66838, Note_off_c, 6, 98, 64
8, 66840, Note_on_c, 6, 99, 100
8, 66910, Note_off_c, 6, 90, 64
8, 66910, Note_off_c, 6, 51, 64
8, 66910, Note_off_c, 6, 53, 64
8, 66910, Note_off_c, 6, 63, 64
8, 66910, Note_off_c, 6, 75, 64
8, 66910, Note_off_c, 6, 87, 64
8, 66910, Note_off_c, 6, 99, 64
8, 66910, Control_c, 6, 7, 95
8, 66912, Note_on_c, 6, 52, 100
8, 66912, Note_on_c, 6, 100, 100
8, 66912, Note_on_c, 6, 64, 100
8, 66912, Note_on_c, 6, 76, 100
8, 66912, Note_on_c, 6, 88, 100
8, 67022, Note_off_c, 6, 88, 64
8, 67022, Note_off_c, 6, 76, 64
8, 67022, Note_off_c, 6, 64, 64
8, 67022, Note_off_c, 6, 100, 64
8, 67022, Note_off_c, 6, 52, 64
8, 67064, Control_c, 6, 7, 96
8, 67217, Control_c, 6, 7, 97
8, 67371, Control_c, 6, 7, 98
8, 67488, Control_c, 6, 7, 127
8, 67488, Note_on_c, 6, 28, 125
8, 67488, Note_on_c, 6, 40, 125
8, 67488, Note_on_c, 6, 44, 125
8, 67488, Note_on_c, 6, 47, 125
8, 67488, Note_on_c, 6, 52, 125
8, 67497, Control_c, 6, 7, 126
8, 67508, Control_c, 6, 7, 125
8, 67518, Control_c, 6, 7, 124
8, 67529, Control_c, 6, 7, 123
8, 67540, Control_c, 6, 7, 122
8, 67550, Control_c, 6, 7, 121
8, 67561, Control_c, 6, 7, 120
8, 67572, Control_c, 6, 7, 119
8, 67582, Control_c, 6, 7, 118
8, 67593, Control_c, 6, 7, 117
8, 67603, Control_c, 6, 7, 116
8, 67614, Control_c, 6, 7, 115
8, 67625, Control_c, 6, 7, 114
8, 67635, Control_c, 6, 7, 113
8, 67646, Control_c, 6, 7, 112
8, 67657, Control_c, 6, 7, 111
8, 67667, Control_c, 6, 7, 110
8, 67678, Control_c, 6, 7, 109
8, 67688, Control_c, 6, 7, 108
8, 67699, Control_c, 6, 7, 107
8, 67710, Control_c, 6, 7, 106
8, 67720, Control_c, 6, 7, 105
8, 67731, Control_c, 6, 7, 104
8, 67742, Control_c, 6, 7, 103
8, 67752, Control_c, 6, 7, 102
8, 67763, Control_c, 6, 7, 101
8, 67774, Control_c, 6, 7, 100
8, 67776, Control_c, 6, 7, 100
8, 67812, Control_c, 6, 7, 99
8, 67851, Control_c, 6, 7, 98
8, 67889, Control_c, 6, 7, 97
8, 67928, Control_c, 6, 7, 96
8, 67966, Control_c, 6, 7, 95
8, 68004, Control_c, 6, 7, 94
8, 68043, Control_c, 6, 7, 93
8, 68081, Control_c, 6, 7, 92
8, 68120, Control_c, 6, 7, 91
8, 68158, Control_c, 6, 7, 90
8, 68196, Control_c, 6, 7, 89
8, 68235, Control_c, 6, 7, 88
8, 68273, Control_c, 6, 7, 87
8, 68312, Control_c, 6, 7, 86
8, 68350, Control_c, 6, 7, 85
8, 68388, Control_c, 6, 7, 84
8, 68427, Control_c, 6, 7, 83
8, 68465, Control_c, 6, 7, 82
8, 68504, Control_c, 6, 7, 81
8, 68542, Control_c, 6, 7, 80
8, 68580, Control_c, 6, 7, 79
8, 68619, Control_c, 6, 7, 78
8, 68657, Control_c, 6, 7, 77
8, 68696, Control_c, 6, 7, 76
8, 68734, Control_c, 6, 7, 75
8, 68772, Control_c, 6, 7, 74
8, 68811, Control_c, 6, 7, 73
8, 68849, Control_c, 6, 7, 72
8, 68888, Control_c, 6, 7, 71
8, 68926, Control_c, 6, 7, 70
8, 68964, Control_c, 6, 7, 69
8, 69003, Control_c, 6, 7, 68
8, 69041, Control_c, 6, 7, 67
8, 69080, Control_c, 6, 7, 66
8, 69118, Control_c, 6, 7, 65
8, 69156, Control_c, 6, 7, 64
8, 69195, Control_c, 6, 7, 63
8, 69233, Control_c, 6, 7, 62
8, 69272, Control_c, 6, 7, 61
8, 69310, Control_c, 6, 7, 60
8, 69348, Control_c, 6, 7, 59
8, 69387, Control_c, 6, 7, 58
8, 69425, Control_c, 6, 7, 57
8, 69464, Control_c, 6, 7, 56
8, 69502, Control_c, 6, 7, 55
8, 69540, Control_c, 6, 7, 54
8, 69579, Control_c, 6, 7, 53
8, 69617, Control_c, 6, 7, 52
8, 69656, Control_c, 6, 7, 51
8, 69694, Control_c, 6, 7, 50
8, 69732, Control_c, 6, 7, 49
8, 69771, Control_c, 6, 7, 48
8, 69809, Control_c, 6, 7, 47
8, 69848, Control_c, 6, 7, 46
8, 69886, Control_c, 6, 7, 45
8, 69924, Control_c, 6, 7, 44
8, 69963, Control_c, 6, 7, 43
8, 70001, Control_c, 6, 7, 42
8, 70040, Control_c, 6, 7, 41
8, 70078, Control_c, 6, 7, 40
8, 70080, Control_c, 6, 7, 40
8, 70099, Control_c, 6, 7, 39
8, 70118, Control_c, 6, 7, 38
8, 70137, Control_c, 6, 7, 37
8, 70156, Control_c, 6, 7, 36
8, 70176, Control_c, 6, 7, 35
8, 70195, Control_c, 6, 7, 34
8, 70214, Control_c, 6, 7, 33
8, 70233, Control_c, 6, 7, 32
8, 70252, Control_c, 6, 7, 31
8, 70272, Control_c, 6, 7, 30
8, 70291, Control_c, 6, 7, 29
8, 70310, Control_c, 6, 7, 28
8, 70329, Control_c, 6, 7, 27
8, 70348, Control_c, 6, 7, 26
8, 70368, Control_c, 6, 7, 25
8, 70387, Control_c, 6, 7, 24
8, 70406, Control_c, 6, 7, 23
8, 70425, Control_c, 6, 7, 22
8, 70444, Control_c, 6, 7, 21
8, 70465, Control_c, 6, 7, 20
8, 70484, Control_c, 6, 7, 19
8, 70504, Control_c, 6, 7, 18
8, 70523, Control_c, 6, 7, 17
8, 70542, Control_c, 6, 7, 16
8, 70561, Control_c, 6, 7, 15
8, 70580, Control_c, 6, 7, 14
8, 70600, Control_c, 6, 7, 13
8, 70619, Control_c, 6, 7, 12
8, 70638, Control_c, 6, 7, 11
8, 70657, Control_c, 6, 7, 10
8, 70676, Control_c, 6, 7, 9
8, 70696, Control_c, 6, 7, 8
8, 70715, Control_c, 6, 7, 7
8, 70734, Control_c, 6, 7, 6
8, 70753, Control_c, 6, 7, 5
8, 70755, Control_c, 6, 7, 0
8, 70772, Control_c, 6, 7, 4
8, 70792, Control_c, 6, 7, 3
8, 70811, Control_c, 6, 7, 2
8, 70830, Control_c, 6, 7, 1
8, 70846, Note_off_c, 6, 52, 64
8, 70846, Note_off_c, 6, 47, 64
8, 70846, Note_off_c, 6, 44, 64
8, 70846, Note_off_c, 6, 40, 64
8, 70846, Note_off_c, 6, 28, 64
8, 71520, Control_c, 6, 7, 100
8, 71520, End_track
9, 0, Start_track
9, 0, Title_t, "Brass"
9, 0, Channel_prefix, 7
9, 0, Control_c, 7, 7, 100
9, 0, Program_c, 7, 61
9, 28704, Control_c, 7, 7, 60
9, 28704, Note_on_c, 7, 40, 100
9, 28704, Note_on_c, 7, 47, 100
9, 28768, Note_on_c, 7, 43, 100
9, 28894, Note_off_c, 7, 47, 64
9, 28896, Note_on_c, 7, 48, 100
9, 28926, Note_off_c, 7, 43, 64
9, 29086, Note_off_c, 7, 48, 64
9, 29088, Note_on_c, 7, 45, 100
9, 29088, Note_on_c, 7, 49, 100
9, 29088, Control_c, 7, 7, 60
9, 29198, Note_off_c, 7, 40, 64
9, 29200, Note_on_c, 7, 41, 100
9, 29220, Control_c, 7, 7, 61
9, 29246, Note_off_c, 7, 45, 64
9, 29278, Note_off_c, 7, 49, 64
9, 29280, Note_on_c, 7, 50, 100
9, 29355, Control_c, 7, 7, 62
9, 29360, Note_on_c, 7, 46, 100
9, 29470, Note_off_c, 7, 50, 64
9, 29472, Note_on_c, 7, 51, 100
9, 29489, Control_c, 7, 7, 63
9, 29518, Note_off_c, 7, 46, 64
9, 29584, Note_on_c, 7, 48, 100
9, 29624, Control_c, 7, 7, 64
9, 29662, Note_off_c, 7, 51, 64
9, 29664, Note_on_c, 7, 52, 100
9, 29664, Note_on_c, 7, 42, 100
9, 29678, Note_off_c, 7, 41, 64
9, 29742, Note_off_c, 7, 48, 64
9, 29758, Control_c, 7, 7, 65
9, 29792, Note_on_c, 7, 46, 100
9, 29854, Note_off_c, 7, 52, 64
9, 29856, Note_on_c, 7, 53, 100
9, 29892, Control_c, 7, 7, 66
9, 29950, Note_off_c, 7, 46, 64
9, 30000, Note_on_c, 7, 50, 100
9, 30027, Control_c, 7, 7, 67
9, 30046, Note_off_c, 7, 53, 64
9, 30048, Note_on_c, 7, 54, 100
9, 30142, Note_off_c, 7, 42, 64
9, 30144, Note_on_c, 7, 43, 100
9, 30158, Note_off_c, 7, 50, 64
9, 30161, Control_c, 7, 7, 68
9, 30192, Note_on_c, 7, 48, 100
9, 30238, Note_off_c, 7, 54, 64
9, 30240, Note_on_c, 7, 55, 100
9, 30296, Control_c, 7, 7, 69
9, 30350, Note_off_c, 7, 48, 64
9, 30416, Note_on_c, 7, 48, 100
9, 30430, Note_off_c, 7, 55, 64
9, 30430, Control_c, 7, 7, 70
9, 30432, Note_on_c, 7, 56, 100
9, 30564, Control_c, 7, 7, 71
9, 30574, Note_off_c, 7, 48, 64
9, 30576, Note_on_c, 7, 53, 100
9, 30622, Note_off_c, 7, 43, 64
9, 30622, Note_off_c, 7, 56, 64
9, 30624, Note_on_c, 7, 57, 100
9, 30624, Note_on_c, 7, 44, 100
9, 30699, Control_c, 7, 7, 72
9, 30734, Note_off_c, 7, 53, 64
9, 30752, Note_on_c, 7, 50, 100
9, 30814, Note_off_c, 7, 57, 64
9, 30816, Note_on_c, 7, 58, 100
9, 30833, Control_c, 7, 7, 73
9, 30910, Note_off_c, 7, 50, 64
9, 30912, Note_on_c, 7, 53, 100
9, 30968, Control_c, 7, 7, 74
9, 31006, Note_off_c, 7, 58, 64
9, 31008, Note_on_c, 7, 59, 100
9, 31070, Note_off_c, 7, 53, 64
9, 31102, Note_off_c, 7, 44, 64
9, 31102, Control_c, 7, 7, 75
9, 31104, Note_on_c, 7, 45, 100
9, 31152, Note_on_c, 7, 54, 100
9, 31198, Note_off_c, 7, 59, 64
9, 31200, Note_on_c, 7, 60, 100
9, 31236, Control_c, 7, 7, 76
9, 31310, Note_off_c, 7, 54, 64
9, 31360, Note_on_c, 7, 55, 100
9, 31371, Control_c, 7, 7, 77
9, 31390, Note_off_c, 7, 60, 64
9, 31392, Note_on_c, 7, 61, 100
9, 31505, Control_c, 7, 7, 78
9, 31518, Note_off_c, 7, 55, 64
9, 31520, Note_on_c, 7, 51, 100
9, 31520, Note_on_c, 7, 58, 100
9, 31582, Note_off_c, 7, 45, 64
9, 31582, Note_off_c, 7, 61, 64
9, 31584, Note_on_c, 7, 62, 100
9, 31584, Note_on_c, 7, 46, 100
9, 31640, Control_c, 7, 7, 79
9, 31678, Note_off_c, 7, 51, 64
9, 31678, Note_off_c, 7, 58, 64
9, 31680, Note_on_c, 7, 49, 100
9, 31680, Note_on_c, 7, 56, 100
9, 31774, Note_off_c, 7, 62, 64
9, 31774, Control_c, 7, 7, 80
9, 31776, Note_on_c, 7, 63, 100
9, 31838, Note_off_c, 7, 49, 64
9, 31838, Note_off_c, 7, 56, 64
9, 31840, Note_on_c, 7, 54, 100
9, 31840, Note_on_c, 7, 58, 100
9, 31908, Control_c, 7, 7, 81
9, 31966, Note_off_c, 7, 63, 64
9, 31968, Note_on_c, 7, 64, 100
9, 31998, Note_off_c, 7, 54, 64
9, 31998, Note_off_c, 7, 58, 64
9, 32032, Note_on_c, 7, 52, 100
9, 32032, Note_on_c, 7, 60, 100
9, 32043, Control_c, 7, 7, 82
9, 32062, Note_off_c, 7, 46, 64
9, 32064, Note_on_c, 7, 47, 100
9, 32158, Note_off_c, 7, 64, 64
9, 32160, Note_on_c, 7, 65, 100
9, 32177, Control_c, 7, 7, 83
9, 32190, Note_off_c, 7, 52, 64
9, 32190, Note_off_c, 7, 60, 64
9, 32256, Note_on_c, 7, 54, 100
9, 32256, Note_on_c, 7, 61, 100
9, 32312, Control_c, 7, 7, 84
9, 32350, Note_off_c, 7, 65, 64
9, 32352, Note_on_c, 7, 66, 100
9, 32414, Note_off_c, 7, 54, 64
9, 32414, Note_off_c, 7, 61, 64
9, 32446, Control_c, 7, 7, 85
9, 32464, Note_on_c, 7, 56, 100
9, 32464, Note_on_c, 7, 62, 100
9, 32542, Note_off_c, 7, 47, 64
9, 32542, Note_off_c, 7, 66, 64
9, 32544, Note_on_c, 7, 67, 100
9, 32544, Note_on_c, 7, 48, 100
9, 32580, Control_c, 7, 7, 86
9, 32622, Note_off_c, 7, 56, 64
9, 32622, Note_off_c, 7, 62, 64
9, 32672, Note_on_c, 7, 63, 100
9, 32688, Note_on_c, 7, 58, 100
9, 32715, Control_c, 7, 7, 87
9, 32734, Note_off_c, 7, 67, 64
9, 32736, Note_on_c, 7, 68, 100
9, 32830, Note_off_c, 7, 63, 64
9, 32846, Note_off_c, 7, 58, 64
9, 32849, Control_c, 7, 7, 88
9, 32926, Note_off_c, 7, 68, 64
9, 32928, Note_on_c, 7, 69, 100
9, 32960, Note_on_c, 7, 56, 100
9, 32960, Note_on_c, 7, 63, 100
9, 32984, Control_c, 7, 7, 89
9, 33022, Note_off_c, 7, 48, 64
9, 33024, Note_on_c, 7, 49, 100
9, 33118, Note_off_c, 7, 69, 64
9, 33118, Note_off_c, 7, 56, 64
9, 33118, Note_off_c, 7, 63, 64
9, 33118, Control_c, 7, 7, 90
9, 33120, Note_on_c, 7, 70, 100
9, 33200, Note_on_c, 7, 56, 100
9, 33200, Note_on_c, 7, 65, 100
9, 33252, Control_c, 7, 7, 91
9, 33310, Note_off_c, 7, 70, 64
9, 33312, Note_on_c, 7, 71, 100
9, 33358, Note_off_c, 7, 56, 64
9, 33358, Note_off_c, 7, 65, 64
9, 33387, Control_c, 7, 7, 92
9, 33408, Note_on_c, 7, 59, 100
9, 33408, Note_on_c, 7, 67, 100
9, 33502, Note_off_c, 7, 49, 64
9, 33502, Note_off_c, 7, 71, 64
9, 33504, Note_on_c, 7, 72, 100
9, 33504, Note_on_c, 7, 50, 100
9, 33521, Control_c, 7, 7, 93
9, 33566, Note_off_c, 7, 59, 64
9, 33566, Note_off_c, 7, 67, 64
9, 33616, Note_on_c, 7, 57, 100
9, 33616, Note_on_c, 7, 65, 100
9, 33656, Control_c, 7, 7, 94
9, 33694, Note_off_c, 7, 72, 64
9, 33696, Note_on_c, 7, 73, 100
9, 33774, Note_off_c, 7, 57, 64
9, 33774, Note_off_c, 7, 65, 64
9, 33790, Control_c, 7, 7, 95
9, 33808, Note_on_c, 7, 60, 100
9, 33808, Note_on_c, 7, 67, 100
9, 33886, Note_off_c, 7, 73, 64
9, 33888, Note_on_c, 7, 74, 100
9, 33924, Control_c, 7, 7, 96
9, 33966, Note_off_c, 7, 60, 64
9, 33966, Note_off_c, 7, 67, 64
9, 33982, Note_off_c, 7, 50, 64
9, 33984, Note_on_c, 7, 51, 100
9, 34000, Note_on_c, 7, 59, 100
9, 34000, Note_on_c, 7, 67, 100
9, 34059, Control_c, 7, 7, 97
9, 34078, Note_off_c, 7, 74, 64
9, 34080, Note_on_c, 7, 75, 100
9, 34158, Note_off_c, 7, 59, 64
9, 34158, Note_off_c, 7, 67, 64
9, 34160, Note_on_c, 7, 68, 100
9, 34160, Note_on_c, 7, 62, 100
9, 34193, Control_c, 7, 7, 98
9, 34270, Note_off_c, 7, 75, 64
9, 34272, Note_on_c, 7, 77, 100
9, 34328, Control_c, 7, 7, 99
9, 34462, Note_off_c, 7, 51, 64
9, 34462, Note_off_c, 7, 68, 64
9, 34462, Note_off_c, 7, 62, 64
9, 34462, Note_off_c, 7, 77, 64
9, 34462, Control_c, 7, 7, 100
9, 34464, Note_on_c, 7, 88, 100
9, 34464, Note_on_c, 7, 52, 100
9, 34464, Note_on_c, 7, 64, 100
9, 34464, Note_on_c, 7, 76, 100
9, 34558, Note_off_c, 7, 76, 64
9, 34558, Note_off_c, 7, 64, 64
9, 34558, Note_off_c, 7, 52, 64
9, 34558, Note_off_c, 7, 88, 64
9, 43104, Control_c, 7, 7, 60
9, 43104, Note_on_c, 7, 48, 100
9, 43104, Note_on_c, 7, 60, 100
9, 43179, Control_c, 7, 7, 61
9, 43256, Control_c, 7, 7, 62
9, 43332, Control_c, 7, 7, 63
9, 43409, Control_c, 7, 7, 64
9, 43486, Control_c, 7, 7, 65
9, 43563, Control_c, 7, 7, 66
9, 43640, Control_c, 7, 7, 67
9, 43716, Control_c, 7, 7, 68
9, 43793, Control_c, 7, 7, 69
9, 43870, Note_off_c, 7, 60, 64
9, 43870, Note_off_c, 7, 48, 64
9, 43870, Control_c, 7, 7, 70
9, 43872, Note_on_c, 7, 43, 100
9, 43872, Note_on_c, 7, 55, 100
9, 43947, Control_c, 7, 7, 71
9, 44024, Control_c, 7, 7, 72
9, 44100, Control_c, 7, 7, 73
9, 44177, Control_c, 7, 7, 74
9, 44254, Control_c, 7, 7, 75
9, 44331, Control_c, 7, 7, 76
9, 44408, Control_c, 7, 7, 77
9, 44484, Control_c, 7, 7, 78
9, 44561, Control_c, 7, 7, 79
9, 44638, Note_off_c, 7, 55, 64
9, 44638, Note_off_c, 7, 43, 64
9, 44638, Control_c, 7, 7, 80
9, 44640, Note_on_c, 7, 50, 100
9, 44640, Note_on_c, 7, 62, 100
9, 44715, Control_c, 7, 7, 81
9, 44792, Control_c, 7, 7, 82
9, 44868, Control_c, 7, 7, 83
9, 44945, Control_c, 7, 7, 84
9, 45022, Control_c, 7, 7, 85
9, 45099, Control_c, 7, 7, 86
9, 45176, Control_c, 7, 7, 87
9, 45252, Control_c, 7, 7, 88
9, 45329, Control_c, 7, 7, 89
9, 45406, Note_off_c, 7, 62, 64
9, 45406, Note_off_c, 7, 50, 64
9, 45406, Control_c, 7, 7, 90
9, 45408, Note_on_c, 7, 45, 100
9, 45408, Note_on_c, 7, 57, 100
9, 45483, Control_c, 7, 7, 91
9, 45560, Control_c, 7, 7, 92
9, 45636, Control_c, 7, 7, 93
9, 45713, Control_c, 7, 7, 94
9, 45790, Control_c, 7, 7, 95
9, 45867, Control_c, 7, 7, 96
9, 45944, Control_c, 7, 7, 97
9, 46020, Control_c, 7, 7, 98
9, 46097, Control_c, 7, 7, 99
9, 46174, Note_off_c, 7, 57, 64
9, 46174, Note_off_c, 7, 45, 64
9, 46174, Control_c, 7, 7, 100
9, 46176, Control_c, 7, 7, 100
9, 46176, Note_on_c, 7, 56, 100
9, 46176, Note_on_c, 7, 52, 100
9, 46176, Note_on_c, 7, 59, 100
9, 46176, Note_on_c, 7, 64, 100
9, 46366, Control_c, 7, 7, 101
9, 46558, Control_c, 7, 7, 102
9, 46750, Control_c, 7, 7, 103
9, 46942, Note_off_c, 7, 64, 64
9, 46942, Note_off_c, 7, 59, 64
9, 46942, Note_off_c, 7, 52, 64
9, 46942, Note_off_c, 7, 56, 64
9, 46942, Control_c, 7, 7, 104
9, 46944, Note_on_c, 7, 52, 100
9, 46944, Note_on_c, 7, 55, 100
9, 46944, Note_on_c, 7, 48, 100
9, 46944, Note_on_c, 7, 60, 100
9, 47134, Control_c, 7, 7, 105
9, 47326, Control_c, 7, 7, 106
9, 47518, Control_c, 7, 7, 107
9, 47710, Note_off_c, 7, 60, 64
9, 47710, Note_off_c, 7, 48, 64
9, 47710, Note_off_c, 7, 55, 64
9, 47710, Note_off_c, 7, 52, 64
9, 47710, Control_c, 7, 7, 108
9, 47712, Note_on_c, 7, 59, 100
9, 47712, Note_on_c, 7, 55, 100
9, 47712, Note_on_c, 7, 50, 100
9, 47712, Note_on_c, 7, 43, 100
9, 47902, Control_c, 7, 7, 109
9, 48094, Control_c, 7, 7, 110
9, 48286, Control_c, 7, 7, 111
9, 48478, Note_off_c, 7, 43, 64
9, 48478, Note_off_c, 7, 50, 64
9, 48478, Note_off_c, 7, 55, 64
9, 48478, Note_off_c, 7, 59, 64
9, 48478, Control_c, 7, 7, 112
9, 48480, Note_on_c, 7, 50, 100
9, 48480, Note_on_c, 7, 54, 100
9, 48480, Note_on_c, 7, 57, 100
9, 48480, Note_on_c, 7, 62, 100
9, 48670, Control_c, 7, 7, 113
9, 48862, Control_c, 7, 7, 114
9, 49054, Control_c, 7, 7, 115
9, 49246, Note_off_c, 7, 62, 64
9, 49246, Note_off_c, 7, 57, 64
9, 49246, Note_off_c, 7, 54, 64
9, 49246, Note_off_c, 7, 50, 64
9, 49246, Control_c, 7, 7, 116
9, 49248, Note_on_c, 7, 49, 100
9, 49248, Note_on_c, 7, 52, 100
9, 49248, Note_on_c, 7, 45, 100
9, 49248, Note_on_c, 7, 57, 100
9, 49438, Control_c, 7, 7, 117
9, 49630, Control_c, 7, 7, 118
9, 49822, Control_c, 7, 7, 119
9, 50014, Note_off_c, 7, 57, 64
9, 50014, Note_off_c, 7, 45, 64
9, 50014, Note_off_c, 7, 52, 64
9, 50014, Note_off_c, 7, 49, 64
9, 50014, Control_c, 7, 7, 120
9, 50016, Note_on_c, 7, 52, 100
9, 50016, Note_on_c, 7, 64, 100
9, 50302, Note_off_c, 7, 64, 64
9, 50302, Note_off_c, 7, 52, 64
9, 50304, Note_on_c, 7, 50, 100
9, 50304, Note_on_c, 7, 62, 100
9, 50398, Note_off_c, 7, 62, 64
9, 50398, Note_off_c, 7, 50, 64
9, 50400, Note_on_c, 7, 48, 100
9, 50400, Note_on_c, 7, 60, 100
9, 50686, Note_off_c, 7, 60, 64
9, 50686, Note_off_c, 7, 48, 64
9, 50688, Note_on_c, 7, 50, 100
9, 50688, Note_on_c, 7, 62, 100
9, 50782, Note_off_c, 7, 62, 64
9, 50782, Note_off_c, 7, 50, 64
9, 50784, Note_on_c, 7, 43, 100
9, 50784, Note_on_c, 7, 55, 100
9, 50846, Note_off_c, 7, 55, 64
9, 50846, Note_off_c, 7, 43, 64
9, 61536, Note_on_c, 7, 45, 100
9, 61536, Note_on_c, 7, 49, 100
9, 61536, Note_on_c, 7, 40, 100
9, 61536, Control_c, 7, 7, 60
9, 61646, Note_off_c, 7, 40, 64
9, 61648, Note_on_c, 7, 41, 100
9, 61668, Control_c, 7, 7, 61
9, 61694, Note_off_c, 7, 45, 64
9, 61726, Note_off_c, 7, 49, 64
9, 61728, Note_on_c, 7, 50, 100
9, 61803, Control_c, 7, 7, 62
9, 61808, Note_on_c, 7, 46, 100
9, 61918, Note_off_c, 7, 50, 64
9, 61920, Note_on_c, 7, 51, 100
9, 61937, Control_c, 7, 7, 63
9, 61966, Note_off_c, 7, 46, 64
9, 62032, Note_on_c, 7, 48, 100
9, 62072, Control_c, 7, 7, 64
9, 62110, Note_off_c, 7, 51, 64
9, 62112, Note_on_c, 7, 52, 100
9, 62112, Note_on_c, 7, 42, 100
9, 62126, Note_off_c, 7, 41, 64
9, 62190, Note_off_c, 7, 48, 64
9, 62206, Control_c, 7, 7, 65
9, 62240, Note_on_c, 7, 46, 100
9, 62302, Note_off_c, 7, 52, 64
9, 62304, Note_on_c, 7, 53, 100
9, 62340, Control_c, 7, 7, 66
9, 62398, Note_off_c, 7, 46, 64
9, 62448, Note_on_c, 7, 50, 100
9, 62475, Control_c, 7, 7, 67
9, 62494, Note_off_c, 7, 53, 64
9, 62496, Note_on_c, 7, 54, 100
9, 62590, Note_off_c, 7, 42, 64
9, 62592, Note_on_c, 7, 43, 100
9, 62606, Note_off_c, 7, 50, 64
9, 62609, Control_c, 7, 7, 68
9, 62640, Note_on_c, 7, 48, 100
9, 62686, Note_off_c, 7, 54, 64
9, 62688, Note_on_c, 7, 55, 100
9, 62744, Control_c, 7, 7, 69
9, 62798, Note_off_c, 7, 48, 64
9, 62864, Note_on_c, 7, 48, 100
9, 62878, Note_off_c, 7, 55, 64
9, 62878, Control_c, 7, 7, 70
9, 62880, Note_on_c, 7, 56, 100
9, 63012, Control_c, 7, 7, 71
9, 63022, Note_off_c, 7, 48, 64
9, 63024, Note_on_c, 7, 53, 100
9, 63070, Note_off_c, 7, 43, 64
9, 63070, Note_off_c, 7, 56, 64
9, 63072, Note_on_c, 7, 57, 100
9, 63072, Note_on_c, 7, 44, 100
9, 63147, Control_c, 7, 7, 72
9, 63182, Note_off_c, 7, 53, 64
9, 63200, Note_on_c, 7, 50, 100
9, 63262, Note_off_c, 7, 57, 64
9, 63264, Note_on_c, 7, 58, 100
9, 63281, Control_c, 7, 7, 73
9, 63358, Note_off_c, 7, 50, 64
9, 63360, Note_on_c, 7, 53, 100
9, 63416, Control_c, 7, 7, 74
9, 63454, Note_off_c, 7, 58, 64
9, 63456, Note_on_c, 7, 59, 100
9, 63518, Note_off_c, 7, 53, 64
9, 63550, Note_off_c, 7, 44, 64
9, 63550, Control_c, 7, 7, 75
9, 63552, Note_on_c, 7, 45, 100
9, 63600, Note_on_c, 7, 54, 100
9, 63646, Note_off_c, 7, 59, 64
9, 63648, Note_on_c, 7, 60, 100
9, 63684, Control_c, 7, 7, 76
9, 63758, Note_off_c, 7, 54, 64
9, 63808, Note_on_c, 7, 55, 100
9, 63819, Control_c, 7, 7, 77
9, 63838, Note_off_c, 7, 60, 64
9, 63840, Note_on_c, 7, 61, 100
9, 63953, Control_c, 7, 7, 78
9, 63966, Note_off_c, 7, 55, 64
9, 63968, Note_on_c, 7, 51, 100
9, 63968, Note_on_c, 7, 58, 100
9, 64030, Note_off_c, 7, 45, 64
9, 64030, Note_off_c, 7, 61, 64
9, 64032, Note_on_c, 7, 62, 100
9, 64032, Note_on_c, 7, 46, 100
9, 64088, Control_c, 7, 7, 79
9, 64126, Note_off_c, 7, 51, 64
9, 64126, Note_off_c, 7, 58, 64
9, 64128, Note_on_c, 7, 49, 100
9, 64128, Note_on_c, 7, 56, 100
9, 64222, Note_off_c, 7, 62, 64
9, 64222, Control_c, 7, 7, 80
9, 64224, Note_on_c, 7, 63, 100
9, 64286, Note_off_c, 7, 49, 64
9, 64286, Note_off_c, 7, 56, 64
9, 64288, Note_on_c, 7, 54, 100
9, 64288, Note_on_c, 7, 58, 100
9, 64356, Control_c, 7, 7, 81
9, 64414, Note_off_c, 7, 63, 64
9, 64416, Note_on_c, 7, 64, 100
9, 64446, Note_off_c, 7, 54, 64
9, 64446, Note_off_c, 7, 58, 64
9, 64480, Note_on_c, 7, 52, 100
9, 64480, Note_on_c, 7, 60, 100
9, 64491, Control_c, 7, 7, 82
9, 64510, Note_off_c, 7, 46, 64
9, 64512, Note_on_c, 7, 47, 100
9, 64606, Note_off_c, 7, 64, 64
9, 64608, Note_on_c, 7, 65, 100
9, 64625, Control_c, 7, 7, 83
9, 64638, Note_off_c, 7, 52, 64
9, 64638, Note_off_c, 7, 60, 64
9, 64704, Note_on_c, 7, 54, 100
9, 64704, Note_on_c, 7, 61, 100
9, 64760, Control_c, 7, 7, 84
9, 64798, Note_off_c, 7, 65, 64
9, 64800, Note_on_c, 7, 66, 100
9, 64862, Note_off_c, 7, 54, 64
9, 64862, Note_off_c, 7, 61, 64
9, 64894, Control_c, 7, 7, 85
9, 64912, Note_on_c, 7, 56, 100
9, 64912, Note_on_c, 7, 62, 100
9, 64990, Note_off_c, 7, 47, 64
9, 64990, Note_off_c, 7, 66, 64
9, 64992, Note_on_c, 7, 67, 100
9, 64992, Note_on_c, 7, 48, 100
9, 65028, Control_c, 7, 7, 86
9, 65070, Note_off_c, 7, 56, 64
9, 65070, Note_off_c, 7, 62, 64
9, 65120, Note_on_c, 7, 63, 100
9, 65136, Note_on_c, 7, 58, 100
9, 65163, Control_c, 7, 7, 87
9, 65182, Note_off_c, 7, 67, 64
9, 65184, Note_on_c, 7, 68, 100
9, 65278, Note_off_c, 7, 63, 64
9, 65294, Note_off_c, 7, 58, 64
9, 65297, Control_c, 7, 7, 88
9, 65374, Note_off_c, 7, 68, 64
9, 65376, Note_on_c, 7, 69, 100
9, 65408, Note_on_c, 7, 56, 100
9, 65408, Note_on_c, 7, 63, 100
9, 65432, Control_c, 7, 7, 89
9, 65470, Note_off_c, 7, 48, 64
9, 65472, Note_on_c, 7, 49, 100
9, 65566, Note_off_c, 7, 69, 64
9, 65566, Note_off_c, 7, 56, 64
9, 65566, Note_off_c, 7, 63, 64
9, 65566, Control_c, 7, 7, 90
9, 65568, Note_on_c, 7, 70, 100
9, 65648, Note_on_c, 7, 56, 100
9, 65648, Note_on_c, 7, 65, 100
9, 65700, Control_c, 7, 7, 91
9, 65758, Note_off_c, 7, 70, 64
9, 65760, Note_on_c, 7, 71, 100
9, 65806, Note_off_c, 7, 56, 64
9, 65806, Note_off_c, 7, 65, 64
9, 65835, Control_c, 7, 7, 92
9, 65856, Note_on_c, 7, 59, 100
9, 65856, Note_on_c, 7, 67, 100
9, 65950, Note_off_c, 7, 49, 64
9, 65950, Note_off_c, 7, 71, 64
9, 65952, Note_on_c, 7, 72, 100
9, 65952, Note_on_c, 7, 50, 100
9, 65969, Control_c, 7, 7, 93
9, 66014, Note_off_c, 7, 59, 64
9, 66014, Note_off_c, 7, 67, 64
9, 66064, Note_on_c, 7, 57, 100
9, 66064, Note_on_c, 7, 65, 100
9, 66104, Control_c, 7, 7, 94
9, 66142, Note_off_c, 7, 72, 64
9, 66144, Note_on_c, 7, 73, 100
9, 66222, Note_off_c, 7, 57, 64
9, 66222, Note_off_c, 7, 65, 64
9, 66238, Control_c, 7, 7, 95
9, 66256, Note_on_c, 7, 60, 100
9, 66256, Note_on_c, 7, 67, 100
9, 66334, Note_off_c, 7, 73, 64
9, 66336, Note_on_c, 7, 74, 100
9, 66372, Control_c, 7, 7, 96
9, 66414, Note_off_c, 7, 60, 64
9, 66414, Note_off_c, 7, 67, 64
9, 66430, Note_off_c, 7, 50, 64
9, 66432, Note_on_c, 7, 51, 100
9, 66448, Note_on_c, 7, 59, 100
9, 66448, Note_on_c, 7, 67, 100
9, 66507, Control_c, 7, 7, 97
9, 66526, Note_off_c, 7, 74, 64
9, 66528, Note_on_c, 7, 75, 100
9, 66606, Note_off_c, 7, 59, 64
9, 66606, Note_off_c, 7, 67, 64
9, 66608, Note_on_c, 7, 68, 100
9, 66608, Note_on_c, 7, 62, 100
9, 66641, Control_c, 7, 7, 98
9, 66718, Note_off_c, 7, 75, 64
9, 66720, Note_on_c, 7, 77, 100
9, 66776, Control_c, 7, 7, 99
9, 66910, Note_off_c, 7, 51, 64
9, 66910, Note_off_c, 7, 68, 64
9, 66910, Note_off_c, 7, 62, 64
9, 66910, Note_off_c, 7, 77, 64
9, 66910, Control_c, 7, 7, 100
9, 66912, Note_on_c, 7, 52, 100
9, 66912, Note_on_c, 7, 88, 100
9, 66912, Note_on_c, 7, 40, 100
9, 66912, Note_on_c, 7, 64, 100
9, 66912, Note_on_c, 7, 76, 100
9, 67022, Note_off_c, 7, 76, 64
9, 67022, Note_off_c, 7, 64, 64
9, 67022, Note_off_c, 7, 40, 64
9, 67022, Note_off_c, 7, 88, 64
9, 67022, Note_off_c, 7, 52, 64
9, 67488, Control_c, 7, 7, 127
9, 67488, Note_on_c, 7, 40, 127
9, 67488, Note_on_c, 7, 44, 127
9, 67488, Note_on_c, 7, 47, 127
9, 67488, Note_on_c, 7, 52, 127
9, 67488, Note_on_c, 7, 59, 127
9, 67488, Note_on_c, 7, 28, 127
9, 67497, Control_c, 7, 7, 126
9, 67508, Control_c, 7, 7, 125
9, 67518, Control_c, 7, 7, 124
9, 67529, Control_c, 7, 7, 123
9, 67540, Control_c, 7, 7, 122
9, 67550, Control_c, 7, 7, 121
9, 67561, Control_c, 7, 7, 120
9, 67572, Control_c, 7, 7, 119
9, 67582, Control_c, 7, 7, 118
9, 67593, Control_c, 7, 7, 117
9, 67603, Control_c, 7, 7, 116
9, 67614, Control_c, 7, 7, 115
9, 67625, Control_c, 7, 7, 114
9, 67635, Control_c, 7, 7, 113
9, 67646, Control_c, 7, 7, 112
9, 67657, Control_c, 7, 7, 111
9, 67667, Control_c, 7, 7, 110
9, 67678, Control_c, 7, 7, 109
9, 67688, Control_c, 7, 7, 108
9, 67699, Control_c, 7, 7, 107
9, 67710, Control_c, 7, 7, 106
9, 67720, Control_c, 7, 7, 105
9, 67731, Control_c, 7, 7, 104
9, 67742, Control_c, 7, 7, 103
9, 67752, Control_c, 7, 7, 102
9, 67763, Control_c, 7, 7, 101
9, 67774, Control_c, 7, 7, 100
9, 67776, Control_c, 7, 7, 100
9, 67820, Control_c, 7, 7, 99
9, 67867, Control_c, 7, 7, 98
9, 67913, Control_c, 7, 7, 97
9, 67960, Control_c, 7, 7, 96
9, 68004, Control_c, 7, 7, 95
9, 68051, Control_c, 7, 7, 94
9, 68097, Control_c, 7, 7, 93
9, 68144, Control_c, 7, 7, 92
9, 68190, Control_c, 7, 7, 91
9, 68235, Control_c, 7, 7, 90
9, 68281, Control_c, 7, 7, 89
9, 68328, Control_c, 7, 7, 88
9, 68374, Control_c, 7, 7, 87
9, 68419, Control_c, 7, 7, 86
9, 68465, Control_c, 7, 7, 85
9, 68512, Control_c, 7, 7, 84
9, 68558, Control_c, 7, 7, 83
9, 68604, Control_c, 7, 7, 82
9, 68649, Control_c, 7, 7, 81
9, 68696, Control_c, 7, 7, 80
9, 68742, Control_c, 7, 7, 79
9, 68788, Control_c, 7, 7, 78
9, 68833, Control_c, 7, 7, 77
9, 68880, Control_c, 7, 7, 76
9, 68926, Control_c, 7, 7, 75
9, 68972, Control_c, 7, 7, 74
9, 69019, Control_c, 7, 7, 73
9, 69064, Control_c, 7, 7, 72
9, 69110, Control_c, 7, 7, 71
9, 69156, Control_c, 7, 7, 70
9, 69203, Control_c, 7, 7, 69
9, 69248, Control_c, 7, 7, 68
9, 69294, Control_c, 7, 7, 67
9, 69340, Control_c, 7, 7, 66
9, 69387, Control_c, 7, 7, 65
9, 69433, Control_c, 7, 7, 64
9, 69478, Control_c, 7, 7, 63
9, 69524, Control_c, 7, 7, 62
9, 69571, Control_c, 7, 7, 61
9, 69617, Control_c, 7, 7, 60
9, 69662, Control_c, 7, 7, 59
9, 69708, Control_c, 7, 7, 58
9, 69755, Control_c, 7, 7, 57
9, 69801, Control_c, 7, 7, 56
9, 69848, Control_c, 7, 7, 55
9, 69892, Control_c, 7, 7, 54
9, 69939, Control_c, 7, 7, 53
9, 69985, Control_c, 7, 7, 52
9, 70032, Control_c, 7, 7, 51
9, 70078, Control_c, 7, 7, 50
9, 70080, Control_c, 7, 7, 40
9, 70097, Control_c, 7, 7, 39
9, 70116, Control_c, 7, 7, 38
9, 70136, Control_c, 7, 7, 37
9, 70155, Control_c, 7, 7, 36
9, 70174, Control_c, 7, 7, 35
9, 70193, Control_c, 7, 7, 34
9, 70212, Control_c, 7, 7, 33
9, 70232, Control_c, 7, 7, 32
9, 70251, Control_c, 7, 7, 31
9, 70270, Control_c, 7, 7, 30
9, 70289, Control_c, 7, 7, 29
9, 70308, Control_c, 7, 7, 28
9, 70328, Control_c, 7, 7, 27
9, 70347, Control_c, 7, 7, 26
9, 70366, Control_c, 7, 7, 25
9, 70385, Control_c, 7, 7, 24
9, 70404, Control_c, 7, 7, 23
9, 70424, Control_c, 7, 7, 22
9, 70443, Control_c, 7, 7, 21
9, 70462, Control_c, 7, 7, 20
9, 70481, Control_c, 7, 7, 19
9, 70500, Control_c, 7, 7, 18
9, 70520, Control_c, 7, 7, 17
9, 70539, Control_c, 7, 7, 16
9, 70558, Control_c, 7, 7, 15
9, 70577, Control_c, 7, 7, 14
9, 70596, Control_c, 7, 7, 13
9, 70616, Control_c, 7, 7, 12
9, 70635, Control_c, 7, 7, 11
9, 70654, Control_c, 7, 7, 10
9, 70673, Control_c, 7, 7, 9
9, 70692, Control_c, 7, 7, 8
9, 70712, Control_c, 7, 7, 7
9, 70731, Control_c, 7, 7, 6
9, 70750, Control_c, 7, 7, 5
9, 70769, Control_c, 7, 7, 4
9, 70788, Control_c, 7, 7, 3
9, 70808, Control_c, 7, 7, 2
9, 70827, Control_c, 7, 7, 1
9, 70846, Note_off_c, 7, 28, 64
9, 70846, Note_off_c, 7, 59, 64
9, 70846, Note_off_c, 7, 52, 64
9, 70846, Note_off_c, 7, 47, 64
9, 70846, Note_off_c, 7, 44, 64
9, 70846, Note_off_c, 7, 40, 64
9, 70846, Control_c, 7, 7, 0
9, 71520, Control_c, 7, 7, 100
9, 71520, End_track
10, 0, Start_track
10, 0, Title_t, "Woodwinds"
10, 0, Channel_prefix, 8
10, 0, Control_c, 8, 7, 100
10, 0, Program_c, 8, 71
10, 28704, Note_on_c, 8, 47, 62
10, 28784, Note_on_c, 8, 48, 62
10, 28896, Note_on_c, 8, 50, 62
10, 28960, Note_on_c, 8, 41, 62
10, 29086, Note_off_c, 8, 47, 64
10, 29088, Note_on_c, 8, 44, 100
10, 29088, Note_on_c, 8, 39, 100
10, 29088, Control_c, 8, 7, 60
10, 29120, Note_on_c, 8, 48, 100
10, 29136, Note_on_c, 8, 51, 100
10, 29166, Note_off_c, 8, 51, 64
10, 29166, Note_off_c, 8, 48, 64
10, 29184, Note_on_c, 8, 51, 100
10, 29190, Note_off_c, 8, 48, 64
10, 29198, Note_off_c, 8, 44, 64
10, 29200, Note_on_c, 8, 45, 100
10, 29200, Note_on_c, 8, 48, 100
10, 29214, Note_off_c, 8, 51, 64
10, 29220, Control_c, 8, 7, 61
10, 29232, Note_on_c, 8, 51, 100
10, 29262, Note_off_c, 8, 51, 64
10, 29270, Note_off_c, 8, 48, 64
10, 29278, Note_off_c, 8, 50, 64
10, 29280, Note_on_c, 8, 52, 100
10, 29296, Note_on_c, 8, 49, 100
10, 29310, Note_off_c, 8, 45, 64
10, 29310, Note_off_c, 8, 52, 64
10, 29328, Note_on_c, 8, 52, 100
10, 29342, Note_off_c, 8, 41, 64
10, 29344, Note_on_c, 8, 45, 100
10, 29355, Control_c, 8, 7, 62
10, 29358, Note_off_c, 8, 52, 64
10, 29366, Note_off_c, 8, 49, 64
10, 29376, Note_on_c, 8, 52, 100
10, 29392, Note_on_c, 8, 49, 100
10, 29406, Note_off_c, 8, 52, 64
10, 29424, Note_on_c, 8, 53, 100
10, 29454, Note_off_c, 8, 45, 64
10, 29454, Note_off_c, 8, 53, 64
10, 29462, Note_off_c, 8, 49, 64
10, 29470, Note_off_c, 8, 39, 64
10, 29472, Note_on_c, 8, 46, 100
10, 29472, Note_on_c, 8, 40, 100
10, 29472, Note_on_c, 8, 50, 100
10, 29472, Note_on_c, 8, 53, 100
10, 29489, Control_c, 8, 7, 63
10, 29502, Note_off_c, 8, 53, 64
10, 29520, Note_on_c, 8, 53, 100
10, 29542, Note_off_c, 8, 50, 64
10, 29550, Note_off_c, 8, 53, 64
10, 29568, Note_on_c, 8, 50, 100
10, 29568, Note_on_c, 8, 54, 100
10, 29582, Note_off_c, 8, 46, 64
10, 29598, Note_off_c, 8, 54, 64
10, 29616, Note_on_c, 8, 46, 100
10, 29616, Note_on_c, 8, 54, 100
10, 29624, Control_c, 8, 7, 64
10, 29638, Note_off_c, 8, 50, 64
10, 29646, Note_off_c, 8, 54, 64
10, 29664, Note_on_c, 8, 54, 100
10, 29680, Note_on_c, 8, 51, 100
10, 29694, Note_off_c, 8, 54, 64
10, 29712, Note_on_c, 8, 55, 100
10, 29726, Note_off_c, 8, 46, 64
10, 29742, Note_off_c, 8, 55, 64
10, 29744, Note_on_c, 8, 47, 100
10, 29750, Note_off_c, 8, 51, 64
10, 29758, Control_c, 8, 7, 65
10, 29760, Note_on_c, 8, 55, 100
10, 29776, Note_on_c, 8, 51, 100
10, 29790, Note_off_c, 8, 55, 64
10, 29808, Note_on_c, 8, 55, 100
10, 29838, Note_off_c, 8, 55, 64
10, 29846, Note_off_c, 8, 51, 64
10, 29854, Note_off_c, 8, 40, 64
10, 29854, Note_off_c, 8, 47, 64
10, 29856, Note_on_c, 8, 41, 100
10, 29856, Note_on_c, 8, 52, 100
10, 29856, Note_on_c, 8, 56, 100
10, 29886, Note_off_c, 8, 56, 64
10, 29888, Note_on_c, 8, 47, 100
10, 29892, Control_c, 8, 7, 66
10, 29904, Note_on_c, 8, 56, 100
10, 29926, Note_off_c, 8, 52, 64
10, 29934, Note_off_c, 8, 56, 64
10, 29952, Note_on_c, 8, 52, 100
10, 29952, Note_on_c, 8, 56, 100
10, 29982, Note_off_c, 8, 56, 64
10, 29998, Note_off_c, 8, 47, 64
10, 30000, Note_on_c, 8, 57, 100
10, 30016, Note_on_c, 8, 48, 100
10, 30022, Note_off_c, 8, 52, 64
10, 30027, Control_c, 8, 7, 67
10, 30030, Note_off_c, 8, 57, 64
10, 30048, Note_on_c, 8, 57, 100
10, 30064, Note_on_c, 8, 53, 100
10, 30078, Note_off_c, 8, 57, 64
10, 30096, Note_on_c, 8, 57, 100
10, 30126, Note_off_c, 8, 48, 64
10, 30126, Note_off_c, 8, 57, 64
10, 30134, Note_off_c, 8, 53, 64
10, 30144, Note_on_c, 8, 48, 100
10, 30144, Note_on_c, 8, 53, 100
10, 30144, Note_on_c, 8, 58, 100
10, 30161, Control_c, 8, 7, 68
10, 30174, Note_off_c, 8, 58, 64
10, 30192, Note_on_c, 8, 58, 100
10, 30214, Note_off_c, 8, 53, 64
10, 30222, Note_off_c, 8, 58, 64
10, 30238, Note_off_c, 8, 41, 64
10, 30240, Note_on_c, 8, 42, 100
10, 30240, Note_on_c, 8, 54, 100
10, 30240, Note_on_c, 8, 58, 100
10, 30254, Note_off_c, 8, 48, 64
10, 30270, Note_off_c, 8, 58, 64
10, 30272, Note_on_c, 8, 49, 100
10, 30288, Note_on_c, 8, 59, 100
10, 30296, Control_c, 8, 7, 69
10, 30310, Note_off_c, 8, 54, 64
10, 30318, Note_off_c, 8, 59, 64
10, 30336, Note_on_c, 8, 54, 100
10, 30336, Note_on_c, 8, 59, 100
10, 30366, Note_off_c, 8, 59, 64
10, 30382, Note_off_c, 8, 49, 64
10, 30384, Note_on_c, 8, 59, 100
10, 30400, Note_on_c, 8, 49, 100
10, 30406, Note_off_c, 8, 54, 64
10, 30414, Note_off_c, 8, 59, 64
10, 30430, Control_c, 8, 7, 70
10, 30432, Note_on_c, 8, 55, 100
10, 30432, Note_on_c, 8, 60, 100
10, 30462, Note_off_c, 8, 60, 64
10, 30480, Note_on_c, 8, 60, 100
10, 30502, Note_off_c, 8, 55, 64
10, 30510, Note_off_c, 8, 49, 64
10, 30510, Note_off_c, 8, 60, 64
10, 30528, Note_on_c, 8, 50, 100
10, 30528, Note_on_c, 8, 55, 100
10, 30528, Note_on_c, 8, 60, 100
10, 30558, Note_off_c, 8, 60, 64
10, 30564, Control_c, 8, 7, 71
10, 30576, Note_on_c, 8, 61, 100
10, 30598, Note_off_c, 8, 55, 64
10, 30606, Note_off_c, 8, 61, 64
10, 30622, Note_off_c, 8, 42, 64
10, 30624, Note_on_c, 8, 43, 100
10, 30624, Note_on_c, 8, 56, 100
10, 30624, Note_on_c, 8, 61, 100
10, 30638, Note_off_c, 8, 50, 64
10, 30654, Note_off_c, 8, 61, 64
10, 30656, Note_on_c, 8, 50, 100
10, 30672, Note_on_c, 8, 61, 100
10, 30694, Note_off_c, 8, 56, 64
10, 30699, Control_c, 8, 7, 72
10, 30702, Note_off_c, 8, 61, 64
10, 30720, Note_on_c, 8, 56, 100
10, 30720, Note_on_c, 8, 62, 100
10, 30750, Note_off_c, 8, 62, 64
10, 30766, Note_off_c, 8, 50, 64
10, 30768, Note_on_c, 8, 62, 100
10, 30784, Note_on_c, 8, 51, 100
10, 30790, Note_off_c, 8, 56, 64
10, 30798, Note_off_c, 8, 62, 64
10, 30816, Note_on_c, 8, 57, 100
10, 30816, Note_on_c, 8, 62, 100
10, 30833, Control_c, 8, 7, 73
10, 30846, Note_off_c, 8, 62, 64
10, 30864, Note_on_c, 8, 63, 100
10, 30886, Note_off_c, 8, 57, 64
10, 30894, Note_off_c, 8, 51, 64
10, 30894, Note_off_c, 8, 63, 64
10, 30912, Note_on_c, 8, 51, 100
10, 30912, Note_on_c, 8, 57, 100
10, 30912, Note_on_c, 8, 63, 100
10, 30942, Note_off_c, 8, 63, 64
10, 30960, Note_on_c, 8, 63, 100
10, 30968, Control_c, 8, 7, 74
10, 30982, Note_off_c, 8, 57, 64
10, 30990, Note_off_c, 8, 63, 64
10, 31006, Note_off_c, 8, 43, 64
10, 31008, Note_on_c, 8, 44, 100
10, 31008, Note_on_c, 8, 58, 100
10, 31008, Note_on_c, 8, 64, 100
10, 31022, Note_off_c, 8, 51, 64
10, 31038, Note_off_c, 8, 64, 64
10, 31040, Note_on_c, 8, 52, 100
10, 31056, Note_on_c, 8, 64, 100
10, 31078, Note_off_c, 8, 58, 64
10, 31086, Note_off_c, 8, 64, 64
10, 31102, Control_c, 8, 7, 75
10, 31104, Note_on_c, 8, 58, 100
10, 31104, Note_on_c, 8, 64, 100
10, 31134, Note_off_c, 8, 64, 64
10, 31150, Note_off_c, 8, 52, 64
10, 31152, Note_on_c, 8, 65, 100
10, 31168, Note_on_c, 8, 52, 100
10, 31174, Note_off_c, 8, 58, 64
10, 31182, Note_off_c, 8, 65, 64
10, 31200, Note_on_c, 8, 59, 100
10, 31200, Note_on_c, 8, 65, 100
10, 31230, Note_off_c, 8, 65, 64
10, 31236, Control_c, 8, 7, 76
10, 31248, Note_on_c, 8, 65, 100
10, 31270, Note_off_c, 8, 59, 64
10, 31278, Note_off_c, 8, 52, 64
10, 31278, Note_off_c, 8, 65, 64
10, 31296, Note_on_c, 8, 59, 100
10, 31296, Note_on_c, 8, 66, 100
10, 31312, Note_on_c, 8, 53, 100
10, 31326, Note_off_c, 8, 66, 64
10, 31344, Note_on_c, 8, 66, 100
10, 31366, Note_off_c, 8, 59, 64
10, 31371, Control_c, 8, 7, 77
10, 31374, Note_off_c, 8, 66, 64
10, 31390, Note_off_c, 8, 44, 64
10, 31392, Note_on_c, 8, 45, 100
10, 31392, Note_on_c, 8, 60, 100
10, 31392, Note_on_c, 8, 66, 100
10, 31422, Note_off_c, 8, 66, 64
10, 31422, Note_off_c, 8, 53, 64
10, 31440, Note_on_c, 8, 53, 100
10, 31440, Note_on_c, 8, 67, 100
10, 31462, Note_off_c, 8, 60, 64
10, 31470, Note_off_c, 8, 67, 64
10, 31488, Note_on_c, 8, 60, 100
10, 31488, Note_on_c, 8, 67, 100
10, 31505, Control_c, 8, 7, 78
10, 31518, Note_off_c, 8, 67, 64
10, 31536, Note_on_c, 8, 67, 100
10, 31550, Note_off_c, 8, 53, 64
10, 31558, Note_off_c, 8, 60, 64
10, 31566, Note_off_c, 8, 67, 64
10, 31568, Note_on_c, 8, 54, 100
10, 31584, Note_on_c, 8, 61, 100
10, 31584, Note_on_c, 8, 68, 100
10, 31614, Note_off_c, 8, 68, 64
10, 31632, Note_on_c, 8, 68, 100
10, 31640, Control_c, 8, 7, 79
10, 31654, Note_off_c, 8, 61, 64
10, 31662, Note_off_c, 8, 68, 64
10, 31678, Note_off_c, 8, 54, 64
10, 31680, Note_on_c, 8, 61, 100
10, 31680, Note_on_c, 8, 68, 100
10, 31696, Note_on_c, 8, 54, 100
10, 31710, Note_off_c, 8, 68, 64
10, 31728, Note_on_c, 8, 69, 100
10, 31750, Note_off_c, 8, 61, 64
10, 31758, Note_off_c, 8, 69, 64
10, 31774, Note_off_c, 8, 45, 64
10, 31774, Control_c, 8, 7, 80
10, 31776, Note_on_c, 8, 46, 100
10, 31776, Note_on_c, 8, 62, 100
10, 31776, Note_on_c, 8, 69, 100
10, 31806, Note_off_c, 8, 69, 64
10, 31806, Note_off_c, 8, 54, 64
10, 31824, Note_on_c, 8, 55, 100
10, 31824, Note_on_c, 8, 69, 100
10, 31846, Note_off_c, 8, 62, 64
10, 31854, Note_off_c, 8, 69, 64
10, 31872, Note_on_c, 8, 62, 100
10, 31872, Note_on_c, 8, 70, 100
10, 31902, Note_off_c, 8, 70, 64
10, 31908, Control_c, 8, 7, 81
10, 31920, Note_on_c, 8, 70, 100
10, 31934, Note_off_c, 8, 55, 64
10, 31942, Note_off_c, 8, 62, 64
10, 31950, Note_off_c, 8, 70, 64
10, 31952, Note_on_c, 8, 55, 100
10, 31968, Note_on_c, 8, 70, 100
10, 31984, Note_on_c, 8, 63, 100
10, 31998, Note_off_c, 8, 70, 64
10, 32016, Note_on_c, 8, 71, 100
10, 32043, Control_c, 8, 7, 82
10, 32046, Note_off_c, 8, 71, 64
10, 32054, Note_off_c, 8, 63, 64
10, 32062, Note_off_c, 8, 55, 64
10, 32064, Note_on_c, 8, 71, 100
10, 32080, Note_on_c, 8, 63, 100
10, 32094, Note_off_c, 8, 71, 64
10, 32096, Note_on_c, 8, 56, 100
10, 32112, Note_on_c, 8, 71, 100
10, 32142, Note_off_c, 8, 71, 64
10, 32150, Note_off_c, 8, 63, 64
10, 32158, Note_off_c, 8, 46, 64
10, 32160, Note_on_c, 8, 47, 100
10, 32160, Note_on_c, 8, 64, 100
10, 32160, Note_on_c, 8, 72, 100
10, 32177, Control_c, 8, 7, 83
10, 32190, Note_off_c, 8, 72, 64
10, 32206, Note_off_c, 8, 56, 64
10, 32208, Note_on_c, 8, 72, 100
10, 32230, Note_off_c, 8, 64, 64
10, 32238, Note_off_c, 8, 72, 64
10, 32240, Note_on_c, 8, 56, 100
10, 32256, Note_on_c, 8, 64, 100
10, 32256, Note_on_c, 8, 72, 100
10, 32286, Note_off_c, 8, 72, 64
10, 32304, Note_on_c, 8, 73, 100
10, 32312, Control_c, 8, 7, 84
10, 32326, Note_off_c, 8, 64, 64
10, 32334, Note_off_c, 8, 73, 64
10, 32350, Note_off_c, 8, 56, 64
10, 32352, Note_on_c, 8, 65, 100
10, 32352, Note_on_c, 8, 73, 100
10, 32382, Note_off_c, 8, 73, 64
10, 32384, Note_on_c, 8, 57, 100
10, 32400, Note_on_c, 8, 73, 100
10, 32422, Note_off_c, 8, 65, 64
10, 32430, Note_off_c, 8, 73, 64
10, 32446, Control_c, 8, 7, 85
10, 32448, Note_on_c, 8, 74, 100
10, 32464, Note_on_c, 8, 65, 100
10, 32478, Note_off_c, 8, 74, 64
10, 32494, Note_off_c, 8, 57, 64
10, 32496, Note_on_c, 8, 74, 100
10, 32512, Note_on_c, 8, 57, 100
10, 32526, Note_off_c, 8, 74, 64
10, 32534, Note_off_c, 8, 65, 64
10, 32542, Note_off_c, 8, 47, 64
10, 32544, Note_on_c, 8, 48, 100
10, 32544, Note_on_c, 8, 66, 100
10, 32544, Note_on_c, 8, 74, 100
10, 32574, Note_off_c, 8, 74, 64
10, 32580, Control_c, 8, 7, 86
10, 32592, Note_on_c, 8, 69, 100
10, 32614, Note_off_c, 8, 66, 64
10, 32622, Note_off_c, 8, 57, 64
10, 32622, Note_off_c, 8, 69, 64
10, 32640, Note_on_c, 8, 69, 100
10, 32640, Note_on_c, 8, 58, 100
10, 32656, Note_on_c, 8, 66, 100
10, 32670, Note_off_c, 8, 69, 64
10, 32688, Note_on_c, 8, 69, 100
10, 32715, Control_c, 8, 7, 87
10, 32718, Note_off_c, 8, 69, 64
10, 32726, Note_off_c, 8, 66, 64
10, 32736, Note_on_c, 8, 70, 100
10, 32736, Note_on_c, 8, 67, 100
10, 32750, Note_off_c, 8, 58, 64
10, 32766, Note_off_c, 8, 70, 64
10, 32784, Note_on_c, 8, 70, 100
10, 32784, Note_on_c, 8, 58, 100
10, 32806, Note_off_c, 8, 67, 64
10, 32814, Note_off_c, 8, 70, 64
10, 32832, Note_on_c, 8, 70, 100
10, 32832, Note_on_c, 8, 67, 100
10, 32849, Control_c, 8, 7, 88
10, 32862, Note_off_c, 8, 70, 64
10, 32880, Note_on_c, 8, 71, 100
10, 32894, Note_off_c, 8, 58, 64
10, 32902, Note_off_c, 8, 67, 64
10, 32910, Note_off_c, 8, 71, 64
10, 32912, Note_on_c, 8, 59, 100
10, 32926, Note_off_c, 8, 48, 64
10, 32928, Note_on_c, 8, 71, 100
10, 32928, Note_on_c, 8, 49, 100
10, 32928, Note_on_c, 8, 68, 100
10, 32958, Note_off_c, 8, 71, 64
10, 32976, Note_on_c, 8, 71, 100
10, 32984, Control_c, 8, 7, 89
10, 32998, Note_off_c, 8, 68, 64
10, 33006, Note_off_c, 8, 71, 64
10, 33022, Note_off_c, 8, 59, 64
10, 33024, Note_on_c, 8, 72, 100
10, 33024, Note_on_c, 8, 68, 100
10, 33040, Note_on_c, 8, 59, 100
10, 33054, Note_off_c, 8, 72, 64
10, 33072, Note_on_c, 8, 72, 100
10, 33094, Note_off_c, 8, 68, 64
10, 33102, Note_off_c, 8, 72, 64
10, 33118, Control_c, 8, 7, 90
10, 33120, Note_on_c, 8, 72, 100
10, 33120, Note_on_c, 8, 69, 100
10, 33150, Note_off_c, 8, 72, 64
10, 33150, Note_off_c, 8, 59, 64
10, 33168, Note_on_c, 8, 73, 100
10, 33168, Note_on_c, 8, 60, 100
10, 33190, Note_off_c, 8, 69, 64
10, 33198, Note_off_c, 8, 73, 64
10, 33216, Note_on_c, 8, 73, 100
10, 33216, Note_on_c, 8, 69, 100
10, 33246, Note_off_c, 8, 73, 64
10, 33252, Control_c, 8, 7, 91
10, 33264, Note_on_c, 8, 73, 100
10, 33278, Note_off_c, 8, 60, 64
10, 33286, Note_off_c, 8, 69, 64
10, 33294, Note_off_c, 8, 73, 64
10, 33296, Note_on_c, 8, 60, 100
10, 33310, Note_off_c, 8, 49, 64
10, 33312, Note_on_c, 8, 74, 100
10, 33312, Note_on_c, 8, 50, 100
10, 33312, Note_on_c, 8, 70, 100
10, 33342, Note_off_c, 8, 74, 64
10, 33360, Note_on_c, 8, 74, 100
10, 33382, Note_off_c, 8, 70, 64
10, 33387, Control_c, 8, 7, 92
10, 33390, Note_off_c, 8, 74, 64
10, 33406, Note_off_c, 8, 60, 64
10, 33408, Note_on_c, 8, 74, 100
10, 33424, Note_on_c, 8, 61, 100
10, 33424, Note_on_c, 8, 70, 100
10, 33438, Note_off_c, 8, 74, 64
10, 33456, Note_on_c, 8, 75, 100
10, 33486, Note_off_c, 8, 75, 64
10, 33494, Note_off_c, 8, 70, 64
10, 33504, Note_on_c, 8, 75, 100
10, 33504, Note_on_c, 8, 71, 100
10, 33521, Control_c, 8, 7, 93
10, 33534, Note_off_c, 8, 61, 64
10, 33534, Note_off_c, 8, 75, 64
10, 33552, Note_on_c, 8, 75, 100
10, 33552, Note_on_c, 8, 61, 100
10, 33574, Note_off_c, 8, 71, 64
10, 33582, Note_off_c, 8, 75, 64
10, 33600, Note_on_c, 8, 76, 100
10, 33600, Note_on_c, 8, 71, 100
10, 33630, Note_off_c, 8, 76, 64
10, 33648, Note_on_c, 8, 76, 100
10, 33656, Control_c, 8, 7, 94
10, 33662, Note_off_c, 8, 61, 64
10, 33670, Note_off_c, 8, 71, 64
10, 33678, Note_off_c, 8, 76, 64
10, 33694, Note_off_c, 8, 50, 64
10, 33696, Note_on_c, 8, 76, 100
10, 33696, Note_on_c, 8, 62, 100
10, 33696, Note_on_c, 8, 51, 100
10, 33696, Note_on_c, 8, 72, 100
10, 33726, Note_off_c, 8, 76, 64
10, 33744, Note_on_c, 8, 77, 100
10, 33766, Note_off_c, 8, 72, 64
10, 33774, Note_off_c, 8, 77, 64
10, 33790, Control_c, 8, 7, 95
10, 33792, Note_on_c, 8, 77, 100
10, 33792, Note_on_c, 8, 72, 100
10, 33806, Note_off_c, 8, 62, 64
10, 33822, Note_off_c, 8, 77, 64
10, 33824, Note_on_c, 8, 62, 100
10, 33840, Note_on_c, 8, 77, 100
10, 33862, Note_off_c, 8, 72, 64
10, 33870, Note_off_c, 8, 77, 64
10, 33888, Note_on_c, 8, 78, 100
10, 33904, Note_on_c, 8, 73, 100
10, 33918, Note_off_c, 8, 78, 64
10, 33924, Control_c, 8, 7, 96
10, 33934, Note_off_c, 8, 62, 64
10, 33936, Note_on_c, 8, 78, 100
10, 33952, Note_on_c, 8, 63, 100
10, 33966, Note_off_c, 8, 78, 64
10, 33974, Note_off_c, 8, 73, 64
10, 33984, Note_on_c, 8, 78, 100
10, 34000, Note_on_c, 8, 73, 100
10, 34014, Note_off_c, 8, 78, 64
10, 34032, Note_on_c, 8, 79, 100
10, 34059, Control_c, 8, 7, 97
10, 34062, Note_off_c, 8, 63, 64
10, 34062, Note_off_c, 8, 79, 64
10, 34070, Note_off_c, 8, 73, 64
10, 34078, Note_off_c, 8, 51, 64
10, 34080, Note_on_c, 8, 79, 100
10, 34080, Note_on_c, 8, 63, 100
10, 34080, Note_on_c, 8, 52, 100
10, 34080, Note_on_c, 8, 74, 100
10, 34110, Note_off_c, 8, 79, 64
10, 34128, Note_on_c, 8, 79, 100
10, 34150, Note_off_c, 8, 74, 64
10, 34158, Note_off_c, 8, 79, 64
10, 34176, Note_on_c, 8, 79, 100
10, 34176, Note_on_c, 8, 74, 100
10, 34190, Note_off_c, 8, 63, 64
10, 34193, Control_c, 8, 7, 98
10, 34206, Note_off_c, 8, 79, 64
10, 34208, Note_on_c, 8, 64, 100
10, 34224, Note_on_c, 8, 79, 100
10, 34246, Note_off_c, 8, 74, 64
10, 34254, Note_off_c, 8, 79, 64
10, 34272, Note_on_c, 8, 79, 100
10, 34272, Note_on_c, 8, 75, 100
10, 34302, Note_off_c, 8, 79, 64
10, 34318, Note_off_c, 8, 64, 64
10, 34320, Note_on_c, 8, 79, 100
10, 34328, Control_c, 8, 7, 99
10, 34336, Note_on_c, 8, 64, 100
10, 34342, Note_off_c, 8, 75, 64
10, 34350, Note_off_c, 8, 79, 64
10, 34352, Note_on_c, 8, 75, 100
10, 34368, Note_on_c, 8, 78, 100
10, 34398, Note_off_c, 8, 78, 64
10, 34416, Note_on_c, 8, 77, 100
10, 34422, Note_off_c, 8, 75, 64
10, 34446, Note_off_c, 8, 64, 64
10, 34446, Note_off_c, 8, 77, 64
10, 34462, Note_off_c, 8, 52, 64
10, 34462, Control_c, 8, 7, 100
10, 34464, Note_on_c, 8, 52, 100
10, 34464, Note_on_c, 8, 64, 100
10, 34464, Note_on_c, 8, 76, 100
10, 34464, Note_on_c, 8, 88, 100
10, 34574, Note_off_c, 8, 88, 64
10, 34574, Note_off_c, 8, 76, 64
10, 34574, Note_off_c, 8, 64, 64
10, 34574, Note_off_c, 8, 52, 64
10, 61152, Note_on_c, 8, 47, 62
10, 61232, Note_on_c, 8, 48, 62
10, 61344, Note_on_c, 8, 50, 62
10, 61408, Note_on_c, 8, 41, 62
10, 61534, Note_off_c, 8, 47, 64
10, 61536, Note_on_c, 8, 44, 100
10, 61536, Note_on_c, 8, 39, 100
10, 61536, Control_c, 8, 7, 60
10, 61568, Note_on_c, 8, 48, 100
10, 61584, Note_on_c, 8, 51, 100
10, 61614, Note_off_c, 8, 51, 64
10, 61614, Note_off_c, 8, 48, 64
10, 61632, Note_on_c, 8, 51, 100
10, 61638, Note_off_c, 8, 48, 64
10, 61646, Note_off_c, 8, 44, 64
10, 61648, Note_on_c, 8, 45, 100
10, 61648, Note_on_c, 8, 48, 100
10, 61662, Note_off_c, 8, 51, 64
10, 61668, Control_c, 8, 7, 61
10, 61680, Note_on_c, 8, 51, 100
10, 61710, Note_off_c, 8, 51, 64
10, 61718, Note_off_c, 8, 48, 64
10, 61726, Note_off_c, 8, 50, 64
10, 61728, Note_on_c, 8, 52, 100
10, 61744, Note_on_c, 8, 49, 100
10, 61758, Note_off_c, 8, 45, 64
10, 61758, Note_off_c, 8, 52, 64
10, 61776, Note_on_c, 8, 52, 100
10, 61790, Note_off_c, 8, 41, 64
10, 61792, Note_on_c, 8, 45, 100
10, 61803, Control_c, 8, 7, 62
10, 61806, Note_off_c, 8, 52, 64
10, 61814, Note_off_c, 8, 49, 64
10, 61824, Note_on_c, 8, 52, 100
10, 61840, Note_on_c, 8, 49, 100
10, 61854, Note_off_c, 8, 52, 64
10, 61872, Note_on_c, 8, 53, 100
10, 61902, Note_off_c, 8, 45, 64
10, 61902, Note_off_c, 8, 53, 64
10, 61910, Note_off_c, 8, 49, 64
10, 61918, Note_off_c, 8, 39, 64
10, 61920, Note_on_c, 8, 46, 100
10, 61920, Note_on_c, 8, 40, 100
10, 61920, Note_on_c, 8, 50, 100
10, 61920, Note_on_c, 8, 53, 100
10, 61937, Control_c, 8, 7, 63
10, 61950, Note_off_c, 8, 53, 64
10, 61968, Note_on_c, 8, 53, 100
10, 61990, Note_off_c, 8, 50, 64
10, 61998, Note_off_c, 8, 53, 64
10, 62016, Note_on_c, 8, 50, 100
10, 62016, Note_on_c, 8, 54, 100
10, 62030, Note_off_c, 8, 46, 64
10, 62046, Note_off_c, 8, 54, 64
10, 62064, Note_on_c, 8, 46, 100
10, 62064, Note_on_c, 8, 54, 100
10, 62072, Control_c, 8, 7, 64
10, 62086, Note_off_c, 8, 50, 64
10, 62094, Note_off_c, 8, 54, 64
10, 62112, Note_on_c, 8, 54, 100
10, 62128, Note_on_c, 8, 51, 100
10, 62142, Note_off_c, 8, 54, 64
10, 62160, Note_on_c, 8, 55, 100
10, 62174, Note_off_c, 8, 46, 64
10, 62190, Note_off_c, 8, 55, 64
10, 62192, Note_on_c, 8, 47, 100
10, 62198, Note_off_c, 8, 51, 64
10, 62206, Control_c, 8, 7, 65
10, 62208, Note_on_c, 8, 55, 100
10, 62224, Note_on_c, 8, 51, 100
10, 62238, Note_off_c, 8, 55, 64
10, 62256, Note_on_c, 8, 55, 100
10, 62286, Note_off_c, 8, 55, 64
10, 62294, Note_off_c, 8, 51, 64
10, 62302, Note_off_c, 8, 40, 64
10, 62302, Note_off_c, 8, 47, 64
10, 62304, Note_on_c, 8, 41, 100
10, 62304, Note_on_c, 8, 52, 100
10, 62304, Note_on_c, 8, 56, 100
10, 62334, Note_off_c, 8, 56, 64
10, 62336, Note_on_c, 8, 47, 100
10, 62340, Control_c, 8, 7, 66
10, 62352, Note_on_c, 8, 56, 100
10, 62374, Note_off_c, 8, 52, 64
10, 62382, Note_off_c, 8, 56, 64
10, 62400, Note_on_c, 8, 52, 100
10, 62400, Note_on_c, 8, 56, 100
10, 62430, Note_off_c, 8, 56, 64
10, 62446, Note_off_c, 8, 47, 64
10, 62448, Note_on_c, 8, 57, 100
10, 62464, Note_on_c, 8, 48, 100
10, 62470, Note_off_c, 8, 52, 64
10, 62475, Control_c, 8, 7, 67
10, 62478, Note_off_c, 8, 57, 64
10, 62496, Note_on_c, 8, 57, 100
10, 62512, Note_on_c, 8, 53, 100
10, 62526, Note_off_c, 8, 57, 64
10, 62544, Note_on_c, 8, 57, 100
10, 62574, Note_off_c, 8, 48, 64
10, 62574, Note_off_c, 8, 57, 64
10, 62582, Note_off_c, 8, 53, 64
10, 62592, Note_on_c, 8, 48, 100
10, 62592, Note_on_c, 8, 53, 100
10, 62592, Note_on_c, 8, 58, 100
10, 62609, Control_c, 8, 7, 68
10, 62622, Note_off_c, 8, 58, 64
10, 62640, Note_on_c, 8, 58, 100
10, 62662, Note_off_c, 8, 53, 64
10, 62670, Note_off_c, 8, 58, 64
10, 62686, Note_off_c, 8, 41, 64
10, 62688, Note_on_c, 8, 42, 100
10, 62688, Note_on_c, 8, 54, 100
10, 62688, Note_on_c, 8, 58, 100
10, 62702, Note_off_c, 8, 48, 64
10, 62718, Note_off_c, 8, 58, 64
10, 62720, Note_on_c, 8, 49, 100
10, 62736, Note_on_c, 8, 59, 100
10, 62744, Control_c, 8, 7, 69
10, 62758, Note_off_c, 8, 54, 64
10, 62766, Note_off_c, 8, 59, 64
10, 62784, Note_on_c, 8, 54, 100
10, 62784, Note_on_c, 8, 59, 100
10, 62814, Note_off_c, 8, 59, 64
10, 62830, Note_off_c, 8, 49, 64
10, 62832, Note_on_c, 8, 59, 100
10, 62848, Note_on_c, 8, 49, 100
10, 62854, Note_off_c, 8, 54, 64
10, 62862, Note_off_c, 8, 59, 64
10, 62878, Control_c, 8, 7, 70
10, 62880, Note_on_c, 8, 55, 100
10, 62880, Note_on_c, 8, 60, 100
10, 62910, Note_off_c, 8, 60, 64
10, 62928, Note_on_c, 8, 60, 100
10, 62950, Note_off_c, 8, 55, 64
10, 62958, Note_off_c, 8, 49, 64
10, 62958, Note_off_c, 8, 60, 64
10, 62976, Note_on_c, 8, 50, 100
10, 62976, Note_on_c, 8, 55, 100
10, 62976, Note_on_c, 8, 60, 100
10, 63006, Note_off_c, 8, 60, 64
10, 63012, Control_c, 8, 7, 71
10, 63024, Note_on_c, 8, 61, 100
10, 63046, Note_off_c, 8, 55, 64
10, 63054, Note_off_c, 8, 61, 64
10, 63070, Note_off_c, 8, 42, 64
10, 63072, Note_on_c, 8, 43, 100
10, 63072, Note_on_c, 8, 56, 100
10, 63072, Note_on_c, 8, 61, 100
10, 63086, Note_off_c, 8, 50, 64
10, 63102, Note_off_c, 8, 61, 64
10, 63104, Note_on_c, 8, 50, 100
10, 63120, Note_on_c, 8, 61, 100
10, 63142, Note_off_c, 8, 56, 64
10, 63147, Control_c, 8, 7, 72
10, 63150, Note_off_c, 8, 61, 64
10, 63168, Note_on_c, 8, 56, 100
10, 63168, Note_on_c, 8, 62, 100
10, 63198, Note_off_c, 8, 62, 64
10, 63214, Note_off_c, 8, 50, 64
10, 63216, Note_on_c, 8, 62, 100
10, 63232, Note_on_c, 8, 51, 100
10, 63238, Note_off_c, 8, 56, 64
10, 63246, Note_off_c, 8, 62, 64
10, 63264, Note_on_c, 8, 57, 100
10, 63264, Note_on_c, 8, 62, 100
10, 63281, Control_c, 8, 7, 73
10, 63294, Note_off_c, 8, 62, 64
10, 63312, Note_on_c, 8, 63, 100
10, 63334, Note_off_c, 8, 57, 64
10, 63342, Note_off_c, 8, 51, 64
10, 63342, Note_off_c, 8, 63, 64
10, 63360, Note_on_c, 8, 51, 100
10, 63360, Note_on_c, 8, 57, 100
10, 63360, Note_on_c, 8, 63, 100
10, 63390, Note_off_c, 8, 63, 64
10, 63408, Note_on_c, 8, 63, 100
10, 63416, Control_c, 8, 7, 74
10, 63430, Note_off_c, 8, 57, 64
10, 63438, Note_off_c, 8, 63, 64
10, 63454, Note_off_c, 8, 43, 64
10, 63456, Note_on_c, 8, 44, 100
10, 63456, Note_on_c, 8, 58, 100
10, 63456, Note_on_c, 8, 64, 100
10, 63470, Note_off_c, 8, 51, 64
10, 63486, Note_off_c, 8, 64, 64
10, 63488, Note_on_c, 8, 52, 100
10, 63504, Note_on_c, 8, 64, 100
10, 63526, Note_off_c, 8, 58, 64
10, 63534, Note_off_c, 8, 64, 64
10, 63550, Control_c, 8, 7, 75
10, 63552, Note_on_c, 8, 58, 100
10, 63552, Note_on_c, 8, 64, 100
10, 63582, Note_off_c, 8, 64, 64
10, 63598, Note_off_c, 8, 52, 64
10, 63600, Note_on_c, 8, 65, 100
10, 63616, Note_on_c, 8, 52, 100
10, 63622, Note_off_c, 8, 58, 64
10, 63630, Note_off_c, 8, 65, 64
10, 63648, Note_on_c, 8, 59, 100
10, 63648, Note_on_c, 8, 65, 100
10, 63678, Note_off_c, 8, 65, 64
10, 63684, Control_c, 8, 7, 76
10, 63696, Note_on_c, 8, 65, 100
10, 63718, Note_off_c, 8, 59, 64
10, 63726, Note_off_c, 8, 52, 64
10, 63726, Note_off_c, 8, 65, 64
10, 63744, Note_on_c, 8, 59, 100
10, 63744, Note_on_c, 8, 66, 100
10, 63760, Note_on_c, 8, 53, 100
10, 63774, Note_off_c, 8, 66, 64
10, 63792, Note_on_c, 8, 66, 100
10, 63814, Note_off_c, 8, 59, 64
10, 63819, Control_c, 8, 7, 77
10, 63822, Note_off_c, 8, 66, 64
10, 63838, Note_off_c, 8, 44, 64
10, 63840, Note_on_c, 8, 45, 100
10, 63840, Note_on_c, 8, 60, 100
10, 63840, Note_on_c, 8, 66, 100
10, 63870, Note_off_c, 8, 66, 64
10, 63870, Note_off_c, 8, 53, 64
10, 63888, Note_on_c, 8, 53, 100
10, 63888, Note_on_c, 8, 67, 100
10, 63910, Note_off_c, 8, 60, 64
10, 63918, Note_off_c, 8, 67, 64
10, 63936, Note_on_c, 8, 60, 100
10, 63936, Note_on_c, 8, 67, 100
10, 63953, Control_c, 8, 7, 78
10, 63966, Note_off_c, 8, 67, 64
10, 63984, Note_on_c, 8, 67, 100
10, 63998, Note_off_c, 8, 53, 64
10, 64006, Note_off_c, 8, 60, 64
10, 64014, Note_off_c, 8, 67, 64
10, 64016, Note_on_c, 8, 54, 100
10, 64032, Note_on_c, 8, 61, 100
10, 64032, Note_on_c, 8, 68, 100
10, 64062, Note_off_c, 8, 68, 64
10, 64080, Note_on_c, 8, 68, 100
10, 64088, Control_c, 8, 7, 79
10, 64102, Note_off_c, 8, 61, 64
10, 64110, Note_off_c, 8, 68, 64
10, 64126, Note_off_c, 8, 54, 64
10, 64128, Note_on_c, 8, 61, 100
10, 64128, Note_on_c, 8, 68, 100
10, 64144, Note_on_c, 8, 54, 100
10, 64158, Note_off_c, 8, 68, 64
10, 64176, Note_on_c, 8, 69, 100
10, 64198, Note_off_c, 8, 61, 64
10, 64206, Note_off_c, 8, 69, 64
10, 64222, Note_off_c, 8, 45, 64
10, 64222, Control_c, 8, 7, 80
10, 64224, Note_on_c, 8, 46, 100
10, 64224, Note_on_c, 8, 62, 100
10, 64224, Note_on_c, 8, 69, 100
10, 64254, Note_off_c, 8, 69, 64
10, 64254, Note_off_c, 8, 54, 64
10, 64272, Note_on_c, 8, 55, 100
10, 64272, Note_on_c, 8, 69, 100
10, 64294, Note_off_c, 8, 62, 64
10, 64302, Note_off_c, 8, 69, 64
10, 64320, Note_on_c, 8, 62, 100
10, 64320, Note_on_c, 8, 70, 100
10, 64350, Note_off_c, 8, 70, 64
10, 64356, Control_c, 8, 7, 81
10, 64368, Note_on_c, 8, 70, 100
10, 64382, Note_off_c, 8, 55, 64
10, 64390, Note_off_c, 8, 62, 64
10, 64398, Note_off_c, 8, 70, 64
10, 64400, Note_on_c, 8, 55, 100
10, 64416, Note_on_c, 8, 70, 100
10, 64432, Note_on_c, 8, 63, 100
10, 64446, Note_off_c, 8, 70, 64
10, 64464, Note_on_c, 8, 71, 100
10, 64491, Control_c, 8, 7, 82
10, 64494, Note_off_c, 8, 71, 64
10, 64502, Note_off_c, 8, 63, 64
10, 64510, Note_off_c, 8, 55, 64
10, 64512, Note_on_c, 8, 71, 100
10, 64528, Note_on_c, 8, 63, 100
10, 64542, Note_off_c, 8, 71, 64
10, 64544, Note_on_c, 8, 56, 100
10, 64560, Note_on_c, 8, 71, 100
10, 64590, Note_off_c, 8, 71, 64
10, 64598, Note_off_c, 8, 63, 64
10, 64606, Note_off_c, 8, 46, 64
10, 64608, Note_on_c, 8, 47, 100
10, 64608, Note_on_c, 8, 64, 100
10, 64608, Note_on_c, 8, 72, 100
10, 64625, Control_c, 8, 7, 83
10, 64638, Note_off_c, 8, 72, 64
10, 64654, Note_off_c, 8, 56, 64
10, 64656, Note_on_c, 8, 72, 100
10, 64678, Note_off_c, 8, 64, 64
10, 64686, Note_off_c, 8, 72, 64
10, 64688, Note_on_c, 8, 56, 100
10, 64704, Note_on_c, 8, 64, 100
10, 64704, Note_on_c, 8, 72, 100
10, 64734, Note_off_c, 8, 72, 64
10, 64752, Note_on_c, 8, 73, 100
10, 64760, Control_c, 8, 7, 84
10, 64774, Note_off_c, 8, 64, 64
10, 64782, Note_off_c, 8, 73, 64
10, 64798, Note_off_c, 8, 56, 64
10, 64800, Note_on_c, 8, 65, 100
10, 64800, Note_on_c, 8, 73, 100
10, 64830, Note_off_c, 8, 73, 64
10, 64832, Note_on_c, 8, 57, 100
10, 64848, Note_on_c, 8, 73, 100
10, 64870, Note_off_c, 8, 65, 64
10, 64878, Note_off_c, 8, 73, 64
10, 64894, Control_c, 8, 7, 85
10, 64896, Note_on_c, 8, 74, 100
10, 64912, Note_on_c, 8, 65, 100
10, 64926, Note_off_c, 8, 74, 64
10, 64942, Note_off_c, 8, 57, 64
10, 64944, Note_on_c, 8, 74, 100
10, 64960, Note_on_c, 8, 57, 100
10, 64974, Note_off_c, 8, 74, 64
10, 64982, Note_off_c, 8, 65, 64
10, 64990, Note_off_c, 8, 47, 64
10, 64992, Note_on_c, 8, 48, 100
10, 64992, Note_on_c, 8, 66, 100
10, 64992, Note_on_c, 8, 74, 100
10, 65022, Note_off_c, 8, 74, 64
10, 65028, Control_c, 8, 7, 86
10, 65040, Note_on_c, 8, 69, 100
10, 65062, Note_off_c, 8, 66, 64
10, 65070, Note_off_c, 8, 57, 64
10, 65070, Note_off_c, 8, 69, 64
10, 65088, Note_on_c, 8, 69, 100
10, 65088, Note_on_c, 8, 58, 100
10, 65104, Note_on_c, 8, 66, 100
10, 65118, Note_off_c, 8, 69, 64
10, 65136, Note_on_c, 8, 69, 100
10, 65163, Control_c, 8, 7, 87
10, 65166, Note_off_c, 8, 69, 64
10, 65174, Note_off_c, 8, 66, 64
10, 65184, Note_on_c, 8, 70, 100
10, 65184, Note_on_c, 8, 67, 100
10, 65198, Note_off_c, 8, 58, 64
10, 65214, Note_off_c, 8, 70, 64
10, 65232, Note_on_c, 8, 70, 100
10, 65232, Note_on_c, 8, 58, 100
10, 65254, Note_off_c, 8, 67, 64
10, 65262, Note_off_c, 8, 70, 64
10, 65280, Note_on_c, 8, 70, 100
10, 65280, Note_on_c, 8, 67, 100
10, 65297, Control_c, 8, 7, 88
10, 65310, Note_off_c, 8, 70, 64
10, 65328, Note_on_c, 8, 71, 100
10, 65342, Note_off_c, 8, 58, 64
10, 65350, Note_off_c, 8, 67, 64
10, 65358, Note_off_c, 8, 71, 64
10, 65360, Note_on_c, 8, 59, 100
10, 65374, Note_off_c, 8, 48, 64
10, 65376, Note_on_c, 8, 71, 100
10, 65376, Note_on_c, 8, 49, 100
10, 65376, Note_on_c, 8, 68, 100
10, 65406, Note_off_c, 8, 71, 64
10, 65424, Note_on_c, 8, 71, 100
10, 65432, Control_c, 8, 7, 89
10, 65446, Note_off_c, 8, 68, 64
10, 65454, Note_off_c, 8, 71, 64
10, 65470, Note_off_c, 8, 59, 64
10, 65472, Note_on_c, 8, 72, 100
10, 65472, Note_on_c, 8, 68, 100
10, 65488, Note_on_c, 8, 59, 100
10, 65502, Note_off_c, 8, 72, 64
10, 65520, Note_on_c, 8, 72, 100
10, 65542, Note_off_c, 8, 68, 64
10, 65550, Note_off_c, 8, 72, 64
10, 65566, Control_c, 8, 7, 90
10, 65568, Note_on_c, 8, 72, 100
10, 65568, Note_on_c, 8, 69, 100
10, 65598, Note_off_c, 8, 72, 64
10, 65598, Note_off_c, 8, 59, 64
10, 65616, Note_on_c, 8, 73, 100
10, 65616, Note_on_c, 8, 60, 100
10, 65638, Note_off_c, 8, 69, 64
10, 65646, Note_off_c, 8, 73, 64
10, 65664, Note_on_c, 8, 73, 100
10, 65664, Note_on_c, 8, 69, 100
10, 65694, Note_off_c, 8, 73, 64
10, 65700, Control_c, 8, 7, 91
10, 65712, Note_on_c, 8, 73, 100
10, 65726, Note_off_c, 8, 60, 64
10, 65734, Note_off_c, 8, 69, 64
10, 65742, Note_off_c, 8, 73, 64
10, 65744, Note_on_c, 8, 60, 100
10, 65758, Note_off_c, 8, 49, 64
10, 65760, Note_on_c, 8, 74, 100
10, 65760, Note_on_c, 8, 50, 100
10, 65760, Note_on_c, 8, 70, 100
10, 65790, Note_off_c, 8, 74, 64
10, 65808, Note_on_c, 8, 74, 100
10, 65830, Note_off_c, 8, 70, 64
10, 65835, Control_c, 8, 7, 92
10, 65838, Note_off_c, 8, 74, 64
10, 65854, Note_off_c, 8, 60, 64
10, 65856, Note_on_c, 8, 74, 100
10, 65872, Note_on_c, 8, 61, 100
10, 65872, Note_on_c, 8, 70, 100
10, 65886, Note_off_c, 8, 74, 64
10, 65904, Note_on_c, 8, 75, 100
10, 65934, Note_off_c, 8, 75, 64
10, 65942, Note_off_c, 8, 70, 64
10, 65952, Note_on_c, 8, 75, 100
10, 65952, Note_on_c, 8, 71, 100
10, 65969, Control_c, 8, 7, 93
10, 65982, Note_off_c, 8, 61, 64
10, 65982, Note_off_c, 8, 75, 64
10, 66000, Note_on_c, 8, 75, 100
10, 66000, Note_on_c, 8, 61, 100
10, 66022, Note_off_c, 8, 71, 64
10, 66030, Note_off_c, 8, 75, 64
10, 66048, Note_on_c, 8, 76, 100
10, 66048, Note_on_c, 8, 71, 100
10, 66078, Note_off_c, 8, 76, 64
10, 66096, Note_on_c, 8, 76, 100
10, 66104, Control_c, 8, 7, 94
10, 66110, Note_off_c, 8, 61, 64
10, 66118, Note_off_c, 8, 71, 64
10, 66126, Note_off_c, 8, 76, 64
10, 66142, Note_off_c, 8, 50, 64
10, 66144, Note_on_c, 8, 76, 100
10, 66144, Note_on_c, 8, 62, 100
10, 66144, Note_on_c, 8, 51, 100
10, 66144, Note_on_c, 8, 72, 100
10, 66174, Note_off_c, 8, 76, 64
10, 66192, Note_on_c, 8, 77, 100
10, 66214, Note_off_c, 8, 72, 64
10, 66222, Note_off_c, 8, 77, 64
10, 66238, Control_c, 8, 7, 95
10, 66240, Note_on_c, 8, 77, 100
10, 66240, Note_on_c, 8, 72, 100
10, 66254, Note_off_c, 8, 62, 64
10, 66270, Note_off_c, 8, 77, 64
10, 66272, Note_on_c, 8, 62, 100
10, 66288, Note_on_c, 8, 77, 100
10, 66310, Note_off_c, 8, 72, 64
10, 66318, Note_off_c, 8, 77, 64
10, 66336, Note_on_c, 8, 78, 100
10, 66352, Note_on_c, 8, 73, 100
10, 66366, Note_off_c, 8, 78, 64
10, 66372, Control_c, 8, 7, 96
10, 66382, Note_off_c, 8, 62, 64
10, 66384, Note_on_c, 8, 78, 100
10, 66400, Note_on_c, 8, 63, 100
10, 66414, Note_off_c, 8, 78, 64
10, 66422, Note_off_c, 8, 73, 64
10, 66432, Note_on_c, 8, 78, 100
10, 66448, Note_on_c, 8, 73, 100
10, 66462, Note_off_c, 8, 78, 64
10, 66480, Note_on_c, 8, 79, 100
10, 66507, Control_c, 8, 7, 97
10, 66510, Note_off_c, 8, 63, 64
10, 66510, Note_off_c, 8, 79, 64
10, 66518, Note_off_c, 8, 73, 64
10, 66526, Note_off_c, 8, 51, 64
10, 66528, Note_on_c, 8, 79, 100
10, 66528, Note_on_c, 8, 63, 100
10, 66528, Note_on_c, 8, 52, 100
10, 66528, Note_on_c, 8, 74, 100
10, 66558, Note_off_c, 8, 79, 64
10, 66576, Note_on_c, 8, 79, 100
10, 66598, Note_off_c, 8, 74, 64
10, 66606, Note_off_c, 8, 79, 64
10, 66624, Note_on_c, 8, 79, 100
10, 66624, Note_on_c, 8, 74, 100
10, 66638, Note_off_c, 8, 63, 64
10, 66641, Control_c, 8, 7, 98
10, 66654, Note_off_c, 8, 79, 64
10, 66656, Note_on_c, 8, 64, 100
10, 66672, Note_on_c, 8, 79, 100
10, 66694, Note_off_c, 8, 74, 64
10, 66702, Note_off_c, 8, 79, 64
10, 66720, Note_on_c, 8, 79, 100
10, 66720, Note_on_c, 8, 75, 100
10, 66750, Note_off_c, 8, 79, 64
10, 66766, Note_off_c, 8, 64, 64
10, 66768, Note_on_c, 8, 79, 100
10, 66776, Control_c, 8, 7, 99
10, 66784, Note_on_c, 8, 64, 100
10, 66790, Note_off_c, 8, 75, 64
10, 66798, Note_off_c, 8, 79, 64
10, 66800, Note_on_c, 8, 75, 100
10, 66816, Note_on_c, 8, 78, 100
10, 66846, Note_off_c, 8, 78, 64
10, 66864, Note_on_c, 8, 77, 100
10, 66870, Note_off_c, 8, 75, 64
10, 66894, Note_off_c, 8, 64, 64
10, 66894, Note_off_c, 8, 77, 64
10, 66910, Note_off_c, 8, 52, 64
10, 66910, Control_c, 8, 7, 100
10, 66912, Note_on_c, 8, 88, 100
10, 66912, Note_on_c, 8, 52, 100
10, 66912, Note_on_c, 8, 64, 100
10, 66912, Note_on_c, 8, 76, 100
10, 66912, Note_on_c, 8, 40, 100
10, 66982, Note_off_c, 8, 40, 64
10, 67022, Note_off_c, 8, 76, 64
10, 67022, Note_off_c, 8, 64, 64
10, 67022, Note_off_c, 8, 52, 64
10, 67022, Note_off_c, 8, 88, 64
10, 71520, Control_c, 8, 7, 100
10, 71520, End_track
11, 0, Start_track
11, 0, Title_t, "Percussion"
11, 0, Channel_prefix, 9
11, 0, Control_c, 9, 7, 90
11, 0, Program_c, 9, 0
11, 12256, Note_on_c, 9, 38, 100
11, 12286, Note_off_c, 9, 38, 64
11, 12288, Note_on_c, 9, 38, 100
11, 12382, Note_off_c, 9, 38, 64
11, 12384, Note_on_c, 9, 36, 100
11, 12478, Note_off_c, 9, 36, 64
11, 12544, Note_on_c, 9, 38, 100
11, 12574, Note_off_c, 9, 38, 64
11, 12576, Note_on_c, 9, 36, 100
11, 12670, Note_off_c, 9, 36, 64
11, 12736, Note_on_c, 9, 38, 100
11, 12766, Note_off_c, 9, 38, 64
11, 12768, Note_on_c, 9, 45, 100
11, 12798, Note_off_c, 9, 45, 64
11, 12800, Note_on_c, 9, 45, 100
11, 12830, Note_off_c, 9, 45, 64
11, 12832, Note_on_c, 9, 45, 100
11, 12862, Note_off_c, 9, 45, 64
11, 12864, Note_on_c, 9, 43, 100
11, 12958, Note_off_c, 9, 43, 64
11, 12960, Note_on_c, 9, 36, 100
11, 12960, Note_on_c, 9, 49, 100
11, 13054, Note_off_c, 9, 49, 64
11, 13054, Note_off_c, 9, 36, 64
11, 14080, Note_on_c, 9, 38, 100
11, 14110, Note_off_c, 9, 38, 64
11, 14112, Note_on_c, 9, 38, 100
11, 14206, Note_off_c, 9, 38, 64
11, 14208, Note_on_c, 9, 36, 100
11, 14302, Note_off_c, 9, 36, 64
11, 14368, Note_on_c, 9, 36, 100
11, 14398, Note_off_c, 9, 36, 64
11, 14400, Note_on_c, 9, 45, 100
11, 14430, Note_off_c, 9, 45, 64
11, 14432, Note_on_c, 9, 45, 100
11, 14462, Note_off_c, 9, 45, 64
11, 14464, Note_on_c, 9, 45, 100
11, 14494, Note_off_c, 9, 45, 64
11, 14496, Note_on_c, 9, 36, 100
11, 14496, Note_on_c, 9, 49, 100
11, 14590, Note_off_c, 9, 49, 64
11, 14590, Note_off_c, 9, 36, 64
11, 15424, Note_on_c, 9, 38, 100
11, 15454, Note_off_c, 9, 38, 64
11, 15456, Note_on_c, 9, 38, 100
11, 15550, Note_off_c, 9, 38, 64
11, 15552, Note_on_c, 9, 36, 100
11, 15646, Note_off_c, 9, 36, 64
11, 15712, Note_on_c, 9, 38, 100
11, 15742, Note_off_c, 9, 38, 64
11, 15744, Note_on_c, 9, 36, 100
11, 15806, Note_off_c, 9, 36, 64
11, 15808, Note_on_c, 9, 38, 100
11, 15838, Note_off_c, 9, 38, 64
11, 15840, Note_on_c, 9, 43, 100
11, 15870, Note_off_c, 9, 43, 64
11, 15872, Note_on_c, 9, 43, 100
11, 15902, Note_off_c, 9, 43, 64
11, 15904, Note_on_c, 9, 43, 100
11, 15934, Note_off_c, 9, 43, 64
11, 15936, Note_on_c, 9, 38, 100
11, 16030, Note_off_c, 9, 38, 64
11, 16032, Note_on_c, 9, 36, 100
11, 16032, Note_on_c, 9, 49, 100
11, 16126, Note_off_c, 9, 49, 64
11, 16126, Note_off_c, 9, 36, 64
11, 16224, Note_on_c, 9, 38, 100
11, 16318, Note_off_c, 9, 38, 64
11, 16608, Note_on_c, 9, 43, 100
11, 16638, Note_off_c, 9, 43, 64
11, 16640, Note_on_c, 9, 43, 100
11, 16670, Note_off_c, 9, 43, 64
11, 16672, Note_on_c, 9, 38, 100
11, 16702, Note_off_c, 9, 38, 64
11, 16704, Note_on_c, 9, 36, 100
11, 16798, Note_off_c, 9, 36, 64
11, 16800, Note_on_c, 9, 36, 100
11, 16800, Note_on_c, 9, 49, 100
11, 16894, Note_off_c, 9, 49, 64
11, 16894, Note_off_c, 9, 36, 64
11, 16992, Note_on_c, 9, 38, 100
11, 17086, Note_off_c, 9, 38, 64
11, 17152, Note_on_c, 9, 38, 100
11, 17182, Note_off_c, 9, 38, 64
11, 17184, Note_on_c, 9, 36, 100
11, 17278, Note_off_c, 9, 36, 64
11, 17280, Note_on_c, 9, 36, 100
11, 17374, Note_off_c, 9, 36, 64
11, 17440, Note_on_c, 9, 38, 100
11, 17470, Note_off_c, 9, 38, 64
11, 17472, Note_on_c, 9, 36, 100
11, 17566, Note_off_c, 9, 36, 64
11, 17568, Note_on_c, 9, 36, 100
11, 17662, Note_off_c, 9, 36, 64
11, 17664, Note_on_c, 9, 36, 100
11, 17758, Note_off_c, 9, 36, 64
11, 17760, Note_on_c, 9, 38, 100
11, 17854, Note_off_c, 9, 38, 64
11, 17856, Note_on_c, 9, 36, 100
11, 17950, Note_off_c, 9, 36, 64
11, 17952, Note_on_c, 9, 36, 100
11, 18046, Note_off_c, 9, 36, 64
11, 18048, Note_on_c, 9, 41, 100
11, 18078, Note_off_c, 9, 41, 64
11, 18080, Note_on_c, 9, 41, 100
11, 18110, Note_off_c, 9, 41, 64
11, 18112, Note_on_c, 9, 41, 100
11, 18142, Note_off_c, 9, 41, 64
11, 18144, Note_on_c, 9, 41, 100
11, 18238, Note_off_c, 9, 41, 64
11, 18240, Note_on_c, 9, 38, 100
11, 18240, Note_on_c, 9, 41, 100
11, 18334, Note_off_c, 9, 41, 64
11, 18334, Note_off_c, 9, 38, 64
11, 18336, Note_on_c, 9, 36, 100
11, 18336, Note_on_c, 9, 49, 100
11, 18430, Note_off_c, 9, 49, 64
11, 18430, Note_off_c, 9, 36, 64
11, 18528, Note_on_c, 9, 38, 100
11, 18622, Note_off_c, 9, 38, 64
11, 18720, Note_on_c, 9, 36, 100
11, 18814, Note_off_c, 9, 36, 64
11, 18816, Note_on_c, 9, 36, 100
11, 18910, Note_off_c, 9, 36, 64
11, 18912, Note_on_c, 9, 38, 100
11, 19006, Note_off_c, 9, 38, 64
11, 19104, Note_on_c, 9, 36, 100
11, 19198, Note_off_c, 9, 36, 64
11, 19296, Note_on_c, 9, 38, 100
11, 19390, Note_off_c, 9, 38, 64
11, 19456, Note_on_c, 9, 38, 100
11, 19486, Note_off_c, 9, 38, 64
11, 19488, Note_on_c, 9, 38, 100
11, 19582, Note_off_c, 9, 38, 64
11, 19584, Note_on_c, 9, 36, 100
11, 19678, Note_off_c, 9, 36, 64
11, 19744, Note_on_c, 9, 45, 100
11, 19774, Note_off_c, 9, 45, 64
11, 19776, Note_on_c, 9, 43, 100
11, 19870, Note_off_c, 9, 43, 64
11, 19872, Note_on_c, 9, 36, 100
11, 19872, Note_on_c, 9, 49, 100
11, 19966, Note_off_c, 9, 49, 64
11, 19966, Note_off_c, 9, 36, 64
11, 20064, Note_on_c, 9, 38, 100
11, 20158, Note_off_c, 9, 38, 64
11, 20256, Note_on_c, 9, 36, 100
11, 20350, Note_off_c, 9, 36, 64
11, 20448, Note_on_c, 9, 38, 100
11, 20542, Note_off_c, 9, 38, 64
11, 20640, Note_on_c, 9, 36, 100
11, 20734, Note_off_c, 9, 36, 64
11, 20832, Note_on_c, 9, 38, 100
11, 20926, Note_off_c, 9, 38, 64
11, 20992, Note_on_c, 9, 38, 100
11, 21022, Note_off_c, 9, 38, 64
11, 21024, Note_on_c, 9, 38, 100
11, 21118, Note_off_c, 9, 38, 64
11, 21120, Note_on_c, 9, 36, 100
11, 21214, Note_off_c, 9, 36, 64
11, 21280, Note_on_c, 9, 45, 100
11, 21310, Note_off_c, 9, 45, 64
11, 21312, Note_on_c, 9, 43, 100
11, 21406, Note_off_c, 9, 43, 64
11, 21408, Note_on_c, 9, 36, 100
11, 21408, Note_on_c, 9, 49, 100
11, 21502, Note_off_c, 9, 49, 64
11, 21502, Note_off_c, 9, 36, 64
11, 21600, Note_on_c, 9, 38, 100
11, 21694, Note_off_c, 9, 38, 64
11, 21792, Note_on_c, 9, 36, 100
11, 21886, Note_off_c, 9, 36, 64
11, 21984, Note_on_c, 9, 38, 100
11, 22078, Note_off_c, 9, 38, 64
11, 22176, Note_on_c, 9, 36, 100
11, 22270, Note_off_c, 9, 36, 64
11, 22368, Note_on_c, 9, 38, 100
11, 22462, Note_off_c, 9, 38, 64
11, 22560, Note_on_c, 9, 36, 100
11, 22590, Note_off_c, 9, 36, 64
11, 22592, Note_on_c, 9, 36, 100
11, 22622, Note_off_c, 9, 36, 64
11, 22624, Note_on_c, 9, 38, 100
11, 22654, Note_off_c, 9, 38, 64
11, 22656, Note_on_c, 9, 36, 100
11, 22750, Note_off_c, 9, 36, 64
11, 22752, Note_on_c, 9, 45, 100
11, 22782, Note_off_c, 9, 45, 64
11, 22784, Note_on_c, 9, 45, 100
11, 22814, Note_off_c, 9, 45, 64
11, 22816, Note_on_c, 9, 43, 100
11, 22846, Note_off_c, 9, 43, 64
11, 22848, Note_on_c, 9, 45, 100
11, 22942, Note_off_c, 9, 45, 64
11, 22944, Note_on_c, 9, 36, 100
11, 22944, Note_on_c, 9, 49, 100
11, 23038, Note_off_c, 9, 49, 64
11, 23038, Note_off_c, 9, 36, 64
11, 23136, Note_on_c, 9, 38, 100
11, 23230, Note_off_c, 9, 38, 64
11, 23328, Note_on_c, 9, 36, 100
11, 23422, Note_off_c, 9, 36, 64
11, 23584, Note_on_c, 9, 38, 100
11, 23598, Note_off_c, 9, 38, 64
11, 23600, Note_on_c, 9, 38, 100
11, 23614, Note_off_c, 9, 38, 64
11, 23616, Note_on_c, 9, 38, 100
11, 23710, Note_off_c, 9, 38, 64
11, 23712, Note_on_c, 9, 36, 100
11, 23712, Note_on_c, 9, 49, 100
11, 23806, Note_off_c, 9, 49, 64
11, 23806, Note_off_c, 9, 36, 64
11, 23904, Note_on_c, 9, 47, 100
11, 23998, Note_off_c, 9, 47, 64
11, 24064, Note_on_c, 9, 45, 100
11, 24094, Note_off_c, 9, 45, 64
11, 24096, Note_on_c, 9, 45, 100
11, 24190, Note_off_c, 9, 45, 64
11, 24192, Note_on_c, 9, 45, 100
11, 24286, Note_off_c, 9, 45, 64
11, 24288, Note_on_c, 9, 43, 100
11, 24318, Note_off_c, 9, 43, 64
11, 24320, Note_on_c, 9, 43, 100
11, 24350, Note_off_c, 9, 43, 64
11, 24352, Note_on_c, 9, 43, 100
11, 24382, Note_off_c, 9, 43, 64
11, 24384, Note_on_c, 9, 43, 100
11, 24478, Note_off_c, 9, 43, 64
11, 24480, Note_on_c, 9, 36, 100
11, 24480, Note_on_c, 9, 49, 100
11, 24574, Note_off_c, 9, 49, 64
11, 24574, Note_off_c, 9, 36, 64
11, 24672, Note_on_c, 9, 38, 100
11, 24766, Note_off_c, 9, 38, 64
11, 24768, Note_on_c, 9, 36, 100
11, 24862, Note_off_c, 9, 36, 64
11, 24864, Note_on_c, 9, 36, 100
11, 24958, Note_off_c, 9, 36, 64
11, 24960, Note_on_c, 9, 36, 100
11, 25054, Note_off_c, 9, 36, 64
11, 25056, Note_on_c, 9, 36, 100
11, 25086, Note_off_c, 9, 36, 64
11, 25088, Note_on_c, 9, 36, 100
11, 25118, Note_off_c, 9, 36, 64
11, 25120, Note_on_c, 9, 36, 100
11, 25150, Note_off_c, 9, 36, 64
11, 25152, Note_on_c, 9, 36, 100
11, 25246, Note_off_c, 9, 36, 64
11, 25248, Note_on_c, 9, 36, 100
11, 25342, Note_off_c, 9, 36, 64
11, 25344, Note_on_c, 9, 36, 100
11, 25438, Note_off_c, 9, 36, 64
11, 25440, Note_on_c, 9, 38, 100
11, 25534, Note_off_c, 9, 38, 64
11, 25536, Note_on_c, 9, 36, 100
11, 25630, Note_off_c, 9, 36, 64
11, 25632, Note_on_c, 9, 36, 100
11, 25726, Note_off_c, 9, 36, 64
11, 25728, Note_on_c, 9, 36, 100
11, 25822, Note_off_c, 9, 36, 64
11, 25824, Note_on_c, 9, 38, 100
11, 25918, Note_off_c, 9, 38, 64
11, 25920, Note_on_c, 9, 36, 100
11, 26014, Note_off_c, 9, 36, 64
11, 26016, Note_on_c, 9, 36, 100
11, 26110, Note_off_c, 9, 36, 64
11, 26112, Note_on_c, 9, 36, 100
11, 26206, Note_off_c, 9, 36, 64
11, 26208, Note_on_c, 9, 38, 100
11, 26302, Note_off_c, 9, 38, 64
11, 26304, Note_on_c, 9, 36, 100
11, 26398, Note_off_c, 9, 36, 64
11, 26400, Note_on_c, 9, 36, 100
11, 26494, Note_off_c, 9, 36, 64
11, 26496, Note_on_c, 9, 36, 100
11, 26590, Note_off_c, 9, 36, 64
11, 26592, Note_on_c, 9, 38, 100
11, 26686, Note_off_c, 9, 38, 64
11, 26688, Note_on_c, 9, 36, 100
11, 26782, Note_off_c, 9, 36, 64
11, 26784, Note_on_c, 9, 36, 100
11, 26878, Note_off_c, 9, 36, 64
11, 26976, Note_on_c, 9, 42, 100
11, 27070, Note_off_c, 9, 42, 64
11, 27168, Note_on_c, 9, 42, 100
11, 27262, Note_off_c, 9, 42, 64
11, 27360, Note_on_c, 9, 42, 100
11, 27454, Note_off_c, 9, 42, 64
11, 27552, Note_on_c, 9, 42, 100
11, 27646, Note_off_c, 9, 42, 64
11, 27744, Note_on_c, 9, 42, 100
11, 27838, Note_off_c, 9, 42, 64
11, 27936, Note_on_c, 9, 46, 100
11, 27936, Note_on_c, 9, 36, 100
11, 28030, Note_off_c, 9, 36, 64
11, 28030, Note_off_c, 9, 46, 64
11, 28128, Note_on_c, 9, 42, 100
11, 28222, Note_off_c, 9, 42, 64
11, 28320, Note_on_c, 9, 42, 100
11, 28414, Note_off_c, 9, 42, 64
11, 28512, Note_on_c, 9, 42, 100
11, 28606, Note_off_c, 9, 42, 64
11, 29088, Note_on_c, 9, 36, 100
11, 29088, Note_on_c, 9, 46, 100
11, 29182, Note_off_c, 9, 46, 64
11, 29182, Note_off_c, 9, 36, 64
11, 29280, Note_on_c, 9, 42, 100
11, 29374, Note_off_c, 9, 42, 64
11, 29472, Note_on_c, 9, 42, 100
11, 29566, Note_off_c, 9, 42, 64
11, 29664, Note_on_c, 9, 42, 100
11, 29758, Note_off_c, 9, 42, 64
11, 29856, Note_on_c, 9, 42, 100
11, 29950, Note_off_c, 9, 42, 64
11, 30048, Note_on_c, 9, 42, 100
11, 30142, Note_off_c, 9, 42, 64
11, 30240, Note_on_c, 9, 36, 100
11, 30240, Note_on_c, 9, 46, 100
11, 30334, Note_off_c, 9, 46, 64
11, 30334, Note_off_c, 9, 36, 64
11, 30432, Note_on_c, 9, 42, 100
11, 30526, Note_off_c, 9, 42, 64
11, 30624, Note_on_c, 9, 42, 100
11, 30718, Note_off_c, 9, 42, 64
11, 30816, Note_on_c, 9, 42, 100
11, 30910, Note_off_c, 9, 42, 64
11, 31008, Note_on_c, 9, 36, 100
11, 31008, Note_on_c, 9, 46, 100
11, 31102, Note_off_c, 9, 46, 64
11, 31102, Note_off_c, 9, 36, 64
11, 31200, Note_on_c, 9, 42, 100
11, 31294, Note_off_c, 9, 42, 64
11, 31392, Note_on_c, 9, 36, 100
11, 31392, Note_on_c, 9, 46, 100
11, 31486, Note_off_c, 9, 46, 64
11, 31486, Note_off_c, 9, 36, 64
11, 31584, Note_on_c, 9, 42, 100
11, 31678, Note_off_c, 9, 42, 64
11, 31776, Note_on_c, 9, 42, 100
11, 31870, Note_off_c, 9, 42, 64
11, 31968, Note_on_c, 9, 42, 100
11, 32062, Note_off_c, 9, 42, 64
11, 32160, Note_on_c, 9, 36, 100
11, 32160, Note_on_c, 9, 46, 100
11, 32254, Note_off_c, 9, 46, 64
11, 32254, Note_off_c, 9, 36, 64
11, 32352, Note_on_c, 9, 36, 100
11, 32352, Note_on_c, 9, 46, 100
11, 32446, Note_off_c, 9, 46, 64
11, 32446, Note_off_c, 9, 36, 64
11, 32544, Note_on_c, 9, 42, 100
11, 32638, Note_off_c, 9, 42, 64
11, 32736, Note_on_c, 9, 42, 100
11, 32830, Note_off_c, 9, 42, 64
11, 32928, Note_on_c, 9, 42, 100
11, 33022, Note_off_c, 9, 42, 64
11, 33120, Note_on_c, 9, 42, 100
11, 33214, Note_off_c, 9, 42, 64
11, 33312, Note_on_c, 9, 36, 100
11, 33312, Note_on_c, 9, 46, 100
11, 33406, Note_off_c, 9, 46, 64
11, 33406, Note_off_c, 9, 36, 64
11, 33504, Note_on_c, 9, 42, 100
11, 33598, Note_off_c, 9, 42, 64
11, 33696, Note_on_c, 9, 42, 100
11, 33790, Note_off_c, 9, 42, 64
11, 33888, Note_on_c, 9, 42, 100
11, 33982, Note_off_c, 9, 42, 64
11, 34272, Note_on_c, 9, 42, 100
11, 34366, Note_off_c, 9, 42, 64
11, 34464, Note_on_c, 9, 36, 100
11, 34464, Note_on_c, 9, 46, 100
11, 34558, Note_off_c, 9, 46, 64
11, 34558, Note_off_c, 9, 36, 64
11, 35136, Note_on_c, 9, 54, 100
11, 35198, Note_off_c, 9, 54, 64
11, 35200, Note_on_c, 9, 54, 62
11, 35230, Note_off_c, 9, 54, 64
11, 35232, Note_on_c, 9, 54, 100
11, 35294, Note_off_c, 9, 54, 64
11, 35296, Note_on_c, 9, 54, 60
11, 35326, Note_off_c, 9, 54, 64
11, 35328, Note_on_c, 9, 54, 101
11, 35390, Note_off_c, 9, 54, 64
11, 35392, Note_on_c, 9, 54, 62
11, 35422, Note_off_c, 9, 54, 64
11, 35424, Note_on_c, 9, 54, 99
11, 35486, Note_off_c, 9, 54, 64
11, 35488, Note_on_c, 9, 54, 60
11, 35518, Note_off_c, 9, 54, 64
11, 35520, Note_on_c, 9, 54, 99
11, 35582, Note_off_c, 9, 54, 64
11, 35584, Note_on_c, 9, 54, 62
11, 35614, Note_off_c, 9, 54, 64
11, 35616, Note_on_c, 9, 54, 100
11, 35678, Note_off_c, 9, 54, 64
11, 35680, Note_on_c, 9, 54, 61
11, 35710, Note_off_c, 9, 54, 64
11, 35712, Note_on_c, 9, 38, 100
11, 35712, Note_on_c, 9, 54, 99
11, 35726, Note_off_c, 9, 38, 64
11, 35728, Note_on_c, 9, 38, 100
11, 35728, Note_on_c, 9, 38, 100
11, 35742, Note_off_c, 9, 38, 64
11, 35742, Note_off_c, 9, 38, 64
11, 35744, Note_on_c, 9, 38, 100
11, 35758, Note_off_c, 9, 38, 64
11, 35760, Note_on_c, 9, 38, 100
11, 35774, Note_off_c, 9, 54, 64
11, 35776, Note_on_c, 9, 54, 60
11, 35806, Note_off_c, 9, 38, 64
11, 35806, Note_off_c, 9, 54, 64
11, 35808, Note_on_c, 9, 46, 100
11, 35808, Note_on_c, 9, 54, 99
11, 35870, Note_off_c, 9, 54, 64
11, 35872, Note_on_c, 9, 54, 60
11, 35886, Note_off_c, 9, 46, 64
11, 35902, Note_off_c, 9, 54, 64
11, 35904, Note_on_c, 9, 38, 90
11, 35904, Note_on_c, 9, 54, 99
11, 35966, Note_off_c, 9, 54, 64
11, 35968, Note_on_c, 9, 54, 62
11, 35998, Note_off_c, 9, 38, 64
11, 35998, Note_off_c, 9, 54, 64
11, 36000, Note_on_c, 9, 38, 90
11, 36000, Note_on_c, 9, 54, 99
11, 36062, Note_off_c, 9, 54, 64
11, 36064, Note_on_c, 9, 54, 60
11, 36094, Note_off_c, 9, 38, 64
11, 36094, Note_off_c, 9, 54, 64
11, 36096, Note_on_c, 9, 38, 90
11, 36096, Note_on_c, 9, 54, 99
11, 36158, Note_off_c, 9, 54, 64
11, 36160, Note_on_c, 9, 54, 62
11, 36190, Note_off_c, 9, 38, 64
11, 36190, Note_off_c, 9, 54, 64
11, 36192, Note_on_c, 9, 38, 90
11, 36192, Note_on_c, 9, 54, 99
11, 36254, Note_off_c, 9, 54, 64
11, 36256, Note_on_c, 9, 54, 60
11, 36286, Note_off_c, 9, 38, 64
11, 36286, Note_off_c, 9, 54, 64
11, 36288, Note_on_c, 9, 38, 90
11, 36288, Note_on_c, 9, 54, 99
11, 36350, Note_off_c, 9, 54, 64
11, 36352, Note_on_c, 9, 54, 62
11, 36382, Note_off_c, 9, 38, 64
11, 36382, Note_off_c, 9, 54, 64
11, 36384, Note_on_c, 9, 38, 90
11, 36384, Note_on_c, 9, 54, 99
11, 36446, Note_off_c, 9, 54, 64
11, 36448, Note_on_c, 9, 54, 60
11, 36478, Note_off_c, 9, 38, 64
11, 36478, Note_off_c, 9, 54, 64
11, 36480, Note_on_c, 9, 38, 90
11, 36480, Note_on_c, 9, 54, 99
11, 36542, Note_off_c, 9, 54, 64
11, 36544, Note_on_c, 9, 54, 62
11, 36574, Note_off_c, 9, 38, 64
11, 36574, Note_off_c, 9, 54, 64
11, 36576, Note_on_c, 9, 38, 90
11, 36576, Note_on_c, 9, 54, 99
11, 36638, Note_off_c, 9, 54, 64
11, 36640, Note_on_c, 9, 54, 60
11, 36670, Note_off_c, 9, 38, 64
11, 36670, Note_off_c, 9, 54, 64
11, 36672, Note_on_c, 9, 38, 90
11, 36672, Note_on_c, 9, 54, 99
11, 36734, Note_off_c, 9, 54, 64
11, 36736, Note_on_c, 9, 54, 62
11, 36766, Note_off_c, 9, 38, 64
11, 36766, Note_off_c, 9, 54, 64
11, 36768, Note_on_c, 9, 38, 90
11, 36768, Note_on_c, 9, 54, 99
11, 36830, Note_off_c, 9, 54, 64
11, 36832, Note_on_c, 9, 54, 60
11, 36862, Note_off_c, 9, 38, 64
11, 36862, Note_off_c, 9, 54, 64
11, 36864, Note_on_c, 9, 38, 90
11, 36864, Note_on_c, 9, 54, 99
11, 36926, Note_off_c, 9, 54, 64
11, 36928, Note_on_c, 9, 54, 62
11, 36958, Note_off_c, 9, 38, 64
11, 36958, Note_off_c, 9, 54, 64
11, 36960, Note_on_c, 9, 38, 90
11, 36960, Note_on_c, 9, 54, 99
11, 37022, Note_off_c, 9, 54, 64
11, 37024, Note_on_c, 9, 54, 60
11, 37054, Note_off_c, 9, 38, 64
11, 37054, Note_off_c, 9, 54, 64
11, 37056, Note_on_c, 9, 38, 90
11, 37056, Note_on_c, 9, 54, 99
11, 37118, Note_off_c, 9, 54, 64
11, 37120, Note_on_c, 9, 54, 62
11, 37150, Note_off_c, 9, 38, 64
11, 37150, Note_off_c, 9, 54, 64
11, 37152, Note_on_c, 9, 54, 99
11, 37152, Note_on_c, 9, 38, 90
11, 37214, Note_off_c, 9, 54, 64
11, 37216, Note_on_c, 9, 54, 60
11, 37246, Note_off_c, 9, 38, 64
11, 37246, Note_off_c, 9, 54, 64
11, 37248, Note_on_c, 9, 38, 90
11, 37248, Note_on_c, 9, 54, 99
11, 37310, Note_off_c, 9, 54, 64
11, 37312, Note_on_c, 9, 54, 62
11, 37342, Note_off_c, 9, 38, 64
11, 37342, Note_off_c, 9, 54, 64
11, 37344, Note_on_c, 9, 54, 99
11, 37344, Note_on_c, 9, 38, 90
11, 37406, Note_off_c, 9, 54, 64
11, 37408, Note_on_c, 9, 54, 62
11, 37438, Note_off_c, 9, 38, 64
11, 37438, Note_off_c, 9, 54, 64
11, 37440, Note_on_c, 9, 54, 99
11, 37440, Note_on_c, 9, 38, 90
11, 37502, Note_off_c, 9, 54, 64
11, 37504, Note_on_c, 9, 54, 62
11, 37534, Note_off_c, 9, 38, 64
11, 37534, Note_off_c, 9, 54, 64
11, 37536, Note_on_c, 9, 54, 99
11, 37536, Note_on_c, 9, 38, 90
11, 37598, Note_off_c, 9, 54, 64
11, 37600, Note_on_c, 9, 54, 62
11, 37630, Note_off_c, 9, 38, 64
11, 37630, Note_off_c, 9, 54, 64
11, 37632, Note_on_c, 9, 38, 90
11, 37632, Note_on_c, 9, 46, 100
11, 37632, Note_on_c, 9, 54, 99
11, 37694, Note_off_c, 9, 54, 64
11, 37696, Note_on_c, 9, 54, 62
11, 37726, Note_off_c, 9, 46, 64
11, 37726, Note_off_c, 9, 38, 64
11, 37726, Note_off_c, 9, 54, 64
11, 37728, Note_on_c, 9, 54, 99
11, 37728, Note_on_c, 9, 38, 90
11, 37790, Note_off_c, 9, 54, 64
11, 37792, Note_on_c, 9, 54, 62
11, 37822, Note_off_c, 9, 38, 64
11, 37822, Note_off_c, 9, 54, 64
11, 37824, Note_on_c, 9, 54, 99
11, 37824, Note_on_c, 9, 38, 90
11, 37886, Note_off_c, 9, 54, 64
11, 37888, Note_on_c, 9, 54, 62
11, 37918, Note_off_c, 9, 38, 64
11, 37918, Note_off_c, 9, 54, 64
11, 37920, Note_on_c, 9, 54, 99
11, 37920, Note_on_c, 9, 38, 90
11, 37982, Note_off_c, 9, 54, 64
11, 37984, Note_on_c, 9, 54, 62
11, 38014, Note_off_c, 9, 38, 64
11, 38014, Note_off_c, 9, 54, 64
11, 38016, Note_on_c, 9, 54, 99
11, 38016, Note_on_c, 9, 38, 90
11, 38078, Note_off_c, 9, 54, 64
11, 38080, Note_on_c, 9, 54, 62
11, 38110, Note_off_c, 9, 38, 64
11, 38110, Note_off_c, 9, 54, 64
11, 38112, Note_on_c, 9, 54, 99
11, 38112, Note_on_c, 9, 38, 90
11, 38174, Note_off_c, 9, 54, 64
11, 38176, Note_on_c, 9, 54, 62
11, 38206, Note_off_c, 9, 38, 64
11, 38206, Note_off_c, 9, 54, 64
11, 38208, Note_on_c, 9, 46, 90
11, 38208, Note_on_c, 9, 54, 99
11, 38208, Note_on_c, 9, 38, 90
11, 38270, Note_off_c, 9, 54, 64
11, 38272, Note_on_c, 9, 54, 62
11, 38302, Note_off_c, 9, 46, 64
11, 38302, Note_off_c, 9, 38, 64
11, 38302, Note_off_c, 9, 54, 64
11, 38304, Note_on_c, 9, 54, 99
11, 38304, Note_on_c, 9, 38, 90
11, 38366, Note_off_c, 9, 54, 64
11, 38368, Note_on_c, 9, 54, 62
11, 38398, Note_off_c, 9, 38, 64
11, 38398, Note_off_c, 9, 54, 64
11, 38400, Note_on_c, 9, 54, 99
11, 38400, Note_on_c, 9, 38, 90
11, 38400, Note_on_c, 9, 46, 90
11, 38462, Note_off_c, 9, 54, 64
11, 38464, Note_on_c, 9, 54, 62
11, 38494, Note_off_c, 9, 38, 64
11, 38494, Note_off_c, 9, 46, 64
11, 38494, Note_off_c, 9, 54, 64
11, 38496, Note_on_c, 9, 54, 99
11, 38496, Note_on_c, 9, 38, 90
11, 38558, Note_off_c, 9, 54, 64
11, 38560, Note_on_c, 9, 54, 62
11, 38590, Note_off_c, 9, 38, 64
11, 38590, Note_off_c, 9, 54, 64
11, 38592, Note_on_c, 9, 54, 99
11, 38592, Note_on_c, 9, 38, 90
11, 38654, Note_off_c, 9, 54, 64
11, 38656, Note_on_c, 9, 54, 62
11, 38686, Note_off_c, 9, 38, 64
11, 38686, Note_off_c, 9, 54, 64
11, 38688, Note_on_c, 9, 54, 99
11, 38688, Note_on_c, 9, 38, 90
11, 38750, Note_off_c, 9, 54, 64
11, 38752, Note_on_c, 9, 54, 62
11, 38782, Note_off_c, 9, 38, 64
11, 38782, Note_off_c, 9, 54, 64
11, 38784, Note_on_c, 9, 54, 99
11, 38784, Note_on_c, 9, 38, 90
11, 38846, Note_off_c, 9, 54, 64
11, 38848, Note_on_c, 9, 54, 62
11, 38878, Note_off_c, 9, 38, 64
11, 38878, Note_off_c, 9, 54, 64
11, 38880, Note_on_c, 9, 54, 99
11, 38880, Note_on_c, 9, 38, 90
11, 38942, Note_off_c, 9, 54, 64
11, 38944, Note_on_c, 9, 54, 62
11, 38974, Note_off_c, 9, 38, 64
11, 38974, Note_off_c, 9, 54, 64
11, 38976, Note_on_c, 9, 54, 99
11, 38976, Note_on_c, 9, 38, 90
11, 39038, Note_off_c, 9, 54, 64
11, 39040, Note_on_c, 9, 54, 62
11, 39070, Note_off_c, 9, 38, 64
11, 39070, Note_off_c, 9, 54, 64
11, 39072, Note_on_c, 9, 54, 99
11, 39072, Note_on_c, 9, 38, 90
11, 39134, Note_off_c, 9, 54, 64
11, 39136, Note_on_c, 9, 54, 62
11, 39166, Note_off_c, 9, 38, 64
11, 39166, Note_off_c, 9, 54, 64
11, 39168, Note_on_c, 9, 46, 100
11, 39168, Note_on_c, 9, 54, 99
11, 39168, Note_on_c, 9, 38, 90
11, 39230, Note_off_c, 9, 54, 64
11, 39232, Note_on_c, 9, 54, 62
11, 39262, Note_off_c, 9, 46, 64
11, 39262, Note_off_c, 9, 38, 64
11, 39262, Note_off_c, 9, 54, 64
11, 39264, Note_on_c, 9, 54, 99
11, 39264, Note_on_c, 9, 38, 90
11, 39326, Note_off_c, 9, 54, 64
11, 39328, Note_on_c, 9, 54, 62
11, 39358, Note_off_c, 9, 38, 64
11, 39358, Note_off_c, 9, 54, 64
11, 39360, Note_on_c, 9, 54, 99
11, 39360, Note_on_c, 9, 38, 90
11, 39422, Note_off_c, 9, 54, 64
11, 39424, Note_on_c, 9, 54, 62
11, 39454, Note_off_c, 9, 38, 64
11, 39454, Note_off_c, 9, 54, 64
11, 39456, Note_on_c, 9, 54, 99
11, 39456, Note_on_c, 9, 38, 90
11, 39518, Note_off_c, 9, 54, 64
11, 39520, Note_on_c, 9, 54, 62
11, 39550, Note_off_c, 9, 38, 64
11, 39550, Note_off_c, 9, 54, 64
11, 39552, Note_on_c, 9, 54, 99
11, 39552, Note_on_c, 9, 38, 90
11, 39614, Note_off_c, 9, 54, 64
11, 39616, Note_on_c, 9, 54, 62
11, 39646, Note_off_c, 9, 38, 64
11, 39646, Note_off_c, 9, 54, 64
11, 39648, Note_on_c, 9, 38, 90
11, 39648, Note_on_c, 9, 54, 99
11, 39710, Note_off_c, 9, 54, 64
11, 39712, Note_on_c, 9, 54, 60
11, 39742, Note_off_c, 9, 38, 64
11, 39742, Note_off_c, 9, 54, 64
11, 39744, Note_on_c, 9, 38, 90
11, 39744, Note_on_c, 9, 54, 99
11, 39806, Note_off_c, 9, 54, 64
11, 39808, Note_on_c, 9, 54, 62
11, 39838, Note_off_c, 9, 38, 64
11, 39838, Note_off_c, 9, 54, 64
11, 39840, Note_on_c, 9, 38, 90
11, 39840, Note_on_c, 9, 54, 99
11, 39902, Note_off_c, 9, 54, 64
11, 39904, Note_on_c, 9, 54, 60
11, 39934, Note_off_c, 9, 38, 64
11, 39934, Note_off_c, 9, 54, 64
11, 39936, Note_on_c, 9, 38, 90
11, 39936, Note_on_c, 9, 54, 99
11, 39998, Note_off_c, 9, 54, 64
11, 40000, Note_on_c, 9, 54, 62
11, 40030, Note_off_c, 9, 38, 64
11, 40030, Note_off_c, 9, 54, 64
11, 40032, Note_on_c, 9, 38, 90
11, 40032, Note_on_c, 9, 54, 99
11, 40094, Note_off_c, 9, 54, 64
11, 40096, Note_on_c, 9, 54, 60
11, 40126, Note_off_c, 9, 38, 64
11, 40126, Note_off_c, 9, 54, 64
11, 40128, Note_on_c, 9, 38, 90
11, 40128, Note_on_c, 9, 54, 99
11, 40190, Note_off_c, 9, 54, 64
11, 40192, Note_on_c, 9, 54, 62
11, 40222, Note_off_c, 9, 38, 64
11, 40222, Note_off_c, 9, 54, 64
11, 40224, Note_on_c, 9, 38, 90
11, 40224, Note_on_c, 9, 54, 99
11, 40286, Note_off_c, 9, 54, 64
11, 40288, Note_on_c, 9, 54, 60
11, 40318, Note_off_c, 9, 38, 64
11, 40318, Note_off_c, 9, 54, 64
11, 40320, Note_on_c, 9, 38, 90
11, 40320, Note_on_c, 9, 54, 99
11, 40382, Note_off_c, 9, 54, 64
11, 40384, Note_on_c, 9, 54, 62
11, 40414, Note_off_c, 9, 38, 64
11, 40414, Note_off_c, 9, 54, 64
11, 40416, Note_on_c, 9, 38, 90
11, 40416, Note_on_c, 9, 54, 99
11, 40478, Note_off_c, 9, 54, 64
11, 40480, Note_on_c, 9, 54, 60
11, 40510, Note_off_c, 9, 38, 64
11, 40510, Note_off_c, 9, 54, 64
11, 40512, Note_on_c, 9, 38, 90
11, 40512, Note_on_c, 9, 54, 99
11, 40574, Note_off_c, 9, 54, 64
11, 40576, Note_on_c, 9, 54, 62
11, 40606, Note_off_c, 9, 38, 64
11, 40606, Note_off_c, 9, 54, 64
11, 40608, Note_on_c, 9, 38, 90
11, 40608, Note_on_c, 9, 54, 99
11, 40670, Note_off_c, 9, 54, 64
11, 40672, Note_on_c, 9, 54, 60
11, 40702, Note_off_c, 9, 38, 64
11, 40702, Note_off_c, 9, 54, 64
11, 40704, Note_on_c, 9, 38, 90
11, 40704, Note_on_c, 9, 54, 99
11, 40766, Note_off_c, 9, 54, 64
11, 40768, Note_on_c, 9, 54, 62
11, 40798, Note_off_c, 9, 38, 64
11, 40798, Note_off_c, 9, 54, 64
11, 40800, Note_on_c, 9, 38, 90
11, 40800, Note_on_c, 9, 54, 99
11, 40862, Note_off_c, 9, 54, 64
11, 40864, Note_on_c, 9, 54, 60
11, 40894, Note_off_c, 9, 38, 64
11, 40894, Note_off_c, 9, 54, 64
11, 40896, Note_on_c, 9, 38, 90
11, 40896, Note_on_c, 9, 54, 99
11, 40958, Note_off_c, 9, 54, 64
11, 40960, Note_on_c, 9, 54, 62
11, 40990, Note_off_c, 9, 38, 64
11, 40990, Note_off_c, 9, 54, 64
11, 40992, Note_on_c, 9, 38, 90
11, 40992, Note_on_c, 9, 54, 99
11, 41054, Note_off_c, 9, 54, 64
11, 41056, Note_on_c, 9, 54, 60
11, 41086, Note_off_c, 9, 38, 64
11, 41086, Note_off_c, 9, 54, 64
11, 41088, Note_on_c, 9, 38, 90
11, 41088, Note_on_c, 9, 54, 99
11, 41150, Note_off_c, 9, 54, 64
11, 41152, Note_on_c, 9, 54, 62
11, 41182, Note_off_c, 9, 38, 64
11, 41182, Note_off_c, 9, 54, 64
11, 41184, Note_on_c, 9, 38, 90
11, 41184, Note_on_c, 9, 54, 99
11, 41246, Note_off_c, 9, 54, 64
11, 41248, Note_on_c, 9, 54, 60
11, 41278, Note_off_c, 9, 38, 64
11, 41278, Note_off_c, 9, 54, 64
11, 41280, Note_on_c, 9, 38, 90
11, 41280, Note_on_c, 9, 54, 99
11, 41342, Note_off_c, 9, 54, 64
11, 41344, Note_on_c, 9, 54, 62
11, 41374, Note_off_c, 9, 38, 64
11, 41374, Note_off_c, 9, 54, 64
11, 41376, Note_on_c, 9, 38, 90
11, 41376, Note_on_c, 9, 54, 99
11, 41438, Note_off_c, 9, 54, 64
11, 41440, Note_on_c, 9, 54, 60
11, 41470, Note_off_c, 9, 38, 64
11, 41470, Note_off_c, 9, 54, 64
11, 41472, Note_on_c, 9, 46, 100
11, 41472, Note_on_c, 9, 38, 90
11, 41472, Note_on_c, 9, 54, 99
11, 41534, Note_off_c, 9, 54, 64
11, 41536, Note_on_c, 9, 54, 62
11, 41566, Note_off_c, 9, 38, 64
11, 41566, Note_off_c, 9, 46, 64
11, 41566, Note_off_c, 9, 54, 64
11, 41568, Note_on_c, 9, 38, 90
11, 41568, Note_on_c, 9, 54, 99
11, 41630, Note_off_c, 9, 54, 64
11, 41632, Note_on_c, 9, 54, 60
11, 41662, Note_off_c, 9, 38, 64
11, 41662, Note_off_c, 9, 54, 64
11, 41664, Note_on_c, 9, 38, 90
11, 41664, Note_on_c, 9, 54, 99
11, 41726, Note_off_c, 9, 54, 64
11, 41728, Note_on_c, 9, 54, 62
11, 41758, Note_off_c, 9, 38, 64
11, 41758, Note_off_c, 9, 54, 64
11, 41760, Note_on_c, 9, 38, 90
11, 41760, Note_on_c, 9, 54, 99
11, 41822, Note_off_c, 9, 54, 64
11, 41824, Note_on_c, 9, 54, 60
11, 41854, Note_off_c, 9, 38, 64
11, 41854, Note_off_c, 9, 54, 64
11, 41856, Note_on_c, 9, 38, 90
11, 41856, Note_on_c, 9, 54, 99
11, 41918, Note_off_c, 9, 54, 64
11, 41920, Note_on_c, 9, 54, 62
11, 41950, Note_off_c, 9, 38, 64
11, 41950, Note_off_c, 9, 54, 64
11, 41952, Note_on_c, 9, 38, 90
11, 41952, Note_on_c, 9, 54, 99
11, 42014, Note_off_c, 9, 54, 64
11, 42016, Note_on_c, 9, 54, 60
11, 42046, Note_off_c, 9, 38, 64
11, 42046, Note_off_c, 9, 54, 64
11, 42048, Note_on_c, 9, 46, 100
11, 42048, Note_on_c, 9, 38, 90
11, 42048, Note_on_c, 9, 54, 99
11, 42110, Note_off_c, 9, 54, 64
11, 42112, Note_on_c, 9, 54, 62
11, 42142, Note_off_c, 9, 38, 64
11, 42142, Note_off_c, 9, 46, 64
11, 42142, Note_off_c, 9, 54, 64
11, 42144, Note_on_c, 9, 38, 90
11, 42144, Note_on_c, 9, 54, 99
11, 42206, Note_off_c, 9, 54, 64
11, 42208, Note_on_c, 9, 54, 60
11, 42238, Note_off_c, 9, 38, 64
11, 42238, Note_off_c, 9, 54, 64
11, 42240, Note_on_c, 9, 46, 100
11, 42240, Note_on_c, 9, 38, 90
11, 42240, Note_on_c, 9, 54, 99
11, 42302, Note_off_c, 9, 54, 64
11, 42304, Note_on_c, 9, 54, 62
11, 42334, Note_off_c, 9, 38, 64
11, 42334, Note_off_c, 9, 46, 64
11, 42334, Note_off_c, 9, 54, 64
11, 42336, Note_on_c, 9, 38, 90
11, 42336, Note_on_c, 9, 54, 99
11, 42398, Note_off_c, 9, 54, 64
11, 42400, Note_on_c, 9, 54, 60
11, 42430, Note_off_c, 9, 38, 64
11, 42430, Note_off_c, 9, 54, 64
11, 42432, Note_on_c, 9, 38, 90
11, 42432, Note_on_c, 9, 54, 99
11, 42494, Note_off_c, 9, 54, 64
11, 42496, Note_on_c, 9, 54, 62
11, 42526, Note_off_c, 9, 38, 64
11, 42526, Note_off_c, 9, 54, 64
11, 42528, Note_on_c, 9, 38, 90
11, 42528, Note_on_c, 9, 54, 99
11, 42590, Note_off_c, 9, 54, 64
11, 42592, Note_on_c, 9, 54, 60
11, 42622, Note_off_c, 9, 38, 64
11, 42622, Note_off_c, 9, 54, 64
11, 42624, Note_on_c, 9, 38, 90
11, 42624, Note_on_c, 9, 54, 99
11, 42686, Note_off_c, 9, 54, 64
11, 42688, Note_on_c, 9, 54, 62
11, 42718, Note_off_c, 9, 38, 64
11, 42718, Note_off_c, 9, 54, 64
11, 42720, Note_on_c, 9, 38, 90
11, 42720, Note_on_c, 9, 54, 99
11, 42782, Note_off_c, 9, 54, 64
11, 42784, Note_on_c, 9, 54, 60
11, 42814, Note_off_c, 9, 38, 64
11, 42814, Note_off_c, 9, 54, 64
11, 42816, Note_on_c, 9, 38, 90
11, 42816, Note_on_c, 9, 54, 99
11, 42878, Note_off_c, 9, 54, 64
11, 42880, Note_on_c, 9, 54, 62
11, 42910, Note_off_c, 9, 38, 64
11, 42910, Note_off_c, 9, 54, 64
11, 42912, Note_on_c, 9, 38, 90
11, 42912, Note_on_c, 9, 54, 99
11, 42974, Note_off_c, 9, 54, 64
11, 42976, Note_on_c, 9, 54, 60
11, 43006, Note_off_c, 9, 38, 64
11, 43006, Note_off_c, 9, 54, 64
11, 43008, Note_on_c, 9, 38, 90
11, 43008, Note_on_c, 9, 54, 99
11, 43070, Note_off_c, 9, 54, 64
11, 43072, Note_on_c, 9, 54, 62
11, 43102, Note_off_c, 9, 38, 64
11, 43102, Note_off_c, 9, 54, 64
11, 43104, Note_on_c, 9, 36, 100
11, 43104, Note_on_c, 9, 44, 100
11, 43198, Note_off_c, 9, 44, 64
11, 43198, Note_off_c, 9, 36, 64
11, 43200, Note_on_c, 9, 44, 100
11, 43294, Note_off_c, 9, 44, 64
11, 43296, Note_on_c, 9, 38, 80
11, 43296, Note_on_c, 9, 44, 80
11, 43390, Note_off_c, 9, 44, 64
11, 43390, Note_off_c, 9, 38, 64
11, 43392, Note_on_c, 9, 44, 100
11, 43486, Note_off_c, 9, 44, 64
11, 43488, Note_on_c, 9, 36, 100
11, 43488, Note_on_c, 9, 44, 100
11, 43582, Note_off_c, 9, 44, 64
11, 43582, Note_off_c, 9, 36, 64
11, 43584, Note_on_c, 9, 44, 100
11, 43678, Note_off_c, 9, 44, 64
11, 43680, Note_on_c, 9, 38, 80
11, 43680, Note_on_c, 9, 44, 80
11, 43774, Note_off_c, 9, 44, 64
11, 43774, Note_off_c, 9, 38, 64
11, 43776, Note_on_c, 9, 44, 100
11, 43870, Note_off_c, 9, 44, 64
11, 43872, Note_on_c, 9, 36, 100
11, 43872, Note_on_c, 9, 44, 100
11, 43966, Note_off_c, 9, 44, 64
11, 43966, Note_off_c, 9, 36, 64
11, 43968, Note_on_c, 9, 44, 100
11, 44062, Note_off_c, 9, 44, 64
11, 44064, Note_on_c, 9, 38, 80
11, 44064, Note_on_c, 9, 44, 80
11, 44158, Note_off_c, 9, 44, 64
11, 44158, Note_off_c, 9, 38, 64
11, 44160, Note_on_c, 9, 44, 100
11, 44254, Note_off_c, 9, 44, 64
11, 44256, Note_on_c, 9, 36, 100
11, 44256, Note_on_c, 9, 44, 100
11, 44350, Note_off_c, 9, 44, 64
11, 44350, Note_off_c, 9, 36, 64
11, 44352, Note_on_c, 9, 44, 100
11, 44446, Note_off_c, 9, 44, 64
11, 44448, Note_on_c, 9, 38, 80
11, 44448, Note_on_c, 9, 44, 80
11, 44542, Note_off_c, 9, 44, 64
11, 44542, Note_off_c, 9, 38, 64
11, 44544, Note_on_c, 9, 44, 100
11, 44638, Note_off_c, 9, 44, 64
11, 44640, Note_on_c, 9, 36, 100
11, 44640, Note_on_c, 9, 44, 100
11, 44734, Note_off_c, 9, 44, 64
11, 44734, Note_off_c, 9, 36, 64
11, 44736, Note_on_c, 9, 44, 100
11, 44830, Note_off_c, 9, 44, 64
11, 44832, Note_on_c, 9, 38, 80
11, 44832, Note_on_c, 9, 44, 80
11, 44926, Note_off_c, 9, 44, 64
11, 44926, Note_off_c, 9, 38, 64
11, 44928, Note_on_c, 9, 44, 100
11, 45022, Note_off_c, 9, 44, 64
11, 45024, Note_on_c, 9, 36, 100
11, 45024, Note_on_c, 9, 44, 100
11, 45118, Note_off_c, 9, 44, 64
11, 45118, Note_off_c, 9, 36, 64
11, 45120, Note_on_c, 9, 44, 100
11, 45214, Note_off_c, 9, 44, 64
11, 45216, Note_on_c, 9, 38, 80
11, 45216, Note_on_c, 9, 44, 80
11, 45310, Note_off_c, 9, 44, 64
11, 45310, Note_off_c, 9, 38, 64
11, 45312, Note_on_c, 9, 44, 100
11, 45406, Note_off_c, 9, 44, 64
11, 45408, Note_on_c, 9, 36, 100
11, 45408, Note_on_c, 9, 44, 100
11, 45502, Note_off_c, 9, 44, 64
11, 45502, Note_off_c, 9, 36, 64
11, 45504, Note_on_c, 9, 44, 100
11, 45598, Note_off_c, 9, 44, 64
11, 45600, Note_on_c, 9, 38, 80
11, 45600, Note_on_c, 9, 44, 80
11, 45694, Note_off_c, 9, 44, 64
11, 45694, Note_off_c, 9, 38, 64
11, 45696, Note_on_c, 9, 44, 100
11, 45790, Note_off_c, 9, 44, 64
11, 45792, Note_on_c, 9, 46, 100
11, 45792, Note_on_c, 9, 36, 100
11, 45886, Note_off_c, 9, 36, 64
11, 45886, Note_off_c, 9, 46, 64
11, 45888, Note_on_c, 9, 41, 100
11, 45888, Note_on_c, 9, 44, 100
11, 45934, Note_off_c, 9, 41, 64
11, 45936, Note_on_c, 9, 36, 100
11, 45982, Note_off_c, 9, 44, 64
11, 45984, Note_on_c, 9, 44, 80
11, 46030, Note_off_c, 9, 36, 64
11, 46032, Note_on_c, 9, 41, 100
11, 46078, Note_off_c, 9, 44, 64
11, 46078, Note_off_c, 9, 41, 64
11, 46080, Note_on_c, 9, 36, 100
11, 46080, Note_on_c, 9, 44, 100
11, 46174, Note_off_c, 9, 44, 64
11, 46174, Note_off_c, 9, 36, 64
11, 46176, Note_on_c, 9, 36, 100
11, 46176, Note_on_c, 9, 44, 100
11, 46270, Note_off_c, 9, 44, 64
11, 46270, Note_off_c, 9, 36, 64
11, 46272, Note_on_c, 9, 44, 100
11, 46366, Note_off_c, 9, 44, 64
11, 46368, Note_on_c, 9, 38, 80
11, 46368, Note_on_c, 9, 44, 80
11, 46462, Note_off_c, 9, 44, 64
11, 46462, Note_off_c, 9, 38, 64
11, 46464, Note_on_c, 9, 44, 100
11, 46558, Note_off_c, 9, 44, 64
11, 46560, Note_on_c, 9, 36, 100
11, 46560, Note_on_c, 9, 44, 100
11, 46654, Note_off_c, 9, 44, 64
11, 46654, Note_off_c, 9, 36, 64
11, 46656, Note_on_c, 9, 44, 100
11, 46750, Note_off_c, 9, 44, 64
11, 46752, Note_on_c, 9, 38, 80
11, 46752, Note_on_c, 9, 44, 80
11, 46846, Note_off_c, 9, 44, 64
11, 46846, Note_off_c, 9, 38, 64
11, 46848, Note_on_c, 9, 44, 100
11, 46942, Note_off_c, 9, 44, 64
11, 46944, Note_on_c, 9, 44, 100
11, 46944, Note_on_c, 9, 36, 100
11, 47038, Note_off_c, 9, 36, 64
11, 47038, Note_off_c, 9, 44, 64
11, 47040, Note_on_c, 9, 44, 100
11, 47134, Note_off_c, 9, 44, 64
11, 47136, Note_on_c, 9, 38, 80
11, 47136, Note_on_c, 9, 44, 80
11, 47230, Note_off_c, 9, 44, 64
11, 47230, Note_off_c, 9, 38, 64
11, 47232, Note_on_c, 9, 46, 100
11, 47326, Note_off_c, 9, 46, 64
11, 47328, Note_on_c, 9, 46, 100
11, 47328, Note_on_c, 9, 36, 100
11, 47422, Note_off_c, 9, 36, 64
11, 47422, Note_off_c, 9, 46, 64
11, 47424, Note_on_c, 9, 44, 100
11, 47518, Note_off_c, 9, 44, 64
11, 47520, Note_on_c, 9, 44, 80
11, 47520, Note_on_c, 9, 38, 80
11, 47614, Note_off_c, 9, 38, 64
11, 47614, Note_off_c, 9, 44, 64
11, 47616, Note_on_c, 9, 44, 100
11, 47710, Note_off_c, 9, 44, 64
11, 47712, Note_on_c, 9, 36, 100
11, 47712, Note_on_c, 9, 44, 100
11, 47806, Note_off_c, 9, 44, 64
11, 47806, Note_off_c, 9, 36, 64
11, 47808, Note_on_c, 9, 44, 100
11, 47902, Note_off_c, 9, 44, 64
11, 47904, Note_on_c, 9, 38, 80
11, 47904, Note_on_c, 9, 44, 80
11, 47998, Note_off_c, 9, 44, 64
11, 47998, Note_off_c, 9, 38, 64
11, 48000, Note_on_c, 9, 44, 100
11, 48094, Note_off_c, 9, 44, 64
11, 48096, Note_on_c, 9, 36, 100
11, 48096, Note_on_c, 9, 44, 100
11, 48190, Note_off_c, 9, 44, 64
11, 48190, Note_off_c, 9, 36, 64
11, 48192, Note_on_c, 9, 44, 100
11, 48286, Note_off_c, 9, 44, 64
11, 48288, Note_on_c, 9, 46, 80
11, 48288, Note_on_c, 9, 38, 80
11, 48382, Note_off_c, 9, 38, 64
11, 48382, Note_off_c, 9, 46, 64
11, 48384, Note_on_c, 9, 46, 100
11, 48478, Note_off_c, 9, 46, 64
11, 48480, Note_on_c, 9, 46, 100
11, 48480, Note_on_c, 9, 36, 100
11, 48574, Note_off_c, 9, 36, 64
11, 48574, Note_off_c, 9, 46, 64
11, 48576, Note_on_c, 9, 44, 100
11, 48670, Note_off_c, 9, 44, 64
11, 48672, Note_on_c, 9, 38, 80
11, 48672, Note_on_c, 9, 44, 80
11, 48766, Note_off_c, 9, 44, 64
11, 48766, Note_off_c, 9, 38, 64
11, 48768, Note_on_c, 9, 44, 100
11, 48862, Note_off_c, 9, 44, 64
11, 48864, Note_on_c, 9, 36, 100
11, 48864, Note_on_c, 9, 44, 100
11, 48958, Note_off_c, 9, 44, 64
11, 48958, Note_off_c, 9, 36, 64
11, 48960, Note_on_c, 9, 44, 100
11, 49054, Note_off_c, 9, 44, 64
11, 49056, Note_on_c, 9, 38, 80
11, 49056, Note_on_c, 9, 44, 80
11, 49150, Note_off_c, 9, 44, 64
11, 49150, Note_off_c, 9, 38, 64
11, 49152, Note_on_c, 9, 44, 100
11, 49246, Note_off_c, 9, 44, 64
11, 49248, Note_on_c, 9, 36, 100
11, 49248, Note_on_c, 9, 44, 100
11, 49342, Note_off_c, 9, 44, 64
11, 49342, Note_off_c, 9, 36, 64
11, 49344, Note_on_c, 9, 44, 100
11, 49438, Note_off_c, 9, 44, 64
11, 49440, Note_on_c, 9, 46, 80
11, 49440, Note_on_c, 9, 38, 80
11, 49534, Note_off_c, 9, 38, 64
11, 49534, Note_off_c, 9, 46, 64
11, 49536, Note_on_c, 9, 46, 100
11, 49630, Note_off_c, 9, 46, 64
11, 49632, Note_on_c, 9, 46, 100
11, 49632, Note_on_c, 9, 36, 100
11, 49726, Note_off_c, 9, 36, 64
11, 49726, Note_off_c, 9, 46, 64
11, 49728, Note_on_c, 9, 46, 100
11, 49822, Note_off_c, 9, 46, 64
11, 49824, Note_on_c, 9, 46, 80
11, 49824, Note_on_c, 9, 38, 80
11, 49918, Note_off_c, 9, 38, 64
11, 49918, Note_off_c, 9, 46, 64
11, 49920, Note_on_c, 9, 46, 100
11, 50014, Note_off_c, 9, 46, 64
11, 50016, Note_on_c, 9, 36, 80
11, 50016, Note_on_c, 9, 44, 80
11, 50110, Note_off_c, 9, 44, 64
11, 50110, Note_off_c, 9, 36, 64
11, 50112, Note_on_c, 9, 36, 80
11, 50112, Note_on_c, 9, 44, 80
11, 50206, Note_off_c, 9, 44, 64
11, 50206, Note_off_c, 9, 36, 64
11, 50208, Note_on_c, 9, 38, 80
11, 50208, Note_on_c, 9, 44, 80
11, 50302, Note_off_c, 9, 44, 64
11, 50302, Note_off_c, 9, 38, 64
11, 50304, Note_on_c, 9, 36, 80
11, 50304, Note_on_c, 9, 44, 80
11, 50398, Note_off_c, 9, 44, 64
11, 50398, Note_off_c, 9, 36, 64
11, 50400, Note_on_c, 9, 36, 80
11, 50400, Note_on_c, 9, 44, 80
11, 50494, Note_off_c, 9, 44, 64
11, 50494, Note_off_c, 9, 36, 64
11, 50496, Note_on_c, 9, 36, 80
11, 50496, Note_on_c, 9, 44, 80
11, 50590, Note_off_c, 9, 44, 64
11, 50590, Note_off_c, 9, 36, 64
11, 50592, Note_on_c, 9, 38, 80
11, 50592, Note_on_c, 9, 44, 80
11, 50686, Note_off_c, 9, 44, 64
11, 50686, Note_off_c, 9, 38, 64
11, 50688, Note_on_c, 9, 36, 80
11, 50688, Note_on_c, 9, 44, 80
11, 50782, Note_off_c, 9, 44, 64
11, 50782, Note_off_c, 9, 36, 64
11, 50784, Note_on_c, 9, 36, 100
11, 50784, Note_on_c, 9, 49, 100
11, 50878, Note_off_c, 9, 49, 64
11, 50878, Note_off_c, 9, 36, 64
11, 50880, Note_on_c, 9, 38, 81
11, 50974, Note_off_c, 9, 38, 64
11, 50976, Note_on_c, 9, 36, 100
11, 51070, Note_off_c, 9, 36, 64
11, 51072, Note_on_c, 9, 38, 80
11, 51166, Note_off_c, 9, 38, 64
11, 51168, Note_on_c, 9, 36, 100
11, 51262, Note_off_c, 9, 36, 64
11, 51264, Note_on_c, 9, 38, 81
11, 51358, Note_off_c, 9, 38, 64
11, 51360, Note_on_c, 9, 36, 100
11, 51454, Note_off_c, 9, 36, 64
11, 51456, Note_on_c, 9, 38, 81
11, 51550, Note_off_c, 9, 38, 64
11, 51552, Note_on_c, 9, 36, 100
11, 51646, Note_off_c, 9, 36, 64
11, 51648, Note_on_c, 9, 38, 80
11, 51742, Note_off_c, 9, 38, 64
11, 51744, Note_on_c, 9, 36, 100
11, 51838, Note_off_c, 9, 36, 64
11, 51840, Note_on_c, 9, 38, 81
11, 51934, Note_off_c, 9, 38, 64
11, 51936, Note_on_c, 9, 36, 100
11, 52000, Note_on_c, 9, 43, 100
11, 52014, Note_off_c, 9, 43, 64
11, 52016, Note_on_c, 9, 43, 100
11, 52030, Note_off_c, 9, 36, 64
11, 52030, Note_off_c, 9, 43, 64
11, 52032, Note_on_c, 9, 41, 100
11, 52094, Note_off_c, 9, 41, 64
11, 52096, Note_on_c, 9, 43, 100
11, 52126, Note_off_c, 9, 43, 64
11, 52128, Note_on_c, 9, 36, 100
11, 52192, Note_on_c, 9, 43, 100
11, 52222, Note_off_c, 9, 43, 64
11, 52222, Note_off_c, 9, 36, 64
11, 52224, Note_on_c, 9, 40, 100
11, 52318, Note_off_c, 9, 40, 64
11, 52320, Note_on_c, 9, 36, 100
11, 52414, Note_off_c, 9, 36, 64
11, 52416, Note_on_c, 9, 38, 79
11, 52510, Note_off_c, 9, 38, 64
11, 52512, Note_on_c, 9, 36, 100
11, 52606, Note_off_c, 9, 36, 64
11, 52608, Note_on_c, 9, 38, 80
11, 52702, Note_off_c, 9, 38, 64
11, 52704, Note_on_c, 9, 36, 100
11, 52798, Note_off_c, 9, 36, 64
11, 52800, Note_on_c, 9, 38, 81
11, 52894, Note_off_c, 9, 38, 64
11, 52896, Note_on_c, 9, 36, 100
11, 52960, Note_on_c, 9, 38, 67
11, 52974, Note_off_c, 9, 38, 64
11, 52976, Note_on_c, 9, 38, 74
11, 52990, Note_off_c, 9, 36, 64
11, 52990, Note_off_c, 9, 38, 64
11, 52992, Note_on_c, 9, 38, 100
11, 53086, Note_off_c, 9, 38, 64
11, 53088, Note_on_c, 9, 36, 100
11, 53182, Note_off_c, 9, 36, 64
11, 53184, Note_on_c, 9, 38, 81
11, 53278, Note_off_c, 9, 38, 64
11, 53280, Note_on_c, 9, 36, 100
11, 53342, Note_off_c, 9, 36, 64
11, 53344, Note_on_c, 9, 38, 100
11, 53374, Note_off_c, 9, 38, 64
11, 53376, Note_on_c, 9, 38, 100
11, 53438, Note_off_c, 9, 38, 64
11, 53440, Note_on_c, 9, 38, 100
11, 53534, Note_off_c, 9, 38, 64
11, 53536, Note_on_c, 9, 38, 100
11, 53566, Note_off_c, 9, 38, 64
11, 53568, Note_on_c, 9, 41, 100
11, 53630, Note_off_c, 9, 41, 64
11, 53632, Note_on_c, 9, 41, 100
11, 53694, Note_off_c, 9, 41, 64
11, 53728, Note_on_c, 9, 45, 100
11, 53758, Note_off_c, 9, 45, 64
11, 53760, Note_on_c, 9, 43, 100
11, 53854, Note_off_c, 9, 43, 64
11, 53856, Note_on_c, 9, 36, 100
11, 53856, Note_on_c, 9, 49, 100
11, 53950, Note_off_c, 9, 49, 64
11, 53950, Note_off_c, 9, 36, 64
11, 53952, Note_on_c, 9, 38, 79
11, 54046, Note_off_c, 9, 38, 64
11, 54048, Note_on_c, 9, 36, 100
11, 54142, Note_off_c, 9, 36, 64
11, 54144, Note_on_c, 9, 38, 81
11, 54238, Note_off_c, 9, 38, 64
11, 54240, Note_on_c, 9, 36, 100
11, 54334, Note_off_c, 9, 36, 64
11, 54336, Note_on_c, 9, 38, 79
11, 54430, Note_off_c, 9, 38, 64
11, 54432, Note_on_c, 9, 36, 100
11, 54526, Note_off_c, 9, 36, 64
11, 54528, Note_on_c, 9, 38, 81
11, 54622, Note_off_c, 9, 38, 64
11, 54624, Note_on_c, 9, 36, 100
11, 54718, Note_off_c, 9, 36, 64
11, 54720, Note_on_c, 9, 38, 80
11, 54814, Note_off_c, 9, 38, 64
11, 54816, Note_on_c, 9, 36, 100
11, 54880, Note_on_c, 9, 38, 100
11, 54894, Note_off_c, 9, 36, 64
11, 54910, Note_off_c, 9, 38, 64
11, 54912, Note_on_c, 9, 38, 100
11, 54942, Note_off_c, 9, 38, 64
11, 54944, Note_on_c, 9, 38, 100
11, 54974, Note_off_c, 9, 38, 64
11, 54976, Note_on_c, 9, 38, 100
11, 55006, Note_off_c, 9, 38, 64
11, 55008, Note_on_c, 9, 38, 100
11, 55072, Note_on_c, 9, 43, 100
11, 55086, Note_off_c, 9, 38, 64
11, 55102, Note_off_c, 9, 43, 64
11, 55104, Note_on_c, 9, 43, 100
11, 55134, Note_off_c, 9, 43, 64
11, 55136, Note_on_c, 9, 43, 100
11, 55166, Note_off_c, 9, 43, 64
11, 55168, Note_on_c, 9, 43, 100
11, 55198, Note_off_c, 9, 43, 64
11, 55200, Note_on_c, 9, 43, 100
11, 55262, Note_off_c, 9, 43, 64
11, 55264, Note_on_c, 9, 41, 100
11, 55294, Note_off_c, 9, 41, 64
11, 55296, Note_on_c, 9, 41, 100
11, 55326, Note_off_c, 9, 41, 64
11, 55328, Note_on_c, 9, 41, 100
11, 55358, Note_off_c, 9, 41, 64
11, 55360, Note_on_c, 9, 41, 100
11, 55390, Note_off_c, 9, 41, 64
11, 55392, Note_on_c, 9, 41, 100
11, 55392, Note_on_c, 9, 36, 100
11, 55392, Note_on_c, 9, 49, 100
11, 55486, Note_off_c, 9, 49, 64
11, 55486, Note_off_c, 9, 36, 64
11, 55486, Note_off_c, 9, 41, 64
11, 55488, Note_on_c, 9, 38, 81
11, 55582, Note_off_c, 9, 38, 64
11, 55584, Note_on_c, 9, 36, 100
11, 55678, Note_off_c, 9, 36, 64
11, 55680, Note_on_c, 9, 38, 80
11, 55774, Note_off_c, 9, 38, 64
11, 55776, Note_on_c, 9, 36, 100
11, 55870, Note_off_c, 9, 36, 64
11, 55872, Note_on_c, 9, 38, 79
11, 55966, Note_off_c, 9, 38, 64
11, 55968, Note_on_c, 9, 36, 100
11, 56032, Note_on_c, 9, 41, 100
11, 56062, Note_off_c, 9, 41, 64
11, 56062, Note_off_c, 9, 36, 64
11, 56064, Note_on_c, 9, 38, 100
11, 56094, Note_off_c, 9, 38, 64
11, 56096, Note_on_c, 9, 41, 100
11, 56126, Note_off_c, 9, 41, 64
11, 56128, Note_on_c, 9, 38, 100
11, 56158, Note_off_c, 9, 38, 64
11, 56160, Note_on_c, 9, 38, 100
11, 56160, Note_on_c, 9, 36, 100
11, 56254, Note_off_c, 9, 36, 64
11, 56254, Note_off_c, 9, 38, 64
11, 56256, Note_on_c, 9, 38, 100
11, 56350, Note_off_c, 9, 38, 64
11, 56416, Note_on_c, 9, 38, 100
11, 56446, Note_off_c, 9, 38, 64
11, 56448, Note_on_c, 9, 41, 100
11, 56510, Note_off_c, 9, 41, 64
11, 56512, Note_on_c, 9, 41, 100
11, 56574, Note_off_c, 9, 41, 64
11, 56608, Note_on_c, 9, 38, 100
11, 56638, Note_off_c, 9, 38, 64
11, 56640, Note_on_c, 9, 41, 100
11, 56702, Note_off_c, 9, 41, 64
11, 56704, Note_on_c, 9, 41, 100
11, 56766, Note_off_c, 9, 41, 64
11, 56832, Note_on_c, 9, 41, 100
11, 56910, Note_off_c, 9, 41, 64
11, 56928, Note_on_c, 9, 36, 100
11, 56928, Note_on_c, 9, 49, 100
11, 57022, Note_off_c, 9, 49, 64
11, 57022, Note_off_c, 9, 36, 64
11, 57120, Note_on_c, 9, 38, 100
11, 57214, Note_off_c, 9, 38, 64
11, 57216, Note_on_c, 9, 36, 100
11, 57310, Note_off_c, 9, 36, 64
11, 57312, Note_on_c, 9, 36, 100
11, 57406, Note_off_c, 9, 36, 64
11, 57408, Note_on_c, 9, 36, 100
11, 57502, Note_off_c, 9, 36, 64
11, 57504, Note_on_c, 9, 36, 100
11, 57534, Note_off_c, 9, 36, 64
11, 57536, Note_on_c, 9, 36, 100
11, 57566, Note_off_c, 9, 36, 64
11, 57568, Note_on_c, 9, 36, 100
11, 57598, Note_off_c, 9, 36, 64
11, 57600, Note_on_c, 9, 36, 100
11, 57694, Note_off_c, 9, 36, 64
11, 57696, Note_on_c, 9, 36, 100
11, 57790, Note_off_c, 9, 36, 64
11, 57792, Note_on_c, 9, 36, 100
11, 57886, Note_off_c, 9, 36, 64
11, 57888, Note_on_c, 9, 38, 100
11, 57982, Note_off_c, 9, 38, 64
11, 57984, Note_on_c, 9, 36, 100
11, 58078, Note_off_c, 9, 36, 64
11, 58176, Note_on_c, 9, 43, 100
11, 58270, Note_off_c, 9, 43, 64
11, 58344, Note_on_c, 9, 43, 100
11, 58366, Note_off_c, 9, 43, 64
11, 58368, Note_on_c, 9, 36, 100
11, 58446, Note_off_c, 9, 36, 64
11, 58464, Note_on_c, 9, 36, 100
11, 58558, Note_off_c, 9, 36, 64
11, 58560, Note_on_c, 9, 38, 82
11, 58654, Note_off_c, 9, 38, 64
11, 58656, Note_on_c, 9, 36, 100
11, 58750, Note_off_c, 9, 36, 64
11, 58752, Note_on_c, 9, 38, 81
11, 58846, Note_off_c, 9, 38, 64
11, 58848, Note_on_c, 9, 36, 100
11, 58942, Note_off_c, 9, 36, 64
11, 58944, Note_on_c, 9, 38, 80
11, 59038, Note_off_c, 9, 38, 64
11, 59040, Note_on_c, 9, 36, 100
11, 59134, Note_off_c, 9, 36, 64
11, 59136, Note_on_c, 9, 38, 81
11, 59230, Note_off_c, 9, 38, 64
11, 59232, Note_on_c, 9, 36, 100
11, 59326, Note_off_c, 9, 36, 64
11, 59328, Note_on_c, 9, 38, 82
11, 59358, Note_off_c, 9, 38, 64
11, 59360, Note_on_c, 9, 38, 82
11, 59390, Note_off_c, 9, 38, 64
11, 59392, Note_on_c, 9, 38, 82
11, 59422, Note_off_c, 9, 38, 64
11, 59424, Note_on_c, 9, 43, 80
11, 59454, Note_off_c, 9, 43, 64
11, 59456, Note_on_c, 9, 38, 80
11, 59486, Note_off_c, 9, 38, 64
11, 59488, Note_on_c, 9, 43, 79
11, 59518, Note_off_c, 9, 43, 64
11, 59520, Note_on_c, 9, 43, 79
11, 59614, Note_off_c, 9, 43, 64
11, 59616, Note_on_c, 9, 36, 80
11, 59710, Note_off_c, 9, 36, 64
11, 59712, Note_on_c, 9, 38, 82
11, 59806, Note_off_c, 9, 38, 64
11, 59808, Note_on_c, 9, 36, 82
11, 59902, Note_off_c, 9, 36, 64
11, 59904, Note_on_c, 9, 38, 82
11, 59998, Note_off_c, 9, 38, 64
11, 60000, Note_on_c, 9, 36, 83
11, 60094, Note_off_c, 9, 36, 64
11, 60096, Note_on_c, 9, 38, 83
11, 60190, Note_off_c, 9, 38, 64
11, 60192, Note_on_c, 9, 36, 83
11, 60254, Note_off_c, 9, 36, 64
11, 60256, Note_on_c, 9, 38, 83
11, 60286, Note_off_c, 9, 38, 64
11, 60288, Note_on_c, 9, 38, 83
11, 60350, Note_off_c, 9, 38, 64
11, 60352, Note_on_c, 9, 36, 80
11, 60352, Note_on_c, 9, 43, 80
11, 60430, Note_off_c, 9, 43, 64
11, 60430, Note_off_c, 9, 36, 64
11, 60448, Note_on_c, 9, 38, 79
11, 60478, Note_off_c, 9, 38, 64
11, 60480, Note_on_c, 9, 43, 80
11, 60480, Note_on_c, 9, 36, 80
11, 60542, Note_off_c, 9, 36, 64
11, 60542, Note_off_c, 9, 43, 64
11, 60544, Note_on_c, 9, 43, 80
11, 60544, Note_on_c, 9, 36, 80
11, 60622, Note_off_c, 9, 36, 64
11, 60622, Note_off_c, 9, 43, 64
11, 60640, Note_on_c, 9, 38, 82
11, 60670, Note_off_c, 9, 38, 64
11, 60672, Note_on_c, 9, 43, 82
11, 60672, Note_on_c, 9, 36, 82
11, 60734, Note_off_c, 9, 36, 64
11, 60734, Note_off_c, 9, 43, 64
11, 60736, Note_on_c, 9, 43, 83
11, 60736, Note_on_c, 9, 36, 83
11, 60814, Note_off_c, 9, 43, 64
11, 60830, Note_off_c, 9, 36, 64
11, 60832, Note_on_c, 9, 38, 86
11, 60862, Note_off_c, 9, 38, 64
11, 60864, Note_on_c, 9, 43, 85
11, 60864, Note_on_c, 9, 36, 85
11, 60926, Note_off_c, 9, 36, 64
11, 60926, Note_off_c, 9, 43, 64
11, 60928, Note_on_c, 9, 43, 100
11, 60928, Note_on_c, 9, 36, 100
11, 61022, Note_off_c, 9, 36, 64
11, 61022, Note_off_c, 9, 43, 64
11, 61024, Note_on_c, 9, 43, 100
11, 61024, Note_on_c, 9, 36, 100
11, 61054, Note_off_c, 9, 36, 64
11, 61054, Note_off_c, 9, 43, 64
11, 61056, Note_on_c, 9, 43, 100
11, 61056, Note_on_c, 9, 36, 100
11, 61134, Note_off_c, 9, 36, 64
11, 61134, Note_off_c, 9, 43, 64
11, 61152, Note_on_c, 9, 36, 81
11, 61246, Note_off_c, 9, 36, 64
11, 61248, Note_on_c, 9, 38, 83
11, 61342, Note_off_c, 9, 38, 64
11, 61344, Note_on_c, 9, 36, 80
11, 61438, Note_off_c, 9, 36, 64
11, 61440, Note_on_c, 9, 38, 80
11, 61534, Note_off_c, 9, 38, 64
11, 61536, Note_on_c, 9, 36, 80
11, 61630, Note_off_c, 9, 36, 64
11, 61632, Note_on_c, 9, 38, 80
11, 61726, Note_off_c, 9, 38, 64
11, 61728, Note_on_c, 9, 36, 81
11, 61822, Note_off_c, 9, 36, 64
11, 61824, Note_on_c, 9, 38, 82
11, 61918, Note_off_c, 9, 38, 64
11, 61984, Note_on_c, 9, 38, 82
11, 62014, Note_off_c, 9, 38, 64
11, 62016, Note_on_c, 9, 36, 82
11, 62078, Note_off_c, 9, 36, 64
11, 62080, Note_on_c, 9, 36, 82
11, 62142, Note_off_c, 9, 36, 64
11, 62208, Note_on_c, 9, 38, 81
11, 62302, Note_off_c, 9, 38, 64
11, 62304, Note_on_c, 9, 36, 79
11, 62398, Note_off_c, 9, 36, 64
11, 62400, Note_on_c, 9, 38, 80
11, 62494, Note_off_c, 9, 38, 64
11, 62496, Note_on_c, 9, 36, 79
11, 62590, Note_off_c, 9, 36, 64
11, 62592, Note_on_c, 9, 38, 81
11, 62686, Note_off_c, 9, 38, 64
11, 62784, Note_on_c, 9, 44, 80
11, 62878, Note_off_c, 9, 44, 64
11, 63072, Note_on_c, 9, 36, 75
11, 63166, Note_off_c, 9, 36, 64
11, 63168, Note_on_c, 9, 44, 82
11, 63262, Note_off_c, 9, 44, 64
11, 63264, Note_on_c, 9, 36, 74
11, 63358, Note_off_c, 9, 36, 64
11, 63360, Note_on_c, 9, 44, 80
11, 63454, Note_off_c, 9, 44, 64
11, 63552, Note_on_c, 9, 46, 80
11, 63646, Note_off_c, 9, 46, 64
11, 63840, Note_on_c, 9, 46, 100
11, 63934, Note_off_c, 9, 46, 64
11, 64224, Note_on_c, 9, 36, 82
11, 64318, Note_off_c, 9, 36, 64
11, 64320, Note_on_c, 9, 40, 82
11, 64414, Note_off_c, 9, 40, 64
11, 64416, Note_on_c, 9, 36, 82
11, 64510, Note_off_c, 9, 36, 64
11, 64512, Note_on_c, 9, 40, 82
11, 64606, Note_off_c, 9, 40, 64
11, 64608, Note_on_c, 9, 36, 82
11, 64702, Note_off_c, 9, 36, 64
11, 64704, Note_on_c, 9, 40, 82
11, 64798, Note_off_c, 9, 40, 64
11, 64800, Note_on_c, 9, 36, 82
11, 64894, Note_off_c, 9, 36, 64
11, 64896, Note_on_c, 9, 40, 82
11, 64990, Note_off_c, 9, 40, 64
11, 65088, Note_on_c, 9, 40, 82
11, 65182, Note_off_c, 9, 40, 64
11, 65376, Note_on_c, 9, 36, 82
11, 65470, Note_off_c, 9, 36, 64
11, 65472, Note_on_c, 9, 40, 82
11, 65566, Note_off_c, 9, 40, 64
11, 65760, Note_on_c, 9, 36, 82
11, 65854, Note_off_c, 9, 36, 64
11, 65856, Note_on_c, 9, 40, 82
11, 65950, Note_off_c, 9, 40, 64
11, 65952, Note_on_c, 9, 36, 82
11, 66046, Note_off_c, 9, 36, 64
11, 66048, Note_on_c, 9, 40, 82
11, 66142, Note_off_c, 9, 40, 64
11, 66144, Note_on_c, 9, 36, 82
11, 66238, Note_off_c, 9, 36, 64
11, 66240, Note_on_c, 9, 40, 82
11, 66240, Note_on_c, 9, 46, 82
11, 66334, Note_off_c, 9, 46, 64
11, 66334, Note_off_c, 9, 40, 64
11, 71520, Control_c, 9, 7, 100
11, 71520, End_track
12, 0, Start_track
12, 0, Title_t, "More percussion"
12, 0, Channel_prefix, 9
12, 0, Control_c, 9, 7, 90
12, 0, Program_c, 9, 0
12, 3744, Note_on_c, 9, 44, 50
12, 3838, Note_off_c, 9, 44, 64
12, 3840, Note_on_c, 9, 44, 50
12, 3934, Note_off_c, 9, 44, 64
12, 3936, Note_on_c, 9, 44, 50
12, 4030, Note_off_c, 9, 44, 64
12, 4032, Note_on_c, 9, 44, 50
12, 4126, Note_off_c, 9, 44, 64
12, 4128, Note_on_c, 9, 44, 50
12, 4222, Note_off_c, 9, 44, 64
12, 4224, Note_on_c, 9, 44, 50
12, 4318, Note_off_c, 9, 44, 64
12, 4320, Note_on_c, 9, 44, 50
12, 4414, Note_off_c, 9, 44, 64
12, 4416, Note_on_c, 9, 44, 50
12, 4510, Note_off_c, 9, 44, 64
12, 4512, Note_on_c, 9, 44, 50
12, 4606, Note_off_c, 9, 44, 64
12, 4608, Note_on_c, 9, 44, 50
12, 4702, Note_off_c, 9, 44, 64
12, 4704, Note_on_c, 9, 44, 50
12, 4798, Note_off_c, 9, 44, 64
12, 4800, Note_on_c, 9, 44, 50
12, 4894, Note_off_c, 9, 44, 64
12, 4896, Note_on_c, 9, 44, 50
12, 4990, Note_off_c, 9, 44, 64
12, 4992, Note_on_c, 9, 44, 50
12, 5086, Note_off_c, 9, 44, 64
12, 5088, Note_on_c, 9, 44, 50
12, 5182, Note_off_c, 9, 44, 64
12, 5184, Note_on_c, 9, 44, 50
12, 5278, Note_off_c, 9, 44, 64
12, 5280, Note_on_c, 9, 44, 50
12, 5374, Note_off_c, 9, 44, 64
12, 5376, Note_on_c, 9, 44, 50
12, 5470, Note_off_c, 9, 44, 64
12, 5472, Note_on_c, 9, 44, 50
12, 5566, Note_off_c, 9, 44, 64
12, 5568, Note_on_c, 9, 44, 50
12, 5662, Note_off_c, 9, 44, 64
12, 5664, Note_on_c, 9, 44, 50
12, 5758, Note_off_c, 9, 44, 64
12, 5760, Note_on_c, 9, 44, 50
12, 5854, Note_off_c, 9, 44, 64
12, 5856, Note_on_c, 9, 44, 50
12, 5950, Note_off_c, 9, 44, 64
12, 5952, Note_on_c, 9, 44, 50
12, 6046, Note_off_c, 9, 44, 64
12, 6048, Note_on_c, 9, 44, 50
12, 6142, Note_off_c, 9, 44, 64
12, 6144, Note_on_c, 9, 44, 50
12, 6238, Note_off_c, 9, 44, 64
12, 6240, Note_on_c, 9, 44, 50
12, 6334, Note_off_c, 9, 44, 64
12, 6336, Note_on_c, 9, 44, 50
12, 6430, Note_off_c, 9, 44, 64
12, 6432, Note_on_c, 9, 44, 50
12, 6526, Note_off_c, 9, 44, 64
12, 6528, Note_on_c, 9, 44, 50
12, 6622, Note_off_c, 9, 44, 64
12, 6624, Note_on_c, 9, 44, 50
12, 6718, Note_off_c, 9, 44, 64
12, 6720, Note_on_c, 9, 44, 50
12, 6814, Note_off_c, 9, 44, 64
12, 6816, Note_on_c, 9, 44, 50
12, 6910, Note_off_c, 9, 44, 64
12, 6912, Note_on_c, 9, 44, 50
12, 7006, Note_off_c, 9, 44, 64
12, 7008, Note_on_c, 9, 44, 50
12, 7102, Note_off_c, 9, 44, 64
12, 7104, Note_on_c, 9, 44, 50
12, 7198, Note_off_c, 9, 44, 64
12, 7200, Note_on_c, 9, 44, 50
12, 7294, Note_off_c, 9, 44, 64
12, 7296, Note_on_c, 9, 44, 50
12, 7390, Note_off_c, 9, 44, 64
12, 7392, Note_on_c, 9, 44, 50
12, 7486, Note_off_c, 9, 44, 64
12, 7488, Note_on_c, 9, 44, 50
12, 7582, Note_off_c, 9, 44, 64
12, 7584, Note_on_c, 9, 44, 50
12, 7678, Note_off_c, 9, 44, 64
12, 7680, Note_on_c, 9, 44, 50
12, 7774, Note_off_c, 9, 44, 64
12, 7776, Note_on_c, 9, 44, 50
12, 7870, Note_off_c, 9, 44, 64
12, 7872, Note_on_c, 9, 44, 50
12, 7966, Note_off_c, 9, 44, 64
12, 7968, Note_on_c, 9, 44, 50
12, 8062, Note_off_c, 9, 44, 64
12, 8064, Note_on_c, 9, 44, 50
12, 8158, Note_off_c, 9, 44, 64
12, 8160, Note_on_c, 9, 44, 50
12, 8254, Note_off_c, 9, 44, 64
12, 8256, Note_on_c, 9, 44, 50
12, 8350, Note_off_c, 9, 44, 64
12, 8352, Note_on_c, 9, 44, 50
12, 8446, Note_off_c, 9, 44, 64
12, 8448, Note_on_c, 9, 44, 50
12, 8542, Note_off_c, 9, 44, 64
12, 8544, Note_on_c, 9, 44, 50
12, 8638, Note_off_c, 9, 44, 64
12, 8640, Note_on_c, 9, 44, 50
12, 8734, Note_off_c, 9, 44, 64
12, 8736, Note_on_c, 9, 44, 50
12, 8830, Note_off_c, 9, 44, 64
12, 8832, Note_on_c, 9, 44, 50
12, 8926, Note_off_c, 9, 44, 64
12, 8928, Note_on_c, 9, 44, 50
12, 9022, Note_off_c, 9, 44, 64
12, 9024, Note_on_c, 9, 44, 50
12, 9118, Note_off_c, 9, 44, 64
12, 9120, Note_on_c, 9, 44, 50
12, 9214, Note_off_c, 9, 44, 64
12, 9216, Note_on_c, 9, 44, 50
12, 9310, Note_off_c, 9, 44, 64
12, 9312, Note_on_c, 9, 44, 50
12, 9406, Note_off_c, 9, 44, 64
12, 9408, Note_on_c, 9, 44, 50
12, 9502, Note_off_c, 9, 44, 64
12, 9504, Note_on_c, 9, 44, 50
12, 9598, Note_off_c, 9, 44, 64
12, 9600, Note_on_c, 9, 44, 50
12, 9694, Note_off_c, 9, 44, 64
12, 9696, Note_on_c, 9, 44, 50
12, 9790, Note_off_c, 9, 44, 64
12, 9792, Note_on_c, 9, 44, 50
12, 9886, Note_off_c, 9, 44, 64
12, 9888, Note_on_c, 9, 44, 50
12, 9982, Note_off_c, 9, 44, 64
12, 9984, Note_on_c, 9, 44, 50
12, 10078, Note_off_c, 9, 44, 64
12, 10080, Note_on_c, 9, 44, 50
12, 10174, Note_off_c, 9, 44, 64
12, 10176, Note_on_c, 9, 44, 50
12, 10270, Note_off_c, 9, 44, 64
12, 10272, Note_on_c, 9, 44, 50
12, 10366, Note_off_c, 9, 44, 64
12, 10368, Note_on_c, 9, 44, 50
12, 10462, Note_off_c, 9, 44, 64
12, 10464, Note_on_c, 9, 44, 50
12, 10558, Note_off_c, 9, 44, 64
12, 10560, Note_on_c, 9, 44, 50
12, 10654, Note_off_c, 9, 44, 64
12, 10656, Note_on_c, 9, 44, 50
12, 10750, Note_off_c, 9, 44, 64
12, 10752, Note_on_c, 9, 44, 50
12, 10846, Note_off_c, 9, 44, 64
12, 10848, Note_on_c, 9, 44, 50
12, 10942, Note_off_c, 9, 44, 64
12, 10944, Note_on_c, 9, 44, 50
12, 11038, Note_off_c, 9, 44, 64
12, 11040, Note_on_c, 9, 44, 50
12, 11134, Note_off_c, 9, 44, 64
12, 11136, Note_on_c, 9, 44, 50
12, 11230, Note_off_c, 9, 44, 64
12, 11232, Note_on_c, 9, 44, 50
12, 11326, Note_off_c, 9, 44, 64
12, 11328, Note_on_c, 9, 44, 50
12, 11422, Note_off_c, 9, 44, 64
12, 11424, Note_on_c, 9, 44, 50
12, 11518, Note_off_c, 9, 44, 64
12, 11520, Note_on_c, 9, 44, 50
12, 11614, Note_off_c, 9, 44, 64
12, 11616, Note_on_c, 9, 44, 50
12, 11710, Note_off_c, 9, 44, 64
12, 11712, Note_on_c, 9, 44, 50
12, 11806, Note_off_c, 9, 44, 64
12, 11808, Note_on_c, 9, 44, 50
12, 11902, Note_off_c, 9, 44, 64
12, 11904, Note_on_c, 9, 44, 50
12, 11998, Note_off_c, 9, 44, 64
12, 12000, Note_on_c, 9, 44, 50
12, 12094, Note_off_c, 9, 44, 64
12, 12096, Note_on_c, 9, 44, 50
12, 12190, Note_off_c, 9, 44, 64
12, 12192, Note_on_c, 9, 44, 50
12, 12286, Note_off_c, 9, 44, 64
12, 12288, Note_on_c, 9, 44, 50
12, 12382, Note_off_c, 9, 44, 64
12, 12384, Note_on_c, 9, 44, 50
12, 12478, Note_off_c, 9, 44, 64
12, 12480, Note_on_c, 9, 44, 50
12, 12574, Note_off_c, 9, 44, 64
12, 12576, Note_on_c, 9, 44, 50
12, 12670, Note_off_c, 9, 44, 64
12, 12672, Note_on_c, 9, 44, 50
12, 12766, Note_off_c, 9, 44, 64
12, 12768, Note_on_c, 9, 44, 50
12, 12862, Note_off_c, 9, 44, 64
12, 12864, Note_on_c, 9, 44, 50
12, 12958, Note_off_c, 9, 44, 64
12, 12960, Note_on_c, 9, 44, 50
12, 13054, Note_off_c, 9, 44, 64
12, 13056, Note_on_c, 9, 44, 50
12, 13150, Note_off_c, 9, 44, 64
12, 13152, Note_on_c, 9, 44, 50
12, 13246, Note_off_c, 9, 44, 64
12, 13248, Note_on_c, 9, 44, 50
12, 13342, Note_off_c, 9, 44, 64
12, 13344, Note_on_c, 9, 44, 50
12, 13438, Note_off_c, 9, 44, 64
12, 13440, Note_on_c, 9, 44, 50
12, 13534, Note_off_c, 9, 44, 64
12, 13536, Note_on_c, 9, 44, 50
12, 13630, Note_off_c, 9, 44, 64
12, 13632, Note_on_c, 9, 44, 50
12, 13726, Note_off_c, 9, 44, 64
12, 13728, Note_on_c, 9, 44, 50
12, 13822, Note_off_c, 9, 44, 64
12, 13824, Note_on_c, 9, 44, 50
12, 13918, Note_off_c, 9, 44, 64
12, 13920, Note_on_c, 9, 44, 50
12, 14014, Note_off_c, 9, 44, 64
12, 14016, Note_on_c, 9, 44, 50
12, 14110, Note_off_c, 9, 44, 64
12, 14112, Note_on_c, 9, 44, 50
12, 14206, Note_off_c, 9, 44, 64
12, 14208, Note_on_c, 9, 44, 50
12, 14302, Note_off_c, 9, 44, 64
12, 14304, Note_on_c, 9, 44, 50
12, 14398, Note_off_c, 9, 44, 64
12, 14400, Note_on_c, 9, 44, 50
12, 14494, Note_off_c, 9, 44, 64
12, 14496, Note_on_c, 9, 44, 50
12, 14590, Note_off_c, 9, 44, 64
12, 14592, Note_on_c, 9, 44, 50
12, 14686, Note_off_c, 9, 44, 64
12, 14688, Note_on_c, 9, 44, 50
12, 14782, Note_off_c, 9, 44, 64
12, 14784, Note_on_c, 9, 44, 50
12, 14878, Note_off_c, 9, 44, 64
12, 14880, Note_on_c, 9, 44, 50
12, 14974, Note_off_c, 9, 44, 64
12, 14976, Note_on_c, 9, 44, 50
12, 15070, Note_off_c, 9, 44, 64
12, 15072, Note_on_c, 9, 44, 50
12, 15166, Note_off_c, 9, 44, 64
12, 15168, Note_on_c, 9, 44, 50
12, 15262, Note_off_c, 9, 44, 64
12, 15264, Note_on_c, 9, 44, 50
12, 15358, Note_off_c, 9, 44, 64
12, 15360, Note_on_c, 9, 44, 50
12, 15454, Note_off_c, 9, 44, 64
12, 15456, Note_on_c, 9, 44, 50
12, 15550, Note_off_c, 9, 44, 64
12, 15552, Note_on_c, 9, 44, 50
12, 15646, Note_off_c, 9, 44, 64
12, 15648, Note_on_c, 9, 44, 50
12, 15742, Note_off_c, 9, 44, 64
12, 15744, Note_on_c, 9, 44, 50
12, 15838, Note_off_c, 9, 44, 64
12, 15840, Note_on_c, 9, 44, 50
12, 15934, Note_off_c, 9, 44, 64
12, 15936, Note_on_c, 9, 44, 50
12, 16030, Note_off_c, 9, 44, 64
12, 16032, Note_on_c, 9, 44, 50
12, 16126, Note_off_c, 9, 44, 64
12, 16128, Note_on_c, 9, 44, 50
12, 16222, Note_off_c, 9, 44, 64
12, 16224, Note_on_c, 9, 44, 50
12, 16318, Note_off_c, 9, 44, 64
12, 16320, Note_on_c, 9, 44, 50
12, 16414, Note_off_c, 9, 44, 64
12, 16416, Note_on_c, 9, 44, 50
12, 16510, Note_off_c, 9, 44, 64
12, 16512, Note_on_c, 9, 44, 50
12, 16606, Note_off_c, 9, 44, 64
12, 16608, Note_on_c, 9, 44, 50
12, 16702, Note_off_c, 9, 44, 64
12, 16704, Note_on_c, 9, 44, 50
12, 16798, Note_off_c, 9, 44, 64
12, 16800, Note_on_c, 9, 44, 50
12, 16894, Note_off_c, 9, 44, 64
12, 16896, Note_on_c, 9, 44, 50
12, 16990, Note_off_c, 9, 44, 64
12, 16992, Note_on_c, 9, 44, 50
12, 17086, Note_off_c, 9, 44, 64
12, 17088, Note_on_c, 9, 44, 50
12, 17182, Note_off_c, 9, 44, 64
12, 17184, Note_on_c, 9, 44, 50
12, 17278, Note_off_c, 9, 44, 64
12, 17280, Note_on_c, 9, 44, 50
12, 17374, Note_off_c, 9, 44, 64
12, 17376, Note_on_c, 9, 44, 50
12, 17470, Note_off_c, 9, 44, 64
12, 17472, Note_on_c, 9, 44, 50
12, 17566, Note_off_c, 9, 44, 64
12, 17568, Note_on_c, 9, 44, 50
12, 17662, Note_off_c, 9, 44, 64
12, 17664, Note_on_c, 9, 44, 50
12, 17758, Note_off_c, 9, 44, 64
12, 17760, Note_on_c, 9, 44, 50
12, 17854, Note_off_c, 9, 44, 64
12, 17856, Note_on_c, 9, 44, 50
12, 17950, Note_off_c, 9, 44, 64
12, 17952, Note_on_c, 9, 44, 50
12, 18046, Note_off_c, 9, 44, 64
12, 18048, Note_on_c, 9, 44, 50
12, 18142, Note_off_c, 9, 44, 64
12, 18144, Note_on_c, 9, 44, 50
12, 18238, Note_off_c, 9, 44, 64
12, 18240, Note_on_c, 9, 44, 50
12, 18334, Note_off_c, 9, 44, 64
12, 18336, Note_on_c, 9, 44, 50
12, 18430, Note_off_c, 9, 44, 64
12, 18432, Note_on_c, 9, 44, 50
12, 18526, Note_off_c, 9, 44, 64
12, 18528, Note_on_c, 9, 44, 50
12, 18622, Note_off_c, 9, 44, 64
12, 18624, Note_on_c, 9, 44, 50
12, 18718, Note_off_c, 9, 44, 64
12, 18720, Note_on_c, 9, 44, 50
12, 18814, Note_off_c, 9, 44, 64
12, 18816, Note_on_c, 9, 44, 50
12, 18910, Note_off_c, 9, 44, 64
12, 18912, Note_on_c, 9, 44, 50
12, 19006, Note_off_c, 9, 44, 64
12, 19008, Note_on_c, 9, 44, 50
12, 19102, Note_off_c, 9, 44, 64
12, 19104, Note_on_c, 9, 44, 50
12, 19198, Note_off_c, 9, 44, 64
12, 19200, Note_on_c, 9, 44, 50
12, 19294, Note_off_c, 9, 44, 64
12, 19296, Note_on_c, 9, 44, 50
12, 19390, Note_off_c, 9, 44, 64
12, 19392, Note_on_c, 9, 44, 50
12, 19486, Note_off_c, 9, 44, 64
12, 19488, Note_on_c, 9, 44, 50
12, 19582, Note_off_c, 9, 44, 64
12, 19584, Note_on_c, 9, 44, 50
12, 19678, Note_off_c, 9, 44, 64
12, 19680, Note_on_c, 9, 44, 50
12, 19774, Note_off_c, 9, 44, 64
12, 19776, Note_on_c, 9, 44, 50
12, 19870, Note_off_c, 9, 44, 64
12, 19872, Note_on_c, 9, 44, 50
12, 19966, Note_off_c, 9, 44, 64
12, 19968, Note_on_c, 9, 44, 50
12, 20062, Note_off_c, 9, 44, 64
12, 20064, Note_on_c, 9, 44, 50
12, 20158, Note_off_c, 9, 44, 64
12, 20160, Note_on_c, 9, 44, 50
12, 20254, Note_off_c, 9, 44, 64
12, 20256, Note_on_c, 9, 44, 50
12, 20350, Note_off_c, 9, 44, 64
12, 20352, Note_on_c, 9, 44, 50
12, 20446, Note_off_c, 9, 44, 64
12, 20448, Note_on_c, 9, 44, 50
12, 20542, Note_off_c, 9, 44, 64
12, 20544, Note_on_c, 9, 44, 50
12, 20638, Note_off_c, 9, 44, 64
12, 20640, Note_on_c, 9, 44, 50
12, 20734, Note_off_c, 9, 44, 64
12, 20736, Note_on_c, 9, 44, 50
12, 20830, Note_off_c, 9, 44, 64
12, 20832, Note_on_c, 9, 44, 50
12, 20926, Note_off_c, 9, 44, 64
12, 20928, Note_on_c, 9, 44, 50
12, 21022, Note_off_c, 9, 44, 64
12, 21024, Note_on_c, 9, 44, 50
12, 21118, Note_off_c, 9, 44, 64
12, 21120, Note_on_c, 9, 44, 50
12, 21214, Note_off_c, 9, 44, 64
12, 21216, Note_on_c, 9, 44, 50
12, 21310, Note_off_c, 9, 44, 64
12, 21312, Note_on_c, 9, 44, 50
12, 21406, Note_off_c, 9, 44, 64
12, 21408, Note_on_c, 9, 44, 50
12, 21502, Note_off_c, 9, 44, 64
12, 21504, Note_on_c, 9, 44, 50
12, 21598, Note_off_c, 9, 44, 64
12, 21600, Note_on_c, 9, 44, 50
12, 21694, Note_off_c, 9, 44, 64
12, 21696, Note_on_c, 9, 44, 50
12, 21790, Note_off_c, 9, 44, 64
12, 21792, Note_on_c, 9, 44, 50
12, 21886, Note_off_c, 9, 44, 64
12, 21888, Note_on_c, 9, 44, 50
12, 21982, Note_off_c, 9, 44, 64
12, 21984, Note_on_c, 9, 44, 50
12, 22078, Note_off_c, 9, 44, 64
12, 22080, Note_on_c, 9, 44, 50
12, 22174, Note_off_c, 9, 44, 64
12, 22176, Note_on_c, 9, 44, 50
12, 22270, Note_off_c, 9, 44, 64
12, 22272, Note_on_c, 9, 44, 50
12, 22366, Note_off_c, 9, 44, 64
12, 22368, Note_on_c, 9, 44, 50
12, 22462, Note_off_c, 9, 44, 64
12, 22464, Note_on_c, 9, 44, 50
12, 22558, Note_off_c, 9, 44, 64
12, 22560, Note_on_c, 9, 44, 50
12, 22654, Note_off_c, 9, 44, 64
12, 22656, Note_on_c, 9, 44, 50
12, 22750, Note_off_c, 9, 44, 64
12, 22752, Note_on_c, 9, 44, 50
12, 22846, Note_off_c, 9, 44, 64
12, 22848, Note_on_c, 9, 44, 50
12, 22942, Note_off_c, 9, 44, 64
12, 22944, Note_on_c, 9, 44, 50
12, 23038, Note_off_c, 9, 44, 64
12, 23040, Note_on_c, 9, 44, 50
12, 23134, Note_off_c, 9, 44, 64
12, 23136, Note_on_c, 9, 44, 50
12, 23230, Note_off_c, 9, 44, 64
12, 23232, Note_on_c, 9, 44, 50
12, 23326, Note_off_c, 9, 44, 64
12, 23328, Note_on_c, 9, 44, 50
12, 23422, Note_off_c, 9, 44, 64
12, 23424, Note_on_c, 9, 44, 50
12, 23518, Note_off_c, 9, 44, 64
12, 23520, Note_on_c, 9, 44, 50
12, 23614, Note_off_c, 9, 44, 64
12, 23616, Note_on_c, 9, 44, 50
12, 23710, Note_off_c, 9, 44, 64
12, 23712, Note_on_c, 9, 44, 50
12, 23806, Note_off_c, 9, 44, 64
12, 23808, Note_on_c, 9, 44, 50
12, 23902, Note_off_c, 9, 44, 64
12, 23904, Note_on_c, 9, 44, 50
12, 23998, Note_off_c, 9, 44, 64
12, 24000, Note_on_c, 9, 44, 50
12, 24094, Note_off_c, 9, 44, 64
12, 24096, Note_on_c, 9, 44, 50
12, 24190, Note_off_c, 9, 44, 64
12, 24192, Note_on_c, 9, 44, 50
12, 24286, Note_off_c, 9, 44, 64
12, 24288, Note_on_c, 9, 44, 50
12, 24382, Note_off_c, 9, 44, 64
12, 24384, Note_on_c, 9, 44, 50
12, 24478, Note_off_c, 9, 44, 64
12, 24480, Note_on_c, 9, 44, 50
12, 24574, Note_off_c, 9, 44, 64
12, 24576, Note_on_c, 9, 44, 50
12, 24670, Note_off_c, 9, 44, 64
12, 24672, Note_on_c, 9, 44, 50
12, 24766, Note_off_c, 9, 44, 64
12, 24768, Note_on_c, 9, 44, 50
12, 24862, Note_off_c, 9, 44, 64
12, 24864, Note_on_c, 9, 44, 50
12, 24958, Note_off_c, 9, 44, 64
12, 24960, Note_on_c, 9, 44, 50
12, 25054, Note_off_c, 9, 44, 64
12, 25056, Note_on_c, 9, 44, 50
12, 25150, Note_off_c, 9, 44, 64
12, 25152, Note_on_c, 9, 44, 50
12, 25246, Note_off_c, 9, 44, 64
12, 25248, Note_on_c, 9, 44, 50
12, 25342, Note_off_c, 9, 44, 64
12, 25344, Note_on_c, 9, 44, 50
12, 25438, Note_off_c, 9, 44, 64
12, 25440, Note_on_c, 9, 44, 50
12, 25534, Note_off_c, 9, 44, 64
12, 25536, Note_on_c, 9, 44, 50
12, 25630, Note_off_c, 9, 44, 64
12, 25632, Note_on_c, 9, 44, 50
12, 25726, Note_off_c, 9, 44, 64
12, 25728, Note_on_c, 9, 44, 50
12, 25822, Note_off_c, 9, 44, 64
12, 25824, Note_on_c, 9, 44, 50
12, 25918, Note_off_c, 9, 44, 64
12, 25920, Note_on_c, 9, 44, 50
12, 26014, Note_off_c, 9, 44, 64
12, 26016, Note_on_c, 9, 44, 50
12, 26110, Note_off_c, 9, 44, 64
12, 26112, Note_on_c, 9, 44, 50
12, 26206, Note_off_c, 9, 44, 64
12, 26208, Note_on_c, 9, 44, 50
12, 26302, Note_off_c, 9, 44, 64
12, 26304, Note_on_c, 9, 44, 50
12, 26398, Note_off_c, 9, 44, 64
12, 26400, Note_on_c, 9, 44, 50
12, 26494, Note_off_c, 9, 44, 64
12, 26496, Note_on_c, 9, 44, 50
12, 26590, Note_off_c, 9, 44, 64
12, 26592, Note_on_c, 9, 44, 50
12, 26686, Note_off_c, 9, 44, 64
12, 26688, Note_on_c, 9, 44, 50
12, 26782, Note_off_c, 9, 44, 64
12, 34960, Note_on_c, 9, 81, 50
12, 34974, Note_off_c, 9, 81, 64
12, 34976, Note_on_c, 9, 81, 50
12, 34990, Note_off_c, 9, 81, 64
12, 34992, Note_on_c, 9, 81, 50
12, 35006, Note_off_c, 9, 81, 64
12, 35008, Note_on_c, 9, 81, 50
12, 35022, Note_off_c, 9, 81, 64
12, 35024, Note_on_c, 9, 81, 50
12, 35038, Note_off_c, 9, 81, 64
12, 35040, Note_on_c, 9, 81, 50
12, 35054, Note_off_c, 9, 81, 64
12, 35056, Note_on_c, 9, 81, 50
12, 35070, Note_off_c, 9, 81, 64
12, 35072, Note_on_c, 9, 81, 50
12, 35086, Note_off_c, 9, 81, 64
12, 35088, Note_on_c, 9, 81, 50
12, 35102, Note_off_c, 9, 81, 64
12, 35104, Note_on_c, 9, 81, 50
12, 35118, Note_off_c, 9, 81, 64
12, 35120, Note_on_c, 9, 81, 50
12, 35134, Note_off_c, 9, 81, 64
12, 35136, Note_on_c, 9, 81, 50
12, 35150, Note_off_c, 9, 81, 64
12, 35152, Note_on_c, 9, 81, 50
12, 35166, Note_off_c, 9, 81, 64
12, 35168, Note_on_c, 9, 81, 50
12, 35182, Note_off_c, 9, 81, 64
12, 35184, Note_on_c, 9, 81, 50
12, 35198, Note_off_c, 9, 81, 64
12, 35200, Note_on_c, 9, 81, 50
12, 35214, Note_off_c, 9, 81, 64
12, 35216, Note_on_c, 9, 81, 50
12, 35230, Note_off_c, 9, 81, 64
12, 35232, Note_on_c, 9, 81, 50
12, 35246, Note_off_c, 9, 81, 64
12, 35248, Note_on_c, 9, 81, 50
12, 35262, Note_off_c, 9, 81, 64
12, 35264, Note_on_c, 9, 81, 50
12, 35278, Note_off_c, 9, 81, 64
12, 35280, Note_on_c, 9, 81, 50
12, 35294, Note_off_c, 9, 81, 64
12, 35296, Note_on_c, 9, 81, 50
12, 35310, Note_off_c, 9, 81, 64
12, 35312, Note_on_c, 9, 81, 50
12, 35326, Note_off_c, 9, 81, 64
12, 35328, Note_on_c, 9, 81, 50
12, 35342, Note_off_c, 9, 81, 64
12, 35344, Note_on_c, 9, 81, 50
12, 35358, Note_off_c, 9, 81, 64
12, 35360, Note_on_c, 9, 81, 50
12, 35374, Note_off_c, 9, 81, 64
12, 35376, Note_on_c, 9, 81, 50
12, 35390, Note_off_c, 9, 81, 64
12, 35392, Note_on_c, 9, 81, 50
12, 35406, Note_off_c, 9, 81, 64
12, 35408, Note_on_c, 9, 81, 50
12, 35422, Note_off_c, 9, 81, 64
12, 50784, Note_on_c, 9, 44, 50
12, 50878, Note_off_c, 9, 44, 64
12, 50880, Note_on_c, 9, 44, 50
12, 50974, Note_off_c, 9, 44, 64
12, 50976, Note_on_c, 9, 44, 50
12, 51070, Note_off_c, 9, 44, 64
12, 51072, Note_on_c, 9, 44, 50
12, 51166, Note_off_c, 9, 44, 64
12, 51168, Note_on_c, 9, 44, 50
12, 51262, Note_off_c, 9, 44, 64
12, 51264, Note_on_c, 9, 44, 50
12, 51358, Note_off_c, 9, 44, 64
12, 51360, Note_on_c, 9, 44, 50
12, 51454, Note_off_c, 9, 44, 64
12, 51456, Note_on_c, 9, 44, 50
12, 51550, Note_off_c, 9, 44, 64
12, 51552, Note_on_c, 9, 44, 50
12, 51646, Note_off_c, 9, 44, 64
12, 51648, Note_on_c, 9, 44, 50
12, 51742, Note_off_c, 9, 44, 64
12, 51744, Note_on_c, 9, 44, 50
12, 51838, Note_off_c, 9, 44, 64
12, 51840, Note_on_c, 9, 44, 50
12, 51934, Note_off_c, 9, 44, 64
12, 51936, Note_on_c, 9, 44, 50
12, 52030, Note_off_c, 9, 44, 64
12, 52032, Note_on_c, 9, 44, 50
12, 52126, Note_off_c, 9, 44, 64
12, 52128, Note_on_c, 9, 44, 50
12, 52222, Note_off_c, 9, 44, 64
12, 52224, Note_on_c, 9, 44, 50
12, 52318, Note_off_c, 9, 44, 64
12, 52320, Note_on_c, 9, 44, 50
12, 52414, Note_off_c, 9, 44, 64
12, 52416, Note_on_c, 9, 44, 50
12, 52510, Note_off_c, 9, 44, 64
12, 52512, Note_on_c, 9, 44, 50
12, 52606, Note_off_c, 9, 44, 64
12, 52608, Note_on_c, 9, 44, 50
12, 52702, Note_off_c, 9, 44, 64
12, 52704, Note_on_c, 9, 44, 50
12, 52798, Note_off_c, 9, 44, 64
12, 52800, Note_on_c, 9, 44, 50
12, 52894, Note_off_c, 9, 44, 64
12, 52896, Note_on_c, 9, 44, 50
12, 52990, Note_off_c, 9, 44, 64
12, 52992, Note_on_c, 9, 44, 50
12, 53086, Note_off_c, 9, 44, 64
12, 53088, Note_on_c, 9, 44, 50
12, 53182, Note_off_c, 9, 44, 64
12, 53184, Note_on_c, 9, 44, 50
12, 53278, Note_off_c, 9, 44, 64
12, 53280, Note_on_c, 9, 44, 50
12, 53374, Note_off_c, 9, 44, 64
12, 53376, Note_on_c, 9, 44, 50
12, 53470, Note_off_c, 9, 44, 64
12, 53472, Note_on_c, 9, 44, 50
12, 53566, Note_off_c, 9, 44, 64
12, 53568, Note_on_c, 9, 44, 50
12, 53662, Note_off_c, 9, 44, 64
12, 53664, Note_on_c, 9, 44, 50
12, 53758, Note_off_c, 9, 44, 64
12, 53760, Note_on_c, 9, 44, 50
12, 53854, Note_off_c, 9, 44, 64
12, 53856, Note_on_c, 9, 44, 50
12, 53950, Note_off_c, 9, 44, 64
12, 53952, Note_on_c, 9, 44, 50
12, 54046, Note_off_c, 9, 44, 64
12, 54048, Note_on_c, 9, 44, 50
12, 54142, Note_off_c, 9, 44, 64
12, 54144, Note_on_c, 9, 44, 50
12, 54238, Note_off_c, 9, 44, 64
12, 54240, Note_on_c, 9, 44, 50
12, 54334, Note_off_c, 9, 44, 64
12, 54336, Note_on_c, 9, 44, 50
12, 54430, Note_off_c, 9, 44, 64
12, 54432, Note_on_c, 9, 44, 50
12, 54526, Note_off_c, 9, 44, 64
12, 54528, Note_on_c, 9, 44, 50
12, 54622, Note_off_c, 9, 44, 64
12, 54624, Note_on_c, 9, 44, 50
12, 54718, Note_off_c, 9, 44, 64
12, 54720, Note_on_c, 9, 44, 50
12, 54814, Note_off_c, 9, 44, 64
12, 54816, Note_on_c, 9, 44, 50
12, 54910, Note_off_c, 9, 44, 64
12, 54912, Note_on_c, 9, 44, 50
12, 55006, Note_off_c, 9, 44, 64
12, 55008, Note_on_c, 9, 44, 50
12, 55102, Note_off_c, 9, 44, 64
12, 55104, Note_on_c, 9, 44, 50
12, 55198, Note_off_c, 9, 44, 64
12, 55200, Note_on_c, 9, 44, 50
12, 55294, Note_off_c, 9, 44, 64
12, 55296, Note_on_c, 9, 44, 50
12, 55390, Note_off_c, 9, 44, 64
12, 55392, Note_on_c, 9, 44, 50
12, 55486, Note_off_c, 9, 44, 64
12, 55488, Note_on_c, 9, 44, 50
12, 55582, Note_off_c, 9, 44, 64
12, 55584, Note_on_c, 9, 44, 50
12, 55678, Note_off_c, 9, 44, 64
12, 55680, Note_on_c, 9, 44, 50
12, 55774, Note_off_c, 9, 44, 64
12, 55776, Note_on_c, 9, 44, 50
12, 55870, Note_off_c, 9, 44, 64
12, 55872, Note_on_c, 9, 44, 50
12, 55966, Note_off_c, 9, 44, 64
12, 55968, Note_on_c, 9, 44, 50
12, 56062, Note_off_c, 9, 44, 64
12, 56064, Note_on_c, 9, 44, 50
12, 56158, Note_off_c, 9, 44, 64
12, 56160, Note_on_c, 9, 44, 50
12, 56254, Note_off_c, 9, 44, 64
12, 56256, Note_on_c, 9, 44, 50
12, 56350, Note_off_c, 9, 44, 64
12, 56352, Note_on_c, 9, 44, 50
12, 56446, Note_off_c, 9, 44, 64
12, 56448, Note_on_c, 9, 44, 50
12, 56542, Note_off_c, 9, 44, 64
12, 56544, Note_on_c, 9, 44, 50
12, 56638, Note_off_c, 9, 44, 64
12, 56640, Note_on_c, 9, 44, 50
12, 56734, Note_off_c, 9, 44, 64
12, 56736, Note_on_c, 9, 44, 50
12, 56830, Note_off_c, 9, 44, 64
12, 56832, Note_on_c, 9, 44, 50
12, 56926, Note_off_c, 9, 44, 64
12, 56928, Note_on_c, 9, 44, 50
12, 57022, Note_off_c, 9, 44, 64
12, 57024, Note_on_c, 9, 44, 50
12, 57118, Note_off_c, 9, 44, 64
12, 57120, Note_on_c, 9, 44, 50
12, 57214, Note_off_c, 9, 44, 64
12, 57216, Note_on_c, 9, 44, 50
12, 57310, Note_off_c, 9, 44, 64
12, 57312, Note_on_c, 9, 44, 50
12, 57406, Note_off_c, 9, 44, 64
12, 57408, Note_on_c, 9, 44, 50
12, 57502, Note_off_c, 9, 44, 64
12, 57504, Note_on_c, 9, 44, 50
12, 57598, Note_off_c, 9, 44, 64
12, 57600, Note_on_c, 9, 44, 50
12, 57694, Note_off_c, 9, 44, 64
12, 57696, Note_on_c, 9, 44, 50
12, 57790, Note_off_c, 9, 44, 64
12, 57792, Note_on_c, 9, 44, 50
12, 57886, Note_off_c, 9, 44, 64
12, 57888, Note_on_c, 9, 44, 50
12, 57982, Note_off_c, 9, 44, 64
12, 57984, Note_on_c, 9, 44, 50
12, 58078, Note_off_c, 9, 44, 64
12, 58080, Note_on_c, 9, 44, 50
12, 58174, Note_off_c, 9, 44, 64
12, 58176, Note_on_c, 9, 44, 50
12, 58270, Note_off_c, 9, 44, 64
12, 58272, Note_on_c, 9, 44, 50
12, 58366, Note_off_c, 9, 44, 64
12, 58368, Note_on_c, 9, 44, 50
12, 58462, Note_off_c, 9, 44, 64
12, 58464, Note_on_c, 9, 44, 50
12, 58558, Note_off_c, 9, 44, 64
12, 58560, Note_on_c, 9, 44, 50
12, 58654, Note_off_c, 9, 44, 64
12, 58656, Note_on_c, 9, 44, 50
12, 58750, Note_off_c, 9, 44, 64
12, 58752, Note_on_c, 9, 44, 50
12, 58846, Note_off_c, 9, 44, 64
12, 58848, Note_on_c, 9, 44, 50
12, 58942, Note_off_c, 9, 44, 64
12, 58944, Note_on_c, 9, 44, 50
12, 59038, Note_off_c, 9, 44, 64
12, 59040, Note_on_c, 9, 44, 50
12, 59134, Note_off_c, 9, 44, 64
12, 59136, Note_on_c, 9, 44, 50
12, 59230, Note_off_c, 9, 44, 64
12, 71520, Control_c, 9, 7, 100
12, 71520, End_track
13, 0, Start_track
13, 0, Title_t, "Low Brass"
13, 0, Channel_prefix, 10
13, 0, Control_c, 10, 7, 100
13, 0, Program_c, 10, 57
13, 46176, Control_c, 10, 7, 80
13, 46176, Note_on_c, 10, 52, 100
13, 46176, Note_on_c, 10, 64, 100
13, 46366, Control_c, 10, 7, 81
13, 46558, Control_c, 10, 7, 82
13, 46750, Control_c, 10, 7, 83
13, 46942, Note_off_c, 10, 64, 64
13, 46942, Note_off_c, 10, 52, 64
13, 46942, Control_c, 10, 7, 84
13, 46944, Note_on_c, 10, 48, 100
13, 46944, Note_on_c, 10, 60, 100
13, 47134, Control_c, 10, 7, 85
13, 47326, Control_c, 10, 7, 86
13, 47518, Control_c, 10, 7, 87
13, 47710, Note_off_c, 10, 60, 64
13, 47710, Note_off_c, 10, 48, 64
13, 47710, Control_c, 10, 7, 88
13, 47712, Note_on_c, 10, 55, 100
13, 47712, Note_on_c, 10, 43, 100
13, 47902, Control_c, 10, 7, 89
13, 48094, Control_c, 10, 7, 90
13, 48286, Control_c, 10, 7, 91
13, 48478, Note_off_c, 10, 43, 64
13, 48478, Note_off_c, 10, 55, 64
13, 48478, Control_c, 10, 7, 92
13, 48480, Note_on_c, 10, 62, 100
13, 48480, Note_on_c, 10, 50, 100
13, 48670, Control_c, 10, 7, 93
13, 48862, Control_c, 10, 7, 94
13, 49054, Control_c, 10, 7, 95
13, 49246, Note_off_c, 10, 50, 64
13, 49246, Note_off_c, 10, 62, 64
13, 49246, Control_c, 10, 7, 96
13, 49248, Note_on_c, 10, 45, 100
13, 49248, Note_on_c, 10, 57, 100
13, 49438, Control_c, 10, 7, 97
13, 49630, Control_c, 10, 7, 98
13, 49822, Control_c, 10, 7, 99
13, 50014, Note_off_c, 10, 57, 64
13, 50014, Note_off_c, 10, 45, 64
13, 50014, Control_c, 10, 7, 100
13, 50016, Note_on_c, 10, 52, 100
13, 50016, Note_on_c, 10, 64, 100
13, 50302, Note_off_c, 10, 64, 64
13, 50302, Note_off_c, 10, 52, 64
13, 50304, Note_on_c, 10, 50, 100
13, 50304, Note_on_c, 10, 62, 100
13, 50398, Note_off_c, 10, 62, 64
13, 50398, Note_off_c, 10, 50, 64
13, 50400, Note_on_c, 10, 48, 100
13, 50400, Note_on_c, 10, 60, 100
13, 50686, Note_off_c, 10, 60, 64
13, 50686, Note_off_c, 10, 48, 64
13, 50688, Note_on_c, 10, 50, 100
13, 50688, Note_on_c, 10, 62, 100
13, 50782, Note_off_c, 10, 62, 64
13, 50782, Note_off_c, 10, 50, 64
13, 50784, Note_on_c, 10, 43, 100
13, 50784, Note_on_c, 10, 55, 100
13, 50846, Note_off_c, 10, 55, 64
13, 50846, Note_off_c, 10, 43, 64
13, 71520, Control_c, 10, 7, 100
13, 71520, End_track
14, 0, Start_track
14, 0, Title_t, "Melody (Muted Trumpet)"
14, 0, Channel_prefix, 11
14, 0, Control_c, 11, 7, 113
14, 0, Program_c, 11, 59
14, 0, Control_c, 11, 91, 127
14, 34467, Control_c, 11, 7, 99
14, 35712, Note_on_c, 11, 68, 100
14, 35774, Note_off_c, 11, 68, 64
14, 35776, Note_on_c, 11, 71, 100
14, 35822, Note_off_c, 11, 71, 64
14, 36064, Note_on_c, 11, 68, 100
14, 36094, Note_off_c, 11, 68, 64
14, 36096, Note_on_c, 11, 71, 100
14, 36158, Note_off_c, 11, 71, 64
14, 36160, Note_on_c, 11, 68, 100
14, 36190, Note_off_c, 11, 68, 64
14, 36192, Note_on_c, 11, 71, 100
14, 36254, Note_off_c, 11, 71, 64
14, 36480, Note_on_c, 11, 71, 100
14, 36542, Note_off_c, 11, 71, 64
14, 36544, Note_on_c, 11, 68, 100
14, 36574, Note_off_c, 11, 68, 64
14, 36576, Note_on_c, 11, 71, 100
14, 36702, Note_off_c, 11, 71, 64
14, 36720, Note_on_c, 11, 68, 100
14, 36766, Note_off_c, 11, 68, 64
14, 36768, Note_on_c, 11, 64, 100
14, 36862, Note_off_c, 11, 64, 64
14, 36864, Note_on_c, 11, 62, 100
14, 36926, Note_off_c, 11, 62, 64
14, 36928, Note_on_c, 11, 64, 100
14, 36974, Note_off_c, 11, 64, 64
14, 37632, Note_on_c, 11, 68, 100
14, 37694, Note_off_c, 11, 68, 64
14, 37696, Note_on_c, 11, 69, 100
14, 37726, Note_off_c, 11, 69, 64
14, 37728, Note_on_c, 11, 71, 100
14, 37790, Note_off_c, 11, 71, 64
14, 37792, Note_on_c, 11, 71, 100
14, 37822, Note_off_c, 11, 71, 64
14, 37872, Note_on_c, 11, 71, 100
14, 37998, Note_off_c, 11, 71, 64
14, 38016, Note_on_c, 11, 68, 100
14, 38078, Note_off_c, 11, 68, 64
14, 38080, Note_on_c, 11, 69, 100
14, 38174, Note_off_c, 11, 69, 64
14, 38176, Note_on_c, 11, 66, 100
14, 38206, Note_off_c, 11, 66, 64
14, 38208, Note_on_c, 11, 66, 100
14, 38270, Note_off_c, 11, 66, 64
14, 38464, Note_on_c, 11, 59, 100
14, 38494, Note_off_c, 11, 59, 64
14, 38496, Note_on_c, 11, 71, 100
14, 38558, Note_off_c, 11, 71, 64
14, 38560, Note_on_c, 11, 71, 100
14, 38590, Note_off_c, 11, 71, 64
14, 38656, Note_on_c, 11, 71, 100
14, 38782, Note_off_c, 11, 71, 64
14, 38848, Note_on_c, 11, 68, 100
14, 38878, Note_off_c, 11, 68, 64
14, 38880, Note_on_c, 11, 69, 100
14, 38942, Note_off_c, 11, 69, 64
14, 38944, Note_on_c, 11, 66, 100
14, 38974, Note_off_c, 11, 66, 64
14, 38976, Note_on_c, 11, 66, 100
14, 39038, Note_off_c, 11, 66, 64
14, 39040, Note_on_c, 11, 64, 100
14, 39070, Note_off_c, 11, 64, 64
14, 39072, Note_on_c, 11, 66, 100
14, 39134, Note_off_c, 11, 66, 64
14, 39552, Note_on_c, 11, 71, 100
14, 39614, Note_off_c, 11, 71, 64
14, 39616, Note_on_c, 11, 68, 100
14, 39646, Note_off_c, 11, 68, 64
14, 39648, Note_on_c, 11, 71, 100
14, 39710, Note_off_c, 11, 71, 64
14, 39808, Note_on_c, 11, 68, 100
14, 39838, Note_off_c, 11, 68, 64
14, 39840, Note_on_c, 11, 71, 100
14, 39934, Note_off_c, 11, 71, 64
14, 39936, Note_on_c, 11, 68, 100
14, 39998, Note_off_c, 11, 68, 64
14, 40000, Note_on_c, 11, 71, 100
14, 40078, Note_off_c, 11, 71, 64
14, 40320, Note_on_c, 11, 71, 100
14, 40382, Note_off_c, 11, 71, 64
14, 40384, Note_on_c, 11, 68, 100
14, 40414, Note_off_c, 11, 68, 64
14, 40416, Note_on_c, 11, 71, 100
14, 40478, Note_off_c, 11, 71, 64
14, 40576, Note_on_c, 11, 68, 100
14, 40606, Note_off_c, 11, 68, 64
14, 40608, Note_on_c, 11, 64, 100
14, 40670, Note_off_c, 11, 64, 64
14, 40672, Note_on_c, 11, 62, 100
14, 40766, Note_off_c, 11, 62, 64
14, 40768, Note_on_c, 11, 64, 100
14, 40862, Note_off_c, 11, 64, 64
14, 41472, Note_on_c, 11, 68, 100
14, 41534, Note_off_c, 11, 68, 64
14, 41536, Note_on_c, 11, 69, 100
14, 41566, Note_off_c, 11, 69, 64
14, 41568, Note_on_c, 11, 71, 100
14, 41630, Note_off_c, 11, 71, 64
14, 41632, Note_on_c, 11, 71, 100
14, 41678, Note_off_c, 11, 71, 64
14, 41728, Note_on_c, 11, 71, 100
14, 41854, Note_off_c, 11, 71, 64
14, 41856, Note_on_c, 11, 68, 100
14, 41950, Note_off_c, 11, 68, 64
14, 41952, Note_on_c, 11, 69, 100
14, 42014, Note_off_c, 11, 69, 64
14, 42016, Note_on_c, 11, 66, 100
14, 42062, Note_off_c, 11, 66, 64
14, 42112, Note_on_c, 11, 66, 100
14, 42222, Note_off_c, 11, 66, 64
14, 42304, Note_on_c, 11, 59, 100
14, 42334, Note_off_c, 11, 59, 64
14, 42336, Note_on_c, 11, 71, 100
14, 42382, Note_off_c, 11, 71, 64
14, 42384, Note_on_c, 11, 71, 100
14, 42414, Note_off_c, 11, 71, 64
14, 42416, Note_on_c, 11, 71, 100
14, 42446, Note_off_c, 11, 71, 64
14, 42480, Note_on_c, 11, 71, 100
14, 42590, Note_off_c, 11, 71, 64
14, 42592, Note_on_c, 11, 68, 100
14, 42638, Note_off_c, 11, 68, 64
14, 42640, Note_on_c, 11, 68, 100
14, 42686, Note_off_c, 11, 68, 64
14, 42696, Note_on_c, 11, 69, 100
14, 42732, Note_off_c, 11, 69, 64
14, 42736, Note_on_c, 11, 66, 100
14, 42768, Note_off_c, 11, 66, 64
14, 42774, Note_on_c, 11, 66, 100
14, 42812, Note_off_c, 11, 66, 64
14, 42816, Note_on_c, 11, 66, 100
14, 42851, Note_off_c, 11, 66, 64
14, 42854, Note_on_c, 11, 66, 100
14, 43060, Note_off_c, 11, 66, 64
14, 71520, Control_c, 11, 7, 100
14, 71520, End_track
15, 0, Start_track
15, 0, Title_t, "Melody (Trumpet)"
15, 0, Channel_prefix, 12
15, 0, Control_c, 12, 7, 100
15, 0, Program_c, 12, 56
15, 0, Control_c, 12, 91, 127
15, 43104, Control_c, 12, 7, 80
15, 43104, Note_on_c, 12, 67, 100
15, 43104, Note_on_c, 12, 72, 100
15, 43104, Note_on_c, 12, 76, 100
15, 43256, Control_c, 12, 7, 81
15, 43409, Control_c, 12, 7, 82
15, 43563, Control_c, 12, 7, 83
15, 43678, Note_off_c, 12, 76, 64
15, 43678, Note_off_c, 12, 72, 64
15, 43678, Note_off_c, 12, 67, 64
15, 43680, Note_on_c, 12, 64, 100
15, 43680, Note_on_c, 12, 67, 100
15, 43680, Note_on_c, 12, 74, 100
15, 43716, Control_c, 12, 7, 84
15, 43774, Note_off_c, 12, 74, 64
15, 43774, Note_off_c, 12, 67, 64
15, 43774, Note_off_c, 12, 64, 64
15, 43776, Note_on_c, 12, 64, 100
15, 43776, Note_on_c, 12, 67, 100
15, 43776, Note_on_c, 12, 72, 100
15, 43870, Note_off_c, 12, 72, 64
15, 43870, Note_off_c, 12, 67, 64
15, 43870, Note_off_c, 12, 64, 64
15, 43870, Control_c, 12, 7, 85
15, 43872, Note_on_c, 12, 71, 100
15, 43872, Note_on_c, 12, 62, 100
15, 43872, Note_on_c, 12, 67, 100
15, 44024, Control_c, 12, 7, 86
15, 44177, Control_c, 12, 7, 87
15, 44331, Control_c, 12, 7, 88
15, 44446, Note_off_c, 12, 67, 64
15, 44446, Note_off_c, 12, 62, 64
15, 44446, Note_off_c, 12, 71, 64
15, 44448, Note_on_c, 12, 71, 100
15, 44448, Note_on_c, 12, 67, 100
15, 44448, Note_on_c, 12, 74, 100
15, 44484, Control_c, 12, 7, 89
15, 44542, Note_off_c, 12, 74, 64
15, 44542, Note_off_c, 12, 67, 64
15, 44542, Note_off_c, 12, 71, 64
15, 44544, Note_on_c, 12, 67, 100
15, 44544, Note_on_c, 12, 71, 100
15, 44544, Note_on_c, 12, 76, 100
15, 44638, Note_off_c, 12, 76, 64
15, 44638, Note_off_c, 12, 71, 64
15, 44638, Note_off_c, 12, 67, 64
15, 44638, Control_c, 12, 7, 90
15, 44640, Note_on_c, 12, 69, 100
15, 44640, Note_on_c, 12, 74, 100
15, 44640, Note_on_c, 12, 78, 100
15, 44792, Control_c, 12, 7, 91
15, 44945, Control_c, 12, 7, 92
15, 45099, Control_c, 12, 7, 93
15, 45214, Note_off_c, 12, 78, 64
15, 45214, Note_off_c, 12, 74, 64
15, 45214, Note_off_c, 12, 69, 64
15, 45216, Note_on_c, 12, 69, 100
15, 45216, Note_on_c, 12, 74, 100
15, 45216, Note_on_c, 12, 79, 100
15, 45252, Control_c, 12, 7, 94
15, 45310, Note_off_c, 12, 79, 64
15, 45310, Note_off_c, 12, 74, 64
15, 45310, Note_off_c, 12, 69, 64
15, 45312, Note_on_c, 12, 69, 100
15, 45312, Note_on_c, 12, 74, 100
15, 45312, Note_on_c, 12, 78, 100
15, 45406, Note_off_c, 12, 78, 64
15, 45406, Note_off_c, 12, 74, 64
15, 45406, Note_off_c, 12, 69, 64
15, 45406, Control_c, 12, 7, 95
15, 45408, Note_on_c, 12, 69, 100
15, 45408, Note_on_c, 12, 73, 100
15, 45408, Note_on_c, 12, 76, 100
15, 45560, Control_c, 12, 7, 96
15, 45713, Control_c, 12, 7, 97
15, 45867, Control_c, 12, 7, 98
15, 45982, Note_off_c, 12, 76, 64
15, 45982, Note_off_c, 12, 73, 64
15, 45982, Note_off_c, 12, 69, 64
15, 45984, Note_on_c, 12, 69, 100
15, 45984, Note_on_c, 12, 73, 100
15, 45984, Note_on_c, 12, 76, 100
15, 46020, Control_c, 12, 7, 99
15, 46032, Pitch_bend_c, 12, 8192
15, 46033, Pitch_bend_c, 12, 8050
15, 46035, Pitch_bend_c, 12, 7909
15, 46036, Pitch_bend_c, 12, 7768
15, 46038, Pitch_bend_c, 12, 7627
15, 46040, Pitch_bend_c, 12, 7485
15, 46041, Pitch_bend_c, 12, 7344
15, 46043, Pitch_bend_c, 12, 7203
15, 46044, Pitch_bend_c, 12, 7062
15, 46046, Pitch_bend_c, 12, 6920
15, 46048, Pitch_bend_c, 12, 6779
15, 46049, Pitch_bend_c, 12, 6638
15, 46051, Pitch_bend_c, 12, 6497
15, 46052, Pitch_bend_c, 12, 6355
15, 46054, Pitch_bend_c, 12, 6214
15, 46056, Pitch_bend_c, 12, 6073
15, 46057, Pitch_bend_c, 12, 5932
15, 46059, Pitch_bend_c, 12, 5790
15, 46060, Pitch_bend_c, 12, 5649
15, 46062, Pitch_bend_c, 12, 5508
15, 46064, Pitch_bend_c, 12, 5367
15, 46065, Pitch_bend_c, 12, 5225
15, 46067, Pitch_bend_c, 12, 5084
15, 46068, Pitch_bend_c, 12, 4943
15, 46070, Pitch_bend_c, 12, 4802
15, 46072, Pitch_bend_c, 12, 4660
15, 46073, Pitch_bend_c, 12, 4519
15, 46075, Pitch_bend_c, 12, 4378
15, 46076, Pitch_bend_c, 12, 4237
15, 46078, Pitch_bend_c, 12, 8192
15, 46174, Note_off_c, 12, 76, 64
15, 46174, Note_off_c, 12, 73, 64
15, 46174, Note_off_c, 12, 69, 64
15, 46174, Control_c, 12, 7, 100
15, 46176, Note_on_c, 12, 68, 100
15, 46176, Note_on_c, 12, 71, 100
15, 46176, Note_on_c, 12, 76, 100
15, 46942, Note_off_c, 12, 76, 64
15, 46942, Note_off_c, 12, 71, 64
15, 46942, Note_off_c, 12, 68, 64
15, 46944, Note_on_c, 12, 67, 100
15, 46944, Note_on_c, 12, 72, 100
15, 46944, Note_on_c, 12, 76, 100
15, 47518, Note_off_c, 12, 76, 64
15, 47518, Note_off_c, 12, 72, 64
15, 47518, Note_off_c, 12, 67, 64
15, 47520, Note_on_c, 12, 67, 100
15, 47520, Note_on_c, 12, 72, 100
15, 47520, Note_on_c, 12, 77, 100
15, 47614, Note_off_c, 12, 77, 64
15, 47614, Note_off_c, 12, 72, 64
15, 47614, Note_off_c, 12, 67, 64
15, 47616, Note_on_c, 12, 67, 100
15, 47616, Note_on_c, 12, 72, 100
15, 47616, Note_on_c, 12, 76, 100
15, 47710, Note_off_c, 12, 76, 64
15, 47710, Note_off_c, 12, 72, 64
15, 47710, Note_off_c, 12, 67, 64
15, 47712, Note_on_c, 12, 71, 100
15, 47712, Note_on_c, 12, 67, 100
15, 47712, Note_on_c, 12, 74, 100
15, 48286, Note_off_c, 12, 74, 64
15, 48286, Note_off_c, 12, 67, 64
15, 48286, Note_off_c, 12, 71, 64
15, 48288, Note_on_c, 12, 71, 100
15, 48288, Note_on_c, 12, 67, 100
15, 48288, Note_on_c, 12, 74, 100
15, 48382, Note_off_c, 12, 74, 64
15, 48382, Note_off_c, 12, 67, 64
15, 48382, Note_off_c, 12, 71, 64
15, 48384, Note_on_c, 12, 71, 100
15, 48384, Note_on_c, 12, 67, 100
15, 48384, Note_on_c, 12, 76, 100
15, 48478, Note_off_c, 12, 76, 64
15, 48478, Note_off_c, 12, 67, 64
15, 48478, Note_off_c, 12, 71, 64
15, 48480, Note_on_c, 12, 69, 100
15, 48480, Note_on_c, 12, 74, 100
15, 48480, Note_on_c, 12, 78, 100
15, 49054, Note_off_c, 12, 78, 64
15, 49054, Note_off_c, 12, 74, 64
15, 49054, Note_off_c, 12, 69, 64
15, 49056, Note_on_c, 12, 74, 100
15, 49056, Note_on_c, 12, 69, 100
15, 49056, Note_on_c, 12, 79, 100
15, 49150, Note_off_c, 12, 79, 64
15, 49150, Note_off_c, 12, 69, 64
15, 49150, Note_off_c, 12, 74, 64
15, 49152, Note_on_c, 12, 74, 100
15, 49152, Note_on_c, 12, 69, 100
15, 49152, Note_on_c, 12, 78, 100
15, 49246, Note_off_c, 12, 78, 64
15, 49246, Note_off_c, 12, 69, 64
15, 49246, Note_off_c, 12, 74, 64
15, 49248, Note_on_c, 12, 76, 100
15, 49248, Note_on_c, 12, 69, 100
15, 49248, Note_on_c, 12, 73, 100
15, 50014, Note_off_c, 12, 73, 64
15, 50014, Note_off_c, 12, 69, 64
15, 50014, Note_off_c, 12, 76, 64
15, 71520, Control_c, 12, 7, 100
15, 71520, End_track
16, 0, Start_track
16, 0, Title_t, "-------------------------------------------"
16, 0, End_track
17, 0, Start_track
17, 0, Title_t, "A Day in the Life"
17, 0, End_track
18, 0, Start_track
18, 0, Title_t, "  by the Beatles"
18, 0, End_track
19, 0, Start_track
19, 0, Title_t, "Sequenced by:"
19, 0, End_track
20, 0, Start_track
20, 0, Title_t, "  Wesley Ellinger"
20, 0, End_track
21, 0, Start_track
21, 0, Title_t, "  Houston,TX"
21, 0, End_track
22, 0, Start_track
22, 0, Title_t, "  wesleyme@ix.netcom.com"
22, 0, End_track
23, 0, Start_track
23, 0, Title_t, "  08/02/95"
23, 0, End_track
0, 0, End_of_file
