0, 0, Header, 1, 8, 120
1, 0, Start_track
1, 0, Title_t, "untitled"
1, 0, Copyright_t, "Copyright © 2001 by Michael Fothergill"
1, 0, Text_t, "Michael Fothergill"
1, 0, SMPTE_offset, 96, 0, 3, 0, 0
1, 0, Time_signature, 4, 2, 24, 8
1, 0, Key_signature, 0, "major"
1, 0, Tempo, 458015
1, 0, End_track
2, 0, Start_track
2, 0, MIDI_port, 0
2, 0, Title_t, "Piano"
2, 0, Control_c, 0, 0, 0
2, 0, Control_c, 0, 32, 0
2, 0, Program_c, 0, 1
2, 0, Control_c, 0, 7, 100
2, 0, Note_on_c, 0, 81, 100
2, 30, Note_on_c, 0, 76, 100
2, 60, Note_on_c, 0, 76, 0
2, 60, Note_on_c, 0, 81, 0
2, 60, Note_on_c, 0, 69, 100
2, 90, Note_on_c, 0, 69, 0
2, 120, Note_on_c, 0, 69, 100
2, 180, Note_on_c, 0, 69, 0
2, 180, Note_on_c, 0, 73, 100
2, 240, Note_on_c, 0, 73, 0
2, 240, Note_on_c, 0, 69, 100
2, 300, Note_on_c, 0, 69, 0
2, 300, Note_on_c, 0, 76, 100
2, 360, Note_on_c, 0, 76, 0
2, 360, Note_on_c, 0, 81, 100
2, 420, Note_on_c, 0, 81, 0
2, 420, Note_on_c, 0, 69, 100
2, 480, Note_on_c, 0, 69, 0
2, 480, Note_on_c, 0, 81, 100
2, 510, Note_on_c, 0, 76, 100
2, 540, Note_on_c, 0, 76, 0
2, 540, Note_on_c, 0, 81, 0
2, 540, Note_on_c, 0, 69, 100
2, 570, Note_on_c, 0, 69, 0
2, 600, Note_on_c, 0, 69, 100
2, 660, Note_on_c, 0, 69, 0
2, 660, Note_on_c, 0, 69, 100
2, 720, Note_on_c, 0, 69, 0
2, 720, Note_on_c, 0, 69, 100
2, 780, Note_on_c, 0, 69, 0
2, 780, Note_on_c, 0, 76, 100
2, 840, Note_on_c, 0, 76, 0
2, 840, Note_on_c, 0, 81, 100
2, 900, Note_on_c, 0, 81, 0
2, 900, Note_on_c, 0, 69, 100
2, 960, Note_on_c, 0, 69, 0
2, 960, Note_on_c, 0, 81, 100
2, 990, Note_on_c, 0, 76, 100
2, 1020, Note_on_c, 0, 76, 0
2, 1020, Note_on_c, 0, 81, 0
2, 1020, Note_on_c, 0, 69, 100
2, 1050, Note_on_c, 0, 69, 0
2, 1080, Note_on_c, 0, 69, 100
2, 1140, Note_on_c, 0, 69, 0
2, 1140, Note_on_c, 0, 73, 100
2, 1200, Note_on_c, 0, 73, 0
2, 1200, Note_on_c, 0, 69, 100
2, 1260, Note_on_c, 0, 69, 0
2, 1260, Note_on_c, 0, 76, 100
2, 1320, Note_on_c, 0, 76, 0
2, 1320, Note_on_c, 0, 81, 100
2, 1380, Note_on_c, 0, 81, 0
2, 1380, Note_on_c, 0, 69, 100
2, 1440, Note_on_c, 0, 69, 0
2, 1440, Note_on_c, 0, 81, 100
2, 1470, Note_on_c, 0, 76, 100
2, 1500, Note_on_c, 0, 76, 0
2, 1500, Note_on_c, 0, 81, 0
2, 1500, Note_on_c, 0, 69, 100
2, 1530, Note_on_c, 0, 69, 0
2, 1560, Note_on_c, 0, 69, 100
2, 1620, Note_on_c, 0, 69, 0
2, 1620, Note_on_c, 0, 69, 100
2, 1680, Note_on_c, 0, 69, 0
2, 1680, Note_on_c, 0, 69, 100
2, 1740, Note_on_c, 0, 69, 0
2, 1740, Note_on_c, 0, 76, 100
2, 1800, Note_on_c, 0, 76, 0
2, 1800, Note_on_c, 0, 81, 100
2, 1860, Note_on_c, 0, 81, 0
2, 1860, Note_on_c, 0, 69, 100
2, 1920, Note_on_c, 0, 69, 0
2, 1920, Note_on_c, 0, 81, 100
2, 1950, Note_on_c, 0, 76, 100
2, 1980, Note_on_c, 0, 76, 0
2, 1980, Note_on_c, 0, 81, 0
2, 1980, Note_on_c, 0, 69, 100
2, 2010, Note_on_c, 0, 69, 0
2, 2040, Note_on_c, 0, 69, 100
2, 2100, Note_on_c, 0, 69, 0
2, 2100, Note_on_c, 0, 73, 100
2, 2160, Note_on_c, 0, 73, 0
2, 2160, Note_on_c, 0, 69, 100
2, 2220, Note_on_c, 0, 69, 0
2, 2220, Note_on_c, 0, 76, 100
2, 2280, Note_on_c, 0, 76, 0
2, 2280, Note_on_c, 0, 81, 100
2, 2340, Note_on_c, 0, 81, 0
2, 2340, Note_on_c, 0, 69, 100
2, 2400, Note_on_c, 0, 69, 0
2, 2400, Note_on_c, 0, 81, 100
2, 2430, Note_on_c, 0, 76, 100
2, 2460, Note_on_c, 0, 76, 0
2, 2460, Note_on_c, 0, 81, 0
2, 2460, Note_on_c, 0, 69, 100
2, 2490, Note_on_c, 0, 69, 0
2, 2520, Note_on_c, 0, 69, 100
2, 2580, Note_on_c, 0, 69, 0
2, 2580, Note_on_c, 0, 69, 100
2, 2640, Note_on_c, 0, 69, 0
2, 2640, Note_on_c, 0, 69, 100
2, 2700, Note_on_c, 0, 69, 0
2, 2700, Note_on_c, 0, 76, 100
2, 2760, Note_on_c, 0, 76, 0
2, 2760, Note_on_c, 0, 81, 100
2, 2820, Note_on_c, 0, 81, 0
2, 2820, Note_on_c, 0, 69, 100
2, 2880, Note_on_c, 0, 69, 0
2, 41280, Note_on_c, 0, 81, 100
2, 41310, Note_on_c, 0, 76, 100
2, 41340, Note_on_c, 0, 76, 0
2, 41340, Note_on_c, 0, 81, 0
2, 41340, Note_on_c, 0, 69, 100
2, 41370, Note_on_c, 0, 69, 0
2, 41400, Note_on_c, 0, 69, 100
2, 41460, Note_on_c, 0, 69, 0
2, 41460, Note_on_c, 0, 73, 100
2, 41520, Note_on_c, 0, 73, 0
2, 41520, Note_on_c, 0, 69, 100
2, 41580, Note_on_c, 0, 69, 0
2, 41580, Note_on_c, 0, 76, 100
2, 41640, Note_on_c, 0, 76, 0
2, 41640, Note_on_c, 0, 81, 100
2, 41700, Note_on_c, 0, 81, 0
2, 41700, Note_on_c, 0, 69, 100
2, 41760, Note_on_c, 0, 69, 0
2, 41760, Note_on_c, 0, 81, 100
2, 41790, Note_on_c, 0, 76, 100
2, 41820, Note_on_c, 0, 76, 0
2, 41820, Note_on_c, 0, 81, 0
2, 41820, Note_on_c, 0, 69, 100
2, 41850, Note_on_c, 0, 69, 0
2, 41880, Note_on_c, 0, 69, 100
2, 41940, Note_on_c, 0, 69, 0
2, 41940, Note_on_c, 0, 69, 100
2, 42000, Note_on_c, 0, 69, 0
2, 42000, Note_on_c, 0, 69, 100
2, 42060, Note_on_c, 0, 69, 0
2, 42060, Note_on_c, 0, 76, 100
2, 42120, Note_on_c, 0, 76, 0
2, 42120, Note_on_c, 0, 81, 100
2, 42180, Note_on_c, 0, 81, 0
2, 42180, Note_on_c, 0, 69, 100
2, 42240, Note_on_c, 0, 69, 0
2, 42240, Note_on_c, 0, 81, 100
2, 42270, Note_on_c, 0, 76, 100
2, 42300, Note_on_c, 0, 76, 0
2, 42300, Note_on_c, 0, 81, 0
2, 42300, Note_on_c, 0, 69, 100
2, 42330, Note_on_c, 0, 69, 0
2, 42360, Note_on_c, 0, 69, 100
2, 42420, Note_on_c, 0, 69, 0
2, 42420, Note_on_c, 0, 73, 100
2, 42480, Note_on_c, 0, 73, 0
2, 42480, Note_on_c, 0, 69, 100
2, 42540, Note_on_c, 0, 69, 0
2, 42540, Note_on_c, 0, 76, 100
2, 42600, Note_on_c, 0, 76, 0
2, 42600, Note_on_c, 0, 81, 100
2, 42660, Note_on_c, 0, 81, 0
2, 42660, Note_on_c, 0, 69, 100
2, 42720, Note_on_c, 0, 69, 0
2, 42720, Note_on_c, 0, 81, 100
2, 42750, Note_on_c, 0, 76, 100
2, 42780, Note_on_c, 0, 76, 0
2, 42780, Note_on_c, 0, 81, 0
2, 42780, Note_on_c, 0, 69, 100
2, 42810, Note_on_c, 0, 69, 0
2, 42840, Note_on_c, 0, 69, 100
2, 42900, Note_on_c, 0, 69, 0
2, 42900, Note_on_c, 0, 69, 100
2, 42960, Note_on_c, 0, 69, 0
2, 42960, Note_on_c, 0, 69, 100
2, 43020, Note_on_c, 0, 69, 0
2, 43020, Note_on_c, 0, 76, 100
2, 43080, Note_on_c, 0, 76, 0
2, 43080, Note_on_c, 0, 81, 100
2, 43140, Note_on_c, 0, 81, 0
2, 43140, Note_on_c, 0, 69, 100
2, 43200, Note_on_c, 0, 69, 0
2, 43200, Note_on_c, 0, 81, 100
2, 43230, Note_on_c, 0, 76, 100
2, 43260, Note_on_c, 0, 76, 0
2, 43260, Note_on_c, 0, 81, 0
2, 43260, Note_on_c, 0, 69, 100
2, 43290, Note_on_c, 0, 69, 0
2, 43320, Note_on_c, 0, 69, 100
2, 43380, Note_on_c, 0, 69, 0
2, 43380, Note_on_c, 0, 73, 100
2, 43440, Note_on_c, 0, 73, 0
2, 43440, Note_on_c, 0, 69, 100
2, 43500, Note_on_c, 0, 69, 0
2, 43500, Note_on_c, 0, 76, 100
2, 43560, Note_on_c, 0, 76, 0
2, 43560, Note_on_c, 0, 81, 100
2, 43620, Note_on_c, 0, 81, 0
2, 43620, Note_on_c, 0, 69, 100
2, 43680, Note_on_c, 0, 69, 0
2, 43680, Note_on_c, 0, 81, 100
2, 43710, Note_on_c, 0, 76, 100
2, 43740, Note_on_c, 0, 76, 0
2, 43740, Note_on_c, 0, 81, 0
2, 43740, Note_on_c, 0, 69, 100
2, 43770, Note_on_c, 0, 69, 0
2, 43800, Note_on_c, 0, 69, 100
2, 43860, Note_on_c, 0, 69, 0
2, 43860, Note_on_c, 0, 69, 100
2, 43920, Note_on_c, 0, 69, 0
2, 43920, Note_on_c, 0, 69, 100
2, 43980, Note_on_c, 0, 69, 0
2, 43980, Note_on_c, 0, 76, 100
2, 44040, Note_on_c, 0, 76, 0
2, 44040, Note_on_c, 0, 81, 100
2, 44100, Note_on_c, 0, 81, 0
2, 44100, Note_on_c, 0, 69, 100
2, 44160, Note_on_c, 0, 69, 0
2, 44160, End_track
3, 0, Start_track
3, 0, MIDI_port, 0
3, 0, Title_t, "Bass"
3, 0, Control_c, 1, 0, 0
3, 0, Control_c, 1, 32, 0
3, 0, Program_c, 1, 33
3, 0, Control_c, 1, 7, 120
3, 960, Note_on_c, 1, 33, 100
3, 1080, Note_on_c, 1, 33, 0
3, 1080, Note_on_c, 1, 40, 100
3, 1200, Note_on_c, 1, 40, 0
3, 1200, Note_on_c, 1, 33, 100
3, 1260, Note_on_c, 1, 33, 0
3, 1260, Note_on_c, 1, 40, 100
3, 1380, Note_on_c, 1, 40, 0
3, 1380, Note_on_c, 1, 33, 100
3, 1440, Note_on_c, 1, 33, 0
3, 1440, Note_on_c, 1, 40, 100
3, 1560, Note_on_c, 1, 40, 0
3, 1560, Note_on_c, 1, 33, 100
3, 1620, Note_on_c, 1, 33, 0
3, 1620, Note_on_c, 1, 40, 100
3, 1680, Note_on_c, 1, 40, 0
3, 1680, Note_on_c, 1, 43, 100
3, 1740, Note_on_c, 1, 43, 0
3, 1740, Note_on_c, 1, 31, 100
3, 1800, Note_on_c, 1, 31, 0
3, 1800, Note_on_c, 1, 31, 100
3, 1860, Note_on_c, 1, 31, 0
3, 1860, Note_on_c, 1, 32, 100
3, 1920, Note_on_c, 1, 32, 0
3, 1920, Note_on_c, 1, 33, 100
3, 2040, Note_on_c, 1, 33, 0
3, 2040, Note_on_c, 1, 40, 100
3, 2160, Note_on_c, 1, 40, 0
3, 2160, Note_on_c, 1, 33, 100
3, 2220, Note_on_c, 1, 33, 0
3, 2220, Note_on_c, 1, 40, 100
3, 2340, Note_on_c, 1, 40, 0
3, 2340, Note_on_c, 1, 33, 100
3, 2400, Note_on_c, 1, 33, 0
3, 2400, Note_on_c, 1, 40, 100
3, 2520, Note_on_c, 1, 40, 0
3, 2520, Note_on_c, 1, 33, 100
3, 2580, Note_on_c, 1, 33, 0
3, 2580, Note_on_c, 1, 40, 100
3, 2640, Note_on_c, 1, 40, 0
3, 2640, Note_on_c, 1, 43, 100
3, 2700, Note_on_c, 1, 43, 0
3, 2700, Note_on_c, 1, 31, 100
3, 2760, Note_on_c, 1, 31, 0
3, 2760, Note_on_c, 1, 31, 100
3, 2820, Note_on_c, 1, 31, 0
3, 2820, Note_on_c, 1, 32, 100
3, 2880, Note_on_c, 1, 32, 0
3, 2880, Note_on_c, 1, 33, 100
3, 2940, Note_on_c, 1, 33, 0
3, 2940, Note_on_c, 1, 33, 100
3, 3000, Note_on_c, 1, 33, 0
3, 3000, Note_on_c, 1, 33, 100
3, 3060, Note_on_c, 1, 33, 0
3, 3060, Note_on_c, 1, 33, 100
3, 3120, Note_on_c, 1, 33, 0
3, 3120, Note_on_c, 1, 31, 100
3, 3180, Note_on_c, 1, 31, 0
3, 3180, Note_on_c, 1, 35, 100
3, 3240, Note_on_c, 1, 35, 0
3, 3240, Note_on_c, 1, 31, 100
3, 3300, Note_on_c, 1, 31, 0
3, 3300, Note_on_c, 1, 35, 100
3, 3360, Note_on_c, 1, 35, 0
3, 3360, Note_on_c, 1, 33, 100
3, 3420, Note_on_c, 1, 33, 0
3, 3420, Note_on_c, 1, 33, 100
3, 3480, Note_on_c, 1, 33, 0
3, 3480, Note_on_c, 1, 33, 100
3, 3540, Note_on_c, 1, 33, 0
3, 3540, Note_on_c, 1, 33, 100
3, 3600, Note_on_c, 1, 33, 0
3, 3600, Note_on_c, 1, 31, 100
3, 3660, Note_on_c, 1, 31, 0
3, 3660, Note_on_c, 1, 35, 100
3, 3720, Note_on_c, 1, 35, 0
3, 3720, Note_on_c, 1, 31, 100
3, 3780, Note_on_c, 1, 31, 0
3, 3780, Note_on_c, 1, 35, 100
3, 3840, Note_on_c, 1, 35, 0
3, 3840, Note_on_c, 1, 33, 100
3, 3900, Note_on_c, 1, 33, 0
3, 3900, Note_on_c, 1, 33, 100
3, 3960, Note_on_c, 1, 33, 0
3, 3960, Note_on_c, 1, 33, 100
3, 4020, Note_on_c, 1, 33, 0
3, 4020, Note_on_c, 1, 33, 100
3, 4080, Note_on_c, 1, 33, 0
3, 4080, Note_on_c, 1, 31, 100
3, 4140, Note_on_c, 1, 31, 0
3, 4140, Note_on_c, 1, 35, 100
3, 4200, Note_on_c, 1, 35, 0
3, 4200, Note_on_c, 1, 31, 100
3, 4260, Note_on_c, 1, 31, 0
3, 4260, Note_on_c, 1, 35, 100
3, 4320, Note_on_c, 1, 35, 0
3, 4320, Note_on_c, 1, 33, 100
3, 4380, Note_on_c, 1, 33, 0
3, 4380, Note_on_c, 1, 33, 100
3, 4440, Note_on_c, 1, 33, 0
3, 4440, Note_on_c, 1, 33, 100
3, 4500, Note_on_c, 1, 33, 0
3, 4500, Note_on_c, 1, 33, 100
3, 4560, Note_on_c, 1, 33, 0
3, 4560, Note_on_c, 1, 31, 100
3, 4620, Note_on_c, 1, 31, 0
3, 4620, Note_on_c, 1, 35, 100
3, 4680, Note_on_c, 1, 35, 0
3, 4680, Note_on_c, 1, 31, 100
3, 4740, Note_on_c, 1, 31, 0
3, 4740, Note_on_c, 1, 35, 100
3, 4800, Note_on_c, 1, 35, 0
3, 4800, Note_on_c, 1, 33, 100
3, 4860, Note_on_c, 1, 33, 0
3, 4860, Note_on_c, 1, 33, 100
3, 4920, Note_on_c, 1, 33, 0
3, 4920, Note_on_c, 1, 33, 100
3, 4980, Note_on_c, 1, 33, 0
3, 4980, Note_on_c, 1, 33, 100
3, 5040, Note_on_c, 1, 33, 0
3, 5040, Note_on_c, 1, 31, 100
3, 5100, Note_on_c, 1, 31, 0
3, 5100, Note_on_c, 1, 35, 100
3, 5160, Note_on_c, 1, 35, 0
3, 5160, Note_on_c, 1, 31, 100
3, 5220, Note_on_c, 1, 31, 0
3, 5220, Note_on_c, 1, 35, 100
3, 5280, Note_on_c, 1, 35, 0
3, 5280, Note_on_c, 1, 33, 100
3, 5340, Note_on_c, 1, 33, 0
3, 5340, Note_on_c, 1, 33, 100
3, 5400, Note_on_c, 1, 33, 0
3, 5400, Note_on_c, 1, 33, 100
3, 5460, Note_on_c, 1, 33, 0
3, 5460, Note_on_c, 1, 33, 100
3, 5520, Note_on_c, 1, 33, 0
3, 5520, Note_on_c, 1, 31, 100
3, 5580, Note_on_c, 1, 31, 0
3, 5580, Note_on_c, 1, 35, 100
3, 5640, Note_on_c, 1, 35, 0
3, 5640, Note_on_c, 1, 31, 100
3, 5700, Note_on_c, 1, 31, 0
3, 5700, Note_on_c, 1, 35, 100
3, 5760, Note_on_c, 1, 35, 0
3, 5760, Note_on_c, 1, 33, 100
3, 5820, Note_on_c, 1, 33, 0
3, 5820, Note_on_c, 1, 33, 100
3, 5880, Note_on_c, 1, 33, 0
3, 5880, Note_on_c, 1, 33, 100
3, 5940, Note_on_c, 1, 33, 0
3, 5940, Note_on_c, 1, 33, 100
3, 6000, Note_on_c, 1, 33, 0
3, 6000, Note_on_c, 1, 31, 100
3, 6060, Note_on_c, 1, 31, 0
3, 6060, Note_on_c, 1, 35, 100
3, 6120, Note_on_c, 1, 35, 0
3, 6120, Note_on_c, 1, 31, 100
3, 6180, Note_on_c, 1, 31, 0
3, 6180, Note_on_c, 1, 35, 100
3, 6240, Note_on_c, 1, 35, 0
3, 6240, Note_on_c, 1, 33, 100
3, 6300, Note_on_c, 1, 33, 0
3, 6300, Note_on_c, 1, 33, 100
3, 6360, Note_on_c, 1, 33, 0
3, 6360, Note_on_c, 1, 33, 100
3, 6420, Note_on_c, 1, 33, 0
3, 6420, Note_on_c, 1, 33, 100
3, 6480, Note_on_c, 1, 33, 0
3, 6480, Note_on_c, 1, 31, 100
3, 6540, Note_on_c, 1, 31, 0
3, 6540, Note_on_c, 1, 35, 100
3, 6600, Note_on_c, 1, 35, 0
3, 6600, Note_on_c, 1, 31, 100
3, 6660, Note_on_c, 1, 31, 0
3, 6660, Note_on_c, 1, 35, 100
3, 6720, Note_on_c, 1, 35, 0
3, 6720, Note_on_c, 1, 33, 100
3, 6780, Note_on_c, 1, 33, 0
3, 6780, Note_on_c, 1, 33, 100
3, 6840, Note_on_c, 1, 33, 0
3, 6840, Note_on_c, 1, 33, 100
3, 6900, Note_on_c, 1, 33, 0
3, 6900, Note_on_c, 1, 33, 100
3, 6960, Note_on_c, 1, 33, 0
3, 6960, Note_on_c, 1, 31, 100
3, 7020, Note_on_c, 1, 31, 0
3, 7020, Note_on_c, 1, 35, 100
3, 7080, Note_on_c, 1, 35, 0
3, 7080, Note_on_c, 1, 31, 100
3, 7140, Note_on_c, 1, 31, 0
3, 7140, Note_on_c, 1, 35, 100
3, 7200, Note_on_c, 1, 35, 0
3, 7200, Note_on_c, 1, 33, 100
3, 7260, Note_on_c, 1, 33, 0
3, 7260, Note_on_c, 1, 33, 100
3, 7320, Note_on_c, 1, 33, 0
3, 7320, Note_on_c, 1, 33, 100
3, 7380, Note_on_c, 1, 33, 0
3, 7380, Note_on_c, 1, 33, 100
3, 7440, Note_on_c, 1, 33, 0
3, 7440, Note_on_c, 1, 31, 100
3, 7500, Note_on_c, 1, 31, 0
3, 7500, Note_on_c, 1, 35, 100
3, 7560, Note_on_c, 1, 35, 0
3, 7560, Note_on_c, 1, 31, 100
3, 7620, Note_on_c, 1, 31, 0
3, 7620, Note_on_c, 1, 35, 100
3, 7680, Note_on_c, 1, 35, 0
3, 7680, Note_on_c, 1, 33, 100
3, 7740, Note_on_c, 1, 33, 0
3, 7740, Note_on_c, 1, 33, 100
3, 7800, Note_on_c, 1, 33, 0
3, 7800, Note_on_c, 1, 33, 100
3, 7860, Note_on_c, 1, 33, 0
3, 7860, Note_on_c, 1, 33, 100
3, 7920, Note_on_c, 1, 33, 0
3, 7920, Note_on_c, 1, 31, 100
3, 7980, Note_on_c, 1, 31, 0
3, 7980, Note_on_c, 1, 35, 100
3, 8040, Note_on_c, 1, 35, 0
3, 8040, Note_on_c, 1, 31, 100
3, 8100, Note_on_c, 1, 31, 0
3, 8100, Note_on_c, 1, 35, 100
3, 8160, Note_on_c, 1, 35, 0
3, 8160, Note_on_c, 1, 33, 100
3, 8220, Note_on_c, 1, 33, 0
3, 8220, Note_on_c, 1, 33, 100
3, 8280, Note_on_c, 1, 33, 0
3, 8280, Note_on_c, 1, 33, 100
3, 8340, Note_on_c, 1, 33, 0
3, 8340, Note_on_c, 1, 33, 100
3, 8400, Note_on_c, 1, 33, 0
3, 8400, Note_on_c, 1, 31, 100
3, 8460, Note_on_c, 1, 31, 0
3, 8460, Note_on_c, 1, 35, 100
3, 8520, Note_on_c, 1, 35, 0
3, 8520, Note_on_c, 1, 31, 100
3, 8580, Note_on_c, 1, 31, 0
3, 8580, Note_on_c, 1, 35, 100
3, 8640, Note_on_c, 1, 35, 0
3, 8640, Note_on_c, 1, 33, 100
3, 8700, Note_on_c, 1, 33, 0
3, 8700, Note_on_c, 1, 33, 100
3, 8760, Note_on_c, 1, 33, 0
3, 8760, Note_on_c, 1, 33, 100
3, 8820, Note_on_c, 1, 33, 0
3, 8820, Note_on_c, 1, 33, 100
3, 8880, Note_on_c, 1, 33, 0
3, 8880, Note_on_c, 1, 31, 100
3, 8940, Note_on_c, 1, 31, 0
3, 8940, Note_on_c, 1, 35, 100
3, 9000, Note_on_c, 1, 35, 0
3, 9000, Note_on_c, 1, 31, 100
3, 9060, Note_on_c, 1, 31, 0
3, 9060, Note_on_c, 1, 35, 100
3, 9120, Note_on_c, 1, 35, 0
3, 9120, Note_on_c, 1, 33, 100
3, 9180, Note_on_c, 1, 33, 0
3, 9180, Note_on_c, 1, 33, 100
3, 9240, Note_on_c, 1, 33, 0
3, 9240, Note_on_c, 1, 33, 100
3, 9300, Note_on_c, 1, 33, 0
3, 9300, Note_on_c, 1, 33, 100
3, 9360, Note_on_c, 1, 33, 0
3, 9360, Note_on_c, 1, 31, 100
3, 9420, Note_on_c, 1, 31, 0
3, 9420, Note_on_c, 1, 35, 100
3, 9480, Note_on_c, 1, 35, 0
3, 9480, Note_on_c, 1, 31, 100
3, 9540, Note_on_c, 1, 31, 0
3, 9540, Note_on_c, 1, 35, 100
3, 9600, Note_on_c, 1, 35, 0
3, 9600, Note_on_c, 1, 33, 100
3, 9660, Note_on_c, 1, 33, 0
3, 9660, Note_on_c, 1, 33, 100
3, 9720, Note_on_c, 1, 33, 0
3, 9720, Note_on_c, 1, 33, 100
3, 9780, Note_on_c, 1, 33, 0
3, 9780, Note_on_c, 1, 33, 100
3, 9840, Note_on_c, 1, 33, 0
3, 9840, Note_on_c, 1, 31, 100
3, 9900, Note_on_c, 1, 31, 0
3, 9900, Note_on_c, 1, 35, 100
3, 9960, Note_on_c, 1, 35, 0
3, 9960, Note_on_c, 1, 31, 100
3, 10020, Note_on_c, 1, 31, 0
3, 10020, Note_on_c, 1, 35, 100
3, 10080, Note_on_c, 1, 35, 0
3, 10080, Note_on_c, 1, 33, 100
3, 10140, Note_on_c, 1, 33, 0
3, 10140, Note_on_c, 1, 33, 100
3, 10200, Note_on_c, 1, 33, 0
3, 10200, Note_on_c, 1, 33, 100
3, 10260, Note_on_c, 1, 33, 0
3, 10260, Note_on_c, 1, 33, 100
3, 10320, Note_on_c, 1, 33, 0
3, 10320, Note_on_c, 1, 31, 100
3, 10380, Note_on_c, 1, 31, 0
3, 10380, Note_on_c, 1, 35, 100
3, 10440, Note_on_c, 1, 35, 0
3, 10440, Note_on_c, 1, 31, 100
3, 10500, Note_on_c, 1, 31, 0
3, 10500, Note_on_c, 1, 35, 100
3, 10560, Note_on_c, 1, 35, 0
3, 10560, Note_on_c, 1, 33, 100
3, 10620, Note_on_c, 1, 33, 0
3, 10620, Note_on_c, 1, 33, 100
3, 10680, Note_on_c, 1, 33, 0
3, 10680, Note_on_c, 1, 33, 100
3, 10740, Note_on_c, 1, 33, 0
3, 10740, Note_on_c, 1, 33, 100
3, 10800, Note_on_c, 1, 33, 0
3, 10800, Note_on_c, 1, 31, 100
3, 10860, Note_on_c, 1, 31, 0
3, 10860, Note_on_c, 1, 35, 100
3, 10920, Note_on_c, 1, 35, 0
3, 10920, Note_on_c, 1, 31, 100
3, 10980, Note_on_c, 1, 31, 0
3, 10980, Note_on_c, 1, 35, 100
3, 11040, Note_on_c, 1, 35, 0
3, 11040, Note_on_c, 1, 33, 100
3, 11100, Note_on_c, 1, 33, 0
3, 11100, Note_on_c, 1, 33, 100
3, 11160, Note_on_c, 1, 33, 0
3, 11160, Note_on_c, 1, 33, 100
3, 11220, Note_on_c, 1, 33, 0
3, 11220, Note_on_c, 1, 33, 100
3, 11280, Note_on_c, 1, 33, 0
3, 11280, Note_on_c, 1, 31, 100
3, 11340, Note_on_c, 1, 31, 0
3, 11340, Note_on_c, 1, 35, 100
3, 11400, Note_on_c, 1, 35, 0
3, 11400, Note_on_c, 1, 31, 100
3, 11460, Note_on_c, 1, 31, 0
3, 11460, Note_on_c, 1, 35, 100
3, 11520, Note_on_c, 1, 35, 0
3, 11520, Note_on_c, 1, 33, 100
3, 11580, Note_on_c, 1, 33, 0
3, 11580, Note_on_c, 1, 33, 100
3, 11640, Note_on_c, 1, 33, 0
3, 11640, Note_on_c, 1, 33, 100
3, 11700, Note_on_c, 1, 33, 0
3, 11700, Note_on_c, 1, 33, 100
3, 11760, Note_on_c, 1, 33, 0
3, 11760, Note_on_c, 1, 31, 100
3, 11820, Note_on_c, 1, 31, 0
3, 11820, Note_on_c, 1, 35, 100
3, 11880, Note_on_c, 1, 35, 0
3, 11880, Note_on_c, 1, 31, 100
3, 11940, Note_on_c, 1, 31, 0
3, 11940, Note_on_c, 1, 35, 100
3, 12000, Note_on_c, 1, 35, 0
3, 12000, Note_on_c, 1, 33, 100
3, 12060, Note_on_c, 1, 33, 0
3, 12060, Note_on_c, 1, 33, 100
3, 12120, Note_on_c, 1, 33, 0
3, 12120, Note_on_c, 1, 33, 100
3, 12180, Note_on_c, 1, 33, 0
3, 12180, Note_on_c, 1, 33, 100
3, 12240, Note_on_c, 1, 33, 0
3, 12240, Note_on_c, 1, 31, 100
3, 12300, Note_on_c, 1, 31, 0
3, 12300, Note_on_c, 1, 35, 100
3, 12360, Note_on_c, 1, 35, 0
3, 12360, Note_on_c, 1, 31, 100
3, 12420, Note_on_c, 1, 31, 0
3, 12420, Note_on_c, 1, 35, 100
3, 12480, Note_on_c, 1, 35, 0
3, 12480, Note_on_c, 1, 35, 100
3, 12540, Note_on_c, 1, 35, 0
3, 12540, Note_on_c, 1, 35, 100
3, 12600, Note_on_c, 1, 35, 0
3, 12600, Note_on_c, 1, 35, 100
3, 12660, Note_on_c, 1, 35, 0
3, 12660, Note_on_c, 1, 35, 100
3, 12720, Note_on_c, 1, 35, 0
3, 12720, Note_on_c, 1, 35, 100
3, 12780, Note_on_c, 1, 35, 0
3, 12780, Note_on_c, 1, 35, 100
3, 12840, Note_on_c, 1, 35, 0
3, 12840, Note_on_c, 1, 35, 100
3, 12900, Note_on_c, 1, 35, 0
3, 12900, Note_on_c, 1, 35, 100
3, 12960, Note_on_c, 1, 35, 0
3, 12960, Note_on_c, 1, 42, 100
3, 13020, Note_on_c, 1, 42, 0
3, 13020, Note_on_c, 1, 42, 100
3, 13080, Note_on_c, 1, 42, 0
3, 13080, Note_on_c, 1, 42, 100
3, 13140, Note_on_c, 1, 42, 0
3, 13140, Note_on_c, 1, 42, 100
3, 13200, Note_on_c, 1, 42, 0
3, 13200, Note_on_c, 1, 42, 100
3, 13260, Note_on_c, 1, 42, 0
3, 13260, Note_on_c, 1, 42, 100
3, 13320, Note_on_c, 1, 42, 0
3, 13320, Note_on_c, 1, 42, 100
3, 13380, Note_on_c, 1, 42, 0
3, 13380, Note_on_c, 1, 42, 100
3, 13440, Note_on_c, 1, 42, 0
3, 13440, Note_on_c, 1, 43, 100
3, 13500, Note_on_c, 1, 43, 0
3, 13500, Note_on_c, 1, 43, 100
3, 13560, Note_on_c, 1, 43, 0
3, 13560, Note_on_c, 1, 43, 100
3, 13620, Note_on_c, 1, 43, 0
3, 13620, Note_on_c, 1, 43, 100
3, 13680, Note_on_c, 1, 43, 0
3, 13680, Note_on_c, 1, 43, 100
3, 13740, Note_on_c, 1, 43, 0
3, 13740, Note_on_c, 1, 43, 100
3, 13800, Note_on_c, 1, 43, 0
3, 13800, Note_on_c, 1, 43, 100
3, 13860, Note_on_c, 1, 43, 0
3, 13860, Note_on_c, 1, 43, 100
3, 13920, Note_on_c, 1, 43, 0
3, 13920, Note_on_c, 1, 41, 100
3, 13980, Note_on_c, 1, 41, 0
3, 13980, Note_on_c, 1, 41, 100
3, 14040, Note_on_c, 1, 41, 0
3, 14040, Note_on_c, 1, 41, 100
3, 14100, Note_on_c, 1, 41, 0
3, 14100, Note_on_c, 1, 41, 100
3, 14160, Note_on_c, 1, 41, 0
3, 14160, Note_on_c, 1, 41, 100
3, 14220, Note_on_c, 1, 41, 0
3, 14220, Note_on_c, 1, 41, 100
3, 14280, Note_on_c, 1, 41, 0
3, 14280, Note_on_c, 1, 41, 100
3, 14340, Note_on_c, 1, 41, 0
3, 14340, Note_on_c, 1, 41, 100
3, 14400, Note_on_c, 1, 41, 0
3, 14400, Note_on_c, 1, 35, 100
3, 14460, Note_on_c, 1, 35, 0
3, 14460, Note_on_c, 1, 35, 100
3, 14520, Note_on_c, 1, 35, 0
3, 14520, Note_on_c, 1, 35, 100
3, 14580, Note_on_c, 1, 35, 0
3, 14580, Note_on_c, 1, 35, 100
3, 14640, Note_on_c, 1, 35, 0
3, 14640, Note_on_c, 1, 35, 100
3, 14700, Note_on_c, 1, 35, 0
3, 14700, Note_on_c, 1, 35, 100
3, 14760, Note_on_c, 1, 35, 0
3, 14760, Note_on_c, 1, 35, 100
3, 14820, Note_on_c, 1, 35, 0
3, 14820, Note_on_c, 1, 35, 100
3, 14880, Note_on_c, 1, 35, 0
3, 14880, Note_on_c, 1, 42, 100
3, 14940, Note_on_c, 1, 42, 0
3, 14940, Note_on_c, 1, 42, 100
3, 15000, Note_on_c, 1, 42, 0
3, 15000, Note_on_c, 1, 42, 100
3, 15060, Note_on_c, 1, 42, 0
3, 15060, Note_on_c, 1, 42, 100
3, 15120, Note_on_c, 1, 42, 0
3, 15120, Note_on_c, 1, 42, 100
3, 15180, Note_on_c, 1, 42, 0
3, 15180, Note_on_c, 1, 42, 100
3, 15240, Note_on_c, 1, 42, 0
3, 15240, Note_on_c, 1, 42, 100
3, 15300, Note_on_c, 1, 42, 0
3, 15300, Note_on_c, 1, 42, 100
3, 15360, Note_on_c, 1, 42, 0
3, 15360, Note_on_c, 1, 43, 100
3, 15420, Note_on_c, 1, 43, 0
3, 15420, Note_on_c, 1, 43, 100
3, 15480, Note_on_c, 1, 43, 0
3, 15480, Note_on_c, 1, 43, 100
3, 15540, Note_on_c, 1, 43, 0
3, 15540, Note_on_c, 1, 43, 100
3, 15600, Note_on_c, 1, 43, 0
3, 15600, Note_on_c, 1, 43, 100
3, 15660, Note_on_c, 1, 43, 0
3, 15660, Note_on_c, 1, 43, 100
3, 15720, Note_on_c, 1, 43, 0
3, 15720, Note_on_c, 1, 43, 100
3, 15780, Note_on_c, 1, 43, 0
3, 15780, Note_on_c, 1, 43, 100
3, 15840, Note_on_c, 1, 43, 0
3, 15840, Note_on_c, 1, 41, 100
3, 15900, Note_on_c, 1, 41, 0
3, 15900, Note_on_c, 1, 41, 100
3, 15960, Note_on_c, 1, 41, 0
3, 15960, Note_on_c, 1, 41, 100
3, 16020, Note_on_c, 1, 41, 0
3, 16020, Note_on_c, 1, 41, 100
3, 16080, Note_on_c, 1, 41, 0
3, 16080, Note_on_c, 1, 41, 100
3, 16140, Note_on_c, 1, 41, 0
3, 16140, Note_on_c, 1, 41, 100
3, 16200, Note_on_c, 1, 41, 0
3, 16200, Note_on_c, 1, 41, 100
3, 16260, Note_on_c, 1, 41, 0
3, 16260, Note_on_c, 1, 41, 100
3, 16320, Note_on_c, 1, 41, 0
3, 16380, Note_on_c, 1, 35, 100
3, 16440, Note_on_c, 1, 35, 0
3, 16440, Note_on_c, 1, 35, 100
3, 16500, Note_on_c, 1, 35, 0
3, 16500, Note_on_c, 1, 35, 100
3, 16560, Note_on_c, 1, 35, 0
3, 16620, Note_on_c, 1, 42, 100
3, 16680, Note_on_c, 1, 42, 0
3, 16680, Note_on_c, 1, 42, 100
3, 16740, Note_on_c, 1, 42, 0
3, 16740, Note_on_c, 1, 42, 100
3, 16800, Note_on_c, 1, 42, 0
3, 16800, Note_on_c, 1, 33, 100
3, 16860, Note_on_c, 1, 33, 0
3, 16860, Note_on_c, 1, 33, 100
3, 16920, Note_on_c, 1, 33, 0
3, 16920, Note_on_c, 1, 33, 100
3, 16980, Note_on_c, 1, 33, 0
3, 16980, Note_on_c, 1, 33, 100
3, 17040, Note_on_c, 1, 33, 0
3, 17040, Note_on_c, 1, 31, 100
3, 17100, Note_on_c, 1, 31, 0
3, 17100, Note_on_c, 1, 35, 100
3, 17160, Note_on_c, 1, 35, 0
3, 17160, Note_on_c, 1, 31, 100
3, 17220, Note_on_c, 1, 31, 0
3, 17220, Note_on_c, 1, 35, 100
3, 17280, Note_on_c, 1, 35, 0
3, 17280, Note_on_c, 1, 33, 100
3, 17340, Note_on_c, 1, 33, 0
3, 17340, Note_on_c, 1, 33, 100
3, 17400, Note_on_c, 1, 33, 0
3, 17400, Note_on_c, 1, 33, 100
3, 17460, Note_on_c, 1, 33, 0
3, 17460, Note_on_c, 1, 33, 100
3, 17520, Note_on_c, 1, 33, 0
3, 17520, Note_on_c, 1, 31, 100
3, 17580, Note_on_c, 1, 31, 0
3, 17580, Note_on_c, 1, 35, 100
3, 17640, Note_on_c, 1, 35, 0
3, 17640, Note_on_c, 1, 31, 100
3, 17700, Note_on_c, 1, 31, 0
3, 17700, Note_on_c, 1, 35, 100
3, 17760, Note_on_c, 1, 35, 0
3, 18240, Note_on_c, 1, 33, 100
3, 18300, Note_on_c, 1, 33, 0
3, 18300, Note_on_c, 1, 33, 100
3, 18360, Note_on_c, 1, 33, 0
3, 18360, Note_on_c, 1, 33, 100
3, 18420, Note_on_c, 1, 33, 0
3, 18420, Note_on_c, 1, 33, 100
3, 18480, Note_on_c, 1, 33, 0
3, 18480, Note_on_c, 1, 31, 100
3, 18540, Note_on_c, 1, 31, 0
3, 18540, Note_on_c, 1, 35, 100
3, 18600, Note_on_c, 1, 35, 0
3, 18600, Note_on_c, 1, 31, 100
3, 18660, Note_on_c, 1, 31, 0
3, 18660, Note_on_c, 1, 35, 100
3, 18720, Note_on_c, 1, 35, 0
3, 18720, Note_on_c, 1, 33, 100
3, 18780, Note_on_c, 1, 33, 0
3, 18780, Note_on_c, 1, 33, 100
3, 18840, Note_on_c, 1, 33, 0
3, 18840, Note_on_c, 1, 33, 100
3, 18900, Note_on_c, 1, 33, 0
3, 18900, Note_on_c, 1, 33, 100
3, 18960, Note_on_c, 1, 33, 0
3, 18960, Note_on_c, 1, 31, 100
3, 19020, Note_on_c, 1, 31, 0
3, 19020, Note_on_c, 1, 35, 100
3, 19080, Note_on_c, 1, 35, 0
3, 19080, Note_on_c, 1, 31, 100
3, 19140, Note_on_c, 1, 31, 0
3, 19140, Note_on_c, 1, 35, 100
3, 19200, Note_on_c, 1, 35, 0
3, 19200, Note_on_c, 1, 33, 100
3, 19260, Note_on_c, 1, 33, 0
3, 19260, Note_on_c, 1, 33, 100
3, 19320, Note_on_c, 1, 33, 0
3, 19320, Note_on_c, 1, 33, 100
3, 19380, Note_on_c, 1, 33, 0
3, 19380, Note_on_c, 1, 33, 100
3, 19440, Note_on_c, 1, 33, 0
3, 19440, Note_on_c, 1, 31, 100
3, 19500, Note_on_c, 1, 31, 0
3, 19500, Note_on_c, 1, 35, 100
3, 19560, Note_on_c, 1, 35, 0
3, 19560, Note_on_c, 1, 31, 100
3, 19620, Note_on_c, 1, 31, 0
3, 19620, Note_on_c, 1, 35, 100
3, 19680, Note_on_c, 1, 35, 0
3, 19680, Note_on_c, 1, 33, 100
3, 19740, Note_on_c, 1, 33, 0
3, 19740, Note_on_c, 1, 33, 100
3, 19800, Note_on_c, 1, 33, 0
3, 19800, Note_on_c, 1, 33, 100
3, 19860, Note_on_c, 1, 33, 0
3, 19860, Note_on_c, 1, 33, 100
3, 19920, Note_on_c, 1, 33, 0
3, 19920, Note_on_c, 1, 31, 100
3, 19980, Note_on_c, 1, 31, 0
3, 19980, Note_on_c, 1, 35, 100
3, 20040, Note_on_c, 1, 35, 0
3, 20040, Note_on_c, 1, 31, 100
3, 20100, Note_on_c, 1, 31, 0
3, 20100, Note_on_c, 1, 35, 100
3, 20160, Note_on_c, 1, 35, 0
3, 20160, Note_on_c, 1, 33, 100
3, 20220, Note_on_c, 1, 33, 0
3, 20220, Note_on_c, 1, 33, 100
3, 20280, Note_on_c, 1, 33, 0
3, 20280, Note_on_c, 1, 33, 100
3, 20340, Note_on_c, 1, 33, 0
3, 20340, Note_on_c, 1, 33, 100
3, 20400, Note_on_c, 1, 33, 0
3, 20400, Note_on_c, 1, 31, 100
3, 20460, Note_on_c, 1, 31, 0
3, 20460, Note_on_c, 1, 35, 100
3, 20520, Note_on_c, 1, 35, 0
3, 20520, Note_on_c, 1, 31, 100
3, 20580, Note_on_c, 1, 31, 0
3, 20580, Note_on_c, 1, 35, 100
3, 20640, Note_on_c, 1, 35, 0
3, 20640, Note_on_c, 1, 33, 100
3, 20700, Note_on_c, 1, 33, 0
3, 20700, Note_on_c, 1, 33, 100
3, 20760, Note_on_c, 1, 33, 0
3, 20760, Note_on_c, 1, 33, 100
3, 20820, Note_on_c, 1, 33, 0
3, 20820, Note_on_c, 1, 33, 100
3, 20880, Note_on_c, 1, 33, 0
3, 20880, Note_on_c, 1, 31, 100
3, 20940, Note_on_c, 1, 31, 0
3, 20940, Note_on_c, 1, 35, 100
3, 21000, Note_on_c, 1, 35, 0
3, 21000, Note_on_c, 1, 31, 100
3, 21060, Note_on_c, 1, 31, 0
3, 21060, Note_on_c, 1, 35, 100
3, 21120, Note_on_c, 1, 35, 0
3, 21120, Note_on_c, 1, 33, 100
3, 21180, Note_on_c, 1, 33, 0
3, 21180, Note_on_c, 1, 33, 100
3, 21240, Note_on_c, 1, 33, 0
3, 21240, Note_on_c, 1, 33, 100
3, 21300, Note_on_c, 1, 33, 0
3, 21300, Note_on_c, 1, 33, 100
3, 21360, Note_on_c, 1, 33, 0
3, 21360, Note_on_c, 1, 31, 100
3, 21420, Note_on_c, 1, 31, 0
3, 21420, Note_on_c, 1, 35, 100
3, 21480, Note_on_c, 1, 35, 0
3, 21480, Note_on_c, 1, 31, 100
3, 21540, Note_on_c, 1, 31, 0
3, 21540, Note_on_c, 1, 35, 100
3, 21600, Note_on_c, 1, 35, 0
3, 21600, Note_on_c, 1, 33, 100
3, 21660, Note_on_c, 1, 33, 0
3, 21660, Note_on_c, 1, 33, 100
3, 21720, Note_on_c, 1, 33, 0
3, 21720, Note_on_c, 1, 33, 100
3, 21780, Note_on_c, 1, 33, 0
3, 21780, Note_on_c, 1, 33, 100
3, 21840, Note_on_c, 1, 33, 0
3, 21840, Note_on_c, 1, 31, 100
3, 21900, Note_on_c, 1, 31, 0
3, 21900, Note_on_c, 1, 35, 100
3, 21960, Note_on_c, 1, 35, 0
3, 21960, Note_on_c, 1, 31, 100
3, 22020, Note_on_c, 1, 31, 0
3, 22020, Note_on_c, 1, 35, 100
3, 22080, Note_on_c, 1, 35, 0
3, 22080, Note_on_c, 1, 33, 100
3, 22140, Note_on_c, 1, 33, 0
3, 22140, Note_on_c, 1, 33, 100
3, 22200, Note_on_c, 1, 33, 0
3, 22200, Note_on_c, 1, 33, 100
3, 22260, Note_on_c, 1, 33, 0
3, 22260, Note_on_c, 1, 33, 100
3, 22320, Note_on_c, 1, 33, 0
3, 22320, Note_on_c, 1, 31, 100
3, 22380, Note_on_c, 1, 31, 0
3, 22380, Note_on_c, 1, 35, 100
3, 22440, Note_on_c, 1, 35, 0
3, 22440, Note_on_c, 1, 31, 100
3, 22500, Note_on_c, 1, 31, 0
3, 22500, Note_on_c, 1, 35, 100
3, 22560, Note_on_c, 1, 35, 0
3, 22560, Note_on_c, 1, 33, 100
3, 22620, Note_on_c, 1, 33, 0
3, 22620, Note_on_c, 1, 33, 100
3, 22680, Note_on_c, 1, 33, 0
3, 22680, Note_on_c, 1, 33, 100
3, 22740, Note_on_c, 1, 33, 0
3, 22740, Note_on_c, 1, 33, 100
3, 22800, Note_on_c, 1, 33, 0
3, 22800, Note_on_c, 1, 31, 100
3, 22860, Note_on_c, 1, 31, 0
3, 22860, Note_on_c, 1, 35, 100
3, 22920, Note_on_c, 1, 35, 0
3, 22920, Note_on_c, 1, 31, 100
3, 22980, Note_on_c, 1, 31, 0
3, 22980, Note_on_c, 1, 35, 100
3, 23040, Note_on_c, 1, 35, 0
3, 23040, Note_on_c, 1, 33, 100
3, 23100, Note_on_c, 1, 33, 0
3, 23100, Note_on_c, 1, 33, 100
3, 23160, Note_on_c, 1, 33, 0
3, 23160, Note_on_c, 1, 33, 100
3, 23220, Note_on_c, 1, 33, 0
3, 23220, Note_on_c, 1, 33, 100
3, 23280, Note_on_c, 1, 33, 0
3, 23280, Note_on_c, 1, 31, 100
3, 23340, Note_on_c, 1, 31, 0
3, 23340, Note_on_c, 1, 35, 100
3, 23400, Note_on_c, 1, 35, 0
3, 23400, Note_on_c, 1, 31, 100
3, 23460, Note_on_c, 1, 31, 0
3, 23460, Note_on_c, 1, 35, 100
3, 23520, Note_on_c, 1, 35, 0
3, 23520, Note_on_c, 1, 33, 100
3, 23580, Note_on_c, 1, 33, 0
3, 23580, Note_on_c, 1, 33, 100
3, 23640, Note_on_c, 1, 33, 0
3, 23640, Note_on_c, 1, 33, 100
3, 23700, Note_on_c, 1, 33, 0
3, 23700, Note_on_c, 1, 33, 100
3, 23760, Note_on_c, 1, 33, 0
3, 23760, Note_on_c, 1, 31, 100
3, 23820, Note_on_c, 1, 31, 0
3, 23820, Note_on_c, 1, 35, 100
3, 23880, Note_on_c, 1, 35, 0
3, 23880, Note_on_c, 1, 31, 100
3, 23940, Note_on_c, 1, 31, 0
3, 23940, Note_on_c, 1, 35, 100
3, 24000, Note_on_c, 1, 35, 0
3, 24000, Note_on_c, 1, 33, 100
3, 24060, Note_on_c, 1, 33, 0
3, 24060, Note_on_c, 1, 33, 100
3, 24120, Note_on_c, 1, 33, 0
3, 24120, Note_on_c, 1, 33, 100
3, 24180, Note_on_c, 1, 33, 0
3, 24180, Note_on_c, 1, 33, 100
3, 24240, Note_on_c, 1, 33, 0
3, 24240, Note_on_c, 1, 31, 100
3, 24300, Note_on_c, 1, 31, 0
3, 24300, Note_on_c, 1, 35, 100
3, 24360, Note_on_c, 1, 35, 0
3, 24360, Note_on_c, 1, 31, 100
3, 24420, Note_on_c, 1, 31, 0
3, 24420, Note_on_c, 1, 35, 100
3, 24480, Note_on_c, 1, 35, 0
3, 24480, Note_on_c, 1, 33, 100
3, 24540, Note_on_c, 1, 33, 0
3, 24540, Note_on_c, 1, 33, 100
3, 24600, Note_on_c, 1, 33, 0
3, 24600, Note_on_c, 1, 33, 100
3, 24660, Note_on_c, 1, 33, 0
3, 24660, Note_on_c, 1, 33, 100
3, 24720, Note_on_c, 1, 33, 0
3, 24720, Note_on_c, 1, 31, 100
3, 24780, Note_on_c, 1, 31, 0
3, 24780, Note_on_c, 1, 35, 100
3, 24840, Note_on_c, 1, 35, 0
3, 24840, Note_on_c, 1, 31, 100
3, 24900, Note_on_c, 1, 31, 0
3, 24900, Note_on_c, 1, 35, 100
3, 24960, Note_on_c, 1, 35, 0
3, 24960, Note_on_c, 1, 33, 100
3, 25020, Note_on_c, 1, 33, 0
3, 25020, Note_on_c, 1, 33, 100
3, 25080, Note_on_c, 1, 33, 0
3, 25080, Note_on_c, 1, 33, 100
3, 25140, Note_on_c, 1, 33, 0
3, 25140, Note_on_c, 1, 33, 100
3, 25200, Note_on_c, 1, 33, 0
3, 25200, Note_on_c, 1, 31, 100
3, 25260, Note_on_c, 1, 31, 0
3, 25260, Note_on_c, 1, 35, 100
3, 25320, Note_on_c, 1, 35, 0
3, 25320, Note_on_c, 1, 31, 100
3, 25380, Note_on_c, 1, 31, 0
3, 25380, Note_on_c, 1, 35, 100
3, 25440, Note_on_c, 1, 35, 0
3, 25440, Note_on_c, 1, 33, 100
3, 25500, Note_on_c, 1, 33, 0
3, 25500, Note_on_c, 1, 33, 100
3, 25560, Note_on_c, 1, 33, 0
3, 25560, Note_on_c, 1, 33, 100
3, 25620, Note_on_c, 1, 33, 0
3, 25620, Note_on_c, 1, 33, 100
3, 25680, Note_on_c, 1, 33, 0
3, 25680, Note_on_c, 1, 31, 100
3, 25740, Note_on_c, 1, 31, 0
3, 25740, Note_on_c, 1, 35, 100
3, 25800, Note_on_c, 1, 35, 0
3, 25800, Note_on_c, 1, 31, 100
3, 25860, Note_on_c, 1, 31, 0
3, 25860, Note_on_c, 1, 35, 100
3, 25920, Note_on_c, 1, 35, 0
3, 25920, Note_on_c, 1, 33, 100
3, 25980, Note_on_c, 1, 33, 0
3, 25980, Note_on_c, 1, 33, 100
3, 26040, Note_on_c, 1, 33, 0
3, 26040, Note_on_c, 1, 33, 100
3, 26100, Note_on_c, 1, 33, 0
3, 26100, Note_on_c, 1, 33, 100
3, 26160, Note_on_c, 1, 33, 0
3, 26160, Note_on_c, 1, 31, 100
3, 26220, Note_on_c, 1, 31, 0
3, 26220, Note_on_c, 1, 35, 100
3, 26280, Note_on_c, 1, 35, 0
3, 26280, Note_on_c, 1, 31, 100
3, 26340, Note_on_c, 1, 31, 0
3, 26340, Note_on_c, 1, 35, 100
3, 26400, Note_on_c, 1, 35, 0
3, 26400, Note_on_c, 1, 33, 100
3, 26460, Note_on_c, 1, 33, 0
3, 26460, Note_on_c, 1, 33, 100
3, 26520, Note_on_c, 1, 33, 0
3, 26520, Note_on_c, 1, 33, 100
3, 26580, Note_on_c, 1, 33, 0
3, 26580, Note_on_c, 1, 33, 100
3, 26640, Note_on_c, 1, 33, 0
3, 26640, Note_on_c, 1, 31, 100
3, 26700, Note_on_c, 1, 31, 0
3, 26700, Note_on_c, 1, 35, 100
3, 26760, Note_on_c, 1, 35, 0
3, 26760, Note_on_c, 1, 31, 100
3, 26820, Note_on_c, 1, 31, 0
3, 26820, Note_on_c, 1, 35, 100
3, 26880, Note_on_c, 1, 35, 0
3, 26880, Note_on_c, 1, 33, 100
3, 26940, Note_on_c, 1, 33, 0
3, 26940, Note_on_c, 1, 33, 100
3, 27000, Note_on_c, 1, 33, 0
3, 27000, Note_on_c, 1, 33, 100
3, 27060, Note_on_c, 1, 33, 0
3, 27060, Note_on_c, 1, 33, 100
3, 27120, Note_on_c, 1, 33, 0
3, 27120, Note_on_c, 1, 31, 100
3, 27180, Note_on_c, 1, 31, 0
3, 27180, Note_on_c, 1, 35, 100
3, 27240, Note_on_c, 1, 35, 0
3, 27240, Note_on_c, 1, 31, 100
3, 27300, Note_on_c, 1, 31, 0
3, 27300, Note_on_c, 1, 35, 100
3, 27360, Note_on_c, 1, 35, 0
3, 27360, Note_on_c, 1, 33, 100
3, 27420, Note_on_c, 1, 33, 0
3, 27420, Note_on_c, 1, 33, 100
3, 27480, Note_on_c, 1, 33, 0
3, 27480, Note_on_c, 1, 33, 100
3, 27540, Note_on_c, 1, 33, 0
3, 27540, Note_on_c, 1, 33, 100
3, 27600, Note_on_c, 1, 33, 0
3, 27600, Note_on_c, 1, 31, 100
3, 27660, Note_on_c, 1, 31, 0
3, 27660, Note_on_c, 1, 35, 100
3, 27720, Note_on_c, 1, 35, 0
3, 27720, Note_on_c, 1, 31, 100
3, 27780, Note_on_c, 1, 31, 0
3, 27780, Note_on_c, 1, 35, 100
3, 27840, Note_on_c, 1, 35, 0
3, 27840, Note_on_c, 1, 35, 100
3, 27900, Note_on_c, 1, 35, 0
3, 27900, Note_on_c, 1, 35, 100
3, 27960, Note_on_c, 1, 35, 0
3, 27960, Note_on_c, 1, 35, 100
3, 28020, Note_on_c, 1, 35, 0
3, 28020, Note_on_c, 1, 35, 100
3, 28080, Note_on_c, 1, 35, 0
3, 28080, Note_on_c, 1, 35, 100
3, 28140, Note_on_c, 1, 35, 0
3, 28140, Note_on_c, 1, 35, 100
3, 28200, Note_on_c, 1, 35, 0
3, 28200, Note_on_c, 1, 35, 100
3, 28260, Note_on_c, 1, 35, 0
3, 28260, Note_on_c, 1, 35, 100
3, 28320, Note_on_c, 1, 35, 0
3, 28320, Note_on_c, 1, 42, 100
3, 28380, Note_on_c, 1, 42, 0
3, 28380, Note_on_c, 1, 42, 100
3, 28440, Note_on_c, 1, 42, 0
3, 28440, Note_on_c, 1, 42, 100
3, 28500, Note_on_c, 1, 42, 0
3, 28500, Note_on_c, 1, 42, 100
3, 28560, Note_on_c, 1, 42, 0
3, 28560, Note_on_c, 1, 42, 100
3, 28620, Note_on_c, 1, 42, 0
3, 28620, Note_on_c, 1, 42, 100
3, 28680, Note_on_c, 1, 42, 0
3, 28680, Note_on_c, 1, 42, 100
3, 28740, Note_on_c, 1, 42, 0
3, 28740, Note_on_c, 1, 42, 100
3, 28800, Note_on_c, 1, 42, 0
3, 28800, Note_on_c, 1, 43, 100
3, 28860, Note_on_c, 1, 43, 0
3, 28860, Note_on_c, 1, 43, 100
3, 28920, Note_on_c, 1, 43, 0
3, 28920, Note_on_c, 1, 43, 100
3, 28980, Note_on_c, 1, 43, 0
3, 28980, Note_on_c, 1, 43, 100
3, 29040, Note_on_c, 1, 43, 0
3, 29040, Note_on_c, 1, 43, 100
3, 29100, Note_on_c, 1, 43, 0
3, 29100, Note_on_c, 1, 43, 100
3, 29160, Note_on_c, 1, 43, 0
3, 29160, Note_on_c, 1, 43, 100
3, 29220, Note_on_c, 1, 43, 0
3, 29220, Note_on_c, 1, 43, 100
3, 29280, Note_on_c, 1, 43, 0
3, 29280, Note_on_c, 1, 41, 100
3, 29340, Note_on_c, 1, 41, 0
3, 29340, Note_on_c, 1, 41, 100
3, 29400, Note_on_c, 1, 41, 0
3, 29400, Note_on_c, 1, 41, 100
3, 29460, Note_on_c, 1, 41, 0
3, 29460, Note_on_c, 1, 41, 100
3, 29520, Note_on_c, 1, 41, 0
3, 29520, Note_on_c, 1, 41, 100
3, 29580, Note_on_c, 1, 41, 0
3, 29580, Note_on_c, 1, 41, 100
3, 29640, Note_on_c, 1, 41, 0
3, 29640, Note_on_c, 1, 41, 100
3, 29700, Note_on_c, 1, 41, 0
3, 29700, Note_on_c, 1, 41, 100
3, 29760, Note_on_c, 1, 41, 0
3, 29760, Note_on_c, 1, 35, 100
3, 29820, Note_on_c, 1, 35, 0
3, 29820, Note_on_c, 1, 35, 100
3, 29880, Note_on_c, 1, 35, 0
3, 29880, Note_on_c, 1, 35, 100
3, 29940, Note_on_c, 1, 35, 0
3, 29940, Note_on_c, 1, 35, 100
3, 30000, Note_on_c, 1, 35, 0
3, 30000, Note_on_c, 1, 35, 100
3, 30060, Note_on_c, 1, 35, 0
3, 30060, Note_on_c, 1, 35, 100
3, 30120, Note_on_c, 1, 35, 0
3, 30120, Note_on_c, 1, 35, 100
3, 30180, Note_on_c, 1, 35, 0
3, 30180, Note_on_c, 1, 35, 100
3, 30240, Note_on_c, 1, 35, 0
3, 30240, Note_on_c, 1, 42, 100
3, 30300, Note_on_c, 1, 42, 0
3, 30300, Note_on_c, 1, 42, 100
3, 30360, Note_on_c, 1, 42, 0
3, 30360, Note_on_c, 1, 42, 100
3, 30420, Note_on_c, 1, 42, 0
3, 30420, Note_on_c, 1, 42, 100
3, 30480, Note_on_c, 1, 42, 0
3, 30480, Note_on_c, 1, 42, 100
3, 30540, Note_on_c, 1, 42, 0
3, 30540, Note_on_c, 1, 42, 100
3, 30600, Note_on_c, 1, 42, 0
3, 30600, Note_on_c, 1, 42, 100
3, 30660, Note_on_c, 1, 42, 0
3, 30660, Note_on_c, 1, 42, 100
3, 30720, Note_on_c, 1, 42, 0
3, 30720, Note_on_c, 1, 43, 100
3, 30780, Note_on_c, 1, 43, 0
3, 30780, Note_on_c, 1, 43, 100
3, 30840, Note_on_c, 1, 43, 0
3, 30840, Note_on_c, 1, 43, 100
3, 30900, Note_on_c, 1, 43, 0
3, 30900, Note_on_c, 1, 43, 100
3, 30960, Note_on_c, 1, 43, 0
3, 30960, Note_on_c, 1, 43, 100
3, 31020, Note_on_c, 1, 43, 0
3, 31020, Note_on_c, 1, 43, 100
3, 31080, Note_on_c, 1, 43, 0
3, 31080, Note_on_c, 1, 43, 100
3, 31140, Note_on_c, 1, 43, 0
3, 31140, Note_on_c, 1, 43, 100
3, 31200, Note_on_c, 1, 43, 0
3, 31200, Note_on_c, 1, 41, 100
3, 31260, Note_on_c, 1, 41, 0
3, 31260, Note_on_c, 1, 41, 100
3, 31320, Note_on_c, 1, 41, 0
3, 31320, Note_on_c, 1, 41, 100
3, 31380, Note_on_c, 1, 41, 0
3, 31380, Note_on_c, 1, 41, 100
3, 31440, Note_on_c, 1, 41, 0
3, 31440, Note_on_c, 1, 41, 100
3, 31500, Note_on_c, 1, 41, 0
3, 31500, Note_on_c, 1, 41, 100
3, 31560, Note_on_c, 1, 41, 0
3, 31560, Note_on_c, 1, 41, 100
3, 31620, Note_on_c, 1, 41, 0
3, 31620, Note_on_c, 1, 41, 100
3, 31680, Note_on_c, 1, 41, 0
3, 31740, Note_on_c, 1, 35, 100
3, 31800, Note_on_c, 1, 35, 0
3, 31800, Note_on_c, 1, 35, 100
3, 31860, Note_on_c, 1, 35, 0
3, 31860, Note_on_c, 1, 35, 100
3, 31920, Note_on_c, 1, 35, 0
3, 31980, Note_on_c, 1, 42, 100
3, 32040, Note_on_c, 1, 42, 0
3, 32040, Note_on_c, 1, 42, 100
3, 32100, Note_on_c, 1, 42, 0
3, 32100, Note_on_c, 1, 42, 100
3, 32160, Note_on_c, 1, 42, 0
3, 32160, Note_on_c, 1, 33, 100
3, 32220, Note_on_c, 1, 33, 0
3, 32220, Note_on_c, 1, 33, 100
3, 32280, Note_on_c, 1, 33, 0
3, 32280, Note_on_c, 1, 33, 100
3, 32340, Note_on_c, 1, 33, 0
3, 32340, Note_on_c, 1, 33, 100
3, 32400, Note_on_c, 1, 33, 0
3, 32400, Note_on_c, 1, 31, 100
3, 32460, Note_on_c, 1, 31, 0
3, 32460, Note_on_c, 1, 35, 100
3, 32520, Note_on_c, 1, 35, 0
3, 32520, Note_on_c, 1, 31, 100
3, 32580, Note_on_c, 1, 31, 0
3, 32580, Note_on_c, 1, 35, 100
3, 32640, Note_on_c, 1, 35, 0
3, 32640, Note_on_c, 1, 33, 100
3, 32700, Note_on_c, 1, 33, 0
3, 32700, Note_on_c, 1, 33, 100
3, 32760, Note_on_c, 1, 33, 0
3, 32760, Note_on_c, 1, 33, 100
3, 32820, Note_on_c, 1, 33, 0
3, 32820, Note_on_c, 1, 33, 100
3, 32880, Note_on_c, 1, 33, 0
3, 32880, Note_on_c, 1, 31, 100
3, 32940, Note_on_c, 1, 31, 0
3, 32940, Note_on_c, 1, 35, 100
3, 33000, Note_on_c, 1, 35, 0
3, 33000, Note_on_c, 1, 31, 100
3, 33060, Note_on_c, 1, 31, 0
3, 33060, Note_on_c, 1, 35, 100
3, 33120, Note_on_c, 1, 35, 0
3, 33600, Note_on_c, 1, 33, 100
3, 33660, Note_on_c, 1, 33, 0
3, 33660, Note_on_c, 1, 33, 100
3, 33720, Note_on_c, 1, 33, 0
3, 33720, Note_on_c, 1, 33, 100
3, 33780, Note_on_c, 1, 33, 0
3, 33780, Note_on_c, 1, 33, 100
3, 33840, Note_on_c, 1, 33, 0
3, 33840, Note_on_c, 1, 31, 100
3, 33900, Note_on_c, 1, 31, 0
3, 33900, Note_on_c, 1, 35, 100
3, 33960, Note_on_c, 1, 35, 0
3, 33960, Note_on_c, 1, 31, 100
3, 34020, Note_on_c, 1, 31, 0
3, 34020, Note_on_c, 1, 35, 100
3, 34080, Note_on_c, 1, 35, 0
3, 34080, Note_on_c, 1, 33, 100
3, 34140, Note_on_c, 1, 33, 0
3, 34140, Note_on_c, 1, 33, 100
3, 34200, Note_on_c, 1, 33, 0
3, 34200, Note_on_c, 1, 33, 100
3, 34260, Note_on_c, 1, 33, 0
3, 34260, Note_on_c, 1, 33, 100
3, 34320, Note_on_c, 1, 33, 0
3, 34320, Note_on_c, 1, 31, 100
3, 34380, Note_on_c, 1, 31, 0
3, 34380, Note_on_c, 1, 35, 100
3, 34440, Note_on_c, 1, 35, 0
3, 34440, Note_on_c, 1, 31, 100
3, 34500, Note_on_c, 1, 31, 0
3, 34500, Note_on_c, 1, 35, 100
3, 34560, Note_on_c, 1, 35, 0
3, 34560, Note_on_c, 1, 33, 100
3, 34620, Note_on_c, 1, 33, 0
3, 34620, Note_on_c, 1, 33, 100
3, 34680, Note_on_c, 1, 33, 0
3, 34680, Note_on_c, 1, 33, 100
3, 34740, Note_on_c, 1, 33, 0
3, 34740, Note_on_c, 1, 33, 100
3, 34800, Note_on_c, 1, 33, 0
3, 34800, Note_on_c, 1, 31, 100
3, 34860, Note_on_c, 1, 31, 0
3, 34860, Note_on_c, 1, 35, 100
3, 34920, Note_on_c, 1, 35, 0
3, 34920, Note_on_c, 1, 31, 100
3, 34980, Note_on_c, 1, 31, 0
3, 34980, Note_on_c, 1, 35, 100
3, 35040, Note_on_c, 1, 35, 0
3, 35040, Note_on_c, 1, 33, 100
3, 35100, Note_on_c, 1, 33, 0
3, 35100, Note_on_c, 1, 33, 100
3, 35160, Note_on_c, 1, 33, 0
3, 35160, Note_on_c, 1, 33, 100
3, 35220, Note_on_c, 1, 33, 0
3, 35220, Note_on_c, 1, 33, 100
3, 35280, Note_on_c, 1, 33, 0
3, 35280, Note_on_c, 1, 31, 100
3, 35340, Note_on_c, 1, 31, 0
3, 35340, Note_on_c, 1, 35, 100
3, 35400, Note_on_c, 1, 35, 0
3, 35400, Note_on_c, 1, 31, 100
3, 35460, Note_on_c, 1, 31, 0
3, 35460, Note_on_c, 1, 35, 100
3, 35520, Note_on_c, 1, 35, 0
3, 35520, Note_on_c, 1, 33, 100
3, 35580, Note_on_c, 1, 33, 0
3, 35580, Note_on_c, 1, 33, 100
3, 35640, Note_on_c, 1, 33, 0
3, 35640, Note_on_c, 1, 33, 100
3, 35700, Note_on_c, 1, 33, 0
3, 35700, Note_on_c, 1, 33, 100
3, 35760, Note_on_c, 1, 33, 0
3, 35760, Note_on_c, 1, 31, 100
3, 35820, Note_on_c, 1, 31, 0
3, 35820, Note_on_c, 1, 35, 100
3, 35880, Note_on_c, 1, 35, 0
3, 35880, Note_on_c, 1, 31, 100
3, 35940, Note_on_c, 1, 31, 0
3, 35940, Note_on_c, 1, 35, 100
3, 36000, Note_on_c, 1, 35, 0
3, 36000, Note_on_c, 1, 33, 100
3, 36060, Note_on_c, 1, 33, 0
3, 36060, Note_on_c, 1, 33, 100
3, 36120, Note_on_c, 1, 33, 0
3, 36120, Note_on_c, 1, 33, 100
3, 36180, Note_on_c, 1, 33, 0
3, 36180, Note_on_c, 1, 33, 100
3, 36240, Note_on_c, 1, 33, 0
3, 36240, Note_on_c, 1, 31, 100
3, 36300, Note_on_c, 1, 31, 0
3, 36300, Note_on_c, 1, 35, 100
3, 36360, Note_on_c, 1, 35, 0
3, 36360, Note_on_c, 1, 31, 100
3, 36420, Note_on_c, 1, 31, 0
3, 36420, Note_on_c, 1, 35, 100
3, 36480, Note_on_c, 1, 35, 0
3, 36480, Note_on_c, 1, 33, 100
3, 36540, Note_on_c, 1, 33, 0
3, 36540, Note_on_c, 1, 33, 100
3, 36600, Note_on_c, 1, 33, 0
3, 36600, Note_on_c, 1, 33, 100
3, 36660, Note_on_c, 1, 33, 0
3, 36660, Note_on_c, 1, 33, 100
3, 36720, Note_on_c, 1, 33, 0
3, 36720, Note_on_c, 1, 31, 100
3, 36780, Note_on_c, 1, 31, 0
3, 36780, Note_on_c, 1, 35, 100
3, 36840, Note_on_c, 1, 35, 0
3, 36840, Note_on_c, 1, 31, 100
3, 36900, Note_on_c, 1, 31, 0
3, 36900, Note_on_c, 1, 35, 100
3, 36960, Note_on_c, 1, 35, 0
3, 36960, Note_on_c, 1, 33, 100
3, 37020, Note_on_c, 1, 33, 0
3, 37020, Note_on_c, 1, 33, 100
3, 37080, Note_on_c, 1, 33, 0
3, 37080, Note_on_c, 1, 33, 100
3, 37140, Note_on_c, 1, 33, 0
3, 37140, Note_on_c, 1, 33, 100
3, 37200, Note_on_c, 1, 33, 0
3, 37200, Note_on_c, 1, 31, 100
3, 37260, Note_on_c, 1, 31, 0
3, 37260, Note_on_c, 1, 35, 100
3, 37320, Note_on_c, 1, 35, 0
3, 37320, Note_on_c, 1, 31, 100
3, 37380, Note_on_c, 1, 31, 0
3, 37380, Note_on_c, 1, 35, 100
3, 37440, Note_on_c, 1, 35, 0
3, 37440, Note_on_c, 1, 33, 100
3, 37500, Note_on_c, 1, 33, 0
3, 37500, Note_on_c, 1, 33, 100
3, 37560, Note_on_c, 1, 33, 0
3, 37560, Note_on_c, 1, 33, 100
3, 37620, Note_on_c, 1, 33, 0
3, 37620, Note_on_c, 1, 33, 100
3, 37680, Note_on_c, 1, 33, 0
3, 37680, Note_on_c, 1, 31, 100
3, 37740, Note_on_c, 1, 31, 0
3, 37740, Note_on_c, 1, 35, 100
3, 37800, Note_on_c, 1, 35, 0
3, 37800, Note_on_c, 1, 31, 100
3, 37860, Note_on_c, 1, 31, 0
3, 37860, Note_on_c, 1, 35, 100
3, 37920, Note_on_c, 1, 35, 0
3, 37920, Note_on_c, 1, 33, 100
3, 37980, Note_on_c, 1, 33, 0
3, 37980, Note_on_c, 1, 33, 100
3, 38040, Note_on_c, 1, 33, 0
3, 38040, Note_on_c, 1, 33, 100
3, 38100, Note_on_c, 1, 33, 0
3, 38100, Note_on_c, 1, 33, 100
3, 38160, Note_on_c, 1, 33, 0
3, 38160, Note_on_c, 1, 31, 100
3, 38220, Note_on_c, 1, 31, 0
3, 38220, Note_on_c, 1, 35, 100
3, 38280, Note_on_c, 1, 35, 0
3, 38280, Note_on_c, 1, 31, 100
3, 38340, Note_on_c, 1, 31, 0
3, 38340, Note_on_c, 1, 35, 100
3, 38400, Note_on_c, 1, 35, 0
3, 38400, Note_on_c, 1, 33, 100
3, 38460, Note_on_c, 1, 33, 0
3, 38460, Note_on_c, 1, 33, 100
3, 38520, Note_on_c, 1, 33, 0
3, 38520, Note_on_c, 1, 33, 100
3, 38580, Note_on_c, 1, 33, 0
3, 38580, Note_on_c, 1, 33, 100
3, 38640, Note_on_c, 1, 33, 0
3, 38640, Note_on_c, 1, 31, 100
3, 38700, Note_on_c, 1, 31, 0
3, 38700, Note_on_c, 1, 35, 100
3, 38760, Note_on_c, 1, 35, 0
3, 38760, Note_on_c, 1, 31, 100
3, 38820, Note_on_c, 1, 31, 0
3, 38820, Note_on_c, 1, 35, 100
3, 38880, Note_on_c, 1, 35, 0
3, 38880, Note_on_c, 1, 33, 100
3, 38940, Note_on_c, 1, 33, 0
3, 38940, Note_on_c, 1, 33, 100
3, 39000, Note_on_c, 1, 33, 0
3, 39000, Note_on_c, 1, 33, 100
3, 39060, Note_on_c, 1, 33, 0
3, 39060, Note_on_c, 1, 33, 100
3, 39120, Note_on_c, 1, 33, 0
3, 39120, Note_on_c, 1, 31, 100
3, 39180, Note_on_c, 1, 31, 0
3, 39180, Note_on_c, 1, 35, 100
3, 39240, Note_on_c, 1, 35, 0
3, 39240, Note_on_c, 1, 31, 100
3, 39300, Note_on_c, 1, 31, 0
3, 39300, Note_on_c, 1, 35, 100
3, 39360, Note_on_c, 1, 35, 0
3, 39360, Note_on_c, 1, 33, 100
3, 39420, Note_on_c, 1, 33, 0
3, 39420, Note_on_c, 1, 33, 100
3, 39480, Note_on_c, 1, 33, 0
3, 39480, Note_on_c, 1, 33, 100
3, 39540, Note_on_c, 1, 33, 0
3, 39540, Note_on_c, 1, 33, 100
3, 39600, Note_on_c, 1, 33, 0
3, 39600, Note_on_c, 1, 31, 100
3, 39660, Note_on_c, 1, 31, 0
3, 39660, Note_on_c, 1, 35, 100
3, 39720, Note_on_c, 1, 35, 0
3, 39720, Note_on_c, 1, 31, 100
3, 39780, Note_on_c, 1, 31, 0
3, 39780, Note_on_c, 1, 35, 100
3, 39840, Note_on_c, 1, 35, 0
3, 39840, Note_on_c, 1, 33, 100
3, 39900, Note_on_c, 1, 33, 0
3, 39900, Note_on_c, 1, 33, 100
3, 39960, Note_on_c, 1, 33, 0
3, 39960, Note_on_c, 1, 33, 100
3, 40020, Note_on_c, 1, 33, 0
3, 40020, Note_on_c, 1, 33, 100
3, 40080, Note_on_c, 1, 33, 0
3, 40080, Note_on_c, 1, 31, 100
3, 40140, Note_on_c, 1, 31, 0
3, 40140, Note_on_c, 1, 35, 100
3, 40200, Note_on_c, 1, 35, 0
3, 40200, Note_on_c, 1, 31, 100
3, 40260, Note_on_c, 1, 31, 0
3, 40260, Note_on_c, 1, 35, 100
3, 40320, Note_on_c, 1, 35, 0
3, 40320, Note_on_c, 1, 33, 100
3, 40380, Note_on_c, 1, 33, 0
3, 40380, Note_on_c, 1, 33, 100
3, 40440, Note_on_c, 1, 33, 0
3, 40440, Note_on_c, 1, 33, 100
3, 40500, Note_on_c, 1, 33, 0
3, 40500, Note_on_c, 1, 33, 100
3, 40560, Note_on_c, 1, 33, 0
3, 40560, Note_on_c, 1, 31, 100
3, 40620, Note_on_c, 1, 31, 0
3, 40620, Note_on_c, 1, 35, 100
3, 40680, Note_on_c, 1, 35, 0
3, 40680, Note_on_c, 1, 31, 100
3, 40740, Note_on_c, 1, 31, 0
3, 40740, Note_on_c, 1, 35, 100
3, 40800, Note_on_c, 1, 35, 0
3, 40800, Note_on_c, 1, 33, 100
3, 40860, Note_on_c, 1, 33, 0
3, 40860, Note_on_c, 1, 33, 100
3, 40920, Note_on_c, 1, 33, 0
3, 40920, Note_on_c, 1, 33, 100
3, 40980, Note_on_c, 1, 33, 0
3, 40980, Note_on_c, 1, 33, 100
3, 41040, Note_on_c, 1, 33, 0
3, 41040, Note_on_c, 1, 31, 100
3, 41100, Note_on_c, 1, 31, 0
3, 41100, Note_on_c, 1, 35, 100
3, 41160, Note_on_c, 1, 35, 0
3, 41160, Note_on_c, 1, 31, 100
3, 41220, Note_on_c, 1, 31, 0
3, 41220, Note_on_c, 1, 35, 100
3, 41280, Note_on_c, 1, 35, 0
3, 42240, Note_on_c, 1, 33, 100
3, 42360, Note_on_c, 1, 33, 0
3, 42360, Note_on_c, 1, 40, 100
3, 42480, Note_on_c, 1, 40, 0
3, 42480, Note_on_c, 1, 33, 100
3, 42540, Note_on_c, 1, 33, 0
3, 42540, Note_on_c, 1, 40, 100
3, 42660, Note_on_c, 1, 40, 0
3, 42660, Note_on_c, 1, 33, 100
3, 42720, Note_on_c, 1, 33, 0
3, 42720, Note_on_c, 1, 40, 100
3, 42840, Note_on_c, 1, 40, 0
3, 42840, Note_on_c, 1, 33, 100
3, 42900, Note_on_c, 1, 33, 0
3, 42900, Note_on_c, 1, 40, 100
3, 42960, Note_on_c, 1, 40, 0
3, 42960, Note_on_c, 1, 43, 100
3, 43020, Note_on_c, 1, 43, 0
3, 43020, Note_on_c, 1, 31, 100
3, 43080, Note_on_c, 1, 31, 0
3, 43080, Note_on_c, 1, 31, 100
3, 43140, Note_on_c, 1, 31, 0
3, 43140, Note_on_c, 1, 32, 100
3, 43200, Note_on_c, 1, 32, 0
3, 43200, Note_on_c, 1, 33, 100
3, 43320, Note_on_c, 1, 33, 0
3, 43320, Note_on_c, 1, 40, 100
3, 43440, Note_on_c, 1, 40, 0
3, 43440, Note_on_c, 1, 33, 100
3, 43500, Note_on_c, 1, 33, 0
3, 43500, Note_on_c, 1, 40, 100
3, 43620, Note_on_c, 1, 40, 0
3, 43620, Note_on_c, 1, 33, 100
3, 43680, Note_on_c, 1, 33, 0
3, 43680, Note_on_c, 1, 40, 100
3, 43800, Note_on_c, 1, 40, 0
3, 43800, Note_on_c, 1, 33, 100
3, 43860, Note_on_c, 1, 33, 0
3, 43860, Note_on_c, 1, 40, 100
3, 43920, Note_on_c, 1, 40, 0
3, 43920, Note_on_c, 1, 43, 100
3, 43980, Note_on_c, 1, 43, 0
3, 43980, Note_on_c, 1, 31, 100
3, 44040, Note_on_c, 1, 31, 0
3, 44040, Note_on_c, 1, 31, 100
3, 44100, Note_on_c, 1, 31, 0
3, 44100, Note_on_c, 1, 32, 100
3, 44160, Note_on_c, 1, 32, 0
3, 44160, Note_on_c, 1, 35, 100
3, 44220, Note_on_c, 1, 35, 0
3, 44220, Note_on_c, 1, 35, 100
3, 44280, Note_on_c, 1, 35, 0
3, 44280, Note_on_c, 1, 35, 100
3, 44340, Note_on_c, 1, 35, 0
3, 44340, Note_on_c, 1, 35, 100
3, 44400, Note_on_c, 1, 35, 0
3, 44400, Note_on_c, 1, 35, 100
3, 44460, Note_on_c, 1, 35, 0
3, 44460, Note_on_c, 1, 35, 100
3, 44520, Note_on_c, 1, 35, 0
3, 44520, Note_on_c, 1, 35, 100
3, 44580, Note_on_c, 1, 35, 0
3, 44580, Note_on_c, 1, 35, 100
3, 44640, Note_on_c, 1, 35, 0
3, 44640, Note_on_c, 1, 42, 100
3, 44700, Note_on_c, 1, 42, 0
3, 44700, Note_on_c, 1, 42, 100
3, 44760, Note_on_c, 1, 42, 0
3, 44760, Note_on_c, 1, 42, 100
3, 44820, Note_on_c, 1, 42, 0
3, 44820, Note_on_c, 1, 42, 100
3, 44880, Note_on_c, 1, 42, 0
3, 44880, Note_on_c, 1, 42, 100
3, 44940, Note_on_c, 1, 42, 0
3, 44940, Note_on_c, 1, 42, 100
3, 45000, Note_on_c, 1, 42, 0
3, 45000, Note_on_c, 1, 42, 100
3, 45060, Note_on_c, 1, 42, 0
3, 45060, Note_on_c, 1, 42, 100
3, 45120, Note_on_c, 1, 42, 0
3, 45120, Note_on_c, 1, 43, 100
3, 45180, Note_on_c, 1, 43, 0
3, 45180, Note_on_c, 1, 43, 100
3, 45240, Note_on_c, 1, 43, 0
3, 45240, Note_on_c, 1, 43, 100
3, 45300, Note_on_c, 1, 43, 0
3, 45300, Note_on_c, 1, 43, 100
3, 45360, Note_on_c, 1, 43, 0
3, 45360, Note_on_c, 1, 43, 100
3, 45420, Note_on_c, 1, 43, 0
3, 45420, Note_on_c, 1, 43, 100
3, 45480, Note_on_c, 1, 43, 0
3, 45480, Note_on_c, 1, 43, 100
3, 45540, Note_on_c, 1, 43, 0
3, 45540, Note_on_c, 1, 43, 100
3, 45600, Note_on_c, 1, 43, 0
3, 45600, Note_on_c, 1, 41, 100
3, 45660, Note_on_c, 1, 41, 0
3, 45660, Note_on_c, 1, 41, 100
3, 45720, Note_on_c, 1, 41, 0
3, 45720, Note_on_c, 1, 41, 100
3, 45780, Note_on_c, 1, 41, 0
3, 45780, Note_on_c, 1, 41, 100
3, 45840, Note_on_c, 1, 41, 0
3, 45840, Note_on_c, 1, 41, 100
3, 45900, Note_on_c, 1, 41, 0
3, 45900, Note_on_c, 1, 41, 100
3, 45960, Note_on_c, 1, 41, 0
3, 45960, Note_on_c, 1, 41, 100
3, 46020, Note_on_c, 1, 41, 0
3, 46020, Note_on_c, 1, 41, 100
3, 46080, Note_on_c, 1, 41, 0
3, 46080, Note_on_c, 1, 35, 100
3, 46140, Note_on_c, 1, 35, 0
3, 46140, Note_on_c, 1, 35, 100
3, 46200, Note_on_c, 1, 35, 0
3, 46200, Note_on_c, 1, 35, 100
3, 46260, Note_on_c, 1, 35, 0
3, 46260, Note_on_c, 1, 35, 100
3, 46320, Note_on_c, 1, 35, 0
3, 46320, Note_on_c, 1, 35, 100
3, 46380, Note_on_c, 1, 35, 0
3, 46380, Note_on_c, 1, 35, 100
3, 46440, Note_on_c, 1, 35, 0
3, 46440, Note_on_c, 1, 35, 100
3, 46500, Note_on_c, 1, 35, 0
3, 46500, Note_on_c, 1, 35, 100
3, 46560, Note_on_c, 1, 35, 0
3, 46560, Note_on_c, 1, 42, 100
3, 46620, Note_on_c, 1, 42, 0
3, 46620, Note_on_c, 1, 42, 100
3, 46680, Note_on_c, 1, 42, 0
3, 46680, Note_on_c, 1, 42, 100
3, 46740, Note_on_c, 1, 42, 0
3, 46740, Note_on_c, 1, 42, 100
3, 46800, Note_on_c, 1, 42, 0
3, 46800, Note_on_c, 1, 42, 100
3, 46860, Note_on_c, 1, 42, 0
3, 46860, Note_on_c, 1, 42, 100
3, 46920, Note_on_c, 1, 42, 0
3, 46920, Note_on_c, 1, 42, 100
3, 46980, Note_on_c, 1, 42, 0
3, 46980, Note_on_c, 1, 42, 100
3, 47040, Note_on_c, 1, 42, 0
3, 47040, Note_on_c, 1, 43, 100
3, 47100, Note_on_c, 1, 43, 0
3, 47100, Note_on_c, 1, 43, 100
3, 47160, Note_on_c, 1, 43, 0
3, 47160, Note_on_c, 1, 43, 100
3, 47220, Note_on_c, 1, 43, 0
3, 47220, Note_on_c, 1, 43, 100
3, 47280, Note_on_c, 1, 43, 0
3, 47280, Note_on_c, 1, 43, 100
3, 47340, Note_on_c, 1, 43, 0
3, 47340, Note_on_c, 1, 43, 100
3, 47400, Note_on_c, 1, 43, 0
3, 47400, Note_on_c, 1, 43, 100
3, 47460, Note_on_c, 1, 43, 0
3, 47460, Note_on_c, 1, 43, 100
3, 47520, Note_on_c, 1, 43, 0
3, 47520, Note_on_c, 1, 41, 100
3, 47580, Note_on_c, 1, 41, 0
3, 47580, Note_on_c, 1, 41, 100
3, 47640, Note_on_c, 1, 41, 0
3, 47640, Note_on_c, 1, 41, 100
3, 47700, Note_on_c, 1, 41, 0
3, 47700, Note_on_c, 1, 41, 100
3, 47760, Note_on_c, 1, 41, 0
3, 47760, Note_on_c, 1, 41, 100
3, 47820, Note_on_c, 1, 41, 0
3, 47820, Note_on_c, 1, 41, 100
3, 47880, Note_on_c, 1, 41, 0
3, 47880, Note_on_c, 1, 41, 100
3, 47940, Note_on_c, 1, 41, 0
3, 47940, Note_on_c, 1, 41, 100
3, 48000, Note_on_c, 1, 41, 0
3, 48060, Note_on_c, 1, 35, 100
3, 48120, Note_on_c, 1, 35, 0
3, 48120, Note_on_c, 1, 35, 100
3, 48180, Note_on_c, 1, 35, 0
3, 48180, Note_on_c, 1, 35, 100
3, 48240, Note_on_c, 1, 35, 0
3, 48300, Note_on_c, 1, 42, 100
3, 48360, Note_on_c, 1, 42, 0
3, 48360, Note_on_c, 1, 42, 100
3, 48420, Note_on_c, 1, 42, 0
3, 48420, Note_on_c, 1, 42, 100
3, 48480, Note_on_c, 1, 42, 0
3, 48480, Note_on_c, 1, 33, 100
3, 48540, Note_on_c, 1, 33, 0
3, 48540, Note_on_c, 1, 33, 100
3, 48600, Note_on_c, 1, 33, 0
3, 48600, Note_on_c, 1, 33, 100
3, 48660, Note_on_c, 1, 33, 0
3, 48660, Note_on_c, 1, 33, 100
3, 48720, Note_on_c, 1, 33, 0
3, 48720, Note_on_c, 1, 31, 100
3, 48780, Note_on_c, 1, 31, 0
3, 48780, Note_on_c, 1, 35, 100
3, 48840, Note_on_c, 1, 35, 0
3, 48840, Note_on_c, 1, 31, 100
3, 48900, Note_on_c, 1, 31, 0
3, 48900, Note_on_c, 1, 35, 100
3, 48960, Note_on_c, 1, 35, 0
3, 48960, Note_on_c, 1, 33, 100
3, 49020, Note_on_c, 1, 33, 0
3, 49020, Note_on_c, 1, 33, 100
3, 49080, Note_on_c, 1, 33, 0
3, 49080, Note_on_c, 1, 33, 100
3, 49140, Note_on_c, 1, 33, 0
3, 49140, Note_on_c, 1, 33, 100
3, 49200, Note_on_c, 1, 33, 0
3, 49200, Note_on_c, 1, 31, 100
3, 49260, Note_on_c, 1, 31, 0
3, 49260, Note_on_c, 1, 35, 100
3, 49320, Note_on_c, 1, 35, 0
3, 49320, Note_on_c, 1, 31, 100
3, 49380, Note_on_c, 1, 31, 0
3, 49380, Note_on_c, 1, 35, 100
3, 49440, Note_on_c, 1, 35, 0
3, 49920, Note_on_c, 1, 33, 100
3, 49980, Note_on_c, 1, 33, 0
3, 49980, Note_on_c, 1, 33, 100
3, 50040, Note_on_c, 1, 33, 0
3, 50040, Note_on_c, 1, 33, 100
3, 50100, Note_on_c, 1, 33, 0
3, 50100, Note_on_c, 1, 33, 100
3, 50160, Note_on_c, 1, 33, 0
3, 50160, Note_on_c, 1, 31, 100
3, 50220, Note_on_c, 1, 31, 0
3, 50220, Note_on_c, 1, 35, 100
3, 50280, Note_on_c, 1, 35, 0
3, 50280, Note_on_c, 1, 31, 100
3, 50340, Note_on_c, 1, 31, 0
3, 50340, Note_on_c, 1, 35, 100
3, 50400, Note_on_c, 1, 35, 0
3, 50400, Note_on_c, 1, 33, 100
3, 50460, Note_on_c, 1, 33, 0
3, 50460, Note_on_c, 1, 33, 100
3, 50520, Note_on_c, 1, 33, 0
3, 50520, Note_on_c, 1, 33, 100
3, 50580, Note_on_c, 1, 33, 0
3, 50580, Note_on_c, 1, 33, 100
3, 50640, Note_on_c, 1, 33, 0
3, 50640, Note_on_c, 1, 31, 100
3, 50700, Note_on_c, 1, 31, 0
3, 50700, Note_on_c, 1, 35, 100
3, 50760, Note_on_c, 1, 35, 0
3, 50760, Note_on_c, 1, 31, 100
3, 50820, Note_on_c, 1, 31, 0
3, 50820, Note_on_c, 1, 35, 100
3, 50880, Note_on_c, 1, 35, 0
3, 51360, Note_on_c, 1, 33, 100
3, 51420, Note_on_c, 1, 33, 0
3, 51420, Note_on_c, 1, 33, 100
3, 51480, Note_on_c, 1, 33, 0
3, 51480, Note_on_c, 1, 33, 100
3, 51540, Note_on_c, 1, 33, 0
3, 51540, Note_on_c, 1, 33, 100
3, 51600, Note_on_c, 1, 33, 0
3, 51600, Note_on_c, 1, 31, 100
3, 51660, Note_on_c, 1, 31, 0
3, 51660, Note_on_c, 1, 35, 100
3, 51720, Note_on_c, 1, 35, 0
3, 51720, Note_on_c, 1, 31, 100
3, 51780, Note_on_c, 1, 31, 0
3, 51780, Note_on_c, 1, 35, 100
3, 51840, Note_on_c, 1, 35, 0
3, 51840, Note_on_c, 1, 33, 100
3, 51900, Note_on_c, 1, 33, 0
3, 51900, Note_on_c, 1, 33, 100
3, 51960, Note_on_c, 1, 33, 0
3, 51960, Note_on_c, 1, 33, 100
3, 52020, Note_on_c, 1, 33, 0
3, 52020, Note_on_c, 1, 33, 100
3, 52080, Note_on_c, 1, 33, 0
3, 52080, Note_on_c, 1, 31, 100
3, 52140, Note_on_c, 1, 31, 0
3, 52140, Note_on_c, 1, 35, 100
3, 52200, Note_on_c, 1, 35, 0
3, 52200, Note_on_c, 1, 31, 100
3, 52260, Note_on_c, 1, 31, 0
3, 52260, Note_on_c, 1, 35, 100
3, 52320, Note_on_c, 1, 35, 0
3, 52800, Note_on_c, 1, 33, 100
3, 52815, Control_c, 1, 7, 118
3, 52815, Control_c, 1, 10, 60
3, 52815, Control_c, 1, 7, 119
3, 52835, Control_c, 1, 10, 59
3, 52835, Control_c, 1, 7, 117
3, 52860, Control_c, 1, 10, 60
3, 52860, Control_c, 1, 7, 118
3, 53000, Control_c, 1, 10, 59
3, 53000, Control_c, 1, 7, 117
3, 53015, Control_c, 1, 7, 116
3, 53040, Control_c, 1, 10, 58
3, 53040, Control_c, 1, 7, 115
3, 53065, Control_c, 1, 7, 114
3, 53110, Control_c, 1, 10, 57
3, 53110, Control_c, 1, 7, 113
3, 53155, Control_c, 1, 7, 112
3, 53210, Control_c, 1, 10, 56
3, 53210, Control_c, 1, 7, 111
3, 53245, Control_c, 1, 7, 110
3, 53295, Control_c, 1, 10, 55
3, 53295, Control_c, 1, 7, 109
3, 53315, Control_c, 1, 7, 108
3, 53340, Control_c, 1, 10, 54
3, 53340, Control_c, 1, 7, 107
3, 53355, Control_c, 1, 7, 106
3, 53370, Control_c, 1, 10, 53
3, 53370, Control_c, 1, 7, 105
3, 53390, Control_c, 1, 7, 104
3, 53400, Control_c, 1, 10, 52
3, 53400, Control_c, 1, 7, 103
3, 53415, Control_c, 1, 7, 102
3, 53420, Control_c, 1, 10, 51
3, 53420, Control_c, 1, 7, 101
3, 53440, Control_c, 1, 7, 100
3, 53450, Control_c, 1, 10, 50
3, 53450, Control_c, 1, 7, 99
3, 53465, Control_c, 1, 7, 98
3, 53470, Control_c, 1, 10, 49
3, 53470, Control_c, 1, 7, 97
3, 53480, Control_c, 1, 7, 96
3, 53485, Control_c, 1, 10, 48
3, 53485, Control_c, 1, 7, 95
3, 53500, Control_c, 1, 7, 94
3, 53505, Control_c, 1, 10, 47
3, 53505, Control_c, 1, 7, 93
3, 53515, Control_c, 1, 7, 92
3, 53520, Control_c, 1, 10, 46
3, 53520, Control_c, 1, 7, 91
3, 53525, Control_c, 1, 7, 90
3, 53530, Control_c, 1, 10, 45
3, 53530, Control_c, 1, 7, 89
3, 53535, Control_c, 1, 7, 88
3, 53540, Control_c, 1, 10, 44
3, 53540, Control_c, 1, 7, 87
3, 53550, Control_c, 1, 10, 43
3, 53550, Control_c, 1, 7, 85
3, 53550, Control_c, 1, 7, 86
3, 53560, Control_c, 1, 10, 42
3, 53560, Control_c, 1, 7, 84
3, 53570, Control_c, 1, 7, 83
3, 53580, Control_c, 1, 10, 41
3, 53580, Control_c, 1, 7, 82
3, 53585, Control_c, 1, 7, 81
3, 53595, Control_c, 1, 10, 40
3, 53595, Control_c, 1, 7, 80
3, 53600, Control_c, 1, 7, 79
3, 53610, Control_c, 1, 10, 39
3, 53610, Control_c, 1, 7, 78
3, 53615, Control_c, 1, 7, 77
3, 53625, Control_c, 1, 10, 38
3, 53625, Control_c, 1, 7, 76
3, 53630, Control_c, 1, 7, 75
3, 53635, Control_c, 1, 10, 37
3, 53635, Control_c, 1, 7, 74
3, 53645, Control_c, 1, 7, 73
3, 53660, Control_c, 1, 10, 36
3, 53660, Control_c, 1, 7, 72
3, 53670, Control_c, 1, 7, 71
3, 53700, Control_c, 1, 10, 35
3, 53700, Control_c, 1, 7, 70
3, 53710, Control_c, 1, 7, 69
3, 53720, Control_c, 1, 10, 34
3, 53720, Control_c, 1, 7, 68
3, 53725, Control_c, 1, 7, 67
3, 53740, Control_c, 1, 7, 65
3, 53740, Control_c, 1, 10, 33
3, 53740, Control_c, 1, 7, 66
3, 53750, Control_c, 1, 10, 32
3, 53750, Control_c, 1, 7, 64
3, 53755, Control_c, 1, 10, 31
3, 53755, Control_c, 1, 7, 62
3, 53755, Control_c, 1, 7, 63
3, 53760, Note_on_c, 1, 33, 0
3, 53760, End_track
4, 0, Start_track
4, 0, MIDI_port, 0
4, 0, Title_t, "Clean"
4, 0, Control_c, 2, 0, 0
4, 0, Control_c, 2, 32, 0
4, 0, Program_c, 2, 27
4, 0, Control_c, 2, 7, 100
4, 0, Note_on_c, 2, 57, 100
4, 60, Note_on_c, 2, 57, 0
4, 60, Note_on_c, 2, 57, 100
4, 120, Note_on_c, 2, 57, 0
4, 120, Note_on_c, 2, 57, 100
4, 180, Note_on_c, 2, 57, 0
4, 180, Note_on_c, 2, 57, 100
4, 240, Note_on_c, 2, 57, 0
4, 240, Note_on_c, 2, 57, 100
4, 300, Note_on_c, 2, 57, 0
4, 300, Note_on_c, 2, 57, 100
4, 360, Note_on_c, 2, 57, 0
4, 360, Note_on_c, 2, 57, 100
4, 420, Note_on_c, 2, 57, 0
4, 420, Note_on_c, 2, 57, 100
4, 480, Note_on_c, 2, 57, 0
4, 480, Note_on_c, 2, 57, 100
4, 540, Note_on_c, 2, 57, 0
4, 540, Note_on_c, 2, 57, 100
4, 600, Note_on_c, 2, 57, 0
4, 600, Note_on_c, 2, 57, 100
4, 660, Note_on_c, 2, 57, 0
4, 660, Note_on_c, 2, 57, 100
4, 720, Note_on_c, 2, 57, 0
4, 720, Note_on_c, 2, 57, 100
4, 780, Note_on_c, 2, 57, 0
4, 780, Note_on_c, 2, 61, 100
4, 840, Note_on_c, 2, 61, 0
4, 840, Note_on_c, 2, 64, 100
4, 900, Note_on_c, 2, 64, 0
4, 900, Note_on_c, 2, 64, 100
4, 960, Note_on_c, 2, 64, 0
4, 960, Note_on_c, 2, 57, 100
4, 1020, Note_on_c, 2, 57, 0
4, 1020, Note_on_c, 2, 57, 100
4, 1080, Note_on_c, 2, 57, 0
4, 1080, Note_on_c, 2, 57, 100
4, 1140, Note_on_c, 2, 57, 0
4, 1140, Note_on_c, 2, 57, 100
4, 1200, Note_on_c, 2, 57, 0
4, 1200, Note_on_c, 2, 57, 100
4, 1260, Note_on_c, 2, 57, 0
4, 1260, Note_on_c, 2, 57, 100
4, 1320, Note_on_c, 2, 57, 0
4, 1320, Note_on_c, 2, 57, 100
4, 1380, Note_on_c, 2, 57, 0
4, 1380, Note_on_c, 2, 57, 100
4, 1440, Note_on_c, 2, 57, 0
4, 1440, Note_on_c, 2, 57, 100
4, 1500, Note_on_c, 2, 57, 0
4, 1500, Note_on_c, 2, 57, 100
4, 1560, Note_on_c, 2, 57, 0
4, 1560, Note_on_c, 2, 57, 100
4, 1620, Note_on_c, 2, 57, 0
4, 1620, Note_on_c, 2, 57, 100
4, 1680, Note_on_c, 2, 57, 0
4, 1680, Note_on_c, 2, 55, 100
4, 1740, Note_on_c, 2, 55, 0
4, 1740, Note_on_c, 2, 55, 100
4, 1800, Note_on_c, 2, 55, 0
4, 1800, Note_on_c, 2, 56, 100
4, 1860, Note_on_c, 2, 56, 0
4, 1860, Note_on_c, 2, 57, 100
4, 1920, Note_on_c, 2, 57, 0
4, 1920, Note_on_c, 2, 57, 100
4, 1980, Note_on_c, 2, 57, 0
4, 1980, Note_on_c, 2, 57, 100
4, 2040, Note_on_c, 2, 57, 0
4, 2040, Note_on_c, 2, 57, 100
4, 2100, Note_on_c, 2, 57, 0
4, 2100, Note_on_c, 2, 57, 100
4, 2160, Note_on_c, 2, 57, 0
4, 2160, Note_on_c, 2, 57, 100
4, 2220, Note_on_c, 2, 57, 0
4, 2220, Note_on_c, 2, 57, 100
4, 2280, Note_on_c, 2, 57, 0
4, 2280, Note_on_c, 2, 57, 100
4, 2340, Note_on_c, 2, 57, 0
4, 2340, Note_on_c, 2, 57, 100
4, 2400, Note_on_c, 2, 57, 0
4, 2400, Note_on_c, 2, 57, 100
4, 2460, Note_on_c, 2, 57, 0
4, 2460, Note_on_c, 2, 57, 100
4, 2520, Note_on_c, 2, 57, 0
4, 2520, Note_on_c, 2, 57, 100
4, 2580, Note_on_c, 2, 57, 0
4, 2580, Note_on_c, 2, 57, 100
4, 2640, Note_on_c, 2, 57, 0
4, 2640, Note_on_c, 2, 55, 100
4, 2700, Note_on_c, 2, 55, 0
4, 2700, Note_on_c, 2, 55, 100
4, 2760, Note_on_c, 2, 55, 0
4, 2760, Note_on_c, 2, 56, 100
4, 2820, Note_on_c, 2, 56, 0
4, 2820, Note_on_c, 2, 57, 100
4, 2880, Note_on_c, 2, 57, 0
4, 41280, Note_on_c, 2, 57, 100
4, 41340, Note_on_c, 2, 57, 0
4, 41340, Note_on_c, 2, 57, 100
4, 41400, Note_on_c, 2, 57, 0
4, 41400, Note_on_c, 2, 57, 100
4, 41460, Note_on_c, 2, 57, 0
4, 41460, Note_on_c, 2, 57, 100
4, 41520, Note_on_c, 2, 57, 0
4, 41520, Note_on_c, 2, 57, 100
4, 41580, Note_on_c, 2, 57, 0
4, 41580, Note_on_c, 2, 57, 100
4, 41640, Note_on_c, 2, 57, 0
4, 41640, Note_on_c, 2, 57, 100
4, 41700, Note_on_c, 2, 57, 0
4, 41700, Note_on_c, 2, 57, 100
4, 41760, Note_on_c, 2, 57, 0
4, 41760, Note_on_c, 2, 57, 100
4, 41820, Note_on_c, 2, 57, 0
4, 41820, Note_on_c, 2, 57, 100
4, 41880, Note_on_c, 2, 57, 0
4, 41880, Note_on_c, 2, 57, 100
4, 41940, Note_on_c, 2, 57, 0
4, 41940, Note_on_c, 2, 57, 100
4, 42000, Note_on_c, 2, 57, 0
4, 42000, Note_on_c, 2, 57, 100
4, 42060, Note_on_c, 2, 57, 0
4, 42060, Note_on_c, 2, 61, 100
4, 42120, Note_on_c, 2, 61, 0
4, 42120, Note_on_c, 2, 64, 100
4, 42180, Note_on_c, 2, 64, 0
4, 42180, Note_on_c, 2, 64, 100
4, 42240, Note_on_c, 2, 64, 0
4, 42240, Note_on_c, 2, 57, 100
4, 42300, Note_on_c, 2, 57, 0
4, 42300, Note_on_c, 2, 57, 100
4, 42360, Note_on_c, 2, 57, 0
4, 42360, Note_on_c, 2, 57, 100
4, 42420, Note_on_c, 2, 57, 0
4, 42420, Note_on_c, 2, 57, 100
4, 42480, Note_on_c, 2, 57, 0
4, 42480, Note_on_c, 2, 57, 100
4, 42540, Note_on_c, 2, 57, 0
4, 42540, Note_on_c, 2, 57, 100
4, 42600, Note_on_c, 2, 57, 0
4, 42600, Note_on_c, 2, 57, 100
4, 42660, Note_on_c, 2, 57, 0
4, 42660, Note_on_c, 2, 57, 100
4, 42720, Note_on_c, 2, 57, 0
4, 42720, Note_on_c, 2, 57, 100
4, 42780, Note_on_c, 2, 57, 0
4, 42780, Note_on_c, 2, 57, 100
4, 42840, Note_on_c, 2, 57, 0
4, 42840, Note_on_c, 2, 57, 100
4, 42900, Note_on_c, 2, 57, 0
4, 42900, Note_on_c, 2, 57, 100
4, 42960, Note_on_c, 2, 57, 0
4, 42960, Note_on_c, 2, 55, 100
4, 43020, Note_on_c, 2, 55, 0
4, 43020, Note_on_c, 2, 55, 100
4, 43080, Note_on_c, 2, 55, 0
4, 43080, Note_on_c, 2, 56, 100
4, 43140, Note_on_c, 2, 56, 0
4, 43140, Note_on_c, 2, 57, 100
4, 43200, Note_on_c, 2, 57, 0
4, 43200, Note_on_c, 2, 57, 100
4, 43260, Note_on_c, 2, 57, 0
4, 43260, Note_on_c, 2, 57, 100
4, 43320, Note_on_c, 2, 57, 0
4, 43320, Note_on_c, 2, 57, 100
4, 43380, Note_on_c, 2, 57, 0
4, 43380, Note_on_c, 2, 57, 100
4, 43440, Note_on_c, 2, 57, 0
4, 43440, Note_on_c, 2, 57, 100
4, 43500, Note_on_c, 2, 57, 0
4, 43500, Note_on_c, 2, 57, 100
4, 43560, Note_on_c, 2, 57, 0
4, 43560, Note_on_c, 2, 57, 100
4, 43620, Note_on_c, 2, 57, 0
4, 43620, Note_on_c, 2, 57, 100
4, 43680, Note_on_c, 2, 57, 0
4, 43680, Note_on_c, 2, 57, 100
4, 43740, Note_on_c, 2, 57, 0
4, 43740, Note_on_c, 2, 57, 100
4, 43800, Note_on_c, 2, 57, 0
4, 43800, Note_on_c, 2, 57, 100
4, 43860, Note_on_c, 2, 57, 0
4, 43860, Note_on_c, 2, 57, 100
4, 43920, Note_on_c, 2, 57, 0
4, 43920, Note_on_c, 2, 55, 100
4, 43980, Note_on_c, 2, 55, 0
4, 43980, Note_on_c, 2, 55, 100
4, 44040, Note_on_c, 2, 55, 0
4, 44040, Note_on_c, 2, 56, 100
4, 44100, Note_on_c, 2, 56, 0
4, 44100, Note_on_c, 2, 57, 100
4, 44160, Note_on_c, 2, 57, 0
4, 44160, End_track
5, 0, Start_track
5, 0, MIDI_port, 0
5, 0, Title_t, "Guitar"
5, 0, Control_c, 3, 0, 0
5, 0, Control_c, 3, 32, 0
5, 0, Program_c, 3, 30
5, 0, Control_c, 3, 7, 123
5, 2880, Note_on_c, 3, 57, 100
5, 2880, Note_on_c, 3, 81, 100
5, 2880, Note_on_c, 3, 76, 100
5, 2880, Note_on_c, 3, 73, 100
5, 2880, Note_on_c, 3, 69, 100
5, 2880, Note_on_c, 3, 64, 100
5, 2940, Note_on_c, 3, 64, 0
5, 2940, Note_on_c, 3, 81, 0
5, 2940, Note_on_c, 3, 76, 0
5, 2940, Note_on_c, 3, 57, 0
5, 2940, Note_on_c, 3, 69, 0
5, 2940, Note_on_c, 3, 73, 0
5, 2940, Note_on_c, 3, 57, 100
5, 2940, Note_on_c, 3, 81, 100
5, 2940, Note_on_c, 3, 76, 100
5, 2940, Note_on_c, 3, 73, 100
5, 2940, Note_on_c, 3, 69, 100
5, 2940, Note_on_c, 3, 64, 100
5, 3000, Note_on_c, 3, 64, 0
5, 3000, Note_on_c, 3, 81, 0
5, 3000, Note_on_c, 3, 76, 0
5, 3000, Note_on_c, 3, 57, 0
5, 3000, Note_on_c, 3, 69, 0
5, 3000, Note_on_c, 3, 73, 0
5, 3000, Note_on_c, 3, 57, 100
5, 3000, Note_on_c, 3, 81, 100
5, 3000, Note_on_c, 3, 76, 100
5, 3000, Note_on_c, 3, 73, 100
5, 3000, Note_on_c, 3, 69, 100
5, 3000, Note_on_c, 3, 64, 100
5, 3060, Note_on_c, 3, 64, 0
5, 3060, Note_on_c, 3, 81, 0
5, 3060, Note_on_c, 3, 76, 0
5, 3060, Note_on_c, 3, 57, 0
5, 3060, Note_on_c, 3, 69, 0
5, 3060, Note_on_c, 3, 73, 0
5, 3060, Note_on_c, 3, 57, 100
5, 3060, Note_on_c, 3, 81, 100
5, 3060, Note_on_c, 3, 76, 100
5, 3060, Note_on_c, 3, 73, 100
5, 3060, Note_on_c, 3, 69, 100
5, 3060, Note_on_c, 3, 64, 100
5, 3120, Note_on_c, 3, 64, 0
5, 3120, Note_on_c, 3, 81, 0
5, 3120, Note_on_c, 3, 76, 0
5, 3120, Note_on_c, 3, 57, 0
5, 3120, Note_on_c, 3, 69, 0
5, 3120, Note_on_c, 3, 73, 0
5, 3180, Note_on_c, 3, 55, 100
5, 3180, Note_on_c, 3, 79, 100
5, 3180, Note_on_c, 3, 74, 100
5, 3180, Note_on_c, 3, 71, 100
5, 3180, Note_on_c, 3, 67, 100
5, 3180, Note_on_c, 3, 62, 100
5, 3240, Note_on_c, 3, 62, 0
5, 3240, Note_on_c, 3, 79, 0
5, 3240, Note_on_c, 3, 74, 0
5, 3240, Note_on_c, 3, 55, 0
5, 3240, Note_on_c, 3, 67, 0
5, 3240, Note_on_c, 3, 71, 0
5, 3240, Note_on_c, 3, 55, 100
5, 3240, Note_on_c, 3, 79, 100
5, 3240, Note_on_c, 3, 74, 100
5, 3240, Note_on_c, 3, 71, 100
5, 3240, Note_on_c, 3, 67, 100
5, 3240, Note_on_c, 3, 62, 100
5, 3300, Note_on_c, 3, 62, 0
5, 3300, Note_on_c, 3, 79, 0
5, 3300, Note_on_c, 3, 74, 0
5, 3300, Note_on_c, 3, 55, 0
5, 3300, Note_on_c, 3, 67, 0
5, 3300, Note_on_c, 3, 71, 0
5, 3300, Note_on_c, 3, 55, 100
5, 3300, Note_on_c, 3, 79, 100
5, 3300, Note_on_c, 3, 74, 100
5, 3300, Note_on_c, 3, 71, 100
5, 3300, Note_on_c, 3, 67, 100
5, 3300, Note_on_c, 3, 62, 100
5, 3360, Note_on_c, 3, 62, 0
5, 3360, Note_on_c, 3, 79, 0
5, 3360, Note_on_c, 3, 74, 0
5, 3360, Note_on_c, 3, 55, 0
5, 3360, Note_on_c, 3, 67, 0
5, 3360, Note_on_c, 3, 71, 0
5, 3360, Note_on_c, 3, 57, 100
5, 3360, Note_on_c, 3, 81, 100
5, 3360, Note_on_c, 3, 76, 100
5, 3360, Note_on_c, 3, 73, 100
5, 3360, Note_on_c, 3, 69, 100
5, 3360, Note_on_c, 3, 64, 100
5, 3420, Note_on_c, 3, 64, 0
5, 3420, Note_on_c, 3, 81, 0
5, 3420, Note_on_c, 3, 76, 0
5, 3420, Note_on_c, 3, 57, 0
5, 3420, Note_on_c, 3, 69, 0
5, 3420, Note_on_c, 3, 73, 0
5, 3420, Note_on_c, 3, 57, 100
5, 3420, Note_on_c, 3, 81, 100
5, 3420, Note_on_c, 3, 76, 100
5, 3420, Note_on_c, 3, 73, 100
5, 3420, Note_on_c, 3, 69, 100
5, 3420, Note_on_c, 3, 64, 100
5, 3480, Note_on_c, 3, 64, 0
5, 3480, Note_on_c, 3, 81, 0
5, 3480, Note_on_c, 3, 76, 0
5, 3480, Note_on_c, 3, 57, 0
5, 3480, Note_on_c, 3, 69, 0
5, 3480, Note_on_c, 3, 73, 0
5, 3480, Note_on_c, 3, 57, 100
5, 3480, Note_on_c, 3, 81, 100
5, 3480, Note_on_c, 3, 76, 100
5, 3480, Note_on_c, 3, 73, 100
5, 3480, Note_on_c, 3, 69, 100
5, 3480, Note_on_c, 3, 64, 100
5, 3540, Note_on_c, 3, 64, 0
5, 3540, Note_on_c, 3, 81, 0
5, 3540, Note_on_c, 3, 76, 0
5, 3540, Note_on_c, 3, 57, 0
5, 3540, Note_on_c, 3, 69, 0
5, 3540, Note_on_c, 3, 73, 0
5, 3540, Note_on_c, 3, 57, 100
5, 3540, Note_on_c, 3, 81, 100
5, 3540, Note_on_c, 3, 76, 100
5, 3540, Note_on_c, 3, 73, 100
5, 3540, Note_on_c, 3, 69, 100
5, 3540, Note_on_c, 3, 64, 100
5, 3600, Note_on_c, 3, 64, 0
5, 3600, Note_on_c, 3, 81, 0
5, 3600, Note_on_c, 3, 76, 0
5, 3600, Note_on_c, 3, 57, 0
5, 3600, Note_on_c, 3, 69, 0
5, 3600, Note_on_c, 3, 73, 0
5, 3660, Note_on_c, 3, 55, 100
5, 3660, Note_on_c, 3, 79, 100
5, 3660, Note_on_c, 3, 74, 100
5, 3660, Note_on_c, 3, 71, 100
5, 3660, Note_on_c, 3, 67, 100
5, 3660, Note_on_c, 3, 62, 100
5, 3720, Note_on_c, 3, 62, 0
5, 3720, Note_on_c, 3, 79, 0
5, 3720, Note_on_c, 3, 74, 0
5, 3720, Note_on_c, 3, 55, 0
5, 3720, Note_on_c, 3, 67, 0
5, 3720, Note_on_c, 3, 71, 0
5, 3720, Note_on_c, 3, 55, 100
5, 3720, Note_on_c, 3, 79, 100
5, 3720, Note_on_c, 3, 74, 100
5, 3720, Note_on_c, 3, 71, 100
5, 3720, Note_on_c, 3, 67, 100
5, 3720, Note_on_c, 3, 62, 100
5, 3780, Note_on_c, 3, 62, 0
5, 3780, Note_on_c, 3, 79, 0
5, 3780, Note_on_c, 3, 74, 0
5, 3780, Note_on_c, 3, 55, 0
5, 3780, Note_on_c, 3, 67, 0
5, 3780, Note_on_c, 3, 71, 0
5, 3780, Note_on_c, 3, 55, 100
5, 3780, Note_on_c, 3, 79, 100
5, 3780, Note_on_c, 3, 74, 100
5, 3780, Note_on_c, 3, 71, 100
5, 3780, Note_on_c, 3, 67, 100
5, 3780, Note_on_c, 3, 62, 100
5, 3840, Note_on_c, 3, 62, 0
5, 3840, Note_on_c, 3, 79, 0
5, 3840, Note_on_c, 3, 74, 0
5, 3840, Note_on_c, 3, 55, 0
5, 3840, Note_on_c, 3, 67, 0
5, 3840, Note_on_c, 3, 71, 0
5, 3840, Note_on_c, 3, 57, 100
5, 3840, Note_on_c, 3, 81, 100
5, 3840, Note_on_c, 3, 76, 100
5, 3840, Note_on_c, 3, 73, 100
5, 3840, Note_on_c, 3, 69, 100
5, 3840, Note_on_c, 3, 64, 100
5, 3900, Note_on_c, 3, 64, 0
5, 3900, Note_on_c, 3, 81, 0
5, 3900, Note_on_c, 3, 76, 0
5, 3900, Note_on_c, 3, 57, 0
5, 3900, Note_on_c, 3, 69, 0
5, 3900, Note_on_c, 3, 73, 0
5, 3900, Note_on_c, 3, 57, 100
5, 3900, Note_on_c, 3, 81, 100
5, 3900, Note_on_c, 3, 76, 100
5, 3900, Note_on_c, 3, 73, 100
5, 3900, Note_on_c, 3, 69, 100
5, 3900, Note_on_c, 3, 64, 100
5, 3960, Note_on_c, 3, 64, 0
5, 3960, Note_on_c, 3, 81, 0
5, 3960, Note_on_c, 3, 76, 0
5, 3960, Note_on_c, 3, 57, 0
5, 3960, Note_on_c, 3, 69, 0
5, 3960, Note_on_c, 3, 73, 0
5, 3960, Note_on_c, 3, 57, 100
5, 3960, Note_on_c, 3, 81, 100
5, 3960, Note_on_c, 3, 76, 100
5, 3960, Note_on_c, 3, 73, 100
5, 3960, Note_on_c, 3, 69, 100
5, 3960, Note_on_c, 3, 64, 100
5, 4020, Note_on_c, 3, 64, 0
5, 4020, Note_on_c, 3, 81, 0
5, 4020, Note_on_c, 3, 76, 0
5, 4020, Note_on_c, 3, 57, 0
5, 4020, Note_on_c, 3, 69, 0
5, 4020, Note_on_c, 3, 73, 0
5, 4020, Note_on_c, 3, 57, 100
5, 4020, Note_on_c, 3, 81, 100
5, 4020, Note_on_c, 3, 76, 100
5, 4020, Note_on_c, 3, 73, 100
5, 4020, Note_on_c, 3, 69, 100
5, 4020, Note_on_c, 3, 64, 100
5, 4080, Note_on_c, 3, 64, 0
5, 4080, Note_on_c, 3, 81, 0
5, 4080, Note_on_c, 3, 76, 0
5, 4080, Note_on_c, 3, 57, 0
5, 4080, Note_on_c, 3, 69, 0
5, 4080, Note_on_c, 3, 73, 0
5, 4140, Note_on_c, 3, 55, 100
5, 4140, Note_on_c, 3, 79, 100
5, 4140, Note_on_c, 3, 74, 100
5, 4140, Note_on_c, 3, 71, 100
5, 4140, Note_on_c, 3, 67, 100
5, 4140, Note_on_c, 3, 62, 100
5, 4200, Note_on_c, 3, 62, 0
5, 4200, Note_on_c, 3, 79, 0
5, 4200, Note_on_c, 3, 74, 0
5, 4200, Note_on_c, 3, 55, 0
5, 4200, Note_on_c, 3, 67, 0
5, 4200, Note_on_c, 3, 71, 0
5, 4200, Note_on_c, 3, 55, 100
5, 4200, Note_on_c, 3, 79, 100
5, 4200, Note_on_c, 3, 74, 100
5, 4200, Note_on_c, 3, 71, 100
5, 4200, Note_on_c, 3, 67, 100
5, 4200, Note_on_c, 3, 62, 100
5, 4260, Note_on_c, 3, 62, 0
5, 4260, Note_on_c, 3, 79, 0
5, 4260, Note_on_c, 3, 74, 0
5, 4260, Note_on_c, 3, 55, 0
5, 4260, Note_on_c, 3, 67, 0
5, 4260, Note_on_c, 3, 71, 0
5, 4260, Note_on_c, 3, 55, 100
5, 4260, Note_on_c, 3, 79, 100
5, 4260, Note_on_c, 3, 74, 100
5, 4260, Note_on_c, 3, 71, 100
5, 4260, Note_on_c, 3, 67, 100
5, 4260, Note_on_c, 3, 62, 100
5, 4320, Note_on_c, 3, 62, 0
5, 4320, Note_on_c, 3, 79, 0
5, 4320, Note_on_c, 3, 74, 0
5, 4320, Note_on_c, 3, 55, 0
5, 4320, Note_on_c, 3, 67, 0
5, 4320, Note_on_c, 3, 71, 0
5, 4320, Note_on_c, 3, 57, 100
5, 4320, Note_on_c, 3, 81, 100
5, 4320, Note_on_c, 3, 76, 100
5, 4320, Note_on_c, 3, 73, 100
5, 4320, Note_on_c, 3, 69, 100
5, 4320, Note_on_c, 3, 64, 100
5, 4380, Note_on_c, 3, 64, 0
5, 4380, Note_on_c, 3, 81, 0
5, 4380, Note_on_c, 3, 76, 0
5, 4380, Note_on_c, 3, 57, 0
5, 4380, Note_on_c, 3, 69, 0
5, 4380, Note_on_c, 3, 73, 0
5, 4380, Note_on_c, 3, 57, 100
5, 4380, Note_on_c, 3, 81, 100
5, 4380, Note_on_c, 3, 76, 100
5, 4380, Note_on_c, 3, 73, 100
5, 4380, Note_on_c, 3, 69, 100
5, 4380, Note_on_c, 3, 64, 100
5, 4440, Note_on_c, 3, 64, 0
5, 4440, Note_on_c, 3, 81, 0
5, 4440, Note_on_c, 3, 76, 0
5, 4440, Note_on_c, 3, 57, 0
5, 4440, Note_on_c, 3, 69, 0
5, 4440, Note_on_c, 3, 73, 0
5, 4440, Note_on_c, 3, 57, 100
5, 4440, Note_on_c, 3, 81, 100
5, 4440, Note_on_c, 3, 76, 100
5, 4440, Note_on_c, 3, 73, 100
5, 4440, Note_on_c, 3, 69, 100
5, 4440, Note_on_c, 3, 64, 100
5, 4500, Note_on_c, 3, 64, 0
5, 4500, Note_on_c, 3, 81, 0
5, 4500, Note_on_c, 3, 76, 0
5, 4500, Note_on_c, 3, 57, 0
5, 4500, Note_on_c, 3, 69, 0
5, 4500, Note_on_c, 3, 73, 0
5, 4500, Note_on_c, 3, 57, 100
5, 4500, Note_on_c, 3, 81, 100
5, 4500, Note_on_c, 3, 76, 100
5, 4500, Note_on_c, 3, 73, 100
5, 4500, Note_on_c, 3, 69, 100
5, 4500, Note_on_c, 3, 64, 100
5, 4560, Note_on_c, 3, 64, 0
5, 4560, Note_on_c, 3, 81, 0
5, 4560, Note_on_c, 3, 76, 0
5, 4560, Note_on_c, 3, 57, 0
5, 4560, Note_on_c, 3, 69, 0
5, 4560, Note_on_c, 3, 73, 0
5, 4620, Note_on_c, 3, 55, 100
5, 4620, Note_on_c, 3, 79, 100
5, 4620, Note_on_c, 3, 74, 100
5, 4620, Note_on_c, 3, 71, 100
5, 4620, Note_on_c, 3, 67, 100
5, 4620, Note_on_c, 3, 62, 100
5, 4680, Note_on_c, 3, 62, 0
5, 4680, Note_on_c, 3, 79, 0
5, 4680, Note_on_c, 3, 74, 0
5, 4680, Note_on_c, 3, 55, 0
5, 4680, Note_on_c, 3, 67, 0
5, 4680, Note_on_c, 3, 71, 0
5, 4680, Note_on_c, 3, 55, 100
5, 4680, Note_on_c, 3, 79, 100
5, 4680, Note_on_c, 3, 74, 100
5, 4680, Note_on_c, 3, 71, 100
5, 4680, Note_on_c, 3, 67, 100
5, 4680, Note_on_c, 3, 62, 100
5, 4740, Note_on_c, 3, 62, 0
5, 4740, Note_on_c, 3, 79, 0
5, 4740, Note_on_c, 3, 74, 0
5, 4740, Note_on_c, 3, 55, 0
5, 4740, Note_on_c, 3, 67, 0
5, 4740, Note_on_c, 3, 71, 0
5, 4740, Note_on_c, 3, 55, 100
5, 4740, Note_on_c, 3, 79, 100
5, 4740, Note_on_c, 3, 74, 100
5, 4740, Note_on_c, 3, 71, 100
5, 4740, Note_on_c, 3, 67, 100
5, 4740, Note_on_c, 3, 62, 100
5, 4800, Note_on_c, 3, 62, 0
5, 4800, Note_on_c, 3, 79, 0
5, 4800, Note_on_c, 3, 74, 0
5, 4800, Note_on_c, 3, 55, 0
5, 4800, Note_on_c, 3, 67, 0
5, 4800, Note_on_c, 3, 71, 0
5, 4800, Note_on_c, 3, 57, 100
5, 4800, Note_on_c, 3, 81, 100
5, 4800, Note_on_c, 3, 76, 100
5, 4800, Note_on_c, 3, 73, 100
5, 4800, Note_on_c, 3, 69, 100
5, 4800, Note_on_c, 3, 64, 100
5, 4860, Note_on_c, 3, 64, 0
5, 4860, Note_on_c, 3, 81, 0
5, 4860, Note_on_c, 3, 76, 0
5, 4860, Note_on_c, 3, 57, 0
5, 4860, Note_on_c, 3, 69, 0
5, 4860, Note_on_c, 3, 73, 0
5, 4860, Note_on_c, 3, 57, 100
5, 4860, Note_on_c, 3, 81, 100
5, 4860, Note_on_c, 3, 76, 100
5, 4860, Note_on_c, 3, 73, 100
5, 4860, Note_on_c, 3, 69, 100
5, 4860, Note_on_c, 3, 64, 100
5, 4920, Note_on_c, 3, 64, 0
5, 4920, Note_on_c, 3, 81, 0
5, 4920, Note_on_c, 3, 76, 0
5, 4920, Note_on_c, 3, 57, 0
5, 4920, Note_on_c, 3, 69, 0
5, 4920, Note_on_c, 3, 73, 0
5, 4920, Note_on_c, 3, 57, 100
5, 4920, Note_on_c, 3, 81, 100
5, 4920, Note_on_c, 3, 76, 100
5, 4920, Note_on_c, 3, 73, 100
5, 4920, Note_on_c, 3, 69, 100
5, 4920, Note_on_c, 3, 64, 100
5, 4980, Note_on_c, 3, 64, 0
5, 4980, Note_on_c, 3, 81, 0
5, 4980, Note_on_c, 3, 76, 0
5, 4980, Note_on_c, 3, 57, 0
5, 4980, Note_on_c, 3, 69, 0
5, 4980, Note_on_c, 3, 73, 0
5, 4980, Note_on_c, 3, 57, 100
5, 4980, Note_on_c, 3, 81, 100
5, 4980, Note_on_c, 3, 76, 100
5, 4980, Note_on_c, 3, 73, 100
5, 4980, Note_on_c, 3, 69, 100
5, 4980, Note_on_c, 3, 64, 100
5, 5040, Note_on_c, 3, 64, 0
5, 5040, Note_on_c, 3, 81, 0
5, 5040, Note_on_c, 3, 76, 0
5, 5040, Note_on_c, 3, 57, 0
5, 5040, Note_on_c, 3, 69, 0
5, 5040, Note_on_c, 3, 73, 0
5, 5100, Note_on_c, 3, 55, 100
5, 5100, Note_on_c, 3, 79, 100
5, 5100, Note_on_c, 3, 74, 100
5, 5100, Note_on_c, 3, 71, 100
5, 5100, Note_on_c, 3, 67, 100
5, 5100, Note_on_c, 3, 62, 100
5, 5160, Note_on_c, 3, 62, 0
5, 5160, Note_on_c, 3, 79, 0
5, 5160, Note_on_c, 3, 74, 0
5, 5160, Note_on_c, 3, 55, 0
5, 5160, Note_on_c, 3, 67, 0
5, 5160, Note_on_c, 3, 71, 0
5, 5160, Note_on_c, 3, 55, 100
5, 5160, Note_on_c, 3, 79, 100
5, 5160, Note_on_c, 3, 74, 100
5, 5160, Note_on_c, 3, 71, 100
5, 5160, Note_on_c, 3, 67, 100
5, 5160, Note_on_c, 3, 62, 100
5, 5220, Note_on_c, 3, 62, 0
5, 5220, Note_on_c, 3, 79, 0
5, 5220, Note_on_c, 3, 74, 0
5, 5220, Note_on_c, 3, 55, 0
5, 5220, Note_on_c, 3, 67, 0
5, 5220, Note_on_c, 3, 71, 0
5, 5220, Note_on_c, 3, 55, 100
5, 5220, Note_on_c, 3, 79, 100
5, 5220, Note_on_c, 3, 74, 100
5, 5220, Note_on_c, 3, 71, 100
5, 5220, Note_on_c, 3, 67, 100
5, 5220, Note_on_c, 3, 62, 100
5, 5280, Note_on_c, 3, 62, 0
5, 5280, Note_on_c, 3, 79, 0
5, 5280, Note_on_c, 3, 74, 0
5, 5280, Note_on_c, 3, 55, 0
5, 5280, Note_on_c, 3, 67, 0
5, 5280, Note_on_c, 3, 71, 0
5, 5280, Note_on_c, 3, 57, 100
5, 5280, Note_on_c, 3, 81, 100
5, 5280, Note_on_c, 3, 76, 100
5, 5280, Note_on_c, 3, 73, 100
5, 5280, Note_on_c, 3, 69, 100
5, 5280, Note_on_c, 3, 64, 100
5, 5340, Note_on_c, 3, 64, 0
5, 5340, Note_on_c, 3, 81, 0
5, 5340, Note_on_c, 3, 76, 0
5, 5340, Note_on_c, 3, 57, 0
5, 5340, Note_on_c, 3, 69, 0
5, 5340, Note_on_c, 3, 73, 0
5, 5340, Note_on_c, 3, 57, 100
5, 5340, Note_on_c, 3, 81, 100
5, 5340, Note_on_c, 3, 76, 100
5, 5340, Note_on_c, 3, 73, 100
5, 5340, Note_on_c, 3, 69, 100
5, 5340, Note_on_c, 3, 64, 100
5, 5400, Note_on_c, 3, 64, 0
5, 5400, Note_on_c, 3, 81, 0
5, 5400, Note_on_c, 3, 76, 0
5, 5400, Note_on_c, 3, 57, 0
5, 5400, Note_on_c, 3, 69, 0
5, 5400, Note_on_c, 3, 73, 0
5, 5400, Note_on_c, 3, 57, 100
5, 5400, Note_on_c, 3, 81, 100
5, 5400, Note_on_c, 3, 76, 100
5, 5400, Note_on_c, 3, 73, 100
5, 5400, Note_on_c, 3, 69, 100
5, 5400, Note_on_c, 3, 64, 100
5, 5460, Note_on_c, 3, 64, 0
5, 5460, Note_on_c, 3, 81, 0
5, 5460, Note_on_c, 3, 76, 0
5, 5460, Note_on_c, 3, 57, 0
5, 5460, Note_on_c, 3, 69, 0
5, 5460, Note_on_c, 3, 73, 0
5, 5460, Note_on_c, 3, 57, 100
5, 5460, Note_on_c, 3, 81, 100
5, 5460, Note_on_c, 3, 76, 100
5, 5460, Note_on_c, 3, 73, 100
5, 5460, Note_on_c, 3, 69, 100
5, 5460, Note_on_c, 3, 64, 100
5, 5520, Note_on_c, 3, 64, 0
5, 5520, Note_on_c, 3, 81, 0
5, 5520, Note_on_c, 3, 76, 0
5, 5520, Note_on_c, 3, 57, 0
5, 5520, Note_on_c, 3, 69, 0
5, 5520, Note_on_c, 3, 73, 0
5, 5580, Note_on_c, 3, 55, 100
5, 5580, Note_on_c, 3, 79, 100
5, 5580, Note_on_c, 3, 74, 100
5, 5580, Note_on_c, 3, 71, 100
5, 5580, Note_on_c, 3, 67, 100
5, 5580, Note_on_c, 3, 62, 100
5, 5640, Note_on_c, 3, 62, 0
5, 5640, Note_on_c, 3, 79, 0
5, 5640, Note_on_c, 3, 74, 0
5, 5640, Note_on_c, 3, 55, 0
5, 5640, Note_on_c, 3, 67, 0
5, 5640, Note_on_c, 3, 71, 0
5, 5640, Note_on_c, 3, 55, 100
5, 5640, Note_on_c, 3, 79, 100
5, 5640, Note_on_c, 3, 74, 100
5, 5640, Note_on_c, 3, 71, 100
5, 5640, Note_on_c, 3, 67, 100
5, 5640, Note_on_c, 3, 62, 100
5, 5700, Note_on_c, 3, 62, 0
5, 5700, Note_on_c, 3, 79, 0
5, 5700, Note_on_c, 3, 74, 0
5, 5700, Note_on_c, 3, 55, 0
5, 5700, Note_on_c, 3, 67, 0
5, 5700, Note_on_c, 3, 71, 0
5, 5700, Note_on_c, 3, 55, 100
5, 5700, Note_on_c, 3, 79, 100
5, 5700, Note_on_c, 3, 74, 100
5, 5700, Note_on_c, 3, 71, 100
5, 5700, Note_on_c, 3, 67, 100
5, 5700, Note_on_c, 3, 62, 100
5, 5760, Note_on_c, 3, 62, 0
5, 5760, Note_on_c, 3, 79, 0
5, 5760, Note_on_c, 3, 74, 0
5, 5760, Note_on_c, 3, 55, 0
5, 5760, Note_on_c, 3, 67, 0
5, 5760, Note_on_c, 3, 71, 0
5, 5760, Note_on_c, 3, 57, 100
5, 5760, Note_on_c, 3, 81, 100
5, 5760, Note_on_c, 3, 76, 100
5, 5760, Note_on_c, 3, 73, 100
5, 5760, Note_on_c, 3, 69, 100
5, 5760, Note_on_c, 3, 64, 100
5, 5820, Note_on_c, 3, 64, 0
5, 5820, Note_on_c, 3, 81, 0
5, 5820, Note_on_c, 3, 76, 0
5, 5820, Note_on_c, 3, 57, 0
5, 5820, Note_on_c, 3, 69, 0
5, 5820, Note_on_c, 3, 73, 0
5, 5820, Note_on_c, 3, 57, 100
5, 5820, Note_on_c, 3, 81, 100
5, 5820, Note_on_c, 3, 76, 100
5, 5820, Note_on_c, 3, 73, 100
5, 5820, Note_on_c, 3, 69, 100
5, 5820, Note_on_c, 3, 64, 100
5, 5880, Note_on_c, 3, 64, 0
5, 5880, Note_on_c, 3, 81, 0
5, 5880, Note_on_c, 3, 76, 0
5, 5880, Note_on_c, 3, 57, 0
5, 5880, Note_on_c, 3, 69, 0
5, 5880, Note_on_c, 3, 73, 0
5, 5880, Note_on_c, 3, 57, 100
5, 5880, Note_on_c, 3, 81, 100
5, 5880, Note_on_c, 3, 76, 100
5, 5880, Note_on_c, 3, 73, 100
5, 5880, Note_on_c, 3, 69, 100
5, 5880, Note_on_c, 3, 64, 100
5, 5940, Note_on_c, 3, 64, 0
5, 5940, Note_on_c, 3, 81, 0
5, 5940, Note_on_c, 3, 76, 0
5, 5940, Note_on_c, 3, 57, 0
5, 5940, Note_on_c, 3, 69, 0
5, 5940, Note_on_c, 3, 73, 0
5, 5940, Note_on_c, 3, 57, 100
5, 5940, Note_on_c, 3, 81, 100
5, 5940, Note_on_c, 3, 76, 100
5, 5940, Note_on_c, 3, 73, 100
5, 5940, Note_on_c, 3, 69, 100
5, 5940, Note_on_c, 3, 64, 100
5, 6000, Note_on_c, 3, 64, 0
5, 6000, Note_on_c, 3, 81, 0
5, 6000, Note_on_c, 3, 76, 0
5, 6000, Note_on_c, 3, 57, 0
5, 6000, Note_on_c, 3, 69, 0
5, 6000, Note_on_c, 3, 73, 0
5, 6060, Note_on_c, 3, 55, 100
5, 6060, Note_on_c, 3, 79, 100
5, 6060, Note_on_c, 3, 74, 100
5, 6060, Note_on_c, 3, 71, 100
5, 6060, Note_on_c, 3, 67, 100
5, 6060, Note_on_c, 3, 62, 100
5, 6120, Note_on_c, 3, 62, 0
5, 6120, Note_on_c, 3, 79, 0
5, 6120, Note_on_c, 3, 74, 0
5, 6120, Note_on_c, 3, 55, 0
5, 6120, Note_on_c, 3, 67, 0
5, 6120, Note_on_c, 3, 71, 0
5, 6120, Note_on_c, 3, 55, 100
5, 6120, Note_on_c, 3, 79, 100
5, 6120, Note_on_c, 3, 74, 100
5, 6120, Note_on_c, 3, 71, 100
5, 6120, Note_on_c, 3, 67, 100
5, 6120, Note_on_c, 3, 62, 100
5, 6180, Note_on_c, 3, 62, 0
5, 6180, Note_on_c, 3, 79, 0
5, 6180, Note_on_c, 3, 74, 0
5, 6180, Note_on_c, 3, 55, 0
5, 6180, Note_on_c, 3, 67, 0
5, 6180, Note_on_c, 3, 71, 0
5, 6180, Note_on_c, 3, 55, 100
5, 6180, Note_on_c, 3, 79, 100
5, 6180, Note_on_c, 3, 74, 100
5, 6180, Note_on_c, 3, 71, 100
5, 6180, Note_on_c, 3, 67, 100
5, 6180, Note_on_c, 3, 62, 100
5, 6240, Note_on_c, 3, 62, 0
5, 6240, Note_on_c, 3, 79, 0
5, 6240, Note_on_c, 3, 74, 0
5, 6240, Note_on_c, 3, 55, 0
5, 6240, Note_on_c, 3, 67, 0
5, 6240, Note_on_c, 3, 71, 0
5, 6240, Note_on_c, 3, 57, 100
5, 6240, Note_on_c, 3, 81, 100
5, 6240, Note_on_c, 3, 76, 100
5, 6240, Note_on_c, 3, 73, 100
5, 6240, Note_on_c, 3, 69, 100
5, 6240, Note_on_c, 3, 64, 100
5, 6300, Note_on_c, 3, 64, 0
5, 6300, Note_on_c, 3, 81, 0
5, 6300, Note_on_c, 3, 76, 0
5, 6300, Note_on_c, 3, 57, 0
5, 6300, Note_on_c, 3, 69, 0
5, 6300, Note_on_c, 3, 73, 0
5, 6300, Note_on_c, 3, 57, 100
5, 6300, Note_on_c, 3, 81, 100
5, 6300, Note_on_c, 3, 76, 100
5, 6300, Note_on_c, 3, 73, 100
5, 6300, Note_on_c, 3, 69, 100
5, 6300, Note_on_c, 3, 64, 100
5, 6360, Note_on_c, 3, 64, 0
5, 6360, Note_on_c, 3, 81, 0
5, 6360, Note_on_c, 3, 76, 0
5, 6360, Note_on_c, 3, 57, 0
5, 6360, Note_on_c, 3, 69, 0
5, 6360, Note_on_c, 3, 73, 0
5, 6360, Note_on_c, 3, 57, 100
5, 6360, Note_on_c, 3, 81, 100
5, 6360, Note_on_c, 3, 76, 100
5, 6360, Note_on_c, 3, 73, 100
5, 6360, Note_on_c, 3, 69, 100
5, 6360, Note_on_c, 3, 64, 100
5, 6420, Note_on_c, 3, 64, 0
5, 6420, Note_on_c, 3, 81, 0
5, 6420, Note_on_c, 3, 76, 0
5, 6420, Note_on_c, 3, 57, 0
5, 6420, Note_on_c, 3, 69, 0
5, 6420, Note_on_c, 3, 73, 0
5, 6420, Note_on_c, 3, 57, 100
5, 6420, Note_on_c, 3, 81, 100
5, 6420, Note_on_c, 3, 76, 100
5, 6420, Note_on_c, 3, 73, 100
5, 6420, Note_on_c, 3, 69, 100
5, 6420, Note_on_c, 3, 64, 100
5, 6480, Note_on_c, 3, 64, 0
5, 6480, Note_on_c, 3, 81, 0
5, 6480, Note_on_c, 3, 76, 0
5, 6480, Note_on_c, 3, 57, 0
5, 6480, Note_on_c, 3, 69, 0
5, 6480, Note_on_c, 3, 73, 0
5, 6540, Note_on_c, 3, 55, 100
5, 6540, Note_on_c, 3, 79, 100
5, 6540, Note_on_c, 3, 74, 100
5, 6540, Note_on_c, 3, 71, 100
5, 6540, Note_on_c, 3, 67, 100
5, 6540, Note_on_c, 3, 62, 100
5, 6600, Note_on_c, 3, 62, 0
5, 6600, Note_on_c, 3, 79, 0
5, 6600, Note_on_c, 3, 74, 0
5, 6600, Note_on_c, 3, 55, 0
5, 6600, Note_on_c, 3, 67, 0
5, 6600, Note_on_c, 3, 71, 0
5, 6600, Note_on_c, 3, 55, 100
5, 6600, Note_on_c, 3, 79, 100
5, 6600, Note_on_c, 3, 74, 100
5, 6600, Note_on_c, 3, 71, 100
5, 6600, Note_on_c, 3, 67, 100
5, 6600, Note_on_c, 3, 62, 100
5, 6660, Note_on_c, 3, 62, 0
5, 6660, Note_on_c, 3, 79, 0
5, 6660, Note_on_c, 3, 74, 0
5, 6660, Note_on_c, 3, 55, 0
5, 6660, Note_on_c, 3, 67, 0
5, 6660, Note_on_c, 3, 71, 0
5, 6660, Note_on_c, 3, 55, 100
5, 6660, Note_on_c, 3, 79, 100
5, 6660, Note_on_c, 3, 74, 100
5, 6660, Note_on_c, 3, 71, 100
5, 6660, Note_on_c, 3, 67, 100
5, 6660, Note_on_c, 3, 62, 100
5, 6720, Note_on_c, 3, 62, 0
5, 6720, Note_on_c, 3, 79, 0
5, 6720, Note_on_c, 3, 74, 0
5, 6720, Note_on_c, 3, 55, 0
5, 6720, Note_on_c, 3, 67, 0
5, 6720, Note_on_c, 3, 71, 0
5, 6720, Note_on_c, 3, 57, 100
5, 6720, Note_on_c, 3, 81, 100
5, 6720, Note_on_c, 3, 76, 100
5, 6720, Note_on_c, 3, 73, 100
5, 6720, Note_on_c, 3, 69, 100
5, 6720, Note_on_c, 3, 64, 100
5, 6780, Note_on_c, 3, 64, 0
5, 6780, Note_on_c, 3, 81, 0
5, 6780, Note_on_c, 3, 76, 0
5, 6780, Note_on_c, 3, 57, 0
5, 6780, Note_on_c, 3, 69, 0
5, 6780, Note_on_c, 3, 73, 0
5, 6780, Note_on_c, 3, 57, 100
5, 6780, Note_on_c, 3, 81, 100
5, 6780, Note_on_c, 3, 76, 100
5, 6780, Note_on_c, 3, 73, 100
5, 6780, Note_on_c, 3, 69, 100
5, 6780, Note_on_c, 3, 64, 100
5, 6840, Note_on_c, 3, 64, 0
5, 6840, Note_on_c, 3, 81, 0
5, 6840, Note_on_c, 3, 76, 0
5, 6840, Note_on_c, 3, 57, 0
5, 6840, Note_on_c, 3, 69, 0
5, 6840, Note_on_c, 3, 73, 0
5, 6840, Note_on_c, 3, 57, 100
5, 6840, Note_on_c, 3, 81, 100
5, 6840, Note_on_c, 3, 76, 100
5, 6840, Note_on_c, 3, 73, 100
5, 6840, Note_on_c, 3, 69, 100
5, 6840, Note_on_c, 3, 64, 100
5, 6900, Note_on_c, 3, 64, 0
5, 6900, Note_on_c, 3, 81, 0
5, 6900, Note_on_c, 3, 76, 0
5, 6900, Note_on_c, 3, 57, 0
5, 6900, Note_on_c, 3, 69, 0
5, 6900, Note_on_c, 3, 73, 0
5, 6900, Note_on_c, 3, 57, 100
5, 6900, Note_on_c, 3, 81, 100
5, 6900, Note_on_c, 3, 76, 100
5, 6900, Note_on_c, 3, 73, 100
5, 6900, Note_on_c, 3, 69, 100
5, 6900, Note_on_c, 3, 64, 100
5, 6960, Note_on_c, 3, 64, 0
5, 6960, Note_on_c, 3, 81, 0
5, 6960, Note_on_c, 3, 76, 0
5, 6960, Note_on_c, 3, 57, 0
5, 6960, Note_on_c, 3, 69, 0
5, 6960, Note_on_c, 3, 73, 0
5, 7020, Note_on_c, 3, 55, 100
5, 7020, Note_on_c, 3, 79, 100
5, 7020, Note_on_c, 3, 74, 100
5, 7020, Note_on_c, 3, 71, 100
5, 7020, Note_on_c, 3, 67, 100
5, 7020, Note_on_c, 3, 62, 100
5, 7080, Note_on_c, 3, 62, 0
5, 7080, Note_on_c, 3, 79, 0
5, 7080, Note_on_c, 3, 74, 0
5, 7080, Note_on_c, 3, 55, 0
5, 7080, Note_on_c, 3, 67, 0
5, 7080, Note_on_c, 3, 71, 0
5, 7080, Note_on_c, 3, 55, 100
5, 7080, Note_on_c, 3, 79, 100
5, 7080, Note_on_c, 3, 74, 100
5, 7080, Note_on_c, 3, 71, 100
5, 7080, Note_on_c, 3, 67, 100
5, 7080, Note_on_c, 3, 62, 100
5, 7140, Note_on_c, 3, 62, 0
5, 7140, Note_on_c, 3, 79, 0
5, 7140, Note_on_c, 3, 74, 0
5, 7140, Note_on_c, 3, 55, 0
5, 7140, Note_on_c, 3, 67, 0
5, 7140, Note_on_c, 3, 71, 0
5, 7140, Note_on_c, 3, 55, 100
5, 7140, Note_on_c, 3, 79, 100
5, 7140, Note_on_c, 3, 74, 100
5, 7140, Note_on_c, 3, 71, 100
5, 7140, Note_on_c, 3, 67, 100
5, 7140, Note_on_c, 3, 62, 100
5, 7200, Note_on_c, 3, 62, 0
5, 7200, Note_on_c, 3, 79, 0
5, 7200, Note_on_c, 3, 74, 0
5, 7200, Note_on_c, 3, 55, 0
5, 7200, Note_on_c, 3, 67, 0
5, 7200, Note_on_c, 3, 71, 0
5, 7200, Note_on_c, 3, 57, 100
5, 7200, Note_on_c, 3, 81, 100
5, 7200, Note_on_c, 3, 76, 100
5, 7200, Note_on_c, 3, 73, 100
5, 7200, Note_on_c, 3, 69, 100
5, 7200, Note_on_c, 3, 64, 100
5, 7260, Note_on_c, 3, 64, 0
5, 7260, Note_on_c, 3, 81, 0
5, 7260, Note_on_c, 3, 76, 0
5, 7260, Note_on_c, 3, 57, 0
5, 7260, Note_on_c, 3, 69, 0
5, 7260, Note_on_c, 3, 73, 0
5, 7260, Note_on_c, 3, 57, 100
5, 7260, Note_on_c, 3, 81, 100
5, 7260, Note_on_c, 3, 76, 100
5, 7260, Note_on_c, 3, 73, 100
5, 7260, Note_on_c, 3, 69, 100
5, 7260, Note_on_c, 3, 64, 100
5, 7320, Note_on_c, 3, 64, 0
5, 7320, Note_on_c, 3, 81, 0
5, 7320, Note_on_c, 3, 76, 0
5, 7320, Note_on_c, 3, 57, 0
5, 7320, Note_on_c, 3, 69, 0
5, 7320, Note_on_c, 3, 73, 0
5, 7320, Note_on_c, 3, 57, 100
5, 7320, Note_on_c, 3, 81, 100
5, 7320, Note_on_c, 3, 76, 100
5, 7320, Note_on_c, 3, 73, 100
5, 7320, Note_on_c, 3, 69, 100
5, 7320, Note_on_c, 3, 64, 100
5, 7380, Note_on_c, 3, 64, 0
5, 7380, Note_on_c, 3, 81, 0
5, 7380, Note_on_c, 3, 76, 0
5, 7380, Note_on_c, 3, 57, 0
5, 7380, Note_on_c, 3, 69, 0
5, 7380, Note_on_c, 3, 73, 0
5, 7380, Note_on_c, 3, 57, 100
5, 7380, Note_on_c, 3, 81, 100
5, 7380, Note_on_c, 3, 76, 100
5, 7380, Note_on_c, 3, 73, 100
5, 7380, Note_on_c, 3, 69, 100
5, 7380, Note_on_c, 3, 64, 100
5, 7440, Note_on_c, 3, 64, 0
5, 7440, Note_on_c, 3, 81, 0
5, 7440, Note_on_c, 3, 76, 0
5, 7440, Note_on_c, 3, 57, 0
5, 7440, Note_on_c, 3, 69, 0
5, 7440, Note_on_c, 3, 73, 0
5, 7500, Note_on_c, 3, 55, 100
5, 7500, Note_on_c, 3, 79, 100
5, 7500, Note_on_c, 3, 74, 100
5, 7500, Note_on_c, 3, 71, 100
5, 7500, Note_on_c, 3, 67, 100
5, 7500, Note_on_c, 3, 62, 100
5, 7560, Note_on_c, 3, 62, 0
5, 7560, Note_on_c, 3, 79, 0
5, 7560, Note_on_c, 3, 74, 0
5, 7560, Note_on_c, 3, 55, 0
5, 7560, Note_on_c, 3, 67, 0
5, 7560, Note_on_c, 3, 71, 0
5, 7560, Note_on_c, 3, 55, 100
5, 7560, Note_on_c, 3, 79, 100
5, 7560, Note_on_c, 3, 74, 100
5, 7560, Note_on_c, 3, 71, 100
5, 7560, Note_on_c, 3, 67, 100
5, 7560, Note_on_c, 3, 62, 100
5, 7620, Note_on_c, 3, 62, 0
5, 7620, Note_on_c, 3, 79, 0
5, 7620, Note_on_c, 3, 74, 0
5, 7620, Note_on_c, 3, 55, 0
5, 7620, Note_on_c, 3, 67, 0
5, 7620, Note_on_c, 3, 71, 0
5, 7620, Note_on_c, 3, 55, 100
5, 7620, Note_on_c, 3, 79, 100
5, 7620, Note_on_c, 3, 74, 100
5, 7620, Note_on_c, 3, 71, 100
5, 7620, Note_on_c, 3, 67, 100
5, 7620, Note_on_c, 3, 62, 100
5, 7680, Note_on_c, 3, 62, 0
5, 7680, Note_on_c, 3, 79, 0
5, 7680, Note_on_c, 3, 74, 0
5, 7680, Note_on_c, 3, 55, 0
5, 7680, Note_on_c, 3, 67, 0
5, 7680, Note_on_c, 3, 71, 0
5, 7680, Note_on_c, 3, 57, 100
5, 7680, Note_on_c, 3, 81, 100
5, 7680, Note_on_c, 3, 76, 100
5, 7680, Note_on_c, 3, 73, 100
5, 7680, Note_on_c, 3, 69, 100
5, 7680, Note_on_c, 3, 64, 100
5, 7740, Note_on_c, 3, 64, 0
5, 7740, Note_on_c, 3, 81, 0
5, 7740, Note_on_c, 3, 76, 0
5, 7740, Note_on_c, 3, 57, 0
5, 7740, Note_on_c, 3, 69, 0
5, 7740, Note_on_c, 3, 73, 0
5, 7740, Note_on_c, 3, 57, 100
5, 7740, Note_on_c, 3, 81, 100
5, 7740, Note_on_c, 3, 76, 100
5, 7740, Note_on_c, 3, 73, 100
5, 7740, Note_on_c, 3, 69, 100
5, 7740, Note_on_c, 3, 64, 100
5, 7800, Note_on_c, 3, 64, 0
5, 7800, Note_on_c, 3, 81, 0
5, 7800, Note_on_c, 3, 76, 0
5, 7800, Note_on_c, 3, 57, 0
5, 7800, Note_on_c, 3, 69, 0
5, 7800, Note_on_c, 3, 73, 0
5, 7800, Note_on_c, 3, 57, 100
5, 7800, Note_on_c, 3, 81, 100
5, 7800, Note_on_c, 3, 76, 100
5, 7800, Note_on_c, 3, 73, 100
5, 7800, Note_on_c, 3, 69, 100
5, 7800, Note_on_c, 3, 64, 100
5, 7860, Note_on_c, 3, 64, 0
5, 7860, Note_on_c, 3, 81, 0
5, 7860, Note_on_c, 3, 76, 0
5, 7860, Note_on_c, 3, 57, 0
5, 7860, Note_on_c, 3, 69, 0
5, 7860, Note_on_c, 3, 73, 0
5, 7860, Note_on_c, 3, 57, 100
5, 7860, Note_on_c, 3, 81, 100
5, 7860, Note_on_c, 3, 76, 100
5, 7860, Note_on_c, 3, 73, 100
5, 7860, Note_on_c, 3, 69, 100
5, 7860, Note_on_c, 3, 64, 100
5, 7920, Note_on_c, 3, 64, 0
5, 7920, Note_on_c, 3, 81, 0
5, 7920, Note_on_c, 3, 76, 0
5, 7920, Note_on_c, 3, 57, 0
5, 7920, Note_on_c, 3, 69, 0
5, 7920, Note_on_c, 3, 73, 0
5, 7980, Note_on_c, 3, 55, 100
5, 7980, Note_on_c, 3, 79, 100
5, 7980, Note_on_c, 3, 74, 100
5, 7980, Note_on_c, 3, 71, 100
5, 7980, Note_on_c, 3, 67, 100
5, 7980, Note_on_c, 3, 62, 100
5, 8040, Note_on_c, 3, 62, 0
5, 8040, Note_on_c, 3, 79, 0
5, 8040, Note_on_c, 3, 74, 0
5, 8040, Note_on_c, 3, 55, 0
5, 8040, Note_on_c, 3, 67, 0
5, 8040, Note_on_c, 3, 71, 0
5, 8040, Note_on_c, 3, 55, 100
5, 8040, Note_on_c, 3, 79, 100
5, 8040, Note_on_c, 3, 74, 100
5, 8040, Note_on_c, 3, 71, 100
5, 8040, Note_on_c, 3, 67, 100
5, 8040, Note_on_c, 3, 62, 100
5, 8100, Note_on_c, 3, 62, 0
5, 8100, Note_on_c, 3, 79, 0
5, 8100, Note_on_c, 3, 74, 0
5, 8100, Note_on_c, 3, 55, 0
5, 8100, Note_on_c, 3, 67, 0
5, 8100, Note_on_c, 3, 71, 0
5, 8100, Note_on_c, 3, 55, 100
5, 8100, Note_on_c, 3, 79, 100
5, 8100, Note_on_c, 3, 74, 100
5, 8100, Note_on_c, 3, 71, 100
5, 8100, Note_on_c, 3, 67, 100
5, 8100, Note_on_c, 3, 62, 100
5, 8160, Note_on_c, 3, 62, 0
5, 8160, Note_on_c, 3, 79, 0
5, 8160, Note_on_c, 3, 74, 0
5, 8160, Note_on_c, 3, 55, 0
5, 8160, Note_on_c, 3, 67, 0
5, 8160, Note_on_c, 3, 71, 0
5, 8160, Note_on_c, 3, 57, 100
5, 8160, Note_on_c, 3, 81, 100
5, 8160, Note_on_c, 3, 76, 100
5, 8160, Note_on_c, 3, 73, 100
5, 8160, Note_on_c, 3, 69, 100
5, 8160, Note_on_c, 3, 64, 100
5, 8220, Note_on_c, 3, 64, 0
5, 8220, Note_on_c, 3, 81, 0
5, 8220, Note_on_c, 3, 76, 0
5, 8220, Note_on_c, 3, 57, 0
5, 8220, Note_on_c, 3, 69, 0
5, 8220, Note_on_c, 3, 73, 0
5, 8220, Note_on_c, 3, 57, 100
5, 8220, Note_on_c, 3, 81, 100
5, 8220, Note_on_c, 3, 76, 100
5, 8220, Note_on_c, 3, 73, 100
5, 8220, Note_on_c, 3, 69, 100
5, 8220, Note_on_c, 3, 64, 100
5, 8280, Note_on_c, 3, 64, 0
5, 8280, Note_on_c, 3, 81, 0
5, 8280, Note_on_c, 3, 76, 0
5, 8280, Note_on_c, 3, 57, 0
5, 8280, Note_on_c, 3, 69, 0
5, 8280, Note_on_c, 3, 73, 0
5, 8280, Note_on_c, 3, 57, 100
5, 8280, Note_on_c, 3, 81, 100
5, 8280, Note_on_c, 3, 76, 100
5, 8280, Note_on_c, 3, 73, 100
5, 8280, Note_on_c, 3, 69, 100
5, 8280, Note_on_c, 3, 64, 100
5, 8340, Note_on_c, 3, 64, 0
5, 8340, Note_on_c, 3, 81, 0
5, 8340, Note_on_c, 3, 76, 0
5, 8340, Note_on_c, 3, 57, 0
5, 8340, Note_on_c, 3, 69, 0
5, 8340, Note_on_c, 3, 73, 0
5, 8340, Note_on_c, 3, 57, 100
5, 8340, Note_on_c, 3, 81, 100
5, 8340, Note_on_c, 3, 76, 100
5, 8340, Note_on_c, 3, 73, 100
5, 8340, Note_on_c, 3, 69, 100
5, 8340, Note_on_c, 3, 64, 100
5, 8400, Note_on_c, 3, 64, 0
5, 8400, Note_on_c, 3, 81, 0
5, 8400, Note_on_c, 3, 76, 0
5, 8400, Note_on_c, 3, 57, 0
5, 8400, Note_on_c, 3, 69, 0
5, 8400, Note_on_c, 3, 73, 0
5, 8460, Note_on_c, 3, 55, 100
5, 8460, Note_on_c, 3, 79, 100
5, 8460, Note_on_c, 3, 74, 100
5, 8460, Note_on_c, 3, 71, 100
5, 8460, Note_on_c, 3, 67, 100
5, 8460, Note_on_c, 3, 62, 100
5, 8520, Note_on_c, 3, 62, 0
5, 8520, Note_on_c, 3, 79, 0
5, 8520, Note_on_c, 3, 74, 0
5, 8520, Note_on_c, 3, 55, 0
5, 8520, Note_on_c, 3, 67, 0
5, 8520, Note_on_c, 3, 71, 0
5, 8520, Note_on_c, 3, 55, 100
5, 8520, Note_on_c, 3, 79, 100
5, 8520, Note_on_c, 3, 74, 100
5, 8520, Note_on_c, 3, 71, 100
5, 8520, Note_on_c, 3, 67, 100
5, 8520, Note_on_c, 3, 62, 100
5, 8580, Note_on_c, 3, 62, 0
5, 8580, Note_on_c, 3, 79, 0
5, 8580, Note_on_c, 3, 74, 0
5, 8580, Note_on_c, 3, 55, 0
5, 8580, Note_on_c, 3, 67, 0
5, 8580, Note_on_c, 3, 71, 0
5, 8580, Note_on_c, 3, 55, 100
5, 8580, Note_on_c, 3, 79, 100
5, 8580, Note_on_c, 3, 74, 100
5, 8580, Note_on_c, 3, 71, 100
5, 8580, Note_on_c, 3, 67, 100
5, 8580, Note_on_c, 3, 62, 100
5, 8640, Note_on_c, 3, 62, 0
5, 8640, Note_on_c, 3, 79, 0
5, 8640, Note_on_c, 3, 74, 0
5, 8640, Note_on_c, 3, 55, 0
5, 8640, Note_on_c, 3, 67, 0
5, 8640, Note_on_c, 3, 71, 0
5, 8640, Note_on_c, 3, 57, 100
5, 8640, Note_on_c, 3, 81, 100
5, 8640, Note_on_c, 3, 76, 100
5, 8640, Note_on_c, 3, 73, 100
5, 8640, Note_on_c, 3, 69, 100
5, 8640, Note_on_c, 3, 64, 100
5, 8700, Note_on_c, 3, 64, 0
5, 8700, Note_on_c, 3, 81, 0
5, 8700, Note_on_c, 3, 76, 0
5, 8700, Note_on_c, 3, 57, 0
5, 8700, Note_on_c, 3, 69, 0
5, 8700, Note_on_c, 3, 73, 0
5, 8700, Note_on_c, 3, 57, 100
5, 8700, Note_on_c, 3, 81, 100
5, 8700, Note_on_c, 3, 76, 100
5, 8700, Note_on_c, 3, 73, 100
5, 8700, Note_on_c, 3, 69, 100
5, 8700, Note_on_c, 3, 64, 100
5, 8760, Note_on_c, 3, 64, 0
5, 8760, Note_on_c, 3, 81, 0
5, 8760, Note_on_c, 3, 76, 0
5, 8760, Note_on_c, 3, 57, 0
5, 8760, Note_on_c, 3, 69, 0
5, 8760, Note_on_c, 3, 73, 0
5, 8760, Note_on_c, 3, 57, 100
5, 8760, Note_on_c, 3, 81, 100
5, 8760, Note_on_c, 3, 76, 100
5, 8760, Note_on_c, 3, 73, 100
5, 8760, Note_on_c, 3, 69, 100
5, 8760, Note_on_c, 3, 64, 100
5, 8820, Note_on_c, 3, 64, 0
5, 8820, Note_on_c, 3, 81, 0
5, 8820, Note_on_c, 3, 76, 0
5, 8820, Note_on_c, 3, 57, 0
5, 8820, Note_on_c, 3, 69, 0
5, 8820, Note_on_c, 3, 73, 0
5, 8820, Note_on_c, 3, 57, 100
5, 8820, Note_on_c, 3, 81, 100
5, 8820, Note_on_c, 3, 76, 100
5, 8820, Note_on_c, 3, 73, 100
5, 8820, Note_on_c, 3, 69, 100
5, 8820, Note_on_c, 3, 64, 100
5, 8880, Note_on_c, 3, 64, 0
5, 8880, Note_on_c, 3, 81, 0
5, 8880, Note_on_c, 3, 76, 0
5, 8880, Note_on_c, 3, 57, 0
5, 8880, Note_on_c, 3, 69, 0
5, 8880, Note_on_c, 3, 73, 0
5, 8940, Note_on_c, 3, 55, 100
5, 8940, Note_on_c, 3, 79, 100
5, 8940, Note_on_c, 3, 74, 100
5, 8940, Note_on_c, 3, 71, 100
5, 8940, Note_on_c, 3, 67, 100
5, 8940, Note_on_c, 3, 62, 100
5, 9000, Note_on_c, 3, 62, 0
5, 9000, Note_on_c, 3, 79, 0
5, 9000, Note_on_c, 3, 74, 0
5, 9000, Note_on_c, 3, 55, 0
5, 9000, Note_on_c, 3, 67, 0
5, 9000, Note_on_c, 3, 71, 0
5, 9000, Note_on_c, 3, 55, 100
5, 9000, Note_on_c, 3, 79, 100
5, 9000, Note_on_c, 3, 74, 100
5, 9000, Note_on_c, 3, 71, 100
5, 9000, Note_on_c, 3, 67, 100
5, 9000, Note_on_c, 3, 62, 100
5, 9060, Note_on_c, 3, 62, 0
5, 9060, Note_on_c, 3, 79, 0
5, 9060, Note_on_c, 3, 74, 0
5, 9060, Note_on_c, 3, 55, 0
5, 9060, Note_on_c, 3, 67, 0
5, 9060, Note_on_c, 3, 71, 0
5, 9060, Note_on_c, 3, 55, 100
5, 9060, Note_on_c, 3, 79, 100
5, 9060, Note_on_c, 3, 74, 100
5, 9060, Note_on_c, 3, 71, 100
5, 9060, Note_on_c, 3, 67, 100
5, 9060, Note_on_c, 3, 62, 100
5, 9120, Note_on_c, 3, 62, 0
5, 9120, Note_on_c, 3, 79, 0
5, 9120, Note_on_c, 3, 74, 0
5, 9120, Note_on_c, 3, 55, 0
5, 9120, Note_on_c, 3, 67, 0
5, 9120, Note_on_c, 3, 71, 0
5, 9120, Note_on_c, 3, 57, 100
5, 9120, Note_on_c, 3, 81, 100
5, 9120, Note_on_c, 3, 76, 100
5, 9120, Note_on_c, 3, 73, 100
5, 9120, Note_on_c, 3, 69, 100
5, 9120, Note_on_c, 3, 64, 100
5, 9180, Note_on_c, 3, 64, 0
5, 9180, Note_on_c, 3, 81, 0
5, 9180, Note_on_c, 3, 76, 0
5, 9180, Note_on_c, 3, 57, 0
5, 9180, Note_on_c, 3, 69, 0
5, 9180, Note_on_c, 3, 73, 0
5, 9180, Note_on_c, 3, 57, 100
5, 9180, Note_on_c, 3, 81, 100
5, 9180, Note_on_c, 3, 76, 100
5, 9180, Note_on_c, 3, 73, 100
5, 9180, Note_on_c, 3, 69, 100
5, 9180, Note_on_c, 3, 64, 100
5, 9240, Note_on_c, 3, 64, 0
5, 9240, Note_on_c, 3, 81, 0
5, 9240, Note_on_c, 3, 76, 0
5, 9240, Note_on_c, 3, 57, 0
5, 9240, Note_on_c, 3, 69, 0
5, 9240, Note_on_c, 3, 73, 0
5, 9240, Note_on_c, 3, 57, 100
5, 9240, Note_on_c, 3, 81, 100
5, 9240, Note_on_c, 3, 76, 100
5, 9240, Note_on_c, 3, 73, 100
5, 9240, Note_on_c, 3, 69, 100
5, 9240, Note_on_c, 3, 64, 100
5, 9300, Note_on_c, 3, 64, 0
5, 9300, Note_on_c, 3, 81, 0
5, 9300, Note_on_c, 3, 76, 0
5, 9300, Note_on_c, 3, 57, 0
5, 9300, Note_on_c, 3, 69, 0
5, 9300, Note_on_c, 3, 73, 0
5, 9300, Note_on_c, 3, 57, 100
5, 9300, Note_on_c, 3, 81, 100
5, 9300, Note_on_c, 3, 76, 100
5, 9300, Note_on_c, 3, 73, 100
5, 9300, Note_on_c, 3, 69, 100
5, 9300, Note_on_c, 3, 64, 100
5, 9360, Note_on_c, 3, 64, 0
5, 9360, Note_on_c, 3, 81, 0
5, 9360, Note_on_c, 3, 76, 0
5, 9360, Note_on_c, 3, 57, 0
5, 9360, Note_on_c, 3, 69, 0
5, 9360, Note_on_c, 3, 73, 0
5, 9420, Note_on_c, 3, 55, 100
5, 9420, Note_on_c, 3, 79, 100
5, 9420, Note_on_c, 3, 74, 100
5, 9420, Note_on_c, 3, 71, 100
5, 9420, Note_on_c, 3, 67, 100
5, 9420, Note_on_c, 3, 62, 100
5, 9480, Note_on_c, 3, 62, 0
5, 9480, Note_on_c, 3, 79, 0
5, 9480, Note_on_c, 3, 74, 0
5, 9480, Note_on_c, 3, 55, 0
5, 9480, Note_on_c, 3, 67, 0
5, 9480, Note_on_c, 3, 71, 0
5, 9480, Note_on_c, 3, 55, 100
5, 9480, Note_on_c, 3, 79, 100
5, 9480, Note_on_c, 3, 74, 100
5, 9480, Note_on_c, 3, 71, 100
5, 9480, Note_on_c, 3, 67, 100
5, 9480, Note_on_c, 3, 62, 100
5, 9540, Note_on_c, 3, 62, 0
5, 9540, Note_on_c, 3, 79, 0
5, 9540, Note_on_c, 3, 74, 0
5, 9540, Note_on_c, 3, 55, 0
5, 9540, Note_on_c, 3, 67, 0
5, 9540, Note_on_c, 3, 71, 0
5, 9540, Note_on_c, 3, 55, 100
5, 9540, Note_on_c, 3, 79, 100
5, 9540, Note_on_c, 3, 74, 100
5, 9540, Note_on_c, 3, 71, 100
5, 9540, Note_on_c, 3, 67, 100
5, 9540, Note_on_c, 3, 62, 100
5, 9600, Note_on_c, 3, 62, 0
5, 9600, Note_on_c, 3, 79, 0
5, 9600, Note_on_c, 3, 74, 0
5, 9600, Note_on_c, 3, 55, 0
5, 9600, Note_on_c, 3, 67, 0
5, 9600, Note_on_c, 3, 71, 0
5, 9600, Note_on_c, 3, 57, 100
5, 9600, Note_on_c, 3, 81, 100
5, 9600, Note_on_c, 3, 76, 100
5, 9600, Note_on_c, 3, 73, 100
5, 9600, Note_on_c, 3, 69, 100
5, 9600, Note_on_c, 3, 64, 100
5, 9660, Note_on_c, 3, 64, 0
5, 9660, Note_on_c, 3, 81, 0
5, 9660, Note_on_c, 3, 76, 0
5, 9660, Note_on_c, 3, 57, 0
5, 9660, Note_on_c, 3, 69, 0
5, 9660, Note_on_c, 3, 73, 0
5, 9660, Note_on_c, 3, 57, 100
5, 9660, Note_on_c, 3, 81, 100
5, 9660, Note_on_c, 3, 76, 100
5, 9660, Note_on_c, 3, 73, 100
5, 9660, Note_on_c, 3, 69, 100
5, 9660, Note_on_c, 3, 64, 100
5, 9720, Note_on_c, 3, 64, 0
5, 9720, Note_on_c, 3, 81, 0
5, 9720, Note_on_c, 3, 76, 0
5, 9720, Note_on_c, 3, 57, 0
5, 9720, Note_on_c, 3, 69, 0
5, 9720, Note_on_c, 3, 73, 0
5, 9720, Note_on_c, 3, 57, 100
5, 9720, Note_on_c, 3, 81, 100
5, 9720, Note_on_c, 3, 76, 100
5, 9720, Note_on_c, 3, 73, 100
5, 9720, Note_on_c, 3, 69, 100
5, 9720, Note_on_c, 3, 64, 100
5, 9780, Note_on_c, 3, 64, 0
5, 9780, Note_on_c, 3, 81, 0
5, 9780, Note_on_c, 3, 76, 0
5, 9780, Note_on_c, 3, 57, 0
5, 9780, Note_on_c, 3, 69, 0
5, 9780, Note_on_c, 3, 73, 0
5, 9780, Note_on_c, 3, 57, 100
5, 9780, Note_on_c, 3, 81, 100
5, 9780, Note_on_c, 3, 76, 100
5, 9780, Note_on_c, 3, 73, 100
5, 9780, Note_on_c, 3, 69, 100
5, 9780, Note_on_c, 3, 64, 100
5, 9840, Note_on_c, 3, 64, 0
5, 9840, Note_on_c, 3, 81, 0
5, 9840, Note_on_c, 3, 76, 0
5, 9840, Note_on_c, 3, 57, 0
5, 9840, Note_on_c, 3, 69, 0
5, 9840, Note_on_c, 3, 73, 0
5, 9900, Note_on_c, 3, 55, 100
5, 9900, Note_on_c, 3, 79, 100
5, 9900, Note_on_c, 3, 74, 100
5, 9900, Note_on_c, 3, 71, 100
5, 9900, Note_on_c, 3, 67, 100
5, 9900, Note_on_c, 3, 62, 100
5, 9960, Note_on_c, 3, 62, 0
5, 9960, Note_on_c, 3, 79, 0
5, 9960, Note_on_c, 3, 74, 0
5, 9960, Note_on_c, 3, 55, 0
5, 9960, Note_on_c, 3, 67, 0
5, 9960, Note_on_c, 3, 71, 0
5, 9960, Note_on_c, 3, 55, 100
5, 9960, Note_on_c, 3, 79, 100
5, 9960, Note_on_c, 3, 74, 100
5, 9960, Note_on_c, 3, 71, 100
5, 9960, Note_on_c, 3, 67, 100
5, 9960, Note_on_c, 3, 62, 100
5, 10020, Note_on_c, 3, 62, 0
5, 10020, Note_on_c, 3, 79, 0
5, 10020, Note_on_c, 3, 74, 0
5, 10020, Note_on_c, 3, 55, 0
5, 10020, Note_on_c, 3, 67, 0
5, 10020, Note_on_c, 3, 71, 0
5, 10020, Note_on_c, 3, 55, 100
5, 10020, Note_on_c, 3, 79, 100
5, 10020, Note_on_c, 3, 74, 100
5, 10020, Note_on_c, 3, 71, 100
5, 10020, Note_on_c, 3, 67, 100
5, 10020, Note_on_c, 3, 62, 100
5, 10080, Note_on_c, 3, 62, 0
5, 10080, Note_on_c, 3, 79, 0
5, 10080, Note_on_c, 3, 74, 0
5, 10080, Note_on_c, 3, 55, 0
5, 10080, Note_on_c, 3, 67, 0
5, 10080, Note_on_c, 3, 71, 0
5, 10080, Note_on_c, 3, 57, 100
5, 10080, Note_on_c, 3, 81, 100
5, 10080, Note_on_c, 3, 76, 100
5, 10080, Note_on_c, 3, 73, 100
5, 10080, Note_on_c, 3, 69, 100
5, 10080, Note_on_c, 3, 64, 100
5, 10140, Note_on_c, 3, 64, 0
5, 10140, Note_on_c, 3, 81, 0
5, 10140, Note_on_c, 3, 76, 0
5, 10140, Note_on_c, 3, 57, 0
5, 10140, Note_on_c, 3, 69, 0
5, 10140, Note_on_c, 3, 73, 0
5, 10140, Note_on_c, 3, 57, 100
5, 10140, Note_on_c, 3, 81, 100
5, 10140, Note_on_c, 3, 76, 100
5, 10140, Note_on_c, 3, 73, 100
5, 10140, Note_on_c, 3, 69, 100
5, 10140, Note_on_c, 3, 64, 100
5, 10200, Note_on_c, 3, 64, 0
5, 10200, Note_on_c, 3, 81, 0
5, 10200, Note_on_c, 3, 76, 0
5, 10200, Note_on_c, 3, 57, 0
5, 10200, Note_on_c, 3, 69, 0
5, 10200, Note_on_c, 3, 73, 0
5, 10200, Note_on_c, 3, 57, 100
5, 10200, Note_on_c, 3, 81, 100
5, 10200, Note_on_c, 3, 76, 100
5, 10200, Note_on_c, 3, 73, 100
5, 10200, Note_on_c, 3, 69, 100
5, 10200, Note_on_c, 3, 64, 100
5, 10260, Note_on_c, 3, 64, 0
5, 10260, Note_on_c, 3, 81, 0
5, 10260, Note_on_c, 3, 76, 0
5, 10260, Note_on_c, 3, 57, 0
5, 10260, Note_on_c, 3, 69, 0
5, 10260, Note_on_c, 3, 73, 0
5, 10260, Note_on_c, 3, 57, 100
5, 10260, Note_on_c, 3, 81, 100
5, 10260, Note_on_c, 3, 76, 100
5, 10260, Note_on_c, 3, 73, 100
5, 10260, Note_on_c, 3, 69, 100
5, 10260, Note_on_c, 3, 64, 100
5, 10320, Note_on_c, 3, 64, 0
5, 10320, Note_on_c, 3, 81, 0
5, 10320, Note_on_c, 3, 76, 0
5, 10320, Note_on_c, 3, 57, 0
5, 10320, Note_on_c, 3, 69, 0
5, 10320, Note_on_c, 3, 73, 0
5, 10380, Note_on_c, 3, 55, 100
5, 10380, Note_on_c, 3, 79, 100
5, 10380, Note_on_c, 3, 74, 100
5, 10380, Note_on_c, 3, 71, 100
5, 10380, Note_on_c, 3, 67, 100
5, 10380, Note_on_c, 3, 62, 100
5, 10440, Note_on_c, 3, 62, 0
5, 10440, Note_on_c, 3, 79, 0
5, 10440, Note_on_c, 3, 74, 0
5, 10440, Note_on_c, 3, 55, 0
5, 10440, Note_on_c, 3, 67, 0
5, 10440, Note_on_c, 3, 71, 0
5, 10440, Note_on_c, 3, 55, 100
5, 10440, Note_on_c, 3, 79, 100
5, 10440, Note_on_c, 3, 74, 100
5, 10440, Note_on_c, 3, 71, 100
5, 10440, Note_on_c, 3, 67, 100
5, 10440, Note_on_c, 3, 62, 100
5, 10500, Note_on_c, 3, 62, 0
5, 10500, Note_on_c, 3, 79, 0
5, 10500, Note_on_c, 3, 74, 0
5, 10500, Note_on_c, 3, 55, 0
5, 10500, Note_on_c, 3, 67, 0
5, 10500, Note_on_c, 3, 71, 0
5, 10500, Note_on_c, 3, 55, 100
5, 10500, Note_on_c, 3, 79, 100
5, 10500, Note_on_c, 3, 74, 100
5, 10500, Note_on_c, 3, 71, 100
5, 10500, Note_on_c, 3, 67, 100
5, 10500, Note_on_c, 3, 62, 100
5, 10560, Note_on_c, 3, 62, 0
5, 10560, Note_on_c, 3, 79, 0
5, 10560, Note_on_c, 3, 74, 0
5, 10560, Note_on_c, 3, 55, 0
5, 10560, Note_on_c, 3, 67, 0
5, 10560, Note_on_c, 3, 71, 0
5, 10560, Note_on_c, 3, 57, 100
5, 10560, Note_on_c, 3, 81, 100
5, 10560, Note_on_c, 3, 76, 100
5, 10560, Note_on_c, 3, 73, 100
5, 10560, Note_on_c, 3, 69, 100
5, 10560, Note_on_c, 3, 64, 100
5, 10620, Note_on_c, 3, 64, 0
5, 10620, Note_on_c, 3, 81, 0
5, 10620, Note_on_c, 3, 76, 0
5, 10620, Note_on_c, 3, 57, 0
5, 10620, Note_on_c, 3, 69, 0
5, 10620, Note_on_c, 3, 73, 0
5, 10620, Note_on_c, 3, 57, 100
5, 10620, Note_on_c, 3, 81, 100
5, 10620, Note_on_c, 3, 76, 100
5, 10620, Note_on_c, 3, 73, 100
5, 10620, Note_on_c, 3, 69, 100
5, 10620, Note_on_c, 3, 64, 100
5, 10680, Note_on_c, 3, 64, 0
5, 10680, Note_on_c, 3, 81, 0
5, 10680, Note_on_c, 3, 76, 0
5, 10680, Note_on_c, 3, 57, 0
5, 10680, Note_on_c, 3, 69, 0
5, 10680, Note_on_c, 3, 73, 0
5, 10680, Note_on_c, 3, 57, 100
5, 10680, Note_on_c, 3, 81, 100
5, 10680, Note_on_c, 3, 76, 100
5, 10680, Note_on_c, 3, 73, 100
5, 10680, Note_on_c, 3, 69, 100
5, 10680, Note_on_c, 3, 64, 100
5, 10740, Note_on_c, 3, 64, 0
5, 10740, Note_on_c, 3, 81, 0
5, 10740, Note_on_c, 3, 76, 0
5, 10740, Note_on_c, 3, 57, 0
5, 10740, Note_on_c, 3, 69, 0
5, 10740, Note_on_c, 3, 73, 0
5, 10740, Note_on_c, 3, 57, 100
5, 10740, Note_on_c, 3, 81, 100
5, 10740, Note_on_c, 3, 76, 100
5, 10740, Note_on_c, 3, 73, 100
5, 10740, Note_on_c, 3, 69, 100
5, 10740, Note_on_c, 3, 64, 100
5, 10800, Note_on_c, 3, 64, 0
5, 10800, Note_on_c, 3, 81, 0
5, 10800, Note_on_c, 3, 76, 0
5, 10800, Note_on_c, 3, 57, 0
5, 10800, Note_on_c, 3, 69, 0
5, 10800, Note_on_c, 3, 73, 0
5, 10860, Note_on_c, 3, 55, 100
5, 10860, Note_on_c, 3, 79, 100
5, 10860, Note_on_c, 3, 74, 100
5, 10860, Note_on_c, 3, 71, 100
5, 10860, Note_on_c, 3, 67, 100
5, 10860, Note_on_c, 3, 62, 100
5, 10920, Note_on_c, 3, 62, 0
5, 10920, Note_on_c, 3, 79, 0
5, 10920, Note_on_c, 3, 74, 0
5, 10920, Note_on_c, 3, 55, 0
5, 10920, Note_on_c, 3, 67, 0
5, 10920, Note_on_c, 3, 71, 0
5, 10920, Note_on_c, 3, 55, 100
5, 10920, Note_on_c, 3, 79, 100
5, 10920, Note_on_c, 3, 74, 100
5, 10920, Note_on_c, 3, 71, 100
5, 10920, Note_on_c, 3, 67, 100
5, 10920, Note_on_c, 3, 62, 100
5, 10980, Note_on_c, 3, 62, 0
5, 10980, Note_on_c, 3, 79, 0
5, 10980, Note_on_c, 3, 74, 0
5, 10980, Note_on_c, 3, 55, 0
5, 10980, Note_on_c, 3, 67, 0
5, 10980, Note_on_c, 3, 71, 0
5, 10980, Note_on_c, 3, 55, 100
5, 10980, Note_on_c, 3, 79, 100
5, 10980, Note_on_c, 3, 74, 100
5, 10980, Note_on_c, 3, 71, 100
5, 10980, Note_on_c, 3, 67, 100
5, 10980, Note_on_c, 3, 62, 100
5, 11040, Note_on_c, 3, 62, 0
5, 11040, Note_on_c, 3, 79, 0
5, 11040, Note_on_c, 3, 74, 0
5, 11040, Note_on_c, 3, 55, 0
5, 11040, Note_on_c, 3, 67, 0
5, 11040, Note_on_c, 3, 71, 0
5, 11040, Note_on_c, 3, 57, 100
5, 11040, Note_on_c, 3, 81, 100
5, 11040, Note_on_c, 3, 76, 100
5, 11040, Note_on_c, 3, 73, 100
5, 11040, Note_on_c, 3, 69, 100
5, 11040, Note_on_c, 3, 64, 100
5, 11100, Note_on_c, 3, 64, 0
5, 11100, Note_on_c, 3, 81, 0
5, 11100, Note_on_c, 3, 76, 0
5, 11100, Note_on_c, 3, 57, 0
5, 11100, Note_on_c, 3, 69, 0
5, 11100, Note_on_c, 3, 73, 0
5, 11100, Note_on_c, 3, 57, 100
5, 11100, Note_on_c, 3, 81, 100
5, 11100, Note_on_c, 3, 76, 100
5, 11100, Note_on_c, 3, 73, 100
5, 11100, Note_on_c, 3, 69, 100
5, 11100, Note_on_c, 3, 64, 100
5, 11160, Note_on_c, 3, 64, 0
5, 11160, Note_on_c, 3, 81, 0
5, 11160, Note_on_c, 3, 76, 0
5, 11160, Note_on_c, 3, 57, 0
5, 11160, Note_on_c, 3, 69, 0
5, 11160, Note_on_c, 3, 73, 0
5, 11160, Note_on_c, 3, 57, 100
5, 11160, Note_on_c, 3, 81, 100
5, 11160, Note_on_c, 3, 76, 100
5, 11160, Note_on_c, 3, 73, 100
5, 11160, Note_on_c, 3, 69, 100
5, 11160, Note_on_c, 3, 64, 100
5, 11220, Note_on_c, 3, 64, 0
5, 11220, Note_on_c, 3, 81, 0
5, 11220, Note_on_c, 3, 76, 0
5, 11220, Note_on_c, 3, 57, 0
5, 11220, Note_on_c, 3, 69, 0
5, 11220, Note_on_c, 3, 73, 0
5, 11220, Note_on_c, 3, 57, 100
5, 11220, Note_on_c, 3, 81, 100
5, 11220, Note_on_c, 3, 76, 100
5, 11220, Note_on_c, 3, 73, 100
5, 11220, Note_on_c, 3, 69, 100
5, 11220, Note_on_c, 3, 64, 100
5, 11280, Note_on_c, 3, 64, 0
5, 11280, Note_on_c, 3, 81, 0
5, 11280, Note_on_c, 3, 76, 0
5, 11280, Note_on_c, 3, 57, 0
5, 11280, Note_on_c, 3, 69, 0
5, 11280, Note_on_c, 3, 73, 0
5, 11340, Note_on_c, 3, 55, 100
5, 11340, Note_on_c, 3, 79, 100
5, 11340, Note_on_c, 3, 74, 100
5, 11340, Note_on_c, 3, 71, 100
5, 11340, Note_on_c, 3, 67, 100
5, 11340, Note_on_c, 3, 62, 100
5, 11400, Note_on_c, 3, 62, 0
5, 11400, Note_on_c, 3, 79, 0
5, 11400, Note_on_c, 3, 74, 0
5, 11400, Note_on_c, 3, 55, 0
5, 11400, Note_on_c, 3, 67, 0
5, 11400, Note_on_c, 3, 71, 0
5, 11400, Note_on_c, 3, 55, 100
5, 11400, Note_on_c, 3, 79, 100
5, 11400, Note_on_c, 3, 74, 100
5, 11400, Note_on_c, 3, 71, 100
5, 11400, Note_on_c, 3, 67, 100
5, 11400, Note_on_c, 3, 62, 100
5, 11460, Note_on_c, 3, 62, 0
5, 11460, Note_on_c, 3, 79, 0
5, 11460, Note_on_c, 3, 74, 0
5, 11460, Note_on_c, 3, 55, 0
5, 11460, Note_on_c, 3, 67, 0
5, 11460, Note_on_c, 3, 71, 0
5, 11460, Note_on_c, 3, 55, 100
5, 11460, Note_on_c, 3, 79, 100
5, 11460, Note_on_c, 3, 74, 100
5, 11460, Note_on_c, 3, 71, 100
5, 11460, Note_on_c, 3, 67, 100
5, 11460, Note_on_c, 3, 62, 100
5, 11520, Note_on_c, 3, 62, 0
5, 11520, Note_on_c, 3, 79, 0
5, 11520, Note_on_c, 3, 74, 0
5, 11520, Note_on_c, 3, 55, 0
5, 11520, Note_on_c, 3, 67, 0
5, 11520, Note_on_c, 3, 71, 0
5, 11520, Note_on_c, 3, 57, 100
5, 11520, Note_on_c, 3, 81, 100
5, 11520, Note_on_c, 3, 76, 100
5, 11520, Note_on_c, 3, 73, 100
5, 11520, Note_on_c, 3, 69, 100
5, 11520, Note_on_c, 3, 64, 100
5, 11580, Note_on_c, 3, 64, 0
5, 11580, Note_on_c, 3, 81, 0
5, 11580, Note_on_c, 3, 76, 0
5, 11580, Note_on_c, 3, 57, 0
5, 11580, Note_on_c, 3, 69, 0
5, 11580, Note_on_c, 3, 73, 0
5, 11580, Note_on_c, 3, 57, 100
5, 11580, Note_on_c, 3, 81, 100
5, 11580, Note_on_c, 3, 76, 100
5, 11580, Note_on_c, 3, 73, 100
5, 11580, Note_on_c, 3, 69, 100
5, 11580, Note_on_c, 3, 64, 100
5, 11640, Note_on_c, 3, 64, 0
5, 11640, Note_on_c, 3, 81, 0
5, 11640, Note_on_c, 3, 76, 0
5, 11640, Note_on_c, 3, 57, 0
5, 11640, Note_on_c, 3, 69, 0
5, 11640, Note_on_c, 3, 73, 0
5, 11640, Note_on_c, 3, 57, 100
5, 11640, Note_on_c, 3, 81, 100
5, 11640, Note_on_c, 3, 76, 100
5, 11640, Note_on_c, 3, 73, 100
5, 11640, Note_on_c, 3, 69, 100
5, 11640, Note_on_c, 3, 64, 100
5, 11700, Note_on_c, 3, 64, 0
5, 11700, Note_on_c, 3, 81, 0
5, 11700, Note_on_c, 3, 76, 0
5, 11700, Note_on_c, 3, 57, 0
5, 11700, Note_on_c, 3, 69, 0
5, 11700, Note_on_c, 3, 73, 0
5, 11700, Note_on_c, 3, 57, 100
5, 11700, Note_on_c, 3, 81, 100
5, 11700, Note_on_c, 3, 76, 100
5, 11700, Note_on_c, 3, 73, 100
5, 11700, Note_on_c, 3, 69, 100
5, 11700, Note_on_c, 3, 64, 100
5, 11760, Note_on_c, 3, 64, 0
5, 11760, Note_on_c, 3, 81, 0
5, 11760, Note_on_c, 3, 76, 0
5, 11760, Note_on_c, 3, 57, 0
5, 11760, Note_on_c, 3, 69, 0
5, 11760, Note_on_c, 3, 73, 0
5, 11820, Note_on_c, 3, 55, 100
5, 11820, Note_on_c, 3, 79, 100
5, 11820, Note_on_c, 3, 74, 100
5, 11820, Note_on_c, 3, 71, 100
5, 11820, Note_on_c, 3, 67, 100
5, 11820, Note_on_c, 3, 62, 100
5, 11880, Note_on_c, 3, 62, 0
5, 11880, Note_on_c, 3, 79, 0
5, 11880, Note_on_c, 3, 74, 0
5, 11880, Note_on_c, 3, 55, 0
5, 11880, Note_on_c, 3, 67, 0
5, 11880, Note_on_c, 3, 71, 0
5, 11880, Note_on_c, 3, 55, 100
5, 11880, Note_on_c, 3, 79, 100
5, 11880, Note_on_c, 3, 74, 100
5, 11880, Note_on_c, 3, 71, 100
5, 11880, Note_on_c, 3, 67, 100
5, 11880, Note_on_c, 3, 62, 100
5, 11940, Note_on_c, 3, 62, 0
5, 11940, Note_on_c, 3, 79, 0
5, 11940, Note_on_c, 3, 74, 0
5, 11940, Note_on_c, 3, 55, 0
5, 11940, Note_on_c, 3, 67, 0
5, 11940, Note_on_c, 3, 71, 0
5, 11940, Note_on_c, 3, 55, 100
5, 11940, Note_on_c, 3, 79, 100
5, 11940, Note_on_c, 3, 74, 100
5, 11940, Note_on_c, 3, 71, 100
5, 11940, Note_on_c, 3, 67, 100
5, 11940, Note_on_c, 3, 62, 100
5, 12000, Note_on_c, 3, 62, 0
5, 12000, Note_on_c, 3, 79, 0
5, 12000, Note_on_c, 3, 74, 0
5, 12000, Note_on_c, 3, 55, 0
5, 12000, Note_on_c, 3, 67, 0
5, 12000, Note_on_c, 3, 71, 0
5, 12000, Note_on_c, 3, 57, 100
5, 12000, Note_on_c, 3, 81, 100
5, 12000, Note_on_c, 3, 76, 100
5, 12000, Note_on_c, 3, 73, 100
5, 12000, Note_on_c, 3, 69, 100
5, 12000, Note_on_c, 3, 64, 100
5, 12060, Note_on_c, 3, 64, 0
5, 12060, Note_on_c, 3, 81, 0
5, 12060, Note_on_c, 3, 76, 0
5, 12060, Note_on_c, 3, 57, 0
5, 12060, Note_on_c, 3, 69, 0
5, 12060, Note_on_c, 3, 73, 0
5, 12060, Note_on_c, 3, 57, 100
5, 12060, Note_on_c, 3, 81, 100
5, 12060, Note_on_c, 3, 76, 100
5, 12060, Note_on_c, 3, 73, 100
5, 12060, Note_on_c, 3, 69, 100
5, 12060, Note_on_c, 3, 64, 100
5, 12120, Note_on_c, 3, 64, 0
5, 12120, Note_on_c, 3, 81, 0
5, 12120, Note_on_c, 3, 76, 0
5, 12120, Note_on_c, 3, 57, 0
5, 12120, Note_on_c, 3, 69, 0
5, 12120, Note_on_c, 3, 73, 0
5, 12120, Note_on_c, 3, 57, 100
5, 12120, Note_on_c, 3, 81, 100
5, 12120, Note_on_c, 3, 76, 100
5, 12120, Note_on_c, 3, 73, 100
5, 12120, Note_on_c, 3, 69, 100
5, 12120, Note_on_c, 3, 64, 100
5, 12180, Note_on_c, 3, 64, 0
5, 12180, Note_on_c, 3, 81, 0
5, 12180, Note_on_c, 3, 76, 0
5, 12180, Note_on_c, 3, 57, 0
5, 12180, Note_on_c, 3, 69, 0
5, 12180, Note_on_c, 3, 73, 0
5, 12180, Note_on_c, 3, 57, 100
5, 12180, Note_on_c, 3, 81, 100
5, 12180, Note_on_c, 3, 76, 100
5, 12180, Note_on_c, 3, 73, 100
5, 12180, Note_on_c, 3, 69, 100
5, 12180, Note_on_c, 3, 64, 100
5, 12240, Note_on_c, 3, 64, 0
5, 12240, Note_on_c, 3, 81, 0
5, 12240, Note_on_c, 3, 76, 0
5, 12240, Note_on_c, 3, 57, 0
5, 12240, Note_on_c, 3, 69, 0
5, 12240, Note_on_c, 3, 73, 0
5, 12300, Note_on_c, 3, 55, 100
5, 12300, Note_on_c, 3, 79, 100
5, 12300, Note_on_c, 3, 74, 100
5, 12300, Note_on_c, 3, 71, 100
5, 12300, Note_on_c, 3, 67, 100
5, 12300, Note_on_c, 3, 62, 100
5, 12360, Note_on_c, 3, 62, 0
5, 12360, Note_on_c, 3, 79, 0
5, 12360, Note_on_c, 3, 74, 0
5, 12360, Note_on_c, 3, 55, 0
5, 12360, Note_on_c, 3, 67, 0
5, 12360, Note_on_c, 3, 71, 0
5, 12360, Note_on_c, 3, 55, 100
5, 12360, Note_on_c, 3, 79, 100
5, 12360, Note_on_c, 3, 74, 100
5, 12360, Note_on_c, 3, 71, 100
5, 12360, Note_on_c, 3, 67, 100
5, 12360, Note_on_c, 3, 62, 100
5, 12420, Note_on_c, 3, 62, 0
5, 12420, Note_on_c, 3, 79, 0
5, 12420, Note_on_c, 3, 74, 0
5, 12420, Note_on_c, 3, 55, 0
5, 12420, Note_on_c, 3, 67, 0
5, 12420, Note_on_c, 3, 71, 0
5, 12420, Note_on_c, 3, 55, 100
5, 12420, Note_on_c, 3, 79, 100
5, 12420, Note_on_c, 3, 74, 100
5, 12420, Note_on_c, 3, 71, 100
5, 12420, Note_on_c, 3, 67, 100
5, 12420, Note_on_c, 3, 62, 100
5, 12480, Note_on_c, 3, 62, 0
5, 12480, Note_on_c, 3, 79, 0
5, 12480, Note_on_c, 3, 74, 0
5, 12480, Note_on_c, 3, 55, 0
5, 12480, Note_on_c, 3, 67, 0
5, 12480, Note_on_c, 3, 71, 0
5, 12600, Note_on_c, 3, 78, 100
5, 12600, Note_on_c, 3, 74, 100
5, 12600, Note_on_c, 3, 71, 100
5, 12600, Note_on_c, 3, 66, 100
5, 12600, Note_on_c, 3, 59, 100
5, 12600, Note_on_c, 3, 54, 100
5, 12720, Note_on_c, 3, 54, 0
5, 12720, Note_on_c, 3, 74, 0
5, 12720, Note_on_c, 3, 71, 0
5, 12720, Note_on_c, 3, 78, 0
5, 12720, Note_on_c, 3, 59, 0
5, 12720, Note_on_c, 3, 66, 0
5, 12720, Note_on_c, 3, 78, 100
5, 12720, Note_on_c, 3, 74, 100
5, 12720, Note_on_c, 3, 71, 100
5, 12720, Note_on_c, 3, 66, 100
5, 12720, Note_on_c, 3, 59, 100
5, 12720, Note_on_c, 3, 54, 100
5, 12840, Note_on_c, 3, 54, 0
5, 12840, Note_on_c, 3, 74, 0
5, 12840, Note_on_c, 3, 71, 0
5, 12840, Note_on_c, 3, 78, 0
5, 12840, Note_on_c, 3, 59, 0
5, 12840, Note_on_c, 3, 66, 0
5, 12840, Note_on_c, 3, 78, 100
5, 12840, Note_on_c, 3, 74, 100
5, 12840, Note_on_c, 3, 71, 100
5, 12840, Note_on_c, 3, 66, 100
5, 12840, Note_on_c, 3, 59, 100
5, 12840, Note_on_c, 3, 54, 100
5, 12960, Note_on_c, 3, 54, 0
5, 12960, Note_on_c, 3, 74, 0
5, 12960, Note_on_c, 3, 71, 0
5, 12960, Note_on_c, 3, 78, 0
5, 12960, Note_on_c, 3, 59, 0
5, 12960, Note_on_c, 3, 66, 0
5, 12960, Note_on_c, 3, 78, 100
5, 12960, Note_on_c, 3, 73, 100
5, 12960, Note_on_c, 3, 70, 100
5, 12960, Note_on_c, 3, 66, 100
5, 12960, Note_on_c, 3, 61, 100
5, 12960, Note_on_c, 3, 54, 100
5, 13020, Note_on_c, 3, 54, 0
5, 13020, Note_on_c, 3, 73, 0
5, 13020, Note_on_c, 3, 70, 0
5, 13020, Note_on_c, 3, 78, 0
5, 13020, Note_on_c, 3, 61, 0
5, 13020, Note_on_c, 3, 66, 0
5, 13020, Note_on_c, 3, 78, 100
5, 13020, Note_on_c, 3, 73, 100
5, 13020, Note_on_c, 3, 70, 100
5, 13020, Note_on_c, 3, 66, 100
5, 13020, Note_on_c, 3, 61, 100
5, 13020, Note_on_c, 3, 54, 100
5, 13080, Note_on_c, 3, 70, 0
5, 13140, Note_on_c, 3, 73, 0
5, 13140, Note_on_c, 3, 66, 0
5, 13140, Note_on_c, 3, 78, 0
5, 13140, Note_on_c, 3, 54, 0
5, 13140, Note_on_c, 3, 61, 0
5, 13140, Note_on_c, 3, 78, 100
5, 13140, Note_on_c, 3, 73, 100
5, 13140, Note_on_c, 3, 70, 100
5, 13140, Note_on_c, 3, 66, 100
5, 13140, Note_on_c, 3, 61, 100
5, 13140, Note_on_c, 3, 54, 100
5, 13200, Note_on_c, 3, 70, 0
5, 13440, Note_on_c, 3, 73, 0
5, 13440, Note_on_c, 3, 66, 0
5, 13440, Note_on_c, 3, 78, 0
5, 13440, Note_on_c, 3, 54, 0
5, 13440, Note_on_c, 3, 61, 0
5, 13440, Note_on_c, 3, 79, 100
5, 13440, Note_on_c, 3, 74, 100
5, 13440, Note_on_c, 3, 67, 100
5, 13440, Note_on_c, 3, 59, 100
5, 13440, Note_on_c, 3, 62, 100
5, 13440, Note_on_c, 3, 55, 100
5, 13560, Note_on_c, 3, 55, 0
5, 13560, Note_on_c, 3, 74, 0
5, 13560, Note_on_c, 3, 67, 0
5, 13560, Note_on_c, 3, 79, 0
5, 13560, Note_on_c, 3, 62, 0
5, 13560, Note_on_c, 3, 59, 0
5, 13560, Note_on_c, 3, 79, 100
5, 13560, Note_on_c, 3, 74, 100
5, 13560, Note_on_c, 3, 67, 100
5, 13560, Note_on_c, 3, 62, 100
5, 13560, Note_on_c, 3, 59, 100
5, 13560, Note_on_c, 3, 55, 100
5, 13680, Note_on_c, 3, 55, 0
5, 13680, Note_on_c, 3, 74, 0
5, 13680, Note_on_c, 3, 67, 0
5, 13680, Note_on_c, 3, 79, 0
5, 13680, Note_on_c, 3, 59, 0
5, 13680, Note_on_c, 3, 62, 0
5, 13680, Note_on_c, 3, 79, 100
5, 13680, Note_on_c, 3, 74, 100
5, 13680, Note_on_c, 3, 67, 100
5, 13680, Note_on_c, 3, 62, 100
5, 13680, Note_on_c, 3, 59, 100
5, 13680, Note_on_c, 3, 55, 100
5, 13800, Note_on_c, 3, 55, 0
5, 13800, Note_on_c, 3, 74, 0
5, 13800, Note_on_c, 3, 67, 0
5, 13800, Note_on_c, 3, 79, 0
5, 13800, Note_on_c, 3, 59, 0
5, 13800, Note_on_c, 3, 62, 0
5, 13800, Note_on_c, 3, 79, 100
5, 13800, Note_on_c, 3, 74, 100
5, 13800, Note_on_c, 3, 67, 100
5, 13800, Note_on_c, 3, 62, 100
5, 13800, Note_on_c, 3, 59, 100
5, 13800, Note_on_c, 3, 55, 100
5, 13920, Note_on_c, 3, 55, 0
5, 13920, Note_on_c, 3, 74, 0
5, 13920, Note_on_c, 3, 67, 0
5, 13920, Note_on_c, 3, 79, 0
5, 13920, Note_on_c, 3, 59, 0
5, 13920, Note_on_c, 3, 62, 0
5, 13920, Note_on_c, 3, 77, 100
5, 13920, Note_on_c, 3, 72, 100
5, 13920, Note_on_c, 3, 69, 100
5, 13920, Note_on_c, 3, 65, 100
5, 13920, Note_on_c, 3, 60, 100
5, 13920, Note_on_c, 3, 53, 100
5, 14160, Note_on_c, 3, 53, 0
5, 14160, Note_on_c, 3, 72, 0
5, 14160, Note_on_c, 3, 69, 0
5, 14160, Note_on_c, 3, 77, 0
5, 14160, Note_on_c, 3, 60, 0
5, 14160, Note_on_c, 3, 65, 0
5, 14160, Note_on_c, 3, 77, 100
5, 14160, Note_on_c, 3, 72, 100
5, 14160, Note_on_c, 3, 69, 100
5, 14160, Note_on_c, 3, 65, 100
5, 14160, Note_on_c, 3, 60, 100
5, 14160, Note_on_c, 3, 53, 100
5, 14280, Note_on_c, 3, 53, 0
5, 14280, Note_on_c, 3, 72, 0
5, 14280, Note_on_c, 3, 69, 0
5, 14280, Note_on_c, 3, 77, 0
5, 14280, Note_on_c, 3, 60, 0
5, 14280, Note_on_c, 3, 65, 0
5, 14280, Note_on_c, 3, 77, 100
5, 14280, Note_on_c, 3, 72, 100
5, 14280, Note_on_c, 3, 69, 100
5, 14280, Note_on_c, 3, 65, 100
5, 14280, Note_on_c, 3, 60, 100
5, 14280, Note_on_c, 3, 53, 100
5, 14400, Note_on_c, 3, 53, 0
5, 14400, Note_on_c, 3, 72, 0
5, 14400, Note_on_c, 3, 69, 0
5, 14400, Note_on_c, 3, 77, 0
5, 14400, Note_on_c, 3, 60, 0
5, 14400, Note_on_c, 3, 65, 0
5, 14400, Note_on_c, 3, 74, 100
5, 14400, Note_on_c, 3, 71, 100
5, 14400, Note_on_c, 3, 66, 100
5, 14400, Note_on_c, 3, 59, 100
5, 14400, Note_on_c, 3, 54, 100
5, 14400, Note_on_c, 3, 78, 100
5, 14520, Note_on_c, 3, 78, 0
5, 14520, Note_on_c, 3, 71, 0
5, 14520, Note_on_c, 3, 66, 0
5, 14520, Note_on_c, 3, 74, 0
5, 14520, Note_on_c, 3, 54, 0
5, 14520, Note_on_c, 3, 59, 0
5, 14520, Note_on_c, 3, 74, 100
5, 14520, Note_on_c, 3, 71, 100
5, 14520, Note_on_c, 3, 66, 100
5, 14520, Note_on_c, 3, 59, 100
5, 14520, Note_on_c, 3, 54, 100
5, 14520, Note_on_c, 3, 78, 100
5, 14640, Note_on_c, 3, 78, 0
5, 14640, Note_on_c, 3, 71, 0
5, 14640, Note_on_c, 3, 66, 0
5, 14640, Note_on_c, 3, 74, 0
5, 14640, Note_on_c, 3, 54, 0
5, 14640, Note_on_c, 3, 59, 0
5, 14640, Note_on_c, 3, 78, 100
5, 14640, Note_on_c, 3, 66, 100
5, 14640, Note_on_c, 3, 59, 100
5, 14640, Note_on_c, 3, 54, 100
5, 14640, Note_on_c, 3, 74, 100
5, 14640, Note_on_c, 3, 71, 100
5, 14760, Note_on_c, 3, 71, 0
5, 14760, Note_on_c, 3, 66, 0
5, 14760, Note_on_c, 3, 59, 0
5, 14760, Note_on_c, 3, 78, 0
5, 14760, Note_on_c, 3, 74, 0
5, 14760, Note_on_c, 3, 54, 0
5, 14760, Note_on_c, 3, 71, 100
5, 14760, Note_on_c, 3, 78, 100
5, 14760, Note_on_c, 3, 74, 100
5, 14760, Note_on_c, 3, 59, 100
5, 14760, Note_on_c, 3, 54, 100
5, 14760, Note_on_c, 3, 66, 100
5, 14880, Note_on_c, 3, 66, 0
5, 14880, Note_on_c, 3, 78, 0
5, 14880, Note_on_c, 3, 74, 0
5, 14880, Note_on_c, 3, 71, 0
5, 14880, Note_on_c, 3, 54, 0
5, 14880, Note_on_c, 3, 59, 0
5, 14880, Note_on_c, 3, 78, 100
5, 14880, Note_on_c, 3, 70, 100
5, 14880, Note_on_c, 3, 66, 100
5, 14880, Note_on_c, 3, 73, 100
5, 14880, Note_on_c, 3, 54, 100
5, 14880, Note_on_c, 3, 61, 100
5, 14940, Note_on_c, 3, 61, 0
5, 14940, Note_on_c, 3, 70, 0
5, 14940, Note_on_c, 3, 66, 0
5, 14940, Note_on_c, 3, 78, 0
5, 14940, Note_on_c, 3, 54, 0
5, 14940, Note_on_c, 3, 73, 0
5, 14940, Note_on_c, 3, 73, 100
5, 14940, Note_on_c, 3, 70, 100
5, 14940, Note_on_c, 3, 61, 100
5, 14940, Note_on_c, 3, 54, 100
5, 14940, Note_on_c, 3, 66, 100
5, 14940, Note_on_c, 3, 78, 100
5, 15000, Note_on_c, 3, 70, 0
5, 15060, Note_on_c, 3, 61, 0
5, 15060, Note_on_c, 3, 54, 0
5, 15060, Note_on_c, 3, 73, 0
5, 15060, Note_on_c, 3, 78, 0
5, 15060, Note_on_c, 3, 66, 0
5, 15060, Note_on_c, 3, 78, 100
5, 15060, Note_on_c, 3, 73, 100
5, 15060, Note_on_c, 3, 70, 100
5, 15060, Note_on_c, 3, 66, 100
5, 15060, Note_on_c, 3, 61, 100
5, 15060, Note_on_c, 3, 54, 100
5, 15120, Note_on_c, 3, 70, 0
5, 15360, Note_on_c, 3, 73, 0
5, 15360, Note_on_c, 3, 66, 0
5, 15360, Note_on_c, 3, 78, 0
5, 15360, Note_on_c, 3, 54, 0
5, 15360, Note_on_c, 3, 61, 0
5, 15360, Note_on_c, 3, 79, 100
5, 15360, Note_on_c, 3, 74, 100
5, 15360, Note_on_c, 3, 67, 100
5, 15360, Note_on_c, 3, 59, 100
5, 15360, Note_on_c, 3, 62, 100
5, 15360, Note_on_c, 3, 55, 100
5, 15480, Note_on_c, 3, 55, 0
5, 15480, Note_on_c, 3, 74, 0
5, 15480, Note_on_c, 3, 67, 0
5, 15480, Note_on_c, 3, 79, 0
5, 15480, Note_on_c, 3, 62, 0
5, 15480, Note_on_c, 3, 59, 0
5, 15480, Note_on_c, 3, 79, 100
5, 15480, Note_on_c, 3, 74, 100
5, 15480, Note_on_c, 3, 67, 100
5, 15480, Note_on_c, 3, 62, 100
5, 15480, Note_on_c, 3, 59, 100
5, 15480, Note_on_c, 3, 55, 100
5, 15600, Note_on_c, 3, 55, 0
5, 15600, Note_on_c, 3, 74, 0
5, 15600, Note_on_c, 3, 67, 0
5, 15600, Note_on_c, 3, 79, 0
5, 15600, Note_on_c, 3, 59, 0
5, 15600, Note_on_c, 3, 62, 0
5, 15600, Note_on_c, 3, 79, 100
5, 15600, Note_on_c, 3, 74, 100
5, 15600, Note_on_c, 3, 67, 100
5, 15600, Note_on_c, 3, 62, 100
5, 15600, Note_on_c, 3, 59, 100
5, 15600, Note_on_c, 3, 55, 100
5, 15720, Note_on_c, 3, 55, 0
5, 15720, Note_on_c, 3, 74, 0
5, 15720, Note_on_c, 3, 67, 0
5, 15720, Note_on_c, 3, 79, 0
5, 15720, Note_on_c, 3, 59, 0
5, 15720, Note_on_c, 3, 62, 0
5, 15720, Note_on_c, 3, 79, 100
5, 15720, Note_on_c, 3, 74, 100
5, 15720, Note_on_c, 3, 67, 100
5, 15720, Note_on_c, 3, 62, 100
5, 15720, Note_on_c, 3, 59, 100
5, 15720, Note_on_c, 3, 55, 100
5, 15840, Note_on_c, 3, 55, 0
5, 15840, Note_on_c, 3, 74, 0
5, 15840, Note_on_c, 3, 67, 0
5, 15840, Note_on_c, 3, 79, 0
5, 15840, Note_on_c, 3, 59, 0
5, 15840, Note_on_c, 3, 62, 0
5, 15840, Note_on_c, 3, 77, 100
5, 15840, Note_on_c, 3, 72, 100
5, 15840, Note_on_c, 3, 69, 100
5, 15840, Note_on_c, 3, 65, 100
5, 15840, Note_on_c, 3, 60, 100
5, 15840, Note_on_c, 3, 53, 100
5, 16080, Note_on_c, 3, 53, 0
5, 16080, Note_on_c, 3, 72, 0
5, 16080, Note_on_c, 3, 69, 0
5, 16080, Note_on_c, 3, 77, 0
5, 16080, Note_on_c, 3, 60, 0
5, 16080, Note_on_c, 3, 65, 0
5, 16080, Note_on_c, 3, 77, 100
5, 16080, Note_on_c, 3, 72, 100
5, 16080, Note_on_c, 3, 69, 100
5, 16080, Note_on_c, 3, 65, 100
5, 16080, Note_on_c, 3, 60, 100
5, 16080, Note_on_c, 3, 53, 100
5, 16200, Note_on_c, 3, 53, 0
5, 16200, Note_on_c, 3, 72, 0
5, 16200, Note_on_c, 3, 69, 0
5, 16200, Note_on_c, 3, 77, 0
5, 16200, Note_on_c, 3, 60, 0
5, 16200, Note_on_c, 3, 65, 0
5, 16200, Note_on_c, 3, 77, 100
5, 16200, Note_on_c, 3, 72, 100
5, 16200, Note_on_c, 3, 69, 100
5, 16200, Note_on_c, 3, 65, 100
5, 16200, Note_on_c, 3, 60, 100
5, 16200, Note_on_c, 3, 53, 100
5, 16320, Note_on_c, 3, 53, 0
5, 16320, Note_on_c, 3, 72, 0
5, 16320, Note_on_c, 3, 69, 0
5, 16320, Note_on_c, 3, 77, 0
5, 16320, Note_on_c, 3, 60, 0
5, 16320, Note_on_c, 3, 65, 0
5, 16380, Note_on_c, 3, 78, 100
5, 16380, Note_on_c, 3, 74, 100
5, 16380, Note_on_c, 3, 71, 100
5, 16380, Note_on_c, 3, 66, 100
5, 16380, Note_on_c, 3, 59, 100
5, 16380, Note_on_c, 3, 54, 100
5, 16440, Note_on_c, 3, 54, 0
5, 16440, Note_on_c, 3, 74, 0
5, 16440, Note_on_c, 3, 71, 0
5, 16440, Note_on_c, 3, 78, 0
5, 16440, Note_on_c, 3, 59, 0
5, 16440, Note_on_c, 3, 66, 0
5, 16440, Note_on_c, 3, 78, 100
5, 16440, Note_on_c, 3, 74, 100
5, 16440, Note_on_c, 3, 71, 100
5, 16440, Note_on_c, 3, 66, 100
5, 16440, Note_on_c, 3, 59, 100
5, 16440, Note_on_c, 3, 54, 100
5, 16500, Note_on_c, 3, 54, 0
5, 16500, Note_on_c, 3, 74, 0
5, 16500, Note_on_c, 3, 71, 0
5, 16500, Note_on_c, 3, 78, 0
5, 16500, Note_on_c, 3, 59, 0
5, 16500, Note_on_c, 3, 66, 0
5, 16500, Note_on_c, 3, 78, 100
5, 16500, Note_on_c, 3, 74, 100
5, 16500, Note_on_c, 3, 71, 100
5, 16500, Note_on_c, 3, 66, 100
5, 16500, Note_on_c, 3, 59, 100
5, 16500, Note_on_c, 3, 54, 100
5, 16560, Note_on_c, 3, 54, 0
5, 16560, Note_on_c, 3, 74, 0
5, 16560, Note_on_c, 3, 71, 0
5, 16560, Note_on_c, 3, 78, 0
5, 16560, Note_on_c, 3, 59, 0
5, 16560, Note_on_c, 3, 66, 0
5, 16620, Note_on_c, 3, 78, 100
5, 16620, Note_on_c, 3, 73, 100
5, 16620, Note_on_c, 3, 70, 100
5, 16620, Note_on_c, 3, 66, 100
5, 16620, Note_on_c, 3, 61, 100
5, 16620, Note_on_c, 3, 54, 100
5, 16680, Note_on_c, 3, 54, 0
5, 16680, Note_on_c, 3, 73, 0
5, 16680, Note_on_c, 3, 70, 0
5, 16680, Note_on_c, 3, 78, 0
5, 16680, Note_on_c, 3, 61, 0
5, 16680, Note_on_c, 3, 66, 0
5, 16680, Note_on_c, 3, 78, 100
5, 16680, Note_on_c, 3, 73, 100
5, 16680, Note_on_c, 3, 70, 100
5, 16680, Note_on_c, 3, 66, 100
5, 16680, Note_on_c, 3, 61, 100
5, 16680, Note_on_c, 3, 54, 100
5, 16740, Note_on_c, 3, 54, 0
5, 16740, Note_on_c, 3, 73, 0
5, 16740, Note_on_c, 3, 70, 0
5, 16740, Note_on_c, 3, 78, 0
5, 16740, Note_on_c, 3, 61, 0
5, 16740, Note_on_c, 3, 66, 0
5, 16740, Note_on_c, 3, 78, 100
5, 16740, Note_on_c, 3, 73, 100
5, 16740, Note_on_c, 3, 70, 100
5, 16740, Note_on_c, 3, 66, 100
5, 16740, Note_on_c, 3, 61, 100
5, 16740, Note_on_c, 3, 54, 100
5, 16800, Note_on_c, 3, 54, 0
5, 16800, Note_on_c, 3, 73, 0
5, 16800, Note_on_c, 3, 70, 0
5, 16800, Note_on_c, 3, 78, 0
5, 16800, Note_on_c, 3, 61, 0
5, 16800, Note_on_c, 3, 66, 0
5, 16800, Note_on_c, 3, 57, 100
5, 16800, Note_on_c, 3, 81, 100
5, 16800, Note_on_c, 3, 76, 100
5, 16800, Note_on_c, 3, 73, 100
5, 16800, Note_on_c, 3, 69, 100
5, 16800, Note_on_c, 3, 64, 100
5, 16860, Note_on_c, 3, 64, 0
5, 16860, Note_on_c, 3, 81, 0
5, 16860, Note_on_c, 3, 76, 0
5, 16860, Note_on_c, 3, 57, 0
5, 16860, Note_on_c, 3, 69, 0
5, 16860, Note_on_c, 3, 73, 0
5, 16860, Note_on_c, 3, 57, 100
5, 16860, Note_on_c, 3, 81, 100
5, 16860, Note_on_c, 3, 76, 100
5, 16860, Note_on_c, 3, 73, 100
5, 16860, Note_on_c, 3, 69, 100
5, 16860, Note_on_c, 3, 64, 100
5, 16920, Note_on_c, 3, 64, 0
5, 16920, Note_on_c, 3, 81, 0
5, 16920, Note_on_c, 3, 76, 0
5, 16920, Note_on_c, 3, 57, 0
5, 16920, Note_on_c, 3, 69, 0
5, 16920, Note_on_c, 3, 73, 0
5, 16920, Note_on_c, 3, 57, 100
5, 16920, Note_on_c, 3, 81, 100
5, 16920, Note_on_c, 3, 76, 100
5, 16920, Note_on_c, 3, 73, 100
5, 16920, Note_on_c, 3, 69, 100
5, 16920, Note_on_c, 3, 64, 100
5, 16980, Note_on_c, 3, 64, 0
5, 16980, Note_on_c, 3, 81, 0
5, 16980, Note_on_c, 3, 76, 0
5, 16980, Note_on_c, 3, 57, 0
5, 16980, Note_on_c, 3, 69, 0
5, 16980, Note_on_c, 3, 73, 0
5, 16980, Note_on_c, 3, 57, 100
5, 16980, Note_on_c, 3, 81, 100
5, 16980, Note_on_c, 3, 76, 100
5, 16980, Note_on_c, 3, 73, 100
5, 16980, Note_on_c, 3, 69, 100
5, 16980, Note_on_c, 3, 64, 100
5, 17040, Note_on_c, 3, 64, 0
5, 17040, Note_on_c, 3, 81, 0
5, 17040, Note_on_c, 3, 76, 0
5, 17040, Note_on_c, 3, 57, 0
5, 17040, Note_on_c, 3, 69, 0
5, 17040, Note_on_c, 3, 73, 0
5, 17100, Note_on_c, 3, 55, 100
5, 17100, Note_on_c, 3, 79, 100
5, 17100, Note_on_c, 3, 74, 100
5, 17100, Note_on_c, 3, 71, 100
5, 17100, Note_on_c, 3, 67, 100
5, 17100, Note_on_c, 3, 62, 100
5, 17160, Note_on_c, 3, 62, 0
5, 17160, Note_on_c, 3, 79, 0
5, 17160, Note_on_c, 3, 74, 0
5, 17160, Note_on_c, 3, 55, 0
5, 17160, Note_on_c, 3, 67, 0
5, 17160, Note_on_c, 3, 71, 0
5, 17160, Note_on_c, 3, 55, 100
5, 17160, Note_on_c, 3, 79, 100
5, 17160, Note_on_c, 3, 74, 100
5, 17160, Note_on_c, 3, 71, 100
5, 17160, Note_on_c, 3, 67, 100
5, 17160, Note_on_c, 3, 62, 100
5, 17220, Note_on_c, 3, 62, 0
5, 17220, Note_on_c, 3, 79, 0
5, 17220, Note_on_c, 3, 74, 0
5, 17220, Note_on_c, 3, 55, 0
5, 17220, Note_on_c, 3, 67, 0
5, 17220, Note_on_c, 3, 71, 0
5, 17220, Note_on_c, 3, 55, 100
5, 17220, Note_on_c, 3, 79, 100
5, 17220, Note_on_c, 3, 74, 100
5, 17220, Note_on_c, 3, 71, 100
5, 17220, Note_on_c, 3, 67, 100
5, 17220, Note_on_c, 3, 62, 100
5, 17280, Note_on_c, 3, 62, 0
5, 17280, Note_on_c, 3, 79, 0
5, 17280, Note_on_c, 3, 74, 0
5, 17280, Note_on_c, 3, 55, 0
5, 17280, Note_on_c, 3, 67, 0
5, 17280, Note_on_c, 3, 71, 0
5, 17280, Note_on_c, 3, 57, 100
5, 17280, Note_on_c, 3, 81, 100
5, 17280, Note_on_c, 3, 76, 100
5, 17280, Note_on_c, 3, 73, 100
5, 17280, Note_on_c, 3, 69, 100
5, 17280, Note_on_c, 3, 64, 100
5, 17340, Note_on_c, 3, 64, 0
5, 17340, Note_on_c, 3, 81, 0
5, 17340, Note_on_c, 3, 76, 0
5, 17340, Note_on_c, 3, 57, 0
5, 17340, Note_on_c, 3, 69, 0
5, 17340, Note_on_c, 3, 73, 0
5, 17340, Note_on_c, 3, 57, 100
5, 17340, Note_on_c, 3, 81, 100
5, 17340, Note_on_c, 3, 76, 100
5, 17340, Note_on_c, 3, 73, 100
5, 17340, Note_on_c, 3, 69, 100
5, 17340, Note_on_c, 3, 64, 100
5, 17400, Note_on_c, 3, 64, 0
5, 17400, Note_on_c, 3, 81, 0
5, 17400, Note_on_c, 3, 76, 0
5, 17400, Note_on_c, 3, 57, 0
5, 17400, Note_on_c, 3, 69, 0
5, 17400, Note_on_c, 3, 73, 0
5, 17400, Note_on_c, 3, 57, 100
5, 17400, Note_on_c, 3, 81, 100
5, 17400, Note_on_c, 3, 76, 100
5, 17400, Note_on_c, 3, 73, 100
5, 17400, Note_on_c, 3, 69, 100
5, 17400, Note_on_c, 3, 64, 100
5, 17460, Note_on_c, 3, 64, 0
5, 17460, Note_on_c, 3, 81, 0
5, 17460, Note_on_c, 3, 76, 0
5, 17460, Note_on_c, 3, 57, 0
5, 17460, Note_on_c, 3, 69, 0
5, 17460, Note_on_c, 3, 73, 0
5, 17460, Note_on_c, 3, 57, 100
5, 17460, Note_on_c, 3, 81, 100
5, 17460, Note_on_c, 3, 76, 100
5, 17460, Note_on_c, 3, 73, 100
5, 17460, Note_on_c, 3, 69, 100
5, 17460, Note_on_c, 3, 64, 100
5, 17520, Note_on_c, 3, 64, 0
5, 17520, Note_on_c, 3, 81, 0
5, 17520, Note_on_c, 3, 76, 0
5, 17520, Note_on_c, 3, 57, 0
5, 17520, Note_on_c, 3, 69, 0
5, 17520, Note_on_c, 3, 73, 0
5, 17580, Note_on_c, 3, 55, 100
5, 17580, Note_on_c, 3, 79, 100
5, 17580, Note_on_c, 3, 74, 100
5, 17580, Note_on_c, 3, 71, 100
5, 17580, Note_on_c, 3, 67, 100
5, 17580, Note_on_c, 3, 62, 100
5, 17640, Note_on_c, 3, 62, 0
5, 17640, Note_on_c, 3, 79, 0
5, 17640, Note_on_c, 3, 74, 0
5, 17640, Note_on_c, 3, 55, 0
5, 17640, Note_on_c, 3, 67, 0
5, 17640, Note_on_c, 3, 71, 0
5, 17640, Note_on_c, 3, 55, 100
5, 17640, Note_on_c, 3, 79, 100
5, 17640, Note_on_c, 3, 74, 100
5, 17640, Note_on_c, 3, 71, 100
5, 17640, Note_on_c, 3, 67, 100
5, 17640, Note_on_c, 3, 62, 100
5, 17700, Note_on_c, 3, 62, 0
5, 17700, Note_on_c, 3, 79, 0
5, 17700, Note_on_c, 3, 74, 0
5, 17700, Note_on_c, 3, 55, 0
5, 17700, Note_on_c, 3, 67, 0
5, 17700, Note_on_c, 3, 71, 0
5, 17700, Note_on_c, 3, 55, 100
5, 17700, Note_on_c, 3, 79, 100
5, 17700, Note_on_c, 3, 74, 100
5, 17700, Note_on_c, 3, 71, 100
5, 17700, Note_on_c, 3, 67, 100
5, 17700, Note_on_c, 3, 62, 100
5, 17760, Note_on_c, 3, 62, 0
5, 17760, Note_on_c, 3, 79, 0
5, 17760, Note_on_c, 3, 74, 0
5, 17760, Note_on_c, 3, 55, 0
5, 17760, Note_on_c, 3, 67, 0
5, 17760, Note_on_c, 3, 71, 0
5, 17820, Note_on_c, 3, 78, 100
5, 17820, Note_on_c, 3, 74, 100
5, 17820, Note_on_c, 3, 71, 100
5, 17820, Note_on_c, 3, 66, 100
5, 17820, Note_on_c, 3, 59, 100
5, 17820, Note_on_c, 3, 54, 100
5, 17880, Note_on_c, 3, 54, 0
5, 17880, Note_on_c, 3, 74, 0
5, 17880, Note_on_c, 3, 71, 0
5, 17880, Note_on_c, 3, 78, 0
5, 17880, Note_on_c, 3, 59, 0
5, 17880, Note_on_c, 3, 66, 0
5, 17880, Note_on_c, 3, 78, 100
5, 17880, Note_on_c, 3, 74, 100
5, 17880, Note_on_c, 3, 71, 100
5, 17880, Note_on_c, 3, 66, 100
5, 17880, Note_on_c, 3, 59, 100
5, 17880, Note_on_c, 3, 54, 100
5, 17940, Note_on_c, 3, 54, 0
5, 17940, Note_on_c, 3, 74, 0
5, 17940, Note_on_c, 3, 71, 0
5, 17940, Note_on_c, 3, 78, 0
5, 17940, Note_on_c, 3, 59, 0
5, 17940, Note_on_c, 3, 66, 0
5, 17940, Note_on_c, 3, 78, 100
5, 17940, Note_on_c, 3, 74, 100
5, 17940, Note_on_c, 3, 71, 100
5, 17940, Note_on_c, 3, 66, 100
5, 17940, Note_on_c, 3, 59, 100
5, 17940, Note_on_c, 3, 54, 100
5, 18000, Note_on_c, 3, 54, 0
5, 18000, Note_on_c, 3, 74, 0
5, 18000, Note_on_c, 3, 71, 0
5, 18000, Note_on_c, 3, 78, 0
5, 18000, Note_on_c, 3, 59, 0
5, 18000, Note_on_c, 3, 66, 0
5, 18060, Note_on_c, 3, 78, 100
5, 18060, Note_on_c, 3, 73, 100
5, 18060, Note_on_c, 3, 70, 100
5, 18060, Note_on_c, 3, 66, 100
5, 18060, Note_on_c, 3, 61, 100
5, 18060, Note_on_c, 3, 54, 100
5, 18120, Note_on_c, 3, 54, 0
5, 18120, Note_on_c, 3, 73, 0
5, 18120, Note_on_c, 3, 70, 0
5, 18120, Note_on_c, 3, 78, 0
5, 18120, Note_on_c, 3, 61, 0
5, 18120, Note_on_c, 3, 66, 0
5, 18120, Note_on_c, 3, 78, 100
5, 18120, Note_on_c, 3, 73, 100
5, 18120, Note_on_c, 3, 70, 100
5, 18120, Note_on_c, 3, 66, 100
5, 18120, Note_on_c, 3, 61, 100
5, 18120, Note_on_c, 3, 54, 100
5, 18180, Note_on_c, 3, 54, 0
5, 18180, Note_on_c, 3, 73, 0
5, 18180, Note_on_c, 3, 70, 0
5, 18180, Note_on_c, 3, 78, 0
5, 18180, Note_on_c, 3, 61, 0
5, 18180, Note_on_c, 3, 66, 0
5, 18180, Note_on_c, 3, 78, 100
5, 18180, Note_on_c, 3, 73, 100
5, 18180, Note_on_c, 3, 70, 100
5, 18180, Note_on_c, 3, 66, 100
5, 18180, Note_on_c, 3, 61, 100
5, 18180, Note_on_c, 3, 54, 100
5, 18240, Note_on_c, 3, 54, 0
5, 18240, Note_on_c, 3, 73, 0
5, 18240, Note_on_c, 3, 70, 0
5, 18240, Note_on_c, 3, 78, 0
5, 18240, Note_on_c, 3, 61, 0
5, 18240, Note_on_c, 3, 66, 0
5, 18240, Note_on_c, 3, 57, 100
5, 18240, Note_on_c, 3, 81, 100
5, 18240, Note_on_c, 3, 76, 100
5, 18240, Note_on_c, 3, 73, 100
5, 18240, Note_on_c, 3, 69, 100
5, 18240, Note_on_c, 3, 64, 100
5, 18300, Note_on_c, 3, 64, 0
5, 18300, Note_on_c, 3, 81, 0
5, 18300, Note_on_c, 3, 76, 0
5, 18300, Note_on_c, 3, 57, 0
5, 18300, Note_on_c, 3, 69, 0
5, 18300, Note_on_c, 3, 73, 0
5, 18300, Note_on_c, 3, 57, 100
5, 18300, Note_on_c, 3, 81, 100
5, 18300, Note_on_c, 3, 76, 100
5, 18300, Note_on_c, 3, 73, 100
5, 18300, Note_on_c, 3, 69, 100
5, 18300, Note_on_c, 3, 64, 100
5, 18360, Note_on_c, 3, 64, 0
5, 18360, Note_on_c, 3, 81, 0
5, 18360, Note_on_c, 3, 76, 0
5, 18360, Note_on_c, 3, 57, 0
5, 18360, Note_on_c, 3, 69, 0
5, 18360, Note_on_c, 3, 73, 0
5, 18360, Note_on_c, 3, 57, 100
5, 18360, Note_on_c, 3, 81, 100
5, 18360, Note_on_c, 3, 76, 100
5, 18360, Note_on_c, 3, 73, 100
5, 18360, Note_on_c, 3, 69, 100
5, 18360, Note_on_c, 3, 64, 100
5, 18420, Note_on_c, 3, 64, 0
5, 18420, Note_on_c, 3, 81, 0
5, 18420, Note_on_c, 3, 76, 0
5, 18420, Note_on_c, 3, 57, 0
5, 18420, Note_on_c, 3, 69, 0
5, 18420, Note_on_c, 3, 73, 0
5, 18420, Note_on_c, 3, 57, 100
5, 18420, Note_on_c, 3, 81, 100
5, 18420, Note_on_c, 3, 76, 100
5, 18420, Note_on_c, 3, 73, 100
5, 18420, Note_on_c, 3, 69, 100
5, 18420, Note_on_c, 3, 64, 100
5, 18480, Note_on_c, 3, 64, 0
5, 18480, Note_on_c, 3, 81, 0
5, 18480, Note_on_c, 3, 76, 0
5, 18480, Note_on_c, 3, 57, 0
5, 18480, Note_on_c, 3, 69, 0
5, 18480, Note_on_c, 3, 73, 0
5, 18540, Note_on_c, 3, 55, 100
5, 18540, Note_on_c, 3, 79, 100
5, 18540, Note_on_c, 3, 74, 100
5, 18540, Note_on_c, 3, 71, 100
5, 18540, Note_on_c, 3, 67, 100
5, 18540, Note_on_c, 3, 62, 100
5, 18600, Note_on_c, 3, 62, 0
5, 18600, Note_on_c, 3, 79, 0
5, 18600, Note_on_c, 3, 74, 0
5, 18600, Note_on_c, 3, 55, 0
5, 18600, Note_on_c, 3, 67, 0
5, 18600, Note_on_c, 3, 71, 0
5, 18600, Note_on_c, 3, 55, 100
5, 18600, Note_on_c, 3, 79, 100
5, 18600, Note_on_c, 3, 74, 100
5, 18600, Note_on_c, 3, 71, 100
5, 18600, Note_on_c, 3, 67, 100
5, 18600, Note_on_c, 3, 62, 100
5, 18660, Note_on_c, 3, 62, 0
5, 18660, Note_on_c, 3, 79, 0
5, 18660, Note_on_c, 3, 74, 0
5, 18660, Note_on_c, 3, 55, 0
5, 18660, Note_on_c, 3, 67, 0
5, 18660, Note_on_c, 3, 71, 0
5, 18660, Note_on_c, 3, 55, 100
5, 18660, Note_on_c, 3, 79, 100
5, 18660, Note_on_c, 3, 74, 100
5, 18660, Note_on_c, 3, 71, 100
5, 18660, Note_on_c, 3, 67, 100
5, 18660, Note_on_c, 3, 62, 100
5, 18720, Note_on_c, 3, 62, 0
5, 18720, Note_on_c, 3, 79, 0
5, 18720, Note_on_c, 3, 74, 0
5, 18720, Note_on_c, 3, 55, 0
5, 18720, Note_on_c, 3, 67, 0
5, 18720, Note_on_c, 3, 71, 0
5, 18720, Note_on_c, 3, 57, 100
5, 18720, Note_on_c, 3, 81, 100
5, 18720, Note_on_c, 3, 76, 100
5, 18720, Note_on_c, 3, 73, 100
5, 18720, Note_on_c, 3, 69, 100
5, 18720, Note_on_c, 3, 64, 100
5, 18780, Note_on_c, 3, 64, 0
5, 18780, Note_on_c, 3, 81, 0
5, 18780, Note_on_c, 3, 76, 0
5, 18780, Note_on_c, 3, 57, 0
5, 18780, Note_on_c, 3, 69, 0
5, 18780, Note_on_c, 3, 73, 0
5, 18780, Note_on_c, 3, 57, 100
5, 18780, Note_on_c, 3, 81, 100
5, 18780, Note_on_c, 3, 76, 100
5, 18780, Note_on_c, 3, 73, 100
5, 18780, Note_on_c, 3, 69, 100
5, 18780, Note_on_c, 3, 64, 100
5, 18840, Note_on_c, 3, 64, 0
5, 18840, Note_on_c, 3, 81, 0
5, 18840, Note_on_c, 3, 76, 0
5, 18840, Note_on_c, 3, 57, 0
5, 18840, Note_on_c, 3, 69, 0
5, 18840, Note_on_c, 3, 73, 0
5, 18840, Note_on_c, 3, 57, 100
5, 18840, Note_on_c, 3, 81, 100
5, 18840, Note_on_c, 3, 76, 100
5, 18840, Note_on_c, 3, 73, 100
5, 18840, Note_on_c, 3, 69, 100
5, 18840, Note_on_c, 3, 64, 100
5, 18900, Note_on_c, 3, 64, 0
5, 18900, Note_on_c, 3, 81, 0
5, 18900, Note_on_c, 3, 76, 0
5, 18900, Note_on_c, 3, 57, 0
5, 18900, Note_on_c, 3, 69, 0
5, 18900, Note_on_c, 3, 73, 0
5, 18900, Note_on_c, 3, 57, 100
5, 18900, Note_on_c, 3, 81, 100
5, 18900, Note_on_c, 3, 76, 100
5, 18900, Note_on_c, 3, 73, 100
5, 18900, Note_on_c, 3, 69, 100
5, 18900, Note_on_c, 3, 64, 100
5, 18960, Note_on_c, 3, 64, 0
5, 18960, Note_on_c, 3, 81, 0
5, 18960, Note_on_c, 3, 76, 0
5, 18960, Note_on_c, 3, 57, 0
5, 18960, Note_on_c, 3, 69, 0
5, 18960, Note_on_c, 3, 73, 0
5, 19020, Note_on_c, 3, 55, 100
5, 19020, Note_on_c, 3, 79, 100
5, 19020, Note_on_c, 3, 74, 100
5, 19020, Note_on_c, 3, 71, 100
5, 19020, Note_on_c, 3, 67, 100
5, 19020, Note_on_c, 3, 62, 100
5, 19080, Note_on_c, 3, 62, 0
5, 19080, Note_on_c, 3, 79, 0
5, 19080, Note_on_c, 3, 74, 0
5, 19080, Note_on_c, 3, 55, 0
5, 19080, Note_on_c, 3, 67, 0
5, 19080, Note_on_c, 3, 71, 0
5, 19080, Note_on_c, 3, 55, 100
5, 19080, Note_on_c, 3, 79, 100
5, 19080, Note_on_c, 3, 74, 100
5, 19080, Note_on_c, 3, 71, 100
5, 19080, Note_on_c, 3, 67, 100
5, 19080, Note_on_c, 3, 62, 100
5, 19140, Note_on_c, 3, 62, 0
5, 19140, Note_on_c, 3, 79, 0
5, 19140, Note_on_c, 3, 74, 0
5, 19140, Note_on_c, 3, 55, 0
5, 19140, Note_on_c, 3, 67, 0
5, 19140, Note_on_c, 3, 71, 0
5, 19140, Note_on_c, 3, 55, 100
5, 19140, Note_on_c, 3, 79, 100
5, 19140, Note_on_c, 3, 74, 100
5, 19140, Note_on_c, 3, 71, 100
5, 19140, Note_on_c, 3, 67, 100
5, 19140, Note_on_c, 3, 62, 100
5, 19200, Note_on_c, 3, 62, 0
5, 19200, Note_on_c, 3, 79, 0
5, 19200, Note_on_c, 3, 74, 0
5, 19200, Note_on_c, 3, 55, 0
5, 19200, Note_on_c, 3, 67, 0
5, 19200, Note_on_c, 3, 71, 0
5, 19200, Note_on_c, 3, 57, 100
5, 19200, Note_on_c, 3, 81, 100
5, 19200, Note_on_c, 3, 76, 100
5, 19200, Note_on_c, 3, 73, 100
5, 19200, Note_on_c, 3, 69, 100
5, 19200, Note_on_c, 3, 64, 100
5, 19260, Note_on_c, 3, 64, 0
5, 19260, Note_on_c, 3, 81, 0
5, 19260, Note_on_c, 3, 76, 0
5, 19260, Note_on_c, 3, 57, 0
5, 19260, Note_on_c, 3, 69, 0
5, 19260, Note_on_c, 3, 73, 0
5, 19260, Note_on_c, 3, 57, 100
5, 19260, Note_on_c, 3, 81, 100
5, 19260, Note_on_c, 3, 76, 100
5, 19260, Note_on_c, 3, 73, 100
5, 19260, Note_on_c, 3, 69, 100
5, 19260, Note_on_c, 3, 64, 100
5, 19320, Note_on_c, 3, 64, 0
5, 19320, Note_on_c, 3, 81, 0
5, 19320, Note_on_c, 3, 76, 0
5, 19320, Note_on_c, 3, 57, 0
5, 19320, Note_on_c, 3, 69, 0
5, 19320, Note_on_c, 3, 73, 0
5, 19320, Note_on_c, 3, 57, 100
5, 19320, Note_on_c, 3, 81, 100
5, 19320, Note_on_c, 3, 76, 100
5, 19320, Note_on_c, 3, 73, 100
5, 19320, Note_on_c, 3, 69, 100
5, 19320, Note_on_c, 3, 64, 100
5, 19380, Note_on_c, 3, 64, 0
5, 19380, Note_on_c, 3, 81, 0
5, 19380, Note_on_c, 3, 76, 0
5, 19380, Note_on_c, 3, 57, 0
5, 19380, Note_on_c, 3, 69, 0
5, 19380, Note_on_c, 3, 73, 0
5, 19380, Note_on_c, 3, 57, 100
5, 19380, Note_on_c, 3, 81, 100
5, 19380, Note_on_c, 3, 76, 100
5, 19380, Note_on_c, 3, 73, 100
5, 19380, Note_on_c, 3, 69, 100
5, 19380, Note_on_c, 3, 64, 100
5, 19440, Note_on_c, 3, 64, 0
5, 19440, Note_on_c, 3, 81, 0
5, 19440, Note_on_c, 3, 76, 0
5, 19440, Note_on_c, 3, 57, 0
5, 19440, Note_on_c, 3, 69, 0
5, 19440, Note_on_c, 3, 73, 0
5, 19500, Note_on_c, 3, 55, 100
5, 19500, Note_on_c, 3, 79, 100
5, 19500, Note_on_c, 3, 74, 100
5, 19500, Note_on_c, 3, 71, 100
5, 19500, Note_on_c, 3, 67, 100
5, 19500, Note_on_c, 3, 62, 100
5, 19560, Note_on_c, 3, 62, 0
5, 19560, Note_on_c, 3, 79, 0
5, 19560, Note_on_c, 3, 74, 0
5, 19560, Note_on_c, 3, 55, 0
5, 19560, Note_on_c, 3, 67, 0
5, 19560, Note_on_c, 3, 71, 0
5, 19560, Note_on_c, 3, 55, 100
5, 19560, Note_on_c, 3, 79, 100
5, 19560, Note_on_c, 3, 74, 100
5, 19560, Note_on_c, 3, 71, 100
5, 19560, Note_on_c, 3, 67, 100
5, 19560, Note_on_c, 3, 62, 100
5, 19620, Note_on_c, 3, 62, 0
5, 19620, Note_on_c, 3, 79, 0
5, 19620, Note_on_c, 3, 74, 0
5, 19620, Note_on_c, 3, 55, 0
5, 19620, Note_on_c, 3, 67, 0
5, 19620, Note_on_c, 3, 71, 0
5, 19620, Note_on_c, 3, 55, 100
5, 19620, Note_on_c, 3, 79, 100
5, 19620, Note_on_c, 3, 74, 100
5, 19620, Note_on_c, 3, 71, 100
5, 19620, Note_on_c, 3, 67, 100
5, 19620, Note_on_c, 3, 62, 100
5, 19680, Note_on_c, 3, 62, 0
5, 19680, Note_on_c, 3, 79, 0
5, 19680, Note_on_c, 3, 74, 0
5, 19680, Note_on_c, 3, 55, 0
5, 19680, Note_on_c, 3, 67, 0
5, 19680, Note_on_c, 3, 71, 0
5, 19680, Note_on_c, 3, 57, 100
5, 19680, Note_on_c, 3, 81, 100
5, 19680, Note_on_c, 3, 76, 100
5, 19680, Note_on_c, 3, 73, 100
5, 19680, Note_on_c, 3, 69, 100
5, 19680, Note_on_c, 3, 64, 100
5, 19740, Note_on_c, 3, 64, 0
5, 19740, Note_on_c, 3, 81, 0
5, 19740, Note_on_c, 3, 76, 0
5, 19740, Note_on_c, 3, 57, 0
5, 19740, Note_on_c, 3, 69, 0
5, 19740, Note_on_c, 3, 73, 0
5, 19740, Note_on_c, 3, 57, 100
5, 19740, Note_on_c, 3, 81, 100
5, 19740, Note_on_c, 3, 76, 100
5, 19740, Note_on_c, 3, 73, 100
5, 19740, Note_on_c, 3, 69, 100
5, 19740, Note_on_c, 3, 64, 100
5, 19800, Note_on_c, 3, 64, 0
5, 19800, Note_on_c, 3, 81, 0
5, 19800, Note_on_c, 3, 76, 0
5, 19800, Note_on_c, 3, 57, 0
5, 19800, Note_on_c, 3, 69, 0
5, 19800, Note_on_c, 3, 73, 0
5, 19800, Note_on_c, 3, 57, 100
5, 19800, Note_on_c, 3, 81, 100
5, 19800, Note_on_c, 3, 76, 100
5, 19800, Note_on_c, 3, 73, 100
5, 19800, Note_on_c, 3, 69, 100
5, 19800, Note_on_c, 3, 64, 100
5, 19860, Note_on_c, 3, 64, 0
5, 19860, Note_on_c, 3, 81, 0
5, 19860, Note_on_c, 3, 76, 0
5, 19860, Note_on_c, 3, 57, 0
5, 19860, Note_on_c, 3, 69, 0
5, 19860, Note_on_c, 3, 73, 0
5, 19860, Note_on_c, 3, 57, 100
5, 19860, Note_on_c, 3, 81, 100
5, 19860, Note_on_c, 3, 76, 100
5, 19860, Note_on_c, 3, 73, 100
5, 19860, Note_on_c, 3, 69, 100
5, 19860, Note_on_c, 3, 64, 100
5, 19920, Note_on_c, 3, 64, 0
5, 19920, Note_on_c, 3, 81, 0
5, 19920, Note_on_c, 3, 76, 0
5, 19920, Note_on_c, 3, 57, 0
5, 19920, Note_on_c, 3, 69, 0
5, 19920, Note_on_c, 3, 73, 0
5, 19980, Note_on_c, 3, 55, 100
5, 19980, Note_on_c, 3, 79, 100
5, 19980, Note_on_c, 3, 74, 100
5, 19980, Note_on_c, 3, 71, 100
5, 19980, Note_on_c, 3, 67, 100
5, 19980, Note_on_c, 3, 62, 100
5, 20040, Note_on_c, 3, 62, 0
5, 20040, Note_on_c, 3, 79, 0
5, 20040, Note_on_c, 3, 74, 0
5, 20040, Note_on_c, 3, 55, 0
5, 20040, Note_on_c, 3, 67, 0
5, 20040, Note_on_c, 3, 71, 0
5, 20040, Note_on_c, 3, 55, 100
5, 20040, Note_on_c, 3, 79, 100
5, 20040, Note_on_c, 3, 74, 100
5, 20040, Note_on_c, 3, 71, 100
5, 20040, Note_on_c, 3, 67, 100
5, 20040, Note_on_c, 3, 62, 100
5, 20100, Note_on_c, 3, 62, 0
5, 20100, Note_on_c, 3, 79, 0
5, 20100, Note_on_c, 3, 74, 0
5, 20100, Note_on_c, 3, 55, 0
5, 20100, Note_on_c, 3, 67, 0
5, 20100, Note_on_c, 3, 71, 0
5, 20100, Note_on_c, 3, 55, 100
5, 20100, Note_on_c, 3, 79, 100
5, 20100, Note_on_c, 3, 74, 100
5, 20100, Note_on_c, 3, 71, 100
5, 20100, Note_on_c, 3, 67, 100
5, 20100, Note_on_c, 3, 62, 100
5, 20160, Note_on_c, 3, 62, 0
5, 20160, Note_on_c, 3, 79, 0
5, 20160, Note_on_c, 3, 74, 0
5, 20160, Note_on_c, 3, 55, 0
5, 20160, Note_on_c, 3, 67, 0
5, 20160, Note_on_c, 3, 71, 0
5, 20160, Note_on_c, 3, 57, 100
5, 20160, Note_on_c, 3, 81, 100
5, 20160, Note_on_c, 3, 76, 100
5, 20160, Note_on_c, 3, 73, 100
5, 20160, Note_on_c, 3, 69, 100
5, 20160, Note_on_c, 3, 64, 100
5, 20220, Note_on_c, 3, 64, 0
5, 20220, Note_on_c, 3, 81, 0
5, 20220, Note_on_c, 3, 76, 0
5, 20220, Note_on_c, 3, 57, 0
5, 20220, Note_on_c, 3, 69, 0
5, 20220, Note_on_c, 3, 73, 0
5, 20220, Note_on_c, 3, 57, 100
5, 20220, Note_on_c, 3, 81, 100
5, 20220, Note_on_c, 3, 76, 100
5, 20220, Note_on_c, 3, 73, 100
5, 20220, Note_on_c, 3, 69, 100
5, 20220, Note_on_c, 3, 64, 100
5, 20280, Note_on_c, 3, 64, 0
5, 20280, Note_on_c, 3, 81, 0
5, 20280, Note_on_c, 3, 76, 0
5, 20280, Note_on_c, 3, 57, 0
5, 20280, Note_on_c, 3, 69, 0
5, 20280, Note_on_c, 3, 73, 0
5, 20280, Note_on_c, 3, 57, 100
5, 20280, Note_on_c, 3, 81, 100
5, 20280, Note_on_c, 3, 76, 100
5, 20280, Note_on_c, 3, 73, 100
5, 20280, Note_on_c, 3, 69, 100
5, 20280, Note_on_c, 3, 64, 100
5, 20340, Note_on_c, 3, 64, 0
5, 20340, Note_on_c, 3, 81, 0
5, 20340, Note_on_c, 3, 76, 0
5, 20340, Note_on_c, 3, 57, 0
5, 20340, Note_on_c, 3, 69, 0
5, 20340, Note_on_c, 3, 73, 0
5, 20340, Note_on_c, 3, 57, 100
5, 20340, Note_on_c, 3, 81, 100
5, 20340, Note_on_c, 3, 76, 100
5, 20340, Note_on_c, 3, 73, 100
5, 20340, Note_on_c, 3, 69, 100
5, 20340, Note_on_c, 3, 64, 100
5, 20400, Note_on_c, 3, 64, 0
5, 20400, Note_on_c, 3, 81, 0
5, 20400, Note_on_c, 3, 76, 0
5, 20400, Note_on_c, 3, 57, 0
5, 20400, Note_on_c, 3, 69, 0
5, 20400, Note_on_c, 3, 73, 0
5, 20460, Note_on_c, 3, 55, 100
5, 20460, Note_on_c, 3, 79, 100
5, 20460, Note_on_c, 3, 74, 100
5, 20460, Note_on_c, 3, 71, 100
5, 20460, Note_on_c, 3, 67, 100
5, 20460, Note_on_c, 3, 62, 100
5, 20520, Note_on_c, 3, 62, 0
5, 20520, Note_on_c, 3, 79, 0
5, 20520, Note_on_c, 3, 74, 0
5, 20520, Note_on_c, 3, 55, 0
5, 20520, Note_on_c, 3, 67, 0
5, 20520, Note_on_c, 3, 71, 0
5, 20520, Note_on_c, 3, 55, 100
5, 20520, Note_on_c, 3, 79, 100
5, 20520, Note_on_c, 3, 74, 100
5, 20520, Note_on_c, 3, 71, 100
5, 20520, Note_on_c, 3, 67, 100
5, 20520, Note_on_c, 3, 62, 100
5, 20580, Note_on_c, 3, 62, 0
5, 20580, Note_on_c, 3, 79, 0
5, 20580, Note_on_c, 3, 74, 0
5, 20580, Note_on_c, 3, 55, 0
5, 20580, Note_on_c, 3, 67, 0
5, 20580, Note_on_c, 3, 71, 0
5, 20580, Note_on_c, 3, 55, 100
5, 20580, Note_on_c, 3, 79, 100
5, 20580, Note_on_c, 3, 74, 100
5, 20580, Note_on_c, 3, 71, 100
5, 20580, Note_on_c, 3, 67, 100
5, 20580, Note_on_c, 3, 62, 100
5, 20640, Note_on_c, 3, 62, 0
5, 20640, Note_on_c, 3, 79, 0
5, 20640, Note_on_c, 3, 74, 0
5, 20640, Note_on_c, 3, 55, 0
5, 20640, Note_on_c, 3, 67, 0
5, 20640, Note_on_c, 3, 71, 0
5, 20640, Note_on_c, 3, 57, 100
5, 20640, Note_on_c, 3, 81, 100
5, 20640, Note_on_c, 3, 76, 100
5, 20640, Note_on_c, 3, 73, 100
5, 20640, Note_on_c, 3, 69, 100
5, 20640, Note_on_c, 3, 64, 100
5, 20700, Note_on_c, 3, 64, 0
5, 20700, Note_on_c, 3, 81, 0
5, 20700, Note_on_c, 3, 76, 0
5, 20700, Note_on_c, 3, 57, 0
5, 20700, Note_on_c, 3, 69, 0
5, 20700, Note_on_c, 3, 73, 0
5, 20700, Note_on_c, 3, 57, 100
5, 20700, Note_on_c, 3, 81, 100
5, 20700, Note_on_c, 3, 76, 100
5, 20700, Note_on_c, 3, 73, 100
5, 20700, Note_on_c, 3, 69, 100
5, 20700, Note_on_c, 3, 64, 100
5, 20760, Note_on_c, 3, 64, 0
5, 20760, Note_on_c, 3, 81, 0
5, 20760, Note_on_c, 3, 76, 0
5, 20760, Note_on_c, 3, 57, 0
5, 20760, Note_on_c, 3, 69, 0
5, 20760, Note_on_c, 3, 73, 0
5, 20760, Note_on_c, 3, 57, 100
5, 20760, Note_on_c, 3, 81, 100
5, 20760, Note_on_c, 3, 76, 100
5, 20760, Note_on_c, 3, 73, 100
5, 20760, Note_on_c, 3, 69, 100
5, 20760, Note_on_c, 3, 64, 100
5, 20820, Note_on_c, 3, 64, 0
5, 20820, Note_on_c, 3, 81, 0
5, 20820, Note_on_c, 3, 76, 0
5, 20820, Note_on_c, 3, 57, 0
5, 20820, Note_on_c, 3, 69, 0
5, 20820, Note_on_c, 3, 73, 0
5, 20820, Note_on_c, 3, 57, 100
5, 20820, Note_on_c, 3, 81, 100
5, 20820, Note_on_c, 3, 76, 100
5, 20820, Note_on_c, 3, 73, 100
5, 20820, Note_on_c, 3, 69, 100
5, 20820, Note_on_c, 3, 64, 100
5, 20880, Note_on_c, 3, 64, 0
5, 20880, Note_on_c, 3, 81, 0
5, 20880, Note_on_c, 3, 76, 0
5, 20880, Note_on_c, 3, 57, 0
5, 20880, Note_on_c, 3, 69, 0
5, 20880, Note_on_c, 3, 73, 0
5, 20940, Note_on_c, 3, 55, 100
5, 20940, Note_on_c, 3, 79, 100
5, 20940, Note_on_c, 3, 74, 100
5, 20940, Note_on_c, 3, 71, 100
5, 20940, Note_on_c, 3, 67, 100
5, 20940, Note_on_c, 3, 62, 100
5, 21000, Note_on_c, 3, 62, 0
5, 21000, Note_on_c, 3, 79, 0
5, 21000, Note_on_c, 3, 74, 0
5, 21000, Note_on_c, 3, 55, 0
5, 21000, Note_on_c, 3, 67, 0
5, 21000, Note_on_c, 3, 71, 0
5, 21000, Note_on_c, 3, 55, 100
5, 21000, Note_on_c, 3, 79, 100
5, 21000, Note_on_c, 3, 74, 100
5, 21000, Note_on_c, 3, 71, 100
5, 21000, Note_on_c, 3, 67, 100
5, 21000, Note_on_c, 3, 62, 100
5, 21060, Note_on_c, 3, 62, 0
5, 21060, Note_on_c, 3, 79, 0
5, 21060, Note_on_c, 3, 74, 0
5, 21060, Note_on_c, 3, 55, 0
5, 21060, Note_on_c, 3, 67, 0
5, 21060, Note_on_c, 3, 71, 0
5, 21060, Note_on_c, 3, 55, 100
5, 21060, Note_on_c, 3, 79, 100
5, 21060, Note_on_c, 3, 74, 100
5, 21060, Note_on_c, 3, 71, 100
5, 21060, Note_on_c, 3, 67, 100
5, 21060, Note_on_c, 3, 62, 100
5, 21120, Note_on_c, 3, 62, 0
5, 21120, Note_on_c, 3, 79, 0
5, 21120, Note_on_c, 3, 74, 0
5, 21120, Note_on_c, 3, 55, 0
5, 21120, Note_on_c, 3, 67, 0
5, 21120, Note_on_c, 3, 71, 0
5, 21120, Note_on_c, 3, 57, 100
5, 21120, Note_on_c, 3, 81, 100
5, 21120, Note_on_c, 3, 76, 100
5, 21120, Note_on_c, 3, 73, 100
5, 21120, Note_on_c, 3, 69, 100
5, 21120, Note_on_c, 3, 64, 100
5, 21180, Note_on_c, 3, 64, 0
5, 21180, Note_on_c, 3, 81, 0
5, 21180, Note_on_c, 3, 76, 0
5, 21180, Note_on_c, 3, 57, 0
5, 21180, Note_on_c, 3, 69, 0
5, 21180, Note_on_c, 3, 73, 0
5, 21180, Note_on_c, 3, 57, 100
5, 21180, Note_on_c, 3, 81, 100
5, 21180, Note_on_c, 3, 76, 100
5, 21180, Note_on_c, 3, 73, 100
5, 21180, Note_on_c, 3, 69, 100
5, 21180, Note_on_c, 3, 64, 100
5, 21240, Note_on_c, 3, 64, 0
5, 21240, Note_on_c, 3, 81, 0
5, 21240, Note_on_c, 3, 76, 0
5, 21240, Note_on_c, 3, 57, 0
5, 21240, Note_on_c, 3, 69, 0
5, 21240, Note_on_c, 3, 73, 0
5, 21240, Note_on_c, 3, 57, 100
5, 21240, Note_on_c, 3, 81, 100
5, 21240, Note_on_c, 3, 76, 100
5, 21240, Note_on_c, 3, 73, 100
5, 21240, Note_on_c, 3, 69, 100
5, 21240, Note_on_c, 3, 64, 100
5, 21300, Note_on_c, 3, 64, 0
5, 21300, Note_on_c, 3, 81, 0
5, 21300, Note_on_c, 3, 76, 0
5, 21300, Note_on_c, 3, 57, 0
5, 21300, Note_on_c, 3, 69, 0
5, 21300, Note_on_c, 3, 73, 0
5, 21300, Note_on_c, 3, 57, 100
5, 21300, Note_on_c, 3, 81, 100
5, 21300, Note_on_c, 3, 76, 100
5, 21300, Note_on_c, 3, 73, 100
5, 21300, Note_on_c, 3, 69, 100
5, 21300, Note_on_c, 3, 64, 100
5, 21360, Note_on_c, 3, 64, 0
5, 21360, Note_on_c, 3, 81, 0
5, 21360, Note_on_c, 3, 76, 0
5, 21360, Note_on_c, 3, 57, 0
5, 21360, Note_on_c, 3, 69, 0
5, 21360, Note_on_c, 3, 73, 0
5, 21420, Note_on_c, 3, 55, 100
5, 21420, Note_on_c, 3, 79, 100
5, 21420, Note_on_c, 3, 74, 100
5, 21420, Note_on_c, 3, 71, 100
5, 21420, Note_on_c, 3, 67, 100
5, 21420, Note_on_c, 3, 62, 100
5, 21480, Note_on_c, 3, 62, 0
5, 21480, Note_on_c, 3, 79, 0
5, 21480, Note_on_c, 3, 74, 0
5, 21480, Note_on_c, 3, 55, 0
5, 21480, Note_on_c, 3, 67, 0
5, 21480, Note_on_c, 3, 71, 0
5, 21480, Note_on_c, 3, 55, 100
5, 21480, Note_on_c, 3, 79, 100
5, 21480, Note_on_c, 3, 74, 100
5, 21480, Note_on_c, 3, 71, 100
5, 21480, Note_on_c, 3, 67, 100
5, 21480, Note_on_c, 3, 62, 100
5, 21540, Note_on_c, 3, 62, 0
5, 21540, Note_on_c, 3, 79, 0
5, 21540, Note_on_c, 3, 74, 0
5, 21540, Note_on_c, 3, 55, 0
5, 21540, Note_on_c, 3, 67, 0
5, 21540, Note_on_c, 3, 71, 0
5, 21540, Note_on_c, 3, 55, 100
5, 21540, Note_on_c, 3, 79, 100
5, 21540, Note_on_c, 3, 74, 100
5, 21540, Note_on_c, 3, 71, 100
5, 21540, Note_on_c, 3, 67, 100
5, 21540, Note_on_c, 3, 62, 100
5, 21600, Note_on_c, 3, 62, 0
5, 21600, Note_on_c, 3, 79, 0
5, 21600, Note_on_c, 3, 74, 0
5, 21600, Note_on_c, 3, 55, 0
5, 21600, Note_on_c, 3, 67, 0
5, 21600, Note_on_c, 3, 71, 0
5, 21600, Note_on_c, 3, 57, 100
5, 21600, Note_on_c, 3, 81, 100
5, 21600, Note_on_c, 3, 76, 100
5, 21600, Note_on_c, 3, 73, 100
5, 21600, Note_on_c, 3, 69, 100
5, 21600, Note_on_c, 3, 64, 100
5, 21660, Note_on_c, 3, 64, 0
5, 21660, Note_on_c, 3, 81, 0
5, 21660, Note_on_c, 3, 76, 0
5, 21660, Note_on_c, 3, 57, 0
5, 21660, Note_on_c, 3, 69, 0
5, 21660, Note_on_c, 3, 73, 0
5, 21660, Note_on_c, 3, 57, 100
5, 21660, Note_on_c, 3, 81, 100
5, 21660, Note_on_c, 3, 76, 100
5, 21660, Note_on_c, 3, 73, 100
5, 21660, Note_on_c, 3, 69, 100
5, 21660, Note_on_c, 3, 64, 100
5, 21720, Note_on_c, 3, 64, 0
5, 21720, Note_on_c, 3, 81, 0
5, 21720, Note_on_c, 3, 76, 0
5, 21720, Note_on_c, 3, 57, 0
5, 21720, Note_on_c, 3, 69, 0
5, 21720, Note_on_c, 3, 73, 0
5, 21720, Note_on_c, 3, 57, 100
5, 21720, Note_on_c, 3, 81, 100
5, 21720, Note_on_c, 3, 76, 100
5, 21720, Note_on_c, 3, 73, 100
5, 21720, Note_on_c, 3, 69, 100
5, 21720, Note_on_c, 3, 64, 100
5, 21780, Note_on_c, 3, 64, 0
5, 21780, Note_on_c, 3, 81, 0
5, 21780, Note_on_c, 3, 76, 0
5, 21780, Note_on_c, 3, 57, 0
5, 21780, Note_on_c, 3, 69, 0
5, 21780, Note_on_c, 3, 73, 0
5, 21780, Note_on_c, 3, 57, 100
5, 21780, Note_on_c, 3, 81, 100
5, 21780, Note_on_c, 3, 76, 100
5, 21780, Note_on_c, 3, 73, 100
5, 21780, Note_on_c, 3, 69, 100
5, 21780, Note_on_c, 3, 64, 100
5, 21840, Note_on_c, 3, 64, 0
5, 21840, Note_on_c, 3, 81, 0
5, 21840, Note_on_c, 3, 76, 0
5, 21840, Note_on_c, 3, 57, 0
5, 21840, Note_on_c, 3, 69, 0
5, 21840, Note_on_c, 3, 73, 0
5, 21900, Note_on_c, 3, 55, 100
5, 21900, Note_on_c, 3, 79, 100
5, 21900, Note_on_c, 3, 74, 100
5, 21900, Note_on_c, 3, 71, 100
5, 21900, Note_on_c, 3, 67, 100
5, 21900, Note_on_c, 3, 62, 100
5, 21960, Note_on_c, 3, 62, 0
5, 21960, Note_on_c, 3, 79, 0
5, 21960, Note_on_c, 3, 74, 0
5, 21960, Note_on_c, 3, 55, 0
5, 21960, Note_on_c, 3, 67, 0
5, 21960, Note_on_c, 3, 71, 0
5, 21960, Note_on_c, 3, 55, 100
5, 21960, Note_on_c, 3, 79, 100
5, 21960, Note_on_c, 3, 74, 100
5, 21960, Note_on_c, 3, 71, 100
5, 21960, Note_on_c, 3, 67, 100
5, 21960, Note_on_c, 3, 62, 100
5, 22020, Note_on_c, 3, 62, 0
5, 22020, Note_on_c, 3, 79, 0
5, 22020, Note_on_c, 3, 74, 0
5, 22020, Note_on_c, 3, 55, 0
5, 22020, Note_on_c, 3, 67, 0
5, 22020, Note_on_c, 3, 71, 0
5, 22020, Note_on_c, 3, 55, 100
5, 22020, Note_on_c, 3, 79, 100
5, 22020, Note_on_c, 3, 74, 100
5, 22020, Note_on_c, 3, 71, 100
5, 22020, Note_on_c, 3, 67, 100
5, 22020, Note_on_c, 3, 62, 100
5, 22080, Note_on_c, 3, 62, 0
5, 22080, Note_on_c, 3, 79, 0
5, 22080, Note_on_c, 3, 74, 0
5, 22080, Note_on_c, 3, 55, 0
5, 22080, Note_on_c, 3, 67, 0
5, 22080, Note_on_c, 3, 71, 0
5, 22080, Note_on_c, 3, 57, 100
5, 22080, Note_on_c, 3, 81, 100
5, 22080, Note_on_c, 3, 76, 100
5, 22080, Note_on_c, 3, 73, 100
5, 22080, Note_on_c, 3, 69, 100
5, 22080, Note_on_c, 3, 64, 100
5, 22140, Note_on_c, 3, 64, 0
5, 22140, Note_on_c, 3, 81, 0
5, 22140, Note_on_c, 3, 76, 0
5, 22140, Note_on_c, 3, 57, 0
5, 22140, Note_on_c, 3, 69, 0
5, 22140, Note_on_c, 3, 73, 0
5, 22140, Note_on_c, 3, 57, 100
5, 22140, Note_on_c, 3, 81, 100
5, 22140, Note_on_c, 3, 76, 100
5, 22140, Note_on_c, 3, 73, 100
5, 22140, Note_on_c, 3, 69, 100
5, 22140, Note_on_c, 3, 64, 100
5, 22200, Note_on_c, 3, 64, 0
5, 22200, Note_on_c, 3, 81, 0
5, 22200, Note_on_c, 3, 76, 0
5, 22200, Note_on_c, 3, 57, 0
5, 22200, Note_on_c, 3, 69, 0
5, 22200, Note_on_c, 3, 73, 0
5, 22200, Note_on_c, 3, 57, 100
5, 22200, Note_on_c, 3, 81, 100
5, 22200, Note_on_c, 3, 76, 100
5, 22200, Note_on_c, 3, 73, 100
5, 22200, Note_on_c, 3, 69, 100
5, 22200, Note_on_c, 3, 64, 100
5, 22260, Note_on_c, 3, 64, 0
5, 22260, Note_on_c, 3, 81, 0
5, 22260, Note_on_c, 3, 76, 0
5, 22260, Note_on_c, 3, 57, 0
5, 22260, Note_on_c, 3, 69, 0
5, 22260, Note_on_c, 3, 73, 0
5, 22260, Note_on_c, 3, 57, 100
5, 22260, Note_on_c, 3, 81, 100
5, 22260, Note_on_c, 3, 76, 100
5, 22260, Note_on_c, 3, 73, 100
5, 22260, Note_on_c, 3, 69, 100
5, 22260, Note_on_c, 3, 64, 100
5, 22320, Note_on_c, 3, 64, 0
5, 22320, Note_on_c, 3, 81, 0
5, 22320, Note_on_c, 3, 76, 0
5, 22320, Note_on_c, 3, 57, 0
5, 22320, Note_on_c, 3, 69, 0
5, 22320, Note_on_c, 3, 73, 0
5, 22380, Note_on_c, 3, 55, 100
5, 22380, Note_on_c, 3, 79, 100
5, 22380, Note_on_c, 3, 74, 100
5, 22380, Note_on_c, 3, 71, 100
5, 22380, Note_on_c, 3, 67, 100
5, 22380, Note_on_c, 3, 62, 100
5, 22440, Note_on_c, 3, 62, 0
5, 22440, Note_on_c, 3, 79, 0
5, 22440, Note_on_c, 3, 74, 0
5, 22440, Note_on_c, 3, 55, 0
5, 22440, Note_on_c, 3, 67, 0
5, 22440, Note_on_c, 3, 71, 0
5, 22440, Note_on_c, 3, 55, 100
5, 22440, Note_on_c, 3, 79, 100
5, 22440, Note_on_c, 3, 74, 100
5, 22440, Note_on_c, 3, 71, 100
5, 22440, Note_on_c, 3, 67, 100
5, 22440, Note_on_c, 3, 62, 100
5, 22500, Note_on_c, 3, 62, 0
5, 22500, Note_on_c, 3, 79, 0
5, 22500, Note_on_c, 3, 74, 0
5, 22500, Note_on_c, 3, 55, 0
5, 22500, Note_on_c, 3, 67, 0
5, 22500, Note_on_c, 3, 71, 0
5, 22500, Note_on_c, 3, 55, 100
5, 22500, Note_on_c, 3, 79, 100
5, 22500, Note_on_c, 3, 74, 100
5, 22500, Note_on_c, 3, 71, 100
5, 22500, Note_on_c, 3, 67, 100
5, 22500, Note_on_c, 3, 62, 100
5, 22560, Note_on_c, 3, 62, 0
5, 22560, Note_on_c, 3, 79, 0
5, 22560, Note_on_c, 3, 74, 0
5, 22560, Note_on_c, 3, 55, 0
5, 22560, Note_on_c, 3, 67, 0
5, 22560, Note_on_c, 3, 71, 0
5, 22560, Note_on_c, 3, 57, 100
5, 22560, Note_on_c, 3, 81, 100
5, 22560, Note_on_c, 3, 76, 100
5, 22560, Note_on_c, 3, 73, 100
5, 22560, Note_on_c, 3, 69, 100
5, 22560, Note_on_c, 3, 64, 100
5, 22620, Note_on_c, 3, 64, 0
5, 22620, Note_on_c, 3, 81, 0
5, 22620, Note_on_c, 3, 76, 0
5, 22620, Note_on_c, 3, 57, 0
5, 22620, Note_on_c, 3, 69, 0
5, 22620, Note_on_c, 3, 73, 0
5, 22620, Note_on_c, 3, 57, 100
5, 22620, Note_on_c, 3, 81, 100
5, 22620, Note_on_c, 3, 76, 100
5, 22620, Note_on_c, 3, 73, 100
5, 22620, Note_on_c, 3, 69, 100
5, 22620, Note_on_c, 3, 64, 100
5, 22680, Note_on_c, 3, 64, 0
5, 22680, Note_on_c, 3, 81, 0
5, 22680, Note_on_c, 3, 76, 0
5, 22680, Note_on_c, 3, 57, 0
5, 22680, Note_on_c, 3, 69, 0
5, 22680, Note_on_c, 3, 73, 0
5, 22680, Note_on_c, 3, 57, 100
5, 22680, Note_on_c, 3, 81, 100
5, 22680, Note_on_c, 3, 76, 100
5, 22680, Note_on_c, 3, 73, 100
5, 22680, Note_on_c, 3, 69, 100
5, 22680, Note_on_c, 3, 64, 100
5, 22740, Note_on_c, 3, 64, 0
5, 22740, Note_on_c, 3, 81, 0
5, 22740, Note_on_c, 3, 76, 0
5, 22740, Note_on_c, 3, 57, 0
5, 22740, Note_on_c, 3, 69, 0
5, 22740, Note_on_c, 3, 73, 0
5, 22740, Note_on_c, 3, 57, 100
5, 22740, Note_on_c, 3, 81, 100
5, 22740, Note_on_c, 3, 76, 100
5, 22740, Note_on_c, 3, 73, 100
5, 22740, Note_on_c, 3, 69, 100
5, 22740, Note_on_c, 3, 64, 100
5, 22800, Note_on_c, 3, 64, 0
5, 22800, Note_on_c, 3, 81, 0
5, 22800, Note_on_c, 3, 76, 0
5, 22800, Note_on_c, 3, 57, 0
5, 22800, Note_on_c, 3, 69, 0
5, 22800, Note_on_c, 3, 73, 0
5, 22860, Note_on_c, 3, 55, 100
5, 22860, Note_on_c, 3, 79, 100
5, 22860, Note_on_c, 3, 74, 100
5, 22860, Note_on_c, 3, 71, 100
5, 22860, Note_on_c, 3, 67, 100
5, 22860, Note_on_c, 3, 62, 100
5, 22920, Note_on_c, 3, 62, 0
5, 22920, Note_on_c, 3, 79, 0
5, 22920, Note_on_c, 3, 74, 0
5, 22920, Note_on_c, 3, 55, 0
5, 22920, Note_on_c, 3, 67, 0
5, 22920, Note_on_c, 3, 71, 0
5, 22920, Note_on_c, 3, 55, 100
5, 22920, Note_on_c, 3, 79, 100
5, 22920, Note_on_c, 3, 74, 100
5, 22920, Note_on_c, 3, 71, 100
5, 22920, Note_on_c, 3, 67, 100
5, 22920, Note_on_c, 3, 62, 100
5, 22980, Note_on_c, 3, 62, 0
5, 22980, Note_on_c, 3, 79, 0
5, 22980, Note_on_c, 3, 74, 0
5, 22980, Note_on_c, 3, 55, 0
5, 22980, Note_on_c, 3, 67, 0
5, 22980, Note_on_c, 3, 71, 0
5, 22980, Note_on_c, 3, 55, 100
5, 22980, Note_on_c, 3, 79, 100
5, 22980, Note_on_c, 3, 74, 100
5, 22980, Note_on_c, 3, 71, 100
5, 22980, Note_on_c, 3, 67, 100
5, 22980, Note_on_c, 3, 62, 100
5, 23040, Note_on_c, 3, 62, 0
5, 23040, Note_on_c, 3, 79, 0
5, 23040, Note_on_c, 3, 74, 0
5, 23040, Note_on_c, 3, 55, 0
5, 23040, Note_on_c, 3, 67, 0
5, 23040, Note_on_c, 3, 71, 0
5, 23040, Note_on_c, 3, 57, 100
5, 23040, Note_on_c, 3, 81, 100
5, 23040, Note_on_c, 3, 76, 100
5, 23040, Note_on_c, 3, 73, 100
5, 23040, Note_on_c, 3, 69, 100
5, 23040, Note_on_c, 3, 64, 100
5, 23100, Note_on_c, 3, 64, 0
5, 23100, Note_on_c, 3, 81, 0
5, 23100, Note_on_c, 3, 76, 0
5, 23100, Note_on_c, 3, 57, 0
5, 23100, Note_on_c, 3, 69, 0
5, 23100, Note_on_c, 3, 73, 0
5, 23100, Note_on_c, 3, 57, 100
5, 23100, Note_on_c, 3, 81, 100
5, 23100, Note_on_c, 3, 76, 100
5, 23100, Note_on_c, 3, 73, 100
5, 23100, Note_on_c, 3, 69, 100
5, 23100, Note_on_c, 3, 64, 100
5, 23160, Note_on_c, 3, 64, 0
5, 23160, Note_on_c, 3, 81, 0
5, 23160, Note_on_c, 3, 76, 0
5, 23160, Note_on_c, 3, 57, 0
5, 23160, Note_on_c, 3, 69, 0
5, 23160, Note_on_c, 3, 73, 0
5, 23160, Note_on_c, 3, 57, 100
5, 23160, Note_on_c, 3, 81, 100
5, 23160, Note_on_c, 3, 76, 100
5, 23160, Note_on_c, 3, 73, 100
5, 23160, Note_on_c, 3, 69, 100
5, 23160, Note_on_c, 3, 64, 100
5, 23220, Note_on_c, 3, 64, 0
5, 23220, Note_on_c, 3, 81, 0
5, 23220, Note_on_c, 3, 76, 0
5, 23220, Note_on_c, 3, 57, 0
5, 23220, Note_on_c, 3, 69, 0
5, 23220, Note_on_c, 3, 73, 0
5, 23220, Note_on_c, 3, 57, 100
5, 23220, Note_on_c, 3, 81, 100
5, 23220, Note_on_c, 3, 76, 100
5, 23220, Note_on_c, 3, 73, 100
5, 23220, Note_on_c, 3, 69, 100
5, 23220, Note_on_c, 3, 64, 100
5, 23280, Note_on_c, 3, 64, 0
5, 23280, Note_on_c, 3, 81, 0
5, 23280, Note_on_c, 3, 76, 0
5, 23280, Note_on_c, 3, 57, 0
5, 23280, Note_on_c, 3, 69, 0
5, 23280, Note_on_c, 3, 73, 0
5, 23340, Note_on_c, 3, 55, 100
5, 23340, Note_on_c, 3, 79, 100
5, 23340, Note_on_c, 3, 74, 100
5, 23340, Note_on_c, 3, 71, 100
5, 23340, Note_on_c, 3, 67, 100
5, 23340, Note_on_c, 3, 62, 100
5, 23400, Note_on_c, 3, 62, 0
5, 23400, Note_on_c, 3, 79, 0
5, 23400, Note_on_c, 3, 74, 0
5, 23400, Note_on_c, 3, 55, 0
5, 23400, Note_on_c, 3, 67, 0
5, 23400, Note_on_c, 3, 71, 0
5, 23400, Note_on_c, 3, 55, 100
5, 23400, Note_on_c, 3, 79, 100
5, 23400, Note_on_c, 3, 74, 100
5, 23400, Note_on_c, 3, 71, 100
5, 23400, Note_on_c, 3, 67, 100
5, 23400, Note_on_c, 3, 62, 100
5, 23460, Note_on_c, 3, 62, 0
5, 23460, Note_on_c, 3, 79, 0
5, 23460, Note_on_c, 3, 74, 0
5, 23460, Note_on_c, 3, 55, 0
5, 23460, Note_on_c, 3, 67, 0
5, 23460, Note_on_c, 3, 71, 0
5, 23460, Note_on_c, 3, 55, 100
5, 23460, Note_on_c, 3, 79, 100
5, 23460, Note_on_c, 3, 74, 100
5, 23460, Note_on_c, 3, 71, 100
5, 23460, Note_on_c, 3, 67, 100
5, 23460, Note_on_c, 3, 62, 100
5, 23520, Note_on_c, 3, 62, 0
5, 23520, Note_on_c, 3, 79, 0
5, 23520, Note_on_c, 3, 74, 0
5, 23520, Note_on_c, 3, 55, 0
5, 23520, Note_on_c, 3, 67, 0
5, 23520, Note_on_c, 3, 71, 0
5, 23520, Note_on_c, 3, 57, 100
5, 23520, Note_on_c, 3, 81, 100
5, 23520, Note_on_c, 3, 76, 100
5, 23520, Note_on_c, 3, 73, 100
5, 23520, Note_on_c, 3, 69, 100
5, 23520, Note_on_c, 3, 64, 100
5, 23580, Note_on_c, 3, 64, 0
5, 23580, Note_on_c, 3, 81, 0
5, 23580, Note_on_c, 3, 76, 0
5, 23580, Note_on_c, 3, 57, 0
5, 23580, Note_on_c, 3, 69, 0
5, 23580, Note_on_c, 3, 73, 0
5, 23580, Note_on_c, 3, 57, 100
5, 23580, Note_on_c, 3, 81, 100
5, 23580, Note_on_c, 3, 76, 100
5, 23580, Note_on_c, 3, 73, 100
5, 23580, Note_on_c, 3, 69, 100
5, 23580, Note_on_c, 3, 64, 100
5, 23640, Note_on_c, 3, 64, 0
5, 23640, Note_on_c, 3, 81, 0
5, 23640, Note_on_c, 3, 76, 0
5, 23640, Note_on_c, 3, 57, 0
5, 23640, Note_on_c, 3, 69, 0
5, 23640, Note_on_c, 3, 73, 0
5, 23640, Note_on_c, 3, 57, 100
5, 23640, Note_on_c, 3, 81, 100
5, 23640, Note_on_c, 3, 76, 100
5, 23640, Note_on_c, 3, 73, 100
5, 23640, Note_on_c, 3, 69, 100
5, 23640, Note_on_c, 3, 64, 100
5, 23700, Note_on_c, 3, 64, 0
5, 23700, Note_on_c, 3, 81, 0
5, 23700, Note_on_c, 3, 76, 0
5, 23700, Note_on_c, 3, 57, 0
5, 23700, Note_on_c, 3, 69, 0
5, 23700, Note_on_c, 3, 73, 0
5, 23700, Note_on_c, 3, 57, 100
5, 23700, Note_on_c, 3, 81, 100
5, 23700, Note_on_c, 3, 76, 100
5, 23700, Note_on_c, 3, 73, 100
5, 23700, Note_on_c, 3, 69, 100
5, 23700, Note_on_c, 3, 64, 100
5, 23760, Note_on_c, 3, 64, 0
5, 23760, Note_on_c, 3, 81, 0
5, 23760, Note_on_c, 3, 76, 0
5, 23760, Note_on_c, 3, 57, 0
5, 23760, Note_on_c, 3, 69, 0
5, 23760, Note_on_c, 3, 73, 0
5, 23820, Note_on_c, 3, 55, 100
5, 23820, Note_on_c, 3, 79, 100
5, 23820, Note_on_c, 3, 74, 100
5, 23820, Note_on_c, 3, 71, 100
5, 23820, Note_on_c, 3, 67, 100
5, 23820, Note_on_c, 3, 62, 100
5, 23880, Note_on_c, 3, 62, 0
5, 23880, Note_on_c, 3, 79, 0
5, 23880, Note_on_c, 3, 74, 0
5, 23880, Note_on_c, 3, 55, 0
5, 23880, Note_on_c, 3, 67, 0
5, 23880, Note_on_c, 3, 71, 0
5, 23880, Note_on_c, 3, 55, 100
5, 23880, Note_on_c, 3, 79, 100
5, 23880, Note_on_c, 3, 74, 100
5, 23880, Note_on_c, 3, 71, 100
5, 23880, Note_on_c, 3, 67, 100
5, 23880, Note_on_c, 3, 62, 100
5, 23940, Note_on_c, 3, 62, 0
5, 23940, Note_on_c, 3, 79, 0
5, 23940, Note_on_c, 3, 74, 0
5, 23940, Note_on_c, 3, 55, 0
5, 23940, Note_on_c, 3, 67, 0
5, 23940, Note_on_c, 3, 71, 0
5, 23940, Note_on_c, 3, 55, 100
5, 23940, Note_on_c, 3, 79, 100
5, 23940, Note_on_c, 3, 74, 100
5, 23940, Note_on_c, 3, 71, 100
5, 23940, Note_on_c, 3, 67, 100
5, 23940, Note_on_c, 3, 62, 100
5, 24000, Note_on_c, 3, 62, 0
5, 24000, Note_on_c, 3, 79, 0
5, 24000, Note_on_c, 3, 74, 0
5, 24000, Note_on_c, 3, 55, 0
5, 24000, Note_on_c, 3, 67, 0
5, 24000, Note_on_c, 3, 71, 0
5, 24000, Note_on_c, 3, 57, 100
5, 24000, Note_on_c, 3, 81, 100
5, 24000, Note_on_c, 3, 76, 100
5, 24000, Note_on_c, 3, 73, 100
5, 24000, Note_on_c, 3, 69, 100
5, 24000, Note_on_c, 3, 64, 100
5, 24060, Note_on_c, 3, 64, 0
5, 24060, Note_on_c, 3, 81, 0
5, 24060, Note_on_c, 3, 76, 0
5, 24060, Note_on_c, 3, 57, 0
5, 24060, Note_on_c, 3, 69, 0
5, 24060, Note_on_c, 3, 73, 0
5, 24060, Note_on_c, 3, 57, 100
5, 24060, Note_on_c, 3, 81, 100
5, 24060, Note_on_c, 3, 76, 100
5, 24060, Note_on_c, 3, 73, 100
5, 24060, Note_on_c, 3, 69, 100
5, 24060, Note_on_c, 3, 64, 100
5, 24120, Note_on_c, 3, 64, 0
5, 24120, Note_on_c, 3, 81, 0
5, 24120, Note_on_c, 3, 76, 0
5, 24120, Note_on_c, 3, 57, 0
5, 24120, Note_on_c, 3, 69, 0
5, 24120, Note_on_c, 3, 73, 0
5, 24120, Note_on_c, 3, 57, 100
5, 24120, Note_on_c, 3, 81, 100
5, 24120, Note_on_c, 3, 76, 100
5, 24120, Note_on_c, 3, 73, 100
5, 24120, Note_on_c, 3, 69, 100
5, 24120, Note_on_c, 3, 64, 100
5, 24180, Note_on_c, 3, 64, 0
5, 24180, Note_on_c, 3, 81, 0
5, 24180, Note_on_c, 3, 76, 0
5, 24180, Note_on_c, 3, 57, 0
5, 24180, Note_on_c, 3, 69, 0
5, 24180, Note_on_c, 3, 73, 0
5, 24180, Note_on_c, 3, 57, 100
5, 24180, Note_on_c, 3, 81, 100
5, 24180, Note_on_c, 3, 76, 100
5, 24180, Note_on_c, 3, 73, 100
5, 24180, Note_on_c, 3, 69, 100
5, 24180, Note_on_c, 3, 64, 100
5, 24240, Note_on_c, 3, 64, 0
5, 24240, Note_on_c, 3, 81, 0
5, 24240, Note_on_c, 3, 76, 0
5, 24240, Note_on_c, 3, 57, 0
5, 24240, Note_on_c, 3, 69, 0
5, 24240, Note_on_c, 3, 73, 0
5, 24300, Note_on_c, 3, 55, 100
5, 24300, Note_on_c, 3, 79, 100
5, 24300, Note_on_c, 3, 74, 100
5, 24300, Note_on_c, 3, 71, 100
5, 24300, Note_on_c, 3, 67, 100
5, 24300, Note_on_c, 3, 62, 100
5, 24360, Note_on_c, 3, 62, 0
5, 24360, Note_on_c, 3, 79, 0
5, 24360, Note_on_c, 3, 74, 0
5, 24360, Note_on_c, 3, 55, 0
5, 24360, Note_on_c, 3, 67, 0
5, 24360, Note_on_c, 3, 71, 0
5, 24360, Note_on_c, 3, 55, 100
5, 24360, Note_on_c, 3, 79, 100
5, 24360, Note_on_c, 3, 74, 100
5, 24360, Note_on_c, 3, 71, 100
5, 24360, Note_on_c, 3, 67, 100
5, 24360, Note_on_c, 3, 62, 100
5, 24420, Note_on_c, 3, 62, 0
5, 24420, Note_on_c, 3, 79, 0
5, 24420, Note_on_c, 3, 74, 0
5, 24420, Note_on_c, 3, 55, 0
5, 24420, Note_on_c, 3, 67, 0
5, 24420, Note_on_c, 3, 71, 0
5, 24420, Note_on_c, 3, 55, 100
5, 24420, Note_on_c, 3, 79, 100
5, 24420, Note_on_c, 3, 74, 100
5, 24420, Note_on_c, 3, 71, 100
5, 24420, Note_on_c, 3, 67, 100
5, 24420, Note_on_c, 3, 62, 100
5, 24480, Note_on_c, 3, 62, 0
5, 24480, Note_on_c, 3, 79, 0
5, 24480, Note_on_c, 3, 74, 0
5, 24480, Note_on_c, 3, 55, 0
5, 24480, Note_on_c, 3, 67, 0
5, 24480, Note_on_c, 3, 71, 0
5, 24480, Note_on_c, 3, 57, 100
5, 24480, Note_on_c, 3, 81, 100
5, 24480, Note_on_c, 3, 76, 100
5, 24480, Note_on_c, 3, 73, 100
5, 24480, Note_on_c, 3, 69, 100
5, 24480, Note_on_c, 3, 64, 100
5, 24540, Note_on_c, 3, 64, 0
5, 24540, Note_on_c, 3, 81, 0
5, 24540, Note_on_c, 3, 76, 0
5, 24540, Note_on_c, 3, 57, 0
5, 24540, Note_on_c, 3, 69, 0
5, 24540, Note_on_c, 3, 73, 0
5, 24540, Note_on_c, 3, 57, 100
5, 24540, Note_on_c, 3, 81, 100
5, 24540, Note_on_c, 3, 76, 100
5, 24540, Note_on_c, 3, 73, 100
5, 24540, Note_on_c, 3, 69, 100
5, 24540, Note_on_c, 3, 64, 100
5, 24600, Note_on_c, 3, 64, 0
5, 24600, Note_on_c, 3, 81, 0
5, 24600, Note_on_c, 3, 76, 0
5, 24600, Note_on_c, 3, 57, 0
5, 24600, Note_on_c, 3, 69, 0
5, 24600, Note_on_c, 3, 73, 0
5, 24600, Note_on_c, 3, 57, 100
5, 24600, Note_on_c, 3, 81, 100
5, 24600, Note_on_c, 3, 76, 100
5, 24600, Note_on_c, 3, 73, 100
5, 24600, Note_on_c, 3, 69, 100
5, 24600, Note_on_c, 3, 64, 100
5, 24660, Note_on_c, 3, 64, 0
5, 24660, Note_on_c, 3, 81, 0
5, 24660, Note_on_c, 3, 76, 0
5, 24660, Note_on_c, 3, 57, 0
5, 24660, Note_on_c, 3, 69, 0
5, 24660, Note_on_c, 3, 73, 0
5, 24660, Note_on_c, 3, 57, 100
5, 24660, Note_on_c, 3, 81, 100
5, 24660, Note_on_c, 3, 76, 100
5, 24660, Note_on_c, 3, 73, 100
5, 24660, Note_on_c, 3, 69, 100
5, 24660, Note_on_c, 3, 64, 100
5, 24720, Note_on_c, 3, 64, 0
5, 24720, Note_on_c, 3, 81, 0
5, 24720, Note_on_c, 3, 76, 0
5, 24720, Note_on_c, 3, 57, 0
5, 24720, Note_on_c, 3, 69, 0
5, 24720, Note_on_c, 3, 73, 0
5, 24780, Note_on_c, 3, 55, 100
5, 24780, Note_on_c, 3, 79, 100
5, 24780, Note_on_c, 3, 74, 100
5, 24780, Note_on_c, 3, 71, 100
5, 24780, Note_on_c, 3, 67, 100
5, 24780, Note_on_c, 3, 62, 100
5, 24840, Note_on_c, 3, 62, 0
5, 24840, Note_on_c, 3, 79, 0
5, 24840, Note_on_c, 3, 74, 0
5, 24840, Note_on_c, 3, 55, 0
5, 24840, Note_on_c, 3, 67, 0
5, 24840, Note_on_c, 3, 71, 0
5, 24840, Note_on_c, 3, 55, 100
5, 24840, Note_on_c, 3, 79, 100
5, 24840, Note_on_c, 3, 74, 100
5, 24840, Note_on_c, 3, 71, 100
5, 24840, Note_on_c, 3, 67, 100
5, 24840, Note_on_c, 3, 62, 100
5, 24900, Note_on_c, 3, 62, 0
5, 24900, Note_on_c, 3, 79, 0
5, 24900, Note_on_c, 3, 74, 0
5, 24900, Note_on_c, 3, 55, 0
5, 24900, Note_on_c, 3, 67, 0
5, 24900, Note_on_c, 3, 71, 0
5, 24900, Note_on_c, 3, 55, 100
5, 24900, Note_on_c, 3, 79, 100
5, 24900, Note_on_c, 3, 74, 100
5, 24900, Note_on_c, 3, 71, 100
5, 24900, Note_on_c, 3, 67, 100
5, 24900, Note_on_c, 3, 62, 100
5, 24960, Note_on_c, 3, 62, 0
5, 24960, Note_on_c, 3, 79, 0
5, 24960, Note_on_c, 3, 74, 0
5, 24960, Note_on_c, 3, 55, 0
5, 24960, Note_on_c, 3, 67, 0
5, 24960, Note_on_c, 3, 71, 0
5, 24960, Note_on_c, 3, 57, 100
5, 24960, Note_on_c, 3, 81, 100
5, 24960, Note_on_c, 3, 76, 100
5, 24960, Note_on_c, 3, 73, 100
5, 24960, Note_on_c, 3, 69, 100
5, 24960, Note_on_c, 3, 64, 100
5, 25020, Note_on_c, 3, 64, 0
5, 25020, Note_on_c, 3, 81, 0
5, 25020, Note_on_c, 3, 76, 0
5, 25020, Note_on_c, 3, 57, 0
5, 25020, Note_on_c, 3, 69, 0
5, 25020, Note_on_c, 3, 73, 0
5, 25020, Note_on_c, 3, 57, 100
5, 25020, Note_on_c, 3, 81, 100
5, 25020, Note_on_c, 3, 76, 100
5, 25020, Note_on_c, 3, 73, 100
5, 25020, Note_on_c, 3, 69, 100
5, 25020, Note_on_c, 3, 64, 100
5, 25080, Note_on_c, 3, 64, 0
5, 25080, Note_on_c, 3, 81, 0
5, 25080, Note_on_c, 3, 76, 0
5, 25080, Note_on_c, 3, 57, 0
5, 25080, Note_on_c, 3, 69, 0
5, 25080, Note_on_c, 3, 73, 0
5, 25080, Note_on_c, 3, 57, 100
5, 25080, Note_on_c, 3, 81, 100
5, 25080, Note_on_c, 3, 76, 100
5, 25080, Note_on_c, 3, 73, 100
5, 25080, Note_on_c, 3, 69, 100
5, 25080, Note_on_c, 3, 64, 100
5, 25140, Note_on_c, 3, 64, 0
5, 25140, Note_on_c, 3, 81, 0
5, 25140, Note_on_c, 3, 76, 0
5, 25140, Note_on_c, 3, 57, 0
5, 25140, Note_on_c, 3, 69, 0
5, 25140, Note_on_c, 3, 73, 0
5, 25140, Note_on_c, 3, 57, 100
5, 25140, Note_on_c, 3, 81, 100
5, 25140, Note_on_c, 3, 76, 100
5, 25140, Note_on_c, 3, 73, 100
5, 25140, Note_on_c, 3, 69, 100
5, 25140, Note_on_c, 3, 64, 100
5, 25200, Note_on_c, 3, 64, 0
5, 25200, Note_on_c, 3, 81, 0
5, 25200, Note_on_c, 3, 76, 0
5, 25200, Note_on_c, 3, 57, 0
5, 25200, Note_on_c, 3, 69, 0
5, 25200, Note_on_c, 3, 73, 0
5, 25260, Note_on_c, 3, 55, 100
5, 25260, Note_on_c, 3, 79, 100
5, 25260, Note_on_c, 3, 74, 100
5, 25260, Note_on_c, 3, 71, 100
5, 25260, Note_on_c, 3, 67, 100
5, 25260, Note_on_c, 3, 62, 100
5, 25320, Note_on_c, 3, 62, 0
5, 25320, Note_on_c, 3, 79, 0
5, 25320, Note_on_c, 3, 74, 0
5, 25320, Note_on_c, 3, 55, 0
5, 25320, Note_on_c, 3, 67, 0
5, 25320, Note_on_c, 3, 71, 0
5, 25320, Note_on_c, 3, 55, 100
5, 25320, Note_on_c, 3, 79, 100
5, 25320, Note_on_c, 3, 74, 100
5, 25320, Note_on_c, 3, 71, 100
5, 25320, Note_on_c, 3, 67, 100
5, 25320, Note_on_c, 3, 62, 100
5, 25380, Note_on_c, 3, 62, 0
5, 25380, Note_on_c, 3, 79, 0
5, 25380, Note_on_c, 3, 74, 0
5, 25380, Note_on_c, 3, 55, 0
5, 25380, Note_on_c, 3, 67, 0
5, 25380, Note_on_c, 3, 71, 0
5, 25380, Note_on_c, 3, 55, 100
5, 25380, Note_on_c, 3, 79, 100
5, 25380, Note_on_c, 3, 74, 100
5, 25380, Note_on_c, 3, 71, 100
5, 25380, Note_on_c, 3, 67, 100
5, 25380, Note_on_c, 3, 62, 100
5, 25440, Note_on_c, 3, 62, 0
5, 25440, Note_on_c, 3, 79, 0
5, 25440, Note_on_c, 3, 74, 0
5, 25440, Note_on_c, 3, 55, 0
5, 25440, Note_on_c, 3, 67, 0
5, 25440, Note_on_c, 3, 71, 0
5, 25440, Note_on_c, 3, 57, 100
5, 25440, Note_on_c, 3, 81, 100
5, 25440, Note_on_c, 3, 76, 100
5, 25440, Note_on_c, 3, 73, 100
5, 25440, Note_on_c, 3, 69, 100
5, 25440, Note_on_c, 3, 64, 100
5, 25500, Note_on_c, 3, 64, 0
5, 25500, Note_on_c, 3, 81, 0
5, 25500, Note_on_c, 3, 76, 0
5, 25500, Note_on_c, 3, 57, 0
5, 25500, Note_on_c, 3, 69, 0
5, 25500, Note_on_c, 3, 73, 0
5, 25500, Note_on_c, 3, 57, 100
5, 25500, Note_on_c, 3, 81, 100
5, 25500, Note_on_c, 3, 76, 100
5, 25500, Note_on_c, 3, 73, 100
5, 25500, Note_on_c, 3, 69, 100
5, 25500, Note_on_c, 3, 64, 100
5, 25560, Note_on_c, 3, 64, 0
5, 25560, Note_on_c, 3, 81, 0
5, 25560, Note_on_c, 3, 76, 0
5, 25560, Note_on_c, 3, 57, 0
5, 25560, Note_on_c, 3, 69, 0
5, 25560, Note_on_c, 3, 73, 0
5, 25560, Note_on_c, 3, 57, 100
5, 25560, Note_on_c, 3, 81, 100
5, 25560, Note_on_c, 3, 76, 100
5, 25560, Note_on_c, 3, 73, 100
5, 25560, Note_on_c, 3, 69, 100
5, 25560, Note_on_c, 3, 64, 100
5, 25620, Note_on_c, 3, 64, 0
5, 25620, Note_on_c, 3, 81, 0
5, 25620, Note_on_c, 3, 76, 0
5, 25620, Note_on_c, 3, 57, 0
5, 25620, Note_on_c, 3, 69, 0
5, 25620, Note_on_c, 3, 73, 0
5, 25620, Note_on_c, 3, 57, 100
5, 25620, Note_on_c, 3, 81, 100
5, 25620, Note_on_c, 3, 76, 100
5, 25620, Note_on_c, 3, 73, 100
5, 25620, Note_on_c, 3, 69, 100
5, 25620, Note_on_c, 3, 64, 100
5, 25680, Note_on_c, 3, 64, 0
5, 25680, Note_on_c, 3, 81, 0
5, 25680, Note_on_c, 3, 76, 0
5, 25680, Note_on_c, 3, 57, 0
5, 25680, Note_on_c, 3, 69, 0
5, 25680, Note_on_c, 3, 73, 0
5, 25740, Note_on_c, 3, 55, 100
5, 25740, Note_on_c, 3, 79, 100
5, 25740, Note_on_c, 3, 74, 100
5, 25740, Note_on_c, 3, 71, 100
5, 25740, Note_on_c, 3, 67, 100
5, 25740, Note_on_c, 3, 62, 100
5, 25800, Note_on_c, 3, 62, 0
5, 25800, Note_on_c, 3, 79, 0
5, 25800, Note_on_c, 3, 74, 0
5, 25800, Note_on_c, 3, 55, 0
5, 25800, Note_on_c, 3, 67, 0
5, 25800, Note_on_c, 3, 71, 0
5, 25800, Note_on_c, 3, 55, 100
5, 25800, Note_on_c, 3, 79, 100
5, 25800, Note_on_c, 3, 74, 100
5, 25800, Note_on_c, 3, 71, 100
5, 25800, Note_on_c, 3, 67, 100
5, 25800, Note_on_c, 3, 62, 100
5, 25860, Note_on_c, 3, 62, 0
5, 25860, Note_on_c, 3, 79, 0
5, 25860, Note_on_c, 3, 74, 0
5, 25860, Note_on_c, 3, 55, 0
5, 25860, Note_on_c, 3, 67, 0
5, 25860, Note_on_c, 3, 71, 0
5, 25860, Note_on_c, 3, 55, 100
5, 25860, Note_on_c, 3, 79, 100
5, 25860, Note_on_c, 3, 74, 100
5, 25860, Note_on_c, 3, 71, 100
5, 25860, Note_on_c, 3, 67, 100
5, 25860, Note_on_c, 3, 62, 100
5, 25920, Note_on_c, 3, 62, 0
5, 25920, Note_on_c, 3, 79, 0
5, 25920, Note_on_c, 3, 74, 0
5, 25920, Note_on_c, 3, 55, 0
5, 25920, Note_on_c, 3, 67, 0
5, 25920, Note_on_c, 3, 71, 0
5, 25920, Note_on_c, 3, 57, 100
5, 25920, Note_on_c, 3, 81, 100
5, 25920, Note_on_c, 3, 76, 100
5, 25920, Note_on_c, 3, 73, 100
5, 25920, Note_on_c, 3, 69, 100
5, 25920, Note_on_c, 3, 64, 100
5, 25980, Note_on_c, 3, 64, 0
5, 25980, Note_on_c, 3, 81, 0
5, 25980, Note_on_c, 3, 76, 0
5, 25980, Note_on_c, 3, 57, 0
5, 25980, Note_on_c, 3, 69, 0
5, 25980, Note_on_c, 3, 73, 0
5, 25980, Note_on_c, 3, 57, 100
5, 25980, Note_on_c, 3, 81, 100
5, 25980, Note_on_c, 3, 76, 100
5, 25980, Note_on_c, 3, 73, 100
5, 25980, Note_on_c, 3, 69, 100
5, 25980, Note_on_c, 3, 64, 100
5, 26040, Note_on_c, 3, 64, 0
5, 26040, Note_on_c, 3, 81, 0
5, 26040, Note_on_c, 3, 76, 0
5, 26040, Note_on_c, 3, 57, 0
5, 26040, Note_on_c, 3, 69, 0
5, 26040, Note_on_c, 3, 73, 0
5, 26040, Note_on_c, 3, 57, 100
5, 26040, Note_on_c, 3, 81, 100
5, 26040, Note_on_c, 3, 76, 100
5, 26040, Note_on_c, 3, 73, 100
5, 26040, Note_on_c, 3, 69, 100
5, 26040, Note_on_c, 3, 64, 100
5, 26100, Note_on_c, 3, 64, 0
5, 26100, Note_on_c, 3, 81, 0
5, 26100, Note_on_c, 3, 76, 0
5, 26100, Note_on_c, 3, 57, 0
5, 26100, Note_on_c, 3, 69, 0
5, 26100, Note_on_c, 3, 73, 0
5, 26100, Note_on_c, 3, 57, 100
5, 26100, Note_on_c, 3, 81, 100
5, 26100, Note_on_c, 3, 76, 100
5, 26100, Note_on_c, 3, 73, 100
5, 26100, Note_on_c, 3, 69, 100
5, 26100, Note_on_c, 3, 64, 100
5, 26160, Note_on_c, 3, 64, 0
5, 26160, Note_on_c, 3, 81, 0
5, 26160, Note_on_c, 3, 76, 0
5, 26160, Note_on_c, 3, 57, 0
5, 26160, Note_on_c, 3, 69, 0
5, 26160, Note_on_c, 3, 73, 0
5, 26220, Note_on_c, 3, 55, 100
5, 26220, Note_on_c, 3, 79, 100
5, 26220, Note_on_c, 3, 74, 100
5, 26220, Note_on_c, 3, 71, 100
5, 26220, Note_on_c, 3, 67, 100
5, 26220, Note_on_c, 3, 62, 100
5, 26280, Note_on_c, 3, 62, 0
5, 26280, Note_on_c, 3, 79, 0
5, 26280, Note_on_c, 3, 74, 0
5, 26280, Note_on_c, 3, 55, 0
5, 26280, Note_on_c, 3, 67, 0
5, 26280, Note_on_c, 3, 71, 0
5, 26280, Note_on_c, 3, 55, 100
5, 26280, Note_on_c, 3, 79, 100
5, 26280, Note_on_c, 3, 74, 100
5, 26280, Note_on_c, 3, 71, 100
5, 26280, Note_on_c, 3, 67, 100
5, 26280, Note_on_c, 3, 62, 100
5, 26340, Note_on_c, 3, 62, 0
5, 26340, Note_on_c, 3, 79, 0
5, 26340, Note_on_c, 3, 74, 0
5, 26340, Note_on_c, 3, 55, 0
5, 26340, Note_on_c, 3, 67, 0
5, 26340, Note_on_c, 3, 71, 0
5, 26340, Note_on_c, 3, 55, 100
5, 26340, Note_on_c, 3, 79, 100
5, 26340, Note_on_c, 3, 74, 100
5, 26340, Note_on_c, 3, 71, 100
5, 26340, Note_on_c, 3, 67, 100
5, 26340, Note_on_c, 3, 62, 100
5, 26400, Note_on_c, 3, 62, 0
5, 26400, Note_on_c, 3, 79, 0
5, 26400, Note_on_c, 3, 74, 0
5, 26400, Note_on_c, 3, 55, 0
5, 26400, Note_on_c, 3, 67, 0
5, 26400, Note_on_c, 3, 71, 0
5, 26400, Note_on_c, 3, 57, 100
5, 26400, Note_on_c, 3, 81, 100
5, 26400, Note_on_c, 3, 76, 100
5, 26400, Note_on_c, 3, 73, 100
5, 26400, Note_on_c, 3, 69, 100
5, 26400, Note_on_c, 3, 64, 100
5, 26460, Note_on_c, 3, 64, 0
5, 26460, Note_on_c, 3, 81, 0
5, 26460, Note_on_c, 3, 76, 0
5, 26460, Note_on_c, 3, 57, 0
5, 26460, Note_on_c, 3, 69, 0
5, 26460, Note_on_c, 3, 73, 0
5, 26460, Note_on_c, 3, 57, 100
5, 26460, Note_on_c, 3, 81, 100
5, 26460, Note_on_c, 3, 76, 100
5, 26460, Note_on_c, 3, 73, 100
5, 26460, Note_on_c, 3, 69, 100
5, 26460, Note_on_c, 3, 64, 100
5, 26520, Note_on_c, 3, 64, 0
5, 26520, Note_on_c, 3, 81, 0
5, 26520, Note_on_c, 3, 76, 0
5, 26520, Note_on_c, 3, 57, 0
5, 26520, Note_on_c, 3, 69, 0
5, 26520, Note_on_c, 3, 73, 0
5, 26520, Note_on_c, 3, 57, 100
5, 26520, Note_on_c, 3, 81, 100
5, 26520, Note_on_c, 3, 76, 100
5, 26520, Note_on_c, 3, 73, 100
5, 26520, Note_on_c, 3, 69, 100
5, 26520, Note_on_c, 3, 64, 100
5, 26580, Note_on_c, 3, 64, 0
5, 26580, Note_on_c, 3, 81, 0
5, 26580, Note_on_c, 3, 76, 0
5, 26580, Note_on_c, 3, 57, 0
5, 26580, Note_on_c, 3, 69, 0
5, 26580, Note_on_c, 3, 73, 0
5, 26580, Note_on_c, 3, 57, 100
5, 26580, Note_on_c, 3, 81, 100
5, 26580, Note_on_c, 3, 76, 100
5, 26580, Note_on_c, 3, 73, 100
5, 26580, Note_on_c, 3, 69, 100
5, 26580, Note_on_c, 3, 64, 100
5, 26640, Note_on_c, 3, 64, 0
5, 26640, Note_on_c, 3, 81, 0
5, 26640, Note_on_c, 3, 76, 0
5, 26640, Note_on_c, 3, 57, 0
5, 26640, Note_on_c, 3, 69, 0
5, 26640, Note_on_c, 3, 73, 0
5, 26700, Note_on_c, 3, 55, 100
5, 26700, Note_on_c, 3, 79, 100
5, 26700, Note_on_c, 3, 74, 100
5, 26700, Note_on_c, 3, 71, 100
5, 26700, Note_on_c, 3, 67, 100
5, 26700, Note_on_c, 3, 62, 100
5, 26760, Note_on_c, 3, 62, 0
5, 26760, Note_on_c, 3, 79, 0
5, 26760, Note_on_c, 3, 74, 0
5, 26760, Note_on_c, 3, 55, 0
5, 26760, Note_on_c, 3, 67, 0
5, 26760, Note_on_c, 3, 71, 0
5, 26760, Note_on_c, 3, 55, 100
5, 26760, Note_on_c, 3, 79, 100
5, 26760, Note_on_c, 3, 74, 100
5, 26760, Note_on_c, 3, 71, 100
5, 26760, Note_on_c, 3, 67, 100
5, 26760, Note_on_c, 3, 62, 100
5, 26820, Note_on_c, 3, 62, 0
5, 26820, Note_on_c, 3, 79, 0
5, 26820, Note_on_c, 3, 74, 0
5, 26820, Note_on_c, 3, 55, 0
5, 26820, Note_on_c, 3, 67, 0
5, 26820, Note_on_c, 3, 71, 0
5, 26820, Note_on_c, 3, 55, 100
5, 26820, Note_on_c, 3, 79, 100
5, 26820, Note_on_c, 3, 74, 100
5, 26820, Note_on_c, 3, 71, 100
5, 26820, Note_on_c, 3, 67, 100
5, 26820, Note_on_c, 3, 62, 100
5, 26880, Note_on_c, 3, 62, 0
5, 26880, Note_on_c, 3, 79, 0
5, 26880, Note_on_c, 3, 74, 0
5, 26880, Note_on_c, 3, 55, 0
5, 26880, Note_on_c, 3, 67, 0
5, 26880, Note_on_c, 3, 71, 0
5, 26880, Note_on_c, 3, 57, 100
5, 26880, Note_on_c, 3, 81, 100
5, 26880, Note_on_c, 3, 76, 100
5, 26880, Note_on_c, 3, 73, 100
5, 26880, Note_on_c, 3, 69, 100
5, 26880, Note_on_c, 3, 64, 100
5, 26940, Note_on_c, 3, 64, 0
5, 26940, Note_on_c, 3, 81, 0
5, 26940, Note_on_c, 3, 76, 0
5, 26940, Note_on_c, 3, 57, 0
5, 26940, Note_on_c, 3, 69, 0
5, 26940, Note_on_c, 3, 73, 0
5, 26940, Note_on_c, 3, 57, 100
5, 26940, Note_on_c, 3, 81, 100
5, 26940, Note_on_c, 3, 76, 100
5, 26940, Note_on_c, 3, 73, 100
5, 26940, Note_on_c, 3, 69, 100
5, 26940, Note_on_c, 3, 64, 100
5, 27000, Note_on_c, 3, 64, 0
5, 27000, Note_on_c, 3, 81, 0
5, 27000, Note_on_c, 3, 76, 0
5, 27000, Note_on_c, 3, 57, 0
5, 27000, Note_on_c, 3, 69, 0
5, 27000, Note_on_c, 3, 73, 0
5, 27000, Note_on_c, 3, 57, 100
5, 27000, Note_on_c, 3, 81, 100
5, 27000, Note_on_c, 3, 76, 100
5, 27000, Note_on_c, 3, 73, 100
5, 27000, Note_on_c, 3, 69, 100
5, 27000, Note_on_c, 3, 64, 100
5, 27060, Note_on_c, 3, 64, 0
5, 27060, Note_on_c, 3, 81, 0
5, 27060, Note_on_c, 3, 76, 0
5, 27060, Note_on_c, 3, 57, 0
5, 27060, Note_on_c, 3, 69, 0
5, 27060, Note_on_c, 3, 73, 0
5, 27060, Note_on_c, 3, 57, 100
5, 27060, Note_on_c, 3, 81, 100
5, 27060, Note_on_c, 3, 76, 100
5, 27060, Note_on_c, 3, 73, 100
5, 27060, Note_on_c, 3, 69, 100
5, 27060, Note_on_c, 3, 64, 100
5, 27120, Note_on_c, 3, 64, 0
5, 27120, Note_on_c, 3, 81, 0
5, 27120, Note_on_c, 3, 76, 0
5, 27120, Note_on_c, 3, 57, 0
5, 27120, Note_on_c, 3, 69, 0
5, 27120, Note_on_c, 3, 73, 0
5, 27180, Note_on_c, 3, 55, 100
5, 27180, Note_on_c, 3, 79, 100
5, 27180, Note_on_c, 3, 74, 100
5, 27180, Note_on_c, 3, 71, 100
5, 27180, Note_on_c, 3, 67, 100
5, 27180, Note_on_c, 3, 62, 100
5, 27240, Note_on_c, 3, 62, 0
5, 27240, Note_on_c, 3, 79, 0
5, 27240, Note_on_c, 3, 74, 0
5, 27240, Note_on_c, 3, 55, 0
5, 27240, Note_on_c, 3, 67, 0
5, 27240, Note_on_c, 3, 71, 0
5, 27240, Note_on_c, 3, 55, 100
5, 27240, Note_on_c, 3, 79, 100
5, 27240, Note_on_c, 3, 74, 100
5, 27240, Note_on_c, 3, 71, 100
5, 27240, Note_on_c, 3, 67, 100
5, 27240, Note_on_c, 3, 62, 100
5, 27300, Note_on_c, 3, 62, 0
5, 27300, Note_on_c, 3, 79, 0
5, 27300, Note_on_c, 3, 74, 0
5, 27300, Note_on_c, 3, 55, 0
5, 27300, Note_on_c, 3, 67, 0
5, 27300, Note_on_c, 3, 71, 0
5, 27300, Note_on_c, 3, 55, 100
5, 27300, Note_on_c, 3, 79, 100
5, 27300, Note_on_c, 3, 74, 100
5, 27300, Note_on_c, 3, 71, 100
5, 27300, Note_on_c, 3, 67, 100
5, 27300, Note_on_c, 3, 62, 100
5, 27360, Note_on_c, 3, 62, 0
5, 27360, Note_on_c, 3, 79, 0
5, 27360, Note_on_c, 3, 74, 0
5, 27360, Note_on_c, 3, 55, 0
5, 27360, Note_on_c, 3, 67, 0
5, 27360, Note_on_c, 3, 71, 0
5, 27360, Note_on_c, 3, 57, 100
5, 27360, Note_on_c, 3, 81, 100
5, 27360, Note_on_c, 3, 76, 100
5, 27360, Note_on_c, 3, 73, 100
5, 27360, Note_on_c, 3, 69, 100
5, 27360, Note_on_c, 3, 64, 100
5, 27420, Note_on_c, 3, 64, 0
5, 27420, Note_on_c, 3, 81, 0
5, 27420, Note_on_c, 3, 76, 0
5, 27420, Note_on_c, 3, 57, 0
5, 27420, Note_on_c, 3, 69, 0
5, 27420, Note_on_c, 3, 73, 0
5, 27420, Note_on_c, 3, 57, 100
5, 27420, Note_on_c, 3, 81, 100
5, 27420, Note_on_c, 3, 76, 100
5, 27420, Note_on_c, 3, 73, 100
5, 27420, Note_on_c, 3, 69, 100
5, 27420, Note_on_c, 3, 64, 100
5, 27480, Note_on_c, 3, 64, 0
5, 27480, Note_on_c, 3, 81, 0
5, 27480, Note_on_c, 3, 76, 0
5, 27480, Note_on_c, 3, 57, 0
5, 27480, Note_on_c, 3, 69, 0
5, 27480, Note_on_c, 3, 73, 0
5, 27480, Note_on_c, 3, 57, 100
5, 27480, Note_on_c, 3, 81, 100
5, 27480, Note_on_c, 3, 76, 100
5, 27480, Note_on_c, 3, 73, 100
5, 27480, Note_on_c, 3, 69, 100
5, 27480, Note_on_c, 3, 64, 100
5, 27540, Note_on_c, 3, 64, 0
5, 27540, Note_on_c, 3, 81, 0
5, 27540, Note_on_c, 3, 76, 0
5, 27540, Note_on_c, 3, 57, 0
5, 27540, Note_on_c, 3, 69, 0
5, 27540, Note_on_c, 3, 73, 0
5, 27540, Note_on_c, 3, 57, 100
5, 27540, Note_on_c, 3, 81, 100
5, 27540, Note_on_c, 3, 76, 100
5, 27540, Note_on_c, 3, 73, 100
5, 27540, Note_on_c, 3, 69, 100
5, 27540, Note_on_c, 3, 64, 100
5, 27600, Note_on_c, 3, 64, 0
5, 27600, Note_on_c, 3, 81, 0
5, 27600, Note_on_c, 3, 76, 0
5, 27600, Note_on_c, 3, 57, 0
5, 27600, Note_on_c, 3, 69, 0
5, 27600, Note_on_c, 3, 73, 0
5, 27660, Note_on_c, 3, 55, 100
5, 27660, Note_on_c, 3, 79, 100
5, 27660, Note_on_c, 3, 74, 100
5, 27660, Note_on_c, 3, 71, 100
5, 27660, Note_on_c, 3, 67, 100
5, 27660, Note_on_c, 3, 62, 100
5, 27720, Note_on_c, 3, 62, 0
5, 27720, Note_on_c, 3, 79, 0
5, 27720, Note_on_c, 3, 74, 0
5, 27720, Note_on_c, 3, 55, 0
5, 27720, Note_on_c, 3, 67, 0
5, 27720, Note_on_c, 3, 71, 0
5, 27720, Note_on_c, 3, 55, 100
5, 27720, Note_on_c, 3, 79, 100
5, 27720, Note_on_c, 3, 74, 100
5, 27720, Note_on_c, 3, 71, 100
5, 27720, Note_on_c, 3, 67, 100
5, 27720, Note_on_c, 3, 62, 100
5, 27780, Note_on_c, 3, 62, 0
5, 27780, Note_on_c, 3, 79, 0
5, 27780, Note_on_c, 3, 74, 0
5, 27780, Note_on_c, 3, 55, 0
5, 27780, Note_on_c, 3, 67, 0
5, 27780, Note_on_c, 3, 71, 0
5, 27780, Note_on_c, 3, 55, 100
5, 27780, Note_on_c, 3, 79, 100
5, 27780, Note_on_c, 3, 74, 100
5, 27780, Note_on_c, 3, 71, 100
5, 27780, Note_on_c, 3, 67, 100
5, 27780, Note_on_c, 3, 62, 100
5, 27840, Note_on_c, 3, 62, 0
5, 27840, Note_on_c, 3, 79, 0
5, 27840, Note_on_c, 3, 74, 0
5, 27840, Note_on_c, 3, 55, 0
5, 27840, Note_on_c, 3, 67, 0
5, 27840, Note_on_c, 3, 71, 0
5, 27960, Note_on_c, 3, 78, 100
5, 27960, Note_on_c, 3, 74, 100
5, 27960, Note_on_c, 3, 71, 100
5, 27960, Note_on_c, 3, 66, 100
5, 27960, Note_on_c, 3, 59, 100
5, 27960, Note_on_c, 3, 54, 100
5, 28080, Note_on_c, 3, 54, 0
5, 28080, Note_on_c, 3, 74, 0
5, 28080, Note_on_c, 3, 71, 0
5, 28080, Note_on_c, 3, 78, 0
5, 28080, Note_on_c, 3, 59, 0
5, 28080, Note_on_c, 3, 66, 0
5, 28080, Note_on_c, 3, 78, 100
5, 28080, Note_on_c, 3, 74, 100
5, 28080, Note_on_c, 3, 71, 100
5, 28080, Note_on_c, 3, 66, 100
5, 28080, Note_on_c, 3, 59, 100
5, 28080, Note_on_c, 3, 54, 100
5, 28200, Note_on_c, 3, 54, 0
5, 28200, Note_on_c, 3, 74, 0
5, 28200, Note_on_c, 3, 71, 0
5, 28200, Note_on_c, 3, 78, 0
5, 28200, Note_on_c, 3, 59, 0
5, 28200, Note_on_c, 3, 66, 0
5, 28200, Note_on_c, 3, 78, 100
5, 28200, Note_on_c, 3, 74, 100
5, 28200, Note_on_c, 3, 71, 100
5, 28200, Note_on_c, 3, 66, 100
5, 28200, Note_on_c, 3, 59, 100
5, 28200, Note_on_c, 3, 54, 100
5, 28320, Note_on_c, 3, 54, 0
5, 28320, Note_on_c, 3, 74, 0
5, 28320, Note_on_c, 3, 71, 0
5, 28320, Note_on_c, 3, 78, 0
5, 28320, Note_on_c, 3, 59, 0
5, 28320, Note_on_c, 3, 66, 0
5, 28320, Note_on_c, 3, 78, 100
5, 28320, Note_on_c, 3, 73, 100
5, 28320, Note_on_c, 3, 70, 100
5, 28320, Note_on_c, 3, 66, 100
5, 28320, Note_on_c, 3, 61, 100
5, 28320, Note_on_c, 3, 54, 100
5, 28380, Note_on_c, 3, 54, 0
5, 28380, Note_on_c, 3, 73, 0
5, 28380, Note_on_c, 3, 70, 0
5, 28380, Note_on_c, 3, 78, 0
5, 28380, Note_on_c, 3, 61, 0
5, 28380, Note_on_c, 3, 66, 0
5, 28380, Note_on_c, 3, 78, 100
5, 28380, Note_on_c, 3, 73, 100
5, 28380, Note_on_c, 3, 70, 100
5, 28380, Note_on_c, 3, 66, 100
5, 28380, Note_on_c, 3, 61, 100
5, 28380, Note_on_c, 3, 54, 100
5, 28440, Note_on_c, 3, 70, 0
5, 28500, Note_on_c, 3, 73, 0
5, 28500, Note_on_c, 3, 66, 0
5, 28500, Note_on_c, 3, 78, 0
5, 28500, Note_on_c, 3, 54, 0
5, 28500, Note_on_c, 3, 61, 0
5, 28500, Note_on_c, 3, 78, 100
5, 28500, Note_on_c, 3, 73, 100
5, 28500, Note_on_c, 3, 70, 100
5, 28500, Note_on_c, 3, 66, 100
5, 28500, Note_on_c, 3, 61, 100
5, 28500, Note_on_c, 3, 54, 100
5, 28560, Note_on_c, 3, 70, 0
5, 28800, Note_on_c, 3, 73, 0
5, 28800, Note_on_c, 3, 66, 0
5, 28800, Note_on_c, 3, 78, 0
5, 28800, Note_on_c, 3, 54, 0
5, 28800, Note_on_c, 3, 61, 0
5, 28800, Note_on_c, 3, 79, 100
5, 28800, Note_on_c, 3, 74, 100
5, 28800, Note_on_c, 3, 67, 100
5, 28800, Note_on_c, 3, 59, 100
5, 28800, Note_on_c, 3, 62, 100
5, 28800, Note_on_c, 3, 55, 100
5, 28920, Note_on_c, 3, 55, 0
5, 28920, Note_on_c, 3, 74, 0
5, 28920, Note_on_c, 3, 67, 0
5, 28920, Note_on_c, 3, 79, 0
5, 28920, Note_on_c, 3, 62, 0
5, 28920, Note_on_c, 3, 59, 0
5, 28920, Note_on_c, 3, 79, 100
5, 28920, Note_on_c, 3, 74, 100
5, 28920, Note_on_c, 3, 67, 100
5, 28920, Note_on_c, 3, 62, 100
5, 28920, Note_on_c, 3, 59, 100
5, 28920, Note_on_c, 3, 55, 100
5, 29040, Note_on_c, 3, 55, 0
5, 29040, Note_on_c, 3, 74, 0
5, 29040, Note_on_c, 3, 67, 0
5, 29040, Note_on_c, 3, 79, 0
5, 29040, Note_on_c, 3, 59, 0
5, 29040, Note_on_c, 3, 62, 0
5, 29040, Note_on_c, 3, 79, 100
5, 29040, Note_on_c, 3, 74, 100
5, 29040, Note_on_c, 3, 67, 100
5, 29040, Note_on_c, 3, 62, 100
5, 29040, Note_on_c, 3, 59, 100
5, 29040, Note_on_c, 3, 55, 100
5, 29160, Note_on_c, 3, 55, 0
5, 29160, Note_on_c, 3, 74, 0
5, 29160, Note_on_c, 3, 67, 0
5, 29160, Note_on_c, 3, 79, 0
5, 29160, Note_on_c, 3, 59, 0
5, 29160, Note_on_c, 3, 62, 0
5, 29160, Note_on_c, 3, 79, 100
5, 29160, Note_on_c, 3, 74, 100
5, 29160, Note_on_c, 3, 67, 100
5, 29160, Note_on_c, 3, 62, 100
5, 29160, Note_on_c, 3, 59, 100
5, 29160, Note_on_c, 3, 55, 100
5, 29280, Note_on_c, 3, 55, 0
5, 29280, Note_on_c, 3, 74, 0
5, 29280, Note_on_c, 3, 67, 0
5, 29280, Note_on_c, 3, 79, 0
5, 29280, Note_on_c, 3, 59, 0
5, 29280, Note_on_c, 3, 62, 0
5, 29280, Note_on_c, 3, 77, 100
5, 29280, Note_on_c, 3, 72, 100
5, 29280, Note_on_c, 3, 69, 100
5, 29280, Note_on_c, 3, 65, 100
5, 29280, Note_on_c, 3, 60, 100
5, 29280, Note_on_c, 3, 53, 100
5, 29520, Note_on_c, 3, 53, 0
5, 29520, Note_on_c, 3, 72, 0
5, 29520, Note_on_c, 3, 69, 0
5, 29520, Note_on_c, 3, 77, 0
5, 29520, Note_on_c, 3, 60, 0
5, 29520, Note_on_c, 3, 65, 0
5, 29520, Note_on_c, 3, 77, 100
5, 29520, Note_on_c, 3, 72, 100
5, 29520, Note_on_c, 3, 69, 100
5, 29520, Note_on_c, 3, 65, 100
5, 29520, Note_on_c, 3, 60, 100
5, 29520, Note_on_c, 3, 53, 100
5, 29640, Note_on_c, 3, 53, 0
5, 29640, Note_on_c, 3, 72, 0
5, 29640, Note_on_c, 3, 69, 0
5, 29640, Note_on_c, 3, 77, 0
5, 29640, Note_on_c, 3, 60, 0
5, 29640, Note_on_c, 3, 65, 0
5, 29640, Note_on_c, 3, 77, 100
5, 29640, Note_on_c, 3, 72, 100
5, 29640, Note_on_c, 3, 69, 100
5, 29640, Note_on_c, 3, 65, 100
5, 29640, Note_on_c, 3, 60, 100
5, 29640, Note_on_c, 3, 53, 100
5, 29760, Note_on_c, 3, 53, 0
5, 29760, Note_on_c, 3, 72, 0
5, 29760, Note_on_c, 3, 69, 0
5, 29760, Note_on_c, 3, 77, 0
5, 29760, Note_on_c, 3, 60, 0
5, 29760, Note_on_c, 3, 65, 0
5, 29760, Note_on_c, 3, 74, 100
5, 29760, Note_on_c, 3, 71, 100
5, 29760, Note_on_c, 3, 66, 100
5, 29760, Note_on_c, 3, 59, 100
5, 29760, Note_on_c, 3, 54, 100
5, 29760, Note_on_c, 3, 78, 100
5, 29880, Note_on_c, 3, 78, 0
5, 29880, Note_on_c, 3, 71, 0
5, 29880, Note_on_c, 3, 66, 0
5, 29880, Note_on_c, 3, 74, 0
5, 29880, Note_on_c, 3, 54, 0
5, 29880, Note_on_c, 3, 59, 0
5, 29880, Note_on_c, 3, 74, 100
5, 29880, Note_on_c, 3, 71, 100
5, 29880, Note_on_c, 3, 66, 100
5, 29880, Note_on_c, 3, 59, 100
5, 29880, Note_on_c, 3, 54, 100
5, 29880, Note_on_c, 3, 78, 100
5, 30000, Note_on_c, 3, 78, 0
5, 30000, Note_on_c, 3, 71, 0
5, 30000, Note_on_c, 3, 66, 0
5, 30000, Note_on_c, 3, 74, 0
5, 30000, Note_on_c, 3, 54, 0
5, 30000, Note_on_c, 3, 59, 0
5, 30000, Note_on_c, 3, 78, 100
5, 30000, Note_on_c, 3, 66, 100
5, 30000, Note_on_c, 3, 59, 100
5, 30000, Note_on_c, 3, 54, 100
5, 30000, Note_on_c, 3, 74, 100
5, 30000, Note_on_c, 3, 71, 100
5, 30120, Note_on_c, 3, 71, 0
5, 30120, Note_on_c, 3, 66, 0
5, 30120, Note_on_c, 3, 59, 0
5, 30120, Note_on_c, 3, 78, 0
5, 30120, Note_on_c, 3, 74, 0
5, 30120, Note_on_c, 3, 54, 0
5, 30120, Note_on_c, 3, 71, 100
5, 30120, Note_on_c, 3, 78, 100
5, 30120, Note_on_c, 3, 74, 100
5, 30120, Note_on_c, 3, 59, 100
5, 30120, Note_on_c, 3, 54, 100
5, 30120, Note_on_c, 3, 66, 100
5, 30240, Note_on_c, 3, 66, 0
5, 30240, Note_on_c, 3, 78, 0
5, 30240, Note_on_c, 3, 74, 0
5, 30240, Note_on_c, 3, 71, 0
5, 30240, Note_on_c, 3, 54, 0
5, 30240, Note_on_c, 3, 59, 0
5, 30240, Note_on_c, 3, 78, 100
5, 30240, Note_on_c, 3, 70, 100
5, 30240, Note_on_c, 3, 66, 100
5, 30240, Note_on_c, 3, 73, 100
5, 30240, Note_on_c, 3, 54, 100
5, 30240, Note_on_c, 3, 61, 100
5, 30300, Note_on_c, 3, 61, 0
5, 30300, Note_on_c, 3, 70, 0
5, 30300, Note_on_c, 3, 66, 0
5, 30300, Note_on_c, 3, 78, 0
5, 30300, Note_on_c, 3, 54, 0
5, 30300, Note_on_c, 3, 73, 0
5, 30300, Note_on_c, 3, 73, 100
5, 30300, Note_on_c, 3, 70, 100
5, 30300, Note_on_c, 3, 61, 100
5, 30300, Note_on_c, 3, 54, 100
5, 30300, Note_on_c, 3, 66, 100
5, 30300, Note_on_c, 3, 78, 100
5, 30360, Note_on_c, 3, 70, 0
5, 30420, Note_on_c, 3, 61, 0
5, 30420, Note_on_c, 3, 54, 0
5, 30420, Note_on_c, 3, 73, 0
5, 30420, Note_on_c, 3, 78, 0
5, 30420, Note_on_c, 3, 66, 0
5, 30420, Note_on_c, 3, 78, 100
5, 30420, Note_on_c, 3, 73, 100
5, 30420, Note_on_c, 3, 70, 100
5, 30420, Note_on_c, 3, 66, 100
5, 30420, Note_on_c, 3, 61, 100
5, 30420, Note_on_c, 3, 54, 100
5, 30480, Note_on_c, 3, 70, 0
5, 30720, Note_on_c, 3, 73, 0
5, 30720, Note_on_c, 3, 66, 0
5, 30720, Note_on_c, 3, 78, 0
5, 30720, Note_on_c, 3, 54, 0
5, 30720, Note_on_c, 3, 61, 0
5, 30720, Note_on_c, 3, 79, 100
5, 30720, Note_on_c, 3, 74, 100
5, 30720, Note_on_c, 3, 67, 100
5, 30720, Note_on_c, 3, 59, 100
5, 30720, Note_on_c, 3, 62, 100
5, 30720, Note_on_c, 3, 55, 100
5, 30840, Note_on_c, 3, 55, 0
5, 30840, Note_on_c, 3, 74, 0
5, 30840, Note_on_c, 3, 67, 0
5, 30840, Note_on_c, 3, 79, 0
5, 30840, Note_on_c, 3, 62, 0
5, 30840, Note_on_c, 3, 59, 0
5, 30840, Note_on_c, 3, 79, 100
5, 30840, Note_on_c, 3, 74, 100
5, 30840, Note_on_c, 3, 67, 100
5, 30840, Note_on_c, 3, 62, 100
5, 30840, Note_on_c, 3, 59, 100
5, 30840, Note_on_c, 3, 55, 100
5, 30960, Note_on_c, 3, 55, 0
5, 30960, Note_on_c, 3, 74, 0
5, 30960, Note_on_c, 3, 67, 0
5, 30960, Note_on_c, 3, 79, 0
5, 30960, Note_on_c, 3, 59, 0
5, 30960, Note_on_c, 3, 62, 0
5, 30960, Note_on_c, 3, 79, 100
5, 30960, Note_on_c, 3, 74, 100
5, 30960, Note_on_c, 3, 67, 100
5, 30960, Note_on_c, 3, 62, 100
5, 30960, Note_on_c, 3, 59, 100
5, 30960, Note_on_c, 3, 55, 100
5, 31080, Note_on_c, 3, 55, 0
5, 31080, Note_on_c, 3, 74, 0
5, 31080, Note_on_c, 3, 67, 0
5, 31080, Note_on_c, 3, 79, 0
5, 31080, Note_on_c, 3, 59, 0
5, 31080, Note_on_c, 3, 62, 0
5, 31080, Note_on_c, 3, 79, 100
5, 31080, Note_on_c, 3, 74, 100
5, 31080, Note_on_c, 3, 67, 100
5, 31080, Note_on_c, 3, 62, 100
5, 31080, Note_on_c, 3, 59, 100
5, 31080, Note_on_c, 3, 55, 100
5, 31200, Note_on_c, 3, 55, 0
5, 31200, Note_on_c, 3, 74, 0
5, 31200, Note_on_c, 3, 67, 0
5, 31200, Note_on_c, 3, 79, 0
5, 31200, Note_on_c, 3, 59, 0
5, 31200, Note_on_c, 3, 62, 0
5, 31200, Note_on_c, 3, 77, 100
5, 31200, Note_on_c, 3, 72, 100
5, 31200, Note_on_c, 3, 69, 100
5, 31200, Note_on_c, 3, 65, 100
5, 31200, Note_on_c, 3, 60, 100
5, 31200, Note_on_c, 3, 53, 100
5, 31440, Note_on_c, 3, 53, 0
5, 31440, Note_on_c, 3, 72, 0
5, 31440, Note_on_c, 3, 69, 0
5, 31440, Note_on_c, 3, 77, 0
5, 31440, Note_on_c, 3, 60, 0
5, 31440, Note_on_c, 3, 65, 0
5, 31440, Note_on_c, 3, 77, 100
5, 31440, Note_on_c, 3, 72, 100
5, 31440, Note_on_c, 3, 69, 100
5, 31440, Note_on_c, 3, 65, 100
5, 31440, Note_on_c, 3, 60, 100
5, 31440, Note_on_c, 3, 53, 100
5, 31560, Note_on_c, 3, 53, 0
5, 31560, Note_on_c, 3, 72, 0
5, 31560, Note_on_c, 3, 69, 0
5, 31560, Note_on_c, 3, 77, 0
5, 31560, Note_on_c, 3, 60, 0
5, 31560, Note_on_c, 3, 65, 0
5, 31560, Note_on_c, 3, 77, 100
5, 31560, Note_on_c, 3, 72, 100
5, 31560, Note_on_c, 3, 69, 100
5, 31560, Note_on_c, 3, 65, 100
5, 31560, Note_on_c, 3, 60, 100
5, 31560, Note_on_c, 3, 53, 100
5, 31680, Note_on_c, 3, 53, 0
5, 31680, Note_on_c, 3, 72, 0
5, 31680, Note_on_c, 3, 69, 0
5, 31680, Note_on_c, 3, 77, 0
5, 31680, Note_on_c, 3, 60, 0
5, 31680, Note_on_c, 3, 65, 0
5, 31740, Note_on_c, 3, 78, 100
5, 31740, Note_on_c, 3, 74, 100
5, 31740, Note_on_c, 3, 71, 100
5, 31740, Note_on_c, 3, 66, 100
5, 31740, Note_on_c, 3, 59, 100
5, 31740, Note_on_c, 3, 54, 100
5, 31800, Note_on_c, 3, 54, 0
5, 31800, Note_on_c, 3, 74, 0
5, 31800, Note_on_c, 3, 71, 0
5, 31800, Note_on_c, 3, 78, 0
5, 31800, Note_on_c, 3, 59, 0
5, 31800, Note_on_c, 3, 66, 0
5, 31800, Note_on_c, 3, 78, 100
5, 31800, Note_on_c, 3, 74, 100
5, 31800, Note_on_c, 3, 71, 100
5, 31800, Note_on_c, 3, 66, 100
5, 31800, Note_on_c, 3, 59, 100
5, 31800, Note_on_c, 3, 54, 100
5, 31860, Note_on_c, 3, 54, 0
5, 31860, Note_on_c, 3, 74, 0
5, 31860, Note_on_c, 3, 71, 0
5, 31860, Note_on_c, 3, 78, 0
5, 31860, Note_on_c, 3, 59, 0
5, 31860, Note_on_c, 3, 66, 0
5, 31860, Note_on_c, 3, 78, 100
5, 31860, Note_on_c, 3, 74, 100
5, 31860, Note_on_c, 3, 71, 100
5, 31860, Note_on_c, 3, 66, 100
5, 31860, Note_on_c, 3, 59, 100
5, 31860, Note_on_c, 3, 54, 100
5, 31920, Note_on_c, 3, 54, 0
5, 31920, Note_on_c, 3, 74, 0
5, 31920, Note_on_c, 3, 71, 0
5, 31920, Note_on_c, 3, 78, 0
5, 31920, Note_on_c, 3, 59, 0
5, 31920, Note_on_c, 3, 66, 0
5, 31980, Note_on_c, 3, 78, 100
5, 31980, Note_on_c, 3, 73, 100
5, 31980, Note_on_c, 3, 70, 100
5, 31980, Note_on_c, 3, 66, 100
5, 31980, Note_on_c, 3, 61, 100
5, 31980, Note_on_c, 3, 54, 100
5, 32040, Note_on_c, 3, 54, 0
5, 32040, Note_on_c, 3, 73, 0
5, 32040, Note_on_c, 3, 70, 0
5, 32040, Note_on_c, 3, 78, 0
5, 32040, Note_on_c, 3, 61, 0
5, 32040, Note_on_c, 3, 66, 0
5, 32040, Note_on_c, 3, 78, 100
5, 32040, Note_on_c, 3, 73, 100
5, 32040, Note_on_c, 3, 70, 100
5, 32040, Note_on_c, 3, 66, 100
5, 32040, Note_on_c, 3, 61, 100
5, 32040, Note_on_c, 3, 54, 100
5, 32100, Note_on_c, 3, 54, 0
5, 32100, Note_on_c, 3, 73, 0
5, 32100, Note_on_c, 3, 70, 0
5, 32100, Note_on_c, 3, 78, 0
5, 32100, Note_on_c, 3, 61, 0
5, 32100, Note_on_c, 3, 66, 0
5, 32100, Note_on_c, 3, 78, 100
5, 32100, Note_on_c, 3, 73, 100
5, 32100, Note_on_c, 3, 70, 100
5, 32100, Note_on_c, 3, 66, 100
5, 32100, Note_on_c, 3, 61, 100
5, 32100, Note_on_c, 3, 54, 100
5, 32160, Note_on_c, 3, 54, 0
5, 32160, Note_on_c, 3, 73, 0
5, 32160, Note_on_c, 3, 70, 0
5, 32160, Note_on_c, 3, 78, 0
5, 32160, Note_on_c, 3, 61, 0
5, 32160, Note_on_c, 3, 66, 0
5, 32160, Note_on_c, 3, 57, 100
5, 32160, Note_on_c, 3, 81, 100
5, 32160, Note_on_c, 3, 76, 100
5, 32160, Note_on_c, 3, 73, 100
5, 32160, Note_on_c, 3, 69, 100
5, 32160, Note_on_c, 3, 64, 100
5, 32220, Note_on_c, 3, 64, 0
5, 32220, Note_on_c, 3, 81, 0
5, 32220, Note_on_c, 3, 76, 0
5, 32220, Note_on_c, 3, 57, 0
5, 32220, Note_on_c, 3, 69, 0
5, 32220, Note_on_c, 3, 73, 0
5, 32220, Note_on_c, 3, 57, 100
5, 32220, Note_on_c, 3, 81, 100
5, 32220, Note_on_c, 3, 76, 100
5, 32220, Note_on_c, 3, 73, 100
5, 32220, Note_on_c, 3, 69, 100
5, 32220, Note_on_c, 3, 64, 100
5, 32280, Note_on_c, 3, 64, 0
5, 32280, Note_on_c, 3, 81, 0
5, 32280, Note_on_c, 3, 76, 0
5, 32280, Note_on_c, 3, 57, 0
5, 32280, Note_on_c, 3, 69, 0
5, 32280, Note_on_c, 3, 73, 0
5, 32280, Note_on_c, 3, 57, 100
5, 32280, Note_on_c, 3, 81, 100
5, 32280, Note_on_c, 3, 76, 100
5, 32280, Note_on_c, 3, 73, 100
5, 32280, Note_on_c, 3, 69, 100
5, 32280, Note_on_c, 3, 64, 100
5, 32340, Note_on_c, 3, 64, 0
5, 32340, Note_on_c, 3, 81, 0
5, 32340, Note_on_c, 3, 76, 0
5, 32340, Note_on_c, 3, 57, 0
5, 32340, Note_on_c, 3, 69, 0
5, 32340, Note_on_c, 3, 73, 0
5, 32340, Note_on_c, 3, 57, 100
5, 32340, Note_on_c, 3, 81, 100
5, 32340, Note_on_c, 3, 76, 100
5, 32340, Note_on_c, 3, 73, 100
5, 32340, Note_on_c, 3, 69, 100
5, 32340, Note_on_c, 3, 64, 100
5, 32400, Note_on_c, 3, 64, 0
5, 32400, Note_on_c, 3, 81, 0
5, 32400, Note_on_c, 3, 76, 0
5, 32400, Note_on_c, 3, 57, 0
5, 32400, Note_on_c, 3, 69, 0
5, 32400, Note_on_c, 3, 73, 0
5, 32460, Note_on_c, 3, 55, 100
5, 32460, Note_on_c, 3, 79, 100
5, 32460, Note_on_c, 3, 74, 100
5, 32460, Note_on_c, 3, 71, 100
5, 32460, Note_on_c, 3, 67, 100
5, 32460, Note_on_c, 3, 62, 100
5, 32520, Note_on_c, 3, 62, 0
5, 32520, Note_on_c, 3, 79, 0
5, 32520, Note_on_c, 3, 74, 0
5, 32520, Note_on_c, 3, 55, 0
5, 32520, Note_on_c, 3, 67, 0
5, 32520, Note_on_c, 3, 71, 0
5, 32520, Note_on_c, 3, 55, 100
5, 32520, Note_on_c, 3, 79, 100
5, 32520, Note_on_c, 3, 74, 100
5, 32520, Note_on_c, 3, 71, 100
5, 32520, Note_on_c, 3, 67, 100
5, 32520, Note_on_c, 3, 62, 100
5, 32580, Note_on_c, 3, 62, 0
5, 32580, Note_on_c, 3, 79, 0
5, 32580, Note_on_c, 3, 74, 0
5, 32580, Note_on_c, 3, 55, 0
5, 32580, Note_on_c, 3, 67, 0
5, 32580, Note_on_c, 3, 71, 0
5, 32580, Note_on_c, 3, 55, 100
5, 32580, Note_on_c, 3, 79, 100
5, 32580, Note_on_c, 3, 74, 100
5, 32580, Note_on_c, 3, 71, 100
5, 32580, Note_on_c, 3, 67, 100
5, 32580, Note_on_c, 3, 62, 100
5, 32640, Note_on_c, 3, 62, 0
5, 32640, Note_on_c, 3, 79, 0
5, 32640, Note_on_c, 3, 74, 0
5, 32640, Note_on_c, 3, 55, 0
5, 32640, Note_on_c, 3, 67, 0
5, 32640, Note_on_c, 3, 71, 0
5, 32640, Note_on_c, 3, 57, 100
5, 32640, Note_on_c, 3, 81, 100
5, 32640, Note_on_c, 3, 76, 100
5, 32640, Note_on_c, 3, 73, 100
5, 32640, Note_on_c, 3, 69, 100
5, 32640, Note_on_c, 3, 64, 100
5, 32700, Note_on_c, 3, 64, 0
5, 32700, Note_on_c, 3, 81, 0
5, 32700, Note_on_c, 3, 76, 0
5, 32700, Note_on_c, 3, 57, 0
5, 32700, Note_on_c, 3, 69, 0
5, 32700, Note_on_c, 3, 73, 0
5, 32700, Note_on_c, 3, 57, 100
5, 32700, Note_on_c, 3, 81, 100
5, 32700, Note_on_c, 3, 76, 100
5, 32700, Note_on_c, 3, 73, 100
5, 32700, Note_on_c, 3, 69, 100
5, 32700, Note_on_c, 3, 64, 100
5, 32760, Note_on_c, 3, 64, 0
5, 32760, Note_on_c, 3, 81, 0
5, 32760, Note_on_c, 3, 76, 0
5, 32760, Note_on_c, 3, 57, 0
5, 32760, Note_on_c, 3, 69, 0
5, 32760, Note_on_c, 3, 73, 0
5, 32760, Note_on_c, 3, 57, 100
5, 32760, Note_on_c, 3, 81, 100
5, 32760, Note_on_c, 3, 76, 100
5, 32760, Note_on_c, 3, 73, 100
5, 32760, Note_on_c, 3, 69, 100
5, 32760, Note_on_c, 3, 64, 100
5, 32820, Note_on_c, 3, 64, 0
5, 32820, Note_on_c, 3, 81, 0
5, 32820, Note_on_c, 3, 76, 0
5, 32820, Note_on_c, 3, 57, 0
5, 32820, Note_on_c, 3, 69, 0
5, 32820, Note_on_c, 3, 73, 0
5, 32820, Note_on_c, 3, 57, 100
5, 32820, Note_on_c, 3, 81, 100
5, 32820, Note_on_c, 3, 76, 100
5, 32820, Note_on_c, 3, 73, 100
5, 32820, Note_on_c, 3, 69, 100
5, 32820, Note_on_c, 3, 64, 100
5, 32880, Note_on_c, 3, 64, 0
5, 32880, Note_on_c, 3, 81, 0
5, 32880, Note_on_c, 3, 76, 0
5, 32880, Note_on_c, 3, 57, 0
5, 32880, Note_on_c, 3, 69, 0
5, 32880, Note_on_c, 3, 73, 0
5, 32940, Note_on_c, 3, 55, 100
5, 32940, Note_on_c, 3, 79, 100
5, 32940, Note_on_c, 3, 74, 100
5, 32940, Note_on_c, 3, 71, 100
5, 32940, Note_on_c, 3, 67, 100
5, 32940, Note_on_c, 3, 62, 100
5, 33000, Note_on_c, 3, 62, 0
5, 33000, Note_on_c, 3, 79, 0
5, 33000, Note_on_c, 3, 74, 0
5, 33000, Note_on_c, 3, 55, 0
5, 33000, Note_on_c, 3, 67, 0
5, 33000, Note_on_c, 3, 71, 0
5, 33000, Note_on_c, 3, 55, 100
5, 33000, Note_on_c, 3, 79, 100
5, 33000, Note_on_c, 3, 74, 100
5, 33000, Note_on_c, 3, 71, 100
5, 33000, Note_on_c, 3, 67, 100
5, 33000, Note_on_c, 3, 62, 100
5, 33060, Note_on_c, 3, 62, 0
5, 33060, Note_on_c, 3, 79, 0
5, 33060, Note_on_c, 3, 74, 0
5, 33060, Note_on_c, 3, 55, 0
5, 33060, Note_on_c, 3, 67, 0
5, 33060, Note_on_c, 3, 71, 0
5, 33060, Note_on_c, 3, 55, 100
5, 33060, Note_on_c, 3, 79, 100
5, 33060, Note_on_c, 3, 74, 100
5, 33060, Note_on_c, 3, 71, 100
5, 33060, Note_on_c, 3, 67, 100
5, 33060, Note_on_c, 3, 62, 100
5, 33120, Note_on_c, 3, 62, 0
5, 33120, Note_on_c, 3, 79, 0
5, 33120, Note_on_c, 3, 74, 0
5, 33120, Note_on_c, 3, 55, 0
5, 33120, Note_on_c, 3, 67, 0
5, 33120, Note_on_c, 3, 71, 0
5, 33180, Note_on_c, 3, 78, 100
5, 33180, Note_on_c, 3, 74, 100
5, 33180, Note_on_c, 3, 71, 100
5, 33180, Note_on_c, 3, 66, 100
5, 33180, Note_on_c, 3, 59, 100
5, 33180, Note_on_c, 3, 54, 100
5, 33240, Note_on_c, 3, 54, 0
5, 33240, Note_on_c, 3, 74, 0
5, 33240, Note_on_c, 3, 71, 0
5, 33240, Note_on_c, 3, 78, 0
5, 33240, Note_on_c, 3, 59, 0
5, 33240, Note_on_c, 3, 66, 0
5, 33240, Note_on_c, 3, 78, 100
5, 33240, Note_on_c, 3, 74, 100
5, 33240, Note_on_c, 3, 71, 100
5, 33240, Note_on_c, 3, 66, 100
5, 33240, Note_on_c, 3, 59, 100
5, 33240, Note_on_c, 3, 54, 100
5, 33300, Note_on_c, 3, 54, 0
5, 33300, Note_on_c, 3, 74, 0
5, 33300, Note_on_c, 3, 71, 0
5, 33300, Note_on_c, 3, 78, 0
5, 33300, Note_on_c, 3, 59, 0
5, 33300, Note_on_c, 3, 66, 0
5, 33300, Note_on_c, 3, 78, 100
5, 33300, Note_on_c, 3, 74, 100
5, 33300, Note_on_c, 3, 71, 100
5, 33300, Note_on_c, 3, 66, 100
5, 33300, Note_on_c, 3, 59, 100
5, 33300, Note_on_c, 3, 54, 100
5, 33360, Note_on_c, 3, 54, 0
5, 33360, Note_on_c, 3, 74, 0
5, 33360, Note_on_c, 3, 71, 0
5, 33360, Note_on_c, 3, 78, 0
5, 33360, Note_on_c, 3, 59, 0
5, 33360, Note_on_c, 3, 66, 0
5, 33420, Note_on_c, 3, 78, 100
5, 33420, Note_on_c, 3, 73, 100
5, 33420, Note_on_c, 3, 70, 100
5, 33420, Note_on_c, 3, 66, 100
5, 33420, Note_on_c, 3, 61, 100
5, 33420, Note_on_c, 3, 54, 100
5, 33480, Note_on_c, 3, 54, 0
5, 33480, Note_on_c, 3, 73, 0
5, 33480, Note_on_c, 3, 70, 0
5, 33480, Note_on_c, 3, 78, 0
5, 33480, Note_on_c, 3, 61, 0
5, 33480, Note_on_c, 3, 66, 0
5, 33480, Note_on_c, 3, 78, 100
5, 33480, Note_on_c, 3, 73, 100
5, 33480, Note_on_c, 3, 70, 100
5, 33480, Note_on_c, 3, 66, 100
5, 33480, Note_on_c, 3, 61, 100
5, 33480, Note_on_c, 3, 54, 100
5, 33540, Note_on_c, 3, 54, 0
5, 33540, Note_on_c, 3, 73, 0
5, 33540, Note_on_c, 3, 70, 0
5, 33540, Note_on_c, 3, 78, 0
5, 33540, Note_on_c, 3, 61, 0
5, 33540, Note_on_c, 3, 66, 0
5, 33540, Note_on_c, 3, 78, 100
5, 33540, Note_on_c, 3, 73, 100
5, 33540, Note_on_c, 3, 70, 100
5, 33540, Note_on_c, 3, 66, 100
5, 33540, Note_on_c, 3, 61, 100
5, 33540, Note_on_c, 3, 54, 100
5, 33600, Note_on_c, 3, 54, 0
5, 33600, Note_on_c, 3, 73, 0
5, 33600, Note_on_c, 3, 70, 0
5, 33600, Note_on_c, 3, 78, 0
5, 33600, Note_on_c, 3, 61, 0
5, 33600, Note_on_c, 3, 66, 0
5, 33600, Note_on_c, 3, 57, 100
5, 33600, Note_on_c, 3, 81, 100
5, 33600, Note_on_c, 3, 76, 100
5, 33600, Note_on_c, 3, 73, 100
5, 33600, Note_on_c, 3, 69, 100
5, 33600, Note_on_c, 3, 64, 100
5, 33660, Note_on_c, 3, 64, 0
5, 33660, Note_on_c, 3, 81, 0
5, 33660, Note_on_c, 3, 76, 0
5, 33660, Note_on_c, 3, 57, 0
5, 33660, Note_on_c, 3, 69, 0
5, 33660, Note_on_c, 3, 73, 0
5, 33660, Note_on_c, 3, 57, 100
5, 33660, Note_on_c, 3, 81, 100
5, 33660, Note_on_c, 3, 76, 100
5, 33660, Note_on_c, 3, 73, 100
5, 33660, Note_on_c, 3, 69, 100
5, 33660, Note_on_c, 3, 64, 100
5, 33720, Note_on_c, 3, 64, 0
5, 33720, Note_on_c, 3, 81, 0
5, 33720, Note_on_c, 3, 76, 0
5, 33720, Note_on_c, 3, 57, 0
5, 33720, Note_on_c, 3, 69, 0
5, 33720, Note_on_c, 3, 73, 0
5, 33720, Note_on_c, 3, 57, 100
5, 33720, Note_on_c, 3, 81, 100
5, 33720, Note_on_c, 3, 76, 100
5, 33720, Note_on_c, 3, 73, 100
5, 33720, Note_on_c, 3, 69, 100
5, 33720, Note_on_c, 3, 64, 100
5, 33780, Note_on_c, 3, 64, 0
5, 33780, Note_on_c, 3, 81, 0
5, 33780, Note_on_c, 3, 76, 0
5, 33780, Note_on_c, 3, 57, 0
5, 33780, Note_on_c, 3, 69, 0
5, 33780, Note_on_c, 3, 73, 0
5, 33780, Note_on_c, 3, 57, 100
5, 33780, Note_on_c, 3, 81, 100
5, 33780, Note_on_c, 3, 76, 100
5, 33780, Note_on_c, 3, 73, 100
5, 33780, Note_on_c, 3, 69, 100
5, 33780, Note_on_c, 3, 64, 100
5, 33840, Note_on_c, 3, 64, 0
5, 33840, Note_on_c, 3, 81, 0
5, 33840, Note_on_c, 3, 76, 0
5, 33840, Note_on_c, 3, 57, 0
5, 33840, Note_on_c, 3, 69, 0
5, 33840, Note_on_c, 3, 73, 0
5, 33900, Note_on_c, 3, 55, 100
5, 33900, Note_on_c, 3, 79, 100
5, 33900, Note_on_c, 3, 74, 100
5, 33900, Note_on_c, 3, 71, 100
5, 33900, Note_on_c, 3, 67, 100
5, 33900, Note_on_c, 3, 62, 100
5, 33960, Note_on_c, 3, 62, 0
5, 33960, Note_on_c, 3, 79, 0
5, 33960, Note_on_c, 3, 74, 0
5, 33960, Note_on_c, 3, 55, 0
5, 33960, Note_on_c, 3, 67, 0
5, 33960, Note_on_c, 3, 71, 0
5, 33960, Note_on_c, 3, 55, 100
5, 33960, Note_on_c, 3, 79, 100
5, 33960, Note_on_c, 3, 74, 100
5, 33960, Note_on_c, 3, 71, 100
5, 33960, Note_on_c, 3, 67, 100
5, 33960, Note_on_c, 3, 62, 100
5, 34020, Note_on_c, 3, 62, 0
5, 34020, Note_on_c, 3, 79, 0
5, 34020, Note_on_c, 3, 74, 0
5, 34020, Note_on_c, 3, 55, 0
5, 34020, Note_on_c, 3, 67, 0
5, 34020, Note_on_c, 3, 71, 0
5, 34020, Note_on_c, 3, 55, 100
5, 34020, Note_on_c, 3, 79, 100
5, 34020, Note_on_c, 3, 74, 100
5, 34020, Note_on_c, 3, 71, 100
5, 34020, Note_on_c, 3, 67, 100
5, 34020, Note_on_c, 3, 62, 100
5, 34080, Note_on_c, 3, 62, 0
5, 34080, Note_on_c, 3, 79, 0
5, 34080, Note_on_c, 3, 74, 0
5, 34080, Note_on_c, 3, 55, 0
5, 34080, Note_on_c, 3, 67, 0
5, 34080, Note_on_c, 3, 71, 0
5, 34080, Note_on_c, 3, 57, 100
5, 34080, Note_on_c, 3, 81, 100
5, 34080, Note_on_c, 3, 76, 100
5, 34080, Note_on_c, 3, 73, 100
5, 34080, Note_on_c, 3, 69, 100
5, 34080, Note_on_c, 3, 64, 100
5, 34140, Note_on_c, 3, 64, 0
5, 34140, Note_on_c, 3, 81, 0
5, 34140, Note_on_c, 3, 76, 0
5, 34140, Note_on_c, 3, 57, 0
5, 34140, Note_on_c, 3, 69, 0
5, 34140, Note_on_c, 3, 73, 0
5, 34140, Note_on_c, 3, 57, 100
5, 34140, Note_on_c, 3, 81, 100
5, 34140, Note_on_c, 3, 76, 100
5, 34140, Note_on_c, 3, 73, 100
5, 34140, Note_on_c, 3, 69, 100
5, 34140, Note_on_c, 3, 64, 100
5, 34200, Note_on_c, 3, 64, 0
5, 34200, Note_on_c, 3, 81, 0
5, 34200, Note_on_c, 3, 76, 0
5, 34200, Note_on_c, 3, 57, 0
5, 34200, Note_on_c, 3, 69, 0
5, 34200, Note_on_c, 3, 73, 0
5, 34200, Note_on_c, 3, 57, 100
5, 34200, Note_on_c, 3, 81, 100
5, 34200, Note_on_c, 3, 76, 100
5, 34200, Note_on_c, 3, 73, 100
5, 34200, Note_on_c, 3, 69, 100
5, 34200, Note_on_c, 3, 64, 100
5, 34260, Note_on_c, 3, 64, 0
5, 34260, Note_on_c, 3, 81, 0
5, 34260, Note_on_c, 3, 76, 0
5, 34260, Note_on_c, 3, 57, 0
5, 34260, Note_on_c, 3, 69, 0
5, 34260, Note_on_c, 3, 73, 0
5, 34260, Note_on_c, 3, 57, 100
5, 34260, Note_on_c, 3, 81, 100
5, 34260, Note_on_c, 3, 76, 100
5, 34260, Note_on_c, 3, 73, 100
5, 34260, Note_on_c, 3, 69, 100
5, 34260, Note_on_c, 3, 64, 100
5, 34320, Note_on_c, 3, 64, 0
5, 34320, Note_on_c, 3, 81, 0
5, 34320, Note_on_c, 3, 76, 0
5, 34320, Note_on_c, 3, 57, 0
5, 34320, Note_on_c, 3, 69, 0
5, 34320, Note_on_c, 3, 73, 0
5, 34380, Note_on_c, 3, 55, 100
5, 34380, Note_on_c, 3, 79, 100
5, 34380, Note_on_c, 3, 74, 100
5, 34380, Note_on_c, 3, 71, 100
5, 34380, Note_on_c, 3, 67, 100
5, 34380, Note_on_c, 3, 62, 100
5, 34440, Note_on_c, 3, 62, 0
5, 34440, Note_on_c, 3, 79, 0
5, 34440, Note_on_c, 3, 74, 0
5, 34440, Note_on_c, 3, 55, 0
5, 34440, Note_on_c, 3, 67, 0
5, 34440, Note_on_c, 3, 71, 0
5, 34440, Note_on_c, 3, 55, 100
5, 34440, Note_on_c, 3, 79, 100
5, 34440, Note_on_c, 3, 74, 100
5, 34440, Note_on_c, 3, 71, 100
5, 34440, Note_on_c, 3, 67, 100
5, 34440, Note_on_c, 3, 62, 100
5, 34500, Note_on_c, 3, 62, 0
5, 34500, Note_on_c, 3, 79, 0
5, 34500, Note_on_c, 3, 74, 0
5, 34500, Note_on_c, 3, 55, 0
5, 34500, Note_on_c, 3, 67, 0
5, 34500, Note_on_c, 3, 71, 0
5, 34500, Note_on_c, 3, 55, 100
5, 34500, Note_on_c, 3, 79, 100
5, 34500, Note_on_c, 3, 74, 100
5, 34500, Note_on_c, 3, 71, 100
5, 34500, Note_on_c, 3, 67, 100
5, 34500, Note_on_c, 3, 62, 100
5, 34560, Note_on_c, 3, 62, 0
5, 34560, Note_on_c, 3, 79, 0
5, 34560, Note_on_c, 3, 74, 0
5, 34560, Note_on_c, 3, 55, 0
5, 34560, Note_on_c, 3, 67, 0
5, 34560, Note_on_c, 3, 71, 0
5, 34560, Note_on_c, 3, 57, 100
5, 34560, Note_on_c, 3, 81, 100
5, 34560, Note_on_c, 3, 76, 100
5, 34560, Note_on_c, 3, 73, 100
5, 34560, Note_on_c, 3, 69, 100
5, 34560, Note_on_c, 3, 64, 100
5, 34620, Note_on_c, 3, 64, 0
5, 34620, Note_on_c, 3, 81, 0
5, 34620, Note_on_c, 3, 76, 0
5, 34620, Note_on_c, 3, 57, 0
5, 34620, Note_on_c, 3, 69, 0
5, 34620, Note_on_c, 3, 73, 0
5, 34620, Note_on_c, 3, 57, 100
5, 34620, Note_on_c, 3, 81, 100
5, 34620, Note_on_c, 3, 76, 100
5, 34620, Note_on_c, 3, 73, 100
5, 34620, Note_on_c, 3, 69, 100
5, 34620, Note_on_c, 3, 64, 100
5, 34680, Note_on_c, 3, 64, 0
5, 34680, Note_on_c, 3, 81, 0
5, 34680, Note_on_c, 3, 76, 0
5, 34680, Note_on_c, 3, 57, 0
5, 34680, Note_on_c, 3, 69, 0
5, 34680, Note_on_c, 3, 73, 0
5, 34680, Note_on_c, 3, 57, 100
5, 34680, Note_on_c, 3, 81, 100
5, 34680, Note_on_c, 3, 76, 100
5, 34680, Note_on_c, 3, 73, 100
5, 34680, Note_on_c, 3, 69, 100
5, 34680, Note_on_c, 3, 64, 100
5, 34740, Note_on_c, 3, 64, 0
5, 34740, Note_on_c, 3, 81, 0
5, 34740, Note_on_c, 3, 76, 0
5, 34740, Note_on_c, 3, 57, 0
5, 34740, Note_on_c, 3, 69, 0
5, 34740, Note_on_c, 3, 73, 0
5, 34740, Note_on_c, 3, 57, 100
5, 34740, Note_on_c, 3, 81, 100
5, 34740, Note_on_c, 3, 76, 100
5, 34740, Note_on_c, 3, 73, 100
5, 34740, Note_on_c, 3, 69, 100
5, 34740, Note_on_c, 3, 64, 100
5, 34800, Note_on_c, 3, 64, 0
5, 34800, Note_on_c, 3, 81, 0
5, 34800, Note_on_c, 3, 76, 0
5, 34800, Note_on_c, 3, 57, 0
5, 34800, Note_on_c, 3, 69, 0
5, 34800, Note_on_c, 3, 73, 0
5, 34860, Note_on_c, 3, 55, 100
5, 34860, Note_on_c, 3, 79, 100
5, 34860, Note_on_c, 3, 74, 100
5, 34860, Note_on_c, 3, 71, 100
5, 34860, Note_on_c, 3, 67, 100
5, 34860, Note_on_c, 3, 62, 100
5, 34920, Note_on_c, 3, 62, 0
5, 34920, Note_on_c, 3, 79, 0
5, 34920, Note_on_c, 3, 74, 0
5, 34920, Note_on_c, 3, 55, 0
5, 34920, Note_on_c, 3, 67, 0
5, 34920, Note_on_c, 3, 71, 0
5, 34920, Note_on_c, 3, 55, 100
5, 34920, Note_on_c, 3, 79, 100
5, 34920, Note_on_c, 3, 74, 100
5, 34920, Note_on_c, 3, 71, 100
5, 34920, Note_on_c, 3, 67, 100
5, 34920, Note_on_c, 3, 62, 100
5, 34980, Note_on_c, 3, 62, 0
5, 34980, Note_on_c, 3, 79, 0
5, 34980, Note_on_c, 3, 74, 0
5, 34980, Note_on_c, 3, 55, 0
5, 34980, Note_on_c, 3, 67, 0
5, 34980, Note_on_c, 3, 71, 0
5, 34980, Note_on_c, 3, 55, 100
5, 34980, Note_on_c, 3, 79, 100
5, 34980, Note_on_c, 3, 74, 100
5, 34980, Note_on_c, 3, 71, 100
5, 34980, Note_on_c, 3, 67, 100
5, 34980, Note_on_c, 3, 62, 100
5, 35040, Note_on_c, 3, 62, 0
5, 35040, Note_on_c, 3, 79, 0
5, 35040, Note_on_c, 3, 74, 0
5, 35040, Note_on_c, 3, 55, 0
5, 35040, Note_on_c, 3, 67, 0
5, 35040, Note_on_c, 3, 71, 0
5, 35040, Note_on_c, 3, 57, 100
5, 35040, Note_on_c, 3, 81, 100
5, 35040, Note_on_c, 3, 76, 100
5, 35040, Note_on_c, 3, 73, 100
5, 35040, Note_on_c, 3, 69, 100
5, 35040, Note_on_c, 3, 64, 100
5, 35100, Note_on_c, 3, 64, 0
5, 35100, Note_on_c, 3, 81, 0
5, 35100, Note_on_c, 3, 76, 0
5, 35100, Note_on_c, 3, 57, 0
5, 35100, Note_on_c, 3, 69, 0
5, 35100, Note_on_c, 3, 73, 0
5, 35100, Note_on_c, 3, 57, 100
5, 35100, Note_on_c, 3, 81, 100
5, 35100, Note_on_c, 3, 76, 100
5, 35100, Note_on_c, 3, 73, 100
5, 35100, Note_on_c, 3, 69, 100
5, 35100, Note_on_c, 3, 64, 100
5, 35160, Note_on_c, 3, 64, 0
5, 35160, Note_on_c, 3, 81, 0
5, 35160, Note_on_c, 3, 76, 0
5, 35160, Note_on_c, 3, 57, 0
5, 35160, Note_on_c, 3, 69, 0
5, 35160, Note_on_c, 3, 73, 0
5, 35160, Note_on_c, 3, 57, 100
5, 35160, Note_on_c, 3, 81, 100
5, 35160, Note_on_c, 3, 76, 100
5, 35160, Note_on_c, 3, 73, 100
5, 35160, Note_on_c, 3, 69, 100
5, 35160, Note_on_c, 3, 64, 100
5, 35220, Note_on_c, 3, 64, 0
5, 35220, Note_on_c, 3, 81, 0
5, 35220, Note_on_c, 3, 76, 0
5, 35220, Note_on_c, 3, 57, 0
5, 35220, Note_on_c, 3, 69, 0
5, 35220, Note_on_c, 3, 73, 0
5, 35220, Note_on_c, 3, 57, 100
5, 35220, Note_on_c, 3, 81, 100
5, 35220, Note_on_c, 3, 76, 100
5, 35220, Note_on_c, 3, 73, 100
5, 35220, Note_on_c, 3, 69, 100
5, 35220, Note_on_c, 3, 64, 100
5, 35280, Note_on_c, 3, 64, 0
5, 35280, Note_on_c, 3, 81, 0
5, 35280, Note_on_c, 3, 76, 0
5, 35280, Note_on_c, 3, 57, 0
5, 35280, Note_on_c, 3, 69, 0
5, 35280, Note_on_c, 3, 73, 0
5, 35340, Note_on_c, 3, 55, 100
5, 35340, Note_on_c, 3, 79, 100
5, 35340, Note_on_c, 3, 74, 100
5, 35340, Note_on_c, 3, 71, 100
5, 35340, Note_on_c, 3, 67, 100
5, 35340, Note_on_c, 3, 62, 100
5, 35400, Note_on_c, 3, 62, 0
5, 35400, Note_on_c, 3, 79, 0
5, 35400, Note_on_c, 3, 74, 0
5, 35400, Note_on_c, 3, 55, 0
5, 35400, Note_on_c, 3, 67, 0
5, 35400, Note_on_c, 3, 71, 0
5, 35400, Note_on_c, 3, 55, 100
5, 35400, Note_on_c, 3, 79, 100
5, 35400, Note_on_c, 3, 74, 100
5, 35400, Note_on_c, 3, 71, 100
5, 35400, Note_on_c, 3, 67, 100
5, 35400, Note_on_c, 3, 62, 100
5, 35460, Note_on_c, 3, 62, 0
5, 35460, Note_on_c, 3, 79, 0
5, 35460, Note_on_c, 3, 74, 0
5, 35460, Note_on_c, 3, 55, 0
5, 35460, Note_on_c, 3, 67, 0
5, 35460, Note_on_c, 3, 71, 0
5, 35460, Note_on_c, 3, 55, 100
5, 35460, Note_on_c, 3, 79, 100
5, 35460, Note_on_c, 3, 74, 100
5, 35460, Note_on_c, 3, 71, 100
5, 35460, Note_on_c, 3, 67, 100
5, 35460, Note_on_c, 3, 62, 100
5, 35520, Note_on_c, 3, 62, 0
5, 35520, Note_on_c, 3, 79, 0
5, 35520, Note_on_c, 3, 74, 0
5, 35520, Note_on_c, 3, 55, 0
5, 35520, Note_on_c, 3, 67, 0
5, 35520, Note_on_c, 3, 71, 0
5, 35520, Note_on_c, 3, 57, 100
5, 35520, Note_on_c, 3, 81, 100
5, 35520, Note_on_c, 3, 76, 100
5, 35520, Note_on_c, 3, 73, 100
5, 35520, Note_on_c, 3, 69, 100
5, 35520, Note_on_c, 3, 64, 100
5, 35580, Note_on_c, 3, 64, 0
5, 35580, Note_on_c, 3, 81, 0
5, 35580, Note_on_c, 3, 76, 0
5, 35580, Note_on_c, 3, 57, 0
5, 35580, Note_on_c, 3, 69, 0
5, 35580, Note_on_c, 3, 73, 0
5, 35580, Note_on_c, 3, 57, 100
5, 35580, Note_on_c, 3, 81, 100
5, 35580, Note_on_c, 3, 76, 100
5, 35580, Note_on_c, 3, 73, 100
5, 35580, Note_on_c, 3, 69, 100
5, 35580, Note_on_c, 3, 64, 100
5, 35640, Note_on_c, 3, 64, 0
5, 35640, Note_on_c, 3, 81, 0
5, 35640, Note_on_c, 3, 76, 0
5, 35640, Note_on_c, 3, 57, 0
5, 35640, Note_on_c, 3, 69, 0
5, 35640, Note_on_c, 3, 73, 0
5, 35640, Note_on_c, 3, 57, 100
5, 35640, Note_on_c, 3, 81, 100
5, 35640, Note_on_c, 3, 76, 100
5, 35640, Note_on_c, 3, 73, 100
5, 35640, Note_on_c, 3, 69, 100
5, 35640, Note_on_c, 3, 64, 100
5, 35700, Note_on_c, 3, 64, 0
5, 35700, Note_on_c, 3, 81, 0
5, 35700, Note_on_c, 3, 76, 0
5, 35700, Note_on_c, 3, 57, 0
5, 35700, Note_on_c, 3, 69, 0
5, 35700, Note_on_c, 3, 73, 0
5, 35700, Note_on_c, 3, 57, 100
5, 35700, Note_on_c, 3, 81, 100
5, 35700, Note_on_c, 3, 76, 100
5, 35700, Note_on_c, 3, 73, 100
5, 35700, Note_on_c, 3, 69, 100
5, 35700, Note_on_c, 3, 64, 100
5, 35760, Note_on_c, 3, 64, 0
5, 35760, Note_on_c, 3, 81, 0
5, 35760, Note_on_c, 3, 76, 0
5, 35760, Note_on_c, 3, 57, 0
5, 35760, Note_on_c, 3, 69, 0
5, 35760, Note_on_c, 3, 73, 0
5, 35820, Note_on_c, 3, 55, 100
5, 35820, Note_on_c, 3, 79, 100
5, 35820, Note_on_c, 3, 74, 100
5, 35820, Note_on_c, 3, 71, 100
5, 35820, Note_on_c, 3, 67, 100
5, 35820, Note_on_c, 3, 62, 100
5, 35880, Note_on_c, 3, 62, 0
5, 35880, Note_on_c, 3, 79, 0
5, 35880, Note_on_c, 3, 74, 0
5, 35880, Note_on_c, 3, 55, 0
5, 35880, Note_on_c, 3, 67, 0
5, 35880, Note_on_c, 3, 71, 0
5, 35880, Note_on_c, 3, 55, 100
5, 35880, Note_on_c, 3, 79, 100
5, 35880, Note_on_c, 3, 74, 100
5, 35880, Note_on_c, 3, 71, 100
5, 35880, Note_on_c, 3, 67, 100
5, 35880, Note_on_c, 3, 62, 100
5, 35940, Note_on_c, 3, 62, 0
5, 35940, Note_on_c, 3, 79, 0
5, 35940, Note_on_c, 3, 74, 0
5, 35940, Note_on_c, 3, 55, 0
5, 35940, Note_on_c, 3, 67, 0
5, 35940, Note_on_c, 3, 71, 0
5, 35940, Note_on_c, 3, 55, 100
5, 35940, Note_on_c, 3, 79, 100
5, 35940, Note_on_c, 3, 74, 100
5, 35940, Note_on_c, 3, 71, 100
5, 35940, Note_on_c, 3, 67, 100
5, 35940, Note_on_c, 3, 62, 100
5, 36000, Note_on_c, 3, 62, 0
5, 36000, Note_on_c, 3, 79, 0
5, 36000, Note_on_c, 3, 74, 0
5, 36000, Note_on_c, 3, 55, 0
5, 36000, Note_on_c, 3, 67, 0
5, 36000, Note_on_c, 3, 71, 0
5, 36000, Note_on_c, 3, 57, 100
5, 36000, Note_on_c, 3, 81, 100
5, 36000, Note_on_c, 3, 76, 100
5, 36000, Note_on_c, 3, 73, 100
5, 36000, Note_on_c, 3, 69, 100
5, 36000, Note_on_c, 3, 64, 100
5, 36060, Note_on_c, 3, 64, 0
5, 36060, Note_on_c, 3, 81, 0
5, 36060, Note_on_c, 3, 76, 0
5, 36060, Note_on_c, 3, 57, 0
5, 36060, Note_on_c, 3, 69, 0
5, 36060, Note_on_c, 3, 73, 0
5, 36060, Note_on_c, 3, 57, 100
5, 36060, Note_on_c, 3, 81, 100
5, 36060, Note_on_c, 3, 76, 100
5, 36060, Note_on_c, 3, 73, 100
5, 36060, Note_on_c, 3, 69, 100
5, 36060, Note_on_c, 3, 64, 100
5, 36120, Note_on_c, 3, 64, 0
5, 36120, Note_on_c, 3, 81, 0
5, 36120, Note_on_c, 3, 76, 0
5, 36120, Note_on_c, 3, 57, 0
5, 36120, Note_on_c, 3, 69, 0
5, 36120, Note_on_c, 3, 73, 0
5, 36120, Note_on_c, 3, 57, 100
5, 36120, Note_on_c, 3, 81, 100
5, 36120, Note_on_c, 3, 76, 100
5, 36120, Note_on_c, 3, 73, 100
5, 36120, Note_on_c, 3, 69, 100
5, 36120, Note_on_c, 3, 64, 100
5, 36180, Note_on_c, 3, 64, 0
5, 36180, Note_on_c, 3, 81, 0
5, 36180, Note_on_c, 3, 76, 0
5, 36180, Note_on_c, 3, 57, 0
5, 36180, Note_on_c, 3, 69, 0
5, 36180, Note_on_c, 3, 73, 0
5, 36180, Note_on_c, 3, 57, 100
5, 36180, Note_on_c, 3, 81, 100
5, 36180, Note_on_c, 3, 76, 100
5, 36180, Note_on_c, 3, 73, 100
5, 36180, Note_on_c, 3, 69, 100
5, 36180, Note_on_c, 3, 64, 100
5, 36240, Note_on_c, 3, 64, 0
5, 36240, Note_on_c, 3, 81, 0
5, 36240, Note_on_c, 3, 76, 0
5, 36240, Note_on_c, 3, 57, 0
5, 36240, Note_on_c, 3, 69, 0
5, 36240, Note_on_c, 3, 73, 0
5, 36300, Note_on_c, 3, 55, 100
5, 36300, Note_on_c, 3, 79, 100
5, 36300, Note_on_c, 3, 74, 100
5, 36300, Note_on_c, 3, 71, 100
5, 36300, Note_on_c, 3, 67, 100
5, 36300, Note_on_c, 3, 62, 100
5, 36360, Note_on_c, 3, 62, 0
5, 36360, Note_on_c, 3, 79, 0
5, 36360, Note_on_c, 3, 74, 0
5, 36360, Note_on_c, 3, 55, 0
5, 36360, Note_on_c, 3, 67, 0
5, 36360, Note_on_c, 3, 71, 0
5, 36360, Note_on_c, 3, 55, 100
5, 36360, Note_on_c, 3, 79, 100
5, 36360, Note_on_c, 3, 74, 100
5, 36360, Note_on_c, 3, 71, 100
5, 36360, Note_on_c, 3, 67, 100
5, 36360, Note_on_c, 3, 62, 100
5, 36420, Note_on_c, 3, 62, 0
5, 36420, Note_on_c, 3, 79, 0
5, 36420, Note_on_c, 3, 74, 0
5, 36420, Note_on_c, 3, 55, 0
5, 36420, Note_on_c, 3, 67, 0
5, 36420, Note_on_c, 3, 71, 0
5, 36420, Note_on_c, 3, 55, 100
5, 36420, Note_on_c, 3, 79, 100
5, 36420, Note_on_c, 3, 74, 100
5, 36420, Note_on_c, 3, 71, 100
5, 36420, Note_on_c, 3, 67, 100
5, 36420, Note_on_c, 3, 62, 100
5, 36480, Note_on_c, 3, 62, 0
5, 36480, Note_on_c, 3, 79, 0
5, 36480, Note_on_c, 3, 74, 0
5, 36480, Note_on_c, 3, 55, 0
5, 36480, Note_on_c, 3, 67, 0
5, 36480, Note_on_c, 3, 71, 0
5, 36480, Note_on_c, 3, 57, 100
5, 36480, Note_on_c, 3, 81, 100
5, 36480, Note_on_c, 3, 76, 100
5, 36480, Note_on_c, 3, 73, 100
5, 36480, Note_on_c, 3, 69, 100
5, 36480, Note_on_c, 3, 64, 100
5, 36540, Note_on_c, 3, 64, 0
5, 36540, Note_on_c, 3, 81, 0
5, 36540, Note_on_c, 3, 76, 0
5, 36540, Note_on_c, 3, 57, 0
5, 36540, Note_on_c, 3, 69, 0
5, 36540, Note_on_c, 3, 73, 0
5, 36540, Note_on_c, 3, 57, 100
5, 36540, Note_on_c, 3, 81, 100
5, 36540, Note_on_c, 3, 76, 100
5, 36540, Note_on_c, 3, 73, 100
5, 36540, Note_on_c, 3, 69, 100
5, 36540, Note_on_c, 3, 64, 100
5, 36600, Note_on_c, 3, 64, 0
5, 36600, Note_on_c, 3, 81, 0
5, 36600, Note_on_c, 3, 76, 0
5, 36600, Note_on_c, 3, 57, 0
5, 36600, Note_on_c, 3, 69, 0
5, 36600, Note_on_c, 3, 73, 0
5, 36600, Note_on_c, 3, 57, 100
5, 36600, Note_on_c, 3, 81, 100
5, 36600, Note_on_c, 3, 76, 100
5, 36600, Note_on_c, 3, 73, 100
5, 36600, Note_on_c, 3, 69, 100
5, 36600, Note_on_c, 3, 64, 100
5, 36660, Note_on_c, 3, 64, 0
5, 36660, Note_on_c, 3, 81, 0
5, 36660, Note_on_c, 3, 76, 0
5, 36660, Note_on_c, 3, 57, 0
5, 36660, Note_on_c, 3, 69, 0
5, 36660, Note_on_c, 3, 73, 0
5, 36660, Note_on_c, 3, 57, 100
5, 36660, Note_on_c, 3, 81, 100
5, 36660, Note_on_c, 3, 76, 100
5, 36660, Note_on_c, 3, 73, 100
5, 36660, Note_on_c, 3, 69, 100
5, 36660, Note_on_c, 3, 64, 100
5, 36720, Note_on_c, 3, 64, 0
5, 36720, Note_on_c, 3, 81, 0
5, 36720, Note_on_c, 3, 76, 0
5, 36720, Note_on_c, 3, 57, 0
5, 36720, Note_on_c, 3, 69, 0
5, 36720, Note_on_c, 3, 73, 0
5, 36780, Note_on_c, 3, 55, 100
5, 36780, Note_on_c, 3, 79, 100
5, 36780, Note_on_c, 3, 74, 100
5, 36780, Note_on_c, 3, 71, 100
5, 36780, Note_on_c, 3, 67, 100
5, 36780, Note_on_c, 3, 62, 100
5, 36840, Note_on_c, 3, 62, 0
5, 36840, Note_on_c, 3, 79, 0
5, 36840, Note_on_c, 3, 74, 0
5, 36840, Note_on_c, 3, 55, 0
5, 36840, Note_on_c, 3, 67, 0
5, 36840, Note_on_c, 3, 71, 0
5, 36840, Note_on_c, 3, 55, 100
5, 36840, Note_on_c, 3, 79, 100
5, 36840, Note_on_c, 3, 74, 100
5, 36840, Note_on_c, 3, 71, 100
5, 36840, Note_on_c, 3, 67, 100
5, 36840, Note_on_c, 3, 62, 100
5, 36900, Note_on_c, 3, 62, 0
5, 36900, Note_on_c, 3, 79, 0
5, 36900, Note_on_c, 3, 74, 0
5, 36900, Note_on_c, 3, 55, 0
5, 36900, Note_on_c, 3, 67, 0
5, 36900, Note_on_c, 3, 71, 0
5, 36900, Note_on_c, 3, 55, 100
5, 36900, Note_on_c, 3, 79, 100
5, 36900, Note_on_c, 3, 74, 100
5, 36900, Note_on_c, 3, 71, 100
5, 36900, Note_on_c, 3, 67, 100
5, 36900, Note_on_c, 3, 62, 100
5, 36960, Note_on_c, 3, 62, 0
5, 36960, Note_on_c, 3, 79, 0
5, 36960, Note_on_c, 3, 74, 0
5, 36960, Note_on_c, 3, 55, 0
5, 36960, Note_on_c, 3, 67, 0
5, 36960, Note_on_c, 3, 71, 0
5, 36960, Note_on_c, 3, 57, 100
5, 36960, Note_on_c, 3, 81, 100
5, 36960, Note_on_c, 3, 76, 100
5, 36960, Note_on_c, 3, 73, 100
5, 36960, Note_on_c, 3, 69, 100
5, 36960, Note_on_c, 3, 64, 100
5, 37020, Note_on_c, 3, 64, 0
5, 37020, Note_on_c, 3, 81, 0
5, 37020, Note_on_c, 3, 76, 0
5, 37020, Note_on_c, 3, 57, 0
5, 37020, Note_on_c, 3, 69, 0
5, 37020, Note_on_c, 3, 73, 0
5, 37020, Note_on_c, 3, 57, 100
5, 37020, Note_on_c, 3, 81, 100
5, 37020, Note_on_c, 3, 76, 100
5, 37020, Note_on_c, 3, 73, 100
5, 37020, Note_on_c, 3, 69, 100
5, 37020, Note_on_c, 3, 64, 100
5, 37080, Note_on_c, 3, 64, 0
5, 37080, Note_on_c, 3, 81, 0
5, 37080, Note_on_c, 3, 76, 0
5, 37080, Note_on_c, 3, 57, 0
5, 37080, Note_on_c, 3, 69, 0
5, 37080, Note_on_c, 3, 73, 0
5, 37080, Note_on_c, 3, 57, 100
5, 37080, Note_on_c, 3, 81, 100
5, 37080, Note_on_c, 3, 76, 100
5, 37080, Note_on_c, 3, 73, 100
5, 37080, Note_on_c, 3, 69, 100
5, 37080, Note_on_c, 3, 64, 100
5, 37140, Note_on_c, 3, 64, 0
5, 37140, Note_on_c, 3, 81, 0
5, 37140, Note_on_c, 3, 76, 0
5, 37140, Note_on_c, 3, 57, 0
5, 37140, Note_on_c, 3, 69, 0
5, 37140, Note_on_c, 3, 73, 0
5, 37140, Note_on_c, 3, 57, 100
5, 37140, Note_on_c, 3, 81, 100
5, 37140, Note_on_c, 3, 76, 100
5, 37140, Note_on_c, 3, 73, 100
5, 37140, Note_on_c, 3, 69, 100
5, 37140, Note_on_c, 3, 64, 100
5, 37200, Note_on_c, 3, 64, 0
5, 37200, Note_on_c, 3, 81, 0
5, 37200, Note_on_c, 3, 76, 0
5, 37200, Note_on_c, 3, 57, 0
5, 37200, Note_on_c, 3, 69, 0
5, 37200, Note_on_c, 3, 73, 0
5, 37260, Note_on_c, 3, 55, 100
5, 37260, Note_on_c, 3, 79, 100
5, 37260, Note_on_c, 3, 74, 100
5, 37260, Note_on_c, 3, 71, 100
5, 37260, Note_on_c, 3, 67, 100
5, 37260, Note_on_c, 3, 62, 100
5, 37320, Note_on_c, 3, 62, 0
5, 37320, Note_on_c, 3, 79, 0
5, 37320, Note_on_c, 3, 74, 0
5, 37320, Note_on_c, 3, 55, 0
5, 37320, Note_on_c, 3, 67, 0
5, 37320, Note_on_c, 3, 71, 0
5, 37320, Note_on_c, 3, 55, 100
5, 37320, Note_on_c, 3, 79, 100
5, 37320, Note_on_c, 3, 74, 100
5, 37320, Note_on_c, 3, 71, 100
5, 37320, Note_on_c, 3, 67, 100
5, 37320, Note_on_c, 3, 62, 100
5, 37380, Note_on_c, 3, 62, 0
5, 37380, Note_on_c, 3, 79, 0
5, 37380, Note_on_c, 3, 74, 0
5, 37380, Note_on_c, 3, 55, 0
5, 37380, Note_on_c, 3, 67, 0
5, 37380, Note_on_c, 3, 71, 0
5, 37380, Note_on_c, 3, 55, 100
5, 37380, Note_on_c, 3, 79, 100
5, 37380, Note_on_c, 3, 74, 100
5, 37380, Note_on_c, 3, 71, 100
5, 37380, Note_on_c, 3, 67, 100
5, 37380, Note_on_c, 3, 62, 100
5, 37440, Note_on_c, 3, 62, 0
5, 37440, Note_on_c, 3, 79, 0
5, 37440, Note_on_c, 3, 74, 0
5, 37440, Note_on_c, 3, 55, 0
5, 37440, Note_on_c, 3, 67, 0
5, 37440, Note_on_c, 3, 71, 0
5, 37440, Note_on_c, 3, 57, 100
5, 37440, Note_on_c, 3, 81, 100
5, 37440, Note_on_c, 3, 76, 100
5, 37440, Note_on_c, 3, 73, 100
5, 37440, Note_on_c, 3, 69, 100
5, 37440, Note_on_c, 3, 64, 100
5, 37500, Note_on_c, 3, 64, 0
5, 37500, Note_on_c, 3, 81, 0
5, 37500, Note_on_c, 3, 76, 0
5, 37500, Note_on_c, 3, 57, 0
5, 37500, Note_on_c, 3, 69, 0
5, 37500, Note_on_c, 3, 73, 0
5, 37500, Note_on_c, 3, 57, 100
5, 37500, Note_on_c, 3, 81, 100
5, 37500, Note_on_c, 3, 76, 100
5, 37500, Note_on_c, 3, 73, 100
5, 37500, Note_on_c, 3, 69, 100
5, 37500, Note_on_c, 3, 64, 100
5, 37560, Note_on_c, 3, 64, 0
5, 37560, Note_on_c, 3, 81, 0
5, 37560, Note_on_c, 3, 76, 0
5, 37560, Note_on_c, 3, 57, 0
5, 37560, Note_on_c, 3, 69, 0
5, 37560, Note_on_c, 3, 73, 0
5, 37560, Note_on_c, 3, 57, 100
5, 37560, Note_on_c, 3, 81, 100
5, 37560, Note_on_c, 3, 76, 100
5, 37560, Note_on_c, 3, 73, 100
5, 37560, Note_on_c, 3, 69, 100
5, 37560, Note_on_c, 3, 64, 100
5, 37620, Note_on_c, 3, 64, 0
5, 37620, Note_on_c, 3, 81, 0
5, 37620, Note_on_c, 3, 76, 0
5, 37620, Note_on_c, 3, 57, 0
5, 37620, Note_on_c, 3, 69, 0
5, 37620, Note_on_c, 3, 73, 0
5, 37620, Note_on_c, 3, 57, 100
5, 37620, Note_on_c, 3, 81, 100
5, 37620, Note_on_c, 3, 76, 100
5, 37620, Note_on_c, 3, 73, 100
5, 37620, Note_on_c, 3, 69, 100
5, 37620, Note_on_c, 3, 64, 100
5, 37680, Note_on_c, 3, 64, 0
5, 37680, Note_on_c, 3, 81, 0
5, 37680, Note_on_c, 3, 76, 0
5, 37680, Note_on_c, 3, 57, 0
5, 37680, Note_on_c, 3, 69, 0
5, 37680, Note_on_c, 3, 73, 0
5, 37740, Note_on_c, 3, 55, 100
5, 37740, Note_on_c, 3, 79, 100
5, 37740, Note_on_c, 3, 74, 100
5, 37740, Note_on_c, 3, 71, 100
5, 37740, Note_on_c, 3, 67, 100
5, 37740, Note_on_c, 3, 62, 100
5, 37800, Note_on_c, 3, 62, 0
5, 37800, Note_on_c, 3, 79, 0
5, 37800, Note_on_c, 3, 74, 0
5, 37800, Note_on_c, 3, 55, 0
5, 37800, Note_on_c, 3, 67, 0
5, 37800, Note_on_c, 3, 71, 0
5, 37800, Note_on_c, 3, 55, 100
5, 37800, Note_on_c, 3, 79, 100
5, 37800, Note_on_c, 3, 74, 100
5, 37800, Note_on_c, 3, 71, 100
5, 37800, Note_on_c, 3, 67, 100
5, 37800, Note_on_c, 3, 62, 100
5, 37860, Note_on_c, 3, 62, 0
5, 37860, Note_on_c, 3, 79, 0
5, 37860, Note_on_c, 3, 74, 0
5, 37860, Note_on_c, 3, 55, 0
5, 37860, Note_on_c, 3, 67, 0
5, 37860, Note_on_c, 3, 71, 0
5, 37860, Note_on_c, 3, 55, 100
5, 37860, Note_on_c, 3, 79, 100
5, 37860, Note_on_c, 3, 74, 100
5, 37860, Note_on_c, 3, 71, 100
5, 37860, Note_on_c, 3, 67, 100
5, 37860, Note_on_c, 3, 62, 100
5, 37920, Note_on_c, 3, 62, 0
5, 37920, Note_on_c, 3, 79, 0
5, 37920, Note_on_c, 3, 74, 0
5, 37920, Note_on_c, 3, 55, 0
5, 37920, Note_on_c, 3, 67, 0
5, 37920, Note_on_c, 3, 71, 0
5, 37920, Note_on_c, 3, 57, 100
5, 37920, Note_on_c, 3, 81, 100
5, 37920, Note_on_c, 3, 76, 100
5, 37920, Note_on_c, 3, 73, 100
5, 37920, Note_on_c, 3, 69, 100
5, 37920, Note_on_c, 3, 64, 100
5, 37980, Note_on_c, 3, 64, 0
5, 37980, Note_on_c, 3, 81, 0
5, 37980, Note_on_c, 3, 76, 0
5, 37980, Note_on_c, 3, 57, 0
5, 37980, Note_on_c, 3, 69, 0
5, 37980, Note_on_c, 3, 73, 0
5, 37980, Note_on_c, 3, 57, 100
5, 37980, Note_on_c, 3, 81, 100
5, 37980, Note_on_c, 3, 76, 100
5, 37980, Note_on_c, 3, 73, 100
5, 37980, Note_on_c, 3, 69, 100
5, 37980, Note_on_c, 3, 64, 100
5, 38040, Note_on_c, 3, 64, 0
5, 38040, Note_on_c, 3, 81, 0
5, 38040, Note_on_c, 3, 76, 0
5, 38040, Note_on_c, 3, 57, 0
5, 38040, Note_on_c, 3, 69, 0
5, 38040, Note_on_c, 3, 73, 0
5, 38040, Note_on_c, 3, 57, 100
5, 38040, Note_on_c, 3, 81, 100
5, 38040, Note_on_c, 3, 76, 100
5, 38040, Note_on_c, 3, 73, 100
5, 38040, Note_on_c, 3, 69, 100
5, 38040, Note_on_c, 3, 64, 100
5, 38100, Note_on_c, 3, 64, 0
5, 38100, Note_on_c, 3, 81, 0
5, 38100, Note_on_c, 3, 76, 0
5, 38100, Note_on_c, 3, 57, 0
5, 38100, Note_on_c, 3, 69, 0
5, 38100, Note_on_c, 3, 73, 0
5, 38100, Note_on_c, 3, 57, 100
5, 38100, Note_on_c, 3, 81, 100
5, 38100, Note_on_c, 3, 76, 100
5, 38100, Note_on_c, 3, 73, 100
5, 38100, Note_on_c, 3, 69, 100
5, 38100, Note_on_c, 3, 64, 100
5, 38160, Note_on_c, 3, 64, 0
5, 38160, Note_on_c, 3, 81, 0
5, 38160, Note_on_c, 3, 76, 0
5, 38160, Note_on_c, 3, 57, 0
5, 38160, Note_on_c, 3, 69, 0
5, 38160, Note_on_c, 3, 73, 0
5, 38220, Note_on_c, 3, 55, 100
5, 38220, Note_on_c, 3, 79, 100
5, 38220, Note_on_c, 3, 74, 100
5, 38220, Note_on_c, 3, 71, 100
5, 38220, Note_on_c, 3, 67, 100
5, 38220, Note_on_c, 3, 62, 100
5, 38280, Note_on_c, 3, 62, 0
5, 38280, Note_on_c, 3, 79, 0
5, 38280, Note_on_c, 3, 74, 0
5, 38280, Note_on_c, 3, 55, 0
5, 38280, Note_on_c, 3, 67, 0
5, 38280, Note_on_c, 3, 71, 0
5, 38280, Note_on_c, 3, 55, 100
5, 38280, Note_on_c, 3, 79, 100
5, 38280, Note_on_c, 3, 74, 100
5, 38280, Note_on_c, 3, 71, 100
5, 38280, Note_on_c, 3, 67, 100
5, 38280, Note_on_c, 3, 62, 100
5, 38340, Note_on_c, 3, 62, 0
5, 38340, Note_on_c, 3, 79, 0
5, 38340, Note_on_c, 3, 74, 0
5, 38340, Note_on_c, 3, 55, 0
5, 38340, Note_on_c, 3, 67, 0
5, 38340, Note_on_c, 3, 71, 0
5, 38340, Note_on_c, 3, 55, 100
5, 38340, Note_on_c, 3, 79, 100
5, 38340, Note_on_c, 3, 74, 100
5, 38340, Note_on_c, 3, 71, 100
5, 38340, Note_on_c, 3, 67, 100
5, 38340, Note_on_c, 3, 62, 100
5, 38400, Note_on_c, 3, 62, 0
5, 38400, Note_on_c, 3, 79, 0
5, 38400, Note_on_c, 3, 74, 0
5, 38400, Note_on_c, 3, 55, 0
5, 38400, Note_on_c, 3, 67, 0
5, 38400, Note_on_c, 3, 71, 0
5, 38400, Note_on_c, 3, 57, 100
5, 38400, Note_on_c, 3, 81, 100
5, 38400, Note_on_c, 3, 76, 100
5, 38400, Note_on_c, 3, 73, 100
5, 38400, Note_on_c, 3, 69, 100
5, 38400, Note_on_c, 3, 64, 100
5, 38460, Note_on_c, 3, 64, 0
5, 38460, Note_on_c, 3, 81, 0
5, 38460, Note_on_c, 3, 76, 0
5, 38460, Note_on_c, 3, 57, 0
5, 38460, Note_on_c, 3, 69, 0
5, 38460, Note_on_c, 3, 73, 0
5, 38460, Note_on_c, 3, 57, 100
5, 38460, Note_on_c, 3, 81, 100
5, 38460, Note_on_c, 3, 76, 100
5, 38460, Note_on_c, 3, 73, 100
5, 38460, Note_on_c, 3, 69, 100
5, 38460, Note_on_c, 3, 64, 100
5, 38520, Note_on_c, 3, 64, 0
5, 38520, Note_on_c, 3, 81, 0
5, 38520, Note_on_c, 3, 76, 0
5, 38520, Note_on_c, 3, 57, 0
5, 38520, Note_on_c, 3, 69, 0
5, 38520, Note_on_c, 3, 73, 0
5, 38520, Note_on_c, 3, 57, 100
5, 38520, Note_on_c, 3, 81, 100
5, 38520, Note_on_c, 3, 76, 100
5, 38520, Note_on_c, 3, 73, 100
5, 38520, Note_on_c, 3, 69, 100
5, 38520, Note_on_c, 3, 64, 100
5, 38580, Note_on_c, 3, 64, 0
5, 38580, Note_on_c, 3, 81, 0
5, 38580, Note_on_c, 3, 76, 0
5, 38580, Note_on_c, 3, 57, 0
5, 38580, Note_on_c, 3, 69, 0
5, 38580, Note_on_c, 3, 73, 0
5, 38580, Note_on_c, 3, 57, 100
5, 38580, Note_on_c, 3, 81, 100
5, 38580, Note_on_c, 3, 76, 100
5, 38580, Note_on_c, 3, 73, 100
5, 38580, Note_on_c, 3, 69, 100
5, 38580, Note_on_c, 3, 64, 100
5, 38640, Note_on_c, 3, 64, 0
5, 38640, Note_on_c, 3, 81, 0
5, 38640, Note_on_c, 3, 76, 0
5, 38640, Note_on_c, 3, 57, 0
5, 38640, Note_on_c, 3, 69, 0
5, 38640, Note_on_c, 3, 73, 0
5, 38700, Note_on_c, 3, 55, 100
5, 38700, Note_on_c, 3, 79, 100
5, 38700, Note_on_c, 3, 74, 100
5, 38700, Note_on_c, 3, 71, 100
5, 38700, Note_on_c, 3, 67, 100
5, 38700, Note_on_c, 3, 62, 100
5, 38760, Note_on_c, 3, 62, 0
5, 38760, Note_on_c, 3, 79, 0
5, 38760, Note_on_c, 3, 74, 0
5, 38760, Note_on_c, 3, 55, 0
5, 38760, Note_on_c, 3, 67, 0
5, 38760, Note_on_c, 3, 71, 0
5, 38760, Note_on_c, 3, 55, 100
5, 38760, Note_on_c, 3, 79, 100
5, 38760, Note_on_c, 3, 74, 100
5, 38760, Note_on_c, 3, 71, 100
5, 38760, Note_on_c, 3, 67, 100
5, 38760, Note_on_c, 3, 62, 100
5, 38820, Note_on_c, 3, 62, 0
5, 38820, Note_on_c, 3, 79, 0
5, 38820, Note_on_c, 3, 74, 0
5, 38820, Note_on_c, 3, 55, 0
5, 38820, Note_on_c, 3, 67, 0
5, 38820, Note_on_c, 3, 71, 0
5, 38820, Note_on_c, 3, 55, 100
5, 38820, Note_on_c, 3, 79, 100
5, 38820, Note_on_c, 3, 74, 100
5, 38820, Note_on_c, 3, 71, 100
5, 38820, Note_on_c, 3, 67, 100
5, 38820, Note_on_c, 3, 62, 100
5, 38880, Note_on_c, 3, 62, 0
5, 38880, Note_on_c, 3, 79, 0
5, 38880, Note_on_c, 3, 74, 0
5, 38880, Note_on_c, 3, 55, 0
5, 38880, Note_on_c, 3, 67, 0
5, 38880, Note_on_c, 3, 71, 0
5, 38880, Note_on_c, 3, 57, 100
5, 38880, Note_on_c, 3, 81, 100
5, 38880, Note_on_c, 3, 76, 100
5, 38880, Note_on_c, 3, 73, 100
5, 38880, Note_on_c, 3, 69, 100
5, 38880, Note_on_c, 3, 64, 100
5, 38940, Note_on_c, 3, 64, 0
5, 38940, Note_on_c, 3, 81, 0
5, 38940, Note_on_c, 3, 76, 0
5, 38940, Note_on_c, 3, 57, 0
5, 38940, Note_on_c, 3, 69, 0
5, 38940, Note_on_c, 3, 73, 0
5, 38940, Note_on_c, 3, 57, 100
5, 38940, Note_on_c, 3, 81, 100
5, 38940, Note_on_c, 3, 76, 100
5, 38940, Note_on_c, 3, 73, 100
5, 38940, Note_on_c, 3, 69, 100
5, 38940, Note_on_c, 3, 64, 100
5, 39000, Note_on_c, 3, 64, 0
5, 39000, Note_on_c, 3, 81, 0
5, 39000, Note_on_c, 3, 76, 0
5, 39000, Note_on_c, 3, 57, 0
5, 39000, Note_on_c, 3, 69, 0
5, 39000, Note_on_c, 3, 73, 0
5, 39000, Note_on_c, 3, 57, 100
5, 39000, Note_on_c, 3, 81, 100
5, 39000, Note_on_c, 3, 76, 100
5, 39000, Note_on_c, 3, 73, 100
5, 39000, Note_on_c, 3, 69, 100
5, 39000, Note_on_c, 3, 64, 100
5, 39060, Note_on_c, 3, 64, 0
5, 39060, Note_on_c, 3, 81, 0
5, 39060, Note_on_c, 3, 76, 0
5, 39060, Note_on_c, 3, 57, 0
5, 39060, Note_on_c, 3, 69, 0
5, 39060, Note_on_c, 3, 73, 0
5, 39060, Note_on_c, 3, 57, 100
5, 39060, Note_on_c, 3, 81, 100
5, 39060, Note_on_c, 3, 76, 100
5, 39060, Note_on_c, 3, 73, 100
5, 39060, Note_on_c, 3, 69, 100
5, 39060, Note_on_c, 3, 64, 100
5, 39120, Note_on_c, 3, 64, 0
5, 39120, Note_on_c, 3, 81, 0
5, 39120, Note_on_c, 3, 76, 0
5, 39120, Note_on_c, 3, 57, 0
5, 39120, Note_on_c, 3, 69, 0
5, 39120, Note_on_c, 3, 73, 0
5, 39180, Note_on_c, 3, 55, 100
5, 39180, Note_on_c, 3, 79, 100
5, 39180, Note_on_c, 3, 74, 100
5, 39180, Note_on_c, 3, 71, 100
5, 39180, Note_on_c, 3, 67, 100
5, 39180, Note_on_c, 3, 62, 100
5, 39240, Note_on_c, 3, 62, 0
5, 39240, Note_on_c, 3, 79, 0
5, 39240, Note_on_c, 3, 74, 0
5, 39240, Note_on_c, 3, 55, 0
5, 39240, Note_on_c, 3, 67, 0
5, 39240, Note_on_c, 3, 71, 0
5, 39240, Note_on_c, 3, 55, 100
5, 39240, Note_on_c, 3, 79, 100
5, 39240, Note_on_c, 3, 74, 100
5, 39240, Note_on_c, 3, 71, 100
5, 39240, Note_on_c, 3, 67, 100
5, 39240, Note_on_c, 3, 62, 100
5, 39300, Note_on_c, 3, 62, 0
5, 39300, Note_on_c, 3, 79, 0
5, 39300, Note_on_c, 3, 74, 0
5, 39300, Note_on_c, 3, 55, 0
5, 39300, Note_on_c, 3, 67, 0
5, 39300, Note_on_c, 3, 71, 0
5, 39300, Note_on_c, 3, 55, 100
5, 39300, Note_on_c, 3, 79, 100
5, 39300, Note_on_c, 3, 74, 100
5, 39300, Note_on_c, 3, 71, 100
5, 39300, Note_on_c, 3, 67, 100
5, 39300, Note_on_c, 3, 62, 100
5, 39360, Note_on_c, 3, 62, 0
5, 39360, Note_on_c, 3, 79, 0
5, 39360, Note_on_c, 3, 74, 0
5, 39360, Note_on_c, 3, 55, 0
5, 39360, Note_on_c, 3, 67, 0
5, 39360, Note_on_c, 3, 71, 0
5, 39360, Note_on_c, 3, 57, 100
5, 39360, Note_on_c, 3, 81, 100
5, 39360, Note_on_c, 3, 76, 100
5, 39360, Note_on_c, 3, 73, 100
5, 39360, Note_on_c, 3, 69, 100
5, 39360, Note_on_c, 3, 64, 100
5, 39420, Note_on_c, 3, 64, 0
5, 39420, Note_on_c, 3, 81, 0
5, 39420, Note_on_c, 3, 76, 0
5, 39420, Note_on_c, 3, 57, 0
5, 39420, Note_on_c, 3, 69, 0
5, 39420, Note_on_c, 3, 73, 0
5, 39420, Note_on_c, 3, 57, 100
5, 39420, Note_on_c, 3, 81, 100
5, 39420, Note_on_c, 3, 76, 100
5, 39420, Note_on_c, 3, 73, 100
5, 39420, Note_on_c, 3, 69, 100
5, 39420, Note_on_c, 3, 64, 100
5, 39480, Note_on_c, 3, 64, 0
5, 39480, Note_on_c, 3, 81, 0
5, 39480, Note_on_c, 3, 76, 0
5, 39480, Note_on_c, 3, 57, 0
5, 39480, Note_on_c, 3, 69, 0
5, 39480, Note_on_c, 3, 73, 0
5, 39480, Note_on_c, 3, 57, 100
5, 39480, Note_on_c, 3, 81, 100
5, 39480, Note_on_c, 3, 76, 100
5, 39480, Note_on_c, 3, 73, 100
5, 39480, Note_on_c, 3, 69, 100
5, 39480, Note_on_c, 3, 64, 100
5, 39540, Note_on_c, 3, 64, 0
5, 39540, Note_on_c, 3, 81, 0
5, 39540, Note_on_c, 3, 76, 0
5, 39540, Note_on_c, 3, 57, 0
5, 39540, Note_on_c, 3, 69, 0
5, 39540, Note_on_c, 3, 73, 0
5, 39540, Note_on_c, 3, 57, 100
5, 39540, Note_on_c, 3, 81, 100
5, 39540, Note_on_c, 3, 76, 100
5, 39540, Note_on_c, 3, 73, 100
5, 39540, Note_on_c, 3, 69, 100
5, 39540, Note_on_c, 3, 64, 100
5, 39600, Note_on_c, 3, 64, 0
5, 39600, Note_on_c, 3, 81, 0
5, 39600, Note_on_c, 3, 76, 0
5, 39600, Note_on_c, 3, 57, 0
5, 39600, Note_on_c, 3, 69, 0
5, 39600, Note_on_c, 3, 73, 0
5, 39660, Note_on_c, 3, 55, 100
5, 39660, Note_on_c, 3, 79, 100
5, 39660, Note_on_c, 3, 74, 100
5, 39660, Note_on_c, 3, 71, 100
5, 39660, Note_on_c, 3, 67, 100
5, 39660, Note_on_c, 3, 62, 100
5, 39720, Note_on_c, 3, 62, 0
5, 39720, Note_on_c, 3, 79, 0
5, 39720, Note_on_c, 3, 74, 0
5, 39720, Note_on_c, 3, 55, 0
5, 39720, Note_on_c, 3, 67, 0
5, 39720, Note_on_c, 3, 71, 0
5, 39720, Note_on_c, 3, 55, 100
5, 39720, Note_on_c, 3, 79, 100
5, 39720, Note_on_c, 3, 74, 100
5, 39720, Note_on_c, 3, 71, 100
5, 39720, Note_on_c, 3, 67, 100
5, 39720, Note_on_c, 3, 62, 100
5, 39780, Note_on_c, 3, 62, 0
5, 39780, Note_on_c, 3, 79, 0
5, 39780, Note_on_c, 3, 74, 0
5, 39780, Note_on_c, 3, 55, 0
5, 39780, Note_on_c, 3, 67, 0
5, 39780, Note_on_c, 3, 71, 0
5, 39780, Note_on_c, 3, 55, 100
5, 39780, Note_on_c, 3, 79, 100
5, 39780, Note_on_c, 3, 74, 100
5, 39780, Note_on_c, 3, 71, 100
5, 39780, Note_on_c, 3, 67, 100
5, 39780, Note_on_c, 3, 62, 100
5, 39840, Note_on_c, 3, 62, 0
5, 39840, Note_on_c, 3, 79, 0
5, 39840, Note_on_c, 3, 74, 0
5, 39840, Note_on_c, 3, 55, 0
5, 39840, Note_on_c, 3, 67, 0
5, 39840, Note_on_c, 3, 71, 0
5, 39840, Note_on_c, 3, 57, 100
5, 39840, Note_on_c, 3, 81, 100
5, 39840, Note_on_c, 3, 76, 100
5, 39840, Note_on_c, 3, 73, 100
5, 39840, Note_on_c, 3, 69, 100
5, 39840, Note_on_c, 3, 64, 100
5, 39900, Note_on_c, 3, 64, 0
5, 39900, Note_on_c, 3, 81, 0
5, 39900, Note_on_c, 3, 76, 0
5, 39900, Note_on_c, 3, 57, 0
5, 39900, Note_on_c, 3, 69, 0
5, 39900, Note_on_c, 3, 73, 0
5, 39900, Note_on_c, 3, 57, 100
5, 39900, Note_on_c, 3, 81, 100
5, 39900, Note_on_c, 3, 76, 100
5, 39900, Note_on_c, 3, 73, 100
5, 39900, Note_on_c, 3, 69, 100
5, 39900, Note_on_c, 3, 64, 100
5, 39960, Note_on_c, 3, 64, 0
5, 39960, Note_on_c, 3, 81, 0
5, 39960, Note_on_c, 3, 76, 0
5, 39960, Note_on_c, 3, 57, 0
5, 39960, Note_on_c, 3, 69, 0
5, 39960, Note_on_c, 3, 73, 0
5, 39960, Note_on_c, 3, 57, 100
5, 39960, Note_on_c, 3, 81, 100
5, 39960, Note_on_c, 3, 76, 100
5, 39960, Note_on_c, 3, 73, 100
5, 39960, Note_on_c, 3, 69, 100
5, 39960, Note_on_c, 3, 64, 100
5, 40020, Note_on_c, 3, 64, 0
5, 40020, Note_on_c, 3, 81, 0
5, 40020, Note_on_c, 3, 76, 0
5, 40020, Note_on_c, 3, 57, 0
5, 40020, Note_on_c, 3, 69, 0
5, 40020, Note_on_c, 3, 73, 0
5, 40020, Note_on_c, 3, 57, 100
5, 40020, Note_on_c, 3, 81, 100
5, 40020, Note_on_c, 3, 76, 100
5, 40020, Note_on_c, 3, 73, 100
5, 40020, Note_on_c, 3, 69, 100
5, 40020, Note_on_c, 3, 64, 100
5, 40080, Note_on_c, 3, 64, 0
5, 40080, Note_on_c, 3, 81, 0
5, 40080, Note_on_c, 3, 76, 0
5, 40080, Note_on_c, 3, 57, 0
5, 40080, Note_on_c, 3, 69, 0
5, 40080, Note_on_c, 3, 73, 0
5, 40140, Note_on_c, 3, 55, 100
5, 40140, Note_on_c, 3, 79, 100
5, 40140, Note_on_c, 3, 74, 100
5, 40140, Note_on_c, 3, 71, 100
5, 40140, Note_on_c, 3, 67, 100
5, 40140, Note_on_c, 3, 62, 100
5, 40200, Note_on_c, 3, 62, 0
5, 40200, Note_on_c, 3, 79, 0
5, 40200, Note_on_c, 3, 74, 0
5, 40200, Note_on_c, 3, 55, 0
5, 40200, Note_on_c, 3, 67, 0
5, 40200, Note_on_c, 3, 71, 0
5, 40200, Note_on_c, 3, 55, 100
5, 40200, Note_on_c, 3, 79, 100
5, 40200, Note_on_c, 3, 74, 100
5, 40200, Note_on_c, 3, 71, 100
5, 40200, Note_on_c, 3, 67, 100
5, 40200, Note_on_c, 3, 62, 100
5, 40260, Note_on_c, 3, 62, 0
5, 40260, Note_on_c, 3, 79, 0
5, 40260, Note_on_c, 3, 74, 0
5, 40260, Note_on_c, 3, 55, 0
5, 40260, Note_on_c, 3, 67, 0
5, 40260, Note_on_c, 3, 71, 0
5, 40260, Note_on_c, 3, 55, 100
5, 40260, Note_on_c, 3, 79, 100
5, 40260, Note_on_c, 3, 74, 100
5, 40260, Note_on_c, 3, 71, 100
5, 40260, Note_on_c, 3, 67, 100
5, 40260, Note_on_c, 3, 62, 100
5, 40320, Note_on_c, 3, 62, 0
5, 40320, Note_on_c, 3, 79, 0
5, 40320, Note_on_c, 3, 74, 0
5, 40320, Note_on_c, 3, 55, 0
5, 40320, Note_on_c, 3, 67, 0
5, 40320, Note_on_c, 3, 71, 0
5, 40320, Note_on_c, 3, 57, 100
5, 40320, Note_on_c, 3, 81, 100
5, 40320, Note_on_c, 3, 76, 100
5, 40320, Note_on_c, 3, 73, 100
5, 40320, Note_on_c, 3, 69, 100
5, 40320, Note_on_c, 3, 64, 100
5, 40380, Note_on_c, 3, 64, 0
5, 40380, Note_on_c, 3, 81, 0
5, 40380, Note_on_c, 3, 76, 0
5, 40380, Note_on_c, 3, 57, 0
5, 40380, Note_on_c, 3, 69, 0
5, 40380, Note_on_c, 3, 73, 0
5, 40380, Note_on_c, 3, 57, 100
5, 40380, Note_on_c, 3, 81, 100
5, 40380, Note_on_c, 3, 76, 100
5, 40380, Note_on_c, 3, 73, 100
5, 40380, Note_on_c, 3, 69, 100
5, 40380, Note_on_c, 3, 64, 100
5, 40440, Note_on_c, 3, 64, 0
5, 40440, Note_on_c, 3, 81, 0
5, 40440, Note_on_c, 3, 76, 0
5, 40440, Note_on_c, 3, 57, 0
5, 40440, Note_on_c, 3, 69, 0
5, 40440, Note_on_c, 3, 73, 0
5, 40440, Note_on_c, 3, 57, 100
5, 40440, Note_on_c, 3, 81, 100
5, 40440, Note_on_c, 3, 76, 100
5, 40440, Note_on_c, 3, 73, 100
5, 40440, Note_on_c, 3, 69, 100
5, 40440, Note_on_c, 3, 64, 100
5, 40500, Note_on_c, 3, 64, 0
5, 40500, Note_on_c, 3, 81, 0
5, 40500, Note_on_c, 3, 76, 0
5, 40500, Note_on_c, 3, 57, 0
5, 40500, Note_on_c, 3, 69, 0
5, 40500, Note_on_c, 3, 73, 0
5, 40500, Note_on_c, 3, 57, 100
5, 40500, Note_on_c, 3, 81, 100
5, 40500, Note_on_c, 3, 76, 100
5, 40500, Note_on_c, 3, 73, 100
5, 40500, Note_on_c, 3, 69, 100
5, 40500, Note_on_c, 3, 64, 100
5, 40560, Note_on_c, 3, 64, 0
5, 40560, Note_on_c, 3, 81, 0
5, 40560, Note_on_c, 3, 76, 0
5, 40560, Note_on_c, 3, 57, 0
5, 40560, Note_on_c, 3, 69, 0
5, 40560, Note_on_c, 3, 73, 0
5, 40620, Note_on_c, 3, 55, 100
5, 40620, Note_on_c, 3, 79, 100
5, 40620, Note_on_c, 3, 74, 100
5, 40620, Note_on_c, 3, 71, 100
5, 40620, Note_on_c, 3, 67, 100
5, 40620, Note_on_c, 3, 62, 100
5, 40680, Note_on_c, 3, 62, 0
5, 40680, Note_on_c, 3, 79, 0
5, 40680, Note_on_c, 3, 74, 0
5, 40680, Note_on_c, 3, 55, 0
5, 40680, Note_on_c, 3, 67, 0
5, 40680, Note_on_c, 3, 71, 0
5, 40680, Note_on_c, 3, 55, 100
5, 40680, Note_on_c, 3, 79, 100
5, 40680, Note_on_c, 3, 74, 100
5, 40680, Note_on_c, 3, 71, 100
5, 40680, Note_on_c, 3, 67, 100
5, 40680, Note_on_c, 3, 62, 100
5, 40740, Note_on_c, 3, 62, 0
5, 40740, Note_on_c, 3, 79, 0
5, 40740, Note_on_c, 3, 74, 0
5, 40740, Note_on_c, 3, 55, 0
5, 40740, Note_on_c, 3, 67, 0
5, 40740, Note_on_c, 3, 71, 0
5, 40740, Note_on_c, 3, 55, 100
5, 40740, Note_on_c, 3, 79, 100
5, 40740, Note_on_c, 3, 74, 100
5, 40740, Note_on_c, 3, 71, 100
5, 40740, Note_on_c, 3, 67, 100
5, 40740, Note_on_c, 3, 62, 100
5, 40800, Note_on_c, 3, 62, 0
5, 40800, Note_on_c, 3, 79, 0
5, 40800, Note_on_c, 3, 74, 0
5, 40800, Note_on_c, 3, 55, 0
5, 40800, Note_on_c, 3, 67, 0
5, 40800, Note_on_c, 3, 71, 0
5, 40800, Note_on_c, 3, 57, 100
5, 40800, Note_on_c, 3, 81, 100
5, 40800, Note_on_c, 3, 76, 100
5, 40800, Note_on_c, 3, 73, 100
5, 40800, Note_on_c, 3, 69, 100
5, 40800, Note_on_c, 3, 64, 100
5, 40860, Note_on_c, 3, 64, 0
5, 40860, Note_on_c, 3, 81, 0
5, 40860, Note_on_c, 3, 76, 0
5, 40860, Note_on_c, 3, 57, 0
5, 40860, Note_on_c, 3, 69, 0
5, 40860, Note_on_c, 3, 73, 0
5, 40860, Note_on_c, 3, 57, 100
5, 40860, Note_on_c, 3, 81, 100
5, 40860, Note_on_c, 3, 76, 100
5, 40860, Note_on_c, 3, 73, 100
5, 40860, Note_on_c, 3, 69, 100
5, 40860, Note_on_c, 3, 64, 100
5, 40920, Note_on_c, 3, 64, 0
5, 40920, Note_on_c, 3, 81, 0
5, 40920, Note_on_c, 3, 76, 0
5, 40920, Note_on_c, 3, 57, 0
5, 40920, Note_on_c, 3, 69, 0
5, 40920, Note_on_c, 3, 73, 0
5, 40920, Note_on_c, 3, 57, 100
5, 40920, Note_on_c, 3, 81, 100
5, 40920, Note_on_c, 3, 76, 100
5, 40920, Note_on_c, 3, 73, 100
5, 40920, Note_on_c, 3, 69, 100
5, 40920, Note_on_c, 3, 64, 100
5, 40980, Note_on_c, 3, 64, 0
5, 40980, Note_on_c, 3, 81, 0
5, 40980, Note_on_c, 3, 76, 0
5, 40980, Note_on_c, 3, 57, 0
5, 40980, Note_on_c, 3, 69, 0
5, 40980, Note_on_c, 3, 73, 0
5, 40980, Note_on_c, 3, 57, 100
5, 40980, Note_on_c, 3, 81, 100
5, 40980, Note_on_c, 3, 76, 100
5, 40980, Note_on_c, 3, 73, 100
5, 40980, Note_on_c, 3, 69, 100
5, 40980, Note_on_c, 3, 64, 100
5, 41040, Note_on_c, 3, 64, 0
5, 41040, Note_on_c, 3, 81, 0
5, 41040, Note_on_c, 3, 76, 0
5, 41040, Note_on_c, 3, 57, 0
5, 41040, Note_on_c, 3, 69, 0
5, 41040, Note_on_c, 3, 73, 0
5, 41100, Note_on_c, 3, 55, 100
5, 41100, Note_on_c, 3, 79, 100
5, 41100, Note_on_c, 3, 74, 100
5, 41100, Note_on_c, 3, 71, 100
5, 41100, Note_on_c, 3, 67, 100
5, 41100, Note_on_c, 3, 62, 100
5, 41160, Note_on_c, 3, 62, 0
5, 41160, Note_on_c, 3, 79, 0
5, 41160, Note_on_c, 3, 74, 0
5, 41160, Note_on_c, 3, 55, 0
5, 41160, Note_on_c, 3, 67, 0
5, 41160, Note_on_c, 3, 71, 0
5, 41160, Note_on_c, 3, 55, 100
5, 41160, Note_on_c, 3, 79, 100
5, 41160, Note_on_c, 3, 74, 100
5, 41160, Note_on_c, 3, 71, 100
5, 41160, Note_on_c, 3, 67, 100
5, 41160, Note_on_c, 3, 62, 100
5, 41220, Note_on_c, 3, 62, 0
5, 41220, Note_on_c, 3, 79, 0
5, 41220, Note_on_c, 3, 74, 0
5, 41220, Note_on_c, 3, 55, 0
5, 41220, Note_on_c, 3, 67, 0
5, 41220, Note_on_c, 3, 71, 0
5, 41220, Note_on_c, 3, 55, 100
5, 41220, Note_on_c, 3, 79, 100
5, 41220, Note_on_c, 3, 74, 100
5, 41220, Note_on_c, 3, 71, 100
5, 41220, Note_on_c, 3, 67, 100
5, 41220, Note_on_c, 3, 62, 100
5, 41280, Note_on_c, 3, 62, 0
5, 41280, Note_on_c, 3, 79, 0
5, 41280, Note_on_c, 3, 74, 0
5, 41280, Note_on_c, 3, 55, 0
5, 41280, Note_on_c, 3, 67, 0
5, 41280, Note_on_c, 3, 71, 0
5, 44280, Note_on_c, 3, 78, 100
5, 44280, Note_on_c, 3, 74, 100
5, 44280, Note_on_c, 3, 71, 100
5, 44280, Note_on_c, 3, 66, 100
5, 44280, Note_on_c, 3, 59, 100
5, 44280, Note_on_c, 3, 54, 100
5, 44400, Note_on_c, 3, 54, 0
5, 44400, Note_on_c, 3, 74, 0
5, 44400, Note_on_c, 3, 71, 0
5, 44400, Note_on_c, 3, 78, 0
5, 44400, Note_on_c, 3, 59, 0
5, 44400, Note_on_c, 3, 66, 0
5, 44400, Note_on_c, 3, 78, 100
5, 44400, Note_on_c, 3, 74, 100
5, 44400, Note_on_c, 3, 71, 100
5, 44400, Note_on_c, 3, 66, 100
5, 44400, Note_on_c, 3, 59, 100
5, 44400, Note_on_c, 3, 54, 100
5, 44520, Note_on_c, 3, 54, 0
5, 44520, Note_on_c, 3, 74, 0
5, 44520, Note_on_c, 3, 71, 0
5, 44520, Note_on_c, 3, 78, 0
5, 44520, Note_on_c, 3, 59, 0
5, 44520, Note_on_c, 3, 66, 0
5, 44520, Note_on_c, 3, 78, 100
5, 44520, Note_on_c, 3, 74, 100
5, 44520, Note_on_c, 3, 71, 100
5, 44520, Note_on_c, 3, 66, 100
5, 44520, Note_on_c, 3, 59, 100
5, 44520, Note_on_c, 3, 54, 100
5, 44640, Note_on_c, 3, 54, 0
5, 44640, Note_on_c, 3, 74, 0
5, 44640, Note_on_c, 3, 71, 0
5, 44640, Note_on_c, 3, 78, 0
5, 44640, Note_on_c, 3, 59, 0
5, 44640, Note_on_c, 3, 66, 0
5, 44640, Note_on_c, 3, 78, 100
5, 44640, Note_on_c, 3, 73, 100
5, 44640, Note_on_c, 3, 70, 100
5, 44640, Note_on_c, 3, 66, 100
5, 44640, Note_on_c, 3, 61, 100
5, 44640, Note_on_c, 3, 54, 100
5, 44700, Note_on_c, 3, 54, 0
5, 44700, Note_on_c, 3, 73, 0
5, 44700, Note_on_c, 3, 70, 0
5, 44700, Note_on_c, 3, 78, 0
5, 44700, Note_on_c, 3, 61, 0
5, 44700, Note_on_c, 3, 66, 0
5, 44700, Note_on_c, 3, 78, 100
5, 44700, Note_on_c, 3, 73, 100
5, 44700, Note_on_c, 3, 70, 100
5, 44700, Note_on_c, 3, 66, 100
5, 44700, Note_on_c, 3, 61, 100
5, 44700, Note_on_c, 3, 54, 100
5, 44760, Note_on_c, 3, 70, 0
5, 44820, Note_on_c, 3, 73, 0
5, 44820, Note_on_c, 3, 66, 0
5, 44820, Note_on_c, 3, 78, 0
5, 44820, Note_on_c, 3, 54, 0
5, 44820, Note_on_c, 3, 61, 0
5, 44820, Note_on_c, 3, 78, 100
5, 44820, Note_on_c, 3, 73, 100
5, 44820, Note_on_c, 3, 70, 100
5, 44820, Note_on_c, 3, 66, 100
5, 44820, Note_on_c, 3, 61, 100
5, 44820, Note_on_c, 3, 54, 100
5, 44880, Note_on_c, 3, 70, 0
5, 45120, Note_on_c, 3, 73, 0
5, 45120, Note_on_c, 3, 66, 0
5, 45120, Note_on_c, 3, 78, 0
5, 45120, Note_on_c, 3, 54, 0
5, 45120, Note_on_c, 3, 61, 0
5, 45120, Note_on_c, 3, 79, 100
5, 45120, Note_on_c, 3, 74, 100
5, 45120, Note_on_c, 3, 67, 100
5, 45120, Note_on_c, 3, 59, 100
5, 45120, Note_on_c, 3, 62, 100
5, 45120, Note_on_c, 3, 55, 100
5, 45240, Note_on_c, 3, 55, 0
5, 45240, Note_on_c, 3, 74, 0
5, 45240, Note_on_c, 3, 67, 0
5, 45240, Note_on_c, 3, 79, 0
5, 45240, Note_on_c, 3, 62, 0
5, 45240, Note_on_c, 3, 59, 0
5, 45240, Note_on_c, 3, 79, 100
5, 45240, Note_on_c, 3, 74, 100
5, 45240, Note_on_c, 3, 67, 100
5, 45240, Note_on_c, 3, 62, 100
5, 45240, Note_on_c, 3, 59, 100
5, 45240, Note_on_c, 3, 55, 100
5, 45360, Note_on_c, 3, 55, 0
5, 45360, Note_on_c, 3, 74, 0
5, 45360, Note_on_c, 3, 67, 0
5, 45360, Note_on_c, 3, 79, 0
5, 45360, Note_on_c, 3, 59, 0
5, 45360, Note_on_c, 3, 62, 0
5, 45360, Note_on_c, 3, 79, 100
5, 45360, Note_on_c, 3, 74, 100
5, 45360, Note_on_c, 3, 67, 100
5, 45360, Note_on_c, 3, 62, 100
5, 45360, Note_on_c, 3, 59, 100
5, 45360, Note_on_c, 3, 55, 100
5, 45480, Note_on_c, 3, 55, 0
5, 45480, Note_on_c, 3, 74, 0
5, 45480, Note_on_c, 3, 67, 0
5, 45480, Note_on_c, 3, 79, 0
5, 45480, Note_on_c, 3, 59, 0
5, 45480, Note_on_c, 3, 62, 0
5, 45480, Note_on_c, 3, 79, 100
5, 45480, Note_on_c, 3, 74, 100
5, 45480, Note_on_c, 3, 67, 100
5, 45480, Note_on_c, 3, 62, 100
5, 45480, Note_on_c, 3, 59, 100
5, 45480, Note_on_c, 3, 55, 100
5, 45600, Note_on_c, 3, 55, 0
5, 45600, Note_on_c, 3, 74, 0
5, 45600, Note_on_c, 3, 67, 0
5, 45600, Note_on_c, 3, 79, 0
5, 45600, Note_on_c, 3, 59, 0
5, 45600, Note_on_c, 3, 62, 0
5, 45600, Note_on_c, 3, 77, 100
5, 45600, Note_on_c, 3, 72, 100
5, 45600, Note_on_c, 3, 69, 100
5, 45600, Note_on_c, 3, 65, 100
5, 45600, Note_on_c, 3, 60, 100
5, 45600, Note_on_c, 3, 53, 100
5, 45840, Note_on_c, 3, 53, 0
5, 45840, Note_on_c, 3, 72, 0
5, 45840, Note_on_c, 3, 69, 0
5, 45840, Note_on_c, 3, 77, 0
5, 45840, Note_on_c, 3, 60, 0
5, 45840, Note_on_c, 3, 65, 0
5, 45840, Note_on_c, 3, 77, 100
5, 45840, Note_on_c, 3, 72, 100
5, 45840, Note_on_c, 3, 69, 100
5, 45840, Note_on_c, 3, 65, 100
5, 45840, Note_on_c, 3, 60, 100
5, 45840, Note_on_c, 3, 53, 100
5, 45960, Note_on_c, 3, 53, 0
5, 45960, Note_on_c, 3, 72, 0
5, 45960, Note_on_c, 3, 69, 0
5, 45960, Note_on_c, 3, 77, 0
5, 45960, Note_on_c, 3, 60, 0
5, 45960, Note_on_c, 3, 65, 0
5, 45960, Note_on_c, 3, 77, 100
5, 45960, Note_on_c, 3, 72, 100
5, 45960, Note_on_c, 3, 69, 100
5, 45960, Note_on_c, 3, 65, 100
5, 45960, Note_on_c, 3, 60, 100
5, 45960, Note_on_c, 3, 53, 100
5, 46080, Note_on_c, 3, 53, 0
5, 46080, Note_on_c, 3, 72, 0
5, 46080, Note_on_c, 3, 69, 0
5, 46080, Note_on_c, 3, 77, 0
5, 46080, Note_on_c, 3, 60, 0
5, 46080, Note_on_c, 3, 65, 0
5, 46080, Note_on_c, 3, 74, 100
5, 46080, Note_on_c, 3, 71, 100
5, 46080, Note_on_c, 3, 66, 100
5, 46080, Note_on_c, 3, 59, 100
5, 46080, Note_on_c, 3, 54, 100
5, 46080, Note_on_c, 3, 78, 100
5, 46200, Note_on_c, 3, 78, 0
5, 46200, Note_on_c, 3, 71, 0
5, 46200, Note_on_c, 3, 66, 0
5, 46200, Note_on_c, 3, 74, 0
5, 46200, Note_on_c, 3, 54, 0
5, 46200, Note_on_c, 3, 59, 0
5, 46200, Note_on_c, 3, 74, 100
5, 46200, Note_on_c, 3, 71, 100
5, 46200, Note_on_c, 3, 66, 100
5, 46200, Note_on_c, 3, 59, 100
5, 46200, Note_on_c, 3, 54, 100
5, 46200, Note_on_c, 3, 78, 100
5, 46320, Note_on_c, 3, 78, 0
5, 46320, Note_on_c, 3, 71, 0
5, 46320, Note_on_c, 3, 66, 0
5, 46320, Note_on_c, 3, 74, 0
5, 46320, Note_on_c, 3, 54, 0
5, 46320, Note_on_c, 3, 59, 0
5, 46320, Note_on_c, 3, 78, 100
5, 46320, Note_on_c, 3, 66, 100
5, 46320, Note_on_c, 3, 59, 100
5, 46320, Note_on_c, 3, 54, 100
5, 46320, Note_on_c, 3, 74, 100
5, 46320, Note_on_c, 3, 71, 100
5, 46440, Note_on_c, 3, 71, 0
5, 46440, Note_on_c, 3, 66, 0
5, 46440, Note_on_c, 3, 59, 0
5, 46440, Note_on_c, 3, 78, 0
5, 46440, Note_on_c, 3, 74, 0
5, 46440, Note_on_c, 3, 54, 0
5, 46440, Note_on_c, 3, 71, 100
5, 46440, Note_on_c, 3, 78, 100
5, 46440, Note_on_c, 3, 74, 100
5, 46440, Note_on_c, 3, 59, 100
5, 46440, Note_on_c, 3, 54, 100
5, 46440, Note_on_c, 3, 66, 100
5, 46560, Note_on_c, 3, 66, 0
5, 46560, Note_on_c, 3, 78, 0
5, 46560, Note_on_c, 3, 74, 0
5, 46560, Note_on_c, 3, 71, 0
5, 46560, Note_on_c, 3, 54, 0
5, 46560, Note_on_c, 3, 59, 0
5, 46560, Note_on_c, 3, 78, 100
5, 46560, Note_on_c, 3, 70, 100
5, 46560, Note_on_c, 3, 66, 100
5, 46560, Note_on_c, 3, 73, 100
5, 46560, Note_on_c, 3, 54, 100
5, 46560, Note_on_c, 3, 61, 100
5, 46620, Note_on_c, 3, 61, 0
5, 46620, Note_on_c, 3, 70, 0
5, 46620, Note_on_c, 3, 66, 0
5, 46620, Note_on_c, 3, 78, 0
5, 46620, Note_on_c, 3, 54, 0
5, 46620, Note_on_c, 3, 73, 0
5, 46620, Note_on_c, 3, 73, 100
5, 46620, Note_on_c, 3, 70, 100
5, 46620, Note_on_c, 3, 61, 100
5, 46620, Note_on_c, 3, 54, 100
5, 46620, Note_on_c, 3, 66, 100
5, 46620, Note_on_c, 3, 78, 100
5, 46680, Note_on_c, 3, 70, 0
5, 46740, Note_on_c, 3, 61, 0
5, 46740, Note_on_c, 3, 54, 0
5, 46740, Note_on_c, 3, 73, 0
5, 46740, Note_on_c, 3, 78, 0
5, 46740, Note_on_c, 3, 66, 0
5, 46740, Note_on_c, 3, 78, 100
5, 46740, Note_on_c, 3, 73, 100
5, 46740, Note_on_c, 3, 70, 100
5, 46740, Note_on_c, 3, 66, 100
5, 46740, Note_on_c, 3, 61, 100
5, 46740, Note_on_c, 3, 54, 100
5, 46800, Note_on_c, 3, 70, 0
5, 47040, Note_on_c, 3, 73, 0
5, 47040, Note_on_c, 3, 66, 0
5, 47040, Note_on_c, 3, 78, 0
5, 47040, Note_on_c, 3, 54, 0
5, 47040, Note_on_c, 3, 61, 0
5, 47040, Note_on_c, 3, 79, 100
5, 47040, Note_on_c, 3, 74, 100
5, 47040, Note_on_c, 3, 67, 100
5, 47040, Note_on_c, 3, 59, 100
5, 47040, Note_on_c, 3, 62, 100
5, 47040, Note_on_c, 3, 55, 100
5, 47160, Note_on_c, 3, 55, 0
5, 47160, Note_on_c, 3, 74, 0
5, 47160, Note_on_c, 3, 67, 0
5, 47160, Note_on_c, 3, 79, 0
5, 47160, Note_on_c, 3, 62, 0
5, 47160, Note_on_c, 3, 59, 0
5, 47160, Note_on_c, 3, 79, 100
5, 47160, Note_on_c, 3, 74, 100
5, 47160, Note_on_c, 3, 67, 100
5, 47160, Note_on_c, 3, 62, 100
5, 47160, Note_on_c, 3, 59, 100
5, 47160, Note_on_c, 3, 55, 100
5, 47280, Note_on_c, 3, 55, 0
5, 47280, Note_on_c, 3, 74, 0
5, 47280, Note_on_c, 3, 67, 0
5, 47280, Note_on_c, 3, 79, 0
5, 47280, Note_on_c, 3, 59, 0
5, 47280, Note_on_c, 3, 62, 0
5, 47280, Note_on_c, 3, 79, 100
5, 47280, Note_on_c, 3, 74, 100
5, 47280, Note_on_c, 3, 67, 100
5, 47280, Note_on_c, 3, 62, 100
5, 47280, Note_on_c, 3, 59, 100
5, 47280, Note_on_c, 3, 55, 100
5, 47400, Note_on_c, 3, 55, 0
5, 47400, Note_on_c, 3, 74, 0
5, 47400, Note_on_c, 3, 67, 0
5, 47400, Note_on_c, 3, 79, 0
5, 47400, Note_on_c, 3, 59, 0
5, 47400, Note_on_c, 3, 62, 0
5, 47400, Note_on_c, 3, 79, 100
5, 47400, Note_on_c, 3, 74, 100
5, 47400, Note_on_c, 3, 67, 100
5, 47400, Note_on_c, 3, 62, 100
5, 47400, Note_on_c, 3, 59, 100
5, 47400, Note_on_c, 3, 55, 100
5, 47520, Note_on_c, 3, 55, 0
5, 47520, Note_on_c, 3, 74, 0
5, 47520, Note_on_c, 3, 67, 0
5, 47520, Note_on_c, 3, 79, 0
5, 47520, Note_on_c, 3, 59, 0
5, 47520, Note_on_c, 3, 62, 0
5, 47520, Note_on_c, 3, 77, 100
5, 47520, Note_on_c, 3, 72, 100
5, 47520, Note_on_c, 3, 69, 100
5, 47520, Note_on_c, 3, 65, 100
5, 47520, Note_on_c, 3, 60, 100
5, 47520, Note_on_c, 3, 53, 100
5, 47760, Note_on_c, 3, 53, 0
5, 47760, Note_on_c, 3, 72, 0
5, 47760, Note_on_c, 3, 69, 0
5, 47760, Note_on_c, 3, 77, 0
5, 47760, Note_on_c, 3, 60, 0
5, 47760, Note_on_c, 3, 65, 0
5, 47760, Note_on_c, 3, 77, 100
5, 47760, Note_on_c, 3, 72, 100
5, 47760, Note_on_c, 3, 69, 100
5, 47760, Note_on_c, 3, 65, 100
5, 47760, Note_on_c, 3, 60, 100
5, 47760, Note_on_c, 3, 53, 100
5, 47880, Note_on_c, 3, 53, 0
5, 47880, Note_on_c, 3, 72, 0
5, 47880, Note_on_c, 3, 69, 0
5, 47880, Note_on_c, 3, 77, 0
5, 47880, Note_on_c, 3, 60, 0
5, 47880, Note_on_c, 3, 65, 0
5, 47880, Note_on_c, 3, 77, 100
5, 47880, Note_on_c, 3, 72, 100
5, 47880, Note_on_c, 3, 69, 100
5, 47880, Note_on_c, 3, 65, 100
5, 47880, Note_on_c, 3, 60, 100
5, 47880, Note_on_c, 3, 53, 100
5, 48000, Note_on_c, 3, 53, 0
5, 48000, Note_on_c, 3, 72, 0
5, 48000, Note_on_c, 3, 69, 0
5, 48000, Note_on_c, 3, 77, 0
5, 48000, Note_on_c, 3, 60, 0
5, 48000, Note_on_c, 3, 65, 0
5, 48060, Note_on_c, 3, 78, 100
5, 48060, Note_on_c, 3, 74, 100
5, 48060, Note_on_c, 3, 71, 100
5, 48060, Note_on_c, 3, 66, 100
5, 48060, Note_on_c, 3, 59, 100
5, 48060, Note_on_c, 3, 54, 100
5, 48120, Note_on_c, 3, 54, 0
5, 48120, Note_on_c, 3, 74, 0
5, 48120, Note_on_c, 3, 71, 0
5, 48120, Note_on_c, 3, 78, 0
5, 48120, Note_on_c, 3, 59, 0
5, 48120, Note_on_c, 3, 66, 0
5, 48120, Note_on_c, 3, 78, 100
5, 48120, Note_on_c, 3, 74, 100
5, 48120, Note_on_c, 3, 71, 100
5, 48120, Note_on_c, 3, 66, 100
5, 48120, Note_on_c, 3, 59, 100
5, 48120, Note_on_c, 3, 54, 100
5, 48180, Note_on_c, 3, 54, 0
5, 48180, Note_on_c, 3, 74, 0
5, 48180, Note_on_c, 3, 71, 0
5, 48180, Note_on_c, 3, 78, 0
5, 48180, Note_on_c, 3, 59, 0
5, 48180, Note_on_c, 3, 66, 0
5, 48180, Note_on_c, 3, 78, 100
5, 48180, Note_on_c, 3, 74, 100
5, 48180, Note_on_c, 3, 71, 100
5, 48180, Note_on_c, 3, 66, 100
5, 48180, Note_on_c, 3, 59, 100
5, 48180, Note_on_c, 3, 54, 100
5, 48240, Note_on_c, 3, 54, 0
5, 48240, Note_on_c, 3, 74, 0
5, 48240, Note_on_c, 3, 71, 0
5, 48240, Note_on_c, 3, 78, 0
5, 48240, Note_on_c, 3, 59, 0
5, 48240, Note_on_c, 3, 66, 0
5, 48300, Note_on_c, 3, 78, 100
5, 48300, Note_on_c, 3, 73, 100
5, 48300, Note_on_c, 3, 70, 100
5, 48300, Note_on_c, 3, 66, 100
5, 48300, Note_on_c, 3, 61, 100
5, 48300, Note_on_c, 3, 54, 100
5, 48360, Note_on_c, 3, 54, 0
5, 48360, Note_on_c, 3, 73, 0
5, 48360, Note_on_c, 3, 70, 0
5, 48360, Note_on_c, 3, 78, 0
5, 48360, Note_on_c, 3, 61, 0
5, 48360, Note_on_c, 3, 66, 0
5, 48360, Note_on_c, 3, 78, 100
5, 48360, Note_on_c, 3, 73, 100
5, 48360, Note_on_c, 3, 70, 100
5, 48360, Note_on_c, 3, 66, 100
5, 48360, Note_on_c, 3, 61, 100
5, 48360, Note_on_c, 3, 54, 100
5, 48420, Note_on_c, 3, 54, 0
5, 48420, Note_on_c, 3, 73, 0
5, 48420, Note_on_c, 3, 70, 0
5, 48420, Note_on_c, 3, 78, 0
5, 48420, Note_on_c, 3, 61, 0
5, 48420, Note_on_c, 3, 66, 0
5, 48420, Note_on_c, 3, 78, 100
5, 48420, Note_on_c, 3, 73, 100
5, 48420, Note_on_c, 3, 70, 100
5, 48420, Note_on_c, 3, 66, 100
5, 48420, Note_on_c, 3, 61, 100
5, 48420, Note_on_c, 3, 54, 100
5, 48480, Note_on_c, 3, 54, 0
5, 48480, Note_on_c, 3, 73, 0
5, 48480, Note_on_c, 3, 70, 0
5, 48480, Note_on_c, 3, 78, 0
5, 48480, Note_on_c, 3, 61, 0
5, 48480, Note_on_c, 3, 66, 0
5, 48480, Note_on_c, 3, 57, 100
5, 48480, Note_on_c, 3, 81, 100
5, 48480, Note_on_c, 3, 76, 100
5, 48480, Note_on_c, 3, 73, 100
5, 48480, Note_on_c, 3, 69, 100
5, 48480, Note_on_c, 3, 64, 100
5, 48540, Note_on_c, 3, 64, 0
5, 48540, Note_on_c, 3, 81, 0
5, 48540, Note_on_c, 3, 76, 0
5, 48540, Note_on_c, 3, 57, 0
5, 48540, Note_on_c, 3, 69, 0
5, 48540, Note_on_c, 3, 73, 0
5, 48540, Note_on_c, 3, 57, 100
5, 48540, Note_on_c, 3, 81, 100
5, 48540, Note_on_c, 3, 76, 100
5, 48540, Note_on_c, 3, 73, 100
5, 48540, Note_on_c, 3, 69, 100
5, 48540, Note_on_c, 3, 64, 100
5, 48600, Note_on_c, 3, 64, 0
5, 48600, Note_on_c, 3, 81, 0
5, 48600, Note_on_c, 3, 76, 0
5, 48600, Note_on_c, 3, 57, 0
5, 48600, Note_on_c, 3, 69, 0
5, 48600, Note_on_c, 3, 73, 0
5, 48600, Note_on_c, 3, 57, 100
5, 48600, Note_on_c, 3, 81, 100
5, 48600, Note_on_c, 3, 76, 100
5, 48600, Note_on_c, 3, 73, 100
5, 48600, Note_on_c, 3, 69, 100
5, 48600, Note_on_c, 3, 64, 100
5, 48660, Note_on_c, 3, 64, 0
5, 48660, Note_on_c, 3, 81, 0
5, 48660, Note_on_c, 3, 76, 0
5, 48660, Note_on_c, 3, 57, 0
5, 48660, Note_on_c, 3, 69, 0
5, 48660, Note_on_c, 3, 73, 0
5, 48660, Note_on_c, 3, 57, 100
5, 48660, Note_on_c, 3, 81, 100
5, 48660, Note_on_c, 3, 76, 100
5, 48660, Note_on_c, 3, 73, 100
5, 48660, Note_on_c, 3, 69, 100
5, 48660, Note_on_c, 3, 64, 100
5, 48720, Note_on_c, 3, 64, 0
5, 48720, Note_on_c, 3, 81, 0
5, 48720, Note_on_c, 3, 76, 0
5, 48720, Note_on_c, 3, 57, 0
5, 48720, Note_on_c, 3, 69, 0
5, 48720, Note_on_c, 3, 73, 0
5, 48780, Note_on_c, 3, 55, 100
5, 48780, Note_on_c, 3, 79, 100
5, 48780, Note_on_c, 3, 74, 100
5, 48780, Note_on_c, 3, 71, 100
5, 48780, Note_on_c, 3, 67, 100
5, 48780, Note_on_c, 3, 62, 100
5, 48840, Note_on_c, 3, 62, 0
5, 48840, Note_on_c, 3, 79, 0
5, 48840, Note_on_c, 3, 74, 0
5, 48840, Note_on_c, 3, 55, 0
5, 48840, Note_on_c, 3, 67, 0
5, 48840, Note_on_c, 3, 71, 0
5, 48840, Note_on_c, 3, 55, 100
5, 48840, Note_on_c, 3, 79, 100
5, 48840, Note_on_c, 3, 74, 100
5, 48840, Note_on_c, 3, 71, 100
5, 48840, Note_on_c, 3, 67, 100
5, 48840, Note_on_c, 3, 62, 100
5, 48900, Note_on_c, 3, 62, 0
5, 48900, Note_on_c, 3, 79, 0
5, 48900, Note_on_c, 3, 74, 0
5, 48900, Note_on_c, 3, 55, 0
5, 48900, Note_on_c, 3, 67, 0
5, 48900, Note_on_c, 3, 71, 0
5, 48900, Note_on_c, 3, 55, 100
5, 48900, Note_on_c, 3, 79, 100
5, 48900, Note_on_c, 3, 74, 100
5, 48900, Note_on_c, 3, 71, 100
5, 48900, Note_on_c, 3, 67, 100
5, 48900, Note_on_c, 3, 62, 100
5, 48960, Note_on_c, 3, 62, 0
5, 48960, Note_on_c, 3, 79, 0
5, 48960, Note_on_c, 3, 74, 0
5, 48960, Note_on_c, 3, 55, 0
5, 48960, Note_on_c, 3, 67, 0
5, 48960, Note_on_c, 3, 71, 0
5, 48960, Note_on_c, 3, 57, 100
5, 48960, Note_on_c, 3, 81, 100
5, 48960, Note_on_c, 3, 76, 100
5, 48960, Note_on_c, 3, 73, 100
5, 48960, Note_on_c, 3, 69, 100
5, 48960, Note_on_c, 3, 64, 100
5, 49020, Note_on_c, 3, 64, 0
5, 49020, Note_on_c, 3, 81, 0
5, 49020, Note_on_c, 3, 76, 0
5, 49020, Note_on_c, 3, 57, 0
5, 49020, Note_on_c, 3, 69, 0
5, 49020, Note_on_c, 3, 73, 0
5, 49020, Note_on_c, 3, 57, 100
5, 49020, Note_on_c, 3, 81, 100
5, 49020, Note_on_c, 3, 76, 100
5, 49020, Note_on_c, 3, 73, 100
5, 49020, Note_on_c, 3, 69, 100
5, 49020, Note_on_c, 3, 64, 100
5, 49080, Note_on_c, 3, 64, 0
5, 49080, Note_on_c, 3, 81, 0
5, 49080, Note_on_c, 3, 76, 0
5, 49080, Note_on_c, 3, 57, 0
5, 49080, Note_on_c, 3, 69, 0
5, 49080, Note_on_c, 3, 73, 0
5, 49080, Note_on_c, 3, 57, 100
5, 49080, Note_on_c, 3, 81, 100
5, 49080, Note_on_c, 3, 76, 100
5, 49080, Note_on_c, 3, 73, 100
5, 49080, Note_on_c, 3, 69, 100
5, 49080, Note_on_c, 3, 64, 100
5, 49140, Note_on_c, 3, 64, 0
5, 49140, Note_on_c, 3, 81, 0
5, 49140, Note_on_c, 3, 76, 0
5, 49140, Note_on_c, 3, 57, 0
5, 49140, Note_on_c, 3, 69, 0
5, 49140, Note_on_c, 3, 73, 0
5, 49140, Note_on_c, 3, 57, 100
5, 49140, Note_on_c, 3, 81, 100
5, 49140, Note_on_c, 3, 76, 100
5, 49140, Note_on_c, 3, 73, 100
5, 49140, Note_on_c, 3, 69, 100
5, 49140, Note_on_c, 3, 64, 100
5, 49200, Note_on_c, 3, 64, 0
5, 49200, Note_on_c, 3, 81, 0
5, 49200, Note_on_c, 3, 76, 0
5, 49200, Note_on_c, 3, 57, 0
5, 49200, Note_on_c, 3, 69, 0
5, 49200, Note_on_c, 3, 73, 0
5, 49260, Note_on_c, 3, 55, 100
5, 49260, Note_on_c, 3, 79, 100
5, 49260, Note_on_c, 3, 74, 100
5, 49260, Note_on_c, 3, 71, 100
5, 49260, Note_on_c, 3, 67, 100
5, 49260, Note_on_c, 3, 62, 100
5, 49320, Note_on_c, 3, 62, 0
5, 49320, Note_on_c, 3, 79, 0
5, 49320, Note_on_c, 3, 74, 0
5, 49320, Note_on_c, 3, 55, 0
5, 49320, Note_on_c, 3, 67, 0
5, 49320, Note_on_c, 3, 71, 0
5, 49320, Note_on_c, 3, 55, 100
5, 49320, Note_on_c, 3, 79, 100
5, 49320, Note_on_c, 3, 74, 100
5, 49320, Note_on_c, 3, 71, 100
5, 49320, Note_on_c, 3, 67, 100
5, 49320, Note_on_c, 3, 62, 100
5, 49380, Note_on_c, 3, 62, 0
5, 49380, Note_on_c, 3, 79, 0
5, 49380, Note_on_c, 3, 74, 0
5, 49380, Note_on_c, 3, 55, 0
5, 49380, Note_on_c, 3, 67, 0
5, 49380, Note_on_c, 3, 71, 0
5, 49380, Note_on_c, 3, 55, 100
5, 49380, Note_on_c, 3, 79, 100
5, 49380, Note_on_c, 3, 74, 100
5, 49380, Note_on_c, 3, 71, 100
5, 49380, Note_on_c, 3, 67, 100
5, 49380, Note_on_c, 3, 62, 100
5, 49440, Note_on_c, 3, 62, 0
5, 49440, Note_on_c, 3, 79, 0
5, 49440, Note_on_c, 3, 74, 0
5, 49440, Note_on_c, 3, 55, 0
5, 49440, Note_on_c, 3, 67, 0
5, 49440, Note_on_c, 3, 71, 0
5, 49500, Note_on_c, 3, 78, 100
5, 49500, Note_on_c, 3, 74, 100
5, 49500, Note_on_c, 3, 71, 100
5, 49500, Note_on_c, 3, 66, 100
5, 49500, Note_on_c, 3, 59, 100
5, 49500, Note_on_c, 3, 54, 100
5, 49560, Note_on_c, 3, 54, 0
5, 49560, Note_on_c, 3, 74, 0
5, 49560, Note_on_c, 3, 71, 0
5, 49560, Note_on_c, 3, 78, 0
5, 49560, Note_on_c, 3, 59, 0
5, 49560, Note_on_c, 3, 66, 0
5, 49560, Note_on_c, 3, 78, 100
5, 49560, Note_on_c, 3, 74, 100
5, 49560, Note_on_c, 3, 71, 100
5, 49560, Note_on_c, 3, 66, 100
5, 49560, Note_on_c, 3, 59, 100
5, 49560, Note_on_c, 3, 54, 100
5, 49620, Note_on_c, 3, 54, 0
5, 49620, Note_on_c, 3, 74, 0
5, 49620, Note_on_c, 3, 71, 0
5, 49620, Note_on_c, 3, 78, 0
5, 49620, Note_on_c, 3, 59, 0
5, 49620, Note_on_c, 3, 66, 0
5, 49620, Note_on_c, 3, 78, 100
5, 49620, Note_on_c, 3, 74, 100
5, 49620, Note_on_c, 3, 71, 100
5, 49620, Note_on_c, 3, 66, 100
5, 49620, Note_on_c, 3, 59, 100
5, 49620, Note_on_c, 3, 54, 100
5, 49680, Note_on_c, 3, 54, 0
5, 49680, Note_on_c, 3, 74, 0
5, 49680, Note_on_c, 3, 71, 0
5, 49680, Note_on_c, 3, 78, 0
5, 49680, Note_on_c, 3, 59, 0
5, 49680, Note_on_c, 3, 66, 0
5, 49740, Note_on_c, 3, 78, 100
5, 49740, Note_on_c, 3, 73, 100
5, 49740, Note_on_c, 3, 70, 100
5, 49740, Note_on_c, 3, 66, 100
5, 49740, Note_on_c, 3, 61, 100
5, 49740, Note_on_c, 3, 54, 100
5, 49800, Note_on_c, 3, 54, 0
5, 49800, Note_on_c, 3, 73, 0
5, 49800, Note_on_c, 3, 70, 0
5, 49800, Note_on_c, 3, 78, 0
5, 49800, Note_on_c, 3, 61, 0
5, 49800, Note_on_c, 3, 66, 0
5, 49800, Note_on_c, 3, 78, 100
5, 49800, Note_on_c, 3, 73, 100
5, 49800, Note_on_c, 3, 70, 100
5, 49800, Note_on_c, 3, 66, 100
5, 49800, Note_on_c, 3, 61, 100
5, 49800, Note_on_c, 3, 54, 100
5, 49860, Note_on_c, 3, 54, 0
5, 49860, Note_on_c, 3, 73, 0
5, 49860, Note_on_c, 3, 70, 0
5, 49860, Note_on_c, 3, 78, 0
5, 49860, Note_on_c, 3, 61, 0
5, 49860, Note_on_c, 3, 66, 0
5, 49860, Note_on_c, 3, 78, 100
5, 49860, Note_on_c, 3, 73, 100
5, 49860, Note_on_c, 3, 70, 100
5, 49860, Note_on_c, 3, 66, 100
5, 49860, Note_on_c, 3, 61, 100
5, 49860, Note_on_c, 3, 54, 100
5, 49920, Note_on_c, 3, 54, 0
5, 49920, Note_on_c, 3, 73, 0
5, 49920, Note_on_c, 3, 70, 0
5, 49920, Note_on_c, 3, 78, 0
5, 49920, Note_on_c, 3, 61, 0
5, 49920, Note_on_c, 3, 66, 0
5, 49920, Note_on_c, 3, 57, 100
5, 49920, Note_on_c, 3, 81, 100
5, 49920, Note_on_c, 3, 76, 100
5, 49920, Note_on_c, 3, 73, 100
5, 49920, Note_on_c, 3, 69, 100
5, 49920, Note_on_c, 3, 64, 100
5, 49980, Note_on_c, 3, 64, 0
5, 49980, Note_on_c, 3, 81, 0
5, 49980, Note_on_c, 3, 76, 0
5, 49980, Note_on_c, 3, 57, 0
5, 49980, Note_on_c, 3, 69, 0
5, 49980, Note_on_c, 3, 73, 0
5, 49980, Note_on_c, 3, 57, 100
5, 49980, Note_on_c, 3, 81, 100
5, 49980, Note_on_c, 3, 76, 100
5, 49980, Note_on_c, 3, 73, 100
5, 49980, Note_on_c, 3, 69, 100
5, 49980, Note_on_c, 3, 64, 100
5, 50040, Note_on_c, 3, 64, 0
5, 50040, Note_on_c, 3, 81, 0
5, 50040, Note_on_c, 3, 76, 0
5, 50040, Note_on_c, 3, 57, 0
5, 50040, Note_on_c, 3, 69, 0
5, 50040, Note_on_c, 3, 73, 0
5, 50040, Note_on_c, 3, 57, 100
5, 50040, Note_on_c, 3, 81, 100
5, 50040, Note_on_c, 3, 76, 100
5, 50040, Note_on_c, 3, 73, 100
5, 50040, Note_on_c, 3, 69, 100
5, 50040, Note_on_c, 3, 64, 100
5, 50100, Note_on_c, 3, 64, 0
5, 50100, Note_on_c, 3, 81, 0
5, 50100, Note_on_c, 3, 76, 0
5, 50100, Note_on_c, 3, 57, 0
5, 50100, Note_on_c, 3, 69, 0
5, 50100, Note_on_c, 3, 73, 0
5, 50100, Note_on_c, 3, 57, 100
5, 50100, Note_on_c, 3, 81, 100
5, 50100, Note_on_c, 3, 76, 100
5, 50100, Note_on_c, 3, 73, 100
5, 50100, Note_on_c, 3, 69, 100
5, 50100, Note_on_c, 3, 64, 100
5, 50160, Note_on_c, 3, 64, 0
5, 50160, Note_on_c, 3, 81, 0
5, 50160, Note_on_c, 3, 76, 0
5, 50160, Note_on_c, 3, 57, 0
5, 50160, Note_on_c, 3, 69, 0
5, 50160, Note_on_c, 3, 73, 0
5, 50220, Note_on_c, 3, 55, 100
5, 50220, Note_on_c, 3, 79, 100
5, 50220, Note_on_c, 3, 74, 100
5, 50220, Note_on_c, 3, 71, 100
5, 50220, Note_on_c, 3, 67, 100
5, 50220, Note_on_c, 3, 62, 100
5, 50280, Note_on_c, 3, 62, 0
5, 50280, Note_on_c, 3, 79, 0
5, 50280, Note_on_c, 3, 74, 0
5, 50280, Note_on_c, 3, 55, 0
5, 50280, Note_on_c, 3, 67, 0
5, 50280, Note_on_c, 3, 71, 0
5, 50280, Note_on_c, 3, 55, 100
5, 50280, Note_on_c, 3, 79, 100
5, 50280, Note_on_c, 3, 74, 100
5, 50280, Note_on_c, 3, 71, 100
5, 50280, Note_on_c, 3, 67, 100
5, 50280, Note_on_c, 3, 62, 100
5, 50340, Note_on_c, 3, 62, 0
5, 50340, Note_on_c, 3, 79, 0
5, 50340, Note_on_c, 3, 74, 0
5, 50340, Note_on_c, 3, 55, 0
5, 50340, Note_on_c, 3, 67, 0
5, 50340, Note_on_c, 3, 71, 0
5, 50340, Note_on_c, 3, 55, 100
5, 50340, Note_on_c, 3, 79, 100
5, 50340, Note_on_c, 3, 74, 100
5, 50340, Note_on_c, 3, 71, 100
5, 50340, Note_on_c, 3, 67, 100
5, 50340, Note_on_c, 3, 62, 100
5, 50400, Note_on_c, 3, 62, 0
5, 50400, Note_on_c, 3, 79, 0
5, 50400, Note_on_c, 3, 74, 0
5, 50400, Note_on_c, 3, 55, 0
5, 50400, Note_on_c, 3, 67, 0
5, 50400, Note_on_c, 3, 71, 0
5, 50400, Note_on_c, 3, 57, 100
5, 50400, Note_on_c, 3, 81, 100
5, 50400, Note_on_c, 3, 76, 100
5, 50400, Note_on_c, 3, 73, 100
5, 50400, Note_on_c, 3, 69, 100
5, 50400, Note_on_c, 3, 64, 100
5, 50460, Note_on_c, 3, 64, 0
5, 50460, Note_on_c, 3, 81, 0
5, 50460, Note_on_c, 3, 76, 0
5, 50460, Note_on_c, 3, 57, 0
5, 50460, Note_on_c, 3, 69, 0
5, 50460, Note_on_c, 3, 73, 0
5, 50460, Note_on_c, 3, 57, 100
5, 50460, Note_on_c, 3, 81, 100
5, 50460, Note_on_c, 3, 76, 100
5, 50460, Note_on_c, 3, 73, 100
5, 50460, Note_on_c, 3, 69, 100
5, 50460, Note_on_c, 3, 64, 100
5, 50520, Note_on_c, 3, 64, 0
5, 50520, Note_on_c, 3, 81, 0
5, 50520, Note_on_c, 3, 76, 0
5, 50520, Note_on_c, 3, 57, 0
5, 50520, Note_on_c, 3, 69, 0
5, 50520, Note_on_c, 3, 73, 0
5, 50520, Note_on_c, 3, 57, 100
5, 50520, Note_on_c, 3, 81, 100
5, 50520, Note_on_c, 3, 76, 100
5, 50520, Note_on_c, 3, 73, 100
5, 50520, Note_on_c, 3, 69, 100
5, 50520, Note_on_c, 3, 64, 100
5, 50580, Note_on_c, 3, 64, 0
5, 50580, Note_on_c, 3, 81, 0
5, 50580, Note_on_c, 3, 76, 0
5, 50580, Note_on_c, 3, 57, 0
5, 50580, Note_on_c, 3, 69, 0
5, 50580, Note_on_c, 3, 73, 0
5, 50580, Note_on_c, 3, 57, 100
5, 50580, Note_on_c, 3, 81, 100
5, 50580, Note_on_c, 3, 76, 100
5, 50580, Note_on_c, 3, 73, 100
5, 50580, Note_on_c, 3, 69, 100
5, 50580, Note_on_c, 3, 64, 100
5, 50640, Note_on_c, 3, 64, 0
5, 50640, Note_on_c, 3, 81, 0
5, 50640, Note_on_c, 3, 76, 0
5, 50640, Note_on_c, 3, 57, 0
5, 50640, Note_on_c, 3, 69, 0
5, 50640, Note_on_c, 3, 73, 0
5, 50700, Note_on_c, 3, 55, 100
5, 50700, Note_on_c, 3, 79, 100
5, 50700, Note_on_c, 3, 74, 100
5, 50700, Note_on_c, 3, 71, 100
5, 50700, Note_on_c, 3, 67, 100
5, 50700, Note_on_c, 3, 62, 100
5, 50760, Note_on_c, 3, 62, 0
5, 50760, Note_on_c, 3, 79, 0
5, 50760, Note_on_c, 3, 74, 0
5, 50760, Note_on_c, 3, 55, 0
5, 50760, Note_on_c, 3, 67, 0
5, 50760, Note_on_c, 3, 71, 0
5, 50760, Note_on_c, 3, 55, 100
5, 50760, Note_on_c, 3, 79, 100
5, 50760, Note_on_c, 3, 74, 100
5, 50760, Note_on_c, 3, 71, 100
5, 50760, Note_on_c, 3, 67, 100
5, 50760, Note_on_c, 3, 62, 100
5, 50820, Note_on_c, 3, 62, 0
5, 50820, Note_on_c, 3, 79, 0
5, 50820, Note_on_c, 3, 74, 0
5, 50820, Note_on_c, 3, 55, 0
5, 50820, Note_on_c, 3, 67, 0
5, 50820, Note_on_c, 3, 71, 0
5, 50820, Note_on_c, 3, 55, 100
5, 50820, Note_on_c, 3, 79, 100
5, 50820, Note_on_c, 3, 74, 100
5, 50820, Note_on_c, 3, 71, 100
5, 50820, Note_on_c, 3, 67, 100
5, 50820, Note_on_c, 3, 62, 100
5, 50880, Note_on_c, 3, 62, 0
5, 50880, Note_on_c, 3, 79, 0
5, 50880, Note_on_c, 3, 74, 0
5, 50880, Note_on_c, 3, 55, 0
5, 50880, Note_on_c, 3, 67, 0
5, 50880, Note_on_c, 3, 71, 0
5, 50940, Note_on_c, 3, 78, 100
5, 50940, Note_on_c, 3, 74, 100
5, 50940, Note_on_c, 3, 71, 100
5, 50940, Note_on_c, 3, 66, 100
5, 50940, Note_on_c, 3, 59, 100
5, 50940, Note_on_c, 3, 54, 100
5, 51000, Note_on_c, 3, 54, 0
5, 51000, Note_on_c, 3, 74, 0
5, 51000, Note_on_c, 3, 71, 0
5, 51000, Note_on_c, 3, 78, 0
5, 51000, Note_on_c, 3, 59, 0
5, 51000, Note_on_c, 3, 66, 0
5, 51000, Note_on_c, 3, 78, 100
5, 51000, Note_on_c, 3, 74, 100
5, 51000, Note_on_c, 3, 71, 100
5, 51000, Note_on_c, 3, 66, 100
5, 51000, Note_on_c, 3, 59, 100
5, 51000, Note_on_c, 3, 54, 100
5, 51060, Note_on_c, 3, 54, 0
5, 51060, Note_on_c, 3, 74, 0
5, 51060, Note_on_c, 3, 71, 0
5, 51060, Note_on_c, 3, 78, 0
5, 51060, Note_on_c, 3, 59, 0
5, 51060, Note_on_c, 3, 66, 0
5, 51060, Note_on_c, 3, 78, 100
5, 51060, Note_on_c, 3, 74, 100
5, 51060, Note_on_c, 3, 71, 100
5, 51060, Note_on_c, 3, 66, 100
5, 51060, Note_on_c, 3, 59, 100
5, 51060, Note_on_c, 3, 54, 100
5, 51120, Note_on_c, 3, 54, 0
5, 51120, Note_on_c, 3, 74, 0
5, 51120, Note_on_c, 3, 71, 0
5, 51120, Note_on_c, 3, 78, 0
5, 51120, Note_on_c, 3, 59, 0
5, 51120, Note_on_c, 3, 66, 0
5, 51180, Note_on_c, 3, 78, 100
5, 51180, Note_on_c, 3, 73, 100
5, 51180, Note_on_c, 3, 70, 100
5, 51180, Note_on_c, 3, 66, 100
5, 51180, Note_on_c, 3, 61, 100
5, 51180, Note_on_c, 3, 54, 100
5, 51240, Note_on_c, 3, 54, 0
5, 51240, Note_on_c, 3, 73, 0
5, 51240, Note_on_c, 3, 70, 0
5, 51240, Note_on_c, 3, 78, 0
5, 51240, Note_on_c, 3, 61, 0
5, 51240, Note_on_c, 3, 66, 0
5, 51240, Note_on_c, 3, 78, 100
5, 51240, Note_on_c, 3, 73, 100
5, 51240, Note_on_c, 3, 70, 100
5, 51240, Note_on_c, 3, 66, 100
5, 51240, Note_on_c, 3, 61, 100
5, 51240, Note_on_c, 3, 54, 100
5, 51300, Note_on_c, 3, 54, 0
5, 51300, Note_on_c, 3, 73, 0
5, 51300, Note_on_c, 3, 70, 0
5, 51300, Note_on_c, 3, 78, 0
5, 51300, Note_on_c, 3, 61, 0
5, 51300, Note_on_c, 3, 66, 0
5, 51300, Note_on_c, 3, 78, 100
5, 51300, Note_on_c, 3, 73, 100
5, 51300, Note_on_c, 3, 70, 100
5, 51300, Note_on_c, 3, 66, 100
5, 51300, Note_on_c, 3, 61, 100
5, 51300, Note_on_c, 3, 54, 100
5, 51360, Note_on_c, 3, 54, 0
5, 51360, Note_on_c, 3, 73, 0
5, 51360, Note_on_c, 3, 70, 0
5, 51360, Note_on_c, 3, 78, 0
5, 51360, Note_on_c, 3, 61, 0
5, 51360, Note_on_c, 3, 66, 0
5, 51360, Note_on_c, 3, 57, 100
5, 51360, Note_on_c, 3, 81, 100
5, 51360, Note_on_c, 3, 76, 100
5, 51360, Note_on_c, 3, 73, 100
5, 51360, Note_on_c, 3, 69, 100
5, 51360, Note_on_c, 3, 64, 100
5, 51420, Note_on_c, 3, 64, 0
5, 51420, Note_on_c, 3, 81, 0
5, 51420, Note_on_c, 3, 76, 0
5, 51420, Note_on_c, 3, 57, 0
5, 51420, Note_on_c, 3, 69, 0
5, 51420, Note_on_c, 3, 73, 0
5, 51420, Note_on_c, 3, 57, 100
5, 51420, Note_on_c, 3, 81, 100
5, 51420, Note_on_c, 3, 76, 100
5, 51420, Note_on_c, 3, 73, 100
5, 51420, Note_on_c, 3, 69, 100
5, 51420, Note_on_c, 3, 64, 100
5, 51480, Note_on_c, 3, 64, 0
5, 51480, Note_on_c, 3, 81, 0
5, 51480, Note_on_c, 3, 76, 0
5, 51480, Note_on_c, 3, 57, 0
5, 51480, Note_on_c, 3, 69, 0
5, 51480, Note_on_c, 3, 73, 0
5, 51480, Note_on_c, 3, 57, 100
5, 51480, Note_on_c, 3, 81, 100
5, 51480, Note_on_c, 3, 76, 100
5, 51480, Note_on_c, 3, 73, 100
5, 51480, Note_on_c, 3, 69, 100
5, 51480, Note_on_c, 3, 64, 100
5, 51540, Note_on_c, 3, 64, 0
5, 51540, Note_on_c, 3, 81, 0
5, 51540, Note_on_c, 3, 76, 0
5, 51540, Note_on_c, 3, 57, 0
5, 51540, Note_on_c, 3, 69, 0
5, 51540, Note_on_c, 3, 73, 0
5, 51540, Note_on_c, 3, 57, 100
5, 51540, Note_on_c, 3, 81, 100
5, 51540, Note_on_c, 3, 76, 100
5, 51540, Note_on_c, 3, 73, 100
5, 51540, Note_on_c, 3, 69, 100
5, 51540, Note_on_c, 3, 64, 100
5, 51600, Note_on_c, 3, 64, 0
5, 51600, Note_on_c, 3, 81, 0
5, 51600, Note_on_c, 3, 76, 0
5, 51600, Note_on_c, 3, 57, 0
5, 51600, Note_on_c, 3, 69, 0
5, 51600, Note_on_c, 3, 73, 0
5, 51660, Note_on_c, 3, 55, 100
5, 51660, Note_on_c, 3, 79, 100
5, 51660, Note_on_c, 3, 74, 100
5, 51660, Note_on_c, 3, 71, 100
5, 51660, Note_on_c, 3, 67, 100
5, 51660, Note_on_c, 3, 62, 100
5, 51720, Note_on_c, 3, 62, 0
5, 51720, Note_on_c, 3, 79, 0
5, 51720, Note_on_c, 3, 74, 0
5, 51720, Note_on_c, 3, 55, 0
5, 51720, Note_on_c, 3, 67, 0
5, 51720, Note_on_c, 3, 71, 0
5, 51720, Note_on_c, 3, 55, 100
5, 51720, Note_on_c, 3, 79, 100
5, 51720, Note_on_c, 3, 74, 100
5, 51720, Note_on_c, 3, 71, 100
5, 51720, Note_on_c, 3, 67, 100
5, 51720, Note_on_c, 3, 62, 100
5, 51780, Note_on_c, 3, 62, 0
5, 51780, Note_on_c, 3, 79, 0
5, 51780, Note_on_c, 3, 74, 0
5, 51780, Note_on_c, 3, 55, 0
5, 51780, Note_on_c, 3, 67, 0
5, 51780, Note_on_c, 3, 71, 0
5, 51780, Note_on_c, 3, 55, 100
5, 51780, Note_on_c, 3, 79, 100
5, 51780, Note_on_c, 3, 74, 100
5, 51780, Note_on_c, 3, 71, 100
5, 51780, Note_on_c, 3, 67, 100
5, 51780, Note_on_c, 3, 62, 100
5, 51840, Note_on_c, 3, 62, 0
5, 51840, Note_on_c, 3, 79, 0
5, 51840, Note_on_c, 3, 74, 0
5, 51840, Note_on_c, 3, 55, 0
5, 51840, Note_on_c, 3, 67, 0
5, 51840, Note_on_c, 3, 71, 0
5, 51840, Note_on_c, 3, 57, 100
5, 51840, Note_on_c, 3, 81, 100
5, 51840, Note_on_c, 3, 76, 100
5, 51840, Note_on_c, 3, 73, 100
5, 51840, Note_on_c, 3, 69, 100
5, 51840, Note_on_c, 3, 64, 100
5, 51900, Note_on_c, 3, 64, 0
5, 51900, Note_on_c, 3, 81, 0
5, 51900, Note_on_c, 3, 76, 0
5, 51900, Note_on_c, 3, 57, 0
5, 51900, Note_on_c, 3, 69, 0
5, 51900, Note_on_c, 3, 73, 0
5, 51900, Note_on_c, 3, 57, 100
5, 51900, Note_on_c, 3, 81, 100
5, 51900, Note_on_c, 3, 76, 100
5, 51900, Note_on_c, 3, 73, 100
5, 51900, Note_on_c, 3, 69, 100
5, 51900, Note_on_c, 3, 64, 100
5, 51960, Note_on_c, 3, 64, 0
5, 51960, Note_on_c, 3, 81, 0
5, 51960, Note_on_c, 3, 76, 0
5, 51960, Note_on_c, 3, 57, 0
5, 51960, Note_on_c, 3, 69, 0
5, 51960, Note_on_c, 3, 73, 0
5, 51960, Note_on_c, 3, 57, 100
5, 51960, Note_on_c, 3, 81, 100
5, 51960, Note_on_c, 3, 76, 100
5, 51960, Note_on_c, 3, 73, 100
5, 51960, Note_on_c, 3, 69, 100
5, 51960, Note_on_c, 3, 64, 100
5, 52020, Note_on_c, 3, 64, 0
5, 52020, Note_on_c, 3, 81, 0
5, 52020, Note_on_c, 3, 76, 0
5, 52020, Note_on_c, 3, 57, 0
5, 52020, Note_on_c, 3, 69, 0
5, 52020, Note_on_c, 3, 73, 0
5, 52020, Note_on_c, 3, 57, 100
5, 52020, Note_on_c, 3, 81, 100
5, 52020, Note_on_c, 3, 76, 100
5, 52020, Note_on_c, 3, 73, 100
5, 52020, Note_on_c, 3, 69, 100
5, 52020, Note_on_c, 3, 64, 100
5, 52080, Note_on_c, 3, 64, 0
5, 52080, Note_on_c, 3, 81, 0
5, 52080, Note_on_c, 3, 76, 0
5, 52080, Note_on_c, 3, 57, 0
5, 52080, Note_on_c, 3, 69, 0
5, 52080, Note_on_c, 3, 73, 0
5, 52140, Note_on_c, 3, 55, 100
5, 52140, Note_on_c, 3, 79, 100
5, 52140, Note_on_c, 3, 74, 100
5, 52140, Note_on_c, 3, 71, 100
5, 52140, Note_on_c, 3, 67, 100
5, 52140, Note_on_c, 3, 62, 100
5, 52200, Note_on_c, 3, 62, 0
5, 52200, Note_on_c, 3, 79, 0
5, 52200, Note_on_c, 3, 74, 0
5, 52200, Note_on_c, 3, 55, 0
5, 52200, Note_on_c, 3, 67, 0
5, 52200, Note_on_c, 3, 71, 0
5, 52200, Note_on_c, 3, 55, 100
5, 52200, Note_on_c, 3, 79, 100
5, 52200, Note_on_c, 3, 74, 100
5, 52200, Note_on_c, 3, 71, 100
5, 52200, Note_on_c, 3, 67, 100
5, 52200, Note_on_c, 3, 62, 100
5, 52260, Note_on_c, 3, 62, 0
5, 52260, Note_on_c, 3, 79, 0
5, 52260, Note_on_c, 3, 74, 0
5, 52260, Note_on_c, 3, 55, 0
5, 52260, Note_on_c, 3, 67, 0
5, 52260, Note_on_c, 3, 71, 0
5, 52260, Note_on_c, 3, 55, 100
5, 52260, Note_on_c, 3, 79, 100
5, 52260, Note_on_c, 3, 74, 100
5, 52260, Note_on_c, 3, 71, 100
5, 52260, Note_on_c, 3, 67, 100
5, 52260, Note_on_c, 3, 62, 100
5, 52320, Note_on_c, 3, 62, 0
5, 52320, Note_on_c, 3, 79, 0
5, 52320, Note_on_c, 3, 74, 0
5, 52320, Note_on_c, 3, 55, 0
5, 52320, Note_on_c, 3, 67, 0
5, 52320, Note_on_c, 3, 71, 0
5, 52380, Note_on_c, 3, 78, 100
5, 52380, Note_on_c, 3, 74, 100
5, 52380, Note_on_c, 3, 71, 100
5, 52380, Note_on_c, 3, 66, 100
5, 52380, Note_on_c, 3, 59, 100
5, 52380, Note_on_c, 3, 54, 100
5, 52440, Note_on_c, 3, 54, 0
5, 52440, Note_on_c, 3, 74, 0
5, 52440, Note_on_c, 3, 71, 0
5, 52440, Note_on_c, 3, 78, 0
5, 52440, Note_on_c, 3, 59, 0
5, 52440, Note_on_c, 3, 66, 0
5, 52440, Note_on_c, 3, 78, 100
5, 52440, Note_on_c, 3, 74, 100
5, 52440, Note_on_c, 3, 71, 100
5, 52440, Note_on_c, 3, 66, 100
5, 52440, Note_on_c, 3, 59, 100
5, 52440, Note_on_c, 3, 54, 100
5, 52500, Note_on_c, 3, 54, 0
5, 52500, Note_on_c, 3, 74, 0
5, 52500, Note_on_c, 3, 71, 0
5, 52500, Note_on_c, 3, 78, 0
5, 52500, Note_on_c, 3, 59, 0
5, 52500, Note_on_c, 3, 66, 0
5, 52500, Note_on_c, 3, 78, 100
5, 52500, Note_on_c, 3, 74, 100
5, 52500, Note_on_c, 3, 71, 100
5, 52500, Note_on_c, 3, 66, 100
5, 52500, Note_on_c, 3, 59, 100
5, 52500, Note_on_c, 3, 54, 100
5, 52560, Note_on_c, 3, 54, 0
5, 52560, Note_on_c, 3, 74, 0
5, 52560, Note_on_c, 3, 71, 0
5, 52560, Note_on_c, 3, 78, 0
5, 52560, Note_on_c, 3, 59, 0
5, 52560, Note_on_c, 3, 66, 0
5, 52620, Note_on_c, 3, 78, 100
5, 52620, Note_on_c, 3, 73, 100
5, 52620, Note_on_c, 3, 70, 100
5, 52620, Note_on_c, 3, 66, 100
5, 52620, Note_on_c, 3, 61, 100
5, 52620, Note_on_c, 3, 54, 100
5, 52680, Note_on_c, 3, 54, 0
5, 52680, Note_on_c, 3, 73, 0
5, 52680, Note_on_c, 3, 70, 0
5, 52680, Note_on_c, 3, 78, 0
5, 52680, Note_on_c, 3, 61, 0
5, 52680, Note_on_c, 3, 66, 0
5, 52680, Note_on_c, 3, 78, 100
5, 52680, Note_on_c, 3, 73, 100
5, 52680, Note_on_c, 3, 70, 100
5, 52680, Note_on_c, 3, 66, 100
5, 52680, Note_on_c, 3, 61, 100
5, 52680, Note_on_c, 3, 54, 100
5, 52740, Note_on_c, 3, 54, 0
5, 52740, Note_on_c, 3, 73, 0
5, 52740, Note_on_c, 3, 70, 0
5, 52740, Note_on_c, 3, 78, 0
5, 52740, Note_on_c, 3, 61, 0
5, 52740, Note_on_c, 3, 66, 0
5, 52740, Note_on_c, 3, 78, 100
5, 52740, Note_on_c, 3, 73, 100
5, 52740, Note_on_c, 3, 70, 100
5, 52740, Note_on_c, 3, 66, 100
5, 52740, Note_on_c, 3, 61, 100
5, 52740, Note_on_c, 3, 54, 100
5, 52800, Note_on_c, 3, 54, 0
5, 52800, Note_on_c, 3, 73, 0
5, 52800, Note_on_c, 3, 70, 0
5, 52800, Note_on_c, 3, 78, 0
5, 52800, Note_on_c, 3, 61, 0
5, 52800, Note_on_c, 3, 66, 0
5, 52800, Note_on_c, 3, 76, 100
5, 52800, Note_on_c, 3, 73, 100
5, 52800, Note_on_c, 3, 69, 100
5, 52800, Note_on_c, 3, 64, 100
5, 52800, Note_on_c, 3, 57, 100
5, 52800, Note_on_c, 3, 52, 100
5, 52815, Control_c, 3, 7, 116
5, 52815, Control_c, 3, 10, 60
5, 52815, Control_c, 3, 7, 117
5, 52835, Control_c, 3, 10, 59
5, 52835, Control_c, 3, 7, 115
5, 52860, Control_c, 3, 10, 60
5, 52860, Control_c, 3, 7, 116
5, 53000, Control_c, 3, 10, 59
5, 53000, Control_c, 3, 7, 115
5, 53015, Control_c, 3, 7, 114
5, 53040, Control_c, 3, 10, 58
5, 53040, Control_c, 3, 7, 113
5, 53065, Control_c, 3, 7, 112
5, 53110, Control_c, 3, 10, 57
5, 53110, Control_c, 3, 7, 111
5, 53155, Control_c, 3, 7, 110
5, 53210, Control_c, 3, 10, 56
5, 53210, Control_c, 3, 7, 109
5, 53245, Control_c, 3, 7, 108
5, 53295, Control_c, 3, 10, 55
5, 53295, Control_c, 3, 7, 107
5, 53315, Control_c, 3, 7, 106
5, 53340, Control_c, 3, 10, 54
5, 53340, Control_c, 3, 7, 105
5, 53355, Control_c, 3, 7, 104
5, 53370, Control_c, 3, 10, 53
5, 53370, Control_c, 3, 7, 103
5, 53390, Control_c, 3, 7, 102
5, 53400, Control_c, 3, 10, 52
5, 53400, Control_c, 3, 7, 101
5, 53415, Control_c, 3, 7, 100
5, 53420, Control_c, 3, 10, 51
5, 53420, Control_c, 3, 7, 99
5, 53440, Control_c, 3, 7, 98
5, 53450, Control_c, 3, 10, 50
5, 53450, Control_c, 3, 7, 97
5, 53465, Control_c, 3, 7, 96
5, 53470, Control_c, 3, 10, 49
5, 53470, Control_c, 3, 7, 95
5, 53480, Control_c, 3, 7, 94
5, 53485, Control_c, 3, 10, 48
5, 53485, Control_c, 3, 7, 93
5, 53500, Control_c, 3, 7, 92
5, 53505, Control_c, 3, 10, 47
5, 53505, Control_c, 3, 7, 91
5, 53515, Control_c, 3, 7, 90
5, 53520, Control_c, 3, 10, 46
5, 53520, Control_c, 3, 7, 89
5, 53525, Control_c, 3, 7, 88
5, 53530, Control_c, 3, 10, 45
5, 53530, Control_c, 3, 7, 87
5, 53535, Control_c, 3, 7, 86
5, 53540, Control_c, 3, 10, 44
5, 53540, Control_c, 3, 7, 85
5, 53550, Control_c, 3, 10, 43
5, 53550, Control_c, 3, 7, 83
5, 53550, Control_c, 3, 7, 84
5, 53560, Control_c, 3, 10, 42
5, 53560, Control_c, 3, 7, 82
5, 53570, Control_c, 3, 7, 81
5, 53580, Control_c, 3, 10, 41
5, 53580, Control_c, 3, 7, 80
5, 53585, Control_c, 3, 7, 79
5, 53595, Control_c, 3, 10, 40
5, 53595, Control_c, 3, 7, 78
5, 53600, Control_c, 3, 7, 77
5, 53610, Control_c, 3, 10, 39
5, 53610, Control_c, 3, 7, 76
5, 53615, Control_c, 3, 7, 75
5, 53625, Control_c, 3, 10, 38
5, 53625, Control_c, 3, 7, 74
5, 53630, Control_c, 3, 7, 73
5, 53635, Control_c, 3, 10, 37
5, 53635, Control_c, 3, 7, 72
5, 53645, Control_c, 3, 7, 71
5, 53660, Control_c, 3, 10, 36
5, 53660, Control_c, 3, 7, 70
5, 53670, Control_c, 3, 7, 69
5, 53700, Control_c, 3, 10, 35
5, 53700, Control_c, 3, 7, 68
5, 53710, Control_c, 3, 7, 67
5, 53720, Control_c, 3, 10, 34
5, 53720, Control_c, 3, 7, 66
5, 53725, Control_c, 3, 7, 65
5, 53740, Control_c, 3, 7, 63
5, 53740, Control_c, 3, 10, 33
5, 53740, Control_c, 3, 7, 64
5, 53750, Control_c, 3, 10, 32
5, 53750, Control_c, 3, 7, 62
5, 53755, Control_c, 3, 10, 31
5, 53755, Control_c, 3, 7, 61
5, 53760, Note_on_c, 3, 52, 0
5, 53760, Note_on_c, 3, 73, 0
5, 53760, Note_on_c, 3, 69, 0
5, 53760, Note_on_c, 3, 76, 0
5, 53760, Note_on_c, 3, 57, 0
5, 53760, Note_on_c, 3, 64, 0
5, 53760, End_track
6, 0, Start_track
6, 0, MIDI_port, 0
6, 0, Title_t, "Drums"
6, 0, Control_c, 9, 0, 0
6, 0, Control_c, 9, 32, 0
6, 0, Control_c, 9, 7, 90
6, 0, Note_on_c, 9, 42, 100
6, 0, Note_on_c, 9, 35, 100
6, 60, Note_on_c, 9, 42, 0
6, 60, Note_on_c, 9, 42, 100
6, 60, Note_on_c, 9, 35, 100
6, 120, Note_on_c, 9, 35, 0
6, 120, Note_on_c, 9, 42, 0
6, 120, Note_on_c, 9, 35, 0
6, 120, Note_on_c, 9, 42, 100
6, 120, Note_on_c, 9, 38, 100
6, 180, Note_on_c, 9, 38, 0
6, 180, Note_on_c, 9, 42, 0
6, 180, Note_on_c, 9, 42, 100
6, 240, Note_on_c, 9, 42, 0
6, 240, Note_on_c, 9, 42, 100
6, 240, Note_on_c, 9, 35, 100
6, 300, Note_on_c, 9, 35, 0
6, 300, Note_on_c, 9, 42, 0
6, 300, Note_on_c, 9, 42, 100
6, 300, Note_on_c, 9, 35, 100
6, 360, Note_on_c, 9, 35, 0
6, 360, Note_on_c, 9, 42, 0
6, 360, Note_on_c, 9, 42, 100
6, 360, Note_on_c, 9, 38, 100
6, 420, Note_on_c, 9, 38, 0
6, 420, Note_on_c, 9, 42, 0
6, 420, Note_on_c, 9, 42, 100
6, 480, Note_on_c, 9, 42, 0
6, 480, Note_on_c, 9, 42, 100
6, 480, Note_on_c, 9, 35, 100
6, 540, Note_on_c, 9, 35, 0
6, 540, Note_on_c, 9, 42, 0
6, 540, Note_on_c, 9, 42, 100
6, 540, Note_on_c, 9, 35, 100
6, 600, Note_on_c, 9, 35, 0
6, 600, Note_on_c, 9, 42, 0
6, 600, Note_on_c, 9, 42, 100
6, 600, Note_on_c, 9, 38, 100
6, 660, Note_on_c, 9, 38, 0
6, 660, Note_on_c, 9, 42, 0
6, 660, Note_on_c, 9, 42, 100
6, 720, Note_on_c, 9, 42, 0
6, 720, Note_on_c, 9, 42, 100
6, 720, Note_on_c, 9, 35, 100
6, 780, Note_on_c, 9, 35, 0
6, 780, Note_on_c, 9, 42, 0
6, 780, Note_on_c, 9, 42, 100
6, 780, Note_on_c, 9, 35, 100
6, 840, Note_on_c, 9, 35, 0
6, 840, Note_on_c, 9, 42, 0
6, 840, Note_on_c, 9, 42, 100
6, 840, Note_on_c, 9, 38, 100
6, 900, Note_on_c, 9, 38, 0
6, 900, Note_on_c, 9, 42, 0
6, 900, Note_on_c, 9, 42, 100
6, 960, Note_on_c, 9, 42, 0
6, 960, Note_on_c, 9, 42, 100
6, 960, Note_on_c, 9, 35, 100
6, 1020, Note_on_c, 9, 42, 0
6, 1020, Note_on_c, 9, 42, 100
6, 1020, Note_on_c, 9, 35, 100
6, 1080, Note_on_c, 9, 35, 0
6, 1080, Note_on_c, 9, 42, 0
6, 1080, Note_on_c, 9, 35, 0
6, 1080, Note_on_c, 9, 42, 100
6, 1080, Note_on_c, 9, 38, 100
6, 1140, Note_on_c, 9, 38, 0
6, 1140, Note_on_c, 9, 42, 0
6, 1140, Note_on_c, 9, 42, 100
6, 1200, Note_on_c, 9, 42, 0
6, 1200, Note_on_c, 9, 42, 100
6, 1200, Note_on_c, 9, 35, 100
6, 1260, Note_on_c, 9, 35, 0
6, 1260, Note_on_c, 9, 42, 0
6, 1260, Note_on_c, 9, 42, 100
6, 1260, Note_on_c, 9, 35, 100
6, 1320, Note_on_c, 9, 35, 0
6, 1320, Note_on_c, 9, 42, 0
6, 1320, Note_on_c, 9, 42, 100
6, 1320, Note_on_c, 9, 38, 100
6, 1380, Note_on_c, 9, 38, 0
6, 1380, Note_on_c, 9, 42, 0
6, 1380, Note_on_c, 9, 42, 100
6, 1440, Note_on_c, 9, 42, 0
6, 1440, Note_on_c, 9, 42, 100
6, 1440, Note_on_c, 9, 35, 100
6, 1500, Note_on_c, 9, 35, 0
6, 1500, Note_on_c, 9, 42, 0
6, 1500, Note_on_c, 9, 42, 100
6, 1500, Note_on_c, 9, 35, 100
6, 1560, Note_on_c, 9, 35, 0
6, 1560, Note_on_c, 9, 42, 0
6, 1560, Note_on_c, 9, 42, 100
6, 1560, Note_on_c, 9, 38, 100
6, 1620, Note_on_c, 9, 38, 0
6, 1620, Note_on_c, 9, 42, 0
6, 1620, Note_on_c, 9, 42, 100
6, 1680, Note_on_c, 9, 42, 0
6, 1680, Note_on_c, 9, 42, 100
6, 1680, Note_on_c, 9, 35, 100
6, 1740, Note_on_c, 9, 35, 0
6, 1740, Note_on_c, 9, 42, 0
6, 1740, Note_on_c, 9, 42, 100
6, 1740, Note_on_c, 9, 35, 100
6, 1800, Note_on_c, 9, 35, 0
6, 1800, Note_on_c, 9, 42, 0
6, 1800, Note_on_c, 9, 42, 100
6, 1800, Note_on_c, 9, 38, 100
6, 1860, Note_on_c, 9, 38, 0
6, 1860, Note_on_c, 9, 42, 0
6, 1860, Note_on_c, 9, 42, 100
6, 1920, Note_on_c, 9, 42, 0
6, 1920, Note_on_c, 9, 42, 100
6, 1920, Note_on_c, 9, 35, 100
6, 1980, Note_on_c, 9, 42, 0
6, 1980, Note_on_c, 9, 42, 100
6, 1980, Note_on_c, 9, 35, 100
6, 2040, Note_on_c, 9, 35, 0
6, 2040, Note_on_c, 9, 42, 0
6, 2040, Note_on_c, 9, 35, 0
6, 2040, Note_on_c, 9, 42, 100
6, 2040, Note_on_c, 9, 38, 100
6, 2100, Note_on_c, 9, 38, 0
6, 2100, Note_on_c, 9, 42, 0
6, 2100, Note_on_c, 9, 42, 100
6, 2160, Note_on_c, 9, 42, 0
6, 2160, Note_on_c, 9, 42, 100
6, 2160, Note_on_c, 9, 35, 100
6, 2220, Note_on_c, 9, 35, 0
6, 2220, Note_on_c, 9, 42, 0
6, 2220, Note_on_c, 9, 42, 100
6, 2220, Note_on_c, 9, 35, 100
6, 2280, Note_on_c, 9, 35, 0
6, 2280, Note_on_c, 9, 42, 0
6, 2280, Note_on_c, 9, 42, 100
6, 2280, Note_on_c, 9, 38, 100
6, 2340, Note_on_c, 9, 38, 0
6, 2340, Note_on_c, 9, 42, 0
6, 2340, Note_on_c, 9, 42, 100
6, 2400, Note_on_c, 9, 42, 0
6, 2400, Note_on_c, 9, 42, 100
6, 2400, Note_on_c, 9, 35, 100
6, 2460, Note_on_c, 9, 35, 0
6, 2460, Note_on_c, 9, 42, 0
6, 2460, Note_on_c, 9, 42, 100
6, 2460, Note_on_c, 9, 35, 100
6, 2520, Note_on_c, 9, 35, 0
6, 2520, Note_on_c, 9, 42, 0
6, 2520, Note_on_c, 9, 42, 100
6, 2520, Note_on_c, 9, 38, 100
6, 2580, Note_on_c, 9, 38, 0
6, 2580, Note_on_c, 9, 42, 0
6, 2580, Note_on_c, 9, 42, 100
6, 2640, Note_on_c, 9, 42, 0
6, 2640, Note_on_c, 9, 42, 100
6, 2640, Note_on_c, 9, 35, 100
6, 2700, Note_on_c, 9, 35, 0
6, 2700, Note_on_c, 9, 42, 0
6, 2700, Note_on_c, 9, 42, 100
6, 2700, Note_on_c, 9, 35, 100
6, 2745, Note_on_c, 9, 38, 100
6, 2760, Note_on_c, 9, 38, 0
6, 2760, Note_on_c, 9, 35, 0
6, 2760, Note_on_c, 9, 42, 0
6, 2760, Note_on_c, 9, 42, 100
6, 2760, Note_on_c, 9, 38, 100
6, 2795, Control_c, 9, 7, 91
6, 2800, Control_c, 9, 7, 95
6, 2800, Control_c, 9, 7, 92
6, 2805, Control_c, 9, 7, 98
6, 2810, Control_c, 9, 7, 108
6, 2810, Control_c, 9, 7, 102
6, 2815, Control_c, 9, 7, 115
6, 2820, Note_on_c, 9, 38, 0
6, 2820, Note_on_c, 9, 42, 0
6, 2820, Control_c, 9, 7, 119
6, 2825, Control_c, 9, 7, 125
6, 2825, Control_c, 9, 7, 122
6, 2830, Control_c, 9, 7, 127
6, 2880, Note_on_c, 9, 55, 100
6, 2880, Note_on_c, 9, 35, 100
6, 2940, Note_on_c, 9, 35, 0
6, 2940, Note_on_c, 9, 55, 0
6, 2940, Note_on_c, 9, 35, 100
6, 2940, Note_on_c, 9, 55, 100
6, 3000, Note_on_c, 9, 55, 0
6, 3000, Note_on_c, 9, 35, 0
6, 3000, Note_on_c, 9, 49, 100
6, 3000, Note_on_c, 9, 38, 100
6, 3000, Note_on_c, 9, 55, 100
6, 3060, Note_on_c, 9, 55, 0
6, 3060, Note_on_c, 9, 38, 0
6, 3060, Note_on_c, 9, 49, 0
6, 3060, Note_on_c, 9, 55, 100
6, 3120, Note_on_c, 9, 55, 0
6, 3120, Note_on_c, 9, 35, 100
6, 3120, Note_on_c, 9, 55, 100
6, 3180, Note_on_c, 9, 55, 0
6, 3180, Note_on_c, 9, 35, 0
6, 3180, Note_on_c, 9, 35, 100
6, 3180, Note_on_c, 9, 55, 100
6, 3240, Note_on_c, 9, 55, 0
6, 3240, Note_on_c, 9, 35, 0
6, 3240, Note_on_c, 9, 49, 100
6, 3240, Note_on_c, 9, 38, 100
6, 3240, Note_on_c, 9, 55, 100
6, 3300, Note_on_c, 9, 55, 0
6, 3300, Note_on_c, 9, 38, 0
6, 3300, Note_on_c, 9, 49, 0
6, 3300, Note_on_c, 9, 55, 100
6, 3360, Note_on_c, 9, 55, 0
6, 3360, Note_on_c, 9, 55, 100
6, 3360, Note_on_c, 9, 35, 100
6, 3420, Note_on_c, 9, 35, 0
6, 3420, Note_on_c, 9, 55, 0
6, 3420, Note_on_c, 9, 35, 100
6, 3420, Note_on_c, 9, 55, 100
6, 3480, Note_on_c, 9, 55, 0
6, 3480, Note_on_c, 9, 35, 0
6, 3480, Note_on_c, 9, 49, 100
6, 3480, Note_on_c, 9, 38, 100
6, 3480, Note_on_c, 9, 55, 100
6, 3540, Note_on_c, 9, 55, 0
6, 3540, Note_on_c, 9, 38, 0
6, 3540, Note_on_c, 9, 49, 0
6, 3540, Note_on_c, 9, 55, 100
6, 3600, Note_on_c, 9, 55, 0
6, 3600, Note_on_c, 9, 35, 100
6, 3600, Note_on_c, 9, 55, 100
6, 3660, Note_on_c, 9, 55, 0
6, 3660, Note_on_c, 9, 35, 0
6, 3660, Note_on_c, 9, 35, 100
6, 3660, Note_on_c, 9, 55, 100
6, 3720, Note_on_c, 9, 55, 0
6, 3720, Note_on_c, 9, 35, 0
6, 3720, Note_on_c, 9, 49, 100
6, 3720, Note_on_c, 9, 38, 100
6, 3720, Note_on_c, 9, 55, 100
6, 3780, Note_on_c, 9, 55, 0
6, 3780, Note_on_c, 9, 38, 0
6, 3780, Note_on_c, 9, 49, 0
6, 3780, Note_on_c, 9, 55, 100
6, 3840, Note_on_c, 9, 55, 0
6, 3840, Note_on_c, 9, 55, 100
6, 3840, Note_on_c, 9, 35, 100
6, 3900, Note_on_c, 9, 35, 0
6, 3900, Note_on_c, 9, 55, 0
6, 3900, Note_on_c, 9, 35, 100
6, 3900, Note_on_c, 9, 55, 100
6, 3960, Note_on_c, 9, 55, 0
6, 3960, Note_on_c, 9, 35, 0
6, 3960, Note_on_c, 9, 49, 100
6, 3960, Note_on_c, 9, 38, 100
6, 3960, Note_on_c, 9, 55, 100
6, 4020, Note_on_c, 9, 55, 0
6, 4020, Note_on_c, 9, 38, 0
6, 4020, Note_on_c, 9, 49, 0
6, 4020, Note_on_c, 9, 55, 100
6, 4080, Note_on_c, 9, 55, 0
6, 4080, Note_on_c, 9, 35, 100
6, 4080, Note_on_c, 9, 55, 100
6, 4140, Note_on_c, 9, 55, 0
6, 4140, Note_on_c, 9, 35, 0
6, 4140, Note_on_c, 9, 35, 100
6, 4140, Note_on_c, 9, 55, 100
6, 4200, Note_on_c, 9, 55, 0
6, 4200, Note_on_c, 9, 35, 0
6, 4200, Note_on_c, 9, 49, 100
6, 4200, Note_on_c, 9, 38, 100
6, 4200, Note_on_c, 9, 55, 100
6, 4260, Note_on_c, 9, 55, 0
6, 4260, Note_on_c, 9, 38, 0
6, 4260, Note_on_c, 9, 49, 0
6, 4260, Note_on_c, 9, 55, 100
6, 4320, Note_on_c, 9, 55, 0
6, 4320, Note_on_c, 9, 55, 100
6, 4320, Note_on_c, 9, 35, 100
6, 4380, Note_on_c, 9, 35, 0
6, 4380, Note_on_c, 9, 55, 0
6, 4380, Note_on_c, 9, 35, 100
6, 4380, Note_on_c, 9, 55, 100
6, 4440, Note_on_c, 9, 55, 0
6, 4440, Note_on_c, 9, 35, 0
6, 4440, Note_on_c, 9, 49, 100
6, 4440, Note_on_c, 9, 38, 100
6, 4440, Note_on_c, 9, 55, 100
6, 4500, Note_on_c, 9, 55, 0
6, 4500, Note_on_c, 9, 38, 0
6, 4500, Note_on_c, 9, 49, 0
6, 4500, Note_on_c, 9, 55, 100
6, 4560, Note_on_c, 9, 55, 0
6, 4560, Note_on_c, 9, 35, 100
6, 4560, Note_on_c, 9, 55, 100
6, 4620, Note_on_c, 9, 55, 0
6, 4620, Note_on_c, 9, 35, 0
6, 4620, Note_on_c, 9, 35, 100
6, 4620, Note_on_c, 9, 55, 100
6, 4680, Note_on_c, 9, 55, 0
6, 4680, Note_on_c, 9, 35, 0
6, 4680, Note_on_c, 9, 49, 100
6, 4680, Note_on_c, 9, 38, 100
6, 4680, Note_on_c, 9, 55, 100
6, 4740, Note_on_c, 9, 55, 0
6, 4740, Note_on_c, 9, 38, 0
6, 4740, Note_on_c, 9, 49, 0
6, 4740, Note_on_c, 9, 55, 100
6, 4800, Note_on_c, 9, 55, 0
6, 4800, Note_on_c, 9, 55, 100
6, 4800, Note_on_c, 9, 35, 100
6, 4860, Note_on_c, 9, 35, 0
6, 4860, Note_on_c, 9, 55, 0
6, 4860, Note_on_c, 9, 35, 100
6, 4860, Note_on_c, 9, 55, 100
6, 4920, Note_on_c, 9, 55, 0
6, 4920, Note_on_c, 9, 35, 0
6, 4920, Note_on_c, 9, 49, 100
6, 4920, Note_on_c, 9, 38, 100
6, 4920, Note_on_c, 9, 55, 100
6, 4980, Note_on_c, 9, 55, 0
6, 4980, Note_on_c, 9, 38, 0
6, 4980, Note_on_c, 9, 49, 0
6, 4980, Note_on_c, 9, 55, 100
6, 5040, Note_on_c, 9, 55, 0
6, 5040, Note_on_c, 9, 35, 100
6, 5040, Note_on_c, 9, 55, 100
6, 5100, Note_on_c, 9, 55, 0
6, 5100, Note_on_c, 9, 35, 0
6, 5100, Note_on_c, 9, 35, 100
6, 5100, Note_on_c, 9, 55, 100
6, 5160, Note_on_c, 9, 55, 0
6, 5160, Note_on_c, 9, 35, 0
6, 5160, Note_on_c, 9, 49, 100
6, 5160, Note_on_c, 9, 38, 100
6, 5160, Note_on_c, 9, 55, 100
6, 5220, Note_on_c, 9, 55, 0
6, 5220, Note_on_c, 9, 38, 0
6, 5220, Note_on_c, 9, 49, 0
6, 5220, Note_on_c, 9, 55, 100
6, 5280, Note_on_c, 9, 55, 0
6, 5280, Note_on_c, 9, 55, 100
6, 5280, Note_on_c, 9, 35, 100
6, 5340, Note_on_c, 9, 35, 0
6, 5340, Note_on_c, 9, 55, 0
6, 5340, Note_on_c, 9, 35, 100
6, 5340, Note_on_c, 9, 55, 100
6, 5400, Note_on_c, 9, 55, 0
6, 5400, Note_on_c, 9, 35, 0
6, 5400, Note_on_c, 9, 49, 100
6, 5400, Note_on_c, 9, 38, 100
6, 5400, Note_on_c, 9, 55, 100
6, 5460, Note_on_c, 9, 55, 0
6, 5460, Note_on_c, 9, 38, 0
6, 5460, Note_on_c, 9, 49, 0
6, 5460, Note_on_c, 9, 55, 100
6, 5520, Note_on_c, 9, 55, 0
6, 5520, Note_on_c, 9, 35, 100
6, 5520, Note_on_c, 9, 55, 100
6, 5580, Note_on_c, 9, 55, 0
6, 5580, Note_on_c, 9, 35, 0
6, 5580, Note_on_c, 9, 35, 100
6, 5580, Note_on_c, 9, 55, 100
6, 5640, Note_on_c, 9, 55, 0
6, 5640, Note_on_c, 9, 35, 0
6, 5640, Note_on_c, 9, 49, 100
6, 5640, Note_on_c, 9, 38, 100
6, 5640, Note_on_c, 9, 55, 100
6, 5700, Note_on_c, 9, 55, 0
6, 5700, Note_on_c, 9, 38, 0
6, 5700, Note_on_c, 9, 49, 0
6, 5700, Note_on_c, 9, 55, 100
6, 5760, Note_on_c, 9, 55, 0
6, 5760, Note_on_c, 9, 55, 100
6, 5760, Note_on_c, 9, 35, 100
6, 5820, Note_on_c, 9, 35, 0
6, 5820, Note_on_c, 9, 55, 0
6, 5820, Note_on_c, 9, 35, 100
6, 5820, Note_on_c, 9, 55, 100
6, 5880, Note_on_c, 9, 55, 0
6, 5880, Note_on_c, 9, 35, 0
6, 5880, Note_on_c, 9, 49, 100
6, 5880, Note_on_c, 9, 38, 100
6, 5880, Note_on_c, 9, 55, 100
6, 5940, Note_on_c, 9, 55, 0
6, 5940, Note_on_c, 9, 38, 0
6, 5940, Note_on_c, 9, 49, 0
6, 5940, Note_on_c, 9, 55, 100
6, 6000, Note_on_c, 9, 55, 0
6, 6000, Note_on_c, 9, 35, 100
6, 6000, Note_on_c, 9, 55, 100
6, 6060, Note_on_c, 9, 55, 0
6, 6060, Note_on_c, 9, 35, 0
6, 6060, Note_on_c, 9, 35, 100
6, 6060, Note_on_c, 9, 55, 100
6, 6120, Note_on_c, 9, 55, 0
6, 6120, Note_on_c, 9, 35, 0
6, 6120, Note_on_c, 9, 49, 100
6, 6120, Note_on_c, 9, 38, 100
6, 6120, Note_on_c, 9, 55, 100
6, 6180, Note_on_c, 9, 55, 0
6, 6180, Note_on_c, 9, 38, 0
6, 6180, Note_on_c, 9, 49, 0
6, 6180, Note_on_c, 9, 55, 100
6, 6240, Note_on_c, 9, 55, 0
6, 6240, Note_on_c, 9, 55, 100
6, 6240, Note_on_c, 9, 35, 100
6, 6300, Note_on_c, 9, 35, 0
6, 6300, Note_on_c, 9, 55, 0
6, 6300, Note_on_c, 9, 35, 100
6, 6300, Note_on_c, 9, 55, 100
6, 6360, Note_on_c, 9, 55, 0
6, 6360, Note_on_c, 9, 35, 0
6, 6360, Note_on_c, 9, 49, 100
6, 6360, Note_on_c, 9, 38, 100
6, 6360, Note_on_c, 9, 55, 100
6, 6420, Note_on_c, 9, 55, 0
6, 6420, Note_on_c, 9, 38, 0
6, 6420, Note_on_c, 9, 49, 0
6, 6420, Note_on_c, 9, 55, 100
6, 6480, Note_on_c, 9, 55, 0
6, 6480, Note_on_c, 9, 35, 100
6, 6480, Note_on_c, 9, 55, 100
6, 6540, Note_on_c, 9, 55, 0
6, 6540, Note_on_c, 9, 35, 0
6, 6540, Note_on_c, 9, 35, 100
6, 6540, Note_on_c, 9, 55, 100
6, 6600, Note_on_c, 9, 55, 0
6, 6600, Note_on_c, 9, 35, 0
6, 6600, Note_on_c, 9, 49, 100
6, 6600, Note_on_c, 9, 38, 100
6, 6600, Note_on_c, 9, 55, 100
6, 6660, Note_on_c, 9, 55, 0
6, 6660, Note_on_c, 9, 38, 0
6, 6660, Note_on_c, 9, 49, 0
6, 6660, Note_on_c, 9, 55, 100
6, 6720, Note_on_c, 9, 55, 0
6, 6720, Note_on_c, 9, 55, 100
6, 6720, Note_on_c, 9, 35, 100
6, 6780, Note_on_c, 9, 35, 0
6, 6780, Note_on_c, 9, 55, 0
6, 6780, Note_on_c, 9, 35, 100
6, 6780, Note_on_c, 9, 55, 100
6, 6840, Note_on_c, 9, 55, 0
6, 6840, Note_on_c, 9, 35, 0
6, 6840, Note_on_c, 9, 49, 100
6, 6840, Note_on_c, 9, 38, 100
6, 6840, Note_on_c, 9, 55, 100
6, 6900, Note_on_c, 9, 55, 0
6, 6900, Note_on_c, 9, 38, 0
6, 6900, Note_on_c, 9, 49, 0
6, 6900, Note_on_c, 9, 55, 100
6, 6960, Note_on_c, 9, 55, 0
6, 6960, Note_on_c, 9, 35, 100
6, 6960, Note_on_c, 9, 55, 100
6, 7020, Note_on_c, 9, 55, 0
6, 7020, Note_on_c, 9, 35, 0
6, 7020, Note_on_c, 9, 35, 100
6, 7020, Note_on_c, 9, 55, 100
6, 7080, Note_on_c, 9, 55, 0
6, 7080, Note_on_c, 9, 35, 0
6, 7080, Note_on_c, 9, 49, 100
6, 7080, Note_on_c, 9, 38, 100
6, 7080, Note_on_c, 9, 55, 100
6, 7140, Note_on_c, 9, 55, 0
6, 7140, Note_on_c, 9, 38, 0
6, 7140, Note_on_c, 9, 49, 0
6, 7140, Note_on_c, 9, 55, 100
6, 7200, Note_on_c, 9, 55, 0
6, 7200, Note_on_c, 9, 55, 100
6, 7200, Note_on_c, 9, 35, 100
6, 7260, Note_on_c, 9, 35, 0
6, 7260, Note_on_c, 9, 55, 0
6, 7260, Note_on_c, 9, 35, 100
6, 7260, Note_on_c, 9, 55, 100
6, 7320, Note_on_c, 9, 55, 0
6, 7320, Note_on_c, 9, 35, 0
6, 7320, Note_on_c, 9, 49, 100
6, 7320, Note_on_c, 9, 38, 100
6, 7320, Note_on_c, 9, 55, 100
6, 7380, Note_on_c, 9, 55, 0
6, 7380, Note_on_c, 9, 38, 0
6, 7380, Note_on_c, 9, 49, 0
6, 7380, Note_on_c, 9, 55, 100
6, 7440, Note_on_c, 9, 55, 0
6, 7440, Note_on_c, 9, 35, 100
6, 7440, Note_on_c, 9, 55, 100
6, 7500, Note_on_c, 9, 55, 0
6, 7500, Note_on_c, 9, 35, 0
6, 7500, Note_on_c, 9, 35, 100
6, 7500, Note_on_c, 9, 55, 100
6, 7560, Note_on_c, 9, 55, 0
6, 7560, Note_on_c, 9, 35, 0
6, 7560, Note_on_c, 9, 49, 100
6, 7560, Note_on_c, 9, 38, 100
6, 7560, Note_on_c, 9, 55, 100
6, 7620, Note_on_c, 9, 55, 0
6, 7620, Note_on_c, 9, 38, 0
6, 7620, Note_on_c, 9, 49, 0
6, 7620, Note_on_c, 9, 55, 100
6, 7680, Note_on_c, 9, 55, 0
6, 7680, Note_on_c, 9, 55, 100
6, 7680, Note_on_c, 9, 35, 100
6, 7740, Note_on_c, 9, 35, 0
6, 7740, Note_on_c, 9, 55, 0
6, 7740, Note_on_c, 9, 35, 100
6, 7740, Note_on_c, 9, 55, 100
6, 7800, Note_on_c, 9, 55, 0
6, 7800, Note_on_c, 9, 35, 0
6, 7800, Note_on_c, 9, 49, 100
6, 7800, Note_on_c, 9, 38, 100
6, 7800, Note_on_c, 9, 55, 100
6, 7860, Note_on_c, 9, 55, 0
6, 7860, Note_on_c, 9, 38, 0
6, 7860, Note_on_c, 9, 49, 0
6, 7860, Note_on_c, 9, 55, 100
6, 7920, Note_on_c, 9, 55, 0
6, 7920, Note_on_c, 9, 35, 100
6, 7920, Note_on_c, 9, 55, 100
6, 7980, Note_on_c, 9, 55, 0
6, 7980, Note_on_c, 9, 35, 0
6, 7980, Note_on_c, 9, 35, 100
6, 7980, Note_on_c, 9, 55, 100
6, 8040, Note_on_c, 9, 55, 0
6, 8040, Note_on_c, 9, 35, 0
6, 8040, Note_on_c, 9, 49, 100
6, 8040, Note_on_c, 9, 38, 100
6, 8040, Note_on_c, 9, 55, 100
6, 8100, Note_on_c, 9, 55, 0
6, 8100, Note_on_c, 9, 38, 0
6, 8100, Note_on_c, 9, 49, 0
6, 8100, Note_on_c, 9, 55, 100
6, 8160, Note_on_c, 9, 55, 0
6, 8160, Note_on_c, 9, 55, 100
6, 8160, Note_on_c, 9, 35, 100
6, 8220, Note_on_c, 9, 35, 0
6, 8220, Note_on_c, 9, 55, 0
6, 8220, Note_on_c, 9, 35, 100
6, 8220, Note_on_c, 9, 55, 100
6, 8280, Note_on_c, 9, 55, 0
6, 8280, Note_on_c, 9, 35, 0
6, 8280, Note_on_c, 9, 49, 100
6, 8280, Note_on_c, 9, 38, 100
6, 8280, Note_on_c, 9, 55, 100
6, 8340, Note_on_c, 9, 55, 0
6, 8340, Note_on_c, 9, 38, 0
6, 8340, Note_on_c, 9, 49, 0
6, 8340, Note_on_c, 9, 55, 100
6, 8400, Note_on_c, 9, 55, 0
6, 8400, Note_on_c, 9, 35, 100
6, 8400, Note_on_c, 9, 55, 100
6, 8460, Note_on_c, 9, 55, 0
6, 8460, Note_on_c, 9, 35, 0
6, 8460, Note_on_c, 9, 35, 100
6, 8460, Note_on_c, 9, 55, 100
6, 8520, Note_on_c, 9, 55, 0
6, 8520, Note_on_c, 9, 35, 0
6, 8520, Note_on_c, 9, 49, 100
6, 8520, Note_on_c, 9, 38, 100
6, 8520, Note_on_c, 9, 55, 100
6, 8580, Note_on_c, 9, 55, 0
6, 8580, Note_on_c, 9, 38, 0
6, 8580, Note_on_c, 9, 49, 0
6, 8580, Note_on_c, 9, 55, 100
6, 8640, Note_on_c, 9, 55, 0
6, 8640, Note_on_c, 9, 55, 100
6, 8640, Note_on_c, 9, 35, 100
6, 8700, Note_on_c, 9, 35, 0
6, 8700, Note_on_c, 9, 55, 0
6, 8700, Note_on_c, 9, 35, 100
6, 8700, Note_on_c, 9, 55, 100
6, 8760, Note_on_c, 9, 55, 0
6, 8760, Note_on_c, 9, 35, 0
6, 8760, Note_on_c, 9, 49, 100
6, 8760, Note_on_c, 9, 38, 100
6, 8760, Note_on_c, 9, 55, 100
6, 8820, Note_on_c, 9, 55, 0
6, 8820, Note_on_c, 9, 38, 0
6, 8820, Note_on_c, 9, 49, 0
6, 8820, Note_on_c, 9, 55, 100
6, 8880, Note_on_c, 9, 55, 0
6, 8880, Note_on_c, 9, 35, 100
6, 8880, Note_on_c, 9, 55, 100
6, 8940, Note_on_c, 9, 55, 0
6, 8940, Note_on_c, 9, 35, 0
6, 8940, Note_on_c, 9, 35, 100
6, 8940, Note_on_c, 9, 55, 100
6, 9000, Note_on_c, 9, 55, 0
6, 9000, Note_on_c, 9, 35, 0
6, 9000, Note_on_c, 9, 49, 100
6, 9000, Note_on_c, 9, 38, 100
6, 9000, Note_on_c, 9, 55, 100
6, 9060, Note_on_c, 9, 55, 0
6, 9060, Note_on_c, 9, 38, 0
6, 9060, Note_on_c, 9, 49, 0
6, 9060, Note_on_c, 9, 55, 100
6, 9120, Note_on_c, 9, 55, 0
6, 9120, Note_on_c, 9, 55, 100
6, 9120, Note_on_c, 9, 35, 100
6, 9180, Note_on_c, 9, 35, 0
6, 9180, Note_on_c, 9, 55, 0
6, 9180, Note_on_c, 9, 35, 100
6, 9180, Note_on_c, 9, 55, 100
6, 9240, Note_on_c, 9, 55, 0
6, 9240, Note_on_c, 9, 35, 0
6, 9240, Note_on_c, 9, 49, 100
6, 9240, Note_on_c, 9, 38, 100
6, 9240, Note_on_c, 9, 55, 100
6, 9300, Note_on_c, 9, 55, 0
6, 9300, Note_on_c, 9, 38, 0
6, 9300, Note_on_c, 9, 49, 0
6, 9300, Note_on_c, 9, 55, 100
6, 9360, Note_on_c, 9, 55, 0
6, 9360, Note_on_c, 9, 35, 100
6, 9360, Note_on_c, 9, 55, 100
6, 9420, Note_on_c, 9, 55, 0
6, 9420, Note_on_c, 9, 35, 0
6, 9420, Note_on_c, 9, 35, 100
6, 9420, Note_on_c, 9, 55, 100
6, 9480, Note_on_c, 9, 55, 0
6, 9480, Note_on_c, 9, 35, 0
6, 9480, Note_on_c, 9, 49, 100
6, 9480, Note_on_c, 9, 38, 100
6, 9480, Note_on_c, 9, 55, 100
6, 9540, Note_on_c, 9, 55, 0
6, 9540, Note_on_c, 9, 38, 0
6, 9540, Note_on_c, 9, 49, 0
6, 9540, Note_on_c, 9, 55, 100
6, 9600, Note_on_c, 9, 55, 0
6, 9600, Note_on_c, 9, 55, 100
6, 9600, Note_on_c, 9, 35, 100
6, 9660, Note_on_c, 9, 35, 0
6, 9660, Note_on_c, 9, 55, 0
6, 9660, Note_on_c, 9, 35, 100
6, 9660, Note_on_c, 9, 55, 100
6, 9720, Note_on_c, 9, 55, 0
6, 9720, Note_on_c, 9, 35, 0
6, 9720, Note_on_c, 9, 49, 100
6, 9720, Note_on_c, 9, 38, 100
6, 9720, Note_on_c, 9, 55, 100
6, 9780, Note_on_c, 9, 55, 0
6, 9780, Note_on_c, 9, 38, 0
6, 9780, Note_on_c, 9, 49, 0
6, 9780, Note_on_c, 9, 55, 100
6, 9840, Note_on_c, 9, 55, 0
6, 9840, Note_on_c, 9, 35, 100
6, 9840, Note_on_c, 9, 55, 100
6, 9900, Note_on_c, 9, 55, 0
6, 9900, Note_on_c, 9, 35, 0
6, 9900, Note_on_c, 9, 35, 100
6, 9900, Note_on_c, 9, 55, 100
6, 9960, Note_on_c, 9, 55, 0
6, 9960, Note_on_c, 9, 35, 0
6, 9960, Note_on_c, 9, 49, 100
6, 9960, Note_on_c, 9, 38, 100
6, 9960, Note_on_c, 9, 55, 100
6, 10020, Note_on_c, 9, 55, 0
6, 10020, Note_on_c, 9, 38, 0
6, 10020, Note_on_c, 9, 49, 0
6, 10020, Note_on_c, 9, 55, 100
6, 10080, Note_on_c, 9, 55, 0
6, 10080, Note_on_c, 9, 55, 100
6, 10080, Note_on_c, 9, 35, 100
6, 10140, Note_on_c, 9, 35, 0
6, 10140, Note_on_c, 9, 55, 0
6, 10140, Note_on_c, 9, 35, 100
6, 10140, Note_on_c, 9, 55, 100
6, 10200, Note_on_c, 9, 55, 0
6, 10200, Note_on_c, 9, 35, 0
6, 10200, Note_on_c, 9, 49, 100
6, 10200, Note_on_c, 9, 38, 100
6, 10200, Note_on_c, 9, 55, 100
6, 10260, Note_on_c, 9, 55, 0
6, 10260, Note_on_c, 9, 38, 0
6, 10260, Note_on_c, 9, 49, 0
6, 10260, Note_on_c, 9, 55, 100
6, 10320, Note_on_c, 9, 55, 0
6, 10320, Note_on_c, 9, 35, 100
6, 10320, Note_on_c, 9, 55, 100
6, 10380, Note_on_c, 9, 55, 0
6, 10380, Note_on_c, 9, 35, 0
6, 10380, Note_on_c, 9, 35, 100
6, 10380, Note_on_c, 9, 55, 100
6, 10440, Note_on_c, 9, 55, 0
6, 10440, Note_on_c, 9, 35, 0
6, 10440, Note_on_c, 9, 49, 100
6, 10440, Note_on_c, 9, 38, 100
6, 10440, Note_on_c, 9, 55, 100
6, 10500, Note_on_c, 9, 55, 0
6, 10500, Note_on_c, 9, 38, 0
6, 10500, Note_on_c, 9, 49, 0
6, 10500, Note_on_c, 9, 55, 100
6, 10560, Note_on_c, 9, 55, 0
6, 10560, Note_on_c, 9, 55, 100
6, 10560, Note_on_c, 9, 35, 100
6, 10620, Note_on_c, 9, 35, 0
6, 10620, Note_on_c, 9, 55, 0
6, 10620, Note_on_c, 9, 35, 100
6, 10620, Note_on_c, 9, 55, 100
6, 10680, Note_on_c, 9, 55, 0
6, 10680, Note_on_c, 9, 35, 0
6, 10680, Note_on_c, 9, 49, 100
6, 10680, Note_on_c, 9, 38, 100
6, 10680, Note_on_c, 9, 55, 100
6, 10740, Note_on_c, 9, 55, 0
6, 10740, Note_on_c, 9, 38, 0
6, 10740, Note_on_c, 9, 49, 0
6, 10740, Note_on_c, 9, 55, 100
6, 10800, Note_on_c, 9, 55, 0
6, 10800, Note_on_c, 9, 35, 100
6, 10800, Note_on_c, 9, 55, 100
6, 10860, Note_on_c, 9, 55, 0
6, 10860, Note_on_c, 9, 35, 0
6, 10860, Note_on_c, 9, 35, 100
6, 10860, Note_on_c, 9, 55, 100
6, 10920, Note_on_c, 9, 55, 0
6, 10920, Note_on_c, 9, 35, 0
6, 10920, Note_on_c, 9, 49, 100
6, 10920, Note_on_c, 9, 38, 100
6, 10920, Note_on_c, 9, 55, 100
6, 10980, Note_on_c, 9, 55, 0
6, 10980, Note_on_c, 9, 38, 0
6, 10980, Note_on_c, 9, 49, 0
6, 10980, Note_on_c, 9, 55, 100
6, 11040, Note_on_c, 9, 55, 0
6, 11040, Note_on_c, 9, 55, 100
6, 11040, Note_on_c, 9, 35, 100
6, 11100, Note_on_c, 9, 35, 0
6, 11100, Note_on_c, 9, 55, 0
6, 11100, Note_on_c, 9, 35, 100
6, 11100, Note_on_c, 9, 55, 100
6, 11160, Note_on_c, 9, 55, 0
6, 11160, Note_on_c, 9, 35, 0
6, 11160, Note_on_c, 9, 49, 100
6, 11160, Note_on_c, 9, 38, 100
6, 11160, Note_on_c, 9, 55, 100
6, 11220, Note_on_c, 9, 55, 0
6, 11220, Note_on_c, 9, 38, 0
6, 11220, Note_on_c, 9, 49, 0
6, 11220, Note_on_c, 9, 55, 100
6, 11280, Note_on_c, 9, 55, 0
6, 11280, Note_on_c, 9, 35, 100
6, 11280, Note_on_c, 9, 55, 100
6, 11340, Note_on_c, 9, 55, 0
6, 11340, Note_on_c, 9, 35, 0
6, 11340, Note_on_c, 9, 35, 100
6, 11340, Note_on_c, 9, 55, 100
6, 11400, Note_on_c, 9, 55, 0
6, 11400, Note_on_c, 9, 35, 0
6, 11400, Note_on_c, 9, 49, 100
6, 11400, Note_on_c, 9, 38, 100
6, 11400, Note_on_c, 9, 55, 100
6, 11460, Note_on_c, 9, 55, 0
6, 11460, Note_on_c, 9, 38, 0
6, 11460, Note_on_c, 9, 49, 0
6, 11460, Note_on_c, 9, 55, 100
6, 11520, Note_on_c, 9, 55, 0
6, 11520, Note_on_c, 9, 55, 100
6, 11520, Note_on_c, 9, 35, 100
6, 11580, Note_on_c, 9, 35, 0
6, 11580, Note_on_c, 9, 55, 0
6, 11580, Note_on_c, 9, 35, 100
6, 11580, Note_on_c, 9, 55, 100
6, 11640, Note_on_c, 9, 55, 0
6, 11640, Note_on_c, 9, 35, 0
6, 11640, Note_on_c, 9, 49, 100
6, 11640, Note_on_c, 9, 38, 100
6, 11640, Note_on_c, 9, 55, 100
6, 11700, Note_on_c, 9, 55, 0
6, 11700, Note_on_c, 9, 38, 0
6, 11700, Note_on_c, 9, 49, 0
6, 11700, Note_on_c, 9, 55, 100
6, 11760, Note_on_c, 9, 55, 0
6, 11760, Note_on_c, 9, 35, 100
6, 11760, Note_on_c, 9, 55, 100
6, 11820, Note_on_c, 9, 55, 0
6, 11820, Note_on_c, 9, 35, 0
6, 11820, Note_on_c, 9, 35, 100
6, 11820, Note_on_c, 9, 55, 100
6, 11880, Note_on_c, 9, 55, 0
6, 11880, Note_on_c, 9, 35, 0
6, 11880, Note_on_c, 9, 49, 100
6, 11880, Note_on_c, 9, 38, 100
6, 11880, Note_on_c, 9, 55, 100
6, 11940, Note_on_c, 9, 55, 0
6, 11940, Note_on_c, 9, 38, 0
6, 11940, Note_on_c, 9, 49, 0
6, 11940, Note_on_c, 9, 55, 100
6, 12000, Note_on_c, 9, 55, 0
6, 12000, Note_on_c, 9, 55, 100
6, 12000, Note_on_c, 9, 35, 100
6, 12060, Note_on_c, 9, 35, 0
6, 12060, Note_on_c, 9, 55, 0
6, 12060, Note_on_c, 9, 35, 100
6, 12060, Note_on_c, 9, 55, 100
6, 12120, Note_on_c, 9, 55, 0
6, 12120, Note_on_c, 9, 35, 0
6, 12120, Note_on_c, 9, 49, 100
6, 12120, Note_on_c, 9, 38, 100
6, 12120, Note_on_c, 9, 55, 100
6, 12180, Note_on_c, 9, 55, 0
6, 12180, Note_on_c, 9, 38, 0
6, 12180, Note_on_c, 9, 49, 0
6, 12180, Note_on_c, 9, 55, 100
6, 12240, Note_on_c, 9, 55, 0
6, 12240, Note_on_c, 9, 35, 100
6, 12240, Note_on_c, 9, 55, 100
6, 12300, Note_on_c, 9, 55, 0
6, 12300, Note_on_c, 9, 35, 0
6, 12300, Note_on_c, 9, 35, 100
6, 12300, Note_on_c, 9, 55, 100
6, 12360, Note_on_c, 9, 55, 0
6, 12360, Note_on_c, 9, 35, 0
6, 12360, Note_on_c, 9, 49, 100
6, 12360, Note_on_c, 9, 38, 100
6, 12360, Note_on_c, 9, 55, 100
6, 12420, Note_on_c, 9, 55, 0
6, 12420, Note_on_c, 9, 38, 0
6, 12420, Note_on_c, 9, 49, 0
6, 12420, Note_on_c, 9, 55, 100
6, 12480, Note_on_c, 9, 55, 0
6, 12480, Note_on_c, 9, 54, 100
6, 12480, Note_on_c, 9, 42, 100
6, 12480, Note_on_c, 9, 35, 100
6, 12480, Note_on_c, 9, 49, 100
6, 12540, Note_on_c, 9, 42, 0
6, 12540, Note_on_c, 9, 54, 0
6, 12540, Note_on_c, 9, 54, 100
6, 12540, Note_on_c, 9, 35, 100
6, 12540, Note_on_c, 9, 42, 100
6, 12600, Note_on_c, 9, 42, 0
6, 12600, Note_on_c, 9, 54, 0
6, 12600, Note_on_c, 9, 49, 0
6, 12600, Note_on_c, 9, 35, 0
6, 12600, Note_on_c, 9, 35, 0
6, 12600, Note_on_c, 9, 54, 100
6, 12600, Note_on_c, 9, 38, 100
6, 12600, Note_on_c, 9, 42, 100
6, 12660, Note_on_c, 9, 42, 0
6, 12660, Note_on_c, 9, 38, 0
6, 12660, Note_on_c, 9, 54, 0
6, 12660, Note_on_c, 9, 54, 100
6, 12660, Note_on_c, 9, 42, 100
6, 12720, Note_on_c, 9, 42, 0
6, 12720, Note_on_c, 9, 54, 0
6, 12720, Note_on_c, 9, 54, 100
6, 12720, Note_on_c, 9, 35, 100
6, 12720, Note_on_c, 9, 42, 100
6, 12780, Note_on_c, 9, 42, 0
6, 12780, Note_on_c, 9, 35, 0
6, 12780, Note_on_c, 9, 54, 0
6, 12780, Note_on_c, 9, 54, 100
6, 12780, Note_on_c, 9, 35, 100
6, 12780, Note_on_c, 9, 42, 100
6, 12840, Note_on_c, 9, 42, 0
6, 12840, Note_on_c, 9, 35, 0
6, 12840, Note_on_c, 9, 54, 0
6, 12840, Note_on_c, 9, 54, 100
6, 12840, Note_on_c, 9, 38, 100
6, 12840, Note_on_c, 9, 42, 100
6, 12900, Note_on_c, 9, 42, 0
6, 12900, Note_on_c, 9, 38, 0
6, 12900, Note_on_c, 9, 54, 0
6, 12900, Note_on_c, 9, 54, 100
6, 12900, Note_on_c, 9, 42, 100
6, 12960, Note_on_c, 9, 42, 0
6, 12960, Note_on_c, 9, 54, 0
6, 12960, Note_on_c, 9, 54, 100
6, 12960, Note_on_c, 9, 42, 100
6, 12960, Note_on_c, 9, 35, 100
6, 13020, Note_on_c, 9, 42, 0
6, 13020, Note_on_c, 9, 54, 0
6, 13020, Note_on_c, 9, 54, 100
6, 13020, Note_on_c, 9, 35, 100
6, 13020, Note_on_c, 9, 42, 100
6, 13080, Note_on_c, 9, 42, 0
6, 13080, Note_on_c, 9, 35, 0
6, 13080, Note_on_c, 9, 54, 0
6, 13080, Note_on_c, 9, 35, 0
6, 13080, Note_on_c, 9, 54, 100
6, 13080, Note_on_c, 9, 38, 100
6, 13080, Note_on_c, 9, 42, 100
6, 13140, Note_on_c, 9, 42, 0
6, 13140, Note_on_c, 9, 38, 0
6, 13140, Note_on_c, 9, 54, 0
6, 13140, Note_on_c, 9, 54, 100
6, 13140, Note_on_c, 9, 42, 100
6, 13200, Note_on_c, 9, 42, 0
6, 13200, Note_on_c, 9, 54, 0
6, 13200, Note_on_c, 9, 54, 100
6, 13200, Note_on_c, 9, 35, 100
6, 13200, Note_on_c, 9, 42, 100
6, 13260, Note_on_c, 9, 42, 0
6, 13260, Note_on_c, 9, 35, 0
6, 13260, Note_on_c, 9, 54, 0
6, 13260, Note_on_c, 9, 54, 100
6, 13260, Note_on_c, 9, 35, 100
6, 13260, Note_on_c, 9, 42, 100
6, 13320, Note_on_c, 9, 42, 0
6, 13320, Note_on_c, 9, 35, 0
6, 13320, Note_on_c, 9, 54, 0
6, 13320, Note_on_c, 9, 39, 100
6, 13320, Note_on_c, 9, 54, 100
6, 13320, Note_on_c, 9, 38, 100
6, 13320, Note_on_c, 9, 42, 100
6, 13380, Note_on_c, 9, 42, 0
6, 13380, Note_on_c, 9, 39, 0
6, 13380, Note_on_c, 9, 54, 0
6, 13380, Note_on_c, 9, 38, 0
6, 13380, Note_on_c, 9, 39, 100
6, 13380, Note_on_c, 9, 54, 100
6, 13380, Note_on_c, 9, 46, 100
6, 13440, Note_on_c, 9, 46, 0
6, 13440, Note_on_c, 9, 54, 0
6, 13440, Note_on_c, 9, 39, 0
6, 13440, Note_on_c, 9, 54, 100
6, 13440, Note_on_c, 9, 42, 100
6, 13440, Note_on_c, 9, 35, 100
6, 13500, Note_on_c, 9, 42, 0
6, 13500, Note_on_c, 9, 54, 0
6, 13500, Note_on_c, 9, 54, 100
6, 13500, Note_on_c, 9, 35, 100
6, 13500, Note_on_c, 9, 42, 100
6, 13560, Note_on_c, 9, 42, 0
6, 13560, Note_on_c, 9, 35, 0
6, 13560, Note_on_c, 9, 54, 0
6, 13560, Note_on_c, 9, 35, 0
6, 13560, Note_on_c, 9, 54, 100
6, 13560, Note_on_c, 9, 38, 100
6, 13560, Note_on_c, 9, 42, 100
6, 13620, Note_on_c, 9, 42, 0
6, 13620, Note_on_c, 9, 38, 0
6, 13620, Note_on_c, 9, 54, 0
6, 13620, Note_on_c, 9, 54, 100
6, 13620, Note_on_c, 9, 42, 100
6, 13680, Note_on_c, 9, 42, 0
6, 13680, Note_on_c, 9, 54, 0
6, 13680, Note_on_c, 9, 54, 100
6, 13680, Note_on_c, 9, 35, 100
6, 13680, Note_on_c, 9, 42, 100
6, 13740, Note_on_c, 9, 42, 0
6, 13740, Note_on_c, 9, 35, 0
6, 13740, Note_on_c, 9, 54, 0
6, 13740, Note_on_c, 9, 54, 100
6, 13740, Note_on_c, 9, 35, 100
6, 13740, Note_on_c, 9, 42, 100
6, 13800, Note_on_c, 9, 42, 0
6, 13800, Note_on_c, 9, 35, 0
6, 13800, Note_on_c, 9, 54, 0
6, 13800, Note_on_c, 9, 39, 100
6, 13800, Note_on_c, 9, 54, 100
6, 13800, Note_on_c, 9, 38, 100
6, 13800, Note_on_c, 9, 42, 100
6, 13860, Note_on_c, 9, 42, 0
6, 13860, Note_on_c, 9, 39, 0
6, 13860, Note_on_c, 9, 54, 0
6, 13860, Note_on_c, 9, 38, 0
6, 13860, Note_on_c, 9, 39, 100
6, 13860, Note_on_c, 9, 54, 100
6, 13860, Note_on_c, 9, 42, 100
6, 13920, Note_on_c, 9, 42, 0
6, 13920, Note_on_c, 9, 54, 0
6, 13920, Note_on_c, 9, 39, 0
6, 13920, Note_on_c, 9, 54, 100
6, 13920, Note_on_c, 9, 42, 100
6, 13920, Note_on_c, 9, 35, 100
6, 13980, Note_on_c, 9, 42, 0
6, 13980, Note_on_c, 9, 54, 0
6, 13980, Note_on_c, 9, 54, 100
6, 13980, Note_on_c, 9, 35, 100
6, 13980, Note_on_c, 9, 42, 100
6, 14040, Note_on_c, 9, 42, 0
6, 14040, Note_on_c, 9, 35, 0
6, 14040, Note_on_c, 9, 54, 0
6, 14040, Note_on_c, 9, 35, 0
6, 14040, Note_on_c, 9, 54, 100
6, 14040, Note_on_c, 9, 38, 100
6, 14040, Note_on_c, 9, 42, 100
6, 14100, Note_on_c, 9, 42, 0
6, 14100, Note_on_c, 9, 38, 0
6, 14100, Note_on_c, 9, 54, 0
6, 14100, Note_on_c, 9, 54, 100
6, 14100, Note_on_c, 9, 42, 100
6, 14160, Note_on_c, 9, 42, 0
6, 14160, Note_on_c, 9, 54, 0
6, 14160, Note_on_c, 9, 54, 100
6, 14160, Note_on_c, 9, 35, 100
6, 14160, Note_on_c, 9, 42, 100
6, 14220, Note_on_c, 9, 42, 0
6, 14220, Note_on_c, 9, 35, 0
6, 14220, Note_on_c, 9, 54, 0
6, 14220, Note_on_c, 9, 54, 100
6, 14220, Note_on_c, 9, 35, 100
6, 14220, Note_on_c, 9, 42, 100
6, 14280, Note_on_c, 9, 42, 0
6, 14280, Note_on_c, 9, 35, 0
6, 14280, Note_on_c, 9, 54, 0
6, 14280, Note_on_c, 9, 39, 100
6, 14280, Note_on_c, 9, 54, 100
6, 14280, Note_on_c, 9, 38, 100
6, 14280, Note_on_c, 9, 42, 100
6, 14340, Note_on_c, 9, 42, 0
6, 14340, Note_on_c, 9, 39, 0
6, 14340, Note_on_c, 9, 54, 0
6, 14340, Note_on_c, 9, 38, 0
6, 14340, Note_on_c, 9, 39, 100
6, 14340, Note_on_c, 9, 54, 100
6, 14340, Note_on_c, 9, 46, 100
6, 14400, Note_on_c, 9, 46, 0
6, 14400, Note_on_c, 9, 54, 0
6, 14400, Note_on_c, 9, 39, 0
6, 14400, Note_on_c, 9, 54, 100
6, 14400, Note_on_c, 9, 42, 100
6, 14400, Note_on_c, 9, 35, 100
6, 14400, Note_on_c, 9, 49, 100
6, 14460, Note_on_c, 9, 42, 0
6, 14460, Note_on_c, 9, 54, 0
6, 14460, Note_on_c, 9, 54, 100
6, 14460, Note_on_c, 9, 35, 100
6, 14460, Note_on_c, 9, 42, 100
6, 14520, Note_on_c, 9, 42, 0
6, 14520, Note_on_c, 9, 54, 0
6, 14520, Note_on_c, 9, 49, 0
6, 14520, Note_on_c, 9, 35, 0
6, 14520, Note_on_c, 9, 35, 0
6, 14520, Note_on_c, 9, 54, 100
6, 14520, Note_on_c, 9, 38, 100
6, 14520, Note_on_c, 9, 42, 100
6, 14580, Note_on_c, 9, 42, 0
6, 14580, Note_on_c, 9, 38, 0
6, 14580, Note_on_c, 9, 54, 0
6, 14580, Note_on_c, 9, 54, 100
6, 14580, Note_on_c, 9, 42, 100
6, 14640, Note_on_c, 9, 42, 0
6, 14640, Note_on_c, 9, 54, 0
6, 14640, Note_on_c, 9, 54, 100
6, 14640, Note_on_c, 9, 35, 100
6, 14640, Note_on_c, 9, 42, 100
6, 14700, Note_on_c, 9, 42, 0
6, 14700, Note_on_c, 9, 35, 0
6, 14700, Note_on_c, 9, 54, 0
6, 14700, Note_on_c, 9, 54, 100
6, 14700, Note_on_c, 9, 35, 100
6, 14700, Note_on_c, 9, 42, 100
6, 14760, Note_on_c, 9, 42, 0
6, 14760, Note_on_c, 9, 35, 0
6, 14760, Note_on_c, 9, 54, 0
6, 14760, Note_on_c, 9, 54, 100
6, 14760, Note_on_c, 9, 38, 100
6, 14760, Note_on_c, 9, 42, 100
6, 14820, Note_on_c, 9, 42, 0
6, 14820, Note_on_c, 9, 38, 0
6, 14820, Note_on_c, 9, 54, 0
6, 14820, Note_on_c, 9, 54, 100
6, 14820, Note_on_c, 9, 42, 100
6, 14880, Note_on_c, 9, 42, 0
6, 14880, Note_on_c, 9, 54, 0
6, 14880, Note_on_c, 9, 54, 100
6, 14880, Note_on_c, 9, 42, 100
6, 14880, Note_on_c, 9, 35, 100
6, 14940, Note_on_c, 9, 42, 0
6, 14940, Note_on_c, 9, 54, 0
6, 14940, Note_on_c, 9, 54, 100
6, 14940, Note_on_c, 9, 35, 100
6, 14940, Note_on_c, 9, 42, 100
6, 15000, Note_on_c, 9, 42, 0
6, 15000, Note_on_c, 9, 35, 0
6, 15000, Note_on_c, 9, 54, 0
6, 15000, Note_on_c, 9, 35, 0
6, 15000, Note_on_c, 9, 54, 100
6, 15000, Note_on_c, 9, 38, 100
6, 15000, Note_on_c, 9, 42, 100
6, 15060, Note_on_c, 9, 42, 0
6, 15060, Note_on_c, 9, 38, 0
6, 15060, Note_on_c, 9, 54, 0
6, 15060, Note_on_c, 9, 54, 100
6, 15060, Note_on_c, 9, 42, 100
6, 15120, Note_on_c, 9, 42, 0
6, 15120, Note_on_c, 9, 54, 0
6, 15120, Note_on_c, 9, 54, 100
6, 15120, Note_on_c, 9, 35, 100
6, 15120, Note_on_c, 9, 42, 100
6, 15180, Note_on_c, 9, 42, 0
6, 15180, Note_on_c, 9, 35, 0
6, 15180, Note_on_c, 9, 54, 0
6, 15180, Note_on_c, 9, 54, 100
6, 15180, Note_on_c, 9, 35, 100
6, 15180, Note_on_c, 9, 42, 100
6, 15240, Note_on_c, 9, 42, 0
6, 15240, Note_on_c, 9, 35, 0
6, 15240, Note_on_c, 9, 54, 0
6, 15240, Note_on_c, 9, 39, 100
6, 15240, Note_on_c, 9, 54, 100
6, 15240, Note_on_c, 9, 38, 100
6, 15240, Note_on_c, 9, 42, 100
6, 15300, Note_on_c, 9, 42, 0
6, 15300, Note_on_c, 9, 39, 0
6, 15300, Note_on_c, 9, 54, 0
6, 15300, Note_on_c, 9, 38, 0
6, 15300, Note_on_c, 9, 39, 100
6, 15300, Note_on_c, 9, 54, 100
6, 15300, Note_on_c, 9, 46, 100
6, 15360, Note_on_c, 9, 46, 0
6, 15360, Note_on_c, 9, 54, 0
6, 15360, Note_on_c, 9, 39, 0
6, 15360, Note_on_c, 9, 54, 100
6, 15360, Note_on_c, 9, 42, 100
6, 15360, Note_on_c, 9, 35, 100
6, 15420, Note_on_c, 9, 42, 0
6, 15420, Note_on_c, 9, 54, 0
6, 15420, Note_on_c, 9, 54, 100
6, 15420, Note_on_c, 9, 35, 100
6, 15420, Note_on_c, 9, 42, 100
6, 15480, Note_on_c, 9, 42, 0
6, 15480, Note_on_c, 9, 35, 0
6, 15480, Note_on_c, 9, 54, 0
6, 15480, Note_on_c, 9, 35, 0
6, 15480, Note_on_c, 9, 54, 100
6, 15480, Note_on_c, 9, 38, 100
6, 15480, Note_on_c, 9, 42, 100
6, 15540, Note_on_c, 9, 42, 0
6, 15540, Note_on_c, 9, 38, 0
6, 15540, Note_on_c, 9, 54, 0
6, 15540, Note_on_c, 9, 54, 100
6, 15540, Note_on_c, 9, 42, 100
6, 15600, Note_on_c, 9, 42, 0
6, 15600, Note_on_c, 9, 54, 0
6, 15600, Note_on_c, 9, 54, 100
6, 15600, Note_on_c, 9, 35, 100
6, 15600, Note_on_c, 9, 42, 100
6, 15660, Note_on_c, 9, 42, 0
6, 15660, Note_on_c, 9, 35, 0
6, 15660, Note_on_c, 9, 54, 0
6, 15660, Note_on_c, 9, 54, 100
6, 15660, Note_on_c, 9, 35, 100
6, 15660, Note_on_c, 9, 42, 100
6, 15720, Note_on_c, 9, 42, 0
6, 15720, Note_on_c, 9, 35, 0
6, 15720, Note_on_c, 9, 54, 0
6, 15720, Note_on_c, 9, 39, 100
6, 15720, Note_on_c, 9, 54, 100
6, 15720, Note_on_c, 9, 38, 100
6, 15720, Note_on_c, 9, 42, 100
6, 15780, Note_on_c, 9, 42, 0
6, 15780, Note_on_c, 9, 39, 0
6, 15780, Note_on_c, 9, 54, 0
6, 15780, Note_on_c, 9, 38, 0
6, 15780, Note_on_c, 9, 39, 100
6, 15780, Note_on_c, 9, 54, 100
6, 15780, Note_on_c, 9, 42, 100
6, 15840, Note_on_c, 9, 42, 0
6, 15840, Note_on_c, 9, 54, 0
6, 15840, Note_on_c, 9, 39, 0
6, 15840, Note_on_c, 9, 54, 100
6, 15840, Note_on_c, 9, 42, 100
6, 15840, Note_on_c, 9, 35, 100
6, 15900, Note_on_c, 9, 42, 0
6, 15900, Note_on_c, 9, 54, 0
6, 15900, Note_on_c, 9, 54, 100
6, 15900, Note_on_c, 9, 35, 100
6, 15900, Note_on_c, 9, 42, 100
6, 15960, Note_on_c, 9, 42, 0
6, 15960, Note_on_c, 9, 35, 0
6, 15960, Note_on_c, 9, 54, 0
6, 15960, Note_on_c, 9, 35, 0
6, 15960, Note_on_c, 9, 54, 100
6, 15960, Note_on_c, 9, 38, 100
6, 15960, Note_on_c, 9, 42, 100
6, 16020, Note_on_c, 9, 42, 0
6, 16020, Note_on_c, 9, 38, 0
6, 16020, Note_on_c, 9, 54, 0
6, 16020, Note_on_c, 9, 54, 100
6, 16020, Note_on_c, 9, 42, 100
6, 16080, Note_on_c, 9, 42, 0
6, 16080, Note_on_c, 9, 54, 0
6, 16080, Note_on_c, 9, 54, 100
6, 16080, Note_on_c, 9, 35, 100
6, 16080, Note_on_c, 9, 42, 100
6, 16140, Note_on_c, 9, 42, 0
6, 16140, Note_on_c, 9, 35, 0
6, 16140, Note_on_c, 9, 54, 0
6, 16140, Note_on_c, 9, 54, 100
6, 16140, Note_on_c, 9, 35, 100
6, 16140, Note_on_c, 9, 42, 100
6, 16200, Note_on_c, 9, 42, 0
6, 16200, Note_on_c, 9, 35, 0
6, 16200, Note_on_c, 9, 54, 0
6, 16200, Note_on_c, 9, 39, 100
6, 16200, Note_on_c, 9, 54, 100
6, 16200, Note_on_c, 9, 38, 100
6, 16200, Note_on_c, 9, 42, 100
6, 16260, Note_on_c, 9, 42, 0
6, 16260, Note_on_c, 9, 39, 0
6, 16260, Note_on_c, 9, 54, 0
6, 16260, Note_on_c, 9, 38, 0
6, 16260, Note_on_c, 9, 39, 100
6, 16260, Note_on_c, 9, 54, 100
6, 16260, Note_on_c, 9, 46, 100
6, 16320, Note_on_c, 9, 46, 0
6, 16320, Note_on_c, 9, 54, 0
6, 16320, Note_on_c, 9, 39, 0
6, 16320, Note_on_c, 9, 35, 100
6, 16320, Note_on_c, 9, 41, 100
6, 16380, Note_on_c, 9, 41, 0
6, 16380, Note_on_c, 9, 35, 0
6, 16380, Note_on_c, 9, 35, 100
6, 16380, Note_on_c, 9, 41, 100
6, 16440, Note_on_c, 9, 41, 0
6, 16440, Note_on_c, 9, 35, 0
6, 16440, Note_on_c, 9, 35, 100
6, 16440, Note_on_c, 9, 41, 100
6, 16500, Note_on_c, 9, 41, 0
6, 16500, Note_on_c, 9, 35, 0
6, 16500, Note_on_c, 9, 35, 100
6, 16500, Note_on_c, 9, 41, 100
6, 16560, Note_on_c, 9, 41, 0
6, 16560, Note_on_c, 9, 35, 0
6, 16560, Note_on_c, 9, 35, 100
6, 16560, Note_on_c, 9, 41, 100
6, 16620, Note_on_c, 9, 41, 0
6, 16620, Note_on_c, 9, 35, 0
6, 16620, Note_on_c, 9, 35, 100
6, 16620, Note_on_c, 9, 41, 100
6, 16680, Note_on_c, 9, 41, 0
6, 16680, Note_on_c, 9, 35, 0
6, 16680, Note_on_c, 9, 35, 100
6, 16680, Note_on_c, 9, 41, 100
6, 16740, Note_on_c, 9, 41, 0
6, 16740, Note_on_c, 9, 35, 0
6, 16740, Note_on_c, 9, 35, 100
6, 16740, Note_on_c, 9, 41, 100
6, 16800, Note_on_c, 9, 41, 0
6, 16800, Note_on_c, 9, 35, 0
6, 16800, Note_on_c, 9, 55, 100
6, 16800, Note_on_c, 9, 35, 100
6, 16860, Note_on_c, 9, 35, 0
6, 16860, Note_on_c, 9, 55, 0
6, 16860, Note_on_c, 9, 35, 100
6, 16920, Note_on_c, 9, 35, 0
6, 16920, Note_on_c, 9, 49, 100
6, 16920, Note_on_c, 9, 38, 100
6, 16920, Note_on_c, 9, 55, 100
6, 16980, Note_on_c, 9, 55, 0
6, 16980, Note_on_c, 9, 38, 0
6, 16980, Note_on_c, 9, 49, 0
6, 17040, Note_on_c, 9, 35, 100
6, 17040, Note_on_c, 9, 55, 100
6, 17100, Note_on_c, 9, 55, 0
6, 17100, Note_on_c, 9, 35, 0
6, 17100, Note_on_c, 9, 35, 100
6, 17160, Note_on_c, 9, 35, 0
6, 17160, Note_on_c, 9, 49, 100
6, 17160, Note_on_c, 9, 38, 100
6, 17160, Note_on_c, 9, 55, 100
6, 17220, Note_on_c, 9, 55, 0
6, 17220, Note_on_c, 9, 38, 0
6, 17220, Note_on_c, 9, 49, 0
6, 17280, Note_on_c, 9, 55, 100
6, 17280, Note_on_c, 9, 35, 100
6, 17340, Note_on_c, 9, 35, 0
6, 17340, Note_on_c, 9, 55, 0
6, 17340, Note_on_c, 9, 35, 100
6, 17400, Note_on_c, 9, 35, 0
6, 17400, Note_on_c, 9, 49, 100
6, 17400, Note_on_c, 9, 38, 100
6, 17400, Note_on_c, 9, 55, 100
6, 17460, Note_on_c, 9, 55, 0
6, 17460, Note_on_c, 9, 38, 0
6, 17460, Note_on_c, 9, 49, 0
6, 17520, Note_on_c, 9, 35, 100
6, 17520, Note_on_c, 9, 55, 100
6, 17580, Note_on_c, 9, 55, 0
6, 17580, Note_on_c, 9, 35, 0
6, 17580, Note_on_c, 9, 35, 100
6, 17640, Note_on_c, 9, 35, 0
6, 17640, Note_on_c, 9, 49, 100
6, 17640, Note_on_c, 9, 38, 100
6, 17640, Note_on_c, 9, 55, 100
6, 17700, Note_on_c, 9, 55, 0
6, 17700, Note_on_c, 9, 38, 0
6, 17700, Note_on_c, 9, 49, 0
6, 17700, Note_on_c, 9, 55, 100
6, 17760, Note_on_c, 9, 55, 0
6, 17760, Note_on_c, 9, 35, 100
6, 17760, Note_on_c, 9, 41, 100
6, 17820, Note_on_c, 9, 41, 0
6, 17820, Note_on_c, 9, 35, 0
6, 17820, Note_on_c, 9, 35, 100
6, 17820, Note_on_c, 9, 41, 100
6, 17880, Note_on_c, 9, 41, 0
6, 17880, Note_on_c, 9, 35, 0
6, 17880, Note_on_c, 9, 35, 100
6, 17880, Note_on_c, 9, 41, 100
6, 17940, Note_on_c, 9, 41, 0
6, 17940, Note_on_c, 9, 35, 0
6, 17940, Note_on_c, 9, 35, 100
6, 17940, Note_on_c, 9, 41, 100
6, 18000, Note_on_c, 9, 41, 0
6, 18000, Note_on_c, 9, 35, 0
6, 18000, Note_on_c, 9, 35, 100
6, 18000, Note_on_c, 9, 41, 100
6, 18060, Note_on_c, 9, 41, 0
6, 18060, Note_on_c, 9, 35, 0
6, 18060, Note_on_c, 9, 35, 100
6, 18060, Note_on_c, 9, 41, 100
6, 18120, Note_on_c, 9, 41, 0
6, 18120, Note_on_c, 9, 35, 0
6, 18120, Note_on_c, 9, 35, 100
6, 18120, Note_on_c, 9, 41, 100
6, 18180, Note_on_c, 9, 41, 0
6, 18180, Note_on_c, 9, 35, 0
6, 18180, Note_on_c, 9, 35, 100
6, 18180, Note_on_c, 9, 41, 100
6, 18240, Note_on_c, 9, 41, 0
6, 18240, Note_on_c, 9, 35, 0
6, 18240, Note_on_c, 9, 55, 100
6, 18240, Note_on_c, 9, 35, 100
6, 18300, Note_on_c, 9, 35, 0
6, 18300, Note_on_c, 9, 55, 0
6, 18300, Note_on_c, 9, 35, 100
6, 18300, Note_on_c, 9, 55, 100
6, 18360, Note_on_c, 9, 55, 0
6, 18360, Note_on_c, 9, 35, 0
6, 18360, Note_on_c, 9, 49, 100
6, 18360, Note_on_c, 9, 38, 100
6, 18360, Note_on_c, 9, 55, 100
6, 18420, Note_on_c, 9, 55, 0
6, 18420, Note_on_c, 9, 38, 0
6, 18420, Note_on_c, 9, 49, 0
6, 18420, Note_on_c, 9, 55, 100
6, 18480, Note_on_c, 9, 55, 0
6, 18480, Note_on_c, 9, 35, 100
6, 18480, Note_on_c, 9, 55, 100
6, 18540, Note_on_c, 9, 55, 0
6, 18540, Note_on_c, 9, 35, 0
6, 18540, Note_on_c, 9, 35, 100
6, 18540, Note_on_c, 9, 55, 100
6, 18600, Note_on_c, 9, 55, 0
6, 18600, Note_on_c, 9, 35, 0
6, 18600, Note_on_c, 9, 49, 100
6, 18600, Note_on_c, 9, 38, 100
6, 18600, Note_on_c, 9, 55, 100
6, 18660, Note_on_c, 9, 55, 0
6, 18660, Note_on_c, 9, 38, 0
6, 18660, Note_on_c, 9, 49, 0
6, 18660, Note_on_c, 9, 55, 100
6, 18720, Note_on_c, 9, 55, 0
6, 18720, Note_on_c, 9, 55, 100
6, 18720, Note_on_c, 9, 35, 100
6, 18780, Note_on_c, 9, 35, 0
6, 18780, Note_on_c, 9, 55, 0
6, 18780, Note_on_c, 9, 35, 100
6, 18780, Note_on_c, 9, 55, 100
6, 18840, Note_on_c, 9, 55, 0
6, 18840, Note_on_c, 9, 35, 0
6, 18840, Note_on_c, 9, 49, 100
6, 18840, Note_on_c, 9, 38, 100
6, 18840, Note_on_c, 9, 55, 100
6, 18900, Note_on_c, 9, 55, 0
6, 18900, Note_on_c, 9, 38, 0
6, 18900, Note_on_c, 9, 49, 0
6, 18900, Note_on_c, 9, 55, 100
6, 18960, Note_on_c, 9, 55, 0
6, 18960, Note_on_c, 9, 35, 100
6, 18960, Note_on_c, 9, 55, 100
6, 19020, Note_on_c, 9, 55, 0
6, 19020, Note_on_c, 9, 35, 0
6, 19020, Note_on_c, 9, 35, 100
6, 19020, Note_on_c, 9, 55, 100
6, 19080, Note_on_c, 9, 55, 0
6, 19080, Note_on_c, 9, 35, 0
6, 19080, Note_on_c, 9, 49, 100
6, 19080, Note_on_c, 9, 38, 100
6, 19080, Note_on_c, 9, 55, 100
6, 19140, Note_on_c, 9, 55, 0
6, 19140, Note_on_c, 9, 38, 0
6, 19140, Note_on_c, 9, 49, 0
6, 19140, Note_on_c, 9, 55, 100
6, 19200, Note_on_c, 9, 55, 0
6, 19200, Note_on_c, 9, 55, 100
6, 19200, Note_on_c, 9, 35, 100
6, 19260, Note_on_c, 9, 35, 0
6, 19260, Note_on_c, 9, 55, 0
6, 19260, Note_on_c, 9, 35, 100
6, 19260, Note_on_c, 9, 55, 100
6, 19320, Note_on_c, 9, 55, 0
6, 19320, Note_on_c, 9, 35, 0
6, 19320, Note_on_c, 9, 49, 100
6, 19320, Note_on_c, 9, 38, 100
6, 19320, Note_on_c, 9, 55, 100
6, 19380, Note_on_c, 9, 55, 0
6, 19380, Note_on_c, 9, 38, 0
6, 19380, Note_on_c, 9, 49, 0
6, 19380, Note_on_c, 9, 55, 100
6, 19440, Note_on_c, 9, 55, 0
6, 19440, Note_on_c, 9, 35, 100
6, 19440, Note_on_c, 9, 55, 100
6, 19500, Note_on_c, 9, 55, 0
6, 19500, Note_on_c, 9, 35, 0
6, 19500, Note_on_c, 9, 35, 100
6, 19500, Note_on_c, 9, 55, 100
6, 19560, Note_on_c, 9, 55, 0
6, 19560, Note_on_c, 9, 35, 0
6, 19560, Note_on_c, 9, 49, 100
6, 19560, Note_on_c, 9, 38, 100
6, 19560, Note_on_c, 9, 55, 100
6, 19620, Note_on_c, 9, 55, 0
6, 19620, Note_on_c, 9, 38, 0
6, 19620, Note_on_c, 9, 49, 0
6, 19620, Note_on_c, 9, 55, 100
6, 19680, Note_on_c, 9, 55, 0
6, 19680, Note_on_c, 9, 55, 100
6, 19680, Note_on_c, 9, 35, 100
6, 19740, Note_on_c, 9, 35, 0
6, 19740, Note_on_c, 9, 55, 0
6, 19740, Note_on_c, 9, 35, 100
6, 19740, Note_on_c, 9, 55, 100
6, 19800, Note_on_c, 9, 55, 0
6, 19800, Note_on_c, 9, 35, 0
6, 19800, Note_on_c, 9, 49, 100
6, 19800, Note_on_c, 9, 38, 100
6, 19800, Note_on_c, 9, 55, 100
6, 19860, Note_on_c, 9, 55, 0
6, 19860, Note_on_c, 9, 38, 0
6, 19860, Note_on_c, 9, 49, 0
6, 19860, Note_on_c, 9, 55, 100
6, 19920, Note_on_c, 9, 55, 0
6, 19920, Note_on_c, 9, 35, 100
6, 19920, Note_on_c, 9, 55, 100
6, 19980, Note_on_c, 9, 55, 0
6, 19980, Note_on_c, 9, 35, 0
6, 19980, Note_on_c, 9, 35, 100
6, 19980, Note_on_c, 9, 55, 100
6, 20040, Note_on_c, 9, 55, 0
6, 20040, Note_on_c, 9, 35, 0
6, 20040, Note_on_c, 9, 49, 100
6, 20040, Note_on_c, 9, 38, 100
6, 20040, Note_on_c, 9, 55, 100
6, 20100, Note_on_c, 9, 55, 0
6, 20100, Note_on_c, 9, 38, 0
6, 20100, Note_on_c, 9, 49, 0
6, 20100, Note_on_c, 9, 55, 100
6, 20160, Note_on_c, 9, 55, 0
6, 20160, Note_on_c, 9, 55, 100
6, 20160, Note_on_c, 9, 35, 100
6, 20220, Note_on_c, 9, 35, 0
6, 20220, Note_on_c, 9, 55, 0
6, 20220, Note_on_c, 9, 35, 100
6, 20220, Note_on_c, 9, 55, 100
6, 20280, Note_on_c, 9, 55, 0
6, 20280, Note_on_c, 9, 35, 0
6, 20280, Note_on_c, 9, 49, 100
6, 20280, Note_on_c, 9, 38, 100
6, 20280, Note_on_c, 9, 55, 100
6, 20340, Note_on_c, 9, 55, 0
6, 20340, Note_on_c, 9, 38, 0
6, 20340, Note_on_c, 9, 49, 0
6, 20340, Note_on_c, 9, 55, 100
6, 20400, Note_on_c, 9, 55, 0
6, 20400, Note_on_c, 9, 35, 100
6, 20400, Note_on_c, 9, 55, 100
6, 20460, Note_on_c, 9, 55, 0
6, 20460, Note_on_c, 9, 35, 0
6, 20460, Note_on_c, 9, 35, 100
6, 20460, Note_on_c, 9, 55, 100
6, 20520, Note_on_c, 9, 55, 0
6, 20520, Note_on_c, 9, 35, 0
6, 20520, Note_on_c, 9, 49, 100
6, 20520, Note_on_c, 9, 38, 100
6, 20520, Note_on_c, 9, 55, 100
6, 20580, Note_on_c, 9, 55, 0
6, 20580, Note_on_c, 9, 38, 0
6, 20580, Note_on_c, 9, 49, 0
6, 20580, Note_on_c, 9, 55, 100
6, 20640, Note_on_c, 9, 55, 0
6, 20640, Note_on_c, 9, 55, 100
6, 20640, Note_on_c, 9, 35, 100
6, 20700, Note_on_c, 9, 35, 0
6, 20700, Note_on_c, 9, 55, 0
6, 20700, Note_on_c, 9, 35, 100
6, 20700, Note_on_c, 9, 55, 100
6, 20760, Note_on_c, 9, 55, 0
6, 20760, Note_on_c, 9, 35, 0
6, 20760, Note_on_c, 9, 49, 100
6, 20760, Note_on_c, 9, 38, 100
6, 20760, Note_on_c, 9, 55, 100
6, 20820, Note_on_c, 9, 55, 0
6, 20820, Note_on_c, 9, 38, 0
6, 20820, Note_on_c, 9, 49, 0
6, 20820, Note_on_c, 9, 55, 100
6, 20880, Note_on_c, 9, 55, 0
6, 20880, Note_on_c, 9, 35, 100
6, 20880, Note_on_c, 9, 55, 100
6, 20940, Note_on_c, 9, 55, 0
6, 20940, Note_on_c, 9, 35, 0
6, 20940, Note_on_c, 9, 35, 100
6, 20940, Note_on_c, 9, 55, 100
6, 21000, Note_on_c, 9, 55, 0
6, 21000, Note_on_c, 9, 35, 0
6, 21000, Note_on_c, 9, 49, 100
6, 21000, Note_on_c, 9, 38, 100
6, 21000, Note_on_c, 9, 55, 100
6, 21060, Note_on_c, 9, 55, 0
6, 21060, Note_on_c, 9, 38, 0
6, 21060, Note_on_c, 9, 49, 0
6, 21060, Note_on_c, 9, 55, 100
6, 21120, Note_on_c, 9, 55, 0
6, 21120, Note_on_c, 9, 55, 100
6, 21120, Note_on_c, 9, 35, 100
6, 21180, Note_on_c, 9, 35, 0
6, 21180, Note_on_c, 9, 55, 0
6, 21180, Note_on_c, 9, 35, 100
6, 21180, Note_on_c, 9, 55, 100
6, 21240, Note_on_c, 9, 55, 0
6, 21240, Note_on_c, 9, 35, 0
6, 21240, Note_on_c, 9, 49, 100
6, 21240, Note_on_c, 9, 38, 100
6, 21240, Note_on_c, 9, 55, 100
6, 21300, Note_on_c, 9, 55, 0
6, 21300, Note_on_c, 9, 38, 0
6, 21300, Note_on_c, 9, 49, 0
6, 21300, Note_on_c, 9, 55, 100
6, 21360, Note_on_c, 9, 55, 0
6, 21360, Note_on_c, 9, 35, 100
6, 21360, Note_on_c, 9, 55, 100
6, 21420, Note_on_c, 9, 55, 0
6, 21420, Note_on_c, 9, 35, 0
6, 21420, Note_on_c, 9, 35, 100
6, 21420, Note_on_c, 9, 55, 100
6, 21480, Note_on_c, 9, 55, 0
6, 21480, Note_on_c, 9, 35, 0
6, 21480, Note_on_c, 9, 49, 100
6, 21480, Note_on_c, 9, 38, 100
6, 21480, Note_on_c, 9, 55, 100
6, 21540, Note_on_c, 9, 55, 0
6, 21540, Note_on_c, 9, 38, 0
6, 21540, Note_on_c, 9, 49, 0
6, 21540, Note_on_c, 9, 55, 100
6, 21600, Note_on_c, 9, 55, 0
6, 21600, Note_on_c, 9, 55, 100
6, 21600, Note_on_c, 9, 35, 100
6, 21660, Note_on_c, 9, 35, 0
6, 21660, Note_on_c, 9, 55, 0
6, 21660, Note_on_c, 9, 35, 100
6, 21660, Note_on_c, 9, 55, 100
6, 21720, Note_on_c, 9, 55, 0
6, 21720, Note_on_c, 9, 35, 0
6, 21720, Note_on_c, 9, 49, 100
6, 21720, Note_on_c, 9, 38, 100
6, 21720, Note_on_c, 9, 55, 100
6, 21780, Note_on_c, 9, 55, 0
6, 21780, Note_on_c, 9, 38, 0
6, 21780, Note_on_c, 9, 49, 0
6, 21780, Note_on_c, 9, 55, 100
6, 21840, Note_on_c, 9, 55, 0
6, 21840, Note_on_c, 9, 35, 100
6, 21840, Note_on_c, 9, 55, 100
6, 21900, Note_on_c, 9, 55, 0
6, 21900, Note_on_c, 9, 35, 0
6, 21900, Note_on_c, 9, 35, 100
6, 21900, Note_on_c, 9, 55, 100
6, 21960, Note_on_c, 9, 55, 0
6, 21960, Note_on_c, 9, 35, 0
6, 21960, Note_on_c, 9, 49, 100
6, 21960, Note_on_c, 9, 38, 100
6, 21960, Note_on_c, 9, 55, 100
6, 22020, Note_on_c, 9, 55, 0
6, 22020, Note_on_c, 9, 38, 0
6, 22020, Note_on_c, 9, 49, 0
6, 22020, Note_on_c, 9, 55, 100
6, 22080, Note_on_c, 9, 55, 0
6, 22080, Note_on_c, 9, 55, 100
6, 22080, Note_on_c, 9, 35, 100
6, 22140, Note_on_c, 9, 35, 0
6, 22140, Note_on_c, 9, 55, 0
6, 22140, Note_on_c, 9, 35, 100
6, 22140, Note_on_c, 9, 55, 100
6, 22200, Note_on_c, 9, 55, 0
6, 22200, Note_on_c, 9, 35, 0
6, 22200, Note_on_c, 9, 49, 100
6, 22200, Note_on_c, 9, 38, 100
6, 22200, Note_on_c, 9, 55, 100
6, 22260, Note_on_c, 9, 55, 0
6, 22260, Note_on_c, 9, 38, 0
6, 22260, Note_on_c, 9, 49, 0
6, 22260, Note_on_c, 9, 55, 100
6, 22320, Note_on_c, 9, 55, 0
6, 22320, Note_on_c, 9, 35, 100
6, 22320, Note_on_c, 9, 55, 100
6, 22380, Note_on_c, 9, 55, 0
6, 22380, Note_on_c, 9, 35, 0
6, 22380, Note_on_c, 9, 35, 100
6, 22380, Note_on_c, 9, 55, 100
6, 22440, Note_on_c, 9, 55, 0
6, 22440, Note_on_c, 9, 35, 0
6, 22440, Note_on_c, 9, 49, 100
6, 22440, Note_on_c, 9, 38, 100
6, 22440, Note_on_c, 9, 55, 100
6, 22500, Note_on_c, 9, 55, 0
6, 22500, Note_on_c, 9, 38, 0
6, 22500, Note_on_c, 9, 49, 0
6, 22500, Note_on_c, 9, 55, 100
6, 22560, Note_on_c, 9, 55, 0
6, 22560, Note_on_c, 9, 55, 100
6, 22560, Note_on_c, 9, 35, 100
6, 22620, Note_on_c, 9, 35, 0
6, 22620, Note_on_c, 9, 55, 0
6, 22620, Note_on_c, 9, 35, 100
6, 22620, Note_on_c, 9, 55, 100
6, 22680, Note_on_c, 9, 55, 0
6, 22680, Note_on_c, 9, 35, 0
6, 22680, Note_on_c, 9, 49, 100
6, 22680, Note_on_c, 9, 38, 100
6, 22680, Note_on_c, 9, 55, 100
6, 22740, Note_on_c, 9, 55, 0
6, 22740, Note_on_c, 9, 38, 0
6, 22740, Note_on_c, 9, 49, 0
6, 22740, Note_on_c, 9, 55, 100
6, 22800, Note_on_c, 9, 55, 0
6, 22800, Note_on_c, 9, 35, 100
6, 22800, Note_on_c, 9, 55, 100
6, 22860, Note_on_c, 9, 55, 0
6, 22860, Note_on_c, 9, 35, 0
6, 22860, Note_on_c, 9, 35, 100
6, 22860, Note_on_c, 9, 55, 100
6, 22920, Note_on_c, 9, 55, 0
6, 22920, Note_on_c, 9, 35, 0
6, 22920, Note_on_c, 9, 49, 100
6, 22920, Note_on_c, 9, 38, 100
6, 22920, Note_on_c, 9, 55, 100
6, 22980, Note_on_c, 9, 55, 0
6, 22980, Note_on_c, 9, 38, 0
6, 22980, Note_on_c, 9, 49, 0
6, 22980, Note_on_c, 9, 55, 100
6, 23040, Note_on_c, 9, 55, 0
6, 23040, Note_on_c, 9, 55, 100
6, 23040, Note_on_c, 9, 35, 100
6, 23100, Note_on_c, 9, 35, 0
6, 23100, Note_on_c, 9, 55, 0
6, 23100, Note_on_c, 9, 35, 100
6, 23100, Note_on_c, 9, 55, 100
6, 23160, Note_on_c, 9, 55, 0
6, 23160, Note_on_c, 9, 35, 0
6, 23160, Note_on_c, 9, 49, 100
6, 23160, Note_on_c, 9, 38, 100
6, 23160, Note_on_c, 9, 55, 100
6, 23220, Note_on_c, 9, 55, 0
6, 23220, Note_on_c, 9, 38, 0
6, 23220, Note_on_c, 9, 49, 0
6, 23220, Note_on_c, 9, 55, 100
6, 23280, Note_on_c, 9, 55, 0
6, 23280, Note_on_c, 9, 35, 100
6, 23280, Note_on_c, 9, 55, 100
6, 23340, Note_on_c, 9, 55, 0
6, 23340, Note_on_c, 9, 35, 0
6, 23340, Note_on_c, 9, 35, 100
6, 23340, Note_on_c, 9, 55, 100
6, 23400, Note_on_c, 9, 55, 0
6, 23400, Note_on_c, 9, 35, 0
6, 23400, Note_on_c, 9, 49, 100
6, 23400, Note_on_c, 9, 38, 100
6, 23400, Note_on_c, 9, 55, 100
6, 23460, Note_on_c, 9, 55, 0
6, 23460, Note_on_c, 9, 38, 0
6, 23460, Note_on_c, 9, 49, 0
6, 23460, Note_on_c, 9, 55, 100
6, 23520, Note_on_c, 9, 55, 0
6, 23520, Note_on_c, 9, 55, 100
6, 23520, Note_on_c, 9, 35, 100
6, 23580, Note_on_c, 9, 35, 0
6, 23580, Note_on_c, 9, 55, 0
6, 23580, Note_on_c, 9, 35, 100
6, 23580, Note_on_c, 9, 55, 100
6, 23640, Note_on_c, 9, 55, 0
6, 23640, Note_on_c, 9, 35, 0
6, 23640, Note_on_c, 9, 49, 100
6, 23640, Note_on_c, 9, 38, 100
6, 23640, Note_on_c, 9, 55, 100
6, 23700, Note_on_c, 9, 55, 0
6, 23700, Note_on_c, 9, 38, 0
6, 23700, Note_on_c, 9, 49, 0
6, 23700, Note_on_c, 9, 55, 100
6, 23760, Note_on_c, 9, 55, 0
6, 23760, Note_on_c, 9, 35, 100
6, 23760, Note_on_c, 9, 55, 100
6, 23820, Note_on_c, 9, 55, 0
6, 23820, Note_on_c, 9, 35, 0
6, 23820, Note_on_c, 9, 35, 100
6, 23820, Note_on_c, 9, 55, 100
6, 23880, Note_on_c, 9, 55, 0
6, 23880, Note_on_c, 9, 35, 0
6, 23880, Note_on_c, 9, 49, 100
6, 23880, Note_on_c, 9, 38, 100
6, 23880, Note_on_c, 9, 55, 100
6, 23940, Note_on_c, 9, 55, 0
6, 23940, Note_on_c, 9, 38, 0
6, 23940, Note_on_c, 9, 49, 0
6, 23940, Note_on_c, 9, 55, 100
6, 24000, Note_on_c, 9, 55, 0
6, 24000, Note_on_c, 9, 55, 100
6, 24000, Note_on_c, 9, 35, 100
6, 24060, Note_on_c, 9, 35, 0
6, 24060, Note_on_c, 9, 55, 0
6, 24060, Note_on_c, 9, 35, 100
6, 24060, Note_on_c, 9, 55, 100
6, 24120, Note_on_c, 9, 55, 0
6, 24120, Note_on_c, 9, 35, 0
6, 24120, Note_on_c, 9, 49, 100
6, 24120, Note_on_c, 9, 38, 100
6, 24120, Note_on_c, 9, 55, 100
6, 24180, Note_on_c, 9, 55, 0
6, 24180, Note_on_c, 9, 38, 0
6, 24180, Note_on_c, 9, 49, 0
6, 24180, Note_on_c, 9, 55, 100
6, 24240, Note_on_c, 9, 55, 0
6, 24240, Note_on_c, 9, 35, 100
6, 24240, Note_on_c, 9, 55, 100
6, 24300, Note_on_c, 9, 55, 0
6, 24300, Note_on_c, 9, 35, 0
6, 24300, Note_on_c, 9, 35, 100
6, 24300, Note_on_c, 9, 55, 100
6, 24360, Note_on_c, 9, 55, 0
6, 24360, Note_on_c, 9, 35, 0
6, 24360, Note_on_c, 9, 49, 100
6, 24360, Note_on_c, 9, 38, 100
6, 24360, Note_on_c, 9, 55, 100
6, 24420, Note_on_c, 9, 55, 0
6, 24420, Note_on_c, 9, 38, 0
6, 24420, Note_on_c, 9, 49, 0
6, 24420, Note_on_c, 9, 55, 100
6, 24480, Note_on_c, 9, 55, 0
6, 24480, Note_on_c, 9, 55, 100
6, 24480, Note_on_c, 9, 35, 100
6, 24540, Note_on_c, 9, 35, 0
6, 24540, Note_on_c, 9, 55, 0
6, 24540, Note_on_c, 9, 35, 100
6, 24540, Note_on_c, 9, 55, 100
6, 24600, Note_on_c, 9, 55, 0
6, 24600, Note_on_c, 9, 35, 0
6, 24600, Note_on_c, 9, 49, 100
6, 24600, Note_on_c, 9, 38, 100
6, 24600, Note_on_c, 9, 55, 100
6, 24660, Note_on_c, 9, 55, 0
6, 24660, Note_on_c, 9, 38, 0
6, 24660, Note_on_c, 9, 49, 0
6, 24660, Note_on_c, 9, 55, 100
6, 24720, Note_on_c, 9, 55, 0
6, 24720, Note_on_c, 9, 35, 100
6, 24720, Note_on_c, 9, 55, 100
6, 24780, Note_on_c, 9, 55, 0
6, 24780, Note_on_c, 9, 35, 0
6, 24780, Note_on_c, 9, 35, 100
6, 24780, Note_on_c, 9, 55, 100
6, 24840, Note_on_c, 9, 55, 0
6, 24840, Note_on_c, 9, 35, 0
6, 24840, Note_on_c, 9, 49, 100
6, 24840, Note_on_c, 9, 38, 100
6, 24840, Note_on_c, 9, 55, 100
6, 24900, Note_on_c, 9, 55, 0
6, 24900, Note_on_c, 9, 38, 0
6, 24900, Note_on_c, 9, 49, 0
6, 24900, Note_on_c, 9, 55, 100
6, 24960, Note_on_c, 9, 55, 0
6, 24960, Note_on_c, 9, 55, 100
6, 24960, Note_on_c, 9, 35, 100
6, 25020, Note_on_c, 9, 35, 0
6, 25020, Note_on_c, 9, 55, 0
6, 25020, Note_on_c, 9, 35, 100
6, 25020, Note_on_c, 9, 55, 100
6, 25080, Note_on_c, 9, 55, 0
6, 25080, Note_on_c, 9, 35, 0
6, 25080, Note_on_c, 9, 49, 100
6, 25080, Note_on_c, 9, 38, 100
6, 25080, Note_on_c, 9, 55, 100
6, 25140, Note_on_c, 9, 55, 0
6, 25140, Note_on_c, 9, 38, 0
6, 25140, Note_on_c, 9, 49, 0
6, 25140, Note_on_c, 9, 55, 100
6, 25200, Note_on_c, 9, 55, 0
6, 25200, Note_on_c, 9, 35, 100
6, 25200, Note_on_c, 9, 55, 100
6, 25260, Note_on_c, 9, 55, 0
6, 25260, Note_on_c, 9, 35, 0
6, 25260, Note_on_c, 9, 35, 100
6, 25260, Note_on_c, 9, 55, 100
6, 25320, Note_on_c, 9, 55, 0
6, 25320, Note_on_c, 9, 35, 0
6, 25320, Note_on_c, 9, 49, 100
6, 25320, Note_on_c, 9, 38, 100
6, 25320, Note_on_c, 9, 55, 100
6, 25380, Note_on_c, 9, 55, 0
6, 25380, Note_on_c, 9, 38, 0
6, 25380, Note_on_c, 9, 49, 0
6, 25380, Note_on_c, 9, 55, 100
6, 25440, Note_on_c, 9, 55, 0
6, 25440, Note_on_c, 9, 55, 100
6, 25440, Note_on_c, 9, 35, 100
6, 25500, Note_on_c, 9, 35, 0
6, 25500, Note_on_c, 9, 55, 0
6, 25500, Note_on_c, 9, 35, 100
6, 25500, Note_on_c, 9, 55, 100
6, 25560, Note_on_c, 9, 55, 0
6, 25560, Note_on_c, 9, 35, 0
6, 25560, Note_on_c, 9, 49, 100
6, 25560, Note_on_c, 9, 38, 100
6, 25560, Note_on_c, 9, 55, 100
6, 25620, Note_on_c, 9, 55, 0
6, 25620, Note_on_c, 9, 38, 0
6, 25620, Note_on_c, 9, 49, 0
6, 25620, Note_on_c, 9, 55, 100
6, 25680, Note_on_c, 9, 55, 0
6, 25680, Note_on_c, 9, 35, 100
6, 25680, Note_on_c, 9, 55, 100
6, 25740, Note_on_c, 9, 55, 0
6, 25740, Note_on_c, 9, 35, 0
6, 25740, Note_on_c, 9, 35, 100
6, 25740, Note_on_c, 9, 55, 100
6, 25800, Note_on_c, 9, 55, 0
6, 25800, Note_on_c, 9, 35, 0
6, 25800, Note_on_c, 9, 49, 100
6, 25800, Note_on_c, 9, 38, 100
6, 25800, Note_on_c, 9, 55, 100
6, 25860, Note_on_c, 9, 55, 0
6, 25860, Note_on_c, 9, 38, 0
6, 25860, Note_on_c, 9, 49, 0
6, 25860, Note_on_c, 9, 55, 100
6, 25920, Note_on_c, 9, 55, 0
6, 25920, Note_on_c, 9, 55, 100
6, 25920, Note_on_c, 9, 35, 100
6, 25980, Note_on_c, 9, 35, 0
6, 25980, Note_on_c, 9, 55, 0
6, 25980, Note_on_c, 9, 35, 100
6, 25980, Note_on_c, 9, 55, 100
6, 26040, Note_on_c, 9, 55, 0
6, 26040, Note_on_c, 9, 35, 0
6, 26040, Note_on_c, 9, 49, 100
6, 26040, Note_on_c, 9, 38, 100
6, 26040, Note_on_c, 9, 55, 100
6, 26100, Note_on_c, 9, 55, 0
6, 26100, Note_on_c, 9, 38, 0
6, 26100, Note_on_c, 9, 49, 0
6, 26100, Note_on_c, 9, 55, 100
6, 26160, Note_on_c, 9, 55, 0
6, 26160, Note_on_c, 9, 35, 100
6, 26160, Note_on_c, 9, 55, 100
6, 26220, Note_on_c, 9, 55, 0
6, 26220, Note_on_c, 9, 35, 0
6, 26220, Note_on_c, 9, 35, 100
6, 26220, Note_on_c, 9, 55, 100
6, 26280, Note_on_c, 9, 55, 0
6, 26280, Note_on_c, 9, 35, 0
6, 26280, Note_on_c, 9, 49, 100
6, 26280, Note_on_c, 9, 38, 100
6, 26280, Note_on_c, 9, 55, 100
6, 26340, Note_on_c, 9, 55, 0
6, 26340, Note_on_c, 9, 38, 0
6, 26340, Note_on_c, 9, 49, 0
6, 26340, Note_on_c, 9, 55, 100
6, 26400, Note_on_c, 9, 55, 0
6, 26400, Note_on_c, 9, 55, 100
6, 26400, Note_on_c, 9, 35, 100
6, 26460, Note_on_c, 9, 35, 0
6, 26460, Note_on_c, 9, 55, 0
6, 26460, Note_on_c, 9, 35, 100
6, 26460, Note_on_c, 9, 55, 100
6, 26520, Note_on_c, 9, 55, 0
6, 26520, Note_on_c, 9, 35, 0
6, 26520, Note_on_c, 9, 49, 100
6, 26520, Note_on_c, 9, 38, 100
6, 26520, Note_on_c, 9, 55, 100
6, 26580, Note_on_c, 9, 55, 0
6, 26580, Note_on_c, 9, 38, 0
6, 26580, Note_on_c, 9, 49, 0
6, 26580, Note_on_c, 9, 55, 100
6, 26640, Note_on_c, 9, 55, 0
6, 26640, Note_on_c, 9, 35, 100
6, 26640, Note_on_c, 9, 55, 100
6, 26700, Note_on_c, 9, 55, 0
6, 26700, Note_on_c, 9, 35, 0
6, 26700, Note_on_c, 9, 35, 100
6, 26700, Note_on_c, 9, 55, 100
6, 26760, Note_on_c, 9, 55, 0
6, 26760, Note_on_c, 9, 35, 0
6, 26760, Note_on_c, 9, 49, 100
6, 26760, Note_on_c, 9, 38, 100
6, 26760, Note_on_c, 9, 55, 100
6, 26820, Note_on_c, 9, 55, 0
6, 26820, Note_on_c, 9, 38, 0
6, 26820, Note_on_c, 9, 49, 0
6, 26820, Note_on_c, 9, 55, 100
6, 26880, Note_on_c, 9, 55, 0
6, 26880, Note_on_c, 9, 55, 100
6, 26880, Note_on_c, 9, 35, 100
6, 26940, Note_on_c, 9, 35, 0
6, 26940, Note_on_c, 9, 55, 0
6, 26940, Note_on_c, 9, 35, 100
6, 26940, Note_on_c, 9, 55, 100
6, 27000, Note_on_c, 9, 55, 0
6, 27000, Note_on_c, 9, 35, 0
6, 27000, Note_on_c, 9, 49, 100
6, 27000, Note_on_c, 9, 38, 100
6, 27000, Note_on_c, 9, 55, 100
6, 27060, Note_on_c, 9, 55, 0
6, 27060, Note_on_c, 9, 38, 0
6, 27060, Note_on_c, 9, 49, 0
6, 27060, Note_on_c, 9, 55, 100
6, 27120, Note_on_c, 9, 55, 0
6, 27120, Note_on_c, 9, 35, 100
6, 27120, Note_on_c, 9, 55, 100
6, 27180, Note_on_c, 9, 55, 0
6, 27180, Note_on_c, 9, 35, 0
6, 27180, Note_on_c, 9, 35, 100
6, 27180, Note_on_c, 9, 55, 100
6, 27240, Note_on_c, 9, 55, 0
6, 27240, Note_on_c, 9, 35, 0
6, 27240, Note_on_c, 9, 49, 100
6, 27240, Note_on_c, 9, 38, 100
6, 27240, Note_on_c, 9, 55, 100
6, 27300, Note_on_c, 9, 55, 0
6, 27300, Note_on_c, 9, 38, 0
6, 27300, Note_on_c, 9, 49, 0
6, 27300, Note_on_c, 9, 55, 100
6, 27360, Note_on_c, 9, 55, 0
6, 27360, Note_on_c, 9, 55, 100
6, 27360, Note_on_c, 9, 35, 100
6, 27420, Note_on_c, 9, 35, 0
6, 27420, Note_on_c, 9, 55, 0
6, 27420, Note_on_c, 9, 35, 100
6, 27420, Note_on_c, 9, 55, 100
6, 27480, Note_on_c, 9, 55, 0
6, 27480, Note_on_c, 9, 35, 0
6, 27480, Note_on_c, 9, 49, 100
6, 27480, Note_on_c, 9, 38, 100
6, 27480, Note_on_c, 9, 55, 100
6, 27540, Note_on_c, 9, 55, 0
6, 27540, Note_on_c, 9, 38, 0
6, 27540, Note_on_c, 9, 49, 0
6, 27540, Note_on_c, 9, 55, 100
6, 27600, Note_on_c, 9, 55, 0
6, 27600, Note_on_c, 9, 35, 100
6, 27600, Note_on_c, 9, 55, 100
6, 27660, Note_on_c, 9, 55, 0
6, 27660, Note_on_c, 9, 35, 0
6, 27660, Note_on_c, 9, 35, 100
6, 27660, Note_on_c, 9, 55, 100
6, 27720, Note_on_c, 9, 55, 0
6, 27720, Note_on_c, 9, 35, 0
6, 27720, Note_on_c, 9, 49, 100
6, 27720, Note_on_c, 9, 38, 100
6, 27720, Note_on_c, 9, 55, 100
6, 27780, Note_on_c, 9, 55, 0
6, 27780, Note_on_c, 9, 38, 0
6, 27780, Note_on_c, 9, 49, 0
6, 27780, Note_on_c, 9, 55, 100
6, 27840, Note_on_c, 9, 55, 0
6, 27840, Note_on_c, 9, 54, 100
6, 27840, Note_on_c, 9, 42, 100
6, 27840, Note_on_c, 9, 35, 100
6, 27840, Note_on_c, 9, 49, 100
6, 27900, Note_on_c, 9, 42, 0
6, 27900, Note_on_c, 9, 54, 0
6, 27900, Note_on_c, 9, 54, 100
6, 27900, Note_on_c, 9, 35, 100
6, 27900, Note_on_c, 9, 42, 100
6, 27960, Note_on_c, 9, 42, 0
6, 27960, Note_on_c, 9, 54, 0
6, 27960, Note_on_c, 9, 49, 0
6, 27960, Note_on_c, 9, 35, 0
6, 27960, Note_on_c, 9, 35, 0
6, 27960, Note_on_c, 9, 54, 100
6, 27960, Note_on_c, 9, 38, 100
6, 27960, Note_on_c, 9, 42, 100
6, 28020, Note_on_c, 9, 42, 0
6, 28020, Note_on_c, 9, 38, 0
6, 28020, Note_on_c, 9, 54, 0
6, 28020, Note_on_c, 9, 54, 100
6, 28020, Note_on_c, 9, 42, 100
6, 28080, Note_on_c, 9, 42, 0
6, 28080, Note_on_c, 9, 54, 0
6, 28080, Note_on_c, 9, 54, 100
6, 28080, Note_on_c, 9, 35, 100
6, 28080, Note_on_c, 9, 42, 100
6, 28140, Note_on_c, 9, 42, 0
6, 28140, Note_on_c, 9, 35, 0
6, 28140, Note_on_c, 9, 54, 0
6, 28140, Note_on_c, 9, 54, 100
6, 28140, Note_on_c, 9, 35, 100
6, 28140, Note_on_c, 9, 42, 100
6, 28200, Note_on_c, 9, 42, 0
6, 28200, Note_on_c, 9, 35, 0
6, 28200, Note_on_c, 9, 54, 0
6, 28200, Note_on_c, 9, 54, 100
6, 28200, Note_on_c, 9, 38, 100
6, 28200, Note_on_c, 9, 42, 100
6, 28260, Note_on_c, 9, 42, 0
6, 28260, Note_on_c, 9, 38, 0
6, 28260, Note_on_c, 9, 54, 0
6, 28260, Note_on_c, 9, 54, 100
6, 28260, Note_on_c, 9, 42, 100
6, 28320, Note_on_c, 9, 42, 0
6, 28320, Note_on_c, 9, 54, 0
6, 28320, Note_on_c, 9, 54, 100
6, 28320, Note_on_c, 9, 42, 100
6, 28320, Note_on_c, 9, 35, 100
6, 28380, Note_on_c, 9, 42, 0
6, 28380, Note_on_c, 9, 54, 0
6, 28380, Note_on_c, 9, 54, 100
6, 28380, Note_on_c, 9, 35, 100
6, 28380, Note_on_c, 9, 42, 100
6, 28440, Note_on_c, 9, 42, 0
6, 28440, Note_on_c, 9, 35, 0
6, 28440, Note_on_c, 9, 54, 0
6, 28440, Note_on_c, 9, 35, 0
6, 28440, Note_on_c, 9, 54, 100
6, 28440, Note_on_c, 9, 38, 100
6, 28440, Note_on_c, 9, 42, 100
6, 28500, Note_on_c, 9, 42, 0
6, 28500, Note_on_c, 9, 38, 0
6, 28500, Note_on_c, 9, 54, 0
6, 28500, Note_on_c, 9, 54, 100
6, 28500, Note_on_c, 9, 42, 100
6, 28560, Note_on_c, 9, 42, 0
6, 28560, Note_on_c, 9, 54, 0
6, 28560, Note_on_c, 9, 54, 100
6, 28560, Note_on_c, 9, 35, 100
6, 28560, Note_on_c, 9, 42, 100
6, 28620, Note_on_c, 9, 42, 0
6, 28620, Note_on_c, 9, 35, 0
6, 28620, Note_on_c, 9, 54, 0
6, 28620, Note_on_c, 9, 54, 100
6, 28620, Note_on_c, 9, 35, 100
6, 28620, Note_on_c, 9, 42, 100
6, 28680, Note_on_c, 9, 42, 0
6, 28680, Note_on_c, 9, 35, 0
6, 28680, Note_on_c, 9, 54, 0
6, 28680, Note_on_c, 9, 39, 100
6, 28680, Note_on_c, 9, 54, 100
6, 28680, Note_on_c, 9, 38, 100
6, 28680, Note_on_c, 9, 42, 100
6, 28740, Note_on_c, 9, 42, 0
6, 28740, Note_on_c, 9, 39, 0
6, 28740, Note_on_c, 9, 54, 0
6, 28740, Note_on_c, 9, 38, 0
6, 28740, Note_on_c, 9, 39, 100
6, 28740, Note_on_c, 9, 54, 100
6, 28740, Note_on_c, 9, 46, 100
6, 28800, Note_on_c, 9, 46, 0
6, 28800, Note_on_c, 9, 54, 0
6, 28800, Note_on_c, 9, 39, 0
6, 28800, Note_on_c, 9, 54, 100
6, 28800, Note_on_c, 9, 42, 100
6, 28800, Note_on_c, 9, 35, 100
6, 28860, Note_on_c, 9, 42, 0
6, 28860, Note_on_c, 9, 54, 0
6, 28860, Note_on_c, 9, 54, 100
6, 28860, Note_on_c, 9, 35, 100
6, 28860, Note_on_c, 9, 42, 100
6, 28920, Note_on_c, 9, 42, 0
6, 28920, Note_on_c, 9, 35, 0
6, 28920, Note_on_c, 9, 54, 0
6, 28920, Note_on_c, 9, 35, 0
6, 28920, Note_on_c, 9, 54, 100
6, 28920, Note_on_c, 9, 38, 100
6, 28920, Note_on_c, 9, 42, 100
6, 28980, Note_on_c, 9, 42, 0
6, 28980, Note_on_c, 9, 38, 0
6, 28980, Note_on_c, 9, 54, 0
6, 28980, Note_on_c, 9, 54, 100
6, 28980, Note_on_c, 9, 42, 100
6, 29040, Note_on_c, 9, 42, 0
6, 29040, Note_on_c, 9, 54, 0
6, 29040, Note_on_c, 9, 54, 100
6, 29040, Note_on_c, 9, 35, 100
6, 29040, Note_on_c, 9, 42, 100
6, 29100, Note_on_c, 9, 42, 0
6, 29100, Note_on_c, 9, 35, 0
6, 29100, Note_on_c, 9, 54, 0
6, 29100, Note_on_c, 9, 54, 100
6, 29100, Note_on_c, 9, 35, 100
6, 29100, Note_on_c, 9, 42, 100
6, 29160, Note_on_c, 9, 42, 0
6, 29160, Note_on_c, 9, 35, 0
6, 29160, Note_on_c, 9, 54, 0
6, 29160, Note_on_c, 9, 39, 100
6, 29160, Note_on_c, 9, 54, 100
6, 29160, Note_on_c, 9, 38, 100
6, 29160, Note_on_c, 9, 42, 100
6, 29220, Note_on_c, 9, 42, 0
6, 29220, Note_on_c, 9, 39, 0
6, 29220, Note_on_c, 9, 54, 0
6, 29220, Note_on_c, 9, 38, 0
6, 29220, Note_on_c, 9, 39, 100
6, 29220, Note_on_c, 9, 54, 100
6, 29220, Note_on_c, 9, 42, 100
6, 29280, Note_on_c, 9, 42, 0
6, 29280, Note_on_c, 9, 54, 0
6, 29280, Note_on_c, 9, 39, 0
6, 29280, Note_on_c, 9, 54, 100
6, 29280, Note_on_c, 9, 42, 100
6, 29280, Note_on_c, 9, 35, 100
6, 29340, Note_on_c, 9, 42, 0
6, 29340, Note_on_c, 9, 54, 0
6, 29340, Note_on_c, 9, 54, 100
6, 29340, Note_on_c, 9, 35, 100
6, 29340, Note_on_c, 9, 42, 100
6, 29400, Note_on_c, 9, 42, 0
6, 29400, Note_on_c, 9, 35, 0
6, 29400, Note_on_c, 9, 54, 0
6, 29400, Note_on_c, 9, 35, 0
6, 29400, Note_on_c, 9, 54, 100
6, 29400, Note_on_c, 9, 38, 100
6, 29400, Note_on_c, 9, 42, 100
6, 29460, Note_on_c, 9, 42, 0
6, 29460, Note_on_c, 9, 38, 0
6, 29460, Note_on_c, 9, 54, 0
6, 29460, Note_on_c, 9, 54, 100
6, 29460, Note_on_c, 9, 42, 100
6, 29520, Note_on_c, 9, 42, 0
6, 29520, Note_on_c, 9, 54, 0
6, 29520, Note_on_c, 9, 54, 100
6, 29520, Note_on_c, 9, 35, 100
6, 29520, Note_on_c, 9, 42, 100
6, 29580, Note_on_c, 9, 42, 0
6, 29580, Note_on_c, 9, 35, 0
6, 29580, Note_on_c, 9, 54, 0
6, 29580, Note_on_c, 9, 54, 100
6, 29580, Note_on_c, 9, 35, 100
6, 29580, Note_on_c, 9, 42, 100
6, 29640, Note_on_c, 9, 42, 0
6, 29640, Note_on_c, 9, 35, 0
6, 29640, Note_on_c, 9, 54, 0
6, 29640, Note_on_c, 9, 39, 100
6, 29640, Note_on_c, 9, 54, 100
6, 29640, Note_on_c, 9, 38, 100
6, 29640, Note_on_c, 9, 42, 100
6, 29700, Note_on_c, 9, 42, 0
6, 29700, Note_on_c, 9, 39, 0
6, 29700, Note_on_c, 9, 54, 0
6, 29700, Note_on_c, 9, 38, 0
6, 29700, Note_on_c, 9, 39, 100
6, 29700, Note_on_c, 9, 54, 100
6, 29700, Note_on_c, 9, 46, 100
6, 29760, Note_on_c, 9, 46, 0
6, 29760, Note_on_c, 9, 54, 0
6, 29760, Note_on_c, 9, 39, 0
6, 29760, Note_on_c, 9, 54, 100
6, 29760, Note_on_c, 9, 42, 100
6, 29760, Note_on_c, 9, 35, 100
6, 29760, Note_on_c, 9, 49, 100
6, 29820, Note_on_c, 9, 42, 0
6, 29820, Note_on_c, 9, 54, 0
6, 29820, Note_on_c, 9, 54, 100
6, 29820, Note_on_c, 9, 35, 100
6, 29820, Note_on_c, 9, 42, 100
6, 29880, Note_on_c, 9, 42, 0
6, 29880, Note_on_c, 9, 54, 0
6, 29880, Note_on_c, 9, 49, 0
6, 29880, Note_on_c, 9, 35, 0
6, 29880, Note_on_c, 9, 35, 0
6, 29880, Note_on_c, 9, 54, 100
6, 29880, Note_on_c, 9, 38, 100
6, 29880, Note_on_c, 9, 42, 100
6, 29940, Note_on_c, 9, 42, 0
6, 29940, Note_on_c, 9, 38, 0
6, 29940, Note_on_c, 9, 54, 0
6, 29940, Note_on_c, 9, 54, 100
6, 29940, Note_on_c, 9, 42, 100
6, 30000, Note_on_c, 9, 42, 0
6, 30000, Note_on_c, 9, 54, 0
6, 30000, Note_on_c, 9, 54, 100
6, 30000, Note_on_c, 9, 35, 100
6, 30000, Note_on_c, 9, 42, 100
6, 30060, Note_on_c, 9, 42, 0
6, 30060, Note_on_c, 9, 35, 0
6, 30060, Note_on_c, 9, 54, 0
6, 30060, Note_on_c, 9, 54, 100
6, 30060, Note_on_c, 9, 35, 100
6, 30060, Note_on_c, 9, 42, 100
6, 30120, Note_on_c, 9, 42, 0
6, 30120, Note_on_c, 9, 35, 0
6, 30120, Note_on_c, 9, 54, 0
6, 30120, Note_on_c, 9, 54, 100
6, 30120, Note_on_c, 9, 38, 100
6, 30120, Note_on_c, 9, 42, 100
6, 30180, Note_on_c, 9, 42, 0
6, 30180, Note_on_c, 9, 38, 0
6, 30180, Note_on_c, 9, 54, 0
6, 30180, Note_on_c, 9, 54, 100
6, 30180, Note_on_c, 9, 42, 100
6, 30240, Note_on_c, 9, 42, 0
6, 30240, Note_on_c, 9, 54, 0
6, 30240, Note_on_c, 9, 54, 100
6, 30240, Note_on_c, 9, 42, 100
6, 30240, Note_on_c, 9, 35, 100
6, 30300, Note_on_c, 9, 42, 0
6, 30300, Note_on_c, 9, 54, 0
6, 30300, Note_on_c, 9, 54, 100
6, 30300, Note_on_c, 9, 35, 100
6, 30300, Note_on_c, 9, 42, 100
6, 30360, Note_on_c, 9, 42, 0
6, 30360, Note_on_c, 9, 35, 0
6, 30360, Note_on_c, 9, 54, 0
6, 30360, Note_on_c, 9, 35, 0
6, 30360, Note_on_c, 9, 54, 100
6, 30360, Note_on_c, 9, 38, 100
6, 30360, Note_on_c, 9, 42, 100
6, 30420, Note_on_c, 9, 42, 0
6, 30420, Note_on_c, 9, 38, 0
6, 30420, Note_on_c, 9, 54, 0
6, 30420, Note_on_c, 9, 54, 100
6, 30420, Note_on_c, 9, 42, 100
6, 30480, Note_on_c, 9, 42, 0
6, 30480, Note_on_c, 9, 54, 0
6, 30480, Note_on_c, 9, 54, 100
6, 30480, Note_on_c, 9, 35, 100
6, 30480, Note_on_c, 9, 42, 100
6, 30540, Note_on_c, 9, 42, 0
6, 30540, Note_on_c, 9, 35, 0
6, 30540, Note_on_c, 9, 54, 0
6, 30540, Note_on_c, 9, 54, 100
6, 30540, Note_on_c, 9, 35, 100
6, 30540, Note_on_c, 9, 42, 100
6, 30600, Note_on_c, 9, 42, 0
6, 30600, Note_on_c, 9, 35, 0
6, 30600, Note_on_c, 9, 54, 0
6, 30600, Note_on_c, 9, 39, 100
6, 30600, Note_on_c, 9, 54, 100
6, 30600, Note_on_c, 9, 38, 100
6, 30600, Note_on_c, 9, 42, 100
6, 30660, Note_on_c, 9, 42, 0
6, 30660, Note_on_c, 9, 39, 0
6, 30660, Note_on_c, 9, 54, 0
6, 30660, Note_on_c, 9, 38, 0
6, 30660, Note_on_c, 9, 39, 100
6, 30660, Note_on_c, 9, 54, 100
6, 30660, Note_on_c, 9, 46, 100
6, 30720, Note_on_c, 9, 46, 0
6, 30720, Note_on_c, 9, 54, 0
6, 30720, Note_on_c, 9, 39, 0
6, 30720, Note_on_c, 9, 54, 100
6, 30720, Note_on_c, 9, 42, 100
6, 30720, Note_on_c, 9, 35, 100
6, 30780, Note_on_c, 9, 42, 0
6, 30780, Note_on_c, 9, 54, 0
6, 30780, Note_on_c, 9, 54, 100
6, 30780, Note_on_c, 9, 35, 100
6, 30780, Note_on_c, 9, 42, 100
6, 30840, Note_on_c, 9, 42, 0
6, 30840, Note_on_c, 9, 35, 0
6, 30840, Note_on_c, 9, 54, 0
6, 30840, Note_on_c, 9, 35, 0
6, 30840, Note_on_c, 9, 54, 100
6, 30840, Note_on_c, 9, 38, 100
6, 30840, Note_on_c, 9, 42, 100
6, 30900, Note_on_c, 9, 42, 0
6, 30900, Note_on_c, 9, 38, 0
6, 30900, Note_on_c, 9, 54, 0
6, 30900, Note_on_c, 9, 54, 100
6, 30900, Note_on_c, 9, 42, 100
6, 30960, Note_on_c, 9, 42, 0
6, 30960, Note_on_c, 9, 54, 0
6, 30960, Note_on_c, 9, 54, 100
6, 30960, Note_on_c, 9, 35, 100
6, 30960, Note_on_c, 9, 42, 100
6, 31020, Note_on_c, 9, 42, 0
6, 31020, Note_on_c, 9, 35, 0
6, 31020, Note_on_c, 9, 54, 0
6, 31020, Note_on_c, 9, 54, 100
6, 31020, Note_on_c, 9, 35, 100
6, 31020, Note_on_c, 9, 42, 100
6, 31080, Note_on_c, 9, 42, 0
6, 31080, Note_on_c, 9, 35, 0
6, 31080, Note_on_c, 9, 54, 0
6, 31080, Note_on_c, 9, 39, 100
6, 31080, Note_on_c, 9, 54, 100
6, 31080, Note_on_c, 9, 38, 100
6, 31080, Note_on_c, 9, 42, 100
6, 31140, Note_on_c, 9, 42, 0
6, 31140, Note_on_c, 9, 39, 0
6, 31140, Note_on_c, 9, 54, 0
6, 31140, Note_on_c, 9, 38, 0
6, 31140, Note_on_c, 9, 39, 100
6, 31140, Note_on_c, 9, 54, 100
6, 31140, Note_on_c, 9, 42, 100
6, 31200, Note_on_c, 9, 42, 0
6, 31200, Note_on_c, 9, 54, 0
6, 31200, Note_on_c, 9, 39, 0
6, 31200, Note_on_c, 9, 54, 100
6, 31200, Note_on_c, 9, 42, 100
6, 31200, Note_on_c, 9, 35, 100
6, 31260, Note_on_c, 9, 42, 0
6, 31260, Note_on_c, 9, 54, 0
6, 31260, Note_on_c, 9, 54, 100
6, 31260, Note_on_c, 9, 35, 100
6, 31260, Note_on_c, 9, 42, 100
6, 31320, Note_on_c, 9, 42, 0
6, 31320, Note_on_c, 9, 35, 0
6, 31320, Note_on_c, 9, 54, 0
6, 31320, Note_on_c, 9, 35, 0
6, 31320, Note_on_c, 9, 54, 100
6, 31320, Note_on_c, 9, 38, 100
6, 31320, Note_on_c, 9, 42, 100
6, 31380, Note_on_c, 9, 42, 0
6, 31380, Note_on_c, 9, 38, 0
6, 31380, Note_on_c, 9, 54, 0
6, 31380, Note_on_c, 9, 54, 100
6, 31380, Note_on_c, 9, 42, 100
6, 31440, Note_on_c, 9, 42, 0
6, 31440, Note_on_c, 9, 54, 0
6, 31440, Note_on_c, 9, 54, 100
6, 31440, Note_on_c, 9, 35, 100
6, 31440, Note_on_c, 9, 42, 100
6, 31500, Note_on_c, 9, 42, 0
6, 31500, Note_on_c, 9, 35, 0
6, 31500, Note_on_c, 9, 54, 0
6, 31500, Note_on_c, 9, 54, 100
6, 31500, Note_on_c, 9, 35, 100
6, 31500, Note_on_c, 9, 42, 100
6, 31560, Note_on_c, 9, 42, 0
6, 31560, Note_on_c, 9, 35, 0
6, 31560, Note_on_c, 9, 54, 0
6, 31560, Note_on_c, 9, 39, 100
6, 31560, Note_on_c, 9, 54, 100
6, 31560, Note_on_c, 9, 38, 100
6, 31560, Note_on_c, 9, 42, 100
6, 31620, Note_on_c, 9, 42, 0
6, 31620, Note_on_c, 9, 39, 0
6, 31620, Note_on_c, 9, 54, 0
6, 31620, Note_on_c, 9, 38, 0
6, 31620, Note_on_c, 9, 39, 100
6, 31620, Note_on_c, 9, 54, 100
6, 31620, Note_on_c, 9, 46, 100
6, 31680, Note_on_c, 9, 46, 0
6, 31680, Note_on_c, 9, 54, 0
6, 31680, Note_on_c, 9, 39, 0
6, 31680, Note_on_c, 9, 35, 100
6, 31680, Note_on_c, 9, 41, 100
6, 31740, Note_on_c, 9, 41, 0
6, 31740, Note_on_c, 9, 35, 0
6, 31740, Note_on_c, 9, 35, 100
6, 31740, Note_on_c, 9, 41, 100
6, 31800, Note_on_c, 9, 41, 0
6, 31800, Note_on_c, 9, 35, 0
6, 31800, Note_on_c, 9, 35, 100
6, 31800, Note_on_c, 9, 41, 100
6, 31860, Note_on_c, 9, 41, 0
6, 31860, Note_on_c, 9, 35, 0
6, 31860, Note_on_c, 9, 35, 100
6, 31860, Note_on_c, 9, 41, 100
6, 31920, Note_on_c, 9, 41, 0
6, 31920, Note_on_c, 9, 35, 0
6, 31920, Note_on_c, 9, 35, 100
6, 31920, Note_on_c, 9, 41, 100
6, 31980, Note_on_c, 9, 41, 0
6, 31980, Note_on_c, 9, 35, 0
6, 31980, Note_on_c, 9, 35, 100
6, 31980, Note_on_c, 9, 41, 100
6, 32040, Note_on_c, 9, 41, 0
6, 32040, Note_on_c, 9, 35, 0
6, 32040, Note_on_c, 9, 35, 100
6, 32040, Note_on_c, 9, 41, 100
6, 32100, Note_on_c, 9, 41, 0
6, 32100, Note_on_c, 9, 35, 0
6, 32100, Note_on_c, 9, 35, 100
6, 32100, Note_on_c, 9, 41, 100
6, 32160, Note_on_c, 9, 41, 0
6, 32160, Note_on_c, 9, 35, 0
6, 32160, Note_on_c, 9, 55, 100
6, 32160, Note_on_c, 9, 35, 100
6, 32220, Note_on_c, 9, 35, 0
6, 32220, Note_on_c, 9, 55, 0
6, 32220, Note_on_c, 9, 35, 100
6, 32280, Note_on_c, 9, 35, 0
6, 32280, Note_on_c, 9, 49, 100
6, 32280, Note_on_c, 9, 38, 100
6, 32280, Note_on_c, 9, 55, 100
6, 32340, Note_on_c, 9, 55, 0
6, 32340, Note_on_c, 9, 38, 0
6, 32340, Note_on_c, 9, 49, 0
6, 32400, Note_on_c, 9, 35, 100
6, 32400, Note_on_c, 9, 55, 100
6, 32460, Note_on_c, 9, 55, 0
6, 32460, Note_on_c, 9, 35, 0
6, 32460, Note_on_c, 9, 35, 100
6, 32520, Note_on_c, 9, 35, 0
6, 32520, Note_on_c, 9, 49, 100
6, 32520, Note_on_c, 9, 38, 100
6, 32520, Note_on_c, 9, 55, 100
6, 32580, Note_on_c, 9, 55, 0
6, 32580, Note_on_c, 9, 38, 0
6, 32580, Note_on_c, 9, 49, 0
6, 32640, Note_on_c, 9, 55, 100
6, 32640, Note_on_c, 9, 35, 100
6, 32700, Note_on_c, 9, 35, 0
6, 32700, Note_on_c, 9, 55, 0
6, 32700, Note_on_c, 9, 35, 100
6, 32760, Note_on_c, 9, 35, 0
6, 32760, Note_on_c, 9, 49, 100
6, 32760, Note_on_c, 9, 38, 100
6, 32760, Note_on_c, 9, 55, 100
6, 32820, Note_on_c, 9, 55, 0
6, 32820, Note_on_c, 9, 38, 0
6, 32820, Note_on_c, 9, 49, 0
6, 32880, Note_on_c, 9, 35, 100
6, 32880, Note_on_c, 9, 55, 100
6, 32940, Note_on_c, 9, 55, 0
6, 32940, Note_on_c, 9, 35, 0
6, 32940, Note_on_c, 9, 35, 100
6, 33000, Note_on_c, 9, 35, 0
6, 33000, Note_on_c, 9, 49, 100
6, 33000, Note_on_c, 9, 38, 100
6, 33000, Note_on_c, 9, 55, 100
6, 33060, Note_on_c, 9, 55, 0
6, 33060, Note_on_c, 9, 38, 0
6, 33060, Note_on_c, 9, 49, 0
6, 33060, Note_on_c, 9, 55, 100
6, 33120, Note_on_c, 9, 55, 0
6, 33120, Note_on_c, 9, 35, 100
6, 33120, Note_on_c, 9, 41, 100
6, 33180, Note_on_c, 9, 41, 0
6, 33180, Note_on_c, 9, 35, 0
6, 33180, Note_on_c, 9, 35, 100
6, 33180, Note_on_c, 9, 41, 100
6, 33240, Note_on_c, 9, 41, 0
6, 33240, Note_on_c, 9, 35, 0
6, 33240, Note_on_c, 9, 35, 100
6, 33240, Note_on_c, 9, 41, 100
6, 33300, Note_on_c, 9, 41, 0
6, 33300, Note_on_c, 9, 35, 0
6, 33300, Note_on_c, 9, 35, 100
6, 33300, Note_on_c, 9, 41, 100
6, 33360, Note_on_c, 9, 41, 0
6, 33360, Note_on_c, 9, 35, 0
6, 33360, Note_on_c, 9, 35, 100
6, 33360, Note_on_c, 9, 41, 100
6, 33420, Note_on_c, 9, 41, 0
6, 33420, Note_on_c, 9, 35, 0
6, 33420, Note_on_c, 9, 35, 100
6, 33420, Note_on_c, 9, 41, 100
6, 33480, Note_on_c, 9, 41, 0
6, 33480, Note_on_c, 9, 35, 0
6, 33480, Note_on_c, 9, 35, 100
6, 33480, Note_on_c, 9, 41, 100
6, 33540, Note_on_c, 9, 41, 0
6, 33540, Note_on_c, 9, 35, 0
6, 33540, Note_on_c, 9, 35, 100
6, 33540, Note_on_c, 9, 41, 100
6, 33600, Note_on_c, 9, 41, 0
6, 33600, Note_on_c, 9, 35, 0
6, 33600, Note_on_c, 9, 55, 100
6, 33600, Note_on_c, 9, 35, 100
6, 33660, Note_on_c, 9, 35, 0
6, 33660, Note_on_c, 9, 55, 0
6, 33660, Note_on_c, 9, 35, 100
6, 33660, Note_on_c, 9, 55, 100
6, 33720, Note_on_c, 9, 55, 0
6, 33720, Note_on_c, 9, 35, 0
6, 33720, Note_on_c, 9, 49, 100
6, 33720, Note_on_c, 9, 38, 100
6, 33720, Note_on_c, 9, 55, 100
6, 33780, Note_on_c, 9, 55, 0
6, 33780, Note_on_c, 9, 38, 0
6, 33780, Note_on_c, 9, 49, 0
6, 33780, Note_on_c, 9, 55, 100
6, 33840, Note_on_c, 9, 55, 0
6, 33840, Note_on_c, 9, 35, 100
6, 33840, Note_on_c, 9, 55, 100
6, 33900, Note_on_c, 9, 55, 0
6, 33900, Note_on_c, 9, 35, 0
6, 33900, Note_on_c, 9, 35, 100
6, 33900, Note_on_c, 9, 55, 100
6, 33960, Note_on_c, 9, 55, 0
6, 33960, Note_on_c, 9, 35, 0
6, 33960, Note_on_c, 9, 49, 100
6, 33960, Note_on_c, 9, 38, 100
6, 33960, Note_on_c, 9, 55, 100
6, 34020, Note_on_c, 9, 55, 0
6, 34020, Note_on_c, 9, 38, 0
6, 34020, Note_on_c, 9, 49, 0
6, 34020, Note_on_c, 9, 55, 100
6, 34080, Note_on_c, 9, 55, 0
6, 34080, Note_on_c, 9, 55, 100
6, 34080, Note_on_c, 9, 35, 100
6, 34140, Note_on_c, 9, 35, 0
6, 34140, Note_on_c, 9, 55, 0
6, 34140, Note_on_c, 9, 35, 100
6, 34140, Note_on_c, 9, 55, 100
6, 34200, Note_on_c, 9, 55, 0
6, 34200, Note_on_c, 9, 35, 0
6, 34200, Note_on_c, 9, 49, 100
6, 34200, Note_on_c, 9, 38, 100
6, 34200, Note_on_c, 9, 55, 100
6, 34260, Note_on_c, 9, 55, 0
6, 34260, Note_on_c, 9, 38, 0
6, 34260, Note_on_c, 9, 49, 0
6, 34260, Note_on_c, 9, 55, 100
6, 34320, Note_on_c, 9, 55, 0
6, 34320, Note_on_c, 9, 35, 100
6, 34320, Note_on_c, 9, 55, 100
6, 34380, Note_on_c, 9, 55, 0
6, 34380, Note_on_c, 9, 35, 0
6, 34380, Note_on_c, 9, 35, 100
6, 34380, Note_on_c, 9, 55, 100
6, 34440, Note_on_c, 9, 55, 0
6, 34440, Note_on_c, 9, 35, 0
6, 34440, Note_on_c, 9, 49, 100
6, 34440, Note_on_c, 9, 38, 100
6, 34440, Note_on_c, 9, 55, 100
6, 34500, Note_on_c, 9, 55, 0
6, 34500, Note_on_c, 9, 38, 0
6, 34500, Note_on_c, 9, 49, 0
6, 34500, Note_on_c, 9, 55, 100
6, 34560, Note_on_c, 9, 55, 0
6, 34560, Note_on_c, 9, 55, 100
6, 34560, Note_on_c, 9, 35, 100
6, 34620, Note_on_c, 9, 35, 0
6, 34620, Note_on_c, 9, 55, 0
6, 34620, Note_on_c, 9, 35, 100
6, 34620, Note_on_c, 9, 55, 100
6, 34680, Note_on_c, 9, 55, 0
6, 34680, Note_on_c, 9, 35, 0
6, 34680, Note_on_c, 9, 49, 100
6, 34680, Note_on_c, 9, 38, 100
6, 34680, Note_on_c, 9, 55, 100
6, 34740, Note_on_c, 9, 55, 0
6, 34740, Note_on_c, 9, 38, 0
6, 34740, Note_on_c, 9, 49, 0
6, 34740, Note_on_c, 9, 55, 100
6, 34800, Note_on_c, 9, 55, 0
6, 34800, Note_on_c, 9, 35, 100
6, 34800, Note_on_c, 9, 55, 100
6, 34860, Note_on_c, 9, 55, 0
6, 34860, Note_on_c, 9, 35, 0
6, 34860, Note_on_c, 9, 35, 100
6, 34860, Note_on_c, 9, 55, 100
6, 34920, Note_on_c, 9, 55, 0
6, 34920, Note_on_c, 9, 35, 0
6, 34920, Note_on_c, 9, 49, 100
6, 34920, Note_on_c, 9, 38, 100
6, 34920, Note_on_c, 9, 55, 100
6, 34980, Note_on_c, 9, 55, 0
6, 34980, Note_on_c, 9, 38, 0
6, 34980, Note_on_c, 9, 49, 0
6, 34980, Note_on_c, 9, 55, 100
6, 35040, Note_on_c, 9, 55, 0
6, 35040, Note_on_c, 9, 55, 100
6, 35040, Note_on_c, 9, 35, 100
6, 35100, Note_on_c, 9, 35, 0
6, 35100, Note_on_c, 9, 55, 0
6, 35100, Note_on_c, 9, 35, 100
6, 35100, Note_on_c, 9, 55, 100
6, 35160, Note_on_c, 9, 55, 0
6, 35160, Note_on_c, 9, 35, 0
6, 35160, Note_on_c, 9, 49, 100
6, 35160, Note_on_c, 9, 38, 100
6, 35160, Note_on_c, 9, 55, 100
6, 35220, Note_on_c, 9, 55, 0
6, 35220, Note_on_c, 9, 38, 0
6, 35220, Note_on_c, 9, 49, 0
6, 35220, Note_on_c, 9, 55, 100
6, 35280, Note_on_c, 9, 55, 0
6, 35280, Note_on_c, 9, 35, 100
6, 35280, Note_on_c, 9, 55, 100
6, 35340, Note_on_c, 9, 55, 0
6, 35340, Note_on_c, 9, 35, 0
6, 35340, Note_on_c, 9, 35, 100
6, 35340, Note_on_c, 9, 55, 100
6, 35400, Note_on_c, 9, 55, 0
6, 35400, Note_on_c, 9, 35, 0
6, 35400, Note_on_c, 9, 49, 100
6, 35400, Note_on_c, 9, 38, 100
6, 35400, Note_on_c, 9, 55, 100
6, 35460, Note_on_c, 9, 55, 0
6, 35460, Note_on_c, 9, 38, 0
6, 35460, Note_on_c, 9, 49, 0
6, 35460, Note_on_c, 9, 55, 100
6, 35520, Note_on_c, 9, 55, 0
6, 35520, Note_on_c, 9, 55, 100
6, 35520, Note_on_c, 9, 35, 100
6, 35580, Note_on_c, 9, 35, 0
6, 35580, Note_on_c, 9, 55, 0
6, 35580, Note_on_c, 9, 35, 100
6, 35580, Note_on_c, 9, 55, 100
6, 35640, Note_on_c, 9, 55, 0
6, 35640, Note_on_c, 9, 35, 0
6, 35640, Note_on_c, 9, 49, 100
6, 35640, Note_on_c, 9, 38, 100
6, 35640, Note_on_c, 9, 55, 100
6, 35700, Note_on_c, 9, 55, 0
6, 35700, Note_on_c, 9, 38, 0
6, 35700, Note_on_c, 9, 49, 0
6, 35700, Note_on_c, 9, 55, 100
6, 35760, Note_on_c, 9, 55, 0
6, 35760, Note_on_c, 9, 35, 100
6, 35760, Note_on_c, 9, 55, 100
6, 35820, Note_on_c, 9, 55, 0
6, 35820, Note_on_c, 9, 35, 0
6, 35820, Note_on_c, 9, 35, 100
6, 35820, Note_on_c, 9, 55, 100
6, 35880, Note_on_c, 9, 55, 0
6, 35880, Note_on_c, 9, 35, 0
6, 35880, Note_on_c, 9, 49, 100
6, 35880, Note_on_c, 9, 38, 100
6, 35880, Note_on_c, 9, 55, 100
6, 35940, Note_on_c, 9, 55, 0
6, 35940, Note_on_c, 9, 38, 0
6, 35940, Note_on_c, 9, 49, 0
6, 35940, Note_on_c, 9, 55, 100
6, 36000, Note_on_c, 9, 55, 0
6, 36000, Note_on_c, 9, 55, 100
6, 36000, Note_on_c, 9, 35, 100
6, 36060, Note_on_c, 9, 35, 0
6, 36060, Note_on_c, 9, 55, 0
6, 36060, Note_on_c, 9, 35, 100
6, 36060, Note_on_c, 9, 55, 100
6, 36120, Note_on_c, 9, 55, 0
6, 36120, Note_on_c, 9, 35, 0
6, 36120, Note_on_c, 9, 49, 100
6, 36120, Note_on_c, 9, 38, 100
6, 36120, Note_on_c, 9, 55, 100
6, 36180, Note_on_c, 9, 55, 0
6, 36180, Note_on_c, 9, 38, 0
6, 36180, Note_on_c, 9, 49, 0
6, 36180, Note_on_c, 9, 55, 100
6, 36240, Note_on_c, 9, 55, 0
6, 36240, Note_on_c, 9, 35, 100
6, 36240, Note_on_c, 9, 55, 100
6, 36300, Note_on_c, 9, 55, 0
6, 36300, Note_on_c, 9, 35, 0
6, 36300, Note_on_c, 9, 35, 100
6, 36300, Note_on_c, 9, 55, 100
6, 36360, Note_on_c, 9, 55, 0
6, 36360, Note_on_c, 9, 35, 0
6, 36360, Note_on_c, 9, 49, 100
6, 36360, Note_on_c, 9, 38, 100
6, 36360, Note_on_c, 9, 55, 100
6, 36420, Note_on_c, 9, 55, 0
6, 36420, Note_on_c, 9, 38, 0
6, 36420, Note_on_c, 9, 49, 0
6, 36420, Note_on_c, 9, 55, 100
6, 36480, Note_on_c, 9, 55, 0
6, 36480, Note_on_c, 9, 55, 100
6, 36480, Note_on_c, 9, 35, 100
6, 36540, Note_on_c, 9, 35, 0
6, 36540, Note_on_c, 9, 55, 0
6, 36540, Note_on_c, 9, 35, 100
6, 36540, Note_on_c, 9, 55, 100
6, 36600, Note_on_c, 9, 55, 0
6, 36600, Note_on_c, 9, 35, 0
6, 36600, Note_on_c, 9, 49, 100
6, 36600, Note_on_c, 9, 38, 100
6, 36600, Note_on_c, 9, 55, 100
6, 36660, Note_on_c, 9, 55, 0
6, 36660, Note_on_c, 9, 38, 0
6, 36660, Note_on_c, 9, 49, 0
6, 36660, Note_on_c, 9, 55, 100
6, 36720, Note_on_c, 9, 55, 0
6, 36720, Note_on_c, 9, 35, 100
6, 36720, Note_on_c, 9, 55, 100
6, 36780, Note_on_c, 9, 55, 0
6, 36780, Note_on_c, 9, 35, 0
6, 36780, Note_on_c, 9, 35, 100
6, 36780, Note_on_c, 9, 55, 100
6, 36840, Note_on_c, 9, 55, 0
6, 36840, Note_on_c, 9, 35, 0
6, 36840, Note_on_c, 9, 49, 100
6, 36840, Note_on_c, 9, 38, 100
6, 36840, Note_on_c, 9, 55, 100
6, 36900, Note_on_c, 9, 55, 0
6, 36900, Note_on_c, 9, 38, 0
6, 36900, Note_on_c, 9, 49, 0
6, 36900, Note_on_c, 9, 55, 100
6, 36960, Note_on_c, 9, 55, 0
6, 36960, Note_on_c, 9, 55, 100
6, 36960, Note_on_c, 9, 35, 100
6, 37020, Note_on_c, 9, 35, 0
6, 37020, Note_on_c, 9, 55, 0
6, 37020, Note_on_c, 9, 35, 100
6, 37020, Note_on_c, 9, 55, 100
6, 37080, Note_on_c, 9, 55, 0
6, 37080, Note_on_c, 9, 35, 0
6, 37080, Note_on_c, 9, 49, 100
6, 37080, Note_on_c, 9, 38, 100
6, 37080, Note_on_c, 9, 55, 100
6, 37140, Note_on_c, 9, 55, 0
6, 37140, Note_on_c, 9, 38, 0
6, 37140, Note_on_c, 9, 49, 0
6, 37140, Note_on_c, 9, 55, 100
6, 37200, Note_on_c, 9, 55, 0
6, 37200, Note_on_c, 9, 35, 100
6, 37200, Note_on_c, 9, 55, 100
6, 37260, Note_on_c, 9, 55, 0
6, 37260, Note_on_c, 9, 35, 0
6, 37260, Note_on_c, 9, 35, 100
6, 37260, Note_on_c, 9, 55, 100
6, 37320, Note_on_c, 9, 55, 0
6, 37320, Note_on_c, 9, 35, 0
6, 37320, Note_on_c, 9, 49, 100
6, 37320, Note_on_c, 9, 38, 100
6, 37320, Note_on_c, 9, 55, 100
6, 37380, Note_on_c, 9, 55, 0
6, 37380, Note_on_c, 9, 38, 0
6, 37380, Note_on_c, 9, 49, 0
6, 37380, Note_on_c, 9, 55, 100
6, 37440, Note_on_c, 9, 55, 0
6, 37440, Note_on_c, 9, 55, 100
6, 37440, Note_on_c, 9, 35, 100
6, 37500, Note_on_c, 9, 35, 0
6, 37500, Note_on_c, 9, 55, 0
6, 37500, Note_on_c, 9, 35, 100
6, 37500, Note_on_c, 9, 55, 100
6, 37560, Note_on_c, 9, 55, 0
6, 37560, Note_on_c, 9, 35, 0
6, 37560, Note_on_c, 9, 49, 100
6, 37560, Note_on_c, 9, 38, 100
6, 37560, Note_on_c, 9, 55, 100
6, 37620, Note_on_c, 9, 55, 0
6, 37620, Note_on_c, 9, 38, 0
6, 37620, Note_on_c, 9, 49, 0
6, 37620, Note_on_c, 9, 55, 100
6, 37680, Note_on_c, 9, 55, 0
6, 37680, Note_on_c, 9, 35, 100
6, 37680, Note_on_c, 9, 55, 100
6, 37740, Note_on_c, 9, 55, 0
6, 37740, Note_on_c, 9, 35, 0
6, 37740, Note_on_c, 9, 35, 100
6, 37740, Note_on_c, 9, 55, 100
6, 37800, Note_on_c, 9, 55, 0
6, 37800, Note_on_c, 9, 35, 0
6, 37800, Note_on_c, 9, 49, 100
6, 37800, Note_on_c, 9, 38, 100
6, 37800, Note_on_c, 9, 55, 100
6, 37860, Note_on_c, 9, 55, 0
6, 37860, Note_on_c, 9, 38, 0
6, 37860, Note_on_c, 9, 49, 0
6, 37860, Note_on_c, 9, 55, 100
6, 37920, Note_on_c, 9, 55, 0
6, 37920, Note_on_c, 9, 55, 100
6, 37920, Note_on_c, 9, 35, 100
6, 37980, Note_on_c, 9, 35, 0
6, 37980, Note_on_c, 9, 55, 0
6, 37980, Note_on_c, 9, 35, 100
6, 37980, Note_on_c, 9, 55, 100
6, 38040, Note_on_c, 9, 55, 0
6, 38040, Note_on_c, 9, 35, 0
6, 38040, Note_on_c, 9, 49, 100
6, 38040, Note_on_c, 9, 38, 100
6, 38040, Note_on_c, 9, 55, 100
6, 38100, Note_on_c, 9, 55, 0
6, 38100, Note_on_c, 9, 38, 0
6, 38100, Note_on_c, 9, 49, 0
6, 38100, Note_on_c, 9, 55, 100
6, 38160, Note_on_c, 9, 55, 0
6, 38160, Note_on_c, 9, 35, 100
6, 38160, Note_on_c, 9, 55, 100
6, 38220, Note_on_c, 9, 55, 0
6, 38220, Note_on_c, 9, 35, 0
6, 38220, Note_on_c, 9, 35, 100
6, 38220, Note_on_c, 9, 55, 100
6, 38280, Note_on_c, 9, 55, 0
6, 38280, Note_on_c, 9, 35, 0
6, 38280, Note_on_c, 9, 49, 100
6, 38280, Note_on_c, 9, 38, 100
6, 38280, Note_on_c, 9, 55, 100
6, 38340, Note_on_c, 9, 55, 0
6, 38340, Note_on_c, 9, 38, 0
6, 38340, Note_on_c, 9, 49, 0
6, 38340, Note_on_c, 9, 55, 100
6, 38400, Note_on_c, 9, 55, 0
6, 38400, Note_on_c, 9, 55, 100
6, 38400, Note_on_c, 9, 35, 100
6, 38460, Note_on_c, 9, 35, 0
6, 38460, Note_on_c, 9, 55, 0
6, 38460, Note_on_c, 9, 35, 100
6, 38460, Note_on_c, 9, 55, 100
6, 38520, Note_on_c, 9, 55, 0
6, 38520, Note_on_c, 9, 35, 0
6, 38520, Note_on_c, 9, 49, 100
6, 38520, Note_on_c, 9, 38, 100
6, 38520, Note_on_c, 9, 55, 100
6, 38580, Note_on_c, 9, 55, 0
6, 38580, Note_on_c, 9, 38, 0
6, 38580, Note_on_c, 9, 49, 0
6, 38580, Note_on_c, 9, 55, 100
6, 38640, Note_on_c, 9, 55, 0
6, 38640, Note_on_c, 9, 35, 100
6, 38640, Note_on_c, 9, 55, 100
6, 38700, Note_on_c, 9, 55, 0
6, 38700, Note_on_c, 9, 35, 0
6, 38700, Note_on_c, 9, 35, 100
6, 38700, Note_on_c, 9, 55, 100
6, 38760, Note_on_c, 9, 55, 0
6, 38760, Note_on_c, 9, 35, 0
6, 38760, Note_on_c, 9, 49, 100
6, 38760, Note_on_c, 9, 38, 100
6, 38760, Note_on_c, 9, 55, 100
6, 38820, Note_on_c, 9, 55, 0
6, 38820, Note_on_c, 9, 38, 0
6, 38820, Note_on_c, 9, 49, 0
6, 38820, Note_on_c, 9, 55, 100
6, 38880, Note_on_c, 9, 55, 0
6, 38880, Note_on_c, 9, 55, 100
6, 38880, Note_on_c, 9, 35, 100
6, 38940, Note_on_c, 9, 35, 0
6, 38940, Note_on_c, 9, 55, 0
6, 38940, Note_on_c, 9, 35, 100
6, 38940, Note_on_c, 9, 55, 100
6, 39000, Note_on_c, 9, 55, 0
6, 39000, Note_on_c, 9, 35, 0
6, 39000, Note_on_c, 9, 49, 100
6, 39000, Note_on_c, 9, 38, 100
6, 39000, Note_on_c, 9, 55, 100
6, 39060, Note_on_c, 9, 55, 0
6, 39060, Note_on_c, 9, 38, 0
6, 39060, Note_on_c, 9, 49, 0
6, 39060, Note_on_c, 9, 55, 100
6, 39120, Note_on_c, 9, 55, 0
6, 39120, Note_on_c, 9, 35, 100
6, 39120, Note_on_c, 9, 55, 100
6, 39180, Note_on_c, 9, 55, 0
6, 39180, Note_on_c, 9, 35, 0
6, 39180, Note_on_c, 9, 35, 100
6, 39180, Note_on_c, 9, 55, 100
6, 39240, Note_on_c, 9, 55, 0
6, 39240, Note_on_c, 9, 35, 0
6, 39240, Note_on_c, 9, 49, 100
6, 39240, Note_on_c, 9, 38, 100
6, 39240, Note_on_c, 9, 55, 100
6, 39300, Note_on_c, 9, 55, 0
6, 39300, Note_on_c, 9, 38, 0
6, 39300, Note_on_c, 9, 49, 0
6, 39300, Note_on_c, 9, 55, 100
6, 39360, Note_on_c, 9, 55, 0
6, 39360, Note_on_c, 9, 55, 100
6, 39360, Note_on_c, 9, 35, 100
6, 39420, Note_on_c, 9, 35, 0
6, 39420, Note_on_c, 9, 55, 0
6, 39420, Note_on_c, 9, 35, 100
6, 39420, Note_on_c, 9, 55, 100
6, 39480, Note_on_c, 9, 55, 0
6, 39480, Note_on_c, 9, 35, 0
6, 39480, Note_on_c, 9, 49, 100
6, 39480, Note_on_c, 9, 38, 100
6, 39480, Note_on_c, 9, 55, 100
6, 39540, Note_on_c, 9, 55, 0
6, 39540, Note_on_c, 9, 38, 0
6, 39540, Note_on_c, 9, 49, 0
6, 39540, Note_on_c, 9, 55, 100
6, 39600, Note_on_c, 9, 55, 0
6, 39600, Note_on_c, 9, 35, 100
6, 39600, Note_on_c, 9, 55, 100
6, 39660, Note_on_c, 9, 55, 0
6, 39660, Note_on_c, 9, 35, 0
6, 39660, Note_on_c, 9, 35, 100
6, 39660, Note_on_c, 9, 55, 100
6, 39720, Note_on_c, 9, 55, 0
6, 39720, Note_on_c, 9, 35, 0
6, 39720, Note_on_c, 9, 49, 100
6, 39720, Note_on_c, 9, 38, 100
6, 39720, Note_on_c, 9, 55, 100
6, 39780, Note_on_c, 9, 55, 0
6, 39780, Note_on_c, 9, 38, 0
6, 39780, Note_on_c, 9, 49, 0
6, 39780, Note_on_c, 9, 55, 100
6, 39840, Note_on_c, 9, 55, 0
6, 39840, Note_on_c, 9, 55, 100
6, 39840, Note_on_c, 9, 35, 100
6, 39900, Note_on_c, 9, 35, 0
6, 39900, Note_on_c, 9, 55, 0
6, 39900, Note_on_c, 9, 35, 100
6, 39900, Note_on_c, 9, 55, 100
6, 39960, Note_on_c, 9, 55, 0
6, 39960, Note_on_c, 9, 35, 0
6, 39960, Note_on_c, 9, 49, 100
6, 39960, Note_on_c, 9, 38, 100
6, 39960, Note_on_c, 9, 55, 100
6, 40020, Note_on_c, 9, 55, 0
6, 40020, Note_on_c, 9, 38, 0
6, 40020, Note_on_c, 9, 49, 0
6, 40020, Note_on_c, 9, 55, 100
6, 40080, Note_on_c, 9, 55, 0
6, 40080, Note_on_c, 9, 35, 100
6, 40080, Note_on_c, 9, 55, 100
6, 40140, Note_on_c, 9, 55, 0
6, 40140, Note_on_c, 9, 35, 0
6, 40140, Note_on_c, 9, 35, 100
6, 40140, Note_on_c, 9, 55, 100
6, 40200, Note_on_c, 9, 55, 0
6, 40200, Note_on_c, 9, 35, 0
6, 40200, Note_on_c, 9, 49, 100
6, 40200, Note_on_c, 9, 38, 100
6, 40200, Note_on_c, 9, 55, 100
6, 40260, Note_on_c, 9, 55, 0
6, 40260, Note_on_c, 9, 38, 0
6, 40260, Note_on_c, 9, 49, 0
6, 40260, Note_on_c, 9, 55, 100
6, 40320, Note_on_c, 9, 55, 0
6, 40320, Note_on_c, 9, 55, 100
6, 40320, Note_on_c, 9, 35, 100
6, 40380, Note_on_c, 9, 35, 0
6, 40380, Note_on_c, 9, 55, 0
6, 40380, Note_on_c, 9, 35, 100
6, 40380, Note_on_c, 9, 55, 100
6, 40440, Note_on_c, 9, 55, 0
6, 40440, Note_on_c, 9, 35, 0
6, 40440, Note_on_c, 9, 49, 100
6, 40440, Note_on_c, 9, 38, 100
6, 40440, Note_on_c, 9, 55, 100
6, 40500, Note_on_c, 9, 55, 0
6, 40500, Note_on_c, 9, 38, 0
6, 40500, Note_on_c, 9, 49, 0
6, 40500, Note_on_c, 9, 55, 100
6, 40560, Note_on_c, 9, 55, 0
6, 40560, Note_on_c, 9, 35, 100
6, 40560, Note_on_c, 9, 55, 100
6, 40620, Note_on_c, 9, 55, 0
6, 40620, Note_on_c, 9, 35, 0
6, 40620, Note_on_c, 9, 35, 100
6, 40620, Note_on_c, 9, 55, 100
6, 40680, Note_on_c, 9, 55, 0
6, 40680, Note_on_c, 9, 35, 0
6, 40680, Note_on_c, 9, 49, 100
6, 40680, Note_on_c, 9, 38, 100
6, 40680, Note_on_c, 9, 55, 100
6, 40740, Note_on_c, 9, 55, 0
6, 40740, Note_on_c, 9, 38, 0
6, 40740, Note_on_c, 9, 49, 0
6, 40740, Note_on_c, 9, 55, 100
6, 40800, Note_on_c, 9, 55, 0
6, 40800, Note_on_c, 9, 55, 100
6, 40800, Note_on_c, 9, 35, 100
6, 40860, Note_on_c, 9, 35, 0
6, 40860, Note_on_c, 9, 55, 0
6, 40860, Note_on_c, 9, 35, 100
6, 40860, Note_on_c, 9, 55, 100
6, 40920, Note_on_c, 9, 55, 0
6, 40920, Note_on_c, 9, 35, 0
6, 40920, Note_on_c, 9, 49, 100
6, 40920, Note_on_c, 9, 38, 100
6, 40920, Note_on_c, 9, 55, 100
6, 40980, Note_on_c, 9, 55, 0
6, 40980, Note_on_c, 9, 38, 0
6, 40980, Note_on_c, 9, 49, 0
6, 40980, Note_on_c, 9, 55, 100
6, 41040, Note_on_c, 9, 55, 0
6, 41040, Note_on_c, 9, 35, 100
6, 41040, Note_on_c, 9, 55, 100
6, 41100, Note_on_c, 9, 55, 0
6, 41100, Note_on_c, 9, 35, 0
6, 41100, Note_on_c, 9, 35, 100
6, 41100, Note_on_c, 9, 55, 100
6, 41160, Note_on_c, 9, 55, 0
6, 41160, Note_on_c, 9, 35, 0
6, 41160, Note_on_c, 9, 49, 100
6, 41160, Note_on_c, 9, 38, 100
6, 41160, Note_on_c, 9, 55, 100
6, 41220, Note_on_c, 9, 55, 0
6, 41220, Note_on_c, 9, 38, 0
6, 41220, Note_on_c, 9, 49, 0
6, 41220, Note_on_c, 9, 55, 100
6, 41280, Note_on_c, 9, 55, 0
6, 41280, Note_on_c, 9, 42, 100
6, 41280, Note_on_c, 9, 35, 100
6, 41340, Note_on_c, 9, 42, 0
6, 41340, Note_on_c, 9, 42, 100
6, 41340, Note_on_c, 9, 35, 100
6, 41400, Note_on_c, 9, 35, 0
6, 41400, Note_on_c, 9, 42, 0
6, 41400, Note_on_c, 9, 35, 0
6, 41400, Note_on_c, 9, 42, 100
6, 41400, Note_on_c, 9, 38, 100
6, 41460, Note_on_c, 9, 38, 0
6, 41460, Note_on_c, 9, 42, 0
6, 41460, Note_on_c, 9, 42, 100
6, 41520, Note_on_c, 9, 42, 0
6, 41520, Note_on_c, 9, 42, 100
6, 41520, Note_on_c, 9, 35, 100
6, 41580, Note_on_c, 9, 35, 0
6, 41580, Note_on_c, 9, 42, 0
6, 41580, Note_on_c, 9, 42, 100
6, 41580, Note_on_c, 9, 35, 100
6, 41640, Note_on_c, 9, 35, 0
6, 41640, Note_on_c, 9, 42, 0
6, 41640, Note_on_c, 9, 42, 100
6, 41640, Note_on_c, 9, 38, 100
6, 41700, Note_on_c, 9, 38, 0
6, 41700, Note_on_c, 9, 42, 0
6, 41700, Note_on_c, 9, 42, 100
6, 41760, Note_on_c, 9, 42, 0
6, 41760, Note_on_c, 9, 42, 100
6, 41760, Note_on_c, 9, 35, 100
6, 41820, Note_on_c, 9, 35, 0
6, 41820, Note_on_c, 9, 42, 0
6, 41820, Note_on_c, 9, 42, 100
6, 41820, Note_on_c, 9, 35, 100
6, 41880, Note_on_c, 9, 35, 0
6, 41880, Note_on_c, 9, 42, 0
6, 41880, Note_on_c, 9, 42, 100
6, 41880, Note_on_c, 9, 38, 100
6, 41940, Note_on_c, 9, 38, 0
6, 41940, Note_on_c, 9, 42, 0
6, 41940, Note_on_c, 9, 42, 100
6, 42000, Note_on_c, 9, 42, 0
6, 42000, Note_on_c, 9, 42, 100
6, 42000, Note_on_c, 9, 35, 100
6, 42060, Note_on_c, 9, 35, 0
6, 42060, Note_on_c, 9, 42, 0
6, 42060, Note_on_c, 9, 42, 100
6, 42060, Note_on_c, 9, 35, 100
6, 42120, Note_on_c, 9, 35, 0
6, 42120, Note_on_c, 9, 42, 0
6, 42120, Note_on_c, 9, 42, 100
6, 42120, Note_on_c, 9, 38, 100
6, 42180, Note_on_c, 9, 38, 0
6, 42180, Note_on_c, 9, 42, 0
6, 42180, Note_on_c, 9, 42, 100
6, 42240, Note_on_c, 9, 42, 0
6, 42240, Note_on_c, 9, 42, 100
6, 42240, Note_on_c, 9, 35, 100
6, 42300, Note_on_c, 9, 42, 0
6, 42300, Note_on_c, 9, 42, 100
6, 42300, Note_on_c, 9, 35, 100
6, 42360, Note_on_c, 9, 35, 0
6, 42360, Note_on_c, 9, 42, 0
6, 42360, Note_on_c, 9, 35, 0
6, 42360, Note_on_c, 9, 42, 100
6, 42360, Note_on_c, 9, 38, 100
6, 42420, Note_on_c, 9, 38, 0
6, 42420, Note_on_c, 9, 42, 0
6, 42420, Note_on_c, 9, 42, 100
6, 42480, Note_on_c, 9, 42, 0
6, 42480, Note_on_c, 9, 42, 100
6, 42480, Note_on_c, 9, 35, 100
6, 42540, Note_on_c, 9, 35, 0
6, 42540, Note_on_c, 9, 42, 0
6, 42540, Note_on_c, 9, 42, 100
6, 42540, Note_on_c, 9, 35, 100
6, 42600, Note_on_c, 9, 35, 0
6, 42600, Note_on_c, 9, 42, 0
6, 42600, Note_on_c, 9, 42, 100
6, 42600, Note_on_c, 9, 38, 100
6, 42660, Note_on_c, 9, 38, 0
6, 42660, Note_on_c, 9, 42, 0
6, 42660, Note_on_c, 9, 42, 100
6, 42720, Note_on_c, 9, 42, 0
6, 42720, Note_on_c, 9, 42, 100
6, 42720, Note_on_c, 9, 35, 100
6, 42780, Note_on_c, 9, 35, 0
6, 42780, Note_on_c, 9, 42, 0
6, 42780, Note_on_c, 9, 42, 100
6, 42780, Note_on_c, 9, 35, 100
6, 42840, Note_on_c, 9, 35, 0
6, 42840, Note_on_c, 9, 42, 0
6, 42840, Note_on_c, 9, 42, 100
6, 42840, Note_on_c, 9, 38, 100
6, 42900, Note_on_c, 9, 38, 0
6, 42900, Note_on_c, 9, 42, 0
6, 42900, Note_on_c, 9, 42, 100
6, 42960, Note_on_c, 9, 42, 0
6, 42960, Note_on_c, 9, 42, 100
6, 42960, Note_on_c, 9, 35, 100
6, 43020, Note_on_c, 9, 35, 0
6, 43020, Note_on_c, 9, 42, 0
6, 43020, Note_on_c, 9, 42, 100
6, 43020, Note_on_c, 9, 35, 100
6, 43080, Note_on_c, 9, 35, 0
6, 43080, Note_on_c, 9, 42, 0
6, 43080, Note_on_c, 9, 42, 100
6, 43080, Note_on_c, 9, 38, 100
6, 43140, Note_on_c, 9, 38, 0
6, 43140, Note_on_c, 9, 42, 0
6, 43140, Note_on_c, 9, 42, 100
6, 43200, Note_on_c, 9, 42, 0
6, 43200, Note_on_c, 9, 42, 100
6, 43200, Note_on_c, 9, 35, 100
6, 43260, Note_on_c, 9, 42, 0
6, 43260, Note_on_c, 9, 42, 100
6, 43260, Note_on_c, 9, 35, 100
6, 43320, Note_on_c, 9, 35, 0
6, 43320, Note_on_c, 9, 42, 0
6, 43320, Note_on_c, 9, 35, 0
6, 43320, Note_on_c, 9, 42, 100
6, 43320, Note_on_c, 9, 38, 100
6, 43380, Note_on_c, 9, 38, 0
6, 43380, Note_on_c, 9, 42, 0
6, 43380, Note_on_c, 9, 42, 100
6, 43440, Note_on_c, 9, 42, 0
6, 43440, Note_on_c, 9, 42, 100
6, 43440, Note_on_c, 9, 35, 100
6, 43500, Note_on_c, 9, 35, 0
6, 43500, Note_on_c, 9, 42, 0
6, 43500, Note_on_c, 9, 42, 100
6, 43500, Note_on_c, 9, 35, 100
6, 43560, Note_on_c, 9, 35, 0
6, 43560, Note_on_c, 9, 42, 0
6, 43560, Note_on_c, 9, 42, 100
6, 43560, Note_on_c, 9, 38, 100
6, 43620, Note_on_c, 9, 38, 0
6, 43620, Note_on_c, 9, 42, 0
6, 43620, Note_on_c, 9, 42, 100
6, 43680, Note_on_c, 9, 42, 0
6, 43680, Note_on_c, 9, 42, 100
6, 43680, Note_on_c, 9, 35, 100
6, 43740, Note_on_c, 9, 35, 0
6, 43740, Note_on_c, 9, 42, 0
6, 43740, Note_on_c, 9, 42, 100
6, 43740, Note_on_c, 9, 35, 100
6, 43800, Note_on_c, 9, 35, 0
6, 43800, Note_on_c, 9, 42, 0
6, 43800, Note_on_c, 9, 42, 100
6, 43800, Note_on_c, 9, 38, 100
6, 43860, Note_on_c, 9, 38, 0
6, 43860, Note_on_c, 9, 42, 0
6, 43860, Note_on_c, 9, 42, 100
6, 43920, Note_on_c, 9, 42, 0
6, 43920, Note_on_c, 9, 42, 100
6, 43920, Note_on_c, 9, 35, 100
6, 43980, Note_on_c, 9, 35, 0
6, 43980, Note_on_c, 9, 42, 0
6, 43980, Note_on_c, 9, 42, 100
6, 43980, Note_on_c, 9, 35, 100
6, 44025, Note_on_c, 9, 38, 100
6, 44040, Note_on_c, 9, 38, 0
6, 44040, Note_on_c, 9, 35, 0
6, 44040, Note_on_c, 9, 42, 0
6, 44040, Note_on_c, 9, 42, 100
6, 44040, Note_on_c, 9, 38, 100
6, 44100, Note_on_c, 9, 38, 0
6, 44100, Note_on_c, 9, 42, 0
6, 44160, Note_on_c, 9, 54, 100
6, 44160, Note_on_c, 9, 42, 100
6, 44160, Note_on_c, 9, 35, 100
6, 44160, Note_on_c, 9, 49, 100
6, 44220, Note_on_c, 9, 42, 0
6, 44220, Note_on_c, 9, 54, 0
6, 44220, Note_on_c, 9, 54, 100
6, 44220, Note_on_c, 9, 35, 100
6, 44220, Note_on_c, 9, 42, 100
6, 44280, Note_on_c, 9, 42, 0
6, 44280, Note_on_c, 9, 54, 0
6, 44280, Note_on_c, 9, 49, 0
6, 44280, Note_on_c, 9, 35, 0
6, 44280, Note_on_c, 9, 35, 0
6, 44280, Note_on_c, 9, 54, 100
6, 44280, Note_on_c, 9, 38, 100
6, 44280, Note_on_c, 9, 42, 100
6, 44340, Note_on_c, 9, 42, 0
6, 44340, Note_on_c, 9, 38, 0
6, 44340, Note_on_c, 9, 54, 0
6, 44340, Note_on_c, 9, 54, 100
6, 44340, Note_on_c, 9, 42, 100
6, 44400, Note_on_c, 9, 42, 0
6, 44400, Note_on_c, 9, 54, 0
6, 44400, Note_on_c, 9, 54, 100
6, 44400, Note_on_c, 9, 35, 100
6, 44400, Note_on_c, 9, 42, 100
6, 44460, Note_on_c, 9, 42, 0
6, 44460, Note_on_c, 9, 35, 0
6, 44460, Note_on_c, 9, 54, 0
6, 44460, Note_on_c, 9, 54, 100
6, 44460, Note_on_c, 9, 35, 100
6, 44460, Note_on_c, 9, 42, 100
6, 44520, Note_on_c, 9, 42, 0
6, 44520, Note_on_c, 9, 35, 0
6, 44520, Note_on_c, 9, 54, 0
6, 44520, Note_on_c, 9, 54, 100
6, 44520, Note_on_c, 9, 38, 100
6, 44520, Note_on_c, 9, 42, 100
6, 44580, Note_on_c, 9, 42, 0
6, 44580, Note_on_c, 9, 38, 0
6, 44580, Note_on_c, 9, 54, 0
6, 44580, Note_on_c, 9, 54, 100
6, 44580, Note_on_c, 9, 42, 100
6, 44640, Note_on_c, 9, 42, 0
6, 44640, Note_on_c, 9, 54, 0
6, 44640, Note_on_c, 9, 54, 100
6, 44640, Note_on_c, 9, 42, 100
6, 44640, Note_on_c, 9, 35, 100
6, 44700, Note_on_c, 9, 42, 0
6, 44700, Note_on_c, 9, 54, 0
6, 44700, Note_on_c, 9, 54, 100
6, 44700, Note_on_c, 9, 35, 100
6, 44700, Note_on_c, 9, 42, 100
6, 44760, Note_on_c, 9, 42, 0
6, 44760, Note_on_c, 9, 35, 0
6, 44760, Note_on_c, 9, 54, 0
6, 44760, Note_on_c, 9, 35, 0
6, 44760, Note_on_c, 9, 54, 100
6, 44760, Note_on_c, 9, 38, 100
6, 44760, Note_on_c, 9, 42, 100
6, 44820, Note_on_c, 9, 42, 0
6, 44820, Note_on_c, 9, 38, 0
6, 44820, Note_on_c, 9, 54, 0
6, 44820, Note_on_c, 9, 54, 100
6, 44820, Note_on_c, 9, 42, 100
6, 44880, Note_on_c, 9, 42, 0
6, 44880, Note_on_c, 9, 54, 0
6, 44880, Note_on_c, 9, 54, 100
6, 44880, Note_on_c, 9, 35, 100
6, 44880, Note_on_c, 9, 42, 100
6, 44940, Note_on_c, 9, 42, 0
6, 44940, Note_on_c, 9, 35, 0
6, 44940, Note_on_c, 9, 54, 0
6, 44940, Note_on_c, 9, 54, 100
6, 44940, Note_on_c, 9, 35, 100
6, 44940, Note_on_c, 9, 42, 100
6, 45000, Note_on_c, 9, 42, 0
6, 45000, Note_on_c, 9, 35, 0
6, 45000, Note_on_c, 9, 54, 0
6, 45000, Note_on_c, 9, 39, 100
6, 45000, Note_on_c, 9, 54, 100
6, 45000, Note_on_c, 9, 38, 100
6, 45000, Note_on_c, 9, 42, 100
6, 45060, Note_on_c, 9, 42, 0
6, 45060, Note_on_c, 9, 39, 0
6, 45060, Note_on_c, 9, 54, 0
6, 45060, Note_on_c, 9, 38, 0
6, 45060, Note_on_c, 9, 39, 100
6, 45060, Note_on_c, 9, 54, 100
6, 45060, Note_on_c, 9, 46, 100
6, 45120, Note_on_c, 9, 46, 0
6, 45120, Note_on_c, 9, 54, 0
6, 45120, Note_on_c, 9, 39, 0
6, 45120, Note_on_c, 9, 54, 100
6, 45120, Note_on_c, 9, 42, 100
6, 45120, Note_on_c, 9, 35, 100
6, 45180, Note_on_c, 9, 42, 0
6, 45180, Note_on_c, 9, 54, 0
6, 45180, Note_on_c, 9, 54, 100
6, 45180, Note_on_c, 9, 35, 100
6, 45180, Note_on_c, 9, 42, 100
6, 45240, Note_on_c, 9, 42, 0
6, 45240, Note_on_c, 9, 35, 0
6, 45240, Note_on_c, 9, 54, 0
6, 45240, Note_on_c, 9, 35, 0
6, 45240, Note_on_c, 9, 54, 100
6, 45240, Note_on_c, 9, 38, 100
6, 45240, Note_on_c, 9, 42, 100
6, 45300, Note_on_c, 9, 42, 0
6, 45300, Note_on_c, 9, 38, 0
6, 45300, Note_on_c, 9, 54, 0
6, 45300, Note_on_c, 9, 54, 100
6, 45300, Note_on_c, 9, 42, 100
6, 45360, Note_on_c, 9, 42, 0
6, 45360, Note_on_c, 9, 54, 0
6, 45360, Note_on_c, 9, 54, 100
6, 45360, Note_on_c, 9, 35, 100
6, 45360, Note_on_c, 9, 42, 100
6, 45420, Note_on_c, 9, 42, 0
6, 45420, Note_on_c, 9, 35, 0
6, 45420, Note_on_c, 9, 54, 0
6, 45420, Note_on_c, 9, 54, 100
6, 45420, Note_on_c, 9, 35, 100
6, 45420, Note_on_c, 9, 42, 100
6, 45480, Note_on_c, 9, 42, 0
6, 45480, Note_on_c, 9, 35, 0
6, 45480, Note_on_c, 9, 54, 0
6, 45480, Note_on_c, 9, 39, 100
6, 45480, Note_on_c, 9, 54, 100
6, 45480, Note_on_c, 9, 38, 100
6, 45480, Note_on_c, 9, 42, 100
6, 45540, Note_on_c, 9, 42, 0
6, 45540, Note_on_c, 9, 39, 0
6, 45540, Note_on_c, 9, 54, 0
6, 45540, Note_on_c, 9, 38, 0
6, 45540, Note_on_c, 9, 39, 100
6, 45540, Note_on_c, 9, 54, 100
6, 45540, Note_on_c, 9, 42, 100
6, 45600, Note_on_c, 9, 42, 0
6, 45600, Note_on_c, 9, 54, 0
6, 45600, Note_on_c, 9, 39, 0
6, 45600, Note_on_c, 9, 54, 100
6, 45600, Note_on_c, 9, 42, 100
6, 45600, Note_on_c, 9, 35, 100
6, 45660, Note_on_c, 9, 42, 0
6, 45660, Note_on_c, 9, 54, 0
6, 45660, Note_on_c, 9, 54, 100
6, 45660, Note_on_c, 9, 35, 100
6, 45660, Note_on_c, 9, 42, 100
6, 45720, Note_on_c, 9, 42, 0
6, 45720, Note_on_c, 9, 35, 0
6, 45720, Note_on_c, 9, 54, 0
6, 45720, Note_on_c, 9, 35, 0
6, 45720, Note_on_c, 9, 54, 100
6, 45720, Note_on_c, 9, 38, 100
6, 45720, Note_on_c, 9, 42, 100
6, 45780, Note_on_c, 9, 42, 0
6, 45780, Note_on_c, 9, 38, 0
6, 45780, Note_on_c, 9, 54, 0
6, 45780, Note_on_c, 9, 54, 100
6, 45780, Note_on_c, 9, 42, 100
6, 45840, Note_on_c, 9, 42, 0
6, 45840, Note_on_c, 9, 54, 0
6, 45840, Note_on_c, 9, 54, 100
6, 45840, Note_on_c, 9, 35, 100
6, 45840, Note_on_c, 9, 42, 100
6, 45900, Note_on_c, 9, 42, 0
6, 45900, Note_on_c, 9, 35, 0
6, 45900, Note_on_c, 9, 54, 0
6, 45900, Note_on_c, 9, 54, 100
6, 45900, Note_on_c, 9, 35, 100
6, 45900, Note_on_c, 9, 42, 100
6, 45960, Note_on_c, 9, 42, 0
6, 45960, Note_on_c, 9, 35, 0
6, 45960, Note_on_c, 9, 54, 0
6, 45960, Note_on_c, 9, 39, 100
6, 45960, Note_on_c, 9, 54, 100
6, 45960, Note_on_c, 9, 38, 100
6, 45960, Note_on_c, 9, 42, 100
6, 46020, Note_on_c, 9, 42, 0
6, 46020, Note_on_c, 9, 39, 0
6, 46020, Note_on_c, 9, 54, 0
6, 46020, Note_on_c, 9, 38, 0
6, 46020, Note_on_c, 9, 39, 100
6, 46020, Note_on_c, 9, 54, 100
6, 46020, Note_on_c, 9, 46, 100
6, 46080, Note_on_c, 9, 46, 0
6, 46080, Note_on_c, 9, 54, 0
6, 46080, Note_on_c, 9, 39, 0
6, 46080, Note_on_c, 9, 54, 100
6, 46080, Note_on_c, 9, 42, 100
6, 46080, Note_on_c, 9, 35, 100
6, 46080, Note_on_c, 9, 49, 100
6, 46140, Note_on_c, 9, 42, 0
6, 46140, Note_on_c, 9, 54, 0
6, 46140, Note_on_c, 9, 54, 100
6, 46140, Note_on_c, 9, 35, 100
6, 46140, Note_on_c, 9, 42, 100
6, 46200, Note_on_c, 9, 42, 0
6, 46200, Note_on_c, 9, 54, 0
6, 46200, Note_on_c, 9, 49, 0
6, 46200, Note_on_c, 9, 35, 0
6, 46200, Note_on_c, 9, 35, 0
6, 46200, Note_on_c, 9, 54, 100
6, 46200, Note_on_c, 9, 38, 100
6, 46200, Note_on_c, 9, 42, 100
6, 46260, Note_on_c, 9, 42, 0
6, 46260, Note_on_c, 9, 38, 0
6, 46260, Note_on_c, 9, 54, 0
6, 46260, Note_on_c, 9, 54, 100
6, 46260, Note_on_c, 9, 42, 100
6, 46320, Note_on_c, 9, 42, 0
6, 46320, Note_on_c, 9, 54, 0
6, 46320, Note_on_c, 9, 54, 100
6, 46320, Note_on_c, 9, 35, 100
6, 46320, Note_on_c, 9, 42, 100
6, 46380, Note_on_c, 9, 42, 0
6, 46380, Note_on_c, 9, 35, 0
6, 46380, Note_on_c, 9, 54, 0
6, 46380, Note_on_c, 9, 54, 100
6, 46380, Note_on_c, 9, 35, 100
6, 46380, Note_on_c, 9, 42, 100
6, 46440, Note_on_c, 9, 42, 0
6, 46440, Note_on_c, 9, 35, 0
6, 46440, Note_on_c, 9, 54, 0
6, 46440, Note_on_c, 9, 54, 100
6, 46440, Note_on_c, 9, 38, 100
6, 46440, Note_on_c, 9, 42, 100
6, 46500, Note_on_c, 9, 42, 0
6, 46500, Note_on_c, 9, 38, 0
6, 46500, Note_on_c, 9, 54, 0
6, 46500, Note_on_c, 9, 54, 100
6, 46500, Note_on_c, 9, 42, 100
6, 46560, Note_on_c, 9, 42, 0
6, 46560, Note_on_c, 9, 54, 0
6, 46560, Note_on_c, 9, 54, 100
6, 46560, Note_on_c, 9, 42, 100
6, 46560, Note_on_c, 9, 35, 100
6, 46620, Note_on_c, 9, 42, 0
6, 46620, Note_on_c, 9, 54, 0
6, 46620, Note_on_c, 9, 54, 100
6, 46620, Note_on_c, 9, 35, 100
6, 46620, Note_on_c, 9, 42, 100
6, 46680, Note_on_c, 9, 42, 0
6, 46680, Note_on_c, 9, 35, 0
6, 46680, Note_on_c, 9, 54, 0
6, 46680, Note_on_c, 9, 35, 0
6, 46680, Note_on_c, 9, 54, 100
6, 46680, Note_on_c, 9, 38, 100
6, 46680, Note_on_c, 9, 42, 100
6, 46740, Note_on_c, 9, 42, 0
6, 46740, Note_on_c, 9, 38, 0
6, 46740, Note_on_c, 9, 54, 0
6, 46740, Note_on_c, 9, 54, 100
6, 46740, Note_on_c, 9, 42, 100
6, 46800, Note_on_c, 9, 42, 0
6, 46800, Note_on_c, 9, 54, 0
6, 46800, Note_on_c, 9, 54, 100
6, 46800, Note_on_c, 9, 35, 100
6, 46800, Note_on_c, 9, 42, 100
6, 46860, Note_on_c, 9, 42, 0
6, 46860, Note_on_c, 9, 35, 0
6, 46860, Note_on_c, 9, 54, 0
6, 46860, Note_on_c, 9, 54, 100
6, 46860, Note_on_c, 9, 35, 100
6, 46860, Note_on_c, 9, 42, 100
6, 46920, Note_on_c, 9, 42, 0
6, 46920, Note_on_c, 9, 35, 0
6, 46920, Note_on_c, 9, 54, 0
6, 46920, Note_on_c, 9, 39, 100
6, 46920, Note_on_c, 9, 54, 100
6, 46920, Note_on_c, 9, 38, 100
6, 46920, Note_on_c, 9, 42, 100
6, 46980, Note_on_c, 9, 42, 0
6, 46980, Note_on_c, 9, 39, 0
6, 46980, Note_on_c, 9, 54, 0
6, 46980, Note_on_c, 9, 38, 0
6, 46980, Note_on_c, 9, 39, 100
6, 46980, Note_on_c, 9, 54, 100
6, 46980, Note_on_c, 9, 46, 100
6, 47040, Note_on_c, 9, 46, 0
6, 47040, Note_on_c, 9, 54, 0
6, 47040, Note_on_c, 9, 39, 0
6, 47040, Note_on_c, 9, 54, 100
6, 47040, Note_on_c, 9, 42, 100
6, 47040, Note_on_c, 9, 35, 100
6, 47100, Note_on_c, 9, 42, 0
6, 47100, Note_on_c, 9, 54, 0
6, 47100, Note_on_c, 9, 54, 100
6, 47100, Note_on_c, 9, 35, 100
6, 47100, Note_on_c, 9, 42, 100
6, 47160, Note_on_c, 9, 42, 0
6, 47160, Note_on_c, 9, 35, 0
6, 47160, Note_on_c, 9, 54, 0
6, 47160, Note_on_c, 9, 35, 0
6, 47160, Note_on_c, 9, 54, 100
6, 47160, Note_on_c, 9, 38, 100
6, 47160, Note_on_c, 9, 42, 100
6, 47220, Note_on_c, 9, 42, 0
6, 47220, Note_on_c, 9, 38, 0
6, 47220, Note_on_c, 9, 54, 0
6, 47220, Note_on_c, 9, 54, 100
6, 47220, Note_on_c, 9, 42, 100
6, 47280, Note_on_c, 9, 42, 0
6, 47280, Note_on_c, 9, 54, 0
6, 47280, Note_on_c, 9, 54, 100
6, 47280, Note_on_c, 9, 35, 100
6, 47280, Note_on_c, 9, 42, 100
6, 47340, Note_on_c, 9, 42, 0
6, 47340, Note_on_c, 9, 35, 0
6, 47340, Note_on_c, 9, 54, 0
6, 47340, Note_on_c, 9, 54, 100
6, 47340, Note_on_c, 9, 35, 100
6, 47340, Note_on_c, 9, 42, 100
6, 47400, Note_on_c, 9, 42, 0
6, 47400, Note_on_c, 9, 35, 0
6, 47400, Note_on_c, 9, 54, 0
6, 47400, Note_on_c, 9, 39, 100
6, 47400, Note_on_c, 9, 54, 100
6, 47400, Note_on_c, 9, 38, 100
6, 47400, Note_on_c, 9, 42, 100
6, 47460, Note_on_c, 9, 42, 0
6, 47460, Note_on_c, 9, 39, 0
6, 47460, Note_on_c, 9, 54, 0
6, 47460, Note_on_c, 9, 38, 0
6, 47460, Note_on_c, 9, 39, 100
6, 47460, Note_on_c, 9, 54, 100
6, 47460, Note_on_c, 9, 42, 100
6, 47520, Note_on_c, 9, 42, 0
6, 47520, Note_on_c, 9, 54, 0
6, 47520, Note_on_c, 9, 39, 0
6, 47520, Note_on_c, 9, 54, 100
6, 47520, Note_on_c, 9, 42, 100
6, 47520, Note_on_c, 9, 35, 100
6, 47580, Note_on_c, 9, 42, 0
6, 47580, Note_on_c, 9, 54, 0
6, 47580, Note_on_c, 9, 54, 100
6, 47580, Note_on_c, 9, 35, 100
6, 47580, Note_on_c, 9, 42, 100
6, 47640, Note_on_c, 9, 42, 0
6, 47640, Note_on_c, 9, 35, 0
6, 47640, Note_on_c, 9, 54, 0
6, 47640, Note_on_c, 9, 35, 0
6, 47640, Note_on_c, 9, 54, 100
6, 47640, Note_on_c, 9, 38, 100
6, 47640, Note_on_c, 9, 42, 100
6, 47700, Note_on_c, 9, 42, 0
6, 47700, Note_on_c, 9, 38, 0
6, 47700, Note_on_c, 9, 54, 0
6, 47700, Note_on_c, 9, 54, 100
6, 47700, Note_on_c, 9, 42, 100
6, 47760, Note_on_c, 9, 42, 0
6, 47760, Note_on_c, 9, 54, 0
6, 47760, Note_on_c, 9, 54, 100
6, 47760, Note_on_c, 9, 35, 100
6, 47760, Note_on_c, 9, 42, 100
6, 47820, Note_on_c, 9, 42, 0
6, 47820, Note_on_c, 9, 35, 0
6, 47820, Note_on_c, 9, 54, 0
6, 47820, Note_on_c, 9, 54, 100
6, 47820, Note_on_c, 9, 35, 100
6, 47820, Note_on_c, 9, 42, 100
6, 47880, Note_on_c, 9, 42, 0
6, 47880, Note_on_c, 9, 35, 0
6, 47880, Note_on_c, 9, 54, 0
6, 47880, Note_on_c, 9, 39, 100
6, 47880, Note_on_c, 9, 54, 100
6, 47880, Note_on_c, 9, 38, 100
6, 47880, Note_on_c, 9, 42, 100
6, 47940, Note_on_c, 9, 42, 0
6, 47940, Note_on_c, 9, 39, 0
6, 47940, Note_on_c, 9, 54, 0
6, 47940, Note_on_c, 9, 38, 0
6, 47940, Note_on_c, 9, 39, 100
6, 47940, Note_on_c, 9, 54, 100
6, 47940, Note_on_c, 9, 46, 100
6, 48000, Note_on_c, 9, 46, 0
6, 48000, Note_on_c, 9, 54, 0
6, 48000, Note_on_c, 9, 39, 0
6, 48000, Note_on_c, 9, 35, 100
6, 48000, Note_on_c, 9, 41, 100
6, 48060, Note_on_c, 9, 41, 0
6, 48060, Note_on_c, 9, 35, 0
6, 48060, Note_on_c, 9, 35, 100
6, 48060, Note_on_c, 9, 41, 100
6, 48120, Note_on_c, 9, 41, 0
6, 48120, Note_on_c, 9, 35, 0
6, 48120, Note_on_c, 9, 35, 100
6, 48120, Note_on_c, 9, 41, 100
6, 48180, Note_on_c, 9, 41, 0
6, 48180, Note_on_c, 9, 35, 0
6, 48180, Note_on_c, 9, 35, 100
6, 48180, Note_on_c, 9, 41, 100
6, 48240, Note_on_c, 9, 41, 0
6, 48240, Note_on_c, 9, 35, 0
6, 48240, Note_on_c, 9, 35, 100
6, 48240, Note_on_c, 9, 41, 100
6, 48300, Note_on_c, 9, 41, 0
6, 48300, Note_on_c, 9, 35, 0
6, 48300, Note_on_c, 9, 35, 100
6, 48300, Note_on_c, 9, 41, 100
6, 48360, Note_on_c, 9, 41, 0
6, 48360, Note_on_c, 9, 35, 0
6, 48360, Note_on_c, 9, 35, 100
6, 48360, Note_on_c, 9, 41, 100
6, 48420, Note_on_c, 9, 41, 0
6, 48420, Note_on_c, 9, 35, 0
6, 48420, Note_on_c, 9, 35, 100
6, 48420, Note_on_c, 9, 41, 100
6, 48480, Note_on_c, 9, 41, 0
6, 48480, Note_on_c, 9, 35, 0
6, 48480, Note_on_c, 9, 55, 100
6, 48480, Note_on_c, 9, 35, 100
6, 48540, Note_on_c, 9, 35, 0
6, 48540, Note_on_c, 9, 55, 0
6, 48540, Note_on_c, 9, 35, 100
6, 48600, Note_on_c, 9, 35, 0
6, 48600, Note_on_c, 9, 49, 100
6, 48600, Note_on_c, 9, 38, 100
6, 48600, Note_on_c, 9, 55, 100
6, 48660, Note_on_c, 9, 55, 0
6, 48660, Note_on_c, 9, 38, 0
6, 48660, Note_on_c, 9, 49, 0
6, 48720, Note_on_c, 9, 35, 100
6, 48720, Note_on_c, 9, 55, 100
6, 48780, Note_on_c, 9, 55, 0
6, 48780, Note_on_c, 9, 35, 0
6, 48780, Note_on_c, 9, 35, 100
6, 48840, Note_on_c, 9, 35, 0
6, 48840, Note_on_c, 9, 49, 100
6, 48840, Note_on_c, 9, 38, 100
6, 48840, Note_on_c, 9, 55, 100
6, 48900, Note_on_c, 9, 55, 0
6, 48900, Note_on_c, 9, 38, 0
6, 48900, Note_on_c, 9, 49, 0
6, 48960, Note_on_c, 9, 55, 100
6, 48960, Note_on_c, 9, 35, 100
6, 49020, Note_on_c, 9, 35, 0
6, 49020, Note_on_c, 9, 55, 0
6, 49020, Note_on_c, 9, 35, 100
6, 49080, Note_on_c, 9, 35, 0
6, 49080, Note_on_c, 9, 49, 100
6, 49080, Note_on_c, 9, 38, 100
6, 49080, Note_on_c, 9, 55, 100
6, 49140, Note_on_c, 9, 55, 0
6, 49140, Note_on_c, 9, 38, 0
6, 49140, Note_on_c, 9, 49, 0
6, 49200, Note_on_c, 9, 35, 100
6, 49200, Note_on_c, 9, 55, 100
6, 49260, Note_on_c, 9, 55, 0
6, 49260, Note_on_c, 9, 35, 0
6, 49260, Note_on_c, 9, 35, 100
6, 49320, Note_on_c, 9, 35, 0
6, 49320, Note_on_c, 9, 49, 100
6, 49320, Note_on_c, 9, 38, 100
6, 49320, Note_on_c, 9, 55, 100
6, 49380, Note_on_c, 9, 55, 0
6, 49380, Note_on_c, 9, 38, 0
6, 49380, Note_on_c, 9, 49, 0
6, 49380, Note_on_c, 9, 55, 100
6, 49440, Note_on_c, 9, 55, 0
6, 49440, Note_on_c, 9, 35, 100
6, 49440, Note_on_c, 9, 41, 100
6, 49500, Note_on_c, 9, 41, 0
6, 49500, Note_on_c, 9, 35, 0
6, 49500, Note_on_c, 9, 35, 100
6, 49500, Note_on_c, 9, 41, 100
6, 49560, Note_on_c, 9, 41, 0
6, 49560, Note_on_c, 9, 35, 0
6, 49560, Note_on_c, 9, 35, 100
6, 49560, Note_on_c, 9, 41, 100
6, 49620, Note_on_c, 9, 41, 0
6, 49620, Note_on_c, 9, 35, 0
6, 49620, Note_on_c, 9, 35, 100
6, 49620, Note_on_c, 9, 41, 100
6, 49680, Note_on_c, 9, 41, 0
6, 49680, Note_on_c, 9, 35, 0
6, 49680, Note_on_c, 9, 35, 100
6, 49680, Note_on_c, 9, 41, 100
6, 49740, Note_on_c, 9, 41, 0
6, 49740, Note_on_c, 9, 35, 0
6, 49740, Note_on_c, 9, 35, 100
6, 49740, Note_on_c, 9, 41, 100
6, 49800, Note_on_c, 9, 41, 0
6, 49800, Note_on_c, 9, 35, 0
6, 49800, Note_on_c, 9, 35, 100
6, 49800, Note_on_c, 9, 41, 100
6, 49860, Note_on_c, 9, 41, 0
6, 49860, Note_on_c, 9, 35, 0
6, 49860, Note_on_c, 9, 35, 100
6, 49860, Note_on_c, 9, 41, 100
6, 49920, Note_on_c, 9, 41, 0
6, 49920, Note_on_c, 9, 35, 0
6, 49920, Note_on_c, 9, 55, 100
6, 49920, Note_on_c, 9, 35, 100
6, 49980, Note_on_c, 9, 35, 0
6, 49980, Note_on_c, 9, 55, 0
6, 49980, Note_on_c, 9, 35, 100
6, 50040, Note_on_c, 9, 35, 0
6, 50040, Note_on_c, 9, 49, 100
6, 50040, Note_on_c, 9, 38, 100
6, 50040, Note_on_c, 9, 55, 100
6, 50100, Note_on_c, 9, 55, 0
6, 50100, Note_on_c, 9, 38, 0
6, 50100, Note_on_c, 9, 49, 0
6, 50160, Note_on_c, 9, 35, 100
6, 50160, Note_on_c, 9, 55, 100
6, 50220, Note_on_c, 9, 55, 0
6, 50220, Note_on_c, 9, 35, 0
6, 50220, Note_on_c, 9, 35, 100
6, 50280, Note_on_c, 9, 35, 0
6, 50280, Note_on_c, 9, 49, 100
6, 50280, Note_on_c, 9, 38, 100
6, 50280, Note_on_c, 9, 55, 100
6, 50340, Note_on_c, 9, 55, 0
6, 50340, Note_on_c, 9, 38, 0
6, 50340, Note_on_c, 9, 49, 0
6, 50400, Note_on_c, 9, 55, 100
6, 50400, Note_on_c, 9, 35, 100
6, 50460, Note_on_c, 9, 35, 0
6, 50460, Note_on_c, 9, 55, 0
6, 50460, Note_on_c, 9, 35, 100
6, 50520, Note_on_c, 9, 35, 0
6, 50520, Note_on_c, 9, 49, 100
6, 50520, Note_on_c, 9, 38, 100
6, 50520, Note_on_c, 9, 55, 100
6, 50580, Note_on_c, 9, 55, 0
6, 50580, Note_on_c, 9, 38, 0
6, 50580, Note_on_c, 9, 49, 0
6, 50640, Note_on_c, 9, 35, 100
6, 50640, Note_on_c, 9, 55, 100
6, 50700, Note_on_c, 9, 55, 0
6, 50700, Note_on_c, 9, 35, 0
6, 50700, Note_on_c, 9, 35, 100
6, 50760, Note_on_c, 9, 35, 0
6, 50760, Note_on_c, 9, 49, 100
6, 50760, Note_on_c, 9, 38, 100
6, 50760, Note_on_c, 9, 55, 100
6, 50820, Note_on_c, 9, 55, 0
6, 50820, Note_on_c, 9, 38, 0
6, 50820, Note_on_c, 9, 49, 0
6, 50820, Note_on_c, 9, 55, 100
6, 50880, Note_on_c, 9, 55, 0
6, 50880, Note_on_c, 9, 35, 100
6, 50880, Note_on_c, 9, 41, 100
6, 50940, Note_on_c, 9, 41, 0
6, 50940, Note_on_c, 9, 35, 0
6, 50940, Note_on_c, 9, 35, 100
6, 50940, Note_on_c, 9, 41, 100
6, 51000, Note_on_c, 9, 41, 0
6, 51000, Note_on_c, 9, 35, 0
6, 51000, Note_on_c, 9, 35, 100
6, 51000, Note_on_c, 9, 41, 100
6, 51060, Note_on_c, 9, 41, 0
6, 51060, Note_on_c, 9, 35, 0
6, 51060, Note_on_c, 9, 35, 100
6, 51060, Note_on_c, 9, 41, 100
6, 51120, Note_on_c, 9, 41, 0
6, 51120, Note_on_c, 9, 35, 0
6, 51120, Note_on_c, 9, 35, 100
6, 51120, Note_on_c, 9, 41, 100
6, 51180, Note_on_c, 9, 41, 0
6, 51180, Note_on_c, 9, 35, 0
6, 51180, Note_on_c, 9, 35, 100
6, 51180, Note_on_c, 9, 41, 100
6, 51240, Note_on_c, 9, 41, 0
6, 51240, Note_on_c, 9, 35, 0
6, 51240, Note_on_c, 9, 35, 100
6, 51240, Note_on_c, 9, 41, 100
6, 51300, Note_on_c, 9, 41, 0
6, 51300, Note_on_c, 9, 35, 0
6, 51300, Note_on_c, 9, 35, 100
6, 51300, Note_on_c, 9, 41, 100
6, 51360, Note_on_c, 9, 41, 0
6, 51360, Note_on_c, 9, 35, 0
6, 51360, Note_on_c, 9, 55, 100
6, 51360, Note_on_c, 9, 35, 100
6, 51420, Note_on_c, 9, 35, 0
6, 51420, Note_on_c, 9, 55, 0
6, 51420, Note_on_c, 9, 35, 100
6, 51480, Note_on_c, 9, 35, 0
6, 51480, Note_on_c, 9, 49, 100
6, 51480, Note_on_c, 9, 38, 100
6, 51480, Note_on_c, 9, 55, 100
6, 51540, Note_on_c, 9, 55, 0
6, 51540, Note_on_c, 9, 38, 0
6, 51540, Note_on_c, 9, 49, 0
6, 51600, Note_on_c, 9, 35, 100
6, 51600, Note_on_c, 9, 55, 100
6, 51660, Note_on_c, 9, 55, 0
6, 51660, Note_on_c, 9, 35, 0
6, 51660, Note_on_c, 9, 35, 100
6, 51720, Note_on_c, 9, 35, 0
6, 51720, Note_on_c, 9, 49, 100
6, 51720, Note_on_c, 9, 38, 100
6, 51720, Note_on_c, 9, 55, 100
6, 51780, Note_on_c, 9, 55, 0
6, 51780, Note_on_c, 9, 38, 0
6, 51780, Note_on_c, 9, 49, 0
6, 51840, Note_on_c, 9, 55, 100
6, 51840, Note_on_c, 9, 35, 100
6, 51900, Note_on_c, 9, 35, 0
6, 51900, Note_on_c, 9, 55, 0
6, 51900, Note_on_c, 9, 35, 100
6, 51960, Note_on_c, 9, 35, 0
6, 51960, Note_on_c, 9, 49, 100
6, 51960, Note_on_c, 9, 38, 100
6, 51960, Note_on_c, 9, 55, 100
6, 52020, Note_on_c, 9, 55, 0
6, 52020, Note_on_c, 9, 38, 0
6, 52020, Note_on_c, 9, 49, 0
6, 52080, Note_on_c, 9, 35, 100
6, 52080, Note_on_c, 9, 55, 100
6, 52140, Note_on_c, 9, 55, 0
6, 52140, Note_on_c, 9, 35, 0
6, 52140, Note_on_c, 9, 35, 100
6, 52200, Note_on_c, 9, 35, 0
6, 52200, Note_on_c, 9, 49, 100
6, 52200, Note_on_c, 9, 38, 100
6, 52200, Note_on_c, 9, 55, 100
6, 52260, Note_on_c, 9, 55, 0
6, 52260, Note_on_c, 9, 38, 0
6, 52260, Note_on_c, 9, 49, 0
6, 52260, Note_on_c, 9, 55, 100
6, 52320, Note_on_c, 9, 55, 0
6, 52320, Note_on_c, 9, 35, 100
6, 52320, Note_on_c, 9, 41, 100
6, 52380, Note_on_c, 9, 41, 0
6, 52380, Note_on_c, 9, 35, 0
6, 52380, Note_on_c, 9, 35, 100
6, 52380, Note_on_c, 9, 41, 100
6, 52440, Note_on_c, 9, 41, 0
6, 52440, Note_on_c, 9, 35, 0
6, 52440, Note_on_c, 9, 35, 100
6, 52440, Note_on_c, 9, 41, 100
6, 52500, Note_on_c, 9, 41, 0
6, 52500, Note_on_c, 9, 35, 0
6, 52500, Note_on_c, 9, 35, 100
6, 52500, Note_on_c, 9, 41, 100
6, 52560, Note_on_c, 9, 41, 0
6, 52560, Note_on_c, 9, 35, 0
6, 52560, Note_on_c, 9, 35, 100
6, 52560, Note_on_c, 9, 41, 100
6, 52620, Note_on_c, 9, 41, 0
6, 52620, Note_on_c, 9, 35, 0
6, 52620, Note_on_c, 9, 35, 100
6, 52620, Note_on_c, 9, 41, 100
6, 52680, Note_on_c, 9, 41, 0
6, 52680, Note_on_c, 9, 35, 0
6, 52680, Note_on_c, 9, 35, 100
6, 52680, Note_on_c, 9, 41, 100
6, 52740, Note_on_c, 9, 41, 0
6, 52740, Note_on_c, 9, 35, 0
6, 52740, Note_on_c, 9, 35, 100
6, 52740, Note_on_c, 9, 41, 100
6, 52800, Note_on_c, 9, 41, 0
6, 52800, Note_on_c, 9, 35, 0
6, 52800, Note_on_c, 9, 55, 100
6, 52800, Note_on_c, 9, 49, 100
6, 52800, Note_on_c, 9, 36, 100
6, 53040, Note_on_c, 9, 36, 0
6, 53040, Note_on_c, 9, 49, 0
6, 53040, Note_on_c, 9, 55, 0
6, 53040, End_track
7, 0, Start_track
7, 0, MIDI_port, 0
7, 0, Title_t, "Vocals"
7, 0, Control_c, 4, 0, 0
7, 0, Control_c, 4, 32, 0
7, 0, Program_c, 4, 56
7, 0, Control_c, 4, 7, 127
7, 4740, Note_on_c, 4, 69, 127
7, 4770, Note_on_c, 4, 69, 0
7, 4800, Note_on_c, 4, 69, 127
7, 4860, Note_on_c, 4, 69, 0
7, 4920, Note_on_c, 4, 69, 127
7, 4980, Note_on_c, 4, 69, 0
7, 5040, Note_on_c, 4, 67, 127
7, 5100, Note_on_c, 4, 67, 0
7, 5280, Note_on_c, 4, 69, 127
7, 5340, Note_on_c, 4, 69, 0
7, 5400, Note_on_c, 4, 69, 127
7, 5460, Note_on_c, 4, 69, 0
7, 5520, Note_on_c, 4, 67, 127
7, 5610, Note_on_c, 4, 67, 0
7, 5640, Note_on_c, 4, 67, 127
7, 5670, Note_on_c, 4, 67, 0
7, 5700, Note_on_c, 4, 67, 127
7, 5730, Note_on_c, 4, 67, 0
7, 5760, Note_on_c, 4, 67, 127
7, 5790, Note_on_c, 4, 67, 0
7, 5880, Note_on_c, 4, 69, 127
7, 5910, Note_on_c, 4, 69, 0
7, 5940, Note_on_c, 4, 69, 127
7, 5970, Note_on_c, 4, 69, 0
7, 6660, Note_on_c, 4, 69, 127
7, 6690, Note_on_c, 4, 69, 0
7, 6720, Note_on_c, 4, 69, 127
7, 6780, Note_on_c, 4, 69, 0
7, 6840, Note_on_c, 4, 69, 127
7, 6900, Note_on_c, 4, 69, 0
7, 6960, Note_on_c, 4, 67, 127
7, 7020, Note_on_c, 4, 67, 0
7, 7080, Note_on_c, 4, 67, 127
7, 7110, Note_on_c, 4, 67, 0
7, 7140, Note_on_c, 4, 67, 127
7, 7170, Note_on_c, 4, 67, 0
7, 7200, Note_on_c, 4, 69, 127
7, 7290, Note_on_c, 4, 69, 0
7, 7320, Note_on_c, 4, 69, 127
7, 7380, Note_on_c, 4, 69, 127
7, 7410, Note_on_c, 4, 69, 0
7, 7440, Note_on_c, 4, 69, 0
7, 7590, Note_on_c, 4, 67, 127
7, 7620, Note_on_c, 4, 67, 0
7, 7620, Note_on_c, 4, 67, 127
7, 7650, Note_on_c, 4, 67, 0
7, 7680, Note_on_c, 4, 67, 127
7, 7740, Note_on_c, 4, 67, 0
7, 7800, Note_on_c, 4, 69, 127
7, 7830, Note_on_c, 4, 69, 0
7, 7860, Note_on_c, 4, 69, 127
7, 7950, Note_on_c, 4, 69, 0
7, 8520, Note_on_c, 4, 67, 127
7, 8550, Note_on_c, 4, 67, 0
7, 8580, Note_on_c, 4, 67, 127
7, 8640, Note_on_c, 4, 69, 127
7, 8670, Note_on_c, 4, 67, 0
7, 8730, Note_on_c, 4, 69, 0
7, 8760, Note_on_c, 4, 69, 127
7, 8820, Note_on_c, 4, 69, 0
7, 8880, Note_on_c, 4, 67, 127
7, 8970, Note_on_c, 4, 67, 0
7, 9000, Note_on_c, 4, 69, 127
7, 9030, Note_on_c, 4, 69, 0
7, 9060, Note_on_c, 4, 74, 127
7, 9180, Note_on_c, 4, 74, 0
7, 9180, Note_on_c, 4, 73, 127
7, 9240, Note_on_c, 4, 73, 0
7, 9240, Note_on_c, 4, 67, 127
7, 9270, Note_on_c, 4, 67, 0
7, 9300, Note_on_c, 4, 67, 127
7, 9330, Note_on_c, 4, 67, 0
7, 9360, Note_on_c, 4, 67, 127
7, 9420, Note_on_c, 4, 67, 0
7, 9480, Note_on_c, 4, 69, 127
7, 9510, Note_on_c, 4, 69, 0
7, 9540, Note_on_c, 4, 69, 127
7, 9600, Note_on_c, 4, 69, 0
7, 10500, Note_on_c, 4, 69, 127
7, 10530, Note_on_c, 4, 69, 0
7, 10560, Note_on_c, 4, 69, 127
7, 10650, Note_on_c, 4, 69, 0
7, 10680, Note_on_c, 4, 67, 127
7, 10800, Note_on_c, 4, 67, 0
7, 10800, Note_on_c, 4, 67, 127
7, 10860, Note_on_c, 4, 67, 0
7, 10920, Note_on_c, 4, 69, 127
7, 10950, Note_on_c, 4, 69, 0
7, 10980, Note_on_c, 4, 67, 127
7, 11010, Note_on_c, 4, 67, 0
7, 11040, Note_on_c, 4, 69, 127
7, 11130, Note_on_c, 4, 69, 0
7, 11160, Note_on_c, 4, 69, 127
7, 11250, Note_on_c, 4, 69, 0
7, 11280, Note_on_c, 4, 67, 127
7, 11370, Note_on_c, 4, 67, 0
7, 11400, Note_on_c, 4, 67, 127
7, 11460, Note_on_c, 4, 67, 0
7, 11520, Note_on_c, 4, 69, 127
7, 11580, Note_on_c, 4, 69, 0
7, 11640, Note_on_c, 4, 69, 127
7, 11670, Note_on_c, 4, 69, 0
7, 11700, Note_on_c, 4, 69, 127
7, 11820, Note_on_c, 4, 67, 127
7, 11880, Note_on_c, 4, 67, 0
7, 11880, Note_on_c, 4, 65, 127
7, 11940, Note_on_c, 4, 65, 0
7, 12030, Note_on_c, 4, 69, 0
7, 12600, Note_on_c, 4, 62, 127
7, 12720, Note_on_c, 4, 62, 0
7, 12720, Note_on_c, 4, 62, 127
7, 12810, Note_on_c, 4, 62, 0
7, 12840, Note_on_c, 4, 62, 127
7, 12930, Note_on_c, 4, 62, 0
7, 12960, Note_on_c, 4, 61, 127
7, 12990, Note_on_c, 4, 61, 0
7, 13020, Note_on_c, 4, 61, 127
7, 13140, Note_on_c, 4, 61, 0
7, 13140, Note_on_c, 4, 61, 127
7, 13380, Note_on_c, 4, 61, 0
7, 13440, Note_on_c, 4, 67, 127
7, 13560, Note_on_c, 4, 67, 0
7, 13560, Note_on_c, 4, 67, 127
7, 13650, Note_on_c, 4, 67, 0
7, 13680, Note_on_c, 4, 67, 127
7, 13740, Note_on_c, 4, 67, 0
7, 13800, Note_on_c, 4, 69, 127
7, 13890, Note_on_c, 4, 69, 0
7, 13920, Note_on_c, 4, 65, 127
7, 14040, Note_on_c, 4, 64, 127
7, 14070, Note_on_c, 4, 64, 0
7, 14100, Note_on_c, 4, 65, 0
7, 14100, Note_on_c, 4, 62, 127
7, 14310, Note_on_c, 4, 62, 0
7, 14520, Note_on_c, 4, 62, 127
7, 14610, Note_on_c, 4, 62, 0
7, 14640, Note_on_c, 4, 62, 127
7, 14730, Note_on_c, 4, 62, 0
7, 14760, Note_on_c, 4, 62, 127
7, 14850, Note_on_c, 4, 62, 0
7, 14880, Note_on_c, 4, 61, 127
7, 14910, Note_on_c, 4, 61, 0
7, 14940, Note_on_c, 4, 65, 127
7, 14970, Note_on_c, 4, 65, 0
7, 15000, Note_on_c, 4, 61, 127
7, 15030, Note_on_c, 4, 61, 0
7, 15060, Note_on_c, 4, 69, 127
7, 15090, Note_on_c, 4, 69, 0
7, 15120, Note_on_c, 4, 67, 127
7, 15150, Note_on_c, 4, 67, 0
7, 15420, Note_on_c, 4, 67, 127
7, 15450, Note_on_c, 4, 67, 0
7, 15480, Note_on_c, 4, 67, 127
7, 15510, Note_on_c, 4, 67, 0
7, 15540, Note_on_c, 4, 65, 127
7, 15570, Note_on_c, 4, 65, 0
7, 15600, Note_on_c, 4, 67, 127
7, 15690, Note_on_c, 4, 67, 0
7, 15720, Note_on_c, 4, 65, 127
7, 15810, Note_on_c, 4, 65, 0
7, 15840, Note_on_c, 4, 72, 127
7, 15990, Note_on_c, 4, 72, 0
7, 16020, Note_on_c, 4, 71, 127
7, 16050, Note_on_c, 4, 71, 0
7, 16080, Note_on_c, 4, 69, 127
7, 16320, Note_on_c, 4, 69, 0
7, 16380, Note_on_c, 4, 71, 127
7, 16410, Note_on_c, 4, 71, 0
7, 16440, Note_on_c, 4, 71, 127
7, 16470, Note_on_c, 4, 71, 0
7, 16500, Note_on_c, 4, 71, 127
7, 16530, Note_on_c, 4, 71, 0
7, 16620, Note_on_c, 4, 70, 127
7, 16650, Note_on_c, 4, 70, 0
7, 16680, Note_on_c, 4, 70, 127
7, 16710, Note_on_c, 4, 70, 0
7, 16740, Note_on_c, 4, 70, 127
7, 16770, Note_on_c, 4, 70, 0
7, 17820, Note_on_c, 4, 71, 127
7, 17850, Note_on_c, 4, 71, 0
7, 17880, Note_on_c, 4, 71, 127
7, 17910, Note_on_c, 4, 71, 0
7, 17940, Note_on_c, 4, 71, 127
7, 18030, Note_on_c, 4, 71, 0
7, 18060, Note_on_c, 4, 70, 127
7, 18090, Note_on_c, 4, 70, 0
7, 18120, Note_on_c, 4, 70, 127
7, 18150, Note_on_c, 4, 70, 0
7, 18180, Note_on_c, 4, 70, 127
7, 18210, Note_on_c, 4, 70, 0
7, 18240, Note_on_c, 4, 69, 127
7, 18330, Note_on_c, 4, 69, 0
7, 20100, Note_on_c, 4, 69, 100
7, 20130, Note_on_c, 4, 69, 0
7, 20160, Note_on_c, 4, 69, 100
7, 20220, Note_on_c, 4, 69, 0
7, 20280, Note_on_c, 4, 69, 100
7, 20340, Note_on_c, 4, 69, 0
7, 20400, Note_on_c, 4, 67, 100
7, 20460, Note_on_c, 4, 67, 0
7, 20640, Note_on_c, 4, 69, 100
7, 20700, Note_on_c, 4, 69, 0
7, 20760, Note_on_c, 4, 69, 100
7, 20820, Note_on_c, 4, 69, 0
7, 20880, Note_on_c, 4, 67, 100
7, 20970, Note_on_c, 4, 67, 0
7, 21000, Note_on_c, 4, 67, 100
7, 21030, Note_on_c, 4, 67, 0
7, 21060, Note_on_c, 4, 67, 100
7, 21090, Note_on_c, 4, 67, 0
7, 21120, Note_on_c, 4, 67, 100
7, 21150, Note_on_c, 4, 67, 0
7, 21240, Note_on_c, 4, 69, 100
7, 21270, Note_on_c, 4, 69, 0
7, 21300, Note_on_c, 4, 69, 100
7, 21330, Note_on_c, 4, 69, 0
7, 22020, Note_on_c, 4, 69, 100
7, 22050, Note_on_c, 4, 69, 0
7, 22080, Note_on_c, 4, 69, 100
7, 22140, Note_on_c, 4, 69, 0
7, 22200, Note_on_c, 4, 69, 100
7, 22260, Note_on_c, 4, 69, 0
7, 22320, Note_on_c, 4, 67, 100
7, 22380, Note_on_c, 4, 67, 0
7, 22440, Note_on_c, 4, 67, 100
7, 22470, Note_on_c, 4, 67, 0
7, 22500, Note_on_c, 4, 67, 100
7, 22530, Note_on_c, 4, 67, 0
7, 22560, Note_on_c, 4, 69, 100
7, 22650, Note_on_c, 4, 69, 0
7, 22680, Note_on_c, 4, 69, 100
7, 22740, Note_on_c, 4, 69, 100
7, 22770, Note_on_c, 4, 69, 0
7, 22800, Note_on_c, 4, 69, 0
7, 22950, Note_on_c, 4, 67, 100
7, 22980, Note_on_c, 4, 67, 0
7, 22980, Note_on_c, 4, 67, 100
7, 23010, Note_on_c, 4, 67, 0
7, 23040, Note_on_c, 4, 67, 100
7, 23100, Note_on_c, 4, 67, 0
7, 23160, Note_on_c, 4, 69, 100
7, 23190, Note_on_c, 4, 69, 0
7, 23220, Note_on_c, 4, 69, 100
7, 23310, Note_on_c, 4, 69, 0
7, 23880, Note_on_c, 4, 67, 100
7, 23910, Note_on_c, 4, 67, 0
7, 23940, Note_on_c, 4, 67, 100
7, 24000, Note_on_c, 4, 69, 100
7, 24030, Note_on_c, 4, 67, 0
7, 24090, Note_on_c, 4, 69, 0
7, 24120, Note_on_c, 4, 69, 100
7, 24180, Note_on_c, 4, 69, 0
7, 24240, Note_on_c, 4, 67, 100
7, 24330, Note_on_c, 4, 67, 0
7, 24360, Note_on_c, 4, 69, 100
7, 24390, Note_on_c, 4, 69, 0
7, 24420, Note_on_c, 4, 74, 100
7, 24540, Note_on_c, 4, 74, 0
7, 24540, Note_on_c, 4, 73, 100
7, 24600, Note_on_c, 4, 73, 0
7, 24600, Note_on_c, 4, 67, 100
7, 24630, Note_on_c, 4, 67, 0
7, 24660, Note_on_c, 4, 67, 100
7, 24690, Note_on_c, 4, 67, 0
7, 24720, Note_on_c, 4, 67, 100
7, 24780, Note_on_c, 4, 67, 0
7, 24840, Note_on_c, 4, 69, 100
7, 24870, Note_on_c, 4, 69, 0
7, 24900, Note_on_c, 4, 69, 100
7, 24960, Note_on_c, 4, 69, 0
7, 25860, Note_on_c, 4, 69, 100
7, 25890, Note_on_c, 4, 69, 0
7, 25920, Note_on_c, 4, 69, 100
7, 26010, Note_on_c, 4, 69, 0
7, 26040, Note_on_c, 4, 67, 100
7, 26160, Note_on_c, 4, 67, 0
7, 26160, Note_on_c, 4, 67, 100
7, 26220, Note_on_c, 4, 67, 0
7, 26280, Note_on_c, 4, 69, 100
7, 26310, Note_on_c, 4, 69, 0
7, 26340, Note_on_c, 4, 67, 100
7, 26370, Note_on_c, 4, 67, 0
7, 26400, Note_on_c, 4, 69, 100
7, 26490, Note_on_c, 4, 69, 0
7, 26520, Note_on_c, 4, 69, 100
7, 26610, Note_on_c, 4, 69, 0
7, 26640, Note_on_c, 4, 67, 100
7, 26730, Note_on_c, 4, 67, 0
7, 26760, Note_on_c, 4, 67, 100
7, 26820, Note_on_c, 4, 67, 0
7, 26880, Note_on_c, 4, 69, 100
7, 26940, Note_on_c, 4, 69, 0
7, 27000, Note_on_c, 4, 69, 100
7, 27030, Note_on_c, 4, 69, 0
7, 27060, Note_on_c, 4, 69, 100
7, 27180, Note_on_c, 4, 67, 100
7, 27240, Note_on_c, 4, 67, 0
7, 27240, Note_on_c, 4, 65, 100
7, 27300, Note_on_c, 4, 65, 0
7, 27390, Note_on_c, 4, 69, 0
7, 27960, Note_on_c, 4, 62, 100
7, 28080, Note_on_c, 4, 62, 0
7, 28080, Note_on_c, 4, 62, 100
7, 28170, Note_on_c, 4, 62, 0
7, 28200, Note_on_c, 4, 62, 100
7, 28290, Note_on_c, 4, 62, 0
7, 28320, Note_on_c, 4, 61, 100
7, 28350, Note_on_c, 4, 61, 0
7, 28380, Note_on_c, 4, 61, 100
7, 28500, Note_on_c, 4, 61, 0
7, 28500, Note_on_c, 4, 61, 100
7, 28740, Note_on_c, 4, 61, 0
7, 28800, Note_on_c, 4, 67, 100
7, 28920, Note_on_c, 4, 67, 0
7, 28920, Note_on_c, 4, 67, 100
7, 29010, Note_on_c, 4, 67, 0
7, 29040, Note_on_c, 4, 67, 100
7, 29100, Note_on_c, 4, 67, 0
7, 29160, Note_on_c, 4, 69, 100
7, 29250, Note_on_c, 4, 69, 0
7, 29280, Note_on_c, 4, 65, 100
7, 29400, Note_on_c, 4, 64, 100
7, 29430, Note_on_c, 4, 64, 0
7, 29460, Note_on_c, 4, 65, 0
7, 29460, Note_on_c, 4, 62, 100
7, 29670, Note_on_c, 4, 62, 0
7, 29880, Note_on_c, 4, 62, 100
7, 29970, Note_on_c, 4, 62, 0
7, 30000, Note_on_c, 4, 62, 100
7, 30090, Note_on_c, 4, 62, 0
7, 30120, Note_on_c, 4, 62, 100
7, 30210, Note_on_c, 4, 62, 0
7, 30240, Note_on_c, 4, 61, 100
7, 30270, Note_on_c, 4, 61, 0
7, 30300, Note_on_c, 4, 65, 100
7, 30330, Note_on_c, 4, 65, 0
7, 30360, Note_on_c, 4, 61, 100
7, 30390, Note_on_c, 4, 61, 0
7, 30420, Note_on_c, 4, 69, 100
7, 30450, Note_on_c, 4, 69, 0
7, 30480, Note_on_c, 4, 67, 100
7, 30510, Note_on_c, 4, 67, 0
7, 30780, Note_on_c, 4, 67, 100
7, 30810, Note_on_c, 4, 67, 0
7, 30840, Note_on_c, 4, 67, 100
7, 30870, Note_on_c, 4, 67, 0
7, 30900, Note_on_c, 4, 65, 100
7, 30930, Note_on_c, 4, 65, 0
7, 30960, Note_on_c, 4, 67, 100
7, 31050, Note_on_c, 4, 67, 0
7, 31080, Note_on_c, 4, 65, 100
7, 31170, Note_on_c, 4, 65, 0
7, 31200, Note_on_c, 4, 72, 100
7, 31350, Note_on_c, 4, 72, 0
7, 31380, Note_on_c, 4, 71, 100
7, 31410, Note_on_c, 4, 71, 0
7, 31440, Note_on_c, 4, 69, 100
7, 31680, Note_on_c, 4, 69, 0
7, 31740, Note_on_c, 4, 71, 100
7, 31770, Note_on_c, 4, 71, 0
7, 31800, Note_on_c, 4, 71, 100
7, 31830, Note_on_c, 4, 71, 0
7, 31860, Note_on_c, 4, 71, 100
7, 31890, Note_on_c, 4, 71, 0
7, 31980, Note_on_c, 4, 70, 100
7, 32010, Note_on_c, 4, 70, 0
7, 32040, Note_on_c, 4, 70, 100
7, 32070, Note_on_c, 4, 70, 0
7, 32100, Note_on_c, 4, 70, 100
7, 32130, Note_on_c, 4, 70, 0
7, 33180, Note_on_c, 4, 71, 100
7, 33210, Note_on_c, 4, 71, 0
7, 33240, Note_on_c, 4, 71, 100
7, 33270, Note_on_c, 4, 71, 0
7, 33300, Note_on_c, 4, 71, 100
7, 33390, Note_on_c, 4, 71, 0
7, 33420, Note_on_c, 4, 70, 100
7, 33450, Note_on_c, 4, 70, 0
7, 33480, Note_on_c, 4, 70, 100
7, 33510, Note_on_c, 4, 70, 0
7, 33540, Note_on_c, 4, 70, 100
7, 33570, Note_on_c, 4, 70, 0
7, 33600, Note_on_c, 4, 69, 100
7, 33690, Note_on_c, 4, 69, 0
7, 44280, Note_on_c, 4, 62, 127
7, 44400, Note_on_c, 4, 62, 0
7, 44400, Note_on_c, 4, 62, 127
7, 44490, Note_on_c, 4, 62, 0
7, 44520, Note_on_c, 4, 62, 127
7, 44610, Note_on_c, 4, 62, 0
7, 44640, Note_on_c, 4, 61, 127
7, 44670, Note_on_c, 4, 61, 0
7, 44700, Note_on_c, 4, 61, 127
7, 44820, Note_on_c, 4, 61, 0
7, 44820, Note_on_c, 4, 61, 127
7, 45060, Note_on_c, 4, 61, 0
7, 45120, Note_on_c, 4, 67, 127
7, 45240, Note_on_c, 4, 67, 0
7, 45240, Note_on_c, 4, 67, 127
7, 45330, Note_on_c, 4, 67, 0
7, 45360, Note_on_c, 4, 67, 127
7, 45420, Note_on_c, 4, 67, 0
7, 45480, Note_on_c, 4, 69, 127
7, 45570, Note_on_c, 4, 69, 0
7, 45600, Note_on_c, 4, 65, 127
7, 45720, Note_on_c, 4, 64, 127
7, 45750, Note_on_c, 4, 64, 0
7, 45780, Note_on_c, 4, 65, 0
7, 45780, Note_on_c, 4, 62, 127
7, 45990, Note_on_c, 4, 62, 0
7, 46200, Note_on_c, 4, 62, 127
7, 46290, Note_on_c, 4, 62, 0
7, 46320, Note_on_c, 4, 62, 127
7, 46410, Note_on_c, 4, 62, 0
7, 46440, Note_on_c, 4, 62, 127
7, 46530, Note_on_c, 4, 62, 0
7, 46560, Note_on_c, 4, 61, 127
7, 46590, Note_on_c, 4, 61, 0
7, 46620, Note_on_c, 4, 65, 127
7, 46650, Note_on_c, 4, 65, 0
7, 46680, Note_on_c, 4, 61, 127
7, 46710, Note_on_c, 4, 61, 0
7, 46740, Note_on_c, 4, 69, 127
7, 46770, Note_on_c, 4, 69, 0
7, 46800, Note_on_c, 4, 67, 127
7, 46830, Note_on_c, 4, 67, 0
7, 47100, Note_on_c, 4, 67, 127
7, 47130, Note_on_c, 4, 67, 0
7, 47160, Note_on_c, 4, 67, 127
7, 47190, Note_on_c, 4, 67, 0
7, 47220, Note_on_c, 4, 65, 127
7, 47250, Note_on_c, 4, 65, 0
7, 47280, Note_on_c, 4, 67, 127
7, 47370, Note_on_c, 4, 67, 0
7, 47400, Note_on_c, 4, 65, 127
7, 47490, Note_on_c, 4, 65, 0
7, 47520, Note_on_c, 4, 72, 127
7, 47670, Note_on_c, 4, 72, 0
7, 47700, Note_on_c, 4, 71, 127
7, 47730, Note_on_c, 4, 71, 0
7, 47760, Note_on_c, 4, 69, 127
7, 48000, Note_on_c, 4, 69, 0
7, 48060, Note_on_c, 4, 71, 127
7, 48090, Note_on_c, 4, 71, 0
7, 48120, Note_on_c, 4, 71, 127
7, 48150, Note_on_c, 4, 71, 0
7, 48180, Note_on_c, 4, 71, 127
7, 48210, Note_on_c, 4, 71, 0
7, 48300, Note_on_c, 4, 70, 127
7, 48330, Note_on_c, 4, 70, 0
7, 48360, Note_on_c, 4, 70, 127
7, 48390, Note_on_c, 4, 70, 0
7, 48420, Note_on_c, 4, 70, 127
7, 48450, Note_on_c, 4, 70, 0
7, 48480, Note_on_c, 4, 69, 100
7, 48600, Note_on_c, 4, 69, 0
7, 49500, Note_on_c, 4, 71, 127
7, 49530, Note_on_c, 4, 71, 0
7, 49560, Note_on_c, 4, 71, 127
7, 49590, Note_on_c, 4, 71, 0
7, 49620, Note_on_c, 4, 71, 127
7, 49710, Note_on_c, 4, 71, 0
7, 49740, Note_on_c, 4, 70, 127
7, 49770, Note_on_c, 4, 70, 0
7, 49800, Note_on_c, 4, 70, 127
7, 49830, Note_on_c, 4, 70, 0
7, 49860, Note_on_c, 4, 70, 127
7, 49890, Note_on_c, 4, 70, 0
7, 49920, Note_on_c, 4, 69, 127
7, 50010, Note_on_c, 4, 69, 0
7, 50940, Note_on_c, 4, 71, 127
7, 50970, Note_on_c, 4, 71, 0
7, 51000, Note_on_c, 4, 71, 127
7, 51030, Note_on_c, 4, 71, 0
7, 51060, Note_on_c, 4, 71, 127
7, 51090, Note_on_c, 4, 71, 0
7, 51180, Note_on_c, 4, 70, 127
7, 51210, Note_on_c, 4, 70, 0
7, 51240, Note_on_c, 4, 70, 127
7, 51270, Note_on_c, 4, 70, 0
7, 51300, Note_on_c, 4, 70, 127
7, 51330, Note_on_c, 4, 70, 0
7, 51360, Note_on_c, 4, 69, 100
7, 51480, Note_on_c, 4, 69, 0
7, 52380, Note_on_c, 4, 71, 127
7, 52410, Note_on_c, 4, 71, 0
7, 52440, Note_on_c, 4, 71, 127
7, 52470, Note_on_c, 4, 71, 0
7, 52500, Note_on_c, 4, 71, 127
7, 52590, Note_on_c, 4, 71, 0
7, 52620, Note_on_c, 4, 70, 127
7, 52650, Note_on_c, 4, 70, 0
7, 52680, Note_on_c, 4, 70, 127
7, 52710, Note_on_c, 4, 70, 0
7, 52740, Note_on_c, 4, 70, 127
7, 52770, Note_on_c, 4, 70, 0
7, 52800, Note_on_c, 4, 61, 127
7, 53280, Note_on_c, 4, 61, 0
7, 53280, End_track
8, 0, Start_track
8, 0, MIDI_port, 0
8, 0, Title_t, "Rhythm"
8, 0, Control_c, 5, 0, 0
8, 0, Control_c, 5, 32, 0
8, 0, Program_c, 5, 30
8, 0, Control_c, 5, 7, 120
8, 2880, Note_on_c, 5, 64, 100
8, 2880, Note_on_c, 5, 57, 100
8, 2880, Note_on_c, 5, 69, 100
8, 2940, Note_on_c, 5, 69, 100
8, 2940, Note_on_c, 5, 64, 100
8, 2940, Note_on_c, 5, 57, 100
8, 3000, Note_on_c, 5, 57, 0
8, 3000, Note_on_c, 5, 57, 0
8, 3000, Note_on_c, 5, 69, 0
8, 3000, Note_on_c, 5, 64, 0
8, 3000, Note_on_c, 5, 64, 0
8, 3000, Note_on_c, 5, 69, 0
8, 3000, Note_on_c, 5, 69, 100
8, 3000, Note_on_c, 5, 64, 100
8, 3000, Note_on_c, 5, 57, 100
8, 3060, Note_on_c, 5, 57, 0
8, 3060, Note_on_c, 5, 64, 0
8, 3060, Note_on_c, 5, 69, 0
8, 3060, Note_on_c, 5, 69, 100
8, 3060, Note_on_c, 5, 64, 100
8, 3060, Note_on_c, 5, 57, 100
8, 3120, Note_on_c, 5, 57, 0
8, 3120, Note_on_c, 5, 64, 0
8, 3120, Note_on_c, 5, 69, 0
8, 3180, Note_on_c, 5, 67, 100
8, 3180, Note_on_c, 5, 55, 100
8, 3180, Note_on_c, 5, 62, 100
8, 3240, Note_on_c, 5, 62, 0
8, 3240, Note_on_c, 5, 55, 0
8, 3240, Note_on_c, 5, 67, 0
8, 3240, Note_on_c, 5, 67, 100
8, 3240, Note_on_c, 5, 55, 100
8, 3240, Note_on_c, 5, 62, 100
8, 3300, Note_on_c, 5, 62, 0
8, 3300, Note_on_c, 5, 55, 0
8, 3300, Note_on_c, 5, 67, 0
8, 3300, Note_on_c, 5, 67, 100
8, 3300, Note_on_c, 5, 55, 100
8, 3300, Note_on_c, 5, 62, 100
8, 3360, Note_on_c, 5, 62, 0
8, 3360, Note_on_c, 5, 55, 0
8, 3360, Note_on_c, 5, 67, 0
8, 3360, Note_on_c, 5, 64, 100
8, 3360, Note_on_c, 5, 57, 100
8, 3360, Note_on_c, 5, 69, 100
8, 3420, Note_on_c, 5, 69, 100
8, 3420, Note_on_c, 5, 64, 100
8, 3420, Note_on_c, 5, 57, 100
8, 3480, Note_on_c, 5, 57, 0
8, 3480, Note_on_c, 5, 57, 0
8, 3480, Note_on_c, 5, 69, 0
8, 3480, Note_on_c, 5, 64, 0
8, 3480, Note_on_c, 5, 64, 0
8, 3480, Note_on_c, 5, 69, 0
8, 3480, Note_on_c, 5, 69, 100
8, 3480, Note_on_c, 5, 64, 100
8, 3480, Note_on_c, 5, 57, 100
8, 3540, Note_on_c, 5, 57, 0
8, 3540, Note_on_c, 5, 64, 0
8, 3540, Note_on_c, 5, 69, 0
8, 3540, Note_on_c, 5, 69, 100
8, 3540, Note_on_c, 5, 64, 100
8, 3540, Note_on_c, 5, 57, 100
8, 3600, Note_on_c, 5, 57, 0
8, 3600, Note_on_c, 5, 64, 0
8, 3600, Note_on_c, 5, 69, 0
8, 3660, Note_on_c, 5, 67, 100
8, 3660, Note_on_c, 5, 55, 100
8, 3660, Note_on_c, 5, 62, 100
8, 3720, Note_on_c, 5, 62, 0
8, 3720, Note_on_c, 5, 55, 0
8, 3720, Note_on_c, 5, 67, 0
8, 3720, Note_on_c, 5, 67, 100
8, 3720, Note_on_c, 5, 55, 100
8, 3720, Note_on_c, 5, 62, 100
8, 3780, Note_on_c, 5, 62, 0
8, 3780, Note_on_c, 5, 55, 0
8, 3780, Note_on_c, 5, 67, 0
8, 3780, Note_on_c, 5, 67, 100
8, 3780, Note_on_c, 5, 55, 100
8, 3780, Note_on_c, 5, 62, 100
8, 3840, Note_on_c, 5, 62, 0
8, 3840, Note_on_c, 5, 55, 0
8, 3840, Note_on_c, 5, 67, 0
8, 3840, Note_on_c, 5, 64, 100
8, 3840, Note_on_c, 5, 57, 100
8, 3840, Note_on_c, 5, 69, 100
8, 3900, Note_on_c, 5, 69, 100
8, 3900, Note_on_c, 5, 64, 100
8, 3900, Note_on_c, 5, 57, 100
8, 3960, Note_on_c, 5, 57, 0
8, 3960, Note_on_c, 5, 57, 0
8, 3960, Note_on_c, 5, 69, 0
8, 3960, Note_on_c, 5, 64, 0
8, 3960, Note_on_c, 5, 64, 0
8, 3960, Note_on_c, 5, 69, 0
8, 3960, Note_on_c, 5, 69, 100
8, 3960, Note_on_c, 5, 64, 100
8, 3960, Note_on_c, 5, 57, 100
8, 4020, Note_on_c, 5, 57, 0
8, 4020, Note_on_c, 5, 64, 0
8, 4020, Note_on_c, 5, 69, 0
8, 4020, Note_on_c, 5, 69, 100
8, 4020, Note_on_c, 5, 64, 100
8, 4020, Note_on_c, 5, 57, 100
8, 4080, Note_on_c, 5, 57, 0
8, 4080, Note_on_c, 5, 64, 0
8, 4080, Note_on_c, 5, 69, 0
8, 4140, Note_on_c, 5, 67, 100
8, 4140, Note_on_c, 5, 55, 100
8, 4140, Note_on_c, 5, 62, 100
8, 4200, Note_on_c, 5, 62, 0
8, 4200, Note_on_c, 5, 55, 0
8, 4200, Note_on_c, 5, 67, 0
8, 4200, Note_on_c, 5, 67, 100
8, 4200, Note_on_c, 5, 55, 100
8, 4200, Note_on_c, 5, 62, 100
8, 4260, Note_on_c, 5, 62, 0
8, 4260, Note_on_c, 5, 55, 0
8, 4260, Note_on_c, 5, 67, 0
8, 4260, Note_on_c, 5, 67, 100
8, 4260, Note_on_c, 5, 55, 100
8, 4260, Note_on_c, 5, 62, 100
8, 4320, Note_on_c, 5, 62, 0
8, 4320, Note_on_c, 5, 55, 0
8, 4320, Note_on_c, 5, 67, 0
8, 4320, Note_on_c, 5, 64, 100
8, 4320, Note_on_c, 5, 57, 100
8, 4320, Note_on_c, 5, 69, 100
8, 4380, Note_on_c, 5, 69, 100
8, 4380, Note_on_c, 5, 64, 100
8, 4380, Note_on_c, 5, 57, 100
8, 4440, Note_on_c, 5, 57, 0
8, 4440, Note_on_c, 5, 57, 0
8, 4440, Note_on_c, 5, 69, 0
8, 4440, Note_on_c, 5, 64, 0
8, 4440, Note_on_c, 5, 64, 0
8, 4440, Note_on_c, 5, 69, 0
8, 4440, Note_on_c, 5, 69, 100
8, 4440, Note_on_c, 5, 64, 100
8, 4440, Note_on_c, 5, 57, 100
8, 4500, Note_on_c, 5, 57, 0
8, 4500, Note_on_c, 5, 64, 0
8, 4500, Note_on_c, 5, 69, 0
8, 4500, Note_on_c, 5, 69, 100
8, 4500, Note_on_c, 5, 64, 100
8, 4500, Note_on_c, 5, 57, 100
8, 4560, Note_on_c, 5, 57, 0
8, 4560, Note_on_c, 5, 64, 0
8, 4560, Note_on_c, 5, 69, 0
8, 4620, Note_on_c, 5, 67, 100
8, 4620, Note_on_c, 5, 55, 100
8, 4620, Note_on_c, 5, 62, 100
8, 4680, Note_on_c, 5, 62, 0
8, 4680, Note_on_c, 5, 55, 0
8, 4680, Note_on_c, 5, 67, 0
8, 4680, Note_on_c, 5, 67, 100
8, 4680, Note_on_c, 5, 55, 100
8, 4680, Note_on_c, 5, 62, 100
8, 4740, Note_on_c, 5, 62, 0
8, 4740, Note_on_c, 5, 55, 0
8, 4740, Note_on_c, 5, 67, 0
8, 4740, Note_on_c, 5, 67, 100
8, 4740, Note_on_c, 5, 55, 100
8, 4740, Note_on_c, 5, 62, 100
8, 4800, Note_on_c, 5, 62, 0
8, 4800, Note_on_c, 5, 55, 0
8, 4800, Note_on_c, 5, 67, 0
8, 4800, Note_on_c, 5, 64, 100
8, 4800, Note_on_c, 5, 57, 100
8, 4800, Note_on_c, 5, 69, 100
8, 4860, Note_on_c, 5, 69, 100
8, 4860, Note_on_c, 5, 64, 100
8, 4860, Note_on_c, 5, 57, 100
8, 4920, Note_on_c, 5, 57, 0
8, 4920, Note_on_c, 5, 57, 0
8, 4920, Note_on_c, 5, 69, 0
8, 4920, Note_on_c, 5, 64, 0
8, 4920, Note_on_c, 5, 64, 0
8, 4920, Note_on_c, 5, 69, 0
8, 4920, Note_on_c, 5, 69, 100
8, 4920, Note_on_c, 5, 64, 100
8, 4920, Note_on_c, 5, 57, 100
8, 4980, Note_on_c, 5, 57, 0
8, 4980, Note_on_c, 5, 64, 0
8, 4980, Note_on_c, 5, 69, 0
8, 4980, Note_on_c, 5, 69, 100
8, 4980, Note_on_c, 5, 64, 100
8, 4980, Note_on_c, 5, 57, 100
8, 5040, Note_on_c, 5, 57, 0
8, 5040, Note_on_c, 5, 64, 0
8, 5040, Note_on_c, 5, 69, 0
8, 5100, Note_on_c, 5, 67, 100
8, 5100, Note_on_c, 5, 55, 100
8, 5100, Note_on_c, 5, 62, 100
8, 5160, Note_on_c, 5, 62, 0
8, 5160, Note_on_c, 5, 55, 0
8, 5160, Note_on_c, 5, 67, 0
8, 5160, Note_on_c, 5, 67, 100
8, 5160, Note_on_c, 5, 55, 100
8, 5160, Note_on_c, 5, 62, 100
8, 5220, Note_on_c, 5, 62, 0
8, 5220, Note_on_c, 5, 55, 0
8, 5220, Note_on_c, 5, 67, 0
8, 5220, Note_on_c, 5, 67, 100
8, 5220, Note_on_c, 5, 55, 100
8, 5220, Note_on_c, 5, 62, 100
8, 5280, Note_on_c, 5, 62, 0
8, 5280, Note_on_c, 5, 55, 0
8, 5280, Note_on_c, 5, 67, 0
8, 5280, Note_on_c, 5, 64, 100
8, 5280, Note_on_c, 5, 57, 100
8, 5280, Note_on_c, 5, 69, 100
8, 5340, Note_on_c, 5, 69, 100
8, 5340, Note_on_c, 5, 64, 100
8, 5340, Note_on_c, 5, 57, 100
8, 5400, Note_on_c, 5, 57, 0
8, 5400, Note_on_c, 5, 57, 0
8, 5400, Note_on_c, 5, 69, 0
8, 5400, Note_on_c, 5, 64, 0
8, 5400, Note_on_c, 5, 64, 0
8, 5400, Note_on_c, 5, 69, 0
8, 5400, Note_on_c, 5, 69, 100
8, 5400, Note_on_c, 5, 64, 100
8, 5400, Note_on_c, 5, 57, 100
8, 5460, Note_on_c, 5, 57, 0
8, 5460, Note_on_c, 5, 64, 0
8, 5460, Note_on_c, 5, 69, 0
8, 5460, Note_on_c, 5, 69, 100
8, 5460, Note_on_c, 5, 64, 100
8, 5460, Note_on_c, 5, 57, 100
8, 5520, Note_on_c, 5, 57, 0
8, 5520, Note_on_c, 5, 64, 0
8, 5520, Note_on_c, 5, 69, 0
8, 5580, Note_on_c, 5, 67, 100
8, 5580, Note_on_c, 5, 55, 100
8, 5580, Note_on_c, 5, 62, 100
8, 5640, Note_on_c, 5, 62, 0
8, 5640, Note_on_c, 5, 55, 0
8, 5640, Note_on_c, 5, 67, 0
8, 5640, Note_on_c, 5, 67, 100
8, 5640, Note_on_c, 5, 55, 100
8, 5640, Note_on_c, 5, 62, 100
8, 5700, Note_on_c, 5, 62, 0
8, 5700, Note_on_c, 5, 55, 0
8, 5700, Note_on_c, 5, 67, 0
8, 5700, Note_on_c, 5, 67, 100
8, 5700, Note_on_c, 5, 55, 100
8, 5700, Note_on_c, 5, 62, 100
8, 5760, Note_on_c, 5, 62, 0
8, 5760, Note_on_c, 5, 55, 0
8, 5760, Note_on_c, 5, 67, 0
8, 5760, Note_on_c, 5, 64, 100
8, 5760, Note_on_c, 5, 57, 100
8, 5760, Note_on_c, 5, 69, 100
8, 5820, Note_on_c, 5, 69, 100
8, 5820, Note_on_c, 5, 64, 100
8, 5820, Note_on_c, 5, 57, 100
8, 5880, Note_on_c, 5, 57, 0
8, 5880, Note_on_c, 5, 57, 0
8, 5880, Note_on_c, 5, 69, 0
8, 5880, Note_on_c, 5, 64, 0
8, 5880, Note_on_c, 5, 64, 0
8, 5880, Note_on_c, 5, 69, 0
8, 5880, Note_on_c, 5, 69, 100
8, 5880, Note_on_c, 5, 64, 100
8, 5880, Note_on_c, 5, 57, 100
8, 5940, Note_on_c, 5, 57, 0
8, 5940, Note_on_c, 5, 64, 0
8, 5940, Note_on_c, 5, 69, 0
8, 5940, Note_on_c, 5, 69, 100
8, 5940, Note_on_c, 5, 64, 100
8, 5940, Note_on_c, 5, 57, 100
8, 6000, Note_on_c, 5, 57, 0
8, 6000, Note_on_c, 5, 64, 0
8, 6000, Note_on_c, 5, 69, 0
8, 6060, Note_on_c, 5, 67, 100
8, 6060, Note_on_c, 5, 55, 100
8, 6060, Note_on_c, 5, 62, 100
8, 6120, Note_on_c, 5, 62, 0
8, 6120, Note_on_c, 5, 55, 0
8, 6120, Note_on_c, 5, 67, 0
8, 6120, Note_on_c, 5, 67, 100
8, 6120, Note_on_c, 5, 55, 100
8, 6120, Note_on_c, 5, 62, 100
8, 6180, Note_on_c, 5, 62, 0
8, 6180, Note_on_c, 5, 55, 0
8, 6180, Note_on_c, 5, 67, 0
8, 6180, Note_on_c, 5, 67, 100
8, 6180, Note_on_c, 5, 55, 100
8, 6180, Note_on_c, 5, 62, 100
8, 6240, Note_on_c, 5, 62, 0
8, 6240, Note_on_c, 5, 55, 0
8, 6240, Note_on_c, 5, 67, 0
8, 6240, Note_on_c, 5, 64, 100
8, 6240, Note_on_c, 5, 57, 100
8, 6240, Note_on_c, 5, 69, 100
8, 6300, Note_on_c, 5, 69, 100
8, 6300, Note_on_c, 5, 64, 100
8, 6300, Note_on_c, 5, 57, 100
8, 6360, Note_on_c, 5, 57, 0
8, 6360, Note_on_c, 5, 57, 0
8, 6360, Note_on_c, 5, 69, 0
8, 6360, Note_on_c, 5, 64, 0
8, 6360, Note_on_c, 5, 64, 0
8, 6360, Note_on_c, 5, 69, 0
8, 6360, Note_on_c, 5, 69, 100
8, 6360, Note_on_c, 5, 64, 100
8, 6360, Note_on_c, 5, 57, 100
8, 6420, Note_on_c, 5, 57, 0
8, 6420, Note_on_c, 5, 64, 0
8, 6420, Note_on_c, 5, 69, 0
8, 6420, Note_on_c, 5, 69, 100
8, 6420, Note_on_c, 5, 64, 100
8, 6420, Note_on_c, 5, 57, 100
8, 6480, Note_on_c, 5, 57, 0
8, 6480, Note_on_c, 5, 64, 0
8, 6480, Note_on_c, 5, 69, 0
8, 6540, Note_on_c, 5, 67, 100
8, 6540, Note_on_c, 5, 55, 100
8, 6540, Note_on_c, 5, 62, 100
8, 6600, Note_on_c, 5, 62, 0
8, 6600, Note_on_c, 5, 55, 0
8, 6600, Note_on_c, 5, 67, 0
8, 6600, Note_on_c, 5, 67, 100
8, 6600, Note_on_c, 5, 55, 100
8, 6600, Note_on_c, 5, 62, 100
8, 6660, Note_on_c, 5, 62, 0
8, 6660, Note_on_c, 5, 55, 0
8, 6660, Note_on_c, 5, 67, 0
8, 6660, Note_on_c, 5, 67, 100
8, 6660, Note_on_c, 5, 55, 100
8, 6660, Note_on_c, 5, 62, 100
8, 6720, Note_on_c, 5, 62, 0
8, 6720, Note_on_c, 5, 55, 0
8, 6720, Note_on_c, 5, 67, 0
8, 6720, Note_on_c, 5, 64, 100
8, 6720, Note_on_c, 5, 57, 100
8, 6720, Note_on_c, 5, 69, 100
8, 6780, Note_on_c, 5, 69, 100
8, 6780, Note_on_c, 5, 64, 100
8, 6780, Note_on_c, 5, 57, 100
8, 6840, Note_on_c, 5, 57, 0
8, 6840, Note_on_c, 5, 57, 0
8, 6840, Note_on_c, 5, 69, 0
8, 6840, Note_on_c, 5, 64, 0
8, 6840, Note_on_c, 5, 64, 0
8, 6840, Note_on_c, 5, 69, 0
8, 6840, Note_on_c, 5, 69, 100
8, 6840, Note_on_c, 5, 64, 100
8, 6840, Note_on_c, 5, 57, 100
8, 6900, Note_on_c, 5, 57, 0
8, 6900, Note_on_c, 5, 64, 0
8, 6900, Note_on_c, 5, 69, 0
8, 6900, Note_on_c, 5, 69, 100
8, 6900, Note_on_c, 5, 64, 100
8, 6900, Note_on_c, 5, 57, 100
8, 6960, Note_on_c, 5, 57, 0
8, 6960, Note_on_c, 5, 64, 0
8, 6960, Note_on_c, 5, 69, 0
8, 7020, Note_on_c, 5, 67, 100
8, 7020, Note_on_c, 5, 55, 100
8, 7020, Note_on_c, 5, 62, 100
8, 7080, Note_on_c, 5, 62, 0
8, 7080, Note_on_c, 5, 55, 0
8, 7080, Note_on_c, 5, 67, 0
8, 7080, Note_on_c, 5, 67, 100
8, 7080, Note_on_c, 5, 55, 100
8, 7080, Note_on_c, 5, 62, 100
8, 7140, Note_on_c, 5, 62, 0
8, 7140, Note_on_c, 5, 55, 0
8, 7140, Note_on_c, 5, 67, 0
8, 7140, Note_on_c, 5, 67, 100
8, 7140, Note_on_c, 5, 55, 100
8, 7140, Note_on_c, 5, 62, 100
8, 7200, Note_on_c, 5, 62, 0
8, 7200, Note_on_c, 5, 55, 0
8, 7200, Note_on_c, 5, 67, 0
8, 7200, Note_on_c, 5, 64, 100
8, 7200, Note_on_c, 5, 57, 100
8, 7200, Note_on_c, 5, 69, 100
8, 7260, Note_on_c, 5, 69, 100
8, 7260, Note_on_c, 5, 64, 100
8, 7260, Note_on_c, 5, 57, 100
8, 7320, Note_on_c, 5, 57, 0
8, 7320, Note_on_c, 5, 57, 0
8, 7320, Note_on_c, 5, 69, 0
8, 7320, Note_on_c, 5, 64, 0
8, 7320, Note_on_c, 5, 64, 0
8, 7320, Note_on_c, 5, 69, 0
8, 7320, Note_on_c, 5, 69, 100
8, 7320, Note_on_c, 5, 64, 100
8, 7320, Note_on_c, 5, 57, 100
8, 7380, Note_on_c, 5, 57, 0
8, 7380, Note_on_c, 5, 64, 0
8, 7380, Note_on_c, 5, 69, 0
8, 7380, Note_on_c, 5, 69, 100
8, 7380, Note_on_c, 5, 64, 100
8, 7380, Note_on_c, 5, 57, 100
8, 7440, Note_on_c, 5, 57, 0
8, 7440, Note_on_c, 5, 64, 0
8, 7440, Note_on_c, 5, 69, 0
8, 7500, Note_on_c, 5, 67, 100
8, 7500, Note_on_c, 5, 55, 100
8, 7500, Note_on_c, 5, 62, 100
8, 7560, Note_on_c, 5, 62, 0
8, 7560, Note_on_c, 5, 55, 0
8, 7560, Note_on_c, 5, 67, 0
8, 7560, Note_on_c, 5, 67, 100
8, 7560, Note_on_c, 5, 55, 100
8, 7560, Note_on_c, 5, 62, 100
8, 7620, Note_on_c, 5, 62, 0
8, 7620, Note_on_c, 5, 55, 0
8, 7620, Note_on_c, 5, 67, 0
8, 7620, Note_on_c, 5, 67, 100
8, 7620, Note_on_c, 5, 55, 100
8, 7620, Note_on_c, 5, 62, 100
8, 7680, Note_on_c, 5, 62, 0
8, 7680, Note_on_c, 5, 55, 0
8, 7680, Note_on_c, 5, 67, 0
8, 7680, Note_on_c, 5, 64, 100
8, 7680, Note_on_c, 5, 57, 100
8, 7680, Note_on_c, 5, 69, 100
8, 7740, Note_on_c, 5, 69, 100
8, 7740, Note_on_c, 5, 64, 100
8, 7740, Note_on_c, 5, 57, 100
8, 7800, Note_on_c, 5, 57, 0
8, 7800, Note_on_c, 5, 57, 0
8, 7800, Note_on_c, 5, 69, 0
8, 7800, Note_on_c, 5, 64, 0
8, 7800, Note_on_c, 5, 64, 0
8, 7800, Note_on_c, 5, 69, 0
8, 7800, Note_on_c, 5, 69, 100
8, 7800, Note_on_c, 5, 64, 100
8, 7800, Note_on_c, 5, 57, 100
8, 7860, Note_on_c, 5, 57, 0
8, 7860, Note_on_c, 5, 64, 0
8, 7860, Note_on_c, 5, 69, 0
8, 7860, Note_on_c, 5, 69, 100
8, 7860, Note_on_c, 5, 64, 100
8, 7860, Note_on_c, 5, 57, 100
8, 7920, Note_on_c, 5, 57, 0
8, 7920, Note_on_c, 5, 64, 0
8, 7920, Note_on_c, 5, 69, 0
8, 7980, Note_on_c, 5, 67, 100
8, 7980, Note_on_c, 5, 55, 100
8, 7980, Note_on_c, 5, 62, 100
8, 8040, Note_on_c, 5, 62, 0
8, 8040, Note_on_c, 5, 55, 0
8, 8040, Note_on_c, 5, 67, 0
8, 8040, Note_on_c, 5, 67, 100
8, 8040, Note_on_c, 5, 55, 100
8, 8040, Note_on_c, 5, 62, 100
8, 8100, Note_on_c, 5, 62, 0
8, 8100, Note_on_c, 5, 55, 0
8, 8100, Note_on_c, 5, 67, 0
8, 8100, Note_on_c, 5, 67, 100
8, 8100, Note_on_c, 5, 55, 100
8, 8100, Note_on_c, 5, 62, 100
8, 8160, Note_on_c, 5, 62, 0
8, 8160, Note_on_c, 5, 55, 0
8, 8160, Note_on_c, 5, 67, 0
8, 8160, Note_on_c, 5, 64, 100
8, 8160, Note_on_c, 5, 57, 100
8, 8160, Note_on_c, 5, 69, 100
8, 8220, Note_on_c, 5, 69, 100
8, 8220, Note_on_c, 5, 64, 100
8, 8220, Note_on_c, 5, 57, 100
8, 8280, Note_on_c, 5, 57, 0
8, 8280, Note_on_c, 5, 57, 0
8, 8280, Note_on_c, 5, 69, 0
8, 8280, Note_on_c, 5, 64, 0
8, 8280, Note_on_c, 5, 64, 0
8, 8280, Note_on_c, 5, 69, 0
8, 8280, Note_on_c, 5, 69, 100
8, 8280, Note_on_c, 5, 64, 100
8, 8280, Note_on_c, 5, 57, 100
8, 8340, Note_on_c, 5, 57, 0
8, 8340, Note_on_c, 5, 64, 0
8, 8340, Note_on_c, 5, 69, 0
8, 8340, Note_on_c, 5, 69, 100
8, 8340, Note_on_c, 5, 64, 100
8, 8340, Note_on_c, 5, 57, 100
8, 8400, Note_on_c, 5, 57, 0
8, 8400, Note_on_c, 5, 64, 0
8, 8400, Note_on_c, 5, 69, 0
8, 8460, Note_on_c, 5, 67, 100
8, 8460, Note_on_c, 5, 55, 100
8, 8460, Note_on_c, 5, 62, 100
8, 8520, Note_on_c, 5, 62, 0
8, 8520, Note_on_c, 5, 55, 0
8, 8520, Note_on_c, 5, 67, 0
8, 8520, Note_on_c, 5, 67, 100
8, 8520, Note_on_c, 5, 55, 100
8, 8520, Note_on_c, 5, 62, 100
8, 8580, Note_on_c, 5, 62, 0
8, 8580, Note_on_c, 5, 55, 0
8, 8580, Note_on_c, 5, 67, 0
8, 8580, Note_on_c, 5, 67, 100
8, 8580, Note_on_c, 5, 55, 100
8, 8580, Note_on_c, 5, 62, 100
8, 8640, Note_on_c, 5, 62, 0
8, 8640, Note_on_c, 5, 55, 0
8, 8640, Note_on_c, 5, 67, 0
8, 8640, Note_on_c, 5, 64, 100
8, 8640, Note_on_c, 5, 57, 100
8, 8640, Note_on_c, 5, 69, 100
8, 8700, Note_on_c, 5, 69, 100
8, 8700, Note_on_c, 5, 64, 100
8, 8700, Note_on_c, 5, 57, 100
8, 8760, Note_on_c, 5, 57, 0
8, 8760, Note_on_c, 5, 57, 0
8, 8760, Note_on_c, 5, 69, 0
8, 8760, Note_on_c, 5, 64, 0
8, 8760, Note_on_c, 5, 64, 0
8, 8760, Note_on_c, 5, 69, 0
8, 8760, Note_on_c, 5, 69, 100
8, 8760, Note_on_c, 5, 64, 100
8, 8760, Note_on_c, 5, 57, 100
8, 8820, Note_on_c, 5, 57, 0
8, 8820, Note_on_c, 5, 64, 0
8, 8820, Note_on_c, 5, 69, 0
8, 8820, Note_on_c, 5, 69, 100
8, 8820, Note_on_c, 5, 64, 100
8, 8820, Note_on_c, 5, 57, 100
8, 8880, Note_on_c, 5, 57, 0
8, 8880, Note_on_c, 5, 64, 0
8, 8880, Note_on_c, 5, 69, 0
8, 8940, Note_on_c, 5, 67, 100
8, 8940, Note_on_c, 5, 55, 100
8, 8940, Note_on_c, 5, 62, 100
8, 9000, Note_on_c, 5, 62, 0
8, 9000, Note_on_c, 5, 55, 0
8, 9000, Note_on_c, 5, 67, 0
8, 9000, Note_on_c, 5, 67, 100
8, 9000, Note_on_c, 5, 55, 100
8, 9000, Note_on_c, 5, 62, 100
8, 9060, Note_on_c, 5, 62, 0
8, 9060, Note_on_c, 5, 55, 0
8, 9060, Note_on_c, 5, 67, 0
8, 9060, Note_on_c, 5, 67, 100
8, 9060, Note_on_c, 5, 55, 100
8, 9060, Note_on_c, 5, 62, 100
8, 9120, Note_on_c, 5, 62, 0
8, 9120, Note_on_c, 5, 55, 0
8, 9120, Note_on_c, 5, 67, 0
8, 9120, Note_on_c, 5, 64, 100
8, 9120, Note_on_c, 5, 57, 100
8, 9120, Note_on_c, 5, 69, 100
8, 9180, Note_on_c, 5, 69, 100
8, 9180, Note_on_c, 5, 64, 100
8, 9180, Note_on_c, 5, 57, 100
8, 9240, Note_on_c, 5, 57, 0
8, 9240, Note_on_c, 5, 57, 0
8, 9240, Note_on_c, 5, 69, 0
8, 9240, Note_on_c, 5, 64, 0
8, 9240, Note_on_c, 5, 64, 0
8, 9240, Note_on_c, 5, 69, 0
8, 9240, Note_on_c, 5, 69, 100
8, 9240, Note_on_c, 5, 64, 100
8, 9240, Note_on_c, 5, 57, 100
8, 9300, Note_on_c, 5, 57, 0
8, 9300, Note_on_c, 5, 64, 0
8, 9300, Note_on_c, 5, 69, 0
8, 9300, Note_on_c, 5, 69, 100
8, 9300, Note_on_c, 5, 64, 100
8, 9300, Note_on_c, 5, 57, 100
8, 9360, Note_on_c, 5, 57, 0
8, 9360, Note_on_c, 5, 64, 0
8, 9360, Note_on_c, 5, 69, 0
8, 9420, Note_on_c, 5, 67, 100
8, 9420, Note_on_c, 5, 55, 100
8, 9420, Note_on_c, 5, 62, 100
8, 9480, Note_on_c, 5, 62, 0
8, 9480, Note_on_c, 5, 55, 0
8, 9480, Note_on_c, 5, 67, 0
8, 9480, Note_on_c, 5, 67, 100
8, 9480, Note_on_c, 5, 55, 100
8, 9480, Note_on_c, 5, 62, 100
8, 9540, Note_on_c, 5, 62, 0
8, 9540, Note_on_c, 5, 55, 0
8, 9540, Note_on_c, 5, 67, 0
8, 9540, Note_on_c, 5, 67, 100
8, 9540, Note_on_c, 5, 55, 100
8, 9540, Note_on_c, 5, 62, 100
8, 9600, Note_on_c, 5, 62, 0
8, 9600, Note_on_c, 5, 55, 0
8, 9600, Note_on_c, 5, 67, 0
8, 9600, Note_on_c, 5, 64, 100
8, 9600, Note_on_c, 5, 57, 100
8, 9600, Note_on_c, 5, 69, 100
8, 9660, Note_on_c, 5, 69, 100
8, 9660, Note_on_c, 5, 64, 100
8, 9660, Note_on_c, 5, 57, 100
8, 9720, Note_on_c, 5, 57, 0
8, 9720, Note_on_c, 5, 57, 0
8, 9720, Note_on_c, 5, 69, 0
8, 9720, Note_on_c, 5, 64, 0
8, 9720, Note_on_c, 5, 64, 0
8, 9720, Note_on_c, 5, 69, 0
8, 9720, Note_on_c, 5, 69, 100
8, 9720, Note_on_c, 5, 64, 100
8, 9720, Note_on_c, 5, 57, 100
8, 9780, Note_on_c, 5, 57, 0
8, 9780, Note_on_c, 5, 64, 0
8, 9780, Note_on_c, 5, 69, 0
8, 9780, Note_on_c, 5, 69, 100
8, 9780, Note_on_c, 5, 64, 100
8, 9780, Note_on_c, 5, 57, 100
8, 9840, Note_on_c, 5, 57, 0
8, 9840, Note_on_c, 5, 64, 0
8, 9840, Note_on_c, 5, 69, 0
8, 9900, Note_on_c, 5, 67, 100
8, 9900, Note_on_c, 5, 55, 100
8, 9900, Note_on_c, 5, 62, 100
8, 9960, Note_on_c, 5, 62, 0
8, 9960, Note_on_c, 5, 55, 0
8, 9960, Note_on_c, 5, 67, 0
8, 9960, Note_on_c, 5, 67, 100
8, 9960, Note_on_c, 5, 55, 100
8, 9960, Note_on_c, 5, 62, 100
8, 10020, Note_on_c, 5, 62, 0
8, 10020, Note_on_c, 5, 55, 0
8, 10020, Note_on_c, 5, 67, 0
8, 10020, Note_on_c, 5, 67, 100
8, 10020, Note_on_c, 5, 55, 100
8, 10020, Note_on_c, 5, 62, 100
8, 10080, Note_on_c, 5, 62, 0
8, 10080, Note_on_c, 5, 55, 0
8, 10080, Note_on_c, 5, 67, 0
8, 10080, Note_on_c, 5, 64, 100
8, 10080, Note_on_c, 5, 57, 100
8, 10080, Note_on_c, 5, 69, 100
8, 10140, Note_on_c, 5, 69, 100
8, 10140, Note_on_c, 5, 64, 100
8, 10140, Note_on_c, 5, 57, 100
8, 10200, Note_on_c, 5, 57, 0
8, 10200, Note_on_c, 5, 57, 0
8, 10200, Note_on_c, 5, 69, 0
8, 10200, Note_on_c, 5, 64, 0
8, 10200, Note_on_c, 5, 64, 0
8, 10200, Note_on_c, 5, 69, 0
8, 10200, Note_on_c, 5, 69, 100
8, 10200, Note_on_c, 5, 64, 100
8, 10200, Note_on_c, 5, 57, 100
8, 10260, Note_on_c, 5, 57, 0
8, 10260, Note_on_c, 5, 64, 0
8, 10260, Note_on_c, 5, 69, 0
8, 10260, Note_on_c, 5, 69, 100
8, 10260, Note_on_c, 5, 64, 100
8, 10260, Note_on_c, 5, 57, 100
8, 10320, Note_on_c, 5, 57, 0
8, 10320, Note_on_c, 5, 64, 0
8, 10320, Note_on_c, 5, 69, 0
8, 10380, Note_on_c, 5, 67, 100
8, 10380, Note_on_c, 5, 55, 100
8, 10380, Note_on_c, 5, 62, 100
8, 10440, Note_on_c, 5, 62, 0
8, 10440, Note_on_c, 5, 55, 0
8, 10440, Note_on_c, 5, 67, 0
8, 10440, Note_on_c, 5, 67, 100
8, 10440, Note_on_c, 5, 55, 100
8, 10440, Note_on_c, 5, 62, 100
8, 10500, Note_on_c, 5, 62, 0
8, 10500, Note_on_c, 5, 55, 0
8, 10500, Note_on_c, 5, 67, 0
8, 10500, Note_on_c, 5, 67, 100
8, 10500, Note_on_c, 5, 55, 100
8, 10500, Note_on_c, 5, 62, 100
8, 10560, Note_on_c, 5, 62, 0
8, 10560, Note_on_c, 5, 55, 0
8, 10560, Note_on_c, 5, 67, 0
8, 10560, Note_on_c, 5, 64, 100
8, 10560, Note_on_c, 5, 57, 100
8, 10560, Note_on_c, 5, 69, 100
8, 10620, Note_on_c, 5, 69, 100
8, 10620, Note_on_c, 5, 64, 100
8, 10620, Note_on_c, 5, 57, 100
8, 10680, Note_on_c, 5, 57, 0
8, 10680, Note_on_c, 5, 57, 0
8, 10680, Note_on_c, 5, 69, 0
8, 10680, Note_on_c, 5, 64, 0
8, 10680, Note_on_c, 5, 64, 0
8, 10680, Note_on_c, 5, 69, 0
8, 10680, Note_on_c, 5, 69, 100
8, 10680, Note_on_c, 5, 64, 100
8, 10680, Note_on_c, 5, 57, 100
8, 10740, Note_on_c, 5, 57, 0
8, 10740, Note_on_c, 5, 64, 0
8, 10740, Note_on_c, 5, 69, 0
8, 10740, Note_on_c, 5, 69, 100
8, 10740, Note_on_c, 5, 64, 100
8, 10740, Note_on_c, 5, 57, 100
8, 10800, Note_on_c, 5, 57, 0
8, 10800, Note_on_c, 5, 64, 0
8, 10800, Note_on_c, 5, 69, 0
8, 10860, Note_on_c, 5, 67, 100
8, 10860, Note_on_c, 5, 55, 100
8, 10860, Note_on_c, 5, 62, 100
8, 10920, Note_on_c, 5, 62, 0
8, 10920, Note_on_c, 5, 55, 0
8, 10920, Note_on_c, 5, 67, 0
8, 10920, Note_on_c, 5, 67, 100
8, 10920, Note_on_c, 5, 55, 100
8, 10920, Note_on_c, 5, 62, 100
8, 10980, Note_on_c, 5, 62, 0
8, 10980, Note_on_c, 5, 55, 0
8, 10980, Note_on_c, 5, 67, 0
8, 10980, Note_on_c, 5, 67, 100
8, 10980, Note_on_c, 5, 55, 100
8, 10980, Note_on_c, 5, 62, 100
8, 11040, Note_on_c, 5, 62, 0
8, 11040, Note_on_c, 5, 55, 0
8, 11040, Note_on_c, 5, 67, 0
8, 11040, Note_on_c, 5, 64, 100
8, 11040, Note_on_c, 5, 57, 100
8, 11040, Note_on_c, 5, 69, 100
8, 11100, Note_on_c, 5, 69, 100
8, 11100, Note_on_c, 5, 64, 100
8, 11100, Note_on_c, 5, 57, 100
8, 11160, Note_on_c, 5, 57, 0
8, 11160, Note_on_c, 5, 57, 0
8, 11160, Note_on_c, 5, 69, 0
8, 11160, Note_on_c, 5, 64, 0
8, 11160, Note_on_c, 5, 64, 0
8, 11160, Note_on_c, 5, 69, 0
8, 11160, Note_on_c, 5, 69, 100
8, 11160, Note_on_c, 5, 64, 100
8, 11160, Note_on_c, 5, 57, 100
8, 11220, Note_on_c, 5, 57, 0
8, 11220, Note_on_c, 5, 64, 0
8, 11220, Note_on_c, 5, 69, 0
8, 11220, Note_on_c, 5, 69, 100
8, 11220, Note_on_c, 5, 64, 100
8, 11220, Note_on_c, 5, 57, 100
8, 11280, Note_on_c, 5, 57, 0
8, 11280, Note_on_c, 5, 64, 0
8, 11280, Note_on_c, 5, 69, 0
8, 11340, Note_on_c, 5, 67, 100
8, 11340, Note_on_c, 5, 55, 100
8, 11340, Note_on_c, 5, 62, 100
8, 11400, Note_on_c, 5, 62, 0
8, 11400, Note_on_c, 5, 55, 0
8, 11400, Note_on_c, 5, 67, 0
8, 11400, Note_on_c, 5, 67, 100
8, 11400, Note_on_c, 5, 55, 100
8, 11400, Note_on_c, 5, 62, 100
8, 11460, Note_on_c, 5, 62, 0
8, 11460, Note_on_c, 5, 55, 0
8, 11460, Note_on_c, 5, 67, 0
8, 11460, Note_on_c, 5, 67, 100
8, 11460, Note_on_c, 5, 55, 100
8, 11460, Note_on_c, 5, 62, 100
8, 11520, Note_on_c, 5, 62, 0
8, 11520, Note_on_c, 5, 55, 0
8, 11520, Note_on_c, 5, 67, 0
8, 11520, Note_on_c, 5, 64, 100
8, 11520, Note_on_c, 5, 57, 100
8, 11520, Note_on_c, 5, 69, 100
8, 11580, Note_on_c, 5, 69, 100
8, 11580, Note_on_c, 5, 64, 100
8, 11580, Note_on_c, 5, 57, 100
8, 11640, Note_on_c, 5, 57, 0
8, 11640, Note_on_c, 5, 57, 0
8, 11640, Note_on_c, 5, 69, 0
8, 11640, Note_on_c, 5, 64, 0
8, 11640, Note_on_c, 5, 64, 0
8, 11640, Note_on_c, 5, 69, 0
8, 11640, Note_on_c, 5, 69, 100
8, 11640, Note_on_c, 5, 64, 100
8, 11640, Note_on_c, 5, 57, 100
8, 11700, Note_on_c, 5, 57, 0
8, 11700, Note_on_c, 5, 64, 0
8, 11700, Note_on_c, 5, 69, 0
8, 11700, Note_on_c, 5, 69, 100
8, 11700, Note_on_c, 5, 64, 100
8, 11700, Note_on_c, 5, 57, 100
8, 11760, Note_on_c, 5, 57, 0
8, 11760, Note_on_c, 5, 64, 0
8, 11760, Note_on_c, 5, 69, 0
8, 11820, Note_on_c, 5, 67, 100
8, 11820, Note_on_c, 5, 55, 100
8, 11820, Note_on_c, 5, 62, 100
8, 11880, Note_on_c, 5, 62, 0
8, 11880, Note_on_c, 5, 55, 0
8, 11880, Note_on_c, 5, 67, 0
8, 11880, Note_on_c, 5, 67, 100
8, 11880, Note_on_c, 5, 55, 100
8, 11880, Note_on_c, 5, 62, 100
8, 11940, Note_on_c, 5, 62, 0
8, 11940, Note_on_c, 5, 55, 0
8, 11940, Note_on_c, 5, 67, 0
8, 11940, Note_on_c, 5, 67, 100
8, 11940, Note_on_c, 5, 55, 100
8, 11940, Note_on_c, 5, 62, 100
8, 12000, Note_on_c, 5, 62, 0
8, 12000, Note_on_c, 5, 55, 0
8, 12000, Note_on_c, 5, 67, 0
8, 12000, Note_on_c, 5, 64, 100
8, 12000, Note_on_c, 5, 57, 100
8, 12000, Note_on_c, 5, 69, 100
8, 12060, Note_on_c, 5, 69, 100
8, 12060, Note_on_c, 5, 64, 100
8, 12060, Note_on_c, 5, 57, 100
8, 12120, Note_on_c, 5, 57, 0
8, 12120, Note_on_c, 5, 57, 0
8, 12120, Note_on_c, 5, 69, 0
8, 12120, Note_on_c, 5, 64, 0
8, 12120, Note_on_c, 5, 64, 0
8, 12120, Note_on_c, 5, 69, 0
8, 12120, Note_on_c, 5, 69, 100
8, 12120, Note_on_c, 5, 64, 100
8, 12120, Note_on_c, 5, 57, 100
8, 12180, Note_on_c, 5, 57, 0
8, 12180, Note_on_c, 5, 64, 0
8, 12180, Note_on_c, 5, 69, 0
8, 12180, Note_on_c, 5, 69, 100
8, 12180, Note_on_c, 5, 64, 100
8, 12180, Note_on_c, 5, 57, 100
8, 12240, Note_on_c, 5, 57, 0
8, 12240, Note_on_c, 5, 64, 0
8, 12240, Note_on_c, 5, 69, 0
8, 12300, Note_on_c, 5, 67, 100
8, 12300, Note_on_c, 5, 55, 100
8, 12300, Note_on_c, 5, 62, 100
8, 12360, Note_on_c, 5, 62, 0
8, 12360, Note_on_c, 5, 55, 0
8, 12360, Note_on_c, 5, 67, 0
8, 12360, Note_on_c, 5, 67, 100
8, 12360, Note_on_c, 5, 55, 100
8, 12360, Note_on_c, 5, 62, 100
8, 12420, Note_on_c, 5, 62, 0
8, 12420, Note_on_c, 5, 55, 0
8, 12420, Note_on_c, 5, 67, 0
8, 12420, Note_on_c, 5, 67, 100
8, 12420, Note_on_c, 5, 55, 100
8, 12420, Note_on_c, 5, 62, 100
8, 12480, Note_on_c, 5, 62, 0
8, 12480, Note_on_c, 5, 55, 0
8, 12480, Note_on_c, 5, 67, 0
8, 12480, Note_on_c, 5, 71, 100
8, 12480, Note_on_c, 5, 66, 100
8, 12480, Note_on_c, 5, 59, 100
8, 12540, Note_on_c, 5, 59, 0
8, 12540, Note_on_c, 5, 66, 0
8, 12540, Note_on_c, 5, 71, 0
8, 12540, Note_on_c, 5, 66, 100
8, 12540, Note_on_c, 5, 59, 100
8, 12600, Note_on_c, 5, 59, 0
8, 12600, Note_on_c, 5, 66, 0
8, 12600, Note_on_c, 5, 66, 100
8, 12600, Note_on_c, 5, 59, 100
8, 12660, Note_on_c, 5, 59, 0
8, 12660, Note_on_c, 5, 66, 0
8, 12660, Note_on_c, 5, 66, 100
8, 12660, Note_on_c, 5, 59, 100
8, 12720, Note_on_c, 5, 59, 0
8, 12720, Note_on_c, 5, 66, 0
8, 12720, Note_on_c, 5, 66, 100
8, 12720, Note_on_c, 5, 59, 100
8, 12780, Note_on_c, 5, 59, 0
8, 12780, Note_on_c, 5, 66, 0
8, 12780, Note_on_c, 5, 66, 100
8, 12780, Note_on_c, 5, 59, 100
8, 12840, Note_on_c, 5, 59, 0
8, 12840, Note_on_c, 5, 66, 0
8, 12840, Note_on_c, 5, 66, 100
8, 12840, Note_on_c, 5, 59, 100
8, 12900, Note_on_c, 5, 59, 0
8, 12900, Note_on_c, 5, 66, 0
8, 12900, Note_on_c, 5, 66, 100
8, 12900, Note_on_c, 5, 59, 100
8, 12960, Note_on_c, 5, 59, 0
8, 12960, Note_on_c, 5, 66, 0
8, 12960, Note_on_c, 5, 61, 100
8, 12960, Note_on_c, 5, 66, 100
8, 13020, Note_on_c, 5, 66, 0
8, 13020, Note_on_c, 5, 61, 0
8, 13020, Note_on_c, 5, 61, 100
8, 13020, Note_on_c, 5, 66, 100
8, 13080, Note_on_c, 5, 66, 0
8, 13080, Note_on_c, 5, 61, 0
8, 13080, Note_on_c, 5, 61, 100
8, 13080, Note_on_c, 5, 66, 100
8, 13140, Note_on_c, 5, 66, 0
8, 13140, Note_on_c, 5, 61, 0
8, 13140, Note_on_c, 5, 61, 100
8, 13140, Note_on_c, 5, 66, 100
8, 13200, Note_on_c, 5, 66, 0
8, 13200, Note_on_c, 5, 61, 0
8, 13200, Note_on_c, 5, 61, 100
8, 13200, Note_on_c, 5, 66, 100
8, 13260, Note_on_c, 5, 66, 0
8, 13260, Note_on_c, 5, 61, 0
8, 13260, Note_on_c, 5, 61, 100
8, 13260, Note_on_c, 5, 66, 100
8, 13320, Note_on_c, 5, 66, 0
8, 13320, Note_on_c, 5, 61, 0
8, 13320, Note_on_c, 5, 61, 100
8, 13320, Note_on_c, 5, 66, 100
8, 13380, Note_on_c, 5, 66, 0
8, 13380, Note_on_c, 5, 61, 0
8, 13380, Note_on_c, 5, 61, 100
8, 13380, Note_on_c, 5, 66, 100
8, 13440, Note_on_c, 5, 66, 0
8, 13440, Note_on_c, 5, 61, 0
8, 13440, Note_on_c, 5, 67, 100
8, 13440, Note_on_c, 5, 55, 100
8, 13440, Note_on_c, 5, 62, 100
8, 13500, Note_on_c, 5, 62, 0
8, 13500, Note_on_c, 5, 55, 0
8, 13500, Note_on_c, 5, 67, 0
8, 13500, Note_on_c, 5, 67, 100
8, 13500, Note_on_c, 5, 62, 100
8, 13500, Note_on_c, 5, 55, 100
8, 13560, Note_on_c, 5, 55, 0
8, 13560, Note_on_c, 5, 62, 0
8, 13560, Note_on_c, 5, 67, 0
8, 13560, Note_on_c, 5, 67, 100
8, 13560, Note_on_c, 5, 62, 100
8, 13560, Note_on_c, 5, 55, 100
8, 13620, Note_on_c, 5, 55, 0
8, 13620, Note_on_c, 5, 62, 0
8, 13620, Note_on_c, 5, 67, 0
8, 13620, Note_on_c, 5, 67, 100
8, 13620, Note_on_c, 5, 62, 100
8, 13620, Note_on_c, 5, 55, 100
8, 13680, Note_on_c, 5, 55, 0
8, 13680, Note_on_c, 5, 62, 0
8, 13680, Note_on_c, 5, 67, 0
8, 13680, Note_on_c, 5, 67, 100
8, 13680, Note_on_c, 5, 62, 100
8, 13680, Note_on_c, 5, 55, 100
8, 13740, Note_on_c, 5, 55, 0
8, 13740, Note_on_c, 5, 62, 0
8, 13740, Note_on_c, 5, 67, 0
8, 13740, Note_on_c, 5, 67, 100
8, 13740, Note_on_c, 5, 62, 100
8, 13740, Note_on_c, 5, 55, 100
8, 13800, Note_on_c, 5, 55, 0
8, 13800, Note_on_c, 5, 62, 0
8, 13800, Note_on_c, 5, 67, 0
8, 13800, Note_on_c, 5, 67, 100
8, 13800, Note_on_c, 5, 62, 100
8, 13800, Note_on_c, 5, 55, 100
8, 13860, Note_on_c, 5, 55, 0
8, 13860, Note_on_c, 5, 62, 0
8, 13860, Note_on_c, 5, 67, 0
8, 13860, Note_on_c, 5, 67, 100
8, 13860, Note_on_c, 5, 62, 100
8, 13860, Note_on_c, 5, 55, 100
8, 13920, Note_on_c, 5, 55, 0
8, 13920, Note_on_c, 5, 62, 0
8, 13920, Note_on_c, 5, 67, 0
8, 13920, Note_on_c, 5, 65, 100
8, 13920, Note_on_c, 5, 60, 100
8, 13920, Note_on_c, 5, 53, 100
8, 13980, Note_on_c, 5, 53, 0
8, 13980, Note_on_c, 5, 60, 0
8, 13980, Note_on_c, 5, 65, 0
8, 13980, Note_on_c, 5, 65, 100
8, 13980, Note_on_c, 5, 60, 100
8, 13980, Note_on_c, 5, 53, 100
8, 14040, Note_on_c, 5, 53, 0
8, 14040, Note_on_c, 5, 60, 0
8, 14040, Note_on_c, 5, 65, 0
8, 14040, Note_on_c, 5, 65, 100
8, 14040, Note_on_c, 5, 60, 100
8, 14040, Note_on_c, 5, 53, 100
8, 14100, Note_on_c, 5, 53, 0
8, 14100, Note_on_c, 5, 60, 0
8, 14100, Note_on_c, 5, 65, 0
8, 14100, Note_on_c, 5, 65, 100
8, 14100, Note_on_c, 5, 60, 100
8, 14100, Note_on_c, 5, 53, 100
8, 14160, Note_on_c, 5, 53, 0
8, 14160, Note_on_c, 5, 60, 0
8, 14160, Note_on_c, 5, 65, 0
8, 14160, Note_on_c, 5, 65, 100
8, 14160, Note_on_c, 5, 60, 100
8, 14160, Note_on_c, 5, 53, 100
8, 14220, Note_on_c, 5, 53, 0
8, 14220, Note_on_c, 5, 60, 0
8, 14220, Note_on_c, 5, 65, 0
8, 14220, Note_on_c, 5, 65, 100
8, 14220, Note_on_c, 5, 60, 100
8, 14220, Note_on_c, 5, 53, 100
8, 14280, Note_on_c, 5, 53, 0
8, 14280, Note_on_c, 5, 60, 0
8, 14280, Note_on_c, 5, 65, 0
8, 14280, Note_on_c, 5, 65, 100
8, 14280, Note_on_c, 5, 60, 100
8, 14280, Note_on_c, 5, 53, 100
8, 14340, Note_on_c, 5, 53, 0
8, 14340, Note_on_c, 5, 60, 0
8, 14340, Note_on_c, 5, 65, 0
8, 14340, Note_on_c, 5, 65, 100
8, 14340, Note_on_c, 5, 60, 100
8, 14340, Note_on_c, 5, 53, 100
8, 14400, Note_on_c, 5, 53, 0
8, 14400, Note_on_c, 5, 60, 0
8, 14400, Note_on_c, 5, 65, 0
8, 14400, Note_on_c, 5, 71, 100
8, 14400, Note_on_c, 5, 66, 100
8, 14400, Note_on_c, 5, 59, 100
8, 14460, Note_on_c, 5, 59, 0
8, 14460, Note_on_c, 5, 66, 0
8, 14460, Note_on_c, 5, 71, 0
8, 14460, Note_on_c, 5, 66, 100
8, 14460, Note_on_c, 5, 59, 100
8, 14520, Note_on_c, 5, 59, 0
8, 14520, Note_on_c, 5, 66, 0
8, 14520, Note_on_c, 5, 66, 100
8, 14520, Note_on_c, 5, 59, 100
8, 14580, Note_on_c, 5, 59, 0
8, 14580, Note_on_c, 5, 66, 0
8, 14580, Note_on_c, 5, 66, 100
8, 14580, Note_on_c, 5, 59, 100
8, 14640, Note_on_c, 5, 59, 0
8, 14640, Note_on_c, 5, 66, 0
8, 14640, Note_on_c, 5, 66, 100
8, 14640, Note_on_c, 5, 59, 100
8, 14700, Note_on_c, 5, 59, 0
8, 14700, Note_on_c, 5, 66, 0
8, 14700, Note_on_c, 5, 66, 100
8, 14700, Note_on_c, 5, 59, 100
8, 14760, Note_on_c, 5, 59, 0
8, 14760, Note_on_c, 5, 66, 0
8, 14760, Note_on_c, 5, 66, 100
8, 14760, Note_on_c, 5, 59, 100
8, 14820, Note_on_c, 5, 59, 0
8, 14820, Note_on_c, 5, 66, 0
8, 14820, Note_on_c, 5, 66, 100
8, 14820, Note_on_c, 5, 59, 100
8, 14880, Note_on_c, 5, 59, 0
8, 14880, Note_on_c, 5, 66, 0
8, 14880, Note_on_c, 5, 61, 100
8, 14880, Note_on_c, 5, 66, 100
8, 14940, Note_on_c, 5, 66, 0
8, 14940, Note_on_c, 5, 61, 0
8, 14940, Note_on_c, 5, 61, 100
8, 14940, Note_on_c, 5, 66, 100
8, 15000, Note_on_c, 5, 66, 0
8, 15000, Note_on_c, 5, 61, 0
8, 15000, Note_on_c, 5, 61, 100
8, 15000, Note_on_c, 5, 66, 100
8, 15060, Note_on_c, 5, 66, 0
8, 15060, Note_on_c, 5, 61, 0
8, 15060, Note_on_c, 5, 61, 100
8, 15060, Note_on_c, 5, 66, 100
8, 15120, Note_on_c, 5, 66, 0
8, 15120, Note_on_c, 5, 61, 0
8, 15120, Note_on_c, 5, 61, 100
8, 15120, Note_on_c, 5, 66, 100
8, 15180, Note_on_c, 5, 66, 0
8, 15180, Note_on_c, 5, 61, 0
8, 15180, Note_on_c, 5, 61, 100
8, 15180, Note_on_c, 5, 66, 100
8, 15240, Note_on_c, 5, 66, 0
8, 15240, Note_on_c, 5, 61, 0
8, 15240, Note_on_c, 5, 61, 100
8, 15240, Note_on_c, 5, 66, 100
8, 15300, Note_on_c, 5, 66, 0
8, 15300, Note_on_c, 5, 61, 0
8, 15300, Note_on_c, 5, 61, 100
8, 15300, Note_on_c, 5, 66, 100
8, 15360, Note_on_c, 5, 66, 0
8, 15360, Note_on_c, 5, 61, 0
8, 15360, Note_on_c, 5, 67, 100
8, 15360, Note_on_c, 5, 55, 100
8, 15360, Note_on_c, 5, 62, 100
8, 15420, Note_on_c, 5, 62, 0
8, 15420, Note_on_c, 5, 55, 0
8, 15420, Note_on_c, 5, 67, 0
8, 15420, Note_on_c, 5, 67, 100
8, 15420, Note_on_c, 5, 62, 100
8, 15420, Note_on_c, 5, 55, 100
8, 15480, Note_on_c, 5, 55, 0
8, 15480, Note_on_c, 5, 62, 0
8, 15480, Note_on_c, 5, 67, 0
8, 15480, Note_on_c, 5, 67, 100
8, 15480, Note_on_c, 5, 62, 100
8, 15480, Note_on_c, 5, 55, 100
8, 15540, Note_on_c, 5, 55, 0
8, 15540, Note_on_c, 5, 62, 0
8, 15540, Note_on_c, 5, 67, 0
8, 15540, Note_on_c, 5, 67, 100
8, 15540, Note_on_c, 5, 62, 100
8, 15540, Note_on_c, 5, 55, 100
8, 15600, Note_on_c, 5, 55, 0
8, 15600, Note_on_c, 5, 62, 0
8, 15600, Note_on_c, 5, 67, 0
8, 15600, Note_on_c, 5, 67, 100
8, 15600, Note_on_c, 5, 62, 100
8, 15600, Note_on_c, 5, 55, 100
8, 15660, Note_on_c, 5, 55, 0
8, 15660, Note_on_c, 5, 62, 0
8, 15660, Note_on_c, 5, 67, 0
8, 15660, Note_on_c, 5, 67, 100
8, 15660, Note_on_c, 5, 62, 100
8, 15660, Note_on_c, 5, 55, 100
8, 15720, Note_on_c, 5, 55, 0
8, 15720, Note_on_c, 5, 62, 0
8, 15720, Note_on_c, 5, 67, 0
8, 15720, Note_on_c, 5, 67, 100
8, 15720, Note_on_c, 5, 62, 100
8, 15720, Note_on_c, 5, 55, 100
8, 15780, Note_on_c, 5, 55, 0
8, 15780, Note_on_c, 5, 62, 0
8, 15780, Note_on_c, 5, 67, 0
8, 15780, Note_on_c, 5, 67, 100
8, 15780, Note_on_c, 5, 62, 100
8, 15780, Note_on_c, 5, 55, 100
8, 15840, Note_on_c, 5, 55, 0
8, 15840, Note_on_c, 5, 62, 0
8, 15840, Note_on_c, 5, 67, 0
8, 15840, Note_on_c, 5, 65, 100
8, 15840, Note_on_c, 5, 60, 100
8, 15840, Note_on_c, 5, 53, 100
8, 15900, Note_on_c, 5, 53, 0
8, 15900, Note_on_c, 5, 60, 0
8, 15900, Note_on_c, 5, 65, 0
8, 15900, Note_on_c, 5, 65, 100
8, 15900, Note_on_c, 5, 60, 100
8, 15900, Note_on_c, 5, 53, 100
8, 15960, Note_on_c, 5, 53, 0
8, 15960, Note_on_c, 5, 60, 0
8, 15960, Note_on_c, 5, 65, 0
8, 15960, Note_on_c, 5, 65, 100
8, 15960, Note_on_c, 5, 60, 100
8, 15960, Note_on_c, 5, 53, 100
8, 16020, Note_on_c, 5, 53, 0
8, 16020, Note_on_c, 5, 60, 0
8, 16020, Note_on_c, 5, 65, 0
8, 16020, Note_on_c, 5, 65, 100
8, 16020, Note_on_c, 5, 60, 100
8, 16020, Note_on_c, 5, 53, 100
8, 16080, Note_on_c, 5, 53, 0
8, 16080, Note_on_c, 5, 60, 0
8, 16080, Note_on_c, 5, 65, 0
8, 16080, Note_on_c, 5, 65, 100
8, 16080, Note_on_c, 5, 60, 100
8, 16080, Note_on_c, 5, 53, 100
8, 16140, Note_on_c, 5, 53, 0
8, 16140, Note_on_c, 5, 60, 0
8, 16140, Note_on_c, 5, 65, 0
8, 16140, Note_on_c, 5, 65, 100
8, 16140, Note_on_c, 5, 60, 100
8, 16140, Note_on_c, 5, 53, 100
8, 16200, Note_on_c, 5, 53, 0
8, 16200, Note_on_c, 5, 60, 0
8, 16200, Note_on_c, 5, 65, 0
8, 16200, Note_on_c, 5, 65, 100
8, 16200, Note_on_c, 5, 60, 100
8, 16200, Note_on_c, 5, 53, 100
8, 16260, Note_on_c, 5, 53, 0
8, 16260, Note_on_c, 5, 60, 0
8, 16260, Note_on_c, 5, 65, 0
8, 16260, Note_on_c, 5, 65, 100
8, 16260, Note_on_c, 5, 60, 100
8, 16260, Note_on_c, 5, 53, 100
8, 16320, Note_on_c, 5, 53, 0
8, 16320, Note_on_c, 5, 60, 0
8, 16320, Note_on_c, 5, 65, 0
8, 16800, Note_on_c, 5, 64, 100
8, 16800, Note_on_c, 5, 57, 100
8, 16800, Note_on_c, 5, 69, 100
8, 16860, Note_on_c, 5, 69, 100
8, 16860, Note_on_c, 5, 64, 100
8, 16860, Note_on_c, 5, 57, 100
8, 16920, Note_on_c, 5, 57, 0
8, 16920, Note_on_c, 5, 57, 0
8, 16920, Note_on_c, 5, 69, 0
8, 16920, Note_on_c, 5, 64, 0
8, 16920, Note_on_c, 5, 64, 0
8, 16920, Note_on_c, 5, 69, 0
8, 16920, Note_on_c, 5, 69, 100
8, 16920, Note_on_c, 5, 64, 100
8, 16920, Note_on_c, 5, 57, 100
8, 16980, Note_on_c, 5, 57, 0
8, 16980, Note_on_c, 5, 64, 0
8, 16980, Note_on_c, 5, 69, 0
8, 16980, Note_on_c, 5, 69, 100
8, 16980, Note_on_c, 5, 64, 100
8, 16980, Note_on_c, 5, 57, 100
8, 17040, Note_on_c, 5, 57, 0
8, 17040, Note_on_c, 5, 64, 0
8, 17040, Note_on_c, 5, 69, 0
8, 17100, Note_on_c, 5, 67, 100
8, 17100, Note_on_c, 5, 55, 100
8, 17100, Note_on_c, 5, 62, 100
8, 17160, Note_on_c, 5, 62, 0
8, 17160, Note_on_c, 5, 55, 0
8, 17160, Note_on_c, 5, 67, 0
8, 17160, Note_on_c, 5, 67, 100
8, 17160, Note_on_c, 5, 55, 100
8, 17160, Note_on_c, 5, 62, 100
8, 17220, Note_on_c, 5, 62, 0
8, 17220, Note_on_c, 5, 55, 0
8, 17220, Note_on_c, 5, 67, 0
8, 17220, Note_on_c, 5, 67, 100
8, 17220, Note_on_c, 5, 55, 100
8, 17220, Note_on_c, 5, 62, 100
8, 17280, Note_on_c, 5, 62, 0
8, 17280, Note_on_c, 5, 55, 0
8, 17280, Note_on_c, 5, 67, 0
8, 17280, Note_on_c, 5, 64, 100
8, 17280, Note_on_c, 5, 57, 100
8, 17280, Note_on_c, 5, 69, 100
8, 17340, Note_on_c, 5, 69, 100
8, 17340, Note_on_c, 5, 64, 100
8, 17340, Note_on_c, 5, 57, 100
8, 17400, Note_on_c, 5, 57, 0
8, 17400, Note_on_c, 5, 57, 0
8, 17400, Note_on_c, 5, 69, 0
8, 17400, Note_on_c, 5, 64, 0
8, 17400, Note_on_c, 5, 64, 0
8, 17400, Note_on_c, 5, 69, 0
8, 17400, Note_on_c, 5, 69, 100
8, 17400, Note_on_c, 5, 64, 100
8, 17400, Note_on_c, 5, 57, 100
8, 17460, Note_on_c, 5, 57, 0
8, 17460, Note_on_c, 5, 64, 0
8, 17460, Note_on_c, 5, 69, 0
8, 17460, Note_on_c, 5, 69, 100
8, 17460, Note_on_c, 5, 64, 100
8, 17460, Note_on_c, 5, 57, 100
8, 17520, Note_on_c, 5, 57, 0
8, 17520, Note_on_c, 5, 64, 0
8, 17520, Note_on_c, 5, 69, 0
8, 17580, Note_on_c, 5, 67, 100
8, 17580, Note_on_c, 5, 55, 100
8, 17580, Note_on_c, 5, 62, 100
8, 17640, Note_on_c, 5, 62, 0
8, 17640, Note_on_c, 5, 55, 0
8, 17640, Note_on_c, 5, 67, 0
8, 17640, Note_on_c, 5, 67, 100
8, 17640, Note_on_c, 5, 55, 100
8, 17640, Note_on_c, 5, 62, 100
8, 17700, Note_on_c, 5, 62, 0
8, 17700, Note_on_c, 5, 55, 0
8, 17700, Note_on_c, 5, 67, 0
8, 17700, Note_on_c, 5, 67, 100
8, 17700, Note_on_c, 5, 55, 100
8, 17700, Note_on_c, 5, 62, 100
8, 17760, Note_on_c, 5, 62, 0
8, 17760, Note_on_c, 5, 55, 0
8, 17760, Note_on_c, 5, 67, 0
8, 18240, Note_on_c, 5, 64, 100
8, 18240, Note_on_c, 5, 57, 100
8, 18240, Note_on_c, 5, 69, 100
8, 18300, Note_on_c, 5, 69, 100
8, 18300, Note_on_c, 5, 64, 100
8, 18300, Note_on_c, 5, 57, 100
8, 18360, Note_on_c, 5, 57, 0
8, 18360, Note_on_c, 5, 57, 0
8, 18360, Note_on_c, 5, 69, 0
8, 18360, Note_on_c, 5, 64, 0
8, 18360, Note_on_c, 5, 64, 0
8, 18360, Note_on_c, 5, 69, 0
8, 18360, Note_on_c, 5, 69, 100
8, 18360, Note_on_c, 5, 64, 100
8, 18360, Note_on_c, 5, 57, 100
8, 18420, Note_on_c, 5, 57, 0
8, 18420, Note_on_c, 5, 64, 0
8, 18420, Note_on_c, 5, 69, 0
8, 18420, Note_on_c, 5, 69, 100
8, 18420, Note_on_c, 5, 64, 100
8, 18420, Note_on_c, 5, 57, 100
8, 18480, Note_on_c, 5, 57, 0
8, 18480, Note_on_c, 5, 64, 0
8, 18480, Note_on_c, 5, 69, 0
8, 18540, Note_on_c, 5, 67, 100
8, 18540, Note_on_c, 5, 55, 100
8, 18540, Note_on_c, 5, 62, 100
8, 18600, Note_on_c, 5, 62, 0
8, 18600, Note_on_c, 5, 55, 0
8, 18600, Note_on_c, 5, 67, 0
8, 18600, Note_on_c, 5, 67, 100
8, 18600, Note_on_c, 5, 55, 100
8, 18600, Note_on_c, 5, 62, 100
8, 18660, Note_on_c, 5, 62, 0
8, 18660, Note_on_c, 5, 55, 0
8, 18660, Note_on_c, 5, 67, 0
8, 18660, Note_on_c, 5, 67, 100
8, 18660, Note_on_c, 5, 55, 100
8, 18660, Note_on_c, 5, 62, 100
8, 18720, Note_on_c, 5, 62, 0
8, 18720, Note_on_c, 5, 55, 0
8, 18720, Note_on_c, 5, 67, 0
8, 18720, Note_on_c, 5, 64, 100
8, 18720, Note_on_c, 5, 57, 100
8, 18720, Note_on_c, 5, 69, 100
8, 18780, Note_on_c, 5, 69, 100
8, 18780, Note_on_c, 5, 64, 100
8, 18780, Note_on_c, 5, 57, 100
8, 18840, Note_on_c, 5, 57, 0
8, 18840, Note_on_c, 5, 57, 0
8, 18840, Note_on_c, 5, 69, 0
8, 18840, Note_on_c, 5, 64, 0
8, 18840, Note_on_c, 5, 64, 0
8, 18840, Note_on_c, 5, 69, 0
8, 18840, Note_on_c, 5, 69, 100
8, 18840, Note_on_c, 5, 64, 100
8, 18840, Note_on_c, 5, 57, 100
8, 18900, Note_on_c, 5, 57, 0
8, 18900, Note_on_c, 5, 64, 0
8, 18900, Note_on_c, 5, 69, 0
8, 18900, Note_on_c, 5, 69, 100
8, 18900, Note_on_c, 5, 64, 100
8, 18900, Note_on_c, 5, 57, 100
8, 18960, Note_on_c, 5, 57, 0
8, 18960, Note_on_c, 5, 64, 0
8, 18960, Note_on_c, 5, 69, 0
8, 19020, Note_on_c, 5, 67, 100
8, 19020, Note_on_c, 5, 55, 100
8, 19020, Note_on_c, 5, 62, 100
8, 19080, Note_on_c, 5, 62, 0
8, 19080, Note_on_c, 5, 55, 0
8, 19080, Note_on_c, 5, 67, 0
8, 19080, Note_on_c, 5, 67, 100
8, 19080, Note_on_c, 5, 55, 100
8, 19080, Note_on_c, 5, 62, 100
8, 19140, Note_on_c, 5, 62, 0
8, 19140, Note_on_c, 5, 55, 0
8, 19140, Note_on_c, 5, 67, 0
8, 19140, Note_on_c, 5, 67, 100
8, 19140, Note_on_c, 5, 55, 100
8, 19140, Note_on_c, 5, 62, 100
8, 19200, Note_on_c, 5, 62, 0
8, 19200, Note_on_c, 5, 55, 0
8, 19200, Note_on_c, 5, 67, 0
8, 19200, Note_on_c, 5, 64, 100
8, 19200, Note_on_c, 5, 57, 100
8, 19200, Note_on_c, 5, 69, 100
8, 19260, Note_on_c, 5, 69, 100
8, 19260, Note_on_c, 5, 64, 100
8, 19260, Note_on_c, 5, 57, 100
8, 19320, Note_on_c, 5, 57, 0
8, 19320, Note_on_c, 5, 57, 0
8, 19320, Note_on_c, 5, 69, 0
8, 19320, Note_on_c, 5, 64, 0
8, 19320, Note_on_c, 5, 64, 0
8, 19320, Note_on_c, 5, 69, 0
8, 19320, Note_on_c, 5, 69, 100
8, 19320, Note_on_c, 5, 64, 100
8, 19320, Note_on_c, 5, 57, 100
8, 19380, Note_on_c, 5, 57, 0
8, 19380, Note_on_c, 5, 64, 0
8, 19380, Note_on_c, 5, 69, 0
8, 19380, Note_on_c, 5, 69, 100
8, 19380, Note_on_c, 5, 64, 100
8, 19380, Note_on_c, 5, 57, 100
8, 19440, Note_on_c, 5, 57, 0
8, 19440, Note_on_c, 5, 64, 0
8, 19440, Note_on_c, 5, 69, 0
8, 19500, Note_on_c, 5, 67, 100
8, 19500, Note_on_c, 5, 55, 100
8, 19500, Note_on_c, 5, 62, 100
8, 19560, Note_on_c, 5, 62, 0
8, 19560, Note_on_c, 5, 55, 0
8, 19560, Note_on_c, 5, 67, 0
8, 19560, Note_on_c, 5, 67, 100
8, 19560, Note_on_c, 5, 55, 100
8, 19560, Note_on_c, 5, 62, 100
8, 19620, Note_on_c, 5, 62, 0
8, 19620, Note_on_c, 5, 55, 0
8, 19620, Note_on_c, 5, 67, 0
8, 19620, Note_on_c, 5, 67, 100
8, 19620, Note_on_c, 5, 55, 100
8, 19620, Note_on_c, 5, 62, 100
8, 19680, Note_on_c, 5, 62, 0
8, 19680, Note_on_c, 5, 55, 0
8, 19680, Note_on_c, 5, 67, 0
8, 19680, Note_on_c, 5, 64, 100
8, 19680, Note_on_c, 5, 57, 100
8, 19680, Note_on_c, 5, 69, 100
8, 19740, Note_on_c, 5, 69, 100
8, 19740, Note_on_c, 5, 64, 100
8, 19740, Note_on_c, 5, 57, 100
8, 19800, Note_on_c, 5, 57, 0
8, 19800, Note_on_c, 5, 57, 0
8, 19800, Note_on_c, 5, 69, 0
8, 19800, Note_on_c, 5, 64, 0
8, 19800, Note_on_c, 5, 64, 0
8, 19800, Note_on_c, 5, 69, 0
8, 19800, Note_on_c, 5, 69, 100
8, 19800, Note_on_c, 5, 64, 100
8, 19800, Note_on_c, 5, 57, 100
8, 19860, Note_on_c, 5, 57, 0
8, 19860, Note_on_c, 5, 64, 0
8, 19860, Note_on_c, 5, 69, 0
8, 19860, Note_on_c, 5, 69, 100
8, 19860, Note_on_c, 5, 64, 100
8, 19860, Note_on_c, 5, 57, 100
8, 19920, Note_on_c, 5, 57, 0
8, 19920, Note_on_c, 5, 64, 0
8, 19920, Note_on_c, 5, 69, 0
8, 19980, Note_on_c, 5, 67, 100
8, 19980, Note_on_c, 5, 55, 100
8, 19980, Note_on_c, 5, 62, 100
8, 20040, Note_on_c, 5, 62, 0
8, 20040, Note_on_c, 5, 55, 0
8, 20040, Note_on_c, 5, 67, 0
8, 20040, Note_on_c, 5, 67, 100
8, 20040, Note_on_c, 5, 55, 100
8, 20040, Note_on_c, 5, 62, 100
8, 20100, Note_on_c, 5, 62, 0
8, 20100, Note_on_c, 5, 55, 0
8, 20100, Note_on_c, 5, 67, 0
8, 20100, Note_on_c, 5, 67, 100
8, 20100, Note_on_c, 5, 55, 100
8, 20100, Note_on_c, 5, 62, 100
8, 20160, Note_on_c, 5, 62, 0
8, 20160, Note_on_c, 5, 55, 0
8, 20160, Note_on_c, 5, 67, 0
8, 20160, Note_on_c, 5, 64, 100
8, 20160, Note_on_c, 5, 57, 100
8, 20160, Note_on_c, 5, 69, 100
8, 20220, Note_on_c, 5, 69, 100
8, 20220, Note_on_c, 5, 64, 100
8, 20220, Note_on_c, 5, 57, 100
8, 20280, Note_on_c, 5, 57, 0
8, 20280, Note_on_c, 5, 57, 0
8, 20280, Note_on_c, 5, 69, 0
8, 20280, Note_on_c, 5, 64, 0
8, 20280, Note_on_c, 5, 64, 0
8, 20280, Note_on_c, 5, 69, 0
8, 20280, Note_on_c, 5, 69, 100
8, 20280, Note_on_c, 5, 64, 100
8, 20280, Note_on_c, 5, 57, 100
8, 20340, Note_on_c, 5, 57, 0
8, 20340, Note_on_c, 5, 64, 0
8, 20340, Note_on_c, 5, 69, 0
8, 20340, Note_on_c, 5, 69, 100
8, 20340, Note_on_c, 5, 64, 100
8, 20340, Note_on_c, 5, 57, 100
8, 20400, Note_on_c, 5, 57, 0
8, 20400, Note_on_c, 5, 64, 0
8, 20400, Note_on_c, 5, 69, 0
8, 20460, Note_on_c, 5, 67, 100
8, 20460, Note_on_c, 5, 55, 100
8, 20460, Note_on_c, 5, 62, 100
8, 20520, Note_on_c, 5, 62, 0
8, 20520, Note_on_c, 5, 55, 0
8, 20520, Note_on_c, 5, 67, 0
8, 20520, Note_on_c, 5, 67, 100
8, 20520, Note_on_c, 5, 55, 100
8, 20520, Note_on_c, 5, 62, 100
8, 20580, Note_on_c, 5, 62, 0
8, 20580, Note_on_c, 5, 55, 0
8, 20580, Note_on_c, 5, 67, 0
8, 20580, Note_on_c, 5, 67, 100
8, 20580, Note_on_c, 5, 55, 100
8, 20580, Note_on_c, 5, 62, 100
8, 20640, Note_on_c, 5, 62, 0
8, 20640, Note_on_c, 5, 55, 0
8, 20640, Note_on_c, 5, 67, 0
8, 20640, Note_on_c, 5, 64, 100
8, 20640, Note_on_c, 5, 57, 100
8, 20640, Note_on_c, 5, 69, 100
8, 20700, Note_on_c, 5, 69, 100
8, 20700, Note_on_c, 5, 64, 100
8, 20700, Note_on_c, 5, 57, 100
8, 20760, Note_on_c, 5, 57, 0
8, 20760, Note_on_c, 5, 57, 0
8, 20760, Note_on_c, 5, 69, 0
8, 20760, Note_on_c, 5, 64, 0
8, 20760, Note_on_c, 5, 64, 0
8, 20760, Note_on_c, 5, 69, 0
8, 20760, Note_on_c, 5, 69, 100
8, 20760, Note_on_c, 5, 64, 100
8, 20760, Note_on_c, 5, 57, 100
8, 20820, Note_on_c, 5, 57, 0
8, 20820, Note_on_c, 5, 64, 0
8, 20820, Note_on_c, 5, 69, 0
8, 20820, Note_on_c, 5, 69, 100
8, 20820, Note_on_c, 5, 64, 100
8, 20820, Note_on_c, 5, 57, 100
8, 20880, Note_on_c, 5, 57, 0
8, 20880, Note_on_c, 5, 64, 0
8, 20880, Note_on_c, 5, 69, 0
8, 20940, Note_on_c, 5, 67, 100
8, 20940, Note_on_c, 5, 55, 100
8, 20940, Note_on_c, 5, 62, 100
8, 21000, Note_on_c, 5, 62, 0
8, 21000, Note_on_c, 5, 55, 0
8, 21000, Note_on_c, 5, 67, 0
8, 21000, Note_on_c, 5, 67, 100
8, 21000, Note_on_c, 5, 55, 100
8, 21000, Note_on_c, 5, 62, 100
8, 21060, Note_on_c, 5, 62, 0
8, 21060, Note_on_c, 5, 55, 0
8, 21060, Note_on_c, 5, 67, 0
8, 21060, Note_on_c, 5, 67, 100
8, 21060, Note_on_c, 5, 55, 100
8, 21060, Note_on_c, 5, 62, 100
8, 21120, Note_on_c, 5, 62, 0
8, 21120, Note_on_c, 5, 55, 0
8, 21120, Note_on_c, 5, 67, 0
8, 21120, Note_on_c, 5, 64, 100
8, 21120, Note_on_c, 5, 57, 100
8, 21120, Note_on_c, 5, 69, 100
8, 21180, Note_on_c, 5, 69, 100
8, 21180, Note_on_c, 5, 64, 100
8, 21180, Note_on_c, 5, 57, 100
8, 21240, Note_on_c, 5, 57, 0
8, 21240, Note_on_c, 5, 57, 0
8, 21240, Note_on_c, 5, 69, 0
8, 21240, Note_on_c, 5, 64, 0
8, 21240, Note_on_c, 5, 64, 0
8, 21240, Note_on_c, 5, 69, 0
8, 21240, Note_on_c, 5, 69, 100
8, 21240, Note_on_c, 5, 64, 100
8, 21240, Note_on_c, 5, 57, 100
8, 21300, Note_on_c, 5, 57, 0
8, 21300, Note_on_c, 5, 64, 0
8, 21300, Note_on_c, 5, 69, 0
8, 21300, Note_on_c, 5, 69, 100
8, 21300, Note_on_c, 5, 64, 100
8, 21300, Note_on_c, 5, 57, 100
8, 21360, Note_on_c, 5, 57, 0
8, 21360, Note_on_c, 5, 64, 0
8, 21360, Note_on_c, 5, 69, 0
8, 21420, Note_on_c, 5, 67, 100
8, 21420, Note_on_c, 5, 55, 100
8, 21420, Note_on_c, 5, 62, 100
8, 21480, Note_on_c, 5, 62, 0
8, 21480, Note_on_c, 5, 55, 0
8, 21480, Note_on_c, 5, 67, 0
8, 21480, Note_on_c, 5, 67, 100
8, 21480, Note_on_c, 5, 55, 100
8, 21480, Note_on_c, 5, 62, 100
8, 21540, Note_on_c, 5, 62, 0
8, 21540, Note_on_c, 5, 55, 0
8, 21540, Note_on_c, 5, 67, 0
8, 21540, Note_on_c, 5, 67, 100
8, 21540, Note_on_c, 5, 55, 100
8, 21540, Note_on_c, 5, 62, 100
8, 21600, Note_on_c, 5, 62, 0
8, 21600, Note_on_c, 5, 55, 0
8, 21600, Note_on_c, 5, 67, 0
8, 21600, Note_on_c, 5, 64, 100
8, 21600, Note_on_c, 5, 57, 100
8, 21600, Note_on_c, 5, 69, 100
8, 21660, Note_on_c, 5, 69, 100
8, 21660, Note_on_c, 5, 64, 100
8, 21660, Note_on_c, 5, 57, 100
8, 21720, Note_on_c, 5, 57, 0
8, 21720, Note_on_c, 5, 57, 0
8, 21720, Note_on_c, 5, 69, 0
8, 21720, Note_on_c, 5, 64, 0
8, 21720, Note_on_c, 5, 64, 0
8, 21720, Note_on_c, 5, 69, 0
8, 21720, Note_on_c, 5, 69, 100
8, 21720, Note_on_c, 5, 64, 100
8, 21720, Note_on_c, 5, 57, 100
8, 21780, Note_on_c, 5, 57, 0
8, 21780, Note_on_c, 5, 64, 0
8, 21780, Note_on_c, 5, 69, 0
8, 21780, Note_on_c, 5, 69, 100
8, 21780, Note_on_c, 5, 64, 100
8, 21780, Note_on_c, 5, 57, 100
8, 21840, Note_on_c, 5, 57, 0
8, 21840, Note_on_c, 5, 64, 0
8, 21840, Note_on_c, 5, 69, 0
8, 21900, Note_on_c, 5, 67, 100
8, 21900, Note_on_c, 5, 55, 100
8, 21900, Note_on_c, 5, 62, 100
8, 21960, Note_on_c, 5, 62, 0
8, 21960, Note_on_c, 5, 55, 0
8, 21960, Note_on_c, 5, 67, 0
8, 21960, Note_on_c, 5, 67, 100
8, 21960, Note_on_c, 5, 55, 100
8, 21960, Note_on_c, 5, 62, 100
8, 22020, Note_on_c, 5, 62, 0
8, 22020, Note_on_c, 5, 55, 0
8, 22020, Note_on_c, 5, 67, 0
8, 22020, Note_on_c, 5, 67, 100
8, 22020, Note_on_c, 5, 55, 100
8, 22020, Note_on_c, 5, 62, 100
8, 22080, Note_on_c, 5, 62, 0
8, 22080, Note_on_c, 5, 55, 0
8, 22080, Note_on_c, 5, 67, 0
8, 22080, Note_on_c, 5, 64, 100
8, 22080, Note_on_c, 5, 57, 100
8, 22080, Note_on_c, 5, 69, 100
8, 22140, Note_on_c, 5, 69, 100
8, 22140, Note_on_c, 5, 64, 100
8, 22140, Note_on_c, 5, 57, 100
8, 22200, Note_on_c, 5, 57, 0
8, 22200, Note_on_c, 5, 57, 0
8, 22200, Note_on_c, 5, 69, 0
8, 22200, Note_on_c, 5, 64, 0
8, 22200, Note_on_c, 5, 64, 0
8, 22200, Note_on_c, 5, 69, 0
8, 22200, Note_on_c, 5, 69, 100
8, 22200, Note_on_c, 5, 64, 100
8, 22200, Note_on_c, 5, 57, 100
8, 22260, Note_on_c, 5, 57, 0
8, 22260, Note_on_c, 5, 64, 0
8, 22260, Note_on_c, 5, 69, 0
8, 22260, Note_on_c, 5, 69, 100
8, 22260, Note_on_c, 5, 64, 100
8, 22260, Note_on_c, 5, 57, 100
8, 22320, Note_on_c, 5, 57, 0
8, 22320, Note_on_c, 5, 64, 0
8, 22320, Note_on_c, 5, 69, 0
8, 22380, Note_on_c, 5, 67, 100
8, 22380, Note_on_c, 5, 55, 100
8, 22380, Note_on_c, 5, 62, 100
8, 22440, Note_on_c, 5, 62, 0
8, 22440, Note_on_c, 5, 55, 0
8, 22440, Note_on_c, 5, 67, 0
8, 22440, Note_on_c, 5, 67, 100
8, 22440, Note_on_c, 5, 55, 100
8, 22440, Note_on_c, 5, 62, 100
8, 22500, Note_on_c, 5, 62, 0
8, 22500, Note_on_c, 5, 55, 0
8, 22500, Note_on_c, 5, 67, 0
8, 22500, Note_on_c, 5, 67, 100
8, 22500, Note_on_c, 5, 55, 100
8, 22500, Note_on_c, 5, 62, 100
8, 22560, Note_on_c, 5, 62, 0
8, 22560, Note_on_c, 5, 55, 0
8, 22560, Note_on_c, 5, 67, 0
8, 22560, Note_on_c, 5, 64, 100
8, 22560, Note_on_c, 5, 57, 100
8, 22560, Note_on_c, 5, 69, 100
8, 22620, Note_on_c, 5, 69, 100
8, 22620, Note_on_c, 5, 64, 100
8, 22620, Note_on_c, 5, 57, 100
8, 22680, Note_on_c, 5, 57, 0
8, 22680, Note_on_c, 5, 57, 0
8, 22680, Note_on_c, 5, 69, 0
8, 22680, Note_on_c, 5, 64, 0
8, 22680, Note_on_c, 5, 64, 0
8, 22680, Note_on_c, 5, 69, 0
8, 22680, Note_on_c, 5, 69, 100
8, 22680, Note_on_c, 5, 64, 100
8, 22680, Note_on_c, 5, 57, 100
8, 22740, Note_on_c, 5, 57, 0
8, 22740, Note_on_c, 5, 64, 0
8, 22740, Note_on_c, 5, 69, 0
8, 22740, Note_on_c, 5, 69, 100
8, 22740, Note_on_c, 5, 64, 100
8, 22740, Note_on_c, 5, 57, 100
8, 22800, Note_on_c, 5, 57, 0
8, 22800, Note_on_c, 5, 64, 0
8, 22800, Note_on_c, 5, 69, 0
8, 22860, Note_on_c, 5, 67, 100
8, 22860, Note_on_c, 5, 55, 100
8, 22860, Note_on_c, 5, 62, 100
8, 22920, Note_on_c, 5, 62, 0
8, 22920, Note_on_c, 5, 55, 0
8, 22920, Note_on_c, 5, 67, 0
8, 22920, Note_on_c, 5, 67, 100
8, 22920, Note_on_c, 5, 55, 100
8, 22920, Note_on_c, 5, 62, 100
8, 22980, Note_on_c, 5, 62, 0
8, 22980, Note_on_c, 5, 55, 0
8, 22980, Note_on_c, 5, 67, 0
8, 22980, Note_on_c, 5, 67, 100
8, 22980, Note_on_c, 5, 55, 100
8, 22980, Note_on_c, 5, 62, 100
8, 23040, Note_on_c, 5, 62, 0
8, 23040, Note_on_c, 5, 55, 0
8, 23040, Note_on_c, 5, 67, 0
8, 23040, Note_on_c, 5, 64, 100
8, 23040, Note_on_c, 5, 57, 100
8, 23040, Note_on_c, 5, 69, 100
8, 23100, Note_on_c, 5, 69, 100
8, 23100, Note_on_c, 5, 64, 100
8, 23100, Note_on_c, 5, 57, 100
8, 23160, Note_on_c, 5, 57, 0
8, 23160, Note_on_c, 5, 57, 0
8, 23160, Note_on_c, 5, 69, 0
8, 23160, Note_on_c, 5, 64, 0
8, 23160, Note_on_c, 5, 64, 0
8, 23160, Note_on_c, 5, 69, 0
8, 23160, Note_on_c, 5, 69, 100
8, 23160, Note_on_c, 5, 64, 100
8, 23160, Note_on_c, 5, 57, 100
8, 23220, Note_on_c, 5, 57, 0
8, 23220, Note_on_c, 5, 64, 0
8, 23220, Note_on_c, 5, 69, 0
8, 23220, Note_on_c, 5, 69, 100
8, 23220, Note_on_c, 5, 64, 100
8, 23220, Note_on_c, 5, 57, 100
8, 23280, Note_on_c, 5, 57, 0
8, 23280, Note_on_c, 5, 64, 0
8, 23280, Note_on_c, 5, 69, 0
8, 23340, Note_on_c, 5, 67, 100
8, 23340, Note_on_c, 5, 55, 100
8, 23340, Note_on_c, 5, 62, 100
8, 23400, Note_on_c, 5, 62, 0
8, 23400, Note_on_c, 5, 55, 0
8, 23400, Note_on_c, 5, 67, 0
8, 23400, Note_on_c, 5, 67, 100
8, 23400, Note_on_c, 5, 55, 100
8, 23400, Note_on_c, 5, 62, 100
8, 23460, Note_on_c, 5, 62, 0
8, 23460, Note_on_c, 5, 55, 0
8, 23460, Note_on_c, 5, 67, 0
8, 23460, Note_on_c, 5, 67, 100
8, 23460, Note_on_c, 5, 55, 100
8, 23460, Note_on_c, 5, 62, 100
8, 23520, Note_on_c, 5, 62, 0
8, 23520, Note_on_c, 5, 55, 0
8, 23520, Note_on_c, 5, 67, 0
8, 23520, Note_on_c, 5, 64, 100
8, 23520, Note_on_c, 5, 57, 100
8, 23520, Note_on_c, 5, 69, 100
8, 23580, Note_on_c, 5, 69, 100
8, 23580, Note_on_c, 5, 64, 100
8, 23580, Note_on_c, 5, 57, 100
8, 23640, Note_on_c, 5, 57, 0
8, 23640, Note_on_c, 5, 57, 0
8, 23640, Note_on_c, 5, 69, 0
8, 23640, Note_on_c, 5, 64, 0
8, 23640, Note_on_c, 5, 64, 0
8, 23640, Note_on_c, 5, 69, 0
8, 23640, Note_on_c, 5, 69, 100
8, 23640, Note_on_c, 5, 64, 100
8, 23640, Note_on_c, 5, 57, 100
8, 23700, Note_on_c, 5, 57, 0
8, 23700, Note_on_c, 5, 64, 0
8, 23700, Note_on_c, 5, 69, 0
8, 23700, Note_on_c, 5, 69, 100
8, 23700, Note_on_c, 5, 64, 100
8, 23700, Note_on_c, 5, 57, 100
8, 23760, Note_on_c, 5, 57, 0
8, 23760, Note_on_c, 5, 64, 0
8, 23760, Note_on_c, 5, 69, 0
8, 23820, Note_on_c, 5, 67, 100
8, 23820, Note_on_c, 5, 55, 100
8, 23820, Note_on_c, 5, 62, 100
8, 23880, Note_on_c, 5, 62, 0
8, 23880, Note_on_c, 5, 55, 0
8, 23880, Note_on_c, 5, 67, 0
8, 23880, Note_on_c, 5, 67, 100
8, 23880, Note_on_c, 5, 55, 100
8, 23880, Note_on_c, 5, 62, 100
8, 23940, Note_on_c, 5, 62, 0
8, 23940, Note_on_c, 5, 55, 0
8, 23940, Note_on_c, 5, 67, 0
8, 23940, Note_on_c, 5, 67, 100
8, 23940, Note_on_c, 5, 55, 100
8, 23940, Note_on_c, 5, 62, 100
8, 24000, Note_on_c, 5, 62, 0
8, 24000, Note_on_c, 5, 55, 0
8, 24000, Note_on_c, 5, 67, 0
8, 24000, Note_on_c, 5, 64, 100
8, 24000, Note_on_c, 5, 57, 100
8, 24000, Note_on_c, 5, 69, 100
8, 24060, Note_on_c, 5, 69, 100
8, 24060, Note_on_c, 5, 64, 100
8, 24060, Note_on_c, 5, 57, 100
8, 24120, Note_on_c, 5, 57, 0
8, 24120, Note_on_c, 5, 57, 0
8, 24120, Note_on_c, 5, 69, 0
8, 24120, Note_on_c, 5, 64, 0
8, 24120, Note_on_c, 5, 64, 0
8, 24120, Note_on_c, 5, 69, 0
8, 24120, Note_on_c, 5, 69, 100
8, 24120, Note_on_c, 5, 64, 100
8, 24120, Note_on_c, 5, 57, 100
8, 24180, Note_on_c, 5, 57, 0
8, 24180, Note_on_c, 5, 64, 0
8, 24180, Note_on_c, 5, 69, 0
8, 24180, Note_on_c, 5, 69, 100
8, 24180, Note_on_c, 5, 64, 100
8, 24180, Note_on_c, 5, 57, 100
8, 24240, Note_on_c, 5, 57, 0
8, 24240, Note_on_c, 5, 64, 0
8, 24240, Note_on_c, 5, 69, 0
8, 24300, Note_on_c, 5, 67, 100
8, 24300, Note_on_c, 5, 55, 100
8, 24300, Note_on_c, 5, 62, 100
8, 24360, Note_on_c, 5, 62, 0
8, 24360, Note_on_c, 5, 55, 0
8, 24360, Note_on_c, 5, 67, 0
8, 24360, Note_on_c, 5, 67, 100
8, 24360, Note_on_c, 5, 55, 100
8, 24360, Note_on_c, 5, 62, 100
8, 24420, Note_on_c, 5, 62, 0
8, 24420, Note_on_c, 5, 55, 0
8, 24420, Note_on_c, 5, 67, 0
8, 24420, Note_on_c, 5, 67, 100
8, 24420, Note_on_c, 5, 55, 100
8, 24420, Note_on_c, 5, 62, 100
8, 24480, Note_on_c, 5, 62, 0
8, 24480, Note_on_c, 5, 55, 0
8, 24480, Note_on_c, 5, 67, 0
8, 24480, Note_on_c, 5, 64, 100
8, 24480, Note_on_c, 5, 57, 100
8, 24480, Note_on_c, 5, 69, 100
8, 24540, Note_on_c, 5, 69, 100
8, 24540, Note_on_c, 5, 64, 100
8, 24540, Note_on_c, 5, 57, 100
8, 24600, Note_on_c, 5, 57, 0
8, 24600, Note_on_c, 5, 57, 0
8, 24600, Note_on_c, 5, 69, 0
8, 24600, Note_on_c, 5, 64, 0
8, 24600, Note_on_c, 5, 64, 0
8, 24600, Note_on_c, 5, 69, 0
8, 24600, Note_on_c, 5, 69, 100
8, 24600, Note_on_c, 5, 64, 100
8, 24600, Note_on_c, 5, 57, 100
8, 24660, Note_on_c, 5, 57, 0
8, 24660, Note_on_c, 5, 64, 0
8, 24660, Note_on_c, 5, 69, 0
8, 24660, Note_on_c, 5, 69, 100
8, 24660, Note_on_c, 5, 64, 100
8, 24660, Note_on_c, 5, 57, 100
8, 24720, Note_on_c, 5, 57, 0
8, 24720, Note_on_c, 5, 64, 0
8, 24720, Note_on_c, 5, 69, 0
8, 24780, Note_on_c, 5, 67, 100
8, 24780, Note_on_c, 5, 55, 100
8, 24780, Note_on_c, 5, 62, 100
8, 24840, Note_on_c, 5, 62, 0
8, 24840, Note_on_c, 5, 55, 0
8, 24840, Note_on_c, 5, 67, 0
8, 24840, Note_on_c, 5, 67, 100
8, 24840, Note_on_c, 5, 55, 100
8, 24840, Note_on_c, 5, 62, 100
8, 24900, Note_on_c, 5, 62, 0
8, 24900, Note_on_c, 5, 55, 0
8, 24900, Note_on_c, 5, 67, 0
8, 24900, Note_on_c, 5, 67, 100
8, 24900, Note_on_c, 5, 55, 100
8, 24900, Note_on_c, 5, 62, 100
8, 24960, Note_on_c, 5, 62, 0
8, 24960, Note_on_c, 5, 55, 0
8, 24960, Note_on_c, 5, 67, 0
8, 24960, Note_on_c, 5, 64, 100
8, 24960, Note_on_c, 5, 57, 100
8, 24960, Note_on_c, 5, 69, 100
8, 25020, Note_on_c, 5, 69, 100
8, 25020, Note_on_c, 5, 64, 100
8, 25020, Note_on_c, 5, 57, 100
8, 25080, Note_on_c, 5, 57, 0
8, 25080, Note_on_c, 5, 57, 0
8, 25080, Note_on_c, 5, 69, 0
8, 25080, Note_on_c, 5, 64, 0
8, 25080, Note_on_c, 5, 64, 0
8, 25080, Note_on_c, 5, 69, 0
8, 25080, Note_on_c, 5, 69, 100
8, 25080, Note_on_c, 5, 64, 100
8, 25080, Note_on_c, 5, 57, 100
8, 25140, Note_on_c, 5, 57, 0
8, 25140, Note_on_c, 5, 64, 0
8, 25140, Note_on_c, 5, 69, 0
8, 25140, Note_on_c, 5, 69, 100
8, 25140, Note_on_c, 5, 64, 100
8, 25140, Note_on_c, 5, 57, 100
8, 25200, Note_on_c, 5, 57, 0
8, 25200, Note_on_c, 5, 64, 0
8, 25200, Note_on_c, 5, 69, 0
8, 25260, Note_on_c, 5, 67, 100
8, 25260, Note_on_c, 5, 55, 100
8, 25260, Note_on_c, 5, 62, 100
8, 25320, Note_on_c, 5, 62, 0
8, 25320, Note_on_c, 5, 55, 0
8, 25320, Note_on_c, 5, 67, 0
8, 25320, Note_on_c, 5, 67, 100
8, 25320, Note_on_c, 5, 55, 100
8, 25320, Note_on_c, 5, 62, 100
8, 25380, Note_on_c, 5, 62, 0
8, 25380, Note_on_c, 5, 55, 0
8, 25380, Note_on_c, 5, 67, 0
8, 25380, Note_on_c, 5, 67, 100
8, 25380, Note_on_c, 5, 55, 100
8, 25380, Note_on_c, 5, 62, 100
8, 25440, Note_on_c, 5, 62, 0
8, 25440, Note_on_c, 5, 55, 0
8, 25440, Note_on_c, 5, 67, 0
8, 25440, Note_on_c, 5, 64, 100
8, 25440, Note_on_c, 5, 57, 100
8, 25440, Note_on_c, 5, 69, 100
8, 25500, Note_on_c, 5, 69, 100
8, 25500, Note_on_c, 5, 64, 100
8, 25500, Note_on_c, 5, 57, 100
8, 25560, Note_on_c, 5, 57, 0
8, 25560, Note_on_c, 5, 57, 0
8, 25560, Note_on_c, 5, 69, 0
8, 25560, Note_on_c, 5, 64, 0
8, 25560, Note_on_c, 5, 64, 0
8, 25560, Note_on_c, 5, 69, 0
8, 25560, Note_on_c, 5, 69, 100
8, 25560, Note_on_c, 5, 64, 100
8, 25560, Note_on_c, 5, 57, 100
8, 25620, Note_on_c, 5, 57, 0
8, 25620, Note_on_c, 5, 64, 0
8, 25620, Note_on_c, 5, 69, 0
8, 25620, Note_on_c, 5, 69, 100
8, 25620, Note_on_c, 5, 64, 100
8, 25620, Note_on_c, 5, 57, 100
8, 25680, Note_on_c, 5, 57, 0
8, 25680, Note_on_c, 5, 64, 0
8, 25680, Note_on_c, 5, 69, 0
8, 25740, Note_on_c, 5, 67, 100
8, 25740, Note_on_c, 5, 55, 100
8, 25740, Note_on_c, 5, 62, 100
8, 25800, Note_on_c, 5, 62, 0
8, 25800, Note_on_c, 5, 55, 0
8, 25800, Note_on_c, 5, 67, 0
8, 25800, Note_on_c, 5, 67, 100
8, 25800, Note_on_c, 5, 55, 100
8, 25800, Note_on_c, 5, 62, 100
8, 25860, Note_on_c, 5, 62, 0
8, 25860, Note_on_c, 5, 55, 0
8, 25860, Note_on_c, 5, 67, 0
8, 25860, Note_on_c, 5, 67, 100
8, 25860, Note_on_c, 5, 55, 100
8, 25860, Note_on_c, 5, 62, 100
8, 25920, Note_on_c, 5, 62, 0
8, 25920, Note_on_c, 5, 55, 0
8, 25920, Note_on_c, 5, 67, 0
8, 25920, Note_on_c, 5, 64, 100
8, 25920, Note_on_c, 5, 57, 100
8, 25920, Note_on_c, 5, 69, 100
8, 25980, Note_on_c, 5, 69, 100
8, 25980, Note_on_c, 5, 64, 100
8, 25980, Note_on_c, 5, 57, 100
8, 26040, Note_on_c, 5, 57, 0
8, 26040, Note_on_c, 5, 57, 0
8, 26040, Note_on_c, 5, 69, 0
8, 26040, Note_on_c, 5, 64, 0
8, 26040, Note_on_c, 5, 64, 0
8, 26040, Note_on_c, 5, 69, 0
8, 26040, Note_on_c, 5, 69, 100
8, 26040, Note_on_c, 5, 64, 100
8, 26040, Note_on_c, 5, 57, 100
8, 26100, Note_on_c, 5, 57, 0
8, 26100, Note_on_c, 5, 64, 0
8, 26100, Note_on_c, 5, 69, 0
8, 26100, Note_on_c, 5, 69, 100
8, 26100, Note_on_c, 5, 64, 100
8, 26100, Note_on_c, 5, 57, 100
8, 26160, Note_on_c, 5, 57, 0
8, 26160, Note_on_c, 5, 64, 0
8, 26160, Note_on_c, 5, 69, 0
8, 26220, Note_on_c, 5, 67, 100
8, 26220, Note_on_c, 5, 55, 100
8, 26220, Note_on_c, 5, 62, 100
8, 26280, Note_on_c, 5, 62, 0
8, 26280, Note_on_c, 5, 55, 0
8, 26280, Note_on_c, 5, 67, 0
8, 26280, Note_on_c, 5, 67, 100
8, 26280, Note_on_c, 5, 55, 100
8, 26280, Note_on_c, 5, 62, 100
8, 26340, Note_on_c, 5, 62, 0
8, 26340, Note_on_c, 5, 55, 0
8, 26340, Note_on_c, 5, 67, 0
8, 26340, Note_on_c, 5, 67, 100
8, 26340, Note_on_c, 5, 55, 100
8, 26340, Note_on_c, 5, 62, 100
8, 26400, Note_on_c, 5, 62, 0
8, 26400, Note_on_c, 5, 55, 0
8, 26400, Note_on_c, 5, 67, 0
8, 26400, Note_on_c, 5, 64, 100
8, 26400, Note_on_c, 5, 57, 100
8, 26400, Note_on_c, 5, 69, 100
8, 26460, Note_on_c, 5, 69, 100
8, 26460, Note_on_c, 5, 64, 100
8, 26460, Note_on_c, 5, 57, 100
8, 26520, Note_on_c, 5, 57, 0
8, 26520, Note_on_c, 5, 57, 0
8, 26520, Note_on_c, 5, 69, 0
8, 26520, Note_on_c, 5, 64, 0
8, 26520, Note_on_c, 5, 64, 0
8, 26520, Note_on_c, 5, 69, 0
8, 26520, Note_on_c, 5, 69, 100
8, 26520, Note_on_c, 5, 64, 100
8, 26520, Note_on_c, 5, 57, 100
8, 26580, Note_on_c, 5, 57, 0
8, 26580, Note_on_c, 5, 64, 0
8, 26580, Note_on_c, 5, 69, 0
8, 26580, Note_on_c, 5, 69, 100
8, 26580, Note_on_c, 5, 64, 100
8, 26580, Note_on_c, 5, 57, 100
8, 26640, Note_on_c, 5, 57, 0
8, 26640, Note_on_c, 5, 64, 0
8, 26640, Note_on_c, 5, 69, 0
8, 26700, Note_on_c, 5, 67, 100
8, 26700, Note_on_c, 5, 55, 100
8, 26700, Note_on_c, 5, 62, 100
8, 26760, Note_on_c, 5, 62, 0
8, 26760, Note_on_c, 5, 55, 0
8, 26760, Note_on_c, 5, 67, 0
8, 26760, Note_on_c, 5, 67, 100
8, 26760, Note_on_c, 5, 55, 100
8, 26760, Note_on_c, 5, 62, 100
8, 26820, Note_on_c, 5, 62, 0
8, 26820, Note_on_c, 5, 55, 0
8, 26820, Note_on_c, 5, 67, 0
8, 26820, Note_on_c, 5, 67, 100
8, 26820, Note_on_c, 5, 55, 100
8, 26820, Note_on_c, 5, 62, 100
8, 26880, Note_on_c, 5, 62, 0
8, 26880, Note_on_c, 5, 55, 0
8, 26880, Note_on_c, 5, 67, 0
8, 26880, Note_on_c, 5, 64, 100
8, 26880, Note_on_c, 5, 57, 100
8, 26880, Note_on_c, 5, 69, 100
8, 26940, Note_on_c, 5, 69, 100
8, 26940, Note_on_c, 5, 64, 100
8, 26940, Note_on_c, 5, 57, 100
8, 27000, Note_on_c, 5, 57, 0
8, 27000, Note_on_c, 5, 57, 0
8, 27000, Note_on_c, 5, 69, 0
8, 27000, Note_on_c, 5, 64, 0
8, 27000, Note_on_c, 5, 64, 0
8, 27000, Note_on_c, 5, 69, 0
8, 27000, Note_on_c, 5, 69, 100
8, 27000, Note_on_c, 5, 64, 100
8, 27000, Note_on_c, 5, 57, 100
8, 27060, Note_on_c, 5, 57, 0
8, 27060, Note_on_c, 5, 64, 0
8, 27060, Note_on_c, 5, 69, 0
8, 27060, Note_on_c, 5, 69, 100
8, 27060, Note_on_c, 5, 64, 100
8, 27060, Note_on_c, 5, 57, 100
8, 27120, Note_on_c, 5, 57, 0
8, 27120, Note_on_c, 5, 64, 0
8, 27120, Note_on_c, 5, 69, 0
8, 27180, Note_on_c, 5, 67, 100
8, 27180, Note_on_c, 5, 55, 100
8, 27180, Note_on_c, 5, 62, 100
8, 27240, Note_on_c, 5, 62, 0
8, 27240, Note_on_c, 5, 55, 0
8, 27240, Note_on_c, 5, 67, 0
8, 27240, Note_on_c, 5, 67, 100
8, 27240, Note_on_c, 5, 55, 100
8, 27240, Note_on_c, 5, 62, 100
8, 27300, Note_on_c, 5, 62, 0
8, 27300, Note_on_c, 5, 55, 0
8, 27300, Note_on_c, 5, 67, 0
8, 27300, Note_on_c, 5, 67, 100
8, 27300, Note_on_c, 5, 55, 100
8, 27300, Note_on_c, 5, 62, 100
8, 27360, Note_on_c, 5, 62, 0
8, 27360, Note_on_c, 5, 55, 0
8, 27360, Note_on_c, 5, 67, 0
8, 27360, Note_on_c, 5, 64, 100
8, 27360, Note_on_c, 5, 57, 100
8, 27360, Note_on_c, 5, 69, 100
8, 27420, Note_on_c, 5, 69, 100
8, 27420, Note_on_c, 5, 64, 100
8, 27420, Note_on_c, 5, 57, 100
8, 27480, Note_on_c, 5, 57, 0
8, 27480, Note_on_c, 5, 57, 0
8, 27480, Note_on_c, 5, 69, 0
8, 27480, Note_on_c, 5, 64, 0
8, 27480, Note_on_c, 5, 64, 0
8, 27480, Note_on_c, 5, 69, 0
8, 27480, Note_on_c, 5, 69, 100
8, 27480, Note_on_c, 5, 64, 100
8, 27480, Note_on_c, 5, 57, 100
8, 27540, Note_on_c, 5, 57, 0
8, 27540, Note_on_c, 5, 64, 0
8, 27540, Note_on_c, 5, 69, 0
8, 27540, Note_on_c, 5, 69, 100
8, 27540, Note_on_c, 5, 64, 100
8, 27540, Note_on_c, 5, 57, 100
8, 27600, Note_on_c, 5, 57, 0
8, 27600, Note_on_c, 5, 64, 0
8, 27600, Note_on_c, 5, 69, 0
8, 27660, Note_on_c, 5, 67, 100
8, 27660, Note_on_c, 5, 55, 100
8, 27660, Note_on_c, 5, 62, 100
8, 27720, Note_on_c, 5, 62, 0
8, 27720, Note_on_c, 5, 55, 0
8, 27720, Note_on_c, 5, 67, 0
8, 27720, Note_on_c, 5, 67, 100
8, 27720, Note_on_c, 5, 55, 100
8, 27720, Note_on_c, 5, 62, 100
8, 27780, Note_on_c, 5, 62, 0
8, 27780, Note_on_c, 5, 55, 0
8, 27780, Note_on_c, 5, 67, 0
8, 27780, Note_on_c, 5, 67, 100
8, 27780, Note_on_c, 5, 55, 100
8, 27780, Note_on_c, 5, 62, 100
8, 27840, Note_on_c, 5, 62, 0
8, 27840, Note_on_c, 5, 55, 0
8, 27840, Note_on_c, 5, 67, 0
8, 27840, Note_on_c, 5, 71, 100
8, 27840, Note_on_c, 5, 66, 100
8, 27840, Note_on_c, 5, 59, 100
8, 27900, Note_on_c, 5, 59, 0
8, 27900, Note_on_c, 5, 66, 0
8, 27900, Note_on_c, 5, 71, 0
8, 27900, Note_on_c, 5, 66, 100
8, 27900, Note_on_c, 5, 59, 100
8, 27960, Note_on_c, 5, 59, 0
8, 27960, Note_on_c, 5, 66, 0
8, 27960, Note_on_c, 5, 66, 100
8, 27960, Note_on_c, 5, 59, 100
8, 28020, Note_on_c, 5, 59, 0
8, 28020, Note_on_c, 5, 66, 0
8, 28020, Note_on_c, 5, 66, 100
8, 28020, Note_on_c, 5, 59, 100
8, 28080, Note_on_c, 5, 59, 0
8, 28080, Note_on_c, 5, 66, 0
8, 28080, Note_on_c, 5, 66, 100
8, 28080, Note_on_c, 5, 59, 100
8, 28140, Note_on_c, 5, 59, 0
8, 28140, Note_on_c, 5, 66, 0
8, 28140, Note_on_c, 5, 66, 100
8, 28140, Note_on_c, 5, 59, 100
8, 28200, Note_on_c, 5, 59, 0
8, 28200, Note_on_c, 5, 66, 0
8, 28200, Note_on_c, 5, 66, 100
8, 28200, Note_on_c, 5, 59, 100
8, 28260, Note_on_c, 5, 59, 0
8, 28260, Note_on_c, 5, 66, 0
8, 28260, Note_on_c, 5, 66, 100
8, 28260, Note_on_c, 5, 59, 100
8, 28320, Note_on_c, 5, 59, 0
8, 28320, Note_on_c, 5, 66, 0
8, 28320, Note_on_c, 5, 61, 100
8, 28320, Note_on_c, 5, 66, 100
8, 28380, Note_on_c, 5, 66, 0
8, 28380, Note_on_c, 5, 61, 0
8, 28380, Note_on_c, 5, 61, 100
8, 28380, Note_on_c, 5, 66, 100
8, 28440, Note_on_c, 5, 66, 0
8, 28440, Note_on_c, 5, 61, 0
8, 28440, Note_on_c, 5, 61, 100
8, 28440, Note_on_c, 5, 66, 100
8, 28500, Note_on_c, 5, 66, 0
8, 28500, Note_on_c, 5, 61, 0
8, 28500, Note_on_c, 5, 61, 100
8, 28500, Note_on_c, 5, 66, 100
8, 28560, Note_on_c, 5, 66, 0
8, 28560, Note_on_c, 5, 61, 0
8, 28560, Note_on_c, 5, 61, 100
8, 28560, Note_on_c, 5, 66, 100
8, 28620, Note_on_c, 5, 66, 0
8, 28620, Note_on_c, 5, 61, 0
8, 28620, Note_on_c, 5, 61, 100
8, 28620, Note_on_c, 5, 66, 100
8, 28680, Note_on_c, 5, 66, 0
8, 28680, Note_on_c, 5, 61, 0
8, 28680, Note_on_c, 5, 61, 100
8, 28680, Note_on_c, 5, 66, 100
8, 28740, Note_on_c, 5, 66, 0
8, 28740, Note_on_c, 5, 61, 0
8, 28740, Note_on_c, 5, 61, 100
8, 28740, Note_on_c, 5, 66, 100
8, 28800, Note_on_c, 5, 66, 0
8, 28800, Note_on_c, 5, 61, 0
8, 28800, Note_on_c, 5, 67, 100
8, 28800, Note_on_c, 5, 55, 100
8, 28800, Note_on_c, 5, 62, 100
8, 28860, Note_on_c, 5, 62, 0
8, 28860, Note_on_c, 5, 55, 0
8, 28860, Note_on_c, 5, 67, 0
8, 28860, Note_on_c, 5, 67, 100
8, 28860, Note_on_c, 5, 62, 100
8, 28860, Note_on_c, 5, 55, 100
8, 28920, Note_on_c, 5, 55, 0
8, 28920, Note_on_c, 5, 62, 0
8, 28920, Note_on_c, 5, 67, 0
8, 28920, Note_on_c, 5, 67, 100
8, 28920, Note_on_c, 5, 62, 100
8, 28920, Note_on_c, 5, 55, 100
8, 28980, Note_on_c, 5, 55, 0
8, 28980, Note_on_c, 5, 62, 0
8, 28980, Note_on_c, 5, 67, 0
8, 28980, Note_on_c, 5, 67, 100
8, 28980, Note_on_c, 5, 62, 100
8, 28980, Note_on_c, 5, 55, 100
8, 29040, Note_on_c, 5, 55, 0
8, 29040, Note_on_c, 5, 62, 0
8, 29040, Note_on_c, 5, 67, 0
8, 29040, Note_on_c, 5, 67, 100
8, 29040, Note_on_c, 5, 62, 100
8, 29040, Note_on_c, 5, 55, 100
8, 29100, Note_on_c, 5, 55, 0
8, 29100, Note_on_c, 5, 62, 0
8, 29100, Note_on_c, 5, 67, 0
8, 29100, Note_on_c, 5, 67, 100
8, 29100, Note_on_c, 5, 62, 100
8, 29100, Note_on_c, 5, 55, 100
8, 29160, Note_on_c, 5, 55, 0
8, 29160, Note_on_c, 5, 62, 0
8, 29160, Note_on_c, 5, 67, 0
8, 29160, Note_on_c, 5, 67, 100
8, 29160, Note_on_c, 5, 62, 100
8, 29160, Note_on_c, 5, 55, 100
8, 29220, Note_on_c, 5, 55, 0
8, 29220, Note_on_c, 5, 62, 0
8, 29220, Note_on_c, 5, 67, 0
8, 29220, Note_on_c, 5, 67, 100
8, 29220, Note_on_c, 5, 62, 100
8, 29220, Note_on_c, 5, 55, 100
8, 29280, Note_on_c, 5, 55, 0
8, 29280, Note_on_c, 5, 62, 0
8, 29280, Note_on_c, 5, 67, 0
8, 29280, Note_on_c, 5, 65, 100
8, 29280, Note_on_c, 5, 60, 100
8, 29280, Note_on_c, 5, 53, 100
8, 29340, Note_on_c, 5, 53, 0
8, 29340, Note_on_c, 5, 60, 0
8, 29340, Note_on_c, 5, 65, 0
8, 29340, Note_on_c, 5, 65, 100
8, 29340, Note_on_c, 5, 60, 100
8, 29340, Note_on_c, 5, 53, 100
8, 29400, Note_on_c, 5, 53, 0
8, 29400, Note_on_c, 5, 60, 0
8, 29400, Note_on_c, 5, 65, 0
8, 29400, Note_on_c, 5, 65, 100
8, 29400, Note_on_c, 5, 60, 100
8, 29400, Note_on_c, 5, 53, 100
8, 29460, Note_on_c, 5, 53, 0
8, 29460, Note_on_c, 5, 60, 0
8, 29460, Note_on_c, 5, 65, 0
8, 29460, Note_on_c, 5, 65, 100
8, 29460, Note_on_c, 5, 60, 100
8, 29460, Note_on_c, 5, 53, 100
8, 29520, Note_on_c, 5, 53, 0
8, 29520, Note_on_c, 5, 60, 0
8, 29520, Note_on_c, 5, 65, 0
8, 29520, Note_on_c, 5, 65, 100
8, 29520, Note_on_c, 5, 60, 100
8, 29520, Note_on_c, 5, 53, 100
8, 29580, Note_on_c, 5, 53, 0
8, 29580, Note_on_c, 5, 60, 0
8, 29580, Note_on_c, 5, 65, 0
8, 29580, Note_on_c, 5, 65, 100
8, 29580, Note_on_c, 5, 60, 100
8, 29580, Note_on_c, 5, 53, 100
8, 29640, Note_on_c, 5, 53, 0
8, 29640, Note_on_c, 5, 60, 0
8, 29640, Note_on_c, 5, 65, 0
8, 29640, Note_on_c, 5, 65, 100
8, 29640, Note_on_c, 5, 60, 100
8, 29640, Note_on_c, 5, 53, 100
8, 29700, Note_on_c, 5, 53, 0
8, 29700, Note_on_c, 5, 60, 0
8, 29700, Note_on_c, 5, 65, 0
8, 29700, Note_on_c, 5, 65, 100
8, 29700, Note_on_c, 5, 60, 100
8, 29700, Note_on_c, 5, 53, 100
8, 29760, Note_on_c, 5, 53, 0
8, 29760, Note_on_c, 5, 60, 0
8, 29760, Note_on_c, 5, 65, 0
8, 29760, Note_on_c, 5, 71, 100
8, 29760, Note_on_c, 5, 66, 100
8, 29760, Note_on_c, 5, 59, 100
8, 29820, Note_on_c, 5, 59, 0
8, 29820, Note_on_c, 5, 66, 0
8, 29820, Note_on_c, 5, 71, 0
8, 29820, Note_on_c, 5, 66, 100
8, 29820, Note_on_c, 5, 59, 100
8, 29880, Note_on_c, 5, 59, 0
8, 29880, Note_on_c, 5, 66, 0
8, 29880, Note_on_c, 5, 66, 100
8, 29880, Note_on_c, 5, 59, 100
8, 29940, Note_on_c, 5, 59, 0
8, 29940, Note_on_c, 5, 66, 0
8, 29940, Note_on_c, 5, 66, 100
8, 29940, Note_on_c, 5, 59, 100
8, 30000, Note_on_c, 5, 59, 0
8, 30000, Note_on_c, 5, 66, 0
8, 30000, Note_on_c, 5, 66, 100
8, 30000, Note_on_c, 5, 59, 100
8, 30060, Note_on_c, 5, 59, 0
8, 30060, Note_on_c, 5, 66, 0
8, 30060, Note_on_c, 5, 66, 100
8, 30060, Note_on_c, 5, 59, 100
8, 30120, Note_on_c, 5, 59, 0
8, 30120, Note_on_c, 5, 66, 0
8, 30120, Note_on_c, 5, 66, 100
8, 30120, Note_on_c, 5, 59, 100
8, 30180, Note_on_c, 5, 59, 0
8, 30180, Note_on_c, 5, 66, 0
8, 30180, Note_on_c, 5, 66, 100
8, 30180, Note_on_c, 5, 59, 100
8, 30240, Note_on_c, 5, 59, 0
8, 30240, Note_on_c, 5, 66, 0
8, 30240, Note_on_c, 5, 61, 100
8, 30240, Note_on_c, 5, 66, 100
8, 30300, Note_on_c, 5, 66, 0
8, 30300, Note_on_c, 5, 61, 0
8, 30300, Note_on_c, 5, 61, 100
8, 30300, Note_on_c, 5, 66, 100
8, 30360, Note_on_c, 5, 66, 0
8, 30360, Note_on_c, 5, 61, 0
8, 30360, Note_on_c, 5, 61, 100
8, 30360, Note_on_c, 5, 66, 100
8, 30420, Note_on_c, 5, 66, 0
8, 30420, Note_on_c, 5, 61, 0
8, 30420, Note_on_c, 5, 61, 100
8, 30420, Note_on_c, 5, 66, 100
8, 30480, Note_on_c, 5, 66, 0
8, 30480, Note_on_c, 5, 61, 0
8, 30480, Note_on_c, 5, 61, 100
8, 30480, Note_on_c, 5, 66, 100
8, 30540, Note_on_c, 5, 66, 0
8, 30540, Note_on_c, 5, 61, 0
8, 30540, Note_on_c, 5, 61, 100
8, 30540, Note_on_c, 5, 66, 100
8, 30600, Note_on_c, 5, 66, 0
8, 30600, Note_on_c, 5, 61, 0
8, 30600, Note_on_c, 5, 61, 100
8, 30600, Note_on_c, 5, 66, 100
8, 30660, Note_on_c, 5, 66, 0
8, 30660, Note_on_c, 5, 61, 0
8, 30660, Note_on_c, 5, 61, 100
8, 30660, Note_on_c, 5, 66, 100
8, 30720, Note_on_c, 5, 66, 0
8, 30720, Note_on_c, 5, 61, 0
8, 30720, Note_on_c, 5, 67, 100
8, 30720, Note_on_c, 5, 55, 100
8, 30720, Note_on_c, 5, 62, 100
8, 30780, Note_on_c, 5, 62, 0
8, 30780, Note_on_c, 5, 55, 0
8, 30780, Note_on_c, 5, 67, 0
8, 30780, Note_on_c, 5, 67, 100
8, 30780, Note_on_c, 5, 62, 100
8, 30780, Note_on_c, 5, 55, 100
8, 30840, Note_on_c, 5, 55, 0
8, 30840, Note_on_c, 5, 62, 0
8, 30840, Note_on_c, 5, 67, 0
8, 30840, Note_on_c, 5, 67, 100
8, 30840, Note_on_c, 5, 62, 100
8, 30840, Note_on_c, 5, 55, 100
8, 30900, Note_on_c, 5, 55, 0
8, 30900, Note_on_c, 5, 62, 0
8, 30900, Note_on_c, 5, 67, 0
8, 30900, Note_on_c, 5, 67, 100
8, 30900, Note_on_c, 5, 62, 100
8, 30900, Note_on_c, 5, 55, 100
8, 30960, Note_on_c, 5, 55, 0
8, 30960, Note_on_c, 5, 62, 0
8, 30960, Note_on_c, 5, 67, 0
8, 30960, Note_on_c, 5, 67, 100
8, 30960, Note_on_c, 5, 62, 100
8, 30960, Note_on_c, 5, 55, 100
8, 31020, Note_on_c, 5, 55, 0
8, 31020, Note_on_c, 5, 62, 0
8, 31020, Note_on_c, 5, 67, 0
8, 31020, Note_on_c, 5, 67, 100
8, 31020, Note_on_c, 5, 62, 100
8, 31020, Note_on_c, 5, 55, 100
8, 31080, Note_on_c, 5, 55, 0
8, 31080, Note_on_c, 5, 62, 0
8, 31080, Note_on_c, 5, 67, 0
8, 31080, Note_on_c, 5, 67, 100
8, 31080, Note_on_c, 5, 62, 100
8, 31080, Note_on_c, 5, 55, 100
8, 31140, Note_on_c, 5, 55, 0
8, 31140, Note_on_c, 5, 62, 0
8, 31140, Note_on_c, 5, 67, 0
8, 31140, Note_on_c, 5, 67, 100
8, 31140, Note_on_c, 5, 62, 100
8, 31140, Note_on_c, 5, 55, 100
8, 31200, Note_on_c, 5, 55, 0
8, 31200, Note_on_c, 5, 62, 0
8, 31200, Note_on_c, 5, 67, 0
8, 31200, Note_on_c, 5, 65, 100
8, 31200, Note_on_c, 5, 60, 100
8, 31200, Note_on_c, 5, 53, 100
8, 31260, Note_on_c, 5, 53, 0
8, 31260, Note_on_c, 5, 60, 0
8, 31260, Note_on_c, 5, 65, 0
8, 31260, Note_on_c, 5, 65, 100
8, 31260, Note_on_c, 5, 60, 100
8, 31260, Note_on_c, 5, 53, 100
8, 31320, Note_on_c, 5, 53, 0
8, 31320, Note_on_c, 5, 60, 0
8, 31320, Note_on_c, 5, 65, 0
8, 31320, Note_on_c, 5, 65, 100
8, 31320, Note_on_c, 5, 60, 100
8, 31320, Note_on_c, 5, 53, 100
8, 31380, Note_on_c, 5, 53, 0
8, 31380, Note_on_c, 5, 60, 0
8, 31380, Note_on_c, 5, 65, 0
8, 31380, Note_on_c, 5, 65, 100
8, 31380, Note_on_c, 5, 60, 100
8, 31380, Note_on_c, 5, 53, 100
8, 31440, Note_on_c, 5, 53, 0
8, 31440, Note_on_c, 5, 60, 0
8, 31440, Note_on_c, 5, 65, 0
8, 31440, Note_on_c, 5, 65, 100
8, 31440, Note_on_c, 5, 60, 100
8, 31440, Note_on_c, 5, 53, 100
8, 31500, Note_on_c, 5, 53, 0
8, 31500, Note_on_c, 5, 60, 0
8, 31500, Note_on_c, 5, 65, 0
8, 31500, Note_on_c, 5, 65, 100
8, 31500, Note_on_c, 5, 60, 100
8, 31500, Note_on_c, 5, 53, 100
8, 31560, Note_on_c, 5, 53, 0
8, 31560, Note_on_c, 5, 60, 0
8, 31560, Note_on_c, 5, 65, 0
8, 31560, Note_on_c, 5, 65, 100
8, 31560, Note_on_c, 5, 60, 100
8, 31560, Note_on_c, 5, 53, 100
8, 31620, Note_on_c, 5, 53, 0
8, 31620, Note_on_c, 5, 60, 0
8, 31620, Note_on_c, 5, 65, 0
8, 31620, Note_on_c, 5, 65, 100
8, 31620, Note_on_c, 5, 60, 100
8, 31620, Note_on_c, 5, 53, 100
8, 31680, Note_on_c, 5, 53, 0
8, 31680, Note_on_c, 5, 60, 0
8, 31680, Note_on_c, 5, 65, 0
8, 32160, Note_on_c, 5, 64, 100
8, 32160, Note_on_c, 5, 57, 100
8, 32160, Note_on_c, 5, 69, 100
8, 32220, Note_on_c, 5, 69, 100
8, 32220, Note_on_c, 5, 64, 100
8, 32220, Note_on_c, 5, 57, 100
8, 32280, Note_on_c, 5, 57, 0
8, 32280, Note_on_c, 5, 57, 0
8, 32280, Note_on_c, 5, 69, 0
8, 32280, Note_on_c, 5, 64, 0
8, 32280, Note_on_c, 5, 64, 0
8, 32280, Note_on_c, 5, 69, 0
8, 32280, Note_on_c, 5, 69, 100
8, 32280, Note_on_c, 5, 64, 100
8, 32280, Note_on_c, 5, 57, 100
8, 32340, Note_on_c, 5, 57, 0
8, 32340, Note_on_c, 5, 64, 0
8, 32340, Note_on_c, 5, 69, 0
8, 32340, Note_on_c, 5, 69, 100
8, 32340, Note_on_c, 5, 64, 100
8, 32340, Note_on_c, 5, 57, 100
8, 32400, Note_on_c, 5, 57, 0
8, 32400, Note_on_c, 5, 64, 0
8, 32400, Note_on_c, 5, 69, 0
8, 32460, Note_on_c, 5, 67, 100
8, 32460, Note_on_c, 5, 55, 100
8, 32460, Note_on_c, 5, 62, 100
8, 32520, Note_on_c, 5, 62, 0
8, 32520, Note_on_c, 5, 55, 0
8, 32520, Note_on_c, 5, 67, 0
8, 32520, Note_on_c, 5, 67, 100
8, 32520, Note_on_c, 5, 55, 100
8, 32520, Note_on_c, 5, 62, 100
8, 32580, Note_on_c, 5, 62, 0
8, 32580, Note_on_c, 5, 55, 0
8, 32580, Note_on_c, 5, 67, 0
8, 32580, Note_on_c, 5, 67, 100
8, 32580, Note_on_c, 5, 55, 100
8, 32580, Note_on_c, 5, 62, 100
8, 32640, Note_on_c, 5, 62, 0
8, 32640, Note_on_c, 5, 55, 0
8, 32640, Note_on_c, 5, 67, 0
8, 32640, Note_on_c, 5, 64, 100
8, 32640, Note_on_c, 5, 57, 100
8, 32640, Note_on_c, 5, 69, 100
8, 32700, Note_on_c, 5, 69, 100
8, 32700, Note_on_c, 5, 64, 100
8, 32700, Note_on_c, 5, 57, 100
8, 32760, Note_on_c, 5, 57, 0
8, 32760, Note_on_c, 5, 57, 0
8, 32760, Note_on_c, 5, 69, 0
8, 32760, Note_on_c, 5, 64, 0
8, 32760, Note_on_c, 5, 64, 0
8, 32760, Note_on_c, 5, 69, 0
8, 32760, Note_on_c, 5, 69, 100
8, 32760, Note_on_c, 5, 64, 100
8, 32760, Note_on_c, 5, 57, 100
8, 32820, Note_on_c, 5, 57, 0
8, 32820, Note_on_c, 5, 64, 0
8, 32820, Note_on_c, 5, 69, 0
8, 32820, Note_on_c, 5, 69, 100
8, 32820, Note_on_c, 5, 64, 100
8, 32820, Note_on_c, 5, 57, 100
8, 32880, Note_on_c, 5, 57, 0
8, 32880, Note_on_c, 5, 64, 0
8, 32880, Note_on_c, 5, 69, 0
8, 32940, Note_on_c, 5, 67, 100
8, 32940, Note_on_c, 5, 55, 100
8, 32940, Note_on_c, 5, 62, 100
8, 33000, Note_on_c, 5, 62, 0
8, 33000, Note_on_c, 5, 55, 0
8, 33000, Note_on_c, 5, 67, 0
8, 33000, Note_on_c, 5, 67, 100
8, 33000, Note_on_c, 5, 55, 100
8, 33000, Note_on_c, 5, 62, 100
8, 33060, Note_on_c, 5, 62, 0
8, 33060, Note_on_c, 5, 55, 0
8, 33060, Note_on_c, 5, 67, 0
8, 33060, Note_on_c, 5, 67, 100
8, 33060, Note_on_c, 5, 55, 100
8, 33060, Note_on_c, 5, 62, 100
8, 33120, Note_on_c, 5, 62, 0
8, 33120, Note_on_c, 5, 55, 0
8, 33120, Note_on_c, 5, 67, 0
8, 33600, Note_on_c, 5, 64, 100
8, 33600, Note_on_c, 5, 57, 100
8, 33600, Note_on_c, 5, 69, 100
8, 33660, Note_on_c, 5, 69, 100
8, 33660, Note_on_c, 5, 64, 100
8, 33660, Note_on_c, 5, 57, 100
8, 33720, Note_on_c, 5, 57, 0
8, 33720, Note_on_c, 5, 57, 0
8, 33720, Note_on_c, 5, 69, 0
8, 33720, Note_on_c, 5, 64, 0
8, 33720, Note_on_c, 5, 64, 0
8, 33720, Note_on_c, 5, 69, 0
8, 33720, Note_on_c, 5, 69, 100
8, 33720, Note_on_c, 5, 64, 100
8, 33720, Note_on_c, 5, 57, 100
8, 33780, Note_on_c, 5, 57, 0
8, 33780, Note_on_c, 5, 64, 0
8, 33780, Note_on_c, 5, 69, 0
8, 33780, Note_on_c, 5, 69, 100
8, 33780, Note_on_c, 5, 76, 100
8, 33780, Note_on_c, 5, 81, 100
8, 33840, Note_on_c, 5, 81, 0
8, 33840, Note_on_c, 5, 76, 0
8, 33840, Note_on_c, 5, 69, 0
8, 33900, Note_on_c, 5, 67, 100
8, 33900, Note_on_c, 5, 55, 100
8, 33900, Note_on_c, 5, 62, 100
8, 33960, Note_on_c, 5, 62, 0
8, 33960, Note_on_c, 5, 55, 0
8, 33960, Note_on_c, 5, 67, 0
8, 33960, Note_on_c, 5, 67, 100
8, 33960, Note_on_c, 5, 55, 100
8, 33960, Note_on_c, 5, 62, 100
8, 34020, Note_on_c, 5, 62, 0
8, 34020, Note_on_c, 5, 55, 0
8, 34020, Note_on_c, 5, 67, 0
8, 34020, Note_on_c, 5, 67, 100
8, 34020, Note_on_c, 5, 55, 100
8, 34020, Note_on_c, 5, 62, 100
8, 34080, Note_on_c, 5, 62, 0
8, 34080, Note_on_c, 5, 55, 0
8, 34080, Note_on_c, 5, 67, 0
8, 34080, Note_on_c, 5, 64, 100
8, 34080, Note_on_c, 5, 57, 100
8, 34080, Note_on_c, 5, 69, 100
8, 34140, Note_on_c, 5, 69, 100
8, 34140, Note_on_c, 5, 64, 100
8, 34140, Note_on_c, 5, 57, 100
8, 34200, Note_on_c, 5, 57, 0
8, 34200, Note_on_c, 5, 57, 0
8, 34200, Note_on_c, 5, 69, 0
8, 34200, Note_on_c, 5, 64, 0
8, 34200, Note_on_c, 5, 64, 0
8, 34200, Note_on_c, 5, 69, 0
8, 34200, Note_on_c, 5, 69, 100
8, 34200, Note_on_c, 5, 64, 100
8, 34200, Note_on_c, 5, 57, 100
8, 34260, Note_on_c, 5, 57, 0
8, 34260, Note_on_c, 5, 64, 0
8, 34260, Note_on_c, 5, 69, 0
8, 34260, Note_on_c, 5, 69, 100
8, 34260, Note_on_c, 5, 76, 100
8, 34260, Note_on_c, 5, 81, 100
8, 34320, Note_on_c, 5, 81, 0
8, 34320, Note_on_c, 5, 76, 0
8, 34320, Note_on_c, 5, 69, 0
8, 34380, Note_on_c, 5, 67, 100
8, 34380, Note_on_c, 5, 55, 100
8, 34380, Note_on_c, 5, 62, 100
8, 34440, Note_on_c, 5, 62, 0
8, 34440, Note_on_c, 5, 55, 0
8, 34440, Note_on_c, 5, 67, 0
8, 34440, Note_on_c, 5, 67, 100
8, 34440, Note_on_c, 5, 55, 100
8, 34440, Note_on_c, 5, 62, 100
8, 34500, Note_on_c, 5, 62, 0
8, 34500, Note_on_c, 5, 55, 0
8, 34500, Note_on_c, 5, 67, 0
8, 34500, Note_on_c, 5, 67, 100
8, 34500, Note_on_c, 5, 55, 100
8, 34500, Note_on_c, 5, 62, 100
8, 34560, Note_on_c, 5, 62, 0
8, 34560, Note_on_c, 5, 55, 0
8, 34560, Note_on_c, 5, 67, 0
8, 34560, Note_on_c, 5, 64, 100
8, 34560, Note_on_c, 5, 57, 100
8, 34560, Note_on_c, 5, 69, 100
8, 34620, Note_on_c, 5, 69, 100
8, 34620, Note_on_c, 5, 64, 100
8, 34620, Note_on_c, 5, 57, 100
8, 34680, Note_on_c, 5, 57, 0
8, 34680, Note_on_c, 5, 57, 0
8, 34680, Note_on_c, 5, 69, 0
8, 34680, Note_on_c, 5, 64, 0
8, 34680, Note_on_c, 5, 64, 0
8, 34680, Note_on_c, 5, 69, 0
8, 34680, Note_on_c, 5, 69, 100
8, 34680, Note_on_c, 5, 64, 100
8, 34680, Note_on_c, 5, 57, 100
8, 34740, Note_on_c, 5, 57, 0
8, 34740, Note_on_c, 5, 64, 0
8, 34740, Note_on_c, 5, 69, 0
8, 34740, Note_on_c, 5, 69, 100
8, 34740, Note_on_c, 5, 81, 100
8, 34740, Note_on_c, 5, 76, 100
8, 34800, Note_on_c, 5, 76, 0
8, 34800, Note_on_c, 5, 81, 0
8, 34800, Note_on_c, 5, 69, 0
8, 34860, Note_on_c, 5, 67, 100
8, 34860, Note_on_c, 5, 55, 100
8, 34860, Note_on_c, 5, 62, 100
8, 34920, Note_on_c, 5, 62, 0
8, 34920, Note_on_c, 5, 55, 0
8, 34920, Note_on_c, 5, 67, 0
8, 34920, Note_on_c, 5, 67, 100
8, 34920, Note_on_c, 5, 55, 100
8, 34920, Note_on_c, 5, 62, 100
8, 34980, Note_on_c, 5, 62, 0
8, 34980, Note_on_c, 5, 55, 0
8, 34980, Note_on_c, 5, 67, 0
8, 34980, Note_on_c, 5, 67, 100
8, 34980, Note_on_c, 5, 55, 100
8, 34980, Note_on_c, 5, 62, 100
8, 35040, Note_on_c, 5, 62, 0
8, 35040, Note_on_c, 5, 55, 0
8, 35040, Note_on_c, 5, 67, 0
8, 35040, Note_on_c, 5, 64, 100
8, 35040, Note_on_c, 5, 57, 100
8, 35040, Note_on_c, 5, 69, 100
8, 35100, Note_on_c, 5, 69, 100
8, 35100, Note_on_c, 5, 64, 100
8, 35100, Note_on_c, 5, 57, 100
8, 35160, Note_on_c, 5, 57, 0
8, 35160, Note_on_c, 5, 57, 0
8, 35160, Note_on_c, 5, 69, 0
8, 35160, Note_on_c, 5, 64, 0
8, 35160, Note_on_c, 5, 64, 0
8, 35160, Note_on_c, 5, 69, 0
8, 35160, Note_on_c, 5, 69, 100
8, 35160, Note_on_c, 5, 64, 100
8, 35160, Note_on_c, 5, 57, 100
8, 35220, Note_on_c, 5, 57, 0
8, 35220, Note_on_c, 5, 64, 0
8, 35220, Note_on_c, 5, 69, 0
8, 35220, Note_on_c, 5, 69, 100
8, 35220, Note_on_c, 5, 76, 100
8, 35220, Note_on_c, 5, 81, 100
8, 35280, Note_on_c, 5, 81, 0
8, 35280, Note_on_c, 5, 76, 0
8, 35280, Note_on_c, 5, 69, 0
8, 35340, Note_on_c, 5, 67, 100
8, 35340, Note_on_c, 5, 55, 100
8, 35340, Note_on_c, 5, 62, 100
8, 35400, Note_on_c, 5, 62, 0
8, 35400, Note_on_c, 5, 55, 0
8, 35400, Note_on_c, 5, 67, 0
8, 35400, Note_on_c, 5, 67, 100
8, 35400, Note_on_c, 5, 55, 100
8, 35400, Note_on_c, 5, 62, 100
8, 35460, Note_on_c, 5, 62, 0
8, 35460, Note_on_c, 5, 55, 0
8, 35460, Note_on_c, 5, 67, 0
8, 35460, Note_on_c, 5, 67, 100
8, 35460, Note_on_c, 5, 55, 100
8, 35460, Note_on_c, 5, 62, 100
8, 35520, Note_on_c, 5, 62, 0
8, 35520, Note_on_c, 5, 55, 0
8, 35520, Note_on_c, 5, 67, 0
8, 35520, Note_on_c, 5, 64, 100
8, 35520, Note_on_c, 5, 57, 100
8, 35520, Note_on_c, 5, 69, 100
8, 35580, Note_on_c, 5, 69, 100
8, 35580, Note_on_c, 5, 64, 100
8, 35580, Note_on_c, 5, 57, 100
8, 35640, Note_on_c, 5, 57, 0
8, 35640, Note_on_c, 5, 57, 0
8, 35640, Note_on_c, 5, 69, 0
8, 35640, Note_on_c, 5, 64, 0
8, 35640, Note_on_c, 5, 64, 0
8, 35640, Note_on_c, 5, 69, 0
8, 35640, Note_on_c, 5, 69, 100
8, 35640, Note_on_c, 5, 64, 100
8, 35640, Note_on_c, 5, 57, 100
8, 35700, Note_on_c, 5, 57, 0
8, 35700, Note_on_c, 5, 64, 0
8, 35700, Note_on_c, 5, 69, 0
8, 35700, Note_on_c, 5, 69, 100
8, 35700, Note_on_c, 5, 76, 100
8, 35700, Note_on_c, 5, 81, 100
8, 35760, Note_on_c, 5, 81, 0
8, 35760, Note_on_c, 5, 76, 0
8, 35760, Note_on_c, 5, 69, 0
8, 35820, Note_on_c, 5, 67, 100
8, 35820, Note_on_c, 5, 55, 100
8, 35820, Note_on_c, 5, 62, 100
8, 35880, Note_on_c, 5, 62, 0
8, 35880, Note_on_c, 5, 55, 0
8, 35880, Note_on_c, 5, 67, 0
8, 35880, Note_on_c, 5, 67, 100
8, 35880, Note_on_c, 5, 55, 100
8, 35880, Note_on_c, 5, 62, 100
8, 35940, Note_on_c, 5, 62, 0
8, 35940, Note_on_c, 5, 55, 0
8, 35940, Note_on_c, 5, 67, 0
8, 35940, Note_on_c, 5, 67, 100
8, 35940, Note_on_c, 5, 55, 100
8, 35940, Note_on_c, 5, 62, 100
8, 36000, Note_on_c, 5, 62, 0
8, 36000, Note_on_c, 5, 55, 0
8, 36000, Note_on_c, 5, 67, 0
8, 36000, Note_on_c, 5, 64, 100
8, 36000, Note_on_c, 5, 57, 100
8, 36000, Note_on_c, 5, 69, 100
8, 36060, Note_on_c, 5, 69, 100
8, 36060, Note_on_c, 5, 64, 100
8, 36060, Note_on_c, 5, 57, 100
8, 36120, Note_on_c, 5, 57, 0
8, 36120, Note_on_c, 5, 57, 0
8, 36120, Note_on_c, 5, 69, 0
8, 36120, Note_on_c, 5, 64, 0
8, 36120, Note_on_c, 5, 64, 0
8, 36120, Note_on_c, 5, 69, 0
8, 36120, Note_on_c, 5, 69, 100
8, 36120, Note_on_c, 5, 64, 100
8, 36120, Note_on_c, 5, 57, 100
8, 36180, Note_on_c, 5, 57, 0
8, 36180, Note_on_c, 5, 64, 0
8, 36180, Note_on_c, 5, 69, 0
8, 36180, Note_on_c, 5, 69, 100
8, 36180, Note_on_c, 5, 76, 100
8, 36180, Note_on_c, 5, 81, 100
8, 36240, Note_on_c, 5, 81, 0
8, 36240, Note_on_c, 5, 76, 0
8, 36240, Note_on_c, 5, 69, 0
8, 36300, Note_on_c, 5, 67, 100
8, 36300, Note_on_c, 5, 55, 100
8, 36300, Note_on_c, 5, 62, 100
8, 36360, Note_on_c, 5, 62, 0
8, 36360, Note_on_c, 5, 55, 0
8, 36360, Note_on_c, 5, 67, 0
8, 36360, Note_on_c, 5, 67, 100
8, 36360, Note_on_c, 5, 55, 100
8, 36360, Note_on_c, 5, 62, 100
8, 36420, Note_on_c, 5, 62, 0
8, 36420, Note_on_c, 5, 55, 0
8, 36420, Note_on_c, 5, 67, 0
8, 36420, Note_on_c, 5, 67, 100
8, 36420, Note_on_c, 5, 55, 100
8, 36420, Note_on_c, 5, 62, 100
8, 36480, Note_on_c, 5, 62, 0
8, 36480, Note_on_c, 5, 55, 0
8, 36480, Note_on_c, 5, 67, 0
8, 36480, Note_on_c, 5, 64, 100
8, 36480, Note_on_c, 5, 57, 100
8, 36480, Note_on_c, 5, 69, 100
8, 36540, Note_on_c, 5, 69, 100
8, 36540, Note_on_c, 5, 64, 100
8, 36540, Note_on_c, 5, 57, 100
8, 36600, Note_on_c, 5, 57, 0
8, 36600, Note_on_c, 5, 57, 0
8, 36600, Note_on_c, 5, 69, 0
8, 36600, Note_on_c, 5, 64, 0
8, 36600, Note_on_c, 5, 64, 0
8, 36600, Note_on_c, 5, 69, 0
8, 36600, Note_on_c, 5, 69, 100
8, 36600, Note_on_c, 5, 64, 100
8, 36600, Note_on_c, 5, 57, 100
8, 36660, Note_on_c, 5, 57, 0
8, 36660, Note_on_c, 5, 64, 0
8, 36660, Note_on_c, 5, 69, 0
8, 36660, Note_on_c, 5, 69, 100
8, 36660, Note_on_c, 5, 81, 100
8, 36660, Note_on_c, 5, 76, 100
8, 36720, Note_on_c, 5, 76, 0
8, 36720, Note_on_c, 5, 81, 0
8, 36720, Note_on_c, 5, 69, 0
8, 36780, Note_on_c, 5, 67, 100
8, 36780, Note_on_c, 5, 55, 100
8, 36780, Note_on_c, 5, 62, 100
8, 36840, Note_on_c, 5, 62, 0
8, 36840, Note_on_c, 5, 55, 0
8, 36840, Note_on_c, 5, 67, 0
8, 36840, Note_on_c, 5, 67, 100
8, 36840, Note_on_c, 5, 55, 100
8, 36840, Note_on_c, 5, 62, 100
8, 36900, Note_on_c, 5, 62, 0
8, 36900, Note_on_c, 5, 55, 0
8, 36900, Note_on_c, 5, 67, 0
8, 36900, Note_on_c, 5, 67, 100
8, 36900, Note_on_c, 5, 55, 100
8, 36900, Note_on_c, 5, 62, 100
8, 36960, Note_on_c, 5, 62, 0
8, 36960, Note_on_c, 5, 55, 0
8, 36960, Note_on_c, 5, 67, 0
8, 36960, Note_on_c, 5, 64, 100
8, 36960, Note_on_c, 5, 57, 100
8, 36960, Note_on_c, 5, 69, 100
8, 37020, Note_on_c, 5, 69, 100
8, 37020, Note_on_c, 5, 64, 100
8, 37020, Note_on_c, 5, 57, 100
8, 37080, Note_on_c, 5, 57, 0
8, 37080, Note_on_c, 5, 57, 0
8, 37080, Note_on_c, 5, 69, 0
8, 37080, Note_on_c, 5, 64, 0
8, 37080, Note_on_c, 5, 64, 0
8, 37080, Note_on_c, 5, 69, 0
8, 37080, Note_on_c, 5, 69, 100
8, 37080, Note_on_c, 5, 64, 100
8, 37080, Note_on_c, 5, 57, 100
8, 37140, Note_on_c, 5, 57, 0
8, 37140, Note_on_c, 5, 64, 0
8, 37140, Note_on_c, 5, 69, 0
8, 37140, Note_on_c, 5, 69, 100
8, 37140, Note_on_c, 5, 76, 100
8, 37140, Note_on_c, 5, 81, 100
8, 37200, Note_on_c, 5, 81, 0
8, 37200, Note_on_c, 5, 76, 0
8, 37200, Note_on_c, 5, 69, 0
8, 37260, Note_on_c, 5, 67, 100
8, 37260, Note_on_c, 5, 55, 100
8, 37260, Note_on_c, 5, 62, 100
8, 37320, Note_on_c, 5, 62, 0
8, 37320, Note_on_c, 5, 55, 0
8, 37320, Note_on_c, 5, 67, 0
8, 37320, Note_on_c, 5, 67, 100
8, 37320, Note_on_c, 5, 55, 100
8, 37320, Note_on_c, 5, 62, 100
8, 37380, Note_on_c, 5, 62, 0
8, 37380, Note_on_c, 5, 55, 0
8, 37380, Note_on_c, 5, 67, 0
8, 37380, Note_on_c, 5, 67, 100
8, 37380, Note_on_c, 5, 55, 100
8, 37380, Note_on_c, 5, 62, 100
8, 37440, Note_on_c, 5, 62, 0
8, 37440, Note_on_c, 5, 55, 0
8, 37440, Note_on_c, 5, 67, 0
8, 37440, Note_on_c, 5, 64, 100
8, 37440, Note_on_c, 5, 57, 100
8, 37440, Note_on_c, 5, 69, 100
8, 37500, Note_on_c, 5, 69, 100
8, 37500, Note_on_c, 5, 64, 100
8, 37500, Note_on_c, 5, 57, 100
8, 37560, Note_on_c, 5, 57, 0
8, 37560, Note_on_c, 5, 57, 0
8, 37560, Note_on_c, 5, 69, 0
8, 37560, Note_on_c, 5, 64, 0
8, 37560, Note_on_c, 5, 64, 0
8, 37560, Note_on_c, 5, 69, 0
8, 37560, Note_on_c, 5, 69, 100
8, 37560, Note_on_c, 5, 64, 100
8, 37560, Note_on_c, 5, 57, 100
8, 37620, Note_on_c, 5, 57, 0
8, 37620, Note_on_c, 5, 64, 0
8, 37620, Note_on_c, 5, 69, 0
8, 37620, Note_on_c, 5, 69, 100
8, 37620, Note_on_c, 5, 76, 100
8, 37620, Note_on_c, 5, 81, 100
8, 37680, Note_on_c, 5, 81, 0
8, 37680, Note_on_c, 5, 76, 0
8, 37680, Note_on_c, 5, 69, 0
8, 37740, Note_on_c, 5, 67, 100
8, 37740, Note_on_c, 5, 55, 100
8, 37740, Note_on_c, 5, 62, 100
8, 37800, Note_on_c, 5, 62, 0
8, 37800, Note_on_c, 5, 55, 0
8, 37800, Note_on_c, 5, 67, 0
8, 37800, Note_on_c, 5, 67, 100
8, 37800, Note_on_c, 5, 55, 100
8, 37800, Note_on_c, 5, 62, 100
8, 37860, Note_on_c, 5, 62, 0
8, 37860, Note_on_c, 5, 55, 0
8, 37860, Note_on_c, 5, 67, 0
8, 37860, Note_on_c, 5, 67, 100
8, 37860, Note_on_c, 5, 55, 100
8, 37860, Note_on_c, 5, 62, 100
8, 37920, Note_on_c, 5, 62, 0
8, 37920, Note_on_c, 5, 55, 0
8, 37920, Note_on_c, 5, 67, 0
8, 37920, Note_on_c, 5, 64, 100
8, 37920, Note_on_c, 5, 57, 100
8, 37920, Note_on_c, 5, 69, 100
8, 37980, Note_on_c, 5, 69, 100
8, 37980, Note_on_c, 5, 64, 100
8, 37980, Note_on_c, 5, 57, 100
8, 38040, Note_on_c, 5, 57, 0
8, 38040, Note_on_c, 5, 57, 0
8, 38040, Note_on_c, 5, 69, 0
8, 38040, Note_on_c, 5, 64, 0
8, 38040, Note_on_c, 5, 64, 0
8, 38040, Note_on_c, 5, 69, 0
8, 38040, Note_on_c, 5, 69, 100
8, 38040, Note_on_c, 5, 64, 100
8, 38040, Note_on_c, 5, 57, 100
8, 38100, Note_on_c, 5, 57, 0
8, 38100, Note_on_c, 5, 64, 0
8, 38100, Note_on_c, 5, 69, 0
8, 38100, Note_on_c, 5, 69, 100
8, 38100, Note_on_c, 5, 76, 100
8, 38100, Note_on_c, 5, 81, 100
8, 38160, Note_on_c, 5, 81, 0
8, 38160, Note_on_c, 5, 76, 0
8, 38160, Note_on_c, 5, 69, 0
8, 38220, Note_on_c, 5, 67, 100
8, 38220, Note_on_c, 5, 55, 100
8, 38220, Note_on_c, 5, 62, 100
8, 38280, Note_on_c, 5, 62, 0
8, 38280, Note_on_c, 5, 55, 0
8, 38280, Note_on_c, 5, 67, 0
8, 38280, Note_on_c, 5, 67, 100
8, 38280, Note_on_c, 5, 55, 100
8, 38280, Note_on_c, 5, 62, 100
8, 38340, Note_on_c, 5, 62, 0
8, 38340, Note_on_c, 5, 55, 0
8, 38340, Note_on_c, 5, 67, 0
8, 38340, Note_on_c, 5, 67, 100
8, 38340, Note_on_c, 5, 55, 100
8, 38340, Note_on_c, 5, 62, 100
8, 38400, Note_on_c, 5, 62, 0
8, 38400, Note_on_c, 5, 55, 0
8, 38400, Note_on_c, 5, 67, 0
8, 38400, Note_on_c, 5, 64, 100
8, 38400, Note_on_c, 5, 57, 100
8, 38400, Note_on_c, 5, 69, 100
8, 38460, Note_on_c, 5, 69, 100
8, 38460, Note_on_c, 5, 64, 100
8, 38460, Note_on_c, 5, 57, 100
8, 38520, Note_on_c, 5, 57, 0
8, 38520, Note_on_c, 5, 57, 0
8, 38520, Note_on_c, 5, 69, 0
8, 38520, Note_on_c, 5, 64, 0
8, 38520, Note_on_c, 5, 64, 0
8, 38520, Note_on_c, 5, 69, 0
8, 38520, Note_on_c, 5, 69, 100
8, 38520, Note_on_c, 5, 64, 100
8, 38520, Note_on_c, 5, 57, 100
8, 38580, Note_on_c, 5, 57, 0
8, 38580, Note_on_c, 5, 64, 0
8, 38580, Note_on_c, 5, 69, 0
8, 38580, Note_on_c, 5, 69, 100
8, 38580, Note_on_c, 5, 81, 100
8, 38580, Note_on_c, 5, 76, 100
8, 38640, Note_on_c, 5, 76, 0
8, 38640, Note_on_c, 5, 81, 0
8, 38640, Note_on_c, 5, 69, 0
8, 38700, Note_on_c, 5, 67, 100
8, 38700, Note_on_c, 5, 55, 100
8, 38700, Note_on_c, 5, 62, 100
8, 38760, Note_on_c, 5, 62, 0
8, 38760, Note_on_c, 5, 55, 0
8, 38760, Note_on_c, 5, 67, 0
8, 38760, Note_on_c, 5, 67, 100
8, 38760, Note_on_c, 5, 55, 100
8, 38760, Note_on_c, 5, 62, 100
8, 38820, Note_on_c, 5, 62, 0
8, 38820, Note_on_c, 5, 55, 0
8, 38820, Note_on_c, 5, 67, 0
8, 38820, Note_on_c, 5, 67, 100
8, 38820, Note_on_c, 5, 55, 100
8, 38820, Note_on_c, 5, 62, 100
8, 38880, Note_on_c, 5, 62, 0
8, 38880, Note_on_c, 5, 55, 0
8, 38880, Note_on_c, 5, 67, 0
8, 38880, Note_on_c, 5, 64, 100
8, 38880, Note_on_c, 5, 57, 100
8, 38880, Note_on_c, 5, 69, 100
8, 38940, Note_on_c, 5, 69, 100
8, 38940, Note_on_c, 5, 64, 100
8, 38940, Note_on_c, 5, 57, 100
8, 39000, Note_on_c, 5, 57, 0
8, 39000, Note_on_c, 5, 57, 0
8, 39000, Note_on_c, 5, 69, 0
8, 39000, Note_on_c, 5, 64, 0
8, 39000, Note_on_c, 5, 64, 0
8, 39000, Note_on_c, 5, 69, 0
8, 39000, Note_on_c, 5, 69, 100
8, 39000, Note_on_c, 5, 64, 100
8, 39000, Note_on_c, 5, 57, 100
8, 39060, Note_on_c, 5, 57, 0
8, 39060, Note_on_c, 5, 64, 0
8, 39060, Note_on_c, 5, 69, 0
8, 39060, Note_on_c, 5, 69, 100
8, 39060, Note_on_c, 5, 76, 100
8, 39060, Note_on_c, 5, 81, 100
8, 39120, Note_on_c, 5, 81, 0
8, 39120, Note_on_c, 5, 76, 0
8, 39120, Note_on_c, 5, 69, 0
8, 39180, Note_on_c, 5, 67, 100
8, 39180, Note_on_c, 5, 55, 100
8, 39180, Note_on_c, 5, 62, 100
8, 39240, Note_on_c, 5, 62, 0
8, 39240, Note_on_c, 5, 55, 0
8, 39240, Note_on_c, 5, 67, 0
8, 39240, Note_on_c, 5, 67, 100
8, 39240, Note_on_c, 5, 55, 100
8, 39240, Note_on_c, 5, 62, 100
8, 39300, Note_on_c, 5, 62, 0
8, 39300, Note_on_c, 5, 55, 0
8, 39300, Note_on_c, 5, 67, 0
8, 39300, Note_on_c, 5, 67, 100
8, 39300, Note_on_c, 5, 55, 100
8, 39300, Note_on_c, 5, 62, 100
8, 39360, Note_on_c, 5, 62, 0
8, 39360, Note_on_c, 5, 55, 0
8, 39360, Note_on_c, 5, 67, 0
8, 39360, Note_on_c, 5, 64, 100
8, 39360, Note_on_c, 5, 57, 100
8, 39360, Note_on_c, 5, 69, 100
8, 39420, Note_on_c, 5, 69, 100
8, 39420, Note_on_c, 5, 64, 100
8, 39420, Note_on_c, 5, 57, 100
8, 39480, Note_on_c, 5, 57, 0
8, 39480, Note_on_c, 5, 57, 0
8, 39480, Note_on_c, 5, 69, 0
8, 39480, Note_on_c, 5, 64, 0
8, 39480, Note_on_c, 5, 64, 0
8, 39480, Note_on_c, 5, 69, 0
8, 39480, Note_on_c, 5, 69, 100
8, 39480, Note_on_c, 5, 64, 100
8, 39480, Note_on_c, 5, 57, 100
8, 39540, Note_on_c, 5, 57, 0
8, 39540, Note_on_c, 5, 64, 0
8, 39540, Note_on_c, 5, 69, 0
8, 39540, Note_on_c, 5, 69, 100
8, 39540, Note_on_c, 5, 76, 100
8, 39540, Note_on_c, 5, 81, 100
8, 39600, Note_on_c, 5, 81, 0
8, 39600, Note_on_c, 5, 76, 0
8, 39600, Note_on_c, 5, 69, 0
8, 39660, Note_on_c, 5, 67, 100
8, 39660, Note_on_c, 5, 55, 100
8, 39660, Note_on_c, 5, 62, 100
8, 39720, Note_on_c, 5, 62, 0
8, 39720, Note_on_c, 5, 55, 0
8, 39720, Note_on_c, 5, 67, 0
8, 39720, Note_on_c, 5, 67, 100
8, 39720, Note_on_c, 5, 55, 100
8, 39720, Note_on_c, 5, 62, 100
8, 39780, Note_on_c, 5, 62, 0
8, 39780, Note_on_c, 5, 55, 0
8, 39780, Note_on_c, 5, 67, 0
8, 39780, Note_on_c, 5, 67, 100
8, 39780, Note_on_c, 5, 55, 100
8, 39780, Note_on_c, 5, 62, 100
8, 39840, Note_on_c, 5, 62, 0
8, 39840, Note_on_c, 5, 55, 0
8, 39840, Note_on_c, 5, 67, 0
8, 39840, Note_on_c, 5, 64, 100
8, 39840, Note_on_c, 5, 57, 100
8, 39840, Note_on_c, 5, 69, 100
8, 39900, Note_on_c, 5, 69, 100
8, 39900, Note_on_c, 5, 64, 100
8, 39900, Note_on_c, 5, 57, 100
8, 39960, Note_on_c, 5, 57, 0
8, 39960, Note_on_c, 5, 57, 0
8, 39960, Note_on_c, 5, 69, 0
8, 39960, Note_on_c, 5, 64, 0
8, 39960, Note_on_c, 5, 64, 0
8, 39960, Note_on_c, 5, 69, 0
8, 39960, Note_on_c, 5, 69, 100
8, 39960, Note_on_c, 5, 64, 100
8, 39960, Note_on_c, 5, 57, 100
8, 40020, Note_on_c, 5, 57, 0
8, 40020, Note_on_c, 5, 64, 0
8, 40020, Note_on_c, 5, 69, 0
8, 40020, Note_on_c, 5, 69, 100
8, 40020, Note_on_c, 5, 76, 100
8, 40020, Note_on_c, 5, 81, 100
8, 40080, Note_on_c, 5, 81, 0
8, 40080, Note_on_c, 5, 76, 0
8, 40080, Note_on_c, 5, 69, 0
8, 40140, Note_on_c, 5, 67, 100
8, 40140, Note_on_c, 5, 55, 100
8, 40140, Note_on_c, 5, 62, 100
8, 40200, Note_on_c, 5, 62, 0
8, 40200, Note_on_c, 5, 55, 0
8, 40200, Note_on_c, 5, 67, 0
8, 40200, Note_on_c, 5, 67, 100
8, 40200, Note_on_c, 5, 55, 100
8, 40200, Note_on_c, 5, 62, 100
8, 40260, Note_on_c, 5, 62, 0
8, 40260, Note_on_c, 5, 55, 0
8, 40260, Note_on_c, 5, 67, 0
8, 40260, Note_on_c, 5, 67, 100
8, 40260, Note_on_c, 5, 55, 100
8, 40260, Note_on_c, 5, 62, 100
8, 40320, Note_on_c, 5, 62, 0
8, 40320, Note_on_c, 5, 55, 0
8, 40320, Note_on_c, 5, 67, 0
8, 40320, Note_on_c, 5, 64, 100
8, 40320, Note_on_c, 5, 57, 100
8, 40320, Note_on_c, 5, 69, 100
8, 40380, Note_on_c, 5, 69, 100
8, 40380, Note_on_c, 5, 64, 100
8, 40380, Note_on_c, 5, 57, 100
8, 40440, Note_on_c, 5, 57, 0
8, 40440, Note_on_c, 5, 57, 0
8, 40440, Note_on_c, 5, 69, 0
8, 40440, Note_on_c, 5, 64, 0
8, 40440, Note_on_c, 5, 64, 0
8, 40440, Note_on_c, 5, 69, 0
8, 40440, Note_on_c, 5, 69, 100
8, 40440, Note_on_c, 5, 64, 100
8, 40440, Note_on_c, 5, 57, 100
8, 40500, Note_on_c, 5, 57, 0
8, 40500, Note_on_c, 5, 64, 0
8, 40500, Note_on_c, 5, 69, 0
8, 40500, Note_on_c, 5, 69, 100
8, 40500, Note_on_c, 5, 81, 100
8, 40500, Note_on_c, 5, 76, 100
8, 40560, Note_on_c, 5, 76, 0
8, 40560, Note_on_c, 5, 81, 0
8, 40560, Note_on_c, 5, 69, 0
8, 40620, Note_on_c, 5, 67, 100
8, 40620, Note_on_c, 5, 55, 100
8, 40620, Note_on_c, 5, 62, 100
8, 40680, Note_on_c, 5, 62, 0
8, 40680, Note_on_c, 5, 55, 0
8, 40680, Note_on_c, 5, 67, 0
8, 40680, Note_on_c, 5, 67, 100
8, 40680, Note_on_c, 5, 55, 100
8, 40680, Note_on_c, 5, 62, 100
8, 40740, Note_on_c, 5, 62, 0
8, 40740, Note_on_c, 5, 55, 0
8, 40740, Note_on_c, 5, 67, 0
8, 40740, Note_on_c, 5, 67, 100
8, 40740, Note_on_c, 5, 55, 100
8, 40740, Note_on_c, 5, 62, 100
8, 40800, Note_on_c, 5, 62, 0
8, 40800, Note_on_c, 5, 55, 0
8, 40800, Note_on_c, 5, 67, 0
8, 40800, Note_on_c, 5, 64, 100
8, 40800, Note_on_c, 5, 57, 100
8, 40800, Note_on_c, 5, 69, 100
8, 40860, Note_on_c, 5, 69, 100
8, 40860, Note_on_c, 5, 64, 100
8, 40860, Note_on_c, 5, 57, 100
8, 40920, Note_on_c, 5, 57, 0
8, 40920, Note_on_c, 5, 57, 0
8, 40920, Note_on_c, 5, 69, 0
8, 40920, Note_on_c, 5, 64, 0
8, 40920, Note_on_c, 5, 64, 0
8, 40920, Note_on_c, 5, 69, 0
8, 40920, Note_on_c, 5, 69, 100
8, 40920, Note_on_c, 5, 64, 100
8, 40920, Note_on_c, 5, 57, 100
8, 40980, Note_on_c, 5, 57, 0
8, 40980, Note_on_c, 5, 64, 0
8, 40980, Note_on_c, 5, 69, 0
8, 40980, Note_on_c, 5, 69, 100
8, 40980, Note_on_c, 5, 76, 100
8, 40980, Note_on_c, 5, 81, 100
8, 41040, Note_on_c, 5, 81, 0
8, 41040, Note_on_c, 5, 76, 0
8, 41040, Note_on_c, 5, 69, 0
8, 41100, Note_on_c, 5, 67, 100
8, 41100, Note_on_c, 5, 55, 100
8, 41100, Note_on_c, 5, 62, 100
8, 41160, Note_on_c, 5, 62, 0
8, 41160, Note_on_c, 5, 55, 0
8, 41160, Note_on_c, 5, 67, 0
8, 41160, Note_on_c, 5, 67, 100
8, 41160, Note_on_c, 5, 55, 100
8, 41160, Note_on_c, 5, 62, 100
8, 41220, Note_on_c, 5, 62, 0
8, 41220, Note_on_c, 5, 55, 0
8, 41220, Note_on_c, 5, 67, 0
8, 41220, Note_on_c, 5, 67, 100
8, 41220, Note_on_c, 5, 55, 100
8, 41220, Note_on_c, 5, 62, 100
8, 41280, Note_on_c, 5, 62, 0
8, 41280, Note_on_c, 5, 55, 0
8, 41280, Note_on_c, 5, 67, 0
8, 44160, Note_on_c, 5, 71, 100
8, 44160, Note_on_c, 5, 66, 100
8, 44160, Note_on_c, 5, 59, 100
8, 44220, Note_on_c, 5, 59, 0
8, 44220, Note_on_c, 5, 66, 0
8, 44220, Note_on_c, 5, 71, 0
8, 44220, Note_on_c, 5, 66, 100
8, 44220, Note_on_c, 5, 59, 100
8, 44280, Note_on_c, 5, 59, 0
8, 44280, Note_on_c, 5, 66, 0
8, 44280, Note_on_c, 5, 66, 100
8, 44280, Note_on_c, 5, 59, 100
8, 44340, Note_on_c, 5, 59, 0
8, 44340, Note_on_c, 5, 66, 0
8, 44340, Note_on_c, 5, 66, 100
8, 44340, Note_on_c, 5, 59, 100
8, 44400, Note_on_c, 5, 59, 0
8, 44400, Note_on_c, 5, 66, 0
8, 44400, Note_on_c, 5, 66, 100
8, 44400, Note_on_c, 5, 59, 100
8, 44460, Note_on_c, 5, 59, 0
8, 44460, Note_on_c, 5, 66, 0
8, 44460, Note_on_c, 5, 66, 100
8, 44460, Note_on_c, 5, 59, 100
8, 44520, Note_on_c, 5, 59, 0
8, 44520, Note_on_c, 5, 66, 0
8, 44520, Note_on_c, 5, 66, 100
8, 44520, Note_on_c, 5, 59, 100
8, 44580, Note_on_c, 5, 59, 0
8, 44580, Note_on_c, 5, 66, 0
8, 44580, Note_on_c, 5, 66, 100
8, 44580, Note_on_c, 5, 59, 100
8, 44640, Note_on_c, 5, 59, 0
8, 44640, Note_on_c, 5, 66, 0
8, 44640, Note_on_c, 5, 61, 100
8, 44640, Note_on_c, 5, 66, 100
8, 44700, Note_on_c, 5, 66, 0
8, 44700, Note_on_c, 5, 61, 0
8, 44700, Note_on_c, 5, 61, 100
8, 44700, Note_on_c, 5, 66, 100
8, 44760, Note_on_c, 5, 66, 0
8, 44760, Note_on_c, 5, 61, 0
8, 44760, Note_on_c, 5, 61, 100
8, 44760, Note_on_c, 5, 66, 100
8, 44820, Note_on_c, 5, 66, 0
8, 44820, Note_on_c, 5, 61, 0
8, 44820, Note_on_c, 5, 61, 100
8, 44820, Note_on_c, 5, 66, 100
8, 44880, Note_on_c, 5, 66, 0
8, 44880, Note_on_c, 5, 61, 0
8, 44880, Note_on_c, 5, 61, 100
8, 44880, Note_on_c, 5, 66, 100
8, 44940, Note_on_c, 5, 66, 0
8, 44940, Note_on_c, 5, 61, 0
8, 44940, Note_on_c, 5, 61, 100
8, 44940, Note_on_c, 5, 66, 100
8, 45000, Note_on_c, 5, 66, 0
8, 45000, Note_on_c, 5, 61, 0
8, 45000, Note_on_c, 5, 61, 100
8, 45000, Note_on_c, 5, 66, 100
8, 45060, Note_on_c, 5, 66, 0
8, 45060, Note_on_c, 5, 61, 0
8, 45060, Note_on_c, 5, 61, 100
8, 45060, Note_on_c, 5, 66, 100
8, 45120, Note_on_c, 5, 66, 0
8, 45120, Note_on_c, 5, 61, 0
8, 45120, Note_on_c, 5, 67, 100
8, 45120, Note_on_c, 5, 55, 100
8, 45120, Note_on_c, 5, 62, 100
8, 45180, Note_on_c, 5, 62, 0
8, 45180, Note_on_c, 5, 55, 0
8, 45180, Note_on_c, 5, 67, 0
8, 45180, Note_on_c, 5, 67, 100
8, 45180, Note_on_c, 5, 62, 100
8, 45180, Note_on_c, 5, 55, 100
8, 45240, Note_on_c, 5, 55, 0
8, 45240, Note_on_c, 5, 62, 0
8, 45240, Note_on_c, 5, 67, 0
8, 45240, Note_on_c, 5, 67, 100
8, 45240, Note_on_c, 5, 62, 100
8, 45240, Note_on_c, 5, 55, 100
8, 45300, Note_on_c, 5, 55, 0
8, 45300, Note_on_c, 5, 62, 0
8, 45300, Note_on_c, 5, 67, 0
8, 45300, Note_on_c, 5, 67, 100
8, 45300, Note_on_c, 5, 62, 100
8, 45300, Note_on_c, 5, 55, 100
8, 45360, Note_on_c, 5, 55, 0
8, 45360, Note_on_c, 5, 62, 0
8, 45360, Note_on_c, 5, 67, 0
8, 45360, Note_on_c, 5, 67, 100
8, 45360, Note_on_c, 5, 62, 100
8, 45360, Note_on_c, 5, 55, 100
8, 45420, Note_on_c, 5, 55, 0
8, 45420, Note_on_c, 5, 62, 0
8, 45420, Note_on_c, 5, 67, 0
8, 45420, Note_on_c, 5, 67, 100
8, 45420, Note_on_c, 5, 62, 100
8, 45420, Note_on_c, 5, 55, 100
8, 45480, Note_on_c, 5, 55, 0
8, 45480, Note_on_c, 5, 62, 0
8, 45480, Note_on_c, 5, 67, 0
8, 45480, Note_on_c, 5, 67, 100
8, 45480, Note_on_c, 5, 62, 100
8, 45480, Note_on_c, 5, 55, 100
8, 45540, Note_on_c, 5, 55, 0
8, 45540, Note_on_c, 5, 62, 0
8, 45540, Note_on_c, 5, 67, 0
8, 45540, Note_on_c, 5, 67, 100
8, 45540, Note_on_c, 5, 62, 100
8, 45540, Note_on_c, 5, 55, 100
8, 45600, Note_on_c, 5, 55, 0
8, 45600, Note_on_c, 5, 62, 0
8, 45600, Note_on_c, 5, 67, 0
8, 45600, Note_on_c, 5, 65, 100
8, 45600, Note_on_c, 5, 60, 100
8, 45600, Note_on_c, 5, 53, 100
8, 45660, Note_on_c, 5, 53, 0
8, 45660, Note_on_c, 5, 60, 0
8, 45660, Note_on_c, 5, 65, 0
8, 45660, Note_on_c, 5, 65, 100
8, 45660, Note_on_c, 5, 60, 100
8, 45660, Note_on_c, 5, 53, 100
8, 45720, Note_on_c, 5, 53, 0
8, 45720, Note_on_c, 5, 60, 0
8, 45720, Note_on_c, 5, 65, 0
8, 45720, Note_on_c, 5, 65, 100
8, 45720, Note_on_c, 5, 60, 100
8, 45720, Note_on_c, 5, 53, 100
8, 45780, Note_on_c, 5, 53, 0
8, 45780, Note_on_c, 5, 60, 0
8, 45780, Note_on_c, 5, 65, 0
8, 45780, Note_on_c, 5, 65, 100
8, 45780, Note_on_c, 5, 60, 100
8, 45780, Note_on_c, 5, 53, 100
8, 45840, Note_on_c, 5, 53, 0
8, 45840, Note_on_c, 5, 60, 0
8, 45840, Note_on_c, 5, 65, 0
8, 45840, Note_on_c, 5, 65, 100
8, 45840, Note_on_c, 5, 60, 100
8, 45840, Note_on_c, 5, 53, 100
8, 45900, Note_on_c, 5, 53, 0
8, 45900, Note_on_c, 5, 60, 0
8, 45900, Note_on_c, 5, 65, 0
8, 45900, Note_on_c, 5, 65, 100
8, 45900, Note_on_c, 5, 60, 100
8, 45900, Note_on_c, 5, 53, 100
8, 45960, Note_on_c, 5, 53, 0
8, 45960, Note_on_c, 5, 60, 0
8, 45960, Note_on_c, 5, 65, 0
8, 45960, Note_on_c, 5, 65, 100
8, 45960, Note_on_c, 5, 60, 100
8, 45960, Note_on_c, 5, 53, 100
8, 46020, Note_on_c, 5, 53, 0
8, 46020, Note_on_c, 5, 60, 0
8, 46020, Note_on_c, 5, 65, 0
8, 46020, Note_on_c, 5, 65, 100
8, 46020, Note_on_c, 5, 60, 100
8, 46020, Note_on_c, 5, 53, 100
8, 46080, Note_on_c, 5, 53, 0
8, 46080, Note_on_c, 5, 60, 0
8, 46080, Note_on_c, 5, 65, 0
8, 46080, Note_on_c, 5, 71, 100
8, 46080, Note_on_c, 5, 66, 100
8, 46080, Note_on_c, 5, 59, 100
8, 46140, Note_on_c, 5, 59, 0
8, 46140, Note_on_c, 5, 66, 0
8, 46140, Note_on_c, 5, 71, 0
8, 46140, Note_on_c, 5, 66, 100
8, 46140, Note_on_c, 5, 59, 100
8, 46200, Note_on_c, 5, 59, 0
8, 46200, Note_on_c, 5, 66, 0
8, 46200, Note_on_c, 5, 66, 100
8, 46200, Note_on_c, 5, 59, 100
8, 46260, Note_on_c, 5, 59, 0
8, 46260, Note_on_c, 5, 66, 0
8, 46260, Note_on_c, 5, 66, 100
8, 46260, Note_on_c, 5, 59, 100
8, 46320, Note_on_c, 5, 59, 0
8, 46320, Note_on_c, 5, 66, 0
8, 46320, Note_on_c, 5, 66, 100
8, 46320, Note_on_c, 5, 59, 100
8, 46380, Note_on_c, 5, 59, 0
8, 46380, Note_on_c, 5, 66, 0
8, 46380, Note_on_c, 5, 66, 100
8, 46380, Note_on_c, 5, 59, 100
8, 46440, Note_on_c, 5, 59, 0
8, 46440, Note_on_c, 5, 66, 0
8, 46440, Note_on_c, 5, 66, 100
8, 46440, Note_on_c, 5, 59, 100
8, 46500, Note_on_c, 5, 59, 0
8, 46500, Note_on_c, 5, 66, 0
8, 46500, Note_on_c, 5, 66, 100
8, 46500, Note_on_c, 5, 59, 100
8, 46560, Note_on_c, 5, 59, 0
8, 46560, Note_on_c, 5, 66, 0
8, 46560, Note_on_c, 5, 61, 100
8, 46560, Note_on_c, 5, 66, 100
8, 46620, Note_on_c, 5, 66, 0
8, 46620, Note_on_c, 5, 61, 0
8, 46620, Note_on_c, 5, 61, 100
8, 46620, Note_on_c, 5, 66, 100
8, 46680, Note_on_c, 5, 66, 0
8, 46680, Note_on_c, 5, 61, 0
8, 46680, Note_on_c, 5, 61, 100
8, 46680, Note_on_c, 5, 66, 100
8, 46740, Note_on_c, 5, 66, 0
8, 46740, Note_on_c, 5, 61, 0
8, 46740, Note_on_c, 5, 61, 100
8, 46740, Note_on_c, 5, 66, 100
8, 46800, Note_on_c, 5, 66, 0
8, 46800, Note_on_c, 5, 61, 0
8, 46800, Note_on_c, 5, 61, 100
8, 46800, Note_on_c, 5, 66, 100
8, 46860, Note_on_c, 5, 66, 0
8, 46860, Note_on_c, 5, 61, 0
8, 46860, Note_on_c, 5, 61, 100
8, 46860, Note_on_c, 5, 66, 100
8, 46920, Note_on_c, 5, 66, 0
8, 46920, Note_on_c, 5, 61, 0
8, 46920, Note_on_c, 5, 61, 100
8, 46920, Note_on_c, 5, 66, 100
8, 46980, Note_on_c, 5, 66, 0
8, 46980, Note_on_c, 5, 61, 0
8, 46980, Note_on_c, 5, 61, 100
8, 46980, Note_on_c, 5, 66, 100
8, 47040, Note_on_c, 5, 66, 0
8, 47040, Note_on_c, 5, 61, 0
8, 47040, Note_on_c, 5, 67, 100
8, 47040, Note_on_c, 5, 55, 100
8, 47040, Note_on_c, 5, 62, 100
8, 47100, Note_on_c, 5, 62, 0
8, 47100, Note_on_c, 5, 55, 0
8, 47100, Note_on_c, 5, 67, 0
8, 47100, Note_on_c, 5, 67, 100
8, 47100, Note_on_c, 5, 62, 100
8, 47100, Note_on_c, 5, 55, 100
8, 47160, Note_on_c, 5, 55, 0
8, 47160, Note_on_c, 5, 62, 0
8, 47160, Note_on_c, 5, 67, 0
8, 47160, Note_on_c, 5, 67, 100
8, 47160, Note_on_c, 5, 62, 100
8, 47160, Note_on_c, 5, 55, 100
8, 47220, Note_on_c, 5, 55, 0
8, 47220, Note_on_c, 5, 62, 0
8, 47220, Note_on_c, 5, 67, 0
8, 47220, Note_on_c, 5, 67, 100
8, 47220, Note_on_c, 5, 62, 100
8, 47220, Note_on_c, 5, 55, 100
8, 47280, Note_on_c, 5, 55, 0
8, 47280, Note_on_c, 5, 62, 0
8, 47280, Note_on_c, 5, 67, 0
8, 47280, Note_on_c, 5, 67, 100
8, 47280, Note_on_c, 5, 62, 100
8, 47280, Note_on_c, 5, 55, 100
8, 47340, Note_on_c, 5, 55, 0
8, 47340, Note_on_c, 5, 62, 0
8, 47340, Note_on_c, 5, 67, 0
8, 47340, Note_on_c, 5, 67, 100
8, 47340, Note_on_c, 5, 62, 100
8, 47340, Note_on_c, 5, 55, 100
8, 47400, Note_on_c, 5, 55, 0
8, 47400, Note_on_c, 5, 62, 0
8, 47400, Note_on_c, 5, 67, 0
8, 47400, Note_on_c, 5, 67, 100
8, 47400, Note_on_c, 5, 62, 100
8, 47400, Note_on_c, 5, 55, 100
8, 47460, Note_on_c, 5, 55, 0
8, 47460, Note_on_c, 5, 62, 0
8, 47460, Note_on_c, 5, 67, 0
8, 47460, Note_on_c, 5, 67, 100
8, 47460, Note_on_c, 5, 62, 100
8, 47460, Note_on_c, 5, 55, 100
8, 47520, Note_on_c, 5, 55, 0
8, 47520, Note_on_c, 5, 62, 0
8, 47520, Note_on_c, 5, 67, 0
8, 47520, Note_on_c, 5, 65, 100
8, 47520, Note_on_c, 5, 60, 100
8, 47520, Note_on_c, 5, 53, 100
8, 47580, Note_on_c, 5, 53, 0
8, 47580, Note_on_c, 5, 60, 0
8, 47580, Note_on_c, 5, 65, 0
8, 47580, Note_on_c, 5, 65, 100
8, 47580, Note_on_c, 5, 60, 100
8, 47580, Note_on_c, 5, 53, 100
8, 47640, Note_on_c, 5, 53, 0
8, 47640, Note_on_c, 5, 60, 0
8, 47640, Note_on_c, 5, 65, 0
8, 47640, Note_on_c, 5, 65, 100
8, 47640, Note_on_c, 5, 60, 100
8, 47640, Note_on_c, 5, 53, 100
8, 47700, Note_on_c, 5, 53, 0
8, 47700, Note_on_c, 5, 60, 0
8, 47700, Note_on_c, 5, 65, 0
8, 47700, Note_on_c, 5, 65, 100
8, 47700, Note_on_c, 5, 60, 100
8, 47700, Note_on_c, 5, 53, 100
8, 47760, Note_on_c, 5, 53, 0
8, 47760, Note_on_c, 5, 60, 0
8, 47760, Note_on_c, 5, 65, 0
8, 47760, Note_on_c, 5, 65, 100
8, 47760, Note_on_c, 5, 60, 100
8, 47760, Note_on_c, 5, 53, 100
8, 47820, Note_on_c, 5, 53, 0
8, 47820, Note_on_c, 5, 60, 0
8, 47820, Note_on_c, 5, 65, 0
8, 47820, Note_on_c, 5, 65, 100
8, 47820, Note_on_c, 5, 60, 100
8, 47820, Note_on_c, 5, 53, 100
8, 47880, Note_on_c, 5, 53, 0
8, 47880, Note_on_c, 5, 60, 0
8, 47880, Note_on_c, 5, 65, 0
8, 47880, Note_on_c, 5, 65, 100
8, 47880, Note_on_c, 5, 60, 100
8, 47880, Note_on_c, 5, 53, 100
8, 47940, Note_on_c, 5, 53, 0
8, 47940, Note_on_c, 5, 60, 0
8, 47940, Note_on_c, 5, 65, 0
8, 47940, Note_on_c, 5, 65, 100
8, 47940, Note_on_c, 5, 60, 100
8, 47940, Note_on_c, 5, 53, 100
8, 48000, Note_on_c, 5, 53, 0
8, 48000, Note_on_c, 5, 60, 0
8, 48000, Note_on_c, 5, 65, 0
8, 48480, Note_on_c, 5, 64, 100
8, 48480, Note_on_c, 5, 57, 100
8, 48480, Note_on_c, 5, 69, 100
8, 48540, Note_on_c, 5, 69, 100
8, 48540, Note_on_c, 5, 64, 100
8, 48540, Note_on_c, 5, 57, 100
8, 48600, Note_on_c, 5, 57, 0
8, 48600, Note_on_c, 5, 57, 0
8, 48600, Note_on_c, 5, 69, 0
8, 48600, Note_on_c, 5, 64, 0
8, 48600, Note_on_c, 5, 64, 0
8, 48600, Note_on_c, 5, 69, 0
8, 48600, Note_on_c, 5, 69, 100
8, 48600, Note_on_c, 5, 64, 100
8, 48600, Note_on_c, 5, 57, 100
8, 48660, Note_on_c, 5, 57, 0
8, 48660, Note_on_c, 5, 64, 0
8, 48660, Note_on_c, 5, 69, 0
8, 48660, Note_on_c, 5, 69, 100
8, 48660, Note_on_c, 5, 64, 100
8, 48660, Note_on_c, 5, 57, 100
8, 48720, Note_on_c, 5, 57, 0
8, 48720, Note_on_c, 5, 64, 0
8, 48720, Note_on_c, 5, 69, 0
8, 48780, Note_on_c, 5, 67, 100
8, 48780, Note_on_c, 5, 55, 100
8, 48780, Note_on_c, 5, 62, 100
8, 48840, Note_on_c, 5, 62, 0
8, 48840, Note_on_c, 5, 55, 0
8, 48840, Note_on_c, 5, 67, 0
8, 48840, Note_on_c, 5, 67, 100
8, 48840, Note_on_c, 5, 55, 100
8, 48840, Note_on_c, 5, 62, 100
8, 48900, Note_on_c, 5, 62, 0
8, 48900, Note_on_c, 5, 55, 0
8, 48900, Note_on_c, 5, 67, 0
8, 48900, Note_on_c, 5, 67, 100
8, 48900, Note_on_c, 5, 55, 100
8, 48900, Note_on_c, 5, 62, 100
8, 48960, Note_on_c, 5, 62, 0
8, 48960, Note_on_c, 5, 55, 0
8, 48960, Note_on_c, 5, 67, 0
8, 48960, Note_on_c, 5, 64, 100
8, 48960, Note_on_c, 5, 57, 100
8, 48960, Note_on_c, 5, 69, 100
8, 49020, Note_on_c, 5, 69, 100
8, 49020, Note_on_c, 5, 64, 100
8, 49020, Note_on_c, 5, 57, 100
8, 49080, Note_on_c, 5, 57, 0
8, 49080, Note_on_c, 5, 57, 0
8, 49080, Note_on_c, 5, 69, 0
8, 49080, Note_on_c, 5, 64, 0
8, 49080, Note_on_c, 5, 64, 0
8, 49080, Note_on_c, 5, 69, 0
8, 49080, Note_on_c, 5, 69, 100
8, 49080, Note_on_c, 5, 64, 100
8, 49080, Note_on_c, 5, 57, 100
8, 49140, Note_on_c, 5, 57, 0
8, 49140, Note_on_c, 5, 64, 0
8, 49140, Note_on_c, 5, 69, 0
8, 49140, Note_on_c, 5, 69, 100
8, 49140, Note_on_c, 5, 64, 100
8, 49140, Note_on_c, 5, 57, 100
8, 49200, Note_on_c, 5, 57, 0
8, 49200, Note_on_c, 5, 64, 0
8, 49200, Note_on_c, 5, 69, 0
8, 49260, Note_on_c, 5, 67, 100
8, 49260, Note_on_c, 5, 55, 100
8, 49260, Note_on_c, 5, 62, 100
8, 49320, Note_on_c, 5, 62, 0
8, 49320, Note_on_c, 5, 55, 0
8, 49320, Note_on_c, 5, 67, 0
8, 49320, Note_on_c, 5, 67, 100
8, 49320, Note_on_c, 5, 55, 100
8, 49320, Note_on_c, 5, 62, 100
8, 49380, Note_on_c, 5, 62, 0
8, 49380, Note_on_c, 5, 55, 0
8, 49380, Note_on_c, 5, 67, 0
8, 49380, Note_on_c, 5, 67, 100
8, 49380, Note_on_c, 5, 55, 100
8, 49380, Note_on_c, 5, 62, 100
8, 49440, Note_on_c, 5, 62, 0
8, 49440, Note_on_c, 5, 55, 0
8, 49440, Note_on_c, 5, 67, 0
8, 49920, Note_on_c, 5, 64, 100
8, 49920, Note_on_c, 5, 57, 100
8, 49920, Note_on_c, 5, 69, 100
8, 49980, Note_on_c, 5, 69, 100
8, 49980, Note_on_c, 5, 64, 100
8, 49980, Note_on_c, 5, 57, 100
8, 50040, Note_on_c, 5, 57, 0
8, 50040, Note_on_c, 5, 57, 0
8, 50040, Note_on_c, 5, 69, 0
8, 50040, Note_on_c, 5, 64, 0
8, 50040, Note_on_c, 5, 64, 0
8, 50040, Note_on_c, 5, 69, 0
8, 50040, Note_on_c, 5, 69, 100
8, 50040, Note_on_c, 5, 64, 100
8, 50040, Note_on_c, 5, 57, 100
8, 50100, Note_on_c, 5, 57, 0
8, 50100, Note_on_c, 5, 64, 0
8, 50100, Note_on_c, 5, 69, 0
8, 50100, Note_on_c, 5, 69, 100
8, 50100, Note_on_c, 5, 64, 100
8, 50100, Note_on_c, 5, 57, 100
8, 50160, Note_on_c, 5, 57, 0
8, 50160, Note_on_c, 5, 64, 0
8, 50160, Note_on_c, 5, 69, 0
8, 50220, Note_on_c, 5, 67, 100
8, 50220, Note_on_c, 5, 55, 100
8, 50220, Note_on_c, 5, 62, 100
8, 50280, Note_on_c, 5, 62, 0
8, 50280, Note_on_c, 5, 55, 0
8, 50280, Note_on_c, 5, 67, 0
8, 50280, Note_on_c, 5, 67, 100
8, 50280, Note_on_c, 5, 55, 100
8, 50280, Note_on_c, 5, 62, 100
8, 50340, Note_on_c, 5, 62, 0
8, 50340, Note_on_c, 5, 55, 0
8, 50340, Note_on_c, 5, 67, 0
8, 50340, Note_on_c, 5, 67, 100
8, 50340, Note_on_c, 5, 55, 100
8, 50340, Note_on_c, 5, 62, 100
8, 50400, Note_on_c, 5, 62, 0
8, 50400, Note_on_c, 5, 55, 0
8, 50400, Note_on_c, 5, 67, 0
8, 50400, Note_on_c, 5, 64, 100
8, 50400, Note_on_c, 5, 57, 100
8, 50400, Note_on_c, 5, 69, 100
8, 50460, Note_on_c, 5, 69, 100
8, 50460, Note_on_c, 5, 64, 100
8, 50460, Note_on_c, 5, 57, 100
8, 50520, Note_on_c, 5, 57, 0
8, 50520, Note_on_c, 5, 57, 0
8, 50520, Note_on_c, 5, 69, 0
8, 50520, Note_on_c, 5, 64, 0
8, 50520, Note_on_c, 5, 64, 0
8, 50520, Note_on_c, 5, 69, 0
8, 50520, Note_on_c, 5, 69, 100
8, 50520, Note_on_c, 5, 64, 100
8, 50520, Note_on_c, 5, 57, 100
8, 50580, Note_on_c, 5, 57, 0
8, 50580, Note_on_c, 5, 64, 0
8, 50580, Note_on_c, 5, 69, 0
8, 50580, Note_on_c, 5, 69, 100
8, 50580, Note_on_c, 5, 64, 100
8, 50580, Note_on_c, 5, 57, 100
8, 50640, Note_on_c, 5, 57, 0
8, 50640, Note_on_c, 5, 64, 0
8, 50640, Note_on_c, 5, 69, 0
8, 50700, Note_on_c, 5, 67, 100
8, 50700, Note_on_c, 5, 55, 100
8, 50700, Note_on_c, 5, 62, 100
8, 50760, Note_on_c, 5, 62, 0
8, 50760, Note_on_c, 5, 55, 0
8, 50760, Note_on_c, 5, 67, 0
8, 50760, Note_on_c, 5, 67, 100
8, 50760, Note_on_c, 5, 55, 100
8, 50760, Note_on_c, 5, 62, 100
8, 50820, Note_on_c, 5, 62, 0
8, 50820, Note_on_c, 5, 55, 0
8, 50820, Note_on_c, 5, 67, 0
8, 50820, Note_on_c, 5, 67, 100
8, 50820, Note_on_c, 5, 55, 100
8, 50820, Note_on_c, 5, 62, 100
8, 50880, Note_on_c, 5, 62, 0
8, 50880, Note_on_c, 5, 55, 0
8, 50880, Note_on_c, 5, 67, 0
8, 51360, Note_on_c, 5, 64, 100
8, 51360, Note_on_c, 5, 57, 100
8, 51360, Note_on_c, 5, 69, 100
8, 51420, Note_on_c, 5, 69, 100
8, 51420, Note_on_c, 5, 64, 100
8, 51420, Note_on_c, 5, 57, 100
8, 51480, Note_on_c, 5, 57, 0
8, 51480, Note_on_c, 5, 57, 0
8, 51480, Note_on_c, 5, 69, 0
8, 51480, Note_on_c, 5, 64, 0
8, 51480, Note_on_c, 5, 64, 0
8, 51480, Note_on_c, 5, 69, 0
8, 51480, Note_on_c, 5, 69, 100
8, 51480, Note_on_c, 5, 64, 100
8, 51480, Note_on_c, 5, 57, 100
8, 51540, Note_on_c, 5, 57, 0
8, 51540, Note_on_c, 5, 64, 0
8, 51540, Note_on_c, 5, 69, 0
8, 51540, Note_on_c, 5, 69, 100
8, 51540, Note_on_c, 5, 64, 100
8, 51540, Note_on_c, 5, 57, 100
8, 51600, Note_on_c, 5, 57, 0
8, 51600, Note_on_c, 5, 64, 0
8, 51600, Note_on_c, 5, 69, 0
8, 51660, Note_on_c, 5, 67, 100
8, 51660, Note_on_c, 5, 55, 100
8, 51660, Note_on_c, 5, 62, 100
8, 51720, Note_on_c, 5, 62, 0
8, 51720, Note_on_c, 5, 55, 0
8, 51720, Note_on_c, 5, 67, 0
8, 51720, Note_on_c, 5, 67, 100
8, 51720, Note_on_c, 5, 55, 100
8, 51720, Note_on_c, 5, 62, 100
8, 51780, Note_on_c, 5, 62, 0
8, 51780, Note_on_c, 5, 55, 0
8, 51780, Note_on_c, 5, 67, 0
8, 51780, Note_on_c, 5, 67, 100
8, 51780, Note_on_c, 5, 55, 100
8, 51780, Note_on_c, 5, 62, 100
8, 51840, Note_on_c, 5, 62, 0
8, 51840, Note_on_c, 5, 55, 0
8, 51840, Note_on_c, 5, 67, 0
8, 51840, Note_on_c, 5, 64, 100
8, 51840, Note_on_c, 5, 57, 100
8, 51840, Note_on_c, 5, 69, 100
8, 51900, Note_on_c, 5, 69, 100
8, 51900, Note_on_c, 5, 64, 100
8, 51900, Note_on_c, 5, 57, 100
8, 51960, Note_on_c, 5, 57, 0
8, 51960, Note_on_c, 5, 57, 0
8, 51960, Note_on_c, 5, 69, 0
8, 51960, Note_on_c, 5, 64, 0
8, 51960, Note_on_c, 5, 64, 0
8, 51960, Note_on_c, 5, 69, 0
8, 51960, Note_on_c, 5, 69, 100
8, 51960, Note_on_c, 5, 64, 100
8, 51960, Note_on_c, 5, 57, 100
8, 52020, Note_on_c, 5, 57, 0
8, 52020, Note_on_c, 5, 64, 0
8, 52020, Note_on_c, 5, 69, 0
8, 52020, Note_on_c, 5, 69, 100
8, 52020, Note_on_c, 5, 64, 100
8, 52020, Note_on_c, 5, 57, 100
8, 52080, Note_on_c, 5, 57, 0
8, 52080, Note_on_c, 5, 64, 0
8, 52080, Note_on_c, 5, 69, 0
8, 52140, Note_on_c, 5, 67, 100
8, 52140, Note_on_c, 5, 55, 100
8, 52140, Note_on_c, 5, 62, 100
8, 52200, Note_on_c, 5, 62, 0
8, 52200, Note_on_c, 5, 55, 0
8, 52200, Note_on_c, 5, 67, 0
8, 52200, Note_on_c, 5, 67, 100
8, 52200, Note_on_c, 5, 55, 100
8, 52200, Note_on_c, 5, 62, 100
8, 52260, Note_on_c, 5, 62, 0
8, 52260, Note_on_c, 5, 55, 0
8, 52260, Note_on_c, 5, 67, 0
8, 52260, Note_on_c, 5, 67, 100
8, 52260, Note_on_c, 5, 55, 100
8, 52260, Note_on_c, 5, 62, 100
8, 52320, Note_on_c, 5, 62, 0
8, 52320, Note_on_c, 5, 55, 0
8, 52320, Note_on_c, 5, 67, 0
8, 52800, Note_on_c, 5, 69, 100
8, 52800, Note_on_c, 5, 64, 100
8, 52800, Note_on_c, 5, 57, 100
8, 52815, Control_c, 5, 7, 113
8, 52815, Control_c, 5, 7, 114
8, 52835, Control_c, 5, 7, 112
8, 52860, Control_c, 5, 7, 113
8, 53000, Control_c, 5, 7, 112
8, 53015, Control_c, 5, 7, 111
8, 53040, Control_c, 5, 7, 110
8, 53065, Control_c, 5, 7, 109
8, 53110, Control_c, 5, 7, 108
8, 53155, Control_c, 5, 7, 107
8, 53210, Control_c, 5, 7, 106
8, 53245, Control_c, 5, 7, 105
8, 53295, Control_c, 5, 7, 104
8, 53315, Control_c, 5, 7, 103
8, 53340, Control_c, 5, 7, 102
8, 53355, Control_c, 5, 7, 101
8, 53370, Control_c, 5, 7, 100
8, 53390, Control_c, 5, 7, 99
8, 53400, Control_c, 5, 7, 98
8, 53415, Control_c, 5, 7, 97
8, 53440, Control_c, 5, 7, 96
8, 53450, Control_c, 5, 7, 95
8, 53465, Control_c, 5, 7, 94
8, 53470, Control_c, 5, 7, 93
8, 53480, Control_c, 5, 7, 92
8, 53485, Control_c, 5, 7, 91
8, 53500, Control_c, 5, 7, 90
8, 53505, Control_c, 5, 7, 89
8, 53515, Control_c, 5, 7, 88
8, 53520, Control_c, 5, 7, 87
8, 53525, Control_c, 5, 7, 86
8, 53530, Control_c, 5, 7, 85
8, 53535, Control_c, 5, 7, 84
8, 53540, Control_c, 5, 7, 83
8, 53550, Control_c, 5, 7, 81
8, 53550, Control_c, 5, 7, 82
8, 53560, Control_c, 5, 7, 80
8, 53570, Control_c, 5, 7, 79
8, 53580, Control_c, 5, 7, 78
8, 53585, Control_c, 5, 7, 77
8, 53595, Control_c, 5, 7, 76
8, 53600, Control_c, 5, 7, 75
8, 53610, Control_c, 5, 7, 74
8, 53615, Control_c, 5, 7, 73
8, 53630, Control_c, 5, 7, 72
8, 53635, Control_c, 5, 7, 71
8, 53645, Control_c, 5, 7, 70
8, 53660, Control_c, 5, 7, 69
8, 53670, Control_c, 5, 7, 68
8, 53700, Control_c, 5, 7, 67
8, 53710, Control_c, 5, 7, 66
8, 53720, Control_c, 5, 7, 65
8, 53725, Control_c, 5, 7, 64
8, 53740, Control_c, 5, 7, 62
8, 53740, Control_c, 5, 7, 63
8, 53750, Control_c, 5, 7, 61
8, 53755, Control_c, 5, 7, 59
8, 53755, Control_c, 5, 7, 60
8, 53760, Note_on_c, 5, 57, 0
8, 53760, Note_on_c, 5, 64, 0
8, 53760, Note_on_c, 5, 69, 0
8, 53760, End_track
0, 0, End_of_file
