0, 0, Header, 1, 15, 48
1, 0, Start_track
1, 0, Tempo, 722891
1, 0, Time_signature, 4, 2, 24, 8
1, 0, Key_signature, 0, "major"
1, 18048, Tempo, 1153846
1, 18048, End_track
2, 0, Start_track
2, 0, Title_t, "Track 1\000"
2, 0, System_exclusive, 10, 65, 16, 66, 18, 64, 0, 127, 0, 65, 247
2, 0, Program_c, 0, 30
2, 0, Control_c, 0, 7, 94
2, 0, Control_c, 0, 10, 0
2, 0, Control_c, 0, 91, 100
2, 0, Control_c, 0, 93, 127
2, 2, Control_c, 0, 7, 103
2, 168, Note_on_c, 0, 40, 100
2, 192, Note_off_c, 0, 40, 0
2, 192, Note_on_c, 0, 41, 113
2, 193, Control_c, 0, 7, 71
2, 195, Control_c, 0, 7, 71
2, 240, Pitch_bend_c, 0, 8448
2, 241, Pitch_bend_c, 0, 8448
2, 243, Pitch_bend_c, 0, 8704
2, 244, Pitch_bend_c, 0, 9728
2, 246, Pitch_bend_c, 0, 11136
2, 247, Pitch_bend_c, 0, 11136
2, 249, Pitch_bend_c, 0, 12160
2, 250, Pitch_bend_c, 0, 12416
2, 252, Pitch_bend_c, 0, 12416
2, 253, Pitch_bend_c, 0, 13824
2, 255, Pitch_bend_c, 0, 15488
2, 262, Pitch_bend_c, 0, 8064
2, 264, Note_off_c, 0, 41, 0
2, 264, Note_on_c, 0, 48, 127
2, 336, Note_off_c, 0, 48, 0
2, 336, Note_on_c, 0, 47, 100
2, 384, Note_off_c, 0, 47, 0
2, 384, Note_on_c, 0, 49, 100
2, 433, Pitch_bend_c, 0, 7680
2, 435, Pitch_bend_c, 0, 5632
2, 436, Pitch_bend_c, 0, 3712
2, 438, Pitch_bend_c, 0, 3712
2, 439, Pitch_bend_c, 0, 2944
2, 441, Pitch_bend_c, 0, 2944
2, 442, Pitch_bend_c, 0, 896
2, 444, Pitch_bend_c, 0, 0
2, 454, Pitch_bend_c, 0, 8064
2, 456, Note_off_c, 0, 49, 0
2, 456, Note_on_c, 0, 45, 100
2, 502, Pitch_bend_c, 0, 8064
2, 504, Pitch_bend_c, 0, 7680
2, 505, Pitch_bend_c, 0, 7424
2, 507, Pitch_bend_c, 0, 6016
2, 508, Pitch_bend_c, 0, 3328
2, 510, Pitch_bend_c, 0, 2688
2, 511, Pitch_bend_c, 0, 1664
2, 513, Pitch_bend_c, 0, 1280
2, 514, Pitch_bend_c, 0, 640
2, 516, Pitch_bend_c, 0, 640
2, 526, Pitch_bend_c, 0, 8448
2, 528, Note_off_c, 0, 45, 0
2, 528, Note_on_c, 0, 40, 121
2, 576, Note_off_c, 0, 40, 0
2, 576, Note_on_c, 0, 41, 100
2, 648, Note_off_c, 0, 41, 0
2, 648, Note_on_c, 0, 48, 100
2, 720, Note_off_c, 0, 48, 0
2, 720, Note_on_c, 0, 47, 100
2, 768, Note_off_c, 0, 47, 0
2, 768, Note_on_c, 0, 45, 100
2, 840, Note_off_c, 0, 45, 0
2, 840, Note_on_c, 0, 49, 100
2, 912, Note_off_c, 0, 49, 0
2, 912, Note_on_c, 0, 52, 100
2, 960, Note_off_c, 0, 52, 0
2, 960, Note_on_c, 0, 53, 100
2, 1009, Pitch_bend_c, 0, 7680
2, 1013, Pitch_bend_c, 0, 7424
2, 1017, Pitch_bend_c, 0, 6016
2, 1021, Pitch_bend_c, 0, 4992
2, 1025, Pitch_bend_c, 0, 3968
2, 1031, Pitch_bend_c, 0, 2304
2, 1032, Note_off_c, 0, 53, 0
2, 1032, Note_on_c, 0, 48, 100
2, 1032, Pitch_bend_c, 0, 8064
2, 1104, Note_off_c, 0, 48, 0
2, 1104, Note_on_c, 0, 47, 100
2, 1152, Note_off_c, 0, 47, 0
2, 1152, Note_on_c, 0, 49, 100
2, 1224, Note_off_c, 0, 49, 0
2, 1224, Note_on_c, 0, 45, 100
2, 1296, Note_off_c, 0, 45, 0
2, 1296, Note_on_c, 0, 40, 100
2, 1344, Note_off_c, 0, 40, 0
2, 1344, Note_on_c, 0, 41, 100
2, 1416, Note_off_c, 0, 41, 0
2, 1416, Note_on_c, 0, 48, 100
2, 1488, Note_off_c, 0, 48, 0
2, 1488, Note_on_c, 0, 47, 100
2, 1536, Note_off_c, 0, 47, 0
2, 1536, Note_on_c, 0, 45, 63
2, 1536, Note_on_c, 0, 57, 63
2, 1536, Note_on_c, 0, 59, 63
2, 1536, Note_on_c, 0, 64, 63
2, 1548, Note_on_c, 0, 61, 58
2, 1908, Note_off_c, 0, 59, 0
2, 1920, Note_off_c, 0, 45, 0
2, 1920, Note_off_c, 0, 57, 0
2, 1920, Note_off_c, 0, 64, 0
2, 1920, Note_off_c, 0, 61, 0
2, 4224, Note_on_c, 0, 47, 100
2, 4224, Note_on_c, 0, 54, 100
2, 4248, Note_off_c, 0, 47, 0
2, 4248, Note_off_c, 0, 54, 0
2, 4248, Note_on_c, 0, 47, 100
2, 4248, Note_on_c, 0, 54, 100
2, 4272, Note_off_c, 0, 47, 0
2, 4272, Note_off_c, 0, 54, 0
2, 4272, Note_on_c, 0, 47, 79
2, 4272, Note_on_c, 0, 54, 79
2, 4296, Note_off_c, 0, 47, 0
2, 4296, Note_off_c, 0, 54, 0
2, 4296, Note_on_c, 0, 47, 79
2, 4296, Note_on_c, 0, 54, 79
2, 4320, Note_off_c, 0, 47, 0
2, 4320, Note_off_c, 0, 54, 0
2, 4320, Note_on_c, 0, 47, 81
2, 4320, Note_on_c, 0, 54, 81
2, 4344, Note_off_c, 0, 47, 0
2, 4344, Note_off_c, 0, 54, 0
2, 4344, Note_on_c, 0, 47, 105
2, 4344, Note_on_c, 0, 54, 105
2, 4368, Note_off_c, 0, 47, 0
2, 4368, Note_off_c, 0, 54, 0
2, 4368, Note_on_c, 0, 47, 105
2, 4368, Note_on_c, 0, 54, 105
2, 4392, Note_off_c, 0, 47, 0
2, 4392, Note_off_c, 0, 54, 0
2, 4392, Note_on_c, 0, 47, 84
2, 4392, Note_on_c, 0, 54, 84
2, 4416, Note_off_c, 0, 47, 0
2, 4416, Note_off_c, 0, 54, 0
2, 4416, Note_on_c, 0, 42, 108
2, 4416, Note_on_c, 0, 49, 108
2, 4440, Note_off_c, 0, 42, 0
2, 4440, Note_off_c, 0, 49, 0
2, 4440, Note_on_c, 0, 42, 87
2, 4440, Note_on_c, 0, 49, 87
2, 4464, Note_off_c, 0, 42, 0
2, 4464, Note_off_c, 0, 49, 0
2, 4464, Note_on_c, 0, 42, 87
2, 4464, Note_on_c, 0, 49, 87
2, 4488, Note_off_c, 0, 42, 0
2, 4488, Note_off_c, 0, 49, 0
2, 4488, Note_on_c, 0, 42, 87
2, 4488, Note_on_c, 0, 49, 87
2, 4512, Note_off_c, 0, 42, 0
2, 4512, Note_off_c, 0, 49, 0
2, 4512, Note_on_c, 0, 42, 87
2, 4512, Note_on_c, 0, 49, 87
2, 4536, Note_off_c, 0, 42, 0
2, 4536, Note_off_c, 0, 49, 0
2, 4536, Note_on_c, 0, 42, 108
2, 4536, Note_on_c, 0, 49, 108
2, 4560, Note_off_c, 0, 42, 0
2, 4560, Note_off_c, 0, 49, 0
2, 4560, Note_on_c, 0, 42, 87
2, 4560, Note_on_c, 0, 49, 87
2, 4584, Note_off_c, 0, 42, 0
2, 4584, Note_off_c, 0, 49, 0
2, 4584, Note_on_c, 0, 42, 87
2, 4584, Note_on_c, 0, 49, 87
2, 4608, Note_off_c, 0, 42, 0
2, 4608, Note_off_c, 0, 49, 0
2, 4608, Note_on_c, 0, 40, 87
2, 4608, Note_on_c, 0, 47, 87
2, 4632, Note_off_c, 0, 40, 0
2, 4632, Note_off_c, 0, 47, 0
2, 4632, Note_on_c, 0, 40, 108
2, 4632, Note_on_c, 0, 47, 108
2, 4656, Note_off_c, 0, 40, 0
2, 4656, Note_off_c, 0, 47, 0
2, 4656, Note_on_c, 0, 40, 108
2, 4656, Note_on_c, 0, 47, 108
2, 4680, Note_off_c, 0, 40, 0
2, 4680, Note_off_c, 0, 47, 0
2, 4680, Note_on_c, 0, 40, 87
2, 4680, Note_on_c, 0, 47, 87
2, 4704, Note_off_c, 0, 40, 0
2, 4704, Note_off_c, 0, 47, 0
2, 4704, Note_on_c, 0, 40, 87
2, 4704, Note_on_c, 0, 47, 87
2, 4728, Note_off_c, 0, 40, 0
2, 4728, Note_off_c, 0, 47, 0
2, 4728, Note_on_c, 0, 40, 108
2, 4728, Note_on_c, 0, 47, 108
2, 4752, Note_off_c, 0, 40, 0
2, 4752, Note_off_c, 0, 47, 0
2, 4752, Note_on_c, 0, 40, 87
2, 4752, Note_on_c, 0, 47, 87
2, 4776, Note_off_c, 0, 40, 0
2, 4776, Note_off_c, 0, 47, 0
2, 4776, Note_on_c, 0, 40, 108
2, 4776, Note_on_c, 0, 47, 108
2, 4800, Note_off_c, 0, 40, 0
2, 4800, Note_off_c, 0, 47, 0
2, 4800, Note_on_c, 0, 40, 87
2, 4800, Note_on_c, 0, 47, 87
2, 4824, Note_off_c, 0, 40, 0
2, 4824, Note_off_c, 0, 47, 0
2, 4824, Note_on_c, 0, 40, 87
2, 4824, Note_on_c, 0, 47, 87
2, 4848, Note_off_c, 0, 40, 0
2, 4848, Note_off_c, 0, 47, 0
2, 4848, Note_on_c, 0, 40, 87
2, 4848, Note_on_c, 0, 47, 87
2, 4872, Note_off_c, 0, 40, 0
2, 4872, Note_off_c, 0, 47, 0
2, 4872, Note_on_c, 0, 40, 81
2, 4872, Note_on_c, 0, 47, 81
2, 4896, Note_off_c, 0, 40, 0
2, 4896, Note_off_c, 0, 47, 0
2, 4896, Note_on_c, 0, 40, 81
2, 4896, Note_on_c, 0, 47, 81
2, 4920, Note_off_c, 0, 40, 0
2, 4920, Note_off_c, 0, 47, 0
2, 4920, Note_on_c, 0, 40, 103
2, 4920, Note_on_c, 0, 47, 103
2, 4944, Note_off_c, 0, 40, 0
2, 4944, Note_off_c, 0, 47, 0
2, 4944, Note_on_c, 0, 40, 84
2, 4944, Note_on_c, 0, 47, 84
2, 4968, Note_off_c, 0, 40, 0
2, 4968, Note_off_c, 0, 47, 0
2, 4968, Note_on_c, 0, 40, 84
2, 4968, Note_on_c, 0, 47, 84
2, 4992, Note_off_c, 0, 40, 0
2, 4992, Note_off_c, 0, 47, 0
2, 4992, Note_on_c, 0, 45, 100
2, 4992, Note_on_c, 0, 52, 100
2, 5016, Note_off_c, 0, 45, 0
2, 5016, Note_off_c, 0, 52, 0
2, 5016, Note_on_c, 0, 45, 100
2, 5016, Note_on_c, 0, 52, 100
2, 5040, Note_off_c, 0, 45, 0
2, 5040, Note_off_c, 0, 52, 0
2, 5040, Note_on_c, 0, 45, 100
2, 5040, Note_on_c, 0, 52, 100
2, 5064, Note_off_c, 0, 45, 0
2, 5064, Note_off_c, 0, 52, 0
2, 5064, Note_on_c, 0, 45, 100
2, 5064, Note_on_c, 0, 52, 100
2, 5076, Note_on_c, 0, 57, 68
2, 5076, Note_on_c, 0, 64, 68
2, 5076, Note_on_c, 0, 69, 68
2, 5088, Note_off_c, 0, 45, 0
2, 5088, Note_off_c, 0, 52, 0
2, 5088, Note_on_c, 0, 45, 100
2, 5088, Note_on_c, 0, 52, 100
2, 5112, Note_off_c, 0, 45, 0
2, 5112, Note_off_c, 0, 52, 0
2, 5112, Note_on_c, 0, 45, 100
2, 5112, Note_on_c, 0, 52, 100
2, 5136, Note_off_c, 0, 45, 0
2, 5136, Note_off_c, 0, 52, 0
2, 5136, Note_on_c, 0, 45, 100
2, 5136, Note_on_c, 0, 52, 100
2, 5160, Note_off_c, 0, 45, 0
2, 5160, Note_off_c, 0, 52, 0
2, 5160, Note_on_c, 0, 45, 100
2, 5160, Note_on_c, 0, 52, 100
2, 5184, Note_off_c, 0, 57, 0
2, 5184, Note_off_c, 0, 64, 0
2, 5184, Note_off_c, 0, 69, 0
2, 5184, Note_off_c, 0, 45, 0
2, 5184, Note_off_c, 0, 52, 0
2, 5184, Note_on_c, 0, 45, 100
2, 5184, Note_on_c, 0, 52, 100
2, 5208, Note_off_c, 0, 45, 0
2, 5208, Note_off_c, 0, 52, 0
2, 5208, Note_on_c, 0, 45, 100
2, 5208, Note_on_c, 0, 52, 100
2, 5232, Note_off_c, 0, 45, 0
2, 5232, Note_off_c, 0, 52, 0
2, 5232, Note_on_c, 0, 45, 100
2, 5232, Note_on_c, 0, 52, 100
2, 5256, Note_off_c, 0, 45, 0
2, 5256, Note_off_c, 0, 52, 0
2, 5256, Note_on_c, 0, 45, 100
2, 5256, Note_on_c, 0, 52, 100
2, 5268, Note_on_c, 0, 57, 76
2, 5268, Note_on_c, 0, 64, 76
2, 5268, Note_on_c, 0, 69, 76
2, 5280, Note_off_c, 0, 45, 0
2, 5280, Note_off_c, 0, 52, 0
2, 5280, Note_on_c, 0, 45, 100
2, 5280, Note_on_c, 0, 52, 100
2, 5304, Note_off_c, 0, 45, 0
2, 5304, Note_off_c, 0, 52, 0
2, 5304, Note_on_c, 0, 45, 100
2, 5304, Note_on_c, 0, 52, 100
2, 5328, Note_off_c, 0, 45, 0
2, 5328, Note_off_c, 0, 52, 0
2, 5328, Note_on_c, 0, 45, 100
2, 5328, Note_on_c, 0, 52, 100
2, 5352, Note_off_c, 0, 45, 0
2, 5352, Note_off_c, 0, 52, 0
2, 5352, Note_on_c, 0, 45, 100
2, 5352, Note_on_c, 0, 52, 100
2, 5376, Note_off_c, 0, 57, 0
2, 5376, Note_off_c, 0, 64, 0
2, 5376, Note_off_c, 0, 69, 0
2, 5376, Note_off_c, 0, 45, 0
2, 5376, Note_off_c, 0, 52, 0
2, 6336, Note_on_c, 0, 69, 100
2, 6342, Note_off_c, 0, 69, 0
2, 6342, Note_on_c, 0, 69, 100
2, 6345, Note_off_c, 0, 69, 0
2, 6345, Note_on_c, 0, 69, 100
2, 6348, Note_off_c, 0, 69, 0
2, 6348, Note_on_c, 0, 69, 100
2, 6351, Note_off_c, 0, 69, 0
2, 6351, Note_on_c, 0, 69, 100
2, 6354, Note_off_c, 0, 69, 0
2, 6354, Note_on_c, 0, 69, 100
2, 6360, Note_off_c, 0, 69, 0
2, 6360, Note_on_c, 0, 69, 100
2, 6363, Note_off_c, 0, 69, 0
2, 6363, Note_on_c, 0, 69, 100
2, 6366, Note_off_c, 0, 69, 0
2, 6366, Note_on_c, 0, 69, 100
2, 6369, Note_off_c, 0, 69, 0
2, 6369, Note_on_c, 0, 69, 100
2, 6375, Note_off_c, 0, 69, 0
2, 6375, Note_on_c, 0, 69, 100
2, 6378, Note_off_c, 0, 69, 0
2, 6378, Note_on_c, 0, 69, 100
2, 6381, Note_off_c, 0, 69, 0
2, 6381, Note_on_c, 0, 69, 100
2, 6384, Note_off_c, 0, 69, 0
2, 6384, Note_on_c, 0, 69, 100
2, 6390, Note_off_c, 0, 69, 0
2, 6390, Note_on_c, 0, 69, 100
2, 6399, Note_off_c, 0, 69, 0
2, 6399, Note_on_c, 0, 69, 100
2, 6402, Note_off_c, 0, 69, 0
2, 6402, Note_on_c, 0, 69, 100
2, 6411, Note_off_c, 0, 69, 0
2, 6411, Note_on_c, 0, 69, 100
2, 6414, Note_off_c, 0, 69, 0
2, 6414, Note_on_c, 0, 69, 100
2, 6420, Note_off_c, 0, 69, 0
2, 6420, Note_on_c, 0, 69, 100
2, 6423, Note_off_c, 0, 69, 0
2, 6423, Note_on_c, 0, 69, 100
2, 6426, Note_off_c, 0, 69, 0
2, 6426, Note_on_c, 0, 69, 100
2, 6432, Note_off_c, 0, 69, 0
2, 6432, Note_on_c, 0, 68, 100
2, 6438, Note_off_c, 0, 68, 0
2, 6438, Note_on_c, 0, 68, 100
2, 6447, Note_off_c, 0, 68, 0
2, 6447, Note_on_c, 0, 68, 100
2, 6450, Note_off_c, 0, 68, 0
2, 6450, Note_on_c, 0, 68, 100
2, 6456, Note_off_c, 0, 68, 0
2, 6456, Note_on_c, 0, 68, 100
2, 6462, Note_off_c, 0, 68, 0
2, 6462, Note_on_c, 0, 68, 100
2, 6465, Note_off_c, 0, 68, 0
2, 6465, Note_on_c, 0, 68, 100
2, 6474, Note_off_c, 0, 68, 0
2, 6474, Note_on_c, 0, 68, 100
2, 6483, Note_off_c, 0, 68, 0
2, 6483, Note_on_c, 0, 68, 100
2, 6489, Note_off_c, 0, 68, 0
2, 6489, Note_on_c, 0, 68, 100
2, 6492, Note_off_c, 0, 68, 0
2, 6492, Note_on_c, 0, 68, 100
2, 6495, Note_off_c, 0, 68, 0
2, 6495, Note_on_c, 0, 68, 100
2, 6498, Note_off_c, 0, 68, 0
2, 6498, Note_on_c, 0, 68, 100
2, 6504, Note_off_c, 0, 68, 0
2, 6504, Note_on_c, 0, 68, 100
2, 6510, Note_off_c, 0, 68, 0
2, 6510, Note_on_c, 0, 68, 100
2, 6513, Note_off_c, 0, 68, 0
2, 6513, Note_on_c, 0, 68, 100
2, 6522, Note_off_c, 0, 68, 0
2, 6522, Note_on_c, 0, 68, 100
2, 6525, Note_off_c, 0, 68, 0
2, 6525, Note_on_c, 0, 68, 100
2, 6528, Note_off_c, 0, 68, 0
2, 6528, Note_on_c, 0, 66, 100
2, 6531, Note_off_c, 0, 66, 0
2, 6531, Note_on_c, 0, 66, 100
2, 6534, Note_off_c, 0, 66, 0
2, 6534, Note_on_c, 0, 66, 100
2, 6537, Note_off_c, 0, 66, 0
2, 6537, Note_on_c, 0, 66, 100
2, 6540, Note_off_c, 0, 66, 0
2, 6540, Note_on_c, 0, 66, 100
2, 6549, Note_off_c, 0, 66, 0
2, 6549, Note_on_c, 0, 66, 100
2, 6552, Note_off_c, 0, 66, 0
2, 6552, Note_on_c, 0, 66, 100
2, 6555, Note_off_c, 0, 66, 0
2, 6555, Note_on_c, 0, 66, 100
2, 6558, Note_off_c, 0, 66, 0
2, 6558, Note_on_c, 0, 66, 100
2, 6567, Note_off_c, 0, 66, 0
2, 6567, Note_on_c, 0, 66, 100
2, 6573, Note_off_c, 0, 66, 0
2, 6573, Note_on_c, 0, 66, 100
2, 6588, Note_off_c, 0, 66, 0
2, 6588, Note_on_c, 0, 66, 100
2, 6591, Note_off_c, 0, 66, 0
2, 6591, Note_on_c, 0, 66, 100
2, 6597, Note_off_c, 0, 66, 0
2, 6597, Note_on_c, 0, 66, 100
2, 6601, Pitch_bend_c, 0, 8448
2, 6605, Pitch_bend_c, 0, 8448
2, 6606, Note_off_c, 0, 66, 0
2, 6606, Note_on_c, 0, 66, 100
2, 6609, Pitch_bend_c, 0, 9472
2, 6614, Pitch_bend_c, 0, 10112
2, 6615, Note_off_c, 0, 66, 0
2, 6615, Note_on_c, 0, 66, 100
2, 6620, Pitch_bend_c, 0, 11392
2, 6624, Note_off_c, 0, 66, 0
2, 6624, Note_on_c, 0, 68, 100
2, 6625, Pitch_bend_c, 0, 8064
2, 6627, Note_off_c, 0, 68, 0
2, 6627, Note_on_c, 0, 68, 100
2, 6633, Note_off_c, 0, 68, 0
2, 6633, Note_on_c, 0, 68, 100
2, 6645, Note_off_c, 0, 68, 0
2, 6645, Note_on_c, 0, 68, 100
2, 6651, Note_off_c, 0, 68, 0
2, 6651, Note_on_c, 0, 68, 100
2, 6660, Note_off_c, 0, 68, 0
2, 6660, Note_on_c, 0, 68, 100
2, 6663, Note_off_c, 0, 68, 0
2, 6663, Note_on_c, 0, 68, 100
2, 6672, Note_off_c, 0, 68, 0
2, 6672, Note_on_c, 0, 68, 100
2, 6678, Note_off_c, 0, 68, 0
2, 6678, Note_on_c, 0, 68, 100
2, 6681, Note_off_c, 0, 68, 0
2, 6681, Note_on_c, 0, 68, 100
2, 6684, Note_off_c, 0, 68, 0
2, 6684, Note_on_c, 0, 68, 100
2, 6690, Note_off_c, 0, 68, 0
2, 6690, Note_on_c, 0, 68, 100
2, 6697, Pitch_bend_c, 0, 7680
2, 6702, Note_off_c, 0, 68, 0
2, 6702, Note_on_c, 0, 68, 100
2, 6702, Pitch_bend_c, 0, 6016
2, 6705, Note_off_c, 0, 68, 0
2, 6705, Note_on_c, 0, 68, 100
2, 6708, Pitch_bend_c, 0, 4736
2, 6710, Pitch_bend_c, 0, 2944
2, 6713, Pitch_bend_c, 0, 6016
2, 6714, Pitch_bend_c, 0, 2688
2, 6719, Pitch_bend_c, 0, 7680
2, 6720, Note_off_c, 0, 68, 0
2, 6720, Note_on_c, 0, 65, 100
2, 6729, Note_off_c, 0, 65, 0
2, 6729, Note_on_c, 0, 65, 100
2, 6732, Note_off_c, 0, 65, 0
2, 6732, Note_on_c, 0, 65, 100
2, 6738, Note_off_c, 0, 65, 0
2, 6738, Note_on_c, 0, 65, 100
2, 6750, Note_off_c, 0, 65, 0
2, 6750, Note_on_c, 0, 65, 100
2, 6753, Note_off_c, 0, 65, 0
2, 6753, Note_on_c, 0, 65, 100
2, 6759, Note_off_c, 0, 65, 0
2, 6759, Note_on_c, 0, 65, 100
2, 6768, Note_off_c, 0, 65, 0
2, 6768, Note_on_c, 0, 65, 100
2, 6771, Note_off_c, 0, 65, 0
2, 6771, Note_on_c, 0, 65, 100
2, 6777, Note_off_c, 0, 65, 0
2, 6777, Note_on_c, 0, 65, 100
2, 6786, Note_off_c, 0, 65, 0
2, 6786, Note_on_c, 0, 65, 100
2, 6789, Note_off_c, 0, 65, 0
2, 6789, Note_on_c, 0, 65, 100
2, 6792, Note_off_c, 0, 65, 0
2, 6792, Note_on_c, 0, 65, 100
2, 6798, Note_off_c, 0, 65, 0
2, 6798, Note_on_c, 0, 65, 100
2, 6804, Note_off_c, 0, 65, 0
2, 6804, Note_on_c, 0, 65, 100
2, 6810, Note_off_c, 0, 65, 0
2, 6810, Note_on_c, 0, 65, 100
2, 6825, Note_off_c, 0, 65, 0
2, 6825, Note_on_c, 0, 65, 100
2, 6828, Note_off_c, 0, 65, 0
2, 6828, Note_on_c, 0, 65, 100
2, 6834, Note_off_c, 0, 65, 0
2, 6834, Note_on_c, 0, 65, 100
2, 6843, Note_off_c, 0, 65, 0
2, 6843, Note_on_c, 0, 65, 100
2, 6852, Note_off_c, 0, 65, 0
2, 6852, Note_on_c, 0, 65, 100
2, 6855, Note_off_c, 0, 65, 0
2, 6855, Note_on_c, 0, 65, 100
2, 6873, Note_off_c, 0, 65, 0
2, 6873, Note_on_c, 0, 65, 100
2, 6876, Note_off_c, 0, 65, 0
2, 6876, Pitch_bend_c, 0, 7680
2, 6877, Pitch_bend_c, 0, 7680
2, 6878, Pitch_bend_c, 0, 7680
2, 6879, Note_on_c, 0, 65, 100
2, 6879, Pitch_bend_c, 0, 7680
2, 6880, Pitch_bend_c, 0, 7680
2, 6881, Pitch_bend_c, 0, 7680
2, 6882, Pitch_bend_c, 0, 7040
2, 6883, Pitch_bend_c, 0, 7040
2, 6884, Pitch_bend_c, 0, 6400
2, 6885, Note_off_c, 0, 65, 0
2, 6885, Note_on_c, 0, 65, 100
2, 6885, Pitch_bend_c, 0, 6016
2, 6886, Pitch_bend_c, 0, 5376
2, 6887, Pitch_bend_c, 0, 4992
2, 6888, Note_off_c, 0, 65, 0
2, 6888, Note_on_c, 0, 65, 100
2, 6888, Pitch_bend_c, 0, 4992
2, 6889, Pitch_bend_c, 0, 4736
2, 6890, Pitch_bend_c, 0, 4352
2, 6891, Pitch_bend_c, 0, 3712
2, 6892, Pitch_bend_c, 0, 3712
2, 6893, Pitch_bend_c, 0, 3328
2, 6894, Note_off_c, 0, 65, 0
2, 6894, Note_on_c, 0, 65, 100
2, 6894, Pitch_bend_c, 0, 2944
2, 6895, Pitch_bend_c, 0, 2688
2, 6896, Pitch_bend_c, 0, 2304
2, 6897, Pitch_bend_c, 0, 1920
2, 6898, Pitch_bend_c, 0, 1280
2, 6899, Pitch_bend_c, 0, 640
2, 6900, Pitch_bend_c, 0, 256
2, 6901, Pitch_bend_c, 0, 0
2, 6902, Pitch_bend_c, 0, 0
2, 6903, Note_off_c, 0, 65, 0
2, 6903, Note_on_c, 0, 65, 100
2, 6903, Pitch_bend_c, 0, 0
2, 6904, Pitch_bend_c, 0, 0
2, 6905, Pitch_bend_c, 0, 0
2, 6906, Pitch_bend_c, 0, 0
2, 6911, Pitch_bend_c, 0, 8064
2, 6912, Note_off_c, 0, 65, 0
2, 6912, Note_on_c, 0, 62, 100
2, 6921, Note_off_c, 0, 62, 0
2, 6921, Note_on_c, 0, 62, 100
2, 6924, Note_off_c, 0, 62, 0
2, 6924, Note_on_c, 0, 62, 100
2, 6936, Note_off_c, 0, 62, 0
2, 6936, Note_on_c, 0, 62, 100
2, 6945, Note_off_c, 0, 62, 0
2, 6945, Note_on_c, 0, 62, 100
2, 6948, Note_off_c, 0, 62, 0
2, 6948, Note_on_c, 0, 62, 100
2, 6957, Note_off_c, 0, 62, 0
2, 6957, Note_on_c, 0, 62, 100
2, 6960, Note_off_c, 0, 62, 0
2, 6960, Note_on_c, 0, 62, 100
2, 6963, Note_off_c, 0, 62, 0
2, 6963, Note_on_c, 0, 62, 100
2, 6966, Note_off_c, 0, 62, 0
2, 6966, Note_on_c, 0, 62, 100
2, 6975, Note_off_c, 0, 62, 0
2, 6975, Note_on_c, 0, 62, 100
2, 6978, Note_off_c, 0, 62, 0
2, 6978, Note_on_c, 0, 62, 100
2, 6984, Note_off_c, 0, 62, 0
2, 6984, Note_on_c, 0, 62, 100
2, 6996, Note_off_c, 0, 62, 0
2, 6996, Note_on_c, 0, 62, 100
2, 6999, Note_off_c, 0, 62, 0
2, 6999, Note_on_c, 0, 62, 100
2, 7011, Note_off_c, 0, 62, 0
2, 7011, Note_on_c, 0, 62, 100
2, 7017, Note_off_c, 0, 62, 0
2, 7017, Note_on_c, 0, 62, 100
2, 7023, Note_off_c, 0, 62, 0
2, 7023, Note_on_c, 0, 62, 100
2, 7032, Note_off_c, 0, 62, 0
2, 7032, Note_on_c, 0, 62, 100
2, 7044, Note_off_c, 0, 62, 0
2, 7044, Note_on_c, 0, 62, 100
2, 7056, Note_off_c, 0, 62, 0
2, 7056, Note_on_c, 0, 62, 100
2, 7059, Note_off_c, 0, 62, 0
2, 7059, Note_on_c, 0, 62, 100
2, 7062, Note_off_c, 0, 62, 0
2, 7062, Note_on_c, 0, 62, 100
2, 7077, Note_off_c, 0, 62, 0
2, 7077, Note_on_c, 0, 62, 100
2, 7080, Note_off_c, 0, 62, 0
2, 7080, Note_on_c, 0, 62, 100
2, 7086, Note_off_c, 0, 62, 0
2, 7086, Note_on_c, 0, 62, 100
2, 7095, Note_off_c, 0, 62, 0
2, 7095, Note_on_c, 0, 62, 100
2, 7098, Note_off_c, 0, 62, 0
2, 7098, Note_on_c, 0, 62, 100
2, 7104, Note_off_c, 0, 62, 0
2, 7104, Note_on_c, 0, 65, 100
2, 7110, Note_off_c, 0, 65, 0
2, 7110, Note_on_c, 0, 65, 100
2, 7113, Note_off_c, 0, 65, 0
2, 7113, Note_on_c, 0, 65, 100
2, 7116, Note_off_c, 0, 65, 0
2, 7116, Note_on_c, 0, 65, 100
2, 7125, Note_off_c, 0, 65, 0
2, 7125, Note_on_c, 0, 65, 100
2, 7128, Note_off_c, 0, 65, 0
2, 7128, Note_on_c, 0, 64, 100
2, 7134, Note_off_c, 0, 64, 0
2, 7134, Note_on_c, 0, 64, 100
2, 7140, Note_off_c, 0, 64, 0
2, 7140, Note_on_c, 0, 64, 100
2, 7143, Note_off_c, 0, 64, 0
2, 7143, Note_on_c, 0, 64, 100
2, 7152, Note_off_c, 0, 64, 0
2, 7152, Note_on_c, 0, 62, 100
2, 7158, Note_off_c, 0, 62, 0
2, 7158, Note_on_c, 0, 62, 100
2, 7164, Note_off_c, 0, 62, 0
2, 7164, Note_on_c, 0, 62, 100
2, 7167, Note_off_c, 0, 62, 0
2, 7167, Note_on_c, 0, 62, 100
2, 7176, Note_off_c, 0, 62, 0
2, 7176, Note_on_c, 0, 61, 100
2, 7185, Note_off_c, 0, 61, 0
2, 7185, Note_on_c, 0, 61, 100
2, 7188, Note_off_c, 0, 61, 0
2, 7188, Note_on_c, 0, 61, 100
2, 7191, Note_off_c, 0, 61, 0
2, 7191, Note_on_c, 0, 61, 100
2, 7197, Note_off_c, 0, 61, 0
2, 7197, Note_on_c, 0, 61, 100
2, 7203, Note_off_c, 0, 61, 0
2, 7203, Note_on_c, 0, 61, 100
2, 7209, Note_off_c, 0, 61, 0
2, 7209, Note_on_c, 0, 61, 100
2, 7218, Note_off_c, 0, 61, 0
2, 7218, Note_on_c, 0, 61, 100
2, 7224, Note_off_c, 0, 61, 0
2, 7224, Note_on_c, 0, 61, 100
2, 7233, Note_off_c, 0, 61, 0
2, 7233, Note_on_c, 0, 61, 100
2, 7236, Note_off_c, 0, 61, 0
2, 7236, Note_on_c, 0, 61, 100
2, 7245, Note_off_c, 0, 61, 0
2, 7245, Note_on_c, 0, 61, 100
2, 7248, Note_off_c, 0, 61, 0
2, 7248, Note_on_c, 0, 61, 100
2, 7254, Note_off_c, 0, 61, 0
2, 7254, Note_on_c, 0, 61, 100
2, 7260, Note_off_c, 0, 61, 0
2, 7260, Note_on_c, 0, 61, 100
2, 7266, Note_off_c, 0, 61, 0
2, 7266, Note_on_c, 0, 61, 100
2, 7269, Note_off_c, 0, 61, 0
2, 7269, Note_on_c, 0, 61, 100
2, 7272, Note_off_c, 0, 61, 0
2, 7272, Note_on_c, 0, 61, 100
2, 7281, Note_off_c, 0, 61, 0
2, 7281, Note_on_c, 0, 61, 100
2, 7293, Note_off_c, 0, 61, 0
2, 7293, Note_on_c, 0, 61, 100
2, 7296, Note_off_c, 0, 61, 0
2, 7296, Note_on_c, 0, 65, 100
2, 7299, Note_off_c, 0, 65, 0
2, 7299, Note_on_c, 0, 65, 100
2, 7302, Note_off_c, 0, 65, 0
2, 7302, Note_on_c, 0, 65, 100
2, 7305, Note_off_c, 0, 65, 0
2, 7305, Note_on_c, 0, 65, 100
2, 7308, Note_off_c, 0, 65, 0
2, 7308, Note_on_c, 0, 65, 100
2, 7311, Note_off_c, 0, 65, 0
2, 7311, Note_on_c, 0, 65, 100
2, 7320, Note_off_c, 0, 65, 0
2, 7320, Note_on_c, 0, 64, 100
2, 7326, Note_off_c, 0, 64, 0
2, 7326, Note_on_c, 0, 64, 100
2, 7329, Note_off_c, 0, 64, 0
2, 7329, Note_on_c, 0, 64, 100
2, 7338, Note_off_c, 0, 64, 0
2, 7338, Note_on_c, 0, 64, 100
2, 7344, Note_off_c, 0, 64, 0
2, 7344, Note_on_c, 0, 62, 100
2, 7353, Note_off_c, 0, 62, 0
2, 7353, Note_on_c, 0, 62, 100
2, 7356, Note_off_c, 0, 62, 0
2, 7356, Note_on_c, 0, 62, 100
2, 7365, Note_off_c, 0, 62, 0
2, 7365, Note_on_c, 0, 62, 100
2, 7368, Note_off_c, 0, 62, 0
2, 7368, Note_on_c, 0, 61, 100
2, 7380, Note_off_c, 0, 61, 0
2, 7380, Note_on_c, 0, 61, 100
2, 7386, Note_off_c, 0, 61, 0
2, 7386, Note_on_c, 0, 61, 100
2, 7392, Note_off_c, 0, 61, 0
2, 7392, Note_on_c, 0, 61, 100
2, 7398, Note_off_c, 0, 61, 0
2, 7398, Note_on_c, 0, 61, 100
2, 7404, Note_off_c, 0, 61, 0
2, 7404, Note_on_c, 0, 61, 100
2, 7416, Note_off_c, 0, 61, 0
2, 7416, Note_on_c, 0, 61, 100
2, 7434, Note_off_c, 0, 61, 0
2, 7434, Note_on_c, 0, 61, 100
2, 7446, Note_off_c, 0, 61, 0
2, 7446, Note_on_c, 0, 61, 100
2, 7449, Note_off_c, 0, 61, 0
2, 7449, Note_on_c, 0, 61, 100
2, 7464, Note_off_c, 0, 61, 0
2, 7464, Note_on_c, 0, 61, 100
2, 7467, Note_off_c, 0, 61, 0
2, 7467, Note_on_c, 0, 61, 100
2, 7485, Note_off_c, 0, 61, 0
2, 7485, Note_on_c, 0, 61, 100
2, 7488, Note_off_c, 0, 61, 0
2, 7488, Note_on_c, 0, 69, 100
2, 7494, Note_off_c, 0, 69, 0
2, 7494, Note_on_c, 0, 69, 100
2, 7497, Note_off_c, 0, 69, 0
2, 7497, Note_on_c, 0, 69, 100
2, 7500, Note_off_c, 0, 69, 0
2, 7500, Note_on_c, 0, 69, 100
2, 7503, Note_off_c, 0, 69, 0
2, 7503, Note_on_c, 0, 69, 100
2, 7506, Note_off_c, 0, 69, 0
2, 7506, Note_on_c, 0, 69, 100
2, 7512, Note_off_c, 0, 69, 0
2, 7512, Note_on_c, 0, 69, 100
2, 7515, Note_off_c, 0, 69, 0
2, 7515, Note_on_c, 0, 69, 100
2, 7518, Note_off_c, 0, 69, 0
2, 7518, Note_on_c, 0, 69, 100
2, 7521, Note_off_c, 0, 69, 0
2, 7521, Note_on_c, 0, 69, 100
2, 7527, Note_off_c, 0, 69, 0
2, 7527, Note_on_c, 0, 69, 100
2, 7530, Note_off_c, 0, 69, 0
2, 7530, Note_on_c, 0, 69, 100
2, 7533, Note_off_c, 0, 69, 0
2, 7533, Note_on_c, 0, 69, 100
2, 7536, Note_off_c, 0, 69, 0
2, 7536, Note_on_c, 0, 69, 100
2, 7542, Note_off_c, 0, 69, 0
2, 7542, Note_on_c, 0, 69, 100
2, 7551, Note_off_c, 0, 69, 0
2, 7551, Note_on_c, 0, 69, 100
2, 7554, Note_off_c, 0, 69, 0
2, 7554, Note_on_c, 0, 69, 100
2, 7563, Note_off_c, 0, 69, 0
2, 7563, Note_on_c, 0, 69, 100
2, 7566, Note_off_c, 0, 69, 0
2, 7566, Note_on_c, 0, 69, 100
2, 7572, Note_off_c, 0, 69, 0
2, 7572, Note_on_c, 0, 69, 100
2, 7575, Note_off_c, 0, 69, 0
2, 7575, Note_on_c, 0, 69, 100
2, 7578, Note_off_c, 0, 69, 0
2, 7578, Note_on_c, 0, 69, 100
2, 7584, Note_off_c, 0, 69, 0
2, 7584, Note_on_c, 0, 68, 100
2, 7590, Note_off_c, 0, 68, 0
2, 7590, Note_on_c, 0, 68, 100
2, 7599, Note_off_c, 0, 68, 0
2, 7599, Note_on_c, 0, 68, 100
2, 7602, Note_off_c, 0, 68, 0
2, 7602, Note_on_c, 0, 68, 100
2, 7608, Note_off_c, 0, 68, 0
2, 7608, Note_on_c, 0, 68, 100
2, 7614, Note_off_c, 0, 68, 0
2, 7614, Note_on_c, 0, 68, 100
2, 7617, Note_off_c, 0, 68, 0
2, 7617, Note_on_c, 0, 68, 100
2, 7626, Note_off_c, 0, 68, 0
2, 7626, Note_on_c, 0, 68, 100
2, 7635, Note_off_c, 0, 68, 0
2, 7635, Note_on_c, 0, 68, 100
2, 7641, Note_off_c, 0, 68, 0
2, 7641, Note_on_c, 0, 68, 100
2, 7644, Note_off_c, 0, 68, 0
2, 7644, Note_on_c, 0, 68, 100
2, 7647, Note_off_c, 0, 68, 0
2, 7647, Note_on_c, 0, 68, 100
2, 7650, Note_off_c, 0, 68, 0
2, 7650, Note_on_c, 0, 68, 100
2, 7656, Note_off_c, 0, 68, 0
2, 7656, Note_on_c, 0, 68, 100
2, 7662, Note_off_c, 0, 68, 0
2, 7662, Note_on_c, 0, 68, 100
2, 7665, Note_off_c, 0, 68, 0
2, 7665, Note_on_c, 0, 68, 100
2, 7674, Note_off_c, 0, 68, 0
2, 7674, Note_on_c, 0, 68, 100
2, 7677, Note_off_c, 0, 68, 0
2, 7677, Note_on_c, 0, 68, 100
2, 7680, Note_off_c, 0, 68, 0
2, 7680, Note_on_c, 0, 66, 100
2, 7683, Note_off_c, 0, 66, 0
2, 7683, Note_on_c, 0, 66, 100
2, 7686, Note_off_c, 0, 66, 0
2, 7686, Note_on_c, 0, 66, 100
2, 7689, Note_off_c, 0, 66, 0
2, 7689, Note_on_c, 0, 66, 100
2, 7692, Note_off_c, 0, 66, 0
2, 7692, Note_on_c, 0, 66, 100
2, 7701, Note_off_c, 0, 66, 0
2, 7701, Note_on_c, 0, 66, 100
2, 7704, Note_off_c, 0, 66, 0
2, 7704, Note_on_c, 0, 66, 100
2, 7707, Note_off_c, 0, 66, 0
2, 7707, Note_on_c, 0, 66, 100
2, 7710, Note_off_c, 0, 66, 0
2, 7710, Note_on_c, 0, 66, 100
2, 7719, Note_off_c, 0, 66, 0
2, 7719, Note_on_c, 0, 66, 100
2, 7725, Note_off_c, 0, 66, 0
2, 7725, Note_on_c, 0, 66, 100
2, 7740, Note_off_c, 0, 66, 0
2, 7740, Note_on_c, 0, 66, 100
2, 7743, Note_off_c, 0, 66, 0
2, 7743, Note_on_c, 0, 66, 100
2, 7749, Note_off_c, 0, 66, 0
2, 7749, Note_on_c, 0, 66, 100
2, 7753, Pitch_bend_c, 0, 8448
2, 7757, Pitch_bend_c, 0, 8448
2, 7758, Note_off_c, 0, 66, 0
2, 7758, Note_on_c, 0, 66, 100
2, 7761, Pitch_bend_c, 0, 9472
2, 7766, Pitch_bend_c, 0, 10112
2, 7767, Note_off_c, 0, 66, 0
2, 7767, Note_on_c, 0, 66, 100
2, 7772, Pitch_bend_c, 0, 11392
2, 7776, Note_off_c, 0, 66, 0
2, 7776, Note_on_c, 0, 68, 100
2, 7777, Pitch_bend_c, 0, 8064
2, 7779, Note_off_c, 0, 68, 0
2, 7779, Note_on_c, 0, 68, 100
2, 7785, Note_off_c, 0, 68, 0
2, 7785, Note_on_c, 0, 68, 100
2, 7797, Note_off_c, 0, 68, 0
2, 7797, Note_on_c, 0, 68, 100
2, 7803, Note_off_c, 0, 68, 0
2, 7803, Note_on_c, 0, 68, 100
2, 7812, Note_off_c, 0, 68, 0
2, 7812, Note_on_c, 0, 68, 100
2, 7815, Note_off_c, 0, 68, 0
2, 7815, Note_on_c, 0, 68, 100
2, 7824, Note_off_c, 0, 68, 0
2, 7824, Note_on_c, 0, 68, 100
2, 7830, Note_off_c, 0, 68, 0
2, 7830, Note_on_c, 0, 68, 100
2, 7833, Note_off_c, 0, 68, 0
2, 7833, Note_on_c, 0, 68, 100
2, 7836, Note_off_c, 0, 68, 0
2, 7836, Note_on_c, 0, 68, 100
2, 7842, Note_off_c, 0, 68, 0
2, 7842, Note_on_c, 0, 68, 100
2, 7849, Pitch_bend_c, 0, 7680
2, 7854, Note_off_c, 0, 68, 0
2, 7854, Note_on_c, 0, 68, 100
2, 7854, Pitch_bend_c, 0, 6016
2, 7857, Note_off_c, 0, 68, 0
2, 7857, Note_on_c, 0, 68, 100
2, 7860, Pitch_bend_c, 0, 4736
2, 7862, Pitch_bend_c, 0, 2944
2, 7865, Pitch_bend_c, 0, 6016
2, 7866, Pitch_bend_c, 0, 2688
2, 7871, Pitch_bend_c, 0, 7680
2, 7872, Note_off_c, 0, 68, 0
2, 7872, Note_on_c, 0, 65, 100
2, 7881, Note_off_c, 0, 65, 0
2, 7881, Note_on_c, 0, 65, 100
2, 7884, Note_off_c, 0, 65, 0
2, 7884, Note_on_c, 0, 65, 100
2, 7890, Note_off_c, 0, 65, 0
2, 7890, Note_on_c, 0, 65, 100
2, 7902, Note_off_c, 0, 65, 0
2, 7902, Note_on_c, 0, 65, 100
2, 7905, Note_off_c, 0, 65, 0
2, 7905, Note_on_c, 0, 65, 100
2, 7911, Note_off_c, 0, 65, 0
2, 7911, Note_on_c, 0, 65, 100
2, 7920, Note_off_c, 0, 65, 0
2, 7920, Note_on_c, 0, 65, 100
2, 7923, Note_off_c, 0, 65, 0
2, 7923, Note_on_c, 0, 65, 100
2, 7929, Note_off_c, 0, 65, 0
2, 7929, Note_on_c, 0, 65, 100
2, 7938, Note_off_c, 0, 65, 0
2, 7938, Note_on_c, 0, 65, 100
2, 7941, Note_off_c, 0, 65, 0
2, 7941, Note_on_c, 0, 65, 100
2, 7944, Note_off_c, 0, 65, 0
2, 7944, Note_on_c, 0, 65, 100
2, 7950, Note_off_c, 0, 65, 0
2, 7950, Note_on_c, 0, 65, 100
2, 7956, Note_off_c, 0, 65, 0
2, 7956, Note_on_c, 0, 65, 100
2, 7962, Note_off_c, 0, 65, 0
2, 7962, Note_on_c, 0, 65, 100
2, 7977, Note_off_c, 0, 65, 0
2, 7977, Note_on_c, 0, 65, 100
2, 7980, Note_off_c, 0, 65, 0
2, 7980, Note_on_c, 0, 65, 100
2, 7986, Note_off_c, 0, 65, 0
2, 7986, Note_on_c, 0, 65, 100
2, 7995, Note_off_c, 0, 65, 0
2, 7995, Note_on_c, 0, 65, 100
2, 8004, Note_off_c, 0, 65, 0
2, 8004, Note_on_c, 0, 65, 100
2, 8007, Note_off_c, 0, 65, 0
2, 8007, Note_on_c, 0, 65, 100
2, 8016, Note_off_c, 0, 65, 0
2, 8016, Note_on_c, 0, 72, 100
2, 8025, Note_off_c, 0, 72, 0
2, 8025, Note_on_c, 0, 72, 100
2, 8028, Note_off_c, 0, 72, 0
2, 8031, Note_on_c, 0, 72, 100
2, 8037, Note_off_c, 0, 72, 0
2, 8037, Note_on_c, 0, 72, 100
2, 8040, Note_off_c, 0, 72, 0
2, 8040, Note_on_c, 0, 72, 100
2, 8046, Note_off_c, 0, 72, 0
2, 8046, Note_on_c, 0, 72, 100
2, 8055, Note_off_c, 0, 72, 0
2, 8055, Note_on_c, 0, 72, 100
2, 8064, Note_off_c, 0, 72, 0
2, 8064, Note_on_c, 0, 71, 100
2, 8073, Note_off_c, 0, 71, 0
2, 8073, Note_on_c, 0, 71, 100
2, 8076, Note_off_c, 0, 71, 0
2, 8076, Note_on_c, 0, 71, 100
2, 8088, Note_off_c, 0, 71, 0
2, 8088, Note_on_c, 0, 71, 100
2, 8097, Note_off_c, 0, 71, 0
2, 8097, Note_on_c, 0, 71, 100
2, 8100, Note_off_c, 0, 71, 0
2, 8100, Note_on_c, 0, 71, 100
2, 8109, Note_off_c, 0, 71, 0
2, 8109, Note_on_c, 0, 71, 100
2, 8112, Note_off_c, 0, 71, 0
2, 8112, Note_on_c, 0, 71, 100
2, 8112, Note_on_c, 0, 71, 100
2, 8115, Note_off_c, 0, 71, 0
2, 8115, Note_off_c, 0, 71, 0
2, 8115, Note_on_c, 0, 71, 100
2, 8124, Note_off_c, 0, 71, 0
2, 8124, Note_on_c, 0, 71, 100
2, 8127, Note_off_c, 0, 71, 0
2, 8127, Note_on_c, 0, 71, 100
2, 8133, Note_off_c, 0, 71, 0
2, 8133, Note_on_c, 0, 71, 100
2, 8145, Note_off_c, 0, 71, 0
2, 8148, Note_on_c, 0, 69, 100
2, 8151, Note_off_c, 0, 69, 0
2, 8151, Note_on_c, 0, 69, 100
2, 8163, Note_off_c, 0, 69, 0
2, 8163, Note_on_c, 0, 69, 100
2, 8169, Note_off_c, 0, 69, 0
2, 8169, Note_on_c, 0, 69, 100
2, 8175, Note_off_c, 0, 69, 0
2, 8175, Note_on_c, 0, 69, 100
2, 8184, Note_off_c, 0, 69, 0
2, 8184, Note_on_c, 0, 69, 100
2, 8196, Note_off_c, 0, 69, 0
2, 8196, Note_on_c, 0, 69, 100
2, 8208, Note_off_c, 0, 69, 0
2, 8208, Note_on_c, 0, 69, 100
2, 8211, Note_off_c, 0, 69, 0
2, 8211, Note_on_c, 0, 69, 100
2, 8214, Note_off_c, 0, 69, 0
2, 8214, Note_on_c, 0, 69, 100
2, 8229, Note_off_c, 0, 69, 0
2, 8229, Note_on_c, 0, 69, 100
2, 8232, Note_off_c, 0, 69, 0
2, 8232, Note_on_c, 0, 69, 100
2, 8238, Note_off_c, 0, 69, 0
2, 8238, Note_on_c, 0, 69, 100
2, 8247, Note_off_c, 0, 69, 0
2, 8247, Note_on_c, 0, 69, 100
2, 8250, Note_off_c, 0, 69, 0
2, 8250, Note_on_c, 0, 69, 100
2, 8256, Note_off_c, 0, 69, 0
2, 8256, Note_on_c, 0, 65, 100
2, 8262, Note_off_c, 0, 65, 0
2, 8262, Note_on_c, 0, 65, 100
2, 8265, Note_off_c, 0, 65, 0
2, 8265, Note_on_c, 0, 65, 100
2, 8268, Note_off_c, 0, 65, 0
2, 8268, Note_on_c, 0, 65, 100
2, 8277, Note_off_c, 0, 65, 0
2, 8277, Note_on_c, 0, 65, 100
2, 8280, Note_off_c, 0, 65, 0
2, 8280, Note_on_c, 0, 64, 100
2, 8286, Note_off_c, 0, 64, 0
2, 8286, Note_on_c, 0, 64, 100
2, 8292, Note_off_c, 0, 64, 0
2, 8292, Note_on_c, 0, 64, 100
2, 8295, Note_off_c, 0, 64, 0
2, 8295, Note_on_c, 0, 64, 100
2, 8304, Note_off_c, 0, 64, 0
2, 8304, Note_on_c, 0, 62, 100
2, 8310, Note_off_c, 0, 62, 0
2, 8310, Note_on_c, 0, 62, 100
2, 8316, Note_off_c, 0, 62, 0
2, 8316, Note_on_c, 0, 62, 100
2, 8319, Note_off_c, 0, 62, 0
2, 8319, Note_on_c, 0, 62, 100
2, 8328, Note_off_c, 0, 62, 0
2, 8328, Note_on_c, 0, 61, 100
2, 8337, Note_off_c, 0, 61, 0
2, 8337, Note_on_c, 0, 61, 100
2, 8340, Note_off_c, 0, 61, 0
2, 8340, Note_on_c, 0, 61, 100
2, 8343, Note_off_c, 0, 61, 0
2, 8343, Note_on_c, 0, 61, 100
2, 8349, Note_off_c, 0, 61, 0
2, 8349, Note_on_c, 0, 61, 100
2, 8355, Note_off_c, 0, 61, 0
2, 8355, Note_on_c, 0, 61, 100
2, 8361, Note_off_c, 0, 61, 0
2, 8361, Note_on_c, 0, 61, 100
2, 8370, Note_off_c, 0, 61, 0
2, 8370, Note_on_c, 0, 61, 100
2, 8376, Note_off_c, 0, 61, 0
2, 8376, Note_on_c, 0, 61, 100
2, 8385, Note_off_c, 0, 61, 0
2, 8385, Note_on_c, 0, 61, 100
2, 8388, Note_off_c, 0, 61, 0
2, 8388, Note_on_c, 0, 61, 100
2, 8397, Note_off_c, 0, 61, 0
2, 8397, Note_on_c, 0, 61, 100
2, 8400, Note_off_c, 0, 61, 0
2, 8400, Note_on_c, 0, 61, 100
2, 8406, Note_off_c, 0, 61, 0
2, 8406, Note_on_c, 0, 61, 100
2, 8412, Note_off_c, 0, 61, 0
2, 8412, Note_on_c, 0, 61, 100
2, 8418, Note_off_c, 0, 61, 0
2, 8418, Note_on_c, 0, 61, 100
2, 8421, Note_off_c, 0, 61, 0
2, 8421, Note_on_c, 0, 61, 100
2, 8424, Note_off_c, 0, 61, 0
2, 8424, Note_on_c, 0, 61, 100
2, 8433, Note_off_c, 0, 61, 0
2, 8433, Note_on_c, 0, 61, 100
2, 8445, Note_off_c, 0, 61, 0
2, 8445, Note_on_c, 0, 61, 100
2, 8448, Note_off_c, 0, 61, 0
2, 8448, Note_on_c, 0, 65, 100
2, 8451, Note_off_c, 0, 65, 0
2, 8451, Note_on_c, 0, 65, 100
2, 8454, Note_off_c, 0, 65, 0
2, 8454, Note_on_c, 0, 65, 100
2, 8457, Note_off_c, 0, 65, 0
2, 8457, Note_on_c, 0, 65, 100
2, 8460, Note_off_c, 0, 65, 0
2, 8460, Note_on_c, 0, 65, 100
2, 8463, Note_off_c, 0, 65, 0
2, 8463, Note_on_c, 0, 65, 100
2, 8472, Note_off_c, 0, 65, 0
2, 8472, Note_on_c, 0, 64, 100
2, 8478, Note_off_c, 0, 64, 0
2, 8478, Note_on_c, 0, 64, 100
2, 8481, Note_off_c, 0, 64, 0
2, 8481, Note_on_c, 0, 64, 100
2, 8490, Note_off_c, 0, 64, 0
2, 8490, Note_on_c, 0, 64, 100
2, 8496, Note_off_c, 0, 64, 0
2, 8496, Note_on_c, 0, 62, 100
2, 8505, Note_off_c, 0, 62, 0
2, 8505, Note_on_c, 0, 62, 100
2, 8508, Note_off_c, 0, 62, 0
2, 8508, Note_on_c, 0, 62, 100
2, 8517, Note_off_c, 0, 62, 0
2, 8517, Note_on_c, 0, 62, 100
2, 8520, Note_off_c, 0, 62, 0
2, 8520, Note_on_c, 0, 61, 100
2, 8532, Note_off_c, 0, 61, 0
2, 8532, Note_on_c, 0, 61, 100
2, 8538, Note_off_c, 0, 61, 0
2, 8538, Note_on_c, 0, 61, 100
2, 8544, Note_off_c, 0, 61, 0
2, 8544, Note_on_c, 0, 61, 100
2, 8550, Note_off_c, 0, 61, 0
2, 8550, Note_on_c, 0, 61, 100
2, 8556, Note_off_c, 0, 61, 0
2, 8556, Note_on_c, 0, 61, 100
2, 8568, Note_off_c, 0, 61, 0
2, 8568, Note_on_c, 0, 61, 100
2, 8586, Note_off_c, 0, 61, 0
2, 8586, Note_on_c, 0, 61, 100
2, 8598, Note_off_c, 0, 61, 0
2, 8598, Note_on_c, 0, 61, 100
2, 8601, Note_off_c, 0, 61, 0
2, 8601, Note_on_c, 0, 61, 100
2, 8616, Note_off_c, 0, 61, 0
2, 8616, Note_on_c, 0, 61, 100
2, 8619, Note_off_c, 0, 61, 0
2, 8619, Note_on_c, 0, 61, 100
2, 8637, Note_off_c, 0, 61, 0
2, 8637, Note_on_c, 0, 61, 100
2, 8640, Note_off_c, 0, 61, 0
2, 8640, Note_on_c, 0, 47, 100
2, 8640, Note_on_c, 0, 54, 100
2, 8664, Note_off_c, 0, 47, 0
2, 8664, Note_off_c, 0, 54, 0
2, 8664, Note_on_c, 0, 47, 100
2, 8664, Note_on_c, 0, 54, 100
2, 8688, Note_off_c, 0, 47, 0
2, 8688, Note_off_c, 0, 54, 0
2, 8688, Note_on_c, 0, 47, 79
2, 8688, Note_on_c, 0, 54, 79
2, 8712, Note_off_c, 0, 47, 0
2, 8712, Note_off_c, 0, 54, 0
2, 8712, Note_on_c, 0, 47, 79
2, 8712, Note_on_c, 0, 54, 79
2, 8736, Note_off_c, 0, 47, 0
2, 8736, Note_off_c, 0, 54, 0
2, 8736, Note_on_c, 0, 47, 81
2, 8736, Note_on_c, 0, 54, 81
2, 8760, Note_off_c, 0, 47, 0
2, 8760, Note_off_c, 0, 54, 0
2, 8760, Note_on_c, 0, 47, 105
2, 8760, Note_on_c, 0, 54, 105
2, 8784, Note_off_c, 0, 47, 0
2, 8784, Note_off_c, 0, 54, 0
2, 8784, Note_on_c, 0, 47, 105
2, 8784, Note_on_c, 0, 54, 105
2, 8808, Note_off_c, 0, 47, 0
2, 8808, Note_off_c, 0, 54, 0
2, 8808, Note_on_c, 0, 47, 84
2, 8808, Note_on_c, 0, 54, 84
2, 8832, Note_off_c, 0, 47, 0
2, 8832, Note_off_c, 0, 54, 0
2, 8832, Note_on_c, 0, 42, 108
2, 8832, Note_on_c, 0, 49, 108
2, 8856, Note_off_c, 0, 42, 0
2, 8856, Note_off_c, 0, 49, 0
2, 8856, Note_on_c, 0, 42, 87
2, 8856, Note_on_c, 0, 49, 87
2, 8880, Note_off_c, 0, 42, 0
2, 8880, Note_off_c, 0, 49, 0
2, 8880, Note_on_c, 0, 42, 87
2, 8880, Note_on_c, 0, 49, 87
2, 8904, Note_off_c, 0, 42, 0
2, 8904, Note_off_c, 0, 49, 0
2, 8904, Note_on_c, 0, 42, 87
2, 8904, Note_on_c, 0, 49, 87
2, 8928, Note_off_c, 0, 42, 0
2, 8928, Note_off_c, 0, 49, 0
2, 8928, Note_on_c, 0, 42, 87
2, 8928, Note_on_c, 0, 49, 87
2, 8952, Note_off_c, 0, 42, 0
2, 8952, Note_off_c, 0, 49, 0
2, 8952, Note_on_c, 0, 42, 108
2, 8952, Note_on_c, 0, 49, 108
2, 8976, Note_off_c, 0, 42, 0
2, 8976, Note_off_c, 0, 49, 0
2, 8976, Note_on_c, 0, 42, 87
2, 8976, Note_on_c, 0, 49, 87
2, 9000, Note_off_c, 0, 42, 0
2, 9000, Note_off_c, 0, 49, 0
2, 9000, Note_on_c, 0, 42, 87
2, 9000, Note_on_c, 0, 49, 87
2, 9024, Note_off_c, 0, 42, 0
2, 9024, Note_off_c, 0, 49, 0
2, 9024, Note_on_c, 0, 40, 87
2, 9024, Note_on_c, 0, 47, 87
2, 9048, Note_off_c, 0, 40, 0
2, 9048, Note_off_c, 0, 47, 0
2, 9048, Note_on_c, 0, 40, 108
2, 9048, Note_on_c, 0, 47, 108
2, 9072, Note_off_c, 0, 40, 0
2, 9072, Note_off_c, 0, 47, 0
2, 9072, Note_on_c, 0, 40, 108
2, 9072, Note_on_c, 0, 47, 108
2, 9096, Note_off_c, 0, 40, 0
2, 9096, Note_off_c, 0, 47, 0
2, 9096, Note_on_c, 0, 40, 87
2, 9096, Note_on_c, 0, 47, 87
2, 9120, Note_off_c, 0, 40, 0
2, 9120, Note_off_c, 0, 47, 0
2, 9120, Note_on_c, 0, 40, 87
2, 9120, Note_on_c, 0, 47, 87
2, 9144, Note_off_c, 0, 40, 0
2, 9144, Note_off_c, 0, 47, 0
2, 9144, Note_on_c, 0, 40, 108
2, 9144, Note_on_c, 0, 47, 108
2, 9168, Note_off_c, 0, 40, 0
2, 9168, Note_off_c, 0, 47, 0
2, 9168, Note_on_c, 0, 40, 87
2, 9168, Note_on_c, 0, 47, 87
2, 9192, Note_off_c, 0, 40, 0
2, 9192, Note_off_c, 0, 47, 0
2, 9192, Note_on_c, 0, 40, 108
2, 9192, Note_on_c, 0, 47, 108
2, 9216, Note_off_c, 0, 40, 0
2, 9216, Note_off_c, 0, 47, 0
2, 9216, Note_on_c, 0, 40, 87
2, 9216, Note_on_c, 0, 47, 87
2, 9240, Note_off_c, 0, 40, 0
2, 9240, Note_off_c, 0, 47, 0
2, 9240, Note_on_c, 0, 40, 87
2, 9240, Note_on_c, 0, 47, 87
2, 9264, Note_off_c, 0, 40, 0
2, 9264, Note_off_c, 0, 47, 0
2, 9264, Note_on_c, 0, 40, 87
2, 9264, Note_on_c, 0, 47, 87
2, 9288, Note_off_c, 0, 40, 0
2, 9288, Note_off_c, 0, 47, 0
2, 9288, Note_on_c, 0, 40, 81
2, 9288, Note_on_c, 0, 47, 81
2, 9312, Note_off_c, 0, 40, 0
2, 9312, Note_off_c, 0, 47, 0
2, 9312, Note_on_c, 0, 40, 81
2, 9312, Note_on_c, 0, 47, 81
2, 9336, Note_off_c, 0, 40, 0
2, 9336, Note_off_c, 0, 47, 0
2, 9336, Note_on_c, 0, 40, 103
2, 9336, Note_on_c, 0, 47, 103
2, 9360, Note_off_c, 0, 40, 0
2, 9360, Note_off_c, 0, 47, 0
2, 9360, Note_on_c, 0, 40, 84
2, 9360, Note_on_c, 0, 47, 84
2, 9384, Note_off_c, 0, 40, 0
2, 9384, Note_off_c, 0, 47, 0
2, 9384, Note_on_c, 0, 40, 84
2, 9384, Note_on_c, 0, 47, 84
2, 9408, Note_off_c, 0, 40, 0
2, 9408, Note_off_c, 0, 47, 0
2, 9408, Note_on_c, 0, 45, 100
2, 9408, Note_on_c, 0, 52, 100
2, 9792, Note_off_c, 0, 45, 0
2, 9792, Note_off_c, 0, 52, 0
2, 9792, Note_on_c, 0, 69, 100
2, 9888, Note_off_c, 0, 69, 0
2, 9888, Note_on_c, 0, 68, 100
2, 9984, Note_off_c, 0, 68, 0
2, 9984, Note_on_c, 0, 66, 100
2, 10054, Pitch_bend_c, 0, 8064
2, 10056, Pitch_bend_c, 0, 8064
2, 10058, Pitch_bend_c, 0, 8448
2, 10060, Pitch_bend_c, 0, 8704
2, 10062, Pitch_bend_c, 0, 8704
2, 10064, Pitch_bend_c, 0, 9088
2, 10066, Pitch_bend_c, 0, 9472
2, 10068, Pitch_bend_c, 0, 9728
2, 10070, Pitch_bend_c, 0, 10112
2, 10072, Pitch_bend_c, 0, 10496
2, 10074, Pitch_bend_c, 0, 10752
2, 10076, Pitch_bend_c, 0, 11136
2, 10078, Pitch_bend_c, 0, 11392
2, 10080, Pitch_bend_c, 0, 11392
2, 10082, Pitch_bend_c, 0, 11776
2, 10084, Pitch_bend_c, 0, 13184
2, 10086, Pitch_bend_c, 0, 14208
2, 10088, Pitch_bend_c, 0, 16383
2, 10152, Pitch_bend_c, 0, 15872
2, 10156, Pitch_bend_c, 0, 13824
2, 10158, Pitch_bend_c, 0, 12800
2, 10160, Pitch_bend_c, 0, 13184
2, 10162, Pitch_bend_c, 0, 12800
2, 10164, Pitch_bend_c, 0, 12160
2, 10166, Pitch_bend_c, 0, 11776
2, 10168, Pitch_bend_c, 0, 11392
2, 10170, Pitch_bend_c, 0, 10752
2, 10172, Pitch_bend_c, 0, 10752
2, 10174, Pitch_bend_c, 0, 10112
2, 10176, Pitch_bend_c, 0, 9728
2, 10178, Pitch_bend_c, 0, 9472
2, 10180, Pitch_bend_c, 0, 9088
2, 10182, Pitch_bend_c, 0, 8704
2, 10184, Pitch_bend_c, 0, 8448
2, 10186, Pitch_bend_c, 0, 8064
2, 10188, Pitch_bend_c, 0, 8064
2, 10190, Pitch_bend_c, 0, 7424
2, 10192, Pitch_bend_c, 0, 7040
2, 10194, Pitch_bend_c, 0, 6656
2, 10196, Pitch_bend_c, 0, 5376
2, 10198, Pitch_bend_c, 0, 4992
2, 10200, Pitch_bend_c, 0, 4992
2, 10202, Pitch_bend_c, 0, 4736
2, 10204, Pitch_bend_c, 0, 4736
2, 10206, Pitch_bend_c, 0, 4352
2, 10208, Pitch_bend_c, 0, 3328
2, 10272, Note_off_c, 0, 66, 0
2, 10272, Pitch_bend_c, 0, 8064
2, 10272, Note_on_c, 0, 69, 100
2, 10296, Note_off_c, 0, 69, 0
2, 10296, Note_on_c, 0, 71, 100
2, 10344, Note_on_c, 0, 72, 100
2, 10356, Note_off_c, 0, 71, 0
2, 10392, Note_on_c, 0, 71, 100
2, 10416, Note_off_c, 0, 72, 0
2, 10440, Note_off_c, 0, 71, 0
2, 10440, Note_on_c, 0, 69, 100
2, 10488, Note_on_c, 0, 65, 100
2, 10512, Note_off_c, 0, 69, 0
2, 10560, Note_off_c, 0, 65, 0
2, 10560, Note_on_c, 0, 63, 100
2, 10560, Pitch_bend_c, 0, 15488
2, 10562, Pitch_bend_c, 0, 15488
2, 10564, Pitch_bend_c, 0, 14848
2, 10566, Pitch_bend_c, 0, 14848
2, 10568, Pitch_bend_c, 0, 14464
2, 10570, Pitch_bend_c, 0, 14208
2, 10572, Pitch_bend_c, 0, 13440
2, 10574, Pitch_bend_c, 0, 12800
2, 10608, Note_off_c, 0, 63, 0
2, 10608, Note_on_c, 0, 63, 100
2, 10608, Pitch_bend_c, 0, 8064
2, 10610, Pitch_bend_c, 0, 5376
2, 10612, Pitch_bend_c, 0, 4736
2, 10614, Pitch_bend_c, 0, 4736
2, 10616, Pitch_bend_c, 0, 3968
2, 10618, Pitch_bend_c, 0, 3712
2, 10620, Pitch_bend_c, 0, 3328
2, 10622, Pitch_bend_c, 0, 3328
2, 10624, Pitch_bend_c, 0, 2688
2, 10626, Pitch_bend_c, 0, 1920
2, 10628, Pitch_bend_c, 0, 1664
2, 10630, Pitch_bend_c, 0, 896
2, 10632, Pitch_bend_c, 0, 0
2, 10634, Pitch_bend_c, 0, 0
2, 10636, Pitch_bend_c, 0, 0
2, 10638, Pitch_bend_c, 0, 0
2, 10640, Pitch_bend_c, 0, 0
2, 10752, Note_off_c, 0, 63, 0
2, 10752, Note_on_c, 0, 63, 100
2, 10752, Pitch_bend_c, 0, 15488
2, 10754, Pitch_bend_c, 0, 15488
2, 10756, Pitch_bend_c, 0, 14848
2, 10758, Pitch_bend_c, 0, 14848
2, 10760, Pitch_bend_c, 0, 14464
2, 10762, Pitch_bend_c, 0, 14208
2, 10764, Pitch_bend_c, 0, 13440
2, 10766, Pitch_bend_c, 0, 12800
2, 10800, Note_off_c, 0, 63, 0
2, 10800, Note_on_c, 0, 63, 100
2, 10800, Pitch_bend_c, 0, 8064
2, 10802, Pitch_bend_c, 0, 5376
2, 10804, Pitch_bend_c, 0, 4736
2, 10806, Pitch_bend_c, 0, 4736
2, 10808, Pitch_bend_c, 0, 3968
2, 10810, Pitch_bend_c, 0, 3712
2, 10812, Pitch_bend_c, 0, 3328
2, 10814, Pitch_bend_c, 0, 3328
2, 10816, Pitch_bend_c, 0, 2688
2, 10818, Pitch_bend_c, 0, 1920
2, 10820, Pitch_bend_c, 0, 1664
2, 10822, Pitch_bend_c, 0, 896
2, 10824, Pitch_bend_c, 0, 0
2, 10826, Pitch_bend_c, 0, 0
2, 10828, Pitch_bend_c, 0, 0
2, 10830, Pitch_bend_c, 0, 0
2, 10832, Pitch_bend_c, 0, 0
2, 10872, Note_off_c, 0, 63, 0
2, 10872, Note_on_c, 0, 57, 100
2, 10872, Pitch_bend_c, 0, 8064
2, 10896, Note_off_c, 0, 57, 0
2, 10896, Note_on_c, 0, 61, 100
2, 10908, Note_off_c, 0, 61, 0
2, 10908, Note_on_c, 0, 62, 100
2, 10920, Note_off_c, 0, 62, 0
2, 10920, Note_on_c, 0, 61, 100
2, 10944, Note_off_c, 0, 61, 0
2, 10944, Note_on_c, 0, 69, 100
2, 10946, Pitch_bend_c, 0, 8448
2, 11040, Note_off_c, 0, 69, 0
2, 11040, Note_on_c, 0, 68, 100
2, 11136, Note_off_c, 0, 68, 0
2, 11136, Note_on_c, 0, 66, 100
2, 11206, Pitch_bend_c, 0, 8064
2, 11208, Pitch_bend_c, 0, 8064
2, 11210, Pitch_bend_c, 0, 8448
2, 11212, Pitch_bend_c, 0, 8704
2, 11214, Pitch_bend_c, 0, 8704
2, 11216, Pitch_bend_c, 0, 9088
2, 11218, Pitch_bend_c, 0, 9472
2, 11220, Pitch_bend_c, 0, 9728
2, 11222, Pitch_bend_c, 0, 10112
2, 11224, Pitch_bend_c, 0, 10496
2, 11226, Pitch_bend_c, 0, 10752
2, 11228, Pitch_bend_c, 0, 11136
2, 11230, Pitch_bend_c, 0, 11392
2, 11232, Pitch_bend_c, 0, 11392
2, 11234, Pitch_bend_c, 0, 11776
2, 11236, Pitch_bend_c, 0, 13184
2, 11238, Pitch_bend_c, 0, 14208
2, 11240, Pitch_bend_c, 0, 16383
2, 11304, Pitch_bend_c, 0, 15872
2, 11308, Pitch_bend_c, 0, 13824
2, 11310, Pitch_bend_c, 0, 12800
2, 11312, Pitch_bend_c, 0, 13184
2, 11314, Pitch_bend_c, 0, 12800
2, 11316, Pitch_bend_c, 0, 12160
2, 11318, Pitch_bend_c, 0, 11776
2, 11320, Pitch_bend_c, 0, 11392
2, 11322, Pitch_bend_c, 0, 10752
2, 11324, Pitch_bend_c, 0, 10752
2, 11326, Pitch_bend_c, 0, 10112
2, 11328, Pitch_bend_c, 0, 9728
2, 11330, Pitch_bend_c, 0, 9472
2, 11332, Pitch_bend_c, 0, 9088
2, 11334, Pitch_bend_c, 0, 8704
2, 11336, Pitch_bend_c, 0, 8448
2, 11338, Pitch_bend_c, 0, 8064
2, 11340, Pitch_bend_c, 0, 8064
2, 11342, Pitch_bend_c, 0, 7424
2, 11344, Pitch_bend_c, 0, 7040
2, 11346, Pitch_bend_c, 0, 6656
2, 11348, Pitch_bend_c, 0, 5376
2, 11350, Pitch_bend_c, 0, 4992
2, 11352, Pitch_bend_c, 0, 4992
2, 11354, Pitch_bend_c, 0, 4736
2, 11356, Pitch_bend_c, 0, 4736
2, 11358, Pitch_bend_c, 0, 4352
2, 11360, Pitch_bend_c, 0, 3328
2, 11424, Note_off_c, 0, 66, 0
2, 11424, Pitch_bend_c, 0, 8064
2, 11424, Note_on_c, 0, 69, 100
2, 11448, Note_off_c, 0, 69, 0
2, 11448, Note_on_c, 0, 71, 100
2, 11496, Note_on_c, 0, 72, 100
2, 11508, Note_off_c, 0, 71, 0
2, 11544, Note_on_c, 0, 71, 100
2, 11568, Note_off_c, 0, 72, 0
2, 11592, Note_off_c, 0, 71, 0
2, 11592, Note_on_c, 0, 69, 100
2, 11640, Note_on_c, 0, 65, 100
2, 11664, Note_off_c, 0, 69, 0
2, 11712, Note_off_c, 0, 65, 0
2, 11712, Note_on_c, 0, 63, 100
2, 11712, Pitch_bend_c, 0, 15488
2, 11714, Pitch_bend_c, 0, 15488
2, 11716, Pitch_bend_c, 0, 14848
2, 11718, Pitch_bend_c, 0, 14848
2, 11720, Pitch_bend_c, 0, 14464
2, 11722, Pitch_bend_c, 0, 14208
2, 11724, Pitch_bend_c, 0, 13440
2, 11726, Pitch_bend_c, 0, 12800
2, 11760, Note_off_c, 0, 63, 0
2, 11760, Note_on_c, 0, 63, 100
2, 11760, Pitch_bend_c, 0, 8064
2, 11762, Pitch_bend_c, 0, 5376
2, 11764, Pitch_bend_c, 0, 4736
2, 11766, Pitch_bend_c, 0, 4736
2, 11768, Pitch_bend_c, 0, 3968
2, 11770, Pitch_bend_c, 0, 3712
2, 11772, Pitch_bend_c, 0, 3328
2, 11774, Pitch_bend_c, 0, 3328
2, 11776, Pitch_bend_c, 0, 2688
2, 11778, Pitch_bend_c, 0, 1920
2, 11780, Pitch_bend_c, 0, 1664
2, 11782, Pitch_bend_c, 0, 896
2, 11784, Pitch_bend_c, 0, 0
2, 11786, Pitch_bend_c, 0, 0
2, 11788, Pitch_bend_c, 0, 0
2, 11790, Pitch_bend_c, 0, 0
2, 11792, Pitch_bend_c, 0, 0
2, 11904, Note_off_c, 0, 63, 0
2, 11904, Note_on_c, 0, 63, 100
2, 11904, Pitch_bend_c, 0, 15488
2, 11906, Pitch_bend_c, 0, 15488
2, 11908, Pitch_bend_c, 0, 14848
2, 11910, Pitch_bend_c, 0, 14848
2, 11912, Pitch_bend_c, 0, 14464
2, 11914, Pitch_bend_c, 0, 14208
2, 11916, Pitch_bend_c, 0, 13440
2, 11918, Pitch_bend_c, 0, 12800
2, 11952, Note_off_c, 0, 63, 0
2, 11952, Note_on_c, 0, 63, 100
2, 11952, Pitch_bend_c, 0, 8064
2, 11954, Pitch_bend_c, 0, 5376
2, 11956, Pitch_bend_c, 0, 4736
2, 11958, Pitch_bend_c, 0, 4736
2, 11960, Pitch_bend_c, 0, 3968
2, 11962, Pitch_bend_c, 0, 3712
2, 11964, Pitch_bend_c, 0, 3328
2, 11966, Pitch_bend_c, 0, 3328
2, 11968, Pitch_bend_c, 0, 2688
2, 11970, Pitch_bend_c, 0, 1920
2, 11972, Pitch_bend_c, 0, 1664
2, 11974, Pitch_bend_c, 0, 896
2, 11976, Pitch_bend_c, 0, 0
2, 11978, Pitch_bend_c, 0, 0
2, 11980, Pitch_bend_c, 0, 0
2, 11982, Pitch_bend_c, 0, 0
2, 11984, Pitch_bend_c, 0, 0
2, 12090, Pitch_bend_c, 0, 8064
2, 12096, Note_off_c, 0, 63, 0
2, 12096, Note_on_c, 0, 47, 100
2, 12096, Note_on_c, 0, 54, 100
2, 12120, Note_off_c, 0, 47, 0
2, 12120, Note_off_c, 0, 54, 0
2, 12120, Note_on_c, 0, 47, 100
2, 12120, Note_on_c, 0, 54, 100
2, 12144, Note_off_c, 0, 47, 0
2, 12144, Note_off_c, 0, 54, 0
2, 12144, Note_on_c, 0, 47, 79
2, 12144, Note_on_c, 0, 54, 79
2, 12168, Note_off_c, 0, 47, 0
2, 12168, Note_off_c, 0, 54, 0
2, 12168, Note_on_c, 0, 47, 79
2, 12168, Note_on_c, 0, 54, 79
2, 12192, Note_off_c, 0, 47, 0
2, 12192, Note_off_c, 0, 54, 0
2, 12192, Note_on_c, 0, 47, 81
2, 12192, Note_on_c, 0, 54, 81
2, 12216, Note_off_c, 0, 47, 0
2, 12216, Note_off_c, 0, 54, 0
2, 12216, Note_on_c, 0, 47, 105
2, 12216, Note_on_c, 0, 54, 105
2, 12240, Note_off_c, 0, 47, 0
2, 12240, Note_off_c, 0, 54, 0
2, 12240, Note_on_c, 0, 47, 105
2, 12240, Note_on_c, 0, 54, 105
2, 12264, Note_off_c, 0, 47, 0
2, 12264, Note_off_c, 0, 54, 0
2, 12264, Note_on_c, 0, 47, 84
2, 12264, Note_on_c, 0, 54, 84
2, 12288, Note_off_c, 0, 47, 0
2, 12288, Note_off_c, 0, 54, 0
2, 12288, Note_on_c, 0, 42, 108
2, 12288, Note_on_c, 0, 49, 108
2, 12312, Note_off_c, 0, 42, 0
2, 12312, Note_off_c, 0, 49, 0
2, 12312, Note_on_c, 0, 42, 87
2, 12312, Note_on_c, 0, 49, 87
2, 12336, Note_off_c, 0, 42, 0
2, 12336, Note_off_c, 0, 49, 0
2, 12336, Note_on_c, 0, 42, 87
2, 12336, Note_on_c, 0, 49, 87
2, 12360, Note_off_c, 0, 42, 0
2, 12360, Note_off_c, 0, 49, 0
2, 12360, Note_on_c, 0, 42, 87
2, 12360, Note_on_c, 0, 49, 87
2, 12384, Note_off_c, 0, 42, 0
2, 12384, Note_off_c, 0, 49, 0
2, 12384, Note_on_c, 0, 42, 87
2, 12384, Note_on_c, 0, 49, 87
2, 12408, Note_off_c, 0, 42, 0
2, 12408, Note_off_c, 0, 49, 0
2, 12408, Note_on_c, 0, 42, 108
2, 12408, Note_on_c, 0, 49, 108
2, 12432, Note_off_c, 0, 42, 0
2, 12432, Note_off_c, 0, 49, 0
2, 12432, Note_on_c, 0, 42, 87
2, 12432, Note_on_c, 0, 49, 87
2, 12456, Note_off_c, 0, 42, 0
2, 12456, Note_off_c, 0, 49, 0
2, 12456, Note_on_c, 0, 42, 87
2, 12456, Note_on_c, 0, 49, 87
2, 12480, Note_off_c, 0, 42, 0
2, 12480, Note_off_c, 0, 49, 0
2, 12480, Note_on_c, 0, 40, 87
2, 12480, Note_on_c, 0, 47, 87
2, 12504, Note_off_c, 0, 40, 0
2, 12504, Note_off_c, 0, 47, 0
2, 12504, Note_on_c, 0, 40, 108
2, 12504, Note_on_c, 0, 47, 108
2, 12528, Note_off_c, 0, 40, 0
2, 12528, Note_off_c, 0, 47, 0
2, 12528, Note_on_c, 0, 40, 108
2, 12528, Note_on_c, 0, 47, 108
2, 12552, Note_off_c, 0, 40, 0
2, 12552, Note_off_c, 0, 47, 0
2, 12552, Note_on_c, 0, 40, 87
2, 12552, Note_on_c, 0, 47, 87
2, 12576, Note_off_c, 0, 40, 0
2, 12576, Note_off_c, 0, 47, 0
2, 12576, Note_on_c, 0, 40, 87
2, 12576, Note_on_c, 0, 47, 87
2, 12600, Note_off_c, 0, 40, 0
2, 12600, Note_off_c, 0, 47, 0
2, 12600, Note_on_c, 0, 40, 108
2, 12600, Note_on_c, 0, 47, 108
2, 12624, Note_off_c, 0, 40, 0
2, 12624, Note_off_c, 0, 47, 0
2, 12624, Note_on_c, 0, 40, 87
2, 12624, Note_on_c, 0, 47, 87
2, 12648, Note_off_c, 0, 40, 0
2, 12648, Note_off_c, 0, 47, 0
2, 12648, Note_on_c, 0, 40, 108
2, 12648, Note_on_c, 0, 47, 108
2, 12672, Note_off_c, 0, 40, 0
2, 12672, Note_off_c, 0, 47, 0
2, 12672, Note_on_c, 0, 40, 87
2, 12672, Note_on_c, 0, 47, 87
2, 12696, Note_off_c, 0, 40, 0
2, 12696, Note_off_c, 0, 47, 0
2, 12696, Note_on_c, 0, 40, 87
2, 12696, Note_on_c, 0, 47, 87
2, 12720, Note_off_c, 0, 40, 0
2, 12720, Note_off_c, 0, 47, 0
2, 12720, Note_on_c, 0, 40, 87
2, 12720, Note_on_c, 0, 47, 87
2, 12744, Note_off_c, 0, 40, 0
2, 12744, Note_off_c, 0, 47, 0
2, 12744, Note_on_c, 0, 40, 81
2, 12744, Note_on_c, 0, 47, 81
2, 12768, Note_off_c, 0, 40, 0
2, 12768, Note_off_c, 0, 47, 0
2, 12768, Note_on_c, 0, 40, 81
2, 12768, Note_on_c, 0, 47, 81
2, 12792, Note_off_c, 0, 40, 0
2, 12792, Note_off_c, 0, 47, 0
2, 12792, Note_on_c, 0, 40, 103
2, 12792, Note_on_c, 0, 47, 103
2, 12816, Note_off_c, 0, 40, 0
2, 12816, Note_off_c, 0, 47, 0
2, 12816, Note_on_c, 0, 40, 84
2, 12816, Note_on_c, 0, 47, 84
2, 12840, Note_off_c, 0, 40, 0
2, 12840, Note_off_c, 0, 47, 0
2, 12840, Note_on_c, 0, 40, 84
2, 12840, Note_on_c, 0, 47, 84
2, 12864, Note_off_c, 0, 40, 0
2, 12864, Note_off_c, 0, 47, 0
2, 12864, Note_on_c, 0, 45, 100
2, 12864, Note_on_c, 0, 52, 100
2, 12888, Note_off_c, 0, 45, 0
2, 12888, Note_off_c, 0, 52, 0
2, 12888, Note_on_c, 0, 45, 100
2, 12888, Note_on_c, 0, 52, 100
2, 12912, Note_off_c, 0, 45, 0
2, 12912, Note_off_c, 0, 52, 0
2, 12912, Note_on_c, 0, 45, 100
2, 12912, Note_on_c, 0, 52, 100
2, 12936, Note_off_c, 0, 45, 0
2, 12936, Note_off_c, 0, 52, 0
2, 12936, Note_on_c, 0, 45, 100
2, 12936, Note_on_c, 0, 52, 100
2, 12948, Note_on_c, 0, 57, 68
2, 12948, Note_on_c, 0, 64, 68
2, 12948, Note_on_c, 0, 69, 68
2, 12960, Note_off_c, 0, 45, 0
2, 12960, Note_off_c, 0, 52, 0
2, 12960, Note_on_c, 0, 45, 100
2, 12960, Note_on_c, 0, 52, 100
2, 12984, Note_off_c, 0, 45, 0
2, 12984, Note_off_c, 0, 52, 0
2, 12984, Note_on_c, 0, 45, 100
2, 12984, Note_on_c, 0, 52, 100
2, 13008, Note_off_c, 0, 45, 0
2, 13008, Note_off_c, 0, 52, 0
2, 13008, Note_on_c, 0, 45, 100
2, 13008, Note_on_c, 0, 52, 100
2, 13032, Note_off_c, 0, 45, 0
2, 13032, Note_off_c, 0, 52, 0
2, 13032, Note_on_c, 0, 45, 100
2, 13032, Note_on_c, 0, 52, 100
2, 13056, Note_off_c, 0, 57, 0
2, 13056, Note_off_c, 0, 64, 0
2, 13056, Note_off_c, 0, 69, 0
2, 13056, Note_off_c, 0, 45, 0
2, 13056, Note_off_c, 0, 52, 0
2, 13056, Note_on_c, 0, 45, 100
2, 13056, Note_on_c, 0, 52, 100
2, 13080, Note_off_c, 0, 45, 0
2, 13080, Note_off_c, 0, 52, 0
2, 13080, Note_on_c, 0, 45, 100
2, 13080, Note_on_c, 0, 52, 100
2, 13104, Note_off_c, 0, 45, 0
2, 13104, Note_off_c, 0, 52, 0
2, 13104, Note_on_c, 0, 45, 100
2, 13104, Note_on_c, 0, 52, 100
2, 13128, Note_off_c, 0, 45, 0
2, 13128, Note_off_c, 0, 52, 0
2, 13128, Note_on_c, 0, 45, 100
2, 13128, Note_on_c, 0, 52, 100
2, 13140, Note_on_c, 0, 57, 76
2, 13140, Note_on_c, 0, 64, 76
2, 13140, Note_on_c, 0, 69, 76
2, 13152, Note_off_c, 0, 45, 0
2, 13152, Note_off_c, 0, 52, 0
2, 13152, Note_on_c, 0, 45, 100
2, 13152, Note_on_c, 0, 52, 100
2, 13176, Note_off_c, 0, 45, 0
2, 13176, Note_off_c, 0, 52, 0
2, 13176, Note_on_c, 0, 45, 100
2, 13176, Note_on_c, 0, 52, 100
2, 13200, Note_off_c, 0, 45, 0
2, 13200, Note_off_c, 0, 52, 0
2, 13200, Note_on_c, 0, 45, 100
2, 13200, Note_on_c, 0, 52, 100
2, 13224, Note_off_c, 0, 45, 0
2, 13224, Note_off_c, 0, 52, 0
2, 13224, Note_on_c, 0, 45, 100
2, 13224, Note_on_c, 0, 52, 100
2, 13248, Note_off_c, 0, 57, 0
2, 13248, Note_off_c, 0, 64, 0
2, 13248, Note_off_c, 0, 69, 0
2, 13248, Note_off_c, 0, 45, 0
2, 13248, Note_off_c, 0, 52, 0
2, 13248, Note_on_c, 0, 47, 100
2, 13248, Note_on_c, 0, 54, 100
2, 13272, Note_off_c, 0, 47, 0
2, 13272, Note_off_c, 0, 54, 0
2, 13272, Note_on_c, 0, 47, 100
2, 13272, Note_on_c, 0, 54, 100
2, 13296, Note_off_c, 0, 47, 0
2, 13296, Note_off_c, 0, 54, 0
2, 13296, Note_on_c, 0, 47, 79
2, 13296, Note_on_c, 0, 54, 79
2, 13320, Note_off_c, 0, 47, 0
2, 13320, Note_off_c, 0, 54, 0
2, 13320, Note_on_c, 0, 47, 79
2, 13320, Note_on_c, 0, 54, 79
2, 13344, Note_off_c, 0, 47, 0
2, 13344, Note_off_c, 0, 54, 0
2, 13344, Note_on_c, 0, 47, 81
2, 13344, Note_on_c, 0, 54, 81
2, 13368, Note_off_c, 0, 47, 0
2, 13368, Note_off_c, 0, 54, 0
2, 13368, Note_on_c, 0, 47, 105
2, 13368, Note_on_c, 0, 54, 105
2, 13392, Note_off_c, 0, 47, 0
2, 13392, Note_off_c, 0, 54, 0
2, 13392, Note_on_c, 0, 47, 105
2, 13392, Note_on_c, 0, 54, 105
2, 13416, Note_off_c, 0, 47, 0
2, 13416, Note_off_c, 0, 54, 0
2, 13416, Note_on_c, 0, 47, 84
2, 13416, Note_on_c, 0, 54, 84
2, 13440, Note_off_c, 0, 47, 0
2, 13440, Note_off_c, 0, 54, 0
2, 13440, Note_on_c, 0, 42, 108
2, 13440, Note_on_c, 0, 49, 108
2, 13464, Note_off_c, 0, 42, 0
2, 13464, Note_off_c, 0, 49, 0
2, 13464, Note_on_c, 0, 42, 87
2, 13464, Note_on_c, 0, 49, 87
2, 13488, Note_off_c, 0, 42, 0
2, 13488, Note_off_c, 0, 49, 0
2, 13488, Note_on_c, 0, 42, 87
2, 13488, Note_on_c, 0, 49, 87
2, 13512, Note_off_c, 0, 42, 0
2, 13512, Note_off_c, 0, 49, 0
2, 13512, Note_on_c, 0, 42, 87
2, 13512, Note_on_c, 0, 49, 87
2, 13536, Note_off_c, 0, 42, 0
2, 13536, Note_off_c, 0, 49, 0
2, 13536, Note_on_c, 0, 42, 87
2, 13536, Note_on_c, 0, 49, 87
2, 13560, Note_off_c, 0, 42, 0
2, 13560, Note_off_c, 0, 49, 0
2, 13560, Note_on_c, 0, 42, 108
2, 13560, Note_on_c, 0, 49, 108
2, 13584, Note_off_c, 0, 42, 0
2, 13584, Note_off_c, 0, 49, 0
2, 13584, Note_on_c, 0, 42, 87
2, 13584, Note_on_c, 0, 49, 87
2, 13608, Note_off_c, 0, 42, 0
2, 13608, Note_off_c, 0, 49, 0
2, 13608, Note_on_c, 0, 42, 87
2, 13608, Note_on_c, 0, 49, 87
2, 13632, Note_off_c, 0, 42, 0
2, 13632, Note_off_c, 0, 49, 0
2, 13632, Note_on_c, 0, 40, 87
2, 13632, Note_on_c, 0, 47, 87
2, 13656, Note_off_c, 0, 40, 0
2, 13656, Note_off_c, 0, 47, 0
2, 13656, Note_on_c, 0, 40, 108
2, 13656, Note_on_c, 0, 47, 108
2, 13680, Note_off_c, 0, 40, 0
2, 13680, Note_off_c, 0, 47, 0
2, 13680, Note_on_c, 0, 40, 108
2, 13680, Note_on_c, 0, 47, 108
2, 13704, Note_off_c, 0, 40, 0
2, 13704, Note_off_c, 0, 47, 0
2, 13704, Note_on_c, 0, 40, 87
2, 13704, Note_on_c, 0, 47, 87
2, 13728, Note_off_c, 0, 40, 0
2, 13728, Note_off_c, 0, 47, 0
2, 13728, Note_on_c, 0, 40, 87
2, 13728, Note_on_c, 0, 47, 87
2, 13752, Note_off_c, 0, 40, 0
2, 13752, Note_off_c, 0, 47, 0
2, 13752, Note_on_c, 0, 40, 108
2, 13752, Note_on_c, 0, 47, 108
2, 13776, Note_off_c, 0, 40, 0
2, 13776, Note_off_c, 0, 47, 0
2, 13776, Note_on_c, 0, 40, 87
2, 13776, Note_on_c, 0, 47, 87
2, 13800, Note_off_c, 0, 40, 0
2, 13800, Note_off_c, 0, 47, 0
2, 13800, Note_on_c, 0, 40, 108
2, 13800, Note_on_c, 0, 47, 108
2, 13824, Note_off_c, 0, 40, 0
2, 13824, Note_off_c, 0, 47, 0
2, 13824, Note_on_c, 0, 40, 87
2, 13824, Note_on_c, 0, 47, 87
2, 13848, Note_off_c, 0, 40, 0
2, 13848, Note_off_c, 0, 47, 0
2, 13848, Note_on_c, 0, 40, 87
2, 13848, Note_on_c, 0, 47, 87
2, 13872, Note_off_c, 0, 40, 0
2, 13872, Note_off_c, 0, 47, 0
2, 13872, Note_on_c, 0, 40, 87
2, 13872, Note_on_c, 0, 47, 87
2, 13896, Note_off_c, 0, 40, 0
2, 13896, Note_off_c, 0, 47, 0
2, 13896, Note_on_c, 0, 40, 81
2, 13896, Note_on_c, 0, 47, 81
2, 13920, Note_off_c, 0, 40, 0
2, 13920, Note_off_c, 0, 47, 0
2, 13920, Note_on_c, 0, 40, 81
2, 13920, Note_on_c, 0, 47, 81
2, 13944, Note_off_c, 0, 40, 0
2, 13944, Note_off_c, 0, 47, 0
2, 13944, Note_on_c, 0, 40, 103
2, 13944, Note_on_c, 0, 47, 103
2, 13968, Note_off_c, 0, 40, 0
2, 13968, Note_off_c, 0, 47, 0
2, 13968, Note_on_c, 0, 40, 84
2, 13968, Note_on_c, 0, 47, 84
2, 13992, Note_off_c, 0, 40, 0
2, 13992, Note_off_c, 0, 47, 0
2, 13992, Note_on_c, 0, 40, 84
2, 13992, Note_on_c, 0, 47, 84
2, 14016, Note_off_c, 0, 40, 0
2, 14016, Note_off_c, 0, 47, 0
2, 14016, Note_on_c, 0, 45, 100
2, 14016, Note_on_c, 0, 52, 100
2, 14304, Note_off_c, 0, 45, 0
2, 14304, Note_off_c, 0, 52, 0
2, 14340, Control_c, 0, 7, 5
2, 14342, Control_c, 0, 7, 15
2, 14344, Control_c, 0, 7, 18
2, 14346, Control_c, 0, 7, 21
2, 14348, Control_c, 0, 7, 21
2, 14350, Control_c, 0, 7, 26
2, 14352, Control_c, 0, 7, 29
2, 14352, Note_on_c, 0, 64, 100
2, 14354, Control_c, 0, 7, 31
2, 14356, Control_c, 0, 7, 39
2, 14358, Control_c, 0, 7, 47
2, 14360, Control_c, 0, 7, 50
2, 14362, Control_c, 0, 7, 52
2, 14364, Control_c, 0, 7, 58
2, 14366, Control_c, 0, 7, 66
2, 14368, Control_c, 0, 7, 71
2, 14370, Control_c, 0, 7, 74
2, 14372, Control_c, 0, 7, 79
2, 14448, Note_off_c, 0, 64, 0
2, 14448, Note_on_c, 0, 64, 100
2, 14478, Control_c, 0, 10, 238
2, 14479, Control_c, 0, 10, 238
2, 14481, Control_c, 0, 10, 238
2, 14482, Control_c, 0, 10, 238
2, 14484, Control_c, 0, 10, 0
2, 14485, Control_c, 0, 10, 0
2, 14487, Control_c, 0, 10, 113
2, 14488, Control_c, 0, 10, 113
2, 14490, Control_c, 0, 10, 100
2, 14491, Control_c, 0, 10, 100
2, 14493, Control_c, 0, 10, 238
2, 14494, Control_c, 0, 10, 238
2, 14496, Note_off_c, 0, 64, 0
2, 14496, Control_c, 0, 10, 238
2, 14496, Note_on_c, 0, 82, 100
2, 14497, Control_c, 0, 10, 238
2, 14499, Control_c, 0, 10, 238
2, 14500, Control_c, 0, 10, 238
2, 14502, Control_c, 0, 10, 238
2, 14503, Control_c, 0, 10, 238
2, 14505, Control_c, 0, 10, 238
2, 14506, Control_c, 0, 10, 238
2, 14508, Control_c, 0, 10, 0
2, 14509, Control_c, 0, 10, 0
2, 14511, Control_c, 0, 10, 113
2, 14512, Control_c, 0, 10, 113
2, 14514, Control_c, 0, 10, 113
2, 14515, Control_c, 0, 10, 113
2, 14517, Control_c, 0, 10, 238
2, 14518, Control_c, 0, 10, 238
2, 14520, Control_c, 0, 10, 87
2, 14520, Note_on_c, 0, 36, 100
2, 14521, Control_c, 0, 10, 87
2, 14523, Control_c, 0, 10, 68
2, 14524, Control_c, 0, 10, 68
2, 14526, Control_c, 0, 10, 68
2, 14527, Control_c, 0, 10, 68
2, 14529, Control_c, 0, 10, 68
2, 14530, Control_c, 0, 10, 68
2, 14532, Control_c, 0, 10, 68
2, 14533, Control_c, 0, 10, 68
2, 14535, Control_c, 0, 10, 68
2, 14536, Control_c, 0, 10, 68
2, 14538, Control_c, 0, 10, 71
2, 14539, Control_c, 0, 10, 71
2, 14541, Control_c, 0, 10, 71
2, 14542, Control_c, 0, 10, 71
2, 14544, Control_c, 0, 10, 71
2, 14544, Note_on_c, 0, 66, 100
2, 14545, Control_c, 0, 10, 71
2, 14547, Control_c, 0, 10, 92
2, 14548, Control_c, 0, 10, 92
2, 14550, Control_c, 0, 10, 73
2, 14551, Control_c, 0, 10, 73
2, 14553, Control_c, 0, 10, 73
2, 14554, Control_c, 0, 10, 73
2, 14556, Control_c, 0, 10, 76
2, 14556, Note_on_c, 0, 68, 100
2, 14557, Control_c, 0, 10, 76
2, 14559, Control_c, 0, 10, 76
2, 14560, Control_c, 0, 10, 76
2, 14562, Control_c, 0, 10, 76
2, 14563, Control_c, 0, 10, 76
2, 14565, Control_c, 0, 10, 79
2, 14566, Control_c, 0, 10, 79
2, 14568, Control_c, 0, 10, 79
2, 14569, Control_c, 0, 10, 79
2, 14571, Control_c, 0, 10, 81
2, 14572, Control_c, 0, 10, 81
2, 14574, Control_c, 0, 10, 81
2, 14575, Control_c, 0, 10, 81
2, 14577, Control_c, 0, 10, 81
2, 14578, Control_c, 0, 10, 81
2, 14580, Control_c, 0, 10, 84
2, 14581, Control_c, 0, 10, 84
2, 14583, Control_c, 0, 10, 84
2, 14584, Control_c, 0, 10, 84
2, 14586, Control_c, 0, 10, 87
2, 14587, Control_c, 0, 10, 87
2, 14589, Control_c, 0, 10, 108
2, 14589, Pitch_bend_c, 0, 10752
2, 14590, Control_c, 0, 10, 108
2, 14590, Pitch_bend_c, 0, 11136
2, 14592, Control_c, 0, 10, 238
2, 14592, Pitch_bend_c, 0, 16383
2, 14593, Control_c, 0, 10, 238
2, 14593, Pitch_bend_c, 0, 16383
2, 14595, Control_c, 0, 10, 238
2, 14595, Pitch_bend_c, 0, 16383
2, 14596, Control_c, 0, 10, 238
2, 14596, Pitch_bend_c, 0, 16383
2, 14598, Control_c, 0, 10, 84
2, 14598, Pitch_bend_c, 0, 16383
2, 14599, Control_c, 0, 10, 84
2, 14599, Pitch_bend_c, 0, 16383
2, 14601, Control_c, 0, 10, 63
2, 14601, Pitch_bend_c, 0, 16383
2, 14602, Control_c, 0, 10, 63
2, 14602, Pitch_bend_c, 0, 16383
2, 14604, Control_c, 0, 10, 63
2, 14604, Pitch_bend_c, 0, 16383
2, 14605, Control_c, 0, 10, 63
2, 14605, Pitch_bend_c, 0, 16383
2, 14607, Control_c, 0, 10, 63
2, 14607, Pitch_bend_c, 0, 16383
2, 14608, Control_c, 0, 10, 63
2, 14608, Pitch_bend_c, 0, 16383
2, 14610, Control_c, 0, 10, 63
2, 14610, Pitch_bend_c, 0, 16383
2, 14611, Control_c, 0, 10, 63
2, 14611, Pitch_bend_c, 0, 16383
2, 14613, Control_c, 0, 10, 63
2, 14613, Pitch_bend_c, 0, 16383
2, 14614, Control_c, 0, 10, 63
2, 14614, Pitch_bend_c, 0, 16383
2, 14616, Control_c, 0, 10, 63
2, 14616, Pitch_bend_c, 0, 15232
2, 14617, Control_c, 0, 10, 63
2, 14617, Pitch_bend_c, 0, 11136
2, 14619, Control_c, 0, 10, 63
2, 14619, Pitch_bend_c, 0, 9088
2, 14620, Control_c, 0, 10, 63
2, 14620, Pitch_bend_c, 0, 7040
2, 14622, Control_c, 0, 10, 63
2, 14622, Pitch_bend_c, 0, 6656
2, 14623, Control_c, 0, 10, 63
2, 14623, Pitch_bend_c, 0, 4736
2, 14625, Control_c, 0, 10, 63
2, 14625, Pitch_bend_c, 0, 3968
2, 14626, Control_c, 0, 10, 63
2, 14626, Pitch_bend_c, 0, 2944
2, 14628, Control_c, 0, 10, 63
2, 14628, Pitch_bend_c, 0, 2304
2, 14629, Control_c, 0, 10, 63
2, 14629, Pitch_bend_c, 0, 16383
2, 14631, Control_c, 0, 10, 63
2, 14631, Pitch_bend_c, 0, 16383
2, 14632, Control_c, 0, 10, 63
2, 14632, Pitch_bend_c, 0, 16383
2, 14634, Control_c, 0, 10, 63
2, 14634, Pitch_bend_c, 0, 16383
2, 14635, Control_c, 0, 10, 63
2, 14635, Pitch_bend_c, 0, 16383
2, 14637, Control_c, 0, 10, 63
2, 14637, Pitch_bend_c, 0, 1920
2, 14638, Control_c, 0, 10, 63
2, 14638, Pitch_bend_c, 0, 16383
2, 14640, Control_c, 0, 10, 63
2, 14640, Pitch_bend_c, 0, 1664
2, 14641, Control_c, 0, 10, 63
2, 14641, Pitch_bend_c, 0, 16383
2, 14643, Control_c, 0, 10, 63
2, 14643, Pitch_bend_c, 0, 16383
2, 14644, Control_c, 0, 10, 63
2, 14644, Pitch_bend_c, 0, 16383
2, 14646, Control_c, 0, 10, 63
2, 14646, Pitch_bend_c, 0, 16383
2, 14647, Control_c, 0, 10, 63
2, 14647, Pitch_bend_c, 0, 16383
2, 14649, Control_c, 0, 10, 63
2, 14649, Pitch_bend_c, 0, 896
2, 14650, Control_c, 0, 10, 63
2, 14650, Pitch_bend_c, 0, 16383
2, 14652, Control_c, 0, 10, 63
2, 14652, Pitch_bend_c, 0, 256
2, 14653, Control_c, 0, 10, 63
2, 14653, Pitch_bend_c, 0, 256
2, 14655, Control_c, 0, 10, 63
2, 14655, Pitch_bend_c, 0, 2304
2, 14656, Control_c, 0, 10, 63
2, 14656, Pitch_bend_c, 0, 2944
2, 14658, Control_c, 0, 10, 63
2, 14658, Pitch_bend_c, 0, 16383
2, 14659, Control_c, 0, 10, 63
2, 14659, Pitch_bend_c, 0, 3328
2, 14661, Control_c, 0, 10, 63
2, 14661, Pitch_bend_c, 0, 3712
2, 14662, Control_c, 0, 10, 63
2, 14662, Pitch_bend_c, 0, 16383
2, 14664, Control_c, 0, 10, 63
2, 14664, Pitch_bend_c, 0, 3968
2, 14665, Control_c, 0, 10, 63
2, 14665, Pitch_bend_c, 0, 16383
2, 14667, Control_c, 0, 10, 63
2, 14667, Pitch_bend_c, 0, 16383
2, 14668, Control_c, 0, 10, 63
2, 14668, Pitch_bend_c, 0, 16383
2, 14670, Control_c, 0, 10, 63
2, 14670, Pitch_bend_c, 0, 16383
2, 14671, Control_c, 0, 10, 63
2, 14671, Pitch_bend_c, 0, 16383
2, 14673, Control_c, 0, 10, 63
2, 14673, Pitch_bend_c, 0, 4352
2, 14674, Control_c, 0, 10, 63
2, 14674, Pitch_bend_c, 0, 16383
2, 14676, Control_c, 0, 10, 87
2, 14676, Pitch_bend_c, 0, 16383
2, 14677, Control_c, 0, 10, 87
2, 14677, Pitch_bend_c, 0, 16383
2, 14679, Control_c, 0, 10, 87
2, 14679, Pitch_bend_c, 0, 16383
2, 14680, Control_c, 0, 10, 87
2, 14680, Pitch_bend_c, 0, 16383
2, 14682, Control_c, 0, 10, 87
2, 14682, Pitch_bend_c, 0, 4736
2, 14683, Control_c, 0, 10, 87
2, 14683, Pitch_bend_c, 0, 16383
2, 14685, Control_c, 0, 10, 87
2, 14685, Pitch_bend_c, 0, 16383
2, 14686, Control_c, 0, 10, 87
2, 14686, Pitch_bend_c, 0, 16383
2, 14688, Note_off_c, 0, 82, 0
2, 14688, Control_c, 0, 10, 87
2, 14688, Pitch_bend_c, 0, 16383
2, 14689, Control_c, 0, 10, 87
2, 14689, Pitch_bend_c, 0, 16383
2, 14691, Control_c, 0, 10, 87
2, 14691, Pitch_bend_c, 0, 4992
2, 14692, Control_c, 0, 10, 87
2, 14692, Pitch_bend_c, 0, 4992
2, 14694, Control_c, 0, 10, 87
2, 14694, Pitch_bend_c, 0, 16383
2, 14695, Control_c, 0, 10, 87
2, 14695, Pitch_bend_c, 0, 16383
2, 14697, Control_c, 0, 10, 87
2, 14697, Pitch_bend_c, 0, 16383
2, 14698, Control_c, 0, 10, 87
2, 14698, Pitch_bend_c, 0, 16383
2, 14700, Note_off_c, 0, 36, 0
2, 14700, Control_c, 0, 10, 87
2, 14700, Pitch_bend_c, 0, 16383
2, 14701, Control_c, 0, 10, 87
2, 14701, Pitch_bend_c, 0, 4992
2, 14703, Control_c, 0, 10, 87
2, 14703, Pitch_bend_c, 0, 16383
2, 14704, Control_c, 0, 10, 87
2, 14704, Pitch_bend_c, 0, 5376
2, 14706, Control_c, 0, 10, 87
2, 14706, Pitch_bend_c, 0, 16383
2, 14707, Control_c, 0, 10, 87
2, 14707, Pitch_bend_c, 0, 5632
2, 14709, Control_c, 0, 10, 87
2, 14709, Pitch_bend_c, 0, 5632
2, 14710, Control_c, 0, 10, 87
2, 14710, Pitch_bend_c, 0, 16383
2, 14712, Control_c, 0, 10, 87
2, 14712, Pitch_bend_c, 0, 16383
2, 14713, Control_c, 0, 10, 87
2, 14713, Pitch_bend_c, 0, 16383
2, 14715, Control_c, 0, 10, 87
2, 14715, Pitch_bend_c, 0, 16383
2, 14716, Control_c, 0, 10, 87
2, 14716, Pitch_bend_c, 0, 16383
2, 14718, Control_c, 0, 10, 87
2, 14718, Pitch_bend_c, 0, 5632
2, 14719, Control_c, 0, 10, 87
2, 14719, Pitch_bend_c, 0, 16383
2, 14721, Control_c, 0, 10, 87
2, 14721, Pitch_bend_c, 0, 6016
2, 14722, Control_c, 0, 10, 87
2, 14722, Pitch_bend_c, 0, 16383
2, 14724, Control_c, 0, 10, 87
2, 14724, Pitch_bend_c, 0, 16383
2, 14725, Control_c, 0, 10, 87
2, 14725, Pitch_bend_c, 0, 16383
2, 14727, Control_c, 0, 10, 108
2, 14727, Pitch_bend_c, 0, 16383
2, 14728, Control_c, 0, 10, 108
2, 14728, Pitch_bend_c, 0, 16383
2, 14730, Control_c, 0, 10, 95
2, 14730, Pitch_bend_c, 0, 6656
2, 14731, Control_c, 0, 10, 95
2, 14731, Pitch_bend_c, 0, 16383
2, 14733, Control_c, 0, 10, 95
2, 14733, Pitch_bend_c, 0, 16383
2, 14734, Control_c, 0, 10, 95
2, 14734, Pitch_bend_c, 0, 16383
2, 14736, Control_c, 0, 10, 113
2, 14736, Pitch_bend_c, 0, 16383
2, 14737, Control_c, 0, 10, 113
2, 14737, Pitch_bend_c, 0, 16383
2, 14739, Control_c, 0, 10, 92
2, 14739, Pitch_bend_c, 0, 8704
2, 14740, Control_c, 0, 10, 92
2, 14740, Pitch_bend_c, 0, 16383
2, 14742, Control_c, 0, 10, 92
2, 14742, Pitch_bend_c, 0, 9472
2, 14743, Control_c, 0, 10, 92
2, 14743, Pitch_bend_c, 0, 9472
2, 14745, Control_c, 0, 10, 113
2, 14745, Pitch_bend_c, 0, 9472
2, 14746, Control_c, 0, 10, 113
2, 14746, Pitch_bend_c, 0, 9472
2, 14748, Control_c, 0, 10, 113
2, 14748, Pitch_bend_c, 0, 16383
2, 14749, Control_c, 0, 10, 113
2, 14749, Pitch_bend_c, 0, 9472
2, 14751, Control_c, 0, 10, 238
2, 14751, Pitch_bend_c, 0, 16383
2, 14752, Control_c, 0, 10, 238
2, 14752, Pitch_bend_c, 0, 16383
2, 14754, Control_c, 0, 10, 238
2, 14754, Pitch_bend_c, 0, 16383
2, 14755, Control_c, 0, 10, 238
2, 14755, Pitch_bend_c, 0, 16383
2, 14757, Control_c, 0, 10, 0
2, 14757, Pitch_bend_c, 0, 16383
2, 14758, Control_c, 0, 10, 0
2, 14758, Pitch_bend_c, 0, 9472
2, 14760, Control_c, 0, 10, 238
2, 14760, Pitch_bend_c, 0, 16383
2, 14761, Control_c, 0, 10, 238
2, 14761, Pitch_bend_c, 0, 16383
2, 14763, Control_c, 0, 10, 238
2, 14763, Pitch_bend_c, 0, 16383
2, 14764, Control_c, 0, 10, 238
2, 14764, Pitch_bend_c, 0, 16383
2, 14766, Control_c, 0, 10, 238
2, 14766, Pitch_bend_c, 0, 16383
2, 14767, Control_c, 0, 10, 238
2, 14767, Pitch_bend_c, 0, 16383
2, 14769, Control_c, 0, 10, 238
2, 14769, Pitch_bend_c, 0, 16383
2, 14770, Control_c, 0, 10, 238
2, 14770, Pitch_bend_c, 0, 9472
2, 14772, Control_c, 0, 10, 0
2, 14772, Pitch_bend_c, 0, 16383
2, 14773, Control_c, 0, 10, 0
2, 14773, Pitch_bend_c, 0, 16383
2, 14775, Control_c, 0, 10, 116
2, 14775, Pitch_bend_c, 0, 16383
2, 14776, Control_c, 0, 10, 116
2, 14776, Pitch_bend_c, 0, 16383
2, 14778, Control_c, 0, 10, 95
2, 14778, Pitch_bend_c, 0, 16383
2, 14779, Control_c, 0, 10, 95
2, 14779, Pitch_bend_c, 0, 8704
2, 14781, Control_c, 0, 10, 95
2, 14781, Pitch_bend_c, 0, 16383
2, 14782, Control_c, 0, 10, 95
2, 14782, Pitch_bend_c, 0, 8064
2, 14784, Control_c, 0, 10, 95
2, 14784, Pitch_bend_c, 0, 16383
2, 14785, Control_c, 0, 10, 95
2, 14785, Pitch_bend_c, 0, 7424
2, 14787, Control_c, 0, 10, 95
2, 14787, Pitch_bend_c, 0, 6656
2, 14788, Control_c, 0, 10, 95
2, 14788, Pitch_bend_c, 0, 6656
2, 14790, Control_c, 0, 10, 95
2, 14790, Pitch_bend_c, 0, 6656
2, 14791, Control_c, 0, 10, 95
2, 14791, Pitch_bend_c, 0, 5376
2, 14793, Control_c, 0, 10, 116
2, 14793, Pitch_bend_c, 0, 4992
2, 14794, Control_c, 0, 10, 116
2, 14794, Pitch_bend_c, 0, 4736
2, 14796, Control_c, 0, 10, 238
2, 14796, Pitch_bend_c, 0, 3712
2, 14797, Control_c, 0, 10, 238
2, 14797, Pitch_bend_c, 0, 3328
2, 14799, Control_c, 0, 10, 238
2, 14799, Pitch_bend_c, 0, 2944
2, 14800, Control_c, 0, 10, 238
2, 14800, Pitch_bend_c, 0, 2944
2, 14802, Control_c, 0, 10, 238
2, 14802, Pitch_bend_c, 0, 896
2, 14803, Control_c, 0, 10, 238
2, 14803, Pitch_bend_c, 0, 1920
2, 14805, Control_c, 0, 10, 0
2, 14806, Control_c, 0, 10, 0
2, 14808, Note_off_c, 0, 66, 0
2, 14808, Note_off_c, 0, 68, 0
2, 14808, Control_c, 0, 10, 113
2, 14809, Control_c, 0, 10, 113
2, 14811, Control_c, 0, 10, 113
2, 14812, Control_c, 0, 10, 113
2, 14814, Control_c, 0, 10, 92
2, 14815, Control_c, 0, 10, 92
2, 14817, Control_c, 0, 10, 113
2, 14818, Control_c, 0, 10, 113
2, 14820, Control_c, 0, 10, 92
2, 14821, Control_c, 0, 10, 92
2, 14823, Control_c, 0, 10, 111
2, 14824, Control_c, 0, 10, 111
2, 14826, Control_c, 0, 10, 92
2, 14827, Control_c, 0, 10, 92
2, 14829, Control_c, 0, 10, 92
2, 14830, Control_c, 0, 10, 92
2, 14832, Control_c, 0, 10, 92
2, 14833, Control_c, 0, 10, 92
2, 14835, Control_c, 0, 10, 95
2, 14836, Control_c, 0, 10, 95
2, 14838, Control_c, 0, 10, 95
2, 14839, Control_c, 0, 10, 95
2, 14841, Control_c, 0, 10, 95
2, 14842, Control_c, 0, 10, 95
2, 14844, Control_c, 0, 10, 95
2, 14845, Control_c, 0, 10, 95
2, 14847, Control_c, 0, 10, 116
2, 14848, Control_c, 0, 10, 116
2, 14850, Control_c, 0, 10, 238
2, 14851, Control_c, 0, 10, 238
2, 14853, Control_c, 0, 10, 238
2, 14854, Control_c, 0, 10, 238
2, 14856, Control_c, 0, 10, 111
2, 14857, Control_c, 0, 10, 111
2, 14859, Control_c, 0, 10, 238
2, 14860, Control_c, 0, 10, 238
2, 14862, Control_c, 0, 10, 238
2, 14863, Control_c, 0, 10, 238
2, 14865, Control_c, 0, 10, 238
2, 14866, Control_c, 0, 10, 238
2, 14868, Control_c, 0, 10, 238
2, 14869, Control_c, 0, 10, 238
2, 14871, Control_c, 0, 10, 0
2, 14872, Control_c, 0, 10, 0
2, 14874, Control_c, 0, 10, 238
2, 14875, Control_c, 0, 10, 238
2, 14877, Control_c, 0, 10, 238
2, 14878, Control_c, 0, 10, 238
2, 14880, Control_c, 0, 10, 238
2, 14881, Control_c, 0, 10, 238
2, 14883, Control_c, 0, 10, 0
2, 14884, Control_c, 0, 10, 0
2, 14886, Control_c, 0, 10, 235
2, 14887, Control_c, 0, 10, 235
2, 14889, Control_c, 0, 10, 235
2, 14890, Control_c, 0, 10, 235
2, 14892, Control_c, 0, 10, 0
2, 14893, Control_c, 0, 10, 0
2, 14895, Control_c, 0, 10, 0
2, 14896, Control_c, 0, 10, 0
2, 14898, Control_c, 0, 10, 0
2, 14899, Control_c, 0, 10, 0
2, 14901, Control_c, 0, 10, 0
2, 14902, Control_c, 0, 10, 0
2, 14904, Control_c, 0, 10, 0
2, 14905, Control_c, 0, 10, 0
2, 14907, Control_c, 0, 10, 0
2, 14908, Control_c, 0, 10, 0
2, 14910, Control_c, 0, 10, 0
2, 14911, Control_c, 0, 10, 0
2, 14974, Pitch_bend_c, 0, 8448
2, 15072, Note_on_c, 0, 67, 66
2, 15096, Note_on_c, 0, 66, 63
2, 15120, Note_off_c, 0, 67, 0
2, 15132, Note_on_c, 0, 64, 63
2, 15144, Note_off_c, 0, 66, 0
2, 15156, Note_on_c, 0, 62, 71
2, 15180, Note_off_c, 0, 64, 0
2, 15180, Note_on_c, 0, 61, 71
2, 15204, Note_off_c, 0, 62, 0
2, 15372, Note_off_c, 0, 61, 0
2, 15480, Note_on_c, 0, 65, 63
2, 15516, Note_on_c, 0, 64, 63
2, 15528, Note_off_c, 0, 65, 0
2, 15540, Note_on_c, 0, 62, 71
2, 15564, Note_off_c, 0, 64, 0
2, 15564, Note_on_c, 0, 61, 71
2, 15588, Note_off_c, 0, 62, 0
2, 15744, Note_on_c, 0, 67, 73
2, 15756, Note_off_c, 0, 61, 0
2, 15756, Note_on_c, 0, 69, 73
2, 15768, Note_off_c, 0, 67, 0
2, 15780, Note_off_c, 0, 69, 0
2, 15780, Note_on_c, 0, 65, 76
2, 15792, Note_on_c, 0, 67, 76
2, 15804, Note_off_c, 0, 65, 0
2, 15816, Note_off_c, 0, 67, 0
2, 15816, Note_on_c, 0, 64, 63
2, 15828, Note_on_c, 0, 65, 76
2, 15840, Note_off_c, 0, 64, 0
2, 15852, Note_off_c, 0, 65, 0
2, 15852, Note_on_c, 0, 64, 47
2, 15876, Note_off_c, 0, 64, 0
2, 15876, Note_on_c, 0, 65, 84
2, 15901, Note_on_c, 0, 64, 63
2, 15912, Note_off_c, 0, 65, 0
2, 15925, Note_on_c, 0, 62, 71
2, 15949, Note_off_c, 0, 64, 0
2, 15949, Note_on_c, 0, 61, 71
2, 15973, Note_off_c, 0, 62, 0
2, 16128, Note_on_c, 0, 67, 73
2, 16140, Note_on_c, 0, 69, 73
2, 16141, Note_off_c, 0, 61, 0
2, 16152, Note_off_c, 0, 67, 0
2, 16164, Note_off_c, 0, 69, 0
2, 16164, Note_on_c, 0, 65, 76
2, 16176, Note_on_c, 0, 67, 76
2, 16188, Note_off_c, 0, 65, 0
2, 16200, Note_off_c, 0, 67, 0
2, 16200, Note_on_c, 0, 64, 63
2, 16212, Note_on_c, 0, 65, 76
2, 16224, Note_off_c, 0, 64, 0
2, 16236, Note_off_c, 0, 65, 0
2, 16236, Note_on_c, 0, 64, 47
2, 16260, Note_off_c, 0, 64, 0
2, 16260, Note_on_c, 0, 65, 84
2, 16285, Note_on_c, 0, 64, 63
2, 16296, Note_off_c, 0, 65, 0
2, 16309, Note_on_c, 0, 62, 71
2, 16333, Note_off_c, 0, 64, 0
2, 16333, Note_on_c, 0, 61, 71
2, 16357, Note_off_c, 0, 62, 0
2, 16525, Note_off_c, 0, 61, 0
2, 16656, Note_on_c, 0, 48, 100
2, 16692, Note_off_c, 0, 48, 0
2, 16692, Note_on_c, 0, 49, 100
2, 16704, Note_off_c, 0, 49, 0
2, 16704, Note_on_c, 0, 53, 100
2, 16707, Control_c, 0, 7, 92
2, 16776, Note_off_c, 0, 53, 0
2, 16776, Note_on_c, 0, 48, 100
2, 16848, Note_off_c, 0, 48, 0
2, 16848, Note_on_c, 0, 47, 100
2, 16896, Note_off_c, 0, 47, 0
2, 16896, Note_on_c, 0, 49, 100
2, 16968, Note_off_c, 0, 49, 0
2, 16968, Note_on_c, 0, 45, 100
2, 17040, Note_off_c, 0, 45, 0
2, 17040, Note_on_c, 0, 40, 100
2, 17088, Note_off_c, 0, 40, 0
2, 17088, Note_on_c, 0, 41, 100
2, 17160, Note_off_c, 0, 41, 0
2, 17160, Note_on_c, 0, 48, 100
2, 17232, Note_off_c, 0, 48, 0
2, 17232, Note_on_c, 0, 47, 100
2, 17280, Note_off_c, 0, 47, 0
2, 17280, Note_on_c, 0, 49, 100
2, 17352, Note_off_c, 0, 49, 0
2, 17352, Note_on_c, 0, 45, 100
2, 17424, Note_off_c, 0, 45, 0
2, 17424, Note_on_c, 0, 52, 100
2, 17472, Note_off_c, 0, 52, 0
2, 17472, Note_on_c, 0, 53, 100
2, 17544, Note_off_c, 0, 53, 0
2, 17544, Note_on_c, 0, 48, 100
2, 17616, Note_off_c, 0, 48, 0
2, 17616, Note_on_c, 0, 47, 100
2, 17664, Note_off_c, 0, 47, 0
2, 17664, Note_on_c, 0, 49, 100
2, 17683, Pitch_bend_c, 0, 8704
2, 17685, Pitch_bend_c, 0, 9088
2, 17686, Pitch_bend_c, 0, 9728
2, 17688, Pitch_bend_c, 0, 10112
2, 17689, Pitch_bend_c, 0, 10752
2, 17691, Pitch_bend_c, 0, 11392
2, 17692, Pitch_bend_c, 0, 11776
2, 17712, Pitch_bend_c, 0, 11392
2, 17714, Pitch_bend_c, 0, 10112
2, 17715, Pitch_bend_c, 0, 9728
2, 17717, Pitch_bend_c, 0, 9472
2, 17718, Pitch_bend_c, 0, 9472
2, 17720, Pitch_bend_c, 0, 8704
2, 17721, Pitch_bend_c, 0, 8704
2, 17723, Pitch_bend_c, 0, 8704
2, 17724, Pitch_bend_c, 0, 8064
2, 17736, Note_off_c, 0, 49, 0
2, 17736, Note_on_c, 0, 45, 100
2, 17808, Note_off_c, 0, 45, 0
2, 17808, Note_on_c, 0, 40, 100
2, 17856, Note_off_c, 0, 40, 0
2, 17856, Note_on_c, 0, 41, 100
2, 17928, Note_off_c, 0, 41, 0
2, 17928, Note_on_c, 0, 48, 100
2, 18000, Note_off_c, 0, 48, 0
2, 18000, Note_on_c, 0, 47, 100
2, 18048, Note_off_c, 0, 47, 0
2, 18048, Note_on_c, 0, 45, 100
2, 18048, Note_on_c, 0, 52, 100
2, 18048, Note_on_c, 0, 57, 100
2, 18048, Note_on_c, 0, 59, 100
2, 18048, Note_on_c, 0, 61, 100
2, 18240, Note_off_c, 0, 45, 0
2, 18240, Note_off_c, 0, 52, 0
2, 18240, Note_off_c, 0, 57, 0
2, 18240, Note_off_c, 0, 59, 0
2, 18240, Note_off_c, 0, 61, 0
2, 18240, End_track
3, 0, Start_track
3, 0, Title_t, "Track 2\000"
3, 0, Program_c, 1, 42
3, 0, Control_c, 1, 7, 99
3, 0, Control_c, 1, 10, 127
3, 0, Control_c, 1, 91, 127
3, 0, Control_c, 1, 93, 78
3, 168, Note_on_c, 1, 40, 100
3, 192, Note_off_c, 1, 40, 0
3, 192, Note_on_c, 1, 41, 100
3, 264, Note_off_c, 1, 41, 0
3, 264, Note_on_c, 1, 48, 127
3, 336, Note_off_c, 1, 48, 0
3, 336, Note_on_c, 1, 47, 100
3, 384, Note_off_c, 1, 47, 0
3, 384, Note_on_c, 1, 49, 100
3, 456, Note_off_c, 1, 49, 0
3, 456, Note_on_c, 1, 45, 100
3, 528, Note_off_c, 1, 45, 0
3, 528, Note_on_c, 1, 40, 100
3, 576, Note_off_c, 1, 40, 0
3, 576, Note_on_c, 1, 41, 100
3, 648, Note_off_c, 1, 41, 0
3, 648, Note_on_c, 1, 48, 127
3, 720, Note_off_c, 1, 48, 0
3, 720, Note_on_c, 1, 47, 100
3, 768, Note_off_c, 1, 47, 0
3, 768, Note_on_c, 1, 45, 100
3, 840, Note_off_c, 1, 45, 0
3, 840, Note_on_c, 1, 49, 100
3, 912, Note_off_c, 1, 49, 0
3, 912, Note_on_c, 1, 52, 100
3, 960, Note_off_c, 1, 52, 0
3, 960, Note_on_c, 1, 53, 100
3, 1032, Note_off_c, 1, 53, 0
3, 1032, Note_on_c, 1, 48, 100
3, 1104, Note_off_c, 1, 48, 0
3, 1104, Note_on_c, 1, 47, 100
3, 1152, Note_off_c, 1, 47, 0
3, 1152, Note_on_c, 1, 49, 100
3, 1224, Note_off_c, 1, 49, 0
3, 1224, Note_on_c, 1, 45, 100
3, 1296, Note_off_c, 1, 45, 0
3, 1296, Note_on_c, 1, 40, 100
3, 1344, Note_off_c, 1, 40, 0
3, 1344, Note_on_c, 1, 41, 100
3, 1416, Note_off_c, 1, 41, 0
3, 1416, Note_on_c, 1, 48, 100
3, 1488, Note_off_c, 1, 48, 0
3, 1488, Note_on_c, 1, 47, 100
3, 1536, Note_off_c, 1, 47, 0
3, 1536, Note_on_c, 1, 45, 60
3, 1920, Note_off_c, 1, 45, 0
3, 5376, Note_on_c, 1, 41, 100
3, 5448, Note_off_c, 1, 41, 0
3, 5448, Note_on_c, 1, 48, 127
3, 5520, Note_off_c, 1, 48, 0
3, 5520, Note_on_c, 1, 47, 100
3, 5568, Note_off_c, 1, 47, 0
3, 5568, Note_on_c, 1, 49, 100
3, 5640, Note_off_c, 1, 49, 0
3, 5640, Note_on_c, 1, 45, 100
3, 5712, Note_off_c, 1, 45, 0
3, 5712, Note_on_c, 1, 40, 100
3, 5760, Note_off_c, 1, 40, 0
3, 5760, Note_on_c, 1, 41, 100
3, 5832, Note_off_c, 1, 41, 0
3, 5832, Note_on_c, 1, 48, 127
3, 5904, Note_off_c, 1, 48, 0
3, 5904, Note_on_c, 1, 47, 100
3, 5952, Note_off_c, 1, 47, 0
3, 5952, Note_on_c, 1, 45, 100
3, 6024, Note_off_c, 1, 45, 0
3, 6024, Note_on_c, 1, 49, 100
3, 6096, Note_off_c, 1, 49, 0
3, 6096, Note_on_c, 1, 52, 100
3, 6144, Note_off_c, 1, 52, 0
3, 6144, Note_on_c, 1, 53, 100
3, 6216, Note_off_c, 1, 53, 0
3, 6216, Note_on_c, 1, 48, 100
3, 6288, Note_off_c, 1, 48, 0
3, 6288, Note_on_c, 1, 47, 100
3, 6336, Note_off_c, 1, 47, 0
3, 13248, Note_on_c, 1, 45, 100
3, 14400, Note_off_c, 1, 45, 0
3, 16704, Note_on_c, 1, 53, 100
3, 16707, Control_c, 1, 7, 89
3, 16776, Note_off_c, 1, 53, 0
3, 16776, Note_on_c, 1, 48, 100
3, 16848, Note_off_c, 1, 48, 0
3, 16848, Note_on_c, 1, 47, 100
3, 16896, Note_off_c, 1, 47, 0
3, 16896, Note_on_c, 1, 49, 100
3, 16968, Note_off_c, 1, 49, 0
3, 16968, Note_on_c, 1, 45, 100
3, 17040, Note_off_c, 1, 45, 0
3, 17040, Note_on_c, 1, 40, 100
3, 17088, Note_off_c, 1, 40, 0
3, 17088, Note_on_c, 1, 41, 100
3, 17160, Note_off_c, 1, 41, 0
3, 17160, Note_on_c, 1, 48, 100
3, 17232, Note_off_c, 1, 48, 0
3, 17232, Note_on_c, 1, 47, 100
3, 17280, Note_off_c, 1, 47, 0
3, 17280, Note_on_c, 1, 49, 100
3, 17352, Note_off_c, 1, 49, 0
3, 17352, Note_on_c, 1, 45, 100
3, 17424, Note_off_c, 1, 45, 0
3, 17424, Note_on_c, 1, 52, 100
3, 17472, Note_off_c, 1, 52, 0
3, 17472, Note_on_c, 1, 53, 100
3, 17544, Note_off_c, 1, 53, 0
3, 17544, Note_on_c, 1, 48, 100
3, 17616, Note_off_c, 1, 48, 0
3, 17616, Note_on_c, 1, 47, 100
3, 17664, Note_off_c, 1, 47, 0
3, 17664, Note_on_c, 1, 49, 100
3, 17683, Pitch_bend_c, 1, 8704
3, 17685, Pitch_bend_c, 1, 9088
3, 17686, Pitch_bend_c, 1, 9728
3, 17688, Pitch_bend_c, 1, 10112
3, 17689, Pitch_bend_c, 1, 10752
3, 17691, Pitch_bend_c, 1, 11392
3, 17692, Pitch_bend_c, 1, 11776
3, 17712, Pitch_bend_c, 1, 11392
3, 17714, Pitch_bend_c, 1, 10112
3, 17715, Pitch_bend_c, 1, 9728
3, 17717, Pitch_bend_c, 1, 9472
3, 17718, Pitch_bend_c, 1, 9472
3, 17720, Pitch_bend_c, 1, 8704
3, 17721, Pitch_bend_c, 1, 8704
3, 17723, Pitch_bend_c, 1, 8704
3, 17724, Pitch_bend_c, 1, 8064
3, 17736, Note_off_c, 1, 49, 0
3, 17736, Note_on_c, 1, 45, 100
3, 17808, Note_off_c, 1, 45, 0
3, 17808, Note_on_c, 1, 40, 100
3, 17856, Note_off_c, 1, 40, 0
3, 17856, Note_on_c, 1, 41, 100
3, 17928, Note_off_c, 1, 41, 0
3, 17928, Note_on_c, 1, 48, 100
3, 18000, Note_off_c, 1, 48, 0
3, 18000, Note_on_c, 1, 47, 100
3, 18048, Note_off_c, 1, 47, 0
3, 18048, Note_on_c, 1, 45, 71
3, 18048, Note_on_c, 1, 52, 71
3, 18048, Note_on_c, 1, 57, 71
3, 18048, Note_on_c, 1, 59, 71
3, 18048, Note_on_c, 1, 61, 71
3, 18240, Note_off_c, 1, 45, 0
3, 18240, Note_off_c, 1, 52, 0
3, 18240, Note_off_c, 1, 57, 0
3, 18240, Note_off_c, 1, 59, 0
3, 18240, Note_off_c, 1, 61, 0
3, 18240, End_track
4, 0, Start_track
4, 0, Title_t, "Track 3\000"
4, 0, Program_c, 2, 27
4, 0, Control_c, 2, 7, 99
4, 192, Note_on_c, 2, 62, 100
4, 228, Note_off_c, 2, 62, 0
4, 228, Note_on_c, 2, 64, 100
4, 264, Note_off_c, 2, 64, 0
4, 264, Note_on_c, 2, 64, 100
4, 300, Note_off_c, 2, 64, 0
4, 300, Note_on_c, 2, 62, 100
4, 336, Note_off_c, 2, 62, 0
4, 336, Note_on_c, 2, 64, 100
4, 384, Note_off_c, 2, 64, 0
4, 384, Note_on_c, 2, 62, 100
4, 420, Note_off_c, 2, 62, 0
4, 420, Note_on_c, 2, 64, 100
4, 456, Note_off_c, 2, 64, 0
4, 456, Note_on_c, 2, 64, 100
4, 492, Note_off_c, 2, 64, 0
4, 492, Note_on_c, 2, 62, 100
4, 528, Note_off_c, 2, 62, 0
4, 528, Note_on_c, 2, 64, 100
4, 576, Note_off_c, 2, 64, 0
4, 576, Note_on_c, 2, 62, 100
4, 612, Note_off_c, 2, 62, 0
4, 612, Note_on_c, 2, 64, 100
4, 648, Note_off_c, 2, 64, 0
4, 648, Note_on_c, 2, 64, 100
4, 684, Note_off_c, 2, 64, 0
4, 684, Note_on_c, 2, 62, 100
4, 720, Note_off_c, 2, 62, 0
4, 720, Note_on_c, 2, 64, 100
4, 768, Note_off_c, 2, 64, 0
4, 768, Note_on_c, 2, 62, 100
4, 804, Note_off_c, 2, 62, 0
4, 804, Note_on_c, 2, 64, 100
4, 840, Note_off_c, 2, 64, 0
4, 840, Note_on_c, 2, 64, 100
4, 876, Note_off_c, 2, 64, 0
4, 876, Note_on_c, 2, 62, 100
4, 912, Note_off_c, 2, 62, 0
4, 912, Note_on_c, 2, 64, 100
4, 960, Note_off_c, 2, 64, 0
4, 960, Note_on_c, 2, 62, 100
4, 996, Note_off_c, 2, 62, 0
4, 996, Note_on_c, 2, 64, 100
4, 1032, Note_off_c, 2, 64, 0
4, 1032, Note_on_c, 2, 64, 100
4, 1068, Note_off_c, 2, 64, 0
4, 1068, Note_on_c, 2, 62, 100
4, 1104, Note_off_c, 2, 62, 0
4, 1104, Note_on_c, 2, 64, 100
4, 1152, Note_off_c, 2, 64, 0
4, 1152, Note_on_c, 2, 62, 100
4, 1188, Note_off_c, 2, 62, 0
4, 1188, Note_on_c, 2, 64, 100
4, 1224, Note_off_c, 2, 64, 0
4, 1224, Note_on_c, 2, 64, 100
4, 1260, Note_off_c, 2, 64, 0
4, 1260, Note_on_c, 2, 62, 100
4, 1296, Note_off_c, 2, 62, 0
4, 1296, Note_on_c, 2, 64, 100
4, 1344, Note_off_c, 2, 64, 0
4, 1344, Note_on_c, 2, 62, 100
4, 1380, Note_off_c, 2, 62, 0
4, 1380, Note_on_c, 2, 64, 100
4, 1416, Note_off_c, 2, 64, 0
4, 1416, Note_on_c, 2, 64, 100
4, 1452, Note_off_c, 2, 64, 0
4, 1452, Note_on_c, 2, 62, 100
4, 1488, Note_off_c, 2, 62, 0
4, 1488, Note_on_c, 2, 64, 100
4, 1536, Note_off_c, 2, 64, 0
4, 1536, Note_on_c, 2, 45, 127
4, 1536, Note_on_c, 2, 57, 127
4, 1536, Note_on_c, 2, 59, 127
4, 1536, Note_on_c, 2, 61, 127
4, 1536, Note_on_c, 2, 64, 127
4, 1919, Control_c, 2, 7, 121
4, 1920, Note_off_c, 2, 45, 0
4, 1920, Note_off_c, 2, 57, 0
4, 1920, Note_off_c, 2, 59, 0
4, 1920, Note_off_c, 2, 61, 0
4, 1920, Note_off_c, 2, 64, 0
4, 5376, Note_on_c, 2, 62, 100
4, 5412, Note_off_c, 2, 62, 0
4, 5412, Note_on_c, 2, 64, 100
4, 5448, Note_off_c, 2, 64, 0
4, 5448, Note_on_c, 2, 64, 100
4, 5484, Note_off_c, 2, 64, 0
4, 5484, Note_on_c, 2, 62, 100
4, 5520, Note_off_c, 2, 62, 0
4, 5520, Note_on_c, 2, 64, 100
4, 5568, Note_off_c, 2, 64, 0
4, 5568, Note_on_c, 2, 62, 100
4, 5604, Note_off_c, 2, 62, 0
4, 5604, Note_on_c, 2, 64, 100
4, 5640, Note_off_c, 2, 64, 0
4, 5640, Note_on_c, 2, 64, 100
4, 5676, Note_off_c, 2, 64, 0
4, 5676, Note_on_c, 2, 62, 100
4, 5712, Note_off_c, 2, 62, 0
4, 5712, Note_on_c, 2, 64, 100
4, 5760, Note_off_c, 2, 64, 0
4, 5760, Note_on_c, 2, 62, 100
4, 5796, Note_off_c, 2, 62, 0
4, 5796, Note_on_c, 2, 64, 100
4, 5832, Note_off_c, 2, 64, 0
4, 5832, Note_on_c, 2, 64, 100
4, 5868, Note_off_c, 2, 64, 0
4, 5868, Note_on_c, 2, 62, 100
4, 5904, Note_off_c, 2, 62, 0
4, 5904, Note_on_c, 2, 64, 100
4, 5952, Note_off_c, 2, 64, 0
4, 5952, Note_on_c, 2, 62, 100
4, 5988, Note_off_c, 2, 62, 0
4, 5988, Note_on_c, 2, 64, 100
4, 6024, Note_off_c, 2, 64, 0
4, 6024, Note_on_c, 2, 64, 100
4, 6060, Note_off_c, 2, 64, 0
4, 6060, Note_on_c, 2, 62, 100
4, 6096, Note_off_c, 2, 62, 0
4, 6096, Note_on_c, 2, 64, 100
4, 6144, Note_off_c, 2, 64, 0
4, 6144, Note_on_c, 2, 62, 100
4, 6180, Note_off_c, 2, 62, 0
4, 6180, Note_on_c, 2, 64, 100
4, 6216, Note_off_c, 2, 64, 0
4, 6216, Note_on_c, 2, 64, 100
4, 6252, Note_off_c, 2, 64, 0
4, 6252, Note_on_c, 2, 62, 100
4, 6288, Note_off_c, 2, 62, 0
4, 6288, Note_on_c, 2, 64, 100
4, 6336, Note_off_c, 2, 64, 0
4, 6336, End_track
5, 0, Start_track
5, 0, Title_t, "Track 4\000"
5, 0, Program_c, 3, 26
5, 0, Control_c, 3, 7, 97
5, 0, Control_c, 3, 91, 117
5, 0, Control_c, 3, 93, 104
5, 768, Note_on_c, 3, 64, 100
5, 780, Note_on_c, 3, 62, 100
5, 792, Note_off_c, 3, 62, 0
5, 792, Note_on_c, 3, 61, 100
5, 804, Note_off_c, 3, 61, 0
5, 804, Note_on_c, 3, 62, 100
5, 816, Note_off_c, 3, 62, 0
5, 816, Note_on_c, 3, 61, 100
5, 828, Note_off_c, 3, 64, 0
5, 840, Note_on_c, 3, 64, 100
5, 852, Note_on_c, 3, 62, 100
5, 864, Note_off_c, 3, 61, 0
5, 864, Note_off_c, 3, 62, 0
5, 864, Note_on_c, 3, 61, 100
5, 876, Note_off_c, 3, 61, 0
5, 876, Note_on_c, 3, 62, 100
5, 888, Note_off_c, 3, 62, 0
5, 888, Note_on_c, 3, 61, 100
5, 900, Note_off_c, 3, 64, 0
5, 912, Note_on_c, 3, 64, 100
5, 924, Note_on_c, 3, 62, 100
5, 936, Note_off_c, 3, 61, 0
5, 936, Note_off_c, 3, 62, 0
5, 936, Note_on_c, 3, 61, 100
5, 948, Note_off_c, 3, 61, 0
5, 948, Note_on_c, 3, 62, 100
5, 960, Note_off_c, 3, 64, 0
5, 960, Note_off_c, 3, 62, 0
5, 960, Note_on_c, 3, 64, 100
5, 972, Note_on_c, 3, 62, 100
5, 984, Note_off_c, 3, 62, 0
5, 984, Note_on_c, 3, 61, 100
5, 996, Note_off_c, 3, 61, 0
5, 996, Note_on_c, 3, 62, 100
5, 1008, Note_off_c, 3, 62, 0
5, 1008, Note_on_c, 3, 61, 100
5, 1020, Note_off_c, 3, 64, 0
5, 1032, Note_on_c, 3, 64, 100
5, 1044, Note_on_c, 3, 62, 100
5, 1056, Note_off_c, 3, 61, 0
5, 1056, Note_off_c, 3, 62, 0
5, 1056, Note_on_c, 3, 61, 100
5, 1068, Note_off_c, 3, 61, 0
5, 1068, Note_on_c, 3, 62, 100
5, 1080, Note_off_c, 3, 62, 0
5, 1080, Note_on_c, 3, 61, 100
5, 1092, Note_off_c, 3, 64, 0
5, 1104, Note_on_c, 3, 64, 100
5, 1116, Note_on_c, 3, 62, 100
5, 1128, Note_off_c, 3, 61, 0
5, 1128, Note_off_c, 3, 62, 0
5, 1128, Note_on_c, 3, 61, 100
5, 1140, Note_off_c, 3, 64, 0
5, 1140, Note_off_c, 3, 61, 0
5, 1140, Note_on_c, 3, 62, 100
5, 1152, Note_off_c, 3, 62, 0
5, 1152, Note_on_c, 3, 64, 100
5, 1164, Note_on_c, 3, 62, 100
5, 1176, Note_off_c, 3, 62, 0
5, 1176, Note_on_c, 3, 61, 100
5, 1188, Note_off_c, 3, 61, 0
5, 1188, Note_on_c, 3, 62, 100
5, 1200, Note_off_c, 3, 62, 0
5, 1200, Note_on_c, 3, 61, 100
5, 1212, Note_off_c, 3, 64, 0
5, 1224, Note_on_c, 3, 64, 100
5, 1236, Note_on_c, 3, 62, 100
5, 1248, Note_off_c, 3, 61, 0
5, 1248, Note_off_c, 3, 62, 0
5, 1248, Note_on_c, 3, 61, 100
5, 1260, Note_off_c, 3, 61, 0
5, 1260, Note_on_c, 3, 62, 100
5, 1272, Note_off_c, 3, 62, 0
5, 1272, Note_on_c, 3, 61, 100
5, 1284, Note_off_c, 3, 64, 0
5, 1296, Note_on_c, 3, 64, 100
5, 1308, Note_on_c, 3, 62, 100
5, 1320, Note_off_c, 3, 61, 0
5, 1320, Note_off_c, 3, 62, 0
5, 1320, Note_on_c, 3, 61, 100
5, 1332, Note_off_c, 3, 64, 0
5, 1332, Note_off_c, 3, 61, 0
5, 1332, Note_on_c, 3, 62, 100
5, 1344, Note_off_c, 3, 62, 0
5, 1344, Note_on_c, 3, 64, 100
5, 1356, Note_on_c, 3, 62, 100
5, 1368, Note_off_c, 3, 62, 0
5, 1368, Note_on_c, 3, 61, 100
5, 1380, Note_off_c, 3, 61, 0
5, 1380, Note_on_c, 3, 62, 100
5, 1392, Note_off_c, 3, 62, 0
5, 1392, Note_on_c, 3, 61, 100
5, 1404, Note_off_c, 3, 64, 0
5, 1416, Note_on_c, 3, 64, 100
5, 1428, Note_on_c, 3, 62, 100
5, 1440, Note_off_c, 3, 61, 0
5, 1440, Note_off_c, 3, 62, 0
5, 1440, Note_on_c, 3, 61, 100
5, 1452, Note_off_c, 3, 61, 0
5, 1452, Note_on_c, 3, 62, 100
5, 1464, Note_off_c, 3, 62, 0
5, 1464, Note_on_c, 3, 61, 100
5, 1476, Note_off_c, 3, 64, 0
5, 1488, Note_on_c, 3, 64, 100
5, 1500, Note_on_c, 3, 62, 100
5, 1512, Note_off_c, 3, 61, 0
5, 1512, Note_off_c, 3, 62, 0
5, 1512, Note_on_c, 3, 61, 100
5, 1524, Note_off_c, 3, 61, 0
5, 1524, Note_on_c, 3, 62, 100
5, 1536, Note_off_c, 3, 64, 0
5, 1536, Note_off_c, 3, 62, 0
5, 1536, Note_on_c, 3, 45, 100
5, 1536, Note_on_c, 3, 57, 100
5, 1536, Note_on_c, 3, 59, 100
5, 1536, Note_on_c, 3, 61, 100
5, 1536, Note_on_c, 3, 64, 100
5, 1920, Note_off_c, 3, 45, 0
5, 1920, Note_off_c, 3, 57, 0
5, 1920, Note_off_c, 3, 59, 0
5, 1920, Note_off_c, 3, 61, 0
5, 1920, Note_off_c, 3, 64, 0
5, 5376, Note_on_c, 3, 64, 100
5, 5388, Note_on_c, 3, 62, 100
5, 5400, Note_off_c, 3, 62, 0
5, 5400, Note_on_c, 3, 61, 100
5, 5412, Note_off_c, 3, 61, 0
5, 5412, Note_on_c, 3, 62, 100
5, 5424, Note_off_c, 3, 62, 0
5, 5424, Note_on_c, 3, 61, 100
5, 5436, Note_off_c, 3, 64, 0
5, 5448, Note_on_c, 3, 64, 100
5, 5460, Note_on_c, 3, 62, 100
5, 5472, Note_off_c, 3, 61, 0
5, 5472, Note_off_c, 3, 62, 0
5, 5472, Note_on_c, 3, 61, 100
5, 5484, Note_off_c, 3, 61, 0
5, 5484, Note_on_c, 3, 62, 100
5, 5496, Note_off_c, 3, 62, 0
5, 5496, Note_on_c, 3, 61, 100
5, 5508, Note_off_c, 3, 64, 0
5, 5520, Note_on_c, 3, 64, 100
5, 5532, Note_on_c, 3, 62, 100
5, 5544, Note_off_c, 3, 61, 0
5, 5544, Note_off_c, 3, 62, 0
5, 5544, Note_on_c, 3, 61, 100
5, 5556, Note_off_c, 3, 61, 0
5, 5556, Note_on_c, 3, 62, 100
5, 5568, Note_off_c, 3, 64, 0
5, 5568, Note_off_c, 3, 62, 0
5, 5568, Note_on_c, 3, 64, 100
5, 5580, Note_on_c, 3, 62, 100
5, 5592, Note_off_c, 3, 62, 0
5, 5592, Note_on_c, 3, 61, 100
5, 5604, Note_off_c, 3, 61, 0
5, 5604, Note_on_c, 3, 62, 100
5, 5616, Note_off_c, 3, 62, 0
5, 5616, Note_on_c, 3, 61, 100
5, 5628, Note_off_c, 3, 64, 0
5, 5640, Note_on_c, 3, 64, 100
5, 5652, Note_on_c, 3, 62, 100
5, 5664, Note_off_c, 3, 61, 0
5, 5664, Note_off_c, 3, 62, 0
5, 5664, Note_on_c, 3, 61, 100
5, 5676, Note_off_c, 3, 61, 0
5, 5676, Note_on_c, 3, 62, 100
5, 5688, Note_off_c, 3, 62, 0
5, 5688, Note_on_c, 3, 61, 100
5, 5700, Note_off_c, 3, 64, 0
5, 5712, Note_on_c, 3, 64, 100
5, 5724, Note_on_c, 3, 62, 100
5, 5736, Note_off_c, 3, 61, 0
5, 5736, Note_off_c, 3, 62, 0
5, 5736, Note_on_c, 3, 61, 100
5, 5748, Note_off_c, 3, 64, 0
5, 5748, Note_off_c, 3, 61, 0
5, 5748, Note_on_c, 3, 62, 100
5, 5760, Note_off_c, 3, 62, 0
5, 5760, Note_on_c, 3, 64, 100
5, 5772, Note_on_c, 3, 62, 100
5, 5784, Note_off_c, 3, 62, 0
5, 5784, Note_on_c, 3, 61, 100
5, 5796, Note_off_c, 3, 61, 0
5, 5796, Note_on_c, 3, 62, 100
5, 5808, Note_off_c, 3, 62, 0
5, 5808, Note_on_c, 3, 61, 100
5, 5820, Note_off_c, 3, 64, 0
5, 5832, Note_on_c, 3, 64, 100
5, 5844, Note_on_c, 3, 62, 100
5, 5856, Note_off_c, 3, 61, 0
5, 5856, Note_off_c, 3, 62, 0
5, 5856, Note_on_c, 3, 61, 100
5, 5868, Note_off_c, 3, 61, 0
5, 5868, Note_on_c, 3, 62, 100
5, 5880, Note_off_c, 3, 62, 0
5, 5880, Note_on_c, 3, 61, 100
5, 5892, Note_off_c, 3, 64, 0
5, 5904, Note_on_c, 3, 64, 100
5, 5916, Note_on_c, 3, 62, 100
5, 5928, Note_off_c, 3, 61, 0
5, 5928, Note_off_c, 3, 62, 0
5, 5928, Note_on_c, 3, 61, 100
5, 5940, Note_off_c, 3, 64, 0
5, 5940, Note_off_c, 3, 61, 0
5, 5940, Note_on_c, 3, 62, 100
5, 5952, Note_off_c, 3, 62, 0
5, 5952, Note_on_c, 3, 64, 100
5, 5964, Note_on_c, 3, 62, 100
5, 5976, Note_off_c, 3, 62, 0
5, 5976, Note_on_c, 3, 61, 100
5, 5988, Note_off_c, 3, 61, 0
5, 5988, Note_on_c, 3, 62, 100
5, 6000, Note_off_c, 3, 62, 0
5, 6000, Note_on_c, 3, 61, 100
5, 6012, Note_off_c, 3, 64, 0
5, 6024, Note_on_c, 3, 64, 100
5, 6036, Note_on_c, 3, 62, 100
5, 6048, Note_off_c, 3, 61, 0
5, 6048, Note_off_c, 3, 62, 0
5, 6048, Note_on_c, 3, 61, 100
5, 6060, Note_off_c, 3, 61, 0
5, 6060, Note_on_c, 3, 62, 100
5, 6072, Note_off_c, 3, 62, 0
5, 6072, Note_on_c, 3, 61, 100
5, 6084, Note_off_c, 3, 64, 0
5, 6096, Note_on_c, 3, 64, 100
5, 6108, Note_on_c, 3, 62, 100
5, 6120, Note_off_c, 3, 61, 0
5, 6120, Note_off_c, 3, 62, 0
5, 6120, Note_on_c, 3, 61, 100
5, 6132, Note_off_c, 3, 61, 0
5, 6132, Note_on_c, 3, 62, 100
5, 6144, Note_off_c, 3, 64, 0
5, 6144, Note_off_c, 3, 62, 0
5, 6144, Note_on_c, 3, 64, 100
5, 6156, Note_on_c, 3, 62, 100
5, 6168, Note_off_c, 3, 62, 0
5, 6168, Note_on_c, 3, 61, 100
5, 6180, Note_off_c, 3, 61, 0
5, 6180, Note_on_c, 3, 62, 100
5, 6192, Note_off_c, 3, 62, 0
5, 6192, Note_on_c, 3, 61, 100
5, 6204, Note_off_c, 3, 64, 0
5, 6216, Note_on_c, 3, 64, 100
5, 6228, Note_on_c, 3, 62, 100
5, 6240, Note_off_c, 3, 61, 0
5, 6240, Note_off_c, 3, 62, 0
5, 6240, Note_on_c, 3, 61, 100
5, 6252, Note_off_c, 3, 61, 0
5, 6252, Note_on_c, 3, 62, 100
5, 6264, Note_off_c, 3, 62, 0
5, 6264, Note_on_c, 3, 61, 100
5, 6276, Note_off_c, 3, 64, 0
5, 6288, Note_on_c, 3, 64, 100
5, 6300, Note_on_c, 3, 62, 100
5, 6312, Note_off_c, 3, 61, 0
5, 6312, Note_off_c, 3, 62, 0
5, 6312, Note_on_c, 3, 61, 100
5, 6324, Note_off_c, 3, 61, 0
5, 6324, Note_on_c, 3, 62, 100
5, 6336, Note_off_c, 3, 64, 0
5, 6336, Note_off_c, 3, 62, 0
5, 6336, Note_on_c, 3, 69, 100
5, 6342, Note_off_c, 3, 69, 0
5, 6342, Note_on_c, 3, 69, 100
5, 6345, Note_off_c, 3, 69, 0
5, 6345, Note_on_c, 3, 69, 100
5, 6348, Note_off_c, 3, 69, 0
5, 6348, Note_on_c, 3, 69, 100
5, 6351, Note_off_c, 3, 69, 0
5, 6351, Note_on_c, 3, 69, 100
5, 6354, Note_off_c, 3, 69, 0
5, 6354, Note_on_c, 3, 69, 100
5, 6360, Note_off_c, 3, 69, 0
5, 6360, Note_on_c, 3, 69, 100
5, 6363, Note_off_c, 3, 69, 0
5, 6363, Note_on_c, 3, 69, 100
5, 6366, Note_off_c, 3, 69, 0
5, 6366, Note_on_c, 3, 69, 100
5, 6369, Note_off_c, 3, 69, 0
5, 6369, Note_on_c, 3, 69, 100
5, 6375, Note_off_c, 3, 69, 0
5, 6375, Note_on_c, 3, 69, 100
5, 6378, Note_off_c, 3, 69, 0
5, 6378, Note_on_c, 3, 69, 100
5, 6381, Note_off_c, 3, 69, 0
5, 6381, Note_on_c, 3, 69, 100
5, 6384, Note_off_c, 3, 69, 0
5, 6384, Note_on_c, 3, 69, 100
5, 6390, Note_off_c, 3, 69, 0
5, 6390, Note_on_c, 3, 69, 100
5, 6399, Note_off_c, 3, 69, 0
5, 6399, Note_on_c, 3, 69, 100
5, 6402, Note_off_c, 3, 69, 0
5, 6402, Note_on_c, 3, 69, 100
5, 6411, Note_off_c, 3, 69, 0
5, 6411, Note_on_c, 3, 69, 100
5, 6414, Note_off_c, 3, 69, 0
5, 6414, Note_on_c, 3, 69, 100
5, 6420, Note_off_c, 3, 69, 0
5, 6420, Note_on_c, 3, 69, 100
5, 6423, Note_off_c, 3, 69, 0
5, 6423, Note_on_c, 3, 69, 100
5, 6426, Note_off_c, 3, 69, 0
5, 6426, Note_on_c, 3, 69, 100
5, 6432, Note_off_c, 3, 69, 0
5, 6432, Note_on_c, 3, 68, 100
5, 6438, Note_off_c, 3, 68, 0
5, 6438, Note_on_c, 3, 68, 100
5, 6447, Note_off_c, 3, 68, 0
5, 6447, Note_on_c, 3, 68, 100
5, 6450, Note_off_c, 3, 68, 0
5, 6450, Note_on_c, 3, 68, 100
5, 6456, Note_off_c, 3, 68, 0
5, 6456, Note_on_c, 3, 68, 100
5, 6462, Note_off_c, 3, 68, 0
5, 6462, Note_on_c, 3, 68, 100
5, 6465, Note_off_c, 3, 68, 0
5, 6465, Note_on_c, 3, 68, 100
5, 6474, Note_off_c, 3, 68, 0
5, 6474, Note_on_c, 3, 68, 100
5, 6483, Note_off_c, 3, 68, 0
5, 6483, Note_on_c, 3, 68, 100
5, 6489, Note_off_c, 3, 68, 0
5, 6489, Note_on_c, 3, 68, 100
5, 6492, Note_off_c, 3, 68, 0
5, 6492, Note_on_c, 3, 68, 100
5, 6495, Note_off_c, 3, 68, 0
5, 6495, Note_on_c, 3, 68, 100
5, 6498, Note_off_c, 3, 68, 0
5, 6498, Note_on_c, 3, 68, 100
5, 6504, Note_off_c, 3, 68, 0
5, 6504, Note_on_c, 3, 68, 100
5, 6510, Note_off_c, 3, 68, 0
5, 6510, Note_on_c, 3, 68, 100
5, 6513, Note_off_c, 3, 68, 0
5, 6513, Note_on_c, 3, 68, 100
5, 6522, Note_off_c, 3, 68, 0
5, 6522, Note_on_c, 3, 68, 100
5, 6525, Note_off_c, 3, 68, 0
5, 6525, Note_on_c, 3, 68, 100
5, 6528, Note_off_c, 3, 68, 0
5, 6528, Note_on_c, 3, 66, 100
5, 6531, Note_off_c, 3, 66, 0
5, 6531, Note_on_c, 3, 66, 100
5, 6534, Note_off_c, 3, 66, 0
5, 6534, Note_on_c, 3, 66, 100
5, 6537, Note_off_c, 3, 66, 0
5, 6537, Note_on_c, 3, 66, 100
5, 6540, Note_off_c, 3, 66, 0
5, 6540, Note_on_c, 3, 66, 100
5, 6549, Note_off_c, 3, 66, 0
5, 6549, Note_on_c, 3, 66, 100
5, 6552, Note_off_c, 3, 66, 0
5, 6552, Note_on_c, 3, 66, 100
5, 6555, Note_off_c, 3, 66, 0
5, 6555, Note_on_c, 3, 66, 100
5, 6558, Note_off_c, 3, 66, 0
5, 6558, Note_on_c, 3, 66, 100
5, 6567, Note_off_c, 3, 66, 0
5, 6567, Note_on_c, 3, 66, 100
5, 6573, Note_off_c, 3, 66, 0
5, 6573, Note_on_c, 3, 66, 100
5, 6588, Note_off_c, 3, 66, 0
5, 6588, Note_on_c, 3, 66, 100
5, 6591, Note_off_c, 3, 66, 0
5, 6591, Note_on_c, 3, 66, 100
5, 6597, Note_off_c, 3, 66, 0
5, 6597, Note_on_c, 3, 66, 100
5, 6601, Pitch_bend_c, 3, 8448
5, 6605, Pitch_bend_c, 3, 8448
5, 6606, Note_off_c, 3, 66, 0
5, 6606, Note_on_c, 3, 66, 100
5, 6609, Pitch_bend_c, 3, 9472
5, 6614, Pitch_bend_c, 3, 10112
5, 6615, Note_off_c, 3, 66, 0
5, 6615, Note_on_c, 3, 66, 100
5, 6620, Pitch_bend_c, 3, 11392
5, 6624, Note_off_c, 3, 66, 0
5, 6624, Note_on_c, 3, 68, 100
5, 6625, Pitch_bend_c, 3, 8064
5, 6627, Note_off_c, 3, 68, 0
5, 6627, Note_on_c, 3, 68, 100
5, 6633, Note_off_c, 3, 68, 0
5, 6633, Note_on_c, 3, 68, 100
5, 6645, Note_off_c, 3, 68, 0
5, 6645, Note_on_c, 3, 68, 100
5, 6651, Note_off_c, 3, 68, 0
5, 6651, Note_on_c, 3, 68, 100
5, 6660, Note_off_c, 3, 68, 0
5, 6660, Note_on_c, 3, 68, 100
5, 6663, Note_off_c, 3, 68, 0
5, 6663, Note_on_c, 3, 68, 100
5, 6672, Note_off_c, 3, 68, 0
5, 6672, Note_on_c, 3, 68, 100
5, 6678, Note_off_c, 3, 68, 0
5, 6678, Note_on_c, 3, 68, 100
5, 6681, Note_off_c, 3, 68, 0
5, 6681, Note_on_c, 3, 68, 100
5, 6684, Note_off_c, 3, 68, 0
5, 6684, Note_on_c, 3, 68, 100
5, 6690, Note_off_c, 3, 68, 0
5, 6690, Note_on_c, 3, 68, 100
5, 6697, Pitch_bend_c, 3, 7680
5, 6702, Note_off_c, 3, 68, 0
5, 6702, Note_on_c, 3, 68, 100
5, 6702, Pitch_bend_c, 3, 6016
5, 6705, Note_off_c, 3, 68, 0
5, 6705, Note_on_c, 3, 68, 100
5, 6708, Pitch_bend_c, 3, 4736
5, 6710, Pitch_bend_c, 3, 2944
5, 6713, Pitch_bend_c, 3, 6016
5, 6714, Pitch_bend_c, 3, 2688
5, 6719, Pitch_bend_c, 3, 7680
5, 6720, Note_off_c, 3, 68, 0
5, 6720, Note_on_c, 3, 65, 100
5, 6729, Note_off_c, 3, 65, 0
5, 6729, Note_on_c, 3, 65, 100
5, 6732, Note_off_c, 3, 65, 0
5, 6732, Note_on_c, 3, 65, 100
5, 6738, Note_off_c, 3, 65, 0
5, 6738, Note_on_c, 3, 65, 100
5, 6750, Note_off_c, 3, 65, 0
5, 6750, Note_on_c, 3, 65, 100
5, 6753, Note_off_c, 3, 65, 0
5, 6753, Note_on_c, 3, 65, 100
5, 6759, Note_off_c, 3, 65, 0
5, 6759, Note_on_c, 3, 65, 100
5, 6768, Note_off_c, 3, 65, 0
5, 6768, Note_on_c, 3, 65, 100
5, 6771, Note_off_c, 3, 65, 0
5, 6771, Note_on_c, 3, 65, 100
5, 6777, Note_off_c, 3, 65, 0
5, 6777, Note_on_c, 3, 65, 100
5, 6786, Note_off_c, 3, 65, 0
5, 6786, Note_on_c, 3, 65, 100
5, 6789, Note_off_c, 3, 65, 0
5, 6789, Note_on_c, 3, 65, 100
5, 6792, Note_off_c, 3, 65, 0
5, 6792, Note_on_c, 3, 65, 100
5, 6798, Note_off_c, 3, 65, 0
5, 6798, Note_on_c, 3, 65, 100
5, 6804, Note_off_c, 3, 65, 0
5, 6804, Note_on_c, 3, 65, 100
5, 6810, Note_off_c, 3, 65, 0
5, 6810, Note_on_c, 3, 65, 100
5, 6825, Note_off_c, 3, 65, 0
5, 6825, Note_on_c, 3, 65, 100
5, 6828, Note_off_c, 3, 65, 0
5, 6828, Note_on_c, 3, 65, 100
5, 6834, Note_off_c, 3, 65, 0
5, 6834, Note_on_c, 3, 65, 100
5, 6843, Note_off_c, 3, 65, 0
5, 6843, Note_on_c, 3, 65, 100
5, 6852, Note_off_c, 3, 65, 0
5, 6852, Note_on_c, 3, 65, 100
5, 6855, Note_off_c, 3, 65, 0
5, 6855, Note_on_c, 3, 65, 100
5, 6873, Note_off_c, 3, 65, 0
5, 6873, Note_on_c, 3, 65, 100
5, 6876, Note_off_c, 3, 65, 0
5, 6876, Pitch_bend_c, 3, 7680
5, 6877, Pitch_bend_c, 3, 7680
5, 6878, Pitch_bend_c, 3, 7680
5, 6879, Note_on_c, 3, 65, 100
5, 6879, Pitch_bend_c, 3, 7680
5, 6880, Pitch_bend_c, 3, 7680
5, 6881, Pitch_bend_c, 3, 7680
5, 6882, Pitch_bend_c, 3, 7040
5, 6883, Pitch_bend_c, 3, 7040
5, 6884, Pitch_bend_c, 3, 6400
5, 6885, Note_off_c, 3, 65, 0
5, 6885, Note_on_c, 3, 65, 100
5, 6885, Pitch_bend_c, 3, 6016
5, 6886, Pitch_bend_c, 3, 5376
5, 6887, Pitch_bend_c, 3, 4992
5, 6888, Note_off_c, 3, 65, 0
5, 6888, Note_on_c, 3, 65, 100
5, 6888, Pitch_bend_c, 3, 4992
5, 6889, Pitch_bend_c, 3, 4736
5, 6890, Pitch_bend_c, 3, 4352
5, 6891, Pitch_bend_c, 3, 3712
5, 6892, Pitch_bend_c, 3, 3712
5, 6893, Pitch_bend_c, 3, 3328
5, 6894, Note_off_c, 3, 65, 0
5, 6894, Note_on_c, 3, 65, 100
5, 6894, Pitch_bend_c, 3, 2944
5, 6895, Pitch_bend_c, 3, 2688
5, 6896, Pitch_bend_c, 3, 2304
5, 6897, Pitch_bend_c, 3, 1920
5, 6898, Pitch_bend_c, 3, 1280
5, 6899, Pitch_bend_c, 3, 640
5, 6900, Pitch_bend_c, 3, 256
5, 6901, Pitch_bend_c, 3, 0
5, 6902, Pitch_bend_c, 3, 0
5, 6903, Note_off_c, 3, 65, 0
5, 6903, Note_on_c, 3, 65, 100
5, 6903, Pitch_bend_c, 3, 0
5, 6904, Pitch_bend_c, 3, 0
5, 6905, Pitch_bend_c, 3, 0
5, 6906, Pitch_bend_c, 3, 0
5, 6911, Pitch_bend_c, 3, 8064
5, 6912, Note_off_c, 3, 65, 0
5, 6912, Note_on_c, 3, 62, 100
5, 6921, Note_off_c, 3, 62, 0
5, 6921, Note_on_c, 3, 62, 100
5, 6924, Note_off_c, 3, 62, 0
5, 6924, Note_on_c, 3, 62, 100
5, 6936, Note_off_c, 3, 62, 0
5, 6936, Note_on_c, 3, 62, 100
5, 6945, Note_off_c, 3, 62, 0
5, 6945, Note_on_c, 3, 62, 100
5, 6948, Note_off_c, 3, 62, 0
5, 6948, Note_on_c, 3, 62, 100
5, 6957, Note_off_c, 3, 62, 0
5, 6957, Note_on_c, 3, 62, 100
5, 6960, Note_off_c, 3, 62, 0
5, 6960, Note_on_c, 3, 62, 100
5, 6963, Note_off_c, 3, 62, 0
5, 6963, Note_on_c, 3, 62, 100
5, 6966, Note_off_c, 3, 62, 0
5, 6966, Note_on_c, 3, 62, 100
5, 6975, Note_off_c, 3, 62, 0
5, 6975, Note_on_c, 3, 62, 100
5, 6978, Note_off_c, 3, 62, 0
5, 6978, Note_on_c, 3, 62, 100
5, 6984, Note_off_c, 3, 62, 0
5, 6984, Note_on_c, 3, 62, 100
5, 6996, Note_off_c, 3, 62, 0
5, 6996, Note_on_c, 3, 62, 100
5, 6999, Note_off_c, 3, 62, 0
5, 6999, Note_on_c, 3, 62, 100
5, 7011, Note_off_c, 3, 62, 0
5, 7011, Note_on_c, 3, 62, 100
5, 7017, Note_off_c, 3, 62, 0
5, 7017, Note_on_c, 3, 62, 100
5, 7023, Note_off_c, 3, 62, 0
5, 7023, Note_on_c, 3, 62, 100
5, 7032, Note_off_c, 3, 62, 0
5, 7032, Note_on_c, 3, 62, 100
5, 7044, Note_off_c, 3, 62, 0
5, 7044, Note_on_c, 3, 62, 100
5, 7056, Note_off_c, 3, 62, 0
5, 7056, Note_on_c, 3, 62, 100
5, 7059, Note_off_c, 3, 62, 0
5, 7059, Note_on_c, 3, 62, 100
5, 7062, Note_off_c, 3, 62, 0
5, 7062, Note_on_c, 3, 62, 100
5, 7077, Note_off_c, 3, 62, 0
5, 7077, Note_on_c, 3, 62, 100
5, 7080, Note_off_c, 3, 62, 0
5, 7080, Note_on_c, 3, 62, 100
5, 7086, Note_off_c, 3, 62, 0
5, 7086, Note_on_c, 3, 62, 100
5, 7095, Note_off_c, 3, 62, 0
5, 7095, Note_on_c, 3, 62, 100
5, 7098, Note_off_c, 3, 62, 0
5, 7098, Note_on_c, 3, 62, 100
5, 7104, Note_off_c, 3, 62, 0
5, 7104, Note_on_c, 3, 65, 100
5, 7110, Note_off_c, 3, 65, 0
5, 7110, Note_on_c, 3, 65, 100
5, 7113, Note_off_c, 3, 65, 0
5, 7113, Note_on_c, 3, 65, 100
5, 7116, Note_off_c, 3, 65, 0
5, 7116, Note_on_c, 3, 65, 100
5, 7125, Note_off_c, 3, 65, 0
5, 7125, Note_on_c, 3, 65, 100
5, 7128, Note_off_c, 3, 65, 0
5, 7128, Note_on_c, 3, 64, 100
5, 7134, Note_off_c, 3, 64, 0
5, 7134, Note_on_c, 3, 64, 100
5, 7140, Note_off_c, 3, 64, 0
5, 7140, Note_on_c, 3, 64, 100
5, 7143, Note_off_c, 3, 64, 0
5, 7143, Note_on_c, 3, 64, 100
5, 7152, Note_off_c, 3, 64, 0
5, 7152, Note_on_c, 3, 62, 100
5, 7158, Note_off_c, 3, 62, 0
5, 7158, Note_on_c, 3, 62, 100
5, 7164, Note_off_c, 3, 62, 0
5, 7164, Note_on_c, 3, 62, 100
5, 7167, Note_off_c, 3, 62, 0
5, 7167, Note_on_c, 3, 62, 100
5, 7176, Note_off_c, 3, 62, 0
5, 7176, Note_on_c, 3, 61, 100
5, 7185, Note_off_c, 3, 61, 0
5, 7185, Note_on_c, 3, 61, 100
5, 7188, Note_off_c, 3, 61, 0
5, 7188, Note_on_c, 3, 61, 100
5, 7191, Note_off_c, 3, 61, 0
5, 7191, Note_on_c, 3, 61, 100
5, 7197, Note_off_c, 3, 61, 0
5, 7197, Note_on_c, 3, 61, 100
5, 7203, Note_off_c, 3, 61, 0
5, 7203, Note_on_c, 3, 61, 100
5, 7209, Note_off_c, 3, 61, 0
5, 7209, Note_on_c, 3, 61, 100
5, 7218, Note_off_c, 3, 61, 0
5, 7218, Note_on_c, 3, 61, 100
5, 7224, Note_off_c, 3, 61, 0
5, 7224, Note_on_c, 3, 61, 100
5, 7233, Note_off_c, 3, 61, 0
5, 7233, Note_on_c, 3, 61, 100
5, 7236, Note_off_c, 3, 61, 0
5, 7236, Note_on_c, 3, 61, 100
5, 7245, Note_off_c, 3, 61, 0
5, 7245, Note_on_c, 3, 61, 100
5, 7248, Note_off_c, 3, 61, 0
5, 7248, Note_on_c, 3, 61, 100
5, 7254, Note_off_c, 3, 61, 0
5, 7254, Note_on_c, 3, 61, 100
5, 7260, Note_off_c, 3, 61, 0
5, 7260, Note_on_c, 3, 61, 100
5, 7266, Note_off_c, 3, 61, 0
5, 7266, Note_on_c, 3, 61, 100
5, 7269, Note_off_c, 3, 61, 0
5, 7269, Note_on_c, 3, 61, 100
5, 7272, Note_off_c, 3, 61, 0
5, 7272, Note_on_c, 3, 61, 100
5, 7281, Note_off_c, 3, 61, 0
5, 7281, Note_on_c, 3, 61, 100
5, 7293, Note_off_c, 3, 61, 0
5, 7293, Note_on_c, 3, 61, 100
5, 7296, Note_off_c, 3, 61, 0
5, 7296, Note_on_c, 3, 65, 100
5, 7299, Note_off_c, 3, 65, 0
5, 7299, Note_on_c, 3, 65, 100
5, 7302, Note_off_c, 3, 65, 0
5, 7302, Note_on_c, 3, 65, 100
5, 7305, Note_off_c, 3, 65, 0
5, 7305, Note_on_c, 3, 65, 100
5, 7308, Note_off_c, 3, 65, 0
5, 7308, Note_on_c, 3, 65, 100
5, 7311, Note_off_c, 3, 65, 0
5, 7311, Note_on_c, 3, 65, 100
5, 7320, Note_off_c, 3, 65, 0
5, 7320, Note_on_c, 3, 64, 100
5, 7326, Note_off_c, 3, 64, 0
5, 7326, Note_on_c, 3, 64, 100
5, 7329, Note_off_c, 3, 64, 0
5, 7329, Note_on_c, 3, 64, 100
5, 7338, Note_off_c, 3, 64, 0
5, 7338, Note_on_c, 3, 64, 100
5, 7344, Note_off_c, 3, 64, 0
5, 7344, Note_on_c, 3, 62, 100
5, 7353, Note_off_c, 3, 62, 0
5, 7353, Note_on_c, 3, 62, 100
5, 7356, Note_off_c, 3, 62, 0
5, 7356, Note_on_c, 3, 62, 100
5, 7365, Note_off_c, 3, 62, 0
5, 7365, Note_on_c, 3, 62, 100
5, 7368, Note_off_c, 3, 62, 0
5, 7368, Note_on_c, 3, 61, 100
5, 7380, Note_off_c, 3, 61, 0
5, 7380, Note_on_c, 3, 61, 100
5, 7386, Note_off_c, 3, 61, 0
5, 7386, Note_on_c, 3, 61, 100
5, 7392, Note_off_c, 3, 61, 0
5, 7392, Note_on_c, 3, 61, 100
5, 7398, Note_off_c, 3, 61, 0
5, 7398, Note_on_c, 3, 61, 100
5, 7404, Note_off_c, 3, 61, 0
5, 7404, Note_on_c, 3, 61, 100
5, 7416, Note_off_c, 3, 61, 0
5, 7416, Note_on_c, 3, 61, 100
5, 7434, Note_off_c, 3, 61, 0
5, 7434, Note_on_c, 3, 61, 100
5, 7446, Note_off_c, 3, 61, 0
5, 7446, Note_on_c, 3, 61, 100
5, 7449, Note_off_c, 3, 61, 0
5, 7449, Note_on_c, 3, 61, 100
5, 7464, Note_off_c, 3, 61, 0
5, 7464, Note_on_c, 3, 61, 100
5, 7467, Note_off_c, 3, 61, 0
5, 7467, Note_on_c, 3, 61, 100
5, 7485, Note_off_c, 3, 61, 0
5, 7485, Note_on_c, 3, 61, 100
5, 7488, Note_off_c, 3, 61, 0
5, 7488, Note_on_c, 3, 69, 100
5, 7494, Note_off_c, 3, 69, 0
5, 7494, Note_on_c, 3, 69, 100
5, 7497, Note_off_c, 3, 69, 0
5, 7497, Note_on_c, 3, 69, 100
5, 7500, Note_off_c, 3, 69, 0
5, 7500, Note_on_c, 3, 69, 100
5, 7503, Note_off_c, 3, 69, 0
5, 7503, Note_on_c, 3, 69, 100
5, 7506, Note_off_c, 3, 69, 0
5, 7506, Note_on_c, 3, 69, 100
5, 7512, Note_off_c, 3, 69, 0
5, 7512, Note_on_c, 3, 69, 100
5, 7515, Note_off_c, 3, 69, 0
5, 7515, Note_on_c, 3, 69, 100
5, 7518, Note_off_c, 3, 69, 0
5, 7518, Note_on_c, 3, 69, 100
5, 7521, Note_off_c, 3, 69, 0
5, 7521, Note_on_c, 3, 69, 100
5, 7527, Note_off_c, 3, 69, 0
5, 7527, Note_on_c, 3, 69, 100
5, 7530, Note_off_c, 3, 69, 0
5, 7530, Note_on_c, 3, 69, 100
5, 7533, Note_off_c, 3, 69, 0
5, 7533, Note_on_c, 3, 69, 100
5, 7536, Note_off_c, 3, 69, 0
5, 7536, Note_on_c, 3, 69, 100
5, 7542, Note_off_c, 3, 69, 0
5, 7542, Note_on_c, 3, 69, 100
5, 7551, Note_off_c, 3, 69, 0
5, 7551, Note_on_c, 3, 69, 100
5, 7554, Note_off_c, 3, 69, 0
5, 7554, Note_on_c, 3, 69, 100
5, 7563, Note_off_c, 3, 69, 0
5, 7563, Note_on_c, 3, 69, 100
5, 7566, Note_off_c, 3, 69, 0
5, 7566, Note_on_c, 3, 69, 100
5, 7572, Note_off_c, 3, 69, 0
5, 7572, Note_on_c, 3, 69, 100
5, 7575, Note_off_c, 3, 69, 0
5, 7575, Note_on_c, 3, 69, 100
5, 7578, Note_off_c, 3, 69, 0
5, 7578, Note_on_c, 3, 69, 100
5, 7584, Note_off_c, 3, 69, 0
5, 7584, Note_on_c, 3, 68, 100
5, 7590, Note_off_c, 3, 68, 0
5, 7590, Note_on_c, 3, 68, 100
5, 7599, Note_off_c, 3, 68, 0
5, 7599, Note_on_c, 3, 68, 100
5, 7602, Note_off_c, 3, 68, 0
5, 7602, Note_on_c, 3, 68, 100
5, 7608, Note_off_c, 3, 68, 0
5, 7608, Note_on_c, 3, 68, 100
5, 7614, Note_off_c, 3, 68, 0
5, 7614, Note_on_c, 3, 68, 100
5, 7617, Note_off_c, 3, 68, 0
5, 7617, Note_on_c, 3, 68, 100
5, 7626, Note_off_c, 3, 68, 0
5, 7626, Note_on_c, 3, 68, 100
5, 7635, Note_off_c, 3, 68, 0
5, 7635, Note_on_c, 3, 68, 100
5, 7641, Note_off_c, 3, 68, 0
5, 7641, Note_on_c, 3, 68, 100
5, 7644, Note_off_c, 3, 68, 0
5, 7644, Note_on_c, 3, 68, 100
5, 7647, Note_off_c, 3, 68, 0
5, 7647, Note_on_c, 3, 68, 100
5, 7650, Note_off_c, 3, 68, 0
5, 7650, Note_on_c, 3, 68, 100
5, 7656, Note_off_c, 3, 68, 0
5, 7656, Note_on_c, 3, 68, 100
5, 7662, Note_off_c, 3, 68, 0
5, 7662, Note_on_c, 3, 68, 100
5, 7665, Note_off_c, 3, 68, 0
5, 7665, Note_on_c, 3, 68, 100
5, 7674, Note_off_c, 3, 68, 0
5, 7674, Note_on_c, 3, 68, 100
5, 7677, Note_off_c, 3, 68, 0
5, 7677, Note_on_c, 3, 68, 100
5, 7680, Note_off_c, 3, 68, 0
5, 7680, Note_on_c, 3, 66, 100
5, 7683, Note_off_c, 3, 66, 0
5, 7683, Note_on_c, 3, 66, 100
5, 7686, Note_off_c, 3, 66, 0
5, 7686, Note_on_c, 3, 66, 100
5, 7689, Note_off_c, 3, 66, 0
5, 7689, Note_on_c, 3, 66, 100
5, 7692, Note_off_c, 3, 66, 0
5, 7692, Note_on_c, 3, 66, 100
5, 7701, Note_off_c, 3, 66, 0
5, 7701, Note_on_c, 3, 66, 100
5, 7704, Note_off_c, 3, 66, 0
5, 7704, Note_on_c, 3, 66, 100
5, 7707, Note_off_c, 3, 66, 0
5, 7707, Note_on_c, 3, 66, 100
5, 7710, Note_off_c, 3, 66, 0
5, 7710, Note_on_c, 3, 66, 100
5, 7719, Note_off_c, 3, 66, 0
5, 7719, Note_on_c, 3, 66, 100
5, 7725, Note_off_c, 3, 66, 0
5, 7725, Note_on_c, 3, 66, 100
5, 7740, Note_off_c, 3, 66, 0
5, 7740, Note_on_c, 3, 66, 100
5, 7743, Note_off_c, 3, 66, 0
5, 7743, Note_on_c, 3, 66, 100
5, 7749, Note_off_c, 3, 66, 0
5, 7749, Note_on_c, 3, 66, 100
5, 7753, Pitch_bend_c, 3, 8448
5, 7757, Pitch_bend_c, 3, 8448
5, 7758, Note_off_c, 3, 66, 0
5, 7758, Note_on_c, 3, 66, 100
5, 7761, Pitch_bend_c, 3, 9472
5, 7766, Pitch_bend_c, 3, 10112
5, 7767, Note_off_c, 3, 66, 0
5, 7767, Note_on_c, 3, 66, 100
5, 7772, Pitch_bend_c, 3, 11392
5, 7776, Note_off_c, 3, 66, 0
5, 7776, Note_on_c, 3, 68, 100
5, 7777, Pitch_bend_c, 3, 8064
5, 7779, Note_off_c, 3, 68, 0
5, 7779, Note_on_c, 3, 68, 100
5, 7785, Note_off_c, 3, 68, 0
5, 7785, Note_on_c, 3, 68, 100
5, 7797, Note_off_c, 3, 68, 0
5, 7797, Note_on_c, 3, 68, 100
5, 7803, Note_off_c, 3, 68, 0
5, 7803, Note_on_c, 3, 68, 100
5, 7812, Note_off_c, 3, 68, 0
5, 7812, Note_on_c, 3, 68, 100
5, 7815, Note_off_c, 3, 68, 0
5, 7815, Note_on_c, 3, 68, 100
5, 7824, Note_off_c, 3, 68, 0
5, 7824, Note_on_c, 3, 68, 100
5, 7830, Note_off_c, 3, 68, 0
5, 7830, Note_on_c, 3, 68, 100
5, 7833, Note_off_c, 3, 68, 0
5, 7833, Note_on_c, 3, 68, 100
5, 7836, Note_off_c, 3, 68, 0
5, 7836, Note_on_c, 3, 68, 100
5, 7842, Note_off_c, 3, 68, 0
5, 7842, Note_on_c, 3, 68, 100
5, 7849, Pitch_bend_c, 3, 7680
5, 7854, Note_off_c, 3, 68, 0
5, 7854, Note_on_c, 3, 68, 100
5, 7854, Pitch_bend_c, 3, 6016
5, 7857, Note_off_c, 3, 68, 0
5, 7857, Note_on_c, 3, 68, 100
5, 7860, Pitch_bend_c, 3, 4736
5, 7862, Pitch_bend_c, 3, 2944
5, 7865, Pitch_bend_c, 3, 6016
5, 7866, Pitch_bend_c, 3, 2688
5, 7871, Pitch_bend_c, 3, 7680
5, 7872, Note_off_c, 3, 68, 0
5, 7872, Note_on_c, 3, 65, 100
5, 7881, Note_off_c, 3, 65, 0
5, 7881, Note_on_c, 3, 65, 100
5, 7884, Note_off_c, 3, 65, 0
5, 7884, Note_on_c, 3, 65, 100
5, 7890, Note_off_c, 3, 65, 0
5, 7890, Note_on_c, 3, 65, 100
5, 7902, Note_off_c, 3, 65, 0
5, 7902, Note_on_c, 3, 65, 100
5, 7905, Note_off_c, 3, 65, 0
5, 7905, Note_on_c, 3, 65, 100
5, 7911, Note_off_c, 3, 65, 0
5, 7911, Note_on_c, 3, 65, 100
5, 7920, Note_off_c, 3, 65, 0
5, 7920, Note_on_c, 3, 65, 100
5, 7923, Note_off_c, 3, 65, 0
5, 7923, Note_on_c, 3, 65, 100
5, 7929, Note_off_c, 3, 65, 0
5, 7929, Note_on_c, 3, 65, 100
5, 7938, Note_off_c, 3, 65, 0
5, 7938, Note_on_c, 3, 65, 100
5, 7941, Note_off_c, 3, 65, 0
5, 7941, Note_on_c, 3, 65, 100
5, 7944, Note_off_c, 3, 65, 0
5, 7944, Note_on_c, 3, 65, 100
5, 7950, Note_off_c, 3, 65, 0
5, 7950, Note_on_c, 3, 65, 100
5, 7956, Note_off_c, 3, 65, 0
5, 7956, Note_on_c, 3, 65, 100
5, 7962, Note_off_c, 3, 65, 0
5, 7962, Note_on_c, 3, 65, 100
5, 7977, Note_off_c, 3, 65, 0
5, 7977, Note_on_c, 3, 65, 100
5, 7980, Note_off_c, 3, 65, 0
5, 7980, Note_on_c, 3, 65, 100
5, 7986, Note_off_c, 3, 65, 0
5, 7986, Note_on_c, 3, 65, 100
5, 7995, Note_off_c, 3, 65, 0
5, 7995, Note_on_c, 3, 65, 100
5, 8004, Note_off_c, 3, 65, 0
5, 8004, Note_on_c, 3, 65, 100
5, 8007, Note_off_c, 3, 65, 0
5, 8007, Note_on_c, 3, 65, 100
5, 8016, Note_off_c, 3, 65, 0
5, 8016, Note_on_c, 3, 72, 100
5, 8025, Note_off_c, 3, 72, 0
5, 8025, Note_on_c, 3, 72, 100
5, 8028, Note_off_c, 3, 72, 0
5, 8031, Note_on_c, 3, 72, 100
5, 8037, Note_off_c, 3, 72, 0
5, 8037, Note_on_c, 3, 72, 100
5, 8040, Note_off_c, 3, 72, 0
5, 8040, Note_on_c, 3, 72, 100
5, 8046, Note_off_c, 3, 72, 0
5, 8046, Note_on_c, 3, 72, 100
5, 8055, Note_off_c, 3, 72, 0
5, 8055, Note_on_c, 3, 72, 100
5, 8064, Note_off_c, 3, 72, 0
5, 8064, Note_on_c, 3, 71, 100
5, 8073, Note_off_c, 3, 71, 0
5, 8073, Note_on_c, 3, 71, 100
5, 8076, Note_off_c, 3, 71, 0
5, 8076, Note_on_c, 3, 71, 100
5, 8088, Note_off_c, 3, 71, 0
5, 8088, Note_on_c, 3, 71, 100
5, 8097, Note_off_c, 3, 71, 0
5, 8097, Note_on_c, 3, 71, 100
5, 8100, Note_off_c, 3, 71, 0
5, 8100, Note_on_c, 3, 71, 100
5, 8109, Note_off_c, 3, 71, 0
5, 8109, Note_on_c, 3, 71, 100
5, 8112, Note_off_c, 3, 71, 0
5, 8112, Note_on_c, 3, 71, 100
5, 8112, Note_on_c, 3, 71, 100
5, 8115, Note_off_c, 3, 71, 0
5, 8115, Note_off_c, 3, 71, 0
5, 8115, Note_on_c, 3, 71, 100
5, 8124, Note_off_c, 3, 71, 0
5, 8124, Note_on_c, 3, 71, 100
5, 8127, Note_off_c, 3, 71, 0
5, 8127, Note_on_c, 3, 71, 100
5, 8133, Note_off_c, 3, 71, 0
5, 8133, Note_on_c, 3, 71, 100
5, 8145, Note_off_c, 3, 71, 0
5, 8148, Note_on_c, 3, 69, 100
5, 8151, Note_off_c, 3, 69, 0
5, 8151, Note_on_c, 3, 69, 100
5, 8163, Note_off_c, 3, 69, 0
5, 8163, Note_on_c, 3, 69, 100
5, 8169, Note_off_c, 3, 69, 0
5, 8169, Note_on_c, 3, 69, 100
5, 8175, Note_off_c, 3, 69, 0
5, 8175, Note_on_c, 3, 69, 100
5, 8184, Note_off_c, 3, 69, 0
5, 8184, Note_on_c, 3, 69, 100
5, 8196, Note_off_c, 3, 69, 0
5, 8196, Note_on_c, 3, 69, 100
5, 8208, Note_off_c, 3, 69, 0
5, 8208, Note_on_c, 3, 69, 100
5, 8211, Note_off_c, 3, 69, 0
5, 8211, Note_on_c, 3, 69, 100
5, 8214, Note_off_c, 3, 69, 0
5, 8214, Note_on_c, 3, 69, 100
5, 8229, Note_off_c, 3, 69, 0
5, 8229, Note_on_c, 3, 69, 100
5, 8232, Note_off_c, 3, 69, 0
5, 8232, Note_on_c, 3, 69, 100
5, 8238, Note_off_c, 3, 69, 0
5, 8238, Note_on_c, 3, 69, 100
5, 8247, Note_off_c, 3, 69, 0
5, 8247, Note_on_c, 3, 69, 100
5, 8250, Note_off_c, 3, 69, 0
5, 8250, Note_on_c, 3, 69, 100
5, 8256, Note_off_c, 3, 69, 0
5, 8256, Note_on_c, 3, 65, 100
5, 8262, Note_off_c, 3, 65, 0
5, 8262, Note_on_c, 3, 65, 100
5, 8265, Note_off_c, 3, 65, 0
5, 8265, Note_on_c, 3, 65, 100
5, 8268, Note_off_c, 3, 65, 0
5, 8268, Note_on_c, 3, 65, 100
5, 8277, Note_off_c, 3, 65, 0
5, 8277, Note_on_c, 3, 65, 100
5, 8280, Note_off_c, 3, 65, 0
5, 8280, Note_on_c, 3, 64, 100
5, 8286, Note_off_c, 3, 64, 0
5, 8286, Note_on_c, 3, 64, 100
5, 8292, Note_off_c, 3, 64, 0
5, 8292, Note_on_c, 3, 64, 100
5, 8295, Note_off_c, 3, 64, 0
5, 8295, Note_on_c, 3, 64, 100
5, 8304, Note_off_c, 3, 64, 0
5, 8304, Note_on_c, 3, 62, 100
5, 8310, Note_off_c, 3, 62, 0
5, 8310, Note_on_c, 3, 62, 100
5, 8316, Note_off_c, 3, 62, 0
5, 8316, Note_on_c, 3, 62, 100
5, 8319, Note_off_c, 3, 62, 0
5, 8319, Note_on_c, 3, 62, 100
5, 8328, Note_off_c, 3, 62, 0
5, 8328, Note_on_c, 3, 61, 100
5, 8337, Note_off_c, 3, 61, 0
5, 8337, Note_on_c, 3, 61, 100
5, 8340, Note_off_c, 3, 61, 0
5, 8340, Note_on_c, 3, 61, 100
5, 8343, Note_off_c, 3, 61, 0
5, 8343, Note_on_c, 3, 61, 100
5, 8349, Note_off_c, 3, 61, 0
5, 8349, Note_on_c, 3, 61, 100
5, 8355, Note_off_c, 3, 61, 0
5, 8355, Note_on_c, 3, 61, 100
5, 8361, Note_off_c, 3, 61, 0
5, 8361, Note_on_c, 3, 61, 100
5, 8370, Note_off_c, 3, 61, 0
5, 8370, Note_on_c, 3, 61, 100
5, 8376, Note_off_c, 3, 61, 0
5, 8376, Note_on_c, 3, 61, 100
5, 8385, Note_off_c, 3, 61, 0
5, 8385, Note_on_c, 3, 61, 100
5, 8388, Note_off_c, 3, 61, 0
5, 8388, Note_on_c, 3, 61, 100
5, 8397, Note_off_c, 3, 61, 0
5, 8397, Note_on_c, 3, 61, 100
5, 8400, Note_off_c, 3, 61, 0
5, 8400, Note_on_c, 3, 61, 100
5, 8406, Note_off_c, 3, 61, 0
5, 8406, Note_on_c, 3, 61, 100
5, 8412, Note_off_c, 3, 61, 0
5, 8412, Note_on_c, 3, 61, 100
5, 8418, Note_off_c, 3, 61, 0
5, 8418, Note_on_c, 3, 61, 100
5, 8421, Note_off_c, 3, 61, 0
5, 8421, Note_on_c, 3, 61, 100
5, 8424, Note_off_c, 3, 61, 0
5, 8424, Note_on_c, 3, 61, 100
5, 8433, Note_off_c, 3, 61, 0
5, 8433, Note_on_c, 3, 61, 100
5, 8445, Note_off_c, 3, 61, 0
5, 8445, Note_on_c, 3, 61, 100
5, 8448, Note_off_c, 3, 61, 0
5, 8448, Note_on_c, 3, 65, 100
5, 8451, Note_off_c, 3, 65, 0
5, 8451, Note_on_c, 3, 65, 100
5, 8454, Note_off_c, 3, 65, 0
5, 8454, Note_on_c, 3, 65, 100
5, 8457, Note_off_c, 3, 65, 0
5, 8457, Note_on_c, 3, 65, 100
5, 8460, Note_off_c, 3, 65, 0
5, 8460, Note_on_c, 3, 65, 100
5, 8463, Note_off_c, 3, 65, 0
5, 8463, Note_on_c, 3, 65, 100
5, 8472, Note_off_c, 3, 65, 0
5, 8472, Note_on_c, 3, 64, 100
5, 8478, Note_off_c, 3, 64, 0
5, 8478, Note_on_c, 3, 64, 100
5, 8481, Note_off_c, 3, 64, 0
5, 8481, Note_on_c, 3, 64, 100
5, 8490, Note_off_c, 3, 64, 0
5, 8490, Note_on_c, 3, 64, 100
5, 8496, Note_off_c, 3, 64, 0
5, 8496, Note_on_c, 3, 62, 100
5, 8505, Note_off_c, 3, 62, 0
5, 8505, Note_on_c, 3, 62, 100
5, 8508, Note_off_c, 3, 62, 0
5, 8508, Note_on_c, 3, 62, 100
5, 8517, Note_off_c, 3, 62, 0
5, 8517, Note_on_c, 3, 62, 100
5, 8520, Note_off_c, 3, 62, 0
5, 8520, Note_on_c, 3, 61, 100
5, 8532, Note_off_c, 3, 61, 0
5, 8532, Note_on_c, 3, 61, 100
5, 8538, Note_off_c, 3, 61, 0
5, 8538, Note_on_c, 3, 61, 100
5, 8544, Note_off_c, 3, 61, 0
5, 8544, Note_on_c, 3, 61, 100
5, 8550, Note_off_c, 3, 61, 0
5, 8550, Note_on_c, 3, 61, 100
5, 8556, Note_off_c, 3, 61, 0
5, 8556, Note_on_c, 3, 61, 100
5, 8568, Note_off_c, 3, 61, 0
5, 8568, Note_on_c, 3, 61, 100
5, 8586, Note_off_c, 3, 61, 0
5, 8586, Note_on_c, 3, 61, 100
5, 8598, Note_off_c, 3, 61, 0
5, 8598, Note_on_c, 3, 61, 100
5, 8601, Note_off_c, 3, 61, 0
5, 8601, Note_on_c, 3, 61, 100
5, 8616, Note_off_c, 3, 61, 0
5, 8616, Note_on_c, 3, 61, 100
5, 8619, Note_off_c, 3, 61, 0
5, 8619, Note_on_c, 3, 61, 100
5, 8637, Note_off_c, 3, 61, 0
5, 8637, Note_on_c, 3, 61, 100
5, 8640, Note_off_c, 3, 61, 0
5, 8640, Note_on_c, 3, 47, 100
5, 8640, Note_on_c, 3, 54, 100
5, 8664, Note_off_c, 3, 47, 0
5, 8664, Note_off_c, 3, 54, 0
5, 8664, Note_on_c, 3, 47, 100
5, 8664, Note_on_c, 3, 54, 100
5, 8688, Note_off_c, 3, 47, 0
5, 8688, Note_off_c, 3, 54, 0
5, 8688, Note_on_c, 3, 47, 79
5, 8688, Note_on_c, 3, 54, 79
5, 8712, Note_off_c, 3, 47, 0
5, 8712, Note_off_c, 3, 54, 0
5, 8712, Note_on_c, 3, 47, 79
5, 8712, Note_on_c, 3, 54, 79
5, 8736, Note_off_c, 3, 47, 0
5, 8736, Note_off_c, 3, 54, 0
5, 8736, Note_on_c, 3, 47, 81
5, 8736, Note_on_c, 3, 54, 81
5, 8760, Note_off_c, 3, 47, 0
5, 8760, Note_off_c, 3, 54, 0
5, 8760, Note_on_c, 3, 47, 105
5, 8760, Note_on_c, 3, 54, 105
5, 8784, Note_off_c, 3, 47, 0
5, 8784, Note_off_c, 3, 54, 0
5, 8784, Note_on_c, 3, 47, 105
5, 8784, Note_on_c, 3, 54, 105
5, 8808, Note_off_c, 3, 47, 0
5, 8808, Note_off_c, 3, 54, 0
5, 8808, Note_on_c, 3, 47, 84
5, 8808, Note_on_c, 3, 54, 84
5, 8832, Note_off_c, 3, 47, 0
5, 8832, Note_off_c, 3, 54, 0
5, 8832, Note_on_c, 3, 42, 108
5, 8832, Note_on_c, 3, 49, 108
5, 8856, Note_off_c, 3, 42, 0
5, 8856, Note_off_c, 3, 49, 0
5, 8856, Note_on_c, 3, 42, 87
5, 8856, Note_on_c, 3, 49, 87
5, 8880, Note_off_c, 3, 42, 0
5, 8880, Note_off_c, 3, 49, 0
5, 8880, Note_on_c, 3, 42, 87
5, 8880, Note_on_c, 3, 49, 87
5, 8904, Note_off_c, 3, 42, 0
5, 8904, Note_off_c, 3, 49, 0
5, 8904, Note_on_c, 3, 42, 87
5, 8904, Note_on_c, 3, 49, 87
5, 8928, Note_off_c, 3, 42, 0
5, 8928, Note_off_c, 3, 49, 0
5, 8928, Note_on_c, 3, 42, 87
5, 8928, Note_on_c, 3, 49, 87
5, 8952, Note_off_c, 3, 42, 0
5, 8952, Note_off_c, 3, 49, 0
5, 8952, Note_on_c, 3, 42, 108
5, 8952, Note_on_c, 3, 49, 108
5, 8976, Note_off_c, 3, 42, 0
5, 8976, Note_off_c, 3, 49, 0
5, 8976, Note_on_c, 3, 42, 87
5, 8976, Note_on_c, 3, 49, 87
5, 9000, Note_off_c, 3, 42, 0
5, 9000, Note_off_c, 3, 49, 0
5, 9000, Note_on_c, 3, 42, 87
5, 9000, Note_on_c, 3, 49, 87
5, 9024, Note_off_c, 3, 42, 0
5, 9024, Note_off_c, 3, 49, 0
5, 9024, Note_on_c, 3, 40, 87
5, 9024, Note_on_c, 3, 47, 87
5, 9048, Note_off_c, 3, 40, 0
5, 9048, Note_off_c, 3, 47, 0
5, 9048, Note_on_c, 3, 40, 108
5, 9048, Note_on_c, 3, 47, 108
5, 9072, Note_off_c, 3, 40, 0
5, 9072, Note_off_c, 3, 47, 0
5, 9072, Note_on_c, 3, 40, 108
5, 9072, Note_on_c, 3, 47, 108
5, 9096, Note_off_c, 3, 40, 0
5, 9096, Note_off_c, 3, 47, 0
5, 9096, Note_on_c, 3, 40, 87
5, 9096, Note_on_c, 3, 47, 87
5, 9120, Note_off_c, 3, 40, 0
5, 9120, Note_off_c, 3, 47, 0
5, 9120, Note_on_c, 3, 40, 87
5, 9120, Note_on_c, 3, 47, 87
5, 9144, Note_off_c, 3, 40, 0
5, 9144, Note_off_c, 3, 47, 0
5, 9144, Note_on_c, 3, 40, 108
5, 9144, Note_on_c, 3, 47, 108
5, 9168, Note_off_c, 3, 40, 0
5, 9168, Note_off_c, 3, 47, 0
5, 9168, Note_on_c, 3, 40, 87
5, 9168, Note_on_c, 3, 47, 87
5, 9192, Note_off_c, 3, 40, 0
5, 9192, Note_off_c, 3, 47, 0
5, 9192, Note_on_c, 3, 40, 108
5, 9192, Note_on_c, 3, 47, 108
5, 9216, Note_off_c, 3, 40, 0
5, 9216, Note_off_c, 3, 47, 0
5, 9216, Note_on_c, 3, 40, 87
5, 9216, Note_on_c, 3, 47, 87
5, 9240, Note_off_c, 3, 40, 0
5, 9240, Note_off_c, 3, 47, 0
5, 9240, Note_on_c, 3, 40, 87
5, 9240, Note_on_c, 3, 47, 87
5, 9264, Note_off_c, 3, 40, 0
5, 9264, Note_off_c, 3, 47, 0
5, 9264, Note_on_c, 3, 40, 87
5, 9264, Note_on_c, 3, 47, 87
5, 9288, Note_off_c, 3, 40, 0
5, 9288, Note_off_c, 3, 47, 0
5, 9288, Note_on_c, 3, 40, 81
5, 9288, Note_on_c, 3, 47, 81
5, 9312, Note_off_c, 3, 40, 0
5, 9312, Note_off_c, 3, 47, 0
5, 9312, Note_on_c, 3, 40, 81
5, 9312, Note_on_c, 3, 47, 81
5, 9336, Note_off_c, 3, 40, 0
5, 9336, Note_off_c, 3, 47, 0
5, 9336, Note_on_c, 3, 40, 103
5, 9336, Note_on_c, 3, 47, 103
5, 9360, Note_off_c, 3, 40, 0
5, 9360, Note_off_c, 3, 47, 0
5, 9360, Note_on_c, 3, 40, 84
5, 9360, Note_on_c, 3, 47, 84
5, 9384, Note_off_c, 3, 40, 0
5, 9384, Note_off_c, 3, 47, 0
5, 9384, Note_on_c, 3, 40, 84
5, 9384, Note_on_c, 3, 47, 84
5, 9408, Note_off_c, 3, 40, 0
5, 9408, Note_off_c, 3, 47, 0
5, 9408, Note_on_c, 3, 45, 100
5, 9408, Note_on_c, 3, 52, 100
5, 9792, Note_off_c, 3, 45, 0
5, 9792, Note_off_c, 3, 52, 0
5, 9792, Note_on_c, 3, 69, 100
5, 9798, Note_off_c, 3, 69, 0
5, 9798, Note_on_c, 3, 69, 100
5, 9801, Note_off_c, 3, 69, 0
5, 9801, Note_on_c, 3, 69, 100
5, 9804, Note_off_c, 3, 69, 0
5, 9804, Note_on_c, 3, 69, 100
5, 9807, Note_off_c, 3, 69, 0
5, 9807, Note_on_c, 3, 69, 100
5, 9810, Note_off_c, 3, 69, 0
5, 9810, Note_on_c, 3, 69, 100
5, 9816, Note_off_c, 3, 69, 0
5, 9816, Note_on_c, 3, 69, 100
5, 9819, Note_off_c, 3, 69, 0
5, 9819, Note_on_c, 3, 69, 100
5, 9822, Note_off_c, 3, 69, 0
5, 9822, Note_on_c, 3, 69, 100
5, 9825, Note_off_c, 3, 69, 0
5, 9825, Note_on_c, 3, 69, 100
5, 9831, Note_off_c, 3, 69, 0
5, 9831, Note_on_c, 3, 69, 100
5, 9834, Note_off_c, 3, 69, 0
5, 9834, Note_on_c, 3, 69, 100
5, 9837, Note_off_c, 3, 69, 0
5, 9837, Note_on_c, 3, 69, 100
5, 9840, Note_off_c, 3, 69, 0
5, 9840, Note_on_c, 3, 69, 100
5, 9846, Note_off_c, 3, 69, 0
5, 9846, Note_on_c, 3, 69, 100
5, 9855, Note_off_c, 3, 69, 0
5, 9855, Note_on_c, 3, 69, 100
5, 9858, Note_off_c, 3, 69, 0
5, 9858, Note_on_c, 3, 69, 100
5, 9867, Note_off_c, 3, 69, 0
5, 9867, Note_on_c, 3, 69, 100
5, 9870, Note_off_c, 3, 69, 0
5, 9870, Note_on_c, 3, 69, 100
5, 9876, Note_off_c, 3, 69, 0
5, 9876, Note_on_c, 3, 69, 100
5, 9879, Note_off_c, 3, 69, 0
5, 9879, Note_on_c, 3, 69, 100
5, 9882, Note_off_c, 3, 69, 0
5, 9882, Note_on_c, 3, 69, 100
5, 9888, Note_off_c, 3, 69, 0
5, 9888, Note_on_c, 3, 68, 100
5, 9894, Note_off_c, 3, 68, 0
5, 9894, Note_on_c, 3, 68, 100
5, 9903, Note_off_c, 3, 68, 0
5, 9903, Note_on_c, 3, 68, 100
5, 9906, Note_off_c, 3, 68, 0
5, 9906, Note_on_c, 3, 68, 100
5, 9912, Note_off_c, 3, 68, 0
5, 9912, Note_on_c, 3, 68, 100
5, 9918, Note_off_c, 3, 68, 0
5, 9918, Note_on_c, 3, 68, 100
5, 9921, Note_off_c, 3, 68, 0
5, 9921, Note_on_c, 3, 68, 100
5, 9930, Note_off_c, 3, 68, 0
5, 9930, Note_on_c, 3, 68, 100
5, 9939, Note_off_c, 3, 68, 0
5, 9939, Note_on_c, 3, 68, 100
5, 9945, Note_off_c, 3, 68, 0
5, 9945, Note_on_c, 3, 68, 100
5, 9948, Note_off_c, 3, 68, 0
5, 9948, Note_on_c, 3, 68, 100
5, 9951, Note_off_c, 3, 68, 0
5, 9951, Note_on_c, 3, 68, 100
5, 9954, Note_off_c, 3, 68, 0
5, 9954, Note_on_c, 3, 68, 100
5, 9960, Note_off_c, 3, 68, 0
5, 9960, Note_on_c, 3, 68, 100
5, 9966, Note_off_c, 3, 68, 0
5, 9966, Note_on_c, 3, 68, 100
5, 9969, Note_off_c, 3, 68, 0
5, 9969, Note_on_c, 3, 68, 100
5, 9978, Note_off_c, 3, 68, 0
5, 9978, Note_on_c, 3, 68, 100
5, 9981, Note_off_c, 3, 68, 0
5, 9981, Note_on_c, 3, 68, 100
5, 9984, Note_off_c, 3, 68, 0
5, 9984, Note_on_c, 3, 66, 100
5, 9987, Note_off_c, 3, 66, 0
5, 9987, Note_on_c, 3, 66, 100
5, 9990, Note_off_c, 3, 66, 0
5, 9990, Note_on_c, 3, 66, 100
5, 9993, Note_off_c, 3, 66, 0
5, 9993, Note_on_c, 3, 66, 100
5, 9996, Note_off_c, 3, 66, 0
5, 9996, Note_on_c, 3, 66, 100
5, 10005, Note_off_c, 3, 66, 0
5, 10005, Note_on_c, 3, 66, 100
5, 10008, Note_off_c, 3, 66, 0
5, 10008, Note_on_c, 3, 66, 100
5, 10011, Note_off_c, 3, 66, 0
5, 10011, Note_on_c, 3, 66, 100
5, 10014, Note_off_c, 3, 66, 0
5, 10014, Note_on_c, 3, 66, 100
5, 10023, Note_off_c, 3, 66, 0
5, 10023, Note_on_c, 3, 66, 100
5, 10029, Note_off_c, 3, 66, 0
5, 10029, Note_on_c, 3, 66, 100
5, 10044, Note_off_c, 3, 66, 0
5, 10044, Note_on_c, 3, 66, 100
5, 10047, Note_off_c, 3, 66, 0
5, 10047, Note_on_c, 3, 66, 100
5, 10053, Note_off_c, 3, 66, 0
5, 10053, Note_on_c, 3, 66, 100
5, 10057, Pitch_bend_c, 3, 8448
5, 10061, Pitch_bend_c, 3, 8448
5, 10062, Note_off_c, 3, 66, 0
5, 10062, Note_on_c, 3, 66, 100
5, 10065, Pitch_bend_c, 3, 9472
5, 10070, Pitch_bend_c, 3, 10112
5, 10071, Note_off_c, 3, 66, 0
5, 10071, Note_on_c, 3, 66, 100
5, 10076, Pitch_bend_c, 3, 11392
5, 10080, Note_off_c, 3, 66, 0
5, 10080, Note_on_c, 3, 68, 100
5, 10081, Pitch_bend_c, 3, 8064
5, 10083, Note_off_c, 3, 68, 0
5, 10083, Note_on_c, 3, 68, 100
5, 10089, Note_off_c, 3, 68, 0
5, 10089, Note_on_c, 3, 68, 100
5, 10101, Note_off_c, 3, 68, 0
5, 10101, Note_on_c, 3, 68, 100
5, 10107, Note_off_c, 3, 68, 0
5, 10107, Note_on_c, 3, 68, 100
5, 10116, Note_off_c, 3, 68, 0
5, 10116, Note_on_c, 3, 68, 100
5, 10119, Note_off_c, 3, 68, 0
5, 10119, Note_on_c, 3, 68, 100
5, 10128, Note_off_c, 3, 68, 0
5, 10128, Note_on_c, 3, 68, 100
5, 10134, Note_off_c, 3, 68, 0
5, 10134, Note_on_c, 3, 68, 100
5, 10137, Note_off_c, 3, 68, 0
5, 10137, Note_on_c, 3, 68, 100
5, 10140, Note_off_c, 3, 68, 0
5, 10140, Note_on_c, 3, 68, 100
5, 10146, Note_off_c, 3, 68, 0
5, 10146, Note_on_c, 3, 68, 100
5, 10153, Pitch_bend_c, 3, 7680
5, 10158, Note_off_c, 3, 68, 0
5, 10158, Note_on_c, 3, 68, 100
5, 10158, Pitch_bend_c, 3, 6016
5, 10161, Note_off_c, 3, 68, 0
5, 10161, Note_on_c, 3, 68, 100
5, 10164, Pitch_bend_c, 3, 4736
5, 10166, Pitch_bend_c, 3, 2944
5, 10169, Pitch_bend_c, 3, 6016
5, 10170, Pitch_bend_c, 3, 2688
5, 10175, Pitch_bend_c, 3, 7680
5, 10176, Note_off_c, 3, 68, 0
5, 10176, Note_on_c, 3, 65, 100
5, 10185, Note_off_c, 3, 65, 0
5, 10185, Note_on_c, 3, 65, 100
5, 10188, Note_off_c, 3, 65, 0
5, 10188, Note_on_c, 3, 65, 100
5, 10194, Note_off_c, 3, 65, 0
5, 10194, Note_on_c, 3, 65, 100
5, 10200, Note_on_c, 3, 72, 100
5, 10203, Note_off_c, 3, 72, 0
5, 10203, Note_on_c, 3, 72, 100
5, 10206, Note_off_c, 3, 65, 0
5, 10206, Note_on_c, 3, 65, 100
5, 10209, Note_off_c, 3, 72, 0
5, 10209, Note_off_c, 3, 65, 0
5, 10209, Note_on_c, 3, 65, 100
5, 10209, Note_on_c, 3, 72, 100
5, 10212, Note_on_c, 3, 65, 100
5, 10215, Note_off_c, 3, 65, 0
5, 10218, Note_off_c, 3, 72, 0
5, 10218, Note_on_c, 3, 72, 100
5, 10221, Note_off_c, 3, 65, 0
5, 10224, Note_on_c, 3, 65, 100
5, 10224, Note_on_c, 3, 71, 100
5, 10224, Note_on_c, 3, 72, 100
5, 10227, Note_off_c, 3, 72, 0
5, 10227, Note_off_c, 3, 65, 0
5, 10227, Note_off_c, 3, 71, 0
5, 10227, Note_on_c, 3, 65, 100
5, 10227, Note_on_c, 3, 71, 100
5, 10233, Note_off_c, 3, 72, 0
5, 10233, Note_off_c, 3, 65, 0
5, 10233, Note_off_c, 3, 71, 0
5, 10233, Note_on_c, 3, 65, 100
5, 10233, Note_on_c, 3, 71, 100
5, 10242, Note_off_c, 3, 65, 0
5, 10242, Note_off_c, 3, 71, 0
5, 10242, Note_on_c, 3, 65, 100
5, 10242, Note_on_c, 3, 71, 100
5, 10245, Note_off_c, 3, 65, 0
5, 10245, Note_on_c, 3, 65, 100
5, 10248, Note_off_c, 3, 65, 0
5, 10248, Note_on_c, 3, 65, 100
5, 10248, Note_on_c, 3, 69, 100
5, 10248, Note_on_c, 3, 71, 100
5, 10251, Note_off_c, 3, 71, 0
5, 10251, Note_off_c, 3, 69, 0
5, 10251, Note_on_c, 3, 69, 100
5, 10254, Note_off_c, 3, 65, 0
5, 10254, Note_on_c, 3, 65, 100
5, 10257, Note_off_c, 3, 71, 0
5, 10257, Note_off_c, 3, 69, 0
5, 10257, Note_on_c, 3, 69, 100
5, 10260, Note_off_c, 3, 65, 0
5, 10260, Note_on_c, 3, 65, 100
5, 10266, Note_off_c, 3, 69, 0
5, 10266, Note_off_c, 3, 65, 0
5, 10266, Note_on_c, 3, 65, 100
5, 10266, Note_on_c, 3, 69, 100
5, 10272, Note_on_c, 3, 69, 100
5, 10275, Note_off_c, 3, 69, 0
5, 10275, Note_off_c, 3, 69, 0
5, 10275, Note_on_c, 3, 69, 100
5, 10281, Note_off_c, 3, 65, 0
5, 10281, Note_off_c, 3, 69, 0
5, 10281, Note_on_c, 3, 69, 100
5, 10290, Note_off_c, 3, 69, 0
5, 10290, Note_on_c, 3, 69, 100
5, 10296, Note_on_c, 3, 71, 100
5, 10299, Note_off_c, 3, 69, 0
5, 10299, Note_off_c, 3, 71, 0
5, 10299, Note_on_c, 3, 71, 100
5, 10305, Note_on_c, 3, 71, 100
5, 10308, Note_off_c, 3, 71, 0
5, 10317, Note_off_c, 3, 71, 0
5, 10320, Note_on_c, 3, 71, 100
5, 10329, Note_off_c, 3, 71, 0
5, 10329, Note_on_c, 3, 71, 100
5, 10332, Note_off_c, 3, 71, 0
5, 10335, Note_on_c, 3, 71, 100
5, 10341, Note_off_c, 3, 71, 0
5, 10344, Note_on_c, 3, 72, 100
5, 10347, Note_off_c, 3, 72, 0
5, 10347, Note_on_c, 3, 72, 100
5, 10353, Note_off_c, 3, 72, 0
5, 10353, Note_on_c, 3, 72, 100
5, 10362, Note_off_c, 3, 72, 0
5, 10362, Note_on_c, 3, 72, 100
5, 10368, Note_on_c, 3, 72, 100
5, 10371, Note_off_c, 3, 72, 0
5, 10377, Note_off_c, 3, 72, 0
5, 10380, Note_on_c, 3, 72, 100
5, 10383, Note_off_c, 3, 72, 0
5, 10383, Note_on_c, 3, 72, 100
5, 10392, Note_on_c, 3, 71, 100
5, 10395, Note_off_c, 3, 72, 0
5, 10401, Note_off_c, 3, 71, 0
5, 10401, Note_on_c, 3, 71, 100
5, 10404, Note_off_c, 3, 71, 0
5, 10404, Note_on_c, 3, 71, 100
5, 10413, Note_off_c, 3, 71, 0
5, 10416, Note_on_c, 3, 71, 100
5, 10419, Note_off_c, 3, 71, 0
5, 10419, Note_on_c, 3, 71, 100
5, 10419, Note_on_c, 3, 71, 100
5, 10422, Note_off_c, 3, 71, 0
5, 10422, Note_off_c, 3, 71, 0
5, 10422, Note_on_c, 3, 71, 100
5, 10431, Note_off_c, 3, 71, 0
5, 10431, Note_on_c, 3, 71, 100
5, 10434, Note_off_c, 3, 71, 0
5, 10434, Note_on_c, 3, 71, 100
5, 10440, Note_off_c, 3, 71, 0
5, 10440, Note_on_c, 3, 69, 100
5, 10452, Note_off_c, 3, 69, 0
5, 10452, Note_on_c, 3, 69, 100
5, 10455, Note_off_c, 3, 69, 0
5, 10455, Note_on_c, 3, 69, 100
5, 10467, Note_off_c, 3, 69, 0
5, 10467, Note_on_c, 3, 69, 100
5, 10473, Note_off_c, 3, 69, 0
5, 10473, Note_on_c, 3, 69, 100
5, 10479, Note_off_c, 3, 69, 0
5, 10479, Note_on_c, 3, 69, 100
5, 10488, Note_off_c, 3, 69, 0
5, 10488, Note_on_c, 3, 65, 100
5, 10500, Note_off_c, 3, 65, 0
5, 10500, Note_on_c, 3, 65, 100
5, 10512, Note_off_c, 3, 65, 0
5, 10512, Note_on_c, 3, 65, 100
5, 10515, Note_off_c, 3, 65, 0
5, 10515, Note_on_c, 3, 65, 100
5, 10518, Note_off_c, 3, 65, 0
5, 10518, Note_on_c, 3, 65, 100
5, 10533, Note_off_c, 3, 65, 0
5, 10533, Note_on_c, 3, 65, 100
5, 10536, Note_off_c, 3, 65, 0
5, 10536, Note_on_c, 3, 65, 100
5, 10542, Note_off_c, 3, 65, 0
5, 10542, Note_on_c, 3, 65, 100
5, 10551, Note_off_c, 3, 65, 0
5, 10551, Note_on_c, 3, 65, 100
5, 10554, Note_off_c, 3, 65, 0
5, 10554, Note_on_c, 3, 65, 100
5, 10560, Note_off_c, 3, 65, 0
5, 10560, Note_on_c, 3, 65, 100
5, 10566, Note_off_c, 3, 65, 0
5, 10566, Note_on_c, 3, 65, 100
5, 10569, Note_off_c, 3, 65, 0
5, 10569, Note_on_c, 3, 65, 100
5, 10572, Note_off_c, 3, 65, 0
5, 10572, Note_on_c, 3, 65, 100
5, 10581, Note_off_c, 3, 65, 0
5, 10581, Note_on_c, 3, 65, 100
5, 10584, Note_off_c, 3, 65, 0
5, 10584, Note_on_c, 3, 64, 100
5, 10590, Note_off_c, 3, 64, 0
5, 10590, Note_on_c, 3, 64, 100
5, 10596, Note_off_c, 3, 64, 0
5, 10596, Note_on_c, 3, 64, 100
5, 10599, Note_off_c, 3, 64, 0
5, 10599, Note_on_c, 3, 64, 100
5, 10608, Note_off_c, 3, 64, 0
5, 10608, Note_on_c, 3, 62, 100
5, 10614, Note_off_c, 3, 62, 0
5, 10614, Note_on_c, 3, 62, 100
5, 10620, Note_off_c, 3, 62, 0
5, 10620, Note_on_c, 3, 62, 100
5, 10623, Note_off_c, 3, 62, 0
5, 10623, Note_on_c, 3, 62, 100
5, 10632, Note_off_c, 3, 62, 0
5, 10632, Note_on_c, 3, 61, 100
5, 10641, Note_off_c, 3, 61, 0
5, 10641, Note_on_c, 3, 61, 100
5, 10644, Note_off_c, 3, 61, 0
5, 10644, Note_on_c, 3, 61, 100
5, 10647, Note_off_c, 3, 61, 0
5, 10647, Note_on_c, 3, 61, 100
5, 10653, Note_off_c, 3, 61, 0
5, 10653, Note_on_c, 3, 61, 100
5, 10659, Note_off_c, 3, 61, 0
5, 10659, Note_on_c, 3, 61, 100
5, 10665, Note_off_c, 3, 61, 0
5, 10665, Note_on_c, 3, 61, 100
5, 10674, Note_off_c, 3, 61, 0
5, 10674, Note_on_c, 3, 61, 100
5, 10680, Note_off_c, 3, 61, 0
5, 10680, Note_on_c, 3, 61, 100
5, 10689, Note_off_c, 3, 61, 0
5, 10689, Note_on_c, 3, 61, 100
5, 10692, Note_off_c, 3, 61, 0
5, 10692, Note_on_c, 3, 61, 100
5, 10701, Note_off_c, 3, 61, 0
5, 10701, Note_on_c, 3, 61, 100
5, 10704, Note_off_c, 3, 61, 0
5, 10704, Note_on_c, 3, 61, 100
5, 10710, Note_off_c, 3, 61, 0
5, 10710, Note_on_c, 3, 61, 100
5, 10716, Note_off_c, 3, 61, 0
5, 10716, Note_on_c, 3, 61, 100
5, 10722, Note_off_c, 3, 61, 0
5, 10722, Note_on_c, 3, 61, 100
5, 10725, Note_off_c, 3, 61, 0
5, 10725, Note_on_c, 3, 61, 100
5, 10728, Note_off_c, 3, 61, 0
5, 10728, Note_on_c, 3, 61, 100
5, 10737, Note_off_c, 3, 61, 0
5, 10737, Note_on_c, 3, 61, 100
5, 10749, Note_off_c, 3, 61, 0
5, 10749, Note_on_c, 3, 61, 100
5, 10752, Note_off_c, 3, 61, 0
5, 10752, Note_on_c, 3, 65, 100
5, 10755, Note_off_c, 3, 65, 0
5, 10755, Note_on_c, 3, 65, 100
5, 10758, Note_off_c, 3, 65, 0
5, 10758, Note_on_c, 3, 65, 100
5, 10761, Note_off_c, 3, 65, 0
5, 10761, Note_on_c, 3, 65, 100
5, 10764, Note_off_c, 3, 65, 0
5, 10764, Note_on_c, 3, 65, 100
5, 10767, Note_off_c, 3, 65, 0
5, 10767, Note_on_c, 3, 65, 100
5, 10776, Note_off_c, 3, 65, 0
5, 10776, Note_on_c, 3, 64, 100
5, 10782, Note_off_c, 3, 64, 0
5, 10782, Note_on_c, 3, 64, 100
5, 10785, Note_off_c, 3, 64, 0
5, 10785, Note_on_c, 3, 64, 100
5, 10794, Note_off_c, 3, 64, 0
5, 10794, Note_on_c, 3, 64, 100
5, 10800, Note_off_c, 3, 64, 0
5, 10800, Note_on_c, 3, 62, 100
5, 10809, Note_off_c, 3, 62, 0
5, 10809, Note_on_c, 3, 62, 100
5, 10812, Note_off_c, 3, 62, 0
5, 10812, Note_on_c, 3, 62, 100
5, 10821, Note_off_c, 3, 62, 0
5, 10821, Note_on_c, 3, 62, 100
5, 10824, Note_off_c, 3, 62, 0
5, 10824, Note_on_c, 3, 61, 100
5, 10836, Note_off_c, 3, 61, 0
5, 10836, Note_on_c, 3, 61, 100
5, 10842, Note_off_c, 3, 61, 0
5, 10842, Note_on_c, 3, 61, 100
5, 10848, Note_off_c, 3, 61, 0
5, 10848, Note_on_c, 3, 61, 100
5, 10854, Note_off_c, 3, 61, 0
5, 10854, Note_on_c, 3, 61, 100
5, 10860, Note_off_c, 3, 61, 0
5, 10860, Note_on_c, 3, 61, 100
5, 10872, Note_off_c, 3, 61, 0
5, 10872, Note_on_c, 3, 61, 100
5, 10890, Note_off_c, 3, 61, 0
5, 10890, Note_on_c, 3, 61, 100
5, 10902, Note_off_c, 3, 61, 0
5, 10902, Note_on_c, 3, 61, 100
5, 10905, Note_off_c, 3, 61, 0
5, 10905, Note_on_c, 3, 61, 100
5, 10920, Note_off_c, 3, 61, 0
5, 10920, Note_on_c, 3, 61, 100
5, 10923, Note_off_c, 3, 61, 0
5, 10923, Note_on_c, 3, 61, 100
5, 10941, Note_off_c, 3, 61, 0
5, 10941, Note_on_c, 3, 61, 100
5, 10944, Note_off_c, 3, 61, 0
5, 10944, Note_on_c, 3, 69, 100
5, 10950, Note_off_c, 3, 69, 0
5, 10950, Note_on_c, 3, 69, 100
5, 10953, Note_off_c, 3, 69, 0
5, 10953, Note_on_c, 3, 69, 100
5, 10956, Note_off_c, 3, 69, 0
5, 10956, Note_on_c, 3, 69, 100
5, 10959, Note_off_c, 3, 69, 0
5, 10959, Note_on_c, 3, 69, 100
5, 10962, Note_off_c, 3, 69, 0
5, 10962, Note_on_c, 3, 69, 100
5, 10968, Note_off_c, 3, 69, 0
5, 10968, Note_on_c, 3, 69, 100
5, 10971, Note_off_c, 3, 69, 0
5, 10971, Note_on_c, 3, 69, 100
5, 10974, Note_off_c, 3, 69, 0
5, 10974, Note_on_c, 3, 69, 100
5, 10977, Note_off_c, 3, 69, 0
5, 10977, Note_on_c, 3, 69, 100
5, 10983, Note_off_c, 3, 69, 0
5, 10983, Note_on_c, 3, 69, 100
5, 10986, Note_off_c, 3, 69, 0
5, 10986, Note_on_c, 3, 69, 100
5, 10989, Note_off_c, 3, 69, 0
5, 10989, Note_on_c, 3, 69, 100
5, 10992, Note_off_c, 3, 69, 0
5, 10992, Note_on_c, 3, 69, 100
5, 10998, Note_off_c, 3, 69, 0
5, 10998, Note_on_c, 3, 69, 100
5, 11007, Note_off_c, 3, 69, 0
5, 11007, Note_on_c, 3, 69, 100
5, 11010, Note_off_c, 3, 69, 0
5, 11010, Note_on_c, 3, 69, 100
5, 11019, Note_off_c, 3, 69, 0
5, 11019, Note_on_c, 3, 69, 100
5, 11022, Note_off_c, 3, 69, 0
5, 11022, Note_on_c, 3, 69, 100
5, 11028, Note_off_c, 3, 69, 0
5, 11028, Note_on_c, 3, 69, 100
5, 11031, Note_off_c, 3, 69, 0
5, 11031, Note_on_c, 3, 69, 100
5, 11034, Note_off_c, 3, 69, 0
5, 11034, Note_on_c, 3, 69, 100
5, 11040, Note_off_c, 3, 69, 0
5, 11040, Note_on_c, 3, 68, 100
5, 11046, Note_off_c, 3, 68, 0
5, 11046, Note_on_c, 3, 68, 100
5, 11055, Note_off_c, 3, 68, 0
5, 11055, Note_on_c, 3, 68, 100
5, 11058, Note_off_c, 3, 68, 0
5, 11058, Note_on_c, 3, 68, 100
5, 11064, Note_off_c, 3, 68, 0
5, 11064, Note_on_c, 3, 68, 100
5, 11070, Note_off_c, 3, 68, 0
5, 11070, Note_on_c, 3, 68, 100
5, 11073, Note_off_c, 3, 68, 0
5, 11073, Note_on_c, 3, 68, 100
5, 11082, Note_off_c, 3, 68, 0
5, 11082, Note_on_c, 3, 68, 100
5, 11091, Note_off_c, 3, 68, 0
5, 11091, Note_on_c, 3, 68, 100
5, 11097, Note_off_c, 3, 68, 0
5, 11097, Note_on_c, 3, 68, 100
5, 11100, Note_off_c, 3, 68, 0
5, 11100, Note_on_c, 3, 68, 100
5, 11103, Note_off_c, 3, 68, 0
5, 11103, Note_on_c, 3, 68, 100
5, 11106, Note_off_c, 3, 68, 0
5, 11106, Note_on_c, 3, 68, 100
5, 11112, Note_off_c, 3, 68, 0
5, 11112, Note_on_c, 3, 68, 100
5, 11118, Note_off_c, 3, 68, 0
5, 11118, Note_on_c, 3, 68, 100
5, 11121, Note_off_c, 3, 68, 0
5, 11121, Note_on_c, 3, 68, 100
5, 11130, Note_off_c, 3, 68, 0
5, 11130, Note_on_c, 3, 68, 100
5, 11133, Note_off_c, 3, 68, 0
5, 11133, Note_on_c, 3, 68, 100
5, 11136, Note_off_c, 3, 68, 0
5, 11136, Note_on_c, 3, 66, 100
5, 11139, Note_off_c, 3, 66, 0
5, 11139, Note_on_c, 3, 66, 100
5, 11142, Note_off_c, 3, 66, 0
5, 11142, Note_on_c, 3, 66, 100
5, 11145, Note_off_c, 3, 66, 0
5, 11145, Note_on_c, 3, 66, 100
5, 11148, Note_off_c, 3, 66, 0
5, 11148, Note_on_c, 3, 66, 100
5, 11157, Note_off_c, 3, 66, 0
5, 11157, Note_on_c, 3, 66, 100
5, 11160, Note_off_c, 3, 66, 0
5, 11160, Note_on_c, 3, 66, 100
5, 11163, Note_off_c, 3, 66, 0
5, 11163, Note_on_c, 3, 66, 100
5, 11166, Note_off_c, 3, 66, 0
5, 11166, Note_on_c, 3, 66, 100
5, 11175, Note_off_c, 3, 66, 0
5, 11175, Note_on_c, 3, 66, 100
5, 11181, Note_off_c, 3, 66, 0
5, 11181, Note_on_c, 3, 66, 100
5, 11196, Note_off_c, 3, 66, 0
5, 11196, Note_on_c, 3, 66, 100
5, 11199, Note_off_c, 3, 66, 0
5, 11199, Note_on_c, 3, 66, 100
5, 11205, Note_off_c, 3, 66, 0
5, 11205, Note_on_c, 3, 66, 100
5, 11209, Pitch_bend_c, 3, 8448
5, 11213, Pitch_bend_c, 3, 8448
5, 11214, Note_off_c, 3, 66, 0
5, 11214, Note_on_c, 3, 66, 100
5, 11217, Pitch_bend_c, 3, 9472
5, 11222, Pitch_bend_c, 3, 10112
5, 11223, Note_off_c, 3, 66, 0
5, 11223, Note_on_c, 3, 66, 100
5, 11228, Pitch_bend_c, 3, 11392
5, 11232, Note_off_c, 3, 66, 0
5, 11232, Note_on_c, 3, 68, 100
5, 11233, Pitch_bend_c, 3, 8064
5, 11235, Note_off_c, 3, 68, 0
5, 11235, Note_on_c, 3, 68, 100
5, 11241, Note_off_c, 3, 68, 0
5, 11241, Note_on_c, 3, 68, 100
5, 11253, Note_off_c, 3, 68, 0
5, 11253, Note_on_c, 3, 68, 100
5, 11259, Note_off_c, 3, 68, 0
5, 11259, Note_on_c, 3, 68, 100
5, 11268, Note_off_c, 3, 68, 0
5, 11268, Note_on_c, 3, 68, 100
5, 11271, Note_off_c, 3, 68, 0
5, 11271, Note_on_c, 3, 68, 100
5, 11280, Note_off_c, 3, 68, 0
5, 11280, Note_on_c, 3, 68, 100
5, 11286, Note_off_c, 3, 68, 0
5, 11286, Note_on_c, 3, 68, 100
5, 11289, Note_off_c, 3, 68, 0
5, 11289, Note_on_c, 3, 68, 100
5, 11292, Note_off_c, 3, 68, 0
5, 11292, Note_on_c, 3, 68, 100
5, 11298, Note_off_c, 3, 68, 0
5, 11298, Note_on_c, 3, 68, 100
5, 11305, Pitch_bend_c, 3, 7680
5, 11310, Note_off_c, 3, 68, 0
5, 11310, Note_on_c, 3, 68, 100
5, 11310, Pitch_bend_c, 3, 6016
5, 11313, Note_off_c, 3, 68, 0
5, 11313, Note_on_c, 3, 68, 100
5, 11316, Pitch_bend_c, 3, 4736
5, 11318, Pitch_bend_c, 3, 2944
5, 11321, Pitch_bend_c, 3, 6016
5, 11322, Pitch_bend_c, 3, 2688
5, 11327, Pitch_bend_c, 3, 7680
5, 11328, Note_off_c, 3, 68, 0
5, 11328, Note_on_c, 3, 65, 100
5, 11337, Note_off_c, 3, 65, 0
5, 11337, Note_on_c, 3, 65, 100
5, 11340, Note_off_c, 3, 65, 0
5, 11340, Note_on_c, 3, 65, 100
5, 11346, Note_off_c, 3, 65, 0
5, 11346, Note_on_c, 3, 65, 100
5, 11352, Note_on_c, 3, 72, 100
5, 11355, Note_off_c, 3, 72, 0
5, 11355, Note_on_c, 3, 72, 100
5, 11358, Note_off_c, 3, 65, 0
5, 11358, Note_on_c, 3, 65, 100
5, 11361, Note_off_c, 3, 72, 0
5, 11361, Note_off_c, 3, 65, 0
5, 11361, Note_on_c, 3, 65, 100
5, 11361, Note_on_c, 3, 72, 100
5, 11364, Note_on_c, 3, 65, 100
5, 11367, Note_off_c, 3, 65, 0
5, 11370, Note_off_c, 3, 72, 0
5, 11370, Note_on_c, 3, 72, 100
5, 11373, Note_off_c, 3, 65, 0
5, 11376, Note_on_c, 3, 65, 100
5, 11376, Note_on_c, 3, 71, 100
5, 11376, Note_on_c, 3, 72, 100
5, 11379, Note_off_c, 3, 72, 0
5, 11379, Note_off_c, 3, 65, 0
5, 11379, Note_off_c, 3, 71, 0
5, 11379, Note_on_c, 3, 65, 100
5, 11379, Note_on_c, 3, 71, 100
5, 11385, Note_off_c, 3, 72, 0
5, 11385, Note_off_c, 3, 65, 0
5, 11385, Note_off_c, 3, 71, 0
5, 11385, Note_on_c, 3, 65, 100
5, 11385, Note_on_c, 3, 71, 100
5, 11394, Note_off_c, 3, 65, 0
5, 11394, Note_off_c, 3, 71, 0
5, 11394, Note_on_c, 3, 65, 100
5, 11394, Note_on_c, 3, 71, 100
5, 11397, Note_off_c, 3, 65, 0
5, 11397, Note_on_c, 3, 65, 100
5, 11400, Note_off_c, 3, 65, 0
5, 11400, Note_on_c, 3, 65, 100
5, 11400, Note_on_c, 3, 69, 100
5, 11400, Note_on_c, 3, 71, 100
5, 11403, Note_off_c, 3, 71, 0
5, 11403, Note_off_c, 3, 69, 0
5, 11403, Note_on_c, 3, 69, 100
5, 11406, Note_off_c, 3, 65, 0
5, 11406, Note_on_c, 3, 65, 100
5, 11409, Note_off_c, 3, 71, 0
5, 11409, Note_off_c, 3, 69, 0
5, 11409, Note_on_c, 3, 69, 100
5, 11412, Note_off_c, 3, 65, 0
5, 11412, Note_on_c, 3, 65, 100
5, 11418, Note_off_c, 3, 69, 0
5, 11418, Note_off_c, 3, 65, 0
5, 11418, Note_on_c, 3, 65, 100
5, 11418, Note_on_c, 3, 69, 100
5, 11424, Note_on_c, 3, 69, 100
5, 11427, Note_off_c, 3, 69, 0
5, 11427, Note_off_c, 3, 69, 0
5, 11427, Note_on_c, 3, 69, 100
5, 11433, Note_off_c, 3, 65, 0
5, 11433, Note_off_c, 3, 69, 0
5, 11433, Note_on_c, 3, 69, 100
5, 11442, Note_off_c, 3, 69, 0
5, 11442, Note_on_c, 3, 69, 100
5, 11448, Note_on_c, 3, 71, 100
5, 11451, Note_off_c, 3, 69, 0
5, 11451, Note_off_c, 3, 71, 0
5, 11451, Note_on_c, 3, 71, 100
5, 11457, Note_on_c, 3, 71, 100
5, 11460, Note_off_c, 3, 71, 0
5, 11469, Note_off_c, 3, 71, 0
5, 11472, Note_on_c, 3, 71, 100
5, 11481, Note_off_c, 3, 71, 0
5, 11481, Note_on_c, 3, 71, 100
5, 11484, Note_off_c, 3, 71, 0
5, 11487, Note_on_c, 3, 71, 100
5, 11493, Note_off_c, 3, 71, 0
5, 11496, Note_on_c, 3, 72, 100
5, 11499, Note_off_c, 3, 72, 0
5, 11499, Note_on_c, 3, 72, 100
5, 11505, Note_off_c, 3, 72, 0
5, 11505, Note_on_c, 3, 72, 100
5, 11514, Note_off_c, 3, 72, 0
5, 11514, Note_on_c, 3, 72, 100
5, 11520, Note_on_c, 3, 72, 100
5, 11523, Note_off_c, 3, 72, 0
5, 11529, Note_off_c, 3, 72, 0
5, 11532, Note_on_c, 3, 72, 100
5, 11535, Note_off_c, 3, 72, 0
5, 11535, Note_on_c, 3, 72, 100
5, 11544, Note_on_c, 3, 71, 100
5, 11547, Note_off_c, 3, 72, 0
5, 11553, Note_off_c, 3, 71, 0
5, 11553, Note_on_c, 3, 71, 100
5, 11556, Note_off_c, 3, 71, 0
5, 11556, Note_on_c, 3, 71, 100
5, 11565, Note_off_c, 3, 71, 0
5, 11568, Note_on_c, 3, 71, 100
5, 11571, Note_off_c, 3, 71, 0
5, 11571, Note_on_c, 3, 71, 100
5, 11571, Note_on_c, 3, 71, 100
5, 11574, Note_off_c, 3, 71, 0
5, 11574, Note_off_c, 3, 71, 0
5, 11574, Note_on_c, 3, 71, 100
5, 11583, Note_off_c, 3, 71, 0
5, 11583, Note_on_c, 3, 71, 100
5, 11586, Note_off_c, 3, 71, 0
5, 11586, Note_on_c, 3, 71, 100
5, 11592, Note_off_c, 3, 71, 0
5, 11592, Note_on_c, 3, 69, 100
5, 11604, Note_off_c, 3, 69, 0
5, 11604, Note_on_c, 3, 69, 100
5, 11607, Note_off_c, 3, 69, 0
5, 11607, Note_on_c, 3, 69, 100
5, 11619, Note_off_c, 3, 69, 0
5, 11619, Note_on_c, 3, 69, 100
5, 11625, Note_off_c, 3, 69, 0
5, 11625, Note_on_c, 3, 69, 100
5, 11631, Note_off_c, 3, 69, 0
5, 11631, Note_on_c, 3, 69, 100
5, 11640, Note_off_c, 3, 69, 0
5, 11640, Note_on_c, 3, 65, 100
5, 11652, Note_off_c, 3, 65, 0
5, 11652, Note_on_c, 3, 65, 100
5, 11664, Note_off_c, 3, 65, 0
5, 11664, Note_on_c, 3, 65, 100
5, 11667, Note_off_c, 3, 65, 0
5, 11667, Note_on_c, 3, 65, 100
5, 11670, Note_off_c, 3, 65, 0
5, 11670, Note_on_c, 3, 65, 100
5, 11685, Note_off_c, 3, 65, 0
5, 11685, Note_on_c, 3, 65, 100
5, 11688, Note_off_c, 3, 65, 0
5, 11688, Note_on_c, 3, 65, 100
5, 11694, Note_off_c, 3, 65, 0
5, 11694, Note_on_c, 3, 65, 100
5, 11703, Note_off_c, 3, 65, 0
5, 11703, Note_on_c, 3, 65, 100
5, 11706, Note_off_c, 3, 65, 0
5, 11706, Note_on_c, 3, 65, 100
5, 11712, Note_off_c, 3, 65, 0
5, 11712, Note_on_c, 3, 65, 100
5, 11718, Note_off_c, 3, 65, 0
5, 11718, Note_on_c, 3, 65, 100
5, 11721, Note_off_c, 3, 65, 0
5, 11721, Note_on_c, 3, 65, 100
5, 11724, Note_off_c, 3, 65, 0
5, 11724, Note_on_c, 3, 65, 100
5, 11733, Note_off_c, 3, 65, 0
5, 11733, Note_on_c, 3, 65, 100
5, 11736, Note_off_c, 3, 65, 0
5, 11736, Note_on_c, 3, 64, 100
5, 11742, Note_off_c, 3, 64, 0
5, 11742, Note_on_c, 3, 64, 100
5, 11748, Note_off_c, 3, 64, 0
5, 11748, Note_on_c, 3, 64, 100
5, 11751, Note_off_c, 3, 64, 0
5, 11751, Note_on_c, 3, 64, 100
5, 11760, Note_off_c, 3, 64, 0
5, 11760, Note_on_c, 3, 62, 100
5, 11766, Note_off_c, 3, 62, 0
5, 11766, Note_on_c, 3, 62, 100
5, 11772, Note_off_c, 3, 62, 0
5, 11772, Note_on_c, 3, 62, 100
5, 11775, Note_off_c, 3, 62, 0
5, 11775, Note_on_c, 3, 62, 100
5, 11784, Note_off_c, 3, 62, 0
5, 11784, Note_on_c, 3, 61, 100
5, 11793, Note_off_c, 3, 61, 0
5, 11793, Note_on_c, 3, 61, 100
5, 11796, Note_off_c, 3, 61, 0
5, 11796, Note_on_c, 3, 61, 100
5, 11799, Note_off_c, 3, 61, 0
5, 11799, Note_on_c, 3, 61, 100
5, 11805, Note_off_c, 3, 61, 0
5, 11805, Note_on_c, 3, 61, 100
5, 11811, Note_off_c, 3, 61, 0
5, 11811, Note_on_c, 3, 61, 100
5, 11817, Note_off_c, 3, 61, 0
5, 11817, Note_on_c, 3, 61, 100
5, 11826, Note_off_c, 3, 61, 0
5, 11826, Note_on_c, 3, 61, 100
5, 11832, Note_off_c, 3, 61, 0
5, 11832, Note_on_c, 3, 61, 100
5, 11841, Note_off_c, 3, 61, 0
5, 11841, Note_on_c, 3, 61, 100
5, 11844, Note_off_c, 3, 61, 0
5, 11844, Note_on_c, 3, 61, 100
5, 11853, Note_off_c, 3, 61, 0
5, 11853, Note_on_c, 3, 61, 100
5, 11856, Note_off_c, 3, 61, 0
5, 11856, Note_on_c, 3, 61, 100
5, 11862, Note_off_c, 3, 61, 0
5, 11862, Note_on_c, 3, 61, 100
5, 11868, Note_off_c, 3, 61, 0
5, 11868, Note_on_c, 3, 61, 100
5, 11874, Note_off_c, 3, 61, 0
5, 11874, Note_on_c, 3, 61, 100
5, 11877, Note_off_c, 3, 61, 0
5, 11877, Note_on_c, 3, 61, 100
5, 11880, Note_off_c, 3, 61, 0
5, 11880, Note_on_c, 3, 61, 100
5, 11889, Note_off_c, 3, 61, 0
5, 11889, Note_on_c, 3, 61, 100
5, 11901, Note_off_c, 3, 61, 0
5, 11901, Note_on_c, 3, 61, 100
5, 11904, Note_off_c, 3, 61, 0
5, 11904, Note_on_c, 3, 65, 100
5, 11907, Note_off_c, 3, 65, 0
5, 11907, Note_on_c, 3, 65, 100
5, 11910, Note_off_c, 3, 65, 0
5, 11910, Note_on_c, 3, 65, 100
5, 11913, Note_off_c, 3, 65, 0
5, 11913, Note_on_c, 3, 65, 100
5, 11916, Note_off_c, 3, 65, 0
5, 11916, Note_on_c, 3, 65, 100
5, 11919, Note_off_c, 3, 65, 0
5, 11919, Note_on_c, 3, 65, 100
5, 11928, Note_off_c, 3, 65, 0
5, 11928, Note_on_c, 3, 64, 100
5, 11934, Note_off_c, 3, 64, 0
5, 11934, Note_on_c, 3, 64, 100
5, 11937, Note_off_c, 3, 64, 0
5, 11937, Note_on_c, 3, 64, 100
5, 11946, Note_off_c, 3, 64, 0
5, 11946, Note_on_c, 3, 64, 100
5, 11952, Note_off_c, 3, 64, 0
5, 11952, Note_on_c, 3, 62, 100
5, 11961, Note_off_c, 3, 62, 0
5, 11961, Note_on_c, 3, 62, 100
5, 11964, Note_off_c, 3, 62, 0
5, 11964, Note_on_c, 3, 62, 100
5, 11973, Note_off_c, 3, 62, 0
5, 11973, Note_on_c, 3, 62, 100
5, 11976, Note_off_c, 3, 62, 0
5, 11976, Note_on_c, 3, 61, 100
5, 11988, Note_off_c, 3, 61, 0
5, 11988, Note_on_c, 3, 61, 100
5, 11994, Note_off_c, 3, 61, 0
5, 11994, Note_on_c, 3, 61, 100
5, 12000, Note_off_c, 3, 61, 0
5, 12000, Note_on_c, 3, 61, 100
5, 12006, Note_off_c, 3, 61, 0
5, 12006, Note_on_c, 3, 61, 100
5, 12012, Note_off_c, 3, 61, 0
5, 12012, Note_on_c, 3, 61, 100
5, 12024, Note_off_c, 3, 61, 0
5, 12024, Note_on_c, 3, 61, 100
5, 12042, Note_off_c, 3, 61, 0
5, 12042, Note_on_c, 3, 61, 100
5, 12054, Note_off_c, 3, 61, 0
5, 12054, Note_on_c, 3, 61, 100
5, 12057, Note_off_c, 3, 61, 0
5, 12057, Note_on_c, 3, 61, 100
5, 12072, Note_off_c, 3, 61, 0
5, 12072, Note_on_c, 3, 61, 100
5, 12075, Note_off_c, 3, 61, 0
5, 12075, Note_on_c, 3, 61, 100
5, 12093, Note_off_c, 3, 61, 0
5, 12093, Note_on_c, 3, 61, 100
5, 12096, Note_off_c, 3, 61, 0
5, 13248, Note_on_c, 3, 47, 100
5, 13248, Note_on_c, 3, 54, 100
5, 13272, Note_off_c, 3, 47, 0
5, 13272, Note_off_c, 3, 54, 0
5, 13272, Note_on_c, 3, 47, 100
5, 13272, Note_on_c, 3, 54, 100
5, 13296, Note_off_c, 3, 47, 0
5, 13296, Note_off_c, 3, 54, 0
5, 13296, Note_on_c, 3, 47, 79
5, 13296, Note_on_c, 3, 54, 79
5, 13320, Note_off_c, 3, 47, 0
5, 13320, Note_off_c, 3, 54, 0
5, 13320, Note_on_c, 3, 47, 79
5, 13320, Note_on_c, 3, 54, 79
5, 13344, Note_off_c, 3, 47, 0
5, 13344, Note_off_c, 3, 54, 0
5, 13344, Note_on_c, 3, 47, 81
5, 13344, Note_on_c, 3, 54, 81
5, 13368, Note_off_c, 3, 47, 0
5, 13368, Note_off_c, 3, 54, 0
5, 13368, Note_on_c, 3, 47, 105
5, 13368, Note_on_c, 3, 54, 105
5, 13392, Note_off_c, 3, 47, 0
5, 13392, Note_off_c, 3, 54, 0
5, 13392, Note_on_c, 3, 47, 105
5, 13392, Note_on_c, 3, 54, 105
5, 13416, Note_off_c, 3, 47, 0
5, 13416, Note_off_c, 3, 54, 0
5, 13416, Note_on_c, 3, 47, 84
5, 13416, Note_on_c, 3, 54, 84
5, 13440, Note_off_c, 3, 47, 0
5, 13440, Note_off_c, 3, 54, 0
5, 13440, Note_on_c, 3, 42, 108
5, 13440, Note_on_c, 3, 49, 108
5, 13464, Note_off_c, 3, 42, 0
5, 13464, Note_off_c, 3, 49, 0
5, 13464, Note_on_c, 3, 42, 87
5, 13464, Note_on_c, 3, 49, 87
5, 13488, Note_off_c, 3, 42, 0
5, 13488, Note_off_c, 3, 49, 0
5, 13488, Note_on_c, 3, 42, 87
5, 13488, Note_on_c, 3, 49, 87
5, 13512, Note_off_c, 3, 42, 0
5, 13512, Note_off_c, 3, 49, 0
5, 13512, Note_on_c, 3, 42, 87
5, 13512, Note_on_c, 3, 49, 87
5, 13536, Note_off_c, 3, 42, 0
5, 13536, Note_off_c, 3, 49, 0
5, 13536, Note_on_c, 3, 42, 87
5, 13536, Note_on_c, 3, 49, 87
5, 13560, Note_off_c, 3, 42, 0
5, 13560, Note_off_c, 3, 49, 0
5, 13560, Note_on_c, 3, 42, 108
5, 13560, Note_on_c, 3, 49, 108
5, 13584, Note_off_c, 3, 42, 0
5, 13584, Note_off_c, 3, 49, 0
5, 13584, Note_on_c, 3, 42, 87
5, 13584, Note_on_c, 3, 49, 87
5, 13608, Note_off_c, 3, 42, 0
5, 13608, Note_off_c, 3, 49, 0
5, 13608, Note_on_c, 3, 42, 87
5, 13608, Note_on_c, 3, 49, 87
5, 13632, Note_off_c, 3, 42, 0
5, 13632, Note_off_c, 3, 49, 0
5, 13632, Note_on_c, 3, 40, 87
5, 13632, Note_on_c, 3, 47, 87
5, 13656, Note_off_c, 3, 40, 0
5, 13656, Note_off_c, 3, 47, 0
5, 13656, Note_on_c, 3, 40, 108
5, 13656, Note_on_c, 3, 47, 108
5, 13680, Note_off_c, 3, 40, 0
5, 13680, Note_off_c, 3, 47, 0
5, 13680, Note_on_c, 3, 40, 108
5, 13680, Note_on_c, 3, 47, 108
5, 13704, Note_off_c, 3, 40, 0
5, 13704, Note_off_c, 3, 47, 0
5, 13704, Note_on_c, 3, 40, 87
5, 13704, Note_on_c, 3, 47, 87
5, 13728, Note_off_c, 3, 40, 0
5, 13728, Note_off_c, 3, 47, 0
5, 13728, Note_on_c, 3, 40, 87
5, 13728, Note_on_c, 3, 47, 87
5, 13752, Note_off_c, 3, 40, 0
5, 13752, Note_off_c, 3, 47, 0
5, 13752, Note_on_c, 3, 40, 108
5, 13752, Note_on_c, 3, 47, 108
5, 13776, Note_off_c, 3, 40, 0
5, 13776, Note_off_c, 3, 47, 0
5, 13776, Note_on_c, 3, 40, 87
5, 13776, Note_on_c, 3, 47, 87
5, 13800, Note_off_c, 3, 40, 0
5, 13800, Note_off_c, 3, 47, 0
5, 13800, Note_on_c, 3, 40, 108
5, 13800, Note_on_c, 3, 47, 108
5, 13824, Note_off_c, 3, 40, 0
5, 13824, Note_off_c, 3, 47, 0
5, 13824, Note_on_c, 3, 40, 87
5, 13824, Note_on_c, 3, 47, 87
5, 13848, Note_off_c, 3, 40, 0
5, 13848, Note_off_c, 3, 47, 0
5, 13848, Note_on_c, 3, 40, 87
5, 13848, Note_on_c, 3, 47, 87
5, 13872, Note_off_c, 3, 40, 0
5, 13872, Note_off_c, 3, 47, 0
5, 13872, Note_on_c, 3, 40, 87
5, 13872, Note_on_c, 3, 47, 87
5, 13896, Note_off_c, 3, 40, 0
5, 13896, Note_off_c, 3, 47, 0
5, 13896, Note_on_c, 3, 40, 81
5, 13896, Note_on_c, 3, 47, 81
5, 13920, Note_off_c, 3, 40, 0
5, 13920, Note_off_c, 3, 47, 0
5, 13920, Note_on_c, 3, 40, 81
5, 13920, Note_on_c, 3, 47, 81
5, 13944, Note_off_c, 3, 40, 0
5, 13944, Note_off_c, 3, 47, 0
5, 13944, Note_on_c, 3, 40, 103
5, 13944, Note_on_c, 3, 47, 103
5, 13968, Note_off_c, 3, 40, 0
5, 13968, Note_off_c, 3, 47, 0
5, 13968, Note_on_c, 3, 40, 84
5, 13968, Note_on_c, 3, 47, 84
5, 13992, Note_off_c, 3, 40, 0
5, 13992, Note_off_c, 3, 47, 0
5, 13992, Note_on_c, 3, 40, 84
5, 13992, Note_on_c, 3, 47, 84
5, 14016, Note_off_c, 3, 40, 0
5, 14016, Note_off_c, 3, 47, 0
5, 14016, Note_on_c, 3, 45, 100
5, 14016, Note_on_c, 3, 52, 100
5, 14400, Note_off_c, 3, 45, 0
5, 14400, Note_off_c, 3, 52, 0
5, 14400, End_track
6, 0, Start_track
6, 0, Title_t, "Track 5\000"
6, 0, Program_c, 4, 29
6, 0, Control_c, 4, 7, 80
6, 1920, Note_on_c, 4, 45, 100
6, 1920, Note_on_c, 4, 57, 100
6, 1920, Note_on_c, 4, 64, 100
6, 1956, Note_off_c, 4, 57, 0
6, 1956, Note_off_c, 4, 64, 0
6, 1956, Note_on_c, 4, 57, 100
6, 1956, Note_on_c, 4, 64, 100
6, 1968, Note_off_c, 4, 45, 0
6, 1968, Note_off_c, 4, 57, 0
6, 1968, Note_off_c, 4, 64, 0
6, 1968, Note_on_c, 4, 45, 100
6, 1968, Note_on_c, 4, 57, 100
6, 1968, Note_on_c, 4, 64, 100
6, 2004, Note_off_c, 4, 57, 0
6, 2004, Note_off_c, 4, 64, 0
6, 2004, Note_on_c, 4, 57, 100
6, 2004, Note_on_c, 4, 64, 100
6, 2016, Note_off_c, 4, 45, 0
6, 2016, Note_on_c, 4, 45, 100
6, 2028, Note_off_c, 4, 57, 0
6, 2028, Note_off_c, 4, 64, 0
6, 2028, Note_on_c, 4, 57, 100
6, 2028, Note_on_c, 4, 64, 100
6, 2064, Note_off_c, 4, 45, 0
6, 2064, Note_off_c, 4, 57, 0
6, 2064, Note_off_c, 4, 64, 0
6, 2064, Note_on_c, 4, 45, 100
6, 2064, Note_on_c, 4, 57, 100
6, 2064, Note_on_c, 4, 64, 100
6, 2088, Note_off_c, 4, 57, 0
6, 2088, Note_off_c, 4, 64, 0
6, 2088, Note_on_c, 4, 57, 100
6, 2088, Note_on_c, 4, 64, 100
6, 2112, Note_off_c, 4, 45, 0
6, 2112, Note_off_c, 4, 57, 0
6, 2112, Note_off_c, 4, 64, 0
6, 2112, Note_on_c, 4, 45, 100
6, 2112, Note_on_c, 4, 57, 100
6, 2112, Note_on_c, 4, 63, 100
6, 2148, Note_off_c, 4, 57, 0
6, 2148, Note_off_c, 4, 63, 0
6, 2148, Note_on_c, 4, 57, 100
6, 2148, Note_on_c, 4, 63, 100
6, 2160, Note_off_c, 4, 45, 0
6, 2160, Note_off_c, 4, 57, 0
6, 2160, Note_off_c, 4, 63, 0
6, 2160, Note_on_c, 4, 45, 100
6, 2160, Note_on_c, 4, 57, 100
6, 2160, Note_on_c, 4, 63, 100
6, 2196, Note_off_c, 4, 57, 0
6, 2196, Note_off_c, 4, 63, 0
6, 2196, Note_on_c, 4, 57, 100
6, 2196, Note_on_c, 4, 63, 100
6, 2208, Note_off_c, 4, 45, 0
6, 2208, Note_on_c, 4, 45, 100
6, 2220, Note_off_c, 4, 57, 0
6, 2220, Note_off_c, 4, 63, 0
6, 2220, Note_on_c, 4, 57, 100
6, 2220, Note_on_c, 4, 63, 100
6, 2256, Note_off_c, 4, 45, 0
6, 2256, Note_off_c, 4, 57, 0
6, 2256, Note_off_c, 4, 63, 0
6, 2256, Note_on_c, 4, 45, 100
6, 2256, Note_on_c, 4, 57, 100
6, 2256, Note_on_c, 4, 63, 100
6, 2280, Note_off_c, 4, 57, 0
6, 2280, Note_off_c, 4, 63, 0
6, 2280, Note_on_c, 4, 57, 100
6, 2280, Note_on_c, 4, 63, 100
6, 2304, Note_off_c, 4, 45, 0
6, 2304, Note_off_c, 4, 57, 0
6, 2304, Note_off_c, 4, 63, 0
6, 2304, Note_on_c, 4, 45, 100
6, 2304, Note_on_c, 4, 57, 100
6, 2304, Note_on_c, 4, 62, 100
6, 2340, Note_off_c, 4, 57, 0
6, 2340, Note_off_c, 4, 62, 0
6, 2340, Note_on_c, 4, 57, 100
6, 2340, Note_on_c, 4, 62, 100
6, 2352, Note_off_c, 4, 45, 0
6, 2352, Note_off_c, 4, 57, 0
6, 2352, Note_off_c, 4, 62, 0
6, 2352, Note_on_c, 4, 45, 100
6, 2352, Note_on_c, 4, 57, 100
6, 2352, Note_on_c, 4, 62, 100
6, 2388, Note_off_c, 4, 57, 0
6, 2388, Note_off_c, 4, 62, 0
6, 2388, Note_on_c, 4, 57, 100
6, 2388, Note_on_c, 4, 62, 100
6, 2400, Note_off_c, 4, 45, 0
6, 2400, Note_on_c, 4, 45, 100
6, 2412, Note_off_c, 4, 57, 0
6, 2412, Note_off_c, 4, 62, 0
6, 2412, Note_on_c, 4, 57, 100
6, 2412, Note_on_c, 4, 62, 100
6, 2448, Note_off_c, 4, 45, 0
6, 2448, Note_off_c, 4, 57, 0
6, 2448, Note_off_c, 4, 62, 0
6, 2448, Note_on_c, 4, 45, 100
6, 2448, Note_on_c, 4, 57, 100
6, 2448, Note_on_c, 4, 62, 100
6, 2472, Note_off_c, 4, 57, 0
6, 2472, Note_off_c, 4, 62, 0
6, 2472, Note_on_c, 4, 57, 100
6, 2472, Note_on_c, 4, 62, 100
6, 2496, Note_off_c, 4, 45, 0
6, 2496, Note_off_c, 4, 57, 0
6, 2496, Note_off_c, 4, 62, 0
6, 2496, Note_on_c, 4, 45, 100
6, 2496, Note_on_c, 4, 57, 100
6, 2496, Note_on_c, 4, 62, 100
6, 2532, Note_off_c, 4, 57, 0
6, 2532, Note_off_c, 4, 62, 0
6, 2532, Note_on_c, 4, 57, 100
6, 2532, Note_on_c, 4, 62, 100
6, 2544, Note_off_c, 4, 45, 0
6, 2544, Note_off_c, 4, 57, 0
6, 2544, Note_off_c, 4, 62, 0
6, 2544, Note_on_c, 4, 45, 100
6, 2544, Note_on_c, 4, 57, 100
6, 2544, Note_on_c, 4, 62, 100
6, 2580, Note_off_c, 4, 57, 0
6, 2580, Note_off_c, 4, 62, 0
6, 2580, Note_on_c, 4, 57, 100
6, 2580, Note_on_c, 4, 62, 100
6, 2592, Note_off_c, 4, 45, 0
6, 2592, Note_on_c, 4, 45, 100
6, 2604, Note_off_c, 4, 57, 0
6, 2604, Note_off_c, 4, 62, 0
6, 2604, Note_on_c, 4, 57, 100
6, 2604, Note_on_c, 4, 62, 100
6, 2640, Note_off_c, 4, 45, 0
6, 2640, Note_off_c, 4, 57, 0
6, 2640, Note_off_c, 4, 62, 0
6, 2640, Note_on_c, 4, 45, 100
6, 2640, Note_on_c, 4, 57, 100
6, 2640, Note_on_c, 4, 62, 100
6, 2664, Note_off_c, 4, 57, 0
6, 2664, Note_off_c, 4, 62, 0
6, 2664, Note_on_c, 4, 57, 100
6, 2664, Note_on_c, 4, 62, 100
6, 2688, Note_off_c, 4, 45, 0
6, 2688, Note_off_c, 4, 57, 0
6, 2688, Note_off_c, 4, 62, 0
6, 2688, Note_on_c, 4, 45, 100
6, 2688, Note_on_c, 4, 57, 100
6, 2688, Note_on_c, 4, 64, 100
6, 2700, Note_off_c, 4, 64, 0
6, 2700, Note_on_c, 4, 62, 100
6, 2712, Note_off_c, 4, 62, 0
6, 2712, Note_on_c, 4, 61, 100
6, 2724, Note_off_c, 4, 57, 0
6, 2724, Note_off_c, 4, 61, 0
6, 2724, Note_on_c, 4, 57, 100
6, 2724, Note_on_c, 4, 62, 100
6, 2736, Note_off_c, 4, 45, 0
6, 2736, Note_off_c, 4, 57, 0
6, 2736, Note_off_c, 4, 62, 0
6, 2736, Note_on_c, 4, 45, 100
6, 2736, Note_on_c, 4, 57, 100
6, 2736, Note_on_c, 4, 61, 100
6, 2772, Note_off_c, 4, 57, 0
6, 2772, Note_on_c, 4, 57, 100
6, 2784, Note_off_c, 4, 45, 0
6, 2784, Note_on_c, 4, 45, 100
6, 2796, Note_off_c, 4, 57, 0
6, 2796, Note_on_c, 4, 57, 100
6, 2832, Note_off_c, 4, 45, 0
6, 2832, Note_off_c, 4, 57, 0
6, 2832, Note_on_c, 4, 45, 100
6, 2832, Note_on_c, 4, 57, 100
6, 2856, Note_off_c, 4, 57, 0
6, 2856, Note_on_c, 4, 57, 100
6, 2880, Note_off_c, 4, 61, 0
6, 2880, Note_off_c, 4, 45, 0
6, 2880, Note_off_c, 4, 57, 0
6, 2880, Note_on_c, 4, 45, 100
6, 2880, Note_on_c, 4, 57, 100
6, 2880, Note_on_c, 4, 64, 100
6, 2892, Note_off_c, 4, 64, 0
6, 2892, Note_on_c, 4, 62, 100
6, 2904, Note_off_c, 4, 62, 0
6, 2904, Note_on_c, 4, 61, 100
6, 2916, Note_off_c, 4, 57, 0
6, 2916, Note_off_c, 4, 61, 0
6, 2916, Note_on_c, 4, 57, 100
6, 2916, Note_on_c, 4, 62, 100
6, 2928, Note_off_c, 4, 45, 0
6, 2928, Note_off_c, 4, 57, 0
6, 2928, Note_off_c, 4, 62, 0
6, 2928, Note_on_c, 4, 45, 100
6, 2928, Note_on_c, 4, 57, 100
6, 2928, Note_on_c, 4, 61, 100
6, 2964, Note_off_c, 4, 57, 0
6, 2964, Note_on_c, 4, 57, 100
6, 2976, Note_off_c, 4, 45, 0
6, 2976, Note_on_c, 4, 45, 100
6, 2988, Note_off_c, 4, 57, 0
6, 2988, Note_on_c, 4, 57, 100
6, 3024, Note_off_c, 4, 45, 0
6, 3024, Note_off_c, 4, 57, 0
6, 3024, Note_on_c, 4, 45, 100
6, 3024, Note_on_c, 4, 57, 100
6, 3048, Note_off_c, 4, 57, 0
6, 3048, Note_on_c, 4, 57, 100
6, 3072, Note_off_c, 4, 61, 0
6, 3072, Note_off_c, 4, 45, 0
6, 3072, Note_off_c, 4, 57, 0
6, 3072, Note_on_c, 4, 45, 100
6, 3072, Note_on_c, 4, 57, 100
6, 3072, Note_on_c, 4, 64, 100
6, 3108, Note_off_c, 4, 57, 0
6, 3108, Note_off_c, 4, 64, 0
6, 3108, Note_on_c, 4, 57, 100
6, 3108, Note_on_c, 4, 64, 100
6, 3120, Note_off_c, 4, 45, 0
6, 3120, Note_off_c, 4, 57, 0
6, 3120, Note_off_c, 4, 64, 0
6, 3120, Note_on_c, 4, 45, 100
6, 3120, Note_on_c, 4, 57, 100
6, 3120, Note_on_c, 4, 64, 100
6, 3156, Note_off_c, 4, 57, 0
6, 3156, Note_off_c, 4, 64, 0
6, 3156, Note_on_c, 4, 57, 100
6, 3156, Note_on_c, 4, 64, 100
6, 3168, Note_off_c, 4, 45, 0
6, 3168, Note_on_c, 4, 45, 100
6, 3180, Note_off_c, 4, 57, 0
6, 3180, Note_off_c, 4, 64, 0
6, 3180, Note_on_c, 4, 57, 100
6, 3180, Note_on_c, 4, 64, 100
6, 3216, Note_off_c, 4, 45, 0
6, 3216, Note_off_c, 4, 57, 0
6, 3216, Note_off_c, 4, 64, 0
6, 3216, Note_on_c, 4, 45, 100
6, 3216, Note_on_c, 4, 57, 100
6, 3216, Note_on_c, 4, 64, 100
6, 3240, Note_off_c, 4, 57, 0
6, 3240, Note_off_c, 4, 64, 0
6, 3240, Note_on_c, 4, 57, 100
6, 3240, Note_on_c, 4, 64, 100
6, 3264, Note_off_c, 4, 45, 0
6, 3264, Note_off_c, 4, 57, 0
6, 3264, Note_off_c, 4, 64, 0
6, 3264, Note_on_c, 4, 45, 100
6, 3264, Note_on_c, 4, 57, 100
6, 3264, Note_on_c, 4, 63, 100
6, 3300, Note_off_c, 4, 57, 0
6, 3300, Note_off_c, 4, 63, 0
6, 3300, Note_on_c, 4, 57, 100
6, 3300, Note_on_c, 4, 63, 100
6, 3312, Note_off_c, 4, 45, 0
6, 3312, Note_off_c, 4, 57, 0
6, 3312, Note_off_c, 4, 63, 0
6, 3312, Note_on_c, 4, 45, 100
6, 3312, Note_on_c, 4, 57, 100
6, 3312, Note_on_c, 4, 63, 100
6, 3348, Note_off_c, 4, 57, 0
6, 3348, Note_off_c, 4, 63, 0
6, 3348, Note_on_c, 4, 57, 100
6, 3348, Note_on_c, 4, 63, 100
6, 3360, Note_off_c, 4, 45, 0
6, 3360, Note_on_c, 4, 45, 100
6, 3372, Note_off_c, 4, 57, 0
6, 3372, Note_off_c, 4, 63, 0
6, 3372, Note_on_c, 4, 57, 100
6, 3372, Note_on_c, 4, 63, 100
6, 3408, Note_off_c, 4, 45, 0
6, 3408, Note_off_c, 4, 57, 0
6, 3408, Note_off_c, 4, 63, 0
6, 3408, Note_on_c, 4, 45, 100
6, 3408, Note_on_c, 4, 57, 100
6, 3408, Note_on_c, 4, 63, 100
6, 3432, Note_off_c, 4, 57, 0
6, 3432, Note_off_c, 4, 63, 0
6, 3432, Note_on_c, 4, 57, 100
6, 3432, Note_on_c, 4, 63, 100
6, 3456, Note_off_c, 4, 45, 0
6, 3456, Note_off_c, 4, 57, 0
6, 3456, Note_off_c, 4, 63, 0
6, 3456, Note_on_c, 4, 45, 100
6, 3456, Note_on_c, 4, 57, 100
6, 3456, Note_on_c, 4, 62, 100
6, 3492, Note_off_c, 4, 57, 0
6, 3492, Note_off_c, 4, 62, 0
6, 3492, Note_on_c, 4, 57, 100
6, 3492, Note_on_c, 4, 62, 100
6, 3504, Note_off_c, 4, 45, 0
6, 3504, Note_off_c, 4, 57, 0
6, 3504, Note_off_c, 4, 62, 0
6, 3504, Note_on_c, 4, 45, 100
6, 3504, Note_on_c, 4, 57, 100
6, 3504, Note_on_c, 4, 62, 100
6, 3540, Note_off_c, 4, 57, 0
6, 3540, Note_off_c, 4, 62, 0
6, 3540, Note_on_c, 4, 57, 100
6, 3540, Note_on_c, 4, 62, 100
6, 3552, Note_off_c, 4, 45, 0
6, 3552, Note_on_c, 4, 45, 100
6, 3564, Note_off_c, 4, 57, 0
6, 3564, Note_off_c, 4, 62, 0
6, 3564, Note_on_c, 4, 57, 100
6, 3564, Note_on_c, 4, 62, 100
6, 3600, Note_off_c, 4, 45, 0
6, 3600, Note_off_c, 4, 57, 0
6, 3600, Note_off_c, 4, 62, 0
6, 3600, Note_on_c, 4, 45, 100
6, 3600, Note_on_c, 4, 57, 100
6, 3600, Note_on_c, 4, 62, 100
6, 3624, Note_off_c, 4, 57, 0
6, 3624, Note_off_c, 4, 62, 0
6, 3624, Note_on_c, 4, 57, 100
6, 3624, Note_on_c, 4, 62, 100
6, 3648, Note_off_c, 4, 45, 0
6, 3648, Note_off_c, 4, 57, 0
6, 3648, Note_off_c, 4, 62, 0
6, 3648, Note_on_c, 4, 45, 100
6, 3648, Note_on_c, 4, 57, 100
6, 3648, Note_on_c, 4, 62, 100
6, 3684, Note_off_c, 4, 57, 0
6, 3684, Note_off_c, 4, 62, 0
6, 3684, Note_on_c, 4, 57, 100
6, 3684, Note_on_c, 4, 62, 100
6, 3696, Note_off_c, 4, 45, 0
6, 3696, Note_off_c, 4, 57, 0
6, 3696, Note_off_c, 4, 62, 0
6, 3696, Note_on_c, 4, 45, 100
6, 3696, Note_on_c, 4, 57, 100
6, 3696, Note_on_c, 4, 62, 100
6, 3732, Note_off_c, 4, 57, 0
6, 3732, Note_off_c, 4, 62, 0
6, 3732, Note_on_c, 4, 57, 100
6, 3732, Note_on_c, 4, 62, 100
6, 3744, Note_off_c, 4, 45, 0
6, 3744, Note_on_c, 4, 45, 100
6, 3756, Note_off_c, 4, 57, 0
6, 3756, Note_off_c, 4, 62, 0
6, 3756, Note_on_c, 4, 57, 100
6, 3756, Note_on_c, 4, 62, 100
6, 3792, Note_off_c, 4, 45, 0
6, 3792, Note_off_c, 4, 57, 0
6, 3792, Note_off_c, 4, 62, 0
6, 3792, Note_on_c, 4, 45, 100
6, 3792, Note_on_c, 4, 57, 100
6, 3792, Note_on_c, 4, 62, 100
6, 3816, Note_off_c, 4, 57, 0
6, 3816, Note_off_c, 4, 62, 0
6, 3816, Note_on_c, 4, 57, 100
6, 3816, Note_on_c, 4, 62, 100
6, 3840, Note_off_c, 4, 45, 0
6, 3840, Note_off_c, 4, 57, 0
6, 3840, Note_off_c, 4, 62, 0
6, 3840, Note_on_c, 4, 45, 100
6, 3840, Note_on_c, 4, 57, 100
6, 3840, Note_on_c, 4, 64, 100
6, 3852, Note_off_c, 4, 64, 0
6, 3852, Note_on_c, 4, 62, 100
6, 3864, Note_off_c, 4, 62, 0
6, 3864, Note_on_c, 4, 61, 100
6, 3876, Note_off_c, 4, 57, 0
6, 3876, Note_off_c, 4, 61, 0
6, 3876, Note_on_c, 4, 57, 100
6, 3876, Note_on_c, 4, 62, 100
6, 3888, Note_off_c, 4, 45, 0
6, 3888, Note_off_c, 4, 57, 0
6, 3888, Note_off_c, 4, 62, 0
6, 3888, Note_on_c, 4, 45, 100
6, 3888, Note_on_c, 4, 57, 100
6, 3888, Note_on_c, 4, 61, 100
6, 3924, Note_off_c, 4, 57, 0
6, 3924, Note_on_c, 4, 57, 100
6, 3936, Note_off_c, 4, 45, 0
6, 3936, Note_on_c, 4, 45, 100
6, 3948, Note_off_c, 4, 57, 0
6, 3948, Note_on_c, 4, 57, 100
6, 3984, Note_off_c, 4, 45, 0
6, 3984, Note_off_c, 4, 57, 0
6, 3984, Note_on_c, 4, 45, 100
6, 3984, Note_on_c, 4, 57, 100
6, 4008, Note_off_c, 4, 57, 0
6, 4008, Note_on_c, 4, 57, 100
6, 4032, Note_off_c, 4, 61, 0
6, 4032, Note_off_c, 4, 45, 0
6, 4032, Note_off_c, 4, 57, 0
6, 4032, Note_on_c, 4, 45, 100
6, 4032, Note_on_c, 4, 57, 100
6, 4032, Note_on_c, 4, 64, 100
6, 4044, Note_off_c, 4, 64, 0
6, 4044, Note_on_c, 4, 62, 100
6, 4056, Note_off_c, 4, 62, 0
6, 4056, Note_on_c, 4, 61, 100
6, 4068, Note_off_c, 4, 57, 0
6, 4068, Note_off_c, 4, 61, 0
6, 4068, Note_on_c, 4, 57, 100
6, 4068, Note_on_c, 4, 62, 100
6, 4080, Note_off_c, 4, 45, 0
6, 4080, Note_off_c, 4, 57, 0
6, 4080, Note_off_c, 4, 62, 0
6, 4080, Note_on_c, 4, 45, 100
6, 4080, Note_on_c, 4, 57, 100
6, 4080, Note_on_c, 4, 61, 100
6, 4116, Note_off_c, 4, 57, 0
6, 4116, Note_on_c, 4, 57, 100
6, 4128, Note_off_c, 4, 45, 0
6, 4128, Note_on_c, 4, 45, 100
6, 4140, Note_off_c, 4, 57, 0
6, 4140, Note_on_c, 4, 57, 100
6, 4176, Note_off_c, 4, 45, 0
6, 4176, Note_off_c, 4, 57, 0
6, 4176, Note_on_c, 4, 45, 100
6, 4176, Note_on_c, 4, 57, 100
6, 4200, Note_off_c, 4, 57, 0
6, 4200, Note_on_c, 4, 57, 100
6, 4224, Note_off_c, 4, 61, 0
6, 4224, Note_off_c, 4, 45, 0
6, 4224, Note_off_c, 4, 57, 0
6, 6336, Note_on_c, 4, 45, 100
6, 6336, Note_on_c, 4, 57, 100
6, 6336, Note_on_c, 4, 64, 100
6, 6372, Note_off_c, 4, 57, 0
6, 6372, Note_off_c, 4, 64, 0
6, 6372, Note_on_c, 4, 57, 100
6, 6372, Note_on_c, 4, 64, 100
6, 6384, Note_off_c, 4, 45, 0
6, 6384, Note_off_c, 4, 57, 0
6, 6384, Note_off_c, 4, 64, 0
6, 6384, Note_on_c, 4, 45, 100
6, 6384, Note_on_c, 4, 57, 100
6, 6384, Note_on_c, 4, 64, 100
6, 6420, Note_off_c, 4, 57, 0
6, 6420, Note_off_c, 4, 64, 0
6, 6420, Note_on_c, 4, 57, 100
6, 6420, Note_on_c, 4, 64, 100
6, 6432, Note_off_c, 4, 45, 0
6, 6432, Note_on_c, 4, 45, 100
6, 6444, Note_off_c, 4, 57, 0
6, 6444, Note_off_c, 4, 64, 0
6, 6444, Note_on_c, 4, 57, 100
6, 6444, Note_on_c, 4, 64, 100
6, 6480, Note_off_c, 4, 45, 0
6, 6480, Note_off_c, 4, 57, 0
6, 6480, Note_off_c, 4, 64, 0
6, 6480, Note_on_c, 4, 45, 100
6, 6480, Note_on_c, 4, 57, 100
6, 6480, Note_on_c, 4, 64, 100
6, 6504, Note_off_c, 4, 57, 0
6, 6504, Note_off_c, 4, 64, 0
6, 6504, Note_on_c, 4, 57, 100
6, 6504, Note_on_c, 4, 64, 100
6, 6528, Note_off_c, 4, 45, 0
6, 6528, Note_off_c, 4, 57, 0
6, 6528, Note_off_c, 4, 64, 0
6, 6528, Note_on_c, 4, 45, 100
6, 6528, Note_on_c, 4, 57, 100
6, 6528, Note_on_c, 4, 63, 100
6, 6564, Note_off_c, 4, 57, 0
6, 6564, Note_off_c, 4, 63, 0
6, 6564, Note_on_c, 4, 57, 100
6, 6564, Note_on_c, 4, 63, 100
6, 6576, Note_off_c, 4, 45, 0
6, 6576, Note_off_c, 4, 57, 0
6, 6576, Note_off_c, 4, 63, 0
6, 6576, Note_on_c, 4, 45, 100
6, 6576, Note_on_c, 4, 57, 100
6, 6576, Note_on_c, 4, 63, 100
6, 6612, Note_off_c, 4, 57, 0
6, 6612, Note_off_c, 4, 63, 0
6, 6612, Note_on_c, 4, 57, 100
6, 6612, Note_on_c, 4, 63, 100
6, 6624, Note_off_c, 4, 45, 0
6, 6624, Note_on_c, 4, 45, 100
6, 6636, Note_off_c, 4, 57, 0
6, 6636, Note_off_c, 4, 63, 0
6, 6636, Note_on_c, 4, 57, 100
6, 6636, Note_on_c, 4, 63, 100
6, 6672, Note_off_c, 4, 45, 0
6, 6672, Note_off_c, 4, 57, 0
6, 6672, Note_off_c, 4, 63, 0
6, 6672, Note_on_c, 4, 45, 100
6, 6672, Note_on_c, 4, 57, 100
6, 6672, Note_on_c, 4, 63, 100
6, 6696, Note_off_c, 4, 57, 0
6, 6696, Note_off_c, 4, 63, 0
6, 6696, Note_on_c, 4, 57, 100
6, 6696, Note_on_c, 4, 63, 100
6, 6720, Note_off_c, 4, 45, 0
6, 6720, Note_off_c, 4, 57, 0
6, 6720, Note_off_c, 4, 63, 0
6, 6720, Note_on_c, 4, 45, 100
6, 6720, Note_on_c, 4, 57, 100
6, 6720, Note_on_c, 4, 62, 100
6, 6756, Note_off_c, 4, 57, 0
6, 6756, Note_off_c, 4, 62, 0
6, 6756, Note_on_c, 4, 57, 100
6, 6756, Note_on_c, 4, 62, 100
6, 6768, Note_off_c, 4, 45, 0
6, 6768, Note_off_c, 4, 57, 0
6, 6768, Note_off_c, 4, 62, 0
6, 6768, Note_on_c, 4, 45, 100
6, 6768, Note_on_c, 4, 57, 100
6, 6768, Note_on_c, 4, 62, 100
6, 6804, Note_off_c, 4, 57, 0
6, 6804, Note_off_c, 4, 62, 0
6, 6804, Note_on_c, 4, 57, 100
6, 6804, Note_on_c, 4, 62, 100
6, 6816, Note_off_c, 4, 45, 0
6, 6816, Note_on_c, 4, 45, 100
6, 6828, Note_off_c, 4, 57, 0
6, 6828, Note_off_c, 4, 62, 0
6, 6828, Note_on_c, 4, 57, 100
6, 6828, Note_on_c, 4, 62, 100
6, 6864, Note_off_c, 4, 45, 0
6, 6864, Note_off_c, 4, 57, 0
6, 6864, Note_off_c, 4, 62, 0
6, 6864, Note_on_c, 4, 45, 100
6, 6864, Note_on_c, 4, 57, 100
6, 6864, Note_on_c, 4, 62, 100
6, 6888, Note_off_c, 4, 57, 0
6, 6888, Note_off_c, 4, 62, 0
6, 6888, Note_on_c, 4, 57, 100
6, 6888, Note_on_c, 4, 62, 100
6, 6912, Note_off_c, 4, 45, 0
6, 6912, Note_off_c, 4, 57, 0
6, 6912, Note_off_c, 4, 62, 0
6, 6912, Note_on_c, 4, 45, 100
6, 6912, Note_on_c, 4, 57, 100
6, 6912, Note_on_c, 4, 62, 100
6, 6948, Note_off_c, 4, 57, 0
6, 6948, Note_off_c, 4, 62, 0
6, 6948, Note_on_c, 4, 57, 100
6, 6948, Note_on_c, 4, 62, 100
6, 6960, Note_off_c, 4, 45, 0
6, 6960, Note_off_c, 4, 57, 0
6, 6960, Note_off_c, 4, 62, 0
6, 6960, Note_on_c, 4, 45, 100
6, 6960, Note_on_c, 4, 57, 100
6, 6960, Note_on_c, 4, 62, 100
6, 6996, Note_off_c, 4, 57, 0
6, 6996, Note_off_c, 4, 62, 0
6, 6996, Note_on_c, 4, 57, 100
6, 6996, Note_on_c, 4, 62, 100
6, 7008, Note_off_c, 4, 45, 0
6, 7008, Note_on_c, 4, 45, 100
6, 7020, Note_off_c, 4, 57, 0
6, 7020, Note_off_c, 4, 62, 0
6, 7020, Note_on_c, 4, 57, 100
6, 7020, Note_on_c, 4, 62, 100
6, 7056, Note_off_c, 4, 45, 0
6, 7056, Note_off_c, 4, 57, 0
6, 7056, Note_off_c, 4, 62, 0
6, 7056, Note_on_c, 4, 45, 100
6, 7056, Note_on_c, 4, 57, 100
6, 7056, Note_on_c, 4, 62, 100
6, 7080, Note_off_c, 4, 57, 0
6, 7080, Note_off_c, 4, 62, 0
6, 7080, Note_on_c, 4, 57, 100
6, 7080, Note_on_c, 4, 62, 100
6, 7104, Note_off_c, 4, 45, 0
6, 7104, Note_off_c, 4, 57, 0
6, 7104, Note_off_c, 4, 62, 0
6, 7104, Note_on_c, 4, 45, 100
6, 7104, Note_on_c, 4, 57, 100
6, 7104, Note_on_c, 4, 64, 100
6, 7116, Note_off_c, 4, 64, 0
6, 7116, Note_on_c, 4, 62, 100
6, 7128, Note_off_c, 4, 62, 0
6, 7128, Note_on_c, 4, 61, 100
6, 7140, Note_off_c, 4, 57, 0
6, 7140, Note_off_c, 4, 61, 0
6, 7140, Note_on_c, 4, 57, 100
6, 7140, Note_on_c, 4, 62, 100
6, 7152, Note_off_c, 4, 45, 0
6, 7152, Note_off_c, 4, 57, 0
6, 7152, Note_off_c, 4, 62, 0
6, 7152, Note_on_c, 4, 45, 100
6, 7152, Note_on_c, 4, 57, 100
6, 7152, Note_on_c, 4, 61, 100
6, 7188, Note_off_c, 4, 57, 0
6, 7188, Note_on_c, 4, 57, 100
6, 7200, Note_off_c, 4, 45, 0
6, 7200, Note_on_c, 4, 45, 100
6, 7212, Note_off_c, 4, 57, 0
6, 7212, Note_on_c, 4, 57, 100
6, 7248, Note_off_c, 4, 45, 0
6, 7248, Note_off_c, 4, 57, 0
6, 7248, Note_on_c, 4, 45, 100
6, 7248, Note_on_c, 4, 57, 100
6, 7272, Note_off_c, 4, 57, 0
6, 7272, Note_on_c, 4, 57, 100
6, 7296, Note_off_c, 4, 61, 0
6, 7296, Note_off_c, 4, 45, 0
6, 7296, Note_off_c, 4, 57, 0
6, 7296, Note_on_c, 4, 45, 100
6, 7296, Note_on_c, 4, 57, 100
6, 7296, Note_on_c, 4, 64, 100
6, 7308, Note_off_c, 4, 64, 0
6, 7308, Note_on_c, 4, 62, 100
6, 7320, Note_off_c, 4, 62, 0
6, 7320, Note_on_c, 4, 61, 100
6, 7332, Note_off_c, 4, 57, 0
6, 7332, Note_off_c, 4, 61, 0
6, 7332, Note_on_c, 4, 57, 100
6, 7332, Note_on_c, 4, 62, 100
6, 7344, Note_off_c, 4, 45, 0
6, 7344, Note_off_c, 4, 57, 0
6, 7344, Note_off_c, 4, 62, 0
6, 7344, Note_on_c, 4, 45, 100
6, 7344, Note_on_c, 4, 57, 100
6, 7344, Note_on_c, 4, 61, 100
6, 7380, Note_off_c, 4, 57, 0
6, 7380, Note_on_c, 4, 57, 100
6, 7392, Note_off_c, 4, 45, 0
6, 7392, Note_on_c, 4, 45, 100
6, 7404, Note_off_c, 4, 57, 0
6, 7404, Note_on_c, 4, 57, 100
6, 7440, Note_off_c, 4, 45, 0
6, 7440, Note_off_c, 4, 57, 0
6, 7440, Note_on_c, 4, 45, 100
6, 7440, Note_on_c, 4, 57, 100
6, 7464, Note_off_c, 4, 57, 0
6, 7464, Note_on_c, 4, 57, 100
6, 7488, Note_off_c, 4, 61, 0
6, 7488, Note_off_c, 4, 45, 0
6, 7488, Note_off_c, 4, 57, 0
6, 7488, Note_on_c, 4, 45, 100
6, 7488, Note_on_c, 4, 57, 100
6, 7488, Note_on_c, 4, 64, 100
6, 7524, Note_off_c, 4, 57, 0
6, 7524, Note_off_c, 4, 64, 0
6, 7524, Note_on_c, 4, 57, 100
6, 7524, Note_on_c, 4, 64, 100
6, 7536, Note_off_c, 4, 45, 0
6, 7536, Note_off_c, 4, 57, 0
6, 7536, Note_off_c, 4, 64, 0
6, 7536, Note_on_c, 4, 45, 100
6, 7536, Note_on_c, 4, 57, 100
6, 7536, Note_on_c, 4, 64, 100
6, 7572, Note_off_c, 4, 57, 0
6, 7572, Note_off_c, 4, 64, 0
6, 7572, Note_on_c, 4, 57, 100
6, 7572, Note_on_c, 4, 64, 100
6, 7584, Note_off_c, 4, 45, 0
6, 7584, Note_on_c, 4, 45, 100
6, 7596, Note_off_c, 4, 57, 0
6, 7596, Note_off_c, 4, 64, 0
6, 7596, Note_on_c, 4, 57, 100
6, 7596, Note_on_c, 4, 64, 100
6, 7632, Note_off_c, 4, 45, 0
6, 7632, Note_off_c, 4, 57, 0
6, 7632, Note_off_c, 4, 64, 0
6, 7632, Note_on_c, 4, 45, 100
6, 7632, Note_on_c, 4, 57, 100
6, 7632, Note_on_c, 4, 64, 100
6, 7656, Note_off_c, 4, 57, 0
6, 7656, Note_off_c, 4, 64, 0
6, 7656, Note_on_c, 4, 57, 100
6, 7656, Note_on_c, 4, 64, 100
6, 7680, Note_off_c, 4, 45, 0
6, 7680, Note_off_c, 4, 57, 0
6, 7680, Note_off_c, 4, 64, 0
6, 7680, Note_on_c, 4, 45, 100
6, 7680, Note_on_c, 4, 57, 100
6, 7680, Note_on_c, 4, 63, 100
6, 7716, Note_off_c, 4, 57, 0
6, 7716, Note_off_c, 4, 63, 0
6, 7716, Note_on_c, 4, 57, 100
6, 7716, Note_on_c, 4, 63, 100
6, 7728, Note_off_c, 4, 45, 0
6, 7728, Note_off_c, 4, 57, 0
6, 7728, Note_off_c, 4, 63, 0
6, 7728, Note_on_c, 4, 45, 100
6, 7728, Note_on_c, 4, 57, 100
6, 7728, Note_on_c, 4, 63, 100
6, 7764, Note_off_c, 4, 57, 0
6, 7764, Note_off_c, 4, 63, 0
6, 7764, Note_on_c, 4, 57, 100
6, 7764, Note_on_c, 4, 63, 100
6, 7776, Note_off_c, 4, 45, 0
6, 7776, Note_on_c, 4, 45, 100
6, 7788, Note_off_c, 4, 57, 0
6, 7788, Note_off_c, 4, 63, 0
6, 7788, Note_on_c, 4, 57, 100
6, 7788, Note_on_c, 4, 63, 100
6, 7824, Note_off_c, 4, 45, 0
6, 7824, Note_off_c, 4, 57, 0
6, 7824, Note_off_c, 4, 63, 0
6, 7824, Note_on_c, 4, 45, 100
6, 7824, Note_on_c, 4, 57, 100
6, 7824, Note_on_c, 4, 63, 100
6, 7848, Note_off_c, 4, 57, 0
6, 7848, Note_off_c, 4, 63, 0
6, 7848, Note_on_c, 4, 57, 100
6, 7848, Note_on_c, 4, 63, 100
6, 7872, Note_off_c, 4, 45, 0
6, 7872, Note_off_c, 4, 57, 0
6, 7872, Note_off_c, 4, 63, 0
6, 7872, Note_on_c, 4, 45, 100
6, 7872, Note_on_c, 4, 57, 100
6, 7872, Note_on_c, 4, 62, 100
6, 7908, Note_off_c, 4, 57, 0
6, 7908, Note_off_c, 4, 62, 0
6, 7908, Note_on_c, 4, 57, 100
6, 7908, Note_on_c, 4, 62, 100
6, 7920, Note_off_c, 4, 45, 0
6, 7920, Note_off_c, 4, 57, 0
6, 7920, Note_off_c, 4, 62, 0
6, 7920, Note_on_c, 4, 45, 100
6, 7920, Note_on_c, 4, 57, 100
6, 7920, Note_on_c, 4, 62, 100
6, 7956, Note_off_c, 4, 57, 0
6, 7956, Note_off_c, 4, 62, 0
6, 7956, Note_on_c, 4, 57, 100
6, 7956, Note_on_c, 4, 62, 100
6, 7968, Note_off_c, 4, 45, 0
6, 7968, Note_on_c, 4, 45, 100
6, 7980, Note_off_c, 4, 57, 0
6, 7980, Note_off_c, 4, 62, 0
6, 7980, Note_on_c, 4, 57, 100
6, 7980, Note_on_c, 4, 62, 100
6, 8016, Note_off_c, 4, 45, 0
6, 8016, Note_off_c, 4, 57, 0
6, 8016, Note_off_c, 4, 62, 0
6, 8016, Note_on_c, 4, 45, 100
6, 8016, Note_on_c, 4, 57, 100
6, 8016, Note_on_c, 4, 62, 100
6, 8040, Note_off_c, 4, 57, 0
6, 8040, Note_off_c, 4, 62, 0
6, 8040, Note_on_c, 4, 57, 100
6, 8040, Note_on_c, 4, 62, 100
6, 8064, Note_off_c, 4, 45, 0
6, 8064, Note_off_c, 4, 57, 0
6, 8064, Note_off_c, 4, 62, 0
6, 8064, Note_on_c, 4, 45, 100
6, 8064, Note_on_c, 4, 57, 100
6, 8064, Note_on_c, 4, 62, 100
6, 8100, Note_off_c, 4, 57, 0
6, 8100, Note_off_c, 4, 62, 0
6, 8100, Note_on_c, 4, 57, 100
6, 8100, Note_on_c, 4, 62, 100
6, 8112, Note_off_c, 4, 45, 0
6, 8112, Note_off_c, 4, 57, 0
6, 8112, Note_off_c, 4, 62, 0
6, 8112, Note_on_c, 4, 45, 100
6, 8112, Note_on_c, 4, 57, 100
6, 8112, Note_on_c, 4, 62, 100
6, 8148, Note_off_c, 4, 57, 0
6, 8148, Note_off_c, 4, 62, 0
6, 8148, Note_on_c, 4, 57, 100
6, 8148, Note_on_c, 4, 62, 100
6, 8160, Note_off_c, 4, 45, 0
6, 8160, Note_on_c, 4, 45, 100
6, 8172, Note_off_c, 4, 57, 0
6, 8172, Note_off_c, 4, 62, 0
6, 8172, Note_on_c, 4, 57, 100
6, 8172, Note_on_c, 4, 62, 100
6, 8208, Note_off_c, 4, 45, 0
6, 8208, Note_off_c, 4, 57, 0
6, 8208, Note_off_c, 4, 62, 0
6, 8208, Note_on_c, 4, 45, 100
6, 8208, Note_on_c, 4, 57, 100
6, 8208, Note_on_c, 4, 62, 100
6, 8232, Note_off_c, 4, 57, 0
6, 8232, Note_off_c, 4, 62, 0
6, 8232, Note_on_c, 4, 57, 100
6, 8232, Note_on_c, 4, 62, 100
6, 8256, Note_off_c, 4, 45, 0
6, 8256, Note_off_c, 4, 57, 0
6, 8256, Note_off_c, 4, 62, 0
6, 8256, Note_on_c, 4, 45, 100
6, 8256, Note_on_c, 4, 57, 100
6, 8256, Note_on_c, 4, 64, 100
6, 8268, Note_off_c, 4, 64, 0
6, 8268, Note_on_c, 4, 62, 100
6, 8280, Note_off_c, 4, 62, 0
6, 8280, Note_on_c, 4, 61, 100
6, 8292, Note_off_c, 4, 57, 0
6, 8292, Note_off_c, 4, 61, 0
6, 8292, Note_on_c, 4, 57, 100
6, 8292, Note_on_c, 4, 62, 100
6, 8304, Note_off_c, 4, 45, 0
6, 8304, Note_off_c, 4, 57, 0
6, 8304, Note_off_c, 4, 62, 0
6, 8304, Note_on_c, 4, 45, 100
6, 8304, Note_on_c, 4, 57, 100
6, 8304, Note_on_c, 4, 61, 100
6, 8340, Note_off_c, 4, 57, 0
6, 8340, Note_on_c, 4, 57, 100
6, 8352, Note_off_c, 4, 45, 0
6, 8352, Note_on_c, 4, 45, 100
6, 8364, Note_off_c, 4, 57, 0
6, 8364, Note_on_c, 4, 57, 100
6, 8400, Note_off_c, 4, 45, 0
6, 8400, Note_off_c, 4, 57, 0
6, 8400, Note_on_c, 4, 45, 100
6, 8400, Note_on_c, 4, 57, 100
6, 8424, Note_off_c, 4, 57, 0
6, 8424, Note_on_c, 4, 57, 100
6, 8448, Note_off_c, 4, 61, 0
6, 8448, Note_off_c, 4, 45, 0
6, 8448, Note_off_c, 4, 57, 0
6, 8448, Note_on_c, 4, 45, 100
6, 8448, Note_on_c, 4, 57, 100
6, 8448, Note_on_c, 4, 64, 100
6, 8460, Note_off_c, 4, 64, 0
6, 8460, Note_on_c, 4, 62, 100
6, 8472, Note_off_c, 4, 62, 0
6, 8472, Note_on_c, 4, 61, 100
6, 8484, Note_off_c, 4, 57, 0
6, 8484, Note_off_c, 4, 61, 0
6, 8484, Note_on_c, 4, 57, 100
6, 8484, Note_on_c, 4, 62, 100
6, 8496, Note_off_c, 4, 45, 0
6, 8496, Note_off_c, 4, 57, 0
6, 8496, Note_off_c, 4, 62, 0
6, 8496, Note_on_c, 4, 45, 100
6, 8496, Note_on_c, 4, 57, 100
6, 8496, Note_on_c, 4, 61, 100
6, 8532, Note_off_c, 4, 57, 0
6, 8532, Note_on_c, 4, 57, 100
6, 8544, Note_off_c, 4, 45, 0
6, 8544, Note_on_c, 4, 45, 100
6, 8556, Note_off_c, 4, 57, 0
6, 8556, Note_on_c, 4, 57, 100
6, 8592, Note_off_c, 4, 45, 0
6, 8592, Note_off_c, 4, 57, 0
6, 8592, Note_on_c, 4, 45, 100
6, 8592, Note_on_c, 4, 57, 100
6, 8616, Note_off_c, 4, 57, 0
6, 8616, Note_on_c, 4, 57, 100
6, 8640, Note_off_c, 4, 61, 0
6, 8640, Note_off_c, 4, 45, 0
6, 8640, Note_off_c, 4, 57, 0
6, 8640, Note_on_c, 4, 69, 100
6, 8643, Note_off_c, 4, 69, 0
6, 8643, Note_on_c, 4, 69, 100
6, 8649, Note_off_c, 4, 69, 0
6, 8649, Note_on_c, 4, 69, 100
6, 8652, Note_off_c, 4, 69, 0
6, 8652, Note_on_c, 4, 69, 100
6, 8661, Note_off_c, 4, 69, 0
6, 8661, Note_on_c, 4, 69, 100
6, 8664, Note_off_c, 4, 69, 0
6, 8664, Note_on_c, 4, 69, 100
6, 8670, Note_off_c, 4, 69, 0
6, 8670, Note_on_c, 4, 69, 100
6, 8679, Note_off_c, 4, 69, 0
6, 8679, Note_on_c, 4, 69, 100
6, 8682, Note_off_c, 4, 69, 0
6, 8682, Note_on_c, 4, 69, 100
6, 8685, Note_off_c, 4, 69, 0
6, 8685, Note_on_c, 4, 69, 100
6, 8691, Note_off_c, 4, 69, 0
6, 8691, Note_on_c, 4, 69, 100
6, 8694, Note_off_c, 4, 69, 0
6, 8694, Note_on_c, 4, 69, 100
6, 8700, Note_off_c, 4, 69, 0
6, 8700, Note_on_c, 4, 69, 100
6, 8709, Note_off_c, 4, 69, 0
6, 8709, Note_on_c, 4, 69, 100
6, 8712, Note_off_c, 4, 69, 0
6, 8712, Note_on_c, 4, 69, 100
6, 8715, Note_off_c, 4, 69, 0
6, 8715, Note_on_c, 4, 69, 100
6, 8721, Note_off_c, 4, 69, 0
6, 8721, Note_on_c, 4, 69, 100
6, 8733, Note_off_c, 4, 69, 0
6, 8733, Note_on_c, 4, 69, 100
6, 8736, Note_off_c, 4, 69, 0
6, 8736, Note_on_c, 4, 69, 100
6, 8739, Note_off_c, 4, 69, 0
6, 8739, Note_on_c, 4, 69, 100
6, 8751, Note_off_c, 4, 69, 0
6, 8751, Note_on_c, 4, 69, 100
6, 8760, Note_off_c, 4, 69, 0
6, 8760, Note_on_c, 4, 69, 100
6, 8763, Note_off_c, 4, 69, 0
6, 8763, Note_on_c, 4, 69, 100
6, 8772, Note_off_c, 4, 69, 0
6, 8772, Note_on_c, 4, 69, 100
6, 8778, Note_off_c, 4, 69, 0
6, 8778, Note_on_c, 4, 69, 100
6, 8781, Note_off_c, 4, 69, 0
6, 8781, Note_on_c, 4, 69, 100
6, 8787, Note_off_c, 4, 69, 0
6, 8787, Note_on_c, 4, 69, 100
6, 8793, Note_off_c, 4, 69, 0
6, 8793, Note_on_c, 4, 69, 100
6, 8802, Note_off_c, 4, 69, 0
6, 8802, Note_on_c, 4, 69, 100
6, 8814, Note_off_c, 4, 69, 0
6, 8814, Note_on_c, 4, 69, 100
6, 8817, Note_off_c, 4, 69, 0
6, 8817, Note_on_c, 4, 69, 100
6, 8823, Note_off_c, 4, 69, 0
6, 8823, Note_on_c, 4, 69, 100
6, 8826, Note_off_c, 4, 69, 0
6, 8826, Note_on_c, 4, 69, 100
6, 8832, Note_off_c, 4, 69, 0
6, 8832, Note_on_c, 4, 69, 100
6, 8835, Note_off_c, 4, 69, 0
6, 8835, Note_on_c, 4, 69, 100
6, 8841, Note_off_c, 4, 69, 0
6, 8841, Note_on_c, 4, 69, 100
6, 8844, Note_off_c, 4, 69, 0
6, 8844, Note_on_c, 4, 69, 100
6, 8853, Note_off_c, 4, 69, 0
6, 8853, Note_on_c, 4, 69, 100
6, 8856, Note_off_c, 4, 69, 0
6, 8856, Note_on_c, 4, 69, 100
6, 8862, Note_off_c, 4, 69, 0
6, 8862, Note_on_c, 4, 69, 100
6, 8871, Note_off_c, 4, 69, 0
6, 8871, Note_on_c, 4, 69, 100
6, 8874, Note_off_c, 4, 69, 0
6, 8874, Note_on_c, 4, 69, 100
6, 8877, Note_off_c, 4, 69, 0
6, 8877, Note_on_c, 4, 69, 100
6, 8883, Note_off_c, 4, 69, 0
6, 8883, Note_on_c, 4, 69, 100
6, 8886, Note_off_c, 4, 69, 0
6, 8886, Note_on_c, 4, 69, 100
6, 8892, Note_off_c, 4, 69, 0
6, 8892, Note_on_c, 4, 69, 100
6, 8901, Note_off_c, 4, 69, 0
6, 8901, Note_on_c, 4, 69, 100
6, 8904, Note_off_c, 4, 69, 0
6, 8904, Note_on_c, 4, 69, 100
6, 8907, Note_off_c, 4, 69, 0
6, 8907, Note_on_c, 4, 69, 100
6, 8913, Note_off_c, 4, 69, 0
6, 8913, Note_on_c, 4, 69, 100
6, 8925, Note_off_c, 4, 69, 0
6, 8925, Note_on_c, 4, 69, 100
6, 8928, Note_off_c, 4, 69, 0
6, 8928, Note_on_c, 4, 69, 100
6, 8931, Note_off_c, 4, 69, 0
6, 8931, Note_on_c, 4, 69, 100
6, 8943, Note_off_c, 4, 69, 0
6, 8943, Note_on_c, 4, 69, 100
6, 8952, Note_off_c, 4, 69, 0
6, 8952, Note_on_c, 4, 69, 100
6, 8955, Note_off_c, 4, 69, 0
6, 8955, Note_on_c, 4, 69, 100
6, 8964, Note_off_c, 4, 69, 0
6, 8964, Note_on_c, 4, 69, 100
6, 8970, Note_off_c, 4, 69, 0
6, 8970, Note_on_c, 4, 69, 100
6, 8973, Note_off_c, 4, 69, 0
6, 8973, Note_on_c, 4, 69, 100
6, 8979, Note_off_c, 4, 69, 0
6, 8979, Note_on_c, 4, 69, 100
6, 8985, Note_off_c, 4, 69, 0
6, 8985, Note_on_c, 4, 69, 100
6, 8994, Note_off_c, 4, 69, 0
6, 8994, Note_on_c, 4, 69, 100
6, 9006, Note_off_c, 4, 69, 0
6, 9006, Note_on_c, 4, 69, 100
6, 9009, Note_off_c, 4, 69, 0
6, 9009, Note_on_c, 4, 69, 100
6, 9015, Note_off_c, 4, 69, 0
6, 9015, Note_on_c, 4, 69, 100
6, 9018, Note_off_c, 4, 69, 0
6, 9018, Note_on_c, 4, 69, 100
6, 9024, Note_off_c, 4, 69, 0
6, 9024, Note_on_c, 4, 69, 100
6, 9027, Note_off_c, 4, 69, 0
6, 9027, Note_on_c, 4, 69, 100
6, 9033, Note_off_c, 4, 69, 0
6, 9033, Note_on_c, 4, 69, 100
6, 9036, Note_off_c, 4, 69, 0
6, 9036, Note_on_c, 4, 69, 100
6, 9045, Note_off_c, 4, 69, 0
6, 9045, Note_on_c, 4, 69, 100
6, 9048, Note_off_c, 4, 69, 0
6, 9048, Note_on_c, 4, 69, 100
6, 9054, Note_off_c, 4, 69, 0
6, 9054, Note_on_c, 4, 69, 100
6, 9063, Note_off_c, 4, 69, 0
6, 9063, Note_on_c, 4, 69, 100
6, 9066, Note_off_c, 4, 69, 0
6, 9066, Note_on_c, 4, 69, 100
6, 9069, Note_off_c, 4, 69, 0
6, 9069, Note_on_c, 4, 69, 100
6, 9075, Note_off_c, 4, 69, 0
6, 9075, Note_on_c, 4, 69, 100
6, 9078, Note_off_c, 4, 69, 0
6, 9078, Note_on_c, 4, 69, 100
6, 9084, Note_off_c, 4, 69, 0
6, 9084, Note_on_c, 4, 69, 100
6, 9093, Note_off_c, 4, 69, 0
6, 9093, Note_on_c, 4, 69, 100
6, 9096, Note_off_c, 4, 69, 0
6, 9096, Note_on_c, 4, 69, 100
6, 9099, Note_off_c, 4, 69, 0
6, 9099, Note_on_c, 4, 69, 100
6, 9105, Note_off_c, 4, 69, 0
6, 9105, Note_on_c, 4, 69, 100
6, 9117, Note_off_c, 4, 69, 0
6, 9117, Note_on_c, 4, 69, 100
6, 9120, Note_off_c, 4, 69, 0
6, 9120, Note_on_c, 4, 69, 100
6, 9123, Note_off_c, 4, 69, 0
6, 9123, Note_on_c, 4, 69, 100
6, 9135, Note_off_c, 4, 69, 0
6, 9135, Note_on_c, 4, 69, 100
6, 9144, Note_off_c, 4, 69, 0
6, 9144, Note_on_c, 4, 69, 100
6, 9147, Note_off_c, 4, 69, 0
6, 9147, Note_on_c, 4, 69, 100
6, 9156, Note_off_c, 4, 69, 0
6, 9156, Note_on_c, 4, 69, 100
6, 9162, Note_off_c, 4, 69, 0
6, 9162, Note_on_c, 4, 69, 100
6, 9165, Note_off_c, 4, 69, 0
6, 9165, Note_on_c, 4, 69, 100
6, 9171, Note_off_c, 4, 69, 0
6, 9171, Note_on_c, 4, 69, 100
6, 9177, Note_off_c, 4, 69, 0
6, 9177, Note_on_c, 4, 69, 100
6, 9186, Note_off_c, 4, 69, 0
6, 9186, Note_on_c, 4, 69, 100
6, 9198, Note_off_c, 4, 69, 0
6, 9198, Note_on_c, 4, 69, 100
6, 9201, Note_off_c, 4, 69, 0
6, 9201, Note_on_c, 4, 69, 100
6, 9207, Note_off_c, 4, 69, 0
6, 9207, Note_on_c, 4, 69, 100
6, 9210, Note_off_c, 4, 69, 0
6, 9210, Note_on_c, 4, 69, 100
6, 9216, Note_off_c, 4, 69, 0
6, 9216, Note_on_c, 4, 69, 100
6, 9219, Note_off_c, 4, 69, 0
6, 9219, Note_on_c, 4, 69, 100
6, 9225, Note_off_c, 4, 69, 0
6, 9225, Note_on_c, 4, 69, 100
6, 9228, Note_off_c, 4, 69, 0
6, 9228, Note_on_c, 4, 69, 100
6, 9237, Note_off_c, 4, 69, 0
6, 9237, Note_on_c, 4, 69, 100
6, 9240, Note_off_c, 4, 69, 0
6, 9240, Note_on_c, 4, 69, 100
6, 9246, Note_off_c, 4, 69, 0
6, 9246, Note_on_c, 4, 69, 100
6, 9255, Note_off_c, 4, 69, 0
6, 9255, Note_on_c, 4, 69, 100
6, 9258, Note_off_c, 4, 69, 0
6, 9258, Note_on_c, 4, 69, 100
6, 9261, Note_off_c, 4, 69, 0
6, 9261, Note_on_c, 4, 69, 100
6, 9267, Note_off_c, 4, 69, 0
6, 9267, Note_on_c, 4, 69, 100
6, 9270, Note_off_c, 4, 69, 0
6, 9270, Note_on_c, 4, 69, 100
6, 9276, Note_off_c, 4, 69, 0
6, 9276, Note_on_c, 4, 69, 100
6, 9285, Note_off_c, 4, 69, 0
6, 9285, Note_on_c, 4, 69, 100
6, 9288, Note_off_c, 4, 69, 0
6, 9288, Note_on_c, 4, 69, 100
6, 9291, Note_off_c, 4, 69, 0
6, 9291, Note_on_c, 4, 69, 100
6, 9297, Note_off_c, 4, 69, 0
6, 9297, Note_on_c, 4, 69, 100
6, 9303, Note_off_c, 4, 69, 0
6, 9303, Note_on_c, 4, 69, 100
6, 9309, Note_off_c, 4, 69, 0
6, 9309, Note_on_c, 4, 69, 100
6, 9312, Note_off_c, 4, 69, 0
6, 9312, Note_on_c, 4, 69, 100
6, 9315, Note_off_c, 4, 69, 0
6, 9315, Note_on_c, 4, 69, 100
6, 9321, Note_off_c, 4, 69, 0
6, 9321, Note_on_c, 4, 69, 100
6, 9327, Note_off_c, 4, 69, 0
6, 9327, Note_on_c, 4, 69, 100
6, 9333, Note_off_c, 4, 69, 0
6, 9333, Note_on_c, 4, 69, 100
6, 9336, Note_off_c, 4, 69, 0
6, 9336, Note_on_c, 4, 69, 100
6, 9339, Note_off_c, 4, 69, 0
6, 9339, Note_on_c, 4, 69, 100
6, 9348, Note_off_c, 4, 69, 0
6, 9348, Note_on_c, 4, 69, 100
6, 9351, Note_off_c, 4, 69, 0
6, 9351, Note_on_c, 4, 69, 100
6, 9354, Note_off_c, 4, 69, 0
6, 9354, Note_on_c, 4, 69, 100
6, 9357, Note_off_c, 4, 69, 0
6, 9357, Note_on_c, 4, 69, 100
6, 9363, Note_off_c, 4, 69, 0
6, 9363, Note_on_c, 4, 69, 100
6, 9369, Note_off_c, 4, 69, 0
6, 9369, Note_on_c, 4, 69, 100
6, 9378, Note_off_c, 4, 69, 0
6, 9378, Note_on_c, 4, 69, 100
6, 9381, Note_off_c, 4, 69, 0
6, 9381, Note_on_c, 4, 69, 100
6, 9390, Note_off_c, 4, 69, 0
6, 9390, Note_on_c, 4, 69, 100
6, 9393, Note_off_c, 4, 69, 0
6, 9393, Note_on_c, 4, 69, 100
6, 9399, Note_off_c, 4, 69, 0
6, 9399, Note_on_c, 4, 69, 100
6, 9402, Note_off_c, 4, 69, 0
6, 9402, Note_on_c, 4, 69, 100
6, 9408, Note_off_c, 4, 69, 0
6, 9408, Note_on_c, 4, 69, 100
6, 9411, Note_off_c, 4, 69, 0
6, 9411, Note_on_c, 4, 69, 100
6, 9414, Note_off_c, 4, 69, 0
6, 9414, Note_on_c, 4, 69, 100
6, 9417, Note_off_c, 4, 69, 0
6, 9417, Note_on_c, 4, 69, 100
6, 9420, Note_off_c, 4, 69, 0
6, 9420, Note_on_c, 4, 69, 100
6, 9429, Note_off_c, 4, 69, 0
6, 9429, Note_on_c, 4, 69, 100
6, 9432, Note_off_c, 4, 69, 0
6, 9432, Note_on_c, 4, 69, 100
6, 9438, Note_off_c, 4, 69, 0
6, 9438, Note_on_c, 4, 69, 100
6, 9441, Note_off_c, 4, 69, 0
6, 9441, Note_on_c, 4, 69, 100
6, 9444, Note_off_c, 4, 69, 0
6, 9444, Note_on_c, 4, 69, 100
6, 9447, Note_off_c, 4, 69, 0
6, 9447, Note_on_c, 4, 69, 100
6, 9450, Note_off_c, 4, 69, 0
6, 9450, Note_on_c, 4, 69, 100
6, 9453, Note_off_c, 4, 69, 0
6, 9453, Note_on_c, 4, 69, 100
6, 9456, Note_off_c, 4, 69, 0
6, 9456, Note_on_c, 4, 69, 100
6, 9459, Note_off_c, 4, 69, 0
6, 9459, Note_on_c, 4, 69, 100
6, 9462, Note_off_c, 4, 69, 0
6, 9462, Note_on_c, 4, 69, 100
6, 9468, Note_off_c, 4, 69, 0
6, 9468, Note_on_c, 4, 69, 100
6, 9474, Note_off_c, 4, 69, 0
6, 9474, Note_on_c, 4, 69, 100
6, 9477, Note_off_c, 4, 69, 0
6, 9477, Note_on_c, 4, 69, 100
6, 9480, Note_off_c, 4, 69, 0
6, 9480, Note_on_c, 4, 69, 100
6, 9483, Note_off_c, 4, 69, 0
6, 9483, Note_on_c, 4, 69, 100
6, 9486, Note_off_c, 4, 69, 0
6, 9486, Note_on_c, 4, 69, 100
6, 9489, Note_off_c, 4, 69, 0
6, 9489, Note_on_c, 4, 69, 100
6, 9492, Note_off_c, 4, 69, 0
6, 9492, Note_on_c, 4, 69, 100
6, 9495, Note_off_c, 4, 69, 0
6, 9495, Note_on_c, 4, 69, 100
6, 9501, Note_off_c, 4, 69, 0
6, 9501, Note_on_c, 4, 69, 100
6, 9504, Note_off_c, 4, 69, 0
6, 9504, Note_on_c, 4, 69, 100
6, 9507, Note_off_c, 4, 69, 0
6, 9507, Note_on_c, 4, 69, 100
6, 9510, Note_off_c, 4, 69, 0
6, 9510, Note_on_c, 4, 69, 100
6, 9516, Note_off_c, 4, 69, 0
6, 9516, Note_on_c, 4, 69, 100
6, 9519, Note_off_c, 4, 69, 0
6, 9519, Note_on_c, 4, 69, 100
6, 9528, Note_off_c, 4, 69, 0
6, 9528, Note_on_c, 4, 69, 100
6, 9531, Note_off_c, 4, 69, 0
6, 9531, Note_on_c, 4, 69, 100
6, 9540, Note_off_c, 4, 69, 0
6, 9540, Note_on_c, 4, 69, 100
6, 9546, Note_off_c, 4, 69, 0
6, 9546, Note_on_c, 4, 69, 100
6, 9549, Note_off_c, 4, 69, 0
6, 9549, Note_on_c, 4, 69, 100
6, 9552, Note_off_c, 4, 69, 0
6, 9552, Note_on_c, 4, 69, 100
6, 9555, Note_off_c, 4, 69, 0
6, 9555, Note_on_c, 4, 69, 100
6, 9561, Note_off_c, 4, 69, 0
6, 9561, Note_on_c, 4, 69, 100
6, 9570, Note_off_c, 4, 69, 0
6, 9570, Note_on_c, 4, 69, 100
6, 9573, Note_off_c, 4, 69, 0
6, 9573, Note_on_c, 4, 69, 100
6, 9579, Note_off_c, 4, 69, 0
6, 9579, Note_on_c, 4, 69, 100
6, 9582, Note_off_c, 4, 69, 0
6, 9582, Note_on_c, 4, 69, 100
6, 9585, Note_off_c, 4, 69, 0
6, 9585, Note_on_c, 4, 69, 100
6, 9591, Note_off_c, 4, 69, 0
6, 9591, Note_on_c, 4, 69, 100
6, 9594, Note_off_c, 4, 69, 0
6, 9594, Note_on_c, 4, 69, 100
6, 9600, Note_off_c, 4, 69, 0
6, 9600, Note_on_c, 4, 69, 100
6, 9603, Note_off_c, 4, 69, 0
6, 9603, Note_on_c, 4, 69, 100
6, 9609, Note_off_c, 4, 69, 0
6, 9609, Note_on_c, 4, 69, 100
6, 9612, Note_off_c, 4, 69, 0
6, 9612, Note_on_c, 4, 69, 100
6, 9618, Note_off_c, 4, 69, 0
6, 9618, Note_on_c, 4, 69, 100
6, 9621, Note_off_c, 4, 69, 0
6, 9621, Note_on_c, 4, 69, 100
6, 9624, Note_off_c, 4, 69, 0
6, 9624, Note_on_c, 4, 69, 100
6, 9630, Note_off_c, 4, 69, 0
6, 9630, Note_on_c, 4, 69, 100
6, 9633, Note_off_c, 4, 69, 0
6, 9633, Note_on_c, 4, 69, 100
6, 9639, Note_off_c, 4, 69, 0
6, 9639, Note_on_c, 4, 69, 100
6, 9642, Note_off_c, 4, 69, 0
6, 9642, Note_on_c, 4, 69, 100
6, 9645, Note_off_c, 4, 69, 0
6, 9645, Note_on_c, 4, 69, 100
6, 9651, Note_off_c, 4, 69, 0
6, 9651, Note_on_c, 4, 69, 100
6, 9654, Note_off_c, 4, 69, 0
6, 9654, Note_on_c, 4, 69, 100
6, 9657, Note_off_c, 4, 69, 0
6, 9657, Note_on_c, 4, 69, 100
6, 9660, Note_off_c, 4, 69, 0
6, 9660, Note_on_c, 4, 69, 100
6, 9669, Note_off_c, 4, 69, 0
6, 9669, Note_on_c, 4, 69, 100
6, 9672, Note_off_c, 4, 69, 0
6, 9672, Note_on_c, 4, 69, 100
6, 9675, Note_off_c, 4, 69, 0
6, 9675, Note_on_c, 4, 69, 100
6, 9681, Note_off_c, 4, 69, 0
6, 9681, Note_on_c, 4, 69, 100
6, 9684, Note_off_c, 4, 69, 0
6, 9684, Note_on_c, 4, 69, 100
6, 9693, Note_off_c, 4, 69, 0
6, 9693, Note_on_c, 4, 69, 100
6, 9696, Note_off_c, 4, 69, 0
6, 9696, Note_on_c, 4, 69, 100
6, 9699, Note_off_c, 4, 69, 0
6, 9699, Note_on_c, 4, 69, 100
6, 9702, Note_off_c, 4, 69, 0
6, 9702, Note_on_c, 4, 69, 100
6, 9705, Note_off_c, 4, 69, 0
6, 9705, Note_on_c, 4, 69, 100
6, 9711, Note_off_c, 4, 69, 0
6, 9711, Note_on_c, 4, 69, 100
6, 9717, Note_off_c, 4, 69, 0
6, 9717, Note_on_c, 4, 69, 100
6, 9720, Note_off_c, 4, 69, 0
6, 9720, Note_on_c, 4, 69, 100
6, 9723, Note_off_c, 4, 69, 0
6, 9723, Note_on_c, 4, 69, 100
6, 9732, Note_off_c, 4, 69, 0
6, 9732, Note_on_c, 4, 69, 100
6, 9738, Note_off_c, 4, 69, 0
6, 9738, Note_on_c, 4, 69, 100
6, 9741, Note_off_c, 4, 69, 0
6, 9741, Note_on_c, 4, 69, 100
6, 9747, Note_off_c, 4, 69, 0
6, 9747, Note_on_c, 4, 69, 100
6, 9753, Note_off_c, 4, 69, 0
6, 9753, Note_on_c, 4, 69, 100
6, 9762, Note_off_c, 4, 69, 0
6, 9762, Note_on_c, 4, 69, 100
6, 9765, Note_off_c, 4, 69, 0
6, 9765, Note_on_c, 4, 69, 100
6, 9771, Note_off_c, 4, 69, 0
6, 9771, Note_on_c, 4, 69, 100
6, 9774, Note_off_c, 4, 69, 0
6, 9774, Note_on_c, 4, 69, 100
6, 9777, Note_off_c, 4, 69, 0
6, 9777, Note_on_c, 4, 69, 100
6, 9783, Note_off_c, 4, 69, 0
6, 9783, Note_on_c, 4, 69, 100
6, 9786, Note_off_c, 4, 69, 0
6, 9786, Note_on_c, 4, 69, 100
6, 9792, Note_off_c, 4, 69, 0
6, 12096, Note_on_c, 4, 69, 100
6, 12099, Note_off_c, 4, 69, 0
6, 12099, Note_on_c, 4, 69, 100
6, 12105, Note_off_c, 4, 69, 0
6, 12105, Note_on_c, 4, 69, 100
6, 12108, Note_off_c, 4, 69, 0
6, 12108, Note_on_c, 4, 69, 100
6, 12117, Note_off_c, 4, 69, 0
6, 12117, Note_on_c, 4, 69, 100
6, 12120, Note_off_c, 4, 69, 0
6, 12120, Note_on_c, 4, 69, 100
6, 12126, Note_off_c, 4, 69, 0
6, 12126, Note_on_c, 4, 69, 100
6, 12135, Note_off_c, 4, 69, 0
6, 12135, Note_on_c, 4, 69, 100
6, 12138, Note_off_c, 4, 69, 0
6, 12138, Note_on_c, 4, 69, 100
6, 12141, Note_off_c, 4, 69, 0
6, 12141, Note_on_c, 4, 69, 100
6, 12147, Note_off_c, 4, 69, 0
6, 12147, Note_on_c, 4, 69, 100
6, 12150, Note_off_c, 4, 69, 0
6, 12150, Note_on_c, 4, 69, 100
6, 12156, Note_off_c, 4, 69, 0
6, 12156, Note_on_c, 4, 69, 100
6, 12165, Note_off_c, 4, 69, 0
6, 12165, Note_on_c, 4, 69, 100
6, 12168, Note_off_c, 4, 69, 0
6, 12168, Note_on_c, 4, 69, 100
6, 12171, Note_off_c, 4, 69, 0
6, 12171, Note_on_c, 4, 69, 100
6, 12177, Note_off_c, 4, 69, 0
6, 12177, Note_on_c, 4, 69, 100
6, 12189, Note_off_c, 4, 69, 0
6, 12189, Note_on_c, 4, 69, 100
6, 12192, Note_off_c, 4, 69, 0
6, 12192, Note_on_c, 4, 69, 100
6, 12195, Note_off_c, 4, 69, 0
6, 12195, Note_on_c, 4, 69, 100
6, 12207, Note_off_c, 4, 69, 0
6, 12207, Note_on_c, 4, 69, 100
6, 12216, Note_off_c, 4, 69, 0
6, 12216, Note_on_c, 4, 69, 100
6, 12219, Note_off_c, 4, 69, 0
6, 12219, Note_on_c, 4, 69, 100
6, 12228, Note_off_c, 4, 69, 0
6, 12228, Note_on_c, 4, 69, 100
6, 12234, Note_off_c, 4, 69, 0
6, 12234, Note_on_c, 4, 69, 100
6, 12237, Note_off_c, 4, 69, 0
6, 12237, Note_on_c, 4, 69, 100
6, 12243, Note_off_c, 4, 69, 0
6, 12243, Note_on_c, 4, 69, 100
6, 12249, Note_off_c, 4, 69, 0
6, 12249, Note_on_c, 4, 69, 100
6, 12258, Note_off_c, 4, 69, 0
6, 12258, Note_on_c, 4, 69, 100
6, 12270, Note_off_c, 4, 69, 0
6, 12270, Note_on_c, 4, 69, 100
6, 12273, Note_off_c, 4, 69, 0
6, 12273, Note_on_c, 4, 69, 100
6, 12279, Note_off_c, 4, 69, 0
6, 12279, Note_on_c, 4, 69, 100
6, 12282, Note_off_c, 4, 69, 0
6, 12282, Note_on_c, 4, 69, 100
6, 12288, Note_off_c, 4, 69, 0
6, 12288, Note_on_c, 4, 69, 100
6, 12291, Note_off_c, 4, 69, 0
6, 12291, Note_on_c, 4, 69, 100
6, 12297, Note_off_c, 4, 69, 0
6, 12297, Note_on_c, 4, 69, 100
6, 12300, Note_off_c, 4, 69, 0
6, 12300, Note_on_c, 4, 69, 100
6, 12309, Note_off_c, 4, 69, 0
6, 12309, Note_on_c, 4, 69, 100
6, 12312, Note_off_c, 4, 69, 0
6, 12312, Note_on_c, 4, 69, 100
6, 12318, Note_off_c, 4, 69, 0
6, 12318, Note_on_c, 4, 69, 100
6, 12327, Note_off_c, 4, 69, 0
6, 12327, Note_on_c, 4, 69, 100
6, 12330, Note_off_c, 4, 69, 0
6, 12330, Note_on_c, 4, 69, 100
6, 12333, Note_off_c, 4, 69, 0
6, 12333, Note_on_c, 4, 69, 100
6, 12339, Note_off_c, 4, 69, 0
6, 12339, Note_on_c, 4, 69, 100
6, 12342, Note_off_c, 4, 69, 0
6, 12342, Note_on_c, 4, 69, 100
6, 12348, Note_off_c, 4, 69, 0
6, 12348, Note_on_c, 4, 69, 100
6, 12357, Note_off_c, 4, 69, 0
6, 12357, Note_on_c, 4, 69, 100
6, 12360, Note_off_c, 4, 69, 0
6, 12360, Note_on_c, 4, 69, 100
6, 12363, Note_off_c, 4, 69, 0
6, 12363, Note_on_c, 4, 69, 100
6, 12369, Note_off_c, 4, 69, 0
6, 12369, Note_on_c, 4, 69, 100
6, 12381, Note_off_c, 4, 69, 0
6, 12381, Note_on_c, 4, 69, 100
6, 12384, Note_off_c, 4, 69, 0
6, 12384, Note_on_c, 4, 69, 100
6, 12387, Note_off_c, 4, 69, 0
6, 12387, Note_on_c, 4, 69, 100
6, 12399, Note_off_c, 4, 69, 0
6, 12399, Note_on_c, 4, 69, 100
6, 12408, Note_off_c, 4, 69, 0
6, 12408, Note_on_c, 4, 69, 100
6, 12411, Note_off_c, 4, 69, 0
6, 12411, Note_on_c, 4, 69, 100
6, 12420, Note_off_c, 4, 69, 0
6, 12420, Note_on_c, 4, 69, 100
6, 12426, Note_off_c, 4, 69, 0
6, 12426, Note_on_c, 4, 69, 100
6, 12429, Note_off_c, 4, 69, 0
6, 12429, Note_on_c, 4, 69, 100
6, 12435, Note_off_c, 4, 69, 0
6, 12435, Note_on_c, 4, 69, 100
6, 12441, Note_off_c, 4, 69, 0
6, 12441, Note_on_c, 4, 69, 100
6, 12450, Note_off_c, 4, 69, 0
6, 12450, Note_on_c, 4, 69, 100
6, 12462, Note_off_c, 4, 69, 0
6, 12462, Note_on_c, 4, 69, 100
6, 12465, Note_off_c, 4, 69, 0
6, 12465, Note_on_c, 4, 69, 100
6, 12471, Note_off_c, 4, 69, 0
6, 12471, Note_on_c, 4, 69, 100
6, 12474, Note_off_c, 4, 69, 0
6, 12474, Note_on_c, 4, 69, 100
6, 12480, Note_off_c, 4, 69, 0
6, 12480, Note_on_c, 4, 69, 100
6, 12483, Note_off_c, 4, 69, 0
6, 12483, Note_on_c, 4, 69, 100
6, 12489, Note_off_c, 4, 69, 0
6, 12489, Note_on_c, 4, 69, 100
6, 12492, Note_off_c, 4, 69, 0
6, 12492, Note_on_c, 4, 69, 100
6, 12501, Note_off_c, 4, 69, 0
6, 12501, Note_on_c, 4, 69, 100
6, 12504, Note_off_c, 4, 69, 0
6, 12504, Note_on_c, 4, 69, 100
6, 12510, Note_off_c, 4, 69, 0
6, 12510, Note_on_c, 4, 69, 100
6, 12519, Note_off_c, 4, 69, 0
6, 12519, Note_on_c, 4, 69, 100
6, 12522, Note_off_c, 4, 69, 0
6, 12522, Note_on_c, 4, 69, 100
6, 12525, Note_off_c, 4, 69, 0
6, 12525, Note_on_c, 4, 69, 100
6, 12531, Note_off_c, 4, 69, 0
6, 12531, Note_on_c, 4, 69, 100
6, 12534, Note_off_c, 4, 69, 0
6, 12534, Note_on_c, 4, 69, 100
6, 12540, Note_off_c, 4, 69, 0
6, 12540, Note_on_c, 4, 69, 100
6, 12549, Note_off_c, 4, 69, 0
6, 12549, Note_on_c, 4, 69, 100
6, 12552, Note_off_c, 4, 69, 0
6, 12552, Note_on_c, 4, 69, 100
6, 12555, Note_off_c, 4, 69, 0
6, 12555, Note_on_c, 4, 69, 100
6, 12561, Note_off_c, 4, 69, 0
6, 12561, Note_on_c, 4, 69, 100
6, 12573, Note_off_c, 4, 69, 0
6, 12573, Note_on_c, 4, 69, 100
6, 12576, Note_off_c, 4, 69, 0
6, 12576, Note_on_c, 4, 69, 100
6, 12579, Note_off_c, 4, 69, 0
6, 12579, Note_on_c, 4, 69, 100
6, 12591, Note_off_c, 4, 69, 0
6, 12591, Note_on_c, 4, 69, 100
6, 12600, Note_off_c, 4, 69, 0
6, 12600, Note_on_c, 4, 69, 100
6, 12603, Note_off_c, 4, 69, 0
6, 12603, Note_on_c, 4, 69, 100
6, 12612, Note_off_c, 4, 69, 0
6, 12612, Note_on_c, 4, 69, 100
6, 12618, Note_off_c, 4, 69, 0
6, 12618, Note_on_c, 4, 69, 100
6, 12621, Note_off_c, 4, 69, 0
6, 12621, Note_on_c, 4, 69, 100
6, 12627, Note_off_c, 4, 69, 0
6, 12627, Note_on_c, 4, 69, 100
6, 12633, Note_off_c, 4, 69, 0
6, 12633, Note_on_c, 4, 69, 100
6, 12642, Note_off_c, 4, 69, 0
6, 12642, Note_on_c, 4, 69, 100
6, 12654, Note_off_c, 4, 69, 0
6, 12654, Note_on_c, 4, 69, 100
6, 12657, Note_off_c, 4, 69, 0
6, 12657, Note_on_c, 4, 69, 100
6, 12663, Note_off_c, 4, 69, 0
6, 12663, Note_on_c, 4, 69, 100
6, 12666, Note_off_c, 4, 69, 0
6, 12666, Note_on_c, 4, 69, 100
6, 12672, Note_off_c, 4, 69, 0
6, 12672, Note_on_c, 4, 69, 100
6, 12675, Note_off_c, 4, 69, 0
6, 12675, Note_on_c, 4, 69, 100
6, 12681, Note_off_c, 4, 69, 0
6, 12681, Note_on_c, 4, 69, 100
6, 12684, Note_off_c, 4, 69, 0
6, 12684, Note_on_c, 4, 69, 100
6, 12693, Note_off_c, 4, 69, 0
6, 12693, Note_on_c, 4, 69, 100
6, 12696, Note_off_c, 4, 69, 0
6, 12696, Note_on_c, 4, 69, 100
6, 12702, Note_off_c, 4, 69, 0
6, 12702, Note_on_c, 4, 69, 100
6, 12711, Note_off_c, 4, 69, 0
6, 12711, Note_on_c, 4, 69, 100
6, 12714, Note_off_c, 4, 69, 0
6, 12714, Note_on_c, 4, 69, 100
6, 12717, Note_off_c, 4, 69, 0
6, 12717, Note_on_c, 4, 69, 100
6, 12723, Note_off_c, 4, 69, 0
6, 12723, Note_on_c, 4, 69, 100
6, 12726, Note_off_c, 4, 69, 0
6, 12726, Note_on_c, 4, 69, 100
6, 12732, Note_off_c, 4, 69, 0
6, 12732, Note_on_c, 4, 69, 100
6, 12741, Note_off_c, 4, 69, 0
6, 12741, Note_on_c, 4, 69, 100
6, 12744, Note_off_c, 4, 69, 0
6, 12744, Note_on_c, 4, 69, 100
6, 12747, Note_off_c, 4, 69, 0
6, 12747, Note_on_c, 4, 69, 100
6, 12753, Note_off_c, 4, 69, 0
6, 12753, Note_on_c, 4, 69, 100
6, 12759, Note_off_c, 4, 69, 0
6, 12759, Note_on_c, 4, 69, 100
6, 12765, Note_off_c, 4, 69, 0
6, 12765, Note_on_c, 4, 69, 100
6, 12768, Note_off_c, 4, 69, 0
6, 12768, Note_on_c, 4, 69, 100
6, 12771, Note_off_c, 4, 69, 0
6, 12771, Note_on_c, 4, 69, 100
6, 12777, Note_off_c, 4, 69, 0
6, 12777, Note_on_c, 4, 69, 100
6, 12783, Note_off_c, 4, 69, 0
6, 12783, Note_on_c, 4, 69, 100
6, 12789, Note_off_c, 4, 69, 0
6, 12789, Note_on_c, 4, 69, 100
6, 12792, Note_off_c, 4, 69, 0
6, 12792, Note_on_c, 4, 69, 100
6, 12795, Note_off_c, 4, 69, 0
6, 12795, Note_on_c, 4, 69, 100
6, 12804, Note_off_c, 4, 69, 0
6, 12804, Note_on_c, 4, 69, 100
6, 12807, Note_off_c, 4, 69, 0
6, 12807, Note_on_c, 4, 69, 100
6, 12810, Note_off_c, 4, 69, 0
6, 12810, Note_on_c, 4, 69, 100
6, 12813, Note_off_c, 4, 69, 0
6, 12813, Note_on_c, 4, 69, 100
6, 12819, Note_off_c, 4, 69, 0
6, 12819, Note_on_c, 4, 69, 100
6, 12825, Note_off_c, 4, 69, 0
6, 12825, Note_on_c, 4, 69, 100
6, 12834, Note_off_c, 4, 69, 0
6, 12834, Note_on_c, 4, 69, 100
6, 12837, Note_off_c, 4, 69, 0
6, 12837, Note_on_c, 4, 69, 100
6, 12846, Note_off_c, 4, 69, 0
6, 12846, Note_on_c, 4, 69, 100
6, 12849, Note_off_c, 4, 69, 0
6, 12849, Note_on_c, 4, 69, 100
6, 12855, Note_off_c, 4, 69, 0
6, 12855, Note_on_c, 4, 69, 100
6, 12858, Note_off_c, 4, 69, 0
6, 12858, Note_on_c, 4, 69, 100
6, 12864, Note_off_c, 4, 69, 0
6, 12864, Note_on_c, 4, 69, 100
6, 12867, Note_off_c, 4, 69, 0
6, 12867, Note_on_c, 4, 69, 100
6, 12870, Note_off_c, 4, 69, 0
6, 12870, Note_on_c, 4, 69, 100
6, 12873, Note_off_c, 4, 69, 0
6, 12873, Note_on_c, 4, 69, 100
6, 12876, Note_off_c, 4, 69, 0
6, 12876, Note_on_c, 4, 69, 100
6, 12885, Note_off_c, 4, 69, 0
6, 12885, Note_on_c, 4, 69, 100
6, 12888, Note_off_c, 4, 69, 0
6, 12888, Note_on_c, 4, 69, 100
6, 12894, Note_off_c, 4, 69, 0
6, 12894, Note_on_c, 4, 69, 100
6, 12897, Note_off_c, 4, 69, 0
6, 12897, Note_on_c, 4, 69, 100
6, 12900, Note_off_c, 4, 69, 0
6, 12900, Note_on_c, 4, 69, 100
6, 12903, Note_off_c, 4, 69, 0
6, 12903, Note_on_c, 4, 69, 100
6, 12906, Note_off_c, 4, 69, 0
6, 12906, Note_on_c, 4, 69, 100
6, 12909, Note_off_c, 4, 69, 0
6, 12909, Note_on_c, 4, 69, 100
6, 12912, Note_off_c, 4, 69, 0
6, 12912, Note_on_c, 4, 69, 100
6, 12915, Note_off_c, 4, 69, 0
6, 12915, Note_on_c, 4, 69, 100
6, 12918, Note_off_c, 4, 69, 0
6, 12918, Note_on_c, 4, 69, 100
6, 12924, Note_off_c, 4, 69, 0
6, 12924, Note_on_c, 4, 69, 100
6, 12930, Note_off_c, 4, 69, 0
6, 12930, Note_on_c, 4, 69, 100
6, 12933, Note_off_c, 4, 69, 0
6, 12933, Note_on_c, 4, 69, 100
6, 12936, Note_off_c, 4, 69, 0
6, 12936, Note_on_c, 4, 69, 100
6, 12939, Note_off_c, 4, 69, 0
6, 12939, Note_on_c, 4, 69, 100
6, 12942, Note_off_c, 4, 69, 0
6, 12942, Note_on_c, 4, 69, 100
6, 12945, Note_off_c, 4, 69, 0
6, 12945, Note_on_c, 4, 69, 100
6, 12948, Note_off_c, 4, 69, 0
6, 12948, Note_on_c, 4, 69, 100
6, 12951, Note_off_c, 4, 69, 0
6, 12951, Note_on_c, 4, 69, 100
6, 12957, Note_off_c, 4, 69, 0
6, 12957, Note_on_c, 4, 69, 100
6, 12960, Note_off_c, 4, 69, 0
6, 12960, Note_on_c, 4, 69, 100
6, 12963, Note_off_c, 4, 69, 0
6, 12963, Note_on_c, 4, 69, 100
6, 12966, Note_off_c, 4, 69, 0
6, 12966, Note_on_c, 4, 69, 100
6, 12972, Note_off_c, 4, 69, 0
6, 12972, Note_on_c, 4, 69, 100
6, 12975, Note_off_c, 4, 69, 0
6, 12975, Note_on_c, 4, 69, 100
6, 12984, Note_off_c, 4, 69, 0
6, 12984, Note_on_c, 4, 69, 100
6, 12987, Note_off_c, 4, 69, 0
6, 12987, Note_on_c, 4, 69, 100
6, 12996, Note_off_c, 4, 69, 0
6, 12996, Note_on_c, 4, 69, 100
6, 13002, Note_off_c, 4, 69, 0
6, 13002, Note_on_c, 4, 69, 100
6, 13005, Note_off_c, 4, 69, 0
6, 13005, Note_on_c, 4, 69, 100
6, 13008, Note_off_c, 4, 69, 0
6, 13008, Note_on_c, 4, 69, 100
6, 13011, Note_off_c, 4, 69, 0
6, 13011, Note_on_c, 4, 69, 100
6, 13017, Note_off_c, 4, 69, 0
6, 13017, Note_on_c, 4, 69, 100
6, 13026, Note_off_c, 4, 69, 0
6, 13026, Note_on_c, 4, 69, 100
6, 13029, Note_off_c, 4, 69, 0
6, 13029, Note_on_c, 4, 69, 100
6, 13035, Note_off_c, 4, 69, 0
6, 13035, Note_on_c, 4, 69, 100
6, 13038, Note_off_c, 4, 69, 0
6, 13038, Note_on_c, 4, 69, 100
6, 13041, Note_off_c, 4, 69, 0
6, 13041, Note_on_c, 4, 69, 100
6, 13047, Note_off_c, 4, 69, 0
6, 13047, Note_on_c, 4, 69, 100
6, 13050, Note_off_c, 4, 69, 0
6, 13050, Note_on_c, 4, 69, 100
6, 13056, Note_off_c, 4, 69, 0
6, 13056, Note_on_c, 4, 69, 100
6, 13059, Note_off_c, 4, 69, 0
6, 13059, Note_on_c, 4, 69, 100
6, 13065, Note_off_c, 4, 69, 0
6, 13065, Note_on_c, 4, 69, 100
6, 13068, Note_off_c, 4, 69, 0
6, 13068, Note_on_c, 4, 69, 100
6, 13074, Note_off_c, 4, 69, 0
6, 13074, Note_on_c, 4, 69, 100
6, 13077, Note_off_c, 4, 69, 0
6, 13077, Note_on_c, 4, 69, 100
6, 13080, Note_off_c, 4, 69, 0
6, 13080, Note_on_c, 4, 69, 100
6, 13086, Note_off_c, 4, 69, 0
6, 13086, Note_on_c, 4, 69, 100
6, 13089, Note_off_c, 4, 69, 0
6, 13089, Note_on_c, 4, 69, 100
6, 13095, Note_off_c, 4, 69, 0
6, 13095, Note_on_c, 4, 69, 100
6, 13098, Note_off_c, 4, 69, 0
6, 13098, Note_on_c, 4, 69, 100
6, 13101, Note_off_c, 4, 69, 0
6, 13101, Note_on_c, 4, 69, 100
6, 13107, Note_off_c, 4, 69, 0
6, 13107, Note_on_c, 4, 69, 100
6, 13110, Note_off_c, 4, 69, 0
6, 13110, Note_on_c, 4, 69, 100
6, 13113, Note_off_c, 4, 69, 0
6, 13113, Note_on_c, 4, 69, 100
6, 13116, Note_off_c, 4, 69, 0
6, 13116, Note_on_c, 4, 69, 100
6, 13125, Note_off_c, 4, 69, 0
6, 13125, Note_on_c, 4, 69, 100
6, 13128, Note_off_c, 4, 69, 0
6, 13128, Note_on_c, 4, 69, 100
6, 13131, Note_off_c, 4, 69, 0
6, 13131, Note_on_c, 4, 69, 100
6, 13137, Note_off_c, 4, 69, 0
6, 13137, Note_on_c, 4, 69, 100
6, 13140, Note_off_c, 4, 69, 0
6, 13140, Note_on_c, 4, 69, 100
6, 13149, Note_off_c, 4, 69, 0
6, 13149, Note_on_c, 4, 69, 100
6, 13152, Note_off_c, 4, 69, 0
6, 13152, Note_on_c, 4, 69, 100
6, 13155, Note_off_c, 4, 69, 0
6, 13155, Note_on_c, 4, 69, 100
6, 13158, Note_off_c, 4, 69, 0
6, 13158, Note_on_c, 4, 69, 100
6, 13161, Note_off_c, 4, 69, 0
6, 13161, Note_on_c, 4, 69, 100
6, 13167, Note_off_c, 4, 69, 0
6, 13167, Note_on_c, 4, 69, 100
6, 13173, Note_off_c, 4, 69, 0
6, 13173, Note_on_c, 4, 69, 100
6, 13176, Note_off_c, 4, 69, 0
6, 13176, Note_on_c, 4, 69, 100
6, 13179, Note_off_c, 4, 69, 0
6, 13179, Note_on_c, 4, 69, 100
6, 13188, Note_off_c, 4, 69, 0
6, 13188, Note_on_c, 4, 69, 100
6, 13194, Note_off_c, 4, 69, 0
6, 13194, Note_on_c, 4, 69, 100
6, 13197, Note_off_c, 4, 69, 0
6, 13197, Note_on_c, 4, 69, 100
6, 13203, Note_off_c, 4, 69, 0
6, 13203, Note_on_c, 4, 69, 100
6, 13209, Note_off_c, 4, 69, 0
6, 13209, Note_on_c, 4, 69, 100
6, 13218, Note_off_c, 4, 69, 0
6, 13218, Note_on_c, 4, 69, 100
6, 13221, Note_off_c, 4, 69, 0
6, 13221, Note_on_c, 4, 69, 100
6, 13227, Note_off_c, 4, 69, 0
6, 13227, Note_on_c, 4, 69, 100
6, 13230, Note_off_c, 4, 69, 0
6, 13230, Note_on_c, 4, 69, 100
6, 13233, Note_off_c, 4, 69, 0
6, 13233, Note_on_c, 4, 69, 100
6, 13239, Note_off_c, 4, 69, 0
6, 13239, Note_on_c, 4, 69, 100
6, 13242, Note_off_c, 4, 69, 0
6, 13242, Note_on_c, 4, 69, 100
6, 13248, Note_off_c, 4, 69, 0
6, 13248, End_track
7, 0, Start_track
7, 0, Title_t, "Track 6\000"
7, 0, Program_c, 5, 79
7, 0, Control_c, 5, 7, 65
7, 0, Control_c, 5, 91, 80
7, 0, Control_c, 5, 93, 95
7, 3072, Note_on_c, 5, 76, 100
7, 3116, Control_c, 5, 1, 42
7, 3264, Note_off_c, 5, 76, 0
7, 3264, Control_c, 5, 1, 23
7, 3264, Note_on_c, 5, 75, 100
7, 3331, Control_c, 5, 1, 76
7, 3456, Note_off_c, 5, 75, 0
7, 3456, Note_on_c, 5, 78, 100
7, 3457, Control_c, 5, 1, 13
7, 3545, Control_c, 5, 1, 68
7, 3669, Control_c, 5, 1, 13
7, 3840, Note_off_c, 5, 78, 0
7, 3840, Note_on_c, 5, 76, 100
7, 4224, Note_off_c, 5, 76, 0
7, 4272, Note_on_c, 5, 81, 100
7, 4992, Note_off_c, 5, 81, 0
7, 5376, Note_on_c, 5, 76, 100
7, 6912, Note_off_c, 5, 76, 0
7, 8688, Note_on_c, 5, 81, 100
7, 9408, Note_off_c, 5, 81, 0
7, 12144, Note_on_c, 5, 81, 100
7, 12864, Note_off_c, 5, 81, 0
7, 13296, Note_on_c, 5, 81, 100
7, 14016, Note_off_c, 5, 81, 0
7, 14016, End_track
8, 0, Start_track
8, 0, Title_t, "Track 7\000"
8, 0, Program_c, 6, 40
8, 0, Control_c, 6, 91, 127
8, 0, Control_c, 6, 93, 127
8, 5376, Control_c, 6, 7, 127
8, 5376, Note_on_c, 6, 69, 100
8, 5377, Control_c, 6, 7, 127
8, 5379, Control_c, 6, 7, 119
8, 5437, Control_c, 6, 7, 87
8, 5500, Control_c, 6, 7, 74
8, 5568, Control_c, 6, 7, 79
8, 5727, Control_c, 6, 7, 71
8, 5844, Control_c, 6, 7, 74
8, 5907, Control_c, 6, 7, 89
8, 5988, Control_c, 6, 7, 103
8, 6019, Control_c, 6, 7, 111
8, 6021, Control_c, 6, 7, 111
8, 6049, Control_c, 6, 7, 124
8, 6336, Note_off_c, 6, 69, 0
8, 6336, Control_c, 6, 7, 74
8, 6336, Note_on_c, 6, 69, 100
8, 6337, Control_c, 6, 7, 74
8, 6338, Control_c, 6, 7, 74
8, 6339, Control_c, 6, 7, 74
8, 6432, Note_off_c, 6, 69, 0
8, 6432, Note_on_c, 6, 68, 100
8, 6528, Note_off_c, 6, 68, 0
8, 6528, Note_on_c, 6, 66, 100
8, 6624, Note_off_c, 6, 66, 0
8, 6624, Note_on_c, 6, 68, 100
8, 6720, Note_off_c, 6, 68, 0
8, 6720, Note_on_c, 6, 65, 100
8, 6912, Note_off_c, 6, 65, 0
8, 6912, Note_on_c, 6, 62, 100
8, 7104, Note_off_c, 6, 62, 0
8, 7104, Note_on_c, 6, 65, 100
8, 7128, Note_off_c, 6, 65, 0
8, 7128, Note_on_c, 6, 64, 100
8, 7152, Note_off_c, 6, 64, 0
8, 7152, Note_on_c, 6, 62, 100
8, 7176, Note_off_c, 6, 62, 0
8, 7176, Note_on_c, 6, 61, 100
8, 7296, Note_off_c, 6, 61, 0
8, 7296, Note_on_c, 6, 65, 100
8, 7320, Note_off_c, 6, 65, 0
8, 7320, Note_on_c, 6, 64, 100
8, 7344, Note_off_c, 6, 64, 0
8, 7344, Note_on_c, 6, 62, 100
8, 7368, Note_off_c, 6, 62, 0
8, 7368, Note_on_c, 6, 61, 100
8, 7488, Note_off_c, 6, 61, 0
8, 7488, Control_c, 6, 7, 74
8, 7488, Note_on_c, 6, 69, 100
8, 7489, Control_c, 6, 7, 74
8, 7490, Control_c, 6, 7, 74
8, 7491, Control_c, 6, 7, 74
8, 7584, Note_off_c, 6, 69, 0
8, 7584, Note_on_c, 6, 68, 100
8, 7680, Note_off_c, 6, 68, 0
8, 7680, Note_on_c, 6, 66, 100
8, 7776, Note_off_c, 6, 66, 0
8, 7776, Note_on_c, 6, 68, 100
8, 7872, Note_off_c, 6, 68, 0
8, 7872, Note_on_c, 6, 65, 100
8, 8064, Note_off_c, 6, 65, 0
8, 8064, Note_on_c, 6, 62, 100
8, 8256, Note_off_c, 6, 62, 0
8, 8256, Note_on_c, 6, 65, 100
8, 8280, Note_off_c, 6, 65, 0
8, 8280, Note_on_c, 6, 64, 100
8, 8304, Note_off_c, 6, 64, 0
8, 8304, Note_on_c, 6, 62, 100
8, 8328, Note_off_c, 6, 62, 0
8, 8328, Note_on_c, 6, 61, 100
8, 8448, Note_off_c, 6, 61, 0
8, 8448, Note_on_c, 6, 65, 100
8, 8472, Note_off_c, 6, 65, 0
8, 8472, Note_on_c, 6, 64, 100
8, 8496, Note_off_c, 6, 64, 0
8, 8496, Note_on_c, 6, 62, 100
8, 8520, Note_off_c, 6, 62, 0
8, 8520, Note_on_c, 6, 61, 100
8, 8640, Note_off_c, 6, 61, 0
8, 8640, Note_on_c, 6, 69, 100
8, 8643, Control_c, 6, 7, 55
8, 8829, Control_c, 6, 7, 92
8, 9220, Control_c, 6, 7, 74
8, 9792, Note_off_c, 6, 69, 0
8, 9792, Control_c, 6, 7, 74
8, 9792, Note_on_c, 6, 69, 100
8, 9793, Control_c, 6, 7, 74
8, 9794, Control_c, 6, 7, 74
8, 9795, Control_c, 6, 7, 74
8, 9888, Note_off_c, 6, 69, 0
8, 9888, Note_on_c, 6, 68, 100
8, 9984, Note_off_c, 6, 68, 0
8, 9984, Note_on_c, 6, 66, 100
8, 10080, Note_off_c, 6, 66, 0
8, 10080, Note_on_c, 6, 68, 100
8, 10176, Note_off_c, 6, 68, 0
8, 10176, Note_on_c, 6, 65, 100
8, 10368, Note_off_c, 6, 65, 0
8, 10368, Note_on_c, 6, 62, 100
8, 10560, Note_off_c, 6, 62, 0
8, 10560, Note_on_c, 6, 65, 100
8, 10584, Note_off_c, 6, 65, 0
8, 10584, Note_on_c, 6, 64, 100
8, 10608, Note_off_c, 6, 64, 0
8, 10608, Note_on_c, 6, 62, 100
8, 10632, Note_off_c, 6, 62, 0
8, 10632, Note_on_c, 6, 61, 100
8, 10752, Note_off_c, 6, 61, 0
8, 10752, Note_on_c, 6, 65, 100
8, 10776, Note_off_c, 6, 65, 0
8, 10776, Note_on_c, 6, 64, 100
8, 10800, Note_off_c, 6, 64, 0
8, 10800, Note_on_c, 6, 62, 100
8, 10824, Note_off_c, 6, 62, 0
8, 10824, Note_on_c, 6, 61, 100
8, 10944, Note_off_c, 6, 61, 0
8, 10944, Control_c, 6, 7, 74
8, 10944, Note_on_c, 6, 69, 100
8, 10945, Control_c, 6, 7, 74
8, 10946, Control_c, 6, 7, 74
8, 10947, Control_c, 6, 7, 74
8, 11040, Note_off_c, 6, 69, 0
8, 11040, Note_on_c, 6, 68, 100
8, 11136, Note_off_c, 6, 68, 0
8, 11136, Note_on_c, 6, 66, 100
8, 11232, Note_off_c, 6, 66, 0
8, 11232, Note_on_c, 6, 68, 100
8, 11328, Note_off_c, 6, 68, 0
8, 11328, Note_on_c, 6, 65, 100
8, 11520, Note_off_c, 6, 65, 0
8, 11520, Note_on_c, 6, 62, 100
8, 11712, Note_off_c, 6, 62, 0
8, 11712, Note_on_c, 6, 65, 100
8, 11736, Note_off_c, 6, 65, 0
8, 11736, Note_on_c, 6, 64, 100
8, 11760, Note_off_c, 6, 64, 0
8, 11760, Note_on_c, 6, 62, 100
8, 11784, Note_off_c, 6, 62, 0
8, 11784, Note_on_c, 6, 61, 100
8, 11904, Note_off_c, 6, 61, 0
8, 11904, Note_on_c, 6, 65, 100
8, 11928, Note_off_c, 6, 65, 0
8, 11928, Note_on_c, 6, 64, 100
8, 11952, Note_off_c, 6, 64, 0
8, 11952, Note_on_c, 6, 62, 100
8, 11976, Note_off_c, 6, 62, 0
8, 11976, Note_on_c, 6, 61, 100
8, 12096, Note_off_c, 6, 61, 0
8, 12096, Note_on_c, 6, 69, 100
8, 12099, Control_c, 6, 7, 55
8, 12285, Control_c, 6, 7, 92
8, 12676, Control_c, 6, 7, 74
8, 13248, Note_off_c, 6, 69, 0
8, 13248, Note_on_c, 6, 69, 100
8, 13251, Control_c, 6, 7, 55
8, 13437, Control_c, 6, 7, 92
8, 13828, Control_c, 6, 7, 74
8, 14400, Note_off_c, 6, 69, 0
8, 14400, End_track
9, 0, Start_track
9, 0, Title_t, "Track 8\000"
9, 0, Program_c, 7, 80
9, 14034, Note_on_c, 7, 102, 100
9, 14034, Note_on_c, 7, 116, 100
9, 14040, Note_off_c, 7, 102, 0
9, 14040, Note_off_c, 7, 116, 0
9, 14046, Note_on_c, 7, 107, 100
9, 14046, Note_on_c, 7, 109, 100
9, 14046, Note_on_c, 7, 116, 100
9, 14052, Note_off_c, 7, 107, 0
9, 14052, Note_off_c, 7, 109, 0
9, 14052, Note_off_c, 7, 116, 0
9, 14052, Note_on_c, 7, 119, 100
9, 14058, Note_off_c, 7, 119, 0
9, 14058, Note_on_c, 7, 125, 100
9, 14064, Note_off_c, 7, 125, 0
9, 14070, Note_on_c, 7, 124, 100
9, 14076, Note_off_c, 7, 124, 0
9, 14076, Note_on_c, 7, 120, 100
9, 14082, Note_off_c, 7, 120, 0
9, 14082, Note_on_c, 7, 121, 100
9, 14088, Note_off_c, 7, 121, 0
9, 14088, Note_on_c, 7, 124, 100
9, 14094, Note_off_c, 7, 124, 0
9, 14094, Note_on_c, 7, 121, 100
9, 14100, Note_off_c, 7, 121, 0
9, 14100, Note_on_c, 7, 120, 100
9, 14106, Note_off_c, 7, 120, 0
9, 14106, Note_on_c, 7, 122, 100
9, 14112, Note_off_c, 7, 122, 0
9, 14112, Note_on_c, 7, 124, 100
9, 14118, Note_off_c, 7, 124, 0
9, 14118, Note_on_c, 7, 120, 100
9, 14124, Note_off_c, 7, 120, 0
9, 14124, Note_on_c, 7, 121, 100
9, 14130, Note_off_c, 7, 121, 0
9, 14130, Note_on_c, 7, 124, 100
9, 14136, Note_off_c, 7, 124, 0
9, 14136, Note_on_c, 7, 121, 100
9, 14142, Note_off_c, 7, 121, 0
9, 14142, Note_on_c, 7, 120, 100
9, 14148, Note_off_c, 7, 120, 0
9, 14148, Note_on_c, 7, 123, 100
9, 14154, Note_off_c, 7, 123, 0
9, 14154, Note_on_c, 7, 125, 100
9, 14160, Note_off_c, 7, 125, 0
9, 14160, Note_on_c, 7, 121, 100
9, 14166, Note_off_c, 7, 121, 0
9, 14166, Note_on_c, 7, 124, 100
9, 14172, Note_off_c, 7, 124, 0
9, 14172, Note_on_c, 7, 120, 100
9, 14178, Note_off_c, 7, 120, 0
9, 14178, Note_on_c, 7, 121, 100
9, 14184, Note_off_c, 7, 121, 0
9, 14184, Note_on_c, 7, 124, 100
9, 14190, Note_off_c, 7, 124, 0
9, 14190, Note_on_c, 7, 121, 100
9, 14196, Note_off_c, 7, 121, 0
9, 14196, Note_on_c, 7, 120, 100
9, 14202, Note_off_c, 7, 120, 0
9, 14202, Note_on_c, 7, 122, 100
9, 14208, Note_off_c, 7, 122, 0
9, 14208, Note_on_c, 7, 124, 100
9, 14214, Note_off_c, 7, 124, 0
9, 14214, Note_on_c, 7, 120, 100
9, 14220, Note_off_c, 7, 120, 0
9, 14220, Note_on_c, 7, 121, 100
9, 14226, Note_off_c, 7, 121, 0
9, 14226, Note_on_c, 7, 124, 100
9, 14232, Note_off_c, 7, 124, 0
9, 14232, Note_on_c, 7, 121, 100
9, 14238, Note_off_c, 7, 121, 0
9, 14238, Note_on_c, 7, 120, 100
9, 14244, Note_off_c, 7, 120, 0
9, 14244, Note_on_c, 7, 123, 100
9, 14250, Note_off_c, 7, 123, 0
9, 14250, Note_on_c, 7, 125, 100
9, 14256, Note_off_c, 7, 125, 0
9, 14256, Note_on_c, 7, 121, 100
9, 14262, Note_off_c, 7, 121, 0
9, 14262, Note_on_c, 7, 124, 100
9, 14268, Note_off_c, 7, 124, 0
9, 14268, Note_on_c, 7, 120, 100
9, 14274, Note_off_c, 7, 120, 0
9, 14274, Note_on_c, 7, 121, 100
9, 14280, Note_off_c, 7, 121, 0
9, 14280, Note_on_c, 7, 124, 100
9, 14286, Note_off_c, 7, 124, 0
9, 14286, Note_on_c, 7, 121, 100
9, 14292, Note_off_c, 7, 121, 0
9, 14292, Note_on_c, 7, 120, 100
9, 14298, Note_off_c, 7, 120, 0
9, 14298, Note_on_c, 7, 122, 100
9, 14304, Note_off_c, 7, 122, 0
9, 14304, Note_on_c, 7, 124, 100
9, 14310, Note_off_c, 7, 124, 0
9, 14310, Note_on_c, 7, 120, 100
9, 14316, Note_off_c, 7, 120, 0
9, 14316, Note_on_c, 7, 121, 100
9, 14322, Note_off_c, 7, 121, 0
9, 14322, Note_on_c, 7, 124, 100
9, 14328, Note_off_c, 7, 124, 0
9, 14328, Note_on_c, 7, 121, 100
9, 14334, Note_off_c, 7, 121, 0
9, 14334, Note_on_c, 7, 120, 100
9, 14340, Note_off_c, 7, 120, 0
9, 14340, Note_on_c, 7, 123, 100
9, 14346, Note_off_c, 7, 123, 0
9, 14346, Note_on_c, 7, 125, 100
9, 14352, Note_off_c, 7, 125, 0
9, 14352, Note_on_c, 7, 121, 100
9, 14358, Note_off_c, 7, 121, 0
9, 14358, Note_on_c, 7, 124, 100
9, 14364, Note_off_c, 7, 124, 0
9, 14364, Note_on_c, 7, 120, 100
9, 14370, Note_off_c, 7, 120, 0
9, 14370, Note_on_c, 7, 121, 100
9, 14376, Note_off_c, 7, 121, 0
9, 14376, Note_on_c, 7, 124, 100
9, 14382, Note_off_c, 7, 124, 0
9, 14382, Note_on_c, 7, 121, 100
9, 14388, Note_off_c, 7, 121, 0
9, 14388, Note_on_c, 7, 120, 100
9, 14394, Note_off_c, 7, 120, 0
9, 14394, Note_on_c, 7, 122, 100
9, 14400, Note_off_c, 7, 122, 0
9, 14400, End_track
10, 0, Start_track
10, 0, Title_t, "Track 9\000"
10, 0, Program_c, 8, 35
10, 0, Control_c, 8, 7, 127
10, 0, Control_c, 8, 91, 127
10, 2292, Note_on_c, 8, 28, 100
10, 2304, Note_off_c, 8, 28, 0
10, 2304, Note_on_c, 8, 31, 100
10, 2316, Note_off_c, 8, 31, 0
10, 2316, Note_on_c, 8, 28, 100
10, 2328, Note_off_c, 8, 28, 0
10, 2328, Note_on_c, 8, 31, 100
10, 2340, Note_off_c, 8, 31, 0
10, 2352, Note_on_c, 8, 33, 100
10, 2364, Note_off_c, 8, 33, 0
10, 2376, Note_on_c, 8, 33, 100
10, 2400, Note_off_c, 8, 33, 0
10, 2448, Note_on_c, 8, 33, 127
10, 2460, Note_off_c, 8, 33, 0
10, 2472, Note_on_c, 8, 33, 127
10, 2484, Note_off_c, 8, 33, 0
10, 2676, Note_on_c, 8, 28, 100
10, 2688, Note_off_c, 8, 28, 0
10, 2688, Note_on_c, 8, 31, 100
10, 2700, Note_off_c, 8, 31, 0
10, 2700, Note_on_c, 8, 28, 100
10, 2712, Note_off_c, 8, 28, 0
10, 2712, Note_on_c, 8, 31, 100
10, 2724, Note_off_c, 8, 31, 0
10, 2736, Note_on_c, 8, 33, 100
10, 2748, Note_off_c, 8, 33, 0
10, 2832, Note_on_c, 8, 33, 127
10, 2844, Note_off_c, 8, 33, 0
10, 2856, Note_on_c, 8, 33, 127
10, 2868, Note_off_c, 8, 33, 0
10, 3024, Note_on_c, 8, 36, 100
10, 3036, Note_off_c, 8, 36, 0
10, 3036, Note_on_c, 8, 33, 100
10, 3048, Note_off_c, 8, 33, 0
10, 3048, Note_on_c, 8, 31, 100
10, 3060, Note_off_c, 8, 31, 0
10, 3060, Note_on_c, 8, 28, 100
10, 3072, Note_off_c, 8, 28, 0
10, 3444, Note_on_c, 8, 28, 100
10, 3456, Note_off_c, 8, 28, 0
10, 3456, Note_on_c, 8, 31, 100
10, 3468, Note_off_c, 8, 31, 0
10, 3468, Note_on_c, 8, 28, 100
10, 3480, Note_off_c, 8, 28, 0
10, 3480, Note_on_c, 8, 31, 100
10, 3492, Note_off_c, 8, 31, 0
10, 3504, Note_on_c, 8, 33, 100
10, 3516, Note_off_c, 8, 33, 0
10, 3528, Note_on_c, 8, 33, 100
10, 3552, Note_off_c, 8, 33, 0
10, 3600, Note_on_c, 8, 33, 127
10, 3612, Note_off_c, 8, 33, 0
10, 3624, Note_on_c, 8, 33, 127
10, 3636, Note_off_c, 8, 33, 0
10, 3828, Note_on_c, 8, 28, 100
10, 3840, Note_off_c, 8, 28, 0
10, 3840, Note_on_c, 8, 31, 100
10, 3852, Note_off_c, 8, 31, 0
10, 3852, Note_on_c, 8, 28, 100
10, 3864, Note_off_c, 8, 28, 0
10, 3864, Note_on_c, 8, 31, 100
10, 3876, Note_off_c, 8, 31, 0
10, 3888, Note_on_c, 8, 33, 100
10, 3900, Note_off_c, 8, 33, 0
10, 3984, Note_on_c, 8, 31, 100
10, 3996, Note_off_c, 8, 31, 0
10, 4008, Note_on_c, 8, 33, 119
10, 4020, Note_off_c, 8, 33, 0
10, 4212, Note_on_c, 8, 28, 100
10, 4224, Note_off_c, 8, 28, 0
10, 4224, Note_on_c, 8, 31, 100
10, 4236, Note_off_c, 8, 31, 0
10, 4236, Note_on_c, 8, 28, 100
10, 4248, Note_off_c, 8, 28, 0
10, 4248, Note_on_c, 8, 31, 100
10, 4260, Note_off_c, 8, 31, 0
10, 4272, Note_on_c, 8, 33, 100
10, 4284, Note_off_c, 8, 33, 0
10, 4500, Note_on_c, 8, 28, 100
10, 4512, Note_off_c, 8, 28, 0
10, 4512, Note_on_c, 8, 31, 100
10, 4524, Note_off_c, 8, 31, 0
10, 4524, Note_on_c, 8, 28, 100
10, 4536, Note_off_c, 8, 28, 0
10, 4536, Note_on_c, 8, 31, 100
10, 4548, Note_off_c, 8, 31, 0
10, 4560, Note_on_c, 8, 33, 100
10, 4572, Note_off_c, 8, 33, 0
10, 4908, Note_on_c, 8, 28, 100
10, 4920, Note_off_c, 8, 28, 0
10, 4920, Note_on_c, 8, 31, 100
10, 4932, Note_off_c, 8, 31, 0
10, 4932, Note_on_c, 8, 28, 100
10, 4944, Note_off_c, 8, 28, 0
10, 4956, Note_on_c, 8, 28, 100
10, 4968, Note_off_c, 8, 28, 0
10, 4968, Note_on_c, 8, 31, 100
10, 4980, Note_off_c, 8, 31, 0
10, 4980, Note_on_c, 8, 28, 100
10, 4992, Note_off_c, 8, 28, 0
10, 4992, Note_on_c, 8, 33, 100
10, 5004, Note_off_c, 8, 33, 0
10, 5172, Note_on_c, 8, 28, 100
10, 5184, Note_off_c, 8, 28, 0
10, 5184, Note_on_c, 8, 31, 100
10, 5196, Note_off_c, 8, 31, 0
10, 5196, Note_on_c, 8, 28, 100
10, 5208, Note_off_c, 8, 28, 0
10, 5208, Note_on_c, 8, 31, 100
10, 5220, Note_off_c, 8, 31, 0
10, 5232, Note_on_c, 8, 33, 100
10, 5244, Note_off_c, 8, 33, 0
10, 5328, Note_on_c, 8, 33, 100
10, 5340, Note_off_c, 8, 33, 0
10, 5352, Note_on_c, 8, 33, 119
10, 5364, Note_off_c, 8, 33, 0
10, 5748, Note_on_c, 8, 28, 100
10, 5760, Note_off_c, 8, 28, 0
10, 5760, Note_on_c, 8, 31, 100
10, 5772, Note_off_c, 8, 31, 0
10, 5772, Note_on_c, 8, 28, 100
10, 5784, Note_off_c, 8, 28, 0
10, 5784, Note_on_c, 8, 31, 100
10, 5796, Note_off_c, 8, 31, 0
10, 5808, Note_on_c, 8, 33, 100
10, 5820, Note_off_c, 8, 33, 0
10, 6096, Note_on_c, 8, 33, 127
10, 6108, Note_off_c, 8, 33, 0
10, 6120, Note_on_c, 8, 32, 127
10, 6132, Note_off_c, 8, 32, 0
10, 6132, Note_on_c, 8, 28, 100
10, 6144, Note_off_c, 8, 28, 0
10, 6144, Note_on_c, 8, 31, 100
10, 6156, Note_off_c, 8, 31, 0
10, 6156, Note_on_c, 8, 28, 100
10, 6168, Note_off_c, 8, 28, 0
10, 6168, Note_on_c, 8, 31, 100
10, 6180, Note_off_c, 8, 31, 0
10, 6192, Note_on_c, 8, 33, 100
10, 6204, Note_off_c, 8, 33, 0
10, 6276, Note_on_c, 8, 41, 127
10, 6288, Note_off_c, 8, 41, 0
10, 6288, Note_on_c, 8, 36, 127
10, 6300, Note_off_c, 8, 36, 0
10, 6300, Note_on_c, 8, 33, 100
10, 6312, Note_off_c, 8, 33, 0
10, 6312, Note_on_c, 8, 31, 100
10, 6324, Note_off_c, 8, 31, 0
10, 6324, Note_on_c, 8, 28, 100
10, 6336, Note_off_c, 8, 28, 0
10, 6336, Note_on_c, 8, 33, 100
10, 6348, Note_off_c, 8, 33, 0
10, 6360, Note_on_c, 8, 33, 100
10, 6384, Note_off_c, 8, 33, 0
10, 6720, Note_on_c, 8, 31, 100
10, 6732, Note_off_c, 8, 31, 0
10, 6732, Note_on_c, 8, 28, 100
10, 6744, Note_off_c, 8, 28, 0
10, 6744, Note_on_c, 8, 31, 100
10, 6756, Note_off_c, 8, 31, 0
10, 6768, Note_on_c, 8, 33, 100
10, 6780, Note_off_c, 8, 33, 0
10, 6792, Note_on_c, 8, 33, 100
10, 6816, Note_off_c, 8, 33, 0
10, 6828, Note_on_c, 8, 28, 127
10, 6840, Note_off_c, 8, 28, 0
10, 6840, Note_on_c, 8, 31, 127
10, 6852, Note_off_c, 8, 31, 0
10, 6864, Note_on_c, 8, 33, 100
10, 6888, Note_off_c, 8, 33, 0
10, 7092, Note_on_c, 8, 28, 100
10, 7104, Note_off_c, 8, 28, 0
10, 7104, Note_on_c, 8, 31, 100
10, 7116, Note_off_c, 8, 31, 0
10, 7116, Note_on_c, 8, 28, 100
10, 7128, Note_off_c, 8, 28, 0
10, 7128, Note_on_c, 8, 31, 100
10, 7140, Note_off_c, 8, 31, 0
10, 7152, Note_on_c, 8, 33, 100
10, 7164, Note_off_c, 8, 33, 0
10, 7248, Note_on_c, 8, 33, 127
10, 7260, Note_off_c, 8, 33, 0
10, 7272, Note_on_c, 8, 33, 127
10, 7284, Note_off_c, 8, 33, 0
10, 7440, Note_on_c, 8, 36, 100
10, 7452, Note_off_c, 8, 36, 0
10, 7452, Note_on_c, 8, 33, 100
10, 7464, Note_off_c, 8, 33, 0
10, 7464, Note_on_c, 8, 31, 100
10, 7476, Note_off_c, 8, 31, 0
10, 7476, Note_on_c, 8, 28, 100
10, 7488, Note_off_c, 8, 28, 0
10, 7860, Note_on_c, 8, 28, 100
10, 7872, Note_off_c, 8, 28, 0
10, 7872, Note_on_c, 8, 31, 100
10, 7884, Note_off_c, 8, 31, 0
10, 7884, Note_on_c, 8, 28, 100
10, 7896, Note_off_c, 8, 28, 0
10, 7896, Note_on_c, 8, 31, 100
10, 7908, Note_off_c, 8, 31, 0
10, 7920, Note_on_c, 8, 33, 100
10, 7932, Note_off_c, 8, 33, 0
10, 7944, Note_on_c, 8, 33, 100
10, 7968, Note_off_c, 8, 33, 0
10, 8016, Note_on_c, 8, 33, 127
10, 8028, Note_off_c, 8, 33, 0
10, 8040, Note_on_c, 8, 33, 127
10, 8052, Note_off_c, 8, 33, 0
10, 8244, Note_on_c, 8, 28, 100
10, 8256, Note_off_c, 8, 28, 0
10, 8256, Note_on_c, 8, 31, 100
10, 8268, Note_off_c, 8, 31, 0
10, 8268, Note_on_c, 8, 28, 100
10, 8280, Note_off_c, 8, 28, 0
10, 8280, Note_on_c, 8, 31, 100
10, 8292, Note_off_c, 8, 31, 0
10, 8304, Note_on_c, 8, 33, 100
10, 8316, Note_off_c, 8, 33, 0
10, 8400, Note_on_c, 8, 31, 100
10, 8412, Note_off_c, 8, 31, 0
10, 8424, Note_on_c, 8, 33, 119
10, 8436, Note_off_c, 8, 33, 0
10, 8628, Note_on_c, 8, 28, 100
10, 8640, Note_off_c, 8, 28, 0
10, 8640, Note_on_c, 8, 31, 100
10, 8652, Note_off_c, 8, 31, 0
10, 8652, Note_on_c, 8, 28, 100
10, 8664, Note_off_c, 8, 28, 0
10, 8664, Note_on_c, 8, 31, 100
10, 8676, Note_off_c, 8, 31, 0
10, 8688, Note_on_c, 8, 33, 100
10, 8700, Note_off_c, 8, 33, 0
10, 8916, Note_on_c, 8, 28, 100
10, 8928, Note_off_c, 8, 28, 0
10, 8928, Note_on_c, 8, 31, 100
10, 8940, Note_off_c, 8, 31, 0
10, 8940, Note_on_c, 8, 28, 100
10, 8952, Note_off_c, 8, 28, 0
10, 8952, Note_on_c, 8, 31, 100
10, 8964, Note_off_c, 8, 31, 0
10, 8976, Note_on_c, 8, 33, 100
10, 8988, Note_off_c, 8, 33, 0
10, 9324, Note_on_c, 8, 28, 100
10, 9336, Note_off_c, 8, 28, 0
10, 9336, Note_on_c, 8, 31, 100
10, 9348, Note_off_c, 8, 31, 0
10, 9348, Note_on_c, 8, 28, 100
10, 9360, Note_off_c, 8, 28, 0
10, 9372, Note_on_c, 8, 28, 100
10, 9384, Note_off_c, 8, 28, 0
10, 9384, Note_on_c, 8, 31, 100
10, 9396, Note_off_c, 8, 31, 0
10, 9396, Note_on_c, 8, 28, 100
10, 9408, Note_off_c, 8, 28, 0
10, 9408, Note_on_c, 8, 33, 100
10, 9420, Note_off_c, 8, 33, 0
10, 9588, Note_on_c, 8, 28, 100
10, 9600, Note_off_c, 8, 28, 0
10, 9600, Note_on_c, 8, 31, 100
10, 9612, Note_off_c, 8, 31, 0
10, 9612, Note_on_c, 8, 28, 100
10, 9624, Note_off_c, 8, 28, 0
10, 9624, Note_on_c, 8, 31, 100
10, 9636, Note_off_c, 8, 31, 0
10, 9648, Note_on_c, 8, 33, 100
10, 9660, Note_off_c, 8, 33, 0
10, 9744, Note_on_c, 8, 33, 100
10, 9756, Note_off_c, 8, 33, 0
10, 9768, Note_on_c, 8, 33, 119
10, 9780, Note_off_c, 8, 33, 0
10, 9876, Note_on_c, 8, 28, 100
10, 9888, Note_off_c, 8, 28, 0
10, 9888, Note_on_c, 8, 31, 100
10, 9900, Note_off_c, 8, 31, 0
10, 9900, Note_on_c, 8, 28, 100
10, 9912, Note_off_c, 8, 28, 0
10, 9912, Note_on_c, 8, 31, 100
10, 9924, Note_off_c, 8, 31, 0
10, 9960, Note_on_c, 8, 33, 100
10, 9984, Note_off_c, 8, 33, 0
10, 10068, Note_on_c, 8, 28, 100
10, 10080, Note_off_c, 8, 28, 0
10, 10080, Note_on_c, 8, 31, 100
10, 10092, Note_off_c, 8, 31, 0
10, 10092, Note_on_c, 8, 28, 100
10, 10104, Note_off_c, 8, 28, 0
10, 10104, Note_on_c, 8, 31, 100
10, 10116, Note_off_c, 8, 31, 0
10, 10152, Note_on_c, 8, 33, 100
10, 10176, Note_off_c, 8, 33, 0
10, 10260, Note_on_c, 8, 28, 100
10, 10272, Note_off_c, 8, 28, 0
10, 10272, Note_on_c, 8, 31, 100
10, 10284, Note_off_c, 8, 31, 0
10, 10284, Note_on_c, 8, 28, 100
10, 10296, Note_off_c, 8, 28, 0
10, 10296, Note_on_c, 8, 31, 100
10, 10308, Note_off_c, 8, 31, 0
10, 10344, Note_on_c, 8, 33, 100
10, 10368, Note_off_c, 8, 33, 0
10, 10440, Note_on_c, 8, 28, 100
10, 10452, Note_off_c, 8, 28, 0
10, 10452, Note_on_c, 8, 31, 100
10, 10464, Note_off_c, 8, 31, 0
10, 10476, Note_on_c, 8, 31, 100
10, 10488, Note_off_c, 8, 31, 0
10, 10500, Note_on_c, 8, 28, 100
10, 10512, Note_off_c, 8, 28, 0
10, 10512, Note_on_c, 8, 31, 100
10, 10524, Note_off_c, 8, 31, 0
10, 10524, Note_on_c, 8, 28, 100
10, 10536, Note_off_c, 8, 28, 0
10, 10536, Note_on_c, 8, 36, 100
10, 10560, Note_off_c, 8, 36, 0
10, 10560, Note_on_c, 8, 33, 100
10, 10572, Note_off_c, 8, 33, 0
10, 10644, Note_on_c, 8, 28, 100
10, 10656, Note_off_c, 8, 28, 0
10, 10656, Note_on_c, 8, 31, 100
10, 10668, Note_off_c, 8, 31, 0
10, 10668, Note_on_c, 8, 28, 100
10, 10680, Note_off_c, 8, 28, 0
10, 10680, Note_on_c, 8, 31, 100
10, 10692, Note_off_c, 8, 31, 0
10, 10728, Note_on_c, 8, 33, 100
10, 10752, Note_off_c, 8, 33, 0
10, 10824, Note_on_c, 8, 28, 100
10, 10836, Note_off_c, 8, 28, 0
10, 10836, Note_on_c, 8, 31, 100
10, 10848, Note_off_c, 8, 31, 0
10, 10860, Note_on_c, 8, 31, 100
10, 10872, Note_off_c, 8, 31, 0
10, 10884, Note_on_c, 8, 28, 100
10, 10896, Note_off_c, 8, 28, 0
10, 10896, Note_on_c, 8, 31, 100
10, 10908, Note_off_c, 8, 31, 0
10, 10908, Note_on_c, 8, 28, 100
10, 10920, Note_off_c, 8, 28, 0
10, 10920, Note_on_c, 8, 36, 100
10, 10943, Note_on_c, 8, 33, 100
10, 10944, Note_off_c, 8, 36, 0
10, 10946, Pitch_bend_c, 8, 8064
10, 10955, Note_off_c, 8, 33, 0
10, 11028, Note_on_c, 8, 28, 100
10, 11040, Note_off_c, 8, 28, 0
10, 11040, Note_on_c, 8, 31, 100
10, 11052, Note_off_c, 8, 31, 0
10, 11052, Note_on_c, 8, 28, 100
10, 11064, Note_off_c, 8, 28, 0
10, 11064, Note_on_c, 8, 31, 100
10, 11076, Note_off_c, 8, 31, 0
10, 11112, Note_on_c, 8, 33, 100
10, 11136, Note_off_c, 8, 33, 0
10, 11220, Note_on_c, 8, 28, 100
10, 11232, Note_off_c, 8, 28, 0
10, 11232, Note_on_c, 8, 31, 100
10, 11244, Note_off_c, 8, 31, 0
10, 11244, Note_on_c, 8, 28, 100
10, 11256, Note_off_c, 8, 28, 0
10, 11256, Note_on_c, 8, 31, 100
10, 11268, Note_off_c, 8, 31, 0
10, 11304, Note_on_c, 8, 33, 100
10, 11328, Note_off_c, 8, 33, 0
10, 11412, Note_on_c, 8, 28, 100
10, 11424, Note_off_c, 8, 28, 0
10, 11424, Note_on_c, 8, 31, 100
10, 11436, Note_off_c, 8, 31, 0
10, 11436, Note_on_c, 8, 28, 100
10, 11448, Note_off_c, 8, 28, 0
10, 11448, Note_on_c, 8, 31, 100
10, 11460, Note_off_c, 8, 31, 0
10, 11496, Note_on_c, 8, 33, 100
10, 11520, Note_off_c, 8, 33, 0
10, 11592, Note_on_c, 8, 28, 100
10, 11604, Note_off_c, 8, 28, 0
10, 11604, Note_on_c, 8, 31, 100
10, 11616, Note_off_c, 8, 31, 0
10, 11628, Note_on_c, 8, 31, 100
10, 11640, Note_off_c, 8, 31, 0
10, 11652, Note_on_c, 8, 28, 100
10, 11664, Note_off_c, 8, 28, 0
10, 11664, Note_on_c, 8, 31, 100
10, 11676, Note_off_c, 8, 31, 0
10, 11676, Note_on_c, 8, 28, 100
10, 11688, Note_off_c, 8, 28, 0
10, 11688, Note_on_c, 8, 36, 100
10, 11712, Note_off_c, 8, 36, 0
10, 11712, Note_on_c, 8, 33, 100
10, 11724, Note_off_c, 8, 33, 0
10, 11796, Note_on_c, 8, 28, 100
10, 11808, Note_off_c, 8, 28, 0
10, 11808, Note_on_c, 8, 31, 100
10, 11820, Note_off_c, 8, 31, 0
10, 11820, Note_on_c, 8, 28, 100
10, 11832, Note_off_c, 8, 28, 0
10, 11832, Note_on_c, 8, 31, 100
10, 11844, Note_off_c, 8, 31, 0
10, 11880, Note_on_c, 8, 33, 100
10, 11904, Note_off_c, 8, 33, 0
10, 11976, Note_on_c, 8, 28, 100
10, 11988, Note_off_c, 8, 28, 0
10, 11988, Note_on_c, 8, 31, 100
10, 12000, Note_off_c, 8, 31, 0
10, 12012, Note_on_c, 8, 31, 100
10, 12024, Note_off_c, 8, 31, 0
10, 12036, Note_on_c, 8, 28, 100
10, 12048, Note_off_c, 8, 28, 0
10, 12048, Note_on_c, 8, 31, 100
10, 12060, Note_off_c, 8, 31, 0
10, 12060, Note_on_c, 8, 28, 100
10, 12072, Note_off_c, 8, 28, 0
10, 12072, Note_on_c, 8, 36, 100
10, 12095, Note_on_c, 8, 33, 100
10, 12096, Note_off_c, 8, 36, 0
10, 12096, Note_on_c, 8, 31, 100
10, 12107, Note_off_c, 8, 33, 0
10, 12108, Note_off_c, 8, 31, 0
10, 12108, Note_on_c, 8, 28, 100
10, 12120, Note_off_c, 8, 28, 0
10, 12120, Note_on_c, 8, 31, 100
10, 12132, Note_off_c, 8, 31, 0
10, 12144, Note_on_c, 8, 33, 100
10, 12156, Note_off_c, 8, 33, 0
10, 12372, Note_on_c, 8, 28, 100
10, 12384, Note_off_c, 8, 28, 0
10, 12384, Note_on_c, 8, 31, 100
10, 12396, Note_off_c, 8, 31, 0
10, 12396, Note_on_c, 8, 28, 100
10, 12408, Note_off_c, 8, 28, 0
10, 12408, Note_on_c, 8, 31, 100
10, 12420, Note_off_c, 8, 31, 0
10, 12432, Note_on_c, 8, 33, 100
10, 12444, Note_off_c, 8, 33, 0
10, 12780, Note_on_c, 8, 28, 100
10, 12792, Note_off_c, 8, 28, 0
10, 12792, Note_on_c, 8, 31, 100
10, 12804, Note_off_c, 8, 31, 0
10, 12804, Note_on_c, 8, 28, 100
10, 12816, Note_off_c, 8, 28, 0
10, 12828, Note_on_c, 8, 28, 100
10, 12840, Note_off_c, 8, 28, 0
10, 12840, Note_on_c, 8, 31, 100
10, 12852, Note_off_c, 8, 31, 0
10, 12852, Note_on_c, 8, 28, 100
10, 12864, Note_off_c, 8, 28, 0
10, 12864, Note_on_c, 8, 33, 100
10, 12876, Note_off_c, 8, 33, 0
10, 13044, Note_on_c, 8, 28, 100
10, 13056, Note_off_c, 8, 28, 0
10, 13056, Note_on_c, 8, 31, 100
10, 13068, Note_off_c, 8, 31, 0
10, 13068, Note_on_c, 8, 28, 100
10, 13080, Note_off_c, 8, 28, 0
10, 13080, Note_on_c, 8, 31, 100
10, 13092, Note_off_c, 8, 31, 0
10, 13104, Note_on_c, 8, 33, 100
10, 13116, Note_off_c, 8, 33, 0
10, 13200, Note_on_c, 8, 33, 100
10, 13212, Note_off_c, 8, 33, 0
10, 13224, Note_on_c, 8, 33, 119
10, 13236, Note_off_c, 8, 33, 0
10, 13248, Note_on_c, 8, 31, 100
10, 13260, Note_off_c, 8, 31, 0
10, 13260, Note_on_c, 8, 28, 100
10, 13272, Note_off_c, 8, 28, 0
10, 13272, Note_on_c, 8, 31, 100
10, 13284, Note_off_c, 8, 31, 0
10, 13296, Note_on_c, 8, 33, 100
10, 13308, Note_off_c, 8, 33, 0
10, 13524, Note_on_c, 8, 28, 100
10, 13536, Note_off_c, 8, 28, 0
10, 13536, Note_on_c, 8, 31, 100
10, 13548, Note_off_c, 8, 31, 0
10, 13548, Note_on_c, 8, 28, 100
10, 13560, Note_off_c, 8, 28, 0
10, 13560, Note_on_c, 8, 31, 100
10, 13572, Note_off_c, 8, 31, 0
10, 13584, Note_on_c, 8, 33, 100
10, 13596, Note_off_c, 8, 33, 0
10, 13932, Note_on_c, 8, 28, 100
10, 13944, Note_off_c, 8, 28, 0
10, 13944, Note_on_c, 8, 31, 100
10, 13956, Note_off_c, 8, 31, 0
10, 13956, Note_on_c, 8, 28, 100
10, 13968, Note_off_c, 8, 28, 0
10, 13980, Note_on_c, 8, 28, 100
10, 13992, Note_off_c, 8, 28, 0
10, 13992, Note_on_c, 8, 31, 100
10, 14004, Note_off_c, 8, 31, 0
10, 14004, Note_on_c, 8, 28, 100
10, 14016, Note_off_c, 8, 28, 0
10, 14016, Note_on_c, 8, 33, 100
10, 14028, Note_off_c, 8, 33, 0
10, 14400, Note_on_c, 8, 31, 100
10, 14412, Note_off_c, 8, 31, 0
10, 14412, Note_on_c, 8, 33, 100
10, 14424, Note_off_c, 8, 33, 0
10, 14424, Note_on_c, 8, 28, 100
10, 14436, Note_off_c, 8, 28, 0
10, 14436, Note_on_c, 8, 31, 100
10, 14448, Note_off_c, 8, 31, 0
10, 14448, Note_on_c, 8, 33, 100
10, 14460, Note_off_c, 8, 33, 0
10, 14472, Note_on_c, 8, 31, 100
10, 14484, Note_off_c, 8, 31, 0
10, 14484, Note_on_c, 8, 33, 100
10, 14496, Note_off_c, 8, 33, 0
10, 14508, Note_on_c, 8, 31, 100
10, 14520, Note_off_c, 8, 31, 0
10, 14520, Note_on_c, 8, 33, 100
10, 14532, Note_off_c, 8, 33, 0
10, 14784, Note_on_c, 8, 31, 100
10, 14796, Note_off_c, 8, 31, 0
10, 14796, Note_on_c, 8, 33, 100
10, 14808, Note_off_c, 8, 33, 0
10, 14808, Note_on_c, 8, 28, 100
10, 14820, Note_off_c, 8, 28, 0
10, 14820, Note_on_c, 8, 31, 100
10, 14832, Note_off_c, 8, 31, 0
10, 14832, Note_on_c, 8, 33, 100
10, 14844, Note_off_c, 8, 33, 0
10, 14856, Note_on_c, 8, 31, 100
10, 14868, Note_off_c, 8, 31, 0
10, 14868, Note_on_c, 8, 33, 100
10, 14880, Note_off_c, 8, 33, 0
10, 14892, Note_on_c, 8, 31, 100
10, 14904, Note_off_c, 8, 31, 0
10, 14904, Note_on_c, 8, 33, 100
10, 14916, Note_off_c, 8, 33, 0
10, 15168, Note_on_c, 8, 31, 100
10, 15180, Note_off_c, 8, 31, 0
10, 15180, Note_on_c, 8, 33, 100
10, 15192, Note_off_c, 8, 33, 0
10, 15192, Note_on_c, 8, 28, 100
10, 15204, Note_off_c, 8, 28, 0
10, 15204, Note_on_c, 8, 31, 100
10, 15216, Note_off_c, 8, 31, 0
10, 15216, Note_on_c, 8, 33, 100
10, 15228, Note_off_c, 8, 33, 0
10, 15240, Note_on_c, 8, 31, 100
10, 15252, Note_off_c, 8, 31, 0
10, 15252, Note_on_c, 8, 33, 100
10, 15264, Note_off_c, 8, 33, 0
10, 15276, Note_on_c, 8, 31, 100
10, 15288, Note_off_c, 8, 31, 0
10, 15288, Note_on_c, 8, 33, 100
10, 15300, Note_off_c, 8, 33, 0
10, 15360, Note_on_c, 8, 31, 100
10, 15372, Note_off_c, 8, 31, 0
10, 15372, Note_on_c, 8, 33, 100
10, 15384, Note_off_c, 8, 33, 0
10, 15384, Note_on_c, 8, 28, 100
10, 15396, Note_off_c, 8, 28, 0
10, 15396, Note_on_c, 8, 31, 100
10, 15408, Note_off_c, 8, 31, 0
10, 15408, Note_on_c, 8, 33, 100
10, 15420, Note_off_c, 8, 33, 0
10, 15432, Note_on_c, 8, 31, 100
10, 15444, Note_off_c, 8, 31, 0
10, 15444, Note_on_c, 8, 33, 100
10, 15456, Note_off_c, 8, 33, 0
10, 15468, Note_on_c, 8, 31, 100
10, 15480, Note_off_c, 8, 31, 0
10, 15480, Note_on_c, 8, 33, 100
10, 15492, Note_off_c, 8, 33, 0
10, 15552, Note_on_c, 8, 31, 100
10, 15564, Note_off_c, 8, 31, 0
10, 15564, Note_on_c, 8, 33, 100
10, 15576, Note_off_c, 8, 33, 0
10, 15576, Note_on_c, 8, 28, 100
10, 15588, Note_off_c, 8, 28, 0
10, 15588, Note_on_c, 8, 31, 100
10, 15600, Note_off_c, 8, 31, 0
10, 15600, Note_on_c, 8, 33, 100
10, 15612, Note_off_c, 8, 33, 0
10, 15624, Note_on_c, 8, 31, 100
10, 15636, Note_off_c, 8, 31, 0
10, 15636, Note_on_c, 8, 33, 100
10, 15648, Note_off_c, 8, 33, 0
10, 15660, Note_on_c, 8, 31, 100
10, 15672, Note_off_c, 8, 31, 0
10, 15672, Note_on_c, 8, 33, 100
10, 15684, Note_off_c, 8, 33, 0
10, 15744, Note_on_c, 8, 31, 100
10, 15756, Note_off_c, 8, 31, 0
10, 15756, Note_on_c, 8, 33, 100
10, 15768, Note_off_c, 8, 33, 0
10, 15768, Note_on_c, 8, 28, 100
10, 15780, Note_off_c, 8, 28, 0
10, 15780, Note_on_c, 8, 31, 100
10, 15792, Note_off_c, 8, 31, 0
10, 15792, Note_on_c, 8, 33, 100
10, 15804, Note_off_c, 8, 33, 0
10, 15816, Note_on_c, 8, 31, 100
10, 15828, Note_off_c, 8, 31, 0
10, 15828, Note_on_c, 8, 33, 100
10, 15840, Note_off_c, 8, 33, 0
10, 15852, Note_on_c, 8, 31, 100
10, 15864, Note_off_c, 8, 31, 0
10, 15864, Note_on_c, 8, 33, 100
10, 15876, Note_off_c, 8, 33, 0
10, 15936, Note_on_c, 8, 31, 100
10, 15948, Note_off_c, 8, 31, 0
10, 15948, Note_on_c, 8, 33, 100
10, 15960, Note_off_c, 8, 33, 0
10, 15960, Note_on_c, 8, 28, 100
10, 15972, Note_off_c, 8, 28, 0
10, 15972, Note_on_c, 8, 31, 100
10, 15984, Note_off_c, 8, 31, 0
10, 15984, Note_on_c, 8, 33, 100
10, 15996, Note_off_c, 8, 33, 0
10, 16008, Note_on_c, 8, 31, 100
10, 16020, Note_off_c, 8, 31, 0
10, 16020, Note_on_c, 8, 33, 100
10, 16032, Note_off_c, 8, 33, 0
10, 16044, Note_on_c, 8, 31, 100
10, 16056, Note_off_c, 8, 31, 0
10, 16056, Note_on_c, 8, 33, 100
10, 16068, Note_off_c, 8, 33, 0
10, 16128, Note_on_c, 8, 31, 100
10, 16140, Note_off_c, 8, 31, 0
10, 16140, Note_on_c, 8, 33, 100
10, 16152, Note_off_c, 8, 33, 0
10, 16152, Note_on_c, 8, 28, 100
10, 16164, Note_off_c, 8, 28, 0
10, 16164, Note_on_c, 8, 31, 100
10, 16176, Note_off_c, 8, 31, 0
10, 16176, Note_on_c, 8, 33, 100
10, 16188, Note_off_c, 8, 33, 0
10, 16200, Note_on_c, 8, 31, 100
10, 16212, Note_off_c, 8, 31, 0
10, 16212, Note_on_c, 8, 33, 100
10, 16224, Note_off_c, 8, 33, 0
10, 16236, Note_on_c, 8, 31, 100
10, 16248, Note_off_c, 8, 31, 0
10, 16248, Note_on_c, 8, 33, 100
10, 16260, Note_off_c, 8, 33, 0
10, 16320, Note_on_c, 8, 31, 100
10, 16332, Note_off_c, 8, 31, 0
10, 16332, Note_on_c, 8, 33, 100
10, 16344, Note_off_c, 8, 33, 0
10, 16344, Note_on_c, 8, 28, 100
10, 16356, Note_off_c, 8, 28, 0
10, 16356, Note_on_c, 8, 31, 100
10, 16368, Note_off_c, 8, 31, 0
10, 16368, Note_on_c, 8, 33, 100
10, 16380, Note_off_c, 8, 33, 0
10, 16392, Note_on_c, 8, 31, 100
10, 16404, Note_off_c, 8, 31, 0
10, 16404, Note_on_c, 8, 33, 100
10, 16416, Note_off_c, 8, 33, 0
10, 16428, Note_on_c, 8, 31, 100
10, 16440, Note_off_c, 8, 31, 0
10, 16440, Note_on_c, 8, 33, 100
10, 16452, Note_off_c, 8, 33, 0
10, 16512, Note_on_c, 8, 31, 100
10, 16524, Note_off_c, 8, 31, 0
10, 16524, Note_on_c, 8, 33, 100
10, 16536, Note_off_c, 8, 33, 0
10, 16536, Note_on_c, 8, 28, 100
10, 16548, Note_off_c, 8, 28, 0
10, 16548, Note_on_c, 8, 31, 100
10, 16560, Note_off_c, 8, 31, 0
10, 16560, Note_on_c, 8, 33, 100
10, 16572, Note_off_c, 8, 33, 0
10, 16584, Note_on_c, 8, 31, 100
10, 16596, Note_off_c, 8, 31, 0
10, 16596, Note_on_c, 8, 33, 100
10, 16608, Note_off_c, 8, 33, 0
10, 16620, Note_on_c, 8, 31, 100
10, 16632, Note_off_c, 8, 31, 0
10, 16632, Note_on_c, 8, 33, 100
10, 16644, Note_off_c, 8, 33, 0
10, 16704, Note_on_c, 8, 29, 100
10, 16776, Note_off_c, 8, 29, 0
10, 16776, Note_on_c, 8, 36, 100
10, 16848, Note_off_c, 8, 36, 0
10, 16848, Note_on_c, 8, 35, 100
10, 16896, Note_off_c, 8, 35, 0
10, 16896, Note_on_c, 8, 33, 100
10, 16908, Note_off_c, 8, 33, 0
10, 16920, Note_on_c, 8, 33, 100
10, 16932, Note_off_c, 8, 33, 0
10, 16968, Note_on_c, 8, 31, 100
10, 16980, Note_off_c, 8, 31, 0
10, 16980, Note_on_c, 8, 33, 100
10, 16992, Note_off_c, 8, 33, 0
10, 17004, Note_on_c, 8, 33, 100
10, 17016, Note_off_c, 8, 33, 0
10, 17028, Note_on_c, 8, 31, 100
10, 17040, Note_off_c, 8, 31, 0
10, 17040, Note_on_c, 8, 33, 100
10, 17052, Note_off_c, 8, 33, 0
10, 17064, Note_on_c, 8, 31, 100
10, 17076, Note_off_c, 8, 31, 0
10, 17088, Note_on_c, 8, 29, 100
10, 17160, Note_off_c, 8, 29, 0
10, 17160, Note_on_c, 8, 36, 100
10, 17232, Note_off_c, 8, 36, 0
10, 17232, Note_on_c, 8, 35, 100
10, 17280, Note_off_c, 8, 35, 0
10, 17280, Note_on_c, 8, 33, 100
10, 17292, Note_off_c, 8, 33, 0
10, 17304, Note_on_c, 8, 33, 100
10, 17316, Note_off_c, 8, 33, 0
10, 17352, Note_on_c, 8, 31, 100
10, 17364, Note_off_c, 8, 31, 0
10, 17364, Note_on_c, 8, 33, 100
10, 17376, Note_off_c, 8, 33, 0
10, 17388, Note_on_c, 8, 33, 100
10, 17400, Note_off_c, 8, 33, 0
10, 17412, Note_on_c, 8, 31, 100
10, 17424, Note_off_c, 8, 31, 0
10, 17424, Note_on_c, 8, 33, 100
10, 17436, Note_off_c, 8, 33, 0
10, 17448, Note_on_c, 8, 31, 100
10, 17460, Note_off_c, 8, 31, 0
10, 17472, Note_on_c, 8, 29, 100
10, 17544, Note_off_c, 8, 29, 0
10, 17544, Note_on_c, 8, 36, 100
10, 17616, Note_off_c, 8, 36, 0
10, 17616, Note_on_c, 8, 35, 100
10, 17664, Note_off_c, 8, 35, 0
10, 17664, Note_on_c, 8, 33, 100
10, 17676, Note_off_c, 8, 33, 0
10, 17688, Note_on_c, 8, 33, 100
10, 17700, Note_off_c, 8, 33, 0
10, 17736, Note_on_c, 8, 31, 100
10, 17748, Note_off_c, 8, 31, 0
10, 17748, Note_on_c, 8, 33, 100
10, 17760, Note_off_c, 8, 33, 0
10, 17772, Note_on_c, 8, 33, 100
10, 17784, Note_off_c, 8, 33, 0
10, 17796, Note_on_c, 8, 31, 100
10, 17808, Note_off_c, 8, 31, 0
10, 17808, Note_on_c, 8, 33, 100
10, 17820, Note_off_c, 8, 33, 0
10, 17832, Note_on_c, 8, 31, 100
10, 17844, Note_off_c, 8, 31, 0
10, 17856, Note_on_c, 8, 29, 100
10, 17928, Note_off_c, 8, 29, 0
10, 17928, Note_on_c, 8, 36, 100
10, 18000, Note_off_c, 8, 36, 0
10, 18000, Note_on_c, 8, 35, 100
10, 18048, Note_off_c, 8, 35, 0
10, 18048, Note_on_c, 8, 33, 100
10, 18240, Note_off_c, 8, 33, 0
10, 18240, End_track
11, 0, Start_track
11, 0, Title_t, "Track 10\000"
11, 0, Program_c, 9, 0
11, 0, Control_c, 9, 7, 127
11, 0, Control_c, 9, 91, 110
11, 0, Control_c, 9, 93, 91
11, 192, Note_on_c, 9, 54, 127
11, 204, Note_on_c, 9, 54, 87
11, 216, Note_on_c, 9, 54, 107
11, 228, Note_on_c, 9, 54, 87
11, 240, Note_off_c, 9, 54, 0
11, 240, Note_on_c, 9, 54, 127
11, 252, Note_off_c, 9, 54, 0
11, 252, Note_on_c, 9, 54, 87
11, 264, Note_off_c, 9, 54, 0
11, 264, Note_on_c, 9, 54, 107
11, 276, Note_off_c, 9, 54, 0
11, 276, Note_on_c, 9, 54, 87
11, 288, Note_off_c, 9, 54, 0
11, 288, Note_on_c, 9, 54, 127
11, 300, Note_off_c, 9, 54, 0
11, 300, Note_on_c, 9, 54, 87
11, 312, Note_off_c, 9, 54, 0
11, 312, Note_on_c, 9, 54, 107
11, 324, Note_off_c, 9, 54, 0
11, 324, Note_on_c, 9, 54, 87
11, 336, Note_off_c, 9, 54, 0
11, 336, Note_on_c, 9, 54, 127
11, 348, Note_off_c, 9, 54, 0
11, 348, Note_on_c, 9, 54, 87
11, 360, Note_off_c, 9, 54, 0
11, 360, Note_on_c, 9, 54, 107
11, 372, Note_off_c, 9, 54, 0
11, 372, Note_on_c, 9, 54, 87
11, 384, Note_off_c, 9, 54, 0
11, 384, Note_on_c, 9, 54, 127
11, 396, Note_off_c, 9, 54, 0
11, 396, Note_on_c, 9, 54, 87
11, 408, Note_off_c, 9, 54, 0
11, 408, Note_on_c, 9, 54, 107
11, 420, Note_off_c, 9, 54, 0
11, 420, Note_on_c, 9, 54, 87
11, 432, Note_off_c, 9, 54, 0
11, 432, Note_on_c, 9, 54, 127
11, 444, Note_off_c, 9, 54, 0
11, 444, Note_on_c, 9, 54, 87
11, 456, Note_off_c, 9, 54, 0
11, 456, Note_on_c, 9, 54, 107
11, 468, Note_off_c, 9, 54, 0
11, 468, Note_on_c, 9, 54, 87
11, 480, Note_off_c, 9, 54, 0
11, 480, Note_on_c, 9, 54, 127
11, 492, Note_off_c, 9, 54, 0
11, 492, Note_on_c, 9, 54, 87
11, 504, Note_off_c, 9, 54, 0
11, 504, Note_on_c, 9, 54, 107
11, 516, Note_off_c, 9, 54, 0
11, 516, Note_on_c, 9, 54, 87
11, 528, Note_off_c, 9, 54, 0
11, 528, Note_on_c, 9, 54, 127
11, 540, Note_off_c, 9, 54, 0
11, 540, Note_on_c, 9, 54, 87
11, 552, Note_off_c, 9, 54, 0
11, 552, Note_on_c, 9, 54, 107
11, 564, Note_off_c, 9, 54, 0
11, 564, Note_on_c, 9, 54, 87
11, 576, Note_off_c, 9, 54, 0
11, 576, Note_on_c, 9, 54, 127
11, 588, Note_off_c, 9, 54, 0
11, 588, Note_on_c, 9, 54, 87
11, 600, Note_off_c, 9, 54, 0
11, 600, Note_on_c, 9, 54, 107
11, 612, Note_off_c, 9, 54, 0
11, 612, Note_on_c, 9, 54, 87
11, 624, Note_off_c, 9, 54, 0
11, 624, Note_on_c, 9, 54, 127
11, 636, Note_off_c, 9, 54, 0
11, 636, Note_on_c, 9, 54, 87
11, 648, Note_off_c, 9, 54, 0
11, 648, Note_on_c, 9, 54, 107
11, 660, Note_off_c, 9, 54, 0
11, 660, Note_on_c, 9, 54, 87
11, 672, Note_off_c, 9, 54, 0
11, 672, Note_on_c, 9, 54, 127
11, 684, Note_off_c, 9, 54, 0
11, 684, Note_on_c, 9, 54, 87
11, 696, Note_off_c, 9, 54, 0
11, 696, Note_on_c, 9, 54, 107
11, 708, Note_off_c, 9, 54, 0
11, 708, Note_on_c, 9, 54, 87
11, 720, Note_off_c, 9, 54, 0
11, 720, Note_on_c, 9, 54, 127
11, 732, Note_off_c, 9, 54, 0
11, 732, Note_on_c, 9, 54, 87
11, 744, Note_off_c, 9, 54, 0
11, 744, Note_on_c, 9, 54, 107
11, 756, Note_off_c, 9, 54, 0
11, 756, Note_on_c, 9, 54, 87
11, 768, Note_off_c, 9, 54, 0
11, 768, Note_on_c, 9, 54, 127
11, 780, Note_off_c, 9, 54, 0
11, 780, Note_on_c, 9, 54, 87
11, 792, Note_off_c, 9, 54, 0
11, 792, Note_on_c, 9, 54, 107
11, 804, Note_off_c, 9, 54, 0
11, 804, Note_on_c, 9, 54, 87
11, 816, Note_off_c, 9, 54, 0
11, 816, Note_on_c, 9, 54, 127
11, 828, Note_off_c, 9, 54, 0
11, 828, Note_on_c, 9, 54, 87
11, 840, Note_off_c, 9, 54, 0
11, 840, Note_on_c, 9, 54, 107
11, 852, Note_off_c, 9, 54, 0
11, 852, Note_on_c, 9, 54, 87
11, 864, Note_off_c, 9, 54, 0
11, 864, Note_on_c, 9, 54, 127
11, 876, Note_off_c, 9, 54, 0
11, 876, Note_on_c, 9, 54, 87
11, 888, Note_off_c, 9, 54, 0
11, 888, Note_on_c, 9, 54, 107
11, 900, Note_off_c, 9, 54, 0
11, 900, Note_on_c, 9, 54, 87
11, 912, Note_off_c, 9, 54, 0
11, 912, Note_on_c, 9, 54, 127
11, 924, Note_off_c, 9, 54, 0
11, 924, Note_on_c, 9, 54, 87
11, 936, Note_off_c, 9, 54, 0
11, 936, Note_on_c, 9, 54, 107
11, 948, Note_off_c, 9, 54, 0
11, 948, Note_on_c, 9, 54, 87
11, 960, Note_off_c, 9, 54, 0
11, 960, Note_on_c, 9, 54, 127
11, 972, Note_off_c, 9, 54, 0
11, 972, Note_on_c, 9, 54, 87
11, 984, Note_off_c, 9, 54, 0
11, 984, Note_on_c, 9, 54, 107
11, 996, Note_off_c, 9, 54, 0
11, 996, Note_on_c, 9, 54, 87
11, 1008, Note_off_c, 9, 54, 0
11, 1008, Note_on_c, 9, 54, 127
11, 1020, Note_off_c, 9, 54, 0
11, 1020, Note_on_c, 9, 54, 87
11, 1032, Note_off_c, 9, 54, 0
11, 1032, Note_on_c, 9, 54, 107
11, 1044, Note_off_c, 9, 54, 0
11, 1044, Note_on_c, 9, 54, 87
11, 1056, Note_off_c, 9, 54, 0
11, 1056, Note_on_c, 9, 54, 127
11, 1068, Note_off_c, 9, 54, 0
11, 1068, Note_on_c, 9, 54, 87
11, 1080, Note_off_c, 9, 54, 0
11, 1080, Note_on_c, 9, 54, 107
11, 1092, Note_off_c, 9, 54, 0
11, 1092, Note_on_c, 9, 38, 127
11, 1092, Note_on_c, 9, 39, 127
11, 1092, Note_on_c, 9, 54, 87
11, 1104, Note_off_c, 9, 54, 0
11, 1104, Note_on_c, 9, 38, 127
11, 1104, Note_on_c, 9, 39, 127
11, 1104, Note_on_c, 9, 54, 127
11, 1116, Note_off_c, 9, 54, 0
11, 1116, Note_on_c, 9, 38, 127
11, 1116, Note_on_c, 9, 39, 127
11, 1116, Note_on_c, 9, 54, 87
11, 1128, Note_off_c, 9, 54, 0
11, 1128, Note_on_c, 9, 35, 127
11, 1128, Note_on_c, 9, 36, 127
11, 1128, Note_on_c, 9, 41, 127
11, 1128, Note_on_c, 9, 54, 107
11, 1140, Note_off_c, 9, 38, 0
11, 1140, Note_off_c, 9, 39, 0
11, 1140, Note_off_c, 9, 54, 0
11, 1140, Note_on_c, 9, 38, 127
11, 1140, Note_on_c, 9, 39, 127
11, 1140, Note_on_c, 9, 54, 87
11, 1152, Note_off_c, 9, 38, 0
11, 1152, Note_off_c, 9, 39, 0
11, 1152, Note_off_c, 9, 54, 0
11, 1152, Note_on_c, 9, 35, 127
11, 1152, Note_on_c, 9, 36, 127
11, 1152, Note_on_c, 9, 39, 127
11, 1152, Note_on_c, 9, 41, 127
11, 1152, Note_on_c, 9, 42, 127
11, 1152, Note_on_c, 9, 49, 127
11, 1152, Note_on_c, 9, 54, 127
11, 1152, Note_on_c, 9, 55, 127
11, 1164, Note_off_c, 9, 38, 0
11, 1164, Note_off_c, 9, 39, 0
11, 1164, Note_off_c, 9, 54, 0
11, 1164, Note_on_c, 9, 54, 87
11, 1176, Note_off_c, 9, 35, 0
11, 1176, Note_off_c, 9, 36, 0
11, 1176, Note_off_c, 9, 41, 0
11, 1176, Note_off_c, 9, 54, 0
11, 1176, Note_on_c, 9, 39, 127
11, 1176, Note_on_c, 9, 42, 127
11, 1176, Note_on_c, 9, 54, 107
11, 1188, Note_off_c, 9, 38, 0
11, 1188, Note_off_c, 9, 39, 0
11, 1188, Note_off_c, 9, 54, 0
11, 1188, Note_on_c, 9, 35, 127
11, 1188, Note_on_c, 9, 54, 87
11, 1200, Note_off_c, 9, 35, 0
11, 1200, Note_off_c, 9, 36, 0
11, 1200, Note_off_c, 9, 39, 0
11, 1200, Note_off_c, 9, 41, 0
11, 1200, Note_off_c, 9, 42, 0
11, 1200, Note_off_c, 9, 49, 0
11, 1200, Note_off_c, 9, 54, 0
11, 1200, Note_off_c, 9, 55, 0
11, 1200, Note_on_c, 9, 38, 127
11, 1200, Note_on_c, 9, 39, 127
11, 1200, Note_on_c, 9, 42, 127
11, 1200, Note_on_c, 9, 54, 127
11, 1212, Note_off_c, 9, 54, 0
11, 1212, Note_on_c, 9, 54, 87
11, 1224, Note_off_c, 9, 39, 0
11, 1224, Note_off_c, 9, 42, 0
11, 1224, Note_off_c, 9, 54, 0
11, 1224, Note_on_c, 9, 38, 127
11, 1224, Note_on_c, 9, 39, 127
11, 1224, Note_on_c, 9, 42, 127
11, 1224, Note_on_c, 9, 54, 107
11, 1236, Note_off_c, 9, 35, 0
11, 1236, Note_off_c, 9, 54, 0
11, 1236, Note_on_c, 9, 35, 127
11, 1236, Note_on_c, 9, 54, 87
11, 1248, Note_off_c, 9, 38, 0
11, 1248, Note_off_c, 9, 39, 0
11, 1248, Note_off_c, 9, 42, 0
11, 1248, Note_off_c, 9, 54, 0
11, 1248, Note_on_c, 9, 39, 127
11, 1248, Note_on_c, 9, 42, 127
11, 1248, Note_on_c, 9, 54, 127
11, 1260, Note_off_c, 9, 54, 0
11, 1260, Note_on_c, 9, 35, 127
11, 1260, Note_on_c, 9, 54, 87
11, 1272, Note_off_c, 9, 38, 0
11, 1272, Note_off_c, 9, 39, 0
11, 1272, Note_off_c, 9, 42, 0
11, 1272, Note_off_c, 9, 54, 0
11, 1272, Note_on_c, 9, 39, 127
11, 1272, Note_on_c, 9, 42, 127
11, 1272, Note_on_c, 9, 54, 107
11, 1284, Note_off_c, 9, 35, 0
11, 1284, Note_off_c, 9, 54, 0
11, 1284, Note_on_c, 9, 35, 127
11, 1284, Note_on_c, 9, 54, 87
11, 1296, Note_off_c, 9, 39, 0
11, 1296, Note_off_c, 9, 42, 0
11, 1296, Note_off_c, 9, 54, 0
11, 1296, Note_on_c, 9, 38, 127
11, 1296, Note_on_c, 9, 39, 127
11, 1296, Note_on_c, 9, 42, 127
11, 1296, Note_on_c, 9, 54, 127
11, 1308, Note_off_c, 9, 35, 0
11, 1308, Note_off_c, 9, 54, 0
11, 1308, Note_on_c, 9, 54, 87
11, 1320, Note_off_c, 9, 39, 0
11, 1320, Note_off_c, 9, 42, 0
11, 1320, Note_off_c, 9, 54, 0
11, 1320, Note_on_c, 9, 38, 127
11, 1320, Note_on_c, 9, 39, 127
11, 1320, Note_on_c, 9, 46, 127
11, 1320, Note_on_c, 9, 49, 127
11, 1320, Note_on_c, 9, 54, 107
11, 1332, Note_off_c, 9, 35, 0
11, 1332, Note_off_c, 9, 54, 0
11, 1332, Note_on_c, 9, 54, 87
11, 1344, Note_off_c, 9, 38, 0
11, 1344, Note_off_c, 9, 39, 0
11, 1344, Note_off_c, 9, 42, 0
11, 1344, Note_off_c, 9, 54, 0
11, 1344, Note_on_c, 9, 35, 127
11, 1344, Note_on_c, 9, 39, 127
11, 1344, Note_on_c, 9, 42, 127
11, 1344, Note_on_c, 9, 54, 127
11, 1356, Note_off_c, 9, 54, 0
11, 1356, Note_on_c, 9, 54, 87
11, 1368, Note_off_c, 9, 38, 0
11, 1368, Note_off_c, 9, 39, 0
11, 1368, Note_off_c, 9, 46, 0
11, 1368, Note_off_c, 9, 49, 0
11, 1368, Note_off_c, 9, 54, 0
11, 1368, Note_on_c, 9, 39, 127
11, 1368, Note_on_c, 9, 42, 127
11, 1368, Note_on_c, 9, 54, 107
11, 1380, Note_off_c, 9, 54, 0
11, 1380, Note_on_c, 9, 35, 127
11, 1380, Note_on_c, 9, 54, 87
11, 1392, Note_off_c, 9, 35, 0
11, 1392, Note_off_c, 9, 39, 0
11, 1392, Note_off_c, 9, 42, 0
11, 1392, Note_off_c, 9, 54, 0
11, 1392, Note_on_c, 9, 38, 127
11, 1392, Note_on_c, 9, 39, 127
11, 1392, Note_on_c, 9, 42, 127
11, 1392, Note_on_c, 9, 54, 127
11, 1404, Note_off_c, 9, 54, 0
11, 1404, Note_on_c, 9, 54, 87
11, 1416, Note_off_c, 9, 39, 0
11, 1416, Note_off_c, 9, 42, 0
11, 1416, Note_off_c, 9, 54, 0
11, 1416, Note_on_c, 9, 38, 127
11, 1416, Note_on_c, 9, 39, 127
11, 1416, Note_on_c, 9, 42, 127
11, 1416, Note_on_c, 9, 54, 107
11, 1428, Note_off_c, 9, 35, 0
11, 1428, Note_off_c, 9, 54, 0
11, 1428, Note_on_c, 9, 35, 127
11, 1428, Note_on_c, 9, 54, 87
11, 1440, Note_off_c, 9, 38, 0
11, 1440, Note_off_c, 9, 39, 0
11, 1440, Note_off_c, 9, 42, 0
11, 1440, Note_off_c, 9, 54, 0
11, 1440, Note_on_c, 9, 39, 127
11, 1440, Note_on_c, 9, 42, 127
11, 1440, Note_on_c, 9, 54, 127
11, 1452, Note_off_c, 9, 54, 0
11, 1452, Note_on_c, 9, 35, 127
11, 1452, Note_on_c, 9, 54, 87
11, 1464, Note_off_c, 9, 38, 0
11, 1464, Note_off_c, 9, 39, 0
11, 1464, Note_off_c, 9, 42, 0
11, 1464, Note_off_c, 9, 54, 0
11, 1464, Note_on_c, 9, 39, 127
11, 1464, Note_on_c, 9, 42, 127
11, 1464, Note_on_c, 9, 54, 107
11, 1476, Note_off_c, 9, 35, 0
11, 1476, Note_off_c, 9, 54, 0
11, 1476, Note_on_c, 9, 35, 127
11, 1476, Note_on_c, 9, 54, 87
11, 1488, Note_off_c, 9, 39, 0
11, 1488, Note_off_c, 9, 42, 0
11, 1488, Note_off_c, 9, 54, 0
11, 1488, Note_on_c, 9, 39, 127
11, 1488, Note_on_c, 9, 42, 127
11, 1488, Note_on_c, 9, 54, 127
11, 1500, Note_off_c, 9, 35, 0
11, 1500, Note_off_c, 9, 54, 0
11, 1500, Note_on_c, 9, 38, 127
11, 1500, Note_on_c, 9, 54, 87
11, 1512, Note_off_c, 9, 39, 0
11, 1512, Note_off_c, 9, 42, 0
11, 1512, Note_off_c, 9, 54, 0
11, 1512, Note_on_c, 9, 38, 127
11, 1512, Note_on_c, 9, 42, 127
11, 1512, Note_on_c, 9, 54, 107
11, 1524, Note_off_c, 9, 35, 0
11, 1524, Note_off_c, 9, 54, 0
11, 1524, Note_on_c, 9, 38, 127
11, 1524, Note_on_c, 9, 54, 87
11, 1536, Note_off_c, 9, 39, 0
11, 1536, Note_off_c, 9, 42, 0
11, 1536, Note_off_c, 9, 54, 0
11, 1536, Note_on_c, 9, 35, 127
11, 1536, Note_on_c, 9, 39, 127
11, 1536, Note_on_c, 9, 42, 127
11, 1536, Note_on_c, 9, 46, 127
11, 1536, Note_on_c, 9, 49, 127
11, 1536, Note_on_c, 9, 54, 87
11, 1536, Note_on_c, 9, 55, 127
11, 1548, Note_off_c, 9, 38, 0
11, 1548, Note_off_c, 9, 54, 0
11, 1548, Note_on_c, 9, 54, 107
11, 1560, Note_off_c, 9, 38, 0
11, 1560, Note_off_c, 9, 42, 0
11, 1560, Note_off_c, 9, 54, 0
11, 1560, Note_on_c, 9, 35, 127
11, 1560, Note_on_c, 9, 39, 127
11, 1560, Note_on_c, 9, 42, 127
11, 1560, Note_on_c, 9, 54, 87
11, 1572, Note_off_c, 9, 38, 0
11, 1572, Note_off_c, 9, 54, 0
11, 1572, Note_on_c, 9, 35, 127
11, 1572, Note_on_c, 9, 54, 127
11, 1584, Note_off_c, 9, 35, 0
11, 1584, Note_off_c, 9, 39, 0
11, 1584, Note_off_c, 9, 42, 0
11, 1584, Note_off_c, 9, 46, 0
11, 1584, Note_off_c, 9, 49, 0
11, 1584, Note_off_c, 9, 54, 0
11, 1584, Note_off_c, 9, 55, 0
11, 1584, Note_on_c, 9, 38, 127
11, 1584, Note_on_c, 9, 39, 127
11, 1584, Note_on_c, 9, 42, 127
11, 1584, Note_on_c, 9, 54, 87
11, 1596, Note_off_c, 9, 54, 0
11, 1596, Note_on_c, 9, 54, 107
11, 1608, Note_off_c, 9, 35, 0
11, 1608, Note_off_c, 9, 39, 0
11, 1608, Note_off_c, 9, 42, 0
11, 1608, Note_off_c, 9, 54, 0
11, 1608, Note_on_c, 9, 38, 127
11, 1608, Note_on_c, 9, 39, 127
11, 1608, Note_on_c, 9, 42, 127
11, 1608, Note_on_c, 9, 54, 87
11, 1620, Note_off_c, 9, 35, 0
11, 1620, Note_off_c, 9, 54, 0
11, 1620, Note_on_c, 9, 35, 127
11, 1620, Note_on_c, 9, 54, 127
11, 1632, Note_off_c, 9, 38, 0
11, 1632, Note_off_c, 9, 39, 0
11, 1632, Note_off_c, 9, 42, 0
11, 1632, Note_off_c, 9, 54, 0
11, 1632, Note_on_c, 9, 35, 127
11, 1632, Note_on_c, 9, 39, 127
11, 1632, Note_on_c, 9, 42, 127
11, 1632, Note_on_c, 9, 54, 87
11, 1644, Note_off_c, 9, 54, 0
11, 1644, Note_on_c, 9, 44, 127
11, 1644, Note_on_c, 9, 54, 107
11, 1656, Note_off_c, 9, 38, 0
11, 1656, Note_off_c, 9, 39, 0
11, 1656, Note_off_c, 9, 42, 0
11, 1656, Note_off_c, 9, 54, 0
11, 1656, Note_on_c, 9, 39, 127
11, 1656, Note_on_c, 9, 46, 127
11, 1656, Note_on_c, 9, 49, 127
11, 1656, Note_on_c, 9, 54, 127
11, 1656, Note_on_c, 9, 54, 87
11, 1668, Note_off_c, 9, 35, 0
11, 1668, Note_off_c, 9, 54, 0
11, 1668, Note_on_c, 9, 35, 127
11, 1668, Note_on_c, 9, 54, 127
11, 1680, Note_off_c, 9, 35, 0
11, 1680, Note_off_c, 9, 39, 0
11, 1680, Note_off_c, 9, 42, 0
11, 1680, Note_off_c, 9, 54, 0
11, 1680, Note_on_c, 9, 38, 127
11, 1680, Note_on_c, 9, 39, 127
11, 1680, Note_on_c, 9, 54, 87
11, 1692, Note_off_c, 9, 44, 0
11, 1692, Note_off_c, 9, 54, 0
11, 1692, Note_on_c, 9, 38, 127
11, 1692, Note_on_c, 9, 44, 127
11, 1692, Note_on_c, 9, 54, 107
11, 1704, Note_off_c, 9, 39, 0
11, 1704, Note_off_c, 9, 46, 0
11, 1704, Note_off_c, 9, 49, 0
11, 1704, Note_off_c, 9, 54, 0
11, 1704, Note_off_c, 9, 54, 0
11, 1704, Note_on_c, 9, 39, 127
11, 1704, Note_on_c, 9, 46, 127
11, 1704, Note_on_c, 9, 49, 127
11, 1704, Note_on_c, 9, 54, 127
11, 1704, Note_on_c, 9, 54, 87
11, 1716, Note_off_c, 9, 35, 0
11, 1716, Note_off_c, 9, 54, 0
11, 1716, Note_on_c, 9, 38, 127
11, 1716, Note_on_c, 9, 54, 127
11, 1728, Note_off_c, 9, 38, 0
11, 1728, Note_off_c, 9, 39, 0
11, 1728, Note_off_c, 9, 54, 0
11, 1728, Note_on_c, 9, 35, 127
11, 1728, Note_on_c, 9, 42, 127
11, 1728, Note_on_c, 9, 54, 87
11, 1740, Note_off_c, 9, 38, 0
11, 1740, Note_off_c, 9, 44, 0
11, 1740, Note_off_c, 9, 54, 0
11, 1740, Note_on_c, 9, 54, 107
11, 1752, Note_off_c, 9, 39, 0
11, 1752, Note_off_c, 9, 46, 0
11, 1752, Note_off_c, 9, 49, 0
11, 1752, Note_off_c, 9, 54, 0
11, 1752, Note_off_c, 9, 54, 0
11, 1752, Note_on_c, 9, 39, 127
11, 1752, Note_on_c, 9, 42, 127
11, 1752, Note_on_c, 9, 54, 87
11, 1764, Note_off_c, 9, 38, 0
11, 1764, Note_off_c, 9, 54, 0
11, 1764, Note_on_c, 9, 35, 127
11, 1764, Note_on_c, 9, 54, 127
11, 1776, Note_off_c, 9, 35, 0
11, 1776, Note_off_c, 9, 42, 0
11, 1776, Note_off_c, 9, 54, 0
11, 1776, Note_on_c, 9, 38, 127
11, 1776, Note_on_c, 9, 39, 127
11, 1776, Note_on_c, 9, 42, 127
11, 1776, Note_on_c, 9, 54, 87
11, 1788, Note_off_c, 9, 54, 0
11, 1788, Note_on_c, 9, 54, 127
11, 1788, Note_on_c, 9, 54, 107
11, 1800, Note_off_c, 9, 39, 0
11, 1800, Note_off_c, 9, 42, 0
11, 1800, Note_off_c, 9, 54, 0
11, 1800, Note_on_c, 9, 38, 127
11, 1800, Note_on_c, 9, 39, 127
11, 1800, Note_on_c, 9, 42, 127
11, 1800, Note_on_c, 9, 54, 127
11, 1800, Note_on_c, 9, 54, 87
11, 1812, Note_off_c, 9, 35, 0
11, 1812, Note_off_c, 9, 54, 0
11, 1812, Note_on_c, 9, 35, 127
11, 1812, Note_on_c, 9, 54, 127
11, 1824, Note_off_c, 9, 38, 0
11, 1824, Note_off_c, 9, 39, 0
11, 1824, Note_off_c, 9, 42, 0
11, 1824, Note_off_c, 9, 54, 0
11, 1824, Note_on_c, 9, 39, 127
11, 1824, Note_on_c, 9, 42, 127
11, 1824, Note_on_c, 9, 54, 87
11, 1836, Note_off_c, 9, 54, 0
11, 1836, Note_off_c, 9, 54, 0
11, 1836, Note_on_c, 9, 35, 127
11, 1836, Note_on_c, 9, 54, 107
11, 1848, Note_off_c, 9, 38, 0
11, 1848, Note_off_c, 9, 39, 0
11, 1848, Note_off_c, 9, 42, 0
11, 1848, Note_off_c, 9, 54, 0
11, 1848, Note_off_c, 9, 54, 0
11, 1848, Note_on_c, 9, 39, 127
11, 1848, Note_on_c, 9, 42, 127
11, 1848, Note_on_c, 9, 54, 87
11, 1860, Note_off_c, 9, 35, 0
11, 1860, Note_off_c, 9, 54, 0
11, 1860, Note_on_c, 9, 35, 127
11, 1860, Note_on_c, 9, 54, 127
11, 1860, Note_on_c, 9, 54, 127
11, 1872, Note_off_c, 9, 39, 0
11, 1872, Note_off_c, 9, 42, 0
11, 1872, Note_off_c, 9, 54, 0
11, 1872, Note_on_c, 9, 38, 127
11, 1872, Note_on_c, 9, 39, 127
11, 1872, Note_on_c, 9, 42, 127
11, 1872, Note_on_c, 9, 54, 127
11, 1872, Note_on_c, 9, 54, 87
11, 1884, Note_off_c, 9, 35, 0
11, 1884, Note_off_c, 9, 54, 0
11, 1884, Note_on_c, 9, 54, 107
11, 1896, Note_off_c, 9, 39, 0
11, 1896, Note_off_c, 9, 42, 0
11, 1896, Note_off_c, 9, 54, 0
11, 1896, Note_on_c, 9, 38, 127
11, 1896, Note_on_c, 9, 39, 127
11, 1896, Note_on_c, 9, 46, 127
11, 1896, Note_on_c, 9, 49, 127
11, 1896, Note_on_c, 9, 54, 87
11, 1908, Note_off_c, 9, 35, 0
11, 1908, Note_off_c, 9, 54, 0
11, 1908, Note_off_c, 9, 54, 0
11, 1908, Note_on_c, 9, 54, 127
11, 1920, Note_off_c, 9, 38, 0
11, 1920, Note_off_c, 9, 39, 0
11, 1920, Note_off_c, 9, 42, 0
11, 1920, Note_off_c, 9, 54, 0
11, 1920, Note_off_c, 9, 54, 0
11, 1920, Note_on_c, 9, 35, 127
11, 1920, Note_on_c, 9, 42, 127
11, 1920, Note_on_c, 9, 54, 127
11, 1932, Note_off_c, 9, 54, 0
11, 1932, Note_on_c, 9, 54, 87
11, 1944, Note_off_c, 9, 38, 0
11, 1944, Note_off_c, 9, 39, 0
11, 1944, Note_off_c, 9, 46, 0
11, 1944, Note_off_c, 9, 49, 0
11, 1944, Note_off_c, 9, 54, 0
11, 1944, Note_on_c, 9, 39, 127
11, 1944, Note_on_c, 9, 42, 127
11, 1944, Note_on_c, 9, 54, 107
11, 1956, Note_off_c, 9, 54, 0
11, 1956, Note_on_c, 9, 35, 127
11, 1956, Note_on_c, 9, 54, 87
11, 1968, Note_off_c, 9, 35, 0
11, 1968, Note_off_c, 9, 42, 0
11, 1968, Note_off_c, 9, 54, 0
11, 1968, Note_on_c, 9, 38, 127
11, 1968, Note_on_c, 9, 39, 127
11, 1968, Note_on_c, 9, 42, 127
11, 1968, Note_on_c, 9, 54, 127
11, 1980, Note_off_c, 9, 54, 0
11, 1980, Note_on_c, 9, 54, 87
11, 1992, Note_off_c, 9, 39, 0
11, 1992, Note_off_c, 9, 42, 0
11, 1992, Note_off_c, 9, 54, 0
11, 1992, Note_on_c, 9, 38, 127
11, 1992, Note_on_c, 9, 39, 127
11, 1992, Note_on_c, 9, 42, 127
11, 1992, Note_on_c, 9, 54, 107
11, 2004, Note_off_c, 9, 35, 0
11, 2004, Note_off_c, 9, 54, 0
11, 2004, Note_on_c, 9, 35, 127
11, 2004, Note_on_c, 9, 54, 87
11, 2016, Note_off_c, 9, 38, 0
11, 2016, Note_off_c, 9, 39, 0
11, 2016, Note_off_c, 9, 42, 0
11, 2016, Note_off_c, 9, 54, 0
11, 2016, Note_on_c, 9, 39, 127
11, 2016, Note_on_c, 9, 42, 127
11, 2016, Note_on_c, 9, 54, 127
11, 2028, Note_off_c, 9, 54, 0
11, 2028, Note_on_c, 9, 35, 127
11, 2028, Note_on_c, 9, 54, 87
11, 2040, Note_off_c, 9, 38, 0
11, 2040, Note_off_c, 9, 39, 0
11, 2040, Note_off_c, 9, 42, 0
11, 2040, Note_off_c, 9, 54, 0
11, 2040, Note_on_c, 9, 39, 127
11, 2040, Note_on_c, 9, 42, 127
11, 2040, Note_on_c, 9, 54, 107
11, 2052, Note_off_c, 9, 35, 0
11, 2052, Note_off_c, 9, 54, 0
11, 2052, Note_on_c, 9, 35, 127
11, 2052, Note_on_c, 9, 54, 87
11, 2064, Note_off_c, 9, 39, 0
11, 2064, Note_off_c, 9, 42, 0
11, 2064, Note_off_c, 9, 54, 0
11, 2064, Note_on_c, 9, 38, 127
11, 2064, Note_on_c, 9, 39, 127
11, 2064, Note_on_c, 9, 42, 127
11, 2064, Note_on_c, 9, 54, 127
11, 2076, Note_off_c, 9, 35, 0
11, 2076, Note_off_c, 9, 54, 0
11, 2076, Note_on_c, 9, 54, 87
11, 2088, Note_off_c, 9, 39, 0
11, 2088, Note_off_c, 9, 42, 0
11, 2088, Note_off_c, 9, 54, 0
11, 2088, Note_on_c, 9, 38, 127
11, 2088, Note_on_c, 9, 39, 127
11, 2088, Note_on_c, 9, 46, 127
11, 2088, Note_on_c, 9, 54, 107
11, 2100, Note_off_c, 9, 35, 0
11, 2100, Note_off_c, 9, 54, 0
11, 2100, Note_on_c, 9, 54, 87
11, 2112, Note_off_c, 9, 38, 0
11, 2112, Note_off_c, 9, 39, 0
11, 2112, Note_off_c, 9, 42, 0
11, 2112, Note_off_c, 9, 54, 0
11, 2112, Note_on_c, 9, 35, 127
11, 2112, Note_on_c, 9, 42, 127
11, 2112, Note_on_c, 9, 54, 127
11, 2124, Note_off_c, 9, 54, 0
11, 2124, Note_on_c, 9, 54, 87
11, 2136, Note_off_c, 9, 38, 0
11, 2136, Note_off_c, 9, 39, 0
11, 2136, Note_off_c, 9, 46, 0
11, 2136, Note_off_c, 9, 54, 0
11, 2136, Note_on_c, 9, 39, 127
11, 2136, Note_on_c, 9, 42, 127
11, 2136, Note_on_c, 9, 54, 107
11, 2148, Note_off_c, 9, 54, 0
11, 2148, Note_on_c, 9, 35, 127
11, 2148, Note_on_c, 9, 54, 87
11, 2160, Note_off_c, 9, 35, 0
11, 2160, Note_off_c, 9, 42, 0
11, 2160, Note_off_c, 9, 54, 0
11, 2160, Note_on_c, 9, 38, 127
11, 2160, Note_on_c, 9, 39, 127
11, 2160, Note_on_c, 9, 42, 127
11, 2160, Note_on_c, 9, 54, 127
11, 2172, Note_off_c, 9, 54, 0
11, 2172, Note_on_c, 9, 54, 87
11, 2184, Note_off_c, 9, 39, 0
11, 2184, Note_off_c, 9, 42, 0
11, 2184, Note_off_c, 9, 54, 0
11, 2184, Note_on_c, 9, 38, 127
11, 2184, Note_on_c, 9, 39, 127
11, 2184, Note_on_c, 9, 42, 127
11, 2184, Note_on_c, 9, 54, 107
11, 2196, Note_off_c, 9, 35, 0
11, 2196, Note_off_c, 9, 54, 0
11, 2196, Note_on_c, 9, 35, 127
11, 2196, Note_on_c, 9, 54, 87
11, 2208, Note_off_c, 9, 38, 0
11, 2208, Note_off_c, 9, 39, 0
11, 2208, Note_off_c, 9, 42, 0
11, 2208, Note_off_c, 9, 54, 0
11, 2208, Note_on_c, 9, 39, 127
11, 2208, Note_on_c, 9, 42, 127
11, 2208, Note_on_c, 9, 54, 127
11, 2220, Note_off_c, 9, 54, 0
11, 2220, Note_on_c, 9, 35, 127
11, 2220, Note_on_c, 9, 54, 87
11, 2232, Note_off_c, 9, 38, 0
11, 2232, Note_off_c, 9, 39, 0
11, 2232, Note_off_c, 9, 42, 0
11, 2232, Note_off_c, 9, 54, 0
11, 2232, Note_on_c, 9, 39, 127
11, 2232, Note_on_c, 9, 42, 127
11, 2232, Note_on_c, 9, 54, 107
11, 2244, Note_off_c, 9, 35, 0
11, 2244, Note_off_c, 9, 54, 0
11, 2244, Note_on_c, 9, 35, 127
11, 2244, Note_on_c, 9, 54, 87
11, 2256, Note_off_c, 9, 39, 0
11, 2256, Note_off_c, 9, 42, 0
11, 2256, Note_off_c, 9, 54, 0
11, 2256, Note_on_c, 9, 38, 127
11, 2256, Note_on_c, 9, 39, 127
11, 2256, Note_on_c, 9, 42, 127
11, 2256, Note_on_c, 9, 54, 127
11, 2268, Note_off_c, 9, 35, 0
11, 2268, Note_off_c, 9, 54, 0
11, 2268, Note_on_c, 9, 54, 87
11, 2280, Note_off_c, 9, 39, 0
11, 2280, Note_off_c, 9, 42, 0
11, 2280, Note_off_c, 9, 54, 0
11, 2280, Note_on_c, 9, 38, 127
11, 2280, Note_on_c, 9, 39, 127
11, 2280, Note_on_c, 9, 46, 127
11, 2280, Note_on_c, 9, 54, 107
11, 2292, Note_off_c, 9, 35, 0
11, 2292, Note_off_c, 9, 54, 0
11, 2292, Note_on_c, 9, 54, 87
11, 2304, Note_off_c, 9, 38, 0
11, 2304, Note_off_c, 9, 39, 0
11, 2304, Note_off_c, 9, 42, 0
11, 2304, Note_off_c, 9, 54, 0
11, 2304, Note_on_c, 9, 35, 127
11, 2304, Note_on_c, 9, 42, 127
11, 2304, Note_on_c, 9, 54, 127
11, 2316, Note_off_c, 9, 54, 0
11, 2316, Note_on_c, 9, 54, 87
11, 2328, Note_off_c, 9, 38, 0
11, 2328, Note_off_c, 9, 39, 0
11, 2328, Note_off_c, 9, 46, 0
11, 2328, Note_off_c, 9, 54, 0
11, 2328, Note_on_c, 9, 39, 127
11, 2328, Note_on_c, 9, 42, 127
11, 2328, Note_on_c, 9, 54, 107
11, 2340, Note_off_c, 9, 54, 0
11, 2340, Note_on_c, 9, 35, 127
11, 2340, Note_on_c, 9, 54, 87
11, 2352, Note_off_c, 9, 35, 0
11, 2352, Note_off_c, 9, 42, 0
11, 2352, Note_off_c, 9, 54, 0
11, 2352, Note_on_c, 9, 38, 127
11, 2352, Note_on_c, 9, 39, 127
11, 2352, Note_on_c, 9, 42, 127
11, 2352, Note_on_c, 9, 54, 127
11, 2364, Note_off_c, 9, 54, 0
11, 2364, Note_on_c, 9, 54, 87
11, 2376, Note_off_c, 9, 39, 0
11, 2376, Note_off_c, 9, 42, 0
11, 2376, Note_off_c, 9, 54, 0
11, 2376, Note_on_c, 9, 38, 127
11, 2376, Note_on_c, 9, 39, 127
11, 2376, Note_on_c, 9, 42, 127
11, 2376, Note_on_c, 9, 54, 107
11, 2388, Note_off_c, 9, 35, 0
11, 2388, Note_off_c, 9, 54, 0
11, 2388, Note_on_c, 9, 35, 127
11, 2388, Note_on_c, 9, 54, 87
11, 2400, Note_off_c, 9, 38, 0
11, 2400, Note_off_c, 9, 39, 0
11, 2400, Note_off_c, 9, 42, 0
11, 2400, Note_off_c, 9, 54, 0
11, 2400, Note_on_c, 9, 39, 127
11, 2400, Note_on_c, 9, 42, 127
11, 2400, Note_on_c, 9, 54, 127
11, 2412, Note_off_c, 9, 54, 0
11, 2412, Note_on_c, 9, 35, 127
11, 2412, Note_on_c, 9, 54, 87
11, 2424, Note_off_c, 9, 38, 0
11, 2424, Note_off_c, 9, 39, 0
11, 2424, Note_off_c, 9, 42, 0
11, 2424, Note_off_c, 9, 54, 0
11, 2424, Note_on_c, 9, 39, 127
11, 2424, Note_on_c, 9, 42, 127
11, 2424, Note_on_c, 9, 54, 107
11, 2436, Note_off_c, 9, 35, 0
11, 2436, Note_off_c, 9, 54, 0
11, 2436, Note_on_c, 9, 35, 127
11, 2436, Note_on_c, 9, 54, 87
11, 2448, Note_off_c, 9, 39, 0
11, 2448, Note_off_c, 9, 42, 0
11, 2448, Note_off_c, 9, 54, 0
11, 2448, Note_on_c, 9, 38, 127
11, 2448, Note_on_c, 9, 39, 127
11, 2448, Note_on_c, 9, 42, 127
11, 2448, Note_on_c, 9, 54, 127
11, 2460, Note_off_c, 9, 35, 0
11, 2460, Note_off_c, 9, 54, 0
11, 2460, Note_on_c, 9, 54, 87
11, 2472, Note_off_c, 9, 39, 0
11, 2472, Note_off_c, 9, 42, 0
11, 2472, Note_off_c, 9, 54, 0
11, 2472, Note_on_c, 9, 38, 127
11, 2472, Note_on_c, 9, 39, 127
11, 2472, Note_on_c, 9, 46, 127
11, 2472, Note_on_c, 9, 54, 107
11, 2484, Note_off_c, 9, 35, 0
11, 2484, Note_off_c, 9, 54, 0
11, 2484, Note_on_c, 9, 54, 87
11, 2496, Note_off_c, 9, 38, 0
11, 2496, Note_off_c, 9, 39, 0
11, 2496, Note_off_c, 9, 42, 0
11, 2496, Note_off_c, 9, 54, 0
11, 2496, Note_on_c, 9, 35, 127
11, 2496, Note_on_c, 9, 42, 127
11, 2496, Note_on_c, 9, 54, 127
11, 2508, Note_off_c, 9, 54, 0
11, 2508, Note_on_c, 9, 54, 87
11, 2520, Note_off_c, 9, 38, 0
11, 2520, Note_off_c, 9, 39, 0
11, 2520, Note_off_c, 9, 46, 0
11, 2520, Note_off_c, 9, 54, 0
11, 2520, Note_on_c, 9, 39, 127
11, 2520, Note_on_c, 9, 42, 127
11, 2520, Note_on_c, 9, 54, 107
11, 2532, Note_off_c, 9, 54, 0
11, 2532, Note_on_c, 9, 35, 127
11, 2532, Note_on_c, 9, 54, 87
11, 2544, Note_off_c, 9, 35, 0
11, 2544, Note_off_c, 9, 42, 0
11, 2544, Note_off_c, 9, 54, 0
11, 2544, Note_on_c, 9, 38, 127
11, 2544, Note_on_c, 9, 39, 127
11, 2544, Note_on_c, 9, 42, 127
11, 2544, Note_on_c, 9, 54, 127
11, 2556, Note_off_c, 9, 54, 0
11, 2556, Note_on_c, 9, 54, 87
11, 2568, Note_off_c, 9, 39, 0
11, 2568, Note_off_c, 9, 42, 0
11, 2568, Note_off_c, 9, 54, 0
11, 2568, Note_on_c, 9, 38, 127
11, 2568, Note_on_c, 9, 39, 127
11, 2568, Note_on_c, 9, 42, 127
11, 2568, Note_on_c, 9, 54, 107
11, 2580, Note_off_c, 9, 35, 0
11, 2580, Note_off_c, 9, 54, 0
11, 2580, Note_on_c, 9, 35, 127
11, 2580, Note_on_c, 9, 54, 87
11, 2592, Note_off_c, 9, 38, 0
11, 2592, Note_off_c, 9, 39, 0
11, 2592, Note_off_c, 9, 42, 0
11, 2592, Note_off_c, 9, 54, 0
11, 2592, Note_on_c, 9, 39, 127
11, 2592, Note_on_c, 9, 42, 127
11, 2592, Note_on_c, 9, 54, 127
11, 2604, Note_off_c, 9, 54, 0
11, 2604, Note_on_c, 9, 35, 127
11, 2604, Note_on_c, 9, 54, 87
11, 2616, Note_off_c, 9, 38, 0
11, 2616, Note_off_c, 9, 39, 0
11, 2616, Note_off_c, 9, 42, 0
11, 2616, Note_off_c, 9, 54, 0
11, 2616, Note_on_c, 9, 39, 127
11, 2616, Note_on_c, 9, 42, 127
11, 2616, Note_on_c, 9, 54, 107
11, 2628, Note_off_c, 9, 35, 0
11, 2628, Note_off_c, 9, 54, 0
11, 2628, Note_on_c, 9, 35, 127
11, 2628, Note_on_c, 9, 54, 87
11, 2640, Note_off_c, 9, 39, 0
11, 2640, Note_off_c, 9, 42, 0
11, 2640, Note_off_c, 9, 54, 0
11, 2640, Note_on_c, 9, 38, 127
11, 2640, Note_on_c, 9, 39, 127
11, 2640, Note_on_c, 9, 42, 127
11, 2640, Note_on_c, 9, 54, 127
11, 2652, Note_off_c, 9, 35, 0
11, 2652, Note_off_c, 9, 54, 0
11, 2652, Note_on_c, 9, 54, 87
11, 2664, Note_off_c, 9, 39, 0
11, 2664, Note_off_c, 9, 42, 0
11, 2664, Note_off_c, 9, 54, 0
11, 2664, Note_on_c, 9, 38, 127
11, 2664, Note_on_c, 9, 39, 127
11, 2664, Note_on_c, 9, 46, 127
11, 2664, Note_on_c, 9, 54, 107
11, 2676, Note_off_c, 9, 35, 0
11, 2676, Note_off_c, 9, 54, 0
11, 2676, Note_on_c, 9, 54, 87
11, 2688, Note_off_c, 9, 38, 0
11, 2688, Note_off_c, 9, 39, 0
11, 2688, Note_off_c, 9, 42, 0
11, 2688, Note_off_c, 9, 54, 0
11, 2688, Note_on_c, 9, 35, 127
11, 2688, Note_on_c, 9, 42, 127
11, 2688, Note_on_c, 9, 54, 127
11, 2700, Note_off_c, 9, 54, 0
11, 2700, Note_on_c, 9, 54, 87
11, 2712, Note_off_c, 9, 38, 0
11, 2712, Note_off_c, 9, 39, 0
11, 2712, Note_off_c, 9, 46, 0
11, 2712, Note_off_c, 9, 54, 0
11, 2712, Note_on_c, 9, 39, 127
11, 2712, Note_on_c, 9, 42, 127
11, 2712, Note_on_c, 9, 54, 107
11, 2724, Note_off_c, 9, 54, 0
11, 2724, Note_on_c, 9, 35, 127
11, 2724, Note_on_c, 9, 54, 87
11, 2736, Note_off_c, 9, 35, 0
11, 2736, Note_off_c, 9, 42, 0
11, 2736, Note_off_c, 9, 54, 0
11, 2736, Note_on_c, 9, 38, 127
11, 2736, Note_on_c, 9, 39, 127
11, 2736, Note_on_c, 9, 42, 127
11, 2736, Note_on_c, 9, 54, 127
11, 2748, Note_off_c, 9, 54, 0
11, 2748, Note_on_c, 9, 54, 87
11, 2760, Note_off_c, 9, 39, 0
11, 2760, Note_off_c, 9, 42, 0
11, 2760, Note_off_c, 9, 54, 0
11, 2760, Note_on_c, 9, 38, 127
11, 2760, Note_on_c, 9, 39, 127
11, 2760, Note_on_c, 9, 42, 127
11, 2760, Note_on_c, 9, 54, 107
11, 2772, Note_off_c, 9, 35, 0
11, 2772, Note_off_c, 9, 54, 0
11, 2772, Note_on_c, 9, 35, 127
11, 2772, Note_on_c, 9, 54, 87
11, 2784, Note_off_c, 9, 38, 0
11, 2784, Note_off_c, 9, 39, 0
11, 2784, Note_off_c, 9, 42, 0
11, 2784, Note_off_c, 9, 54, 0
11, 2784, Note_on_c, 9, 39, 127
11, 2784, Note_on_c, 9, 42, 127
11, 2784, Note_on_c, 9, 54, 127
11, 2796, Note_off_c, 9, 54, 0
11, 2796, Note_on_c, 9, 35, 127
11, 2796, Note_on_c, 9, 54, 87
11, 2808, Note_off_c, 9, 38, 0
11, 2808, Note_off_c, 9, 39, 0
11, 2808, Note_off_c, 9, 42, 0
11, 2808, Note_off_c, 9, 54, 0
11, 2808, Note_on_c, 9, 39, 127
11, 2808, Note_on_c, 9, 42, 127
11, 2808, Note_on_c, 9, 54, 107
11, 2820, Note_off_c, 9, 35, 0
11, 2820, Note_off_c, 9, 54, 0
11, 2820, Note_on_c, 9, 35, 127
11, 2820, Note_on_c, 9, 54, 87
11, 2832, Note_off_c, 9, 39, 0
11, 2832, Note_off_c, 9, 42, 0
11, 2832, Note_off_c, 9, 54, 0
11, 2832, Note_on_c, 9, 38, 127
11, 2832, Note_on_c, 9, 39, 127
11, 2832, Note_on_c, 9, 42, 127
11, 2832, Note_on_c, 9, 54, 127
11, 2844, Note_off_c, 9, 35, 0
11, 2844, Note_off_c, 9, 54, 0
11, 2844, Note_on_c, 9, 54, 87
11, 2856, Note_off_c, 9, 39, 0
11, 2856, Note_off_c, 9, 42, 0
11, 2856, Note_off_c, 9, 54, 0
11, 2856, Note_on_c, 9, 38, 127
11, 2856, Note_on_c, 9, 39, 127
11, 2856, Note_on_c, 9, 46, 127
11, 2856, Note_on_c, 9, 54, 107
11, 2868, Note_off_c, 9, 35, 0
11, 2868, Note_off_c, 9, 54, 0
11, 2868, Note_on_c, 9, 54, 87
11, 2880, Note_off_c, 9, 38, 0
11, 2880, Note_off_c, 9, 39, 0
11, 2880, Note_off_c, 9, 42, 0
11, 2880, Note_off_c, 9, 54, 0
11, 2880, Note_on_c, 9, 35, 127
11, 2880, Note_on_c, 9, 42, 127
11, 2880, Note_on_c, 9, 54, 127
11, 2892, Note_off_c, 9, 54, 0
11, 2892, Note_on_c, 9, 54, 87
11, 2904, Note_off_c, 9, 38, 0
11, 2904, Note_off_c, 9, 39, 0
11, 2904, Note_off_c, 9, 46, 0
11, 2904, Note_off_c, 9, 54, 0
11, 2904, Note_on_c, 9, 39, 127
11, 2904, Note_on_c, 9, 42, 127
11, 2904, Note_on_c, 9, 54, 107
11, 2916, Note_off_c, 9, 54, 0
11, 2916, Note_on_c, 9, 35, 127
11, 2916, Note_on_c, 9, 54, 87
11, 2928, Note_off_c, 9, 35, 0
11, 2928, Note_off_c, 9, 42, 0
11, 2928, Note_off_c, 9, 54, 0
11, 2928, Note_on_c, 9, 38, 127
11, 2928, Note_on_c, 9, 39, 127
11, 2928, Note_on_c, 9, 42, 127
11, 2928, Note_on_c, 9, 54, 127
11, 2940, Note_off_c, 9, 54, 0
11, 2940, Note_on_c, 9, 54, 87
11, 2952, Note_off_c, 9, 39, 0
11, 2952, Note_off_c, 9, 42, 0
11, 2952, Note_off_c, 9, 54, 0
11, 2952, Note_on_c, 9, 38, 127
11, 2952, Note_on_c, 9, 39, 127
11, 2952, Note_on_c, 9, 42, 127
11, 2952, Note_on_c, 9, 54, 107
11, 2964, Note_off_c, 9, 35, 0
11, 2964, Note_off_c, 9, 54, 0
11, 2964, Note_on_c, 9, 35, 127
11, 2964, Note_on_c, 9, 54, 87
11, 2976, Note_off_c, 9, 38, 0
11, 2976, Note_off_c, 9, 39, 0
11, 2976, Note_off_c, 9, 42, 0
11, 2976, Note_off_c, 9, 54, 0
11, 2976, Note_on_c, 9, 39, 127
11, 2976, Note_on_c, 9, 42, 127
11, 2976, Note_on_c, 9, 54, 127
11, 2988, Note_off_c, 9, 54, 0
11, 2988, Note_on_c, 9, 35, 127
11, 2988, Note_on_c, 9, 54, 87
11, 3000, Note_off_c, 9, 38, 0
11, 3000, Note_off_c, 9, 39, 0
11, 3000, Note_off_c, 9, 42, 0
11, 3000, Note_off_c, 9, 54, 0
11, 3000, Note_on_c, 9, 39, 127
11, 3000, Note_on_c, 9, 42, 127
11, 3000, Note_on_c, 9, 54, 107
11, 3012, Note_off_c, 9, 35, 0
11, 3012, Note_off_c, 9, 54, 0
11, 3012, Note_on_c, 9, 35, 127
11, 3012, Note_on_c, 9, 54, 87
11, 3024, Note_off_c, 9, 39, 0
11, 3024, Note_off_c, 9, 42, 0
11, 3024, Note_off_c, 9, 54, 0
11, 3024, Note_on_c, 9, 39, 127
11, 3024, Note_on_c, 9, 42, 127
11, 3024, Note_on_c, 9, 54, 127
11, 3036, Note_off_c, 9, 35, 0
11, 3036, Note_off_c, 9, 54, 0
11, 3036, Note_on_c, 9, 38, 127
11, 3036, Note_on_c, 9, 54, 87
11, 3048, Note_off_c, 9, 39, 0
11, 3048, Note_off_c, 9, 42, 0
11, 3048, Note_off_c, 9, 54, 0
11, 3048, Note_on_c, 9, 38, 127
11, 3048, Note_on_c, 9, 39, 127
11, 3048, Note_on_c, 9, 42, 127
11, 3048, Note_on_c, 9, 54, 107
11, 3060, Note_off_c, 9, 35, 0
11, 3060, Note_off_c, 9, 54, 0
11, 3060, Note_on_c, 9, 38, 127
11, 3060, Note_on_c, 9, 54, 87
11, 3072, Note_off_c, 9, 39, 0
11, 3072, Note_off_c, 9, 42, 0
11, 3072, Note_off_c, 9, 54, 0
11, 3072, Note_on_c, 9, 35, 127
11, 3072, Note_on_c, 9, 42, 127
11, 3072, Note_on_c, 9, 46, 127
11, 3072, Note_on_c, 9, 49, 127
11, 3072, Note_on_c, 9, 54, 127
11, 3084, Note_off_c, 9, 38, 0
11, 3084, Note_off_c, 9, 54, 0
11, 3084, Note_on_c, 9, 54, 87
11, 3096, Note_off_c, 9, 38, 0
11, 3096, Note_off_c, 9, 39, 0
11, 3096, Note_off_c, 9, 42, 0
11, 3096, Note_off_c, 9, 54, 0
11, 3096, Note_on_c, 9, 39, 127
11, 3096, Note_on_c, 9, 42, 127
11, 3096, Note_on_c, 9, 54, 107
11, 3108, Note_off_c, 9, 38, 0
11, 3108, Note_off_c, 9, 54, 0
11, 3108, Note_on_c, 9, 35, 127
11, 3108, Note_on_c, 9, 54, 87
11, 3120, Note_off_c, 9, 35, 0
11, 3120, Note_off_c, 9, 42, 0
11, 3120, Note_off_c, 9, 46, 0
11, 3120, Note_off_c, 9, 49, 0
11, 3120, Note_off_c, 9, 54, 0
11, 3120, Note_on_c, 9, 38, 127
11, 3120, Note_on_c, 9, 39, 127
11, 3120, Note_on_c, 9, 42, 127
11, 3120, Note_on_c, 9, 54, 127
11, 3132, Note_off_c, 9, 54, 0
11, 3132, Note_on_c, 9, 54, 87
11, 3144, Note_off_c, 9, 39, 0
11, 3144, Note_off_c, 9, 42, 0
11, 3144, Note_off_c, 9, 54, 0
11, 3144, Note_on_c, 9, 38, 127
11, 3144, Note_on_c, 9, 39, 127
11, 3144, Note_on_c, 9, 42, 127
11, 3144, Note_on_c, 9, 54, 107
11, 3156, Note_off_c, 9, 35, 0
11, 3156, Note_off_c, 9, 54, 0
11, 3156, Note_on_c, 9, 35, 127
11, 3156, Note_on_c, 9, 54, 87
11, 3168, Note_off_c, 9, 38, 0
11, 3168, Note_off_c, 9, 39, 0
11, 3168, Note_off_c, 9, 42, 0
11, 3168, Note_off_c, 9, 54, 0
11, 3168, Note_on_c, 9, 39, 127
11, 3168, Note_on_c, 9, 42, 127
11, 3168, Note_on_c, 9, 54, 127
11, 3180, Note_off_c, 9, 54, 0
11, 3180, Note_on_c, 9, 35, 127
11, 3180, Note_on_c, 9, 54, 87
11, 3192, Note_off_c, 9, 38, 0
11, 3192, Note_off_c, 9, 39, 0
11, 3192, Note_off_c, 9, 42, 0
11, 3192, Note_off_c, 9, 54, 0
11, 3192, Note_on_c, 9, 39, 127
11, 3192, Note_on_c, 9, 42, 127
11, 3192, Note_on_c, 9, 54, 107
11, 3204, Note_off_c, 9, 35, 0
11, 3204, Note_off_c, 9, 54, 0
11, 3204, Note_on_c, 9, 35, 127
11, 3204, Note_on_c, 9, 54, 87
11, 3216, Note_off_c, 9, 39, 0
11, 3216, Note_off_c, 9, 42, 0
11, 3216, Note_off_c, 9, 54, 0
11, 3216, Note_on_c, 9, 38, 127
11, 3216, Note_on_c, 9, 39, 127
11, 3216, Note_on_c, 9, 42, 127
11, 3216, Note_on_c, 9, 54, 127
11, 3228, Note_off_c, 9, 35, 0
11, 3228, Note_off_c, 9, 54, 0
11, 3228, Note_on_c, 9, 54, 87
11, 3240, Note_off_c, 9, 39, 0
11, 3240, Note_off_c, 9, 42, 0
11, 3240, Note_off_c, 9, 54, 0
11, 3240, Note_on_c, 9, 38, 127
11, 3240, Note_on_c, 9, 39, 127
11, 3240, Note_on_c, 9, 46, 127
11, 3240, Note_on_c, 9, 54, 107
11, 3252, Note_off_c, 9, 35, 0
11, 3252, Note_off_c, 9, 54, 0
11, 3252, Note_on_c, 9, 54, 87
11, 3264, Note_off_c, 9, 38, 0
11, 3264, Note_off_c, 9, 39, 0
11, 3264, Note_off_c, 9, 42, 0
11, 3264, Note_off_c, 9, 54, 0
11, 3264, Note_on_c, 9, 35, 127
11, 3264, Note_on_c, 9, 42, 127
11, 3264, Note_on_c, 9, 54, 127
11, 3276, Note_off_c, 9, 54, 0
11, 3276, Note_on_c, 9, 54, 87
11, 3288, Note_off_c, 9, 38, 0
11, 3288, Note_off_c, 9, 39, 0
11, 3288, Note_off_c, 9, 46, 0
11, 3288, Note_off_c, 9, 54, 0
11, 3288, Note_on_c, 9, 39, 127
11, 3288, Note_on_c, 9, 42, 127
11, 3288, Note_on_c, 9, 54, 107
11, 3300, Note_off_c, 9, 54, 0
11, 3300, Note_on_c, 9, 35, 127
11, 3300, Note_on_c, 9, 54, 87
11, 3312, Note_off_c, 9, 35, 0
11, 3312, Note_off_c, 9, 42, 0
11, 3312, Note_off_c, 9, 54, 0
11, 3312, Note_on_c, 9, 38, 127
11, 3312, Note_on_c, 9, 39, 127
11, 3312, Note_on_c, 9, 42, 127
11, 3312, Note_on_c, 9, 54, 127
11, 3324, Note_off_c, 9, 54, 0
11, 3324, Note_on_c, 9, 54, 87
11, 3336, Note_off_c, 9, 39, 0
11, 3336, Note_off_c, 9, 42, 0
11, 3336, Note_off_c, 9, 54, 0
11, 3336, Note_on_c, 9, 38, 127
11, 3336, Note_on_c, 9, 39, 127
11, 3336, Note_on_c, 9, 42, 127
11, 3336, Note_on_c, 9, 54, 107
11, 3348, Note_off_c, 9, 35, 0
11, 3348, Note_off_c, 9, 54, 0
11, 3348, Note_on_c, 9, 35, 127
11, 3348, Note_on_c, 9, 54, 87
11, 3360, Note_off_c, 9, 38, 0
11, 3360, Note_off_c, 9, 39, 0
11, 3360, Note_off_c, 9, 42, 0
11, 3360, Note_off_c, 9, 54, 0
11, 3360, Note_on_c, 9, 39, 127
11, 3360, Note_on_c, 9, 42, 127
11, 3360, Note_on_c, 9, 54, 127
11, 3372, Note_off_c, 9, 54, 0
11, 3372, Note_on_c, 9, 35, 127
11, 3372, Note_on_c, 9, 54, 87
11, 3384, Note_off_c, 9, 38, 0
11, 3384, Note_off_c, 9, 39, 0
11, 3384, Note_off_c, 9, 42, 0
11, 3384, Note_off_c, 9, 54, 0
11, 3384, Note_on_c, 9, 39, 127
11, 3384, Note_on_c, 9, 42, 127
11, 3384, Note_on_c, 9, 54, 107
11, 3396, Note_off_c, 9, 35, 0
11, 3396, Note_off_c, 9, 54, 0
11, 3396, Note_on_c, 9, 35, 127
11, 3396, Note_on_c, 9, 54, 87
11, 3408, Note_off_c, 9, 39, 0
11, 3408, Note_off_c, 9, 42, 0
11, 3408, Note_off_c, 9, 54, 0
11, 3408, Note_on_c, 9, 38, 127
11, 3408, Note_on_c, 9, 39, 127
11, 3408, Note_on_c, 9, 42, 127
11, 3408, Note_on_c, 9, 54, 127
11, 3420, Note_off_c, 9, 35, 0
11, 3420, Note_off_c, 9, 54, 0
11, 3420, Note_on_c, 9, 54, 87
11, 3432, Note_off_c, 9, 39, 0
11, 3432, Note_off_c, 9, 42, 0
11, 3432, Note_off_c, 9, 54, 0
11, 3432, Note_on_c, 9, 38, 127
11, 3432, Note_on_c, 9, 39, 127
11, 3432, Note_on_c, 9, 46, 127
11, 3432, Note_on_c, 9, 54, 107
11, 3444, Note_off_c, 9, 35, 0
11, 3444, Note_off_c, 9, 54, 0
11, 3444, Note_on_c, 9, 54, 87
11, 3456, Note_off_c, 9, 38, 0
11, 3456, Note_off_c, 9, 39, 0
11, 3456, Note_off_c, 9, 42, 0
11, 3456, Note_off_c, 9, 54, 0
11, 3456, Note_on_c, 9, 35, 127
11, 3456, Note_on_c, 9, 42, 127
11, 3456, Note_on_c, 9, 54, 127
11, 3468, Note_off_c, 9, 54, 0
11, 3468, Note_on_c, 9, 54, 87
11, 3480, Note_off_c, 9, 38, 0
11, 3480, Note_off_c, 9, 39, 0
11, 3480, Note_off_c, 9, 46, 0
11, 3480, Note_off_c, 9, 54, 0
11, 3480, Note_on_c, 9, 39, 127
11, 3480, Note_on_c, 9, 42, 127
11, 3480, Note_on_c, 9, 54, 107
11, 3492, Note_off_c, 9, 54, 0
11, 3492, Note_on_c, 9, 35, 127
11, 3492, Note_on_c, 9, 54, 87
11, 3504, Note_off_c, 9, 35, 0
11, 3504, Note_off_c, 9, 42, 0
11, 3504, Note_off_c, 9, 54, 0
11, 3504, Note_on_c, 9, 38, 127
11, 3504, Note_on_c, 9, 39, 127
11, 3504, Note_on_c, 9, 42, 127
11, 3504, Note_on_c, 9, 54, 127
11, 3516, Note_off_c, 9, 54, 0
11, 3516, Note_on_c, 9, 54, 87
11, 3528, Note_off_c, 9, 39, 0
11, 3528, Note_off_c, 9, 42, 0
11, 3528, Note_off_c, 9, 54, 0
11, 3528, Note_on_c, 9, 38, 127
11, 3528, Note_on_c, 9, 39, 127
11, 3528, Note_on_c, 9, 42, 127
11, 3528, Note_on_c, 9, 54, 107
11, 3540, Note_off_c, 9, 35, 0
11, 3540, Note_off_c, 9, 54, 0
11, 3540, Note_on_c, 9, 35, 127
11, 3540, Note_on_c, 9, 54, 87
11, 3552, Note_off_c, 9, 38, 0
11, 3552, Note_off_c, 9, 39, 0
11, 3552, Note_off_c, 9, 42, 0
11, 3552, Note_off_c, 9, 54, 0
11, 3552, Note_on_c, 9, 39, 127
11, 3552, Note_on_c, 9, 42, 127
11, 3552, Note_on_c, 9, 54, 127
11, 3564, Note_off_c, 9, 54, 0
11, 3564, Note_on_c, 9, 35, 127
11, 3564, Note_on_c, 9, 54, 87
11, 3576, Note_off_c, 9, 38, 0
11, 3576, Note_off_c, 9, 39, 0
11, 3576, Note_off_c, 9, 42, 0
11, 3576, Note_off_c, 9, 54, 0
11, 3576, Note_on_c, 9, 39, 127
11, 3576, Note_on_c, 9, 42, 127
11, 3576, Note_on_c, 9, 54, 107
11, 3588, Note_off_c, 9, 35, 0
11, 3588, Note_off_c, 9, 54, 0
11, 3588, Note_on_c, 9, 35, 127
11, 3588, Note_on_c, 9, 54, 87
11, 3600, Note_off_c, 9, 39, 0
11, 3600, Note_off_c, 9, 42, 0
11, 3600, Note_off_c, 9, 54, 0
11, 3600, Note_on_c, 9, 38, 127
11, 3600, Note_on_c, 9, 39, 127
11, 3600, Note_on_c, 9, 42, 127
11, 3600, Note_on_c, 9, 54, 127
11, 3612, Note_off_c, 9, 35, 0
11, 3612, Note_off_c, 9, 54, 0
11, 3612, Note_on_c, 9, 54, 87
11, 3624, Note_off_c, 9, 39, 0
11, 3624, Note_off_c, 9, 42, 0
11, 3624, Note_off_c, 9, 54, 0
11, 3624, Note_on_c, 9, 38, 127
11, 3624, Note_on_c, 9, 39, 127
11, 3624, Note_on_c, 9, 46, 127
11, 3624, Note_on_c, 9, 54, 107
11, 3636, Note_off_c, 9, 35, 0
11, 3636, Note_off_c, 9, 54, 0
11, 3636, Note_on_c, 9, 54, 87
11, 3648, Note_off_c, 9, 38, 0
11, 3648, Note_off_c, 9, 39, 0
11, 3648, Note_off_c, 9, 42, 0
11, 3648, Note_off_c, 9, 54, 0
11, 3648, Note_on_c, 9, 35, 127
11, 3648, Note_on_c, 9, 42, 127
11, 3648, Note_on_c, 9, 54, 127
11, 3660, Note_off_c, 9, 54, 0
11, 3660, Note_on_c, 9, 54, 87
11, 3672, Note_off_c, 9, 38, 0
11, 3672, Note_off_c, 9, 39, 0
11, 3672, Note_off_c, 9, 46, 0
11, 3672, Note_off_c, 9, 54, 0
11, 3672, Note_on_c, 9, 39, 127
11, 3672, Note_on_c, 9, 42, 127
11, 3672, Note_on_c, 9, 54, 107
11, 3684, Note_off_c, 9, 54, 0
11, 3684, Note_on_c, 9, 35, 127
11, 3684, Note_on_c, 9, 54, 87
11, 3696, Note_off_c, 9, 35, 0
11, 3696, Note_off_c, 9, 42, 0
11, 3696, Note_off_c, 9, 54, 0
11, 3696, Note_on_c, 9, 38, 127
11, 3696, Note_on_c, 9, 39, 127
11, 3696, Note_on_c, 9, 42, 127
11, 3696, Note_on_c, 9, 54, 127
11, 3708, Note_off_c, 9, 54, 0
11, 3708, Note_on_c, 9, 54, 87
11, 3720, Note_off_c, 9, 39, 0
11, 3720, Note_off_c, 9, 42, 0
11, 3720, Note_off_c, 9, 54, 0
11, 3720, Note_on_c, 9, 38, 127
11, 3720, Note_on_c, 9, 39, 127
11, 3720, Note_on_c, 9, 42, 127
11, 3720, Note_on_c, 9, 54, 107
11, 3732, Note_off_c, 9, 35, 0
11, 3732, Note_off_c, 9, 54, 0
11, 3732, Note_on_c, 9, 35, 127
11, 3732, Note_on_c, 9, 54, 87
11, 3744, Note_off_c, 9, 38, 0
11, 3744, Note_off_c, 9, 39, 0
11, 3744, Note_off_c, 9, 42, 0
11, 3744, Note_off_c, 9, 54, 0
11, 3744, Note_on_c, 9, 39, 127
11, 3744, Note_on_c, 9, 42, 127
11, 3744, Note_on_c, 9, 54, 127
11, 3756, Note_off_c, 9, 54, 0
11, 3756, Note_on_c, 9, 35, 127
11, 3756, Note_on_c, 9, 54, 87
11, 3768, Note_off_c, 9, 38, 0
11, 3768, Note_off_c, 9, 39, 0
11, 3768, Note_off_c, 9, 42, 0
11, 3768, Note_off_c, 9, 54, 0
11, 3768, Note_on_c, 9, 39, 127
11, 3768, Note_on_c, 9, 42, 127
11, 3768, Note_on_c, 9, 54, 107
11, 3780, Note_off_c, 9, 35, 0
11, 3780, Note_off_c, 9, 54, 0
11, 3780, Note_on_c, 9, 35, 127
11, 3780, Note_on_c, 9, 54, 87
11, 3792, Note_off_c, 9, 39, 0
11, 3792, Note_off_c, 9, 42, 0
11, 3792, Note_off_c, 9, 54, 0
11, 3792, Note_on_c, 9, 38, 127
11, 3792, Note_on_c, 9, 39, 127
11, 3792, Note_on_c, 9, 42, 127
11, 3792, Note_on_c, 9, 54, 127
11, 3804, Note_off_c, 9, 35, 0
11, 3804, Note_off_c, 9, 54, 0
11, 3804, Note_on_c, 9, 54, 87
11, 3816, Note_off_c, 9, 39, 0
11, 3816, Note_off_c, 9, 42, 0
11, 3816, Note_off_c, 9, 54, 0
11, 3816, Note_on_c, 9, 38, 127
11, 3816, Note_on_c, 9, 39, 127
11, 3816, Note_on_c, 9, 46, 127
11, 3816, Note_on_c, 9, 54, 107
11, 3828, Note_off_c, 9, 35, 0
11, 3828, Note_off_c, 9, 54, 0
11, 3828, Note_on_c, 9, 54, 87
11, 3840, Note_off_c, 9, 38, 0
11, 3840, Note_off_c, 9, 39, 0
11, 3840, Note_off_c, 9, 42, 0
11, 3840, Note_off_c, 9, 54, 0
11, 3840, Note_on_c, 9, 35, 127
11, 3840, Note_on_c, 9, 42, 127
11, 3840, Note_on_c, 9, 54, 127
11, 3852, Note_off_c, 9, 54, 0
11, 3852, Note_on_c, 9, 54, 87
11, 3864, Note_off_c, 9, 38, 0
11, 3864, Note_off_c, 9, 39, 0
11, 3864, Note_off_c, 9, 46, 0
11, 3864, Note_off_c, 9, 54, 0
11, 3864, Note_on_c, 9, 39, 127
11, 3864, Note_on_c, 9, 42, 127
11, 3864, Note_on_c, 9, 54, 107
11, 3876, Note_off_c, 9, 54, 0
11, 3876, Note_on_c, 9, 35, 127
11, 3876, Note_on_c, 9, 54, 87
11, 3888, Note_off_c, 9, 35, 0
11, 3888, Note_off_c, 9, 42, 0
11, 3888, Note_off_c, 9, 54, 0
11, 3888, Note_on_c, 9, 38, 127
11, 3888, Note_on_c, 9, 39, 127
11, 3888, Note_on_c, 9, 42, 127
11, 3888, Note_on_c, 9, 54, 127
11, 3900, Note_off_c, 9, 54, 0
11, 3900, Note_on_c, 9, 54, 87
11, 3912, Note_off_c, 9, 39, 0
11, 3912, Note_off_c, 9, 42, 0
11, 3912, Note_off_c, 9, 54, 0
11, 3912, Note_on_c, 9, 38, 127
11, 3912, Note_on_c, 9, 39, 127
11, 3912, Note_on_c, 9, 42, 127
11, 3912, Note_on_c, 9, 54, 107
11, 3924, Note_off_c, 9, 35, 0
11, 3924, Note_off_c, 9, 54, 0
11, 3924, Note_on_c, 9, 35, 127
11, 3924, Note_on_c, 9, 54, 87
11, 3936, Note_off_c, 9, 38, 0
11, 3936, Note_off_c, 9, 39, 0
11, 3936, Note_off_c, 9, 42, 0
11, 3936, Note_off_c, 9, 54, 0
11, 3936, Note_on_c, 9, 39, 127
11, 3936, Note_on_c, 9, 42, 127
11, 3936, Note_on_c, 9, 54, 127
11, 3948, Note_off_c, 9, 54, 0
11, 3948, Note_on_c, 9, 35, 127
11, 3948, Note_on_c, 9, 54, 87
11, 3960, Note_off_c, 9, 38, 0
11, 3960, Note_off_c, 9, 39, 0
11, 3960, Note_off_c, 9, 42, 0
11, 3960, Note_off_c, 9, 54, 0
11, 3960, Note_on_c, 9, 39, 127
11, 3960, Note_on_c, 9, 42, 127
11, 3960, Note_on_c, 9, 54, 107
11, 3972, Note_off_c, 9, 35, 0
11, 3972, Note_off_c, 9, 54, 0
11, 3972, Note_on_c, 9, 35, 127
11, 3972, Note_on_c, 9, 54, 87
11, 3984, Note_off_c, 9, 39, 0
11, 3984, Note_off_c, 9, 42, 0
11, 3984, Note_off_c, 9, 54, 0
11, 3984, Note_on_c, 9, 38, 127
11, 3984, Note_on_c, 9, 39, 127
11, 3984, Note_on_c, 9, 42, 127
11, 3984, Note_on_c, 9, 54, 127
11, 3996, Note_off_c, 9, 35, 0
11, 3996, Note_off_c, 9, 54, 0
11, 3996, Note_on_c, 9, 54, 87
11, 4008, Note_off_c, 9, 39, 0
11, 4008, Note_off_c, 9, 42, 0
11, 4008, Note_off_c, 9, 54, 0
11, 4008, Note_on_c, 9, 38, 127
11, 4008, Note_on_c, 9, 39, 127
11, 4008, Note_on_c, 9, 46, 127
11, 4008, Note_on_c, 9, 54, 107
11, 4020, Note_off_c, 9, 35, 0
11, 4020, Note_off_c, 9, 54, 0
11, 4020, Note_on_c, 9, 54, 87
11, 4032, Note_off_c, 9, 38, 0
11, 4032, Note_off_c, 9, 39, 0
11, 4032, Note_off_c, 9, 42, 0
11, 4032, Note_off_c, 9, 54, 0
11, 4032, Note_on_c, 9, 35, 127
11, 4032, Note_on_c, 9, 42, 127
11, 4032, Note_on_c, 9, 54, 127
11, 4044, Note_off_c, 9, 54, 0
11, 4044, Note_on_c, 9, 54, 87
11, 4056, Note_off_c, 9, 38, 0
11, 4056, Note_off_c, 9, 39, 0
11, 4056, Note_off_c, 9, 46, 0
11, 4056, Note_off_c, 9, 54, 0
11, 4056, Note_on_c, 9, 39, 127
11, 4056, Note_on_c, 9, 42, 127
11, 4056, Note_on_c, 9, 54, 107
11, 4068, Note_off_c, 9, 54, 0
11, 4068, Note_on_c, 9, 35, 127
11, 4068, Note_on_c, 9, 54, 87
11, 4080, Note_off_c, 9, 35, 0
11, 4080, Note_off_c, 9, 42, 0
11, 4080, Note_off_c, 9, 54, 0
11, 4080, Note_on_c, 9, 38, 127
11, 4080, Note_on_c, 9, 39, 127
11, 4080, Note_on_c, 9, 42, 127
11, 4080, Note_on_c, 9, 54, 127
11, 4092, Note_off_c, 9, 54, 0
11, 4092, Note_on_c, 9, 54, 87
11, 4104, Note_off_c, 9, 39, 0
11, 4104, Note_off_c, 9, 42, 0
11, 4104, Note_off_c, 9, 54, 0
11, 4104, Note_on_c, 9, 38, 127
11, 4104, Note_on_c, 9, 39, 127
11, 4104, Note_on_c, 9, 42, 127
11, 4104, Note_on_c, 9, 54, 107
11, 4116, Note_off_c, 9, 35, 0
11, 4116, Note_off_c, 9, 54, 0
11, 4116, Note_on_c, 9, 35, 127
11, 4116, Note_on_c, 9, 54, 87
11, 4128, Note_off_c, 9, 38, 0
11, 4128, Note_off_c, 9, 39, 0
11, 4128, Note_off_c, 9, 42, 0
11, 4128, Note_off_c, 9, 54, 0
11, 4128, Note_on_c, 9, 39, 127
11, 4128, Note_on_c, 9, 42, 127
11, 4128, Note_on_c, 9, 54, 127
11, 4140, Note_off_c, 9, 54, 0
11, 4140, Note_on_c, 9, 35, 127
11, 4140, Note_on_c, 9, 54, 87
11, 4152, Note_off_c, 9, 38, 0
11, 4152, Note_off_c, 9, 39, 0
11, 4152, Note_off_c, 9, 42, 0
11, 4152, Note_off_c, 9, 54, 0
11, 4152, Note_on_c, 9, 39, 127
11, 4152, Note_on_c, 9, 42, 127
11, 4152, Note_on_c, 9, 54, 107
11, 4164, Note_off_c, 9, 35, 0
11, 4164, Note_off_c, 9, 54, 0
11, 4164, Note_on_c, 9, 35, 127
11, 4164, Note_on_c, 9, 54, 87
11, 4176, Note_off_c, 9, 39, 0
11, 4176, Note_off_c, 9, 42, 0
11, 4176, Note_off_c, 9, 54, 0
11, 4176, Note_on_c, 9, 39, 127
11, 4176, Note_on_c, 9, 42, 127
11, 4176, Note_on_c, 9, 54, 127
11, 4188, Note_off_c, 9, 35, 0
11, 4188, Note_off_c, 9, 54, 0
11, 4188, Note_on_c, 9, 38, 127
11, 4188, Note_on_c, 9, 54, 87
11, 4200, Note_off_c, 9, 39, 0
11, 4200, Note_off_c, 9, 42, 0
11, 4200, Note_off_c, 9, 54, 0
11, 4200, Note_on_c, 9, 38, 127
11, 4200, Note_on_c, 9, 39, 127
11, 4200, Note_on_c, 9, 42, 127
11, 4200, Note_on_c, 9, 54, 107
11, 4212, Note_off_c, 9, 35, 0
11, 4212, Note_off_c, 9, 54, 0
11, 4212, Note_on_c, 9, 38, 127
11, 4212, Note_on_c, 9, 54, 87
11, 4224, Note_off_c, 9, 39, 0
11, 4224, Note_off_c, 9, 42, 0
11, 4224, Note_off_c, 9, 54, 0
11, 4224, Note_on_c, 9, 35, 127
11, 4224, Note_on_c, 9, 42, 127
11, 4224, Note_on_c, 9, 46, 127
11, 4224, Note_on_c, 9, 49, 127
11, 4224, Note_on_c, 9, 54, 127
11, 4236, Note_off_c, 9, 38, 0
11, 4236, Note_off_c, 9, 54, 0
11, 4236, Note_on_c, 9, 54, 87
11, 4248, Note_off_c, 9, 38, 0
11, 4248, Note_off_c, 9, 39, 0
11, 4248, Note_off_c, 9, 42, 0
11, 4248, Note_off_c, 9, 54, 0
11, 4248, Note_on_c, 9, 39, 127
11, 4248, Note_on_c, 9, 42, 127
11, 4248, Note_on_c, 9, 54, 107
11, 4260, Note_off_c, 9, 38, 0
11, 4260, Note_off_c, 9, 54, 0
11, 4260, Note_on_c, 9, 35, 127
11, 4260, Note_on_c, 9, 54, 87
11, 4272, Note_off_c, 9, 35, 0
11, 4272, Note_off_c, 9, 42, 0
11, 4272, Note_off_c, 9, 46, 0
11, 4272, Note_off_c, 9, 49, 0
11, 4272, Note_off_c, 9, 54, 0
11, 4272, Note_on_c, 9, 38, 127
11, 4272, Note_on_c, 9, 39, 127
11, 4272, Note_on_c, 9, 42, 127
11, 4272, Note_on_c, 9, 54, 127
11, 4284, Note_off_c, 9, 54, 0
11, 4284, Note_on_c, 9, 54, 87
11, 4296, Note_off_c, 9, 39, 0
11, 4296, Note_off_c, 9, 42, 0
11, 4296, Note_off_c, 9, 54, 0
11, 4296, Note_on_c, 9, 38, 127
11, 4296, Note_on_c, 9, 39, 127
11, 4296, Note_on_c, 9, 42, 127
11, 4296, Note_on_c, 9, 54, 107
11, 4308, Note_off_c, 9, 35, 0
11, 4308, Note_off_c, 9, 54, 0
11, 4308, Note_on_c, 9, 35, 127
11, 4308, Note_on_c, 9, 54, 87
11, 4320, Note_off_c, 9, 38, 0
11, 4320, Note_off_c, 9, 39, 0
11, 4320, Note_off_c, 9, 42, 0
11, 4320, Note_off_c, 9, 54, 0
11, 4320, Note_on_c, 9, 39, 127
11, 4320, Note_on_c, 9, 42, 127
11, 4320, Note_on_c, 9, 54, 127
11, 4332, Note_off_c, 9, 54, 0
11, 4332, Note_on_c, 9, 35, 127
11, 4332, Note_on_c, 9, 54, 87
11, 4344, Note_off_c, 9, 38, 0
11, 4344, Note_off_c, 9, 39, 0
11, 4344, Note_off_c, 9, 42, 0
11, 4344, Note_off_c, 9, 54, 0
11, 4344, Note_on_c, 9, 39, 127
11, 4344, Note_on_c, 9, 42, 127
11, 4344, Note_on_c, 9, 54, 107
11, 4356, Note_off_c, 9, 35, 0
11, 4356, Note_off_c, 9, 54, 0
11, 4356, Note_on_c, 9, 35, 127
11, 4356, Note_on_c, 9, 54, 87
11, 4368, Note_off_c, 9, 39, 0
11, 4368, Note_off_c, 9, 42, 0
11, 4368, Note_off_c, 9, 54, 0
11, 4368, Note_on_c, 9, 38, 127
11, 4368, Note_on_c, 9, 39, 127
11, 4368, Note_on_c, 9, 42, 127
11, 4368, Note_on_c, 9, 54, 127
11, 4380, Note_off_c, 9, 35, 0
11, 4380, Note_off_c, 9, 54, 0
11, 4380, Note_on_c, 9, 54, 87
11, 4392, Note_off_c, 9, 39, 0
11, 4392, Note_off_c, 9, 42, 0
11, 4392, Note_off_c, 9, 54, 0
11, 4392, Note_on_c, 9, 38, 127
11, 4392, Note_on_c, 9, 39, 127
11, 4392, Note_on_c, 9, 46, 127
11, 4392, Note_on_c, 9, 54, 107
11, 4404, Note_off_c, 9, 35, 0
11, 4404, Note_off_c, 9, 54, 0
11, 4404, Note_on_c, 9, 54, 87
11, 4416, Note_off_c, 9, 38, 0
11, 4416, Note_off_c, 9, 39, 0
11, 4416, Note_off_c, 9, 42, 0
11, 4416, Note_off_c, 9, 54, 0
11, 4416, Note_on_c, 9, 35, 127
11, 4416, Note_on_c, 9, 42, 127
11, 4416, Note_on_c, 9, 54, 127
11, 4428, Note_off_c, 9, 54, 0
11, 4428, Note_on_c, 9, 54, 87
11, 4440, Note_off_c, 9, 38, 0
11, 4440, Note_off_c, 9, 39, 0
11, 4440, Note_off_c, 9, 46, 0
11, 4440, Note_off_c, 9, 54, 0
11, 4440, Note_on_c, 9, 39, 127
11, 4440, Note_on_c, 9, 42, 127
11, 4440, Note_on_c, 9, 54, 107
11, 4452, Note_off_c, 9, 54, 0
11, 4452, Note_on_c, 9, 35, 127
11, 4452, Note_on_c, 9, 54, 87
11, 4464, Note_off_c, 9, 35, 0
11, 4464, Note_off_c, 9, 42, 0
11, 4464, Note_off_c, 9, 54, 0
11, 4464, Note_on_c, 9, 38, 127
11, 4464, Note_on_c, 9, 39, 127
11, 4464, Note_on_c, 9, 42, 127
11, 4464, Note_on_c, 9, 54, 127
11, 4476, Note_off_c, 9, 54, 0
11, 4476, Note_on_c, 9, 54, 87
11, 4488, Note_off_c, 9, 39, 0
11, 4488, Note_off_c, 9, 42, 0
11, 4488, Note_off_c, 9, 54, 0
11, 4488, Note_on_c, 9, 38, 127
11, 4488, Note_on_c, 9, 39, 127
11, 4488, Note_on_c, 9, 42, 127
11, 4488, Note_on_c, 9, 54, 107
11, 4500, Note_off_c, 9, 35, 0
11, 4500, Note_off_c, 9, 54, 0
11, 4500, Note_on_c, 9, 35, 127
11, 4500, Note_on_c, 9, 54, 87
11, 4512, Note_off_c, 9, 38, 0
11, 4512, Note_off_c, 9, 39, 0
11, 4512, Note_off_c, 9, 42, 0
11, 4512, Note_off_c, 9, 54, 0
11, 4512, Note_on_c, 9, 39, 127
11, 4512, Note_on_c, 9, 42, 127
11, 4512, Note_on_c, 9, 54, 127
11, 4524, Note_off_c, 9, 54, 0
11, 4524, Note_on_c, 9, 35, 127
11, 4524, Note_on_c, 9, 54, 87
11, 4536, Note_off_c, 9, 38, 0
11, 4536, Note_off_c, 9, 39, 0
11, 4536, Note_off_c, 9, 42, 0
11, 4536, Note_off_c, 9, 54, 0
11, 4536, Note_on_c, 9, 39, 127
11, 4536, Note_on_c, 9, 42, 127
11, 4536, Note_on_c, 9, 54, 107
11, 4548, Note_off_c, 9, 35, 0
11, 4548, Note_off_c, 9, 54, 0
11, 4548, Note_on_c, 9, 35, 127
11, 4548, Note_on_c, 9, 54, 87
11, 4560, Note_off_c, 9, 39, 0
11, 4560, Note_off_c, 9, 42, 0
11, 4560, Note_off_c, 9, 54, 0
11, 4560, Note_on_c, 9, 38, 127
11, 4560, Note_on_c, 9, 39, 127
11, 4560, Note_on_c, 9, 42, 127
11, 4560, Note_on_c, 9, 54, 127
11, 4572, Note_off_c, 9, 35, 0
11, 4572, Note_off_c, 9, 54, 0
11, 4572, Note_on_c, 9, 54, 87
11, 4584, Note_off_c, 9, 39, 0
11, 4584, Note_off_c, 9, 42, 0
11, 4584, Note_off_c, 9, 54, 0
11, 4584, Note_on_c, 9, 38, 127
11, 4584, Note_on_c, 9, 39, 127
11, 4584, Note_on_c, 9, 46, 127
11, 4584, Note_on_c, 9, 54, 107
11, 4596, Note_off_c, 9, 35, 0
11, 4596, Note_off_c, 9, 54, 0
11, 4596, Note_on_c, 9, 54, 87
11, 4608, Note_off_c, 9, 38, 0
11, 4608, Note_off_c, 9, 39, 0
11, 4608, Note_off_c, 9, 42, 0
11, 4608, Note_off_c, 9, 54, 0
11, 4608, Note_on_c, 9, 35, 127
11, 4608, Note_on_c, 9, 42, 127
11, 4608, Note_on_c, 9, 54, 127
11, 4620, Note_off_c, 9, 54, 0
11, 4620, Note_on_c, 9, 54, 87
11, 4632, Note_off_c, 9, 38, 0
11, 4632, Note_off_c, 9, 39, 0
11, 4632, Note_off_c, 9, 46, 0
11, 4632, Note_off_c, 9, 54, 0
11, 4632, Note_on_c, 9, 39, 127
11, 4632, Note_on_c, 9, 42, 127
11, 4632, Note_on_c, 9, 54, 107
11, 4644, Note_off_c, 9, 54, 0
11, 4644, Note_on_c, 9, 35, 127
11, 4644, Note_on_c, 9, 54, 87
11, 4656, Note_off_c, 9, 35, 0
11, 4656, Note_off_c, 9, 42, 0
11, 4656, Note_off_c, 9, 54, 0
11, 4656, Note_on_c, 9, 38, 127
11, 4656, Note_on_c, 9, 39, 127
11, 4656, Note_on_c, 9, 42, 127
11, 4656, Note_on_c, 9, 54, 127
11, 4668, Note_off_c, 9, 54, 0
11, 4668, Note_on_c, 9, 54, 87
11, 4680, Note_off_c, 9, 39, 0
11, 4680, Note_off_c, 9, 42, 0
11, 4680, Note_off_c, 9, 54, 0
11, 4680, Note_on_c, 9, 38, 127
11, 4680, Note_on_c, 9, 39, 127
11, 4680, Note_on_c, 9, 42, 127
11, 4680, Note_on_c, 9, 54, 107
11, 4692, Note_off_c, 9, 35, 0
11, 4692, Note_off_c, 9, 54, 0
11, 4692, Note_on_c, 9, 35, 127
11, 4692, Note_on_c, 9, 54, 87
11, 4704, Note_off_c, 9, 38, 0
11, 4704, Note_off_c, 9, 39, 0
11, 4704, Note_off_c, 9, 42, 0
11, 4704, Note_off_c, 9, 54, 0
11, 4704, Note_on_c, 9, 39, 127
11, 4704, Note_on_c, 9, 42, 127
11, 4704, Note_on_c, 9, 54, 127
11, 4716, Note_off_c, 9, 54, 0
11, 4716, Note_on_c, 9, 35, 127
11, 4716, Note_on_c, 9, 54, 87
11, 4728, Note_off_c, 9, 38, 0
11, 4728, Note_off_c, 9, 39, 0
11, 4728, Note_off_c, 9, 42, 0
11, 4728, Note_off_c, 9, 54, 0
11, 4728, Note_on_c, 9, 39, 127
11, 4728, Note_on_c, 9, 42, 127
11, 4728, Note_on_c, 9, 54, 107
11, 4740, Note_off_c, 9, 35, 0
11, 4740, Note_off_c, 9, 54, 0
11, 4740, Note_on_c, 9, 35, 127
11, 4740, Note_on_c, 9, 54, 87
11, 4752, Note_off_c, 9, 39, 0
11, 4752, Note_off_c, 9, 42, 0
11, 4752, Note_off_c, 9, 54, 0
11, 4752, Note_on_c, 9, 38, 127
11, 4752, Note_on_c, 9, 39, 127
11, 4752, Note_on_c, 9, 42, 127
11, 4752, Note_on_c, 9, 54, 127
11, 4764, Note_off_c, 9, 35, 0
11, 4764, Note_off_c, 9, 54, 0
11, 4764, Note_on_c, 9, 54, 87
11, 4776, Note_off_c, 9, 39, 0
11, 4776, Note_off_c, 9, 42, 0
11, 4776, Note_off_c, 9, 54, 0
11, 4776, Note_on_c, 9, 38, 127
11, 4776, Note_on_c, 9, 39, 127
11, 4776, Note_on_c, 9, 46, 127
11, 4776, Note_on_c, 9, 54, 107
11, 4788, Note_off_c, 9, 35, 0
11, 4788, Note_off_c, 9, 54, 0
11, 4788, Note_on_c, 9, 54, 87
11, 4800, Note_off_c, 9, 38, 0
11, 4800, Note_off_c, 9, 39, 0
11, 4800, Note_off_c, 9, 42, 0
11, 4800, Note_off_c, 9, 54, 0
11, 4800, Note_on_c, 9, 35, 127
11, 4800, Note_on_c, 9, 42, 127
11, 4800, Note_on_c, 9, 54, 127
11, 4812, Note_off_c, 9, 54, 0
11, 4812, Note_on_c, 9, 54, 87
11, 4824, Note_off_c, 9, 38, 0
11, 4824, Note_off_c, 9, 39, 0
11, 4824, Note_off_c, 9, 46, 0
11, 4824, Note_off_c, 9, 54, 0
11, 4824, Note_on_c, 9, 39, 127
11, 4824, Note_on_c, 9, 42, 127
11, 4824, Note_on_c, 9, 54, 107
11, 4836, Note_off_c, 9, 54, 0
11, 4836, Note_on_c, 9, 35, 127
11, 4836, Note_on_c, 9, 54, 87
11, 4848, Note_off_c, 9, 35, 0
11, 4848, Note_off_c, 9, 42, 0
11, 4848, Note_off_c, 9, 54, 0
11, 4848, Note_on_c, 9, 38, 127
11, 4848, Note_on_c, 9, 39, 127
11, 4848, Note_on_c, 9, 42, 127
11, 4848, Note_on_c, 9, 54, 127
11, 4860, Note_off_c, 9, 54, 0
11, 4860, Note_on_c, 9, 54, 87
11, 4872, Note_off_c, 9, 39, 0
11, 4872, Note_off_c, 9, 42, 0
11, 4872, Note_off_c, 9, 54, 0
11, 4872, Note_on_c, 9, 38, 127
11, 4872, Note_on_c, 9, 39, 127
11, 4872, Note_on_c, 9, 42, 127
11, 4872, Note_on_c, 9, 54, 107
11, 4884, Note_off_c, 9, 35, 0
11, 4884, Note_off_c, 9, 54, 0
11, 4884, Note_on_c, 9, 35, 127
11, 4884, Note_on_c, 9, 54, 87
11, 4896, Note_off_c, 9, 38, 0
11, 4896, Note_off_c, 9, 39, 0
11, 4896, Note_off_c, 9, 42, 0
11, 4896, Note_off_c, 9, 54, 0
11, 4896, Note_on_c, 9, 39, 127
11, 4896, Note_on_c, 9, 42, 127
11, 4896, Note_on_c, 9, 54, 127
11, 4908, Note_off_c, 9, 54, 0
11, 4908, Note_on_c, 9, 35, 127
11, 4908, Note_on_c, 9, 54, 87
11, 4920, Note_off_c, 9, 38, 0
11, 4920, Note_off_c, 9, 39, 0
11, 4920, Note_off_c, 9, 42, 0
11, 4920, Note_off_c, 9, 54, 0
11, 4920, Note_on_c, 9, 39, 127
11, 4920, Note_on_c, 9, 42, 127
11, 4920, Note_on_c, 9, 54, 107
11, 4932, Note_off_c, 9, 35, 0
11, 4932, Note_off_c, 9, 54, 0
11, 4932, Note_on_c, 9, 35, 127
11, 4932, Note_on_c, 9, 54, 87
11, 4944, Note_off_c, 9, 39, 0
11, 4944, Note_off_c, 9, 42, 0
11, 4944, Note_off_c, 9, 54, 0
11, 4944, Note_on_c, 9, 38, 127
11, 4944, Note_on_c, 9, 39, 127
11, 4944, Note_on_c, 9, 42, 127
11, 4944, Note_on_c, 9, 54, 127
11, 4956, Note_off_c, 9, 35, 0
11, 4956, Note_off_c, 9, 54, 0
11, 4956, Note_on_c, 9, 54, 87
11, 4968, Note_off_c, 9, 39, 0
11, 4968, Note_off_c, 9, 42, 0
11, 4968, Note_off_c, 9, 54, 0
11, 4968, Note_on_c, 9, 38, 127
11, 4968, Note_on_c, 9, 39, 127
11, 4968, Note_on_c, 9, 46, 127
11, 4968, Note_on_c, 9, 54, 107
11, 4980, Note_off_c, 9, 35, 0
11, 4980, Note_off_c, 9, 54, 0
11, 4980, Note_on_c, 9, 54, 87
11, 4992, Note_off_c, 9, 38, 0
11, 4992, Note_off_c, 9, 39, 0
11, 4992, Note_off_c, 9, 42, 0
11, 4992, Note_off_c, 9, 54, 0
11, 4992, Note_on_c, 9, 35, 127
11, 4992, Note_on_c, 9, 42, 127
11, 4992, Note_on_c, 9, 54, 127
11, 5004, Note_off_c, 9, 54, 0
11, 5004, Note_on_c, 9, 54, 87
11, 5016, Note_off_c, 9, 38, 0
11, 5016, Note_off_c, 9, 39, 0
11, 5016, Note_off_c, 9, 46, 0
11, 5016, Note_off_c, 9, 54, 0
11, 5016, Note_on_c, 9, 39, 127
11, 5016, Note_on_c, 9, 42, 127
11, 5016, Note_on_c, 9, 54, 107
11, 5028, Note_off_c, 9, 54, 0
11, 5028, Note_on_c, 9, 35, 127
11, 5028, Note_on_c, 9, 54, 87
11, 5040, Note_off_c, 9, 35, 0
11, 5040, Note_off_c, 9, 42, 0
11, 5040, Note_off_c, 9, 54, 0
11, 5040, Note_on_c, 9, 38, 127
11, 5040, Note_on_c, 9, 39, 127
11, 5040, Note_on_c, 9, 42, 127
11, 5040, Note_on_c, 9, 54, 127
11, 5052, Note_off_c, 9, 54, 0
11, 5052, Note_on_c, 9, 54, 87
11, 5064, Note_off_c, 9, 39, 0
11, 5064, Note_off_c, 9, 42, 0
11, 5064, Note_off_c, 9, 54, 0
11, 5064, Note_on_c, 9, 38, 127
11, 5064, Note_on_c, 9, 39, 127
11, 5064, Note_on_c, 9, 42, 127
11, 5064, Note_on_c, 9, 54, 107
11, 5076, Note_off_c, 9, 35, 0
11, 5076, Note_off_c, 9, 54, 0
11, 5076, Note_on_c, 9, 35, 127
11, 5076, Note_on_c, 9, 54, 87
11, 5088, Note_off_c, 9, 38, 0
11, 5088, Note_off_c, 9, 39, 0
11, 5088, Note_off_c, 9, 42, 0
11, 5088, Note_off_c, 9, 54, 0
11, 5088, Note_on_c, 9, 39, 127
11, 5088, Note_on_c, 9, 42, 127
11, 5088, Note_on_c, 9, 54, 127
11, 5100, Note_off_c, 9, 54, 0
11, 5100, Note_on_c, 9, 35, 127
11, 5100, Note_on_c, 9, 54, 87
11, 5112, Note_off_c, 9, 38, 0
11, 5112, Note_off_c, 9, 39, 0
11, 5112, Note_off_c, 9, 42, 0
11, 5112, Note_off_c, 9, 54, 0
11, 5112, Note_on_c, 9, 39, 127
11, 5112, Note_on_c, 9, 42, 127
11, 5112, Note_on_c, 9, 54, 107
11, 5124, Note_off_c, 9, 35, 0
11, 5124, Note_off_c, 9, 54, 0
11, 5124, Note_on_c, 9, 35, 127
11, 5124, Note_on_c, 9, 54, 87
11, 5136, Note_off_c, 9, 39, 0
11, 5136, Note_off_c, 9, 42, 0
11, 5136, Note_off_c, 9, 54, 0
11, 5136, Note_on_c, 9, 38, 127
11, 5136, Note_on_c, 9, 39, 127
11, 5136, Note_on_c, 9, 42, 127
11, 5136, Note_on_c, 9, 54, 127
11, 5148, Note_off_c, 9, 35, 0
11, 5148, Note_off_c, 9, 54, 0
11, 5148, Note_on_c, 9, 54, 87
11, 5160, Note_off_c, 9, 39, 0
11, 5160, Note_off_c, 9, 42, 0
11, 5160, Note_off_c, 9, 54, 0
11, 5160, Note_on_c, 9, 38, 127
11, 5160, Note_on_c, 9, 39, 127
11, 5160, Note_on_c, 9, 46, 127
11, 5160, Note_on_c, 9, 54, 107
11, 5172, Note_off_c, 9, 35, 0
11, 5172, Note_off_c, 9, 54, 0
11, 5172, Note_on_c, 9, 54, 87
11, 5184, Note_off_c, 9, 38, 0
11, 5184, Note_off_c, 9, 39, 0
11, 5184, Note_off_c, 9, 42, 0
11, 5184, Note_off_c, 9, 54, 0
11, 5184, Note_on_c, 9, 35, 127
11, 5184, Note_on_c, 9, 42, 127
11, 5184, Note_on_c, 9, 54, 127
11, 5196, Note_off_c, 9, 54, 0
11, 5196, Note_on_c, 9, 54, 87
11, 5208, Note_off_c, 9, 38, 0
11, 5208, Note_off_c, 9, 39, 0
11, 5208, Note_off_c, 9, 46, 0
11, 5208, Note_off_c, 9, 54, 0
11, 5208, Note_on_c, 9, 39, 127
11, 5208, Note_on_c, 9, 42, 127
11, 5208, Note_on_c, 9, 54, 107
11, 5220, Note_off_c, 9, 54, 0
11, 5220, Note_on_c, 9, 35, 127
11, 5220, Note_on_c, 9, 54, 87
11, 5232, Note_off_c, 9, 35, 0
11, 5232, Note_off_c, 9, 42, 0
11, 5232, Note_off_c, 9, 54, 0
11, 5232, Note_on_c, 9, 38, 127
11, 5232, Note_on_c, 9, 39, 127
11, 5232, Note_on_c, 9, 42, 127
11, 5232, Note_on_c, 9, 54, 127
11, 5244, Note_off_c, 9, 54, 0
11, 5244, Note_on_c, 9, 54, 87
11, 5256, Note_off_c, 9, 39, 0
11, 5256, Note_off_c, 9, 42, 0
11, 5256, Note_off_c, 9, 54, 0
11, 5256, Note_on_c, 9, 38, 127
11, 5256, Note_on_c, 9, 39, 127
11, 5256, Note_on_c, 9, 42, 127
11, 5256, Note_on_c, 9, 54, 107
11, 5268, Note_off_c, 9, 35, 0
11, 5268, Note_off_c, 9, 54, 0
11, 5268, Note_on_c, 9, 35, 127
11, 5268, Note_on_c, 9, 54, 87
11, 5280, Note_off_c, 9, 38, 0
11, 5280, Note_off_c, 9, 39, 0
11, 5280, Note_off_c, 9, 42, 0
11, 5280, Note_off_c, 9, 54, 0
11, 5280, Note_on_c, 9, 39, 127
11, 5280, Note_on_c, 9, 42, 127
11, 5280, Note_on_c, 9, 54, 127
11, 5292, Note_off_c, 9, 54, 0
11, 5292, Note_on_c, 9, 35, 127
11, 5292, Note_on_c, 9, 54, 87
11, 5304, Note_off_c, 9, 38, 0
11, 5304, Note_off_c, 9, 39, 0
11, 5304, Note_off_c, 9, 42, 0
11, 5304, Note_off_c, 9, 54, 0
11, 5304, Note_on_c, 9, 39, 127
11, 5304, Note_on_c, 9, 42, 127
11, 5304, Note_on_c, 9, 54, 107
11, 5316, Note_off_c, 9, 35, 0
11, 5316, Note_off_c, 9, 54, 0
11, 5316, Note_on_c, 9, 35, 127
11, 5316, Note_on_c, 9, 54, 87
11, 5328, Note_off_c, 9, 39, 0
11, 5328, Note_off_c, 9, 42, 0
11, 5328, Note_off_c, 9, 54, 0
11, 5328, Note_on_c, 9, 39, 127
11, 5328, Note_on_c, 9, 42, 127
11, 5328, Note_on_c, 9, 54, 127
11, 5340, Note_off_c, 9, 35, 0
11, 5340, Note_off_c, 9, 54, 0
11, 5340, Note_on_c, 9, 38, 127
11, 5340, Note_on_c, 9, 54, 87
11, 5352, Note_off_c, 9, 39, 0
11, 5352, Note_off_c, 9, 42, 0
11, 5352, Note_off_c, 9, 54, 0
11, 5352, Note_on_c, 9, 38, 127
11, 5352, Note_on_c, 9, 39, 127
11, 5352, Note_on_c, 9, 42, 127
11, 5352, Note_on_c, 9, 54, 107
11, 5364, Note_off_c, 9, 35, 0
11, 5364, Note_off_c, 9, 54, 0
11, 5364, Note_on_c, 9, 38, 127
11, 5364, Note_on_c, 9, 54, 87
11, 5376, Note_off_c, 9, 39, 0
11, 5376, Note_off_c, 9, 42, 0
11, 5376, Note_off_c, 9, 54, 0
11, 5376, Note_on_c, 9, 35, 127
11, 5376, Note_on_c, 9, 42, 127
11, 5376, Note_on_c, 9, 46, 127
11, 5376, Note_on_c, 9, 49, 127
11, 5376, Note_on_c, 9, 54, 127
11, 5388, Note_off_c, 9, 38, 0
11, 5388, Note_off_c, 9, 54, 0
11, 5388, Note_on_c, 9, 54, 87
11, 5400, Note_off_c, 9, 38, 0
11, 5400, Note_off_c, 9, 39, 0
11, 5400, Note_off_c, 9, 42, 0
11, 5400, Note_off_c, 9, 54, 0
11, 5400, Note_on_c, 9, 39, 127
11, 5400, Note_on_c, 9, 42, 127
11, 5400, Note_on_c, 9, 54, 107
11, 5412, Note_off_c, 9, 38, 0
11, 5412, Note_off_c, 9, 54, 0
11, 5412, Note_on_c, 9, 35, 127
11, 5412, Note_on_c, 9, 54, 87
11, 5424, Note_off_c, 9, 35, 0
11, 5424, Note_off_c, 9, 42, 0
11, 5424, Note_off_c, 9, 46, 0
11, 5424, Note_off_c, 9, 49, 0
11, 5424, Note_off_c, 9, 54, 0
11, 5424, Note_on_c, 9, 38, 127
11, 5424, Note_on_c, 9, 39, 127
11, 5424, Note_on_c, 9, 42, 127
11, 5424, Note_on_c, 9, 54, 127
11, 5436, Note_off_c, 9, 54, 0
11, 5436, Note_on_c, 9, 54, 87
11, 5448, Note_off_c, 9, 39, 0
11, 5448, Note_off_c, 9, 42, 0
11, 5448, Note_off_c, 9, 54, 0
11, 5448, Note_on_c, 9, 38, 127
11, 5448, Note_on_c, 9, 39, 127
11, 5448, Note_on_c, 9, 42, 127
11, 5448, Note_on_c, 9, 54, 107
11, 5460, Note_off_c, 9, 35, 0
11, 5460, Note_off_c, 9, 54, 0
11, 5460, Note_on_c, 9, 35, 127
11, 5460, Note_on_c, 9, 54, 87
11, 5472, Note_off_c, 9, 38, 0
11, 5472, Note_off_c, 9, 39, 0
11, 5472, Note_off_c, 9, 42, 0
11, 5472, Note_off_c, 9, 54, 0
11, 5472, Note_on_c, 9, 39, 127
11, 5472, Note_on_c, 9, 42, 127
11, 5472, Note_on_c, 9, 54, 127
11, 5484, Note_off_c, 9, 54, 0
11, 5484, Note_on_c, 9, 35, 127
11, 5484, Note_on_c, 9, 54, 87
11, 5496, Note_off_c, 9, 38, 0
11, 5496, Note_off_c, 9, 39, 0
11, 5496, Note_off_c, 9, 42, 0
11, 5496, Note_off_c, 9, 54, 0
11, 5496, Note_on_c, 9, 39, 127
11, 5496, Note_on_c, 9, 42, 127
11, 5496, Note_on_c, 9, 54, 107
11, 5508, Note_off_c, 9, 35, 0
11, 5508, Note_off_c, 9, 54, 0
11, 5508, Note_on_c, 9, 35, 127
11, 5508, Note_on_c, 9, 54, 87
11, 5520, Note_off_c, 9, 39, 0
11, 5520, Note_off_c, 9, 42, 0
11, 5520, Note_off_c, 9, 54, 0
11, 5520, Note_on_c, 9, 38, 127
11, 5520, Note_on_c, 9, 39, 127
11, 5520, Note_on_c, 9, 42, 127
11, 5520, Note_on_c, 9, 54, 127
11, 5532, Note_off_c, 9, 35, 0
11, 5532, Note_off_c, 9, 54, 0
11, 5532, Note_on_c, 9, 44, 127
11, 5532, Note_on_c, 9, 54, 87
11, 5544, Note_off_c, 9, 39, 0
11, 5544, Note_off_c, 9, 42, 0
11, 5544, Note_off_c, 9, 54, 0
11, 5544, Note_on_c, 9, 38, 127
11, 5544, Note_on_c, 9, 39, 127
11, 5544, Note_on_c, 9, 46, 127
11, 5544, Note_on_c, 9, 54, 107
11, 5556, Note_off_c, 9, 35, 0
11, 5556, Note_off_c, 9, 54, 0
11, 5556, Note_on_c, 9, 44, 127
11, 5556, Note_on_c, 9, 54, 87
11, 5568, Note_off_c, 9, 38, 0
11, 5568, Note_off_c, 9, 39, 0
11, 5568, Note_off_c, 9, 42, 0
11, 5568, Note_off_c, 9, 54, 0
11, 5568, Note_on_c, 9, 35, 127
11, 5568, Note_on_c, 9, 42, 127
11, 5568, Note_on_c, 9, 54, 127
11, 5580, Note_off_c, 9, 44, 0
11, 5580, Note_off_c, 9, 54, 0
11, 5580, Note_on_c, 9, 54, 87
11, 5592, Note_off_c, 9, 38, 0
11, 5592, Note_off_c, 9, 39, 0
11, 5592, Note_off_c, 9, 46, 0
11, 5592, Note_off_c, 9, 54, 0
11, 5592, Note_on_c, 9, 39, 127
11, 5592, Note_on_c, 9, 42, 127
11, 5592, Note_on_c, 9, 54, 107
11, 5604, Note_off_c, 9, 44, 0
11, 5604, Note_off_c, 9, 54, 0
11, 5604, Note_on_c, 9, 35, 127
11, 5604, Note_on_c, 9, 54, 87
11, 5616, Note_off_c, 9, 35, 0
11, 5616, Note_off_c, 9, 42, 0
11, 5616, Note_off_c, 9, 54, 0
11, 5616, Note_on_c, 9, 38, 127
11, 5616, Note_on_c, 9, 39, 127
11, 5616, Note_on_c, 9, 42, 127
11, 5616, Note_on_c, 9, 54, 127
11, 5628, Note_off_c, 9, 54, 0
11, 5628, Note_on_c, 9, 54, 87
11, 5640, Note_off_c, 9, 39, 0
11, 5640, Note_off_c, 9, 42, 0
11, 5640, Note_off_c, 9, 54, 0
11, 5640, Note_on_c, 9, 38, 127
11, 5640, Note_on_c, 9, 39, 127
11, 5640, Note_on_c, 9, 42, 127
11, 5640, Note_on_c, 9, 54, 107
11, 5652, Note_off_c, 9, 35, 0
11, 5652, Note_off_c, 9, 54, 0
11, 5652, Note_on_c, 9, 35, 127
11, 5652, Note_on_c, 9, 54, 87
11, 5664, Note_off_c, 9, 38, 0
11, 5664, Note_off_c, 9, 39, 0
11, 5664, Note_off_c, 9, 42, 0
11, 5664, Note_off_c, 9, 54, 0
11, 5664, Note_on_c, 9, 39, 127
11, 5664, Note_on_c, 9, 42, 127
11, 5664, Note_on_c, 9, 54, 127
11, 5676, Note_off_c, 9, 54, 0
11, 5676, Note_on_c, 9, 35, 127
11, 5676, Note_on_c, 9, 54, 87
11, 5688, Note_off_c, 9, 38, 0
11, 5688, Note_off_c, 9, 39, 0
11, 5688, Note_off_c, 9, 42, 0
11, 5688, Note_off_c, 9, 54, 0
11, 5688, Note_on_c, 9, 39, 127
11, 5688, Note_on_c, 9, 42, 127
11, 5688, Note_on_c, 9, 54, 107
11, 5700, Note_off_c, 9, 35, 0
11, 5700, Note_off_c, 9, 54, 0
11, 5700, Note_on_c, 9, 35, 127
11, 5700, Note_on_c, 9, 54, 87
11, 5712, Note_off_c, 9, 39, 0
11, 5712, Note_off_c, 9, 42, 0
11, 5712, Note_off_c, 9, 54, 0
11, 5712, Note_on_c, 9, 38, 127
11, 5712, Note_on_c, 9, 39, 127
11, 5712, Note_on_c, 9, 42, 127
11, 5712, Note_on_c, 9, 54, 127
11, 5724, Note_off_c, 9, 35, 0
11, 5724, Note_off_c, 9, 54, 0
11, 5724, Note_on_c, 9, 44, 127
11, 5724, Note_on_c, 9, 54, 87
11, 5736, Note_off_c, 9, 39, 0
11, 5736, Note_off_c, 9, 42, 0
11, 5736, Note_off_c, 9, 54, 0
11, 5736, Note_on_c, 9, 38, 127
11, 5736, Note_on_c, 9, 39, 127
11, 5736, Note_on_c, 9, 46, 127
11, 5736, Note_on_c, 9, 54, 107
11, 5748, Note_off_c, 9, 35, 0
11, 5748, Note_off_c, 9, 54, 0
11, 5748, Note_on_c, 9, 44, 127
11, 5748, Note_on_c, 9, 54, 87
11, 5760, Note_off_c, 9, 38, 0
11, 5760, Note_off_c, 9, 39, 0
11, 5760, Note_off_c, 9, 42, 0
11, 5760, Note_off_c, 9, 54, 0
11, 5760, Note_on_c, 9, 54, 127
11, 5772, Note_off_c, 9, 44, 0
11, 5772, Note_off_c, 9, 54, 0
11, 5772, Note_on_c, 9, 54, 87
11, 5784, Note_off_c, 9, 38, 0
11, 5784, Note_off_c, 9, 39, 0
11, 5784, Note_off_c, 9, 46, 0
11, 5784, Note_off_c, 9, 54, 0
11, 5784, Note_on_c, 9, 54, 107
11, 5796, Note_off_c, 9, 44, 0
11, 5796, Note_off_c, 9, 54, 0
11, 5796, Note_on_c, 9, 54, 87
11, 5808, Note_off_c, 9, 54, 0
11, 5808, Note_on_c, 9, 54, 127
11, 5820, Note_off_c, 9, 54, 0
11, 5820, Note_on_c, 9, 54, 87
11, 5832, Note_off_c, 9, 54, 0
11, 5832, Note_on_c, 9, 54, 107
11, 5844, Note_off_c, 9, 54, 0
11, 5844, Note_on_c, 9, 54, 87
11, 5856, Note_off_c, 9, 54, 0
11, 5856, Note_on_c, 9, 54, 127
11, 5868, Note_off_c, 9, 54, 0
11, 5868, Note_on_c, 9, 54, 87
11, 5880, Note_off_c, 9, 54, 0
11, 5880, Note_on_c, 9, 54, 107
11, 5892, Note_off_c, 9, 54, 0
11, 5892, Note_on_c, 9, 54, 87
11, 5904, Note_off_c, 9, 54, 0
11, 5904, Note_on_c, 9, 54, 127
11, 5916, Note_off_c, 9, 54, 0
11, 5916, Note_on_c, 9, 54, 87
11, 5928, Note_off_c, 9, 54, 0
11, 5928, Note_on_c, 9, 54, 107
11, 5940, Note_off_c, 9, 54, 0
11, 5940, Note_on_c, 9, 54, 87
11, 5952, Note_off_c, 9, 54, 0
11, 5952, Note_on_c, 9, 54, 127
11, 5964, Note_off_c, 9, 54, 0
11, 5964, Note_on_c, 9, 54, 87
11, 5976, Note_off_c, 9, 54, 0
11, 5976, Note_on_c, 9, 54, 107
11, 5988, Note_off_c, 9, 54, 0
11, 5988, Note_on_c, 9, 54, 87
11, 6000, Note_off_c, 9, 54, 0
11, 6000, Note_on_c, 9, 54, 127
11, 6012, Note_off_c, 9, 54, 0
11, 6012, Note_on_c, 9, 54, 87
11, 6024, Note_off_c, 9, 54, 0
11, 6024, Note_on_c, 9, 54, 107
11, 6036, Note_off_c, 9, 54, 0
11, 6036, Note_on_c, 9, 54, 87
11, 6048, Note_off_c, 9, 54, 0
11, 6048, Note_on_c, 9, 54, 127
11, 6060, Note_off_c, 9, 54, 0
11, 6060, Note_on_c, 9, 54, 87
11, 6072, Note_off_c, 9, 54, 0
11, 6072, Note_on_c, 9, 54, 107
11, 6084, Note_off_c, 9, 54, 0
11, 6084, Note_on_c, 9, 54, 87
11, 6096, Note_off_c, 9, 54, 0
11, 6096, Note_on_c, 9, 54, 127
11, 6108, Note_off_c, 9, 54, 0
11, 6108, Note_on_c, 9, 54, 87
11, 6120, Note_off_c, 9, 54, 0
11, 6120, Note_on_c, 9, 54, 107
11, 6132, Note_off_c, 9, 54, 0
11, 6132, Note_on_c, 9, 54, 87
11, 6144, Note_off_c, 9, 54, 0
11, 6144, Note_on_c, 9, 54, 127
11, 6156, Note_off_c, 9, 54, 0
11, 6156, Note_on_c, 9, 54, 87
11, 6168, Note_off_c, 9, 54, 0
11, 6168, Note_on_c, 9, 54, 107
11, 6180, Note_off_c, 9, 54, 0
11, 6180, Note_on_c, 9, 54, 87
11, 6192, Note_off_c, 9, 54, 0
11, 6192, Note_on_c, 9, 54, 127
11, 6204, Note_off_c, 9, 54, 0
11, 6204, Note_on_c, 9, 54, 87
11, 6216, Note_off_c, 9, 54, 0
11, 6216, Note_on_c, 9, 54, 107
11, 6228, Note_off_c, 9, 54, 0
11, 6228, Note_on_c, 9, 54, 87
11, 6240, Note_off_c, 9, 54, 0
11, 6240, Note_on_c, 9, 54, 127
11, 6252, Note_off_c, 9, 54, 0
11, 6252, Note_on_c, 9, 54, 87
11, 6264, Note_off_c, 9, 54, 0
11, 6264, Note_on_c, 9, 54, 107
11, 6276, Note_off_c, 9, 54, 0
11, 6276, Note_on_c, 9, 54, 87
11, 6288, Note_off_c, 9, 54, 0
11, 6288, Note_on_c, 9, 54, 127
11, 6300, Note_off_c, 9, 54, 0
11, 6300, Note_on_c, 9, 54, 87
11, 6312, Note_off_c, 9, 54, 0
11, 6312, Note_on_c, 9, 54, 107
11, 6324, Note_off_c, 9, 54, 0
11, 6324, Note_on_c, 9, 54, 87
11, 6336, Note_off_c, 9, 54, 0
11, 6336, Note_on_c, 9, 35, 127
11, 6336, Note_on_c, 9, 42, 127
11, 6336, Note_on_c, 9, 46, 127
11, 6336, Note_on_c, 9, 49, 127
11, 6336, Note_on_c, 9, 54, 127
11, 6348, Note_off_c, 9, 54, 0
11, 6348, Note_on_c, 9, 54, 87
11, 6360, Note_off_c, 9, 54, 0
11, 6360, Note_on_c, 9, 39, 127
11, 6360, Note_on_c, 9, 42, 127
11, 6360, Note_on_c, 9, 54, 107
11, 6372, Note_off_c, 9, 54, 0
11, 6372, Note_on_c, 9, 35, 127
11, 6372, Note_on_c, 9, 54, 87
11, 6384, Note_off_c, 9, 35, 0
11, 6384, Note_off_c, 9, 42, 0
11, 6384, Note_off_c, 9, 46, 0
11, 6384, Note_off_c, 9, 49, 0
11, 6384, Note_off_c, 9, 54, 0
11, 6384, Note_on_c, 9, 38, 127
11, 6384, Note_on_c, 9, 39, 127
11, 6384, Note_on_c, 9, 42, 127
11, 6384, Note_on_c, 9, 54, 127
11, 6396, Note_off_c, 9, 54, 0
11, 6396, Note_on_c, 9, 54, 87
11, 6408, Note_off_c, 9, 39, 0
11, 6408, Note_off_c, 9, 42, 0
11, 6408, Note_off_c, 9, 54, 0
11, 6408, Note_on_c, 9, 38, 127
11, 6408, Note_on_c, 9, 39, 127
11, 6408, Note_on_c, 9, 42, 127
11, 6408, Note_on_c, 9, 54, 107
11, 6420, Note_off_c, 9, 35, 0
11, 6420, Note_off_c, 9, 54, 0
11, 6420, Note_on_c, 9, 35, 127
11, 6420, Note_on_c, 9, 54, 87
11, 6432, Note_off_c, 9, 38, 0
11, 6432, Note_off_c, 9, 39, 0
11, 6432, Note_off_c, 9, 42, 0
11, 6432, Note_off_c, 9, 54, 0
11, 6432, Note_on_c, 9, 39, 127
11, 6432, Note_on_c, 9, 42, 127
11, 6432, Note_on_c, 9, 54, 127
11, 6444, Note_off_c, 9, 54, 0
11, 6444, Note_on_c, 9, 35, 127
11, 6444, Note_on_c, 9, 54, 87
11, 6456, Note_off_c, 9, 38, 0
11, 6456, Note_off_c, 9, 39, 0
11, 6456, Note_off_c, 9, 42, 0
11, 6456, Note_off_c, 9, 54, 0
11, 6456, Note_on_c, 9, 39, 127
11, 6456, Note_on_c, 9, 42, 127
11, 6456, Note_on_c, 9, 54, 107
11, 6468, Note_off_c, 9, 35, 0
11, 6468, Note_off_c, 9, 54, 0
11, 6468, Note_on_c, 9, 35, 127
11, 6468, Note_on_c, 9, 54, 87
11, 6480, Note_off_c, 9, 39, 0
11, 6480, Note_off_c, 9, 42, 0
11, 6480, Note_off_c, 9, 54, 0
11, 6480, Note_on_c, 9, 38, 127
11, 6480, Note_on_c, 9, 39, 127
11, 6480, Note_on_c, 9, 42, 127
11, 6480, Note_on_c, 9, 54, 127
11, 6492, Note_off_c, 9, 35, 0
11, 6492, Note_off_c, 9, 54, 0
11, 6492, Note_on_c, 9, 54, 87
11, 6504, Note_off_c, 9, 39, 0
11, 6504, Note_off_c, 9, 42, 0
11, 6504, Note_off_c, 9, 54, 0
11, 6504, Note_on_c, 9, 38, 127
11, 6504, Note_on_c, 9, 39, 127
11, 6504, Note_on_c, 9, 46, 127
11, 6504, Note_on_c, 9, 54, 107
11, 6516, Note_off_c, 9, 35, 0
11, 6516, Note_off_c, 9, 54, 0
11, 6516, Note_on_c, 9, 54, 87
11, 6528, Note_off_c, 9, 38, 0
11, 6528, Note_off_c, 9, 39, 0
11, 6528, Note_off_c, 9, 42, 0
11, 6528, Note_off_c, 9, 54, 0
11, 6528, Note_on_c, 9, 35, 127
11, 6528, Note_on_c, 9, 42, 127
11, 6528, Note_on_c, 9, 54, 127
11, 6540, Note_off_c, 9, 54, 0
11, 6540, Note_on_c, 9, 54, 87
11, 6552, Note_off_c, 9, 38, 0
11, 6552, Note_off_c, 9, 39, 0
11, 6552, Note_off_c, 9, 46, 0
11, 6552, Note_off_c, 9, 54, 0
11, 6552, Note_on_c, 9, 39, 127
11, 6552, Note_on_c, 9, 42, 127
11, 6552, Note_on_c, 9, 54, 107
11, 6564, Note_off_c, 9, 54, 0
11, 6564, Note_on_c, 9, 35, 127
11, 6564, Note_on_c, 9, 54, 87
11, 6576, Note_off_c, 9, 35, 0
11, 6576, Note_off_c, 9, 42, 0
11, 6576, Note_off_c, 9, 54, 0
11, 6576, Note_on_c, 9, 38, 127
11, 6576, Note_on_c, 9, 39, 127
11, 6576, Note_on_c, 9, 42, 127
11, 6576, Note_on_c, 9, 54, 127
11, 6588, Note_off_c, 9, 54, 0
11, 6588, Note_on_c, 9, 54, 87
11, 6600, Note_off_c, 9, 39, 0
11, 6600, Note_off_c, 9, 42, 0
11, 6600, Note_off_c, 9, 54, 0
11, 6600, Note_on_c, 9, 38, 127
11, 6600, Note_on_c, 9, 39, 127
11, 6600, Note_on_c, 9, 42, 127
11, 6600, Note_on_c, 9, 54, 107
11, 6612, Note_off_c, 9, 35, 0
11, 6612, Note_off_c, 9, 54, 0
11, 6612, Note_on_c, 9, 35, 127
11, 6612, Note_on_c, 9, 54, 87
11, 6624, Note_off_c, 9, 38, 0
11, 6624, Note_off_c, 9, 39, 0
11, 6624, Note_off_c, 9, 42, 0
11, 6624, Note_off_c, 9, 54, 0
11, 6624, Note_on_c, 9, 39, 127
11, 6624, Note_on_c, 9, 42, 127
11, 6624, Note_on_c, 9, 54, 127
11, 6636, Note_off_c, 9, 54, 0
11, 6636, Note_on_c, 9, 35, 127
11, 6636, Note_on_c, 9, 54, 87
11, 6648, Note_off_c, 9, 38, 0
11, 6648, Note_off_c, 9, 39, 0
11, 6648, Note_off_c, 9, 42, 0
11, 6648, Note_off_c, 9, 54, 0
11, 6648, Note_on_c, 9, 39, 127
11, 6648, Note_on_c, 9, 42, 127
11, 6648, Note_on_c, 9, 54, 107
11, 6660, Note_off_c, 9, 35, 0
11, 6660, Note_off_c, 9, 54, 0
11, 6660, Note_on_c, 9, 35, 127
11, 6660, Note_on_c, 9, 54, 87
11, 6672, Note_off_c, 9, 39, 0
11, 6672, Note_off_c, 9, 42, 0
11, 6672, Note_off_c, 9, 54, 0
11, 6672, Note_on_c, 9, 38, 127
11, 6672, Note_on_c, 9, 39, 127
11, 6672, Note_on_c, 9, 42, 127
11, 6672, Note_on_c, 9, 54, 127
11, 6684, Note_off_c, 9, 35, 0
11, 6684, Note_off_c, 9, 54, 0
11, 6684, Note_on_c, 9, 54, 87
11, 6696, Note_off_c, 9, 39, 0
11, 6696, Note_off_c, 9, 42, 0
11, 6696, Note_off_c, 9, 54, 0
11, 6696, Note_on_c, 9, 38, 127
11, 6696, Note_on_c, 9, 39, 127
11, 6696, Note_on_c, 9, 46, 127
11, 6696, Note_on_c, 9, 54, 107
11, 6708, Note_off_c, 9, 35, 0
11, 6708, Note_off_c, 9, 54, 0
11, 6708, Note_on_c, 9, 54, 87
11, 6720, Note_off_c, 9, 38, 0
11, 6720, Note_off_c, 9, 39, 0
11, 6720, Note_off_c, 9, 42, 0
11, 6720, Note_off_c, 9, 54, 0
11, 6720, Note_on_c, 9, 35, 127
11, 6720, Note_on_c, 9, 42, 127
11, 6720, Note_on_c, 9, 54, 127
11, 6732, Note_off_c, 9, 54, 0
11, 6732, Note_on_c, 9, 54, 87
11, 6744, Note_off_c, 9, 38, 0
11, 6744, Note_off_c, 9, 39, 0
11, 6744, Note_off_c, 9, 46, 0
11, 6744, Note_off_c, 9, 54, 0
11, 6744, Note_on_c, 9, 39, 127
11, 6744, Note_on_c, 9, 42, 127
11, 6744, Note_on_c, 9, 54, 107
11, 6756, Note_off_c, 9, 54, 0
11, 6756, Note_on_c, 9, 35, 127
11, 6756, Note_on_c, 9, 54, 87
11, 6768, Note_off_c, 9, 35, 0
11, 6768, Note_off_c, 9, 42, 0
11, 6768, Note_off_c, 9, 54, 0
11, 6768, Note_on_c, 9, 38, 127
11, 6768, Note_on_c, 9, 39, 127
11, 6768, Note_on_c, 9, 42, 127
11, 6768, Note_on_c, 9, 54, 127
11, 6780, Note_off_c, 9, 54, 0
11, 6780, Note_on_c, 9, 54, 87
11, 6792, Note_off_c, 9, 39, 0
11, 6792, Note_off_c, 9, 42, 0
11, 6792, Note_off_c, 9, 54, 0
11, 6792, Note_on_c, 9, 38, 127
11, 6792, Note_on_c, 9, 39, 127
11, 6792, Note_on_c, 9, 42, 127
11, 6792, Note_on_c, 9, 54, 107
11, 6804, Note_off_c, 9, 35, 0
11, 6804, Note_off_c, 9, 54, 0
11, 6804, Note_on_c, 9, 35, 127
11, 6804, Note_on_c, 9, 54, 87
11, 6816, Note_off_c, 9, 38, 0
11, 6816, Note_off_c, 9, 39, 0
11, 6816, Note_off_c, 9, 42, 0
11, 6816, Note_off_c, 9, 54, 0
11, 6816, Note_on_c, 9, 39, 127
11, 6816, Note_on_c, 9, 42, 127
11, 6816, Note_on_c, 9, 54, 127
11, 6828, Note_off_c, 9, 54, 0
11, 6828, Note_on_c, 9, 35, 127
11, 6828, Note_on_c, 9, 54, 87
11, 6840, Note_off_c, 9, 38, 0
11, 6840, Note_off_c, 9, 39, 0
11, 6840, Note_off_c, 9, 42, 0
11, 6840, Note_off_c, 9, 54, 0
11, 6840, Note_on_c, 9, 39, 127
11, 6840, Note_on_c, 9, 42, 127
11, 6840, Note_on_c, 9, 54, 107
11, 6852, Note_off_c, 9, 35, 0
11, 6852, Note_off_c, 9, 54, 0
11, 6852, Note_on_c, 9, 35, 127
11, 6852, Note_on_c, 9, 54, 87
11, 6864, Note_off_c, 9, 39, 0
11, 6864, Note_off_c, 9, 42, 0
11, 6864, Note_off_c, 9, 54, 0
11, 6864, Note_on_c, 9, 38, 127
11, 6864, Note_on_c, 9, 39, 127
11, 6864, Note_on_c, 9, 42, 127
11, 6864, Note_on_c, 9, 54, 127
11, 6876, Note_off_c, 9, 35, 0
11, 6876, Note_off_c, 9, 54, 0
11, 6876, Note_on_c, 9, 54, 87
11, 6888, Note_off_c, 9, 39, 0
11, 6888, Note_off_c, 9, 42, 0
11, 6888, Note_off_c, 9, 54, 0
11, 6888, Note_on_c, 9, 38, 127
11, 6888, Note_on_c, 9, 39, 127
11, 6888, Note_on_c, 9, 46, 127
11, 6888, Note_on_c, 9, 54, 107
11, 6900, Note_off_c, 9, 35, 0
11, 6900, Note_off_c, 9, 54, 0
11, 6900, Note_on_c, 9, 54, 87
11, 6912, Note_off_c, 9, 38, 0
11, 6912, Note_off_c, 9, 39, 0
11, 6912, Note_off_c, 9, 42, 0
11, 6912, Note_off_c, 9, 54, 0
11, 6912, Note_on_c, 9, 35, 127
11, 6912, Note_on_c, 9, 42, 127
11, 6912, Note_on_c, 9, 54, 127
11, 6924, Note_off_c, 9, 54, 0
11, 6924, Note_on_c, 9, 54, 87
11, 6936, Note_off_c, 9, 38, 0
11, 6936, Note_off_c, 9, 39, 0
11, 6936, Note_off_c, 9, 46, 0
11, 6936, Note_off_c, 9, 54, 0
11, 6936, Note_on_c, 9, 39, 127
11, 6936, Note_on_c, 9, 42, 127
11, 6936, Note_on_c, 9, 54, 107
11, 6948, Note_off_c, 9, 54, 0
11, 6948, Note_on_c, 9, 35, 127
11, 6948, Note_on_c, 9, 54, 87
11, 6960, Note_off_c, 9, 35, 0
11, 6960, Note_off_c, 9, 42, 0
11, 6960, Note_off_c, 9, 54, 0
11, 6960, Note_on_c, 9, 38, 127
11, 6960, Note_on_c, 9, 39, 127
11, 6960, Note_on_c, 9, 42, 127
11, 6960, Note_on_c, 9, 54, 127
11, 6972, Note_off_c, 9, 54, 0
11, 6972, Note_on_c, 9, 54, 87
11, 6984, Note_off_c, 9, 39, 0
11, 6984, Note_off_c, 9, 42, 0
11, 6984, Note_off_c, 9, 54, 0
11, 6984, Note_on_c, 9, 38, 127
11, 6984, Note_on_c, 9, 39, 127
11, 6984, Note_on_c, 9, 42, 127
11, 6984, Note_on_c, 9, 54, 107
11, 6996, Note_off_c, 9, 35, 0
11, 6996, Note_off_c, 9, 54, 0
11, 6996, Note_on_c, 9, 35, 127
11, 6996, Note_on_c, 9, 54, 87
11, 7008, Note_off_c, 9, 38, 0
11, 7008, Note_off_c, 9, 39, 0
11, 7008, Note_off_c, 9, 42, 0
11, 7008, Note_off_c, 9, 54, 0
11, 7008, Note_on_c, 9, 39, 127
11, 7008, Note_on_c, 9, 42, 127
11, 7008, Note_on_c, 9, 54, 127
11, 7020, Note_off_c, 9, 54, 0
11, 7020, Note_on_c, 9, 35, 127
11, 7020, Note_on_c, 9, 54, 87
11, 7032, Note_off_c, 9, 38, 0
11, 7032, Note_off_c, 9, 39, 0
11, 7032, Note_off_c, 9, 42, 0
11, 7032, Note_off_c, 9, 54, 0
11, 7032, Note_on_c, 9, 39, 127
11, 7032, Note_on_c, 9, 42, 127
11, 7032, Note_on_c, 9, 54, 107
11, 7044, Note_off_c, 9, 35, 0
11, 7044, Note_off_c, 9, 54, 0
11, 7044, Note_on_c, 9, 35, 127
11, 7044, Note_on_c, 9, 54, 87
11, 7056, Note_off_c, 9, 39, 0
11, 7056, Note_off_c, 9, 42, 0
11, 7056, Note_off_c, 9, 54, 0
11, 7056, Note_on_c, 9, 38, 127
11, 7056, Note_on_c, 9, 39, 127
11, 7056, Note_on_c, 9, 42, 127
11, 7056, Note_on_c, 9, 54, 127
11, 7068, Note_off_c, 9, 35, 0
11, 7068, Note_off_c, 9, 54, 0
11, 7068, Note_on_c, 9, 54, 87
11, 7080, Note_off_c, 9, 39, 0
11, 7080, Note_off_c, 9, 42, 0
11, 7080, Note_off_c, 9, 54, 0
11, 7080, Note_on_c, 9, 38, 127
11, 7080, Note_on_c, 9, 39, 127
11, 7080, Note_on_c, 9, 46, 127
11, 7080, Note_on_c, 9, 54, 107
11, 7092, Note_off_c, 9, 35, 0
11, 7092, Note_off_c, 9, 54, 0
11, 7092, Note_on_c, 9, 54, 87
11, 7104, Note_off_c, 9, 38, 0
11, 7104, Note_off_c, 9, 39, 0
11, 7104, Note_off_c, 9, 42, 0
11, 7104, Note_off_c, 9, 54, 0
11, 7104, Note_on_c, 9, 35, 127
11, 7104, Note_on_c, 9, 42, 127
11, 7104, Note_on_c, 9, 54, 127
11, 7116, Note_off_c, 9, 54, 0
11, 7116, Note_on_c, 9, 54, 87
11, 7128, Note_off_c, 9, 38, 0
11, 7128, Note_off_c, 9, 39, 0
11, 7128, Note_off_c, 9, 46, 0
11, 7128, Note_off_c, 9, 54, 0
11, 7128, Note_on_c, 9, 39, 127
11, 7128, Note_on_c, 9, 42, 127
11, 7128, Note_on_c, 9, 54, 107
11, 7140, Note_off_c, 9, 54, 0
11, 7140, Note_on_c, 9, 35, 127
11, 7140, Note_on_c, 9, 54, 87
11, 7152, Note_off_c, 9, 35, 0
11, 7152, Note_off_c, 9, 42, 0
11, 7152, Note_off_c, 9, 54, 0
11, 7152, Note_on_c, 9, 38, 127
11, 7152, Note_on_c, 9, 39, 127
11, 7152, Note_on_c, 9, 42, 127
11, 7152, Note_on_c, 9, 54, 127
11, 7164, Note_off_c, 9, 54, 0
11, 7164, Note_on_c, 9, 54, 87
11, 7176, Note_off_c, 9, 39, 0
11, 7176, Note_off_c, 9, 42, 0
11, 7176, Note_off_c, 9, 54, 0
11, 7176, Note_on_c, 9, 38, 127
11, 7176, Note_on_c, 9, 39, 127
11, 7176, Note_on_c, 9, 42, 127
11, 7176, Note_on_c, 9, 54, 107
11, 7188, Note_off_c, 9, 35, 0
11, 7188, Note_off_c, 9, 54, 0
11, 7188, Note_on_c, 9, 35, 127
11, 7188, Note_on_c, 9, 54, 87
11, 7200, Note_off_c, 9, 38, 0
11, 7200, Note_off_c, 9, 39, 0
11, 7200, Note_off_c, 9, 42, 0
11, 7200, Note_off_c, 9, 54, 0
11, 7200, Note_on_c, 9, 39, 127
11, 7200, Note_on_c, 9, 42, 127
11, 7200, Note_on_c, 9, 54, 127
11, 7212, Note_off_c, 9, 54, 0
11, 7212, Note_on_c, 9, 35, 127
11, 7212, Note_on_c, 9, 54, 87
11, 7224, Note_off_c, 9, 38, 0
11, 7224, Note_off_c, 9, 39, 0
11, 7224, Note_off_c, 9, 42, 0
11, 7224, Note_off_c, 9, 54, 0
11, 7224, Note_on_c, 9, 39, 127
11, 7224, Note_on_c, 9, 42, 127
11, 7224, Note_on_c, 9, 54, 107
11, 7236, Note_off_c, 9, 35, 0
11, 7236, Note_off_c, 9, 54, 0
11, 7236, Note_on_c, 9, 35, 127
11, 7236, Note_on_c, 9, 54, 87
11, 7248, Note_off_c, 9, 39, 0
11, 7248, Note_off_c, 9, 42, 0
11, 7248, Note_off_c, 9, 54, 0
11, 7248, Note_on_c, 9, 38, 127
11, 7248, Note_on_c, 9, 39, 127
11, 7248, Note_on_c, 9, 42, 127
11, 7248, Note_on_c, 9, 54, 127
11, 7260, Note_off_c, 9, 35, 0
11, 7260, Note_off_c, 9, 54, 0
11, 7260, Note_on_c, 9, 54, 87
11, 7272, Note_off_c, 9, 39, 0
11, 7272, Note_off_c, 9, 42, 0
11, 7272, Note_off_c, 9, 54, 0
11, 7272, Note_on_c, 9, 38, 127
11, 7272, Note_on_c, 9, 39, 127
11, 7272, Note_on_c, 9, 46, 127
11, 7272, Note_on_c, 9, 54, 107
11, 7284, Note_off_c, 9, 35, 0
11, 7284, Note_off_c, 9, 54, 0
11, 7284, Note_on_c, 9, 54, 87
11, 7296, Note_off_c, 9, 38, 0
11, 7296, Note_off_c, 9, 39, 0
11, 7296, Note_off_c, 9, 42, 0
11, 7296, Note_off_c, 9, 54, 0
11, 7296, Note_on_c, 9, 35, 127
11, 7296, Note_on_c, 9, 42, 127
11, 7296, Note_on_c, 9, 54, 127
11, 7308, Note_off_c, 9, 54, 0
11, 7308, Note_on_c, 9, 54, 87
11, 7320, Note_off_c, 9, 38, 0
11, 7320, Note_off_c, 9, 39, 0
11, 7320, Note_off_c, 9, 46, 0
11, 7320, Note_off_c, 9, 54, 0
11, 7320, Note_on_c, 9, 39, 127
11, 7320, Note_on_c, 9, 42, 127
11, 7320, Note_on_c, 9, 54, 107
11, 7332, Note_off_c, 9, 54, 0
11, 7332, Note_on_c, 9, 35, 127
11, 7332, Note_on_c, 9, 54, 87
11, 7344, Note_off_c, 9, 35, 0
11, 7344, Note_off_c, 9, 42, 0
11, 7344, Note_off_c, 9, 54, 0
11, 7344, Note_on_c, 9, 38, 127
11, 7344, Note_on_c, 9, 39, 127
11, 7344, Note_on_c, 9, 42, 127
11, 7344, Note_on_c, 9, 54, 127
11, 7356, Note_off_c, 9, 54, 0
11, 7356, Note_on_c, 9, 54, 87
11, 7368, Note_off_c, 9, 39, 0
11, 7368, Note_off_c, 9, 42, 0
11, 7368, Note_off_c, 9, 54, 0
11, 7368, Note_on_c, 9, 38, 127
11, 7368, Note_on_c, 9, 39, 127
11, 7368, Note_on_c, 9, 42, 127
11, 7368, Note_on_c, 9, 54, 107
11, 7380, Note_off_c, 9, 35, 0
11, 7380, Note_off_c, 9, 54, 0
11, 7380, Note_on_c, 9, 35, 127
11, 7380, Note_on_c, 9, 54, 87
11, 7392, Note_off_c, 9, 38, 0
11, 7392, Note_off_c, 9, 39, 0
11, 7392, Note_off_c, 9, 42, 0
11, 7392, Note_off_c, 9, 54, 0
11, 7392, Note_on_c, 9, 39, 127
11, 7392, Note_on_c, 9, 42, 127
11, 7392, Note_on_c, 9, 54, 127
11, 7404, Note_off_c, 9, 54, 0
11, 7404, Note_on_c, 9, 35, 127
11, 7404, Note_on_c, 9, 54, 87
11, 7416, Note_off_c, 9, 38, 0
11, 7416, Note_off_c, 9, 39, 0
11, 7416, Note_off_c, 9, 42, 0
11, 7416, Note_off_c, 9, 54, 0
11, 7416, Note_on_c, 9, 39, 127
11, 7416, Note_on_c, 9, 42, 127
11, 7416, Note_on_c, 9, 54, 107
11, 7428, Note_off_c, 9, 35, 0
11, 7428, Note_off_c, 9, 54, 0
11, 7428, Note_on_c, 9, 35, 127
11, 7428, Note_on_c, 9, 54, 87
11, 7440, Note_off_c, 9, 39, 0
11, 7440, Note_off_c, 9, 42, 0
11, 7440, Note_off_c, 9, 54, 0
11, 7440, Note_on_c, 9, 39, 127
11, 7440, Note_on_c, 9, 42, 127
11, 7440, Note_on_c, 9, 54, 127
11, 7452, Note_off_c, 9, 35, 0
11, 7452, Note_off_c, 9, 54, 0
11, 7452, Note_on_c, 9, 38, 127
11, 7452, Note_on_c, 9, 54, 87
11, 7464, Note_off_c, 9, 39, 0
11, 7464, Note_off_c, 9, 42, 0
11, 7464, Note_off_c, 9, 54, 0
11, 7464, Note_on_c, 9, 38, 127
11, 7464, Note_on_c, 9, 39, 127
11, 7464, Note_on_c, 9, 42, 127
11, 7464, Note_on_c, 9, 54, 107
11, 7476, Note_off_c, 9, 35, 0
11, 7476, Note_off_c, 9, 54, 0
11, 7476, Note_on_c, 9, 38, 127
11, 7476, Note_on_c, 9, 54, 87
11, 7488, Note_off_c, 9, 39, 0
11, 7488, Note_off_c, 9, 42, 0
11, 7488, Note_off_c, 9, 54, 0
11, 7488, Note_on_c, 9, 35, 127
11, 7488, Note_on_c, 9, 42, 127
11, 7488, Note_on_c, 9, 46, 127
11, 7488, Note_on_c, 9, 49, 127
11, 7488, Note_on_c, 9, 54, 127
11, 7500, Note_off_c, 9, 38, 0
11, 7500, Note_off_c, 9, 54, 0
11, 7500, Note_on_c, 9, 54, 87
11, 7512, Note_off_c, 9, 38, 0
11, 7512, Note_off_c, 9, 39, 0
11, 7512, Note_off_c, 9, 42, 0
11, 7512, Note_off_c, 9, 54, 0
11, 7512, Note_on_c, 9, 39, 127
11, 7512, Note_on_c, 9, 42, 127
11, 7512, Note_on_c, 9, 54, 107
11, 7524, Note_off_c, 9, 38, 0
11, 7524, Note_off_c, 9, 54, 0
11, 7524, Note_on_c, 9, 35, 127
11, 7524, Note_on_c, 9, 54, 87
11, 7536, Note_off_c, 9, 35, 0
11, 7536, Note_off_c, 9, 42, 0
11, 7536, Note_off_c, 9, 46, 0
11, 7536, Note_off_c, 9, 49, 0
11, 7536, Note_off_c, 9, 54, 0
11, 7536, Note_on_c, 9, 38, 127
11, 7536, Note_on_c, 9, 39, 127
11, 7536, Note_on_c, 9, 42, 127
11, 7536, Note_on_c, 9, 54, 127
11, 7548, Note_off_c, 9, 54, 0
11, 7548, Note_on_c, 9, 54, 87
11, 7560, Note_off_c, 9, 39, 0
11, 7560, Note_off_c, 9, 42, 0
11, 7560, Note_off_c, 9, 54, 0
11, 7560, Note_on_c, 9, 38, 127
11, 7560, Note_on_c, 9, 39, 127
11, 7560, Note_on_c, 9, 42, 127
11, 7560, Note_on_c, 9, 54, 107
11, 7572, Note_off_c, 9, 35, 0
11, 7572, Note_off_c, 9, 54, 0
11, 7572, Note_on_c, 9, 35, 127
11, 7572, Note_on_c, 9, 54, 87
11, 7584, Note_off_c, 9, 38, 0
11, 7584, Note_off_c, 9, 39, 0
11, 7584, Note_off_c, 9, 42, 0
11, 7584, Note_off_c, 9, 54, 0
11, 7584, Note_on_c, 9, 39, 127
11, 7584, Note_on_c, 9, 42, 127
11, 7584, Note_on_c, 9, 54, 127
11, 7596, Note_off_c, 9, 54, 0
11, 7596, Note_on_c, 9, 35, 127
11, 7596, Note_on_c, 9, 54, 87
11, 7608, Note_off_c, 9, 38, 0
11, 7608, Note_off_c, 9, 39, 0
11, 7608, Note_off_c, 9, 42, 0
11, 7608, Note_off_c, 9, 54, 0
11, 7608, Note_on_c, 9, 39, 127
11, 7608, Note_on_c, 9, 42, 127
11, 7608, Note_on_c, 9, 54, 107
11, 7620, Note_off_c, 9, 35, 0
11, 7620, Note_off_c, 9, 54, 0
11, 7620, Note_on_c, 9, 35, 127
11, 7620, Note_on_c, 9, 54, 87
11, 7632, Note_off_c, 9, 39, 0
11, 7632, Note_off_c, 9, 42, 0
11, 7632, Note_off_c, 9, 54, 0
11, 7632, Note_on_c, 9, 38, 127
11, 7632, Note_on_c, 9, 39, 127
11, 7632, Note_on_c, 9, 42, 127
11, 7632, Note_on_c, 9, 54, 127
11, 7644, Note_off_c, 9, 35, 0
11, 7644, Note_off_c, 9, 54, 0
11, 7644, Note_on_c, 9, 54, 87
11, 7656, Note_off_c, 9, 39, 0
11, 7656, Note_off_c, 9, 42, 0
11, 7656, Note_off_c, 9, 54, 0
11, 7656, Note_on_c, 9, 38, 127
11, 7656, Note_on_c, 9, 39, 127
11, 7656, Note_on_c, 9, 46, 127
11, 7656, Note_on_c, 9, 54, 107
11, 7668, Note_off_c, 9, 35, 0
11, 7668, Note_off_c, 9, 54, 0
11, 7668, Note_on_c, 9, 54, 87
11, 7680, Note_off_c, 9, 38, 0
11, 7680, Note_off_c, 9, 39, 0
11, 7680, Note_off_c, 9, 42, 0
11, 7680, Note_off_c, 9, 54, 0
11, 7680, Note_on_c, 9, 35, 127
11, 7680, Note_on_c, 9, 42, 127
11, 7680, Note_on_c, 9, 54, 127
11, 7692, Note_off_c, 9, 54, 0
11, 7692, Note_on_c, 9, 54, 87
11, 7704, Note_off_c, 9, 38, 0
11, 7704, Note_off_c, 9, 39, 0
11, 7704, Note_off_c, 9, 46, 0
11, 7704, Note_off_c, 9, 54, 0
11, 7704, Note_on_c, 9, 39, 127
11, 7704, Note_on_c, 9, 42, 127
11, 7704, Note_on_c, 9, 54, 107
11, 7716, Note_off_c, 9, 54, 0
11, 7716, Note_on_c, 9, 35, 127
11, 7716, Note_on_c, 9, 54, 87
11, 7728, Note_off_c, 9, 35, 0
11, 7728, Note_off_c, 9, 42, 0
11, 7728, Note_off_c, 9, 54, 0
11, 7728, Note_on_c, 9, 38, 127
11, 7728, Note_on_c, 9, 39, 127
11, 7728, Note_on_c, 9, 42, 127
11, 7728, Note_on_c, 9, 54, 127
11, 7740, Note_off_c, 9, 54, 0
11, 7740, Note_on_c, 9, 54, 87
11, 7752, Note_off_c, 9, 39, 0
11, 7752, Note_off_c, 9, 42, 0
11, 7752, Note_off_c, 9, 54, 0
11, 7752, Note_on_c, 9, 38, 127
11, 7752, Note_on_c, 9, 39, 127
11, 7752, Note_on_c, 9, 42, 127
11, 7752, Note_on_c, 9, 54, 107
11, 7764, Note_off_c, 9, 35, 0
11, 7764, Note_off_c, 9, 54, 0
11, 7764, Note_on_c, 9, 35, 127
11, 7764, Note_on_c, 9, 54, 87
11, 7776, Note_off_c, 9, 38, 0
11, 7776, Note_off_c, 9, 39, 0
11, 7776, Note_off_c, 9, 42, 0
11, 7776, Note_off_c, 9, 54, 0
11, 7776, Note_on_c, 9, 39, 127
11, 7776, Note_on_c, 9, 42, 127
11, 7776, Note_on_c, 9, 54, 127
11, 7788, Note_off_c, 9, 54, 0
11, 7788, Note_on_c, 9, 35, 127
11, 7788, Note_on_c, 9, 54, 87
11, 7800, Note_off_c, 9, 38, 0
11, 7800, Note_off_c, 9, 39, 0
11, 7800, Note_off_c, 9, 42, 0
11, 7800, Note_off_c, 9, 54, 0
11, 7800, Note_on_c, 9, 39, 127
11, 7800, Note_on_c, 9, 42, 127
11, 7800, Note_on_c, 9, 54, 107
11, 7812, Note_off_c, 9, 35, 0
11, 7812, Note_off_c, 9, 54, 0
11, 7812, Note_on_c, 9, 35, 127
11, 7812, Note_on_c, 9, 54, 87
11, 7824, Note_off_c, 9, 39, 0
11, 7824, Note_off_c, 9, 42, 0
11, 7824, Note_off_c, 9, 54, 0
11, 7824, Note_on_c, 9, 38, 127
11, 7824, Note_on_c, 9, 39, 127
11, 7824, Note_on_c, 9, 42, 127
11, 7824, Note_on_c, 9, 54, 127
11, 7836, Note_off_c, 9, 35, 0
11, 7836, Note_off_c, 9, 54, 0
11, 7836, Note_on_c, 9, 54, 87
11, 7848, Note_off_c, 9, 39, 0
11, 7848, Note_off_c, 9, 42, 0
11, 7848, Note_off_c, 9, 54, 0
11, 7848, Note_on_c, 9, 38, 127
11, 7848, Note_on_c, 9, 39, 127
11, 7848, Note_on_c, 9, 46, 127
11, 7848, Note_on_c, 9, 54, 107
11, 7860, Note_off_c, 9, 35, 0
11, 7860, Note_off_c, 9, 54, 0
11, 7860, Note_on_c, 9, 54, 87
11, 7872, Note_off_c, 9, 38, 0
11, 7872, Note_off_c, 9, 39, 0
11, 7872, Note_off_c, 9, 42, 0
11, 7872, Note_off_c, 9, 54, 0
11, 7872, Note_on_c, 9, 35, 127
11, 7872, Note_on_c, 9, 42, 127
11, 7872, Note_on_c, 9, 54, 127
11, 7884, Note_off_c, 9, 54, 0
11, 7884, Note_on_c, 9, 54, 87
11, 7896, Note_off_c, 9, 38, 0
11, 7896, Note_off_c, 9, 39, 0
11, 7896, Note_off_c, 9, 46, 0
11, 7896, Note_off_c, 9, 54, 0
11, 7896, Note_on_c, 9, 39, 127
11, 7896, Note_on_c, 9, 42, 127
11, 7896, Note_on_c, 9, 54, 107
11, 7908, Note_off_c, 9, 54, 0
11, 7908, Note_on_c, 9, 35, 127
11, 7908, Note_on_c, 9, 54, 87
11, 7920, Note_off_c, 9, 35, 0
11, 7920, Note_off_c, 9, 42, 0
11, 7920, Note_off_c, 9, 54, 0
11, 7920, Note_on_c, 9, 38, 127
11, 7920, Note_on_c, 9, 39, 127
11, 7920, Note_on_c, 9, 42, 127
11, 7920, Note_on_c, 9, 54, 127
11, 7932, Note_off_c, 9, 54, 0
11, 7932, Note_on_c, 9, 54, 87
11, 7944, Note_off_c, 9, 39, 0
11, 7944, Note_off_c, 9, 42, 0
11, 7944, Note_off_c, 9, 54, 0
11, 7944, Note_on_c, 9, 38, 127
11, 7944, Note_on_c, 9, 39, 127
11, 7944, Note_on_c, 9, 42, 127
11, 7944, Note_on_c, 9, 54, 107
11, 7956, Note_off_c, 9, 35, 0
11, 7956, Note_off_c, 9, 54, 0
11, 7956, Note_on_c, 9, 35, 127
11, 7956, Note_on_c, 9, 54, 87
11, 7968, Note_off_c, 9, 38, 0
11, 7968, Note_off_c, 9, 39, 0
11, 7968, Note_off_c, 9, 42, 0
11, 7968, Note_off_c, 9, 54, 0
11, 7968, Note_on_c, 9, 39, 127
11, 7968, Note_on_c, 9, 42, 127
11, 7968, Note_on_c, 9, 54, 127
11, 7980, Note_off_c, 9, 54, 0
11, 7980, Note_on_c, 9, 35, 127
11, 7980, Note_on_c, 9, 54, 87
11, 7992, Note_off_c, 9, 38, 0
11, 7992, Note_off_c, 9, 39, 0
11, 7992, Note_off_c, 9, 42, 0
11, 7992, Note_off_c, 9, 54, 0
11, 7992, Note_on_c, 9, 39, 127
11, 7992, Note_on_c, 9, 42, 127
11, 7992, Note_on_c, 9, 54, 107
11, 8004, Note_off_c, 9, 35, 0
11, 8004, Note_off_c, 9, 54, 0
11, 8004, Note_on_c, 9, 35, 127
11, 8004, Note_on_c, 9, 54, 87
11, 8016, Note_off_c, 9, 39, 0
11, 8016, Note_off_c, 9, 42, 0
11, 8016, Note_off_c, 9, 54, 0
11, 8016, Note_on_c, 9, 38, 127
11, 8016, Note_on_c, 9, 39, 127
11, 8016, Note_on_c, 9, 42, 127
11, 8016, Note_on_c, 9, 54, 127
11, 8028, Note_off_c, 9, 35, 0
11, 8028, Note_off_c, 9, 54, 0
11, 8028, Note_on_c, 9, 54, 87
11, 8040, Note_off_c, 9, 39, 0
11, 8040, Note_off_c, 9, 42, 0
11, 8040, Note_off_c, 9, 54, 0
11, 8040, Note_on_c, 9, 38, 127
11, 8040, Note_on_c, 9, 39, 127
11, 8040, Note_on_c, 9, 46, 127
11, 8040, Note_on_c, 9, 54, 107
11, 8052, Note_off_c, 9, 35, 0
11, 8052, Note_off_c, 9, 54, 0
11, 8052, Note_on_c, 9, 54, 87
11, 8064, Note_off_c, 9, 38, 0
11, 8064, Note_off_c, 9, 39, 0
11, 8064, Note_off_c, 9, 42, 0
11, 8064, Note_off_c, 9, 54, 0
11, 8064, Note_on_c, 9, 35, 127
11, 8064, Note_on_c, 9, 42, 127
11, 8064, Note_on_c, 9, 54, 127
11, 8076, Note_off_c, 9, 54, 0
11, 8076, Note_on_c, 9, 54, 87
11, 8088, Note_off_c, 9, 38, 0
11, 8088, Note_off_c, 9, 39, 0
11, 8088, Note_off_c, 9, 46, 0
11, 8088, Note_off_c, 9, 54, 0
11, 8088, Note_on_c, 9, 39, 127
11, 8088, Note_on_c, 9, 42, 127
11, 8088, Note_on_c, 9, 54, 107
11, 8100, Note_off_c, 9, 54, 0
11, 8100, Note_on_c, 9, 35, 127
11, 8100, Note_on_c, 9, 54, 87
11, 8112, Note_off_c, 9, 35, 0
11, 8112, Note_off_c, 9, 42, 0
11, 8112, Note_off_c, 9, 54, 0
11, 8112, Note_on_c, 9, 38, 127
11, 8112, Note_on_c, 9, 39, 127
11, 8112, Note_on_c, 9, 42, 127
11, 8112, Note_on_c, 9, 54, 127
11, 8124, Note_off_c, 9, 54, 0
11, 8124, Note_on_c, 9, 54, 87
11, 8136, Note_off_c, 9, 39, 0
11, 8136, Note_off_c, 9, 42, 0
11, 8136, Note_off_c, 9, 54, 0
11, 8136, Note_on_c, 9, 38, 127
11, 8136, Note_on_c, 9, 39, 127
11, 8136, Note_on_c, 9, 42, 127
11, 8136, Note_on_c, 9, 54, 107
11, 8148, Note_off_c, 9, 35, 0
11, 8148, Note_off_c, 9, 54, 0
11, 8148, Note_on_c, 9, 35, 127
11, 8148, Note_on_c, 9, 54, 87
11, 8160, Note_off_c, 9, 38, 0
11, 8160, Note_off_c, 9, 39, 0
11, 8160, Note_off_c, 9, 42, 0
11, 8160, Note_off_c, 9, 54, 0
11, 8160, Note_on_c, 9, 39, 127
11, 8160, Note_on_c, 9, 42, 127
11, 8160, Note_on_c, 9, 54, 127
11, 8172, Note_off_c, 9, 54, 0
11, 8172, Note_on_c, 9, 35, 127
11, 8172, Note_on_c, 9, 54, 87
11, 8184, Note_off_c, 9, 38, 0
11, 8184, Note_off_c, 9, 39, 0
11, 8184, Note_off_c, 9, 42, 0
11, 8184, Note_off_c, 9, 54, 0
11, 8184, Note_on_c, 9, 39, 127
11, 8184, Note_on_c, 9, 42, 127
11, 8184, Note_on_c, 9, 54, 107
11, 8196, Note_off_c, 9, 35, 0
11, 8196, Note_off_c, 9, 54, 0
11, 8196, Note_on_c, 9, 35, 127
11, 8196, Note_on_c, 9, 54, 87
11, 8208, Note_off_c, 9, 39, 0
11, 8208, Note_off_c, 9, 42, 0
11, 8208, Note_off_c, 9, 54, 0
11, 8208, Note_on_c, 9, 38, 127
11, 8208, Note_on_c, 9, 39, 127
11, 8208, Note_on_c, 9, 42, 127
11, 8208, Note_on_c, 9, 54, 127
11, 8220, Note_off_c, 9, 35, 0
11, 8220, Note_off_c, 9, 54, 0
11, 8220, Note_on_c, 9, 54, 87
11, 8232, Note_off_c, 9, 39, 0
11, 8232, Note_off_c, 9, 42, 0
11, 8232, Note_off_c, 9, 54, 0
11, 8232, Note_on_c, 9, 38, 127
11, 8232, Note_on_c, 9, 39, 127
11, 8232, Note_on_c, 9, 46, 127
11, 8232, Note_on_c, 9, 54, 107
11, 8244, Note_off_c, 9, 35, 0
11, 8244, Note_off_c, 9, 54, 0
11, 8244, Note_on_c, 9, 54, 87
11, 8256, Note_off_c, 9, 38, 0
11, 8256, Note_off_c, 9, 39, 0
11, 8256, Note_off_c, 9, 42, 0
11, 8256, Note_off_c, 9, 54, 0
11, 8256, Note_on_c, 9, 35, 127
11, 8256, Note_on_c, 9, 42, 127
11, 8256, Note_on_c, 9, 54, 127
11, 8268, Note_off_c, 9, 54, 0
11, 8268, Note_on_c, 9, 54, 87
11, 8280, Note_off_c, 9, 38, 0
11, 8280, Note_off_c, 9, 39, 0
11, 8280, Note_off_c, 9, 46, 0
11, 8280, Note_off_c, 9, 54, 0
11, 8280, Note_on_c, 9, 39, 127
11, 8280, Note_on_c, 9, 42, 127
11, 8280, Note_on_c, 9, 54, 107
11, 8292, Note_off_c, 9, 54, 0
11, 8292, Note_on_c, 9, 35, 127
11, 8292, Note_on_c, 9, 54, 87
11, 8304, Note_off_c, 9, 35, 0
11, 8304, Note_off_c, 9, 42, 0
11, 8304, Note_off_c, 9, 54, 0
11, 8304, Note_on_c, 9, 38, 127
11, 8304, Note_on_c, 9, 39, 127
11, 8304, Note_on_c, 9, 42, 127
11, 8304, Note_on_c, 9, 54, 127
11, 8316, Note_off_c, 9, 54, 0
11, 8316, Note_on_c, 9, 54, 87
11, 8328, Note_off_c, 9, 39, 0
11, 8328, Note_off_c, 9, 42, 0
11, 8328, Note_off_c, 9, 54, 0
11, 8328, Note_on_c, 9, 38, 127
11, 8328, Note_on_c, 9, 39, 127
11, 8328, Note_on_c, 9, 42, 127
11, 8328, Note_on_c, 9, 54, 107
11, 8340, Note_off_c, 9, 35, 0
11, 8340, Note_off_c, 9, 54, 0
11, 8340, Note_on_c, 9, 35, 127
11, 8340, Note_on_c, 9, 54, 87
11, 8352, Note_off_c, 9, 38, 0
11, 8352, Note_off_c, 9, 39, 0
11, 8352, Note_off_c, 9, 42, 0
11, 8352, Note_off_c, 9, 54, 0
11, 8352, Note_on_c, 9, 39, 127
11, 8352, Note_on_c, 9, 42, 127
11, 8352, Note_on_c, 9, 54, 127
11, 8364, Note_off_c, 9, 54, 0
11, 8364, Note_on_c, 9, 35, 127
11, 8364, Note_on_c, 9, 54, 87
11, 8376, Note_off_c, 9, 38, 0
11, 8376, Note_off_c, 9, 39, 0
11, 8376, Note_off_c, 9, 42, 0
11, 8376, Note_off_c, 9, 54, 0
11, 8376, Note_on_c, 9, 39, 127
11, 8376, Note_on_c, 9, 42, 127
11, 8376, Note_on_c, 9, 54, 107
11, 8388, Note_off_c, 9, 35, 0
11, 8388, Note_off_c, 9, 54, 0
11, 8388, Note_on_c, 9, 35, 127
11, 8388, Note_on_c, 9, 54, 87
11, 8400, Note_off_c, 9, 39, 0
11, 8400, Note_off_c, 9, 42, 0
11, 8400, Note_off_c, 9, 54, 0
11, 8400, Note_on_c, 9, 38, 127
11, 8400, Note_on_c, 9, 39, 127
11, 8400, Note_on_c, 9, 42, 127
11, 8400, Note_on_c, 9, 54, 127
11, 8412, Note_off_c, 9, 35, 0
11, 8412, Note_off_c, 9, 54, 0
11, 8412, Note_on_c, 9, 54, 87
11, 8424, Note_off_c, 9, 39, 0
11, 8424, Note_off_c, 9, 42, 0
11, 8424, Note_off_c, 9, 54, 0
11, 8424, Note_on_c, 9, 38, 127
11, 8424, Note_on_c, 9, 39, 127
11, 8424, Note_on_c, 9, 46, 127
11, 8424, Note_on_c, 9, 54, 107
11, 8436, Note_off_c, 9, 35, 0
11, 8436, Note_off_c, 9, 54, 0
11, 8436, Note_on_c, 9, 54, 87
11, 8448, Note_off_c, 9, 38, 0
11, 8448, Note_off_c, 9, 39, 0
11, 8448, Note_off_c, 9, 42, 0
11, 8448, Note_off_c, 9, 54, 0
11, 8448, Note_on_c, 9, 35, 127
11, 8448, Note_on_c, 9, 42, 127
11, 8448, Note_on_c, 9, 54, 127
11, 8460, Note_off_c, 9, 54, 0
11, 8460, Note_on_c, 9, 54, 87
11, 8472, Note_off_c, 9, 38, 0
11, 8472, Note_off_c, 9, 39, 0
11, 8472, Note_off_c, 9, 46, 0
11, 8472, Note_off_c, 9, 54, 0
11, 8472, Note_on_c, 9, 39, 127
11, 8472, Note_on_c, 9, 42, 127
11, 8472, Note_on_c, 9, 54, 107
11, 8484, Note_off_c, 9, 54, 0
11, 8484, Note_on_c, 9, 35, 127
11, 8484, Note_on_c, 9, 54, 87
11, 8496, Note_off_c, 9, 35, 0
11, 8496, Note_off_c, 9, 42, 0
11, 8496, Note_off_c, 9, 54, 0
11, 8496, Note_on_c, 9, 38, 127
11, 8496, Note_on_c, 9, 39, 127
11, 8496, Note_on_c, 9, 42, 127
11, 8496, Note_on_c, 9, 54, 127
11, 8508, Note_off_c, 9, 54, 0
11, 8508, Note_on_c, 9, 54, 87
11, 8520, Note_off_c, 9, 39, 0
11, 8520, Note_off_c, 9, 42, 0
11, 8520, Note_off_c, 9, 54, 0
11, 8520, Note_on_c, 9, 38, 127
11, 8520, Note_on_c, 9, 39, 127
11, 8520, Note_on_c, 9, 42, 127
11, 8520, Note_on_c, 9, 54, 107
11, 8532, Note_off_c, 9, 35, 0
11, 8532, Note_off_c, 9, 54, 0
11, 8532, Note_on_c, 9, 35, 127
11, 8532, Note_on_c, 9, 54, 87
11, 8544, Note_off_c, 9, 38, 0
11, 8544, Note_off_c, 9, 39, 0
11, 8544, Note_off_c, 9, 42, 0
11, 8544, Note_off_c, 9, 54, 0
11, 8544, Note_on_c, 9, 39, 127
11, 8544, Note_on_c, 9, 42, 127
11, 8544, Note_on_c, 9, 54, 127
11, 8556, Note_off_c, 9, 54, 0
11, 8556, Note_on_c, 9, 35, 127
11, 8556, Note_on_c, 9, 54, 87
11, 8568, Note_off_c, 9, 38, 0
11, 8568, Note_off_c, 9, 39, 0
11, 8568, Note_off_c, 9, 42, 0
11, 8568, Note_off_c, 9, 54, 0
11, 8568, Note_on_c, 9, 39, 127
11, 8568, Note_on_c, 9, 42, 127
11, 8568, Note_on_c, 9, 54, 107
11, 8580, Note_off_c, 9, 35, 0
11, 8580, Note_off_c, 9, 54, 0
11, 8580, Note_on_c, 9, 35, 127
11, 8580, Note_on_c, 9, 54, 87
11, 8592, Note_off_c, 9, 39, 0
11, 8592, Note_off_c, 9, 42, 0
11, 8592, Note_off_c, 9, 54, 0
11, 8592, Note_on_c, 9, 39, 127
11, 8592, Note_on_c, 9, 42, 127
11, 8592, Note_on_c, 9, 54, 127
11, 8604, Note_off_c, 9, 35, 0
11, 8604, Note_off_c, 9, 54, 0
11, 8604, Note_on_c, 9, 38, 127
11, 8604, Note_on_c, 9, 54, 87
11, 8616, Note_off_c, 9, 39, 0
11, 8616, Note_off_c, 9, 42, 0
11, 8616, Note_off_c, 9, 54, 0
11, 8616, Note_on_c, 9, 38, 127
11, 8616, Note_on_c, 9, 39, 127
11, 8616, Note_on_c, 9, 42, 127
11, 8616, Note_on_c, 9, 54, 107
11, 8628, Note_off_c, 9, 35, 0
11, 8628, Note_off_c, 9, 54, 0
11, 8628, Note_on_c, 9, 38, 127
11, 8628, Note_on_c, 9, 54, 87
11, 8640, Note_off_c, 9, 39, 0
11, 8640, Note_off_c, 9, 42, 0
11, 8640, Note_off_c, 9, 54, 0
11, 8640, Note_on_c, 9, 35, 127
11, 8640, Note_on_c, 9, 42, 127
11, 8640, Note_on_c, 9, 46, 127
11, 8640, Note_on_c, 9, 49, 127
11, 8640, Note_on_c, 9, 54, 127
11, 8652, Note_off_c, 9, 38, 0
11, 8652, Note_off_c, 9, 54, 0
11, 8652, Note_on_c, 9, 54, 87
11, 8664, Note_off_c, 9, 38, 0
11, 8664, Note_off_c, 9, 39, 0
11, 8664, Note_off_c, 9, 42, 0
11, 8664, Note_off_c, 9, 54, 0
11, 8664, Note_on_c, 9, 39, 127
11, 8664, Note_on_c, 9, 42, 127
11, 8664, Note_on_c, 9, 54, 107
11, 8676, Note_off_c, 9, 38, 0
11, 8676, Note_off_c, 9, 54, 0
11, 8676, Note_on_c, 9, 35, 127
11, 8676, Note_on_c, 9, 54, 87
11, 8688, Note_off_c, 9, 35, 0
11, 8688, Note_off_c, 9, 42, 0
11, 8688, Note_off_c, 9, 46, 0
11, 8688, Note_off_c, 9, 49, 0
11, 8688, Note_off_c, 9, 54, 0
11, 8688, Note_on_c, 9, 38, 127
11, 8688, Note_on_c, 9, 39, 127
11, 8688, Note_on_c, 9, 42, 127
11, 8688, Note_on_c, 9, 54, 127
11, 8700, Note_off_c, 9, 54, 0
11, 8700, Note_on_c, 9, 54, 87
11, 8712, Note_off_c, 9, 39, 0
11, 8712, Note_off_c, 9, 42, 0
11, 8712, Note_off_c, 9, 54, 0
11, 8712, Note_on_c, 9, 38, 127
11, 8712, Note_on_c, 9, 39, 127
11, 8712, Note_on_c, 9, 42, 127
11, 8712, Note_on_c, 9, 54, 107
11, 8724, Note_off_c, 9, 35, 0
11, 8724, Note_off_c, 9, 54, 0
11, 8724, Note_on_c, 9, 35, 127
11, 8724, Note_on_c, 9, 54, 87
11, 8736, Note_off_c, 9, 38, 0
11, 8736, Note_off_c, 9, 39, 0
11, 8736, Note_off_c, 9, 42, 0
11, 8736, Note_off_c, 9, 54, 0
11, 8736, Note_on_c, 9, 39, 127
11, 8736, Note_on_c, 9, 42, 127
11, 8736, Note_on_c, 9, 54, 127
11, 8748, Note_off_c, 9, 54, 0
11, 8748, Note_on_c, 9, 35, 127
11, 8748, Note_on_c, 9, 54, 87
11, 8760, Note_off_c, 9, 38, 0
11, 8760, Note_off_c, 9, 39, 0
11, 8760, Note_off_c, 9, 42, 0
11, 8760, Note_off_c, 9, 54, 0
11, 8760, Note_on_c, 9, 39, 127
11, 8760, Note_on_c, 9, 42, 127
11, 8760, Note_on_c, 9, 54, 107
11, 8772, Note_off_c, 9, 35, 0
11, 8772, Note_off_c, 9, 54, 0
11, 8772, Note_on_c, 9, 35, 127
11, 8772, Note_on_c, 9, 54, 87
11, 8784, Note_off_c, 9, 39, 0
11, 8784, Note_off_c, 9, 42, 0
11, 8784, Note_off_c, 9, 54, 0
11, 8784, Note_on_c, 9, 38, 127
11, 8784, Note_on_c, 9, 39, 127
11, 8784, Note_on_c, 9, 42, 127
11, 8784, Note_on_c, 9, 54, 127
11, 8796, Note_off_c, 9, 35, 0
11, 8796, Note_off_c, 9, 54, 0
11, 8796, Note_on_c, 9, 54, 87
11, 8808, Note_off_c, 9, 39, 0
11, 8808, Note_off_c, 9, 42, 0
11, 8808, Note_off_c, 9, 54, 0
11, 8808, Note_on_c, 9, 38, 127
11, 8808, Note_on_c, 9, 39, 127
11, 8808, Note_on_c, 9, 46, 127
11, 8808, Note_on_c, 9, 54, 107
11, 8820, Note_off_c, 9, 35, 0
11, 8820, Note_off_c, 9, 54, 0
11, 8820, Note_on_c, 9, 54, 87
11, 8832, Note_off_c, 9, 38, 0
11, 8832, Note_off_c, 9, 39, 0
11, 8832, Note_off_c, 9, 42, 0
11, 8832, Note_off_c, 9, 54, 0
11, 8832, Note_on_c, 9, 35, 127
11, 8832, Note_on_c, 9, 42, 127
11, 8832, Note_on_c, 9, 54, 127
11, 8844, Note_off_c, 9, 54, 0
11, 8844, Note_on_c, 9, 54, 87
11, 8856, Note_off_c, 9, 38, 0
11, 8856, Note_off_c, 9, 39, 0
11, 8856, Note_off_c, 9, 46, 0
11, 8856, Note_off_c, 9, 54, 0
11, 8856, Note_on_c, 9, 39, 127
11, 8856, Note_on_c, 9, 42, 127
11, 8856, Note_on_c, 9, 54, 107
11, 8868, Note_off_c, 9, 54, 0
11, 8868, Note_on_c, 9, 35, 127
11, 8868, Note_on_c, 9, 54, 87
11, 8880, Note_off_c, 9, 35, 0
11, 8880, Note_off_c, 9, 42, 0
11, 8880, Note_off_c, 9, 54, 0
11, 8880, Note_on_c, 9, 38, 127
11, 8880, Note_on_c, 9, 39, 127
11, 8880, Note_on_c, 9, 42, 127
11, 8880, Note_on_c, 9, 54, 127
11, 8892, Note_off_c, 9, 54, 0
11, 8892, Note_on_c, 9, 54, 87
11, 8904, Note_off_c, 9, 39, 0
11, 8904, Note_off_c, 9, 42, 0
11, 8904, Note_off_c, 9, 54, 0
11, 8904, Note_on_c, 9, 38, 127
11, 8904, Note_on_c, 9, 39, 127
11, 8904, Note_on_c, 9, 42, 127
11, 8904, Note_on_c, 9, 54, 107
11, 8916, Note_off_c, 9, 35, 0
11, 8916, Note_off_c, 9, 54, 0
11, 8916, Note_on_c, 9, 35, 127
11, 8916, Note_on_c, 9, 54, 87
11, 8928, Note_off_c, 9, 38, 0
11, 8928, Note_off_c, 9, 39, 0
11, 8928, Note_off_c, 9, 42, 0
11, 8928, Note_off_c, 9, 54, 0
11, 8928, Note_on_c, 9, 39, 127
11, 8928, Note_on_c, 9, 42, 127
11, 8928, Note_on_c, 9, 54, 127
11, 8940, Note_off_c, 9, 54, 0
11, 8940, Note_on_c, 9, 35, 127
11, 8940, Note_on_c, 9, 54, 87
11, 8952, Note_off_c, 9, 38, 0
11, 8952, Note_off_c, 9, 39, 0
11, 8952, Note_off_c, 9, 42, 0
11, 8952, Note_off_c, 9, 54, 0
11, 8952, Note_on_c, 9, 39, 127
11, 8952, Note_on_c, 9, 42, 127
11, 8952, Note_on_c, 9, 54, 107
11, 8964, Note_off_c, 9, 35, 0
11, 8964, Note_off_c, 9, 54, 0
11, 8964, Note_on_c, 9, 35, 127
11, 8964, Note_on_c, 9, 54, 87
11, 8976, Note_off_c, 9, 39, 0
11, 8976, Note_off_c, 9, 42, 0
11, 8976, Note_off_c, 9, 54, 0
11, 8976, Note_on_c, 9, 38, 127
11, 8976, Note_on_c, 9, 39, 127
11, 8976, Note_on_c, 9, 42, 127
11, 8976, Note_on_c, 9, 54, 127
11, 8988, Note_off_c, 9, 35, 0
11, 8988, Note_off_c, 9, 54, 0
11, 8988, Note_on_c, 9, 54, 87
11, 9000, Note_off_c, 9, 39, 0
11, 9000, Note_off_c, 9, 42, 0
11, 9000, Note_off_c, 9, 54, 0
11, 9000, Note_on_c, 9, 38, 127
11, 9000, Note_on_c, 9, 39, 127
11, 9000, Note_on_c, 9, 46, 127
11, 9000, Note_on_c, 9, 54, 107
11, 9012, Note_off_c, 9, 35, 0
11, 9012, Note_off_c, 9, 54, 0
11, 9012, Note_on_c, 9, 54, 87
11, 9024, Note_off_c, 9, 38, 0
11, 9024, Note_off_c, 9, 39, 0
11, 9024, Note_off_c, 9, 42, 0
11, 9024, Note_off_c, 9, 54, 0
11, 9024, Note_on_c, 9, 35, 127
11, 9024, Note_on_c, 9, 42, 127
11, 9024, Note_on_c, 9, 54, 127
11, 9036, Note_off_c, 9, 54, 0
11, 9036, Note_on_c, 9, 54, 87
11, 9048, Note_off_c, 9, 38, 0
11, 9048, Note_off_c, 9, 39, 0
11, 9048, Note_off_c, 9, 46, 0
11, 9048, Note_off_c, 9, 54, 0
11, 9048, Note_on_c, 9, 39, 127
11, 9048, Note_on_c, 9, 42, 127
11, 9048, Note_on_c, 9, 54, 107
11, 9060, Note_off_c, 9, 54, 0
11, 9060, Note_on_c, 9, 35, 127
11, 9060, Note_on_c, 9, 54, 87
11, 9072, Note_off_c, 9, 35, 0
11, 9072, Note_off_c, 9, 42, 0
11, 9072, Note_off_c, 9, 54, 0
11, 9072, Note_on_c, 9, 38, 127
11, 9072, Note_on_c, 9, 39, 127
11, 9072, Note_on_c, 9, 42, 127
11, 9072, Note_on_c, 9, 54, 127
11, 9084, Note_off_c, 9, 54, 0
11, 9084, Note_on_c, 9, 54, 87
11, 9096, Note_off_c, 9, 39, 0
11, 9096, Note_off_c, 9, 42, 0
11, 9096, Note_off_c, 9, 54, 0
11, 9096, Note_on_c, 9, 38, 127
11, 9096, Note_on_c, 9, 39, 127
11, 9096, Note_on_c, 9, 42, 127
11, 9096, Note_on_c, 9, 54, 107
11, 9108, Note_off_c, 9, 35, 0
11, 9108, Note_off_c, 9, 54, 0
11, 9108, Note_on_c, 9, 35, 127
11, 9108, Note_on_c, 9, 54, 87
11, 9120, Note_off_c, 9, 38, 0
11, 9120, Note_off_c, 9, 39, 0
11, 9120, Note_off_c, 9, 42, 0
11, 9120, Note_off_c, 9, 54, 0
11, 9120, Note_on_c, 9, 39, 127
11, 9120, Note_on_c, 9, 42, 127
11, 9120, Note_on_c, 9, 54, 127
11, 9132, Note_off_c, 9, 54, 0
11, 9132, Note_on_c, 9, 35, 127
11, 9132, Note_on_c, 9, 54, 87
11, 9144, Note_off_c, 9, 38, 0
11, 9144, Note_off_c, 9, 39, 0
11, 9144, Note_off_c, 9, 42, 0
11, 9144, Note_off_c, 9, 54, 0
11, 9144, Note_on_c, 9, 39, 127
11, 9144, Note_on_c, 9, 42, 127
11, 9144, Note_on_c, 9, 54, 107
11, 9156, Note_off_c, 9, 35, 0
11, 9156, Note_off_c, 9, 54, 0
11, 9156, Note_on_c, 9, 35, 127
11, 9156, Note_on_c, 9, 54, 87
11, 9168, Note_off_c, 9, 39, 0
11, 9168, Note_off_c, 9, 42, 0
11, 9168, Note_off_c, 9, 54, 0
11, 9168, Note_on_c, 9, 38, 127
11, 9168, Note_on_c, 9, 39, 127
11, 9168, Note_on_c, 9, 42, 127
11, 9168, Note_on_c, 9, 54, 127
11, 9180, Note_off_c, 9, 35, 0
11, 9180, Note_off_c, 9, 54, 0
11, 9180, Note_on_c, 9, 54, 87
11, 9192, Note_off_c, 9, 39, 0
11, 9192, Note_off_c, 9, 42, 0
11, 9192, Note_off_c, 9, 54, 0
11, 9192, Note_on_c, 9, 38, 127
11, 9192, Note_on_c, 9, 39, 127
11, 9192, Note_on_c, 9, 46, 127
11, 9192, Note_on_c, 9, 54, 107
11, 9204, Note_off_c, 9, 35, 0
11, 9204, Note_off_c, 9, 54, 0
11, 9204, Note_on_c, 9, 54, 87
11, 9216, Note_off_c, 9, 38, 0
11, 9216, Note_off_c, 9, 39, 0
11, 9216, Note_off_c, 9, 42, 0
11, 9216, Note_off_c, 9, 54, 0
11, 9216, Note_on_c, 9, 35, 127
11, 9216, Note_on_c, 9, 42, 127
11, 9216, Note_on_c, 9, 54, 127
11, 9228, Note_off_c, 9, 54, 0
11, 9228, Note_on_c, 9, 54, 87
11, 9240, Note_off_c, 9, 38, 0
11, 9240, Note_off_c, 9, 39, 0
11, 9240, Note_off_c, 9, 46, 0
11, 9240, Note_off_c, 9, 54, 0
11, 9240, Note_on_c, 9, 39, 127
11, 9240, Note_on_c, 9, 42, 127
11, 9240, Note_on_c, 9, 54, 107
11, 9252, Note_off_c, 9, 54, 0
11, 9252, Note_on_c, 9, 35, 127
11, 9252, Note_on_c, 9, 54, 87
11, 9264, Note_off_c, 9, 35, 0
11, 9264, Note_off_c, 9, 42, 0
11, 9264, Note_off_c, 9, 54, 0
11, 9264, Note_on_c, 9, 38, 127
11, 9264, Note_on_c, 9, 39, 127
11, 9264, Note_on_c, 9, 42, 127
11, 9264, Note_on_c, 9, 54, 127
11, 9276, Note_off_c, 9, 54, 0
11, 9276, Note_on_c, 9, 54, 87
11, 9288, Note_off_c, 9, 39, 0
11, 9288, Note_off_c, 9, 42, 0
11, 9288, Note_off_c, 9, 54, 0
11, 9288, Note_on_c, 9, 38, 127
11, 9288, Note_on_c, 9, 39, 127
11, 9288, Note_on_c, 9, 42, 127
11, 9288, Note_on_c, 9, 54, 107
11, 9300, Note_off_c, 9, 35, 0
11, 9300, Note_off_c, 9, 54, 0
11, 9300, Note_on_c, 9, 35, 127
11, 9300, Note_on_c, 9, 54, 87
11, 9312, Note_off_c, 9, 38, 0
11, 9312, Note_off_c, 9, 39, 0
11, 9312, Note_off_c, 9, 42, 0
11, 9312, Note_off_c, 9, 54, 0
11, 9312, Note_on_c, 9, 39, 127
11, 9312, Note_on_c, 9, 42, 127
11, 9312, Note_on_c, 9, 54, 127
11, 9324, Note_off_c, 9, 54, 0
11, 9324, Note_on_c, 9, 35, 127
11, 9324, Note_on_c, 9, 54, 87
11, 9336, Note_off_c, 9, 38, 0
11, 9336, Note_off_c, 9, 39, 0
11, 9336, Note_off_c, 9, 42, 0
11, 9336, Note_off_c, 9, 54, 0
11, 9336, Note_on_c, 9, 39, 127
11, 9336, Note_on_c, 9, 42, 127
11, 9336, Note_on_c, 9, 54, 107
11, 9348, Note_off_c, 9, 35, 0
11, 9348, Note_off_c, 9, 54, 0
11, 9348, Note_on_c, 9, 35, 127
11, 9348, Note_on_c, 9, 54, 87
11, 9360, Note_off_c, 9, 39, 0
11, 9360, Note_off_c, 9, 42, 0
11, 9360, Note_off_c, 9, 54, 0
11, 9360, Note_on_c, 9, 38, 127
11, 9360, Note_on_c, 9, 39, 127
11, 9360, Note_on_c, 9, 42, 127
11, 9360, Note_on_c, 9, 54, 127
11, 9372, Note_off_c, 9, 35, 0
11, 9372, Note_off_c, 9, 54, 0
11, 9372, Note_on_c, 9, 54, 87
11, 9384, Note_off_c, 9, 39, 0
11, 9384, Note_off_c, 9, 42, 0
11, 9384, Note_off_c, 9, 54, 0
11, 9384, Note_on_c, 9, 38, 127
11, 9384, Note_on_c, 9, 39, 127
11, 9384, Note_on_c, 9, 46, 127
11, 9384, Note_on_c, 9, 54, 107
11, 9396, Note_off_c, 9, 35, 0
11, 9396, Note_off_c, 9, 54, 0
11, 9396, Note_on_c, 9, 54, 87
11, 9408, Note_off_c, 9, 38, 0
11, 9408, Note_off_c, 9, 39, 0
11, 9408, Note_off_c, 9, 42, 0
11, 9408, Note_off_c, 9, 54, 0
11, 9408, Note_on_c, 9, 54, 127
11, 9420, Note_off_c, 9, 54, 0
11, 9420, Note_on_c, 9, 54, 87
11, 9432, Note_off_c, 9, 38, 0
11, 9432, Note_off_c, 9, 39, 0
11, 9432, Note_off_c, 9, 46, 0
11, 9432, Note_off_c, 9, 54, 0
11, 9432, Note_on_c, 9, 54, 107
11, 9444, Note_off_c, 9, 54, 0
11, 9444, Note_on_c, 9, 54, 87
11, 9456, Note_off_c, 9, 54, 0
11, 9456, Note_on_c, 9, 54, 127
11, 9468, Note_off_c, 9, 54, 0
11, 9468, Note_on_c, 9, 54, 87
11, 9480, Note_off_c, 9, 54, 0
11, 9480, Note_on_c, 9, 54, 107
11, 9492, Note_off_c, 9, 54, 0
11, 9492, Note_on_c, 9, 54, 87
11, 9504, Note_off_c, 9, 54, 0
11, 9504, Note_on_c, 9, 54, 127
11, 9516, Note_off_c, 9, 54, 0
11, 9516, Note_on_c, 9, 54, 87
11, 9528, Note_off_c, 9, 54, 0
11, 9528, Note_on_c, 9, 54, 107
11, 9540, Note_off_c, 9, 54, 0
11, 9540, Note_on_c, 9, 54, 87
11, 9552, Note_off_c, 9, 54, 0
11, 9552, Note_on_c, 9, 54, 127
11, 9564, Note_off_c, 9, 54, 0
11, 9564, Note_on_c, 9, 54, 87
11, 9576, Note_off_c, 9, 54, 0
11, 9576, Note_on_c, 9, 54, 107
11, 9588, Note_off_c, 9, 54, 0
11, 9588, Note_on_c, 9, 54, 87
11, 9600, Note_off_c, 9, 54, 0
11, 9600, Note_on_c, 9, 54, 127
11, 9612, Note_off_c, 9, 54, 0
11, 9612, Note_on_c, 9, 54, 87
11, 9624, Note_off_c, 9, 54, 0
11, 9624, Note_on_c, 9, 54, 107
11, 9636, Note_off_c, 9, 54, 0
11, 9636, Note_on_c, 9, 54, 87
11, 9648, Note_off_c, 9, 54, 0
11, 9648, Note_on_c, 9, 54, 127
11, 9660, Note_off_c, 9, 54, 0
11, 9660, Note_on_c, 9, 54, 87
11, 9672, Note_off_c, 9, 54, 0
11, 9672, Note_on_c, 9, 54, 107
11, 9684, Note_off_c, 9, 54, 0
11, 9684, Note_on_c, 9, 54, 87
11, 9696, Note_off_c, 9, 54, 0
11, 9696, Note_on_c, 9, 54, 127
11, 9708, Note_off_c, 9, 54, 0
11, 9708, Note_on_c, 9, 54, 87
11, 9720, Note_off_c, 9, 54, 0
11, 9720, Note_on_c, 9, 54, 107
11, 9732, Note_off_c, 9, 54, 0
11, 9732, Note_on_c, 9, 54, 87
11, 9744, Note_off_c, 9, 54, 0
11, 9744, Note_on_c, 9, 54, 127
11, 9756, Note_off_c, 9, 54, 0
11, 9756, Note_on_c, 9, 38, 127
11, 9756, Note_on_c, 9, 40, 127
11, 9756, Note_on_c, 9, 54, 87
11, 9768, Note_off_c, 9, 54, 0
11, 9768, Note_on_c, 9, 38, 127
11, 9768, Note_on_c, 9, 40, 127
11, 9768, Note_on_c, 9, 54, 107
11, 9780, Note_off_c, 9, 54, 0
11, 9780, Note_on_c, 9, 38, 127
11, 9780, Note_on_c, 9, 40, 127
11, 9780, Note_on_c, 9, 54, 87
11, 9792, Note_off_c, 9, 54, 0
11, 9792, Note_on_c, 9, 35, 127
11, 9792, Note_on_c, 9, 42, 127
11, 9792, Note_on_c, 9, 46, 127
11, 9792, Note_on_c, 9, 49, 127
11, 9792, Note_on_c, 9, 54, 127
11, 9804, Note_off_c, 9, 38, 0
11, 9804, Note_off_c, 9, 40, 0
11, 9804, Note_off_c, 9, 54, 0
11, 9804, Note_on_c, 9, 54, 87
11, 9816, Note_off_c, 9, 38, 0
11, 9816, Note_off_c, 9, 40, 0
11, 9816, Note_off_c, 9, 54, 0
11, 9816, Note_on_c, 9, 39, 127
11, 9816, Note_on_c, 9, 42, 127
11, 9816, Note_on_c, 9, 54, 107
11, 9828, Note_off_c, 9, 38, 0
11, 9828, Note_off_c, 9, 40, 0
11, 9828, Note_off_c, 9, 54, 0
11, 9828, Note_on_c, 9, 35, 127
11, 9828, Note_on_c, 9, 54, 87
11, 9840, Note_off_c, 9, 35, 0
11, 9840, Note_off_c, 9, 42, 0
11, 9840, Note_off_c, 9, 46, 0
11, 9840, Note_off_c, 9, 49, 0
11, 9840, Note_off_c, 9, 54, 0
11, 9840, Note_on_c, 9, 38, 127
11, 9840, Note_on_c, 9, 39, 127
11, 9840, Note_on_c, 9, 42, 127
11, 9840, Note_on_c, 9, 54, 127
11, 9852, Note_off_c, 9, 54, 0
11, 9852, Note_on_c, 9, 54, 87
11, 9864, Note_off_c, 9, 39, 0
11, 9864, Note_off_c, 9, 42, 0
11, 9864, Note_off_c, 9, 54, 0
11, 9864, Note_on_c, 9, 38, 127
11, 9864, Note_on_c, 9, 39, 127
11, 9864, Note_on_c, 9, 42, 127
11, 9864, Note_on_c, 9, 54, 107
11, 9876, Note_off_c, 9, 35, 0
11, 9876, Note_off_c, 9, 54, 0
11, 9876, Note_on_c, 9, 35, 127
11, 9876, Note_on_c, 9, 54, 87
11, 9888, Note_off_c, 9, 38, 0
11, 9888, Note_off_c, 9, 39, 0
11, 9888, Note_off_c, 9, 42, 0
11, 9888, Note_off_c, 9, 54, 0
11, 9888, Note_on_c, 9, 39, 127
11, 9888, Note_on_c, 9, 42, 127
11, 9888, Note_on_c, 9, 54, 127
11, 9900, Note_off_c, 9, 54, 0
11, 9900, Note_on_c, 9, 35, 127
11, 9900, Note_on_c, 9, 54, 87
11, 9912, Note_off_c, 9, 38, 0
11, 9912, Note_off_c, 9, 39, 0
11, 9912, Note_off_c, 9, 42, 0
11, 9912, Note_off_c, 9, 54, 0
11, 9912, Note_on_c, 9, 39, 127
11, 9912, Note_on_c, 9, 42, 127
11, 9912, Note_on_c, 9, 54, 107
11, 9924, Note_off_c, 9, 35, 0
11, 9924, Note_off_c, 9, 54, 0
11, 9924, Note_on_c, 9, 35, 127
11, 9924, Note_on_c, 9, 54, 87
11, 9936, Note_off_c, 9, 39, 0
11, 9936, Note_off_c, 9, 42, 0
11, 9936, Note_off_c, 9, 54, 0
11, 9936, Note_on_c, 9, 38, 127
11, 9936, Note_on_c, 9, 39, 127
11, 9936, Note_on_c, 9, 42, 127
11, 9936, Note_on_c, 9, 54, 127
11, 9948, Note_off_c, 9, 35, 0
11, 9948, Note_off_c, 9, 54, 0
11, 9948, Note_on_c, 9, 54, 87
11, 9960, Note_off_c, 9, 39, 0
11, 9960, Note_off_c, 9, 42, 0
11, 9960, Note_off_c, 9, 54, 0
11, 9960, Note_on_c, 9, 38, 127
11, 9960, Note_on_c, 9, 39, 127
11, 9960, Note_on_c, 9, 46, 127
11, 9960, Note_on_c, 9, 54, 107
11, 9972, Note_off_c, 9, 35, 0
11, 9972, Note_off_c, 9, 54, 0
11, 9972, Note_on_c, 9, 54, 87
11, 9984, Note_off_c, 9, 38, 0
11, 9984, Note_off_c, 9, 39, 0
11, 9984, Note_off_c, 9, 42, 0
11, 9984, Note_off_c, 9, 54, 0
11, 9984, Note_on_c, 9, 35, 127
11, 9984, Note_on_c, 9, 42, 127
11, 9984, Note_on_c, 9, 54, 127
11, 9996, Note_off_c, 9, 54, 0
11, 9996, Note_on_c, 9, 54, 87
11, 10008, Note_off_c, 9, 38, 0
11, 10008, Note_off_c, 9, 39, 0
11, 10008, Note_off_c, 9, 46, 0
11, 10008, Note_off_c, 9, 54, 0
11, 10008, Note_on_c, 9, 39, 127
11, 10008, Note_on_c, 9, 42, 127
11, 10008, Note_on_c, 9, 54, 107
11, 10020, Note_off_c, 9, 54, 0
11, 10020, Note_on_c, 9, 35, 127
11, 10020, Note_on_c, 9, 54, 87
11, 10032, Note_off_c, 9, 35, 0
11, 10032, Note_off_c, 9, 42, 0
11, 10032, Note_off_c, 9, 54, 0
11, 10032, Note_on_c, 9, 38, 127
11, 10032, Note_on_c, 9, 39, 127
11, 10032, Note_on_c, 9, 42, 127
11, 10032, Note_on_c, 9, 54, 127
11, 10044, Note_off_c, 9, 54, 0
11, 10044, Note_on_c, 9, 54, 87
11, 10056, Note_off_c, 9, 39, 0
11, 10056, Note_off_c, 9, 42, 0
11, 10056, Note_off_c, 9, 54, 0
11, 10056, Note_on_c, 9, 38, 127
11, 10056, Note_on_c, 9, 39, 127
11, 10056, Note_on_c, 9, 42, 127
11, 10056, Note_on_c, 9, 54, 107
11, 10068, Note_off_c, 9, 35, 0
11, 10068, Note_off_c, 9, 54, 0
11, 10068, Note_on_c, 9, 35, 127
11, 10068, Note_on_c, 9, 54, 87
11, 10080, Note_off_c, 9, 38, 0
11, 10080, Note_off_c, 9, 39, 0
11, 10080, Note_off_c, 9, 42, 0
11, 10080, Note_off_c, 9, 54, 0
11, 10080, Note_on_c, 9, 35, 127
11, 10080, Note_on_c, 9, 42, 127
11, 10080, Note_on_c, 9, 54, 127
11, 10092, Note_off_c, 9, 54, 0
11, 10092, Note_on_c, 9, 44, 127
11, 10092, Note_on_c, 9, 54, 87
11, 10104, Note_off_c, 9, 38, 0
11, 10104, Note_off_c, 9, 39, 0
11, 10104, Note_off_c, 9, 42, 0
11, 10104, Note_off_c, 9, 54, 0
11, 10104, Note_on_c, 9, 46, 127
11, 10104, Note_on_c, 9, 49, 127
11, 10104, Note_on_c, 9, 52, 127
11, 10104, Note_on_c, 9, 54, 107
11, 10116, Note_off_c, 9, 35, 0
11, 10116, Note_off_c, 9, 54, 0
11, 10116, Note_on_c, 9, 35, 127
11, 10116, Note_on_c, 9, 54, 87
11, 10128, Note_off_c, 9, 35, 0
11, 10128, Note_off_c, 9, 42, 0
11, 10128, Note_off_c, 9, 54, 0
11, 10128, Note_on_c, 9, 38, 127
11, 10128, Note_on_c, 9, 39, 127
11, 10128, Note_on_c, 9, 42, 127
11, 10128, Note_on_c, 9, 54, 127
11, 10140, Note_off_c, 9, 44, 0
11, 10140, Note_off_c, 9, 54, 0
11, 10140, Note_on_c, 9, 44, 127
11, 10140, Note_on_c, 9, 54, 87
11, 10152, Note_off_c, 9, 46, 0
11, 10152, Note_off_c, 9, 49, 0
11, 10152, Note_off_c, 9, 52, 0
11, 10152, Note_off_c, 9, 54, 0
11, 10152, Note_on_c, 9, 38, 127
11, 10152, Note_on_c, 9, 39, 127
11, 10152, Note_on_c, 9, 46, 127
11, 10152, Note_on_c, 9, 49, 127
11, 10152, Note_on_c, 9, 52, 127
11, 10152, Note_on_c, 9, 54, 107
11, 10164, Note_off_c, 9, 35, 0
11, 10164, Note_off_c, 9, 54, 0
11, 10164, Note_on_c, 9, 54, 87
11, 10176, Note_off_c, 9, 38, 0
11, 10176, Note_off_c, 9, 39, 0
11, 10176, Note_off_c, 9, 42, 0
11, 10176, Note_off_c, 9, 54, 0
11, 10176, Note_on_c, 9, 35, 127
11, 10176, Note_on_c, 9, 42, 127
11, 10176, Note_on_c, 9, 54, 127
11, 10188, Note_off_c, 9, 44, 0
11, 10188, Note_off_c, 9, 54, 0
11, 10188, Note_on_c, 9, 54, 87
11, 10200, Note_off_c, 9, 38, 0
11, 10200, Note_off_c, 9, 39, 0
11, 10200, Note_off_c, 9, 46, 0
11, 10200, Note_off_c, 9, 49, 0
11, 10200, Note_off_c, 9, 52, 0
11, 10200, Note_off_c, 9, 54, 0
11, 10200, Note_on_c, 9, 39, 127
11, 10200, Note_on_c, 9, 42, 127
11, 10200, Note_on_c, 9, 54, 107
11, 10212, Note_off_c, 9, 54, 0
11, 10212, Note_on_c, 9, 35, 127
11, 10212, Note_on_c, 9, 54, 87
11, 10224, Note_off_c, 9, 35, 0
11, 10224, Note_off_c, 9, 42, 0
11, 10224, Note_off_c, 9, 54, 0
11, 10224, Note_on_c, 9, 38, 127
11, 10224, Note_on_c, 9, 39, 127
11, 10224, Note_on_c, 9, 42, 127
11, 10224, Note_on_c, 9, 54, 127
11, 10236, Note_off_c, 9, 54, 0
11, 10236, Note_on_c, 9, 54, 87
11, 10248, Note_off_c, 9, 39, 0
11, 10248, Note_off_c, 9, 42, 0
11, 10248, Note_off_c, 9, 54, 0
11, 10248, Note_on_c, 9, 38, 127
11, 10248, Note_on_c, 9, 39, 127
11, 10248, Note_on_c, 9, 42, 127
11, 10248, Note_on_c, 9, 54, 107
11, 10260, Note_off_c, 9, 35, 0
11, 10260, Note_off_c, 9, 54, 0
11, 10260, Note_on_c, 9, 35, 127
11, 10260, Note_on_c, 9, 54, 87
11, 10272, Note_off_c, 9, 38, 0
11, 10272, Note_off_c, 9, 39, 0
11, 10272, Note_off_c, 9, 42, 0
11, 10272, Note_off_c, 9, 54, 0
11, 10272, Note_on_c, 9, 35, 127
11, 10272, Note_on_c, 9, 42, 127
11, 10272, Note_on_c, 9, 54, 127
11, 10284, Note_off_c, 9, 54, 0
11, 10284, Note_on_c, 9, 44, 127
11, 10284, Note_on_c, 9, 54, 87
11, 10296, Note_off_c, 9, 38, 0
11, 10296, Note_off_c, 9, 39, 0
11, 10296, Note_off_c, 9, 42, 0
11, 10296, Note_off_c, 9, 54, 0
11, 10296, Note_on_c, 9, 46, 127
11, 10296, Note_on_c, 9, 49, 127
11, 10296, Note_on_c, 9, 52, 127
11, 10296, Note_on_c, 9, 54, 107
11, 10308, Note_off_c, 9, 35, 0
11, 10308, Note_off_c, 9, 54, 0
11, 10308, Note_on_c, 9, 35, 127
11, 10308, Note_on_c, 9, 54, 87
11, 10320, Note_off_c, 9, 35, 0
11, 10320, Note_off_c, 9, 42, 0
11, 10320, Note_off_c, 9, 54, 0
11, 10320, Note_on_c, 9, 38, 127
11, 10320, Note_on_c, 9, 39, 127
11, 10320, Note_on_c, 9, 42, 127
11, 10320, Note_on_c, 9, 54, 127
11, 10332, Note_off_c, 9, 44, 0
11, 10332, Note_off_c, 9, 54, 0
11, 10332, Note_on_c, 9, 44, 127
11, 10332, Note_on_c, 9, 54, 87
11, 10344, Note_off_c, 9, 46, 0
11, 10344, Note_off_c, 9, 49, 0
11, 10344, Note_off_c, 9, 52, 0
11, 10344, Note_off_c, 9, 54, 0
11, 10344, Note_on_c, 9, 38, 127
11, 10344, Note_on_c, 9, 39, 127
11, 10344, Note_on_c, 9, 46, 127
11, 10344, Note_on_c, 9, 49, 127
11, 10344, Note_on_c, 9, 52, 127
11, 10344, Note_on_c, 9, 54, 107
11, 10356, Note_off_c, 9, 35, 0
11, 10356, Note_off_c, 9, 54, 0
11, 10356, Note_on_c, 9, 54, 87
11, 10368, Note_off_c, 9, 38, 0
11, 10368, Note_off_c, 9, 39, 0
11, 10368, Note_off_c, 9, 42, 0
11, 10368, Note_off_c, 9, 54, 0
11, 10368, Note_on_c, 9, 35, 127
11, 10368, Note_on_c, 9, 42, 127
11, 10368, Note_on_c, 9, 54, 127
11, 10380, Note_off_c, 9, 44, 0
11, 10380, Note_off_c, 9, 54, 0
11, 10380, Note_on_c, 9, 54, 87
11, 10392, Note_off_c, 9, 38, 0
11, 10392, Note_off_c, 9, 39, 0
11, 10392, Note_off_c, 9, 46, 0
11, 10392, Note_off_c, 9, 49, 0
11, 10392, Note_off_c, 9, 52, 0
11, 10392, Note_off_c, 9, 54, 0
11, 10392, Note_on_c, 9, 39, 127
11, 10392, Note_on_c, 9, 42, 127
11, 10392, Note_on_c, 9, 54, 107
11, 10404, Note_off_c, 9, 54, 0
11, 10404, Note_on_c, 9, 35, 127
11, 10404, Note_on_c, 9, 54, 87
11, 10416, Note_off_c, 9, 35, 0
11, 10416, Note_off_c, 9, 42, 0
11, 10416, Note_off_c, 9, 54, 0
11, 10416, Note_on_c, 9, 38, 127
11, 10416, Note_on_c, 9, 39, 127
11, 10416, Note_on_c, 9, 42, 127
11, 10416, Note_on_c, 9, 54, 127
11, 10428, Note_off_c, 9, 54, 0
11, 10428, Note_on_c, 9, 54, 87
11, 10440, Note_off_c, 9, 39, 0
11, 10440, Note_off_c, 9, 42, 0
11, 10440, Note_off_c, 9, 54, 0
11, 10440, Note_on_c, 9, 38, 127
11, 10440, Note_on_c, 9, 39, 127
11, 10440, Note_on_c, 9, 42, 127
11, 10440, Note_on_c, 9, 54, 107
11, 10452, Note_off_c, 9, 35, 0
11, 10452, Note_off_c, 9, 54, 0
11, 10452, Note_on_c, 9, 35, 127
11, 10452, Note_on_c, 9, 54, 87
11, 10464, Note_off_c, 9, 38, 0
11, 10464, Note_off_c, 9, 39, 0
11, 10464, Note_off_c, 9, 42, 0
11, 10464, Note_off_c, 9, 54, 0
11, 10464, Note_on_c, 9, 39, 127
11, 10464, Note_on_c, 9, 42, 127
11, 10464, Note_on_c, 9, 54, 127
11, 10476, Note_off_c, 9, 54, 0
11, 10476, Note_on_c, 9, 35, 127
11, 10476, Note_on_c, 9, 54, 87
11, 10488, Note_off_c, 9, 38, 0
11, 10488, Note_off_c, 9, 39, 0
11, 10488, Note_off_c, 9, 42, 0
11, 10488, Note_off_c, 9, 54, 0
11, 10488, Note_on_c, 9, 39, 127
11, 10488, Note_on_c, 9, 42, 127
11, 10488, Note_on_c, 9, 54, 107
11, 10500, Note_off_c, 9, 35, 0
11, 10500, Note_off_c, 9, 54, 0
11, 10500, Note_on_c, 9, 35, 127
11, 10500, Note_on_c, 9, 54, 87
11, 10512, Note_off_c, 9, 39, 0
11, 10512, Note_off_c, 9, 42, 0
11, 10512, Note_off_c, 9, 54, 0
11, 10512, Note_on_c, 9, 38, 127
11, 10512, Note_on_c, 9, 39, 127
11, 10512, Note_on_c, 9, 42, 127
11, 10512, Note_on_c, 9, 54, 127
11, 10524, Note_off_c, 9, 35, 0
11, 10524, Note_off_c, 9, 54, 0
11, 10524, Note_on_c, 9, 54, 87
11, 10536, Note_off_c, 9, 39, 0
11, 10536, Note_off_c, 9, 42, 0
11, 10536, Note_off_c, 9, 54, 0
11, 10536, Note_on_c, 9, 38, 127
11, 10536, Note_on_c, 9, 39, 127
11, 10536, Note_on_c, 9, 46, 127
11, 10536, Note_on_c, 9, 54, 107
11, 10548, Note_off_c, 9, 35, 0
11, 10548, Note_off_c, 9, 54, 0
11, 10548, Note_on_c, 9, 54, 87
11, 10560, Note_off_c, 9, 38, 0
11, 10560, Note_off_c, 9, 39, 0
11, 10560, Note_off_c, 9, 42, 0
11, 10560, Note_off_c, 9, 54, 0
11, 10560, Note_on_c, 9, 35, 127
11, 10560, Note_on_c, 9, 42, 127
11, 10560, Note_on_c, 9, 54, 127
11, 10572, Note_off_c, 9, 54, 0
11, 10572, Note_on_c, 9, 54, 87
11, 10584, Note_off_c, 9, 38, 0
11, 10584, Note_off_c, 9, 39, 0
11, 10584, Note_off_c, 9, 46, 0
11, 10584, Note_off_c, 9, 54, 0
11, 10584, Note_on_c, 9, 39, 127
11, 10584, Note_on_c, 9, 42, 127
11, 10584, Note_on_c, 9, 54, 107
11, 10596, Note_off_c, 9, 54, 0
11, 10596, Note_on_c, 9, 35, 127
11, 10596, Note_on_c, 9, 54, 87
11, 10608, Note_off_c, 9, 35, 0
11, 10608, Note_off_c, 9, 42, 0
11, 10608, Note_off_c, 9, 54, 0
11, 10608, Note_on_c, 9, 38, 127
11, 10608, Note_on_c, 9, 39, 127
11, 10608, Note_on_c, 9, 42, 127
11, 10608, Note_on_c, 9, 54, 127
11, 10620, Note_off_c, 9, 54, 0
11, 10620, Note_on_c, 9, 54, 87
11, 10632, Note_off_c, 9, 39, 0
11, 10632, Note_off_c, 9, 42, 0
11, 10632, Note_off_c, 9, 54, 0
11, 10632, Note_on_c, 9, 38, 127
11, 10632, Note_on_c, 9, 39, 127
11, 10632, Note_on_c, 9, 42, 127
11, 10632, Note_on_c, 9, 54, 107
11, 10644, Note_off_c, 9, 35, 0
11, 10644, Note_off_c, 9, 54, 0
11, 10644, Note_on_c, 9, 35, 127
11, 10644, Note_on_c, 9, 54, 87
11, 10656, Note_off_c, 9, 38, 0
11, 10656, Note_off_c, 9, 39, 0
11, 10656, Note_off_c, 9, 42, 0
11, 10656, Note_off_c, 9, 54, 0
11, 10656, Note_on_c, 9, 35, 127
11, 10656, Note_on_c, 9, 42, 127
11, 10656, Note_on_c, 9, 54, 127
11, 10668, Note_off_c, 9, 54, 0
11, 10668, Note_on_c, 9, 44, 127
11, 10668, Note_on_c, 9, 54, 87
11, 10680, Note_off_c, 9, 38, 0
11, 10680, Note_off_c, 9, 39, 0
11, 10680, Note_off_c, 9, 42, 0
11, 10680, Note_off_c, 9, 54, 0
11, 10680, Note_on_c, 9, 46, 127
11, 10680, Note_on_c, 9, 51, 127
11, 10680, Note_on_c, 9, 52, 127
11, 10680, Note_on_c, 9, 54, 107
11, 10692, Note_off_c, 9, 35, 0
11, 10692, Note_off_c, 9, 54, 0
11, 10692, Note_on_c, 9, 35, 127
11, 10692, Note_on_c, 9, 54, 87
11, 10704, Note_off_c, 9, 35, 0
11, 10704, Note_off_c, 9, 42, 0
11, 10704, Note_off_c, 9, 54, 0
11, 10704, Note_on_c, 9, 38, 127
11, 10704, Note_on_c, 9, 39, 127
11, 10704, Note_on_c, 9, 42, 127
11, 10704, Note_on_c, 9, 54, 127
11, 10716, Note_off_c, 9, 44, 0
11, 10716, Note_off_c, 9, 54, 0
11, 10716, Note_on_c, 9, 44, 127
11, 10716, Note_on_c, 9, 54, 87
11, 10728, Note_off_c, 9, 46, 0
11, 10728, Note_off_c, 9, 51, 0
11, 10728, Note_off_c, 9, 52, 0
11, 10728, Note_off_c, 9, 54, 0
11, 10728, Note_on_c, 9, 38, 127
11, 10728, Note_on_c, 9, 39, 127
11, 10728, Note_on_c, 9, 46, 127
11, 10728, Note_on_c, 9, 51, 127
11, 10728, Note_on_c, 9, 52, 127
11, 10728, Note_on_c, 9, 54, 107
11, 10740, Note_off_c, 9, 35, 0
11, 10740, Note_off_c, 9, 54, 0
11, 10740, Note_on_c, 9, 54, 87
11, 10752, Note_off_c, 9, 38, 0
11, 10752, Note_off_c, 9, 39, 0
11, 10752, Note_off_c, 9, 42, 0
11, 10752, Note_off_c, 9, 54, 0
11, 10752, Note_on_c, 9, 35, 127
11, 10752, Note_on_c, 9, 42, 127
11, 10752, Note_on_c, 9, 54, 127
11, 10764, Note_off_c, 9, 44, 0
11, 10764, Note_off_c, 9, 54, 0
11, 10764, Note_on_c, 9, 54, 87
11, 10776, Note_off_c, 9, 38, 0
11, 10776, Note_off_c, 9, 39, 0
11, 10776, Note_off_c, 9, 46, 0
11, 10776, Note_off_c, 9, 51, 0
11, 10776, Note_off_c, 9, 52, 0
11, 10776, Note_off_c, 9, 54, 0
11, 10776, Note_on_c, 9, 39, 127
11, 10776, Note_on_c, 9, 42, 127
11, 10776, Note_on_c, 9, 54, 107
11, 10788, Note_off_c, 9, 54, 0
11, 10788, Note_on_c, 9, 35, 127
11, 10788, Note_on_c, 9, 54, 87
11, 10788, Note_on_c, 9, 62, 127
11, 10788, Note_on_c, 9, 65, 127
11, 10788, Note_on_c, 9, 66, 127
11, 10790, Note_on_c, 9, 62, 127
11, 10790, Note_on_c, 9, 65, 127
11, 10790, Note_on_c, 9, 66, 127
11, 10800, Note_off_c, 9, 35, 0
11, 10800, Note_off_c, 9, 42, 0
11, 10800, Note_off_c, 9, 54, 0
11, 10800, Note_on_c, 9, 38, 127
11, 10800, Note_on_c, 9, 39, 127
11, 10800, Note_on_c, 9, 42, 127
11, 10800, Note_on_c, 9, 54, 127
11, 10812, Note_off_c, 9, 54, 0
11, 10812, Note_on_c, 9, 54, 87
11, 10824, Note_off_c, 9, 39, 0
11, 10824, Note_off_c, 9, 42, 0
11, 10824, Note_off_c, 9, 54, 0
11, 10824, Note_on_c, 9, 38, 127
11, 10824, Note_on_c, 9, 39, 127
11, 10824, Note_on_c, 9, 42, 127
11, 10824, Note_on_c, 9, 50, 127
11, 10824, Note_on_c, 9, 54, 107
11, 10824, Note_on_c, 9, 61, 127
11, 10824, Note_on_c, 9, 62, 127
11, 10824, Note_on_c, 9, 66, 127
11, 10826, Note_on_c, 9, 50, 127
11, 10826, Note_on_c, 9, 61, 127
11, 10826, Note_on_c, 9, 62, 127
11, 10826, Note_on_c, 9, 66, 127
11, 10836, Note_off_c, 9, 35, 0
11, 10836, Note_off_c, 9, 54, 0
11, 10836, Note_off_c, 9, 62, 0
11, 10836, Note_off_c, 9, 65, 0
11, 10836, Note_off_c, 9, 66, 0
11, 10836, Note_on_c, 9, 35, 127
11, 10836, Note_on_c, 9, 54, 87
11, 10836, Note_on_c, 9, 61, 127
11, 10836, Note_on_c, 9, 62, 127
11, 10838, Note_off_c, 9, 62, 0
11, 10838, Note_off_c, 9, 65, 0
11, 10838, Note_off_c, 9, 66, 0
11, 10838, Note_on_c, 9, 61, 127
11, 10838, Note_on_c, 9, 62, 127
11, 10848, Note_off_c, 9, 38, 0
11, 10848, Note_off_c, 9, 39, 0
11, 10848, Note_off_c, 9, 42, 0
11, 10848, Note_off_c, 9, 54, 0
11, 10848, Note_on_c, 9, 39, 127
11, 10848, Note_on_c, 9, 42, 127
11, 10848, Note_on_c, 9, 46, 127
11, 10848, Note_on_c, 9, 54, 127
11, 10860, Note_off_c, 9, 54, 0
11, 10860, Note_on_c, 9, 35, 127
11, 10860, Note_on_c, 9, 50, 127
11, 10860, Note_on_c, 9, 54, 87
11, 10860, Note_on_c, 9, 61, 127
11, 10860, Note_on_c, 9, 62, 127
11, 10860, Note_on_c, 9, 66, 127
11, 10862, Note_on_c, 9, 50, 127
11, 10862, Note_on_c, 9, 61, 127
11, 10862, Note_on_c, 9, 62, 127
11, 10862, Note_on_c, 9, 66, 127
11, 10872, Note_off_c, 9, 38, 0
11, 10872, Note_off_c, 9, 39, 0
11, 10872, Note_off_c, 9, 42, 0
11, 10872, Note_off_c, 9, 50, 0
11, 10872, Note_off_c, 9, 54, 0
11, 10872, Note_off_c, 9, 61, 0
11, 10872, Note_off_c, 9, 62, 0
11, 10872, Note_off_c, 9, 66, 0
11, 10872, Note_on_c, 9, 39, 127
11, 10872, Note_on_c, 9, 42, 127
11, 10872, Note_on_c, 9, 54, 107
11, 10874, Note_off_c, 9, 50, 0
11, 10874, Note_off_c, 9, 61, 0
11, 10874, Note_off_c, 9, 62, 0
11, 10874, Note_off_c, 9, 66, 0
11, 10884, Note_off_c, 9, 35, 0
11, 10884, Note_off_c, 9, 54, 0
11, 10884, Note_off_c, 9, 61, 0
11, 10884, Note_off_c, 9, 62, 0
11, 10884, Note_on_c, 9, 35, 127
11, 10884, Note_on_c, 9, 54, 87
11, 10884, Note_on_c, 9, 61, 127
11, 10884, Note_on_c, 9, 62, 127
11, 10886, Note_off_c, 9, 61, 0
11, 10886, Note_off_c, 9, 62, 0
11, 10886, Note_on_c, 9, 61, 127
11, 10886, Note_on_c, 9, 62, 127
11, 10896, Note_off_c, 9, 39, 0
11, 10896, Note_off_c, 9, 42, 0
11, 10896, Note_off_c, 9, 46, 0
11, 10896, Note_off_c, 9, 54, 0
11, 10896, Note_on_c, 9, 39, 127
11, 10896, Note_on_c, 9, 42, 127
11, 10896, Note_on_c, 9, 54, 127
11, 10896, Note_on_c, 9, 61, 127
11, 10896, Note_on_c, 9, 62, 127
11, 10898, Note_on_c, 9, 61, 127
11, 10898, Note_on_c, 9, 62, 127
11, 10908, Note_off_c, 9, 35, 0
11, 10908, Note_off_c, 9, 50, 0
11, 10908, Note_off_c, 9, 54, 0
11, 10908, Note_off_c, 9, 61, 0
11, 10908, Note_off_c, 9, 62, 0
11, 10908, Note_off_c, 9, 66, 0
11, 10908, Note_on_c, 9, 38, 127
11, 10908, Note_on_c, 9, 54, 87
11, 10910, Note_off_c, 9, 50, 0
11, 10910, Note_off_c, 9, 61, 0
11, 10910, Note_off_c, 9, 62, 0
11, 10910, Note_off_c, 9, 66, 0
11, 10920, Note_off_c, 9, 39, 0
11, 10920, Note_off_c, 9, 42, 0
11, 10920, Note_off_c, 9, 54, 0
11, 10920, Note_on_c, 9, 38, 127
11, 10920, Note_on_c, 9, 39, 127
11, 10920, Note_on_c, 9, 42, 127
11, 10920, Note_on_c, 9, 46, 127
11, 10920, Note_on_c, 9, 54, 107
11, 10920, Note_on_c, 9, 61, 127
11, 10922, Note_on_c, 9, 61, 127
11, 10932, Note_off_c, 9, 35, 0
11, 10932, Note_off_c, 9, 54, 0
11, 10932, Note_off_c, 9, 61, 0
11, 10932, Note_off_c, 9, 62, 0
11, 10932, Note_on_c, 9, 38, 127
11, 10932, Note_on_c, 9, 54, 87
11, 10934, Note_off_c, 9, 61, 0
11, 10934, Note_off_c, 9, 62, 0
11, 10944, Note_off_c, 9, 39, 0
11, 10944, Note_off_c, 9, 42, 0
11, 10944, Note_off_c, 9, 54, 0
11, 10944, Note_off_c, 9, 61, 0
11, 10944, Note_off_c, 9, 62, 0
11, 10944, Note_on_c, 9, 35, 127
11, 10944, Note_on_c, 9, 42, 127
11, 10944, Note_on_c, 9, 46, 127
11, 10944, Note_on_c, 9, 49, 127
11, 10944, Note_on_c, 9, 54, 127
11, 10946, Note_off_c, 9, 61, 0
11, 10946, Note_off_c, 9, 62, 0
11, 10956, Note_off_c, 9, 38, 0
11, 10956, Note_off_c, 9, 54, 0
11, 10956, Note_on_c, 9, 54, 87
11, 10968, Note_off_c, 9, 38, 0
11, 10968, Note_off_c, 9, 39, 0
11, 10968, Note_off_c, 9, 42, 0
11, 10968, Note_off_c, 9, 46, 0
11, 10968, Note_off_c, 9, 54, 0
11, 10968, Note_off_c, 9, 61, 0
11, 10968, Note_on_c, 9, 39, 127
11, 10968, Note_on_c, 9, 42, 127
11, 10968, Note_on_c, 9, 54, 107
11, 10970, Note_off_c, 9, 61, 0
11, 10980, Note_off_c, 9, 38, 0
11, 10980, Note_off_c, 9, 54, 0
11, 10980, Note_on_c, 9, 35, 127
11, 10980, Note_on_c, 9, 54, 87
11, 10992, Note_off_c, 9, 35, 0
11, 10992, Note_off_c, 9, 42, 0
11, 10992, Note_off_c, 9, 46, 0
11, 10992, Note_off_c, 9, 49, 0
11, 10992, Note_off_c, 9, 54, 0
11, 10992, Note_on_c, 9, 38, 127
11, 10992, Note_on_c, 9, 39, 127
11, 10992, Note_on_c, 9, 42, 127
11, 10992, Note_on_c, 9, 54, 127
11, 11004, Note_off_c, 9, 54, 0
11, 11004, Note_on_c, 9, 54, 87
11, 11016, Note_off_c, 9, 39, 0
11, 11016, Note_off_c, 9, 42, 0
11, 11016, Note_off_c, 9, 54, 0
11, 11016, Note_on_c, 9, 38, 127
11, 11016, Note_on_c, 9, 39, 127
11, 11016, Note_on_c, 9, 42, 127
11, 11016, Note_on_c, 9, 54, 107
11, 11028, Note_off_c, 9, 35, 0
11, 11028, Note_off_c, 9, 54, 0
11, 11028, Note_on_c, 9, 35, 127
11, 11028, Note_on_c, 9, 54, 87
11, 11040, Note_off_c, 9, 38, 0
11, 11040, Note_off_c, 9, 39, 0
11, 11040, Note_off_c, 9, 42, 0
11, 11040, Note_off_c, 9, 54, 0
11, 11040, Note_on_c, 9, 39, 127
11, 11040, Note_on_c, 9, 42, 127
11, 11040, Note_on_c, 9, 54, 127
11, 11052, Note_off_c, 9, 54, 0
11, 11052, Note_on_c, 9, 35, 127
11, 11052, Note_on_c, 9, 54, 87
11, 11064, Note_off_c, 9, 38, 0
11, 11064, Note_off_c, 9, 39, 0
11, 11064, Note_off_c, 9, 42, 0
11, 11064, Note_off_c, 9, 54, 0
11, 11064, Note_on_c, 9, 39, 127
11, 11064, Note_on_c, 9, 42, 127
11, 11064, Note_on_c, 9, 54, 107
11, 11076, Note_off_c, 9, 35, 0
11, 11076, Note_off_c, 9, 54, 0
11, 11076, Note_on_c, 9, 35, 127
11, 11076, Note_on_c, 9, 54, 87
11, 11088, Note_off_c, 9, 39, 0
11, 11088, Note_off_c, 9, 42, 0
11, 11088, Note_off_c, 9, 54, 0
11, 11088, Note_on_c, 9, 38, 127
11, 11088, Note_on_c, 9, 39, 127
11, 11088, Note_on_c, 9, 42, 127
11, 11088, Note_on_c, 9, 54, 127
11, 11100, Note_off_c, 9, 35, 0
11, 11100, Note_off_c, 9, 54, 0
11, 11100, Note_on_c, 9, 54, 87
11, 11112, Note_off_c, 9, 39, 0
11, 11112, Note_off_c, 9, 42, 0
11, 11112, Note_off_c, 9, 54, 0
11, 11112, Note_on_c, 9, 38, 127
11, 11112, Note_on_c, 9, 39, 127
11, 11112, Note_on_c, 9, 46, 127
11, 11112, Note_on_c, 9, 54, 107
11, 11124, Note_off_c, 9, 35, 0
11, 11124, Note_off_c, 9, 54, 0
11, 11124, Note_on_c, 9, 54, 87
11, 11136, Note_off_c, 9, 38, 0
11, 11136, Note_off_c, 9, 39, 0
11, 11136, Note_off_c, 9, 42, 0
11, 11136, Note_off_c, 9, 54, 0
11, 11136, Note_on_c, 9, 35, 127
11, 11136, Note_on_c, 9, 42, 127
11, 11136, Note_on_c, 9, 54, 127
11, 11148, Note_off_c, 9, 54, 0
11, 11148, Note_on_c, 9, 54, 87
11, 11160, Note_off_c, 9, 38, 0
11, 11160, Note_off_c, 9, 39, 0
11, 11160, Note_off_c, 9, 46, 0
11, 11160, Note_off_c, 9, 54, 0
11, 11160, Note_on_c, 9, 39, 127
11, 11160, Note_on_c, 9, 42, 127
11, 11160, Note_on_c, 9, 54, 107
11, 11172, Note_off_c, 9, 54, 0
11, 11172, Note_on_c, 9, 35, 127
11, 11172, Note_on_c, 9, 54, 87
11, 11184, Note_off_c, 9, 35, 0
11, 11184, Note_off_c, 9, 42, 0
11, 11184, Note_off_c, 9, 54, 0
11, 11184, Note_on_c, 9, 38, 127
11, 11184, Note_on_c, 9, 39, 127
11, 11184, Note_on_c, 9, 42, 127
11, 11184, Note_on_c, 9, 54, 127
11, 11196, Note_off_c, 9, 54, 0
11, 11196, Note_on_c, 9, 54, 87
11, 11208, Note_off_c, 9, 39, 0
11, 11208, Note_off_c, 9, 42, 0
11, 11208, Note_off_c, 9, 54, 0
11, 11208, Note_on_c, 9, 38, 127
11, 11208, Note_on_c, 9, 39, 127
11, 11208, Note_on_c, 9, 42, 127
11, 11208, Note_on_c, 9, 54, 107
11, 11220, Note_off_c, 9, 35, 0
11, 11220, Note_off_c, 9, 54, 0
11, 11220, Note_on_c, 9, 35, 127
11, 11220, Note_on_c, 9, 54, 87
11, 11232, Note_off_c, 9, 38, 0
11, 11232, Note_off_c, 9, 39, 0
11, 11232, Note_off_c, 9, 42, 0
11, 11232, Note_off_c, 9, 54, 0
11, 11232, Note_on_c, 9, 35, 127
11, 11232, Note_on_c, 9, 42, 127
11, 11232, Note_on_c, 9, 54, 127
11, 11244, Note_off_c, 9, 54, 0
11, 11244, Note_on_c, 9, 44, 127
11, 11244, Note_on_c, 9, 54, 87
11, 11256, Note_off_c, 9, 38, 0
11, 11256, Note_off_c, 9, 39, 0
11, 11256, Note_off_c, 9, 42, 0
11, 11256, Note_off_c, 9, 54, 0
11, 11256, Note_on_c, 9, 46, 127
11, 11256, Note_on_c, 9, 49, 127
11, 11256, Note_on_c, 9, 52, 127
11, 11256, Note_on_c, 9, 54, 107
11, 11268, Note_off_c, 9, 35, 0
11, 11268, Note_off_c, 9, 54, 0
11, 11268, Note_on_c, 9, 35, 127
11, 11268, Note_on_c, 9, 54, 87
11, 11280, Note_off_c, 9, 35, 0
11, 11280, Note_off_c, 9, 42, 0
11, 11280, Note_off_c, 9, 54, 0
11, 11280, Note_on_c, 9, 38, 127
11, 11280, Note_on_c, 9, 39, 127
11, 11280, Note_on_c, 9, 42, 127
11, 11280, Note_on_c, 9, 54, 127
11, 11292, Note_off_c, 9, 44, 0
11, 11292, Note_off_c, 9, 54, 0
11, 11292, Note_on_c, 9, 44, 127
11, 11292, Note_on_c, 9, 54, 87
11, 11304, Note_off_c, 9, 46, 0
11, 11304, Note_off_c, 9, 49, 0
11, 11304, Note_off_c, 9, 52, 0
11, 11304, Note_off_c, 9, 54, 0
11, 11304, Note_on_c, 9, 38, 127
11, 11304, Note_on_c, 9, 39, 127
11, 11304, Note_on_c, 9, 46, 127
11, 11304, Note_on_c, 9, 49, 127
11, 11304, Note_on_c, 9, 52, 127
11, 11304, Note_on_c, 9, 54, 107
11, 11316, Note_off_c, 9, 35, 0
11, 11316, Note_off_c, 9, 54, 0
11, 11316, Note_on_c, 9, 54, 87
11, 11328, Note_off_c, 9, 38, 0
11, 11328, Note_off_c, 9, 39, 0
11, 11328, Note_off_c, 9, 42, 0
11, 11328, Note_off_c, 9, 54, 0
11, 11328, Note_on_c, 9, 35, 127
11, 11328, Note_on_c, 9, 42, 127
11, 11328, Note_on_c, 9, 54, 127
11, 11340, Note_off_c, 9, 44, 0
11, 11340, Note_off_c, 9, 54, 0
11, 11340, Note_on_c, 9, 54, 87
11, 11352, Note_off_c, 9, 38, 0
11, 11352, Note_off_c, 9, 39, 0
11, 11352, Note_off_c, 9, 46, 0
11, 11352, Note_off_c, 9, 49, 0
11, 11352, Note_off_c, 9, 52, 0
11, 11352, Note_off_c, 9, 54, 0
11, 11352, Note_on_c, 9, 39, 127
11, 11352, Note_on_c, 9, 42, 127
11, 11352, Note_on_c, 9, 54, 107
11, 11364, Note_off_c, 9, 54, 0
11, 11364, Note_on_c, 9, 35, 127
11, 11364, Note_on_c, 9, 54, 87
11, 11376, Note_off_c, 9, 35, 0
11, 11376, Note_off_c, 9, 42, 0
11, 11376, Note_off_c, 9, 54, 0
11, 11376, Note_on_c, 9, 38, 127
11, 11376, Note_on_c, 9, 39, 127
11, 11376, Note_on_c, 9, 42, 127
11, 11376, Note_on_c, 9, 54, 127
11, 11388, Note_off_c, 9, 54, 0
11, 11388, Note_on_c, 9, 54, 87
11, 11400, Note_off_c, 9, 39, 0
11, 11400, Note_off_c, 9, 42, 0
11, 11400, Note_off_c, 9, 54, 0
11, 11400, Note_on_c, 9, 38, 127
11, 11400, Note_on_c, 9, 39, 127
11, 11400, Note_on_c, 9, 42, 127
11, 11400, Note_on_c, 9, 54, 107
11, 11412, Note_off_c, 9, 35, 0
11, 11412, Note_off_c, 9, 54, 0
11, 11412, Note_on_c, 9, 35, 127
11, 11412, Note_on_c, 9, 54, 87
11, 11424, Note_off_c, 9, 38, 0
11, 11424, Note_off_c, 9, 39, 0
11, 11424, Note_off_c, 9, 42, 0
11, 11424, Note_off_c, 9, 54, 0
11, 11424, Note_on_c, 9, 35, 127
11, 11424, Note_on_c, 9, 42, 127
11, 11424, Note_on_c, 9, 54, 127
11, 11436, Note_off_c, 9, 54, 0
11, 11436, Note_on_c, 9, 44, 127
11, 11436, Note_on_c, 9, 54, 87
11, 11448, Note_off_c, 9, 38, 0
11, 11448, Note_off_c, 9, 39, 0
11, 11448, Note_off_c, 9, 42, 0
11, 11448, Note_off_c, 9, 54, 0
11, 11448, Note_on_c, 9, 46, 127
11, 11448, Note_on_c, 9, 49, 127
11, 11448, Note_on_c, 9, 52, 127
11, 11448, Note_on_c, 9, 54, 107
11, 11460, Note_off_c, 9, 35, 0
11, 11460, Note_off_c, 9, 54, 0
11, 11460, Note_on_c, 9, 35, 127
11, 11460, Note_on_c, 9, 54, 87
11, 11472, Note_off_c, 9, 35, 0
11, 11472, Note_off_c, 9, 42, 0
11, 11472, Note_off_c, 9, 54, 0
11, 11472, Note_on_c, 9, 38, 127
11, 11472, Note_on_c, 9, 39, 127
11, 11472, Note_on_c, 9, 42, 127
11, 11472, Note_on_c, 9, 54, 127
11, 11484, Note_off_c, 9, 44, 0
11, 11484, Note_off_c, 9, 54, 0
11, 11484, Note_on_c, 9, 44, 127
11, 11484, Note_on_c, 9, 54, 87
11, 11496, Note_off_c, 9, 46, 0
11, 11496, Note_off_c, 9, 49, 0
11, 11496, Note_off_c, 9, 52, 0
11, 11496, Note_off_c, 9, 54, 0
11, 11496, Note_on_c, 9, 38, 127
11, 11496, Note_on_c, 9, 39, 127
11, 11496, Note_on_c, 9, 46, 127
11, 11496, Note_on_c, 9, 49, 127
11, 11496, Note_on_c, 9, 52, 127
11, 11496, Note_on_c, 9, 54, 107
11, 11508, Note_off_c, 9, 35, 0
11, 11508, Note_off_c, 9, 54, 0
11, 11508, Note_on_c, 9, 54, 87
11, 11520, Note_off_c, 9, 38, 0
11, 11520, Note_off_c, 9, 39, 0
11, 11520, Note_off_c, 9, 42, 0
11, 11520, Note_off_c, 9, 54, 0
11, 11520, Note_on_c, 9, 35, 127
11, 11520, Note_on_c, 9, 42, 127
11, 11520, Note_on_c, 9, 54, 127
11, 11532, Note_off_c, 9, 44, 0
11, 11532, Note_off_c, 9, 54, 0
11, 11532, Note_on_c, 9, 54, 87
11, 11544, Note_off_c, 9, 38, 0
11, 11544, Note_off_c, 9, 39, 0
11, 11544, Note_off_c, 9, 46, 0
11, 11544, Note_off_c, 9, 49, 0
11, 11544, Note_off_c, 9, 52, 0
11, 11544, Note_off_c, 9, 54, 0
11, 11544, Note_on_c, 9, 39, 127
11, 11544, Note_on_c, 9, 42, 127
11, 11544, Note_on_c, 9, 54, 107
11, 11556, Note_off_c, 9, 54, 0
11, 11556, Note_on_c, 9, 35, 127
11, 11556, Note_on_c, 9, 54, 87
11, 11568, Note_off_c, 9, 35, 0
11, 11568, Note_off_c, 9, 42, 0
11, 11568, Note_off_c, 9, 54, 0
11, 11568, Note_on_c, 9, 38, 127
11, 11568, Note_on_c, 9, 39, 127
11, 11568, Note_on_c, 9, 42, 127
11, 11568, Note_on_c, 9, 54, 127
11, 11580, Note_off_c, 9, 54, 0
11, 11580, Note_on_c, 9, 54, 87
11, 11592, Note_off_c, 9, 39, 0
11, 11592, Note_off_c, 9, 42, 0
11, 11592, Note_off_c, 9, 54, 0
11, 11592, Note_on_c, 9, 38, 127
11, 11592, Note_on_c, 9, 39, 127
11, 11592, Note_on_c, 9, 42, 127
11, 11592, Note_on_c, 9, 54, 107
11, 11604, Note_off_c, 9, 35, 0
11, 11604, Note_off_c, 9, 54, 0
11, 11604, Note_on_c, 9, 35, 127
11, 11604, Note_on_c, 9, 54, 87
11, 11616, Note_off_c, 9, 38, 0
11, 11616, Note_off_c, 9, 39, 0
11, 11616, Note_off_c, 9, 42, 0
11, 11616, Note_off_c, 9, 54, 0
11, 11616, Note_on_c, 9, 39, 127
11, 11616, Note_on_c, 9, 42, 127
11, 11616, Note_on_c, 9, 54, 127
11, 11628, Note_off_c, 9, 54, 0
11, 11628, Note_on_c, 9, 35, 127
11, 11628, Note_on_c, 9, 54, 87
11, 11640, Note_off_c, 9, 38, 0
11, 11640, Note_off_c, 9, 39, 0
11, 11640, Note_off_c, 9, 42, 0
11, 11640, Note_off_c, 9, 54, 0
11, 11640, Note_on_c, 9, 39, 127
11, 11640, Note_on_c, 9, 42, 127
11, 11640, Note_on_c, 9, 54, 107
11, 11652, Note_off_c, 9, 35, 0
11, 11652, Note_off_c, 9, 54, 0
11, 11652, Note_on_c, 9, 35, 127
11, 11652, Note_on_c, 9, 54, 87
11, 11664, Note_off_c, 9, 39, 0
11, 11664, Note_off_c, 9, 42, 0
11, 11664, Note_off_c, 9, 54, 0
11, 11664, Note_on_c, 9, 38, 127
11, 11664, Note_on_c, 9, 39, 127
11, 11664, Note_on_c, 9, 42, 127
11, 11664, Note_on_c, 9, 54, 127
11, 11676, Note_off_c, 9, 35, 0
11, 11676, Note_off_c, 9, 54, 0
11, 11676, Note_on_c, 9, 54, 87
11, 11688, Note_off_c, 9, 39, 0
11, 11688, Note_off_c, 9, 42, 0
11, 11688, Note_off_c, 9, 54, 0
11, 11688, Note_on_c, 9, 38, 127
11, 11688, Note_on_c, 9, 39, 127
11, 11688, Note_on_c, 9, 46, 127
11, 11688, Note_on_c, 9, 54, 107
11, 11700, Note_off_c, 9, 35, 0
11, 11700, Note_off_c, 9, 54, 0
11, 11700, Note_on_c, 9, 54, 87
11, 11712, Note_off_c, 9, 38, 0
11, 11712, Note_off_c, 9, 39, 0
11, 11712, Note_off_c, 9, 42, 0
11, 11712, Note_off_c, 9, 54, 0
11, 11712, Note_on_c, 9, 35, 127
11, 11712, Note_on_c, 9, 42, 127
11, 11712, Note_on_c, 9, 54, 127
11, 11724, Note_off_c, 9, 54, 0
11, 11724, Note_on_c, 9, 54, 87
11, 11736, Note_off_c, 9, 38, 0
11, 11736, Note_off_c, 9, 39, 0
11, 11736, Note_off_c, 9, 46, 0
11, 11736, Note_off_c, 9, 54, 0
11, 11736, Note_on_c, 9, 39, 127
11, 11736, Note_on_c, 9, 42, 127
11, 11736, Note_on_c, 9, 54, 107
11, 11748, Note_off_c, 9, 54, 0
11, 11748, Note_on_c, 9, 35, 127
11, 11748, Note_on_c, 9, 54, 87
11, 11760, Note_off_c, 9, 35, 0
11, 11760, Note_off_c, 9, 42, 0
11, 11760, Note_off_c, 9, 54, 0
11, 11760, Note_on_c, 9, 38, 127
11, 11760, Note_on_c, 9, 39, 127
11, 11760, Note_on_c, 9, 42, 127
11, 11760, Note_on_c, 9, 54, 127
11, 11772, Note_off_c, 9, 54, 0
11, 11772, Note_on_c, 9, 54, 87
11, 11784, Note_off_c, 9, 39, 0
11, 11784, Note_off_c, 9, 42, 0
11, 11784, Note_off_c, 9, 54, 0
11, 11784, Note_on_c, 9, 38, 127
11, 11784, Note_on_c, 9, 39, 127
11, 11784, Note_on_c, 9, 42, 127
11, 11784, Note_on_c, 9, 54, 107
11, 11796, Note_off_c, 9, 35, 0
11, 11796, Note_off_c, 9, 54, 0
11, 11796, Note_on_c, 9, 35, 127
11, 11796, Note_on_c, 9, 54, 87
11, 11808, Note_off_c, 9, 38, 0
11, 11808, Note_off_c, 9, 39, 0
11, 11808, Note_off_c, 9, 42, 0
11, 11808, Note_off_c, 9, 54, 0
11, 11808, Note_on_c, 9, 35, 127
11, 11808, Note_on_c, 9, 42, 127
11, 11808, Note_on_c, 9, 54, 127
11, 11820, Note_off_c, 9, 54, 0
11, 11820, Note_on_c, 9, 44, 127
11, 11820, Note_on_c, 9, 54, 87
11, 11832, Note_off_c, 9, 38, 0
11, 11832, Note_off_c, 9, 39, 0
11, 11832, Note_off_c, 9, 42, 0
11, 11832, Note_off_c, 9, 54, 0
11, 11832, Note_on_c, 9, 46, 127
11, 11832, Note_on_c, 9, 51, 127
11, 11832, Note_on_c, 9, 52, 127
11, 11832, Note_on_c, 9, 54, 107
11, 11844, Note_off_c, 9, 35, 0
11, 11844, Note_off_c, 9, 54, 0
11, 11844, Note_on_c, 9, 35, 127
11, 11844, Note_on_c, 9, 54, 87
11, 11856, Note_off_c, 9, 35, 0
11, 11856, Note_off_c, 9, 42, 0
11, 11856, Note_off_c, 9, 54, 0
11, 11856, Note_on_c, 9, 38, 127
11, 11856, Note_on_c, 9, 39, 127
11, 11856, Note_on_c, 9, 42, 127
11, 11856, Note_on_c, 9, 54, 127
11, 11868, Note_off_c, 9, 44, 0
11, 11868, Note_off_c, 9, 54, 0
11, 11868, Note_on_c, 9, 44, 127
11, 11868, Note_on_c, 9, 54, 87
11, 11880, Note_off_c, 9, 46, 0
11, 11880, Note_off_c, 9, 51, 0
11, 11880, Note_off_c, 9, 52, 0
11, 11880, Note_off_c, 9, 54, 0
11, 11880, Note_on_c, 9, 38, 127
11, 11880, Note_on_c, 9, 39, 127
11, 11880, Note_on_c, 9, 46, 127
11, 11880, Note_on_c, 9, 51, 127
11, 11880, Note_on_c, 9, 52, 127
11, 11880, Note_on_c, 9, 54, 107
11, 11892, Note_off_c, 9, 35, 0
11, 11892, Note_off_c, 9, 54, 0
11, 11892, Note_on_c, 9, 54, 87
11, 11904, Note_off_c, 9, 38, 0
11, 11904, Note_off_c, 9, 39, 0
11, 11904, Note_off_c, 9, 42, 0
11, 11904, Note_off_c, 9, 54, 0
11, 11904, Note_on_c, 9, 35, 127
11, 11904, Note_on_c, 9, 42, 127
11, 11904, Note_on_c, 9, 54, 127
11, 11916, Note_off_c, 9, 44, 0
11, 11916, Note_off_c, 9, 54, 0
11, 11916, Note_on_c, 9, 54, 87
11, 11928, Note_off_c, 9, 38, 0
11, 11928, Note_off_c, 9, 39, 0
11, 11928, Note_off_c, 9, 46, 0
11, 11928, Note_off_c, 9, 51, 0
11, 11928, Note_off_c, 9, 52, 0
11, 11928, Note_off_c, 9, 54, 0
11, 11928, Note_on_c, 9, 39, 127
11, 11928, Note_on_c, 9, 42, 127
11, 11928, Note_on_c, 9, 54, 107
11, 11940, Note_off_c, 9, 54, 0
11, 11940, Note_on_c, 9, 35, 127
11, 11940, Note_on_c, 9, 54, 87
11, 11940, Note_on_c, 9, 62, 127
11, 11940, Note_on_c, 9, 65, 127
11, 11940, Note_on_c, 9, 66, 127
11, 11942, Note_on_c, 9, 62, 127
11, 11942, Note_on_c, 9, 65, 127
11, 11942, Note_on_c, 9, 66, 127
11, 11952, Note_off_c, 9, 35, 0
11, 11952, Note_off_c, 9, 42, 0
11, 11952, Note_off_c, 9, 54, 0
11, 11952, Note_on_c, 9, 38, 127
11, 11952, Note_on_c, 9, 39, 127
11, 11952, Note_on_c, 9, 42, 127
11, 11952, Note_on_c, 9, 54, 127
11, 11964, Note_off_c, 9, 54, 0
11, 11964, Note_on_c, 9, 54, 87
11, 11976, Note_off_c, 9, 39, 0
11, 11976, Note_off_c, 9, 42, 0
11, 11976, Note_off_c, 9, 54, 0
11, 11976, Note_on_c, 9, 38, 127
11, 11976, Note_on_c, 9, 39, 127
11, 11976, Note_on_c, 9, 42, 127
11, 11976, Note_on_c, 9, 50, 127
11, 11976, Note_on_c, 9, 54, 107
11, 11976, Note_on_c, 9, 61, 127
11, 11976, Note_on_c, 9, 62, 127
11, 11976, Note_on_c, 9, 66, 127
11, 11978, Note_on_c, 9, 50, 127
11, 11978, Note_on_c, 9, 61, 127
11, 11978, Note_on_c, 9, 62, 127
11, 11978, Note_on_c, 9, 66, 127
11, 11988, Note_off_c, 9, 35, 0
11, 11988, Note_off_c, 9, 54, 0
11, 11988, Note_off_c, 9, 62, 0
11, 11988, Note_off_c, 9, 65, 0
11, 11988, Note_off_c, 9, 66, 0
11, 11988, Note_on_c, 9, 35, 127
11, 11988, Note_on_c, 9, 54, 87
11, 11988, Note_on_c, 9, 61, 127
11, 11988, Note_on_c, 9, 62, 127
11, 11990, Note_off_c, 9, 62, 0
11, 11990, Note_off_c, 9, 65, 0
11, 11990, Note_off_c, 9, 66, 0
11, 11990, Note_on_c, 9, 61, 127
11, 11990, Note_on_c, 9, 62, 127
11, 12000, Note_off_c, 9, 38, 0
11, 12000, Note_off_c, 9, 39, 0
11, 12000, Note_off_c, 9, 42, 0
11, 12000, Note_off_c, 9, 54, 0
11, 12000, Note_on_c, 9, 39, 127
11, 12000, Note_on_c, 9, 42, 127
11, 12000, Note_on_c, 9, 46, 127
11, 12000, Note_on_c, 9, 54, 127
11, 12012, Note_off_c, 9, 54, 0
11, 12012, Note_on_c, 9, 35, 127
11, 12012, Note_on_c, 9, 50, 127
11, 12012, Note_on_c, 9, 54, 87
11, 12012, Note_on_c, 9, 61, 127
11, 12012, Note_on_c, 9, 62, 127
11, 12012, Note_on_c, 9, 66, 127
11, 12014, Note_on_c, 9, 50, 127
11, 12014, Note_on_c, 9, 61, 127
11, 12014, Note_on_c, 9, 62, 127
11, 12014, Note_on_c, 9, 66, 127
11, 12024, Note_off_c, 9, 38, 0
11, 12024, Note_off_c, 9, 39, 0
11, 12024, Note_off_c, 9, 42, 0
11, 12024, Note_off_c, 9, 50, 0
11, 12024, Note_off_c, 9, 54, 0
11, 12024, Note_off_c, 9, 61, 0
11, 12024, Note_off_c, 9, 62, 0
11, 12024, Note_off_c, 9, 66, 0
11, 12024, Note_on_c, 9, 39, 127
11, 12024, Note_on_c, 9, 42, 127
11, 12024, Note_on_c, 9, 54, 107
11, 12026, Note_off_c, 9, 50, 0
11, 12026, Note_off_c, 9, 61, 0
11, 12026, Note_off_c, 9, 62, 0
11, 12026, Note_off_c, 9, 66, 0
11, 12036, Note_off_c, 9, 35, 0
11, 12036, Note_off_c, 9, 54, 0
11, 12036, Note_off_c, 9, 61, 0
11, 12036, Note_off_c, 9, 62, 0
11, 12036, Note_on_c, 9, 35, 127
11, 12036, Note_on_c, 9, 54, 87
11, 12036, Note_on_c, 9, 61, 127
11, 12036, Note_on_c, 9, 62, 127
11, 12038, Note_off_c, 9, 61, 0
11, 12038, Note_off_c, 9, 62, 0
11, 12038, Note_on_c, 9, 61, 127
11, 12038, Note_on_c, 9, 62, 127
11, 12048, Note_off_c, 9, 39, 0
11, 12048, Note_off_c, 9, 42, 0
11, 12048, Note_off_c, 9, 46, 0
11, 12048, Note_off_c, 9, 54, 0
11, 12048, Note_on_c, 9, 39, 127
11, 12048, Note_on_c, 9, 42, 127
11, 12048, Note_on_c, 9, 54, 127
11, 12048, Note_on_c, 9, 61, 127
11, 12048, Note_on_c, 9, 62, 127
11, 12050, Note_on_c, 9, 61, 127
11, 12050, Note_on_c, 9, 62, 127
11, 12060, Note_off_c, 9, 35, 0
11, 12060, Note_off_c, 9, 50, 0
11, 12060, Note_off_c, 9, 54, 0
11, 12060, Note_off_c, 9, 61, 0
11, 12060, Note_off_c, 9, 62, 0
11, 12060, Note_off_c, 9, 66, 0
11, 12060, Note_on_c, 9, 38, 127
11, 12060, Note_on_c, 9, 54, 87
11, 12062, Note_off_c, 9, 50, 0
11, 12062, Note_off_c, 9, 61, 0
11, 12062, Note_off_c, 9, 62, 0
11, 12062, Note_off_c, 9, 66, 0
11, 12072, Note_off_c, 9, 39, 0
11, 12072, Note_off_c, 9, 42, 0
11, 12072, Note_off_c, 9, 54, 0
11, 12072, Note_on_c, 9, 38, 127
11, 12072, Note_on_c, 9, 39, 127
11, 12072, Note_on_c, 9, 42, 127
11, 12072, Note_on_c, 9, 46, 127
11, 12072, Note_on_c, 9, 54, 107
11, 12072, Note_on_c, 9, 61, 127
11, 12074, Note_on_c, 9, 61, 127
11, 12084, Note_off_c, 9, 35, 0
11, 12084, Note_off_c, 9, 54, 0
11, 12084, Note_off_c, 9, 61, 0
11, 12084, Note_off_c, 9, 62, 0
11, 12084, Note_on_c, 9, 38, 127
11, 12084, Note_on_c, 9, 54, 87
11, 12086, Note_off_c, 9, 61, 0
11, 12086, Note_off_c, 9, 62, 0
11, 12096, Note_off_c, 9, 39, 0
11, 12096, Note_off_c, 9, 42, 0
11, 12096, Note_off_c, 9, 54, 0
11, 12096, Note_off_c, 9, 61, 0
11, 12096, Note_off_c, 9, 62, 0
11, 12096, Note_on_c, 9, 35, 127
11, 12096, Note_on_c, 9, 42, 127
11, 12096, Note_on_c, 9, 46, 127
11, 12096, Note_on_c, 9, 49, 127
11, 12096, Note_on_c, 9, 54, 127
11, 12098, Note_off_c, 9, 61, 0
11, 12098, Note_off_c, 9, 62, 0
11, 12108, Note_off_c, 9, 38, 0
11, 12108, Note_off_c, 9, 54, 0
11, 12108, Note_on_c, 9, 54, 87
11, 12120, Note_off_c, 9, 38, 0
11, 12120, Note_off_c, 9, 39, 0
11, 12120, Note_off_c, 9, 42, 0
11, 12120, Note_off_c, 9, 46, 0
11, 12120, Note_off_c, 9, 54, 0
11, 12120, Note_off_c, 9, 61, 0
11, 12120, Note_on_c, 9, 39, 127
11, 12120, Note_on_c, 9, 42, 127
11, 12120, Note_on_c, 9, 54, 107
11, 12122, Note_off_c, 9, 61, 0
11, 12132, Note_off_c, 9, 38, 0
11, 12132, Note_off_c, 9, 54, 0
11, 12132, Note_on_c, 9, 35, 127
11, 12132, Note_on_c, 9, 54, 87
11, 12144, Note_off_c, 9, 35, 0
11, 12144, Note_off_c, 9, 42, 0
11, 12144, Note_off_c, 9, 46, 0
11, 12144, Note_off_c, 9, 49, 0
11, 12144, Note_off_c, 9, 54, 0
11, 12144, Note_on_c, 9, 38, 127
11, 12144, Note_on_c, 9, 39, 127
11, 12144, Note_on_c, 9, 42, 127
11, 12144, Note_on_c, 9, 54, 127
11, 12156, Note_off_c, 9, 54, 0
11, 12156, Note_on_c, 9, 54, 87
11, 12168, Note_off_c, 9, 39, 0
11, 12168, Note_off_c, 9, 42, 0
11, 12168, Note_off_c, 9, 54, 0
11, 12168, Note_on_c, 9, 38, 127
11, 12168, Note_on_c, 9, 39, 127
11, 12168, Note_on_c, 9, 42, 127
11, 12168, Note_on_c, 9, 54, 107
11, 12180, Note_off_c, 9, 35, 0
11, 12180, Note_off_c, 9, 54, 0
11, 12180, Note_on_c, 9, 35, 127
11, 12180, Note_on_c, 9, 54, 87
11, 12192, Note_off_c, 9, 38, 0
11, 12192, Note_off_c, 9, 39, 0
11, 12192, Note_off_c, 9, 42, 0
11, 12192, Note_off_c, 9, 54, 0
11, 12192, Note_on_c, 9, 39, 127
11, 12192, Note_on_c, 9, 42, 127
11, 12192, Note_on_c, 9, 54, 127
11, 12204, Note_off_c, 9, 54, 0
11, 12204, Note_on_c, 9, 35, 127
11, 12204, Note_on_c, 9, 54, 87
11, 12216, Note_off_c, 9, 38, 0
11, 12216, Note_off_c, 9, 39, 0
11, 12216, Note_off_c, 9, 42, 0
11, 12216, Note_off_c, 9, 54, 0
11, 12216, Note_on_c, 9, 39, 127
11, 12216, Note_on_c, 9, 42, 127
11, 12216, Note_on_c, 9, 54, 107
11, 12228, Note_off_c, 9, 35, 0
11, 12228, Note_off_c, 9, 54, 0
11, 12228, Note_on_c, 9, 35, 127
11, 12228, Note_on_c, 9, 54, 87
11, 12240, Note_off_c, 9, 39, 0
11, 12240, Note_off_c, 9, 42, 0
11, 12240, Note_off_c, 9, 54, 0
11, 12240, Note_on_c, 9, 38, 127
11, 12240, Note_on_c, 9, 39, 127
11, 12240, Note_on_c, 9, 42, 127
11, 12240, Note_on_c, 9, 54, 127
11, 12252, Note_off_c, 9, 35, 0
11, 12252, Note_off_c, 9, 54, 0
11, 12252, Note_on_c, 9, 54, 87
11, 12264, Note_off_c, 9, 39, 0
11, 12264, Note_off_c, 9, 42, 0
11, 12264, Note_off_c, 9, 54, 0
11, 12264, Note_on_c, 9, 38, 127
11, 12264, Note_on_c, 9, 39, 127
11, 12264, Note_on_c, 9, 46, 127
11, 12264, Note_on_c, 9, 54, 107
11, 12276, Note_off_c, 9, 35, 0
11, 12276, Note_off_c, 9, 54, 0
11, 12276, Note_on_c, 9, 54, 87
11, 12288, Note_off_c, 9, 38, 0
11, 12288, Note_off_c, 9, 39, 0
11, 12288, Note_off_c, 9, 42, 0
11, 12288, Note_off_c, 9, 54, 0
11, 12288, Note_on_c, 9, 35, 127
11, 12288, Note_on_c, 9, 42, 127
11, 12288, Note_on_c, 9, 54, 127
11, 12300, Note_off_c, 9, 54, 0
11, 12300, Note_on_c, 9, 54, 87
11, 12312, Note_off_c, 9, 38, 0
11, 12312, Note_off_c, 9, 39, 0
11, 12312, Note_off_c, 9, 46, 0
11, 12312, Note_off_c, 9, 54, 0
11, 12312, Note_on_c, 9, 39, 127
11, 12312, Note_on_c, 9, 42, 127
11, 12312, Note_on_c, 9, 54, 107
11, 12324, Note_off_c, 9, 54, 0
11, 12324, Note_on_c, 9, 35, 127
11, 12324, Note_on_c, 9, 54, 87
11, 12336, Note_off_c, 9, 35, 0
11, 12336, Note_off_c, 9, 42, 0
11, 12336, Note_off_c, 9, 54, 0
11, 12336, Note_on_c, 9, 38, 127
11, 12336, Note_on_c, 9, 39, 127
11, 12336, Note_on_c, 9, 42, 127
11, 12336, Note_on_c, 9, 54, 127
11, 12348, Note_off_c, 9, 54, 0
11, 12348, Note_on_c, 9, 54, 87
11, 12360, Note_off_c, 9, 39, 0
11, 12360, Note_off_c, 9, 42, 0
11, 12360, Note_off_c, 9, 54, 0
11, 12360, Note_on_c, 9, 38, 127
11, 12360, Note_on_c, 9, 39, 127
11, 12360, Note_on_c, 9, 42, 127
11, 12360, Note_on_c, 9, 54, 107
11, 12372, Note_off_c, 9, 35, 0
11, 12372, Note_off_c, 9, 54, 0
11, 12372, Note_on_c, 9, 35, 127
11, 12372, Note_on_c, 9, 54, 87
11, 12384, Note_off_c, 9, 38, 0
11, 12384, Note_off_c, 9, 39, 0
11, 12384, Note_off_c, 9, 42, 0
11, 12384, Note_off_c, 9, 54, 0
11, 12384, Note_on_c, 9, 39, 127
11, 12384, Note_on_c, 9, 42, 127
11, 12384, Note_on_c, 9, 54, 127
11, 12396, Note_off_c, 9, 54, 0
11, 12396, Note_on_c, 9, 35, 127
11, 12396, Note_on_c, 9, 54, 87
11, 12408, Note_off_c, 9, 38, 0
11, 12408, Note_off_c, 9, 39, 0
11, 12408, Note_off_c, 9, 42, 0
11, 12408, Note_off_c, 9, 54, 0
11, 12408, Note_on_c, 9, 39, 127
11, 12408, Note_on_c, 9, 42, 127
11, 12408, Note_on_c, 9, 54, 107
11, 12420, Note_off_c, 9, 35, 0
11, 12420, Note_off_c, 9, 54, 0
11, 12420, Note_on_c, 9, 35, 127
11, 12420, Note_on_c, 9, 54, 87
11, 12432, Note_off_c, 9, 39, 0
11, 12432, Note_off_c, 9, 42, 0
11, 12432, Note_off_c, 9, 54, 0
11, 12432, Note_on_c, 9, 38, 127
11, 12432, Note_on_c, 9, 39, 127
11, 12432, Note_on_c, 9, 42, 127
11, 12432, Note_on_c, 9, 54, 127
11, 12444, Note_off_c, 9, 35, 0
11, 12444, Note_off_c, 9, 54, 0
11, 12444, Note_on_c, 9, 54, 87
11, 12456, Note_off_c, 9, 39, 0
11, 12456, Note_off_c, 9, 42, 0
11, 12456, Note_off_c, 9, 54, 0
11, 12456, Note_on_c, 9, 38, 127
11, 12456, Note_on_c, 9, 39, 127
11, 12456, Note_on_c, 9, 46, 127
11, 12456, Note_on_c, 9, 54, 107
11, 12468, Note_off_c, 9, 35, 0
11, 12468, Note_off_c, 9, 54, 0
11, 12468, Note_on_c, 9, 54, 87
11, 12480, Note_off_c, 9, 38, 0
11, 12480, Note_off_c, 9, 39, 0
11, 12480, Note_off_c, 9, 42, 0
11, 12480, Note_off_c, 9, 54, 0
11, 12480, Note_on_c, 9, 35, 127
11, 12480, Note_on_c, 9, 42, 127
11, 12480, Note_on_c, 9, 54, 127
11, 12492, Note_off_c, 9, 54, 0
11, 12492, Note_on_c, 9, 54, 87
11, 12504, Note_off_c, 9, 38, 0
11, 12504, Note_off_c, 9, 39, 0
11, 12504, Note_off_c, 9, 46, 0
11, 12504, Note_off_c, 9, 54, 0
11, 12504, Note_on_c, 9, 39, 127
11, 12504, Note_on_c, 9, 42, 127
11, 12504, Note_on_c, 9, 54, 107
11, 12516, Note_off_c, 9, 54, 0
11, 12516, Note_on_c, 9, 35, 127
11, 12516, Note_on_c, 9, 54, 87
11, 12528, Note_off_c, 9, 35, 0
11, 12528, Note_off_c, 9, 42, 0
11, 12528, Note_off_c, 9, 54, 0
11, 12528, Note_on_c, 9, 38, 127
11, 12528, Note_on_c, 9, 39, 127
11, 12528, Note_on_c, 9, 42, 127
11, 12528, Note_on_c, 9, 54, 127
11, 12540, Note_off_c, 9, 54, 0
11, 12540, Note_on_c, 9, 54, 87
11, 12552, Note_off_c, 9, 39, 0
11, 12552, Note_off_c, 9, 42, 0
11, 12552, Note_off_c, 9, 54, 0
11, 12552, Note_on_c, 9, 38, 127
11, 12552, Note_on_c, 9, 39, 127
11, 12552, Note_on_c, 9, 42, 127
11, 12552, Note_on_c, 9, 54, 107
11, 12564, Note_off_c, 9, 35, 0
11, 12564, Note_off_c, 9, 54, 0
11, 12564, Note_on_c, 9, 35, 127
11, 12564, Note_on_c, 9, 54, 87
11, 12576, Note_off_c, 9, 38, 0
11, 12576, Note_off_c, 9, 39, 0
11, 12576, Note_off_c, 9, 42, 0
11, 12576, Note_off_c, 9, 54, 0
11, 12576, Note_on_c, 9, 39, 127
11, 12576, Note_on_c, 9, 42, 127
11, 12576, Note_on_c, 9, 54, 127
11, 12588, Note_off_c, 9, 54, 0
11, 12588, Note_on_c, 9, 35, 127
11, 12588, Note_on_c, 9, 54, 87
11, 12600, Note_off_c, 9, 38, 0
11, 12600, Note_off_c, 9, 39, 0
11, 12600, Note_off_c, 9, 42, 0
11, 12600, Note_off_c, 9, 54, 0
11, 12600, Note_on_c, 9, 39, 127
11, 12600, Note_on_c, 9, 42, 127
11, 12600, Note_on_c, 9, 54, 107
11, 12612, Note_off_c, 9, 35, 0
11, 12612, Note_off_c, 9, 54, 0
11, 12612, Note_on_c, 9, 35, 127
11, 12612, Note_on_c, 9, 54, 87
11, 12624, Note_off_c, 9, 39, 0
11, 12624, Note_off_c, 9, 42, 0
11, 12624, Note_off_c, 9, 54, 0
11, 12624, Note_on_c, 9, 38, 127
11, 12624, Note_on_c, 9, 39, 127
11, 12624, Note_on_c, 9, 42, 127
11, 12624, Note_on_c, 9, 54, 127
11, 12636, Note_off_c, 9, 35, 0
11, 12636, Note_off_c, 9, 54, 0
11, 12636, Note_on_c, 9, 54, 87
11, 12648, Note_off_c, 9, 39, 0
11, 12648, Note_off_c, 9, 42, 0
11, 12648, Note_off_c, 9, 54, 0
11, 12648, Note_on_c, 9, 38, 127
11, 12648, Note_on_c, 9, 39, 127
11, 12648, Note_on_c, 9, 46, 127
11, 12648, Note_on_c, 9, 54, 107
11, 12660, Note_off_c, 9, 35, 0
11, 12660, Note_off_c, 9, 54, 0
11, 12660, Note_on_c, 9, 54, 87
11, 12672, Note_off_c, 9, 38, 0
11, 12672, Note_off_c, 9, 39, 0
11, 12672, Note_off_c, 9, 42, 0
11, 12672, Note_off_c, 9, 54, 0
11, 12672, Note_on_c, 9, 35, 127
11, 12672, Note_on_c, 9, 42, 127
11, 12672, Note_on_c, 9, 54, 127
11, 12684, Note_off_c, 9, 54, 0
11, 12684, Note_on_c, 9, 54, 87
11, 12696, Note_off_c, 9, 38, 0
11, 12696, Note_off_c, 9, 39, 0
11, 12696, Note_off_c, 9, 46, 0
11, 12696, Note_off_c, 9, 54, 0
11, 12696, Note_on_c, 9, 39, 127
11, 12696, Note_on_c, 9, 42, 127
11, 12696, Note_on_c, 9, 54, 107
11, 12708, Note_off_c, 9, 54, 0
11, 12708, Note_on_c, 9, 35, 127
11, 12708, Note_on_c, 9, 54, 87
11, 12720, Note_off_c, 9, 35, 0
11, 12720, Note_off_c, 9, 42, 0
11, 12720, Note_off_c, 9, 54, 0
11, 12720, Note_on_c, 9, 38, 127
11, 12720, Note_on_c, 9, 39, 127
11, 12720, Note_on_c, 9, 42, 127
11, 12720, Note_on_c, 9, 54, 127
11, 12732, Note_off_c, 9, 54, 0
11, 12732, Note_on_c, 9, 54, 87
11, 12744, Note_off_c, 9, 39, 0
11, 12744, Note_off_c, 9, 42, 0
11, 12744, Note_off_c, 9, 54, 0
11, 12744, Note_on_c, 9, 38, 127
11, 12744, Note_on_c, 9, 39, 127
11, 12744, Note_on_c, 9, 42, 127
11, 12744, Note_on_c, 9, 54, 107
11, 12756, Note_off_c, 9, 35, 0
11, 12756, Note_off_c, 9, 54, 0
11, 12756, Note_on_c, 9, 35, 127
11, 12756, Note_on_c, 9, 54, 87
11, 12768, Note_off_c, 9, 38, 0
11, 12768, Note_off_c, 9, 39, 0
11, 12768, Note_off_c, 9, 42, 0
11, 12768, Note_off_c, 9, 54, 0
11, 12768, Note_on_c, 9, 39, 127
11, 12768, Note_on_c, 9, 42, 127
11, 12768, Note_on_c, 9, 54, 127
11, 12780, Note_off_c, 9, 54, 0
11, 12780, Note_on_c, 9, 35, 127
11, 12780, Note_on_c, 9, 54, 87
11, 12792, Note_off_c, 9, 38, 0
11, 12792, Note_off_c, 9, 39, 0
11, 12792, Note_off_c, 9, 42, 0
11, 12792, Note_off_c, 9, 54, 0
11, 12792, Note_on_c, 9, 39, 127
11, 12792, Note_on_c, 9, 42, 127
11, 12792, Note_on_c, 9, 54, 107
11, 12804, Note_off_c, 9, 35, 0
11, 12804, Note_off_c, 9, 54, 0
11, 12804, Note_on_c, 9, 35, 127
11, 12804, Note_on_c, 9, 54, 87
11, 12816, Note_off_c, 9, 39, 0
11, 12816, Note_off_c, 9, 42, 0
11, 12816, Note_off_c, 9, 54, 0
11, 12816, Note_on_c, 9, 38, 127
11, 12816, Note_on_c, 9, 39, 127
11, 12816, Note_on_c, 9, 42, 127
11, 12816, Note_on_c, 9, 54, 127
11, 12828, Note_off_c, 9, 35, 0
11, 12828, Note_off_c, 9, 54, 0
11, 12828, Note_on_c, 9, 54, 87
11, 12840, Note_off_c, 9, 39, 0
11, 12840, Note_off_c, 9, 42, 0
11, 12840, Note_off_c, 9, 54, 0
11, 12840, Note_on_c, 9, 38, 127
11, 12840, Note_on_c, 9, 39, 127
11, 12840, Note_on_c, 9, 46, 127
11, 12840, Note_on_c, 9, 54, 107
11, 12852, Note_off_c, 9, 35, 0
11, 12852, Note_off_c, 9, 54, 0
11, 12852, Note_on_c, 9, 54, 87
11, 12864, Note_off_c, 9, 38, 0
11, 12864, Note_off_c, 9, 39, 0
11, 12864, Note_off_c, 9, 42, 0
11, 12864, Note_off_c, 9, 54, 0
11, 12864, Note_on_c, 9, 35, 127
11, 12864, Note_on_c, 9, 42, 127
11, 12864, Note_on_c, 9, 54, 127
11, 12876, Note_off_c, 9, 54, 0
11, 12876, Note_on_c, 9, 54, 87
11, 12888, Note_off_c, 9, 38, 0
11, 12888, Note_off_c, 9, 39, 0
11, 12888, Note_off_c, 9, 46, 0
11, 12888, Note_off_c, 9, 54, 0
11, 12888, Note_on_c, 9, 39, 127
11, 12888, Note_on_c, 9, 42, 127
11, 12888, Note_on_c, 9, 54, 107
11, 12900, Note_off_c, 9, 54, 0
11, 12900, Note_on_c, 9, 35, 127
11, 12900, Note_on_c, 9, 54, 87
11, 12912, Note_off_c, 9, 35, 0
11, 12912, Note_off_c, 9, 42, 0
11, 12912, Note_off_c, 9, 54, 0
11, 12912, Note_on_c, 9, 38, 127
11, 12912, Note_on_c, 9, 39, 127
11, 12912, Note_on_c, 9, 42, 127
11, 12912, Note_on_c, 9, 54, 127
11, 12924, Note_off_c, 9, 54, 0
11, 12924, Note_on_c, 9, 54, 87
11, 12936, Note_off_c, 9, 39, 0
11, 12936, Note_off_c, 9, 42, 0
11, 12936, Note_off_c, 9, 54, 0
11, 12936, Note_on_c, 9, 38, 127
11, 12936, Note_on_c, 9, 39, 127
11, 12936, Note_on_c, 9, 42, 127
11, 12936, Note_on_c, 9, 54, 107
11, 12948, Note_off_c, 9, 35, 0
11, 12948, Note_off_c, 9, 54, 0
11, 12948, Note_on_c, 9, 35, 127
11, 12948, Note_on_c, 9, 54, 87
11, 12960, Note_off_c, 9, 38, 0
11, 12960, Note_off_c, 9, 39, 0
11, 12960, Note_off_c, 9, 42, 0
11, 12960, Note_off_c, 9, 54, 0
11, 12960, Note_on_c, 9, 39, 127
11, 12960, Note_on_c, 9, 42, 127
11, 12960, Note_on_c, 9, 54, 127
11, 12972, Note_off_c, 9, 54, 0
11, 12972, Note_on_c, 9, 35, 127
11, 12972, Note_on_c, 9, 54, 87
11, 12984, Note_off_c, 9, 38, 0
11, 12984, Note_off_c, 9, 39, 0
11, 12984, Note_off_c, 9, 42, 0
11, 12984, Note_off_c, 9, 54, 0
11, 12984, Note_on_c, 9, 39, 127
11, 12984, Note_on_c, 9, 42, 127
11, 12984, Note_on_c, 9, 54, 107
11, 12996, Note_off_c, 9, 35, 0
11, 12996, Note_off_c, 9, 54, 0
11, 12996, Note_on_c, 9, 35, 127
11, 12996, Note_on_c, 9, 54, 87
11, 13008, Note_off_c, 9, 39, 0
11, 13008, Note_off_c, 9, 42, 0
11, 13008, Note_off_c, 9, 54, 0
11, 13008, Note_on_c, 9, 38, 127
11, 13008, Note_on_c, 9, 39, 127
11, 13008, Note_on_c, 9, 42, 127
11, 13008, Note_on_c, 9, 54, 127
11, 13020, Note_off_c, 9, 35, 0
11, 13020, Note_off_c, 9, 54, 0
11, 13020, Note_on_c, 9, 54, 87
11, 13032, Note_off_c, 9, 39, 0
11, 13032, Note_off_c, 9, 42, 0
11, 13032, Note_off_c, 9, 54, 0
11, 13032, Note_on_c, 9, 38, 127
11, 13032, Note_on_c, 9, 39, 127
11, 13032, Note_on_c, 9, 46, 127
11, 13032, Note_on_c, 9, 54, 107
11, 13044, Note_off_c, 9, 35, 0
11, 13044, Note_off_c, 9, 54, 0
11, 13044, Note_on_c, 9, 54, 87
11, 13056, Note_off_c, 9, 38, 0
11, 13056, Note_off_c, 9, 39, 0
11, 13056, Note_off_c, 9, 42, 0
11, 13056, Note_off_c, 9, 54, 0
11, 13056, Note_on_c, 9, 35, 127
11, 13056, Note_on_c, 9, 42, 127
11, 13056, Note_on_c, 9, 54, 127
11, 13068, Note_off_c, 9, 54, 0
11, 13068, Note_on_c, 9, 54, 87
11, 13080, Note_off_c, 9, 38, 0
11, 13080, Note_off_c, 9, 39, 0
11, 13080, Note_off_c, 9, 46, 0
11, 13080, Note_off_c, 9, 54, 0
11, 13080, Note_on_c, 9, 39, 127
11, 13080, Note_on_c, 9, 42, 127
11, 13080, Note_on_c, 9, 54, 107
11, 13092, Note_off_c, 9, 54, 0
11, 13092, Note_on_c, 9, 35, 127
11, 13092, Note_on_c, 9, 54, 87
11, 13104, Note_off_c, 9, 35, 0
11, 13104, Note_off_c, 9, 42, 0
11, 13104, Note_off_c, 9, 54, 0
11, 13104, Note_on_c, 9, 38, 127
11, 13104, Note_on_c, 9, 39, 127
11, 13104, Note_on_c, 9, 42, 127
11, 13104, Note_on_c, 9, 54, 127
11, 13116, Note_off_c, 9, 54, 0
11, 13116, Note_on_c, 9, 54, 87
11, 13128, Note_off_c, 9, 39, 0
11, 13128, Note_off_c, 9, 42, 0
11, 13128, Note_off_c, 9, 54, 0
11, 13128, Note_on_c, 9, 38, 127
11, 13128, Note_on_c, 9, 39, 127
11, 13128, Note_on_c, 9, 42, 127
11, 13128, Note_on_c, 9, 54, 107
11, 13140, Note_off_c, 9, 35, 0
11, 13140, Note_off_c, 9, 54, 0
11, 13140, Note_on_c, 9, 35, 127
11, 13140, Note_on_c, 9, 54, 87
11, 13152, Note_off_c, 9, 38, 0
11, 13152, Note_off_c, 9, 39, 0
11, 13152, Note_off_c, 9, 42, 0
11, 13152, Note_off_c, 9, 54, 0
11, 13152, Note_on_c, 9, 39, 127
11, 13152, Note_on_c, 9, 42, 127
11, 13152, Note_on_c, 9, 54, 127
11, 13164, Note_off_c, 9, 54, 0
11, 13164, Note_on_c, 9, 35, 127
11, 13164, Note_on_c, 9, 54, 87
11, 13176, Note_off_c, 9, 38, 0
11, 13176, Note_off_c, 9, 39, 0
11, 13176, Note_off_c, 9, 42, 0
11, 13176, Note_off_c, 9, 54, 0
11, 13176, Note_on_c, 9, 39, 127
11, 13176, Note_on_c, 9, 42, 127
11, 13176, Note_on_c, 9, 54, 107
11, 13188, Note_off_c, 9, 35, 0
11, 13188, Note_off_c, 9, 54, 0
11, 13188, Note_on_c, 9, 35, 127
11, 13188, Note_on_c, 9, 54, 87
11, 13200, Note_off_c, 9, 39, 0
11, 13200, Note_off_c, 9, 42, 0
11, 13200, Note_off_c, 9, 54, 0
11, 13200, Note_on_c, 9, 39, 127
11, 13200, Note_on_c, 9, 42, 127
11, 13200, Note_on_c, 9, 54, 127
11, 13212, Note_off_c, 9, 35, 0
11, 13212, Note_off_c, 9, 54, 0
11, 13212, Note_on_c, 9, 38, 127
11, 13212, Note_on_c, 9, 54, 87
11, 13224, Note_off_c, 9, 39, 0
11, 13224, Note_off_c, 9, 42, 0
11, 13224, Note_off_c, 9, 54, 0
11, 13224, Note_on_c, 9, 38, 127
11, 13224, Note_on_c, 9, 39, 127
11, 13224, Note_on_c, 9, 42, 127
11, 13224, Note_on_c, 9, 54, 107
11, 13236, Note_off_c, 9, 35, 0
11, 13236, Note_off_c, 9, 54, 0
11, 13236, Note_on_c, 9, 38, 127
11, 13236, Note_on_c, 9, 54, 87
11, 13248, Note_off_c, 9, 39, 0
11, 13248, Note_off_c, 9, 42, 0
11, 13248, Note_off_c, 9, 54, 0
11, 13248, Note_on_c, 9, 35, 127
11, 13248, Note_on_c, 9, 42, 127
11, 13248, Note_on_c, 9, 46, 127
11, 13248, Note_on_c, 9, 49, 127
11, 13248, Note_on_c, 9, 54, 127
11, 13260, Note_off_c, 9, 38, 0
11, 13260, Note_off_c, 9, 54, 0
11, 13260, Note_on_c, 9, 54, 87
11, 13272, Note_off_c, 9, 38, 0
11, 13272, Note_off_c, 9, 39, 0
11, 13272, Note_off_c, 9, 42, 0
11, 13272, Note_off_c, 9, 54, 0
11, 13272, Note_on_c, 9, 39, 127
11, 13272, Note_on_c, 9, 42, 127
11, 13272, Note_on_c, 9, 54, 107
11, 13284, Note_off_c, 9, 38, 0
11, 13284, Note_off_c, 9, 54, 0
11, 13284, Note_on_c, 9, 35, 127
11, 13284, Note_on_c, 9, 54, 87
11, 13296, Note_off_c, 9, 35, 0
11, 13296, Note_off_c, 9, 42, 0
11, 13296, Note_off_c, 9, 46, 0
11, 13296, Note_off_c, 9, 49, 0
11, 13296, Note_off_c, 9, 54, 0
11, 13296, Note_on_c, 9, 38, 127
11, 13296, Note_on_c, 9, 39, 127
11, 13296, Note_on_c, 9, 42, 127
11, 13296, Note_on_c, 9, 54, 127
11, 13308, Note_off_c, 9, 54, 0
11, 13308, Note_on_c, 9, 54, 87
11, 13320, Note_off_c, 9, 39, 0
11, 13320, Note_off_c, 9, 42, 0
11, 13320, Note_off_c, 9, 54, 0
11, 13320, Note_on_c, 9, 38, 127
11, 13320, Note_on_c, 9, 39, 127
11, 13320, Note_on_c, 9, 42, 127
11, 13320, Note_on_c, 9, 54, 107
11, 13332, Note_off_c, 9, 35, 0
11, 13332, Note_off_c, 9, 54, 0
11, 13332, Note_on_c, 9, 35, 127
11, 13332, Note_on_c, 9, 54, 87
11, 13344, Note_off_c, 9, 38, 0
11, 13344, Note_off_c, 9, 39, 0
11, 13344, Note_off_c, 9, 42, 0
11, 13344, Note_off_c, 9, 54, 0
11, 13344, Note_on_c, 9, 39, 127
11, 13344, Note_on_c, 9, 42, 127
11, 13344, Note_on_c, 9, 54, 127
11, 13356, Note_off_c, 9, 54, 0
11, 13356, Note_on_c, 9, 35, 127
11, 13356, Note_on_c, 9, 54, 87
11, 13368, Note_off_c, 9, 38, 0
11, 13368, Note_off_c, 9, 39, 0
11, 13368, Note_off_c, 9, 42, 0
11, 13368, Note_off_c, 9, 54, 0
11, 13368, Note_on_c, 9, 39, 127
11, 13368, Note_on_c, 9, 42, 127
11, 13368, Note_on_c, 9, 54, 107
11, 13380, Note_off_c, 9, 35, 0
11, 13380, Note_off_c, 9, 54, 0
11, 13380, Note_on_c, 9, 35, 127
11, 13380, Note_on_c, 9, 54, 87
11, 13392, Note_off_c, 9, 39, 0
11, 13392, Note_off_c, 9, 42, 0
11, 13392, Note_off_c, 9, 54, 0
11, 13392, Note_on_c, 9, 38, 127
11, 13392, Note_on_c, 9, 39, 127
11, 13392, Note_on_c, 9, 42, 127
11, 13392, Note_on_c, 9, 54, 127
11, 13404, Note_off_c, 9, 35, 0
11, 13404, Note_off_c, 9, 54, 0
11, 13404, Note_on_c, 9, 54, 87
11, 13416, Note_off_c, 9, 39, 0
11, 13416, Note_off_c, 9, 42, 0
11, 13416, Note_off_c, 9, 54, 0
11, 13416, Note_on_c, 9, 38, 127
11, 13416, Note_on_c, 9, 39, 127
11, 13416, Note_on_c, 9, 46, 127
11, 13416, Note_on_c, 9, 54, 107
11, 13428, Note_off_c, 9, 35, 0
11, 13428, Note_off_c, 9, 54, 0
11, 13428, Note_on_c, 9, 54, 87
11, 13440, Note_off_c, 9, 38, 0
11, 13440, Note_off_c, 9, 39, 0
11, 13440, Note_off_c, 9, 42, 0
11, 13440, Note_off_c, 9, 54, 0
11, 13440, Note_on_c, 9, 35, 127
11, 13440, Note_on_c, 9, 42, 127
11, 13440, Note_on_c, 9, 54, 127
11, 13452, Note_off_c, 9, 54, 0
11, 13452, Note_on_c, 9, 54, 87
11, 13464, Note_off_c, 9, 38, 0
11, 13464, Note_off_c, 9, 39, 0
11, 13464, Note_off_c, 9, 46, 0
11, 13464, Note_off_c, 9, 54, 0
11, 13464, Note_on_c, 9, 39, 127
11, 13464, Note_on_c, 9, 42, 127
11, 13464, Note_on_c, 9, 54, 107
11, 13476, Note_off_c, 9, 54, 0
11, 13476, Note_on_c, 9, 35, 127
11, 13476, Note_on_c, 9, 54, 87
11, 13488, Note_off_c, 9, 35, 0
11, 13488, Note_off_c, 9, 42, 0
11, 13488, Note_off_c, 9, 54, 0
11, 13488, Note_on_c, 9, 38, 127
11, 13488, Note_on_c, 9, 39, 127
11, 13488, Note_on_c, 9, 42, 127
11, 13488, Note_on_c, 9, 54, 127
11, 13500, Note_off_c, 9, 54, 0
11, 13500, Note_on_c, 9, 54, 87
11, 13512, Note_off_c, 9, 39, 0
11, 13512, Note_off_c, 9, 42, 0
11, 13512, Note_off_c, 9, 54, 0
11, 13512, Note_on_c, 9, 38, 127
11, 13512, Note_on_c, 9, 39, 127
11, 13512, Note_on_c, 9, 42, 127
11, 13512, Note_on_c, 9, 54, 107
11, 13524, Note_off_c, 9, 35, 0
11, 13524, Note_off_c, 9, 54, 0
11, 13524, Note_on_c, 9, 35, 127
11, 13524, Note_on_c, 9, 54, 87
11, 13536, Note_off_c, 9, 38, 0
11, 13536, Note_off_c, 9, 39, 0
11, 13536, Note_off_c, 9, 42, 0
11, 13536, Note_off_c, 9, 54, 0
11, 13536, Note_on_c, 9, 39, 127
11, 13536, Note_on_c, 9, 42, 127
11, 13536, Note_on_c, 9, 54, 127
11, 13548, Note_off_c, 9, 54, 0
11, 13548, Note_on_c, 9, 35, 127
11, 13548, Note_on_c, 9, 54, 87
11, 13560, Note_off_c, 9, 38, 0
11, 13560, Note_off_c, 9, 39, 0
11, 13560, Note_off_c, 9, 42, 0
11, 13560, Note_off_c, 9, 54, 0
11, 13560, Note_on_c, 9, 39, 127
11, 13560, Note_on_c, 9, 42, 127
11, 13560, Note_on_c, 9, 54, 107
11, 13572, Note_off_c, 9, 35, 0
11, 13572, Note_off_c, 9, 54, 0
11, 13572, Note_on_c, 9, 35, 127
11, 13572, Note_on_c, 9, 54, 87
11, 13584, Note_off_c, 9, 39, 0
11, 13584, Note_off_c, 9, 42, 0
11, 13584, Note_off_c, 9, 54, 0
11, 13584, Note_on_c, 9, 38, 127
11, 13584, Note_on_c, 9, 39, 127
11, 13584, Note_on_c, 9, 42, 127
11, 13584, Note_on_c, 9, 54, 127
11, 13596, Note_off_c, 9, 35, 0
11, 13596, Note_off_c, 9, 54, 0
11, 13596, Note_on_c, 9, 54, 87
11, 13608, Note_off_c, 9, 39, 0
11, 13608, Note_off_c, 9, 42, 0
11, 13608, Note_off_c, 9, 54, 0
11, 13608, Note_on_c, 9, 38, 127
11, 13608, Note_on_c, 9, 39, 127
11, 13608, Note_on_c, 9, 46, 127
11, 13608, Note_on_c, 9, 54, 107
11, 13620, Note_off_c, 9, 35, 0
11, 13620, Note_off_c, 9, 54, 0
11, 13620, Note_on_c, 9, 54, 87
11, 13632, Note_off_c, 9, 38, 0
11, 13632, Note_off_c, 9, 39, 0
11, 13632, Note_off_c, 9, 42, 0
11, 13632, Note_off_c, 9, 54, 0
11, 13632, Note_on_c, 9, 35, 127
11, 13632, Note_on_c, 9, 42, 127
11, 13632, Note_on_c, 9, 54, 127
11, 13644, Note_off_c, 9, 54, 0
11, 13644, Note_on_c, 9, 54, 87
11, 13656, Note_off_c, 9, 38, 0
11, 13656, Note_off_c, 9, 39, 0
11, 13656, Note_off_c, 9, 46, 0
11, 13656, Note_off_c, 9, 54, 0
11, 13656, Note_on_c, 9, 39, 127
11, 13656, Note_on_c, 9, 42, 127
11, 13656, Note_on_c, 9, 54, 107
11, 13668, Note_off_c, 9, 54, 0
11, 13668, Note_on_c, 9, 35, 127
11, 13668, Note_on_c, 9, 54, 87
11, 13680, Note_off_c, 9, 35, 0
11, 13680, Note_off_c, 9, 42, 0
11, 13680, Note_off_c, 9, 54, 0
11, 13680, Note_on_c, 9, 38, 127
11, 13680, Note_on_c, 9, 39, 127
11, 13680, Note_on_c, 9, 42, 127
11, 13680, Note_on_c, 9, 54, 127
11, 13692, Note_off_c, 9, 54, 0
11, 13692, Note_on_c, 9, 54, 87
11, 13704, Note_off_c, 9, 39, 0
11, 13704, Note_off_c, 9, 42, 0
11, 13704, Note_off_c, 9, 54, 0
11, 13704, Note_on_c, 9, 38, 127
11, 13704, Note_on_c, 9, 39, 127
11, 13704, Note_on_c, 9, 42, 127
11, 13704, Note_on_c, 9, 54, 107
11, 13716, Note_off_c, 9, 35, 0
11, 13716, Note_off_c, 9, 54, 0
11, 13716, Note_on_c, 9, 35, 127
11, 13716, Note_on_c, 9, 54, 87
11, 13728, Note_off_c, 9, 38, 0
11, 13728, Note_off_c, 9, 39, 0
11, 13728, Note_off_c, 9, 42, 0
11, 13728, Note_off_c, 9, 54, 0
11, 13728, Note_on_c, 9, 39, 127
11, 13728, Note_on_c, 9, 42, 127
11, 13728, Note_on_c, 9, 54, 127
11, 13740, Note_off_c, 9, 54, 0
11, 13740, Note_on_c, 9, 35, 127
11, 13740, Note_on_c, 9, 54, 87
11, 13752, Note_off_c, 9, 38, 0
11, 13752, Note_off_c, 9, 39, 0
11, 13752, Note_off_c, 9, 42, 0
11, 13752, Note_off_c, 9, 54, 0
11, 13752, Note_on_c, 9, 39, 127
11, 13752, Note_on_c, 9, 42, 127
11, 13752, Note_on_c, 9, 54, 107
11, 13764, Note_off_c, 9, 35, 0
11, 13764, Note_off_c, 9, 54, 0
11, 13764, Note_on_c, 9, 35, 127
11, 13764, Note_on_c, 9, 54, 87
11, 13776, Note_off_c, 9, 39, 0
11, 13776, Note_off_c, 9, 42, 0
11, 13776, Note_off_c, 9, 54, 0
11, 13776, Note_on_c, 9, 38, 127
11, 13776, Note_on_c, 9, 39, 127
11, 13776, Note_on_c, 9, 42, 127
11, 13776, Note_on_c, 9, 54, 127
11, 13788, Note_off_c, 9, 35, 0
11, 13788, Note_off_c, 9, 54, 0
11, 13788, Note_on_c, 9, 54, 87
11, 13800, Note_off_c, 9, 39, 0
11, 13800, Note_off_c, 9, 42, 0
11, 13800, Note_off_c, 9, 54, 0
11, 13800, Note_on_c, 9, 38, 127
11, 13800, Note_on_c, 9, 39, 127
11, 13800, Note_on_c, 9, 46, 127
11, 13800, Note_on_c, 9, 54, 107
11, 13812, Note_off_c, 9, 35, 0
11, 13812, Note_off_c, 9, 54, 0
11, 13812, Note_on_c, 9, 54, 87
11, 13824, Note_off_c, 9, 38, 0
11, 13824, Note_off_c, 9, 39, 0
11, 13824, Note_off_c, 9, 42, 0
11, 13824, Note_off_c, 9, 54, 0
11, 13824, Note_on_c, 9, 35, 127
11, 13824, Note_on_c, 9, 42, 127
11, 13824, Note_on_c, 9, 54, 127
11, 13836, Note_off_c, 9, 54, 0
11, 13836, Note_on_c, 9, 54, 87
11, 13848, Note_off_c, 9, 38, 0
11, 13848, Note_off_c, 9, 39, 0
11, 13848, Note_off_c, 9, 46, 0
11, 13848, Note_off_c, 9, 54, 0
11, 13848, Note_on_c, 9, 39, 127
11, 13848, Note_on_c, 9, 42, 127
11, 13848, Note_on_c, 9, 54, 107
11, 13860, Note_off_c, 9, 54, 0
11, 13860, Note_on_c, 9, 35, 127
11, 13860, Note_on_c, 9, 54, 87
11, 13872, Note_off_c, 9, 35, 0
11, 13872, Note_off_c, 9, 42, 0
11, 13872, Note_off_c, 9, 54, 0
11, 13872, Note_on_c, 9, 38, 127
11, 13872, Note_on_c, 9, 39, 127
11, 13872, Note_on_c, 9, 42, 127
11, 13872, Note_on_c, 9, 54, 127
11, 13884, Note_off_c, 9, 54, 0
11, 13884, Note_on_c, 9, 54, 87
11, 13896, Note_off_c, 9, 39, 0
11, 13896, Note_off_c, 9, 42, 0
11, 13896, Note_off_c, 9, 54, 0
11, 13896, Note_on_c, 9, 38, 127
11, 13896, Note_on_c, 9, 39, 127
11, 13896, Note_on_c, 9, 42, 127
11, 13896, Note_on_c, 9, 54, 107
11, 13908, Note_off_c, 9, 35, 0
11, 13908, Note_off_c, 9, 54, 0
11, 13908, Note_on_c, 9, 35, 127
11, 13908, Note_on_c, 9, 54, 87
11, 13920, Note_off_c, 9, 38, 0
11, 13920, Note_off_c, 9, 39, 0
11, 13920, Note_off_c, 9, 42, 0
11, 13920, Note_off_c, 9, 54, 0
11, 13920, Note_on_c, 9, 39, 127
11, 13920, Note_on_c, 9, 42, 127
11, 13920, Note_on_c, 9, 54, 127
11, 13932, Note_off_c, 9, 54, 0
11, 13932, Note_on_c, 9, 35, 127
11, 13932, Note_on_c, 9, 54, 87
11, 13944, Note_off_c, 9, 38, 0
11, 13944, Note_off_c, 9, 39, 0
11, 13944, Note_off_c, 9, 42, 0
11, 13944, Note_off_c, 9, 54, 0
11, 13944, Note_on_c, 9, 39, 127
11, 13944, Note_on_c, 9, 42, 127
11, 13944, Note_on_c, 9, 54, 107
11, 13956, Note_off_c, 9, 35, 0
11, 13956, Note_off_c, 9, 54, 0
11, 13956, Note_on_c, 9, 35, 127
11, 13956, Note_on_c, 9, 54, 87
11, 13968, Note_off_c, 9, 39, 0
11, 13968, Note_off_c, 9, 42, 0
11, 13968, Note_off_c, 9, 54, 0
11, 13968, Note_on_c, 9, 38, 127
11, 13968, Note_on_c, 9, 39, 127
11, 13968, Note_on_c, 9, 42, 127
11, 13968, Note_on_c, 9, 54, 127
11, 13980, Note_off_c, 9, 35, 0
11, 13980, Note_off_c, 9, 54, 0
11, 13980, Note_on_c, 9, 54, 87
11, 13992, Note_off_c, 9, 39, 0
11, 13992, Note_off_c, 9, 42, 0
11, 13992, Note_off_c, 9, 54, 0
11, 13992, Note_on_c, 9, 38, 127
11, 13992, Note_on_c, 9, 39, 127
11, 13992, Note_on_c, 9, 46, 127
11, 13992, Note_on_c, 9, 54, 107
11, 14004, Note_off_c, 9, 35, 0
11, 14004, Note_off_c, 9, 54, 0
11, 14004, Note_on_c, 9, 54, 87
11, 14016, Note_off_c, 9, 38, 0
11, 14016, Note_off_c, 9, 39, 0
11, 14016, Note_off_c, 9, 42, 0
11, 14016, Note_off_c, 9, 54, 0
11, 14016, Note_on_c, 9, 54, 127
11, 14028, Note_off_c, 9, 54, 0
11, 14028, Note_on_c, 9, 54, 87
11, 14040, Note_off_c, 9, 38, 0
11, 14040, Note_off_c, 9, 39, 0
11, 14040, Note_off_c, 9, 46, 0
11, 14040, Note_off_c, 9, 54, 0
11, 14040, Note_on_c, 9, 54, 107
11, 14052, Note_off_c, 9, 54, 0
11, 14052, Note_on_c, 9, 54, 87
11, 14064, Note_off_c, 9, 54, 0
11, 14064, Note_on_c, 9, 54, 127
11, 14076, Note_off_c, 9, 54, 0
11, 14076, Note_on_c, 9, 54, 87
11, 14088, Note_off_c, 9, 54, 0
11, 14088, Note_on_c, 9, 54, 107
11, 14100, Note_off_c, 9, 54, 0
11, 14100, Note_on_c, 9, 54, 87
11, 14112, Note_off_c, 9, 54, 0
11, 14112, Note_on_c, 9, 54, 127
11, 14124, Note_off_c, 9, 54, 0
11, 14124, Note_on_c, 9, 54, 87
11, 14136, Note_off_c, 9, 54, 0
11, 14136, Note_on_c, 9, 54, 107
11, 14148, Note_off_c, 9, 54, 0
11, 14148, Note_on_c, 9, 54, 87
11, 14160, Note_off_c, 9, 54, 0
11, 14160, Note_on_c, 9, 54, 127
11, 14172, Note_off_c, 9, 54, 0
11, 14172, Note_on_c, 9, 54, 87
11, 14184, Note_off_c, 9, 54, 0
11, 14184, Note_on_c, 9, 54, 107
11, 14196, Note_off_c, 9, 54, 0
11, 14196, Note_on_c, 9, 54, 87
11, 14208, Note_off_c, 9, 54, 0
11, 14208, Note_on_c, 9, 54, 127
11, 14220, Note_off_c, 9, 54, 0
11, 14220, Note_on_c, 9, 54, 87
11, 14232, Note_off_c, 9, 54, 0
11, 14232, Note_on_c, 9, 54, 107
11, 14244, Note_off_c, 9, 54, 0
11, 14244, Note_on_c, 9, 54, 87
11, 14256, Note_off_c, 9, 54, 0
11, 14256, Note_on_c, 9, 54, 127
11, 14268, Note_off_c, 9, 54, 0
11, 14268, Note_on_c, 9, 54, 87
11, 14280, Note_off_c, 9, 54, 0
11, 14280, Note_on_c, 9, 54, 107
11, 14292, Note_off_c, 9, 54, 0
11, 14292, Note_on_c, 9, 54, 87
11, 14304, Note_off_c, 9, 54, 0
11, 14304, Note_on_c, 9, 54, 127
11, 14316, Note_off_c, 9, 54, 0
11, 14316, Note_on_c, 9, 54, 87
11, 14328, Note_off_c, 9, 54, 0
11, 14328, Note_on_c, 9, 54, 107
11, 14340, Note_off_c, 9, 54, 0
11, 14340, Note_on_c, 9, 54, 87
11, 14352, Note_off_c, 9, 54, 0
11, 14352, Note_on_c, 9, 54, 127
11, 14364, Note_off_c, 9, 54, 0
11, 14364, Note_on_c, 9, 54, 87
11, 14376, Note_off_c, 9, 54, 0
11, 14376, Note_on_c, 9, 54, 107
11, 14388, Note_off_c, 9, 54, 0
11, 14388, Note_on_c, 9, 54, 87
11, 14400, Note_off_c, 9, 54, 0
11, 14400, Note_on_c, 9, 35, 127
11, 14400, Note_on_c, 9, 42, 127
11, 14400, Note_on_c, 9, 45, 127
11, 14400, Note_on_c, 9, 46, 127
11, 14400, Note_on_c, 9, 49, 127
11, 14400, Note_on_c, 9, 54, 127
11, 14412, Note_off_c, 9, 54, 0
11, 14412, Note_on_c, 9, 54, 87
11, 14412, Note_on_c, 9, 69, 127
11, 14424, Note_off_c, 9, 54, 0
11, 14424, Note_on_c, 9, 39, 127
11, 14424, Note_on_c, 9, 42, 127
11, 14424, Note_on_c, 9, 45, 127
11, 14424, Note_on_c, 9, 54, 107
11, 14436, Note_off_c, 9, 54, 0
11, 14436, Note_on_c, 9, 35, 127
11, 14436, Note_on_c, 9, 54, 87
11, 14436, Note_on_c, 9, 69, 127
11, 14448, Note_off_c, 9, 35, 0
11, 14448, Note_off_c, 9, 42, 0
11, 14448, Note_off_c, 9, 45, 0
11, 14448, Note_off_c, 9, 46, 0
11, 14448, Note_off_c, 9, 49, 0
11, 14448, Note_off_c, 9, 54, 0
11, 14448, Note_on_c, 9, 38, 127
11, 14448, Note_on_c, 9, 39, 127
11, 14448, Note_on_c, 9, 42, 127
11, 14448, Note_on_c, 9, 45, 127
11, 14448, Note_on_c, 9, 54, 127
11, 14460, Note_off_c, 9, 54, 0
11, 14460, Note_off_c, 9, 69, 0
11, 14460, Note_on_c, 9, 54, 87
11, 14460, Note_on_c, 9, 69, 127
11, 14472, Note_off_c, 9, 39, 0
11, 14472, Note_off_c, 9, 42, 0
11, 14472, Note_off_c, 9, 45, 0
11, 14472, Note_off_c, 9, 54, 0
11, 14472, Note_on_c, 9, 38, 127
11, 14472, Note_on_c, 9, 39, 127
11, 14472, Note_on_c, 9, 42, 127
11, 14472, Note_on_c, 9, 54, 107
11, 14484, Note_off_c, 9, 35, 0
11, 14484, Note_off_c, 9, 54, 0
11, 14484, Note_off_c, 9, 69, 0
11, 14484, Note_on_c, 9, 35, 127
11, 14484, Note_on_c, 9, 54, 87
11, 14484, Note_on_c, 9, 69, 127
11, 14496, Note_off_c, 9, 38, 0
11, 14496, Note_off_c, 9, 39, 0
11, 14496, Note_off_c, 9, 42, 0
11, 14496, Note_off_c, 9, 45, 0
11, 14496, Note_off_c, 9, 54, 0
11, 14496, Note_on_c, 9, 39, 127
11, 14496, Note_on_c, 9, 42, 127
11, 14496, Note_on_c, 9, 54, 127
11, 14508, Note_off_c, 9, 54, 0
11, 14508, Note_off_c, 9, 69, 0
11, 14508, Note_on_c, 9, 35, 127
11, 14508, Note_on_c, 9, 54, 87
11, 14520, Note_off_c, 9, 38, 0
11, 14520, Note_off_c, 9, 39, 0
11, 14520, Note_off_c, 9, 42, 0
11, 14520, Note_off_c, 9, 54, 0
11, 14520, Note_on_c, 9, 39, 127
11, 14520, Note_on_c, 9, 42, 127
11, 14520, Note_on_c, 9, 54, 107
11, 14532, Note_off_c, 9, 35, 0
11, 14532, Note_off_c, 9, 54, 0
11, 14532, Note_off_c, 9, 69, 0
11, 14532, Note_on_c, 9, 35, 127
11, 14532, Note_on_c, 9, 54, 87
11, 14544, Note_off_c, 9, 39, 0
11, 14544, Note_off_c, 9, 42, 0
11, 14544, Note_off_c, 9, 54, 0
11, 14544, Note_on_c, 9, 38, 127
11, 14544, Note_on_c, 9, 39, 127
11, 14544, Note_on_c, 9, 42, 127
11, 14544, Note_on_c, 9, 54, 127
11, 14556, Note_off_c, 9, 35, 0
11, 14556, Note_off_c, 9, 54, 0
11, 14556, Note_on_c, 9, 54, 87
11, 14568, Note_off_c, 9, 39, 0
11, 14568, Note_off_c, 9, 42, 0
11, 14568, Note_off_c, 9, 54, 0
11, 14568, Note_on_c, 9, 38, 127
11, 14568, Note_on_c, 9, 39, 127
11, 14568, Note_on_c, 9, 46, 127
11, 14568, Note_on_c, 9, 54, 107
11, 14580, Note_off_c, 9, 35, 0
11, 14580, Note_off_c, 9, 54, 0
11, 14580, Note_on_c, 9, 54, 87
11, 14592, Note_off_c, 9, 38, 0
11, 14592, Note_off_c, 9, 39, 0
11, 14592, Note_off_c, 9, 42, 0
11, 14592, Note_off_c, 9, 54, 0
11, 14592, Note_on_c, 9, 54, 127
11, 14604, Note_off_c, 9, 54, 0
11, 14604, Note_on_c, 9, 54, 87
11, 14616, Note_off_c, 9, 38, 0
11, 14616, Note_off_c, 9, 39, 0
11, 14616, Note_off_c, 9, 46, 0
11, 14616, Note_off_c, 9, 54, 0
11, 14616, Note_on_c, 9, 54, 107
11, 14628, Note_off_c, 9, 54, 0
11, 14628, Note_on_c, 9, 54, 87
11, 14640, Note_off_c, 9, 54, 0
11, 14640, Note_on_c, 9, 54, 127
11, 14652, Note_off_c, 9, 54, 0
11, 14652, Note_on_c, 9, 54, 87
11, 14664, Note_off_c, 9, 54, 0
11, 14664, Note_on_c, 9, 54, 107
11, 14676, Note_off_c, 9, 54, 0
11, 14676, Note_on_c, 9, 54, 87
11, 14688, Note_off_c, 9, 54, 0
11, 14688, Note_on_c, 9, 54, 127
11, 14700, Note_off_c, 9, 54, 0
11, 14700, Note_on_c, 9, 54, 87
11, 14712, Note_off_c, 9, 54, 0
11, 14712, Note_on_c, 9, 54, 107
11, 14724, Note_off_c, 9, 54, 0
11, 14724, Note_on_c, 9, 54, 87
11, 14736, Note_off_c, 9, 54, 0
11, 14736, Note_on_c, 9, 54, 127
11, 14748, Note_off_c, 9, 54, 0
11, 14748, Note_on_c, 9, 54, 87
11, 14760, Note_off_c, 9, 54, 0
11, 14760, Note_on_c, 9, 54, 107
11, 14772, Note_off_c, 9, 54, 0
11, 14772, Note_on_c, 9, 54, 87
11, 14784, Note_off_c, 9, 54, 0
11, 14784, Note_on_c, 9, 35, 127
11, 14784, Note_on_c, 9, 54, 127
11, 14796, Note_off_c, 9, 54, 0
11, 14796, Note_on_c, 9, 54, 87
11, 14799, Note_on_c, 9, 54, 87
11, 14808, Note_off_c, 9, 54, 0
11, 14808, Note_on_c, 9, 35, 127
11, 14808, Note_on_c, 9, 42, 127
11, 14810, Note_on_c, 9, 54, 107
11, 14811, Note_on_c, 9, 54, 107
11, 14820, Note_off_c, 9, 54, 0
11, 14820, Note_on_c, 9, 35, 127
11, 14821, Note_on_c, 9, 35, 127
11, 14822, Note_on_c, 9, 35, 127
11, 14822, Note_on_c, 9, 54, 87
11, 14823, Note_on_c, 9, 35, 127
11, 14832, Note_off_c, 9, 35, 0
11, 14832, Note_off_c, 9, 54, 0
11, 14832, Note_on_c, 9, 38, 127
11, 14832, Note_on_c, 9, 39, 127
11, 14832, Note_on_c, 9, 42, 127
11, 14833, Note_on_c, 9, 38, 127
11, 14833, Note_on_c, 9, 39, 127
11, 14833, Note_on_c, 9, 42, 127
11, 14833, Note_on_c, 9, 54, 127
11, 14834, Note_on_c, 9, 38, 127
11, 14834, Note_on_c, 9, 39, 127
11, 14834, Note_on_c, 9, 42, 127
11, 14834, Note_on_c, 9, 54, 127
11, 14835, Note_on_c, 9, 38, 127
11, 14835, Note_on_c, 9, 39, 127
11, 14835, Note_on_c, 9, 42, 127
11, 14835, Note_on_c, 9, 54, 127
11, 14844, Note_off_c, 9, 54, 0
11, 14845, Note_on_c, 9, 54, 87
11, 14846, Note_on_c, 9, 54, 87
11, 14847, Note_off_c, 9, 54, 0
11, 14847, Note_on_c, 9, 54, 87
11, 14856, Note_off_c, 9, 35, 0
11, 14856, Note_off_c, 9, 42, 0
11, 14856, Note_on_c, 9, 38, 127
11, 14856, Note_on_c, 9, 39, 127
11, 14856, Note_on_c, 9, 42, 127
11, 14857, Note_on_c, 9, 38, 127
11, 14857, Note_on_c, 9, 39, 127
11, 14857, Note_on_c, 9, 42, 127
11, 14857, Note_on_c, 9, 54, 107
11, 14858, Note_off_c, 9, 54, 0
11, 14858, Note_on_c, 9, 38, 127
11, 14858, Note_on_c, 9, 39, 127
11, 14858, Note_on_c, 9, 42, 127
11, 14858, Note_on_c, 9, 54, 107
11, 14859, Note_off_c, 9, 54, 0
11, 14859, Note_on_c, 9, 38, 127
11, 14859, Note_on_c, 9, 39, 127
11, 14859, Note_on_c, 9, 42, 127
11, 14859, Note_on_c, 9, 54, 107
11, 14868, Note_off_c, 9, 35, 0
11, 14868, Note_on_c, 9, 35, 127
11, 14868, Note_on_c, 9, 35, 127
11, 14868, Note_on_c, 9, 54, 87
11, 14869, Note_off_c, 9, 35, 0
11, 14869, Note_on_c, 9, 35, 127
11, 14869, Note_on_c, 9, 54, 87
11, 14870, Note_off_c, 9, 35, 0
11, 14870, Note_off_c, 9, 54, 0
11, 14870, Note_on_c, 9, 35, 127
11, 14871, Note_off_c, 9, 35, 0
11, 14871, Note_on_c, 9, 35, 127
11, 14871, Note_on_c, 9, 54, 87
11, 14880, Note_off_c, 9, 38, 0
11, 14880, Note_off_c, 9, 39, 0
11, 14880, Note_off_c, 9, 42, 0
11, 14880, Note_on_c, 9, 39, 127
11, 14880, Note_on_c, 9, 39, 127
11, 14880, Note_on_c, 9, 42, 127
11, 14880, Note_on_c, 9, 42, 127
11, 14880, Note_on_c, 9, 54, 127
11, 14881, Note_off_c, 9, 38, 0
11, 14881, Note_off_c, 9, 39, 0
11, 14881, Note_off_c, 9, 42, 0
11, 14881, Note_off_c, 9, 54, 0
11, 14881, Note_on_c, 9, 39, 127
11, 14881, Note_on_c, 9, 42, 127
11, 14881, Note_on_c, 9, 54, 127
11, 14882, Note_off_c, 9, 38, 0
11, 14882, Note_off_c, 9, 39, 0
11, 14882, Note_off_c, 9, 42, 0
11, 14882, Note_off_c, 9, 54, 0
11, 14882, Note_on_c, 9, 39, 127
11, 14882, Note_on_c, 9, 42, 127
11, 14882, Note_on_c, 9, 54, 127
11, 14883, Note_off_c, 9, 38, 0
11, 14883, Note_off_c, 9, 39, 0
11, 14883, Note_off_c, 9, 42, 0
11, 14883, Note_off_c, 9, 54, 0
11, 14883, Note_on_c, 9, 39, 127
11, 14883, Note_on_c, 9, 42, 127
11, 14883, Note_on_c, 9, 54, 127
11, 14892, Note_on_c, 9, 35, 127
11, 14892, Note_on_c, 9, 35, 127
11, 14892, Note_on_c, 9, 54, 87
11, 14892, Note_on_c, 9, 54, 87
11, 14893, Note_off_c, 9, 54, 0
11, 14893, Note_on_c, 9, 35, 127
11, 14893, Note_on_c, 9, 54, 87
11, 14894, Note_off_c, 9, 54, 0
11, 14894, Note_on_c, 9, 35, 127
11, 14894, Note_on_c, 9, 54, 87
11, 14895, Note_off_c, 9, 54, 0
11, 14895, Note_on_c, 9, 35, 127
11, 14895, Note_on_c, 9, 54, 87
11, 14904, Note_off_c, 9, 38, 0
11, 14904, Note_off_c, 9, 39, 0
11, 14904, Note_off_c, 9, 42, 0
11, 14904, Note_on_c, 9, 39, 127
11, 14904, Note_on_c, 9, 39, 127
11, 14904, Note_on_c, 9, 42, 127
11, 14904, Note_on_c, 9, 42, 127
11, 14904, Note_on_c, 9, 54, 107
11, 14904, Note_on_c, 9, 54, 107
11, 14904, Note_on_c, 9, 54, 107
11, 14905, Note_off_c, 9, 38, 0
11, 14905, Note_off_c, 9, 39, 0
11, 14905, Note_off_c, 9, 42, 0
11, 14905, Note_off_c, 9, 54, 0
11, 14905, Note_on_c, 9, 39, 127
11, 14905, Note_on_c, 9, 42, 127
11, 14905, Note_on_c, 9, 54, 107
11, 14906, Note_off_c, 9, 38, 0
11, 14906, Note_off_c, 9, 39, 0
11, 14906, Note_off_c, 9, 42, 0
11, 14906, Note_off_c, 9, 54, 0
11, 14906, Note_on_c, 9, 39, 127
11, 14906, Note_on_c, 9, 42, 127
11, 14906, Note_on_c, 9, 54, 107
11, 14907, Note_off_c, 9, 38, 0
11, 14907, Note_off_c, 9, 39, 0
11, 14907, Note_off_c, 9, 42, 0
11, 14907, Note_off_c, 9, 54, 0
11, 14907, Note_on_c, 9, 39, 127
11, 14907, Note_on_c, 9, 42, 127
11, 14916, Note_off_c, 9, 35, 0
11, 14916, Note_off_c, 9, 35, 0
11, 14916, Note_off_c, 9, 54, 0
11, 14916, Note_on_c, 9, 35, 127
11, 14916, Note_on_c, 9, 35, 127
11, 14916, Note_on_c, 9, 54, 87
11, 14916, Note_on_c, 9, 54, 87
11, 14916, Note_on_c, 9, 54, 87
11, 14916, Note_on_c, 9, 54, 87
11, 14917, Note_off_c, 9, 35, 0
11, 14917, Note_off_c, 9, 54, 0
11, 14917, Note_on_c, 9, 35, 127
11, 14917, Note_on_c, 9, 54, 87
11, 14918, Note_off_c, 9, 35, 0
11, 14918, Note_on_c, 9, 35, 127
11, 14918, Note_on_c, 9, 54, 87
11, 14919, Note_off_c, 9, 35, 0
11, 14919, Note_off_c, 9, 54, 0
11, 14919, Note_on_c, 9, 35, 127
11, 14919, Note_on_c, 9, 54, 87
11, 14928, Note_off_c, 9, 39, 0
11, 14928, Note_off_c, 9, 39, 0
11, 14928, Note_off_c, 9, 42, 0
11, 14928, Note_off_c, 9, 42, 0
11, 14928, Note_off_c, 9, 54, 0
11, 14928, Note_on_c, 9, 38, 127
11, 14928, Note_on_c, 9, 38, 127
11, 14928, Note_on_c, 9, 38, 127
11, 14928, Note_on_c, 9, 39, 127
11, 14928, Note_on_c, 9, 39, 127
11, 14928, Note_on_c, 9, 39, 127
11, 14928, Note_on_c, 9, 42, 127
11, 14928, Note_on_c, 9, 42, 127
11, 14928, Note_on_c, 9, 42, 127
11, 14928, Note_on_c, 9, 54, 127
11, 14928, Note_on_c, 9, 54, 127
11, 14928, Note_on_c, 9, 54, 127
11, 14928, Note_on_c, 9, 54, 127
11, 14929, Note_off_c, 9, 39, 0
11, 14929, Note_off_c, 9, 42, 0
11, 14929, Note_off_c, 9, 54, 0
11, 14929, Note_on_c, 9, 38, 127
11, 14929, Note_on_c, 9, 39, 127
11, 14929, Note_on_c, 9, 42, 127
11, 14929, Note_on_c, 9, 54, 127
11, 14930, Note_off_c, 9, 39, 0
11, 14930, Note_off_c, 9, 42, 0
11, 14930, Note_off_c, 9, 54, 0
11, 14930, Note_on_c, 9, 38, 127
11, 14930, Note_on_c, 9, 39, 127
11, 14930, Note_on_c, 9, 42, 127
11, 14930, Note_on_c, 9, 54, 127
11, 14931, Note_off_c, 9, 39, 0
11, 14931, Note_off_c, 9, 42, 0
11, 14931, Note_off_c, 9, 54, 0
11, 14931, Note_on_c, 9, 38, 127
11, 14931, Note_on_c, 9, 39, 127
11, 14931, Note_on_c, 9, 42, 127
11, 14931, Note_on_c, 9, 54, 127
11, 14940, Note_off_c, 9, 35, 0
11, 14940, Note_off_c, 9, 35, 0
11, 14940, Note_off_c, 9, 54, 0
11, 14940, Note_off_c, 9, 54, 0
11, 14940, Note_on_c, 9, 54, 87
11, 14940, Note_on_c, 9, 54, 87
11, 14940, Note_on_c, 9, 54, 87
11, 14940, Note_on_c, 9, 54, 87
11, 14941, Note_off_c, 9, 35, 0
11, 14941, Note_off_c, 9, 54, 0
11, 14941, Note_on_c, 9, 54, 87
11, 14942, Note_off_c, 9, 35, 0
11, 14942, Note_off_c, 9, 54, 0
11, 14942, Note_on_c, 9, 54, 87
11, 14943, Note_off_c, 9, 35, 0
11, 14943, Note_off_c, 9, 54, 0
11, 14943, Note_on_c, 9, 54, 87
11, 14952, Note_off_c, 9, 39, 0
11, 14952, Note_off_c, 9, 39, 0
11, 14952, Note_off_c, 9, 42, 0
11, 14952, Note_off_c, 9, 42, 0
11, 14952, Note_off_c, 9, 54, 0
11, 14952, Note_off_c, 9, 54, 0
11, 14952, Note_off_c, 9, 54, 0
11, 14952, Note_on_c, 9, 38, 127
11, 14952, Note_on_c, 9, 38, 127
11, 14952, Note_on_c, 9, 38, 127
11, 14952, Note_on_c, 9, 38, 127
11, 14952, Note_on_c, 9, 39, 127
11, 14952, Note_on_c, 9, 39, 127
11, 14952, Note_on_c, 9, 39, 127
11, 14952, Note_on_c, 9, 39, 127
11, 14952, Note_on_c, 9, 46, 127
11, 14952, Note_on_c, 9, 46, 127
11, 14952, Note_on_c, 9, 46, 127
11, 14952, Note_on_c, 9, 46, 127
11, 14952, Note_on_c, 9, 54, 107
11, 14952, Note_on_c, 9, 54, 107
11, 14952, Note_on_c, 9, 54, 107
11, 14952, Note_on_c, 9, 54, 107
11, 14953, Note_off_c, 9, 39, 0
11, 14953, Note_off_c, 9, 42, 0
11, 14953, Note_off_c, 9, 54, 0
11, 14953, Note_on_c, 9, 38, 127
11, 14953, Note_on_c, 9, 39, 127
11, 14953, Note_on_c, 9, 46, 127
11, 14953, Note_on_c, 9, 54, 107
11, 14954, Note_off_c, 9, 39, 0
11, 14954, Note_off_c, 9, 42, 0
11, 14954, Note_off_c, 9, 54, 0
11, 14954, Note_on_c, 9, 38, 127
11, 14954, Note_on_c, 9, 39, 127
11, 14954, Note_on_c, 9, 46, 127
11, 14954, Note_on_c, 9, 54, 107
11, 14955, Note_off_c, 9, 39, 0
11, 14955, Note_off_c, 9, 42, 0
11, 14955, Note_on_c, 9, 38, 127
11, 14955, Note_on_c, 9, 39, 127
11, 14955, Note_on_c, 9, 46, 127
11, 14955, Note_on_c, 9, 54, 107
11, 14964, Note_off_c, 9, 35, 0
11, 14964, Note_off_c, 9, 35, 0
11, 14964, Note_off_c, 9, 54, 0
11, 14964, Note_off_c, 9, 54, 0
11, 14964, Note_off_c, 9, 54, 0
11, 14964, Note_off_c, 9, 54, 0
11, 14964, Note_on_c, 9, 54, 87
11, 14964, Note_on_c, 9, 54, 87
11, 14964, Note_on_c, 9, 54, 87
11, 14964, Note_on_c, 9, 54, 87
11, 14965, Note_off_c, 9, 35, 0
11, 14965, Note_off_c, 9, 54, 0
11, 14965, Note_on_c, 9, 54, 87
11, 14966, Note_off_c, 9, 35, 0
11, 14966, Note_off_c, 9, 54, 0
11, 14966, Note_on_c, 9, 54, 87
11, 14967, Note_off_c, 9, 35, 0
11, 14967, Note_off_c, 9, 54, 0
11, 14967, Note_on_c, 9, 54, 87
11, 14976, Note_off_c, 9, 38, 0
11, 14976, Note_off_c, 9, 38, 0
11, 14976, Note_off_c, 9, 38, 0
11, 14976, Note_off_c, 9, 39, 0
11, 14976, Note_off_c, 9, 39, 0
11, 14976, Note_off_c, 9, 39, 0
11, 14976, Note_off_c, 9, 42, 0
11, 14976, Note_off_c, 9, 42, 0
11, 14976, Note_off_c, 9, 42, 0
11, 14976, Note_off_c, 9, 54, 0
11, 14976, Note_off_c, 9, 54, 0
11, 14976, Note_off_c, 9, 54, 0
11, 14976, Note_off_c, 9, 54, 0
11, 14976, Note_on_c, 9, 54, 127
11, 14977, Note_off_c, 9, 38, 0
11, 14977, Note_off_c, 9, 39, 0
11, 14977, Note_off_c, 9, 42, 0
11, 14977, Note_off_c, 9, 54, 0
11, 14978, Note_off_c, 9, 38, 0
11, 14978, Note_off_c, 9, 39, 0
11, 14978, Note_off_c, 9, 42, 0
11, 14978, Note_off_c, 9, 54, 0
11, 14979, Note_off_c, 9, 38, 0
11, 14979, Note_off_c, 9, 39, 0
11, 14979, Note_off_c, 9, 42, 0
11, 14979, Note_off_c, 9, 54, 0
11, 14988, Note_off_c, 9, 54, 0
11, 14988, Note_off_c, 9, 54, 0
11, 14988, Note_off_c, 9, 54, 0
11, 14988, Note_off_c, 9, 54, 0
11, 14988, Note_on_c, 9, 54, 87
11, 14989, Note_off_c, 9, 54, 0
11, 14990, Note_off_c, 9, 54, 0
11, 14991, Note_off_c, 9, 54, 0
11, 15000, Note_off_c, 9, 38, 0
11, 15000, Note_off_c, 9, 38, 0
11, 15000, Note_off_c, 9, 38, 0
11, 15000, Note_off_c, 9, 38, 0
11, 15000, Note_off_c, 9, 39, 0
11, 15000, Note_off_c, 9, 39, 0
11, 15000, Note_off_c, 9, 39, 0
11, 15000, Note_off_c, 9, 39, 0
11, 15000, Note_off_c, 9, 46, 0
11, 15000, Note_off_c, 9, 46, 0
11, 15000, Note_off_c, 9, 46, 0
11, 15000, Note_off_c, 9, 46, 0
11, 15000, Note_off_c, 9, 54, 0
11, 15000, Note_off_c, 9, 54, 0
11, 15000, Note_off_c, 9, 54, 0
11, 15000, Note_off_c, 9, 54, 0
11, 15000, Note_on_c, 9, 54, 107
11, 15001, Note_off_c, 9, 38, 0
11, 15001, Note_off_c, 9, 39, 0
11, 15001, Note_off_c, 9, 46, 0
11, 15001, Note_off_c, 9, 54, 0
11, 15002, Note_off_c, 9, 38, 0
11, 15002, Note_off_c, 9, 39, 0
11, 15002, Note_off_c, 9, 46, 0
11, 15002, Note_off_c, 9, 54, 0
11, 15003, Note_off_c, 9, 38, 0
11, 15003, Note_off_c, 9, 39, 0
11, 15003, Note_off_c, 9, 46, 0
11, 15003, Note_off_c, 9, 54, 0
11, 15012, Note_off_c, 9, 54, 0
11, 15012, Note_off_c, 9, 54, 0
11, 15012, Note_off_c, 9, 54, 0
11, 15012, Note_off_c, 9, 54, 0
11, 15012, Note_on_c, 9, 54, 87
11, 15013, Note_off_c, 9, 54, 0
11, 15014, Note_off_c, 9, 54, 0
11, 15015, Note_off_c, 9, 54, 0
11, 15024, Note_off_c, 9, 54, 0
11, 15024, Note_on_c, 9, 54, 127
11, 15036, Note_off_c, 9, 54, 0
11, 15036, Note_on_c, 9, 54, 87
11, 15048, Note_off_c, 9, 54, 0
11, 15048, Note_on_c, 9, 54, 107
11, 15060, Note_off_c, 9, 54, 0
11, 15060, Note_on_c, 9, 54, 87
11, 15072, Note_off_c, 9, 54, 0
11, 15072, Note_on_c, 9, 54, 127
11, 15084, Note_off_c, 9, 54, 0
11, 15084, Note_on_c, 9, 54, 87
11, 15096, Note_off_c, 9, 54, 0
11, 15096, Note_on_c, 9, 54, 107
11, 15108, Note_off_c, 9, 54, 0
11, 15108, Note_on_c, 9, 54, 87
11, 15120, Note_off_c, 9, 54, 0
11, 15120, Note_on_c, 9, 54, 127
11, 15132, Note_off_c, 9, 54, 0
11, 15132, Note_on_c, 9, 54, 87
11, 15144, Note_off_c, 9, 54, 0
11, 15144, Note_on_c, 9, 54, 107
11, 15156, Note_off_c, 9, 54, 0
11, 15156, Note_on_c, 9, 54, 87
11, 15168, Note_off_c, 9, 54, 0
11, 15168, Note_on_c, 9, 35, 127
11, 15168, Note_on_c, 9, 42, 127
11, 15168, Note_on_c, 9, 45, 127
11, 15168, Note_on_c, 9, 46, 127
11, 15168, Note_on_c, 9, 49, 127
11, 15168, Note_on_c, 9, 54, 127
11, 15180, Note_off_c, 9, 54, 0
11, 15180, Note_on_c, 9, 54, 87
11, 15192, Note_off_c, 9, 54, 0
11, 15192, Note_on_c, 9, 39, 127
11, 15192, Note_on_c, 9, 42, 127
11, 15192, Note_on_c, 9, 45, 127
11, 15192, Note_on_c, 9, 54, 107
11, 15204, Note_off_c, 9, 54, 0
11, 15204, Note_on_c, 9, 35, 127
11, 15204, Note_on_c, 9, 54, 87
11, 15216, Note_off_c, 9, 35, 0
11, 15216, Note_off_c, 9, 42, 0
11, 15216, Note_off_c, 9, 45, 0
11, 15216, Note_off_c, 9, 46, 0
11, 15216, Note_off_c, 9, 49, 0
11, 15216, Note_off_c, 9, 54, 0
11, 15216, Note_on_c, 9, 38, 127
11, 15216, Note_on_c, 9, 39, 127
11, 15216, Note_on_c, 9, 42, 127
11, 15216, Note_on_c, 9, 45, 127
11, 15216, Note_on_c, 9, 54, 127
11, 15228, Note_off_c, 9, 54, 0
11, 15228, Note_on_c, 9, 54, 87
11, 15240, Note_off_c, 9, 39, 0
11, 15240, Note_off_c, 9, 42, 0
11, 15240, Note_off_c, 9, 45, 0
11, 15240, Note_off_c, 9, 54, 0
11, 15240, Note_on_c, 9, 38, 127
11, 15240, Note_on_c, 9, 39, 127
11, 15240, Note_on_c, 9, 42, 127
11, 15240, Note_on_c, 9, 54, 107
11, 15252, Note_off_c, 9, 35, 0
11, 15252, Note_off_c, 9, 54, 0
11, 15252, Note_on_c, 9, 35, 127
11, 15252, Note_on_c, 9, 54, 87
11, 15264, Note_off_c, 9, 38, 0
11, 15264, Note_off_c, 9, 39, 0
11, 15264, Note_off_c, 9, 42, 0
11, 15264, Note_off_c, 9, 45, 0
11, 15264, Note_off_c, 9, 54, 0
11, 15264, Note_on_c, 9, 39, 127
11, 15264, Note_on_c, 9, 42, 127
11, 15264, Note_on_c, 9, 54, 127
11, 15276, Note_off_c, 9, 54, 0
11, 15276, Note_on_c, 9, 35, 127
11, 15276, Note_on_c, 9, 54, 87
11, 15288, Note_off_c, 9, 38, 0
11, 15288, Note_off_c, 9, 39, 0
11, 15288, Note_off_c, 9, 42, 0
11, 15288, Note_off_c, 9, 54, 0
11, 15288, Note_on_c, 9, 54, 107
11, 15300, Note_off_c, 9, 35, 0
11, 15300, Note_off_c, 9, 54, 0
11, 15300, Note_on_c, 9, 54, 87
11, 15312, Note_off_c, 9, 39, 0
11, 15312, Note_off_c, 9, 42, 0
11, 15312, Note_off_c, 9, 54, 0
11, 15312, Note_on_c, 9, 54, 127
11, 15324, Note_off_c, 9, 35, 0
11, 15324, Note_off_c, 9, 54, 0
11, 15324, Note_on_c, 9, 54, 87
11, 15336, Note_off_c, 9, 54, 0
11, 15336, Note_on_c, 9, 54, 107
11, 15348, Note_off_c, 9, 54, 0
11, 15348, Note_on_c, 9, 54, 87
11, 15360, Note_off_c, 9, 54, 0
11, 15360, Note_on_c, 9, 54, 127
11, 15372, Note_off_c, 9, 54, 0
11, 15372, Note_on_c, 9, 54, 87
11, 15384, Note_off_c, 9, 54, 0
11, 15384, Note_on_c, 9, 54, 107
11, 15396, Note_off_c, 9, 54, 0
11, 15396, Note_on_c, 9, 54, 87
11, 15408, Note_off_c, 9, 54, 0
11, 15408, Note_on_c, 9, 54, 127
11, 15420, Note_off_c, 9, 54, 0
11, 15420, Note_on_c, 9, 54, 87
11, 15432, Note_off_c, 9, 54, 0
11, 15432, Note_on_c, 9, 54, 107
11, 15444, Note_off_c, 9, 54, 0
11, 15444, Note_on_c, 9, 54, 87
11, 15456, Note_off_c, 9, 54, 0
11, 15456, Note_on_c, 9, 54, 127
11, 15468, Note_off_c, 9, 54, 0
11, 15468, Note_on_c, 9, 54, 87
11, 15480, Note_off_c, 9, 54, 0
11, 15480, Note_on_c, 9, 54, 107
11, 15492, Note_off_c, 9, 54, 0
11, 15492, Note_on_c, 9, 54, 87
11, 15504, Note_off_c, 9, 54, 0
11, 15504, Note_on_c, 9, 38, 127
11, 15504, Note_on_c, 9, 40, 127
11, 15504, Note_on_c, 9, 54, 127
11, 15516, Note_off_c, 9, 54, 0
11, 15516, Note_on_c, 9, 38, 127
11, 15516, Note_on_c, 9, 40, 127
11, 15516, Note_on_c, 9, 54, 87
11, 15528, Note_off_c, 9, 54, 0
11, 15528, Note_on_c, 9, 38, 127
11, 15528, Note_on_c, 9, 40, 127
11, 15528, Note_on_c, 9, 54, 107
11, 15540, Note_off_c, 9, 54, 0
11, 15540, Note_on_c, 9, 38, 127
11, 15540, Note_on_c, 9, 40, 127
11, 15540, Note_on_c, 9, 54, 87
11, 15552, Note_off_c, 9, 38, 0
11, 15552, Note_off_c, 9, 40, 0
11, 15552, Note_off_c, 9, 54, 0
11, 15552, Note_on_c, 9, 35, 127
11, 15552, Note_on_c, 9, 42, 127
11, 15552, Note_on_c, 9, 45, 127
11, 15552, Note_on_c, 9, 46, 127
11, 15552, Note_on_c, 9, 49, 127
11, 15552, Note_on_c, 9, 54, 127
11, 15564, Note_off_c, 9, 38, 0
11, 15564, Note_off_c, 9, 40, 0
11, 15564, Note_off_c, 9, 54, 0
11, 15564, Note_on_c, 9, 40, 127
11, 15564, Note_on_c, 9, 54, 87
11, 15576, Note_off_c, 9, 38, 0
11, 15576, Note_off_c, 9, 40, 0
11, 15576, Note_off_c, 9, 54, 0
11, 15576, Note_on_c, 9, 42, 127
11, 15576, Note_on_c, 9, 45, 127
11, 15576, Note_on_c, 9, 54, 107
11, 15588, Note_off_c, 9, 38, 0
11, 15588, Note_off_c, 9, 40, 0
11, 15588, Note_off_c, 9, 54, 0
11, 15588, Note_on_c, 9, 35, 127
11, 15588, Note_on_c, 9, 54, 87
11, 15600, Note_off_c, 9, 35, 0
11, 15600, Note_off_c, 9, 42, 0
11, 15600, Note_off_c, 9, 45, 0
11, 15600, Note_off_c, 9, 46, 0
11, 15600, Note_off_c, 9, 49, 0
11, 15600, Note_off_c, 9, 54, 0
11, 15600, Note_on_c, 9, 40, 127
11, 15600, Note_on_c, 9, 42, 127
11, 15600, Note_on_c, 9, 45, 127
11, 15600, Note_on_c, 9, 54, 127
11, 15612, Note_off_c, 9, 40, 0
11, 15612, Note_off_c, 9, 54, 0
11, 15612, Note_on_c, 9, 54, 87
11, 15624, Note_off_c, 9, 42, 0
11, 15624, Note_off_c, 9, 45, 0
11, 15624, Note_off_c, 9, 54, 0
11, 15624, Note_on_c, 9, 42, 127
11, 15624, Note_on_c, 9, 54, 107
11, 15636, Note_off_c, 9, 35, 0
11, 15636, Note_off_c, 9, 54, 0
11, 15636, Note_on_c, 9, 35, 127
11, 15636, Note_on_c, 9, 40, 127
11, 15636, Note_on_c, 9, 54, 87
11, 15648, Note_off_c, 9, 40, 0
11, 15648, Note_off_c, 9, 42, 0
11, 15648, Note_off_c, 9, 45, 0
11, 15648, Note_off_c, 9, 54, 0
11, 15648, Note_on_c, 9, 42, 127
11, 15648, Note_on_c, 9, 54, 127
11, 15660, Note_off_c, 9, 54, 0
11, 15660, Note_on_c, 9, 40, 127
11, 15660, Note_on_c, 9, 54, 87
11, 15672, Note_off_c, 9, 42, 0
11, 15672, Note_off_c, 9, 54, 0
11, 15672, Note_on_c, 9, 35, 127
11, 15672, Note_on_c, 9, 42, 127
11, 15672, Note_on_c, 9, 54, 107
11, 15684, Note_off_c, 9, 35, 0
11, 15684, Note_off_c, 9, 40, 0
11, 15684, Note_off_c, 9, 54, 0
11, 15684, Note_on_c, 9, 35, 127
11, 15684, Note_on_c, 9, 54, 87
11, 15696, Note_off_c, 9, 42, 0
11, 15696, Note_off_c, 9, 54, 0
11, 15696, Note_on_c, 9, 40, 127
11, 15696, Note_on_c, 9, 42, 127
11, 15696, Note_on_c, 9, 54, 127
11, 15708, Note_off_c, 9, 40, 0
11, 15708, Note_off_c, 9, 54, 0
11, 15708, Note_on_c, 9, 54, 87
11, 15720, Note_off_c, 9, 35, 0
11, 15720, Note_off_c, 9, 42, 0
11, 15720, Note_off_c, 9, 54, 0
11, 15720, Note_on_c, 9, 40, 127
11, 15720, Note_on_c, 9, 46, 127
11, 15720, Note_on_c, 9, 54, 107
11, 15732, Note_off_c, 9, 35, 0
11, 15732, Note_off_c, 9, 54, 0
11, 15732, Note_on_c, 9, 54, 87
11, 15744, Note_off_c, 9, 40, 0
11, 15744, Note_off_c, 9, 42, 0
11, 15744, Note_off_c, 9, 54, 0
11, 15744, Note_on_c, 9, 35, 127
11, 15744, Note_on_c, 9, 42, 127
11, 15744, Note_on_c, 9, 45, 127
11, 15744, Note_on_c, 9, 46, 127
11, 15744, Note_on_c, 9, 49, 127
11, 15744, Note_on_c, 9, 54, 127
11, 15756, Note_off_c, 9, 54, 0
11, 15756, Note_on_c, 9, 40, 127
11, 15756, Note_on_c, 9, 54, 87
11, 15768, Note_off_c, 9, 40, 0
11, 15768, Note_off_c, 9, 46, 0
11, 15768, Note_off_c, 9, 54, 0
11, 15768, Note_on_c, 9, 42, 127
11, 15768, Note_on_c, 9, 45, 127
11, 15768, Note_on_c, 9, 54, 107
11, 15780, Note_off_c, 9, 54, 0
11, 15780, Note_on_c, 9, 35, 127
11, 15780, Note_on_c, 9, 54, 87
11, 15792, Note_off_c, 9, 35, 0
11, 15792, Note_off_c, 9, 42, 0
11, 15792, Note_off_c, 9, 45, 0
11, 15792, Note_off_c, 9, 46, 0
11, 15792, Note_off_c, 9, 49, 0
11, 15792, Note_off_c, 9, 54, 0
11, 15792, Note_on_c, 9, 40, 127
11, 15792, Note_on_c, 9, 42, 127
11, 15792, Note_on_c, 9, 45, 127
11, 15792, Note_on_c, 9, 54, 127
11, 15804, Note_off_c, 9, 40, 0
11, 15804, Note_off_c, 9, 54, 0
11, 15804, Note_on_c, 9, 54, 87
11, 15816, Note_off_c, 9, 42, 0
11, 15816, Note_off_c, 9, 45, 0
11, 15816, Note_off_c, 9, 54, 0
11, 15816, Note_on_c, 9, 42, 127
11, 15816, Note_on_c, 9, 54, 107
11, 15828, Note_off_c, 9, 35, 0
11, 15828, Note_off_c, 9, 54, 0
11, 15828, Note_on_c, 9, 35, 127
11, 15828, Note_on_c, 9, 40, 127
11, 15828, Note_on_c, 9, 54, 87
11, 15840, Note_off_c, 9, 40, 0
11, 15840, Note_off_c, 9, 42, 0
11, 15840, Note_off_c, 9, 45, 0
11, 15840, Note_off_c, 9, 54, 0
11, 15840, Note_on_c, 9, 42, 127
11, 15840, Note_on_c, 9, 54, 127
11, 15852, Note_off_c, 9, 54, 0
11, 15852, Note_on_c, 9, 40, 127
11, 15852, Note_on_c, 9, 54, 87
11, 15864, Note_off_c, 9, 42, 0
11, 15864, Note_off_c, 9, 54, 0
11, 15864, Note_on_c, 9, 35, 127
11, 15864, Note_on_c, 9, 42, 127
11, 15864, Note_on_c, 9, 54, 107
11, 15876, Note_off_c, 9, 35, 0
11, 15876, Note_off_c, 9, 40, 0
11, 15876, Note_off_c, 9, 54, 0
11, 15876, Note_on_c, 9, 35, 127
11, 15876, Note_on_c, 9, 54, 87
11, 15888, Note_off_c, 9, 42, 0
11, 15888, Note_off_c, 9, 54, 0
11, 15888, Note_on_c, 9, 40, 127
11, 15888, Note_on_c, 9, 42, 127
11, 15888, Note_on_c, 9, 54, 127
11, 15900, Note_off_c, 9, 40, 0
11, 15900, Note_off_c, 9, 54, 0
11, 15900, Note_on_c, 9, 54, 87
11, 15912, Note_off_c, 9, 35, 0
11, 15912, Note_off_c, 9, 42, 0
11, 15912, Note_off_c, 9, 54, 0
11, 15912, Note_on_c, 9, 40, 127
11, 15912, Note_on_c, 9, 46, 127
11, 15912, Note_on_c, 9, 54, 107
11, 15924, Note_off_c, 9, 35, 0
11, 15924, Note_off_c, 9, 54, 0
11, 15924, Note_on_c, 9, 54, 87
11, 15936, Note_off_c, 9, 40, 0
11, 15936, Note_off_c, 9, 42, 0
11, 15936, Note_off_c, 9, 54, 0
11, 15936, Note_on_c, 9, 35, 127
11, 15936, Note_on_c, 9, 42, 127
11, 15936, Note_on_c, 9, 45, 127
11, 15936, Note_on_c, 9, 46, 127
11, 15936, Note_on_c, 9, 49, 127
11, 15936, Note_on_c, 9, 54, 127
11, 15948, Note_off_c, 9, 54, 0
11, 15948, Note_on_c, 9, 40, 127
11, 15948, Note_on_c, 9, 54, 87
11, 15960, Note_off_c, 9, 40, 0
11, 15960, Note_off_c, 9, 46, 0
11, 15960, Note_off_c, 9, 54, 0
11, 15960, Note_on_c, 9, 42, 127
11, 15960, Note_on_c, 9, 45, 127
11, 15960, Note_on_c, 9, 54, 107
11, 15972, Note_off_c, 9, 54, 0
11, 15972, Note_on_c, 9, 35, 127
11, 15972, Note_on_c, 9, 54, 87
11, 15984, Note_off_c, 9, 35, 0
11, 15984, Note_off_c, 9, 42, 0
11, 15984, Note_off_c, 9, 45, 0
11, 15984, Note_off_c, 9, 46, 0
11, 15984, Note_off_c, 9, 49, 0
11, 15984, Note_off_c, 9, 54, 0
11, 15984, Note_on_c, 9, 40, 127
11, 15984, Note_on_c, 9, 42, 127
11, 15984, Note_on_c, 9, 45, 127
11, 15984, Note_on_c, 9, 54, 127
11, 15996, Note_off_c, 9, 40, 0
11, 15996, Note_off_c, 9, 54, 0
11, 15996, Note_on_c, 9, 54, 87
11, 16008, Note_off_c, 9, 42, 0
11, 16008, Note_off_c, 9, 45, 0
11, 16008, Note_off_c, 9, 54, 0
11, 16008, Note_on_c, 9, 42, 127
11, 16008, Note_on_c, 9, 54, 107
11, 16020, Note_off_c, 9, 35, 0
11, 16020, Note_off_c, 9, 54, 0
11, 16020, Note_on_c, 9, 35, 127
11, 16020, Note_on_c, 9, 40, 127
11, 16020, Note_on_c, 9, 54, 87
11, 16032, Note_off_c, 9, 40, 0
11, 16032, Note_off_c, 9, 42, 0
11, 16032, Note_off_c, 9, 45, 0
11, 16032, Note_off_c, 9, 54, 0
11, 16032, Note_on_c, 9, 42, 127
11, 16032, Note_on_c, 9, 54, 127
11, 16044, Note_off_c, 9, 54, 0
11, 16044, Note_on_c, 9, 40, 127
11, 16044, Note_on_c, 9, 54, 87
11, 16056, Note_off_c, 9, 42, 0
11, 16056, Note_off_c, 9, 54, 0
11, 16056, Note_on_c, 9, 35, 127
11, 16056, Note_on_c, 9, 42, 127
11, 16056, Note_on_c, 9, 54, 107
11, 16068, Note_off_c, 9, 35, 0
11, 16068, Note_off_c, 9, 40, 0
11, 16068, Note_off_c, 9, 54, 0
11, 16068, Note_on_c, 9, 35, 127
11, 16068, Note_on_c, 9, 54, 87
11, 16080, Note_off_c, 9, 42, 0
11, 16080, Note_off_c, 9, 54, 0
11, 16080, Note_on_c, 9, 40, 127
11, 16080, Note_on_c, 9, 42, 127
11, 16080, Note_on_c, 9, 54, 127
11, 16092, Note_off_c, 9, 40, 0
11, 16092, Note_off_c, 9, 54, 0
11, 16092, Note_on_c, 9, 54, 87
11, 16104, Note_off_c, 9, 35, 0
11, 16104, Note_off_c, 9, 42, 0
11, 16104, Note_off_c, 9, 54, 0
11, 16104, Note_on_c, 9, 40, 127
11, 16104, Note_on_c, 9, 46, 127
11, 16104, Note_on_c, 9, 54, 107
11, 16116, Note_off_c, 9, 35, 0
11, 16116, Note_off_c, 9, 54, 0
11, 16116, Note_on_c, 9, 54, 87
11, 16128, Note_off_c, 9, 40, 0
11, 16128, Note_off_c, 9, 42, 0
11, 16128, Note_off_c, 9, 54, 0
11, 16128, Note_on_c, 9, 35, 127
11, 16128, Note_on_c, 9, 42, 127
11, 16128, Note_on_c, 9, 45, 127
11, 16128, Note_on_c, 9, 46, 127
11, 16128, Note_on_c, 9, 49, 127
11, 16128, Note_on_c, 9, 54, 127
11, 16140, Note_off_c, 9, 54, 0
11, 16140, Note_on_c, 9, 40, 127
11, 16140, Note_on_c, 9, 54, 87
11, 16152, Note_off_c, 9, 40, 0
11, 16152, Note_off_c, 9, 46, 0
11, 16152, Note_off_c, 9, 54, 0
11, 16152, Note_on_c, 9, 42, 127
11, 16152, Note_on_c, 9, 45, 127
11, 16152, Note_on_c, 9, 54, 107
11, 16164, Note_off_c, 9, 54, 0
11, 16164, Note_on_c, 9, 35, 127
11, 16164, Note_on_c, 9, 54, 87
11, 16176, Note_off_c, 9, 35, 0
11, 16176, Note_off_c, 9, 42, 0
11, 16176, Note_off_c, 9, 45, 0
11, 16176, Note_off_c, 9, 46, 0
11, 16176, Note_off_c, 9, 49, 0
11, 16176, Note_off_c, 9, 54, 0
11, 16176, Note_on_c, 9, 40, 127
11, 16176, Note_on_c, 9, 42, 127
11, 16176, Note_on_c, 9, 45, 127
11, 16176, Note_on_c, 9, 54, 127
11, 16188, Note_off_c, 9, 40, 0
11, 16188, Note_off_c, 9, 54, 0
11, 16188, Note_on_c, 9, 54, 87
11, 16200, Note_off_c, 9, 42, 0
11, 16200, Note_off_c, 9, 45, 0
11, 16200, Note_off_c, 9, 54, 0
11, 16200, Note_on_c, 9, 42, 127
11, 16200, Note_on_c, 9, 54, 107
11, 16212, Note_off_c, 9, 35, 0
11, 16212, Note_off_c, 9, 54, 0
11, 16212, Note_on_c, 9, 35, 127
11, 16212, Note_on_c, 9, 40, 127
11, 16212, Note_on_c, 9, 54, 87
11, 16224, Note_off_c, 9, 40, 0
11, 16224, Note_off_c, 9, 42, 0
11, 16224, Note_off_c, 9, 45, 0
11, 16224, Note_off_c, 9, 54, 0
11, 16224, Note_on_c, 9, 42, 127
11, 16224, Note_on_c, 9, 54, 127
11, 16236, Note_off_c, 9, 54, 0
11, 16236, Note_on_c, 9, 40, 127
11, 16236, Note_on_c, 9, 54, 87
11, 16248, Note_off_c, 9, 42, 0
11, 16248, Note_off_c, 9, 54, 0
11, 16248, Note_on_c, 9, 35, 127
11, 16248, Note_on_c, 9, 42, 127
11, 16248, Note_on_c, 9, 54, 107
11, 16260, Note_off_c, 9, 35, 0
11, 16260, Note_off_c, 9, 40, 0
11, 16260, Note_off_c, 9, 54, 0
11, 16260, Note_on_c, 9, 35, 127
11, 16260, Note_on_c, 9, 54, 87
11, 16272, Note_off_c, 9, 42, 0
11, 16272, Note_off_c, 9, 54, 0
11, 16272, Note_on_c, 9, 40, 127
11, 16272, Note_on_c, 9, 42, 127
11, 16272, Note_on_c, 9, 54, 127
11, 16284, Note_off_c, 9, 40, 0
11, 16284, Note_off_c, 9, 54, 0
11, 16284, Note_on_c, 9, 54, 87
11, 16296, Note_off_c, 9, 35, 0
11, 16296, Note_off_c, 9, 42, 0
11, 16296, Note_off_c, 9, 54, 0
11, 16296, Note_on_c, 9, 40, 127
11, 16296, Note_on_c, 9, 46, 127
11, 16296, Note_on_c, 9, 54, 107
11, 16308, Note_off_c, 9, 35, 0
11, 16308, Note_off_c, 9, 54, 0
11, 16308, Note_on_c, 9, 54, 87
11, 16320, Note_off_c, 9, 40, 0
11, 16320, Note_off_c, 9, 42, 0
11, 16320, Note_off_c, 9, 54, 0
11, 16320, Note_on_c, 9, 35, 127
11, 16320, Note_on_c, 9, 42, 127
11, 16320, Note_on_c, 9, 45, 127
11, 16320, Note_on_c, 9, 46, 127
11, 16320, Note_on_c, 9, 49, 127
11, 16320, Note_on_c, 9, 54, 127
11, 16332, Note_off_c, 9, 54, 0
11, 16332, Note_on_c, 9, 40, 127
11, 16332, Note_on_c, 9, 54, 87
11, 16344, Note_off_c, 9, 40, 0
11, 16344, Note_off_c, 9, 46, 0
11, 16344, Note_off_c, 9, 54, 0
11, 16344, Note_on_c, 9, 42, 127
11, 16344, Note_on_c, 9, 45, 127
11, 16344, Note_on_c, 9, 54, 107
11, 16356, Note_off_c, 9, 54, 0
11, 16356, Note_on_c, 9, 35, 127
11, 16356, Note_on_c, 9, 54, 87
11, 16368, Note_off_c, 9, 35, 0
11, 16368, Note_off_c, 9, 42, 0
11, 16368, Note_off_c, 9, 45, 0
11, 16368, Note_off_c, 9, 46, 0
11, 16368, Note_off_c, 9, 49, 0
11, 16368, Note_off_c, 9, 54, 0
11, 16368, Note_on_c, 9, 40, 127
11, 16368, Note_on_c, 9, 42, 127
11, 16368, Note_on_c, 9, 45, 127
11, 16368, Note_on_c, 9, 54, 127
11, 16380, Note_off_c, 9, 40, 0
11, 16380, Note_off_c, 9, 54, 0
11, 16380, Note_on_c, 9, 54, 87
11, 16392, Note_off_c, 9, 42, 0
11, 16392, Note_off_c, 9, 45, 0
11, 16392, Note_off_c, 9, 54, 0
11, 16392, Note_on_c, 9, 42, 127
11, 16392, Note_on_c, 9, 54, 107
11, 16404, Note_off_c, 9, 35, 0
11, 16404, Note_off_c, 9, 54, 0
11, 16404, Note_on_c, 9, 35, 127
11, 16404, Note_on_c, 9, 40, 127
11, 16404, Note_on_c, 9, 54, 87
11, 16416, Note_off_c, 9, 40, 0
11, 16416, Note_off_c, 9, 42, 0
11, 16416, Note_off_c, 9, 45, 0
11, 16416, Note_off_c, 9, 54, 0
11, 16416, Note_on_c, 9, 42, 127
11, 16416, Note_on_c, 9, 54, 127
11, 16428, Note_off_c, 9, 54, 0
11, 16428, Note_on_c, 9, 40, 127
11, 16428, Note_on_c, 9, 54, 87
11, 16440, Note_off_c, 9, 42, 0
11, 16440, Note_off_c, 9, 54, 0
11, 16440, Note_on_c, 9, 35, 127
11, 16440, Note_on_c, 9, 42, 127
11, 16440, Note_on_c, 9, 54, 107
11, 16452, Note_off_c, 9, 35, 0
11, 16452, Note_off_c, 9, 40, 0
11, 16452, Note_off_c, 9, 54, 0
11, 16452, Note_on_c, 9, 35, 127
11, 16452, Note_on_c, 9, 54, 87
11, 16464, Note_off_c, 9, 42, 0
11, 16464, Note_off_c, 9, 54, 0
11, 16464, Note_on_c, 9, 40, 127
11, 16464, Note_on_c, 9, 42, 127
11, 16464, Note_on_c, 9, 54, 127
11, 16476, Note_off_c, 9, 40, 0
11, 16476, Note_off_c, 9, 54, 0
11, 16476, Note_on_c, 9, 54, 87
11, 16488, Note_off_c, 9, 35, 0
11, 16488, Note_off_c, 9, 42, 0
11, 16488, Note_off_c, 9, 54, 0
11, 16488, Note_on_c, 9, 40, 127
11, 16488, Note_on_c, 9, 46, 127
11, 16488, Note_on_c, 9, 54, 107
11, 16500, Note_off_c, 9, 35, 0
11, 16500, Note_off_c, 9, 54, 0
11, 16500, Note_on_c, 9, 54, 87
11, 16512, Note_off_c, 9, 40, 0
11, 16512, Note_off_c, 9, 42, 0
11, 16512, Note_off_c, 9, 54, 0
11, 16512, Note_on_c, 9, 35, 127
11, 16512, Note_on_c, 9, 42, 127
11, 16512, Note_on_c, 9, 45, 127
11, 16512, Note_on_c, 9, 46, 127
11, 16512, Note_on_c, 9, 49, 127
11, 16512, Note_on_c, 9, 54, 127
11, 16524, Note_off_c, 9, 54, 0
11, 16524, Note_on_c, 9, 40, 127
11, 16524, Note_on_c, 9, 54, 87
11, 16536, Note_off_c, 9, 40, 0
11, 16536, Note_off_c, 9, 46, 0
11, 16536, Note_off_c, 9, 54, 0
11, 16536, Note_on_c, 9, 42, 127
11, 16536, Note_on_c, 9, 45, 127
11, 16536, Note_on_c, 9, 54, 107
11, 16548, Note_off_c, 9, 54, 0
11, 16548, Note_on_c, 9, 35, 127
11, 16548, Note_on_c, 9, 54, 87
11, 16560, Note_off_c, 9, 35, 0
11, 16560, Note_off_c, 9, 42, 0
11, 16560, Note_off_c, 9, 45, 0
11, 16560, Note_off_c, 9, 46, 0
11, 16560, Note_off_c, 9, 49, 0
11, 16560, Note_off_c, 9, 54, 0
11, 16560, Note_on_c, 9, 40, 127
11, 16560, Note_on_c, 9, 42, 127
11, 16560, Note_on_c, 9, 45, 127
11, 16560, Note_on_c, 9, 54, 127
11, 16572, Note_off_c, 9, 40, 0
11, 16572, Note_off_c, 9, 54, 0
11, 16572, Note_on_c, 9, 54, 87
11, 16584, Note_off_c, 9, 42, 0
11, 16584, Note_off_c, 9, 45, 0
11, 16584, Note_off_c, 9, 54, 0
11, 16584, Note_on_c, 9, 42, 127
11, 16584, Note_on_c, 9, 54, 107
11, 16596, Note_off_c, 9, 35, 0
11, 16596, Note_off_c, 9, 54, 0
11, 16596, Note_on_c, 9, 35, 127
11, 16596, Note_on_c, 9, 40, 127
11, 16596, Note_on_c, 9, 54, 87
11, 16608, Note_off_c, 9, 40, 0
11, 16608, Note_off_c, 9, 42, 0
11, 16608, Note_off_c, 9, 45, 0
11, 16608, Note_off_c, 9, 54, 0
11, 16608, Note_on_c, 9, 42, 127
11, 16608, Note_on_c, 9, 54, 127
11, 16620, Note_off_c, 9, 54, 0
11, 16620, Note_on_c, 9, 40, 127
11, 16620, Note_on_c, 9, 54, 87
11, 16632, Note_off_c, 9, 42, 0
11, 16632, Note_off_c, 9, 54, 0
11, 16632, Note_on_c, 9, 35, 127
11, 16632, Note_on_c, 9, 42, 127
11, 16632, Note_on_c, 9, 54, 107
11, 16644, Note_off_c, 9, 35, 0
11, 16644, Note_off_c, 9, 40, 0
11, 16644, Note_off_c, 9, 54, 0
11, 16644, Note_on_c, 9, 35, 127
11, 16644, Note_on_c, 9, 54, 87
11, 16656, Note_off_c, 9, 42, 0
11, 16656, Note_off_c, 9, 54, 0
11, 16656, Note_on_c, 9, 40, 127
11, 16656, Note_on_c, 9, 42, 127
11, 16656, Note_on_c, 9, 54, 127
11, 16668, Note_off_c, 9, 40, 0
11, 16668, Note_off_c, 9, 54, 0
11, 16668, Note_on_c, 9, 54, 87
11, 16680, Note_off_c, 9, 35, 0
11, 16680, Note_off_c, 9, 42, 0
11, 16680, Note_off_c, 9, 54, 0
11, 16680, Note_on_c, 9, 40, 127
11, 16680, Note_on_c, 9, 46, 127
11, 16680, Note_on_c, 9, 54, 107
11, 16692, Note_off_c, 9, 35, 0
11, 16692, Note_off_c, 9, 54, 0
11, 16692, Note_on_c, 9, 54, 87
11, 16704, Note_off_c, 9, 40, 0
11, 16704, Note_off_c, 9, 42, 0
11, 16704, Note_off_c, 9, 54, 0
11, 16704, Note_on_c, 9, 35, 127
11, 16704, Note_on_c, 9, 39, 127
11, 16704, Note_on_c, 9, 42, 127
11, 16704, Note_on_c, 9, 46, 127
11, 16704, Note_on_c, 9, 49, 127
11, 16704, Note_on_c, 9, 54, 87
11, 16704, Note_on_c, 9, 55, 127
11, 16716, Note_off_c, 9, 54, 0
11, 16716, Note_on_c, 9, 54, 107
11, 16728, Note_off_c, 9, 40, 0
11, 16728, Note_off_c, 9, 46, 0
11, 16728, Note_off_c, 9, 54, 0
11, 16728, Note_on_c, 9, 35, 127
11, 16728, Note_on_c, 9, 39, 127
11, 16728, Note_on_c, 9, 42, 127
11, 16728, Note_on_c, 9, 54, 87
11, 16740, Note_off_c, 9, 54, 0
11, 16740, Note_on_c, 9, 35, 127
11, 16740, Note_on_c, 9, 54, 127
11, 16752, Note_off_c, 9, 35, 0
11, 16752, Note_off_c, 9, 39, 0
11, 16752, Note_off_c, 9, 42, 0
11, 16752, Note_off_c, 9, 46, 0
11, 16752, Note_off_c, 9, 49, 0
11, 16752, Note_off_c, 9, 54, 0
11, 16752, Note_off_c, 9, 55, 0
11, 16752, Note_on_c, 9, 38, 127
11, 16752, Note_on_c, 9, 39, 127
11, 16752, Note_on_c, 9, 42, 127
11, 16752, Note_on_c, 9, 54, 87
11, 16764, Note_off_c, 9, 54, 0
11, 16764, Note_on_c, 9, 54, 107
11, 16776, Note_off_c, 9, 35, 0
11, 16776, Note_off_c, 9, 39, 0
11, 16776, Note_off_c, 9, 42, 0
11, 16776, Note_off_c, 9, 54, 0
11, 16776, Note_on_c, 9, 38, 127
11, 16776, Note_on_c, 9, 39, 127
11, 16776, Note_on_c, 9, 42, 127
11, 16776, Note_on_c, 9, 54, 87
11, 16788, Note_off_c, 9, 35, 0
11, 16788, Note_off_c, 9, 54, 0
11, 16788, Note_on_c, 9, 35, 127
11, 16788, Note_on_c, 9, 54, 127
11, 16800, Note_off_c, 9, 38, 0
11, 16800, Note_off_c, 9, 39, 0
11, 16800, Note_off_c, 9, 42, 0
11, 16800, Note_off_c, 9, 54, 0
11, 16800, Note_on_c, 9, 35, 127
11, 16800, Note_on_c, 9, 39, 127
11, 16800, Note_on_c, 9, 42, 127
11, 16800, Note_on_c, 9, 54, 87
11, 16812, Note_off_c, 9, 54, 0
11, 16812, Note_on_c, 9, 44, 127
11, 16812, Note_on_c, 9, 54, 107
11, 16824, Note_off_c, 9, 38, 0
11, 16824, Note_off_c, 9, 39, 0
11, 16824, Note_off_c, 9, 42, 0
11, 16824, Note_off_c, 9, 54, 0
11, 16824, Note_on_c, 9, 39, 127
11, 16824, Note_on_c, 9, 46, 127
11, 16824, Note_on_c, 9, 49, 127
11, 16824, Note_on_c, 9, 54, 127
11, 16824, Note_on_c, 9, 54, 87
11, 16836, Note_off_c, 9, 35, 0
11, 16836, Note_off_c, 9, 54, 0
11, 16836, Note_on_c, 9, 35, 127
11, 16836, Note_on_c, 9, 54, 127
11, 16848, Note_off_c, 9, 35, 0
11, 16848, Note_off_c, 9, 39, 0
11, 16848, Note_off_c, 9, 42, 0
11, 16848, Note_off_c, 9, 54, 0
11, 16848, Note_on_c, 9, 38, 127
11, 16848, Note_on_c, 9, 39, 127
11, 16848, Note_on_c, 9, 54, 87
11, 16860, Note_off_c, 9, 44, 0
11, 16860, Note_off_c, 9, 54, 0
11, 16860, Note_on_c, 9, 38, 127
11, 16860, Note_on_c, 9, 44, 127
11, 16860, Note_on_c, 9, 54, 107
11, 16872, Note_off_c, 9, 39, 0
11, 16872, Note_off_c, 9, 46, 0
11, 16872, Note_off_c, 9, 49, 0
11, 16872, Note_off_c, 9, 54, 0
11, 16872, Note_off_c, 9, 54, 0
11, 16872, Note_on_c, 9, 39, 127
11, 16872, Note_on_c, 9, 46, 127
11, 16872, Note_on_c, 9, 49, 127
11, 16872, Note_on_c, 9, 54, 127
11, 16872, Note_on_c, 9, 54, 87
11, 16884, Note_off_c, 9, 35, 0
11, 16884, Note_off_c, 9, 54, 0
11, 16884, Note_on_c, 9, 38, 127
11, 16884, Note_on_c, 9, 54, 127
11, 16896, Note_off_c, 9, 38, 0
11, 16896, Note_off_c, 9, 39, 0
11, 16896, Note_off_c, 9, 54, 0
11, 16896, Note_on_c, 9, 35, 127
11, 16896, Note_on_c, 9, 42, 127
11, 16896, Note_on_c, 9, 54, 87
11, 16908, Note_off_c, 9, 38, 0
11, 16908, Note_off_c, 9, 44, 0
11, 16908, Note_off_c, 9, 54, 0
11, 16908, Note_on_c, 9, 54, 107
11, 16920, Note_off_c, 9, 39, 0
11, 16920, Note_off_c, 9, 46, 0
11, 16920, Note_off_c, 9, 49, 0
11, 16920, Note_off_c, 9, 54, 0
11, 16920, Note_off_c, 9, 54, 0
11, 16920, Note_on_c, 9, 39, 127
11, 16920, Note_on_c, 9, 42, 127
11, 16920, Note_on_c, 9, 54, 87
11, 16932, Note_off_c, 9, 38, 0
11, 16932, Note_off_c, 9, 54, 0
11, 16932, Note_on_c, 9, 35, 127
11, 16932, Note_on_c, 9, 54, 127
11, 16944, Note_off_c, 9, 35, 0
11, 16944, Note_off_c, 9, 42, 0
11, 16944, Note_off_c, 9, 54, 0
11, 16944, Note_on_c, 9, 38, 127
11, 16944, Note_on_c, 9, 39, 127
11, 16944, Note_on_c, 9, 42, 127
11, 16944, Note_on_c, 9, 54, 87
11, 16956, Note_off_c, 9, 54, 0
11, 16956, Note_on_c, 9, 54, 127
11, 16956, Note_on_c, 9, 54, 107
11, 16968, Note_off_c, 9, 39, 0
11, 16968, Note_off_c, 9, 42, 0
11, 16968, Note_off_c, 9, 54, 0
11, 16968, Note_on_c, 9, 38, 127
11, 16968, Note_on_c, 9, 39, 127
11, 16968, Note_on_c, 9, 42, 127
11, 16968, Note_on_c, 9, 54, 127
11, 16968, Note_on_c, 9, 54, 87
11, 16980, Note_off_c, 9, 35, 0
11, 16980, Note_off_c, 9, 54, 0
11, 16980, Note_on_c, 9, 35, 127
11, 16980, Note_on_c, 9, 54, 127
11, 16992, Note_off_c, 9, 38, 0
11, 16992, Note_off_c, 9, 39, 0
11, 16992, Note_off_c, 9, 42, 0
11, 16992, Note_off_c, 9, 54, 0
11, 16992, Note_on_c, 9, 39, 127
11, 16992, Note_on_c, 9, 42, 127
11, 16992, Note_on_c, 9, 54, 87
11, 17004, Note_off_c, 9, 54, 0
11, 17004, Note_off_c, 9, 54, 0
11, 17004, Note_on_c, 9, 35, 127
11, 17004, Note_on_c, 9, 54, 107
11, 17016, Note_off_c, 9, 38, 0
11, 17016, Note_off_c, 9, 39, 0
11, 17016, Note_off_c, 9, 42, 0
11, 17016, Note_off_c, 9, 54, 0
11, 17016, Note_off_c, 9, 54, 0
11, 17016, Note_on_c, 9, 39, 127
11, 17016, Note_on_c, 9, 42, 127
11, 17016, Note_on_c, 9, 54, 87
11, 17028, Note_off_c, 9, 35, 0
11, 17028, Note_off_c, 9, 54, 0
11, 17028, Note_on_c, 9, 35, 127
11, 17028, Note_on_c, 9, 54, 127
11, 17028, Note_on_c, 9, 54, 127
11, 17040, Note_off_c, 9, 39, 0
11, 17040, Note_off_c, 9, 42, 0
11, 17040, Note_off_c, 9, 54, 0
11, 17040, Note_on_c, 9, 38, 127
11, 17040, Note_on_c, 9, 39, 127
11, 17040, Note_on_c, 9, 42, 127
11, 17040, Note_on_c, 9, 54, 127
11, 17040, Note_on_c, 9, 54, 87
11, 17052, Note_off_c, 9, 35, 0
11, 17052, Note_off_c, 9, 54, 0
11, 17052, Note_on_c, 9, 54, 107
11, 17064, Note_off_c, 9, 39, 0
11, 17064, Note_off_c, 9, 42, 0
11, 17064, Note_off_c, 9, 54, 0
11, 17064, Note_on_c, 9, 38, 127
11, 17064, Note_on_c, 9, 39, 127
11, 17064, Note_on_c, 9, 46, 127
11, 17064, Note_on_c, 9, 49, 127
11, 17064, Note_on_c, 9, 54, 87
11, 17076, Note_off_c, 9, 35, 0
11, 17076, Note_off_c, 9, 54, 0
11, 17076, Note_off_c, 9, 54, 0
11, 17076, Note_on_c, 9, 54, 127
11, 17088, Note_off_c, 9, 38, 0
11, 17088, Note_off_c, 9, 39, 0
11, 17088, Note_off_c, 9, 42, 0
11, 17088, Note_off_c, 9, 54, 0
11, 17088, Note_off_c, 9, 54, 0
11, 17088, Note_on_c, 9, 35, 127
11, 17088, Note_on_c, 9, 39, 127
11, 17088, Note_on_c, 9, 42, 127
11, 17088, Note_on_c, 9, 46, 127
11, 17088, Note_on_c, 9, 49, 127
11, 17088, Note_on_c, 9, 54, 87
11, 17088, Note_on_c, 9, 55, 127
11, 17100, Note_off_c, 9, 54, 0
11, 17100, Note_on_c, 9, 54, 107
11, 17112, Note_off_c, 9, 38, 0
11, 17112, Note_off_c, 9, 39, 0
11, 17112, Note_off_c, 9, 46, 0
11, 17112, Note_off_c, 9, 49, 0
11, 17112, Note_off_c, 9, 54, 0
11, 17112, Note_on_c, 9, 35, 127
11, 17112, Note_on_c, 9, 39, 127
11, 17112, Note_on_c, 9, 42, 127
11, 17112, Note_on_c, 9, 54, 87
11, 17124, Note_off_c, 9, 54, 0
11, 17124, Note_on_c, 9, 35, 127
11, 17124, Note_on_c, 9, 54, 127
11, 17136, Note_off_c, 9, 35, 0
11, 17136, Note_off_c, 9, 39, 0
11, 17136, Note_off_c, 9, 42, 0
11, 17136, Note_off_c, 9, 46, 0
11, 17136, Note_off_c, 9, 49, 0
11, 17136, Note_off_c, 9, 54, 0
11, 17136, Note_off_c, 9, 55, 0
11, 17136, Note_on_c, 9, 38, 127
11, 17136, Note_on_c, 9, 39, 127
11, 17136, Note_on_c, 9, 42, 127
11, 17136, Note_on_c, 9, 54, 87
11, 17148, Note_off_c, 9, 54, 0
11, 17148, Note_on_c, 9, 54, 107
11, 17160, Note_off_c, 9, 35, 0
11, 17160, Note_off_c, 9, 39, 0
11, 17160, Note_off_c, 9, 42, 0
11, 17160, Note_off_c, 9, 54, 0
11, 17160, Note_on_c, 9, 38, 127
11, 17160, Note_on_c, 9, 39, 127
11, 17160, Note_on_c, 9, 42, 127
11, 17160, Note_on_c, 9, 54, 87
11, 17172, Note_off_c, 9, 35, 0
11, 17172, Note_off_c, 9, 54, 0
11, 17172, Note_on_c, 9, 35, 127
11, 17172, Note_on_c, 9, 54, 127
11, 17184, Note_off_c, 9, 38, 0
11, 17184, Note_off_c, 9, 39, 0
11, 17184, Note_off_c, 9, 42, 0
11, 17184, Note_off_c, 9, 54, 0
11, 17184, Note_on_c, 9, 35, 127
11, 17184, Note_on_c, 9, 39, 127
11, 17184, Note_on_c, 9, 42, 127
11, 17184, Note_on_c, 9, 54, 87
11, 17196, Note_off_c, 9, 54, 0
11, 17196, Note_on_c, 9, 44, 127
11, 17196, Note_on_c, 9, 54, 107
11, 17208, Note_off_c, 9, 38, 0
11, 17208, Note_off_c, 9, 39, 0
11, 17208, Note_off_c, 9, 42, 0
11, 17208, Note_off_c, 9, 54, 0
11, 17208, Note_on_c, 9, 39, 127
11, 17208, Note_on_c, 9, 46, 127
11, 17208, Note_on_c, 9, 49, 127
11, 17208, Note_on_c, 9, 54, 127
11, 17208, Note_on_c, 9, 54, 87
11, 17220, Note_off_c, 9, 35, 0
11, 17220, Note_off_c, 9, 54, 0
11, 17220, Note_on_c, 9, 35, 127
11, 17220, Note_on_c, 9, 54, 127
11, 17232, Note_off_c, 9, 35, 0
11, 17232, Note_off_c, 9, 39, 0
11, 17232, Note_off_c, 9, 42, 0
11, 17232, Note_off_c, 9, 54, 0
11, 17232, Note_on_c, 9, 38, 127
11, 17232, Note_on_c, 9, 39, 127
11, 17232, Note_on_c, 9, 54, 87
11, 17244, Note_off_c, 9, 44, 0
11, 17244, Note_off_c, 9, 54, 0
11, 17244, Note_on_c, 9, 38, 127
11, 17244, Note_on_c, 9, 44, 127
11, 17244, Note_on_c, 9, 54, 107
11, 17256, Note_off_c, 9, 39, 0
11, 17256, Note_off_c, 9, 46, 0
11, 17256, Note_off_c, 9, 49, 0
11, 17256, Note_off_c, 9, 54, 0
11, 17256, Note_off_c, 9, 54, 0
11, 17256, Note_on_c, 9, 39, 127
11, 17256, Note_on_c, 9, 46, 127
11, 17256, Note_on_c, 9, 49, 127
11, 17256, Note_on_c, 9, 54, 127
11, 17256, Note_on_c, 9, 54, 87
11, 17268, Note_off_c, 9, 35, 0
11, 17268, Note_off_c, 9, 54, 0
11, 17268, Note_on_c, 9, 38, 127
11, 17268, Note_on_c, 9, 54, 127
11, 17280, Note_off_c, 9, 38, 0
11, 17280, Note_off_c, 9, 39, 0
11, 17280, Note_off_c, 9, 54, 0
11, 17280, Note_on_c, 9, 35, 127
11, 17280, Note_on_c, 9, 42, 127
11, 17280, Note_on_c, 9, 54, 87
11, 17292, Note_off_c, 9, 38, 0
11, 17292, Note_off_c, 9, 44, 0
11, 17292, Note_off_c, 9, 54, 0
11, 17292, Note_on_c, 9, 54, 107
11, 17304, Note_off_c, 9, 39, 0
11, 17304, Note_off_c, 9, 46, 0
11, 17304, Note_off_c, 9, 49, 0
11, 17304, Note_off_c, 9, 54, 0
11, 17304, Note_off_c, 9, 54, 0
11, 17304, Note_on_c, 9, 39, 127
11, 17304, Note_on_c, 9, 42, 127
11, 17304, Note_on_c, 9, 54, 87
11, 17316, Note_off_c, 9, 38, 0
11, 17316, Note_off_c, 9, 54, 0
11, 17316, Note_on_c, 9, 35, 127
11, 17316, Note_on_c, 9, 54, 127
11, 17328, Note_off_c, 9, 35, 0
11, 17328, Note_off_c, 9, 42, 0
11, 17328, Note_off_c, 9, 54, 0
11, 17328, Note_on_c, 9, 38, 127
11, 17328, Note_on_c, 9, 39, 127
11, 17328, Note_on_c, 9, 42, 127
11, 17328, Note_on_c, 9, 54, 87
11, 17340, Note_off_c, 9, 54, 0
11, 17340, Note_on_c, 9, 54, 127
11, 17340, Note_on_c, 9, 54, 107
11, 17352, Note_off_c, 9, 39, 0
11, 17352, Note_off_c, 9, 42, 0
11, 17352, Note_off_c, 9, 54, 0
11, 17352, Note_on_c, 9, 38, 127
11, 17352, Note_on_c, 9, 39, 127
11, 17352, Note_on_c, 9, 42, 127
11, 17352, Note_on_c, 9, 54, 127
11, 17352, Note_on_c, 9, 54, 87
11, 17364, Note_off_c, 9, 35, 0
11, 17364, Note_off_c, 9, 54, 0
11, 17364, Note_on_c, 9, 35, 127
11, 17364, Note_on_c, 9, 54, 127
11, 17376, Note_off_c, 9, 38, 0
11, 17376, Note_off_c, 9, 39, 0
11, 17376, Note_off_c, 9, 42, 0
11, 17376, Note_off_c, 9, 54, 0
11, 17376, Note_on_c, 9, 39, 127
11, 17376, Note_on_c, 9, 42, 127
11, 17376, Note_on_c, 9, 54, 87
11, 17388, Note_off_c, 9, 54, 0
11, 17388, Note_off_c, 9, 54, 0
11, 17388, Note_on_c, 9, 35, 127
11, 17388, Note_on_c, 9, 54, 107
11, 17400, Note_off_c, 9, 38, 0
11, 17400, Note_off_c, 9, 39, 0
11, 17400, Note_off_c, 9, 42, 0
11, 17400, Note_off_c, 9, 54, 0
11, 17400, Note_off_c, 9, 54, 0
11, 17400, Note_on_c, 9, 39, 127
11, 17400, Note_on_c, 9, 42, 127
11, 17400, Note_on_c, 9, 54, 87
11, 17412, Note_off_c, 9, 35, 0
11, 17412, Note_off_c, 9, 54, 0
11, 17412, Note_on_c, 9, 35, 127
11, 17412, Note_on_c, 9, 54, 127
11, 17412, Note_on_c, 9, 54, 127
11, 17424, Note_off_c, 9, 39, 0
11, 17424, Note_off_c, 9, 42, 0
11, 17424, Note_off_c, 9, 54, 0
11, 17424, Note_on_c, 9, 38, 127
11, 17424, Note_on_c, 9, 39, 127
11, 17424, Note_on_c, 9, 42, 127
11, 17424, Note_on_c, 9, 54, 127
11, 17424, Note_on_c, 9, 54, 87
11, 17436, Note_off_c, 9, 35, 0
11, 17436, Note_off_c, 9, 54, 0
11, 17436, Note_on_c, 9, 54, 107
11, 17448, Note_off_c, 9, 39, 0
11, 17448, Note_off_c, 9, 42, 0
11, 17448, Note_off_c, 9, 54, 0
11, 17448, Note_on_c, 9, 38, 127
11, 17448, Note_on_c, 9, 39, 127
11, 17448, Note_on_c, 9, 46, 127
11, 17448, Note_on_c, 9, 49, 127
11, 17448, Note_on_c, 9, 54, 87
11, 17460, Note_off_c, 9, 35, 0
11, 17460, Note_off_c, 9, 54, 0
11, 17460, Note_off_c, 9, 54, 0
11, 17460, Note_on_c, 9, 54, 127
11, 17472, Note_off_c, 9, 38, 0
11, 17472, Note_off_c, 9, 39, 0
11, 17472, Note_off_c, 9, 42, 0
11, 17472, Note_off_c, 9, 54, 0
11, 17472, Note_off_c, 9, 54, 0
11, 17472, Note_on_c, 9, 35, 127
11, 17472, Note_on_c, 9, 39, 127
11, 17472, Note_on_c, 9, 42, 127
11, 17472, Note_on_c, 9, 46, 127
11, 17472, Note_on_c, 9, 49, 127
11, 17472, Note_on_c, 9, 54, 87
11, 17472, Note_on_c, 9, 55, 127
11, 17484, Note_off_c, 9, 54, 0
11, 17484, Note_on_c, 9, 54, 107
11, 17496, Note_off_c, 9, 38, 0
11, 17496, Note_off_c, 9, 39, 0
11, 17496, Note_off_c, 9, 46, 0
11, 17496, Note_off_c, 9, 49, 0
11, 17496, Note_off_c, 9, 54, 0
11, 17496, Note_on_c, 9, 35, 127
11, 17496, Note_on_c, 9, 39, 127
11, 17496, Note_on_c, 9, 42, 127
11, 17496, Note_on_c, 9, 54, 87
11, 17508, Note_off_c, 9, 54, 0
11, 17508, Note_on_c, 9, 35, 127
11, 17508, Note_on_c, 9, 54, 127
11, 17520, Note_off_c, 9, 35, 0
11, 17520, Note_off_c, 9, 39, 0
11, 17520, Note_off_c, 9, 42, 0
11, 17520, Note_off_c, 9, 46, 0
11, 17520, Note_off_c, 9, 49, 0
11, 17520, Note_off_c, 9, 54, 0
11, 17520, Note_off_c, 9, 55, 0
11, 17520, Note_on_c, 9, 38, 127
11, 17520, Note_on_c, 9, 39, 127
11, 17520, Note_on_c, 9, 42, 127
11, 17520, Note_on_c, 9, 54, 87
11, 17532, Note_off_c, 9, 54, 0
11, 17532, Note_on_c, 9, 54, 107
11, 17544, Note_off_c, 9, 35, 0
11, 17544, Note_off_c, 9, 39, 0
11, 17544, Note_off_c, 9, 42, 0
11, 17544, Note_off_c, 9, 54, 0
11, 17544, Note_on_c, 9, 38, 127
11, 17544, Note_on_c, 9, 39, 127
11, 17544, Note_on_c, 9, 42, 127
11, 17544, Note_on_c, 9, 54, 87
11, 17556, Note_off_c, 9, 35, 0
11, 17556, Note_off_c, 9, 54, 0
11, 17556, Note_on_c, 9, 35, 127
11, 17556, Note_on_c, 9, 54, 127
11, 17568, Note_off_c, 9, 38, 0
11, 17568, Note_off_c, 9, 39, 0
11, 17568, Note_off_c, 9, 42, 0
11, 17568, Note_off_c, 9, 54, 0
11, 17568, Note_on_c, 9, 35, 127
11, 17568, Note_on_c, 9, 39, 127
11, 17568, Note_on_c, 9, 42, 127
11, 17568, Note_on_c, 9, 54, 87
11, 17580, Note_off_c, 9, 54, 0
11, 17580, Note_on_c, 9, 44, 127
11, 17580, Note_on_c, 9, 54, 107
11, 17592, Note_off_c, 9, 38, 0
11, 17592, Note_off_c, 9, 39, 0
11, 17592, Note_off_c, 9, 42, 0
11, 17592, Note_off_c, 9, 54, 0
11, 17592, Note_on_c, 9, 39, 127
11, 17592, Note_on_c, 9, 46, 127
11, 17592, Note_on_c, 9, 49, 127
11, 17592, Note_on_c, 9, 54, 127
11, 17592, Note_on_c, 9, 54, 87
11, 17604, Note_off_c, 9, 35, 0
11, 17604, Note_off_c, 9, 54, 0
11, 17604, Note_on_c, 9, 35, 127
11, 17604, Note_on_c, 9, 54, 127
11, 17616, Note_off_c, 9, 35, 0
11, 17616, Note_off_c, 9, 39, 0
11, 17616, Note_off_c, 9, 42, 0
11, 17616, Note_off_c, 9, 54, 0
11, 17616, Note_on_c, 9, 38, 127
11, 17616, Note_on_c, 9, 39, 127
11, 17616, Note_on_c, 9, 54, 87
11, 17628, Note_off_c, 9, 44, 0
11, 17628, Note_off_c, 9, 54, 0
11, 17628, Note_on_c, 9, 38, 127
11, 17628, Note_on_c, 9, 44, 127
11, 17628, Note_on_c, 9, 54, 107
11, 17640, Note_off_c, 9, 39, 0
11, 17640, Note_off_c, 9, 46, 0
11, 17640, Note_off_c, 9, 49, 0
11, 17640, Note_off_c, 9, 54, 0
11, 17640, Note_off_c, 9, 54, 0
11, 17640, Note_on_c, 9, 39, 127
11, 17640, Note_on_c, 9, 46, 127
11, 17640, Note_on_c, 9, 49, 127
11, 17640, Note_on_c, 9, 54, 127
11, 17640, Note_on_c, 9, 54, 87
11, 17652, Note_off_c, 9, 35, 0
11, 17652, Note_off_c, 9, 54, 0
11, 17652, Note_on_c, 9, 38, 127
11, 17652, Note_on_c, 9, 54, 127
11, 17664, Note_off_c, 9, 38, 0
11, 17664, Note_off_c, 9, 39, 0
11, 17664, Note_off_c, 9, 54, 0
11, 17664, Note_on_c, 9, 35, 127
11, 17664, Note_on_c, 9, 42, 127
11, 17664, Note_on_c, 9, 54, 87
11, 17676, Note_off_c, 9, 38, 0
11, 17676, Note_off_c, 9, 44, 0
11, 17676, Note_off_c, 9, 54, 0
11, 17676, Note_on_c, 9, 54, 107
11, 17688, Note_off_c, 9, 39, 0
11, 17688, Note_off_c, 9, 46, 0
11, 17688, Note_off_c, 9, 49, 0
11, 17688, Note_off_c, 9, 54, 0
11, 17688, Note_off_c, 9, 54, 0
11, 17688, Note_on_c, 9, 39, 127
11, 17688, Note_on_c, 9, 42, 127
11, 17688, Note_on_c, 9, 54, 87
11, 17700, Note_off_c, 9, 38, 0
11, 17700, Note_off_c, 9, 54, 0
11, 17700, Note_on_c, 9, 35, 127
11, 17700, Note_on_c, 9, 54, 127
11, 17712, Note_off_c, 9, 35, 0
11, 17712, Note_off_c, 9, 42, 0
11, 17712, Note_off_c, 9, 54, 0
11, 17712, Note_on_c, 9, 38, 127
11, 17712, Note_on_c, 9, 39, 127
11, 17712, Note_on_c, 9, 42, 127
11, 17712, Note_on_c, 9, 54, 87
11, 17724, Note_off_c, 9, 54, 0
11, 17724, Note_on_c, 9, 54, 127
11, 17724, Note_on_c, 9, 54, 107
11, 17736, Note_off_c, 9, 39, 0
11, 17736, Note_off_c, 9, 42, 0
11, 17736, Note_off_c, 9, 54, 0
11, 17736, Note_on_c, 9, 38, 127
11, 17736, Note_on_c, 9, 39, 127
11, 17736, Note_on_c, 9, 42, 127
11, 17736, Note_on_c, 9, 54, 127
11, 17736, Note_on_c, 9, 54, 87
11, 17748, Note_off_c, 9, 35, 0
11, 17748, Note_off_c, 9, 54, 0
11, 17748, Note_on_c, 9, 35, 127
11, 17748, Note_on_c, 9, 54, 127
11, 17760, Note_off_c, 9, 38, 0
11, 17760, Note_off_c, 9, 39, 0
11, 17760, Note_off_c, 9, 42, 0
11, 17760, Note_off_c, 9, 54, 0
11, 17760, Note_on_c, 9, 39, 127
11, 17760, Note_on_c, 9, 42, 127
11, 17760, Note_on_c, 9, 54, 87
11, 17772, Note_off_c, 9, 54, 0
11, 17772, Note_off_c, 9, 54, 0
11, 17772, Note_on_c, 9, 35, 127
11, 17772, Note_on_c, 9, 54, 107
11, 17784, Note_off_c, 9, 38, 0
11, 17784, Note_off_c, 9, 39, 0
11, 17784, Note_off_c, 9, 42, 0
11, 17784, Note_off_c, 9, 54, 0
11, 17784, Note_off_c, 9, 54, 0
11, 17784, Note_on_c, 9, 39, 127
11, 17784, Note_on_c, 9, 42, 127
11, 17784, Note_on_c, 9, 54, 87
11, 17796, Note_off_c, 9, 35, 0
11, 17796, Note_off_c, 9, 54, 0
11, 17796, Note_on_c, 9, 35, 127
11, 17796, Note_on_c, 9, 54, 127
11, 17796, Note_on_c, 9, 54, 127
11, 17808, Note_off_c, 9, 39, 0
11, 17808, Note_off_c, 9, 42, 0
11, 17808, Note_off_c, 9, 54, 0
11, 17808, Note_on_c, 9, 38, 127
11, 17808, Note_on_c, 9, 39, 127
11, 17808, Note_on_c, 9, 42, 127
11, 17808, Note_on_c, 9, 54, 127
11, 17808, Note_on_c, 9, 54, 87
11, 17820, Note_off_c, 9, 35, 0
11, 17820, Note_off_c, 9, 54, 0
11, 17820, Note_on_c, 9, 54, 107
11, 17832, Note_off_c, 9, 39, 0
11, 17832, Note_off_c, 9, 42, 0
11, 17832, Note_off_c, 9, 54, 0
11, 17832, Note_on_c, 9, 38, 127
11, 17832, Note_on_c, 9, 39, 127
11, 17832, Note_on_c, 9, 46, 127
11, 17832, Note_on_c, 9, 49, 127
11, 17832, Note_on_c, 9, 54, 87
11, 17844, Note_off_c, 9, 35, 0
11, 17844, Note_off_c, 9, 54, 0
11, 17844, Note_off_c, 9, 54, 0
11, 17844, Note_on_c, 9, 54, 127
11, 17856, Note_off_c, 9, 38, 0
11, 17856, Note_off_c, 9, 39, 0
11, 17856, Note_off_c, 9, 42, 0
11, 17856, Note_off_c, 9, 54, 0
11, 17856, Note_off_c, 9, 54, 0
11, 17856, Note_on_c, 9, 35, 127
11, 17856, Note_on_c, 9, 39, 127
11, 17856, Note_on_c, 9, 42, 127
11, 17856, Note_on_c, 9, 46, 127
11, 17856, Note_on_c, 9, 49, 127
11, 17856, Note_on_c, 9, 54, 87
11, 17856, Note_on_c, 9, 55, 127
11, 17868, Note_off_c, 9, 54, 0
11, 17868, Note_on_c, 9, 54, 107
11, 17880, Note_off_c, 9, 38, 0
11, 17880, Note_off_c, 9, 39, 0
11, 17880, Note_off_c, 9, 46, 0
11, 17880, Note_off_c, 9, 49, 0
11, 17880, Note_off_c, 9, 54, 0
11, 17880, Note_on_c, 9, 35, 127
11, 17880, Note_on_c, 9, 39, 127
11, 17880, Note_on_c, 9, 42, 127
11, 17880, Note_on_c, 9, 54, 87
11, 17892, Note_off_c, 9, 54, 0
11, 17892, Note_on_c, 9, 35, 127
11, 17892, Note_on_c, 9, 54, 127
11, 17904, Note_off_c, 9, 35, 0
11, 17904, Note_off_c, 9, 39, 0
11, 17904, Note_off_c, 9, 42, 0
11, 17904, Note_off_c, 9, 46, 0
11, 17904, Note_off_c, 9, 49, 0
11, 17904, Note_off_c, 9, 54, 0
11, 17904, Note_off_c, 9, 55, 0
11, 17904, Note_on_c, 9, 38, 127
11, 17904, Note_on_c, 9, 39, 127
11, 17904, Note_on_c, 9, 42, 127
11, 17904, Note_on_c, 9, 54, 87
11, 17916, Note_off_c, 9, 54, 0
11, 17916, Note_on_c, 9, 54, 107
11, 17928, Note_off_c, 9, 35, 0
11, 17928, Note_off_c, 9, 39, 0
11, 17928, Note_off_c, 9, 42, 0
11, 17928, Note_off_c, 9, 54, 0
11, 17928, Note_on_c, 9, 38, 127
11, 17928, Note_on_c, 9, 39, 127
11, 17928, Note_on_c, 9, 42, 127
11, 17928, Note_on_c, 9, 54, 87
11, 17940, Note_off_c, 9, 35, 0
11, 17940, Note_off_c, 9, 54, 0
11, 17940, Note_on_c, 9, 35, 127
11, 17940, Note_on_c, 9, 54, 127
11, 17952, Note_off_c, 9, 38, 0
11, 17952, Note_off_c, 9, 39, 0
11, 17952, Note_off_c, 9, 42, 0
11, 17952, Note_off_c, 9, 54, 0
11, 17952, Note_on_c, 9, 35, 127
11, 17952, Note_on_c, 9, 39, 127
11, 17952, Note_on_c, 9, 42, 127
11, 17952, Note_on_c, 9, 54, 87
11, 17964, Note_off_c, 9, 54, 0
11, 17964, Note_on_c, 9, 44, 127
11, 17964, Note_on_c, 9, 54, 107
11, 17976, Note_off_c, 9, 38, 0
11, 17976, Note_off_c, 9, 39, 0
11, 17976, Note_off_c, 9, 42, 0
11, 17976, Note_off_c, 9, 54, 0
11, 17976, Note_on_c, 9, 39, 127
11, 17976, Note_on_c, 9, 46, 127
11, 17976, Note_on_c, 9, 49, 127
11, 17976, Note_on_c, 9, 54, 127
11, 17976, Note_on_c, 9, 54, 87
11, 17988, Note_off_c, 9, 35, 0
11, 17988, Note_off_c, 9, 54, 0
11, 17988, Note_on_c, 9, 35, 127
11, 17988, Note_on_c, 9, 54, 127
11, 18000, Note_off_c, 9, 35, 0
11, 18000, Note_off_c, 9, 39, 0
11, 18000, Note_off_c, 9, 42, 0
11, 18000, Note_off_c, 9, 54, 0
11, 18000, Note_on_c, 9, 38, 127
11, 18000, Note_on_c, 9, 39, 127
11, 18000, Note_on_c, 9, 54, 87
11, 18012, Note_off_c, 9, 44, 0
11, 18012, Note_off_c, 9, 54, 0
11, 18012, Note_on_c, 9, 38, 127
11, 18012, Note_on_c, 9, 44, 127
11, 18012, Note_on_c, 9, 54, 107
11, 18024, Note_off_c, 9, 39, 0
11, 18024, Note_off_c, 9, 46, 0
11, 18024, Note_off_c, 9, 49, 0
11, 18024, Note_off_c, 9, 54, 0
11, 18024, Note_off_c, 9, 54, 0
11, 18024, Note_on_c, 9, 39, 127
11, 18024, Note_on_c, 9, 46, 127
11, 18024, Note_on_c, 9, 49, 127
11, 18024, Note_on_c, 9, 54, 127
11, 18024, Note_on_c, 9, 54, 87
11, 18036, Note_off_c, 9, 35, 0
11, 18036, Note_off_c, 9, 54, 0
11, 18036, Note_on_c, 9, 38, 127
11, 18036, Note_on_c, 9, 54, 127
11, 18048, Note_off_c, 9, 38, 0
11, 18048, Note_off_c, 9, 39, 0
11, 18048, Note_off_c, 9, 54, 0
11, 18048, Note_on_c, 9, 46, 127
11, 18048, Note_on_c, 9, 49, 127
11, 18048, Note_on_c, 9, 57, 127
11, 18060, Note_off_c, 9, 38, 0
11, 18060, Note_off_c, 9, 44, 0
11, 18060, Note_off_c, 9, 54, 0
11, 18072, Note_off_c, 9, 39, 0
11, 18072, Note_off_c, 9, 46, 0
11, 18072, Note_off_c, 9, 49, 0
11, 18072, Note_off_c, 9, 54, 0
11, 18072, Note_off_c, 9, 54, 0
11, 18084, Note_off_c, 9, 38, 0
11, 18084, Note_off_c, 9, 54, 0
11, 18096, Note_off_c, 9, 46, 0
11, 18096, Note_off_c, 9, 49, 0
11, 18096, Note_off_c, 9, 57, 0
11, 18096, End_track
12, 0, Start_track
12, 0, Title_t, "Track 12\000"
12, 0, Program_c, 11, 125
12, 14340, Note_on_c, 11, 54, 100
12, 15972, Note_off_c, 11, 54, 0
12, 15972, End_track
13, 0, Start_track
13, 0, Title_t, "Track 13\000"
13, 0, Program_c, 12, 119
13, 0, Control_c, 12, 91, 127
13, 0, Control_c, 12, 93, 127
13, 14352, Note_on_c, 12, 68, 100
13, 14364, Note_on_c, 12, 85, 100
13, 14364, Note_on_c, 12, 90, 100
13, 14376, Note_on_c, 12, 88, 100
13, 14388, Note_on_c, 12, 72, 100
13, 14400, Note_on_c, 12, 77, 100
13, 14412, Note_on_c, 12, 62, 100
13, 14412, Note_on_c, 12, 80, 100
13, 14472, Note_on_c, 12, 73, 100
13, 14496, Note_off_c, 12, 77, 0
13, 14496, Note_off_c, 12, 80, 0
13, 14496, Note_on_c, 12, 90, 100
13, 14508, Note_on_c, 12, 82, 100
13, 14520, Note_on_c, 12, 78, 100
13, 14544, Note_off_c, 12, 82, 0
13, 14580, Note_off_c, 12, 85, 0
13, 14580, Note_off_c, 12, 62, 0
13, 14580, Note_on_c, 12, 75, 100
13, 14592, Note_off_c, 12, 68, 0
13, 14592, Note_off_c, 12, 88, 0
13, 14604, Note_off_c, 12, 78, 0
13, 14616, Note_off_c, 12, 90, 0
13, 14616, Note_on_c, 12, 83, 100
13, 14640, Note_off_c, 12, 73, 0
13, 14652, Note_off_c, 12, 90, 0
13, 14664, Note_on_c, 12, 88, 100
13, 14688, Note_off_c, 12, 72, 0
13, 14760, Note_off_c, 12, 88, 0
13, 14772, Note_off_c, 12, 83, 0
13, 14796, Note_off_c, 12, 75, 0
13, 14796, End_track
14, 0, Start_track
14, 0, Title_t, "Track 14\000"
14, 0, Program_c, 13, 101
14, 0, Control_c, 13, 7, 78
14, 0, Control_c, 13, 91, 127
14, 0, Control_c, 13, 93, 127
14, 14268, Note_on_c, 13, 39, 100
14, 14856, Note_on_c, 13, 44, 100
14, 15312, Note_off_c, 13, 39, 0
14, 15372, Note_off_c, 13, 44, 0
14, 16704, Note_on_c, 13, 37, 100
14, 16704, Note_on_c, 13, 81, 100
14, 16704, Note_on_c, 13, 105, 100
14, 16992, Note_off_c, 13, 105, 0
14, 16992, Note_on_c, 13, 105, 100
14, 17172, Note_off_c, 13, 81, 0
14, 17172, Note_on_c, 13, 81, 100
14, 17280, Note_off_c, 13, 37, 0
14, 17280, Note_on_c, 13, 37, 100
14, 17376, Note_off_c, 13, 105, 0
14, 17376, Note_on_c, 13, 105, 100
14, 18048, Note_off_c, 13, 81, 0
14, 18048, Note_off_c, 13, 37, 0
14, 18048, Note_off_c, 13, 105, 0
14, 18048, End_track
15, 0, Start_track
15, 0, Title_t, "Track 15\000"
15, 0, Program_c, 14, 70
15, 0, Control_c, 14, 7, 65
15, 0, Control_c, 14, 91, 127
15, 0, Control_c, 14, 93, 127
15, 15312, Note_on_c, 14, 40, 100
15, 15312, Note_on_c, 14, 64, 100
15, 15360, Note_off_c, 14, 40, 0
15, 15360, Note_off_c, 14, 64, 0
15, 15360, Note_on_c, 14, 38, 100
15, 15360, Note_on_c, 14, 62, 100
15, 15432, Note_off_c, 14, 38, 0
15, 15432, Note_on_c, 14, 37, 100
15, 15444, Note_off_c, 14, 62, 0
15, 15444, Note_on_c, 14, 61, 100
15, 15648, Note_off_c, 14, 37, 0
15, 15696, Note_off_c, 14, 61, 0
15, 15696, Note_on_c, 14, 40, 100
15, 15696, Note_on_c, 14, 64, 100
15, 15744, Note_off_c, 14, 40, 0
15, 15744, Note_off_c, 14, 64, 0
15, 15744, Note_on_c, 14, 38, 100
15, 15744, Note_on_c, 14, 62, 100
15, 15816, Note_off_c, 14, 38, 0
15, 15816, Note_on_c, 14, 37, 100
15, 15828, Note_off_c, 14, 62, 0
15, 15828, Note_on_c, 14, 61, 100
15, 16068, Note_off_c, 14, 37, 0
15, 16080, Note_on_c, 14, 40, 100
15, 16080, Note_on_c, 14, 64, 100
15, 16092, Note_off_c, 14, 61, 0
15, 16128, Note_off_c, 14, 40, 0
15, 16128, Note_off_c, 14, 64, 0
15, 16128, Note_on_c, 14, 38, 100
15, 16128, Note_on_c, 14, 62, 100
15, 16200, Note_off_c, 14, 38, 0
15, 16200, Note_on_c, 14, 37, 100
15, 16212, Note_off_c, 14, 62, 0
15, 16212, Note_on_c, 14, 61, 100
15, 16428, Note_off_c, 14, 37, 0
15, 16452, Note_off_c, 14, 61, 0
15, 16464, Note_on_c, 14, 40, 100
15, 16464, Note_on_c, 14, 64, 100
15, 16512, Note_off_c, 14, 40, 0
15, 16512, Note_off_c, 14, 64, 0
15, 16512, Note_on_c, 14, 38, 100
15, 16512, Note_on_c, 14, 62, 100
15, 16584, Note_off_c, 14, 38, 0
15, 16584, Note_on_c, 14, 37, 100
15, 16596, Note_off_c, 14, 62, 0
15, 16596, Note_on_c, 14, 61, 100
15, 16704, Note_off_c, 14, 37, 0
15, 16704, Note_off_c, 14, 61, 0
15, 16848, Note_on_c, 14, 40, 126
15, 16848, Note_on_c, 14, 64, 126
15, 16896, Note_off_c, 14, 40, 0
15, 16896, Note_off_c, 14, 64, 0
15, 16896, Note_on_c, 14, 38, 124
15, 16896, Note_on_c, 14, 62, 124
15, 16968, Note_off_c, 14, 38, 0
15, 16968, Note_on_c, 14, 37, 118
15, 16980, Note_off_c, 14, 62, 0
15, 16980, Note_on_c, 14, 61, 116
15, 17088, Note_off_c, 14, 37, 0
15, 17088, Note_off_c, 14, 61, 0
15, 17088, Note_on_c, 14, 36, 100
15, 17232, Note_off_c, 14, 36, 0
15, 17232, Note_on_c, 14, 40, 126
15, 17232, Note_on_c, 14, 64, 126
15, 17280, Note_off_c, 14, 40, 0
15, 17280, Note_off_c, 14, 64, 0
15, 17280, Note_on_c, 14, 38, 124
15, 17280, Note_on_c, 14, 62, 124
15, 17352, Note_off_c, 14, 38, 0
15, 17352, Note_on_c, 14, 37, 118
15, 17364, Note_off_c, 14, 62, 0
15, 17364, Note_on_c, 14, 61, 116
15, 17472, Note_off_c, 14, 37, 0
15, 17472, Note_off_c, 14, 61, 0
15, 17472, Note_on_c, 14, 36, 100
15, 17616, Note_off_c, 14, 36, 0
15, 17616, Note_on_c, 14, 40, 126
15, 17616, Note_on_c, 14, 64, 126
15, 17664, Note_off_c, 14, 40, 0
15, 17664, Note_off_c, 14, 64, 0
15, 17664, Note_on_c, 14, 38, 124
15, 17664, Note_on_c, 14, 62, 124
15, 17736, Note_off_c, 14, 38, 0
15, 17736, Note_on_c, 14, 37, 118
15, 17748, Note_off_c, 14, 62, 0
15, 17748, Note_on_c, 14, 61, 116
15, 17856, Note_off_c, 14, 37, 0
15, 17856, Note_off_c, 14, 61, 0
15, 17856, Note_on_c, 14, 36, 100
15, 18000, Note_off_c, 14, 36, 0
15, 18000, End_track
0, 0, End_of_file
