0, 0, Header, 1, 13, 384
1, 0, Start_track
1, 0, Time_signature, 4, 2, 96, 8
1, 0, Sequencer_specific, 3, 0, 0, 65
1, 0, Tempo, 759493
1, 0, End_track
2, 0, Start_track
2, 0, Title_t, "Polysynth "
2, 0, Control_c, 0, 0, 0
2, 0, Program_c, 0, 90
2, 0, Key_signature, 0, "major"
2, 3072, Note_on_c, 0, 65, 127
2, 3424, Note_off_c, 0, 65, 127
2, 3456, Note_on_c, 0, 63, 127
2, 3456, Note_on_c, 0, 70, 127
2, 3808, Note_off_c, 0, 63, 127
2, 3808, Note_off_c, 0, 70, 127
2, 3840, Note_on_c, 0, 62, 127
2, 3840, Note_on_c, 0, 69, 127
2, 4188, Note_off_c, 0, 62, 127
2, 4192, Note_off_c, 0, 69, 127
2, 4224, Note_on_c, 0, 63, 127
2, 4224, Note_on_c, 0, 70, 127
2, 4572, Note_off_c, 0, 63, 127
2, 4572, Note_off_c, 0, 70, 127
2, 4592, Note_on_c, 0, 60, 127
2, 4608, Note_on_c, 0, 67, 127
2, 5932, Note_off_c, 0, 60, 127
2, 5948, Note_off_c, 0, 67, 127
2, 6144, Note_on_c, 0, 65, 127
2, 6492, Note_off_c, 0, 65, 127
2, 6528, Note_on_c, 0, 53, 127
2, 6528, Note_on_c, 0, 63, 127
2, 6876, Note_off_c, 0, 63, 127
2, 6912, Note_on_c, 0, 61, 127
2, 7260, Note_off_c, 0, 61, 127
2, 7296, Note_on_c, 0, 59, 127
2, 7644, Note_off_c, 0, 59, 127
2, 7680, Note_off_c, 0, 53, 127
2, 7680, Note_on_c, 0, 66, 127
2, 8028, Note_off_c, 0, 66, 127
2, 8064, Note_on_c, 0, 64, 127
2, 8412, Note_off_c, 0, 64, 127
2, 8448, Note_on_c, 0, 53, 127
2, 8448, Note_on_c, 0, 62, 127
2, 8796, Note_off_c, 0, 62, 127
2, 8832, Note_on_c, 0, 60, 127
2, 9180, Note_off_c, 0, 60, 127
2, 9216, Note_on_c, 0, 65, 127
2, 9248, Note_off_c, 0, 53, 127
2, 9564, Note_off_c, 0, 65, 127
2, 9600, Note_on_c, 0, 55, 127
2, 9600, Note_on_c, 0, 63, 127
2, 9948, Note_off_c, 0, 63, 127
2, 9984, Note_on_c, 0, 62, 127
2, 10332, Note_off_c, 0, 62, 127
2, 10368, Note_on_c, 0, 60, 127
2, 10716, Note_off_c, 0, 60, 127
2, 10752, Note_off_c, 0, 55, 127
2, 10752, Note_on_c, 0, 66, 127
2, 11100, Note_off_c, 0, 66, 127
2, 11136, Note_on_c, 0, 64, 127
2, 12056, Note_off_c, 0, 64, 127
2, 12288, Note_on_c, 0, 66, 127
2, 12636, Note_off_c, 0, 66, 127
2, 12672, Note_on_c, 0, 64, 127
2, 13592, Note_off_c, 0, 64, 127
2, 13824, Note_on_c, 0, 63, 127
2, 14172, Note_off_c, 0, 63, 127
2, 14208, Note_on_c, 0, 64, 127
2, 15360, Note_on_c, 0, 63, 127
2, 15548, Note_off_c, 0, 64, 127
2, 16660, Note_off_c, 0, 63, 127
2, 16896, Note_on_c, 0, 65, 127
2, 17096, Note_off_c, 0, 65, 127
2, 17280, Note_on_c, 0, 63, 127
2, 17280, Note_on_c, 0, 70, 127
2, 17480, Note_off_c, 0, 63, 127
2, 17480, Note_off_c, 0, 70, 127
2, 17664, Note_on_c, 0, 62, 127
2, 17664, Note_on_c, 0, 69, 127
2, 18012, Note_off_c, 0, 62, 127
2, 18016, Note_off_c, 0, 69, 127
2, 18048, Note_on_c, 0, 63, 127
2, 18048, Note_on_c, 0, 70, 127
2, 18396, Note_off_c, 0, 63, 127
2, 18396, Note_off_c, 0, 70, 127
2, 18416, Note_on_c, 0, 60, 127
2, 18432, Note_on_c, 0, 67, 127
2, 19756, Note_off_c, 0, 60, 127
2, 19772, Note_off_c, 0, 67, 127
2, 19968, Note_on_c, 0, 65, 127
2, 20316, Note_off_c, 0, 65, 127
2, 20352, Note_on_c, 0, 53, 127
2, 20352, Note_on_c, 0, 63, 127
2, 20700, Note_off_c, 0, 63, 127
2, 20736, Note_on_c, 0, 61, 127
2, 21084, Note_off_c, 0, 61, 127
2, 21120, Note_on_c, 0, 59, 127
2, 21468, Note_off_c, 0, 59, 127
2, 21504, Note_off_c, 0, 53, 127
2, 21504, Note_on_c, 0, 66, 127
2, 21852, Note_off_c, 0, 66, 127
2, 21888, Note_on_c, 0, 53, 127
2, 21888, Note_on_c, 0, 64, 127
2, 22236, Note_off_c, 0, 64, 127
2, 22272, Note_on_c, 0, 62, 127
2, 22620, Note_off_c, 0, 62, 127
2, 22656, Note_on_c, 0, 60, 127
2, 23004, Note_off_c, 0, 60, 127
2, 23040, Note_off_c, 0, 53, 127
2, 23040, Note_on_c, 0, 65, 127
2, 23388, Note_off_c, 0, 65, 127
2, 23424, Note_on_c, 0, 55, 127
2, 23424, Note_on_c, 0, 63, 127
2, 23772, Note_off_c, 0, 63, 127
2, 23808, Note_on_c, 0, 62, 127
2, 24156, Note_off_c, 0, 62, 127
2, 24192, Note_on_c, 0, 60, 127
2, 24540, Note_off_c, 0, 60, 127
2, 24576, Note_off_c, 0, 55, 127
2, 24576, Note_on_c, 0, 66, 127
2, 24924, Note_off_c, 0, 66, 127
2, 24960, Note_on_c, 0, 64, 127
2, 25880, Note_off_c, 0, 64, 127
2, 26112, Note_on_c, 0, 66, 127
2, 26460, Note_off_c, 0, 66, 127
2, 26496, Note_on_c, 0, 64, 127
2, 27416, Note_off_c, 0, 64, 127
2, 27648, Note_on_c, 0, 63, 127
2, 27996, Note_off_c, 0, 63, 127
2, 28032, Note_on_c, 0, 64, 127
2, 29184, Note_on_c, 0, 63, 127
2, 29372, Note_off_c, 0, 64, 127
2, 30484, Note_off_c, 0, 63, 127
2, 30720, Note_on_c, 0, 47, 127
2, 30720, Note_on_c, 0, 54, 127
2, 30920, Note_off_c, 0, 47, 127
2, 30920, Note_off_c, 0, 54, 127
2, 31104, Note_on_c, 0, 52, 127
2, 32256, Note_on_c, 0, 39, 127
2, 32304, Note_off_c, 0, 52, 127
2, 32604, Note_off_c, 0, 39, 127
2, 32640, Note_on_c, 0, 40, 127
2, 33740, Note_off_c, 0, 40, 127
2, 33792, Note_on_c, 0, 47, 127
2, 33792, Note_on_c, 0, 54, 127
2, 33992, Note_off_c, 0, 47, 127
2, 33992, Note_off_c, 0, 54, 127
2, 34176, Note_on_c, 0, 52, 127
2, 35328, Note_on_c, 0, 39, 127
2, 35376, Note_off_c, 0, 52, 127
2, 35676, Note_off_c, 0, 39, 127
2, 35712, Note_on_c, 0, 40, 127
2, 36812, Note_off_c, 0, 40, 127
2, 36864, Note_on_c, 0, 47, 127
2, 36864, Note_on_c, 0, 54, 127
2, 37064, Note_off_c, 0, 47, 127
2, 37064, Note_off_c, 0, 54, 127
2, 37248, Note_on_c, 0, 52, 127
2, 38400, Note_on_c, 0, 39, 127
2, 38448, Note_off_c, 0, 52, 127
2, 38748, Note_off_c, 0, 39, 127
2, 38784, Note_on_c, 0, 40, 127
2, 39884, Note_off_c, 0, 40, 127
2, 39936, Note_on_c, 0, 47, 127
2, 39936, Note_on_c, 0, 54, 127
2, 40136, Note_off_c, 0, 47, 127
2, 40136, Note_off_c, 0, 54, 127
2, 40320, Note_on_c, 0, 52, 127
2, 41472, Note_on_c, 0, 39, 127
2, 41520, Note_off_c, 0, 52, 127
2, 41820, Note_off_c, 0, 39, 127
2, 41856, Note_on_c, 0, 40, 127
2, 42956, Note_off_c, 0, 40, 127
2, 43008, Note_on_c, 0, 47, 127
2, 43008, Note_on_c, 0, 54, 127
2, 43208, Note_off_c, 0, 47, 127
2, 43208, Note_off_c, 0, 54, 127
2, 43392, Note_on_c, 0, 52, 127
2, 44544, Note_on_c, 0, 39, 127
2, 44592, Note_off_c, 0, 52, 127
2, 44892, Note_off_c, 0, 39, 127
2, 44928, Note_on_c, 0, 40, 127
2, 46028, Note_off_c, 0, 40, 127
2, 46080, Note_on_c, 0, 47, 127
2, 46080, Note_on_c, 0, 54, 127
2, 46280, Note_off_c, 0, 47, 127
2, 46280, Note_off_c, 0, 54, 127
2, 46464, Note_on_c, 0, 52, 127
2, 47664, Note_off_c, 0, 52, 127
2, 47664, End_track
3, 0, Start_track
3, 0, Title_t, "BowGlass"
3, 0, Control_c, 1, 0, 0
3, 0, Program_c, 1, 92
3, 0, Key_signature, 0, "major"
3, 3072, Note_on_c, 1, 65, 49
3, 3424, Note_off_c, 1, 65, 49
3, 3456, Note_on_c, 1, 63, 60
3, 3456, Note_on_c, 1, 70, 60
3, 3808, Note_off_c, 1, 63, 60
3, 3808, Note_off_c, 1, 70, 60
3, 3840, Note_on_c, 1, 62, 72
3, 3840, Note_on_c, 1, 69, 72
3, 4188, Note_off_c, 1, 62, 72
3, 4192, Note_off_c, 1, 69, 72
3, 4224, Note_on_c, 1, 63, 69
3, 4224, Note_on_c, 1, 70, 69
3, 4572, Note_off_c, 1, 63, 69
3, 4572, Note_off_c, 1, 70, 69
3, 4592, Note_on_c, 1, 60, 83
3, 4608, Note_on_c, 1, 67, 83
3, 5932, Note_off_c, 1, 60, 83
3, 5948, Note_off_c, 1, 67, 83
3, 6144, Note_on_c, 1, 65, 73
3, 6492, Note_off_c, 1, 65, 73
3, 6528, Note_on_c, 1, 53, 81
3, 6528, Note_on_c, 1, 63, 81
3, 6876, Note_off_c, 1, 63, 81
3, 6912, Note_on_c, 1, 61, 81
3, 7260, Note_off_c, 1, 61, 81
3, 7296, Note_on_c, 1, 59, 87
3, 7644, Note_off_c, 1, 59, 87
3, 7680, Note_off_c, 1, 53, 81
3, 7680, Note_on_c, 1, 66, 73
3, 8028, Note_off_c, 1, 66, 73
3, 8064, Note_on_c, 1, 64, 81
3, 8412, Note_off_c, 1, 64, 81
3, 8448, Note_on_c, 1, 53, 81
3, 8448, Note_on_c, 1, 62, 81
3, 8796, Note_off_c, 1, 62, 81
3, 8832, Note_on_c, 1, 60, 87
3, 9180, Note_off_c, 1, 60, 87
3, 9216, Note_on_c, 1, 65, 73
3, 9248, Note_off_c, 1, 53, 81
3, 9564, Note_off_c, 1, 65, 73
3, 9600, Note_on_c, 1, 55, 81
3, 9600, Note_on_c, 1, 63, 73
3, 9948, Note_off_c, 1, 63, 73
3, 9984, Note_on_c, 1, 62, 73
3, 10332, Note_off_c, 1, 62, 73
3, 10368, Note_on_c, 1, 60, 73
3, 10716, Note_off_c, 1, 60, 73
3, 10752, Note_off_c, 1, 55, 81
3, 10752, Note_on_c, 1, 66, 83
3, 11100, Note_off_c, 1, 66, 83
3, 11136, Note_on_c, 1, 64, 96
3, 12056, Note_off_c, 1, 64, 96
3, 12288, Note_on_c, 1, 66, 83
3, 12636, Note_off_c, 1, 66, 83
3, 12672, Note_on_c, 1, 64, 96
3, 13592, Note_off_c, 1, 64, 96
3, 13824, Note_on_c, 1, 63, 88
3, 14172, Note_off_c, 1, 63, 88
3, 14208, Note_on_c, 1, 64, 104
3, 15360, Note_on_c, 1, 63, 49
3, 15548, Note_off_c, 1, 64, 104
3, 16660, Note_off_c, 1, 63, 49
3, 16896, Note_on_c, 1, 65, 49
3, 17096, Note_off_c, 1, 65, 49
3, 17280, Note_on_c, 1, 63, 60
3, 17280, Note_on_c, 1, 70, 60
3, 17480, Note_off_c, 1, 63, 60
3, 17480, Note_off_c, 1, 70, 60
3, 17664, Note_on_c, 1, 62, 72
3, 17664, Note_on_c, 1, 69, 72
3, 18012, Note_off_c, 1, 62, 72
3, 18016, Note_off_c, 1, 69, 72
3, 18048, Note_on_c, 1, 63, 69
3, 18048, Note_on_c, 1, 70, 69
3, 18396, Note_off_c, 1, 63, 69
3, 18396, Note_off_c, 1, 70, 69
3, 18416, Note_on_c, 1, 60, 83
3, 18432, Note_on_c, 1, 67, 83
3, 19756, Note_off_c, 1, 60, 83
3, 19772, Note_off_c, 1, 67, 83
3, 19968, Note_on_c, 1, 65, 73
3, 20316, Note_off_c, 1, 65, 73
3, 20352, Note_on_c, 1, 53, 81
3, 20352, Note_on_c, 1, 63, 81
3, 20700, Note_off_c, 1, 63, 81
3, 20736, Note_on_c, 1, 61, 81
3, 21084, Note_off_c, 1, 61, 81
3, 21120, Note_on_c, 1, 59, 87
3, 21468, Note_off_c, 1, 59, 87
3, 21504, Note_off_c, 1, 53, 81
3, 21504, Note_on_c, 1, 66, 73
3, 21852, Note_off_c, 1, 66, 73
3, 21888, Note_on_c, 1, 53, 81
3, 21888, Note_on_c, 1, 64, 81
3, 22236, Note_off_c, 1, 64, 81
3, 22272, Note_on_c, 1, 62, 81
3, 22620, Note_off_c, 1, 62, 81
3, 22656, Note_on_c, 1, 60, 87
3, 23004, Note_off_c, 1, 60, 87
3, 23040, Note_off_c, 1, 53, 81
3, 23040, Note_on_c, 1, 65, 73
3, 23388, Note_off_c, 1, 65, 73
3, 23424, Note_on_c, 1, 55, 81
3, 23424, Note_on_c, 1, 63, 73
3, 23772, Note_off_c, 1, 63, 73
3, 23808, Note_on_c, 1, 62, 73
3, 24156, Note_off_c, 1, 62, 73
3, 24192, Note_on_c, 1, 60, 73
3, 24540, Note_off_c, 1, 60, 73
3, 24576, Note_off_c, 1, 55, 81
3, 24576, Note_on_c, 1, 66, 83
3, 24924, Note_off_c, 1, 66, 83
3, 24960, Note_on_c, 1, 64, 96
3, 25880, Note_off_c, 1, 64, 96
3, 26112, Note_on_c, 1, 66, 83
3, 26460, Note_off_c, 1, 66, 83
3, 26496, Note_on_c, 1, 64, 96
3, 27416, Note_off_c, 1, 64, 96
3, 27648, Note_on_c, 1, 63, 88
3, 27996, Note_off_c, 1, 63, 88
3, 28032, Note_on_c, 1, 64, 104
3, 29184, Note_on_c, 1, 63, 49
3, 29372, Note_off_c, 1, 64, 104
3, 30484, Note_off_c, 1, 63, 49
3, 30720, Note_on_c, 1, 47, 49
3, 30720, Note_on_c, 1, 54, 49
3, 30920, Note_off_c, 1, 47, 49
3, 30920, Note_off_c, 1, 54, 49
3, 31104, Note_on_c, 1, 52, 49
3, 32256, Note_on_c, 1, 39, 49
3, 32304, Note_off_c, 1, 52, 49
3, 32604, Note_off_c, 1, 39, 49
3, 32640, Note_on_c, 1, 40, 49
3, 33740, Note_off_c, 1, 40, 49
3, 33792, Note_on_c, 1, 47, 49
3, 33792, Note_on_c, 1, 54, 49
3, 33992, Note_off_c, 1, 47, 49
3, 33992, Note_off_c, 1, 54, 49
3, 34176, Note_on_c, 1, 52, 49
3, 35328, Note_on_c, 1, 39, 49
3, 35376, Note_off_c, 1, 52, 49
3, 35676, Note_off_c, 1, 39, 49
3, 35712, Note_on_c, 1, 40, 49
3, 36812, Note_off_c, 1, 40, 49
3, 36864, Note_on_c, 1, 47, 49
3, 36864, Note_on_c, 1, 54, 49
3, 37064, Note_off_c, 1, 47, 49
3, 37064, Note_off_c, 1, 54, 49
3, 37248, Note_on_c, 1, 52, 49
3, 38400, Note_on_c, 1, 39, 49
3, 38448, Note_off_c, 1, 52, 49
3, 38748, Note_off_c, 1, 39, 49
3, 38784, Note_on_c, 1, 40, 49
3, 39884, Note_off_c, 1, 40, 49
3, 39936, Note_on_c, 1, 47, 49
3, 39936, Note_on_c, 1, 54, 49
3, 40136, Note_off_c, 1, 47, 49
3, 40136, Note_off_c, 1, 54, 49
3, 40320, Note_on_c, 1, 52, 49
3, 41472, Note_on_c, 1, 39, 49
3, 41520, Note_off_c, 1, 52, 49
3, 41820, Note_off_c, 1, 39, 49
3, 41856, Note_on_c, 1, 40, 49
3, 42956, Note_off_c, 1, 40, 49
3, 43008, Note_on_c, 1, 47, 49
3, 43008, Note_on_c, 1, 54, 49
3, 43208, Note_off_c, 1, 47, 49
3, 43208, Note_off_c, 1, 54, 49
3, 43392, Note_on_c, 1, 52, 49
3, 44544, Note_on_c, 1, 39, 49
3, 44592, Note_off_c, 1, 52, 49
3, 44892, Note_off_c, 1, 39, 49
3, 44928, Note_on_c, 1, 40, 49
3, 46028, Note_off_c, 1, 40, 49
3, 46080, Note_on_c, 1, 47, 49
3, 46080, Note_on_c, 1, 54, 49
3, 46280, Note_off_c, 1, 47, 49
3, 46280, Note_off_c, 1, 54, 49
3, 46464, Note_on_c, 1, 52, 49
3, 47664, Note_off_c, 1, 52, 49
3, 47664, End_track
4, 0, Start_track
4, 0, Title_t, "StrSyn2"
4, 0, Control_c, 2, 0, 0
4, 0, Program_c, 2, 51
4, 0, Key_signature, 0, "major"
4, 3072, Note_on_c, 2, 39, 109
4, 3072, Note_on_c, 2, 51, 109
4, 3572, Note_off_c, 2, 39, 109
4, 3572, Note_off_c, 2, 51, 109
4, 3648, Note_on_c, 2, 51, 109
4, 3648, Note_on_c, 2, 39, 109
4, 3840, Note_on_c, 2, 51, 109
4, 3840, Note_on_c, 2, 39, 109
4, 3848, Note_off_c, 2, 51, 109
4, 3848, Note_off_c, 2, 39, 109
4, 4488, Note_off_c, 2, 51, 109
4, 4488, Note_off_c, 2, 39, 109
4, 4608, Note_on_c, 2, 48, 109
4, 4608, Note_on_c, 2, 36, 109
4, 5156, Note_off_c, 2, 48, 109
4, 5156, Note_off_c, 2, 36, 109
4, 5184, Note_on_c, 2, 48, 109
4, 5184, Note_on_c, 2, 36, 109
4, 5376, Note_on_c, 2, 48, 109
4, 5376, Note_on_c, 2, 36, 109
4, 5384, Note_off_c, 2, 48, 109
4, 5384, Note_off_c, 2, 36, 109
4, 6024, Note_off_c, 2, 48, 109
4, 6024, Note_off_c, 2, 36, 109
4, 6144, Note_on_c, 2, 49, 109
4, 6144, Note_on_c, 2, 37, 109
4, 6644, Note_off_c, 2, 49, 109
4, 6644, Note_off_c, 2, 37, 109
4, 6720, Note_on_c, 2, 49, 109
4, 6720, Note_on_c, 2, 37, 109
4, 6912, Note_on_c, 2, 49, 109
4, 6912, Note_on_c, 2, 37, 109
4, 6920, Note_off_c, 2, 49, 109
4, 6920, Note_off_c, 2, 37, 109
4, 7560, Note_off_c, 2, 49, 109
4, 7560, Note_off_c, 2, 37, 109
4, 7680, Note_on_c, 2, 47, 109
4, 7680, Note_on_c, 2, 38, 109
4, 8180, Note_off_c, 2, 47, 109
4, 8180, Note_off_c, 2, 38, 109
4, 8256, Note_on_c, 2, 50, 109
4, 8256, Note_on_c, 2, 38, 109
4, 8448, Note_on_c, 2, 50, 109
4, 8448, Note_on_c, 2, 38, 109
4, 8456, Note_off_c, 2, 50, 109
4, 8456, Note_off_c, 2, 38, 109
4, 9096, Note_off_c, 2, 50, 109
4, 9096, Note_off_c, 2, 38, 109
4, 9216, Note_on_c, 2, 50, 109
4, 9216, Note_on_c, 2, 38, 109
4, 9716, Note_off_c, 2, 50, 109
4, 9716, Note_off_c, 2, 38, 109
4, 9792, Note_on_c, 2, 50, 109
4, 9792, Note_on_c, 2, 38, 109
4, 9984, Note_on_c, 2, 50, 109
4, 9984, Note_on_c, 2, 38, 109
4, 9992, Note_off_c, 2, 50, 109
4, 9992, Note_off_c, 2, 38, 109
4, 10632, Note_off_c, 2, 50, 109
4, 10632, Note_off_c, 2, 38, 109
4, 10752, Note_on_c, 2, 51, 109
4, 10752, Note_on_c, 2, 39, 109
4, 11300, Note_off_c, 2, 51, 109
4, 11300, Note_off_c, 2, 39, 109
4, 11328, Note_on_c, 2, 51, 109
4, 11328, Note_on_c, 2, 39, 109
4, 11520, Note_on_c, 2, 51, 109
4, 11520, Note_on_c, 2, 39, 109
4, 11528, Note_off_c, 2, 51, 109
4, 11528, Note_off_c, 2, 39, 109
4, 12168, Note_off_c, 2, 51, 109
4, 12168, Note_off_c, 2, 39, 109
4, 12288, Note_on_c, 2, 52, 109
4, 12288, Note_on_c, 2, 40, 109
4, 12836, Note_off_c, 2, 52, 109
4, 12836, Note_off_c, 2, 40, 109
4, 12864, Note_on_c, 2, 52, 109
4, 12864, Note_on_c, 2, 40, 109
4, 13056, Note_on_c, 2, 52, 109
4, 13056, Note_on_c, 2, 40, 109
4, 13064, Note_off_c, 2, 52, 109
4, 13064, Note_off_c, 2, 40, 109
4, 13704, Note_off_c, 2, 52, 109
4, 13704, Note_off_c, 2, 40, 109
4, 13824, Note_on_c, 2, 52, 109
4, 13824, Note_on_c, 2, 40, 109
4, 14372, Note_off_c, 2, 52, 109
4, 14372, Note_off_c, 2, 40, 109
4, 14400, Note_on_c, 2, 52, 109
4, 14400, Note_on_c, 2, 40, 109
4, 14592, Note_on_c, 2, 52, 109
4, 14592, Note_on_c, 2, 40, 109
4, 14600, Note_off_c, 2, 52, 109
4, 14600, Note_off_c, 2, 40, 109
4, 15240, Note_off_c, 2, 52, 109
4, 15240, Note_off_c, 2, 40, 109
4, 15360, Note_on_c, 2, 52, 109
4, 15360, Note_on_c, 2, 40, 109
4, 15908, Note_off_c, 2, 52, 109
4, 15908, Note_off_c, 2, 40, 109
4, 15936, Note_on_c, 2, 52, 109
4, 15936, Note_on_c, 2, 40, 109
4, 16128, Note_on_c, 2, 52, 109
4, 16128, Note_on_c, 2, 40, 109
4, 16136, Note_off_c, 2, 52, 109
4, 16136, Note_off_c, 2, 40, 109
4, 16776, Note_off_c, 2, 52, 109
4, 16776, Note_off_c, 2, 40, 109
4, 16896, Note_on_c, 2, 39, 109
4, 16896, Note_on_c, 2, 51, 109
4, 17396, Note_off_c, 2, 39, 109
4, 17396, Note_off_c, 2, 51, 109
4, 17472, Note_on_c, 2, 51, 109
4, 17472, Note_on_c, 2, 39, 109
4, 17664, Note_on_c, 2, 51, 109
4, 17664, Note_on_c, 2, 39, 109
4, 17672, Note_off_c, 2, 51, 109
4, 17672, Note_off_c, 2, 39, 109
4, 18312, Note_off_c, 2, 51, 109
4, 18312, Note_off_c, 2, 39, 109
4, 18432, Note_on_c, 2, 48, 109
4, 18432, Note_on_c, 2, 36, 109
4, 18980, Note_off_c, 2, 48, 109
4, 18980, Note_off_c, 2, 36, 109
4, 19008, Note_on_c, 2, 48, 109
4, 19008, Note_on_c, 2, 36, 109
4, 19200, Note_on_c, 2, 48, 109
4, 19200, Note_on_c, 2, 36, 109
4, 19208, Note_off_c, 2, 48, 109
4, 19208, Note_off_c, 2, 36, 109
4, 19848, Note_off_c, 2, 48, 109
4, 19848, Note_off_c, 2, 36, 109
4, 19968, Note_on_c, 2, 49, 109
4, 19968, Note_on_c, 2, 37, 109
4, 20468, Note_off_c, 2, 49, 109
4, 20468, Note_off_c, 2, 37, 109
4, 20544, Note_on_c, 2, 49, 109
4, 20544, Note_on_c, 2, 37, 109
4, 20736, Note_on_c, 2, 49, 109
4, 20736, Note_on_c, 2, 37, 109
4, 20744, Note_off_c, 2, 49, 109
4, 20744, Note_off_c, 2, 37, 109
4, 21384, Note_off_c, 2, 49, 109
4, 21384, Note_off_c, 2, 37, 109
4, 21504, Note_on_c, 2, 47, 109
4, 21504, Note_on_c, 2, 38, 109
4, 22004, Note_off_c, 2, 47, 109
4, 22004, Note_off_c, 2, 38, 109
4, 22080, Note_on_c, 2, 50, 109
4, 22080, Note_on_c, 2, 38, 109
4, 22272, Note_on_c, 2, 50, 109
4, 22272, Note_on_c, 2, 38, 109
4, 22280, Note_off_c, 2, 50, 109
4, 22280, Note_off_c, 2, 38, 109
4, 22920, Note_off_c, 2, 50, 109
4, 22920, Note_off_c, 2, 38, 109
4, 23040, Note_on_c, 2, 50, 109
4, 23040, Note_on_c, 2, 38, 109
4, 23540, Note_off_c, 2, 50, 109
4, 23540, Note_off_c, 2, 38, 109
4, 23616, Note_on_c, 2, 50, 109
4, 23616, Note_on_c, 2, 38, 109
4, 23808, Note_on_c, 2, 50, 109
4, 23808, Note_on_c, 2, 38, 109
4, 23816, Note_off_c, 2, 50, 109
4, 23816, Note_off_c, 2, 38, 109
4, 24456, Note_off_c, 2, 50, 109
4, 24456, Note_off_c, 2, 38, 109
4, 24576, Note_on_c, 2, 51, 109
4, 24576, Note_on_c, 2, 39, 109
4, 25124, Note_off_c, 2, 51, 109
4, 25124, Note_off_c, 2, 39, 109
4, 25152, Note_on_c, 2, 51, 109
4, 25152, Note_on_c, 2, 39, 109
4, 25344, Note_on_c, 2, 51, 109
4, 25344, Note_on_c, 2, 39, 109
4, 25352, Note_off_c, 2, 51, 109
4, 25352, Note_off_c, 2, 39, 109
4, 25992, Note_off_c, 2, 51, 109
4, 25992, Note_off_c, 2, 39, 109
4, 26112, Note_on_c, 2, 52, 109
4, 26112, Note_on_c, 2, 40, 109
4, 26660, Note_off_c, 2, 52, 109
4, 26660, Note_off_c, 2, 40, 109
4, 26688, Note_on_c, 2, 52, 109
4, 26688, Note_on_c, 2, 40, 109
4, 26880, Note_on_c, 2, 52, 109
4, 26880, Note_on_c, 2, 40, 109
4, 26888, Note_off_c, 2, 52, 109
4, 26888, Note_off_c, 2, 40, 109
4, 27528, Note_off_c, 2, 52, 109
4, 27528, Note_off_c, 2, 40, 109
4, 27648, Note_on_c, 2, 52, 109
4, 27648, Note_on_c, 2, 40, 109
4, 28196, Note_off_c, 2, 52, 109
4, 28196, Note_off_c, 2, 40, 109
4, 28224, Note_on_c, 2, 52, 109
4, 28224, Note_on_c, 2, 40, 109
4, 28416, Note_on_c, 2, 52, 109
4, 28416, Note_on_c, 2, 40, 109
4, 28424, Note_off_c, 2, 52, 109
4, 28424, Note_off_c, 2, 40, 109
4, 29064, Note_off_c, 2, 52, 109
4, 29064, Note_off_c, 2, 40, 109
4, 29184, Note_on_c, 2, 52, 109
4, 29184, Note_on_c, 2, 40, 109
4, 29732, Note_off_c, 2, 52, 109
4, 29732, Note_off_c, 2, 40, 109
4, 29760, Note_on_c, 2, 52, 109
4, 29760, Note_on_c, 2, 40, 109
4, 29952, Note_on_c, 2, 52, 109
4, 29952, Note_on_c, 2, 40, 109
4, 29960, Note_off_c, 2, 52, 109
4, 29960, Note_off_c, 2, 40, 109
4, 30600, Note_off_c, 2, 52, 109
4, 30600, Note_off_c, 2, 40, 109
4, 30720, Note_on_c, 2, 52, 109
4, 30720, Note_on_c, 2, 40, 109
4, 31296, Note_on_c, 2, 52, 109
4, 31296, Note_on_c, 2, 40, 109
4, 31320, Note_off_c, 2, 52, 109
4, 31320, Note_off_c, 2, 40, 109
4, 31488, Note_on_c, 2, 52, 109
4, 31488, Note_on_c, 2, 40, 109
4, 31496, Note_off_c, 2, 52, 109
4, 31496, Note_off_c, 2, 40, 109
4, 32136, Note_off_c, 2, 52, 109
4, 32136, Note_off_c, 2, 40, 109
4, 32256, Note_on_c, 2, 40, 109
4, 32804, Note_off_c, 2, 40, 109
4, 32832, Note_on_c, 2, 40, 109
4, 33024, Note_on_c, 2, 40, 109
4, 33032, Note_off_c, 2, 40, 109
4, 33672, Note_off_c, 2, 40, 109
4, 33792, Note_on_c, 2, 52, 109
4, 33792, Note_on_c, 2, 40, 109
4, 34368, Note_on_c, 2, 52, 109
4, 34368, Note_on_c, 2, 40, 109
4, 34392, Note_off_c, 2, 52, 109
4, 34392, Note_off_c, 2, 40, 109
4, 34560, Note_on_c, 2, 52, 109
4, 34560, Note_on_c, 2, 40, 109
4, 34568, Note_off_c, 2, 52, 109
4, 34568, Note_off_c, 2, 40, 109
4, 35208, Note_off_c, 2, 52, 109
4, 35208, Note_off_c, 2, 40, 109
4, 35328, Note_on_c, 2, 40, 109
4, 35876, Note_off_c, 2, 40, 109
4, 35904, Note_on_c, 2, 40, 109
4, 36096, Note_on_c, 2, 40, 109
4, 36104, Note_off_c, 2, 40, 109
4, 36744, Note_off_c, 2, 40, 109
4, 36864, Note_on_c, 2, 52, 109
4, 36864, Note_on_c, 2, 40, 109
4, 37440, Note_on_c, 2, 52, 109
4, 37440, Note_on_c, 2, 40, 109
4, 37464, Note_off_c, 2, 52, 109
4, 37464, Note_off_c, 2, 40, 109
4, 37632, Note_on_c, 2, 52, 109
4, 37632, Note_on_c, 2, 40, 109
4, 37640, Note_off_c, 2, 52, 109
4, 37640, Note_off_c, 2, 40, 109
4, 38280, Note_off_c, 2, 52, 109
4, 38280, Note_off_c, 2, 40, 109
4, 38400, Note_on_c, 2, 40, 109
4, 38948, Note_off_c, 2, 40, 109
4, 38976, Note_on_c, 2, 40, 109
4, 39168, Note_on_c, 2, 40, 109
4, 39176, Note_off_c, 2, 40, 109
4, 39816, Note_off_c, 2, 40, 109
4, 39936, Note_on_c, 2, 52, 109
4, 39936, Note_on_c, 2, 40, 109
4, 40512, Note_on_c, 2, 52, 109
4, 40512, Note_on_c, 2, 40, 109
4, 40536, Note_off_c, 2, 52, 109
4, 40536, Note_off_c, 2, 40, 109
4, 40704, Note_on_c, 2, 52, 109
4, 40704, Note_on_c, 2, 40, 109
4, 40712, Note_off_c, 2, 52, 109
4, 40712, Note_off_c, 2, 40, 109
4, 41352, Note_off_c, 2, 52, 109
4, 41352, Note_off_c, 2, 40, 109
4, 41472, Note_on_c, 2, 40, 109
4, 42020, Note_off_c, 2, 40, 109
4, 42048, Note_on_c, 2, 40, 109
4, 42240, Note_on_c, 2, 40, 109
4, 42248, Note_off_c, 2, 40, 109
4, 42888, Note_off_c, 2, 40, 109
4, 43008, Note_on_c, 2, 52, 109
4, 43008, Note_on_c, 2, 40, 109
4, 43584, Note_on_c, 2, 52, 109
4, 43584, Note_on_c, 2, 40, 109
4, 43608, Note_off_c, 2, 52, 109
4, 43608, Note_off_c, 2, 40, 109
4, 43776, Note_on_c, 2, 52, 109
4, 43776, Note_on_c, 2, 40, 109
4, 43784, Note_off_c, 2, 52, 109
4, 43784, Note_off_c, 2, 40, 109
4, 44424, Note_off_c, 2, 52, 109
4, 44424, Note_off_c, 2, 40, 109
4, 44544, Note_on_c, 2, 40, 109
4, 45092, Note_off_c, 2, 40, 109
4, 45120, Note_on_c, 2, 40, 109
4, 45312, Note_on_c, 2, 40, 109
4, 45320, Note_off_c, 2, 40, 109
4, 45960, Note_off_c, 2, 40, 109
4, 46080, Note_on_c, 2, 52, 109
4, 46080, Note_on_c, 2, 40, 109
4, 46656, Note_on_c, 2, 52, 109
4, 46656, Note_on_c, 2, 40, 109
4, 46680, Note_off_c, 2, 52, 109
4, 46680, Note_off_c, 2, 40, 109
4, 46848, Note_on_c, 2, 52, 109
4, 46848, Note_on_c, 2, 40, 109
4, 46856, Note_off_c, 2, 52, 109
4, 46856, Note_off_c, 2, 40, 109
4, 47496, Note_off_c, 2, 52, 109
4, 47496, Note_off_c, 2, 40, 109
4, 47496, End_track
5, 0, Start_track
5, 0, Title_t, "GrandPiano"
5, 0, Control_c, 3, 0, 0
5, 0, Program_c, 3, 0
5, 0, Key_signature, 0, "major"
5, 3072, Note_on_c, 3, 39, 98
5, 3072, Note_on_c, 3, 51, 98
5, 3572, Note_off_c, 3, 39, 98
5, 3572, Note_off_c, 3, 51, 98
5, 3648, Note_on_c, 3, 51, 98
5, 3648, Note_on_c, 3, 39, 98
5, 3840, Note_on_c, 3, 51, 98
5, 3840, Note_on_c, 3, 39, 98
5, 3848, Note_off_c, 3, 51, 98
5, 3848, Note_off_c, 3, 39, 98
5, 4488, Note_off_c, 3, 51, 98
5, 4488, Note_off_c, 3, 39, 98
5, 4608, Note_on_c, 3, 48, 98
5, 4608, Note_on_c, 3, 36, 98
5, 5156, Note_off_c, 3, 48, 98
5, 5156, Note_off_c, 3, 36, 98
5, 5184, Note_on_c, 3, 48, 98
5, 5184, Note_on_c, 3, 36, 98
5, 5376, Note_on_c, 3, 48, 98
5, 5376, Note_on_c, 3, 36, 98
5, 5384, Note_off_c, 3, 48, 98
5, 5384, Note_off_c, 3, 36, 98
5, 6024, Note_off_c, 3, 48, 98
5, 6024, Note_off_c, 3, 36, 98
5, 6144, Note_on_c, 3, 49, 98
5, 6144, Note_on_c, 3, 37, 98
5, 6644, Note_off_c, 3, 49, 98
5, 6644, Note_off_c, 3, 37, 98
5, 6720, Note_on_c, 3, 49, 98
5, 6720, Note_on_c, 3, 37, 98
5, 6912, Note_on_c, 3, 49, 98
5, 6912, Note_on_c, 3, 37, 98
5, 6920, Note_off_c, 3, 49, 98
5, 6920, Note_off_c, 3, 37, 98
5, 7560, Note_off_c, 3, 49, 98
5, 7560, Note_off_c, 3, 37, 98
5, 7680, Note_on_c, 3, 47, 98
5, 7680, Note_on_c, 3, 38, 98
5, 8180, Note_off_c, 3, 47, 98
5, 8180, Note_off_c, 3, 38, 98
5, 8256, Note_on_c, 3, 50, 98
5, 8256, Note_on_c, 3, 38, 98
5, 8448, Note_on_c, 3, 50, 98
5, 8448, Note_on_c, 3, 38, 98
5, 8456, Note_off_c, 3, 50, 98
5, 8456, Note_off_c, 3, 38, 98
5, 9096, Note_off_c, 3, 50, 98
5, 9096, Note_off_c, 3, 38, 98
5, 9216, Note_on_c, 3, 50, 98
5, 9216, Note_on_c, 3, 38, 98
5, 9716, Note_off_c, 3, 50, 98
5, 9716, Note_off_c, 3, 38, 98
5, 9792, Note_on_c, 3, 50, 98
5, 9792, Note_on_c, 3, 38, 98
5, 9984, Note_on_c, 3, 50, 98
5, 9984, Note_on_c, 3, 38, 98
5, 9992, Note_off_c, 3, 50, 98
5, 9992, Note_off_c, 3, 38, 98
5, 10632, Note_off_c, 3, 50, 98
5, 10632, Note_off_c, 3, 38, 98
5, 10752, Note_on_c, 3, 51, 98
5, 10752, Note_on_c, 3, 39, 98
5, 11300, Note_off_c, 3, 51, 98
5, 11300, Note_off_c, 3, 39, 98
5, 11328, Note_on_c, 3, 51, 98
5, 11328, Note_on_c, 3, 39, 98
5, 11520, Note_on_c, 3, 51, 98
5, 11520, Note_on_c, 3, 39, 98
5, 11528, Note_off_c, 3, 51, 98
5, 11528, Note_off_c, 3, 39, 98
5, 12168, Note_off_c, 3, 51, 98
5, 12168, Note_off_c, 3, 39, 98
5, 12288, Note_on_c, 3, 52, 98
5, 12288, Note_on_c, 3, 40, 98
5, 12836, Note_off_c, 3, 52, 98
5, 12836, Note_off_c, 3, 40, 98
5, 12864, Note_on_c, 3, 52, 98
5, 12864, Note_on_c, 3, 40, 98
5, 13056, Note_on_c, 3, 52, 98
5, 13056, Note_on_c, 3, 40, 98
5, 13064, Note_off_c, 3, 52, 98
5, 13064, Note_off_c, 3, 40, 98
5, 13704, Note_off_c, 3, 52, 98
5, 13704, Note_off_c, 3, 40, 98
5, 13824, Note_on_c, 3, 52, 98
5, 13824, Note_on_c, 3, 40, 98
5, 14372, Note_off_c, 3, 52, 98
5, 14372, Note_off_c, 3, 40, 98
5, 14400, Note_on_c, 3, 52, 98
5, 14400, Note_on_c, 3, 40, 98
5, 14592, Note_on_c, 3, 52, 98
5, 14592, Note_on_c, 3, 40, 98
5, 14600, Note_off_c, 3, 52, 98
5, 14600, Note_off_c, 3, 40, 98
5, 15240, Note_off_c, 3, 52, 98
5, 15240, Note_off_c, 3, 40, 98
5, 15360, Note_on_c, 3, 52, 98
5, 15360, Note_on_c, 3, 40, 98
5, 15908, Note_off_c, 3, 52, 98
5, 15908, Note_off_c, 3, 40, 98
5, 15936, Note_on_c, 3, 52, 98
5, 15936, Note_on_c, 3, 40, 98
5, 16128, Note_on_c, 3, 52, 98
5, 16128, Note_on_c, 3, 40, 98
5, 16136, Note_off_c, 3, 52, 98
5, 16136, Note_off_c, 3, 40, 98
5, 16776, Note_off_c, 3, 52, 98
5, 16776, Note_off_c, 3, 40, 98
5, 16896, Note_on_c, 3, 39, 98
5, 16896, Note_on_c, 3, 51, 98
5, 17396, Note_off_c, 3, 39, 98
5, 17396, Note_off_c, 3, 51, 98
5, 17472, Note_on_c, 3, 51, 98
5, 17472, Note_on_c, 3, 39, 98
5, 17664, Note_on_c, 3, 51, 98
5, 17664, Note_on_c, 3, 39, 98
5, 17672, Note_off_c, 3, 51, 98
5, 17672, Note_off_c, 3, 39, 98
5, 18312, Note_off_c, 3, 51, 98
5, 18312, Note_off_c, 3, 39, 98
5, 18432, Note_on_c, 3, 48, 98
5, 18432, Note_on_c, 3, 36, 98
5, 18980, Note_off_c, 3, 48, 98
5, 18980, Note_off_c, 3, 36, 98
5, 19008, Note_on_c, 3, 48, 98
5, 19008, Note_on_c, 3, 36, 98
5, 19200, Note_on_c, 3, 48, 98
5, 19200, Note_on_c, 3, 36, 98
5, 19208, Note_off_c, 3, 48, 98
5, 19208, Note_off_c, 3, 36, 98
5, 19848, Note_off_c, 3, 48, 98
5, 19848, Note_off_c, 3, 36, 98
5, 19968, Note_on_c, 3, 49, 98
5, 19968, Note_on_c, 3, 37, 98
5, 20468, Note_off_c, 3, 49, 98
5, 20468, Note_off_c, 3, 37, 98
5, 20544, Note_on_c, 3, 49, 98
5, 20544, Note_on_c, 3, 37, 98
5, 20736, Note_on_c, 3, 49, 98
5, 20736, Note_on_c, 3, 37, 98
5, 20744, Note_off_c, 3, 49, 98
5, 20744, Note_off_c, 3, 37, 98
5, 21384, Note_off_c, 3, 49, 98
5, 21384, Note_off_c, 3, 37, 98
5, 21504, Note_on_c, 3, 47, 98
5, 21504, Note_on_c, 3, 38, 98
5, 22004, Note_off_c, 3, 47, 98
5, 22004, Note_off_c, 3, 38, 98
5, 22080, Note_on_c, 3, 50, 98
5, 22080, Note_on_c, 3, 38, 98
5, 22272, Note_on_c, 3, 50, 98
5, 22272, Note_on_c, 3, 38, 98
5, 22280, Note_off_c, 3, 50, 98
5, 22280, Note_off_c, 3, 38, 98
5, 22920, Note_off_c, 3, 50, 98
5, 22920, Note_off_c, 3, 38, 98
5, 23040, Note_on_c, 3, 50, 98
5, 23040, Note_on_c, 3, 38, 98
5, 23540, Note_off_c, 3, 50, 98
5, 23540, Note_off_c, 3, 38, 98
5, 23616, Note_on_c, 3, 50, 98
5, 23616, Note_on_c, 3, 38, 98
5, 23808, Note_on_c, 3, 50, 98
5, 23808, Note_on_c, 3, 38, 98
5, 23816, Note_off_c, 3, 50, 98
5, 23816, Note_off_c, 3, 38, 98
5, 24456, Note_off_c, 3, 50, 98
5, 24456, Note_off_c, 3, 38, 98
5, 24576, Note_on_c, 3, 51, 98
5, 24576, Note_on_c, 3, 39, 98
5, 25124, Note_off_c, 3, 51, 98
5, 25124, Note_off_c, 3, 39, 98
5, 25152, Note_on_c, 3, 51, 98
5, 25152, Note_on_c, 3, 39, 98
5, 25344, Note_on_c, 3, 51, 98
5, 25344, Note_on_c, 3, 39, 98
5, 25352, Note_off_c, 3, 51, 98
5, 25352, Note_off_c, 3, 39, 98
5, 25992, Note_off_c, 3, 51, 98
5, 25992, Note_off_c, 3, 39, 98
5, 26112, Note_on_c, 3, 52, 98
5, 26112, Note_on_c, 3, 40, 98
5, 26660, Note_off_c, 3, 52, 98
5, 26660, Note_off_c, 3, 40, 98
5, 26688, Note_on_c, 3, 52, 98
5, 26688, Note_on_c, 3, 40, 98
5, 26880, Note_on_c, 3, 52, 98
5, 26880, Note_on_c, 3, 40, 98
5, 26888, Note_off_c, 3, 52, 98
5, 26888, Note_off_c, 3, 40, 98
5, 27528, Note_off_c, 3, 52, 98
5, 27528, Note_off_c, 3, 40, 98
5, 27648, Note_on_c, 3, 52, 98
5, 27648, Note_on_c, 3, 40, 98
5, 28196, Note_off_c, 3, 52, 98
5, 28196, Note_off_c, 3, 40, 98
5, 28224, Note_on_c, 3, 52, 98
5, 28224, Note_on_c, 3, 40, 98
5, 28416, Note_on_c, 3, 52, 98
5, 28416, Note_on_c, 3, 40, 98
5, 28424, Note_off_c, 3, 52, 98
5, 28424, Note_off_c, 3, 40, 98
5, 29064, Note_off_c, 3, 52, 98
5, 29064, Note_off_c, 3, 40, 98
5, 29184, Note_on_c, 3, 52, 98
5, 29184, Note_on_c, 3, 40, 98
5, 29732, Note_off_c, 3, 52, 98
5, 29732, Note_off_c, 3, 40, 98
5, 29760, Note_on_c, 3, 52, 98
5, 29760, Note_on_c, 3, 40, 98
5, 29952, Note_on_c, 3, 52, 98
5, 29952, Note_on_c, 3, 40, 98
5, 29960, Note_off_c, 3, 52, 98
5, 29960, Note_off_c, 3, 40, 98
5, 30600, Note_off_c, 3, 52, 98
5, 30600, Note_off_c, 3, 40, 98
5, 30720, Note_on_c, 3, 52, 98
5, 30720, Note_on_c, 3, 40, 98
5, 31296, Note_on_c, 3, 52, 98
5, 31296, Note_on_c, 3, 40, 98
5, 31320, Note_off_c, 3, 52, 98
5, 31320, Note_off_c, 3, 40, 98
5, 31488, Note_on_c, 3, 52, 98
5, 31488, Note_on_c, 3, 40, 98
5, 31496, Note_off_c, 3, 52, 98
5, 31496, Note_off_c, 3, 40, 98
5, 32136, Note_off_c, 3, 52, 98
5, 32136, Note_off_c, 3, 40, 98
5, 32256, Note_on_c, 3, 40, 98
5, 32804, Note_off_c, 3, 40, 98
5, 32832, Note_on_c, 3, 40, 98
5, 33024, Note_on_c, 3, 40, 98
5, 33032, Note_off_c, 3, 40, 98
5, 33672, Note_off_c, 3, 40, 98
5, 33792, Note_on_c, 3, 52, 98
5, 33792, Note_on_c, 3, 40, 98
5, 34368, Note_on_c, 3, 52, 98
5, 34368, Note_on_c, 3, 40, 98
5, 34392, Note_off_c, 3, 52, 98
5, 34392, Note_off_c, 3, 40, 98
5, 34560, Note_on_c, 3, 52, 98
5, 34560, Note_on_c, 3, 40, 98
5, 34568, Note_off_c, 3, 52, 98
5, 34568, Note_off_c, 3, 40, 98
5, 35208, Note_off_c, 3, 52, 98
5, 35208, Note_off_c, 3, 40, 98
5, 35328, Note_on_c, 3, 40, 98
5, 35876, Note_off_c, 3, 40, 98
5, 35904, Note_on_c, 3, 40, 98
5, 36096, Note_on_c, 3, 40, 98
5, 36104, Note_off_c, 3, 40, 98
5, 36744, Note_off_c, 3, 40, 98
5, 36864, Note_on_c, 3, 52, 98
5, 36864, Note_on_c, 3, 40, 98
5, 37440, Note_on_c, 3, 52, 98
5, 37440, Note_on_c, 3, 40, 98
5, 37464, Note_off_c, 3, 52, 98
5, 37464, Note_off_c, 3, 40, 98
5, 37632, Note_on_c, 3, 52, 98
5, 37632, Note_on_c, 3, 40, 98
5, 37640, Note_off_c, 3, 52, 98
5, 37640, Note_off_c, 3, 40, 98
5, 38280, Note_off_c, 3, 52, 98
5, 38280, Note_off_c, 3, 40, 98
5, 38400, Note_on_c, 3, 40, 98
5, 38948, Note_off_c, 3, 40, 98
5, 38976, Note_on_c, 3, 40, 98
5, 39168, Note_on_c, 3, 40, 98
5, 39176, Note_off_c, 3, 40, 98
5, 39816, Note_off_c, 3, 40, 98
5, 39936, Note_on_c, 3, 52, 98
5, 39936, Note_on_c, 3, 40, 98
5, 40512, Note_on_c, 3, 52, 98
5, 40512, Note_on_c, 3, 40, 98
5, 40536, Note_off_c, 3, 52, 98
5, 40536, Note_off_c, 3, 40, 98
5, 40704, Note_on_c, 3, 52, 98
5, 40704, Note_on_c, 3, 40, 98
5, 40712, Note_off_c, 3, 52, 98
5, 40712, Note_off_c, 3, 40, 98
5, 41352, Note_off_c, 3, 52, 98
5, 41352, Note_off_c, 3, 40, 98
5, 41472, Note_on_c, 3, 40, 98
5, 42020, Note_off_c, 3, 40, 98
5, 42048, Note_on_c, 3, 40, 98
5, 42240, Note_on_c, 3, 40, 98
5, 42248, Note_off_c, 3, 40, 98
5, 42888, Note_off_c, 3, 40, 98
5, 43008, Note_on_c, 3, 52, 98
5, 43008, Note_on_c, 3, 40, 98
5, 43584, Note_on_c, 3, 52, 98
5, 43584, Note_on_c, 3, 40, 98
5, 43608, Note_off_c, 3, 52, 98
5, 43608, Note_off_c, 3, 40, 98
5, 43776, Note_on_c, 3, 52, 98
5, 43776, Note_on_c, 3, 40, 98
5, 43784, Note_off_c, 3, 52, 98
5, 43784, Note_off_c, 3, 40, 98
5, 44424, Note_off_c, 3, 52, 98
5, 44424, Note_off_c, 3, 40, 98
5, 44544, Note_on_c, 3, 40, 98
5, 45092, Note_off_c, 3, 40, 98
5, 45120, Note_on_c, 3, 40, 98
5, 45312, Note_on_c, 3, 40, 98
5, 45320, Note_off_c, 3, 40, 98
5, 45960, Note_off_c, 3, 40, 98
5, 46080, Note_on_c, 3, 52, 98
5, 46080, Note_on_c, 3, 40, 98
5, 46656, Note_on_c, 3, 52, 98
5, 46656, Note_on_c, 3, 40, 98
5, 46680, Note_off_c, 3, 52, 98
5, 46680, Note_off_c, 3, 40, 98
5, 46848, Note_on_c, 3, 52, 98
5, 46848, Note_on_c, 3, 40, 98
5, 46856, Note_off_c, 3, 52, 98
5, 46856, Note_off_c, 3, 40, 98
5, 47496, Note_off_c, 3, 52, 98
5, 47496, Note_off_c, 3, 40, 98
5, 47496, End_track
6, 0, Start_track
6, 0, Title_t, "MusicBox"
6, 0, Control_c, 4, 0, 0
6, 0, Program_c, 4, 10
6, 0, Control_c, 4, 10, 63
6, 0, Key_signature, 0, "major"
6, 0, Note_on_c, 4, 83, 9
6, 40, Note_off_c, 4, 83, 9
6, 192, Note_on_c, 4, 83, 9
6, 228, Note_off_c, 4, 83, 9
6, 384, Note_on_c, 4, 83, 9
6, 440, Note_off_c, 4, 83, 9
6, 576, Note_on_c, 4, 83, 9
6, 620, Note_off_c, 4, 83, 9
6, 768, Note_on_c, 4, 83, 9
6, 816, Note_off_c, 4, 83, 9
6, 960, Note_on_c, 4, 83, 9
6, 996, Note_off_c, 4, 83, 9
6, 1152, Note_on_c, 4, 83, 9
6, 1196, Note_off_c, 4, 83, 9
6, 1344, Note_on_c, 4, 83, 9
6, 1392, Note_off_c, 4, 83, 9
6, 1536, Note_on_c, 4, 83, 9
6, 1576, Note_off_c, 4, 83, 9
6, 1728, Note_on_c, 4, 83, 9
6, 1764, Note_off_c, 4, 83, 9
6, 1920, Note_on_c, 4, 83, 9
6, 1976, Note_off_c, 4, 83, 9
6, 2112, Note_on_c, 4, 83, 9
6, 2156, Note_off_c, 4, 83, 9
6, 2304, Note_on_c, 4, 83, 9
6, 2352, Note_off_c, 4, 83, 9
6, 2496, Note_on_c, 4, 83, 9
6, 2532, Note_off_c, 4, 83, 9
6, 2688, Note_on_c, 4, 83, 9
6, 2732, Note_off_c, 4, 83, 9
6, 2880, Note_on_c, 4, 83, 9
6, 2928, Note_off_c, 4, 83, 9
6, 3072, Note_on_c, 4, 83, 9
6, 3112, Note_off_c, 4, 83, 9
6, 3264, Note_on_c, 4, 83, 9
6, 3300, Note_off_c, 4, 83, 9
6, 3456, Note_on_c, 4, 83, 9
6, 3512, Note_off_c, 4, 83, 9
6, 3648, Note_on_c, 4, 83, 9
6, 3692, Note_off_c, 4, 83, 9
6, 3840, Note_on_c, 4, 83, 9
6, 3888, Note_off_c, 4, 83, 9
6, 4032, Note_on_c, 4, 83, 9
6, 4068, Note_off_c, 4, 83, 9
6, 4224, Note_on_c, 4, 83, 9
6, 4268, Note_off_c, 4, 83, 9
6, 4416, Note_on_c, 4, 83, 9
6, 4464, Note_off_c, 4, 83, 9
6, 4608, Note_on_c, 4, 83, 9
6, 4648, Note_off_c, 4, 83, 9
6, 4800, Note_on_c, 4, 83, 9
6, 4836, Note_off_c, 4, 83, 9
6, 4992, Note_on_c, 4, 83, 9
6, 5048, Note_off_c, 4, 83, 9
6, 5184, Note_on_c, 4, 83, 9
6, 5228, Note_off_c, 4, 83, 9
6, 5376, Note_on_c, 4, 83, 9
6, 5424, Note_off_c, 4, 83, 9
6, 5568, Note_on_c, 4, 83, 9
6, 5604, Note_off_c, 4, 83, 9
6, 5760, Note_on_c, 4, 83, 9
6, 5804, Note_off_c, 4, 83, 9
6, 5952, Note_on_c, 4, 83, 9
6, 6000, Note_off_c, 4, 83, 9
6, 6144, Note_on_c, 4, 83, 9
6, 6184, Note_off_c, 4, 83, 9
6, 6336, Note_on_c, 4, 83, 9
6, 6372, Note_off_c, 4, 83, 9
6, 6528, Note_on_c, 4, 83, 9
6, 6584, Note_off_c, 4, 83, 9
6, 6720, Note_on_c, 4, 83, 9
6, 6764, Note_off_c, 4, 83, 9
6, 6912, Note_on_c, 4, 83, 9
6, 6960, Note_off_c, 4, 83, 9
6, 7104, Note_on_c, 4, 83, 9
6, 7140, Note_off_c, 4, 83, 9
6, 7296, Note_on_c, 4, 83, 9
6, 7340, Note_off_c, 4, 83, 9
6, 7488, Note_on_c, 4, 83, 9
6, 7536, Note_off_c, 4, 83, 9
6, 7680, Note_on_c, 4, 83, 9
6, 7720, Note_off_c, 4, 83, 9
6, 7872, Note_on_c, 4, 83, 9
6, 7908, Note_off_c, 4, 83, 9
6, 8064, Note_on_c, 4, 83, 9
6, 8120, Note_off_c, 4, 83, 9
6, 8256, Note_on_c, 4, 83, 9
6, 8300, Note_off_c, 4, 83, 9
6, 8448, Note_on_c, 4, 83, 9
6, 8496, Note_off_c, 4, 83, 9
6, 8640, Note_on_c, 4, 83, 9
6, 8676, Note_off_c, 4, 83, 9
6, 8832, Note_on_c, 4, 83, 9
6, 8876, Note_off_c, 4, 83, 9
6, 9024, Note_on_c, 4, 83, 9
6, 9072, Note_off_c, 4, 83, 9
6, 9216, Note_on_c, 4, 83, 9
6, 9256, Note_off_c, 4, 83, 9
6, 9408, Note_on_c, 4, 83, 9
6, 9444, Note_off_c, 4, 83, 9
6, 9600, Note_on_c, 4, 83, 9
6, 9656, Note_off_c, 4, 83, 9
6, 9792, Note_on_c, 4, 83, 9
6, 9836, Note_off_c, 4, 83, 9
6, 9984, Note_on_c, 4, 83, 9
6, 10032, Note_off_c, 4, 83, 9
6, 10176, Note_on_c, 4, 83, 9
6, 10212, Note_off_c, 4, 83, 9
6, 10368, Note_on_c, 4, 83, 9
6, 10412, Note_off_c, 4, 83, 9
6, 10560, Note_on_c, 4, 83, 9
6, 10608, Note_off_c, 4, 83, 9
6, 10752, Note_on_c, 4, 83, 9
6, 10792, Note_off_c, 4, 83, 9
6, 10944, Note_on_c, 4, 83, 9
6, 10980, Note_off_c, 4, 83, 9
6, 11136, Note_on_c, 4, 83, 9
6, 11192, Note_off_c, 4, 83, 9
6, 11328, Note_on_c, 4, 83, 9
6, 11372, Note_off_c, 4, 83, 9
6, 11520, Note_on_c, 4, 83, 9
6, 11568, Note_off_c, 4, 83, 9
6, 11712, Note_on_c, 4, 83, 9
6, 11748, Note_off_c, 4, 83, 9
6, 11904, Note_on_c, 4, 83, 9
6, 11948, Note_off_c, 4, 83, 9
6, 12096, Note_on_c, 4, 83, 9
6, 12144, Note_off_c, 4, 83, 9
6, 12288, Note_on_c, 4, 83, 9
6, 12328, Note_off_c, 4, 83, 9
6, 12480, Note_on_c, 4, 83, 9
6, 12516, Note_off_c, 4, 83, 9
6, 12672, Note_on_c, 4, 83, 9
6, 12728, Note_off_c, 4, 83, 9
6, 12864, Note_on_c, 4, 83, 9
6, 12908, Note_off_c, 4, 83, 9
6, 13056, Note_on_c, 4, 83, 9
6, 13104, Note_off_c, 4, 83, 9
6, 13248, Note_on_c, 4, 83, 9
6, 13284, Note_off_c, 4, 83, 9
6, 13440, Note_on_c, 4, 83, 9
6, 13484, Note_off_c, 4, 83, 9
6, 13632, Note_on_c, 4, 83, 9
6, 13680, Note_off_c, 4, 83, 9
6, 13824, Note_on_c, 4, 83, 9
6, 13864, Note_off_c, 4, 83, 9
6, 14016, Note_on_c, 4, 83, 9
6, 14052, Note_off_c, 4, 83, 9
6, 14208, Note_on_c, 4, 83, 9
6, 14264, Note_off_c, 4, 83, 9
6, 14400, Note_on_c, 4, 83, 9
6, 14444, Note_off_c, 4, 83, 9
6, 14592, Note_on_c, 4, 83, 9
6, 14640, Note_off_c, 4, 83, 9
6, 14784, Note_on_c, 4, 83, 9
6, 14820, Note_off_c, 4, 83, 9
6, 14976, Note_on_c, 4, 83, 9
6, 15020, Note_off_c, 4, 83, 9
6, 15168, Note_on_c, 4, 83, 9
6, 15216, Note_off_c, 4, 83, 9
6, 15360, Note_on_c, 4, 83, 9
6, 15400, Note_off_c, 4, 83, 9
6, 15552, Note_on_c, 4, 83, 9
6, 15588, Note_off_c, 4, 83, 9
6, 15744, Note_on_c, 4, 83, 9
6, 15800, Note_off_c, 4, 83, 9
6, 15936, Note_on_c, 4, 83, 9
6, 15980, Note_off_c, 4, 83, 9
6, 16128, Note_on_c, 4, 83, 9
6, 16176, Note_off_c, 4, 83, 9
6, 16320, Note_on_c, 4, 83, 9
6, 16356, Note_off_c, 4, 83, 9
6, 16512, Note_on_c, 4, 83, 9
6, 16556, Note_off_c, 4, 83, 9
6, 16704, Note_on_c, 4, 83, 9
6, 16752, Note_off_c, 4, 83, 9
6, 16896, Note_on_c, 4, 83, 9
6, 16936, Note_off_c, 4, 83, 9
6, 17088, Note_on_c, 4, 83, 9
6, 17124, Note_off_c, 4, 83, 9
6, 17280, Note_on_c, 4, 83, 9
6, 17336, Note_off_c, 4, 83, 9
6, 17472, Note_on_c, 4, 83, 9
6, 17516, Note_off_c, 4, 83, 9
6, 17664, Note_on_c, 4, 83, 9
6, 17712, Note_off_c, 4, 83, 9
6, 17856, Note_on_c, 4, 83, 9
6, 17892, Note_off_c, 4, 83, 9
6, 18048, Note_on_c, 4, 83, 9
6, 18092, Note_off_c, 4, 83, 9
6, 18240, Note_on_c, 4, 83, 9
6, 18288, Note_off_c, 4, 83, 9
6, 18432, Note_on_c, 4, 83, 9
6, 18472, Note_off_c, 4, 83, 9
6, 18624, Note_on_c, 4, 83, 9
6, 18660, Note_off_c, 4, 83, 9
6, 18816, Note_on_c, 4, 83, 9
6, 18872, Note_off_c, 4, 83, 9
6, 19008, Note_on_c, 4, 83, 9
6, 19052, Note_off_c, 4, 83, 9
6, 19200, Note_on_c, 4, 83, 9
6, 19248, Note_off_c, 4, 83, 9
6, 19392, Note_on_c, 4, 83, 9
6, 19428, Note_off_c, 4, 83, 9
6, 19584, Note_on_c, 4, 83, 9
6, 19628, Note_off_c, 4, 83, 9
6, 19776, Note_on_c, 4, 83, 9
6, 19824, Note_off_c, 4, 83, 9
6, 19968, Note_on_c, 4, 83, 9
6, 20008, Note_off_c, 4, 83, 9
6, 20160, Note_on_c, 4, 83, 9
6, 20196, Note_off_c, 4, 83, 9
6, 20352, Note_on_c, 4, 83, 9
6, 20408, Note_off_c, 4, 83, 9
6, 20544, Note_on_c, 4, 83, 9
6, 20588, Note_off_c, 4, 83, 9
6, 20736, Note_on_c, 4, 83, 9
6, 20784, Note_off_c, 4, 83, 9
6, 20928, Note_on_c, 4, 83, 9
6, 20964, Note_off_c, 4, 83, 9
6, 21120, Note_on_c, 4, 83, 9
6, 21164, Note_off_c, 4, 83, 9
6, 21312, Note_on_c, 4, 83, 9
6, 21360, Note_off_c, 4, 83, 9
6, 21504, Note_on_c, 4, 83, 9
6, 21544, Note_off_c, 4, 83, 9
6, 21696, Note_on_c, 4, 83, 9
6, 21732, Note_off_c, 4, 83, 9
6, 21888, Note_on_c, 4, 83, 9
6, 21944, Note_off_c, 4, 83, 9
6, 22080, Note_on_c, 4, 83, 9
6, 22124, Note_off_c, 4, 83, 9
6, 22272, Note_on_c, 4, 83, 9
6, 22320, Note_off_c, 4, 83, 9
6, 22464, Note_on_c, 4, 83, 9
6, 22500, Note_off_c, 4, 83, 9
6, 22656, Note_on_c, 4, 83, 9
6, 22700, Note_off_c, 4, 83, 9
6, 22848, Note_on_c, 4, 83, 9
6, 22896, Note_off_c, 4, 83, 9
6, 23040, Note_on_c, 4, 83, 9
6, 23080, Note_off_c, 4, 83, 9
6, 23232, Note_on_c, 4, 83, 9
6, 23268, Note_off_c, 4, 83, 9
6, 23424, Note_on_c, 4, 83, 9
6, 23480, Note_off_c, 4, 83, 9
6, 23616, Note_on_c, 4, 83, 9
6, 23660, Note_off_c, 4, 83, 9
6, 23808, Note_on_c, 4, 83, 9
6, 23856, Note_off_c, 4, 83, 9
6, 24000, Note_on_c, 4, 83, 9
6, 24036, Note_off_c, 4, 83, 9
6, 24192, Note_on_c, 4, 83, 9
6, 24236, Note_off_c, 4, 83, 9
6, 24384, Note_on_c, 4, 83, 9
6, 24432, Note_off_c, 4, 83, 9
6, 24576, Note_on_c, 4, 83, 9
6, 24616, Note_off_c, 4, 83, 9
6, 24768, Note_on_c, 4, 83, 9
6, 24804, Note_off_c, 4, 83, 9
6, 24960, Note_on_c, 4, 83, 9
6, 25016, Note_off_c, 4, 83, 9
6, 25152, Note_on_c, 4, 83, 9
6, 25196, Note_off_c, 4, 83, 9
6, 25344, Note_on_c, 4, 83, 9
6, 25392, Note_off_c, 4, 83, 9
6, 25536, Note_on_c, 4, 83, 9
6, 25572, Note_off_c, 4, 83, 9
6, 25728, Note_on_c, 4, 83, 9
6, 25772, Note_off_c, 4, 83, 9
6, 25920, Note_on_c, 4, 83, 9
6, 25968, Note_off_c, 4, 83, 9
6, 26112, Note_on_c, 4, 83, 9
6, 26152, Note_off_c, 4, 83, 9
6, 26304, Note_on_c, 4, 83, 9
6, 26340, Note_off_c, 4, 83, 9
6, 26496, Note_on_c, 4, 83, 9
6, 26552, Note_off_c, 4, 83, 9
6, 26688, Note_on_c, 4, 83, 9
6, 26732, Note_off_c, 4, 83, 9
6, 26880, Note_on_c, 4, 83, 9
6, 26928, Note_off_c, 4, 83, 9
6, 27072, Note_on_c, 4, 83, 9
6, 27108, Note_off_c, 4, 83, 9
6, 27264, Note_on_c, 4, 83, 9
6, 27308, Note_off_c, 4, 83, 9
6, 27456, Note_on_c, 4, 83, 9
6, 27504, Note_off_c, 4, 83, 9
6, 27648, Note_on_c, 4, 83, 9
6, 27688, Note_off_c, 4, 83, 9
6, 27840, Note_on_c, 4, 83, 9
6, 27876, Note_off_c, 4, 83, 9
6, 28032, Note_on_c, 4, 83, 9
6, 28088, Note_off_c, 4, 83, 9
6, 28224, Note_on_c, 4, 83, 9
6, 28268, Note_off_c, 4, 83, 9
6, 28416, Note_on_c, 4, 83, 9
6, 28464, Note_off_c, 4, 83, 9
6, 28608, Note_on_c, 4, 83, 9
6, 28644, Note_off_c, 4, 83, 9
6, 28800, Note_on_c, 4, 83, 9
6, 28844, Note_off_c, 4, 83, 9
6, 28992, Note_on_c, 4, 83, 9
6, 29040, Note_off_c, 4, 83, 9
6, 29184, Note_on_c, 4, 83, 9
6, 29224, Note_off_c, 4, 83, 9
6, 29376, Note_on_c, 4, 83, 9
6, 29412, Note_off_c, 4, 83, 9
6, 29568, Note_on_c, 4, 83, 9
6, 29624, Note_off_c, 4, 83, 9
6, 29760, Note_on_c, 4, 83, 9
6, 29804, Note_off_c, 4, 83, 9
6, 29952, Note_on_c, 4, 83, 9
6, 30000, Note_off_c, 4, 83, 9
6, 30144, Note_on_c, 4, 83, 9
6, 30180, Note_off_c, 4, 83, 9
6, 30336, Note_on_c, 4, 83, 9
6, 30380, Note_off_c, 4, 83, 9
6, 30528, Note_on_c, 4, 83, 9
6, 30576, Note_off_c, 4, 83, 9
6, 30720, Note_on_c, 4, 83, 9
6, 30760, Note_off_c, 4, 83, 9
6, 30912, Note_on_c, 4, 83, 9
6, 30948, Note_off_c, 4, 83, 9
6, 31104, Note_on_c, 4, 83, 9
6, 31160, Note_off_c, 4, 83, 9
6, 31296, Note_on_c, 4, 83, 9
6, 31340, Note_off_c, 4, 83, 9
6, 31488, Note_on_c, 4, 83, 9
6, 31536, Note_off_c, 4, 83, 9
6, 31680, Note_on_c, 4, 83, 9
6, 31716, Note_off_c, 4, 83, 9
6, 31872, Note_on_c, 4, 83, 9
6, 31916, Note_off_c, 4, 83, 9
6, 32064, Note_on_c, 4, 83, 9
6, 32112, Note_off_c, 4, 83, 9
6, 32256, Note_on_c, 4, 83, 9
6, 32296, Note_off_c, 4, 83, 9
6, 32448, Note_on_c, 4, 83, 9
6, 32484, Note_off_c, 4, 83, 9
6, 32640, Note_on_c, 4, 83, 9
6, 32696, Note_off_c, 4, 83, 9
6, 32832, Note_on_c, 4, 83, 9
6, 32876, Note_off_c, 4, 83, 9
6, 33024, Note_on_c, 4, 83, 9
6, 33072, Note_off_c, 4, 83, 9
6, 33216, Note_on_c, 4, 83, 9
6, 33252, Note_off_c, 4, 83, 9
6, 33408, Note_on_c, 4, 83, 9
6, 33452, Note_off_c, 4, 83, 9
6, 33600, Note_on_c, 4, 83, 9
6, 33648, Note_off_c, 4, 83, 9
6, 33792, Note_on_c, 4, 83, 9
6, 33832, Note_off_c, 4, 83, 9
6, 33984, Note_on_c, 4, 83, 9
6, 34020, Note_off_c, 4, 83, 9
6, 34176, Note_on_c, 4, 83, 9
6, 34232, Note_off_c, 4, 83, 9
6, 34368, Note_on_c, 4, 83, 9
6, 34412, Note_off_c, 4, 83, 9
6, 34560, Note_on_c, 4, 83, 9
6, 34608, Note_off_c, 4, 83, 9
6, 34752, Note_on_c, 4, 83, 9
6, 34788, Note_off_c, 4, 83, 9
6, 34944, Note_on_c, 4, 83, 9
6, 34988, Note_off_c, 4, 83, 9
6, 35136, Note_on_c, 4, 83, 9
6, 35184, Note_off_c, 4, 83, 9
6, 35328, Note_on_c, 4, 83, 9
6, 35368, Note_off_c, 4, 83, 9
6, 35520, Note_on_c, 4, 83, 9
6, 35556, Note_off_c, 4, 83, 9
6, 35712, Note_on_c, 4, 83, 9
6, 35768, Note_off_c, 4, 83, 9
6, 35904, Note_on_c, 4, 83, 9
6, 35948, Note_off_c, 4, 83, 9
6, 36096, Note_on_c, 4, 83, 9
6, 36144, Note_off_c, 4, 83, 9
6, 36288, Note_on_c, 4, 83, 9
6, 36324, Note_off_c, 4, 83, 9
6, 36480, Note_on_c, 4, 83, 9
6, 36524, Note_off_c, 4, 83, 9
6, 36672, Note_on_c, 4, 83, 9
6, 36720, Note_off_c, 4, 83, 9
6, 36864, Note_on_c, 4, 83, 9
6, 36904, Note_off_c, 4, 83, 9
6, 37056, Note_on_c, 4, 83, 9
6, 37092, Note_off_c, 4, 83, 9
6, 37248, Note_on_c, 4, 83, 9
6, 37304, Note_off_c, 4, 83, 9
6, 37440, Note_on_c, 4, 83, 9
6, 37484, Note_off_c, 4, 83, 9
6, 37632, Note_on_c, 4, 83, 9
6, 37680, Note_off_c, 4, 83, 9
6, 37824, Note_on_c, 4, 83, 9
6, 37860, Note_off_c, 4, 83, 9
6, 38016, Note_on_c, 4, 83, 9
6, 38060, Note_off_c, 4, 83, 9
6, 38208, Note_on_c, 4, 83, 9
6, 38256, Note_off_c, 4, 83, 9
6, 38400, Note_on_c, 4, 83, 9
6, 38440, Note_off_c, 4, 83, 9
6, 38592, Note_on_c, 4, 83, 9
6, 38628, Note_off_c, 4, 83, 9
6, 38784, Note_on_c, 4, 83, 9
6, 38840, Note_off_c, 4, 83, 9
6, 38976, Note_on_c, 4, 83, 9
6, 39020, Note_off_c, 4, 83, 9
6, 39168, Note_on_c, 4, 83, 9
6, 39216, Note_off_c, 4, 83, 9
6, 39360, Note_on_c, 4, 83, 9
6, 39396, Note_off_c, 4, 83, 9
6, 39552, Note_on_c, 4, 83, 9
6, 39596, Note_off_c, 4, 83, 9
6, 39744, Note_on_c, 4, 83, 9
6, 39792, Note_off_c, 4, 83, 9
6, 39936, Note_on_c, 4, 83, 9
6, 39976, Note_off_c, 4, 83, 9
6, 40128, Note_on_c, 4, 83, 9
6, 40164, Note_off_c, 4, 83, 9
6, 40320, Note_on_c, 4, 83, 9
6, 40376, Note_off_c, 4, 83, 9
6, 40512, Note_on_c, 4, 83, 9
6, 40556, Note_off_c, 4, 83, 9
6, 40704, Note_on_c, 4, 83, 9
6, 40752, Note_off_c, 4, 83, 9
6, 40896, Note_on_c, 4, 83, 9
6, 40932, Note_off_c, 4, 83, 9
6, 41088, Note_on_c, 4, 83, 9
6, 41132, Note_off_c, 4, 83, 9
6, 41280, Note_on_c, 4, 83, 9
6, 41328, Note_off_c, 4, 83, 9
6, 41472, Note_on_c, 4, 83, 9
6, 41512, Note_off_c, 4, 83, 9
6, 41664, Note_on_c, 4, 83, 9
6, 41700, Note_off_c, 4, 83, 9
6, 41856, Note_on_c, 4, 83, 9
6, 41912, Note_off_c, 4, 83, 9
6, 42048, Note_on_c, 4, 83, 9
6, 42092, Note_off_c, 4, 83, 9
6, 42240, Note_on_c, 4, 83, 9
6, 42288, Note_off_c, 4, 83, 9
6, 42432, Note_on_c, 4, 83, 9
6, 42468, Note_off_c, 4, 83, 9
6, 42624, Note_on_c, 4, 83, 9
6, 42668, Note_off_c, 4, 83, 9
6, 42816, Note_on_c, 4, 83, 9
6, 42864, Note_off_c, 4, 83, 9
6, 43008, Note_on_c, 4, 83, 9
6, 43048, Note_off_c, 4, 83, 9
6, 43200, Note_on_c, 4, 83, 9
6, 43236, Note_off_c, 4, 83, 9
6, 43392, Note_on_c, 4, 83, 9
6, 43448, Note_off_c, 4, 83, 9
6, 43584, Note_on_c, 4, 83, 9
6, 43628, Note_off_c, 4, 83, 9
6, 43776, Note_on_c, 4, 83, 9
6, 43824, Note_off_c, 4, 83, 9
6, 43968, Note_on_c, 4, 83, 9
6, 44004, Note_off_c, 4, 83, 9
6, 44160, Note_on_c, 4, 83, 9
6, 44204, Note_off_c, 4, 83, 9
6, 44352, Note_on_c, 4, 83, 9
6, 44400, Note_off_c, 4, 83, 9
6, 44544, Note_on_c, 4, 83, 9
6, 44584, Note_off_c, 4, 83, 9
6, 44736, Note_on_c, 4, 83, 9
6, 44772, Note_off_c, 4, 83, 9
6, 44928, Note_on_c, 4, 83, 9
6, 44984, Note_off_c, 4, 83, 9
6, 45120, Note_on_c, 4, 83, 9
6, 45164, Note_off_c, 4, 83, 9
6, 45312, Note_on_c, 4, 83, 9
6, 45360, Note_off_c, 4, 83, 9
6, 45504, Note_on_c, 4, 83, 9
6, 45540, Note_off_c, 4, 83, 9
6, 45696, Note_on_c, 4, 83, 9
6, 45740, Note_off_c, 4, 83, 9
6, 45888, Note_on_c, 4, 83, 9
6, 45936, Note_off_c, 4, 83, 9
6, 46080, Note_on_c, 4, 83, 9
6, 46120, Note_off_c, 4, 83, 9
6, 46272, Note_on_c, 4, 83, 9
6, 46308, Note_off_c, 4, 83, 9
6, 46464, Note_on_c, 4, 83, 9
6, 46520, Note_off_c, 4, 83, 9
6, 46656, Note_on_c, 4, 83, 9
6, 46700, Note_off_c, 4, 83, 9
6, 46848, Note_on_c, 4, 83, 9
6, 46896, Note_off_c, 4, 83, 9
6, 47040, Note_on_c, 4, 83, 9
6, 47076, Note_off_c, 4, 83, 9
6, 47232, Note_on_c, 4, 83, 9
6, 47276, Note_off_c, 4, 83, 9
6, 47424, Note_on_c, 4, 83, 9
6, 47472, Note_off_c, 4, 83, 9
6, 47472, End_track
7, 0, Start_track
7, 0, Title_t, "TinkleBell"
7, 0, Control_c, 7, 0, 0
7, 0, Program_c, 7, 112
7, 0, Control_c, 7, 10, 63
7, 0, Key_signature, 0, "major"
7, 0, Note_on_c, 7, 83, 10
7, 40, Note_off_c, 7, 83, 10
7, 192, Note_on_c, 7, 83, 10
7, 228, Note_off_c, 7, 83, 10
7, 384, Note_on_c, 7, 83, 10
7, 440, Note_off_c, 7, 83, 10
7, 576, Note_on_c, 7, 83, 10
7, 620, Note_off_c, 7, 83, 10
7, 768, Note_on_c, 7, 83, 10
7, 816, Note_off_c, 7, 83, 10
7, 960, Note_on_c, 7, 83, 10
7, 996, Note_off_c, 7, 83, 10
7, 1152, Note_on_c, 7, 83, 10
7, 1196, Note_off_c, 7, 83, 10
7, 1344, Note_on_c, 7, 83, 10
7, 1392, Note_off_c, 7, 83, 10
7, 1536, Note_on_c, 7, 83, 10
7, 1576, Note_off_c, 7, 83, 10
7, 1728, Note_on_c, 7, 83, 10
7, 1764, Note_off_c, 7, 83, 10
7, 1920, Note_on_c, 7, 83, 10
7, 1976, Note_off_c, 7, 83, 10
7, 2112, Note_on_c, 7, 83, 10
7, 2156, Note_off_c, 7, 83, 10
7, 2304, Note_on_c, 7, 83, 10
7, 2352, Note_off_c, 7, 83, 10
7, 2496, Note_on_c, 7, 83, 10
7, 2532, Note_off_c, 7, 83, 10
7, 2688, Note_on_c, 7, 83, 10
7, 2732, Note_off_c, 7, 83, 10
7, 2880, Note_on_c, 7, 83, 10
7, 2928, Note_off_c, 7, 83, 10
7, 3072, Note_on_c, 7, 83, 10
7, 3112, Note_off_c, 7, 83, 10
7, 3264, Note_on_c, 7, 83, 10
7, 3300, Note_off_c, 7, 83, 10
7, 3456, Note_on_c, 7, 83, 10
7, 3512, Note_off_c, 7, 83, 10
7, 3648, Note_on_c, 7, 83, 10
7, 3692, Note_off_c, 7, 83, 10
7, 3840, Note_on_c, 7, 83, 10
7, 3888, Note_off_c, 7, 83, 10
7, 4032, Note_on_c, 7, 83, 10
7, 4068, Note_off_c, 7, 83, 10
7, 4224, Note_on_c, 7, 83, 10
7, 4268, Note_off_c, 7, 83, 10
7, 4416, Note_on_c, 7, 83, 10
7, 4464, Note_off_c, 7, 83, 10
7, 4608, Note_on_c, 7, 83, 10
7, 4648, Note_off_c, 7, 83, 10
7, 4800, Note_on_c, 7, 83, 10
7, 4836, Note_off_c, 7, 83, 10
7, 4992, Note_on_c, 7, 83, 10
7, 5048, Note_off_c, 7, 83, 10
7, 5184, Note_on_c, 7, 83, 10
7, 5228, Note_off_c, 7, 83, 10
7, 5376, Note_on_c, 7, 83, 10
7, 5424, Note_off_c, 7, 83, 10
7, 5568, Note_on_c, 7, 83, 10
7, 5604, Note_off_c, 7, 83, 10
7, 5760, Note_on_c, 7, 83, 10
7, 5804, Note_off_c, 7, 83, 10
7, 5952, Note_on_c, 7, 83, 10
7, 6000, Note_off_c, 7, 83, 10
7, 6144, Note_on_c, 7, 83, 10
7, 6184, Note_off_c, 7, 83, 10
7, 6336, Note_on_c, 7, 83, 10
7, 6372, Note_off_c, 7, 83, 10
7, 6528, Note_on_c, 7, 83, 10
7, 6584, Note_off_c, 7, 83, 10
7, 6720, Note_on_c, 7, 83, 10
7, 6764, Note_off_c, 7, 83, 10
7, 6912, Note_on_c, 7, 83, 10
7, 6960, Note_off_c, 7, 83, 10
7, 7104, Note_on_c, 7, 83, 10
7, 7140, Note_off_c, 7, 83, 10
7, 7296, Note_on_c, 7, 83, 10
7, 7340, Note_off_c, 7, 83, 10
7, 7488, Note_on_c, 7, 83, 10
7, 7536, Note_off_c, 7, 83, 10
7, 7680, Note_on_c, 7, 83, 10
7, 7720, Note_off_c, 7, 83, 10
7, 7872, Note_on_c, 7, 83, 10
7, 7908, Note_off_c, 7, 83, 10
7, 8064, Note_on_c, 7, 83, 10
7, 8120, Note_off_c, 7, 83, 10
7, 8256, Note_on_c, 7, 83, 10
7, 8300, Note_off_c, 7, 83, 10
7, 8448, Note_on_c, 7, 83, 10
7, 8496, Note_off_c, 7, 83, 10
7, 8640, Note_on_c, 7, 83, 10
7, 8676, Note_off_c, 7, 83, 10
7, 8832, Note_on_c, 7, 83, 10
7, 8876, Note_off_c, 7, 83, 10
7, 9024, Note_on_c, 7, 83, 10
7, 9072, Note_off_c, 7, 83, 10
7, 9216, Note_on_c, 7, 83, 10
7, 9256, Note_off_c, 7, 83, 10
7, 9408, Note_on_c, 7, 83, 10
7, 9444, Note_off_c, 7, 83, 10
7, 9600, Note_on_c, 7, 83, 10
7, 9656, Note_off_c, 7, 83, 10
7, 9792, Note_on_c, 7, 83, 10
7, 9836, Note_off_c, 7, 83, 10
7, 9984, Note_on_c, 7, 83, 10
7, 10032, Note_off_c, 7, 83, 10
7, 10176, Note_on_c, 7, 83, 10
7, 10212, Note_off_c, 7, 83, 10
7, 10368, Note_on_c, 7, 83, 10
7, 10412, Note_off_c, 7, 83, 10
7, 10560, Note_on_c, 7, 83, 10
7, 10608, Note_off_c, 7, 83, 10
7, 10752, Note_on_c, 7, 83, 10
7, 10792, Note_off_c, 7, 83, 10
7, 10944, Note_on_c, 7, 83, 10
7, 10980, Note_off_c, 7, 83, 10
7, 11136, Note_on_c, 7, 83, 10
7, 11192, Note_off_c, 7, 83, 10
7, 11328, Note_on_c, 7, 83, 10
7, 11372, Note_off_c, 7, 83, 10
7, 11520, Note_on_c, 7, 83, 10
7, 11568, Note_off_c, 7, 83, 10
7, 11712, Note_on_c, 7, 83, 10
7, 11748, Note_off_c, 7, 83, 10
7, 11904, Note_on_c, 7, 83, 10
7, 11948, Note_off_c, 7, 83, 10
7, 12096, Note_on_c, 7, 83, 10
7, 12144, Note_off_c, 7, 83, 10
7, 12288, Note_on_c, 7, 83, 10
7, 12328, Note_off_c, 7, 83, 10
7, 12480, Note_on_c, 7, 83, 10
7, 12516, Note_off_c, 7, 83, 10
7, 12672, Note_on_c, 7, 83, 10
7, 12728, Note_off_c, 7, 83, 10
7, 12864, Note_on_c, 7, 83, 10
7, 12908, Note_off_c, 7, 83, 10
7, 13056, Note_on_c, 7, 83, 10
7, 13104, Note_off_c, 7, 83, 10
7, 13248, Note_on_c, 7, 83, 10
7, 13284, Note_off_c, 7, 83, 10
7, 13440, Note_on_c, 7, 83, 10
7, 13484, Note_off_c, 7, 83, 10
7, 13632, Note_on_c, 7, 83, 10
7, 13680, Note_off_c, 7, 83, 10
7, 13824, Note_on_c, 7, 83, 10
7, 13864, Note_off_c, 7, 83, 10
7, 14016, Note_on_c, 7, 83, 10
7, 14052, Note_off_c, 7, 83, 10
7, 14208, Note_on_c, 7, 83, 10
7, 14264, Note_off_c, 7, 83, 10
7, 14400, Note_on_c, 7, 83, 10
7, 14444, Note_off_c, 7, 83, 10
7, 14592, Note_on_c, 7, 83, 10
7, 14640, Note_off_c, 7, 83, 10
7, 14784, Note_on_c, 7, 83, 10
7, 14820, Note_off_c, 7, 83, 10
7, 14976, Note_on_c, 7, 83, 10
7, 15020, Note_off_c, 7, 83, 10
7, 15168, Note_on_c, 7, 83, 10
7, 15216, Note_off_c, 7, 83, 10
7, 15360, Note_on_c, 7, 83, 10
7, 15400, Note_off_c, 7, 83, 10
7, 15552, Note_on_c, 7, 83, 10
7, 15588, Note_off_c, 7, 83, 10
7, 15744, Note_on_c, 7, 83, 10
7, 15800, Note_off_c, 7, 83, 10
7, 15936, Note_on_c, 7, 83, 10
7, 15980, Note_off_c, 7, 83, 10
7, 16128, Note_on_c, 7, 83, 10
7, 16176, Note_off_c, 7, 83, 10
7, 16320, Note_on_c, 7, 83, 10
7, 16356, Note_off_c, 7, 83, 10
7, 16512, Note_on_c, 7, 83, 10
7, 16556, Note_off_c, 7, 83, 10
7, 16704, Note_on_c, 7, 83, 10
7, 16752, Note_off_c, 7, 83, 10
7, 16896, Note_on_c, 7, 83, 10
7, 16936, Note_off_c, 7, 83, 10
7, 17088, Note_on_c, 7, 83, 10
7, 17124, Note_off_c, 7, 83, 10
7, 17280, Note_on_c, 7, 83, 10
7, 17336, Note_off_c, 7, 83, 10
7, 17472, Note_on_c, 7, 83, 10
7, 17516, Note_off_c, 7, 83, 10
7, 17664, Note_on_c, 7, 83, 10
7, 17712, Note_off_c, 7, 83, 10
7, 17856, Note_on_c, 7, 83, 10
7, 17892, Note_off_c, 7, 83, 10
7, 18048, Note_on_c, 7, 83, 10
7, 18092, Note_off_c, 7, 83, 10
7, 18240, Note_on_c, 7, 83, 10
7, 18288, Note_off_c, 7, 83, 10
7, 18432, Note_on_c, 7, 83, 10
7, 18472, Note_off_c, 7, 83, 10
7, 18624, Note_on_c, 7, 83, 10
7, 18660, Note_off_c, 7, 83, 10
7, 18816, Note_on_c, 7, 83, 10
7, 18872, Note_off_c, 7, 83, 10
7, 19008, Note_on_c, 7, 83, 10
7, 19052, Note_off_c, 7, 83, 10
7, 19200, Note_on_c, 7, 83, 10
7, 19248, Note_off_c, 7, 83, 10
7, 19392, Note_on_c, 7, 83, 10
7, 19428, Note_off_c, 7, 83, 10
7, 19584, Note_on_c, 7, 83, 10
7, 19628, Note_off_c, 7, 83, 10
7, 19776, Note_on_c, 7, 83, 10
7, 19824, Note_off_c, 7, 83, 10
7, 19968, Note_on_c, 7, 83, 10
7, 20008, Note_off_c, 7, 83, 10
7, 20160, Note_on_c, 7, 83, 10
7, 20196, Note_off_c, 7, 83, 10
7, 20352, Note_on_c, 7, 83, 10
7, 20408, Note_off_c, 7, 83, 10
7, 20544, Note_on_c, 7, 83, 10
7, 20588, Note_off_c, 7, 83, 10
7, 20736, Note_on_c, 7, 83, 10
7, 20784, Note_off_c, 7, 83, 10
7, 20928, Note_on_c, 7, 83, 10
7, 20964, Note_off_c, 7, 83, 10
7, 21120, Note_on_c, 7, 83, 10
7, 21164, Note_off_c, 7, 83, 10
7, 21312, Note_on_c, 7, 83, 10
7, 21360, Note_off_c, 7, 83, 10
7, 21504, Note_on_c, 7, 83, 10
7, 21544, Note_off_c, 7, 83, 10
7, 21696, Note_on_c, 7, 83, 10
7, 21732, Note_off_c, 7, 83, 10
7, 21888, Note_on_c, 7, 83, 10
7, 21944, Note_off_c, 7, 83, 10
7, 22080, Note_on_c, 7, 83, 10
7, 22124, Note_off_c, 7, 83, 10
7, 22272, Note_on_c, 7, 83, 10
7, 22320, Note_off_c, 7, 83, 10
7, 22464, Note_on_c, 7, 83, 10
7, 22500, Note_off_c, 7, 83, 10
7, 22656, Note_on_c, 7, 83, 10
7, 22700, Note_off_c, 7, 83, 10
7, 22848, Note_on_c, 7, 83, 10
7, 22896, Note_off_c, 7, 83, 10
7, 23040, Note_on_c, 7, 83, 10
7, 23080, Note_off_c, 7, 83, 10
7, 23232, Note_on_c, 7, 83, 10
7, 23268, Note_off_c, 7, 83, 10
7, 23424, Note_on_c, 7, 83, 10
7, 23480, Note_off_c, 7, 83, 10
7, 23616, Note_on_c, 7, 83, 10
7, 23660, Note_off_c, 7, 83, 10
7, 23808, Note_on_c, 7, 83, 10
7, 23856, Note_off_c, 7, 83, 10
7, 24000, Note_on_c, 7, 83, 10
7, 24036, Note_off_c, 7, 83, 10
7, 24192, Note_on_c, 7, 83, 10
7, 24236, Note_off_c, 7, 83, 10
7, 24384, Note_on_c, 7, 83, 10
7, 24432, Note_off_c, 7, 83, 10
7, 24576, Note_on_c, 7, 83, 10
7, 24616, Note_off_c, 7, 83, 10
7, 24768, Note_on_c, 7, 83, 10
7, 24804, Note_off_c, 7, 83, 10
7, 24960, Note_on_c, 7, 83, 10
7, 25016, Note_off_c, 7, 83, 10
7, 25152, Note_on_c, 7, 83, 10
7, 25196, Note_off_c, 7, 83, 10
7, 25344, Note_on_c, 7, 83, 10
7, 25392, Note_off_c, 7, 83, 10
7, 25536, Note_on_c, 7, 83, 10
7, 25572, Note_off_c, 7, 83, 10
7, 25728, Note_on_c, 7, 83, 10
7, 25772, Note_off_c, 7, 83, 10
7, 25920, Note_on_c, 7, 83, 10
7, 25968, Note_off_c, 7, 83, 10
7, 26112, Note_on_c, 7, 83, 10
7, 26152, Note_off_c, 7, 83, 10
7, 26304, Note_on_c, 7, 83, 10
7, 26340, Note_off_c, 7, 83, 10
7, 26496, Note_on_c, 7, 83, 10
7, 26552, Note_off_c, 7, 83, 10
7, 26688, Note_on_c, 7, 83, 10
7, 26732, Note_off_c, 7, 83, 10
7, 26880, Note_on_c, 7, 83, 10
7, 26928, Note_off_c, 7, 83, 10
7, 27072, Note_on_c, 7, 83, 10
7, 27108, Note_off_c, 7, 83, 10
7, 27264, Note_on_c, 7, 83, 10
7, 27308, Note_off_c, 7, 83, 10
7, 27456, Note_on_c, 7, 83, 10
7, 27504, Note_off_c, 7, 83, 10
7, 27648, Note_on_c, 7, 83, 10
7, 27688, Note_off_c, 7, 83, 10
7, 27840, Note_on_c, 7, 83, 10
7, 27876, Note_off_c, 7, 83, 10
7, 28032, Note_on_c, 7, 83, 10
7, 28088, Note_off_c, 7, 83, 10
7, 28224, Note_on_c, 7, 83, 10
7, 28268, Note_off_c, 7, 83, 10
7, 28416, Note_on_c, 7, 83, 10
7, 28464, Note_off_c, 7, 83, 10
7, 28608, Note_on_c, 7, 83, 10
7, 28644, Note_off_c, 7, 83, 10
7, 28800, Note_on_c, 7, 83, 10
7, 28844, Note_off_c, 7, 83, 10
7, 28992, Note_on_c, 7, 83, 10
7, 29040, Note_off_c, 7, 83, 10
7, 29184, Note_on_c, 7, 83, 10
7, 29224, Note_off_c, 7, 83, 10
7, 29376, Note_on_c, 7, 83, 10
7, 29412, Note_off_c, 7, 83, 10
7, 29568, Note_on_c, 7, 83, 10
7, 29624, Note_off_c, 7, 83, 10
7, 29760, Note_on_c, 7, 83, 10
7, 29804, Note_off_c, 7, 83, 10
7, 29952, Note_on_c, 7, 83, 10
7, 30000, Note_off_c, 7, 83, 10
7, 30144, Note_on_c, 7, 83, 10
7, 30180, Note_off_c, 7, 83, 10
7, 30336, Note_on_c, 7, 83, 10
7, 30380, Note_off_c, 7, 83, 10
7, 30528, Note_on_c, 7, 83, 10
7, 30576, Note_off_c, 7, 83, 10
7, 30720, Note_on_c, 7, 83, 10
7, 30760, Note_off_c, 7, 83, 10
7, 30912, Note_on_c, 7, 83, 10
7, 30948, Note_off_c, 7, 83, 10
7, 31104, Note_on_c, 7, 83, 10
7, 31160, Note_off_c, 7, 83, 10
7, 31296, Note_on_c, 7, 83, 10
7, 31340, Note_off_c, 7, 83, 10
7, 31488, Note_on_c, 7, 83, 10
7, 31536, Note_off_c, 7, 83, 10
7, 31680, Note_on_c, 7, 83, 10
7, 31716, Note_off_c, 7, 83, 10
7, 31872, Note_on_c, 7, 83, 10
7, 31916, Note_off_c, 7, 83, 10
7, 32064, Note_on_c, 7, 83, 10
7, 32112, Note_off_c, 7, 83, 10
7, 32256, Note_on_c, 7, 83, 10
7, 32296, Note_off_c, 7, 83, 10
7, 32448, Note_on_c, 7, 83, 10
7, 32484, Note_off_c, 7, 83, 10
7, 32640, Note_on_c, 7, 83, 10
7, 32696, Note_off_c, 7, 83, 10
7, 32832, Note_on_c, 7, 83, 10
7, 32876, Note_off_c, 7, 83, 10
7, 33024, Note_on_c, 7, 83, 10
7, 33072, Note_off_c, 7, 83, 10
7, 33216, Note_on_c, 7, 83, 10
7, 33252, Note_off_c, 7, 83, 10
7, 33408, Note_on_c, 7, 83, 10
7, 33452, Note_off_c, 7, 83, 10
7, 33600, Note_on_c, 7, 83, 10
7, 33648, Note_off_c, 7, 83, 10
7, 33792, Note_on_c, 7, 83, 10
7, 33832, Note_off_c, 7, 83, 10
7, 33984, Note_on_c, 7, 83, 10
7, 34020, Note_off_c, 7, 83, 10
7, 34176, Note_on_c, 7, 83, 10
7, 34232, Note_off_c, 7, 83, 10
7, 34368, Note_on_c, 7, 83, 10
7, 34412, Note_off_c, 7, 83, 10
7, 34560, Note_on_c, 7, 83, 10
7, 34608, Note_off_c, 7, 83, 10
7, 34752, Note_on_c, 7, 83, 10
7, 34788, Note_off_c, 7, 83, 10
7, 34944, Note_on_c, 7, 83, 10
7, 34988, Note_off_c, 7, 83, 10
7, 35136, Note_on_c, 7, 83, 10
7, 35184, Note_off_c, 7, 83, 10
7, 35328, Note_on_c, 7, 83, 10
7, 35368, Note_off_c, 7, 83, 10
7, 35520, Note_on_c, 7, 83, 10
7, 35556, Note_off_c, 7, 83, 10
7, 35712, Note_on_c, 7, 83, 10
7, 35768, Note_off_c, 7, 83, 10
7, 35904, Note_on_c, 7, 83, 10
7, 35948, Note_off_c, 7, 83, 10
7, 36096, Note_on_c, 7, 83, 10
7, 36144, Note_off_c, 7, 83, 10
7, 36288, Note_on_c, 7, 83, 10
7, 36324, Note_off_c, 7, 83, 10
7, 36480, Note_on_c, 7, 83, 10
7, 36524, Note_off_c, 7, 83, 10
7, 36672, Note_on_c, 7, 83, 10
7, 36720, Note_off_c, 7, 83, 10
7, 36864, Note_on_c, 7, 83, 10
7, 36904, Note_off_c, 7, 83, 10
7, 37056, Note_on_c, 7, 83, 10
7, 37092, Note_off_c, 7, 83, 10
7, 37248, Note_on_c, 7, 83, 10
7, 37304, Note_off_c, 7, 83, 10
7, 37440, Note_on_c, 7, 83, 10
7, 37484, Note_off_c, 7, 83, 10
7, 37632, Note_on_c, 7, 83, 10
7, 37680, Note_off_c, 7, 83, 10
7, 37824, Note_on_c, 7, 83, 10
7, 37860, Note_off_c, 7, 83, 10
7, 38016, Note_on_c, 7, 83, 10
7, 38060, Note_off_c, 7, 83, 10
7, 38208, Note_on_c, 7, 83, 10
7, 38256, Note_off_c, 7, 83, 10
7, 38400, Note_on_c, 7, 83, 10
7, 38440, Note_off_c, 7, 83, 10
7, 38592, Note_on_c, 7, 83, 10
7, 38628, Note_off_c, 7, 83, 10
7, 38784, Note_on_c, 7, 83, 10
7, 38840, Note_off_c, 7, 83, 10
7, 38976, Note_on_c, 7, 83, 10
7, 39020, Note_off_c, 7, 83, 10
7, 39168, Note_on_c, 7, 83, 10
7, 39216, Note_off_c, 7, 83, 10
7, 39360, Note_on_c, 7, 83, 10
7, 39396, Note_off_c, 7, 83, 10
7, 39552, Note_on_c, 7, 83, 10
7, 39596, Note_off_c, 7, 83, 10
7, 39744, Note_on_c, 7, 83, 10
7, 39792, Note_off_c, 7, 83, 10
7, 39936, Note_on_c, 7, 83, 10
7, 39976, Note_off_c, 7, 83, 10
7, 40128, Note_on_c, 7, 83, 10
7, 40164, Note_off_c, 7, 83, 10
7, 40320, Note_on_c, 7, 83, 10
7, 40376, Note_off_c, 7, 83, 10
7, 40512, Note_on_c, 7, 83, 10
7, 40556, Note_off_c, 7, 83, 10
7, 40704, Note_on_c, 7, 83, 10
7, 40752, Note_off_c, 7, 83, 10
7, 40896, Note_on_c, 7, 83, 10
7, 40932, Note_off_c, 7, 83, 10
7, 41088, Note_on_c, 7, 83, 10
7, 41132, Note_off_c, 7, 83, 10
7, 41280, Note_on_c, 7, 83, 10
7, 41328, Note_off_c, 7, 83, 10
7, 41472, Note_on_c, 7, 83, 10
7, 41512, Note_off_c, 7, 83, 10
7, 41664, Note_on_c, 7, 83, 10
7, 41700, Note_off_c, 7, 83, 10
7, 41856, Note_on_c, 7, 83, 10
7, 41912, Note_off_c, 7, 83, 10
7, 42048, Note_on_c, 7, 83, 10
7, 42092, Note_off_c, 7, 83, 10
7, 42240, Note_on_c, 7, 83, 10
7, 42288, Note_off_c, 7, 83, 10
7, 42432, Note_on_c, 7, 83, 10
7, 42468, Note_off_c, 7, 83, 10
7, 42624, Note_on_c, 7, 83, 10
7, 42668, Note_off_c, 7, 83, 10
7, 42816, Note_on_c, 7, 83, 10
7, 42864, Note_off_c, 7, 83, 10
7, 43008, Note_on_c, 7, 83, 10
7, 43048, Note_off_c, 7, 83, 10
7, 43200, Note_on_c, 7, 83, 10
7, 43236, Note_off_c, 7, 83, 10
7, 43392, Note_on_c, 7, 83, 10
7, 43448, Note_off_c, 7, 83, 10
7, 43584, Note_on_c, 7, 83, 10
7, 43628, Note_off_c, 7, 83, 10
7, 43776, Note_on_c, 7, 83, 10
7, 43824, Note_off_c, 7, 83, 10
7, 43968, Note_on_c, 7, 83, 10
7, 44004, Note_off_c, 7, 83, 10
7, 44160, Note_on_c, 7, 83, 10
7, 44204, Note_off_c, 7, 83, 10
7, 44352, Note_on_c, 7, 83, 10
7, 44400, Note_off_c, 7, 83, 10
7, 44544, Note_on_c, 7, 83, 10
7, 44584, Note_off_c, 7, 83, 10
7, 44736, Note_on_c, 7, 83, 10
7, 44772, Note_off_c, 7, 83, 10
7, 44928, Note_on_c, 7, 83, 10
7, 44984, Note_off_c, 7, 83, 10
7, 45120, Note_on_c, 7, 83, 10
7, 45164, Note_off_c, 7, 83, 10
7, 45312, Note_on_c, 7, 83, 10
7, 45360, Note_off_c, 7, 83, 10
7, 45504, Note_on_c, 7, 83, 10
7, 45540, Note_off_c, 7, 83, 10
7, 45696, Note_on_c, 7, 83, 10
7, 45740, Note_off_c, 7, 83, 10
7, 45888, Note_on_c, 7, 83, 10
7, 45936, Note_off_c, 7, 83, 10
7, 46080, Note_on_c, 7, 83, 10
7, 46120, Note_off_c, 7, 83, 10
7, 46272, Note_on_c, 7, 83, 10
7, 46308, Note_off_c, 7, 83, 10
7, 46464, Note_on_c, 7, 83, 10
7, 46520, Note_off_c, 7, 83, 10
7, 46656, Note_on_c, 7, 83, 10
7, 46700, Note_off_c, 7, 83, 10
7, 46848, Note_on_c, 7, 83, 10
7, 46896, Note_off_c, 7, 83, 10
7, 47040, Note_on_c, 7, 83, 10
7, 47076, Note_off_c, 7, 83, 10
7, 47232, Note_on_c, 7, 83, 10
7, 47276, Note_off_c, 7, 83, 10
7, 47424, Note_on_c, 7, 83, 10
7, 47472, Note_off_c, 7, 83, 10
7, 47472, End_track
8, 0, Start_track
8, 0, Title_t, "Bongos"
8, 0, Key_signature, 0, "major"
8, 0, Note_on_c, 9, 64, 86
8, 48, Note_off_c, 9, 64, 86
8, 576, Note_on_c, 9, 64, 86
8, 624, Note_off_c, 9, 64, 86
8, 768, Note_on_c, 9, 64, 86
8, 820, Note_off_c, 9, 64, 86
8, 1152, Note_on_c, 9, 60, 86
8, 1196, Note_off_c, 9, 60, 86
8, 1344, Note_on_c, 9, 60, 86
8, 1396, Note_off_c, 9, 60, 86
8, 1536, Note_on_c, 9, 64, 86
8, 1584, Note_off_c, 9, 64, 86
8, 2112, Note_on_c, 9, 64, 86
8, 2160, Note_off_c, 9, 64, 86
8, 2304, Note_on_c, 9, 64, 86
8, 2356, Note_off_c, 9, 64, 86
8, 2688, Note_on_c, 9, 60, 86
8, 2732, Note_off_c, 9, 60, 86
8, 2880, Note_on_c, 9, 60, 86
8, 2932, Note_off_c, 9, 60, 86
8, 3072, Note_on_c, 9, 64, 86
8, 3120, Note_off_c, 9, 64, 86
8, 3648, Note_on_c, 9, 64, 86
8, 3696, Note_off_c, 9, 64, 86
8, 3840, Note_on_c, 9, 64, 86
8, 3892, Note_off_c, 9, 64, 86
8, 4224, Note_on_c, 9, 60, 86
8, 4268, Note_off_c, 9, 60, 86
8, 4416, Note_on_c, 9, 60, 86
8, 4468, Note_off_c, 9, 60, 86
8, 4608, Note_on_c, 9, 64, 86
8, 4656, Note_off_c, 9, 64, 86
8, 5184, Note_on_c, 9, 64, 86
8, 5232, Note_off_c, 9, 64, 86
8, 5376, Note_on_c, 9, 64, 86
8, 5428, Note_off_c, 9, 64, 86
8, 5760, Note_on_c, 9, 60, 86
8, 5804, Note_off_c, 9, 60, 86
8, 5952, Note_on_c, 9, 60, 86
8, 6004, Note_off_c, 9, 60, 86
8, 6144, Note_on_c, 9, 64, 86
8, 6192, Note_off_c, 9, 64, 86
8, 6720, Note_on_c, 9, 64, 86
8, 6768, Note_off_c, 9, 64, 86
8, 6912, Note_on_c, 9, 64, 86
8, 6964, Note_off_c, 9, 64, 86
8, 7296, Note_on_c, 9, 60, 86
8, 7340, Note_off_c, 9, 60, 86
8, 7488, Note_on_c, 9, 60, 86
8, 7540, Note_off_c, 9, 60, 86
8, 7680, Note_on_c, 9, 64, 86
8, 7728, Note_off_c, 9, 64, 86
8, 8256, Note_on_c, 9, 64, 86
8, 8304, Note_off_c, 9, 64, 86
8, 8448, Note_on_c, 9, 64, 86
8, 8500, Note_off_c, 9, 64, 86
8, 8832, Note_on_c, 9, 60, 86
8, 8876, Note_off_c, 9, 60, 86
8, 9024, Note_on_c, 9, 60, 86
8, 9076, Note_off_c, 9, 60, 86
8, 9216, Note_on_c, 9, 64, 86
8, 9264, Note_off_c, 9, 64, 86
8, 9792, Note_on_c, 9, 64, 86
8, 9840, Note_off_c, 9, 64, 86
8, 9984, Note_on_c, 9, 64, 86
8, 10036, Note_off_c, 9, 64, 86
8, 10368, Note_on_c, 9, 60, 86
8, 10412, Note_off_c, 9, 60, 86
8, 10560, Note_on_c, 9, 60, 86
8, 10612, Note_off_c, 9, 60, 86
8, 10752, Note_on_c, 9, 64, 86
8, 10800, Note_off_c, 9, 64, 86
8, 11328, Note_on_c, 9, 64, 86
8, 11376, Note_off_c, 9, 64, 86
8, 11520, Note_on_c, 9, 64, 86
8, 11572, Note_off_c, 9, 64, 86
8, 11904, Note_on_c, 9, 60, 86
8, 11948, Note_off_c, 9, 60, 86
8, 12096, Note_on_c, 9, 60, 86
8, 12148, Note_off_c, 9, 60, 86
8, 12288, Note_on_c, 9, 64, 86
8, 12336, Note_off_c, 9, 64, 86
8, 12864, Note_on_c, 9, 64, 86
8, 12912, Note_off_c, 9, 64, 86
8, 13056, Note_on_c, 9, 64, 86
8, 13108, Note_off_c, 9, 64, 86
8, 13440, Note_on_c, 9, 60, 86
8, 13484, Note_off_c, 9, 60, 86
8, 13632, Note_on_c, 9, 60, 86
8, 13684, Note_off_c, 9, 60, 86
8, 13824, Note_on_c, 9, 64, 86
8, 13872, Note_off_c, 9, 64, 86
8, 14400, Note_on_c, 9, 64, 86
8, 14448, Note_off_c, 9, 64, 86
8, 14592, Note_on_c, 9, 64, 86
8, 14644, Note_off_c, 9, 64, 86
8, 14976, Note_on_c, 9, 60, 86
8, 15020, Note_off_c, 9, 60, 86
8, 15168, Note_on_c, 9, 60, 86
8, 15220, Note_off_c, 9, 60, 86
8, 15360, Note_on_c, 9, 64, 86
8, 15408, Note_off_c, 9, 64, 86
8, 15936, Note_on_c, 9, 64, 86
8, 15984, Note_off_c, 9, 64, 86
8, 16128, Note_on_c, 9, 64, 86
8, 16180, Note_off_c, 9, 64, 86
8, 16512, Note_on_c, 9, 60, 86
8, 16556, Note_off_c, 9, 60, 86
8, 16704, Note_on_c, 9, 60, 86
8, 16756, Note_off_c, 9, 60, 86
8, 16896, Note_on_c, 9, 64, 86
8, 16944, Note_off_c, 9, 64, 86
8, 17472, Note_on_c, 9, 64, 86
8, 17520, Note_off_c, 9, 64, 86
8, 17664, Note_on_c, 9, 64, 86
8, 17716, Note_off_c, 9, 64, 86
8, 18048, Note_on_c, 9, 60, 86
8, 18092, Note_off_c, 9, 60, 86
8, 18240, Note_on_c, 9, 60, 86
8, 18292, Note_off_c, 9, 60, 86
8, 18432, Note_on_c, 9, 64, 86
8, 18480, Note_off_c, 9, 64, 86
8, 19008, Note_on_c, 9, 64, 86
8, 19056, Note_off_c, 9, 64, 86
8, 19200, Note_on_c, 9, 64, 86
8, 19252, Note_off_c, 9, 64, 86
8, 19584, Note_on_c, 9, 60, 86
8, 19628, Note_off_c, 9, 60, 86
8, 19776, Note_on_c, 9, 60, 86
8, 19828, Note_off_c, 9, 60, 86
8, 19968, Note_on_c, 9, 64, 86
8, 20016, Note_off_c, 9, 64, 86
8, 20544, Note_on_c, 9, 64, 86
8, 20592, Note_off_c, 9, 64, 86
8, 20736, Note_on_c, 9, 64, 86
8, 20788, Note_off_c, 9, 64, 86
8, 21120, Note_on_c, 9, 60, 86
8, 21164, Note_off_c, 9, 60, 86
8, 21312, Note_on_c, 9, 60, 86
8, 21364, Note_off_c, 9, 60, 86
8, 21504, Note_on_c, 9, 64, 86
8, 21552, Note_off_c, 9, 64, 86
8, 22080, Note_on_c, 9, 64, 86
8, 22128, Note_off_c, 9, 64, 86
8, 22272, Note_on_c, 9, 64, 86
8, 22324, Note_off_c, 9, 64, 86
8, 22656, Note_on_c, 9, 60, 86
8, 22700, Note_off_c, 9, 60, 86
8, 22848, Note_on_c, 9, 60, 86
8, 22900, Note_off_c, 9, 60, 86
8, 23040, Note_on_c, 9, 64, 86
8, 23088, Note_off_c, 9, 64, 86
8, 23616, Note_on_c, 9, 64, 86
8, 23664, Note_off_c, 9, 64, 86
8, 23808, Note_on_c, 9, 64, 86
8, 23860, Note_off_c, 9, 64, 86
8, 24192, Note_on_c, 9, 60, 86
8, 24236, Note_off_c, 9, 60, 86
8, 24384, Note_on_c, 9, 60, 86
8, 24436, Note_off_c, 9, 60, 86
8, 24576, Note_on_c, 9, 64, 86
8, 24624, Note_off_c, 9, 64, 86
8, 25152, Note_on_c, 9, 64, 86
8, 25200, Note_off_c, 9, 64, 86
8, 25344, Note_on_c, 9, 64, 86
8, 25396, Note_off_c, 9, 64, 86
8, 25728, Note_on_c, 9, 60, 86
8, 25772, Note_off_c, 9, 60, 86
8, 25920, Note_on_c, 9, 60, 86
8, 25972, Note_off_c, 9, 60, 86
8, 26112, Note_on_c, 9, 64, 86
8, 26160, Note_off_c, 9, 64, 86
8, 26688, Note_on_c, 9, 64, 86
8, 26736, Note_off_c, 9, 64, 86
8, 26880, Note_on_c, 9, 64, 86
8, 26932, Note_off_c, 9, 64, 86
8, 27264, Note_on_c, 9, 60, 86
8, 27308, Note_off_c, 9, 60, 86
8, 27456, Note_on_c, 9, 60, 86
8, 27508, Note_off_c, 9, 60, 86
8, 27648, Note_on_c, 9, 64, 86
8, 27696, Note_off_c, 9, 64, 86
8, 28224, Note_on_c, 9, 64, 86
8, 28272, Note_off_c, 9, 64, 86
8, 28416, Note_on_c, 9, 64, 86
8, 28468, Note_off_c, 9, 64, 86
8, 28800, Note_on_c, 9, 60, 86
8, 28844, Note_off_c, 9, 60, 86
8, 28992, Note_on_c, 9, 60, 86
8, 29044, Note_off_c, 9, 60, 86
8, 29184, Note_on_c, 9, 64, 86
8, 29232, Note_off_c, 9, 64, 86
8, 29760, Note_on_c, 9, 64, 86
8, 29808, Note_off_c, 9, 64, 86
8, 29952, Note_on_c, 9, 64, 86
8, 30004, Note_off_c, 9, 64, 86
8, 30336, Note_on_c, 9, 60, 86
8, 30380, Note_off_c, 9, 60, 86
8, 30528, Note_on_c, 9, 60, 86
8, 30580, Note_off_c, 9, 60, 86
8, 30720, Note_on_c, 9, 64, 86
8, 30768, Note_off_c, 9, 64, 86
8, 31296, Note_on_c, 9, 64, 86
8, 31344, Note_off_c, 9, 64, 86
8, 31488, Note_on_c, 9, 64, 86
8, 31540, Note_off_c, 9, 64, 86
8, 31872, Note_on_c, 9, 60, 86
8, 31916, Note_off_c, 9, 60, 86
8, 32064, Note_on_c, 9, 60, 86
8, 32116, Note_off_c, 9, 60, 86
8, 32256, Note_on_c, 9, 64, 86
8, 32304, Note_off_c, 9, 64, 86
8, 32832, Note_on_c, 9, 64, 86
8, 32880, Note_off_c, 9, 64, 86
8, 33024, Note_on_c, 9, 64, 86
8, 33076, Note_off_c, 9, 64, 86
8, 33408, Note_on_c, 9, 60, 86
8, 33452, Note_off_c, 9, 60, 86
8, 33600, Note_on_c, 9, 60, 86
8, 33652, Note_off_c, 9, 60, 86
8, 33792, Note_on_c, 9, 64, 86
8, 33840, Note_off_c, 9, 64, 86
8, 34368, Note_on_c, 9, 64, 86
8, 34416, Note_off_c, 9, 64, 86
8, 34560, Note_on_c, 9, 64, 86
8, 34612, Note_off_c, 9, 64, 86
8, 34944, Note_on_c, 9, 60, 86
8, 34988, Note_off_c, 9, 60, 86
8, 35136, Note_on_c, 9, 60, 86
8, 35188, Note_off_c, 9, 60, 86
8, 35328, Note_on_c, 9, 64, 86
8, 35376, Note_off_c, 9, 64, 86
8, 35904, Note_on_c, 9, 64, 86
8, 35952, Note_off_c, 9, 64, 86
8, 36096, Note_on_c, 9, 64, 86
8, 36148, Note_off_c, 9, 64, 86
8, 36480, Note_on_c, 9, 60, 86
8, 36524, Note_off_c, 9, 60, 86
8, 36672, Note_on_c, 9, 60, 86
8, 36724, Note_off_c, 9, 60, 86
8, 36864, Note_on_c, 9, 64, 86
8, 36912, Note_off_c, 9, 64, 86
8, 37440, Note_on_c, 9, 64, 86
8, 37488, Note_off_c, 9, 64, 86
8, 37632, Note_on_c, 9, 64, 86
8, 37684, Note_off_c, 9, 64, 86
8, 38016, Note_on_c, 9, 60, 86
8, 38060, Note_off_c, 9, 60, 86
8, 38208, Note_on_c, 9, 60, 86
8, 38260, Note_off_c, 9, 60, 86
8, 38400, Note_on_c, 9, 64, 86
8, 38448, Note_off_c, 9, 64, 86
8, 38976, Note_on_c, 9, 64, 86
8, 39024, Note_off_c, 9, 64, 86
8, 39168, Note_on_c, 9, 64, 86
8, 39220, Note_off_c, 9, 64, 86
8, 39552, Note_on_c, 9, 60, 86
8, 39596, Note_off_c, 9, 60, 86
8, 39744, Note_on_c, 9, 60, 86
8, 39796, Note_off_c, 9, 60, 86
8, 39936, Note_on_c, 9, 64, 86
8, 39984, Note_off_c, 9, 64, 86
8, 40512, Note_on_c, 9, 64, 86
8, 40560, Note_off_c, 9, 64, 86
8, 40704, Note_on_c, 9, 64, 86
8, 40756, Note_off_c, 9, 64, 86
8, 41088, Note_on_c, 9, 60, 86
8, 41132, Note_off_c, 9, 60, 86
8, 41280, Note_on_c, 9, 60, 86
8, 41332, Note_off_c, 9, 60, 86
8, 41472, Note_on_c, 9, 64, 86
8, 41520, Note_off_c, 9, 64, 86
8, 42048, Note_on_c, 9, 64, 86
8, 42096, Note_off_c, 9, 64, 86
8, 42240, Note_on_c, 9, 64, 86
8, 42292, Note_off_c, 9, 64, 86
8, 42624, Note_on_c, 9, 60, 86
8, 42668, Note_off_c, 9, 60, 86
8, 42816, Note_on_c, 9, 60, 86
8, 42868, Note_off_c, 9, 60, 86
8, 43008, Note_on_c, 9, 64, 86
8, 43056, Note_off_c, 9, 64, 86
8, 43584, Note_on_c, 9, 64, 86
8, 43632, Note_off_c, 9, 64, 86
8, 43776, Note_on_c, 9, 64, 86
8, 43828, Note_off_c, 9, 64, 86
8, 44160, Note_on_c, 9, 60, 86
8, 44204, Note_off_c, 9, 60, 86
8, 44352, Note_on_c, 9, 60, 86
8, 44404, Note_off_c, 9, 60, 86
8, 44544, Note_on_c, 9, 64, 86
8, 44592, Note_off_c, 9, 64, 86
8, 45120, Note_on_c, 9, 64, 86
8, 45168, Note_off_c, 9, 64, 86
8, 45312, Note_on_c, 9, 64, 86
8, 45364, Note_off_c, 9, 64, 86
8, 45696, Note_on_c, 9, 60, 86
8, 45740, Note_off_c, 9, 60, 86
8, 45888, Note_on_c, 9, 60, 86
8, 45940, Note_off_c, 9, 60, 86
8, 46080, Note_on_c, 9, 64, 86
8, 46128, Note_off_c, 9, 64, 86
8, 46656, Note_on_c, 9, 64, 86
8, 46704, Note_off_c, 9, 64, 86
8, 46848, Note_on_c, 9, 64, 86
8, 46900, Note_off_c, 9, 64, 86
8, 47232, Note_on_c, 9, 60, 86
8, 47276, Note_off_c, 9, 60, 86
8, 47424, Note_on_c, 9, 60, 86
8, 47476, Note_off_c, 9, 60, 86
8, 47476, End_track
9, 0, Start_track
9, 0, Title_t, "Bongos"
9, 0, Key_signature, 0, "major"
9, 0, Note_on_c, 9, 64, 86
9, 48, Note_off_c, 9, 64, 86
9, 576, Note_on_c, 9, 64, 86
9, 624, Note_off_c, 9, 64, 86
9, 768, Note_on_c, 9, 64, 86
9, 820, Note_off_c, 9, 64, 86
9, 1152, Note_on_c, 9, 60, 86
9, 1196, Note_off_c, 9, 60, 86
9, 1344, Note_on_c, 9, 60, 86
9, 1396, Note_off_c, 9, 60, 86
9, 1536, Note_on_c, 9, 64, 86
9, 1584, Note_off_c, 9, 64, 86
9, 2112, Note_on_c, 9, 64, 86
9, 2160, Note_off_c, 9, 64, 86
9, 2304, Note_on_c, 9, 64, 86
9, 2356, Note_off_c, 9, 64, 86
9, 2688, Note_on_c, 9, 60, 86
9, 2732, Note_off_c, 9, 60, 86
9, 2880, Note_on_c, 9, 60, 86
9, 2932, Note_off_c, 9, 60, 86
9, 3072, Note_on_c, 9, 64, 86
9, 3120, Note_off_c, 9, 64, 86
9, 3648, Note_on_c, 9, 64, 86
9, 3696, Note_off_c, 9, 64, 86
9, 3840, Note_on_c, 9, 64, 86
9, 3892, Note_off_c, 9, 64, 86
9, 4224, Note_on_c, 9, 60, 86
9, 4268, Note_off_c, 9, 60, 86
9, 4416, Note_on_c, 9, 60, 86
9, 4468, Note_off_c, 9, 60, 86
9, 4608, Note_on_c, 9, 64, 86
9, 4656, Note_off_c, 9, 64, 86
9, 5184, Note_on_c, 9, 64, 86
9, 5232, Note_off_c, 9, 64, 86
9, 5376, Note_on_c, 9, 64, 86
9, 5428, Note_off_c, 9, 64, 86
9, 5760, Note_on_c, 9, 60, 86
9, 5804, Note_off_c, 9, 60, 86
9, 5952, Note_on_c, 9, 60, 86
9, 6004, Note_off_c, 9, 60, 86
9, 6144, Note_on_c, 9, 64, 86
9, 6192, Note_off_c, 9, 64, 86
9, 6720, Note_on_c, 9, 64, 86
9, 6768, Note_off_c, 9, 64, 86
9, 6912, Note_on_c, 9, 64, 86
9, 6964, Note_off_c, 9, 64, 86
9, 7296, Note_on_c, 9, 60, 86
9, 7340, Note_off_c, 9, 60, 86
9, 7488, Note_on_c, 9, 60, 86
9, 7540, Note_off_c, 9, 60, 86
9, 7680, Note_on_c, 9, 64, 86
9, 7728, Note_off_c, 9, 64, 86
9, 8256, Note_on_c, 9, 64, 86
9, 8304, Note_off_c, 9, 64, 86
9, 8448, Note_on_c, 9, 64, 86
9, 8500, Note_off_c, 9, 64, 86
9, 8832, Note_on_c, 9, 60, 86
9, 8876, Note_off_c, 9, 60, 86
9, 9024, Note_on_c, 9, 60, 86
9, 9076, Note_off_c, 9, 60, 86
9, 9216, Note_on_c, 9, 64, 86
9, 9264, Note_off_c, 9, 64, 86
9, 9792, Note_on_c, 9, 64, 86
9, 9840, Note_off_c, 9, 64, 86
9, 9984, Note_on_c, 9, 64, 86
9, 10036, Note_off_c, 9, 64, 86
9, 10368, Note_on_c, 9, 60, 86
9, 10412, Note_off_c, 9, 60, 86
9, 10560, Note_on_c, 9, 60, 86
9, 10612, Note_off_c, 9, 60, 86
9, 10752, Note_on_c, 9, 64, 86
9, 10800, Note_off_c, 9, 64, 86
9, 11328, Note_on_c, 9, 64, 86
9, 11376, Note_off_c, 9, 64, 86
9, 11520, Note_on_c, 9, 64, 86
9, 11572, Note_off_c, 9, 64, 86
9, 11904, Note_on_c, 9, 60, 86
9, 11948, Note_off_c, 9, 60, 86
9, 12096, Note_on_c, 9, 60, 86
9, 12148, Note_off_c, 9, 60, 86
9, 12288, Note_on_c, 9, 64, 86
9, 12336, Note_off_c, 9, 64, 86
9, 12864, Note_on_c, 9, 64, 86
9, 12912, Note_off_c, 9, 64, 86
9, 13056, Note_on_c, 9, 64, 86
9, 13108, Note_off_c, 9, 64, 86
9, 13440, Note_on_c, 9, 60, 86
9, 13484, Note_off_c, 9, 60, 86
9, 13632, Note_on_c, 9, 60, 86
9, 13684, Note_off_c, 9, 60, 86
9, 13824, Note_on_c, 9, 64, 86
9, 13872, Note_off_c, 9, 64, 86
9, 14400, Note_on_c, 9, 64, 86
9, 14448, Note_off_c, 9, 64, 86
9, 14592, Note_on_c, 9, 64, 86
9, 14644, Note_off_c, 9, 64, 86
9, 14976, Note_on_c, 9, 60, 86
9, 15020, Note_off_c, 9, 60, 86
9, 15168, Note_on_c, 9, 60, 86
9, 15220, Note_off_c, 9, 60, 86
9, 15360, Note_on_c, 9, 64, 86
9, 15408, Note_off_c, 9, 64, 86
9, 15936, Note_on_c, 9, 64, 86
9, 15984, Note_off_c, 9, 64, 86
9, 16128, Note_on_c, 9, 64, 86
9, 16180, Note_off_c, 9, 64, 86
9, 16512, Note_on_c, 9, 60, 86
9, 16556, Note_off_c, 9, 60, 86
9, 16704, Note_on_c, 9, 60, 86
9, 16756, Note_off_c, 9, 60, 86
9, 16896, Note_on_c, 9, 64, 86
9, 16944, Note_off_c, 9, 64, 86
9, 17472, Note_on_c, 9, 64, 86
9, 17520, Note_off_c, 9, 64, 86
9, 17664, Note_on_c, 9, 64, 86
9, 17716, Note_off_c, 9, 64, 86
9, 18048, Note_on_c, 9, 60, 86
9, 18092, Note_off_c, 9, 60, 86
9, 18240, Note_on_c, 9, 60, 86
9, 18292, Note_off_c, 9, 60, 86
9, 18432, Note_on_c, 9, 64, 86
9, 18480, Note_off_c, 9, 64, 86
9, 19008, Note_on_c, 9, 64, 86
9, 19056, Note_off_c, 9, 64, 86
9, 19200, Note_on_c, 9, 64, 86
9, 19252, Note_off_c, 9, 64, 86
9, 19584, Note_on_c, 9, 60, 86
9, 19628, Note_off_c, 9, 60, 86
9, 19776, Note_on_c, 9, 60, 86
9, 19828, Note_off_c, 9, 60, 86
9, 19968, Note_on_c, 9, 64, 86
9, 20016, Note_off_c, 9, 64, 86
9, 20544, Note_on_c, 9, 64, 86
9, 20592, Note_off_c, 9, 64, 86
9, 20736, Note_on_c, 9, 64, 86
9, 20788, Note_off_c, 9, 64, 86
9, 21120, Note_on_c, 9, 60, 86
9, 21164, Note_off_c, 9, 60, 86
9, 21312, Note_on_c, 9, 60, 86
9, 21364, Note_off_c, 9, 60, 86
9, 21504, Note_on_c, 9, 64, 86
9, 21552, Note_off_c, 9, 64, 86
9, 22080, Note_on_c, 9, 64, 86
9, 22128, Note_off_c, 9, 64, 86
9, 22272, Note_on_c, 9, 64, 86
9, 22324, Note_off_c, 9, 64, 86
9, 22656, Note_on_c, 9, 60, 86
9, 22700, Note_off_c, 9, 60, 86
9, 22848, Note_on_c, 9, 60, 86
9, 22900, Note_off_c, 9, 60, 86
9, 23040, Note_on_c, 9, 64, 86
9, 23088, Note_off_c, 9, 64, 86
9, 23616, Note_on_c, 9, 64, 86
9, 23664, Note_off_c, 9, 64, 86
9, 23808, Note_on_c, 9, 64, 86
9, 23860, Note_off_c, 9, 64, 86
9, 24192, Note_on_c, 9, 60, 86
9, 24236, Note_off_c, 9, 60, 86
9, 24384, Note_on_c, 9, 60, 86
9, 24436, Note_off_c, 9, 60, 86
9, 24576, Note_on_c, 9, 64, 86
9, 24624, Note_off_c, 9, 64, 86
9, 25152, Note_on_c, 9, 64, 86
9, 25200, Note_off_c, 9, 64, 86
9, 25344, Note_on_c, 9, 64, 86
9, 25396, Note_off_c, 9, 64, 86
9, 25728, Note_on_c, 9, 60, 86
9, 25772, Note_off_c, 9, 60, 86
9, 25920, Note_on_c, 9, 60, 86
9, 25972, Note_off_c, 9, 60, 86
9, 26112, Note_on_c, 9, 64, 86
9, 26160, Note_off_c, 9, 64, 86
9, 26688, Note_on_c, 9, 64, 86
9, 26736, Note_off_c, 9, 64, 86
9, 26880, Note_on_c, 9, 64, 86
9, 26932, Note_off_c, 9, 64, 86
9, 27264, Note_on_c, 9, 60, 86
9, 27308, Note_off_c, 9, 60, 86
9, 27456, Note_on_c, 9, 60, 86
9, 27508, Note_off_c, 9, 60, 86
9, 27648, Note_on_c, 9, 64, 86
9, 27696, Note_off_c, 9, 64, 86
9, 28224, Note_on_c, 9, 64, 86
9, 28272, Note_off_c, 9, 64, 86
9, 28416, Note_on_c, 9, 64, 86
9, 28468, Note_off_c, 9, 64, 86
9, 28800, Note_on_c, 9, 60, 86
9, 28844, Note_off_c, 9, 60, 86
9, 28992, Note_on_c, 9, 60, 86
9, 29044, Note_off_c, 9, 60, 86
9, 29184, Note_on_c, 9, 64, 86
9, 29232, Note_off_c, 9, 64, 86
9, 29760, Note_on_c, 9, 64, 86
9, 29808, Note_off_c, 9, 64, 86
9, 29952, Note_on_c, 9, 64, 86
9, 30004, Note_off_c, 9, 64, 86
9, 30336, Note_on_c, 9, 60, 86
9, 30380, Note_off_c, 9, 60, 86
9, 30528, Note_on_c, 9, 60, 86
9, 30580, Note_off_c, 9, 60, 86
9, 30720, Note_on_c, 9, 64, 86
9, 30768, Note_off_c, 9, 64, 86
9, 31296, Note_on_c, 9, 64, 86
9, 31344, Note_off_c, 9, 64, 86
9, 31488, Note_on_c, 9, 64, 86
9, 31540, Note_off_c, 9, 64, 86
9, 31872, Note_on_c, 9, 60, 86
9, 31916, Note_off_c, 9, 60, 86
9, 32064, Note_on_c, 9, 60, 86
9, 32116, Note_off_c, 9, 60, 86
9, 32256, Note_on_c, 9, 64, 86
9, 32304, Note_off_c, 9, 64, 86
9, 32832, Note_on_c, 9, 64, 86
9, 32880, Note_off_c, 9, 64, 86
9, 33024, Note_on_c, 9, 64, 86
9, 33076, Note_off_c, 9, 64, 86
9, 33408, Note_on_c, 9, 60, 86
9, 33452, Note_off_c, 9, 60, 86
9, 33600, Note_on_c, 9, 60, 86
9, 33652, Note_off_c, 9, 60, 86
9, 33792, Note_on_c, 9, 64, 86
9, 33840, Note_off_c, 9, 64, 86
9, 34368, Note_on_c, 9, 64, 86
9, 34416, Note_off_c, 9, 64, 86
9, 34560, Note_on_c, 9, 64, 86
9, 34612, Note_off_c, 9, 64, 86
9, 34944, Note_on_c, 9, 60, 86
9, 34988, Note_off_c, 9, 60, 86
9, 35136, Note_on_c, 9, 60, 86
9, 35188, Note_off_c, 9, 60, 86
9, 35328, Note_on_c, 9, 64, 86
9, 35376, Note_off_c, 9, 64, 86
9, 35904, Note_on_c, 9, 64, 86
9, 35952, Note_off_c, 9, 64, 86
9, 36096, Note_on_c, 9, 64, 86
9, 36148, Note_off_c, 9, 64, 86
9, 36480, Note_on_c, 9, 60, 86
9, 36524, Note_off_c, 9, 60, 86
9, 36672, Note_on_c, 9, 60, 86
9, 36724, Note_off_c, 9, 60, 86
9, 36864, Note_on_c, 9, 64, 86
9, 36912, Note_off_c, 9, 64, 86
9, 37440, Note_on_c, 9, 64, 86
9, 37488, Note_off_c, 9, 64, 86
9, 37632, Note_on_c, 9, 64, 86
9, 37684, Note_off_c, 9, 64, 86
9, 38016, Note_on_c, 9, 60, 86
9, 38060, Note_off_c, 9, 60, 86
9, 38208, Note_on_c, 9, 60, 86
9, 38260, Note_off_c, 9, 60, 86
9, 38400, Note_on_c, 9, 64, 86
9, 38448, Note_off_c, 9, 64, 86
9, 38976, Note_on_c, 9, 64, 86
9, 39024, Note_off_c, 9, 64, 86
9, 39168, Note_on_c, 9, 64, 86
9, 39220, Note_off_c, 9, 64, 86
9, 39552, Note_on_c, 9, 60, 86
9, 39596, Note_off_c, 9, 60, 86
9, 39744, Note_on_c, 9, 60, 86
9, 39796, Note_off_c, 9, 60, 86
9, 39936, Note_on_c, 9, 64, 86
9, 39984, Note_off_c, 9, 64, 86
9, 40512, Note_on_c, 9, 64, 86
9, 40560, Note_off_c, 9, 64, 86
9, 40704, Note_on_c, 9, 64, 86
9, 40756, Note_off_c, 9, 64, 86
9, 41088, Note_on_c, 9, 60, 86
9, 41132, Note_off_c, 9, 60, 86
9, 41280, Note_on_c, 9, 60, 86
9, 41332, Note_off_c, 9, 60, 86
9, 41472, Note_on_c, 9, 64, 86
9, 41520, Note_off_c, 9, 64, 86
9, 42048, Note_on_c, 9, 64, 86
9, 42096, Note_off_c, 9, 64, 86
9, 42240, Note_on_c, 9, 64, 86
9, 42292, Note_off_c, 9, 64, 86
9, 42624, Note_on_c, 9, 60, 86
9, 42668, Note_off_c, 9, 60, 86
9, 42816, Note_on_c, 9, 60, 86
9, 42868, Note_off_c, 9, 60, 86
9, 43008, Note_on_c, 9, 64, 86
9, 43056, Note_off_c, 9, 64, 86
9, 43584, Note_on_c, 9, 64, 86
9, 43632, Note_off_c, 9, 64, 86
9, 43776, Note_on_c, 9, 64, 86
9, 43828, Note_off_c, 9, 64, 86
9, 44160, Note_on_c, 9, 60, 86
9, 44204, Note_off_c, 9, 60, 86
9, 44352, Note_on_c, 9, 60, 86
9, 44404, Note_off_c, 9, 60, 86
9, 44544, Note_on_c, 9, 64, 86
9, 44592, Note_off_c, 9, 64, 86
9, 45120, Note_on_c, 9, 64, 86
9, 45168, Note_off_c, 9, 64, 86
9, 45312, Note_on_c, 9, 64, 86
9, 45364, Note_off_c, 9, 64, 86
9, 45696, Note_on_c, 9, 60, 86
9, 45740, Note_off_c, 9, 60, 86
9, 45888, Note_on_c, 9, 60, 86
9, 45940, Note_off_c, 9, 60, 86
9, 46080, Note_on_c, 9, 64, 86
9, 46128, Note_off_c, 9, 64, 86
9, 46656, Note_on_c, 9, 64, 86
9, 46704, Note_off_c, 9, 64, 86
9, 46848, Note_on_c, 9, 64, 86
9, 46900, Note_off_c, 9, 64, 86
9, 47232, Note_on_c, 9, 60, 86
9, 47276, Note_off_c, 9, 60, 86
9, 47424, Note_on_c, 9, 60, 86
9, 47476, Note_off_c, 9, 60, 86
9, 47476, End_track
10, 0, Start_track
10, 0, Title_t, "NewAge"
10, 0, Control_c, 8, 0, 0
10, 0, Program_c, 8, 88
10, 0, Key_signature, 0, "major"
10, 3072, Note_on_c, 8, 65, 44
10, 3424, Note_off_c, 8, 65, 44
10, 3456, Note_on_c, 8, 63, 54
10, 3456, Note_on_c, 8, 70, 54
10, 3808, Note_off_c, 8, 63, 54
10, 3808, Note_off_c, 8, 70, 54
10, 3840, Note_on_c, 8, 62, 64
10, 3840, Note_on_c, 8, 69, 64
10, 4188, Note_off_c, 8, 62, 64
10, 4192, Note_off_c, 8, 69, 64
10, 4224, Note_on_c, 8, 63, 61
10, 4224, Note_on_c, 8, 70, 61
10, 4572, Note_off_c, 8, 63, 61
10, 4572, Note_off_c, 8, 70, 61
10, 4592, Note_on_c, 8, 60, 75
10, 4608, Note_on_c, 8, 67, 75
10, 5932, Note_off_c, 8, 60, 75
10, 5948, Note_off_c, 8, 67, 75
10, 6144, Note_on_c, 8, 65, 65
10, 6492, Note_off_c, 8, 65, 65
10, 6528, Note_on_c, 8, 53, 73
10, 6528, Note_on_c, 8, 63, 73
10, 6876, Note_off_c, 8, 63, 73
10, 6912, Note_on_c, 8, 61, 73
10, 7260, Note_off_c, 8, 61, 73
10, 7296, Note_on_c, 8, 59, 78
10, 7644, Note_off_c, 8, 59, 78
10, 7680, Note_off_c, 8, 53, 73
10, 7680, Note_on_c, 8, 66, 65
10, 8028, Note_off_c, 8, 66, 65
10, 8064, Note_on_c, 8, 64, 73
10, 8412, Note_off_c, 8, 64, 73
10, 8448, Note_on_c, 8, 53, 73
10, 8448, Note_on_c, 8, 62, 73
10, 8796, Note_off_c, 8, 62, 73
10, 8832, Note_on_c, 8, 60, 78
10, 9180, Note_off_c, 8, 60, 78
10, 9216, Note_on_c, 8, 65, 65
10, 9248, Note_off_c, 8, 53, 73
10, 9564, Note_off_c, 8, 65, 65
10, 9600, Note_on_c, 8, 55, 73
10, 9600, Note_on_c, 8, 63, 65
10, 9948, Note_off_c, 8, 63, 65
10, 9984, Note_on_c, 8, 62, 65
10, 10332, Note_off_c, 8, 62, 65
10, 10368, Note_on_c, 8, 60, 65
10, 10716, Note_off_c, 8, 60, 65
10, 10752, Note_off_c, 8, 55, 73
10, 10752, Note_on_c, 8, 66, 75
10, 11100, Note_off_c, 8, 66, 75
10, 11136, Note_on_c, 8, 64, 86
10, 12056, Note_off_c, 8, 64, 86
10, 12288, Note_on_c, 8, 66, 75
10, 12636, Note_off_c, 8, 66, 75
10, 12672, Note_on_c, 8, 64, 86
10, 13592, Note_off_c, 8, 64, 86
10, 13824, Note_on_c, 8, 63, 79
10, 14172, Note_off_c, 8, 63, 79
10, 14208, Note_on_c, 8, 64, 93
10, 15360, Note_on_c, 8, 63, 44
10, 15548, Note_off_c, 8, 64, 93
10, 16660, Note_off_c, 8, 63, 44
10, 16896, Note_on_c, 8, 65, 44
10, 17096, Note_off_c, 8, 65, 44
10, 17280, Note_on_c, 8, 63, 54
10, 17280, Note_on_c, 8, 70, 54
10, 17480, Note_off_c, 8, 63, 54
10, 17480, Note_off_c, 8, 70, 54
10, 17664, Note_on_c, 8, 62, 64
10, 17664, Note_on_c, 8, 69, 64
10, 18012, Note_off_c, 8, 62, 64
10, 18016, Note_off_c, 8, 69, 64
10, 18048, Note_on_c, 8, 63, 61
10, 18048, Note_on_c, 8, 70, 61
10, 18396, Note_off_c, 8, 63, 61
10, 18396, Note_off_c, 8, 70, 61
10, 18416, Note_on_c, 8, 60, 75
10, 18432, Note_on_c, 8, 67, 75
10, 19756, Note_off_c, 8, 60, 75
10, 19772, Note_off_c, 8, 67, 75
10, 19968, Note_on_c, 8, 65, 65
10, 20316, Note_off_c, 8, 65, 65
10, 20352, Note_on_c, 8, 53, 73
10, 20352, Note_on_c, 8, 63, 73
10, 20700, Note_off_c, 8, 63, 73
10, 20736, Note_on_c, 8, 61, 73
10, 21084, Note_off_c, 8, 61, 73
10, 21120, Note_on_c, 8, 59, 78
10, 21468, Note_off_c, 8, 59, 78
10, 21504, Note_off_c, 8, 53, 73
10, 21504, Note_on_c, 8, 66, 65
10, 21852, Note_off_c, 8, 66, 65
10, 21888, Note_on_c, 8, 53, 73
10, 21888, Note_on_c, 8, 64, 73
10, 22236, Note_off_c, 8, 64, 73
10, 22272, Note_on_c, 8, 62, 73
10, 22620, Note_off_c, 8, 62, 73
10, 22656, Note_on_c, 8, 60, 78
10, 23004, Note_off_c, 8, 60, 78
10, 23040, Note_off_c, 8, 53, 73
10, 23040, Note_on_c, 8, 65, 65
10, 23388, Note_off_c, 8, 65, 65
10, 23424, Note_on_c, 8, 55, 73
10, 23424, Note_on_c, 8, 63, 65
10, 23772, Note_off_c, 8, 63, 65
10, 23808, Note_on_c, 8, 62, 65
10, 24156, Note_off_c, 8, 62, 65
10, 24192, Note_on_c, 8, 60, 65
10, 24540, Note_off_c, 8, 60, 65
10, 24576, Note_off_c, 8, 55, 73
10, 24576, Note_on_c, 8, 66, 75
10, 24924, Note_off_c, 8, 66, 75
10, 24960, Note_on_c, 8, 64, 86
10, 25880, Note_off_c, 8, 64, 86
10, 26112, Note_on_c, 8, 66, 75
10, 26460, Note_off_c, 8, 66, 75
10, 26496, Note_on_c, 8, 64, 86
10, 27416, Note_off_c, 8, 64, 86
10, 27648, Note_on_c, 8, 63, 79
10, 27996, Note_off_c, 8, 63, 79
10, 28032, Note_on_c, 8, 64, 93
10, 29184, Note_on_c, 8, 63, 44
10, 29372, Note_off_c, 8, 64, 93
10, 30484, Note_off_c, 8, 63, 44
10, 30720, Note_on_c, 8, 47, 44
10, 30720, Note_on_c, 8, 54, 44
10, 30920, Note_off_c, 8, 47, 44
10, 30920, Note_off_c, 8, 54, 44
10, 31104, Note_on_c, 8, 52, 44
10, 32256, Note_on_c, 8, 39, 44
10, 32304, Note_off_c, 8, 52, 44
10, 32604, Note_off_c, 8, 39, 44
10, 32640, Note_on_c, 8, 40, 44
10, 33740, Note_off_c, 8, 40, 44
10, 33792, Note_on_c, 8, 47, 44
10, 33792, Note_on_c, 8, 54, 44
10, 33992, Note_off_c, 8, 47, 44
10, 33992, Note_off_c, 8, 54, 44
10, 34176, Note_on_c, 8, 52, 44
10, 35328, Note_on_c, 8, 39, 44
10, 35376, Note_off_c, 8, 52, 44
10, 35676, Note_off_c, 8, 39, 44
10, 35712, Note_on_c, 8, 40, 44
10, 36812, Note_off_c, 8, 40, 44
10, 36864, Note_on_c, 8, 47, 44
10, 36864, Note_on_c, 8, 54, 44
10, 37064, Note_off_c, 8, 47, 44
10, 37064, Note_off_c, 8, 54, 44
10, 37248, Note_on_c, 8, 52, 44
10, 38400, Note_on_c, 8, 39, 44
10, 38448, Note_off_c, 8, 52, 44
10, 38748, Note_off_c, 8, 39, 44
10, 38784, Note_on_c, 8, 40, 44
10, 39884, Note_off_c, 8, 40, 44
10, 39936, Note_on_c, 8, 47, 44
10, 39936, Note_on_c, 8, 54, 44
10, 40136, Note_off_c, 8, 47, 44
10, 40136, Note_off_c, 8, 54, 44
10, 40320, Note_on_c, 8, 52, 44
10, 41472, Note_on_c, 8, 39, 44
10, 41520, Note_off_c, 8, 52, 44
10, 41820, Note_off_c, 8, 39, 44
10, 41856, Note_on_c, 8, 40, 44
10, 42956, Note_off_c, 8, 40, 44
10, 43008, Note_on_c, 8, 47, 44
10, 43008, Note_on_c, 8, 54, 44
10, 43208, Note_off_c, 8, 47, 44
10, 43208, Note_off_c, 8, 54, 44
10, 43392, Note_on_c, 8, 52, 44
10, 44544, Note_on_c, 8, 39, 44
10, 44592, Note_off_c, 8, 52, 44
10, 44892, Note_off_c, 8, 39, 44
10, 44928, Note_on_c, 8, 40, 44
10, 46028, Note_off_c, 8, 40, 44
10, 46080, Note_on_c, 8, 47, 44
10, 46080, Note_on_c, 8, 54, 44
10, 46280, Note_off_c, 8, 47, 44
10, 46280, Note_off_c, 8, 54, 44
10, 46464, Note_on_c, 8, 52, 44
10, 47664, Note_off_c, 8, 52, 44
10, 47664, End_track
11, 0, Start_track
11, 0, Key_signature, 0, "major"
11, 0, End_track
12, 0, Start_track
12, 0, Key_signature, 0, "major"
12, 0, End_track
13, 0, Start_track
13, 0, Key_signature, 0, "major"
13, 0, End_track
0, 0, End_of_file
