0, 0, Header, 1, 3, 384
1, 0, Start_track
1, 0, Tempo, 540540
1, 0, Time_signature, 4, 2, 24, 8
1, 145920, End_track
2, 0, Start_track
2, 0, Title_t, "Piano"
2, 0, Note_on_c, 0, 45, 87
2, 0, Note_on_c, 0, 52, 87
2, 0, Note_on_c, 0, 57, 87
2, 0, Note_on_c, 0, 60, 87
2, 0, Note_on_c, 0, 64, 87
2, 384, Note_off_c, 0, 64, 22
2, 384, Note_off_c, 0, 60, 45
2, 384, Note_off_c, 0, 57, 30
2, 384, Note_off_c, 0, 52, 36
2, 384, Note_off_c, 0, 45, 42
2, 384, Note_on_c, 0, 45, 87
2, 384, Note_on_c, 0, 52, 87
2, 384, Note_on_c, 0, 55, 87
2, 384, Note_on_c, 0, 59, 87
2, 384, Note_on_c, 0, 64, 87
2, 768, Note_off_c, 0, 64, 30
2, 768, Note_off_c, 0, 59, 33
2, 768, Note_off_c, 0, 55, 37
2, 768, Note_off_c, 0, 52, 38
2, 768, Note_off_c, 0, 45, 41
2, 768, Note_on_c, 0, 45, 79
2, 768, Note_on_c, 0, 52, 75
2, 768, Note_on_c, 0, 55, 73
2, 768, Note_on_c, 0, 57, 74
2, 768, Note_on_c, 0, 64, 74
2, 816, Note_off_c, 0, 64, 33
2, 816, Note_off_c, 0, 57, 57
2, 816, Note_off_c, 0, 55, 44
2, 816, Note_off_c, 0, 52, 35
2, 816, Note_off_c, 0, 45, 42
2, 960, Note_on_c, 0, 45, 85
2, 960, Note_on_c, 0, 52, 85
2, 960, Note_on_c, 0, 55, 85
2, 960, Note_on_c, 0, 64, 85
2, 1344, Note_off_c, 0, 64, 32
2, 1344, Note_off_c, 0, 55, 41
2, 1344, Note_off_c, 0, 52, 37
2, 1344, Note_off_c, 0, 45, 42
2, 1344, Note_on_c, 0, 38, 78
2, 1344, Note_on_c, 0, 50, 76
2, 1344, Note_on_c, 0, 54, 77
2, 1344, Note_on_c, 0, 57, 79
2, 1344, Note_on_c, 0, 62, 76
2, 3072, Note_off_c, 0, 62, 39
2, 3072, Note_off_c, 0, 57, 40
2, 3072, Note_off_c, 0, 54, 18
2, 3072, Note_off_c, 0, 50, 27
2, 3072, Note_off_c, 0, 38, 35
2, 3072, Note_on_c, 0, 48, 61
2, 3072, Note_on_c, 0, 55, 79
2, 3072, Note_on_c, 0, 60, 73
2, 3072, Note_on_c, 0, 64, 75
2, 3456, Note_off_c, 0, 64, 36
2, 3456, Note_off_c, 0, 60, 48
2, 3456, Note_off_c, 0, 55, 38
2, 3456, Note_off_c, 0, 48, 52
2, 3456, Note_on_c, 0, 48, 83
2, 3456, Note_on_c, 0, 54, 84
2, 3456, Note_on_c, 0, 60, 83
2, 3456, Note_on_c, 0, 64, 78
2, 3840, Note_off_c, 0, 64, 34
2, 3840, Note_off_c, 0, 60, 53
2, 3840, Note_off_c, 0, 54, 46
2, 3840, Note_off_c, 0, 48, 45
2, 3840, Note_on_c, 0, 48, 93
2, 3840, Note_on_c, 0, 52, 93
2, 3840, Note_on_c, 0, 55, 66
2, 3840, Note_on_c, 0, 60, 66
2, 3840, Note_on_c, 0, 64, 66
2, 3888, Note_off_c, 0, 64, 64
2, 3888, Note_off_c, 0, 60, 64
2, 3888, Note_off_c, 0, 55, 64
2, 3888, Note_off_c, 0, 52, 64
2, 3888, Note_off_c, 0, 48, 58
2, 4032, Note_on_c, 0, 48, 81
2, 4032, Note_on_c, 0, 52, 83
2, 4032, Note_on_c, 0, 55, 86
2, 4032, Note_on_c, 0, 60, 80
2, 4032, Note_on_c, 0, 64, 78
2, 4416, Note_off_c, 0, 64, 25
2, 4416, Note_off_c, 0, 60, 34
2, 4416, Note_off_c, 0, 55, 41
2, 4416, Note_off_c, 0, 52, 34
2, 4416, Note_off_c, 0, 48, 38
2, 4416, Note_on_c, 0, 45, 85
2, 4416, Note_on_c, 0, 52, 85
2, 4416, Note_on_c, 0, 57, 79
2, 4416, Note_on_c, 0, 61, 75
2, 4416, Note_on_c, 0, 64, 79
2, 7680, Note_off_c, 0, 64, 22
2, 7680, Note_off_c, 0, 61, 2
2, 7680, Note_off_c, 0, 57, 25
2, 7680, Note_off_c, 0, 52, 36
2, 7680, Note_off_c, 0, 45, 32
2, 7680, Note_on_c, 0, 43, 72
2, 7872, Note_on_c, 0, 50, 60
2, 8064, Note_on_c, 0, 55, 76
2, 8064, Note_on_c, 0, 59, 67
2, 8191, Note_off_c, 0, 50, 10
2, 8640, Note_on_c, 0, 50, 53
2, 8683, Note_off_c, 0, 55, 31
2, 8684, Note_off_c, 0, 59, 31
2, 8832, Note_on_c, 0, 55, 83
2, 8832, Note_on_c, 0, 59, 76
2, 8884, Note_off_c, 0, 43, 24
2, 8898, Note_off_c, 0, 50, 30
2, 9024, Note_on_c, 0, 50, 67
2, 9216, Note_on_c, 0, 43, 76
2, 9219, Note_off_c, 0, 50, 23
2, 9235, Note_off_c, 0, 55, 19
2, 9301, Note_off_c, 0, 59, 25
2, 9408, Note_on_c, 0, 48, 81
2, 9600, Note_on_c, 0, 52, 76
2, 9600, Note_on_c, 0, 55, 85
2, 9600, Note_on_c, 0, 60, 85
2, 9984, Note_off_c, 0, 48, 42
2, 10167, Note_off_c, 0, 52, 32
2, 10171, Note_off_c, 0, 60, 41
2, 10176, Note_on_c, 0, 48, 63
2, 10180, Note_off_c, 0, 55, 28
2, 10368, Note_on_c, 0, 52, 89
2, 10368, Note_on_c, 0, 55, 88
2, 10368, Note_on_c, 0, 60, 89
2, 10532, Note_off_c, 0, 48, 11
2, 10546, Note_off_c, 0, 43, 21
2, 10560, Note_on_c, 0, 50, 81
2, 10752, Note_off_c, 0, 60, 22
2, 10752, Note_off_c, 0, 55, 28
2, 10752, Note_off_c, 0, 52, 25
2, 10752, Note_on_c, 0, 43, 80
2, 10773, Note_off_c, 0, 50, 39
2, 10944, Note_on_c, 0, 50, 58
2, 11136, Note_on_c, 0, 55, 85
2, 11136, Note_on_c, 0, 59, 82
2, 11180, Note_off_c, 0, 50, 28
2, 11712, Note_on_c, 0, 50, 73
2, 11736, Note_off_c, 0, 59, 35
2, 11743, Note_off_c, 0, 55, 39
2, 11904, Note_on_c, 0, 55, 89
2, 11904, Note_on_c, 0, 59, 89
2, 11920, Note_off_c, 0, 50, 33
2, 12089, Note_off_c, 0, 43, 26
2, 12096, Note_on_c, 0, 50, 71
2, 12288, Note_on_c, 0, 43, 79
2, 12297, Note_off_c, 0, 59, 42
2, 12304, Note_off_c, 0, 55, 17
2, 12331, Note_off_c, 0, 50, 20
2, 12480, Note_on_c, 0, 48, 76
2, 12672, Note_on_c, 0, 52, 91
2, 12672, Note_on_c, 0, 55, 88
2, 12672, Note_on_c, 0, 60, 90
2, 13117, Note_off_c, 0, 48, 10
2, 13248, Note_on_c, 0, 48, 75
2, 13301, Note_off_c, 0, 60, 39
2, 13301, Note_off_c, 0, 52, 31
2, 13312, Note_off_c, 0, 55, 27
2, 13440, Note_on_c, 0, 52, 78
2, 13440, Note_on_c, 0, 55, 84
2, 13440, Note_on_c, 0, 60, 85
2, 13824, Note_off_c, 0, 60, 45
2, 13824, Note_off_c, 0, 55, 35
2, 13824, Note_off_c, 0, 52, 62
2, 13824, Note_off_c, 0, 48, 10
2, 13824, Note_off_c, 0, 43, 12
2, 13824, Note_on_c, 0, 43, 72
2, 14016, Note_on_c, 0, 50, 60
2, 14208, Note_on_c, 0, 55, 76
2, 14208, Note_on_c, 0, 59, 67
2, 14335, Note_off_c, 0, 50, 10
2, 14784, Note_on_c, 0, 50, 53
2, 14827, Note_off_c, 0, 55, 31
2, 14828, Note_off_c, 0, 59, 31
2, 14976, Note_on_c, 0, 55, 83
2, 14976, Note_on_c, 0, 59, 76
2, 15028, Note_off_c, 0, 43, 24
2, 15042, Note_off_c, 0, 50, 30
2, 15168, Note_on_c, 0, 50, 67
2, 15360, Note_on_c, 0, 43, 76
2, 15363, Note_off_c, 0, 50, 23
2, 15379, Note_off_c, 0, 55, 19
2, 15445, Note_off_c, 0, 59, 25
2, 15552, Note_on_c, 0, 48, 81
2, 15744, Note_on_c, 0, 52, 76
2, 15744, Note_on_c, 0, 55, 85
2, 15744, Note_on_c, 0, 60, 85
2, 16128, Note_off_c, 0, 48, 42
2, 16311, Note_off_c, 0, 52, 32
2, 16315, Note_off_c, 0, 60, 41
2, 16320, Note_on_c, 0, 48, 63
2, 16324, Note_off_c, 0, 55, 28
2, 16512, Note_on_c, 0, 52, 89
2, 16512, Note_on_c, 0, 55, 88
2, 16512, Note_on_c, 0, 60, 89
2, 16676, Note_off_c, 0, 48, 11
2, 16690, Note_off_c, 0, 43, 21
2, 16704, Note_on_c, 0, 50, 81
2, 16896, Note_off_c, 0, 60, 22
2, 16896, Note_off_c, 0, 55, 28
2, 16896, Note_off_c, 0, 52, 25
2, 16896, Note_on_c, 0, 43, 80
2, 16917, Note_off_c, 0, 50, 39
2, 17088, Note_on_c, 0, 50, 58
2, 17280, Note_on_c, 0, 55, 85
2, 17280, Note_on_c, 0, 59, 82
2, 17324, Note_off_c, 0, 50, 28
2, 17856, Note_on_c, 0, 50, 73
2, 17880, Note_off_c, 0, 59, 35
2, 17887, Note_off_c, 0, 55, 39
2, 18048, Note_on_c, 0, 55, 89
2, 18048, Note_on_c, 0, 59, 89
2, 18064, Note_off_c, 0, 50, 33
2, 18233, Note_off_c, 0, 43, 26
2, 18240, Note_on_c, 0, 50, 71
2, 18432, Note_on_c, 0, 43, 79
2, 18441, Note_off_c, 0, 59, 42
2, 18448, Note_off_c, 0, 55, 17
2, 18475, Note_off_c, 0, 50, 20
2, 18624, Note_on_c, 0, 48, 76
2, 18816, Note_on_c, 0, 52, 91
2, 18816, Note_on_c, 0, 55, 88
2, 18816, Note_on_c, 0, 60, 90
2, 19261, Note_off_c, 0, 48, 10
2, 19392, Note_on_c, 0, 48, 75
2, 19445, Note_off_c, 0, 60, 39
2, 19445, Note_off_c, 0, 52, 31
2, 19456, Note_off_c, 0, 55, 27
2, 19584, Note_on_c, 0, 52, 78
2, 19584, Note_on_c, 0, 55, 84
2, 19584, Note_on_c, 0, 60, 85
2, 19968, Note_off_c, 0, 60, 45
2, 19968, Note_off_c, 0, 55, 35
2, 19968, Note_off_c, 0, 52, 62
2, 19968, Note_off_c, 0, 48, 10
2, 19968, Note_off_c, 0, 43, 12
2, 19968, Note_on_c, 0, 46, 85
2, 20160, Note_on_c, 0, 50, 68
2, 20352, Note_on_c, 0, 53, 91
2, 20352, Note_on_c, 0, 58, 80
2, 20352, Note_on_c, 0, 60, 86
2, 20448, Note_off_c, 0, 50, 28
2, 20736, Note_off_c, 0, 60, 29
2, 20736, Note_off_c, 0, 58, 22
2, 20736, Note_off_c, 0, 53, 31
2, 20736, Note_on_c, 0, 50, 53
2, 20928, Note_on_c, 0, 53, 66
2, 20928, Note_on_c, 0, 58, 66
2, 20928, Note_on_c, 0, 60, 66
2, 20995, Note_off_c, 0, 50, 31
2, 21120, Note_on_c, 0, 48, 58
2, 21190, Note_off_c, 0, 48, 28
2, 21296, Note_off_c, 0, 46, 17
2, 21312, Note_off_c, 0, 60, 33
2, 21312, Note_off_c, 0, 58, 32
2, 21312, Note_off_c, 0, 53, 39
2, 21312, Note_on_c, 0, 52, 66
2, 21312, Note_on_c, 0, 55, 78
2, 21312, Note_on_c, 0, 60, 68
2, 21504, Note_on_c, 0, 36, 81
2, 21696, Note_off_c, 0, 55, 26
2, 21696, Note_off_c, 0, 52, 20
2, 21696, Note_on_c, 0, 48, 53
2, 21724, Note_off_c, 0, 60, 32
2, 21888, Note_on_c, 0, 52, 92
2, 21888, Note_on_c, 0, 55, 91
2, 21888, Note_on_c, 0, 60, 95
2, 21945, Note_off_c, 0, 48, 33
2, 22080, Note_on_c, 0, 48, 57
2, 22151, Note_off_c, 0, 48, 35
2, 22464, Note_off_c, 0, 60, 42
2, 22464, Note_off_c, 0, 55, 30
2, 22464, Note_off_c, 0, 52, 33
2, 22464, Note_on_c, 0, 52, 87
2, 22464, Note_on_c, 0, 55, 83
2, 22464, Note_on_c, 0, 60, 85
2, 22656, Note_off_c, 0, 36, 29
2, 22656, Note_on_c, 0, 48, 65
2, 22781, Note_off_c, 0, 52, 26
2, 22848, Note_on_c, 0, 52, 69
2, 23040, Note_off_c, 0, 52, 42
2, 23040, Note_off_c, 0, 48, 26
2, 23040, Note_off_c, 0, 60, 29
2, 23040, Note_off_c, 0, 55, 20
2, 23040, Note_on_c, 0, 43, 76
2, 23232, Note_on_c, 0, 50, 59
2, 23424, Note_off_c, 0, 50, 29
2, 23424, Note_on_c, 0, 55, 74
2, 23424, Note_on_c, 0, 59, 68
2, 24000, Note_off_c, 0, 59, 29
2, 24000, Note_off_c, 0, 55, 34
2, 24000, Note_on_c, 0, 50, 56
2, 24192, Note_off_c, 0, 50, 39
2, 24192, Note_on_c, 0, 55, 83
2, 24192, Note_on_c, 0, 59, 79
2, 24384, Note_on_c, 0, 50, 59
2, 24576, Note_off_c, 0, 50, 25
2, 24576, Note_off_c, 0, 43, 17
2, 24576, Note_on_c, 0, 43, 79
2, 24768, Note_off_c, 0, 59, 31
2, 24768, Note_off_c, 0, 55, 27
2, 24768, Note_on_c, 0, 48, 57
2, 24960, Note_on_c, 0, 52, 60
2, 24960, Note_on_c, 0, 55, 75
2, 24960, Note_on_c, 0, 60, 78
2, 24985, Note_off_c, 0, 48, 38
2, 25536, Note_off_c, 0, 60, 34
2, 25536, Note_off_c, 0, 55, 23
2, 25536, Note_off_c, 0, 52, 28
2, 25536, Note_on_c, 0, 48, 54
2, 25711, Note_off_c, 0, 48, 43
2, 25728, Note_on_c, 0, 52, 78
2, 25728, Note_on_c, 0, 55, 75
2, 25728, Note_on_c, 0, 60, 84
2, 25920, Note_on_c, 0, 48, 67
2, 25980, Note_off_c, 0, 43, 44
2, 26112, Note_off_c, 0, 48, 37
2, 26112, Note_off_c, 0, 60, 38
2, 26112, Note_off_c, 0, 55, 35
2, 26112, Note_off_c, 0, 52, 30
2, 26112, Note_on_c, 0, 43, 76
2, 26304, Note_on_c, 0, 50, 59
2, 26496, Note_off_c, 0, 50, 29
2, 26496, Note_on_c, 0, 55, 74
2, 26496, Note_on_c, 0, 59, 68
2, 27072, Note_off_c, 0, 59, 29
2, 27072, Note_off_c, 0, 55, 34
2, 27072, Note_on_c, 0, 50, 56
2, 27264, Note_off_c, 0, 50, 39
2, 27264, Note_on_c, 0, 55, 83
2, 27264, Note_on_c, 0, 59, 79
2, 27456, Note_on_c, 0, 50, 59
2, 27648, Note_off_c, 0, 50, 25
2, 27648, Note_off_c, 0, 43, 17
2, 27648, Note_on_c, 0, 43, 79
2, 27840, Note_off_c, 0, 59, 31
2, 27840, Note_off_c, 0, 55, 27
2, 27840, Note_on_c, 0, 48, 57
2, 28032, Note_on_c, 0, 52, 60
2, 28032, Note_on_c, 0, 55, 75
2, 28032, Note_on_c, 0, 60, 78
2, 28057, Note_off_c, 0, 48, 38
2, 28608, Note_off_c, 0, 60, 34
2, 28608, Note_off_c, 0, 55, 23
2, 28608, Note_off_c, 0, 52, 28
2, 28608, Note_on_c, 0, 48, 54
2, 28783, Note_off_c, 0, 48, 43
2, 28800, Note_on_c, 0, 52, 78
2, 28800, Note_on_c, 0, 55, 75
2, 28800, Note_on_c, 0, 60, 84
2, 28992, Note_on_c, 0, 48, 67
2, 29052, Note_off_c, 0, 43, 44
2, 29184, Note_off_c, 0, 48, 37
2, 29184, Note_off_c, 0, 60, 38
2, 29184, Note_off_c, 0, 55, 35
2, 29184, Note_off_c, 0, 52, 30
2, 29184, Note_on_c, 0, 46, 85
2, 29376, Note_on_c, 0, 50, 68
2, 29568, Note_on_c, 0, 53, 91
2, 29568, Note_on_c, 0, 58, 80
2, 29568, Note_on_c, 0, 60, 86
2, 29664, Note_off_c, 0, 50, 28
2, 29952, Note_off_c, 0, 60, 29
2, 29952, Note_off_c, 0, 58, 22
2, 29952, Note_off_c, 0, 53, 31
2, 29952, Note_on_c, 0, 50, 53
2, 30144, Note_on_c, 0, 53, 66
2, 30144, Note_on_c, 0, 58, 66
2, 30144, Note_on_c, 0, 60, 66
2, 30211, Note_off_c, 0, 50, 31
2, 30336, Note_on_c, 0, 48, 58
2, 30406, Note_off_c, 0, 48, 28
2, 30512, Note_off_c, 0, 46, 17
2, 30528, Note_off_c, 0, 60, 33
2, 30528, Note_off_c, 0, 58, 32
2, 30528, Note_off_c, 0, 53, 39
2, 30528, Note_on_c, 0, 52, 81
2, 30528, Note_on_c, 0, 55, 81
2, 30528, Note_on_c, 0, 60, 81
2, 30720, Note_on_c, 0, 36, 81
2, 30912, Note_off_c, 0, 55, 26
2, 30912, Note_off_c, 0, 52, 20
2, 30912, Note_on_c, 0, 48, 53
2, 30940, Note_off_c, 0, 60, 32
2, 31104, Note_on_c, 0, 52, 92
2, 31104, Note_on_c, 0, 55, 91
2, 31104, Note_on_c, 0, 60, 95
2, 31161, Note_off_c, 0, 48, 33
2, 31296, Note_on_c, 0, 48, 57
2, 31367, Note_off_c, 0, 48, 35
2, 31680, Note_off_c, 0, 60, 42
2, 31680, Note_off_c, 0, 55, 30
2, 31680, Note_off_c, 0, 52, 33
2, 31680, Note_on_c, 0, 52, 87
2, 31680, Note_on_c, 0, 55, 83
2, 31680, Note_on_c, 0, 60, 85
2, 31872, Note_off_c, 0, 36, 29
2, 31872, Note_on_c, 0, 48, 65
2, 31997, Note_off_c, 0, 52, 26
2, 32064, Note_on_c, 0, 52, 72
2, 32256, Note_off_c, 0, 52, 42
2, 32256, Note_off_c, 0, 48, 26
2, 32256, Note_off_c, 0, 60, 29
2, 32256, Note_off_c, 0, 55, 20
2, 32256, Note_on_c, 0, 45, 68
2, 32256, Note_on_c, 0, 52, 68
2, 32256, Note_on_c, 0, 57, 68
2, 32256, Note_on_c, 0, 60, 68
2, 32256, Note_on_c, 0, 64, 68
2, 32640, Note_off_c, 0, 64, 22
2, 32640, Note_off_c, 0, 60, 45
2, 32640, Note_off_c, 0, 57, 30
2, 32640, Note_off_c, 0, 52, 36
2, 32640, Note_off_c, 0, 45, 42
2, 32640, Note_on_c, 0, 45, 74
2, 32640, Note_on_c, 0, 52, 74
2, 32640, Note_on_c, 0, 55, 74
2, 32640, Note_on_c, 0, 59, 74
2, 32640, Note_on_c, 0, 64, 74
2, 33024, Note_off_c, 0, 64, 30
2, 33024, Note_off_c, 0, 59, 33
2, 33024, Note_off_c, 0, 55, 37
2, 33024, Note_off_c, 0, 52, 38
2, 33024, Note_off_c, 0, 45, 41
2, 33024, Note_on_c, 0, 45, 79
2, 33024, Note_on_c, 0, 52, 75
2, 33024, Note_on_c, 0, 55, 73
2, 33024, Note_on_c, 0, 57, 74
2, 33024, Note_on_c, 0, 64, 74
2, 33072, Note_off_c, 0, 64, 33
2, 33072, Note_off_c, 0, 57, 57
2, 33072, Note_off_c, 0, 55, 44
2, 33072, Note_off_c, 0, 52, 35
2, 33072, Note_off_c, 0, 45, 42
2, 33216, Note_on_c, 0, 45, 85
2, 33216, Note_on_c, 0, 52, 85
2, 33216, Note_on_c, 0, 55, 85
2, 33216, Note_on_c, 0, 64, 85
2, 33600, Note_off_c, 0, 64, 32
2, 33600, Note_off_c, 0, 55, 41
2, 33600, Note_off_c, 0, 52, 37
2, 33600, Note_off_c, 0, 45, 42
2, 33600, Note_on_c, 0, 38, 78
2, 33600, Note_on_c, 0, 50, 76
2, 33600, Note_on_c, 0, 54, 77
2, 33600, Note_on_c, 0, 57, 79
2, 33600, Note_on_c, 0, 62, 76
2, 35328, Note_off_c, 0, 62, 39
2, 35328, Note_off_c, 0, 57, 40
2, 35328, Note_off_c, 0, 54, 18
2, 35328, Note_off_c, 0, 50, 27
2, 35328, Note_off_c, 0, 38, 35
2, 35328, Note_on_c, 0, 48, 61
2, 35328, Note_on_c, 0, 55, 79
2, 35328, Note_on_c, 0, 60, 73
2, 35328, Note_on_c, 0, 64, 75
2, 35712, Note_off_c, 0, 64, 36
2, 35712, Note_off_c, 0, 60, 48
2, 35712, Note_off_c, 0, 55, 38
2, 35712, Note_off_c, 0, 48, 52
2, 35712, Note_on_c, 0, 48, 83
2, 35712, Note_on_c, 0, 54, 84
2, 35712, Note_on_c, 0, 60, 83
2, 35712, Note_on_c, 0, 64, 78
2, 36096, Note_off_c, 0, 64, 34
2, 36096, Note_off_c, 0, 60, 53
2, 36096, Note_off_c, 0, 54, 46
2, 36096, Note_off_c, 0, 48, 45
2, 36096, Note_on_c, 0, 48, 93
2, 36096, Note_on_c, 0, 52, 93
2, 36096, Note_on_c, 0, 55, 66
2, 36096, Note_on_c, 0, 60, 66
2, 36096, Note_on_c, 0, 64, 66
2, 36144, Note_off_c, 0, 64, 64
2, 36144, Note_off_c, 0, 60, 64
2, 36144, Note_off_c, 0, 55, 64
2, 36144, Note_off_c, 0, 52, 64
2, 36144, Note_off_c, 0, 48, 58
2, 36288, Note_on_c, 0, 48, 81
2, 36288, Note_on_c, 0, 52, 83
2, 36288, Note_on_c, 0, 55, 86
2, 36288, Note_on_c, 0, 60, 80
2, 36288, Note_on_c, 0, 64, 78
2, 36672, Note_off_c, 0, 64, 25
2, 36672, Note_off_c, 0, 60, 34
2, 36672, Note_off_c, 0, 55, 41
2, 36672, Note_off_c, 0, 52, 34
2, 36672, Note_off_c, 0, 48, 38
2, 36672, Note_on_c, 0, 45, 85
2, 36672, Note_on_c, 0, 52, 85
2, 36672, Note_on_c, 0, 57, 79
2, 36672, Note_on_c, 0, 61, 75
2, 36672, Note_on_c, 0, 64, 79
2, 39936, Note_off_c, 0, 64, 22
2, 39936, Note_off_c, 0, 61, 2
2, 39936, Note_off_c, 0, 57, 25
2, 39936, Note_off_c, 0, 52, 36
2, 39936, Note_off_c, 0, 45, 32
2, 39936, Note_on_c, 0, 43, 72
2, 40128, Note_on_c, 0, 50, 60
2, 40320, Note_on_c, 0, 55, 76
2, 40320, Note_on_c, 0, 59, 67
2, 40447, Note_off_c, 0, 50, 10
2, 40896, Note_on_c, 0, 50, 53
2, 40939, Note_off_c, 0, 55, 31
2, 40940, Note_off_c, 0, 59, 31
2, 41088, Note_on_c, 0, 55, 83
2, 41088, Note_on_c, 0, 59, 76
2, 41140, Note_off_c, 0, 43, 24
2, 41154, Note_off_c, 0, 50, 30
2, 41280, Note_on_c, 0, 50, 67
2, 41472, Note_on_c, 0, 43, 76
2, 41475, Note_off_c, 0, 50, 23
2, 41491, Note_off_c, 0, 55, 19
2, 41557, Note_off_c, 0, 59, 25
2, 41664, Note_on_c, 0, 48, 81
2, 41856, Note_on_c, 0, 52, 76
2, 41856, Note_on_c, 0, 55, 85
2, 41856, Note_on_c, 0, 60, 85
2, 42240, Note_off_c, 0, 48, 42
2, 42423, Note_off_c, 0, 52, 32
2, 42427, Note_off_c, 0, 60, 41
2, 42432, Note_on_c, 0, 48, 63
2, 42436, Note_off_c, 0, 55, 28
2, 42624, Note_on_c, 0, 52, 89
2, 42624, Note_on_c, 0, 55, 88
2, 42624, Note_on_c, 0, 60, 89
2, 42788, Note_off_c, 0, 48, 11
2, 42802, Note_off_c, 0, 43, 21
2, 42816, Note_on_c, 0, 50, 81
2, 43008, Note_off_c, 0, 60, 22
2, 43008, Note_off_c, 0, 55, 28
2, 43008, Note_off_c, 0, 52, 25
2, 43008, Note_on_c, 0, 43, 80
2, 43029, Note_off_c, 0, 50, 39
2, 43200, Note_on_c, 0, 50, 58
2, 43392, Note_on_c, 0, 55, 85
2, 43392, Note_on_c, 0, 59, 82
2, 43436, Note_off_c, 0, 50, 28
2, 43968, Note_on_c, 0, 50, 73
2, 43992, Note_off_c, 0, 59, 35
2, 43999, Note_off_c, 0, 55, 39
2, 44160, Note_on_c, 0, 55, 89
2, 44160, Note_on_c, 0, 59, 89
2, 44176, Note_off_c, 0, 50, 33
2, 44345, Note_off_c, 0, 43, 26
2, 44352, Note_on_c, 0, 50, 71
2, 44544, Note_on_c, 0, 43, 79
2, 44553, Note_off_c, 0, 59, 42
2, 44560, Note_off_c, 0, 55, 17
2, 44587, Note_off_c, 0, 50, 20
2, 44736, Note_on_c, 0, 48, 76
2, 44928, Note_on_c, 0, 52, 91
2, 44928, Note_on_c, 0, 55, 88
2, 44928, Note_on_c, 0, 60, 90
2, 45373, Note_off_c, 0, 48, 10
2, 45504, Note_on_c, 0, 48, 75
2, 45557, Note_off_c, 0, 60, 39
2, 45557, Note_off_c, 0, 52, 31
2, 45568, Note_off_c, 0, 55, 27
2, 45696, Note_on_c, 0, 52, 78
2, 45696, Note_on_c, 0, 55, 84
2, 45696, Note_on_c, 0, 60, 85
2, 46080, Note_off_c, 0, 60, 45
2, 46080, Note_off_c, 0, 55, 35
2, 46080, Note_off_c, 0, 52, 62
2, 46080, Note_off_c, 0, 48, 10
2, 46080, Note_off_c, 0, 43, 12
2, 46080, Note_on_c, 0, 46, 85
2, 46272, Note_on_c, 0, 50, 68
2, 46464, Note_on_c, 0, 53, 91
2, 46464, Note_on_c, 0, 58, 80
2, 46464, Note_on_c, 0, 60, 86
2, 46560, Note_off_c, 0, 50, 28
2, 46848, Note_off_c, 0, 60, 29
2, 46848, Note_off_c, 0, 58, 22
2, 46848, Note_off_c, 0, 53, 31
2, 46848, Note_on_c, 0, 50, 53
2, 47040, Note_on_c, 0, 53, 66
2, 47040, Note_on_c, 0, 58, 66
2, 47040, Note_on_c, 0, 60, 66
2, 47107, Note_off_c, 0, 50, 31
2, 47232, Note_on_c, 0, 48, 58
2, 47302, Note_off_c, 0, 48, 28
2, 47408, Note_off_c, 0, 46, 17
2, 47424, Note_off_c, 0, 60, 33
2, 47424, Note_off_c, 0, 58, 32
2, 47424, Note_off_c, 0, 53, 39
2, 47424, Note_on_c, 0, 52, 81
2, 47424, Note_on_c, 0, 55, 81
2, 47424, Note_on_c, 0, 60, 81
2, 47616, Note_on_c, 0, 36, 81
2, 47808, Note_off_c, 0, 55, 26
2, 47808, Note_off_c, 0, 52, 20
2, 47808, Note_on_c, 0, 48, 53
2, 47836, Note_off_c, 0, 60, 32
2, 48000, Note_on_c, 0, 52, 92
2, 48000, Note_on_c, 0, 55, 91
2, 48000, Note_on_c, 0, 60, 95
2, 48057, Note_off_c, 0, 48, 33
2, 48192, Note_on_c, 0, 48, 57
2, 48263, Note_off_c, 0, 48, 35
2, 48576, Note_off_c, 0, 60, 42
2, 48576, Note_off_c, 0, 55, 30
2, 48576, Note_off_c, 0, 52, 33
2, 48576, Note_on_c, 0, 52, 87
2, 48576, Note_on_c, 0, 55, 83
2, 48576, Note_on_c, 0, 60, 85
2, 48768, Note_off_c, 0, 36, 29
2, 48768, Note_on_c, 0, 48, 65
2, 48893, Note_off_c, 0, 52, 26
2, 48960, Note_on_c, 0, 52, 69
2, 49152, Note_off_c, 0, 52, 42
2, 49152, Note_off_c, 0, 48, 26
2, 49152, Note_off_c, 0, 60, 29
2, 49152, Note_off_c, 0, 55, 20
2, 49152, Note_on_c, 0, 43, 76
2, 49344, Note_on_c, 0, 50, 59
2, 49536, Note_off_c, 0, 50, 29
2, 49536, Note_on_c, 0, 55, 74
2, 49536, Note_on_c, 0, 59, 68
2, 50112, Note_off_c, 0, 59, 29
2, 50112, Note_off_c, 0, 55, 34
2, 50112, Note_on_c, 0, 50, 56
2, 50304, Note_off_c, 0, 50, 39
2, 50304, Note_on_c, 0, 55, 83
2, 50304, Note_on_c, 0, 59, 79
2, 50496, Note_on_c, 0, 50, 59
2, 50688, Note_off_c, 0, 50, 25
2, 50688, Note_off_c, 0, 43, 17
2, 50688, Note_on_c, 0, 43, 79
2, 50880, Note_off_c, 0, 59, 31
2, 50880, Note_off_c, 0, 55, 27
2, 50880, Note_on_c, 0, 48, 57
2, 51072, Note_on_c, 0, 52, 60
2, 51072, Note_on_c, 0, 55, 75
2, 51072, Note_on_c, 0, 60, 78
2, 51097, Note_off_c, 0, 48, 38
2, 51648, Note_off_c, 0, 60, 34
2, 51648, Note_off_c, 0, 55, 23
2, 51648, Note_off_c, 0, 52, 28
2, 51648, Note_on_c, 0, 48, 54
2, 51823, Note_off_c, 0, 48, 43
2, 51840, Note_on_c, 0, 52, 78
2, 51840, Note_on_c, 0, 55, 75
2, 51840, Note_on_c, 0, 60, 84
2, 52032, Note_on_c, 0, 48, 67
2, 52092, Note_off_c, 0, 43, 44
2, 52224, Note_off_c, 0, 48, 37
2, 52224, Note_off_c, 0, 60, 38
2, 52224, Note_off_c, 0, 55, 35
2, 52224, Note_off_c, 0, 52, 30
2, 52224, Note_on_c, 0, 43, 76
2, 52416, Note_on_c, 0, 50, 59
2, 52608, Note_off_c, 0, 50, 29
2, 52608, Note_on_c, 0, 55, 74
2, 52608, Note_on_c, 0, 59, 68
2, 53184, Note_off_c, 0, 59, 29
2, 53184, Note_off_c, 0, 55, 34
2, 53184, Note_on_c, 0, 50, 56
2, 53376, Note_off_c, 0, 50, 39
2, 53376, Note_on_c, 0, 55, 83
2, 53376, Note_on_c, 0, 59, 79
2, 53568, Note_on_c, 0, 50, 59
2, 53760, Note_off_c, 0, 50, 25
2, 53760, Note_off_c, 0, 43, 17
2, 53760, Note_on_c, 0, 43, 79
2, 53952, Note_off_c, 0, 59, 31
2, 53952, Note_off_c, 0, 55, 27
2, 53952, Note_on_c, 0, 48, 57
2, 54144, Note_on_c, 0, 52, 60
2, 54144, Note_on_c, 0, 55, 75
2, 54144, Note_on_c, 0, 60, 78
2, 54169, Note_off_c, 0, 48, 38
2, 54720, Note_off_c, 0, 60, 34
2, 54720, Note_off_c, 0, 55, 23
2, 54720, Note_off_c, 0, 52, 28
2, 54720, Note_on_c, 0, 48, 54
2, 54895, Note_off_c, 0, 48, 43
2, 54912, Note_on_c, 0, 52, 78
2, 54912, Note_on_c, 0, 55, 75
2, 54912, Note_on_c, 0, 60, 84
2, 55104, Note_on_c, 0, 48, 67
2, 55164, Note_off_c, 0, 43, 44
2, 55296, Note_off_c, 0, 48, 37
2, 55296, Note_off_c, 0, 60, 38
2, 55296, Note_off_c, 0, 55, 35
2, 55296, Note_off_c, 0, 52, 30
2, 55296, Note_on_c, 0, 46, 85
2, 55488, Note_on_c, 0, 50, 68
2, 55680, Note_on_c, 0, 53, 91
2, 55680, Note_on_c, 0, 58, 80
2, 55680, Note_on_c, 0, 60, 86
2, 55776, Note_off_c, 0, 50, 28
2, 56064, Note_off_c, 0, 60, 29
2, 56064, Note_off_c, 0, 58, 22
2, 56064, Note_off_c, 0, 53, 31
2, 56064, Note_on_c, 0, 50, 53
2, 56256, Note_on_c, 0, 53, 72
2, 56256, Note_on_c, 0, 58, 72
2, 56256, Note_on_c, 0, 60, 72
2, 56323, Note_off_c, 0, 50, 31
2, 56448, Note_on_c, 0, 48, 58
2, 56518, Note_off_c, 0, 48, 28
2, 56624, Note_off_c, 0, 46, 17
2, 56640, Note_off_c, 0, 60, 33
2, 56640, Note_off_c, 0, 58, 32
2, 56640, Note_off_c, 0, 53, 39
2, 56640, Note_on_c, 0, 52, 66
2, 56640, Note_on_c, 0, 55, 78
2, 56640, Note_on_c, 0, 60, 68
2, 56832, Note_on_c, 0, 36, 81
2, 57024, Note_off_c, 0, 55, 26
2, 57024, Note_off_c, 0, 52, 20
2, 57024, Note_on_c, 0, 48, 53
2, 57052, Note_off_c, 0, 60, 32
2, 57216, Note_on_c, 0, 52, 92
2, 57216, Note_on_c, 0, 55, 91
2, 57216, Note_on_c, 0, 60, 95
2, 57273, Note_off_c, 0, 48, 33
2, 57408, Note_on_c, 0, 48, 57
2, 57479, Note_off_c, 0, 48, 35
2, 57792, Note_off_c, 0, 60, 42
2, 57792, Note_off_c, 0, 55, 30
2, 57792, Note_off_c, 0, 52, 33
2, 57792, Note_on_c, 0, 52, 87
2, 57792, Note_on_c, 0, 55, 83
2, 57792, Note_on_c, 0, 60, 85
2, 57984, Note_off_c, 0, 36, 29
2, 57984, Note_on_c, 0, 48, 65
2, 58109, Note_off_c, 0, 52, 26
2, 58176, Note_on_c, 0, 52, 69
2, 58368, Note_off_c, 0, 52, 42
2, 58368, Note_off_c, 0, 48, 26
2, 58368, Note_off_c, 0, 60, 29
2, 58368, Note_off_c, 0, 55, 20
2, 58368, Note_on_c, 0, 45, 68
2, 58368, Note_on_c, 0, 52, 68
2, 58368, Note_on_c, 0, 57, 68
2, 58368, Note_on_c, 0, 60, 68
2, 58368, Note_on_c, 0, 64, 68
2, 58752, Note_off_c, 0, 64, 22
2, 58752, Note_off_c, 0, 60, 45
2, 58752, Note_off_c, 0, 57, 30
2, 58752, Note_off_c, 0, 52, 36
2, 58752, Note_off_c, 0, 45, 42
2, 58752, Note_on_c, 0, 45, 74
2, 58752, Note_on_c, 0, 52, 74
2, 58752, Note_on_c, 0, 55, 74
2, 58752, Note_on_c, 0, 59, 74
2, 58752, Note_on_c, 0, 64, 74
2, 59136, Note_off_c, 0, 64, 30
2, 59136, Note_off_c, 0, 59, 33
2, 59136, Note_off_c, 0, 55, 37
2, 59136, Note_off_c, 0, 52, 38
2, 59136, Note_off_c, 0, 45, 41
2, 59136, Note_on_c, 0, 45, 79
2, 59136, Note_on_c, 0, 52, 75
2, 59136, Note_on_c, 0, 55, 73
2, 59136, Note_on_c, 0, 57, 74
2, 59136, Note_on_c, 0, 64, 74
2, 59184, Note_off_c, 0, 64, 33
2, 59184, Note_off_c, 0, 57, 57
2, 59184, Note_off_c, 0, 55, 44
2, 59184, Note_off_c, 0, 52, 35
2, 59184, Note_off_c, 0, 45, 42
2, 59328, Note_on_c, 0, 45, 85
2, 59328, Note_on_c, 0, 52, 85
2, 59328, Note_on_c, 0, 55, 85
2, 59328, Note_on_c, 0, 64, 85
2, 59712, Note_off_c, 0, 64, 32
2, 59712, Note_off_c, 0, 55, 41
2, 59712, Note_off_c, 0, 52, 37
2, 59712, Note_off_c, 0, 45, 42
2, 59712, Note_on_c, 0, 38, 78
2, 59712, Note_on_c, 0, 50, 76
2, 59712, Note_on_c, 0, 54, 77
2, 59712, Note_on_c, 0, 57, 79
2, 59712, Note_on_c, 0, 62, 76
2, 61440, Note_off_c, 0, 62, 39
2, 61440, Note_off_c, 0, 57, 40
2, 61440, Note_off_c, 0, 54, 18
2, 61440, Note_off_c, 0, 50, 27
2, 61440, Note_off_c, 0, 38, 35
2, 61440, Note_on_c, 0, 48, 61
2, 61440, Note_on_c, 0, 55, 79
2, 61440, Note_on_c, 0, 60, 73
2, 61440, Note_on_c, 0, 64, 75
2, 61824, Note_off_c, 0, 64, 36
2, 61824, Note_off_c, 0, 60, 48
2, 61824, Note_off_c, 0, 55, 38
2, 61824, Note_off_c, 0, 48, 52
2, 61824, Note_on_c, 0, 48, 83
2, 61824, Note_on_c, 0, 54, 84
2, 61824, Note_on_c, 0, 60, 83
2, 61824, Note_on_c, 0, 64, 78
2, 62208, Note_off_c, 0, 64, 34
2, 62208, Note_off_c, 0, 60, 53
2, 62208, Note_off_c, 0, 54, 46
2, 62208, Note_off_c, 0, 48, 45
2, 62208, Note_on_c, 0, 48, 93
2, 62208, Note_on_c, 0, 52, 93
2, 62208, Note_on_c, 0, 55, 66
2, 62208, Note_on_c, 0, 60, 66
2, 62208, Note_on_c, 0, 64, 66
2, 62256, Note_off_c, 0, 64, 64
2, 62256, Note_off_c, 0, 60, 64
2, 62256, Note_off_c, 0, 55, 64
2, 62256, Note_off_c, 0, 52, 64
2, 62256, Note_off_c, 0, 48, 58
2, 62400, Note_on_c, 0, 48, 81
2, 62400, Note_on_c, 0, 52, 83
2, 62400, Note_on_c, 0, 55, 86
2, 62400, Note_on_c, 0, 60, 80
2, 62400, Note_on_c, 0, 64, 78
2, 62784, Note_off_c, 0, 64, 25
2, 62784, Note_off_c, 0, 60, 34
2, 62784, Note_off_c, 0, 55, 41
2, 62784, Note_off_c, 0, 52, 34
2, 62784, Note_off_c, 0, 48, 38
2, 62784, Note_on_c, 0, 45, 85
2, 62784, Note_on_c, 0, 52, 85
2, 62784, Note_on_c, 0, 57, 79
2, 62784, Note_on_c, 0, 61, 75
2, 62784, Note_on_c, 0, 64, 79
2, 64512, Note_off_c, 0, 64, 22
2, 64512, Note_off_c, 0, 61, 2
2, 64512, Note_off_c, 0, 57, 25
2, 64512, Note_off_c, 0, 52, 36
2, 64512, Note_off_c, 0, 45, 32
2, 64512, Note_on_c, 0, 45, 68
2, 64512, Note_on_c, 0, 52, 68
2, 64512, Note_on_c, 0, 57, 68
2, 64512, Note_on_c, 0, 60, 68
2, 64512, Note_on_c, 0, 64, 68
2, 64896, Note_off_c, 0, 64, 22
2, 64896, Note_off_c, 0, 60, 45
2, 64896, Note_off_c, 0, 57, 30
2, 64896, Note_off_c, 0, 52, 36
2, 64896, Note_off_c, 0, 45, 42
2, 64896, Note_on_c, 0, 45, 74
2, 64896, Note_on_c, 0, 52, 74
2, 64896, Note_on_c, 0, 55, 74
2, 64896, Note_on_c, 0, 59, 74
2, 64896, Note_on_c, 0, 64, 74
2, 65280, Note_off_c, 0, 64, 30
2, 65280, Note_off_c, 0, 59, 33
2, 65280, Note_off_c, 0, 55, 37
2, 65280, Note_off_c, 0, 52, 38
2, 65280, Note_off_c, 0, 45, 41
2, 65280, Note_on_c, 0, 45, 79
2, 65280, Note_on_c, 0, 52, 75
2, 65280, Note_on_c, 0, 55, 73
2, 65280, Note_on_c, 0, 57, 74
2, 65280, Note_on_c, 0, 64, 74
2, 65328, Note_off_c, 0, 64, 33
2, 65328, Note_off_c, 0, 57, 57
2, 65328, Note_off_c, 0, 55, 44
2, 65328, Note_off_c, 0, 52, 35
2, 65328, Note_off_c, 0, 45, 42
2, 65472, Note_on_c, 0, 45, 85
2, 65472, Note_on_c, 0, 52, 85
2, 65472, Note_on_c, 0, 55, 85
2, 65472, Note_on_c, 0, 64, 85
2, 65856, Note_off_c, 0, 64, 32
2, 65856, Note_off_c, 0, 55, 41
2, 65856, Note_off_c, 0, 52, 37
2, 65856, Note_off_c, 0, 45, 42
2, 65856, Note_on_c, 0, 38, 78
2, 65856, Note_on_c, 0, 50, 76
2, 65856, Note_on_c, 0, 54, 77
2, 65856, Note_on_c, 0, 57, 79
2, 65856, Note_on_c, 0, 62, 76
2, 67584, Note_off_c, 0, 62, 39
2, 67584, Note_off_c, 0, 57, 40
2, 67584, Note_off_c, 0, 54, 18
2, 67584, Note_off_c, 0, 50, 27
2, 67584, Note_off_c, 0, 38, 35
2, 67584, Note_on_c, 0, 48, 61
2, 67584, Note_on_c, 0, 55, 79
2, 67584, Note_on_c, 0, 60, 73
2, 67584, Note_on_c, 0, 64, 75
2, 67968, Note_off_c, 0, 64, 36
2, 67968, Note_off_c, 0, 60, 48
2, 67968, Note_off_c, 0, 55, 38
2, 67968, Note_off_c, 0, 48, 52
2, 67968, Note_on_c, 0, 48, 83
2, 67968, Note_on_c, 0, 54, 84
2, 67968, Note_on_c, 0, 60, 83
2, 67968, Note_on_c, 0, 64, 78
2, 68352, Note_off_c, 0, 64, 34
2, 68352, Note_off_c, 0, 60, 53
2, 68352, Note_off_c, 0, 54, 46
2, 68352, Note_off_c, 0, 48, 45
2, 68352, Note_on_c, 0, 48, 93
2, 68352, Note_on_c, 0, 52, 93
2, 68352, Note_on_c, 0, 55, 66
2, 68352, Note_on_c, 0, 60, 66
2, 68352, Note_on_c, 0, 64, 66
2, 68400, Note_off_c, 0, 64, 64
2, 68400, Note_off_c, 0, 60, 64
2, 68400, Note_off_c, 0, 55, 64
2, 68400, Note_off_c, 0, 52, 64
2, 68400, Note_off_c, 0, 48, 58
2, 68544, Note_on_c, 0, 48, 81
2, 68544, Note_on_c, 0, 52, 83
2, 68544, Note_on_c, 0, 55, 86
2, 68544, Note_on_c, 0, 60, 80
2, 68544, Note_on_c, 0, 64, 78
2, 68928, Note_off_c, 0, 64, 25
2, 68928, Note_off_c, 0, 60, 34
2, 68928, Note_off_c, 0, 55, 41
2, 68928, Note_off_c, 0, 52, 34
2, 68928, Note_off_c, 0, 48, 38
2, 68928, Note_on_c, 0, 45, 85
2, 68928, Note_on_c, 0, 52, 85
2, 68928, Note_on_c, 0, 57, 79
2, 68928, Note_on_c, 0, 61, 75
2, 68928, Note_on_c, 0, 64, 79
2, 70656, Note_off_c, 0, 64, 22
2, 70656, Note_off_c, 0, 61, 2
2, 70656, Note_off_c, 0, 57, 25
2, 70656, Note_off_c, 0, 52, 36
2, 70656, Note_off_c, 0, 45, 32
2, 70656, Note_on_c, 0, 45, 85
2, 70656, Note_on_c, 0, 52, 85
2, 70656, Note_on_c, 0, 57, 85
2, 70656, Note_on_c, 0, 60, 85
2, 71424, Note_off_c, 0, 60, 21
2, 71424, Note_off_c, 0, 57, 27
2, 71424, Note_off_c, 0, 52, 27
2, 71424, Note_off_c, 0, 45, 26
2, 71424, Note_on_c, 0, 40, 85
2, 71424, Note_on_c, 0, 47, 85
2, 71424, Note_on_c, 0, 52, 85
2, 71424, Note_on_c, 0, 55, 85
2, 71424, Note_on_c, 0, 59, 85
2, 71472, Note_off_c, 0, 59, 39
2, 71472, Note_off_c, 0, 55, 48
2, 71472, Note_off_c, 0, 52, 41
2, 71472, Note_off_c, 0, 47, 55
2, 71472, Note_off_c, 0, 40, 56
2, 71616, Note_on_c, 0, 40, 89
2, 71616, Note_on_c, 0, 47, 85
2, 71616, Note_on_c, 0, 52, 89
2, 71616, Note_on_c, 0, 55, 85
2, 71616, Note_on_c, 0, 59, 89
2, 72000, Note_off_c, 0, 59, 40
2, 72000, Note_off_c, 0, 55, 32
2, 72000, Note_off_c, 0, 52, 26
2, 72000, Note_off_c, 0, 47, 33
2, 72000, Note_off_c, 0, 40, 33
2, 72000, Note_on_c, 0, 33, 72
2, 72000, Note_on_c, 0, 45, 91
2, 72000, Note_on_c, 0, 48, 90
2, 72000, Note_on_c, 0, 52, 90
2, 72000, Note_on_c, 0, 57, 90
2, 73728, Note_off_c, 0, 57, 45
2, 73728, Note_off_c, 0, 52, 29
2, 73728, Note_on_c, 0, 45, 85
2, 73728, Note_on_c, 0, 52, 85
2, 73728, Note_on_c, 0, 57, 85
2, 73728, Note_on_c, 0, 60, 85
2, 73742, Note_off_c, 0, 48, 33
2, 73746, Note_off_c, 0, 45, 38
2, 73746, Note_off_c, 0, 33, 17
2, 74496, Note_off_c, 0, 60, 21
2, 74496, Note_off_c, 0, 57, 27
2, 74496, Note_off_c, 0, 52, 27
2, 74496, Note_off_c, 0, 45, 26
2, 74496, Note_on_c, 0, 40, 85
2, 74496, Note_on_c, 0, 47, 85
2, 74496, Note_on_c, 0, 52, 85
2, 74496, Note_on_c, 0, 55, 85
2, 74496, Note_on_c, 0, 59, 85
2, 74544, Note_off_c, 0, 59, 39
2, 74544, Note_off_c, 0, 55, 48
2, 74544, Note_off_c, 0, 52, 41
2, 74544, Note_off_c, 0, 47, 55
2, 74544, Note_off_c, 0, 40, 56
2, 74688, Note_on_c, 0, 40, 89
2, 74688, Note_on_c, 0, 47, 85
2, 74688, Note_on_c, 0, 52, 89
2, 74688, Note_on_c, 0, 55, 85
2, 74688, Note_on_c, 0, 59, 89
2, 75072, Note_off_c, 0, 59, 40
2, 75072, Note_off_c, 0, 55, 32
2, 75072, Note_off_c, 0, 52, 26
2, 75072, Note_off_c, 0, 47, 33
2, 75072, Note_off_c, 0, 40, 33
2, 75072, Note_on_c, 0, 36, 94
2, 75072, Note_on_c, 0, 43, 99
2, 75072, Note_on_c, 0, 48, 87
2, 75072, Note_on_c, 0, 52, 92
2, 75072, Note_on_c, 0, 55, 93
2, 78336, Note_off_c, 0, 55, 38
2, 78336, Note_off_c, 0, 52, 48
2, 78336, Note_off_c, 0, 48, 47
2, 78336, Note_off_c, 0, 43, 50
2, 78336, Note_off_c, 0, 36, 48
2, 78336, Note_on_c, 0, 43, 72
2, 78528, Note_on_c, 0, 50, 60
2, 78720, Note_on_c, 0, 55, 76
2, 78720, Note_on_c, 0, 59, 67
2, 78847, Note_off_c, 0, 50, 10
2, 79296, Note_on_c, 0, 50, 53
2, 79339, Note_off_c, 0, 55, 31
2, 79340, Note_off_c, 0, 59, 31
2, 79488, Note_on_c, 0, 55, 83
2, 79488, Note_on_c, 0, 59, 76
2, 79540, Note_off_c, 0, 43, 24
2, 79554, Note_off_c, 0, 50, 30
2, 79680, Note_on_c, 0, 50, 67
2, 79872, Note_on_c, 0, 43, 76
2, 79875, Note_off_c, 0, 50, 23
2, 79891, Note_off_c, 0, 55, 19
2, 79957, Note_off_c, 0, 59, 25
2, 80064, Note_on_c, 0, 48, 81
2, 80256, Note_on_c, 0, 52, 76
2, 80256, Note_on_c, 0, 55, 85
2, 80256, Note_on_c, 0, 60, 85
2, 80640, Note_off_c, 0, 48, 42
2, 80823, Note_off_c, 0, 52, 32
2, 80827, Note_off_c, 0, 60, 41
2, 80832, Note_on_c, 0, 48, 63
2, 80836, Note_off_c, 0, 55, 28
2, 81024, Note_on_c, 0, 52, 89
2, 81024, Note_on_c, 0, 55, 88
2, 81024, Note_on_c, 0, 60, 89
2, 81188, Note_off_c, 0, 48, 11
2, 81202, Note_off_c, 0, 43, 21
2, 81216, Note_on_c, 0, 50, 81
2, 81408, Note_off_c, 0, 60, 22
2, 81408, Note_off_c, 0, 55, 28
2, 81408, Note_off_c, 0, 52, 25
2, 81408, Note_on_c, 0, 43, 80
2, 81429, Note_off_c, 0, 50, 39
2, 81600, Note_on_c, 0, 50, 58
2, 81792, Note_on_c, 0, 55, 85
2, 81792, Note_on_c, 0, 59, 82
2, 81836, Note_off_c, 0, 50, 28
2, 82368, Note_on_c, 0, 50, 73
2, 82392, Note_off_c, 0, 59, 35
2, 82399, Note_off_c, 0, 55, 39
2, 82560, Note_on_c, 0, 55, 89
2, 82560, Note_on_c, 0, 59, 89
2, 82576, Note_off_c, 0, 50, 33
2, 82745, Note_off_c, 0, 43, 26
2, 82752, Note_on_c, 0, 50, 71
2, 82944, Note_on_c, 0, 43, 79
2, 82953, Note_off_c, 0, 59, 42
2, 82960, Note_off_c, 0, 55, 17
2, 82987, Note_off_c, 0, 50, 20
2, 83136, Note_on_c, 0, 48, 76
2, 83328, Note_on_c, 0, 52, 91
2, 83328, Note_on_c, 0, 55, 88
2, 83328, Note_on_c, 0, 60, 90
2, 83773, Note_off_c, 0, 48, 10
2, 83904, Note_on_c, 0, 48, 75
2, 83957, Note_off_c, 0, 60, 39
2, 83957, Note_off_c, 0, 52, 31
2, 83968, Note_off_c, 0, 55, 27
2, 84096, Note_on_c, 0, 52, 78
2, 84096, Note_on_c, 0, 55, 84
2, 84096, Note_on_c, 0, 60, 85
2, 84480, Note_off_c, 0, 60, 45
2, 84480, Note_off_c, 0, 55, 35
2, 84480, Note_off_c, 0, 52, 62
2, 84480, Note_off_c, 0, 48, 10
2, 84480, Note_off_c, 0, 43, 12
2, 84480, Note_on_c, 0, 46, 85
2, 84672, Note_on_c, 0, 50, 68
2, 84864, Note_on_c, 0, 53, 91
2, 84864, Note_on_c, 0, 58, 80
2, 84864, Note_on_c, 0, 60, 86
2, 84960, Note_off_c, 0, 50, 28
2, 85248, Note_off_c, 0, 60, 29
2, 85248, Note_off_c, 0, 58, 22
2, 85248, Note_off_c, 0, 53, 31
2, 85248, Note_on_c, 0, 50, 53
2, 85440, Note_on_c, 0, 53, 93
2, 85440, Note_on_c, 0, 58, 92
2, 85440, Note_on_c, 0, 60, 90
2, 85507, Note_off_c, 0, 50, 31
2, 85632, Note_on_c, 0, 48, 58
2, 85702, Note_off_c, 0, 48, 28
2, 85808, Note_off_c, 0, 46, 17
2, 85824, Note_off_c, 0, 60, 33
2, 85824, Note_off_c, 0, 58, 32
2, 85824, Note_off_c, 0, 53, 39
2, 85824, Note_on_c, 0, 52, 66
2, 85824, Note_on_c, 0, 55, 78
2, 85824, Note_on_c, 0, 60, 68
2, 86016, Note_on_c, 0, 36, 81
2, 86208, Note_off_c, 0, 55, 26
2, 86208, Note_off_c, 0, 52, 20
2, 86208, Note_on_c, 0, 48, 53
2, 86236, Note_off_c, 0, 60, 32
2, 86400, Note_on_c, 0, 52, 92
2, 86400, Note_on_c, 0, 55, 91
2, 86400, Note_on_c, 0, 60, 95
2, 86457, Note_off_c, 0, 48, 33
2, 86592, Note_on_c, 0, 48, 57
2, 86663, Note_off_c, 0, 48, 35
2, 86976, Note_off_c, 0, 60, 42
2, 86976, Note_off_c, 0, 55, 30
2, 86976, Note_off_c, 0, 52, 33
2, 86976, Note_on_c, 0, 52, 87
2, 86976, Note_on_c, 0, 55, 83
2, 86976, Note_on_c, 0, 60, 85
2, 87168, Note_off_c, 0, 36, 29
2, 87168, Note_on_c, 0, 48, 65
2, 87293, Note_off_c, 0, 52, 26
2, 87360, Note_on_c, 0, 52, 69
2, 87552, Note_off_c, 0, 52, 42
2, 87552, Note_off_c, 0, 48, 26
2, 87552, Note_off_c, 0, 60, 29
2, 87552, Note_off_c, 0, 55, 20
2, 87552, Note_on_c, 0, 43, 76
2, 87744, Note_on_c, 0, 50, 59
2, 87936, Note_off_c, 0, 50, 29
2, 87936, Note_on_c, 0, 55, 74
2, 87936, Note_on_c, 0, 59, 68
2, 88512, Note_off_c, 0, 59, 29
2, 88512, Note_off_c, 0, 55, 34
2, 88512, Note_on_c, 0, 50, 56
2, 88704, Note_off_c, 0, 50, 39
2, 88704, Note_on_c, 0, 55, 83
2, 88704, Note_on_c, 0, 59, 79
2, 88896, Note_on_c, 0, 50, 59
2, 89088, Note_off_c, 0, 50, 25
2, 89088, Note_off_c, 0, 43, 17
2, 89088, Note_on_c, 0, 43, 79
2, 89280, Note_off_c, 0, 59, 31
2, 89280, Note_off_c, 0, 55, 27
2, 89280, Note_on_c, 0, 48, 57
2, 89472, Note_on_c, 0, 52, 60
2, 89472, Note_on_c, 0, 55, 75
2, 89472, Note_on_c, 0, 60, 78
2, 89497, Note_off_c, 0, 48, 38
2, 90048, Note_off_c, 0, 60, 34
2, 90048, Note_off_c, 0, 55, 23
2, 90048, Note_off_c, 0, 52, 28
2, 90048, Note_on_c, 0, 48, 54
2, 90223, Note_off_c, 0, 48, 43
2, 90240, Note_on_c, 0, 52, 78
2, 90240, Note_on_c, 0, 55, 75
2, 90240, Note_on_c, 0, 60, 84
2, 90432, Note_on_c, 0, 48, 67
2, 90492, Note_off_c, 0, 43, 44
2, 90624, Note_off_c, 0, 48, 37
2, 90624, Note_off_c, 0, 60, 38
2, 90624, Note_off_c, 0, 55, 35
2, 90624, Note_off_c, 0, 52, 30
2, 90624, Note_on_c, 0, 43, 76
2, 90816, Note_on_c, 0, 50, 59
2, 91008, Note_off_c, 0, 50, 29
2, 91008, Note_on_c, 0, 55, 74
2, 91008, Note_on_c, 0, 59, 68
2, 91584, Note_off_c, 0, 59, 29
2, 91584, Note_off_c, 0, 55, 34
2, 91584, Note_on_c, 0, 50, 56
2, 91776, Note_off_c, 0, 50, 39
2, 91776, Note_on_c, 0, 55, 83
2, 91776, Note_on_c, 0, 59, 79
2, 91968, Note_on_c, 0, 50, 59
2, 92160, Note_off_c, 0, 50, 25
2, 92160, Note_off_c, 0, 43, 17
2, 92160, Note_on_c, 0, 43, 79
2, 92352, Note_off_c, 0, 59, 31
2, 92352, Note_off_c, 0, 55, 27
2, 92352, Note_on_c, 0, 48, 57
2, 92544, Note_on_c, 0, 52, 60
2, 92544, Note_on_c, 0, 55, 75
2, 92544, Note_on_c, 0, 60, 78
2, 92569, Note_off_c, 0, 48, 38
2, 93120, Note_off_c, 0, 60, 34
2, 93120, Note_off_c, 0, 55, 23
2, 93120, Note_off_c, 0, 52, 28
2, 93120, Note_on_c, 0, 48, 54
2, 93295, Note_off_c, 0, 48, 43
2, 93312, Note_on_c, 0, 52, 78
2, 93312, Note_on_c, 0, 55, 75
2, 93312, Note_on_c, 0, 60, 84
2, 93504, Note_on_c, 0, 48, 67
2, 93564, Note_off_c, 0, 43, 44
2, 93696, Note_off_c, 0, 48, 37
2, 93696, Note_off_c, 0, 60, 38
2, 93696, Note_off_c, 0, 55, 35
2, 93696, Note_off_c, 0, 52, 30
2, 93696, Note_on_c, 0, 46, 85
2, 93888, Note_on_c, 0, 50, 68
2, 94080, Note_on_c, 0, 53, 91
2, 94080, Note_on_c, 0, 58, 80
2, 94080, Note_on_c, 0, 60, 86
2, 94176, Note_off_c, 0, 50, 28
2, 94464, Note_off_c, 0, 60, 29
2, 94464, Note_off_c, 0, 58, 22
2, 94464, Note_off_c, 0, 53, 31
2, 94464, Note_on_c, 0, 50, 53
2, 94656, Note_on_c, 0, 53, 93
2, 94656, Note_on_c, 0, 58, 92
2, 94656, Note_on_c, 0, 60, 90
2, 94723, Note_off_c, 0, 50, 31
2, 94848, Note_on_c, 0, 48, 58
2, 94918, Note_off_c, 0, 48, 28
2, 95024, Note_off_c, 0, 46, 17
2, 95040, Note_off_c, 0, 60, 33
2, 95040, Note_off_c, 0, 58, 32
2, 95040, Note_off_c, 0, 53, 39
2, 95040, Note_on_c, 0, 52, 66
2, 95040, Note_on_c, 0, 55, 78
2, 95040, Note_on_c, 0, 60, 68
2, 95232, Note_on_c, 0, 36, 81
2, 95424, Note_off_c, 0, 55, 26
2, 95424, Note_off_c, 0, 52, 20
2, 95424, Note_on_c, 0, 48, 53
2, 95452, Note_off_c, 0, 60, 32
2, 95616, Note_on_c, 0, 52, 92
2, 95616, Note_on_c, 0, 55, 91
2, 95616, Note_on_c, 0, 60, 95
2, 95673, Note_off_c, 0, 48, 33
2, 95808, Note_on_c, 0, 48, 57
2, 95879, Note_off_c, 0, 48, 35
2, 96192, Note_off_c, 0, 60, 42
2, 96192, Note_off_c, 0, 55, 30
2, 96192, Note_off_c, 0, 52, 33
2, 96192, Note_on_c, 0, 52, 87
2, 96192, Note_on_c, 0, 55, 83
2, 96192, Note_on_c, 0, 60, 85
2, 96384, Note_off_c, 0, 36, 29
2, 96384, Note_on_c, 0, 48, 65
2, 96509, Note_off_c, 0, 52, 26
2, 96576, Note_on_c, 0, 52, 69
2, 96768, Note_off_c, 0, 52, 42
2, 96768, Note_off_c, 0, 48, 26
2, 96768, Note_off_c, 0, 60, 29
2, 96768, Note_off_c, 0, 55, 20
2, 96768, Note_on_c, 0, 45, 68
2, 96768, Note_on_c, 0, 52, 68
2, 96768, Note_on_c, 0, 57, 68
2, 96768, Note_on_c, 0, 60, 68
2, 96768, Note_on_c, 0, 64, 68
2, 97152, Note_off_c, 0, 64, 22
2, 97152, Note_off_c, 0, 60, 45
2, 97152, Note_off_c, 0, 57, 30
2, 97152, Note_off_c, 0, 52, 36
2, 97152, Note_off_c, 0, 45, 42
2, 97152, Note_on_c, 0, 45, 74
2, 97152, Note_on_c, 0, 52, 74
2, 97152, Note_on_c, 0, 55, 74
2, 97152, Note_on_c, 0, 59, 74
2, 97152, Note_on_c, 0, 64, 74
2, 97536, Note_off_c, 0, 64, 30
2, 97536, Note_off_c, 0, 59, 33
2, 97536, Note_off_c, 0, 55, 37
2, 97536, Note_off_c, 0, 52, 38
2, 97536, Note_off_c, 0, 45, 41
2, 97536, Note_on_c, 0, 45, 79
2, 97536, Note_on_c, 0, 52, 75
2, 97536, Note_on_c, 0, 55, 73
2, 97536, Note_on_c, 0, 57, 74
2, 97536, Note_on_c, 0, 64, 74
2, 97584, Note_off_c, 0, 64, 33
2, 97584, Note_off_c, 0, 57, 57
2, 97584, Note_off_c, 0, 55, 44
2, 97584, Note_off_c, 0, 52, 35
2, 97584, Note_off_c, 0, 45, 42
2, 97728, Note_on_c, 0, 45, 85
2, 97728, Note_on_c, 0, 52, 85
2, 97728, Note_on_c, 0, 55, 85
2, 97728, Note_on_c, 0, 64, 85
2, 98112, Note_off_c, 0, 64, 32
2, 98112, Note_off_c, 0, 55, 41
2, 98112, Note_off_c, 0, 52, 37
2, 98112, Note_off_c, 0, 45, 42
2, 98112, Note_on_c, 0, 38, 78
2, 98112, Note_on_c, 0, 50, 76
2, 98112, Note_on_c, 0, 54, 77
2, 98112, Note_on_c, 0, 57, 79
2, 98112, Note_on_c, 0, 62, 76
2, 99840, Note_off_c, 0, 62, 39
2, 99840, Note_off_c, 0, 57, 40
2, 99840, Note_off_c, 0, 54, 18
2, 99840, Note_off_c, 0, 50, 27
2, 99840, Note_off_c, 0, 38, 35
2, 99840, Note_on_c, 0, 48, 61
2, 99840, Note_on_c, 0, 55, 79
2, 99840, Note_on_c, 0, 60, 73
2, 99840, Note_on_c, 0, 64, 75
2, 100224, Note_off_c, 0, 64, 36
2, 100224, Note_off_c, 0, 60, 48
2, 100224, Note_off_c, 0, 55, 38
2, 100224, Note_off_c, 0, 48, 52
2, 100224, Note_on_c, 0, 48, 83
2, 100224, Note_on_c, 0, 54, 84
2, 100224, Note_on_c, 0, 60, 83
2, 100224, Note_on_c, 0, 64, 78
2, 100608, Note_off_c, 0, 64, 34
2, 100608, Note_off_c, 0, 60, 53
2, 100608, Note_off_c, 0, 54, 46
2, 100608, Note_off_c, 0, 48, 45
2, 100608, Note_on_c, 0, 48, 93
2, 100608, Note_on_c, 0, 52, 93
2, 100608, Note_on_c, 0, 55, 66
2, 100608, Note_on_c, 0, 60, 66
2, 100608, Note_on_c, 0, 64, 66
2, 100656, Note_off_c, 0, 64, 64
2, 100656, Note_off_c, 0, 60, 64
2, 100656, Note_off_c, 0, 55, 64
2, 100656, Note_off_c, 0, 52, 64
2, 100656, Note_off_c, 0, 48, 58
2, 100800, Note_on_c, 0, 48, 81
2, 100800, Note_on_c, 0, 52, 83
2, 100800, Note_on_c, 0, 55, 86
2, 100800, Note_on_c, 0, 60, 80
2, 100800, Note_on_c, 0, 64, 78
2, 101184, Note_off_c, 0, 64, 25
2, 101184, Note_off_c, 0, 60, 34
2, 101184, Note_off_c, 0, 55, 41
2, 101184, Note_off_c, 0, 52, 34
2, 101184, Note_off_c, 0, 48, 38
2, 101184, Note_on_c, 0, 45, 85
2, 101184, Note_on_c, 0, 52, 85
2, 101184, Note_on_c, 0, 57, 79
2, 101184, Note_on_c, 0, 61, 75
2, 101184, Note_on_c, 0, 64, 79
2, 102912, Note_off_c, 0, 64, 22
2, 102912, Note_off_c, 0, 61, 2
2, 102912, Note_off_c, 0, 57, 25
2, 102912, Note_off_c, 0, 52, 36
2, 102912, Note_off_c, 0, 45, 32
2, 102912, Note_on_c, 0, 45, 68
2, 102912, Note_on_c, 0, 52, 68
2, 102912, Note_on_c, 0, 57, 68
2, 102912, Note_on_c, 0, 60, 68
2, 102912, Note_on_c, 0, 64, 68
2, 103296, Note_off_c, 0, 64, 22
2, 103296, Note_off_c, 0, 60, 45
2, 103296, Note_off_c, 0, 57, 30
2, 103296, Note_off_c, 0, 52, 36
2, 103296, Note_off_c, 0, 45, 42
2, 103296, Note_on_c, 0, 45, 74
2, 103296, Note_on_c, 0, 52, 74
2, 103296, Note_on_c, 0, 55, 74
2, 103296, Note_on_c, 0, 59, 74
2, 103296, Note_on_c, 0, 64, 74
2, 103680, Note_off_c, 0, 64, 30
2, 103680, Note_off_c, 0, 59, 33
2, 103680, Note_off_c, 0, 55, 37
2, 103680, Note_off_c, 0, 52, 38
2, 103680, Note_off_c, 0, 45, 41
2, 103680, Note_on_c, 0, 45, 79
2, 103680, Note_on_c, 0, 52, 75
2, 103680, Note_on_c, 0, 55, 73
2, 103680, Note_on_c, 0, 57, 74
2, 103680, Note_on_c, 0, 64, 74
2, 103728, Note_off_c, 0, 64, 33
2, 103728, Note_off_c, 0, 57, 57
2, 103728, Note_off_c, 0, 55, 44
2, 103728, Note_off_c, 0, 52, 35
2, 103728, Note_off_c, 0, 45, 42
2, 103872, Note_on_c, 0, 45, 85
2, 103872, Note_on_c, 0, 52, 85
2, 103872, Note_on_c, 0, 55, 85
2, 103872, Note_on_c, 0, 64, 85
2, 104256, Note_off_c, 0, 64, 32
2, 104256, Note_off_c, 0, 55, 41
2, 104256, Note_off_c, 0, 52, 37
2, 104256, Note_off_c, 0, 45, 42
2, 104256, Note_on_c, 0, 38, 78
2, 104256, Note_on_c, 0, 50, 76
2, 104256, Note_on_c, 0, 54, 77
2, 104256, Note_on_c, 0, 57, 79
2, 104256, Note_on_c, 0, 62, 76
2, 105984, Note_off_c, 0, 62, 39
2, 105984, Note_off_c, 0, 57, 40
2, 105984, Note_off_c, 0, 54, 18
2, 105984, Note_off_c, 0, 50, 27
2, 105984, Note_off_c, 0, 38, 35
2, 105984, Note_on_c, 0, 48, 61
2, 105984, Note_on_c, 0, 55, 79
2, 105984, Note_on_c, 0, 60, 73
2, 105984, Note_on_c, 0, 64, 75
2, 106368, Note_off_c, 0, 64, 36
2, 106368, Note_off_c, 0, 60, 48
2, 106368, Note_off_c, 0, 55, 38
2, 106368, Note_off_c, 0, 48, 52
2, 106368, Note_on_c, 0, 48, 83
2, 106368, Note_on_c, 0, 54, 84
2, 106368, Note_on_c, 0, 60, 83
2, 106368, Note_on_c, 0, 64, 78
2, 106752, Note_off_c, 0, 64, 34
2, 106752, Note_off_c, 0, 60, 53
2, 106752, Note_off_c, 0, 54, 46
2, 106752, Note_off_c, 0, 48, 45
2, 106752, Note_on_c, 0, 48, 93
2, 106752, Note_on_c, 0, 52, 93
2, 106752, Note_on_c, 0, 55, 66
2, 106752, Note_on_c, 0, 60, 66
2, 106752, Note_on_c, 0, 64, 66
2, 106800, Note_off_c, 0, 64, 64
2, 106800, Note_off_c, 0, 60, 64
2, 106800, Note_off_c, 0, 55, 64
2, 106800, Note_off_c, 0, 52, 64
2, 106800, Note_off_c, 0, 48, 58
2, 106944, Note_on_c, 0, 48, 81
2, 106944, Note_on_c, 0, 52, 83
2, 106944, Note_on_c, 0, 55, 86
2, 106944, Note_on_c, 0, 60, 80
2, 106944, Note_on_c, 0, 64, 78
2, 107328, Note_off_c, 0, 64, 25
2, 107328, Note_off_c, 0, 60, 34
2, 107328, Note_off_c, 0, 55, 41
2, 107328, Note_off_c, 0, 52, 34
2, 107328, Note_off_c, 0, 48, 38
2, 107328, Note_on_c, 0, 52, 85
2, 107328, Note_on_c, 0, 57, 79
2, 107328, Note_on_c, 0, 61, 75
2, 107328, Note_on_c, 0, 64, 79
2, 108096, Note_on_c, 0, 45, 72
2, 108192, Note_off_c, 0, 45, 32
2, 108192, Note_on_c, 0, 45, 85
2, 108288, Note_off_c, 0, 45, 64
2, 108288, Note_on_c, 0, 45, 105
2, 109056, Note_off_c, 0, 45, 64
2, 109056, Note_off_c, 0, 64, 22
2, 109056, Note_off_c, 0, 61, 2
2, 109056, Note_off_c, 0, 57, 25
2, 109056, Note_off_c, 0, 52, 36
2, 109056, Note_on_c, 0, 45, 68
2, 109056, Note_on_c, 0, 52, 68
2, 109056, Note_on_c, 0, 57, 68
2, 109056, Note_on_c, 0, 60, 68
2, 109056, Note_on_c, 0, 64, 68
2, 109440, Note_off_c, 0, 64, 22
2, 109440, Note_off_c, 0, 60, 45
2, 109440, Note_off_c, 0, 57, 30
2, 109440, Note_off_c, 0, 52, 36
2, 109440, Note_off_c, 0, 45, 42
2, 109440, Note_on_c, 0, 45, 74
2, 109440, Note_on_c, 0, 52, 74
2, 109440, Note_on_c, 0, 55, 74
2, 109440, Note_on_c, 0, 59, 74
2, 109440, Note_on_c, 0, 64, 74
2, 109824, Note_off_c, 0, 64, 30
2, 109824, Note_off_c, 0, 59, 33
2, 109824, Note_off_c, 0, 55, 37
2, 109824, Note_off_c, 0, 52, 38
2, 109824, Note_off_c, 0, 45, 41
2, 109824, Note_on_c, 0, 45, 79
2, 109824, Note_on_c, 0, 52, 75
2, 109824, Note_on_c, 0, 55, 73
2, 109824, Note_on_c, 0, 57, 74
2, 109824, Note_on_c, 0, 64, 74
2, 109872, Note_off_c, 0, 64, 33
2, 109872, Note_off_c, 0, 57, 57
2, 109872, Note_off_c, 0, 55, 44
2, 109872, Note_off_c, 0, 52, 35
2, 109872, Note_off_c, 0, 45, 42
2, 110016, Note_on_c, 0, 45, 85
2, 110016, Note_on_c, 0, 52, 85
2, 110016, Note_on_c, 0, 55, 85
2, 110016, Note_on_c, 0, 64, 85
2, 110400, Note_off_c, 0, 64, 32
2, 110400, Note_off_c, 0, 55, 41
2, 110400, Note_off_c, 0, 52, 37
2, 110400, Note_off_c, 0, 45, 42
2, 110400, Note_on_c, 0, 38, 78
2, 110400, Note_on_c, 0, 50, 76
2, 110400, Note_on_c, 0, 54, 77
2, 110400, Note_on_c, 0, 57, 79
2, 110400, Note_on_c, 0, 62, 76
2, 110784, Note_off_c, 0, 62, 39
2, 110784, Note_on_c, 0, 62, 65
2, 110976, Note_off_c, 0, 57, 40
2, 110976, Note_on_c, 0, 57, 65
2, 111168, Note_off_c, 0, 54, 18
2, 111168, Note_on_c, 0, 54, 72
2, 112128, Note_off_c, 0, 54, 64
2, 112128, Note_off_c, 0, 57, 64
2, 112128, Note_off_c, 0, 62, 64
2, 112128, Note_off_c, 0, 50, 27
2, 112128, Note_off_c, 0, 38, 35
2, 112128, Note_on_c, 0, 48, 61
2, 112128, Note_on_c, 0, 55, 79
2, 112128, Note_on_c, 0, 60, 73
2, 112128, Note_on_c, 0, 64, 75
2, 112512, Note_off_c, 0, 64, 36
2, 112512, Note_off_c, 0, 60, 48
2, 112512, Note_off_c, 0, 55, 38
2, 112512, Note_off_c, 0, 48, 52
2, 112512, Note_on_c, 0, 48, 83
2, 112512, Note_on_c, 0, 54, 84
2, 112512, Note_on_c, 0, 60, 83
2, 112512, Note_on_c, 0, 64, 78
2, 112896, Note_off_c, 0, 64, 34
2, 112896, Note_off_c, 0, 60, 53
2, 112896, Note_off_c, 0, 54, 46
2, 112896, Note_off_c, 0, 48, 45
2, 112896, Note_on_c, 0, 48, 93
2, 112896, Note_on_c, 0, 52, 93
2, 112896, Note_on_c, 0, 55, 66
2, 112896, Note_on_c, 0, 60, 66
2, 112896, Note_on_c, 0, 64, 66
2, 112944, Note_off_c, 0, 64, 64
2, 112944, Note_off_c, 0, 60, 64
2, 112944, Note_off_c, 0, 55, 64
2, 112944, Note_off_c, 0, 52, 64
2, 112944, Note_off_c, 0, 48, 58
2, 113088, Note_on_c, 0, 48, 81
2, 113088, Note_on_c, 0, 52, 83
2, 113088, Note_on_c, 0, 55, 86
2, 113088, Note_on_c, 0, 60, 80
2, 113088, Note_on_c, 0, 64, 78
2, 113472, Note_off_c, 0, 64, 25
2, 113472, Note_off_c, 0, 60, 34
2, 113472, Note_off_c, 0, 55, 41
2, 113472, Note_off_c, 0, 52, 34
2, 113472, Note_off_c, 0, 48, 38
2, 113472, Note_on_c, 0, 45, 85
2, 113472, Note_on_c, 0, 52, 85
2, 113472, Note_on_c, 0, 57, 79
2, 113472, Note_on_c, 0, 61, 75
2, 113472, Note_on_c, 0, 64, 79
2, 115200, Note_off_c, 0, 64, 22
2, 115200, Note_off_c, 0, 61, 2
2, 115200, Note_off_c, 0, 57, 25
2, 115200, Note_off_c, 0, 52, 36
2, 115200, Note_off_c, 0, 45, 32
2, 115200, Note_on_c, 0, 45, 68
2, 115200, Note_on_c, 0, 52, 68
2, 115200, Note_on_c, 0, 57, 68
2, 115200, Note_on_c, 0, 60, 68
2, 115200, Note_on_c, 0, 64, 68
2, 115584, Note_off_c, 0, 64, 22
2, 115584, Note_off_c, 0, 60, 45
2, 115584, Note_off_c, 0, 57, 30
2, 115584, Note_off_c, 0, 52, 36
2, 115584, Note_off_c, 0, 45, 42
2, 115584, Note_on_c, 0, 45, 74
2, 115584, Note_on_c, 0, 52, 74
2, 115584, Note_on_c, 0, 55, 74
2, 115584, Note_on_c, 0, 59, 74
2, 115584, Note_on_c, 0, 64, 74
2, 115968, Note_off_c, 0, 64, 30
2, 115968, Note_off_c, 0, 59, 33
2, 115968, Note_off_c, 0, 55, 37
2, 115968, Note_off_c, 0, 52, 38
2, 115968, Note_off_c, 0, 45, 41
2, 115968, Note_on_c, 0, 45, 79
2, 115968, Note_on_c, 0, 52, 75
2, 115968, Note_on_c, 0, 55, 73
2, 115968, Note_on_c, 0, 57, 74
2, 115968, Note_on_c, 0, 64, 74
2, 116016, Note_off_c, 0, 64, 33
2, 116016, Note_off_c, 0, 57, 57
2, 116016, Note_off_c, 0, 55, 44
2, 116016, Note_off_c, 0, 52, 35
2, 116016, Note_off_c, 0, 45, 42
2, 116160, Note_on_c, 0, 45, 85
2, 116160, Note_on_c, 0, 52, 85
2, 116160, Note_on_c, 0, 55, 85
2, 116160, Note_on_c, 0, 64, 85
2, 116544, Note_off_c, 0, 64, 32
2, 116544, Note_off_c, 0, 55, 41
2, 116544, Note_off_c, 0, 52, 37
2, 116544, Note_off_c, 0, 45, 42
2, 116544, Note_on_c, 0, 38, 78
2, 116544, Note_on_c, 0, 50, 76
2, 116544, Note_on_c, 0, 54, 77
2, 116544, Note_on_c, 0, 57, 79
2, 116544, Note_on_c, 0, 62, 76
2, 117696, Note_off_c, 0, 62, 39
2, 117696, Note_on_c, 0, 62, 56
2, 117888, Note_off_c, 0, 57, 40
2, 117888, Note_on_c, 0, 57, 66
2, 118080, Note_off_c, 0, 54, 18
2, 118080, Note_on_c, 0, 54, 72
2, 118272, Note_off_c, 0, 54, 64
2, 118272, Note_off_c, 0, 57, 64
2, 118272, Note_off_c, 0, 62, 64
2, 118272, Note_off_c, 0, 50, 27
2, 118272, Note_off_c, 0, 38, 35
2, 118272, Note_on_c, 0, 48, 61
2, 118272, Note_on_c, 0, 55, 79
2, 118272, Note_on_c, 0, 60, 73
2, 118272, Note_on_c, 0, 64, 75
2, 118656, Note_off_c, 0, 64, 36
2, 118656, Note_off_c, 0, 60, 48
2, 118656, Note_off_c, 0, 55, 38
2, 118656, Note_off_c, 0, 48, 52
2, 118656, Note_on_c, 0, 48, 83
2, 118656, Note_on_c, 0, 54, 84
2, 118656, Note_on_c, 0, 60, 83
2, 118656, Note_on_c, 0, 64, 78
2, 119040, Note_off_c, 0, 64, 34
2, 119040, Note_off_c, 0, 60, 53
2, 119040, Note_off_c, 0, 54, 46
2, 119040, Note_off_c, 0, 48, 45
2, 119040, Note_on_c, 0, 48, 93
2, 119040, Note_on_c, 0, 52, 93
2, 119040, Note_on_c, 0, 55, 66
2, 119040, Note_on_c, 0, 60, 66
2, 119040, Note_on_c, 0, 64, 66
2, 119088, Note_off_c, 0, 64, 64
2, 119088, Note_off_c, 0, 60, 64
2, 119088, Note_off_c, 0, 55, 64
2, 119088, Note_off_c, 0, 52, 64
2, 119088, Note_off_c, 0, 48, 58
2, 119232, Note_on_c, 0, 48, 81
2, 119232, Note_on_c, 0, 52, 83
2, 119232, Note_on_c, 0, 55, 86
2, 119232, Note_on_c, 0, 60, 80
2, 119232, Note_on_c, 0, 64, 78
2, 119616, Note_off_c, 0, 64, 25
2, 119616, Note_off_c, 0, 60, 34
2, 119616, Note_off_c, 0, 55, 41
2, 119616, Note_off_c, 0, 52, 34
2, 119616, Note_off_c, 0, 48, 38
2, 119616, Note_on_c, 0, 45, 85
2, 119616, Note_on_c, 0, 52, 85
2, 119616, Note_on_c, 0, 57, 79
2, 119616, Note_on_c, 0, 61, 75
2, 119616, Note_on_c, 0, 64, 79
2, 121344, Note_off_c, 0, 64, 22
2, 121344, Note_off_c, 0, 61, 2
2, 121344, Note_off_c, 0, 57, 25
2, 121344, Note_off_c, 0, 52, 36
2, 121344, Note_off_c, 0, 45, 32
2, 121344, Note_on_c, 0, 45, 68
2, 121344, Note_on_c, 0, 52, 68
2, 121344, Note_on_c, 0, 57, 68
2, 121344, Note_on_c, 0, 60, 68
2, 121344, Note_on_c, 0, 64, 68
2, 121728, Note_off_c, 0, 64, 22
2, 121728, Note_off_c, 0, 60, 45
2, 121728, Note_off_c, 0, 57, 30
2, 121728, Note_off_c, 0, 52, 36
2, 121728, Note_off_c, 0, 45, 42
2, 121728, Note_on_c, 0, 45, 74
2, 121728, Note_on_c, 0, 52, 74
2, 121728, Note_on_c, 0, 55, 74
2, 121728, Note_on_c, 0, 59, 74
2, 121728, Note_on_c, 0, 64, 74
2, 122112, Note_off_c, 0, 64, 30
2, 122112, Note_off_c, 0, 59, 33
2, 122112, Note_off_c, 0, 55, 37
2, 122112, Note_off_c, 0, 52, 38
2, 122112, Note_off_c, 0, 45, 41
2, 122112, Note_on_c, 0, 45, 79
2, 122112, Note_on_c, 0, 52, 75
2, 122112, Note_on_c, 0, 55, 73
2, 122112, Note_on_c, 0, 57, 74
2, 122112, Note_on_c, 0, 64, 74
2, 122160, Note_off_c, 0, 64, 33
2, 122160, Note_off_c, 0, 57, 57
2, 122160, Note_off_c, 0, 55, 44
2, 122160, Note_off_c, 0, 52, 35
2, 122160, Note_off_c, 0, 45, 42
2, 122304, Note_on_c, 0, 45, 85
2, 122304, Note_on_c, 0, 52, 85
2, 122304, Note_on_c, 0, 55, 85
2, 122304, Note_on_c, 0, 64, 85
2, 122688, Note_off_c, 0, 64, 32
2, 122688, Note_off_c, 0, 55, 41
2, 122688, Note_off_c, 0, 52, 37
2, 122688, Note_off_c, 0, 45, 42
2, 122688, Note_on_c, 0, 38, 78
2, 122688, Note_on_c, 0, 50, 76
2, 122688, Note_on_c, 0, 54, 77
2, 122688, Note_on_c, 0, 57, 79
2, 122688, Note_on_c, 0, 62, 76
2, 124416, Note_off_c, 0, 62, 39
2, 124416, Note_off_c, 0, 57, 40
2, 124416, Note_off_c, 0, 54, 18
2, 124416, Note_off_c, 0, 50, 27
2, 124416, Note_off_c, 0, 38, 35
2, 124416, Note_on_c, 0, 48, 61
2, 124416, Note_on_c, 0, 55, 79
2, 124416, Note_on_c, 0, 60, 73
2, 124416, Note_on_c, 0, 64, 75
2, 124800, Note_off_c, 0, 64, 36
2, 124800, Note_off_c, 0, 60, 48
2, 124800, Note_off_c, 0, 55, 38
2, 124800, Note_off_c, 0, 48, 52
2, 124800, Note_on_c, 0, 48, 83
2, 124800, Note_on_c, 0, 54, 84
2, 124800, Note_on_c, 0, 60, 83
2, 124800, Note_on_c, 0, 64, 78
2, 125184, Note_off_c, 0, 64, 34
2, 125184, Note_off_c, 0, 60, 53
2, 125184, Note_off_c, 0, 54, 46
2, 125184, Note_off_c, 0, 48, 45
2, 125184, Note_on_c, 0, 48, 93
2, 125184, Note_on_c, 0, 52, 93
2, 125184, Note_on_c, 0, 55, 66
2, 125184, Note_on_c, 0, 60, 66
2, 125184, Note_on_c, 0, 64, 66
2, 125232, Note_off_c, 0, 64, 64
2, 125232, Note_off_c, 0, 60, 64
2, 125232, Note_off_c, 0, 55, 64
2, 125232, Note_off_c, 0, 52, 64
2, 125232, Note_off_c, 0, 48, 58
2, 125376, Note_on_c, 0, 48, 81
2, 125376, Note_on_c, 0, 52, 83
2, 125376, Note_on_c, 0, 55, 86
2, 125376, Note_on_c, 0, 60, 80
2, 125376, Note_on_c, 0, 64, 78
2, 125760, Note_off_c, 0, 64, 25
2, 125760, Note_off_c, 0, 60, 34
2, 125760, Note_off_c, 0, 55, 41
2, 125760, Note_off_c, 0, 52, 34
2, 125760, Note_off_c, 0, 48, 38
2, 125760, Note_on_c, 0, 45, 85
2, 125760, Note_on_c, 0, 52, 85
2, 125760, Note_on_c, 0, 57, 79
2, 125760, Note_on_c, 0, 61, 75
2, 125760, Note_on_c, 0, 64, 79
2, 127488, Note_off_c, 0, 64, 22
2, 127488, Note_off_c, 0, 61, 2
2, 127488, Note_off_c, 0, 57, 25
2, 127488, Note_off_c, 0, 52, 36
2, 127488, Note_off_c, 0, 45, 32
2, 127488, Note_on_c, 0, 45, 68
2, 127488, Note_on_c, 0, 52, 68
2, 127488, Note_on_c, 0, 57, 68
2, 127488, Note_on_c, 0, 60, 68
2, 127488, Note_on_c, 0, 64, 68
2, 127872, Note_off_c, 0, 64, 22
2, 127872, Note_off_c, 0, 60, 45
2, 127872, Note_off_c, 0, 57, 30
2, 127872, Note_off_c, 0, 52, 36
2, 127872, Note_off_c, 0, 45, 42
2, 127872, Note_on_c, 0, 45, 74
2, 127872, Note_on_c, 0, 52, 74
2, 127872, Note_on_c, 0, 55, 74
2, 127872, Note_on_c, 0, 59, 74
2, 127872, Note_on_c, 0, 64, 74
2, 128256, Note_off_c, 0, 64, 30
2, 128256, Note_off_c, 0, 59, 33
2, 128256, Note_off_c, 0, 55, 37
2, 128256, Note_off_c, 0, 52, 38
2, 128256, Note_off_c, 0, 45, 41
2, 128256, Note_on_c, 0, 45, 79
2, 128256, Note_on_c, 0, 52, 75
2, 128256, Note_on_c, 0, 55, 73
2, 128256, Note_on_c, 0, 57, 74
2, 128256, Note_on_c, 0, 64, 74
2, 128304, Note_off_c, 0, 64, 33
2, 128304, Note_off_c, 0, 57, 57
2, 128304, Note_off_c, 0, 55, 44
2, 128304, Note_off_c, 0, 52, 35
2, 128304, Note_off_c, 0, 45, 42
2, 128448, Note_on_c, 0, 45, 85
2, 128448, Note_on_c, 0, 52, 85
2, 128448, Note_on_c, 0, 55, 85
2, 128448, Note_on_c, 0, 64, 85
2, 128832, Note_off_c, 0, 64, 32
2, 128832, Note_off_c, 0, 55, 41
2, 128832, Note_off_c, 0, 52, 37
2, 128832, Note_off_c, 0, 45, 42
2, 128832, Note_on_c, 0, 38, 78
2, 128832, Note_on_c, 0, 50, 76
2, 128832, Note_on_c, 0, 54, 77
2, 128832, Note_on_c, 0, 57, 79
2, 128832, Note_on_c, 0, 62, 76
2, 129984, Note_off_c, 0, 62, 39
2, 129984, Note_on_c, 0, 62, 56
2, 130176, Note_off_c, 0, 57, 40
2, 130176, Note_on_c, 0, 57, 66
2, 130368, Note_off_c, 0, 54, 18
2, 130368, Note_on_c, 0, 54, 72
2, 130560, Note_off_c, 0, 54, 64
2, 130560, Note_off_c, 0, 57, 64
2, 130560, Note_off_c, 0, 62, 64
2, 130560, Note_off_c, 0, 50, 27
2, 130560, Note_off_c, 0, 38, 35
2, 130560, Note_on_c, 0, 48, 61
2, 130560, Note_on_c, 0, 55, 79
2, 130560, Note_on_c, 0, 60, 73
2, 130560, Note_on_c, 0, 64, 75
2, 130944, Note_off_c, 0, 64, 36
2, 130944, Note_off_c, 0, 60, 48
2, 130944, Note_off_c, 0, 55, 38
2, 130944, Note_off_c, 0, 48, 52
2, 130944, Note_on_c, 0, 48, 83
2, 130944, Note_on_c, 0, 54, 84
2, 130944, Note_on_c, 0, 60, 83
2, 130944, Note_on_c, 0, 64, 78
2, 131328, Note_off_c, 0, 64, 34
2, 131328, Note_off_c, 0, 60, 53
2, 131328, Note_off_c, 0, 54, 46
2, 131328, Note_off_c, 0, 48, 45
2, 131328, Note_on_c, 0, 48, 93
2, 131328, Note_on_c, 0, 52, 93
2, 131328, Note_on_c, 0, 55, 66
2, 131328, Note_on_c, 0, 60, 66
2, 131328, Note_on_c, 0, 64, 66
2, 131376, Note_off_c, 0, 64, 64
2, 131376, Note_off_c, 0, 60, 64
2, 131376, Note_off_c, 0, 55, 64
2, 131376, Note_off_c, 0, 52, 64
2, 131376, Note_off_c, 0, 48, 58
2, 131520, Note_on_c, 0, 48, 81
2, 131520, Note_on_c, 0, 52, 83
2, 131520, Note_on_c, 0, 55, 86
2, 131520, Note_on_c, 0, 60, 80
2, 131520, Note_on_c, 0, 64, 78
2, 131904, Note_off_c, 0, 64, 25
2, 131904, Note_off_c, 0, 60, 34
2, 131904, Note_off_c, 0, 55, 41
2, 131904, Note_off_c, 0, 52, 34
2, 131904, Note_off_c, 0, 48, 38
2, 131904, Note_on_c, 0, 45, 85
2, 131904, Note_on_c, 0, 52, 85
2, 131904, Note_on_c, 0, 57, 79
2, 131904, Note_on_c, 0, 61, 75
2, 131904, Note_on_c, 0, 64, 79
2, 133632, Note_off_c, 0, 64, 22
2, 133632, Note_off_c, 0, 61, 2
2, 133632, Note_off_c, 0, 57, 25
2, 133632, Note_off_c, 0, 52, 36
2, 133632, Note_off_c, 0, 45, 32
2, 133632, Note_on_c, 0, 45, 85
2, 133632, Note_on_c, 0, 52, 85
2, 133632, Note_on_c, 0, 57, 85
2, 133632, Note_on_c, 0, 60, 85
2, 134400, Note_off_c, 0, 60, 21
2, 134400, Note_off_c, 0, 57, 27
2, 134400, Note_off_c, 0, 52, 27
2, 134400, Note_off_c, 0, 45, 26
2, 134400, Note_on_c, 0, 40, 85
2, 134400, Note_on_c, 0, 47, 85
2, 134400, Note_on_c, 0, 52, 85
2, 134400, Note_on_c, 0, 55, 85
2, 134400, Note_on_c, 0, 59, 85
2, 134448, Note_off_c, 0, 59, 39
2, 134448, Note_off_c, 0, 55, 48
2, 134448, Note_off_c, 0, 52, 41
2, 134448, Note_off_c, 0, 47, 55
2, 134448, Note_off_c, 0, 40, 56
2, 134592, Note_on_c, 0, 40, 89
2, 134592, Note_on_c, 0, 47, 85
2, 134592, Note_on_c, 0, 52, 89
2, 134592, Note_on_c, 0, 55, 85
2, 134592, Note_on_c, 0, 59, 89
2, 134976, Note_off_c, 0, 59, 40
2, 134976, Note_off_c, 0, 55, 32
2, 134976, Note_off_c, 0, 52, 26
2, 134976, Note_off_c, 0, 47, 33
2, 134976, Note_off_c, 0, 40, 33
2, 134976, Note_on_c, 0, 33, 72
2, 134976, Note_on_c, 0, 45, 91
2, 134976, Note_on_c, 0, 48, 90
2, 134976, Note_on_c, 0, 52, 90
2, 134976, Note_on_c, 0, 57, 90
2, 136704, Note_off_c, 0, 57, 45
2, 136704, Note_off_c, 0, 52, 29
2, 136704, Note_on_c, 0, 45, 85
2, 136704, Note_on_c, 0, 52, 85
2, 136704, Note_on_c, 0, 57, 85
2, 136704, Note_on_c, 0, 60, 85
2, 136718, Note_off_c, 0, 48, 33
2, 136722, Note_off_c, 0, 45, 38
2, 136722, Note_off_c, 0, 33, 17
2, 137472, Note_off_c, 0, 60, 21
2, 137472, Note_off_c, 0, 57, 27
2, 137472, Note_off_c, 0, 52, 27
2, 137472, Note_off_c, 0, 45, 26
2, 137472, Note_on_c, 0, 40, 85
2, 137472, Note_on_c, 0, 47, 85
2, 137472, Note_on_c, 0, 52, 85
2, 137472, Note_on_c, 0, 55, 85
2, 137472, Note_on_c, 0, 59, 85
2, 137520, Note_off_c, 0, 59, 39
2, 137520, Note_off_c, 0, 55, 48
2, 137520, Note_off_c, 0, 52, 41
2, 137520, Note_off_c, 0, 47, 55
2, 137520, Note_off_c, 0, 40, 56
2, 137664, Note_on_c, 0, 40, 89
2, 137664, Note_on_c, 0, 47, 85
2, 137664, Note_on_c, 0, 52, 89
2, 137664, Note_on_c, 0, 55, 85
2, 137664, Note_on_c, 0, 59, 89
2, 138048, Note_off_c, 0, 59, 40
2, 138048, Note_off_c, 0, 55, 32
2, 138048, Note_off_c, 0, 52, 26
2, 138048, Note_off_c, 0, 47, 33
2, 138048, Note_off_c, 0, 40, 33
2, 138048, Note_on_c, 0, 36, 94
2, 138048, Note_on_c, 0, 43, 99
2, 138048, Note_on_c, 0, 48, 87
2, 138048, Note_on_c, 0, 52, 92
2, 138048, Note_on_c, 0, 55, 93
2, 140352, Note_off_c, 0, 52, 48
2, 140352, Note_on_c, 0, 52, 91
2, 140544, Note_off_c, 0, 52, 71
2, 140544, Note_off_c, 0, 55, 38
2, 140544, Note_off_c, 0, 48, 47
2, 140544, Note_off_c, 0, 43, 50
2, 140544, Note_off_c, 0, 36, 48
2, 140544, Note_on_c, 0, 36, 81
2, 140544, Note_on_c, 0, 43, 83
2, 140544, Note_on_c, 0, 48, 91
2, 140544, Note_on_c, 0, 55, 91
2, 140832, Note_on_c, 0, 52, 92
2, 141120, Note_off_c, 0, 52, 66
2, 141120, Note_off_c, 0, 55, 48
2, 141120, Note_off_c, 0, 48, 30
2, 141120, Note_off_c, 0, 43, 30
2, 141120, Note_off_c, 0, 36, 14
2, 141120, Note_on_c, 0, 38, 79
2, 141120, Note_on_c, 0, 45, 77
2, 141120, Note_on_c, 0, 50, 81
2, 141120, Note_on_c, 0, 54, 79
2, 141408, Note_on_c, 0, 57, 83
2, 141792, Note_off_c, 0, 57, 64
2, 141792, Note_off_c, 0, 54, 27
2, 141792, Note_off_c, 0, 50, 18
2, 141792, Note_off_c, 0, 45, 27
2, 141792, Note_off_c, 0, 38, 41
2, 141792, Note_on_c, 0, 31, 64
2, 141792, Note_on_c, 0, 43, 59
2, 141792, Note_on_c, 0, 50, 63
2, 141792, Note_on_c, 0, 55, 70
2, 141792, Note_on_c, 0, 59, 45
2, 144000, Note_off_c, 0, 59, 30
2, 144000, Note_off_c, 0, 55, 31
2, 144000, Note_off_c, 0, 50, 4
2, 144000, Note_off_c, 0, 43, 48
2, 144000, Note_off_c, 0, 31, 26
2, 145920, End_track
3, 0, Start_track
3, 0, Title_t, "Metronome"
3, 0, Note_on_c, 9, 37, 98
3, 96, Note_off_c, 9, 37, 64
3, 384, Note_on_c, 9, 37, 58
3, 480, Note_off_c, 9, 37, 64
3, 768, Note_on_c, 9, 37, 58
3, 864, Note_off_c, 9, 37, 64
3, 1152, Note_on_c, 9, 37, 58
3, 1248, Note_off_c, 9, 37, 64
3, 1536, Note_on_c, 9, 37, 98
3, 1632, Note_off_c, 9, 37, 64
3, 1920, Note_on_c, 9, 37, 58
3, 2016, Note_off_c, 9, 37, 64
3, 2304, Note_on_c, 9, 37, 58
3, 2400, Note_off_c, 9, 37, 64
3, 2688, Note_on_c, 9, 37, 58
3, 2784, Note_off_c, 9, 37, 64
3, 3072, Note_on_c, 9, 37, 98
3, 3168, Note_off_c, 9, 37, 64
3, 3456, Note_on_c, 9, 37, 58
3, 3552, Note_off_c, 9, 37, 64
3, 3840, Note_on_c, 9, 37, 58
3, 3936, Note_off_c, 9, 37, 64
3, 4224, Note_on_c, 9, 37, 58
3, 4320, Note_off_c, 9, 37, 64
3, 4608, Note_on_c, 9, 37, 98
3, 4704, Note_off_c, 9, 37, 64
3, 4992, Note_on_c, 9, 37, 58
3, 5088, Note_off_c, 9, 37, 64
3, 5376, Note_on_c, 9, 37, 58
3, 5472, Note_off_c, 9, 37, 64
3, 5760, Note_on_c, 9, 37, 58
3, 5856, Note_off_c, 9, 37, 64
3, 6144, Note_on_c, 9, 37, 98
3, 6240, Note_off_c, 9, 37, 64
3, 6528, Note_on_c, 9, 37, 58
3, 6624, Note_off_c, 9, 37, 64
3, 6912, Note_on_c, 9, 37, 58
3, 7008, Note_off_c, 9, 37, 64
3, 7296, Note_on_c, 9, 37, 58
3, 7392, Note_off_c, 9, 37, 64
3, 7680, Note_on_c, 9, 37, 98
3, 7776, Note_off_c, 9, 37, 64
3, 8064, Note_on_c, 9, 37, 58
3, 8160, Note_off_c, 9, 37, 64
3, 8448, Note_on_c, 9, 37, 58
3, 8544, Note_off_c, 9, 37, 64
3, 8832, Note_on_c, 9, 37, 58
3, 8928, Note_off_c, 9, 37, 64
3, 9216, Note_on_c, 9, 37, 98
3, 9312, Note_off_c, 9, 37, 64
3, 9600, Note_on_c, 9, 37, 58
3, 9696, Note_off_c, 9, 37, 64
3, 9984, Note_on_c, 9, 37, 58
3, 10080, Note_off_c, 9, 37, 64
3, 10368, Note_on_c, 9, 37, 58
3, 10464, Note_off_c, 9, 37, 64
3, 10752, Note_on_c, 9, 37, 98
3, 10848, Note_off_c, 9, 37, 64
3, 11136, Note_on_c, 9, 37, 58
3, 11232, Note_off_c, 9, 37, 64
3, 11520, Note_on_c, 9, 37, 58
3, 11616, Note_off_c, 9, 37, 64
3, 11904, Note_on_c, 9, 37, 58
3, 12000, Note_off_c, 9, 37, 64
3, 12288, Note_on_c, 9, 37, 98
3, 12384, Note_off_c, 9, 37, 64
3, 12672, Note_on_c, 9, 37, 58
3, 12768, Note_off_c, 9, 37, 64
3, 13056, Note_on_c, 9, 37, 58
3, 13152, Note_off_c, 9, 37, 64
3, 13440, Note_on_c, 9, 37, 58
3, 13536, Note_off_c, 9, 37, 64
3, 13824, Note_on_c, 9, 37, 98
3, 13920, Note_off_c, 9, 37, 64
3, 14208, Note_on_c, 9, 37, 58
3, 14304, Note_off_c, 9, 37, 64
3, 14592, Note_on_c, 9, 37, 58
3, 14688, Note_off_c, 9, 37, 64
3, 14976, Note_on_c, 9, 37, 58
3, 15072, Note_off_c, 9, 37, 64
3, 15360, Note_on_c, 9, 37, 98
3, 15456, Note_off_c, 9, 37, 64
3, 15744, Note_on_c, 9, 37, 58
3, 15840, Note_off_c, 9, 37, 64
3, 16128, Note_on_c, 9, 37, 58
3, 16224, Note_off_c, 9, 37, 64
3, 16512, Note_on_c, 9, 37, 58
3, 16608, Note_off_c, 9, 37, 64
3, 16896, Note_on_c, 9, 37, 98
3, 16992, Note_off_c, 9, 37, 64
3, 17280, Note_on_c, 9, 37, 58
3, 17376, Note_off_c, 9, 37, 64
3, 17664, Note_on_c, 9, 37, 58
3, 17760, Note_off_c, 9, 37, 64
3, 18048, Note_on_c, 9, 37, 58
3, 18144, Note_off_c, 9, 37, 64
3, 18432, Note_on_c, 9, 37, 98
3, 18528, Note_off_c, 9, 37, 64
3, 18816, Note_on_c, 9, 37, 58
3, 18912, Note_off_c, 9, 37, 64
3, 19200, Note_on_c, 9, 37, 58
3, 19296, Note_off_c, 9, 37, 64
3, 19584, Note_on_c, 9, 37, 58
3, 19680, Note_off_c, 9, 37, 64
3, 19968, Note_on_c, 9, 37, 98
3, 20064, Note_off_c, 9, 37, 64
3, 20352, Note_on_c, 9, 37, 58
3, 20448, Note_off_c, 9, 37, 64
3, 20736, Note_on_c, 9, 37, 58
3, 20832, Note_off_c, 9, 37, 64
3, 21120, Note_on_c, 9, 37, 58
3, 21216, Note_off_c, 9, 37, 64
3, 21504, Note_on_c, 9, 37, 98
3, 21600, Note_off_c, 9, 37, 64
3, 21888, Note_on_c, 9, 37, 58
3, 21984, Note_off_c, 9, 37, 64
3, 22272, Note_on_c, 9, 37, 58
3, 22368, Note_off_c, 9, 37, 64
3, 22656, Note_on_c, 9, 37, 58
3, 22752, Note_off_c, 9, 37, 64
3, 23040, Note_on_c, 9, 37, 98
3, 23136, Note_off_c, 9, 37, 64
3, 23424, Note_on_c, 9, 37, 58
3, 23520, Note_off_c, 9, 37, 64
3, 23808, Note_on_c, 9, 37, 58
3, 23904, Note_off_c, 9, 37, 64
3, 24192, Note_on_c, 9, 37, 58
3, 24288, Note_off_c, 9, 37, 64
3, 24576, Note_on_c, 9, 37, 98
3, 24672, Note_off_c, 9, 37, 64
3, 24960, Note_on_c, 9, 37, 58
3, 25056, Note_off_c, 9, 37, 64
3, 25344, Note_on_c, 9, 37, 58
3, 25440, Note_off_c, 9, 37, 64
3, 25728, Note_on_c, 9, 37, 58
3, 25824, Note_off_c, 9, 37, 64
3, 26112, Note_on_c, 9, 37, 98
3, 26208, Note_off_c, 9, 37, 64
3, 26496, Note_on_c, 9, 37, 58
3, 26592, Note_off_c, 9, 37, 64
3, 26880, Note_on_c, 9, 37, 58
3, 26976, Note_off_c, 9, 37, 64
3, 27264, Note_on_c, 9, 37, 58
3, 27360, Note_off_c, 9, 37, 64
3, 27648, Note_on_c, 9, 37, 98
3, 27744, Note_off_c, 9, 37, 64
3, 28032, Note_on_c, 9, 37, 58
3, 28128, Note_off_c, 9, 37, 64
3, 28416, Note_on_c, 9, 37, 58
3, 28512, Note_off_c, 9, 37, 64
3, 28800, Note_on_c, 9, 37, 58
3, 28896, Note_off_c, 9, 37, 64
3, 29184, Note_on_c, 9, 37, 98
3, 29280, Note_off_c, 9, 37, 64
3, 29568, Note_on_c, 9, 37, 58
3, 29664, Note_off_c, 9, 37, 64
3, 29952, Note_on_c, 9, 37, 58
3, 30048, Note_off_c, 9, 37, 64
3, 30336, Note_on_c, 9, 37, 58
3, 30432, Note_off_c, 9, 37, 64
3, 30720, Note_on_c, 9, 37, 98
3, 30816, Note_off_c, 9, 37, 64
3, 31104, Note_on_c, 9, 37, 58
3, 31200, Note_off_c, 9, 37, 64
3, 31488, Note_on_c, 9, 37, 58
3, 31584, Note_off_c, 9, 37, 64
3, 31872, Note_on_c, 9, 37, 58
3, 31968, Note_off_c, 9, 37, 64
3, 32256, Note_on_c, 9, 37, 98
3, 32352, Note_off_c, 9, 37, 64
3, 32640, Note_on_c, 9, 37, 58
3, 32736, Note_off_c, 9, 37, 64
3, 33024, Note_on_c, 9, 37, 58
3, 33120, Note_off_c, 9, 37, 64
3, 33408, Note_on_c, 9, 37, 58
3, 33504, Note_off_c, 9, 37, 64
3, 33792, Note_on_c, 9, 37, 98
3, 33888, Note_off_c, 9, 37, 64
3, 34176, Note_on_c, 9, 37, 58
3, 34272, Note_off_c, 9, 37, 64
3, 34560, Note_on_c, 9, 37, 58
3, 34656, Note_off_c, 9, 37, 64
3, 34944, Note_on_c, 9, 37, 58
3, 35040, Note_off_c, 9, 37, 64
3, 35328, Note_on_c, 9, 37, 98
3, 35424, Note_off_c, 9, 37, 64
3, 35712, Note_on_c, 9, 37, 58
3, 35808, Note_off_c, 9, 37, 64
3, 36096, Note_on_c, 9, 37, 58
3, 36192, Note_off_c, 9, 37, 64
3, 36480, Note_on_c, 9, 37, 58
3, 36576, Note_off_c, 9, 37, 64
3, 36864, Note_on_c, 9, 37, 98
3, 36960, Note_off_c, 9, 37, 64
3, 37248, Note_on_c, 9, 37, 58
3, 37344, Note_off_c, 9, 37, 64
3, 37632, Note_on_c, 9, 37, 58
3, 37728, Note_off_c, 9, 37, 64
3, 38016, Note_on_c, 9, 37, 58
3, 38112, Note_off_c, 9, 37, 64
3, 38400, Note_on_c, 9, 37, 98
3, 38496, Note_off_c, 9, 37, 64
3, 38784, Note_on_c, 9, 37, 58
3, 38880, Note_off_c, 9, 37, 64
3, 39168, Note_on_c, 9, 37, 58
3, 39264, Note_off_c, 9, 37, 64
3, 39552, Note_on_c, 9, 37, 58
3, 39648, Note_off_c, 9, 37, 64
3, 39936, Note_on_c, 9, 37, 98
3, 40032, Note_off_c, 9, 37, 64
3, 40320, Note_on_c, 9, 37, 58
3, 40416, Note_off_c, 9, 37, 64
3, 40704, Note_on_c, 9, 37, 58
3, 40800, Note_off_c, 9, 37, 64
3, 41088, Note_on_c, 9, 37, 58
3, 41184, Note_off_c, 9, 37, 64
3, 41472, Note_on_c, 9, 37, 98
3, 41568, Note_off_c, 9, 37, 64
3, 41856, Note_on_c, 9, 37, 58
3, 41952, Note_off_c, 9, 37, 64
3, 42240, Note_on_c, 9, 37, 58
3, 42336, Note_off_c, 9, 37, 64
3, 42624, Note_on_c, 9, 37, 58
3, 42720, Note_off_c, 9, 37, 64
3, 43008, Note_on_c, 9, 37, 98
3, 43104, Note_off_c, 9, 37, 64
3, 43392, Note_on_c, 9, 37, 58
3, 43488, Note_off_c, 9, 37, 64
3, 43776, Note_on_c, 9, 37, 58
3, 43872, Note_off_c, 9, 37, 64
3, 44160, Note_on_c, 9, 37, 58
3, 44256, Note_off_c, 9, 37, 64
3, 44544, Note_on_c, 9, 37, 98
3, 44640, Note_off_c, 9, 37, 64
3, 44928, Note_on_c, 9, 37, 58
3, 45024, Note_off_c, 9, 37, 64
3, 45312, Note_on_c, 9, 37, 58
3, 45408, Note_off_c, 9, 37, 64
3, 45696, Note_on_c, 9, 37, 58
3, 45792, Note_off_c, 9, 37, 64
3, 46080, Note_on_c, 9, 37, 98
3, 46176, Note_off_c, 9, 37, 64
3, 46464, Note_on_c, 9, 37, 58
3, 46560, Note_off_c, 9, 37, 64
3, 46848, Note_on_c, 9, 37, 58
3, 46944, Note_off_c, 9, 37, 64
3, 47232, Note_on_c, 9, 37, 58
3, 47328, Note_off_c, 9, 37, 64
3, 47616, Note_on_c, 9, 37, 98
3, 47712, Note_off_c, 9, 37, 64
3, 48000, Note_on_c, 9, 37, 58
3, 48096, Note_off_c, 9, 37, 64
3, 48384, Note_on_c, 9, 37, 58
3, 48480, Note_off_c, 9, 37, 64
3, 48768, Note_on_c, 9, 37, 58
3, 48864, Note_off_c, 9, 37, 64
3, 49152, Note_on_c, 9, 37, 98
3, 49248, Note_off_c, 9, 37, 64
3, 49536, Note_on_c, 9, 37, 58
3, 49632, Note_off_c, 9, 37, 64
3, 49920, Note_on_c, 9, 37, 58
3, 50016, Note_off_c, 9, 37, 64
3, 50304, Note_on_c, 9, 37, 58
3, 50400, Note_off_c, 9, 37, 64
3, 50688, Note_on_c, 9, 37, 98
3, 50784, Note_off_c, 9, 37, 64
3, 51072, Note_on_c, 9, 37, 58
3, 51168, Note_off_c, 9, 37, 64
3, 51456, Note_on_c, 9, 37, 58
3, 51552, Note_off_c, 9, 37, 64
3, 51840, Note_on_c, 9, 37, 58
3, 51936, Note_off_c, 9, 37, 64
3, 52224, Note_on_c, 9, 37, 98
3, 52320, Note_off_c, 9, 37, 64
3, 52608, Note_on_c, 9, 37, 58
3, 52704, Note_off_c, 9, 37, 64
3, 52992, Note_on_c, 9, 37, 58
3, 53088, Note_off_c, 9, 37, 64
3, 53376, Note_on_c, 9, 37, 58
3, 53472, Note_off_c, 9, 37, 64
3, 53760, Note_on_c, 9, 37, 98
3, 53856, Note_off_c, 9, 37, 64
3, 54144, Note_on_c, 9, 37, 58
3, 54240, Note_off_c, 9, 37, 64
3, 54528, Note_on_c, 9, 37, 58
3, 54624, Note_off_c, 9, 37, 64
3, 54912, Note_on_c, 9, 37, 58
3, 55008, Note_off_c, 9, 37, 64
3, 55296, Note_on_c, 9, 37, 98
3, 55392, Note_off_c, 9, 37, 64
3, 55680, Note_on_c, 9, 37, 58
3, 55776, Note_off_c, 9, 37, 64
3, 56064, Note_on_c, 9, 37, 58
3, 56160, Note_off_c, 9, 37, 64
3, 56448, Note_on_c, 9, 37, 58
3, 56544, Note_off_c, 9, 37, 64
3, 56832, Note_on_c, 9, 37, 98
3, 56928, Note_off_c, 9, 37, 64
3, 57216, Note_on_c, 9, 37, 58
3, 57312, Note_off_c, 9, 37, 64
3, 57600, Note_on_c, 9, 37, 58
3, 57696, Note_off_c, 9, 37, 64
3, 57984, Note_on_c, 9, 37, 58
3, 58080, Note_off_c, 9, 37, 64
3, 58368, Note_on_c, 9, 37, 98
3, 58464, Note_off_c, 9, 37, 64
3, 58752, Note_on_c, 9, 37, 58
3, 58848, Note_off_c, 9, 37, 64
3, 59136, Note_on_c, 9, 37, 58
3, 59232, Note_off_c, 9, 37, 64
3, 59520, Note_on_c, 9, 37, 58
3, 59616, Note_off_c, 9, 37, 64
3, 59904, Note_on_c, 9, 37, 98
3, 60000, Note_off_c, 9, 37, 64
3, 60288, Note_on_c, 9, 37, 58
3, 60384, Note_off_c, 9, 37, 64
3, 60672, Note_on_c, 9, 37, 58
3, 60768, Note_off_c, 9, 37, 64
3, 61056, Note_on_c, 9, 37, 58
3, 61152, Note_off_c, 9, 37, 64
3, 61440, Note_on_c, 9, 37, 98
3, 61536, Note_off_c, 9, 37, 64
3, 61824, Note_on_c, 9, 37, 58
3, 61920, Note_off_c, 9, 37, 64
3, 62208, Note_on_c, 9, 37, 58
3, 62304, Note_off_c, 9, 37, 64
3, 62592, Note_on_c, 9, 37, 58
3, 62688, Note_off_c, 9, 37, 64
3, 62976, Note_on_c, 9, 37, 98
3, 63072, Note_off_c, 9, 37, 64
3, 63360, Note_on_c, 9, 37, 58
3, 63456, Note_off_c, 9, 37, 64
3, 63744, Note_on_c, 9, 37, 58
3, 63840, Note_off_c, 9, 37, 64
3, 64128, Note_on_c, 9, 37, 58
3, 64224, Note_off_c, 9, 37, 64
3, 64512, Note_on_c, 9, 37, 98
3, 64608, Note_off_c, 9, 37, 64
3, 64896, Note_on_c, 9, 37, 58
3, 64992, Note_off_c, 9, 37, 64
3, 65280, Note_on_c, 9, 37, 58
3, 65376, Note_off_c, 9, 37, 64
3, 65664, Note_on_c, 9, 37, 58
3, 65760, Note_off_c, 9, 37, 64
3, 66048, Note_on_c, 9, 37, 98
3, 66144, Note_off_c, 9, 37, 64
3, 66432, Note_on_c, 9, 37, 58
3, 66528, Note_off_c, 9, 37, 64
3, 66816, Note_on_c, 9, 37, 58
3, 66912, Note_off_c, 9, 37, 64
3, 67200, Note_on_c, 9, 37, 58
3, 67296, Note_off_c, 9, 37, 64
3, 67584, Note_on_c, 9, 37, 98
3, 67680, Note_off_c, 9, 37, 64
3, 67968, Note_on_c, 9, 37, 58
3, 68064, Note_off_c, 9, 37, 64
3, 68352, Note_on_c, 9, 37, 58
3, 68448, Note_off_c, 9, 37, 64
3, 68736, Note_on_c, 9, 37, 58
3, 68832, Note_off_c, 9, 37, 64
3, 69120, Note_on_c, 9, 37, 98
3, 69216, Note_off_c, 9, 37, 64
3, 69504, Note_on_c, 9, 37, 58
3, 69600, Note_off_c, 9, 37, 64
3, 69888, Note_on_c, 9, 37, 58
3, 69984, Note_off_c, 9, 37, 64
3, 70272, Note_on_c, 9, 37, 58
3, 70368, Note_off_c, 9, 37, 64
3, 70656, Note_on_c, 9, 37, 98
3, 70752, Note_off_c, 9, 37, 64
3, 71040, Note_on_c, 9, 37, 58
3, 71136, Note_off_c, 9, 37, 64
3, 71424, Note_on_c, 9, 37, 58
3, 71520, Note_off_c, 9, 37, 64
3, 71808, Note_on_c, 9, 37, 58
3, 71904, Note_off_c, 9, 37, 64
3, 72192, Note_on_c, 9, 37, 98
3, 72288, Note_off_c, 9, 37, 64
3, 72576, Note_on_c, 9, 37, 58
3, 72672, Note_off_c, 9, 37, 64
3, 72960, Note_on_c, 9, 37, 58
3, 73056, Note_off_c, 9, 37, 64
3, 73344, Note_on_c, 9, 37, 58
3, 73440, Note_off_c, 9, 37, 64
3, 73728, Note_on_c, 9, 37, 98
3, 73824, Note_off_c, 9, 37, 64
3, 74112, Note_on_c, 9, 37, 58
3, 74208, Note_off_c, 9, 37, 64
3, 74496, Note_on_c, 9, 37, 58
3, 74592, Note_off_c, 9, 37, 64
3, 74880, Note_on_c, 9, 37, 58
3, 74976, Note_off_c, 9, 37, 64
3, 75264, Note_on_c, 9, 37, 98
3, 75360, Note_off_c, 9, 37, 64
3, 75648, Note_on_c, 9, 37, 58
3, 75744, Note_off_c, 9, 37, 64
3, 76032, Note_on_c, 9, 37, 58
3, 76128, Note_off_c, 9, 37, 64
3, 76416, Note_on_c, 9, 37, 58
3, 76512, Note_off_c, 9, 37, 64
3, 76800, Note_on_c, 9, 37, 98
3, 76896, Note_off_c, 9, 37, 64
3, 77184, Note_on_c, 9, 37, 58
3, 77280, Note_off_c, 9, 37, 64
3, 77568, Note_on_c, 9, 37, 58
3, 77664, Note_off_c, 9, 37, 64
3, 77952, Note_on_c, 9, 37, 58
3, 78048, Note_off_c, 9, 37, 64
3, 78336, Note_on_c, 9, 37, 98
3, 78432, Note_off_c, 9, 37, 64
3, 78720, Note_on_c, 9, 37, 58
3, 78816, Note_off_c, 9, 37, 64
3, 79104, Note_on_c, 9, 37, 58
3, 79200, Note_off_c, 9, 37, 64
3, 79488, Note_on_c, 9, 37, 58
3, 79584, Note_off_c, 9, 37, 64
3, 79872, Note_on_c, 9, 37, 98
3, 79968, Note_off_c, 9, 37, 64
3, 80256, Note_on_c, 9, 37, 58
3, 80352, Note_off_c, 9, 37, 64
3, 80640, Note_on_c, 9, 37, 58
3, 80736, Note_off_c, 9, 37, 64
3, 81024, Note_on_c, 9, 37, 58
3, 81120, Note_off_c, 9, 37, 64
3, 81408, Note_on_c, 9, 37, 98
3, 81504, Note_off_c, 9, 37, 64
3, 81792, Note_on_c, 9, 37, 58
3, 81888, Note_off_c, 9, 37, 64
3, 82176, Note_on_c, 9, 37, 58
3, 82272, Note_off_c, 9, 37, 64
3, 82560, Note_on_c, 9, 37, 58
3, 82656, Note_off_c, 9, 37, 64
3, 82944, Note_on_c, 9, 37, 98
3, 83040, Note_off_c, 9, 37, 64
3, 83328, Note_on_c, 9, 37, 58
3, 83424, Note_off_c, 9, 37, 64
3, 83712, Note_on_c, 9, 37, 58
3, 83808, Note_off_c, 9, 37, 64
3, 84096, Note_on_c, 9, 37, 58
3, 84192, Note_off_c, 9, 37, 64
3, 84480, Note_on_c, 9, 37, 98
3, 84576, Note_off_c, 9, 37, 64
3, 84864, Note_on_c, 9, 37, 58
3, 84960, Note_off_c, 9, 37, 64
3, 85248, Note_on_c, 9, 37, 58
3, 85344, Note_off_c, 9, 37, 64
3, 85632, Note_on_c, 9, 37, 58
3, 85728, Note_off_c, 9, 37, 64
3, 86016, Note_on_c, 9, 37, 98
3, 86112, Note_off_c, 9, 37, 64
3, 86400, Note_on_c, 9, 37, 58
3, 86496, Note_off_c, 9, 37, 64
3, 86784, Note_on_c, 9, 37, 58
3, 86880, Note_off_c, 9, 37, 64
3, 87168, Note_on_c, 9, 37, 58
3, 87264, Note_off_c, 9, 37, 64
3, 87552, Note_on_c, 9, 37, 98
3, 87648, Note_off_c, 9, 37, 64
3, 87936, Note_on_c, 9, 37, 58
3, 88032, Note_off_c, 9, 37, 64
3, 88320, Note_on_c, 9, 37, 58
3, 88416, Note_off_c, 9, 37, 64
3, 88704, Note_on_c, 9, 37, 58
3, 88800, Note_off_c, 9, 37, 64
3, 89088, Note_on_c, 9, 37, 98
3, 89184, Note_off_c, 9, 37, 64
3, 89472, Note_on_c, 9, 37, 58
3, 89568, Note_off_c, 9, 37, 64
3, 89856, Note_on_c, 9, 37, 58
3, 89952, Note_off_c, 9, 37, 64
3, 90240, Note_on_c, 9, 37, 58
3, 90336, Note_off_c, 9, 37, 64
3, 90624, Note_on_c, 9, 37, 98
3, 90720, Note_off_c, 9, 37, 64
3, 91008, Note_on_c, 9, 37, 58
3, 91104, Note_off_c, 9, 37, 64
3, 91392, Note_on_c, 9, 37, 58
3, 91488, Note_off_c, 9, 37, 64
3, 91776, Note_on_c, 9, 37, 58
3, 91872, Note_off_c, 9, 37, 64
3, 92160, Note_on_c, 9, 37, 98
3, 92256, Note_off_c, 9, 37, 64
3, 92544, Note_on_c, 9, 37, 58
3, 92640, Note_off_c, 9, 37, 64
3, 92928, Note_on_c, 9, 37, 58
3, 93024, Note_off_c, 9, 37, 64
3, 93312, Note_on_c, 9, 37, 58
3, 93408, Note_off_c, 9, 37, 64
3, 93696, Note_on_c, 9, 37, 98
3, 93792, Note_off_c, 9, 37, 64
3, 94080, Note_on_c, 9, 37, 58
3, 94176, Note_off_c, 9, 37, 64
3, 94464, Note_on_c, 9, 37, 58
3, 94560, Note_off_c, 9, 37, 64
3, 94848, Note_on_c, 9, 37, 58
3, 94944, Note_off_c, 9, 37, 64
3, 95232, Note_on_c, 9, 37, 98
3, 95328, Note_off_c, 9, 37, 64
3, 95616, Note_on_c, 9, 37, 58
3, 95712, Note_off_c, 9, 37, 64
3, 96000, Note_on_c, 9, 37, 58
3, 96096, Note_off_c, 9, 37, 64
3, 96384, Note_on_c, 9, 37, 58
3, 96480, Note_off_c, 9, 37, 64
3, 96768, Note_on_c, 9, 37, 98
3, 96864, Note_off_c, 9, 37, 64
3, 97152, Note_on_c, 9, 37, 58
3, 97248, Note_off_c, 9, 37, 64
3, 97536, Note_on_c, 9, 37, 58
3, 97632, Note_off_c, 9, 37, 64
3, 97920, Note_on_c, 9, 37, 58
3, 98016, Note_off_c, 9, 37, 64
3, 98304, Note_on_c, 9, 37, 98
3, 98400, Note_off_c, 9, 37, 64
3, 98688, Note_on_c, 9, 37, 58
3, 98784, Note_off_c, 9, 37, 64
3, 99072, Note_on_c, 9, 37, 58
3, 99168, Note_off_c, 9, 37, 64
3, 99456, Note_on_c, 9, 37, 58
3, 99552, Note_off_c, 9, 37, 64
3, 99840, Note_on_c, 9, 37, 98
3, 99936, Note_off_c, 9, 37, 64
3, 100224, Note_on_c, 9, 37, 58
3, 100320, Note_off_c, 9, 37, 64
3, 100608, Note_on_c, 9, 37, 58
3, 100704, Note_off_c, 9, 37, 64
3, 100992, Note_on_c, 9, 37, 58
3, 101088, Note_off_c, 9, 37, 64
3, 101376, Note_on_c, 9, 37, 98
3, 101472, Note_off_c, 9, 37, 64
3, 101760, Note_on_c, 9, 37, 58
3, 101856, Note_off_c, 9, 37, 64
3, 102144, Note_on_c, 9, 37, 58
3, 102240, Note_off_c, 9, 37, 64
3, 102528, Note_on_c, 9, 37, 58
3, 102624, Note_off_c, 9, 37, 64
3, 102912, Note_on_c, 9, 37, 98
3, 103008, Note_off_c, 9, 37, 64
3, 103296, Note_on_c, 9, 37, 58
3, 103392, Note_off_c, 9, 37, 64
3, 103680, Note_on_c, 9, 37, 58
3, 103776, Note_off_c, 9, 37, 64
3, 104064, Note_on_c, 9, 37, 58
3, 104160, Note_off_c, 9, 37, 64
3, 104448, Note_on_c, 9, 37, 98
3, 104544, Note_off_c, 9, 37, 64
3, 104832, Note_on_c, 9, 37, 58
3, 104928, Note_off_c, 9, 37, 64
3, 105216, Note_on_c, 9, 37, 58
3, 105312, Note_off_c, 9, 37, 64
3, 105600, Note_on_c, 9, 37, 58
3, 105696, Note_off_c, 9, 37, 64
3, 105984, Note_on_c, 9, 37, 98
3, 106080, Note_off_c, 9, 37, 64
3, 106368, Note_on_c, 9, 37, 58
3, 106464, Note_off_c, 9, 37, 64
3, 106752, Note_on_c, 9, 37, 58
3, 106848, Note_off_c, 9, 37, 64
3, 107136, Note_on_c, 9, 37, 58
3, 107232, Note_off_c, 9, 37, 64
3, 107520, Note_on_c, 9, 37, 98
3, 107616, Note_off_c, 9, 37, 64
3, 107904, Note_on_c, 9, 37, 58
3, 108000, Note_off_c, 9, 37, 64
3, 108288, Note_on_c, 9, 37, 58
3, 108384, Note_off_c, 9, 37, 64
3, 108672, Note_on_c, 9, 37, 58
3, 108768, Note_off_c, 9, 37, 64
3, 109056, Note_on_c, 9, 37, 98
3, 109152, Note_off_c, 9, 37, 64
3, 109440, Note_on_c, 9, 37, 58
3, 109536, Note_off_c, 9, 37, 64
3, 109824, Note_on_c, 9, 37, 58
3, 109920, Note_off_c, 9, 37, 64
3, 110208, Note_on_c, 9, 37, 58
3, 110304, Note_off_c, 9, 37, 64
3, 110592, Note_on_c, 9, 37, 98
3, 110688, Note_off_c, 9, 37, 64
3, 110976, Note_on_c, 9, 37, 58
3, 111072, Note_off_c, 9, 37, 64
3, 111360, Note_on_c, 9, 37, 58
3, 111456, Note_off_c, 9, 37, 64
3, 111744, Note_on_c, 9, 37, 58
3, 111840, Note_off_c, 9, 37, 64
3, 112128, Note_on_c, 9, 37, 98
3, 112224, Note_off_c, 9, 37, 64
3, 112512, Note_on_c, 9, 37, 58
3, 112608, Note_off_c, 9, 37, 64
3, 112896, Note_on_c, 9, 37, 58
3, 112992, Note_off_c, 9, 37, 64
3, 113280, Note_on_c, 9, 37, 58
3, 113376, Note_off_c, 9, 37, 64
3, 113664, Note_on_c, 9, 37, 98
3, 113760, Note_off_c, 9, 37, 64
3, 114048, Note_on_c, 9, 37, 58
3, 114144, Note_off_c, 9, 37, 64
3, 114432, Note_on_c, 9, 37, 58
3, 114528, Note_off_c, 9, 37, 64
3, 114816, Note_on_c, 9, 37, 58
3, 114912, Note_off_c, 9, 37, 64
3, 115200, Note_on_c, 9, 37, 98
3, 115296, Note_off_c, 9, 37, 64
3, 115584, Note_on_c, 9, 37, 58
3, 115680, Note_off_c, 9, 37, 64
3, 115968, Note_on_c, 9, 37, 58
3, 116064, Note_off_c, 9, 37, 64
3, 116352, Note_on_c, 9, 37, 58
3, 116448, Note_off_c, 9, 37, 64
3, 116736, Note_on_c, 9, 37, 98
3, 116832, Note_off_c, 9, 37, 64
3, 117120, Note_on_c, 9, 37, 58
3, 117216, Note_off_c, 9, 37, 64
3, 117504, Note_on_c, 9, 37, 58
3, 117600, Note_off_c, 9, 37, 64
3, 117888, Note_on_c, 9, 37, 58
3, 117984, Note_off_c, 9, 37, 64
3, 118272, Note_on_c, 9, 37, 98
3, 118368, Note_off_c, 9, 37, 64
3, 118656, Note_on_c, 9, 37, 58
3, 118752, Note_off_c, 9, 37, 64
3, 119040, Note_on_c, 9, 37, 58
3, 119136, Note_off_c, 9, 37, 64
3, 119424, Note_on_c, 9, 37, 58
3, 119520, Note_off_c, 9, 37, 64
3, 119808, Note_on_c, 9, 37, 98
3, 119904, Note_off_c, 9, 37, 64
3, 120192, Note_on_c, 9, 37, 58
3, 120288, Note_off_c, 9, 37, 64
3, 120576, Note_on_c, 9, 37, 58
3, 120672, Note_off_c, 9, 37, 64
3, 120960, Note_on_c, 9, 37, 58
3, 121056, Note_off_c, 9, 37, 64
3, 121344, Note_on_c, 9, 37, 98
3, 121440, Note_off_c, 9, 37, 64
3, 121728, Note_on_c, 9, 37, 58
3, 121824, Note_off_c, 9, 37, 64
3, 122112, Note_on_c, 9, 37, 58
3, 122208, Note_off_c, 9, 37, 64
3, 122496, Note_on_c, 9, 37, 58
3, 122592, Note_off_c, 9, 37, 64
3, 122880, Note_on_c, 9, 37, 98
3, 122976, Note_off_c, 9, 37, 64
3, 123264, Note_on_c, 9, 37, 58
3, 123360, Note_off_c, 9, 37, 64
3, 123648, Note_on_c, 9, 37, 58
3, 123744, Note_off_c, 9, 37, 64
3, 124032, Note_on_c, 9, 37, 58
3, 124128, Note_off_c, 9, 37, 64
3, 124416, Note_on_c, 9, 37, 98
3, 124512, Note_off_c, 9, 37, 64
3, 124800, Note_on_c, 9, 37, 58
3, 124896, Note_off_c, 9, 37, 64
3, 125184, Note_on_c, 9, 37, 58
3, 125280, Note_off_c, 9, 37, 64
3, 125568, Note_on_c, 9, 37, 58
3, 125664, Note_off_c, 9, 37, 64
3, 125952, Note_on_c, 9, 37, 98
3, 126048, Note_off_c, 9, 37, 64
3, 126336, Note_on_c, 9, 37, 58
3, 126432, Note_off_c, 9, 37, 64
3, 126720, Note_on_c, 9, 37, 58
3, 126816, Note_off_c, 9, 37, 64
3, 127104, Note_on_c, 9, 37, 58
3, 127200, Note_off_c, 9, 37, 64
3, 127488, Note_on_c, 9, 37, 98
3, 127584, Note_off_c, 9, 37, 64
3, 127872, Note_on_c, 9, 37, 58
3, 127968, Note_off_c, 9, 37, 64
3, 128256, Note_on_c, 9, 37, 58
3, 128352, Note_off_c, 9, 37, 64
3, 128640, Note_on_c, 9, 37, 58
3, 128736, Note_off_c, 9, 37, 64
3, 129024, Note_on_c, 9, 37, 98
3, 129120, Note_off_c, 9, 37, 64
3, 129408, Note_on_c, 9, 37, 58
3, 129504, Note_off_c, 9, 37, 64
3, 129792, Note_on_c, 9, 37, 58
3, 129888, Note_off_c, 9, 37, 64
3, 130176, Note_on_c, 9, 37, 58
3, 130272, Note_off_c, 9, 37, 64
3, 130560, Note_on_c, 9, 37, 98
3, 130656, Note_off_c, 9, 37, 64
3, 130944, Note_on_c, 9, 37, 58
3, 131040, Note_off_c, 9, 37, 64
3, 131328, Note_on_c, 9, 37, 58
3, 131424, Note_off_c, 9, 37, 64
3, 131712, Note_on_c, 9, 37, 58
3, 131808, Note_off_c, 9, 37, 64
3, 132096, Note_on_c, 9, 37, 98
3, 132192, Note_off_c, 9, 37, 64
3, 132480, Note_on_c, 9, 37, 58
3, 132576, Note_off_c, 9, 37, 64
3, 132864, Note_on_c, 9, 37, 58
3, 132960, Note_off_c, 9, 37, 64
3, 133248, Note_on_c, 9, 37, 58
3, 133344, Note_off_c, 9, 37, 64
3, 133632, Note_on_c, 9, 37, 98
3, 133728, Note_off_c, 9, 37, 64
3, 134016, Note_on_c, 9, 37, 58
3, 134112, Note_off_c, 9, 37, 64
3, 134400, Note_on_c, 9, 37, 58
3, 134496, Note_off_c, 9, 37, 64
3, 134784, Note_on_c, 9, 37, 58
3, 134880, Note_off_c, 9, 37, 64
3, 135168, Note_on_c, 9, 37, 98
3, 135264, Note_off_c, 9, 37, 64
3, 135552, Note_on_c, 9, 37, 58
3, 135648, Note_off_c, 9, 37, 64
3, 135936, Note_on_c, 9, 37, 58
3, 136032, Note_off_c, 9, 37, 64
3, 136320, Note_on_c, 9, 37, 58
3, 136416, Note_off_c, 9, 37, 64
3, 136704, Note_on_c, 9, 37, 98
3, 136800, Note_off_c, 9, 37, 64
3, 137088, Note_on_c, 9, 37, 58
3, 137184, Note_off_c, 9, 37, 64
3, 137472, Note_on_c, 9, 37, 58
3, 137568, Note_off_c, 9, 37, 64
3, 137856, Note_on_c, 9, 37, 58
3, 137952, Note_off_c, 9, 37, 64
3, 138240, Note_on_c, 9, 37, 98
3, 138336, Note_off_c, 9, 37, 64
3, 138624, Note_on_c, 9, 37, 58
3, 138720, Note_off_c, 9, 37, 64
3, 139008, Note_on_c, 9, 37, 58
3, 139104, Note_off_c, 9, 37, 64
3, 139392, Note_on_c, 9, 37, 58
3, 139488, Note_off_c, 9, 37, 64
3, 139776, Note_on_c, 9, 37, 98
3, 139872, Note_off_c, 9, 37, 64
3, 140160, Note_on_c, 9, 37, 60
3, 140256, Note_off_c, 9, 37, 64
3, 140544, Note_on_c, 9, 37, 58
3, 140640, Note_off_c, 9, 37, 64
3, 141120, Note_on_c, 9, 37, 58
3, 141216, Note_off_c, 9, 37, 64
3, 141792, Note_on_c, 9, 37, 57
3, 141888, Note_off_c, 9, 37, 64
3, 145920, End_track
0, 0, End_of_file
