0, 0, Header, 1, 5, 960
1, 0, Start_track
1, 0, Control_c, 0, 101, 0
1, 0, Control_c, 0, 100, 0
1, 0, Control_c, 0, 6, 12
1, 0, Control_c, 0, 38, 0
1, 0, Control_c, 1, 101, 0
1, 0, Control_c, 1, 100, 0
1, 0, Control_c, 1, 6, 12
1, 0, Control_c, 1, 38, 0
1, 0, Control_c, 2, 101, 0
1, 0, Control_c, 2, 100, 0
1, 0, Control_c, 2, 6, 12
1, 0, Control_c, 2, 38, 0
1, 0, Control_c, 3, 101, 0
1, 0, Control_c, 3, 100, 0
1, 0, Control_c, 3, 6, 12
1, 0, Control_c, 3, 38, 0
1, 0, Control_c, 4, 101, 0
1, 0, Control_c, 4, 100, 0
1, 0, Control_c, 4, 6, 12
1, 0, Control_c, 4, 38, 0
1, 0, Control_c, 5, 101, 0
1, 0, Control_c, 5, 100, 0
1, 0, Control_c, 5, 6, 12
1, 0, Control_c, 5, 38, 0
1, 0, Control_c, 6, 101, 0
1, 0, Control_c, 6, 100, 0
1, 0, Control_c, 6, 6, 12
1, 0, Control_c, 6, 38, 0
1, 0, Control_c, 7, 101, 0
1, 0, Control_c, 7, 100, 0
1, 0, Control_c, 7, 6, 12
1, 0, Control_c, 7, 38, 0
1, 0, Control_c, 8, 101, 0
1, 0, Control_c, 8, 100, 0
1, 0, Control_c, 8, 6, 12
1, 0, Control_c, 8, 38, 0
1, 0, Control_c, 9, 101, 0
1, 0, Control_c, 9, 100, 0
1, 0, Control_c, 9, 6, 12
1, 0, Control_c, 9, 38, 0
1, 0, Control_c, 10, 101, 0
1, 0, Control_c, 10, 100, 0
1, 0, Control_c, 10, 6, 12
1, 0, Control_c, 10, 38, 0
1, 0, Control_c, 11, 101, 0
1, 0, Control_c, 11, 100, 0
1, 0, Control_c, 11, 6, 12
1, 0, Control_c, 11, 38, 0
1, 0, Control_c, 12, 101, 0
1, 0, Control_c, 12, 100, 0
1, 0, Control_c, 12, 6, 12
1, 0, Control_c, 12, 38, 0
1, 0, Control_c, 13, 101, 0
1, 0, Control_c, 13, 100, 0
1, 0, Control_c, 13, 6, 12
1, 0, Control_c, 13, 38, 0
1, 0, Control_c, 14, 101, 0
1, 0, Control_c, 14, 100, 0
1, 0, Control_c, 14, 6, 12
1, 0, Control_c, 14, 38, 0
1, 0, Control_c, 15, 101, 0
1, 0, Control_c, 15, 100, 0
1, 0, Control_c, 15, 6, 12
1, 0, Control_c, 15, 38, 0
1, 0, Time_signature, 4, 2, 24, 8
1, 0, Tempo, 800000
1, 0, End_track
2, 0, Start_track
2, 0, Pitch_bend_c, 0, 8192
2, 0, Control_c, 0, 7, 111
2, 0, Control_c, 0, 10, 63
2, 0, Control_c, 0, 93, 0
2, 0, Control_c, 0, 91, 0
2, 0, Control_c, 0, 95, 0
2, 0, Control_c, 0, 92, 0
2, 0, Control_c, 0, 11, 127
2, 0, Program_c, 0, 29
2, 0, Control_c, 1, 7, 111
2, 0, Control_c, 1, 10, 63
2, 0, Control_c, 1, 93, 0
2, 0, Control_c, 1, 91, 0
2, 0, Control_c, 1, 95, 0
2, 0, Control_c, 1, 92, 0
2, 0, Control_c, 1, 11, 127
2, 0, Program_c, 1, 29
2, 0, Note_on_c, 0, 47, 95
2, 0, Note_on_c, 0, 40, 95
2, 960, Note_off_c, 0, 47, 95
2, 960, Note_off_c, 0, 40, 95
2, 960, Note_on_c, 0, 64, 95
2, 960, Note_on_c, 0, 59, 95
2, 960, Note_on_c, 0, 52, 95
2, 1200, Note_off_c, 0, 64, 95
2, 1200, Note_off_c, 0, 59, 95
2, 1200, Note_off_c, 0, 52, 95
2, 1200, Note_on_c, 0, 57, 95
2, 1275, Note_off_c, 0, 57, 95
2, 1440, Note_on_c, 0, 64, 95
2, 1440, Note_on_c, 0, 59, 95
2, 1440, Note_on_c, 0, 52, 95
2, 1920, Note_off_c, 0, 64, 95
2, 1920, Note_off_c, 0, 59, 95
2, 1920, Note_off_c, 0, 52, 95
2, 3840, Note_on_c, 0, 40, 95
2, 4800, Note_off_c, 0, 40, 95
2, 4800, Note_on_c, 0, 64, 95
2, 4800, Note_on_c, 0, 59, 95
2, 4800, Note_on_c, 0, 52, 95
2, 5040, Note_off_c, 0, 64, 95
2, 5040, Note_off_c, 0, 59, 95
2, 5040, Note_off_c, 0, 52, 95
2, 5040, Note_on_c, 0, 57, 95
2, 5115, Note_off_c, 0, 57, 95
2, 5280, Note_on_c, 0, 64, 95
2, 5280, Note_on_c, 0, 59, 95
2, 5280, Note_on_c, 0, 52, 95
2, 5760, Note_off_c, 0, 64, 95
2, 5760, Note_off_c, 0, 59, 95
2, 5760, Note_off_c, 0, 52, 95
2, 6240, Note_on_c, 0, 50, 95
2, 6240, Note_on_c, 0, 45, 95
2, 6240, Note_on_c, 0, 40, 95
2, 6277, Note_off_c, 0, 50, 95
2, 6277, Note_off_c, 0, 45, 95
2, 6277, Note_off_c, 0, 40, 95
2, 6720, Note_on_c, 0, 55, 95
2, 6720, Note_on_c, 0, 50, 95
2, 6720, Note_on_c, 0, 43, 95
2, 7680, Note_off_c, 0, 55, 95
2, 7680, Note_off_c, 0, 50, 95
2, 7680, Note_off_c, 0, 43, 95
2, 7680, Note_on_c, 0, 47, 95
2, 7680, Note_on_c, 0, 40, 95
2, 8640, Note_off_c, 0, 47, 95
2, 8640, Note_off_c, 0, 40, 95
2, 8640, Note_on_c, 0, 64, 95
2, 8640, Note_on_c, 0, 59, 95
2, 8640, Note_on_c, 0, 52, 95
2, 8880, Note_off_c, 0, 64, 95
2, 8880, Note_off_c, 0, 59, 95
2, 8880, Note_off_c, 0, 52, 95
2, 8880, Note_on_c, 0, 57, 95
2, 8955, Note_off_c, 0, 57, 95
2, 9120, Note_on_c, 0, 64, 95
2, 9120, Note_on_c, 0, 59, 95
2, 9120, Note_on_c, 0, 52, 95
2, 9600, Note_off_c, 0, 64, 95
2, 9600, Note_off_c, 0, 59, 95
2, 9600, Note_off_c, 0, 52, 95
2, 10080, Note_on_c, 0, 50, 95
2, 10080, Note_on_c, 0, 45, 95
2, 10080, Note_on_c, 0, 40, 95
2, 10117, Note_off_c, 0, 50, 95
2, 10117, Note_off_c, 0, 45, 95
2, 10117, Note_off_c, 0, 40, 95
2, 10320, Note_on_c, 0, 50, 95
2, 10320, Note_on_c, 0, 45, 95
2, 10320, Note_on_c, 0, 40, 95
2, 10357, Note_off_c, 0, 50, 95
2, 10357, Note_off_c, 0, 45, 95
2, 10357, Note_off_c, 0, 40, 95
2, 10560, Note_on_c, 0, 55, 95
2, 10560, Note_on_c, 0, 50, 95
2, 10560, Note_on_c, 0, 43, 95
2, 11520, Note_off_c, 0, 55, 95
2, 11520, Note_off_c, 0, 50, 95
2, 11520, Note_off_c, 0, 43, 95
2, 11520, Note_on_c, 0, 40, 95
2, 12480, Note_off_c, 0, 40, 95
2, 12480, Note_on_c, 0, 64, 95
2, 12480, Note_on_c, 0, 59, 95
2, 12480, Note_on_c, 0, 52, 95
2, 12720, Note_off_c, 0, 64, 95
2, 12720, Note_off_c, 0, 59, 95
2, 12720, Note_off_c, 0, 52, 95
2, 12720, Note_on_c, 0, 57, 95
2, 12795, Note_off_c, 0, 57, 95
2, 12960, Note_on_c, 0, 64, 95
2, 12960, Note_on_c, 0, 59, 95
2, 12960, Note_on_c, 0, 52, 95
2, 13440, Note_off_c, 0, 64, 95
2, 13440, Note_off_c, 0, 59, 95
2, 13440, Note_off_c, 0, 52, 95
2, 13920, Note_on_c, 0, 50, 95
2, 13920, Note_on_c, 0, 45, 95
2, 13920, Note_on_c, 0, 40, 95
2, 13957, Note_off_c, 0, 50, 95
2, 13957, Note_off_c, 0, 45, 95
2, 13957, Note_off_c, 0, 40, 95
2, 14160, Note_on_c, 0, 55, 95
2, 14160, Note_on_c, 0, 50, 95
2, 14160, Note_on_c, 0, 43, 95
2, 14197, Note_off_c, 0, 55, 95
2, 14197, Note_off_c, 0, 50, 95
2, 14197, Note_off_c, 0, 43, 95
2, 15360, Note_on_c, 0, 40, 95
2, 16320, Note_off_c, 0, 40, 95
2, 16320, Note_on_c, 0, 64, 95
2, 16320, Note_on_c, 0, 59, 95
2, 16320, Note_on_c, 0, 52, 95
2, 16560, Note_off_c, 0, 64, 95
2, 16560, Note_off_c, 0, 59, 95
2, 16560, Note_off_c, 0, 52, 95
2, 16560, Note_on_c, 0, 57, 95
2, 16635, Note_off_c, 0, 57, 95
2, 16800, Note_on_c, 0, 64, 95
2, 16800, Note_on_c, 0, 59, 95
2, 16800, Note_on_c, 0, 52, 95
2, 17280, Note_off_c, 0, 64, 95
2, 17280, Note_off_c, 0, 59, 95
2, 17280, Note_off_c, 0, 52, 95
2, 17760, Note_on_c, 0, 50, 95
2, 17760, Note_on_c, 0, 45, 95
2, 17760, Note_on_c, 0, 40, 95
2, 17797, Note_off_c, 0, 50, 95
2, 17797, Note_off_c, 0, 45, 95
2, 17797, Note_off_c, 0, 40, 95
2, 18240, Note_on_c, 0, 55, 95
2, 18240, Note_on_c, 0, 50, 95
2, 18240, Note_on_c, 0, 50, 95
2, 18240, Pitch_bend_c, 1, 8192
2, 18240, Note_on_c, 1, 43, 95
2, 18277, Note_off_c, 0, 50, 95
2, 18336, Pitch_bend_c, 1, 8320
2, 18432, Pitch_bend_c, 1, 8448
2, 18528, Pitch_bend_c, 1, 8576
2, 18624, Pitch_bend_c, 1, 8704
2, 18720, Pitch_bend_c, 1, 8832
2, 18720, Pitch_bend_c, 1, 8832
2, 19200, Note_off_c, 0, 55, 95
2, 19200, Note_off_c, 0, 50, 95
2, 19200, Pitch_bend_c, 1, 8832
2, 19200, Pitch_bend_c, 1, 8192
2, 19200, Note_off_c, 1, 43, 95
2, 19200, Note_on_c, 0, 47, 95
2, 19200, Note_on_c, 0, 40, 95
2, 20160, Note_off_c, 0, 47, 95
2, 20160, Note_off_c, 0, 40, 95
2, 20160, Note_on_c, 0, 64, 95
2, 20160, Note_on_c, 0, 59, 95
2, 20160, Note_on_c, 0, 52, 95
2, 20400, Note_off_c, 0, 64, 95
2, 20400, Note_off_c, 0, 59, 95
2, 20400, Note_off_c, 0, 52, 95
2, 20400, Note_on_c, 0, 57, 95
2, 20475, Note_off_c, 0, 57, 95
2, 20640, Note_on_c, 0, 64, 95
2, 20640, Note_on_c, 0, 59, 95
2, 20640, Note_on_c, 0, 52, 95
2, 21120, Note_off_c, 0, 64, 95
2, 21120, Note_off_c, 0, 59, 95
2, 21120, Note_off_c, 0, 52, 95
2, 23040, Note_on_c, 0, 47, 95
2, 23040, Note_on_c, 0, 40, 95
2, 24000, Note_off_c, 0, 47, 95
2, 24000, Note_off_c, 0, 40, 95
2, 24000, Note_on_c, 0, 64, 95
2, 24000, Note_on_c, 0, 59, 95
2, 24000, Note_on_c, 0, 52, 95
2, 24240, Note_off_c, 0, 64, 95
2, 24240, Note_off_c, 0, 59, 95
2, 24240, Note_off_c, 0, 52, 95
2, 24240, Note_on_c, 0, 57, 95
2, 24315, Note_off_c, 0, 57, 95
2, 24480, Note_on_c, 0, 64, 95
2, 24480, Note_on_c, 0, 59, 95
2, 24480, Note_on_c, 0, 52, 95
2, 24960, Note_off_c, 0, 64, 95
2, 24960, Note_off_c, 0, 59, 95
2, 24960, Note_off_c, 0, 52, 95
2, 25200, Pitch_bend_c, 1, 8192
2, 25200, Note_on_c, 1, 57, 95
2, 25221, Pitch_bend_c, 1, 8320
2, 25242, Pitch_bend_c, 1, 8448
2, 25263, Pitch_bend_c, 1, 8576
2, 25284, Pitch_bend_c, 1, 8704
2, 25305, Pitch_bend_c, 1, 8832
2, 25326, Pitch_bend_c, 1, 8960
2, 25347, Pitch_bend_c, 1, 9088
2, 25368, Pitch_bend_c, 1, 9216
2, 25389, Pitch_bend_c, 1, 9344
2, 25410, Pitch_bend_c, 1, 9472
2, 25431, Pitch_bend_c, 1, 9600
2, 25440, Pitch_bend_c, 1, 9600
2, 25680, Pitch_bend_c, 1, 9600
2, 25680, Pitch_bend_c, 1, 8192
2, 25680, Note_off_c, 1, 57, 95
2, 25680, Note_on_c, 1, 59, 95
2, 25800, Pitch_bend_c, 1, 7552
2, 25920, Pitch_bend_c, 1, 6784
2, 25920, Pitch_bend_c, 1, 8192
2, 25920, Note_off_c, 1, 59, 95
2, 25920, Note_on_c, 0, 57, 95
2, 26160, Note_off_c, 0, 57, 95
2, 26160, Note_on_c, 0, 55, 70
2, 26400, Note_off_c, 0, 55, 70
2, 26400, Note_on_c, 0, 52, 95
2, 26640, Note_off_c, 0, 52, 95
2, 26640, Note_on_c, 0, 50, 95
2, 26880, Note_off_c, 0, 50, 95
2, 26880, Note_on_c, 0, 47, 95
2, 26880, Note_on_c, 0, 40, 95
2, 27840, Note_off_c, 0, 47, 95
2, 27840, Note_off_c, 0, 40, 95
2, 27840, Note_on_c, 0, 64, 95
2, 27840, Note_on_c, 0, 59, 95
2, 27840, Note_on_c, 0, 52, 95
2, 28080, Note_off_c, 0, 64, 95
2, 28080, Note_off_c, 0, 59, 95
2, 28080, Note_off_c, 0, 52, 95
2, 28080, Note_on_c, 0, 57, 95
2, 28155, Note_off_c, 0, 57, 95
2, 28320, Note_on_c, 0, 64, 95
2, 28320, Note_on_c, 0, 59, 95
2, 28320, Note_on_c, 0, 52, 95
2, 28800, Note_off_c, 0, 64, 95
2, 28800, Note_off_c, 0, 59, 95
2, 28800, Note_off_c, 0, 52, 95
2, 29760, Pitch_bend_c, 1, 8192
2, 29760, Note_on_c, 1, 62, 95
2, 29770, Pitch_bend_c, 1, 8320
2, 29780, Pitch_bend_c, 1, 8448
2, 29790, Pitch_bend_c, 1, 8576
2, 29800, Pitch_bend_c, 1, 8704
2, 29810, Pitch_bend_c, 1, 8832
2, 29820, Pitch_bend_c, 1, 8960
2, 29830, Pitch_bend_c, 1, 9088
2, 29840, Pitch_bend_c, 1, 9216
2, 29850, Pitch_bend_c, 1, 9344
2, 29860, Pitch_bend_c, 1, 9472
2, 29870, Pitch_bend_c, 1, 9600
2, 29880, Pitch_bend_c, 1, 9600
2, 30000, Pitch_bend_c, 1, 9600
2, 30010, Pitch_bend_c, 1, 9472
2, 30020, Pitch_bend_c, 1, 9344
2, 30030, Pitch_bend_c, 1, 9216
2, 30040, Pitch_bend_c, 1, 9088
2, 30050, Pitch_bend_c, 1, 8960
2, 30060, Pitch_bend_c, 1, 8832
2, 30070, Pitch_bend_c, 1, 8704
2, 30080, Pitch_bend_c, 1, 8576
2, 30090, Pitch_bend_c, 1, 8448
2, 30100, Pitch_bend_c, 1, 8320
2, 30110, Pitch_bend_c, 1, 8192
2, 30120, Pitch_bend_c, 1, 8192
2, 30240, Pitch_bend_c, 1, 8192
2, 30240, Pitch_bend_c, 1, 8192
2, 30240, Note_off_c, 1, 62, 95
2, 30240, Note_on_c, 0, 59, 95
2, 30720, Note_off_c, 0, 59, 95
2, 30720, Note_on_c, 0, 40, 95
2, 31680, Note_off_c, 0, 40, 95
2, 31680, Note_on_c, 0, 64, 95
2, 31680, Note_on_c, 0, 59, 95
2, 31680, Note_on_c, 0, 52, 95
2, 31920, Note_off_c, 0, 64, 95
2, 31920, Note_off_c, 0, 59, 95
2, 31920, Note_off_c, 0, 52, 95
2, 31920, Note_on_c, 0, 57, 95
2, 31995, Note_off_c, 0, 57, 95
2, 32160, Note_on_c, 0, 64, 95
2, 32160, Note_on_c, 0, 59, 95
2, 32160, Note_on_c, 0, 52, 95
2, 32640, Note_off_c, 0, 64, 95
2, 32640, Note_off_c, 0, 59, 95
2, 32640, Note_off_c, 0, 52, 95
2, 33120, Note_on_c, 0, 50, 95
2, 33120, Note_on_c, 0, 45, 95
2, 33120, Note_on_c, 0, 40, 95
2, 33157, Note_off_c, 0, 50, 95
2, 33157, Note_off_c, 0, 45, 95
2, 33157, Note_off_c, 0, 40, 95
2, 33360, Note_on_c, 0, 55, 95
2, 33360, Note_on_c, 0, 50, 95
2, 33360, Note_on_c, 0, 43, 95
2, 33397, Note_off_c, 0, 55, 95
2, 33397, Note_off_c, 0, 50, 95
2, 33397, Note_off_c, 0, 43, 95
2, 34560, Note_on_c, 0, 47, 95
2, 34560, Note_on_c, 0, 40, 95
2, 35520, Note_off_c, 0, 47, 95
2, 35520, Note_off_c, 0, 40, 95
2, 35520, Note_on_c, 0, 64, 95
2, 35520, Note_on_c, 0, 59, 95
2, 35520, Note_on_c, 0, 52, 95
2, 35760, Note_off_c, 0, 64, 95
2, 35760, Note_off_c, 0, 59, 95
2, 35760, Note_off_c, 0, 52, 95
2, 35760, Note_on_c, 0, 57, 95
2, 35835, Note_off_c, 0, 57, 95
2, 36000, Note_on_c, 0, 64, 95
2, 36000, Note_on_c, 0, 59, 95
2, 36000, Note_on_c, 0, 52, 95
2, 36480, Note_off_c, 0, 64, 95
2, 36480, Note_off_c, 0, 59, 95
2, 36480, Note_off_c, 0, 52, 95
2, 36960, Note_on_c, 0, 50, 95
2, 36960, Note_on_c, 0, 45, 95
2, 36960, Note_on_c, 0, 40, 95
2, 36997, Note_off_c, 0, 50, 95
2, 36997, Note_off_c, 0, 45, 95
2, 36997, Note_off_c, 0, 40, 95
2, 37200, Note_on_c, 0, 50, 95
2, 37200, Note_on_c, 0, 45, 95
2, 37200, Note_on_c, 0, 40, 95
2, 37237, Note_off_c, 0, 50, 95
2, 37237, Note_off_c, 0, 45, 95
2, 37237, Note_off_c, 0, 40, 95
2, 37440, Note_on_c, 0, 55, 95
2, 37680, Note_off_c, 0, 55, 95
2, 37680, Note_on_c, 0, 56, 70
2, 38400, Note_off_c, 0, 56, 70
2, 38400, Note_on_c, 0, 47, 95
2, 38400, Note_on_c, 0, 40, 95
2, 39360, Note_off_c, 0, 47, 95
2, 39360, Note_off_c, 0, 40, 95
2, 39360, Note_on_c, 0, 64, 95
2, 39360, Note_on_c, 0, 59, 95
2, 39360, Note_on_c, 0, 52, 95
2, 39600, Note_off_c, 0, 64, 95
2, 39600, Note_off_c, 0, 59, 95
2, 39600, Note_off_c, 0, 52, 95
2, 39600, Note_on_c, 0, 57, 95
2, 39675, Note_off_c, 0, 57, 95
2, 39840, Note_on_c, 0, 64, 95
2, 39840, Note_on_c, 0, 59, 95
2, 39840, Note_on_c, 0, 52, 95
2, 40320, Note_off_c, 0, 64, 95
2, 40320, Note_off_c, 0, 59, 95
2, 40320, Note_off_c, 0, 52, 95
2, 42240, Note_on_c, 0, 47, 95
2, 42240, Note_on_c, 0, 40, 95
2, 43200, Note_off_c, 0, 47, 95
2, 43200, Note_off_c, 0, 40, 95
2, 43200, Note_on_c, 0, 64, 95
2, 43200, Note_on_c, 0, 59, 95
2, 43200, Note_on_c, 0, 52, 95
2, 43440, Note_off_c, 0, 64, 95
2, 43440, Note_off_c, 0, 59, 95
2, 43440, Note_off_c, 0, 52, 95
2, 43440, Note_on_c, 0, 57, 95
2, 43515, Note_off_c, 0, 57, 95
2, 43680, Note_on_c, 0, 64, 95
2, 43680, Note_on_c, 0, 59, 95
2, 43680, Note_on_c, 0, 52, 95
2, 44160, Note_off_c, 0, 64, 95
2, 44160, Note_off_c, 0, 59, 95
2, 44160, Note_off_c, 0, 52, 95
2, 44400, Pitch_bend_c, 1, 8192
2, 44400, Note_on_c, 1, 57, 95
2, 44421, Pitch_bend_c, 1, 8320
2, 44442, Pitch_bend_c, 1, 8448
2, 44463, Pitch_bend_c, 1, 8576
2, 44484, Pitch_bend_c, 1, 8704
2, 44505, Pitch_bend_c, 1, 8832
2, 44526, Pitch_bend_c, 1, 8960
2, 44547, Pitch_bend_c, 1, 9088
2, 44568, Pitch_bend_c, 1, 9216
2, 44589, Pitch_bend_c, 1, 9344
2, 44610, Pitch_bend_c, 1, 9472
2, 44631, Pitch_bend_c, 1, 9600
2, 44640, Pitch_bend_c, 1, 9600
2, 44880, Pitch_bend_c, 1, 9600
2, 44880, Pitch_bend_c, 1, 8192
2, 44880, Note_off_c, 1, 57, 95
2, 44880, Note_on_c, 1, 59, 95
2, 45000, Pitch_bend_c, 1, 7552
2, 45120, Pitch_bend_c, 1, 6784
2, 45120, Pitch_bend_c, 1, 8192
2, 45120, Note_off_c, 1, 59, 95
2, 45120, Note_on_c, 0, 57, 95
2, 45360, Note_off_c, 0, 57, 95
2, 45360, Note_on_c, 0, 55, 70
2, 45600, Note_off_c, 0, 55, 70
2, 46080, Note_on_c, 0, 47, 95
2, 46080, Note_on_c, 0, 40, 95
2, 47040, Note_off_c, 0, 47, 95
2, 47040, Note_off_c, 0, 40, 95
2, 47040, Note_on_c, 0, 64, 95
2, 47040, Note_on_c, 0, 59, 95
2, 47040, Note_on_c, 0, 52, 95
2, 47280, Note_off_c, 0, 64, 95
2, 47280, Note_off_c, 0, 59, 95
2, 47280, Note_off_c, 0, 52, 95
2, 47280, Note_on_c, 0, 57, 95
2, 47355, Note_off_c, 0, 57, 95
2, 47520, Note_on_c, 0, 64, 95
2, 47520, Note_on_c, 0, 59, 95
2, 47520, Note_on_c, 0, 52, 95
2, 48000, Note_off_c, 0, 64, 95
2, 48000, Note_off_c, 0, 59, 95
2, 48000, Note_off_c, 0, 52, 95
2, 48480, Note_on_c, 0, 50, 95
2, 48480, Note_on_c, 0, 45, 95
2, 48480, Note_on_c, 0, 40, 95
2, 48517, Note_off_c, 0, 50, 95
2, 48517, Note_off_c, 0, 45, 95
2, 48517, Note_off_c, 0, 40, 95
2, 48720, Note_on_c, 0, 50, 95
2, 48720, Note_on_c, 0, 45, 95
2, 48720, Note_on_c, 0, 40, 95
2, 48757, Note_off_c, 0, 50, 95
2, 48757, Note_off_c, 0, 45, 95
2, 48757, Note_off_c, 0, 40, 95
2, 48960, Note_on_c, 0, 64, 95
2, 48960, Note_on_c, 0, 59, 95
2, 48960, Note_on_c, 0, 57, 95
2, 48960, Note_on_c, 0, 50, 95
2, 48997, Note_off_c, 0, 64, 95
2, 48997, Note_off_c, 0, 59, 95
2, 48997, Note_off_c, 0, 50, 95
2, 49200, Note_off_c, 0, 57, 95
2, 49200, Note_on_c, 0, 64, 95
2, 49200, Note_on_c, 0, 59, 95
2, 49200, Note_on_c, 0, 59, 95
2, 49200, Note_on_c, 0, 50, 95
2, 49237, Note_off_c, 0, 64, 95
2, 49237, Note_off_c, 0, 59, 95
2, 49237, Note_off_c, 0, 50, 95
2, 49920, Note_off_c, 0, 59, 95
2, 49920, Note_on_c, 0, 40, 95
2, 50880, Note_off_c, 0, 40, 95
2, 50880, Note_on_c, 0, 64, 95
2, 50880, Note_on_c, 0, 59, 95
2, 50880, Note_on_c, 0, 52, 95
2, 51120, Note_off_c, 0, 64, 95
2, 51120, Note_off_c, 0, 59, 95
2, 51120, Note_off_c, 0, 52, 95
2, 51120, Note_on_c, 0, 57, 95
2, 51195, Note_off_c, 0, 57, 95
2, 51360, Note_on_c, 0, 64, 95
2, 51360, Note_on_c, 0, 59, 95
2, 51360, Note_on_c, 0, 52, 95
2, 51840, Note_off_c, 0, 64, 95
2, 51840, Note_off_c, 0, 59, 95
2, 51840, Note_off_c, 0, 52, 95
2, 52320, Note_on_c, 0, 50, 95
2, 52320, Note_on_c, 0, 45, 95
2, 52320, Note_on_c, 0, 40, 95
2, 52357, Note_off_c, 0, 50, 95
2, 52357, Note_off_c, 0, 45, 95
2, 52357, Note_off_c, 0, 40, 95
2, 52560, Note_on_c, 0, 55, 95
2, 52560, Note_on_c, 0, 50, 95
2, 52560, Note_on_c, 0, 43, 95
2, 52597, Note_off_c, 0, 55, 95
2, 52597, Note_off_c, 0, 50, 95
2, 52597, Note_off_c, 0, 43, 95
2, 53760, Note_on_c, 0, 61, 95
2, 53760, Note_on_c, 0, 57, 95
2, 53760, Note_on_c, 0, 52, 95
2, 53760, Note_on_c, 0, 45, 95
2, 54480, Note_off_c, 0, 61, 95
2, 54480, Note_off_c, 0, 57, 95
2, 54480, Note_off_c, 0, 52, 95
2, 54480, Note_off_c, 0, 45, 95
2, 54480, Note_on_c, 0, 45, 95
2, 54720, Note_off_c, 0, 45, 95
2, 54720, Note_on_c, 0, 61, 95
2, 54720, Note_on_c, 0, 57, 95
2, 54720, Note_on_c, 0, 52, 95
2, 54720, Note_on_c, 0, 45, 95
2, 54960, Note_off_c, 0, 61, 95
2, 54960, Note_off_c, 0, 57, 95
2, 54960, Note_off_c, 0, 52, 95
2, 54960, Note_off_c, 0, 45, 95
2, 54960, Note_on_c, 0, 59, 70
2, 54960, Note_on_c, 0, 55, 70
2, 54960, Note_on_c, 0, 50, 70
2, 54960, Note_on_c, 0, 45, 95
2, 55200, Note_off_c, 0, 59, 70
2, 55200, Note_off_c, 0, 55, 70
2, 55200, Note_off_c, 0, 50, 70
2, 55200, Note_off_c, 0, 45, 95
2, 55200, Note_on_c, 0, 61, 95
2, 55200, Note_on_c, 0, 57, 95
2, 55200, Note_on_c, 0, 52, 95
2, 55200, Note_on_c, 0, 45, 95
2, 55440, Note_off_c, 0, 61, 95
2, 55440, Note_off_c, 0, 57, 95
2, 55440, Note_off_c, 0, 52, 95
2, 55440, Note_off_c, 0, 45, 95
2, 55440, Note_on_c, 0, 59, 95
2, 55440, Note_on_c, 0, 55, 95
2, 55440, Note_on_c, 0, 50, 95
2, 55440, Note_on_c, 0, 45, 95
2, 55680, Note_off_c, 0, 59, 95
2, 55680, Note_off_c, 0, 55, 95
2, 55680, Note_off_c, 0, 50, 95
2, 55680, Note_off_c, 0, 45, 95
2, 55680, Note_on_c, 0, 61, 95
2, 55680, Note_on_c, 0, 57, 95
2, 55680, Note_on_c, 0, 52, 95
2, 55680, Note_on_c, 0, 45, 95
2, 55920, Note_off_c, 0, 61, 95
2, 55920, Note_off_c, 0, 57, 95
2, 55920, Note_off_c, 0, 52, 95
2, 55920, Note_off_c, 0, 45, 95
2, 55920, Note_on_c, 0, 59, 95
2, 55920, Note_on_c, 0, 55, 95
2, 55920, Note_on_c, 0, 50, 95
2, 55920, Note_on_c, 0, 45, 95
2, 56400, Note_off_c, 0, 59, 95
2, 56400, Note_off_c, 0, 55, 95
2, 56400, Note_off_c, 0, 50, 95
2, 56400, Note_off_c, 0, 45, 95
2, 57600, Note_on_c, 0, 57, 95
2, 57600, Note_on_c, 0, 52, 95
2, 57600, Note_on_c, 0, 45, 95
2, 58320, Note_off_c, 0, 57, 95
2, 58320, Note_off_c, 0, 52, 95
2, 58320, Note_off_c, 0, 45, 95
2, 58320, Note_on_c, 0, 45, 95
2, 58560, Note_off_c, 0, 45, 95
2, 58560, Note_on_c, 0, 57, 95
2, 58560, Note_on_c, 0, 52, 95
2, 58560, Note_on_c, 0, 45, 95
2, 58800, Note_off_c, 0, 57, 95
2, 58800, Note_off_c, 0, 52, 95
2, 58800, Note_off_c, 0, 45, 95
2, 58800, Note_on_c, 0, 55, 70
2, 58800, Note_on_c, 0, 50, 70
2, 58800, Note_on_c, 0, 45, 95
2, 59040, Note_off_c, 0, 55, 70
2, 59040, Note_off_c, 0, 50, 70
2, 59040, Note_off_c, 0, 45, 95
2, 59040, Note_on_c, 0, 57, 95
2, 59040, Note_on_c, 0, 52, 95
2, 59040, Note_on_c, 0, 45, 95
2, 59280, Note_off_c, 0, 57, 95
2, 59280, Note_off_c, 0, 52, 95
2, 59280, Note_off_c, 0, 45, 95
2, 59280, Note_on_c, 0, 55, 95
2, 59280, Note_on_c, 0, 50, 95
2, 59280, Note_on_c, 0, 45, 95
2, 59520, Note_off_c, 0, 55, 95
2, 59520, Note_off_c, 0, 50, 95
2, 59520, Note_off_c, 0, 45, 95
2, 59520, Note_on_c, 0, 57, 95
2, 59520, Note_on_c, 0, 52, 95
2, 59520, Note_on_c, 0, 45, 95
2, 59760, Note_off_c, 0, 57, 95
2, 59760, Note_off_c, 0, 52, 95
2, 59760, Note_off_c, 0, 45, 95
2, 59760, Note_on_c, 0, 55, 95
2, 59760, Note_on_c, 0, 50, 95
2, 59760, Note_on_c, 0, 45, 95
2, 60240, Note_off_c, 0, 55, 95
2, 60240, Note_off_c, 0, 50, 95
2, 60240, Note_off_c, 0, 45, 95
2, 60960, Note_on_c, 0, 55, 95
2, 60960, Note_on_c, 0, 50, 95
2, 60960, Note_on_c, 0, 45, 95
2, 60960, Note_on_c, 0, 40, 95
2, 60997, Note_off_c, 0, 55, 95
2, 60997, Note_off_c, 0, 50, 95
2, 60997, Note_off_c, 0, 45, 95
2, 60997, Note_off_c, 0, 40, 95
2, 61200, Note_on_c, 0, 55, 95
2, 61200, Note_on_c, 0, 50, 95
2, 61200, Note_on_c, 0, 45, 95
2, 61200, Note_on_c, 0, 40, 95
2, 61237, Note_off_c, 0, 55, 95
2, 61237, Note_off_c, 0, 50, 95
2, 61237, Note_off_c, 0, 45, 95
2, 61237, Note_off_c, 0, 40, 95
2, 61440, Note_on_c, 0, 40, 95
2, 62400, Note_off_c, 0, 40, 95
2, 62400, Note_on_c, 0, 64, 95
2, 62400, Note_on_c, 0, 59, 95
2, 62400, Note_on_c, 0, 52, 95
2, 62640, Note_off_c, 0, 64, 95
2, 62640, Note_off_c, 0, 59, 95
2, 62640, Note_off_c, 0, 52, 95
2, 62640, Note_on_c, 0, 57, 95
2, 62715, Note_off_c, 0, 57, 95
2, 62880, Note_on_c, 0, 64, 95
2, 62880, Note_on_c, 0, 59, 95
2, 62880, Note_on_c, 0, 52, 95
2, 63360, Note_off_c, 0, 64, 95
2, 63360, Note_off_c, 0, 59, 95
2, 63360, Note_off_c, 0, 52, 95
2, 63840, Note_on_c, 0, 50, 95
2, 63840, Note_on_c, 0, 45, 95
2, 63840, Note_on_c, 0, 40, 95
2, 63877, Note_off_c, 0, 50, 95
2, 63877, Note_off_c, 0, 45, 95
2, 63877, Note_off_c, 0, 40, 95
2, 64080, Note_on_c, 0, 55, 95
2, 64080, Note_on_c, 0, 50, 95
2, 64080, Note_on_c, 0, 43, 95
2, 64117, Note_off_c, 0, 55, 95
2, 64117, Note_off_c, 0, 50, 95
2, 64117, Note_off_c, 0, 43, 95
2, 65280, Note_on_c, 0, 40, 95
2, 66240, Note_off_c, 0, 40, 95
2, 66240, Note_on_c, 0, 64, 95
2, 66240, Note_on_c, 0, 59, 95
2, 66240, Note_on_c, 0, 52, 95
2, 66480, Note_off_c, 0, 64, 95
2, 66480, Note_off_c, 0, 59, 95
2, 66480, Note_off_c, 0, 52, 95
2, 66480, Note_on_c, 0, 57, 95
2, 66555, Note_off_c, 0, 57, 95
2, 66720, Note_on_c, 0, 64, 95
2, 66720, Note_on_c, 0, 59, 95
2, 66720, Note_on_c, 0, 52, 95
2, 67200, Note_off_c, 0, 64, 95
2, 67200, Note_off_c, 0, 59, 95
2, 67200, Note_off_c, 0, 52, 95
2, 67680, Note_on_c, 0, 50, 95
2, 67680, Note_on_c, 0, 45, 95
2, 67680, Note_on_c, 0, 40, 95
2, 67717, Note_off_c, 0, 50, 95
2, 67717, Note_off_c, 0, 45, 95
2, 67717, Note_off_c, 0, 40, 95
2, 67920, Note_on_c, 0, 55, 95
2, 67920, Note_on_c, 0, 50, 95
2, 67920, Note_on_c, 0, 43, 95
2, 67957, Note_off_c, 0, 55, 95
2, 67957, Note_off_c, 0, 50, 95
2, 67957, Note_off_c, 0, 43, 95
2, 69120, Note_on_c, 0, 59, 95
2, 69120, Note_on_c, 0, 54, 95
2, 69120, Note_on_c, 0, 47, 95
2, 69840, Note_off_c, 0, 59, 95
2, 69840, Note_off_c, 0, 54, 95
2, 69840, Note_off_c, 0, 47, 95
2, 69840, Note_on_c, 0, 47, 95
2, 70080, Note_off_c, 0, 47, 95
2, 70080, Note_on_c, 0, 59, 95
2, 70080, Note_on_c, 0, 54, 95
2, 70080, Note_on_c, 0, 47, 95
2, 70320, Note_off_c, 0, 59, 95
2, 70320, Note_off_c, 0, 54, 95
2, 70320, Note_off_c, 0, 47, 95
2, 70320, Note_on_c, 0, 57, 70
2, 70320, Note_on_c, 0, 52, 70
2, 70320, Note_on_c, 0, 47, 95
2, 70560, Note_off_c, 0, 57, 70
2, 70560, Note_off_c, 0, 52, 70
2, 70560, Note_off_c, 0, 47, 95
2, 70560, Note_on_c, 0, 59, 95
2, 70560, Note_on_c, 0, 54, 95
2, 70560, Note_on_c, 0, 47, 95
2, 70800, Note_off_c, 0, 59, 95
2, 70800, Note_off_c, 0, 54, 95
2, 70800, Note_off_c, 0, 47, 95
2, 70800, Note_on_c, 0, 57, 95
2, 70800, Note_on_c, 0, 52, 95
2, 70800, Note_on_c, 0, 47, 95
2, 71040, Note_off_c, 0, 57, 95
2, 71040, Note_off_c, 0, 52, 95
2, 71040, Note_off_c, 0, 47, 95
2, 71040, Note_on_c, 0, 59, 95
2, 71040, Note_on_c, 0, 54, 95
2, 71040, Note_on_c, 0, 47, 95
2, 71280, Note_off_c, 0, 59, 95
2, 71280, Note_off_c, 0, 54, 95
2, 71280, Note_off_c, 0, 47, 95
2, 71280, Note_on_c, 0, 57, 95
2, 71280, Note_on_c, 0, 52, 95
2, 71280, Note_on_c, 0, 47, 95
2, 71760, Note_off_c, 0, 57, 95
2, 71760, Note_off_c, 0, 52, 95
2, 71760, Note_off_c, 0, 47, 95
2, 72960, Note_on_c, 0, 57, 95
2, 72960, Note_on_c, 0, 52, 95
2, 72960, Note_on_c, 0, 45, 95
2, 73680, Note_off_c, 0, 57, 95
2, 73680, Note_off_c, 0, 52, 95
2, 73680, Note_off_c, 0, 45, 95
2, 73680, Note_on_c, 0, 45, 95
2, 73920, Note_off_c, 0, 45, 95
2, 73920, Note_on_c, 0, 57, 95
2, 73920, Note_on_c, 0, 52, 95
2, 73920, Note_on_c, 0, 45, 95
2, 74160, Note_off_c, 0, 57, 95
2, 74160, Note_off_c, 0, 52, 95
2, 74160, Note_off_c, 0, 45, 95
2, 74160, Note_on_c, 0, 55, 70
2, 74160, Note_on_c, 0, 50, 70
2, 74160, Note_on_c, 0, 45, 95
2, 74400, Note_off_c, 0, 55, 70
2, 74400, Note_off_c, 0, 50, 70
2, 74400, Note_off_c, 0, 45, 95
2, 74400, Note_on_c, 0, 57, 95
2, 74400, Note_on_c, 0, 52, 95
2, 74400, Note_on_c, 0, 45, 95
2, 74640, Note_off_c, 0, 57, 95
2, 74640, Note_off_c, 0, 52, 95
2, 74640, Note_off_c, 0, 45, 95
2, 74640, Note_on_c, 0, 55, 95
2, 74640, Note_on_c, 0, 50, 95
2, 74640, Note_on_c, 0, 45, 95
2, 74880, Note_off_c, 0, 55, 95
2, 74880, Note_off_c, 0, 50, 95
2, 74880, Note_off_c, 0, 45, 95
2, 74880, Note_on_c, 0, 57, 95
2, 74880, Note_on_c, 0, 52, 95
2, 74880, Note_on_c, 0, 45, 95
2, 75120, Note_off_c, 0, 57, 95
2, 75120, Note_off_c, 0, 52, 95
2, 75120, Note_off_c, 0, 45, 95
2, 75120, Note_on_c, 0, 55, 95
2, 75120, Note_on_c, 0, 50, 95
2, 75120, Note_on_c, 0, 45, 95
2, 75600, Note_off_c, 0, 55, 95
2, 75600, Note_off_c, 0, 50, 95
2, 75600, Note_off_c, 0, 45, 95
2, 76320, Note_on_c, 0, 55, 95
2, 76320, Note_on_c, 0, 50, 95
2, 76320, Note_on_c, 0, 45, 95
2, 76320, Note_on_c, 0, 40, 95
2, 76357, Note_off_c, 0, 55, 95
2, 76357, Note_off_c, 0, 50, 95
2, 76357, Note_off_c, 0, 45, 95
2, 76357, Note_off_c, 0, 40, 95
2, 76560, Note_on_c, 0, 55, 95
2, 76560, Note_on_c, 0, 50, 95
2, 76560, Note_on_c, 0, 45, 95
2, 76560, Note_on_c, 0, 40, 95
2, 76597, Note_off_c, 0, 50, 95
2, 76597, Note_off_c, 0, 45, 95
2, 76597, Note_off_c, 0, 40, 95
2, 76800, Note_off_c, 0, 55, 95
2, 76800, Note_on_c, 0, 40, 95
2, 77760, Note_off_c, 0, 40, 95
2, 77760, Note_on_c, 0, 64, 95
2, 77760, Note_on_c, 0, 59, 95
2, 77760, Note_on_c, 0, 52, 95
2, 78000, Note_off_c, 0, 64, 95
2, 78000, Note_off_c, 0, 59, 95
2, 78000, Note_off_c, 0, 52, 95
2, 78000, Note_on_c, 0, 57, 95
2, 78075, Note_off_c, 0, 57, 95
2, 78240, Note_on_c, 0, 64, 95
2, 78240, Note_on_c, 0, 59, 95
2, 78240, Note_on_c, 0, 52, 95
2, 78720, Note_off_c, 0, 64, 95
2, 78720, Note_off_c, 0, 59, 95
2, 78720, Note_off_c, 0, 52, 95
2, 79200, Note_on_c, 0, 50, 95
2, 79200, Note_on_c, 0, 45, 95
2, 79200, Note_on_c, 0, 40, 95
2, 79237, Note_off_c, 0, 50, 95
2, 79237, Note_off_c, 0, 45, 95
2, 79237, Note_off_c, 0, 40, 95
2, 79440, Note_on_c, 0, 55, 95
2, 79440, Note_on_c, 0, 50, 95
2, 79440, Note_on_c, 0, 43, 95
2, 79477, Note_off_c, 0, 55, 95
2, 79477, Note_off_c, 0, 50, 95
2, 79477, Note_off_c, 0, 43, 95
2, 80640, Note_on_c, 0, 47, 95
2, 80640, Note_on_c, 0, 40, 95
2, 81600, Note_off_c, 0, 47, 95
2, 81600, Note_off_c, 0, 40, 95
2, 81600, Note_on_c, 0, 64, 95
2, 81600, Note_on_c, 0, 59, 95
2, 81600, Note_on_c, 0, 52, 95
2, 81840, Note_off_c, 0, 64, 95
2, 81840, Note_off_c, 0, 59, 95
2, 81840, Note_off_c, 0, 52, 95
2, 81840, Note_on_c, 0, 57, 95
2, 81915, Note_off_c, 0, 57, 95
2, 82080, Note_on_c, 0, 64, 95
2, 82080, Note_on_c, 0, 59, 95
2, 82080, Note_on_c, 0, 52, 95
2, 82560, Note_off_c, 0, 64, 95
2, 82560, Note_off_c, 0, 59, 95
2, 82560, Note_off_c, 0, 52, 95
2, 83040, Note_on_c, 0, 50, 95
2, 83040, Note_on_c, 0, 45, 95
2, 83040, Note_on_c, 0, 40, 95
2, 83077, Note_off_c, 0, 50, 95
2, 83077, Note_off_c, 0, 45, 95
2, 83077, Note_off_c, 0, 40, 95
2, 83280, Note_on_c, 0, 50, 95
2, 83280, Note_on_c, 0, 45, 95
2, 83280, Note_on_c, 0, 40, 95
2, 83317, Note_off_c, 0, 50, 95
2, 83317, Note_off_c, 0, 45, 95
2, 83317, Note_off_c, 0, 40, 95
2, 83520, Note_on_c, 1, 67, 95
2, 83520, Note_on_c, 0, 59, 95
2, 83520, Note_on_c, 0, 57, 95
2, 83520, Note_on_c, 0, 50, 95
2, 83557, Note_off_c, 0, 59, 95
2, 83557, Note_off_c, 0, 57, 95
2, 83557, Note_off_c, 0, 50, 95
2, 83640, Pitch_bend_c, 1, 8448
2, 83760, Pitch_bend_c, 1, 8832
2, 83760, Pitch_bend_c, 1, 8192
2, 83760, Note_off_c, 1, 67, 95
2, 83760, Note_on_c, 0, 68, 95
2, 83760, Note_on_c, 0, 59, 95
2, 83760, Note_on_c, 0, 59, 95
2, 83760, Note_on_c, 0, 50, 95
2, 83797, Note_off_c, 0, 59, 95
2, 83797, Note_off_c, 0, 59, 95
2, 83797, Note_off_c, 0, 50, 95
2, 84480, Note_off_c, 0, 68, 95
2, 84480, Note_on_c, 0, 47, 95
2, 84480, Note_on_c, 0, 40, 95
2, 85440, Note_off_c, 0, 47, 95
2, 85440, Note_off_c, 0, 40, 95
2, 85440, Note_on_c, 0, 59, 95
2, 85920, Note_off_c, 0, 59, 95
2, 85920, Note_on_c, 0, 64, 79
2, 86400, Note_off_c, 0, 64, 79
2, 86400, Note_on_c, 0, 58, 95
2, 86880, Note_off_c, 0, 58, 95
2, 86880, Note_on_c, 0, 64, 79
2, 87120, Note_off_c, 0, 64, 79
2, 87120, Note_on_c, 0, 64, 79
2, 87360, Note_off_c, 0, 64, 79
2, 87360, Note_on_c, 0, 57, 95
2, 87840, Note_off_c, 0, 57, 95
2, 87840, Note_on_c, 0, 64, 79
2, 88080, Note_off_c, 0, 64, 79
2, 88080, Note_on_c, 0, 64, 79
2, 88320, Note_off_c, 0, 64, 79
2, 88320, Note_on_c, 0, 55, 95
2, 88560, Note_off_c, 0, 55, 95
2, 88560, Note_on_c, 0, 56, 70
2, 89280, Note_off_c, 0, 56, 70
2, 89280, Note_on_c, 0, 64, 95
2, 89280, Note_on_c, 0, 59, 95
2, 89760, Note_off_c, 0, 64, 95
2, 89760, Note_off_c, 0, 59, 95
2, 89760, Note_on_c, 0, 59, 47
2, 89760, Note_on_c, 0, 56, 47
2, 90000, Note_off_c, 0, 59, 47
2, 90000, Note_off_c, 0, 56, 47
2, 90000, Note_on_c, 0, 56, 47
2, 90000, Note_on_c, 0, 50, 47
2, 90480, Note_off_c, 0, 56, 47
2, 90480, Note_off_c, 0, 50, 47
2, 90960, Note_on_c, 0, 50, 95
2, 90960, Note_on_c, 0, 45, 95
2, 90960, Note_on_c, 0, 40, 95
2, 90997, Note_off_c, 0, 50, 95
2, 90997, Note_off_c, 0, 45, 95
2, 90997, Note_off_c, 0, 40, 95
2, 91200, Note_on_c, 0, 50, 95
2, 91200, Note_on_c, 0, 45, 95
2, 91200, Note_on_c, 0, 43, 95
2, 91237, Note_off_c, 0, 45, 95
2, 92160, Note_off_c, 0, 50, 95
2, 92160, Note_off_c, 0, 43, 95
2, 92160, Note_on_c, 0, 47, 95
2, 92160, Note_on_c, 0, 40, 95
2, 93120, Note_off_c, 0, 47, 95
2, 93120, Note_off_c, 0, 40, 95
2, 93120, Note_on_c, 0, 59, 95
2, 93600, Note_off_c, 0, 59, 95
2, 93600, Note_on_c, 0, 64, 79
2, 94080, Note_off_c, 0, 64, 79
2, 94080, Note_on_c, 0, 58, 95
2, 94560, Note_off_c, 0, 58, 95
2, 94560, Note_on_c, 0, 64, 79
2, 94800, Note_off_c, 0, 64, 79
2, 94800, Note_on_c, 0, 64, 79
2, 95040, Note_off_c, 0, 64, 79
2, 95040, Note_on_c, 0, 57, 95
2, 95520, Note_off_c, 0, 57, 95
2, 95520, Note_on_c, 0, 64, 79
2, 95760, Note_off_c, 0, 64, 79
2, 95760, Note_on_c, 0, 64, 79
2, 96000, Note_off_c, 0, 64, 79
2, 96000, Note_on_c, 0, 55, 95
2, 96240, Note_off_c, 0, 55, 95
2, 96240, Note_on_c, 0, 56, 70
2, 96960, Note_off_c, 0, 56, 70
2, 96960, Note_on_c, 0, 64, 95
2, 96960, Note_on_c, 0, 59, 95
2, 97440, Note_off_c, 0, 64, 95
2, 97440, Note_off_c, 0, 59, 95
2, 97440, Note_on_c, 0, 59, 47
2, 97440, Note_on_c, 0, 56, 47
2, 97680, Note_off_c, 0, 59, 47
2, 97680, Note_off_c, 0, 56, 47
2, 97680, Note_on_c, 0, 56, 47
2, 97680, Note_on_c, 0, 50, 47
2, 98160, Note_off_c, 0, 56, 47
2, 98160, Note_off_c, 0, 50, 47
2, 98160, Note_on_c, 0, 57, 95
2, 98160, Note_on_c, 0, 52, 95
2, 98160, Note_on_c, 0, 45, 95
2, 98160, Note_on_c, 0, 40, 95
2, 98197, Note_off_c, 0, 45, 95
2, 98197, Note_off_c, 0, 40, 95
2, 98400, Note_off_c, 0, 57, 95
2, 98400, Note_off_c, 0, 52, 95
2, 98640, Note_on_c, 0, 50, 95
2, 98640, Note_on_c, 0, 45, 95
2, 98640, Note_on_c, 0, 43, 95
2, 98677, Note_off_c, 0, 45, 95
2, 98880, Note_off_c, 0, 50, 95
2, 98880, Note_off_c, 0, 43, 95
2, 98880, Note_on_c, 0, 57, 95
2, 98880, Note_on_c, 0, 52, 95
2, 98880, Note_on_c, 0, 45, 95
2, 98880, Note_on_c, 0, 40, 95
2, 98917, Note_off_c, 0, 45, 95
2, 98917, Note_off_c, 0, 40, 95
2, 99120, Note_off_c, 0, 57, 95
2, 99120, Note_off_c, 0, 52, 95
2, 99120, Note_on_c, 0, 57, 95
2, 99120, Note_on_c, 0, 52, 95
2, 99120, Note_on_c, 0, 45, 95
2, 99120, Note_on_c, 0, 40, 95
2, 99157, Note_off_c, 0, 45, 95
2, 99157, Note_off_c, 0, 40, 95
2, 99360, Note_off_c, 0, 57, 95
2, 99360, Note_off_c, 0, 52, 95
2, 99840, Note_on_c, 0, 57, 95
2, 99840, Note_on_c, 0, 52, 95
2, 99840, Note_on_c, 0, 45, 95
2, 100560, Note_off_c, 0, 57, 95
2, 100560, Note_off_c, 0, 52, 95
2, 100560, Note_off_c, 0, 45, 95
2, 100560, Note_on_c, 0, 45, 95
2, 100800, Note_off_c, 0, 45, 95
2, 100800, Note_on_c, 0, 57, 95
2, 100800, Note_on_c, 0, 52, 95
2, 100800, Note_on_c, 0, 45, 95
2, 101040, Note_off_c, 0, 57, 95
2, 101040, Note_off_c, 0, 52, 95
2, 101040, Note_off_c, 0, 45, 95
2, 101040, Note_on_c, 0, 55, 70
2, 101040, Note_on_c, 0, 50, 70
2, 101040, Note_on_c, 0, 45, 95
2, 101280, Note_off_c, 0, 55, 70
2, 101280, Note_off_c, 0, 50, 70
2, 101280, Note_off_c, 0, 45, 95
2, 101280, Note_on_c, 0, 57, 95
2, 101280, Note_on_c, 0, 52, 95
2, 101280, Note_on_c, 0, 45, 95
2, 101520, Note_off_c, 0, 57, 95
2, 101520, Note_off_c, 0, 52, 95
2, 101520, Note_off_c, 0, 45, 95
2, 101520, Note_on_c, 0, 55, 95
2, 101520, Note_on_c, 0, 50, 95
2, 101520, Note_on_c, 0, 45, 95
2, 101760, Note_off_c, 0, 55, 95
2, 101760, Note_off_c, 0, 50, 95
2, 101760, Note_off_c, 0, 45, 95
2, 101760, Note_on_c, 0, 57, 95
2, 101760, Note_on_c, 0, 52, 95
2, 101760, Note_on_c, 0, 45, 95
2, 102000, Note_off_c, 0, 57, 95
2, 102000, Note_off_c, 0, 52, 95
2, 102000, Note_off_c, 0, 45, 95
2, 102000, Note_on_c, 0, 55, 95
2, 102000, Note_on_c, 0, 50, 95
2, 102000, Note_on_c, 0, 45, 95
2, 102480, Note_off_c, 0, 55, 95
2, 102480, Note_off_c, 0, 50, 95
2, 102480, Note_off_c, 0, 45, 95
2, 103200, Note_on_c, 0, 55, 95
2, 103200, Note_on_c, 0, 50, 95
2, 103200, Note_on_c, 0, 45, 95
2, 103200, Note_on_c, 0, 40, 95
2, 103237, Note_off_c, 0, 55, 95
2, 103237, Note_off_c, 0, 50, 95
2, 103237, Note_off_c, 0, 45, 95
2, 103237, Note_off_c, 0, 40, 95
2, 103440, Note_on_c, 0, 55, 95
2, 103440, Note_on_c, 0, 50, 95
2, 103440, Note_on_c, 0, 45, 95
2, 103440, Note_on_c, 0, 40, 95
2, 103477, Note_off_c, 0, 55, 95
2, 103477, Note_off_c, 0, 50, 95
2, 103477, Note_off_c, 0, 45, 95
2, 103477, Note_off_c, 0, 40, 95
2, 103680, Note_on_c, 0, 57, 95
2, 103680, Note_on_c, 0, 52, 95
2, 103680, Note_on_c, 0, 45, 95
2, 104400, Note_off_c, 0, 57, 95
2, 104400, Note_off_c, 0, 52, 95
2, 104400, Note_off_c, 0, 45, 95
2, 104400, Note_on_c, 0, 45, 95
2, 104640, Note_off_c, 0, 45, 95
2, 104640, Note_on_c, 0, 57, 95
2, 104640, Note_on_c, 0, 52, 95
2, 104640, Note_on_c, 0, 45, 95
2, 104880, Note_off_c, 0, 57, 95
2, 104880, Note_off_c, 0, 52, 95
2, 104880, Note_off_c, 0, 45, 95
2, 104880, Note_on_c, 0, 55, 70
2, 104880, Note_on_c, 0, 50, 70
2, 104880, Note_on_c, 0, 45, 95
2, 105120, Note_off_c, 0, 55, 70
2, 105120, Note_off_c, 0, 50, 70
2, 105120, Note_off_c, 0, 45, 95
2, 105120, Note_on_c, 0, 57, 95
2, 105120, Note_on_c, 0, 52, 95
2, 105120, Note_on_c, 0, 45, 95
2, 105360, Note_off_c, 0, 57, 95
2, 105360, Note_off_c, 0, 52, 95
2, 105360, Note_off_c, 0, 45, 95
2, 105360, Note_on_c, 0, 55, 95
2, 105360, Note_on_c, 0, 50, 95
2, 105360, Note_on_c, 0, 45, 95
2, 105600, Note_off_c, 0, 55, 95
2, 105600, Note_off_c, 0, 50, 95
2, 105600, Note_off_c, 0, 45, 95
2, 105600, Note_on_c, 0, 57, 95
2, 105600, Note_on_c, 0, 52, 95
2, 105600, Note_on_c, 0, 45, 95
2, 105840, Note_off_c, 0, 57, 95
2, 105840, Note_off_c, 0, 52, 95
2, 105840, Note_off_c, 0, 45, 95
2, 105840, Note_on_c, 0, 55, 95
2, 105840, Note_on_c, 0, 50, 95
2, 105840, Note_on_c, 0, 45, 95
2, 106320, Note_off_c, 0, 55, 95
2, 106320, Note_off_c, 0, 50, 95
2, 106320, Note_off_c, 0, 45, 95
2, 107040, Note_on_c, 0, 55, 95
2, 107040, Note_on_c, 0, 50, 95
2, 107040, Note_on_c, 0, 45, 95
2, 107040, Note_on_c, 0, 40, 95
2, 107077, Note_off_c, 0, 55, 95
2, 107077, Note_off_c, 0, 50, 95
2, 107077, Note_off_c, 0, 45, 95
2, 107077, Note_off_c, 0, 40, 95
2, 107280, Note_on_c, 0, 55, 95
2, 107280, Note_on_c, 0, 45, 95
2, 107280, Note_on_c, 0, 40, 95
2, 107317, Note_off_c, 0, 45, 95
2, 107317, Note_off_c, 0, 40, 95
2, 107520, Note_off_c, 0, 55, 95
2, 107520, Note_on_c, 0, 40, 95
2, 108480, Note_off_c, 0, 40, 95
2, 108480, Note_on_c, 0, 64, 95
2, 108480, Note_on_c, 0, 59, 95
2, 108480, Note_on_c, 0, 52, 95
2, 108720, Note_off_c, 0, 64, 95
2, 108720, Note_off_c, 0, 59, 95
2, 108720, Note_off_c, 0, 52, 95
2, 108720, Note_on_c, 0, 57, 95
2, 108795, Note_off_c, 0, 57, 95
2, 108960, Note_on_c, 0, 64, 95
2, 108960, Note_on_c, 0, 59, 95
2, 108960, Note_on_c, 0, 52, 95
2, 109440, Note_off_c, 0, 64, 95
2, 109440, Note_off_c, 0, 59, 95
2, 109440, Note_off_c, 0, 52, 95
2, 109920, Note_on_c, 0, 50, 95
2, 109920, Note_on_c, 0, 45, 95
2, 109920, Note_on_c, 0, 40, 95
2, 109957, Note_off_c, 0, 50, 95
2, 109957, Note_off_c, 0, 45, 95
2, 109957, Note_off_c, 0, 40, 95
2, 110160, Note_on_c, 0, 55, 95
2, 110160, Note_on_c, 0, 50, 95
2, 110160, Note_on_c, 0, 43, 95
2, 110197, Note_off_c, 0, 55, 95
2, 110197, Note_off_c, 0, 50, 95
2, 110197, Note_off_c, 0, 43, 95
2, 111360, Note_on_c, 0, 47, 95
2, 111360, Note_on_c, 0, 40, 95
2, 112320, Note_off_c, 0, 47, 95
2, 112320, Note_off_c, 0, 40, 95
2, 112320, Note_on_c, 0, 64, 95
2, 112320, Note_on_c, 0, 59, 95
2, 112320, Note_on_c, 0, 52, 95
2, 112560, Note_off_c, 0, 64, 95
2, 112560, Note_off_c, 0, 59, 95
2, 112560, Note_off_c, 0, 52, 95
2, 112560, Note_on_c, 0, 57, 95
2, 112635, Note_off_c, 0, 57, 95
2, 112800, Note_on_c, 0, 64, 95
2, 112800, Note_on_c, 0, 59, 95
2, 112800, Note_on_c, 0, 52, 95
2, 113280, Note_off_c, 0, 64, 95
2, 113280, Note_off_c, 0, 59, 95
2, 113280, Note_off_c, 0, 52, 95
2, 113760, Note_on_c, 0, 64, 95
2, 113760, Note_on_c, 0, 59, 95
2, 113760, Note_on_c, 0, 50, 95
2, 113760, Note_on_c, 0, 45, 95
2, 113760, Note_on_c, 0, 40, 95
2, 113797, Note_off_c, 0, 50, 95
2, 113797, Note_off_c, 0, 45, 95
2, 113797, Note_off_c, 0, 40, 95
2, 114000, Note_off_c, 0, 64, 95
2, 114000, Note_off_c, 0, 59, 95
2, 114000, Note_on_c, 0, 50, 95
2, 114000, Note_on_c, 0, 45, 95
2, 114000, Note_on_c, 0, 40, 95
2, 114037, Note_off_c, 0, 50, 95
2, 114037, Note_off_c, 0, 45, 95
2, 114037, Note_off_c, 0, 40, 95
2, 114240, Note_on_c, 0, 64, 95
2, 114240, Note_on_c, 0, 57, 95
2, 114240, Note_on_c, 0, 50, 95
2, 114277, Note_off_c, 0, 50, 95
2, 114480, Note_off_c, 0, 64, 95
2, 114480, Note_off_c, 0, 57, 95
2, 114480, Note_on_c, 0, 64, 95
2, 114480, Note_on_c, 0, 59, 95
2, 114480, Note_on_c, 0, 50, 95
2, 114517, Note_off_c, 0, 50, 95
2, 115200, Note_off_c, 0, 64, 95
2, 115200, Note_off_c, 0, 59, 95
2, 115200, Note_on_c, 0, 59, 95
2, 115200, Note_on_c, 0, 54, 95
2, 115200, Note_on_c, 0, 47, 95
2, 115920, Note_off_c, 0, 59, 95
2, 115920, Note_off_c, 0, 54, 95
2, 115920, Note_off_c, 0, 47, 95
2, 115920, Note_on_c, 0, 47, 95
2, 116160, Note_off_c, 0, 47, 95
2, 116160, Note_on_c, 0, 59, 95
2, 116160, Note_on_c, 0, 54, 95
2, 116160, Note_on_c, 0, 47, 95
2, 116400, Note_off_c, 0, 59, 95
2, 116400, Note_off_c, 0, 54, 95
2, 116400, Note_off_c, 0, 47, 95
2, 116400, Note_on_c, 0, 57, 70
2, 116400, Note_on_c, 0, 52, 70
2, 116400, Note_on_c, 0, 47, 95
2, 116640, Note_off_c, 0, 57, 70
2, 116640, Note_off_c, 0, 52, 70
2, 116640, Note_off_c, 0, 47, 95
2, 116640, Note_on_c, 0, 59, 95
2, 116640, Note_on_c, 0, 54, 95
2, 116640, Note_on_c, 0, 47, 95
2, 116880, Note_off_c, 0, 59, 95
2, 116880, Note_off_c, 0, 54, 95
2, 116880, Note_off_c, 0, 47, 95
2, 116880, Note_on_c, 0, 57, 95
2, 116880, Note_on_c, 0, 52, 95
2, 116880, Note_on_c, 0, 47, 95
2, 117120, Note_off_c, 0, 57, 95
2, 117120, Note_off_c, 0, 52, 95
2, 117120, Note_off_c, 0, 47, 95
2, 117120, Note_on_c, 0, 59, 95
2, 117120, Note_on_c, 0, 54, 95
2, 117120, Note_on_c, 0, 47, 95
2, 117360, Note_off_c, 0, 59, 95
2, 117360, Note_off_c, 0, 54, 95
2, 117360, Note_off_c, 0, 47, 95
2, 117360, Note_on_c, 0, 57, 95
2, 117360, Note_on_c, 0, 52, 95
2, 117360, Note_on_c, 0, 47, 95
2, 117840, Note_off_c, 0, 57, 95
2, 117840, Note_off_c, 0, 52, 95
2, 117840, Note_off_c, 0, 47, 95
2, 119040, Note_on_c, 0, 57, 95
2, 119040, Note_on_c, 0, 52, 95
2, 119040, Note_on_c, 0, 45, 95
2, 119760, Note_off_c, 0, 57, 95
2, 119760, Note_off_c, 0, 52, 95
2, 119760, Note_off_c, 0, 45, 95
2, 119760, Note_on_c, 0, 45, 95
2, 120000, Note_off_c, 0, 45, 95
2, 120000, Note_on_c, 0, 57, 95
2, 120000, Note_on_c, 0, 52, 95
2, 120000, Note_on_c, 0, 45, 95
2, 120240, Note_off_c, 0, 57, 95
2, 120240, Note_off_c, 0, 52, 95
2, 120240, Note_off_c, 0, 45, 95
2, 120240, Note_on_c, 0, 55, 70
2, 120240, Note_on_c, 0, 50, 70
2, 120240, Note_on_c, 0, 45, 95
2, 120480, Note_off_c, 0, 55, 70
2, 120480, Note_off_c, 0, 50, 70
2, 120480, Note_off_c, 0, 45, 95
2, 120480, Note_on_c, 0, 57, 95
2, 120480, Note_on_c, 0, 52, 95
2, 120480, Note_on_c, 0, 45, 95
2, 120720, Note_off_c, 0, 57, 95
2, 120720, Note_off_c, 0, 52, 95
2, 120720, Note_off_c, 0, 45, 95
2, 120720, Note_on_c, 0, 55, 95
2, 120720, Note_on_c, 0, 50, 95
2, 120720, Note_on_c, 0, 45, 95
2, 120960, Note_off_c, 0, 55, 95
2, 120960, Note_off_c, 0, 50, 95
2, 120960, Note_off_c, 0, 45, 95
2, 120960, Note_on_c, 0, 57, 95
2, 120960, Note_on_c, 0, 52, 95
2, 120960, Note_on_c, 0, 45, 95
2, 121200, Note_off_c, 0, 57, 95
2, 121200, Note_off_c, 0, 52, 95
2, 121200, Note_off_c, 0, 45, 95
2, 121200, Note_on_c, 0, 55, 95
2, 121200, Note_on_c, 0, 50, 95
2, 121200, Note_on_c, 0, 45, 95
2, 121680, Note_off_c, 0, 55, 95
2, 121680, Note_off_c, 0, 50, 95
2, 121680, Note_off_c, 0, 45, 95
2, 122400, Note_on_c, 0, 55, 95
2, 122400, Note_on_c, 0, 50, 95
2, 122400, Note_on_c, 0, 45, 95
2, 122400, Note_on_c, 0, 40, 95
2, 122437, Note_off_c, 0, 55, 95
2, 122437, Note_off_c, 0, 50, 95
2, 122437, Note_off_c, 0, 45, 95
2, 122437, Note_off_c, 0, 40, 95
2, 122640, Note_on_c, 0, 55, 95
2, 122640, Note_on_c, 0, 50, 95
2, 122640, Note_on_c, 0, 45, 95
2, 122640, Note_on_c, 0, 40, 95
2, 122677, Note_off_c, 0, 50, 95
2, 122677, Note_off_c, 0, 45, 95
2, 122677, Note_off_c, 0, 40, 95
2, 122880, Note_off_c, 0, 55, 95
2, 122880, Note_on_c, 0, 47, 95
2, 122880, Note_on_c, 0, 40, 95
2, 123840, Note_off_c, 0, 47, 95
2, 123840, Note_off_c, 0, 40, 95
2, 123840, Note_on_c, 0, 64, 95
2, 123840, Note_on_c, 0, 59, 95
2, 123840, Note_on_c, 0, 52, 95
2, 124080, Note_off_c, 0, 64, 95
2, 124080, Note_off_c, 0, 59, 95
2, 124080, Note_off_c, 0, 52, 95
2, 124320, Note_on_c, 0, 64, 95
2, 124320, Note_on_c, 0, 57, 95
2, 124320, Note_on_c, 0, 52, 95
2, 124560, Note_off_c, 0, 64, 95
2, 124560, Note_off_c, 0, 57, 95
2, 124560, Note_off_c, 0, 52, 95
2, 124560, Note_on_c, 0, 64, 95
2, 124560, Note_on_c, 0, 59, 95
2, 124560, Note_on_c, 0, 52, 95
2, 124800, Note_off_c, 0, 64, 95
2, 124800, Note_off_c, 0, 59, 95
2, 124800, Note_off_c, 0, 52, 95
2, 125040, Note_on_c, 0, 64, 95
2, 125040, Note_on_c, 0, 59, 95
2, 125040, Note_on_c, 0, 52, 95
2, 125280, Note_off_c, 0, 64, 95
2, 125280, Note_off_c, 0, 59, 95
2, 125280, Note_off_c, 0, 52, 95
2, 125520, Note_on_c, 0, 64, 95
2, 125520, Note_on_c, 0, 57, 95
2, 125520, Note_on_c, 0, 52, 95
2, 125760, Note_off_c, 0, 64, 95
2, 125760, Note_off_c, 0, 57, 95
2, 125760, Note_off_c, 0, 52, 95
2, 125760, Note_on_c, 0, 64, 95
2, 125760, Note_on_c, 0, 59, 95
2, 125760, Note_on_c, 0, 52, 95
2, 126000, Note_off_c, 0, 64, 95
2, 126000, Note_off_c, 0, 59, 95
2, 126000, Note_off_c, 0, 52, 95
2, 126000, Note_on_c, 0, 64, 95
2, 126000, Note_on_c, 0, 59, 95
2, 126000, Note_on_c, 0, 52, 95
2, 126240, Note_off_c, 0, 64, 95
2, 126240, Note_off_c, 0, 59, 95
2, 126240, Note_off_c, 0, 52, 95
2, 126480, Note_on_c, 0, 47, 95
2, 126480, Note_on_c, 0, 40, 95
2, 126720, Note_off_c, 0, 47, 95
2, 126720, Note_off_c, 0, 40, 95
2, 126720, Note_on_c, 0, 64, 95
2, 126720, Note_on_c, 0, 59, 95
2, 126720, Note_on_c, 0, 52, 95
2, 127200, Note_off_c, 0, 64, 95
2, 127200, Note_off_c, 0, 59, 95
2, 127200, Note_off_c, 0, 52, 95
2, 127200, Note_on_c, 0, 64, 95
2, 127200, Note_on_c, 0, 57, 95
2, 127200, Note_on_c, 0, 52, 95
2, 127680, Note_off_c, 0, 64, 95
2, 127680, Note_off_c, 0, 57, 95
2, 127680, Note_off_c, 0, 52, 95
2, 127680, Note_on_c, 0, 64, 95
2, 127680, Note_on_c, 0, 59, 95
2, 127680, Note_on_c, 0, 52, 95
2, 127920, Note_off_c, 0, 64, 95
2, 127920, Note_off_c, 0, 59, 95
2, 127920, Note_off_c, 0, 52, 95
2, 128160, Note_on_c, 0, 59, 95
2, 128160, Note_on_c, 0, 54, 95
2, 128160, Note_on_c, 0, 47, 95
2, 128880, Note_off_c, 0, 59, 95
2, 128880, Note_off_c, 0, 54, 95
2, 128880, Note_off_c, 0, 47, 95
2, 128880, Note_on_c, 0, 59, 95
2, 128880, Note_on_c, 0, 54, 95
2, 128880, Note_on_c, 0, 47, 95
2, 129360, Note_off_c, 0, 59, 95
2, 129360, Note_off_c, 0, 54, 95
2, 129360, Note_off_c, 0, 47, 95
2, 129360, Note_on_c, 0, 59, 95
2, 129360, Note_on_c, 0, 54, 95
2, 129360, Note_on_c, 0, 47, 95
2, 129600, Note_off_c, 0, 59, 95
2, 129600, Note_off_c, 0, 54, 95
2, 129600, Note_off_c, 0, 47, 95
2, 129600, Note_on_c, 0, 59, 95
2, 129600, Note_on_c, 0, 54, 95
2, 129600, Note_on_c, 0, 47, 95
2, 130080, Note_off_c, 0, 59, 95
2, 130080, Note_off_c, 0, 54, 95
2, 130080, Note_off_c, 0, 47, 95
2, 130080, Note_on_c, 0, 59, 95
2, 130080, Note_on_c, 0, 54, 95
2, 130080, Note_on_c, 0, 47, 95
2, 130320, Note_off_c, 0, 59, 95
2, 130320, Note_off_c, 0, 54, 95
2, 130320, Note_off_c, 0, 47, 95
2, 130320, Note_on_c, 0, 59, 95
2, 130320, Note_on_c, 0, 54, 95
2, 130320, Note_on_c, 0, 47, 95
2, 130560, Note_off_c, 0, 59, 95
2, 130560, Note_off_c, 0, 54, 95
2, 130560, Note_off_c, 0, 47, 95
2, 131520, Pitch_bend_c, 1, 8192
2, 131520, Note_on_c, 1, 81, 95
2, 131530, Pitch_bend_c, 1, 8320
2, 131540, Pitch_bend_c, 1, 8448
2, 131550, Pitch_bend_c, 1, 8576
2, 131560, Pitch_bend_c, 1, 8704
2, 131570, Pitch_bend_c, 1, 8832
2, 131580, Pitch_bend_c, 1, 8960
2, 131590, Pitch_bend_c, 1, 9088
2, 131600, Pitch_bend_c, 1, 9216
2, 131610, Pitch_bend_c, 1, 9344
2, 131620, Pitch_bend_c, 1, 9472
2, 131630, Pitch_bend_c, 1, 9600
2, 131640, Pitch_bend_c, 1, 9600
2, 131760, Pitch_bend_c, 1, 9600
2, 131770, Pitch_bend_c, 1, 9472
2, 131780, Pitch_bend_c, 1, 9344
2, 131790, Pitch_bend_c, 1, 9216
2, 131800, Pitch_bend_c, 1, 9088
2, 131810, Pitch_bend_c, 1, 8960
2, 131820, Pitch_bend_c, 1, 8832
2, 131830, Pitch_bend_c, 1, 8704
2, 131840, Pitch_bend_c, 1, 8576
2, 131850, Pitch_bend_c, 1, 8448
2, 131860, Pitch_bend_c, 1, 8320
2, 131870, Pitch_bend_c, 1, 8192
2, 131880, Pitch_bend_c, 1, 8192
2, 131880, Note_on_c, 1, 81, 95
2, 132000, Pitch_bend_c, 1, 8192
2, 132000, Pitch_bend_c, 1, 8192
2, 132000, Note_off_c, 1, 81, 95
2, 132000, Note_off_c, 1, 81, 95
2, 132000, Note_on_c, 1, 79, 95
2, 132240, Note_off_c, 1, 79, 95
2, 132240, Note_on_c, 1, 76, 95
2, 132400, Pitch_bend_c, 1, 8192
2, 132560, Pitch_bend_c, 1, 8320
2, 132720, Pitch_bend_c, 1, 8192
2, 132880, Pitch_bend_c, 1, 8320
2, 133040, Pitch_bend_c, 1, 8192
2, 133200, Pitch_bend_c, 1, 8320
2, 133200, Pitch_bend_c, 1, 8192
2, 133200, Note_off_c, 1, 76, 95
2, 133440, Note_on_c, 0, 86, 95
2, 133680, Note_off_c, 0, 86, 95
2, 133680, Pitch_bend_c, 1, 8192
2, 133680, Note_on_c, 1, 86, 95
2, 133712, Pitch_bend_c, 1, 8320
2, 133744, Pitch_bend_c, 1, 8448
2, 133776, Pitch_bend_c, 1, 8576
2, 133808, Pitch_bend_c, 1, 8704
2, 133840, Pitch_bend_c, 1, 8832
2, 133872, Pitch_bend_c, 1, 8960
2, 133904, Pitch_bend_c, 1, 9088
2, 133936, Pitch_bend_c, 1, 9216
2, 133968, Pitch_bend_c, 1, 9344
2, 134000, Pitch_bend_c, 1, 9472
2, 134032, Pitch_bend_c, 1, 9600
2, 134040, Pitch_bend_c, 1, 9600
2, 134400, Pitch_bend_c, 1, 9600
2, 134400, Pitch_bend_c, 1, 8192
2, 134400, Note_off_c, 1, 86, 95
2, 135360, Pitch_bend_c, 1, 8192
2, 135360, Note_on_c, 1, 81, 95
2, 135370, Pitch_bend_c, 1, 8320
2, 135380, Pitch_bend_c, 1, 8448
2, 135390, Pitch_bend_c, 1, 8576
2, 135400, Pitch_bend_c, 1, 8704
2, 135410, Pitch_bend_c, 1, 8832
2, 135420, Pitch_bend_c, 1, 8960
2, 135430, Pitch_bend_c, 1, 9088
2, 135440, Pitch_bend_c, 1, 9216
2, 135450, Pitch_bend_c, 1, 9344
2, 135460, Pitch_bend_c, 1, 9472
2, 135470, Pitch_bend_c, 1, 9600
2, 135480, Pitch_bend_c, 1, 9600
2, 135600, Pitch_bend_c, 1, 9600
2, 135610, Pitch_bend_c, 1, 9472
2, 135620, Pitch_bend_c, 1, 9344
2, 135630, Pitch_bend_c, 1, 9216
2, 135640, Pitch_bend_c, 1, 9088
2, 135650, Pitch_bend_c, 1, 8960
2, 135660, Pitch_bend_c, 1, 8832
2, 135670, Pitch_bend_c, 1, 8704
2, 135680, Pitch_bend_c, 1, 8576
2, 135690, Pitch_bend_c, 1, 8448
2, 135700, Pitch_bend_c, 1, 8320
2, 135710, Pitch_bend_c, 1, 8192
2, 135720, Pitch_bend_c, 1, 8192
2, 135840, Pitch_bend_c, 1, 8192
2, 135840, Pitch_bend_c, 1, 8192
2, 135840, Note_off_c, 1, 81, 95
2, 135840, Note_on_c, 0, 79, 95
2, 136080, Note_off_c, 0, 79, 95
2, 136080, Note_on_c, 1, 76, 95
2, 136240, Pitch_bend_c, 1, 8192
2, 136400, Pitch_bend_c, 1, 8320
2, 136560, Pitch_bend_c, 1, 8192
2, 136560, Pitch_bend_c, 1, 8320
2, 136560, Pitch_bend_c, 1, 8192
2, 136560, Note_off_c, 1, 76, 95
2, 138240, Note_on_c, 0, 74, 95
2, 138240, Pitch_bend_c, 1, 8192
2, 138240, Note_on_c, 1, 69, 95
2, 138261, Pitch_bend_c, 1, 8320
2, 138282, Pitch_bend_c, 1, 8448
2, 138303, Pitch_bend_c, 1, 8576
2, 138324, Pitch_bend_c, 1, 8704
2, 138345, Pitch_bend_c, 1, 8832
2, 138366, Pitch_bend_c, 1, 8960
2, 138387, Pitch_bend_c, 1, 9088
2, 138408, Pitch_bend_c, 1, 9216
2, 138429, Pitch_bend_c, 1, 9344
2, 138450, Pitch_bend_c, 1, 9472
2, 138471, Pitch_bend_c, 1, 9600
2, 138480, Pitch_bend_c, 1, 9600
2, 138720, Pitch_bend_c, 1, 9600
2, 138720, Pitch_bend_c, 1, 8192
2, 138720, Note_off_c, 1, 69, 95
2, 138720, Pitch_bend_c, 1, 9600
2, 138720, Note_on_c, 1, 69, 95
2, 138960, Pitch_bend_c, 1, 9600
2, 138960, Pitch_bend_c, 1, 8192
2, 138960, Note_off_c, 1, 69, 95
2, 138960, Pitch_bend_c, 1, 9600
2, 138960, Note_on_c, 1, 69, 95
2, 139120, Pitch_bend_c, 1, 9600
2, 139134, Pitch_bend_c, 1, 9472
2, 139148, Pitch_bend_c, 1, 9344
2, 139162, Pitch_bend_c, 1, 9216
2, 139176, Pitch_bend_c, 1, 9088
2, 139190, Pitch_bend_c, 1, 8960
2, 139204, Pitch_bend_c, 1, 8832
2, 139218, Pitch_bend_c, 1, 8704
2, 139232, Pitch_bend_c, 1, 8576
2, 139246, Pitch_bend_c, 1, 8448
2, 139260, Pitch_bend_c, 1, 8320
2, 139274, Pitch_bend_c, 1, 8192
2, 139280, Pitch_bend_c, 1, 8192
2, 139440, Note_off_c, 0, 74, 95
2, 139440, Pitch_bend_c, 1, 8192
2, 139440, Pitch_bend_c, 1, 8192
2, 139440, Note_off_c, 1, 69, 95
2, 139440, Note_on_c, 0, 67, 95
2, 139680, Note_off_c, 0, 67, 95
2, 139680, Pitch_bend_c, 1, 8192
2, 139680, Note_on_c, 1, 69, 95
2, 139723, Pitch_bend_c, 1, 8320
2, 139766, Pitch_bend_c, 1, 8448
2, 139809, Pitch_bend_c, 1, 8576
2, 139852, Pitch_bend_c, 1, 8704
2, 139895, Pitch_bend_c, 1, 8832
2, 139938, Pitch_bend_c, 1, 8960
2, 139981, Pitch_bend_c, 1, 9088
2, 140024, Pitch_bend_c, 1, 9216
2, 140067, Pitch_bend_c, 1, 9344
2, 140110, Pitch_bend_c, 1, 9472
2, 140153, Pitch_bend_c, 1, 9600
2, 140160, Pitch_bend_c, 1, 9600
2, 140640, Pitch_bend_c, 1, 9600
2, 140640, Pitch_bend_c, 1, 8192
2, 140640, Note_off_c, 1, 69, 95
2, 140640, Pitch_bend_c, 1, 9600
2, 140640, Note_on_c, 1, 69, 95
2, 140880, Pitch_bend_c, 1, 9600
2, 140901, Pitch_bend_c, 1, 9472
2, 140922, Pitch_bend_c, 1, 9344
2, 140943, Pitch_bend_c, 1, 9216
2, 140964, Pitch_bend_c, 1, 9088
2, 140985, Pitch_bend_c, 1, 8960
2, 141006, Pitch_bend_c, 1, 8832
2, 141027, Pitch_bend_c, 1, 8704
2, 141048, Pitch_bend_c, 1, 8576
2, 141069, Pitch_bend_c, 1, 8448
2, 141090, Pitch_bend_c, 1, 8320
2, 141111, Pitch_bend_c, 1, 8192
2, 141120, Pitch_bend_c, 1, 8192
2, 141360, Pitch_bend_c, 1, 8192
2, 141360, Pitch_bend_c, 1, 8192
2, 141360, Note_off_c, 1, 69, 95
2, 141360, Note_on_c, 0, 69, 79
2, 141480, Note_off_c, 0, 69, 79
2, 141480, Note_on_c, 0, 67, 54
2, 141720, Note_off_c, 0, 67, 54
2, 141720, Note_on_c, 0, 69, 79
2, 141840, Note_off_c, 0, 69, 79
2, 141840, Note_on_c, 0, 67, 54
2, 142080, Note_off_c, 0, 67, 54
2, 142080, End_track
3, 0, Start_track
3, 0, Pitch_bend_c, 2, 8192
3, 0, Control_c, 2, 7, 103
3, 0, Control_c, 2, 10, 63
3, 0, Control_c, 2, 93, 0
3, 0, Control_c, 2, 91, 23
3, 0, Control_c, 2, 95, 0
3, 0, Control_c, 2, 92, 0
3, 0, Control_c, 2, 11, 127
3, 0, Program_c, 2, 33
3, 0, Control_c, 3, 7, 103
3, 0, Control_c, 3, 10, 63
3, 0, Control_c, 3, 93, 0
3, 0, Control_c, 3, 91, 23
3, 0, Control_c, 3, 95, 0
3, 0, Control_c, 3, 92, 0
3, 0, Control_c, 3, 11, 127
3, 0, Program_c, 3, 33
3, 0, Note_on_c, 2, 40, 95
3, 960, Note_off_c, 2, 40, 95
3, 960, Note_on_c, 2, 40, 95
3, 1200, Note_off_c, 2, 40, 95
3, 1200, Note_on_c, 2, 38, 95
3, 1440, Note_off_c, 2, 38, 95
3, 1440, Note_on_c, 2, 40, 95
3, 1920, Note_off_c, 2, 40, 95
3, 2880, Note_on_c, 2, 33, 95
3, 2880, Note_on_c, 2, 28, 95
3, 2917, Note_off_c, 2, 33, 95
3, 2917, Note_off_c, 2, 28, 95
3, 3360, Note_on_c, 2, 31, 95
3, 3840, Note_off_c, 2, 31, 95
3, 3840, Note_on_c, 2, 28, 95
3, 4800, Note_off_c, 2, 28, 95
3, 4800, Note_on_c, 2, 40, 95
3, 5040, Note_off_c, 2, 40, 95
3, 5040, Note_on_c, 2, 38, 95
3, 5280, Note_off_c, 2, 38, 95
3, 5280, Note_on_c, 2, 40, 95
3, 5760, Note_off_c, 2, 40, 95
3, 6720, Note_on_c, 2, 33, 95
3, 6720, Note_on_c, 2, 28, 95
3, 6757, Note_off_c, 2, 33, 95
3, 6757, Note_off_c, 2, 28, 95
3, 7200, Note_on_c, 2, 31, 95
3, 7680, Note_off_c, 2, 31, 95
3, 7680, Note_on_c, 2, 28, 95
3, 8640, Note_off_c, 2, 28, 95
3, 8640, Note_on_c, 2, 40, 95
3, 8880, Note_off_c, 2, 40, 95
3, 8880, Note_on_c, 2, 38, 95
3, 9120, Note_off_c, 2, 38, 95
3, 9120, Note_on_c, 2, 40, 95
3, 9600, Note_off_c, 2, 40, 95
3, 10560, Note_on_c, 2, 33, 95
3, 10560, Note_on_c, 2, 28, 95
3, 10597, Note_off_c, 2, 33, 95
3, 10597, Note_off_c, 2, 28, 95
3, 11040, Note_on_c, 2, 31, 95
3, 11520, Note_off_c, 2, 31, 95
3, 11520, Note_on_c, 2, 28, 95
3, 12480, Note_off_c, 2, 28, 95
3, 12480, Note_on_c, 2, 40, 95
3, 12720, Note_off_c, 2, 40, 95
3, 12720, Note_on_c, 2, 38, 95
3, 12960, Note_off_c, 2, 38, 95
3, 12960, Note_on_c, 2, 40, 95
3, 13440, Note_off_c, 2, 40, 95
3, 14400, Note_on_c, 2, 33, 95
3, 14400, Note_on_c, 2, 28, 95
3, 14437, Note_off_c, 2, 33, 95
3, 14437, Note_off_c, 2, 28, 95
3, 14880, Note_on_c, 2, 31, 95
3, 15360, Note_off_c, 2, 31, 95
3, 15360, Note_on_c, 2, 28, 95
3, 16320, Note_off_c, 2, 28, 95
3, 16320, Note_on_c, 2, 40, 95
3, 16560, Note_off_c, 2, 40, 95
3, 16560, Note_on_c, 2, 38, 95
3, 16800, Note_off_c, 2, 38, 95
3, 16800, Note_on_c, 2, 40, 95
3, 17280, Note_off_c, 2, 40, 95
3, 18240, Note_on_c, 2, 33, 95
3, 18240, Note_on_c, 2, 28, 95
3, 18277, Note_off_c, 2, 33, 95
3, 18277, Note_off_c, 2, 28, 95
3, 18720, Note_on_c, 2, 31, 95
3, 19200, Note_off_c, 2, 31, 95
3, 19200, Note_on_c, 2, 28, 95
3, 20160, Note_off_c, 2, 28, 95
3, 20160, Note_on_c, 2, 40, 95
3, 20400, Note_off_c, 2, 40, 95
3, 20400, Note_on_c, 2, 38, 95
3, 20640, Note_off_c, 2, 38, 95
3, 20640, Note_on_c, 2, 40, 95
3, 21120, Note_off_c, 2, 40, 95
3, 22080, Note_on_c, 2, 33, 95
3, 22080, Note_on_c, 2, 28, 95
3, 22117, Note_off_c, 2, 33, 95
3, 22117, Note_off_c, 2, 28, 95
3, 22560, Note_on_c, 2, 31, 95
3, 23040, Note_off_c, 2, 31, 95
3, 23040, Note_on_c, 2, 28, 95
3, 24000, Note_off_c, 2, 28, 95
3, 24000, Note_on_c, 2, 40, 95
3, 24240, Note_off_c, 2, 40, 95
3, 24240, Note_on_c, 2, 38, 95
3, 24480, Note_off_c, 2, 38, 95
3, 24480, Note_on_c, 2, 40, 95
3, 24960, Note_off_c, 2, 40, 95
3, 25920, Note_on_c, 2, 33, 95
3, 25920, Note_on_c, 2, 28, 95
3, 25957, Note_off_c, 2, 33, 95
3, 25957, Note_off_c, 2, 28, 95
3, 26400, Note_on_c, 2, 31, 95
3, 26880, Note_off_c, 2, 31, 95
3, 26880, Note_on_c, 2, 28, 95
3, 27840, Note_off_c, 2, 28, 95
3, 27840, Note_on_c, 2, 40, 95
3, 28080, Note_off_c, 2, 40, 95
3, 28080, Note_on_c, 2, 38, 95
3, 28320, Note_off_c, 2, 38, 95
3, 28320, Note_on_c, 2, 40, 95
3, 28800, Note_off_c, 2, 40, 95
3, 29760, Note_on_c, 2, 33, 95
3, 29760, Note_on_c, 2, 28, 95
3, 29797, Note_off_c, 2, 33, 95
3, 29797, Note_off_c, 2, 28, 95
3, 30240, Note_on_c, 2, 31, 95
3, 30720, Note_off_c, 2, 31, 95
3, 30720, Note_on_c, 2, 28, 95
3, 31680, Note_off_c, 2, 28, 95
3, 31680, Note_on_c, 2, 40, 95
3, 31920, Note_off_c, 2, 40, 95
3, 31920, Note_on_c, 2, 38, 95
3, 32160, Note_off_c, 2, 38, 95
3, 32160, Note_on_c, 2, 40, 95
3, 32640, Note_off_c, 2, 40, 95
3, 33600, Note_on_c, 2, 33, 95
3, 33600, Note_on_c, 2, 28, 95
3, 33637, Note_off_c, 2, 33, 95
3, 33637, Note_off_c, 2, 28, 95
3, 34080, Note_on_c, 2, 31, 95
3, 34560, Note_off_c, 2, 31, 95
3, 34560, Note_on_c, 2, 28, 95
3, 35520, Note_off_c, 2, 28, 95
3, 35520, Note_on_c, 2, 40, 95
3, 35760, Note_off_c, 2, 40, 95
3, 35760, Note_on_c, 2, 38, 95
3, 36000, Note_off_c, 2, 38, 95
3, 36000, Note_on_c, 2, 40, 95
3, 36480, Note_off_c, 2, 40, 95
3, 37440, Note_on_c, 2, 33, 95
3, 37440, Note_on_c, 2, 28, 95
3, 37477, Note_off_c, 2, 33, 95
3, 37477, Note_off_c, 2, 28, 95
3, 37920, Note_on_c, 2, 31, 95
3, 38400, Note_off_c, 2, 31, 95
3, 38400, Note_on_c, 2, 28, 95
3, 39360, Note_off_c, 2, 28, 95
3, 39360, Note_on_c, 2, 40, 95
3, 39600, Note_off_c, 2, 40, 95
3, 39600, Note_on_c, 2, 38, 95
3, 39840, Note_off_c, 2, 38, 95
3, 39840, Note_on_c, 2, 40, 95
3, 40320, Note_off_c, 2, 40, 95
3, 41280, Note_on_c, 2, 33, 95
3, 41280, Note_on_c, 2, 28, 95
3, 41317, Note_off_c, 2, 33, 95
3, 41317, Note_off_c, 2, 28, 95
3, 41760, Note_on_c, 2, 31, 95
3, 42240, Note_off_c, 2, 31, 95
3, 42240, Note_on_c, 2, 28, 95
3, 43200, Note_off_c, 2, 28, 95
3, 43200, Note_on_c, 2, 40, 95
3, 43440, Note_off_c, 2, 40, 95
3, 43440, Note_on_c, 2, 38, 95
3, 43680, Note_off_c, 2, 38, 95
3, 43680, Note_on_c, 2, 40, 95
3, 44160, Note_off_c, 2, 40, 95
3, 45120, Note_on_c, 2, 33, 95
3, 45120, Note_on_c, 2, 28, 95
3, 45157, Note_off_c, 2, 33, 95
3, 45157, Note_off_c, 2, 28, 95
3, 45600, Note_on_c, 2, 31, 95
3, 46080, Note_off_c, 2, 31, 95
3, 46080, Note_on_c, 2, 28, 95
3, 47040, Note_off_c, 2, 28, 95
3, 47040, Note_on_c, 2, 40, 95
3, 47280, Note_off_c, 2, 40, 95
3, 47280, Note_on_c, 2, 38, 95
3, 47520, Note_off_c, 2, 38, 95
3, 47520, Note_on_c, 2, 40, 95
3, 48000, Note_off_c, 2, 40, 95
3, 48960, Note_on_c, 2, 33, 95
3, 48960, Note_on_c, 2, 28, 95
3, 48997, Note_off_c, 2, 33, 95
3, 48997, Note_off_c, 2, 28, 95
3, 49440, Note_on_c, 2, 31, 95
3, 49920, Note_off_c, 2, 31, 95
3, 49920, Note_on_c, 2, 28, 95
3, 50880, Note_off_c, 2, 28, 95
3, 50880, Note_on_c, 2, 40, 95
3, 51120, Note_off_c, 2, 40, 95
3, 51120, Note_on_c, 2, 38, 95
3, 51360, Note_off_c, 2, 38, 95
3, 51360, Note_on_c, 2, 40, 95
3, 51840, Note_off_c, 2, 40, 95
3, 52800, Note_on_c, 2, 33, 95
3, 52800, Note_on_c, 2, 28, 95
3, 52837, Note_off_c, 2, 33, 95
3, 52837, Note_off_c, 2, 28, 95
3, 53280, Note_on_c, 2, 31, 95
3, 53760, Note_off_c, 2, 31, 95
3, 53760, Note_on_c, 2, 33, 95
3, 54480, Note_off_c, 2, 33, 95
3, 54480, Note_on_c, 2, 33, 95
3, 54720, Note_off_c, 2, 33, 95
3, 54720, Note_on_c, 2, 33, 95
3, 54960, Note_off_c, 2, 33, 95
3, 54960, Note_on_c, 2, 31, 95
3, 55200, Note_off_c, 2, 31, 95
3, 55200, Note_on_c, 2, 33, 95
3, 55440, Note_off_c, 2, 33, 95
3, 55440, Note_on_c, 2, 31, 95
3, 55680, Note_off_c, 2, 31, 95
3, 55680, Note_on_c, 2, 33, 95
3, 55920, Note_off_c, 2, 33, 95
3, 55920, Note_on_c, 2, 31, 95
3, 56400, Note_off_c, 2, 31, 95
3, 57600, Note_on_c, 2, 33, 95
3, 58320, Note_off_c, 2, 33, 95
3, 58320, Note_on_c, 2, 33, 95
3, 58560, Note_off_c, 2, 33, 95
3, 58560, Note_on_c, 2, 33, 95
3, 58800, Note_off_c, 2, 33, 95
3, 58800, Note_on_c, 2, 31, 95
3, 59040, Note_off_c, 2, 31, 95
3, 59040, Note_on_c, 2, 33, 95
3, 59280, Note_off_c, 2, 33, 95
3, 59280, Note_on_c, 2, 31, 95
3, 59520, Note_off_c, 2, 31, 95
3, 59520, Note_on_c, 2, 33, 95
3, 59760, Note_off_c, 2, 33, 95
3, 59760, Note_on_c, 2, 31, 95
3, 60240, Note_off_c, 2, 31, 95
3, 61440, Note_on_c, 2, 28, 95
3, 62400, Note_off_c, 2, 28, 95
3, 62400, Note_on_c, 2, 40, 95
3, 62640, Note_off_c, 2, 40, 95
3, 62640, Note_on_c, 2, 38, 95
3, 62880, Note_off_c, 2, 38, 95
3, 62880, Note_on_c, 2, 40, 95
3, 63360, Note_off_c, 2, 40, 95
3, 64320, Note_on_c, 2, 33, 95
3, 64320, Note_on_c, 2, 28, 95
3, 64357, Note_off_c, 2, 33, 95
3, 64357, Note_off_c, 2, 28, 95
3, 64800, Note_on_c, 2, 31, 95
3, 65280, Note_off_c, 2, 31, 95
3, 65280, Note_on_c, 2, 28, 95
3, 66240, Note_off_c, 2, 28, 95
3, 66240, Note_on_c, 2, 40, 95
3, 66480, Note_off_c, 2, 40, 95
3, 66480, Note_on_c, 2, 38, 95
3, 66720, Note_off_c, 2, 38, 95
3, 66720, Note_on_c, 2, 40, 95
3, 67200, Note_off_c, 2, 40, 95
3, 68160, Note_on_c, 2, 33, 95
3, 68160, Note_on_c, 2, 28, 95
3, 68197, Note_off_c, 2, 33, 95
3, 68197, Note_off_c, 2, 28, 95
3, 68640, Note_on_c, 2, 31, 95
3, 69120, Note_off_c, 2, 31, 95
3, 69120, Note_on_c, 2, 35, 95
3, 69840, Note_off_c, 2, 35, 95
3, 69840, Note_on_c, 2, 35, 95
3, 70080, Note_off_c, 2, 35, 95
3, 70080, Note_on_c, 2, 35, 95
3, 70320, Note_off_c, 2, 35, 95
3, 70320, Note_on_c, 2, 33, 95
3, 70560, Note_off_c, 2, 33, 95
3, 70560, Note_on_c, 2, 35, 95
3, 70800, Note_off_c, 2, 35, 95
3, 70800, Note_on_c, 2, 33, 95
3, 71040, Note_off_c, 2, 33, 95
3, 71040, Note_on_c, 2, 35, 95
3, 71280, Note_off_c, 2, 35, 95
3, 71280, Note_on_c, 2, 33, 95
3, 71760, Note_off_c, 2, 33, 95
3, 72960, Note_on_c, 2, 33, 95
3, 73680, Note_off_c, 2, 33, 95
3, 73680, Note_on_c, 2, 33, 95
3, 73920, Note_off_c, 2, 33, 95
3, 73920, Note_on_c, 2, 33, 95
3, 74160, Note_off_c, 2, 33, 95
3, 74160, Note_on_c, 2, 31, 95
3, 74400, Note_off_c, 2, 31, 95
3, 74400, Note_on_c, 2, 33, 95
3, 74640, Note_off_c, 2, 33, 95
3, 74640, Note_on_c, 2, 31, 95
3, 74880, Note_off_c, 2, 31, 95
3, 74880, Note_on_c, 2, 33, 95
3, 75120, Note_off_c, 2, 33, 95
3, 75120, Note_on_c, 2, 31, 95
3, 75600, Note_off_c, 2, 31, 95
3, 76800, Note_on_c, 2, 28, 95
3, 77760, Note_off_c, 2, 28, 95
3, 77760, Note_on_c, 2, 40, 95
3, 78000, Note_off_c, 2, 40, 95
3, 78000, Note_on_c, 2, 38, 95
3, 78240, Note_off_c, 2, 38, 95
3, 78240, Note_on_c, 2, 40, 95
3, 78720, Note_off_c, 2, 40, 95
3, 79680, Note_on_c, 2, 33, 95
3, 79680, Note_on_c, 2, 28, 95
3, 79717, Note_off_c, 2, 33, 95
3, 79717, Note_off_c, 2, 28, 95
3, 80160, Note_on_c, 2, 31, 95
3, 80640, Note_off_c, 2, 31, 95
3, 80640, Note_on_c, 2, 28, 95
3, 81600, Note_off_c, 2, 28, 95
3, 81600, Note_on_c, 2, 40, 95
3, 81840, Note_off_c, 2, 40, 95
3, 81840, Note_on_c, 2, 38, 95
3, 82080, Note_off_c, 2, 38, 95
3, 82080, Note_on_c, 2, 40, 95
3, 82560, Note_off_c, 2, 40, 95
3, 83520, Note_on_c, 2, 33, 95
3, 83520, Note_on_c, 2, 28, 95
3, 83557, Note_off_c, 2, 33, 95
3, 83557, Note_off_c, 2, 28, 95
3, 84000, Note_on_c, 2, 31, 95
3, 84480, Note_off_c, 2, 31, 95
3, 84480, Note_on_c, 2, 35, 95
3, 92160, Note_off_c, 2, 35, 95
3, 92160, Note_on_c, 2, 35, 95
3, 99840, Note_off_c, 2, 35, 95
3, 99840, Note_on_c, 2, 33, 95
3, 100560, Note_off_c, 2, 33, 95
3, 100560, Note_on_c, 2, 33, 95
3, 100800, Note_off_c, 2, 33, 95
3, 100800, Note_on_c, 2, 33, 95
3, 101040, Note_off_c, 2, 33, 95
3, 101040, Note_on_c, 2, 31, 95
3, 101280, Note_off_c, 2, 31, 95
3, 101280, Note_on_c, 2, 33, 95
3, 101520, Note_off_c, 2, 33, 95
3, 101520, Note_on_c, 2, 31, 95
3, 101760, Note_off_c, 2, 31, 95
3, 101760, Note_on_c, 2, 33, 95
3, 102000, Note_off_c, 2, 33, 95
3, 102000, Note_on_c, 2, 31, 95
3, 102480, Note_off_c, 2, 31, 95
3, 103680, Note_on_c, 2, 33, 95
3, 104400, Note_off_c, 2, 33, 95
3, 104400, Note_on_c, 2, 33, 95
3, 104640, Note_off_c, 2, 33, 95
3, 104640, Note_on_c, 2, 33, 95
3, 104880, Note_off_c, 2, 33, 95
3, 104880, Note_on_c, 2, 31, 95
3, 105120, Note_off_c, 2, 31, 95
3, 105120, Note_on_c, 2, 33, 95
3, 105360, Note_off_c, 2, 33, 95
3, 105360, Note_on_c, 2, 31, 95
3, 105600, Note_off_c, 2, 31, 95
3, 105600, Note_on_c, 2, 33, 95
3, 105840, Note_off_c, 2, 33, 95
3, 105840, Note_on_c, 2, 31, 95
3, 106320, Note_off_c, 2, 31, 95
3, 107520, Note_on_c, 2, 28, 95
3, 108480, Note_off_c, 2, 28, 95
3, 108480, Note_on_c, 2, 40, 95
3, 108720, Note_off_c, 2, 40, 95
3, 108720, Note_on_c, 2, 38, 95
3, 108960, Note_off_c, 2, 38, 95
3, 108960, Note_on_c, 2, 40, 95
3, 109440, Note_off_c, 2, 40, 95
3, 110400, Note_on_c, 2, 33, 95
3, 110400, Note_on_c, 2, 28, 95
3, 110437, Note_off_c, 2, 33, 95
3, 110437, Note_off_c, 2, 28, 95
3, 110880, Note_on_c, 2, 31, 95
3, 111360, Note_off_c, 2, 31, 95
3, 111360, Note_on_c, 2, 28, 95
3, 112320, Note_off_c, 2, 28, 95
3, 112320, Note_on_c, 2, 40, 95
3, 112560, Note_off_c, 2, 40, 95
3, 112560, Note_on_c, 2, 38, 95
3, 112800, Note_off_c, 2, 38, 95
3, 112800, Note_on_c, 2, 40, 95
3, 113280, Note_off_c, 2, 40, 95
3, 114240, Note_on_c, 2, 33, 95
3, 114240, Note_on_c, 2, 28, 95
3, 114277, Note_off_c, 2, 33, 95
3, 114277, Note_off_c, 2, 28, 95
3, 114720, Note_on_c, 2, 31, 95
3, 115200, Note_off_c, 2, 31, 95
3, 115200, Note_on_c, 2, 35, 95
3, 115920, Note_off_c, 2, 35, 95
3, 115920, Note_on_c, 2, 35, 95
3, 116160, Note_off_c, 2, 35, 95
3, 116160, Note_on_c, 2, 35, 95
3, 116400, Note_off_c, 2, 35, 95
3, 116400, Note_on_c, 2, 33, 95
3, 116640, Note_off_c, 2, 33, 95
3, 116640, Note_on_c, 2, 35, 95
3, 116880, Note_off_c, 2, 35, 95
3, 116880, Note_on_c, 2, 33, 95
3, 117120, Note_off_c, 2, 33, 95
3, 117120, Note_on_c, 2, 35, 95
3, 117360, Note_off_c, 2, 35, 95
3, 117360, Note_on_c, 2, 33, 95
3, 117840, Note_off_c, 2, 33, 95
3, 119040, Note_on_c, 2, 33, 95
3, 119760, Note_off_c, 2, 33, 95
3, 119760, Note_on_c, 2, 33, 95
3, 120000, Note_off_c, 2, 33, 95
3, 120000, Note_on_c, 2, 33, 95
3, 120240, Note_off_c, 2, 33, 95
3, 120240, Note_on_c, 2, 31, 95
3, 120480, Note_off_c, 2, 31, 95
3, 120480, Note_on_c, 2, 33, 95
3, 120720, Note_off_c, 2, 33, 95
3, 120720, Note_on_c, 2, 31, 95
3, 120960, Note_off_c, 2, 31, 95
3, 120960, Note_on_c, 2, 33, 95
3, 121200, Note_off_c, 2, 33, 95
3, 121200, Note_on_c, 2, 31, 95
3, 121680, Note_off_c, 2, 31, 95
3, 122880, Note_on_c, 2, 28, 95
3, 123840, Note_off_c, 2, 28, 95
3, 123840, Note_on_c, 2, 28, 95
3, 124080, Note_off_c, 2, 28, 95
3, 124320, Note_on_c, 2, 28, 95
3, 124560, Note_off_c, 2, 28, 95
3, 124560, Note_on_c, 2, 28, 95
3, 124800, Note_off_c, 2, 28, 95
3, 125040, Note_on_c, 2, 28, 95
3, 125280, Note_off_c, 2, 28, 95
3, 125520, Note_on_c, 2, 28, 95
3, 125760, Note_off_c, 2, 28, 95
3, 125760, Note_on_c, 2, 28, 95
3, 126000, Note_off_c, 2, 28, 95
3, 126000, Note_on_c, 2, 28, 95
3, 126240, Note_off_c, 2, 28, 95
3, 126240, Note_on_c, 2, 28, 95
3, 126720, Note_off_c, 2, 28, 95
3, 126720, Note_on_c, 2, 28, 95
3, 126960, Note_off_c, 2, 28, 95
3, 127200, Note_on_c, 2, 28, 95
3, 127440, Note_off_c, 2, 28, 95
3, 127440, Note_on_c, 2, 28, 95
3, 127680, Note_off_c, 2, 28, 95
3, 127680, Note_on_c, 2, 35, 95
3, 128160, Note_off_c, 2, 35, 95
3, 128160, Note_on_c, 2, 35, 95
3, 128640, Note_off_c, 2, 35, 95
3, 128640, Note_on_c, 2, 35, 95
3, 129120, Note_off_c, 2, 35, 95
3, 129120, Note_on_c, 2, 35, 95
3, 129600, Note_off_c, 2, 35, 95
3, 129600, Note_on_c, 2, 35, 95
3, 130080, Note_off_c, 2, 35, 95
3, 130080, Note_on_c, 2, 35, 95
3, 130320, Note_off_c, 2, 35, 95
3, 130320, Note_on_c, 2, 35, 95
3, 130560, Note_off_c, 2, 35, 95
3, 130560, Note_on_c, 2, 28, 95
3, 131520, Note_off_c, 2, 28, 95
3, 131520, Note_on_c, 2, 28, 95
3, 132480, Note_off_c, 2, 28, 95
3, 132480, Note_on_c, 2, 28, 95
3, 133440, Note_off_c, 2, 28, 95
3, 133440, Note_on_c, 2, 28, 95
3, 133920, Note_off_c, 2, 28, 95
3, 133920, Note_on_c, 2, 31, 95
3, 134400, Note_off_c, 2, 31, 95
3, 134400, Note_on_c, 2, 28, 95
3, 135360, Note_off_c, 2, 28, 95
3, 135360, Note_on_c, 2, 28, 95
3, 136320, Note_off_c, 2, 28, 95
3, 136320, Note_on_c, 2, 28, 95
3, 137280, Note_off_c, 2, 28, 95
3, 137280, Note_on_c, 2, 28, 95
3, 137760, Note_off_c, 2, 28, 95
3, 137760, Note_on_c, 2, 31, 95
3, 138240, Note_off_c, 2, 31, 95
3, 138240, Note_on_c, 2, 28, 95
3, 139200, Note_off_c, 2, 28, 95
3, 139200, Note_on_c, 2, 28, 95
3, 140160, Note_off_c, 2, 28, 95
3, 140160, Note_on_c, 2, 28, 95
3, 141120, Note_off_c, 2, 28, 95
3, 141120, Note_on_c, 2, 28, 95
3, 141600, Note_off_c, 2, 28, 95
3, 141600, Note_on_c, 2, 31, 95
3, 142080, Note_off_c, 2, 31, 95
3, 142080, Note_on_c, 2, 28, 95
3, 143040, Note_off_c, 2, 28, 95
3, 143040, Note_on_c, 2, 28, 95
3, 144000, Note_off_c, 2, 28, 95
3, 144000, Note_on_c, 2, 28, 95
3, 144960, Note_off_c, 2, 28, 95
3, 144960, Note_on_c, 2, 28, 95
3, 145440, Note_off_c, 2, 28, 95
3, 145440, Note_on_c, 2, 31, 95
3, 145920, Note_off_c, 2, 31, 95
3, 145920, End_track
4, 0, Start_track
4, 0, Pitch_bend_c, 4, 8192
4, 0, Control_c, 4, 7, 103
4, 0, Control_c, 4, 10, 63
4, 0, Control_c, 4, 93, 0
4, 0, Control_c, 4, 91, 0
4, 0, Control_c, 4, 95, 0
4, 0, Control_c, 4, 92, 0
4, 0, Control_c, 4, 11, 127
4, 0, Program_c, 4, 30
4, 0, Control_c, 5, 7, 103
4, 0, Control_c, 5, 10, 63
4, 0, Control_c, 5, 93, 0
4, 0, Control_c, 5, 91, 0
4, 0, Control_c, 5, 95, 0
4, 0, Control_c, 5, 92, 0
4, 0, Control_c, 5, 11, 127
4, 0, Program_c, 5, 30
4, 130560, Note_on_c, 4, 52, 95
4, 130560, Note_on_c, 4, 47, 95
4, 130560, Note_on_c, 4, 40, 95
4, 131520, Note_off_c, 4, 52, 95
4, 131520, Note_off_c, 4, 47, 95
4, 131520, Note_off_c, 4, 40, 95
4, 131520, Note_on_c, 4, 52, 95
4, 131520, Note_on_c, 4, 47, 95
4, 131520, Note_on_c, 4, 40, 95
4, 132480, Note_off_c, 4, 52, 95
4, 132480, Note_off_c, 4, 47, 95
4, 132480, Note_off_c, 4, 40, 95
4, 132480, Note_on_c, 4, 52, 95
4, 132480, Note_on_c, 4, 47, 95
4, 132480, Note_on_c, 4, 40, 95
4, 133440, Note_off_c, 4, 52, 95
4, 133440, Note_off_c, 4, 47, 95
4, 133440, Note_off_c, 4, 40, 95
4, 133440, Note_on_c, 4, 52, 95
4, 133440, Note_on_c, 4, 47, 95
4, 133440, Note_on_c, 4, 40, 95
4, 133920, Note_off_c, 4, 52, 95
4, 133920, Note_off_c, 4, 47, 95
4, 133920, Note_off_c, 4, 40, 95
4, 133920, Note_on_c, 4, 55, 95
4, 133920, Note_on_c, 4, 50, 95
4, 133920, Note_on_c, 4, 43, 95
4, 134400, Note_off_c, 4, 55, 95
4, 134400, Note_off_c, 4, 50, 95
4, 134400, Note_off_c, 4, 43, 95
4, 134400, Note_on_c, 4, 52, 95
4, 134400, Note_on_c, 4, 47, 95
4, 134400, Note_on_c, 4, 40, 95
4, 135360, Note_off_c, 4, 52, 95
4, 135360, Note_off_c, 4, 47, 95
4, 135360, Note_off_c, 4, 40, 95
4, 135360, Note_on_c, 4, 52, 95
4, 135360, Note_on_c, 4, 47, 95
4, 135360, Note_on_c, 4, 40, 95
4, 136320, Note_off_c, 4, 52, 95
4, 136320, Note_off_c, 4, 47, 95
4, 136320, Note_off_c, 4, 40, 95
4, 136320, Note_on_c, 4, 52, 95
4, 136320, Note_on_c, 4, 47, 95
4, 136320, Note_on_c, 4, 40, 95
4, 137280, Note_off_c, 4, 52, 95
4, 137280, Note_off_c, 4, 47, 95
4, 137280, Note_off_c, 4, 40, 95
4, 137280, Note_on_c, 4, 52, 95
4, 137280, Note_on_c, 4, 47, 95
4, 137280, Note_on_c, 4, 40, 95
4, 137760, Note_off_c, 4, 52, 95
4, 137760, Note_off_c, 4, 47, 95
4, 137760, Note_off_c, 4, 40, 95
4, 137760, Note_on_c, 4, 55, 95
4, 137760, Note_on_c, 4, 50, 95
4, 137760, Note_on_c, 4, 43, 95
4, 138240, Note_off_c, 4, 55, 95
4, 138240, Note_off_c, 4, 50, 95
4, 138240, Note_off_c, 4, 43, 95
4, 138240, Note_on_c, 4, 52, 95
4, 138240, Note_on_c, 4, 47, 95
4, 138240, Note_on_c, 4, 40, 95
4, 139200, Note_off_c, 4, 52, 95
4, 139200, Note_off_c, 4, 47, 95
4, 139200, Note_off_c, 4, 40, 95
4, 139200, Note_on_c, 4, 52, 95
4, 139200, Note_on_c, 4, 47, 95
4, 139200, Note_on_c, 4, 40, 95
4, 140160, Note_off_c, 4, 52, 95
4, 140160, Note_off_c, 4, 47, 95
4, 140160, Note_off_c, 4, 40, 95
4, 140160, Note_on_c, 4, 52, 95
4, 140160, Note_on_c, 4, 47, 95
4, 140160, Note_on_c, 4, 40, 95
4, 141120, Note_off_c, 4, 52, 95
4, 141120, Note_off_c, 4, 47, 95
4, 141120, Note_off_c, 4, 40, 95
4, 141120, Note_on_c, 4, 52, 95
4, 141120, Note_on_c, 4, 47, 95
4, 141120, Note_on_c, 4, 40, 95
4, 141600, Note_off_c, 4, 52, 95
4, 141600, Note_off_c, 4, 47, 95
4, 141600, Note_off_c, 4, 40, 95
4, 141600, Note_on_c, 4, 55, 95
4, 141600, Note_on_c, 4, 50, 95
4, 141600, Note_on_c, 4, 43, 95
4, 142080, Note_off_c, 4, 55, 95
4, 142080, Note_off_c, 4, 50, 95
4, 142080, Note_off_c, 4, 43, 95
4, 142080, Note_on_c, 4, 52, 95
4, 142080, Note_on_c, 4, 47, 95
4, 142080, Note_on_c, 4, 40, 95
4, 143040, Note_off_c, 4, 52, 95
4, 143040, Note_off_c, 4, 47, 95
4, 143040, Note_off_c, 4, 40, 95
4, 143040, Note_on_c, 4, 52, 95
4, 143040, Note_on_c, 4, 47, 95
4, 143040, Note_on_c, 4, 40, 95
4, 144000, Note_off_c, 4, 52, 95
4, 144000, Note_off_c, 4, 47, 95
4, 144000, Note_off_c, 4, 40, 95
4, 144000, Note_on_c, 4, 52, 95
4, 144000, Note_on_c, 4, 47, 95
4, 144000, Note_on_c, 4, 40, 95
4, 144960, Note_off_c, 4, 52, 95
4, 144960, Note_off_c, 4, 47, 95
4, 144960, Note_off_c, 4, 40, 95
4, 144960, Note_on_c, 4, 52, 95
4, 144960, Note_on_c, 4, 47, 95
4, 144960, Note_on_c, 4, 40, 95
4, 145440, Note_off_c, 4, 52, 95
4, 145440, Note_off_c, 4, 47, 95
4, 145440, Note_off_c, 4, 40, 95
4, 145440, Note_on_c, 4, 55, 95
4, 145440, Note_on_c, 4, 50, 95
4, 145440, Note_on_c, 4, 43, 95
4, 145920, Note_off_c, 4, 55, 95
4, 145920, Note_off_c, 4, 50, 95
4, 145920, Note_off_c, 4, 43, 95
4, 145920, End_track
5, 0, Start_track
5, 0, Pitch_bend_c, 9, 8192
5, 0, Control_c, 9, 7, 127
5, 0, Control_c, 9, 10, 63
5, 0, Control_c, 9, 93, 0
5, 0, Control_c, 9, 91, 15
5, 0, Control_c, 9, 95, 0
5, 0, Control_c, 9, 92, 0
5, 0, Control_c, 9, 11, 127
5, 0, Program_c, 9, 0
5, 7680, Note_on_c, 9, 44, 127
5, 7680, Note_on_c, 9, 36, 79
5, 8640, Note_off_c, 9, 44, 127
5, 8640, Note_off_c, 9, 36, 79
5, 8640, Note_on_c, 9, 44, 127
5, 8640, Note_on_c, 9, 40, 79
5, 9600, Note_off_c, 9, 44, 127
5, 9600, Note_off_c, 9, 40, 79
5, 9600, Note_on_c, 9, 44, 127
5, 9600, Note_on_c, 9, 36, 79
5, 10080, Note_off_c, 9, 44, 127
5, 10080, Note_off_c, 9, 36, 79
5, 10080, Note_on_c, 9, 44, 127
5, 10080, Note_on_c, 9, 36, 79
5, 10560, Note_off_c, 9, 44, 127
5, 10560, Note_off_c, 9, 36, 79
5, 10560, Note_on_c, 9, 44, 127
5, 10560, Note_on_c, 9, 40, 79
5, 11040, Note_off_c, 9, 44, 127
5, 11040, Note_off_c, 9, 40, 79
5, 11040, Note_on_c, 9, 42, 127
5, 11040, Note_on_c, 9, 42, 79
5, 11520, Note_off_c, 9, 42, 127
5, 11520, Note_off_c, 9, 42, 79
5, 11520, Note_on_c, 9, 44, 127
5, 11520, Note_on_c, 9, 36, 79
5, 12480, Note_off_c, 9, 44, 127
5, 12480, Note_off_c, 9, 36, 79
5, 12480, Note_on_c, 9, 44, 127
5, 12480, Note_on_c, 9, 40, 79
5, 13440, Note_off_c, 9, 44, 127
5, 13440, Note_off_c, 9, 40, 79
5, 13440, Note_on_c, 9, 44, 127
5, 13440, Note_on_c, 9, 36, 79
5, 13920, Note_off_c, 9, 44, 127
5, 13920, Note_off_c, 9, 36, 79
5, 13920, Note_on_c, 9, 44, 127
5, 13920, Note_on_c, 9, 36, 79
5, 14400, Note_off_c, 9, 44, 127
5, 14400, Note_off_c, 9, 36, 79
5, 14400, Note_on_c, 9, 44, 127
5, 14400, Note_on_c, 9, 40, 79
5, 14880, Note_off_c, 9, 44, 127
5, 14880, Note_off_c, 9, 40, 79
5, 14880, Note_on_c, 9, 42, 127
5, 14880, Note_on_c, 9, 42, 79
5, 15360, Note_off_c, 9, 42, 127
5, 15360, Note_off_c, 9, 42, 79
5, 15360, Note_on_c, 9, 44, 127
5, 15360, Note_on_c, 9, 36, 79
5, 16320, Note_off_c, 9, 44, 127
5, 16320, Note_off_c, 9, 36, 79
5, 16320, Note_on_c, 9, 44, 127
5, 16320, Note_on_c, 9, 40, 79
5, 17280, Note_off_c, 9, 44, 127
5, 17280, Note_off_c, 9, 40, 79
5, 17280, Note_on_c, 9, 44, 127
5, 17280, Note_on_c, 9, 36, 79
5, 17760, Note_off_c, 9, 44, 127
5, 17760, Note_off_c, 9, 36, 79
5, 17760, Note_on_c, 9, 44, 127
5, 17760, Note_on_c, 9, 36, 79
5, 18240, Note_off_c, 9, 44, 127
5, 18240, Note_off_c, 9, 36, 79
5, 18240, Note_on_c, 9, 44, 127
5, 18240, Note_on_c, 9, 40, 79
5, 18720, Note_off_c, 9, 44, 127
5, 18720, Note_off_c, 9, 40, 79
5, 18720, Note_on_c, 9, 42, 127
5, 18720, Note_on_c, 9, 42, 79
5, 19200, Note_off_c, 9, 42, 127
5, 19200, Note_off_c, 9, 42, 79
5, 19200, Note_on_c, 9, 44, 127
5, 19200, Note_on_c, 9, 36, 79
5, 20160, Note_off_c, 9, 44, 127
5, 20160, Note_off_c, 9, 36, 79
5, 20160, Note_on_c, 9, 44, 127
5, 20160, Note_on_c, 9, 40, 79
5, 21120, Note_off_c, 9, 44, 127
5, 21120, Note_off_c, 9, 40, 79
5, 21120, Note_on_c, 9, 44, 127
5, 21120, Note_on_c, 9, 36, 79
5, 21600, Note_off_c, 9, 44, 127
5, 21600, Note_off_c, 9, 36, 79
5, 21600, Note_on_c, 9, 44, 127
5, 21600, Note_on_c, 9, 36, 79
5, 22080, Note_off_c, 9, 44, 127
5, 22080, Note_off_c, 9, 36, 79
5, 22080, Note_on_c, 9, 44, 127
5, 22080, Note_on_c, 9, 40, 79
5, 22560, Note_off_c, 9, 44, 127
5, 22560, Note_off_c, 9, 40, 79
5, 22560, Note_on_c, 9, 42, 127
5, 22560, Note_on_c, 9, 42, 79
5, 23040, Note_off_c, 9, 42, 127
5, 23040, Note_off_c, 9, 42, 79
5, 23040, Note_on_c, 9, 44, 127
5, 23040, Note_on_c, 9, 36, 79
5, 24000, Note_off_c, 9, 44, 127
5, 24000, Note_off_c, 9, 36, 79
5, 24000, Note_on_c, 9, 44, 127
5, 24000, Note_on_c, 9, 40, 79
5, 24960, Note_off_c, 9, 44, 127
5, 24960, Note_off_c, 9, 40, 79
5, 24960, Note_on_c, 9, 44, 127
5, 24960, Note_on_c, 9, 36, 79
5, 25440, Note_off_c, 9, 44, 127
5, 25440, Note_off_c, 9, 36, 79
5, 25440, Note_on_c, 9, 44, 127
5, 25440, Note_on_c, 9, 36, 79
5, 25920, Note_off_c, 9, 44, 127
5, 25920, Note_off_c, 9, 36, 79
5, 25920, Note_on_c, 9, 44, 127
5, 25920, Note_on_c, 9, 40, 79
5, 26400, Note_off_c, 9, 44, 127
5, 26400, Note_off_c, 9, 40, 79
5, 26400, Note_on_c, 9, 42, 127
5, 26400, Note_on_c, 9, 42, 79
5, 26880, Note_off_c, 9, 42, 127
5, 26880, Note_off_c, 9, 42, 79
5, 26880, Note_on_c, 9, 44, 127
5, 26880, Note_on_c, 9, 36, 79
5, 27840, Note_off_c, 9, 44, 127
5, 27840, Note_off_c, 9, 36, 79
5, 27840, Note_on_c, 9, 44, 127
5, 27840, Note_on_c, 9, 40, 79
5, 28800, Note_off_c, 9, 44, 127
5, 28800, Note_off_c, 9, 40, 79
5, 28800, Note_on_c, 9, 44, 127
5, 28800, Note_on_c, 9, 36, 79
5, 29280, Note_off_c, 9, 44, 127
5, 29280, Note_off_c, 9, 36, 79
5, 29280, Note_on_c, 9, 44, 127
5, 29280, Note_on_c, 9, 36, 79
5, 29760, Note_off_c, 9, 44, 127
5, 29760, Note_off_c, 9, 36, 79
5, 29760, Note_on_c, 9, 44, 127
5, 29760, Note_on_c, 9, 40, 79
5, 30240, Note_off_c, 9, 44, 127
5, 30240, Note_off_c, 9, 40, 79
5, 30240, Note_on_c, 9, 42, 127
5, 30240, Note_on_c, 9, 42, 79
5, 30720, Note_off_c, 9, 42, 127
5, 30720, Note_off_c, 9, 42, 79
5, 30720, Note_on_c, 9, 44, 127
5, 30720, Note_on_c, 9, 36, 79
5, 31680, Note_off_c, 9, 44, 127
5, 31680, Note_off_c, 9, 36, 79
5, 31680, Note_on_c, 9, 44, 127
5, 31680, Note_on_c, 9, 40, 79
5, 32640, Note_off_c, 9, 44, 127
5, 32640, Note_off_c, 9, 40, 79
5, 32640, Note_on_c, 9, 44, 127
5, 32640, Note_on_c, 9, 36, 79
5, 33120, Note_off_c, 9, 44, 127
5, 33120, Note_off_c, 9, 36, 79
5, 33120, Note_on_c, 9, 44, 127
5, 33120, Note_on_c, 9, 36, 79
5, 33600, Note_off_c, 9, 44, 127
5, 33600, Note_off_c, 9, 36, 79
5, 33600, Note_on_c, 9, 44, 127
5, 33600, Note_on_c, 9, 40, 79
5, 34080, Note_off_c, 9, 44, 127
5, 34080, Note_off_c, 9, 40, 79
5, 34080, Note_on_c, 9, 42, 127
5, 34080, Note_on_c, 9, 42, 79
5, 34560, Note_off_c, 9, 42, 127
5, 34560, Note_off_c, 9, 42, 79
5, 34560, Note_on_c, 9, 44, 127
5, 34560, Note_on_c, 9, 36, 79
5, 35520, Note_off_c, 9, 44, 127
5, 35520, Note_off_c, 9, 36, 79
5, 35520, Note_on_c, 9, 44, 127
5, 35520, Note_on_c, 9, 40, 79
5, 36480, Note_off_c, 9, 44, 127
5, 36480, Note_off_c, 9, 40, 79
5, 36480, Note_on_c, 9, 44, 127
5, 36480, Note_on_c, 9, 36, 79
5, 36960, Note_off_c, 9, 44, 127
5, 36960, Note_off_c, 9, 36, 79
5, 36960, Note_on_c, 9, 44, 127
5, 36960, Note_on_c, 9, 36, 79
5, 37440, Note_off_c, 9, 44, 127
5, 37440, Note_off_c, 9, 36, 79
5, 37440, Note_on_c, 9, 44, 127
5, 37440, Note_on_c, 9, 40, 79
5, 37920, Note_off_c, 9, 44, 127
5, 37920, Note_off_c, 9, 40, 79
5, 37920, Note_on_c, 9, 42, 127
5, 37920, Note_on_c, 9, 42, 79
5, 38400, Note_off_c, 9, 42, 127
5, 38400, Note_off_c, 9, 42, 79
5, 38400, Note_on_c, 9, 44, 127
5, 38400, Note_on_c, 9, 36, 79
5, 39360, Note_off_c, 9, 44, 127
5, 39360, Note_off_c, 9, 36, 79
5, 39360, Note_on_c, 9, 44, 127
5, 39360, Note_on_c, 9, 40, 79
5, 40320, Note_off_c, 9, 44, 127
5, 40320, Note_off_c, 9, 40, 79
5, 40320, Note_on_c, 9, 44, 127
5, 40320, Note_on_c, 9, 36, 79
5, 40800, Note_off_c, 9, 44, 127
5, 40800, Note_off_c, 9, 36, 79
5, 40800, Note_on_c, 9, 44, 127
5, 40800, Note_on_c, 9, 36, 79
5, 41280, Note_off_c, 9, 44, 127
5, 41280, Note_off_c, 9, 36, 79
5, 41280, Note_on_c, 9, 44, 127
5, 41280, Note_on_c, 9, 40, 79
5, 41760, Note_off_c, 9, 44, 127
5, 41760, Note_off_c, 9, 40, 79
5, 41760, Note_on_c, 9, 42, 127
5, 41760, Note_on_c, 9, 42, 79
5, 42240, Note_off_c, 9, 42, 127
5, 42240, Note_off_c, 9, 42, 79
5, 42240, Note_on_c, 9, 44, 127
5, 42240, Note_on_c, 9, 36, 79
5, 43200, Note_off_c, 9, 44, 127
5, 43200, Note_off_c, 9, 36, 79
5, 43200, Note_on_c, 9, 44, 127
5, 43200, Note_on_c, 9, 40, 79
5, 44160, Note_off_c, 9, 44, 127
5, 44160, Note_off_c, 9, 40, 79
5, 44160, Note_on_c, 9, 44, 127
5, 44160, Note_on_c, 9, 36, 79
5, 44640, Note_off_c, 9, 44, 127
5, 44640, Note_off_c, 9, 36, 79
5, 44640, Note_on_c, 9, 44, 127
5, 44640, Note_on_c, 9, 36, 79
5, 45120, Note_off_c, 9, 44, 127
5, 45120, Note_off_c, 9, 36, 79
5, 45120, Note_on_c, 9, 44, 127
5, 45120, Note_on_c, 9, 40, 79
5, 45600, Note_off_c, 9, 44, 127
5, 45600, Note_off_c, 9, 40, 79
5, 45600, Note_on_c, 9, 42, 127
5, 45600, Note_on_c, 9, 42, 79
5, 46080, Note_off_c, 9, 42, 127
5, 46080, Note_off_c, 9, 42, 79
5, 46080, Note_on_c, 9, 44, 127
5, 46080, Note_on_c, 9, 36, 79
5, 47040, Note_off_c, 9, 44, 127
5, 47040, Note_off_c, 9, 36, 79
5, 47040, Note_on_c, 9, 44, 127
5, 47040, Note_on_c, 9, 40, 79
5, 48000, Note_off_c, 9, 44, 127
5, 48000, Note_off_c, 9, 40, 79
5, 48000, Note_on_c, 9, 44, 127
5, 48000, Note_on_c, 9, 36, 79
5, 48480, Note_off_c, 9, 44, 127
5, 48480, Note_off_c, 9, 36, 79
5, 48480, Note_on_c, 9, 44, 127
5, 48480, Note_on_c, 9, 36, 79
5, 48960, Note_off_c, 9, 44, 127
5, 48960, Note_off_c, 9, 36, 79
5, 48960, Note_on_c, 9, 44, 127
5, 48960, Note_on_c, 9, 40, 79
5, 49440, Note_off_c, 9, 44, 127
5, 49440, Note_off_c, 9, 40, 79
5, 49440, Note_on_c, 9, 42, 127
5, 49440, Note_on_c, 9, 42, 79
5, 49920, Note_off_c, 9, 42, 127
5, 49920, Note_off_c, 9, 42, 79
5, 49920, Note_on_c, 9, 44, 127
5, 49920, Note_on_c, 9, 36, 79
5, 50880, Note_off_c, 9, 44, 127
5, 50880, Note_off_c, 9, 36, 79
5, 50880, Note_on_c, 9, 44, 127
5, 50880, Note_on_c, 9, 40, 79
5, 51840, Note_off_c, 9, 44, 127
5, 51840, Note_off_c, 9, 40, 79
5, 51840, Note_on_c, 9, 44, 127
5, 51840, Note_on_c, 9, 36, 79
5, 52320, Note_off_c, 9, 44, 127
5, 52320, Note_off_c, 9, 36, 79
5, 52320, Note_on_c, 9, 44, 127
5, 52320, Note_on_c, 9, 36, 79
5, 52800, Note_off_c, 9, 44, 127
5, 52800, Note_off_c, 9, 36, 79
5, 52800, Note_on_c, 9, 44, 127
5, 52800, Note_on_c, 9, 40, 79
5, 53280, Note_off_c, 9, 44, 127
5, 53280, Note_off_c, 9, 40, 79
5, 53280, Note_on_c, 9, 42, 127
5, 53280, Note_on_c, 9, 42, 79
5, 53760, Note_off_c, 9, 42, 127
5, 53760, Note_off_c, 9, 42, 79
5, 53760, Note_on_c, 9, 44, 127
5, 53760, Note_on_c, 9, 36, 79
5, 54720, Note_off_c, 9, 44, 127
5, 54720, Note_off_c, 9, 36, 79
5, 54720, Note_on_c, 9, 44, 127
5, 54720, Note_on_c, 9, 40, 79
5, 55680, Note_off_c, 9, 44, 127
5, 55680, Note_off_c, 9, 40, 79
5, 55680, Note_on_c, 9, 44, 127
5, 55680, Note_on_c, 9, 36, 79
5, 56160, Note_off_c, 9, 44, 127
5, 56160, Note_off_c, 9, 36, 79
5, 56160, Note_on_c, 9, 44, 127
5, 56160, Note_on_c, 9, 36, 79
5, 56640, Note_off_c, 9, 44, 127
5, 56640, Note_off_c, 9, 36, 79
5, 56640, Note_on_c, 9, 44, 127
5, 56640, Note_on_c, 9, 40, 79
5, 57120, Note_off_c, 9, 44, 127
5, 57120, Note_off_c, 9, 40, 79
5, 57120, Note_on_c, 9, 42, 127
5, 57120, Note_on_c, 9, 42, 79
5, 57600, Note_off_c, 9, 42, 127
5, 57600, Note_off_c, 9, 42, 79
5, 57600, Note_on_c, 9, 44, 127
5, 57600, Note_on_c, 9, 36, 79
5, 58560, Note_off_c, 9, 44, 127
5, 58560, Note_off_c, 9, 36, 79
5, 58560, Note_on_c, 9, 44, 127
5, 58560, Note_on_c, 9, 40, 79
5, 59520, Note_off_c, 9, 44, 127
5, 59520, Note_off_c, 9, 40, 79
5, 59520, Note_on_c, 9, 44, 127
5, 59520, Note_on_c, 9, 36, 79
5, 60000, Note_off_c, 9, 44, 127
5, 60000, Note_off_c, 9, 36, 79
5, 60000, Note_on_c, 9, 44, 127
5, 60000, Note_on_c, 9, 36, 79
5, 60480, Note_off_c, 9, 44, 127
5, 60480, Note_off_c, 9, 36, 79
5, 60480, Note_on_c, 9, 44, 127
5, 60480, Note_on_c, 9, 40, 79
5, 60960, Note_off_c, 9, 44, 127
5, 60960, Note_off_c, 9, 40, 79
5, 60960, Note_on_c, 9, 42, 127
5, 60960, Note_on_c, 9, 42, 79
5, 61440, Note_off_c, 9, 42, 127
5, 61440, Note_off_c, 9, 42, 79
5, 61440, Note_on_c, 9, 44, 127
5, 61440, Note_on_c, 9, 36, 79
5, 62400, Note_off_c, 9, 44, 127
5, 62400, Note_off_c, 9, 36, 79
5, 62400, Note_on_c, 9, 44, 127
5, 62400, Note_on_c, 9, 40, 79
5, 63360, Note_off_c, 9, 44, 127
5, 63360, Note_off_c, 9, 40, 79
5, 63360, Note_on_c, 9, 44, 127
5, 63360, Note_on_c, 9, 36, 79
5, 63840, Note_off_c, 9, 44, 127
5, 63840, Note_off_c, 9, 36, 79
5, 63840, Note_on_c, 9, 44, 127
5, 63840, Note_on_c, 9, 36, 79
5, 64320, Note_off_c, 9, 44, 127
5, 64320, Note_off_c, 9, 36, 79
5, 64320, Note_on_c, 9, 44, 127
5, 64320, Note_on_c, 9, 40, 79
5, 64800, Note_off_c, 9, 44, 127
5, 64800, Note_off_c, 9, 40, 79
5, 64800, Note_on_c, 9, 42, 127
5, 64800, Note_on_c, 9, 42, 79
5, 65280, Note_off_c, 9, 42, 127
5, 65280, Note_off_c, 9, 42, 79
5, 65280, Note_on_c, 9, 44, 127
5, 65280, Note_on_c, 9, 36, 79
5, 66240, Note_off_c, 9, 44, 127
5, 66240, Note_off_c, 9, 36, 79
5, 66240, Note_on_c, 9, 44, 127
5, 66240, Note_on_c, 9, 40, 79
5, 67200, Note_off_c, 9, 44, 127
5, 67200, Note_off_c, 9, 40, 79
5, 67200, Note_on_c, 9, 44, 127
5, 67200, Note_on_c, 9, 36, 79
5, 67680, Note_off_c, 9, 44, 127
5, 67680, Note_off_c, 9, 36, 79
5, 67680, Note_on_c, 9, 44, 127
5, 67680, Note_on_c, 9, 36, 79
5, 68160, Note_off_c, 9, 44, 127
5, 68160, Note_off_c, 9, 36, 79
5, 68160, Note_on_c, 9, 44, 127
5, 68160, Note_on_c, 9, 40, 79
5, 68640, Note_off_c, 9, 44, 127
5, 68640, Note_off_c, 9, 40, 79
5, 68640, Note_on_c, 9, 42, 127
5, 68640, Note_on_c, 9, 42, 79
5, 69120, Note_off_c, 9, 42, 127
5, 69120, Note_off_c, 9, 42, 79
5, 69120, Note_on_c, 9, 44, 127
5, 69120, Note_on_c, 9, 36, 79
5, 70080, Note_off_c, 9, 44, 127
5, 70080, Note_off_c, 9, 36, 79
5, 70080, Note_on_c, 9, 44, 127
5, 70080, Note_on_c, 9, 40, 79
5, 71040, Note_off_c, 9, 44, 127
5, 71040, Note_off_c, 9, 40, 79
5, 71040, Note_on_c, 9, 44, 127
5, 71040, Note_on_c, 9, 36, 79
5, 71520, Note_off_c, 9, 44, 127
5, 71520, Note_off_c, 9, 36, 79
5, 71520, Note_on_c, 9, 44, 127
5, 71520, Note_on_c, 9, 36, 79
5, 72000, Note_off_c, 9, 44, 127
5, 72000, Note_off_c, 9, 36, 79
5, 72000, Note_on_c, 9, 44, 127
5, 72000, Note_on_c, 9, 40, 79
5, 72480, Note_off_c, 9, 44, 127
5, 72480, Note_off_c, 9, 40, 79
5, 72480, Note_on_c, 9, 42, 127
5, 72480, Note_on_c, 9, 42, 79
5, 72960, Note_off_c, 9, 42, 127
5, 72960, Note_off_c, 9, 42, 79
5, 72960, Note_on_c, 9, 44, 127
5, 72960, Note_on_c, 9, 36, 79
5, 73920, Note_off_c, 9, 44, 127
5, 73920, Note_off_c, 9, 36, 79
5, 73920, Note_on_c, 9, 44, 127
5, 73920, Note_on_c, 9, 40, 79
5, 74880, Note_off_c, 9, 44, 127
5, 74880, Note_off_c, 9, 40, 79
5, 74880, Note_on_c, 9, 44, 127
5, 74880, Note_on_c, 9, 36, 79
5, 75360, Note_off_c, 9, 44, 127
5, 75360, Note_off_c, 9, 36, 79
5, 75360, Note_on_c, 9, 44, 127
5, 75360, Note_on_c, 9, 36, 79
5, 75840, Note_off_c, 9, 44, 127
5, 75840, Note_off_c, 9, 36, 79
5, 75840, Note_on_c, 9, 44, 127
5, 75840, Note_on_c, 9, 40, 79
5, 76320, Note_off_c, 9, 44, 127
5, 76320, Note_off_c, 9, 40, 79
5, 76320, Note_on_c, 9, 42, 127
5, 76320, Note_on_c, 9, 42, 79
5, 76800, Note_off_c, 9, 42, 127
5, 76800, Note_off_c, 9, 42, 79
5, 76800, Note_on_c, 9, 44, 127
5, 76800, Note_on_c, 9, 36, 79
5, 77760, Note_off_c, 9, 44, 127
5, 77760, Note_off_c, 9, 36, 79
5, 77760, Note_on_c, 9, 44, 127
5, 77760, Note_on_c, 9, 40, 79
5, 78720, Note_off_c, 9, 44, 127
5, 78720, Note_off_c, 9, 40, 79
5, 78720, Note_on_c, 9, 44, 127
5, 78720, Note_on_c, 9, 36, 79
5, 79200, Note_off_c, 9, 44, 127
5, 79200, Note_off_c, 9, 36, 79
5, 79200, Note_on_c, 9, 44, 127
5, 79200, Note_on_c, 9, 36, 79
5, 79680, Note_off_c, 9, 44, 127
5, 79680, Note_off_c, 9, 36, 79
5, 79680, Note_on_c, 9, 44, 127
5, 79680, Note_on_c, 9, 40, 79
5, 80160, Note_off_c, 9, 44, 127
5, 80160, Note_off_c, 9, 40, 79
5, 80160, Note_on_c, 9, 42, 127
5, 80160, Note_on_c, 9, 42, 79
5, 80640, Note_off_c, 9, 42, 127
5, 80640, Note_off_c, 9, 42, 79
5, 80640, Note_on_c, 9, 44, 127
5, 80640, Note_on_c, 9, 36, 79
5, 81600, Note_off_c, 9, 44, 127
5, 81600, Note_off_c, 9, 36, 79
5, 81600, Note_on_c, 9, 44, 127
5, 81600, Note_on_c, 9, 40, 79
5, 82560, Note_off_c, 9, 44, 127
5, 82560, Note_off_c, 9, 40, 79
5, 82560, Note_on_c, 9, 44, 127
5, 82560, Note_on_c, 9, 36, 79
5, 83040, Note_off_c, 9, 44, 127
5, 83040, Note_off_c, 9, 36, 79
5, 83040, Note_on_c, 9, 44, 127
5, 83040, Note_on_c, 9, 36, 79
5, 83520, Note_off_c, 9, 44, 127
5, 83520, Note_off_c, 9, 36, 79
5, 83520, Note_on_c, 9, 44, 127
5, 83520, Note_on_c, 9, 40, 79
5, 84000, Note_off_c, 9, 44, 127
5, 84000, Note_off_c, 9, 40, 79
5, 84000, Note_on_c, 9, 42, 127
5, 84000, Note_on_c, 9, 42, 79
5, 84480, Note_off_c, 9, 42, 127
5, 84480, Note_off_c, 9, 42, 79
5, 84480, Note_on_c, 9, 44, 127
5, 84480, Note_on_c, 9, 36, 79
5, 85440, Note_off_c, 9, 44, 127
5, 85440, Note_off_c, 9, 36, 79
5, 85440, Note_on_c, 9, 44, 127
5, 85440, Note_on_c, 9, 40, 79
5, 86400, Note_off_c, 9, 44, 127
5, 86400, Note_off_c, 9, 40, 79
5, 86400, Note_on_c, 9, 44, 127
5, 86400, Note_on_c, 9, 36, 79
5, 86880, Note_off_c, 9, 44, 127
5, 86880, Note_off_c, 9, 36, 79
5, 86880, Note_on_c, 9, 44, 127
5, 86880, Note_on_c, 9, 36, 79
5, 87360, Note_off_c, 9, 44, 127
5, 87360, Note_off_c, 9, 36, 79
5, 87360, Note_on_c, 9, 44, 127
5, 87360, Note_on_c, 9, 40, 79
5, 87840, Note_off_c, 9, 44, 127
5, 87840, Note_off_c, 9, 40, 79
5, 87840, Note_on_c, 9, 42, 127
5, 87840, Note_on_c, 9, 42, 79
5, 88320, Note_off_c, 9, 42, 127
5, 88320, Note_off_c, 9, 42, 79
5, 88320, Note_on_c, 9, 44, 127
5, 88320, Note_on_c, 9, 36, 79
5, 89280, Note_off_c, 9, 44, 127
5, 89280, Note_off_c, 9, 36, 79
5, 89280, Note_on_c, 9, 44, 127
5, 89280, Note_on_c, 9, 40, 79
5, 90240, Note_off_c, 9, 44, 127
5, 90240, Note_off_c, 9, 40, 79
5, 90240, Note_on_c, 9, 44, 127
5, 90240, Note_on_c, 9, 36, 79
5, 90720, Note_off_c, 9, 44, 127
5, 90720, Note_off_c, 9, 36, 79
5, 90720, Note_on_c, 9, 44, 127
5, 90720, Note_on_c, 9, 36, 79
5, 91200, Note_off_c, 9, 44, 127
5, 91200, Note_off_c, 9, 36, 79
5, 91200, Note_on_c, 9, 44, 127
5, 91200, Note_on_c, 9, 40, 79
5, 91680, Note_off_c, 9, 44, 127
5, 91680, Note_off_c, 9, 40, 79
5, 91680, Note_on_c, 9, 42, 127
5, 91680, Note_on_c, 9, 42, 79
5, 92160, Note_off_c, 9, 42, 127
5, 92160, Note_off_c, 9, 42, 79
5, 92160, Note_on_c, 9, 44, 127
5, 92160, Note_on_c, 9, 36, 79
5, 93120, Note_off_c, 9, 44, 127
5, 93120, Note_off_c, 9, 36, 79
5, 93120, Note_on_c, 9, 44, 127
5, 93120, Note_on_c, 9, 40, 79
5, 94080, Note_off_c, 9, 44, 127
5, 94080, Note_off_c, 9, 40, 79
5, 94080, Note_on_c, 9, 44, 127
5, 94080, Note_on_c, 9, 36, 79
5, 94560, Note_off_c, 9, 44, 127
5, 94560, Note_off_c, 9, 36, 79
5, 94560, Note_on_c, 9, 44, 127
5, 94560, Note_on_c, 9, 36, 79
5, 95040, Note_off_c, 9, 44, 127
5, 95040, Note_off_c, 9, 36, 79
5, 95040, Note_on_c, 9, 44, 127
5, 95040, Note_on_c, 9, 40, 79
5, 95520, Note_off_c, 9, 44, 127
5, 95520, Note_off_c, 9, 40, 79
5, 95520, Note_on_c, 9, 42, 127
5, 95520, Note_on_c, 9, 42, 79
5, 96000, Note_off_c, 9, 42, 127
5, 96000, Note_off_c, 9, 42, 79
5, 96000, Note_on_c, 9, 44, 127
5, 96000, Note_on_c, 9, 36, 79
5, 96960, Note_off_c, 9, 44, 127
5, 96960, Note_off_c, 9, 36, 79
5, 96960, Note_on_c, 9, 44, 127
5, 96960, Note_on_c, 9, 40, 79
5, 97920, Note_off_c, 9, 44, 127
5, 97920, Note_off_c, 9, 40, 79
5, 97920, Note_on_c, 9, 44, 127
5, 97920, Note_on_c, 9, 36, 79
5, 98400, Note_off_c, 9, 44, 127
5, 98400, Note_off_c, 9, 36, 79
5, 98400, Note_on_c, 9, 44, 127
5, 98400, Note_on_c, 9, 36, 79
5, 98880, Note_off_c, 9, 44, 127
5, 98880, Note_off_c, 9, 36, 79
5, 98880, Note_on_c, 9, 44, 127
5, 98880, Note_on_c, 9, 40, 79
5, 99360, Note_off_c, 9, 44, 127
5, 99360, Note_off_c, 9, 40, 79
5, 99360, Note_on_c, 9, 42, 127
5, 99360, Note_on_c, 9, 42, 79
5, 99840, Note_off_c, 9, 42, 127
5, 99840, Note_off_c, 9, 42, 79
5, 99840, Note_on_c, 9, 44, 127
5, 99840, Note_on_c, 9, 36, 79
5, 100800, Note_off_c, 9, 44, 127
5, 100800, Note_off_c, 9, 36, 79
5, 100800, Note_on_c, 9, 44, 127
5, 100800, Note_on_c, 9, 40, 79
5, 101760, Note_off_c, 9, 44, 127
5, 101760, Note_off_c, 9, 40, 79
5, 101760, Note_on_c, 9, 44, 127
5, 101760, Note_on_c, 9, 36, 79
5, 102240, Note_off_c, 9, 44, 127
5, 102240, Note_off_c, 9, 36, 79
5, 102240, Note_on_c, 9, 44, 127
5, 102240, Note_on_c, 9, 36, 79
5, 102720, Note_off_c, 9, 44, 127
5, 102720, Note_off_c, 9, 36, 79
5, 102720, Note_on_c, 9, 44, 127
5, 102720, Note_on_c, 9, 40, 79
5, 103200, Note_off_c, 9, 44, 127
5, 103200, Note_off_c, 9, 40, 79
5, 103200, Note_on_c, 9, 42, 127
5, 103200, Note_on_c, 9, 42, 79
5, 103680, Note_off_c, 9, 42, 127
5, 103680, Note_off_c, 9, 42, 79
5, 103680, Note_on_c, 9, 44, 127
5, 103680, Note_on_c, 9, 36, 79
5, 104640, Note_off_c, 9, 44, 127
5, 104640, Note_off_c, 9, 36, 79
5, 104640, Note_on_c, 9, 44, 127
5, 104640, Note_on_c, 9, 40, 79
5, 105600, Note_off_c, 9, 44, 127
5, 105600, Note_off_c, 9, 40, 79
5, 105600, Note_on_c, 9, 44, 127
5, 105600, Note_on_c, 9, 36, 79
5, 106080, Note_off_c, 9, 44, 127
5, 106080, Note_off_c, 9, 36, 79
5, 106080, Note_on_c, 9, 44, 127
5, 106080, Note_on_c, 9, 36, 79
5, 106560, Note_off_c, 9, 44, 127
5, 106560, Note_off_c, 9, 36, 79
5, 106560, Note_on_c, 9, 44, 127
5, 106560, Note_on_c, 9, 40, 79
5, 107040, Note_off_c, 9, 44, 127
5, 107040, Note_off_c, 9, 40, 79
5, 107040, Note_on_c, 9, 42, 127
5, 107040, Note_on_c, 9, 42, 79
5, 107520, Note_off_c, 9, 42, 127
5, 107520, Note_off_c, 9, 42, 79
5, 107520, Note_on_c, 9, 44, 127
5, 107520, Note_on_c, 9, 36, 79
5, 108480, Note_off_c, 9, 44, 127
5, 108480, Note_off_c, 9, 36, 79
5, 108480, Note_on_c, 9, 44, 127
5, 108480, Note_on_c, 9, 40, 79
5, 109440, Note_off_c, 9, 44, 127
5, 109440, Note_off_c, 9, 40, 79
5, 109440, Note_on_c, 9, 44, 127
5, 109440, Note_on_c, 9, 36, 79
5, 109920, Note_off_c, 9, 44, 127
5, 109920, Note_off_c, 9, 36, 79
5, 109920, Note_on_c, 9, 44, 127
5, 109920, Note_on_c, 9, 36, 79
5, 110400, Note_off_c, 9, 44, 127
5, 110400, Note_off_c, 9, 36, 79
5, 110400, Note_on_c, 9, 44, 127
5, 110400, Note_on_c, 9, 40, 79
5, 110880, Note_off_c, 9, 44, 127
5, 110880, Note_off_c, 9, 40, 79
5, 110880, Note_on_c, 9, 42, 127
5, 110880, Note_on_c, 9, 42, 79
5, 111360, Note_off_c, 9, 42, 127
5, 111360, Note_off_c, 9, 42, 79
5, 111360, Note_on_c, 9, 44, 127
5, 111360, Note_on_c, 9, 36, 79
5, 112320, Note_off_c, 9, 44, 127
5, 112320, Note_off_c, 9, 36, 79
5, 112320, Note_on_c, 9, 44, 127
5, 112320, Note_on_c, 9, 40, 79
5, 113280, Note_off_c, 9, 44, 127
5, 113280, Note_off_c, 9, 40, 79
5, 113280, Note_on_c, 9, 44, 127
5, 113280, Note_on_c, 9, 36, 79
5, 113760, Note_off_c, 9, 44, 127
5, 113760, Note_off_c, 9, 36, 79
5, 113760, Note_on_c, 9, 44, 127
5, 113760, Note_on_c, 9, 36, 79
5, 114240, Note_off_c, 9, 44, 127
5, 114240, Note_off_c, 9, 36, 79
5, 114240, Note_on_c, 9, 44, 127
5, 114240, Note_on_c, 9, 40, 79
5, 114720, Note_off_c, 9, 44, 127
5, 114720, Note_off_c, 9, 40, 79
5, 114720, Note_on_c, 9, 42, 127
5, 114720, Note_on_c, 9, 42, 79
5, 115200, Note_off_c, 9, 42, 127
5, 115200, Note_off_c, 9, 42, 79
5, 115200, Note_on_c, 9, 44, 127
5, 115200, Note_on_c, 9, 36, 79
5, 116160, Note_off_c, 9, 44, 127
5, 116160, Note_off_c, 9, 36, 79
5, 116160, Note_on_c, 9, 44, 127
5, 116160, Note_on_c, 9, 40, 79
5, 117120, Note_off_c, 9, 44, 127
5, 117120, Note_off_c, 9, 40, 79
5, 117120, Note_on_c, 9, 44, 127
5, 117120, Note_on_c, 9, 36, 79
5, 117600, Note_off_c, 9, 44, 127
5, 117600, Note_off_c, 9, 36, 79
5, 117600, Note_on_c, 9, 44, 127
5, 117600, Note_on_c, 9, 36, 79
5, 118080, Note_off_c, 9, 44, 127
5, 118080, Note_off_c, 9, 36, 79
5, 118080, Note_on_c, 9, 44, 127
5, 118080, Note_on_c, 9, 40, 79
5, 118560, Note_off_c, 9, 44, 127
5, 118560, Note_off_c, 9, 40, 79
5, 118560, Note_on_c, 9, 42, 127
5, 118560, Note_on_c, 9, 42, 79
5, 119040, Note_off_c, 9, 42, 127
5, 119040, Note_off_c, 9, 42, 79
5, 119040, Note_on_c, 9, 44, 127
5, 119040, Note_on_c, 9, 36, 79
5, 120000, Note_off_c, 9, 44, 127
5, 120000, Note_off_c, 9, 36, 79
5, 120000, Note_on_c, 9, 44, 127
5, 120000, Note_on_c, 9, 40, 79
5, 120960, Note_off_c, 9, 44, 127
5, 120960, Note_off_c, 9, 40, 79
5, 120960, Note_on_c, 9, 44, 127
5, 120960, Note_on_c, 9, 36, 79
5, 121440, Note_off_c, 9, 44, 127
5, 121440, Note_off_c, 9, 36, 79
5, 121440, Note_on_c, 9, 44, 127
5, 121440, Note_on_c, 9, 36, 79
5, 121920, Note_off_c, 9, 44, 127
5, 121920, Note_off_c, 9, 36, 79
5, 121920, Note_on_c, 9, 44, 127
5, 121920, Note_on_c, 9, 40, 79
5, 122400, Note_off_c, 9, 44, 127
5, 122400, Note_off_c, 9, 40, 79
5, 122400, Note_on_c, 9, 42, 127
5, 122400, Note_on_c, 9, 42, 79
5, 122880, Note_off_c, 9, 42, 127
5, 122880, Note_off_c, 9, 42, 79
5, 122880, Note_on_c, 9, 44, 127
5, 122880, Note_on_c, 9, 36, 79
5, 123840, Note_off_c, 9, 44, 127
5, 123840, Note_off_c, 9, 36, 79
5, 123840, Note_on_c, 9, 44, 127
5, 123840, Note_on_c, 9, 40, 79
5, 124800, Note_off_c, 9, 44, 127
5, 124800, Note_off_c, 9, 40, 79
5, 124800, Note_on_c, 9, 44, 127
5, 124800, Note_on_c, 9, 36, 79
5, 125280, Note_off_c, 9, 44, 127
5, 125280, Note_off_c, 9, 36, 79
5, 125280, Note_on_c, 9, 44, 127
5, 125280, Note_on_c, 9, 36, 79
5, 125760, Note_off_c, 9, 44, 127
5, 125760, Note_off_c, 9, 36, 79
5, 125760, Note_on_c, 9, 44, 127
5, 125760, Note_on_c, 9, 40, 79
5, 126240, Note_off_c, 9, 44, 127
5, 126240, Note_off_c, 9, 40, 79
5, 126240, Note_on_c, 9, 42, 127
5, 126240, Note_on_c, 9, 42, 79
5, 126720, Note_off_c, 9, 42, 127
5, 126720, Note_off_c, 9, 42, 79
5, 126720, Note_on_c, 9, 44, 127
5, 126720, Note_on_c, 9, 36, 79
5, 127680, Note_off_c, 9, 44, 127
5, 127680, Note_off_c, 9, 36, 79
5, 127680, Note_on_c, 9, 44, 127
5, 127680, Note_on_c, 9, 40, 79
5, 128640, Note_off_c, 9, 44, 127
5, 128640, Note_off_c, 9, 40, 79
5, 128640, Note_on_c, 9, 44, 127
5, 128640, Note_on_c, 9, 36, 79
5, 129120, Note_off_c, 9, 44, 127
5, 129120, Note_off_c, 9, 36, 79
5, 129120, Note_on_c, 9, 44, 127
5, 129120, Note_on_c, 9, 36, 79
5, 129600, Note_off_c, 9, 44, 127
5, 129600, Note_off_c, 9, 36, 79
5, 129600, Note_on_c, 9, 44, 127
5, 129600, Note_on_c, 9, 40, 79
5, 130080, Note_off_c, 9, 44, 127
5, 130080, Note_off_c, 9, 40, 79
5, 130080, Note_on_c, 9, 46, 127
5, 130080, Note_on_c, 9, 42, 79
5, 130560, Note_off_c, 9, 46, 127
5, 130560, Note_off_c, 9, 42, 79
5, 130560, Note_on_c, 9, 44, 127
5, 130560, Note_on_c, 9, 36, 79
5, 130560, Note_on_c, 9, 49, 95
5, 131520, Note_off_c, 9, 44, 127
5, 131520, Note_off_c, 9, 36, 79
5, 131520, Note_off_c, 9, 49, 95
5, 131520, Note_on_c, 9, 44, 127
5, 131520, Note_on_c, 9, 40, 79
5, 131520, Note_on_c, 9, 49, 95
5, 132480, Note_off_c, 9, 44, 127
5, 132480, Note_off_c, 9, 40, 79
5, 132480, Note_off_c, 9, 49, 95
5, 132480, Note_on_c, 9, 44, 127
5, 132480, Note_on_c, 9, 36, 79
5, 132480, Note_on_c, 9, 49, 95
5, 132960, Note_off_c, 9, 44, 127
5, 132960, Note_off_c, 9, 36, 79
5, 132960, Note_off_c, 9, 49, 95
5, 132960, Note_on_c, 9, 44, 127
5, 132960, Note_on_c, 9, 36, 79
5, 133440, Note_off_c, 9, 44, 127
5, 133440, Note_off_c, 9, 36, 79
5, 133440, Note_on_c, 9, 44, 127
5, 133440, Note_on_c, 9, 40, 79
5, 133440, Note_on_c, 9, 49, 95
5, 133920, Note_off_c, 9, 44, 127
5, 133920, Note_off_c, 9, 40, 79
5, 133920, Note_off_c, 9, 49, 95
5, 133920, Note_on_c, 9, 46, 127
5, 133920, Note_on_c, 9, 42, 79
5, 134400, Note_off_c, 9, 46, 127
5, 134400, Note_off_c, 9, 42, 79
5, 134400, Note_on_c, 9, 44, 127
5, 134400, Note_on_c, 9, 36, 79
5, 134400, Note_on_c, 9, 49, 95
5, 135360, Note_off_c, 9, 44, 127
5, 135360, Note_off_c, 9, 36, 79
5, 135360, Note_off_c, 9, 49, 95
5, 135360, Note_on_c, 9, 44, 127
5, 135360, Note_on_c, 9, 40, 79
5, 135360, Note_on_c, 9, 49, 95
5, 136320, Note_off_c, 9, 44, 127
5, 136320, Note_off_c, 9, 40, 79
5, 136320, Note_off_c, 9, 49, 95
5, 136320, Note_on_c, 9, 44, 127
5, 136320, Note_on_c, 9, 36, 79
5, 136320, Note_on_c, 9, 49, 95
5, 136800, Note_off_c, 9, 44, 127
5, 136800, Note_off_c, 9, 36, 79
5, 136800, Note_off_c, 9, 49, 95
5, 136800, Note_on_c, 9, 44, 127
5, 136800, Note_on_c, 9, 36, 79
5, 137280, Note_off_c, 9, 44, 127
5, 137280, Note_off_c, 9, 36, 79
5, 137280, Note_on_c, 9, 44, 127
5, 137280, Note_on_c, 9, 40, 79
5, 137280, Note_on_c, 9, 49, 95
5, 137760, Note_off_c, 9, 44, 127
5, 137760, Note_off_c, 9, 40, 79
5, 137760, Note_off_c, 9, 49, 95
5, 137760, Note_on_c, 9, 46, 127
5, 137760, Note_on_c, 9, 42, 79
5, 138240, Note_off_c, 9, 46, 127
5, 138240, Note_off_c, 9, 42, 79
5, 138240, Note_on_c, 9, 44, 127
5, 138240, Note_on_c, 9, 36, 79
5, 138240, Note_on_c, 9, 49, 95
5, 139200, Note_off_c, 9, 44, 127
5, 139200, Note_off_c, 9, 36, 79
5, 139200, Note_off_c, 9, 49, 95
5, 139200, Note_on_c, 9, 44, 127
5, 139200, Note_on_c, 9, 40, 79
5, 139200, Note_on_c, 9, 49, 95
5, 140160, Note_off_c, 9, 44, 127
5, 140160, Note_off_c, 9, 40, 79
5, 140160, Note_off_c, 9, 49, 95
5, 140160, Note_on_c, 9, 44, 127
5, 140160, Note_on_c, 9, 36, 79
5, 140160, Note_on_c, 9, 49, 95
5, 140640, Note_off_c, 9, 44, 127
5, 140640, Note_off_c, 9, 36, 79
5, 140640, Note_off_c, 9, 49, 95
5, 140640, Note_on_c, 9, 44, 127
5, 140640, Note_on_c, 9, 36, 79
5, 141120, Note_off_c, 9, 44, 127
5, 141120, Note_off_c, 9, 36, 79
5, 141120, Note_on_c, 9, 44, 127
5, 141120, Note_on_c, 9, 40, 79
5, 141120, Note_on_c, 9, 49, 95
5, 141600, Note_off_c, 9, 44, 127
5, 141600, Note_off_c, 9, 40, 79
5, 141600, Note_off_c, 9, 49, 95
5, 141600, Note_on_c, 9, 46, 127
5, 141600, Note_on_c, 9, 42, 79
5, 142080, Note_off_c, 9, 46, 127
5, 142080, Note_off_c, 9, 42, 79
5, 142080, Note_on_c, 9, 44, 127
5, 142080, Note_on_c, 9, 36, 79
5, 142080, Note_on_c, 9, 49, 95
5, 143040, Note_off_c, 9, 44, 127
5, 143040, Note_off_c, 9, 36, 79
5, 143040, Note_off_c, 9, 49, 95
5, 143040, Note_on_c, 9, 44, 127
5, 143040, Note_on_c, 9, 40, 79
5, 143040, Note_on_c, 9, 49, 95
5, 144000, Note_off_c, 9, 44, 127
5, 144000, Note_off_c, 9, 40, 79
5, 144000, Note_off_c, 9, 49, 95
5, 144000, Note_on_c, 9, 44, 127
5, 144000, Note_on_c, 9, 36, 79
5, 144000, Note_on_c, 9, 49, 95
5, 144480, Note_off_c, 9, 44, 127
5, 144480, Note_off_c, 9, 36, 79
5, 144480, Note_off_c, 9, 49, 95
5, 144480, Note_on_c, 9, 44, 127
5, 144480, Note_on_c, 9, 36, 79
5, 144960, Note_off_c, 9, 44, 127
5, 144960, Note_off_c, 9, 36, 79
5, 144960, Note_on_c, 9, 44, 127
5, 144960, Note_on_c, 9, 40, 79
5, 144960, Note_on_c, 9, 49, 95
5, 145440, Note_off_c, 9, 44, 127
5, 145440, Note_off_c, 9, 40, 79
5, 145440, Note_off_c, 9, 49, 95
5, 145440, Note_on_c, 9, 46, 127
5, 145440, Note_on_c, 9, 42, 79
5, 145920, Note_off_c, 9, 46, 127
5, 145920, Note_off_c, 9, 42, 79
5, 145920, End_track
0, 0, End_of_file
