0, 0, Header, 1, 17, 120
1, 0, Start_track
1, 0, Title_t, "untitled"
1, 0, SMPTE_offset, 96, 0, 3, 0, 0
1, 0, Time_signature, 4, 2, 24, 8
1, 0, Key_signature, 4, "major"
1, 0, Tempo, 550459
1, 0, End_track
2, 0, Start_track
2, 0, MIDI_port, 0
2, 0, Title_t, "Clarinet"
2, 0, Program_c, 0, 71
2, 0, Control_c, 0, 7, 120
2, 0, Control_c, 0, 10, 125
2, 4380, Note_on_c, 0, 59, 100
2, 4440, Note_on_c, 0, 59, 0
2, 4440, Note_on_c, 0, 68, 100
2, 4500, Note_on_c, 0, 68, 0
2, 4500, Note_on_c, 0, 68, 100
2, 4560, Note_on_c, 0, 68, 0
2, 4560, Note_on_c, 0, 68, 100
2, 4620, Note_on_c, 0, 68, 0
2, 4620, Note_on_c, 0, 66, 100
2, 4680, Note_on_c, 0, 66, 0
2, 4680, Note_on_c, 0, 64, 100
2, 4740, Note_on_c, 0, 64, 0
2, 4740, Note_on_c, 0, 66, 100
2, 4920, Note_on_c, 0, 66, 0
2, 4920, Note_on_c, 0, 61, 100
2, 4980, Note_on_c, 0, 61, 0
2, 4980, Note_on_c, 0, 61, 100
2, 5040, Note_on_c, 0, 61, 0
2, 5040, Note_on_c, 0, 64, 100
2, 5100, Note_on_c, 0, 64, 0
2, 5340, Note_on_c, 0, 59, 100
2, 5400, Note_on_c, 0, 59, 0
2, 5400, Note_on_c, 0, 68, 100
2, 5460, Note_on_c, 0, 68, 0
2, 5460, Note_on_c, 0, 66, 100
2, 5520, Note_on_c, 0, 66, 0
2, 5520, Note_on_c, 0, 68, 100
2, 5580, Note_on_c, 0, 68, 0
2, 5580, Note_on_c, 0, 66, 100
2, 5640, Note_on_c, 0, 66, 0
2, 5820, Note_on_c, 0, 59, 100
2, 5880, Note_on_c, 0, 59, 0
2, 5880, Note_on_c, 0, 64, 100
2, 5940, Note_on_c, 0, 64, 0
2, 5940, Note_on_c, 0, 64, 100
2, 6000, Note_on_c, 0, 64, 0
2, 6000, Note_on_c, 0, 61, 100
2, 6060, Note_on_c, 0, 61, 0
2, 6060, Note_on_c, 0, 64, 100
2, 6120, Note_on_c, 0, 64, 0
2, 6360, Note_on_c, 0, 68, 100
2, 6420, Note_on_c, 0, 68, 0
2, 6420, Note_on_c, 0, 67, 100
2, 6480, Note_on_c, 0, 67, 0
2, 6480, Note_on_c, 0, 67, 100
2, 6540, Note_on_c, 0, 67, 0
2, 6660, Note_on_c, 0, 59, 100
2, 6720, Note_on_c, 0, 59, 0
2, 6720, Note_on_c, 0, 61, 100
2, 6780, Note_on_c, 0, 61, 0
2, 6780, Note_on_c, 0, 64, 100
2, 6840, Note_on_c, 0, 64, 0
2, 6840, Note_on_c, 0, 64, 100
2, 6900, Note_on_c, 0, 64, 0
2, 6900, Note_on_c, 0, 61, 100
2, 6960, Note_on_c, 0, 61, 0
2, 6960, Note_on_c, 0, 64, 100
2, 7080, Note_on_c, 0, 64, 0
2, 7080, Note_on_c, 0, 64, 100
2, 7110, Note_on_c, 0, 64, 0
2, 7140, Note_on_c, 0, 64, 100
2, 7230, Note_on_c, 0, 64, 0
2, 7230, Note_on_c, 0, 61, 100
2, 7260, Note_on_c, 0, 61, 0
2, 7260, Note_on_c, 0, 59, 100
2, 7320, Note_on_c, 0, 59, 0
2, 8220, Note_on_c, 0, 56, 100
2, 8280, Note_on_c, 0, 56, 0
2, 8280, Note_on_c, 0, 68, 100
2, 8340, Note_on_c, 0, 68, 0
2, 8340, Note_on_c, 0, 66, 100
2, 8400, Note_on_c, 0, 66, 0
2, 8400, Note_on_c, 0, 68, 100
2, 8460, Note_on_c, 0, 68, 0
2, 8460, Note_on_c, 0, 66, 100
2, 8520, Note_on_c, 0, 66, 0
2, 8520, Note_on_c, 0, 64, 100
2, 8580, Note_on_c, 0, 64, 0
2, 8580, Note_on_c, 0, 66, 100
2, 8760, Note_on_c, 0, 66, 0
2, 8760, Note_on_c, 0, 64, 100
2, 8820, Note_on_c, 0, 64, 0
2, 8820, Note_on_c, 0, 61, 100
2, 8880, Note_on_c, 0, 61, 0
2, 8880, Note_on_c, 0, 64, 100
2, 8940, Note_on_c, 0, 64, 0
2, 9180, Note_on_c, 0, 59, 100
2, 9240, Note_on_c, 0, 59, 0
2, 9240, Note_on_c, 0, 68, 100
2, 9300, Note_on_c, 0, 68, 0
2, 9300, Note_on_c, 0, 68, 100
2, 9360, Note_on_c, 0, 68, 0
2, 9360, Note_on_c, 0, 68, 100
2, 9420, Note_on_c, 0, 68, 0
2, 9420, Note_on_c, 0, 66, 100
2, 9480, Note_on_c, 0, 66, 0
2, 9660, Note_on_c, 0, 61, 100
2, 9720, Note_on_c, 0, 61, 0
2, 9720, Note_on_c, 0, 64, 100
2, 9780, Note_on_c, 0, 64, 0
2, 9780, Note_on_c, 0, 64, 100
2, 9840, Note_on_c, 0, 64, 0
2, 9840, Note_on_c, 0, 61, 100
2, 9900, Note_on_c, 0, 61, 0
2, 9900, Note_on_c, 0, 64, 100
2, 9960, Note_on_c, 0, 64, 0
2, 10200, Note_on_c, 0, 68, 100
2, 10260, Note_on_c, 0, 68, 0
2, 10260, Note_on_c, 0, 66, 100
2, 10320, Note_on_c, 0, 66, 0
2, 10320, Note_on_c, 0, 68, 100
2, 10380, Note_on_c, 0, 68, 0
2, 10500, Note_on_c, 0, 56, 100
2, 10560, Note_on_c, 0, 56, 0
2, 10560, Note_on_c, 0, 61, 100
2, 10620, Note_on_c, 0, 61, 0
2, 10620, Note_on_c, 0, 61, 100
2, 10680, Note_on_c, 0, 61, 0
2, 10680, Note_on_c, 0, 64, 100
2, 10740, Note_on_c, 0, 64, 0
2, 10740, Note_on_c, 0, 61, 100
2, 10800, Note_on_c, 0, 61, 0
2, 10800, Note_on_c, 0, 64, 100
2, 10920, Note_on_c, 0, 64, 0
2, 10920, Note_on_c, 0, 64, 100
2, 10980, Note_on_c, 0, 64, 0
2, 10980, Note_on_c, 0, 64, 100
2, 11040, Note_on_c, 0, 64, 0
2, 11040, Note_on_c, 0, 61, 100
2, 11070, Note_on_c, 0, 61, 0
2, 11070, Note_on_c, 0, 59, 100
2, 11160, Note_on_c, 0, 59, 0
2, 11880, Note_on_c, 0, 64, 100
2, 11940, Note_on_c, 0, 64, 0
2, 11940, Note_on_c, 0, 61, 100
2, 12000, Note_on_c, 0, 61, 0
2, 12000, Note_on_c, 0, 64, 100
2, 12120, Note_on_c, 0, 64, 0
2, 12120, Note_on_c, 0, 64, 100
2, 12180, Note_on_c, 0, 64, 0
2, 12180, Note_on_c, 0, 64, 100
2, 12240, Note_on_c, 0, 64, 0
2, 12360, Note_on_c, 0, 64, 100
2, 12420, Note_on_c, 0, 64, 0
2, 12420, Note_on_c, 0, 61, 100
2, 12480, Note_on_c, 0, 61, 0
2, 12480, Note_on_c, 0, 64, 100
2, 12600, Note_on_c, 0, 64, 0
2, 12600, Note_on_c, 0, 64, 100
2, 12660, Note_on_c, 0, 64, 0
2, 12660, Note_on_c, 0, 64, 100
2, 12720, Note_on_c, 0, 64, 0
2, 12840, Note_on_c, 0, 64, 100
2, 12900, Note_on_c, 0, 64, 0
2, 12900, Note_on_c, 0, 61, 100
2, 12960, Note_on_c, 0, 61, 0
2, 12960, Note_on_c, 0, 64, 100
2, 13080, Note_on_c, 0, 64, 0
2, 13080, Note_on_c, 0, 66, 100
2, 13140, Note_on_c, 0, 66, 0
2, 13140, Note_on_c, 0, 64, 100
2, 13200, Note_on_c, 0, 64, 0
2, 13380, Note_on_c, 0, 61, 100
2, 13440, Note_on_c, 0, 61, 0
2, 13440, Note_on_c, 0, 64, 100
2, 13500, Note_on_c, 0, 64, 0
2, 13500, Note_on_c, 0, 64, 100
2, 13620, Note_on_c, 0, 64, 0
2, 13620, Note_on_c, 0, 64, 100
2, 13650, Note_on_c, 0, 64, 0
2, 13650, Note_on_c, 0, 61, 100
2, 13680, Note_on_c, 0, 61, 0
2, 13680, Note_on_c, 0, 59, 100
2, 13740, Note_on_c, 0, 59, 0
2, 13800, Note_on_c, 0, 59, 100
2, 13860, Note_on_c, 0, 59, 0
2, 13860, Note_on_c, 0, 63, 100
2, 14160, Note_on_c, 0, 63, 0
2, 14460, Note_on_c, 0, 59, 100
2, 14520, Note_on_c, 0, 59, 0
2, 14520, Note_on_c, 0, 67, 100
2, 14580, Note_on_c, 0, 67, 0
2, 14580, Note_on_c, 0, 67, 100
2, 14640, Note_on_c, 0, 67, 0
2, 14640, Note_on_c, 0, 67, 100
2, 14700, Note_on_c, 0, 67, 0
2, 14700, Note_on_c, 0, 66, 100
2, 14760, Note_on_c, 0, 66, 0
2, 14820, Note_on_c, 0, 64, 100
2, 14880, Note_on_c, 0, 64, 0
2, 14880, Note_on_c, 0, 66, 100
2, 15000, Note_on_c, 0, 66, 0
2, 15000, Note_on_c, 0, 64, 100
2, 15060, Note_on_c, 0, 64, 0
2, 15060, Note_on_c, 0, 61, 100
2, 15180, Note_on_c, 0, 61, 0
2, 15180, Note_on_c, 0, 64, 100
2, 15240, Note_on_c, 0, 64, 0
2, 15420, Note_on_c, 0, 52, 100
2, 15480, Note_on_c, 0, 52, 0
2, 15480, Note_on_c, 0, 67, 100
2, 15540, Note_on_c, 0, 67, 0
2, 15540, Note_on_c, 0, 67, 100
2, 15600, Note_on_c, 0, 67, 0
2, 15600, Note_on_c, 0, 67, 100
2, 15660, Note_on_c, 0, 67, 0
2, 15660, Note_on_c, 0, 66, 100
2, 15690, Note_on_c, 0, 66, 0
2, 15900, Note_on_c, 0, 61, 100
2, 15960, Note_on_c, 0, 61, 0
2, 15960, Note_on_c, 0, 64, 100
2, 16020, Note_on_c, 0, 64, 0
2, 16020, Note_on_c, 0, 64, 100
2, 16080, Note_on_c, 0, 64, 0
2, 16080, Note_on_c, 0, 69, 100
2, 16140, Note_on_c, 0, 69, 0
2, 16140, Note_on_c, 0, 61, 100
2, 16200, Note_on_c, 0, 61, 0
2, 16320, Note_on_c, 0, 67, 100
2, 16380, Note_on_c, 0, 67, 0
2, 16380, Note_on_c, 0, 68, 100
2, 16440, Note_on_c, 0, 68, 0
2, 16440, Note_on_c, 0, 67, 100
2, 16500, Note_on_c, 0, 67, 0
2, 16500, Note_on_c, 0, 64, 100
2, 16560, Note_on_c, 0, 64, 0
2, 16560, Note_on_c, 0, 66, 100
2, 16600, Note_on_c, 0, 66, 0
2, 16600, Note_on_c, 0, 63, 100
2, 16640, Note_on_c, 0, 63, 0
2, 16640, Note_on_c, 0, 59, 100
2, 16680, Note_on_c, 0, 59, 0
2, 16800, Note_on_c, 0, 68, 100
2, 16860, Note_on_c, 0, 68, 0
2, 16860, Note_on_c, 0, 59, 100
2, 16920, Note_on_c, 0, 59, 0
2, 16920, Note_on_c, 0, 59, 100
2, 16980, Note_on_c, 0, 59, 0
2, 16980, Note_on_c, 0, 57, 100
2, 17040, Note_on_c, 0, 57, 0
2, 17040, Note_on_c, 0, 61, 100
2, 17100, Note_on_c, 0, 61, 0
2, 17100, Note_on_c, 0, 64, 100
2, 17160, Note_on_c, 0, 64, 0
2, 17160, Note_on_c, 0, 64, 100
2, 17220, Note_on_c, 0, 64, 0
2, 17220, Note_on_c, 0, 64, 100
2, 17250, Note_on_c, 0, 64, 0
2, 17250, Note_on_c, 0, 64, 100
2, 17310, Note_on_c, 0, 64, 0
2, 17310, Note_on_c, 0, 61, 100
2, 17340, Note_on_c, 0, 61, 0
2, 17340, Note_on_c, 0, 59, 100
2, 17580, Note_on_c, 0, 59, 0
2, 17580, Note_on_c, 0, 61, 100
2, 17640, Note_on_c, 0, 61, 0
2, 18120, Note_on_c, 0, 64, 100
2, 18180, Note_on_c, 0, 64, 0
2, 18180, Note_on_c, 0, 61, 100
2, 18240, Note_on_c, 0, 61, 0
2, 18240, Note_on_c, 0, 64, 100
2, 18360, Note_on_c, 0, 64, 0
2, 18360, Note_on_c, 0, 64, 100
2, 18420, Note_on_c, 0, 64, 0
2, 18420, Note_on_c, 0, 64, 100
2, 18480, Note_on_c, 0, 64, 0
2, 18600, Note_on_c, 0, 64, 100
2, 18660, Note_on_c, 0, 64, 0
2, 18660, Note_on_c, 0, 61, 100
2, 18720, Note_on_c, 0, 61, 0
2, 18720, Note_on_c, 0, 64, 100
2, 18840, Note_on_c, 0, 64, 0
2, 18840, Note_on_c, 0, 66, 100
2, 18900, Note_on_c, 0, 66, 0
2, 18900, Note_on_c, 0, 64, 100
2, 18960, Note_on_c, 0, 64, 0
2, 19080, Note_on_c, 0, 64, 100
2, 19140, Note_on_c, 0, 64, 0
2, 19140, Note_on_c, 0, 61, 100
2, 19200, Note_on_c, 0, 61, 0
2, 19200, Note_on_c, 0, 64, 100
2, 19260, Note_on_c, 0, 64, 0
2, 19320, Note_on_c, 0, 66, 100
2, 19380, Note_on_c, 0, 66, 0
2, 19380, Note_on_c, 0, 64, 100
2, 19440, Note_on_c, 0, 64, 0
2, 19620, Note_on_c, 0, 61, 100
2, 19680, Note_on_c, 0, 61, 0
2, 19680, Note_on_c, 0, 64, 100
2, 19740, Note_on_c, 0, 64, 0
2, 19740, Note_on_c, 0, 66, 100
2, 19860, Note_on_c, 0, 66, 0
2, 19860, Note_on_c, 0, 64, 100
2, 19920, Note_on_c, 0, 64, 0
2, 20040, Note_on_c, 0, 61, 100
2, 20100, Note_on_c, 0, 61, 0
2, 20100, Note_on_c, 0, 63, 100
2, 20520, Note_on_c, 0, 63, 0
2, 20700, Note_on_c, 0, 68, 100
2, 20820, Note_on_c, 0, 68, 0
2, 20820, Note_on_c, 0, 67, 100
2, 20880, Note_on_c, 0, 67, 0
2, 20880, Note_on_c, 0, 68, 100
2, 20940, Note_on_c, 0, 68, 0
2, 20940, Note_on_c, 0, 68, 100
2, 21000, Note_on_c, 0, 68, 0
2, 21000, Note_on_c, 0, 66, 100
2, 21060, Note_on_c, 0, 66, 0
2, 21060, Note_on_c, 0, 67, 100
2, 21120, Note_on_c, 0, 67, 0
2, 21120, Note_on_c, 0, 66, 100
2, 21180, Note_on_c, 0, 66, 0
2, 28350, Note_on_c, 0, 59, 100
2, 28380, Note_on_c, 0, 59, 0
2, 28380, Note_on_c, 0, 63, 100
2, 28410, Note_on_c, 0, 63, 0
2, 28410, Note_on_c, 0, 52, 100
2, 28440, Note_on_c, 0, 52, 0
2, 28680, Note_on_c, 0, 64, 100
2, 28710, Note_on_c, 0, 64, 0
2, 28710, Note_on_c, 0, 59, 100
2, 28770, Note_on_c, 0, 59, 0
2, 28800, Note_on_c, 0, 64, 100
2, 28830, Note_on_c, 0, 64, 0
2, 28830, Note_on_c, 0, 64, 100
2, 28860, Note_on_c, 0, 64, 0
2, 28860, Note_on_c, 0, 64, 100
2, 28920, Note_on_c, 0, 64, 0
2, 29400, Note_on_c, 0, 64, 100
2, 29460, Note_on_c, 0, 64, 0
2, 29460, Note_on_c, 0, 64, 100
2, 29520, Note_on_c, 0, 64, 0
2, 29520, Note_on_c, 0, 61, 100
2, 29580, Note_on_c, 0, 61, 0
2, 29760, Note_on_c, 0, 64, 100
2, 29790, Note_on_c, 0, 64, 0
2, 29790, Note_on_c, 0, 64, 100
2, 29820, Note_on_c, 0, 64, 0
2, 29820, Note_on_c, 0, 64, 100
2, 29880, Note_on_c, 0, 64, 0
2, 30060, Note_on_c, 0, 64, 100
2, 30090, Note_on_c, 0, 64, 0
2, 30090, Note_on_c, 0, 64, 100
2, 30150, Note_on_c, 0, 64, 0
2, 30150, Note_on_c, 0, 68, 100
2, 30240, Note_on_c, 0, 68, 0
2, 30240, Note_on_c, 0, 61, 100
2, 30300, Note_on_c, 0, 61, 0
2, 30300, Note_on_c, 0, 64, 100
2, 30360, Note_on_c, 0, 64, 0
2, 30360, Note_on_c, 0, 64, 100
2, 30420, Note_on_c, 0, 64, 0
2, 30420, Note_on_c, 0, 61, 100
2, 30480, Note_on_c, 0, 61, 0
2, 30660, Note_on_c, 0, 59, 100
2, 30720, Note_on_c, 0, 59, 0
2, 30720, Note_on_c, 0, 64, 100
2, 30780, Note_on_c, 0, 64, 0
2, 30780, Note_on_c, 0, 64, 100
2, 30840, Note_on_c, 0, 64, 0
2, 30840, Note_on_c, 0, 61, 100
2, 30900, Note_on_c, 0, 61, 0
2, 30960, Note_on_c, 0, 64, 100
2, 31020, Note_on_c, 0, 64, 0
2, 31020, Note_on_c, 0, 64, 100
2, 31080, Note_on_c, 0, 64, 0
2, 31080, Note_on_c, 0, 61, 100
2, 31140, Note_on_c, 0, 61, 0
2, 31200, Note_on_c, 0, 61, 100
2, 31230, Note_on_c, 0, 61, 0
2, 31230, Note_on_c, 0, 64, 100
2, 31260, Note_on_c, 0, 64, 0
2, 31260, Note_on_c, 0, 64, 100
2, 31380, Note_on_c, 0, 64, 0
2, 31380, Note_on_c, 0, 61, 100
2, 31440, Note_on_c, 0, 61, 0
2, 31440, Note_on_c, 0, 64, 100
2, 31560, Note_on_c, 0, 64, 0
2, 31560, Note_on_c, 0, 64, 100
2, 31620, Note_on_c, 0, 64, 0
2, 31620, Note_on_c, 0, 64, 100
2, 31680, Note_on_c, 0, 64, 0
2, 31680, Note_on_c, 0, 61, 100
2, 31710, Note_on_c, 0, 61, 0
2, 31710, Note_on_c, 0, 59, 100
2, 31800, Note_on_c, 0, 59, 0
2, 32040, Note_on_c, 0, 67, 100
2, 32100, Note_on_c, 0, 67, 0
2, 32100, Note_on_c, 0, 66, 100
2, 32160, Note_on_c, 0, 66, 0
2, 32640, Note_on_c, 0, 68, 100
2, 32760, Note_on_c, 0, 68, 0
2, 32760, Note_on_c, 0, 67, 100
2, 32820, Note_on_c, 0, 67, 0
2, 32820, Note_on_c, 0, 67, 100
2, 32850, Note_on_c, 0, 67, 0
2, 32850, Note_on_c, 0, 68, 100
2, 32940, Note_on_c, 0, 68, 0
2, 33000, Note_on_c, 0, 64, 100
2, 33060, Note_on_c, 0, 64, 0
2, 33060, Note_on_c, 0, 61, 100
2, 33120, Note_on_c, 0, 61, 0
2, 33120, Note_on_c, 0, 64, 100
2, 33180, Note_on_c, 0, 64, 0
2, 33180, Note_on_c, 0, 64, 100
2, 33240, Note_on_c, 0, 64, 0
2, 33240, Note_on_c, 0, 61, 100
2, 33300, Note_on_c, 0, 61, 0
2, 33600, Note_on_c, 0, 64, 100
2, 33630, Note_on_c, 0, 64, 0
2, 33630, Note_on_c, 0, 64, 100
2, 33660, Note_on_c, 0, 64, 0
2, 33660, Note_on_c, 0, 64, 100
2, 33720, Note_on_c, 0, 64, 0
2, 33720, Note_on_c, 0, 67, 100
2, 33780, Note_on_c, 0, 67, 0
2, 33780, Note_on_c, 0, 59, 100
2, 33840, Note_on_c, 0, 59, 0
2, 33960, Note_on_c, 0, 64, 100
2, 34020, Note_on_c, 0, 64, 0
2, 34020, Note_on_c, 0, 61, 100
2, 34080, Note_on_c, 0, 61, 0
2, 34080, Note_on_c, 0, 64, 100
2, 34120, Note_on_c, 0, 64, 0
2, 34120, Note_on_c, 0, 64, 100
2, 34140, Note_on_c, 0, 64, 0
2, 34140, Note_on_c, 0, 61, 100
2, 34200, Note_on_c, 0, 61, 0
2, 34560, Note_on_c, 0, 64, 100
2, 34620, Note_on_c, 0, 64, 0
2, 34620, Note_on_c, 0, 64, 100
2, 34680, Note_on_c, 0, 64, 0
2, 34680, Note_on_c, 0, 64, 100
2, 34800, Note_on_c, 0, 64, 0
2, 34800, Note_on_c, 0, 68, 100
2, 34860, Note_on_c, 0, 68, 0
2, 34860, Note_on_c, 0, 68, 100
2, 34920, Note_on_c, 0, 68, 0
2, 35040, Note_on_c, 0, 64, 100
2, 35100, Note_on_c, 0, 64, 0
2, 35100, Note_on_c, 0, 64, 100
2, 35160, Note_on_c, 0, 64, 0
2, 35160, Note_on_c, 0, 64, 100
2, 35220, Note_on_c, 0, 64, 0
2, 35220, Note_on_c, 0, 64, 100
2, 35250, Note_on_c, 0, 64, 0
2, 35250, Note_on_c, 0, 59, 100
2, 35280, Note_on_c, 0, 59, 0
2, 35280, Note_on_c, 0, 57, 100
2, 35340, Note_on_c, 0, 57, 0
2, 35520, Note_on_c, 0, 64, 100
2, 35580, Note_on_c, 0, 64, 0
2, 35580, Note_on_c, 0, 64, 100
2, 35640, Note_on_c, 0, 64, 0
2, 35640, Note_on_c, 0, 64, 100
2, 35760, Note_on_c, 0, 64, 0
2, 35760, Note_on_c, 0, 66, 100
2, 35820, Note_on_c, 0, 66, 0
2, 35820, Note_on_c, 0, 61, 100
2, 35880, Note_on_c, 0, 61, 0
2, 35880, Note_on_c, 0, 61, 100
2, 35940, Note_on_c, 0, 61, 0
2, 35940, Note_on_c, 0, 59, 100
2, 36000, Note_on_c, 0, 59, 0
2, 36000, Note_on_c, 0, 64, 100
2, 36060, Note_on_c, 0, 64, 0
2, 36060, Note_on_c, 0, 64, 100
2, 36120, Note_on_c, 0, 64, 0
2, 36120, Note_on_c, 0, 64, 100
2, 36180, Note_on_c, 0, 64, 0
2, 36180, Note_on_c, 0, 64, 100
2, 36240, Note_on_c, 0, 64, 0
2, 36240, Note_on_c, 0, 61, 100
2, 36300, Note_on_c, 0, 61, 0
2, 36360, Note_on_c, 0, 66, 100
2, 36420, Note_on_c, 0, 66, 0
2, 36420, Note_on_c, 0, 64, 100
2, 36480, Note_on_c, 0, 64, 0
2, 36480, Note_on_c, 0, 68, 100
2, 36540, Note_on_c, 0, 68, 0
2, 36540, Note_on_c, 0, 68, 100
2, 36600, Note_on_c, 0, 68, 0
2, 36600, Note_on_c, 0, 68, 100
2, 36660, Note_on_c, 0, 68, 0
2, 36900, Note_on_c, 0, 75, 100
2, 36960, Note_on_c, 0, 75, 0
2, 36960, Note_on_c, 0, 64, 100
2, 37020, Note_on_c, 0, 64, 0
2, 37020, Note_on_c, 0, 66, 100
2, 37050, Note_on_c, 0, 66, 0
2, 37050, Note_on_c, 0, 67, 100
2, 37080, Note_on_c, 0, 67, 0
2, 37320, Note_on_c, 0, 66, 100
2, 37380, Note_on_c, 0, 66, 0
2, 37380, Note_on_c, 0, 64, 100
2, 37440, Note_on_c, 0, 64, 0
2, 37440, Note_on_c, 0, 68, 100
2, 37500, Note_on_c, 0, 68, 0
2, 37500, Note_on_c, 0, 68, 100
2, 37560, Note_on_c, 0, 68, 0
2, 37560, Note_on_c, 0, 68, 100
2, 37620, Note_on_c, 0, 68, 0
2, 38280, Note_on_c, 0, 66, 100
2, 38340, Note_on_c, 0, 66, 0
2, 38340, Note_on_c, 0, 64, 100
2, 38400, Note_on_c, 0, 64, 0
2, 38400, Note_on_c, 0, 68, 100
2, 38460, Note_on_c, 0, 68, 0
2, 38460, Note_on_c, 0, 68, 100
2, 38520, Note_on_c, 0, 68, 0
2, 38520, Note_on_c, 0, 68, 100
2, 38580, Note_on_c, 0, 68, 0
2, 38580, Note_on_c, 0, 66, 100
2, 38640, Note_on_c, 0, 66, 0
2, 38640, Note_on_c, 0, 66, 100
2, 38700, Note_on_c, 0, 66, 0
2, 38700, Note_on_c, 0, 66, 100
2, 38760, Note_on_c, 0, 66, 0
2, 38760, Note_on_c, 0, 66, 100
2, 38820, Note_on_c, 0, 66, 0
2, 39060, Note_on_c, 0, 76, 100
2, 39120, Note_on_c, 0, 76, 0
2, 39120, Note_on_c, 0, 68, 100
2, 39180, Note_on_c, 0, 68, 0
2, 39180, Note_on_c, 0, 66, 100
2, 39240, Note_on_c, 0, 66, 0
2, 39240, Note_on_c, 0, 64, 100
2, 39300, Note_on_c, 0, 64, 0
2, 39300, Note_on_c, 0, 66, 100
2, 39360, Note_on_c, 0, 66, 0
2, 39360, Note_on_c, 0, 68, 100
2, 39960, Note_on_c, 0, 68, 0
2, 40380, Note_on_c, 0, 59, 100
2, 40440, Note_on_c, 0, 59, 0
2, 40440, Note_on_c, 0, 68, 100
2, 40500, Note_on_c, 0, 68, 0
2, 40500, Note_on_c, 0, 68, 100
2, 40560, Note_on_c, 0, 68, 0
2, 40560, Note_on_c, 0, 68, 100
2, 40620, Note_on_c, 0, 68, 0
2, 40620, Note_on_c, 0, 66, 100
2, 40680, Note_on_c, 0, 66, 0
2, 40740, Note_on_c, 0, 64, 100
2, 40800, Note_on_c, 0, 64, 0
2, 40800, Note_on_c, 0, 68, 100
2, 40920, Note_on_c, 0, 68, 0
2, 40920, Note_on_c, 0, 64, 100
2, 40980, Note_on_c, 0, 64, 0
2, 40980, Note_on_c, 0, 64, 100
2, 41100, Note_on_c, 0, 64, 0
2, 41100, Note_on_c, 0, 64, 100
2, 41160, Note_on_c, 0, 64, 0
2, 41340, Note_on_c, 0, 59, 100
2, 41400, Note_on_c, 0, 59, 0
2, 41400, Note_on_c, 0, 68, 100
2, 41460, Note_on_c, 0, 68, 0
2, 41460, Note_on_c, 0, 68, 100
2, 41520, Note_on_c, 0, 68, 0
2, 41520, Note_on_c, 0, 68, 100
2, 41580, Note_on_c, 0, 68, 0
2, 41580, Note_on_c, 0, 66, 100
2, 41640, Note_on_c, 0, 66, 0
2, 41700, Note_on_c, 0, 64, 100
2, 41760, Note_on_c, 0, 64, 0
2, 41760, Note_on_c, 0, 66, 100
2, 41880, Note_on_c, 0, 66, 0
2, 41880, Note_on_c, 0, 64, 100
2, 41940, Note_on_c, 0, 64, 0
2, 41940, Note_on_c, 0, 61, 100
2, 42060, Note_on_c, 0, 61, 0
2, 42060, Note_on_c, 0, 64, 100
2, 42120, Note_on_c, 0, 64, 0
2, 42360, Note_on_c, 0, 68, 100
2, 42420, Note_on_c, 0, 68, 0
2, 42420, Note_on_c, 0, 68, 100
2, 42480, Note_on_c, 0, 68, 0
2, 42480, Note_on_c, 0, 66, 100
2, 42540, Note_on_c, 0, 66, 0
2, 42540, Note_on_c, 0, 66, 100
2, 42600, Note_on_c, 0, 66, 0
2, 42600, Note_on_c, 0, 66, 100
2, 42660, Note_on_c, 0, 66, 0
2, 42660, Note_on_c, 0, 66, 100
2, 42720, Note_on_c, 0, 66, 0
2, 42720, Note_on_c, 0, 61, 100
2, 42780, Note_on_c, 0, 61, 0
2, 42780, Note_on_c, 0, 64, 100
2, 42840, Note_on_c, 0, 64, 0
2, 42840, Note_on_c, 0, 64, 100
2, 42900, Note_on_c, 0, 64, 0
2, 42900, Note_on_c, 0, 61, 100
2, 42960, Note_on_c, 0, 61, 0
2, 42960, Note_on_c, 0, 64, 100
2, 43080, Note_on_c, 0, 64, 0
2, 43080, Note_on_c, 0, 66, 100
2, 43140, Note_on_c, 0, 66, 0
2, 43140, Note_on_c, 0, 64, 100
2, 43200, Note_on_c, 0, 64, 0
2, 43200, Note_on_c, 0, 61, 100
2, 43230, Note_on_c, 0, 61, 0
2, 43230, Note_on_c, 0, 59, 100
2, 43560, Note_on_c, 0, 59, 0
2, 44220, Note_on_c, 0, 47, 100
2, 44280, Note_on_c, 0, 47, 0
2, 44280, Note_on_c, 0, 68, 100
2, 44340, Note_on_c, 0, 68, 0
2, 44340, Note_on_c, 0, 68, 100
2, 44400, Note_on_c, 0, 68, 0
2, 44400, Note_on_c, 0, 68, 100
2, 44520, Note_on_c, 0, 68, 0
2, 44580, Note_on_c, 0, 64, 100
2, 44640, Note_on_c, 0, 64, 0
2, 44640, Note_on_c, 0, 66, 100
2, 44760, Note_on_c, 0, 66, 0
2, 44760, Note_on_c, 0, 64, 100
2, 44820, Note_on_c, 0, 64, 0
2, 44820, Note_on_c, 0, 61, 100
2, 44940, Note_on_c, 0, 61, 0
2, 44940, Note_on_c, 0, 64, 100
2, 45000, Note_on_c, 0, 64, 0
2, 45180, Note_on_c, 0, 59, 100
2, 45240, Note_on_c, 0, 59, 0
2, 45240, Note_on_c, 0, 68, 100
2, 45300, Note_on_c, 0, 68, 0
2, 45300, Note_on_c, 0, 68, 100
2, 45360, Note_on_c, 0, 68, 0
2, 45360, Note_on_c, 0, 68, 100
2, 45420, Note_on_c, 0, 68, 0
2, 45420, Note_on_c, 0, 66, 100
2, 45480, Note_on_c, 0, 66, 0
2, 45660, Note_on_c, 0, 61, 100
2, 45720, Note_on_c, 0, 61, 0
2, 45720, Note_on_c, 0, 61, 100
2, 45780, Note_on_c, 0, 61, 0
2, 45780, Note_on_c, 0, 61, 100
2, 45840, Note_on_c, 0, 61, 0
2, 45840, Note_on_c, 0, 66, 100
2, 45900, Note_on_c, 0, 66, 0
2, 45900, Note_on_c, 0, 61, 100
2, 45930, Note_on_c, 0, 61, 0
2, 45930, Note_on_c, 0, 59, 100
2, 45960, Note_on_c, 0, 59, 0
2, 46140, Note_on_c, 0, 47, 100
2, 46200, Note_on_c, 0, 47, 0
2, 46200, Note_on_c, 0, 66, 100
2, 46260, Note_on_c, 0, 66, 0
2, 46260, Note_on_c, 0, 66, 100
2, 46320, Note_on_c, 0, 66, 0
2, 46320, Note_on_c, 0, 68, 100
2, 46380, Note_on_c, 0, 68, 0
2, 46380, Note_on_c, 0, 73, 100
2, 46440, Note_on_c, 0, 73, 0
2, 46500, Note_on_c, 0, 59, 100
2, 46560, Note_on_c, 0, 59, 0
2, 46560, Note_on_c, 0, 61, 100
2, 46620, Note_on_c, 0, 61, 0
2, 46620, Note_on_c, 0, 64, 100
2, 46680, Note_on_c, 0, 64, 0
2, 46680, Note_on_c, 0, 64, 100
2, 46740, Note_on_c, 0, 64, 0
2, 46800, Note_on_c, 0, 64, 100
2, 46920, Note_on_c, 0, 64, 0
2, 46920, Note_on_c, 0, 64, 100
2, 46980, Note_on_c, 0, 64, 0
2, 46980, Note_on_c, 0, 64, 100
2, 47040, Note_on_c, 0, 64, 0
2, 47040, Note_on_c, 0, 61, 100
2, 47070, Note_on_c, 0, 61, 0
2, 47070, Note_on_c, 0, 59, 100
2, 47160, Note_on_c, 0, 59, 0
2, 47460, Note_on_c, 0, 67, 100
2, 47490, Note_on_c, 0, 67, 0
2, 47490, Note_on_c, 0, 66, 100
2, 47520, Note_on_c, 0, 66, 0
2, 48120, Note_on_c, 0, 68, 100
2, 48180, Note_on_c, 0, 68, 0
2, 48180, Note_on_c, 0, 68, 100
2, 48240, Note_on_c, 0, 68, 0
2, 48240, Note_on_c, 0, 68, 100
2, 48360, Note_on_c, 0, 68, 0
2, 48420, Note_on_c, 0, 64, 100
2, 48480, Note_on_c, 0, 64, 0
2, 48480, Note_on_c, 0, 66, 100
2, 48600, Note_on_c, 0, 66, 0
2, 48600, Note_on_c, 0, 64, 100
2, 48660, Note_on_c, 0, 64, 0
2, 48660, Note_on_c, 0, 64, 100
2, 48780, Note_on_c, 0, 64, 0
2, 48780, Note_on_c, 0, 64, 100
2, 48810, Note_on_c, 0, 64, 0
2, 48810, Note_on_c, 0, 59, 100
2, 48840, Note_on_c, 0, 59, 0
2, 49020, Note_on_c, 0, 57, 100
2, 49080, Note_on_c, 0, 57, 0
2, 49080, Note_on_c, 0, 68, 100
2, 49140, Note_on_c, 0, 68, 0
2, 49140, Note_on_c, 0, 68, 100
2, 49200, Note_on_c, 0, 68, 0
2, 49200, Note_on_c, 0, 64, 100
2, 49260, Note_on_c, 0, 64, 0
2, 49260, Note_on_c, 0, 66, 100
2, 49320, Note_on_c, 0, 66, 0
2, 49500, Note_on_c, 0, 61, 100
2, 49560, Note_on_c, 0, 61, 0
2, 49560, Note_on_c, 0, 64, 100
2, 49620, Note_on_c, 0, 64, 0
2, 49620, Note_on_c, 0, 64, 100
2, 49680, Note_on_c, 0, 64, 0
2, 49680, Note_on_c, 0, 66, 100
2, 49740, Note_on_c, 0, 66, 0
2, 49740, Note_on_c, 0, 64, 100
2, 49800, Note_on_c, 0, 64, 0
2, 50040, Note_on_c, 0, 68, 100
2, 50100, Note_on_c, 0, 68, 0
2, 50100, Note_on_c, 0, 68, 100
2, 50160, Note_on_c, 0, 68, 0
2, 50280, Note_on_c, 0, 66, 100
2, 50340, Note_on_c, 0, 66, 0
2, 50340, Note_on_c, 0, 66, 100
2, 50400, Note_on_c, 0, 66, 0
2, 50400, Note_on_c, 0, 61, 100
2, 50460, Note_on_c, 0, 61, 0
2, 50460, Note_on_c, 0, 64, 100
2, 50520, Note_on_c, 0, 64, 0
2, 50520, Note_on_c, 0, 64, 100
2, 50580, Note_on_c, 0, 64, 0
2, 50580, Note_on_c, 0, 61, 100
2, 50640, Note_on_c, 0, 61, 0
2, 50640, Note_on_c, 0, 64, 100
2, 50760, Note_on_c, 0, 64, 0
2, 50760, Note_on_c, 0, 64, 100
2, 50820, Note_on_c, 0, 64, 0
2, 50820, Note_on_c, 0, 64, 100
2, 50880, Note_on_c, 0, 64, 0
2, 50880, Note_on_c, 0, 61, 100
2, 50910, Note_on_c, 0, 61, 0
2, 50910, Note_on_c, 0, 59, 100
2, 51240, Note_on_c, 0, 59, 0
2, 51240, End_track
3, 0, Start_track
3, 0, MIDI_port, 0
3, 0, Title_t, "Alto Sax"
3, 0, Program_c, 1, 65
3, 0, Control_c, 1, 7, 110
3, 0, Control_c, 1, 10, 35
3, 11880, Note_on_c, 1, 59, 100
3, 11940, Note_on_c, 1, 59, 0
3, 11940, Note_on_c, 1, 59, 100
3, 12000, Note_on_c, 1, 59, 0
3, 12000, Note_on_c, 1, 61, 100
3, 12000, Note_on_c, 1, 68, 100
3, 12060, Note_on_c, 1, 68, 0
3, 12060, Note_on_c, 1, 66, 100
3, 12120, Note_on_c, 1, 66, 0
3, 12120, Note_on_c, 1, 61, 0
3, 12120, Note_on_c, 1, 61, 100
3, 12120, Note_on_c, 1, 66, 100
3, 12180, Note_on_c, 1, 66, 0
3, 12180, Note_on_c, 1, 61, 0
3, 12180, Note_on_c, 1, 61, 100
3, 12180, Note_on_c, 1, 68, 100
3, 12240, Note_on_c, 1, 68, 0
3, 12240, Note_on_c, 1, 61, 0
3, 12360, Note_on_c, 1, 61, 100
3, 12420, Note_on_c, 1, 61, 0
3, 12420, Note_on_c, 1, 61, 100
3, 12480, Note_on_c, 1, 61, 0
3, 12480, Note_on_c, 1, 59, 100
3, 12480, Note_on_c, 1, 68, 100
3, 12600, Note_on_c, 1, 68, 0
3, 12600, Note_on_c, 1, 59, 0
3, 12600, Note_on_c, 1, 59, 100
3, 12600, Note_on_c, 1, 66, 100
3, 12660, Note_on_c, 1, 66, 0
3, 12660, Note_on_c, 1, 59, 0
3, 12660, Note_on_c, 1, 59, 100
3, 12660, Note_on_c, 1, 68, 100
3, 12720, Note_on_c, 1, 68, 0
3, 12720, Note_on_c, 1, 59, 0
3, 12840, Note_on_c, 1, 59, 100
3, 12900, Note_on_c, 1, 59, 0
3, 12900, Note_on_c, 1, 59, 100
3, 12960, Note_on_c, 1, 59, 0
3, 12960, Note_on_c, 1, 59, 100
3, 12960, Note_on_c, 1, 68, 100
3, 13080, Note_on_c, 1, 68, 0
3, 13080, Note_on_c, 1, 59, 0
3, 13080, Note_on_c, 1, 64, 100
3, 13080, Note_on_c, 1, 66, 100
3, 13140, Note_on_c, 1, 66, 0
3, 13140, Note_on_c, 1, 64, 0
3, 13140, Note_on_c, 1, 61, 100
3, 13140, Note_on_c, 1, 68, 100
3, 13200, Note_on_c, 1, 68, 0
3, 13200, Note_on_c, 1, 61, 0
3, 13380, Note_on_c, 1, 61, 100
3, 13440, Note_on_c, 1, 61, 0
3, 13440, Note_on_c, 1, 64, 100
3, 13500, Note_on_c, 1, 64, 0
3, 13500, Note_on_c, 1, 64, 100
3, 13500, Note_on_c, 1, 66, 100
3, 13620, Note_on_c, 1, 66, 0
3, 13620, Note_on_c, 1, 64, 0
3, 13620, Note_on_c, 1, 59, 100
3, 13620, Note_on_c, 1, 64, 100
3, 13680, Note_on_c, 1, 64, 0
3, 13680, Note_on_c, 1, 59, 0
3, 13800, Note_on_c, 1, 59, 100
3, 13800, Note_on_c, 1, 64, 100
3, 13860, Note_on_c, 1, 64, 0
3, 13860, Note_on_c, 1, 59, 0
3, 13860, Note_on_c, 1, 59, 100
3, 13860, Note_on_c, 1, 66, 100
3, 14160, Note_on_c, 1, 66, 0
3, 14160, Note_on_c, 1, 59, 0
3, 18120, Note_on_c, 1, 59, 100
3, 18180, Note_on_c, 1, 59, 0
3, 18180, Note_on_c, 1, 59, 100
3, 18240, Note_on_c, 1, 59, 0
3, 18240, Note_on_c, 1, 61, 100
3, 18240, Note_on_c, 1, 68, 100
3, 18300, Note_on_c, 1, 68, 0
3, 18300, Note_on_c, 1, 66, 100
3, 18360, Note_on_c, 1, 66, 0
3, 18360, Note_on_c, 1, 61, 0
3, 18360, Note_on_c, 1, 61, 100
3, 18360, Note_on_c, 1, 66, 100
3, 18420, Note_on_c, 1, 66, 0
3, 18420, Note_on_c, 1, 61, 0
3, 18420, Note_on_c, 1, 61, 100
3, 18420, Note_on_c, 1, 66, 100
3, 18450, Note_on_c, 1, 66, 0
3, 18450, Note_on_c, 1, 68, 100
3, 18480, Note_on_c, 1, 68, 0
3, 18480, Note_on_c, 1, 61, 0
3, 18600, Note_on_c, 1, 61, 100
3, 18660, Note_on_c, 1, 61, 0
3, 18660, Note_on_c, 1, 61, 100
3, 18720, Note_on_c, 1, 61, 0
3, 18720, Note_on_c, 1, 68, 100
3, 18720, Note_on_c, 1, 59, 100
3, 18840, Note_on_c, 1, 59, 0
3, 18840, Note_on_c, 1, 68, 0
3, 18840, Note_on_c, 1, 66, 100
3, 18840, Note_on_c, 1, 59, 100
3, 18900, Note_on_c, 1, 59, 0
3, 18900, Note_on_c, 1, 66, 0
3, 18900, Note_on_c, 1, 64, 100
3, 18900, Note_on_c, 1, 59, 100
3, 18960, Note_on_c, 1, 59, 0
3, 18960, Note_on_c, 1, 64, 0
3, 19080, Note_on_c, 1, 59, 100
3, 19140, Note_on_c, 1, 59, 0
3, 19140, Note_on_c, 1, 59, 100
3, 19200, Note_on_c, 1, 59, 0
3, 19200, Note_on_c, 1, 61, 100
3, 19200, Note_on_c, 1, 68, 100
3, 19260, Note_on_c, 1, 68, 0
3, 19260, Note_on_c, 1, 61, 0
3, 19320, Note_on_c, 1, 66, 100
3, 19320, Note_on_c, 1, 61, 100
3, 19380, Note_on_c, 1, 61, 0
3, 19380, Note_on_c, 1, 66, 0
3, 19380, Note_on_c, 1, 66, 100
3, 19380, Note_on_c, 1, 61, 100
3, 19440, Note_on_c, 1, 61, 0
3, 19440, Note_on_c, 1, 66, 0
3, 19620, Note_on_c, 1, 61, 100
3, 19680, Note_on_c, 1, 61, 0
3, 19680, Note_on_c, 1, 64, 100
3, 19740, Note_on_c, 1, 64, 0
3, 19740, Note_on_c, 1, 66, 100
3, 19740, Note_on_c, 1, 64, 100
3, 19860, Note_on_c, 1, 64, 0
3, 19860, Note_on_c, 1, 66, 0
3, 19860, Note_on_c, 1, 61, 100
3, 19860, Note_on_c, 1, 68, 100
3, 19890, Note_on_c, 1, 61, 0
3, 19890, Note_on_c, 1, 59, 100
3, 19920, Note_on_c, 1, 59, 0
3, 19920, Note_on_c, 1, 68, 0
3, 20040, Note_on_c, 1, 68, 100
3, 20040, Note_on_c, 1, 61, 100
3, 20100, Note_on_c, 1, 61, 0
3, 20100, Note_on_c, 1, 68, 0
3, 20100, Note_on_c, 1, 59, 100
3, 20100, Note_on_c, 1, 66, 100
3, 20520, Note_on_c, 1, 66, 0
3, 20520, Note_on_c, 1, 59, 0
3, 21120, Note_on_c, 1, 68, 100
3, 21180, Note_on_c, 1, 68, 0
3, 21180, Note_on_c, 1, 68, 100
3, 21240, Note_on_c, 1, 68, 0
3, 21360, Note_on_c, 1, 68, 100
3, 21420, Note_on_c, 1, 68, 0
3, 21420, Note_on_c, 1, 68, 100
3, 21480, Note_on_c, 1, 68, 0
3, 21600, Note_on_c, 1, 66, 100
3, 21660, Note_on_c, 1, 66, 0
3, 21660, Note_on_c, 1, 66, 100
3, 21720, Note_on_c, 1, 66, 0
3, 21720, Note_on_c, 1, 68, 100
3, 21780, Note_on_c, 1, 68, 0
3, 21780, Note_on_c, 1, 73, 100
3, 21840, Note_on_c, 1, 73, 0
3, 21840, Note_on_c, 1, 67, 100
3, 21900, Note_on_c, 1, 67, 0
3, 21900, Note_on_c, 1, 66, 100
3, 22080, Note_on_c, 1, 66, 0
3, 24660, Note_on_c, 1, 76, 100
3, 24720, Note_on_c, 1, 76, 0
3, 24720, Note_on_c, 1, 71, 100
3, 24780, Note_on_c, 1, 71, 0
3, 24840, Note_on_c, 1, 66, 100
3, 24900, Note_on_c, 1, 66, 0
3, 24900, Note_on_c, 1, 64, 100
3, 24960, Note_on_c, 1, 64, 0
3, 24960, Note_on_c, 1, 71, 100
3, 24960, Note_on_c, 1, 68, 100
3, 25020, Note_on_c, 1, 68, 0
3, 25020, Note_on_c, 1, 71, 0
3, 25020, Note_on_c, 1, 71, 100
3, 25020, Note_on_c, 1, 68, 100
3, 25080, Note_on_c, 1, 68, 0
3, 25080, Note_on_c, 1, 71, 0
3, 25080, Note_on_c, 1, 71, 100
3, 25080, Note_on_c, 1, 68, 100
3, 25140, Note_on_c, 1, 68, 0
3, 25140, Note_on_c, 1, 71, 0
3, 25140, Note_on_c, 1, 71, 100
3, 25140, Note_on_c, 1, 68, 100
3, 25200, Note_on_c, 1, 68, 0
3, 25200, Note_on_c, 1, 71, 0
3, 25200, Note_on_c, 1, 71, 100
3, 25200, Note_on_c, 1, 68, 100
3, 25260, Note_on_c, 1, 68, 0
3, 25260, Note_on_c, 1, 71, 0
3, 25260, Note_on_c, 1, 69, 100
3, 25260, Note_on_c, 1, 68, 100
3, 25320, Note_on_c, 1, 68, 0
3, 25320, Note_on_c, 1, 69, 0
3, 25320, Note_on_c, 1, 71, 100
3, 25320, Note_on_c, 1, 68, 100
3, 25380, Note_on_c, 1, 68, 0
3, 25380, Note_on_c, 1, 71, 0
3, 25380, Note_on_c, 1, 68, 100
3, 25440, Note_on_c, 1, 68, 0
3, 25440, Note_on_c, 1, 68, 100
3, 25500, Note_on_c, 1, 68, 0
3, 25500, Note_on_c, 1, 68, 100
3, 25560, Note_on_c, 1, 68, 0
3, 25560, Note_on_c, 1, 68, 100
3, 25620, Note_on_c, 1, 68, 0
3, 25620, Note_on_c, 1, 68, 100
3, 25680, Note_on_c, 1, 68, 0
3, 25680, Note_on_c, 1, 64, 100
3, 25680, Note_on_c, 1, 68, 100
3, 25740, Note_on_c, 1, 68, 0
3, 25740, Note_on_c, 1, 66, 100
3, 25800, Note_on_c, 1, 66, 0
3, 25800, Note_on_c, 1, 64, 0
3, 25920, Note_on_c, 1, 71, 100
3, 25920, Note_on_c, 1, 68, 100
3, 25980, Note_on_c, 1, 68, 0
3, 25980, Note_on_c, 1, 71, 0
3, 25980, Note_on_c, 1, 71, 100
3, 25980, Note_on_c, 1, 68, 100
3, 26040, Note_on_c, 1, 68, 0
3, 26040, Note_on_c, 1, 71, 0
3, 26040, Note_on_c, 1, 71, 100
3, 26040, Note_on_c, 1, 68, 100
3, 26100, Note_on_c, 1, 68, 0
3, 26100, Note_on_c, 1, 71, 0
3, 26100, Note_on_c, 1, 71, 100
3, 26100, Note_on_c, 1, 68, 100
3, 26160, Note_on_c, 1, 68, 0
3, 26160, Note_on_c, 1, 71, 0
3, 26160, Note_on_c, 1, 73, 100
3, 26160, Note_on_c, 1, 68, 100
3, 26220, Note_on_c, 1, 68, 0
3, 26220, Note_on_c, 1, 73, 0
3, 26220, Note_on_c, 1, 68, 100
3, 26280, Note_on_c, 1, 68, 0
3, 26280, Note_on_c, 1, 68, 100
3, 26340, Note_on_c, 1, 68, 0
3, 26340, Note_on_c, 1, 68, 100
3, 26400, Note_on_c, 1, 68, 0
3, 26400, Note_on_c, 1, 68, 100
3, 26460, Note_on_c, 1, 68, 0
3, 26460, Note_on_c, 1, 68, 100
3, 26520, Note_on_c, 1, 68, 0
3, 26520, Note_on_c, 1, 68, 100
3, 26580, Note_on_c, 1, 68, 0
3, 26580, Note_on_c, 1, 68, 100
3, 26640, Note_on_c, 1, 68, 0
3, 26640, Note_on_c, 1, 64, 100
3, 26640, Note_on_c, 1, 68, 100
3, 26700, Note_on_c, 1, 68, 0
3, 26700, Note_on_c, 1, 67, 100
3, 26760, Note_on_c, 1, 67, 0
3, 26760, Note_on_c, 1, 64, 0
3, 26880, Note_on_c, 1, 69, 100
3, 26880, Note_on_c, 1, 78, 100
3, 26940, Note_on_c, 1, 78, 0
3, 26940, Note_on_c, 1, 69, 0
3, 26940, Note_on_c, 1, 71, 100
3, 26940, Note_on_c, 1, 68, 100
3, 27000, Note_on_c, 1, 68, 0
3, 27000, Note_on_c, 1, 66, 100
3, 27060, Note_on_c, 1, 66, 0
3, 27060, Note_on_c, 1, 71, 0
3, 27060, Note_on_c, 1, 70, 100
3, 27060, Note_on_c, 1, 66, 100
3, 27180, Note_on_c, 1, 66, 0
3, 27180, Note_on_c, 1, 70, 0
3, 27180, Note_on_c, 1, 71, 100
3, 27180, Note_on_c, 1, 66, 100
3, 27240, Note_on_c, 1, 66, 0
3, 27240, Note_on_c, 1, 71, 0
3, 27360, Note_on_c, 1, 71, 100
3, 27360, Note_on_c, 1, 66, 100
3, 27420, Note_on_c, 1, 66, 0
3, 27420, Note_on_c, 1, 68, 100
3, 27480, Note_on_c, 1, 68, 0
3, 27480, Note_on_c, 1, 71, 0
3, 27480, Note_on_c, 1, 68, 100
3, 27540, Note_on_c, 1, 68, 0
3, 27540, Note_on_c, 1, 66, 100
3, 27600, Note_on_c, 1, 66, 0
3, 27600, Note_on_c, 1, 64, 100
3, 27720, Note_on_c, 1, 64, 0
3, 27780, Note_on_c, 1, 71, 100
3, 27810, Note_on_c, 1, 64, 100
3, 27840, Note_on_c, 1, 64, 0
3, 27840, Note_on_c, 1, 71, 0
3, 27840, Note_on_c, 1, 68, 100
3, 28200, Note_on_c, 1, 68, 0
3, 36360, Note_on_c, 1, 54, 100
3, 36420, Note_on_c, 1, 54, 0
3, 36420, Note_on_c, 1, 52, 100
3, 36480, Note_on_c, 1, 52, 0
3, 36480, Note_on_c, 1, 56, 100
3, 36540, Note_on_c, 1, 56, 0
3, 36540, Note_on_c, 1, 56, 100
3, 36600, Note_on_c, 1, 56, 0
3, 36600, Note_on_c, 1, 56, 100
3, 36660, Note_on_c, 1, 56, 0
3, 36900, Note_on_c, 1, 73, 100
3, 37020, Note_on_c, 1, 73, 0
3, 37020, Note_on_c, 1, 61, 100
3, 37080, Note_on_c, 1, 61, 0
3, 37080, Note_on_c, 1, 64, 100
3, 37110, Note_on_c, 1, 64, 0
3, 37110, Note_on_c, 1, 66, 100
3, 37140, Note_on_c, 1, 66, 0
3, 37320, Note_on_c, 1, 54, 100
3, 37380, Note_on_c, 1, 54, 0
3, 37380, Note_on_c, 1, 52, 100
3, 37440, Note_on_c, 1, 52, 0
3, 37440, Note_on_c, 1, 56, 100
3, 37500, Note_on_c, 1, 56, 0
3, 37500, Note_on_c, 1, 56, 100
3, 37560, Note_on_c, 1, 56, 0
3, 37560, Note_on_c, 1, 56, 100
3, 37620, Note_on_c, 1, 56, 0
3, 38280, Note_on_c, 1, 54, 100
3, 38340, Note_on_c, 1, 54, 0
3, 38340, Note_on_c, 1, 52, 100
3, 38400, Note_on_c, 1, 52, 0
3, 38400, Note_on_c, 1, 56, 100
3, 38460, Note_on_c, 1, 56, 0
3, 38460, Note_on_c, 1, 56, 100
3, 38520, Note_on_c, 1, 56, 0
3, 38520, Note_on_c, 1, 56, 100
3, 38580, Note_on_c, 1, 56, 0
3, 38580, Note_on_c, 1, 54, 100
3, 38640, Note_on_c, 1, 54, 0
3, 38640, Note_on_c, 1, 54, 100
3, 38700, Note_on_c, 1, 54, 0
3, 38700, Note_on_c, 1, 54, 100
3, 38760, Note_on_c, 1, 54, 0
3, 38760, Note_on_c, 1, 54, 100
3, 38820, Note_on_c, 1, 54, 0
3, 40440, Note_on_c, 1, 61, 100
3, 40500, Note_on_c, 1, 61, 0
3, 40500, Note_on_c, 1, 63, 100
3, 40560, Note_on_c, 1, 63, 0
3, 40560, Note_on_c, 1, 64, 100
3, 40680, Note_on_c, 1, 64, 0
3, 40740, Note_on_c, 1, 61, 100
3, 40800, Note_on_c, 1, 61, 0
3, 40800, Note_on_c, 1, 64, 100
3, 40920, Note_on_c, 1, 64, 0
3, 40920, Note_on_c, 1, 61, 100
3, 40980, Note_on_c, 1, 61, 0
3, 40980, Note_on_c, 1, 61, 100
3, 41100, Note_on_c, 1, 61, 0
3, 41100, Note_on_c, 1, 61, 100
3, 41160, Note_on_c, 1, 61, 0
3, 41400, Note_on_c, 1, 64, 100
3, 41460, Note_on_c, 1, 64, 0
3, 41460, Note_on_c, 1, 66, 100
3, 41520, Note_on_c, 1, 66, 0
3, 41520, Note_on_c, 1, 64, 100
3, 41640, Note_on_c, 1, 64, 0
3, 41700, Note_on_c, 1, 64, 100
3, 41760, Note_on_c, 1, 64, 0
3, 41760, Note_on_c, 1, 64, 100
3, 41880, Note_on_c, 1, 64, 0
3, 41880, Note_on_c, 1, 64, 100
3, 41940, Note_on_c, 1, 64, 0
3, 41940, Note_on_c, 1, 64, 100
3, 42060, Note_on_c, 1, 64, 0
3, 42060, Note_on_c, 1, 64, 100
3, 42120, Note_on_c, 1, 64, 0
3, 42240, Note_on_c, 1, 68, 100
3, 42240, Note_on_c, 1, 64, 100
3, 42300, Note_on_c, 1, 64, 0
3, 42300, Note_on_c, 1, 68, 0
3, 42300, Note_on_c, 1, 68, 100
3, 42300, Note_on_c, 1, 64, 100
3, 42360, Note_on_c, 1, 64, 0
3, 42360, Note_on_c, 1, 68, 0
3, 42480, Note_on_c, 1, 63, 100
3, 42480, Note_on_c, 1, 66, 100
3, 42540, Note_on_c, 1, 66, 0
3, 42540, Note_on_c, 1, 63, 0
3, 42540, Note_on_c, 1, 63, 100
3, 42540, Note_on_c, 1, 66, 100
3, 42600, Note_on_c, 1, 66, 0
3, 42600, Note_on_c, 1, 63, 0
3, 42720, Note_on_c, 1, 59, 100
3, 42780, Note_on_c, 1, 59, 0
3, 42780, Note_on_c, 1, 64, 100
3, 42840, Note_on_c, 1, 64, 0
3, 42840, Note_on_c, 1, 64, 100
3, 42900, Note_on_c, 1, 64, 0
3, 42900, Note_on_c, 1, 61, 100
3, 42960, Note_on_c, 1, 61, 0
3, 42960, Note_on_c, 1, 61, 100
3, 43020, Note_on_c, 1, 61, 0
3, 43020, Note_on_c, 1, 59, 100
3, 43080, Note_on_c, 1, 59, 0
3, 43080, Note_on_c, 1, 59, 100
3, 43140, Note_on_c, 1, 59, 0
3, 43140, Note_on_c, 1, 64, 100
3, 43200, Note_on_c, 1, 64, 0
3, 43200, Note_on_c, 1, 61, 100
3, 43230, Note_on_c, 1, 61, 0
3, 43230, Note_on_c, 1, 59, 100
3, 43560, Note_on_c, 1, 59, 0
3, 44280, Note_on_c, 1, 59, 100
3, 44340, Note_on_c, 1, 59, 0
3, 44340, Note_on_c, 1, 59, 100
3, 44400, Note_on_c, 1, 59, 0
3, 44400, Note_on_c, 1, 63, 100
3, 44520, Note_on_c, 1, 63, 0
3, 44580, Note_on_c, 1, 61, 100
3, 44640, Note_on_c, 1, 61, 0
3, 44640, Note_on_c, 1, 63, 100
3, 44760, Note_on_c, 1, 63, 0
3, 44760, Note_on_c, 1, 61, 100
3, 44820, Note_on_c, 1, 61, 0
3, 44820, Note_on_c, 1, 61, 100
3, 44940, Note_on_c, 1, 61, 0
3, 44940, Note_on_c, 1, 61, 100
3, 45000, Note_on_c, 1, 61, 0
3, 45180, Note_on_c, 1, 59, 100
3, 45240, Note_on_c, 1, 59, 0
3, 45240, Note_on_c, 1, 63, 100
3, 45300, Note_on_c, 1, 63, 0
3, 45300, Note_on_c, 1, 61, 100
3, 45360, Note_on_c, 1, 61, 0
3, 45360, Note_on_c, 1, 64, 100
3, 45420, Note_on_c, 1, 64, 0
3, 45420, Note_on_c, 1, 63, 100
3, 45480, Note_on_c, 1, 63, 0
3, 45660, Note_on_c, 1, 61, 100
3, 45720, Note_on_c, 1, 61, 0
3, 45720, Note_on_c, 1, 68, 100
3, 45780, Note_on_c, 1, 68, 0
3, 45780, Note_on_c, 1, 64, 100
3, 45840, Note_on_c, 1, 64, 0
3, 45840, Note_on_c, 1, 66, 100
3, 45840, Note_on_c, 1, 61, 100
3, 45900, Note_on_c, 1, 61, 0
3, 45900, Note_on_c, 1, 66, 0
3, 45900, Note_on_c, 1, 64, 100
3, 45960, Note_on_c, 1, 64, 0
3, 46200, Note_on_c, 1, 64, 100
3, 46200, Note_on_c, 1, 54, 100
3, 46260, Note_on_c, 1, 54, 0
3, 46260, Note_on_c, 1, 64, 0
3, 46260, Note_on_c, 1, 61, 100
3, 46260, Note_on_c, 1, 54, 100
3, 46320, Note_on_c, 1, 54, 0
3, 46320, Note_on_c, 1, 61, 0
3, 46320, Note_on_c, 1, 64, 100
3, 46320, Note_on_c, 1, 56, 100
3, 46380, Note_on_c, 1, 56, 0
3, 46380, Note_on_c, 1, 64, 0
3, 46500, Note_on_c, 1, 59, 100
3, 46560, Note_on_c, 1, 59, 0
3, 46560, Note_on_c, 1, 61, 100
3, 46620, Note_on_c, 1, 61, 0
3, 46620, Note_on_c, 1, 64, 100
3, 46680, Note_on_c, 1, 64, 0
3, 46680, Note_on_c, 1, 64, 100
3, 46740, Note_on_c, 1, 64, 0
3, 46800, Note_on_c, 1, 64, 100
3, 46920, Note_on_c, 1, 64, 0
3, 46920, Note_on_c, 1, 64, 100
3, 46980, Note_on_c, 1, 64, 0
3, 46980, Note_on_c, 1, 64, 100
3, 47040, Note_on_c, 1, 64, 0
3, 47040, Note_on_c, 1, 61, 100
3, 47070, Note_on_c, 1, 61, 0
3, 47070, Note_on_c, 1, 59, 100
3, 47160, Note_on_c, 1, 59, 0
3, 48120, Note_on_c, 1, 59, 100
3, 48180, Note_on_c, 1, 59, 0
3, 48180, Note_on_c, 1, 61, 100
3, 48240, Note_on_c, 1, 61, 0
3, 48240, Note_on_c, 1, 64, 100
3, 48360, Note_on_c, 1, 64, 0
3, 48420, Note_on_c, 1, 61, 100
3, 48480, Note_on_c, 1, 61, 0
3, 48480, Note_on_c, 1, 63, 100
3, 48600, Note_on_c, 1, 63, 0
3, 48600, Note_on_c, 1, 61, 100
3, 48660, Note_on_c, 1, 61, 0
3, 48660, Note_on_c, 1, 61, 100
3, 48780, Note_on_c, 1, 61, 0
3, 48780, Note_on_c, 1, 61, 100
3, 48810, Note_on_c, 1, 61, 0
3, 49080, Note_on_c, 1, 61, 100
3, 49140, Note_on_c, 1, 61, 0
3, 49140, Note_on_c, 1, 63, 100
3, 49200, Note_on_c, 1, 63, 0
3, 49200, Note_on_c, 1, 61, 100
3, 49260, Note_on_c, 1, 61, 0
3, 49260, Note_on_c, 1, 63, 100
3, 49320, Note_on_c, 1, 63, 0
3, 49560, Note_on_c, 1, 64, 100
3, 49620, Note_on_c, 1, 64, 0
3, 49620, Note_on_c, 1, 61, 100
3, 49680, Note_on_c, 1, 61, 0
3, 49680, Note_on_c, 1, 61, 100
3, 49740, Note_on_c, 1, 61, 0
3, 49740, Note_on_c, 1, 61, 100
3, 49800, Note_on_c, 1, 61, 0
3, 49920, Note_on_c, 1, 68, 100
3, 49920, Note_on_c, 1, 64, 100
3, 49920, Note_on_c, 1, 56, 100
3, 49980, Note_on_c, 1, 56, 0
3, 49980, Note_on_c, 1, 64, 0
3, 49980, Note_on_c, 1, 68, 0
3, 49980, Note_on_c, 1, 68, 100
3, 49980, Note_on_c, 1, 64, 100
3, 49980, Note_on_c, 1, 56, 100
3, 50040, Note_on_c, 1, 56, 0
3, 50040, Note_on_c, 1, 64, 0
3, 50040, Note_on_c, 1, 68, 0
3, 50160, Note_on_c, 1, 66, 100
3, 50160, Note_on_c, 1, 63, 100
3, 50160, Note_on_c, 1, 56, 100
3, 50220, Note_on_c, 1, 56, 0
3, 50220, Note_on_c, 1, 63, 0
3, 50220, Note_on_c, 1, 66, 0
3, 50220, Note_on_c, 1, 66, 100
3, 50220, Note_on_c, 1, 63, 100
3, 50220, Note_on_c, 1, 54, 100
3, 50280, Note_on_c, 1, 54, 0
3, 50280, Note_on_c, 1, 63, 0
3, 50280, Note_on_c, 1, 66, 0
3, 50400, Note_on_c, 1, 61, 100
3, 50460, Note_on_c, 1, 61, 0
3, 50460, Note_on_c, 1, 59, 100
3, 50520, Note_on_c, 1, 59, 0
3, 50520, Note_on_c, 1, 64, 100
3, 50580, Note_on_c, 1, 64, 0
3, 50580, Note_on_c, 1, 61, 100
3, 50640, Note_on_c, 1, 61, 0
3, 50640, Note_on_c, 1, 64, 100
3, 50760, Note_on_c, 1, 64, 0
3, 50760, Note_on_c, 1, 64, 100
3, 50820, Note_on_c, 1, 64, 0
3, 50820, Note_on_c, 1, 64, 100
3, 50880, Note_on_c, 1, 64, 0
3, 50880, Note_on_c, 1, 61, 100
3, 50910, Note_on_c, 1, 61, 0
3, 50910, Note_on_c, 1, 59, 100
3, 51240, Note_on_c, 1, 59, 0
3, 51240, End_track
4, 0, Start_track
4, 0, MIDI_port, 0
4, 0, Title_t, "Jazz Electric"
4, 0, Program_c, 2, 26
4, 0, Control_c, 2, 7, 85
4, 0, Control_c, 2, 10, 120
4, 420, Note_on_c, 2, 66, 100
4, 420, Note_on_c, 2, 63, 100
4, 420, Note_on_c, 2, 54, 100
4, 420, Note_on_c, 2, 47, 100
4, 480, Note_on_c, 2, 63, 0
4, 480, Note_on_c, 2, 66, 0
4, 480, Note_on_c, 2, 68, 100
4, 480, Note_on_c, 2, 64, 100
4, 600, Note_on_c, 2, 64, 0
4, 600, Note_on_c, 2, 47, 0
4, 600, Note_on_c, 2, 54, 0
4, 600, Note_on_c, 2, 68, 0
4, 600, Note_on_c, 2, 68, 100
4, 600, Note_on_c, 2, 64, 100
4, 600, Note_on_c, 2, 59, 100
4, 660, Note_on_c, 2, 59, 0
4, 660, Note_on_c, 2, 64, 0
4, 660, Note_on_c, 2, 68, 0
4, 660, Note_on_c, 2, 68, 100
4, 660, Note_on_c, 2, 64, 100
4, 660, Note_on_c, 2, 59, 100
4, 720, Note_on_c, 2, 59, 0
4, 720, Note_on_c, 2, 64, 0
4, 720, Note_on_c, 2, 68, 0
4, 720, Note_on_c, 2, 68, 100
4, 720, Note_on_c, 2, 64, 100
4, 720, Note_on_c, 2, 59, 100
4, 735, Note_on_c, 2, 59, 0
4, 735, Note_on_c, 2, 64, 0
4, 735, Note_on_c, 2, 68, 0
4, 780, Note_on_c, 2, 71, 100
4, 780, Note_on_c, 2, 66, 100
4, 780, Note_on_c, 2, 63, 100
4, 780, Note_on_c, 2, 59, 100
4, 840, Note_on_c, 2, 59, 0
4, 840, Note_on_c, 2, 71, 0
4, 840, Note_on_c, 2, 66, 0
4, 840, Note_on_c, 2, 63, 0
4, 900, Note_on_c, 2, 68, 100
4, 900, Note_on_c, 2, 64, 100
4, 900, Note_on_c, 2, 61, 100
4, 1020, Note_on_c, 2, 61, 0
4, 1020, Note_on_c, 2, 64, 0
4, 1020, Note_on_c, 2, 68, 0
4, 1020, Note_on_c, 2, 64, 100
4, 1020, Note_on_c, 2, 61, 100
4, 1080, Note_on_c, 2, 61, 0
4, 1080, Note_on_c, 2, 64, 0
4, 1080, Note_on_c, 2, 64, 100
4, 1080, Note_on_c, 2, 61, 100
4, 1095, Note_on_c, 2, 61, 0
4, 1095, Note_on_c, 2, 64, 0
4, 1140, Note_on_c, 2, 64, 100
4, 1140, Note_on_c, 2, 59, 100
4, 1200, Note_on_c, 2, 59, 0
4, 1200, Note_on_c, 2, 64, 0
4, 1200, Note_on_c, 2, 61, 100
4, 1260, Note_on_c, 2, 61, 0
4, 1260, Note_on_c, 2, 71, 100
4, 1260, Note_on_c, 2, 64, 100
4, 1320, Note_on_c, 2, 64, 0
4, 1320, Note_on_c, 2, 71, 0
4, 1380, Note_on_c, 2, 66, 100
4, 1380, Note_on_c, 2, 63, 100
4, 1380, Note_on_c, 2, 59, 100
4, 1440, Note_on_c, 2, 59, 0
4, 1440, Note_on_c, 2, 63, 0
4, 1440, Note_on_c, 2, 66, 0
4, 1440, Note_on_c, 2, 68, 100
4, 1440, Note_on_c, 2, 64, 100
4, 1440, Note_on_c, 2, 59, 100
4, 1620, Note_on_c, 2, 59, 0
4, 1620, Note_on_c, 2, 64, 0
4, 1620, Note_on_c, 2, 68, 0
4, 1620, Note_on_c, 2, 68, 100
4, 1620, Note_on_c, 2, 64, 100
4, 1620, Note_on_c, 2, 59, 100
4, 1680, Note_on_c, 2, 59, 0
4, 1680, Note_on_c, 2, 64, 0
4, 1680, Note_on_c, 2, 68, 0
4, 1740, Note_on_c, 2, 71, 100
4, 1740, Note_on_c, 2, 66, 100
4, 1740, Note_on_c, 2, 63, 100
4, 1740, Note_on_c, 2, 59, 100
4, 1800, Note_on_c, 2, 59, 0
4, 1800, Note_on_c, 2, 71, 0
4, 1800, Note_on_c, 2, 66, 0
4, 1800, Note_on_c, 2, 63, 0
4, 1860, Note_on_c, 2, 68, 100
4, 1860, Note_on_c, 2, 64, 100
4, 1860, Note_on_c, 2, 61, 100
4, 1980, Note_on_c, 2, 61, 0
4, 1980, Note_on_c, 2, 64, 0
4, 1980, Note_on_c, 2, 68, 0
4, 1980, Note_on_c, 2, 61, 100
4, 2040, Note_on_c, 2, 61, 0
4, 2100, Note_on_c, 2, 64, 100
4, 2100, Note_on_c, 2, 59, 100
4, 2160, Note_on_c, 2, 59, 0
4, 2160, Note_on_c, 2, 64, 0
4, 2160, Note_on_c, 2, 61, 100
4, 2220, Note_on_c, 2, 61, 0
4, 2220, Note_on_c, 2, 69, 100
4, 2220, Note_on_c, 2, 64, 100
4, 2250, Note_on_c, 2, 64, 0
4, 2250, Note_on_c, 2, 69, 0
4, 2340, Note_on_c, 2, 66, 100
4, 2340, Note_on_c, 2, 63, 100
4, 2340, Note_on_c, 2, 59, 100
4, 2400, Note_on_c, 2, 59, 0
4, 2400, Note_on_c, 2, 63, 0
4, 2400, Note_on_c, 2, 66, 0
4, 2400, Note_on_c, 2, 68, 100
4, 2400, Note_on_c, 2, 64, 100
4, 2400, Note_on_c, 2, 59, 100
4, 2580, Note_on_c, 2, 59, 0
4, 2580, Note_on_c, 2, 64, 0
4, 2580, Note_on_c, 2, 68, 0
4, 2580, Note_on_c, 2, 68, 100
4, 2580, Note_on_c, 2, 64, 100
4, 2580, Note_on_c, 2, 59, 100
4, 2640, Note_on_c, 2, 59, 0
4, 2640, Note_on_c, 2, 64, 0
4, 2640, Note_on_c, 2, 68, 0
4, 2700, Note_on_c, 2, 71, 100
4, 2700, Note_on_c, 2, 66, 100
4, 2700, Note_on_c, 2, 63, 100
4, 2700, Note_on_c, 2, 59, 100
4, 2730, Note_on_c, 2, 59, 0
4, 2730, Note_on_c, 2, 71, 0
4, 2730, Note_on_c, 2, 66, 0
4, 2730, Note_on_c, 2, 63, 0
4, 2820, Note_on_c, 2, 64, 100
4, 2820, Note_on_c, 2, 61, 100
4, 2940, Note_on_c, 2, 61, 0
4, 2940, Note_on_c, 2, 64, 0
4, 2940, Note_on_c, 2, 64, 100
4, 3000, Note_on_c, 2, 64, 0
4, 3060, Note_on_c, 2, 61, 100
4, 3060, Note_on_c, 2, 57, 100
4, 3120, Note_on_c, 2, 57, 0
4, 3120, Note_on_c, 2, 61, 0
4, 3120, Note_on_c, 2, 64, 100
4, 3120, Note_on_c, 2, 61, 100
4, 3120, Note_on_c, 2, 57, 100
4, 3120, Note_on_c, 2, 52, 100
4, 3120, Note_on_c, 2, 45, 100
4, 3180, Note_on_c, 2, 45, 0
4, 3180, Note_on_c, 2, 57, 0
4, 3180, Note_on_c, 2, 64, 0
4, 3180, Note_on_c, 2, 61, 0
4, 3180, Note_on_c, 2, 52, 0
4, 3180, Note_on_c, 2, 64, 100
4, 3180, Note_on_c, 2, 61, 100
4, 3180, Note_on_c, 2, 57, 100
4, 3240, Note_on_c, 2, 57, 0
4, 3240, Note_on_c, 2, 61, 0
4, 3240, Note_on_c, 2, 64, 0
4, 3240, Note_on_c, 2, 66, 100
4, 3240, Note_on_c, 2, 63, 100
4, 3240, Note_on_c, 2, 59, 100
4, 3300, Note_on_c, 2, 59, 0
4, 3300, Note_on_c, 2, 63, 0
4, 3300, Note_on_c, 2, 66, 0
4, 3300, Note_on_c, 2, 59, 100
4, 3300, Note_on_c, 2, 52, 100
4, 3300, Note_on_c, 2, 40, 100
4, 3540, Note_on_c, 2, 40, 0
4, 3540, Note_on_c, 2, 52, 0
4, 3540, Note_on_c, 2, 59, 0
4, 3540, Note_on_c, 2, 68, 100
4, 3540, Note_on_c, 2, 64, 100
4, 3540, Note_on_c, 2, 59, 100
4, 3540, Note_on_c, 2, 52, 100
4, 3600, Note_on_c, 2, 52, 0
4, 3600, Note_on_c, 2, 68, 0
4, 3600, Note_on_c, 2, 64, 0
4, 3600, Note_on_c, 2, 59, 0
4, 3600, Note_on_c, 2, 40, 100
4, 3660, Note_on_c, 2, 40, 0
4, 3660, Note_on_c, 2, 63, 100
4, 3660, Note_on_c, 2, 59, 100
4, 3660, Note_on_c, 2, 54, 100
4, 3660, Note_on_c, 2, 47, 100
4, 3720, Note_on_c, 2, 47, 0
4, 3720, Note_on_c, 2, 63, 0
4, 3720, Note_on_c, 2, 59, 0
4, 3720, Note_on_c, 2, 54, 0
4, 3780, Note_on_c, 2, 61, 100
4, 3900, Note_on_c, 2, 61, 0
4, 3900, Note_on_c, 2, 68, 100
4, 3900, Note_on_c, 2, 64, 100
4, 3960, Note_on_c, 2, 64, 0
4, 3960, Note_on_c, 2, 68, 0
4, 4020, Note_on_c, 2, 64, 100
4, 4020, Note_on_c, 2, 59, 100
4, 4080, Note_on_c, 2, 59, 0
4, 4080, Note_on_c, 2, 64, 0
4, 4080, Note_on_c, 2, 64, 100
4, 4080, Note_on_c, 2, 61, 100
4, 4140, Note_on_c, 2, 61, 0
4, 4140, Note_on_c, 2, 64, 0
4, 4140, Note_on_c, 2, 68, 100
4, 4140, Note_on_c, 2, 64, 100
4, 4200, Note_on_c, 2, 64, 0
4, 4200, Note_on_c, 2, 68, 0
4, 4260, Note_on_c, 2, 66, 100
4, 4260, Note_on_c, 2, 63, 100
4, 4260, Note_on_c, 2, 59, 100
4, 4320, Note_on_c, 2, 59, 0
4, 4320, Note_on_c, 2, 63, 0
4, 4320, Note_on_c, 2, 66, 0
4, 4320, Note_on_c, 2, 68, 100
4, 4320, Note_on_c, 2, 64, 100
4, 4320, Note_on_c, 2, 59, 100
4, 4500, Note_on_c, 2, 59, 0
4, 4500, Note_on_c, 2, 64, 0
4, 4500, Note_on_c, 2, 68, 0
4, 4500, Note_on_c, 2, 68, 100
4, 4500, Note_on_c, 2, 64, 100
4, 4500, Note_on_c, 2, 59, 100
4, 4560, Note_on_c, 2, 59, 0
4, 4560, Note_on_c, 2, 64, 0
4, 4560, Note_on_c, 2, 68, 0
4, 4560, Note_on_c, 2, 68, 100
4, 4560, Note_on_c, 2, 64, 100
4, 4560, Note_on_c, 2, 59, 100
4, 4620, Note_on_c, 2, 59, 0
4, 4620, Note_on_c, 2, 64, 0
4, 4620, Note_on_c, 2, 68, 0
4, 4620, Note_on_c, 2, 66, 100
4, 4620, Note_on_c, 2, 63, 100
4, 4620, Note_on_c, 2, 59, 100
4, 4680, Note_on_c, 2, 59, 0
4, 4680, Note_on_c, 2, 63, 0
4, 4680, Note_on_c, 2, 66, 0
4, 4740, Note_on_c, 2, 68, 100
4, 4740, Note_on_c, 2, 64, 100
4, 4740, Note_on_c, 2, 61, 100
4, 4920, Note_on_c, 2, 61, 0
4, 4920, Note_on_c, 2, 64, 0
4, 4920, Note_on_c, 2, 68, 0
4, 4980, Note_on_c, 2, 64, 100
4, 4980, Note_on_c, 2, 61, 100
4, 5040, Note_on_c, 2, 61, 0
4, 5040, Note_on_c, 2, 64, 0
4, 5100, Note_on_c, 2, 69, 100
4, 5160, Note_on_c, 2, 69, 0
4, 5160, Note_on_c, 2, 50, 100
4, 5220, Note_on_c, 2, 50, 0
4, 5220, Note_on_c, 2, 66, 100
4, 5220, Note_on_c, 2, 63, 100
4, 5280, Note_on_c, 2, 63, 0
4, 5280, Note_on_c, 2, 66, 0
4, 5280, Note_on_c, 2, 68, 100
4, 5280, Note_on_c, 2, 64, 100
4, 5400, Note_on_c, 2, 64, 0
4, 5400, Note_on_c, 2, 68, 0
4, 5400, Note_on_c, 2, 68, 100
4, 5460, Note_on_c, 2, 68, 0
4, 5460, Note_on_c, 2, 64, 100
4, 5520, Note_on_c, 2, 64, 0
4, 5520, Note_on_c, 2, 68, 100
4, 5580, Note_on_c, 2, 68, 0
4, 5580, Note_on_c, 2, 66, 100
4, 5640, Note_on_c, 2, 66, 0
4, 5640, Note_on_c, 2, 59, 100
4, 5700, Note_on_c, 2, 59, 0
4, 5700, Note_on_c, 2, 61, 100
4, 5760, Note_on_c, 2, 61, 0
4, 5760, Note_on_c, 2, 64, 100
4, 5820, Note_on_c, 2, 64, 0
4, 5820, Note_on_c, 2, 68, 100
4, 5880, Note_on_c, 2, 68, 0
4, 5880, Note_on_c, 2, 64, 100
4, 5940, Note_on_c, 2, 64, 0
4, 5940, Note_on_c, 2, 61, 100
4, 6000, Note_on_c, 2, 61, 0
4, 6000, Note_on_c, 2, 59, 100
4, 6030, Note_on_c, 2, 59, 0
4, 6030, Note_on_c, 2, 61, 100
4, 6060, Note_on_c, 2, 61, 0
4, 6060, Note_on_c, 2, 68, 100
4, 6120, Note_on_c, 2, 68, 0
4, 6180, Note_on_c, 2, 66, 100
4, 6180, Note_on_c, 2, 63, 100
4, 6240, Note_on_c, 2, 63, 0
4, 6240, Note_on_c, 2, 66, 0
4, 6240, Note_on_c, 2, 68, 100
4, 6240, Note_on_c, 2, 64, 100
4, 6360, Note_on_c, 2, 64, 0
4, 6360, Note_on_c, 2, 68, 0
4, 6360, Note_on_c, 2, 68, 100
4, 6420, Note_on_c, 2, 68, 0
4, 6420, Note_on_c, 2, 64, 100
4, 6480, Note_on_c, 2, 64, 0
4, 6480, Note_on_c, 2, 59, 100
4, 6540, Note_on_c, 2, 59, 0
4, 6540, Note_on_c, 2, 59, 100
4, 6600, Note_on_c, 2, 59, 0
4, 6600, Note_on_c, 2, 63, 100
4, 6660, Note_on_c, 2, 63, 0
4, 6660, Note_on_c, 2, 66, 100
4, 6720, Note_on_c, 2, 66, 0
4, 6720, Note_on_c, 2, 61, 100
4, 6780, Note_on_c, 2, 61, 0
4, 6780, Note_on_c, 2, 64, 100
4, 6840, Note_on_c, 2, 64, 0
4, 6840, Note_on_c, 2, 68, 100
4, 6900, Note_on_c, 2, 68, 0
4, 6900, Note_on_c, 2, 61, 100
4, 6960, Note_on_c, 2, 61, 0
4, 6960, Note_on_c, 2, 68, 100
4, 6960, Note_on_c, 2, 64, 100
4, 6960, Note_on_c, 2, 59, 100
4, 7020, Note_on_c, 2, 59, 0
4, 7020, Note_on_c, 2, 64, 0
4, 7020, Note_on_c, 2, 68, 0
4, 7020, Note_on_c, 2, 69, 100
4, 7020, Note_on_c, 2, 61, 100
4, 7080, Note_on_c, 2, 61, 0
4, 7080, Note_on_c, 2, 69, 0
4, 7140, Note_on_c, 2, 66, 100
4, 7140, Note_on_c, 2, 63, 100
4, 7200, Note_on_c, 2, 63, 0
4, 7200, Note_on_c, 2, 66, 0
4, 7200, Note_on_c, 2, 68, 100
4, 7200, Note_on_c, 2, 64, 100
4, 7320, Note_on_c, 2, 64, 0
4, 7320, Note_on_c, 2, 68, 0
4, 7320, Note_on_c, 2, 59, 100
4, 7380, Note_on_c, 2, 59, 0
4, 7380, Note_on_c, 2, 68, 100
4, 7380, Note_on_c, 2, 64, 100
4, 7440, Note_on_c, 2, 64, 0
4, 7440, Note_on_c, 2, 68, 0
4, 7440, Note_on_c, 2, 47, 100
4, 7500, Note_on_c, 2, 47, 0
4, 7500, Note_on_c, 2, 63, 100
4, 7500, Note_on_c, 2, 59, 100
4, 7500, Note_on_c, 2, 54, 100
4, 7500, Note_on_c, 2, 47, 100
4, 7560, Note_on_c, 2, 47, 0
4, 7560, Note_on_c, 2, 63, 0
4, 7560, Note_on_c, 2, 59, 0
4, 7560, Note_on_c, 2, 54, 0
4, 7620, Note_on_c, 2, 49, 100
4, 7740, Note_on_c, 2, 49, 0
4, 7740, Note_on_c, 2, 73, 100
4, 7740, Note_on_c, 2, 68, 100
4, 7740, Note_on_c, 2, 64, 100
4, 7740, Note_on_c, 2, 61, 100
4, 7800, Note_on_c, 2, 61, 0
4, 7800, Note_on_c, 2, 73, 0
4, 7800, Note_on_c, 2, 68, 0
4, 7800, Note_on_c, 2, 64, 0
4, 7920, Note_on_c, 2, 59, 100
4, 7980, Note_on_c, 2, 59, 0
4, 7980, Note_on_c, 2, 61, 100
4, 8040, Note_on_c, 2, 61, 0
4, 8040, Note_on_c, 2, 69, 100
4, 8040, Note_on_c, 2, 64, 100
4, 8070, Note_on_c, 2, 64, 0
4, 8070, Note_on_c, 2, 69, 0
4, 8100, Note_on_c, 2, 66, 100
4, 8100, Note_on_c, 2, 63, 100
4, 8100, Note_on_c, 2, 59, 100
4, 8160, Note_on_c, 2, 59, 0
4, 8160, Note_on_c, 2, 63, 0
4, 8160, Note_on_c, 2, 66, 0
4, 8160, Note_on_c, 2, 68, 100
4, 8160, Note_on_c, 2, 64, 100
4, 8160, Note_on_c, 2, 59, 100
4, 8340, Note_on_c, 2, 59, 0
4, 8340, Note_on_c, 2, 64, 0
4, 8340, Note_on_c, 2, 68, 0
4, 8340, Note_on_c, 2, 68, 100
4, 8340, Note_on_c, 2, 64, 100
4, 8340, Note_on_c, 2, 59, 100
4, 8400, Note_on_c, 2, 59, 0
4, 8400, Note_on_c, 2, 64, 0
4, 8400, Note_on_c, 2, 68, 0
4, 8460, Note_on_c, 2, 66, 100
4, 8460, Note_on_c, 2, 63, 100
4, 8460, Note_on_c, 2, 59, 100
4, 8460, Note_on_c, 2, 54, 100
4, 8460, Note_on_c, 2, 47, 100
4, 8520, Note_on_c, 2, 47, 0
4, 8520, Note_on_c, 2, 59, 0
4, 8520, Note_on_c, 2, 66, 0
4, 8520, Note_on_c, 2, 63, 0
4, 8520, Note_on_c, 2, 54, 0
4, 8580, Note_on_c, 2, 73, 100
4, 8580, Note_on_c, 2, 68, 100
4, 8580, Note_on_c, 2, 64, 100
4, 8580, Note_on_c, 2, 61, 100
4, 8700, Note_on_c, 2, 61, 0
4, 8700, Note_on_c, 2, 73, 0
4, 8700, Note_on_c, 2, 68, 0
4, 8700, Note_on_c, 2, 64, 0
4, 8700, Note_on_c, 2, 73, 100
4, 8700, Note_on_c, 2, 68, 100
4, 8700, Note_on_c, 2, 64, 100
4, 8700, Note_on_c, 2, 61, 100
4, 8760, Note_on_c, 2, 61, 0
4, 8760, Note_on_c, 2, 73, 0
4, 8760, Note_on_c, 2, 68, 0
4, 8760, Note_on_c, 2, 64, 0
4, 8820, Note_on_c, 2, 64, 100
4, 8820, Note_on_c, 2, 59, 100
4, 8880, Note_on_c, 2, 59, 0
4, 8880, Note_on_c, 2, 64, 0
4, 8880, Note_on_c, 2, 61, 100
4, 8940, Note_on_c, 2, 61, 0
4, 8940, Note_on_c, 2, 64, 100
4, 8940, Note_on_c, 2, 59, 100
4, 9000, Note_on_c, 2, 59, 0
4, 9000, Note_on_c, 2, 64, 0
4, 9060, Note_on_c, 2, 66, 100
4, 9060, Note_on_c, 2, 63, 100
4, 9060, Note_on_c, 2, 59, 100
4, 9090, Note_on_c, 2, 59, 0
4, 9090, Note_on_c, 2, 63, 0
4, 9090, Note_on_c, 2, 66, 0
4, 9120, Note_on_c, 2, 40, 100
4, 9240, Note_on_c, 2, 40, 0
4, 9240, Note_on_c, 2, 68, 100
4, 9240, Note_on_c, 2, 64, 100
4, 9240, Note_on_c, 2, 59, 100
4, 9240, Note_on_c, 2, 52, 100
4, 9240, Note_on_c, 2, 40, 100
4, 9300, Note_on_c, 2, 40, 0
4, 9300, Note_on_c, 2, 59, 0
4, 9300, Note_on_c, 2, 68, 0
4, 9300, Note_on_c, 2, 64, 0
4, 9300, Note_on_c, 2, 52, 0
4, 9300, Note_on_c, 2, 68, 100
4, 9300, Note_on_c, 2, 64, 100
4, 9300, Note_on_c, 2, 59, 100
4, 9300, Note_on_c, 2, 52, 100
4, 9360, Note_on_c, 2, 52, 0
4, 9360, Note_on_c, 2, 68, 0
4, 9360, Note_on_c, 2, 64, 0
4, 9360, Note_on_c, 2, 59, 0
4, 9420, Note_on_c, 2, 66, 100
4, 9420, Note_on_c, 2, 63, 100
4, 9420, Note_on_c, 2, 59, 100
4, 9420, Note_on_c, 2, 54, 100
4, 9420, Note_on_c, 2, 47, 100
4, 9480, Note_on_c, 2, 47, 0
4, 9480, Note_on_c, 2, 59, 0
4, 9480, Note_on_c, 2, 66, 0
4, 9480, Note_on_c, 2, 63, 0
4, 9480, Note_on_c, 2, 54, 0
4, 9540, Note_on_c, 2, 73, 100
4, 9540, Note_on_c, 2, 68, 100
4, 9540, Note_on_c, 2, 64, 100
4, 9540, Note_on_c, 2, 61, 100
4, 9660, Note_on_c, 2, 61, 0
4, 9660, Note_on_c, 2, 73, 0
4, 9660, Note_on_c, 2, 68, 0
4, 9660, Note_on_c, 2, 64, 0
4, 9660, Note_on_c, 2, 73, 100
4, 9660, Note_on_c, 2, 68, 100
4, 9660, Note_on_c, 2, 64, 100
4, 9660, Note_on_c, 2, 61, 100
4, 9720, Note_on_c, 2, 61, 0
4, 9720, Note_on_c, 2, 73, 0
4, 9720, Note_on_c, 2, 68, 0
4, 9720, Note_on_c, 2, 64, 0
4, 9780, Note_on_c, 2, 59, 100
4, 9780, Note_on_c, 2, 57, 100
4, 9780, Note_on_c, 2, 52, 100
4, 9780, Note_on_c, 2, 45, 100
4, 9900, Note_on_c, 2, 45, 0
4, 9900, Note_on_c, 2, 59, 0
4, 9900, Note_on_c, 2, 57, 0
4, 9900, Note_on_c, 2, 52, 0
4, 9900, Note_on_c, 2, 64, 100
4, 9900, Note_on_c, 2, 59, 100
4, 9960, Note_on_c, 2, 59, 0
4, 9960, Note_on_c, 2, 64, 0
4, 9960, Note_on_c, 2, 59, 100
4, 10020, Note_on_c, 2, 59, 0
4, 10020, Note_on_c, 2, 59, 100
4, 10080, Note_on_c, 2, 59, 0
4, 10080, Note_on_c, 2, 40, 100
4, 10260, Note_on_c, 2, 40, 0
4, 10260, Note_on_c, 2, 59, 100
4, 10320, Note_on_c, 2, 59, 0
4, 10380, Note_on_c, 2, 66, 100
4, 10380, Note_on_c, 2, 63, 100
4, 10380, Note_on_c, 2, 59, 100
4, 10380, Note_on_c, 2, 54, 100
4, 10380, Note_on_c, 2, 47, 100
4, 10440, Note_on_c, 2, 47, 0
4, 10440, Note_on_c, 2, 59, 0
4, 10440, Note_on_c, 2, 66, 0
4, 10440, Note_on_c, 2, 63, 0
4, 10440, Note_on_c, 2, 54, 0
4, 10500, Note_on_c, 2, 68, 100
4, 10500, Note_on_c, 2, 61, 100
4, 10620, Note_on_c, 2, 61, 0
4, 10620, Note_on_c, 2, 68, 0
4, 10620, Note_on_c, 2, 73, 100
4, 10620, Note_on_c, 2, 68, 100
4, 10620, Note_on_c, 2, 61, 100
4, 10680, Note_on_c, 2, 61, 0
4, 10680, Note_on_c, 2, 68, 0
4, 10680, Note_on_c, 2, 73, 0
4, 10680, Note_on_c, 2, 45, 100
4, 10740, Note_on_c, 2, 45, 0
4, 10740, Note_on_c, 2, 57, 100
4, 10860, Note_on_c, 2, 57, 0
4, 10860, Note_on_c, 2, 69, 100
4, 10860, Note_on_c, 2, 64, 100
4, 10860, Note_on_c, 2, 61, 100
4, 10860, Note_on_c, 2, 57, 100
4, 10920, Note_on_c, 2, 57, 0
4, 10920, Note_on_c, 2, 69, 0
4, 10920, Note_on_c, 2, 64, 0
4, 10920, Note_on_c, 2, 61, 0
4, 10920, Note_on_c, 2, 59, 100
4, 10980, Note_on_c, 2, 59, 0
4, 10980, Note_on_c, 2, 59, 100
4, 10980, Note_on_c, 2, 52, 100
4, 10980, Note_on_c, 2, 40, 100
4, 11160, Note_on_c, 2, 40, 0
4, 11160, Note_on_c, 2, 52, 0
4, 11160, Note_on_c, 2, 59, 0
4, 11160, Note_on_c, 2, 40, 100
4, 11220, Note_on_c, 2, 40, 0
4, 11220, Note_on_c, 2, 64, 100
4, 11220, Note_on_c, 2, 59, 100
4, 11280, Note_on_c, 2, 59, 0
4, 11280, Note_on_c, 2, 64, 0
4, 11340, Note_on_c, 2, 66, 100
4, 11340, Note_on_c, 2, 63, 100
4, 11340, Note_on_c, 2, 59, 100
4, 11400, Note_on_c, 2, 59, 0
4, 11400, Note_on_c, 2, 63, 0
4, 11400, Note_on_c, 2, 66, 0
4, 11460, Note_on_c, 2, 68, 100
4, 11460, Note_on_c, 2, 61, 100
4, 11580, Note_on_c, 2, 61, 0
4, 11580, Note_on_c, 2, 68, 0
4, 11580, Note_on_c, 2, 73, 100
4, 11580, Note_on_c, 2, 68, 100
4, 11580, Note_on_c, 2, 61, 100
4, 11640, Note_on_c, 2, 61, 0
4, 11640, Note_on_c, 2, 68, 0
4, 11640, Note_on_c, 2, 73, 0
4, 11700, Note_on_c, 2, 55, 100
4, 11700, Note_on_c, 2, 50, 100
4, 11760, Note_on_c, 2, 50, 0
4, 11760, Note_on_c, 2, 55, 0
4, 11760, Note_on_c, 2, 57, 100
4, 11760, Note_on_c, 2, 52, 100
4, 11880, Note_on_c, 2, 52, 0
4, 11880, Note_on_c, 2, 57, 0
4, 11940, Note_on_c, 2, 64, 100
4, 11940, Note_on_c, 2, 59, 100
4, 12000, Note_on_c, 2, 59, 0
4, 12000, Note_on_c, 2, 64, 0
4, 12000, Note_on_c, 2, 45, 100
4, 12060, Note_on_c, 2, 45, 0
4, 12060, Note_on_c, 2, 52, 100
4, 12120, Note_on_c, 2, 52, 0
4, 12120, Note_on_c, 2, 57, 100
4, 12180, Note_on_c, 2, 57, 0
4, 12180, Note_on_c, 2, 61, 100
4, 12420, Note_on_c, 2, 61, 0
4, 12480, Note_on_c, 2, 59, 100
4, 12480, Note_on_c, 2, 56, 100
4, 12480, Note_on_c, 2, 52, 100
4, 12480, Note_on_c, 2, 47, 100
4, 12480, Note_on_c, 2, 40, 100
4, 12660, Note_on_c, 2, 40, 0
4, 12660, Note_on_c, 2, 52, 0
4, 12660, Note_on_c, 2, 59, 0
4, 12660, Note_on_c, 2, 56, 0
4, 12660, Note_on_c, 2, 47, 0
4, 12660, Note_on_c, 2, 64, 100
4, 12660, Note_on_c, 2, 59, 100
4, 12960, Note_on_c, 2, 59, 0
4, 12960, Note_on_c, 2, 64, 0
4, 12960, Note_on_c, 2, 57, 100
4, 12960, Note_on_c, 2, 52, 100
4, 12960, Note_on_c, 2, 45, 100
4, 13140, Note_on_c, 2, 45, 0
4, 13140, Note_on_c, 2, 52, 0
4, 13140, Note_on_c, 2, 57, 0
4, 13140, Note_on_c, 2, 61, 100
4, 13140, Note_on_c, 2, 57, 100
4, 13380, Note_on_c, 2, 57, 0
4, 13380, Note_on_c, 2, 61, 0
4, 13440, Note_on_c, 2, 64, 100
4, 13470, Note_on_c, 2, 64, 0
4, 13470, Note_on_c, 2, 59, 100
4, 13500, Note_on_c, 2, 59, 0
4, 13500, Note_on_c, 2, 56, 100
4, 13560, Note_on_c, 2, 56, 0
4, 13560, Note_on_c, 2, 59, 100
4, 13620, Note_on_c, 2, 59, 0
4, 13620, Note_on_c, 2, 64, 100
4, 13860, Note_on_c, 2, 64, 0
4, 13920, Note_on_c, 2, 63, 100
4, 13980, Note_on_c, 2, 63, 0
4, 13980, Note_on_c, 2, 71, 100
4, 13980, Note_on_c, 2, 66, 100
4, 14040, Note_on_c, 2, 66, 0
4, 14040, Note_on_c, 2, 71, 0
4, 14040, Note_on_c, 2, 47, 100
4, 14100, Note_on_c, 2, 47, 0
4, 14100, Note_on_c, 2, 59, 100
4, 14220, Note_on_c, 2, 59, 0
4, 14220, Note_on_c, 2, 59, 100
4, 14280, Note_on_c, 2, 59, 0
4, 14280, Note_on_c, 2, 61, 100
4, 14340, Note_on_c, 2, 61, 0
4, 14340, Note_on_c, 2, 40, 100
4, 14400, Note_on_c, 2, 59, 100
4, 14400, Note_on_c, 2, 52, 100
4, 14520, Note_on_c, 2, 52, 0
4, 14520, Note_on_c, 2, 59, 0
4, 14520, Note_on_c, 2, 40, 0
4, 14520, Note_on_c, 2, 68, 100
4, 14520, Note_on_c, 2, 64, 100
4, 14520, Note_on_c, 2, 59, 100
4, 14520, Note_on_c, 2, 52, 100
4, 14580, Note_on_c, 2, 52, 0
4, 14580, Note_on_c, 2, 68, 0
4, 14580, Note_on_c, 2, 64, 0
4, 14580, Note_on_c, 2, 59, 0
4, 14580, Note_on_c, 2, 68, 100
4, 14580, Note_on_c, 2, 64, 100
4, 14580, Note_on_c, 2, 59, 100
4, 14580, Note_on_c, 2, 52, 100
4, 14640, Note_on_c, 2, 52, 0
4, 14640, Note_on_c, 2, 68, 0
4, 14640, Note_on_c, 2, 64, 0
4, 14640, Note_on_c, 2, 59, 0
4, 14700, Note_on_c, 2, 63, 100
4, 14700, Note_on_c, 2, 59, 100
4, 14760, Note_on_c, 2, 59, 0
4, 14760, Note_on_c, 2, 63, 0
4, 14820, Note_on_c, 2, 64, 100
4, 14820, Note_on_c, 2, 61, 100
4, 14940, Note_on_c, 2, 61, 0
4, 14940, Note_on_c, 2, 64, 0
4, 14940, Note_on_c, 2, 73, 100
4, 14940, Note_on_c, 2, 68, 100
4, 14940, Note_on_c, 2, 64, 100
4, 14940, Note_on_c, 2, 61, 100
4, 15000, Note_on_c, 2, 61, 0
4, 15000, Note_on_c, 2, 73, 0
4, 15000, Note_on_c, 2, 68, 0
4, 15000, Note_on_c, 2, 64, 0
4, 15060, Note_on_c, 2, 61, 100
4, 15060, Note_on_c, 2, 57, 100
4, 15120, Note_on_c, 2, 57, 0
4, 15120, Note_on_c, 2, 61, 0
4, 15120, Note_on_c, 2, 57, 100
4, 15180, Note_on_c, 2, 57, 0
4, 15180, Note_on_c, 2, 57, 100
4, 15240, Note_on_c, 2, 57, 0
4, 15240, Note_on_c, 2, 59, 100
4, 15300, Note_on_c, 2, 59, 0
4, 15300, Note_on_c, 2, 40, 100
4, 15540, Note_on_c, 2, 40, 0
4, 15540, Note_on_c, 2, 64, 100
4, 15540, Note_on_c, 2, 59, 100
4, 15570, Note_on_c, 2, 59, 0
4, 15570, Note_on_c, 2, 64, 0
4, 15660, Note_on_c, 2, 54, 100
4, 15660, Note_on_c, 2, 47, 100
4, 15720, Note_on_c, 2, 47, 0
4, 15720, Note_on_c, 2, 54, 0
4, 15780, Note_on_c, 2, 64, 100
4, 15780, Note_on_c, 2, 61, 100
4, 15900, Note_on_c, 2, 61, 0
4, 15900, Note_on_c, 2, 64, 0
4, 15900, Note_on_c, 2, 61, 100
4, 15960, Note_on_c, 2, 61, 0
4, 16020, Note_on_c, 2, 64, 100
4, 16020, Note_on_c, 2, 59, 100
4, 16080, Note_on_c, 2, 59, 0
4, 16080, Note_on_c, 2, 64, 0
4, 16080, Note_on_c, 2, 61, 100
4, 16140, Note_on_c, 2, 61, 0
4, 16140, Note_on_c, 2, 69, 100
4, 16140, Note_on_c, 2, 64, 100
4, 16170, Note_on_c, 2, 64, 0
4, 16170, Note_on_c, 2, 69, 0
4, 16260, Note_on_c, 2, 66, 100
4, 16260, Note_on_c, 2, 63, 100
4, 16260, Note_on_c, 2, 59, 100
4, 16440, Note_on_c, 2, 59, 0
4, 16440, Note_on_c, 2, 63, 0
4, 16440, Note_on_c, 2, 66, 0
4, 16440, Note_on_c, 2, 66, 100
4, 16440, Note_on_c, 2, 63, 100
4, 16440, Note_on_c, 2, 59, 100
4, 16500, Note_on_c, 2, 59, 0
4, 16500, Note_on_c, 2, 63, 0
4, 16500, Note_on_c, 2, 66, 0
4, 16500, Note_on_c, 2, 66, 100
4, 16500, Note_on_c, 2, 63, 100
4, 16500, Note_on_c, 2, 59, 100
4, 16560, Note_on_c, 2, 59, 0
4, 16560, Note_on_c, 2, 63, 0
4, 16560, Note_on_c, 2, 66, 0
4, 16620, Note_on_c, 2, 66, 100
4, 16620, Note_on_c, 2, 63, 100
4, 16620, Note_on_c, 2, 59, 100
4, 16680, Note_on_c, 2, 59, 0
4, 16680, Note_on_c, 2, 63, 0
4, 16680, Note_on_c, 2, 66, 0
4, 16740, Note_on_c, 2, 68, 100
4, 16740, Note_on_c, 2, 61, 100
4, 16860, Note_on_c, 2, 61, 0
4, 16860, Note_on_c, 2, 68, 0
4, 16860, Note_on_c, 2, 73, 100
4, 16860, Note_on_c, 2, 68, 100
4, 16920, Note_on_c, 2, 68, 0
4, 16920, Note_on_c, 2, 73, 0
4, 16980, Note_on_c, 2, 64, 100
4, 16980, Note_on_c, 2, 59, 100
4, 17040, Note_on_c, 2, 59, 0
4, 17040, Note_on_c, 2, 64, 0
4, 17040, Note_on_c, 2, 61, 100
4, 17100, Note_on_c, 2, 61, 0
4, 17100, Note_on_c, 2, 69, 100
4, 17100, Note_on_c, 2, 64, 100
4, 17130, Note_on_c, 2, 64, 0
4, 17130, Note_on_c, 2, 69, 0
4, 17220, Note_on_c, 2, 59, 100
4, 17220, Note_on_c, 2, 66, 100
4, 17220, Note_on_c, 2, 63, 100
4, 17280, Note_on_c, 2, 63, 0
4, 17280, Note_on_c, 2, 66, 0
4, 17280, Note_on_c, 2, 68, 100
4, 17280, Note_on_c, 2, 64, 100
4, 17400, Note_on_c, 2, 64, 0
4, 17400, Note_on_c, 2, 68, 0
4, 17400, Note_on_c, 2, 59, 0
4, 17400, Note_on_c, 2, 68, 100
4, 17400, Note_on_c, 2, 64, 100
4, 17400, Note_on_c, 2, 59, 100
4, 17460, Note_on_c, 2, 59, 0
4, 17460, Note_on_c, 2, 64, 0
4, 17460, Note_on_c, 2, 68, 0
4, 17460, Note_on_c, 2, 68, 100
4, 17460, Note_on_c, 2, 64, 100
4, 17460, Note_on_c, 2, 59, 100
4, 17460, Note_on_c, 2, 52, 100
4, 17580, Note_on_c, 2, 52, 0
4, 17580, Note_on_c, 2, 68, 0
4, 17580, Note_on_c, 2, 64, 0
4, 17580, Note_on_c, 2, 59, 0
4, 17580, Note_on_c, 2, 66, 100
4, 17580, Note_on_c, 2, 63, 100
4, 17580, Note_on_c, 2, 59, 100
4, 17580, Note_on_c, 2, 54, 100
4, 17580, Note_on_c, 2, 47, 100
4, 17640, Note_on_c, 2, 47, 0
4, 17640, Note_on_c, 2, 59, 0
4, 17640, Note_on_c, 2, 66, 0
4, 17640, Note_on_c, 2, 63, 0
4, 17640, Note_on_c, 2, 54, 0
4, 17700, Note_on_c, 2, 68, 100
4, 17700, Note_on_c, 2, 64, 100
4, 17700, Note_on_c, 2, 61, 100
4, 17820, Note_on_c, 2, 61, 0
4, 17820, Note_on_c, 2, 64, 0
4, 17820, Note_on_c, 2, 68, 0
4, 17820, Note_on_c, 2, 73, 100
4, 17820, Note_on_c, 2, 68, 100
4, 17820, Note_on_c, 2, 64, 100
4, 17820, Note_on_c, 2, 61, 100
4, 17880, Note_on_c, 2, 61, 0
4, 17880, Note_on_c, 2, 73, 0
4, 17880, Note_on_c, 2, 68, 0
4, 17880, Note_on_c, 2, 64, 0
4, 17940, Note_on_c, 2, 59, 100
4, 17940, Note_on_c, 2, 57, 100
4, 17940, Note_on_c, 2, 52, 100
4, 17940, Note_on_c, 2, 45, 100
4, 18000, Note_on_c, 2, 45, 0
4, 18000, Note_on_c, 2, 59, 0
4, 18000, Note_on_c, 2, 57, 0
4, 18000, Note_on_c, 2, 52, 0
4, 18000, Note_on_c, 2, 61, 100
4, 18060, Note_on_c, 2, 61, 0
4, 18060, Note_on_c, 2, 61, 100
4, 18060, Note_on_c, 2, 57, 100
4, 18060, Note_on_c, 2, 52, 100
4, 18120, Note_on_c, 2, 52, 0
4, 18120, Note_on_c, 2, 57, 0
4, 18120, Note_on_c, 2, 61, 0
4, 18180, Note_on_c, 2, 61, 100
4, 18180, Note_on_c, 2, 57, 100
4, 18180, Note_on_c, 2, 52, 100
4, 18240, Note_on_c, 2, 52, 0
4, 18240, Note_on_c, 2, 57, 0
4, 18240, Note_on_c, 2, 61, 0
4, 18240, Note_on_c, 2, 45, 100
4, 18360, Note_on_c, 2, 45, 0
4, 18360, Note_on_c, 2, 66, 100
4, 18420, Note_on_c, 2, 66, 0
4, 18420, Note_on_c, 2, 64, 100
4, 18600, Note_on_c, 2, 64, 0
4, 18660, Note_on_c, 2, 40, 100
4, 18720, Note_on_c, 2, 40, 0
4, 18720, Note_on_c, 2, 56, 100
4, 18720, Note_on_c, 2, 52, 100
4, 18720, Note_on_c, 2, 47, 100
4, 18780, Note_on_c, 2, 47, 0
4, 18780, Note_on_c, 2, 52, 0
4, 18780, Note_on_c, 2, 56, 0
4, 18780, Note_on_c, 2, 59, 100
4, 18840, Note_on_c, 2, 59, 0
4, 18840, Note_on_c, 2, 66, 100
4, 18900, Note_on_c, 2, 66, 0
4, 18900, Note_on_c, 2, 64, 100
4, 19140, Note_on_c, 2, 64, 0
4, 19140, Note_on_c, 2, 55, 100
4, 19140, Note_on_c, 2, 50, 100
4, 19200, Note_on_c, 2, 50, 0
4, 19200, Note_on_c, 2, 55, 0
4, 19200, Note_on_c, 2, 45, 100
4, 19260, Note_on_c, 2, 45, 0
4, 19260, Note_on_c, 2, 52, 100
4, 19320, Note_on_c, 2, 52, 0
4, 19320, Note_on_c, 2, 57, 100
4, 19380, Note_on_c, 2, 57, 0
4, 19380, Note_on_c, 2, 61, 100
4, 19560, Note_on_c, 2, 61, 0
4, 19620, Note_on_c, 2, 40, 100
4, 19680, Note_on_c, 2, 40, 0
4, 19680, Note_on_c, 2, 56, 100
4, 19680, Note_on_c, 2, 52, 100
4, 19680, Note_on_c, 2, 47, 100
4, 19740, Note_on_c, 2, 47, 0
4, 19740, Note_on_c, 2, 52, 0
4, 19740, Note_on_c, 2, 56, 0
4, 19740, Note_on_c, 2, 59, 100
4, 19800, Note_on_c, 2, 59, 0
4, 19800, Note_on_c, 2, 66, 100
4, 19860, Note_on_c, 2, 66, 0
4, 19860, Note_on_c, 2, 64, 100
4, 20160, Note_on_c, 2, 64, 0
4, 20160, Note_on_c, 2, 63, 100
4, 20160, Note_on_c, 2, 59, 100
4, 20160, Note_on_c, 2, 54, 100
4, 20160, Note_on_c, 2, 47, 100
4, 20340, Note_on_c, 2, 47, 0
4, 20340, Note_on_c, 2, 63, 0
4, 20340, Note_on_c, 2, 59, 0
4, 20340, Note_on_c, 2, 54, 0
4, 20340, Note_on_c, 2, 63, 100
4, 20340, Note_on_c, 2, 59, 100
4, 20340, Note_on_c, 2, 54, 100
4, 20340, Note_on_c, 2, 47, 100
4, 20580, Note_on_c, 2, 47, 0
4, 20580, Note_on_c, 2, 63, 0
4, 20580, Note_on_c, 2, 59, 0
4, 20580, Note_on_c, 2, 54, 0
4, 20580, Note_on_c, 2, 66, 100
4, 20580, Note_on_c, 2, 63, 100
4, 20640, Note_on_c, 2, 63, 0
4, 20640, Note_on_c, 2, 66, 0
4, 20640, Note_on_c, 2, 54, 100
4, 20640, Note_on_c, 2, 47, 100
4, 20760, Note_on_c, 2, 47, 0
4, 20760, Note_on_c, 2, 54, 0
4, 20760, Note_on_c, 2, 59, 100
4, 20820, Note_on_c, 2, 59, 0
4, 20820, Note_on_c, 2, 71, 100
4, 20820, Note_on_c, 2, 66, 100
4, 20940, Note_on_c, 2, 66, 0
4, 20940, Note_on_c, 2, 71, 0
4, 20940, Note_on_c, 2, 64, 100
4, 20940, Note_on_c, 2, 59, 100
4, 21000, Note_on_c, 2, 59, 0
4, 21000, Note_on_c, 2, 64, 0
4, 21000, Note_on_c, 2, 63, 100
4, 21000, Note_on_c, 2, 59, 100
4, 21000, Note_on_c, 2, 54, 100
4, 21000, Note_on_c, 2, 47, 100
4, 21060, Note_on_c, 2, 47, 0
4, 21060, Note_on_c, 2, 63, 0
4, 21060, Note_on_c, 2, 59, 0
4, 21060, Note_on_c, 2, 54, 0
4, 21060, Note_on_c, 2, 40, 100
4, 21120, Note_on_c, 2, 40, 0
4, 21120, Note_on_c, 2, 40, 100
4, 21300, Note_on_c, 2, 40, 0
4, 21300, Note_on_c, 2, 68, 100
4, 21300, Note_on_c, 2, 64, 100
4, 21300, Note_on_c, 2, 59, 100
4, 21360, Note_on_c, 2, 59, 0
4, 21360, Note_on_c, 2, 64, 0
4, 21360, Note_on_c, 2, 68, 0
4, 21420, Note_on_c, 2, 66, 100
4, 21420, Note_on_c, 2, 63, 100
4, 21420, Note_on_c, 2, 59, 100
4, 21480, Note_on_c, 2, 59, 0
4, 21480, Note_on_c, 2, 63, 0
4, 21480, Note_on_c, 2, 66, 0
4, 21540, Note_on_c, 2, 68, 100
4, 21540, Note_on_c, 2, 64, 100
4, 21540, Note_on_c, 2, 61, 100
4, 21660, Note_on_c, 2, 61, 0
4, 21660, Note_on_c, 2, 64, 0
4, 21660, Note_on_c, 2, 68, 0
4, 21660, Note_on_c, 2, 61, 100
4, 21720, Note_on_c, 2, 61, 0
4, 21780, Note_on_c, 2, 59, 100
4, 21840, Note_on_c, 2, 59, 0
4, 21840, Note_on_c, 2, 61, 100
4, 21900, Note_on_c, 2, 61, 0
4, 21900, Note_on_c, 2, 69, 100
4, 21930, Note_on_c, 2, 69, 0
4, 22020, Note_on_c, 2, 66, 100
4, 22020, Note_on_c, 2, 63, 100
4, 22020, Note_on_c, 2, 59, 100
4, 22080, Note_on_c, 2, 63, 0
4, 22080, Note_on_c, 2, 66, 0
4, 22080, Note_on_c, 2, 68, 100
4, 22080, Note_on_c, 2, 64, 100
4, 22260, Note_on_c, 2, 64, 0
4, 22260, Note_on_c, 2, 68, 0
4, 22260, Note_on_c, 2, 59, 0
4, 22260, Note_on_c, 2, 64, 100
4, 22320, Note_on_c, 2, 64, 0
4, 22320, Note_on_c, 2, 64, 100
4, 22380, Note_on_c, 2, 64, 0
4, 22380, Note_on_c, 2, 63, 100
4, 22380, Note_on_c, 2, 59, 100
4, 22440, Note_on_c, 2, 59, 0
4, 22440, Note_on_c, 2, 63, 0
4, 22500, Note_on_c, 2, 64, 100
4, 22500, Note_on_c, 2, 61, 100
4, 22680, Note_on_c, 2, 61, 0
4, 22680, Note_on_c, 2, 64, 0
4, 22740, Note_on_c, 2, 59, 100
4, 22800, Note_on_c, 2, 59, 0
4, 22800, Note_on_c, 2, 61, 100
4, 22860, Note_on_c, 2, 61, 0
4, 22860, Note_on_c, 2, 69, 100
4, 22860, Note_on_c, 2, 64, 100
4, 22890, Note_on_c, 2, 64, 0
4, 22890, Note_on_c, 2, 69, 0
4, 22980, Note_on_c, 2, 66, 100
4, 22980, Note_on_c, 2, 63, 100
4, 22980, Note_on_c, 2, 59, 100
4, 23220, Note_on_c, 2, 59, 0
4, 23220, Note_on_c, 2, 63, 0
4, 23220, Note_on_c, 2, 66, 0
4, 23220, Note_on_c, 2, 71, 100
4, 23220, Note_on_c, 2, 68, 100
4, 23220, Note_on_c, 2, 64, 100
4, 23340, Note_on_c, 2, 64, 0
4, 23340, Note_on_c, 2, 68, 0
4, 23340, Note_on_c, 2, 71, 0
4, 23340, Note_on_c, 2, 66, 100
4, 23340, Note_on_c, 2, 63, 100
4, 23340, Note_on_c, 2, 59, 100
4, 23340, Note_on_c, 2, 54, 100
4, 23340, Note_on_c, 2, 47, 100
4, 23400, Note_on_c, 2, 47, 0
4, 23400, Note_on_c, 2, 59, 0
4, 23400, Note_on_c, 2, 66, 0
4, 23400, Note_on_c, 2, 63, 0
4, 23400, Note_on_c, 2, 54, 0
4, 23460, Note_on_c, 2, 64, 100
4, 23460, Note_on_c, 2, 61, 100
4, 23640, Note_on_c, 2, 61, 0
4, 23640, Note_on_c, 2, 64, 0
4, 23700, Note_on_c, 2, 59, 100
4, 23760, Note_on_c, 2, 59, 0
4, 23760, Note_on_c, 2, 61, 100
4, 23820, Note_on_c, 2, 61, 0
4, 23820, Note_on_c, 2, 69, 100
4, 23820, Note_on_c, 2, 64, 100
4, 23850, Note_on_c, 2, 64, 0
4, 23850, Note_on_c, 2, 69, 0
4, 23940, Note_on_c, 2, 66, 100
4, 23940, Note_on_c, 2, 63, 100
4, 23940, Note_on_c, 2, 59, 100
4, 24000, Note_on_c, 2, 63, 0
4, 24000, Note_on_c, 2, 66, 0
4, 24000, Note_on_c, 2, 68, 100
4, 24000, Note_on_c, 2, 64, 100
4, 24180, Note_on_c, 2, 64, 0
4, 24180, Note_on_c, 2, 68, 0
4, 24180, Note_on_c, 2, 59, 0
4, 24180, Note_on_c, 2, 68, 100
4, 24240, Note_on_c, 2, 68, 0
4, 24240, Note_on_c, 2, 64, 100
4, 24300, Note_on_c, 2, 64, 0
4, 24300, Note_on_c, 2, 59, 100
4, 24360, Note_on_c, 2, 59, 0
4, 24360, Note_on_c, 2, 63, 100
4, 24420, Note_on_c, 2, 63, 0
4, 24420, Note_on_c, 2, 61, 100
4, 24540, Note_on_c, 2, 61, 0
4, 24540, Note_on_c, 2, 61, 100
4, 24600, Note_on_c, 2, 61, 0
4, 24600, Note_on_c, 2, 68, 100
4, 24660, Note_on_c, 2, 68, 0
4, 24660, Note_on_c, 2, 64, 100
4, 24690, Note_on_c, 2, 64, 0
4, 24720, Note_on_c, 2, 59, 100
4, 24750, Note_on_c, 2, 59, 0
4, 24750, Note_on_c, 2, 61, 100
4, 24780, Note_on_c, 2, 61, 0
4, 24780, Note_on_c, 2, 69, 100
4, 24810, Note_on_c, 2, 69, 0
4, 25140, Note_on_c, 2, 68, 100
4, 25140, Note_on_c, 2, 64, 100
4, 25140, Note_on_c, 2, 59, 100
4, 25200, Note_on_c, 2, 59, 0
4, 25200, Note_on_c, 2, 64, 0
4, 25200, Note_on_c, 2, 68, 0
4, 25260, Note_on_c, 2, 66, 100
4, 25260, Note_on_c, 2, 63, 100
4, 25260, Note_on_c, 2, 59, 100
4, 25320, Note_on_c, 2, 59, 0
4, 25320, Note_on_c, 2, 63, 0
4, 25320, Note_on_c, 2, 66, 0
4, 25380, Note_on_c, 2, 61, 100
4, 25500, Note_on_c, 2, 61, 0
4, 25500, Note_on_c, 2, 68, 100
4, 25500, Note_on_c, 2, 64, 100
4, 25560, Note_on_c, 2, 64, 0
4, 25560, Note_on_c, 2, 68, 0
4, 25620, Note_on_c, 2, 61, 100
4, 25635, Note_on_c, 2, 61, 0
4, 25680, Note_on_c, 2, 66, 100
4, 25680, Note_on_c, 2, 63, 100
4, 25680, Note_on_c, 2, 59, 100
4, 25695, Note_on_c, 2, 59, 0
4, 25695, Note_on_c, 2, 63, 0
4, 25695, Note_on_c, 2, 66, 0
4, 25740, Note_on_c, 2, 67, 100
4, 25740, Note_on_c, 2, 64, 100
4, 25740, Note_on_c, 2, 60, 100
4, 25755, Note_on_c, 2, 60, 0
4, 25755, Note_on_c, 2, 64, 0
4, 25755, Note_on_c, 2, 67, 0
4, 25905, Note_on_c, 2, 65, 100
4, 25905, Note_on_c, 2, 68, 100
4, 25905, Note_on_c, 2, 61, 100
4, 25920, Note_on_c, 2, 61, 0
4, 25920, Note_on_c, 2, 68, 0
4, 25920, Note_on_c, 2, 65, 0
4, 25920, Note_on_c, 2, 40, 100
4, 25980, Note_on_c, 2, 40, 0
4, 25980, Note_on_c, 2, 64, 100
4, 26040, Note_on_c, 2, 64, 0
4, 26040, Note_on_c, 2, 68, 100
4, 26040, Note_on_c, 2, 64, 100
4, 26040, Note_on_c, 2, 59, 100
4, 26160, Note_on_c, 2, 59, 0
4, 26160, Note_on_c, 2, 64, 0
4, 26160, Note_on_c, 2, 68, 0
4, 26220, Note_on_c, 2, 66, 100
4, 26220, Note_on_c, 2, 63, 100
4, 26220, Note_on_c, 2, 59, 100
4, 26220, Note_on_c, 2, 54, 100
4, 26220, Note_on_c, 2, 47, 100
4, 26280, Note_on_c, 2, 47, 0
4, 26280, Note_on_c, 2, 59, 0
4, 26280, Note_on_c, 2, 66, 0
4, 26280, Note_on_c, 2, 63, 0
4, 26280, Note_on_c, 2, 54, 0
4, 26340, Note_on_c, 2, 64, 100
4, 26340, Note_on_c, 2, 61, 100
4, 26460, Note_on_c, 2, 61, 0
4, 26460, Note_on_c, 2, 64, 0
4, 26460, Note_on_c, 2, 68, 100
4, 26460, Note_on_c, 2, 64, 100
4, 26460, Note_on_c, 2, 61, 100
4, 26520, Note_on_c, 2, 61, 0
4, 26520, Note_on_c, 2, 64, 0
4, 26520, Note_on_c, 2, 68, 0
4, 26640, Note_on_c, 2, 45, 100
4, 26700, Note_on_c, 2, 45, 0
4, 26700, Note_on_c, 2, 69, 100
4, 26700, Note_on_c, 2, 64, 100
4, 26700, Note_on_c, 2, 61, 100
4, 26700, Note_on_c, 2, 57, 100
4, 26760, Note_on_c, 2, 57, 0
4, 26760, Note_on_c, 2, 69, 0
4, 26760, Note_on_c, 2, 64, 0
4, 26760, Note_on_c, 2, 61, 0
4, 26820, Note_on_c, 2, 47, 100
4, 26880, Note_on_c, 2, 47, 0
4, 26880, Note_on_c, 2, 40, 100
4, 27000, Note_on_c, 2, 40, 0
4, 27000, Note_on_c, 2, 64, 100
4, 27000, Note_on_c, 2, 59, 100
4, 27000, Note_on_c, 2, 52, 100
4, 27120, Note_on_c, 2, 52, 0
4, 27120, Note_on_c, 2, 59, 0
4, 27120, Note_on_c, 2, 64, 0
4, 27120, Note_on_c, 2, 63, 100
4, 27120, Note_on_c, 2, 59, 100
4, 27120, Note_on_c, 2, 54, 100
4, 27120, Note_on_c, 2, 47, 100
4, 27180, Note_on_c, 2, 47, 0
4, 27180, Note_on_c, 2, 63, 0
4, 27180, Note_on_c, 2, 59, 0
4, 27180, Note_on_c, 2, 54, 0
4, 27180, Note_on_c, 2, 63, 100
4, 27180, Note_on_c, 2, 59, 100
4, 27180, Note_on_c, 2, 56, 100
4, 27240, Note_on_c, 2, 56, 0
4, 27240, Note_on_c, 2, 59, 0
4, 27240, Note_on_c, 2, 63, 0
4, 27300, Note_on_c, 2, 61, 100
4, 27420, Note_on_c, 2, 61, 0
4, 27420, Note_on_c, 2, 73, 100
4, 27420, Note_on_c, 2, 68, 100
4, 27480, Note_on_c, 2, 68, 0
4, 27480, Note_on_c, 2, 73, 0
4, 27540, Note_on_c, 2, 64, 100
4, 27540, Note_on_c, 2, 59, 100
4, 27600, Note_on_c, 2, 59, 0
4, 27600, Note_on_c, 2, 64, 0
4, 27600, Note_on_c, 2, 61, 100
4, 27660, Note_on_c, 2, 61, 0
4, 27660, Note_on_c, 2, 69, 100
4, 27660, Note_on_c, 2, 64, 100
4, 27720, Note_on_c, 2, 64, 0
4, 27720, Note_on_c, 2, 69, 0
4, 27780, Note_on_c, 2, 66, 100
4, 27780, Note_on_c, 2, 63, 100
4, 27780, Note_on_c, 2, 59, 100
4, 27840, Note_on_c, 2, 63, 0
4, 27840, Note_on_c, 2, 66, 0
4, 27840, Note_on_c, 2, 68, 100
4, 27840, Note_on_c, 2, 64, 100
4, 27960, Note_on_c, 2, 64, 0
4, 27960, Note_on_c, 2, 68, 0
4, 27960, Note_on_c, 2, 59, 0
4, 27960, Note_on_c, 2, 59, 100
4, 28020, Note_on_c, 2, 59, 0
4, 28020, Note_on_c, 2, 64, 100
4, 28080, Note_on_c, 2, 64, 0
4, 28140, Note_on_c, 2, 66, 100
4, 28140, Note_on_c, 2, 63, 100
4, 28140, Note_on_c, 2, 59, 100
4, 28200, Note_on_c, 2, 59, 0
4, 28200, Note_on_c, 2, 63, 0
4, 28200, Note_on_c, 2, 66, 0
4, 28260, Note_on_c, 2, 68, 100
4, 28260, Note_on_c, 2, 61, 100
4, 28380, Note_on_c, 2, 61, 0
4, 28380, Note_on_c, 2, 68, 0
4, 28380, Note_on_c, 2, 73, 100
4, 28380, Note_on_c, 2, 68, 100
4, 28380, Note_on_c, 2, 61, 100
4, 28440, Note_on_c, 2, 61, 0
4, 28440, Note_on_c, 2, 68, 0
4, 28440, Note_on_c, 2, 73, 0
4, 28500, Note_on_c, 2, 59, 100
4, 28560, Note_on_c, 2, 59, 0
4, 28560, Note_on_c, 2, 61, 100
4, 28620, Note_on_c, 2, 61, 0
4, 28620, Note_on_c, 2, 69, 100
4, 28620, Note_on_c, 2, 64, 100
4, 28680, Note_on_c, 2, 64, 0
4, 28680, Note_on_c, 2, 69, 0
4, 28740, Note_on_c, 2, 66, 100
4, 28740, Note_on_c, 2, 63, 100
4, 28740, Note_on_c, 2, 59, 100
4, 28800, Note_on_c, 2, 63, 0
4, 28800, Note_on_c, 2, 66, 0
4, 28800, Note_on_c, 2, 68, 100
4, 28800, Note_on_c, 2, 64, 100
4, 28980, Note_on_c, 2, 64, 0
4, 28980, Note_on_c, 2, 68, 0
4, 28980, Note_on_c, 2, 59, 0
4, 28980, Note_on_c, 2, 68, 100
4, 28980, Note_on_c, 2, 64, 100
4, 28980, Note_on_c, 2, 59, 100
4, 29100, Note_on_c, 2, 59, 0
4, 29100, Note_on_c, 2, 64, 0
4, 29100, Note_on_c, 2, 68, 0
4, 29100, Note_on_c, 2, 66, 100
4, 29100, Note_on_c, 2, 63, 100
4, 29100, Note_on_c, 2, 59, 100
4, 29160, Note_on_c, 2, 59, 0
4, 29160, Note_on_c, 2, 63, 0
4, 29160, Note_on_c, 2, 66, 0
4, 29220, Note_on_c, 2, 73, 100
4, 29220, Note_on_c, 2, 68, 100
4, 29220, Note_on_c, 2, 64, 100
4, 29220, Note_on_c, 2, 61, 100
4, 29340, Note_on_c, 2, 61, 0
4, 29340, Note_on_c, 2, 73, 0
4, 29340, Note_on_c, 2, 68, 0
4, 29340, Note_on_c, 2, 64, 0
4, 29340, Note_on_c, 2, 64, 100
4, 29340, Note_on_c, 2, 61, 100
4, 29400, Note_on_c, 2, 61, 0
4, 29400, Note_on_c, 2, 64, 0
4, 29460, Note_on_c, 2, 61, 100
4, 29460, Note_on_c, 2, 57, 100
4, 29460, Note_on_c, 2, 52, 100
4, 29460, Note_on_c, 2, 45, 100
4, 29580, Note_on_c, 2, 45, 0
4, 29580, Note_on_c, 2, 61, 0
4, 29580, Note_on_c, 2, 57, 0
4, 29580, Note_on_c, 2, 52, 0
4, 29580, Note_on_c, 2, 45, 100
4, 29640, Note_on_c, 2, 45, 0
4, 29640, Note_on_c, 2, 59, 100
4, 29640, Note_on_c, 2, 47, 100
4, 29700, Note_on_c, 2, 47, 0
4, 29700, Note_on_c, 2, 59, 0
4, 29700, Note_on_c, 2, 59, 100
4, 29700, Note_on_c, 2, 47, 100
4, 29730, Note_on_c, 2, 47, 0
4, 29730, Note_on_c, 2, 59, 0
4, 29730, Note_on_c, 2, 40, 100
4, 29940, Note_on_c, 2, 40, 0
4, 29940, Note_on_c, 2, 40, 100
4, 30000, Note_on_c, 2, 40, 0
4, 30000, Note_on_c, 2, 40, 100
4, 30060, Note_on_c, 2, 40, 0
4, 30060, Note_on_c, 2, 63, 100
4, 30060, Note_on_c, 2, 59, 100
4, 30120, Note_on_c, 2, 59, 0
4, 30120, Note_on_c, 2, 63, 0
4, 30180, Note_on_c, 2, 61, 100
4, 30300, Note_on_c, 2, 61, 0
4, 30300, Note_on_c, 2, 68, 100
4, 30300, Note_on_c, 2, 61, 100
4, 30360, Note_on_c, 2, 61, 0
4, 30360, Note_on_c, 2, 68, 0
4, 30420, Note_on_c, 2, 45, 100
4, 30540, Note_on_c, 2, 45, 0
4, 30540, Note_on_c, 2, 45, 100
4, 30570, Note_on_c, 2, 45, 0
4, 30600, Note_on_c, 2, 47, 100
4, 30630, Note_on_c, 2, 47, 0
4, 30660, Note_on_c, 2, 47, 100
4, 30690, Note_on_c, 2, 47, 0
4, 30690, Note_on_c, 2, 40, 100
4, 30720, Note_on_c, 2, 40, 0
4, 30720, Note_on_c, 2, 40, 100
4, 30900, Note_on_c, 2, 40, 0
4, 30900, Note_on_c, 2, 40, 100
4, 30960, Note_on_c, 2, 40, 0
4, 30960, Note_on_c, 2, 54, 100
4, 30960, Note_on_c, 2, 47, 100
4, 31080, Note_on_c, 2, 54, 0
4, 31140, Note_on_c, 2, 47, 0
4, 31140, Note_on_c, 2, 56, 100
4, 31140, Note_on_c, 2, 49, 100
4, 31320, Note_on_c, 2, 49, 0
4, 31320, Note_on_c, 2, 56, 0
4, 31380, Note_on_c, 2, 52, 100
4, 31380, Note_on_c, 2, 45, 100
4, 31560, Note_on_c, 2, 45, 0
4, 31560, Note_on_c, 2, 52, 0
4, 31560, Note_on_c, 2, 54, 100
4, 31560, Note_on_c, 2, 47, 100
4, 31620, Note_on_c, 2, 47, 0
4, 31620, Note_on_c, 2, 54, 0
4, 31620, Note_on_c, 2, 59, 100
4, 31620, Note_on_c, 2, 52, 100
4, 31620, Note_on_c, 2, 40, 100
4, 31860, Note_on_c, 2, 40, 0
4, 31860, Note_on_c, 2, 52, 0
4, 31860, Note_on_c, 2, 59, 0
4, 31860, Note_on_c, 2, 51, 100
4, 31920, Note_on_c, 2, 51, 0
4, 31920, Note_on_c, 2, 54, 100
4, 31920, Note_on_c, 2, 47, 100
4, 32100, Note_on_c, 2, 47, 0
4, 32100, Note_on_c, 2, 54, 0
4, 32100, Note_on_c, 2, 56, 100
4, 32100, Note_on_c, 2, 49, 100
4, 32310, Note_on_c, 2, 49, 0
4, 32310, Note_on_c, 2, 56, 0
4, 32310, Note_on_c, 2, 56, 100
4, 32340, Note_on_c, 2, 56, 0
4, 32340, Note_on_c, 2, 51, 100
4, 32400, Note_on_c, 2, 51, 0
4, 32460, Note_on_c, 2, 52, 100
4, 32460, Note_on_c, 2, 45, 100
4, 32520, Note_on_c, 2, 45, 0
4, 32520, Note_on_c, 2, 52, 0
4, 32520, Note_on_c, 2, 52, 100
4, 32520, Note_on_c, 2, 47, 100
4, 32580, Note_on_c, 2, 47, 0
4, 32580, Note_on_c, 2, 52, 0
4, 32580, Note_on_c, 2, 40, 100
4, 32760, Note_on_c, 2, 40, 0
4, 32760, Note_on_c, 2, 59, 100
4, 32760, Note_on_c, 2, 52, 100
4, 32820, Note_on_c, 2, 52, 0
4, 32820, Note_on_c, 2, 59, 0
4, 32820, Note_on_c, 2, 59, 100
4, 32820, Note_on_c, 2, 52, 100
4, 32820, Note_on_c, 2, 40, 100
4, 32880, Note_on_c, 2, 40, 0
4, 32880, Note_on_c, 2, 52, 0
4, 32880, Note_on_c, 2, 59, 0
4, 32880, Note_on_c, 2, 59, 100
4, 32940, Note_on_c, 2, 59, 0
4, 32940, Note_on_c, 2, 40, 100
4, 33000, Note_on_c, 2, 40, 0
4, 33000, Note_on_c, 2, 54, 100
4, 33000, Note_on_c, 2, 47, 100
4, 33060, Note_on_c, 2, 47, 0
4, 33060, Note_on_c, 2, 54, 0
4, 33060, Note_on_c, 2, 56, 100
4, 33060, Note_on_c, 2, 49, 100
4, 33300, Note_on_c, 2, 49, 0
4, 33300, Note_on_c, 2, 56, 0
4, 33300, Note_on_c, 2, 49, 100
4, 33360, Note_on_c, 2, 49, 0
4, 33420, Note_on_c, 2, 52, 100
4, 33420, Note_on_c, 2, 45, 100
4, 33480, Note_on_c, 2, 45, 0
4, 33480, Note_on_c, 2, 52, 0
4, 33480, Note_on_c, 2, 47, 100
4, 33540, Note_on_c, 2, 47, 0
4, 33540, Note_on_c, 2, 59, 100
4, 33540, Note_on_c, 2, 52, 100
4, 33780, Note_on_c, 2, 52, 0
4, 33780, Note_on_c, 2, 59, 0
4, 33780, Note_on_c, 2, 59, 100
4, 33780, Note_on_c, 2, 52, 100
4, 33840, Note_on_c, 2, 52, 0
4, 33840, Note_on_c, 2, 59, 0
4, 33900, Note_on_c, 2, 54, 100
4, 33900, Note_on_c, 2, 47, 100
4, 33960, Note_on_c, 2, 47, 0
4, 33960, Note_on_c, 2, 54, 0
4, 33960, Note_on_c, 2, 54, 100
4, 34020, Note_on_c, 2, 54, 0
4, 34020, Note_on_c, 2, 56, 100
4, 34020, Note_on_c, 2, 49, 100
4, 34140, Note_on_c, 2, 49, 0
4, 34140, Note_on_c, 2, 56, 0
4, 34140, Note_on_c, 2, 56, 100
4, 34200, Note_on_c, 2, 56, 0
4, 34200, Note_on_c, 2, 49, 100
4, 34230, Note_on_c, 2, 49, 0
4, 34260, Note_on_c, 2, 56, 100
4, 34260, Note_on_c, 2, 49, 100
4, 34320, Note_on_c, 2, 49, 0
4, 34320, Note_on_c, 2, 56, 0
4, 34320, Note_on_c, 2, 56, 100
4, 34320, Note_on_c, 2, 49, 100
4, 34380, Note_on_c, 2, 49, 0
4, 34380, Note_on_c, 2, 56, 0
4, 34380, Note_on_c, 2, 56, 100
4, 34380, Note_on_c, 2, 49, 100
4, 34440, Note_on_c, 2, 49, 0
4, 34440, Note_on_c, 2, 56, 0
4, 34500, Note_on_c, 2, 59, 100
4, 34500, Note_on_c, 2, 52, 100
4, 34500, Note_on_c, 2, 40, 100
4, 34530, Note_on_c, 2, 40, 0
4, 34530, Note_on_c, 2, 52, 0
4, 34530, Note_on_c, 2, 59, 0
4, 34530, Note_on_c, 2, 52, 100
4, 34530, Note_on_c, 2, 40, 100
4, 34680, Note_on_c, 2, 40, 0
4, 34680, Note_on_c, 2, 52, 0
4, 34680, Note_on_c, 2, 59, 100
4, 34680, Note_on_c, 2, 52, 100
4, 34740, Note_on_c, 2, 52, 0
4, 34740, Note_on_c, 2, 59, 0
4, 34740, Note_on_c, 2, 59, 100
4, 34740, Note_on_c, 2, 52, 100
4, 34800, Note_on_c, 2, 52, 0
4, 34800, Note_on_c, 2, 59, 0
4, 34860, Note_on_c, 2, 54, 100
4, 34860, Note_on_c, 2, 47, 100
4, 34920, Note_on_c, 2, 47, 0
4, 34920, Note_on_c, 2, 54, 0
4, 34980, Note_on_c, 2, 56, 100
4, 34980, Note_on_c, 2, 49, 100
4, 35220, Note_on_c, 2, 49, 0
4, 35220, Note_on_c, 2, 56, 0
4, 35220, Note_on_c, 2, 52, 100
4, 35220, Note_on_c, 2, 45, 100
4, 35280, Note_on_c, 2, 45, 0
4, 35280, Note_on_c, 2, 52, 0
4, 35280, Note_on_c, 2, 52, 100
4, 35280, Note_on_c, 2, 45, 100
4, 35340, Note_on_c, 2, 45, 0
4, 35340, Note_on_c, 2, 52, 0
4, 35340, Note_on_c, 2, 52, 100
4, 35340, Note_on_c, 2, 45, 100
4, 35400, Note_on_c, 2, 45, 0
4, 35400, Note_on_c, 2, 52, 0
4, 35400, Note_on_c, 2, 54, 100
4, 35400, Note_on_c, 2, 47, 100
4, 35460, Note_on_c, 2, 47, 0
4, 35460, Note_on_c, 2, 54, 0
4, 35460, Note_on_c, 2, 40, 100
4, 35640, Note_on_c, 2, 40, 0
4, 35640, Note_on_c, 2, 59, 100
4, 35640, Note_on_c, 2, 52, 100
4, 35700, Note_on_c, 2, 52, 0
4, 35700, Note_on_c, 2, 59, 0
4, 35700, Note_on_c, 2, 59, 100
4, 35700, Note_on_c, 2, 52, 100
4, 35760, Note_on_c, 2, 52, 0
4, 35760, Note_on_c, 2, 59, 0
4, 35820, Note_on_c, 2, 63, 100
4, 35820, Note_on_c, 2, 59, 100
4, 35820, Note_on_c, 2, 54, 100
4, 35820, Note_on_c, 2, 47, 100
4, 35880, Note_on_c, 2, 47, 0
4, 35880, Note_on_c, 2, 63, 0
4, 35880, Note_on_c, 2, 59, 0
4, 35880, Note_on_c, 2, 54, 0
4, 35940, Note_on_c, 2, 56, 100
4, 35940, Note_on_c, 2, 49, 100
4, 36060, Note_on_c, 2, 49, 0
4, 36060, Note_on_c, 2, 56, 0
4, 36060, Note_on_c, 2, 68, 100
4, 36060, Note_on_c, 2, 64, 100
4, 36060, Note_on_c, 2, 61, 100
4, 36120, Note_on_c, 2, 61, 0
4, 36120, Note_on_c, 2, 64, 0
4, 36120, Note_on_c, 2, 68, 0
4, 36180, Note_on_c, 2, 68, 100
4, 36180, Note_on_c, 2, 64, 100
4, 36180, Note_on_c, 2, 59, 100
4, 36240, Note_on_c, 2, 59, 0
4, 36240, Note_on_c, 2, 64, 0
4, 36240, Note_on_c, 2, 68, 0
4, 36240, Note_on_c, 2, 69, 100
4, 36240, Note_on_c, 2, 61, 100
4, 36300, Note_on_c, 2, 61, 0
4, 36300, Note_on_c, 2, 69, 0
4, 36420, Note_on_c, 2, 59, 100
4, 36420, Note_on_c, 2, 66, 100
4, 36420, Note_on_c, 2, 63, 100
4, 36480, Note_on_c, 2, 63, 0
4, 36480, Note_on_c, 2, 66, 0
4, 36480, Note_on_c, 2, 68, 100
4, 36480, Note_on_c, 2, 64, 100
4, 36660, Note_on_c, 2, 64, 0
4, 36660, Note_on_c, 2, 68, 0
4, 36660, Note_on_c, 2, 59, 0
4, 36660, Note_on_c, 2, 68, 100
4, 36660, Note_on_c, 2, 64, 100
4, 36720, Note_on_c, 2, 64, 0
4, 36720, Note_on_c, 2, 68, 0
4, 36720, Note_on_c, 2, 47, 100
4, 36780, Note_on_c, 2, 47, 0
4, 36780, Note_on_c, 2, 66, 100
4, 36780, Note_on_c, 2, 63, 100
4, 36780, Note_on_c, 2, 59, 100
4, 36840, Note_on_c, 2, 59, 0
4, 36840, Note_on_c, 2, 63, 0
4, 36840, Note_on_c, 2, 66, 0
4, 36900, Note_on_c, 2, 68, 100
4, 36900, Note_on_c, 2, 64, 100
4, 36900, Note_on_c, 2, 61, 100
4, 37020, Note_on_c, 2, 61, 0
4, 37020, Note_on_c, 2, 64, 0
4, 37020, Note_on_c, 2, 68, 0
4, 37020, Note_on_c, 2, 64, 100
4, 37020, Note_on_c, 2, 61, 100
4, 37080, Note_on_c, 2, 61, 0
4, 37080, Note_on_c, 2, 64, 0
4, 37140, Note_on_c, 2, 64, 100
4, 37140, Note_on_c, 2, 59, 100
4, 37200, Note_on_c, 2, 59, 0
4, 37200, Note_on_c, 2, 64, 0
4, 37200, Note_on_c, 2, 59, 100
4, 37260, Note_on_c, 2, 59, 0
4, 37260, Note_on_c, 2, 69, 100
4, 37260, Note_on_c, 2, 64, 100
4, 37290, Note_on_c, 2, 64, 0
4, 37290, Note_on_c, 2, 69, 0
4, 37380, Note_on_c, 2, 62, 100
4, 37440, Note_on_c, 2, 62, 0
4, 37500, Note_on_c, 2, 68, 100
4, 37500, Note_on_c, 2, 64, 100
4, 37500, Note_on_c, 2, 59, 100
4, 37710, Note_on_c, 2, 59, 0
4, 37710, Note_on_c, 2, 64, 0
4, 37710, Note_on_c, 2, 68, 0
4, 37740, Note_on_c, 2, 66, 100
4, 37740, Note_on_c, 2, 63, 100
4, 37740, Note_on_c, 2, 59, 100
4, 37800, Note_on_c, 2, 59, 0
4, 37800, Note_on_c, 2, 63, 0
4, 37800, Note_on_c, 2, 66, 0
4, 37860, Note_on_c, 2, 61, 100
4, 37980, Note_on_c, 2, 61, 0
4, 37980, Note_on_c, 2, 68, 100
4, 37980, Note_on_c, 2, 64, 100
4, 37980, Note_on_c, 2, 61, 100
4, 38040, Note_on_c, 2, 61, 0
4, 38040, Note_on_c, 2, 64, 0
4, 38040, Note_on_c, 2, 68, 0
4, 38100, Note_on_c, 2, 45, 100
4, 38160, Note_on_c, 2, 45, 0
4, 38160, Note_on_c, 2, 57, 100
4, 38220, Note_on_c, 2, 57, 0
4, 38220, Note_on_c, 2, 64, 100
4, 38220, Note_on_c, 2, 59, 100
4, 38220, Note_on_c, 2, 57, 100
4, 38280, Note_on_c, 2, 57, 0
4, 38280, Note_on_c, 2, 59, 0
4, 38280, Note_on_c, 2, 64, 0
4, 38280, Note_on_c, 2, 59, 100
4, 38340, Note_on_c, 2, 59, 0
4, 38340, Note_on_c, 2, 59, 100
4, 38400, Note_on_c, 2, 59, 0
4, 38400, Note_on_c, 2, 40, 100
4, 38520, Note_on_c, 2, 40, 0
4, 38520, Note_on_c, 2, 64, 100
4, 38520, Note_on_c, 2, 68, 100
4, 38580, Note_on_c, 2, 68, 0
4, 38580, Note_on_c, 2, 64, 0
4, 38580, Note_on_c, 2, 64, 100
4, 38580, Note_on_c, 2, 68, 100
4, 38640, Note_on_c, 2, 68, 0
4, 38640, Note_on_c, 2, 64, 0
4, 38640, Note_on_c, 2, 68, 100
4, 38700, Note_on_c, 2, 68, 0
4, 38700, Note_on_c, 2, 63, 100
4, 38760, Note_on_c, 2, 63, 0
4, 38820, Note_on_c, 2, 61, 100
4, 38940, Note_on_c, 2, 61, 0
4, 38940, Note_on_c, 2, 68, 100
4, 38940, Note_on_c, 2, 64, 100
4, 38970, Note_on_c, 2, 64, 0
4, 38970, Note_on_c, 2, 68, 0
4, 39060, Note_on_c, 2, 59, 100
4, 39120, Note_on_c, 2, 59, 0
4, 39120, Note_on_c, 2, 61, 100
4, 39180, Note_on_c, 2, 61, 0
4, 39180, Note_on_c, 2, 69, 100
4, 39180, Note_on_c, 2, 64, 100
4, 39210, Note_on_c, 2, 64, 0
4, 39210, Note_on_c, 2, 69, 0
4, 39300, Note_on_c, 2, 66, 100
4, 39300, Note_on_c, 2, 63, 100
4, 39300, Note_on_c, 2, 59, 100
4, 39360, Note_on_c, 2, 63, 0
4, 39360, Note_on_c, 2, 66, 0
4, 39360, Note_on_c, 2, 68, 100
4, 39360, Note_on_c, 2, 64, 100
4, 39540, Note_on_c, 2, 64, 0
4, 39540, Note_on_c, 2, 68, 0
4, 39540, Note_on_c, 2, 59, 0
4, 39540, Note_on_c, 2, 68, 100
4, 39540, Note_on_c, 2, 64, 100
4, 39540, Note_on_c, 2, 59, 100
4, 39600, Note_on_c, 2, 59, 0
4, 39600, Note_on_c, 2, 64, 0
4, 39600, Note_on_c, 2, 68, 0
4, 39600, Note_on_c, 2, 47, 100
4, 39660, Note_on_c, 2, 47, 0
4, 39660, Note_on_c, 2, 66, 100
4, 39660, Note_on_c, 2, 63, 100
4, 39660, Note_on_c, 2, 59, 100
4, 39720, Note_on_c, 2, 59, 0
4, 39720, Note_on_c, 2, 63, 0
4, 39720, Note_on_c, 2, 66, 0
4, 39780, Note_on_c, 2, 61, 100
4, 39900, Note_on_c, 2, 61, 0
4, 39900, Note_on_c, 2, 73, 100
4, 39900, Note_on_c, 2, 68, 100
4, 39900, Note_on_c, 2, 64, 100
4, 40020, Note_on_c, 2, 64, 0
4, 40020, Note_on_c, 2, 68, 0
4, 40020, Note_on_c, 2, 73, 0
4, 40020, Note_on_c, 2, 68, 100
4, 40080, Note_on_c, 2, 68, 0
4, 40080, Note_on_c, 2, 55, 100
4, 40080, Note_on_c, 2, 50, 100
4, 40140, Note_on_c, 2, 50, 0
4, 40140, Note_on_c, 2, 55, 0
4, 40140, Note_on_c, 2, 57, 100
4, 40140, Note_on_c, 2, 54, 100
4, 40260, Note_on_c, 2, 54, 0
4, 40260, Note_on_c, 2, 57, 0
4, 40260, Note_on_c, 2, 59, 100
4, 40260, Note_on_c, 2, 55, 100
4, 40260, Note_on_c, 2, 50, 100
4, 40320, Note_on_c, 2, 50, 0
4, 40320, Note_on_c, 2, 55, 0
4, 40320, Note_on_c, 2, 59, 0
4, 40320, Note_on_c, 2, 40, 100
4, 40500, Note_on_c, 2, 40, 0
4, 40500, Note_on_c, 2, 64, 100
4, 40500, Note_on_c, 2, 59, 100
4, 40560, Note_on_c, 2, 59, 0
4, 40560, Note_on_c, 2, 64, 0
4, 40620, Note_on_c, 2, 63, 100
4, 40680, Note_on_c, 2, 63, 0
4, 40740, Note_on_c, 2, 61, 100
4, 40860, Note_on_c, 2, 61, 0
4, 40860, Note_on_c, 2, 68, 100
4, 40860, Note_on_c, 2, 61, 100
4, 40920, Note_on_c, 2, 61, 0
4, 40920, Note_on_c, 2, 68, 0
4, 40980, Note_on_c, 2, 59, 100
4, 41040, Note_on_c, 2, 59, 0
4, 41040, Note_on_c, 2, 61, 100
4, 41100, Note_on_c, 2, 61, 0
4, 41100, Note_on_c, 2, 64, 100
4, 41160, Note_on_c, 2, 64, 0
4, 41220, Note_on_c, 2, 66, 100
4, 41220, Note_on_c, 2, 63, 100
4, 41220, Note_on_c, 2, 59, 100
4, 41280, Note_on_c, 2, 63, 0
4, 41280, Note_on_c, 2, 66, 0
4, 41280, Note_on_c, 2, 68, 100
4, 41280, Note_on_c, 2, 64, 100
4, 41580, Note_on_c, 2, 64, 0
4, 41580, Note_on_c, 2, 68, 0
4, 41580, Note_on_c, 2, 59, 0
4, 41580, Note_on_c, 2, 66, 100
4, 41580, Note_on_c, 2, 63, 100
4, 41580, Note_on_c, 2, 59, 100
4, 41640, Note_on_c, 2, 59, 0
4, 41640, Note_on_c, 2, 63, 0
4, 41640, Note_on_c, 2, 66, 0
4, 41700, Note_on_c, 2, 64, 100
4, 41700, Note_on_c, 2, 61, 100
4, 41880, Note_on_c, 2, 61, 0
4, 41880, Note_on_c, 2, 64, 0
4, 41880, Note_on_c, 2, 61, 100
4, 41940, Note_on_c, 2, 61, 0
4, 41940, Note_on_c, 2, 59, 100
4, 42000, Note_on_c, 2, 59, 0
4, 42000, Note_on_c, 2, 61, 100
4, 42060, Note_on_c, 2, 61, 0
4, 42060, Note_on_c, 2, 64, 100
4, 42090, Note_on_c, 2, 64, 0
4, 42240, Note_on_c, 2, 68, 100
4, 42240, Note_on_c, 2, 64, 100
4, 42240, Note_on_c, 2, 59, 100
4, 42420, Note_on_c, 2, 59, 0
4, 42420, Note_on_c, 2, 64, 0
4, 42420, Note_on_c, 2, 68, 0
4, 42420, Note_on_c, 2, 68, 100
4, 42420, Note_on_c, 2, 64, 100
4, 42480, Note_on_c, 2, 64, 0
4, 42480, Note_on_c, 2, 68, 0
4, 42480, Note_on_c, 2, 59, 100
4, 42540, Note_on_c, 2, 59, 0
4, 42540, Note_on_c, 2, 66, 100
4, 42540, Note_on_c, 2, 63, 100
4, 42600, Note_on_c, 2, 63, 0
4, 42600, Note_on_c, 2, 66, 0
4, 42660, Note_on_c, 2, 64, 100
4, 42660, Note_on_c, 2, 61, 100
4, 42840, Note_on_c, 2, 61, 0
4, 42840, Note_on_c, 2, 64, 0
4, 42900, Note_on_c, 2, 59, 100
4, 42960, Note_on_c, 2, 59, 0
4, 42960, Note_on_c, 2, 61, 100
4, 43020, Note_on_c, 2, 61, 0
4, 43020, Note_on_c, 2, 64, 100
4, 43080, Note_on_c, 2, 64, 0
4, 43140, Note_on_c, 2, 66, 100
4, 43140, Note_on_c, 2, 63, 100
4, 43140, Note_on_c, 2, 59, 100
4, 43380, Note_on_c, 2, 59, 0
4, 43380, Note_on_c, 2, 63, 0
4, 43380, Note_on_c, 2, 66, 0
4, 43380, Note_on_c, 2, 68, 100
4, 43440, Note_on_c, 2, 68, 0
4, 43440, Note_on_c, 2, 68, 100
4, 43440, Note_on_c, 2, 64, 100
4, 43500, Note_on_c, 2, 64, 0
4, 43500, Note_on_c, 2, 68, 0
4, 43500, Note_on_c, 2, 66, 100
4, 43500, Note_on_c, 2, 63, 100
4, 43560, Note_on_c, 2, 63, 0
4, 43560, Note_on_c, 2, 66, 0
4, 43620, Note_on_c, 2, 64, 100
4, 43620, Note_on_c, 2, 61, 100
4, 43740, Note_on_c, 2, 61, 0
4, 43740, Note_on_c, 2, 64, 0
4, 43740, Note_on_c, 2, 64, 100
4, 43800, Note_on_c, 2, 64, 0
4, 43860, Note_on_c, 2, 64, 100
4, 43860, Note_on_c, 2, 59, 100
4, 43920, Note_on_c, 2, 59, 0
4, 43920, Note_on_c, 2, 64, 0
4, 43920, Note_on_c, 2, 61, 100
4, 43980, Note_on_c, 2, 61, 0
4, 43980, Note_on_c, 2, 59, 100
4, 44040, Note_on_c, 2, 59, 0
4, 44100, Note_on_c, 2, 66, 100
4, 44100, Note_on_c, 2, 63, 100
4, 44100, Note_on_c, 2, 59, 100
4, 44160, Note_on_c, 2, 63, 0
4, 44160, Note_on_c, 2, 66, 0
4, 44160, Note_on_c, 2, 68, 100
4, 44160, Note_on_c, 2, 64, 100
4, 44340, Note_on_c, 2, 64, 0
4, 44340, Note_on_c, 2, 68, 0
4, 44340, Note_on_c, 2, 59, 0
4, 44340, Note_on_c, 2, 71, 100
4, 44340, Note_on_c, 2, 64, 100
4, 44340, Note_on_c, 2, 68, 100
4, 44385, Note_on_c, 2, 68, 0
4, 44385, Note_on_c, 2, 64, 0
4, 44385, Note_on_c, 2, 71, 0
4, 44460, Note_on_c, 2, 68, 100
4, 44520, Note_on_c, 2, 68, 0
4, 44520, Note_on_c, 2, 66, 100
4, 44580, Note_on_c, 2, 66, 0
4, 44580, Note_on_c, 2, 73, 100
4, 44580, Note_on_c, 2, 68, 100
4, 44760, Note_on_c, 2, 68, 0
4, 44760, Note_on_c, 2, 73, 0
4, 44820, Note_on_c, 2, 57, 100
4, 44820, Note_on_c, 2, 52, 100
4, 44940, Note_on_c, 2, 52, 0
4, 44940, Note_on_c, 2, 57, 0
4, 44940, Note_on_c, 2, 64, 100
4, 44940, Note_on_c, 2, 59, 100
4, 45000, Note_on_c, 2, 59, 0
4, 45000, Note_on_c, 2, 64, 0
4, 45000, Note_on_c, 2, 66, 100
4, 45000, Note_on_c, 2, 61, 100
4, 45045, Note_on_c, 2, 61, 0
4, 45045, Note_on_c, 2, 66, 0
4, 45060, Note_on_c, 2, 68, 100
4, 45060, Note_on_c, 2, 64, 100
4, 45180, Note_on_c, 2, 64, 0
4, 45180, Note_on_c, 2, 68, 0
4, 45180, Note_on_c, 2, 64, 100
4, 45240, Note_on_c, 2, 64, 0
4, 45300, Note_on_c, 2, 68, 100
4, 45360, Note_on_c, 2, 68, 0
4, 45420, Note_on_c, 2, 66, 100
4, 45420, Note_on_c, 2, 63, 100
4, 45480, Note_on_c, 2, 63, 0
4, 45480, Note_on_c, 2, 66, 0
4, 45540, Note_on_c, 2, 73, 100
4, 45540, Note_on_c, 2, 61, 100
4, 45660, Note_on_c, 2, 61, 0
4, 45660, Note_on_c, 2, 73, 0
4, 45660, Note_on_c, 2, 73, 100
4, 45660, Note_on_c, 2, 61, 100
4, 45720, Note_on_c, 2, 61, 0
4, 45720, Note_on_c, 2, 73, 0
4, 45780, Note_on_c, 2, 64, 100
4, 45780, Note_on_c, 2, 61, 100
4, 45780, Note_on_c, 2, 57, 100
4, 45780, Note_on_c, 2, 52, 100
4, 45780, Note_on_c, 2, 45, 100
4, 45900, Note_on_c, 2, 45, 0
4, 45900, Note_on_c, 2, 57, 0
4, 45900, Note_on_c, 2, 64, 0
4, 45900, Note_on_c, 2, 61, 0
4, 45900, Note_on_c, 2, 52, 0
4, 45900, Note_on_c, 2, 45, 100
4, 45960, Note_on_c, 2, 45, 0
4, 45960, Note_on_c, 2, 52, 100
4, 45960, Note_on_c, 2, 45, 100
4, 46020, Note_on_c, 2, 45, 0
4, 46020, Note_on_c, 2, 52, 0
4, 46020, Note_on_c, 2, 59, 100
4, 46020, Note_on_c, 2, 51, 100
4, 46020, Note_on_c, 2, 40, 100
4, 46110, Note_on_c, 2, 40, 0
4, 46110, Note_on_c, 2, 51, 0
4, 46110, Note_on_c, 2, 59, 0
4, 46110, Note_on_c, 2, 59, 100
4, 46140, Note_on_c, 2, 59, 0
4, 46140, Note_on_c, 2, 64, 100
4, 46200, Note_on_c, 2, 64, 0
4, 46260, Note_on_c, 2, 66, 100
4, 46260, Note_on_c, 2, 63, 100
4, 46260, Note_on_c, 2, 59, 100
4, 46380, Note_on_c, 2, 59, 0
4, 46380, Note_on_c, 2, 63, 0
4, 46380, Note_on_c, 2, 66, 0
4, 46380, Note_on_c, 2, 47, 100
4, 46440, Note_on_c, 2, 47, 0
4, 46440, Note_on_c, 2, 64, 100
4, 46440, Note_on_c, 2, 61, 100
4, 46500, Note_on_c, 2, 61, 0
4, 46500, Note_on_c, 2, 64, 0
4, 46500, Note_on_c, 2, 68, 100
4, 46500, Note_on_c, 2, 64, 100
4, 46500, Note_on_c, 2, 61, 100
4, 46620, Note_on_c, 2, 61, 0
4, 46620, Note_on_c, 2, 64, 0
4, 46620, Note_on_c, 2, 68, 0
4, 46620, Note_on_c, 2, 64, 100
4, 46620, Note_on_c, 2, 61, 100
4, 46680, Note_on_c, 2, 61, 0
4, 46680, Note_on_c, 2, 64, 0
4, 46740, Note_on_c, 2, 61, 100
4, 46740, Note_on_c, 2, 57, 100
4, 46785, Note_on_c, 2, 57, 0
4, 46785, Note_on_c, 2, 61, 0
4, 46860, Note_on_c, 2, 64, 100
4, 46860, Note_on_c, 2, 59, 100
4, 46860, Note_on_c, 2, 57, 100
4, 46860, Note_on_c, 2, 52, 100
4, 46860, Note_on_c, 2, 45, 100
4, 46920, Note_on_c, 2, 45, 0
4, 46920, Note_on_c, 2, 57, 0
4, 46920, Note_on_c, 2, 64, 0
4, 46920, Note_on_c, 2, 59, 0
4, 46920, Note_on_c, 2, 52, 0
4, 46980, Note_on_c, 2, 59, 100
4, 46980, Note_on_c, 2, 52, 100
4, 46980, Note_on_c, 2, 40, 100
4, 47100, Note_on_c, 2, 40, 0
4, 47100, Note_on_c, 2, 52, 0
4, 47100, Note_on_c, 2, 59, 0
4, 47100, Note_on_c, 2, 59, 100
4, 47160, Note_on_c, 2, 59, 0
4, 47160, Note_on_c, 2, 68, 100
4, 47160, Note_on_c, 2, 64, 100
4, 47220, Note_on_c, 2, 64, 0
4, 47220, Note_on_c, 2, 68, 0
4, 47220, Note_on_c, 2, 64, 100
4, 47220, Note_on_c, 2, 59, 100
4, 47220, Note_on_c, 2, 52, 100
4, 47280, Note_on_c, 2, 52, 0
4, 47280, Note_on_c, 2, 59, 0
4, 47280, Note_on_c, 2, 64, 0
4, 47340, Note_on_c, 2, 66, 100
4, 47340, Note_on_c, 2, 63, 100
4, 47340, Note_on_c, 2, 59, 100
4, 47340, Note_on_c, 2, 54, 100
4, 47340, Note_on_c, 2, 47, 100
4, 47400, Note_on_c, 2, 47, 0
4, 47400, Note_on_c, 2, 59, 0
4, 47400, Note_on_c, 2, 66, 0
4, 47400, Note_on_c, 2, 63, 0
4, 47400, Note_on_c, 2, 54, 0
4, 47460, Note_on_c, 2, 73, 100
4, 47460, Note_on_c, 2, 68, 100
4, 47460, Note_on_c, 2, 64, 100
4, 47460, Note_on_c, 2, 61, 100
4, 47580, Note_on_c, 2, 61, 0
4, 47580, Note_on_c, 2, 73, 0
4, 47580, Note_on_c, 2, 68, 0
4, 47580, Note_on_c, 2, 64, 0
4, 47580, Note_on_c, 2, 64, 100
4, 47580, Note_on_c, 2, 61, 100
4, 47640, Note_on_c, 2, 61, 0
4, 47640, Note_on_c, 2, 64, 0
4, 47640, Note_on_c, 2, 64, 100
4, 47640, Note_on_c, 2, 61, 100
4, 47640, Note_on_c, 2, 57, 100
4, 47700, Note_on_c, 2, 57, 0
4, 47700, Note_on_c, 2, 61, 0
4, 47700, Note_on_c, 2, 64, 0
4, 47700, Note_on_c, 2, 69, 100
4, 47700, Note_on_c, 2, 64, 100
4, 47700, Note_on_c, 2, 61, 100
4, 47700, Note_on_c, 2, 57, 100
4, 47700, Note_on_c, 2, 52, 100
4, 47700, Note_on_c, 2, 45, 100
4, 47820, Note_on_c, 2, 45, 0
4, 47820, Note_on_c, 2, 64, 0
4, 47820, Note_on_c, 2, 61, 0
4, 47820, Note_on_c, 2, 69, 0
4, 47820, Note_on_c, 2, 52, 0
4, 47820, Note_on_c, 2, 57, 0
4, 47820, Note_on_c, 2, 64, 100
4, 47820, Note_on_c, 2, 61, 100
4, 47820, Note_on_c, 2, 57, 100
4, 47880, Note_on_c, 2, 57, 0
4, 47880, Note_on_c, 2, 61, 0
4, 47880, Note_on_c, 2, 64, 0
4, 47880, Note_on_c, 2, 59, 100
4, 47880, Note_on_c, 2, 52, 100
4, 47940, Note_on_c, 2, 52, 0
4, 47940, Note_on_c, 2, 59, 0
4, 47940, Note_on_c, 2, 59, 100
4, 47940, Note_on_c, 2, 52, 100
4, 47940, Note_on_c, 2, 40, 100
4, 48060, Note_on_c, 2, 40, 0
4, 48060, Note_on_c, 2, 52, 0
4, 48060, Note_on_c, 2, 59, 0
4, 48060, Note_on_c, 2, 52, 100
4, 48120, Note_on_c, 2, 52, 0
4, 48180, Note_on_c, 2, 68, 100
4, 48180, Note_on_c, 2, 64, 100
4, 48180, Note_on_c, 2, 59, 100
4, 48240, Note_on_c, 2, 59, 0
4, 48240, Note_on_c, 2, 64, 0
4, 48240, Note_on_c, 2, 68, 0
4, 48300, Note_on_c, 2, 68, 100
4, 48300, Note_on_c, 2, 64, 100
4, 48300, Note_on_c, 2, 59, 100
4, 48360, Note_on_c, 2, 59, 0
4, 48360, Note_on_c, 2, 64, 0
4, 48360, Note_on_c, 2, 68, 0
4, 48420, Note_on_c, 2, 49, 100
4, 48540, Note_on_c, 2, 49, 0
4, 48540, Note_on_c, 2, 73, 100
4, 48540, Note_on_c, 2, 68, 100
4, 48600, Note_on_c, 2, 68, 0
4, 48600, Note_on_c, 2, 73, 0
4, 48720, Note_on_c, 2, 61, 100
4, 48780, Note_on_c, 2, 61, 0
4, 48780, Note_on_c, 2, 64, 100
4, 48780, Note_on_c, 2, 61, 100
4, 48780, Note_on_c, 2, 57, 100
4, 48780, Note_on_c, 2, 52, 100
4, 48780, Note_on_c, 2, 45, 100
4, 48840, Note_on_c, 2, 45, 0
4, 48840, Note_on_c, 2, 57, 0
4, 48840, Note_on_c, 2, 64, 0
4, 48840, Note_on_c, 2, 61, 0
4, 48840, Note_on_c, 2, 52, 0
4, 48840, Note_on_c, 2, 59, 100
4, 48900, Note_on_c, 2, 59, 0
4, 48900, Note_on_c, 2, 59, 100
4, 48900, Note_on_c, 2, 52, 100
4, 48900, Note_on_c, 2, 40, 100
4, 49140, Note_on_c, 2, 40, 0
4, 49140, Note_on_c, 2, 52, 0
4, 49140, Note_on_c, 2, 59, 0
4, 49140, Note_on_c, 2, 68, 100
4, 49140, Note_on_c, 2, 64, 100
4, 49140, Note_on_c, 2, 59, 100
4, 49140, Note_on_c, 2, 52, 100
4, 49200, Note_on_c, 2, 52, 0
4, 49200, Note_on_c, 2, 68, 0
4, 49200, Note_on_c, 2, 64, 0
4, 49200, Note_on_c, 2, 59, 0
4, 49260, Note_on_c, 2, 63, 100
4, 49260, Note_on_c, 2, 59, 100
4, 49260, Note_on_c, 2, 54, 100
4, 49260, Note_on_c, 2, 47, 100
4, 49320, Note_on_c, 2, 47, 0
4, 49320, Note_on_c, 2, 63, 0
4, 49320, Note_on_c, 2, 59, 0
4, 49320, Note_on_c, 2, 54, 0
4, 49320, Note_on_c, 2, 66, 100
4, 49380, Note_on_c, 2, 66, 0
4, 49380, Note_on_c, 2, 61, 100
4, 49500, Note_on_c, 2, 61, 0
4, 49500, Note_on_c, 2, 61, 100
4, 49500, Note_on_c, 2, 73, 100
4, 49500, Note_on_c, 2, 68, 100
4, 49560, Note_on_c, 2, 68, 0
4, 49560, Note_on_c, 2, 73, 0
4, 49620, Note_on_c, 2, 61, 0
4, 49680, Note_on_c, 2, 57, 100
4, 49740, Note_on_c, 2, 64, 100
4, 49740, Note_on_c, 2, 61, 100
4, 49800, Note_on_c, 2, 61, 0
4, 49800, Note_on_c, 2, 64, 0
4, 49800, Note_on_c, 2, 57, 0
4, 49800, Note_on_c, 2, 59, 100
4, 49860, Note_on_c, 2, 59, 0
4, 49860, Note_on_c, 2, 59, 100
4, 49920, Note_on_c, 2, 59, 0
4, 49920, Note_on_c, 2, 40, 100
4, 50040, Note_on_c, 2, 40, 0
4, 50040, Note_on_c, 2, 64, 100
4, 50040, Note_on_c, 2, 61, 100
4, 50100, Note_on_c, 2, 61, 0
4, 50100, Note_on_c, 2, 64, 0
4, 50100, Note_on_c, 2, 64, 100
4, 50100, Note_on_c, 2, 61, 100
4, 50100, Note_on_c, 2, 56, 100
4, 50160, Note_on_c, 2, 56, 0
4, 50160, Note_on_c, 2, 61, 0
4, 50160, Note_on_c, 2, 64, 0
4, 50220, Note_on_c, 2, 66, 100
4, 50220, Note_on_c, 2, 63, 100
4, 50220, Note_on_c, 2, 59, 100
4, 50280, Note_on_c, 2, 59, 0
4, 50280, Note_on_c, 2, 63, 0
4, 50280, Note_on_c, 2, 66, 0
4, 50340, Note_on_c, 2, 64, 100
4, 50340, Note_on_c, 2, 61, 100
4, 50400, Control_c, 2, 7, 85
4, 50438, Control_c, 2, 7, 84
4, 50477, Control_c, 2, 7, 83
4, 50516, Control_c, 2, 7, 82
4, 50520, Note_on_c, 2, 61, 0
4, 50520, Note_on_c, 2, 64, 0
4, 50555, Control_c, 2, 7, 81
4, 50580, Note_on_c, 2, 59, 100
4, 50594, Control_c, 2, 7, 80
4, 50632, Control_c, 2, 7, 79
4, 50640, Note_on_c, 2, 59, 0
4, 50640, Note_on_c, 2, 61, 100
4, 50671, Control_c, 2, 7, 78
4, 50700, Note_on_c, 2, 61, 0
4, 50700, Note_on_c, 2, 69, 100
4, 50700, Note_on_c, 2, 64, 100
4, 50710, Control_c, 2, 7, 77
4, 50745, Note_on_c, 2, 64, 0
4, 50745, Note_on_c, 2, 69, 0
4, 50749, Control_c, 2, 7, 76
4, 50788, Control_c, 2, 7, 75
4, 50820, Note_on_c, 2, 66, 100
4, 50820, Note_on_c, 2, 63, 100
4, 50820, Note_on_c, 2, 59, 100
4, 50827, Control_c, 2, 7, 74
4, 50865, Control_c, 2, 7, 73
4, 50880, Note_on_c, 2, 63, 0
4, 50880, Note_on_c, 2, 66, 0
4, 50880, Note_on_c, 2, 68, 100
4, 50880, Note_on_c, 2, 64, 100
4, 50904, Control_c, 2, 7, 72
4, 50943, Control_c, 2, 7, 71
4, 50982, Control_c, 2, 7, 70
4, 51021, Control_c, 2, 7, 69
4, 51060, Note_on_c, 2, 64, 0
4, 51060, Note_on_c, 2, 68, 0
4, 51060, Note_on_c, 2, 59, 0
4, 51060, Control_c, 2, 7, 68
4, 51060, Note_on_c, 2, 71, 100
4, 51060, Note_on_c, 2, 68, 100
4, 51060, Note_on_c, 2, 64, 100
4, 51098, Control_c, 2, 7, 67
4, 51120, Note_on_c, 2, 64, 0
4, 51120, Note_on_c, 2, 68, 0
4, 51120, Note_on_c, 2, 71, 0
4, 51120, Note_on_c, 2, 68, 100
4, 51120, Note_on_c, 2, 64, 100
4, 51120, Note_on_c, 2, 59, 100
4, 51137, Control_c, 2, 7, 66
4, 51165, Note_on_c, 2, 59, 0
4, 51165, Note_on_c, 2, 64, 0
4, 51165, Note_on_c, 2, 68, 0
4, 51176, Control_c, 2, 7, 65
4, 51180, Note_on_c, 2, 66, 100
4, 51180, Note_on_c, 2, 63, 100
4, 51180, Note_on_c, 2, 59, 100
4, 51215, Control_c, 2, 7, 64
4, 51240, Note_on_c, 2, 59, 0
4, 51240, Note_on_c, 2, 63, 0
4, 51240, Note_on_c, 2, 66, 0
4, 51254, Control_c, 2, 7, 63
4, 51292, Control_c, 2, 7, 62
4, 51300, Note_on_c, 2, 61, 100
4, 51331, Control_c, 2, 7, 61
4, 51370, Control_c, 2, 7, 60
4, 51409, Control_c, 2, 7, 59
4, 51420, Note_on_c, 2, 61, 0
4, 51420, Note_on_c, 2, 73, 100
4, 51420, Note_on_c, 2, 68, 100
4, 51420, Note_on_c, 2, 61, 100
4, 51448, Control_c, 2, 7, 58
4, 51480, Note_on_c, 2, 61, 0
4, 51480, Note_on_c, 2, 68, 0
4, 51480, Note_on_c, 2, 73, 0
4, 51487, Control_c, 2, 7, 57
4, 51525, Control_c, 2, 7, 56
4, 51540, Note_on_c, 2, 59, 100
4, 51564, Control_c, 2, 7, 55
4, 51600, Note_on_c, 2, 59, 0
4, 51600, Note_on_c, 2, 61, 100
4, 51603, Control_c, 2, 7, 54
4, 51642, Control_c, 2, 7, 53
4, 51660, Note_on_c, 2, 61, 0
4, 51675, Note_on_c, 2, 68, 100
4, 51675, Note_on_c, 2, 64, 100
4, 51681, Control_c, 2, 7, 52
4, 51720, Note_on_c, 2, 64, 0
4, 51720, Note_on_c, 2, 68, 0
4, 51720, Control_c, 2, 7, 51
4, 51758, Control_c, 2, 7, 50
4, 51780, Note_on_c, 2, 66, 100
4, 51780, Note_on_c, 2, 63, 100
4, 51780, Note_on_c, 2, 59, 100
4, 51797, Control_c, 2, 7, 49
4, 51836, Control_c, 2, 7, 48
4, 51840, Note_on_c, 2, 63, 0
4, 51840, Note_on_c, 2, 66, 0
4, 51840, Note_on_c, 2, 68, 100
4, 51840, Note_on_c, 2, 64, 100
4, 51875, Control_c, 2, 7, 47
4, 51900, Note_on_c, 2, 64, 0
4, 51900, Note_on_c, 2, 68, 0
4, 51900, Note_on_c, 2, 59, 0
4, 51900, Note_on_c, 2, 68, 100
4, 51900, Note_on_c, 2, 64, 100
4, 51900, Note_on_c, 2, 59, 100
4, 51900, Note_on_c, 2, 52, 100
4, 51900, Note_on_c, 2, 47, 100
4, 51914, Control_c, 2, 7, 46
4, 51952, Control_c, 2, 7, 45
4, 51960, Note_on_c, 2, 47, 0
4, 51960, Note_on_c, 2, 59, 0
4, 51960, Note_on_c, 2, 68, 0
4, 51960, Note_on_c, 2, 64, 0
4, 51960, Note_on_c, 2, 52, 0
4, 51991, Control_c, 2, 7, 44
4, 52020, Note_on_c, 2, 63, 100
4, 52030, Control_c, 2, 7, 43
4, 52069, Control_c, 2, 7, 42
4, 52108, Control_c, 2, 7, 41
4, 52140, Note_on_c, 2, 63, 0
4, 52140, Note_on_c, 2, 71, 100
4, 52140, Note_on_c, 2, 66, 100
4, 52140, Note_on_c, 2, 63, 100
4, 52140, Note_on_c, 2, 59, 100
4, 52140, Note_on_c, 2, 54, 100
4, 52140, Note_on_c, 2, 47, 100
4, 52147, Control_c, 2, 7, 40
4, 52185, Control_c, 2, 7, 39
4, 52200, Note_on_c, 2, 47, 0
4, 52200, Note_on_c, 2, 66, 0
4, 52200, Note_on_c, 2, 63, 0
4, 52200, Note_on_c, 2, 71, 0
4, 52200, Note_on_c, 2, 54, 0
4, 52200, Note_on_c, 2, 59, 0
4, 52224, Control_c, 2, 7, 38
4, 52260, Note_on_c, 2, 64, 100
4, 52260, Note_on_c, 2, 61, 100
4, 52263, Control_c, 2, 7, 37
4, 52302, Control_c, 2, 7, 36
4, 52320, Note_on_c, 2, 61, 0
4, 52320, Note_on_c, 2, 64, 0
4, 52320, Note_on_c, 2, 61, 100
4, 52341, Control_c, 2, 7, 35
4, 52380, Note_on_c, 2, 61, 0
4, 52380, Control_c, 2, 7, 34
4, 52380, Note_on_c, 2, 73, 100
4, 52380, Note_on_c, 2, 68, 100
4, 52380, Note_on_c, 2, 61, 100
4, 52418, Control_c, 2, 7, 33
4, 52440, Note_on_c, 2, 61, 0
4, 52440, Note_on_c, 2, 68, 0
4, 52440, Note_on_c, 2, 73, 0
4, 52457, Control_c, 2, 7, 32
4, 52496, Control_c, 2, 7, 31
4, 52500, Note_on_c, 2, 50, 100
4, 52535, Control_c, 2, 7, 30
4, 52560, Note_on_c, 2, 50, 0
4, 52560, Note_on_c, 2, 57, 100
4, 52574, Control_c, 2, 7, 29
4, 52612, Control_c, 2, 7, 28
4, 52620, Note_on_c, 2, 57, 0
4, 52620, Note_on_c, 2, 69, 100
4, 52620, Note_on_c, 2, 64, 100
4, 52620, Note_on_c, 2, 61, 100
4, 52620, Note_on_c, 2, 57, 100
4, 52651, Control_c, 2, 7, 27
4, 52680, Note_on_c, 2, 57, 0
4, 52680, Note_on_c, 2, 69, 0
4, 52680, Note_on_c, 2, 64, 0
4, 52680, Note_on_c, 2, 61, 0
4, 52680, Note_on_c, 2, 59, 100
4, 52690, Control_c, 2, 7, 26
4, 52729, Control_c, 2, 7, 25
4, 52740, Note_on_c, 2, 59, 0
4, 52740, Note_on_c, 2, 59, 100
4, 52740, Note_on_c, 2, 40, 100
4, 52768, Control_c, 2, 7, 24
4, 52807, Control_c, 2, 7, 23
4, 52845, Control_c, 2, 7, 22
4, 52860, Note_on_c, 2, 40, 0
4, 52860, Note_on_c, 2, 59, 0
4, 52860, Note_on_c, 2, 64, 100
4, 52884, Control_c, 2, 7, 21
4, 52920, Note_on_c, 2, 64, 0
4, 52920, Note_on_c, 2, 64, 100
4, 52920, Note_on_c, 2, 59, 100
4, 52923, Control_c, 2, 7, 20
4, 52962, Control_c, 2, 7, 19
4, 52980, Note_on_c, 2, 59, 0
4, 52980, Note_on_c, 2, 64, 0
4, 52980, Note_on_c, 2, 68, 100
4, 52980, Note_on_c, 2, 64, 100
4, 52980, Note_on_c, 2, 59, 100
4, 53001, Control_c, 2, 7, 18
4, 53040, Note_on_c, 2, 59, 0
4, 53040, Note_on_c, 2, 64, 0
4, 53040, Note_on_c, 2, 68, 0
4, 53040, Control_c, 2, 7, 17
4, 53078, Control_c, 2, 7, 16
4, 53100, Note_on_c, 2, 66, 100
4, 53100, Note_on_c, 2, 63, 100
4, 53100, Note_on_c, 2, 59, 100
4, 53117, Control_c, 2, 7, 15
4, 53156, Control_c, 2, 7, 14
4, 53160, Note_on_c, 2, 59, 0
4, 53160, Note_on_c, 2, 63, 0
4, 53160, Note_on_c, 2, 66, 0
4, 53195, Control_c, 2, 7, 13
4, 53220, Note_on_c, 2, 64, 100
4, 53220, Note_on_c, 2, 61, 100
4, 53234, Control_c, 2, 7, 12
4, 53272, Control_c, 2, 7, 11
4, 53311, Control_c, 2, 7, 10
4, 53340, Note_on_c, 2, 61, 0
4, 53340, Note_on_c, 2, 64, 0
4, 53340, Note_on_c, 2, 68, 100
4, 53340, Note_on_c, 2, 64, 100
4, 53350, Control_c, 2, 7, 9
4, 53389, Control_c, 2, 7, 8
4, 53400, Note_on_c, 2, 64, 0
4, 53400, Note_on_c, 2, 68, 0
4, 53428, Control_c, 2, 7, 7
4, 53460, Note_on_c, 2, 64, 100
4, 53460, Note_on_c, 2, 61, 100
4, 53467, Control_c, 2, 7, 6
4, 53505, Control_c, 2, 7, 5
4, 53520, Note_on_c, 2, 61, 0
4, 53520, Note_on_c, 2, 64, 0
4, 53544, Control_c, 2, 7, 4
4, 53580, Note_on_c, 2, 73, 100
4, 53580, Note_on_c, 2, 68, 100
4, 53583, Control_c, 2, 7, 3
4, 53622, Control_c, 2, 7, 2
4, 53640, Note_on_c, 2, 68, 0
4, 53640, Note_on_c, 2, 73, 0
4, 53661, Control_c, 2, 7, 1
4, 53700, Control_c, 2, 7, 0
4, 53700, End_track
5, 0, Start_track
5, 0, MIDI_port, 0
5, 0, Title_t, "Jazz Electric"
5, 0, Program_c, 3, 26
5, 0, Control_c, 3, 7, 103
5, 0, Control_c, 3, 10, 30
5, 1620, Note_on_c, 3, 71, 100
5, 1620, Note_on_c, 3, 66, 100
5, 1680, Note_on_c, 3, 66, 0
5, 1680, Note_on_c, 3, 71, 0
5, 1680, Note_on_c, 3, 68, 100
5, 1740, Note_on_c, 3, 68, 0
5, 1800, Note_on_c, 3, 71, 100
5, 1800, Note_on_c, 3, 66, 100
5, 1860, Note_on_c, 3, 66, 0
5, 1860, Note_on_c, 3, 71, 0
5, 1860, Note_on_c, 3, 64, 100
5, 1860, Note_on_c, 3, 61, 100
5, 1860, Note_on_c, 3, 56, 100
5, 2040, Note_on_c, 3, 56, 0
5, 2040, Note_on_c, 3, 61, 0
5, 2040, Note_on_c, 3, 64, 0
5, 2100, Note_on_c, 3, 59, 100
5, 2100, Note_on_c, 3, 57, 100
5, 2100, Note_on_c, 3, 52, 100
5, 2160, Note_on_c, 3, 52, 0
5, 2160, Note_on_c, 3, 57, 0
5, 2160, Note_on_c, 3, 59, 0
5, 2160, Note_on_c, 3, 61, 100
5, 2220, Note_on_c, 3, 61, 0
5, 2220, Note_on_c, 3, 64, 100
5, 2220, Note_on_c, 3, 59, 100
5, 2280, Note_on_c, 3, 59, 0
5, 2280, Note_on_c, 3, 64, 0
5, 2640, Note_on_c, 3, 71, 100
5, 2640, Note_on_c, 3, 68, 100
5, 2700, Note_on_c, 3, 68, 0
5, 2700, Note_on_c, 3, 71, 0
5, 2700, Note_on_c, 3, 66, 100
5, 2700, Note_on_c, 3, 63, 100
5, 2760, Note_on_c, 3, 63, 0
5, 2760, Note_on_c, 3, 66, 0
5, 2760, Note_on_c, 3, 71, 100
5, 2790, Note_on_c, 3, 71, 0
5, 2820, Note_on_c, 3, 68, 100
5, 2820, Note_on_c, 3, 64, 100
5, 2820, Note_on_c, 3, 61, 100
5, 3000, Note_on_c, 3, 61, 0
5, 3000, Note_on_c, 3, 64, 0
5, 3000, Note_on_c, 3, 68, 0
5, 3120, Note_on_c, 3, 64, 100
5, 3120, Note_on_c, 3, 61, 100
5, 3180, Note_on_c, 3, 61, 0
5, 3180, Note_on_c, 3, 64, 0
5, 3180, Note_on_c, 3, 64, 100
5, 3240, Note_on_c, 3, 64, 0
5, 3480, Note_on_c, 3, 68, 100
5, 3480, Note_on_c, 3, 64, 100
5, 3480, Note_on_c, 3, 59, 100
5, 3495, Note_on_c, 3, 59, 0
5, 3495, Note_on_c, 3, 64, 0
5, 3495, Note_on_c, 3, 68, 0
5, 3600, Note_on_c, 3, 71, 100
5, 3600, Note_on_c, 3, 68, 100
5, 3660, Note_on_c, 3, 68, 0
5, 3660, Note_on_c, 3, 71, 0
5, 3660, Note_on_c, 3, 66, 100
5, 3660, Note_on_c, 3, 63, 100
5, 3660, Note_on_c, 3, 59, 100
5, 3720, Note_on_c, 3, 59, 0
5, 3720, Note_on_c, 3, 63, 0
5, 3720, Note_on_c, 3, 66, 0
5, 3720, Note_on_c, 3, 71, 100
5, 3720, Note_on_c, 3, 66, 100
5, 3750, Note_on_c, 3, 66, 0
5, 3750, Note_on_c, 3, 71, 0
5, 3900, Note_on_c, 3, 64, 100
5, 3900, Note_on_c, 3, 61, 100
5, 3960, Note_on_c, 3, 61, 0
5, 3960, Note_on_c, 3, 64, 0
5, 4080, Note_on_c, 3, 61, 100
5, 4200, Note_on_c, 3, 61, 0
5, 4260, Note_on_c, 3, 66, 100
5, 4260, Note_on_c, 3, 63, 100
5, 4260, Note_on_c, 3, 59, 100
5, 4320, Note_on_c, 3, 59, 0
5, 4320, Note_on_c, 3, 63, 0
5, 4320, Note_on_c, 3, 66, 0
5, 4320, Note_on_c, 3, 68, 100
5, 4320, Note_on_c, 3, 64, 100
5, 4320, Note_on_c, 3, 59, 100
5, 4440, Note_on_c, 3, 59, 0
5, 4440, Note_on_c, 3, 64, 0
5, 4440, Note_on_c, 3, 68, 0
5, 4440, Note_on_c, 3, 68, 100
5, 4440, Note_on_c, 3, 64, 100
5, 4440, Note_on_c, 3, 59, 100
5, 4470, Note_on_c, 3, 59, 0
5, 4470, Note_on_c, 3, 64, 0
5, 4470, Note_on_c, 3, 68, 0
5, 4560, Note_on_c, 3, 71, 100
5, 4560, Note_on_c, 3, 68, 100
5, 4620, Note_on_c, 3, 68, 0
5, 4620, Note_on_c, 3, 71, 0
5, 4620, Note_on_c, 3, 66, 100
5, 4620, Note_on_c, 3, 63, 100
5, 4620, Note_on_c, 3, 59, 100
5, 4680, Note_on_c, 3, 59, 0
5, 4680, Note_on_c, 3, 63, 0
5, 4680, Note_on_c, 3, 66, 0
5, 4680, Note_on_c, 3, 71, 100
5, 4680, Note_on_c, 3, 66, 100
5, 4710, Note_on_c, 3, 66, 0
5, 4710, Note_on_c, 3, 71, 0
5, 4740, Note_on_c, 3, 68, 100
5, 4740, Note_on_c, 3, 64, 100
5, 4740, Note_on_c, 3, 61, 100
5, 4920, Note_on_c, 3, 61, 0
5, 4920, Note_on_c, 3, 64, 0
5, 4920, Note_on_c, 3, 68, 0
5, 5100, Note_on_c, 3, 59, 100
5, 5160, Note_on_c, 3, 59, 0
5, 5520, Note_on_c, 3, 71, 100
5, 5520, Note_on_c, 3, 68, 100
5, 5580, Note_on_c, 3, 68, 0
5, 5580, Note_on_c, 3, 71, 0
5, 5580, Note_on_c, 3, 66, 100
5, 5580, Note_on_c, 3, 63, 100
5, 5580, Note_on_c, 3, 59, 100
5, 5640, Note_on_c, 3, 59, 0
5, 5640, Note_on_c, 3, 63, 0
5, 5640, Note_on_c, 3, 66, 0
5, 5640, Note_on_c, 3, 71, 100
5, 5640, Note_on_c, 3, 66, 100
5, 5670, Note_on_c, 3, 66, 0
5, 5670, Note_on_c, 3, 71, 0
5, 5700, Note_on_c, 3, 61, 100
5, 5880, Note_on_c, 3, 61, 0
5, 6000, Note_on_c, 3, 64, 100
5, 6000, Note_on_c, 3, 59, 100
5, 6060, Note_on_c, 3, 59, 0
5, 6060, Note_on_c, 3, 64, 0
5, 6060, Note_on_c, 3, 61, 100
5, 6120, Note_on_c, 3, 61, 0
5, 6120, Note_on_c, 3, 59, 100
5, 6180, Note_on_c, 3, 59, 0
5, 6480, Note_on_c, 3, 71, 100
5, 6480, Note_on_c, 3, 66, 100
5, 6540, Note_on_c, 3, 66, 0
5, 6540, Note_on_c, 3, 71, 0
5, 6540, Note_on_c, 3, 68, 100
5, 6600, Note_on_c, 3, 68, 0
5, 6600, Note_on_c, 3, 71, 100
5, 6660, Note_on_c, 3, 71, 0
5, 6720, Note_on_c, 3, 61, 100
5, 6900, Note_on_c, 3, 61, 0
5, 6900, Note_on_c, 3, 61, 100
5, 6930, Note_on_c, 3, 61, 0
5, 6930, Note_on_c, 3, 59, 100
5, 6960, Note_on_c, 3, 59, 0
5, 6960, Note_on_c, 3, 61, 100
5, 7020, Note_on_c, 3, 61, 0
5, 7020, Note_on_c, 3, 64, 100
5, 7080, Note_on_c, 3, 64, 0
5, 7440, Note_on_c, 3, 71, 100
5, 7440, Note_on_c, 3, 66, 100
5, 7470, Note_on_c, 3, 66, 0
5, 7470, Note_on_c, 3, 71, 0
5, 7470, Note_on_c, 3, 68, 100
5, 7500, Note_on_c, 3, 68, 0
5, 7500, Note_on_c, 3, 66, 100
5, 7500, Note_on_c, 3, 63, 100
5, 7500, Note_on_c, 3, 59, 100
5, 7560, Note_on_c, 3, 59, 0
5, 7560, Note_on_c, 3, 63, 0
5, 7560, Note_on_c, 3, 66, 0
5, 7560, Note_on_c, 3, 71, 100
5, 7560, Note_on_c, 3, 66, 100
5, 7590, Note_on_c, 3, 66, 0
5, 7590, Note_on_c, 3, 71, 0
5, 7620, Note_on_c, 3, 64, 100
5, 7620, Note_on_c, 3, 61, 100
5, 7800, Note_on_c, 3, 61, 0
5, 7800, Note_on_c, 3, 64, 0
5, 7920, Note_on_c, 3, 61, 100
5, 7980, Note_on_c, 3, 61, 0
5, 7980, Note_on_c, 3, 59, 100
5, 8040, Note_on_c, 3, 59, 0
5, 8100, Note_on_c, 3, 63, 100
5, 8100, Note_on_c, 3, 59, 100
5, 8100, Note_on_c, 3, 54, 100
5, 8160, Note_on_c, 3, 54, 0
5, 8160, Note_on_c, 3, 59, 0
5, 8160, Note_on_c, 3, 63, 0
5, 8160, Note_on_c, 3, 64, 100
5, 8160, Note_on_c, 3, 59, 100
5, 8160, Note_on_c, 3, 56, 100
5, 8280, Note_on_c, 3, 56, 0
5, 8280, Note_on_c, 3, 59, 0
5, 8280, Note_on_c, 3, 64, 0
5, 8400, Note_on_c, 3, 71, 100
5, 8400, Note_on_c, 3, 68, 100
5, 8430, Note_on_c, 3, 68, 0
5, 8430, Note_on_c, 3, 71, 0
5, 8430, Note_on_c, 3, 71, 100
5, 8430, Note_on_c, 3, 68, 100
5, 8460, Note_on_c, 3, 68, 0
5, 8460, Note_on_c, 3, 71, 0
5, 8460, Note_on_c, 3, 66, 100
5, 8460, Note_on_c, 3, 63, 100
5, 8460, Note_on_c, 3, 59, 100
5, 8520, Note_on_c, 3, 59, 0
5, 8520, Note_on_c, 3, 63, 0
5, 8520, Note_on_c, 3, 66, 0
5, 8520, Note_on_c, 3, 71, 100
5, 8520, Note_on_c, 3, 66, 100
5, 8550, Note_on_c, 3, 66, 0
5, 8550, Note_on_c, 3, 71, 0
5, 8580, Note_on_c, 3, 64, 100
5, 8580, Note_on_c, 3, 61, 100
5, 8760, Note_on_c, 3, 61, 0
5, 8760, Note_on_c, 3, 64, 0
5, 8820, Note_on_c, 3, 64, 100
5, 8820, Note_on_c, 3, 59, 100
5, 8880, Note_on_c, 3, 59, 0
5, 8880, Note_on_c, 3, 64, 0
5, 8880, Note_on_c, 3, 61, 100
5, 8940, Note_on_c, 3, 61, 0
5, 8940, Note_on_c, 3, 64, 100
5, 8940, Note_on_c, 3, 59, 100
5, 9000, Note_on_c, 3, 59, 0
5, 9000, Note_on_c, 3, 64, 0
5, 9000, Note_on_c, 3, 61, 100
5, 9060, Note_on_c, 3, 61, 0
5, 9060, Note_on_c, 3, 64, 100
5, 9240, Note_on_c, 3, 64, 0
5, 9360, Note_on_c, 3, 71, 100
5, 9360, Note_on_c, 3, 68, 100
5, 9420, Note_on_c, 3, 68, 0
5, 9420, Note_on_c, 3, 71, 0
5, 9420, Note_on_c, 3, 66, 100
5, 9420, Note_on_c, 3, 63, 100
5, 9480, Note_on_c, 3, 63, 0
5, 9480, Note_on_c, 3, 66, 0
5, 9480, Note_on_c, 3, 71, 100
5, 9480, Note_on_c, 3, 66, 100
5, 9510, Note_on_c, 3, 66, 0
5, 9510, Note_on_c, 3, 71, 0
5, 9540, Note_on_c, 3, 50, 100
5, 9600, Note_on_c, 3, 50, 0
5, 9660, Note_on_c, 3, 68, 100
5, 9660, Note_on_c, 3, 64, 100
5, 9660, Note_on_c, 3, 61, 100
5, 9720, Note_on_c, 3, 61, 0
5, 9720, Note_on_c, 3, 64, 0
5, 9720, Note_on_c, 3, 68, 0
5, 9780, Note_on_c, 3, 59, 100
5, 9780, Note_on_c, 3, 57, 100
5, 9780, Note_on_c, 3, 52, 100
5, 9780, Note_on_c, 3, 45, 100
5, 9840, Note_on_c, 3, 45, 0
5, 9840, Note_on_c, 3, 59, 0
5, 9840, Note_on_c, 3, 57, 0
5, 9840, Note_on_c, 3, 52, 0
5, 9840, Note_on_c, 3, 59, 100
5, 9840, Note_on_c, 3, 57, 100
5, 9840, Note_on_c, 3, 52, 100
5, 9840, Note_on_c, 3, 45, 100
5, 9900, Note_on_c, 3, 45, 0
5, 9900, Note_on_c, 3, 59, 0
5, 9900, Note_on_c, 3, 57, 0
5, 9900, Note_on_c, 3, 52, 0
5, 9900, Note_on_c, 3, 64, 100
5, 9900, Note_on_c, 3, 59, 100
5, 9960, Note_on_c, 3, 59, 0
5, 9960, Note_on_c, 3, 64, 0
5, 10320, Note_on_c, 3, 71, 100
5, 10320, Note_on_c, 3, 68, 100
5, 10380, Note_on_c, 3, 68, 0
5, 10380, Note_on_c, 3, 71, 0
5, 10380, Note_on_c, 3, 66, 100
5, 10380, Note_on_c, 3, 63, 100
5, 10380, Note_on_c, 3, 59, 100
5, 10440, Note_on_c, 3, 59, 0
5, 10440, Note_on_c, 3, 63, 0
5, 10440, Note_on_c, 3, 66, 0
5, 10440, Note_on_c, 3, 71, 100
5, 10440, Note_on_c, 3, 66, 100
5, 10500, Note_on_c, 3, 66, 0
5, 10500, Note_on_c, 3, 71, 0
5, 10800, Note_on_c, 3, 61, 100
5, 10860, Note_on_c, 3, 61, 0
5, 10860, Note_on_c, 3, 64, 100
5, 10860, Note_on_c, 3, 59, 100
5, 10920, Note_on_c, 3, 59, 0
5, 10920, Note_on_c, 3, 64, 0
5, 10980, Note_on_c, 3, 59, 100
5, 11160, Note_on_c, 3, 59, 0
5, 11220, Note_on_c, 3, 59, 100
5, 11280, Note_on_c, 3, 59, 0
5, 11280, Note_on_c, 3, 71, 100
5, 11280, Note_on_c, 3, 68, 100
5, 11340, Note_on_c, 3, 68, 0
5, 11340, Note_on_c, 3, 71, 0
5, 11340, Note_on_c, 3, 66, 100
5, 11340, Note_on_c, 3, 63, 100
5, 11340, Note_on_c, 3, 59, 100
5, 11400, Note_on_c, 3, 59, 0
5, 11400, Note_on_c, 3, 63, 0
5, 11400, Note_on_c, 3, 66, 0
5, 11400, Note_on_c, 3, 71, 100
5, 11400, Note_on_c, 3, 66, 100
5, 11430, Note_on_c, 3, 66, 0
5, 11430, Note_on_c, 3, 71, 0
5, 11460, Note_on_c, 3, 64, 100
5, 11460, Note_on_c, 3, 61, 100
5, 11640, Note_on_c, 3, 61, 0
5, 11640, Note_on_c, 3, 64, 0
5, 11700, Note_on_c, 3, 59, 100
5, 11700, Note_on_c, 3, 57, 100
5, 11700, Note_on_c, 3, 52, 100
5, 11760, Note_on_c, 3, 52, 0
5, 11760, Note_on_c, 3, 57, 0
5, 11760, Note_on_c, 3, 59, 0
5, 11760, Note_on_c, 3, 61, 100
5, 11760, Note_on_c, 3, 57, 100
5, 11820, Note_on_c, 3, 57, 0
5, 11820, Note_on_c, 3, 61, 0
5, 11820, Note_on_c, 3, 64, 100
5, 11880, Note_on_c, 3, 64, 0
5, 12420, Note_on_c, 3, 61, 100
5, 12450, Note_on_c, 3, 61, 0
5, 12450, Note_on_c, 3, 59, 100
5, 12480, Note_on_c, 3, 59, 0
5, 12480, Note_on_c, 3, 56, 100
5, 12840, Note_on_c, 3, 56, 0
5, 12960, Note_on_c, 3, 64, 100
5, 13020, Note_on_c, 3, 64, 0
5, 13020, Note_on_c, 3, 66, 100
5, 13080, Note_on_c, 3, 66, 0
5, 13080, Note_on_c, 3, 68, 100
5, 13140, Note_on_c, 3, 68, 0
5, 13200, Note_on_c, 3, 64, 100
5, 13440, Note_on_c, 3, 64, 0
5, 13440, Note_on_c, 3, 66, 100
5, 13500, Note_on_c, 3, 66, 0
5, 13620, Note_on_c, 3, 64, 100
5, 13800, Note_on_c, 3, 64, 0
5, 13980, Note_on_c, 3, 54, 100
5, 14040, Note_on_c, 3, 54, 0
5, 14040, Note_on_c, 3, 64, 100
5, 14040, Note_on_c, 3, 59, 100
5, 14100, Note_on_c, 3, 59, 0
5, 14100, Note_on_c, 3, 64, 0
5, 14100, Note_on_c, 3, 63, 100
5, 14340, Note_on_c, 3, 63, 0
5, 14400, Note_on_c, 3, 66, 100
5, 14460, Note_on_c, 3, 66, 0
5, 14460, Note_on_c, 3, 68, 100
5, 14520, Note_on_c, 3, 68, 0
5, 14520, Note_on_c, 3, 71, 100
5, 14700, Note_on_c, 3, 71, 0
5, 14700, Note_on_c, 3, 63, 100
5, 14700, Note_on_c, 3, 59, 100
5, 14760, Note_on_c, 3, 59, 0
5, 14760, Note_on_c, 3, 63, 0
5, 14760, Note_on_c, 3, 66, 100
5, 14790, Note_on_c, 3, 66, 0
5, 14820, Note_on_c, 3, 64, 100
5, 14820, Note_on_c, 3, 61, 100
5, 15000, Note_on_c, 3, 61, 0
5, 15000, Note_on_c, 3, 64, 0
5, 15060, Note_on_c, 3, 61, 100
5, 15060, Note_on_c, 3, 57, 100
5, 15090, Note_on_c, 3, 57, 0
5, 15090, Note_on_c, 3, 61, 0
5, 15120, Note_on_c, 3, 61, 100
5, 15120, Note_on_c, 3, 57, 100
5, 15180, Note_on_c, 3, 57, 0
5, 15180, Note_on_c, 3, 61, 0
5, 15180, Note_on_c, 3, 64, 100
5, 15240, Note_on_c, 3, 64, 0
5, 15240, Note_on_c, 3, 61, 100
5, 15240, Note_on_c, 3, 57, 100
5, 15270, Note_on_c, 3, 57, 0
5, 15270, Note_on_c, 3, 61, 0
5, 15300, Note_on_c, 3, 59, 100
5, 15360, Note_on_c, 3, 59, 0
5, 15360, Note_on_c, 3, 64, 100
5, 15480, Note_on_c, 3, 64, 0
5, 15540, Note_on_c, 3, 59, 100
5, 15600, Note_on_c, 3, 59, 0
5, 15600, Note_on_c, 3, 71, 100
5, 15630, Note_on_c, 3, 71, 0
5, 15660, Note_on_c, 3, 63, 100
5, 15660, Note_on_c, 3, 59, 100
5, 15720, Note_on_c, 3, 59, 0
5, 15720, Note_on_c, 3, 63, 0
5, 15720, Note_on_c, 3, 71, 100
5, 15720, Note_on_c, 3, 66, 100
5, 15750, Note_on_c, 3, 66, 0
5, 15750, Note_on_c, 3, 71, 0
5, 15780, Note_on_c, 3, 64, 100
5, 15780, Note_on_c, 3, 61, 100
5, 15960, Note_on_c, 3, 61, 0
5, 15960, Note_on_c, 3, 64, 0
5, 16020, Note_on_c, 3, 64, 100
5, 16020, Note_on_c, 3, 59, 100
5, 16080, Note_on_c, 3, 59, 0
5, 16080, Note_on_c, 3, 64, 0
5, 16080, Note_on_c, 3, 61, 100
5, 16140, Note_on_c, 3, 61, 0
5, 16140, Note_on_c, 3, 59, 100
5, 16200, Note_on_c, 3, 59, 0
5, 16260, Note_on_c, 3, 63, 100
5, 16260, Note_on_c, 3, 59, 100
5, 16320, Note_on_c, 3, 59, 0
5, 16320, Note_on_c, 3, 63, 0
5, 16320, Note_on_c, 3, 64, 100
5, 16440, Note_on_c, 3, 64, 0
5, 16560, Note_on_c, 3, 71, 100
5, 16560, Note_on_c, 3, 68, 100
5, 16620, Note_on_c, 3, 68, 0
5, 16620, Note_on_c, 3, 71, 0
5, 16620, Note_on_c, 3, 63, 100
5, 16620, Note_on_c, 3, 59, 100
5, 16680, Note_on_c, 3, 59, 0
5, 16680, Note_on_c, 3, 63, 0
5, 16680, Note_on_c, 3, 71, 100
5, 16680, Note_on_c, 3, 66, 100
5, 16710, Note_on_c, 3, 66, 0
5, 16710, Note_on_c, 3, 71, 0
5, 16740, Note_on_c, 3, 64, 100
5, 16740, Note_on_c, 3, 61, 100
5, 16920, Note_on_c, 3, 61, 0
5, 16920, Note_on_c, 3, 64, 0
5, 16980, Note_on_c, 3, 59, 100
5, 17040, Note_on_c, 3, 59, 0
5, 17040, Note_on_c, 3, 61, 100
5, 17100, Note_on_c, 3, 61, 0
5, 17100, Note_on_c, 3, 59, 100
5, 17160, Note_on_c, 3, 59, 0
5, 17220, Note_on_c, 3, 66, 100
5, 17220, Note_on_c, 3, 63, 100
5, 17220, Note_on_c, 3, 59, 100
5, 17280, Note_on_c, 3, 59, 0
5, 17280, Note_on_c, 3, 63, 0
5, 17280, Note_on_c, 3, 66, 0
5, 17280, Note_on_c, 3, 68, 100
5, 17280, Note_on_c, 3, 64, 100
5, 17400, Note_on_c, 3, 64, 0
5, 17400, Note_on_c, 3, 68, 0
5, 17520, Note_on_c, 3, 71, 100
5, 17520, Note_on_c, 3, 66, 100
5, 17540, Note_on_c, 3, 66, 0
5, 17540, Note_on_c, 3, 71, 0
5, 17540, Note_on_c, 3, 68, 100
5, 17560, Note_on_c, 3, 68, 0
5, 17560, Note_on_c, 3, 66, 100
5, 17580, Note_on_c, 3, 66, 0
5, 17580, Note_on_c, 3, 63, 100
5, 17580, Note_on_c, 3, 59, 100
5, 17640, Note_on_c, 3, 59, 0
5, 17640, Note_on_c, 3, 63, 0
5, 17640, Note_on_c, 3, 71, 100
5, 17640, Note_on_c, 3, 66, 100
5, 17670, Note_on_c, 3, 66, 0
5, 17670, Note_on_c, 3, 71, 0
5, 17700, Note_on_c, 3, 64, 100
5, 17700, Note_on_c, 3, 61, 100
5, 17880, Note_on_c, 3, 61, 0
5, 17880, Note_on_c, 3, 64, 0
5, 17940, Note_on_c, 3, 59, 100
5, 17940, Note_on_c, 3, 57, 100
5, 17940, Note_on_c, 3, 52, 100
5, 17940, Note_on_c, 3, 45, 100
5, 18000, Note_on_c, 3, 45, 0
5, 18000, Note_on_c, 3, 59, 0
5, 18000, Note_on_c, 3, 57, 0
5, 18000, Note_on_c, 3, 52, 0
5, 18000, Note_on_c, 3, 61, 100
5, 18060, Note_on_c, 3, 61, 0
5, 18060, Note_on_c, 3, 59, 100
5, 18120, Note_on_c, 3, 59, 0
5, 18180, Note_on_c, 3, 61, 100
5, 18180, Note_on_c, 3, 57, 100
5, 18360, Note_on_c, 3, 57, 0
5, 18360, Note_on_c, 3, 61, 0
5, 18660, Note_on_c, 3, 59, 100
5, 18690, Note_on_c, 3, 59, 0
5, 18690, Note_on_c, 3, 61, 100
5, 18720, Note_on_c, 3, 61, 0
5, 18720, Note_on_c, 3, 66, 100
5, 18780, Note_on_c, 3, 66, 0
5, 18780, Note_on_c, 3, 66, 100
5, 18820, Note_on_c, 3, 66, 0
5, 18820, Note_on_c, 3, 66, 100
5, 18840, Note_on_c, 3, 66, 0
5, 18840, Note_on_c, 3, 68, 100
5, 18900, Note_on_c, 3, 68, 0
5, 18900, Note_on_c, 3, 64, 100
5, 19080, Note_on_c, 3, 64, 0
5, 19200, Note_on_c, 3, 69, 100
5, 19200, Note_on_c, 3, 61, 100
5, 19260, Note_on_c, 3, 61, 0
5, 19260, Note_on_c, 3, 69, 0
5, 19260, Note_on_c, 3, 68, 100
5, 19260, Note_on_c, 3, 64, 100
5, 19320, Note_on_c, 3, 64, 0
5, 19320, Note_on_c, 3, 68, 0
5, 19320, Note_on_c, 3, 66, 100
5, 19380, Note_on_c, 3, 66, 0
5, 19380, Note_on_c, 3, 68, 100
5, 19440, Note_on_c, 3, 68, 0
5, 19440, Note_on_c, 3, 66, 100
5, 19500, Note_on_c, 3, 66, 0
5, 19500, Note_on_c, 3, 64, 100
5, 19560, Note_on_c, 3, 64, 0
5, 19560, Note_on_c, 3, 61, 100
5, 19620, Note_on_c, 3, 61, 0
5, 19680, Note_on_c, 3, 59, 100
5, 19710, Note_on_c, 3, 59, 0
5, 19710, Note_on_c, 3, 61, 100
5, 19740, Note_on_c, 3, 61, 0
5, 19740, Note_on_c, 3, 64, 100
5, 19800, Note_on_c, 3, 64, 0
5, 19800, Note_on_c, 3, 66, 100
5, 19860, Note_on_c, 3, 66, 0
5, 19860, Note_on_c, 3, 64, 100
5, 20040, Note_on_c, 3, 64, 0
5, 20220, Note_on_c, 3, 59, 100
5, 20280, Note_on_c, 3, 59, 0
5, 20280, Note_on_c, 3, 64, 100
5, 20340, Note_on_c, 3, 64, 0
5, 20340, Note_on_c, 3, 63, 100
5, 20400, Note_on_c, 3, 63, 0
5, 20400, Note_on_c, 3, 59, 100
5, 20640, Note_on_c, 3, 59, 0
5, 20640, Note_on_c, 3, 64, 100
5, 20640, Note_on_c, 3, 59, 100
5, 20700, Note_on_c, 3, 59, 0
5, 20700, Note_on_c, 3, 64, 0
5, 20760, Note_on_c, 3, 64, 100
5, 20760, Note_on_c, 3, 59, 100
5, 20820, Note_on_c, 3, 59, 0
5, 20820, Note_on_c, 3, 64, 0
5, 20820, Note_on_c, 3, 63, 100
5, 21000, Note_on_c, 3, 63, 0
5, 21120, Note_on_c, 3, 66, 100
5, 21180, Note_on_c, 3, 66, 0
5, 21180, Note_on_c, 3, 68, 100
5, 21360, Note_on_c, 3, 68, 0
5, 21360, Note_on_c, 3, 66, 100
5, 21480, Note_on_c, 3, 66, 0
5, 21480, Note_on_c, 3, 63, 100
5, 21540, Note_on_c, 3, 63, 0
5, 21780, Note_on_c, 3, 59, 100
5, 21780, Note_on_c, 3, 57, 100
5, 21780, Note_on_c, 3, 52, 100
5, 21780, Note_on_c, 3, 45, 100
5, 21840, Note_on_c, 3, 45, 0
5, 21840, Note_on_c, 3, 59, 0
5, 21840, Note_on_c, 3, 57, 0
5, 21840, Note_on_c, 3, 52, 0
5, 21840, Note_on_c, 3, 61, 100
5, 21900, Note_on_c, 3, 61, 0
5, 21900, Note_on_c, 3, 64, 100
5, 21900, Note_on_c, 3, 59, 100
5, 21960, Note_on_c, 3, 59, 0
5, 21960, Note_on_c, 3, 64, 0
5, 22020, Note_on_c, 3, 63, 100
5, 22020, Note_on_c, 3, 59, 100
5, 22020, Note_on_c, 3, 54, 100
5, 22080, Note_on_c, 3, 54, 0
5, 22080, Note_on_c, 3, 59, 0
5, 22080, Note_on_c, 3, 63, 0
5, 22080, Note_on_c, 3, 64, 100
5, 22080, Note_on_c, 3, 56, 100
5, 22320, Note_on_c, 3, 56, 0
5, 22320, Note_on_c, 3, 64, 0
5, 23220, Note_on_c, 3, 71, 100
5, 23220, Note_on_c, 3, 66, 100
5, 23280, Note_on_c, 3, 66, 0
5, 23280, Note_on_c, 3, 71, 0
5, 23280, Note_on_c, 3, 68, 100
5, 23340, Note_on_c, 3, 68, 0
5, 23340, Note_on_c, 3, 63, 100
5, 23340, Note_on_c, 3, 59, 100
5, 23400, Note_on_c, 3, 59, 0
5, 23400, Note_on_c, 3, 63, 0
5, 23400, Note_on_c, 3, 71, 100
5, 23400, Note_on_c, 3, 66, 100
5, 23430, Note_on_c, 3, 66, 0
5, 23430, Note_on_c, 3, 71, 0
5, 23700, Note_on_c, 3, 64, 100
5, 23700, Note_on_c, 3, 59, 100
5, 23760, Note_on_c, 3, 59, 0
5, 23760, Note_on_c, 3, 64, 0
5, 23760, Note_on_c, 3, 61, 100
5, 23820, Note_on_c, 3, 61, 0
5, 23820, Note_on_c, 3, 64, 100
5, 23820, Note_on_c, 3, 59, 100
5, 23880, Note_on_c, 3, 59, 0
5, 23880, Note_on_c, 3, 64, 0
5, 24240, Note_on_c, 3, 71, 100
5, 24240, Note_on_c, 3, 66, 100
5, 24270, Note_on_c, 3, 66, 0
5, 24270, Note_on_c, 3, 71, 0
5, 24270, Note_on_c, 3, 68, 100
5, 24300, Note_on_c, 3, 68, 0
5, 24300, Note_on_c, 3, 63, 100
5, 24300, Note_on_c, 3, 59, 100
5, 24360, Note_on_c, 3, 59, 0
5, 24360, Note_on_c, 3, 63, 0
5, 24360, Note_on_c, 3, 71, 100
5, 24360, Note_on_c, 3, 66, 100
5, 24420, Note_on_c, 3, 66, 0
5, 24420, Note_on_c, 3, 71, 0
5, 24720, Note_on_c, 3, 64, 100
5, 24720, Note_on_c, 3, 61, 100
5, 24780, Note_on_c, 3, 61, 0
5, 24780, Note_on_c, 3, 64, 0
5, 24780, Note_on_c, 3, 59, 100
5, 24840, Note_on_c, 3, 59, 0
5, 24900, Note_on_c, 3, 64, 100
5, 24900, Note_on_c, 3, 59, 100
5, 24900, Note_on_c, 3, 56, 100
5, 25080, Note_on_c, 3, 56, 0
5, 25080, Note_on_c, 3, 59, 0
5, 25080, Note_on_c, 3, 64, 0
5, 25200, Note_on_c, 3, 71, 100
5, 25200, Note_on_c, 3, 68, 100
5, 25260, Note_on_c, 3, 68, 0
5, 25260, Note_on_c, 3, 71, 0
5, 25260, Note_on_c, 3, 63, 100
5, 25260, Note_on_c, 3, 59, 100
5, 25320, Note_on_c, 3, 59, 0
5, 25320, Note_on_c, 3, 63, 0
5, 25320, Note_on_c, 3, 71, 100
5, 25320, Note_on_c, 3, 66, 100
5, 25350, Note_on_c, 3, 66, 0
5, 25350, Note_on_c, 3, 71, 0
5, 25380, Note_on_c, 3, 68, 100
5, 25380, Note_on_c, 3, 64, 100
5, 25560, Note_on_c, 3, 64, 0
5, 25560, Note_on_c, 3, 68, 0
5, 25680, Note_on_c, 3, 61, 100
5, 25740, Note_on_c, 3, 61, 0
5, 25740, Note_on_c, 3, 59, 100
5, 25800, Note_on_c, 3, 59, 0
5, 25860, Note_on_c, 3, 63, 100
5, 25860, Note_on_c, 3, 59, 100
5, 25920, Note_on_c, 3, 59, 0
5, 25920, Note_on_c, 3, 63, 0
5, 25920, Note_on_c, 3, 64, 100
5, 26040, Note_on_c, 3, 64, 0
5, 26160, Note_on_c, 3, 71, 100
5, 26160, Note_on_c, 3, 68, 100
5, 26220, Note_on_c, 3, 68, 0
5, 26220, Note_on_c, 3, 71, 0
5, 26220, Note_on_c, 3, 66, 100
5, 26220, Note_on_c, 3, 63, 100
5, 26220, Note_on_c, 3, 59, 100
5, 26280, Note_on_c, 3, 59, 0
5, 26280, Note_on_c, 3, 63, 0
5, 26280, Note_on_c, 3, 66, 0
5, 26280, Note_on_c, 3, 66, 100
5, 26310, Note_on_c, 3, 66, 0
5, 26340, Note_on_c, 3, 64, 100
5, 26340, Note_on_c, 3, 61, 100
5, 26520, Note_on_c, 3, 61, 0
5, 26520, Note_on_c, 3, 64, 0
5, 26520, Note_on_c, 3, 59, 100
5, 26520, Note_on_c, 3, 57, 100
5, 26520, Note_on_c, 3, 52, 100
5, 26580, Note_on_c, 3, 52, 0
5, 26580, Note_on_c, 3, 57, 0
5, 26580, Note_on_c, 3, 59, 0
5, 26580, Note_on_c, 3, 61, 100
5, 26640, Note_on_c, 3, 61, 0
5, 26640, Note_on_c, 3, 64, 100
5, 26700, Note_on_c, 3, 64, 0
5, 27060, Note_on_c, 3, 71, 100
5, 27060, Note_on_c, 3, 66, 100
5, 27120, Note_on_c, 3, 66, 0
5, 27120, Note_on_c, 3, 71, 0
5, 27120, Note_on_c, 3, 68, 100
5, 27180, Note_on_c, 3, 68, 0
5, 27180, Note_on_c, 3, 66, 100
5, 27180, Note_on_c, 3, 63, 100
5, 27180, Note_on_c, 3, 59, 100
5, 27240, Note_on_c, 3, 59, 0
5, 27240, Note_on_c, 3, 63, 0
5, 27240, Note_on_c, 3, 66, 0
5, 27300, Note_on_c, 3, 64, 100
5, 27300, Note_on_c, 3, 61, 100
5, 27480, Note_on_c, 3, 61, 0
5, 27480, Note_on_c, 3, 64, 0
5, 27540, Note_on_c, 3, 59, 100
5, 27540, Note_on_c, 3, 57, 100
5, 27540, Note_on_c, 3, 52, 100
5, 27600, Note_on_c, 3, 52, 0
5, 27600, Note_on_c, 3, 57, 0
5, 27600, Note_on_c, 3, 59, 0
5, 27600, Note_on_c, 3, 61, 100
5, 27660, Note_on_c, 3, 61, 0
5, 27660, Note_on_c, 3, 64, 100
5, 27720, Note_on_c, 3, 64, 0
5, 28020, Note_on_c, 3, 71, 100
5, 28020, Note_on_c, 3, 66, 100
5, 28080, Note_on_c, 3, 66, 0
5, 28080, Note_on_c, 3, 71, 0
5, 28080, Note_on_c, 3, 68, 100
5, 28140, Note_on_c, 3, 68, 0
5, 28140, Note_on_c, 3, 66, 100
5, 28200, Note_on_c, 3, 66, 0
5, 28200, Note_on_c, 3, 71, 100
5, 28260, Note_on_c, 3, 71, 0
5, 28260, Note_on_c, 3, 64, 100
5, 28260, Note_on_c, 3, 61, 100
5, 28440, Note_on_c, 3, 61, 0
5, 28440, Note_on_c, 3, 64, 0
5, 28500, Note_on_c, 3, 64, 100
5, 28500, Note_on_c, 3, 59, 100
5, 28560, Note_on_c, 3, 59, 0
5, 28560, Note_on_c, 3, 64, 0
5, 28560, Note_on_c, 3, 61, 100
5, 28620, Note_on_c, 3, 61, 0
5, 28620, Note_on_c, 3, 64, 100
5, 28620, Note_on_c, 3, 59, 100
5, 28680, Note_on_c, 3, 59, 0
5, 28680, Note_on_c, 3, 64, 0
5, 28980, Note_on_c, 3, 71, 100
5, 28980, Note_on_c, 3, 66, 100
5, 29040, Note_on_c, 3, 66, 0
5, 29040, Note_on_c, 3, 71, 0
5, 29040, Note_on_c, 3, 68, 100
5, 29100, Note_on_c, 3, 68, 0
5, 29100, Note_on_c, 3, 63, 100
5, 29160, Note_on_c, 3, 63, 0
5, 29160, Note_on_c, 3, 66, 100
5, 29220, Note_on_c, 3, 66, 0
5, 29220, Note_on_c, 3, 68, 100
5, 29220, Note_on_c, 3, 64, 100
5, 29220, Note_on_c, 3, 61, 100
5, 29400, Note_on_c, 3, 61, 0
5, 29400, Note_on_c, 3, 64, 0
5, 29400, Note_on_c, 3, 68, 0
5, 29460, Note_on_c, 3, 59, 100
5, 29460, Note_on_c, 3, 57, 100
5, 29460, Note_on_c, 3, 52, 100
5, 29520, Note_on_c, 3, 52, 0
5, 29520, Note_on_c, 3, 57, 0
5, 29520, Note_on_c, 3, 59, 0
5, 29520, Note_on_c, 3, 61, 100
5, 29580, Note_on_c, 3, 61, 0
5, 29580, Note_on_c, 3, 59, 100
5, 29640, Note_on_c, 3, 59, 0
5, 30000, Note_on_c, 3, 68, 100
5, 30060, Note_on_c, 3, 68, 0
5, 30060, Note_on_c, 3, 66, 100
5, 30090, Note_on_c, 3, 66, 0
5, 30120, Note_on_c, 3, 66, 100
5, 30180, Note_on_c, 3, 66, 0
5, 30180, Note_on_c, 3, 64, 100
5, 30180, Note_on_c, 3, 61, 100
5, 30360, Note_on_c, 3, 61, 0
5, 30360, Note_on_c, 3, 64, 0
5, 30420, Note_on_c, 3, 59, 100
5, 30420, Note_on_c, 3, 57, 100
5, 30420, Note_on_c, 3, 52, 100
5, 30480, Note_on_c, 3, 52, 0
5, 30480, Note_on_c, 3, 57, 0
5, 30480, Note_on_c, 3, 59, 0
5, 30480, Note_on_c, 3, 61, 100
5, 30540, Note_on_c, 3, 61, 0
5, 30540, Note_on_c, 3, 59, 100
5, 30600, Note_on_c, 3, 59, 0
5, 30960, Note_on_c, 3, 66, 100
5, 30990, Note_on_c, 3, 66, 0
5, 30990, Note_on_c, 3, 68, 100
5, 31020, Note_on_c, 3, 68, 0
5, 31020, Note_on_c, 3, 63, 100
5, 31080, Note_on_c, 3, 63, 0
5, 31080, Note_on_c, 3, 66, 100
5, 31110, Note_on_c, 3, 66, 0
5, 31140, Note_on_c, 3, 64, 100
5, 31140, Note_on_c, 3, 61, 100
5, 31320, Note_on_c, 3, 61, 0
5, 31320, Note_on_c, 3, 64, 0
5, 31380, Note_on_c, 3, 59, 100
5, 31380, Note_on_c, 3, 57, 100
5, 31380, Note_on_c, 3, 52, 100
5, 31380, Note_on_c, 3, 45, 100
5, 31440, Note_on_c, 3, 45, 0
5, 31440, Note_on_c, 3, 59, 0
5, 31440, Note_on_c, 3, 57, 0
5, 31440, Note_on_c, 3, 52, 0
5, 31440, Note_on_c, 3, 61, 100
5, 31500, Note_on_c, 3, 61, 0
5, 31500, Note_on_c, 3, 59, 100
5, 31500, Note_on_c, 3, 57, 100
5, 31500, Note_on_c, 3, 52, 100
5, 31560, Note_on_c, 3, 52, 0
5, 31560, Note_on_c, 3, 57, 0
5, 31560, Note_on_c, 3, 59, 0
5, 31860, Note_on_c, 3, 71, 100
5, 31860, Note_on_c, 3, 66, 100
5, 31920, Note_on_c, 3, 66, 0
5, 31920, Note_on_c, 3, 71, 0
5, 31920, Note_on_c, 3, 68, 100
5, 31980, Note_on_c, 3, 68, 0
5, 31980, Note_on_c, 3, 59, 100
5, 31980, Note_on_c, 3, 63, 100
5, 32040, Note_on_c, 3, 63, 0
5, 32040, Note_on_c, 3, 59, 0
5, 32100, Note_on_c, 3, 64, 100
5, 32100, Note_on_c, 3, 61, 100
5, 32280, Note_on_c, 3, 61, 0
5, 32280, Note_on_c, 3, 64, 0
5, 32280, Note_on_c, 3, 68, 100
5, 32280, Note_on_c, 3, 64, 100
5, 32340, Note_on_c, 3, 64, 0
5, 32340, Note_on_c, 3, 68, 0
5, 32340, Note_on_c, 3, 61, 100
5, 32400, Note_on_c, 3, 61, 0
5, 32400, Note_on_c, 3, 57, 100
5, 32520, Note_on_c, 3, 57, 0
5, 32880, Note_on_c, 3, 66, 100
5, 32910, Note_on_c, 3, 66, 0
5, 32910, Note_on_c, 3, 68, 100
5, 32940, Note_on_c, 3, 68, 0
5, 32940, Note_on_c, 3, 63, 100
5, 32940, Note_on_c, 3, 59, 100
5, 33000, Note_on_c, 3, 59, 0
5, 33000, Note_on_c, 3, 63, 0
5, 33000, Note_on_c, 3, 66, 100
5, 33060, Note_on_c, 3, 66, 0
5, 33060, Note_on_c, 3, 64, 100
5, 33060, Note_on_c, 3, 61, 100
5, 33240, Note_on_c, 3, 61, 0
5, 33240, Note_on_c, 3, 64, 0
5, 33300, Note_on_c, 3, 52, 100
5, 33300, Note_on_c, 3, 57, 100
5, 33300, Note_on_c, 3, 59, 100
5, 33360, Note_on_c, 3, 59, 0
5, 33360, Note_on_c, 3, 57, 0
5, 33360, Note_on_c, 3, 52, 0
5, 33360, Note_on_c, 3, 61, 100
5, 33420, Note_on_c, 3, 61, 0
5, 33420, Note_on_c, 3, 64, 100
5, 33420, Note_on_c, 3, 59, 100
5, 33480, Note_on_c, 3, 59, 0
5, 33480, Note_on_c, 3, 64, 0
5, 33840, Note_on_c, 3, 71, 100
5, 33840, Note_on_c, 3, 68, 100
5, 33840, Note_on_c, 3, 55, 100
5, 33900, Note_on_c, 3, 55, 0
5, 33900, Note_on_c, 3, 68, 0
5, 33900, Note_on_c, 3, 71, 0
5, 33900, Note_on_c, 3, 63, 100
5, 33960, Note_on_c, 3, 63, 0
5, 33960, Note_on_c, 3, 66, 100
5, 33990, Note_on_c, 3, 66, 0
5, 34320, Note_on_c, 3, 61, 100
5, 34380, Note_on_c, 3, 61, 0
5, 34380, Note_on_c, 3, 59, 100
5, 34440, Note_on_c, 3, 59, 0
5, 34440, Note_on_c, 3, 61, 100
5, 34500, Note_on_c, 3, 61, 0
5, 34500, Note_on_c, 3, 64, 100
5, 34560, Note_on_c, 3, 64, 0
5, 34740, Note_on_c, 3, 66, 100
5, 34800, Note_on_c, 3, 66, 0
5, 34800, Note_on_c, 3, 68, 100
5, 34860, Note_on_c, 3, 68, 0
5, 34860, Note_on_c, 3, 66, 100
5, 34860, Note_on_c, 3, 63, 100
5, 34860, Note_on_c, 3, 59, 100
5, 34920, Note_on_c, 3, 59, 0
5, 34920, Note_on_c, 3, 63, 0
5, 34920, Note_on_c, 3, 66, 0
5, 34920, Note_on_c, 3, 71, 100
5, 34935, Note_on_c, 3, 71, 0
5, 34980, Note_on_c, 3, 64, 100
5, 34980, Note_on_c, 3, 61, 100
5, 35160, Note_on_c, 3, 61, 0
5, 35160, Note_on_c, 3, 64, 0
5, 35220, Note_on_c, 3, 64, 100
5, 35220, Note_on_c, 3, 59, 100
5, 35280, Note_on_c, 3, 59, 0
5, 35280, Note_on_c, 3, 64, 0
5, 35280, Note_on_c, 3, 61, 100
5, 35340, Note_on_c, 3, 61, 0
5, 35340, Note_on_c, 3, 64, 100
5, 35340, Note_on_c, 3, 59, 100
5, 35400, Note_on_c, 3, 59, 0
5, 35400, Note_on_c, 3, 64, 0
5, 35400, Note_on_c, 3, 61, 100
5, 35460, Note_on_c, 3, 61, 0
5, 35760, Note_on_c, 3, 71, 100
5, 35760, Note_on_c, 3, 68, 100
5, 35820, Note_on_c, 3, 68, 0
5, 35820, Note_on_c, 3, 71, 0
5, 35820, Note_on_c, 3, 68, 100
5, 35820, Note_on_c, 3, 64, 100
5, 35820, Note_on_c, 3, 61, 100
5, 35880, Note_on_c, 3, 61, 0
5, 35880, Note_on_c, 3, 64, 0
5, 35880, Note_on_c, 3, 68, 0
5, 35940, Note_on_c, 3, 64, 100
5, 35940, Note_on_c, 3, 61, 100
5, 36120, Note_on_c, 3, 61, 0
5, 36120, Note_on_c, 3, 64, 0
5, 36180, Note_on_c, 3, 64, 100
5, 36180, Note_on_c, 3, 59, 100
5, 36240, Note_on_c, 3, 59, 0
5, 36240, Note_on_c, 3, 64, 0
5, 36240, Note_on_c, 3, 61, 100
5, 36300, Note_on_c, 3, 61, 0
5, 36300, Note_on_c, 3, 59, 100
5, 36360, Note_on_c, 3, 59, 0
5, 36360, Note_on_c, 3, 61, 100
5, 36420, Note_on_c, 3, 61, 0
5, 36720, Note_on_c, 3, 71, 100
5, 36720, Note_on_c, 3, 66, 100
5, 36780, Note_on_c, 3, 66, 0
5, 36780, Note_on_c, 3, 71, 0
5, 36780, Note_on_c, 3, 68, 100
5, 36840, Note_on_c, 3, 68, 0
5, 36900, Note_on_c, 3, 64, 100
5, 36900, Note_on_c, 3, 61, 100
5, 37080, Note_on_c, 3, 61, 0
5, 37080, Note_on_c, 3, 64, 0
5, 37260, Note_on_c, 3, 59, 100
5, 37320, Note_on_c, 3, 59, 0
5, 37680, Note_on_c, 3, 66, 100
5, 37680, Note_on_c, 3, 64, 100
5, 37710, Note_on_c, 3, 64, 0
5, 37710, Note_on_c, 3, 66, 0
5, 37710, Note_on_c, 3, 68, 100
5, 37740, Note_on_c, 3, 68, 0
5, 37740, Note_on_c, 3, 66, 100
5, 37740, Note_on_c, 3, 64, 100
5, 37800, Note_on_c, 3, 64, 0
5, 37800, Note_on_c, 3, 66, 0
5, 37800, Note_on_c, 3, 66, 100
5, 37860, Note_on_c, 3, 66, 0
5, 37980, Note_on_c, 3, 64, 100
5, 37980, Note_on_c, 3, 61, 100
5, 38040, Note_on_c, 3, 61, 0
5, 38040, Note_on_c, 3, 64, 0
5, 38100, Note_on_c, 3, 59, 100
5, 38100, Note_on_c, 3, 55, 100
5, 38160, Note_on_c, 3, 55, 0
5, 38160, Note_on_c, 3, 59, 0
5, 38160, Note_on_c, 3, 61, 100
5, 38160, Note_on_c, 3, 57, 100
5, 38220, Note_on_c, 3, 57, 0
5, 38220, Note_on_c, 3, 61, 0
5, 38220, Note_on_c, 3, 64, 100
5, 38220, Note_on_c, 3, 55, 100
5, 38220, Note_on_c, 3, 59, 100
5, 38280, Note_on_c, 3, 59, 0
5, 38280, Note_on_c, 3, 55, 0
5, 38280, Note_on_c, 3, 64, 0
5, 38340, Note_on_c, 3, 63, 100
5, 38340, Note_on_c, 3, 59, 100
5, 38340, Note_on_c, 3, 54, 100
5, 38400, Note_on_c, 3, 54, 0
5, 38400, Note_on_c, 3, 59, 0
5, 38400, Note_on_c, 3, 63, 0
5, 38400, Note_on_c, 3, 64, 100
5, 38400, Note_on_c, 3, 56, 100
5, 38520, Note_on_c, 3, 56, 0
5, 38520, Note_on_c, 3, 64, 0
5, 38580, Note_on_c, 3, 71, 100
5, 38580, Note_on_c, 3, 66, 100
5, 38640, Note_on_c, 3, 66, 0
5, 38640, Note_on_c, 3, 71, 0
5, 38640, Note_on_c, 3, 71, 100
5, 38640, Note_on_c, 3, 68, 100
5, 38700, Note_on_c, 3, 68, 0
5, 38700, Note_on_c, 3, 71, 0
5, 38700, Note_on_c, 3, 63, 100
5, 38760, Note_on_c, 3, 63, 0
5, 38760, Note_on_c, 3, 71, 100
5, 38760, Note_on_c, 3, 66, 100
5, 38820, Note_on_c, 3, 66, 0
5, 38820, Note_on_c, 3, 71, 0
5, 38820, Note_on_c, 3, 64, 100
5, 38820, Note_on_c, 3, 61, 100
5, 39000, Note_on_c, 3, 61, 0
5, 39000, Note_on_c, 3, 64, 0
5, 39180, Note_on_c, 3, 64, 100
5, 39180, Note_on_c, 3, 59, 100
5, 39210, Note_on_c, 3, 59, 0
5, 39210, Note_on_c, 3, 64, 0
5, 39210, Note_on_c, 3, 64, 100
5, 39210, Note_on_c, 3, 59, 100
5, 39240, Note_on_c, 3, 59, 0
5, 39240, Note_on_c, 3, 64, 0
5, 39240, Note_on_c, 3, 61, 100
5, 39300, Note_on_c, 3, 61, 0
5, 39600, Note_on_c, 3, 71, 100
5, 39600, Note_on_c, 3, 68, 100
5, 39660, Note_on_c, 3, 68, 0
5, 39660, Note_on_c, 3, 71, 0
5, 39660, Note_on_c, 3, 63, 100
5, 39690, Note_on_c, 3, 63, 0
5, 39720, Note_on_c, 3, 71, 100
5, 39720, Note_on_c, 3, 66, 100
5, 39750, Note_on_c, 3, 66, 0
5, 39750, Note_on_c, 3, 71, 0
5, 39780, Note_on_c, 3, 61, 100
5, 39960, Note_on_c, 3, 61, 0
5, 40020, Note_on_c, 3, 59, 100
5, 40020, Note_on_c, 3, 57, 100
5, 40020, Note_on_c, 3, 52, 100
5, 40080, Note_on_c, 3, 52, 0
5, 40080, Note_on_c, 3, 57, 0
5, 40080, Note_on_c, 3, 59, 0
5, 40080, Note_on_c, 3, 61, 100
5, 40080, Note_on_c, 3, 57, 100
5, 40080, Note_on_c, 3, 52, 100
5, 40140, Note_on_c, 3, 52, 0
5, 40140, Note_on_c, 3, 57, 0
5, 40140, Note_on_c, 3, 61, 0
5, 40140, Note_on_c, 3, 59, 100
5, 40200, Note_on_c, 3, 59, 0
5, 40200, Note_on_c, 3, 61, 100
5, 40200, Note_on_c, 3, 57, 100
5, 40260, Note_on_c, 3, 57, 0
5, 40260, Note_on_c, 3, 61, 0
5, 40560, Note_on_c, 3, 71, 100
5, 40560, Note_on_c, 3, 68, 100
5, 40620, Note_on_c, 3, 68, 0
5, 40620, Note_on_c, 3, 71, 0
5, 40620, Note_on_c, 3, 63, 100
5, 40620, Note_on_c, 3, 59, 100
5, 40680, Note_on_c, 3, 59, 0
5, 40680, Note_on_c, 3, 63, 0
5, 40680, Note_on_c, 3, 66, 100
5, 40710, Note_on_c, 3, 66, 0
5, 40740, Note_on_c, 3, 64, 100
5, 40740, Note_on_c, 3, 61, 100
5, 40740, Note_on_c, 3, 57, 100
5, 40920, Note_on_c, 3, 57, 0
5, 40920, Note_on_c, 3, 61, 0
5, 40920, Note_on_c, 3, 64, 0
5, 40980, Note_on_c, 3, 57, 100
5, 41040, Note_on_c, 3, 57, 0
5, 41040, Note_on_c, 3, 61, 100
5, 41040, Note_on_c, 3, 57, 100
5, 41100, Note_on_c, 3, 57, 0
5, 41100, Note_on_c, 3, 61, 0
5, 41100, Note_on_c, 3, 59, 100
5, 41160, Note_on_c, 3, 59, 0
5, 41520, Note_on_c, 3, 71, 100
5, 41520, Note_on_c, 3, 68, 100
5, 41580, Note_on_c, 3, 68, 0
5, 41580, Note_on_c, 3, 71, 0
5, 41580, Note_on_c, 3, 63, 100
5, 41580, Note_on_c, 3, 59, 100
5, 41640, Note_on_c, 3, 59, 0
5, 41640, Note_on_c, 3, 63, 0
5, 41640, Note_on_c, 3, 71, 100
5, 41640, Note_on_c, 3, 66, 100
5, 41700, Note_on_c, 3, 66, 0
5, 41700, Note_on_c, 3, 71, 0
5, 41700, Note_on_c, 3, 64, 100
5, 41700, Note_on_c, 3, 61, 100
5, 41880, Note_on_c, 3, 61, 0
5, 41880, Note_on_c, 3, 64, 0
5, 41940, Note_on_c, 3, 57, 100
5, 42000, Note_on_c, 3, 57, 0
5, 42000, Note_on_c, 3, 61, 100
5, 42060, Note_on_c, 3, 61, 0
5, 42060, Note_on_c, 3, 64, 100
5, 42120, Note_on_c, 3, 64, 0
5, 42120, Note_on_c, 3, 61, 100
5, 42120, Note_on_c, 3, 57, 100
5, 42180, Note_on_c, 3, 57, 0
5, 42180, Note_on_c, 3, 61, 0
5, 42480, Note_on_c, 3, 71, 100
5, 42480, Note_on_c, 3, 68, 100
5, 42540, Note_on_c, 3, 68, 0
5, 42540, Note_on_c, 3, 71, 0
5, 42540, Note_on_c, 3, 63, 100
5, 42540, Note_on_c, 3, 59, 100
5, 42600, Note_on_c, 3, 59, 0
5, 42600, Note_on_c, 3, 63, 0
5, 42600, Note_on_c, 3, 66, 100
5, 42660, Note_on_c, 3, 66, 0
5, 42660, Note_on_c, 3, 64, 100
5, 42660, Note_on_c, 3, 61, 100
5, 42840, Note_on_c, 3, 61, 0
5, 42840, Note_on_c, 3, 64, 0
5, 42900, Note_on_c, 3, 64, 100
5, 42900, Note_on_c, 3, 59, 100
5, 42960, Note_on_c, 3, 59, 0
5, 42960, Note_on_c, 3, 64, 0
5, 42960, Note_on_c, 3, 61, 100
5, 43020, Note_on_c, 3, 61, 0
5, 43020, Note_on_c, 3, 59, 100
5, 43080, Note_on_c, 3, 59, 0
5, 43140, Note_on_c, 3, 66, 100
5, 43140, Note_on_c, 3, 63, 100
5, 43140, Note_on_c, 3, 59, 100
5, 43200, Note_on_c, 3, 59, 0
5, 43200, Note_on_c, 3, 63, 0
5, 43200, Note_on_c, 3, 66, 0
5, 43200, Note_on_c, 3, 68, 100
5, 43200, Note_on_c, 3, 64, 100
5, 43320, Note_on_c, 3, 64, 0
5, 43320, Note_on_c, 3, 68, 0
5, 43440, Note_on_c, 3, 71, 100
5, 43440, Note_on_c, 3, 68, 100
5, 43500, Note_on_c, 3, 68, 0
5, 43500, Note_on_c, 3, 71, 0
5, 43500, Note_on_c, 3, 63, 100
5, 43500, Note_on_c, 3, 59, 100
5, 43560, Note_on_c, 3, 59, 0
5, 43560, Note_on_c, 3, 63, 0
5, 43560, Note_on_c, 3, 71, 100
5, 43560, Note_on_c, 3, 66, 100
5, 43620, Note_on_c, 3, 66, 0
5, 43620, Note_on_c, 3, 71, 0
5, 43620, Note_on_c, 3, 64, 100
5, 43620, Note_on_c, 3, 61, 100
5, 43800, Note_on_c, 3, 61, 0
5, 43800, Note_on_c, 3, 64, 0
5, 43860, Note_on_c, 3, 59, 100
5, 43920, Note_on_c, 3, 59, 0
5, 43920, Note_on_c, 3, 61, 100
5, 43980, Note_on_c, 3, 61, 0
5, 43980, Note_on_c, 3, 64, 100
5, 43980, Note_on_c, 3, 59, 100
5, 44040, Note_on_c, 3, 59, 0
5, 44040, Note_on_c, 3, 64, 0
5, 44040, Note_on_c, 3, 61, 100
5, 44100, Note_on_c, 3, 61, 0
5, 44400, Note_on_c, 3, 71, 100
5, 44400, Note_on_c, 3, 68, 100
5, 44460, Note_on_c, 3, 68, 0
5, 44460, Note_on_c, 3, 71, 0
5, 44460, Note_on_c, 3, 59, 100
5, 44460, Note_on_c, 3, 63, 100
5, 44520, Note_on_c, 3, 63, 0
5, 44520, Note_on_c, 3, 59, 0
5, 44520, Note_on_c, 3, 66, 100
5, 44580, Note_on_c, 3, 66, 0
5, 44580, Note_on_c, 3, 64, 100
5, 44580, Note_on_c, 3, 61, 100
5, 44760, Note_on_c, 3, 61, 0
5, 44760, Note_on_c, 3, 64, 0
5, 44820, Note_on_c, 3, 64, 100
5, 44820, Note_on_c, 3, 59, 100
5, 44880, Note_on_c, 3, 59, 0
5, 44880, Note_on_c, 3, 64, 0
5, 44880, Note_on_c, 3, 61, 100
5, 44940, Note_on_c, 3, 61, 0
5, 44940, Note_on_c, 3, 59, 100
5, 45000, Note_on_c, 3, 59, 0
5, 45000, Note_on_c, 3, 61, 100
5, 45060, Note_on_c, 3, 61, 0
5, 45060, Note_on_c, 3, 64, 100
5, 45240, Note_on_c, 3, 64, 0
5, 45360, Note_on_c, 3, 71, 100
5, 45360, Note_on_c, 3, 66, 100
5, 45390, Note_on_c, 3, 66, 0
5, 45390, Note_on_c, 3, 71, 0
5, 45390, Note_on_c, 3, 68, 100
5, 45420, Note_on_c, 3, 68, 0
5, 45420, Note_on_c, 3, 63, 100
5, 45420, Note_on_c, 3, 59, 100
5, 45480, Note_on_c, 3, 59, 0
5, 45480, Note_on_c, 3, 63, 0
5, 45480, Note_on_c, 3, 71, 100
5, 45480, Note_on_c, 3, 66, 100
5, 45540, Note_on_c, 3, 66, 0
5, 45540, Note_on_c, 3, 71, 0
5, 45540, Note_on_c, 3, 64, 100
5, 45540, Note_on_c, 3, 61, 100
5, 45720, Note_on_c, 3, 61, 0
5, 45720, Note_on_c, 3, 64, 0
5, 45840, Note_on_c, 3, 64, 100
5, 45840, Note_on_c, 3, 61, 100
5, 45900, Note_on_c, 3, 61, 0
5, 45900, Note_on_c, 3, 64, 0
5, 45900, Note_on_c, 3, 59, 100
5, 45960, Note_on_c, 3, 59, 0
5, 46320, Note_on_c, 3, 71, 100
5, 46320, Note_on_c, 3, 68, 100
5, 46380, Note_on_c, 3, 68, 0
5, 46380, Note_on_c, 3, 71, 0
5, 46380, Note_on_c, 3, 63, 100
5, 46440, Note_on_c, 3, 63, 0
5, 46440, Note_on_c, 3, 66, 100
5, 46500, Note_on_c, 3, 66, 0
5, 46500, Note_on_c, 3, 64, 100
5, 46500, Note_on_c, 3, 61, 100
5, 46680, Note_on_c, 3, 61, 0
5, 46680, Note_on_c, 3, 64, 0
5, 46740, Note_on_c, 3, 59, 100
5, 46740, Note_on_c, 3, 57, 100
5, 46740, Note_on_c, 3, 52, 100
5, 46800, Note_on_c, 3, 52, 0
5, 46800, Note_on_c, 3, 57, 0
5, 46800, Note_on_c, 3, 59, 0
5, 46800, Note_on_c, 3, 61, 100
5, 46860, Note_on_c, 3, 61, 0
5, 46860, Note_on_c, 3, 59, 100
5, 46860, Note_on_c, 3, 57, 100
5, 46860, Note_on_c, 3, 52, 100
5, 46920, Note_on_c, 3, 52, 0
5, 46920, Note_on_c, 3, 57, 0
5, 46920, Note_on_c, 3, 59, 0
5, 46920, Note_on_c, 3, 61, 100
5, 46980, Note_on_c, 3, 61, 0
5, 46980, Note_on_c, 3, 59, 100
5, 46980, Note_on_c, 3, 56, 100
5, 46980, Note_on_c, 3, 52, 100
5, 47160, Note_on_c, 3, 52, 0
5, 47160, Note_on_c, 3, 56, 0
5, 47160, Note_on_c, 3, 59, 0
5, 47280, Note_on_c, 3, 66, 100
5, 47300, Note_on_c, 3, 66, 0
5, 47300, Note_on_c, 3, 68, 100
5, 47320, Note_on_c, 3, 68, 0
5, 47320, Note_on_c, 3, 66, 100
5, 47340, Note_on_c, 3, 66, 0
5, 47340, Note_on_c, 3, 63, 100
5, 47340, Note_on_c, 3, 59, 100
5, 47400, Note_on_c, 3, 59, 0
5, 47400, Note_on_c, 3, 63, 0
5, 47400, Note_on_c, 3, 71, 100
5, 47400, Note_on_c, 3, 66, 100
5, 47460, Note_on_c, 3, 66, 0
5, 47460, Note_on_c, 3, 71, 0
5, 47460, Note_on_c, 3, 64, 100
5, 47460, Note_on_c, 3, 61, 100
5, 47580, Note_on_c, 3, 61, 0
5, 47580, Note_on_c, 3, 64, 0
5, 47580, Note_on_c, 3, 68, 100
5, 47580, Note_on_c, 3, 64, 100
5, 47580, Note_on_c, 3, 61, 100
5, 47640, Note_on_c, 3, 61, 0
5, 47640, Note_on_c, 3, 64, 0
5, 47640, Note_on_c, 3, 68, 0
5, 47760, Note_on_c, 3, 61, 100
5, 47820, Note_on_c, 3, 61, 0
5, 47820, Note_on_c, 3, 64, 100
5, 47820, Note_on_c, 3, 59, 100
5, 47880, Note_on_c, 3, 59, 0
5, 47880, Note_on_c, 3, 64, 0
5, 48000, Note_on_c, 3, 64, 100
5, 48000, Note_on_c, 3, 59, 100
5, 48120, Note_on_c, 3, 59, 0
5, 48120, Note_on_c, 3, 64, 0
5, 48240, Note_on_c, 3, 71, 100
5, 48240, Note_on_c, 3, 68, 100
5, 48300, Note_on_c, 3, 68, 0
5, 48300, Note_on_c, 3, 71, 0
5, 48300, Note_on_c, 3, 63, 100
5, 48300, Note_on_c, 3, 59, 100
5, 48360, Note_on_c, 3, 59, 0
5, 48360, Note_on_c, 3, 63, 0
5, 48360, Note_on_c, 3, 71, 100
5, 48360, Note_on_c, 3, 66, 100
5, 48420, Note_on_c, 3, 66, 0
5, 48420, Note_on_c, 3, 71, 0
5, 48420, Note_on_c, 3, 64, 100
5, 48420, Note_on_c, 3, 61, 100
5, 48600, Note_on_c, 3, 61, 0
5, 48600, Note_on_c, 3, 64, 0
5, 48660, Note_on_c, 3, 64, 100
5, 48660, Note_on_c, 3, 59, 100
5, 48720, Note_on_c, 3, 59, 0
5, 48720, Note_on_c, 3, 64, 0
5, 48720, Note_on_c, 3, 61, 100
5, 48780, Note_on_c, 3, 61, 0
5, 48780, Note_on_c, 3, 64, 100
5, 48780, Note_on_c, 3, 59, 100
5, 48840, Note_on_c, 3, 59, 0
5, 48840, Note_on_c, 3, 64, 0
5, 49140, Note_on_c, 3, 71, 100
5, 49140, Note_on_c, 3, 66, 100
5, 49200, Note_on_c, 3, 66, 0
5, 49200, Note_on_c, 3, 71, 0
5, 49200, Note_on_c, 3, 68, 100
5, 49260, Note_on_c, 3, 68, 0
5, 49260, Note_on_c, 3, 63, 100
5, 49260, Note_on_c, 3, 59, 100
5, 49320, Note_on_c, 3, 59, 0
5, 49320, Note_on_c, 3, 63, 0
5, 49320, Note_on_c, 3, 66, 100
5, 49380, Note_on_c, 3, 66, 0
5, 49380, Note_on_c, 3, 64, 100
5, 49380, Note_on_c, 3, 61, 100
5, 49620, Note_on_c, 3, 61, 0
5, 49620, Note_on_c, 3, 64, 0
5, 49620, Note_on_c, 3, 64, 100
5, 49620, Note_on_c, 3, 61, 100
5, 49620, Note_on_c, 3, 57, 100
5, 49740, Note_on_c, 3, 57, 0
5, 49740, Note_on_c, 3, 61, 0
5, 49740, Note_on_c, 3, 64, 0
5, 49740, Note_on_c, 3, 57, 100
5, 49800, Note_on_c, 3, 57, 0
5, 49800, Note_on_c, 3, 59, 100
5, 49860, Note_on_c, 3, 59, 0
5, 49860, Note_on_c, 3, 59, 100
5, 49920, Note_on_c, 3, 59, 0
5, 50160, Note_on_c, 3, 71, 100
5, 50160, Note_on_c, 3, 66, 100
5, 50190, Note_on_c, 3, 66, 0
5, 50190, Note_on_c, 3, 71, 0
5, 50190, Note_on_c, 3, 68, 100
5, 50220, Note_on_c, 3, 68, 0
5, 50220, Note_on_c, 3, 66, 100
5, 50220, Note_on_c, 3, 63, 100
5, 50220, Note_on_c, 3, 59, 100
5, 50280, Note_on_c, 3, 59, 0
5, 50280, Note_on_c, 3, 63, 0
5, 50280, Note_on_c, 3, 66, 0
5, 50280, Note_on_c, 3, 71, 100
5, 50280, Note_on_c, 3, 66, 100
5, 50340, Note_on_c, 3, 66, 0
5, 50340, Note_on_c, 3, 71, 0
5, 50340, Note_on_c, 3, 64, 100
5, 50340, Note_on_c, 3, 61, 100
5, 50400, Control_c, 3, 7, 103
5, 50432, Control_c, 3, 7, 102
5, 50464, Control_c, 3, 7, 101
5, 50496, Control_c, 3, 7, 100
5, 50520, Note_on_c, 3, 61, 0
5, 50520, Note_on_c, 3, 64, 0
5, 50528, Control_c, 3, 7, 99
5, 50560, Control_c, 3, 7, 98
5, 50580, Note_on_c, 3, 64, 100
5, 50580, Note_on_c, 3, 59, 100
5, 50592, Control_c, 3, 7, 97
5, 50624, Control_c, 3, 7, 96
5, 50640, Note_on_c, 3, 59, 0
5, 50640, Note_on_c, 3, 64, 0
5, 50640, Note_on_c, 3, 61, 100
5, 50656, Control_c, 3, 7, 95
5, 50688, Control_c, 3, 7, 94
5, 50700, Note_on_c, 3, 61, 0
5, 50700, Note_on_c, 3, 59, 100
5, 50720, Control_c, 3, 7, 93
5, 50752, Control_c, 3, 7, 92
5, 50760, Note_on_c, 3, 59, 0
5, 50784, Control_c, 3, 7, 91
5, 50816, Control_c, 3, 7, 90
5, 50848, Control_c, 3, 7, 89
5, 50880, Control_c, 3, 7, 88
5, 50912, Control_c, 3, 7, 87
5, 50944, Control_c, 3, 7, 86
5, 50976, Control_c, 3, 7, 85
5, 51008, Control_c, 3, 7, 84
5, 51040, Control_c, 3, 7, 83
5, 51060, Note_on_c, 3, 66, 100
5, 51072, Control_c, 3, 7, 82
5, 51104, Control_c, 3, 7, 81
5, 51120, Note_on_c, 3, 66, 0
5, 51120, Note_on_c, 3, 68, 100
5, 51136, Control_c, 3, 7, 80
5, 51168, Control_c, 3, 7, 79
5, 51180, Note_on_c, 3, 68, 0
5, 51180, Note_on_c, 3, 63, 100
5, 51200, Control_c, 3, 7, 78
5, 51233, Control_c, 3, 7, 77
5, 51240, Note_on_c, 3, 63, 0
5, 51240, Note_on_c, 3, 66, 100
5, 51265, Control_c, 3, 7, 76
5, 51297, Control_c, 3, 7, 75
5, 51300, Note_on_c, 3, 66, 0
5, 51300, Note_on_c, 3, 64, 100
5, 51300, Note_on_c, 3, 61, 100
5, 51329, Control_c, 3, 7, 74
5, 51361, Control_c, 3, 7, 73
5, 51393, Control_c, 3, 7, 72
5, 51425, Control_c, 3, 7, 71
5, 51457, Control_c, 3, 7, 70
5, 51480, Note_on_c, 3, 61, 0
5, 51480, Note_on_c, 3, 64, 0
5, 51489, Control_c, 3, 7, 69
5, 51521, Control_c, 3, 7, 68
5, 51540, Note_on_c, 3, 64, 100
5, 51540, Note_on_c, 3, 59, 100
5, 51553, Control_c, 3, 7, 67
5, 51585, Control_c, 3, 7, 66
5, 51600, Note_on_c, 3, 59, 0
5, 51600, Note_on_c, 3, 64, 0
5, 51600, Note_on_c, 3, 61, 100
5, 51617, Control_c, 3, 7, 65
5, 51649, Control_c, 3, 7, 64
5, 51660, Note_on_c, 3, 61, 0
5, 51660, Note_on_c, 3, 59, 100
5, 51681, Control_c, 3, 7, 63
5, 51713, Control_c, 3, 7, 62
5, 51720, Note_on_c, 3, 59, 0
5, 51720, Note_on_c, 3, 61, 100
5, 51745, Control_c, 3, 7, 61
5, 51777, Control_c, 3, 7, 60
5, 51780, Note_on_c, 3, 61, 0
5, 51780, Note_on_c, 3, 64, 100
5, 51780, Note_on_c, 3, 59, 100
5, 51809, Control_c, 3, 7, 59
5, 51841, Control_c, 3, 7, 58
5, 51873, Control_c, 3, 7, 57
5, 51905, Control_c, 3, 7, 56
5, 51937, Control_c, 3, 7, 55
5, 51960, Note_on_c, 3, 59, 0
5, 51960, Note_on_c, 3, 64, 0
5, 51969, Control_c, 3, 7, 54
5, 52001, Control_c, 3, 7, 53
5, 52020, Note_on_c, 3, 71, 100
5, 52020, Note_on_c, 3, 66, 100
5, 52033, Control_c, 3, 7, 52
5, 52066, Control_c, 3, 7, 51
5, 52080, Note_on_c, 3, 66, 0
5, 52080, Note_on_c, 3, 71, 0
5, 52080, Note_on_c, 3, 71, 100
5, 52080, Note_on_c, 3, 68, 100
5, 52098, Control_c, 3, 7, 50
5, 52130, Control_c, 3, 7, 49
5, 52140, Note_on_c, 3, 68, 0
5, 52140, Note_on_c, 3, 71, 0
5, 52140, Note_on_c, 3, 63, 100
5, 52162, Control_c, 3, 7, 48
5, 52194, Control_c, 3, 7, 47
5, 52200, Note_on_c, 3, 63, 0
5, 52200, Note_on_c, 3, 66, 100
5, 52226, Control_c, 3, 7, 46
5, 52258, Control_c, 3, 7, 45
5, 52260, Note_on_c, 3, 66, 0
5, 52260, Note_on_c, 3, 64, 100
5, 52260, Note_on_c, 3, 61, 100
5, 52260, Note_on_c, 3, 56, 100
5, 52290, Control_c, 3, 7, 44
5, 52320, Note_on_c, 3, 56, 0
5, 52320, Note_on_c, 3, 61, 0
5, 52320, Note_on_c, 3, 64, 0
5, 52322, Control_c, 3, 7, 43
5, 52354, Control_c, 3, 7, 42
5, 52386, Control_c, 3, 7, 41
5, 52418, Control_c, 3, 7, 40
5, 52450, Control_c, 3, 7, 39
5, 52482, Control_c, 3, 7, 38
5, 52500, Note_on_c, 3, 59, 100
5, 52500, Note_on_c, 3, 57, 100
5, 52500, Note_on_c, 3, 52, 100
5, 52500, Note_on_c, 3, 45, 100
5, 52514, Control_c, 3, 7, 37
5, 52546, Control_c, 3, 7, 36
5, 52560, Note_on_c, 3, 45, 0
5, 52560, Note_on_c, 3, 59, 0
5, 52560, Note_on_c, 3, 57, 0
5, 52560, Note_on_c, 3, 52, 0
5, 52560, Note_on_c, 3, 61, 100
5, 52578, Control_c, 3, 7, 35
5, 52610, Control_c, 3, 7, 34
5, 52620, Note_on_c, 3, 61, 0
5, 52620, Note_on_c, 3, 59, 100
5, 52620, Note_on_c, 3, 57, 100
5, 52620, Note_on_c, 3, 52, 100
5, 52642, Control_c, 3, 7, 33
5, 52674, Control_c, 3, 7, 32
5, 52680, Note_on_c, 3, 52, 0
5, 52680, Note_on_c, 3, 57, 0
5, 52680, Note_on_c, 3, 59, 0
5, 52680, Note_on_c, 3, 61, 100
5, 52706, Control_c, 3, 7, 31
5, 52738, Control_c, 3, 7, 30
5, 52740, Note_on_c, 3, 61, 0
5, 52740, Note_on_c, 3, 64, 100
5, 52770, Control_c, 3, 7, 29
5, 52800, Note_on_c, 3, 64, 0
5, 52802, Control_c, 3, 7, 28
5, 52834, Control_c, 3, 7, 27
5, 52866, Control_c, 3, 7, 26
5, 52899, Control_c, 3, 7, 25
5, 52931, Control_c, 3, 7, 24
5, 52963, Control_c, 3, 7, 23
5, 52980, Note_on_c, 3, 71, 100
5, 52980, Note_on_c, 3, 66, 100
5, 52995, Control_c, 3, 7, 22
5, 53027, Control_c, 3, 7, 21
5, 53040, Note_on_c, 3, 66, 0
5, 53040, Note_on_c, 3, 71, 0
5, 53040, Note_on_c, 3, 68, 100
5, 53059, Control_c, 3, 7, 20
5, 53091, Control_c, 3, 7, 19
5, 53100, Note_on_c, 3, 68, 0
5, 53100, Note_on_c, 3, 66, 100
5, 53100, Note_on_c, 3, 63, 100
5, 53100, Note_on_c, 3, 59, 100
5, 53123, Control_c, 3, 7, 18
5, 53155, Control_c, 3, 7, 17
5, 53160, Note_on_c, 3, 59, 0
5, 53160, Note_on_c, 3, 63, 0
5, 53160, Note_on_c, 3, 66, 0
5, 53160, Note_on_c, 3, 71, 100
5, 53187, Control_c, 3, 7, 16
5, 53205, Note_on_c, 3, 71, 0
5, 53219, Control_c, 3, 7, 15
5, 53220, Note_on_c, 3, 64, 100
5, 53220, Note_on_c, 3, 61, 100
5, 53251, Control_c, 3, 7, 14
5, 53283, Control_c, 3, 7, 13
5, 53315, Control_c, 3, 7, 12
5, 53340, Note_on_c, 3, 61, 0
5, 53340, Note_on_c, 3, 64, 0
5, 53340, Note_on_c, 3, 64, 100
5, 53340, Note_on_c, 3, 61, 100
5, 53347, Control_c, 3, 7, 11
5, 53379, Control_c, 3, 7, 10
5, 53400, Note_on_c, 3, 61, 0
5, 53400, Note_on_c, 3, 64, 0
5, 53411, Control_c, 3, 7, 9
5, 53443, Control_c, 3, 7, 8
5, 53460, Note_on_c, 3, 64, 100
5, 53460, Note_on_c, 3, 59, 100
5, 53475, Control_c, 3, 7, 7
5, 53507, Control_c, 3, 7, 6
5, 53520, Note_on_c, 3, 59, 0
5, 53520, Note_on_c, 3, 64, 0
5, 53520, Note_on_c, 3, 61, 100
5, 53539, Control_c, 3, 7, 5
5, 53571, Control_c, 3, 7, 4
5, 53580, Note_on_c, 3, 61, 0
5, 53580, Note_on_c, 3, 64, 100
5, 53580, Note_on_c, 3, 59, 100
5, 53603, Control_c, 3, 7, 3
5, 53635, Control_c, 3, 7, 2
5, 53640, Note_on_c, 3, 59, 0
5, 53640, Note_on_c, 3, 64, 0
5, 53667, Control_c, 3, 7, 1
5, 53700, Control_c, 3, 7, 0
5, 53700, End_track
6, 0, Start_track
6, 0, MIDI_port, 0
6, 0, Title_t, "Acoustic Gt"
6, 0, Program_c, 4, 25
6, 0, Control_c, 4, 7, 103
6, 0, Control_c, 4, 10, 100
6, 2100, Note_on_c, 4, 59, 100
6, 2100, Note_on_c, 4, 64, 100
6, 2130, Note_on_c, 4, 64, 0
6, 2130, Note_on_c, 4, 59, 0
6, 2220, Note_on_c, 4, 59, 100
6, 2250, Note_on_c, 4, 59, 0
6, 2250, Note_on_c, 4, 61, 100
6, 2280, Note_on_c, 4, 61, 0
6, 2280, Note_on_c, 4, 64, 100
6, 2340, Note_on_c, 4, 64, 0
6, 2400, Note_on_c, 4, 69, 100
6, 2430, Note_on_c, 4, 69, 0
6, 2430, Note_on_c, 4, 68, 100
6, 2760, Note_on_c, 4, 68, 0
6, 2760, Note_on_c, 4, 64, 100
6, 2790, Note_on_c, 4, 64, 0
6, 2820, Note_on_c, 4, 59, 100
6, 2880, Note_on_c, 4, 59, 0
6, 2880, Note_on_c, 4, 61, 100
6, 3000, Note_on_c, 4, 61, 0
6, 3180, Note_on_c, 4, 59, 100
6, 3210, Note_on_c, 4, 59, 0
6, 3210, Note_on_c, 4, 61, 100
6, 3240, Note_on_c, 4, 61, 0
6, 3240, Note_on_c, 4, 64, 100
6, 3270, Note_on_c, 4, 64, 0
6, 3270, Note_on_c, 4, 61, 100
6, 3300, Note_on_c, 4, 61, 0
6, 3300, Note_on_c, 4, 69, 100
6, 3360, Note_on_c, 4, 69, 0
6, 3360, Note_on_c, 4, 68, 100
6, 3360, Note_on_c, 4, 64, 100
6, 3360, Note_on_c, 4, 59, 100
6, 3720, Note_on_c, 4, 59, 0
6, 3720, Note_on_c, 4, 64, 0
6, 3720, Note_on_c, 4, 68, 0
6, 3840, Note_on_c, 4, 71, 100
6, 3900, Note_on_c, 4, 71, 0
6, 3930, Note_on_c, 4, 68, 100
6, 3960, Note_on_c, 4, 68, 0
6, 3960, Note_on_c, 4, 69, 100
6, 4020, Note_on_c, 4, 69, 0
6, 4020, Note_on_c, 4, 68, 100
6, 4080, Note_on_c, 4, 68, 0
6, 4080, Note_on_c, 4, 59, 100
6, 4110, Note_on_c, 4, 59, 0
6, 4110, Note_on_c, 4, 61, 100
6, 4200, Note_on_c, 4, 61, 0
6, 4200, Note_on_c, 4, 69, 100
6, 4200, Note_on_c, 4, 64, 100
6, 4200, Note_on_c, 4, 61, 100
6, 4320, Note_on_c, 4, 61, 0
6, 4320, Note_on_c, 4, 64, 0
6, 4320, Note_on_c, 4, 69, 0
6, 4320, Note_on_c, 4, 68, 100
6, 4320, Note_on_c, 4, 59, 100
6, 4440, Note_on_c, 4, 59, 0
6, 4440, Note_on_c, 4, 68, 0
6, 4620, Note_on_c, 4, 56, 100
6, 4680, Note_on_c, 4, 56, 0
6, 4680, Note_on_c, 4, 59, 100
6, 4740, Note_on_c, 4, 59, 0
6, 4800, Note_on_c, 4, 61, 100
6, 4920, Note_on_c, 4, 61, 0
6, 4920, Note_on_c, 4, 59, 100
6, 4980, Note_on_c, 4, 59, 0
6, 4980, Note_on_c, 4, 61, 100
6, 5160, Note_on_c, 4, 61, 0
6, 5160, Note_on_c, 4, 69, 100
6, 5190, Note_on_c, 4, 69, 0
6, 5190, Note_on_c, 4, 68, 100
6, 5205, Note_on_c, 4, 68, 0
6, 5220, Note_on_c, 4, 64, 100
6, 5250, Note_on_c, 4, 64, 0
6, 5250, Note_on_c, 4, 64, 100
6, 5640, Note_on_c, 4, 64, 0
6, 5640, Note_on_c, 4, 67, 100
6, 5670, Note_on_c, 4, 67, 0
6, 5670, Note_on_c, 4, 66, 100
6, 5730, Note_on_c, 4, 66, 0
6, 5730, Note_on_c, 4, 64, 100
6, 5760, Note_on_c, 4, 64, 0
6, 5760, Note_on_c, 4, 66, 100
6, 5880, Note_on_c, 4, 66, 0
6, 5880, Note_on_c, 4, 64, 100
6, 5940, Note_on_c, 4, 64, 0
6, 5940, Note_on_c, 4, 64, 100
6, 6000, Note_on_c, 4, 64, 0
6, 6180, Note_on_c, 4, 73, 100
6, 6180, Note_on_c, 4, 69, 100
6, 6210, Note_on_c, 4, 69, 0
6, 6210, Note_on_c, 4, 73, 0
6, 6300, Note_on_c, 4, 64, 100
6, 6360, Note_on_c, 4, 64, 0
6, 6360, Note_on_c, 4, 68, 100
6, 6390, Note_on_c, 4, 68, 0
6, 6390, Note_on_c, 4, 68, 100
6, 6420, Note_on_c, 4, 68, 0
6, 6480, Note_on_c, 4, 66, 100
6, 6540, Note_on_c, 4, 66, 0
6, 6540, Note_on_c, 4, 68, 100
6, 6600, Note_on_c, 4, 68, 0
6, 6780, Note_on_c, 4, 69, 100
6, 6840, Note_on_c, 4, 69, 0
6, 6840, Note_on_c, 4, 68, 100
6, 6900, Note_on_c, 4, 68, 0
6, 6900, Note_on_c, 4, 64, 100
6, 6930, Note_on_c, 4, 64, 0
6, 6930, Note_on_c, 4, 66, 100
6, 6960, Note_on_c, 4, 66, 0
6, 6960, Note_on_c, 4, 64, 100
6, 7020, Note_on_c, 4, 64, 0
6, 7020, Note_on_c, 4, 59, 100
6, 7080, Note_on_c, 4, 59, 0
6, 7080, Note_on_c, 4, 61, 100
6, 7140, Note_on_c, 4, 61, 0
6, 7140, Note_on_c, 4, 64, 100
6, 7320, Note_on_c, 4, 64, 0
6, 7320, Note_on_c, 4, 73, 100
6, 7320, Note_on_c, 4, 68, 100
6, 7350, Note_on_c, 4, 68, 0
6, 7350, Note_on_c, 4, 73, 0
6, 7680, Note_on_c, 4, 64, 100
6, 7680, Note_on_c, 4, 71, 100
6, 7740, Note_on_c, 4, 71, 0
6, 7740, Note_on_c, 4, 64, 0
6, 7740, Note_on_c, 4, 69, 100
6, 7800, Note_on_c, 4, 69, 0
6, 7800, Note_on_c, 4, 68, 100
6, 7860, Note_on_c, 4, 68, 0
6, 7860, Note_on_c, 4, 59, 100
6, 7920, Note_on_c, 4, 59, 0
6, 7920, Note_on_c, 4, 64, 100
6, 8040, Note_on_c, 4, 64, 0
6, 8040, Note_on_c, 4, 64, 100
6, 8040, Note_on_c, 4, 61, 100
6, 8100, Note_on_c, 4, 61, 0
6, 8100, Note_on_c, 4, 64, 0
6, 8280, Note_on_c, 4, 76, 100
6, 8280, Note_on_c, 4, 64, 100
6, 8340, Note_on_c, 4, 64, 0
6, 8340, Note_on_c, 4, 76, 0
6, 8520, Note_on_c, 4, 73, 100
6, 8550, Note_on_c, 4, 73, 0
6, 8610, Note_on_c, 4, 71, 100
6, 8640, Note_on_c, 4, 71, 0
6, 8670, Note_on_c, 4, 59, 100
6, 8700, Note_on_c, 4, 59, 0
6, 8700, Note_on_c, 4, 68, 100
6, 8730, Note_on_c, 4, 68, 0
6, 8790, Note_on_c, 4, 68, 100
6, 8790, Note_on_c, 4, 64, 100
6, 8820, Note_on_c, 4, 64, 0
6, 8820, Note_on_c, 4, 68, 0
6, 8880, Note_on_c, 4, 64, 100
6, 8880, Note_on_c, 4, 61, 100
6, 9060, Note_on_c, 4, 61, 0
6, 9060, Note_on_c, 4, 64, 0
6, 9060, Note_on_c, 4, 59, 100
6, 9090, Note_on_c, 4, 59, 0
6, 9120, Note_on_c, 4, 64, 100
6, 9120, Note_on_c, 4, 59, 100
6, 9150, Note_on_c, 4, 59, 0
6, 9150, Note_on_c, 4, 64, 0
6, 9180, Note_on_c, 4, 54, 100
6, 9210, Note_on_c, 4, 54, 0
6, 9240, Note_on_c, 4, 54, 100
6, 9270, Note_on_c, 4, 54, 0
6, 9270, Note_on_c, 4, 56, 100
6, 9300, Note_on_c, 4, 56, 0
6, 9330, Note_on_c, 4, 59, 100
6, 9360, Note_on_c, 4, 59, 0
6, 9480, Note_on_c, 4, 64, 100
6, 9480, Note_on_c, 4, 59, 100
6, 9540, Note_on_c, 4, 59, 0
6, 9540, Note_on_c, 4, 64, 0
6, 9720, Note_on_c, 4, 71, 100
6, 9750, Note_on_c, 4, 71, 0
6, 9750, Note_on_c, 4, 71, 100
6, 9780, Note_on_c, 4, 71, 0
6, 9780, Note_on_c, 4, 68, 100
6, 9840, Note_on_c, 4, 68, 0
6, 9840, Note_on_c, 4, 61, 100
6, 9960, Note_on_c, 4, 61, 0
6, 9960, Note_on_c, 4, 64, 100
6, 10020, Note_on_c, 4, 64, 0
6, 10020, Note_on_c, 4, 69, 100
6, 10050, Note_on_c, 4, 69, 0
6, 10050, Note_on_c, 4, 68, 100
6, 10050, Note_on_c, 4, 59, 100
6, 10080, Note_on_c, 4, 59, 0
6, 10080, Note_on_c, 4, 68, 0
6, 10080, Note_on_c, 4, 68, 100
6, 10080, Note_on_c, 4, 57, 100
6, 10200, Note_on_c, 4, 57, 0
6, 10200, Note_on_c, 4, 68, 0
6, 10200, Note_on_c, 4, 68, 100
6, 10200, Note_on_c, 4, 64, 100
6, 10200, Note_on_c, 4, 59, 100
6, 10230, Note_on_c, 4, 59, 0
6, 10230, Note_on_c, 4, 64, 0
6, 10230, Note_on_c, 4, 68, 0
6, 10440, Note_on_c, 4, 68, 100
6, 10440, Note_on_c, 4, 64, 100
6, 10440, Note_on_c, 4, 59, 100
6, 10470, Note_on_c, 4, 59, 0
6, 10470, Note_on_c, 4, 64, 0
6, 10470, Note_on_c, 4, 68, 0
6, 10500, Note_on_c, 4, 59, 100
6, 10530, Note_on_c, 4, 59, 0
6, 10560, Note_on_c, 4, 76, 100
6, 10620, Note_on_c, 4, 76, 0
6, 10620, Note_on_c, 4, 68, 100
6, 10680, Note_on_c, 4, 68, 0
6, 10680, Note_on_c, 4, 66, 100
6, 10740, Note_on_c, 4, 66, 0
6, 10740, Note_on_c, 4, 64, 100
6, 10800, Note_on_c, 4, 64, 0
6, 10860, Note_on_c, 4, 69, 100
6, 10860, Note_on_c, 4, 64, 100
6, 10860, Note_on_c, 4, 61, 100
6, 10920, Note_on_c, 4, 61, 0
6, 10920, Note_on_c, 4, 64, 0
6, 10920, Note_on_c, 4, 69, 0
6, 10920, Note_on_c, 4, 69, 100
6, 10920, Note_on_c, 4, 64, 100
6, 10920, Note_on_c, 4, 61, 100
6, 10980, Note_on_c, 4, 61, 0
6, 10980, Note_on_c, 4, 64, 0
6, 10980, Note_on_c, 4, 69, 0
6, 11160, Note_on_c, 4, 76, 100
6, 11190, Note_on_c, 4, 76, 0
6, 11280, Note_on_c, 4, 64, 100
6, 11310, Note_on_c, 4, 64, 0
6, 11400, Note_on_c, 4, 68, 100
6, 11430, Note_on_c, 4, 68, 0
6, 11520, Note_on_c, 4, 73, 100
6, 11520, Note_on_c, 4, 68, 100
6, 11550, Note_on_c, 4, 68, 0
6, 11550, Note_on_c, 4, 73, 0
6, 11580, Note_on_c, 4, 76, 100
6, 11580, Note_on_c, 4, 71, 100
6, 11640, Note_on_c, 4, 71, 0
6, 11640, Note_on_c, 4, 76, 0
6, 11640, Note_on_c, 4, 76, 100
6, 11640, Note_on_c, 4, 71, 100
6, 11700, Note_on_c, 4, 71, 0
6, 11700, Note_on_c, 4, 76, 0
6, 11820, Note_on_c, 4, 76, 100
6, 11820, Note_on_c, 4, 71, 100
6, 11850, Note_on_c, 4, 71, 0
6, 11850, Note_on_c, 4, 76, 0
6, 11850, Note_on_c, 4, 76, 100
6, 11850, Note_on_c, 4, 73, 100
6, 11880, Note_on_c, 4, 73, 0
6, 11880, Note_on_c, 4, 76, 0
6, 11880, Note_on_c, 4, 76, 100
6, 11880, Note_on_c, 4, 73, 100
6, 11940, Note_on_c, 4, 73, 0
6, 11940, Note_on_c, 4, 76, 0
6, 12300, Note_on_c, 4, 52, 100
6, 12360, Note_on_c, 4, 52, 0
6, 12360, Note_on_c, 4, 57, 100
6, 12480, Note_on_c, 4, 57, 0
6, 13800, Note_on_c, 4, 45, 100
6, 13860, Note_on_c, 4, 45, 0
6, 13860, Note_on_c, 4, 47, 100
6, 14040, Note_on_c, 4, 47, 0
6, 14040, Note_on_c, 4, 42, 100
6, 14100, Note_on_c, 4, 42, 0
6, 14100, Note_on_c, 4, 47, 100
6, 14160, Note_on_c, 4, 47, 0
6, 14520, Note_on_c, 4, 56, 100
6, 14580, Note_on_c, 4, 56, 0
6, 14580, Note_on_c, 4, 59, 100
6, 14640, Note_on_c, 4, 59, 0
6, 14640, Note_on_c, 4, 64, 100
6, 14670, Note_on_c, 4, 64, 0
6, 14700, Note_on_c, 4, 64, 100
6, 14700, Note_on_c, 4, 61, 100
6, 14730, Note_on_c, 4, 61, 0
6, 14730, Note_on_c, 4, 64, 0
6, 14940, Note_on_c, 4, 54, 100
6, 14970, Note_on_c, 4, 54, 0
6, 14970, Note_on_c, 4, 56, 100
6, 15000, Note_on_c, 4, 56, 0
6, 15000, Note_on_c, 4, 64, 100
6, 15000, Note_on_c, 4, 59, 100
6, 15060, Note_on_c, 4, 59, 0
6, 15060, Note_on_c, 4, 64, 0
6, 15060, Note_on_c, 4, 64, 100
6, 15060, Note_on_c, 4, 61, 100
6, 15090, Note_on_c, 4, 61, 0
6, 15090, Note_on_c, 4, 64, 0
6, 15180, Note_on_c, 4, 64, 100
6, 15180, Note_on_c, 4, 61, 100
6, 15240, Note_on_c, 4, 61, 0
6, 15240, Note_on_c, 4, 64, 0
6, 15240, Note_on_c, 4, 59, 100
6, 15270, Note_on_c, 4, 59, 0
6, 15270, Note_on_c, 4, 56, 100
6, 15300, Note_on_c, 4, 56, 0
6, 15300, Note_on_c, 4, 54, 100
6, 15360, Note_on_c, 4, 54, 0
6, 15360, Note_on_c, 4, 52, 100
6, 15420, Note_on_c, 4, 52, 0
6, 15480, Note_on_c, 4, 68, 100
6, 15480, Note_on_c, 4, 64, 100
6, 15480, Note_on_c, 4, 59, 100
6, 15495, Note_on_c, 4, 59, 0
6, 15495, Note_on_c, 4, 64, 0
6, 15495, Note_on_c, 4, 68, 0
6, 15720, Note_on_c, 4, 54, 100
6, 15750, Note_on_c, 4, 54, 0
6, 15750, Note_on_c, 4, 56, 100
6, 15780, Note_on_c, 4, 56, 0
6, 15780, Note_on_c, 4, 59, 100
6, 15780, Note_on_c, 4, 56, 100
6, 15810, Note_on_c, 4, 56, 0
6, 15810, Note_on_c, 4, 59, 0
6, 15810, Note_on_c, 4, 56, 100
6, 15840, Note_on_c, 4, 56, 0
6, 15840, Note_on_c, 4, 59, 100
6, 15870, Note_on_c, 4, 59, 0
6, 15870, Note_on_c, 4, 61, 100
6, 15960, Note_on_c, 4, 61, 0
6, 15960, Note_on_c, 4, 64, 100
6, 15990, Note_on_c, 4, 64, 0
6, 15990, Note_on_c, 4, 61, 100
6, 16020, Note_on_c, 4, 61, 0
6, 16020, Note_on_c, 4, 66, 100
6, 16050, Note_on_c, 4, 66, 0
6, 16050, Note_on_c, 4, 64, 100
6, 16200, Note_on_c, 4, 64, 0
6, 16200, Note_on_c, 4, 61, 100
6, 16230, Note_on_c, 4, 61, 0
6, 16230, Note_on_c, 4, 64, 100
6, 16260, Note_on_c, 4, 64, 0
6, 16440, Note_on_c, 4, 69, 100
6, 16440, Note_on_c, 4, 61, 100
6, 16470, Note_on_c, 4, 61, 0
6, 16470, Note_on_c, 4, 69, 0
6, 16470, Note_on_c, 4, 68, 100
6, 16470, Note_on_c, 4, 59, 100
6, 16500, Note_on_c, 4, 59, 0
6, 16500, Note_on_c, 4, 68, 0
6, 16680, Note_on_c, 4, 69, 100
6, 16680, Note_on_c, 4, 61, 100
6, 16710, Note_on_c, 4, 61, 0
6, 16710, Note_on_c, 4, 69, 0
6, 16710, Note_on_c, 4, 68, 100
6, 16710, Note_on_c, 4, 59, 100
6, 16740, Note_on_c, 4, 59, 0
6, 16740, Note_on_c, 4, 68, 0
6, 16740, Note_on_c, 4, 69, 100
6, 16740, Note_on_c, 4, 61, 100
6, 16800, Note_on_c, 4, 61, 0
6, 16800, Note_on_c, 4, 69, 0
6, 17040, Note_on_c, 4, 69, 100
6, 17100, Note_on_c, 4, 69, 0
6, 17100, Note_on_c, 4, 69, 100
6, 17130, Note_on_c, 4, 69, 0
6, 17130, Note_on_c, 4, 71, 100
6, 17220, Note_on_c, 4, 71, 0
6, 17220, Note_on_c, 4, 69, 100
6, 17280, Note_on_c, 4, 69, 0
6, 17280, Note_on_c, 4, 68, 100
6, 17340, Note_on_c, 4, 68, 0
6, 17400, Note_on_c, 4, 64, 100
6, 17400, Note_on_c, 4, 59, 100
6, 17415, Note_on_c, 4, 59, 0
6, 17415, Note_on_c, 4, 64, 0
6, 17520, Note_on_c, 4, 64, 100
6, 17535, Note_on_c, 4, 64, 0
6, 17580, Note_on_c, 4, 64, 100
6, 17640, Note_on_c, 4, 64, 0
6, 17700, Note_on_c, 4, 68, 100
6, 17730, Note_on_c, 4, 68, 0
6, 17730, Note_on_c, 4, 71, 100
6, 17760, Note_on_c, 4, 71, 0
6, 17760, Note_on_c, 4, 73, 100
6, 17790, Note_on_c, 4, 73, 0
6, 17790, Note_on_c, 4, 71, 100
6, 17820, Note_on_c, 4, 71, 0
6, 17820, Note_on_c, 4, 76, 100
6, 17940, Note_on_c, 4, 76, 0
6, 18060, Note_on_c, 4, 76, 100
6, 18120, Note_on_c, 4, 76, 0
6, 18120, Note_on_c, 4, 76, 100
6, 18180, Note_on_c, 4, 76, 0
6, 21240, Control_c, 4, 7, 127
6, 21240, Note_on_c, 4, 73, 127
6, 21270, Note_on_c, 4, 73, 0
6, 21270, Note_on_c, 4, 68, 127
6, 21300, Note_on_c, 4, 68, 0
6, 21300, Note_on_c, 4, 71, 127
6, 21540, Note_on_c, 4, 71, 0
6, 21540, Note_on_c, 4, 71, 127
6, 21600, Note_on_c, 4, 71, 0
6, 21600, Note_on_c, 4, 67, 127
6, 21630, Note_on_c, 4, 67, 0
6, 21630, Note_on_c, 4, 66, 127
6, 21660, Note_on_c, 4, 66, 0
6, 21660, Note_on_c, 4, 64, 127
6, 21690, Note_on_c, 4, 64, 0
6, 21690, Note_on_c, 4, 61, 127
6, 21720, Note_on_c, 4, 61, 0
6, 21720, Note_on_c, 4, 64, 127
6, 21750, Note_on_c, 4, 64, 0
6, 21750, Note_on_c, 4, 66, 127
6, 21780, Note_on_c, 4, 66, 0
6, 21780, Note_on_c, 4, 59, 127
6, 21840, Note_on_c, 4, 59, 0
6, 21840, Note_on_c, 4, 61, 127
6, 21960, Note_on_c, 4, 61, 0
6, 21960, Note_on_c, 4, 59, 127
6, 21990, Note_on_c, 4, 59, 0
6, 21990, Note_on_c, 4, 61, 127
6, 22020, Note_on_c, 4, 61, 0
6, 22020, Note_on_c, 4, 64, 127
6, 22050, Note_on_c, 4, 64, 0
6, 22200, Note_on_c, 4, 54, 127
6, 22230, Note_on_c, 4, 54, 0
6, 22230, Note_on_c, 4, 56, 127
6, 22260, Note_on_c, 4, 56, 0
6, 22260, Note_on_c, 4, 59, 127
6, 22290, Note_on_c, 4, 59, 0
6, 22290, Note_on_c, 4, 61, 127
6, 22320, Note_on_c, 4, 61, 0
6, 22320, Note_on_c, 4, 64, 127
6, 22350, Note_on_c, 4, 64, 0
6, 22350, Note_on_c, 4, 66, 127
6, 22380, Note_on_c, 4, 66, 0
6, 22380, Note_on_c, 4, 68, 127
6, 22410, Note_on_c, 4, 68, 0
6, 22410, Note_on_c, 4, 71, 127
6, 22440, Note_on_c, 4, 71, 0
6, 22440, Note_on_c, 4, 73, 127
6, 22470, Note_on_c, 4, 73, 0
6, 22470, Note_on_c, 4, 76, 127
6, 22500, Note_on_c, 4, 76, 0
6, 22500, Note_on_c, 4, 78, 127
6, 22620, Note_on_c, 4, 78, 0
6, 22620, Note_on_c, 4, 76, 127
6, 22680, Note_on_c, 4, 76, 0
6, 22680, Note_on_c, 4, 76, 127
6, 22740, Note_on_c, 4, 76, 0
6, 22740, Note_on_c, 4, 71, 127
6, 22770, Note_on_c, 4, 71, 0
6, 22770, Note_on_c, 4, 73, 127
6, 22920, Note_on_c, 4, 73, 0
6, 22920, Note_on_c, 4, 71, 127
6, 22980, Note_on_c, 4, 71, 0
6, 22980, Note_on_c, 4, 71, 127
6, 23010, Note_on_c, 4, 71, 0
6, 23040, Note_on_c, 4, 68, 127
6, 23130, Note_on_c, 4, 68, 0
6, 23130, Note_on_c, 4, 66, 127
6, 23160, Note_on_c, 4, 66, 0
6, 23160, Note_on_c, 4, 61, 127
6, 23220, Note_on_c, 4, 61, 0
6, 23280, Note_on_c, 4, 64, 127
6, 23400, Note_on_c, 4, 64, 0
6, 23400, Note_on_c, 4, 61, 127
6, 23460, Note_on_c, 4, 61, 0
6, 23520, Note_on_c, 4, 64, 127
6, 23520, Note_on_c, 4, 61, 127
6, 23580, Note_on_c, 4, 61, 0
6, 23580, Note_on_c, 4, 64, 0
6, 23580, Note_on_c, 4, 69, 127
6, 23580, Note_on_c, 4, 64, 127
6, 23580, Note_on_c, 4, 61, 127
6, 23640, Note_on_c, 4, 61, 0
6, 23640, Note_on_c, 4, 64, 0
6, 23640, Note_on_c, 4, 69, 0
6, 23640, Note_on_c, 4, 68, 127
6, 23640, Note_on_c, 4, 59, 127
6, 23670, Note_on_c, 4, 59, 0
6, 23670, Note_on_c, 4, 68, 0
6, 23760, Note_on_c, 4, 69, 127
6, 23760, Note_on_c, 4, 64, 127
6, 23760, Note_on_c, 4, 61, 127
6, 23820, Note_on_c, 4, 61, 0
6, 23820, Note_on_c, 4, 64, 0
6, 23820, Note_on_c, 4, 69, 0
6, 23880, Note_on_c, 4, 69, 127
6, 23880, Note_on_c, 4, 61, 127
6, 23940, Note_on_c, 4, 61, 0
6, 23940, Note_on_c, 4, 69, 0
6, 23940, Note_on_c, 4, 71, 127
6, 23940, Note_on_c, 4, 63, 127
6, 24000, Note_on_c, 4, 63, 0
6, 24000, Note_on_c, 4, 71, 0
6, 24060, Note_on_c, 4, 56, 127
6, 24120, Note_on_c, 4, 56, 0
6, 24120, Note_on_c, 4, 68, 127
6, 24150, Note_on_c, 4, 68, 0
6, 24210, Note_on_c, 4, 71, 127
6, 24240, Note_on_c, 4, 71, 0
6, 24270, Note_on_c, 4, 59, 127
6, 24300, Note_on_c, 4, 59, 0
6, 24300, Note_on_c, 4, 68, 127
6, 24330, Note_on_c, 4, 68, 0
6, 24330, Note_on_c, 4, 69, 127
6, 24360, Note_on_c, 4, 69, 0
6, 24360, Note_on_c, 4, 68, 127
6, 24420, Note_on_c, 4, 68, 0
6, 24420, Note_on_c, 4, 64, 127
6, 24450, Note_on_c, 4, 64, 0
6, 24450, Note_on_c, 4, 66, 127
6, 24480, Note_on_c, 4, 66, 0
6, 24480, Note_on_c, 4, 64, 127
6, 24540, Note_on_c, 4, 64, 0
6, 24540, Note_on_c, 4, 59, 127
6, 24600, Note_on_c, 4, 59, 0
6, 24600, Note_on_c, 4, 61, 127
6, 24720, Note_on_c, 4, 61, 0
6, 24720, Note_on_c, 4, 68, 127
6, 24720, Note_on_c, 4, 59, 127
6, 24740, Note_on_c, 4, 59, 0
6, 24740, Note_on_c, 4, 68, 0
6, 24740, Note_on_c, 4, 69, 127
6, 24740, Note_on_c, 4, 61, 127
6, 24760, Note_on_c, 4, 61, 0
6, 24760, Note_on_c, 4, 69, 0
6, 24760, Note_on_c, 4, 68, 127
6, 24760, Note_on_c, 4, 59, 127
6, 24780, Note_on_c, 4, 59, 0
6, 24780, Note_on_c, 4, 68, 0
6, 24780, Note_on_c, 4, 66, 127
6, 24800, Note_on_c, 4, 66, 0
6, 24800, Note_on_c, 4, 64, 127
6, 24820, Note_on_c, 4, 64, 0
6, 24820, Note_on_c, 4, 61, 127
6, 24840, Note_on_c, 4, 61, 0
6, 24840, Note_on_c, 4, 59, 127
6, 24860, Note_on_c, 4, 59, 0
6, 24860, Note_on_c, 4, 61, 127
6, 24880, Note_on_c, 4, 61, 0
6, 24880, Note_on_c, 4, 59, 127
6, 24900, Note_on_c, 4, 59, 0
6, 24900, Note_on_c, 4, 61, 127
6, 24920, Note_on_c, 4, 61, 0
6, 24920, Note_on_c, 4, 59, 127
6, 24940, Note_on_c, 4, 59, 0
6, 24940, Note_on_c, 4, 61, 127
6, 24960, Note_on_c, 4, 61, 0
6, 24960, Note_on_c, 4, 54, 127
6, 25020, Note_on_c, 4, 54, 0
6, 25020, Note_on_c, 4, 56, 127
6, 25080, Note_on_c, 4, 56, 0
6, 25080, Note_on_c, 4, 64, 127
6, 25080, Note_on_c, 4, 59, 127
6, 25140, Note_on_c, 4, 59, 0
6, 25140, Note_on_c, 4, 64, 0
6, 25140, Note_on_c, 4, 68, 127
6, 25140, Note_on_c, 4, 64, 127
6, 25155, Note_on_c, 4, 64, 0
6, 25155, Note_on_c, 4, 68, 0
6, 25260, Note_on_c, 4, 64, 127
6, 25280, Note_on_c, 4, 64, 0
6, 25440, Note_on_c, 4, 68, 127
6, 25460, Note_on_c, 4, 68, 0
6, 25460, Note_on_c, 4, 69, 127
6, 25480, Note_on_c, 4, 69, 0
6, 25480, Note_on_c, 4, 68, 127
6, 25500, Note_on_c, 4, 68, 0
6, 25500, Note_on_c, 4, 64, 127
6, 25520, Note_on_c, 4, 64, 0
6, 25520, Note_on_c, 4, 66, 127
6, 25540, Note_on_c, 4, 66, 0
6, 25540, Note_on_c, 4, 64, 127
6, 25560, Note_on_c, 4, 64, 0
6, 25560, Note_on_c, 4, 61, 127
6, 25620, Note_on_c, 4, 61, 0
6, 25620, Note_on_c, 4, 64, 127
6, 25620, Note_on_c, 4, 59, 127
6, 25680, Note_on_c, 4, 59, 0
6, 25680, Note_on_c, 4, 64, 0
6, 25680, Note_on_c, 4, 54, 127
6, 25710, Note_on_c, 4, 54, 0
6, 25710, Note_on_c, 4, 56, 127
6, 25740, Note_on_c, 4, 56, 0
6, 25740, Note_on_c, 4, 64, 127
6, 25800, Note_on_c, 4, 64, 0
6, 25800, Note_on_c, 4, 54, 127
6, 25830, Note_on_c, 4, 54, 0
6, 25830, Note_on_c, 4, 52, 127
6, 25860, Note_on_c, 4, 52, 0
6, 25860, Note_on_c, 4, 49, 127
6, 25920, Note_on_c, 4, 49, 0
6, 25950, Note_on_c, 4, 59, 127
6, 26040, Note_on_c, 4, 59, 0
6, 26040, Note_on_c, 4, 64, 127
6, 26070, Note_on_c, 4, 64, 0
6, 26100, Note_on_c, 4, 68, 127
6, 26100, Note_on_c, 4, 64, 127
6, 26130, Note_on_c, 4, 64, 0
6, 26130, Note_on_c, 4, 68, 0
6, 26340, Note_on_c, 4, 73, 127
6, 26460, Note_on_c, 4, 73, 0
6, 26460, Note_on_c, 4, 71, 127
6, 26520, Note_on_c, 4, 71, 0
6, 26520, Note_on_c, 4, 76, 127
6, 26580, Note_on_c, 4, 76, 0
6, 26580, Note_on_c, 4, 78, 127
6, 26700, Note_on_c, 4, 78, 0
6, 26700, Note_on_c, 4, 76, 127
6, 26760, Note_on_c, 4, 76, 0
6, 26760, Note_on_c, 4, 73, 127
6, 26820, Note_on_c, 4, 73, 0
6, 26820, Note_on_c, 4, 71, 127
6, 26880, Note_on_c, 4, 71, 0
6, 26880, Note_on_c, 4, 73, 127
6, 26940, Note_on_c, 4, 73, 0
6, 26940, Note_on_c, 4, 71, 127
6, 26970, Note_on_c, 4, 71, 0
6, 27000, Note_on_c, 4, 68, 127
6, 27180, Note_on_c, 4, 68, 0
6, 27180, Note_on_c, 4, 66, 127
6, 27240, Note_on_c, 4, 66, 0
6, 27240, Note_on_c, 4, 73, 127
6, 27300, Note_on_c, 4, 73, 0
6, 27300, Note_on_c, 4, 68, 127
6, 27360, Note_on_c, 4, 68, 0
6, 27360, Note_on_c, 4, 71, 127
6, 27420, Note_on_c, 4, 71, 0
6, 27420, Note_on_c, 4, 71, 127
6, 27420, Note_on_c, 4, 68, 127
6, 27540, Note_on_c, 4, 68, 0
6, 27540, Note_on_c, 4, 71, 0
6, 27540, Note_on_c, 4, 71, 127
6, 27600, Note_on_c, 4, 71, 0
6, 27600, Note_on_c, 4, 71, 127
6, 27600, Note_on_c, 4, 64, 127
6, 27660, Note_on_c, 4, 64, 0
6, 27660, Note_on_c, 4, 71, 0
6, 27660, Note_on_c, 4, 71, 127
6, 27660, Note_on_c, 4, 64, 127
6, 27720, Note_on_c, 4, 64, 0
6, 27720, Note_on_c, 4, 71, 0
6, 27840, Note_on_c, 4, 64, 127
6, 27900, Note_on_c, 4, 64, 0
6, 27900, Note_on_c, 4, 61, 127
6, 27930, Note_on_c, 4, 61, 0
6, 27960, Note_on_c, 4, 68, 127
6, 27960, Note_on_c, 4, 64, 127
6, 28020, Note_on_c, 4, 64, 0
6, 28020, Note_on_c, 4, 68, 0
6, 28020, Note_on_c, 4, 61, 127
6, 28080, Note_on_c, 4, 61, 0
6, 28080, Note_on_c, 4, 68, 127
6, 28080, Note_on_c, 4, 66, 127
6, 28140, Note_on_c, 4, 66, 0
6, 28140, Note_on_c, 4, 68, 0
6, 28200, Note_on_c, 4, 61, 127
6, 28260, Note_on_c, 4, 61, 0
6, 28380, Control_c, 4, 7, 103
6, 28380, Note_on_c, 4, 59, 100
6, 28410, Note_on_c, 4, 59, 0
6, 28410, Note_on_c, 4, 61, 100
6, 28440, Note_on_c, 4, 61, 0
6, 28440, Note_on_c, 4, 64, 100
6, 28470, Note_on_c, 4, 64, 0
6, 28500, Note_on_c, 4, 61, 100
6, 28530, Note_on_c, 4, 61, 0
6, 28560, Note_on_c, 4, 69, 100
6, 28560, Note_on_c, 4, 61, 100
6, 28620, Note_on_c, 4, 61, 0
6, 28620, Note_on_c, 4, 69, 0
6, 28620, Note_on_c, 4, 69, 100
6, 28620, Note_on_c, 4, 61, 100
6, 28680, Note_on_c, 4, 61, 0
6, 28680, Note_on_c, 4, 69, 0
6, 28680, Note_on_c, 4, 69, 100
6, 28680, Note_on_c, 4, 61, 100
6, 28740, Note_on_c, 4, 61, 0
6, 28740, Note_on_c, 4, 69, 0
6, 28740, Note_on_c, 4, 68, 100
6, 28740, Note_on_c, 4, 59, 100
6, 28770, Note_on_c, 4, 59, 0
6, 28770, Note_on_c, 4, 68, 0
6, 28770, Note_on_c, 4, 69, 100
6, 28770, Note_on_c, 4, 61, 100
6, 28800, Note_on_c, 4, 61, 0
6, 28800, Note_on_c, 4, 69, 0
6, 28800, Note_on_c, 4, 68, 100
6, 28800, Note_on_c, 4, 59, 100
6, 28860, Note_on_c, 4, 59, 0
6, 28860, Note_on_c, 4, 68, 0
6, 28860, Note_on_c, 4, 59, 100
6, 28920, Note_on_c, 4, 59, 0
6, 28920, Note_on_c, 4, 68, 100
6, 28920, Note_on_c, 4, 64, 100
6, 28950, Note_on_c, 4, 64, 0
6, 28950, Note_on_c, 4, 68, 0
6, 28980, Note_on_c, 4, 59, 100
6, 29040, Note_on_c, 4, 59, 0
6, 29040, Note_on_c, 4, 64, 100
6, 29070, Note_on_c, 4, 64, 0
6, 29070, Note_on_c, 4, 66, 100
6, 29160, Note_on_c, 4, 66, 0
6, 29160, Note_on_c, 4, 64, 100
6, 29160, Note_on_c, 4, 59, 100
6, 29190, Note_on_c, 4, 59, 0
6, 29190, Note_on_c, 4, 64, 0
6, 29190, Note_on_c, 4, 61, 100
6, 29220, Note_on_c, 4, 61, 0
6, 29220, Note_on_c, 4, 64, 100
6, 29220, Note_on_c, 4, 61, 100
6, 29280, Note_on_c, 4, 61, 0
6, 29280, Note_on_c, 4, 64, 0
6, 29340, Note_on_c, 4, 61, 100
6, 29400, Note_on_c, 4, 61, 0
6, 29400, Note_on_c, 4, 64, 100
6, 29460, Note_on_c, 4, 64, 0
6, 29460, Note_on_c, 4, 61, 100
6, 29520, Note_on_c, 4, 61, 0
6, 29520, Note_on_c, 4, 69, 100
6, 29520, Note_on_c, 4, 61, 100
6, 29580, Note_on_c, 4, 61, 0
6, 29580, Note_on_c, 4, 69, 0
6, 29580, Note_on_c, 4, 69, 100
6, 29580, Note_on_c, 4, 61, 100
6, 29640, Note_on_c, 4, 61, 0
6, 29640, Note_on_c, 4, 69, 0
6, 29640, Note_on_c, 4, 69, 100
6, 29700, Note_on_c, 4, 69, 0
6, 29700, Note_on_c, 4, 69, 100
6, 29700, Note_on_c, 4, 61, 100
6, 29760, Note_on_c, 4, 61, 0
6, 29760, Note_on_c, 4, 69, 0
6, 29760, Note_on_c, 4, 68, 100
6, 29760, Note_on_c, 4, 59, 100
6, 29820, Note_on_c, 4, 59, 0
6, 29820, Note_on_c, 4, 68, 0
6, 29820, Note_on_c, 4, 59, 100
6, 29880, Note_on_c, 4, 59, 0
6, 29880, Note_on_c, 4, 64, 100
6, 29940, Note_on_c, 4, 64, 0
6, 29940, Note_on_c, 4, 59, 100
6, 30000, Note_on_c, 4, 59, 0
6, 30000, Note_on_c, 4, 66, 100
6, 30030, Note_on_c, 4, 66, 0
6, 30030, Note_on_c, 4, 64, 100
6, 30060, Note_on_c, 4, 64, 0
6, 30060, Note_on_c, 4, 66, 100
6, 30120, Note_on_c, 4, 66, 0
6, 30120, Note_on_c, 4, 59, 100
6, 30150, Note_on_c, 4, 59, 0
6, 30150, Note_on_c, 4, 61, 100
6, 30180, Note_on_c, 4, 61, 0
6, 30300, Note_on_c, 4, 59, 100
6, 30330, Note_on_c, 4, 59, 0
6, 30330, Note_on_c, 4, 61, 100
6, 30360, Note_on_c, 4, 61, 0
6, 30360, Note_on_c, 4, 64, 100
6, 30420, Note_on_c, 4, 64, 0
6, 30450, Note_on_c, 4, 69, 100
6, 30450, Note_on_c, 4, 61, 100
6, 30480, Note_on_c, 4, 61, 0
6, 30480, Note_on_c, 4, 69, 0
6, 30510, Note_on_c, 4, 59, 100
6, 30540, Note_on_c, 4, 59, 0
6, 30540, Note_on_c, 4, 61, 100
6, 30570, Note_on_c, 4, 61, 0
6, 30570, Note_on_c, 4, 69, 100
6, 30600, Note_on_c, 4, 69, 0
6, 30600, Note_on_c, 4, 69, 100
6, 30600, Note_on_c, 4, 61, 100
6, 30660, Note_on_c, 4, 61, 0
6, 30660, Note_on_c, 4, 69, 0
6, 30660, Note_on_c, 4, 69, 100
6, 30660, Note_on_c, 4, 61, 100
6, 30720, Note_on_c, 4, 61, 0
6, 30720, Note_on_c, 4, 69, 0
6, 30720, Note_on_c, 4, 68, 100
6, 30720, Note_on_c, 4, 59, 100
6, 30840, Note_on_c, 4, 59, 0
6, 30840, Note_on_c, 4, 68, 0
6, 30960, Note_on_c, 4, 73, 100
6, 31020, Note_on_c, 4, 73, 0
6, 31200, Note_on_c, 4, 68, 100
6, 31230, Note_on_c, 4, 68, 0
6, 31230, Note_on_c, 4, 71, 100
6, 31260, Note_on_c, 4, 71, 0
6, 31260, Note_on_c, 4, 68, 100
6, 31320, Note_on_c, 4, 68, 0
6, 31320, Note_on_c, 4, 68, 100
6, 31380, Note_on_c, 4, 68, 0
6, 31380, Note_on_c, 4, 68, 100
6, 31440, Note_on_c, 4, 68, 0
6, 31440, Note_on_c, 4, 66, 100
6, 31470, Note_on_c, 4, 66, 0
6, 31470, Note_on_c, 4, 64, 100
6, 31500, Note_on_c, 4, 64, 0
6, 31500, Note_on_c, 4, 61, 100
6, 31560, Note_on_c, 4, 61, 0
6, 31560, Note_on_c, 4, 64, 100
6, 31560, Note_on_c, 4, 59, 100
6, 31620, Note_on_c, 4, 59, 0
6, 31620, Note_on_c, 4, 64, 0
6, 31620, Note_on_c, 4, 64, 100
6, 31680, Note_on_c, 4, 64, 0
6, 31680, Note_on_c, 4, 59, 100
6, 31800, Note_on_c, 4, 59, 0
6, 31800, Note_on_c, 4, 64, 100
6, 31860, Note_on_c, 4, 64, 0
6, 31860, Note_on_c, 4, 64, 100
6, 31920, Note_on_c, 4, 64, 0
6, 31920, Note_on_c, 4, 71, 100
6, 31920, Note_on_c, 4, 68, 100
6, 31980, Note_on_c, 4, 68, 0
6, 31980, Note_on_c, 4, 71, 0
6, 31980, Note_on_c, 4, 64, 100
6, 31980, Note_on_c, 4, 59, 100
6, 31980, Note_on_c, 4, 45, 100
6, 32040, Note_on_c, 4, 45, 0
6, 32040, Note_on_c, 4, 59, 0
6, 32040, Note_on_c, 4, 64, 0
6, 32100, Note_on_c, 4, 73, 100
6, 32100, Note_on_c, 4, 68, 100
6, 32160, Note_on_c, 4, 68, 0
6, 32160, Note_on_c, 4, 73, 0
6, 32220, Note_on_c, 4, 71, 100
6, 32280, Note_on_c, 4, 71, 0
6, 32280, Note_on_c, 4, 68, 100
6, 32340, Note_on_c, 4, 68, 0
6, 32340, Note_on_c, 4, 69, 100
6, 32340, Note_on_c, 4, 64, 100
6, 32430, Note_on_c, 4, 64, 0
6, 32430, Note_on_c, 4, 69, 0
6, 32430, Note_on_c, 4, 64, 100
6, 32520, Note_on_c, 4, 64, 0
6, 32520, Note_on_c, 4, 66, 100
6, 32550, Note_on_c, 4, 66, 0
6, 32550, Note_on_c, 4, 64, 100
6, 32580, Note_on_c, 4, 64, 0
6, 32580, Note_on_c, 4, 61, 100
6, 32640, Note_on_c, 4, 61, 0
6, 32640, Note_on_c, 4, 59, 100
6, 32700, Note_on_c, 4, 59, 0
6, 32700, Note_on_c, 4, 68, 100
6, 32700, Note_on_c, 4, 64, 100
6, 32760, Note_on_c, 4, 64, 0
6, 32760, Note_on_c, 4, 68, 0
6, 32820, Note_on_c, 4, 68, 100
6, 32820, Note_on_c, 4, 64, 100
6, 32880, Note_on_c, 4, 64, 0
6, 32880, Note_on_c, 4, 68, 0
6, 32940, Note_on_c, 4, 59, 100
6, 33000, Note_on_c, 4, 59, 0
6, 33000, Note_on_c, 4, 59, 100
6, 33060, Note_on_c, 4, 59, 0
6, 33120, Note_on_c, 4, 73, 100
6, 33120, Note_on_c, 4, 68, 100
6, 33180, Note_on_c, 4, 68, 0
6, 33180, Note_on_c, 4, 73, 0
6, 33180, Note_on_c, 4, 59, 100
6, 33210, Note_on_c, 4, 59, 0
6, 33210, Note_on_c, 4, 71, 100
6, 33270, Note_on_c, 4, 71, 0
6, 33270, Note_on_c, 4, 59, 100
6, 33300, Note_on_c, 4, 59, 0
6, 33300, Note_on_c, 4, 68, 100
6, 33360, Note_on_c, 4, 68, 0
6, 33360, Note_on_c, 4, 68, 100
6, 33390, Note_on_c, 4, 68, 0
6, 33390, Note_on_c, 4, 69, 100
6, 33480, Note_on_c, 4, 69, 0
6, 33480, Note_on_c, 4, 69, 100
6, 33510, Note_on_c, 4, 69, 0
6, 33510, Note_on_c, 4, 68, 100
6, 33540, Note_on_c, 4, 68, 0
6, 33540, Note_on_c, 4, 69, 100
6, 33570, Note_on_c, 4, 69, 0
6, 33570, Note_on_c, 4, 68, 100
6, 33600, Note_on_c, 4, 68, 0
6, 33600, Note_on_c, 4, 73, 100
6, 33600, Note_on_c, 4, 68, 100
6, 33660, Note_on_c, 4, 68, 0
6, 33660, Note_on_c, 4, 73, 0
6, 33780, Note_on_c, 4, 68, 100
6, 33840, Note_on_c, 4, 68, 0
6, 33840, Note_on_c, 4, 68, 100
6, 33900, Note_on_c, 4, 68, 0
6, 33900, Note_on_c, 4, 68, 100
6, 33960, Note_on_c, 4, 68, 0
6, 33960, Note_on_c, 4, 68, 100
6, 33990, Note_on_c, 4, 68, 0
6, 33990, Note_on_c, 4, 66, 100
6, 34050, Note_on_c, 4, 66, 0
6, 34140, Note_on_c, 4, 73, 100
6, 34140, Note_on_c, 4, 68, 100
6, 34200, Note_on_c, 4, 68, 0
6, 34200, Note_on_c, 4, 73, 0
6, 34230, Note_on_c, 4, 71, 100
6, 34290, Note_on_c, 4, 71, 0
6, 34320, Note_on_c, 4, 68, 100
6, 34350, Note_on_c, 4, 68, 0
6, 34350, Note_on_c, 4, 69, 100
6, 34440, Note_on_c, 4, 69, 0
6, 34440, Note_on_c, 4, 64, 100
6, 34440, Note_on_c, 4, 61, 100
6, 34530, Note_on_c, 4, 61, 0
6, 34530, Note_on_c, 4, 64, 0
6, 34530, Note_on_c, 4, 69, 100
6, 34530, Note_on_c, 4, 61, 100
6, 34560, Note_on_c, 4, 61, 0
6, 34560, Note_on_c, 4, 69, 0
6, 34560, Note_on_c, 4, 68, 100
6, 34560, Note_on_c, 4, 59, 100
6, 34620, Note_on_c, 4, 59, 0
6, 34620, Note_on_c, 4, 68, 0
6, 34620, Note_on_c, 4, 55, 100
6, 34620, Note_on_c, 4, 50, 100
6, 34650, Note_on_c, 4, 50, 0
6, 34650, Note_on_c, 4, 55, 0
6, 34650, Note_on_c, 4, 55, 100
6, 34680, Note_on_c, 4, 55, 0
6, 34920, Note_on_c, 4, 59, 100
6, 34920, Note_on_c, 4, 64, 100
6, 34980, Note_on_c, 4, 64, 0
6, 34980, Note_on_c, 4, 59, 0
6, 34980, Note_on_c, 4, 68, 100
6, 35040, Note_on_c, 4, 68, 0
6, 35040, Note_on_c, 4, 59, 100
6, 35060, Note_on_c, 4, 59, 0
6, 35060, Note_on_c, 4, 61, 100
6, 35080, Note_on_c, 4, 61, 0
6, 35080, Note_on_c, 4, 64, 100
6, 35100, Note_on_c, 4, 64, 0
6, 35100, Note_on_c, 4, 68, 100
6, 35160, Note_on_c, 4, 68, 0
6, 35160, Note_on_c, 4, 59, 100
6, 35180, Note_on_c, 4, 59, 0
6, 35180, Note_on_c, 4, 61, 100
6, 35200, Note_on_c, 4, 61, 0
6, 35200, Note_on_c, 4, 64, 100
6, 35220, Note_on_c, 4, 64, 0
6, 35220, Note_on_c, 4, 69, 100
6, 35280, Note_on_c, 4, 69, 0
6, 35340, Note_on_c, 4, 59, 100
6, 35360, Note_on_c, 4, 59, 0
6, 35360, Note_on_c, 4, 61, 100
6, 35380, Note_on_c, 4, 61, 0
6, 35380, Note_on_c, 4, 64, 100
6, 35400, Note_on_c, 4, 64, 0
6, 35400, Note_on_c, 4, 69, 100
6, 35430, Note_on_c, 4, 69, 0
6, 35430, Note_on_c, 4, 69, 100
6, 35430, Note_on_c, 4, 64, 100
6, 35460, Note_on_c, 4, 64, 0
6, 35460, Note_on_c, 4, 69, 0
6, 35520, Note_on_c, 4, 59, 100
6, 35540, Note_on_c, 4, 59, 0
6, 35540, Note_on_c, 4, 61, 100
6, 35560, Note_on_c, 4, 61, 0
6, 35560, Note_on_c, 4, 64, 100
6, 35580, Note_on_c, 4, 64, 0
6, 35580, Note_on_c, 4, 68, 100
6, 35580, Note_on_c, 4, 64, 100
6, 35640, Note_on_c, 4, 64, 0
6, 35640, Note_on_c, 4, 68, 0
6, 35820, Note_on_c, 4, 59, 100
6, 35835, Note_on_c, 4, 59, 0
6, 35835, Note_on_c, 4, 61, 100
6, 35850, Note_on_c, 4, 61, 0
6, 35850, Note_on_c, 4, 64, 100
6, 35865, Note_on_c, 4, 64, 0
6, 35865, Note_on_c, 4, 68, 100
6, 35880, Note_on_c, 4, 68, 0
6, 35880, Note_on_c, 4, 68, 100
6, 35940, Note_on_c, 4, 68, 0
6, 36000, Note_on_c, 4, 59, 100
6, 36030, Note_on_c, 4, 59, 0
6, 36030, Note_on_c, 4, 61, 100
6, 36060, Note_on_c, 4, 61, 0
6, 36060, Note_on_c, 4, 64, 100
6, 36060, Note_on_c, 4, 69, 100
6, 36180, Note_on_c, 4, 69, 0
6, 36180, Note_on_c, 4, 64, 0
6, 36180, Note_on_c, 4, 59, 100
6, 36240, Note_on_c, 4, 59, 0
6, 36240, Note_on_c, 4, 69, 100
6, 36240, Note_on_c, 4, 64, 100
6, 36240, Note_on_c, 4, 61, 100
6, 36270, Note_on_c, 4, 61, 0
6, 36270, Note_on_c, 4, 64, 0
6, 36270, Note_on_c, 4, 69, 0
6, 36270, Note_on_c, 4, 68, 100
6, 36270, Note_on_c, 4, 59, 100
6, 36300, Note_on_c, 4, 59, 0
6, 36300, Note_on_c, 4, 68, 0
6, 36300, Note_on_c, 4, 56, 100
6, 36360, Note_on_c, 4, 56, 0
6, 36360, Note_on_c, 4, 59, 100
6, 36420, Note_on_c, 4, 59, 0
6, 36600, Note_on_c, 4, 59, 100
6, 36640, Note_on_c, 4, 59, 0
6, 36640, Note_on_c, 4, 61, 100
6, 36660, Note_on_c, 4, 61, 0
6, 36660, Note_on_c, 4, 64, 100
6, 36720, Note_on_c, 4, 64, 0
6, 36840, Note_on_c, 4, 67, 100
6, 36870, Note_on_c, 4, 67, 0
6, 36870, Note_on_c, 4, 68, 100
6, 36900, Note_on_c, 4, 68, 0
6, 36900, Note_on_c, 4, 73, 100
6, 36960, Note_on_c, 4, 73, 0
6, 36960, Note_on_c, 4, 71, 100
6, 37020, Note_on_c, 4, 71, 0
6, 37020, Note_on_c, 4, 73, 100
6, 37080, Note_on_c, 4, 73, 0
6, 37080, Note_on_c, 4, 71, 100
6, 37140, Note_on_c, 4, 71, 0
6, 37140, Note_on_c, 4, 68, 100
6, 37200, Note_on_c, 4, 68, 0
6, 37200, Note_on_c, 4, 66, 100
6, 37230, Note_on_c, 4, 66, 0
6, 37230, Note_on_c, 4, 64, 100
6, 37260, Note_on_c, 4, 64, 0
6, 37260, Note_on_c, 4, 61, 100
6, 37320, Note_on_c, 4, 61, 0
6, 37320, Note_on_c, 4, 59, 100
6, 37350, Note_on_c, 4, 59, 0
6, 37350, Note_on_c, 4, 61, 100
6, 37380, Note_on_c, 4, 61, 0
6, 37380, Note_on_c, 4, 64, 100
6, 37440, Note_on_c, 4, 64, 0
6, 37440, Note_on_c, 4, 59, 100
6, 37440, Note_on_c, 4, 56, 100
6, 37470, Note_on_c, 4, 56, 0
6, 37470, Note_on_c, 4, 59, 0
6, 37470, Note_on_c, 4, 56, 100
6, 37500, Note_on_c, 4, 56, 0
6, 37500, Note_on_c, 4, 64, 100
6, 37560, Note_on_c, 4, 64, 0
6, 37620, Note_on_c, 4, 73, 100
6, 37620, Note_on_c, 4, 68, 100
6, 37620, Note_on_c, 4, 64, 100
6, 37635, Note_on_c, 4, 64, 0
6, 37635, Note_on_c, 4, 68, 0
6, 37635, Note_on_c, 4, 73, 0
6, 37800, Note_on_c, 4, 59, 100
6, 37815, Note_on_c, 4, 59, 0
6, 37860, Note_on_c, 4, 56, 100
6, 37875, Note_on_c, 4, 56, 0
6, 37920, Note_on_c, 4, 69, 100
6, 37920, Note_on_c, 4, 64, 100
6, 37980, Note_on_c, 4, 64, 0
6, 37980, Note_on_c, 4, 69, 0
6, 37980, Note_on_c, 4, 68, 100
6, 38040, Note_on_c, 4, 68, 0
6, 38040, Note_on_c, 4, 69, 100
6, 38100, Note_on_c, 4, 69, 0
6, 38100, Note_on_c, 4, 68, 100
6, 38160, Note_on_c, 4, 68, 0
6, 38160, Note_on_c, 4, 69, 100
6, 38160, Note_on_c, 4, 64, 100
6, 38160, Note_on_c, 4, 45, 100
6, 38220, Note_on_c, 4, 45, 0
6, 38220, Note_on_c, 4, 64, 0
6, 38220, Note_on_c, 4, 69, 0
6, 38220, Note_on_c, 4, 71, 100
6, 38280, Note_on_c, 4, 71, 0
6, 38280, Note_on_c, 4, 69, 100
6, 38280, Note_on_c, 4, 64, 100
6, 38340, Note_on_c, 4, 64, 0
6, 38340, Note_on_c, 4, 69, 0
6, 38340, Note_on_c, 4, 71, 100
6, 38400, Note_on_c, 4, 71, 0
6, 38520, Note_on_c, 4, 64, 100
6, 38550, Note_on_c, 4, 64, 0
6, 38610, Note_on_c, 4, 66, 100
6, 38610, Note_on_c, 4, 61, 100
6, 38640, Note_on_c, 4, 61, 0
6, 38640, Note_on_c, 4, 66, 0
6, 38760, Note_on_c, 4, 64, 100
6, 38820, Note_on_c, 4, 64, 0
6, 38820, Note_on_c, 4, 66, 100
6, 38850, Note_on_c, 4, 66, 0
6, 38850, Note_on_c, 4, 64, 100
6, 38850, Note_on_c, 4, 61, 100
6, 39000, Note_on_c, 4, 61, 0
6, 39000, Note_on_c, 4, 64, 0
6, 39180, Note_on_c, 4, 64, 100
6, 39180, Note_on_c, 4, 59, 100
6, 39210, Note_on_c, 4, 59, 0
6, 39210, Note_on_c, 4, 64, 0
6, 39210, Note_on_c, 4, 64, 100
6, 39210, Note_on_c, 4, 59, 100
6, 39240, Note_on_c, 4, 59, 0
6, 39240, Note_on_c, 4, 64, 0
6, 39240, Note_on_c, 4, 61, 100
6, 39300, Note_on_c, 4, 61, 0
6, 39360, Note_on_c, 4, 64, 100
6, 39360, Note_on_c, 4, 59, 100
6, 39420, Note_on_c, 4, 59, 0
6, 39420, Note_on_c, 4, 64, 0
6, 39480, Note_on_c, 4, 64, 100
6, 39480, Note_on_c, 4, 59, 100
6, 39540, Note_on_c, 4, 59, 0
6, 39540, Note_on_c, 4, 64, 0
6, 39540, Note_on_c, 4, 66, 100
6, 39570, Note_on_c, 4, 66, 0
6, 39570, Note_on_c, 4, 66, 100
6, 39600, Note_on_c, 4, 66, 0
6, 39720, Note_on_c, 4, 64, 100
6, 39720, Note_on_c, 4, 59, 100
6, 39780, Note_on_c, 4, 59, 0
6, 39780, Note_on_c, 4, 64, 0
6, 39780, Note_on_c, 4, 66, 100
6, 39780, Note_on_c, 4, 61, 100
6, 39810, Note_on_c, 4, 61, 0
6, 39810, Note_on_c, 4, 66, 0
6, 39810, Note_on_c, 4, 64, 100
6, 39810, Note_on_c, 4, 59, 100
6, 39840, Note_on_c, 4, 59, 0
6, 39840, Note_on_c, 4, 64, 0
6, 39840, Note_on_c, 4, 61, 100
6, 39960, Note_on_c, 4, 61, 0
6, 39960, Note_on_c, 4, 68, 100
6, 39990, Note_on_c, 4, 68, 0
6, 40140, Note_on_c, 4, 64, 100
6, 40170, Note_on_c, 4, 64, 0
6, 40170, Note_on_c, 4, 64, 100
6, 40170, Note_on_c, 4, 59, 100
6, 40200, Note_on_c, 4, 59, 0
6, 40200, Note_on_c, 4, 64, 0
6, 40200, Note_on_c, 4, 57, 100
6, 40260, Note_on_c, 4, 57, 0
6, 40260, Note_on_c, 4, 59, 100
6, 40320, Note_on_c, 4, 59, 0
6, 40320, Note_on_c, 4, 61, 100
6, 40380, Note_on_c, 4, 61, 0
6, 40380, Note_on_c, 4, 59, 100
6, 40440, Note_on_c, 4, 59, 0
6, 40440, Note_on_c, 4, 64, 100
6, 40485, Note_on_c, 4, 64, 0
6, 40620, Note_on_c, 4, 63, 100
6, 40650, Note_on_c, 4, 63, 0
6, 40650, Note_on_c, 4, 64, 100
6, 40680, Note_on_c, 4, 64, 0
6, 40680, Note_on_c, 4, 45, 100
6, 40800, Note_on_c, 4, 64, 100
6, 40800, Note_on_c, 4, 59, 100
6, 40860, Note_on_c, 4, 59, 0
6, 40860, Note_on_c, 4, 64, 0
6, 40860, Note_on_c, 4, 64, 100
6, 40860, Note_on_c, 4, 59, 100
6, 40920, Note_on_c, 4, 59, 0
6, 40920, Note_on_c, 4, 64, 0
6, 40920, Note_on_c, 4, 45, 0
6, 40920, Note_on_c, 4, 64, 100
6, 40920, Note_on_c, 4, 61, 100
6, 40980, Note_on_c, 4, 61, 0
6, 40980, Note_on_c, 4, 64, 0
6, 41040, Note_on_c, 4, 69, 100
6, 41040, Note_on_c, 4, 64, 100
6, 41070, Note_on_c, 4, 64, 0
6, 41070, Note_on_c, 4, 69, 0
6, 41070, Note_on_c, 4, 69, 100
6, 41070, Note_on_c, 4, 64, 100
6, 41100, Note_on_c, 4, 64, 0
6, 41100, Note_on_c, 4, 69, 0
6, 41100, Note_on_c, 4, 69, 100
6, 41100, Note_on_c, 4, 64, 100
6, 41160, Note_on_c, 4, 64, 0
6, 41160, Note_on_c, 4, 69, 0
6, 41160, Note_on_c, 4, 69, 100
6, 41160, Note_on_c, 4, 64, 100
6, 41190, Note_on_c, 4, 64, 0
6, 41190, Note_on_c, 4, 69, 0
6, 41190, Note_on_c, 4, 69, 100
6, 41190, Note_on_c, 4, 64, 100
6, 41220, Note_on_c, 4, 64, 0
6, 41220, Note_on_c, 4, 69, 0
6, 41220, Note_on_c, 4, 69, 100
6, 41220, Note_on_c, 4, 64, 100
6, 41280, Note_on_c, 4, 64, 0
6, 41280, Note_on_c, 4, 69, 0
6, 41280, Note_on_c, 4, 69, 100
6, 41280, Note_on_c, 4, 64, 100
6, 41280, Note_on_c, 4, 61, 100
6, 41340, Note_on_c, 4, 61, 0
6, 41340, Note_on_c, 4, 64, 0
6, 41340, Note_on_c, 4, 69, 0
6, 41340, Note_on_c, 4, 68, 100
6, 41340, Note_on_c, 4, 59, 100
6, 41400, Note_on_c, 4, 59, 0
6, 41400, Note_on_c, 4, 68, 0
6, 41640, Note_on_c, 4, 66, 100
6, 41670, Note_on_c, 4, 66, 0
6, 41670, Note_on_c, 4, 67, 100
6, 41700, Note_on_c, 4, 67, 0
6, 41700, Note_on_c, 4, 66, 100
6, 41745, Note_on_c, 4, 66, 0
6, 41760, Note_on_c, 4, 73, 100
6, 41820, Note_on_c, 4, 73, 0
6, 41820, Note_on_c, 4, 71, 100
6, 41880, Note_on_c, 4, 71, 0
6, 41880, Note_on_c, 4, 73, 100
6, 42120, Note_on_c, 4, 73, 0
6, 42240, Note_on_c, 4, 76, 100
6, 42300, Note_on_c, 4, 76, 0
6, 42420, Note_on_c, 4, 73, 100
6, 42420, Note_on_c, 4, 68, 100
6, 42480, Note_on_c, 4, 68, 0
6, 42480, Note_on_c, 4, 73, 0
6, 42480, Note_on_c, 4, 71, 100
6, 42600, Note_on_c, 4, 71, 0
6, 42600, Note_on_c, 4, 68, 100
6, 42660, Note_on_c, 4, 68, 0
6, 42660, Note_on_c, 4, 64, 100
6, 42720, Note_on_c, 4, 64, 0
6, 42720, Note_on_c, 4, 64, 100
6, 42720, Note_on_c, 4, 59, 100
6, 42780, Note_on_c, 4, 59, 0
6, 42780, Note_on_c, 4, 64, 0
6, 42780, Note_on_c, 4, 61, 100
6, 42840, Note_on_c, 4, 61, 0
6, 42840, Note_on_c, 4, 69, 100
6, 43080, Note_on_c, 4, 69, 0
6, 43110, Note_on_c, 4, 68, 100
6, 43110, Note_on_c, 4, 64, 100
6, 43110, Note_on_c, 4, 59, 100
6, 43140, Note_on_c, 4, 59, 0
6, 43140, Note_on_c, 4, 64, 0
6, 43140, Note_on_c, 4, 68, 0
6, 43200, Note_on_c, 4, 68, 100
6, 43320, Note_on_c, 4, 68, 0
6, 43320, Note_on_c, 4, 68, 100
6, 43350, Note_on_c, 4, 68, 0
6, 43350, Note_on_c, 4, 64, 100
6, 43380, Note_on_c, 4, 64, 0
6, 43380, Note_on_c, 4, 59, 100
6, 43410, Note_on_c, 4, 59, 0
6, 43410, Note_on_c, 4, 68, 100
6, 43440, Note_on_c, 4, 68, 0
6, 43680, Note_on_c, 4, 59, 100
6, 43687, Note_on_c, 4, 59, 0
6, 43688, Note_on_c, 4, 61, 100
6, 43695, Note_on_c, 4, 61, 0
6, 43696, Note_on_c, 4, 64, 100
6, 43703, Note_on_c, 4, 64, 0
6, 43710, Note_on_c, 4, 69, 100
6, 43740, Note_on_c, 4, 69, 0
6, 43740, Note_on_c, 4, 69, 100
6, 43770, Note_on_c, 4, 69, 0
6, 43770, Note_on_c, 4, 69, 100
6, 43800, Note_on_c, 4, 69, 0
6, 43890, Note_on_c, 4, 59, 100
6, 43897, Note_on_c, 4, 59, 0
6, 43898, Note_on_c, 4, 61, 100
6, 43905, Note_on_c, 4, 61, 0
6, 43906, Note_on_c, 4, 64, 100
6, 43913, Note_on_c, 4, 64, 0
6, 43920, Note_on_c, 4, 69, 100
6, 43950, Note_on_c, 4, 69, 0
6, 43950, Note_on_c, 4, 69, 100
6, 43980, Note_on_c, 4, 69, 0
6, 44055, Note_on_c, 4, 59, 100
6, 44062, Note_on_c, 4, 59, 0
6, 44063, Note_on_c, 4, 61, 100
6, 44070, Note_on_c, 4, 61, 0
6, 44071, Note_on_c, 4, 64, 100
6, 44078, Note_on_c, 4, 64, 0
6, 44100, Note_on_c, 4, 69, 100
6, 44160, Note_on_c, 4, 69, 0
6, 44160, Note_on_c, 4, 40, 100
6, 44280, Note_on_c, 4, 40, 0
6, 44340, Note_on_c, 4, 66, 100
6, 44400, Note_on_c, 4, 66, 0
6, 44640, Note_on_c, 4, 59, 100
6, 44660, Note_on_c, 4, 59, 0
6, 44660, Note_on_c, 4, 61, 100
6, 44680, Note_on_c, 4, 61, 0
6, 44680, Note_on_c, 4, 64, 100
6, 44700, Note_on_c, 4, 64, 0
6, 44700, Note_on_c, 4, 69, 100
6, 44730, Note_on_c, 4, 69, 0
6, 44730, Note_on_c, 4, 69, 100
6, 44730, Note_on_c, 4, 64, 100
6, 44760, Note_on_c, 4, 64, 0
6, 44760, Note_on_c, 4, 69, 0
6, 45000, Note_on_c, 4, 69, 100
6, 45000, Note_on_c, 4, 64, 100
6, 45000, Note_on_c, 4, 61, 100
6, 45030, Note_on_c, 4, 61, 0
6, 45030, Note_on_c, 4, 64, 0
6, 45030, Note_on_c, 4, 69, 0
6, 45030, Note_on_c, 4, 68, 100
6, 45030, Note_on_c, 4, 59, 100
6, 45060, Note_on_c, 4, 59, 0
6, 45060, Note_on_c, 4, 68, 0
6, 45060, Note_on_c, 4, 69, 100
6, 45060, Note_on_c, 4, 61, 100
6, 45090, Note_on_c, 4, 61, 0
6, 45090, Note_on_c, 4, 69, 0
6, 45090, Note_on_c, 4, 69, 100
6, 45090, Note_on_c, 4, 64, 100
6, 45090, Note_on_c, 4, 61, 100
6, 45120, Note_on_c, 4, 61, 0
6, 45120, Note_on_c, 4, 64, 0
6, 45120, Note_on_c, 4, 69, 0
6, 45120, Note_on_c, 4, 59, 100
6, 45120, Note_on_c, 4, 68, 100
6, 45240, Note_on_c, 4, 68, 0
6, 45240, Note_on_c, 4, 59, 0
6, 45330, Note_on_c, 4, 68, 100
6, 45330, Note_on_c, 4, 64, 100
6, 45360, Note_on_c, 4, 64, 0
6, 45360, Note_on_c, 4, 68, 0
6, 45480, Note_on_c, 4, 66, 100
6, 45510, Note_on_c, 4, 66, 0
6, 45510, Note_on_c, 4, 64, 100
6, 45540, Note_on_c, 4, 64, 0
6, 45540, Note_on_c, 4, 66, 100
6, 45570, Note_on_c, 4, 66, 0
6, 45570, Note_on_c, 4, 64, 100
6, 45720, Note_on_c, 4, 64, 0
6, 45720, Note_on_c, 4, 61, 100
6, 45750, Note_on_c, 4, 61, 0
6, 45840, Note_on_c, 4, 59, 100
6, 45860, Note_on_c, 4, 59, 0
6, 45860, Note_on_c, 4, 61, 100
6, 45880, Note_on_c, 4, 61, 0
6, 45880, Note_on_c, 4, 69, 100
6, 45880, Note_on_c, 4, 64, 100
6, 45990, Note_on_c, 4, 64, 0
6, 45990, Note_on_c, 4, 69, 0
6, 45990, Note_on_c, 4, 73, 100
6, 46020, Note_on_c, 4, 73, 0
6, 46020, Note_on_c, 4, 68, 100
6, 46020, Note_on_c, 4, 59, 100
6, 46080, Note_on_c, 4, 59, 0
6, 46080, Note_on_c, 4, 68, 0
6, 46080, Note_on_c, 4, 73, 100
6, 46080, Note_on_c, 4, 68, 100
6, 46110, Note_on_c, 4, 68, 0
6, 46110, Note_on_c, 4, 73, 0
6, 46110, Note_on_c, 4, 61, 100
6, 46140, Note_on_c, 4, 61, 0
6, 46320, Note_on_c, 4, 73, 100
6, 46380, Note_on_c, 4, 73, 0
6, 46380, Note_on_c, 4, 71, 100
6, 46500, Note_on_c, 4, 71, 0
6, 46560, Note_on_c, 4, 69, 100
6, 46620, Note_on_c, 4, 69, 0
6, 46620, Note_on_c, 4, 68, 100
6, 46740, Note_on_c, 4, 68, 0
6, 46920, Note_on_c, 4, 64, 100
6, 46980, Note_on_c, 4, 64, 0
6, 47100, Note_on_c, 4, 59, 100
6, 47160, Note_on_c, 4, 59, 0
6, 47160, Note_on_c, 4, 73, 100
6, 47160, Note_on_c, 4, 68, 100
6, 47220, Note_on_c, 4, 68, 0
6, 47220, Note_on_c, 4, 73, 0
6, 47220, Note_on_c, 4, 59, 100
6, 47280, Note_on_c, 4, 59, 0
6, 47280, Note_on_c, 4, 71, 100
6, 47340, Note_on_c, 4, 71, 0
6, 47340, Note_on_c, 4, 59, 100
6, 47400, Note_on_c, 4, 59, 0
6, 47400, Note_on_c, 4, 68, 100
6, 47400, Note_on_c, 4, 64, 100
6, 47460, Note_on_c, 4, 64, 0
6, 47460, Note_on_c, 4, 68, 0
6, 47520, Note_on_c, 4, 69, 100
6, 47520, Note_on_c, 4, 64, 100
6, 47580, Note_on_c, 4, 64, 0
6, 47580, Note_on_c, 4, 69, 0
6, 47580, Note_on_c, 4, 59, 100
6, 47640, Note_on_c, 4, 59, 0
6, 47640, Note_on_c, 4, 68, 100
6, 47640, Note_on_c, 4, 64, 100
6, 47700, Note_on_c, 4, 64, 0
6, 47700, Note_on_c, 4, 68, 0
6, 47700, Note_on_c, 4, 61, 100
6, 47820, Note_on_c, 4, 61, 0
6, 47820, Note_on_c, 4, 54, 100
6, 47850, Note_on_c, 4, 54, 0
6, 47850, Note_on_c, 4, 56, 100
6, 47880, Note_on_c, 4, 56, 0
6, 47880, Note_on_c, 4, 59, 100
6, 47910, Note_on_c, 4, 59, 0
6, 47910, Note_on_c, 4, 56, 100
6, 47940, Note_on_c, 4, 56, 0
6, 47940, Note_on_c, 4, 64, 100
6, 48000, Note_on_c, 4, 64, 0
6, 48060, Note_on_c, 4, 59, 100
6, 48120, Note_on_c, 4, 59, 0
6, 48120, Note_on_c, 4, 76, 100
6, 48150, Note_on_c, 4, 76, 0
6, 48210, Note_on_c, 4, 73, 100
6, 48210, Note_on_c, 4, 68, 100
6, 48240, Note_on_c, 4, 68, 0
6, 48240, Note_on_c, 4, 73, 0
6, 48240, Note_on_c, 4, 59, 100
6, 48240, Note_on_c, 4, 45, 100
6, 48300, Note_on_c, 4, 45, 0
6, 48300, Note_on_c, 4, 59, 0
6, 48300, Note_on_c, 4, 71, 100
6, 48360, Note_on_c, 4, 71, 0
6, 48360, Note_on_c, 4, 69, 100
6, 48360, Note_on_c, 4, 61, 100
6, 48420, Note_on_c, 4, 61, 0
6, 48420, Note_on_c, 4, 69, 0
6, 48420, Note_on_c, 4, 68, 100
6, 48420, Note_on_c, 4, 59, 100
6, 48480, Note_on_c, 4, 59, 0
6, 48480, Note_on_c, 4, 68, 0
6, 48480, Note_on_c, 4, 64, 100
6, 48510, Note_on_c, 4, 64, 0
6, 48510, Note_on_c, 4, 68, 100
6, 48600, Note_on_c, 4, 68, 0
6, 48600, Note_on_c, 4, 64, 100
6, 48600, Note_on_c, 4, 59, 100
6, 48660, Note_on_c, 4, 59, 0
6, 48660, Note_on_c, 4, 64, 0
6, 48660, Note_on_c, 4, 59, 100
6, 48720, Note_on_c, 4, 59, 0
6, 48720, Note_on_c, 4, 61, 100
6, 48780, Note_on_c, 4, 61, 0
6, 48780, Note_on_c, 4, 64, 100
6, 48810, Note_on_c, 4, 64, 0
6, 48810, Note_on_c, 4, 64, 100
6, 48840, Note_on_c, 4, 64, 0
6, 48840, Note_on_c, 4, 64, 100
6, 48840, Note_on_c, 4, 61, 100
6, 48870, Note_on_c, 4, 61, 0
6, 48870, Note_on_c, 4, 64, 0
6, 48870, Note_on_c, 4, 59, 100
6, 48900, Note_on_c, 4, 59, 0
6, 49080, Note_on_c, 4, 76, 100
6, 49140, Note_on_c, 4, 76, 0
6, 49140, Note_on_c, 4, 68, 100
6, 49170, Note_on_c, 4, 68, 0
6, 49170, Note_on_c, 4, 76, 100
6, 49320, Note_on_c, 4, 76, 0
6, 49320, Note_on_c, 4, 73, 100
6, 49365, Note_on_c, 4, 73, 0
6, 49380, Note_on_c, 4, 68, 100
6, 49440, Note_on_c, 4, 68, 0
6, 49440, Note_on_c, 4, 67, 100
6, 49500, Note_on_c, 4, 67, 0
6, 49500, Note_on_c, 4, 66, 100
6, 49530, Note_on_c, 4, 66, 0
6, 49530, Note_on_c, 4, 64, 100
6, 49560, Note_on_c, 4, 64, 0
6, 49560, Note_on_c, 4, 59, 100
6, 49620, Note_on_c, 4, 59, 0
6, 49620, Note_on_c, 4, 61, 100
6, 49800, Note_on_c, 4, 61, 0
6, 49800, Note_on_c, 4, 67, 100
6, 49800, Note_on_c, 4, 64, 100
6, 49800, Note_on_c, 4, 59, 100
6, 49860, Note_on_c, 4, 59, 0
6, 49860, Note_on_c, 4, 64, 0
6, 49860, Note_on_c, 4, 67, 0
6, 50040, Note_on_c, 4, 64, 100
6, 50070, Note_on_c, 4, 64, 0
6, 50070, Note_on_c, 4, 59, 100
6, 50100, Note_on_c, 4, 59, 0
6, 50100, Note_on_c, 4, 57, 100
6, 50130, Note_on_c, 4, 57, 0
6, 50130, Note_on_c, 4, 59, 100
6, 50160, Note_on_c, 4, 59, 0
6, 50280, Note_on_c, 4, 64, 100
6, 50310, Note_on_c, 4, 64, 0
6, 50310, Note_on_c, 4, 59, 100
6, 50340, Note_on_c, 4, 59, 0
6, 50340, Note_on_c, 4, 56, 100
6, 50370, Note_on_c, 4, 56, 0
6, 50370, Note_on_c, 4, 59, 100
6, 50400, Note_on_c, 4, 59, 0
6, 50400, Control_c, 4, 7, 103
6, 50400, Note_on_c, 4, 61, 100
6, 50432, Control_c, 4, 7, 102
6, 50464, Control_c, 4, 7, 101
6, 50496, Control_c, 4, 7, 100
6, 50520, Note_on_c, 4, 61, 0
6, 50528, Control_c, 4, 7, 99
6, 50550, Note_on_c, 4, 59, 100
6, 50560, Control_c, 4, 7, 98
6, 50580, Note_on_c, 4, 59, 0
6, 50580, Note_on_c, 4, 61, 100
6, 50592, Control_c, 4, 7, 97
6, 50610, Note_on_c, 4, 61, 0
6, 50610, Note_on_c, 4, 64, 100
6, 50624, Control_c, 4, 7, 96
6, 50656, Control_c, 4, 7, 95
6, 50688, Control_c, 4, 7, 94
6, 50720, Control_c, 4, 7, 93
6, 50752, Control_c, 4, 7, 92
6, 50760, Note_on_c, 4, 64, 0
6, 50760, Note_on_c, 4, 66, 100
6, 50784, Control_c, 4, 7, 91
6, 50790, Note_on_c, 4, 66, 0
6, 50790, Note_on_c, 4, 64, 100
6, 50816, Control_c, 4, 7, 90
6, 50820, Note_on_c, 4, 64, 0
6, 50820, Note_on_c, 4, 61, 100
6, 50848, Control_c, 4, 7, 89
6, 50865, Note_on_c, 4, 61, 0
6, 50880, Control_c, 4, 7, 88
6, 50912, Control_c, 4, 7, 87
6, 50940, Note_on_c, 4, 54, 100
6, 50944, Control_c, 4, 7, 86
6, 50970, Note_on_c, 4, 54, 0
6, 50970, Note_on_c, 4, 56, 100
6, 50976, Control_c, 4, 7, 85
6, 51000, Note_on_c, 4, 56, 0
6, 51000, Note_on_c, 4, 59, 100
6, 51008, Control_c, 4, 7, 84
6, 51040, Control_c, 4, 7, 83
6, 51060, Note_on_c, 4, 59, 0
6, 51060, Note_on_c, 4, 61, 100
6, 51072, Control_c, 4, 7, 82
6, 51104, Control_c, 4, 7, 81
6, 51120, Note_on_c, 4, 61, 0
6, 51120, Note_on_c, 4, 64, 100
6, 51136, Control_c, 4, 7, 80
6, 51168, Control_c, 4, 7, 79
6, 51200, Control_c, 4, 7, 78
6, 51233, Control_c, 4, 7, 77
6, 51240, Note_on_c, 4, 64, 0
6, 51240, Note_on_c, 4, 66, 100
6, 51265, Control_c, 4, 7, 76
6, 51297, Control_c, 4, 7, 75
6, 51300, Note_on_c, 4, 66, 0
6, 51329, Control_c, 4, 7, 74
6, 51360, Note_on_c, 4, 54, 100
6, 51361, Control_c, 4, 7, 73
6, 51390, Note_on_c, 4, 54, 0
6, 51390, Note_on_c, 4, 56, 100
6, 51393, Control_c, 4, 7, 72
6, 51420, Note_on_c, 4, 56, 0
6, 51420, Note_on_c, 4, 59, 100
6, 51425, Control_c, 4, 7, 71
6, 51450, Note_on_c, 4, 59, 0
6, 51450, Note_on_c, 4, 61, 100
6, 51457, Control_c, 4, 7, 70
6, 51480, Note_on_c, 4, 61, 0
6, 51480, Note_on_c, 4, 64, 100
6, 51489, Control_c, 4, 7, 69
6, 51510, Note_on_c, 4, 64, 0
6, 51510, Note_on_c, 4, 68, 100
6, 51521, Control_c, 4, 7, 68
6, 51540, Note_on_c, 4, 68, 0
6, 51553, Control_c, 4, 7, 67
6, 51585, Control_c, 4, 7, 66
6, 51617, Control_c, 4, 7, 65
6, 51649, Control_c, 4, 7, 64
6, 51660, Note_on_c, 4, 69, 100
6, 51660, Note_on_c, 4, 64, 100
6, 51660, Note_on_c, 4, 61, 100
6, 51681, Control_c, 4, 7, 63
6, 51705, Note_on_c, 4, 61, 0
6, 51705, Note_on_c, 4, 64, 0
6, 51705, Note_on_c, 4, 69, 0
6, 51713, Control_c, 4, 7, 62
6, 51745, Control_c, 4, 7, 61
6, 51777, Control_c, 4, 7, 60
6, 51780, Note_on_c, 4, 54, 100
6, 51809, Control_c, 4, 7, 59
6, 51810, Note_on_c, 4, 54, 0
6, 51810, Note_on_c, 4, 56, 100
6, 51840, Note_on_c, 4, 56, 0
6, 51840, Note_on_c, 4, 64, 127
6, 51841, Control_c, 4, 7, 58
6, 51873, Control_c, 4, 7, 57
6, 51885, Note_on_c, 4, 64, 0
6, 51900, Note_on_c, 4, 54, 127
6, 51905, Control_c, 4, 7, 56
6, 51930, Note_on_c, 4, 54, 0
6, 51930, Note_on_c, 4, 56, 127
6, 51937, Control_c, 4, 7, 55
6, 51960, Note_on_c, 4, 56, 0
6, 51960, Note_on_c, 4, 64, 127
6, 51960, Note_on_c, 4, 59, 127
6, 51969, Control_c, 4, 7, 54
6, 52001, Control_c, 4, 7, 53
6, 52005, Note_on_c, 4, 59, 0
6, 52005, Note_on_c, 4, 64, 0
6, 52033, Control_c, 4, 7, 52
6, 52066, Control_c, 4, 7, 51
6, 52098, Control_c, 4, 7, 50
6, 52110, Note_on_c, 4, 61, 127
6, 52130, Control_c, 4, 7, 49
6, 52140, Note_on_c, 4, 61, 0
6, 52140, Note_on_c, 4, 69, 127
6, 52140, Note_on_c, 4, 64, 127
6, 52162, Control_c, 4, 7, 48
6, 52170, Note_on_c, 4, 64, 0
6, 52170, Note_on_c, 4, 69, 0
6, 52170, Note_on_c, 4, 71, 127
6, 52194, Control_c, 4, 7, 47
6, 52200, Note_on_c, 4, 71, 0
6, 52200, Note_on_c, 4, 71, 127
6, 52226, Control_c, 4, 7, 46
6, 52258, Control_c, 4, 7, 45
6, 52260, Note_on_c, 4, 71, 0
6, 52260, Note_on_c, 4, 64, 127
6, 52290, Control_c, 4, 7, 44
6, 52320, Note_on_c, 4, 64, 0
6, 52320, Note_on_c, 4, 71, 127
6, 52320, Note_on_c, 4, 68, 127
6, 52322, Control_c, 4, 7, 43
6, 52354, Control_c, 4, 7, 42
6, 52380, Note_on_c, 4, 68, 0
6, 52380, Note_on_c, 4, 71, 0
6, 52380, Note_on_c, 4, 59, 127
6, 52386, Control_c, 4, 7, 41
6, 52418, Control_c, 4, 7, 40
6, 52440, Note_on_c, 4, 59, 0
6, 52440, Note_on_c, 4, 64, 127
6, 52450, Control_c, 4, 7, 39
6, 52482, Control_c, 4, 7, 38
6, 52500, Note_on_c, 4, 64, 0
6, 52500, Note_on_c, 4, 64, 127
6, 52514, Control_c, 4, 7, 37
6, 52546, Control_c, 4, 7, 36
6, 52578, Control_c, 4, 7, 35
6, 52610, Control_c, 4, 7, 34
6, 52642, Control_c, 4, 7, 33
6, 52674, Control_c, 4, 7, 32
6, 52680, Note_on_c, 4, 64, 0
6, 52680, Note_on_c, 4, 68, 127
6, 52680, Note_on_c, 4, 66, 127
6, 52706, Control_c, 4, 7, 31
6, 52710, Note_on_c, 4, 66, 0
6, 52710, Note_on_c, 4, 68, 0
6, 52710, Note_on_c, 4, 64, 127
6, 52738, Control_c, 4, 7, 30
6, 52740, Note_on_c, 4, 64, 0
6, 52740, Note_on_c, 4, 61, 127
6, 52770, Note_on_c, 4, 61, 0
6, 52770, Control_c, 4, 7, 29
6, 52770, Note_on_c, 4, 59, 127
6, 52800, Note_on_c, 4, 59, 0
6, 52800, Note_on_c, 4, 66, 127
6, 52800, Note_on_c, 4, 59, 127
6, 52802, Control_c, 4, 7, 28
6, 52834, Control_c, 4, 7, 27
6, 52860, Note_on_c, 4, 59, 0
6, 52860, Note_on_c, 4, 66, 0
6, 52860, Note_on_c, 4, 59, 127
6, 52866, Control_c, 4, 7, 26
6, 52899, Control_c, 4, 7, 25
6, 52920, Note_on_c, 4, 59, 0
6, 52920, Note_on_c, 4, 73, 127
6, 52920, Note_on_c, 4, 68, 127
6, 52920, Note_on_c, 4, 64, 127
6, 52931, Control_c, 4, 7, 24
6, 52963, Control_c, 4, 7, 23
6, 52965, Note_on_c, 4, 64, 0
6, 52965, Note_on_c, 4, 68, 0
6, 52965, Note_on_c, 4, 73, 0
6, 52995, Control_c, 4, 7, 22
6, 53027, Control_c, 4, 7, 21
6, 53059, Control_c, 4, 7, 20
6, 53091, Control_c, 4, 7, 19
6, 53123, Control_c, 4, 7, 18
6, 53155, Control_c, 4, 7, 17
6, 53160, Note_on_c, 4, 64, 127
6, 53180, Note_on_c, 4, 64, 0
6, 53180, Note_on_c, 4, 66, 127
6, 53187, Control_c, 4, 7, 16
6, 53200, Note_on_c, 4, 66, 0
6, 53200, Note_on_c, 4, 64, 127
6, 53219, Control_c, 4, 7, 15
6, 53220, Note_on_c, 4, 64, 0
6, 53220, Note_on_c, 4, 61, 127
6, 53251, Control_c, 4, 7, 14
6, 53260, Note_on_c, 4, 61, 0
6, 53260, Note_on_c, 4, 66, 127
6, 53280, Note_on_c, 4, 66, 0
6, 53280, Note_on_c, 4, 64, 127
6, 53283, Control_c, 4, 7, 13
6, 53300, Note_on_c, 4, 64, 0
6, 53300, Note_on_c, 4, 66, 127
6, 53315, Control_c, 4, 7, 12
6, 53320, Note_on_c, 4, 66, 0
6, 53320, Note_on_c, 4, 64, 127
6, 53340, Note_on_c, 4, 64, 0
6, 53340, Note_on_c, 4, 61, 127
6, 53347, Control_c, 4, 7, 11
6, 53379, Control_c, 4, 7, 10
6, 53385, Note_on_c, 4, 61, 0
6, 53411, Control_c, 4, 7, 9
6, 53443, Control_c, 4, 7, 8
6, 53475, Control_c, 4, 7, 7
6, 53507, Control_c, 4, 7, 6
6, 53520, Note_on_c, 4, 64, 127
6, 53539, Control_c, 4, 7, 5
6, 53540, Note_on_c, 4, 64, 0
6, 53540, Note_on_c, 4, 66, 127
6, 53560, Note_on_c, 4, 66, 0
6, 53560, Note_on_c, 4, 64, 127
6, 53571, Control_c, 4, 7, 4
6, 53580, Note_on_c, 4, 64, 0
6, 53580, Note_on_c, 4, 61, 127
6, 53603, Control_c, 4, 7, 3
6, 53625, Note_on_c, 4, 61, 0
6, 53635, Control_c, 4, 7, 2
6, 53667, Control_c, 4, 7, 1
6, 53700, Control_c, 4, 7, 0
6, 53700, End_track
7, 0, Start_track
7, 0, MIDI_port, 0
7, 0, Title_t, "Clean Gt"
7, 0, Program_c, 5, 27
7, 0, Control_c, 5, 7, 85
7, 0, Control_c, 5, 10, 20
7, 12120, Note_on_c, 5, 61, 100
7, 12180, Note_on_c, 5, 61, 0
7, 12180, Note_on_c, 5, 64, 100
7, 12240, Note_on_c, 5, 64, 0
7, 12240, Note_on_c, 5, 68, 100
7, 12300, Note_on_c, 5, 68, 0
7, 12300, Note_on_c, 5, 66, 100
7, 12360, Note_on_c, 5, 66, 0
7, 12360, Note_on_c, 5, 64, 100
7, 12480, Note_on_c, 5, 64, 0
7, 12480, Note_on_c, 5, 68, 100
7, 12540, Note_on_c, 5, 68, 0
7, 13020, Note_on_c, 5, 59, 100
7, 13080, Note_on_c, 5, 59, 0
7, 13080, Note_on_c, 5, 68, 100
7, 13140, Note_on_c, 5, 68, 0
7, 13200, Note_on_c, 5, 68, 100
7, 13260, Note_on_c, 5, 68, 0
7, 13260, Note_on_c, 5, 66, 100
7, 13320, Note_on_c, 5, 66, 0
7, 13320, Note_on_c, 5, 64, 100
7, 13440, Note_on_c, 5, 64, 0
7, 13440, Note_on_c, 5, 66, 100
7, 13500, Note_on_c, 5, 66, 0
7, 13500, Note_on_c, 5, 64, 100
7, 13560, Note_on_c, 5, 64, 0
7, 13560, Note_on_c, 5, 64, 100
7, 13620, Note_on_c, 5, 64, 0
7, 13620, Note_on_c, 5, 71, 100
7, 13740, Note_on_c, 5, 71, 0
7, 13740, Note_on_c, 5, 71, 100
7, 13800, Note_on_c, 5, 71, 0
7, 13800, Note_on_c, 5, 68, 100
7, 13860, Note_on_c, 5, 68, 0
7, 13920, Note_on_c, 5, 66, 100
7, 14040, Note_on_c, 5, 66, 0
7, 14040, Note_on_c, 5, 59, 100
7, 14100, Note_on_c, 5, 59, 0
7, 14100, Note_on_c, 5, 63, 100
7, 14160, Note_on_c, 5, 63, 0
7, 14160, Note_on_c, 5, 66, 100
7, 14280, Note_on_c, 5, 66, 0
7, 14280, Note_on_c, 5, 71, 100
7, 14340, Note_on_c, 5, 71, 0
7, 14340, Note_on_c, 5, 73, 100
7, 14400, Note_on_c, 5, 73, 0
7, 14400, Note_on_c, 5, 71, 100
7, 14430, Note_on_c, 5, 71, 0
7, 18360, Note_on_c, 5, 64, 100
7, 18360, Note_on_c, 5, 59, 100
7, 18390, Note_on_c, 5, 59, 0
7, 18390, Note_on_c, 5, 64, 0
7, 18390, Note_on_c, 5, 61, 100
7, 18420, Note_on_c, 5, 61, 0
7, 18420, Note_on_c, 5, 69, 100
7, 18420, Note_on_c, 5, 64, 100
7, 18540, Note_on_c, 5, 64, 0
7, 18540, Note_on_c, 5, 69, 0
7, 18540, Note_on_c, 5, 57, 100
7, 18660, Note_on_c, 5, 57, 0
7, 18660, Note_on_c, 5, 69, 100
7, 18660, Note_on_c, 5, 64, 100
7, 18720, Note_on_c, 5, 64, 0
7, 18720, Note_on_c, 5, 69, 0
7, 18840, Note_on_c, 5, 68, 100
7, 18840, Note_on_c, 5, 64, 100
7, 18900, Note_on_c, 5, 64, 0
7, 18900, Note_on_c, 5, 68, 0
7, 18900, Note_on_c, 5, 76, 100
7, 18900, Note_on_c, 5, 71, 100
7, 19080, Note_on_c, 5, 71, 0
7, 19080, Note_on_c, 5, 76, 0
7, 19320, Note_on_c, 5, 69, 100
7, 19380, Note_on_c, 5, 69, 0
7, 19380, Note_on_c, 5, 64, 100
7, 19440, Note_on_c, 5, 64, 0
7, 19440, Note_on_c, 5, 68, 100
7, 19500, Note_on_c, 5, 68, 0
7, 19500, Note_on_c, 5, 66, 100
7, 19560, Note_on_c, 5, 66, 0
7, 19560, Note_on_c, 5, 64, 100
7, 19590, Note_on_c, 5, 64, 0
7, 19590, Note_on_c, 5, 57, 100
7, 19620, Note_on_c, 5, 57, 0
7, 19620, Note_on_c, 5, 64, 100
7, 19680, Note_on_c, 5, 64, 0
7, 19680, Note_on_c, 5, 66, 100
7, 19740, Note_on_c, 5, 66, 0
7, 19800, Note_on_c, 5, 66, 100
7, 19860, Note_on_c, 5, 66, 0
7, 19860, Note_on_c, 5, 64, 100
7, 20040, Note_on_c, 5, 64, 0
7, 20040, Note_on_c, 5, 68, 100
7, 20100, Note_on_c, 5, 68, 0
7, 20220, Note_on_c, 5, 71, 100
7, 20280, Note_on_c, 5, 71, 0
7, 20280, Note_on_c, 5, 71, 100
7, 20400, Note_on_c, 5, 71, 0
7, 20400, Note_on_c, 5, 71, 100
7, 20520, Note_on_c, 5, 71, 0
7, 20520, Note_on_c, 5, 73, 100
7, 20640, Note_on_c, 5, 73, 0
7, 20700, Note_on_c, 5, 73, 100
7, 20760, Note_on_c, 5, 73, 0
7, 20760, Note_on_c, 5, 71, 100
7, 20880, Note_on_c, 5, 71, 0
7, 20880, Note_on_c, 5, 68, 100
7, 21000, Note_on_c, 5, 68, 0
7, 21000, Note_on_c, 5, 66, 100
7, 21030, Note_on_c, 5, 66, 0
7, 21030, Note_on_c, 5, 64, 100
7, 21060, Note_on_c, 5, 64, 0
7, 21060, Note_on_c, 5, 61, 100
7, 21120, Note_on_c, 5, 61, 0
7, 21120, End_track
8, 0, Start_track
8, 0, MIDI_port, 0
8, 0, Title_t, "Clean Gt."
8, 0, Program_c, 6, 27
8, 0, Control_c, 6, 7, 85
8, 0, Control_c, 6, 10, 110
8, 12480, Note_on_c, 6, 64, 100
8, 12600, Note_on_c, 6, 64, 0
8, 12600, Note_on_c, 6, 64, 100
8, 12660, Note_on_c, 6, 64, 0
8, 12690, Note_on_c, 6, 64, 100
8, 12870, Note_on_c, 6, 64, 0
8, 12870, Note_on_c, 6, 64, 100
8, 12900, Note_on_c, 6, 64, 0
8, 12900, Note_on_c, 6, 56, 100
8, 12960, Note_on_c, 6, 56, 0
8, 12960, Note_on_c, 6, 57, 100
8, 13080, Note_on_c, 6, 57, 0
8, 13080, Note_on_c, 6, 57, 100
8, 13140, Note_on_c, 6, 57, 0
8, 13140, Note_on_c, 6, 57, 100
8, 13170, Note_on_c, 6, 57, 0
8, 13170, Note_on_c, 6, 57, 100
8, 13200, Note_on_c, 6, 57, 0
8, 13200, Note_on_c, 6, 64, 100
8, 13320, Note_on_c, 6, 64, 0
8, 13320, Note_on_c, 6, 57, 100
8, 13350, Note_on_c, 6, 57, 0
8, 13350, Note_on_c, 6, 64, 100
8, 13380, Note_on_c, 6, 64, 0
8, 13380, Note_on_c, 6, 52, 100
8, 13440, Note_on_c, 6, 52, 0
8, 13440, Note_on_c, 6, 56, 100
8, 13620, Note_on_c, 6, 56, 0
8, 13620, Note_on_c, 6, 56, 100
8, 13800, Note_on_c, 6, 56, 0
8, 13800, Note_on_c, 6, 57, 100
8, 13860, Note_on_c, 6, 57, 0
8, 13860, Note_on_c, 6, 59, 100
8, 14280, Note_on_c, 6, 59, 0
8, 18720, Note_on_c, 6, 56, 100
8, 18900, Note_on_c, 6, 56, 0
8, 18900, Note_on_c, 6, 56, 100
8, 19020, Note_on_c, 6, 56, 0
8, 19020, Note_on_c, 6, 56, 100
8, 19080, Note_on_c, 6, 56, 0
8, 19080, Note_on_c, 6, 64, 100
8, 19140, Note_on_c, 6, 64, 0
8, 19140, Note_on_c, 6, 64, 100
8, 19200, Note_on_c, 6, 64, 0
8, 19200, Note_on_c, 6, 57, 100
8, 19380, Note_on_c, 6, 57, 0
8, 19380, Note_on_c, 6, 57, 100
8, 19620, Note_on_c, 6, 57, 0
8, 19620, Note_on_c, 6, 52, 100
8, 19680, Note_on_c, 6, 52, 0
8, 19680, Note_on_c, 6, 56, 100
8, 19800, Note_on_c, 6, 56, 0
8, 19920, Note_on_c, 6, 56, 100
8, 19980, Note_on_c, 6, 56, 0
8, 19980, Note_on_c, 6, 56, 100
8, 20040, Note_on_c, 6, 56, 0
8, 20040, Note_on_c, 6, 56, 100
8, 20100, Note_on_c, 6, 56, 0
8, 20100, Note_on_c, 6, 56, 100
8, 20160, Note_on_c, 6, 56, 0
8, 20160, Note_on_c, 6, 59, 100
8, 20220, Note_on_c, 6, 59, 0
8, 20220, Note_on_c, 6, 59, 100
8, 20280, Note_on_c, 6, 59, 0
8, 20280, Note_on_c, 6, 59, 100
8, 20400, Note_on_c, 6, 59, 0
8, 20400, Note_on_c, 6, 59, 100
8, 20460, Note_on_c, 6, 59, 0
8, 20460, Note_on_c, 6, 47, 100
8, 20760, Note_on_c, 6, 47, 0
8, 20760, Note_on_c, 6, 59, 100
8, 20820, Note_on_c, 6, 59, 0
8, 20820, Note_on_c, 6, 61, 100
8, 20880, Note_on_c, 6, 61, 0
8, 20880, Note_on_c, 6, 59, 100
8, 20940, Note_on_c, 6, 59, 0
8, 20940, Note_on_c, 6, 61, 100
8, 21000, Note_on_c, 6, 61, 0
8, 21000, Note_on_c, 6, 59, 100
8, 21060, Note_on_c, 6, 59, 0
8, 21060, Note_on_c, 6, 61, 100
8, 21120, Note_on_c, 6, 61, 0
8, 21120, End_track
9, 0, Start_track
9, 0, MIDI_port, 0
9, 0, Title_t, "Electric Bass"
9, 0, Program_c, 7, 33
9, 0, Control_c, 7, 7, 90
9, 0, Control_c, 7, 10, 64
9, 0, Control_c, 7, 91, 20
9, 0, Control_c, 7, 93, 0
9, 480, Note_on_c, 7, 40, 109
9, 520, Note_on_c, 7, 40, 0
9, 540, Note_on_c, 7, 40, 88
9, 590, Note_on_c, 7, 40, 0
9, 600, Note_on_c, 7, 37, 111
9, 670, Note_on_c, 7, 37, 0
9, 720, Note_on_c, 7, 35, 109
9, 770, Note_on_c, 7, 35, 0
9, 780, Note_on_c, 7, 35, 90
9, 840, Note_on_c, 7, 35, 0
9, 840, Note_on_c, 7, 36, 91
9, 900, Note_on_c, 7, 36, 0
9, 900, Note_on_c, 7, 37, 89
9, 960, Note_on_c, 7, 37, 0
9, 960, Note_on_c, 7, 37, 90
9, 1000, Note_on_c, 7, 37, 0
9, 1020, Note_on_c, 7, 37, 89
9, 1070, Note_on_c, 7, 37, 0
9, 1080, Note_on_c, 7, 35, 111
9, 1150, Note_on_c, 7, 35, 0
9, 1200, Note_on_c, 7, 33, 110
9, 1240, Note_on_c, 7, 33, 0
9, 1260, Note_on_c, 7, 28, 89
9, 1320, Note_on_c, 7, 28, 0
9, 1320, Note_on_c, 7, 30, 90
9, 1380, Note_on_c, 7, 30, 0
9, 1380, Note_on_c, 7, 35, 89
9, 1440, Note_on_c, 7, 35, 0
9, 1440, Note_on_c, 7, 40, 109
9, 1490, Note_on_c, 7, 40, 0
9, 1500, Note_on_c, 7, 40, 89
9, 1550, Note_on_c, 7, 40, 0
9, 1560, Note_on_c, 7, 37, 108
9, 1617, Note_on_c, 7, 37, 0
9, 1620, Note_on_c, 7, 35, 89
9, 1680, Note_on_c, 7, 35, 0
9, 1680, Note_on_c, 7, 33, 90
9, 1740, Note_on_c, 7, 33, 0
9, 1740, Note_on_c, 7, 34, 90
9, 1800, Note_on_c, 7, 34, 0
9, 1800, Note_on_c, 7, 35, 90
9, 1860, Note_on_c, 7, 35, 0
9, 1860, Note_on_c, 7, 49, 91
9, 1920, Note_on_c, 7, 49, 0
9, 1920, Note_on_c, 7, 49, 88
9, 1970, Note_on_c, 7, 49, 0
9, 1980, Note_on_c, 7, 37, 90
9, 2040, Note_on_c, 7, 37, 0
9, 2040, Note_on_c, 7, 40, 110
9, 2080, Note_on_c, 7, 40, 0
9, 2100, Note_on_c, 7, 33, 90
9, 2160, Note_on_c, 7, 33, 0
9, 2160, Note_on_c, 7, 40, 110
9, 2210, Note_on_c, 7, 40, 0
9, 2220, Note_on_c, 7, 33, 89
9, 2277, Note_on_c, 7, 33, 0
9, 2280, Note_on_c, 7, 35, 91
9, 2340, Note_on_c, 7, 35, 0
9, 2340, Note_on_c, 7, 39, 90
9, 2400, Note_on_c, 7, 39, 0
9, 2400, Note_on_c, 7, 40, 111
9, 2440, Note_on_c, 7, 40, 0
9, 2460, Note_on_c, 7, 40, 88
9, 2510, Note_on_c, 7, 40, 0
9, 2520, Note_on_c, 7, 35, 109
9, 2590, Note_on_c, 7, 35, 0
9, 2640, Note_on_c, 7, 30, 111
9, 2690, Note_on_c, 7, 30, 0
9, 2700, Note_on_c, 7, 30, 91
9, 2757, Note_on_c, 7, 30, 0
9, 2760, Note_on_c, 7, 36, 91
9, 2820, Note_on_c, 7, 36, 0
9, 2820, Note_on_c, 7, 37, 88
9, 2880, Note_on_c, 7, 37, 0
9, 2880, Note_on_c, 7, 37, 90
9, 2920, Note_on_c, 7, 37, 0
9, 2940, Note_on_c, 7, 37, 88
9, 2990, Note_on_c, 7, 37, 0
9, 3000, Note_on_c, 7, 35, 108
9, 3057, Note_on_c, 7, 35, 0
9, 3060, Note_on_c, 7, 32, 89
9, 3120, Note_on_c, 7, 32, 0
9, 3120, Note_on_c, 7, 33, 109
9, 3160, Note_on_c, 7, 33, 0
9, 3180, Note_on_c, 7, 34, 91
9, 3240, Note_on_c, 7, 34, 0
9, 3240, Note_on_c, 7, 35, 90
9, 3300, Note_on_c, 7, 35, 0
9, 3300, Note_on_c, 7, 40, 91
9, 3357, Note_on_c, 7, 40, 0
9, 3360, Note_on_c, 7, 35, 90
9, 3420, Note_on_c, 7, 35, 0
9, 3420, Note_on_c, 7, 33, 90
9, 3480, Note_on_c, 7, 33, 0
9, 3480, Note_on_c, 7, 34, 89
9, 3540, Note_on_c, 7, 34, 0
9, 3540, Note_on_c, 7, 35, 109
9, 3597, Note_on_c, 7, 35, 0
9, 3600, Note_on_c, 7, 35, 90
9, 3660, Note_on_c, 7, 35, 0
9, 3660, Note_on_c, 7, 37, 88
9, 3720, Note_on_c, 7, 37, 0
9, 3720, Note_on_c, 7, 39, 90
9, 3780, Note_on_c, 7, 39, 0
9, 3780, Note_on_c, 7, 49, 89
9, 3840, Note_on_c, 7, 49, 0
9, 3840, Note_on_c, 7, 49, 89
9, 3890, Note_on_c, 7, 49, 0
9, 3900, Note_on_c, 7, 37, 89
9, 3957, Note_on_c, 7, 37, 0
9, 3960, Note_on_c, 7, 31, 91
9, 4020, Note_on_c, 7, 31, 0
9, 4020, Note_on_c, 7, 32, 90
9, 4080, Note_on_c, 7, 32, 0
9, 4080, Note_on_c, 7, 33, 110
9, 4137, Note_on_c, 7, 33, 0
9, 4140, Note_on_c, 7, 34, 88
9, 4200, Note_on_c, 7, 34, 0
9, 4200, Note_on_c, 7, 35, 90
9, 4260, Note_on_c, 7, 35, 0
9, 4260, Note_on_c, 7, 39, 91
9, 4320, Note_on_c, 7, 39, 0
9, 4320, Note_on_c, 7, 40, 108
9, 4437, Note_on_c, 7, 40, 0
9, 4440, Note_on_c, 7, 40, 89
9, 4500, Note_on_c, 7, 40, 0
9, 4500, Note_on_c, 7, 35, 88
9, 4560, Note_on_c, 7, 35, 0
9, 4560, Note_on_c, 7, 32, 89
9, 4620, Note_on_c, 7, 32, 0
9, 4620, Note_on_c, 7, 35, 89
9, 4680, Note_on_c, 7, 35, 0
9, 4680, Note_on_c, 7, 44, 88
9, 4740, Note_on_c, 7, 44, 0
9, 4740, Note_on_c, 7, 37, 89
9, 4800, Note_on_c, 7, 37, 0
9, 4800, Note_on_c, 7, 37, 90
9, 4840, Note_on_c, 7, 37, 0
9, 4860, Note_on_c, 7, 37, 88
9, 4920, Note_on_c, 7, 37, 0
9, 4920, Note_on_c, 7, 40, 109
9, 4960, Note_on_c, 7, 40, 0
9, 4980, Note_on_c, 7, 33, 90
9, 5040, Note_on_c, 7, 33, 0
9, 5040, Note_on_c, 7, 40, 110
9, 5097, Note_on_c, 7, 40, 0
9, 5100, Note_on_c, 7, 37, 90
9, 5160, Note_on_c, 7, 37, 0
9, 5160, Note_on_c, 7, 36, 90
9, 5220, Note_on_c, 7, 36, 0
9, 5220, Note_on_c, 7, 47, 88
9, 5280, Note_on_c, 7, 47, 0
9, 5280, Note_on_c, 7, 40, 111
9, 5390, Note_on_c, 7, 40, 0
9, 5400, Note_on_c, 7, 37, 111
9, 5457, Note_on_c, 7, 37, 0
9, 5460, Note_on_c, 7, 35, 89
9, 5520, Note_on_c, 7, 35, 0
9, 5520, Note_on_c, 7, 32, 90
9, 5580, Note_on_c, 7, 32, 0
9, 5580, Note_on_c, 7, 35, 111
9, 5637, Note_on_c, 7, 35, 0
9, 5640, Note_on_c, 7, 35, 91
9, 5700, Note_on_c, 7, 35, 0
9, 5700, Note_on_c, 7, 37, 88
9, 5760, Note_on_c, 7, 37, 0
9, 5760, Note_on_c, 7, 37, 89
9, 5790, Note_on_c, 7, 37, 0
9, 5820, Note_on_c, 7, 37, 89
9, 5870, Note_on_c, 7, 37, 0
9, 5880, Note_on_c, 7, 35, 111
9, 5960, Note_on_c, 7, 35, 0
9, 6000, Note_on_c, 7, 33, 109
9, 6050, Note_on_c, 7, 33, 0
9, 6060, Note_on_c, 7, 33, 88
9, 6120, Note_on_c, 7, 33, 0
9, 6120, Note_on_c, 7, 30, 91
9, 6180, Note_on_c, 7, 30, 0
9, 6180, Note_on_c, 7, 35, 91
9, 6240, Note_on_c, 7, 35, 0
9, 6240, Note_on_c, 7, 40, 108
9, 6350, Note_on_c, 7, 40, 0
9, 6360, Note_on_c, 7, 37, 111
9, 6440, Note_on_c, 7, 37, 0
9, 6480, Note_on_c, 7, 35, 108
9, 6530, Note_on_c, 7, 35, 0
9, 6540, Note_on_c, 7, 35, 88
9, 6600, Note_on_c, 7, 35, 0
9, 6600, Note_on_c, 7, 44, 90
9, 6660, Note_on_c, 7, 44, 0
9, 6660, Note_on_c, 7, 37, 89
9, 6720, Note_on_c, 7, 37, 0
9, 6720, Note_on_c, 7, 37, 91
9, 6760, Note_on_c, 7, 37, 0
9, 6780, Note_on_c, 7, 37, 89
9, 6840, Note_on_c, 7, 37, 0
9, 6840, Note_on_c, 7, 40, 108
9, 6880, Note_on_c, 7, 40, 0
9, 6900, Note_on_c, 7, 40, 91
9, 6960, Note_on_c, 7, 40, 0
9, 6960, Note_on_c, 7, 33, 108
9, 7017, Note_on_c, 7, 33, 0
9, 7020, Note_on_c, 7, 33, 88
9, 7080, Note_on_c, 7, 33, 0
9, 7080, Note_on_c, 7, 35, 89
9, 7140, Note_on_c, 7, 35, 0
9, 7140, Note_on_c, 7, 37, 88
9, 7200, Note_on_c, 7, 37, 0
9, 7200, Note_on_c, 7, 40, 111
9, 7310, Note_on_c, 7, 40, 0
9, 7320, Note_on_c, 7, 37, 108
9, 7377, Note_on_c, 7, 37, 0
9, 7380, Note_on_c, 7, 33, 91
9, 7440, Note_on_c, 7, 33, 0
9, 7440, Note_on_c, 7, 34, 91
9, 7500, Note_on_c, 7, 34, 0
9, 7500, Note_on_c, 7, 35, 111
9, 7557, Note_on_c, 7, 35, 0
9, 7560, Note_on_c, 7, 36, 90
9, 7620, Note_on_c, 7, 36, 0
9, 7620, Note_on_c, 7, 37, 91
9, 7680, Note_on_c, 7, 37, 0
9, 7680, Note_on_c, 7, 37, 91
9, 7710, Note_on_c, 7, 37, 0
9, 7740, Note_on_c, 7, 37, 91
9, 7790, Note_on_c, 7, 37, 0
9, 7800, Note_on_c, 7, 35, 111
9, 7880, Note_on_c, 7, 35, 0
9, 7920, Note_on_c, 7, 33, 108
9, 7977, Note_on_c, 7, 33, 0
9, 7980, Note_on_c, 7, 32, 89
9, 8040, Note_on_c, 7, 32, 0
9, 8040, Note_on_c, 7, 33, 88
9, 8100, Note_on_c, 7, 33, 0
9, 8100, Note_on_c, 7, 35, 88
9, 8160, Note_on_c, 7, 35, 0
9, 8160, Note_on_c, 7, 40, 111
9, 8210, Note_on_c, 7, 40, 0
9, 8220, Note_on_c, 7, 40, 88
9, 8270, Note_on_c, 7, 40, 0
9, 8280, Note_on_c, 7, 37, 108
9, 8360, Note_on_c, 7, 37, 0
9, 8400, Note_on_c, 7, 35, 111
9, 8450, Note_on_c, 7, 35, 0
9, 8460, Note_on_c, 7, 35, 89
9, 8517, Note_on_c, 7, 35, 0
9, 8520, Note_on_c, 7, 39, 89
9, 8580, Note_on_c, 7, 39, 0
9, 8580, Note_on_c, 7, 49, 88
9, 8640, Note_on_c, 7, 49, 0
9, 8640, Note_on_c, 7, 49, 91
9, 8697, Note_on_c, 7, 49, 0
9, 8700, Note_on_c, 7, 28, 89
9, 8760, Note_on_c, 7, 28, 0
9, 8760, Note_on_c, 7, 32, 88
9, 8820, Note_on_c, 7, 32, 0
9, 8820, Note_on_c, 7, 33, 88
9, 8880, Note_on_c, 7, 33, 0
9, 8880, Note_on_c, 7, 40, 111
9, 8930, Note_on_c, 7, 40, 0
9, 8940, Note_on_c, 7, 40, 89
9, 8997, Note_on_c, 7, 40, 0
9, 9000, Note_on_c, 7, 33, 89
9, 9060, Note_on_c, 7, 33, 0
9, 9060, Note_on_c, 7, 35, 90
9, 9120, Note_on_c, 7, 35, 0
9, 9120, Note_on_c, 7, 40, 111
9, 9160, Note_on_c, 7, 40, 0
9, 9180, Note_on_c, 7, 40, 91
9, 9230, Note_on_c, 7, 40, 0
9, 9240, Note_on_c, 7, 37, 109
9, 9297, Note_on_c, 7, 37, 0
9, 9300, Note_on_c, 7, 35, 88
9, 9360, Note_on_c, 7, 35, 0
9, 9360, Note_on_c, 7, 32, 90
9, 9420, Note_on_c, 7, 32, 0
9, 9420, Note_on_c, 7, 35, 88
9, 9480, Note_on_c, 7, 35, 0
9, 9480, Note_on_c, 7, 32, 88
9, 9540, Note_on_c, 7, 32, 0
9, 9540, Note_on_c, 7, 37, 90
9, 9600, Note_on_c, 7, 37, 0
9, 9600, Note_on_c, 7, 37, 90
9, 9640, Note_on_c, 7, 37, 0
9, 9660, Note_on_c, 7, 37, 91
9, 9717, Note_on_c, 7, 37, 0
9, 9720, Note_on_c, 7, 32, 89
9, 9780, Note_on_c, 7, 32, 0
9, 9780, Note_on_c, 7, 33, 110
9, 9820, Note_on_c, 7, 33, 0
9, 9900, Note_on_c, 7, 28, 89
9, 9957, Note_on_c, 7, 28, 0
9, 9960, Note_on_c, 7, 39, 89
9, 10020, Note_on_c, 7, 39, 0
9, 10020, Note_on_c, 7, 40, 90
9, 10080, Note_on_c, 7, 40, 0
9, 10080, Note_on_c, 7, 40, 108
9, 10120, Note_on_c, 7, 40, 0
9, 10140, Note_on_c, 7, 32, 88
9, 10200, Note_on_c, 7, 32, 0
9, 10200, Note_on_c, 7, 35, 89
9, 10260, Note_on_c, 7, 35, 0
9, 10260, Note_on_c, 7, 32, 91
9, 10320, Note_on_c, 7, 32, 0
9, 10320, Note_on_c, 7, 35, 111
9, 10370, Note_on_c, 7, 35, 0
9, 10380, Note_on_c, 7, 30, 91
9, 10440, Note_on_c, 7, 30, 0
9, 10440, Note_on_c, 7, 32, 89
9, 10500, Note_on_c, 7, 32, 0
9, 10500, Note_on_c, 7, 37, 91
9, 10560, Note_on_c, 7, 37, 0
9, 10560, Note_on_c, 7, 37, 89
9, 10600, Note_on_c, 7, 37, 0
9, 10620, Note_on_c, 7, 37, 89
9, 10677, Note_on_c, 7, 37, 0
9, 10680, Note_on_c, 7, 32, 88
9, 10740, Note_on_c, 7, 32, 0
9, 10740, Note_on_c, 7, 33, 109
9, 10780, Note_on_c, 7, 33, 0
9, 10860, Note_on_c, 7, 28, 88
9, 10920, Note_on_c, 7, 28, 0
9, 10920, Note_on_c, 7, 30, 88
9, 10980, Note_on_c, 7, 30, 0
9, 10980, Note_on_c, 7, 40, 89
9, 11040, Note_on_c, 7, 40, 0
9, 11040, Note_on_c, 7, 40, 110
9, 11080, Note_on_c, 7, 40, 0
9, 11100, Note_on_c, 7, 40, 88
9, 11150, Note_on_c, 7, 40, 0
9, 11160, Note_on_c, 7, 37, 111
9, 11217, Note_on_c, 7, 37, 0
9, 11220, Note_on_c, 7, 33, 90
9, 11280, Note_on_c, 7, 33, 0
9, 11280, Note_on_c, 7, 34, 89
9, 11340, Note_on_c, 7, 34, 0
9, 11340, Note_on_c, 7, 35, 88
9, 11400, Note_on_c, 7, 35, 0
9, 11400, Note_on_c, 7, 32, 89
9, 11460, Note_on_c, 7, 32, 0
9, 11460, Note_on_c, 7, 37, 90
9, 11517, Note_on_c, 7, 37, 0
9, 11520, Note_on_c, 7, 28, 90
9, 11580, Note_on_c, 7, 28, 0
9, 11580, Note_on_c, 7, 31, 90
9, 11640, Note_on_c, 7, 31, 0
9, 11640, Note_on_c, 7, 32, 88
9, 11700, Note_on_c, 7, 32, 0
9, 11700, Note_on_c, 7, 33, 110
9, 11740, Note_on_c, 7, 33, 0
9, 11820, Note_on_c, 7, 28, 89
9, 11880, Note_on_c, 7, 28, 0
9, 11880, Note_on_c, 7, 30, 91
9, 11940, Note_on_c, 7, 30, 0
9, 11940, Note_on_c, 7, 33, 90
9, 12000, Note_on_c, 7, 33, 0
9, 12000, Note_on_c, 7, 33, 111
9, 12040, Note_on_c, 7, 33, 0
9, 12060, Note_on_c, 7, 33, 91
9, 12110, Note_on_c, 7, 33, 0
9, 12120, Note_on_c, 7, 33, 111
9, 12180, Note_on_c, 7, 33, 0
9, 12180, Note_on_c, 7, 33, 108
9, 12230, Note_on_c, 7, 33, 0
9, 12300, Note_on_c, 7, 28, 89
9, 12360, Note_on_c, 7, 28, 0
9, 12360, Note_on_c, 7, 37, 89
9, 12420, Note_on_c, 7, 37, 0
9, 12420, Note_on_c, 7, 33, 88
9, 12480, Note_on_c, 7, 33, 0
9, 12480, Note_on_c, 7, 33, 89
9, 12520, Note_on_c, 7, 33, 0
9, 12540, Note_on_c, 7, 29, 91
9, 12600, Note_on_c, 7, 29, 0
9, 12600, Note_on_c, 7, 28, 108
9, 12660, Note_on_c, 7, 28, 0
9, 12660, Note_on_c, 7, 40, 108
9, 12700, Note_on_c, 7, 40, 0
9, 12780, Note_on_c, 7, 28, 90
9, 12840, Note_on_c, 7, 28, 0
9, 12840, Note_on_c, 7, 40, 90
9, 12900, Note_on_c, 7, 40, 0
9, 12900, Note_on_c, 7, 40, 88
9, 12960, Note_on_c, 7, 40, 0
9, 12960, Note_on_c, 7, 33, 108
9, 13000, Note_on_c, 7, 33, 0
9, 13020, Note_on_c, 7, 33, 88
9, 13070, Note_on_c, 7, 33, 0
9, 13080, Note_on_c, 7, 33, 109
9, 13140, Note_on_c, 7, 33, 0
9, 13140, Note_on_c, 7, 33, 108
9, 13190, Note_on_c, 7, 33, 0
9, 13260, Note_on_c, 7, 28, 91
9, 13317, Note_on_c, 7, 28, 0
9, 13320, Note_on_c, 7, 38, 91
9, 13380, Note_on_c, 7, 38, 0
9, 13380, Note_on_c, 7, 39, 91
9, 13440, Note_on_c, 7, 39, 0
9, 13440, Note_on_c, 7, 40, 90
9, 13480, Note_on_c, 7, 40, 0
9, 13500, Note_on_c, 7, 40, 90
9, 13550, Note_on_c, 7, 40, 0
9, 13560, Note_on_c, 7, 37, 111
9, 13617, Note_on_c, 7, 37, 0
9, 13620, Note_on_c, 7, 32, 91
9, 13680, Note_on_c, 7, 32, 0
9, 13680, Note_on_c, 7, 35, 111
9, 13720, Note_on_c, 7, 35, 0
9, 13740, Note_on_c, 7, 35, 90
9, 13800, Note_on_c, 7, 35, 0
9, 13800, Note_on_c, 7, 37, 88
9, 13860, Note_on_c, 7, 37, 0
9, 13860, Note_on_c, 7, 40, 89
9, 13920, Note_on_c, 7, 40, 0
9, 13920, Note_on_c, 7, 35, 111
9, 13980, Note_on_c, 7, 35, 0
9, 13980, Note_on_c, 7, 35, 108
9, 14040, Note_on_c, 7, 35, 0
9, 14040, Note_on_c, 7, 32, 109
9, 14100, Note_on_c, 7, 32, 0
9, 14100, Note_on_c, 7, 35, 109
9, 14210, Note_on_c, 7, 35, 0
9, 14280, Note_on_c, 7, 32, 91
9, 14337, Note_on_c, 7, 32, 0
9, 14340, Note_on_c, 7, 39, 91
9, 14400, Note_on_c, 7, 39, 0
9, 14400, Note_on_c, 7, 40, 89
9, 14430, Note_on_c, 7, 40, 0
9, 14460, Note_on_c, 7, 40, 90
9, 14510, Note_on_c, 7, 40, 0
9, 14520, Note_on_c, 7, 32, 89
9, 14580, Note_on_c, 7, 32, 0
9, 14580, Note_on_c, 7, 35, 110
9, 14630, Note_on_c, 7, 35, 0
9, 14700, Note_on_c, 7, 37, 91
9, 14760, Note_on_c, 7, 37, 0
9, 14760, Note_on_c, 7, 35, 91
9, 14820, Note_on_c, 7, 35, 0
9, 14820, Note_on_c, 7, 37, 89
9, 14880, Note_on_c, 7, 37, 0
9, 14880, Note_on_c, 7, 49, 110
9, 14930, Note_on_c, 7, 49, 0
9, 14940, Note_on_c, 7, 49, 91
9, 14990, Note_on_c, 7, 49, 0
9, 15000, Note_on_c, 7, 47, 111
9, 15057, Note_on_c, 7, 47, 0
9, 15060, Note_on_c, 7, 37, 89
9, 15120, Note_on_c, 7, 37, 0
9, 15120, Note_on_c, 7, 45, 111
9, 15170, Note_on_c, 7, 45, 0
9, 15180, Note_on_c, 7, 33, 89
9, 15240, Note_on_c, 7, 33, 0
9, 15240, Note_on_c, 7, 33, 89
9, 15300, Note_on_c, 7, 33, 0
9, 15300, Note_on_c, 7, 47, 91
9, 15360, Note_on_c, 7, 47, 0
9, 15360, Note_on_c, 7, 40, 90
9, 15410, Note_on_c, 7, 40, 0
9, 15420, Note_on_c, 7, 28, 91
9, 15480, Note_on_c, 7, 28, 0
9, 15480, Note_on_c, 7, 40, 110
9, 15520, Note_on_c, 7, 40, 0
9, 15540, Note_on_c, 7, 28, 91
9, 15600, Note_on_c, 7, 28, 0
9, 15600, Note_on_c, 7, 35, 109
9, 15650, Note_on_c, 7, 35, 0
9, 15660, Note_on_c, 7, 35, 88
9, 15720, Note_on_c, 7, 35, 0
9, 15720, Note_on_c, 7, 35, 89
9, 15780, Note_on_c, 7, 35, 0
9, 15780, Note_on_c, 7, 37, 88
9, 15840, Note_on_c, 7, 37, 0
9, 15840, Note_on_c, 7, 49, 108
9, 15897, Note_on_c, 7, 49, 0
9, 15900, Note_on_c, 7, 40, 91
9, 15960, Note_on_c, 7, 40, 0
9, 15960, Note_on_c, 7, 37, 88
9, 16020, Note_on_c, 7, 37, 0
9, 16020, Note_on_c, 7, 40, 110
9, 16080, Note_on_c, 7, 40, 0
9, 16080, Note_on_c, 7, 37, 110
9, 16130, Note_on_c, 7, 37, 0
9, 16140, Note_on_c, 7, 37, 88
9, 16200, Note_on_c, 7, 37, 0
9, 16200, Note_on_c, 7, 37, 89
9, 16260, Note_on_c, 7, 37, 0
9, 16260, Note_on_c, 7, 35, 88
9, 16320, Note_on_c, 7, 35, 0
9, 16320, Note_on_c, 7, 28, 91
9, 16360, Note_on_c, 7, 28, 0
9, 16380, Note_on_c, 7, 28, 89
9, 16440, Note_on_c, 7, 28, 0
9, 16440, Note_on_c, 7, 40, 108
9, 16480, Note_on_c, 7, 40, 0
9, 16500, Note_on_c, 7, 28, 91
9, 16560, Note_on_c, 7, 28, 0
9, 16560, Note_on_c, 7, 40, 111
9, 16610, Note_on_c, 7, 40, 0
9, 16620, Note_on_c, 7, 35, 91
9, 16680, Note_on_c, 7, 35, 0
9, 16680, Note_on_c, 7, 35, 90
9, 16740, Note_on_c, 7, 35, 0
9, 16740, Note_on_c, 7, 49, 91
9, 16800, Note_on_c, 7, 49, 0
9, 16800, Note_on_c, 7, 49, 110
9, 16850, Note_on_c, 7, 49, 0
9, 16860, Note_on_c, 7, 49, 88
9, 16910, Note_on_c, 7, 49, 0
9, 16920, Note_on_c, 7, 47, 108
9, 16980, Note_on_c, 7, 47, 0
9, 16980, Note_on_c, 7, 35, 108
9, 17040, Note_on_c, 7, 35, 0
9, 17040, Note_on_c, 7, 37, 111
9, 17090, Note_on_c, 7, 37, 0
9, 17100, Note_on_c, 7, 37, 88
9, 17157, Note_on_c, 7, 37, 0
9, 17160, Note_on_c, 7, 44, 90
9, 17220, Note_on_c, 7, 44, 0
9, 17220, Note_on_c, 7, 39, 91
9, 17280, Note_on_c, 7, 39, 0
9, 17280, Note_on_c, 7, 40, 89
9, 17330, Note_on_c, 7, 40, 0
9, 17340, Note_on_c, 7, 28, 88
9, 17400, Note_on_c, 7, 28, 0
9, 17400, Note_on_c, 7, 40, 111
9, 17440, Note_on_c, 7, 40, 0
9, 17460, Note_on_c, 7, 28, 90
9, 17520, Note_on_c, 7, 28, 0
9, 17520, Note_on_c, 7, 32, 89
9, 17580, Note_on_c, 7, 32, 0
9, 17580, Note_on_c, 7, 35, 89
9, 17640, Note_on_c, 7, 35, 0
9, 17640, Note_on_c, 7, 35, 91
9, 17700, Note_on_c, 7, 35, 0
9, 17700, Note_on_c, 7, 37, 88
9, 17760, Note_on_c, 7, 37, 0
9, 17760, Note_on_c, 7, 37, 108
9, 17817, Note_on_c, 7, 37, 0
9, 17820, Note_on_c, 7, 31, 90
9, 17880, Note_on_c, 7, 31, 0
9, 17880, Note_on_c, 7, 32, 88
9, 17940, Note_on_c, 7, 32, 0
9, 17940, Note_on_c, 7, 33, 111
9, 18000, Note_on_c, 7, 33, 0
9, 18000, Note_on_c, 7, 33, 110
9, 18060, Note_on_c, 7, 33, 0
9, 18060, Note_on_c, 7, 33, 108
9, 18117, Note_on_c, 7, 33, 0
9, 18120, Note_on_c, 7, 31, 90
9, 18180, Note_on_c, 7, 31, 0
9, 18180, Note_on_c, 7, 32, 89
9, 18240, Note_on_c, 7, 32, 0
9, 18240, Note_on_c, 7, 33, 90
9, 18270, Note_on_c, 7, 33, 0
9, 18300, Note_on_c, 7, 33, 89
9, 18350, Note_on_c, 7, 33, 0
9, 18360, Note_on_c, 7, 33, 110
9, 18417, Note_on_c, 7, 33, 0
9, 18420, Note_on_c, 7, 33, 108
9, 18470, Note_on_c, 7, 33, 0
9, 18480, Note_on_c, 7, 30, 91
9, 18540, Note_on_c, 7, 30, 0
9, 18540, Note_on_c, 7, 33, 90
9, 18600, Note_on_c, 7, 33, 0
9, 18600, Note_on_c, 7, 28, 91
9, 18660, Note_on_c, 7, 28, 0
9, 18660, Note_on_c, 7, 33, 90
9, 18720, Note_on_c, 7, 33, 0
9, 18720, Note_on_c, 7, 40, 110
9, 18760, Note_on_c, 7, 40, 0
9, 18780, Note_on_c, 7, 40, 89
9, 18830, Note_on_c, 7, 40, 0
9, 18840, Note_on_c, 7, 28, 109
9, 18910, Note_on_c, 7, 28, 0
9, 18960, Note_on_c, 7, 30, 89
9, 19020, Note_on_c, 7, 30, 0
9, 19020, Note_on_c, 7, 28, 90
9, 19080, Note_on_c, 7, 28, 0
9, 19080, Note_on_c, 7, 37, 89
9, 19140, Note_on_c, 7, 37, 0
9, 19140, Note_on_c, 7, 40, 91
9, 19200, Note_on_c, 7, 40, 0
9, 19200, Note_on_c, 7, 33, 91
9, 19240, Note_on_c, 7, 33, 0
9, 19260, Note_on_c, 7, 33, 89
9, 19310, Note_on_c, 7, 33, 0
9, 19320, Note_on_c, 7, 30, 108
9, 19390, Note_on_c, 7, 30, 0
9, 19440, Note_on_c, 7, 28, 108
9, 19480, Note_on_c, 7, 28, 0
9, 19500, Note_on_c, 7, 37, 88
9, 19560, Note_on_c, 7, 37, 0
9, 19560, Note_on_c, 7, 38, 91
9, 19620, Note_on_c, 7, 38, 0
9, 19620, Note_on_c, 7, 39, 90
9, 19680, Note_on_c, 7, 39, 0
9, 19680, Note_on_c, 7, 40, 108
9, 19730, Note_on_c, 7, 40, 0
9, 19740, Note_on_c, 7, 40, 88
9, 19790, Note_on_c, 7, 40, 0
9, 19800, Note_on_c, 7, 37, 111
9, 19880, Note_on_c, 7, 37, 0
9, 19920, Note_on_c, 7, 35, 108
9, 19970, Note_on_c, 7, 35, 0
9, 19980, Note_on_c, 7, 35, 89
9, 20040, Note_on_c, 7, 35, 0
9, 20040, Note_on_c, 7, 37, 88
9, 20100, Note_on_c, 7, 37, 0
9, 20100, Note_on_c, 7, 40, 89
9, 20160, Note_on_c, 7, 40, 0
9, 20160, Note_on_c, 7, 47, 88
9, 20210, Note_on_c, 7, 47, 0
9, 20220, Note_on_c, 7, 35, 89
9, 20280, Note_on_c, 7, 35, 0
9, 20280, Note_on_c, 7, 32, 108
9, 20320, Note_on_c, 7, 32, 0
9, 20340, Note_on_c, 7, 35, 90
9, 20400, Note_on_c, 7, 35, 0
9, 20400, Note_on_c, 7, 42, 109
9, 20450, Note_on_c, 7, 42, 0
9, 20460, Note_on_c, 7, 42, 90
9, 20517, Note_on_c, 7, 42, 0
9, 20520, Note_on_c, 7, 30, 89
9, 20580, Note_on_c, 7, 30, 0
9, 20580, Note_on_c, 7, 32, 91
9, 20640, Note_on_c, 7, 32, 0
9, 20640, Note_on_c, 7, 35, 108
9, 20750, Note_on_c, 7, 35, 0
9, 20760, Note_on_c, 7, 32, 110
9, 20840, Note_on_c, 7, 32, 0
9, 20880, Note_on_c, 7, 30, 108
9, 20997, Note_on_c, 7, 30, 0
9, 21000, Note_on_c, 7, 38, 91
9, 21060, Note_on_c, 7, 38, 0
9, 21060, Note_on_c, 7, 39, 89
9, 21120, Note_on_c, 7, 39, 0
9, 21120, Note_on_c, 7, 40, 89
9, 21150, Note_on_c, 7, 40, 0
9, 21180, Note_on_c, 7, 40, 91
9, 21230, Note_on_c, 7, 40, 0
9, 21240, Note_on_c, 7, 37, 110
9, 21297, Note_on_c, 7, 37, 0
9, 21300, Note_on_c, 7, 32, 91
9, 21360, Note_on_c, 7, 32, 0
9, 21360, Note_on_c, 7, 35, 108
9, 21410, Note_on_c, 7, 35, 0
9, 21420, Note_on_c, 7, 35, 90
9, 21480, Note_on_c, 7, 35, 0
9, 21480, Note_on_c, 7, 32, 88
9, 21540, Note_on_c, 7, 32, 0
9, 21540, Note_on_c, 7, 37, 90
9, 21600, Note_on_c, 7, 37, 0
9, 21600, Note_on_c, 7, 37, 110
9, 21640, Note_on_c, 7, 37, 0
9, 21660, Note_on_c, 7, 37, 89
9, 21710, Note_on_c, 7, 37, 0
9, 21720, Note_on_c, 7, 33, 108
9, 21780, Note_on_c, 7, 33, 0
9, 21780, Note_on_c, 7, 33, 109
9, 21830, Note_on_c, 7, 33, 0
9, 21900, Note_on_c, 7, 28, 89
9, 21960, Note_on_c, 7, 28, 0
9, 21960, Note_on_c, 7, 30, 91
9, 22020, Note_on_c, 7, 30, 0
9, 22020, Note_on_c, 7, 35, 88
9, 22080, Note_on_c, 7, 35, 0
9, 22080, Note_on_c, 7, 40, 91
9, 22120, Note_on_c, 7, 40, 0
9, 22140, Note_on_c, 7, 32, 89
9, 22200, Note_on_c, 7, 32, 0
9, 22200, Note_on_c, 7, 33, 91
9, 22260, Note_on_c, 7, 33, 0
9, 22260, Note_on_c, 7, 34, 90
9, 22320, Note_on_c, 7, 34, 0
9, 22320, Note_on_c, 7, 35, 110
9, 22360, Note_on_c, 7, 35, 0
9, 22380, Note_on_c, 7, 35, 88
9, 22440, Note_on_c, 7, 35, 0
9, 22440, Note_on_c, 7, 36, 91
9, 22500, Note_on_c, 7, 36, 0
9, 22500, Note_on_c, 7, 37, 89
9, 22560, Note_on_c, 7, 37, 0
9, 22560, Note_on_c, 7, 49, 111
9, 22670, Note_on_c, 7, 49, 0
9, 22680, Note_on_c, 7, 33, 108
9, 22740, Note_on_c, 7, 33, 0
9, 22740, Note_on_c, 7, 33, 110
9, 22797, Note_on_c, 7, 33, 0
9, 22800, Note_on_c, 7, 33, 89
9, 22860, Note_on_c, 7, 33, 0
9, 22860, Note_on_c, 7, 28, 89
9, 22920, Note_on_c, 7, 28, 0
9, 22920, Note_on_c, 7, 33, 89
9, 22980, Note_on_c, 7, 33, 0
9, 22980, Note_on_c, 7, 35, 88
9, 23040, Note_on_c, 7, 35, 0
9, 23040, Note_on_c, 7, 28, 89
9, 23080, Note_on_c, 7, 28, 0
9, 23100, Note_on_c, 7, 28, 89
9, 23160, Note_on_c, 7, 28, 0
9, 23160, Note_on_c, 7, 32, 110
9, 23200, Note_on_c, 7, 32, 0
9, 23220, Note_on_c, 7, 32, 89
9, 23280, Note_on_c, 7, 32, 0
9, 23280, Note_on_c, 7, 35, 110
9, 23330, Note_on_c, 7, 35, 0
9, 23340, Note_on_c, 7, 42, 91
9, 23400, Note_on_c, 7, 42, 0
9, 23400, Note_on_c, 7, 47, 89
9, 23460, Note_on_c, 7, 47, 0
9, 23460, Note_on_c, 7, 49, 90
9, 23520, Note_on_c, 7, 49, 0
9, 23520, Note_on_c, 7, 49, 111
9, 23577, Note_on_c, 7, 49, 0
9, 23580, Note_on_c, 7, 32, 91
9, 23640, Note_on_c, 7, 32, 0
9, 23640, Note_on_c, 7, 33, 110
9, 23720, Note_on_c, 7, 33, 0
9, 23760, Note_on_c, 7, 33, 111
9, 23817, Note_on_c, 7, 33, 0
9, 23820, Note_on_c, 7, 33, 88
9, 23880, Note_on_c, 7, 33, 0
9, 23880, Note_on_c, 7, 34, 89
9, 23940, Note_on_c, 7, 34, 0
9, 23940, Note_on_c, 7, 35, 88
9, 24000, Note_on_c, 7, 35, 0
9, 24000, Note_on_c, 7, 28, 90
9, 24040, Note_on_c, 7, 28, 0
9, 24060, Note_on_c, 7, 28, 91
9, 24117, Note_on_c, 7, 28, 0
9, 24120, Note_on_c, 7, 32, 88
9, 24180, Note_on_c, 7, 32, 0
9, 24180, Note_on_c, 7, 33, 89
9, 24240, Note_on_c, 7, 33, 0
9, 24240, Note_on_c, 7, 34, 88
9, 24300, Note_on_c, 7, 34, 0
9, 24300, Note_on_c, 7, 35, 91
9, 24360, Note_on_c, 7, 35, 0
9, 24360, Note_on_c, 7, 38, 88
9, 24420, Note_on_c, 7, 38, 0
9, 24420, Note_on_c, 7, 49, 89
9, 24480, Note_on_c, 7, 49, 0
9, 24480, Note_on_c, 7, 49, 109
9, 24530, Note_on_c, 7, 49, 0
9, 24540, Note_on_c, 7, 49, 89
9, 24590, Note_on_c, 7, 49, 0
9, 24600, Note_on_c, 7, 47, 108
9, 24657, Note_on_c, 7, 47, 0
9, 24660, Note_on_c, 7, 35, 89
9, 24720, Note_on_c, 7, 35, 0
9, 24720, Note_on_c, 7, 45, 110
9, 24770, Note_on_c, 7, 45, 0
9, 24780, Note_on_c, 7, 33, 90
9, 24840, Note_on_c, 7, 33, 0
9, 24840, Note_on_c, 7, 42, 90
9, 24900, Note_on_c, 7, 42, 0
9, 24900, Note_on_c, 7, 47, 90
9, 24960, Note_on_c, 7, 47, 0
9, 24960, Note_on_c, 7, 40, 88
9, 25010, Note_on_c, 7, 40, 0
9, 25020, Note_on_c, 7, 28, 91
9, 25077, Note_on_c, 7, 28, 0
9, 25080, Note_on_c, 7, 32, 89
9, 25140, Note_on_c, 7, 32, 0
9, 25140, Note_on_c, 7, 28, 88
9, 25200, Note_on_c, 7, 28, 0
9, 25200, Note_on_c, 7, 32, 88
9, 25260, Note_on_c, 7, 32, 0
9, 25260, Note_on_c, 7, 35, 88
9, 25320, Note_on_c, 7, 35, 0
9, 25320, Note_on_c, 7, 39, 89
9, 25380, Note_on_c, 7, 39, 0
9, 25380, Note_on_c, 7, 37, 91
9, 25437, Note_on_c, 7, 37, 0
9, 25440, Note_on_c, 7, 32, 90
9, 25500, Note_on_c, 7, 32, 0
9, 25500, Note_on_c, 7, 31, 89
9, 25560, Note_on_c, 7, 31, 0
9, 25560, Note_on_c, 7, 32, 88
9, 25620, Note_on_c, 7, 32, 0
9, 25620, Note_on_c, 7, 33, 110
9, 25677, Note_on_c, 7, 33, 0
9, 25680, Note_on_c, 7, 33, 110
9, 25730, Note_on_c, 7, 33, 0
9, 25740, Note_on_c, 7, 30, 90
9, 25800, Note_on_c, 7, 30, 0
9, 25800, Note_on_c, 7, 33, 89
9, 25860, Note_on_c, 7, 33, 0
9, 25860, Note_on_c, 7, 35, 89
9, 25920, Note_on_c, 7, 35, 0
9, 25920, Note_on_c, 7, 28, 90
9, 25960, Note_on_c, 7, 28, 0
9, 25980, Note_on_c, 7, 28, 88
9, 26040, Note_on_c, 7, 28, 0
9, 26040, Note_on_c, 7, 32, 109
9, 26080, Note_on_c, 7, 32, 0
9, 26100, Note_on_c, 7, 28, 91
9, 26160, Note_on_c, 7, 28, 0
9, 26160, Note_on_c, 7, 32, 88
9, 26220, Note_on_c, 7, 32, 0
9, 26220, Note_on_c, 7, 35, 91
9, 26277, Note_on_c, 7, 35, 0
9, 26280, Note_on_c, 7, 38, 88
9, 26340, Note_on_c, 7, 38, 0
9, 26340, Note_on_c, 7, 49, 90
9, 26397, Note_on_c, 7, 49, 0
9, 26400, Note_on_c, 7, 32, 90
9, 26460, Note_on_c, 7, 32, 0
9, 26460, Note_on_c, 7, 30, 88
9, 26520, Note_on_c, 7, 30, 0
9, 26520, Note_on_c, 7, 32, 88
9, 26580, Note_on_c, 7, 32, 0
9, 26580, Note_on_c, 7, 33, 109
9, 26640, Note_on_c, 7, 33, 0
9, 26640, Note_on_c, 7, 33, 108
9, 26690, Note_on_c, 7, 33, 0
9, 26700, Note_on_c, 7, 28, 89
9, 26760, Note_on_c, 7, 28, 0
9, 26760, Note_on_c, 7, 30, 88
9, 26820, Note_on_c, 7, 30, 0
9, 26820, Note_on_c, 7, 35, 89
9, 26880, Note_on_c, 7, 35, 0
9, 26880, Note_on_c, 7, 40, 90
9, 26920, Note_on_c, 7, 40, 0
9, 26940, Note_on_c, 7, 40, 88
9, 26990, Note_on_c, 7, 40, 0
9, 27000, Note_on_c, 7, 37, 111
9, 27057, Note_on_c, 7, 37, 0
9, 27060, Note_on_c, 7, 28, 90
9, 27120, Note_on_c, 7, 28, 0
9, 27120, Note_on_c, 7, 32, 89
9, 27180, Note_on_c, 7, 32, 0
9, 27180, Note_on_c, 7, 35, 90
9, 27240, Note_on_c, 7, 35, 0
9, 27240, Note_on_c, 7, 30, 88
9, 27300, Note_on_c, 7, 30, 0
9, 27300, Note_on_c, 7, 35, 89
9, 27360, Note_on_c, 7, 35, 0
9, 27360, Note_on_c, 7, 37, 111
9, 27417, Note_on_c, 7, 37, 0
9, 27420, Note_on_c, 7, 31, 89
9, 27480, Note_on_c, 7, 31, 0
9, 27480, Note_on_c, 7, 32, 89
9, 27540, Note_on_c, 7, 32, 0
9, 27540, Note_on_c, 7, 33, 109
9, 27600, Note_on_c, 7, 33, 0
9, 27600, Note_on_c, 7, 33, 108
9, 27710, Note_on_c, 7, 33, 0
9, 27720, Note_on_c, 7, 30, 90
9, 27780, Note_on_c, 7, 30, 0
9, 27780, Note_on_c, 7, 35, 90
9, 27840, Note_on_c, 7, 35, 0
9, 27840, Note_on_c, 7, 40, 91
9, 27870, Note_on_c, 7, 40, 0
9, 27900, Note_on_c, 7, 40, 91
9, 27950, Note_on_c, 7, 40, 0
9, 27960, Note_on_c, 7, 37, 110
9, 28020, Note_on_c, 7, 37, 0
9, 28020, Note_on_c, 7, 35, 110
9, 28070, Note_on_c, 7, 35, 0
9, 28140, Note_on_c, 7, 30, 90
9, 28200, Note_on_c, 7, 30, 0
9, 28200, Note_on_c, 7, 32, 89
9, 28260, Note_on_c, 7, 32, 0
9, 28260, Note_on_c, 7, 37, 91
9, 28317, Note_on_c, 7, 37, 0
9, 28320, Note_on_c, 7, 31, 89
9, 28380, Note_on_c, 7, 31, 0
9, 28380, Note_on_c, 7, 32, 88
9, 28440, Note_on_c, 7, 32, 0
9, 28440, Note_on_c, 7, 33, 108
9, 28520, Note_on_c, 7, 33, 0
9, 28560, Note_on_c, 7, 33, 109
9, 28617, Note_on_c, 7, 33, 0
9, 28620, Note_on_c, 7, 33, 89
9, 28680, Note_on_c, 7, 33, 0
9, 28680, Note_on_c, 7, 34, 89
9, 28740, Note_on_c, 7, 34, 0
9, 28740, Note_on_c, 7, 35, 88
9, 28800, Note_on_c, 7, 35, 0
9, 28800, Note_on_c, 7, 28, 89
9, 28840, Note_on_c, 7, 28, 0
9, 28860, Note_on_c, 7, 32, 88
9, 28920, Note_on_c, 7, 32, 0
9, 28920, Note_on_c, 7, 35, 91
9, 28980, Note_on_c, 7, 35, 0
9, 28980, Note_on_c, 7, 32, 89
9, 29040, Note_on_c, 7, 32, 0
9, 29040, Note_on_c, 7, 35, 108
9, 29097, Note_on_c, 7, 35, 0
9, 29100, Note_on_c, 7, 35, 88
9, 29160, Note_on_c, 7, 35, 0
9, 29160, Note_on_c, 7, 39, 88
9, 29220, Note_on_c, 7, 39, 0
9, 29220, Note_on_c, 7, 49, 90
9, 29280, Note_on_c, 7, 49, 0
9, 29280, Note_on_c, 7, 49, 111
9, 29390, Note_on_c, 7, 49, 0
9, 29400, Note_on_c, 7, 47, 109
9, 29460, Note_on_c, 7, 47, 0
9, 29460, Note_on_c, 7, 45, 111
9, 29517, Note_on_c, 7, 45, 0
9, 29520, Note_on_c, 7, 33, 108
9, 29570, Note_on_c, 7, 33, 0
9, 29580, Note_on_c, 7, 33, 89
9, 29640, Note_on_c, 7, 33, 0
9, 29640, Note_on_c, 7, 34, 91
9, 29700, Note_on_c, 7, 34, 0
9, 29700, Note_on_c, 7, 35, 91
9, 29760, Note_on_c, 7, 35, 0
9, 29760, Note_on_c, 7, 28, 88
9, 29800, Note_on_c, 7, 28, 0
9, 29820, Note_on_c, 7, 28, 89
9, 29880, Note_on_c, 7, 28, 0
9, 29880, Note_on_c, 7, 32, 109
9, 29920, Note_on_c, 7, 32, 0
9, 29940, Note_on_c, 7, 32, 89
9, 30000, Note_on_c, 7, 32, 0
9, 30000, Note_on_c, 7, 35, 110
9, 30050, Note_on_c, 7, 35, 0
9, 30060, Note_on_c, 7, 35, 90
9, 30117, Note_on_c, 7, 35, 0
9, 30120, Note_on_c, 7, 37, 89
9, 30180, Note_on_c, 7, 37, 0
9, 30180, Note_on_c, 7, 39, 88
9, 30240, Note_on_c, 7, 39, 0
9, 30240, Note_on_c, 7, 49, 108
9, 30290, Note_on_c, 7, 49, 0
9, 30300, Note_on_c, 7, 49, 91
9, 30350, Note_on_c, 7, 49, 0
9, 30360, Note_on_c, 7, 47, 109
9, 30420, Note_on_c, 7, 47, 0
9, 30420, Note_on_c, 7, 45, 111
9, 30480, Note_on_c, 7, 45, 0
9, 30480, Note_on_c, 7, 33, 108
9, 30530, Note_on_c, 7, 33, 0
9, 30540, Note_on_c, 7, 40, 90
9, 30600, Note_on_c, 7, 40, 0
9, 30600, Note_on_c, 7, 42, 88
9, 30660, Note_on_c, 7, 42, 0
9, 30660, Note_on_c, 7, 47, 88
9, 30720, Note_on_c, 7, 47, 0
9, 30720, Note_on_c, 7, 40, 91
9, 30770, Note_on_c, 7, 40, 0
9, 30780, Note_on_c, 7, 28, 91
9, 30840, Note_on_c, 7, 28, 0
9, 30840, Note_on_c, 7, 32, 108
9, 30880, Note_on_c, 7, 32, 0
9, 30900, Note_on_c, 7, 33, 89
9, 30960, Note_on_c, 7, 33, 0
9, 30960, Note_on_c, 7, 34, 90
9, 31020, Note_on_c, 7, 34, 0
9, 31020, Note_on_c, 7, 35, 91
9, 31080, Note_on_c, 7, 35, 0
9, 31080, Note_on_c, 7, 35, 89
9, 31140, Note_on_c, 7, 35, 0
9, 31140, Note_on_c, 7, 37, 90
9, 31200, Note_on_c, 7, 37, 0
9, 31200, Note_on_c, 7, 49, 110
9, 31257, Note_on_c, 7, 49, 0
9, 31260, Note_on_c, 7, 37, 90
9, 31320, Note_on_c, 7, 37, 0
9, 31320, Note_on_c, 7, 32, 88
9, 31380, Note_on_c, 7, 32, 0
9, 31380, Note_on_c, 7, 33, 110
9, 31440, Note_on_c, 7, 33, 0
9, 31440, Note_on_c, 7, 33, 110
9, 31490, Note_on_c, 7, 33, 0
9, 31500, Note_on_c, 7, 40, 88
9, 31560, Note_on_c, 7, 40, 0
9, 31560, Note_on_c, 7, 42, 89
9, 31620, Note_on_c, 7, 42, 0
9, 31620, Note_on_c, 7, 35, 89
9, 31680, Note_on_c, 7, 35, 0
9, 31680, Note_on_c, 7, 28, 88
9, 31720, Note_on_c, 7, 28, 0
9, 31740, Note_on_c, 7, 28, 91
9, 31800, Note_on_c, 7, 28, 0
9, 31800, Note_on_c, 7, 32, 108
9, 31840, Note_on_c, 7, 32, 0
9, 31860, Note_on_c, 7, 32, 88
9, 31917, Note_on_c, 7, 32, 0
9, 31920, Note_on_c, 7, 32, 90
9, 31980, Note_on_c, 7, 32, 0
9, 31980, Note_on_c, 7, 35, 89
9, 32037, Note_on_c, 7, 35, 0
9, 32040, Note_on_c, 7, 39, 90
9, 32100, Note_on_c, 7, 39, 0
9, 32100, Note_on_c, 7, 49, 91
9, 32157, Note_on_c, 7, 49, 0
9, 32160, Note_on_c, 7, 32, 91
9, 32220, Note_on_c, 7, 32, 0
9, 32220, Note_on_c, 7, 31, 89
9, 32280, Note_on_c, 7, 31, 0
9, 32280, Note_on_c, 7, 32, 89
9, 32340, Note_on_c, 7, 32, 0
9, 32340, Note_on_c, 7, 33, 108
9, 32400, Note_on_c, 7, 33, 0
9, 32400, Note_on_c, 7, 33, 111
9, 32450, Note_on_c, 7, 33, 0
9, 32460, Note_on_c, 7, 40, 90
9, 32520, Note_on_c, 7, 40, 0
9, 32520, Note_on_c, 7, 42, 90
9, 32580, Note_on_c, 7, 42, 0
9, 32580, Note_on_c, 7, 47, 90
9, 32640, Note_on_c, 7, 47, 0
9, 32640, Note_on_c, 7, 40, 91
9, 32690, Note_on_c, 7, 40, 0
9, 32700, Note_on_c, 7, 28, 91
9, 32760, Note_on_c, 7, 28, 0
9, 32760, Note_on_c, 7, 32, 109
9, 32800, Note_on_c, 7, 32, 0
9, 32820, Note_on_c, 7, 32, 91
9, 32880, Note_on_c, 7, 32, 0
9, 32880, Note_on_c, 7, 35, 111
9, 32937, Note_on_c, 7, 35, 0
9, 32940, Note_on_c, 7, 39, 91
9, 33000, Note_on_c, 7, 39, 0
9, 33000, Note_on_c, 7, 35, 90
9, 33060, Note_on_c, 7, 35, 0
9, 33060, Note_on_c, 7, 37, 91
9, 33120, Note_on_c, 7, 37, 0
9, 33120, Note_on_c, 7, 49, 111
9, 33177, Note_on_c, 7, 49, 0
9, 33180, Note_on_c, 7, 31, 90
9, 33240, Note_on_c, 7, 31, 0
9, 33240, Note_on_c, 7, 32, 90
9, 33300, Note_on_c, 7, 32, 0
9, 33300, Note_on_c, 7, 33, 108
9, 33357, Note_on_c, 7, 33, 0
9, 33360, Note_on_c, 7, 33, 110
9, 33410, Note_on_c, 7, 33, 0
9, 33420, Note_on_c, 7, 40, 88
9, 33480, Note_on_c, 7, 40, 0
9, 33480, Note_on_c, 7, 37, 89
9, 33540, Note_on_c, 7, 37, 0
9, 33540, Note_on_c, 7, 40, 89
9, 33600, Note_on_c, 7, 40, 0
9, 33600, Note_on_c, 7, 40, 89
9, 33657, Note_on_c, 7, 40, 0
9, 33660, Note_on_c, 7, 40, 89
9, 33720, Note_on_c, 7, 40, 0
9, 33720, Note_on_c, 7, 35, 90
9, 33780, Note_on_c, 7, 35, 0
9, 33780, Note_on_c, 7, 32, 91
9, 33840, Note_on_c, 7, 32, 0
9, 33840, Note_on_c, 7, 35, 111
9, 33890, Note_on_c, 7, 35, 0
9, 33900, Note_on_c, 7, 42, 88
9, 33960, Note_on_c, 7, 42, 0
9, 33960, Note_on_c, 7, 40, 89
9, 34020, Note_on_c, 7, 40, 0
9, 34020, Note_on_c, 7, 37, 90
9, 34077, Note_on_c, 7, 37, 0
9, 34080, Note_on_c, 7, 32, 91
9, 34140, Note_on_c, 7, 32, 0
9, 34140, Note_on_c, 7, 30, 88
9, 34200, Note_on_c, 7, 30, 0
9, 34200, Note_on_c, 7, 32, 89
9, 34260, Note_on_c, 7, 32, 0
9, 34260, Note_on_c, 7, 33, 108
9, 34320, Note_on_c, 7, 33, 0
9, 34320, Note_on_c, 7, 33, 111
9, 34370, Note_on_c, 7, 33, 0
9, 34380, Note_on_c, 7, 28, 89
9, 34440, Note_on_c, 7, 28, 0
9, 34440, Note_on_c, 7, 30, 91
9, 34500, Note_on_c, 7, 30, 0
9, 34500, Note_on_c, 7, 40, 88
9, 34560, Note_on_c, 7, 40, 0
9, 34560, Note_on_c, 7, 40, 90
9, 34600, Note_on_c, 7, 40, 0
9, 34620, Note_on_c, 7, 40, 90
9, 34670, Note_on_c, 7, 40, 0
9, 34680, Note_on_c, 7, 37, 108
9, 34737, Note_on_c, 7, 37, 0
9, 34740, Note_on_c, 7, 34, 90
9, 34800, Note_on_c, 7, 34, 0
9, 34800, Note_on_c, 7, 35, 109
9, 34840, Note_on_c, 7, 35, 0
9, 34860, Note_on_c, 7, 30, 90
9, 34917, Note_on_c, 7, 30, 0
9, 34920, Note_on_c, 7, 35, 89
9, 34980, Note_on_c, 7, 35, 0
9, 34980, Note_on_c, 7, 37, 91
9, 35040, Note_on_c, 7, 37, 0
9, 35040, Note_on_c, 7, 49, 109
9, 35090, Note_on_c, 7, 49, 0
9, 35100, Note_on_c, 7, 49, 90
9, 35157, Note_on_c, 7, 49, 0
9, 35160, Note_on_c, 7, 32, 88
9, 35220, Note_on_c, 7, 32, 0
9, 35220, Note_on_c, 7, 33, 111
9, 35280, Note_on_c, 7, 33, 0
9, 35280, Note_on_c, 7, 33, 110
9, 35330, Note_on_c, 7, 33, 0
9, 35340, Note_on_c, 7, 40, 88
9, 35397, Note_on_c, 7, 40, 0
9, 35400, Note_on_c, 7, 39, 88
9, 35460, Note_on_c, 7, 39, 0
9, 35460, Note_on_c, 7, 40, 88
9, 35520, Note_on_c, 7, 40, 0
9, 35520, Note_on_c, 7, 40, 88
9, 35570, Note_on_c, 7, 40, 0
9, 35580, Note_on_c, 7, 28, 90
9, 35637, Note_on_c, 7, 28, 0
9, 35640, Note_on_c, 7, 35, 89
9, 35700, Note_on_c, 7, 35, 0
9, 35700, Note_on_c, 7, 33, 88
9, 35760, Note_on_c, 7, 33, 0
9, 35760, Note_on_c, 7, 34, 89
9, 35820, Note_on_c, 7, 34, 0
9, 35820, Note_on_c, 7, 35, 89
9, 35880, Note_on_c, 7, 35, 0
9, 35880, Note_on_c, 7, 39, 88
9, 35940, Note_on_c, 7, 39, 0
9, 35940, Note_on_c, 7, 37, 91
9, 36000, Note_on_c, 7, 37, 0
9, 36000, Note_on_c, 7, 37, 109
9, 36117, Note_on_c, 7, 37, 0
9, 36120, Note_on_c, 7, 32, 91
9, 36180, Note_on_c, 7, 32, 0
9, 36180, Note_on_c, 7, 33, 109
9, 36240, Note_on_c, 7, 33, 0
9, 36240, Note_on_c, 7, 33, 111
9, 36350, Note_on_c, 7, 33, 0
9, 36360, Note_on_c, 7, 30, 89
9, 36420, Note_on_c, 7, 30, 0
9, 36420, Note_on_c, 7, 35, 89
9, 36480, Note_on_c, 7, 35, 0
9, 36480, Note_on_c, 7, 40, 89
9, 36510, Note_on_c, 7, 40, 0
9, 36540, Note_on_c, 7, 40, 88
9, 36590, Note_on_c, 7, 40, 0
9, 36600, Note_on_c, 7, 37, 108
9, 36657, Note_on_c, 7, 37, 0
9, 36660, Note_on_c, 7, 34, 90
9, 36720, Note_on_c, 7, 34, 0
9, 36720, Note_on_c, 7, 35, 111
9, 36777, Note_on_c, 7, 35, 0
9, 36780, Note_on_c, 7, 37, 88
9, 36840, Note_on_c, 7, 37, 0
9, 36840, Note_on_c, 7, 39, 88
9, 36900, Note_on_c, 7, 39, 0
9, 36900, Note_on_c, 7, 38, 88
9, 36960, Note_on_c, 7, 38, 0
9, 36960, Note_on_c, 7, 49, 110
9, 37070, Note_on_c, 7, 49, 0
9, 37080, Note_on_c, 7, 47, 108
9, 37140, Note_on_c, 7, 47, 0
9, 37140, Note_on_c, 7, 45, 111
9, 37200, Note_on_c, 7, 45, 0
9, 37200, Note_on_c, 7, 33, 111
9, 37250, Note_on_c, 7, 33, 0
9, 37260, Note_on_c, 7, 40, 88
9, 37317, Note_on_c, 7, 40, 0
9, 37320, Note_on_c, 7, 33, 88
9, 37380, Note_on_c, 7, 33, 0
9, 37380, Note_on_c, 7, 35, 90
9, 37440, Note_on_c, 7, 35, 0
9, 37440, Note_on_c, 7, 28, 88
9, 37480, Note_on_c, 7, 28, 0
9, 37500, Note_on_c, 7, 28, 89
9, 37560, Note_on_c, 7, 28, 0
9, 37560, Note_on_c, 7, 32, 111
9, 37600, Note_on_c, 7, 32, 0
9, 37620, Note_on_c, 7, 32, 91
9, 37680, Note_on_c, 7, 32, 0
9, 37680, Note_on_c, 7, 35, 110
9, 37730, Note_on_c, 7, 35, 0
9, 37740, Note_on_c, 7, 42, 89
9, 37800, Note_on_c, 7, 42, 0
9, 37800, Note_on_c, 7, 44, 91
9, 37860, Note_on_c, 7, 44, 0
9, 37860, Note_on_c, 7, 49, 88
9, 37920, Note_on_c, 7, 49, 0
9, 37920, Note_on_c, 7, 49, 109
9, 37970, Note_on_c, 7, 49, 0
9, 37980, Note_on_c, 7, 49, 91
9, 38030, Note_on_c, 7, 49, 0
9, 38040, Note_on_c, 7, 47, 110
9, 38100, Note_on_c, 7, 47, 0
9, 38100, Note_on_c, 7, 45, 109
9, 38160, Note_on_c, 7, 45, 0
9, 38160, Note_on_c, 7, 33, 111
9, 38210, Note_on_c, 7, 33, 0
9, 38220, Note_on_c, 7, 40, 88
9, 38277, Note_on_c, 7, 40, 0
9, 38280, Note_on_c, 7, 36, 88
9, 38340, Note_on_c, 7, 36, 0
9, 38340, Note_on_c, 7, 47, 90
9, 38400, Note_on_c, 7, 47, 0
9, 38400, Note_on_c, 7, 40, 90
9, 38450, Note_on_c, 7, 40, 0
9, 38460, Note_on_c, 7, 28, 91
9, 38517, Note_on_c, 7, 28, 0
9, 38520, Note_on_c, 7, 28, 90
9, 38580, Note_on_c, 7, 28, 0
9, 38580, Note_on_c, 7, 30, 89
9, 38640, Note_on_c, 7, 30, 0
9, 38640, Note_on_c, 7, 32, 88
9, 38700, Note_on_c, 7, 32, 0
9, 38700, Note_on_c, 7, 35, 90
9, 38760, Note_on_c, 7, 35, 0
9, 38760, Note_on_c, 7, 39, 90
9, 38820, Note_on_c, 7, 39, 0
9, 38820, Note_on_c, 7, 37, 91
9, 38877, Note_on_c, 7, 37, 0
9, 38880, Note_on_c, 7, 49, 109
9, 38937, Note_on_c, 7, 49, 0
9, 38940, Note_on_c, 7, 36, 91
9, 39000, Note_on_c, 7, 36, 0
9, 39000, Note_on_c, 7, 47, 109
9, 39060, Note_on_c, 7, 47, 0
9, 39060, Note_on_c, 7, 33, 111
9, 39120, Note_on_c, 7, 33, 0
9, 39120, Note_on_c, 7, 33, 108
9, 39170, Note_on_c, 7, 33, 0
9, 39180, Note_on_c, 7, 40, 89
9, 39237, Note_on_c, 7, 40, 0
9, 39240, Note_on_c, 7, 33, 91
9, 39300, Note_on_c, 7, 33, 0
9, 39300, Note_on_c, 7, 35, 91
9, 39360, Note_on_c, 7, 35, 0
9, 39360, Note_on_c, 7, 28, 88
9, 39400, Note_on_c, 7, 28, 0
9, 39420, Note_on_c, 7, 28, 90
9, 39480, Note_on_c, 7, 28, 0
9, 39480, Note_on_c, 7, 32, 110
9, 39520, Note_on_c, 7, 32, 0
9, 39540, Note_on_c, 7, 32, 88
9, 39600, Note_on_c, 7, 32, 0
9, 39600, Note_on_c, 7, 35, 110
9, 39650, Note_on_c, 7, 35, 0
9, 39660, Note_on_c, 7, 35, 90
9, 39717, Note_on_c, 7, 35, 0
9, 39720, Note_on_c, 7, 39, 91
9, 39780, Note_on_c, 7, 39, 0
9, 39780, Note_on_c, 7, 49, 90
9, 39840, Note_on_c, 7, 49, 0
9, 39840, Note_on_c, 7, 30, 89
9, 39900, Note_on_c, 7, 30, 0
9, 39900, Note_on_c, 7, 32, 90
9, 39960, Note_on_c, 7, 32, 0
9, 39960, Note_on_c, 7, 33, 111
9, 40017, Note_on_c, 7, 33, 0
9, 40020, Note_on_c, 7, 30, 90
9, 40080, Note_on_c, 7, 30, 0
9, 40080, Note_on_c, 7, 33, 110
9, 40190, Note_on_c, 7, 33, 0
9, 40200, Note_on_c, 7, 30, 88
9, 40260, Note_on_c, 7, 30, 0
9, 40260, Note_on_c, 7, 35, 91
9, 40320, Note_on_c, 7, 35, 0
9, 40320, Note_on_c, 7, 40, 91
9, 40350, Note_on_c, 7, 40, 0
9, 40380, Note_on_c, 7, 40, 91
9, 40430, Note_on_c, 7, 40, 0
9, 40440, Note_on_c, 7, 37, 109
9, 40520, Note_on_c, 7, 37, 0
9, 40560, Note_on_c, 7, 35, 111
9, 40610, Note_on_c, 7, 35, 0
9, 40620, Note_on_c, 7, 35, 90
9, 40677, Note_on_c, 7, 35, 0
9, 40680, Note_on_c, 7, 36, 89
9, 40740, Note_on_c, 7, 36, 0
9, 40740, Note_on_c, 7, 37, 89
9, 40797, Note_on_c, 7, 37, 0
9, 40800, Note_on_c, 7, 37, 90
9, 40860, Note_on_c, 7, 37, 0
9, 40860, Note_on_c, 7, 40, 88
9, 40920, Note_on_c, 7, 40, 0
9, 40920, Note_on_c, 7, 37, 89
9, 40980, Note_on_c, 7, 37, 0
9, 40980, Note_on_c, 7, 45, 111
9, 41040, Note_on_c, 7, 45, 0
9, 41040, Note_on_c, 7, 33, 109
9, 41090, Note_on_c, 7, 33, 0
9, 41100, Note_on_c, 7, 40, 89
9, 41160, Note_on_c, 7, 40, 0
9, 41160, Note_on_c, 7, 42, 90
9, 41220, Note_on_c, 7, 42, 0
9, 41220, Note_on_c, 7, 47, 91
9, 41280, Note_on_c, 7, 47, 0
9, 41280, Note_on_c, 7, 40, 88
9, 41330, Note_on_c, 7, 40, 0
9, 41340, Note_on_c, 7, 28, 90
9, 41400, Note_on_c, 7, 28, 0
9, 41400, Note_on_c, 7, 32, 108
9, 41440, Note_on_c, 7, 32, 0
9, 41460, Note_on_c, 7, 35, 91
9, 41520, Note_on_c, 7, 35, 0
9, 41520, Note_on_c, 7, 32, 88
9, 41580, Note_on_c, 7, 32, 0
9, 41580, Note_on_c, 7, 35, 88
9, 41640, Note_on_c, 7, 35, 0
9, 41640, Note_on_c, 7, 39, 90
9, 41700, Note_on_c, 7, 39, 0
9, 41700, Note_on_c, 7, 37, 89
9, 41757, Note_on_c, 7, 37, 0
9, 41760, Note_on_c, 7, 28, 88
9, 41820, Note_on_c, 7, 28, 0
9, 41820, Note_on_c, 7, 30, 91
9, 41880, Note_on_c, 7, 30, 0
9, 41880, Note_on_c, 7, 32, 91
9, 41940, Note_on_c, 7, 32, 0
9, 41940, Note_on_c, 7, 33, 111
9, 42000, Note_on_c, 7, 33, 0
9, 42000, Note_on_c, 7, 33, 111
9, 42117, Note_on_c, 7, 33, 0
9, 42120, Note_on_c, 7, 34, 88
9, 42180, Note_on_c, 7, 34, 0
9, 42180, Note_on_c, 7, 35, 89
9, 42240, Note_on_c, 7, 35, 0
9, 42240, Note_on_c, 7, 40, 91
9, 42270, Note_on_c, 7, 40, 0
9, 42300, Note_on_c, 7, 40, 89
9, 42357, Note_on_c, 7, 40, 0
9, 42360, Note_on_c, 7, 32, 90
9, 42420, Note_on_c, 7, 32, 0
9, 42420, Note_on_c, 7, 33, 89
9, 42480, Note_on_c, 7, 33, 0
9, 42480, Note_on_c, 7, 34, 88
9, 42540, Note_on_c, 7, 34, 0
9, 42540, Note_on_c, 7, 35, 90
9, 42597, Note_on_c, 7, 35, 0
9, 42600, Note_on_c, 7, 35, 90
9, 42660, Note_on_c, 7, 35, 0
9, 42660, Note_on_c, 7, 37, 90
9, 42717, Note_on_c, 7, 37, 0
9, 42720, Note_on_c, 7, 49, 110
9, 42777, Note_on_c, 7, 49, 0
9, 42780, Note_on_c, 7, 36, 91
9, 42840, Note_on_c, 7, 36, 0
9, 42840, Note_on_c, 7, 32, 88
9, 42900, Note_on_c, 7, 32, 0
9, 42900, Note_on_c, 7, 33, 108
9, 42957, Note_on_c, 7, 33, 0
9, 42960, Note_on_c, 7, 33, 111
9, 43010, Note_on_c, 7, 33, 0
9, 43020, Note_on_c, 7, 37, 91
9, 43080, Note_on_c, 7, 37, 0
9, 43080, Note_on_c, 7, 33, 91
9, 43140, Note_on_c, 7, 33, 0
9, 43140, Note_on_c, 7, 35, 89
9, 43200, Note_on_c, 7, 35, 0
9, 43200, Note_on_c, 7, 28, 89
9, 43240, Note_on_c, 7, 28, 0
9, 43260, Note_on_c, 7, 28, 89
9, 43320, Note_on_c, 7, 28, 0
9, 43320, Note_on_c, 7, 32, 109
9, 43360, Note_on_c, 7, 32, 0
9, 43380, Note_on_c, 7, 32, 90
9, 43440, Note_on_c, 7, 32, 0
9, 43440, Note_on_c, 7, 35, 108
9, 43490, Note_on_c, 7, 35, 0
9, 43500, Note_on_c, 7, 42, 90
9, 43560, Note_on_c, 7, 42, 0
9, 43560, Note_on_c, 7, 44, 90
9, 43620, Note_on_c, 7, 44, 0
9, 43620, Note_on_c, 7, 49, 90
9, 43680, Note_on_c, 7, 49, 0
9, 43680, Note_on_c, 7, 49, 110
9, 43730, Note_on_c, 7, 49, 0
9, 43740, Note_on_c, 7, 49, 88
9, 43797, Note_on_c, 7, 49, 0
9, 43800, Note_on_c, 7, 32, 88
9, 43860, Note_on_c, 7, 32, 0
9, 43860, Note_on_c, 7, 33, 108
9, 43920, Note_on_c, 7, 33, 0
9, 43920, Note_on_c, 7, 33, 111
9, 43970, Note_on_c, 7, 33, 0
9, 43980, Note_on_c, 7, 40, 88
9, 44040, Note_on_c, 7, 40, 0
9, 44040, Note_on_c, 7, 42, 89
9, 44100, Note_on_c, 7, 42, 0
9, 44100, Note_on_c, 7, 47, 88
9, 44160, Note_on_c, 7, 47, 0
9, 44160, Note_on_c, 7, 40, 91
9, 44210, Note_on_c, 7, 40, 0
9, 44220, Note_on_c, 7, 28, 91
9, 44280, Note_on_c, 7, 28, 0
9, 44280, Note_on_c, 7, 32, 111
9, 44320, Note_on_c, 7, 32, 0
9, 44340, Note_on_c, 7, 32, 91
9, 44397, Note_on_c, 7, 32, 0
9, 44400, Note_on_c, 7, 34, 89
9, 44460, Note_on_c, 7, 34, 0
9, 44460, Note_on_c, 7, 35, 88
9, 44520, Note_on_c, 7, 35, 0
9, 44520, Note_on_c, 7, 36, 89
9, 44580, Note_on_c, 7, 36, 0
9, 44580, Note_on_c, 7, 37, 91
9, 44640, Note_on_c, 7, 37, 0
9, 44640, Note_on_c, 7, 37, 111
9, 44697, Note_on_c, 7, 37, 0
9, 44700, Note_on_c, 7, 35, 89
9, 44760, Note_on_c, 7, 35, 0
9, 44760, Note_on_c, 7, 32, 91
9, 44820, Note_on_c, 7, 32, 0
9, 44820, Note_on_c, 7, 33, 109
9, 44880, Note_on_c, 7, 33, 0
9, 44880, Note_on_c, 7, 33, 108
9, 44997, Note_on_c, 7, 33, 0
9, 45000, Note_on_c, 7, 34, 88
9, 45060, Note_on_c, 7, 34, 0
9, 45060, Note_on_c, 7, 35, 90
9, 45120, Note_on_c, 7, 35, 0
9, 45120, Note_on_c, 7, 40, 89
9, 45150, Note_on_c, 7, 40, 0
9, 45180, Note_on_c, 7, 40, 90
9, 45230, Note_on_c, 7, 40, 0
9, 45240, Note_on_c, 7, 37, 109
9, 45297, Note_on_c, 7, 37, 0
9, 45300, Note_on_c, 7, 28, 88
9, 45360, Note_on_c, 7, 28, 0
9, 45360, Note_on_c, 7, 32, 90
9, 45420, Note_on_c, 7, 32, 0
9, 45420, Note_on_c, 7, 35, 89
9, 45480, Note_on_c, 7, 35, 0
9, 45480, Note_on_c, 7, 36, 89
9, 45540, Note_on_c, 7, 36, 0
9, 45540, Note_on_c, 7, 37, 91
9, 45600, Note_on_c, 7, 37, 0
9, 45600, Note_on_c, 7, 49, 108
9, 45650, Note_on_c, 7, 49, 0
9, 45660, Note_on_c, 7, 49, 88
9, 45710, Note_on_c, 7, 49, 0
9, 45720, Note_on_c, 7, 47, 109
9, 45780, Note_on_c, 7, 47, 0
9, 45780, Note_on_c, 7, 33, 110
9, 45840, Note_on_c, 7, 33, 0
9, 45840, Note_on_c, 7, 33, 111
9, 45890, Note_on_c, 7, 33, 0
9, 45900, Note_on_c, 7, 40, 90
9, 45957, Note_on_c, 7, 40, 0
9, 45960, Note_on_c, 7, 37, 88
9, 46020, Note_on_c, 7, 37, 0
9, 46020, Note_on_c, 7, 40, 90
9, 46080, Note_on_c, 7, 40, 0
9, 46080, Note_on_c, 7, 40, 91
9, 46130, Note_on_c, 7, 40, 0
9, 46140, Note_on_c, 7, 28, 90
9, 46197, Note_on_c, 7, 28, 0
9, 46200, Note_on_c, 7, 34, 88
9, 46260, Note_on_c, 7, 34, 0
9, 46260, Note_on_c, 7, 35, 88
9, 46320, Note_on_c, 7, 35, 0
9, 46320, Note_on_c, 7, 42, 111
9, 46377, Note_on_c, 7, 42, 0
9, 46380, Note_on_c, 7, 35, 89
9, 46440, Note_on_c, 7, 35, 0
9, 46440, Note_on_c, 7, 37, 88
9, 46500, Note_on_c, 7, 37, 0
9, 46500, Note_on_c, 7, 39, 90
9, 46560, Note_on_c, 7, 39, 0
9, 46560, Note_on_c, 7, 49, 109
9, 46610, Note_on_c, 7, 49, 0
9, 46620, Note_on_c, 7, 31, 88
9, 46680, Note_on_c, 7, 31, 0
9, 46680, Note_on_c, 7, 32, 89
9, 46740, Note_on_c, 7, 32, 0
9, 46740, Note_on_c, 7, 33, 111
9, 46800, Note_on_c, 7, 33, 0
9, 46800, Note_on_c, 7, 33, 111
9, 46857, Note_on_c, 7, 33, 0
9, 46860, Note_on_c, 7, 33, 89
9, 46920, Note_on_c, 7, 33, 0
9, 46920, Note_on_c, 7, 37, 88
9, 46980, Note_on_c, 7, 37, 0
9, 46980, Note_on_c, 7, 40, 91
9, 47040, Note_on_c, 7, 40, 0
9, 47040, Note_on_c, 7, 40, 90
9, 47090, Note_on_c, 7, 40, 0
9, 47100, Note_on_c, 7, 28, 91
9, 47157, Note_on_c, 7, 28, 0
9, 47160, Note_on_c, 7, 32, 89
9, 47220, Note_on_c, 7, 32, 0
9, 47220, Note_on_c, 7, 33, 90
9, 47280, Note_on_c, 7, 33, 0
9, 47280, Note_on_c, 7, 34, 90
9, 47340, Note_on_c, 7, 34, 0
9, 47340, Note_on_c, 7, 35, 89
9, 47400, Note_on_c, 7, 35, 0
9, 47400, Note_on_c, 7, 37, 91
9, 47460, Note_on_c, 7, 37, 0
9, 47460, Note_on_c, 7, 37, 91
9, 47520, Note_on_c, 7, 37, 0
9, 47520, Note_on_c, 7, 49, 110
9, 47570, Note_on_c, 7, 49, 0
9, 47580, Note_on_c, 7, 49, 89
9, 47630, Note_on_c, 7, 49, 0
9, 47640, Note_on_c, 7, 33, 111
9, 47697, Note_on_c, 7, 33, 0
9, 47700, Note_on_c, 7, 37, 91
9, 47760, Note_on_c, 7, 37, 0
9, 47760, Note_on_c, 7, 35, 88
9, 47820, Note_on_c, 7, 35, 0
9, 47820, Note_on_c, 7, 36, 88
9, 47880, Note_on_c, 7, 36, 0
9, 47880, Note_on_c, 7, 37, 91
9, 47940, Note_on_c, 7, 37, 0
9, 47940, Note_on_c, 7, 40, 91
9, 48000, Note_on_c, 7, 40, 0
9, 48000, Note_on_c, 7, 40, 89
9, 48050, Note_on_c, 7, 40, 0
9, 48060, Note_on_c, 7, 28, 90
9, 48120, Note_on_c, 7, 28, 0
9, 48120, Note_on_c, 7, 32, 110
9, 48160, Note_on_c, 7, 32, 0
9, 48180, Note_on_c, 7, 32, 88
9, 48240, Note_on_c, 7, 32, 0
9, 48240, Note_on_c, 7, 35, 110
9, 48290, Note_on_c, 7, 35, 0
9, 48300, Note_on_c, 7, 35, 91
9, 48360, Note_on_c, 7, 35, 0
9, 48360, Note_on_c, 7, 36, 91
9, 48420, Note_on_c, 7, 36, 0
9, 48420, Note_on_c, 7, 37, 89
9, 48480, Note_on_c, 7, 37, 0
9, 48480, Note_on_c, 7, 49, 110
9, 48530, Note_on_c, 7, 49, 0
9, 48540, Note_on_c, 7, 49, 89
9, 48590, Note_on_c, 7, 49, 0
9, 48600, Note_on_c, 7, 47, 110
9, 48660, Note_on_c, 7, 47, 0
9, 48660, Note_on_c, 7, 45, 111
9, 48720, Note_on_c, 7, 45, 0
9, 48720, Note_on_c, 7, 33, 108
9, 48770, Note_on_c, 7, 33, 0
9, 48780, Note_on_c, 7, 40, 90
9, 48840, Note_on_c, 7, 40, 0
9, 48840, Note_on_c, 7, 42, 89
9, 48900, Note_on_c, 7, 42, 0
9, 48900, Note_on_c, 7, 40, 91
9, 48960, Note_on_c, 7, 40, 0
9, 48960, Note_on_c, 7, 40, 90
9, 49010, Note_on_c, 7, 40, 0
9, 49020, Note_on_c, 7, 28, 88
9, 49080, Note_on_c, 7, 28, 0
9, 49080, Note_on_c, 7, 32, 110
9, 49120, Note_on_c, 7, 32, 0
9, 49140, Note_on_c, 7, 32, 88
9, 49197, Note_on_c, 7, 32, 0
9, 49200, Note_on_c, 7, 32, 88
9, 49260, Note_on_c, 7, 32, 0
9, 49260, Note_on_c, 7, 35, 89
9, 49320, Note_on_c, 7, 35, 0
9, 49320, Note_on_c, 7, 32, 90
9, 49380, Note_on_c, 7, 32, 0
9, 49380, Note_on_c, 7, 37, 89
9, 49440, Note_on_c, 7, 37, 0
9, 49440, Note_on_c, 7, 49, 111
9, 49497, Note_on_c, 7, 49, 0
9, 49500, Note_on_c, 7, 35, 88
9, 49560, Note_on_c, 7, 35, 0
9, 49560, Note_on_c, 7, 34, 90
9, 49620, Note_on_c, 7, 34, 0
9, 49620, Note_on_c, 7, 45, 108
9, 49670, Note_on_c, 7, 45, 0
9, 49740, Note_on_c, 7, 40, 89
9, 49797, Note_on_c, 7, 40, 0
9, 49800, Note_on_c, 7, 44, 89
9, 49860, Note_on_c, 7, 44, 0
9, 49860, Note_on_c, 7, 32, 90
9, 49920, Note_on_c, 7, 32, 0
9, 49920, Note_on_c, 7, 30, 88
9, 49980, Note_on_c, 7, 30, 0
9, 49980, Note_on_c, 7, 28, 91
9, 50040, Note_on_c, 7, 28, 0
9, 50040, Note_on_c, 7, 32, 110
9, 50080, Note_on_c, 7, 32, 0
9, 50100, Note_on_c, 7, 32, 89
9, 50160, Note_on_c, 7, 32, 0
9, 50160, Note_on_c, 7, 35, 109
9, 50210, Note_on_c, 7, 35, 0
9, 50220, Note_on_c, 7, 35, 90
9, 50277, Note_on_c, 7, 35, 0
9, 50280, Note_on_c, 7, 39, 90
9, 50340, Note_on_c, 7, 39, 0
9, 50340, Note_on_c, 7, 49, 90
9, 50400, Note_on_c, 7, 49, 0
9, 50400, Control_c, 7, 7, 90
9, 50400, Note_on_c, 7, 49, 111
9, 50436, Control_c, 7, 7, 89
9, 50450, Note_on_c, 7, 49, 0
9, 50460, Note_on_c, 7, 49, 90
9, 50473, Control_c, 7, 7, 88
9, 50510, Control_c, 7, 7, 87
9, 50517, Note_on_c, 7, 49, 0
9, 50520, Note_on_c, 7, 32, 88
9, 50546, Control_c, 7, 7, 86
9, 50580, Note_on_c, 7, 32, 0
9, 50580, Note_on_c, 7, 33, 108
9, 50583, Control_c, 7, 7, 85
9, 50620, Control_c, 7, 7, 84
9, 50640, Note_on_c, 7, 33, 0
9, 50640, Note_on_c, 7, 33, 111
9, 50656, Control_c, 7, 7, 83
9, 50693, Control_c, 7, 7, 82
9, 50697, Note_on_c, 7, 33, 0
9, 50700, Note_on_c, 7, 37, 88
9, 50730, Control_c, 7, 7, 81
9, 50760, Note_on_c, 7, 37, 0
9, 50760, Note_on_c, 7, 36, 91
9, 50766, Control_c, 7, 7, 80
9, 50803, Control_c, 7, 7, 79
9, 50820, Note_on_c, 7, 36, 0
9, 50820, Note_on_c, 7, 47, 90
9, 50840, Control_c, 7, 7, 78
9, 50876, Control_c, 7, 7, 77
9, 50880, Note_on_c, 7, 47, 0
9, 50880, Note_on_c, 7, 40, 91
9, 50913, Control_c, 7, 7, 76
9, 50930, Note_on_c, 7, 40, 0
9, 50940, Note_on_c, 7, 28, 91
9, 50950, Control_c, 7, 7, 75
9, 50986, Control_c, 7, 7, 74
9, 51000, Note_on_c, 7, 28, 0
9, 51000, Note_on_c, 7, 32, 108
9, 51023, Control_c, 7, 7, 73
9, 51040, Note_on_c, 7, 32, 0
9, 51060, Control_c, 7, 7, 72
9, 51060, Note_on_c, 7, 32, 91
9, 51096, Control_c, 7, 7, 71
9, 51120, Note_on_c, 7, 32, 0
9, 51120, Note_on_c, 7, 35, 108
9, 51133, Control_c, 7, 7, 70
9, 51170, Note_on_c, 7, 35, 0
9, 51170, Control_c, 7, 7, 69
9, 51180, Note_on_c, 7, 35, 91
9, 51206, Control_c, 7, 7, 68
9, 51237, Note_on_c, 7, 35, 0
9, 51240, Note_on_c, 7, 35, 89
9, 51243, Control_c, 7, 7, 67
9, 51280, Control_c, 7, 7, 66
9, 51300, Note_on_c, 7, 35, 0
9, 51300, Note_on_c, 7, 37, 88
9, 51316, Control_c, 7, 7, 65
9, 51353, Control_c, 7, 7, 64
9, 51360, Note_on_c, 7, 37, 0
9, 51360, Note_on_c, 7, 37, 108
9, 51390, Control_c, 7, 7, 63
9, 51400, Note_on_c, 7, 37, 0
9, 51420, Note_on_c, 7, 30, 90
9, 51426, Control_c, 7, 7, 62
9, 51463, Control_c, 7, 7, 61
9, 51480, Note_on_c, 7, 30, 0
9, 51480, Note_on_c, 7, 32, 88
9, 51500, Control_c, 7, 7, 60
9, 51536, Control_c, 7, 7, 59
9, 51540, Note_on_c, 7, 32, 0
9, 51540, Note_on_c, 7, 33, 110
9, 51573, Control_c, 7, 7, 58
9, 51600, Note_on_c, 7, 33, 0
9, 51600, Note_on_c, 7, 33, 108
9, 51610, Control_c, 7, 7, 57
9, 51646, Control_c, 7, 7, 56
9, 51650, Note_on_c, 7, 33, 0
9, 51660, Note_on_c, 7, 28, 88
9, 51683, Control_c, 7, 7, 55
9, 51720, Note_on_c, 7, 28, 0
9, 51720, Control_c, 7, 7, 54
9, 51720, Note_on_c, 7, 30, 91
9, 51756, Control_c, 7, 7, 53
9, 51780, Note_on_c, 7, 30, 0
9, 51780, Note_on_c, 7, 35, 89
9, 51793, Control_c, 7, 7, 52
9, 51830, Control_c, 7, 7, 51
9, 51840, Note_on_c, 7, 35, 0
9, 51840, Note_on_c, 7, 40, 91
9, 51866, Control_c, 7, 7, 50
9, 51880, Note_on_c, 7, 40, 0
9, 51900, Note_on_c, 7, 40, 89
9, 51903, Control_c, 7, 7, 49
9, 51940, Control_c, 7, 7, 48
9, 51950, Note_on_c, 7, 40, 0
9, 51960, Note_on_c, 7, 37, 108
9, 51976, Control_c, 7, 7, 47
9, 52013, Control_c, 7, 7, 46
9, 52030, Note_on_c, 7, 37, 0
9, 52050, Control_c, 7, 7, 45
9, 52080, Note_on_c, 7, 34, 91
9, 52086, Control_c, 7, 7, 44
9, 52123, Control_c, 7, 7, 43
9, 52140, Note_on_c, 7, 34, 0
9, 52140, Note_on_c, 7, 35, 89
9, 52160, Control_c, 7, 7, 42
9, 52196, Control_c, 7, 7, 41
9, 52200, Note_on_c, 7, 35, 0
9, 52200, Note_on_c, 7, 36, 91
9, 52233, Control_c, 7, 7, 40
9, 52260, Note_on_c, 7, 36, 0
9, 52260, Note_on_c, 7, 37, 88
9, 52270, Control_c, 7, 7, 39
9, 52306, Control_c, 7, 7, 38
9, 52320, Note_on_c, 7, 37, 0
9, 52320, Note_on_c, 7, 49, 110
9, 52343, Control_c, 7, 7, 37
9, 52380, Control_c, 7, 7, 36
9, 52416, Control_c, 7, 7, 35
9, 52437, Note_on_c, 7, 49, 0
9, 52440, Note_on_c, 7, 35, 90
9, 52453, Control_c, 7, 7, 34
9, 52490, Control_c, 7, 7, 33
9, 52500, Note_on_c, 7, 35, 0
9, 52500, Note_on_c, 7, 45, 108
9, 52526, Control_c, 7, 7, 32
9, 52560, Note_on_c, 7, 45, 0
9, 52560, Note_on_c, 7, 33, 109
9, 52563, Control_c, 7, 7, 31
9, 52600, Control_c, 7, 7, 30
9, 52617, Note_on_c, 7, 33, 0
9, 52620, Note_on_c, 7, 28, 91
9, 52636, Control_c, 7, 7, 29
9, 52673, Control_c, 7, 7, 28
9, 52680, Note_on_c, 7, 28, 0
9, 52680, Note_on_c, 7, 30, 90
9, 52710, Control_c, 7, 7, 27
9, 52740, Note_on_c, 7, 30, 0
9, 52740, Note_on_c, 7, 28, 89
9, 52746, Control_c, 7, 7, 26
9, 52783, Control_c, 7, 7, 25
9, 52800, Note_on_c, 7, 28, 0
9, 52800, Note_on_c, 7, 28, 90
9, 52820, Control_c, 7, 7, 24
9, 52840, Note_on_c, 7, 28, 0
9, 52856, Control_c, 7, 7, 23
9, 52860, Note_on_c, 7, 28, 88
9, 52893, Control_c, 7, 7, 22
9, 52920, Note_on_c, 7, 28, 0
9, 52920, Note_on_c, 7, 32, 110
9, 52930, Control_c, 7, 7, 21
9, 52960, Note_on_c, 7, 32, 0
9, 52966, Control_c, 7, 7, 20
9, 52980, Note_on_c, 7, 32, 88
9, 53003, Control_c, 7, 7, 19
9, 53037, Note_on_c, 7, 32, 0
9, 53040, Control_c, 7, 7, 18
9, 53040, Note_on_c, 7, 34, 88
9, 53076, Control_c, 7, 7, 17
9, 53100, Note_on_c, 7, 34, 0
9, 53100, Note_on_c, 7, 35, 90
9, 53113, Control_c, 7, 7, 16
9, 53150, Control_c, 7, 7, 15
9, 53160, Note_on_c, 7, 35, 0
9, 53160, Note_on_c, 7, 39, 89
9, 53186, Control_c, 7, 7, 14
9, 53220, Note_on_c, 7, 39, 0
9, 53220, Note_on_c, 7, 49, 90
9, 53223, Control_c, 7, 7, 13
9, 53260, Control_c, 7, 7, 12
9, 53280, Note_on_c, 7, 49, 0
9, 53280, Note_on_c, 7, 49, 108
9, 53296, Control_c, 7, 7, 11
9, 53330, Note_on_c, 7, 49, 0
9, 53333, Control_c, 7, 7, 10
9, 53340, Note_on_c, 7, 49, 89
9, 53370, Control_c, 7, 7, 9
9, 53397, Note_on_c, 7, 49, 0
9, 53400, Note_on_c, 7, 34, 89
9, 53406, Control_c, 7, 7, 8
9, 53443, Control_c, 7, 7, 7
9, 53460, Note_on_c, 7, 34, 0
9, 53460, Note_on_c, 7, 45, 111
9, 53480, Control_c, 7, 7, 6
9, 53516, Control_c, 7, 7, 5
9, 53520, Note_on_c, 7, 45, 0
9, 53520, Note_on_c, 7, 33, 110
9, 53553, Control_c, 7, 7, 4
9, 53570, Note_on_c, 7, 33, 0
9, 53580, Note_on_c, 7, 40, 89
9, 53590, Control_c, 7, 7, 3
9, 53626, Control_c, 7, 7, 2
9, 53640, Note_on_c, 7, 40, 0
9, 53640, Note_on_c, 7, 42, 89
9, 53663, Control_c, 7, 7, 1
9, 53700, Note_on_c, 7, 42, 0
9, 53700, Control_c, 7, 7, 0
9, 53700, Note_on_c, 7, 40, 91
9, 53759, Note_on_c, 7, 40, 0
9, 53759, End_track
10, 0, Start_track
10, 0, MIDI_port, 0
10, 0, Title_t, "Clean Gt"
10, 0, Program_c, 8, 27
10, 0, Control_c, 8, 7, 90
10, 0, Control_c, 8, 10, 64
10, 0, Control_c, 8, 91, 50
10, 0, Control_c, 8, 93, 0
10, 480, Note_on_c, 8, 59, 90
10, 480, Note_on_c, 8, 64, 90
10, 480, Note_on_c, 8, 68, 90
10, 716, Note_on_c, 8, 64, 0
10, 718, Note_on_c, 8, 68, 0
10, 718, Note_on_c, 8, 59, 0
10, 720, Note_on_c, 8, 59, 70
10, 720, Note_on_c, 8, 63, 70
10, 720, Note_on_c, 8, 66, 70
10, 896, Note_on_c, 8, 66, 0
10, 896, Note_on_c, 8, 59, 0
10, 897, Note_on_c, 8, 63, 0
10, 900, Note_on_c, 8, 61, 90
10, 900, Note_on_c, 8, 64, 90
10, 900, Note_on_c, 8, 68, 90
10, 1137, Note_on_c, 8, 64, 0
10, 1137, Note_on_c, 8, 61, 0
10, 1138, Note_on_c, 8, 68, 0
10, 1140, Note_on_c, 8, 61, 70
10, 1140, Note_on_c, 8, 64, 70
10, 1140, Note_on_c, 8, 68, 70
10, 1197, Note_on_c, 8, 68, 0
10, 1197, Note_on_c, 8, 64, 0
10, 1198, Note_on_c, 8, 61, 0
10, 1200, Note_on_c, 8, 57, 90
10, 1200, Note_on_c, 8, 59, 90
10, 1200, Note_on_c, 8, 64, 90
10, 1376, Note_on_c, 8, 64, 0
10, 1376, Note_on_c, 8, 59, 0
10, 1377, Note_on_c, 8, 57, 0
10, 1380, Note_on_c, 8, 59, 90
10, 1380, Note_on_c, 8, 63, 90
10, 1380, Note_on_c, 8, 66, 90
10, 1437, Note_on_c, 8, 63, 0
10, 1437, Note_on_c, 8, 59, 0
10, 1438, Note_on_c, 8, 66, 0
10, 1440, Note_on_c, 8, 56, 90
10, 1440, Note_on_c, 8, 59, 90
10, 1440, Note_on_c, 8, 64, 90
10, 1796, Note_on_c, 8, 56, 0
10, 1797, Note_on_c, 8, 64, 0
10, 1797, Note_on_c, 8, 59, 0
10, 1800, Note_on_c, 8, 59, 90
10, 1800, Note_on_c, 8, 63, 90
10, 1800, Note_on_c, 8, 66, 90
10, 1857, Note_on_c, 8, 66, 0
10, 1857, Note_on_c, 8, 63, 0
10, 1858, Note_on_c, 8, 59, 0
10, 1860, Note_on_c, 8, 56, 90
10, 1860, Note_on_c, 8, 61, 90
10, 1860, Note_on_c, 8, 64, 90
10, 2096, Note_on_c, 8, 61, 0
10, 2096, Note_on_c, 8, 56, 0
10, 2098, Note_on_c, 8, 64, 0
10, 2100, Note_on_c, 8, 57, 70
10, 2100, Note_on_c, 8, 59, 70
10, 2100, Note_on_c, 8, 64, 70
10, 2216, Note_on_c, 8, 64, 0
10, 2216, Note_on_c, 8, 57, 0
10, 2217, Note_on_c, 8, 59, 0
10, 2220, Note_on_c, 8, 57, 90
10, 2220, Note_on_c, 8, 61, 90
10, 2220, Note_on_c, 8, 64, 90
10, 2277, Note_on_c, 8, 64, 0
10, 2277, Note_on_c, 8, 61, 0
10, 2278, Note_on_c, 8, 57, 0
10, 2280, Note_on_c, 8, 59, 90
10, 2280, Note_on_c, 8, 63, 90
10, 2280, Note_on_c, 8, 66, 90
10, 2396, Note_on_c, 8, 63, 0
10, 2396, Note_on_c, 8, 59, 0
10, 2397, Note_on_c, 8, 66, 0
10, 2400, Note_on_c, 8, 59, 90
10, 2400, Note_on_c, 8, 64, 90
10, 2400, Note_on_c, 8, 68, 90
10, 2518, Note_on_c, 8, 68, 0
10, 2518, Note_on_c, 8, 64, 0
10, 2518, Note_on_c, 8, 59, 0
10, 2520, Note_on_c, 8, 59, 90
10, 2520, Note_on_c, 8, 63, 90
10, 2520, Note_on_c, 8, 66, 90
10, 2817, Note_on_c, 8, 63, 0
10, 2818, Note_on_c, 8, 66, 0
10, 2818, Note_on_c, 8, 59, 0
10, 2820, Note_on_c, 8, 56, 90
10, 2820, Note_on_c, 8, 61, 90
10, 2820, Note_on_c, 8, 64, 90
10, 3116, Note_on_c, 8, 56, 0
10, 3117, Note_on_c, 8, 64, 0
10, 3117, Note_on_c, 8, 61, 0
10, 3120, Note_on_c, 8, 57, 90
10, 3120, Note_on_c, 8, 61, 90
10, 3120, Note_on_c, 8, 64, 90
10, 3236, Note_on_c, 8, 64, 0
10, 3237, Note_on_c, 8, 61, 0
10, 3237, Note_on_c, 8, 57, 0
10, 3240, Note_on_c, 8, 59, 90
10, 3240, Note_on_c, 8, 63, 90
10, 3240, Note_on_c, 8, 66, 90
10, 3296, Note_on_c, 8, 63, 0
10, 3297, Note_on_c, 8, 66, 0
10, 3297, Note_on_c, 8, 59, 0
10, 3300, Note_on_c, 8, 56, 90
10, 3300, Note_on_c, 8, 59, 90
10, 3300, Note_on_c, 8, 64, 90
10, 3536, Note_on_c, 8, 64, 0
10, 3538, Note_on_c, 8, 59, 0
10, 3538, Note_on_c, 8, 56, 0
10, 3540, Note_on_c, 8, 59, 90
10, 3540, Note_on_c, 8, 63, 90
10, 3540, Note_on_c, 8, 66, 90
10, 3776, Note_on_c, 8, 66, 0
10, 3776, Note_on_c, 8, 59, 0
10, 3778, Note_on_c, 8, 63, 0
10, 3780, Note_on_c, 8, 61, 90
10, 3780, Note_on_c, 8, 64, 90
10, 3780, Note_on_c, 8, 68, 90
10, 4076, Note_on_c, 8, 68, 0
10, 4076, Note_on_c, 8, 64, 0
10, 4076, Note_on_c, 8, 61, 0
10, 4080, Note_on_c, 8, 59, 70
10, 4080, Note_on_c, 8, 64, 70
10, 4080, Note_on_c, 8, 69, 70
10, 4196, Note_on_c, 8, 69, 0
10, 4198, Note_on_c, 8, 64, 0
10, 4198, Note_on_c, 8, 59, 0
10, 4200, Note_on_c, 8, 59, 90
10, 4200, Note_on_c, 8, 63, 90
10, 4200, Note_on_c, 8, 66, 90
10, 4316, Note_on_c, 8, 66, 0
10, 4317, Note_on_c, 8, 63, 0
10, 4318, Note_on_c, 8, 59, 0
10, 4320, Note_on_c, 8, 56, 90
10, 4320, Note_on_c, 8, 59, 90
10, 4320, Note_on_c, 8, 64, 90
10, 4617, Note_on_c, 8, 59, 0
10, 4618, Note_on_c, 8, 64, 0
10, 4618, Note_on_c, 8, 56, 0
10, 4620, Note_on_c, 8, 59, 90
10, 4620, Note_on_c, 8, 63, 90
10, 4620, Note_on_c, 8, 66, 90
10, 4736, Note_on_c, 8, 66, 0
10, 4736, Note_on_c, 8, 63, 0
10, 4736, Note_on_c, 8, 59, 0
10, 4740, Note_on_c, 8, 61, 90
10, 4740, Note_on_c, 8, 64, 90
10, 4740, Note_on_c, 8, 68, 90
10, 4976, Note_on_c, 8, 68, 0
10, 4977, Note_on_c, 8, 64, 0
10, 4977, Note_on_c, 8, 61, 0
10, 4980, Note_on_c, 8, 57, 90
10, 4980, Note_on_c, 8, 59, 90
10, 4980, Note_on_c, 8, 64, 90
10, 5217, Note_on_c, 8, 64, 0
10, 5217, Note_on_c, 8, 57, 0
10, 5218, Note_on_c, 8, 59, 0
10, 5220, Note_on_c, 8, 59, 90
10, 5220, Note_on_c, 8, 63, 90
10, 5220, Note_on_c, 8, 66, 90
10, 5276, Note_on_c, 8, 63, 0
10, 5276, Note_on_c, 8, 59, 0
10, 5278, Note_on_c, 8, 66, 0
10, 5280, Note_on_c, 8, 56, 90
10, 5280, Note_on_c, 8, 59, 90
10, 5280, Note_on_c, 8, 64, 90
10, 5516, Note_on_c, 8, 59, 0
10, 5517, Note_on_c, 8, 56, 0
10, 5518, Note_on_c, 8, 64, 0
10, 5520, Note_on_c, 8, 59, 70
10, 5520, Note_on_c, 8, 64, 70
10, 5520, Note_on_c, 8, 68, 70
10, 5576, Note_on_c, 8, 59, 0
10, 5578, Note_on_c, 8, 68, 0
10, 5578, Note_on_c, 8, 64, 0
10, 5580, Note_on_c, 8, 59, 90
10, 5580, Note_on_c, 8, 63, 90
10, 5580, Note_on_c, 8, 66, 90
10, 5696, Note_on_c, 8, 59, 0
10, 5697, Note_on_c, 8, 66, 0
10, 5697, Note_on_c, 8, 63, 0
10, 5700, Note_on_c, 8, 61, 90
10, 5700, Note_on_c, 8, 64, 90
10, 5700, Note_on_c, 8, 68, 90
10, 5937, Note_on_c, 8, 68, 0
10, 5937, Note_on_c, 8, 64, 0
10, 5937, Note_on_c, 8, 61, 0
10, 5940, Note_on_c, 8, 61, 70
10, 5940, Note_on_c, 8, 64, 70
10, 5940, Note_on_c, 8, 68, 70
10, 5996, Note_on_c, 8, 68, 0
10, 5996, Note_on_c, 8, 61, 0
10, 5998, Note_on_c, 8, 64, 0
10, 6000, Note_on_c, 8, 57, 90
10, 6000, Note_on_c, 8, 59, 90
10, 6000, Note_on_c, 8, 64, 90
10, 6057, Note_on_c, 8, 64, 0
10, 6057, Note_on_c, 8, 57, 0
10, 6058, Note_on_c, 8, 59, 0
10, 6060, Note_on_c, 8, 61, 90
10, 6060, Note_on_c, 8, 64, 90
10, 6060, Note_on_c, 8, 69, 90
10, 6177, Note_on_c, 8, 64, 0
10, 6178, Note_on_c, 8, 69, 0
10, 6178, Note_on_c, 8, 61, 0
10, 6180, Note_on_c, 8, 59, 90
10, 6180, Note_on_c, 8, 63, 90
10, 6180, Note_on_c, 8, 66, 90
10, 6236, Note_on_c, 8, 66, 0
10, 6236, Note_on_c, 8, 63, 0
10, 6238, Note_on_c, 8, 59, 0
10, 6240, Note_on_c, 8, 59, 90
10, 6240, Note_on_c, 8, 64, 90
10, 6240, Note_on_c, 8, 68, 90
10, 6417, Note_on_c, 8, 64, 0
10, 6418, Note_on_c, 8, 68, 0
10, 6418, Note_on_c, 8, 59, 0
10, 6420, Note_on_c, 8, 59, 70
10, 6420, Note_on_c, 8, 64, 70
10, 6420, Note_on_c, 8, 68, 70
10, 6537, Note_on_c, 8, 68, 0
10, 6537, Note_on_c, 8, 64, 0
10, 6538, Note_on_c, 8, 59, 0
10, 6540, Note_on_c, 8, 59, 90
10, 6540, Note_on_c, 8, 63, 90
10, 6540, Note_on_c, 8, 66, 90
10, 6657, Note_on_c, 8, 66, 0
10, 6658, Note_on_c, 8, 63, 0
10, 6658, Note_on_c, 8, 59, 0
10, 6660, Note_on_c, 8, 56, 90
10, 6660, Note_on_c, 8, 61, 90
10, 6660, Note_on_c, 8, 64, 90
10, 6957, Note_on_c, 8, 64, 0
10, 6957, Note_on_c, 8, 56, 0
10, 6958, Note_on_c, 8, 61, 0
10, 6960, Note_on_c, 8, 57, 70
10, 6960, Note_on_c, 8, 61, 70
10, 6960, Note_on_c, 8, 64, 70
10, 7196, Note_on_c, 8, 57, 0
10, 7197, Note_on_c, 8, 64, 0
10, 7198, Note_on_c, 8, 61, 0
10, 7200, Note_on_c, 8, 56, 90
10, 7200, Note_on_c, 8, 59, 90
10, 7200, Note_on_c, 8, 64, 90
10, 7436, Note_on_c, 8, 59, 0
10, 7437, Note_on_c, 8, 64, 0
10, 7438, Note_on_c, 8, 56, 0
10, 7440, Note_on_c, 8, 56, 70
10, 7440, Note_on_c, 8, 59, 70
10, 7440, Note_on_c, 8, 64, 70
10, 7496, Note_on_c, 8, 64, 0
10, 7497, Note_on_c, 8, 59, 0
10, 7497, Note_on_c, 8, 56, 0
10, 7500, Note_on_c, 8, 59, 90
10, 7500, Note_on_c, 8, 63, 90
10, 7500, Note_on_c, 8, 66, 90
10, 7616, Note_on_c, 8, 66, 0
10, 7616, Note_on_c, 8, 63, 0
10, 7618, Note_on_c, 8, 59, 0
10, 7620, Note_on_c, 8, 56, 90
10, 7620, Note_on_c, 8, 61, 90
10, 7620, Note_on_c, 8, 64, 90
10, 7916, Note_on_c, 8, 64, 0
10, 7916, Note_on_c, 8, 61, 0
10, 7916, Note_on_c, 8, 56, 0
10, 7920, Note_on_c, 8, 57, 90
10, 7920, Note_on_c, 8, 59, 90
10, 7920, Note_on_c, 8, 64, 90
10, 8036, Note_on_c, 8, 57, 0
10, 8037, Note_on_c, 8, 59, 0
10, 8038, Note_on_c, 8, 64, 0
10, 8040, Note_on_c, 8, 61, 90
10, 8040, Note_on_c, 8, 64, 90
10, 8040, Note_on_c, 8, 69, 90
10, 8096, Note_on_c, 8, 64, 0
10, 8097, Note_on_c, 8, 69, 0
10, 8097, Note_on_c, 8, 61, 0
10, 8100, Note_on_c, 8, 59, 90
10, 8100, Note_on_c, 8, 63, 90
10, 8100, Note_on_c, 8, 66, 90
10, 8156, Note_on_c, 8, 66, 0
10, 8156, Note_on_c, 8, 63, 0
10, 8157, Note_on_c, 8, 59, 0
10, 8160, Note_on_c, 8, 56, 90
10, 8160, Note_on_c, 8, 59, 90
10, 8160, Note_on_c, 8, 64, 90
10, 8456, Note_on_c, 8, 56, 0
10, 8458, Note_on_c, 8, 64, 0
10, 8458, Note_on_c, 8, 59, 0
10, 8460, Note_on_c, 8, 59, 90
10, 8460, Note_on_c, 8, 63, 90
10, 8460, Note_on_c, 8, 66, 90
10, 8576, Note_on_c, 8, 63, 0
10, 8577, Note_on_c, 8, 59, 0
10, 8578, Note_on_c, 8, 66, 0
10, 8580, Note_on_c, 8, 61, 90
10, 8580, Note_on_c, 8, 64, 90
10, 8580, Note_on_c, 8, 68, 90
10, 8816, Note_on_c, 8, 68, 0
10, 8817, Note_on_c, 8, 64, 0
10, 8818, Note_on_c, 8, 61, 0
10, 8820, Note_on_c, 8, 59, 90
10, 8820, Note_on_c, 8, 64, 90
10, 8820, Note_on_c, 8, 69, 90
10, 9056, Note_on_c, 8, 64, 0
10, 9056, Note_on_c, 8, 59, 0
10, 9058, Note_on_c, 8, 69, 0
10, 9060, Note_on_c, 8, 59, 90
10, 9060, Note_on_c, 8, 63, 90
10, 9060, Note_on_c, 8, 66, 90
10, 9116, Note_on_c, 8, 63, 0
10, 9117, Note_on_c, 8, 66, 0
10, 9117, Note_on_c, 8, 59, 0
10, 9120, Note_on_c, 8, 59, 90
10, 9120, Note_on_c, 8, 64, 90
10, 9120, Note_on_c, 8, 68, 90
10, 9417, Note_on_c, 8, 64, 0
10, 9418, Note_on_c, 8, 68, 0
10, 9418, Note_on_c, 8, 59, 0
10, 9420, Note_on_c, 8, 59, 90
10, 9420, Note_on_c, 8, 63, 90
10, 9420, Note_on_c, 8, 66, 90
10, 9536, Note_on_c, 8, 59, 0
10, 9537, Note_on_c, 8, 66, 0
10, 9537, Note_on_c, 8, 63, 0
10, 9540, Note_on_c, 8, 61, 90
10, 9540, Note_on_c, 8, 64, 90
10, 9540, Note_on_c, 8, 68, 90
10, 9776, Note_on_c, 8, 68, 0
10, 9777, Note_on_c, 8, 64, 0
10, 9777, Note_on_c, 8, 61, 0
10, 9780, Note_on_c, 8, 61, 90
10, 9780, Note_on_c, 8, 64, 90
10, 9780, Note_on_c, 8, 69, 90
10, 10016, Note_on_c, 8, 69, 0
10, 10016, Note_on_c, 8, 64, 0
10, 10018, Note_on_c, 8, 61, 0
10, 10020, Note_on_c, 8, 59, 90
10, 10020, Note_on_c, 8, 64, 90
10, 10020, Note_on_c, 8, 68, 90
10, 10076, Note_on_c, 8, 68, 0
10, 10077, Note_on_c, 8, 64, 0
10, 10078, Note_on_c, 8, 59, 0
10, 10080, Note_on_c, 8, 56, 90
10, 10080, Note_on_c, 8, 59, 90
10, 10080, Note_on_c, 8, 64, 90
10, 10316, Note_on_c, 8, 59, 0
10, 10318, Note_on_c, 8, 64, 0
10, 10318, Note_on_c, 8, 56, 0
10, 10320, Note_on_c, 8, 59, 90
10, 10320, Note_on_c, 8, 63, 90
10, 10320, Note_on_c, 8, 66, 90
10, 10496, Note_on_c, 8, 66, 0
10, 10496, Note_on_c, 8, 63, 0
10, 10496, Note_on_c, 8, 59, 0
10, 10500, Note_on_c, 8, 61, 90
10, 10500, Note_on_c, 8, 64, 90
10, 10500, Note_on_c, 8, 68, 90
10, 10736, Note_on_c, 8, 61, 0
10, 10737, Note_on_c, 8, 68, 0
10, 10738, Note_on_c, 8, 64, 0
10, 10740, Note_on_c, 8, 61, 90
10, 10740, Note_on_c, 8, 64, 90
10, 10740, Note_on_c, 8, 69, 90
10, 10976, Note_on_c, 8, 69, 0
10, 10978, Note_on_c, 8, 64, 0
10, 10978, Note_on_c, 8, 61, 0
10, 10980, Note_on_c, 8, 59, 90
10, 10980, Note_on_c, 8, 64, 90
10, 10980, Note_on_c, 8, 68, 90
10, 11100, Note_on_c, 8, 59, 90
10, 11220, Note_on_c, 8, 59, 0
10, 11220, Note_on_c, 8, 56, 88
10, 11337, Note_on_c, 8, 64, 0
10, 11337, Note_on_c, 8, 59, 0
10, 11337, Note_on_c, 8, 68, 0
10, 11340, Note_on_c, 8, 56, 0
10, 11340, Note_on_c, 8, 59, 90
10, 11340, Note_on_c, 8, 63, 90
10, 11340, Note_on_c, 8, 66, 90
10, 11456, Note_on_c, 8, 66, 0
10, 11457, Note_on_c, 8, 63, 0
10, 11457, Note_on_c, 8, 59, 0
10, 11460, Note_on_c, 8, 56, 90
10, 11460, Note_on_c, 8, 61, 90
10, 11460, Note_on_c, 8, 64, 90
10, 11697, Note_on_c, 8, 61, 0
10, 11697, Note_on_c, 8, 56, 0
10, 11698, Note_on_c, 8, 64, 0
10, 11700, Note_on_c, 8, 57, 90
10, 11700, Note_on_c, 8, 59, 90
10, 11700, Note_on_c, 8, 64, 90
10, 11876, Note_on_c, 8, 59, 0
10, 11876, Note_on_c, 8, 57, 0
10, 11877, Note_on_c, 8, 64, 0
10, 11880, Note_on_c, 8, 61, 90
10, 11880, Note_on_c, 8, 64, 90
10, 11880, Note_on_c, 8, 69, 90
10, 11997, Note_on_c, 8, 61, 0
10, 11998, Note_on_c, 8, 69, 0
10, 11998, Note_on_c, 8, 64, 0
10, 12000, Note_on_c, 8, 61, 90
10, 12000, Note_on_c, 8, 64, 90
10, 12000, Note_on_c, 8, 69, 90
10, 12056, Note_on_c, 8, 64, 0
10, 12056, Note_on_c, 8, 61, 0
10, 12058, Note_on_c, 8, 69, 0
10, 12060, Note_on_c, 8, 57, 90
10, 12060, Note_on_c, 8, 61, 90
10, 12060, Note_on_c, 8, 64, 90
10, 12116, Note_on_c, 8, 57, 0
10, 12118, Note_on_c, 8, 64, 0
10, 12118, Note_on_c, 8, 61, 0
10, 12120, Note_on_c, 8, 57, 90
10, 12120, Note_on_c, 8, 62, 90
10, 12120, Note_on_c, 8, 64, 90
10, 12177, Note_on_c, 8, 57, 0
10, 12178, Note_on_c, 8, 64, 0
10, 12178, Note_on_c, 8, 62, 0
10, 12180, Note_on_c, 8, 61, 90
10, 12180, Note_on_c, 8, 64, 90
10, 12180, Note_on_c, 8, 69, 90
10, 12296, Note_on_c, 8, 69, 0
10, 12298, Note_on_c, 8, 64, 0
10, 12298, Note_on_c, 8, 61, 0
10, 12300, Note_on_c, 8, 59, 90
10, 12300, Note_on_c, 8, 64, 90
10, 12300, Note_on_c, 8, 68, 90
10, 12357, Note_on_c, 8, 64, 0
10, 12358, Note_on_c, 8, 68, 0
10, 12358, Note_on_c, 8, 59, 0
10, 12360, Note_on_c, 8, 61, 90
10, 12360, Note_on_c, 8, 65, 90
10, 12360, Note_on_c, 8, 68, 90
10, 12417, Note_on_c, 8, 68, 0
10, 12417, Note_on_c, 8, 65, 0
10, 12417, Note_on_c, 8, 61, 0
10, 12420, Note_on_c, 8, 61, 90
10, 12420, Note_on_c, 8, 64, 90
10, 12420, Note_on_c, 8, 69, 90
10, 12597, Note_on_c, 8, 69, 0
10, 12598, Note_on_c, 8, 64, 0
10, 12598, Note_on_c, 8, 61, 0
10, 12600, Note_on_c, 8, 59, 90
10, 12600, Note_on_c, 8, 66, 90
10, 12600, Note_on_c, 8, 68, 90
10, 12657, Note_on_c, 8, 66, 0
10, 12657, Note_on_c, 8, 59, 0
10, 12658, Note_on_c, 8, 68, 0
10, 12660, Note_on_c, 8, 59, 90
10, 12660, Note_on_c, 8, 64, 90
10, 12660, Note_on_c, 8, 68, 90
10, 12776, Note_on_c, 8, 59, 0
10, 12777, Note_on_c, 8, 64, 0
10, 12778, Note_on_c, 8, 68, 0
10, 12780, Note_on_c, 8, 59, 90
10, 12780, Note_on_c, 8, 64, 90
10, 12780, Note_on_c, 8, 68, 90
10, 12837, Note_on_c, 8, 59, 0
10, 12838, Note_on_c, 8, 68, 0
10, 12838, Note_on_c, 8, 64, 0
10, 12840, Note_on_c, 8, 59, 90
10, 12840, Note_on_c, 8, 64, 90
10, 12840, Note_on_c, 8, 68, 90
10, 12896, Note_on_c, 8, 68, 0
10, 12896, Note_on_c, 8, 64, 0
10, 12898, Note_on_c, 8, 59, 0
10, 12900, Note_on_c, 8, 59, 90
10, 12900, Note_on_c, 8, 64, 90
10, 12900, Note_on_c, 8, 68, 90
10, 12956, Note_on_c, 8, 68, 0
10, 12958, Note_on_c, 8, 64, 0
10, 12958, Note_on_c, 8, 59, 0
10, 12960, Note_on_c, 8, 57, 90
10, 12960, Note_on_c, 8, 61, 90
10, 12960, Note_on_c, 8, 64, 90
10, 13076, Note_on_c, 8, 64, 0
10, 13078, Note_on_c, 8, 61, 0
10, 13078, Note_on_c, 8, 57, 0
10, 13080, Note_on_c, 8, 57, 90
10, 13080, Note_on_c, 8, 61, 90
10, 13080, Note_on_c, 8, 64, 90
10, 13136, Note_on_c, 8, 57, 0
10, 13137, Note_on_c, 8, 61, 0
10, 13138, Note_on_c, 8, 64, 0
10, 13140, Note_on_c, 8, 57, 90
10, 13140, Note_on_c, 8, 61, 90
10, 13140, Note_on_c, 8, 64, 90
10, 13436, Note_on_c, 8, 64, 0
10, 13436, Note_on_c, 8, 57, 0
10, 13438, Note_on_c, 8, 61, 0
10, 13440, Note_on_c, 8, 56, 90
10, 13440, Note_on_c, 8, 59, 90
10, 13440, Note_on_c, 8, 64, 90
10, 13916, Note_on_c, 8, 59, 0
10, 13918, Note_on_c, 8, 64, 0
10, 13918, Note_on_c, 8, 56, 0
10, 13920, Note_on_c, 8, 59, 90
10, 13920, Note_on_c, 8, 63, 90
10, 13920, Note_on_c, 8, 66, 90
10, 13976, Note_on_c, 8, 63, 0
10, 13976, Note_on_c, 8, 59, 0
10, 13978, Note_on_c, 8, 66, 0
10, 13980, Note_on_c, 8, 59, 90
10, 13980, Note_on_c, 8, 63, 90
10, 13980, Note_on_c, 8, 66, 90
10, 14036, Note_on_c, 8, 66, 0
10, 14037, Note_on_c, 8, 59, 0
10, 14038, Note_on_c, 8, 63, 0
10, 14040, Note_on_c, 8, 56, 90
10, 14040, Note_on_c, 8, 59, 90
10, 14040, Note_on_c, 8, 64, 90
10, 14096, Note_on_c, 8, 59, 0
10, 14098, Note_on_c, 8, 64, 0
10, 14098, Note_on_c, 8, 56, 0
10, 14100, Note_on_c, 8, 59, 70
10, 14100, Note_on_c, 8, 63, 70
10, 14100, Note_on_c, 8, 66, 70
10, 14397, Note_on_c, 8, 63, 0
10, 14397, Note_on_c, 8, 59, 0
10, 14398, Note_on_c, 8, 66, 0
10, 14400, Note_on_c, 8, 59, 90
10, 14400, Note_on_c, 8, 64, 90
10, 14400, Note_on_c, 8, 68, 90
10, 14456, Note_on_c, 8, 64, 0
10, 14458, Note_on_c, 8, 68, 0
10, 14458, Note_on_c, 8, 59, 0
10, 14460, Note_on_c, 8, 56, 90
10, 14460, Note_on_c, 8, 59, 90
10, 14460, Note_on_c, 8, 64, 90
10, 14578, Note_on_c, 8, 64, 0
10, 14578, Note_on_c, 8, 59, 0
10, 14578, Note_on_c, 8, 56, 0
10, 14580, Note_on_c, 8, 59, 90
10, 14580, Note_on_c, 8, 63, 90
10, 14580, Note_on_c, 8, 66, 90
10, 14697, Note_on_c, 8, 66, 0
10, 14698, Note_on_c, 8, 63, 0
10, 14698, Note_on_c, 8, 59, 0
10, 14700, Note_on_c, 8, 56, 90
10, 14700, Note_on_c, 8, 61, 90
10, 14700, Note_on_c, 8, 64, 90
10, 14877, Note_on_c, 8, 64, 0
10, 14877, Note_on_c, 8, 61, 0
10, 14877, Note_on_c, 8, 56, 0
10, 14880, Note_on_c, 8, 61, 90
10, 14880, Note_on_c, 8, 64, 90
10, 14880, Note_on_c, 8, 68, 90
10, 15117, Note_on_c, 8, 68, 0
10, 15117, Note_on_c, 8, 64, 0
10, 15117, Note_on_c, 8, 61, 0
10, 15120, Note_on_c, 8, 57, 90
10, 15120, Note_on_c, 8, 61, 90
10, 15120, Note_on_c, 8, 64, 90
10, 15176, Note_on_c, 8, 64, 0
10, 15176, Note_on_c, 8, 61, 0
10, 15178, Note_on_c, 8, 57, 0
10, 15180, Note_on_c, 8, 61, 90
10, 15180, Note_on_c, 8, 64, 90
10, 15180, Note_on_c, 8, 69, 90
10, 15236, Note_on_c, 8, 69, 0
10, 15238, Note_on_c, 8, 64, 0
10, 15238, Note_on_c, 8, 61, 0
10, 15240, Note_on_c, 8, 57, 90
10, 15240, Note_on_c, 8, 61, 90
10, 15240, Note_on_c, 8, 64, 90
10, 15296, Note_on_c, 8, 57, 0
10, 15297, Note_on_c, 8, 64, 0
10, 15297, Note_on_c, 8, 61, 0
10, 15300, Note_on_c, 8, 59, 90
10, 15300, Note_on_c, 8, 63, 90
10, 15300, Note_on_c, 8, 66, 90
10, 15357, Note_on_c, 8, 66, 0
10, 15357, Note_on_c, 8, 63, 0
10, 15358, Note_on_c, 8, 59, 0
10, 15360, Note_on_c, 8, 59, 90
10, 15360, Note_on_c, 8, 64, 90
10, 15360, Note_on_c, 8, 68, 90
10, 15476, Note_on_c, 8, 68, 0
10, 15476, Note_on_c, 8, 59, 0
10, 15478, Note_on_c, 8, 64, 0
10, 15480, Note_on_c, 8, 56, 90
10, 15480, Note_on_c, 8, 59, 90
10, 15480, Note_on_c, 8, 64, 90
10, 15536, Note_on_c, 8, 59, 0
10, 15538, Note_on_c, 8, 64, 0
10, 15538, Note_on_c, 8, 56, 0
10, 15540, Note_on_c, 8, 59, 90
10, 15540, Note_on_c, 8, 64, 90
10, 15540, Note_on_c, 8, 68, 90
10, 15658, Note_on_c, 8, 68, 0
10, 15658, Note_on_c, 8, 64, 0
10, 15658, Note_on_c, 8, 59, 0
10, 15660, Note_on_c, 8, 59, 90
10, 15660, Note_on_c, 8, 63, 90
10, 15660, Note_on_c, 8, 66, 90
10, 15716, Note_on_c, 8, 66, 0
10, 15717, Note_on_c, 8, 63, 0
10, 15718, Note_on_c, 8, 59, 0
10, 15720, Note_on_c, 8, 59, 90
10, 15720, Note_on_c, 8, 63, 90
10, 15720, Note_on_c, 8, 66, 90
10, 15777, Note_on_c, 8, 63, 0
10, 15778, Note_on_c, 8, 66, 0
10, 15778, Note_on_c, 8, 59, 0
10, 15780, Note_on_c, 8, 56, 90
10, 15780, Note_on_c, 8, 61, 90
10, 15780, Note_on_c, 8, 64, 90
10, 16016, Note_on_c, 8, 64, 0
10, 16018, Note_on_c, 8, 61, 0
10, 16018, Note_on_c, 8, 56, 0
10, 16020, Note_on_c, 8, 56, 90
10, 16020, Note_on_c, 8, 59, 90
10, 16020, Note_on_c, 8, 64, 90
10, 16076, Note_on_c, 8, 64, 0
10, 16076, Note_on_c, 8, 59, 0
10, 16077, Note_on_c, 8, 56, 0
10, 16080, Note_on_c, 8, 61, 90
10, 16080, Note_on_c, 8, 64, 90
10, 16080, Note_on_c, 8, 69, 90
10, 16137, Note_on_c, 8, 69, 0
10, 16137, Note_on_c, 8, 64, 0
10, 16138, Note_on_c, 8, 61, 0
10, 16140, Note_on_c, 8, 61, 90
10, 16140, Note_on_c, 8, 64, 90
10, 16140, Note_on_c, 8, 69, 90
10, 16197, Note_on_c, 8, 64, 0
10, 16197, Note_on_c, 8, 61, 0
10, 16198, Note_on_c, 8, 69, 0
10, 16200, Note_on_c, 8, 61, 90
10, 16200, Note_on_c, 8, 64, 90
10, 16200, Note_on_c, 8, 69, 90
10, 16256, Note_on_c, 8, 69, 0
10, 16256, Note_on_c, 8, 64, 0
10, 16256, Note_on_c, 8, 61, 0
10, 16260, Note_on_c, 8, 59, 90
10, 16260, Note_on_c, 8, 63, 90
10, 16260, Note_on_c, 8, 66, 90
10, 16316, Note_on_c, 8, 63, 0
10, 16316, Note_on_c, 8, 59, 0
10, 16318, Note_on_c, 8, 66, 0
10, 16320, Note_on_c, 8, 59, 90
10, 16320, Note_on_c, 8, 64, 90
10, 16320, Note_on_c, 8, 68, 90
10, 16436, Note_on_c, 8, 68, 0
10, 16436, Note_on_c, 8, 59, 0
10, 16438, Note_on_c, 8, 64, 0
10, 16440, Note_on_c, 8, 59, 90
10, 16440, Note_on_c, 8, 64, 90
10, 16440, Note_on_c, 8, 68, 90
10, 16496, Note_on_c, 8, 64, 0
10, 16497, Note_on_c, 8, 68, 0
10, 16497, Note_on_c, 8, 59, 0
10, 16500, Note_on_c, 8, 59, 90
10, 16500, Note_on_c, 8, 64, 90
10, 16500, Note_on_c, 8, 68, 90
10, 16556, Note_on_c, 8, 68, 0
10, 16557, Note_on_c, 8, 64, 0
10, 16557, Note_on_c, 8, 59, 0
10, 16560, Note_on_c, 8, 56, 90
10, 16560, Note_on_c, 8, 59, 90
10, 16560, Note_on_c, 8, 64, 90
10, 16617, Note_on_c, 8, 56, 0
10, 16618, Note_on_c, 8, 64, 0
10, 16618, Note_on_c, 8, 59, 0
10, 16620, Note_on_c, 8, 59, 90
10, 16620, Note_on_c, 8, 63, 90
10, 16620, Note_on_c, 8, 66, 90
10, 16677, Note_on_c, 8, 66, 0
10, 16677, Note_on_c, 8, 63, 0
10, 16677, Note_on_c, 8, 59, 0
10, 16680, Note_on_c, 8, 59, 90
10, 16680, Note_on_c, 8, 63, 90
10, 16680, Note_on_c, 8, 66, 90
10, 16736, Note_on_c, 8, 63, 0
10, 16737, Note_on_c, 8, 66, 0
10, 16738, Note_on_c, 8, 59, 0
10, 16740, Note_on_c, 8, 61, 90
10, 16740, Note_on_c, 8, 64, 90
10, 16740, Note_on_c, 8, 68, 90
10, 16976, Note_on_c, 8, 64, 0
10, 16977, Note_on_c, 8, 68, 0
10, 16977, Note_on_c, 8, 61, 0
10, 16980, Note_on_c, 8, 59, 90
10, 16980, Note_on_c, 8, 63, 90
10, 16980, Note_on_c, 8, 66, 90
10, 17037, Note_on_c, 8, 63, 0
10, 17038, Note_on_c, 8, 66, 0
10, 17038, Note_on_c, 8, 59, 0
10, 17040, Note_on_c, 8, 56, 90
10, 17040, Note_on_c, 8, 61, 90
10, 17040, Note_on_c, 8, 65, 90
10, 17096, Note_on_c, 8, 61, 0
10, 17096, Note_on_c, 8, 56, 0
10, 17097, Note_on_c, 8, 65, 0
10, 17100, Note_on_c, 8, 61, 90
10, 17100, Note_on_c, 8, 64, 90
10, 17100, Note_on_c, 8, 69, 90
10, 17156, Note_on_c, 8, 64, 0
10, 17157, Note_on_c, 8, 69, 0
10, 17157, Note_on_c, 8, 61, 0
10, 17160, Note_on_c, 8, 59, 90
10, 17160, Note_on_c, 8, 63, 90
10, 17160, Note_on_c, 8, 66, 90
10, 17276, Note_on_c, 8, 66, 0
10, 17276, Note_on_c, 8, 63, 0
10, 17276, Note_on_c, 8, 59, 0
10, 17280, Note_on_c, 8, 59, 90
10, 17280, Note_on_c, 8, 64, 90
10, 17280, Note_on_c, 8, 68, 90
10, 17396, Note_on_c, 8, 64, 0
10, 17396, Note_on_c, 8, 59, 0
10, 17398, Note_on_c, 8, 68, 0
10, 17400, Note_on_c, 8, 59, 90
10, 17400, Note_on_c, 8, 64, 90
10, 17400, Note_on_c, 8, 68, 90
10, 17456, Note_on_c, 8, 64, 0
10, 17458, Note_on_c, 8, 68, 0
10, 17458, Note_on_c, 8, 59, 0
10, 17460, Note_on_c, 8, 56, 90
10, 17460, Note_on_c, 8, 59, 90
10, 17460, Note_on_c, 8, 64, 90
10, 17576, Note_on_c, 8, 64, 0
10, 17577, Note_on_c, 8, 59, 0
10, 17577, Note_on_c, 8, 56, 0
10, 17580, Note_on_c, 8, 59, 90
10, 17580, Note_on_c, 8, 63, 90
10, 17580, Note_on_c, 8, 66, 90
10, 17636, Note_on_c, 8, 66, 0
10, 17638, Note_on_c, 8, 63, 0
10, 17638, Note_on_c, 8, 59, 0
10, 17640, Note_on_c, 8, 59, 90
10, 17640, Note_on_c, 8, 63, 90
10, 17640, Note_on_c, 8, 66, 90
10, 17697, Note_on_c, 8, 66, 0
10, 17697, Note_on_c, 8, 63, 0
10, 17697, Note_on_c, 8, 59, 0
10, 17700, Note_on_c, 8, 61, 90
10, 17700, Note_on_c, 8, 64, 90
10, 17700, Note_on_c, 8, 68, 90
10, 17936, Note_on_c, 8, 64, 0
10, 17937, Note_on_c, 8, 68, 0
10, 17938, Note_on_c, 8, 61, 0
10, 17940, Note_on_c, 8, 57, 90
10, 17940, Note_on_c, 8, 59, 90
10, 17940, Note_on_c, 8, 64, 90
10, 17996, Note_on_c, 8, 59, 0
10, 17998, Note_on_c, 8, 64, 0
10, 17998, Note_on_c, 8, 57, 0
10, 18000, Note_on_c, 8, 57, 90
10, 18000, Note_on_c, 8, 61, 90
10, 18000, Note_on_c, 8, 64, 90
10, 18056, Note_on_c, 8, 61, 0
10, 18058, Note_on_c, 8, 64, 0
10, 18058, Note_on_c, 8, 57, 0
10, 18060, Note_on_c, 8, 61, 90
10, 18060, Note_on_c, 8, 64, 90
10, 18060, Note_on_c, 8, 69, 90
10, 18236, Note_on_c, 8, 69, 0
10, 18237, Note_on_c, 8, 64, 0
10, 18238, Note_on_c, 8, 61, 0
10, 18240, Note_on_c, 8, 57, 90
10, 18240, Note_on_c, 8, 61, 90
10, 18240, Note_on_c, 8, 64, 90
10, 18298, Note_on_c, 8, 64, 0
10, 18298, Note_on_c, 8, 61, 0
10, 18298, Note_on_c, 8, 57, 0
10, 18300, Note_on_c, 8, 57, 90
10, 18300, Note_on_c, 8, 61, 90
10, 18300, Note_on_c, 8, 64, 90
10, 18357, Note_on_c, 8, 61, 0
10, 18358, Note_on_c, 8, 64, 0
10, 18358, Note_on_c, 8, 57, 0
10, 18360, Note_on_c, 8, 57, 90
10, 18360, Note_on_c, 8, 62, 90
10, 18360, Note_on_c, 8, 64, 90
10, 18417, Note_on_c, 8, 64, 0
10, 18417, Note_on_c, 8, 62, 0
10, 18417, Note_on_c, 8, 57, 0
10, 18420, Note_on_c, 8, 61, 90
10, 18420, Note_on_c, 8, 64, 90
10, 18420, Note_on_c, 8, 69, 90
10, 18656, Note_on_c, 8, 64, 0
10, 18657, Note_on_c, 8, 61, 0
10, 18658, Note_on_c, 8, 69, 0
10, 18660, Note_on_c, 8, 57, 90
10, 18660, Note_on_c, 8, 61, 90
10, 18660, Note_on_c, 8, 64, 90
10, 18716, Note_on_c, 8, 57, 0
10, 18717, Note_on_c, 8, 64, 0
10, 18717, Note_on_c, 8, 61, 0
10, 18720, Note_on_c, 8, 59, 90
10, 18720, Note_on_c, 8, 64, 90
10, 18720, Note_on_c, 8, 68, 90
10, 18837, Note_on_c, 8, 64, 0
10, 18838, Note_on_c, 8, 68, 0
10, 18838, Note_on_c, 8, 59, 0
10, 18840, Note_on_c, 8, 56, 90
10, 18840, Note_on_c, 8, 59, 90
10, 18840, Note_on_c, 8, 66, 90
10, 18957, Note_on_c, 8, 66, 0
10, 18957, Note_on_c, 8, 59, 0
10, 18957, Note_on_c, 8, 56, 0
10, 18960, Note_on_c, 8, 56, 70
10, 18960, Note_on_c, 8, 59, 70
10, 18960, Note_on_c, 8, 66, 70
10, 19016, Note_on_c, 8, 59, 0
10, 19017, Note_on_c, 8, 66, 0
10, 19017, Note_on_c, 8, 56, 0
10, 19020, Note_on_c, 8, 56, 90
10, 19020, Note_on_c, 8, 59, 90
10, 19020, Note_on_c, 8, 66, 90
10, 19138, Note_on_c, 8, 66, 0
10, 19138, Note_on_c, 8, 59, 0
10, 19138, Note_on_c, 8, 56, 0
10, 19140, Note_on_c, 8, 56, 90
10, 19140, Note_on_c, 8, 59, 90
10, 19140, Note_on_c, 8, 66, 90
10, 19196, Note_on_c, 8, 59, 0
10, 19196, Note_on_c, 8, 56, 0
10, 19197, Note_on_c, 8, 66, 0
10, 19200, Note_on_c, 8, 57, 90
10, 19200, Note_on_c, 8, 61, 90
10, 19200, Note_on_c, 8, 64, 90
10, 19560, Note_on_c, 8, 57, 89
10, 19677, Note_on_c, 8, 64, 0
10, 19677, Note_on_c, 8, 57, 0
10, 19677, Note_on_c, 8, 61, 0
10, 19680, Note_on_c, 8, 57, 0
10, 19680, Note_on_c, 8, 56, 90
10, 19680, Note_on_c, 8, 59, 90
10, 19680, Note_on_c, 8, 64, 90
10, 20156, Note_on_c, 8, 59, 0
10, 20156, Note_on_c, 8, 56, 0
10, 20157, Note_on_c, 8, 64, 0
10, 20160, Note_on_c, 8, 59, 90
10, 20160, Note_on_c, 8, 63, 90
10, 20160, Note_on_c, 8, 66, 90
10, 20216, Note_on_c, 8, 63, 0
10, 20217, Note_on_c, 8, 66, 0
10, 20218, Note_on_c, 8, 59, 0
10, 20220, Note_on_c, 8, 59, 90
10, 20220, Note_on_c, 8, 63, 90
10, 20220, Note_on_c, 8, 66, 90
10, 20276, Note_on_c, 8, 66, 0
10, 20276, Note_on_c, 8, 63, 0
10, 20278, Note_on_c, 8, 59, 0
10, 20280, Note_on_c, 8, 56, 90
10, 20280, Note_on_c, 8, 59, 90
10, 20280, Note_on_c, 8, 64, 90
10, 20337, Note_on_c, 8, 64, 0
10, 20337, Note_on_c, 8, 59, 0
10, 20337, Note_on_c, 8, 56, 0
10, 20340, Note_on_c, 8, 59, 90
10, 20340, Note_on_c, 8, 63, 90
10, 20340, Note_on_c, 8, 66, 90
10, 20636, Note_on_c, 8, 63, 0
10, 20637, Note_on_c, 8, 66, 0
10, 20638, Note_on_c, 8, 59, 0
10, 20640, Note_on_c, 8, 59, 90
10, 20640, Note_on_c, 8, 63, 90
10, 20640, Note_on_c, 8, 66, 90
10, 20876, Note_on_c, 8, 63, 0
10, 20877, Note_on_c, 8, 66, 0
10, 20877, Note_on_c, 8, 59, 0
10, 20880, Note_on_c, 8, 59, 70
10, 20880, Note_on_c, 8, 63, 70
10, 20880, Note_on_c, 8, 66, 70
10, 21117, Note_on_c, 8, 63, 0
10, 21118, Note_on_c, 8, 66, 0
10, 21118, Note_on_c, 8, 59, 0
10, 21120, Note_on_c, 8, 59, 90
10, 21120, Note_on_c, 8, 64, 90
10, 21120, Note_on_c, 8, 68, 90
10, 21416, Note_on_c, 8, 68, 0
10, 21417, Note_on_c, 8, 64, 0
10, 21418, Note_on_c, 8, 59, 0
10, 21420, Note_on_c, 8, 59, 90
10, 21420, Note_on_c, 8, 63, 90
10, 21420, Note_on_c, 8, 66, 90
10, 21536, Note_on_c, 8, 66, 0
10, 21537, Note_on_c, 8, 63, 0
10, 21538, Note_on_c, 8, 59, 0
10, 21540, Note_on_c, 8, 61, 90
10, 21540, Note_on_c, 8, 64, 90
10, 21540, Note_on_c, 8, 68, 90
10, 21718, Note_on_c, 8, 68, 0
10, 21718, Note_on_c, 8, 64, 0
10, 21718, Note_on_c, 8, 61, 0
10, 21720, Note_on_c, 8, 59, 90
10, 21720, Note_on_c, 8, 64, 90
10, 21720, Note_on_c, 8, 69, 90
10, 21776, Note_on_c, 8, 69, 0
10, 21778, Note_on_c, 8, 64, 0
10, 21778, Note_on_c, 8, 59, 0
10, 21780, Note_on_c, 8, 57, 90
10, 21780, Note_on_c, 8, 61, 90
10, 21780, Note_on_c, 8, 64, 90
10, 22018, Note_on_c, 8, 64, 0
10, 22018, Note_on_c, 8, 61, 0
10, 22018, Note_on_c, 8, 57, 0
10, 22020, Note_on_c, 8, 59, 90
10, 22020, Note_on_c, 8, 63, 90
10, 22020, Note_on_c, 8, 66, 90
10, 22076, Note_on_c, 8, 63, 0
10, 22077, Note_on_c, 8, 59, 0
10, 22078, Note_on_c, 8, 66, 0
10, 22080, Note_on_c, 8, 56, 90
10, 22080, Note_on_c, 8, 59, 90
10, 22080, Note_on_c, 8, 64, 90
10, 22316, Note_on_c, 8, 64, 0
10, 22317, Note_on_c, 8, 59, 0
10, 22317, Note_on_c, 8, 56, 0
10, 22320, Note_on_c, 8, 59, 90
10, 22320, Note_on_c, 8, 63, 90
10, 22320, Note_on_c, 8, 66, 90
10, 22497, Note_on_c, 8, 66, 0
10, 22498, Note_on_c, 8, 63, 0
10, 22498, Note_on_c, 8, 59, 0
10, 22500, Note_on_c, 8, 56, 90
10, 22500, Note_on_c, 8, 61, 90
10, 22500, Note_on_c, 8, 64, 90
10, 22677, Note_on_c, 8, 64, 0
10, 22677, Note_on_c, 8, 61, 0
10, 22677, Note_on_c, 8, 56, 0
10, 22680, Note_on_c, 8, 57, 90
10, 22680, Note_on_c, 8, 59, 90
10, 22680, Note_on_c, 8, 64, 90
10, 22736, Note_on_c, 8, 59, 0
10, 22737, Note_on_c, 8, 57, 0
10, 22738, Note_on_c, 8, 64, 0
10, 22740, Note_on_c, 8, 61, 90
10, 22740, Note_on_c, 8, 64, 90
10, 22740, Note_on_c, 8, 69, 90
10, 22977, Note_on_c, 8, 69, 0
10, 22977, Note_on_c, 8, 64, 0
10, 22978, Note_on_c, 8, 61, 0
10, 22980, Note_on_c, 8, 59, 90
10, 22980, Note_on_c, 8, 63, 90
10, 22980, Note_on_c, 8, 66, 90
10, 23036, Note_on_c, 8, 66, 0
10, 23036, Note_on_c, 8, 63, 0
10, 23038, Note_on_c, 8, 59, 0
10, 23040, Note_on_c, 8, 59, 90
10, 23040, Note_on_c, 8, 64, 90
10, 23040, Note_on_c, 8, 68, 90
10, 23216, Note_on_c, 8, 68, 0
10, 23218, Note_on_c, 8, 64, 0
10, 23218, Note_on_c, 8, 59, 0
10, 23220, Note_on_c, 8, 56, 70
10, 23220, Note_on_c, 8, 59, 70
10, 23220, Note_on_c, 8, 64, 70
10, 23276, Note_on_c, 8, 64, 0
10, 23276, Note_on_c, 8, 59, 0
10, 23277, Note_on_c, 8, 56, 0
10, 23280, Note_on_c, 8, 59, 90
10, 23280, Note_on_c, 8, 63, 90
10, 23280, Note_on_c, 8, 66, 90
10, 23396, Note_on_c, 8, 63, 0
10, 23397, Note_on_c, 8, 66, 0
10, 23398, Note_on_c, 8, 59, 0
10, 23400, Note_on_c, 8, 61, 90
10, 23400, Note_on_c, 8, 64, 90
10, 23400, Note_on_c, 8, 68, 90
10, 23516, Note_on_c, 8, 64, 0
10, 23517, Note_on_c, 8, 61, 0
10, 23518, Note_on_c, 8, 68, 0
10, 23520, Note_on_c, 8, 61, 90
10, 23520, Note_on_c, 8, 64, 90
10, 23520, Note_on_c, 8, 68, 90
10, 23636, Note_on_c, 8, 68, 0
10, 23636, Note_on_c, 8, 64, 0
10, 23636, Note_on_c, 8, 61, 0
10, 23640, Note_on_c, 8, 57, 90
10, 23640, Note_on_c, 8, 59, 90
10, 23640, Note_on_c, 8, 64, 90
10, 23756, Note_on_c, 8, 57, 0
10, 23757, Note_on_c, 8, 64, 0
10, 23758, Note_on_c, 8, 59, 0
10, 23760, Note_on_c, 8, 61, 90
10, 23760, Note_on_c, 8, 64, 90
10, 23760, Note_on_c, 8, 69, 90
10, 23936, Note_on_c, 8, 64, 0
10, 23937, Note_on_c, 8, 61, 0
10, 23938, Note_on_c, 8, 69, 0
10, 23940, Note_on_c, 8, 59, 90
10, 23940, Note_on_c, 8, 63, 90
10, 23940, Note_on_c, 8, 66, 90
10, 23996, Note_on_c, 8, 63, 0
10, 23996, Note_on_c, 8, 59, 0
10, 23997, Note_on_c, 8, 66, 0
10, 24000, Note_on_c, 8, 56, 90
10, 24000, Note_on_c, 8, 59, 90
10, 24000, Note_on_c, 8, 64, 90
10, 24296, Note_on_c, 8, 59, 0
10, 24298, Note_on_c, 8, 64, 0
10, 24298, Note_on_c, 8, 56, 0
10, 24300, Note_on_c, 8, 59, 90
10, 24300, Note_on_c, 8, 63, 90
10, 24300, Note_on_c, 8, 66, 90
10, 24416, Note_on_c, 8, 66, 0
10, 24416, Note_on_c, 8, 59, 0
10, 24417, Note_on_c, 8, 63, 0
10, 24420, Note_on_c, 8, 56, 90
10, 24420, Note_on_c, 8, 61, 90
10, 24420, Note_on_c, 8, 64, 90
10, 24656, Note_on_c, 8, 61, 0
10, 24657, Note_on_c, 8, 64, 0
10, 24657, Note_on_c, 8, 56, 0
10, 24660, Note_on_c, 8, 61, 70
10, 24660, Note_on_c, 8, 64, 70
10, 24660, Note_on_c, 8, 68, 70
10, 24717, Note_on_c, 8, 64, 0
10, 24717, Note_on_c, 8, 61, 0
10, 24718, Note_on_c, 8, 68, 0
10, 24720, Note_on_c, 8, 59, 90
10, 24720, Note_on_c, 8, 64, 90
10, 24720, Note_on_c, 8, 69, 90
10, 24777, Note_on_c, 8, 69, 0
10, 24778, Note_on_c, 8, 64, 0
10, 24778, Note_on_c, 8, 59, 0
10, 24780, Note_on_c, 8, 57, 90
10, 24780, Note_on_c, 8, 61, 90
10, 24780, Note_on_c, 8, 64, 90
10, 24896, Note_on_c, 8, 64, 0
10, 24896, Note_on_c, 8, 61, 0
10, 24896, Note_on_c, 8, 57, 0
10, 24900, Note_on_c, 8, 59, 90
10, 24900, Note_on_c, 8, 63, 90
10, 24900, Note_on_c, 8, 66, 90
10, 24956, Note_on_c, 8, 59, 0
10, 24957, Note_on_c, 8, 63, 0
10, 24958, Note_on_c, 8, 66, 0
10, 24960, Note_on_c, 8, 59, 90
10, 24960, Note_on_c, 8, 64, 90
10, 24960, Note_on_c, 8, 68, 90
10, 25136, Note_on_c, 8, 59, 0
10, 25138, Note_on_c, 8, 68, 0
10, 25138, Note_on_c, 8, 64, 0
10, 25140, Note_on_c, 8, 56, 70
10, 25140, Note_on_c, 8, 59, 70
10, 25140, Note_on_c, 8, 64, 70
10, 25257, Note_on_c, 8, 59, 0
10, 25258, Note_on_c, 8, 64, 0
10, 25258, Note_on_c, 8, 56, 0
10, 25260, Note_on_c, 8, 59, 90
10, 25260, Note_on_c, 8, 63, 90
10, 25260, Note_on_c, 8, 66, 90
10, 25376, Note_on_c, 8, 59, 0
10, 25377, Note_on_c, 8, 63, 0
10, 25378, Note_on_c, 8, 66, 0
10, 25380, Note_on_c, 8, 61, 90
10, 25380, Note_on_c, 8, 64, 90
10, 25380, Note_on_c, 8, 68, 90
10, 25616, Note_on_c, 8, 61, 0
10, 25617, Note_on_c, 8, 68, 0
10, 25617, Note_on_c, 8, 64, 0
10, 25620, Note_on_c, 8, 59, 90
10, 25620, Note_on_c, 8, 64, 90
10, 25620, Note_on_c, 8, 69, 90
10, 25677, Note_on_c, 8, 64, 0
10, 25677, Note_on_c, 8, 59, 0
10, 25678, Note_on_c, 8, 69, 0
10, 25680, Note_on_c, 8, 61, 90
10, 25680, Note_on_c, 8, 64, 90
10, 25680, Note_on_c, 8, 69, 90
10, 25857, Note_on_c, 8, 64, 0
10, 25857, Note_on_c, 8, 61, 0
10, 25858, Note_on_c, 8, 69, 0
10, 25860, Note_on_c, 8, 59, 90
10, 25860, Note_on_c, 8, 63, 90
10, 25860, Note_on_c, 8, 66, 90
10, 25916, Note_on_c, 8, 63, 0
10, 25916, Note_on_c, 8, 59, 0
10, 25917, Note_on_c, 8, 66, 0
10, 25920, Note_on_c, 8, 59, 90
10, 25920, Note_on_c, 8, 64, 90
10, 25920, Note_on_c, 8, 68, 90
10, 26216, Note_on_c, 8, 68, 0
10, 26216, Note_on_c, 8, 64, 0
10, 26218, Note_on_c, 8, 59, 0
10, 26220, Note_on_c, 8, 59, 90
10, 26220, Note_on_c, 8, 63, 90
10, 26220, Note_on_c, 8, 66, 90
10, 26336, Note_on_c, 8, 63, 0
10, 26338, Note_on_c, 8, 66, 0
10, 26338, Note_on_c, 8, 59, 0
10, 26340, Note_on_c, 8, 61, 90
10, 26340, Note_on_c, 8, 64, 90
10, 26340, Note_on_c, 8, 68, 90
10, 26577, Note_on_c, 8, 64, 0
10, 26578, Note_on_c, 8, 68, 0
10, 26578, Note_on_c, 8, 61, 0
10, 26580, Note_on_c, 8, 57, 90
10, 26580, Note_on_c, 8, 59, 90
10, 26580, Note_on_c, 8, 64, 90
10, 26636, Note_on_c, 8, 59, 0
10, 26638, Note_on_c, 8, 64, 0
10, 26638, Note_on_c, 8, 57, 0
10, 26640, Note_on_c, 8, 57, 90
10, 26640, Note_on_c, 8, 61, 90
10, 26640, Note_on_c, 8, 64, 90
10, 26816, Note_on_c, 8, 64, 0
10, 26816, Note_on_c, 8, 61, 0
10, 26817, Note_on_c, 8, 57, 0
10, 26820, Note_on_c, 8, 59, 90
10, 26820, Note_on_c, 8, 63, 90
10, 26820, Note_on_c, 8, 66, 90
10, 26876, Note_on_c, 8, 66, 0
10, 26877, Note_on_c, 8, 63, 0
10, 26877, Note_on_c, 8, 59, 0
10, 26880, Note_on_c, 8, 59, 90
10, 26880, Note_on_c, 8, 64, 90
10, 26880, Note_on_c, 8, 68, 90
10, 27176, Note_on_c, 8, 59, 0
10, 27178, Note_on_c, 8, 68, 0
10, 27178, Note_on_c, 8, 64, 0
10, 27180, Note_on_c, 8, 59, 90
10, 27180, Note_on_c, 8, 63, 90
10, 27180, Note_on_c, 8, 66, 90
10, 27356, Note_on_c, 8, 59, 0
10, 27357, Note_on_c, 8, 63, 0
10, 27358, Note_on_c, 8, 66, 0
10, 27360, Note_on_c, 8, 56, 90
10, 27360, Note_on_c, 8, 61, 90
10, 27360, Note_on_c, 8, 64, 90
10, 27537, Note_on_c, 8, 64, 0
10, 27538, Note_on_c, 8, 61, 0
10, 27538, Note_on_c, 8, 56, 0
10, 27540, Note_on_c, 8, 57, 90
10, 27540, Note_on_c, 8, 59, 90
10, 27540, Note_on_c, 8, 64, 90
10, 27597, Note_on_c, 8, 59, 0
10, 27597, Note_on_c, 8, 57, 0
10, 27598, Note_on_c, 8, 64, 0
10, 27600, Note_on_c, 8, 57, 90
10, 27600, Note_on_c, 8, 61, 90
10, 27600, Note_on_c, 8, 64, 90
10, 27777, Note_on_c, 8, 64, 0
10, 27777, Note_on_c, 8, 61, 0
10, 27777, Note_on_c, 8, 57, 0
10, 27780, Note_on_c, 8, 59, 90
10, 27780, Note_on_c, 8, 63, 90
10, 27780, Note_on_c, 8, 66, 90
10, 27836, Note_on_c, 8, 59, 0
10, 27837, Note_on_c, 8, 66, 0
10, 27837, Note_on_c, 8, 63, 0
10, 27840, Note_on_c, 8, 56, 90
10, 27840, Note_on_c, 8, 59, 90
10, 27840, Note_on_c, 8, 64, 90
10, 28016, Note_on_c, 8, 64, 0
10, 28017, Note_on_c, 8, 56, 0
10, 28018, Note_on_c, 8, 59, 0
10, 28020, Note_on_c, 8, 59, 90
10, 28020, Note_on_c, 8, 63, 90
10, 28020, Note_on_c, 8, 66, 90
10, 28256, Note_on_c, 8, 66, 0
10, 28256, Note_on_c, 8, 59, 0
10, 28258, Note_on_c, 8, 63, 0
10, 28260, Note_on_c, 8, 56, 90
10, 28260, Note_on_c, 8, 61, 90
10, 28260, Note_on_c, 8, 64, 90
10, 28436, Note_on_c, 8, 64, 0
10, 28436, Note_on_c, 8, 61, 0
10, 28437, Note_on_c, 8, 56, 0
10, 28440, Note_on_c, 8, 59, 90
10, 28440, Note_on_c, 8, 64, 90
10, 28440, Note_on_c, 8, 69, 90
10, 28556, Note_on_c, 8, 69, 0
10, 28556, Note_on_c, 8, 64, 0
10, 28557, Note_on_c, 8, 59, 0
10, 28560, Note_on_c, 8, 61, 90
10, 28560, Note_on_c, 8, 64, 90
10, 28560, Note_on_c, 8, 69, 90
10, 28737, Note_on_c, 8, 69, 0
10, 28737, Note_on_c, 8, 64, 0
10, 28737, Note_on_c, 8, 61, 0
10, 28740, Note_on_c, 8, 59, 90
10, 28740, Note_on_c, 8, 63, 90
10, 28740, Note_on_c, 8, 66, 90
10, 28797, Note_on_c, 8, 66, 0
10, 28797, Note_on_c, 8, 59, 0
10, 28798, Note_on_c, 8, 63, 0
10, 28800, Note_on_c, 8, 59, 90
10, 28800, Note_on_c, 8, 64, 90
10, 28800, Note_on_c, 8, 68, 90
10, 28976, Note_on_c, 8, 64, 0
10, 28976, Note_on_c, 8, 59, 0
10, 28978, Note_on_c, 8, 68, 0
10, 28980, Note_on_c, 8, 59, 70
10, 28980, Note_on_c, 8, 64, 70
10, 28980, Note_on_c, 8, 68, 70
10, 29036, Note_on_c, 8, 68, 0
10, 29036, Note_on_c, 8, 59, 0
10, 29038, Note_on_c, 8, 64, 0
10, 29040, Note_on_c, 8, 59, 90
10, 29040, Note_on_c, 8, 63, 90
10, 29040, Note_on_c, 8, 66, 90
10, 29216, Note_on_c, 8, 66, 0
10, 29217, Note_on_c, 8, 63, 0
10, 29218, Note_on_c, 8, 59, 0
10, 29220, Note_on_c, 8, 56, 90
10, 29220, Note_on_c, 8, 61, 90
10, 29220, Note_on_c, 8, 64, 90
10, 29456, Note_on_c, 8, 61, 0
10, 29457, Note_on_c, 8, 64, 0
10, 29457, Note_on_c, 8, 56, 0
10, 29460, Note_on_c, 8, 59, 90
10, 29460, Note_on_c, 8, 64, 90
10, 29460, Note_on_c, 8, 69, 90
10, 29517, Note_on_c, 8, 69, 0
10, 29518, Note_on_c, 8, 64, 0
10, 29518, Note_on_c, 8, 59, 0
10, 29520, Note_on_c, 8, 57, 90
10, 29520, Note_on_c, 8, 61, 90
10, 29520, Note_on_c, 8, 64, 90
10, 29696, Note_on_c, 8, 64, 0
10, 29697, Note_on_c, 8, 61, 0
10, 29697, Note_on_c, 8, 57, 0
10, 29700, Note_on_c, 8, 59, 90
10, 29700, Note_on_c, 8, 63, 90
10, 29700, Note_on_c, 8, 66, 90
10, 29756, Note_on_c, 8, 66, 0
10, 29757, Note_on_c, 8, 59, 0
10, 29758, Note_on_c, 8, 63, 0
10, 29760, Note_on_c, 8, 56, 90
10, 29760, Note_on_c, 8, 59, 90
10, 29760, Note_on_c, 8, 64, 90
10, 30056, Note_on_c, 8, 64, 0
10, 30056, Note_on_c, 8, 59, 0
10, 30058, Note_on_c, 8, 56, 0
10, 30060, Note_on_c, 8, 59, 90
10, 30060, Note_on_c, 8, 63, 90
10, 30060, Note_on_c, 8, 66, 90
10, 30236, Note_on_c, 8, 63, 0
10, 30237, Note_on_c, 8, 66, 0
10, 30238, Note_on_c, 8, 59, 0
10, 30240, Note_on_c, 8, 61, 90
10, 30240, Note_on_c, 8, 64, 90
10, 30240, Note_on_c, 8, 68, 90
10, 30416, Note_on_c, 8, 68, 0
10, 30416, Note_on_c, 8, 64, 0
10, 30417, Note_on_c, 8, 61, 0
10, 30420, Note_on_c, 8, 57, 90
10, 30420, Note_on_c, 8, 59, 90
10, 30420, Note_on_c, 8, 64, 90
10, 30477, Note_on_c, 8, 64, 0
10, 30478, Note_on_c, 8, 59, 0
10, 30478, Note_on_c, 8, 57, 0
10, 30480, Note_on_c, 8, 57, 90
10, 30480, Note_on_c, 8, 61, 90
10, 30480, Note_on_c, 8, 64, 90
10, 30656, Note_on_c, 8, 64, 0
10, 30656, Note_on_c, 8, 61, 0
10, 30657, Note_on_c, 8, 57, 0
10, 30660, Note_on_c, 8, 59, 90
10, 30660, Note_on_c, 8, 63, 90
10, 30660, Note_on_c, 8, 66, 90
10, 30716, Note_on_c, 8, 66, 0
10, 30717, Note_on_c, 8, 63, 0
10, 30718, Note_on_c, 8, 59, 0
10, 30720, Note_on_c, 8, 59, 90
10, 30720, Note_on_c, 8, 64, 90
10, 30720, Note_on_c, 8, 68, 90
10, 31016, Note_on_c, 8, 64, 0
10, 31017, Note_on_c, 8, 68, 0
10, 31018, Note_on_c, 8, 59, 0
10, 31020, Note_on_c, 8, 59, 90
10, 31020, Note_on_c, 8, 63, 90
10, 31020, Note_on_c, 8, 66, 90
10, 31136, Note_on_c, 8, 63, 0
10, 31137, Note_on_c, 8, 66, 0
10, 31138, Note_on_c, 8, 59, 0
10, 31140, Note_on_c, 8, 56, 90
10, 31140, Note_on_c, 8, 61, 90
10, 31140, Note_on_c, 8, 64, 90
10, 31377, Note_on_c, 8, 64, 0
10, 31377, Note_on_c, 8, 61, 0
10, 31377, Note_on_c, 8, 56, 0
10, 31380, Note_on_c, 8, 57, 90
10, 31380, Note_on_c, 8, 59, 90
10, 31380, Note_on_c, 8, 64, 90
10, 31436, Note_on_c, 8, 59, 0
10, 31438, Note_on_c, 8, 64, 0
10, 31438, Note_on_c, 8, 57, 0
10, 31440, Note_on_c, 8, 57, 90
10, 31440, Note_on_c, 8, 61, 90
10, 31440, Note_on_c, 8, 64, 90
10, 31617, Note_on_c, 8, 61, 0
10, 31617, Note_on_c, 8, 57, 0
10, 31618, Note_on_c, 8, 64, 0
10, 31620, Note_on_c, 8, 59, 90
10, 31620, Note_on_c, 8, 63, 90
10, 31620, Note_on_c, 8, 66, 90
10, 31676, Note_on_c, 8, 66, 0
10, 31676, Note_on_c, 8, 63, 0
10, 31677, Note_on_c, 8, 59, 0
10, 31680, Note_on_c, 8, 59, 90
10, 31680, Note_on_c, 8, 64, 90
10, 31680, Note_on_c, 8, 68, 90
10, 31977, Note_on_c, 8, 68, 0
10, 31977, Note_on_c, 8, 64, 0
10, 31978, Note_on_c, 8, 59, 0
10, 31980, Note_on_c, 8, 59, 90
10, 31980, Note_on_c, 8, 63, 90
10, 31980, Note_on_c, 8, 66, 90
10, 32096, Note_on_c, 8, 66, 0
10, 32096, Note_on_c, 8, 63, 0
10, 32096, Note_on_c, 8, 59, 0
10, 32100, Note_on_c, 8, 61, 90
10, 32100, Note_on_c, 8, 64, 90
10, 32100, Note_on_c, 8, 68, 90
10, 32336, Note_on_c, 8, 68, 0
10, 32337, Note_on_c, 8, 64, 0
10, 32337, Note_on_c, 8, 61, 0
10, 32340, Note_on_c, 8, 57, 90
10, 32340, Note_on_c, 8, 59, 90
10, 32340, Note_on_c, 8, 64, 90
10, 32396, Note_on_c, 8, 59, 0
10, 32398, Note_on_c, 8, 64, 0
10, 32398, Note_on_c, 8, 57, 0
10, 32400, Note_on_c, 8, 57, 90
10, 32400, Note_on_c, 8, 61, 90
10, 32400, Note_on_c, 8, 64, 90
10, 32576, Note_on_c, 8, 64, 0
10, 32578, Note_on_c, 8, 61, 0
10, 32578, Note_on_c, 8, 57, 0
10, 32580, Note_on_c, 8, 59, 90
10, 32580, Note_on_c, 8, 63, 90
10, 32580, Note_on_c, 8, 66, 90
10, 32636, Note_on_c, 8, 63, 0
10, 32638, Note_on_c, 8, 66, 0
10, 32638, Note_on_c, 8, 59, 0
10, 32640, Note_on_c, 8, 59, 90
10, 32640, Note_on_c, 8, 64, 90
10, 32640, Note_on_c, 8, 68, 90
10, 32876, Note_on_c, 8, 64, 0
10, 32876, Note_on_c, 8, 59, 0
10, 32878, Note_on_c, 8, 68, 0
10, 32880, Note_on_c, 8, 59, 90
10, 32880, Note_on_c, 8, 63, 90
10, 32880, Note_on_c, 8, 66, 90
10, 33056, Note_on_c, 8, 63, 0
10, 33057, Note_on_c, 8, 66, 0
10, 33057, Note_on_c, 8, 59, 0
10, 33060, Note_on_c, 8, 56, 90
10, 33060, Note_on_c, 8, 61, 90
10, 33060, Note_on_c, 8, 64, 90
10, 33297, Note_on_c, 8, 64, 0
10, 33297, Note_on_c, 8, 61, 0
10, 33297, Note_on_c, 8, 56, 0
10, 33300, Note_on_c, 8, 59, 90
10, 33300, Note_on_c, 8, 64, 90
10, 33300, Note_on_c, 8, 69, 90
10, 33356, Note_on_c, 8, 69, 0
10, 33356, Note_on_c, 8, 64, 0
10, 33356, Note_on_c, 8, 59, 0
10, 33360, Note_on_c, 8, 57, 90
10, 33360, Note_on_c, 8, 61, 90
10, 33360, Note_on_c, 8, 64, 90
10, 33536, Note_on_c, 8, 64, 0
10, 33536, Note_on_c, 8, 61, 0
10, 33537, Note_on_c, 8, 57, 0
10, 33540, Note_on_c, 8, 56, 90
10, 33540, Note_on_c, 8, 59, 90
10, 33540, Note_on_c, 8, 64, 90
10, 33596, Note_on_c, 8, 64, 0
10, 33597, Note_on_c, 8, 59, 0
10, 33597, Note_on_c, 8, 56, 0
10, 33600, Note_on_c, 8, 56, 90
10, 33600, Note_on_c, 8, 59, 90
10, 33600, Note_on_c, 8, 64, 90
10, 33837, Note_on_c, 8, 64, 0
10, 33837, Note_on_c, 8, 59, 0
10, 33837, Note_on_c, 8, 56, 0
10, 33840, Note_on_c, 8, 59, 90
10, 33840, Note_on_c, 8, 63, 90
10, 33840, Note_on_c, 8, 66, 90
10, 34016, Note_on_c, 8, 59, 0
10, 34017, Note_on_c, 8, 63, 0
10, 34018, Note_on_c, 8, 66, 0
10, 34020, Note_on_c, 8, 56, 90
10, 34020, Note_on_c, 8, 61, 90
10, 34020, Note_on_c, 8, 64, 90
10, 34257, Note_on_c, 8, 61, 0
10, 34258, Note_on_c, 8, 64, 0
10, 34258, Note_on_c, 8, 56, 0
10, 34260, Note_on_c, 8, 59, 90
10, 34260, Note_on_c, 8, 64, 90
10, 34260, Note_on_c, 8, 69, 90
10, 34316, Note_on_c, 8, 59, 0
10, 34317, Note_on_c, 8, 69, 0
10, 34317, Note_on_c, 8, 64, 0
10, 34320, Note_on_c, 8, 61, 90
10, 34320, Note_on_c, 8, 64, 90
10, 34320, Note_on_c, 8, 69, 90
10, 34496, Note_on_c, 8, 69, 0
10, 34498, Note_on_c, 8, 64, 0
10, 34498, Note_on_c, 8, 61, 0
10, 34500, Note_on_c, 8, 59, 90
10, 34500, Note_on_c, 8, 64, 90
10, 34500, Note_on_c, 8, 68, 90
10, 34797, Note_on_c, 8, 68, 0
10, 34797, Note_on_c, 8, 64, 0
10, 34797, Note_on_c, 8, 59, 0
10, 34800, Note_on_c, 8, 59, 90
10, 34800, Note_on_c, 8, 63, 90
10, 34800, Note_on_c, 8, 66, 90
10, 34976, Note_on_c, 8, 59, 0
10, 34977, Note_on_c, 8, 63, 0
10, 34978, Note_on_c, 8, 66, 0
10, 34980, Note_on_c, 8, 61, 90
10, 34980, Note_on_c, 8, 64, 90
10, 34980, Note_on_c, 8, 68, 90
10, 35217, Note_on_c, 8, 68, 0
10, 35217, Note_on_c, 8, 64, 0
10, 35217, Note_on_c, 8, 61, 0
10, 35220, Note_on_c, 8, 57, 90
10, 35220, Note_on_c, 8, 59, 90
10, 35220, Note_on_c, 8, 64, 90
10, 35277, Note_on_c, 8, 57, 0
10, 35278, Note_on_c, 8, 64, 0
10, 35278, Note_on_c, 8, 59, 0
10, 35280, Note_on_c, 8, 61, 90
10, 35280, Note_on_c, 8, 64, 90
10, 35280, Note_on_c, 8, 69, 90
10, 35456, Note_on_c, 8, 69, 0
10, 35458, Note_on_c, 8, 64, 0
10, 35458, Note_on_c, 8, 61, 0
10, 35460, Note_on_c, 8, 56, 90
10, 35460, Note_on_c, 8, 59, 90
10, 35460, Note_on_c, 8, 64, 90
10, 35816, Note_on_c, 8, 59, 0
10, 35817, Note_on_c, 8, 64, 0
10, 35818, Note_on_c, 8, 56, 0
10, 35820, Note_on_c, 8, 59, 90
10, 35820, Note_on_c, 8, 63, 90
10, 35820, Note_on_c, 8, 66, 90
10, 35936, Note_on_c, 8, 59, 0
10, 35937, Note_on_c, 8, 63, 0
10, 35938, Note_on_c, 8, 66, 0
10, 35940, Note_on_c, 8, 61, 90
10, 35940, Note_on_c, 8, 64, 90
10, 35940, Note_on_c, 8, 68, 90
10, 36178, Note_on_c, 8, 68, 0
10, 36178, Note_on_c, 8, 64, 0
10, 36178, Note_on_c, 8, 61, 0
10, 36180, Note_on_c, 8, 59, 90
10, 36180, Note_on_c, 8, 64, 90
10, 36180, Note_on_c, 8, 69, 90
10, 36236, Note_on_c, 8, 59, 0
10, 36237, Note_on_c, 8, 69, 0
10, 36237, Note_on_c, 8, 64, 0
10, 36240, Note_on_c, 8, 61, 90
10, 36240, Note_on_c, 8, 64, 90
10, 36240, Note_on_c, 8, 69, 90
10, 36417, Note_on_c, 8, 69, 0
10, 36417, Note_on_c, 8, 61, 0
10, 36418, Note_on_c, 8, 64, 0
10, 36420, Note_on_c, 8, 59, 90
10, 36420, Note_on_c, 8, 63, 90
10, 36420, Note_on_c, 8, 66, 90
10, 36476, Note_on_c, 8, 66, 0
10, 36477, Note_on_c, 8, 59, 0
10, 36478, Note_on_c, 8, 63, 0
10, 36480, Note_on_c, 8, 56, 90
10, 36480, Note_on_c, 8, 59, 90
10, 36480, Note_on_c, 8, 64, 90
10, 36716, Note_on_c, 8, 59, 0
10, 36717, Note_on_c, 8, 64, 0
10, 36718, Note_on_c, 8, 56, 0
10, 36720, Note_on_c, 8, 59, 90
10, 36720, Note_on_c, 8, 63, 90
10, 36720, Note_on_c, 8, 66, 90
10, 36956, Note_on_c, 8, 59, 0
10, 36957, Note_on_c, 8, 63, 0
10, 36958, Note_on_c, 8, 66, 0
10, 36960, Note_on_c, 8, 61, 90
10, 36960, Note_on_c, 8, 64, 90
10, 36960, Note_on_c, 8, 68, 90
10, 37137, Note_on_c, 8, 68, 0
10, 37137, Note_on_c, 8, 64, 0
10, 37137, Note_on_c, 8, 61, 0
10, 37140, Note_on_c, 8, 59, 90
10, 37140, Note_on_c, 8, 64, 90
10, 37140, Note_on_c, 8, 69, 90
10, 37196, Note_on_c, 8, 64, 0
10, 37197, Note_on_c, 8, 59, 0
10, 37198, Note_on_c, 8, 69, 0
10, 37200, Note_on_c, 8, 61, 90
10, 37200, Note_on_c, 8, 64, 90
10, 37200, Note_on_c, 8, 69, 90
10, 37376, Note_on_c, 8, 64, 0
10, 37376, Note_on_c, 8, 61, 0
10, 37378, Note_on_c, 8, 69, 0
10, 37380, Note_on_c, 8, 59, 90
10, 37380, Note_on_c, 8, 63, 90
10, 37380, Note_on_c, 8, 66, 90
10, 37436, Note_on_c, 8, 63, 0
10, 37437, Note_on_c, 8, 66, 0
10, 37437, Note_on_c, 8, 59, 0
10, 37440, Note_on_c, 8, 59, 90
10, 37440, Note_on_c, 8, 64, 90
10, 37440, Note_on_c, 8, 68, 90
10, 37676, Note_on_c, 8, 59, 0
10, 37678, Note_on_c, 8, 68, 0
10, 37678, Note_on_c, 8, 64, 0
10, 37680, Note_on_c, 8, 59, 90
10, 37680, Note_on_c, 8, 63, 90
10, 37680, Note_on_c, 8, 66, 90
10, 37856, Note_on_c, 8, 66, 0
10, 37857, Note_on_c, 8, 59, 0
10, 37858, Note_on_c, 8, 63, 0
10, 37860, Note_on_c, 8, 56, 90
10, 37860, Note_on_c, 8, 61, 90
10, 37860, Note_on_c, 8, 64, 90
10, 38097, Note_on_c, 8, 61, 0
10, 38098, Note_on_c, 8, 64, 0
10, 38098, Note_on_c, 8, 56, 0
10, 38100, Note_on_c, 8, 57, 90
10, 38100, Note_on_c, 8, 59, 90
10, 38100, Note_on_c, 8, 64, 90
10, 38156, Note_on_c, 8, 57, 0
10, 38158, Note_on_c, 8, 64, 0
10, 38158, Note_on_c, 8, 59, 0
10, 38160, Note_on_c, 8, 61, 90
10, 38160, Note_on_c, 8, 64, 90
10, 38160, Note_on_c, 8, 69, 90
10, 38336, Note_on_c, 8, 61, 0
10, 38338, Note_on_c, 8, 69, 0
10, 38338, Note_on_c, 8, 64, 0
10, 38340, Note_on_c, 8, 59, 90
10, 38340, Note_on_c, 8, 63, 90
10, 38340, Note_on_c, 8, 66, 90
10, 38397, Note_on_c, 8, 66, 0
10, 38397, Note_on_c, 8, 63, 0
10, 38397, Note_on_c, 8, 59, 0
10, 38400, Note_on_c, 8, 59, 90
10, 38400, Note_on_c, 8, 64, 90
10, 38400, Note_on_c, 8, 68, 90
10, 38697, Note_on_c, 8, 68, 0
10, 38697, Note_on_c, 8, 64, 0
10, 38697, Note_on_c, 8, 59, 0
10, 38700, Note_on_c, 8, 59, 90
10, 38700, Note_on_c, 8, 63, 90
10, 38700, Note_on_c, 8, 66, 90
10, 38816, Note_on_c, 8, 66, 0
10, 38816, Note_on_c, 8, 63, 0
10, 38816, Note_on_c, 8, 59, 0
10, 38820, Note_on_c, 8, 56, 90
10, 38820, Note_on_c, 8, 61, 90
10, 38820, Note_on_c, 8, 64, 90
10, 39056, Note_on_c, 8, 56, 0
10, 39057, Note_on_c, 8, 64, 0
10, 39057, Note_on_c, 8, 61, 0
10, 39060, Note_on_c, 8, 59, 90
10, 39060, Note_on_c, 8, 64, 90
10, 39060, Note_on_c, 8, 69, 90
10, 39116, Note_on_c, 8, 64, 0
10, 39117, Note_on_c, 8, 69, 0
10, 39117, Note_on_c, 8, 59, 0
10, 39120, Note_on_c, 8, 57, 90
10, 39120, Note_on_c, 8, 61, 90
10, 39120, Note_on_c, 8, 64, 90
10, 39296, Note_on_c, 8, 57, 0
10, 39298, Note_on_c, 8, 64, 0
10, 39298, Note_on_c, 8, 61, 0
10, 39300, Note_on_c, 8, 59, 90
10, 39300, Note_on_c, 8, 63, 90
10, 39300, Note_on_c, 8, 66, 90
10, 39356, Note_on_c, 8, 66, 0
10, 39357, Note_on_c, 8, 63, 0
10, 39357, Note_on_c, 8, 59, 0
10, 39360, Note_on_c, 8, 59, 90
10, 39360, Note_on_c, 8, 64, 90
10, 39360, Note_on_c, 8, 68, 90
10, 39536, Note_on_c, 8, 68, 0
10, 39536, Note_on_c, 8, 59, 0
10, 39537, Note_on_c, 8, 64, 0
10, 39540, Note_on_c, 8, 59, 70
10, 39540, Note_on_c, 8, 64, 70
10, 39540, Note_on_c, 8, 68, 70
10, 39657, Note_on_c, 8, 68, 0
10, 39657, Note_on_c, 8, 59, 0
10, 39658, Note_on_c, 8, 64, 0
10, 39660, Note_on_c, 8, 59, 90
10, 39660, Note_on_c, 8, 63, 90
10, 39660, Note_on_c, 8, 66, 90
10, 39776, Note_on_c, 8, 59, 0
10, 39777, Note_on_c, 8, 66, 0
10, 39777, Note_on_c, 8, 63, 0
10, 39780, Note_on_c, 8, 61, 90
10, 39780, Note_on_c, 8, 64, 90
10, 39780, Note_on_c, 8, 68, 90
10, 39956, Note_on_c, 8, 68, 0
10, 39956, Note_on_c, 8, 64, 0
10, 39957, Note_on_c, 8, 61, 0
10, 39960, Note_on_c, 8, 59, 90
10, 39960, Note_on_c, 8, 64, 90
10, 39960, Note_on_c, 8, 69, 90
10, 40076, Note_on_c, 8, 59, 0
10, 40077, Note_on_c, 8, 64, 0
10, 40078, Note_on_c, 8, 69, 0
10, 40080, Note_on_c, 8, 57, 90
10, 40080, Note_on_c, 8, 61, 90
10, 40080, Note_on_c, 8, 64, 90
10, 40256, Note_on_c, 8, 64, 0
10, 40256, Note_on_c, 8, 61, 0
10, 40258, Note_on_c, 8, 57, 0
10, 40260, Note_on_c, 8, 59, 90
10, 40260, Note_on_c, 8, 63, 90
10, 40260, Note_on_c, 8, 66, 90
10, 40316, Note_on_c, 8, 66, 0
10, 40317, Note_on_c, 8, 59, 0
10, 40318, Note_on_c, 8, 63, 0
10, 40320, Note_on_c, 8, 56, 90
10, 40320, Note_on_c, 8, 59, 90
10, 40320, Note_on_c, 8, 64, 90
10, 40616, Note_on_c, 8, 59, 0
10, 40616, Note_on_c, 8, 56, 0
10, 40617, Note_on_c, 8, 64, 0
10, 40620, Note_on_c, 8, 59, 90
10, 40620, Note_on_c, 8, 63, 90
10, 40620, Note_on_c, 8, 66, 90
10, 40736, Note_on_c, 8, 66, 0
10, 40736, Note_on_c, 8, 59, 0
10, 40738, Note_on_c, 8, 63, 0
10, 40740, Note_on_c, 8, 61, 90
10, 40740, Note_on_c, 8, 64, 90
10, 40740, Note_on_c, 8, 68, 90
10, 40976, Note_on_c, 8, 61, 0
10, 40977, Note_on_c, 8, 68, 0
10, 40978, Note_on_c, 8, 64, 0
10, 40980, Note_on_c, 8, 57, 90
10, 40980, Note_on_c, 8, 59, 90
10, 40980, Note_on_c, 8, 64, 90
10, 41036, Note_on_c, 8, 57, 0
10, 41037, Note_on_c, 8, 64, 0
10, 41037, Note_on_c, 8, 59, 0
10, 41040, Note_on_c, 8, 57, 90
10, 41040, Note_on_c, 8, 61, 90
10, 41040, Note_on_c, 8, 64, 90
10, 41216, Note_on_c, 8, 61, 0
10, 41216, Note_on_c, 8, 57, 0
10, 41217, Note_on_c, 8, 64, 0
10, 41220, Note_on_c, 8, 59, 90
10, 41220, Note_on_c, 8, 63, 90
10, 41220, Note_on_c, 8, 66, 90
10, 41277, Note_on_c, 8, 66, 0
10, 41277, Note_on_c, 8, 59, 0
10, 41278, Note_on_c, 8, 63, 0
10, 41280, Note_on_c, 8, 59, 90
10, 41280, Note_on_c, 8, 64, 90
10, 41280, Note_on_c, 8, 68, 90
10, 41576, Note_on_c, 8, 64, 0
10, 41577, Note_on_c, 8, 59, 0
10, 41578, Note_on_c, 8, 68, 0
10, 41580, Note_on_c, 8, 59, 90
10, 41580, Note_on_c, 8, 63, 90
10, 41580, Note_on_c, 8, 66, 90
10, 41696, Note_on_c, 8, 63, 0
10, 41698, Note_on_c, 8, 66, 0
10, 41698, Note_on_c, 8, 59, 0
10, 41700, Note_on_c, 8, 56, 90
10, 41700, Note_on_c, 8, 61, 90
10, 41700, Note_on_c, 8, 64, 90
10, 41936, Note_on_c, 8, 56, 0
10, 41937, Note_on_c, 8, 61, 0
10, 41938, Note_on_c, 8, 64, 0
10, 41940, Note_on_c, 8, 59, 90
10, 41940, Note_on_c, 8, 64, 90
10, 41940, Note_on_c, 8, 69, 90
10, 41996, Note_on_c, 8, 69, 0
10, 41997, Note_on_c, 8, 64, 0
10, 41997, Note_on_c, 8, 59, 0
10, 42000, Note_on_c, 8, 61, 70
10, 42000, Note_on_c, 8, 64, 70
10, 42000, Note_on_c, 8, 69, 70
10, 42176, Note_on_c, 8, 64, 0
10, 42177, Note_on_c, 8, 69, 0
10, 42178, Note_on_c, 8, 61, 0
10, 42180, Note_on_c, 8, 59, 90
10, 42180, Note_on_c, 8, 63, 90
10, 42180, Note_on_c, 8, 66, 90
10, 42236, Note_on_c, 8, 59, 0
10, 42237, Note_on_c, 8, 66, 0
10, 42238, Note_on_c, 8, 63, 0
10, 42240, Note_on_c, 8, 56, 90
10, 42240, Note_on_c, 8, 59, 90
10, 42240, Note_on_c, 8, 64, 90
10, 42536, Note_on_c, 8, 64, 0
10, 42536, Note_on_c, 8, 59, 0
10, 42536, Note_on_c, 8, 56, 0
10, 42540, Note_on_c, 8, 59, 90
10, 42540, Note_on_c, 8, 63, 90
10, 42540, Note_on_c, 8, 66, 90
10, 42656, Note_on_c, 8, 63, 0
10, 42657, Note_on_c, 8, 66, 0
10, 42658, Note_on_c, 8, 59, 0
10, 42660, Note_on_c, 8, 61, 90
10, 42660, Note_on_c, 8, 64, 90
10, 42660, Note_on_c, 8, 68, 90
10, 42897, Note_on_c, 8, 68, 0
10, 42897, Note_on_c, 8, 64, 0
10, 42897, Note_on_c, 8, 61, 0
10, 42900, Note_on_c, 8, 57, 90
10, 42900, Note_on_c, 8, 59, 90
10, 42900, Note_on_c, 8, 64, 90
10, 42956, Note_on_c, 8, 59, 0
10, 42957, Note_on_c, 8, 64, 0
10, 42958, Note_on_c, 8, 57, 0
10, 42960, Note_on_c, 8, 57, 90
10, 42960, Note_on_c, 8, 61, 90
10, 42960, Note_on_c, 8, 64, 90
10, 43136, Note_on_c, 8, 57, 0
10, 43138, Note_on_c, 8, 64, 0
10, 43138, Note_on_c, 8, 61, 0
10, 43140, Note_on_c, 8, 59, 90
10, 43140, Note_on_c, 8, 63, 90
10, 43140, Note_on_c, 8, 66, 90
10, 43196, Note_on_c, 8, 59, 0
10, 43197, Note_on_c, 8, 66, 0
10, 43197, Note_on_c, 8, 63, 0
10, 43200, Note_on_c, 8, 56, 90
10, 43200, Note_on_c, 8, 59, 90
10, 43200, Note_on_c, 8, 64, 90
10, 43436, Note_on_c, 8, 59, 0
10, 43437, Note_on_c, 8, 56, 0
10, 43438, Note_on_c, 8, 64, 0
10, 43440, Note_on_c, 8, 59, 70
10, 43440, Note_on_c, 8, 63, 70
10, 43440, Note_on_c, 8, 66, 70
10, 43616, Note_on_c, 8, 59, 0
10, 43617, Note_on_c, 8, 63, 0
10, 43618, Note_on_c, 8, 66, 0
10, 43620, Note_on_c, 8, 56, 90
10, 43620, Note_on_c, 8, 61, 90
10, 43620, Note_on_c, 8, 64, 90
10, 43856, Note_on_c, 8, 64, 0
10, 43856, Note_on_c, 8, 61, 0
10, 43857, Note_on_c, 8, 56, 0
10, 43860, Note_on_c, 8, 59, 90
10, 43860, Note_on_c, 8, 64, 90
10, 43860, Note_on_c, 8, 69, 90
10, 43916, Note_on_c, 8, 69, 0
10, 43916, Note_on_c, 8, 59, 0
10, 43917, Note_on_c, 8, 64, 0
10, 43920, Note_on_c, 8, 61, 70
10, 43920, Note_on_c, 8, 64, 70
10, 43920, Note_on_c, 8, 69, 70
10, 44096, Note_on_c, 8, 69, 0
10, 44097, Note_on_c, 8, 64, 0
10, 44097, Note_on_c, 8, 61, 0
10, 44100, Note_on_c, 8, 59, 90
10, 44100, Note_on_c, 8, 63, 90
10, 44100, Note_on_c, 8, 66, 90
10, 44156, Note_on_c, 8, 66, 0
10, 44156, Note_on_c, 8, 63, 0
10, 44158, Note_on_c, 8, 59, 0
10, 44160, Note_on_c, 8, 56, 90
10, 44160, Note_on_c, 8, 59, 90
10, 44160, Note_on_c, 8, 64, 90
10, 44396, Note_on_c, 8, 59, 0
10, 44396, Note_on_c, 8, 56, 0
10, 44398, Note_on_c, 8, 64, 0
10, 44400, Note_on_c, 8, 56, 70
10, 44400, Note_on_c, 8, 59, 70
10, 44400, Note_on_c, 8, 64, 70
10, 44457, Note_on_c, 8, 64, 0
10, 44457, Note_on_c, 8, 59, 0
10, 44458, Note_on_c, 8, 56, 0
10, 44460, Note_on_c, 8, 59, 90
10, 44460, Note_on_c, 8, 63, 90
10, 44460, Note_on_c, 8, 66, 90
10, 44576, Note_on_c, 8, 59, 0
10, 44577, Note_on_c, 8, 66, 0
10, 44578, Note_on_c, 8, 63, 0
10, 44580, Note_on_c, 8, 56, 90
10, 44580, Note_on_c, 8, 61, 90
10, 44580, Note_on_c, 8, 64, 90
10, 44817, Note_on_c, 8, 64, 0
10, 44817, Note_on_c, 8, 61, 0
10, 44818, Note_on_c, 8, 56, 0
10, 44820, Note_on_c, 8, 57, 90
10, 44820, Note_on_c, 8, 59, 90
10, 44820, Note_on_c, 8, 64, 90
10, 44877, Note_on_c, 8, 59, 0
10, 44877, Note_on_c, 8, 57, 0
10, 44878, Note_on_c, 8, 64, 0
10, 44880, Note_on_c, 8, 57, 90
10, 44880, Note_on_c, 8, 61, 90
10, 44880, Note_on_c, 8, 64, 90
10, 45056, Note_on_c, 8, 64, 0
10, 45056, Note_on_c, 8, 57, 0
10, 45058, Note_on_c, 8, 61, 0
10, 45060, Note_on_c, 8, 59, 90
10, 45060, Note_on_c, 8, 63, 90
10, 45060, Note_on_c, 8, 66, 90
10, 45117, Note_on_c, 8, 66, 0
10, 45118, Note_on_c, 8, 63, 0
10, 45118, Note_on_c, 8, 59, 0
10, 45120, Note_on_c, 8, 56, 90
10, 45120, Note_on_c, 8, 59, 90
10, 45120, Note_on_c, 8, 64, 90
10, 45416, Note_on_c, 8, 64, 0
10, 45416, Note_on_c, 8, 59, 0
10, 45418, Note_on_c, 8, 56, 0
10, 45420, Note_on_c, 8, 59, 90
10, 45420, Note_on_c, 8, 63, 90
10, 45420, Note_on_c, 8, 66, 90
10, 45537, Note_on_c, 8, 63, 0
10, 45538, Note_on_c, 8, 66, 0
10, 45538, Note_on_c, 8, 59, 0
10, 45540, Note_on_c, 8, 56, 90
10, 45540, Note_on_c, 8, 61, 90
10, 45540, Note_on_c, 8, 64, 90
10, 45776, Note_on_c, 8, 64, 0
10, 45776, Note_on_c, 8, 61, 0
10, 45778, Note_on_c, 8, 56, 0
10, 45780, Note_on_c, 8, 57, 90
10, 45780, Note_on_c, 8, 59, 90
10, 45780, Note_on_c, 8, 64, 90
10, 45836, Note_on_c, 8, 59, 0
10, 45836, Note_on_c, 8, 57, 0
10, 45838, Note_on_c, 8, 64, 0
10, 45840, Note_on_c, 8, 57, 90
10, 45840, Note_on_c, 8, 61, 90
10, 45840, Note_on_c, 8, 64, 90
10, 46016, Note_on_c, 8, 61, 0
10, 46017, Note_on_c, 8, 64, 0
10, 46017, Note_on_c, 8, 57, 0
10, 46020, Note_on_c, 8, 56, 90
10, 46020, Note_on_c, 8, 59, 90
10, 46020, Note_on_c, 8, 64, 90
10, 46256, Note_on_c, 8, 64, 0
10, 46256, Note_on_c, 8, 56, 0
10, 46258, Note_on_c, 8, 59, 0
10, 46260, Note_on_c, 8, 59, 90
10, 46260, Note_on_c, 8, 63, 90
10, 46260, Note_on_c, 8, 66, 90
10, 46498, Note_on_c, 8, 66, 0
10, 46498, Note_on_c, 8, 63, 0
10, 46498, Note_on_c, 8, 59, 0
10, 46560, Note_on_c, 8, 61, 90
10, 46560, Note_on_c, 8, 64, 90
10, 46560, Note_on_c, 8, 68, 90
10, 46736, Note_on_c, 8, 61, 0
10, 46737, Note_on_c, 8, 64, 0
10, 46738, Note_on_c, 8, 68, 0
10, 46740, Note_on_c, 8, 57, 70
10, 46740, Note_on_c, 8, 59, 70
10, 46740, Note_on_c, 8, 64, 70
10, 46796, Note_on_c, 8, 57, 0
10, 46797, Note_on_c, 8, 59, 0
10, 46798, Note_on_c, 8, 64, 0
10, 46800, Note_on_c, 8, 57, 90
10, 46800, Note_on_c, 8, 61, 90
10, 46800, Note_on_c, 8, 64, 90
10, 46976, Note_on_c, 8, 57, 0
10, 46978, Note_on_c, 8, 64, 0
10, 46978, Note_on_c, 8, 61, 0
10, 46980, Note_on_c, 8, 59, 90
10, 46980, Note_on_c, 8, 64, 90
10, 46980, Note_on_c, 8, 68, 90
10, 47336, Note_on_c, 8, 59, 0
10, 47337, Note_on_c, 8, 64, 0
10, 47338, Note_on_c, 8, 68, 0
10, 47340, Note_on_c, 8, 59, 90
10, 47340, Note_on_c, 8, 63, 90
10, 47340, Note_on_c, 8, 66, 90
10, 47456, Note_on_c, 8, 66, 0
10, 47457, Note_on_c, 8, 63, 0
10, 47457, Note_on_c, 8, 59, 0
10, 47460, Note_on_c, 8, 61, 90
10, 47460, Note_on_c, 8, 64, 90
10, 47460, Note_on_c, 8, 68, 90
10, 47636, Note_on_c, 8, 61, 0
10, 47637, Note_on_c, 8, 64, 0
10, 47638, Note_on_c, 8, 68, 0
10, 47640, Note_on_c, 8, 61, 90
10, 47640, Note_on_c, 8, 64, 90
10, 47640, Note_on_c, 8, 69, 90
10, 47877, Note_on_c, 8, 69, 0
10, 47877, Note_on_c, 8, 64, 0
10, 47878, Note_on_c, 8, 61, 0
10, 47880, Note_on_c, 8, 56, 90
10, 47880, Note_on_c, 8, 59, 90
10, 47880, Note_on_c, 8, 64, 90
10, 47997, Note_on_c, 8, 64, 0
10, 47997, Note_on_c, 8, 59, 0
10, 47997, Note_on_c, 8, 56, 0
10, 48000, Note_on_c, 8, 56, 90
10, 48000, Note_on_c, 8, 59, 90
10, 48000, Note_on_c, 8, 64, 90
10, 48296, Note_on_c, 8, 64, 0
10, 48296, Note_on_c, 8, 59, 0
10, 48296, Note_on_c, 8, 56, 0
10, 48300, Note_on_c, 8, 59, 90
10, 48300, Note_on_c, 8, 63, 90
10, 48300, Note_on_c, 8, 66, 90
10, 48416, Note_on_c, 8, 66, 0
10, 48417, Note_on_c, 8, 59, 0
10, 48418, Note_on_c, 8, 63, 0
10, 48420, Note_on_c, 8, 61, 90
10, 48420, Note_on_c, 8, 64, 90
10, 48420, Note_on_c, 8, 68, 90
10, 48656, Note_on_c, 8, 68, 0
10, 48656, Note_on_c, 8, 64, 0
10, 48656, Note_on_c, 8, 61, 0
10, 48660, Note_on_c, 8, 59, 90
10, 48660, Note_on_c, 8, 64, 90
10, 48660, Note_on_c, 8, 69, 90
10, 48716, Note_on_c, 8, 59, 0
10, 48717, Note_on_c, 8, 69, 0
10, 48717, Note_on_c, 8, 64, 0
10, 48720, Note_on_c, 8, 57, 90
10, 48720, Note_on_c, 8, 61, 90
10, 48720, Note_on_c, 8, 64, 90
10, 48896, Note_on_c, 8, 61, 0
10, 48898, Note_on_c, 8, 64, 0
10, 48898, Note_on_c, 8, 57, 0
10, 48900, Note_on_c, 8, 56, 90
10, 48900, Note_on_c, 8, 59, 90
10, 48900, Note_on_c, 8, 64, 90
10, 49256, Note_on_c, 8, 64, 0
10, 49258, Note_on_c, 8, 59, 0
10, 49258, Note_on_c, 8, 56, 0
10, 49260, Note_on_c, 8, 59, 90
10, 49260, Note_on_c, 8, 63, 90
10, 49260, Note_on_c, 8, 66, 90
10, 49376, Note_on_c, 8, 63, 0
10, 49377, Note_on_c, 8, 59, 0
10, 49378, Note_on_c, 8, 66, 0
10, 49380, Note_on_c, 8, 56, 90
10, 49380, Note_on_c, 8, 61, 90
10, 49380, Note_on_c, 8, 64, 90
10, 49618, Note_on_c, 8, 64, 0
10, 49618, Note_on_c, 8, 61, 0
10, 49618, Note_on_c, 8, 56, 0
10, 49620, Note_on_c, 8, 61, 90
10, 49620, Note_on_c, 8, 64, 90
10, 49620, Note_on_c, 8, 69, 90
10, 49796, Note_on_c, 8, 69, 0
10, 49797, Note_on_c, 8, 61, 0
10, 49798, Note_on_c, 8, 64, 0
10, 49800, Note_on_c, 8, 59, 90
10, 49800, Note_on_c, 8, 63, 90
10, 49800, Note_on_c, 8, 66, 90
10, 49918, Note_on_c, 8, 66, 0
10, 49918, Note_on_c, 8, 63, 0
10, 49918, Note_on_c, 8, 59, 0
10, 49920, Note_on_c, 8, 59, 90
10, 49920, Note_on_c, 8, 63, 90
10, 49920, Note_on_c, 8, 66, 90
10, 49977, Note_on_c, 8, 63, 0
10, 49977, Note_on_c, 8, 59, 0
10, 49978, Note_on_c, 8, 66, 0
10, 49980, Note_on_c, 8, 56, 90
10, 49980, Note_on_c, 8, 59, 90
10, 49980, Note_on_c, 8, 64, 90
10, 50216, Note_on_c, 8, 59, 0
10, 50216, Note_on_c, 8, 56, 0
10, 50217, Note_on_c, 8, 64, 0
10, 50220, Note_on_c, 8, 59, 90
10, 50220, Note_on_c, 8, 63, 90
10, 50220, Note_on_c, 8, 66, 90
10, 50336, Note_on_c, 8, 66, 0
10, 50338, Note_on_c, 8, 63, 0
10, 50338, Note_on_c, 8, 59, 0
10, 50340, Note_on_c, 8, 61, 90
10, 50340, Note_on_c, 8, 64, 90
10, 50340, Note_on_c, 8, 68, 90
10, 50400, Control_c, 8, 7, 90
10, 50436, Control_c, 8, 7, 89
10, 50473, Control_c, 8, 7, 88
10, 50510, Control_c, 8, 7, 87
10, 50546, Control_c, 8, 7, 86
10, 50576, Note_on_c, 8, 68, 0
10, 50576, Note_on_c, 8, 61, 0
10, 50578, Note_on_c, 8, 64, 0
10, 50580, Note_on_c, 8, 57, 90
10, 50580, Note_on_c, 8, 59, 90
10, 50580, Note_on_c, 8, 64, 90
10, 50583, Control_c, 8, 7, 85
10, 50620, Control_c, 8, 7, 84
10, 50636, Note_on_c, 8, 64, 0
10, 50637, Note_on_c, 8, 59, 0
10, 50638, Note_on_c, 8, 57, 0
10, 50640, Note_on_c, 8, 57, 90
10, 50640, Note_on_c, 8, 61, 90
10, 50640, Note_on_c, 8, 64, 90
10, 50656, Control_c, 8, 7, 83
10, 50693, Control_c, 8, 7, 82
10, 50730, Control_c, 8, 7, 81
10, 50766, Control_c, 8, 7, 80
10, 50803, Control_c, 8, 7, 79
10, 50817, Note_on_c, 8, 61, 0
10, 50818, Note_on_c, 8, 64, 0
10, 50818, Note_on_c, 8, 57, 0
10, 50820, Note_on_c, 8, 59, 90
10, 50820, Note_on_c, 8, 63, 90
10, 50820, Note_on_c, 8, 66, 90
10, 50840, Control_c, 8, 7, 78
10, 50876, Note_on_c, 8, 66, 0
10, 50876, Note_on_c, 8, 59, 0
10, 50876, Control_c, 8, 7, 77
10, 50878, Note_on_c, 8, 63, 0
10, 50880, Note_on_c, 8, 59, 90
10, 50880, Note_on_c, 8, 64, 90
10, 50880, Note_on_c, 8, 68, 90
10, 50913, Control_c, 8, 7, 76
10, 50950, Control_c, 8, 7, 75
10, 50986, Control_c, 8, 7, 74
10, 51023, Control_c, 8, 7, 73
10, 51060, Control_c, 8, 7, 72
10, 51096, Control_c, 8, 7, 71
10, 51133, Control_c, 8, 7, 70
10, 51170, Control_c, 8, 7, 69
10, 51176, Note_on_c, 8, 68, 0
10, 51177, Note_on_c, 8, 64, 0
10, 51177, Note_on_c, 8, 59, 0
10, 51180, Note_on_c, 8, 59, 90
10, 51180, Note_on_c, 8, 63, 90
10, 51180, Note_on_c, 8, 66, 90
10, 51206, Control_c, 8, 7, 68
10, 51243, Control_c, 8, 7, 67
10, 51280, Control_c, 8, 7, 66
10, 51297, Note_on_c, 8, 66, 0
10, 51297, Note_on_c, 8, 63, 0
10, 51297, Note_on_c, 8, 59, 0
10, 51300, Note_on_c, 8, 56, 90
10, 51300, Note_on_c, 8, 61, 90
10, 51300, Note_on_c, 8, 64, 90
10, 51316, Control_c, 8, 7, 65
10, 51353, Control_c, 8, 7, 64
10, 51390, Control_c, 8, 7, 63
10, 51426, Control_c, 8, 7, 62
10, 51463, Control_c, 8, 7, 61
10, 51500, Control_c, 8, 7, 60
10, 51536, Note_on_c, 8, 64, 0
10, 51536, Note_on_c, 8, 61, 0
10, 51536, Control_c, 8, 7, 59
10, 51537, Note_on_c, 8, 56, 0
10, 51540, Note_on_c, 8, 59, 90
10, 51540, Note_on_c, 8, 64, 90
10, 51540, Note_on_c, 8, 69, 90
10, 51573, Control_c, 8, 7, 58
10, 51596, Note_on_c, 8, 59, 0
10, 51597, Note_on_c, 8, 69, 0
10, 51597, Note_on_c, 8, 64, 0
10, 51600, Note_on_c, 8, 61, 90
10, 51600, Note_on_c, 8, 64, 90
10, 51600, Note_on_c, 8, 69, 90
10, 51610, Control_c, 8, 7, 57
10, 51646, Control_c, 8, 7, 56
10, 51683, Control_c, 8, 7, 55
10, 51720, Control_c, 8, 7, 54
10, 51756, Control_c, 8, 7, 53
10, 51777, Note_on_c, 8, 64, 0
10, 51777, Note_on_c, 8, 61, 0
10, 51778, Note_on_c, 8, 69, 0
10, 51780, Note_on_c, 8, 59, 90
10, 51780, Note_on_c, 8, 63, 90
10, 51780, Note_on_c, 8, 66, 90
10, 51793, Control_c, 8, 7, 52
10, 51830, Control_c, 8, 7, 51
10, 51836, Note_on_c, 8, 59, 0
10, 51837, Note_on_c, 8, 66, 0
10, 51837, Note_on_c, 8, 63, 0
10, 51840, Note_on_c, 8, 59, 90
10, 51840, Note_on_c, 8, 64, 90
10, 51840, Note_on_c, 8, 68, 90
10, 51866, Control_c, 8, 7, 50
10, 51903, Control_c, 8, 7, 49
10, 51940, Control_c, 8, 7, 48
10, 51976, Control_c, 8, 7, 47
10, 52013, Control_c, 8, 7, 46
10, 52050, Control_c, 8, 7, 45
10, 52086, Control_c, 8, 7, 44
10, 52123, Control_c, 8, 7, 43
10, 52138, Note_on_c, 8, 68, 0
10, 52138, Note_on_c, 8, 64, 0
10, 52138, Note_on_c, 8, 59, 0
10, 52140, Note_on_c, 8, 59, 90
10, 52140, Note_on_c, 8, 63, 90
10, 52140, Note_on_c, 8, 66, 90
10, 52160, Control_c, 8, 7, 42
10, 52196, Control_c, 8, 7, 41
10, 52233, Control_c, 8, 7, 40
10, 52256, Note_on_c, 8, 66, 0
10, 52256, Note_on_c, 8, 63, 0
10, 52256, Note_on_c, 8, 59, 0
10, 52260, Note_on_c, 8, 61, 90
10, 52260, Note_on_c, 8, 64, 90
10, 52260, Note_on_c, 8, 68, 90
10, 52270, Control_c, 8, 7, 39
10, 52306, Control_c, 8, 7, 38
10, 52343, Control_c, 8, 7, 37
10, 52380, Control_c, 8, 7, 36
10, 52416, Control_c, 8, 7, 35
10, 52453, Control_c, 8, 7, 34
10, 52490, Control_c, 8, 7, 33
10, 52496, Note_on_c, 8, 68, 0
10, 52496, Note_on_c, 8, 64, 0
10, 52497, Note_on_c, 8, 61, 0
10, 52500, Note_on_c, 8, 59, 90
10, 52500, Note_on_c, 8, 64, 90
10, 52500, Note_on_c, 8, 69, 90
10, 52526, Control_c, 8, 7, 32
10, 52556, Note_on_c, 8, 59, 0
10, 52557, Note_on_c, 8, 69, 0
10, 52558, Note_on_c, 8, 64, 0
10, 52560, Note_on_c, 8, 61, 90
10, 52560, Note_on_c, 8, 64, 90
10, 52560, Note_on_c, 8, 69, 90
10, 52563, Control_c, 8, 7, 31
10, 52600, Control_c, 8, 7, 30
10, 52636, Control_c, 8, 7, 29
10, 52673, Control_c, 8, 7, 28
10, 52710, Control_c, 8, 7, 27
10, 52736, Note_on_c, 8, 69, 0
10, 52736, Note_on_c, 8, 64, 0
10, 52737, Note_on_c, 8, 61, 0
10, 52740, Note_on_c, 8, 59, 90
10, 52740, Note_on_c, 8, 64, 90
10, 52740, Note_on_c, 8, 68, 90
10, 52746, Control_c, 8, 7, 26
10, 52783, Control_c, 8, 7, 25
10, 52820, Control_c, 8, 7, 24
10, 52856, Control_c, 8, 7, 23
10, 52893, Control_c, 8, 7, 22
10, 52930, Control_c, 8, 7, 21
10, 52966, Control_c, 8, 7, 20
10, 53003, Control_c, 8, 7, 19
10, 53040, Control_c, 8, 7, 18
10, 53076, Control_c, 8, 7, 17
10, 53096, Note_on_c, 8, 68, 0
10, 53096, Note_on_c, 8, 59, 0
10, 53097, Note_on_c, 8, 64, 0
10, 53100, Note_on_c, 8, 59, 90
10, 53100, Note_on_c, 8, 63, 90
10, 53100, Note_on_c, 8, 66, 90
10, 53113, Control_c, 8, 7, 16
10, 53150, Control_c, 8, 7, 15
10, 53186, Control_c, 8, 7, 14
10, 53217, Note_on_c, 8, 59, 0
10, 53218, Note_on_c, 8, 66, 0
10, 53218, Note_on_c, 8, 63, 0
10, 53220, Note_on_c, 8, 56, 90
10, 53220, Note_on_c, 8, 61, 90
10, 53220, Note_on_c, 8, 64, 90
10, 53223, Control_c, 8, 7, 13
10, 53260, Control_c, 8, 7, 12
10, 53296, Control_c, 8, 7, 11
10, 53333, Control_c, 8, 7, 10
10, 53370, Control_c, 8, 7, 9
10, 53406, Control_c, 8, 7, 8
10, 53443, Control_c, 8, 7, 7
10, 53458, Note_on_c, 8, 64, 0
10, 53458, Note_on_c, 8, 61, 0
10, 53458, Note_on_c, 8, 56, 0
10, 53460, Note_on_c, 8, 57, 90
10, 53460, Note_on_c, 8, 59, 90
10, 53460, Note_on_c, 8, 64, 90
10, 53480, Control_c, 8, 7, 6
10, 53516, Note_on_c, 8, 59, 0
10, 53516, Control_c, 8, 7, 5
10, 53517, Note_on_c, 8, 64, 0
10, 53518, Note_on_c, 8, 57, 0
10, 53520, Note_on_c, 8, 57, 90
10, 53520, Note_on_c, 8, 61, 90
10, 53520, Note_on_c, 8, 64, 90
10, 53553, Control_c, 8, 7, 4
10, 53590, Control_c, 8, 7, 3
10, 53626, Control_c, 8, 7, 2
10, 53663, Control_c, 8, 7, 1
10, 53696, Note_on_c, 8, 64, 0
10, 53696, Note_on_c, 8, 61, 0
10, 53696, Note_on_c, 8, 57, 0
10, 53700, Control_c, 8, 7, 0
10, 53700, Note_on_c, 8, 56, 90
10, 53700, Note_on_c, 8, 59, 90
10, 53700, Note_on_c, 8, 64, 90
10, 53756, Note_on_c, 8, 59, 0
10, 53758, Note_on_c, 8, 64, 0
10, 53758, Note_on_c, 8, 56, 0
10, 53758, End_track
11, 0, Start_track
11, 0, MIDI_port, 0
11, 0, Program_c, 9, 0
11, 0, Control_c, 9, 7, 90
11, 0, Control_c, 9, 10, 64
11, 0, Control_c, 9, 91, 64
11, 0, Control_c, 9, 93, 0
11, 480, Note_on_c, 9, 35, 109
11, 490, Note_on_c, 9, 35, 0
11, 720, Note_on_c, 9, 35, 109
11, 730, Note_on_c, 9, 35, 0
11, 900, Note_on_c, 9, 35, 89
11, 910, Note_on_c, 9, 35, 0
11, 960, Note_on_c, 9, 35, 111
11, 970, Note_on_c, 9, 35, 0
11, 1140, Note_on_c, 9, 35, 91
11, 1150, Note_on_c, 9, 35, 0
11, 1200, Note_on_c, 9, 35, 110
11, 1210, Note_on_c, 9, 35, 0
11, 1440, Note_on_c, 9, 35, 109
11, 1450, Note_on_c, 9, 35, 0
11, 1500, Note_on_c, 9, 35, 91
11, 1510, Note_on_c, 9, 35, 0
11, 1620, Note_on_c, 9, 35, 89
11, 1630, Note_on_c, 9, 35, 0
11, 1680, Note_on_c, 9, 35, 109
11, 1690, Note_on_c, 9, 35, 0
11, 1920, Note_on_c, 9, 35, 110
11, 1930, Note_on_c, 9, 35, 0
11, 2100, Note_on_c, 9, 35, 88
11, 2110, Note_on_c, 9, 35, 0
11, 2160, Note_on_c, 9, 35, 109
11, 2170, Note_on_c, 9, 35, 0
11, 2400, Note_on_c, 9, 35, 111
11, 2410, Note_on_c, 9, 35, 0
11, 2460, Note_on_c, 9, 35, 89
11, 2470, Note_on_c, 9, 35, 0
11, 2640, Note_on_c, 9, 35, 109
11, 2650, Note_on_c, 9, 35, 0
11, 2880, Note_on_c, 9, 35, 111
11, 2890, Note_on_c, 9, 35, 0
11, 2940, Note_on_c, 9, 35, 91
11, 2950, Note_on_c, 9, 35, 0
11, 3120, Note_on_c, 9, 35, 108
11, 3130, Note_on_c, 9, 35, 0
11, 3360, Note_on_c, 9, 35, 109
11, 3370, Note_on_c, 9, 35, 0
11, 3420, Note_on_c, 9, 35, 91
11, 3430, Note_on_c, 9, 35, 0
11, 3540, Note_on_c, 9, 35, 89
11, 3550, Note_on_c, 9, 35, 0
11, 3600, Note_on_c, 9, 35, 108
11, 3610, Note_on_c, 9, 35, 0
11, 3900, Note_on_c, 9, 35, 89
11, 3910, Note_on_c, 9, 35, 0
11, 3930, Note_on_c, 9, 35, 88
11, 3940, Note_on_c, 9, 35, 0
11, 4020, Note_on_c, 9, 35, 91
11, 4030, Note_on_c, 9, 35, 0
11, 4140, Note_on_c, 9, 35, 89
11, 4150, Note_on_c, 9, 35, 0
11, 4260, Note_on_c, 9, 35, 90
11, 4270, Note_on_c, 9, 35, 0
11, 4320, Note_on_c, 9, 35, 110
11, 4330, Note_on_c, 9, 35, 0
11, 4500, Note_on_c, 9, 35, 90
11, 4510, Note_on_c, 9, 35, 0
11, 4560, Note_on_c, 9, 35, 109
11, 4570, Note_on_c, 9, 35, 0
11, 4740, Note_on_c, 9, 35, 91
11, 4750, Note_on_c, 9, 35, 0
11, 4800, Note_on_c, 9, 35, 111
11, 4810, Note_on_c, 9, 35, 0
11, 4860, Note_on_c, 9, 35, 89
11, 4870, Note_on_c, 9, 35, 0
11, 5040, Note_on_c, 9, 35, 108
11, 5050, Note_on_c, 9, 35, 0
11, 5280, Note_on_c, 9, 35, 109
11, 5290, Note_on_c, 9, 35, 0
11, 5340, Note_on_c, 9, 35, 90
11, 5350, Note_on_c, 9, 35, 0
11, 5520, Note_on_c, 9, 35, 110
11, 5530, Note_on_c, 9, 35, 0
11, 5760, Note_on_c, 9, 35, 111
11, 5770, Note_on_c, 9, 35, 0
11, 5820, Note_on_c, 9, 35, 90
11, 5830, Note_on_c, 9, 35, 0
11, 5940, Note_on_c, 9, 35, 91
11, 5950, Note_on_c, 9, 35, 0
11, 6000, Note_on_c, 9, 35, 111
11, 6010, Note_on_c, 9, 35, 0
11, 6240, Note_on_c, 9, 35, 109
11, 6250, Note_on_c, 9, 35, 0
11, 6480, Note_on_c, 9, 35, 108
11, 6490, Note_on_c, 9, 35, 0
11, 6720, Note_on_c, 9, 35, 108
11, 6730, Note_on_c, 9, 35, 0
11, 6960, Note_on_c, 9, 35, 110
11, 6970, Note_on_c, 9, 35, 0
11, 7200, Note_on_c, 9, 35, 111
11, 7210, Note_on_c, 9, 35, 0
11, 7260, Note_on_c, 9, 35, 88
11, 7270, Note_on_c, 9, 35, 0
11, 7440, Note_on_c, 9, 35, 108
11, 7450, Note_on_c, 9, 35, 0
11, 7680, Note_on_c, 9, 35, 108
11, 7690, Note_on_c, 9, 35, 0
11, 7920, Note_on_c, 9, 35, 108
11, 7930, Note_on_c, 9, 35, 0
11, 7980, Note_on_c, 9, 35, 89
11, 7990, Note_on_c, 9, 35, 0
11, 8160, Note_on_c, 9, 35, 108
11, 8170, Note_on_c, 9, 35, 0
11, 8400, Note_on_c, 9, 35, 109
11, 8410, Note_on_c, 9, 35, 0
11, 8580, Note_on_c, 9, 35, 91
11, 8590, Note_on_c, 9, 35, 0
11, 8640, Note_on_c, 9, 35, 111
11, 8650, Note_on_c, 9, 35, 0
11, 8880, Note_on_c, 9, 35, 110
11, 8890, Note_on_c, 9, 35, 0
11, 9120, Note_on_c, 9, 35, 108
11, 9130, Note_on_c, 9, 35, 0
11, 9360, Note_on_c, 9, 35, 110
11, 9370, Note_on_c, 9, 35, 0
11, 9540, Note_on_c, 9, 35, 89
11, 9550, Note_on_c, 9, 35, 0
11, 9600, Note_on_c, 9, 35, 108
11, 9610, Note_on_c, 9, 35, 0
11, 9840, Note_on_c, 9, 35, 109
11, 9850, Note_on_c, 9, 35, 0
11, 9900, Note_on_c, 9, 35, 90
11, 9910, Note_on_c, 9, 35, 0
11, 10020, Note_on_c, 9, 35, 88
11, 10030, Note_on_c, 9, 35, 0
11, 10080, Note_on_c, 9, 35, 109
11, 10090, Note_on_c, 9, 35, 0
11, 10320, Note_on_c, 9, 35, 109
11, 10330, Note_on_c, 9, 35, 0
11, 10560, Note_on_c, 9, 35, 111
11, 10570, Note_on_c, 9, 35, 0
11, 10800, Note_on_c, 9, 35, 108
11, 10810, Note_on_c, 9, 35, 0
11, 11040, Note_on_c, 9, 35, 111
11, 11050, Note_on_c, 9, 35, 0
11, 11280, Note_on_c, 9, 35, 109
11, 11290, Note_on_c, 9, 35, 0
11, 11520, Note_on_c, 9, 35, 108
11, 11530, Note_on_c, 9, 35, 0
11, 11760, Note_on_c, 9, 35, 88
11, 11770, Note_on_c, 9, 35, 0
11, 11820, Note_on_c, 9, 35, 91
11, 11830, Note_on_c, 9, 35, 0
11, 12000, Note_on_c, 9, 35, 110
11, 12010, Note_on_c, 9, 35, 0
11, 12240, Note_on_c, 9, 35, 110
11, 12250, Note_on_c, 9, 35, 0
11, 12480, Note_on_c, 9, 35, 110
11, 12490, Note_on_c, 9, 35, 0
11, 12720, Note_on_c, 9, 35, 109
11, 12730, Note_on_c, 9, 35, 0
11, 12960, Note_on_c, 9, 35, 108
11, 12970, Note_on_c, 9, 35, 0
11, 13200, Note_on_c, 9, 35, 110
11, 13210, Note_on_c, 9, 35, 0
11, 13440, Note_on_c, 9, 35, 109
11, 13450, Note_on_c, 9, 35, 0
11, 13620, Note_on_c, 9, 35, 91
11, 13630, Note_on_c, 9, 35, 0
11, 13680, Note_on_c, 9, 35, 110
11, 13690, Note_on_c, 9, 35, 0
11, 13920, Note_on_c, 9, 35, 110
11, 13930, Note_on_c, 9, 35, 0
11, 14160, Note_on_c, 9, 35, 111
11, 14170, Note_on_c, 9, 35, 0
11, 14400, Note_on_c, 9, 35, 109
11, 14410, Note_on_c, 9, 35, 0
11, 14460, Note_on_c, 9, 35, 88
11, 14470, Note_on_c, 9, 35, 0
11, 14640, Note_on_c, 9, 35, 109
11, 14650, Note_on_c, 9, 35, 0
11, 14880, Note_on_c, 9, 35, 111
11, 14890, Note_on_c, 9, 35, 0
11, 15120, Note_on_c, 9, 35, 108
11, 15130, Note_on_c, 9, 35, 0
11, 15360, Note_on_c, 9, 35, 110
11, 15370, Note_on_c, 9, 35, 0
11, 15420, Note_on_c, 9, 35, 89
11, 15430, Note_on_c, 9, 35, 0
11, 15600, Note_on_c, 9, 35, 109
11, 15610, Note_on_c, 9, 35, 0
11, 15840, Note_on_c, 9, 35, 108
11, 15850, Note_on_c, 9, 35, 0
11, 16080, Note_on_c, 9, 35, 109
11, 16090, Note_on_c, 9, 35, 0
11, 16320, Note_on_c, 9, 35, 111
11, 16330, Note_on_c, 9, 35, 0
11, 16560, Note_on_c, 9, 35, 111
11, 16570, Note_on_c, 9, 35, 0
11, 16620, Note_on_c, 9, 35, 90
11, 16630, Note_on_c, 9, 35, 0
11, 16800, Note_on_c, 9, 35, 111
11, 16810, Note_on_c, 9, 35, 0
11, 16980, Note_on_c, 9, 35, 90
11, 16990, Note_on_c, 9, 35, 0
11, 17040, Note_on_c, 9, 35, 109
11, 17050, Note_on_c, 9, 35, 0
11, 17220, Note_on_c, 9, 35, 91
11, 17230, Note_on_c, 9, 35, 0
11, 17280, Note_on_c, 9, 35, 108
11, 17290, Note_on_c, 9, 35, 0
11, 17460, Note_on_c, 9, 35, 88
11, 17470, Note_on_c, 9, 35, 0
11, 17520, Note_on_c, 9, 35, 111
11, 17530, Note_on_c, 9, 35, 0
11, 17760, Note_on_c, 9, 35, 109
11, 17770, Note_on_c, 9, 35, 0
11, 18000, Note_on_c, 9, 35, 111
11, 18010, Note_on_c, 9, 35, 0
11, 18060, Note_on_c, 9, 35, 88
11, 18070, Note_on_c, 9, 35, 0
11, 18090, Note_on_c, 9, 35, 88
11, 18100, Note_on_c, 9, 35, 0
11, 18180, Note_on_c, 9, 35, 91
11, 18190, Note_on_c, 9, 35, 0
11, 18210, Note_on_c, 9, 35, 89
11, 18220, Note_on_c, 9, 35, 0
11, 18240, Note_on_c, 9, 35, 109
11, 18250, Note_on_c, 9, 35, 0
11, 18480, Note_on_c, 9, 35, 109
11, 18490, Note_on_c, 9, 35, 0
11, 18720, Note_on_c, 9, 35, 109
11, 18730, Note_on_c, 9, 35, 0
11, 18960, Note_on_c, 9, 35, 110
11, 18970, Note_on_c, 9, 35, 0
11, 19200, Note_on_c, 9, 35, 111
11, 19210, Note_on_c, 9, 35, 0
11, 19440, Note_on_c, 9, 35, 109
11, 19450, Note_on_c, 9, 35, 0
11, 19500, Note_on_c, 9, 35, 88
11, 19510, Note_on_c, 9, 35, 0
11, 19620, Note_on_c, 9, 35, 91
11, 19630, Note_on_c, 9, 35, 0
11, 19680, Note_on_c, 9, 35, 111
11, 19690, Note_on_c, 9, 35, 0
11, 19920, Note_on_c, 9, 35, 108
11, 19930, Note_on_c, 9, 35, 0
11, 20100, Note_on_c, 9, 35, 88
11, 20110, Note_on_c, 9, 35, 0
11, 20220, Note_on_c, 9, 35, 89
11, 20230, Note_on_c, 9, 35, 0
11, 20280, Note_on_c, 9, 35, 111
11, 20290, Note_on_c, 9, 35, 0
11, 20310, Note_on_c, 9, 35, 88
11, 20320, Note_on_c, 9, 35, 0
11, 20460, Note_on_c, 9, 35, 110
11, 20470, Note_on_c, 9, 35, 0
11, 20490, Note_on_c, 9, 35, 90
11, 20500, Note_on_c, 9, 35, 0
11, 20580, Note_on_c, 9, 35, 91
11, 20590, Note_on_c, 9, 35, 0
11, 20610, Note_on_c, 9, 35, 91
11, 20620, Note_on_c, 9, 35, 0
11, 20640, Note_on_c, 9, 35, 110
11, 20650, Note_on_c, 9, 35, 0
11, 20880, Note_on_c, 9, 35, 109
11, 20890, Note_on_c, 9, 35, 0
11, 21060, Note_on_c, 9, 35, 88
11, 21070, Note_on_c, 9, 35, 0
11, 21120, Note_on_c, 9, 35, 111
11, 21130, Note_on_c, 9, 35, 0
11, 21360, Note_on_c, 9, 35, 109
11, 21370, Note_on_c, 9, 35, 0
11, 21540, Note_on_c, 9, 35, 88
11, 21550, Note_on_c, 9, 35, 0
11, 21600, Note_on_c, 9, 35, 111
11, 21610, Note_on_c, 9, 35, 0
11, 21780, Note_on_c, 9, 35, 91
11, 21790, Note_on_c, 9, 35, 0
11, 21840, Note_on_c, 9, 35, 109
11, 21850, Note_on_c, 9, 35, 0
11, 22080, Note_on_c, 9, 35, 109
11, 22090, Note_on_c, 9, 35, 0
11, 22320, Note_on_c, 9, 35, 110
11, 22330, Note_on_c, 9, 35, 0
11, 22500, Note_on_c, 9, 35, 89
11, 22510, Note_on_c, 9, 35, 0
11, 22560, Note_on_c, 9, 35, 108
11, 22570, Note_on_c, 9, 35, 0
11, 22800, Note_on_c, 9, 35, 108
11, 22810, Note_on_c, 9, 35, 0
11, 23040, Note_on_c, 9, 35, 108
11, 23050, Note_on_c, 9, 35, 0
11, 23220, Note_on_c, 9, 35, 91
11, 23230, Note_on_c, 9, 35, 0
11, 23280, Note_on_c, 9, 35, 111
11, 23290, Note_on_c, 9, 35, 0
11, 23520, Note_on_c, 9, 35, 109
11, 23530, Note_on_c, 9, 35, 0
11, 23700, Note_on_c, 9, 35, 89
11, 23710, Note_on_c, 9, 35, 0
11, 23760, Note_on_c, 9, 35, 108
11, 23770, Note_on_c, 9, 35, 0
11, 23940, Note_on_c, 9, 35, 91
11, 23950, Note_on_c, 9, 35, 0
11, 24000, Note_on_c, 9, 35, 111
11, 24010, Note_on_c, 9, 35, 0
11, 24060, Note_on_c, 9, 35, 89
11, 24070, Note_on_c, 9, 35, 0
11, 24240, Note_on_c, 9, 35, 108
11, 24250, Note_on_c, 9, 35, 0
11, 24480, Note_on_c, 9, 35, 111
11, 24490, Note_on_c, 9, 35, 0
11, 24720, Note_on_c, 9, 35, 108
11, 24730, Note_on_c, 9, 35, 0
11, 24960, Note_on_c, 9, 35, 109
11, 24970, Note_on_c, 9, 35, 0
11, 25200, Note_on_c, 9, 35, 110
11, 25210, Note_on_c, 9, 35, 0
11, 25440, Note_on_c, 9, 35, 111
11, 25450, Note_on_c, 9, 35, 0
11, 25680, Note_on_c, 9, 35, 109
11, 25690, Note_on_c, 9, 35, 0
11, 25860, Note_on_c, 9, 35, 91
11, 25870, Note_on_c, 9, 35, 0
11, 25920, Note_on_c, 9, 35, 108
11, 25930, Note_on_c, 9, 35, 0
11, 26160, Note_on_c, 9, 35, 111
11, 26170, Note_on_c, 9, 35, 0
11, 26400, Note_on_c, 9, 35, 109
11, 26410, Note_on_c, 9, 35, 0
11, 26640, Note_on_c, 9, 35, 111
11, 26650, Note_on_c, 9, 35, 0
11, 26880, Note_on_c, 9, 35, 110
11, 26890, Note_on_c, 9, 35, 0
11, 27060, Note_on_c, 9, 35, 91
11, 27070, Note_on_c, 9, 35, 0
11, 27120, Note_on_c, 9, 35, 109
11, 27130, Note_on_c, 9, 35, 0
11, 27360, Note_on_c, 9, 35, 108
11, 27370, Note_on_c, 9, 35, 0
11, 27600, Note_on_c, 9, 35, 109
11, 27610, Note_on_c, 9, 35, 0
11, 27780, Note_on_c, 9, 35, 88
11, 27790, Note_on_c, 9, 35, 0
11, 27840, Note_on_c, 9, 35, 111
11, 27850, Note_on_c, 9, 35, 0
11, 28080, Note_on_c, 9, 35, 110
11, 28090, Note_on_c, 9, 35, 0
11, 28260, Note_on_c, 9, 35, 90
11, 28270, Note_on_c, 9, 35, 0
11, 28320, Note_on_c, 9, 35, 109
11, 28330, Note_on_c, 9, 35, 0
11, 28620, Note_on_c, 9, 35, 108
11, 28630, Note_on_c, 9, 35, 0
11, 28800, Note_on_c, 9, 35, 109
11, 28810, Note_on_c, 9, 35, 0
11, 29040, Note_on_c, 9, 35, 109
11, 29050, Note_on_c, 9, 35, 0
11, 29100, Note_on_c, 9, 35, 90
11, 29110, Note_on_c, 9, 35, 0
11, 29280, Note_on_c, 9, 35, 110
11, 29290, Note_on_c, 9, 35, 0
11, 29340, Note_on_c, 9, 35, 91
11, 29350, Note_on_c, 9, 35, 0
11, 29520, Note_on_c, 9, 35, 110
11, 29530, Note_on_c, 9, 35, 0
11, 29700, Note_on_c, 9, 35, 91
11, 29710, Note_on_c, 9, 35, 0
11, 29760, Note_on_c, 9, 35, 108
11, 29770, Note_on_c, 9, 35, 0
11, 30180, Note_on_c, 9, 35, 90
11, 30190, Note_on_c, 9, 35, 0
11, 30240, Note_on_c, 9, 35, 110
11, 30250, Note_on_c, 9, 35, 0
11, 30300, Note_on_c, 9, 35, 88
11, 30310, Note_on_c, 9, 35, 0
11, 30480, Note_on_c, 9, 35, 110
11, 30490, Note_on_c, 9, 35, 0
11, 30720, Note_on_c, 9, 35, 109
11, 30730, Note_on_c, 9, 35, 0
11, 30960, Note_on_c, 9, 35, 110
11, 30970, Note_on_c, 9, 35, 0
11, 31200, Note_on_c, 9, 35, 111
11, 31210, Note_on_c, 9, 35, 0
11, 31260, Note_on_c, 9, 35, 91
11, 31270, Note_on_c, 9, 35, 0
11, 31440, Note_on_c, 9, 35, 110
11, 31450, Note_on_c, 9, 35, 0
11, 31500, Note_on_c, 9, 35, 89
11, 31510, Note_on_c, 9, 35, 0
11, 31680, Note_on_c, 9, 35, 109
11, 31690, Note_on_c, 9, 35, 0
11, 31920, Note_on_c, 9, 35, 109
11, 31930, Note_on_c, 9, 35, 0
11, 32160, Note_on_c, 9, 35, 111
11, 32170, Note_on_c, 9, 35, 0
11, 32220, Note_on_c, 9, 35, 90
11, 32230, Note_on_c, 9, 35, 0
11, 32340, Note_on_c, 9, 35, 90
11, 32350, Note_on_c, 9, 35, 0
11, 32400, Note_on_c, 9, 35, 110
11, 32410, Note_on_c, 9, 35, 0
11, 32640, Note_on_c, 9, 35, 110
11, 32650, Note_on_c, 9, 35, 0
11, 32700, Note_on_c, 9, 35, 90
11, 32710, Note_on_c, 9, 35, 0
11, 32880, Note_on_c, 9, 35, 110
11, 32890, Note_on_c, 9, 35, 0
11, 32940, Note_on_c, 9, 35, 91
11, 32950, Note_on_c, 9, 35, 0
11, 33120, Note_on_c, 9, 35, 108
11, 33130, Note_on_c, 9, 35, 0
11, 33180, Note_on_c, 9, 35, 89
11, 33190, Note_on_c, 9, 35, 0
11, 33300, Note_on_c, 9, 35, 90
11, 33310, Note_on_c, 9, 35, 0
11, 33360, Note_on_c, 9, 35, 110
11, 33370, Note_on_c, 9, 35, 0
11, 33600, Note_on_c, 9, 35, 109
11, 33610, Note_on_c, 9, 35, 0
11, 33840, Note_on_c, 9, 35, 111
11, 33850, Note_on_c, 9, 35, 0
11, 34080, Note_on_c, 9, 35, 108
11, 34090, Note_on_c, 9, 35, 0
11, 34320, Note_on_c, 9, 35, 109
11, 34330, Note_on_c, 9, 35, 0
11, 34500, Note_on_c, 9, 35, 91
11, 34510, Note_on_c, 9, 35, 0
11, 34560, Note_on_c, 9, 35, 108
11, 34570, Note_on_c, 9, 35, 0
11, 34800, Note_on_c, 9, 35, 108
11, 34810, Note_on_c, 9, 35, 0
11, 35040, Note_on_c, 9, 35, 108
11, 35050, Note_on_c, 9, 35, 0
11, 35100, Note_on_c, 9, 35, 89
11, 35110, Note_on_c, 9, 35, 0
11, 35220, Note_on_c, 9, 35, 91
11, 35230, Note_on_c, 9, 35, 0
11, 35280, Note_on_c, 9, 35, 108
11, 35290, Note_on_c, 9, 35, 0
11, 35520, Note_on_c, 9, 35, 109
11, 35530, Note_on_c, 9, 35, 0
11, 35760, Note_on_c, 9, 35, 111
11, 35770, Note_on_c, 9, 35, 0
11, 36000, Note_on_c, 9, 35, 109
11, 36010, Note_on_c, 9, 35, 0
11, 36060, Note_on_c, 9, 35, 88
11, 36070, Note_on_c, 9, 35, 0
11, 36180, Note_on_c, 9, 35, 90
11, 36190, Note_on_c, 9, 35, 0
11, 36240, Note_on_c, 9, 35, 109
11, 36250, Note_on_c, 9, 35, 0
11, 36480, Note_on_c, 9, 35, 108
11, 36490, Note_on_c, 9, 35, 0
11, 36720, Note_on_c, 9, 35, 109
11, 36730, Note_on_c, 9, 35, 0
11, 36780, Note_on_c, 9, 35, 91
11, 36790, Note_on_c, 9, 35, 0
11, 36960, Note_on_c, 9, 35, 109
11, 36970, Note_on_c, 9, 35, 0
11, 37200, Note_on_c, 9, 35, 109
11, 37210, Note_on_c, 9, 35, 0
11, 37440, Note_on_c, 9, 35, 109
11, 37450, Note_on_c, 9, 35, 0
11, 37680, Note_on_c, 9, 35, 108
11, 37690, Note_on_c, 9, 35, 0
11, 37920, Note_on_c, 9, 35, 111
11, 37930, Note_on_c, 9, 35, 0
11, 38160, Note_on_c, 9, 35, 110
11, 38170, Note_on_c, 9, 35, 0
11, 38340, Note_on_c, 9, 35, 88
11, 38350, Note_on_c, 9, 35, 0
11, 38400, Note_on_c, 9, 35, 109
11, 38410, Note_on_c, 9, 35, 0
11, 38640, Note_on_c, 9, 35, 110
11, 38650, Note_on_c, 9, 35, 0
11, 38880, Note_on_c, 9, 35, 109
11, 38890, Note_on_c, 9, 35, 0
11, 38940, Note_on_c, 9, 35, 89
11, 38950, Note_on_c, 9, 35, 0
11, 39120, Note_on_c, 9, 35, 110
11, 39130, Note_on_c, 9, 35, 0
11, 39360, Note_on_c, 9, 35, 110
11, 39370, Note_on_c, 9, 35, 0
11, 39540, Note_on_c, 9, 35, 89
11, 39550, Note_on_c, 9, 35, 0
11, 39600, Note_on_c, 9, 35, 109
11, 39610, Note_on_c, 9, 35, 0
11, 39840, Note_on_c, 9, 35, 109
11, 39850, Note_on_c, 9, 35, 0
11, 39900, Note_on_c, 9, 35, 91
11, 39910, Note_on_c, 9, 35, 0
11, 40080, Note_on_c, 9, 35, 111
11, 40090, Note_on_c, 9, 35, 0
11, 40320, Note_on_c, 9, 35, 111
11, 40330, Note_on_c, 9, 35, 0
11, 40560, Note_on_c, 9, 35, 110
11, 40570, Note_on_c, 9, 35, 0
11, 40800, Note_on_c, 9, 35, 111
11, 40810, Note_on_c, 9, 35, 0
11, 41040, Note_on_c, 9, 35, 109
11, 41050, Note_on_c, 9, 35, 0
11, 41280, Note_on_c, 9, 35, 111
11, 41290, Note_on_c, 9, 35, 0
11, 41340, Note_on_c, 9, 35, 91
11, 41350, Note_on_c, 9, 35, 0
11, 41520, Note_on_c, 9, 35, 111
11, 41530, Note_on_c, 9, 35, 0
11, 41760, Note_on_c, 9, 35, 108
11, 41770, Note_on_c, 9, 35, 0
11, 42000, Note_on_c, 9, 35, 110
11, 42010, Note_on_c, 9, 35, 0
11, 42060, Note_on_c, 9, 35, 88
11, 42070, Note_on_c, 9, 35, 0
11, 42180, Note_on_c, 9, 35, 90
11, 42190, Note_on_c, 9, 35, 0
11, 42240, Note_on_c, 9, 35, 110
11, 42250, Note_on_c, 9, 35, 0
11, 42480, Note_on_c, 9, 35, 109
11, 42490, Note_on_c, 9, 35, 0
11, 42660, Note_on_c, 9, 35, 88
11, 42670, Note_on_c, 9, 35, 0
11, 42720, Note_on_c, 9, 35, 110
11, 42730, Note_on_c, 9, 35, 0
11, 42960, Note_on_c, 9, 35, 109
11, 42970, Note_on_c, 9, 35, 0
11, 43200, Note_on_c, 9, 35, 110
11, 43210, Note_on_c, 9, 35, 0
11, 43380, Note_on_c, 9, 35, 91
11, 43390, Note_on_c, 9, 35, 0
11, 43440, Note_on_c, 9, 35, 109
11, 43450, Note_on_c, 9, 35, 0
11, 43500, Note_on_c, 9, 35, 88
11, 43510, Note_on_c, 9, 35, 0
11, 43680, Note_on_c, 9, 35, 110
11, 43690, Note_on_c, 9, 35, 0
11, 43860, Note_on_c, 9, 35, 89
11, 43870, Note_on_c, 9, 35, 0
11, 43920, Note_on_c, 9, 35, 109
11, 43930, Note_on_c, 9, 35, 0
11, 44160, Note_on_c, 9, 35, 109
11, 44170, Note_on_c, 9, 35, 0
11, 44400, Note_on_c, 9, 35, 108
11, 44410, Note_on_c, 9, 35, 0
11, 44460, Note_on_c, 9, 35, 88
11, 44470, Note_on_c, 9, 35, 0
11, 44640, Note_on_c, 9, 35, 109
11, 44650, Note_on_c, 9, 35, 0
11, 44880, Note_on_c, 9, 35, 109
11, 44890, Note_on_c, 9, 35, 0
11, 44940, Note_on_c, 9, 35, 89
11, 44950, Note_on_c, 9, 35, 0
11, 45120, Note_on_c, 9, 35, 109
11, 45130, Note_on_c, 9, 35, 0
11, 45360, Note_on_c, 9, 35, 109
11, 45370, Note_on_c, 9, 35, 0
11, 45600, Note_on_c, 9, 35, 108
11, 45610, Note_on_c, 9, 35, 0
11, 45840, Note_on_c, 9, 35, 109
11, 45850, Note_on_c, 9, 35, 0
11, 45900, Note_on_c, 9, 35, 91
11, 45910, Note_on_c, 9, 35, 0
11, 46080, Note_on_c, 9, 35, 111
11, 46090, Note_on_c, 9, 35, 0
11, 46320, Note_on_c, 9, 35, 109
11, 46330, Note_on_c, 9, 35, 0
11, 46380, Note_on_c, 9, 35, 90
11, 46390, Note_on_c, 9, 35, 0
11, 46560, Note_on_c, 9, 35, 109
11, 46570, Note_on_c, 9, 35, 0
11, 46800, Note_on_c, 9, 35, 111
11, 46810, Note_on_c, 9, 35, 0
11, 46860, Note_on_c, 9, 35, 91
11, 46870, Note_on_c, 9, 35, 0
11, 47040, Note_on_c, 9, 35, 110
11, 47050, Note_on_c, 9, 35, 0
11, 47220, Note_on_c, 9, 35, 90
11, 47230, Note_on_c, 9, 35, 0
11, 47280, Note_on_c, 9, 35, 111
11, 47290, Note_on_c, 9, 35, 0
11, 47580, Note_on_c, 9, 35, 90
11, 47590, Note_on_c, 9, 35, 0
11, 47700, Note_on_c, 9, 35, 89
11, 47710, Note_on_c, 9, 35, 0
11, 47820, Note_on_c, 9, 35, 90
11, 47830, Note_on_c, 9, 35, 0
11, 47940, Note_on_c, 9, 35, 89
11, 47950, Note_on_c, 9, 35, 0
11, 48000, Note_on_c, 9, 35, 111
11, 48010, Note_on_c, 9, 35, 0
11, 48240, Note_on_c, 9, 35, 111
11, 48250, Note_on_c, 9, 35, 0
11, 48300, Note_on_c, 9, 35, 91
11, 48310, Note_on_c, 9, 35, 0
11, 48480, Note_on_c, 9, 35, 110
11, 48490, Note_on_c, 9, 35, 0
11, 48720, Note_on_c, 9, 35, 110
11, 48730, Note_on_c, 9, 35, 0
11, 48960, Note_on_c, 9, 35, 110
11, 48970, Note_on_c, 9, 35, 0
11, 49020, Note_on_c, 9, 35, 91
11, 49030, Note_on_c, 9, 35, 0
11, 49200, Note_on_c, 9, 35, 111
11, 49210, Note_on_c, 9, 35, 0
11, 49440, Note_on_c, 9, 35, 109
11, 49450, Note_on_c, 9, 35, 0
11, 49680, Note_on_c, 9, 35, 109
11, 49690, Note_on_c, 9, 35, 0
11, 49860, Note_on_c, 9, 35, 90
11, 49870, Note_on_c, 9, 35, 0
11, 49920, Note_on_c, 9, 35, 109
11, 49930, Note_on_c, 9, 35, 0
11, 50160, Note_on_c, 9, 35, 111
11, 50170, Note_on_c, 9, 35, 0
11, 50220, Note_on_c, 9, 35, 90
11, 50230, Note_on_c, 9, 35, 0
11, 50340, Note_on_c, 9, 35, 91
11, 50350, Note_on_c, 9, 35, 0
11, 50400, Control_c, 9, 7, 90
11, 50400, Note_on_c, 9, 35, 109
11, 50410, Note_on_c, 9, 35, 0
11, 50436, Control_c, 9, 7, 89
11, 50473, Control_c, 9, 7, 88
11, 50510, Control_c, 9, 7, 87
11, 50546, Control_c, 9, 7, 86
11, 50583, Control_c, 9, 7, 85
11, 50620, Control_c, 9, 7, 84
11, 50640, Note_on_c, 9, 35, 111
11, 50650, Note_on_c, 9, 35, 0
11, 50656, Control_c, 9, 7, 83
11, 50693, Control_c, 9, 7, 82
11, 50730, Control_c, 9, 7, 81
11, 50766, Control_c, 9, 7, 80
11, 50803, Control_c, 9, 7, 79
11, 50820, Note_on_c, 9, 35, 91
11, 50830, Note_on_c, 9, 35, 0
11, 50840, Control_c, 9, 7, 78
11, 50876, Control_c, 9, 7, 77
11, 50880, Note_on_c, 9, 35, 108
11, 50890, Note_on_c, 9, 35, 0
11, 50913, Control_c, 9, 7, 76
11, 50950, Control_c, 9, 7, 75
11, 50986, Control_c, 9, 7, 74
11, 51023, Control_c, 9, 7, 73
11, 51060, Control_c, 9, 7, 72
11, 51096, Control_c, 9, 7, 71
11, 51120, Note_on_c, 9, 35, 109
11, 51130, Note_on_c, 9, 35, 0
11, 51133, Control_c, 9, 7, 70
11, 51170, Control_c, 9, 7, 69
11, 51206, Control_c, 9, 7, 68
11, 51243, Control_c, 9, 7, 67
11, 51280, Control_c, 9, 7, 66
11, 51316, Control_c, 9, 7, 65
11, 51353, Control_c, 9, 7, 64
11, 51360, Note_on_c, 9, 35, 109
11, 51370, Note_on_c, 9, 35, 0
11, 51390, Control_c, 9, 7, 63
11, 51426, Control_c, 9, 7, 62
11, 51463, Control_c, 9, 7, 61
11, 51500, Control_c, 9, 7, 60
11, 51536, Control_c, 9, 7, 59
11, 51573, Control_c, 9, 7, 58
11, 51600, Note_on_c, 9, 35, 110
11, 51610, Note_on_c, 9, 35, 0
11, 51610, Control_c, 9, 7, 57
11, 51646, Control_c, 9, 7, 56
11, 51660, Note_on_c, 9, 35, 90
11, 51670, Note_on_c, 9, 35, 0
11, 51683, Control_c, 9, 7, 55
11, 51690, Note_on_c, 9, 35, 91
11, 51700, Note_on_c, 9, 35, 0
11, 51720, Control_c, 9, 7, 54
11, 51756, Control_c, 9, 7, 53
11, 51780, Note_on_c, 9, 35, 89
11, 51790, Note_on_c, 9, 35, 0
11, 51793, Control_c, 9, 7, 52
11, 51810, Note_on_c, 9, 35, 91
11, 51820, Note_on_c, 9, 35, 0
11, 51830, Control_c, 9, 7, 51
11, 51840, Note_on_c, 9, 35, 109
11, 51850, Note_on_c, 9, 35, 0
11, 51866, Control_c, 9, 7, 50
11, 51903, Control_c, 9, 7, 49
11, 51940, Control_c, 9, 7, 48
11, 51976, Control_c, 9, 7, 47
11, 52013, Control_c, 9, 7, 46
11, 52020, Note_on_c, 9, 35, 90
11, 52030, Note_on_c, 9, 35, 0
11, 52050, Control_c, 9, 7, 45
11, 52080, Note_on_c, 9, 35, 111
11, 52086, Control_c, 9, 7, 44
11, 52090, Note_on_c, 9, 35, 0
11, 52123, Control_c, 9, 7, 43
11, 52160, Control_c, 9, 7, 42
11, 52196, Control_c, 9, 7, 41
11, 52233, Control_c, 9, 7, 40
11, 52260, Note_on_c, 9, 35, 90
11, 52270, Note_on_c, 9, 35, 0
11, 52270, Control_c, 9, 7, 39
11, 52306, Control_c, 9, 7, 38
11, 52320, Note_on_c, 9, 35, 108
11, 52330, Note_on_c, 9, 35, 0
11, 52343, Control_c, 9, 7, 37
11, 52380, Control_c, 9, 7, 36
11, 52416, Control_c, 9, 7, 35
11, 52453, Control_c, 9, 7, 34
11, 52490, Control_c, 9, 7, 33
11, 52526, Control_c, 9, 7, 32
11, 52560, Note_on_c, 9, 35, 111
11, 52563, Control_c, 9, 7, 31
11, 52570, Note_on_c, 9, 35, 0
11, 52600, Control_c, 9, 7, 30
11, 52636, Control_c, 9, 7, 29
11, 52673, Control_c, 9, 7, 28
11, 52710, Control_c, 9, 7, 27
11, 52746, Control_c, 9, 7, 26
11, 52783, Control_c, 9, 7, 25
11, 52800, Note_on_c, 9, 35, 109
11, 52810, Note_on_c, 9, 35, 0
11, 52820, Control_c, 9, 7, 24
11, 52856, Control_c, 9, 7, 23
11, 52893, Control_c, 9, 7, 22
11, 52930, Control_c, 9, 7, 21
11, 52966, Control_c, 9, 7, 20
11, 53003, Control_c, 9, 7, 19
11, 53040, Control_c, 9, 7, 18
11, 53040, Note_on_c, 9, 35, 108
11, 53050, Note_on_c, 9, 35, 0
11, 53076, Control_c, 9, 7, 17
11, 53100, Note_on_c, 9, 35, 88
11, 53110, Note_on_c, 9, 35, 0
11, 53113, Control_c, 9, 7, 16
11, 53150, Control_c, 9, 7, 15
11, 53186, Control_c, 9, 7, 14
11, 53220, Note_on_c, 9, 35, 91
11, 53223, Control_c, 9, 7, 13
11, 53230, Note_on_c, 9, 35, 0
11, 53260, Control_c, 9, 7, 12
11, 53280, Note_on_c, 9, 35, 110
11, 53290, Note_on_c, 9, 35, 0
11, 53296, Control_c, 9, 7, 11
11, 53333, Control_c, 9, 7, 10
11, 53340, Note_on_c, 9, 35, 90
11, 53350, Note_on_c, 9, 35, 0
11, 53370, Control_c, 9, 7, 9
11, 53406, Control_c, 9, 7, 8
11, 53443, Control_c, 9, 7, 7
11, 53480, Control_c, 9, 7, 6
11, 53516, Control_c, 9, 7, 5
11, 53520, Note_on_c, 9, 35, 111
11, 53530, Note_on_c, 9, 35, 0
11, 53553, Control_c, 9, 7, 4
11, 53580, Note_on_c, 9, 35, 88
11, 53590, Note_on_c, 9, 35, 0
11, 53590, Control_c, 9, 7, 3
11, 53626, Control_c, 9, 7, 2
11, 53663, Control_c, 9, 7, 1
11, 53700, Control_c, 9, 7, 0
11, 53700, End_track
12, 0, Start_track
12, 0, MIDI_port, 0
12, 600, Note_on_c, 9, 40, 109
12, 610, Note_on_c, 9, 40, 0
12, 840, Note_on_c, 9, 40, 109
12, 850, Note_on_c, 9, 40, 0
12, 1080, Note_on_c, 9, 40, 109
12, 1090, Note_on_c, 9, 40, 0
12, 1320, Note_on_c, 9, 40, 109
12, 1330, Note_on_c, 9, 40, 0
12, 1350, Note_on_c, 9, 40, 71
12, 1360, Note_on_c, 9, 40, 0
12, 1380, Note_on_c, 9, 40, 88
12, 1390, Note_on_c, 9, 40, 0
12, 1410, Note_on_c, 9, 40, 42
12, 1420, Note_on_c, 9, 40, 0
12, 1560, Note_on_c, 9, 40, 108
12, 1570, Note_on_c, 9, 40, 0
12, 1800, Note_on_c, 9, 40, 109
12, 1810, Note_on_c, 9, 40, 0
12, 2040, Note_on_c, 9, 40, 108
12, 2050, Note_on_c, 9, 40, 0
12, 2280, Note_on_c, 9, 40, 110
12, 2290, Note_on_c, 9, 40, 0
12, 2520, Note_on_c, 9, 40, 111
12, 2530, Note_on_c, 9, 40, 0
12, 2760, Note_on_c, 9, 40, 111
12, 2770, Note_on_c, 9, 40, 0
12, 3000, Note_on_c, 9, 40, 111
12, 3010, Note_on_c, 9, 40, 0
12, 3240, Note_on_c, 9, 40, 111
12, 3250, Note_on_c, 9, 40, 0
12, 3480, Note_on_c, 9, 40, 108
12, 3490, Note_on_c, 9, 40, 0
12, 3720, Note_on_c, 9, 40, 110
12, 3730, Note_on_c, 9, 40, 0
12, 3840, Note_on_c, 9, 40, 109
12, 3850, Note_on_c, 9, 40, 0
12, 3870, Note_on_c, 9, 40, 70
12, 3880, Note_on_c, 9, 40, 0
12, 3960, Note_on_c, 9, 40, 110
12, 3970, Note_on_c, 9, 40, 0
12, 3990, Note_on_c, 9, 40, 70
12, 4000, Note_on_c, 9, 40, 0
12, 4050, Note_on_c, 9, 40, 42
12, 4060, Note_on_c, 9, 40, 0
12, 4080, Note_on_c, 9, 40, 109
12, 4090, Note_on_c, 9, 40, 0
12, 4110, Note_on_c, 9, 40, 71
12, 4120, Note_on_c, 9, 40, 0
12, 4170, Note_on_c, 9, 40, 88
12, 4180, Note_on_c, 9, 40, 0
12, 4200, Note_on_c, 9, 40, 70
12, 4210, Note_on_c, 9, 40, 0
12, 4230, Note_on_c, 9, 40, 71
12, 4240, Note_on_c, 9, 40, 0
12, 4290, Note_on_c, 9, 40, 70
12, 4300, Note_on_c, 9, 40, 0
12, 4440, Note_on_c, 9, 40, 110
12, 4450, Note_on_c, 9, 40, 0
12, 4680, Note_on_c, 9, 40, 110
12, 4690, Note_on_c, 9, 40, 0
12, 4920, Note_on_c, 9, 40, 108
12, 4930, Note_on_c, 9, 40, 0
12, 5160, Note_on_c, 9, 40, 111
12, 5170, Note_on_c, 9, 40, 0
12, 5400, Note_on_c, 9, 40, 111
12, 5410, Note_on_c, 9, 40, 0
12, 5640, Note_on_c, 9, 40, 110
12, 5650, Note_on_c, 9, 40, 0
12, 5880, Note_on_c, 9, 40, 109
12, 5890, Note_on_c, 9, 40, 0
12, 6120, Note_on_c, 9, 40, 111
12, 6130, Note_on_c, 9, 40, 0
12, 6360, Note_on_c, 9, 40, 108
12, 6370, Note_on_c, 9, 40, 0
12, 6600, Note_on_c, 9, 40, 111
12, 6610, Note_on_c, 9, 40, 0
12, 6840, Note_on_c, 9, 40, 109
12, 6850, Note_on_c, 9, 40, 0
12, 7080, Note_on_c, 9, 40, 110
12, 7090, Note_on_c, 9, 40, 0
12, 7320, Note_on_c, 9, 40, 111
12, 7330, Note_on_c, 9, 40, 0
12, 7560, Note_on_c, 9, 40, 111
12, 7570, Note_on_c, 9, 40, 0
12, 7800, Note_on_c, 9, 40, 110
12, 7810, Note_on_c, 9, 40, 0
12, 8040, Note_on_c, 9, 40, 108
12, 8050, Note_on_c, 9, 40, 0
12, 8280, Note_on_c, 9, 40, 108
12, 8290, Note_on_c, 9, 40, 0
12, 8520, Note_on_c, 9, 40, 109
12, 8530, Note_on_c, 9, 40, 0
12, 8760, Note_on_c, 9, 40, 110
12, 8770, Note_on_c, 9, 40, 0
12, 9000, Note_on_c, 9, 40, 111
12, 9010, Note_on_c, 9, 40, 0
12, 9240, Note_on_c, 9, 40, 111
12, 9250, Note_on_c, 9, 40, 0
12, 9480, Note_on_c, 9, 40, 111
12, 9490, Note_on_c, 9, 40, 0
12, 9720, Note_on_c, 9, 40, 108
12, 9730, Note_on_c, 9, 40, 0
12, 9960, Note_on_c, 9, 40, 110
12, 9970, Note_on_c, 9, 40, 0
12, 10200, Note_on_c, 9, 40, 110
12, 10210, Note_on_c, 9, 40, 0
12, 10440, Note_on_c, 9, 40, 109
12, 10450, Note_on_c, 9, 40, 0
12, 10680, Note_on_c, 9, 40, 110
12, 10690, Note_on_c, 9, 40, 0
12, 10920, Note_on_c, 9, 40, 108
12, 10930, Note_on_c, 9, 40, 0
12, 11160, Note_on_c, 9, 40, 109
12, 11170, Note_on_c, 9, 40, 0
12, 11400, Note_on_c, 9, 40, 108
12, 11410, Note_on_c, 9, 40, 0
12, 11640, Note_on_c, 9, 40, 109
12, 11650, Note_on_c, 9, 40, 0
12, 11790, Note_on_c, 9, 40, 69
12, 11800, Note_on_c, 9, 40, 0
12, 11880, Note_on_c, 9, 40, 109
12, 11890, Note_on_c, 9, 40, 0
12, 11890, Note_on_c, 9, 40, 91
12, 11900, Note_on_c, 9, 40, 0
12, 11940, Note_on_c, 9, 40, 88
12, 11950, Note_on_c, 9, 40, 0
12, 11970, Note_on_c, 9, 40, 90
12, 11980, Note_on_c, 9, 40, 0
12, 12120, Note_on_c, 9, 40, 109
12, 12130, Note_on_c, 9, 40, 0
12, 12360, Note_on_c, 9, 40, 109
12, 12370, Note_on_c, 9, 40, 0
12, 12600, Note_on_c, 9, 40, 109
12, 12610, Note_on_c, 9, 40, 0
12, 12840, Note_on_c, 9, 40, 109
12, 12850, Note_on_c, 9, 40, 0
12, 13080, Note_on_c, 9, 40, 110
12, 13090, Note_on_c, 9, 40, 0
12, 13320, Note_on_c, 9, 40, 108
12, 13330, Note_on_c, 9, 40, 0
12, 13560, Note_on_c, 9, 40, 111
12, 13570, Note_on_c, 9, 40, 0
12, 13800, Note_on_c, 9, 40, 109
12, 13810, Note_on_c, 9, 40, 0
12, 14040, Note_on_c, 9, 40, 111
12, 14050, Note_on_c, 9, 40, 0
12, 14180, Note_on_c, 9, 40, 46
12, 14190, Note_on_c, 9, 40, 0
12, 14200, Note_on_c, 9, 40, 43
12, 14210, Note_on_c, 9, 40, 0
12, 14220, Note_on_c, 9, 40, 108
12, 14230, Note_on_c, 9, 40, 0
12, 14520, Note_on_c, 9, 40, 111
12, 14530, Note_on_c, 9, 40, 0
12, 14760, Note_on_c, 9, 40, 111
12, 14770, Note_on_c, 9, 40, 0
12, 15000, Note_on_c, 9, 40, 111
12, 15010, Note_on_c, 9, 40, 0
12, 15240, Note_on_c, 9, 40, 109
12, 15250, Note_on_c, 9, 40, 0
12, 15480, Note_on_c, 9, 40, 109
12, 15490, Note_on_c, 9, 40, 0
12, 15720, Note_on_c, 9, 40, 108
12, 15730, Note_on_c, 9, 40, 0
12, 15960, Note_on_c, 9, 40, 109
12, 15970, Note_on_c, 9, 40, 0
12, 16200, Note_on_c, 9, 40, 111
12, 16210, Note_on_c, 9, 40, 0
12, 16440, Note_on_c, 9, 40, 109
12, 16450, Note_on_c, 9, 40, 0
12, 16680, Note_on_c, 9, 40, 111
12, 16690, Note_on_c, 9, 40, 0
12, 16920, Note_on_c, 9, 40, 108
12, 16930, Note_on_c, 9, 40, 0
12, 17160, Note_on_c, 9, 40, 108
12, 17170, Note_on_c, 9, 40, 0
12, 17400, Note_on_c, 9, 40, 110
12, 17410, Note_on_c, 9, 40, 0
12, 17640, Note_on_c, 9, 40, 108
12, 17650, Note_on_c, 9, 40, 0
12, 17880, Note_on_c, 9, 40, 109
12, 17890, Note_on_c, 9, 40, 0
12, 18030, Note_on_c, 9, 40, 71
12, 18040, Note_on_c, 9, 40, 0
12, 18360, Note_on_c, 9, 40, 109
12, 18370, Note_on_c, 9, 40, 0
12, 18600, Note_on_c, 9, 40, 110
12, 18610, Note_on_c, 9, 40, 0
12, 18840, Note_on_c, 9, 40, 110
12, 18850, Note_on_c, 9, 40, 0
12, 19080, Note_on_c, 9, 40, 111
12, 19090, Note_on_c, 9, 40, 0
12, 19320, Note_on_c, 9, 40, 108
12, 19330, Note_on_c, 9, 40, 0
12, 19560, Note_on_c, 9, 40, 109
12, 19570, Note_on_c, 9, 40, 0
12, 19800, Note_on_c, 9, 40, 111
12, 19810, Note_on_c, 9, 40, 0
12, 20040, Note_on_c, 9, 40, 108
12, 20050, Note_on_c, 9, 40, 0
12, 20160, Note_on_c, 9, 40, 109
12, 20170, Note_on_c, 9, 40, 0
12, 20250, Note_on_c, 9, 40, 68
12, 20260, Note_on_c, 9, 40, 0
12, 20340, Note_on_c, 9, 40, 110
12, 20350, Note_on_c, 9, 40, 0
12, 20370, Note_on_c, 9, 40, 89
12, 20380, Note_on_c, 9, 40, 0
12, 20520, Note_on_c, 9, 40, 110
12, 20530, Note_on_c, 9, 40, 0
12, 20550, Note_on_c, 9, 40, 91
12, 20560, Note_on_c, 9, 40, 0
12, 20760, Note_on_c, 9, 40, 110
12, 20770, Note_on_c, 9, 40, 0
12, 21000, Note_on_c, 9, 40, 108
12, 21010, Note_on_c, 9, 40, 0
12, 21240, Note_on_c, 9, 40, 110
12, 21250, Note_on_c, 9, 40, 0
12, 21480, Note_on_c, 9, 40, 109
12, 21490, Note_on_c, 9, 40, 0
12, 21720, Note_on_c, 9, 40, 110
12, 21730, Note_on_c, 9, 40, 0
12, 21960, Note_on_c, 9, 40, 109
12, 21970, Note_on_c, 9, 40, 0
12, 22200, Note_on_c, 9, 40, 109
12, 22210, Note_on_c, 9, 40, 0
12, 22440, Note_on_c, 9, 40, 108
12, 22450, Note_on_c, 9, 40, 0
12, 22680, Note_on_c, 9, 40, 111
12, 22690, Note_on_c, 9, 40, 0
12, 22920, Note_on_c, 9, 40, 110
12, 22930, Note_on_c, 9, 40, 0
12, 23160, Note_on_c, 9, 40, 108
12, 23170, Note_on_c, 9, 40, 0
12, 23400, Note_on_c, 9, 40, 109
12, 23410, Note_on_c, 9, 40, 0
12, 23640, Note_on_c, 9, 40, 109
12, 23650, Note_on_c, 9, 40, 0
12, 23880, Note_on_c, 9, 40, 111
12, 23890, Note_on_c, 9, 40, 0
12, 24120, Note_on_c, 9, 40, 108
12, 24130, Note_on_c, 9, 40, 0
12, 24360, Note_on_c, 9, 40, 111
12, 24370, Note_on_c, 9, 40, 0
12, 24600, Note_on_c, 9, 40, 110
12, 24610, Note_on_c, 9, 40, 0
12, 24840, Note_on_c, 9, 40, 109
12, 24850, Note_on_c, 9, 40, 0
12, 25080, Note_on_c, 9, 40, 110
12, 25090, Note_on_c, 9, 40, 0
12, 25320, Note_on_c, 9, 40, 111
12, 25330, Note_on_c, 9, 40, 0
12, 25560, Note_on_c, 9, 40, 110
12, 25570, Note_on_c, 9, 40, 0
12, 25800, Note_on_c, 9, 40, 110
12, 25810, Note_on_c, 9, 40, 0
12, 26040, Note_on_c, 9, 40, 109
12, 26050, Note_on_c, 9, 40, 0
12, 26280, Note_on_c, 9, 40, 109
12, 26290, Note_on_c, 9, 40, 0
12, 26520, Note_on_c, 9, 40, 110
12, 26530, Note_on_c, 9, 40, 0
12, 26760, Note_on_c, 9, 40, 109
12, 26770, Note_on_c, 9, 40, 0
12, 27000, Note_on_c, 9, 40, 109
12, 27010, Note_on_c, 9, 40, 0
12, 27240, Note_on_c, 9, 40, 109
12, 27250, Note_on_c, 9, 40, 0
12, 27480, Note_on_c, 9, 40, 111
12, 27490, Note_on_c, 9, 40, 0
12, 27720, Note_on_c, 9, 40, 108
12, 27730, Note_on_c, 9, 40, 0
12, 27960, Note_on_c, 9, 40, 108
12, 27970, Note_on_c, 9, 40, 0
12, 28200, Note_on_c, 9, 40, 110
12, 28210, Note_on_c, 9, 40, 0
12, 28440, Note_on_c, 9, 40, 108
12, 28450, Note_on_c, 9, 40, 0
12, 28560, Note_on_c, 9, 40, 43
12, 28570, Note_on_c, 9, 40, 0
12, 28590, Note_on_c, 9, 40, 68
12, 28600, Note_on_c, 9, 40, 0
12, 28680, Note_on_c, 9, 40, 111
12, 28690, Note_on_c, 9, 40, 0
12, 28690, Note_on_c, 9, 40, 88
12, 28700, Note_on_c, 9, 40, 0
12, 28920, Note_on_c, 9, 40, 108
12, 28930, Note_on_c, 9, 40, 0
12, 29160, Note_on_c, 9, 40, 110
12, 29170, Note_on_c, 9, 40, 0
12, 29400, Note_on_c, 9, 40, 109
12, 29410, Note_on_c, 9, 40, 0
12, 29640, Note_on_c, 9, 40, 111
12, 29650, Note_on_c, 9, 40, 0
12, 29880, Note_on_c, 9, 40, 109
12, 29890, Note_on_c, 9, 40, 0
12, 30000, Note_on_c, 9, 40, 42
12, 30010, Note_on_c, 9, 40, 0
12, 30030, Note_on_c, 9, 40, 70
12, 30040, Note_on_c, 9, 40, 0
12, 30360, Note_on_c, 9, 40, 110
12, 30370, Note_on_c, 9, 40, 0
12, 30600, Note_on_c, 9, 40, 110
12, 30610, Note_on_c, 9, 40, 0
12, 30840, Note_on_c, 9, 40, 111
12, 30850, Note_on_c, 9, 40, 0
12, 31080, Note_on_c, 9, 40, 110
12, 31090, Note_on_c, 9, 40, 0
12, 31320, Note_on_c, 9, 40, 108
12, 31330, Note_on_c, 9, 40, 0
12, 31560, Note_on_c, 9, 40, 110
12, 31570, Note_on_c, 9, 40, 0
12, 31800, Note_on_c, 9, 40, 110
12, 31810, Note_on_c, 9, 40, 0
12, 32040, Note_on_c, 9, 40, 109
12, 32050, Note_on_c, 9, 40, 0
12, 32280, Note_on_c, 9, 40, 110
12, 32290, Note_on_c, 9, 40, 0
12, 32520, Note_on_c, 9, 40, 109
12, 32530, Note_on_c, 9, 40, 0
12, 32760, Note_on_c, 9, 40, 111
12, 32770, Note_on_c, 9, 40, 0
12, 33000, Note_on_c, 9, 40, 109
12, 33010, Note_on_c, 9, 40, 0
12, 33240, Note_on_c, 9, 40, 111
12, 33250, Note_on_c, 9, 40, 0
12, 33480, Note_on_c, 9, 40, 109
12, 33490, Note_on_c, 9, 40, 0
12, 33720, Note_on_c, 9, 40, 110
12, 33730, Note_on_c, 9, 40, 0
12, 33960, Note_on_c, 9, 40, 109
12, 33970, Note_on_c, 9, 40, 0
12, 34200, Note_on_c, 9, 40, 110
12, 34210, Note_on_c, 9, 40, 0
12, 34440, Note_on_c, 9, 40, 110
12, 34450, Note_on_c, 9, 40, 0
12, 34680, Note_on_c, 9, 40, 111
12, 34690, Note_on_c, 9, 40, 0
12, 34920, Note_on_c, 9, 40, 108
12, 34930, Note_on_c, 9, 40, 0
12, 35160, Note_on_c, 9, 40, 110
12, 35170, Note_on_c, 9, 40, 0
12, 35400, Note_on_c, 9, 40, 108
12, 35410, Note_on_c, 9, 40, 0
12, 35640, Note_on_c, 9, 40, 110
12, 35650, Note_on_c, 9, 40, 0
12, 35880, Note_on_c, 9, 40, 109
12, 35890, Note_on_c, 9, 40, 0
12, 36120, Note_on_c, 9, 40, 111
12, 36130, Note_on_c, 9, 40, 0
12, 36360, Note_on_c, 9, 40, 109
12, 36370, Note_on_c, 9, 40, 0
12, 36600, Note_on_c, 9, 40, 111
12, 36610, Note_on_c, 9, 40, 0
12, 36840, Note_on_c, 9, 40, 108
12, 36850, Note_on_c, 9, 40, 0
12, 36850, Note_on_c, 9, 40, 88
12, 36860, Note_on_c, 9, 40, 0
12, 37080, Note_on_c, 9, 40, 109
12, 37090, Note_on_c, 9, 40, 0
12, 37320, Note_on_c, 9, 40, 110
12, 37330, Note_on_c, 9, 40, 0
12, 37560, Note_on_c, 9, 40, 109
12, 37570, Note_on_c, 9, 40, 0
12, 37800, Note_on_c, 9, 40, 110
12, 37810, Note_on_c, 9, 40, 0
12, 38040, Note_on_c, 9, 40, 109
12, 38050, Note_on_c, 9, 40, 0
12, 38280, Note_on_c, 9, 40, 111
12, 38290, Note_on_c, 9, 40, 0
12, 38520, Note_on_c, 9, 40, 109
12, 38530, Note_on_c, 9, 40, 0
12, 38760, Note_on_c, 9, 40, 110
12, 38770, Note_on_c, 9, 40, 0
12, 39000, Note_on_c, 9, 40, 109
12, 39010, Note_on_c, 9, 40, 0
12, 39240, Note_on_c, 9, 40, 108
12, 39250, Note_on_c, 9, 40, 0
12, 39480, Note_on_c, 9, 40, 110
12, 39490, Note_on_c, 9, 40, 0
12, 39720, Note_on_c, 9, 40, 110
12, 39730, Note_on_c, 9, 40, 0
12, 39960, Note_on_c, 9, 40, 111
12, 39970, Note_on_c, 9, 40, 0
12, 40200, Note_on_c, 9, 40, 109
12, 40210, Note_on_c, 9, 40, 0
12, 40440, Note_on_c, 9, 40, 111
12, 40450, Note_on_c, 9, 40, 0
12, 40680, Note_on_c, 9, 40, 108
12, 40690, Note_on_c, 9, 40, 0
12, 40920, Note_on_c, 9, 40, 108
12, 40930, Note_on_c, 9, 40, 0
12, 41100, Note_on_c, 9, 40, 108
12, 41110, Note_on_c, 9, 40, 0
12, 41160, Note_on_c, 9, 40, 48
12, 41170, Note_on_c, 9, 40, 0
12, 41400, Note_on_c, 9, 40, 108
12, 41410, Note_on_c, 9, 40, 0
12, 41640, Note_on_c, 9, 40, 109
12, 41650, Note_on_c, 9, 40, 0
12, 41880, Note_on_c, 9, 40, 109
12, 41890, Note_on_c, 9, 40, 0
12, 42120, Note_on_c, 9, 40, 111
12, 42130, Note_on_c, 9, 40, 0
12, 42360, Note_on_c, 9, 40, 109
12, 42370, Note_on_c, 9, 40, 0
12, 42600, Note_on_c, 9, 40, 111
12, 42610, Note_on_c, 9, 40, 0
12, 42840, Note_on_c, 9, 40, 111
12, 42850, Note_on_c, 9, 40, 0
12, 43080, Note_on_c, 9, 40, 110
12, 43090, Note_on_c, 9, 40, 0
12, 43320, Note_on_c, 9, 40, 111
12, 43330, Note_on_c, 9, 40, 0
12, 43500, Note_on_c, 9, 40, 42
12, 43510, Note_on_c, 9, 40, 0
12, 43530, Note_on_c, 9, 40, 45
12, 43540, Note_on_c, 9, 40, 0
12, 43560, Note_on_c, 9, 40, 108
12, 43570, Note_on_c, 9, 40, 0
12, 43590, Note_on_c, 9, 40, 48
12, 43600, Note_on_c, 9, 40, 0
12, 43620, Note_on_c, 9, 40, 88
12, 43630, Note_on_c, 9, 40, 0
12, 43650, Note_on_c, 9, 40, 45
12, 43660, Note_on_c, 9, 40, 0
12, 43800, Note_on_c, 9, 40, 108
12, 43810, Note_on_c, 9, 40, 0
12, 44040, Note_on_c, 9, 40, 109
12, 44050, Note_on_c, 9, 40, 0
12, 44280, Note_on_c, 9, 40, 109
12, 44290, Note_on_c, 9, 40, 0
12, 44520, Note_on_c, 9, 40, 111
12, 44530, Note_on_c, 9, 40, 0
12, 44760, Note_on_c, 9, 40, 110
12, 44770, Note_on_c, 9, 40, 0
12, 45000, Note_on_c, 9, 40, 109
12, 45010, Note_on_c, 9, 40, 0
12, 45240, Note_on_c, 9, 40, 110
12, 45250, Note_on_c, 9, 40, 0
12, 45480, Note_on_c, 9, 40, 110
12, 45490, Note_on_c, 9, 40, 0
12, 45720, Note_on_c, 9, 40, 111
12, 45730, Note_on_c, 9, 40, 0
12, 45960, Note_on_c, 9, 40, 110
12, 45970, Note_on_c, 9, 40, 0
12, 46200, Note_on_c, 9, 40, 108
12, 46210, Note_on_c, 9, 40, 0
12, 46440, Note_on_c, 9, 40, 111
12, 46450, Note_on_c, 9, 40, 0
12, 46680, Note_on_c, 9, 40, 108
12, 46690, Note_on_c, 9, 40, 0
12, 46920, Note_on_c, 9, 40, 108
12, 46930, Note_on_c, 9, 40, 0
12, 47160, Note_on_c, 9, 40, 109
12, 47170, Note_on_c, 9, 40, 0
12, 47400, Note_on_c, 9, 40, 110
12, 47410, Note_on_c, 9, 40, 0
12, 47550, Note_on_c, 9, 40, 46
12, 47560, Note_on_c, 9, 40, 0
12, 47610, Note_on_c, 9, 40, 69
12, 47620, Note_on_c, 9, 40, 0
12, 47670, Note_on_c, 9, 40, 47
12, 47680, Note_on_c, 9, 40, 0
12, 47790, Note_on_c, 9, 40, 43
12, 47800, Note_on_c, 9, 40, 0
12, 47910, Note_on_c, 9, 40, 43
12, 47920, Note_on_c, 9, 40, 0
12, 48120, Note_on_c, 9, 40, 108
12, 48130, Note_on_c, 9, 40, 0
12, 48360, Note_on_c, 9, 40, 109
12, 48370, Note_on_c, 9, 40, 0
12, 48600, Note_on_c, 9, 40, 110
12, 48610, Note_on_c, 9, 40, 0
12, 48840, Note_on_c, 9, 40, 110
12, 48850, Note_on_c, 9, 40, 0
12, 49080, Note_on_c, 9, 40, 111
12, 49090, Note_on_c, 9, 40, 0
12, 49320, Note_on_c, 9, 40, 111
12, 49330, Note_on_c, 9, 40, 0
12, 49560, Note_on_c, 9, 40, 108
12, 49570, Note_on_c, 9, 40, 0
12, 49800, Note_on_c, 9, 40, 108
12, 49810, Note_on_c, 9, 40, 0
12, 50040, Note_on_c, 9, 40, 110
12, 50050, Note_on_c, 9, 40, 0
12, 50280, Note_on_c, 9, 40, 111
12, 50290, Note_on_c, 9, 40, 0
12, 50400, Control_c, 9, 7, 90
12, 50436, Control_c, 9, 7, 89
12, 50473, Control_c, 9, 7, 88
12, 50510, Control_c, 9, 7, 87
12, 50520, Note_on_c, 9, 40, 111
12, 50530, Note_on_c, 9, 40, 0
12, 50546, Control_c, 9, 7, 86
12, 50583, Control_c, 9, 7, 85
12, 50620, Control_c, 9, 7, 84
12, 50656, Control_c, 9, 7, 83
12, 50693, Control_c, 9, 7, 82
12, 50730, Control_c, 9, 7, 81
12, 50760, Note_on_c, 9, 40, 110
12, 50766, Control_c, 9, 7, 80
12, 50770, Note_on_c, 9, 40, 0
12, 50803, Control_c, 9, 7, 79
12, 50840, Control_c, 9, 7, 78
12, 50876, Control_c, 9, 7, 77
12, 50913, Control_c, 9, 7, 76
12, 50950, Control_c, 9, 7, 75
12, 50986, Control_c, 9, 7, 74
12, 51000, Note_on_c, 9, 40, 111
12, 51010, Note_on_c, 9, 40, 0
12, 51023, Control_c, 9, 7, 73
12, 51060, Control_c, 9, 7, 72
12, 51096, Control_c, 9, 7, 71
12, 51133, Control_c, 9, 7, 70
12, 51170, Control_c, 9, 7, 69
12, 51206, Control_c, 9, 7, 68
12, 51240, Note_on_c, 9, 40, 111
12, 51243, Control_c, 9, 7, 67
12, 51250, Note_on_c, 9, 40, 0
12, 51280, Control_c, 9, 7, 66
12, 51316, Control_c, 9, 7, 65
12, 51353, Control_c, 9, 7, 64
12, 51390, Control_c, 9, 7, 63
12, 51426, Control_c, 9, 7, 62
12, 51463, Control_c, 9, 7, 61
12, 51480, Note_on_c, 9, 40, 111
12, 51490, Note_on_c, 9, 40, 0
12, 51500, Control_c, 9, 7, 60
12, 51536, Control_c, 9, 7, 59
12, 51573, Control_c, 9, 7, 58
12, 51610, Control_c, 9, 7, 57
12, 51646, Control_c, 9, 7, 56
12, 51683, Control_c, 9, 7, 55
12, 51720, Control_c, 9, 7, 54
12, 51720, Note_on_c, 9, 40, 109
12, 51730, Note_on_c, 9, 40, 0
12, 51756, Control_c, 9, 7, 53
12, 51793, Control_c, 9, 7, 52
12, 51830, Control_c, 9, 7, 51
12, 51866, Control_c, 9, 7, 50
12, 51903, Control_c, 9, 7, 49
12, 51940, Control_c, 9, 7, 48
12, 51960, Note_on_c, 9, 40, 108
12, 51970, Note_on_c, 9, 40, 0
12, 51976, Control_c, 9, 7, 47
12, 52013, Control_c, 9, 7, 46
12, 52050, Control_c, 9, 7, 45
12, 52086, Control_c, 9, 7, 44
12, 52123, Control_c, 9, 7, 43
12, 52160, Control_c, 9, 7, 42
12, 52196, Control_c, 9, 7, 41
12, 52200, Note_on_c, 9, 40, 109
12, 52210, Note_on_c, 9, 40, 0
12, 52233, Control_c, 9, 7, 40
12, 52270, Control_c, 9, 7, 39
12, 52306, Control_c, 9, 7, 38
12, 52343, Control_c, 9, 7, 37
12, 52380, Control_c, 9, 7, 36
12, 52416, Control_c, 9, 7, 35
12, 52440, Note_on_c, 9, 40, 111
12, 52450, Note_on_c, 9, 40, 0
12, 52453, Control_c, 9, 7, 34
12, 52490, Control_c, 9, 7, 33
12, 52526, Control_c, 9, 7, 32
12, 52563, Control_c, 9, 7, 31
12, 52600, Control_c, 9, 7, 30
12, 52636, Control_c, 9, 7, 29
12, 52673, Control_c, 9, 7, 28
12, 52680, Note_on_c, 9, 40, 109
12, 52690, Note_on_c, 9, 40, 0
12, 52710, Control_c, 9, 7, 27
12, 52746, Control_c, 9, 7, 26
12, 52783, Control_c, 9, 7, 25
12, 52820, Control_c, 9, 7, 24
12, 52856, Control_c, 9, 7, 23
12, 52893, Control_c, 9, 7, 22
12, 52920, Note_on_c, 9, 40, 108
12, 52930, Note_on_c, 9, 40, 0
12, 52930, Control_c, 9, 7, 21
12, 52966, Control_c, 9, 7, 20
12, 53003, Control_c, 9, 7, 19
12, 53040, Control_c, 9, 7, 18
12, 53076, Control_c, 9, 7, 17
12, 53113, Control_c, 9, 7, 16
12, 53150, Control_c, 9, 7, 15
12, 53160, Note_on_c, 9, 40, 108
12, 53170, Note_on_c, 9, 40, 0
12, 53186, Control_c, 9, 7, 14
12, 53223, Control_c, 9, 7, 13
12, 53260, Control_c, 9, 7, 12
12, 53296, Control_c, 9, 7, 11
12, 53333, Control_c, 9, 7, 10
12, 53370, Control_c, 9, 7, 9
12, 53400, Note_on_c, 9, 40, 109
12, 53406, Control_c, 9, 7, 8
12, 53410, Note_on_c, 9, 40, 0
12, 53443, Control_c, 9, 7, 7
12, 53480, Control_c, 9, 7, 6
12, 53516, Control_c, 9, 7, 5
12, 53553, Control_c, 9, 7, 4
12, 53590, Control_c, 9, 7, 3
12, 53626, Control_c, 9, 7, 2
12, 53640, Note_on_c, 9, 40, 111
12, 53650, Note_on_c, 9, 40, 0
12, 53663, Control_c, 9, 7, 1
12, 53700, Control_c, 9, 7, 0
12, 53700, End_track
13, 0, Start_track
13, 0, MIDI_port, 0
13, 0, Note_on_c, 9, 42, 88
13, 10, Note_on_c, 9, 42, 0
13, 120, Note_on_c, 9, 42, 81
13, 130, Note_on_c, 9, 42, 0
13, 240, Note_on_c, 9, 42, 81
13, 250, Note_on_c, 9, 42, 0
13, 360, Note_on_c, 9, 42, 80
13, 370, Note_on_c, 9, 42, 0
13, 480, Note_on_c, 9, 42, 111
13, 490, Note_on_c, 9, 42, 0
13, 540, Note_on_c, 9, 42, 88
13, 550, Note_on_c, 9, 42, 0
13, 600, Note_on_c, 9, 42, 90
13, 610, Note_on_c, 9, 42, 0
13, 660, Note_on_c, 9, 42, 73
13, 670, Note_on_c, 9, 42, 0
13, 720, Note_on_c, 9, 42, 110
13, 730, Note_on_c, 9, 42, 0
13, 840, Note_on_c, 9, 42, 91
13, 850, Note_on_c, 9, 42, 0
13, 900, Note_on_c, 9, 42, 73
13, 910, Note_on_c, 9, 42, 0
13, 960, Note_on_c, 9, 42, 109
13, 970, Note_on_c, 9, 42, 0
13, 1020, Note_on_c, 9, 42, 88
13, 1030, Note_on_c, 9, 42, 0
13, 1080, Note_on_c, 9, 42, 91
13, 1090, Note_on_c, 9, 42, 0
13, 1140, Note_on_c, 9, 42, 69
13, 1150, Note_on_c, 9, 42, 0
13, 1200, Note_on_c, 9, 42, 109
13, 1210, Note_on_c, 9, 42, 0
13, 1260, Note_on_c, 9, 42, 90
13, 1270, Note_on_c, 9, 42, 0
13, 1320, Note_on_c, 9, 42, 90
13, 1330, Note_on_c, 9, 42, 0
13, 1440, Note_on_c, 9, 42, 111
13, 1450, Note_on_c, 9, 42, 0
13, 1500, Note_on_c, 9, 42, 88
13, 1510, Note_on_c, 9, 42, 0
13, 1560, Note_on_c, 9, 42, 90
13, 1570, Note_on_c, 9, 42, 0
13, 1620, Note_on_c, 9, 42, 73
13, 1630, Note_on_c, 9, 42, 0
13, 1680, Note_on_c, 9, 42, 110
13, 1690, Note_on_c, 9, 42, 0
13, 1800, Note_on_c, 9, 42, 91
13, 1810, Note_on_c, 9, 42, 0
13, 1860, Note_on_c, 9, 42, 73
13, 1870, Note_on_c, 9, 42, 0
13, 1920, Note_on_c, 9, 42, 109
13, 1930, Note_on_c, 9, 42, 0
13, 1980, Note_on_c, 9, 42, 88
13, 1990, Note_on_c, 9, 42, 0
13, 2040, Note_on_c, 9, 42, 91
13, 2050, Note_on_c, 9, 42, 0
13, 2100, Note_on_c, 9, 42, 69
13, 2110, Note_on_c, 9, 42, 0
13, 2160, Note_on_c, 9, 42, 109
13, 2170, Note_on_c, 9, 42, 0
13, 2220, Note_on_c, 9, 42, 90
13, 2230, Note_on_c, 9, 42, 0
13, 2280, Note_on_c, 9, 42, 90
13, 2290, Note_on_c, 9, 42, 0
13, 2340, Note_on_c, 9, 42, 70
13, 2350, Note_on_c, 9, 42, 0
13, 2400, Note_on_c, 9, 42, 109
13, 2410, Note_on_c, 9, 42, 0
13, 2460, Note_on_c, 9, 42, 91
13, 2470, Note_on_c, 9, 42, 0
13, 2520, Note_on_c, 9, 42, 91
13, 2530, Note_on_c, 9, 42, 0
13, 2580, Note_on_c, 9, 42, 73
13, 2590, Note_on_c, 9, 42, 0
13, 2640, Note_on_c, 9, 42, 108
13, 2650, Note_on_c, 9, 42, 0
13, 2700, Note_on_c, 9, 42, 89
13, 2710, Note_on_c, 9, 42, 0
13, 2760, Note_on_c, 9, 42, 90
13, 2770, Note_on_c, 9, 42, 0
13, 2820, Note_on_c, 9, 42, 72
13, 2830, Note_on_c, 9, 42, 0
13, 2880, Note_on_c, 9, 42, 109
13, 2890, Note_on_c, 9, 42, 0
13, 2940, Note_on_c, 9, 42, 88
13, 2950, Note_on_c, 9, 42, 0
13, 3000, Note_on_c, 9, 42, 88
13, 3010, Note_on_c, 9, 42, 0
13, 3060, Note_on_c, 9, 42, 91
13, 3070, Note_on_c, 9, 42, 0
13, 3120, Note_on_c, 9, 42, 89
13, 3130, Note_on_c, 9, 42, 0
13, 3180, Note_on_c, 9, 42, 91
13, 3190, Note_on_c, 9, 42, 0
13, 3240, Note_on_c, 9, 42, 89
13, 3250, Note_on_c, 9, 42, 0
13, 3360, Note_on_c, 9, 42, 109
13, 3370, Note_on_c, 9, 42, 0
13, 3420, Note_on_c, 9, 42, 88
13, 3430, Note_on_c, 9, 42, 0
13, 3540, Note_on_c, 9, 42, 67
13, 3550, Note_on_c, 9, 42, 0
13, 3600, Note_on_c, 9, 42, 109
13, 3610, Note_on_c, 9, 42, 0
13, 3660, Note_on_c, 9, 42, 90
13, 3670, Note_on_c, 9, 42, 0
13, 3720, Note_on_c, 9, 42, 88
13, 3730, Note_on_c, 9, 42, 0
13, 3780, Note_on_c, 9, 42, 68
13, 3790, Note_on_c, 9, 42, 0
13, 4320, Note_on_c, 9, 42, 109
13, 4330, Note_on_c, 9, 42, 0
13, 4380, Note_on_c, 9, 42, 88
13, 4390, Note_on_c, 9, 42, 0
13, 4500, Note_on_c, 9, 42, 67
13, 4510, Note_on_c, 9, 42, 0
13, 4560, Note_on_c, 9, 42, 109
13, 4570, Note_on_c, 9, 42, 0
13, 4620, Note_on_c, 9, 42, 90
13, 4630, Note_on_c, 9, 42, 0
13, 4680, Note_on_c, 9, 42, 88
13, 4690, Note_on_c, 9, 42, 0
13, 4740, Note_on_c, 9, 42, 68
13, 4750, Note_on_c, 9, 42, 0
13, 4800, Note_on_c, 9, 42, 110
13, 4810, Note_on_c, 9, 42, 0
13, 4860, Note_on_c, 9, 42, 90
13, 4870, Note_on_c, 9, 42, 0
13, 4920, Note_on_c, 9, 42, 88
13, 4930, Note_on_c, 9, 42, 0
13, 4980, Note_on_c, 9, 42, 89
13, 4990, Note_on_c, 9, 42, 0
13, 5040, Note_on_c, 9, 42, 90
13, 5050, Note_on_c, 9, 42, 0
13, 5100, Note_on_c, 9, 42, 90
13, 5110, Note_on_c, 9, 42, 0
13, 5160, Note_on_c, 9, 42, 88
13, 5170, Note_on_c, 9, 42, 0
13, 5220, Note_on_c, 9, 42, 69
13, 5230, Note_on_c, 9, 42, 0
13, 5280, Note_on_c, 9, 42, 108
13, 5290, Note_on_c, 9, 42, 0
13, 5340, Note_on_c, 9, 42, 89
13, 5350, Note_on_c, 9, 42, 0
13, 5400, Note_on_c, 9, 42, 90
13, 5410, Note_on_c, 9, 42, 0
13, 5460, Note_on_c, 9, 42, 88
13, 5470, Note_on_c, 9, 42, 0
13, 5520, Note_on_c, 9, 42, 88
13, 5530, Note_on_c, 9, 42, 0
13, 5580, Note_on_c, 9, 42, 91
13, 5590, Note_on_c, 9, 42, 0
13, 5640, Note_on_c, 9, 42, 91
13, 5650, Note_on_c, 9, 42, 0
13, 5700, Note_on_c, 9, 42, 71
13, 5710, Note_on_c, 9, 42, 0
13, 5760, Note_on_c, 9, 42, 110
13, 5770, Note_on_c, 9, 42, 0
13, 5820, Note_on_c, 9, 42, 91
13, 5830, Note_on_c, 9, 42, 0
13, 5880, Note_on_c, 9, 42, 72
13, 5890, Note_on_c, 9, 42, 0
13, 5940, Note_on_c, 9, 42, 108
13, 5950, Note_on_c, 9, 42, 0
13, 6000, Note_on_c, 9, 42, 88
13, 6010, Note_on_c, 9, 42, 0
13, 6060, Note_on_c, 9, 42, 88
13, 6070, Note_on_c, 9, 42, 0
13, 6120, Note_on_c, 9, 42, 89
13, 6130, Note_on_c, 9, 42, 0
13, 6180, Note_on_c, 9, 42, 72
13, 6190, Note_on_c, 9, 42, 0
13, 6240, Note_on_c, 9, 42, 111
13, 6250, Note_on_c, 9, 42, 0
13, 6300, Note_on_c, 9, 42, 90
13, 6310, Note_on_c, 9, 42, 0
13, 6360, Note_on_c, 9, 42, 90
13, 6370, Note_on_c, 9, 42, 0
13, 6420, Note_on_c, 9, 42, 67
13, 6430, Note_on_c, 9, 42, 0
13, 6480, Note_on_c, 9, 42, 110
13, 6490, Note_on_c, 9, 42, 0
13, 6540, Note_on_c, 9, 42, 91
13, 6550, Note_on_c, 9, 42, 0
13, 6600, Note_on_c, 9, 42, 89
13, 6610, Note_on_c, 9, 42, 0
13, 6660, Note_on_c, 9, 42, 73
13, 6670, Note_on_c, 9, 42, 0
13, 6720, Note_on_c, 9, 42, 111
13, 6730, Note_on_c, 9, 42, 0
13, 6780, Note_on_c, 9, 42, 90
13, 6790, Note_on_c, 9, 42, 0
13, 6840, Note_on_c, 9, 42, 70
13, 6850, Note_on_c, 9, 42, 0
13, 6900, Note_on_c, 9, 42, 109
13, 6910, Note_on_c, 9, 42, 0
13, 6960, Note_on_c, 9, 42, 91
13, 6970, Note_on_c, 9, 42, 0
13, 7020, Note_on_c, 9, 42, 90
13, 7030, Note_on_c, 9, 42, 0
13, 7080, Note_on_c, 9, 42, 89
13, 7090, Note_on_c, 9, 42, 0
13, 7140, Note_on_c, 9, 42, 69
13, 7150, Note_on_c, 9, 42, 0
13, 7200, Note_on_c, 9, 42, 111
13, 7210, Note_on_c, 9, 42, 0
13, 7260, Note_on_c, 9, 42, 90
13, 7270, Note_on_c, 9, 42, 0
13, 7320, Note_on_c, 9, 42, 90
13, 7330, Note_on_c, 9, 42, 0
13, 7380, Note_on_c, 9, 42, 67
13, 7390, Note_on_c, 9, 42, 0
13, 7440, Note_on_c, 9, 42, 110
13, 7450, Note_on_c, 9, 42, 0
13, 7500, Note_on_c, 9, 42, 91
13, 7510, Note_on_c, 9, 42, 0
13, 7560, Note_on_c, 9, 42, 89
13, 7570, Note_on_c, 9, 42, 0
13, 7620, Note_on_c, 9, 42, 73
13, 7630, Note_on_c, 9, 42, 0
13, 7680, Note_on_c, 9, 42, 111
13, 7690, Note_on_c, 9, 42, 0
13, 7740, Note_on_c, 9, 42, 90
13, 7750, Note_on_c, 9, 42, 0
13, 7800, Note_on_c, 9, 42, 70
13, 7810, Note_on_c, 9, 42, 0
13, 7860, Note_on_c, 9, 42, 109
13, 7870, Note_on_c, 9, 42, 0
13, 8160, Note_on_c, 9, 42, 108
13, 8170, Note_on_c, 9, 42, 0
13, 8220, Note_on_c, 9, 42, 91
13, 8230, Note_on_c, 9, 42, 0
13, 8280, Note_on_c, 9, 42, 73
13, 8290, Note_on_c, 9, 42, 0
13, 8340, Note_on_c, 9, 42, 108
13, 8350, Note_on_c, 9, 42, 0
13, 8400, Note_on_c, 9, 42, 91
13, 8410, Note_on_c, 9, 42, 0
13, 8460, Note_on_c, 9, 42, 91
13, 8470, Note_on_c, 9, 42, 0
13, 8520, Note_on_c, 9, 42, 91
13, 8530, Note_on_c, 9, 42, 0
13, 8580, Note_on_c, 9, 42, 70
13, 8590, Note_on_c, 9, 42, 0
13, 8640, Note_on_c, 9, 42, 110
13, 8650, Note_on_c, 9, 42, 0
13, 8700, Note_on_c, 9, 42, 89
13, 8710, Note_on_c, 9, 42, 0
13, 8760, Note_on_c, 9, 42, 67
13, 8770, Note_on_c, 9, 42, 0
13, 8820, Note_on_c, 9, 42, 111
13, 8830, Note_on_c, 9, 42, 0
13, 8880, Note_on_c, 9, 42, 91
13, 8890, Note_on_c, 9, 42, 0
13, 8940, Note_on_c, 9, 42, 89
13, 8950, Note_on_c, 9, 42, 0
13, 9000, Note_on_c, 9, 42, 91
13, 9010, Note_on_c, 9, 42, 0
13, 9060, Note_on_c, 9, 42, 71
13, 9070, Note_on_c, 9, 42, 0
13, 9120, Note_on_c, 9, 42, 108
13, 9130, Note_on_c, 9, 42, 0
13, 9180, Note_on_c, 9, 42, 91
13, 9190, Note_on_c, 9, 42, 0
13, 9240, Note_on_c, 9, 42, 88
13, 9250, Note_on_c, 9, 42, 0
13, 9300, Note_on_c, 9, 42, 90
13, 9310, Note_on_c, 9, 42, 0
13, 9360, Note_on_c, 9, 42, 89
13, 9370, Note_on_c, 9, 42, 0
13, 9420, Note_on_c, 9, 42, 91
13, 9430, Note_on_c, 9, 42, 0
13, 9480, Note_on_c, 9, 42, 88
13, 9490, Note_on_c, 9, 42, 0
13, 9540, Note_on_c, 9, 42, 68
13, 9550, Note_on_c, 9, 42, 0
13, 9600, Note_on_c, 9, 42, 108
13, 9610, Note_on_c, 9, 42, 0
13, 9660, Note_on_c, 9, 42, 88
13, 9670, Note_on_c, 9, 42, 0
13, 9720, Note_on_c, 9, 42, 90
13, 9730, Note_on_c, 9, 42, 0
13, 9780, Note_on_c, 9, 42, 73
13, 9790, Note_on_c, 9, 42, 0
13, 9840, Note_on_c, 9, 42, 108
13, 9850, Note_on_c, 9, 42, 0
13, 9960, Note_on_c, 9, 42, 89
13, 9970, Note_on_c, 9, 42, 0
13, 10020, Note_on_c, 9, 42, 69
13, 10030, Note_on_c, 9, 42, 0
13, 10080, Note_on_c, 9, 42, 109
13, 10090, Note_on_c, 9, 42, 0
13, 10140, Note_on_c, 9, 42, 89
13, 10150, Note_on_c, 9, 42, 0
13, 10200, Note_on_c, 9, 42, 71
13, 10210, Note_on_c, 9, 42, 0
13, 10260, Note_on_c, 9, 42, 111
13, 10270, Note_on_c, 9, 42, 0
13, 10320, Note_on_c, 9, 42, 90
13, 10330, Note_on_c, 9, 42, 0
13, 10380, Note_on_c, 9, 42, 90
13, 10390, Note_on_c, 9, 42, 0
13, 10440, Note_on_c, 9, 42, 90
13, 10450, Note_on_c, 9, 42, 0
13, 10500, Note_on_c, 9, 42, 73
13, 10510, Note_on_c, 9, 42, 0
13, 10560, Note_on_c, 9, 42, 110
13, 10570, Note_on_c, 9, 42, 0
13, 10620, Note_on_c, 9, 42, 90
13, 10630, Note_on_c, 9, 42, 0
13, 10680, Note_on_c, 9, 42, 91
13, 10690, Note_on_c, 9, 42, 0
13, 10740, Note_on_c, 9, 42, 90
13, 10750, Note_on_c, 9, 42, 0
13, 10800, Note_on_c, 9, 42, 88
13, 10810, Note_on_c, 9, 42, 0
13, 10860, Note_on_c, 9, 42, 91
13, 10870, Note_on_c, 9, 42, 0
13, 10920, Note_on_c, 9, 42, 88
13, 10930, Note_on_c, 9, 42, 0
13, 11040, Note_on_c, 9, 42, 111
13, 11050, Note_on_c, 9, 42, 0
13, 11100, Note_on_c, 9, 42, 88
13, 11110, Note_on_c, 9, 42, 0
13, 11160, Note_on_c, 9, 42, 91
13, 11170, Note_on_c, 9, 42, 0
13, 11220, Note_on_c, 9, 42, 88
13, 11230, Note_on_c, 9, 42, 0
13, 11280, Note_on_c, 9, 42, 91
13, 11290, Note_on_c, 9, 42, 0
13, 11340, Note_on_c, 9, 42, 91
13, 11350, Note_on_c, 9, 42, 0
13, 11400, Note_on_c, 9, 42, 88
13, 11410, Note_on_c, 9, 42, 0
13, 11460, Note_on_c, 9, 42, 70
13, 11470, Note_on_c, 9, 42, 0
13, 11520, Note_on_c, 9, 42, 110
13, 11530, Note_on_c, 9, 42, 0
13, 11640, Note_on_c, 9, 42, 88
13, 11650, Note_on_c, 9, 42, 0
13, 11700, Note_on_c, 9, 42, 67
13, 11710, Note_on_c, 9, 42, 0
13, 12000, Note_on_c, 9, 42, 111
13, 12010, Note_on_c, 9, 42, 0
13, 12060, Note_on_c, 9, 42, 88
13, 12070, Note_on_c, 9, 42, 0
13, 12120, Note_on_c, 9, 42, 91
13, 12130, Note_on_c, 9, 42, 0
13, 12180, Note_on_c, 9, 42, 88
13, 12190, Note_on_c, 9, 42, 0
13, 12240, Note_on_c, 9, 42, 91
13, 12250, Note_on_c, 9, 42, 0
13, 12300, Note_on_c, 9, 42, 91
13, 12310, Note_on_c, 9, 42, 0
13, 12360, Note_on_c, 9, 42, 88
13, 12370, Note_on_c, 9, 42, 0
13, 12420, Note_on_c, 9, 42, 70
13, 12430, Note_on_c, 9, 42, 0
13, 12480, Note_on_c, 9, 42, 110
13, 12490, Note_on_c, 9, 42, 0
13, 12600, Note_on_c, 9, 42, 88
13, 12610, Note_on_c, 9, 42, 0
13, 12660, Note_on_c, 9, 42, 67
13, 12670, Note_on_c, 9, 42, 0
13, 12720, Note_on_c, 9, 42, 110
13, 12730, Note_on_c, 9, 42, 0
13, 12780, Note_on_c, 9, 42, 88
13, 12790, Note_on_c, 9, 42, 0
13, 12840, Note_on_c, 9, 42, 89
13, 12850, Note_on_c, 9, 42, 0
13, 12900, Note_on_c, 9, 42, 72
13, 12910, Note_on_c, 9, 42, 0
13, 12960, Note_on_c, 9, 42, 111
13, 12970, Note_on_c, 9, 42, 0
13, 13020, Note_on_c, 9, 42, 88
13, 13030, Note_on_c, 9, 42, 0
13, 13080, Note_on_c, 9, 42, 91
13, 13090, Note_on_c, 9, 42, 0
13, 13140, Note_on_c, 9, 42, 88
13, 13150, Note_on_c, 9, 42, 0
13, 13200, Note_on_c, 9, 42, 91
13, 13210, Note_on_c, 9, 42, 0
13, 13260, Note_on_c, 9, 42, 91
13, 13270, Note_on_c, 9, 42, 0
13, 13320, Note_on_c, 9, 42, 88
13, 13330, Note_on_c, 9, 42, 0
13, 13380, Note_on_c, 9, 42, 70
13, 13390, Note_on_c, 9, 42, 0
13, 13440, Note_on_c, 9, 42, 110
13, 13450, Note_on_c, 9, 42, 0
13, 13560, Note_on_c, 9, 42, 88
13, 13570, Note_on_c, 9, 42, 0
13, 13620, Note_on_c, 9, 42, 67
13, 13630, Note_on_c, 9, 42, 0
13, 13680, Note_on_c, 9, 42, 110
13, 13690, Note_on_c, 9, 42, 0
13, 13740, Note_on_c, 9, 42, 88
13, 13750, Note_on_c, 9, 42, 0
13, 13800, Note_on_c, 9, 42, 89
13, 13810, Note_on_c, 9, 42, 0
13, 13860, Note_on_c, 9, 42, 72
13, 13870, Note_on_c, 9, 42, 0
13, 13920, Note_on_c, 9, 42, 111
13, 13930, Note_on_c, 9, 42, 0
13, 13980, Note_on_c, 9, 42, 88
13, 13990, Note_on_c, 9, 42, 0
13, 14040, Note_on_c, 9, 42, 91
13, 14050, Note_on_c, 9, 42, 0
13, 14100, Note_on_c, 9, 42, 88
13, 14110, Note_on_c, 9, 42, 0
13, 14400, Note_on_c, 9, 42, 110
13, 14410, Note_on_c, 9, 42, 0
13, 14520, Note_on_c, 9, 42, 88
13, 14530, Note_on_c, 9, 42, 0
13, 14580, Note_on_c, 9, 42, 67
13, 14590, Note_on_c, 9, 42, 0
13, 14640, Note_on_c, 9, 42, 110
13, 14650, Note_on_c, 9, 42, 0
13, 14700, Note_on_c, 9, 42, 88
13, 14710, Note_on_c, 9, 42, 0
13, 14760, Note_on_c, 9, 42, 89
13, 14770, Note_on_c, 9, 42, 0
13, 14820, Note_on_c, 9, 42, 72
13, 14830, Note_on_c, 9, 42, 0
13, 14880, Note_on_c, 9, 42, 111
13, 14890, Note_on_c, 9, 42, 0
13, 14940, Note_on_c, 9, 42, 88
13, 14950, Note_on_c, 9, 42, 0
13, 15000, Note_on_c, 9, 42, 91
13, 15010, Note_on_c, 9, 42, 0
13, 15060, Note_on_c, 9, 42, 88
13, 15070, Note_on_c, 9, 42, 0
13, 15120, Note_on_c, 9, 42, 91
13, 15130, Note_on_c, 9, 42, 0
13, 15180, Note_on_c, 9, 42, 91
13, 15190, Note_on_c, 9, 42, 0
13, 15240, Note_on_c, 9, 42, 88
13, 15250, Note_on_c, 9, 42, 0
13, 15300, Note_on_c, 9, 42, 70
13, 15310, Note_on_c, 9, 42, 0
13, 15360, Note_on_c, 9, 42, 110
13, 15370, Note_on_c, 9, 42, 0
13, 15480, Note_on_c, 9, 42, 88
13, 15490, Note_on_c, 9, 42, 0
13, 15540, Note_on_c, 9, 42, 67
13, 15550, Note_on_c, 9, 42, 0
13, 15600, Note_on_c, 9, 42, 110
13, 15610, Note_on_c, 9, 42, 0
13, 15660, Note_on_c, 9, 42, 88
13, 15670, Note_on_c, 9, 42, 0
13, 15720, Note_on_c, 9, 42, 89
13, 15730, Note_on_c, 9, 42, 0
13, 15780, Note_on_c, 9, 42, 72
13, 15790, Note_on_c, 9, 42, 0
13, 15840, Note_on_c, 9, 42, 111
13, 15850, Note_on_c, 9, 42, 0
13, 15900, Note_on_c, 9, 42, 88
13, 15910, Note_on_c, 9, 42, 0
13, 15960, Note_on_c, 9, 42, 91
13, 15970, Note_on_c, 9, 42, 0
13, 16020, Note_on_c, 9, 42, 88
13, 16030, Note_on_c, 9, 42, 0
13, 16080, Note_on_c, 9, 42, 91
13, 16090, Note_on_c, 9, 42, 0
13, 16140, Note_on_c, 9, 42, 91
13, 16150, Note_on_c, 9, 42, 0
13, 16200, Note_on_c, 9, 42, 88
13, 16210, Note_on_c, 9, 42, 0
13, 16260, Note_on_c, 9, 42, 70
13, 16270, Note_on_c, 9, 42, 0
13, 16320, Note_on_c, 9, 42, 110
13, 16330, Note_on_c, 9, 42, 0
13, 16440, Note_on_c, 9, 42, 88
13, 16450, Note_on_c, 9, 42, 0
13, 16500, Note_on_c, 9, 42, 67
13, 16510, Note_on_c, 9, 42, 0
13, 16560, Note_on_c, 9, 42, 110
13, 16570, Note_on_c, 9, 42, 0
13, 16620, Note_on_c, 9, 42, 88
13, 16630, Note_on_c, 9, 42, 0
13, 16680, Note_on_c, 9, 42, 89
13, 16690, Note_on_c, 9, 42, 0
13, 16740, Note_on_c, 9, 42, 72
13, 16750, Note_on_c, 9, 42, 0
13, 16800, Note_on_c, 9, 42, 110
13, 16810, Note_on_c, 9, 42, 0
13, 16860, Note_on_c, 9, 42, 91
13, 16870, Note_on_c, 9, 42, 0
13, 16920, Note_on_c, 9, 42, 72
13, 16930, Note_on_c, 9, 42, 0
13, 16980, Note_on_c, 9, 42, 110
13, 16990, Note_on_c, 9, 42, 0
13, 17040, Note_on_c, 9, 42, 90
13, 17050, Note_on_c, 9, 42, 0
13, 17100, Note_on_c, 9, 42, 88
13, 17110, Note_on_c, 9, 42, 0
13, 17160, Note_on_c, 9, 42, 88
13, 17170, Note_on_c, 9, 42, 0
13, 17220, Note_on_c, 9, 42, 67
13, 17230, Note_on_c, 9, 42, 0
13, 17280, Note_on_c, 9, 42, 108
13, 17290, Note_on_c, 9, 42, 0
13, 17340, Note_on_c, 9, 42, 91
13, 17350, Note_on_c, 9, 42, 0
13, 17400, Note_on_c, 9, 42, 89
13, 17410, Note_on_c, 9, 42, 0
13, 17460, Note_on_c, 9, 42, 90
13, 17470, Note_on_c, 9, 42, 0
13, 17520, Note_on_c, 9, 42, 91
13, 17530, Note_on_c, 9, 42, 0
13, 17580, Note_on_c, 9, 42, 88
13, 17590, Note_on_c, 9, 42, 0
13, 17640, Note_on_c, 9, 42, 89
13, 17650, Note_on_c, 9, 42, 0
13, 17700, Note_on_c, 9, 42, 67
13, 17710, Note_on_c, 9, 42, 0
13, 17760, Note_on_c, 9, 42, 109
13, 17770, Note_on_c, 9, 42, 0
13, 17820, Note_on_c, 9, 42, 89
13, 17830, Note_on_c, 9, 42, 0
13, 17940, Note_on_c, 9, 42, 90
13, 17950, Note_on_c, 9, 42, 0
13, 18000, Note_on_c, 9, 42, 88
13, 18010, Note_on_c, 9, 42, 0
13, 18240, Note_on_c, 9, 42, 109
13, 18250, Note_on_c, 9, 42, 0
13, 18300, Note_on_c, 9, 42, 90
13, 18310, Note_on_c, 9, 42, 0
13, 18360, Note_on_c, 9, 42, 91
13, 18370, Note_on_c, 9, 42, 0
13, 18420, Note_on_c, 9, 42, 90
13, 18430, Note_on_c, 9, 42, 0
13, 18480, Note_on_c, 9, 42, 90
13, 18490, Note_on_c, 9, 42, 0
13, 18540, Note_on_c, 9, 42, 88
13, 18550, Note_on_c, 9, 42, 0
13, 18600, Note_on_c, 9, 42, 88
13, 18610, Note_on_c, 9, 42, 0
13, 18660, Note_on_c, 9, 42, 70
13, 18670, Note_on_c, 9, 42, 0
13, 18720, Note_on_c, 9, 42, 110
13, 18730, Note_on_c, 9, 42, 0
13, 18780, Note_on_c, 9, 42, 88
13, 18790, Note_on_c, 9, 42, 0
13, 18840, Note_on_c, 9, 42, 90
13, 18850, Note_on_c, 9, 42, 0
13, 18900, Note_on_c, 9, 42, 71
13, 18910, Note_on_c, 9, 42, 0
13, 18960, Note_on_c, 9, 42, 110
13, 18970, Note_on_c, 9, 42, 0
13, 19020, Note_on_c, 9, 42, 91
13, 19030, Note_on_c, 9, 42, 0
13, 19080, Note_on_c, 9, 42, 88
13, 19090, Note_on_c, 9, 42, 0
13, 19140, Note_on_c, 9, 42, 72
13, 19150, Note_on_c, 9, 42, 0
13, 19200, Note_on_c, 9, 42, 108
13, 19210, Note_on_c, 9, 42, 0
13, 19260, Note_on_c, 9, 42, 91
13, 19270, Note_on_c, 9, 42, 0
13, 19320, Note_on_c, 9, 42, 90
13, 19330, Note_on_c, 9, 42, 0
13, 19380, Note_on_c, 9, 42, 90
13, 19390, Note_on_c, 9, 42, 0
13, 19440, Note_on_c, 9, 42, 88
13, 19450, Note_on_c, 9, 42, 0
13, 19500, Note_on_c, 9, 42, 89
13, 19510, Note_on_c, 9, 42, 0
13, 19560, Note_on_c, 9, 42, 91
13, 19570, Note_on_c, 9, 42, 0
13, 19620, Note_on_c, 9, 42, 70
13, 19630, Note_on_c, 9, 42, 0
13, 19680, Note_on_c, 9, 42, 110
13, 19690, Note_on_c, 9, 42, 0
13, 19740, Note_on_c, 9, 42, 90
13, 19750, Note_on_c, 9, 42, 0
13, 19800, Note_on_c, 9, 42, 89
13, 19810, Note_on_c, 9, 42, 0
13, 19860, Note_on_c, 9, 42, 88
13, 19870, Note_on_c, 9, 42, 0
13, 19920, Note_on_c, 9, 42, 90
13, 19930, Note_on_c, 9, 42, 0
13, 19980, Note_on_c, 9, 42, 91
13, 19990, Note_on_c, 9, 42, 0
13, 20040, Note_on_c, 9, 42, 88
13, 20050, Note_on_c, 9, 42, 0
13, 20100, Note_on_c, 9, 42, 67
13, 20110, Note_on_c, 9, 42, 0
13, 20640, Note_on_c, 9, 42, 110
13, 20650, Note_on_c, 9, 42, 0
13, 20700, Note_on_c, 9, 42, 89
13, 20710, Note_on_c, 9, 42, 0
13, 20760, Note_on_c, 9, 42, 73
13, 20770, Note_on_c, 9, 42, 0
13, 20820, Note_on_c, 9, 42, 111
13, 20830, Note_on_c, 9, 42, 0
13, 20880, Note_on_c, 9, 42, 89
13, 20890, Note_on_c, 9, 42, 0
13, 20940, Note_on_c, 9, 42, 90
13, 20950, Note_on_c, 9, 42, 0
13, 21000, Note_on_c, 9, 42, 89
13, 21010, Note_on_c, 9, 42, 0
13, 21120, Note_on_c, 9, 42, 108
13, 21130, Note_on_c, 9, 42, 0
13, 21180, Note_on_c, 9, 42, 90
13, 21190, Note_on_c, 9, 42, 0
13, 21240, Note_on_c, 9, 42, 88
13, 21250, Note_on_c, 9, 42, 0
13, 21300, Note_on_c, 9, 42, 89
13, 21310, Note_on_c, 9, 42, 0
13, 21360, Note_on_c, 9, 42, 89
13, 21370, Note_on_c, 9, 42, 0
13, 21420, Note_on_c, 9, 42, 89
13, 21430, Note_on_c, 9, 42, 0
13, 21480, Note_on_c, 9, 42, 88
13, 21490, Note_on_c, 9, 42, 0
13, 21540, Note_on_c, 9, 42, 67
13, 21550, Note_on_c, 9, 42, 0
13, 21600, Note_on_c, 9, 42, 110
13, 21610, Note_on_c, 9, 42, 0
13, 21660, Note_on_c, 9, 42, 89
13, 21670, Note_on_c, 9, 42, 0
13, 21720, Note_on_c, 9, 42, 73
13, 21730, Note_on_c, 9, 42, 0
13, 21780, Note_on_c, 9, 42, 111
13, 21790, Note_on_c, 9, 42, 0
13, 21840, Note_on_c, 9, 42, 89
13, 21850, Note_on_c, 9, 42, 0
13, 21900, Note_on_c, 9, 42, 90
13, 21910, Note_on_c, 9, 42, 0
13, 21960, Note_on_c, 9, 42, 89
13, 21970, Note_on_c, 9, 42, 0
13, 22080, Note_on_c, 9, 42, 108
13, 22090, Note_on_c, 9, 42, 0
13, 22140, Note_on_c, 9, 42, 90
13, 22150, Note_on_c, 9, 42, 0
13, 22200, Note_on_c, 9, 42, 88
13, 22210, Note_on_c, 9, 42, 0
13, 22260, Note_on_c, 9, 42, 89
13, 22270, Note_on_c, 9, 42, 0
13, 22320, Note_on_c, 9, 42, 89
13, 22330, Note_on_c, 9, 42, 0
13, 22380, Note_on_c, 9, 42, 89
13, 22390, Note_on_c, 9, 42, 0
13, 22440, Note_on_c, 9, 42, 88
13, 22450, Note_on_c, 9, 42, 0
13, 22500, Note_on_c, 9, 42, 67
13, 22510, Note_on_c, 9, 42, 0
13, 22560, Note_on_c, 9, 42, 110
13, 22570, Note_on_c, 9, 42, 0
13, 22620, Note_on_c, 9, 42, 89
13, 22630, Note_on_c, 9, 42, 0
13, 22680, Note_on_c, 9, 42, 73
13, 22690, Note_on_c, 9, 42, 0
13, 22740, Note_on_c, 9, 42, 111
13, 22750, Note_on_c, 9, 42, 0
13, 22800, Note_on_c, 9, 42, 89
13, 22810, Note_on_c, 9, 42, 0
13, 22860, Note_on_c, 9, 42, 90
13, 22870, Note_on_c, 9, 42, 0
13, 22920, Note_on_c, 9, 42, 89
13, 22930, Note_on_c, 9, 42, 0
13, 23040, Note_on_c, 9, 42, 108
13, 23050, Note_on_c, 9, 42, 0
13, 23100, Note_on_c, 9, 42, 90
13, 23110, Note_on_c, 9, 42, 0
13, 23160, Note_on_c, 9, 42, 88
13, 23170, Note_on_c, 9, 42, 0
13, 23220, Note_on_c, 9, 42, 89
13, 23230, Note_on_c, 9, 42, 0
13, 23280, Note_on_c, 9, 42, 89
13, 23290, Note_on_c, 9, 42, 0
13, 23340, Note_on_c, 9, 42, 89
13, 23350, Note_on_c, 9, 42, 0
13, 23400, Note_on_c, 9, 42, 88
13, 23410, Note_on_c, 9, 42, 0
13, 23460, Note_on_c, 9, 42, 67
13, 23470, Note_on_c, 9, 42, 0
13, 23520, Note_on_c, 9, 42, 110
13, 23530, Note_on_c, 9, 42, 0
13, 23580, Note_on_c, 9, 42, 89
13, 23590, Note_on_c, 9, 42, 0
13, 23640, Note_on_c, 9, 42, 73
13, 23650, Note_on_c, 9, 42, 0
13, 23700, Note_on_c, 9, 42, 111
13, 23710, Note_on_c, 9, 42, 0
13, 23760, Note_on_c, 9, 42, 89
13, 23770, Note_on_c, 9, 42, 0
13, 23820, Note_on_c, 9, 42, 90
13, 23830, Note_on_c, 9, 42, 0
13, 23880, Note_on_c, 9, 42, 89
13, 23890, Note_on_c, 9, 42, 0
13, 24000, Note_on_c, 9, 42, 108
13, 24010, Note_on_c, 9, 42, 0
13, 24060, Note_on_c, 9, 42, 90
13, 24070, Note_on_c, 9, 42, 0
13, 24120, Note_on_c, 9, 42, 88
13, 24130, Note_on_c, 9, 42, 0
13, 24180, Note_on_c, 9, 42, 89
13, 24190, Note_on_c, 9, 42, 0
13, 24240, Note_on_c, 9, 42, 89
13, 24250, Note_on_c, 9, 42, 0
13, 24300, Note_on_c, 9, 42, 89
13, 24310, Note_on_c, 9, 42, 0
13, 24360, Note_on_c, 9, 42, 88
13, 24370, Note_on_c, 9, 42, 0
13, 24420, Note_on_c, 9, 42, 67
13, 24430, Note_on_c, 9, 42, 0
13, 24540, Note_on_c, 9, 42, 89
13, 24550, Note_on_c, 9, 42, 0
13, 24600, Note_on_c, 9, 42, 90
13, 24610, Note_on_c, 9, 42, 0
13, 24660, Note_on_c, 9, 42, 73
13, 24670, Note_on_c, 9, 42, 0
13, 24720, Note_on_c, 9, 42, 110
13, 24730, Note_on_c, 9, 42, 0
13, 24780, Note_on_c, 9, 42, 88
13, 24790, Note_on_c, 9, 42, 0
13, 24840, Note_on_c, 9, 42, 91
13, 24850, Note_on_c, 9, 42, 0
13, 24900, Note_on_c, 9, 42, 70
13, 24910, Note_on_c, 9, 42, 0
13, 24960, Note_on_c, 9, 42, 110
13, 24970, Note_on_c, 9, 42, 0
13, 25020, Note_on_c, 9, 42, 88
13, 25030, Note_on_c, 9, 42, 0
13, 25080, Note_on_c, 9, 42, 89
13, 25090, Note_on_c, 9, 42, 0
13, 25140, Note_on_c, 9, 42, 70
13, 25150, Note_on_c, 9, 42, 0
13, 25200, Note_on_c, 9, 42, 110
13, 25210, Note_on_c, 9, 42, 0
13, 25260, Note_on_c, 9, 42, 89
13, 25270, Note_on_c, 9, 42, 0
13, 25320, Note_on_c, 9, 42, 88
13, 25330, Note_on_c, 9, 42, 0
13, 25380, Note_on_c, 9, 42, 69
13, 25390, Note_on_c, 9, 42, 0
13, 25440, Note_on_c, 9, 42, 109
13, 25450, Note_on_c, 9, 42, 0
13, 25500, Note_on_c, 9, 42, 89
13, 25510, Note_on_c, 9, 42, 0
13, 25560, Note_on_c, 9, 42, 91
13, 25570, Note_on_c, 9, 42, 0
13, 25620, Note_on_c, 9, 42, 73
13, 25630, Note_on_c, 9, 42, 0
13, 25680, Note_on_c, 9, 42, 111
13, 25690, Note_on_c, 9, 42, 0
13, 25740, Note_on_c, 9, 42, 89
13, 25750, Note_on_c, 9, 42, 0
13, 25800, Note_on_c, 9, 42, 89
13, 25810, Note_on_c, 9, 42, 0
13, 25860, Note_on_c, 9, 42, 71
13, 25870, Note_on_c, 9, 42, 0
13, 25920, Note_on_c, 9, 42, 111
13, 25930, Note_on_c, 9, 42, 0
13, 25980, Note_on_c, 9, 42, 91
13, 25990, Note_on_c, 9, 42, 0
13, 26040, Note_on_c, 9, 42, 89
13, 26050, Note_on_c, 9, 42, 0
13, 26100, Note_on_c, 9, 42, 90
13, 26110, Note_on_c, 9, 42, 0
13, 26160, Note_on_c, 9, 42, 90
13, 26170, Note_on_c, 9, 42, 0
13, 26220, Note_on_c, 9, 42, 89
13, 26230, Note_on_c, 9, 42, 0
13, 26280, Note_on_c, 9, 42, 89
13, 26290, Note_on_c, 9, 42, 0
13, 26340, Note_on_c, 9, 42, 68
13, 26350, Note_on_c, 9, 42, 0
13, 26400, Note_on_c, 9, 42, 109
13, 26410, Note_on_c, 9, 42, 0
13, 26460, Note_on_c, 9, 42, 89
13, 26470, Note_on_c, 9, 42, 0
13, 26520, Note_on_c, 9, 42, 91
13, 26530, Note_on_c, 9, 42, 0
13, 26580, Note_on_c, 9, 42, 73
13, 26590, Note_on_c, 9, 42, 0
13, 26640, Note_on_c, 9, 42, 111
13, 26650, Note_on_c, 9, 42, 0
13, 26700, Note_on_c, 9, 42, 89
13, 26710, Note_on_c, 9, 42, 0
13, 26760, Note_on_c, 9, 42, 89
13, 26770, Note_on_c, 9, 42, 0
13, 26820, Note_on_c, 9, 42, 71
13, 26830, Note_on_c, 9, 42, 0
13, 26880, Note_on_c, 9, 42, 111
13, 26890, Note_on_c, 9, 42, 0
13, 26940, Note_on_c, 9, 42, 91
13, 26950, Note_on_c, 9, 42, 0
13, 27000, Note_on_c, 9, 42, 89
13, 27010, Note_on_c, 9, 42, 0
13, 27060, Note_on_c, 9, 42, 90
13, 27070, Note_on_c, 9, 42, 0
13, 27120, Note_on_c, 9, 42, 90
13, 27130, Note_on_c, 9, 42, 0
13, 27180, Note_on_c, 9, 42, 89
13, 27190, Note_on_c, 9, 42, 0
13, 27240, Note_on_c, 9, 42, 89
13, 27250, Note_on_c, 9, 42, 0
13, 27300, Note_on_c, 9, 42, 68
13, 27310, Note_on_c, 9, 42, 0
13, 27360, Note_on_c, 9, 42, 109
13, 27370, Note_on_c, 9, 42, 0
13, 27420, Note_on_c, 9, 42, 89
13, 27430, Note_on_c, 9, 42, 0
13, 27480, Note_on_c, 9, 42, 91
13, 27490, Note_on_c, 9, 42, 0
13, 27540, Note_on_c, 9, 42, 73
13, 27550, Note_on_c, 9, 42, 0
13, 27600, Note_on_c, 9, 42, 111
13, 27610, Note_on_c, 9, 42, 0
13, 27660, Note_on_c, 9, 42, 89
13, 27670, Note_on_c, 9, 42, 0
13, 27720, Note_on_c, 9, 42, 89
13, 27730, Note_on_c, 9, 42, 0
13, 27780, Note_on_c, 9, 42, 71
13, 27790, Note_on_c, 9, 42, 0
13, 27840, Note_on_c, 9, 42, 111
13, 27850, Note_on_c, 9, 42, 0
13, 27900, Note_on_c, 9, 42, 91
13, 27910, Note_on_c, 9, 42, 0
13, 27960, Note_on_c, 9, 42, 89
13, 27970, Note_on_c, 9, 42, 0
13, 28020, Note_on_c, 9, 42, 90
13, 28030, Note_on_c, 9, 42, 0
13, 28080, Note_on_c, 9, 42, 90
13, 28090, Note_on_c, 9, 42, 0
13, 28140, Note_on_c, 9, 42, 89
13, 28150, Note_on_c, 9, 42, 0
13, 28200, Note_on_c, 9, 42, 89
13, 28210, Note_on_c, 9, 42, 0
13, 28260, Note_on_c, 9, 42, 68
13, 28270, Note_on_c, 9, 42, 0
13, 28320, Note_on_c, 9, 42, 110
13, 28330, Note_on_c, 9, 42, 0
13, 28380, Note_on_c, 9, 42, 90
13, 28390, Note_on_c, 9, 42, 0
13, 28440, Note_on_c, 9, 42, 72
13, 28450, Note_on_c, 9, 42, 0
13, 28500, Note_on_c, 9, 42, 109
13, 28510, Note_on_c, 9, 42, 0
13, 28860, Note_on_c, 9, 42, 89
13, 28870, Note_on_c, 9, 42, 0
13, 28920, Note_on_c, 9, 42, 90
13, 28930, Note_on_c, 9, 42, 0
13, 28980, Note_on_c, 9, 42, 88
13, 28990, Note_on_c, 9, 42, 0
13, 29040, Note_on_c, 9, 42, 89
13, 29050, Note_on_c, 9, 42, 0
13, 29100, Note_on_c, 9, 42, 91
13, 29110, Note_on_c, 9, 42, 0
13, 29160, Note_on_c, 9, 42, 89
13, 29170, Note_on_c, 9, 42, 0
13, 29220, Note_on_c, 9, 42, 72
13, 29230, Note_on_c, 9, 42, 0
13, 29280, Note_on_c, 9, 42, 110
13, 29290, Note_on_c, 9, 42, 0
13, 29340, Note_on_c, 9, 42, 90
13, 29350, Note_on_c, 9, 42, 0
13, 29400, Note_on_c, 9, 42, 72
13, 29410, Note_on_c, 9, 42, 0
13, 29460, Note_on_c, 9, 42, 109
13, 29470, Note_on_c, 9, 42, 0
13, 29520, Note_on_c, 9, 42, 88
13, 29530, Note_on_c, 9, 42, 0
13, 29580, Note_on_c, 9, 42, 88
13, 29590, Note_on_c, 9, 42, 0
13, 29640, Note_on_c, 9, 42, 91
13, 29650, Note_on_c, 9, 42, 0
13, 29700, Note_on_c, 9, 42, 69
13, 29710, Note_on_c, 9, 42, 0
13, 29820, Note_on_c, 9, 42, 89
13, 29830, Note_on_c, 9, 42, 0
13, 29880, Note_on_c, 9, 42, 90
13, 29890, Note_on_c, 9, 42, 0
13, 29940, Note_on_c, 9, 42, 88
13, 29950, Note_on_c, 9, 42, 0
13, 30240, Note_on_c, 9, 42, 111
13, 30250, Note_on_c, 9, 42, 0
13, 30300, Note_on_c, 9, 42, 90
13, 30310, Note_on_c, 9, 42, 0
13, 30360, Note_on_c, 9, 42, 90
13, 30370, Note_on_c, 9, 42, 0
13, 30420, Note_on_c, 9, 42, 70
13, 30430, Note_on_c, 9, 42, 0
13, 30480, Note_on_c, 9, 42, 109
13, 30490, Note_on_c, 9, 42, 0
13, 30540, Note_on_c, 9, 42, 90
13, 30550, Note_on_c, 9, 42, 0
13, 30600, Note_on_c, 9, 42, 88
13, 30610, Note_on_c, 9, 42, 0
13, 30660, Note_on_c, 9, 42, 73
13, 30670, Note_on_c, 9, 42, 0
13, 30720, Note_on_c, 9, 42, 108
13, 30730, Note_on_c, 9, 42, 0
13, 30780, Note_on_c, 9, 42, 88
13, 30790, Note_on_c, 9, 42, 0
13, 30840, Note_on_c, 9, 42, 73
13, 30850, Note_on_c, 9, 42, 0
13, 30900, Note_on_c, 9, 42, 110
13, 30910, Note_on_c, 9, 42, 0
13, 30960, Note_on_c, 9, 42, 89
13, 30970, Note_on_c, 9, 42, 0
13, 31020, Note_on_c, 9, 42, 88
13, 31030, Note_on_c, 9, 42, 0
13, 31080, Note_on_c, 9, 42, 90
13, 31090, Note_on_c, 9, 42, 0
13, 31140, Note_on_c, 9, 42, 71
13, 31150, Note_on_c, 9, 42, 0
13, 31200, Note_on_c, 9, 42, 111
13, 31210, Note_on_c, 9, 42, 0
13, 31260, Note_on_c, 9, 42, 90
13, 31270, Note_on_c, 9, 42, 0
13, 31320, Note_on_c, 9, 42, 90
13, 31330, Note_on_c, 9, 42, 0
13, 31380, Note_on_c, 9, 42, 70
13, 31390, Note_on_c, 9, 42, 0
13, 31440, Note_on_c, 9, 42, 109
13, 31450, Note_on_c, 9, 42, 0
13, 31500, Note_on_c, 9, 42, 90
13, 31510, Note_on_c, 9, 42, 0
13, 31560, Note_on_c, 9, 42, 88
13, 31570, Note_on_c, 9, 42, 0
13, 31620, Note_on_c, 9, 42, 73
13, 31630, Note_on_c, 9, 42, 0
13, 31680, Note_on_c, 9, 42, 108
13, 31690, Note_on_c, 9, 42, 0
13, 31740, Note_on_c, 9, 42, 88
13, 31750, Note_on_c, 9, 42, 0
13, 31800, Note_on_c, 9, 42, 73
13, 31810, Note_on_c, 9, 42, 0
13, 31860, Note_on_c, 9, 42, 110
13, 31870, Note_on_c, 9, 42, 0
13, 31920, Note_on_c, 9, 42, 89
13, 31930, Note_on_c, 9, 42, 0
13, 31980, Note_on_c, 9, 42, 88
13, 31990, Note_on_c, 9, 42, 0
13, 32040, Note_on_c, 9, 42, 90
13, 32050, Note_on_c, 9, 42, 0
13, 32100, Note_on_c, 9, 42, 71
13, 32110, Note_on_c, 9, 42, 0
13, 32160, Note_on_c, 9, 42, 109
13, 32170, Note_on_c, 9, 42, 0
13, 32220, Note_on_c, 9, 42, 88
13, 32230, Note_on_c, 9, 42, 0
13, 32280, Note_on_c, 9, 42, 91
13, 32290, Note_on_c, 9, 42, 0
13, 32340, Note_on_c, 9, 42, 91
13, 32350, Note_on_c, 9, 42, 0
13, 32400, Note_on_c, 9, 42, 88
13, 32410, Note_on_c, 9, 42, 0
13, 32460, Note_on_c, 9, 42, 91
13, 32470, Note_on_c, 9, 42, 0
13, 32520, Note_on_c, 9, 42, 90
13, 32530, Note_on_c, 9, 42, 0
13, 32580, Note_on_c, 9, 42, 73
13, 32590, Note_on_c, 9, 42, 0
13, 32640, Note_on_c, 9, 42, 110
13, 32650, Note_on_c, 9, 42, 0
13, 32700, Note_on_c, 9, 42, 89
13, 32710, Note_on_c, 9, 42, 0
13, 32760, Note_on_c, 9, 42, 91
13, 32770, Note_on_c, 9, 42, 0
13, 32820, Note_on_c, 9, 42, 73
13, 32830, Note_on_c, 9, 42, 0
13, 32880, Note_on_c, 9, 42, 111
13, 32890, Note_on_c, 9, 42, 0
13, 32940, Note_on_c, 9, 42, 90
13, 32950, Note_on_c, 9, 42, 0
13, 33000, Note_on_c, 9, 42, 91
13, 33010, Note_on_c, 9, 42, 0
13, 33060, Note_on_c, 9, 42, 69
13, 33070, Note_on_c, 9, 42, 0
13, 33120, Note_on_c, 9, 42, 109
13, 33130, Note_on_c, 9, 42, 0
13, 33240, Note_on_c, 9, 42, 88
13, 33250, Note_on_c, 9, 42, 0
13, 33300, Note_on_c, 9, 42, 90
13, 33310, Note_on_c, 9, 42, 0
13, 33360, Note_on_c, 9, 42, 88
13, 33370, Note_on_c, 9, 42, 0
13, 33480, Note_on_c, 9, 42, 90
13, 33490, Note_on_c, 9, 42, 0
13, 33540, Note_on_c, 9, 42, 69
13, 33550, Note_on_c, 9, 42, 0
13, 33600, Note_on_c, 9, 42, 109
13, 33610, Note_on_c, 9, 42, 0
13, 33660, Note_on_c, 9, 42, 89
13, 33670, Note_on_c, 9, 42, 0
13, 33720, Note_on_c, 9, 42, 88
13, 33730, Note_on_c, 9, 42, 0
13, 33780, Note_on_c, 9, 42, 89
13, 33790, Note_on_c, 9, 42, 0
13, 33840, Note_on_c, 9, 42, 88
13, 33850, Note_on_c, 9, 42, 0
13, 33900, Note_on_c, 9, 42, 90
13, 33910, Note_on_c, 9, 42, 0
13, 34020, Note_on_c, 9, 42, 67
13, 34030, Note_on_c, 9, 42, 0
13, 34080, Note_on_c, 9, 42, 109
13, 34090, Note_on_c, 9, 42, 0
13, 34200, Note_on_c, 9, 42, 88
13, 34210, Note_on_c, 9, 42, 0
13, 34260, Note_on_c, 9, 42, 90
13, 34270, Note_on_c, 9, 42, 0
13, 34320, Note_on_c, 9, 42, 88
13, 34330, Note_on_c, 9, 42, 0
13, 34440, Note_on_c, 9, 42, 90
13, 34450, Note_on_c, 9, 42, 0
13, 34500, Note_on_c, 9, 42, 69
13, 34510, Note_on_c, 9, 42, 0
13, 34560, Note_on_c, 9, 42, 109
13, 34570, Note_on_c, 9, 42, 0
13, 34620, Note_on_c, 9, 42, 89
13, 34630, Note_on_c, 9, 42, 0
13, 34680, Note_on_c, 9, 42, 88
13, 34690, Note_on_c, 9, 42, 0
13, 34740, Note_on_c, 9, 42, 89
13, 34750, Note_on_c, 9, 42, 0
13, 34800, Note_on_c, 9, 42, 88
13, 34810, Note_on_c, 9, 42, 0
13, 34860, Note_on_c, 9, 42, 90
13, 34870, Note_on_c, 9, 42, 0
13, 34980, Note_on_c, 9, 42, 67
13, 34990, Note_on_c, 9, 42, 0
13, 35040, Note_on_c, 9, 42, 108
13, 35050, Note_on_c, 9, 42, 0
13, 35100, Note_on_c, 9, 42, 89
13, 35110, Note_on_c, 9, 42, 0
13, 35160, Note_on_c, 9, 42, 71
13, 35170, Note_on_c, 9, 42, 0
13, 35220, Note_on_c, 9, 42, 108
13, 35230, Note_on_c, 9, 42, 0
13, 35280, Note_on_c, 9, 42, 90
13, 35290, Note_on_c, 9, 42, 0
13, 35340, Note_on_c, 9, 42, 88
13, 35350, Note_on_c, 9, 42, 0
13, 35400, Note_on_c, 9, 42, 91
13, 35410, Note_on_c, 9, 42, 0
13, 35460, Note_on_c, 9, 42, 71
13, 35470, Note_on_c, 9, 42, 0
13, 35520, Note_on_c, 9, 42, 111
13, 35530, Note_on_c, 9, 42, 0
13, 35580, Note_on_c, 9, 42, 91
13, 35590, Note_on_c, 9, 42, 0
13, 35640, Note_on_c, 9, 42, 69
13, 35650, Note_on_c, 9, 42, 0
13, 35700, Note_on_c, 9, 42, 108
13, 35710, Note_on_c, 9, 42, 0
13, 35820, Note_on_c, 9, 42, 90
13, 35830, Note_on_c, 9, 42, 0
13, 35940, Note_on_c, 9, 42, 73
13, 35950, Note_on_c, 9, 42, 0
13, 36000, Note_on_c, 9, 42, 108
13, 36010, Note_on_c, 9, 42, 0
13, 36060, Note_on_c, 9, 42, 91
13, 36070, Note_on_c, 9, 42, 0
13, 36120, Note_on_c, 9, 42, 88
13, 36130, Note_on_c, 9, 42, 0
13, 36180, Note_on_c, 9, 42, 72
13, 36190, Note_on_c, 9, 42, 0
13, 36240, Note_on_c, 9, 42, 111
13, 36250, Note_on_c, 9, 42, 0
13, 36300, Note_on_c, 9, 42, 91
13, 36310, Note_on_c, 9, 42, 0
13, 36360, Note_on_c, 9, 42, 90
13, 36370, Note_on_c, 9, 42, 0
13, 36420, Note_on_c, 9, 42, 71
13, 36430, Note_on_c, 9, 42, 0
13, 36480, Note_on_c, 9, 42, 110
13, 36490, Note_on_c, 9, 42, 0
13, 36540, Note_on_c, 9, 42, 90
13, 36550, Note_on_c, 9, 42, 0
13, 36600, Note_on_c, 9, 42, 88
13, 36610, Note_on_c, 9, 42, 0
13, 36660, Note_on_c, 9, 42, 70
13, 36670, Note_on_c, 9, 42, 0
13, 36720, Note_on_c, 9, 42, 111
13, 36730, Note_on_c, 9, 42, 0
13, 36960, Note_on_c, 9, 42, 110
13, 36970, Note_on_c, 9, 42, 0
13, 37020, Note_on_c, 9, 42, 88
13, 37030, Note_on_c, 9, 42, 0
13, 37080, Note_on_c, 9, 42, 89
13, 37090, Note_on_c, 9, 42, 0
13, 37140, Note_on_c, 9, 42, 90
13, 37150, Note_on_c, 9, 42, 0
13, 37200, Note_on_c, 9, 42, 89
13, 37210, Note_on_c, 9, 42, 0
13, 37260, Note_on_c, 9, 42, 88
13, 37270, Note_on_c, 9, 42, 0
13, 37320, Note_on_c, 9, 42, 89
13, 37330, Note_on_c, 9, 42, 0
13, 37380, Note_on_c, 9, 42, 71
13, 37390, Note_on_c, 9, 42, 0
13, 37440, Note_on_c, 9, 42, 111
13, 37450, Note_on_c, 9, 42, 0
13, 37500, Note_on_c, 9, 42, 91
13, 37510, Note_on_c, 9, 42, 0
13, 37560, Note_on_c, 9, 42, 67
13, 37570, Note_on_c, 9, 42, 0
13, 37620, Note_on_c, 9, 42, 108
13, 37630, Note_on_c, 9, 42, 0
13, 37680, Note_on_c, 9, 42, 90
13, 37690, Note_on_c, 9, 42, 0
13, 37740, Note_on_c, 9, 42, 88
13, 37750, Note_on_c, 9, 42, 0
13, 37800, Note_on_c, 9, 42, 91
13, 37810, Note_on_c, 9, 42, 0
13, 37860, Note_on_c, 9, 42, 72
13, 37870, Note_on_c, 9, 42, 0
13, 37920, Note_on_c, 9, 42, 110
13, 37930, Note_on_c, 9, 42, 0
13, 37980, Note_on_c, 9, 42, 88
13, 37990, Note_on_c, 9, 42, 0
13, 38040, Note_on_c, 9, 42, 89
13, 38050, Note_on_c, 9, 42, 0
13, 38100, Note_on_c, 9, 42, 90
13, 38110, Note_on_c, 9, 42, 0
13, 38160, Note_on_c, 9, 42, 89
13, 38170, Note_on_c, 9, 42, 0
13, 38220, Note_on_c, 9, 42, 88
13, 38230, Note_on_c, 9, 42, 0
13, 38280, Note_on_c, 9, 42, 89
13, 38290, Note_on_c, 9, 42, 0
13, 38340, Note_on_c, 9, 42, 71
13, 38350, Note_on_c, 9, 42, 0
13, 38400, Note_on_c, 9, 42, 111
13, 38410, Note_on_c, 9, 42, 0
13, 38460, Note_on_c, 9, 42, 91
13, 38470, Note_on_c, 9, 42, 0
13, 38520, Note_on_c, 9, 42, 67
13, 38530, Note_on_c, 9, 42, 0
13, 38580, Note_on_c, 9, 42, 108
13, 38590, Note_on_c, 9, 42, 0
13, 38640, Note_on_c, 9, 42, 90
13, 38650, Note_on_c, 9, 42, 0
13, 38700, Note_on_c, 9, 42, 88
13, 38710, Note_on_c, 9, 42, 0
13, 38760, Note_on_c, 9, 42, 91
13, 38770, Note_on_c, 9, 42, 0
13, 38820, Note_on_c, 9, 42, 72
13, 38830, Note_on_c, 9, 42, 0
13, 38880, Note_on_c, 9, 42, 110
13, 38890, Note_on_c, 9, 42, 0
13, 38940, Note_on_c, 9, 42, 88
13, 38950, Note_on_c, 9, 42, 0
13, 39000, Note_on_c, 9, 42, 89
13, 39010, Note_on_c, 9, 42, 0
13, 39060, Note_on_c, 9, 42, 90
13, 39070, Note_on_c, 9, 42, 0
13, 39120, Note_on_c, 9, 42, 89
13, 39130, Note_on_c, 9, 42, 0
13, 39180, Note_on_c, 9, 42, 88
13, 39190, Note_on_c, 9, 42, 0
13, 39240, Note_on_c, 9, 42, 89
13, 39250, Note_on_c, 9, 42, 0
13, 39300, Note_on_c, 9, 42, 71
13, 39310, Note_on_c, 9, 42, 0
13, 39360, Note_on_c, 9, 42, 111
13, 39370, Note_on_c, 9, 42, 0
13, 39420, Note_on_c, 9, 42, 91
13, 39430, Note_on_c, 9, 42, 0
13, 39480, Note_on_c, 9, 42, 67
13, 39490, Note_on_c, 9, 42, 0
13, 39540, Note_on_c, 9, 42, 108
13, 39550, Note_on_c, 9, 42, 0
13, 39600, Note_on_c, 9, 42, 90
13, 39610, Note_on_c, 9, 42, 0
13, 39660, Note_on_c, 9, 42, 88
13, 39670, Note_on_c, 9, 42, 0
13, 39720, Note_on_c, 9, 42, 91
13, 39730, Note_on_c, 9, 42, 0
13, 39780, Note_on_c, 9, 42, 72
13, 39790, Note_on_c, 9, 42, 0
13, 39840, Note_on_c, 9, 42, 108
13, 39850, Note_on_c, 9, 42, 0
13, 39900, Note_on_c, 9, 42, 89
13, 39910, Note_on_c, 9, 42, 0
13, 39960, Note_on_c, 9, 42, 69
13, 39970, Note_on_c, 9, 42, 0
13, 40020, Note_on_c, 9, 42, 108
13, 40030, Note_on_c, 9, 42, 0
13, 40080, Note_on_c, 9, 42, 91
13, 40090, Note_on_c, 9, 42, 0
13, 40140, Note_on_c, 9, 42, 88
13, 40150, Note_on_c, 9, 42, 0
13, 40200, Note_on_c, 9, 42, 91
13, 40210, Note_on_c, 9, 42, 0
13, 40260, Note_on_c, 9, 42, 68
13, 40270, Note_on_c, 9, 42, 0
13, 40320, Note_on_c, 9, 42, 111
13, 40330, Note_on_c, 9, 42, 0
13, 40380, Note_on_c, 9, 42, 90
13, 40390, Note_on_c, 9, 42, 0
13, 40440, Note_on_c, 9, 42, 90
13, 40450, Note_on_c, 9, 42, 0
13, 40500, Note_on_c, 9, 42, 88
13, 40510, Note_on_c, 9, 42, 0
13, 40560, Note_on_c, 9, 42, 89
13, 40570, Note_on_c, 9, 42, 0
13, 40620, Note_on_c, 9, 42, 89
13, 40630, Note_on_c, 9, 42, 0
13, 40680, Note_on_c, 9, 42, 88
13, 40690, Note_on_c, 9, 42, 0
13, 40800, Note_on_c, 9, 42, 108
13, 40810, Note_on_c, 9, 42, 0
13, 40860, Note_on_c, 9, 42, 89
13, 40870, Note_on_c, 9, 42, 0
13, 40920, Note_on_c, 9, 42, 69
13, 40930, Note_on_c, 9, 42, 0
13, 40980, Note_on_c, 9, 42, 108
13, 40990, Note_on_c, 9, 42, 0
13, 41280, Note_on_c, 9, 42, 111
13, 41290, Note_on_c, 9, 42, 0
13, 41340, Note_on_c, 9, 42, 90
13, 41350, Note_on_c, 9, 42, 0
13, 41400, Note_on_c, 9, 42, 90
13, 41410, Note_on_c, 9, 42, 0
13, 41460, Note_on_c, 9, 42, 88
13, 41470, Note_on_c, 9, 42, 0
13, 41520, Note_on_c, 9, 42, 89
13, 41530, Note_on_c, 9, 42, 0
13, 41580, Note_on_c, 9, 42, 89
13, 41590, Note_on_c, 9, 42, 0
13, 41640, Note_on_c, 9, 42, 88
13, 41650, Note_on_c, 9, 42, 0
13, 41760, Note_on_c, 9, 42, 108
13, 41770, Note_on_c, 9, 42, 0
13, 41820, Note_on_c, 9, 42, 89
13, 41830, Note_on_c, 9, 42, 0
13, 41880, Note_on_c, 9, 42, 69
13, 41890, Note_on_c, 9, 42, 0
13, 41940, Note_on_c, 9, 42, 108
13, 41950, Note_on_c, 9, 42, 0
13, 42000, Note_on_c, 9, 42, 91
13, 42010, Note_on_c, 9, 42, 0
13, 42060, Note_on_c, 9, 42, 88
13, 42070, Note_on_c, 9, 42, 0
13, 42120, Note_on_c, 9, 42, 91
13, 42130, Note_on_c, 9, 42, 0
13, 42180, Note_on_c, 9, 42, 68
13, 42190, Note_on_c, 9, 42, 0
13, 42240, Note_on_c, 9, 42, 111
13, 42250, Note_on_c, 9, 42, 0
13, 42300, Note_on_c, 9, 42, 90
13, 42310, Note_on_c, 9, 42, 0
13, 42360, Note_on_c, 9, 42, 90
13, 42370, Note_on_c, 9, 42, 0
13, 42420, Note_on_c, 9, 42, 88
13, 42430, Note_on_c, 9, 42, 0
13, 42480, Note_on_c, 9, 42, 89
13, 42490, Note_on_c, 9, 42, 0
13, 42540, Note_on_c, 9, 42, 89
13, 42550, Note_on_c, 9, 42, 0
13, 42600, Note_on_c, 9, 42, 88
13, 42610, Note_on_c, 9, 42, 0
13, 42720, Note_on_c, 9, 42, 108
13, 42730, Note_on_c, 9, 42, 0
13, 42780, Note_on_c, 9, 42, 89
13, 42790, Note_on_c, 9, 42, 0
13, 42840, Note_on_c, 9, 42, 69
13, 42850, Note_on_c, 9, 42, 0
13, 42900, Note_on_c, 9, 42, 108
13, 42910, Note_on_c, 9, 42, 0
13, 42960, Note_on_c, 9, 42, 91
13, 42970, Note_on_c, 9, 42, 0
13, 43020, Note_on_c, 9, 42, 88
13, 43030, Note_on_c, 9, 42, 0
13, 43080, Note_on_c, 9, 42, 91
13, 43090, Note_on_c, 9, 42, 0
13, 43140, Note_on_c, 9, 42, 68
13, 43150, Note_on_c, 9, 42, 0
13, 43200, Note_on_c, 9, 42, 111
13, 43210, Note_on_c, 9, 42, 0
13, 43260, Note_on_c, 9, 42, 90
13, 43270, Note_on_c, 9, 42, 0
13, 43320, Note_on_c, 9, 42, 90
13, 43330, Note_on_c, 9, 42, 0
13, 43380, Note_on_c, 9, 42, 88
13, 43390, Note_on_c, 9, 42, 0
13, 43440, Note_on_c, 9, 42, 89
13, 43450, Note_on_c, 9, 42, 0
13, 43680, Note_on_c, 9, 42, 109
13, 43690, Note_on_c, 9, 42, 0
13, 43740, Note_on_c, 9, 42, 91
13, 43750, Note_on_c, 9, 42, 0
13, 43800, Note_on_c, 9, 42, 91
13, 43810, Note_on_c, 9, 42, 0
13, 43860, Note_on_c, 9, 42, 89
13, 43870, Note_on_c, 9, 42, 0
13, 43920, Note_on_c, 9, 42, 90
13, 43930, Note_on_c, 9, 42, 0
13, 43980, Note_on_c, 9, 42, 91
13, 43990, Note_on_c, 9, 42, 0
13, 44040, Note_on_c, 9, 42, 89
13, 44050, Note_on_c, 9, 42, 0
13, 44100, Note_on_c, 9, 42, 67
13, 44110, Note_on_c, 9, 42, 0
13, 44160, Note_on_c, 9, 42, 109
13, 44170, Note_on_c, 9, 42, 0
13, 44220, Note_on_c, 9, 42, 89
13, 44230, Note_on_c, 9, 42, 0
13, 44280, Note_on_c, 9, 42, 88
13, 44290, Note_on_c, 9, 42, 0
13, 44340, Note_on_c, 9, 42, 88
13, 44350, Note_on_c, 9, 42, 0
13, 44400, Note_on_c, 9, 42, 91
13, 44410, Note_on_c, 9, 42, 0
13, 44460, Note_on_c, 9, 42, 91
13, 44470, Note_on_c, 9, 42, 0
13, 44520, Note_on_c, 9, 42, 91
13, 44530, Note_on_c, 9, 42, 0
13, 44580, Note_on_c, 9, 42, 69
13, 44590, Note_on_c, 9, 42, 0
13, 44640, Note_on_c, 9, 42, 108
13, 44650, Note_on_c, 9, 42, 0
13, 44700, Note_on_c, 9, 42, 90
13, 44710, Note_on_c, 9, 42, 0
13, 44760, Note_on_c, 9, 42, 91
13, 44770, Note_on_c, 9, 42, 0
13, 44820, Note_on_c, 9, 42, 70
13, 44830, Note_on_c, 9, 42, 0
13, 44880, Note_on_c, 9, 42, 111
13, 44890, Note_on_c, 9, 42, 0
13, 44940, Note_on_c, 9, 42, 89
13, 44950, Note_on_c, 9, 42, 0
13, 45000, Note_on_c, 9, 42, 91
13, 45010, Note_on_c, 9, 42, 0
13, 45060, Note_on_c, 9, 42, 73
13, 45070, Note_on_c, 9, 42, 0
13, 45120, Note_on_c, 9, 42, 110
13, 45130, Note_on_c, 9, 42, 0
13, 45180, Note_on_c, 9, 42, 88
13, 45190, Note_on_c, 9, 42, 0
13, 45240, Note_on_c, 9, 42, 91
13, 45250, Note_on_c, 9, 42, 0
13, 45300, Note_on_c, 9, 42, 73
13, 45310, Note_on_c, 9, 42, 0
13, 45360, Note_on_c, 9, 42, 109
13, 45370, Note_on_c, 9, 42, 0
13, 45420, Note_on_c, 9, 42, 89
13, 45430, Note_on_c, 9, 42, 0
13, 45480, Note_on_c, 9, 42, 89
13, 45490, Note_on_c, 9, 42, 0
13, 45540, Note_on_c, 9, 42, 72
13, 45550, Note_on_c, 9, 42, 0
13, 45600, Note_on_c, 9, 42, 111
13, 45610, Note_on_c, 9, 42, 0
13, 45660, Note_on_c, 9, 42, 90
13, 45670, Note_on_c, 9, 42, 0
13, 45720, Note_on_c, 9, 42, 73
13, 45730, Note_on_c, 9, 42, 0
13, 45780, Note_on_c, 9, 42, 108
13, 45790, Note_on_c, 9, 42, 0
13, 45840, Note_on_c, 9, 42, 90
13, 45850, Note_on_c, 9, 42, 0
13, 45960, Note_on_c, 9, 42, 88
13, 45970, Note_on_c, 9, 42, 0
13, 46080, Note_on_c, 9, 42, 111
13, 46090, Note_on_c, 9, 42, 0
13, 46140, Note_on_c, 9, 42, 89
13, 46150, Note_on_c, 9, 42, 0
13, 46200, Note_on_c, 9, 42, 68
13, 46210, Note_on_c, 9, 42, 0
13, 46320, Note_on_c, 9, 42, 89
13, 46330, Note_on_c, 9, 42, 0
13, 46380, Note_on_c, 9, 42, 89
13, 46390, Note_on_c, 9, 42, 0
13, 46440, Note_on_c, 9, 42, 89
13, 46450, Note_on_c, 9, 42, 0
13, 46500, Note_on_c, 9, 42, 67
13, 46510, Note_on_c, 9, 42, 0
13, 46560, Note_on_c, 9, 42, 111
13, 46570, Note_on_c, 9, 42, 0
13, 46620, Note_on_c, 9, 42, 90
13, 46630, Note_on_c, 9, 42, 0
13, 46680, Note_on_c, 9, 42, 73
13, 46690, Note_on_c, 9, 42, 0
13, 46740, Note_on_c, 9, 42, 108
13, 46750, Note_on_c, 9, 42, 0
13, 46800, Note_on_c, 9, 42, 90
13, 46810, Note_on_c, 9, 42, 0
13, 46920, Note_on_c, 9, 42, 88
13, 46930, Note_on_c, 9, 42, 0
13, 47040, Note_on_c, 9, 42, 111
13, 47050, Note_on_c, 9, 42, 0
13, 47100, Note_on_c, 9, 42, 89
13, 47110, Note_on_c, 9, 42, 0
13, 47160, Note_on_c, 9, 42, 68
13, 47170, Note_on_c, 9, 42, 0
13, 47280, Note_on_c, 9, 42, 89
13, 47290, Note_on_c, 9, 42, 0
13, 47340, Note_on_c, 9, 42, 89
13, 47350, Note_on_c, 9, 42, 0
13, 47400, Note_on_c, 9, 42, 89
13, 47410, Note_on_c, 9, 42, 0
13, 47460, Note_on_c, 9, 42, 67
13, 47470, Note_on_c, 9, 42, 0
13, 48000, Note_on_c, 9, 42, 111
13, 48010, Note_on_c, 9, 42, 0
13, 48060, Note_on_c, 9, 42, 89
13, 48070, Note_on_c, 9, 42, 0
13, 48120, Note_on_c, 9, 42, 68
13, 48130, Note_on_c, 9, 42, 0
13, 48240, Note_on_c, 9, 42, 89
13, 48250, Note_on_c, 9, 42, 0
13, 48300, Note_on_c, 9, 42, 89
13, 48310, Note_on_c, 9, 42, 0
13, 48360, Note_on_c, 9, 42, 89
13, 48370, Note_on_c, 9, 42, 0
13, 48420, Note_on_c, 9, 42, 67
13, 48430, Note_on_c, 9, 42, 0
13, 48480, Note_on_c, 9, 42, 111
13, 48490, Note_on_c, 9, 42, 0
13, 48540, Note_on_c, 9, 42, 90
13, 48550, Note_on_c, 9, 42, 0
13, 48600, Note_on_c, 9, 42, 73
13, 48610, Note_on_c, 9, 42, 0
13, 48660, Note_on_c, 9, 42, 108
13, 48670, Note_on_c, 9, 42, 0
13, 48720, Note_on_c, 9, 42, 90
13, 48730, Note_on_c, 9, 42, 0
13, 48840, Note_on_c, 9, 42, 88
13, 48850, Note_on_c, 9, 42, 0
13, 48960, Note_on_c, 9, 42, 111
13, 48970, Note_on_c, 9, 42, 0
13, 49020, Note_on_c, 9, 42, 89
13, 49030, Note_on_c, 9, 42, 0
13, 49080, Note_on_c, 9, 42, 68
13, 49090, Note_on_c, 9, 42, 0
13, 49200, Note_on_c, 9, 42, 89
13, 49210, Note_on_c, 9, 42, 0
13, 49260, Note_on_c, 9, 42, 89
13, 49270, Note_on_c, 9, 42, 0
13, 49320, Note_on_c, 9, 42, 89
13, 49330, Note_on_c, 9, 42, 0
13, 49380, Note_on_c, 9, 42, 67
13, 49390, Note_on_c, 9, 42, 0
13, 49440, Note_on_c, 9, 42, 110
13, 49450, Note_on_c, 9, 42, 0
13, 49500, Note_on_c, 9, 42, 88
13, 49510, Note_on_c, 9, 42, 0
13, 49560, Note_on_c, 9, 42, 90
13, 49570, Note_on_c, 9, 42, 0
13, 49620, Note_on_c, 9, 42, 73
13, 49630, Note_on_c, 9, 42, 0
13, 49680, Note_on_c, 9, 42, 110
13, 49690, Note_on_c, 9, 42, 0
13, 49740, Note_on_c, 9, 42, 89
13, 49750, Note_on_c, 9, 42, 0
13, 49800, Note_on_c, 9, 42, 89
13, 49810, Note_on_c, 9, 42, 0
13, 49860, Note_on_c, 9, 42, 72
13, 49870, Note_on_c, 9, 42, 0
13, 49920, Note_on_c, 9, 42, 111
13, 49930, Note_on_c, 9, 42, 0
13, 49980, Note_on_c, 9, 42, 88
13, 49990, Note_on_c, 9, 42, 0
13, 50040, Note_on_c, 9, 42, 90
13, 50050, Note_on_c, 9, 42, 0
13, 50100, Note_on_c, 9, 42, 89
13, 50110, Note_on_c, 9, 42, 0
13, 50160, Note_on_c, 9, 42, 89
13, 50170, Note_on_c, 9, 42, 0
13, 50220, Note_on_c, 9, 42, 90
13, 50230, Note_on_c, 9, 42, 0
13, 50280, Note_on_c, 9, 42, 91
13, 50290, Note_on_c, 9, 42, 0
13, 50340, Note_on_c, 9, 42, 73
13, 50350, Note_on_c, 9, 42, 0
13, 50400, Control_c, 9, 7, 90
13, 50400, Note_on_c, 9, 42, 111
13, 50410, Note_on_c, 9, 42, 0
13, 50436, Control_c, 9, 7, 89
13, 50473, Control_c, 9, 7, 88
13, 50510, Control_c, 9, 7, 87
13, 50520, Note_on_c, 9, 42, 91
13, 50530, Note_on_c, 9, 42, 0
13, 50546, Control_c, 9, 7, 86
13, 50580, Note_on_c, 9, 42, 88
13, 50583, Control_c, 9, 7, 85
13, 50590, Note_on_c, 9, 42, 0
13, 50620, Control_c, 9, 7, 84
13, 50640, Note_on_c, 9, 42, 89
13, 50650, Note_on_c, 9, 42, 0
13, 50656, Control_c, 9, 7, 83
13, 50693, Control_c, 9, 7, 82
13, 50700, Note_on_c, 9, 42, 91
13, 50710, Note_on_c, 9, 42, 0
13, 50730, Control_c, 9, 7, 81
13, 50760, Note_on_c, 9, 42, 90
13, 50766, Control_c, 9, 7, 80
13, 50770, Note_on_c, 9, 42, 0
13, 50803, Control_c, 9, 7, 79
13, 50840, Control_c, 9, 7, 78
13, 50876, Control_c, 9, 7, 77
13, 50880, Note_on_c, 9, 42, 110
13, 50890, Note_on_c, 9, 42, 0
13, 50913, Control_c, 9, 7, 76
13, 50940, Note_on_c, 9, 42, 90
13, 50950, Note_on_c, 9, 42, 0
13, 50950, Control_c, 9, 7, 75
13, 50986, Control_c, 9, 7, 74
13, 51000, Note_on_c, 9, 42, 68
13, 51010, Note_on_c, 9, 42, 0
13, 51023, Control_c, 9, 7, 73
13, 51060, Control_c, 9, 7, 72
13, 51096, Control_c, 9, 7, 71
13, 51120, Note_on_c, 9, 42, 90
13, 51130, Note_on_c, 9, 42, 0
13, 51133, Control_c, 9, 7, 70
13, 51170, Control_c, 9, 7, 69
13, 51180, Note_on_c, 9, 42, 90
13, 51190, Note_on_c, 9, 42, 0
13, 51206, Control_c, 9, 7, 68
13, 51240, Note_on_c, 9, 42, 89
13, 51243, Control_c, 9, 7, 67
13, 51250, Note_on_c, 9, 42, 0
13, 51280, Control_c, 9, 7, 66
13, 51300, Note_on_c, 9, 42, 73
13, 51310, Note_on_c, 9, 42, 0
13, 51316, Control_c, 9, 7, 65
13, 51353, Control_c, 9, 7, 64
13, 51360, Note_on_c, 9, 42, 111
13, 51370, Note_on_c, 9, 42, 0
13, 51390, Control_c, 9, 7, 63
13, 51426, Control_c, 9, 7, 62
13, 51463, Control_c, 9, 7, 61
13, 51480, Note_on_c, 9, 42, 91
13, 51490, Note_on_c, 9, 42, 0
13, 51500, Control_c, 9, 7, 60
13, 51536, Control_c, 9, 7, 59
13, 51540, Note_on_c, 9, 42, 88
13, 51550, Note_on_c, 9, 42, 0
13, 51573, Control_c, 9, 7, 58
13, 51600, Note_on_c, 9, 42, 89
13, 51610, Note_on_c, 9, 42, 0
13, 51610, Control_c, 9, 7, 57
13, 51646, Control_c, 9, 7, 56
13, 51683, Control_c, 9, 7, 55
13, 51720, Control_c, 9, 7, 54
13, 51756, Control_c, 9, 7, 53
13, 51793, Control_c, 9, 7, 52
13, 51830, Control_c, 9, 7, 51
13, 51840, Note_on_c, 9, 42, 110
13, 51850, Note_on_c, 9, 42, 0
13, 51866, Control_c, 9, 7, 50
13, 51900, Note_on_c, 9, 42, 90
13, 51903, Control_c, 9, 7, 49
13, 51910, Note_on_c, 9, 42, 0
13, 51940, Control_c, 9, 7, 48
13, 51960, Note_on_c, 9, 42, 68
13, 51970, Note_on_c, 9, 42, 0
13, 51976, Control_c, 9, 7, 47
13, 52013, Control_c, 9, 7, 46
13, 52050, Control_c, 9, 7, 45
13, 52080, Note_on_c, 9, 42, 90
13, 52086, Control_c, 9, 7, 44
13, 52090, Note_on_c, 9, 42, 0
13, 52123, Control_c, 9, 7, 43
13, 52140, Note_on_c, 9, 42, 90
13, 52150, Note_on_c, 9, 42, 0
13, 52160, Control_c, 9, 7, 42
13, 52196, Control_c, 9, 7, 41
13, 52200, Note_on_c, 9, 42, 89
13, 52210, Note_on_c, 9, 42, 0
13, 52233, Control_c, 9, 7, 40
13, 52260, Note_on_c, 9, 42, 73
13, 52270, Note_on_c, 9, 42, 0
13, 52270, Control_c, 9, 7, 39
13, 52306, Control_c, 9, 7, 38
13, 52320, Note_on_c, 9, 42, 108
13, 52330, Note_on_c, 9, 42, 0
13, 52343, Control_c, 9, 7, 37
13, 52380, Control_c, 9, 7, 36
13, 52380, Note_on_c, 9, 42, 88
13, 52390, Note_on_c, 9, 42, 0
13, 52416, Control_c, 9, 7, 35
13, 52440, Note_on_c, 9, 42, 90
13, 52450, Note_on_c, 9, 42, 0
13, 52453, Control_c, 9, 7, 34
13, 52490, Control_c, 9, 7, 33
13, 52500, Note_on_c, 9, 42, 68
13, 52510, Note_on_c, 9, 42, 0
13, 52526, Control_c, 9, 7, 32
13, 52560, Note_on_c, 9, 42, 111
13, 52563, Control_c, 9, 7, 31
13, 52570, Note_on_c, 9, 42, 0
13, 52600, Control_c, 9, 7, 30
13, 52620, Note_on_c, 9, 42, 90
13, 52630, Note_on_c, 9, 42, 0
13, 52636, Control_c, 9, 7, 29
13, 52673, Control_c, 9, 7, 28
13, 52680, Note_on_c, 9, 42, 91
13, 52690, Note_on_c, 9, 42, 0
13, 52710, Control_c, 9, 7, 27
13, 52740, Note_on_c, 9, 42, 68
13, 52746, Control_c, 9, 7, 26
13, 52750, Note_on_c, 9, 42, 0
13, 52783, Control_c, 9, 7, 25
13, 52800, Note_on_c, 9, 42, 110
13, 52810, Note_on_c, 9, 42, 0
13, 52820, Control_c, 9, 7, 24
13, 52856, Control_c, 9, 7, 23
13, 52860, Note_on_c, 9, 42, 91
13, 52870, Note_on_c, 9, 42, 0
13, 52893, Control_c, 9, 7, 22
13, 52920, Note_on_c, 9, 42, 89
13, 52930, Note_on_c, 9, 42, 0
13, 52930, Control_c, 9, 7, 21
13, 52966, Control_c, 9, 7, 20
13, 52980, Note_on_c, 9, 42, 68
13, 52990, Note_on_c, 9, 42, 0
13, 53003, Control_c, 9, 7, 19
13, 53040, Control_c, 9, 7, 18
13, 53040, Note_on_c, 9, 42, 110
13, 53050, Note_on_c, 9, 42, 0
13, 53076, Control_c, 9, 7, 17
13, 53113, Control_c, 9, 7, 16
13, 53150, Control_c, 9, 7, 15
13, 53186, Control_c, 9, 7, 14
13, 53223, Control_c, 9, 7, 13
13, 53260, Control_c, 9, 7, 12
13, 53280, Note_on_c, 9, 42, 110
13, 53290, Note_on_c, 9, 42, 0
13, 53296, Control_c, 9, 7, 11
13, 53333, Control_c, 9, 7, 10
13, 53340, Note_on_c, 9, 42, 89
13, 53350, Note_on_c, 9, 42, 0
13, 53370, Control_c, 9, 7, 9
13, 53400, Note_on_c, 9, 42, 91
13, 53406, Control_c, 9, 7, 8
13, 53410, Note_on_c, 9, 42, 0
13, 53443, Control_c, 9, 7, 7
13, 53460, Note_on_c, 9, 42, 73
13, 53470, Note_on_c, 9, 42, 0
13, 53480, Control_c, 9, 7, 6
13, 53516, Control_c, 9, 7, 5
13, 53520, Note_on_c, 9, 42, 110
13, 53530, Note_on_c, 9, 42, 0
13, 53553, Control_c, 9, 7, 4
13, 53580, Note_on_c, 9, 42, 88
13, 53590, Note_on_c, 9, 42, 0
13, 53590, Control_c, 9, 7, 3
13, 53626, Control_c, 9, 7, 2
13, 53640, Note_on_c, 9, 42, 91
13, 53650, Note_on_c, 9, 42, 0
13, 53663, Control_c, 9, 7, 1
13, 53700, Control_c, 9, 7, 0
13, 53700, Note_on_c, 9, 42, 67
13, 53710, Note_on_c, 9, 42, 0
13, 53710, End_track
14, 0, Start_track
14, 0, MIDI_port, 0
14, 780, Note_on_c, 9, 46, 88
14, 790, Note_on_c, 9, 46, 0
14, 1740, Note_on_c, 9, 46, 88
14, 1750, Note_on_c, 9, 46, 0
14, 3300, Note_on_c, 9, 46, 71
14, 3310, Note_on_c, 9, 46, 0
14, 3480, Note_on_c, 9, 46, 89
14, 3490, Note_on_c, 9, 46, 0
14, 4440, Note_on_c, 9, 46, 89
14, 4450, Note_on_c, 9, 46, 0
14, 9900, Note_on_c, 9, 46, 89
14, 9910, Note_on_c, 9, 46, 0
14, 10980, Note_on_c, 9, 46, 68
14, 10990, Note_on_c, 9, 46, 0
14, 11580, Note_on_c, 9, 46, 88
14, 11590, Note_on_c, 9, 46, 0
14, 12540, Note_on_c, 9, 46, 88
14, 12550, Note_on_c, 9, 46, 0
14, 13500, Note_on_c, 9, 46, 88
14, 13510, Note_on_c, 9, 46, 0
14, 14460, Note_on_c, 9, 46, 88
14, 14470, Note_on_c, 9, 46, 0
14, 15420, Note_on_c, 9, 46, 88
14, 15430, Note_on_c, 9, 46, 0
14, 16380, Note_on_c, 9, 46, 88
14, 16390, Note_on_c, 9, 46, 0
14, 17880, Note_on_c, 9, 46, 89
14, 17890, Note_on_c, 9, 46, 0
14, 21060, Note_on_c, 9, 46, 73
14, 21070, Note_on_c, 9, 46, 0
14, 22020, Note_on_c, 9, 46, 73
14, 22030, Note_on_c, 9, 46, 0
14, 22980, Note_on_c, 9, 46, 73
14, 22990, Note_on_c, 9, 46, 0
14, 23940, Note_on_c, 9, 46, 73
14, 23950, Note_on_c, 9, 46, 0
14, 24480, Note_on_c, 9, 46, 109
14, 24490, Note_on_c, 9, 46, 0
14, 28800, Note_on_c, 9, 46, 111
14, 28810, Note_on_c, 9, 46, 0
14, 29760, Note_on_c, 9, 46, 111
14, 29770, Note_on_c, 9, 46, 0
14, 33180, Note_on_c, 9, 46, 91
14, 33190, Note_on_c, 9, 46, 0
14, 33420, Note_on_c, 9, 46, 91
14, 33430, Note_on_c, 9, 46, 0
14, 33960, Note_on_c, 9, 46, 90
14, 33970, Note_on_c, 9, 46, 0
14, 34140, Note_on_c, 9, 46, 91
14, 34150, Note_on_c, 9, 46, 0
14, 34380, Note_on_c, 9, 46, 91
14, 34390, Note_on_c, 9, 46, 0
14, 34920, Note_on_c, 9, 46, 90
14, 34930, Note_on_c, 9, 46, 0
14, 35760, Note_on_c, 9, 46, 90
14, 35770, Note_on_c, 9, 46, 0
14, 35880, Note_on_c, 9, 46, 90
14, 35890, Note_on_c, 9, 46, 0
14, 40740, Note_on_c, 9, 46, 71
14, 40750, Note_on_c, 9, 46, 0
14, 41700, Note_on_c, 9, 46, 71
14, 41710, Note_on_c, 9, 46, 0
14, 42660, Note_on_c, 9, 46, 71
14, 42670, Note_on_c, 9, 46, 0
14, 45900, Note_on_c, 9, 46, 90
14, 45910, Note_on_c, 9, 46, 0
14, 46020, Note_on_c, 9, 46, 73
14, 46030, Note_on_c, 9, 46, 0
14, 46260, Note_on_c, 9, 46, 109
14, 46270, Note_on_c, 9, 46, 0
14, 46860, Note_on_c, 9, 46, 90
14, 46870, Note_on_c, 9, 46, 0
14, 46980, Note_on_c, 9, 46, 73
14, 46990, Note_on_c, 9, 46, 0
14, 47220, Note_on_c, 9, 46, 109
14, 47230, Note_on_c, 9, 46, 0
14, 48180, Note_on_c, 9, 46, 109
14, 48190, Note_on_c, 9, 46, 0
14, 48780, Note_on_c, 9, 46, 90
14, 48790, Note_on_c, 9, 46, 0
14, 48900, Note_on_c, 9, 46, 73
14, 48910, Note_on_c, 9, 46, 0
14, 49140, Note_on_c, 9, 46, 109
14, 49150, Note_on_c, 9, 46, 0
14, 50400, Control_c, 9, 7, 90
14, 50436, Control_c, 9, 7, 89
14, 50460, Note_on_c, 9, 46, 91
14, 50470, Note_on_c, 9, 46, 0
14, 50473, Control_c, 9, 7, 88
14, 50510, Control_c, 9, 7, 87
14, 50546, Control_c, 9, 7, 86
14, 50583, Control_c, 9, 7, 85
14, 50620, Control_c, 9, 7, 84
14, 50656, Control_c, 9, 7, 83
14, 50693, Control_c, 9, 7, 82
14, 50730, Control_c, 9, 7, 81
14, 50766, Control_c, 9, 7, 80
14, 50803, Control_c, 9, 7, 79
14, 50820, Note_on_c, 9, 46, 71
14, 50830, Note_on_c, 9, 46, 0
14, 50840, Control_c, 9, 7, 78
14, 50876, Control_c, 9, 7, 77
14, 50913, Control_c, 9, 7, 76
14, 50950, Control_c, 9, 7, 75
14, 50986, Control_c, 9, 7, 74
14, 51023, Control_c, 9, 7, 73
14, 51060, Control_c, 9, 7, 72
14, 51060, Note_on_c, 9, 46, 109
14, 51070, Note_on_c, 9, 46, 0
14, 51096, Control_c, 9, 7, 71
14, 51133, Control_c, 9, 7, 70
14, 51170, Control_c, 9, 7, 69
14, 51206, Control_c, 9, 7, 68
14, 51243, Control_c, 9, 7, 67
14, 51280, Control_c, 9, 7, 66
14, 51316, Control_c, 9, 7, 65
14, 51353, Control_c, 9, 7, 64
14, 51390, Control_c, 9, 7, 63
14, 51420, Note_on_c, 9, 46, 91
14, 51426, Control_c, 9, 7, 62
14, 51430, Note_on_c, 9, 46, 0
14, 51463, Control_c, 9, 7, 61
14, 51500, Control_c, 9, 7, 60
14, 51536, Control_c, 9, 7, 59
14, 51573, Control_c, 9, 7, 58
14, 51610, Control_c, 9, 7, 57
14, 51646, Control_c, 9, 7, 56
14, 51683, Control_c, 9, 7, 55
14, 51720, Control_c, 9, 7, 54
14, 51756, Control_c, 9, 7, 53
14, 51793, Control_c, 9, 7, 52
14, 51830, Control_c, 9, 7, 51
14, 51866, Control_c, 9, 7, 50
14, 51903, Control_c, 9, 7, 49
14, 51940, Control_c, 9, 7, 48
14, 51976, Control_c, 9, 7, 47
14, 52013, Control_c, 9, 7, 46
14, 52020, Note_on_c, 9, 46, 109
14, 52030, Note_on_c, 9, 46, 0
14, 52050, Control_c, 9, 7, 45
14, 52086, Control_c, 9, 7, 44
14, 52123, Control_c, 9, 7, 43
14, 52160, Control_c, 9, 7, 42
14, 52196, Control_c, 9, 7, 41
14, 52233, Control_c, 9, 7, 40
14, 52270, Control_c, 9, 7, 39
14, 52306, Control_c, 9, 7, 38
14, 52343, Control_c, 9, 7, 37
14, 52380, Control_c, 9, 7, 36
14, 52416, Control_c, 9, 7, 35
14, 52453, Control_c, 9, 7, 34
14, 52490, Control_c, 9, 7, 33
14, 52526, Control_c, 9, 7, 32
14, 52563, Control_c, 9, 7, 31
14, 52600, Control_c, 9, 7, 30
14, 52636, Control_c, 9, 7, 29
14, 52673, Control_c, 9, 7, 28
14, 52710, Control_c, 9, 7, 27
14, 52746, Control_c, 9, 7, 26
14, 52783, Control_c, 9, 7, 25
14, 52820, Control_c, 9, 7, 24
14, 52856, Control_c, 9, 7, 23
14, 52893, Control_c, 9, 7, 22
14, 52930, Control_c, 9, 7, 21
14, 52966, Control_c, 9, 7, 20
14, 53003, Control_c, 9, 7, 19
14, 53040, Control_c, 9, 7, 18
14, 53076, Control_c, 9, 7, 17
14, 53113, Control_c, 9, 7, 16
14, 53150, Control_c, 9, 7, 15
14, 53186, Control_c, 9, 7, 14
14, 53223, Control_c, 9, 7, 13
14, 53260, Control_c, 9, 7, 12
14, 53296, Control_c, 9, 7, 11
14, 53333, Control_c, 9, 7, 10
14, 53370, Control_c, 9, 7, 9
14, 53406, Control_c, 9, 7, 8
14, 53443, Control_c, 9, 7, 7
14, 53480, Control_c, 9, 7, 6
14, 53516, Control_c, 9, 7, 5
14, 53553, Control_c, 9, 7, 4
14, 53590, Control_c, 9, 7, 3
14, 53626, Control_c, 9, 7, 2
14, 53663, Control_c, 9, 7, 1
14, 53700, Control_c, 9, 7, 0
14, 53700, End_track
15, 0, Start_track
15, 0, MIDI_port, 0
15, 1439, Note_on_c, 9, 57, 108
15, 1440, Note_on_c, 9, 57, 0
15, 4319, Note_on_c, 9, 57, 108
15, 4320, Note_on_c, 9, 57, 0
15, 8159, Note_on_c, 9, 57, 111
15, 8160, Note_on_c, 9, 57, 0
15, 11999, Note_on_c, 9, 57, 108
15, 12000, Note_on_c, 9, 57, 0
15, 14399, Note_on_c, 9, 57, 109
15, 14400, Note_on_c, 9, 57, 0
15, 18239, Note_on_c, 9, 57, 110
15, 18240, Note_on_c, 9, 57, 0
15, 20639, Note_on_c, 9, 57, 109
15, 20640, Note_on_c, 9, 57, 0
15, 28799, Note_on_c, 9, 57, 110
15, 28800, Note_on_c, 9, 57, 0
15, 30239, Note_on_c, 9, 57, 109
15, 30240, Note_on_c, 9, 57, 0
15, 36959, Note_on_c, 9, 57, 110
15, 36960, Note_on_c, 9, 57, 0
15, 41220, Note_on_c, 9, 57, 109
15, 41230, Note_on_c, 9, 57, 0
15, 41279, Note_on_c, 9, 57, 108
15, 41280, Note_on_c, 9, 57, 0
15, 43679, Note_on_c, 9, 57, 111
15, 43680, Note_on_c, 9, 57, 0
15, 47999, Note_on_c, 9, 57, 108
15, 48000, Note_on_c, 9, 57, 0
15, 50400, Control_c, 9, 7, 90
15, 50436, Control_c, 9, 7, 89
15, 50473, Control_c, 9, 7, 88
15, 50510, Control_c, 9, 7, 87
15, 50546, Control_c, 9, 7, 86
15, 50583, Control_c, 9, 7, 85
15, 50620, Control_c, 9, 7, 84
15, 50656, Control_c, 9, 7, 83
15, 50693, Control_c, 9, 7, 82
15, 50730, Control_c, 9, 7, 81
15, 50766, Control_c, 9, 7, 80
15, 50803, Control_c, 9, 7, 79
15, 50840, Control_c, 9, 7, 78
15, 50876, Control_c, 9, 7, 77
15, 50913, Control_c, 9, 7, 76
15, 50950, Control_c, 9, 7, 75
15, 50986, Control_c, 9, 7, 74
15, 51023, Control_c, 9, 7, 73
15, 51060, Control_c, 9, 7, 72
15, 51096, Control_c, 9, 7, 71
15, 51133, Control_c, 9, 7, 70
15, 51170, Control_c, 9, 7, 69
15, 51206, Control_c, 9, 7, 68
15, 51243, Control_c, 9, 7, 67
15, 51280, Control_c, 9, 7, 66
15, 51316, Control_c, 9, 7, 65
15, 51353, Control_c, 9, 7, 64
15, 51390, Control_c, 9, 7, 63
15, 51426, Control_c, 9, 7, 62
15, 51463, Control_c, 9, 7, 61
15, 51500, Control_c, 9, 7, 60
15, 51536, Control_c, 9, 7, 59
15, 51573, Control_c, 9, 7, 58
15, 51610, Control_c, 9, 7, 57
15, 51646, Control_c, 9, 7, 56
15, 51683, Control_c, 9, 7, 55
15, 51720, Control_c, 9, 7, 54
15, 51756, Control_c, 9, 7, 53
15, 51793, Control_c, 9, 7, 52
15, 51830, Control_c, 9, 7, 51
15, 51839, Note_on_c, 9, 57, 110
15, 51840, Note_on_c, 9, 57, 0
15, 51866, Control_c, 9, 7, 50
15, 51903, Control_c, 9, 7, 49
15, 51940, Control_c, 9, 7, 48
15, 51976, Control_c, 9, 7, 47
15, 52013, Control_c, 9, 7, 46
15, 52050, Control_c, 9, 7, 45
15, 52086, Control_c, 9, 7, 44
15, 52123, Control_c, 9, 7, 43
15, 52160, Control_c, 9, 7, 42
15, 52196, Control_c, 9, 7, 41
15, 52233, Control_c, 9, 7, 40
15, 52270, Control_c, 9, 7, 39
15, 52306, Control_c, 9, 7, 38
15, 52343, Control_c, 9, 7, 37
15, 52380, Control_c, 9, 7, 36
15, 52416, Control_c, 9, 7, 35
15, 52453, Control_c, 9, 7, 34
15, 52490, Control_c, 9, 7, 33
15, 52526, Control_c, 9, 7, 32
15, 52563, Control_c, 9, 7, 31
15, 52600, Control_c, 9, 7, 30
15, 52636, Control_c, 9, 7, 29
15, 52673, Control_c, 9, 7, 28
15, 52710, Control_c, 9, 7, 27
15, 52746, Control_c, 9, 7, 26
15, 52783, Control_c, 9, 7, 25
15, 52820, Control_c, 9, 7, 24
15, 52856, Control_c, 9, 7, 23
15, 52893, Control_c, 9, 7, 22
15, 52930, Control_c, 9, 7, 21
15, 52966, Control_c, 9, 7, 20
15, 53003, Control_c, 9, 7, 19
15, 53040, Control_c, 9, 7, 18
15, 53076, Control_c, 9, 7, 17
15, 53113, Control_c, 9, 7, 16
15, 53150, Control_c, 9, 7, 15
15, 53186, Control_c, 9, 7, 14
15, 53223, Control_c, 9, 7, 13
15, 53260, Control_c, 9, 7, 12
15, 53279, Note_on_c, 9, 57, 108
15, 53280, Note_on_c, 9, 57, 0
15, 53296, Control_c, 9, 7, 11
15, 53333, Control_c, 9, 7, 10
15, 53370, Control_c, 9, 7, 9
15, 53406, Control_c, 9, 7, 8
15, 53443, Control_c, 9, 7, 7
15, 53480, Control_c, 9, 7, 6
15, 53516, Control_c, 9, 7, 5
15, 53553, Control_c, 9, 7, 4
15, 53590, Control_c, 9, 7, 3
15, 53626, Control_c, 9, 7, 2
15, 53663, Control_c, 9, 7, 1
15, 53700, Control_c, 9, 7, 0
15, 53700, End_track
16, 0, Start_track
16, 0, MIDI_port, 0
16, 8070, Note_on_c, 9, 50, 88
16, 8080, Note_on_c, 9, 50, 0
16, 14280, Note_on_c, 9, 50, 111
16, 14290, Note_on_c, 9, 50, 0
16, 18120, Note_on_c, 9, 50, 109
16, 18130, Note_on_c, 9, 50, 0
16, 20400, Note_on_c, 9, 50, 88
16, 20410, Note_on_c, 9, 50, 0
16, 30060, Note_on_c, 9, 50, 68
16, 30070, Note_on_c, 9, 50, 0
16, 30120, Note_on_c, 9, 50, 110
16, 30130, Note_on_c, 9, 50, 0
16, 41190, Note_on_c, 9, 50, 70
16, 41200, Note_on_c, 9, 50, 0
16, 41220, Note_on_c, 9, 50, 111
16, 41230, Note_on_c, 9, 50, 0
16, 47520, Note_on_c, 9, 50, 110
16, 47530, Note_on_c, 9, 50, 0
16, 47730, Note_on_c, 9, 50, 70
16, 47740, Note_on_c, 9, 50, 0
16, 47850, Note_on_c, 9, 50, 70
16, 47860, Note_on_c, 9, 50, 0
16, 47970, Note_on_c, 9, 50, 70
16, 47980, Note_on_c, 9, 50, 0
16, 50400, Control_c, 9, 7, 90
16, 50436, Control_c, 9, 7, 89
16, 50473, Control_c, 9, 7, 88
16, 50510, Control_c, 9, 7, 87
16, 50546, Control_c, 9, 7, 86
16, 50583, Control_c, 9, 7, 85
16, 50620, Control_c, 9, 7, 84
16, 50656, Control_c, 9, 7, 83
16, 50693, Control_c, 9, 7, 82
16, 50730, Control_c, 9, 7, 81
16, 50766, Control_c, 9, 7, 80
16, 50803, Control_c, 9, 7, 79
16, 50840, Control_c, 9, 7, 78
16, 50876, Control_c, 9, 7, 77
16, 50913, Control_c, 9, 7, 76
16, 50950, Control_c, 9, 7, 75
16, 50986, Control_c, 9, 7, 74
16, 51023, Control_c, 9, 7, 73
16, 51060, Control_c, 9, 7, 72
16, 51096, Control_c, 9, 7, 71
16, 51133, Control_c, 9, 7, 70
16, 51170, Control_c, 9, 7, 69
16, 51206, Control_c, 9, 7, 68
16, 51243, Control_c, 9, 7, 67
16, 51280, Control_c, 9, 7, 66
16, 51316, Control_c, 9, 7, 65
16, 51353, Control_c, 9, 7, 64
16, 51390, Control_c, 9, 7, 63
16, 51426, Control_c, 9, 7, 62
16, 51463, Control_c, 9, 7, 61
16, 51500, Control_c, 9, 7, 60
16, 51536, Control_c, 9, 7, 59
16, 51573, Control_c, 9, 7, 58
16, 51610, Control_c, 9, 7, 57
16, 51646, Control_c, 9, 7, 56
16, 51683, Control_c, 9, 7, 55
16, 51720, Control_c, 9, 7, 54
16, 51730, Note_on_c, 9, 50, 89
16, 51740, Note_on_c, 9, 50, 0
16, 51756, Control_c, 9, 7, 53
16, 51793, Control_c, 9, 7, 52
16, 51830, Control_c, 9, 7, 51
16, 51866, Control_c, 9, 7, 50
16, 51903, Control_c, 9, 7, 49
16, 51940, Control_c, 9, 7, 48
16, 51976, Control_c, 9, 7, 47
16, 52013, Control_c, 9, 7, 46
16, 52050, Control_c, 9, 7, 45
16, 52086, Control_c, 9, 7, 44
16, 52123, Control_c, 9, 7, 43
16, 52160, Control_c, 9, 7, 42
16, 52196, Control_c, 9, 7, 41
16, 52233, Control_c, 9, 7, 40
16, 52270, Control_c, 9, 7, 39
16, 52306, Control_c, 9, 7, 38
16, 52343, Control_c, 9, 7, 37
16, 52380, Control_c, 9, 7, 36
16, 52416, Control_c, 9, 7, 35
16, 52453, Control_c, 9, 7, 34
16, 52490, Control_c, 9, 7, 33
16, 52526, Control_c, 9, 7, 32
16, 52563, Control_c, 9, 7, 31
16, 52600, Control_c, 9, 7, 30
16, 52636, Control_c, 9, 7, 29
16, 52673, Control_c, 9, 7, 28
16, 52710, Control_c, 9, 7, 27
16, 52746, Control_c, 9, 7, 26
16, 52783, Control_c, 9, 7, 25
16, 52820, Control_c, 9, 7, 24
16, 52856, Control_c, 9, 7, 23
16, 52893, Control_c, 9, 7, 22
16, 52930, Control_c, 9, 7, 21
16, 52966, Control_c, 9, 7, 20
16, 53003, Control_c, 9, 7, 19
16, 53040, Control_c, 9, 7, 18
16, 53076, Control_c, 9, 7, 17
16, 53113, Control_c, 9, 7, 16
16, 53150, Control_c, 9, 7, 15
16, 53186, Control_c, 9, 7, 14
16, 53190, Note_on_c, 9, 50, 89
16, 53200, Note_on_c, 9, 50, 0
16, 53223, Control_c, 9, 7, 13
16, 53260, Control_c, 9, 7, 12
16, 53296, Control_c, 9, 7, 11
16, 53333, Control_c, 9, 7, 10
16, 53370, Control_c, 9, 7, 9
16, 53406, Control_c, 9, 7, 8
16, 53443, Control_c, 9, 7, 7
16, 53480, Control_c, 9, 7, 6
16, 53516, Control_c, 9, 7, 5
16, 53553, Control_c, 9, 7, 4
16, 53590, Control_c, 9, 7, 3
16, 53626, Control_c, 9, 7, 2
16, 53663, Control_c, 9, 7, 1
16, 53700, Control_c, 9, 7, 0
16, 53700, End_track
17, 0, Start_track
17, 0, MIDI_port, 0
17, 8100, Note_on_c, 9, 48, 88
17, 8110, Note_on_c, 9, 48, 0
17, 14310, Note_on_c, 9, 48, 89
17, 14320, Note_on_c, 9, 48, 0
17, 18150, Note_on_c, 9, 48, 70
17, 18160, Note_on_c, 9, 48, 0
17, 20430, Note_on_c, 9, 48, 70
17, 20440, Note_on_c, 9, 48, 0
17, 47640, Note_on_c, 9, 48, 111
17, 47650, Note_on_c, 9, 48, 0
17, 47760, Note_on_c, 9, 48, 108
17, 47770, Note_on_c, 9, 48, 0
17, 47770, End_track
0, 0, End_of_file
