0, 0, Header, 1, 6, 720
1, 0, Start_track
1, 0, Tempo, 652173
1, 0, End_track
2, 0, Start_track
2, 0, Control_c, 0, 7, 127
2, 0, Program_c, 0, 29
2, 0, Control_c, 0, 101, 0
2, 0, Control_c, 0, 100, 0
2, 0, Control_c, 0, 6, 24
2, 0, Control_c, 1, 7, 127
2, 0, Program_c, 1, 29
2, 0, Control_c, 1, 101, 0
2, 0, Control_c, 1, 100, 0
2, 0, Control_c, 1, 6, 24
2, 0, Note_on_c, 0, 40, 104
2, 0, Note_on_c, 0, 45, 104
2, 0, Note_on_c, 0, 50, 104
2, 0, Note_on_c, 0, 55, 104
2, 15, Note_off_c, 0, 55, 0
2, 15, Note_off_c, 0, 50, 0
2, 15, Note_off_c, 0, 45, 0
2, 15, Note_off_c, 0, 40, 0
2, 360, Note_on_c, 0, 40, 104
2, 360, Note_on_c, 0, 45, 104
2, 360, Note_on_c, 0, 50, 104
2, 360, Note_on_c, 0, 55, 104
2, 375, Note_off_c, 0, 55, 0
2, 375, Note_off_c, 0, 50, 0
2, 375, Note_off_c, 0, 45, 0
2, 375, Note_off_c, 0, 40, 0
2, 720, Note_on_c, 0, 40, 104
2, 720, Note_on_c, 0, 45, 104
2, 720, Note_on_c, 0, 50, 104
2, 720, Note_on_c, 0, 55, 104
2, 735, Note_off_c, 0, 55, 0
2, 735, Note_off_c, 0, 50, 0
2, 735, Note_off_c, 0, 45, 0
2, 735, Note_off_c, 0, 40, 0
2, 1080, Note_on_c, 0, 40, 104
2, 1080, Note_on_c, 0, 45, 104
2, 1080, Note_on_c, 0, 50, 104
2, 1080, Note_on_c, 0, 55, 104
2, 1095, Note_off_c, 0, 55, 0
2, 1095, Note_off_c, 0, 50, 0
2, 1095, Note_off_c, 0, 45, 0
2, 1095, Note_off_c, 0, 40, 0
2, 1440, Note_on_c, 0, 40, 104
2, 1440, Note_on_c, 0, 45, 104
2, 1440, Note_on_c, 0, 50, 104
2, 1440, Note_on_c, 0, 55, 104
2, 1455, Note_off_c, 0, 55, 0
2, 1455, Note_off_c, 0, 50, 0
2, 1455, Note_off_c, 0, 45, 0
2, 1455, Note_off_c, 0, 40, 0
2, 1800, Note_on_c, 0, 40, 104
2, 1800, Note_on_c, 0, 45, 104
2, 1800, Note_on_c, 0, 50, 104
2, 1800, Note_on_c, 0, 55, 104
2, 1815, Note_off_c, 0, 55, 0
2, 1815, Note_off_c, 0, 50, 0
2, 1815, Note_off_c, 0, 45, 0
2, 1815, Note_off_c, 0, 40, 0
2, 2160, Note_on_c, 0, 40, 104
2, 2160, Note_on_c, 0, 45, 104
2, 2160, Note_on_c, 0, 50, 104
2, 2160, Note_on_c, 0, 55, 104
2, 2175, Note_off_c, 0, 55, 0
2, 2175, Note_off_c, 0, 50, 0
2, 2175, Note_off_c, 0, 45, 0
2, 2175, Note_off_c, 0, 40, 0
2, 2520, Note_on_c, 0, 40, 104
2, 2520, Note_on_c, 0, 45, 104
2, 2520, Note_on_c, 0, 50, 104
2, 2520, Note_on_c, 0, 55, 104
2, 2535, Note_off_c, 0, 55, 0
2, 2535, Note_off_c, 0, 50, 0
2, 2535, Note_off_c, 0, 45, 0
2, 2535, Note_off_c, 0, 40, 0
2, 2880, Note_on_c, 0, 40, 104
2, 2880, Note_on_c, 0, 45, 104
2, 2880, Note_on_c, 0, 50, 104
2, 2880, Note_on_c, 0, 55, 104
2, 2895, Note_off_c, 0, 55, 0
2, 2895, Note_off_c, 0, 50, 0
2, 2895, Note_off_c, 0, 45, 0
2, 2895, Note_off_c, 0, 40, 0
2, 3240, Note_on_c, 0, 40, 104
2, 3240, Note_on_c, 0, 45, 104
2, 3240, Note_on_c, 0, 50, 104
2, 3240, Note_on_c, 0, 55, 104
2, 3255, Note_off_c, 0, 55, 0
2, 3255, Note_off_c, 0, 50, 0
2, 3255, Note_off_c, 0, 45, 0
2, 3255, Note_off_c, 0, 40, 0
2, 3600, Note_on_c, 0, 40, 104
2, 3600, Note_on_c, 0, 45, 104
2, 3600, Note_on_c, 0, 50, 104
2, 3600, Note_on_c, 0, 55, 104
2, 3615, Note_off_c, 0, 55, 0
2, 3615, Note_off_c, 0, 50, 0
2, 3615, Note_off_c, 0, 45, 0
2, 3615, Note_off_c, 0, 40, 0
2, 3960, Note_on_c, 0, 40, 104
2, 3960, Note_on_c, 0, 45, 104
2, 3960, Note_on_c, 0, 50, 104
2, 3960, Note_on_c, 0, 55, 104
2, 3975, Note_off_c, 0, 55, 0
2, 3975, Note_off_c, 0, 50, 0
2, 3975, Note_off_c, 0, 45, 0
2, 3975, Note_off_c, 0, 40, 0
2, 4320, Note_on_c, 0, 40, 104
2, 4320, Note_on_c, 0, 45, 104
2, 4320, Note_on_c, 0, 50, 104
2, 4320, Note_on_c, 0, 55, 104
2, 4335, Note_off_c, 0, 55, 0
2, 4335, Note_off_c, 0, 50, 0
2, 4335, Note_off_c, 0, 45, 0
2, 4335, Note_off_c, 0, 40, 0
2, 4680, Note_on_c, 0, 40, 104
2, 4680, Note_on_c, 0, 45, 104
2, 4680, Note_on_c, 0, 50, 104
2, 4680, Note_on_c, 0, 55, 104
2, 4695, Note_off_c, 0, 55, 0
2, 4695, Note_off_c, 0, 50, 0
2, 4695, Note_off_c, 0, 45, 0
2, 4695, Note_off_c, 0, 40, 0
2, 5040, Note_on_c, 0, 40, 104
2, 5040, Note_on_c, 0, 45, 104
2, 5040, Note_on_c, 0, 50, 104
2, 5040, Note_on_c, 0, 55, 104
2, 5055, Note_off_c, 0, 55, 0
2, 5055, Note_off_c, 0, 50, 0
2, 5055, Note_off_c, 0, 45, 0
2, 5055, Note_off_c, 0, 40, 0
2, 5400, Note_on_c, 0, 40, 104
2, 5400, Note_on_c, 0, 45, 104
2, 5400, Note_on_c, 0, 50, 104
2, 5400, Note_on_c, 0, 55, 104
2, 5415, Note_off_c, 0, 55, 0
2, 5415, Note_off_c, 0, 50, 0
2, 5415, Note_off_c, 0, 45, 0
2, 5415, Note_off_c, 0, 40, 0
2, 5760, Note_on_c, 1, 52, 104
2, 5796, Pitch_bend_c, 1, 7924
2, 5832, Pitch_bend_c, 1, 7660
2, 5868, Pitch_bend_c, 1, 7396
2, 5904, Pitch_bend_c, 1, 7132
2, 5940, Pitch_bend_c, 1, 6868
2, 5976, Pitch_bend_c, 1, 6604
2, 6012, Pitch_bend_c, 1, 6340
2, 6048, Pitch_bend_c, 1, 6076
2, 6084, Pitch_bend_c, 1, 5812
2, 6120, Note_off_c, 1, 52, 0
2, 6120, Pitch_bend_c, 1, 8192
2, 6120, Note_on_c, 0, 45, 104
2, 6120, Note_on_c, 0, 52, 104
2, 6480, Note_off_c, 0, 52, 0
2, 6480, Note_off_c, 0, 45, 0
2, 6480, Note_on_c, 0, 45, 104
2, 6480, Note_on_c, 0, 52, 104
2, 6840, Note_off_c, 0, 52, 0
2, 6840, Note_off_c, 0, 45, 0
2, 6840, Note_on_c, 0, 45, 104
2, 6840, Note_on_c, 0, 52, 104
2, 7200, Note_off_c, 0, 52, 0
2, 7200, Note_off_c, 0, 45, 0
2, 7200, Note_on_c, 1, 52, 104
2, 7236, Pitch_bend_c, 1, 7924
2, 7272, Pitch_bend_c, 1, 7660
2, 7308, Pitch_bend_c, 1, 7396
2, 7344, Pitch_bend_c, 1, 7132
2, 7380, Pitch_bend_c, 1, 6868
2, 7416, Pitch_bend_c, 1, 6604
2, 7452, Pitch_bend_c, 1, 6340
2, 7488, Pitch_bend_c, 1, 6076
2, 7524, Pitch_bend_c, 1, 5812
2, 7560, Note_off_c, 1, 52, 0
2, 7560, Pitch_bend_c, 1, 8192
2, 7560, Note_on_c, 0, 45, 104
2, 7560, Note_on_c, 0, 52, 104
2, 7920, Note_off_c, 0, 52, 0
2, 7920, Note_off_c, 0, 45, 0
2, 7920, Note_on_c, 0, 45, 104
2, 7920, Note_on_c, 0, 52, 104
2, 8280, Note_off_c, 0, 52, 0
2, 8280, Note_off_c, 0, 45, 0
2, 8280, Note_on_c, 0, 45, 104
2, 8280, Note_on_c, 0, 52, 104
2, 8640, Note_off_c, 0, 52, 0
2, 8640, Note_off_c, 0, 45, 0
2, 8640, Note_on_c, 1, 52, 104
2, 8676, Pitch_bend_c, 1, 7924
2, 8712, Pitch_bend_c, 1, 7660
2, 8748, Pitch_bend_c, 1, 7396
2, 8784, Pitch_bend_c, 1, 7132
2, 8820, Pitch_bend_c, 1, 6868
2, 8856, Pitch_bend_c, 1, 6604
2, 8892, Pitch_bend_c, 1, 6340
2, 8928, Pitch_bend_c, 1, 6076
2, 8964, Pitch_bend_c, 1, 5812
2, 9000, Note_off_c, 1, 52, 0
2, 9000, Pitch_bend_c, 1, 8192
2, 9000, Note_on_c, 0, 45, 104
2, 9000, Note_on_c, 0, 52, 104
2, 9360, Note_off_c, 0, 52, 0
2, 9360, Note_off_c, 0, 45, 0
2, 9360, Note_on_c, 0, 45, 104
2, 9360, Note_on_c, 0, 52, 104
2, 9720, Note_off_c, 0, 52, 0
2, 9720, Note_off_c, 0, 45, 0
2, 9720, Note_on_c, 0, 45, 104
2, 9720, Note_on_c, 0, 52, 104
2, 10080, Note_off_c, 0, 52, 0
2, 10080, Note_off_c, 0, 45, 0
2, 10080, Note_on_c, 1, 52, 104
2, 10116, Pitch_bend_c, 1, 7924
2, 10152, Pitch_bend_c, 1, 7660
2, 10188, Pitch_bend_c, 1, 7396
2, 10224, Pitch_bend_c, 1, 7132
2, 10260, Pitch_bend_c, 1, 6868
2, 10296, Pitch_bend_c, 1, 6604
2, 10332, Pitch_bend_c, 1, 6340
2, 10368, Pitch_bend_c, 1, 6076
2, 10404, Pitch_bend_c, 1, 5812
2, 10440, Note_off_c, 1, 52, 0
2, 10440, Pitch_bend_c, 1, 8192
2, 10440, Note_on_c, 0, 45, 104
2, 10440, Note_on_c, 0, 52, 104
2, 10800, Note_off_c, 0, 52, 0
2, 10800, Note_off_c, 0, 45, 0
2, 10800, Note_on_c, 0, 45, 104
2, 10800, Note_on_c, 0, 52, 104
2, 11160, Note_off_c, 0, 52, 0
2, 11160, Note_off_c, 0, 45, 0
2, 11160, Note_on_c, 0, 45, 104
2, 11160, Note_on_c, 0, 52, 104
2, 11520, Note_off_c, 0, 52, 0
2, 11520, Note_off_c, 0, 45, 0
2, 11520, Note_on_c, 1, 52, 104
2, 11556, Pitch_bend_c, 1, 7924
2, 11592, Pitch_bend_c, 1, 7660
2, 11628, Pitch_bend_c, 1, 7396
2, 11664, Pitch_bend_c, 1, 7132
2, 11700, Pitch_bend_c, 1, 6868
2, 11736, Pitch_bend_c, 1, 6604
2, 11772, Pitch_bend_c, 1, 6340
2, 11808, Pitch_bend_c, 1, 6076
2, 11844, Pitch_bend_c, 1, 5812
2, 11880, Note_off_c, 1, 52, 0
2, 11880, Pitch_bend_c, 1, 8192
2, 11880, Note_on_c, 0, 45, 104
2, 11880, Note_on_c, 0, 52, 104
2, 12240, Note_off_c, 0, 52, 0
2, 12240, Note_off_c, 0, 45, 0
2, 12240, Note_on_c, 0, 45, 104
2, 12240, Note_on_c, 0, 52, 104
2, 12600, Note_off_c, 0, 52, 0
2, 12600, Note_off_c, 0, 45, 0
2, 12600, Note_on_c, 0, 45, 104
2, 12600, Note_on_c, 0, 52, 104
2, 12960, Note_off_c, 0, 52, 0
2, 12960, Note_off_c, 0, 45, 0
2, 12960, Note_on_c, 1, 52, 104
2, 12996, Pitch_bend_c, 1, 7924
2, 13032, Pitch_bend_c, 1, 7660
2, 13068, Pitch_bend_c, 1, 7396
2, 13104, Pitch_bend_c, 1, 7132
2, 13140, Pitch_bend_c, 1, 6868
2, 13176, Pitch_bend_c, 1, 6604
2, 13212, Pitch_bend_c, 1, 6340
2, 13248, Pitch_bend_c, 1, 6076
2, 13284, Pitch_bend_c, 1, 5812
2, 13320, Note_off_c, 1, 52, 0
2, 13320, Pitch_bend_c, 1, 8192
2, 13320, Note_on_c, 0, 45, 104
2, 13320, Note_on_c, 0, 52, 104
2, 13680, Note_off_c, 0, 52, 0
2, 13680, Note_off_c, 0, 45, 0
2, 13680, Note_on_c, 0, 45, 104
2, 13680, Note_on_c, 0, 52, 104
2, 14040, Note_off_c, 0, 52, 0
2, 14040, Note_off_c, 0, 45, 0
2, 14040, Note_on_c, 0, 45, 104
2, 14040, Note_on_c, 0, 52, 104
2, 14400, Note_off_c, 0, 52, 0
2, 14400, Note_off_c, 0, 45, 0
2, 14400, Note_on_c, 1, 52, 104
2, 14436, Pitch_bend_c, 1, 7924
2, 14472, Pitch_bend_c, 1, 7660
2, 14508, Pitch_bend_c, 1, 7396
2, 14544, Pitch_bend_c, 1, 7132
2, 14580, Pitch_bend_c, 1, 6868
2, 14616, Pitch_bend_c, 1, 6604
2, 14652, Pitch_bend_c, 1, 6340
2, 14688, Pitch_bend_c, 1, 6076
2, 14724, Pitch_bend_c, 1, 5812
2, 14760, Note_off_c, 1, 52, 0
2, 14760, Pitch_bend_c, 1, 8192
2, 14760, Note_on_c, 0, 45, 104
2, 14760, Note_on_c, 0, 52, 104
2, 15120, Note_off_c, 0, 52, 0
2, 15120, Note_off_c, 0, 45, 0
2, 15120, Note_on_c, 0, 45, 104
2, 15120, Note_on_c, 0, 52, 104
2, 15480, Note_off_c, 0, 52, 0
2, 15480, Note_off_c, 0, 45, 0
2, 15480, Note_on_c, 0, 45, 104
2, 15480, Note_on_c, 0, 52, 104
2, 15840, Note_off_c, 0, 52, 0
2, 15840, Note_off_c, 0, 45, 0
2, 15840, Note_on_c, 1, 52, 104
2, 15876, Pitch_bend_c, 1, 7924
2, 15912, Pitch_bend_c, 1, 7660
2, 15948, Pitch_bend_c, 1, 7396
2, 15984, Pitch_bend_c, 1, 7132
2, 16020, Pitch_bend_c, 1, 6868
2, 16056, Pitch_bend_c, 1, 6604
2, 16092, Pitch_bend_c, 1, 6340
2, 16128, Pitch_bend_c, 1, 6076
2, 16164, Pitch_bend_c, 1, 5812
2, 16200, Note_off_c, 1, 52, 0
2, 16200, Pitch_bend_c, 1, 8192
2, 16200, Note_on_c, 0, 45, 104
2, 16200, Note_on_c, 0, 52, 104
2, 16560, Note_off_c, 0, 52, 0
2, 16560, Note_off_c, 0, 45, 0
2, 16560, Note_on_c, 0, 45, 104
2, 16560, Note_on_c, 0, 52, 104
2, 16920, Note_off_c, 0, 52, 0
2, 16920, Note_off_c, 0, 45, 0
2, 16920, Note_on_c, 0, 45, 104
2, 16920, Note_on_c, 0, 52, 104
2, 17280, Note_off_c, 0, 52, 0
2, 17280, Note_off_c, 0, 45, 0
2, 17280, Note_on_c, 1, 52, 104
2, 17316, Pitch_bend_c, 1, 7924
2, 17352, Pitch_bend_c, 1, 7660
2, 17388, Pitch_bend_c, 1, 7396
2, 17424, Pitch_bend_c, 1, 7132
2, 17460, Pitch_bend_c, 1, 6868
2, 17496, Pitch_bend_c, 1, 6604
2, 17532, Pitch_bend_c, 1, 6340
2, 17568, Pitch_bend_c, 1, 6076
2, 17604, Pitch_bend_c, 1, 5812
2, 17640, Note_off_c, 1, 52, 0
2, 17640, Pitch_bend_c, 1, 8192
2, 17640, Note_on_c, 0, 45, 104
2, 17640, Note_on_c, 0, 52, 104
2, 18000, Note_off_c, 0, 52, 0
2, 18000, Note_off_c, 0, 45, 0
2, 18000, Note_on_c, 0, 45, 104
2, 18000, Note_on_c, 0, 52, 104
2, 18360, Note_off_c, 0, 52, 0
2, 18360, Note_off_c, 0, 45, 0
2, 18360, Note_on_c, 0, 45, 104
2, 18360, Note_on_c, 0, 52, 104
2, 18720, Note_off_c, 0, 52, 0
2, 18720, Note_off_c, 0, 45, 0
2, 18720, Note_on_c, 1, 52, 104
2, 18756, Pitch_bend_c, 1, 7924
2, 18792, Pitch_bend_c, 1, 7660
2, 18828, Pitch_bend_c, 1, 7396
2, 18864, Pitch_bend_c, 1, 7132
2, 18900, Pitch_bend_c, 1, 6868
2, 18936, Pitch_bend_c, 1, 6604
2, 18972, Pitch_bend_c, 1, 6340
2, 19008, Pitch_bend_c, 1, 6076
2, 19044, Pitch_bend_c, 1, 5812
2, 19080, Note_off_c, 1, 52, 0
2, 19080, Pitch_bend_c, 1, 8192
2, 19080, Note_on_c, 0, 45, 104
2, 19080, Note_on_c, 0, 52, 104
2, 19440, Note_off_c, 0, 52, 0
2, 19440, Note_off_c, 0, 45, 0
2, 19440, Note_on_c, 0, 45, 104
2, 19440, Note_on_c, 0, 52, 104
2, 19800, Note_off_c, 0, 52, 0
2, 19800, Note_off_c, 0, 45, 0
2, 19800, Note_on_c, 0, 45, 104
2, 19800, Note_on_c, 0, 52, 104
2, 20160, Note_off_c, 0, 52, 0
2, 20160, Note_off_c, 0, 45, 0
2, 20160, Note_on_c, 1, 52, 104
2, 20196, Pitch_bend_c, 1, 7924
2, 20232, Pitch_bend_c, 1, 7660
2, 20268, Pitch_bend_c, 1, 7396
2, 20304, Pitch_bend_c, 1, 7132
2, 20340, Pitch_bend_c, 1, 6868
2, 20376, Pitch_bend_c, 1, 6604
2, 20412, Pitch_bend_c, 1, 6340
2, 20448, Pitch_bend_c, 1, 6076
2, 20484, Pitch_bend_c, 1, 5812
2, 20520, Note_off_c, 1, 52, 0
2, 20520, Pitch_bend_c, 1, 8192
2, 20520, Note_on_c, 0, 45, 104
2, 20520, Note_on_c, 0, 52, 104
2, 20880, Note_off_c, 0, 52, 0
2, 20880, Note_off_c, 0, 45, 0
2, 20880, Note_on_c, 0, 45, 104
2, 20880, Note_on_c, 0, 52, 104
2, 21240, Note_off_c, 0, 52, 0
2, 21240, Note_off_c, 0, 45, 0
2, 21240, Note_on_c, 0, 45, 104
2, 21240, Note_on_c, 0, 52, 104
2, 21600, Note_off_c, 0, 52, 0
2, 21600, Note_off_c, 0, 45, 0
2, 21600, Note_on_c, 1, 52, 104
2, 21636, Pitch_bend_c, 1, 7924
2, 21672, Pitch_bend_c, 1, 7660
2, 21708, Pitch_bend_c, 1, 7396
2, 21744, Pitch_bend_c, 1, 7132
2, 21780, Pitch_bend_c, 1, 6868
2, 21816, Pitch_bend_c, 1, 6604
2, 21852, Pitch_bend_c, 1, 6340
2, 21888, Pitch_bend_c, 1, 6076
2, 21924, Pitch_bend_c, 1, 5812
2, 21960, Note_off_c, 1, 52, 0
2, 21960, Pitch_bend_c, 1, 8192
2, 21960, Note_on_c, 0, 45, 104
2, 21960, Note_on_c, 0, 52, 104
2, 22320, Note_off_c, 0, 52, 0
2, 22320, Note_off_c, 0, 45, 0
2, 22320, Note_on_c, 0, 45, 104
2, 22320, Note_on_c, 0, 52, 104
2, 22680, Note_off_c, 0, 52, 0
2, 22680, Note_off_c, 0, 45, 0
2, 22680, Note_on_c, 0, 45, 104
2, 22680, Note_on_c, 0, 52, 104
2, 23040, Note_off_c, 0, 52, 0
2, 23040, Note_off_c, 0, 45, 0
2, 23040, Note_on_c, 1, 52, 104
2, 23076, Pitch_bend_c, 1, 8040
2, 23112, Pitch_bend_c, 1, 7889
2, 23148, Pitch_bend_c, 1, 7738
2, 23184, Pitch_bend_c, 1, 7587
2, 23220, Pitch_bend_c, 1, 7436
2, 23256, Pitch_bend_c, 1, 7285
2, 23292, Pitch_bend_c, 1, 7134
2, 23328, Pitch_bend_c, 1, 6983
2, 23364, Pitch_bend_c, 1, 6832
2, 23400, Note_off_c, 1, 52, 0
2, 23400, Pitch_bend_c, 1, 8192
2, 23400, Note_on_c, 0, 48, 104
2, 23400, Note_on_c, 0, 55, 104
2, 23760, Note_off_c, 0, 55, 0
2, 23760, Note_off_c, 0, 48, 0
2, 23760, Note_on_c, 0, 48, 104
2, 23760, Note_on_c, 0, 55, 104
2, 24120, Note_off_c, 0, 55, 0
2, 24120, Note_off_c, 0, 48, 0
2, 24120, Note_on_c, 0, 48, 104
2, 24120, Note_on_c, 0, 55, 104
2, 24480, Note_off_c, 0, 55, 0
2, 24480, Note_off_c, 0, 48, 0
2, 24480, Note_on_c, 1, 52, 104
2, 24516, Pitch_bend_c, 1, 8040
2, 24552, Pitch_bend_c, 1, 7889
2, 24588, Pitch_bend_c, 1, 7738
2, 24624, Pitch_bend_c, 1, 7587
2, 24660, Pitch_bend_c, 1, 7436
2, 24696, Pitch_bend_c, 1, 7285
2, 24732, Pitch_bend_c, 1, 7134
2, 24768, Pitch_bend_c, 1, 6983
2, 24804, Pitch_bend_c, 1, 6832
2, 24840, Note_off_c, 1, 52, 0
2, 24840, Pitch_bend_c, 1, 8192
2, 24840, Note_on_c, 0, 48, 104
2, 24840, Note_on_c, 0, 55, 104
2, 25200, Note_off_c, 0, 55, 0
2, 25200, Note_off_c, 0, 48, 0
2, 25200, Note_on_c, 0, 48, 104
2, 25200, Note_on_c, 0, 55, 104
2, 25560, Note_off_c, 0, 55, 0
2, 25560, Note_off_c, 0, 48, 0
2, 25560, Note_on_c, 0, 48, 104
2, 25560, Note_on_c, 0, 55, 104
2, 25920, Note_off_c, 0, 55, 0
2, 25920, Note_off_c, 0, 48, 0
2, 25920, Note_on_c, 1, 55, 104
2, 25956, Pitch_bend_c, 1, 7924
2, 25992, Pitch_bend_c, 1, 7660
2, 26028, Pitch_bend_c, 1, 7396
2, 26064, Pitch_bend_c, 1, 7132
2, 26100, Pitch_bend_c, 1, 6868
2, 26136, Pitch_bend_c, 1, 6604
2, 26172, Pitch_bend_c, 1, 6340
2, 26208, Pitch_bend_c, 1, 6076
2, 26244, Pitch_bend_c, 1, 5812
2, 26280, Note_off_c, 1, 55, 0
2, 26280, Pitch_bend_c, 1, 8192
2, 26280, Note_on_c, 0, 48, 104
2, 26280, Note_on_c, 0, 55, 104
2, 26640, Note_off_c, 0, 55, 0
2, 26640, Note_off_c, 0, 48, 0
2, 26640, Note_on_c, 0, 48, 104
2, 26640, Note_on_c, 0, 55, 104
2, 27000, Note_off_c, 0, 55, 0
2, 27000, Note_off_c, 0, 48, 0
2, 27000, Note_on_c, 0, 48, 104
2, 27000, Note_on_c, 0, 55, 104
2, 27360, Note_off_c, 0, 55, 0
2, 27360, Note_off_c, 0, 48, 0
2, 27360, Note_on_c, 1, 52, 104
2, 27396, Pitch_bend_c, 1, 8040
2, 27432, Pitch_bend_c, 1, 7889
2, 27468, Pitch_bend_c, 1, 7738
2, 27504, Pitch_bend_c, 1, 7587
2, 27540, Pitch_bend_c, 1, 7436
2, 27576, Pitch_bend_c, 1, 7285
2, 27612, Pitch_bend_c, 1, 7134
2, 27648, Pitch_bend_c, 1, 6983
2, 27684, Pitch_bend_c, 1, 6832
2, 27720, Note_off_c, 1, 52, 0
2, 27720, Pitch_bend_c, 1, 8192
2, 27720, Note_on_c, 0, 48, 104
2, 27720, Note_on_c, 0, 55, 104
2, 28080, Note_off_c, 0, 55, 0
2, 28080, Note_off_c, 0, 48, 0
2, 28080, Note_on_c, 0, 48, 104
2, 28080, Note_on_c, 0, 55, 104
2, 28440, Note_off_c, 0, 55, 0
2, 28440, Note_off_c, 0, 48, 0
2, 28440, Note_on_c, 0, 48, 104
2, 28440, Note_on_c, 0, 55, 104
2, 28800, Note_off_c, 0, 55, 0
2, 28800, Note_off_c, 0, 48, 0
2, 28800, Note_on_c, 1, 47, 104
2, 28836, Pitch_bend_c, 1, 7960
2, 28872, Pitch_bend_c, 1, 7734
2, 28908, Pitch_bend_c, 1, 7508
2, 28944, Pitch_bend_c, 1, 7282
2, 28980, Pitch_bend_c, 1, 7056
2, 29016, Pitch_bend_c, 1, 6830
2, 29052, Pitch_bend_c, 1, 6604
2, 29088, Pitch_bend_c, 1, 6378
2, 29124, Pitch_bend_c, 1, 6152
2, 29160, Note_off_c, 1, 47, 0
2, 29160, Pitch_bend_c, 1, 8192
2, 29160, Note_on_c, 0, 41, 104
2, 29160, Note_on_c, 0, 48, 104
2, 29520, Note_off_c, 0, 48, 0
2, 29520, Note_off_c, 0, 41, 0
2, 29520, Note_on_c, 0, 41, 104
2, 29520, Note_on_c, 0, 48, 104
2, 29880, Note_off_c, 0, 48, 0
2, 29880, Note_off_c, 0, 41, 0
2, 29880, Note_on_c, 0, 41, 104
2, 29880, Note_on_c, 0, 48, 104
2, 30240, Note_off_c, 0, 48, 0
2, 30240, Note_off_c, 0, 41, 0
2, 30240, Note_on_c, 1, 47, 104
2, 30276, Pitch_bend_c, 1, 7960
2, 30312, Pitch_bend_c, 1, 7734
2, 30348, Pitch_bend_c, 1, 7508
2, 30384, Pitch_bend_c, 1, 7282
2, 30420, Pitch_bend_c, 1, 7056
2, 30456, Pitch_bend_c, 1, 6830
2, 30492, Pitch_bend_c, 1, 6604
2, 30528, Pitch_bend_c, 1, 6378
2, 30564, Pitch_bend_c, 1, 6152
2, 30600, Note_off_c, 1, 47, 0
2, 30600, Pitch_bend_c, 1, 8192
2, 30600, Note_on_c, 0, 41, 104
2, 30600, Note_on_c, 0, 48, 104
2, 30960, Note_off_c, 0, 48, 0
2, 30960, Note_off_c, 0, 41, 0
2, 30960, Note_on_c, 0, 41, 104
2, 30960, Note_on_c, 0, 48, 104
2, 31320, Note_off_c, 0, 48, 0
2, 31320, Note_off_c, 0, 41, 0
2, 31320, Note_on_c, 0, 41, 104
2, 31320, Note_on_c, 0, 48, 104
2, 31680, Note_off_c, 0, 48, 0
2, 31680, Note_off_c, 0, 41, 0
2, 31680, Note_on_c, 1, 47, 104
2, 31716, Pitch_bend_c, 1, 7960
2, 31752, Pitch_bend_c, 1, 7734
2, 31788, Pitch_bend_c, 1, 7508
2, 31824, Pitch_bend_c, 1, 7282
2, 31860, Pitch_bend_c, 1, 7056
2, 31896, Pitch_bend_c, 1, 6830
2, 31932, Pitch_bend_c, 1, 6604
2, 31968, Pitch_bend_c, 1, 6378
2, 32004, Pitch_bend_c, 1, 6152
2, 32040, Note_off_c, 1, 47, 0
2, 32040, Pitch_bend_c, 1, 8192
2, 32040, Note_on_c, 0, 41, 104
2, 32040, Note_on_c, 0, 48, 104
2, 32400, Note_off_c, 0, 48, 0
2, 32400, Note_off_c, 0, 41, 0
2, 32400, Note_on_c, 0, 41, 104
2, 32400, Note_on_c, 0, 48, 104
2, 32760, Note_off_c, 0, 48, 0
2, 32760, Note_off_c, 0, 41, 0
2, 32760, Note_on_c, 0, 41, 104
2, 32760, Note_on_c, 0, 48, 104
2, 33120, Note_off_c, 0, 48, 0
2, 33120, Note_off_c, 0, 41, 0
2, 33120, Note_on_c, 1, 47, 104
2, 33156, Pitch_bend_c, 1, 7960
2, 33192, Pitch_bend_c, 1, 7734
2, 33228, Pitch_bend_c, 1, 7508
2, 33264, Pitch_bend_c, 1, 7282
2, 33300, Pitch_bend_c, 1, 7056
2, 33336, Pitch_bend_c, 1, 6830
2, 33372, Pitch_bend_c, 1, 6604
2, 33408, Pitch_bend_c, 1, 6378
2, 33444, Pitch_bend_c, 1, 6152
2, 33480, Note_off_c, 1, 47, 0
2, 33480, Pitch_bend_c, 1, 8192
2, 33480, Note_on_c, 0, 41, 104
2, 33480, Note_on_c, 0, 48, 104
2, 33840, Note_off_c, 0, 48, 0
2, 33840, Note_off_c, 0, 41, 0
2, 33840, Note_on_c, 0, 41, 104
2, 33840, Note_on_c, 0, 48, 104
2, 34200, Note_off_c, 0, 48, 0
2, 34200, Note_off_c, 0, 41, 0
2, 34200, Note_on_c, 0, 41, 104
2, 34200, Note_on_c, 0, 48, 104
2, 34560, Note_off_c, 0, 48, 0
2, 34560, Note_off_c, 0, 41, 0
2, 34560, Note_on_c, 1, 47, 104
2, 34596, Pitch_bend_c, 1, 8040
2, 34632, Pitch_bend_c, 1, 7889
2, 34668, Pitch_bend_c, 1, 7738
2, 34704, Pitch_bend_c, 1, 7587
2, 34740, Pitch_bend_c, 1, 7436
2, 34776, Pitch_bend_c, 1, 7285
2, 34812, Pitch_bend_c, 1, 7134
2, 34848, Pitch_bend_c, 1, 6983
2, 34884, Pitch_bend_c, 1, 6832
2, 34920, Note_off_c, 1, 47, 0
2, 34920, Pitch_bend_c, 1, 8192
2, 34920, Note_on_c, 0, 43, 104
2, 34920, Note_on_c, 0, 50, 104
2, 35280, Note_off_c, 0, 50, 0
2, 35280, Note_off_c, 0, 43, 0
2, 35280, Note_on_c, 0, 43, 104
2, 35280, Note_on_c, 0, 50, 104
2, 35640, Note_off_c, 0, 50, 0
2, 35640, Note_off_c, 0, 43, 0
2, 35640, Note_on_c, 0, 43, 104
2, 35640, Note_on_c, 0, 50, 104
2, 36000, Note_off_c, 0, 50, 0
2, 36000, Note_off_c, 0, 43, 0
2, 36000, Note_on_c, 1, 48, 104
2, 36036, Pitch_bend_c, 1, 7996
2, 36072, Pitch_bend_c, 1, 7808
2, 36108, Pitch_bend_c, 1, 7620
2, 36144, Pitch_bend_c, 1, 7432
2, 36180, Pitch_bend_c, 1, 7244
2, 36216, Pitch_bend_c, 1, 7056
2, 36252, Pitch_bend_c, 1, 6868
2, 36288, Pitch_bend_c, 1, 6680
2, 36324, Pitch_bend_c, 1, 6492
2, 36360, Note_off_c, 1, 48, 0
2, 36360, Pitch_bend_c, 1, 8192
2, 36360, Note_on_c, 0, 43, 104
2, 36360, Note_on_c, 0, 50, 104
2, 36720, Note_off_c, 0, 50, 0
2, 36720, Note_off_c, 0, 43, 0
2, 36720, Note_on_c, 0, 43, 104
2, 36720, Note_on_c, 0, 50, 104
2, 37080, Note_off_c, 0, 50, 0
2, 37080, Note_off_c, 0, 43, 0
2, 37080, Note_on_c, 0, 43, 104
2, 37080, Note_on_c, 0, 50, 104
2, 37440, Note_off_c, 0, 50, 0
2, 37440, Note_off_c, 0, 43, 0
2, 37440, Note_on_c, 1, 47, 104
2, 37476, Pitch_bend_c, 1, 8040
2, 37512, Pitch_bend_c, 1, 7889
2, 37548, Pitch_bend_c, 1, 7738
2, 37584, Pitch_bend_c, 1, 7587
2, 37620, Pitch_bend_c, 1, 7436
2, 37656, Pitch_bend_c, 1, 7285
2, 37692, Pitch_bend_c, 1, 7134
2, 37728, Pitch_bend_c, 1, 6983
2, 37764, Pitch_bend_c, 1, 6832
2, 37800, Note_off_c, 1, 47, 0
2, 37800, Pitch_bend_c, 1, 8192
2, 37800, Note_on_c, 0, 43, 104
2, 37800, Note_on_c, 0, 50, 104
2, 38160, Note_off_c, 0, 50, 0
2, 38160, Note_off_c, 0, 43, 0
2, 38160, Note_on_c, 0, 43, 104
2, 38160, Note_on_c, 0, 50, 104
2, 38520, Note_off_c, 0, 50, 0
2, 38520, Note_off_c, 0, 43, 0
2, 38520, Note_on_c, 0, 43, 104
2, 38520, Note_on_c, 0, 50, 104
2, 38880, Note_off_c, 0, 50, 0
2, 38880, Note_off_c, 0, 43, 0
2, 38880, Note_on_c, 0, 46, 104
2, 38880, Note_on_c, 0, 53, 104
2, 39240, Note_off_c, 0, 53, 0
2, 39240, Note_off_c, 0, 46, 0
2, 39240, Note_on_c, 0, 46, 104
2, 39240, Note_on_c, 0, 53, 104
2, 39600, Note_off_c, 0, 53, 0
2, 39600, Note_off_c, 0, 46, 0
2, 39600, Note_on_c, 0, 46, 104
2, 39600, Note_on_c, 0, 53, 104
2, 39960, Note_off_c, 0, 53, 0
2, 39960, Note_off_c, 0, 46, 0
2, 39960, Note_on_c, 0, 46, 104
2, 39960, Note_on_c, 0, 53, 104
2, 40320, Note_off_c, 0, 53, 0
2, 40320, Note_off_c, 0, 46, 0
2, 40320, Note_on_c, 1, 52, 104
2, 40356, Pitch_bend_c, 1, 7924
2, 40392, Pitch_bend_c, 1, 7660
2, 40428, Pitch_bend_c, 1, 7396
2, 40464, Pitch_bend_c, 1, 7132
2, 40500, Pitch_bend_c, 1, 6868
2, 40536, Pitch_bend_c, 1, 6604
2, 40572, Pitch_bend_c, 1, 6340
2, 40608, Pitch_bend_c, 1, 6076
2, 40644, Pitch_bend_c, 1, 5812
2, 40680, Note_off_c, 1, 52, 0
2, 40680, Pitch_bend_c, 1, 8192
2, 40680, Note_on_c, 0, 45, 104
2, 40680, Note_on_c, 0, 52, 104
2, 41040, Note_off_c, 0, 52, 0
2, 41040, Note_off_c, 0, 45, 0
2, 41040, Note_on_c, 0, 45, 104
2, 41040, Note_on_c, 0, 52, 104
2, 41400, Note_off_c, 0, 52, 0
2, 41400, Note_off_c, 0, 45, 0
2, 41400, Note_on_c, 0, 45, 104
2, 41400, Note_on_c, 0, 52, 104
2, 41760, Note_off_c, 0, 52, 0
2, 41760, Note_off_c, 0, 45, 0
2, 41760, Note_on_c, 1, 52, 104
2, 41796, Pitch_bend_c, 1, 7924
2, 41832, Pitch_bend_c, 1, 7660
2, 41868, Pitch_bend_c, 1, 7396
2, 41904, Pitch_bend_c, 1, 7132
2, 41940, Pitch_bend_c, 1, 6868
2, 41976, Pitch_bend_c, 1, 6604
2, 42012, Pitch_bend_c, 1, 6340
2, 42048, Pitch_bend_c, 1, 6076
2, 42084, Pitch_bend_c, 1, 5812
2, 42120, Note_off_c, 1, 52, 0
2, 42120, Pitch_bend_c, 1, 8192
2, 42120, Note_on_c, 0, 45, 104
2, 42120, Note_on_c, 0, 52, 104
2, 42480, Note_off_c, 0, 52, 0
2, 42480, Note_off_c, 0, 45, 0
2, 42480, Note_on_c, 0, 45, 104
2, 42480, Note_on_c, 0, 52, 104
2, 42840, Note_off_c, 0, 52, 0
2, 42840, Note_off_c, 0, 45, 0
2, 42840, Note_on_c, 0, 45, 104
2, 42840, Note_on_c, 0, 52, 104
2, 43200, Note_off_c, 0, 52, 0
2, 43200, Note_off_c, 0, 45, 0
2, 43200, Note_on_c, 1, 52, 104
2, 43236, Pitch_bend_c, 1, 7924
2, 43272, Pitch_bend_c, 1, 7660
2, 43308, Pitch_bend_c, 1, 7396
2, 43344, Pitch_bend_c, 1, 7132
2, 43380, Pitch_bend_c, 1, 6868
2, 43416, Pitch_bend_c, 1, 6604
2, 43452, Pitch_bend_c, 1, 6340
2, 43488, Pitch_bend_c, 1, 6076
2, 43524, Pitch_bend_c, 1, 5812
2, 43560, Note_off_c, 1, 52, 0
2, 43560, Pitch_bend_c, 1, 8192
2, 43560, Note_on_c, 0, 45, 104
2, 43560, Note_on_c, 0, 52, 104
2, 43920, Note_off_c, 0, 52, 0
2, 43920, Note_off_c, 0, 45, 0
2, 43920, Note_on_c, 0, 45, 104
2, 43920, Note_on_c, 0, 52, 104
2, 44280, Note_off_c, 0, 52, 0
2, 44280, Note_off_c, 0, 45, 0
2, 44280, Note_on_c, 0, 45, 104
2, 44280, Note_on_c, 0, 52, 104
2, 44640, Note_off_c, 0, 52, 0
2, 44640, Note_off_c, 0, 45, 0
2, 44640, Note_on_c, 1, 52, 104
2, 44676, Pitch_bend_c, 1, 7924
2, 44712, Pitch_bend_c, 1, 7660
2, 44748, Pitch_bend_c, 1, 7396
2, 44784, Pitch_bend_c, 1, 7132
2, 44820, Pitch_bend_c, 1, 6868
2, 44856, Pitch_bend_c, 1, 6604
2, 44892, Pitch_bend_c, 1, 6340
2, 44928, Pitch_bend_c, 1, 6076
2, 44964, Pitch_bend_c, 1, 5812
2, 45000, Note_off_c, 1, 52, 0
2, 45000, Pitch_bend_c, 1, 8192
2, 45000, Note_on_c, 0, 45, 104
2, 45000, Note_on_c, 0, 52, 104
2, 45360, Note_off_c, 0, 52, 0
2, 45360, Note_off_c, 0, 45, 0
2, 45360, Note_on_c, 0, 45, 104
2, 45360, Note_on_c, 0, 52, 104
2, 45720, Note_off_c, 0, 52, 0
2, 45720, Note_off_c, 0, 45, 0
2, 45720, Note_on_c, 0, 45, 104
2, 45720, Note_on_c, 0, 52, 104
2, 46080, Note_off_c, 0, 52, 0
2, 46080, Note_off_c, 0, 45, 0
2, 46080, Note_on_c, 1, 52, 104
2, 46116, Pitch_bend_c, 1, 8040
2, 46152, Pitch_bend_c, 1, 7889
2, 46188, Pitch_bend_c, 1, 7738
2, 46224, Pitch_bend_c, 1, 7587
2, 46260, Pitch_bend_c, 1, 7436
2, 46296, Pitch_bend_c, 1, 7285
2, 46332, Pitch_bend_c, 1, 7134
2, 46368, Pitch_bend_c, 1, 6983
2, 46404, Pitch_bend_c, 1, 6832
2, 46440, Note_off_c, 1, 52, 0
2, 46440, Pitch_bend_c, 1, 8192
2, 46440, Note_on_c, 0, 48, 104
2, 46440, Note_on_c, 0, 55, 104
2, 46800, Note_off_c, 0, 55, 0
2, 46800, Note_off_c, 0, 48, 0
2, 46800, Note_on_c, 0, 48, 104
2, 46800, Note_on_c, 0, 55, 104
2, 47160, Note_off_c, 0, 55, 0
2, 47160, Note_off_c, 0, 48, 0
2, 47160, Note_on_c, 0, 48, 104
2, 47160, Note_on_c, 0, 55, 104
2, 47520, Note_off_c, 0, 55, 0
2, 47520, Note_off_c, 0, 48, 0
2, 47520, Note_on_c, 1, 52, 104
2, 47556, Pitch_bend_c, 1, 8040
2, 47592, Pitch_bend_c, 1, 7889
2, 47628, Pitch_bend_c, 1, 7738
2, 47664, Pitch_bend_c, 1, 7587
2, 47700, Pitch_bend_c, 1, 7436
2, 47736, Pitch_bend_c, 1, 7285
2, 47772, Pitch_bend_c, 1, 7134
2, 47808, Pitch_bend_c, 1, 6983
2, 47844, Pitch_bend_c, 1, 6832
2, 47880, Note_off_c, 1, 52, 0
2, 47880, Pitch_bend_c, 1, 8192
2, 47880, Note_on_c, 0, 48, 104
2, 47880, Note_on_c, 0, 55, 104
2, 48240, Note_off_c, 0, 55, 0
2, 48240, Note_off_c, 0, 48, 0
2, 48240, Note_on_c, 0, 48, 104
2, 48240, Note_on_c, 0, 55, 104
2, 48600, Note_off_c, 0, 55, 0
2, 48600, Note_off_c, 0, 48, 0
2, 48600, Note_on_c, 0, 48, 104
2, 48600, Note_on_c, 0, 55, 104
2, 48960, Note_off_c, 0, 55, 0
2, 48960, Note_off_c, 0, 48, 0
2, 48960, Note_on_c, 1, 55, 104
2, 48996, Pitch_bend_c, 1, 7924
2, 49032, Pitch_bend_c, 1, 7660
2, 49068, Pitch_bend_c, 1, 7396
2, 49104, Pitch_bend_c, 1, 7132
2, 49140, Pitch_bend_c, 1, 6868
2, 49176, Pitch_bend_c, 1, 6604
2, 49212, Pitch_bend_c, 1, 6340
2, 49248, Pitch_bend_c, 1, 6076
2, 49284, Pitch_bend_c, 1, 5812
2, 49320, Note_off_c, 1, 55, 0
2, 49320, Pitch_bend_c, 1, 8192
2, 49320, Note_on_c, 0, 48, 104
2, 49320, Note_on_c, 0, 55, 104
2, 49680, Note_off_c, 0, 55, 0
2, 49680, Note_off_c, 0, 48, 0
2, 49680, Note_on_c, 0, 48, 104
2, 49680, Note_on_c, 0, 55, 104
2, 50040, Note_off_c, 0, 55, 0
2, 50040, Note_off_c, 0, 48, 0
2, 50040, Note_on_c, 0, 48, 104
2, 50040, Note_on_c, 0, 55, 104
2, 50400, Note_off_c, 0, 55, 0
2, 50400, Note_off_c, 0, 48, 0
2, 50400, Note_on_c, 1, 52, 104
2, 50436, Pitch_bend_c, 1, 8040
2, 50472, Pitch_bend_c, 1, 7889
2, 50508, Pitch_bend_c, 1, 7738
2, 50544, Pitch_bend_c, 1, 7587
2, 50580, Pitch_bend_c, 1, 7436
2, 50616, Pitch_bend_c, 1, 7285
2, 50652, Pitch_bend_c, 1, 7134
2, 50688, Pitch_bend_c, 1, 6983
2, 50724, Pitch_bend_c, 1, 6832
2, 50760, Note_off_c, 1, 52, 0
2, 50760, Pitch_bend_c, 1, 8192
2, 50760, Note_on_c, 0, 48, 104
2, 50760, Note_on_c, 0, 55, 104
2, 51120, Note_off_c, 0, 55, 0
2, 51120, Note_off_c, 0, 48, 0
2, 51120, Note_on_c, 0, 48, 104
2, 51120, Note_on_c, 0, 55, 104
2, 51480, Note_off_c, 0, 55, 0
2, 51480, Note_off_c, 0, 48, 0
2, 51480, Note_on_c, 0, 48, 104
2, 51480, Note_on_c, 0, 55, 104
2, 51840, Note_off_c, 0, 55, 0
2, 51840, Note_off_c, 0, 48, 0
2, 51840, Note_on_c, 1, 47, 104
2, 51880, Pitch_bend_c, 1, 7960
2, 51920, Pitch_bend_c, 1, 7734
2, 51960, Pitch_bend_c, 1, 7508
2, 52000, Pitch_bend_c, 1, 7282
2, 52040, Pitch_bend_c, 1, 7056
2, 52080, Pitch_bend_c, 1, 6830
2, 52120, Pitch_bend_c, 1, 6604
2, 52160, Pitch_bend_c, 1, 6378
2, 52200, Pitch_bend_c, 1, 6152
2, 52200, Note_on_c, 0, 48, 104
2, 52560, Note_off_c, 0, 48, 0
2, 52560, Note_off_c, 1, 47, 0
2, 52560, Pitch_bend_c, 1, 8192
2, 52560, Note_on_c, 0, 41, 104
2, 52560, Note_on_c, 0, 48, 104
2, 52920, Note_off_c, 0, 48, 0
2, 52920, Note_off_c, 0, 41, 0
2, 52920, Note_on_c, 0, 41, 104
2, 52920, Note_on_c, 0, 48, 104
2, 53280, Note_off_c, 0, 48, 0
2, 53280, Note_off_c, 0, 41, 0
2, 53280, Note_on_c, 1, 47, 104
2, 53320, Pitch_bend_c, 1, 7960
2, 53360, Pitch_bend_c, 1, 7734
2, 53400, Pitch_bend_c, 1, 7508
2, 53440, Pitch_bend_c, 1, 7282
2, 53480, Pitch_bend_c, 1, 7056
2, 53520, Pitch_bend_c, 1, 6830
2, 53560, Pitch_bend_c, 1, 6604
2, 53600, Pitch_bend_c, 1, 6378
2, 53640, Pitch_bend_c, 1, 6152
2, 53640, Note_on_c, 0, 48, 104
2, 54000, Note_off_c, 0, 48, 0
2, 54000, Note_off_c, 1, 47, 0
2, 54000, Pitch_bend_c, 1, 8192
2, 54000, Note_on_c, 0, 41, 104
2, 54000, Note_on_c, 0, 48, 104
2, 54360, Note_off_c, 0, 48, 0
2, 54360, Note_off_c, 0, 41, 0
2, 54360, Note_on_c, 0, 41, 104
2, 54360, Note_on_c, 0, 48, 104
2, 54720, Note_off_c, 0, 48, 0
2, 54720, Note_off_c, 0, 41, 0
2, 54720, Note_on_c, 1, 47, 104
2, 54756, Pitch_bend_c, 1, 7960
2, 54792, Pitch_bend_c, 1, 7734
2, 54828, Pitch_bend_c, 1, 7508
2, 54864, Pitch_bend_c, 1, 7282
2, 54900, Pitch_bend_c, 1, 7056
2, 54936, Pitch_bend_c, 1, 6830
2, 54972, Pitch_bend_c, 1, 6604
2, 55008, Pitch_bend_c, 1, 6378
2, 55044, Pitch_bend_c, 1, 6152
2, 55080, Note_off_c, 1, 47, 0
2, 55080, Pitch_bend_c, 1, 8192
2, 55080, Note_on_c, 0, 41, 104
2, 55080, Note_on_c, 0, 48, 104
2, 55440, Note_off_c, 0, 48, 0
2, 55440, Note_off_c, 0, 41, 0
2, 55440, Note_on_c, 0, 41, 104
2, 55440, Note_on_c, 0, 48, 104
2, 55800, Note_off_c, 0, 48, 0
2, 55800, Note_off_c, 0, 41, 0
2, 55800, Note_on_c, 0, 41, 104
2, 55800, Note_on_c, 0, 48, 104
2, 56160, Note_off_c, 0, 48, 0
2, 56160, Note_off_c, 0, 41, 0
2, 56160, Note_on_c, 1, 47, 104
2, 56196, Pitch_bend_c, 1, 7960
2, 56232, Pitch_bend_c, 1, 7734
2, 56268, Pitch_bend_c, 1, 7508
2, 56304, Pitch_bend_c, 1, 7282
2, 56340, Pitch_bend_c, 1, 7056
2, 56376, Pitch_bend_c, 1, 6830
2, 56412, Pitch_bend_c, 1, 6604
2, 56448, Pitch_bend_c, 1, 6378
2, 56484, Pitch_bend_c, 1, 6152
2, 56520, Note_off_c, 1, 47, 0
2, 56520, Pitch_bend_c, 1, 8192
2, 56520, Note_on_c, 0, 41, 104
2, 56520, Note_on_c, 0, 48, 104
2, 56880, Note_off_c, 0, 48, 0
2, 56880, Note_off_c, 0, 41, 0
2, 56880, Note_on_c, 0, 41, 104
2, 56880, Note_on_c, 0, 48, 104
2, 57240, Note_off_c, 0, 48, 0
2, 57240, Note_off_c, 0, 41, 0
2, 57240, Note_on_c, 0, 41, 104
2, 57240, Note_on_c, 0, 48, 104
2, 57600, Note_off_c, 0, 48, 0
2, 57600, Note_off_c, 0, 41, 0
2, 57600, Note_on_c, 1, 47, 104
2, 57636, Pitch_bend_c, 1, 8040
2, 57672, Pitch_bend_c, 1, 7889
2, 57708, Pitch_bend_c, 1, 7738
2, 57744, Pitch_bend_c, 1, 7587
2, 57780, Pitch_bend_c, 1, 7436
2, 57816, Pitch_bend_c, 1, 7285
2, 57852, Pitch_bend_c, 1, 7134
2, 57888, Pitch_bend_c, 1, 6983
2, 57924, Pitch_bend_c, 1, 6832
2, 57960, Note_off_c, 1, 47, 0
2, 57960, Pitch_bend_c, 1, 8192
2, 57960, Note_on_c, 0, 43, 104
2, 57960, Note_on_c, 0, 50, 104
2, 58320, Note_off_c, 0, 50, 0
2, 58320, Note_off_c, 0, 43, 0
2, 58320, Note_on_c, 0, 43, 104
2, 58320, Note_on_c, 0, 50, 104
2, 58680, Note_off_c, 0, 50, 0
2, 58680, Note_off_c, 0, 43, 0
2, 58680, Note_on_c, 0, 43, 104
2, 58680, Note_on_c, 0, 50, 104
2, 59040, Note_off_c, 0, 50, 0
2, 59040, Note_off_c, 0, 43, 0
2, 59040, Note_on_c, 1, 48, 104
2, 59076, Pitch_bend_c, 1, 7996
2, 59112, Pitch_bend_c, 1, 7808
2, 59148, Pitch_bend_c, 1, 7620
2, 59184, Pitch_bend_c, 1, 7432
2, 59220, Pitch_bend_c, 1, 7244
2, 59256, Pitch_bend_c, 1, 7056
2, 59292, Pitch_bend_c, 1, 6868
2, 59328, Pitch_bend_c, 1, 6680
2, 59364, Pitch_bend_c, 1, 6492
2, 59400, Note_off_c, 1, 48, 0
2, 59400, Pitch_bend_c, 1, 8192
2, 59400, Note_on_c, 0, 43, 104
2, 59400, Note_on_c, 0, 50, 104
2, 59760, Note_off_c, 0, 50, 0
2, 59760, Note_off_c, 0, 43, 0
2, 59760, Note_on_c, 0, 43, 104
2, 59760, Note_on_c, 0, 50, 104
2, 60120, Note_off_c, 0, 50, 0
2, 60120, Note_off_c, 0, 43, 0
2, 60120, Note_on_c, 0, 43, 104
2, 60120, Note_on_c, 0, 50, 104
2, 60480, Note_off_c, 0, 50, 0
2, 60480, Note_off_c, 0, 43, 0
2, 60480, Note_on_c, 1, 47, 104
2, 60516, Pitch_bend_c, 1, 8040
2, 60552, Pitch_bend_c, 1, 7889
2, 60588, Pitch_bend_c, 1, 7738
2, 60624, Pitch_bend_c, 1, 7587
2, 60660, Pitch_bend_c, 1, 7436
2, 60696, Pitch_bend_c, 1, 7285
2, 60732, Pitch_bend_c, 1, 7134
2, 60768, Pitch_bend_c, 1, 6983
2, 60804, Pitch_bend_c, 1, 6832
2, 60840, Note_off_c, 1, 47, 0
2, 60840, Pitch_bend_c, 1, 8192
2, 60840, Note_on_c, 0, 43, 104
2, 60840, Note_on_c, 0, 50, 104
2, 61200, Note_off_c, 0, 50, 0
2, 61200, Note_off_c, 0, 43, 0
2, 61200, Note_on_c, 0, 43, 104
2, 61200, Note_on_c, 0, 50, 104
2, 61560, Note_off_c, 0, 50, 0
2, 61560, Note_off_c, 0, 43, 0
2, 61560, Note_on_c, 0, 43, 104
2, 61560, Note_on_c, 0, 50, 104
2, 61920, Note_off_c, 0, 50, 0
2, 61920, Note_off_c, 0, 43, 0
2, 61920, Note_on_c, 0, 46, 104
2, 61920, Note_on_c, 0, 53, 104
2, 62280, Note_off_c, 0, 53, 0
2, 62280, Note_off_c, 0, 46, 0
2, 62280, Note_on_c, 0, 46, 104
2, 62280, Note_on_c, 0, 53, 104
2, 62640, Note_off_c, 0, 53, 0
2, 62640, Note_off_c, 0, 46, 0
2, 62640, Note_on_c, 0, 46, 104
2, 62640, Note_on_c, 0, 53, 104
2, 63000, Note_off_c, 0, 53, 0
2, 63000, Note_off_c, 0, 46, 0
2, 63000, Note_on_c, 0, 46, 104
2, 63000, Note_on_c, 0, 53, 104
2, 63360, Note_off_c, 0, 53, 0
2, 63360, Note_off_c, 0, 46, 0
2, 63360, Note_on_c, 0, 45, 78
2, 63360, Note_on_c, 0, 64, 78
2, 63360, Note_on_c, 0, 69, 78
2, 63360, Note_on_c, 0, 73, 78
2, 63360, Note_on_c, 0, 76, 78
2, 63360, Control_c, 0, 64, 127
2, 63360, Control_c, 1, 64, 127
2, 63360, Control_c, 0, 11, 65
2, 63581, Control_c, 0, 11, 79
2, 63720, Note_off_c, 0, 76, 0
2, 63720, Note_off_c, 0, 73, 0
2, 63720, Note_off_c, 0, 69, 0
2, 63720, Note_off_c, 0, 64, 0
2, 63720, Note_off_c, 0, 45, 0
2, 63720, Note_on_c, 0, 45, 78
2, 63720, Note_on_c, 0, 64, 78
2, 63720, Note_on_c, 0, 69, 78
2, 63720, Note_on_c, 0, 73, 78
2, 63720, Note_on_c, 0, 76, 78
2, 63802, Control_c, 0, 11, 83
2, 64023, Control_c, 0, 11, 87
2, 64080, Note_off_c, 0, 76, 0
2, 64080, Note_off_c, 0, 73, 0
2, 64080, Note_off_c, 0, 69, 0
2, 64080, Note_off_c, 0, 64, 0
2, 64080, Note_off_c, 0, 45, 0
2, 64080, Note_on_c, 0, 45, 78
2, 64080, Note_on_c, 0, 64, 78
2, 64080, Note_on_c, 0, 69, 78
2, 64080, Note_on_c, 0, 73, 78
2, 64080, Note_on_c, 0, 76, 78
2, 64244, Control_c, 0, 11, 91
2, 64440, Note_off_c, 0, 76, 0
2, 64440, Note_off_c, 0, 73, 0
2, 64440, Note_off_c, 0, 69, 0
2, 64440, Note_off_c, 0, 64, 0
2, 64440, Note_off_c, 0, 45, 0
2, 64440, Note_on_c, 0, 45, 78
2, 64440, Note_on_c, 0, 64, 78
2, 64440, Note_on_c, 0, 69, 78
2, 64440, Note_on_c, 0, 73, 78
2, 64440, Note_on_c, 0, 76, 78
2, 64465, Control_c, 0, 11, 95
2, 64686, Control_c, 0, 11, 99
2, 64800, Note_off_c, 0, 76, 0
2, 64800, Note_off_c, 0, 73, 0
2, 64800, Note_off_c, 0, 69, 0
2, 64800, Note_off_c, 0, 64, 0
2, 64800, Note_off_c, 0, 45, 0
2, 64800, Note_on_c, 0, 45, 78
2, 64800, Note_on_c, 0, 64, 78
2, 64800, Note_on_c, 0, 69, 78
2, 64800, Note_on_c, 0, 73, 78
2, 64800, Note_on_c, 0, 76, 78
2, 64907, Control_c, 0, 11, 103
2, 65128, Control_c, 0, 11, 107
2, 65160, Note_off_c, 0, 76, 0
2, 65160, Note_off_c, 0, 73, 0
2, 65160, Note_off_c, 0, 69, 0
2, 65160, Note_off_c, 0, 64, 0
2, 65160, Note_off_c, 0, 45, 0
2, 65160, Note_on_c, 0, 45, 78
2, 65160, Note_on_c, 0, 64, 78
2, 65160, Note_on_c, 0, 69, 78
2, 65160, Note_on_c, 0, 73, 78
2, 65160, Note_on_c, 0, 76, 78
2, 65349, Control_c, 0, 11, 111
2, 65520, Note_off_c, 0, 76, 0
2, 65520, Note_off_c, 0, 73, 0
2, 65520, Note_off_c, 0, 69, 0
2, 65520, Note_off_c, 0, 64, 0
2, 65520, Note_off_c, 0, 45, 0
2, 65520, Note_on_c, 0, 45, 78
2, 65520, Note_on_c, 0, 64, 78
2, 65520, Note_on_c, 0, 69, 78
2, 65520, Note_on_c, 0, 73, 78
2, 65520, Note_on_c, 0, 76, 78
2, 65570, Control_c, 0, 11, 115
2, 65791, Control_c, 0, 11, 119
2, 65880, Note_off_c, 0, 76, 0
2, 65880, Note_off_c, 0, 73, 0
2, 65880, Note_off_c, 0, 69, 0
2, 65880, Note_off_c, 0, 64, 0
2, 65880, Note_off_c, 0, 45, 0
2, 65880, Note_on_c, 0, 45, 78
2, 65880, Note_on_c, 0, 64, 78
2, 65880, Note_on_c, 0, 69, 78
2, 65880, Note_on_c, 0, 73, 78
2, 65880, Note_on_c, 0, 76, 78
2, 66012, Control_c, 0, 11, 123
2, 66233, Control_c, 0, 11, 127
2, 66240, Note_off_c, 0, 76, 0
2, 66240, Note_off_c, 0, 73, 0
2, 66240, Note_off_c, 0, 69, 0
2, 66240, Note_off_c, 0, 64, 0
2, 66240, Note_off_c, 0, 45, 0
2, 66240, Control_c, 0, 64, 0
2, 66240, Control_c, 1, 64, 0
2, 66240, Note_on_c, 0, 45, 106
2, 66240, Note_on_c, 0, 64, 106
2, 66240, Note_on_c, 0, 69, 106
2, 66240, Note_on_c, 0, 73, 106
2, 66240, Note_on_c, 0, 76, 106
2, 66600, Note_off_c, 0, 76, 0
2, 66600, Note_off_c, 0, 73, 0
2, 66600, Note_off_c, 0, 69, 0
2, 66600, Note_off_c, 0, 64, 0
2, 66600, Note_off_c, 0, 45, 0
2, 68760, Note_on_c, 0, 43, 91
2, 68760, Note_on_c, 0, 48, 91
2, 68760, Note_on_c, 0, 52, 91
2, 68760, Note_on_c, 0, 55, 91
2, 68760, Note_on_c, 0, 60, 91
2, 68760, Note_on_c, 0, 64, 91
2, 68775, Note_off_c, 0, 64, 0
2, 68775, Note_off_c, 0, 60, 0
2, 68775, Note_off_c, 0, 55, 0
2, 68775, Note_off_c, 0, 52, 0
2, 68775, Note_off_c, 0, 48, 0
2, 68775, Note_off_c, 0, 43, 0
2, 68940, Note_on_c, 0, 43, 91
2, 68940, Note_on_c, 0, 48, 91
2, 68940, Note_on_c, 0, 52, 91
2, 68940, Note_on_c, 0, 55, 91
2, 68940, Note_on_c, 0, 60, 91
2, 68940, Note_on_c, 0, 64, 91
2, 68955, Note_off_c, 0, 64, 0
2, 68955, Note_off_c, 0, 60, 0
2, 68955, Note_off_c, 0, 55, 0
2, 68955, Note_off_c, 0, 52, 0
2, 68955, Note_off_c, 0, 48, 0
2, 68955, Note_off_c, 0, 43, 0
2, 69120, Note_on_c, 0, 43, 78
2, 69120, Note_on_c, 0, 48, 78
2, 69120, Note_on_c, 0, 52, 78
2, 69120, Note_on_c, 0, 55, 78
2, 69120, Note_on_c, 0, 60, 78
2, 69120, Note_on_c, 0, 64, 78
2, 69840, Note_off_c, 0, 64, 0
2, 69840, Note_off_c, 0, 60, 0
2, 69840, Note_off_c, 0, 55, 0
2, 69840, Note_off_c, 0, 52, 0
2, 69840, Note_off_c, 0, 48, 0
2, 69840, Note_off_c, 0, 43, 0
2, 69840, Note_on_c, 0, 43, 78
2, 69840, Note_on_c, 0, 48, 78
2, 69840, Note_on_c, 0, 52, 78
2, 69840, Note_on_c, 0, 55, 78
2, 69840, Note_on_c, 0, 60, 78
2, 69840, Note_on_c, 0, 64, 78
2, 70380, Note_off_c, 0, 64, 0
2, 70380, Note_off_c, 0, 60, 0
2, 70380, Note_off_c, 0, 55, 0
2, 70380, Note_off_c, 0, 52, 0
2, 70380, Note_off_c, 0, 48, 0
2, 70380, Note_off_c, 0, 43, 0
2, 70380, Note_on_c, 0, 55, 78
2, 70380, Note_on_c, 0, 60, 78
2, 70380, Note_on_c, 0, 64, 78
2, 70560, Note_off_c, 0, 64, 0
2, 70560, Note_off_c, 0, 60, 0
2, 70560, Note_off_c, 0, 55, 0
2, 70560, Note_on_c, 0, 43, 78
2, 70560, Note_on_c, 0, 48, 78
2, 70560, Note_on_c, 0, 52, 78
2, 70560, Note_on_c, 0, 55, 78
2, 70560, Note_on_c, 0, 60, 78
2, 70560, Note_on_c, 0, 64, 78
2, 70920, Note_off_c, 0, 64, 0
2, 70920, Note_off_c, 0, 60, 0
2, 70920, Note_off_c, 0, 55, 0
2, 70920, Note_off_c, 0, 52, 0
2, 70920, Note_off_c, 0, 48, 0
2, 70920, Note_off_c, 0, 43, 0
2, 70920, Note_on_c, 0, 52, 78
2, 70920, Note_on_c, 0, 55, 78
2, 70920, Note_on_c, 0, 60, 78
2, 70920, Note_on_c, 0, 64, 78
2, 71280, Note_off_c, 0, 64, 0
2, 71280, Note_off_c, 0, 60, 0
2, 71280, Note_off_c, 0, 55, 0
2, 71280, Note_off_c, 0, 52, 0
2, 71280, Note_on_c, 0, 52, 78
2, 71280, Note_on_c, 0, 55, 78
2, 71280, Note_on_c, 0, 60, 78
2, 71280, Note_on_c, 0, 64, 78
2, 71460, Note_off_c, 0, 64, 0
2, 71460, Note_off_c, 0, 60, 0
2, 71460, Note_off_c, 0, 55, 0
2, 71460, Note_off_c, 0, 52, 0
2, 71460, Note_on_c, 0, 52, 78
2, 71460, Note_on_c, 0, 55, 78
2, 71460, Note_on_c, 0, 60, 78
2, 71460, Note_on_c, 0, 64, 78
2, 71640, Note_off_c, 0, 64, 0
2, 71640, Note_off_c, 0, 60, 0
2, 71640, Note_off_c, 0, 55, 0
2, 71640, Note_off_c, 0, 52, 0
2, 71640, Note_on_c, 0, 47, 78
2, 71640, Note_on_c, 0, 54, 78
2, 71640, Note_on_c, 0, 59, 78
2, 71640, Note_on_c, 0, 62, 78
2, 71640, Note_on_c, 0, 66, 78
2, 72360, Note_off_c, 0, 66, 0
2, 72360, Note_off_c, 0, 62, 0
2, 72360, Note_off_c, 0, 59, 0
2, 72360, Note_off_c, 0, 54, 0
2, 72360, Note_off_c, 0, 47, 0
2, 72360, Note_on_c, 0, 47, 78
2, 72720, Note_off_c, 0, 47, 0
2, 72720, Note_on_c, 0, 47, 78
2, 72720, Note_on_c, 0, 54, 78
2, 72720, Note_on_c, 0, 59, 78
2, 72720, Note_on_c, 0, 62, 78
2, 72720, Note_on_c, 0, 66, 78
2, 73260, Note_off_c, 0, 66, 0
2, 73260, Note_off_c, 0, 62, 0
2, 73260, Note_off_c, 0, 59, 0
2, 73260, Note_off_c, 0, 54, 0
2, 73260, Note_off_c, 0, 47, 0
2, 73260, Note_on_c, 0, 59, 78
2, 73260, Note_on_c, 0, 62, 78
2, 73260, Note_on_c, 0, 66, 78
2, 73440, Note_off_c, 0, 66, 0
2, 73440, Note_off_c, 0, 62, 0
2, 73440, Note_off_c, 0, 59, 0
2, 73440, Note_on_c, 0, 47, 78
2, 73440, Note_on_c, 0, 54, 78
2, 73440, Note_on_c, 0, 59, 78
2, 73440, Note_on_c, 0, 62, 78
2, 73440, Note_on_c, 0, 66, 78
2, 73800, Note_off_c, 0, 66, 0
2, 73800, Note_off_c, 0, 62, 0
2, 73800, Note_off_c, 0, 59, 0
2, 73800, Note_off_c, 0, 54, 0
2, 73800, Note_off_c, 0, 47, 0
2, 73800, Note_on_c, 0, 54, 78
2, 73800, Note_on_c, 0, 59, 78
2, 73800, Note_on_c, 0, 62, 78
2, 73800, Note_on_c, 0, 66, 78
2, 74160, Note_off_c, 0, 66, 0
2, 74160, Note_off_c, 0, 62, 0
2, 74160, Note_off_c, 0, 59, 0
2, 74160, Note_off_c, 0, 54, 0
2, 74160, Note_on_c, 0, 59, 78
2, 74340, Note_off_c, 0, 59, 0
2, 74340, Note_on_c, 0, 60, 78
2, 74520, Note_off_c, 0, 60, 0
2, 74520, Note_on_c, 0, 59, 78
2, 74700, Note_off_c, 0, 59, 0
2, 74700, Note_on_c, 0, 60, 78
2, 74880, Note_off_c, 0, 60, 0
2, 74880, Note_on_c, 0, 45, 78
2, 74880, Note_on_c, 0, 52, 78
2, 74880, Note_on_c, 0, 57, 78
2, 74880, Note_on_c, 0, 60, 78
2, 74880, Note_on_c, 0, 64, 78
2, 75600, Note_off_c, 0, 64, 0
2, 75600, Note_off_c, 0, 60, 0
2, 75600, Note_off_c, 0, 57, 0
2, 75600, Note_off_c, 0, 52, 0
2, 75600, Note_off_c, 0, 45, 0
2, 75600, Note_on_c, 0, 45, 78
2, 75600, Note_on_c, 0, 52, 78
2, 75600, Note_on_c, 0, 57, 78
2, 75600, Note_on_c, 0, 60, 78
2, 75600, Note_on_c, 0, 64, 78
2, 75600, Note_on_c, 0, 69, 78
2, 76140, Note_off_c, 0, 69, 0
2, 76140, Note_off_c, 0, 64, 0
2, 76140, Note_off_c, 0, 60, 0
2, 76140, Note_off_c, 0, 57, 0
2, 76140, Note_off_c, 0, 52, 0
2, 76140, Note_off_c, 0, 45, 0
2, 76140, Note_on_c, 0, 57, 78
2, 76140, Note_on_c, 0, 60, 78
2, 76140, Note_on_c, 0, 64, 78
2, 76140, Note_on_c, 0, 69, 78
2, 76320, Note_off_c, 0, 69, 0
2, 76320, Note_off_c, 0, 64, 0
2, 76320, Note_off_c, 0, 60, 0
2, 76320, Note_off_c, 0, 57, 0
2, 76320, Note_on_c, 0, 45, 78
2, 76320, Note_on_c, 0, 52, 78
2, 76320, Note_on_c, 0, 57, 78
2, 76320, Note_on_c, 0, 60, 78
2, 76320, Note_on_c, 0, 64, 78
2, 76680, Note_off_c, 0, 64, 0
2, 76680, Note_off_c, 0, 60, 0
2, 76680, Note_off_c, 0, 57, 0
2, 76680, Note_off_c, 0, 52, 0
2, 76680, Note_off_c, 0, 45, 0
2, 76680, Note_on_c, 0, 45, 78
2, 76680, Note_on_c, 0, 57, 78
2, 76860, Note_off_c, 0, 57, 0
2, 76860, Note_off_c, 0, 45, 0
2, 76860, Note_on_c, 0, 45, 78
2, 76860, Note_on_c, 0, 57, 78
2, 77040, Note_off_c, 0, 57, 0
2, 77040, Note_off_c, 0, 45, 0
2, 77040, Note_on_c, 0, 43, 78
2, 77040, Note_on_c, 0, 55, 78
2, 77220, Note_off_c, 0, 55, 0
2, 77220, Note_off_c, 0, 43, 0
2, 77220, Note_on_c, 0, 43, 78
2, 77220, Note_on_c, 0, 55, 78
2, 77400, Note_off_c, 0, 55, 0
2, 77400, Note_off_c, 0, 43, 0
2, 77400, Note_on_c, 0, 41, 78
2, 77400, Note_on_c, 0, 48, 78
2, 77400, Note_on_c, 0, 53, 78
2, 77400, Note_on_c, 0, 57, 78
2, 77400, Note_on_c, 0, 60, 78
2, 77400, Note_on_c, 0, 65, 78
2, 78120, Note_off_c, 0, 65, 0
2, 78120, Note_off_c, 0, 60, 0
2, 78120, Note_off_c, 0, 57, 0
2, 78120, Note_off_c, 0, 53, 0
2, 78120, Note_off_c, 0, 48, 0
2, 78120, Note_off_c, 0, 41, 0
2, 78120, Note_on_c, 0, 41, 78
2, 78480, Note_off_c, 0, 41, 0
2, 78480, Note_on_c, 0, 41, 78
2, 78480, Note_on_c, 0, 48, 78
2, 78480, Note_on_c, 0, 53, 78
2, 78480, Note_on_c, 0, 57, 78
2, 78480, Note_on_c, 0, 60, 78
2, 78480, Note_on_c, 0, 65, 78
2, 79020, Note_off_c, 0, 65, 0
2, 79020, Note_off_c, 0, 60, 0
2, 79020, Note_off_c, 0, 57, 0
2, 79020, Note_off_c, 0, 53, 0
2, 79020, Note_off_c, 0, 48, 0
2, 79020, Note_off_c, 0, 41, 0
2, 79020, Note_on_c, 0, 53, 78
2, 79020, Note_on_c, 0, 57, 78
2, 79020, Note_on_c, 0, 60, 78
2, 79020, Note_on_c, 0, 65, 78
2, 79200, Note_off_c, 0, 65, 0
2, 79200, Note_off_c, 0, 60, 0
2, 79200, Note_off_c, 0, 57, 0
2, 79200, Note_off_c, 0, 53, 0
2, 79200, Note_on_c, 0, 41, 78
2, 79200, Note_on_c, 0, 48, 78
2, 79200, Note_on_c, 0, 53, 78
2, 79200, Note_on_c, 0, 57, 78
2, 79200, Note_on_c, 0, 60, 78
2, 79200, Note_on_c, 0, 65, 78
2, 79560, Note_off_c, 0, 65, 0
2, 79560, Note_off_c, 0, 60, 0
2, 79560, Note_off_c, 0, 57, 0
2, 79560, Note_off_c, 0, 53, 0
2, 79560, Note_off_c, 0, 48, 0
2, 79560, Note_off_c, 0, 41, 0
2, 79560, Note_on_c, 0, 45, 78
2, 79560, Note_on_c, 0, 57, 78
2, 79740, Note_off_c, 0, 57, 0
2, 79740, Note_off_c, 0, 45, 0
2, 79740, Note_on_c, 1, 45, 78
2, 79740, Note_on_c, 1, 57, 78
2, 79760, Pitch_bend_c, 1, 8112
2, 79780, Pitch_bend_c, 1, 8037
2, 79800, Pitch_bend_c, 1, 7962
2, 79820, Pitch_bend_c, 1, 7887
2, 79840, Pitch_bend_c, 1, 7812
2, 79860, Pitch_bend_c, 1, 7737
2, 79880, Pitch_bend_c, 1, 7662
2, 79900, Pitch_bend_c, 1, 7587
2, 79920, Pitch_bend_c, 1, 7512
2, 80100, Note_off_c, 1, 57, 0
2, 80100, Note_off_c, 1, 45, 0
2, 80100, Pitch_bend_c, 1, 8192
2, 80100, Note_on_c, 1, 45, 78
2, 80100, Note_on_c, 1, 57, 78
2, 80120, Pitch_bend_c, 1, 8112
2, 80140, Pitch_bend_c, 1, 8037
2, 80160, Pitch_bend_c, 1, 7962
2, 80180, Pitch_bend_c, 1, 7887
2, 80200, Pitch_bend_c, 1, 7812
2, 80220, Pitch_bend_c, 1, 7737
2, 80240, Pitch_bend_c, 1, 7662
2, 80260, Pitch_bend_c, 1, 7587
2, 80280, Pitch_bend_c, 1, 7512
2, 80460, Note_off_c, 1, 57, 0
2, 80460, Note_off_c, 1, 45, 0
2, 80460, Pitch_bend_c, 1, 8192
2, 80460, Note_on_c, 0, 45, 78
2, 80460, Note_on_c, 0, 57, 78
2, 80640, Note_off_c, 0, 57, 0
2, 80640, Note_off_c, 0, 45, 0
2, 80640, Note_on_c, 0, 45, 78
2, 80640, Note_on_c, 0, 52, 78
2, 80640, Note_on_c, 0, 57, 78
2, 80640, Note_on_c, 0, 60, 78
2, 80640, Note_on_c, 0, 64, 78
2, 81360, Note_off_c, 0, 64, 0
2, 81360, Note_off_c, 0, 60, 0
2, 81360, Note_off_c, 0, 57, 0
2, 81360, Note_off_c, 0, 52, 0
2, 81360, Note_off_c, 0, 45, 0
2, 81360, Note_on_c, 0, 45, 78
2, 81360, Note_on_c, 0, 52, 78
2, 81360, Note_on_c, 0, 57, 78
2, 81360, Note_on_c, 0, 60, 78
2, 81360, Note_on_c, 0, 64, 78
2, 81360, Note_on_c, 0, 69, 78
2, 81900, Note_off_c, 0, 69, 0
2, 81900, Note_off_c, 0, 64, 0
2, 81900, Note_off_c, 0, 60, 0
2, 81900, Note_off_c, 0, 57, 0
2, 81900, Note_off_c, 0, 52, 0
2, 81900, Note_off_c, 0, 45, 0
2, 81900, Note_on_c, 0, 57, 78
2, 81900, Note_on_c, 0, 60, 78
2, 81900, Note_on_c, 0, 64, 78
2, 81900, Note_on_c, 0, 69, 78
2, 82080, Note_off_c, 0, 69, 0
2, 82080, Note_off_c, 0, 64, 0
2, 82080, Note_off_c, 0, 60, 0
2, 82080, Note_off_c, 0, 57, 0
2, 82080, Note_on_c, 0, 45, 78
2, 82080, Note_on_c, 0, 52, 78
2, 82080, Note_on_c, 0, 57, 78
2, 82080, Note_on_c, 0, 60, 78
2, 82080, Note_on_c, 0, 64, 78
2, 82440, Note_off_c, 0, 64, 0
2, 82440, Note_off_c, 0, 60, 0
2, 82440, Note_off_c, 0, 57, 0
2, 82440, Note_off_c, 0, 52, 0
2, 82440, Note_off_c, 0, 45, 0
2, 82440, Note_on_c, 0, 45, 78
2, 82440, Note_on_c, 0, 57, 78
2, 82620, Note_off_c, 0, 57, 0
2, 82620, Note_off_c, 0, 45, 0
2, 82620, Note_on_c, 0, 45, 78
2, 82620, Note_on_c, 0, 57, 78
2, 82800, Note_off_c, 0, 57, 0
2, 82800, Note_off_c, 0, 45, 0
2, 82800, Note_on_c, 0, 43, 78
2, 82800, Note_on_c, 0, 55, 78
2, 82980, Note_off_c, 0, 55, 0
2, 82980, Note_off_c, 0, 43, 0
2, 82980, Note_on_c, 0, 43, 78
2, 82980, Note_on_c, 0, 55, 78
2, 83160, Note_off_c, 0, 55, 0
2, 83160, Note_off_c, 0, 43, 0
2, 83160, Note_on_c, 0, 41, 78
2, 83160, Note_on_c, 0, 48, 78
2, 83160, Note_on_c, 0, 53, 78
2, 83160, Note_on_c, 0, 57, 78
2, 83160, Note_on_c, 0, 60, 78
2, 83160, Note_on_c, 0, 65, 78
2, 83880, Note_off_c, 0, 65, 0
2, 83880, Note_off_c, 0, 60, 0
2, 83880, Note_off_c, 0, 57, 0
2, 83880, Note_off_c, 0, 53, 0
2, 83880, Note_off_c, 0, 48, 0
2, 83880, Note_off_c, 0, 41, 0
2, 83880, Note_on_c, 0, 41, 78
2, 84240, Note_off_c, 0, 41, 0
2, 84240, Note_on_c, 0, 41, 78
2, 84240, Note_on_c, 0, 48, 78
2, 84240, Note_on_c, 0, 53, 78
2, 84240, Note_on_c, 0, 57, 78
2, 84240, Note_on_c, 0, 60, 78
2, 84240, Note_on_c, 0, 65, 78
2, 84780, Note_off_c, 0, 65, 0
2, 84780, Note_off_c, 0, 60, 0
2, 84780, Note_off_c, 0, 57, 0
2, 84780, Note_off_c, 0, 53, 0
2, 84780, Note_off_c, 0, 48, 0
2, 84780, Note_off_c, 0, 41, 0
2, 84780, Note_on_c, 0, 53, 78
2, 84780, Note_on_c, 0, 57, 78
2, 84780, Note_on_c, 0, 60, 78
2, 84780, Note_on_c, 0, 65, 78
2, 84960, Note_off_c, 0, 65, 0
2, 84960, Note_off_c, 0, 60, 0
2, 84960, Note_off_c, 0, 57, 0
2, 84960, Note_off_c, 0, 53, 0
2, 84960, Note_on_c, 0, 41, 78
2, 84960, Note_on_c, 0, 48, 78
2, 84960, Note_on_c, 0, 53, 78
2, 84960, Note_on_c, 0, 57, 78
2, 84960, Note_on_c, 0, 60, 78
2, 84960, Note_on_c, 0, 65, 78
2, 85320, Note_off_c, 0, 65, 0
2, 85320, Note_off_c, 0, 60, 0
2, 85320, Note_off_c, 0, 57, 0
2, 85320, Note_off_c, 0, 53, 0
2, 85320, Note_off_c, 0, 48, 0
2, 85320, Note_off_c, 0, 41, 0
2, 85320, Note_on_c, 0, 45, 78
2, 85320, Note_on_c, 0, 57, 78
2, 85500, Note_off_c, 0, 57, 0
2, 85500, Note_off_c, 0, 45, 0
2, 85500, Note_on_c, 0, 45, 78
2, 85500, Note_on_c, 0, 57, 78
2, 85680, Note_off_c, 0, 57, 0
2, 85680, Note_off_c, 0, 45, 0
2, 85680, Note_on_c, 0, 43, 78
2, 85680, Note_on_c, 0, 55, 78
2, 85860, Note_off_c, 0, 55, 0
2, 85860, Note_off_c, 0, 43, 0
2, 85860, Note_on_c, 0, 44, 78
2, 85860, Note_on_c, 0, 56, 78
2, 86040, Note_off_c, 0, 56, 0
2, 86040, Note_off_c, 0, 44, 0
2, 86040, Note_on_c, 0, 43, 78
2, 86040, Note_on_c, 0, 55, 78
2, 86220, Note_off_c, 0, 55, 0
2, 86220, Note_off_c, 0, 43, 0
2, 86220, Note_on_c, 0, 44, 78
2, 86220, Note_on_c, 0, 56, 78
2, 86400, Note_off_c, 0, 56, 0
2, 86400, Note_off_c, 0, 44, 0
2, 86400, Note_on_c, 0, 41, 78
2, 86400, Note_on_c, 0, 48, 78
2, 86400, Note_on_c, 0, 53, 78
2, 86400, Note_on_c, 0, 56, 78
2, 86400, Note_on_c, 0, 60, 78
2, 86400, Note_on_c, 0, 65, 78
2, 87120, Note_off_c, 0, 65, 0
2, 87120, Note_off_c, 0, 60, 0
2, 87120, Note_off_c, 0, 56, 0
2, 87120, Note_off_c, 0, 53, 0
2, 87120, Note_off_c, 0, 48, 0
2, 87120, Note_off_c, 0, 41, 0
2, 87120, Note_on_c, 0, 41, 78
2, 87120, Note_on_c, 0, 48, 78
2, 87120, Note_on_c, 0, 53, 78
2, 87120, Note_on_c, 0, 56, 78
2, 87120, Note_on_c, 0, 60, 78
2, 87120, Note_on_c, 0, 65, 78
2, 87660, Note_off_c, 0, 65, 0
2, 87660, Note_off_c, 0, 60, 0
2, 87660, Note_off_c, 0, 56, 0
2, 87660, Note_off_c, 0, 53, 0
2, 87660, Note_off_c, 0, 48, 0
2, 87660, Note_off_c, 0, 41, 0
2, 87660, Note_on_c, 0, 53, 78
2, 87660, Note_on_c, 0, 56, 78
2, 87660, Note_on_c, 0, 60, 78
2, 87660, Note_on_c, 0, 65, 78
2, 87840, Note_off_c, 0, 65, 0
2, 87840, Note_off_c, 0, 60, 0
2, 87840, Note_off_c, 0, 56, 0
2, 87840, Note_off_c, 0, 53, 0
2, 87840, Note_on_c, 0, 41, 78
2, 87840, Note_on_c, 0, 48, 78
2, 87840, Note_on_c, 0, 53, 78
2, 87840, Note_on_c, 0, 57, 78
2, 87840, Note_on_c, 0, 60, 78
2, 88200, Note_off_c, 0, 60, 0
2, 88200, Note_off_c, 0, 57, 0
2, 88200, Note_off_c, 0, 53, 0
2, 88200, Note_off_c, 0, 48, 0
2, 88200, Note_off_c, 0, 41, 0
2, 88200, Note_on_c, 0, 44, 78
2, 88200, Note_on_c, 0, 56, 78
2, 88380, Note_off_c, 0, 56, 0
2, 88380, Note_off_c, 0, 44, 0
2, 88380, Note_on_c, 0, 44, 78
2, 88380, Note_on_c, 0, 56, 78
2, 88560, Note_off_c, 0, 56, 0
2, 88560, Note_off_c, 0, 44, 0
2, 88560, Note_on_c, 0, 45, 78
2, 88740, Note_off_c, 0, 45, 0
2, 88740, Note_on_c, 0, 43, 78
2, 88920, Note_off_c, 0, 43, 0
2, 88920, Note_on_c, 0, 43, 78
2, 88920, Note_on_c, 0, 48, 78
2, 88920, Note_on_c, 0, 52, 78
2, 88920, Note_on_c, 0, 55, 78
2, 89100, Note_off_c, 0, 55, 0
2, 89100, Note_off_c, 0, 52, 0
2, 89100, Note_off_c, 0, 48, 0
2, 89100, Note_off_c, 0, 43, 0
2, 89100, Note_on_c, 0, 43, 78
2, 89100, Note_on_c, 0, 48, 78
2, 89100, Note_on_c, 0, 52, 78
2, 89100, Note_on_c, 0, 55, 78
2, 89280, Note_off_c, 0, 55, 0
2, 89280, Note_off_c, 0, 52, 0
2, 89280, Note_off_c, 0, 48, 0
2, 89280, Note_off_c, 0, 43, 0
2, 89280, Note_on_c, 0, 43, 78
2, 89280, Note_on_c, 0, 48, 78
2, 89280, Note_on_c, 0, 52, 78
2, 89280, Note_on_c, 0, 55, 78
2, 89280, Note_on_c, 0, 60, 78
2, 89280, Note_on_c, 0, 64, 78
2, 90000, Note_off_c, 0, 64, 0
2, 90000, Note_off_c, 0, 60, 0
2, 90000, Note_off_c, 0, 55, 0
2, 90000, Note_off_c, 0, 52, 0
2, 90000, Note_off_c, 0, 48, 0
2, 90000, Note_off_c, 0, 43, 0
2, 90000, Note_on_c, 0, 43, 78
2, 90000, Note_on_c, 0, 48, 78
2, 90000, Note_on_c, 0, 52, 78
2, 90000, Note_on_c, 0, 55, 78
2, 90000, Note_on_c, 0, 60, 78
2, 90000, Note_on_c, 0, 64, 78
2, 90540, Note_off_c, 0, 64, 0
2, 90540, Note_off_c, 0, 60, 0
2, 90540, Note_off_c, 0, 55, 0
2, 90540, Note_off_c, 0, 52, 0
2, 90540, Note_off_c, 0, 48, 0
2, 90540, Note_off_c, 0, 43, 0
2, 90540, Note_on_c, 0, 55, 78
2, 90540, Note_on_c, 0, 60, 78
2, 90540, Note_on_c, 0, 64, 78
2, 90720, Note_off_c, 0, 64, 0
2, 90720, Note_off_c, 0, 60, 0
2, 90720, Note_off_c, 0, 55, 0
2, 90720, Note_on_c, 0, 43, 78
2, 90720, Note_on_c, 0, 48, 78
2, 90720, Note_on_c, 0, 52, 78
2, 90720, Note_on_c, 0, 55, 78
2, 90720, Note_on_c, 0, 60, 78
2, 90720, Note_on_c, 0, 64, 78
2, 91080, Note_off_c, 0, 64, 0
2, 91080, Note_off_c, 0, 60, 0
2, 91080, Note_off_c, 0, 55, 0
2, 91080, Note_off_c, 0, 52, 0
2, 91080, Note_off_c, 0, 48, 0
2, 91080, Note_off_c, 0, 43, 0
2, 91080, Note_on_c, 0, 52, 78
2, 91080, Note_on_c, 0, 55, 78
2, 91080, Note_on_c, 0, 60, 78
2, 91080, Note_on_c, 0, 64, 78
2, 91440, Note_off_c, 0, 64, 0
2, 91440, Note_off_c, 0, 60, 0
2, 91440, Note_off_c, 0, 55, 0
2, 91440, Note_off_c, 0, 52, 0
2, 91440, Note_on_c, 0, 52, 78
2, 91440, Note_on_c, 0, 55, 78
2, 91440, Note_on_c, 0, 60, 78
2, 91440, Note_on_c, 0, 64, 78
2, 91620, Note_off_c, 0, 64, 0
2, 91620, Note_off_c, 0, 60, 0
2, 91620, Note_off_c, 0, 55, 0
2, 91620, Note_off_c, 0, 52, 0
2, 91620, Note_on_c, 0, 52, 78
2, 91620, Note_on_c, 0, 55, 78
2, 91620, Note_on_c, 0, 60, 78
2, 91620, Note_on_c, 0, 64, 78
2, 91800, Note_off_c, 0, 64, 0
2, 91800, Note_off_c, 0, 60, 0
2, 91800, Note_off_c, 0, 55, 0
2, 91800, Note_off_c, 0, 52, 0
2, 91800, Note_on_c, 0, 47, 78
2, 91800, Note_on_c, 0, 54, 78
2, 91800, Note_on_c, 0, 59, 78
2, 91800, Note_on_c, 0, 62, 78
2, 91800, Note_on_c, 0, 66, 78
2, 92520, Note_off_c, 0, 66, 0
2, 92520, Note_off_c, 0, 62, 0
2, 92520, Note_off_c, 0, 59, 0
2, 92520, Note_off_c, 0, 54, 0
2, 92520, Note_off_c, 0, 47, 0
2, 92520, Note_on_c, 0, 47, 78
2, 92880, Note_off_c, 0, 47, 0
2, 92880, Note_on_c, 0, 47, 78
2, 92880, Note_on_c, 0, 54, 78
2, 92880, Note_on_c, 0, 59, 78
2, 92880, Note_on_c, 0, 62, 78
2, 92880, Note_on_c, 0, 66, 78
2, 93420, Note_off_c, 0, 66, 0
2, 93420, Note_off_c, 0, 62, 0
2, 93420, Note_off_c, 0, 59, 0
2, 93420, Note_off_c, 0, 54, 0
2, 93420, Note_off_c, 0, 47, 0
2, 93420, Note_on_c, 0, 59, 78
2, 93420, Note_on_c, 0, 62, 78
2, 93420, Note_on_c, 0, 66, 78
2, 93600, Note_off_c, 0, 66, 0
2, 93600, Note_off_c, 0, 62, 0
2, 93600, Note_off_c, 0, 59, 0
2, 93600, Note_on_c, 0, 47, 78
2, 93600, Note_on_c, 0, 54, 78
2, 93600, Note_on_c, 0, 59, 78
2, 93600, Note_on_c, 0, 62, 78
2, 93600, Note_on_c, 0, 66, 78
2, 93960, Note_off_c, 0, 66, 0
2, 93960, Note_off_c, 0, 62, 0
2, 93960, Note_off_c, 0, 59, 0
2, 93960, Note_off_c, 0, 54, 0
2, 93960, Note_off_c, 0, 47, 0
2, 93960, Note_on_c, 0, 54, 78
2, 93960, Note_on_c, 0, 59, 78
2, 93960, Note_on_c, 0, 62, 78
2, 93960, Note_on_c, 0, 66, 78
2, 94320, Note_off_c, 0, 66, 0
2, 94320, Note_off_c, 0, 62, 0
2, 94320, Note_off_c, 0, 59, 0
2, 94320, Note_off_c, 0, 54, 0
2, 94320, Note_on_c, 0, 59, 78
2, 94500, Note_off_c, 0, 59, 0
2, 94500, Note_on_c, 0, 60, 78
2, 94680, Note_off_c, 0, 60, 0
2, 94680, Note_on_c, 0, 59, 78
2, 94860, Note_off_c, 0, 59, 0
2, 94860, Note_on_c, 0, 60, 78
2, 95040, Note_off_c, 0, 60, 0
2, 95040, Note_on_c, 0, 45, 78
2, 95040, Note_on_c, 0, 52, 78
2, 95040, Note_on_c, 0, 57, 78
2, 95040, Note_on_c, 0, 60, 78
2, 95040, Note_on_c, 0, 64, 78
2, 95760, Note_off_c, 0, 64, 0
2, 95760, Note_off_c, 0, 60, 0
2, 95760, Note_off_c, 0, 57, 0
2, 95760, Note_off_c, 0, 52, 0
2, 95760, Note_off_c, 0, 45, 0
2, 95760, Note_on_c, 0, 45, 78
2, 95760, Note_on_c, 0, 52, 78
2, 95760, Note_on_c, 0, 57, 78
2, 95760, Note_on_c, 0, 60, 78
2, 95760, Note_on_c, 0, 64, 78
2, 95760, Note_on_c, 0, 69, 78
2, 96300, Note_off_c, 0, 69, 0
2, 96300, Note_off_c, 0, 64, 0
2, 96300, Note_off_c, 0, 60, 0
2, 96300, Note_off_c, 0, 57, 0
2, 96300, Note_off_c, 0, 52, 0
2, 96300, Note_off_c, 0, 45, 0
2, 96300, Note_on_c, 0, 57, 78
2, 96300, Note_on_c, 0, 60, 78
2, 96300, Note_on_c, 0, 64, 78
2, 96300, Note_on_c, 0, 69, 78
2, 96480, Note_off_c, 0, 69, 0
2, 96480, Note_off_c, 0, 64, 0
2, 96480, Note_off_c, 0, 60, 0
2, 96480, Note_off_c, 0, 57, 0
2, 96480, Note_on_c, 0, 45, 78
2, 96480, Note_on_c, 0, 52, 78
2, 96480, Note_on_c, 0, 57, 78
2, 96480, Note_on_c, 0, 60, 78
2, 96480, Note_on_c, 0, 64, 78
2, 96840, Note_off_c, 0, 64, 0
2, 96840, Note_off_c, 0, 60, 0
2, 96840, Note_off_c, 0, 57, 0
2, 96840, Note_off_c, 0, 52, 0
2, 96840, Note_off_c, 0, 45, 0
2, 96840, Note_on_c, 0, 45, 78
2, 96840, Note_on_c, 0, 57, 78
2, 97020, Note_off_c, 0, 57, 0
2, 97020, Note_off_c, 0, 45, 0
2, 97020, Note_on_c, 0, 45, 78
2, 97020, Note_on_c, 0, 57, 78
2, 97200, Note_off_c, 0, 57, 0
2, 97200, Note_off_c, 0, 45, 0
2, 97200, Note_on_c, 0, 43, 78
2, 97200, Note_on_c, 0, 55, 78
2, 97380, Note_off_c, 0, 55, 0
2, 97380, Note_off_c, 0, 43, 0
2, 97380, Note_on_c, 0, 43, 78
2, 97380, Note_on_c, 0, 55, 78
2, 97560, Note_off_c, 0, 55, 0
2, 97560, Note_off_c, 0, 43, 0
2, 97560, Note_on_c, 0, 41, 78
2, 97560, Note_on_c, 0, 48, 78
2, 97560, Note_on_c, 0, 53, 78
2, 97560, Note_on_c, 0, 57, 78
2, 97560, Note_on_c, 0, 60, 78
2, 97560, Note_on_c, 0, 65, 78
2, 98280, Note_off_c, 0, 65, 0
2, 98280, Note_off_c, 0, 60, 0
2, 98280, Note_off_c, 0, 57, 0
2, 98280, Note_off_c, 0, 53, 0
2, 98280, Note_off_c, 0, 48, 0
2, 98280, Note_off_c, 0, 41, 0
2, 98280, Note_on_c, 0, 41, 78
2, 98640, Note_off_c, 0, 41, 0
2, 98640, Note_on_c, 0, 41, 78
2, 98640, Note_on_c, 0, 48, 78
2, 98640, Note_on_c, 0, 53, 78
2, 98640, Note_on_c, 0, 57, 78
2, 98640, Note_on_c, 0, 60, 78
2, 98640, Note_on_c, 0, 65, 78
2, 99180, Note_off_c, 0, 65, 0
2, 99180, Note_off_c, 0, 60, 0
2, 99180, Note_off_c, 0, 57, 0
2, 99180, Note_off_c, 0, 53, 0
2, 99180, Note_off_c, 0, 48, 0
2, 99180, Note_off_c, 0, 41, 0
2, 99180, Note_on_c, 0, 53, 78
2, 99180, Note_on_c, 0, 57, 78
2, 99180, Note_on_c, 0, 60, 78
2, 99180, Note_on_c, 0, 65, 78
2, 99360, Note_off_c, 0, 65, 0
2, 99360, Note_off_c, 0, 60, 0
2, 99360, Note_off_c, 0, 57, 0
2, 99360, Note_off_c, 0, 53, 0
2, 99360, Note_on_c, 0, 41, 78
2, 99360, Note_on_c, 0, 48, 78
2, 99360, Note_on_c, 0, 53, 78
2, 99360, Note_on_c, 0, 57, 78
2, 99360, Note_on_c, 0, 60, 78
2, 99360, Note_on_c, 0, 65, 78
2, 99720, Note_off_c, 0, 65, 0
2, 99720, Note_off_c, 0, 60, 0
2, 99720, Note_off_c, 0, 57, 0
2, 99720, Note_off_c, 0, 53, 0
2, 99720, Note_off_c, 0, 48, 0
2, 99720, Note_off_c, 0, 41, 0
2, 99720, Note_on_c, 0, 45, 78
2, 99720, Note_on_c, 0, 57, 78
2, 99900, Note_off_c, 0, 57, 0
2, 99900, Note_off_c, 0, 45, 0
2, 99900, Note_on_c, 1, 45, 78
2, 99900, Note_on_c, 1, 57, 78
2, 99920, Pitch_bend_c, 1, 8112
2, 99940, Pitch_bend_c, 1, 8037
2, 99960, Pitch_bend_c, 1, 7962
2, 99980, Pitch_bend_c, 1, 7887
2, 100000, Pitch_bend_c, 1, 7812
2, 100020, Pitch_bend_c, 1, 7737
2, 100040, Pitch_bend_c, 1, 7662
2, 100060, Pitch_bend_c, 1, 7587
2, 100080, Pitch_bend_c, 1, 7512
2, 100260, Note_off_c, 1, 57, 0
2, 100260, Note_off_c, 1, 45, 0
2, 100260, Pitch_bend_c, 1, 8192
2, 100260, Note_on_c, 1, 45, 78
2, 100260, Note_on_c, 1, 57, 78
2, 100280, Pitch_bend_c, 1, 8112
2, 100300, Pitch_bend_c, 1, 8037
2, 100320, Pitch_bend_c, 1, 7962
2, 100340, Pitch_bend_c, 1, 7887
2, 100360, Pitch_bend_c, 1, 7812
2, 100380, Pitch_bend_c, 1, 7737
2, 100400, Pitch_bend_c, 1, 7662
2, 100420, Pitch_bend_c, 1, 7587
2, 100440, Pitch_bend_c, 1, 7512
2, 100620, Note_off_c, 1, 57, 0
2, 100620, Note_off_c, 1, 45, 0
2, 100620, Pitch_bend_c, 1, 8192
2, 100620, Note_on_c, 0, 45, 78
2, 100620, Note_on_c, 0, 57, 78
2, 100800, Note_off_c, 0, 57, 0
2, 100800, Note_off_c, 0, 45, 0
2, 100800, Note_on_c, 0, 45, 78
2, 100800, Note_on_c, 0, 52, 78
2, 100800, Note_on_c, 0, 57, 78
2, 100800, Note_on_c, 0, 60, 78
2, 100800, Note_on_c, 0, 64, 78
2, 101520, Note_off_c, 0, 64, 0
2, 101520, Note_off_c, 0, 60, 0
2, 101520, Note_off_c, 0, 57, 0
2, 101520, Note_off_c, 0, 52, 0
2, 101520, Note_off_c, 0, 45, 0
2, 101520, Note_on_c, 0, 45, 78
2, 101520, Note_on_c, 0, 52, 78
2, 101520, Note_on_c, 0, 57, 78
2, 101520, Note_on_c, 0, 60, 78
2, 101520, Note_on_c, 0, 64, 78
2, 101520, Note_on_c, 0, 69, 78
2, 102060, Note_off_c, 0, 69, 0
2, 102060, Note_off_c, 0, 64, 0
2, 102060, Note_off_c, 0, 60, 0
2, 102060, Note_off_c, 0, 57, 0
2, 102060, Note_off_c, 0, 52, 0
2, 102060, Note_off_c, 0, 45, 0
2, 102060, Note_on_c, 0, 57, 78
2, 102060, Note_on_c, 0, 60, 78
2, 102060, Note_on_c, 0, 64, 78
2, 102060, Note_on_c, 0, 69, 78
2, 102240, Note_off_c, 0, 69, 0
2, 102240, Note_off_c, 0, 64, 0
2, 102240, Note_off_c, 0, 60, 0
2, 102240, Note_off_c, 0, 57, 0
2, 102240, Note_on_c, 0, 45, 78
2, 102240, Note_on_c, 0, 52, 78
2, 102240, Note_on_c, 0, 57, 78
2, 102240, Note_on_c, 0, 60, 78
2, 102240, Note_on_c, 0, 64, 78
2, 102600, Note_off_c, 0, 64, 0
2, 102600, Note_off_c, 0, 60, 0
2, 102600, Note_off_c, 0, 57, 0
2, 102600, Note_off_c, 0, 52, 0
2, 102600, Note_off_c, 0, 45, 0
2, 102600, Note_on_c, 0, 45, 78
2, 102600, Note_on_c, 0, 57, 78
2, 102780, Note_off_c, 0, 57, 0
2, 102780, Note_off_c, 0, 45, 0
2, 102780, Note_on_c, 0, 45, 78
2, 102780, Note_on_c, 0, 57, 78
2, 102960, Note_off_c, 0, 57, 0
2, 102960, Note_off_c, 0, 45, 0
2, 102960, Note_on_c, 0, 43, 78
2, 102960, Note_on_c, 0, 55, 78
2, 103140, Note_off_c, 0, 55, 0
2, 103140, Note_off_c, 0, 43, 0
2, 103140, Note_on_c, 0, 43, 78
2, 103140, Note_on_c, 0, 55, 78
2, 103320, Note_off_c, 0, 55, 0
2, 103320, Note_off_c, 0, 43, 0
2, 103320, Note_on_c, 0, 41, 78
2, 103320, Note_on_c, 0, 48, 78
2, 103320, Note_on_c, 0, 53, 78
2, 103320, Note_on_c, 0, 57, 78
2, 103320, Note_on_c, 0, 60, 78
2, 103320, Note_on_c, 0, 65, 78
2, 104040, Note_off_c, 0, 65, 0
2, 104040, Note_off_c, 0, 60, 0
2, 104040, Note_off_c, 0, 57, 0
2, 104040, Note_off_c, 0, 53, 0
2, 104040, Note_off_c, 0, 48, 0
2, 104040, Note_off_c, 0, 41, 0
2, 104040, Note_on_c, 0, 41, 78
2, 104400, Note_off_c, 0, 41, 0
2, 104400, Note_on_c, 0, 41, 78
2, 104400, Note_on_c, 0, 48, 78
2, 104400, Note_on_c, 0, 53, 78
2, 104400, Note_on_c, 0, 57, 78
2, 104400, Note_on_c, 0, 60, 78
2, 104400, Note_on_c, 0, 65, 78
2, 104940, Note_off_c, 0, 65, 0
2, 104940, Note_off_c, 0, 60, 0
2, 104940, Note_off_c, 0, 57, 0
2, 104940, Note_off_c, 0, 53, 0
2, 104940, Note_off_c, 0, 48, 0
2, 104940, Note_off_c, 0, 41, 0
2, 104940, Note_on_c, 0, 53, 78
2, 104940, Note_on_c, 0, 57, 78
2, 104940, Note_on_c, 0, 60, 78
2, 104940, Note_on_c, 0, 65, 78
2, 105120, Note_off_c, 0, 65, 0
2, 105120, Note_off_c, 0, 60, 0
2, 105120, Note_off_c, 0, 57, 0
2, 105120, Note_off_c, 0, 53, 0
2, 105120, Note_on_c, 0, 41, 78
2, 105120, Note_on_c, 0, 48, 78
2, 105120, Note_on_c, 0, 53, 78
2, 105120, Note_on_c, 0, 57, 78
2, 105120, Note_on_c, 0, 60, 78
2, 105120, Note_on_c, 0, 65, 78
2, 105480, Note_off_c, 0, 65, 0
2, 105480, Note_off_c, 0, 60, 0
2, 105480, Note_off_c, 0, 57, 0
2, 105480, Note_off_c, 0, 53, 0
2, 105480, Note_off_c, 0, 48, 0
2, 105480, Note_off_c, 0, 41, 0
2, 105480, Note_on_c, 0, 45, 78
2, 105480, Note_on_c, 0, 57, 78
2, 105660, Note_off_c, 0, 57, 0
2, 105660, Note_off_c, 0, 45, 0
2, 105660, Note_on_c, 0, 45, 78
2, 105660, Note_on_c, 0, 57, 78
2, 105840, Note_off_c, 0, 57, 0
2, 105840, Note_off_c, 0, 45, 0
2, 105840, Note_on_c, 0, 43, 78
2, 105840, Note_on_c, 0, 55, 78
2, 106020, Note_off_c, 0, 55, 0
2, 106020, Note_off_c, 0, 43, 0
2, 106020, Note_on_c, 0, 44, 78
2, 106020, Note_on_c, 0, 56, 78
2, 106200, Note_off_c, 0, 56, 0
2, 106200, Note_off_c, 0, 44, 0
2, 106200, Note_on_c, 0, 43, 78
2, 106200, Note_on_c, 0, 55, 78
2, 106380, Note_off_c, 0, 55, 0
2, 106380, Note_off_c, 0, 43, 0
2, 106380, Note_on_c, 0, 44, 78
2, 106380, Note_on_c, 0, 56, 78
2, 106560, Note_off_c, 0, 56, 0
2, 106560, Note_off_c, 0, 44, 0
2, 106560, Note_on_c, 0, 41, 78
2, 106560, Note_on_c, 0, 48, 78
2, 106560, Note_on_c, 0, 53, 78
2, 106560, Note_on_c, 0, 56, 78
2, 106560, Note_on_c, 0, 60, 78
2, 106560, Note_on_c, 0, 65, 78
2, 107280, Note_off_c, 0, 65, 0
2, 107280, Note_off_c, 0, 60, 0
2, 107280, Note_off_c, 0, 56, 0
2, 107280, Note_off_c, 0, 53, 0
2, 107280, Note_off_c, 0, 48, 0
2, 107280, Note_off_c, 0, 41, 0
2, 107280, Note_on_c, 0, 41, 78
2, 107280, Note_on_c, 0, 48, 78
2, 107280, Note_on_c, 0, 53, 78
2, 107280, Note_on_c, 0, 56, 78
2, 107280, Note_on_c, 0, 60, 78
2, 107280, Note_on_c, 0, 65, 78
2, 107820, Note_off_c, 0, 65, 0
2, 107820, Note_off_c, 0, 60, 0
2, 107820, Note_off_c, 0, 56, 0
2, 107820, Note_off_c, 0, 53, 0
2, 107820, Note_off_c, 0, 48, 0
2, 107820, Note_off_c, 0, 41, 0
2, 107820, Note_on_c, 0, 53, 78
2, 107820, Note_on_c, 0, 56, 78
2, 107820, Note_on_c, 0, 60, 78
2, 107820, Note_on_c, 0, 65, 78
2, 108000, Note_off_c, 0, 65, 0
2, 108000, Note_off_c, 0, 60, 0
2, 108000, Note_off_c, 0, 56, 0
2, 108000, Note_off_c, 0, 53, 0
2, 108000, Note_on_c, 0, 41, 78
2, 108000, Note_on_c, 0, 48, 78
2, 108000, Note_on_c, 0, 53, 78
2, 108000, Note_on_c, 0, 56, 78
2, 108000, Note_on_c, 0, 60, 78
2, 108360, Note_off_c, 0, 60, 0
2, 108360, Note_off_c, 0, 56, 0
2, 108360, Note_off_c, 0, 53, 0
2, 108360, Note_off_c, 0, 48, 0
2, 108360, Note_off_c, 0, 41, 0
2, 108360, Note_on_c, 0, 44, 78
2, 108360, Note_on_c, 0, 56, 78
2, 108540, Note_off_c, 0, 56, 0
2, 108540, Note_off_c, 0, 44, 0
2, 108540, Note_on_c, 0, 44, 78
2, 108540, Note_on_c, 0, 56, 78
2, 108720, Note_off_c, 0, 56, 0
2, 108720, Note_off_c, 0, 44, 0
2, 108720, Note_on_c, 0, 44, 78
2, 108720, Note_on_c, 0, 56, 78
2, 108900, Note_off_c, 0, 56, 0
2, 108900, Note_off_c, 0, 44, 0
2, 108900, Note_on_c, 0, 44, 78
2, 108900, Note_on_c, 0, 56, 78
2, 109080, Note_off_c, 0, 56, 0
2, 109080, Note_off_c, 0, 44, 0
2, 109080, Note_on_c, 0, 43, 78
2, 109080, Note_on_c, 0, 55, 78
2, 109260, Note_off_c, 0, 55, 0
2, 109260, Note_off_c, 0, 43, 0
2, 109260, Note_on_c, 0, 43, 78
2, 109260, Note_on_c, 0, 55, 78
2, 109440, Note_off_c, 0, 55, 0
2, 109440, Note_off_c, 0, 43, 0
2, 109440, Note_on_c, 0, 43, 78
2, 109440, Note_on_c, 0, 48, 78
2, 109440, Note_on_c, 0, 52, 78
2, 109440, Note_on_c, 0, 55, 78
2, 109440, Note_on_c, 0, 60, 78
2, 109440, Note_on_c, 0, 64, 78
2, 112320, Note_off_c, 0, 64, 0
2, 112320, Note_off_c, 0, 60, 0
2, 112320, Note_off_c, 0, 55, 0
2, 112320, Note_off_c, 0, 52, 0
2, 112320, Note_off_c, 0, 48, 0
2, 112320, Note_off_c, 0, 43, 0
2, 112320, Note_on_c, 1, 52, 78
2, 112356, Pitch_bend_c, 1, 7924
2, 112392, Pitch_bend_c, 1, 7660
2, 112428, Pitch_bend_c, 1, 7396
2, 112464, Pitch_bend_c, 1, 7132
2, 112500, Pitch_bend_c, 1, 6868
2, 112536, Pitch_bend_c, 1, 6604
2, 112572, Pitch_bend_c, 1, 6340
2, 112608, Pitch_bend_c, 1, 6076
2, 112644, Pitch_bend_c, 1, 5812
2, 112680, Note_off_c, 1, 52, 0
2, 112680, Pitch_bend_c, 1, 8192
2, 112680, Note_on_c, 0, 45, 78
2, 112680, Note_on_c, 0, 52, 78
2, 113040, Note_off_c, 0, 52, 0
2, 113040, Note_off_c, 0, 45, 0
2, 113040, Note_on_c, 0, 45, 78
2, 113040, Note_on_c, 0, 52, 78
2, 113400, Note_off_c, 0, 52, 0
2, 113400, Note_off_c, 0, 45, 0
2, 113400, Note_on_c, 0, 45, 78
2, 113400, Note_on_c, 0, 52, 78
2, 113760, Note_off_c, 0, 52, 0
2, 113760, Note_off_c, 0, 45, 0
2, 113760, Note_on_c, 1, 52, 78
2, 113796, Pitch_bend_c, 1, 7924
2, 113832, Pitch_bend_c, 1, 7660
2, 113868, Pitch_bend_c, 1, 7396
2, 113904, Pitch_bend_c, 1, 7132
2, 113940, Pitch_bend_c, 1, 6868
2, 113976, Pitch_bend_c, 1, 6604
2, 114012, Pitch_bend_c, 1, 6340
2, 114048, Pitch_bend_c, 1, 6076
2, 114084, Pitch_bend_c, 1, 5812
2, 114120, Note_off_c, 1, 52, 0
2, 114120, Pitch_bend_c, 1, 8192
2, 114120, Note_on_c, 0, 45, 78
2, 114120, Note_on_c, 0, 52, 78
2, 114480, Note_off_c, 0, 52, 0
2, 114480, Note_off_c, 0, 45, 0
2, 114480, Note_on_c, 0, 45, 78
2, 114480, Note_on_c, 0, 52, 78
2, 114840, Note_off_c, 0, 52, 0
2, 114840, Note_off_c, 0, 45, 0
2, 114840, Note_on_c, 0, 45, 78
2, 114840, Note_on_c, 0, 52, 78
2, 115200, Note_off_c, 0, 52, 0
2, 115200, Note_off_c, 0, 45, 0
2, 115200, Note_on_c, 1, 52, 78
2, 115236, Pitch_bend_c, 1, 7924
2, 115272, Pitch_bend_c, 1, 7660
2, 115308, Pitch_bend_c, 1, 7396
2, 115344, Pitch_bend_c, 1, 7132
2, 115380, Pitch_bend_c, 1, 6868
2, 115416, Pitch_bend_c, 1, 6604
2, 115452, Pitch_bend_c, 1, 6340
2, 115488, Pitch_bend_c, 1, 6076
2, 115524, Pitch_bend_c, 1, 5812
2, 115560, Note_off_c, 1, 52, 0
2, 115560, Pitch_bend_c, 1, 8192
2, 115560, Note_on_c, 0, 45, 78
2, 115560, Note_on_c, 0, 52, 78
2, 115920, Note_off_c, 0, 52, 0
2, 115920, Note_off_c, 0, 45, 0
2, 115920, Note_on_c, 0, 45, 78
2, 115920, Note_on_c, 0, 52, 78
2, 116280, Note_off_c, 0, 52, 0
2, 116280, Note_off_c, 0, 45, 0
2, 116280, Note_on_c, 0, 45, 78
2, 116280, Note_on_c, 0, 52, 78
2, 116640, Note_off_c, 0, 52, 0
2, 116640, Note_off_c, 0, 45, 0
2, 116640, Note_on_c, 1, 52, 78
2, 116676, Pitch_bend_c, 1, 7924
2, 116712, Pitch_bend_c, 1, 7660
2, 116748, Pitch_bend_c, 1, 7396
2, 116784, Pitch_bend_c, 1, 7132
2, 116820, Pitch_bend_c, 1, 6868
2, 116856, Pitch_bend_c, 1, 6604
2, 116892, Pitch_bend_c, 1, 6340
2, 116928, Pitch_bend_c, 1, 6076
2, 116964, Pitch_bend_c, 1, 5812
2, 117000, Note_off_c, 1, 52, 0
2, 117000, Pitch_bend_c, 1, 8192
2, 117000, Note_on_c, 0, 45, 78
2, 117000, Note_on_c, 0, 52, 78
2, 117360, Note_off_c, 0, 52, 0
2, 117360, Note_off_c, 0, 45, 0
2, 117360, Note_on_c, 0, 45, 78
2, 117360, Note_on_c, 0, 52, 78
2, 117720, Note_off_c, 0, 52, 0
2, 117720, Note_off_c, 0, 45, 0
2, 117720, Note_on_c, 0, 45, 78
2, 117720, Note_on_c, 0, 52, 78
2, 118080, Note_off_c, 0, 52, 0
2, 118080, Note_off_c, 0, 45, 0
2, 118080, Note_on_c, 1, 52, 78
2, 118116, Pitch_bend_c, 1, 7924
2, 118152, Pitch_bend_c, 1, 7660
2, 118188, Pitch_bend_c, 1, 7396
2, 118224, Pitch_bend_c, 1, 7132
2, 118260, Pitch_bend_c, 1, 6868
2, 118296, Pitch_bend_c, 1, 6604
2, 118332, Pitch_bend_c, 1, 6340
2, 118368, Pitch_bend_c, 1, 6076
2, 118404, Pitch_bend_c, 1, 5812
2, 118440, Note_off_c, 1, 52, 0
2, 118440, Pitch_bend_c, 1, 8192
2, 118440, Note_on_c, 0, 45, 78
2, 118440, Note_on_c, 0, 52, 78
2, 118800, Note_off_c, 0, 52, 0
2, 118800, Note_off_c, 0, 45, 0
2, 118800, Note_on_c, 0, 45, 78
2, 118800, Note_on_c, 0, 52, 78
2, 119160, Note_off_c, 0, 52, 0
2, 119160, Note_off_c, 0, 45, 0
2, 119160, Note_on_c, 0, 45, 78
2, 119160, Note_on_c, 0, 52, 78
2, 119520, Note_off_c, 0, 52, 0
2, 119520, Note_off_c, 0, 45, 0
2, 119520, Note_on_c, 1, 52, 78
2, 119556, Pitch_bend_c, 1, 7924
2, 119592, Pitch_bend_c, 1, 7660
2, 119628, Pitch_bend_c, 1, 7396
2, 119664, Pitch_bend_c, 1, 7132
2, 119700, Pitch_bend_c, 1, 6868
2, 119736, Pitch_bend_c, 1, 6604
2, 119772, Pitch_bend_c, 1, 6340
2, 119808, Pitch_bend_c, 1, 6076
2, 119844, Pitch_bend_c, 1, 5812
2, 119880, Note_off_c, 1, 52, 0
2, 119880, Pitch_bend_c, 1, 8192
2, 119880, Note_on_c, 0, 45, 78
2, 119880, Note_on_c, 0, 52, 78
2, 120240, Note_off_c, 0, 52, 0
2, 120240, Note_off_c, 0, 45, 0
2, 120240, Note_on_c, 0, 45, 78
2, 120240, Note_on_c, 0, 52, 78
2, 120600, Note_off_c, 0, 52, 0
2, 120600, Note_off_c, 0, 45, 0
2, 120600, Note_on_c, 0, 45, 78
2, 120600, Note_on_c, 0, 52, 78
2, 120960, Note_off_c, 0, 52, 0
2, 120960, Note_off_c, 0, 45, 0
2, 120960, Note_on_c, 1, 52, 78
2, 120996, Pitch_bend_c, 1, 7924
2, 121032, Pitch_bend_c, 1, 7660
2, 121068, Pitch_bend_c, 1, 7396
2, 121104, Pitch_bend_c, 1, 7132
2, 121140, Pitch_bend_c, 1, 6868
2, 121176, Pitch_bend_c, 1, 6604
2, 121212, Pitch_bend_c, 1, 6340
2, 121248, Pitch_bend_c, 1, 6076
2, 121284, Pitch_bend_c, 1, 5812
2, 121320, Note_off_c, 1, 52, 0
2, 121320, Pitch_bend_c, 1, 8192
2, 121320, Note_on_c, 0, 45, 78
2, 121320, Note_on_c, 0, 52, 78
2, 121680, Note_off_c, 0, 52, 0
2, 121680, Note_off_c, 0, 45, 0
2, 121680, Note_on_c, 0, 45, 78
2, 121680, Note_on_c, 0, 52, 78
2, 122040, Note_off_c, 0, 52, 0
2, 122040, Note_off_c, 0, 45, 0
2, 122040, Note_on_c, 0, 45, 78
2, 122040, Note_on_c, 0, 52, 78
2, 122400, Note_off_c, 0, 52, 0
2, 122400, Note_off_c, 0, 45, 0
2, 122400, Note_on_c, 1, 52, 78
2, 122436, Pitch_bend_c, 1, 7924
2, 122472, Pitch_bend_c, 1, 7660
2, 122508, Pitch_bend_c, 1, 7396
2, 122544, Pitch_bend_c, 1, 7132
2, 122580, Pitch_bend_c, 1, 6868
2, 122616, Pitch_bend_c, 1, 6604
2, 122652, Pitch_bend_c, 1, 6340
2, 122688, Pitch_bend_c, 1, 6076
2, 122724, Pitch_bend_c, 1, 5812
2, 122760, Note_off_c, 1, 52, 0
2, 122760, Pitch_bend_c, 1, 8192
2, 122760, Note_on_c, 0, 45, 78
2, 122760, Note_on_c, 0, 52, 78
2, 123120, Note_off_c, 0, 52, 0
2, 123120, Note_off_c, 0, 45, 0
2, 123120, Note_on_c, 0, 45, 78
2, 123120, Note_on_c, 0, 52, 78
2, 123480, Note_off_c, 0, 52, 0
2, 123480, Note_off_c, 0, 45, 0
2, 123480, Note_on_c, 0, 45, 78
2, 123480, Note_on_c, 0, 52, 78
2, 123840, Note_off_c, 0, 52, 0
2, 123840, Note_off_c, 0, 45, 0
2, 123840, Note_on_c, 1, 52, 78
2, 123876, Pitch_bend_c, 1, 8040
2, 123912, Pitch_bend_c, 1, 7889
2, 123948, Pitch_bend_c, 1, 7738
2, 123984, Pitch_bend_c, 1, 7587
2, 124020, Pitch_bend_c, 1, 7436
2, 124056, Pitch_bend_c, 1, 7285
2, 124092, Pitch_bend_c, 1, 7134
2, 124128, Pitch_bend_c, 1, 6983
2, 124164, Pitch_bend_c, 1, 6832
2, 124200, Note_off_c, 1, 52, 0
2, 124200, Pitch_bend_c, 1, 8192
2, 124200, Note_on_c, 0, 48, 78
2, 124200, Note_on_c, 0, 55, 78
2, 124560, Note_off_c, 0, 55, 0
2, 124560, Note_off_c, 0, 48, 0
2, 124560, Note_on_c, 0, 48, 78
2, 124560, Note_on_c, 0, 55, 78
2, 124920, Note_off_c, 0, 55, 0
2, 124920, Note_off_c, 0, 48, 0
2, 124920, Note_on_c, 0, 48, 78
2, 124920, Note_on_c, 0, 55, 78
2, 125280, Note_off_c, 0, 55, 0
2, 125280, Note_off_c, 0, 48, 0
2, 125280, Note_on_c, 1, 52, 78
2, 125316, Pitch_bend_c, 1, 8040
2, 125352, Pitch_bend_c, 1, 7889
2, 125388, Pitch_bend_c, 1, 7738
2, 125424, Pitch_bend_c, 1, 7587
2, 125460, Pitch_bend_c, 1, 7436
2, 125496, Pitch_bend_c, 1, 7285
2, 125532, Pitch_bend_c, 1, 7134
2, 125568, Pitch_bend_c, 1, 6983
2, 125604, Pitch_bend_c, 1, 6832
2, 125640, Note_off_c, 1, 52, 0
2, 125640, Pitch_bend_c, 1, 8192
2, 125640, Note_on_c, 0, 48, 78
2, 125640, Note_on_c, 0, 55, 78
2, 126000, Note_off_c, 0, 55, 0
2, 126000, Note_off_c, 0, 48, 0
2, 126000, Note_on_c, 0, 48, 78
2, 126000, Note_on_c, 0, 55, 78
2, 126360, Note_off_c, 0, 55, 0
2, 126360, Note_off_c, 0, 48, 0
2, 126360, Note_on_c, 0, 48, 78
2, 126360, Note_on_c, 0, 55, 78
2, 126720, Note_off_c, 0, 55, 0
2, 126720, Note_off_c, 0, 48, 0
2, 126720, Note_on_c, 1, 55, 78
2, 126756, Pitch_bend_c, 1, 7924
2, 126792, Pitch_bend_c, 1, 7660
2, 126828, Pitch_bend_c, 1, 7396
2, 126864, Pitch_bend_c, 1, 7132
2, 126900, Pitch_bend_c, 1, 6868
2, 126936, Pitch_bend_c, 1, 6604
2, 126972, Pitch_bend_c, 1, 6340
2, 127008, Pitch_bend_c, 1, 6076
2, 127044, Pitch_bend_c, 1, 5812
2, 127080, Note_off_c, 1, 55, 0
2, 127080, Pitch_bend_c, 1, 8192
2, 127080, Note_on_c, 0, 48, 78
2, 127080, Note_on_c, 0, 55, 78
2, 127440, Note_off_c, 0, 55, 0
2, 127440, Note_off_c, 0, 48, 0
2, 127440, Note_on_c, 0, 48, 78
2, 127440, Note_on_c, 0, 55, 78
2, 127800, Note_off_c, 0, 55, 0
2, 127800, Note_off_c, 0, 48, 0
2, 127800, Note_on_c, 0, 48, 78
2, 127800, Note_on_c, 0, 55, 78
2, 128160, Note_off_c, 0, 55, 0
2, 128160, Note_off_c, 0, 48, 0
2, 128160, Note_on_c, 1, 52, 78
2, 128196, Pitch_bend_c, 1, 8040
2, 128232, Pitch_bend_c, 1, 7889
2, 128268, Pitch_bend_c, 1, 7738
2, 128304, Pitch_bend_c, 1, 7587
2, 128340, Pitch_bend_c, 1, 7436
2, 128376, Pitch_bend_c, 1, 7285
2, 128412, Pitch_bend_c, 1, 7134
2, 128448, Pitch_bend_c, 1, 6983
2, 128484, Pitch_bend_c, 1, 6832
2, 128520, Note_off_c, 1, 52, 0
2, 128520, Pitch_bend_c, 1, 8192
2, 128520, Note_on_c, 0, 48, 78
2, 128520, Note_on_c, 0, 55, 78
2, 128880, Note_off_c, 0, 55, 0
2, 128880, Note_off_c, 0, 48, 0
2, 128880, Note_on_c, 0, 48, 78
2, 128880, Note_on_c, 0, 55, 78
2, 129240, Note_off_c, 0, 55, 0
2, 129240, Note_off_c, 0, 48, 0
2, 129240, Note_on_c, 0, 48, 78
2, 129240, Note_on_c, 0, 55, 78
2, 129600, Note_off_c, 0, 55, 0
2, 129600, Note_off_c, 0, 48, 0
2, 129600, Note_on_c, 1, 47, 78
2, 129636, Pitch_bend_c, 1, 7960
2, 129672, Pitch_bend_c, 1, 7734
2, 129708, Pitch_bend_c, 1, 7508
2, 129744, Pitch_bend_c, 1, 7282
2, 129780, Pitch_bend_c, 1, 7056
2, 129816, Pitch_bend_c, 1, 6830
2, 129852, Pitch_bend_c, 1, 6604
2, 129888, Pitch_bend_c, 1, 6378
2, 129924, Pitch_bend_c, 1, 6152
2, 129960, Note_off_c, 1, 47, 0
2, 129960, Pitch_bend_c, 1, 8192
2, 129960, Note_on_c, 0, 41, 78
2, 129960, Note_on_c, 0, 48, 78
2, 130320, Note_off_c, 0, 48, 0
2, 130320, Note_off_c, 0, 41, 0
2, 130320, Note_on_c, 0, 41, 78
2, 130320, Note_on_c, 0, 48, 78
2, 130680, Note_off_c, 0, 48, 0
2, 130680, Note_off_c, 0, 41, 0
2, 130680, Note_on_c, 0, 41, 78
2, 130680, Note_on_c, 0, 48, 78
2, 131040, Note_off_c, 0, 48, 0
2, 131040, Note_off_c, 0, 41, 0
2, 131040, Note_on_c, 1, 47, 78
2, 131076, Pitch_bend_c, 1, 7960
2, 131112, Pitch_bend_c, 1, 7734
2, 131148, Pitch_bend_c, 1, 7508
2, 131184, Pitch_bend_c, 1, 7282
2, 131220, Pitch_bend_c, 1, 7056
2, 131256, Pitch_bend_c, 1, 6830
2, 131292, Pitch_bend_c, 1, 6604
2, 131328, Pitch_bend_c, 1, 6378
2, 131364, Pitch_bend_c, 1, 6152
2, 131400, Note_off_c, 1, 47, 0
2, 131400, Pitch_bend_c, 1, 8192
2, 131400, Note_on_c, 0, 41, 78
2, 131400, Note_on_c, 0, 48, 78
2, 131760, Note_off_c, 0, 48, 0
2, 131760, Note_off_c, 0, 41, 0
2, 131760, Note_on_c, 0, 41, 78
2, 131760, Note_on_c, 0, 48, 78
2, 132120, Note_off_c, 0, 48, 0
2, 132120, Note_off_c, 0, 41, 0
2, 132120, Note_on_c, 0, 41, 78
2, 132120, Note_on_c, 0, 48, 78
2, 132480, Note_off_c, 0, 48, 0
2, 132480, Note_off_c, 0, 41, 0
2, 132480, Note_on_c, 1, 47, 78
2, 132516, Pitch_bend_c, 1, 7960
2, 132552, Pitch_bend_c, 1, 7734
2, 132588, Pitch_bend_c, 1, 7508
2, 132624, Pitch_bend_c, 1, 7282
2, 132660, Pitch_bend_c, 1, 7056
2, 132696, Pitch_bend_c, 1, 6830
2, 132732, Pitch_bend_c, 1, 6604
2, 132768, Pitch_bend_c, 1, 6378
2, 132804, Pitch_bend_c, 1, 6152
2, 132840, Note_off_c, 1, 47, 0
2, 132840, Pitch_bend_c, 1, 8192
2, 132840, Note_on_c, 0, 41, 78
2, 132840, Note_on_c, 0, 48, 78
2, 133200, Note_off_c, 0, 48, 0
2, 133200, Note_off_c, 0, 41, 0
2, 133200, Note_on_c, 0, 41, 78
2, 133200, Note_on_c, 0, 48, 78
2, 133560, Note_off_c, 0, 48, 0
2, 133560, Note_off_c, 0, 41, 0
2, 133560, Note_on_c, 0, 41, 78
2, 133560, Note_on_c, 0, 48, 78
2, 133920, Note_off_c, 0, 48, 0
2, 133920, Note_off_c, 0, 41, 0
2, 133920, Note_on_c, 1, 47, 78
2, 133956, Pitch_bend_c, 1, 7960
2, 133992, Pitch_bend_c, 1, 7734
2, 134028, Pitch_bend_c, 1, 7508
2, 134064, Pitch_bend_c, 1, 7282
2, 134100, Pitch_bend_c, 1, 7056
2, 134136, Pitch_bend_c, 1, 6830
2, 134172, Pitch_bend_c, 1, 6604
2, 134208, Pitch_bend_c, 1, 6378
2, 134244, Pitch_bend_c, 1, 6152
2, 134280, Note_off_c, 1, 47, 0
2, 134280, Pitch_bend_c, 1, 8192
2, 134280, Note_on_c, 0, 41, 78
2, 134280, Note_on_c, 0, 48, 78
2, 134640, Note_off_c, 0, 48, 0
2, 134640, Note_off_c, 0, 41, 0
2, 134640, Note_on_c, 0, 41, 78
2, 134640, Note_on_c, 0, 48, 78
2, 135000, Note_off_c, 0, 48, 0
2, 135000, Note_off_c, 0, 41, 0
2, 135000, Note_on_c, 0, 41, 78
2, 135000, Note_on_c, 0, 48, 78
2, 135360, Note_off_c, 0, 48, 0
2, 135360, Note_off_c, 0, 41, 0
2, 135360, Note_on_c, 1, 47, 78
2, 135396, Pitch_bend_c, 1, 8040
2, 135432, Pitch_bend_c, 1, 7889
2, 135468, Pitch_bend_c, 1, 7738
2, 135504, Pitch_bend_c, 1, 7587
2, 135540, Pitch_bend_c, 1, 7436
2, 135576, Pitch_bend_c, 1, 7285
2, 135612, Pitch_bend_c, 1, 7134
2, 135648, Pitch_bend_c, 1, 6983
2, 135684, Pitch_bend_c, 1, 6832
2, 135720, Note_off_c, 1, 47, 0
2, 135720, Pitch_bend_c, 1, 8192
2, 135720, Note_on_c, 0, 43, 78
2, 135720, Note_on_c, 0, 50, 78
2, 136080, Note_off_c, 0, 50, 0
2, 136080, Note_off_c, 0, 43, 0
2, 136080, Note_on_c, 0, 43, 78
2, 136080, Note_on_c, 0, 50, 78
2, 136440, Note_off_c, 0, 50, 0
2, 136440, Note_off_c, 0, 43, 0
2, 136440, Note_on_c, 0, 43, 78
2, 136440, Note_on_c, 0, 50, 78
2, 136800, Note_off_c, 0, 50, 0
2, 136800, Note_off_c, 0, 43, 0
2, 136800, Note_on_c, 1, 48, 78
2, 136836, Pitch_bend_c, 1, 7996
2, 136872, Pitch_bend_c, 1, 7808
2, 136908, Pitch_bend_c, 1, 7620
2, 136944, Pitch_bend_c, 1, 7432
2, 136980, Pitch_bend_c, 1, 7244
2, 137016, Pitch_bend_c, 1, 7056
2, 137052, Pitch_bend_c, 1, 6868
2, 137088, Pitch_bend_c, 1, 6680
2, 137124, Pitch_bend_c, 1, 6492
2, 137160, Note_off_c, 1, 48, 0
2, 137160, Pitch_bend_c, 1, 8192
2, 137160, Note_on_c, 0, 43, 78
2, 137160, Note_on_c, 0, 50, 78
2, 137520, Note_off_c, 0, 50, 0
2, 137520, Note_off_c, 0, 43, 0
2, 137520, Note_on_c, 0, 43, 78
2, 137520, Note_on_c, 0, 50, 78
2, 137880, Note_off_c, 0, 50, 0
2, 137880, Note_off_c, 0, 43, 0
2, 137880, Note_on_c, 0, 43, 78
2, 137880, Note_on_c, 0, 50, 78
2, 138240, Note_off_c, 0, 50, 0
2, 138240, Note_off_c, 0, 43, 0
2, 138240, Note_on_c, 1, 47, 78
2, 138276, Pitch_bend_c, 1, 8040
2, 138312, Pitch_bend_c, 1, 7889
2, 138348, Pitch_bend_c, 1, 7738
2, 138384, Pitch_bend_c, 1, 7587
2, 138420, Pitch_bend_c, 1, 7436
2, 138456, Pitch_bend_c, 1, 7285
2, 138492, Pitch_bend_c, 1, 7134
2, 138528, Pitch_bend_c, 1, 6983
2, 138564, Pitch_bend_c, 1, 6832
2, 138600, Note_off_c, 1, 47, 0
2, 138600, Pitch_bend_c, 1, 8192
2, 138600, Note_on_c, 0, 43, 78
2, 138600, Note_on_c, 0, 50, 78
2, 138960, Note_off_c, 0, 50, 0
2, 138960, Note_off_c, 0, 43, 0
2, 138960, Note_on_c, 0, 43, 78
2, 138960, Note_on_c, 0, 50, 78
2, 139320, Note_off_c, 0, 50, 0
2, 139320, Note_off_c, 0, 43, 0
2, 139320, Note_on_c, 0, 43, 78
2, 139320, Note_on_c, 0, 50, 78
2, 139680, Note_off_c, 0, 50, 0
2, 139680, Note_off_c, 0, 43, 0
2, 139680, Note_on_c, 0, 46, 78
2, 139680, Note_on_c, 0, 53, 78
2, 140040, Note_off_c, 0, 53, 0
2, 140040, Note_off_c, 0, 46, 0
2, 140040, Note_on_c, 0, 46, 78
2, 140040, Note_on_c, 0, 53, 78
2, 140400, Note_off_c, 0, 53, 0
2, 140400, Note_off_c, 0, 46, 0
2, 140400, Note_on_c, 0, 46, 78
2, 140400, Note_on_c, 0, 53, 78
2, 140760, Note_off_c, 0, 53, 0
2, 140760, Note_off_c, 0, 46, 0
2, 140760, Note_on_c, 0, 46, 78
2, 140760, Note_on_c, 0, 53, 78
2, 141120, Note_off_c, 0, 53, 0
2, 141120, Note_off_c, 0, 46, 0
2, 141120, Note_on_c, 1, 52, 78
2, 141156, Pitch_bend_c, 1, 7924
2, 141192, Pitch_bend_c, 1, 7660
2, 141228, Pitch_bend_c, 1, 7396
2, 141264, Pitch_bend_c, 1, 7132
2, 141300, Pitch_bend_c, 1, 6868
2, 141336, Pitch_bend_c, 1, 6604
2, 141372, Pitch_bend_c, 1, 6340
2, 141408, Pitch_bend_c, 1, 6076
2, 141444, Pitch_bend_c, 1, 5812
2, 141480, Note_off_c, 1, 52, 0
2, 141480, Pitch_bend_c, 1, 8192
2, 141480, Note_on_c, 0, 45, 78
2, 141480, Note_on_c, 0, 52, 78
2, 141840, Note_off_c, 0, 52, 0
2, 141840, Note_off_c, 0, 45, 0
2, 141840, Note_on_c, 0, 45, 78
2, 141840, Note_on_c, 0, 52, 78
2, 142200, Note_off_c, 0, 52, 0
2, 142200, Note_off_c, 0, 45, 0
2, 142200, Note_on_c, 0, 45, 78
2, 142200, Note_on_c, 0, 52, 78
2, 142560, Note_off_c, 0, 52, 0
2, 142560, Note_off_c, 0, 45, 0
2, 142560, Note_on_c, 1, 52, 78
2, 142596, Pitch_bend_c, 1, 7924
2, 142632, Pitch_bend_c, 1, 7660
2, 142668, Pitch_bend_c, 1, 7396
2, 142704, Pitch_bend_c, 1, 7132
2, 142740, Pitch_bend_c, 1, 6868
2, 142776, Pitch_bend_c, 1, 6604
2, 142812, Pitch_bend_c, 1, 6340
2, 142848, Pitch_bend_c, 1, 6076
2, 142884, Pitch_bend_c, 1, 5812
2, 142920, Note_off_c, 1, 52, 0
2, 142920, Pitch_bend_c, 1, 8192
2, 142920, Note_on_c, 0, 45, 78
2, 142920, Note_on_c, 0, 52, 78
2, 143280, Note_off_c, 0, 52, 0
2, 143280, Note_off_c, 0, 45, 0
2, 143280, Note_on_c, 0, 45, 78
2, 143280, Note_on_c, 0, 52, 78
2, 143640, Note_off_c, 0, 52, 0
2, 143640, Note_off_c, 0, 45, 0
2, 143640, Note_on_c, 0, 45, 78
2, 143640, Note_on_c, 0, 52, 78
2, 144000, Note_off_c, 0, 52, 0
2, 144000, Note_off_c, 0, 45, 0
2, 144000, Note_on_c, 1, 52, 78
2, 144036, Pitch_bend_c, 1, 7924
2, 144072, Pitch_bend_c, 1, 7660
2, 144108, Pitch_bend_c, 1, 7396
2, 144144, Pitch_bend_c, 1, 7132
2, 144180, Pitch_bend_c, 1, 6868
2, 144216, Pitch_bend_c, 1, 6604
2, 144252, Pitch_bend_c, 1, 6340
2, 144288, Pitch_bend_c, 1, 6076
2, 144324, Pitch_bend_c, 1, 5812
2, 144360, Note_off_c, 1, 52, 0
2, 144360, Pitch_bend_c, 1, 8192
2, 144360, Note_on_c, 0, 45, 78
2, 144360, Note_on_c, 0, 52, 78
2, 144720, Note_off_c, 0, 52, 0
2, 144720, Note_off_c, 0, 45, 0
2, 144720, Note_on_c, 0, 45, 78
2, 144720, Note_on_c, 0, 52, 78
2, 145080, Note_off_c, 0, 52, 0
2, 145080, Note_off_c, 0, 45, 0
2, 145080, Note_on_c, 0, 45, 78
2, 145080, Note_on_c, 0, 52, 78
2, 145440, Note_off_c, 0, 52, 0
2, 145440, Note_off_c, 0, 45, 0
2, 145440, Note_on_c, 1, 52, 78
2, 145476, Pitch_bend_c, 1, 7924
2, 145512, Pitch_bend_c, 1, 7660
2, 145548, Pitch_bend_c, 1, 7396
2, 145584, Pitch_bend_c, 1, 7132
2, 145620, Pitch_bend_c, 1, 6868
2, 145656, Pitch_bend_c, 1, 6604
2, 145692, Pitch_bend_c, 1, 6340
2, 145728, Pitch_bend_c, 1, 6076
2, 145764, Pitch_bend_c, 1, 5812
2, 145800, Note_off_c, 1, 52, 0
2, 145800, Pitch_bend_c, 1, 8192
2, 145800, Note_on_c, 0, 45, 78
2, 145800, Note_on_c, 0, 52, 78
2, 146160, Note_off_c, 0, 52, 0
2, 146160, Note_off_c, 0, 45, 0
2, 146160, Note_on_c, 0, 45, 78
2, 146160, Note_on_c, 0, 52, 78
2, 146520, Note_off_c, 0, 52, 0
2, 146520, Note_off_c, 0, 45, 0
2, 146520, Note_on_c, 0, 45, 78
2, 146520, Note_on_c, 0, 52, 78
2, 146880, Note_off_c, 0, 52, 0
2, 146880, Note_off_c, 0, 45, 0
2, 146880, Note_on_c, 1, 52, 78
2, 146916, Pitch_bend_c, 1, 8040
2, 146952, Pitch_bend_c, 1, 7889
2, 146988, Pitch_bend_c, 1, 7738
2, 147024, Pitch_bend_c, 1, 7587
2, 147060, Pitch_bend_c, 1, 7436
2, 147096, Pitch_bend_c, 1, 7285
2, 147132, Pitch_bend_c, 1, 7134
2, 147168, Pitch_bend_c, 1, 6983
2, 147204, Pitch_bend_c, 1, 6832
2, 147240, Note_off_c, 1, 52, 0
2, 147240, Pitch_bend_c, 1, 8192
2, 147240, Note_on_c, 0, 48, 78
2, 147240, Note_on_c, 0, 55, 78
2, 147600, Note_off_c, 0, 55, 0
2, 147600, Note_off_c, 0, 48, 0
2, 147600, Note_on_c, 0, 48, 78
2, 147600, Note_on_c, 0, 55, 78
2, 147960, Note_off_c, 0, 55, 0
2, 147960, Note_off_c, 0, 48, 0
2, 147960, Note_on_c, 0, 48, 78
2, 147960, Note_on_c, 0, 55, 78
2, 148320, Note_off_c, 0, 55, 0
2, 148320, Note_off_c, 0, 48, 0
2, 148320, Note_on_c, 1, 52, 78
2, 148356, Pitch_bend_c, 1, 8040
2, 148392, Pitch_bend_c, 1, 7889
2, 148428, Pitch_bend_c, 1, 7738
2, 148464, Pitch_bend_c, 1, 7587
2, 148500, Pitch_bend_c, 1, 7436
2, 148536, Pitch_bend_c, 1, 7285
2, 148572, Pitch_bend_c, 1, 7134
2, 148608, Pitch_bend_c, 1, 6983
2, 148644, Pitch_bend_c, 1, 6832
2, 148680, Note_off_c, 1, 52, 0
2, 148680, Pitch_bend_c, 1, 8192
2, 148680, Note_on_c, 0, 48, 78
2, 148680, Note_on_c, 0, 55, 78
2, 149040, Note_off_c, 0, 55, 0
2, 149040, Note_off_c, 0, 48, 0
2, 149040, Note_on_c, 0, 48, 78
2, 149040, Note_on_c, 0, 55, 78
2, 149400, Note_off_c, 0, 55, 0
2, 149400, Note_off_c, 0, 48, 0
2, 149400, Note_on_c, 0, 48, 78
2, 149400, Note_on_c, 0, 55, 78
2, 149760, Note_off_c, 0, 55, 0
2, 149760, Note_off_c, 0, 48, 0
2, 149760, Note_on_c, 1, 55, 78
2, 149796, Pitch_bend_c, 1, 7924
2, 149832, Pitch_bend_c, 1, 7660
2, 149868, Pitch_bend_c, 1, 7396
2, 149904, Pitch_bend_c, 1, 7132
2, 149940, Pitch_bend_c, 1, 6868
2, 149976, Pitch_bend_c, 1, 6604
2, 150012, Pitch_bend_c, 1, 6340
2, 150048, Pitch_bend_c, 1, 6076
2, 150084, Pitch_bend_c, 1, 5812
2, 150120, Note_off_c, 1, 55, 0
2, 150120, Pitch_bend_c, 1, 8192
2, 150120, Note_on_c, 0, 48, 78
2, 150120, Note_on_c, 0, 55, 78
2, 150480, Note_off_c, 0, 55, 0
2, 150480, Note_off_c, 0, 48, 0
2, 150480, Note_on_c, 0, 48, 78
2, 150480, Note_on_c, 0, 55, 78
2, 150840, Note_off_c, 0, 55, 0
2, 150840, Note_off_c, 0, 48, 0
2, 150840, Note_on_c, 0, 48, 78
2, 150840, Note_on_c, 0, 55, 78
2, 151200, Note_off_c, 0, 55, 0
2, 151200, Note_off_c, 0, 48, 0
2, 151200, Note_on_c, 1, 52, 78
2, 151236, Pitch_bend_c, 1, 8040
2, 151272, Pitch_bend_c, 1, 7889
2, 151308, Pitch_bend_c, 1, 7738
2, 151344, Pitch_bend_c, 1, 7587
2, 151380, Pitch_bend_c, 1, 7436
2, 151416, Pitch_bend_c, 1, 7285
2, 151452, Pitch_bend_c, 1, 7134
2, 151488, Pitch_bend_c, 1, 6983
2, 151524, Pitch_bend_c, 1, 6832
2, 151560, Note_off_c, 1, 52, 0
2, 151560, Pitch_bend_c, 1, 8192
2, 151560, Note_on_c, 0, 48, 78
2, 151560, Note_on_c, 0, 55, 78
2, 151920, Note_off_c, 0, 55, 0
2, 151920, Note_off_c, 0, 48, 0
2, 151920, Note_on_c, 0, 48, 78
2, 151920, Note_on_c, 0, 55, 78
2, 152280, Note_off_c, 0, 55, 0
2, 152280, Note_off_c, 0, 48, 0
2, 152280, Note_on_c, 0, 48, 78
2, 152280, Note_on_c, 0, 55, 78
2, 152640, Note_off_c, 0, 55, 0
2, 152640, Note_off_c, 0, 48, 0
2, 152640, Note_on_c, 1, 47, 78
2, 152680, Pitch_bend_c, 1, 7960
2, 152720, Pitch_bend_c, 1, 7734
2, 152760, Pitch_bend_c, 1, 7508
2, 152800, Pitch_bend_c, 1, 7282
2, 152840, Pitch_bend_c, 1, 7056
2, 152880, Pitch_bend_c, 1, 6830
2, 152920, Pitch_bend_c, 1, 6604
2, 152960, Pitch_bend_c, 1, 6378
2, 153000, Pitch_bend_c, 1, 6152
2, 153000, Note_on_c, 0, 48, 78
2, 153360, Note_off_c, 0, 48, 0
2, 153360, Note_off_c, 1, 47, 0
2, 153360, Pitch_bend_c, 1, 8192
2, 153360, Note_on_c, 0, 41, 78
2, 153360, Note_on_c, 0, 48, 78
2, 153720, Note_off_c, 0, 48, 0
2, 153720, Note_off_c, 0, 41, 0
2, 153720, Note_on_c, 0, 41, 78
2, 153720, Note_on_c, 0, 48, 78
2, 154080, Note_off_c, 0, 48, 0
2, 154080, Note_off_c, 0, 41, 0
2, 154080, Note_on_c, 1, 47, 78
2, 154120, Pitch_bend_c, 1, 7960
2, 154160, Pitch_bend_c, 1, 7734
2, 154200, Pitch_bend_c, 1, 7508
2, 154240, Pitch_bend_c, 1, 7282
2, 154280, Pitch_bend_c, 1, 7056
2, 154320, Pitch_bend_c, 1, 6830
2, 154360, Pitch_bend_c, 1, 6604
2, 154400, Pitch_bend_c, 1, 6378
2, 154440, Pitch_bend_c, 1, 6152
2, 154440, Note_on_c, 0, 48, 78
2, 154800, Note_off_c, 0, 48, 0
2, 154800, Note_off_c, 1, 47, 0
2, 154800, Pitch_bend_c, 1, 8192
2, 154800, Note_on_c, 0, 41, 78
2, 154800, Note_on_c, 0, 48, 78
2, 155160, Note_off_c, 0, 48, 0
2, 155160, Note_off_c, 0, 41, 0
2, 155160, Note_on_c, 0, 41, 78
2, 155160, Note_on_c, 0, 48, 78
2, 155520, Note_off_c, 0, 48, 0
2, 155520, Note_off_c, 0, 41, 0
2, 155520, Note_on_c, 1, 47, 78
2, 155556, Pitch_bend_c, 1, 7960
2, 155592, Pitch_bend_c, 1, 7734
2, 155628, Pitch_bend_c, 1, 7508
2, 155664, Pitch_bend_c, 1, 7282
2, 155700, Pitch_bend_c, 1, 7056
2, 155736, Pitch_bend_c, 1, 6830
2, 155772, Pitch_bend_c, 1, 6604
2, 155808, Pitch_bend_c, 1, 6378
2, 155844, Pitch_bend_c, 1, 6152
2, 155880, Note_off_c, 1, 47, 0
2, 155880, Pitch_bend_c, 1, 8192
2, 155880, Note_on_c, 0, 41, 78
2, 155880, Note_on_c, 0, 48, 78
2, 156240, Note_off_c, 0, 48, 0
2, 156240, Note_off_c, 0, 41, 0
2, 156240, Note_on_c, 0, 41, 78
2, 156240, Note_on_c, 0, 48, 78
2, 156600, Note_off_c, 0, 48, 0
2, 156600, Note_off_c, 0, 41, 0
2, 156600, Note_on_c, 0, 41, 78
2, 156600, Note_on_c, 0, 48, 78
2, 156960, Note_off_c, 0, 48, 0
2, 156960, Note_off_c, 0, 41, 0
2, 156960, Note_on_c, 1, 47, 78
2, 156996, Pitch_bend_c, 1, 7960
2, 157032, Pitch_bend_c, 1, 7734
2, 157068, Pitch_bend_c, 1, 7508
2, 157104, Pitch_bend_c, 1, 7282
2, 157140, Pitch_bend_c, 1, 7056
2, 157176, Pitch_bend_c, 1, 6830
2, 157212, Pitch_bend_c, 1, 6604
2, 157248, Pitch_bend_c, 1, 6378
2, 157284, Pitch_bend_c, 1, 6152
2, 157320, Note_off_c, 1, 47, 0
2, 157320, Pitch_bend_c, 1, 8192
2, 157320, Note_on_c, 0, 41, 78
2, 157320, Note_on_c, 0, 48, 78
2, 157680, Note_off_c, 0, 48, 0
2, 157680, Note_off_c, 0, 41, 0
2, 157680, Note_on_c, 0, 41, 78
2, 157680, Note_on_c, 0, 48, 78
2, 158040, Note_off_c, 0, 48, 0
2, 158040, Note_off_c, 0, 41, 0
2, 158040, Note_on_c, 0, 41, 78
2, 158040, Note_on_c, 0, 48, 78
2, 158400, Note_off_c, 0, 48, 0
2, 158400, Note_off_c, 0, 41, 0
2, 158400, Note_on_c, 1, 47, 78
2, 158436, Pitch_bend_c, 1, 8040
2, 158472, Pitch_bend_c, 1, 7889
2, 158508, Pitch_bend_c, 1, 7738
2, 158544, Pitch_bend_c, 1, 7587
2, 158580, Pitch_bend_c, 1, 7436
2, 158616, Pitch_bend_c, 1, 7285
2, 158652, Pitch_bend_c, 1, 7134
2, 158688, Pitch_bend_c, 1, 6983
2, 158724, Pitch_bend_c, 1, 6832
2, 158760, Note_off_c, 1, 47, 0
2, 158760, Pitch_bend_c, 1, 8192
2, 158760, Note_on_c, 0, 43, 78
2, 158760, Note_on_c, 0, 50, 78
2, 159120, Note_off_c, 0, 50, 0
2, 159120, Note_off_c, 0, 43, 0
2, 159120, Note_on_c, 0, 43, 78
2, 159120, Note_on_c, 0, 50, 78
2, 159480, Note_off_c, 0, 50, 0
2, 159480, Note_off_c, 0, 43, 0
2, 159480, Note_on_c, 0, 43, 78
2, 159480, Note_on_c, 0, 50, 78
2, 159840, Note_off_c, 0, 50, 0
2, 159840, Note_off_c, 0, 43, 0
2, 159840, Note_on_c, 1, 48, 78
2, 159876, Pitch_bend_c, 1, 7996
2, 159912, Pitch_bend_c, 1, 7808
2, 159948, Pitch_bend_c, 1, 7620
2, 159984, Pitch_bend_c, 1, 7432
2, 160020, Pitch_bend_c, 1, 7244
2, 160056, Pitch_bend_c, 1, 7056
2, 160092, Pitch_bend_c, 1, 6868
2, 160128, Pitch_bend_c, 1, 6680
2, 160164, Pitch_bend_c, 1, 6492
2, 160200, Note_off_c, 1, 48, 0
2, 160200, Pitch_bend_c, 1, 8192
2, 160200, Note_on_c, 0, 43, 78
2, 160200, Note_on_c, 0, 50, 78
2, 160560, Note_off_c, 0, 50, 0
2, 160560, Note_off_c, 0, 43, 0
2, 160560, Note_on_c, 0, 43, 78
2, 160560, Note_on_c, 0, 50, 78
2, 160920, Note_off_c, 0, 50, 0
2, 160920, Note_off_c, 0, 43, 0
2, 160920, Note_on_c, 0, 43, 78
2, 160920, Note_on_c, 0, 50, 78
2, 161280, Note_off_c, 0, 50, 0
2, 161280, Note_off_c, 0, 43, 0
2, 161280, Note_on_c, 1, 47, 78
2, 161316, Pitch_bend_c, 1, 8040
2, 161352, Pitch_bend_c, 1, 7889
2, 161388, Pitch_bend_c, 1, 7738
2, 161424, Pitch_bend_c, 1, 7587
2, 161460, Pitch_bend_c, 1, 7436
2, 161496, Pitch_bend_c, 1, 7285
2, 161532, Pitch_bend_c, 1, 7134
2, 161568, Pitch_bend_c, 1, 6983
2, 161604, Pitch_bend_c, 1, 6832
2, 161640, Note_off_c, 1, 47, 0
2, 161640, Pitch_bend_c, 1, 8192
2, 161640, Note_on_c, 0, 43, 78
2, 161640, Note_on_c, 0, 50, 78
2, 162000, Note_off_c, 0, 50, 0
2, 162000, Note_off_c, 0, 43, 0
2, 162000, Note_on_c, 0, 43, 78
2, 162000, Note_on_c, 0, 50, 78
2, 162360, Note_off_c, 0, 50, 0
2, 162360, Note_off_c, 0, 43, 0
2, 162360, Note_on_c, 0, 43, 78
2, 162360, Note_on_c, 0, 50, 78
2, 162720, Note_off_c, 0, 50, 0
2, 162720, Note_off_c, 0, 43, 0
2, 162720, Note_on_c, 0, 46, 78
2, 162720, Note_on_c, 0, 53, 78
2, 163080, Note_off_c, 0, 53, 0
2, 163080, Note_off_c, 0, 46, 0
2, 163080, Note_on_c, 0, 46, 78
2, 163080, Note_on_c, 0, 53, 78
2, 163440, Note_off_c, 0, 53, 0
2, 163440, Note_off_c, 0, 46, 0
2, 163440, Note_on_c, 0, 46, 78
2, 163440, Note_on_c, 0, 53, 78
2, 163800, Note_off_c, 0, 53, 0
2, 163800, Note_off_c, 0, 46, 0
2, 163800, Note_on_c, 0, 46, 78
2, 163800, Note_on_c, 0, 53, 78
2, 164160, Note_off_c, 0, 53, 0
2, 164160, Note_off_c, 0, 46, 0
2, 164160, Note_on_c, 0, 45, 78
2, 164160, Note_on_c, 0, 64, 78
2, 164160, Note_on_c, 0, 69, 78
2, 164160, Note_on_c, 0, 73, 78
2, 164160, Note_on_c, 0, 76, 78
2, 164160, Control_c, 0, 64, 127
2, 164160, Control_c, 1, 64, 127
2, 164160, Control_c, 0, 11, 65
2, 164381, Control_c, 0, 11, 79
2, 164520, Note_off_c, 0, 76, 0
2, 164520, Note_off_c, 0, 73, 0
2, 164520, Note_off_c, 0, 69, 0
2, 164520, Note_off_c, 0, 64, 0
2, 164520, Note_off_c, 0, 45, 0
2, 164520, Note_on_c, 0, 45, 78
2, 164520, Note_on_c, 0, 64, 78
2, 164520, Note_on_c, 0, 69, 78
2, 164520, Note_on_c, 0, 73, 78
2, 164520, Note_on_c, 0, 76, 78
2, 164602, Control_c, 0, 11, 83
2, 164823, Control_c, 0, 11, 87
2, 164880, Note_off_c, 0, 76, 0
2, 164880, Note_off_c, 0, 73, 0
2, 164880, Note_off_c, 0, 69, 0
2, 164880, Note_off_c, 0, 64, 0
2, 164880, Note_off_c, 0, 45, 0
2, 164880, Note_on_c, 0, 45, 78
2, 164880, Note_on_c, 0, 64, 78
2, 164880, Note_on_c, 0, 69, 78
2, 164880, Note_on_c, 0, 73, 78
2, 164880, Note_on_c, 0, 76, 78
2, 165044, Control_c, 0, 11, 91
2, 165240, Note_off_c, 0, 76, 0
2, 165240, Note_off_c, 0, 73, 0
2, 165240, Note_off_c, 0, 69, 0
2, 165240, Note_off_c, 0, 64, 0
2, 165240, Note_off_c, 0, 45, 0
2, 165240, Note_on_c, 0, 45, 78
2, 165240, Note_on_c, 0, 64, 78
2, 165240, Note_on_c, 0, 69, 78
2, 165240, Note_on_c, 0, 73, 78
2, 165240, Note_on_c, 0, 76, 78
2, 165265, Control_c, 0, 11, 95
2, 165486, Control_c, 0, 11, 99
2, 165600, Note_off_c, 0, 76, 0
2, 165600, Note_off_c, 0, 73, 0
2, 165600, Note_off_c, 0, 69, 0
2, 165600, Note_off_c, 0, 64, 0
2, 165600, Note_off_c, 0, 45, 0
2, 165600, Note_on_c, 0, 45, 78
2, 165600, Note_on_c, 0, 64, 78
2, 165600, Note_on_c, 0, 69, 78
2, 165600, Note_on_c, 0, 73, 78
2, 165600, Note_on_c, 0, 76, 78
2, 165707, Control_c, 0, 11, 103
2, 165928, Control_c, 0, 11, 107
2, 165960, Note_off_c, 0, 76, 0
2, 165960, Note_off_c, 0, 73, 0
2, 165960, Note_off_c, 0, 69, 0
2, 165960, Note_off_c, 0, 64, 0
2, 165960, Note_off_c, 0, 45, 0
2, 165960, Note_on_c, 0, 45, 78
2, 165960, Note_on_c, 0, 64, 78
2, 165960, Note_on_c, 0, 69, 78
2, 165960, Note_on_c, 0, 73, 78
2, 165960, Note_on_c, 0, 76, 78
2, 166149, Control_c, 0, 11, 111
2, 166320, Note_off_c, 0, 76, 0
2, 166320, Note_off_c, 0, 73, 0
2, 166320, Note_off_c, 0, 69, 0
2, 166320, Note_off_c, 0, 64, 0
2, 166320, Note_off_c, 0, 45, 0
2, 166320, Note_on_c, 0, 45, 78
2, 166320, Note_on_c, 0, 64, 78
2, 166320, Note_on_c, 0, 69, 78
2, 166320, Note_on_c, 0, 73, 78
2, 166320, Note_on_c, 0, 76, 78
2, 166370, Control_c, 0, 11, 115
2, 166591, Control_c, 0, 11, 119
2, 166680, Note_off_c, 0, 76, 0
2, 166680, Note_off_c, 0, 73, 0
2, 166680, Note_off_c, 0, 69, 0
2, 166680, Note_off_c, 0, 64, 0
2, 166680, Note_off_c, 0, 45, 0
2, 166680, Note_on_c, 0, 45, 78
2, 166680, Note_on_c, 0, 64, 78
2, 166680, Note_on_c, 0, 69, 78
2, 166680, Note_on_c, 0, 73, 78
2, 166680, Note_on_c, 0, 76, 78
2, 166812, Control_c, 0, 11, 123
2, 167033, Control_c, 0, 11, 127
2, 167040, Note_off_c, 0, 76, 0
2, 167040, Note_off_c, 0, 73, 0
2, 167040, Note_off_c, 0, 69, 0
2, 167040, Note_off_c, 0, 64, 0
2, 167040, Note_off_c, 0, 45, 0
2, 167040, Control_c, 0, 64, 0
2, 167040, Control_c, 1, 64, 0
2, 167040, Note_on_c, 0, 45, 106
2, 167040, Note_on_c, 0, 64, 106
2, 167040, Note_on_c, 0, 69, 106
2, 167040, Note_on_c, 0, 73, 106
2, 167040, Note_on_c, 0, 76, 106
2, 167400, Note_off_c, 0, 76, 0
2, 167400, Note_off_c, 0, 73, 0
2, 167400, Note_off_c, 0, 69, 0
2, 167400, Note_off_c, 0, 64, 0
2, 167400, Note_off_c, 0, 45, 0
2, 169560, Note_on_c, 0, 43, 91
2, 169560, Note_on_c, 0, 48, 91
2, 169560, Note_on_c, 0, 52, 91
2, 169560, Note_on_c, 0, 55, 91
2, 169560, Note_on_c, 0, 60, 91
2, 169560, Note_on_c, 0, 64, 91
2, 169575, Note_off_c, 0, 64, 0
2, 169575, Note_off_c, 0, 60, 0
2, 169575, Note_off_c, 0, 55, 0
2, 169575, Note_off_c, 0, 52, 0
2, 169575, Note_off_c, 0, 48, 0
2, 169575, Note_off_c, 0, 43, 0
2, 169740, Note_on_c, 0, 43, 91
2, 169740, Note_on_c, 0, 48, 91
2, 169740, Note_on_c, 0, 52, 91
2, 169740, Note_on_c, 0, 55, 91
2, 169740, Note_on_c, 0, 60, 91
2, 169740, Note_on_c, 0, 64, 91
2, 169755, Note_off_c, 0, 64, 0
2, 169755, Note_off_c, 0, 60, 0
2, 169755, Note_off_c, 0, 55, 0
2, 169755, Note_off_c, 0, 52, 0
2, 169755, Note_off_c, 0, 48, 0
2, 169755, Note_off_c, 0, 43, 0
2, 169920, Note_on_c, 0, 43, 78
2, 169920, Note_on_c, 0, 48, 78
2, 169920, Note_on_c, 0, 52, 78
2, 169920, Note_on_c, 0, 55, 78
2, 169920, Note_on_c, 0, 60, 78
2, 169920, Note_on_c, 0, 64, 78
2, 170640, Note_off_c, 0, 64, 0
2, 170640, Note_off_c, 0, 60, 0
2, 170640, Note_off_c, 0, 55, 0
2, 170640, Note_off_c, 0, 52, 0
2, 170640, Note_off_c, 0, 48, 0
2, 170640, Note_off_c, 0, 43, 0
2, 170640, Note_on_c, 0, 43, 78
2, 170640, Note_on_c, 0, 48, 78
2, 170640, Note_on_c, 0, 52, 78
2, 170640, Note_on_c, 0, 55, 78
2, 170640, Note_on_c, 0, 60, 78
2, 170640, Note_on_c, 0, 64, 78
2, 171180, Note_off_c, 0, 64, 0
2, 171180, Note_off_c, 0, 60, 0
2, 171180, Note_off_c, 0, 55, 0
2, 171180, Note_off_c, 0, 52, 0
2, 171180, Note_off_c, 0, 48, 0
2, 171180, Note_off_c, 0, 43, 0
2, 171180, Note_on_c, 0, 55, 78
2, 171180, Note_on_c, 0, 60, 78
2, 171180, Note_on_c, 0, 64, 78
2, 171360, Note_off_c, 0, 64, 0
2, 171360, Note_off_c, 0, 60, 0
2, 171360, Note_off_c, 0, 55, 0
2, 171360, Note_on_c, 0, 43, 78
2, 171360, Note_on_c, 0, 48, 78
2, 171360, Note_on_c, 0, 52, 78
2, 171360, Note_on_c, 0, 55, 78
2, 171360, Note_on_c, 0, 60, 78
2, 171360, Note_on_c, 0, 64, 78
2, 171720, Note_off_c, 0, 64, 0
2, 171720, Note_off_c, 0, 60, 0
2, 171720, Note_off_c, 0, 55, 0
2, 171720, Note_off_c, 0, 52, 0
2, 171720, Note_off_c, 0, 48, 0
2, 171720, Note_off_c, 0, 43, 0
2, 171720, Note_on_c, 0, 52, 78
2, 171720, Note_on_c, 0, 55, 78
2, 171720, Note_on_c, 0, 60, 78
2, 171720, Note_on_c, 0, 64, 78
2, 172080, Note_off_c, 0, 64, 0
2, 172080, Note_off_c, 0, 60, 0
2, 172080, Note_off_c, 0, 55, 0
2, 172080, Note_off_c, 0, 52, 0
2, 172080, Note_on_c, 0, 52, 78
2, 172080, Note_on_c, 0, 55, 78
2, 172080, Note_on_c, 0, 60, 78
2, 172080, Note_on_c, 0, 64, 78
2, 172260, Note_off_c, 0, 64, 0
2, 172260, Note_off_c, 0, 60, 0
2, 172260, Note_off_c, 0, 55, 0
2, 172260, Note_off_c, 0, 52, 0
2, 172260, Note_on_c, 0, 52, 78
2, 172260, Note_on_c, 0, 55, 78
2, 172260, Note_on_c, 0, 60, 78
2, 172260, Note_on_c, 0, 64, 78
2, 172440, Note_off_c, 0, 64, 0
2, 172440, Note_off_c, 0, 60, 0
2, 172440, Note_off_c, 0, 55, 0
2, 172440, Note_off_c, 0, 52, 0
2, 172440, Note_on_c, 0, 47, 78
2, 172440, Note_on_c, 0, 54, 78
2, 172440, Note_on_c, 0, 59, 78
2, 172440, Note_on_c, 0, 62, 78
2, 172440, Note_on_c, 0, 66, 78
2, 173160, Note_off_c, 0, 66, 0
2, 173160, Note_off_c, 0, 62, 0
2, 173160, Note_off_c, 0, 59, 0
2, 173160, Note_off_c, 0, 54, 0
2, 173160, Note_off_c, 0, 47, 0
2, 173160, Note_on_c, 0, 47, 78
2, 173520, Note_off_c, 0, 47, 0
2, 173520, Note_on_c, 0, 47, 78
2, 173520, Note_on_c, 0, 54, 78
2, 173520, Note_on_c, 0, 59, 78
2, 173520, Note_on_c, 0, 62, 78
2, 173520, Note_on_c, 0, 66, 78
2, 174060, Note_off_c, 0, 66, 0
2, 174060, Note_off_c, 0, 62, 0
2, 174060, Note_off_c, 0, 59, 0
2, 174060, Note_off_c, 0, 54, 0
2, 174060, Note_off_c, 0, 47, 0
2, 174060, Note_on_c, 0, 59, 78
2, 174060, Note_on_c, 0, 62, 78
2, 174060, Note_on_c, 0, 66, 78
2, 174240, Note_off_c, 0, 66, 0
2, 174240, Note_off_c, 0, 62, 0
2, 174240, Note_off_c, 0, 59, 0
2, 174240, Note_on_c, 0, 47, 78
2, 174240, Note_on_c, 0, 54, 78
2, 174240, Note_on_c, 0, 59, 78
2, 174240, Note_on_c, 0, 62, 78
2, 174240, Note_on_c, 0, 66, 78
2, 174600, Note_off_c, 0, 66, 0
2, 174600, Note_off_c, 0, 62, 0
2, 174600, Note_off_c, 0, 59, 0
2, 174600, Note_off_c, 0, 54, 0
2, 174600, Note_off_c, 0, 47, 0
2, 174600, Note_on_c, 0, 54, 78
2, 174600, Note_on_c, 0, 59, 78
2, 174600, Note_on_c, 0, 62, 78
2, 174600, Note_on_c, 0, 66, 78
2, 174960, Note_off_c, 0, 66, 0
2, 174960, Note_off_c, 0, 62, 0
2, 174960, Note_off_c, 0, 59, 0
2, 174960, Note_off_c, 0, 54, 0
2, 174960, Note_on_c, 0, 59, 78
2, 175140, Note_off_c, 0, 59, 0
2, 175140, Note_on_c, 0, 60, 78
2, 175320, Note_off_c, 0, 60, 0
2, 175320, Note_on_c, 0, 59, 78
2, 175500, Note_off_c, 0, 59, 0
2, 175500, Note_on_c, 0, 60, 78
2, 175680, Note_off_c, 0, 60, 0
2, 175680, Note_on_c, 0, 45, 78
2, 175680, Note_on_c, 0, 52, 78
2, 175680, Note_on_c, 0, 57, 78
2, 175680, Note_on_c, 0, 60, 78
2, 175680, Note_on_c, 0, 64, 78
2, 176400, Note_off_c, 0, 64, 0
2, 176400, Note_off_c, 0, 60, 0
2, 176400, Note_off_c, 0, 57, 0
2, 176400, Note_off_c, 0, 52, 0
2, 176400, Note_off_c, 0, 45, 0
2, 176400, Note_on_c, 0, 45, 78
2, 176400, Note_on_c, 0, 52, 78
2, 176400, Note_on_c, 0, 57, 78
2, 176400, Note_on_c, 0, 60, 78
2, 176400, Note_on_c, 0, 64, 78
2, 176400, Note_on_c, 0, 69, 78
2, 176940, Note_off_c, 0, 69, 0
2, 176940, Note_off_c, 0, 64, 0
2, 176940, Note_off_c, 0, 60, 0
2, 176940, Note_off_c, 0, 57, 0
2, 176940, Note_off_c, 0, 52, 0
2, 176940, Note_off_c, 0, 45, 0
2, 176940, Note_on_c, 0, 57, 78
2, 176940, Note_on_c, 0, 60, 78
2, 176940, Note_on_c, 0, 64, 78
2, 176940, Note_on_c, 0, 69, 78
2, 177120, Note_off_c, 0, 69, 0
2, 177120, Note_off_c, 0, 64, 0
2, 177120, Note_off_c, 0, 60, 0
2, 177120, Note_off_c, 0, 57, 0
2, 177120, Note_on_c, 0, 45, 78
2, 177120, Note_on_c, 0, 52, 78
2, 177120, Note_on_c, 0, 57, 78
2, 177120, Note_on_c, 0, 60, 78
2, 177120, Note_on_c, 0, 64, 78
2, 177480, Note_off_c, 0, 64, 0
2, 177480, Note_off_c, 0, 60, 0
2, 177480, Note_off_c, 0, 57, 0
2, 177480, Note_off_c, 0, 52, 0
2, 177480, Note_off_c, 0, 45, 0
2, 177480, Note_on_c, 0, 45, 78
2, 177480, Note_on_c, 0, 57, 78
2, 177660, Note_off_c, 0, 57, 0
2, 177660, Note_off_c, 0, 45, 0
2, 177660, Note_on_c, 0, 45, 78
2, 177660, Note_on_c, 0, 57, 78
2, 177840, Note_off_c, 0, 57, 0
2, 177840, Note_off_c, 0, 45, 0
2, 177840, Note_on_c, 0, 43, 78
2, 177840, Note_on_c, 0, 55, 78
2, 178020, Note_off_c, 0, 55, 0
2, 178020, Note_off_c, 0, 43, 0
2, 178020, Note_on_c, 0, 43, 78
2, 178020, Note_on_c, 0, 55, 78
2, 178200, Note_off_c, 0, 55, 0
2, 178200, Note_off_c, 0, 43, 0
2, 178200, Note_on_c, 0, 41, 78
2, 178200, Note_on_c, 0, 48, 78
2, 178200, Note_on_c, 0, 53, 78
2, 178200, Note_on_c, 0, 57, 78
2, 178200, Note_on_c, 0, 60, 78
2, 178200, Note_on_c, 0, 65, 78
2, 178920, Note_off_c, 0, 65, 0
2, 178920, Note_off_c, 0, 60, 0
2, 178920, Note_off_c, 0, 57, 0
2, 178920, Note_off_c, 0, 53, 0
2, 178920, Note_off_c, 0, 48, 0
2, 178920, Note_off_c, 0, 41, 0
2, 178920, Note_on_c, 0, 41, 78
2, 179280, Note_off_c, 0, 41, 0
2, 179280, Note_on_c, 0, 41, 78
2, 179280, Note_on_c, 0, 48, 78
2, 179280, Note_on_c, 0, 53, 78
2, 179280, Note_on_c, 0, 57, 78
2, 179280, Note_on_c, 0, 60, 78
2, 179280, Note_on_c, 0, 65, 78
2, 179820, Note_off_c, 0, 65, 0
2, 179820, Note_off_c, 0, 60, 0
2, 179820, Note_off_c, 0, 57, 0
2, 179820, Note_off_c, 0, 53, 0
2, 179820, Note_off_c, 0, 48, 0
2, 179820, Note_off_c, 0, 41, 0
2, 179820, Note_on_c, 0, 53, 78
2, 179820, Note_on_c, 0, 57, 78
2, 179820, Note_on_c, 0, 60, 78
2, 179820, Note_on_c, 0, 65, 78
2, 180000, Note_off_c, 0, 65, 0
2, 180000, Note_off_c, 0, 60, 0
2, 180000, Note_off_c, 0, 57, 0
2, 180000, Note_off_c, 0, 53, 0
2, 180000, Note_on_c, 0, 41, 78
2, 180000, Note_on_c, 0, 48, 78
2, 180000, Note_on_c, 0, 53, 78
2, 180000, Note_on_c, 0, 57, 78
2, 180000, Note_on_c, 0, 60, 78
2, 180000, Note_on_c, 0, 65, 78
2, 180360, Note_off_c, 0, 65, 0
2, 180360, Note_off_c, 0, 60, 0
2, 180360, Note_off_c, 0, 57, 0
2, 180360, Note_off_c, 0, 53, 0
2, 180360, Note_off_c, 0, 48, 0
2, 180360, Note_off_c, 0, 41, 0
2, 180360, Note_on_c, 0, 45, 78
2, 180360, Note_on_c, 0, 57, 78
2, 180540, Note_off_c, 0, 57, 0
2, 180540, Note_off_c, 0, 45, 0
2, 180540, Note_on_c, 1, 45, 78
2, 180540, Note_on_c, 1, 57, 78
2, 180560, Pitch_bend_c, 1, 8112
2, 180580, Pitch_bend_c, 1, 8037
2, 180600, Pitch_bend_c, 1, 7962
2, 180620, Pitch_bend_c, 1, 7887
2, 180640, Pitch_bend_c, 1, 7812
2, 180660, Pitch_bend_c, 1, 7737
2, 180680, Pitch_bend_c, 1, 7662
2, 180700, Pitch_bend_c, 1, 7587
2, 180720, Pitch_bend_c, 1, 7512
2, 180900, Note_off_c, 1, 57, 0
2, 180900, Note_off_c, 1, 45, 0
2, 180900, Pitch_bend_c, 1, 8192
2, 180900, Note_on_c, 1, 45, 78
2, 180900, Note_on_c, 1, 57, 78
2, 180920, Pitch_bend_c, 1, 8112
2, 180940, Pitch_bend_c, 1, 8037
2, 180960, Pitch_bend_c, 1, 7962
2, 180980, Pitch_bend_c, 1, 7887
2, 181000, Pitch_bend_c, 1, 7812
2, 181020, Pitch_bend_c, 1, 7737
2, 181040, Pitch_bend_c, 1, 7662
2, 181060, Pitch_bend_c, 1, 7587
2, 181080, Pitch_bend_c, 1, 7512
2, 181260, Note_off_c, 1, 57, 0
2, 181260, Note_off_c, 1, 45, 0
2, 181260, Pitch_bend_c, 1, 8192
2, 181260, Note_on_c, 0, 45, 78
2, 181260, Note_on_c, 0, 57, 78
2, 181440, Note_off_c, 0, 57, 0
2, 181440, Note_off_c, 0, 45, 0
2, 181440, Note_on_c, 0, 45, 78
2, 181440, Note_on_c, 0, 52, 78
2, 181440, Note_on_c, 0, 57, 78
2, 181440, Note_on_c, 0, 60, 78
2, 181440, Note_on_c, 0, 64, 78
2, 182160, Note_off_c, 0, 64, 0
2, 182160, Note_off_c, 0, 60, 0
2, 182160, Note_off_c, 0, 57, 0
2, 182160, Note_off_c, 0, 52, 0
2, 182160, Note_off_c, 0, 45, 0
2, 182160, Note_on_c, 0, 45, 78
2, 182160, Note_on_c, 0, 52, 78
2, 182160, Note_on_c, 0, 57, 78
2, 182160, Note_on_c, 0, 60, 78
2, 182160, Note_on_c, 0, 64, 78
2, 182160, Note_on_c, 0, 69, 78
2, 182700, Note_off_c, 0, 69, 0
2, 182700, Note_off_c, 0, 64, 0
2, 182700, Note_off_c, 0, 60, 0
2, 182700, Note_off_c, 0, 57, 0
2, 182700, Note_off_c, 0, 52, 0
2, 182700, Note_off_c, 0, 45, 0
2, 182700, Note_on_c, 0, 57, 78
2, 182700, Note_on_c, 0, 60, 78
2, 182700, Note_on_c, 0, 64, 78
2, 182700, Note_on_c, 0, 69, 78
2, 182880, Note_off_c, 0, 69, 0
2, 182880, Note_off_c, 0, 64, 0
2, 182880, Note_off_c, 0, 60, 0
2, 182880, Note_off_c, 0, 57, 0
2, 182880, Note_on_c, 0, 45, 78
2, 182880, Note_on_c, 0, 52, 78
2, 182880, Note_on_c, 0, 57, 78
2, 182880, Note_on_c, 0, 60, 78
2, 182880, Note_on_c, 0, 64, 78
2, 183240, Note_off_c, 0, 64, 0
2, 183240, Note_off_c, 0, 60, 0
2, 183240, Note_off_c, 0, 57, 0
2, 183240, Note_off_c, 0, 52, 0
2, 183240, Note_off_c, 0, 45, 0
2, 183240, Note_on_c, 0, 45, 78
2, 183240, Note_on_c, 0, 57, 78
2, 183420, Note_off_c, 0, 57, 0
2, 183420, Note_off_c, 0, 45, 0
2, 183420, Note_on_c, 0, 45, 78
2, 183420, Note_on_c, 0, 57, 78
2, 183600, Note_off_c, 0, 57, 0
2, 183600, Note_off_c, 0, 45, 0
2, 183600, Note_on_c, 0, 43, 78
2, 183600, Note_on_c, 0, 55, 78
2, 183780, Note_off_c, 0, 55, 0
2, 183780, Note_off_c, 0, 43, 0
2, 183780, Note_on_c, 0, 43, 78
2, 183780, Note_on_c, 0, 55, 78
2, 183960, Note_off_c, 0, 55, 0
2, 183960, Note_off_c, 0, 43, 0
2, 183960, Note_on_c, 0, 41, 78
2, 183960, Note_on_c, 0, 48, 78
2, 183960, Note_on_c, 0, 53, 78
2, 183960, Note_on_c, 0, 57, 78
2, 183960, Note_on_c, 0, 60, 78
2, 183960, Note_on_c, 0, 65, 78
2, 184680, Note_off_c, 0, 65, 0
2, 184680, Note_off_c, 0, 60, 0
2, 184680, Note_off_c, 0, 57, 0
2, 184680, Note_off_c, 0, 53, 0
2, 184680, Note_off_c, 0, 48, 0
2, 184680, Note_off_c, 0, 41, 0
2, 184680, Note_on_c, 0, 41, 78
2, 185040, Note_off_c, 0, 41, 0
2, 185040, Note_on_c, 0, 41, 78
2, 185040, Note_on_c, 0, 48, 78
2, 185040, Note_on_c, 0, 53, 78
2, 185040, Note_on_c, 0, 57, 78
2, 185040, Note_on_c, 0, 60, 78
2, 185040, Note_on_c, 0, 65, 78
2, 185580, Note_off_c, 0, 65, 0
2, 185580, Note_off_c, 0, 60, 0
2, 185580, Note_off_c, 0, 57, 0
2, 185580, Note_off_c, 0, 53, 0
2, 185580, Note_off_c, 0, 48, 0
2, 185580, Note_off_c, 0, 41, 0
2, 185580, Note_on_c, 0, 53, 78
2, 185580, Note_on_c, 0, 57, 78
2, 185580, Note_on_c, 0, 60, 78
2, 185580, Note_on_c, 0, 65, 78
2, 185760, Note_off_c, 0, 65, 0
2, 185760, Note_off_c, 0, 60, 0
2, 185760, Note_off_c, 0, 57, 0
2, 185760, Note_off_c, 0, 53, 0
2, 185760, Note_on_c, 0, 41, 78
2, 185760, Note_on_c, 0, 48, 78
2, 185760, Note_on_c, 0, 53, 78
2, 185760, Note_on_c, 0, 57, 78
2, 185760, Note_on_c, 0, 60, 78
2, 185760, Note_on_c, 0, 65, 78
2, 186120, Note_off_c, 0, 65, 0
2, 186120, Note_off_c, 0, 60, 0
2, 186120, Note_off_c, 0, 57, 0
2, 186120, Note_off_c, 0, 53, 0
2, 186120, Note_off_c, 0, 48, 0
2, 186120, Note_off_c, 0, 41, 0
2, 186120, Note_on_c, 0, 45, 78
2, 186120, Note_on_c, 0, 57, 78
2, 186300, Note_off_c, 0, 57, 0
2, 186300, Note_off_c, 0, 45, 0
2, 186300, Note_on_c, 0, 45, 78
2, 186300, Note_on_c, 0, 57, 78
2, 186480, Note_off_c, 0, 57, 0
2, 186480, Note_off_c, 0, 45, 0
2, 186480, Note_on_c, 0, 43, 78
2, 186480, Note_on_c, 0, 55, 78
2, 186660, Note_off_c, 0, 55, 0
2, 186660, Note_off_c, 0, 43, 0
2, 186660, Note_on_c, 0, 44, 78
2, 186660, Note_on_c, 0, 56, 78
2, 186840, Note_off_c, 0, 56, 0
2, 186840, Note_off_c, 0, 44, 0
2, 186840, Note_on_c, 0, 43, 78
2, 186840, Note_on_c, 0, 55, 78
2, 187020, Note_off_c, 0, 55, 0
2, 187020, Note_off_c, 0, 43, 0
2, 187020, Note_on_c, 0, 44, 78
2, 187020, Note_on_c, 0, 56, 78
2, 187200, Note_off_c, 0, 56, 0
2, 187200, Note_off_c, 0, 44, 0
2, 187200, Note_on_c, 0, 41, 78
2, 187200, Note_on_c, 0, 48, 78
2, 187200, Note_on_c, 0, 53, 78
2, 187200, Note_on_c, 0, 56, 78
2, 187200, Note_on_c, 0, 60, 78
2, 187200, Note_on_c, 0, 65, 78
2, 187920, Note_off_c, 0, 65, 0
2, 187920, Note_off_c, 0, 60, 0
2, 187920, Note_off_c, 0, 56, 0
2, 187920, Note_off_c, 0, 53, 0
2, 187920, Note_off_c, 0, 48, 0
2, 187920, Note_off_c, 0, 41, 0
2, 187920, Note_on_c, 0, 41, 78
2, 187920, Note_on_c, 0, 48, 78
2, 187920, Note_on_c, 0, 53, 78
2, 187920, Note_on_c, 0, 56, 78
2, 187920, Note_on_c, 0, 60, 78
2, 187920, Note_on_c, 0, 65, 78
2, 188460, Note_off_c, 0, 65, 0
2, 188460, Note_off_c, 0, 60, 0
2, 188460, Note_off_c, 0, 56, 0
2, 188460, Note_off_c, 0, 53, 0
2, 188460, Note_off_c, 0, 48, 0
2, 188460, Note_off_c, 0, 41, 0
2, 188460, Note_on_c, 0, 53, 78
2, 188460, Note_on_c, 0, 56, 78
2, 188460, Note_on_c, 0, 60, 78
2, 188460, Note_on_c, 0, 65, 78
2, 188640, Note_off_c, 0, 65, 0
2, 188640, Note_off_c, 0, 60, 0
2, 188640, Note_off_c, 0, 56, 0
2, 188640, Note_off_c, 0, 53, 0
2, 188640, Note_on_c, 0, 41, 78
2, 188640, Note_on_c, 0, 48, 78
2, 188640, Note_on_c, 0, 53, 78
2, 188640, Note_on_c, 0, 57, 78
2, 188640, Note_on_c, 0, 60, 78
2, 189000, Note_off_c, 0, 60, 0
2, 189000, Note_off_c, 0, 57, 0
2, 189000, Note_off_c, 0, 53, 0
2, 189000, Note_off_c, 0, 48, 0
2, 189000, Note_off_c, 0, 41, 0
2, 189000, Note_on_c, 0, 44, 78
2, 189000, Note_on_c, 0, 56, 78
2, 189180, Note_off_c, 0, 56, 0
2, 189180, Note_off_c, 0, 44, 0
2, 189180, Note_on_c, 0, 44, 78
2, 189180, Note_on_c, 0, 56, 78
2, 189360, Note_off_c, 0, 56, 0
2, 189360, Note_off_c, 0, 44, 0
2, 189360, Note_on_c, 0, 45, 78
2, 189540, Note_off_c, 0, 45, 0
2, 189540, Note_on_c, 0, 43, 78
2, 189720, Note_off_c, 0, 43, 0
2, 189720, Note_on_c, 0, 43, 78
2, 189720, Note_on_c, 0, 48, 78
2, 189720, Note_on_c, 0, 52, 78
2, 189720, Note_on_c, 0, 55, 78
2, 189900, Note_off_c, 0, 55, 0
2, 189900, Note_off_c, 0, 52, 0
2, 189900, Note_off_c, 0, 48, 0
2, 189900, Note_off_c, 0, 43, 0
2, 189900, Note_on_c, 0, 43, 78
2, 189900, Note_on_c, 0, 48, 78
2, 189900, Note_on_c, 0, 52, 78
2, 189900, Note_on_c, 0, 55, 78
2, 190080, Note_off_c, 0, 55, 0
2, 190080, Note_off_c, 0, 52, 0
2, 190080, Note_off_c, 0, 48, 0
2, 190080, Note_off_c, 0, 43, 0
2, 190080, Note_on_c, 0, 43, 78
2, 190080, Note_on_c, 0, 48, 78
2, 190080, Note_on_c, 0, 52, 78
2, 190080, Note_on_c, 0, 55, 78
2, 190080, Note_on_c, 0, 60, 78
2, 190080, Note_on_c, 0, 64, 78
2, 190800, Note_off_c, 0, 64, 0
2, 190800, Note_off_c, 0, 60, 0
2, 190800, Note_off_c, 0, 55, 0
2, 190800, Note_off_c, 0, 52, 0
2, 190800, Note_off_c, 0, 48, 0
2, 190800, Note_off_c, 0, 43, 0
2, 190800, Note_on_c, 0, 43, 78
2, 190800, Note_on_c, 0, 48, 78
2, 190800, Note_on_c, 0, 52, 78
2, 190800, Note_on_c, 0, 55, 78
2, 190800, Note_on_c, 0, 60, 78
2, 190800, Note_on_c, 0, 64, 78
2, 191340, Note_off_c, 0, 64, 0
2, 191340, Note_off_c, 0, 60, 0
2, 191340, Note_off_c, 0, 55, 0
2, 191340, Note_off_c, 0, 52, 0
2, 191340, Note_off_c, 0, 48, 0
2, 191340, Note_off_c, 0, 43, 0
2, 191340, Note_on_c, 0, 55, 78
2, 191340, Note_on_c, 0, 60, 78
2, 191340, Note_on_c, 0, 64, 78
2, 191520, Note_off_c, 0, 64, 0
2, 191520, Note_off_c, 0, 60, 0
2, 191520, Note_off_c, 0, 55, 0
2, 191520, Note_on_c, 0, 43, 78
2, 191520, Note_on_c, 0, 48, 78
2, 191520, Note_on_c, 0, 52, 78
2, 191520, Note_on_c, 0, 55, 78
2, 191520, Note_on_c, 0, 60, 78
2, 191520, Note_on_c, 0, 64, 78
2, 191880, Note_off_c, 0, 64, 0
2, 191880, Note_off_c, 0, 60, 0
2, 191880, Note_off_c, 0, 55, 0
2, 191880, Note_off_c, 0, 52, 0
2, 191880, Note_off_c, 0, 48, 0
2, 191880, Note_off_c, 0, 43, 0
2, 191880, Note_on_c, 0, 52, 78
2, 191880, Note_on_c, 0, 55, 78
2, 191880, Note_on_c, 0, 60, 78
2, 191880, Note_on_c, 0, 64, 78
2, 192240, Note_off_c, 0, 64, 0
2, 192240, Note_off_c, 0, 60, 0
2, 192240, Note_off_c, 0, 55, 0
2, 192240, Note_off_c, 0, 52, 0
2, 192240, Note_on_c, 0, 52, 78
2, 192240, Note_on_c, 0, 55, 78
2, 192240, Note_on_c, 0, 60, 78
2, 192240, Note_on_c, 0, 64, 78
2, 192420, Note_off_c, 0, 64, 0
2, 192420, Note_off_c, 0, 60, 0
2, 192420, Note_off_c, 0, 55, 0
2, 192420, Note_off_c, 0, 52, 0
2, 192420, Note_on_c, 0, 52, 78
2, 192420, Note_on_c, 0, 55, 78
2, 192420, Note_on_c, 0, 60, 78
2, 192420, Note_on_c, 0, 64, 78
2, 192600, Note_off_c, 0, 64, 0
2, 192600, Note_off_c, 0, 60, 0
2, 192600, Note_off_c, 0, 55, 0
2, 192600, Note_off_c, 0, 52, 0
2, 192600, Note_on_c, 0, 47, 78
2, 192600, Note_on_c, 0, 54, 78
2, 192600, Note_on_c, 0, 59, 78
2, 192600, Note_on_c, 0, 62, 78
2, 192600, Note_on_c, 0, 66, 78
2, 193320, Note_off_c, 0, 66, 0
2, 193320, Note_off_c, 0, 62, 0
2, 193320, Note_off_c, 0, 59, 0
2, 193320, Note_off_c, 0, 54, 0
2, 193320, Note_off_c, 0, 47, 0
2, 193320, Note_on_c, 0, 47, 78
2, 193680, Note_off_c, 0, 47, 0
2, 193680, Note_on_c, 0, 47, 78
2, 193680, Note_on_c, 0, 54, 78
2, 193680, Note_on_c, 0, 59, 78
2, 193680, Note_on_c, 0, 62, 78
2, 193680, Note_on_c, 0, 66, 78
2, 194220, Note_off_c, 0, 66, 0
2, 194220, Note_off_c, 0, 62, 0
2, 194220, Note_off_c, 0, 59, 0
2, 194220, Note_off_c, 0, 54, 0
2, 194220, Note_off_c, 0, 47, 0
2, 194220, Note_on_c, 0, 59, 78
2, 194220, Note_on_c, 0, 62, 78
2, 194220, Note_on_c, 0, 66, 78
2, 194400, Note_off_c, 0, 66, 0
2, 194400, Note_off_c, 0, 62, 0
2, 194400, Note_off_c, 0, 59, 0
2, 194400, Note_on_c, 0, 47, 78
2, 194400, Note_on_c, 0, 54, 78
2, 194400, Note_on_c, 0, 59, 78
2, 194400, Note_on_c, 0, 62, 78
2, 194400, Note_on_c, 0, 66, 78
2, 194760, Note_off_c, 0, 66, 0
2, 194760, Note_off_c, 0, 62, 0
2, 194760, Note_off_c, 0, 59, 0
2, 194760, Note_off_c, 0, 54, 0
2, 194760, Note_off_c, 0, 47, 0
2, 194760, Note_on_c, 0, 54, 78
2, 194760, Note_on_c, 0, 59, 78
2, 194760, Note_on_c, 0, 62, 78
2, 194760, Note_on_c, 0, 66, 78
2, 195120, Note_off_c, 0, 66, 0
2, 195120, Note_off_c, 0, 62, 0
2, 195120, Note_off_c, 0, 59, 0
2, 195120, Note_off_c, 0, 54, 0
2, 195120, Note_on_c, 0, 59, 78
2, 195300, Note_off_c, 0, 59, 0
2, 195300, Note_on_c, 0, 60, 78
2, 195480, Note_off_c, 0, 60, 0
2, 195480, Note_on_c, 0, 59, 78
2, 195660, Note_off_c, 0, 59, 0
2, 195660, Note_on_c, 0, 60, 78
2, 195840, Note_off_c, 0, 60, 0
2, 195840, Note_on_c, 0, 45, 78
2, 195840, Note_on_c, 0, 52, 78
2, 195840, Note_on_c, 0, 57, 78
2, 195840, Note_on_c, 0, 60, 78
2, 195840, Note_on_c, 0, 64, 78
2, 196560, Note_off_c, 0, 64, 0
2, 196560, Note_off_c, 0, 60, 0
2, 196560, Note_off_c, 0, 57, 0
2, 196560, Note_off_c, 0, 52, 0
2, 196560, Note_off_c, 0, 45, 0
2, 196560, Note_on_c, 0, 45, 78
2, 196560, Note_on_c, 0, 52, 78
2, 196560, Note_on_c, 0, 57, 78
2, 196560, Note_on_c, 0, 60, 78
2, 196560, Note_on_c, 0, 64, 78
2, 196560, Note_on_c, 0, 69, 78
2, 197100, Note_off_c, 0, 69, 0
2, 197100, Note_off_c, 0, 64, 0
2, 197100, Note_off_c, 0, 60, 0
2, 197100, Note_off_c, 0, 57, 0
2, 197100, Note_off_c, 0, 52, 0
2, 197100, Note_off_c, 0, 45, 0
2, 197100, Note_on_c, 0, 57, 78
2, 197100, Note_on_c, 0, 60, 78
2, 197100, Note_on_c, 0, 64, 78
2, 197100, Note_on_c, 0, 69, 78
2, 197280, Note_off_c, 0, 69, 0
2, 197280, Note_off_c, 0, 64, 0
2, 197280, Note_off_c, 0, 60, 0
2, 197280, Note_off_c, 0, 57, 0
2, 197280, Note_on_c, 0, 45, 78
2, 197280, Note_on_c, 0, 52, 78
2, 197280, Note_on_c, 0, 57, 78
2, 197280, Note_on_c, 0, 60, 78
2, 197280, Note_on_c, 0, 64, 78
2, 197640, Note_off_c, 0, 64, 0
2, 197640, Note_off_c, 0, 60, 0
2, 197640, Note_off_c, 0, 57, 0
2, 197640, Note_off_c, 0, 52, 0
2, 197640, Note_off_c, 0, 45, 0
2, 197640, Note_on_c, 0, 45, 78
2, 197640, Note_on_c, 0, 57, 78
2, 197820, Note_off_c, 0, 57, 0
2, 197820, Note_off_c, 0, 45, 0
2, 197820, Note_on_c, 0, 45, 78
2, 197820, Note_on_c, 0, 57, 78
2, 198000, Note_off_c, 0, 57, 0
2, 198000, Note_off_c, 0, 45, 0
2, 198000, Note_on_c, 0, 43, 78
2, 198000, Note_on_c, 0, 55, 78
2, 198180, Note_off_c, 0, 55, 0
2, 198180, Note_off_c, 0, 43, 0
2, 198180, Note_on_c, 0, 43, 78
2, 198180, Note_on_c, 0, 55, 78
2, 198360, Note_off_c, 0, 55, 0
2, 198360, Note_off_c, 0, 43, 0
2, 198360, Note_on_c, 0, 41, 78
2, 198360, Note_on_c, 0, 48, 78
2, 198360, Note_on_c, 0, 53, 78
2, 198360, Note_on_c, 0, 57, 78
2, 198360, Note_on_c, 0, 60, 78
2, 198360, Note_on_c, 0, 65, 78
2, 199080, Note_off_c, 0, 65, 0
2, 199080, Note_off_c, 0, 60, 0
2, 199080, Note_off_c, 0, 57, 0
2, 199080, Note_off_c, 0, 53, 0
2, 199080, Note_off_c, 0, 48, 0
2, 199080, Note_off_c, 0, 41, 0
2, 199080, Note_on_c, 0, 41, 78
2, 199440, Note_off_c, 0, 41, 0
2, 199440, Note_on_c, 0, 41, 78
2, 199440, Note_on_c, 0, 48, 78
2, 199440, Note_on_c, 0, 53, 78
2, 199440, Note_on_c, 0, 57, 78
2, 199440, Note_on_c, 0, 60, 78
2, 199440, Note_on_c, 0, 65, 78
2, 199980, Note_off_c, 0, 65, 0
2, 199980, Note_off_c, 0, 60, 0
2, 199980, Note_off_c, 0, 57, 0
2, 199980, Note_off_c, 0, 53, 0
2, 199980, Note_off_c, 0, 48, 0
2, 199980, Note_off_c, 0, 41, 0
2, 199980, Note_on_c, 0, 53, 78
2, 199980, Note_on_c, 0, 57, 78
2, 199980, Note_on_c, 0, 60, 78
2, 199980, Note_on_c, 0, 65, 78
2, 200160, Note_off_c, 0, 65, 0
2, 200160, Note_off_c, 0, 60, 0
2, 200160, Note_off_c, 0, 57, 0
2, 200160, Note_off_c, 0, 53, 0
2, 200160, Note_on_c, 0, 41, 78
2, 200160, Note_on_c, 0, 48, 78
2, 200160, Note_on_c, 0, 53, 78
2, 200160, Note_on_c, 0, 57, 78
2, 200160, Note_on_c, 0, 60, 78
2, 200160, Note_on_c, 0, 65, 78
2, 200520, Note_off_c, 0, 65, 0
2, 200520, Note_off_c, 0, 60, 0
2, 200520, Note_off_c, 0, 57, 0
2, 200520, Note_off_c, 0, 53, 0
2, 200520, Note_off_c, 0, 48, 0
2, 200520, Note_off_c, 0, 41, 0
2, 200520, Note_on_c, 0, 45, 78
2, 200520, Note_on_c, 0, 57, 78
2, 200700, Note_off_c, 0, 57, 0
2, 200700, Note_off_c, 0, 45, 0
2, 200700, Note_on_c, 1, 45, 78
2, 200700, Note_on_c, 1, 57, 78
2, 200720, Pitch_bend_c, 1, 8112
2, 200740, Pitch_bend_c, 1, 8037
2, 200760, Pitch_bend_c, 1, 7962
2, 200780, Pitch_bend_c, 1, 7887
2, 200800, Pitch_bend_c, 1, 7812
2, 200820, Pitch_bend_c, 1, 7737
2, 200840, Pitch_bend_c, 1, 7662
2, 200860, Pitch_bend_c, 1, 7587
2, 200880, Pitch_bend_c, 1, 7512
2, 201060, Note_off_c, 1, 57, 0
2, 201060, Note_off_c, 1, 45, 0
2, 201060, Pitch_bend_c, 1, 8192
2, 201060, Note_on_c, 1, 45, 78
2, 201060, Note_on_c, 1, 57, 78
2, 201080, Pitch_bend_c, 1, 8112
2, 201100, Pitch_bend_c, 1, 8037
2, 201120, Pitch_bend_c, 1, 7962
2, 201140, Pitch_bend_c, 1, 7887
2, 201160, Pitch_bend_c, 1, 7812
2, 201180, Pitch_bend_c, 1, 7737
2, 201200, Pitch_bend_c, 1, 7662
2, 201220, Pitch_bend_c, 1, 7587
2, 201240, Pitch_bend_c, 1, 7512
2, 201420, Note_off_c, 1, 57, 0
2, 201420, Note_off_c, 1, 45, 0
2, 201420, Pitch_bend_c, 1, 8192
2, 201420, Note_on_c, 0, 45, 78
2, 201420, Note_on_c, 0, 57, 78
2, 201600, Note_off_c, 0, 57, 0
2, 201600, Note_off_c, 0, 45, 0
2, 201600, Note_on_c, 0, 45, 78
2, 201600, Note_on_c, 0, 52, 78
2, 201600, Note_on_c, 0, 57, 78
2, 201600, Note_on_c, 0, 60, 78
2, 201600, Note_on_c, 0, 64, 78
2, 202320, Note_off_c, 0, 64, 0
2, 202320, Note_off_c, 0, 60, 0
2, 202320, Note_off_c, 0, 57, 0
2, 202320, Note_off_c, 0, 52, 0
2, 202320, Note_off_c, 0, 45, 0
2, 202320, Note_on_c, 0, 45, 78
2, 202320, Note_on_c, 0, 52, 78
2, 202320, Note_on_c, 0, 57, 78
2, 202320, Note_on_c, 0, 60, 78
2, 202320, Note_on_c, 0, 64, 78
2, 202320, Note_on_c, 0, 69, 78
2, 202860, Note_off_c, 0, 69, 0
2, 202860, Note_off_c, 0, 64, 0
2, 202860, Note_off_c, 0, 60, 0
2, 202860, Note_off_c, 0, 57, 0
2, 202860, Note_off_c, 0, 52, 0
2, 202860, Note_off_c, 0, 45, 0
2, 202860, Note_on_c, 0, 57, 78
2, 202860, Note_on_c, 0, 60, 78
2, 202860, Note_on_c, 0, 64, 78
2, 202860, Note_on_c, 0, 69, 78
2, 203040, Note_off_c, 0, 69, 0
2, 203040, Note_off_c, 0, 64, 0
2, 203040, Note_off_c, 0, 60, 0
2, 203040, Note_off_c, 0, 57, 0
2, 203040, Note_on_c, 0, 45, 78
2, 203040, Note_on_c, 0, 52, 78
2, 203040, Note_on_c, 0, 57, 78
2, 203040, Note_on_c, 0, 60, 78
2, 203040, Note_on_c, 0, 64, 78
2, 203400, Note_off_c, 0, 64, 0
2, 203400, Note_off_c, 0, 60, 0
2, 203400, Note_off_c, 0, 57, 0
2, 203400, Note_off_c, 0, 52, 0
2, 203400, Note_off_c, 0, 45, 0
2, 203400, Note_on_c, 0, 45, 78
2, 203400, Note_on_c, 0, 57, 78
2, 203580, Note_off_c, 0, 57, 0
2, 203580, Note_off_c, 0, 45, 0
2, 203580, Note_on_c, 0, 45, 78
2, 203580, Note_on_c, 0, 57, 78
2, 203760, Note_off_c, 0, 57, 0
2, 203760, Note_off_c, 0, 45, 0
2, 203760, Note_on_c, 0, 43, 78
2, 203760, Note_on_c, 0, 55, 78
2, 203940, Note_off_c, 0, 55, 0
2, 203940, Note_off_c, 0, 43, 0
2, 203940, Note_on_c, 0, 43, 78
2, 203940, Note_on_c, 0, 55, 78
2, 204120, Note_off_c, 0, 55, 0
2, 204120, Note_off_c, 0, 43, 0
2, 204120, Note_on_c, 0, 41, 78
2, 204120, Note_on_c, 0, 48, 78
2, 204120, Note_on_c, 0, 53, 78
2, 204120, Note_on_c, 0, 57, 78
2, 204120, Note_on_c, 0, 60, 78
2, 204120, Note_on_c, 0, 65, 78
2, 204840, Note_off_c, 0, 65, 0
2, 204840, Note_off_c, 0, 60, 0
2, 204840, Note_off_c, 0, 57, 0
2, 204840, Note_off_c, 0, 53, 0
2, 204840, Note_off_c, 0, 48, 0
2, 204840, Note_off_c, 0, 41, 0
2, 204840, Note_on_c, 0, 41, 78
2, 205200, Note_off_c, 0, 41, 0
2, 205200, Note_on_c, 0, 41, 78
2, 205200, Note_on_c, 0, 48, 78
2, 205200, Note_on_c, 0, 53, 78
2, 205200, Note_on_c, 0, 57, 78
2, 205200, Note_on_c, 0, 60, 78
2, 205200, Note_on_c, 0, 65, 78
2, 205740, Note_off_c, 0, 65, 0
2, 205740, Note_off_c, 0, 60, 0
2, 205740, Note_off_c, 0, 57, 0
2, 205740, Note_off_c, 0, 53, 0
2, 205740, Note_off_c, 0, 48, 0
2, 205740, Note_off_c, 0, 41, 0
2, 205740, Note_on_c, 0, 53, 78
2, 205740, Note_on_c, 0, 57, 78
2, 205740, Note_on_c, 0, 60, 78
2, 205740, Note_on_c, 0, 65, 78
2, 205920, Note_off_c, 0, 65, 0
2, 205920, Note_off_c, 0, 60, 0
2, 205920, Note_off_c, 0, 57, 0
2, 205920, Note_off_c, 0, 53, 0
2, 205920, Note_on_c, 0, 41, 78
2, 205920, Note_on_c, 0, 48, 78
2, 205920, Note_on_c, 0, 53, 78
2, 205920, Note_on_c, 0, 57, 78
2, 205920, Note_on_c, 0, 60, 78
2, 205920, Note_on_c, 0, 65, 78
2, 206280, Note_off_c, 0, 65, 0
2, 206280, Note_off_c, 0, 60, 0
2, 206280, Note_off_c, 0, 57, 0
2, 206280, Note_off_c, 0, 53, 0
2, 206280, Note_off_c, 0, 48, 0
2, 206280, Note_off_c, 0, 41, 0
2, 206280, Note_on_c, 0, 45, 78
2, 206280, Note_on_c, 0, 57, 78
2, 206460, Note_off_c, 0, 57, 0
2, 206460, Note_off_c, 0, 45, 0
2, 206460, Note_on_c, 0, 45, 78
2, 206460, Note_on_c, 0, 57, 78
2, 206640, Note_off_c, 0, 57, 0
2, 206640, Note_off_c, 0, 45, 0
2, 206640, Note_on_c, 0, 43, 78
2, 206640, Note_on_c, 0, 55, 78
2, 206820, Note_off_c, 0, 55, 0
2, 206820, Note_off_c, 0, 43, 0
2, 206820, Note_on_c, 0, 44, 78
2, 206820, Note_on_c, 0, 56, 78
2, 207000, Note_off_c, 0, 56, 0
2, 207000, Note_off_c, 0, 44, 0
2, 207000, Note_on_c, 0, 43, 78
2, 207000, Note_on_c, 0, 55, 78
2, 207180, Note_off_c, 0, 55, 0
2, 207180, Note_off_c, 0, 43, 0
2, 207180, Note_on_c, 0, 44, 78
2, 207180, Note_on_c, 0, 56, 78
2, 207360, Note_off_c, 0, 56, 0
2, 207360, Note_off_c, 0, 44, 0
2, 207360, Note_on_c, 0, 41, 78
2, 207360, Note_on_c, 0, 48, 78
2, 207360, Note_on_c, 0, 53, 78
2, 207360, Note_on_c, 0, 56, 78
2, 207360, Note_on_c, 0, 60, 78
2, 207360, Note_on_c, 0, 65, 78
2, 208080, Note_off_c, 0, 65, 0
2, 208080, Note_off_c, 0, 60, 0
2, 208080, Note_off_c, 0, 56, 0
2, 208080, Note_off_c, 0, 53, 0
2, 208080, Note_off_c, 0, 48, 0
2, 208080, Note_off_c, 0, 41, 0
2, 208080, Note_on_c, 0, 41, 78
2, 208080, Note_on_c, 0, 48, 78
2, 208080, Note_on_c, 0, 53, 78
2, 208080, Note_on_c, 0, 56, 78
2, 208080, Note_on_c, 0, 60, 78
2, 208080, Note_on_c, 0, 65, 78
2, 208620, Note_off_c, 0, 65, 0
2, 208620, Note_off_c, 0, 60, 0
2, 208620, Note_off_c, 0, 56, 0
2, 208620, Note_off_c, 0, 53, 0
2, 208620, Note_off_c, 0, 48, 0
2, 208620, Note_off_c, 0, 41, 0
2, 208620, Note_on_c, 0, 53, 78
2, 208620, Note_on_c, 0, 56, 78
2, 208620, Note_on_c, 0, 60, 78
2, 208620, Note_on_c, 0, 65, 78
2, 208800, Note_off_c, 0, 65, 0
2, 208800, Note_off_c, 0, 60, 0
2, 208800, Note_off_c, 0, 56, 0
2, 208800, Note_off_c, 0, 53, 0
2, 208800, Note_on_c, 0, 41, 78
2, 208800, Note_on_c, 0, 48, 78
2, 208800, Note_on_c, 0, 53, 78
2, 208800, Note_on_c, 0, 56, 78
2, 208800, Note_on_c, 0, 60, 78
2, 209160, Note_off_c, 0, 60, 0
2, 209160, Note_off_c, 0, 56, 0
2, 209160, Note_off_c, 0, 53, 0
2, 209160, Note_off_c, 0, 48, 0
2, 209160, Note_off_c, 0, 41, 0
2, 209160, Note_on_c, 0, 44, 78
2, 209160, Note_on_c, 0, 56, 78
2, 209340, Note_off_c, 0, 56, 0
2, 209340, Note_off_c, 0, 44, 0
2, 209340, Note_on_c, 0, 44, 78
2, 209340, Note_on_c, 0, 56, 78
2, 209520, Note_off_c, 0, 56, 0
2, 209520, Note_off_c, 0, 44, 0
2, 209520, Note_on_c, 0, 44, 78
2, 209520, Note_on_c, 0, 56, 78
2, 209700, Note_off_c, 0, 56, 0
2, 209700, Note_off_c, 0, 44, 0
2, 209700, Note_on_c, 0, 44, 78
2, 209700, Note_on_c, 0, 56, 78
2, 209880, Note_off_c, 0, 56, 0
2, 209880, Note_off_c, 0, 44, 0
2, 209880, Note_on_c, 0, 43, 78
2, 209880, Note_on_c, 0, 55, 78
2, 210060, Note_off_c, 0, 55, 0
2, 210060, Note_off_c, 0, 43, 0
2, 210060, Note_on_c, 0, 43, 78
2, 210060, Note_on_c, 0, 55, 78
2, 210240, Note_off_c, 0, 55, 0
2, 210240, Note_off_c, 0, 43, 0
2, 210240, Note_on_c, 0, 45, 65
2, 210240, Note_on_c, 0, 52, 65
2, 210240, Note_on_c, 0, 57, 65
2, 210240, Note_on_c, 0, 61, 65
2, 210240, Note_on_c, 0, 64, 65
2, 210240, Note_on_c, 0, 69, 65
2, 210600, Note_off_c, 0, 69, 0
2, 210600, Note_off_c, 0, 64, 0
2, 210600, Note_off_c, 0, 61, 0
2, 210600, Note_off_c, 0, 57, 0
2, 210600, Note_off_c, 0, 52, 0
2, 210600, Note_off_c, 0, 45, 0
2, 210600, Note_on_c, 0, 45, 65
2, 210600, Note_on_c, 0, 52, 65
2, 210600, Note_on_c, 0, 57, 65
2, 210600, Note_on_c, 0, 61, 65
2, 210600, Note_on_c, 0, 64, 65
2, 210600, Note_on_c, 0, 69, 65
2, 210960, Note_off_c, 0, 69, 0
2, 210960, Note_off_c, 0, 64, 0
2, 210960, Note_off_c, 0, 61, 0
2, 210960, Note_off_c, 0, 57, 0
2, 210960, Note_off_c, 0, 52, 0
2, 210960, Note_off_c, 0, 45, 0
2, 210960, Note_on_c, 0, 45, 65
2, 210960, Note_on_c, 0, 52, 65
2, 210960, Note_on_c, 0, 57, 65
2, 210960, Note_on_c, 0, 61, 65
2, 210960, Note_on_c, 0, 64, 65
2, 210960, Note_on_c, 0, 69, 65
2, 211320, Note_off_c, 0, 69, 0
2, 211320, Note_off_c, 0, 64, 0
2, 211320, Note_off_c, 0, 61, 0
2, 211320, Note_off_c, 0, 57, 0
2, 211320, Note_off_c, 0, 52, 0
2, 211320, Note_off_c, 0, 45, 0
2, 211320, Note_on_c, 0, 45, 65
2, 211320, Note_on_c, 0, 52, 65
2, 211320, Note_on_c, 0, 57, 65
2, 211320, Note_on_c, 0, 61, 65
2, 211320, Note_on_c, 0, 64, 65
2, 211320, Note_on_c, 0, 69, 65
2, 211680, Note_off_c, 0, 69, 0
2, 211680, Note_off_c, 0, 64, 0
2, 211680, Note_off_c, 0, 61, 0
2, 211680, Note_off_c, 0, 57, 0
2, 211680, Note_off_c, 0, 52, 0
2, 211680, Note_off_c, 0, 45, 0
2, 211680, Note_on_c, 0, 45, 65
2, 211680, Note_on_c, 0, 52, 65
2, 211680, Note_on_c, 0, 57, 65
2, 211680, Note_on_c, 0, 61, 65
2, 211680, Note_on_c, 0, 64, 65
2, 211680, Note_on_c, 0, 69, 65
2, 212040, Note_off_c, 0, 69, 0
2, 212040, Note_off_c, 0, 64, 0
2, 212040, Note_off_c, 0, 61, 0
2, 212040, Note_off_c, 0, 57, 0
2, 212040, Note_off_c, 0, 52, 0
2, 212040, Note_off_c, 0, 45, 0
2, 212040, Note_on_c, 0, 45, 65
2, 212040, Note_on_c, 0, 52, 65
2, 212040, Note_on_c, 0, 57, 65
2, 212040, Note_on_c, 0, 61, 65
2, 212040, Note_on_c, 0, 64, 65
2, 212040, Note_on_c, 0, 69, 65
2, 212400, Note_off_c, 0, 69, 0
2, 212400, Note_off_c, 0, 64, 0
2, 212400, Note_off_c, 0, 61, 0
2, 212400, Note_off_c, 0, 57, 0
2, 212400, Note_off_c, 0, 52, 0
2, 212400, Note_off_c, 0, 45, 0
2, 212400, Note_on_c, 0, 45, 65
2, 212400, Note_on_c, 0, 52, 65
2, 212400, Note_on_c, 0, 57, 65
2, 212400, Note_on_c, 0, 61, 65
2, 212400, Note_on_c, 0, 64, 65
2, 212400, Note_on_c, 0, 69, 65
2, 212760, Note_off_c, 0, 69, 0
2, 212760, Note_off_c, 0, 64, 0
2, 212760, Note_off_c, 0, 61, 0
2, 212760, Note_off_c, 0, 57, 0
2, 212760, Note_off_c, 0, 52, 0
2, 212760, Note_off_c, 0, 45, 0
2, 212760, Note_on_c, 0, 45, 65
2, 212760, Note_on_c, 0, 52, 65
2, 212760, Note_on_c, 0, 57, 65
2, 212760, Note_on_c, 0, 61, 65
2, 212760, Note_on_c, 0, 64, 65
2, 212760, Note_on_c, 0, 69, 65
2, 213120, Note_off_c, 0, 69, 0
2, 213120, Note_off_c, 0, 64, 0
2, 213120, Note_off_c, 0, 61, 0
2, 213120, Note_off_c, 0, 57, 0
2, 213120, Note_off_c, 0, 52, 0
2, 213120, Note_off_c, 0, 45, 0
2, 213120, Note_on_c, 0, 45, 65
2, 213120, Note_on_c, 0, 52, 65
2, 213120, Note_on_c, 0, 57, 65
2, 213120, Note_on_c, 0, 61, 65
2, 213120, Note_on_c, 0, 64, 65
2, 213120, Note_on_c, 0, 69, 65
2, 213480, Note_off_c, 0, 69, 0
2, 213480, Note_off_c, 0, 64, 0
2, 213480, Note_off_c, 0, 61, 0
2, 213480, Note_off_c, 0, 57, 0
2, 213480, Note_off_c, 0, 52, 0
2, 213480, Note_off_c, 0, 45, 0
2, 213480, Note_on_c, 0, 45, 65
2, 213480, Note_on_c, 0, 52, 65
2, 213480, Note_on_c, 0, 57, 65
2, 213480, Note_on_c, 0, 61, 65
2, 213480, Note_on_c, 0, 64, 65
2, 213480, Note_on_c, 0, 69, 65
2, 213840, Note_off_c, 0, 69, 0
2, 213840, Note_off_c, 0, 64, 0
2, 213840, Note_off_c, 0, 61, 0
2, 213840, Note_off_c, 0, 57, 0
2, 213840, Note_off_c, 0, 52, 0
2, 213840, Note_off_c, 0, 45, 0
2, 213840, Note_on_c, 0, 45, 65
2, 213840, Note_on_c, 0, 52, 65
2, 213840, Note_on_c, 0, 57, 65
2, 213840, Note_on_c, 0, 61, 65
2, 213840, Note_on_c, 0, 64, 65
2, 213840, Note_on_c, 0, 69, 65
2, 214200, Note_off_c, 0, 69, 0
2, 214200, Note_off_c, 0, 64, 0
2, 214200, Note_off_c, 0, 61, 0
2, 214200, Note_off_c, 0, 57, 0
2, 214200, Note_off_c, 0, 52, 0
2, 214200, Note_off_c, 0, 45, 0
2, 214200, Note_on_c, 0, 45, 65
2, 214200, Note_on_c, 0, 52, 65
2, 214200, Note_on_c, 0, 57, 65
2, 214200, Note_on_c, 0, 61, 65
2, 214200, Note_on_c, 0, 64, 65
2, 214200, Note_on_c, 0, 69, 65
2, 214560, Note_off_c, 0, 69, 0
2, 214560, Note_off_c, 0, 64, 0
2, 214560, Note_off_c, 0, 61, 0
2, 214560, Note_off_c, 0, 57, 0
2, 214560, Note_off_c, 0, 52, 0
2, 214560, Note_off_c, 0, 45, 0
2, 214560, Note_on_c, 0, 45, 65
2, 214560, Note_on_c, 0, 52, 65
2, 214560, Note_on_c, 0, 57, 65
2, 214560, Note_on_c, 0, 61, 65
2, 214560, Note_on_c, 0, 64, 65
2, 214560, Note_on_c, 0, 69, 65
2, 214920, Note_off_c, 0, 69, 0
2, 214920, Note_off_c, 0, 64, 0
2, 214920, Note_off_c, 0, 61, 0
2, 214920, Note_off_c, 0, 57, 0
2, 214920, Note_off_c, 0, 52, 0
2, 214920, Note_off_c, 0, 45, 0
2, 214920, Note_on_c, 0, 45, 65
2, 214920, Note_on_c, 0, 52, 65
2, 214920, Note_on_c, 0, 57, 65
2, 214920, Note_on_c, 0, 61, 65
2, 214920, Note_on_c, 0, 64, 65
2, 214920, Note_on_c, 0, 69, 65
2, 215280, Note_off_c, 0, 69, 0
2, 215280, Note_off_c, 0, 64, 0
2, 215280, Note_off_c, 0, 61, 0
2, 215280, Note_off_c, 0, 57, 0
2, 215280, Note_off_c, 0, 52, 0
2, 215280, Note_off_c, 0, 45, 0
2, 215280, Note_on_c, 0, 45, 65
2, 215280, Note_on_c, 0, 52, 65
2, 215280, Note_on_c, 0, 57, 65
2, 215280, Note_on_c, 0, 61, 65
2, 215280, Note_on_c, 0, 64, 65
2, 215280, Note_on_c, 0, 69, 65
2, 215640, Note_off_c, 0, 69, 0
2, 215640, Note_off_c, 0, 64, 0
2, 215640, Note_off_c, 0, 61, 0
2, 215640, Note_off_c, 0, 57, 0
2, 215640, Note_off_c, 0, 52, 0
2, 215640, Note_off_c, 0, 45, 0
2, 215640, Note_on_c, 0, 45, 65
2, 215640, Note_on_c, 0, 52, 65
2, 215640, Note_on_c, 0, 57, 65
2, 215640, Note_on_c, 0, 61, 65
2, 215640, Note_on_c, 0, 64, 65
2, 215640, Note_on_c, 0, 69, 65
2, 216000, Note_off_c, 0, 69, 0
2, 216000, Note_off_c, 0, 64, 0
2, 216000, Note_off_c, 0, 61, 0
2, 216000, Note_off_c, 0, 57, 0
2, 216000, Note_off_c, 0, 52, 0
2, 216000, Note_off_c, 0, 45, 0
2, 216000, Note_on_c, 0, 48, 65
2, 216000, Note_on_c, 0, 55, 65
2, 216000, Note_on_c, 0, 60, 65
2, 216000, Note_on_c, 0, 64, 65
2, 216000, Note_on_c, 0, 67, 65
2, 216000, Note_on_c, 0, 72, 65
2, 216360, Note_off_c, 0, 72, 0
2, 216360, Note_off_c, 0, 67, 0
2, 216360, Note_off_c, 0, 64, 0
2, 216360, Note_off_c, 0, 60, 0
2, 216360, Note_off_c, 0, 55, 0
2, 216360, Note_off_c, 0, 48, 0
2, 216360, Note_on_c, 0, 48, 65
2, 216360, Note_on_c, 0, 55, 65
2, 216360, Note_on_c, 0, 60, 65
2, 216360, Note_on_c, 0, 64, 65
2, 216360, Note_on_c, 0, 67, 65
2, 216360, Note_on_c, 0, 72, 65
2, 216720, Note_off_c, 0, 72, 0
2, 216720, Note_off_c, 0, 67, 0
2, 216720, Note_off_c, 0, 64, 0
2, 216720, Note_off_c, 0, 60, 0
2, 216720, Note_off_c, 0, 55, 0
2, 216720, Note_off_c, 0, 48, 0
2, 216720, Note_on_c, 0, 48, 65
2, 216720, Note_on_c, 0, 55, 65
2, 216720, Note_on_c, 0, 60, 65
2, 216720, Note_on_c, 0, 64, 65
2, 216720, Note_on_c, 0, 67, 65
2, 216720, Note_on_c, 0, 72, 65
2, 217080, Note_off_c, 0, 72, 0
2, 217080, Note_off_c, 0, 67, 0
2, 217080, Note_off_c, 0, 64, 0
2, 217080, Note_off_c, 0, 60, 0
2, 217080, Note_off_c, 0, 55, 0
2, 217080, Note_off_c, 0, 48, 0
2, 217080, Note_on_c, 0, 48, 65
2, 217080, Note_on_c, 0, 55, 65
2, 217080, Note_on_c, 0, 60, 65
2, 217080, Note_on_c, 0, 64, 65
2, 217080, Note_on_c, 0, 67, 65
2, 217080, Note_on_c, 0, 72, 65
2, 217440, Note_off_c, 0, 72, 0
2, 217440, Note_off_c, 0, 67, 0
2, 217440, Note_off_c, 0, 64, 0
2, 217440, Note_off_c, 0, 60, 0
2, 217440, Note_off_c, 0, 55, 0
2, 217440, Note_off_c, 0, 48, 0
2, 217440, Note_on_c, 0, 48, 65
2, 217440, Note_on_c, 0, 55, 65
2, 217440, Note_on_c, 0, 60, 65
2, 217440, Note_on_c, 0, 64, 65
2, 217440, Note_on_c, 0, 67, 65
2, 217440, Note_on_c, 0, 72, 65
2, 217800, Note_off_c, 0, 72, 0
2, 217800, Note_off_c, 0, 67, 0
2, 217800, Note_off_c, 0, 64, 0
2, 217800, Note_off_c, 0, 60, 0
2, 217800, Note_off_c, 0, 55, 0
2, 217800, Note_off_c, 0, 48, 0
2, 217800, Note_on_c, 0, 48, 65
2, 217800, Note_on_c, 0, 55, 65
2, 217800, Note_on_c, 0, 60, 65
2, 217800, Note_on_c, 0, 64, 65
2, 217800, Note_on_c, 0, 67, 65
2, 217800, Note_on_c, 0, 72, 65
2, 218160, Note_off_c, 0, 72, 0
2, 218160, Note_off_c, 0, 67, 0
2, 218160, Note_off_c, 0, 64, 0
2, 218160, Note_off_c, 0, 60, 0
2, 218160, Note_off_c, 0, 55, 0
2, 218160, Note_off_c, 0, 48, 0
2, 218160, Note_on_c, 0, 48, 65
2, 218160, Note_on_c, 0, 55, 65
2, 218160, Note_on_c, 0, 60, 65
2, 218160, Note_on_c, 0, 64, 65
2, 218160, Note_on_c, 0, 67, 65
2, 218160, Note_on_c, 0, 72, 65
2, 218520, Note_off_c, 0, 72, 0
2, 218520, Note_off_c, 0, 67, 0
2, 218520, Note_off_c, 0, 64, 0
2, 218520, Note_off_c, 0, 60, 0
2, 218520, Note_off_c, 0, 55, 0
2, 218520, Note_off_c, 0, 48, 0
2, 218520, Note_on_c, 0, 48, 65
2, 218520, Note_on_c, 0, 55, 65
2, 218520, Note_on_c, 0, 60, 65
2, 218520, Note_on_c, 0, 64, 65
2, 218520, Note_on_c, 0, 67, 65
2, 218520, Note_on_c, 0, 72, 65
2, 218880, Note_off_c, 0, 72, 0
2, 218880, Note_off_c, 0, 67, 0
2, 218880, Note_off_c, 0, 64, 0
2, 218880, Note_off_c, 0, 60, 0
2, 218880, Note_off_c, 0, 55, 0
2, 218880, Note_off_c, 0, 48, 0
2, 218880, Note_on_c, 0, 48, 65
2, 218880, Note_on_c, 0, 55, 65
2, 218880, Note_on_c, 0, 60, 65
2, 218880, Note_on_c, 0, 64, 65
2, 218880, Note_on_c, 0, 67, 65
2, 218880, Note_on_c, 0, 72, 65
2, 219240, Note_off_c, 0, 72, 0
2, 219240, Note_off_c, 0, 67, 0
2, 219240, Note_off_c, 0, 64, 0
2, 219240, Note_off_c, 0, 60, 0
2, 219240, Note_off_c, 0, 55, 0
2, 219240, Note_off_c, 0, 48, 0
2, 219240, Note_on_c, 0, 48, 65
2, 219240, Note_on_c, 0, 55, 65
2, 219240, Note_on_c, 0, 60, 65
2, 219240, Note_on_c, 0, 64, 65
2, 219240, Note_on_c, 0, 67, 65
2, 219240, Note_on_c, 0, 72, 65
2, 219600, Note_off_c, 0, 72, 0
2, 219600, Note_off_c, 0, 67, 0
2, 219600, Note_off_c, 0, 64, 0
2, 219600, Note_off_c, 0, 60, 0
2, 219600, Note_off_c, 0, 55, 0
2, 219600, Note_off_c, 0, 48, 0
2, 219600, Note_on_c, 0, 48, 65
2, 219600, Note_on_c, 0, 55, 65
2, 219600, Note_on_c, 0, 60, 65
2, 219600, Note_on_c, 0, 64, 65
2, 219600, Note_on_c, 0, 67, 65
2, 219600, Note_on_c, 0, 72, 65
2, 219960, Note_off_c, 0, 72, 0
2, 219960, Note_off_c, 0, 67, 0
2, 219960, Note_off_c, 0, 64, 0
2, 219960, Note_off_c, 0, 60, 0
2, 219960, Note_off_c, 0, 55, 0
2, 219960, Note_off_c, 0, 48, 0
2, 219960, Note_on_c, 0, 48, 65
2, 219960, Note_on_c, 0, 55, 65
2, 219960, Note_on_c, 0, 60, 65
2, 219960, Note_on_c, 0, 64, 65
2, 219960, Note_on_c, 0, 67, 65
2, 219960, Note_on_c, 0, 72, 65
2, 220320, Note_off_c, 0, 72, 0
2, 220320, Note_off_c, 0, 67, 0
2, 220320, Note_off_c, 0, 64, 0
2, 220320, Note_off_c, 0, 60, 0
2, 220320, Note_off_c, 0, 55, 0
2, 220320, Note_off_c, 0, 48, 0
2, 220320, Note_on_c, 0, 48, 65
2, 220320, Note_on_c, 0, 55, 65
2, 220320, Note_on_c, 0, 60, 65
2, 220320, Note_on_c, 0, 64, 65
2, 220320, Note_on_c, 0, 67, 65
2, 220320, Note_on_c, 0, 72, 65
2, 220680, Note_off_c, 0, 72, 0
2, 220680, Note_off_c, 0, 67, 0
2, 220680, Note_off_c, 0, 64, 0
2, 220680, Note_off_c, 0, 60, 0
2, 220680, Note_off_c, 0, 55, 0
2, 220680, Note_off_c, 0, 48, 0
2, 220680, Note_on_c, 0, 48, 65
2, 220680, Note_on_c, 0, 55, 65
2, 220680, Note_on_c, 0, 60, 65
2, 220680, Note_on_c, 0, 64, 65
2, 220680, Note_on_c, 0, 67, 65
2, 220680, Note_on_c, 0, 72, 65
2, 221040, Note_off_c, 0, 72, 0
2, 221040, Note_off_c, 0, 67, 0
2, 221040, Note_off_c, 0, 64, 0
2, 221040, Note_off_c, 0, 60, 0
2, 221040, Note_off_c, 0, 55, 0
2, 221040, Note_off_c, 0, 48, 0
2, 221040, Note_on_c, 0, 48, 65
2, 221040, Note_on_c, 0, 55, 65
2, 221040, Note_on_c, 0, 60, 65
2, 221040, Note_on_c, 0, 64, 65
2, 221040, Note_on_c, 0, 67, 65
2, 221040, Note_on_c, 0, 72, 65
2, 221400, Note_off_c, 0, 72, 0
2, 221400, Note_off_c, 0, 67, 0
2, 221400, Note_off_c, 0, 64, 0
2, 221400, Note_off_c, 0, 60, 0
2, 221400, Note_off_c, 0, 55, 0
2, 221400, Note_off_c, 0, 48, 0
2, 221400, Note_on_c, 0, 48, 65
2, 221400, Note_on_c, 0, 55, 65
2, 221400, Note_on_c, 0, 60, 65
2, 221400, Note_on_c, 0, 64, 65
2, 221400, Note_on_c, 0, 67, 65
2, 221400, Note_on_c, 0, 72, 65
2, 221760, Note_off_c, 0, 72, 0
2, 221760, Note_off_c, 0, 67, 0
2, 221760, Note_off_c, 0, 64, 0
2, 221760, Note_off_c, 0, 60, 0
2, 221760, Note_off_c, 0, 55, 0
2, 221760, Note_off_c, 0, 48, 0
2, 221760, Note_on_c, 0, 41, 65
2, 221760, Note_on_c, 0, 48, 65
2, 221760, Note_on_c, 0, 53, 65
2, 221760, Note_on_c, 0, 57, 65
2, 221760, Note_on_c, 0, 60, 65
2, 221760, Note_on_c, 0, 65, 65
2, 222120, Note_off_c, 0, 65, 0
2, 222120, Note_off_c, 0, 60, 0
2, 222120, Note_off_c, 0, 57, 0
2, 222120, Note_off_c, 0, 53, 0
2, 222120, Note_off_c, 0, 48, 0
2, 222120, Note_off_c, 0, 41, 0
2, 222120, Note_on_c, 0, 41, 65
2, 222120, Note_on_c, 0, 48, 65
2, 222120, Note_on_c, 0, 53, 65
2, 222120, Note_on_c, 0, 57, 65
2, 222120, Note_on_c, 0, 60, 65
2, 222120, Note_on_c, 0, 65, 65
2, 222480, Note_off_c, 0, 65, 0
2, 222480, Note_off_c, 0, 60, 0
2, 222480, Note_off_c, 0, 57, 0
2, 222480, Note_off_c, 0, 53, 0
2, 222480, Note_off_c, 0, 48, 0
2, 222480, Note_off_c, 0, 41, 0
2, 222480, Note_on_c, 0, 41, 65
2, 222480, Note_on_c, 0, 48, 65
2, 222480, Note_on_c, 0, 53, 65
2, 222480, Note_on_c, 0, 57, 65
2, 222480, Note_on_c, 0, 60, 65
2, 222480, Note_on_c, 0, 65, 65
2, 222840, Note_off_c, 0, 65, 0
2, 222840, Note_off_c, 0, 60, 0
2, 222840, Note_off_c, 0, 57, 0
2, 222840, Note_off_c, 0, 53, 0
2, 222840, Note_off_c, 0, 48, 0
2, 222840, Note_off_c, 0, 41, 0
2, 222840, Note_on_c, 0, 41, 65
2, 222840, Note_on_c, 0, 48, 65
2, 222840, Note_on_c, 0, 53, 65
2, 222840, Note_on_c, 0, 57, 65
2, 222840, Note_on_c, 0, 60, 65
2, 222840, Note_on_c, 0, 65, 65
2, 223200, Note_off_c, 0, 65, 0
2, 223200, Note_off_c, 0, 60, 0
2, 223200, Note_off_c, 0, 57, 0
2, 223200, Note_off_c, 0, 53, 0
2, 223200, Note_off_c, 0, 48, 0
2, 223200, Note_off_c, 0, 41, 0
2, 223200, Note_on_c, 0, 41, 65
2, 223200, Note_on_c, 0, 48, 65
2, 223200, Note_on_c, 0, 53, 65
2, 223200, Note_on_c, 0, 57, 65
2, 223200, Note_on_c, 0, 60, 65
2, 223200, Note_on_c, 0, 65, 65
2, 223560, Note_off_c, 0, 65, 0
2, 223560, Note_off_c, 0, 60, 0
2, 223560, Note_off_c, 0, 57, 0
2, 223560, Note_off_c, 0, 53, 0
2, 223560, Note_off_c, 0, 48, 0
2, 223560, Note_off_c, 0, 41, 0
2, 223560, Note_on_c, 0, 41, 65
2, 223560, Note_on_c, 0, 48, 65
2, 223560, Note_on_c, 0, 53, 65
2, 223560, Note_on_c, 0, 57, 65
2, 223560, Note_on_c, 0, 60, 65
2, 223560, Note_on_c, 0, 65, 65
2, 223920, Note_off_c, 0, 65, 0
2, 223920, Note_off_c, 0, 60, 0
2, 223920, Note_off_c, 0, 57, 0
2, 223920, Note_off_c, 0, 53, 0
2, 223920, Note_off_c, 0, 48, 0
2, 223920, Note_off_c, 0, 41, 0
2, 223920, Note_on_c, 0, 41, 65
2, 223920, Note_on_c, 0, 48, 65
2, 223920, Note_on_c, 0, 53, 65
2, 223920, Note_on_c, 0, 57, 65
2, 223920, Note_on_c, 0, 60, 65
2, 223920, Note_on_c, 0, 65, 65
2, 224280, Note_off_c, 0, 65, 0
2, 224280, Note_off_c, 0, 60, 0
2, 224280, Note_off_c, 0, 57, 0
2, 224280, Note_off_c, 0, 53, 0
2, 224280, Note_off_c, 0, 48, 0
2, 224280, Note_off_c, 0, 41, 0
2, 224280, Note_on_c, 0, 41, 65
2, 224280, Note_on_c, 0, 48, 65
2, 224280, Note_on_c, 0, 53, 65
2, 224280, Note_on_c, 0, 57, 65
2, 224280, Note_on_c, 0, 60, 65
2, 224280, Note_on_c, 0, 65, 65
2, 224640, Note_off_c, 0, 65, 0
2, 224640, Note_off_c, 0, 60, 0
2, 224640, Note_off_c, 0, 57, 0
2, 224640, Note_off_c, 0, 53, 0
2, 224640, Note_off_c, 0, 48, 0
2, 224640, Note_off_c, 0, 41, 0
2, 224640, Note_on_c, 0, 41, 65
2, 224640, Note_on_c, 0, 48, 65
2, 224640, Note_on_c, 0, 53, 65
2, 224640, Note_on_c, 0, 57, 65
2, 224640, Note_on_c, 0, 60, 65
2, 224640, Note_on_c, 0, 65, 65
2, 225000, Note_off_c, 0, 65, 0
2, 225000, Note_off_c, 0, 60, 0
2, 225000, Note_off_c, 0, 57, 0
2, 225000, Note_off_c, 0, 53, 0
2, 225000, Note_off_c, 0, 48, 0
2, 225000, Note_off_c, 0, 41, 0
2, 225000, Note_on_c, 0, 41, 65
2, 225000, Note_on_c, 0, 48, 65
2, 225000, Note_on_c, 0, 53, 65
2, 225000, Note_on_c, 0, 57, 65
2, 225000, Note_on_c, 0, 60, 65
2, 225000, Note_on_c, 0, 65, 65
2, 225360, Note_off_c, 0, 65, 0
2, 225360, Note_off_c, 0, 60, 0
2, 225360, Note_off_c, 0, 57, 0
2, 225360, Note_off_c, 0, 53, 0
2, 225360, Note_off_c, 0, 48, 0
2, 225360, Note_off_c, 0, 41, 0
2, 225360, Note_on_c, 0, 41, 65
2, 225360, Note_on_c, 0, 48, 65
2, 225360, Note_on_c, 0, 53, 65
2, 225360, Note_on_c, 0, 57, 65
2, 225360, Note_on_c, 0, 60, 65
2, 225360, Note_on_c, 0, 65, 65
2, 225720, Note_off_c, 0, 65, 0
2, 225720, Note_off_c, 0, 60, 0
2, 225720, Note_off_c, 0, 57, 0
2, 225720, Note_off_c, 0, 53, 0
2, 225720, Note_off_c, 0, 48, 0
2, 225720, Note_off_c, 0, 41, 0
2, 225720, Note_on_c, 0, 41, 65
2, 225720, Note_on_c, 0, 48, 65
2, 225720, Note_on_c, 0, 53, 65
2, 225720, Note_on_c, 0, 57, 65
2, 225720, Note_on_c, 0, 60, 65
2, 225720, Note_on_c, 0, 65, 65
2, 226080, Note_off_c, 0, 65, 0
2, 226080, Note_off_c, 0, 60, 0
2, 226080, Note_off_c, 0, 57, 0
2, 226080, Note_off_c, 0, 53, 0
2, 226080, Note_off_c, 0, 48, 0
2, 226080, Note_off_c, 0, 41, 0
2, 226080, Note_on_c, 0, 41, 65
2, 226080, Note_on_c, 0, 48, 65
2, 226080, Note_on_c, 0, 53, 65
2, 226080, Note_on_c, 0, 57, 65
2, 226080, Note_on_c, 0, 60, 65
2, 226080, Note_on_c, 0, 65, 65
2, 226440, Note_off_c, 0, 65, 0
2, 226440, Note_off_c, 0, 60, 0
2, 226440, Note_off_c, 0, 57, 0
2, 226440, Note_off_c, 0, 53, 0
2, 226440, Note_off_c, 0, 48, 0
2, 226440, Note_off_c, 0, 41, 0
2, 226440, Note_on_c, 0, 41, 65
2, 226440, Note_on_c, 0, 48, 65
2, 226440, Note_on_c, 0, 53, 65
2, 226440, Note_on_c, 0, 57, 65
2, 226440, Note_on_c, 0, 60, 65
2, 226440, Note_on_c, 0, 65, 65
2, 226800, Note_off_c, 0, 65, 0
2, 226800, Note_off_c, 0, 60, 0
2, 226800, Note_off_c, 0, 57, 0
2, 226800, Note_off_c, 0, 53, 0
2, 226800, Note_off_c, 0, 48, 0
2, 226800, Note_off_c, 0, 41, 0
2, 226800, Note_on_c, 0, 41, 65
2, 226800, Note_on_c, 0, 48, 65
2, 226800, Note_on_c, 0, 53, 65
2, 226800, Note_on_c, 0, 57, 65
2, 226800, Note_on_c, 0, 60, 65
2, 226800, Note_on_c, 0, 65, 65
2, 227160, Note_off_c, 0, 65, 0
2, 227160, Note_off_c, 0, 60, 0
2, 227160, Note_off_c, 0, 57, 0
2, 227160, Note_off_c, 0, 53, 0
2, 227160, Note_off_c, 0, 48, 0
2, 227160, Note_off_c, 0, 41, 0
2, 227160, Note_on_c, 0, 41, 65
2, 227160, Note_on_c, 0, 48, 65
2, 227160, Note_on_c, 0, 53, 65
2, 227160, Note_on_c, 0, 57, 65
2, 227160, Note_on_c, 0, 60, 65
2, 227160, Note_on_c, 0, 65, 65
2, 227520, Note_off_c, 0, 65, 0
2, 227520, Note_off_c, 0, 60, 0
2, 227520, Note_off_c, 0, 57, 0
2, 227520, Note_off_c, 0, 53, 0
2, 227520, Note_off_c, 0, 48, 0
2, 227520, Note_off_c, 0, 41, 0
2, 227520, Note_on_c, 0, 43, 65
2, 227520, Note_on_c, 0, 50, 65
2, 227520, Note_on_c, 0, 55, 65
2, 227520, Note_on_c, 0, 59, 65
2, 227520, Note_on_c, 0, 62, 65
2, 227520, Note_on_c, 0, 67, 65
2, 227880, Note_off_c, 0, 67, 0
2, 227880, Note_off_c, 0, 62, 0
2, 227880, Note_off_c, 0, 59, 0
2, 227880, Note_off_c, 0, 55, 0
2, 227880, Note_off_c, 0, 50, 0
2, 227880, Note_off_c, 0, 43, 0
2, 227880, Note_on_c, 0, 43, 65
2, 227880, Note_on_c, 0, 50, 65
2, 227880, Note_on_c, 0, 55, 65
2, 227880, Note_on_c, 0, 59, 65
2, 227880, Note_on_c, 0, 62, 65
2, 227880, Note_on_c, 0, 67, 65
2, 228240, Note_off_c, 0, 67, 0
2, 228240, Note_off_c, 0, 62, 0
2, 228240, Note_off_c, 0, 59, 0
2, 228240, Note_off_c, 0, 55, 0
2, 228240, Note_off_c, 0, 50, 0
2, 228240, Note_off_c, 0, 43, 0
2, 228240, Note_on_c, 0, 43, 65
2, 228240, Note_on_c, 0, 50, 65
2, 228240, Note_on_c, 0, 55, 65
2, 228240, Note_on_c, 0, 59, 65
2, 228240, Note_on_c, 0, 62, 65
2, 228240, Note_on_c, 0, 67, 65
2, 228600, Note_off_c, 0, 67, 0
2, 228600, Note_off_c, 0, 62, 0
2, 228600, Note_off_c, 0, 59, 0
2, 228600, Note_off_c, 0, 55, 0
2, 228600, Note_off_c, 0, 50, 0
2, 228600, Note_off_c, 0, 43, 0
2, 228600, Note_on_c, 0, 43, 65
2, 228600, Note_on_c, 0, 50, 65
2, 228600, Note_on_c, 0, 55, 65
2, 228600, Note_on_c, 0, 59, 65
2, 228600, Note_on_c, 0, 62, 65
2, 228600, Note_on_c, 0, 67, 65
2, 228960, Note_off_c, 0, 67, 0
2, 228960, Note_off_c, 0, 62, 0
2, 228960, Note_off_c, 0, 59, 0
2, 228960, Note_off_c, 0, 55, 0
2, 228960, Note_off_c, 0, 50, 0
2, 228960, Note_off_c, 0, 43, 0
2, 228960, Note_on_c, 0, 43, 65
2, 228960, Note_on_c, 0, 50, 65
2, 228960, Note_on_c, 0, 55, 65
2, 228960, Note_on_c, 0, 59, 65
2, 228960, Note_on_c, 0, 62, 65
2, 228960, Note_on_c, 0, 67, 65
2, 229320, Note_off_c, 0, 67, 0
2, 229320, Note_off_c, 0, 62, 0
2, 229320, Note_off_c, 0, 59, 0
2, 229320, Note_off_c, 0, 55, 0
2, 229320, Note_off_c, 0, 50, 0
2, 229320, Note_off_c, 0, 43, 0
2, 229320, Note_on_c, 0, 43, 65
2, 229320, Note_on_c, 0, 50, 65
2, 229320, Note_on_c, 0, 55, 65
2, 229320, Note_on_c, 0, 59, 65
2, 229320, Note_on_c, 0, 62, 65
2, 229320, Note_on_c, 0, 67, 65
2, 229680, Note_off_c, 0, 67, 0
2, 229680, Note_off_c, 0, 62, 0
2, 229680, Note_off_c, 0, 59, 0
2, 229680, Note_off_c, 0, 55, 0
2, 229680, Note_off_c, 0, 50, 0
2, 229680, Note_off_c, 0, 43, 0
2, 229680, Note_on_c, 0, 43, 65
2, 229680, Note_on_c, 0, 50, 65
2, 229680, Note_on_c, 0, 55, 65
2, 229680, Note_on_c, 0, 59, 65
2, 229680, Note_on_c, 0, 62, 65
2, 229680, Note_on_c, 0, 67, 65
2, 230040, Note_off_c, 0, 67, 0
2, 230040, Note_off_c, 0, 62, 0
2, 230040, Note_off_c, 0, 59, 0
2, 230040, Note_off_c, 0, 55, 0
2, 230040, Note_off_c, 0, 50, 0
2, 230040, Note_off_c, 0, 43, 0
2, 230040, Note_on_c, 0, 43, 65
2, 230040, Note_on_c, 0, 50, 65
2, 230040, Note_on_c, 0, 55, 65
2, 230040, Note_on_c, 0, 59, 65
2, 230040, Note_on_c, 0, 62, 65
2, 230040, Note_on_c, 0, 67, 65
2, 230400, Note_off_c, 0, 67, 0
2, 230400, Note_off_c, 0, 62, 0
2, 230400, Note_off_c, 0, 59, 0
2, 230400, Note_off_c, 0, 55, 0
2, 230400, Note_off_c, 0, 50, 0
2, 230400, Note_off_c, 0, 43, 0
2, 230400, Note_on_c, 0, 43, 65
2, 230400, Note_on_c, 0, 50, 65
2, 230400, Note_on_c, 0, 55, 65
2, 230400, Note_on_c, 0, 59, 65
2, 230400, Note_on_c, 0, 62, 65
2, 230400, Note_on_c, 0, 67, 65
2, 230760, Note_off_c, 0, 67, 0
2, 230760, Note_off_c, 0, 62, 0
2, 230760, Note_off_c, 0, 59, 0
2, 230760, Note_off_c, 0, 55, 0
2, 230760, Note_off_c, 0, 50, 0
2, 230760, Note_off_c, 0, 43, 0
2, 230760, Note_on_c, 0, 43, 65
2, 230760, Note_on_c, 0, 50, 65
2, 230760, Note_on_c, 0, 55, 65
2, 230760, Note_on_c, 0, 59, 65
2, 230760, Note_on_c, 0, 62, 65
2, 230760, Note_on_c, 0, 67, 65
2, 231120, Note_off_c, 0, 67, 0
2, 231120, Note_off_c, 0, 62, 0
2, 231120, Note_off_c, 0, 59, 0
2, 231120, Note_off_c, 0, 55, 0
2, 231120, Note_off_c, 0, 50, 0
2, 231120, Note_off_c, 0, 43, 0
2, 231120, Note_on_c, 0, 43, 65
2, 231120, Note_on_c, 0, 50, 65
2, 231120, Note_on_c, 0, 55, 65
2, 231120, Note_on_c, 0, 59, 65
2, 231120, Note_on_c, 0, 62, 65
2, 231120, Note_on_c, 0, 67, 65
2, 231480, Note_off_c, 0, 67, 0
2, 231480, Note_off_c, 0, 62, 0
2, 231480, Note_off_c, 0, 59, 0
2, 231480, Note_off_c, 0, 55, 0
2, 231480, Note_off_c, 0, 50, 0
2, 231480, Note_off_c, 0, 43, 0
2, 231480, Note_on_c, 0, 43, 65
2, 231480, Note_on_c, 0, 50, 65
2, 231480, Note_on_c, 0, 55, 65
2, 231480, Note_on_c, 0, 59, 65
2, 231480, Note_on_c, 0, 62, 65
2, 231480, Note_on_c, 0, 67, 65
2, 231840, Note_off_c, 0, 67, 0
2, 231840, Note_off_c, 0, 62, 0
2, 231840, Note_off_c, 0, 59, 0
2, 231840, Note_off_c, 0, 55, 0
2, 231840, Note_off_c, 0, 50, 0
2, 231840, Note_off_c, 0, 43, 0
2, 231840, Note_on_c, 0, 46, 65
2, 231840, Note_on_c, 0, 53, 65
2, 231840, Note_on_c, 0, 58, 65
2, 231840, Note_on_c, 0, 62, 65
2, 231840, Note_on_c, 0, 65, 65
2, 231840, Note_on_c, 0, 70, 65
2, 232200, Note_off_c, 0, 70, 0
2, 232200, Note_off_c, 0, 65, 0
2, 232200, Note_off_c, 0, 62, 0
2, 232200, Note_off_c, 0, 58, 0
2, 232200, Note_off_c, 0, 53, 0
2, 232200, Note_off_c, 0, 46, 0
2, 232200, Note_on_c, 0, 46, 65
2, 232200, Note_on_c, 0, 53, 65
2, 232200, Note_on_c, 0, 58, 65
2, 232200, Note_on_c, 0, 62, 65
2, 232200, Note_on_c, 0, 65, 65
2, 232200, Note_on_c, 0, 70, 65
2, 232560, Note_off_c, 0, 70, 0
2, 232560, Note_off_c, 0, 65, 0
2, 232560, Note_off_c, 0, 62, 0
2, 232560, Note_off_c, 0, 58, 0
2, 232560, Note_off_c, 0, 53, 0
2, 232560, Note_off_c, 0, 46, 0
2, 232560, Note_on_c, 0, 46, 65
2, 232560, Note_on_c, 0, 53, 65
2, 232560, Note_on_c, 0, 58, 65
2, 232560, Note_on_c, 0, 62, 65
2, 232560, Note_on_c, 0, 65, 65
2, 232560, Note_on_c, 0, 70, 65
2, 232920, Note_off_c, 0, 70, 0
2, 232920, Note_off_c, 0, 65, 0
2, 232920, Note_off_c, 0, 62, 0
2, 232920, Note_off_c, 0, 58, 0
2, 232920, Note_off_c, 0, 53, 0
2, 232920, Note_off_c, 0, 46, 0
2, 232920, Note_on_c, 0, 46, 65
2, 232920, Note_on_c, 0, 53, 65
2, 232920, Note_on_c, 0, 58, 65
2, 232920, Note_on_c, 0, 62, 65
2, 232920, Note_on_c, 0, 65, 65
2, 232920, Note_on_c, 0, 70, 65
2, 233280, Note_off_c, 0, 70, 0
2, 233280, Note_off_c, 0, 65, 0
2, 233280, Note_off_c, 0, 62, 0
2, 233280, Note_off_c, 0, 58, 0
2, 233280, Note_off_c, 0, 53, 0
2, 233280, Note_off_c, 0, 46, 0
2, 233280, Note_on_c, 0, 45, 65
2, 233280, Note_on_c, 0, 52, 65
2, 233280, Note_on_c, 0, 57, 65
2, 233280, Note_on_c, 0, 61, 65
2, 233280, Note_on_c, 0, 64, 65
2, 233280, Note_on_c, 0, 69, 65
2, 233640, Note_off_c, 0, 69, 0
2, 233640, Note_off_c, 0, 64, 0
2, 233640, Note_off_c, 0, 61, 0
2, 233640, Note_off_c, 0, 57, 0
2, 233640, Note_off_c, 0, 52, 0
2, 233640, Note_off_c, 0, 45, 0
2, 233640, Note_on_c, 0, 45, 65
2, 233640, Note_on_c, 0, 52, 65
2, 233640, Note_on_c, 0, 57, 65
2, 233640, Note_on_c, 0, 61, 65
2, 233640, Note_on_c, 0, 64, 65
2, 233640, Note_on_c, 0, 69, 65
2, 234000, Note_off_c, 0, 69, 0
2, 234000, Note_off_c, 0, 64, 0
2, 234000, Note_off_c, 0, 61, 0
2, 234000, Note_off_c, 0, 57, 0
2, 234000, Note_off_c, 0, 52, 0
2, 234000, Note_off_c, 0, 45, 0
2, 234000, Note_on_c, 0, 45, 65
2, 234000, Note_on_c, 0, 52, 65
2, 234000, Note_on_c, 0, 57, 65
2, 234000, Note_on_c, 0, 61, 65
2, 234000, Note_on_c, 0, 64, 65
2, 234000, Note_on_c, 0, 69, 65
2, 234360, Note_off_c, 0, 69, 0
2, 234360, Note_off_c, 0, 64, 0
2, 234360, Note_off_c, 0, 61, 0
2, 234360, Note_off_c, 0, 57, 0
2, 234360, Note_off_c, 0, 52, 0
2, 234360, Note_off_c, 0, 45, 0
2, 234360, Note_on_c, 0, 45, 65
2, 234360, Note_on_c, 0, 52, 65
2, 234360, Note_on_c, 0, 57, 65
2, 234360, Note_on_c, 0, 61, 65
2, 234360, Note_on_c, 0, 64, 65
2, 234360, Note_on_c, 0, 69, 65
2, 234720, Note_off_c, 0, 69, 0
2, 234720, Note_off_c, 0, 64, 0
2, 234720, Note_off_c, 0, 61, 0
2, 234720, Note_off_c, 0, 57, 0
2, 234720, Note_off_c, 0, 52, 0
2, 234720, Note_off_c, 0, 45, 0
2, 234720, Note_on_c, 0, 45, 65
2, 234720, Note_on_c, 0, 52, 65
2, 234720, Note_on_c, 0, 57, 65
2, 234720, Note_on_c, 0, 61, 65
2, 234720, Note_on_c, 0, 64, 65
2, 234720, Note_on_c, 0, 69, 65
2, 235080, Note_off_c, 0, 69, 0
2, 235080, Note_off_c, 0, 64, 0
2, 235080, Note_off_c, 0, 61, 0
2, 235080, Note_off_c, 0, 57, 0
2, 235080, Note_off_c, 0, 52, 0
2, 235080, Note_off_c, 0, 45, 0
2, 235080, Note_on_c, 0, 45, 65
2, 235080, Note_on_c, 0, 52, 65
2, 235080, Note_on_c, 0, 57, 65
2, 235080, Note_on_c, 0, 61, 65
2, 235080, Note_on_c, 0, 64, 65
2, 235080, Note_on_c, 0, 69, 65
2, 235440, Note_off_c, 0, 69, 0
2, 235440, Note_off_c, 0, 64, 0
2, 235440, Note_off_c, 0, 61, 0
2, 235440, Note_off_c, 0, 57, 0
2, 235440, Note_off_c, 0, 52, 0
2, 235440, Note_off_c, 0, 45, 0
2, 235440, Note_on_c, 0, 45, 65
2, 235440, Note_on_c, 0, 52, 65
2, 235440, Note_on_c, 0, 57, 65
2, 235440, Note_on_c, 0, 61, 65
2, 235440, Note_on_c, 0, 64, 65
2, 235440, Note_on_c, 0, 69, 65
2, 235800, Note_off_c, 0, 69, 0
2, 235800, Note_off_c, 0, 64, 0
2, 235800, Note_off_c, 0, 61, 0
2, 235800, Note_off_c, 0, 57, 0
2, 235800, Note_off_c, 0, 52, 0
2, 235800, Note_off_c, 0, 45, 0
2, 235800, Note_on_c, 0, 45, 65
2, 235800, Note_on_c, 0, 52, 65
2, 235800, Note_on_c, 0, 57, 65
2, 235800, Note_on_c, 0, 61, 65
2, 235800, Note_on_c, 0, 64, 65
2, 235800, Note_on_c, 0, 69, 65
2, 236160, Note_off_c, 0, 69, 0
2, 236160, Note_off_c, 0, 64, 0
2, 236160, Note_off_c, 0, 61, 0
2, 236160, Note_off_c, 0, 57, 0
2, 236160, Note_off_c, 0, 52, 0
2, 236160, Note_off_c, 0, 45, 0
2, 236160, Note_on_c, 0, 45, 65
2, 236160, Note_on_c, 0, 52, 65
2, 236160, Note_on_c, 0, 57, 65
2, 236160, Note_on_c, 0, 61, 65
2, 236160, Note_on_c, 0, 64, 65
2, 236160, Note_on_c, 0, 69, 65
2, 236520, Note_off_c, 0, 69, 0
2, 236520, Note_off_c, 0, 64, 0
2, 236520, Note_off_c, 0, 61, 0
2, 236520, Note_off_c, 0, 57, 0
2, 236520, Note_off_c, 0, 52, 0
2, 236520, Note_off_c, 0, 45, 0
2, 236520, Note_on_c, 0, 45, 65
2, 236520, Note_on_c, 0, 52, 65
2, 236520, Note_on_c, 0, 57, 65
2, 236520, Note_on_c, 0, 61, 65
2, 236520, Note_on_c, 0, 64, 65
2, 236520, Note_on_c, 0, 69, 65
2, 236880, Note_off_c, 0, 69, 0
2, 236880, Note_off_c, 0, 64, 0
2, 236880, Note_off_c, 0, 61, 0
2, 236880, Note_off_c, 0, 57, 0
2, 236880, Note_off_c, 0, 52, 0
2, 236880, Note_off_c, 0, 45, 0
2, 236880, Note_on_c, 0, 45, 65
2, 236880, Note_on_c, 0, 52, 65
2, 236880, Note_on_c, 0, 57, 65
2, 236880, Note_on_c, 0, 61, 65
2, 236880, Note_on_c, 0, 64, 65
2, 236880, Note_on_c, 0, 69, 65
2, 237240, Note_off_c, 0, 69, 0
2, 237240, Note_off_c, 0, 64, 0
2, 237240, Note_off_c, 0, 61, 0
2, 237240, Note_off_c, 0, 57, 0
2, 237240, Note_off_c, 0, 52, 0
2, 237240, Note_off_c, 0, 45, 0
2, 237240, Note_on_c, 0, 45, 65
2, 237240, Note_on_c, 0, 52, 65
2, 237240, Note_on_c, 0, 57, 65
2, 237240, Note_on_c, 0, 61, 65
2, 237240, Note_on_c, 0, 64, 65
2, 237240, Note_on_c, 0, 69, 65
2, 237600, Note_off_c, 0, 69, 0
2, 237600, Note_off_c, 0, 64, 0
2, 237600, Note_off_c, 0, 61, 0
2, 237600, Note_off_c, 0, 57, 0
2, 237600, Note_off_c, 0, 52, 0
2, 237600, Note_off_c, 0, 45, 0
2, 237600, Note_on_c, 0, 45, 65
2, 237600, Note_on_c, 0, 52, 65
2, 237600, Note_on_c, 0, 57, 65
2, 237600, Note_on_c, 0, 61, 65
2, 237600, Note_on_c, 0, 64, 65
2, 237600, Note_on_c, 0, 69, 65
2, 237960, Note_off_c, 0, 69, 0
2, 237960, Note_off_c, 0, 64, 0
2, 237960, Note_off_c, 0, 61, 0
2, 237960, Note_off_c, 0, 57, 0
2, 237960, Note_off_c, 0, 52, 0
2, 237960, Note_off_c, 0, 45, 0
2, 237960, Note_on_c, 0, 45, 65
2, 237960, Note_on_c, 0, 52, 65
2, 237960, Note_on_c, 0, 57, 65
2, 237960, Note_on_c, 0, 61, 65
2, 237960, Note_on_c, 0, 64, 65
2, 237960, Note_on_c, 0, 69, 65
2, 238320, Note_off_c, 0, 69, 0
2, 238320, Note_off_c, 0, 64, 0
2, 238320, Note_off_c, 0, 61, 0
2, 238320, Note_off_c, 0, 57, 0
2, 238320, Note_off_c, 0, 52, 0
2, 238320, Note_off_c, 0, 45, 0
2, 238320, Note_on_c, 0, 45, 65
2, 238320, Note_on_c, 0, 52, 65
2, 238320, Note_on_c, 0, 57, 65
2, 238320, Note_on_c, 0, 61, 65
2, 238320, Note_on_c, 0, 64, 65
2, 238320, Note_on_c, 0, 69, 65
2, 238680, Note_off_c, 0, 69, 0
2, 238680, Note_off_c, 0, 64, 0
2, 238680, Note_off_c, 0, 61, 0
2, 238680, Note_off_c, 0, 57, 0
2, 238680, Note_off_c, 0, 52, 0
2, 238680, Note_off_c, 0, 45, 0
2, 238680, Note_on_c, 0, 45, 65
2, 238680, Note_on_c, 0, 52, 65
2, 238680, Note_on_c, 0, 57, 65
2, 238680, Note_on_c, 0, 61, 65
2, 238680, Note_on_c, 0, 64, 65
2, 238680, Note_on_c, 0, 69, 65
2, 239040, Note_off_c, 0, 69, 0
2, 239040, Note_off_c, 0, 64, 0
2, 239040, Note_off_c, 0, 61, 0
2, 239040, Note_off_c, 0, 57, 0
2, 239040, Note_off_c, 0, 52, 0
2, 239040, Note_off_c, 0, 45, 0
2, 239040, Note_on_c, 0, 48, 65
2, 239040, Note_on_c, 0, 55, 65
2, 239040, Note_on_c, 0, 60, 65
2, 239040, Note_on_c, 0, 64, 65
2, 239040, Note_on_c, 0, 67, 65
2, 239040, Note_on_c, 0, 72, 65
2, 239400, Note_off_c, 0, 72, 0
2, 239400, Note_off_c, 0, 67, 0
2, 239400, Note_off_c, 0, 64, 0
2, 239400, Note_off_c, 0, 60, 0
2, 239400, Note_off_c, 0, 55, 0
2, 239400, Note_off_c, 0, 48, 0
2, 239400, Note_on_c, 0, 48, 65
2, 239400, Note_on_c, 0, 55, 65
2, 239400, Note_on_c, 0, 60, 65
2, 239400, Note_on_c, 0, 64, 65
2, 239400, Note_on_c, 0, 67, 65
2, 239400, Note_on_c, 0, 72, 65
2, 239760, Note_off_c, 0, 72, 0
2, 239760, Note_off_c, 0, 67, 0
2, 239760, Note_off_c, 0, 64, 0
2, 239760, Note_off_c, 0, 60, 0
2, 239760, Note_off_c, 0, 55, 0
2, 239760, Note_off_c, 0, 48, 0
2, 239760, Note_on_c, 0, 48, 65
2, 239760, Note_on_c, 0, 55, 65
2, 239760, Note_on_c, 0, 60, 65
2, 239760, Note_on_c, 0, 64, 65
2, 239760, Note_on_c, 0, 67, 65
2, 239760, Note_on_c, 0, 72, 65
2, 240120, Note_off_c, 0, 72, 0
2, 240120, Note_off_c, 0, 67, 0
2, 240120, Note_off_c, 0, 64, 0
2, 240120, Note_off_c, 0, 60, 0
2, 240120, Note_off_c, 0, 55, 0
2, 240120, Note_off_c, 0, 48, 0
2, 240120, Note_on_c, 0, 48, 65
2, 240120, Note_on_c, 0, 55, 65
2, 240120, Note_on_c, 0, 60, 65
2, 240120, Note_on_c, 0, 64, 65
2, 240120, Note_on_c, 0, 67, 65
2, 240120, Note_on_c, 0, 72, 65
2, 240480, Note_off_c, 0, 72, 0
2, 240480, Note_off_c, 0, 67, 0
2, 240480, Note_off_c, 0, 64, 0
2, 240480, Note_off_c, 0, 60, 0
2, 240480, Note_off_c, 0, 55, 0
2, 240480, Note_off_c, 0, 48, 0
2, 240480, Note_on_c, 0, 48, 65
2, 240480, Note_on_c, 0, 55, 65
2, 240480, Note_on_c, 0, 60, 65
2, 240480, Note_on_c, 0, 64, 65
2, 240480, Note_on_c, 0, 67, 65
2, 240480, Note_on_c, 0, 72, 65
2, 240840, Note_off_c, 0, 72, 0
2, 240840, Note_off_c, 0, 67, 0
2, 240840, Note_off_c, 0, 64, 0
2, 240840, Note_off_c, 0, 60, 0
2, 240840, Note_off_c, 0, 55, 0
2, 240840, Note_off_c, 0, 48, 0
2, 240840, Note_on_c, 0, 48, 65
2, 240840, Note_on_c, 0, 55, 65
2, 240840, Note_on_c, 0, 60, 65
2, 240840, Note_on_c, 0, 64, 65
2, 240840, Note_on_c, 0, 67, 65
2, 240840, Note_on_c, 0, 72, 65
2, 241200, Note_off_c, 0, 72, 0
2, 241200, Note_off_c, 0, 67, 0
2, 241200, Note_off_c, 0, 64, 0
2, 241200, Note_off_c, 0, 60, 0
2, 241200, Note_off_c, 0, 55, 0
2, 241200, Note_off_c, 0, 48, 0
2, 241200, Note_on_c, 0, 48, 65
2, 241200, Note_on_c, 0, 55, 65
2, 241200, Note_on_c, 0, 60, 65
2, 241200, Note_on_c, 0, 64, 65
2, 241200, Note_on_c, 0, 67, 65
2, 241200, Note_on_c, 0, 72, 65
2, 241560, Note_off_c, 0, 72, 0
2, 241560, Note_off_c, 0, 67, 0
2, 241560, Note_off_c, 0, 64, 0
2, 241560, Note_off_c, 0, 60, 0
2, 241560, Note_off_c, 0, 55, 0
2, 241560, Note_off_c, 0, 48, 0
2, 241560, Note_on_c, 0, 48, 65
2, 241560, Note_on_c, 0, 55, 65
2, 241560, Note_on_c, 0, 60, 65
2, 241560, Note_on_c, 0, 64, 65
2, 241560, Note_on_c, 0, 67, 65
2, 241560, Note_on_c, 0, 72, 65
2, 241920, Note_off_c, 0, 72, 0
2, 241920, Note_off_c, 0, 67, 0
2, 241920, Note_off_c, 0, 64, 0
2, 241920, Note_off_c, 0, 60, 0
2, 241920, Note_off_c, 0, 55, 0
2, 241920, Note_off_c, 0, 48, 0
2, 241920, Note_on_c, 0, 48, 65
2, 241920, Note_on_c, 0, 55, 65
2, 241920, Note_on_c, 0, 60, 65
2, 241920, Note_on_c, 0, 64, 65
2, 241920, Note_on_c, 0, 67, 65
2, 241920, Note_on_c, 0, 72, 65
2, 242280, Note_off_c, 0, 72, 0
2, 242280, Note_off_c, 0, 67, 0
2, 242280, Note_off_c, 0, 64, 0
2, 242280, Note_off_c, 0, 60, 0
2, 242280, Note_off_c, 0, 55, 0
2, 242280, Note_off_c, 0, 48, 0
2, 242280, Note_on_c, 0, 48, 65
2, 242280, Note_on_c, 0, 55, 65
2, 242280, Note_on_c, 0, 60, 65
2, 242280, Note_on_c, 0, 64, 65
2, 242280, Note_on_c, 0, 67, 65
2, 242280, Note_on_c, 0, 72, 65
2, 242640, Note_off_c, 0, 72, 0
2, 242640, Note_off_c, 0, 67, 0
2, 242640, Note_off_c, 0, 64, 0
2, 242640, Note_off_c, 0, 60, 0
2, 242640, Note_off_c, 0, 55, 0
2, 242640, Note_off_c, 0, 48, 0
2, 242640, Note_on_c, 0, 48, 65
2, 242640, Note_on_c, 0, 55, 65
2, 242640, Note_on_c, 0, 60, 65
2, 242640, Note_on_c, 0, 64, 65
2, 242640, Note_on_c, 0, 67, 65
2, 242640, Note_on_c, 0, 72, 65
2, 243000, Note_off_c, 0, 72, 0
2, 243000, Note_off_c, 0, 67, 0
2, 243000, Note_off_c, 0, 64, 0
2, 243000, Note_off_c, 0, 60, 0
2, 243000, Note_off_c, 0, 55, 0
2, 243000, Note_off_c, 0, 48, 0
2, 243000, Note_on_c, 0, 48, 65
2, 243000, Note_on_c, 0, 55, 65
2, 243000, Note_on_c, 0, 60, 65
2, 243000, Note_on_c, 0, 64, 65
2, 243000, Note_on_c, 0, 67, 65
2, 243000, Note_on_c, 0, 72, 65
2, 243360, Note_off_c, 0, 72, 0
2, 243360, Note_off_c, 0, 67, 0
2, 243360, Note_off_c, 0, 64, 0
2, 243360, Note_off_c, 0, 60, 0
2, 243360, Note_off_c, 0, 55, 0
2, 243360, Note_off_c, 0, 48, 0
2, 243360, Note_on_c, 0, 48, 65
2, 243360, Note_on_c, 0, 55, 65
2, 243360, Note_on_c, 0, 60, 65
2, 243360, Note_on_c, 0, 64, 65
2, 243360, Note_on_c, 0, 67, 65
2, 243360, Note_on_c, 0, 72, 65
2, 243720, Note_off_c, 0, 72, 0
2, 243720, Note_off_c, 0, 67, 0
2, 243720, Note_off_c, 0, 64, 0
2, 243720, Note_off_c, 0, 60, 0
2, 243720, Note_off_c, 0, 55, 0
2, 243720, Note_off_c, 0, 48, 0
2, 243720, Note_on_c, 0, 48, 65
2, 243720, Note_on_c, 0, 55, 65
2, 243720, Note_on_c, 0, 60, 65
2, 243720, Note_on_c, 0, 64, 65
2, 243720, Note_on_c, 0, 67, 65
2, 243720, Note_on_c, 0, 72, 65
2, 244080, Note_off_c, 0, 72, 0
2, 244080, Note_off_c, 0, 67, 0
2, 244080, Note_off_c, 0, 64, 0
2, 244080, Note_off_c, 0, 60, 0
2, 244080, Note_off_c, 0, 55, 0
2, 244080, Note_off_c, 0, 48, 0
2, 244080, Note_on_c, 0, 48, 65
2, 244080, Note_on_c, 0, 55, 65
2, 244080, Note_on_c, 0, 60, 65
2, 244080, Note_on_c, 0, 64, 65
2, 244080, Note_on_c, 0, 67, 65
2, 244080, Note_on_c, 0, 72, 65
2, 244440, Note_off_c, 0, 72, 0
2, 244440, Note_off_c, 0, 67, 0
2, 244440, Note_off_c, 0, 64, 0
2, 244440, Note_off_c, 0, 60, 0
2, 244440, Note_off_c, 0, 55, 0
2, 244440, Note_off_c, 0, 48, 0
2, 244440, Note_on_c, 0, 48, 65
2, 244440, Note_on_c, 0, 55, 65
2, 244440, Note_on_c, 0, 60, 65
2, 244440, Note_on_c, 0, 64, 65
2, 244440, Note_on_c, 0, 67, 65
2, 244440, Note_on_c, 0, 72, 65
2, 244800, Note_off_c, 0, 72, 0
2, 244800, Note_off_c, 0, 67, 0
2, 244800, Note_off_c, 0, 64, 0
2, 244800, Note_off_c, 0, 60, 0
2, 244800, Note_off_c, 0, 55, 0
2, 244800, Note_off_c, 0, 48, 0
2, 244800, Note_on_c, 0, 41, 65
2, 244800, Note_on_c, 0, 48, 65
2, 244800, Note_on_c, 0, 53, 65
2, 244800, Note_on_c, 0, 57, 65
2, 244800, Note_on_c, 0, 60, 65
2, 244800, Note_on_c, 0, 65, 65
2, 245160, Note_off_c, 0, 65, 0
2, 245160, Note_off_c, 0, 60, 0
2, 245160, Note_off_c, 0, 57, 0
2, 245160, Note_off_c, 0, 53, 0
2, 245160, Note_off_c, 0, 48, 0
2, 245160, Note_off_c, 0, 41, 0
2, 245160, Note_on_c, 0, 41, 65
2, 245160, Note_on_c, 0, 48, 65
2, 245160, Note_on_c, 0, 53, 65
2, 245160, Note_on_c, 0, 57, 65
2, 245160, Note_on_c, 0, 60, 65
2, 245160, Note_on_c, 0, 65, 65
2, 245520, Note_off_c, 0, 65, 0
2, 245520, Note_off_c, 0, 60, 0
2, 245520, Note_off_c, 0, 57, 0
2, 245520, Note_off_c, 0, 53, 0
2, 245520, Note_off_c, 0, 48, 0
2, 245520, Note_off_c, 0, 41, 0
2, 245520, Note_on_c, 0, 41, 65
2, 245520, Note_on_c, 0, 48, 65
2, 245520, Note_on_c, 0, 53, 65
2, 245520, Note_on_c, 0, 57, 65
2, 245520, Note_on_c, 0, 60, 65
2, 245520, Note_on_c, 0, 65, 65
2, 245880, Note_off_c, 0, 65, 0
2, 245880, Note_off_c, 0, 60, 0
2, 245880, Note_off_c, 0, 57, 0
2, 245880, Note_off_c, 0, 53, 0
2, 245880, Note_off_c, 0, 48, 0
2, 245880, Note_off_c, 0, 41, 0
2, 245880, Note_on_c, 0, 41, 65
2, 245880, Note_on_c, 0, 48, 65
2, 245880, Note_on_c, 0, 53, 65
2, 245880, Note_on_c, 0, 57, 65
2, 245880, Note_on_c, 0, 60, 65
2, 245880, Note_on_c, 0, 65, 65
2, 246240, Note_off_c, 0, 65, 0
2, 246240, Note_off_c, 0, 60, 0
2, 246240, Note_off_c, 0, 57, 0
2, 246240, Note_off_c, 0, 53, 0
2, 246240, Note_off_c, 0, 48, 0
2, 246240, Note_off_c, 0, 41, 0
2, 246240, Note_on_c, 0, 41, 65
2, 246240, Note_on_c, 0, 48, 65
2, 246240, Note_on_c, 0, 53, 65
2, 246240, Note_on_c, 0, 57, 65
2, 246240, Note_on_c, 0, 60, 65
2, 246240, Note_on_c, 0, 65, 65
2, 246600, Note_off_c, 0, 65, 0
2, 246600, Note_off_c, 0, 60, 0
2, 246600, Note_off_c, 0, 57, 0
2, 246600, Note_off_c, 0, 53, 0
2, 246600, Note_off_c, 0, 48, 0
2, 246600, Note_off_c, 0, 41, 0
2, 246600, Note_on_c, 0, 41, 65
2, 246600, Note_on_c, 0, 48, 65
2, 246600, Note_on_c, 0, 53, 65
2, 246600, Note_on_c, 0, 57, 65
2, 246600, Note_on_c, 0, 60, 65
2, 246600, Note_on_c, 0, 65, 65
2, 246960, Note_off_c, 0, 65, 0
2, 246960, Note_off_c, 0, 60, 0
2, 246960, Note_off_c, 0, 57, 0
2, 246960, Note_off_c, 0, 53, 0
2, 246960, Note_off_c, 0, 48, 0
2, 246960, Note_off_c, 0, 41, 0
2, 246960, Note_on_c, 0, 41, 65
2, 246960, Note_on_c, 0, 48, 65
2, 246960, Note_on_c, 0, 53, 65
2, 246960, Note_on_c, 0, 57, 65
2, 246960, Note_on_c, 0, 60, 65
2, 246960, Note_on_c, 0, 65, 65
2, 247320, Note_off_c, 0, 65, 0
2, 247320, Note_off_c, 0, 60, 0
2, 247320, Note_off_c, 0, 57, 0
2, 247320, Note_off_c, 0, 53, 0
2, 247320, Note_off_c, 0, 48, 0
2, 247320, Note_off_c, 0, 41, 0
2, 247320, Note_on_c, 0, 41, 65
2, 247320, Note_on_c, 0, 48, 65
2, 247320, Note_on_c, 0, 53, 65
2, 247320, Note_on_c, 0, 57, 65
2, 247320, Note_on_c, 0, 60, 65
2, 247320, Note_on_c, 0, 65, 65
2, 247680, Note_off_c, 0, 65, 0
2, 247680, Note_off_c, 0, 60, 0
2, 247680, Note_off_c, 0, 57, 0
2, 247680, Note_off_c, 0, 53, 0
2, 247680, Note_off_c, 0, 48, 0
2, 247680, Note_off_c, 0, 41, 0
2, 247680, Note_on_c, 0, 41, 65
2, 247680, Note_on_c, 0, 48, 65
2, 247680, Note_on_c, 0, 53, 65
2, 247680, Note_on_c, 0, 57, 65
2, 247680, Note_on_c, 0, 60, 65
2, 247680, Note_on_c, 0, 65, 65
2, 248040, Note_off_c, 0, 65, 0
2, 248040, Note_off_c, 0, 60, 0
2, 248040, Note_off_c, 0, 57, 0
2, 248040, Note_off_c, 0, 53, 0
2, 248040, Note_off_c, 0, 48, 0
2, 248040, Note_off_c, 0, 41, 0
2, 248040, Note_on_c, 0, 41, 65
2, 248040, Note_on_c, 0, 48, 65
2, 248040, Note_on_c, 0, 53, 65
2, 248040, Note_on_c, 0, 57, 65
2, 248040, Note_on_c, 0, 60, 65
2, 248040, Note_on_c, 0, 65, 65
2, 248400, Note_off_c, 0, 65, 0
2, 248400, Note_off_c, 0, 60, 0
2, 248400, Note_off_c, 0, 57, 0
2, 248400, Note_off_c, 0, 53, 0
2, 248400, Note_off_c, 0, 48, 0
2, 248400, Note_off_c, 0, 41, 0
2, 248400, Note_on_c, 0, 41, 65
2, 248400, Note_on_c, 0, 48, 65
2, 248400, Note_on_c, 0, 53, 65
2, 248400, Note_on_c, 0, 57, 65
2, 248400, Note_on_c, 0, 60, 65
2, 248400, Note_on_c, 0, 65, 65
2, 248760, Note_off_c, 0, 65, 0
2, 248760, Note_off_c, 0, 60, 0
2, 248760, Note_off_c, 0, 57, 0
2, 248760, Note_off_c, 0, 53, 0
2, 248760, Note_off_c, 0, 48, 0
2, 248760, Note_off_c, 0, 41, 0
2, 248760, Note_on_c, 0, 41, 65
2, 248760, Note_on_c, 0, 48, 65
2, 248760, Note_on_c, 0, 53, 65
2, 248760, Note_on_c, 0, 57, 65
2, 248760, Note_on_c, 0, 60, 65
2, 248760, Note_on_c, 0, 65, 65
2, 249120, Note_off_c, 0, 65, 0
2, 249120, Note_off_c, 0, 60, 0
2, 249120, Note_off_c, 0, 57, 0
2, 249120, Note_off_c, 0, 53, 0
2, 249120, Note_off_c, 0, 48, 0
2, 249120, Note_off_c, 0, 41, 0
2, 249120, Note_on_c, 0, 41, 65
2, 249120, Note_on_c, 0, 48, 65
2, 249120, Note_on_c, 0, 53, 65
2, 249120, Note_on_c, 0, 57, 65
2, 249120, Note_on_c, 0, 60, 65
2, 249120, Note_on_c, 0, 65, 65
2, 249480, Note_off_c, 0, 65, 0
2, 249480, Note_off_c, 0, 60, 0
2, 249480, Note_off_c, 0, 57, 0
2, 249480, Note_off_c, 0, 53, 0
2, 249480, Note_off_c, 0, 48, 0
2, 249480, Note_off_c, 0, 41, 0
2, 249480, Note_on_c, 0, 41, 65
2, 249480, Note_on_c, 0, 48, 65
2, 249480, Note_on_c, 0, 53, 65
2, 249480, Note_on_c, 0, 57, 65
2, 249480, Note_on_c, 0, 60, 65
2, 249480, Note_on_c, 0, 65, 65
2, 249840, Note_off_c, 0, 65, 0
2, 249840, Note_off_c, 0, 60, 0
2, 249840, Note_off_c, 0, 57, 0
2, 249840, Note_off_c, 0, 53, 0
2, 249840, Note_off_c, 0, 48, 0
2, 249840, Note_off_c, 0, 41, 0
2, 249840, Note_on_c, 0, 41, 65
2, 249840, Note_on_c, 0, 48, 65
2, 249840, Note_on_c, 0, 53, 65
2, 249840, Note_on_c, 0, 57, 65
2, 249840, Note_on_c, 0, 60, 65
2, 249840, Note_on_c, 0, 65, 65
2, 250200, Note_off_c, 0, 65, 0
2, 250200, Note_off_c, 0, 60, 0
2, 250200, Note_off_c, 0, 57, 0
2, 250200, Note_off_c, 0, 53, 0
2, 250200, Note_off_c, 0, 48, 0
2, 250200, Note_off_c, 0, 41, 0
2, 250200, Note_on_c, 0, 41, 65
2, 250200, Note_on_c, 0, 48, 65
2, 250200, Note_on_c, 0, 53, 65
2, 250200, Note_on_c, 0, 57, 65
2, 250200, Note_on_c, 0, 60, 65
2, 250200, Note_on_c, 0, 65, 65
2, 250560, Note_off_c, 0, 65, 0
2, 250560, Note_off_c, 0, 60, 0
2, 250560, Note_off_c, 0, 57, 0
2, 250560, Note_off_c, 0, 53, 0
2, 250560, Note_off_c, 0, 48, 0
2, 250560, Note_off_c, 0, 41, 0
2, 250560, Note_on_c, 0, 43, 65
2, 250560, Note_on_c, 0, 50, 65
2, 250560, Note_on_c, 0, 55, 65
2, 250560, Note_on_c, 0, 59, 65
2, 250560, Note_on_c, 0, 62, 65
2, 250560, Note_on_c, 0, 67, 65
2, 250920, Note_off_c, 0, 67, 0
2, 250920, Note_off_c, 0, 62, 0
2, 250920, Note_off_c, 0, 59, 0
2, 250920, Note_off_c, 0, 55, 0
2, 250920, Note_off_c, 0, 50, 0
2, 250920, Note_off_c, 0, 43, 0
2, 250920, Note_on_c, 0, 43, 65
2, 250920, Note_on_c, 0, 50, 65
2, 250920, Note_on_c, 0, 55, 65
2, 250920, Note_on_c, 0, 59, 65
2, 250920, Note_on_c, 0, 62, 65
2, 250920, Note_on_c, 0, 67, 65
2, 251280, Note_off_c, 0, 67, 0
2, 251280, Note_off_c, 0, 62, 0
2, 251280, Note_off_c, 0, 59, 0
2, 251280, Note_off_c, 0, 55, 0
2, 251280, Note_off_c, 0, 50, 0
2, 251280, Note_off_c, 0, 43, 0
2, 251280, Note_on_c, 0, 43, 65
2, 251280, Note_on_c, 0, 50, 65
2, 251280, Note_on_c, 0, 55, 65
2, 251280, Note_on_c, 0, 59, 65
2, 251280, Note_on_c, 0, 62, 65
2, 251280, Note_on_c, 0, 67, 65
2, 251640, Note_off_c, 0, 67, 0
2, 251640, Note_off_c, 0, 62, 0
2, 251640, Note_off_c, 0, 59, 0
2, 251640, Note_off_c, 0, 55, 0
2, 251640, Note_off_c, 0, 50, 0
2, 251640, Note_off_c, 0, 43, 0
2, 251640, Note_on_c, 0, 43, 65
2, 251640, Note_on_c, 0, 50, 65
2, 251640, Note_on_c, 0, 55, 65
2, 251640, Note_on_c, 0, 59, 65
2, 251640, Note_on_c, 0, 62, 65
2, 251640, Note_on_c, 0, 67, 65
2, 252000, Note_off_c, 0, 67, 0
2, 252000, Note_off_c, 0, 62, 0
2, 252000, Note_off_c, 0, 59, 0
2, 252000, Note_off_c, 0, 55, 0
2, 252000, Note_off_c, 0, 50, 0
2, 252000, Note_off_c, 0, 43, 0
2, 252000, Note_on_c, 0, 43, 65
2, 252000, Note_on_c, 0, 50, 65
2, 252000, Note_on_c, 0, 55, 65
2, 252000, Note_on_c, 0, 59, 65
2, 252000, Note_on_c, 0, 62, 65
2, 252000, Note_on_c, 0, 67, 65
2, 252360, Note_off_c, 0, 67, 0
2, 252360, Note_off_c, 0, 62, 0
2, 252360, Note_off_c, 0, 59, 0
2, 252360, Note_off_c, 0, 55, 0
2, 252360, Note_off_c, 0, 50, 0
2, 252360, Note_off_c, 0, 43, 0
2, 252360, Note_on_c, 0, 43, 65
2, 252360, Note_on_c, 0, 50, 65
2, 252360, Note_on_c, 0, 55, 65
2, 252360, Note_on_c, 0, 59, 65
2, 252360, Note_on_c, 0, 62, 65
2, 252360, Note_on_c, 0, 67, 65
2, 252720, Note_off_c, 0, 67, 0
2, 252720, Note_off_c, 0, 62, 0
2, 252720, Note_off_c, 0, 59, 0
2, 252720, Note_off_c, 0, 55, 0
2, 252720, Note_off_c, 0, 50, 0
2, 252720, Note_off_c, 0, 43, 0
2, 252720, Note_on_c, 0, 43, 65
2, 252720, Note_on_c, 0, 50, 65
2, 252720, Note_on_c, 0, 55, 65
2, 252720, Note_on_c, 0, 59, 65
2, 252720, Note_on_c, 0, 62, 65
2, 252720, Note_on_c, 0, 67, 65
2, 253080, Note_off_c, 0, 67, 0
2, 253080, Note_off_c, 0, 62, 0
2, 253080, Note_off_c, 0, 59, 0
2, 253080, Note_off_c, 0, 55, 0
2, 253080, Note_off_c, 0, 50, 0
2, 253080, Note_off_c, 0, 43, 0
2, 253080, Note_on_c, 0, 43, 65
2, 253080, Note_on_c, 0, 50, 65
2, 253080, Note_on_c, 0, 55, 65
2, 253080, Note_on_c, 0, 59, 65
2, 253080, Note_on_c, 0, 62, 65
2, 253080, Note_on_c, 0, 67, 65
2, 253440, Note_off_c, 0, 67, 0
2, 253440, Note_off_c, 0, 62, 0
2, 253440, Note_off_c, 0, 59, 0
2, 253440, Note_off_c, 0, 55, 0
2, 253440, Note_off_c, 0, 50, 0
2, 253440, Note_off_c, 0, 43, 0
2, 253440, Note_on_c, 0, 43, 65
2, 253440, Note_on_c, 0, 50, 65
2, 253440, Note_on_c, 0, 55, 65
2, 253440, Note_on_c, 0, 59, 65
2, 253440, Note_on_c, 0, 62, 65
2, 253440, Note_on_c, 0, 67, 65
2, 253800, Note_off_c, 0, 67, 0
2, 253800, Note_off_c, 0, 62, 0
2, 253800, Note_off_c, 0, 59, 0
2, 253800, Note_off_c, 0, 55, 0
2, 253800, Note_off_c, 0, 50, 0
2, 253800, Note_off_c, 0, 43, 0
2, 253800, Note_on_c, 0, 43, 65
2, 253800, Note_on_c, 0, 50, 65
2, 253800, Note_on_c, 0, 55, 65
2, 253800, Note_on_c, 0, 59, 65
2, 253800, Note_on_c, 0, 62, 65
2, 253800, Note_on_c, 0, 67, 65
2, 254160, Note_off_c, 0, 67, 0
2, 254160, Note_off_c, 0, 62, 0
2, 254160, Note_off_c, 0, 59, 0
2, 254160, Note_off_c, 0, 55, 0
2, 254160, Note_off_c, 0, 50, 0
2, 254160, Note_off_c, 0, 43, 0
2, 254160, Note_on_c, 0, 43, 65
2, 254160, Note_on_c, 0, 50, 65
2, 254160, Note_on_c, 0, 55, 65
2, 254160, Note_on_c, 0, 59, 65
2, 254160, Note_on_c, 0, 62, 65
2, 254160, Note_on_c, 0, 67, 65
2, 254520, Note_off_c, 0, 67, 0
2, 254520, Note_off_c, 0, 62, 0
2, 254520, Note_off_c, 0, 59, 0
2, 254520, Note_off_c, 0, 55, 0
2, 254520, Note_off_c, 0, 50, 0
2, 254520, Note_off_c, 0, 43, 0
2, 254520, Note_on_c, 0, 43, 65
2, 254520, Note_on_c, 0, 50, 65
2, 254520, Note_on_c, 0, 55, 65
2, 254520, Note_on_c, 0, 59, 65
2, 254520, Note_on_c, 0, 62, 65
2, 254520, Note_on_c, 0, 67, 65
2, 254880, Note_off_c, 0, 67, 0
2, 254880, Note_off_c, 0, 62, 0
2, 254880, Note_off_c, 0, 59, 0
2, 254880, Note_off_c, 0, 55, 0
2, 254880, Note_off_c, 0, 50, 0
2, 254880, Note_off_c, 0, 43, 0
2, 254880, Note_on_c, 0, 46, 65
2, 254880, Note_on_c, 0, 53, 65
2, 254880, Note_on_c, 0, 58, 65
2, 254880, Note_on_c, 0, 62, 65
2, 254880, Note_on_c, 0, 65, 65
2, 254880, Note_on_c, 0, 70, 65
2, 255240, Note_off_c, 0, 70, 0
2, 255240, Note_off_c, 0, 65, 0
2, 255240, Note_off_c, 0, 62, 0
2, 255240, Note_off_c, 0, 58, 0
2, 255240, Note_off_c, 0, 53, 0
2, 255240, Note_off_c, 0, 46, 0
2, 255240, Note_on_c, 0, 46, 65
2, 255240, Note_on_c, 0, 53, 65
2, 255240, Note_on_c, 0, 58, 65
2, 255240, Note_on_c, 0, 62, 65
2, 255240, Note_on_c, 0, 65, 65
2, 255240, Note_on_c, 0, 70, 65
2, 255600, Note_off_c, 0, 70, 0
2, 255600, Note_off_c, 0, 65, 0
2, 255600, Note_off_c, 0, 62, 0
2, 255600, Note_off_c, 0, 58, 0
2, 255600, Note_off_c, 0, 53, 0
2, 255600, Note_off_c, 0, 46, 0
2, 255600, Note_on_c, 0, 46, 65
2, 255600, Note_on_c, 0, 53, 65
2, 255600, Note_on_c, 0, 58, 65
2, 255600, Note_on_c, 0, 62, 65
2, 255600, Note_on_c, 0, 65, 65
2, 255600, Note_on_c, 0, 70, 65
2, 255960, Note_off_c, 0, 70, 0
2, 255960, Note_off_c, 0, 65, 0
2, 255960, Note_off_c, 0, 62, 0
2, 255960, Note_off_c, 0, 58, 0
2, 255960, Note_off_c, 0, 53, 0
2, 255960, Note_off_c, 0, 46, 0
2, 255960, Note_on_c, 0, 46, 65
2, 255960, Note_on_c, 0, 53, 65
2, 255960, Note_on_c, 0, 58, 65
2, 255960, Note_on_c, 0, 62, 65
2, 255960, Note_on_c, 0, 65, 65
2, 255960, Note_on_c, 0, 70, 65
2, 256320, Note_off_c, 0, 70, 0
2, 256320, Note_off_c, 0, 65, 0
2, 256320, Note_off_c, 0, 62, 0
2, 256320, Note_off_c, 0, 58, 0
2, 256320, Note_off_c, 0, 53, 0
2, 256320, Note_off_c, 0, 46, 0
2, 256320, Note_on_c, 0, 45, 78
2, 256320, Note_on_c, 0, 52, 78
2, 256320, Note_on_c, 0, 57, 78
2, 256320, Note_on_c, 0, 61, 78
2, 256320, Note_on_c, 0, 64, 78
2, 256320, Note_on_c, 0, 69, 78
2, 256680, Note_off_c, 0, 69, 0
2, 256680, Note_off_c, 0, 64, 0
2, 256680, Note_off_c, 0, 61, 0
2, 256680, Note_off_c, 0, 57, 0
2, 256680, Note_off_c, 0, 52, 0
2, 256680, Note_off_c, 0, 45, 0
2, 256680, Note_on_c, 0, 45, 78
2, 256680, Note_on_c, 0, 52, 78
2, 256680, Note_on_c, 0, 57, 78
2, 256680, Note_on_c, 0, 61, 78
2, 256680, Note_on_c, 0, 64, 78
2, 256680, Note_on_c, 0, 69, 78
2, 257040, Note_off_c, 0, 69, 0
2, 257040, Note_off_c, 0, 64, 0
2, 257040, Note_off_c, 0, 61, 0
2, 257040, Note_off_c, 0, 57, 0
2, 257040, Note_off_c, 0, 52, 0
2, 257040, Note_off_c, 0, 45, 0
2, 257040, Note_on_c, 0, 45, 78
2, 257040, Note_on_c, 0, 52, 78
2, 257040, Note_on_c, 0, 57, 78
2, 257040, Note_on_c, 0, 61, 78
2, 257040, Note_on_c, 0, 64, 78
2, 257040, Note_on_c, 0, 69, 78
2, 257400, Note_off_c, 0, 69, 0
2, 257400, Note_off_c, 0, 64, 0
2, 257400, Note_off_c, 0, 61, 0
2, 257400, Note_off_c, 0, 57, 0
2, 257400, Note_off_c, 0, 52, 0
2, 257400, Note_off_c, 0, 45, 0
2, 257400, Note_on_c, 0, 45, 78
2, 257400, Note_on_c, 0, 52, 78
2, 257400, Note_on_c, 0, 57, 78
2, 257400, Note_on_c, 0, 61, 78
2, 257400, Note_on_c, 0, 64, 78
2, 257400, Note_on_c, 0, 69, 78
2, 257760, Note_off_c, 0, 69, 0
2, 257760, Note_off_c, 0, 64, 0
2, 257760, Note_off_c, 0, 61, 0
2, 257760, Note_off_c, 0, 57, 0
2, 257760, Note_off_c, 0, 52, 0
2, 257760, Note_off_c, 0, 45, 0
2, 257760, Note_on_c, 0, 45, 78
2, 257760, Note_on_c, 0, 52, 78
2, 257760, Note_on_c, 0, 57, 78
2, 257760, Note_on_c, 0, 61, 78
2, 257760, Note_on_c, 0, 64, 78
2, 257760, Note_on_c, 0, 69, 78
2, 258120, Note_off_c, 0, 69, 0
2, 258120, Note_off_c, 0, 64, 0
2, 258120, Note_off_c, 0, 61, 0
2, 258120, Note_off_c, 0, 57, 0
2, 258120, Note_off_c, 0, 52, 0
2, 258120, Note_off_c, 0, 45, 0
2, 258120, Note_on_c, 0, 45, 78
2, 258120, Note_on_c, 0, 52, 78
2, 258120, Note_on_c, 0, 57, 78
2, 258120, Note_on_c, 0, 61, 78
2, 258120, Note_on_c, 0, 64, 78
2, 258120, Note_on_c, 0, 69, 78
2, 258480, Note_off_c, 0, 69, 0
2, 258480, Note_off_c, 0, 64, 0
2, 258480, Note_off_c, 0, 61, 0
2, 258480, Note_off_c, 0, 57, 0
2, 258480, Note_off_c, 0, 52, 0
2, 258480, Note_off_c, 0, 45, 0
2, 258480, Note_on_c, 0, 45, 78
2, 258480, Note_on_c, 0, 52, 78
2, 258480, Note_on_c, 0, 57, 78
2, 258480, Note_on_c, 0, 61, 78
2, 258480, Note_on_c, 0, 64, 78
2, 258480, Note_on_c, 0, 69, 78
2, 258840, Note_off_c, 0, 69, 0
2, 258840, Note_off_c, 0, 64, 0
2, 258840, Note_off_c, 0, 61, 0
2, 258840, Note_off_c, 0, 57, 0
2, 258840, Note_off_c, 0, 52, 0
2, 258840, Note_off_c, 0, 45, 0
2, 258840, Note_on_c, 0, 45, 78
2, 258840, Note_on_c, 0, 52, 78
2, 258840, Note_on_c, 0, 57, 78
2, 258840, Note_on_c, 0, 61, 78
2, 258840, Note_on_c, 0, 64, 78
2, 258840, Note_on_c, 0, 69, 78
2, 259200, Note_off_c, 0, 69, 0
2, 259200, Note_off_c, 0, 64, 0
2, 259200, Note_off_c, 0, 61, 0
2, 259200, Note_off_c, 0, 57, 0
2, 259200, Note_off_c, 0, 52, 0
2, 259200, Note_off_c, 0, 45, 0
2, 259200, Note_on_c, 0, 45, 78
2, 259200, Note_on_c, 0, 52, 78
2, 259200, Note_on_c, 0, 57, 78
2, 259200, Note_on_c, 0, 61, 78
2, 259200, Note_on_c, 0, 64, 78
2, 259200, Note_on_c, 0, 69, 78
2, 259560, Note_off_c, 0, 69, 0
2, 259560, Note_off_c, 0, 64, 0
2, 259560, Note_off_c, 0, 61, 0
2, 259560, Note_off_c, 0, 57, 0
2, 259560, Note_off_c, 0, 52, 0
2, 259560, Note_off_c, 0, 45, 0
2, 259560, Note_on_c, 0, 45, 78
2, 259560, Note_on_c, 0, 52, 78
2, 259560, Note_on_c, 0, 57, 78
2, 259560, Note_on_c, 0, 61, 78
2, 259560, Note_on_c, 0, 64, 78
2, 259560, Note_on_c, 0, 69, 78
2, 259920, Note_off_c, 0, 69, 0
2, 259920, Note_off_c, 0, 64, 0
2, 259920, Note_off_c, 0, 61, 0
2, 259920, Note_off_c, 0, 57, 0
2, 259920, Note_off_c, 0, 52, 0
2, 259920, Note_off_c, 0, 45, 0
2, 259920, Note_on_c, 0, 45, 78
2, 259920, Note_on_c, 0, 52, 78
2, 259920, Note_on_c, 0, 57, 78
2, 259920, Note_on_c, 0, 61, 78
2, 259920, Note_on_c, 0, 64, 78
2, 259920, Note_on_c, 0, 69, 78
2, 260280, Note_off_c, 0, 69, 0
2, 260280, Note_off_c, 0, 64, 0
2, 260280, Note_off_c, 0, 61, 0
2, 260280, Note_off_c, 0, 57, 0
2, 260280, Note_off_c, 0, 52, 0
2, 260280, Note_off_c, 0, 45, 0
2, 260280, Note_on_c, 0, 45, 78
2, 260280, Note_on_c, 0, 52, 78
2, 260280, Note_on_c, 0, 57, 78
2, 260280, Note_on_c, 0, 61, 78
2, 260280, Note_on_c, 0, 64, 78
2, 260280, Note_on_c, 0, 69, 78
2, 260640, Note_off_c, 0, 69, 0
2, 260640, Note_off_c, 0, 64, 0
2, 260640, Note_off_c, 0, 61, 0
2, 260640, Note_off_c, 0, 57, 0
2, 260640, Note_off_c, 0, 52, 0
2, 260640, Note_off_c, 0, 45, 0
2, 260640, Note_on_c, 0, 45, 78
2, 260640, Note_on_c, 0, 52, 78
2, 260640, Note_on_c, 0, 57, 78
2, 260640, Note_on_c, 0, 61, 78
2, 260640, Note_on_c, 0, 64, 78
2, 260640, Note_on_c, 0, 69, 78
2, 261000, Note_off_c, 0, 69, 0
2, 261000, Note_off_c, 0, 64, 0
2, 261000, Note_off_c, 0, 61, 0
2, 261000, Note_off_c, 0, 57, 0
2, 261000, Note_off_c, 0, 52, 0
2, 261000, Note_off_c, 0, 45, 0
2, 261000, Note_on_c, 0, 45, 78
2, 261000, Note_on_c, 0, 52, 78
2, 261000, Note_on_c, 0, 57, 78
2, 261000, Note_on_c, 0, 61, 78
2, 261000, Note_on_c, 0, 64, 78
2, 261000, Note_on_c, 0, 69, 78
2, 261360, Note_off_c, 0, 69, 0
2, 261360, Note_off_c, 0, 64, 0
2, 261360, Note_off_c, 0, 61, 0
2, 261360, Note_off_c, 0, 57, 0
2, 261360, Note_off_c, 0, 52, 0
2, 261360, Note_off_c, 0, 45, 0
2, 261360, Note_on_c, 0, 45, 78
2, 261360, Note_on_c, 0, 52, 78
2, 261360, Note_on_c, 0, 57, 78
2, 261360, Note_on_c, 0, 61, 78
2, 261360, Note_on_c, 0, 64, 78
2, 261360, Note_on_c, 0, 69, 78
2, 261720, Note_off_c, 0, 69, 0
2, 261720, Note_off_c, 0, 64, 0
2, 261720, Note_off_c, 0, 61, 0
2, 261720, Note_off_c, 0, 57, 0
2, 261720, Note_off_c, 0, 52, 0
2, 261720, Note_off_c, 0, 45, 0
2, 261720, Note_on_c, 0, 45, 78
2, 261720, Note_on_c, 0, 52, 78
2, 261720, Note_on_c, 0, 57, 78
2, 261720, Note_on_c, 0, 61, 78
2, 261720, Note_on_c, 0, 64, 78
2, 261720, Note_on_c, 0, 69, 78
2, 262080, Note_off_c, 0, 69, 0
2, 262080, Note_off_c, 0, 64, 0
2, 262080, Note_off_c, 0, 61, 0
2, 262080, Note_off_c, 0, 57, 0
2, 262080, Note_off_c, 0, 52, 0
2, 262080, Note_off_c, 0, 45, 0
2, 262080, Note_on_c, 0, 48, 78
2, 262080, Note_on_c, 0, 55, 78
2, 262080, Note_on_c, 0, 60, 78
2, 262080, Note_on_c, 0, 64, 78
2, 262080, Note_on_c, 0, 67, 78
2, 262080, Note_on_c, 0, 72, 78
2, 262440, Note_off_c, 0, 72, 0
2, 262440, Note_off_c, 0, 67, 0
2, 262440, Note_off_c, 0, 64, 0
2, 262440, Note_off_c, 0, 60, 0
2, 262440, Note_off_c, 0, 55, 0
2, 262440, Note_off_c, 0, 48, 0
2, 262440, Note_on_c, 0, 48, 78
2, 262440, Note_on_c, 0, 55, 78
2, 262440, Note_on_c, 0, 60, 78
2, 262440, Note_on_c, 0, 64, 78
2, 262440, Note_on_c, 0, 67, 78
2, 262440, Note_on_c, 0, 72, 78
2, 262800, Note_off_c, 0, 72, 0
2, 262800, Note_off_c, 0, 67, 0
2, 262800, Note_off_c, 0, 64, 0
2, 262800, Note_off_c, 0, 60, 0
2, 262800, Note_off_c, 0, 55, 0
2, 262800, Note_off_c, 0, 48, 0
2, 262800, Note_on_c, 0, 48, 78
2, 262800, Note_on_c, 0, 55, 78
2, 262800, Note_on_c, 0, 60, 78
2, 262800, Note_on_c, 0, 64, 78
2, 262800, Note_on_c, 0, 67, 78
2, 262800, Note_on_c, 0, 72, 78
2, 263160, Note_off_c, 0, 72, 0
2, 263160, Note_off_c, 0, 67, 0
2, 263160, Note_off_c, 0, 64, 0
2, 263160, Note_off_c, 0, 60, 0
2, 263160, Note_off_c, 0, 55, 0
2, 263160, Note_off_c, 0, 48, 0
2, 263160, Note_on_c, 0, 48, 78
2, 263160, Note_on_c, 0, 55, 78
2, 263160, Note_on_c, 0, 60, 78
2, 263160, Note_on_c, 0, 64, 78
2, 263160, Note_on_c, 0, 67, 78
2, 263160, Note_on_c, 0, 72, 78
2, 263520, Note_off_c, 0, 72, 0
2, 263520, Note_off_c, 0, 67, 0
2, 263520, Note_off_c, 0, 64, 0
2, 263520, Note_off_c, 0, 60, 0
2, 263520, Note_off_c, 0, 55, 0
2, 263520, Note_off_c, 0, 48, 0
2, 263520, Note_on_c, 0, 48, 78
2, 263520, Note_on_c, 0, 55, 78
2, 263520, Note_on_c, 0, 60, 78
2, 263520, Note_on_c, 0, 64, 78
2, 263520, Note_on_c, 0, 67, 78
2, 263520, Note_on_c, 0, 72, 78
2, 263880, Note_off_c, 0, 72, 0
2, 263880, Note_off_c, 0, 67, 0
2, 263880, Note_off_c, 0, 64, 0
2, 263880, Note_off_c, 0, 60, 0
2, 263880, Note_off_c, 0, 55, 0
2, 263880, Note_off_c, 0, 48, 0
2, 263880, Note_on_c, 0, 48, 78
2, 263880, Note_on_c, 0, 55, 78
2, 263880, Note_on_c, 0, 60, 78
2, 263880, Note_on_c, 0, 64, 78
2, 263880, Note_on_c, 0, 67, 78
2, 263880, Note_on_c, 0, 72, 78
2, 264240, Note_off_c, 0, 72, 0
2, 264240, Note_off_c, 0, 67, 0
2, 264240, Note_off_c, 0, 64, 0
2, 264240, Note_off_c, 0, 60, 0
2, 264240, Note_off_c, 0, 55, 0
2, 264240, Note_off_c, 0, 48, 0
2, 264240, Note_on_c, 0, 48, 78
2, 264240, Note_on_c, 0, 55, 78
2, 264240, Note_on_c, 0, 60, 78
2, 264240, Note_on_c, 0, 64, 78
2, 264240, Note_on_c, 0, 67, 78
2, 264240, Note_on_c, 0, 72, 78
2, 264600, Note_off_c, 0, 72, 0
2, 264600, Note_off_c, 0, 67, 0
2, 264600, Note_off_c, 0, 64, 0
2, 264600, Note_off_c, 0, 60, 0
2, 264600, Note_off_c, 0, 55, 0
2, 264600, Note_off_c, 0, 48, 0
2, 264600, Note_on_c, 0, 48, 78
2, 264600, Note_on_c, 0, 55, 78
2, 264600, Note_on_c, 0, 60, 78
2, 264600, Note_on_c, 0, 64, 78
2, 264600, Note_on_c, 0, 67, 78
2, 264600, Note_on_c, 0, 72, 78
2, 264960, Note_off_c, 0, 72, 0
2, 264960, Note_off_c, 0, 67, 0
2, 264960, Note_off_c, 0, 64, 0
2, 264960, Note_off_c, 0, 60, 0
2, 264960, Note_off_c, 0, 55, 0
2, 264960, Note_off_c, 0, 48, 0
2, 264960, Note_on_c, 0, 48, 78
2, 264960, Note_on_c, 0, 55, 78
2, 264960, Note_on_c, 0, 60, 78
2, 264960, Note_on_c, 0, 64, 78
2, 264960, Note_on_c, 0, 67, 78
2, 264960, Note_on_c, 0, 72, 78
2, 265320, Note_off_c, 0, 72, 0
2, 265320, Note_off_c, 0, 67, 0
2, 265320, Note_off_c, 0, 64, 0
2, 265320, Note_off_c, 0, 60, 0
2, 265320, Note_off_c, 0, 55, 0
2, 265320, Note_off_c, 0, 48, 0
2, 265320, Note_on_c, 0, 48, 78
2, 265320, Note_on_c, 0, 55, 78
2, 265320, Note_on_c, 0, 60, 78
2, 265320, Note_on_c, 0, 64, 78
2, 265320, Note_on_c, 0, 67, 78
2, 265320, Note_on_c, 0, 72, 78
2, 265680, Note_off_c, 0, 72, 0
2, 265680, Note_off_c, 0, 67, 0
2, 265680, Note_off_c, 0, 64, 0
2, 265680, Note_off_c, 0, 60, 0
2, 265680, Note_off_c, 0, 55, 0
2, 265680, Note_off_c, 0, 48, 0
2, 265680, Note_on_c, 0, 48, 78
2, 265680, Note_on_c, 0, 55, 78
2, 265680, Note_on_c, 0, 60, 78
2, 265680, Note_on_c, 0, 64, 78
2, 265680, Note_on_c, 0, 67, 78
2, 265680, Note_on_c, 0, 72, 78
2, 266040, Note_off_c, 0, 72, 0
2, 266040, Note_off_c, 0, 67, 0
2, 266040, Note_off_c, 0, 64, 0
2, 266040, Note_off_c, 0, 60, 0
2, 266040, Note_off_c, 0, 55, 0
2, 266040, Note_off_c, 0, 48, 0
2, 266040, Note_on_c, 0, 48, 78
2, 266040, Note_on_c, 0, 55, 78
2, 266040, Note_on_c, 0, 60, 78
2, 266040, Note_on_c, 0, 64, 78
2, 266040, Note_on_c, 0, 67, 78
2, 266040, Note_on_c, 0, 72, 78
2, 266400, Note_off_c, 0, 72, 0
2, 266400, Note_off_c, 0, 67, 0
2, 266400, Note_off_c, 0, 64, 0
2, 266400, Note_off_c, 0, 60, 0
2, 266400, Note_off_c, 0, 55, 0
2, 266400, Note_off_c, 0, 48, 0
2, 266400, Note_on_c, 0, 48, 78
2, 266400, Note_on_c, 0, 55, 78
2, 266400, Note_on_c, 0, 60, 78
2, 266400, Note_on_c, 0, 64, 78
2, 266400, Note_on_c, 0, 67, 78
2, 266400, Note_on_c, 0, 72, 78
2, 266760, Note_off_c, 0, 72, 0
2, 266760, Note_off_c, 0, 67, 0
2, 266760, Note_off_c, 0, 64, 0
2, 266760, Note_off_c, 0, 60, 0
2, 266760, Note_off_c, 0, 55, 0
2, 266760, Note_off_c, 0, 48, 0
2, 266760, Note_on_c, 0, 48, 78
2, 266760, Note_on_c, 0, 55, 78
2, 266760, Note_on_c, 0, 60, 78
2, 266760, Note_on_c, 0, 64, 78
2, 266760, Note_on_c, 0, 67, 78
2, 266760, Note_on_c, 0, 72, 78
2, 267120, Note_off_c, 0, 72, 0
2, 267120, Note_off_c, 0, 67, 0
2, 267120, Note_off_c, 0, 64, 0
2, 267120, Note_off_c, 0, 60, 0
2, 267120, Note_off_c, 0, 55, 0
2, 267120, Note_off_c, 0, 48, 0
2, 267120, Note_on_c, 0, 48, 78
2, 267120, Note_on_c, 0, 55, 78
2, 267120, Note_on_c, 0, 60, 78
2, 267120, Note_on_c, 0, 64, 78
2, 267120, Note_on_c, 0, 67, 78
2, 267120, Note_on_c, 0, 72, 78
2, 267480, Note_off_c, 0, 72, 0
2, 267480, Note_off_c, 0, 67, 0
2, 267480, Note_off_c, 0, 64, 0
2, 267480, Note_off_c, 0, 60, 0
2, 267480, Note_off_c, 0, 55, 0
2, 267480, Note_off_c, 0, 48, 0
2, 267480, Note_on_c, 0, 48, 78
2, 267480, Note_on_c, 0, 55, 78
2, 267480, Note_on_c, 0, 60, 78
2, 267480, Note_on_c, 0, 64, 78
2, 267480, Note_on_c, 0, 67, 78
2, 267480, Note_on_c, 0, 72, 78
2, 267840, Note_off_c, 0, 72, 0
2, 267840, Note_off_c, 0, 67, 0
2, 267840, Note_off_c, 0, 64, 0
2, 267840, Note_off_c, 0, 60, 0
2, 267840, Note_off_c, 0, 55, 0
2, 267840, Note_off_c, 0, 48, 0
2, 267840, Note_on_c, 0, 41, 78
2, 267840, Note_on_c, 0, 48, 78
2, 267840, Note_on_c, 0, 53, 78
2, 267840, Note_on_c, 0, 57, 78
2, 267840, Note_on_c, 0, 60, 78
2, 267840, Note_on_c, 0, 65, 78
2, 268200, Note_off_c, 0, 65, 0
2, 268200, Note_off_c, 0, 60, 0
2, 268200, Note_off_c, 0, 57, 0
2, 268200, Note_off_c, 0, 53, 0
2, 268200, Note_off_c, 0, 48, 0
2, 268200, Note_off_c, 0, 41, 0
2, 268200, Note_on_c, 0, 41, 78
2, 268200, Note_on_c, 0, 48, 78
2, 268200, Note_on_c, 0, 53, 78
2, 268200, Note_on_c, 0, 57, 78
2, 268200, Note_on_c, 0, 60, 78
2, 268200, Note_on_c, 0, 65, 78
2, 268560, Note_off_c, 0, 65, 0
2, 268560, Note_off_c, 0, 60, 0
2, 268560, Note_off_c, 0, 57, 0
2, 268560, Note_off_c, 0, 53, 0
2, 268560, Note_off_c, 0, 48, 0
2, 268560, Note_off_c, 0, 41, 0
2, 268560, Note_on_c, 0, 41, 78
2, 268560, Note_on_c, 0, 48, 78
2, 268560, Note_on_c, 0, 53, 78
2, 268560, Note_on_c, 0, 57, 78
2, 268560, Note_on_c, 0, 60, 78
2, 268560, Note_on_c, 0, 65, 78
2, 268920, Note_off_c, 0, 65, 0
2, 268920, Note_off_c, 0, 60, 0
2, 268920, Note_off_c, 0, 57, 0
2, 268920, Note_off_c, 0, 53, 0
2, 268920, Note_off_c, 0, 48, 0
2, 268920, Note_off_c, 0, 41, 0
2, 268920, Note_on_c, 0, 41, 78
2, 268920, Note_on_c, 0, 48, 78
2, 268920, Note_on_c, 0, 53, 78
2, 268920, Note_on_c, 0, 57, 78
2, 268920, Note_on_c, 0, 60, 78
2, 268920, Note_on_c, 0, 65, 78
2, 269280, Note_off_c, 0, 65, 0
2, 269280, Note_off_c, 0, 60, 0
2, 269280, Note_off_c, 0, 57, 0
2, 269280, Note_off_c, 0, 53, 0
2, 269280, Note_off_c, 0, 48, 0
2, 269280, Note_off_c, 0, 41, 0
2, 269280, Note_on_c, 0, 41, 78
2, 269280, Note_on_c, 0, 48, 78
2, 269280, Note_on_c, 0, 53, 78
2, 269280, Note_on_c, 0, 57, 78
2, 269280, Note_on_c, 0, 60, 78
2, 269280, Note_on_c, 0, 65, 78
2, 269640, Note_off_c, 0, 65, 0
2, 269640, Note_off_c, 0, 60, 0
2, 269640, Note_off_c, 0, 57, 0
2, 269640, Note_off_c, 0, 53, 0
2, 269640, Note_off_c, 0, 48, 0
2, 269640, Note_off_c, 0, 41, 0
2, 269640, Note_on_c, 0, 41, 78
2, 269640, Note_on_c, 0, 48, 78
2, 269640, Note_on_c, 0, 53, 78
2, 269640, Note_on_c, 0, 57, 78
2, 269640, Note_on_c, 0, 60, 78
2, 269640, Note_on_c, 0, 65, 78
2, 270000, Note_off_c, 0, 65, 0
2, 270000, Note_off_c, 0, 60, 0
2, 270000, Note_off_c, 0, 57, 0
2, 270000, Note_off_c, 0, 53, 0
2, 270000, Note_off_c, 0, 48, 0
2, 270000, Note_off_c, 0, 41, 0
2, 270000, Note_on_c, 0, 41, 78
2, 270000, Note_on_c, 0, 48, 78
2, 270000, Note_on_c, 0, 53, 78
2, 270000, Note_on_c, 0, 57, 78
2, 270000, Note_on_c, 0, 60, 78
2, 270000, Note_on_c, 0, 65, 78
2, 270360, Note_off_c, 0, 65, 0
2, 270360, Note_off_c, 0, 60, 0
2, 270360, Note_off_c, 0, 57, 0
2, 270360, Note_off_c, 0, 53, 0
2, 270360, Note_off_c, 0, 48, 0
2, 270360, Note_off_c, 0, 41, 0
2, 270360, Note_on_c, 0, 41, 78
2, 270360, Note_on_c, 0, 48, 78
2, 270360, Note_on_c, 0, 53, 78
2, 270360, Note_on_c, 0, 57, 78
2, 270360, Note_on_c, 0, 60, 78
2, 270360, Note_on_c, 0, 65, 78
2, 270720, Note_off_c, 0, 65, 0
2, 270720, Note_off_c, 0, 60, 0
2, 270720, Note_off_c, 0, 57, 0
2, 270720, Note_off_c, 0, 53, 0
2, 270720, Note_off_c, 0, 48, 0
2, 270720, Note_off_c, 0, 41, 0
2, 270720, Note_on_c, 0, 41, 78
2, 270720, Note_on_c, 0, 48, 78
2, 270720, Note_on_c, 0, 53, 78
2, 270720, Note_on_c, 0, 57, 78
2, 270720, Note_on_c, 0, 60, 78
2, 270720, Note_on_c, 0, 65, 78
2, 271080, Note_off_c, 0, 65, 0
2, 271080, Note_off_c, 0, 60, 0
2, 271080, Note_off_c, 0, 57, 0
2, 271080, Note_off_c, 0, 53, 0
2, 271080, Note_off_c, 0, 48, 0
2, 271080, Note_off_c, 0, 41, 0
2, 271080, Note_on_c, 0, 41, 78
2, 271080, Note_on_c, 0, 48, 78
2, 271080, Note_on_c, 0, 53, 78
2, 271080, Note_on_c, 0, 57, 78
2, 271080, Note_on_c, 0, 60, 78
2, 271080, Note_on_c, 0, 65, 78
2, 271440, Note_off_c, 0, 65, 0
2, 271440, Note_off_c, 0, 60, 0
2, 271440, Note_off_c, 0, 57, 0
2, 271440, Note_off_c, 0, 53, 0
2, 271440, Note_off_c, 0, 48, 0
2, 271440, Note_off_c, 0, 41, 0
2, 271440, Note_on_c, 0, 41, 78
2, 271440, Note_on_c, 0, 48, 78
2, 271440, Note_on_c, 0, 53, 78
2, 271440, Note_on_c, 0, 57, 78
2, 271440, Note_on_c, 0, 60, 78
2, 271440, Note_on_c, 0, 65, 78
2, 271800, Note_off_c, 0, 65, 0
2, 271800, Note_off_c, 0, 60, 0
2, 271800, Note_off_c, 0, 57, 0
2, 271800, Note_off_c, 0, 53, 0
2, 271800, Note_off_c, 0, 48, 0
2, 271800, Note_off_c, 0, 41, 0
2, 271800, Note_on_c, 0, 41, 78
2, 271800, Note_on_c, 0, 48, 78
2, 271800, Note_on_c, 0, 53, 78
2, 271800, Note_on_c, 0, 57, 78
2, 271800, Note_on_c, 0, 60, 78
2, 271800, Note_on_c, 0, 65, 78
2, 272160, Note_off_c, 0, 65, 0
2, 272160, Note_off_c, 0, 60, 0
2, 272160, Note_off_c, 0, 57, 0
2, 272160, Note_off_c, 0, 53, 0
2, 272160, Note_off_c, 0, 48, 0
2, 272160, Note_off_c, 0, 41, 0
2, 272160, Note_on_c, 0, 41, 78
2, 272160, Note_on_c, 0, 48, 78
2, 272160, Note_on_c, 0, 53, 78
2, 272160, Note_on_c, 0, 57, 78
2, 272160, Note_on_c, 0, 60, 78
2, 272160, Note_on_c, 0, 65, 78
2, 272520, Note_off_c, 0, 65, 0
2, 272520, Note_off_c, 0, 60, 0
2, 272520, Note_off_c, 0, 57, 0
2, 272520, Note_off_c, 0, 53, 0
2, 272520, Note_off_c, 0, 48, 0
2, 272520, Note_off_c, 0, 41, 0
2, 272520, Note_on_c, 0, 41, 78
2, 272520, Note_on_c, 0, 48, 78
2, 272520, Note_on_c, 0, 53, 78
2, 272520, Note_on_c, 0, 57, 78
2, 272520, Note_on_c, 0, 60, 78
2, 272520, Note_on_c, 0, 65, 78
2, 272880, Note_off_c, 0, 65, 0
2, 272880, Note_off_c, 0, 60, 0
2, 272880, Note_off_c, 0, 57, 0
2, 272880, Note_off_c, 0, 53, 0
2, 272880, Note_off_c, 0, 48, 0
2, 272880, Note_off_c, 0, 41, 0
2, 272880, Note_on_c, 0, 41, 78
2, 272880, Note_on_c, 0, 48, 78
2, 272880, Note_on_c, 0, 53, 78
2, 272880, Note_on_c, 0, 57, 78
2, 272880, Note_on_c, 0, 60, 78
2, 272880, Note_on_c, 0, 65, 78
2, 273240, Note_off_c, 0, 65, 0
2, 273240, Note_off_c, 0, 60, 0
2, 273240, Note_off_c, 0, 57, 0
2, 273240, Note_off_c, 0, 53, 0
2, 273240, Note_off_c, 0, 48, 0
2, 273240, Note_off_c, 0, 41, 0
2, 273240, Note_on_c, 0, 41, 78
2, 273240, Note_on_c, 0, 48, 78
2, 273240, Note_on_c, 0, 53, 78
2, 273240, Note_on_c, 0, 57, 78
2, 273240, Note_on_c, 0, 60, 78
2, 273240, Note_on_c, 0, 65, 78
2, 273600, Note_off_c, 0, 65, 0
2, 273600, Note_off_c, 0, 60, 0
2, 273600, Note_off_c, 0, 57, 0
2, 273600, Note_off_c, 0, 53, 0
2, 273600, Note_off_c, 0, 48, 0
2, 273600, Note_off_c, 0, 41, 0
2, 273600, Note_on_c, 0, 43, 78
2, 273600, Note_on_c, 0, 50, 78
2, 273600, Note_on_c, 0, 55, 78
2, 273600, Note_on_c, 0, 59, 78
2, 273600, Note_on_c, 0, 62, 78
2, 273600, Note_on_c, 0, 67, 78
2, 273960, Note_off_c, 0, 67, 0
2, 273960, Note_off_c, 0, 62, 0
2, 273960, Note_off_c, 0, 59, 0
2, 273960, Note_off_c, 0, 55, 0
2, 273960, Note_off_c, 0, 50, 0
2, 273960, Note_off_c, 0, 43, 0
2, 273960, Note_on_c, 0, 43, 78
2, 273960, Note_on_c, 0, 50, 78
2, 273960, Note_on_c, 0, 55, 78
2, 273960, Note_on_c, 0, 59, 78
2, 273960, Note_on_c, 0, 62, 78
2, 273960, Note_on_c, 0, 67, 78
2, 274320, Note_off_c, 0, 67, 0
2, 274320, Note_off_c, 0, 62, 0
2, 274320, Note_off_c, 0, 59, 0
2, 274320, Note_off_c, 0, 55, 0
2, 274320, Note_off_c, 0, 50, 0
2, 274320, Note_off_c, 0, 43, 0
2, 274320, Note_on_c, 0, 43, 78
2, 274320, Note_on_c, 0, 50, 78
2, 274320, Note_on_c, 0, 55, 78
2, 274320, Note_on_c, 0, 59, 78
2, 274320, Note_on_c, 0, 62, 78
2, 274320, Note_on_c, 0, 67, 78
2, 274680, Note_off_c, 0, 67, 0
2, 274680, Note_off_c, 0, 62, 0
2, 274680, Note_off_c, 0, 59, 0
2, 274680, Note_off_c, 0, 55, 0
2, 274680, Note_off_c, 0, 50, 0
2, 274680, Note_off_c, 0, 43, 0
2, 274680, Note_on_c, 0, 43, 78
2, 274680, Note_on_c, 0, 50, 78
2, 274680, Note_on_c, 0, 55, 78
2, 274680, Note_on_c, 0, 59, 78
2, 274680, Note_on_c, 0, 62, 78
2, 274680, Note_on_c, 0, 67, 78
2, 275040, Note_off_c, 0, 67, 0
2, 275040, Note_off_c, 0, 62, 0
2, 275040, Note_off_c, 0, 59, 0
2, 275040, Note_off_c, 0, 55, 0
2, 275040, Note_off_c, 0, 50, 0
2, 275040, Note_off_c, 0, 43, 0
2, 275040, Note_on_c, 0, 43, 78
2, 275040, Note_on_c, 0, 50, 78
2, 275040, Note_on_c, 0, 55, 78
2, 275040, Note_on_c, 0, 59, 78
2, 275040, Note_on_c, 0, 62, 78
2, 275040, Note_on_c, 0, 67, 78
2, 275400, Note_off_c, 0, 67, 0
2, 275400, Note_off_c, 0, 62, 0
2, 275400, Note_off_c, 0, 59, 0
2, 275400, Note_off_c, 0, 55, 0
2, 275400, Note_off_c, 0, 50, 0
2, 275400, Note_off_c, 0, 43, 0
2, 275400, Note_on_c, 0, 43, 78
2, 275400, Note_on_c, 0, 50, 78
2, 275400, Note_on_c, 0, 55, 78
2, 275400, Note_on_c, 0, 59, 78
2, 275400, Note_on_c, 0, 62, 78
2, 275400, Note_on_c, 0, 67, 78
2, 275760, Note_off_c, 0, 67, 0
2, 275760, Note_off_c, 0, 62, 0
2, 275760, Note_off_c, 0, 59, 0
2, 275760, Note_off_c, 0, 55, 0
2, 275760, Note_off_c, 0, 50, 0
2, 275760, Note_off_c, 0, 43, 0
2, 275760, Note_on_c, 0, 43, 78
2, 275760, Note_on_c, 0, 50, 78
2, 275760, Note_on_c, 0, 55, 78
2, 275760, Note_on_c, 0, 59, 78
2, 275760, Note_on_c, 0, 62, 78
2, 275760, Note_on_c, 0, 67, 78
2, 276120, Note_off_c, 0, 67, 0
2, 276120, Note_off_c, 0, 62, 0
2, 276120, Note_off_c, 0, 59, 0
2, 276120, Note_off_c, 0, 55, 0
2, 276120, Note_off_c, 0, 50, 0
2, 276120, Note_off_c, 0, 43, 0
2, 276120, Note_on_c, 0, 43, 78
2, 276120, Note_on_c, 0, 50, 78
2, 276120, Note_on_c, 0, 55, 78
2, 276120, Note_on_c, 0, 59, 78
2, 276120, Note_on_c, 0, 62, 78
2, 276120, Note_on_c, 0, 67, 78
2, 276480, Note_off_c, 0, 67, 0
2, 276480, Note_off_c, 0, 62, 0
2, 276480, Note_off_c, 0, 59, 0
2, 276480, Note_off_c, 0, 55, 0
2, 276480, Note_off_c, 0, 50, 0
2, 276480, Note_off_c, 0, 43, 0
2, 276480, Note_on_c, 0, 43, 78
2, 276480, Note_on_c, 0, 50, 78
2, 276480, Note_on_c, 0, 55, 78
2, 276480, Note_on_c, 0, 59, 78
2, 276480, Note_on_c, 0, 62, 78
2, 276480, Note_on_c, 0, 67, 78
2, 276840, Note_off_c, 0, 67, 0
2, 276840, Note_off_c, 0, 62, 0
2, 276840, Note_off_c, 0, 59, 0
2, 276840, Note_off_c, 0, 55, 0
2, 276840, Note_off_c, 0, 50, 0
2, 276840, Note_off_c, 0, 43, 0
2, 276840, Note_on_c, 0, 43, 78
2, 276840, Note_on_c, 0, 50, 78
2, 276840, Note_on_c, 0, 55, 78
2, 276840, Note_on_c, 0, 59, 78
2, 276840, Note_on_c, 0, 62, 78
2, 276840, Note_on_c, 0, 67, 78
2, 277200, Note_off_c, 0, 67, 0
2, 277200, Note_off_c, 0, 62, 0
2, 277200, Note_off_c, 0, 59, 0
2, 277200, Note_off_c, 0, 55, 0
2, 277200, Note_off_c, 0, 50, 0
2, 277200, Note_off_c, 0, 43, 0
2, 277200, Note_on_c, 0, 43, 78
2, 277200, Note_on_c, 0, 50, 78
2, 277200, Note_on_c, 0, 55, 78
2, 277200, Note_on_c, 0, 59, 78
2, 277200, Note_on_c, 0, 62, 78
2, 277200, Note_on_c, 0, 67, 78
2, 277560, Note_off_c, 0, 67, 0
2, 277560, Note_off_c, 0, 62, 0
2, 277560, Note_off_c, 0, 59, 0
2, 277560, Note_off_c, 0, 55, 0
2, 277560, Note_off_c, 0, 50, 0
2, 277560, Note_off_c, 0, 43, 0
2, 277560, Note_on_c, 0, 43, 78
2, 277560, Note_on_c, 0, 50, 78
2, 277560, Note_on_c, 0, 55, 78
2, 277560, Note_on_c, 0, 59, 78
2, 277560, Note_on_c, 0, 62, 78
2, 277560, Note_on_c, 0, 67, 78
2, 277920, Note_off_c, 0, 67, 0
2, 277920, Note_off_c, 0, 62, 0
2, 277920, Note_off_c, 0, 59, 0
2, 277920, Note_off_c, 0, 55, 0
2, 277920, Note_off_c, 0, 50, 0
2, 277920, Note_off_c, 0, 43, 0
2, 277920, Note_on_c, 0, 46, 78
2, 277920, Note_on_c, 0, 53, 78
2, 277920, Note_on_c, 0, 58, 78
2, 277920, Note_on_c, 0, 62, 78
2, 277920, Note_on_c, 0, 65, 78
2, 277920, Note_on_c, 0, 70, 78
2, 278280, Note_off_c, 0, 70, 0
2, 278280, Note_off_c, 0, 65, 0
2, 278280, Note_off_c, 0, 62, 0
2, 278280, Note_off_c, 0, 58, 0
2, 278280, Note_off_c, 0, 53, 0
2, 278280, Note_off_c, 0, 46, 0
2, 278280, Note_on_c, 0, 46, 78
2, 278280, Note_on_c, 0, 53, 78
2, 278280, Note_on_c, 0, 58, 78
2, 278280, Note_on_c, 0, 62, 78
2, 278280, Note_on_c, 0, 65, 78
2, 278280, Note_on_c, 0, 70, 78
2, 278640, Note_off_c, 0, 70, 0
2, 278640, Note_off_c, 0, 65, 0
2, 278640, Note_off_c, 0, 62, 0
2, 278640, Note_off_c, 0, 58, 0
2, 278640, Note_off_c, 0, 53, 0
2, 278640, Note_off_c, 0, 46, 0
2, 278640, Note_on_c, 0, 46, 78
2, 278640, Note_on_c, 0, 53, 78
2, 278640, Note_on_c, 0, 58, 78
2, 278640, Note_on_c, 0, 62, 78
2, 278640, Note_on_c, 0, 65, 78
2, 278640, Note_on_c, 0, 70, 78
2, 279000, Note_off_c, 0, 70, 0
2, 279000, Note_off_c, 0, 65, 0
2, 279000, Note_off_c, 0, 62, 0
2, 279000, Note_off_c, 0, 58, 0
2, 279000, Note_off_c, 0, 53, 0
2, 279000, Note_off_c, 0, 46, 0
2, 279000, Note_on_c, 0, 46, 78
2, 279000, Note_on_c, 0, 53, 78
2, 279000, Note_on_c, 0, 58, 78
2, 279000, Note_on_c, 0, 62, 78
2, 279000, Note_on_c, 0, 65, 78
2, 279000, Note_on_c, 0, 70, 78
2, 279360, Note_off_c, 0, 70, 0
2, 279360, Note_off_c, 0, 65, 0
2, 279360, Note_off_c, 0, 62, 0
2, 279360, Note_off_c, 0, 58, 0
2, 279360, Note_off_c, 0, 53, 0
2, 279360, Note_off_c, 0, 46, 0
2, 279360, Note_on_c, 0, 45, 78
2, 279360, Note_on_c, 0, 52, 78
2, 279360, Note_on_c, 0, 57, 78
2, 279360, Note_on_c, 0, 61, 78
2, 279360, Note_on_c, 0, 64, 78
2, 279360, Note_on_c, 0, 69, 78
2, 279720, Note_off_c, 0, 69, 0
2, 279720, Note_off_c, 0, 64, 0
2, 279720, Note_off_c, 0, 61, 0
2, 279720, Note_off_c, 0, 57, 0
2, 279720, Note_off_c, 0, 52, 0
2, 279720, Note_off_c, 0, 45, 0
2, 279720, Note_on_c, 0, 45, 78
2, 279720, Note_on_c, 0, 52, 78
2, 279720, Note_on_c, 0, 57, 78
2, 279720, Note_on_c, 0, 61, 78
2, 279720, Note_on_c, 0, 64, 78
2, 279720, Note_on_c, 0, 69, 78
2, 280080, Note_off_c, 0, 69, 0
2, 280080, Note_off_c, 0, 64, 0
2, 280080, Note_off_c, 0, 61, 0
2, 280080, Note_off_c, 0, 57, 0
2, 280080, Note_off_c, 0, 52, 0
2, 280080, Note_off_c, 0, 45, 0
2, 280080, Note_on_c, 0, 45, 78
2, 280080, Note_on_c, 0, 52, 78
2, 280080, Note_on_c, 0, 57, 78
2, 280080, Note_on_c, 0, 61, 78
2, 280080, Note_on_c, 0, 64, 78
2, 280080, Note_on_c, 0, 69, 78
2, 280440, Note_off_c, 0, 69, 0
2, 280440, Note_off_c, 0, 64, 0
2, 280440, Note_off_c, 0, 61, 0
2, 280440, Note_off_c, 0, 57, 0
2, 280440, Note_off_c, 0, 52, 0
2, 280440, Note_off_c, 0, 45, 0
2, 280440, Note_on_c, 0, 45, 78
2, 280440, Note_on_c, 0, 52, 78
2, 280440, Note_on_c, 0, 57, 78
2, 280440, Note_on_c, 0, 61, 78
2, 280440, Note_on_c, 0, 64, 78
2, 280440, Note_on_c, 0, 69, 78
2, 280800, Note_off_c, 0, 69, 0
2, 280800, Note_off_c, 0, 64, 0
2, 280800, Note_off_c, 0, 61, 0
2, 280800, Note_off_c, 0, 57, 0
2, 280800, Note_off_c, 0, 52, 0
2, 280800, Note_off_c, 0, 45, 0
2, 280800, Note_on_c, 0, 45, 78
2, 280800, Note_on_c, 0, 52, 78
2, 280800, Note_on_c, 0, 57, 78
2, 280800, Note_on_c, 0, 61, 78
2, 280800, Note_on_c, 0, 64, 78
2, 280800, Note_on_c, 0, 69, 78
2, 281160, Note_off_c, 0, 69, 0
2, 281160, Note_off_c, 0, 64, 0
2, 281160, Note_off_c, 0, 61, 0
2, 281160, Note_off_c, 0, 57, 0
2, 281160, Note_off_c, 0, 52, 0
2, 281160, Note_off_c, 0, 45, 0
2, 281160, Note_on_c, 0, 45, 78
2, 281160, Note_on_c, 0, 52, 78
2, 281160, Note_on_c, 0, 57, 78
2, 281160, Note_on_c, 0, 61, 78
2, 281160, Note_on_c, 0, 64, 78
2, 281160, Note_on_c, 0, 69, 78
2, 281520, Note_off_c, 0, 69, 0
2, 281520, Note_off_c, 0, 64, 0
2, 281520, Note_off_c, 0, 61, 0
2, 281520, Note_off_c, 0, 57, 0
2, 281520, Note_off_c, 0, 52, 0
2, 281520, Note_off_c, 0, 45, 0
2, 281520, Note_on_c, 0, 45, 78
2, 281520, Note_on_c, 0, 52, 78
2, 281520, Note_on_c, 0, 57, 78
2, 281520, Note_on_c, 0, 61, 78
2, 281520, Note_on_c, 0, 64, 78
2, 281520, Note_on_c, 0, 69, 78
2, 281880, Note_off_c, 0, 69, 0
2, 281880, Note_off_c, 0, 64, 0
2, 281880, Note_off_c, 0, 61, 0
2, 281880, Note_off_c, 0, 57, 0
2, 281880, Note_off_c, 0, 52, 0
2, 281880, Note_off_c, 0, 45, 0
2, 281880, Note_on_c, 0, 45, 78
2, 281880, Note_on_c, 0, 52, 78
2, 281880, Note_on_c, 0, 57, 78
2, 281880, Note_on_c, 0, 61, 78
2, 281880, Note_on_c, 0, 64, 78
2, 281880, Note_on_c, 0, 69, 78
2, 282240, Note_off_c, 0, 69, 0
2, 282240, Note_off_c, 0, 64, 0
2, 282240, Note_off_c, 0, 61, 0
2, 282240, Note_off_c, 0, 57, 0
2, 282240, Note_off_c, 0, 52, 0
2, 282240, Note_off_c, 0, 45, 0
2, 282240, Note_on_c, 0, 45, 78
2, 282240, Note_on_c, 0, 52, 78
2, 282240, Note_on_c, 0, 57, 78
2, 282240, Note_on_c, 0, 61, 78
2, 282240, Note_on_c, 0, 64, 78
2, 282240, Note_on_c, 0, 69, 78
2, 282600, Note_off_c, 0, 69, 0
2, 282600, Note_off_c, 0, 64, 0
2, 282600, Note_off_c, 0, 61, 0
2, 282600, Note_off_c, 0, 57, 0
2, 282600, Note_off_c, 0, 52, 0
2, 282600, Note_off_c, 0, 45, 0
2, 282600, Note_on_c, 0, 45, 78
2, 282600, Note_on_c, 0, 52, 78
2, 282600, Note_on_c, 0, 57, 78
2, 282600, Note_on_c, 0, 61, 78
2, 282600, Note_on_c, 0, 64, 78
2, 282600, Note_on_c, 0, 69, 78
2, 282960, Note_off_c, 0, 69, 0
2, 282960, Note_off_c, 0, 64, 0
2, 282960, Note_off_c, 0, 61, 0
2, 282960, Note_off_c, 0, 57, 0
2, 282960, Note_off_c, 0, 52, 0
2, 282960, Note_off_c, 0, 45, 0
2, 282960, Note_on_c, 0, 45, 78
2, 282960, Note_on_c, 0, 52, 78
2, 282960, Note_on_c, 0, 57, 78
2, 282960, Note_on_c, 0, 61, 78
2, 282960, Note_on_c, 0, 64, 78
2, 282960, Note_on_c, 0, 69, 78
2, 283320, Note_off_c, 0, 69, 0
2, 283320, Note_off_c, 0, 64, 0
2, 283320, Note_off_c, 0, 61, 0
2, 283320, Note_off_c, 0, 57, 0
2, 283320, Note_off_c, 0, 52, 0
2, 283320, Note_off_c, 0, 45, 0
2, 283320, Note_on_c, 0, 45, 78
2, 283320, Note_on_c, 0, 52, 78
2, 283320, Note_on_c, 0, 57, 78
2, 283320, Note_on_c, 0, 61, 78
2, 283320, Note_on_c, 0, 64, 78
2, 283320, Note_on_c, 0, 69, 78
2, 283680, Note_off_c, 0, 69, 0
2, 283680, Note_off_c, 0, 64, 0
2, 283680, Note_off_c, 0, 61, 0
2, 283680, Note_off_c, 0, 57, 0
2, 283680, Note_off_c, 0, 52, 0
2, 283680, Note_off_c, 0, 45, 0
2, 283680, Note_on_c, 0, 45, 78
2, 283680, Note_on_c, 0, 52, 78
2, 283680, Note_on_c, 0, 57, 78
2, 283680, Note_on_c, 0, 61, 78
2, 283680, Note_on_c, 0, 64, 78
2, 283680, Note_on_c, 0, 69, 78
2, 284040, Note_off_c, 0, 69, 0
2, 284040, Note_off_c, 0, 64, 0
2, 284040, Note_off_c, 0, 61, 0
2, 284040, Note_off_c, 0, 57, 0
2, 284040, Note_off_c, 0, 52, 0
2, 284040, Note_off_c, 0, 45, 0
2, 284040, Note_on_c, 0, 45, 78
2, 284040, Note_on_c, 0, 52, 78
2, 284040, Note_on_c, 0, 57, 78
2, 284040, Note_on_c, 0, 61, 78
2, 284040, Note_on_c, 0, 64, 78
2, 284040, Note_on_c, 0, 69, 78
2, 284400, Note_off_c, 0, 69, 0
2, 284400, Note_off_c, 0, 64, 0
2, 284400, Note_off_c, 0, 61, 0
2, 284400, Note_off_c, 0, 57, 0
2, 284400, Note_off_c, 0, 52, 0
2, 284400, Note_off_c, 0, 45, 0
2, 284400, Note_on_c, 0, 45, 78
2, 284400, Note_on_c, 0, 52, 78
2, 284400, Note_on_c, 0, 57, 78
2, 284400, Note_on_c, 0, 61, 78
2, 284400, Note_on_c, 0, 64, 78
2, 284400, Note_on_c, 0, 69, 78
2, 284760, Note_off_c, 0, 69, 0
2, 284760, Note_off_c, 0, 64, 0
2, 284760, Note_off_c, 0, 61, 0
2, 284760, Note_off_c, 0, 57, 0
2, 284760, Note_off_c, 0, 52, 0
2, 284760, Note_off_c, 0, 45, 0
2, 284760, Note_on_c, 0, 45, 78
2, 284760, Note_on_c, 0, 52, 78
2, 284760, Note_on_c, 0, 57, 78
2, 284760, Note_on_c, 0, 61, 78
2, 284760, Note_on_c, 0, 64, 78
2, 284760, Note_on_c, 0, 69, 78
2, 285120, Note_off_c, 0, 69, 0
2, 285120, Note_off_c, 0, 64, 0
2, 285120, Note_off_c, 0, 61, 0
2, 285120, Note_off_c, 0, 57, 0
2, 285120, Note_off_c, 0, 52, 0
2, 285120, Note_off_c, 0, 45, 0
2, 285120, Note_on_c, 0, 48, 78
2, 285120, Note_on_c, 0, 55, 78
2, 285120, Note_on_c, 0, 60, 78
2, 285120, Note_on_c, 0, 64, 78
2, 285120, Note_on_c, 0, 67, 78
2, 285120, Note_on_c, 0, 72, 78
2, 285480, Note_off_c, 0, 72, 0
2, 285480, Note_off_c, 0, 67, 0
2, 285480, Note_off_c, 0, 64, 0
2, 285480, Note_off_c, 0, 60, 0
2, 285480, Note_off_c, 0, 55, 0
2, 285480, Note_off_c, 0, 48, 0
2, 285480, Note_on_c, 0, 48, 78
2, 285480, Note_on_c, 0, 55, 78
2, 285480, Note_on_c, 0, 60, 78
2, 285480, Note_on_c, 0, 64, 78
2, 285480, Note_on_c, 0, 67, 78
2, 285480, Note_on_c, 0, 72, 78
2, 285840, Note_off_c, 0, 72, 0
2, 285840, Note_off_c, 0, 67, 0
2, 285840, Note_off_c, 0, 64, 0
2, 285840, Note_off_c, 0, 60, 0
2, 285840, Note_off_c, 0, 55, 0
2, 285840, Note_off_c, 0, 48, 0
2, 285840, Note_on_c, 0, 48, 78
2, 285840, Note_on_c, 0, 55, 78
2, 285840, Note_on_c, 0, 60, 78
2, 285840, Note_on_c, 0, 64, 78
2, 285840, Note_on_c, 0, 67, 78
2, 285840, Note_on_c, 0, 72, 78
2, 286200, Note_off_c, 0, 72, 0
2, 286200, Note_off_c, 0, 67, 0
2, 286200, Note_off_c, 0, 64, 0
2, 286200, Note_off_c, 0, 60, 0
2, 286200, Note_off_c, 0, 55, 0
2, 286200, Note_off_c, 0, 48, 0
2, 286200, Note_on_c, 0, 48, 78
2, 286200, Note_on_c, 0, 55, 78
2, 286200, Note_on_c, 0, 60, 78
2, 286200, Note_on_c, 0, 64, 78
2, 286200, Note_on_c, 0, 67, 78
2, 286200, Note_on_c, 0, 72, 78
2, 286560, Note_off_c, 0, 72, 0
2, 286560, Note_off_c, 0, 67, 0
2, 286560, Note_off_c, 0, 64, 0
2, 286560, Note_off_c, 0, 60, 0
2, 286560, Note_off_c, 0, 55, 0
2, 286560, Note_off_c, 0, 48, 0
2, 286560, Note_on_c, 0, 48, 78
2, 286560, Note_on_c, 0, 55, 78
2, 286560, Note_on_c, 0, 60, 78
2, 286560, Note_on_c, 0, 64, 78
2, 286560, Note_on_c, 0, 67, 78
2, 286560, Note_on_c, 0, 72, 78
2, 286920, Note_off_c, 0, 72, 0
2, 286920, Note_off_c, 0, 67, 0
2, 286920, Note_off_c, 0, 64, 0
2, 286920, Note_off_c, 0, 60, 0
2, 286920, Note_off_c, 0, 55, 0
2, 286920, Note_off_c, 0, 48, 0
2, 286920, Note_on_c, 0, 48, 78
2, 286920, Note_on_c, 0, 55, 78
2, 286920, Note_on_c, 0, 60, 78
2, 286920, Note_on_c, 0, 64, 78
2, 286920, Note_on_c, 0, 67, 78
2, 286920, Note_on_c, 0, 72, 78
2, 287280, Note_off_c, 0, 72, 0
2, 287280, Note_off_c, 0, 67, 0
2, 287280, Note_off_c, 0, 64, 0
2, 287280, Note_off_c, 0, 60, 0
2, 287280, Note_off_c, 0, 55, 0
2, 287280, Note_off_c, 0, 48, 0
2, 287280, Note_on_c, 0, 48, 78
2, 287280, Note_on_c, 0, 55, 78
2, 287280, Note_on_c, 0, 60, 78
2, 287280, Note_on_c, 0, 64, 78
2, 287280, Note_on_c, 0, 67, 78
2, 287280, Note_on_c, 0, 72, 78
2, 287640, Note_off_c, 0, 72, 0
2, 287640, Note_off_c, 0, 67, 0
2, 287640, Note_off_c, 0, 64, 0
2, 287640, Note_off_c, 0, 60, 0
2, 287640, Note_off_c, 0, 55, 0
2, 287640, Note_off_c, 0, 48, 0
2, 287640, Note_on_c, 0, 48, 78
2, 287640, Note_on_c, 0, 55, 78
2, 287640, Note_on_c, 0, 60, 78
2, 287640, Note_on_c, 0, 64, 78
2, 287640, Note_on_c, 0, 67, 78
2, 287640, Note_on_c, 0, 72, 78
2, 288000, Note_off_c, 0, 72, 0
2, 288000, Note_off_c, 0, 67, 0
2, 288000, Note_off_c, 0, 64, 0
2, 288000, Note_off_c, 0, 60, 0
2, 288000, Note_off_c, 0, 55, 0
2, 288000, Note_off_c, 0, 48, 0
2, 288000, Note_on_c, 0, 48, 78
2, 288000, Note_on_c, 0, 55, 78
2, 288000, Note_on_c, 0, 60, 78
2, 288000, Note_on_c, 0, 64, 78
2, 288000, Note_on_c, 0, 67, 78
2, 288000, Note_on_c, 0, 72, 78
2, 288360, Note_off_c, 0, 72, 0
2, 288360, Note_off_c, 0, 67, 0
2, 288360, Note_off_c, 0, 64, 0
2, 288360, Note_off_c, 0, 60, 0
2, 288360, Note_off_c, 0, 55, 0
2, 288360, Note_off_c, 0, 48, 0
2, 288360, Note_on_c, 0, 48, 78
2, 288360, Note_on_c, 0, 55, 78
2, 288360, Note_on_c, 0, 60, 78
2, 288360, Note_on_c, 0, 64, 78
2, 288360, Note_on_c, 0, 67, 78
2, 288360, Note_on_c, 0, 72, 78
2, 288720, Note_off_c, 0, 72, 0
2, 288720, Note_off_c, 0, 67, 0
2, 288720, Note_off_c, 0, 64, 0
2, 288720, Note_off_c, 0, 60, 0
2, 288720, Note_off_c, 0, 55, 0
2, 288720, Note_off_c, 0, 48, 0
2, 288720, Note_on_c, 0, 48, 78
2, 288720, Note_on_c, 0, 55, 78
2, 288720, Note_on_c, 0, 60, 78
2, 288720, Note_on_c, 0, 64, 78
2, 288720, Note_on_c, 0, 67, 78
2, 288720, Note_on_c, 0, 72, 78
2, 289080, Note_off_c, 0, 72, 0
2, 289080, Note_off_c, 0, 67, 0
2, 289080, Note_off_c, 0, 64, 0
2, 289080, Note_off_c, 0, 60, 0
2, 289080, Note_off_c, 0, 55, 0
2, 289080, Note_off_c, 0, 48, 0
2, 289080, Note_on_c, 0, 48, 78
2, 289080, Note_on_c, 0, 55, 78
2, 289080, Note_on_c, 0, 60, 78
2, 289080, Note_on_c, 0, 64, 78
2, 289080, Note_on_c, 0, 67, 78
2, 289080, Note_on_c, 0, 72, 78
2, 289440, Note_off_c, 0, 72, 0
2, 289440, Note_off_c, 0, 67, 0
2, 289440, Note_off_c, 0, 64, 0
2, 289440, Note_off_c, 0, 60, 0
2, 289440, Note_off_c, 0, 55, 0
2, 289440, Note_off_c, 0, 48, 0
2, 289440, Note_on_c, 0, 48, 78
2, 289440, Note_on_c, 0, 55, 78
2, 289440, Note_on_c, 0, 60, 78
2, 289440, Note_on_c, 0, 64, 78
2, 289440, Note_on_c, 0, 67, 78
2, 289440, Note_on_c, 0, 72, 78
2, 289800, Note_off_c, 0, 72, 0
2, 289800, Note_off_c, 0, 67, 0
2, 289800, Note_off_c, 0, 64, 0
2, 289800, Note_off_c, 0, 60, 0
2, 289800, Note_off_c, 0, 55, 0
2, 289800, Note_off_c, 0, 48, 0
2, 289800, Note_on_c, 0, 48, 78
2, 289800, Note_on_c, 0, 55, 78
2, 289800, Note_on_c, 0, 60, 78
2, 289800, Note_on_c, 0, 64, 78
2, 289800, Note_on_c, 0, 67, 78
2, 289800, Note_on_c, 0, 72, 78
2, 290160, Note_off_c, 0, 72, 0
2, 290160, Note_off_c, 0, 67, 0
2, 290160, Note_off_c, 0, 64, 0
2, 290160, Note_off_c, 0, 60, 0
2, 290160, Note_off_c, 0, 55, 0
2, 290160, Note_off_c, 0, 48, 0
2, 290160, Note_on_c, 0, 48, 78
2, 290160, Note_on_c, 0, 55, 78
2, 290160, Note_on_c, 0, 60, 78
2, 290160, Note_on_c, 0, 64, 78
2, 290160, Note_on_c, 0, 67, 78
2, 290160, Note_on_c, 0, 72, 78
2, 290520, Note_off_c, 0, 72, 0
2, 290520, Note_off_c, 0, 67, 0
2, 290520, Note_off_c, 0, 64, 0
2, 290520, Note_off_c, 0, 60, 0
2, 290520, Note_off_c, 0, 55, 0
2, 290520, Note_off_c, 0, 48, 0
2, 290520, Note_on_c, 0, 48, 78
2, 290520, Note_on_c, 0, 55, 78
2, 290520, Note_on_c, 0, 60, 78
2, 290520, Note_on_c, 0, 64, 78
2, 290520, Note_on_c, 0, 67, 78
2, 290520, Note_on_c, 0, 72, 78
2, 290880, Note_off_c, 0, 72, 0
2, 290880, Note_off_c, 0, 67, 0
2, 290880, Note_off_c, 0, 64, 0
2, 290880, Note_off_c, 0, 60, 0
2, 290880, Note_off_c, 0, 55, 0
2, 290880, Note_off_c, 0, 48, 0
2, 290880, Note_on_c, 0, 41, 78
2, 290880, Note_on_c, 0, 48, 78
2, 290880, Note_on_c, 0, 53, 78
2, 290880, Note_on_c, 0, 57, 78
2, 290880, Note_on_c, 0, 60, 78
2, 290880, Note_on_c, 0, 65, 78
2, 291240, Note_off_c, 0, 65, 0
2, 291240, Note_off_c, 0, 60, 0
2, 291240, Note_off_c, 0, 57, 0
2, 291240, Note_off_c, 0, 53, 0
2, 291240, Note_off_c, 0, 48, 0
2, 291240, Note_off_c, 0, 41, 0
2, 291240, Note_on_c, 0, 41, 78
2, 291240, Note_on_c, 0, 48, 78
2, 291240, Note_on_c, 0, 53, 78
2, 291240, Note_on_c, 0, 57, 78
2, 291240, Note_on_c, 0, 60, 78
2, 291240, Note_on_c, 0, 65, 78
2, 291600, Note_off_c, 0, 65, 0
2, 291600, Note_off_c, 0, 60, 0
2, 291600, Note_off_c, 0, 57, 0
2, 291600, Note_off_c, 0, 53, 0
2, 291600, Note_off_c, 0, 48, 0
2, 291600, Note_off_c, 0, 41, 0
2, 291600, Note_on_c, 0, 41, 78
2, 291600, Note_on_c, 0, 48, 78
2, 291600, Note_on_c, 0, 53, 78
2, 291600, Note_on_c, 0, 57, 78
2, 291600, Note_on_c, 0, 60, 78
2, 291600, Note_on_c, 0, 65, 78
2, 291960, Note_off_c, 0, 65, 0
2, 291960, Note_off_c, 0, 60, 0
2, 291960, Note_off_c, 0, 57, 0
2, 291960, Note_off_c, 0, 53, 0
2, 291960, Note_off_c, 0, 48, 0
2, 291960, Note_off_c, 0, 41, 0
2, 291960, Note_on_c, 0, 41, 78
2, 291960, Note_on_c, 0, 48, 78
2, 291960, Note_on_c, 0, 53, 78
2, 291960, Note_on_c, 0, 57, 78
2, 291960, Note_on_c, 0, 60, 78
2, 291960, Note_on_c, 0, 65, 78
2, 292320, Note_off_c, 0, 65, 0
2, 292320, Note_off_c, 0, 60, 0
2, 292320, Note_off_c, 0, 57, 0
2, 292320, Note_off_c, 0, 53, 0
2, 292320, Note_off_c, 0, 48, 0
2, 292320, Note_off_c, 0, 41, 0
2, 292320, Note_on_c, 0, 41, 78
2, 292320, Note_on_c, 0, 48, 78
2, 292320, Note_on_c, 0, 53, 78
2, 292320, Note_on_c, 0, 57, 78
2, 292320, Note_on_c, 0, 60, 78
2, 292320, Note_on_c, 0, 65, 78
2, 292680, Note_off_c, 0, 65, 0
2, 292680, Note_off_c, 0, 60, 0
2, 292680, Note_off_c, 0, 57, 0
2, 292680, Note_off_c, 0, 53, 0
2, 292680, Note_off_c, 0, 48, 0
2, 292680, Note_off_c, 0, 41, 0
2, 292680, Note_on_c, 0, 41, 78
2, 292680, Note_on_c, 0, 48, 78
2, 292680, Note_on_c, 0, 53, 78
2, 292680, Note_on_c, 0, 57, 78
2, 292680, Note_on_c, 0, 60, 78
2, 292680, Note_on_c, 0, 65, 78
2, 293040, Note_off_c, 0, 65, 0
2, 293040, Note_off_c, 0, 60, 0
2, 293040, Note_off_c, 0, 57, 0
2, 293040, Note_off_c, 0, 53, 0
2, 293040, Note_off_c, 0, 48, 0
2, 293040, Note_off_c, 0, 41, 0
2, 293040, Note_on_c, 0, 41, 78
2, 293040, Note_on_c, 0, 48, 78
2, 293040, Note_on_c, 0, 53, 78
2, 293040, Note_on_c, 0, 57, 78
2, 293040, Note_on_c, 0, 60, 78
2, 293040, Note_on_c, 0, 65, 78
2, 293400, Note_off_c, 0, 65, 0
2, 293400, Note_off_c, 0, 60, 0
2, 293400, Note_off_c, 0, 57, 0
2, 293400, Note_off_c, 0, 53, 0
2, 293400, Note_off_c, 0, 48, 0
2, 293400, Note_off_c, 0, 41, 0
2, 293400, Note_on_c, 0, 41, 78
2, 293400, Note_on_c, 0, 48, 78
2, 293400, Note_on_c, 0, 53, 78
2, 293400, Note_on_c, 0, 57, 78
2, 293400, Note_on_c, 0, 60, 78
2, 293400, Note_on_c, 0, 65, 78
2, 293760, Note_off_c, 0, 65, 0
2, 293760, Note_off_c, 0, 60, 0
2, 293760, Note_off_c, 0, 57, 0
2, 293760, Note_off_c, 0, 53, 0
2, 293760, Note_off_c, 0, 48, 0
2, 293760, Note_off_c, 0, 41, 0
2, 293760, Note_on_c, 0, 41, 78
2, 293760, Note_on_c, 0, 48, 78
2, 293760, Note_on_c, 0, 53, 78
2, 293760, Note_on_c, 0, 57, 78
2, 293760, Note_on_c, 0, 60, 78
2, 293760, Note_on_c, 0, 65, 78
2, 294120, Note_off_c, 0, 65, 0
2, 294120, Note_off_c, 0, 60, 0
2, 294120, Note_off_c, 0, 57, 0
2, 294120, Note_off_c, 0, 53, 0
2, 294120, Note_off_c, 0, 48, 0
2, 294120, Note_off_c, 0, 41, 0
2, 294120, Note_on_c, 0, 41, 78
2, 294120, Note_on_c, 0, 48, 78
2, 294120, Note_on_c, 0, 53, 78
2, 294120, Note_on_c, 0, 57, 78
2, 294120, Note_on_c, 0, 60, 78
2, 294120, Note_on_c, 0, 65, 78
2, 294480, Note_off_c, 0, 65, 0
2, 294480, Note_off_c, 0, 60, 0
2, 294480, Note_off_c, 0, 57, 0
2, 294480, Note_off_c, 0, 53, 0
2, 294480, Note_off_c, 0, 48, 0
2, 294480, Note_off_c, 0, 41, 0
2, 294480, Note_on_c, 0, 41, 78
2, 294480, Note_on_c, 0, 48, 78
2, 294480, Note_on_c, 0, 53, 78
2, 294480, Note_on_c, 0, 57, 78
2, 294480, Note_on_c, 0, 60, 78
2, 294480, Note_on_c, 0, 65, 78
2, 294840, Note_off_c, 0, 65, 0
2, 294840, Note_off_c, 0, 60, 0
2, 294840, Note_off_c, 0, 57, 0
2, 294840, Note_off_c, 0, 53, 0
2, 294840, Note_off_c, 0, 48, 0
2, 294840, Note_off_c, 0, 41, 0
2, 294840, Note_on_c, 0, 41, 78
2, 294840, Note_on_c, 0, 48, 78
2, 294840, Note_on_c, 0, 53, 78
2, 294840, Note_on_c, 0, 57, 78
2, 294840, Note_on_c, 0, 60, 78
2, 294840, Note_on_c, 0, 65, 78
2, 295200, Note_off_c, 0, 65, 0
2, 295200, Note_off_c, 0, 60, 0
2, 295200, Note_off_c, 0, 57, 0
2, 295200, Note_off_c, 0, 53, 0
2, 295200, Note_off_c, 0, 48, 0
2, 295200, Note_off_c, 0, 41, 0
2, 295200, Note_on_c, 0, 41, 78
2, 295200, Note_on_c, 0, 48, 78
2, 295200, Note_on_c, 0, 53, 78
2, 295200, Note_on_c, 0, 57, 78
2, 295200, Note_on_c, 0, 60, 78
2, 295200, Note_on_c, 0, 65, 78
2, 295560, Note_off_c, 0, 65, 0
2, 295560, Note_off_c, 0, 60, 0
2, 295560, Note_off_c, 0, 57, 0
2, 295560, Note_off_c, 0, 53, 0
2, 295560, Note_off_c, 0, 48, 0
2, 295560, Note_off_c, 0, 41, 0
2, 295560, Note_on_c, 0, 41, 78
2, 295560, Note_on_c, 0, 48, 78
2, 295560, Note_on_c, 0, 53, 78
2, 295560, Note_on_c, 0, 57, 78
2, 295560, Note_on_c, 0, 60, 78
2, 295560, Note_on_c, 0, 65, 78
2, 295920, Note_off_c, 0, 65, 0
2, 295920, Note_off_c, 0, 60, 0
2, 295920, Note_off_c, 0, 57, 0
2, 295920, Note_off_c, 0, 53, 0
2, 295920, Note_off_c, 0, 48, 0
2, 295920, Note_off_c, 0, 41, 0
2, 295920, Note_on_c, 0, 41, 78
2, 295920, Note_on_c, 0, 48, 78
2, 295920, Note_on_c, 0, 53, 78
2, 295920, Note_on_c, 0, 57, 78
2, 295920, Note_on_c, 0, 60, 78
2, 295920, Note_on_c, 0, 65, 78
2, 296280, Note_off_c, 0, 65, 0
2, 296280, Note_off_c, 0, 60, 0
2, 296280, Note_off_c, 0, 57, 0
2, 296280, Note_off_c, 0, 53, 0
2, 296280, Note_off_c, 0, 48, 0
2, 296280, Note_off_c, 0, 41, 0
2, 296280, Note_on_c, 0, 41, 78
2, 296280, Note_on_c, 0, 48, 78
2, 296280, Note_on_c, 0, 53, 78
2, 296280, Note_on_c, 0, 57, 78
2, 296280, Note_on_c, 0, 60, 78
2, 296280, Note_on_c, 0, 65, 78
2, 296640, Note_off_c, 0, 65, 0
2, 296640, Note_off_c, 0, 60, 0
2, 296640, Note_off_c, 0, 57, 0
2, 296640, Note_off_c, 0, 53, 0
2, 296640, Note_off_c, 0, 48, 0
2, 296640, Note_off_c, 0, 41, 0
2, 296640, Note_on_c, 0, 43, 78
2, 296640, Note_on_c, 0, 50, 78
2, 296640, Note_on_c, 0, 55, 78
2, 296640, Note_on_c, 0, 59, 78
2, 296640, Note_on_c, 0, 62, 78
2, 296640, Note_on_c, 0, 67, 78
2, 297000, Note_off_c, 0, 67, 0
2, 297000, Note_off_c, 0, 62, 0
2, 297000, Note_off_c, 0, 59, 0
2, 297000, Note_off_c, 0, 55, 0
2, 297000, Note_off_c, 0, 50, 0
2, 297000, Note_off_c, 0, 43, 0
2, 297000, Note_on_c, 0, 43, 78
2, 297000, Note_on_c, 0, 50, 78
2, 297000, Note_on_c, 0, 55, 78
2, 297000, Note_on_c, 0, 59, 78
2, 297000, Note_on_c, 0, 62, 78
2, 297000, Note_on_c, 0, 67, 78
2, 297360, Note_off_c, 0, 67, 0
2, 297360, Note_off_c, 0, 62, 0
2, 297360, Note_off_c, 0, 59, 0
2, 297360, Note_off_c, 0, 55, 0
2, 297360, Note_off_c, 0, 50, 0
2, 297360, Note_off_c, 0, 43, 0
2, 297360, Note_on_c, 0, 43, 78
2, 297360, Note_on_c, 0, 50, 78
2, 297360, Note_on_c, 0, 55, 78
2, 297360, Note_on_c, 0, 59, 78
2, 297360, Note_on_c, 0, 62, 78
2, 297360, Note_on_c, 0, 67, 78
2, 297720, Note_off_c, 0, 67, 0
2, 297720, Note_off_c, 0, 62, 0
2, 297720, Note_off_c, 0, 59, 0
2, 297720, Note_off_c, 0, 55, 0
2, 297720, Note_off_c, 0, 50, 0
2, 297720, Note_off_c, 0, 43, 0
2, 297720, Note_on_c, 0, 43, 78
2, 297720, Note_on_c, 0, 50, 78
2, 297720, Note_on_c, 0, 55, 78
2, 297720, Note_on_c, 0, 59, 78
2, 297720, Note_on_c, 0, 62, 78
2, 297720, Note_on_c, 0, 67, 78
2, 298080, Note_off_c, 0, 67, 0
2, 298080, Note_off_c, 0, 62, 0
2, 298080, Note_off_c, 0, 59, 0
2, 298080, Note_off_c, 0, 55, 0
2, 298080, Note_off_c, 0, 50, 0
2, 298080, Note_off_c, 0, 43, 0
2, 298080, Note_on_c, 0, 43, 78
2, 298080, Note_on_c, 0, 50, 78
2, 298080, Note_on_c, 0, 55, 78
2, 298080, Note_on_c, 0, 59, 78
2, 298080, Note_on_c, 0, 62, 78
2, 298080, Note_on_c, 0, 67, 78
2, 298440, Note_off_c, 0, 67, 0
2, 298440, Note_off_c, 0, 62, 0
2, 298440, Note_off_c, 0, 59, 0
2, 298440, Note_off_c, 0, 55, 0
2, 298440, Note_off_c, 0, 50, 0
2, 298440, Note_off_c, 0, 43, 0
2, 298440, Note_on_c, 0, 43, 78
2, 298440, Note_on_c, 0, 50, 78
2, 298440, Note_on_c, 0, 55, 78
2, 298440, Note_on_c, 0, 59, 78
2, 298440, Note_on_c, 0, 62, 78
2, 298440, Note_on_c, 0, 67, 78
2, 298800, Note_off_c, 0, 67, 0
2, 298800, Note_off_c, 0, 62, 0
2, 298800, Note_off_c, 0, 59, 0
2, 298800, Note_off_c, 0, 55, 0
2, 298800, Note_off_c, 0, 50, 0
2, 298800, Note_off_c, 0, 43, 0
2, 298800, Note_on_c, 0, 43, 78
2, 298800, Note_on_c, 0, 50, 78
2, 298800, Note_on_c, 0, 55, 78
2, 298800, Note_on_c, 0, 59, 78
2, 298800, Note_on_c, 0, 62, 78
2, 298800, Note_on_c, 0, 67, 78
2, 299160, Note_off_c, 0, 67, 0
2, 299160, Note_off_c, 0, 62, 0
2, 299160, Note_off_c, 0, 59, 0
2, 299160, Note_off_c, 0, 55, 0
2, 299160, Note_off_c, 0, 50, 0
2, 299160, Note_off_c, 0, 43, 0
2, 299160, Note_on_c, 0, 43, 78
2, 299160, Note_on_c, 0, 50, 78
2, 299160, Note_on_c, 0, 55, 78
2, 299160, Note_on_c, 0, 59, 78
2, 299160, Note_on_c, 0, 62, 78
2, 299160, Note_on_c, 0, 67, 78
2, 299520, Note_off_c, 0, 67, 0
2, 299520, Note_off_c, 0, 62, 0
2, 299520, Note_off_c, 0, 59, 0
2, 299520, Note_off_c, 0, 55, 0
2, 299520, Note_off_c, 0, 50, 0
2, 299520, Note_off_c, 0, 43, 0
2, 299520, Note_on_c, 0, 43, 78
2, 299520, Note_on_c, 0, 50, 78
2, 299520, Note_on_c, 0, 55, 78
2, 299520, Note_on_c, 0, 59, 78
2, 299520, Note_on_c, 0, 62, 78
2, 299520, Note_on_c, 0, 67, 78
2, 299880, Note_off_c, 0, 67, 0
2, 299880, Note_off_c, 0, 62, 0
2, 299880, Note_off_c, 0, 59, 0
2, 299880, Note_off_c, 0, 55, 0
2, 299880, Note_off_c, 0, 50, 0
2, 299880, Note_off_c, 0, 43, 0
2, 299880, Note_on_c, 0, 43, 78
2, 299880, Note_on_c, 0, 50, 78
2, 299880, Note_on_c, 0, 55, 78
2, 299880, Note_on_c, 0, 59, 78
2, 299880, Note_on_c, 0, 62, 78
2, 299880, Note_on_c, 0, 67, 78
2, 300240, Note_off_c, 0, 67, 0
2, 300240, Note_off_c, 0, 62, 0
2, 300240, Note_off_c, 0, 59, 0
2, 300240, Note_off_c, 0, 55, 0
2, 300240, Note_off_c, 0, 50, 0
2, 300240, Note_off_c, 0, 43, 0
2, 300240, Note_on_c, 0, 43, 78
2, 300240, Note_on_c, 0, 50, 78
2, 300240, Note_on_c, 0, 55, 78
2, 300240, Note_on_c, 0, 59, 78
2, 300240, Note_on_c, 0, 62, 78
2, 300240, Note_on_c, 0, 67, 78
2, 300600, Note_off_c, 0, 67, 0
2, 300600, Note_off_c, 0, 62, 0
2, 300600, Note_off_c, 0, 59, 0
2, 300600, Note_off_c, 0, 55, 0
2, 300600, Note_off_c, 0, 50, 0
2, 300600, Note_off_c, 0, 43, 0
2, 300600, Note_on_c, 0, 43, 78
2, 300600, Note_on_c, 0, 50, 78
2, 300600, Note_on_c, 0, 55, 78
2, 300600, Note_on_c, 0, 59, 78
2, 300600, Note_on_c, 0, 62, 78
2, 300600, Note_on_c, 0, 67, 78
2, 300960, Note_off_c, 0, 67, 0
2, 300960, Note_off_c, 0, 62, 0
2, 300960, Note_off_c, 0, 59, 0
2, 300960, Note_off_c, 0, 55, 0
2, 300960, Note_off_c, 0, 50, 0
2, 300960, Note_off_c, 0, 43, 0
2, 300960, Note_on_c, 0, 46, 78
2, 300960, Note_on_c, 0, 53, 78
2, 300960, Note_on_c, 0, 58, 78
2, 300960, Note_on_c, 0, 62, 78
2, 300960, Note_on_c, 0, 65, 78
2, 300960, Note_on_c, 0, 70, 78
2, 301320, Note_off_c, 0, 70, 0
2, 301320, Note_off_c, 0, 65, 0
2, 301320, Note_off_c, 0, 62, 0
2, 301320, Note_off_c, 0, 58, 0
2, 301320, Note_off_c, 0, 53, 0
2, 301320, Note_off_c, 0, 46, 0
2, 301320, Note_on_c, 0, 46, 78
2, 301320, Note_on_c, 0, 53, 78
2, 301320, Note_on_c, 0, 58, 78
2, 301320, Note_on_c, 0, 62, 78
2, 301320, Note_on_c, 0, 65, 78
2, 301320, Note_on_c, 0, 70, 78
2, 301680, Note_off_c, 0, 70, 0
2, 301680, Note_off_c, 0, 65, 0
2, 301680, Note_off_c, 0, 62, 0
2, 301680, Note_off_c, 0, 58, 0
2, 301680, Note_off_c, 0, 53, 0
2, 301680, Note_off_c, 0, 46, 0
2, 301680, Note_on_c, 0, 46, 78
2, 301680, Note_on_c, 0, 53, 78
2, 301680, Note_on_c, 0, 58, 78
2, 301680, Note_on_c, 0, 62, 78
2, 301680, Note_on_c, 0, 65, 78
2, 301680, Note_on_c, 0, 70, 78
2, 302040, Note_off_c, 0, 70, 0
2, 302040, Note_off_c, 0, 65, 0
2, 302040, Note_off_c, 0, 62, 0
2, 302040, Note_off_c, 0, 58, 0
2, 302040, Note_off_c, 0, 53, 0
2, 302040, Note_off_c, 0, 46, 0
2, 302040, Note_on_c, 0, 46, 78
2, 302040, Note_on_c, 0, 53, 78
2, 302040, Note_on_c, 0, 58, 78
2, 302040, Note_on_c, 0, 62, 78
2, 302040, Note_on_c, 0, 65, 78
2, 302040, Note_on_c, 0, 70, 78
2, 302400, Note_off_c, 0, 70, 0
2, 302400, Note_off_c, 0, 65, 0
2, 302400, Note_off_c, 0, 62, 0
2, 302400, Note_off_c, 0, 58, 0
2, 302400, Note_off_c, 0, 53, 0
2, 302400, Note_off_c, 0, 46, 0
2, 302400, Note_on_c, 0, 45, 78
2, 302400, Note_on_c, 0, 52, 78
2, 302400, Note_on_c, 0, 57, 78
2, 302400, Note_on_c, 0, 61, 78
2, 302400, Note_on_c, 0, 64, 78
2, 302400, Note_on_c, 0, 69, 78
2, 302760, Note_off_c, 0, 69, 0
2, 302760, Note_off_c, 0, 64, 0
2, 302760, Note_off_c, 0, 61, 0
2, 302760, Note_off_c, 0, 57, 0
2, 302760, Note_off_c, 0, 52, 0
2, 302760, Note_off_c, 0, 45, 0
2, 302760, Note_on_c, 0, 45, 78
2, 302760, Note_on_c, 0, 52, 78
2, 302760, Note_on_c, 0, 57, 78
2, 302760, Note_on_c, 0, 61, 78
2, 302760, Note_on_c, 0, 64, 78
2, 302760, Note_on_c, 0, 69, 78
2, 303120, Note_off_c, 0, 69, 0
2, 303120, Note_off_c, 0, 64, 0
2, 303120, Note_off_c, 0, 61, 0
2, 303120, Note_off_c, 0, 57, 0
2, 303120, Note_off_c, 0, 52, 0
2, 303120, Note_off_c, 0, 45, 0
2, 303120, Note_on_c, 0, 45, 78
2, 303120, Note_on_c, 0, 52, 78
2, 303120, Note_on_c, 0, 57, 78
2, 303120, Note_on_c, 0, 61, 78
2, 303120, Note_on_c, 0, 64, 78
2, 303120, Note_on_c, 0, 69, 78
2, 303480, Note_off_c, 0, 69, 0
2, 303480, Note_off_c, 0, 64, 0
2, 303480, Note_off_c, 0, 61, 0
2, 303480, Note_off_c, 0, 57, 0
2, 303480, Note_off_c, 0, 52, 0
2, 303480, Note_off_c, 0, 45, 0
2, 303480, Note_on_c, 0, 45, 78
2, 303480, Note_on_c, 0, 52, 78
2, 303480, Note_on_c, 0, 57, 78
2, 303480, Note_on_c, 0, 61, 78
2, 303480, Note_on_c, 0, 64, 78
2, 303480, Note_on_c, 0, 69, 78
2, 303840, Note_off_c, 0, 69, 0
2, 303840, Note_off_c, 0, 64, 0
2, 303840, Note_off_c, 0, 61, 0
2, 303840, Note_off_c, 0, 57, 0
2, 303840, Note_off_c, 0, 52, 0
2, 303840, Note_off_c, 0, 45, 0
2, 303840, Note_on_c, 0, 45, 78
2, 303840, Note_on_c, 0, 52, 78
2, 303840, Note_on_c, 0, 57, 78
2, 303840, Note_on_c, 0, 61, 78
2, 303840, Note_on_c, 0, 64, 78
2, 303840, Note_on_c, 0, 69, 78
2, 304200, Note_off_c, 0, 69, 0
2, 304200, Note_off_c, 0, 64, 0
2, 304200, Note_off_c, 0, 61, 0
2, 304200, Note_off_c, 0, 57, 0
2, 304200, Note_off_c, 0, 52, 0
2, 304200, Note_off_c, 0, 45, 0
2, 304200, Note_on_c, 0, 45, 78
2, 304200, Note_on_c, 0, 52, 78
2, 304200, Note_on_c, 0, 57, 78
2, 304200, Note_on_c, 0, 61, 78
2, 304200, Note_on_c, 0, 64, 78
2, 304200, Note_on_c, 0, 69, 78
2, 304560, Note_off_c, 0, 69, 0
2, 304560, Note_off_c, 0, 64, 0
2, 304560, Note_off_c, 0, 61, 0
2, 304560, Note_off_c, 0, 57, 0
2, 304560, Note_off_c, 0, 52, 0
2, 304560, Note_off_c, 0, 45, 0
2, 304560, Note_on_c, 0, 45, 78
2, 304560, Note_on_c, 0, 52, 78
2, 304560, Note_on_c, 0, 57, 78
2, 304560, Note_on_c, 0, 61, 78
2, 304560, Note_on_c, 0, 64, 78
2, 304560, Note_on_c, 0, 69, 78
2, 304920, Note_off_c, 0, 69, 0
2, 304920, Note_off_c, 0, 64, 0
2, 304920, Note_off_c, 0, 61, 0
2, 304920, Note_off_c, 0, 57, 0
2, 304920, Note_off_c, 0, 52, 0
2, 304920, Note_off_c, 0, 45, 0
2, 304920, Note_on_c, 0, 45, 78
2, 304920, Note_on_c, 0, 52, 78
2, 304920, Note_on_c, 0, 57, 78
2, 304920, Note_on_c, 0, 61, 78
2, 304920, Note_on_c, 0, 64, 78
2, 304920, Note_on_c, 0, 69, 78
2, 305280, Note_off_c, 0, 69, 0
2, 305280, Note_off_c, 0, 64, 0
2, 305280, Note_off_c, 0, 61, 0
2, 305280, Note_off_c, 0, 57, 0
2, 305280, Note_off_c, 0, 52, 0
2, 305280, Note_off_c, 0, 45, 0
2, 305280, Note_on_c, 0, 45, 78
2, 305280, Note_on_c, 0, 52, 78
2, 305280, Note_on_c, 0, 57, 78
2, 305280, Note_on_c, 0, 61, 78
2, 305280, Note_on_c, 0, 64, 78
2, 305280, Note_on_c, 0, 69, 78
2, 305640, Note_off_c, 0, 69, 0
2, 305640, Note_off_c, 0, 64, 0
2, 305640, Note_off_c, 0, 61, 0
2, 305640, Note_off_c, 0, 57, 0
2, 305640, Note_off_c, 0, 52, 0
2, 305640, Note_off_c, 0, 45, 0
2, 305640, Note_on_c, 0, 45, 78
2, 305640, Note_on_c, 0, 52, 78
2, 305640, Note_on_c, 0, 57, 78
2, 305640, Note_on_c, 0, 61, 78
2, 305640, Note_on_c, 0, 64, 78
2, 305640, Note_on_c, 0, 69, 78
2, 306000, Note_off_c, 0, 69, 0
2, 306000, Note_off_c, 0, 64, 0
2, 306000, Note_off_c, 0, 61, 0
2, 306000, Note_off_c, 0, 57, 0
2, 306000, Note_off_c, 0, 52, 0
2, 306000, Note_off_c, 0, 45, 0
2, 306000, Note_on_c, 0, 45, 78
2, 306000, Note_on_c, 0, 52, 78
2, 306000, Note_on_c, 0, 57, 78
2, 306000, Note_on_c, 0, 61, 78
2, 306000, Note_on_c, 0, 64, 78
2, 306000, Note_on_c, 0, 69, 78
2, 306360, Note_off_c, 0, 69, 0
2, 306360, Note_off_c, 0, 64, 0
2, 306360, Note_off_c, 0, 61, 0
2, 306360, Note_off_c, 0, 57, 0
2, 306360, Note_off_c, 0, 52, 0
2, 306360, Note_off_c, 0, 45, 0
2, 306360, Note_on_c, 0, 45, 78
2, 306360, Note_on_c, 0, 52, 78
2, 306360, Note_on_c, 0, 57, 78
2, 306360, Note_on_c, 0, 61, 78
2, 306360, Note_on_c, 0, 64, 78
2, 306360, Note_on_c, 0, 69, 78
2, 306720, Note_off_c, 0, 69, 0
2, 306720, Note_off_c, 0, 64, 0
2, 306720, Note_off_c, 0, 61, 0
2, 306720, Note_off_c, 0, 57, 0
2, 306720, Note_off_c, 0, 52, 0
2, 306720, Note_off_c, 0, 45, 0
2, 306720, Note_on_c, 0, 45, 78
2, 306720, Note_on_c, 0, 52, 78
2, 306720, Note_on_c, 0, 57, 78
2, 306720, Note_on_c, 0, 61, 78
2, 306720, Note_on_c, 0, 64, 78
2, 306720, Note_on_c, 0, 69, 78
2, 307080, Note_off_c, 0, 69, 0
2, 307080, Note_off_c, 0, 64, 0
2, 307080, Note_off_c, 0, 61, 0
2, 307080, Note_off_c, 0, 57, 0
2, 307080, Note_off_c, 0, 52, 0
2, 307080, Note_off_c, 0, 45, 0
2, 307080, Note_on_c, 0, 45, 78
2, 307080, Note_on_c, 0, 52, 78
2, 307080, Note_on_c, 0, 57, 78
2, 307080, Note_on_c, 0, 61, 78
2, 307080, Note_on_c, 0, 64, 78
2, 307080, Note_on_c, 0, 69, 78
2, 307440, Note_off_c, 0, 69, 0
2, 307440, Note_off_c, 0, 64, 0
2, 307440, Note_off_c, 0, 61, 0
2, 307440, Note_off_c, 0, 57, 0
2, 307440, Note_off_c, 0, 52, 0
2, 307440, Note_off_c, 0, 45, 0
2, 307440, Note_on_c, 0, 45, 78
2, 307440, Note_on_c, 0, 52, 78
2, 307440, Note_on_c, 0, 57, 78
2, 307440, Note_on_c, 0, 61, 78
2, 307440, Note_on_c, 0, 64, 78
2, 307440, Note_on_c, 0, 69, 78
2, 307800, Note_off_c, 0, 69, 0
2, 307800, Note_off_c, 0, 64, 0
2, 307800, Note_off_c, 0, 61, 0
2, 307800, Note_off_c, 0, 57, 0
2, 307800, Note_off_c, 0, 52, 0
2, 307800, Note_off_c, 0, 45, 0
2, 307800, Note_on_c, 0, 45, 78
2, 307800, Note_on_c, 0, 52, 78
2, 307800, Note_on_c, 0, 57, 78
2, 307800, Note_on_c, 0, 61, 78
2, 307800, Note_on_c, 0, 64, 78
2, 307800, Note_on_c, 0, 69, 78
2, 308160, Note_off_c, 0, 69, 0
2, 308160, Note_off_c, 0, 64, 0
2, 308160, Note_off_c, 0, 61, 0
2, 308160, Note_off_c, 0, 57, 0
2, 308160, Note_off_c, 0, 52, 0
2, 308160, Note_off_c, 0, 45, 0
2, 308160, Note_on_c, 0, 48, 78
2, 308160, Note_on_c, 0, 55, 78
2, 308160, Note_on_c, 0, 60, 78
2, 308160, Note_on_c, 0, 64, 78
2, 308160, Note_on_c, 0, 67, 78
2, 308160, Note_on_c, 0, 72, 78
2, 308520, Note_off_c, 0, 72, 0
2, 308520, Note_off_c, 0, 67, 0
2, 308520, Note_off_c, 0, 64, 0
2, 308520, Note_off_c, 0, 60, 0
2, 308520, Note_off_c, 0, 55, 0
2, 308520, Note_off_c, 0, 48, 0
2, 308520, Note_on_c, 0, 48, 78
2, 308520, Note_on_c, 0, 55, 78
2, 308520, Note_on_c, 0, 60, 78
2, 308520, Note_on_c, 0, 64, 78
2, 308520, Note_on_c, 0, 67, 78
2, 308520, Note_on_c, 0, 72, 78
2, 308880, Note_off_c, 0, 72, 0
2, 308880, Note_off_c, 0, 67, 0
2, 308880, Note_off_c, 0, 64, 0
2, 308880, Note_off_c, 0, 60, 0
2, 308880, Note_off_c, 0, 55, 0
2, 308880, Note_off_c, 0, 48, 0
2, 308880, Note_on_c, 0, 48, 78
2, 308880, Note_on_c, 0, 55, 78
2, 308880, Note_on_c, 0, 60, 78
2, 308880, Note_on_c, 0, 64, 78
2, 308880, Note_on_c, 0, 67, 78
2, 308880, Note_on_c, 0, 72, 78
2, 309240, Note_off_c, 0, 72, 0
2, 309240, Note_off_c, 0, 67, 0
2, 309240, Note_off_c, 0, 64, 0
2, 309240, Note_off_c, 0, 60, 0
2, 309240, Note_off_c, 0, 55, 0
2, 309240, Note_off_c, 0, 48, 0
2, 309240, Note_on_c, 0, 48, 78
2, 309240, Note_on_c, 0, 55, 78
2, 309240, Note_on_c, 0, 60, 78
2, 309240, Note_on_c, 0, 64, 78
2, 309240, Note_on_c, 0, 67, 78
2, 309240, Note_on_c, 0, 72, 78
2, 309600, Note_off_c, 0, 72, 0
2, 309600, Note_off_c, 0, 67, 0
2, 309600, Note_off_c, 0, 64, 0
2, 309600, Note_off_c, 0, 60, 0
2, 309600, Note_off_c, 0, 55, 0
2, 309600, Note_off_c, 0, 48, 0
2, 309600, Note_on_c, 0, 48, 78
2, 309600, Note_on_c, 0, 55, 78
2, 309600, Note_on_c, 0, 60, 78
2, 309600, Note_on_c, 0, 64, 78
2, 309600, Note_on_c, 0, 67, 78
2, 309600, Note_on_c, 0, 72, 78
2, 309960, Note_off_c, 0, 72, 0
2, 309960, Note_off_c, 0, 67, 0
2, 309960, Note_off_c, 0, 64, 0
2, 309960, Note_off_c, 0, 60, 0
2, 309960, Note_off_c, 0, 55, 0
2, 309960, Note_off_c, 0, 48, 0
2, 309960, Note_on_c, 0, 48, 78
2, 309960, Note_on_c, 0, 55, 78
2, 309960, Note_on_c, 0, 60, 78
2, 309960, Note_on_c, 0, 64, 78
2, 309960, Note_on_c, 0, 67, 78
2, 309960, Note_on_c, 0, 72, 78
2, 310320, Note_off_c, 0, 72, 0
2, 310320, Note_off_c, 0, 67, 0
2, 310320, Note_off_c, 0, 64, 0
2, 310320, Note_off_c, 0, 60, 0
2, 310320, Note_off_c, 0, 55, 0
2, 310320, Note_off_c, 0, 48, 0
2, 310320, Note_on_c, 0, 48, 78
2, 310320, Note_on_c, 0, 55, 78
2, 310320, Note_on_c, 0, 60, 78
2, 310320, Note_on_c, 0, 64, 78
2, 310320, Note_on_c, 0, 67, 78
2, 310320, Note_on_c, 0, 72, 78
2, 310680, Note_off_c, 0, 72, 0
2, 310680, Note_off_c, 0, 67, 0
2, 310680, Note_off_c, 0, 64, 0
2, 310680, Note_off_c, 0, 60, 0
2, 310680, Note_off_c, 0, 55, 0
2, 310680, Note_off_c, 0, 48, 0
2, 310680, Note_on_c, 0, 48, 78
2, 310680, Note_on_c, 0, 55, 78
2, 310680, Note_on_c, 0, 60, 78
2, 310680, Note_on_c, 0, 64, 78
2, 310680, Note_on_c, 0, 67, 78
2, 310680, Note_on_c, 0, 72, 78
2, 311040, Note_off_c, 0, 72, 0
2, 311040, Note_off_c, 0, 67, 0
2, 311040, Note_off_c, 0, 64, 0
2, 311040, Note_off_c, 0, 60, 0
2, 311040, Note_off_c, 0, 55, 0
2, 311040, Note_off_c, 0, 48, 0
2, 311040, Note_on_c, 0, 48, 78
2, 311040, Note_on_c, 0, 55, 78
2, 311040, Note_on_c, 0, 60, 78
2, 311040, Note_on_c, 0, 64, 78
2, 311040, Note_on_c, 0, 67, 78
2, 311040, Note_on_c, 0, 72, 78
2, 311400, Note_off_c, 0, 72, 0
2, 311400, Note_off_c, 0, 67, 0
2, 311400, Note_off_c, 0, 64, 0
2, 311400, Note_off_c, 0, 60, 0
2, 311400, Note_off_c, 0, 55, 0
2, 311400, Note_off_c, 0, 48, 0
2, 311400, Note_on_c, 0, 48, 78
2, 311400, Note_on_c, 0, 55, 78
2, 311400, Note_on_c, 0, 60, 78
2, 311400, Note_on_c, 0, 64, 78
2, 311400, Note_on_c, 0, 67, 78
2, 311400, Note_on_c, 0, 72, 78
2, 311760, Note_off_c, 0, 72, 0
2, 311760, Note_off_c, 0, 67, 0
2, 311760, Note_off_c, 0, 64, 0
2, 311760, Note_off_c, 0, 60, 0
2, 311760, Note_off_c, 0, 55, 0
2, 311760, Note_off_c, 0, 48, 0
2, 311760, Note_on_c, 0, 48, 78
2, 311760, Note_on_c, 0, 55, 78
2, 311760, Note_on_c, 0, 60, 78
2, 311760, Note_on_c, 0, 64, 78
2, 311760, Note_on_c, 0, 67, 78
2, 311760, Note_on_c, 0, 72, 78
2, 312120, Note_off_c, 0, 72, 0
2, 312120, Note_off_c, 0, 67, 0
2, 312120, Note_off_c, 0, 64, 0
2, 312120, Note_off_c, 0, 60, 0
2, 312120, Note_off_c, 0, 55, 0
2, 312120, Note_off_c, 0, 48, 0
2, 312120, Note_on_c, 0, 48, 78
2, 312120, Note_on_c, 0, 55, 78
2, 312120, Note_on_c, 0, 60, 78
2, 312120, Note_on_c, 0, 64, 78
2, 312120, Note_on_c, 0, 67, 78
2, 312120, Note_on_c, 0, 72, 78
2, 312480, Note_off_c, 0, 72, 0
2, 312480, Note_off_c, 0, 67, 0
2, 312480, Note_off_c, 0, 64, 0
2, 312480, Note_off_c, 0, 60, 0
2, 312480, Note_off_c, 0, 55, 0
2, 312480, Note_off_c, 0, 48, 0
2, 312480, Note_on_c, 0, 48, 78
2, 312480, Note_on_c, 0, 55, 78
2, 312480, Note_on_c, 0, 60, 78
2, 312480, Note_on_c, 0, 64, 78
2, 312480, Note_on_c, 0, 67, 78
2, 312480, Note_on_c, 0, 72, 78
2, 312840, Note_off_c, 0, 72, 0
2, 312840, Note_off_c, 0, 67, 0
2, 312840, Note_off_c, 0, 64, 0
2, 312840, Note_off_c, 0, 60, 0
2, 312840, Note_off_c, 0, 55, 0
2, 312840, Note_off_c, 0, 48, 0
2, 312840, Note_on_c, 0, 48, 78
2, 312840, Note_on_c, 0, 55, 78
2, 312840, Note_on_c, 0, 60, 78
2, 312840, Note_on_c, 0, 64, 78
2, 312840, Note_on_c, 0, 67, 78
2, 312840, Note_on_c, 0, 72, 78
2, 313200, Note_off_c, 0, 72, 0
2, 313200, Note_off_c, 0, 67, 0
2, 313200, Note_off_c, 0, 64, 0
2, 313200, Note_off_c, 0, 60, 0
2, 313200, Note_off_c, 0, 55, 0
2, 313200, Note_off_c, 0, 48, 0
2, 313200, Note_on_c, 0, 48, 78
2, 313200, Note_on_c, 0, 55, 78
2, 313200, Note_on_c, 0, 60, 78
2, 313200, Note_on_c, 0, 64, 78
2, 313200, Note_on_c, 0, 67, 78
2, 313200, Note_on_c, 0, 72, 78
2, 313560, Note_off_c, 0, 72, 0
2, 313560, Note_off_c, 0, 67, 0
2, 313560, Note_off_c, 0, 64, 0
2, 313560, Note_off_c, 0, 60, 0
2, 313560, Note_off_c, 0, 55, 0
2, 313560, Note_off_c, 0, 48, 0
2, 313560, Note_on_c, 0, 48, 78
2, 313560, Note_on_c, 0, 55, 78
2, 313560, Note_on_c, 0, 60, 78
2, 313560, Note_on_c, 0, 64, 78
2, 313560, Note_on_c, 0, 67, 78
2, 313560, Note_on_c, 0, 72, 78
2, 313920, Note_off_c, 0, 72, 0
2, 313920, Note_off_c, 0, 67, 0
2, 313920, Note_off_c, 0, 64, 0
2, 313920, Note_off_c, 0, 60, 0
2, 313920, Note_off_c, 0, 55, 0
2, 313920, Note_off_c, 0, 48, 0
2, 313920, Note_on_c, 0, 41, 78
2, 313920, Note_on_c, 0, 48, 78
2, 313920, Note_on_c, 0, 53, 78
2, 313920, Note_on_c, 0, 57, 78
2, 313920, Note_on_c, 0, 60, 78
2, 313920, Note_on_c, 0, 65, 78
2, 314280, Note_off_c, 0, 65, 0
2, 314280, Note_off_c, 0, 60, 0
2, 314280, Note_off_c, 0, 57, 0
2, 314280, Note_off_c, 0, 53, 0
2, 314280, Note_off_c, 0, 48, 0
2, 314280, Note_off_c, 0, 41, 0
2, 314280, Note_on_c, 0, 41, 78
2, 314280, Note_on_c, 0, 48, 78
2, 314280, Note_on_c, 0, 53, 78
2, 314280, Note_on_c, 0, 57, 78
2, 314280, Note_on_c, 0, 60, 78
2, 314280, Note_on_c, 0, 65, 78
2, 314640, Note_off_c, 0, 65, 0
2, 314640, Note_off_c, 0, 60, 0
2, 314640, Note_off_c, 0, 57, 0
2, 314640, Note_off_c, 0, 53, 0
2, 314640, Note_off_c, 0, 48, 0
2, 314640, Note_off_c, 0, 41, 0
2, 314640, Note_on_c, 0, 41, 78
2, 314640, Note_on_c, 0, 48, 78
2, 314640, Note_on_c, 0, 53, 78
2, 314640, Note_on_c, 0, 57, 78
2, 314640, Note_on_c, 0, 60, 78
2, 314640, Note_on_c, 0, 65, 78
2, 315000, Note_off_c, 0, 65, 0
2, 315000, Note_off_c, 0, 60, 0
2, 315000, Note_off_c, 0, 57, 0
2, 315000, Note_off_c, 0, 53, 0
2, 315000, Note_off_c, 0, 48, 0
2, 315000, Note_off_c, 0, 41, 0
2, 315000, Note_on_c, 0, 41, 78
2, 315000, Note_on_c, 0, 48, 78
2, 315000, Note_on_c, 0, 53, 78
2, 315000, Note_on_c, 0, 57, 78
2, 315000, Note_on_c, 0, 60, 78
2, 315000, Note_on_c, 0, 65, 78
2, 315360, Note_off_c, 0, 65, 0
2, 315360, Note_off_c, 0, 60, 0
2, 315360, Note_off_c, 0, 57, 0
2, 315360, Note_off_c, 0, 53, 0
2, 315360, Note_off_c, 0, 48, 0
2, 315360, Note_off_c, 0, 41, 0
2, 315360, Note_on_c, 0, 41, 78
2, 315360, Note_on_c, 0, 48, 78
2, 315360, Note_on_c, 0, 53, 78
2, 315360, Note_on_c, 0, 57, 78
2, 315360, Note_on_c, 0, 60, 78
2, 315360, Note_on_c, 0, 65, 78
2, 315720, Note_off_c, 0, 65, 0
2, 315720, Note_off_c, 0, 60, 0
2, 315720, Note_off_c, 0, 57, 0
2, 315720, Note_off_c, 0, 53, 0
2, 315720, Note_off_c, 0, 48, 0
2, 315720, Note_off_c, 0, 41, 0
2, 315720, Note_on_c, 0, 41, 78
2, 315720, Note_on_c, 0, 48, 78
2, 315720, Note_on_c, 0, 53, 78
2, 315720, Note_on_c, 0, 57, 78
2, 315720, Note_on_c, 0, 60, 78
2, 315720, Note_on_c, 0, 65, 78
2, 316080, Note_off_c, 0, 65, 0
2, 316080, Note_off_c, 0, 60, 0
2, 316080, Note_off_c, 0, 57, 0
2, 316080, Note_off_c, 0, 53, 0
2, 316080, Note_off_c, 0, 48, 0
2, 316080, Note_off_c, 0, 41, 0
2, 316080, Note_on_c, 0, 41, 78
2, 316080, Note_on_c, 0, 48, 78
2, 316080, Note_on_c, 0, 53, 78
2, 316080, Note_on_c, 0, 57, 78
2, 316080, Note_on_c, 0, 60, 78
2, 316080, Note_on_c, 0, 65, 78
2, 316440, Note_off_c, 0, 65, 0
2, 316440, Note_off_c, 0, 60, 0
2, 316440, Note_off_c, 0, 57, 0
2, 316440, Note_off_c, 0, 53, 0
2, 316440, Note_off_c, 0, 48, 0
2, 316440, Note_off_c, 0, 41, 0
2, 316440, Note_on_c, 0, 41, 78
2, 316440, Note_on_c, 0, 48, 78
2, 316440, Note_on_c, 0, 53, 78
2, 316440, Note_on_c, 0, 57, 78
2, 316440, Note_on_c, 0, 60, 78
2, 316440, Note_on_c, 0, 65, 78
2, 316800, Note_off_c, 0, 65, 0
2, 316800, Note_off_c, 0, 60, 0
2, 316800, Note_off_c, 0, 57, 0
2, 316800, Note_off_c, 0, 53, 0
2, 316800, Note_off_c, 0, 48, 0
2, 316800, Note_off_c, 0, 41, 0
2, 316800, Note_on_c, 0, 41, 78
2, 316800, Note_on_c, 0, 48, 78
2, 316800, Note_on_c, 0, 53, 78
2, 316800, Note_on_c, 0, 57, 78
2, 316800, Note_on_c, 0, 60, 78
2, 316800, Note_on_c, 0, 65, 78
2, 317160, Note_off_c, 0, 65, 0
2, 317160, Note_off_c, 0, 60, 0
2, 317160, Note_off_c, 0, 57, 0
2, 317160, Note_off_c, 0, 53, 0
2, 317160, Note_off_c, 0, 48, 0
2, 317160, Note_off_c, 0, 41, 0
2, 317160, Note_on_c, 0, 41, 78
2, 317160, Note_on_c, 0, 48, 78
2, 317160, Note_on_c, 0, 53, 78
2, 317160, Note_on_c, 0, 57, 78
2, 317160, Note_on_c, 0, 60, 78
2, 317160, Note_on_c, 0, 65, 78
2, 317520, Note_off_c, 0, 65, 0
2, 317520, Note_off_c, 0, 60, 0
2, 317520, Note_off_c, 0, 57, 0
2, 317520, Note_off_c, 0, 53, 0
2, 317520, Note_off_c, 0, 48, 0
2, 317520, Note_off_c, 0, 41, 0
2, 317520, Note_on_c, 0, 41, 78
2, 317520, Note_on_c, 0, 48, 78
2, 317520, Note_on_c, 0, 53, 78
2, 317520, Note_on_c, 0, 57, 78
2, 317520, Note_on_c, 0, 60, 78
2, 317520, Note_on_c, 0, 65, 78
2, 317880, Note_off_c, 0, 65, 0
2, 317880, Note_off_c, 0, 60, 0
2, 317880, Note_off_c, 0, 57, 0
2, 317880, Note_off_c, 0, 53, 0
2, 317880, Note_off_c, 0, 48, 0
2, 317880, Note_off_c, 0, 41, 0
2, 317880, Note_on_c, 0, 41, 78
2, 317880, Note_on_c, 0, 48, 78
2, 317880, Note_on_c, 0, 53, 78
2, 317880, Note_on_c, 0, 57, 78
2, 317880, Note_on_c, 0, 60, 78
2, 317880, Note_on_c, 0, 65, 78
2, 318240, Note_off_c, 0, 65, 0
2, 318240, Note_off_c, 0, 60, 0
2, 318240, Note_off_c, 0, 57, 0
2, 318240, Note_off_c, 0, 53, 0
2, 318240, Note_off_c, 0, 48, 0
2, 318240, Note_off_c, 0, 41, 0
2, 318240, Note_on_c, 0, 41, 78
2, 318240, Note_on_c, 0, 48, 78
2, 318240, Note_on_c, 0, 53, 78
2, 318240, Note_on_c, 0, 57, 78
2, 318240, Note_on_c, 0, 60, 78
2, 318240, Note_on_c, 0, 65, 78
2, 318600, Note_off_c, 0, 65, 0
2, 318600, Note_off_c, 0, 60, 0
2, 318600, Note_off_c, 0, 57, 0
2, 318600, Note_off_c, 0, 53, 0
2, 318600, Note_off_c, 0, 48, 0
2, 318600, Note_off_c, 0, 41, 0
2, 318600, Note_on_c, 0, 41, 78
2, 318600, Note_on_c, 0, 48, 78
2, 318600, Note_on_c, 0, 53, 78
2, 318600, Note_on_c, 0, 57, 78
2, 318600, Note_on_c, 0, 60, 78
2, 318600, Note_on_c, 0, 65, 78
2, 318960, Note_off_c, 0, 65, 0
2, 318960, Note_off_c, 0, 60, 0
2, 318960, Note_off_c, 0, 57, 0
2, 318960, Note_off_c, 0, 53, 0
2, 318960, Note_off_c, 0, 48, 0
2, 318960, Note_off_c, 0, 41, 0
2, 318960, Note_on_c, 0, 41, 78
2, 318960, Note_on_c, 0, 48, 78
2, 318960, Note_on_c, 0, 53, 78
2, 318960, Note_on_c, 0, 57, 78
2, 318960, Note_on_c, 0, 60, 78
2, 318960, Note_on_c, 0, 65, 78
2, 319320, Note_off_c, 0, 65, 0
2, 319320, Note_off_c, 0, 60, 0
2, 319320, Note_off_c, 0, 57, 0
2, 319320, Note_off_c, 0, 53, 0
2, 319320, Note_off_c, 0, 48, 0
2, 319320, Note_off_c, 0, 41, 0
2, 319320, Note_on_c, 0, 41, 78
2, 319320, Note_on_c, 0, 48, 78
2, 319320, Note_on_c, 0, 53, 78
2, 319320, Note_on_c, 0, 57, 78
2, 319320, Note_on_c, 0, 60, 78
2, 319320, Note_on_c, 0, 65, 78
2, 319680, Note_off_c, 0, 65, 0
2, 319680, Note_off_c, 0, 60, 0
2, 319680, Note_off_c, 0, 57, 0
2, 319680, Note_off_c, 0, 53, 0
2, 319680, Note_off_c, 0, 48, 0
2, 319680, Note_off_c, 0, 41, 0
2, 319680, Note_on_c, 0, 43, 78
2, 319680, Note_on_c, 0, 50, 78
2, 319680, Note_on_c, 0, 55, 78
2, 319680, Note_on_c, 0, 59, 78
2, 319680, Note_on_c, 0, 62, 78
2, 319680, Note_on_c, 0, 67, 78
2, 320040, Note_off_c, 0, 67, 0
2, 320040, Note_off_c, 0, 62, 0
2, 320040, Note_off_c, 0, 59, 0
2, 320040, Note_off_c, 0, 55, 0
2, 320040, Note_off_c, 0, 50, 0
2, 320040, Note_off_c, 0, 43, 0
2, 320040, Note_on_c, 0, 43, 78
2, 320040, Note_on_c, 0, 50, 78
2, 320040, Note_on_c, 0, 55, 78
2, 320040, Note_on_c, 0, 59, 78
2, 320040, Note_on_c, 0, 62, 78
2, 320040, Note_on_c, 0, 67, 78
2, 320400, Note_off_c, 0, 67, 0
2, 320400, Note_off_c, 0, 62, 0
2, 320400, Note_off_c, 0, 59, 0
2, 320400, Note_off_c, 0, 55, 0
2, 320400, Note_off_c, 0, 50, 0
2, 320400, Note_off_c, 0, 43, 0
2, 320400, Note_on_c, 0, 43, 78
2, 320400, Note_on_c, 0, 50, 78
2, 320400, Note_on_c, 0, 55, 78
2, 320400, Note_on_c, 0, 59, 78
2, 320400, Note_on_c, 0, 62, 78
2, 320400, Note_on_c, 0, 67, 78
2, 320760, Note_off_c, 0, 67, 0
2, 320760, Note_off_c, 0, 62, 0
2, 320760, Note_off_c, 0, 59, 0
2, 320760, Note_off_c, 0, 55, 0
2, 320760, Note_off_c, 0, 50, 0
2, 320760, Note_off_c, 0, 43, 0
2, 320760, Note_on_c, 0, 43, 78
2, 320760, Note_on_c, 0, 50, 78
2, 320760, Note_on_c, 0, 55, 78
2, 320760, Note_on_c, 0, 59, 78
2, 320760, Note_on_c, 0, 62, 78
2, 320760, Note_on_c, 0, 67, 78
2, 321120, Note_off_c, 0, 67, 0
2, 321120, Note_off_c, 0, 62, 0
2, 321120, Note_off_c, 0, 59, 0
2, 321120, Note_off_c, 0, 55, 0
2, 321120, Note_off_c, 0, 50, 0
2, 321120, Note_off_c, 0, 43, 0
2, 321120, Note_on_c, 0, 43, 78
2, 321120, Note_on_c, 0, 50, 78
2, 321120, Note_on_c, 0, 55, 78
2, 321120, Note_on_c, 0, 59, 78
2, 321120, Note_on_c, 0, 62, 78
2, 321120, Note_on_c, 0, 67, 78
2, 321480, Note_off_c, 0, 67, 0
2, 321480, Note_off_c, 0, 62, 0
2, 321480, Note_off_c, 0, 59, 0
2, 321480, Note_off_c, 0, 55, 0
2, 321480, Note_off_c, 0, 50, 0
2, 321480, Note_off_c, 0, 43, 0
2, 321480, Note_on_c, 0, 43, 78
2, 321480, Note_on_c, 0, 50, 78
2, 321480, Note_on_c, 0, 55, 78
2, 321480, Note_on_c, 0, 59, 78
2, 321480, Note_on_c, 0, 62, 78
2, 321480, Note_on_c, 0, 67, 78
2, 321840, Note_off_c, 0, 67, 0
2, 321840, Note_off_c, 0, 62, 0
2, 321840, Note_off_c, 0, 59, 0
2, 321840, Note_off_c, 0, 55, 0
2, 321840, Note_off_c, 0, 50, 0
2, 321840, Note_off_c, 0, 43, 0
2, 321840, Note_on_c, 0, 43, 78
2, 321840, Note_on_c, 0, 50, 78
2, 321840, Note_on_c, 0, 55, 78
2, 321840, Note_on_c, 0, 59, 78
2, 321840, Note_on_c, 0, 62, 78
2, 321840, Note_on_c, 0, 67, 78
2, 322200, Note_off_c, 0, 67, 0
2, 322200, Note_off_c, 0, 62, 0
2, 322200, Note_off_c, 0, 59, 0
2, 322200, Note_off_c, 0, 55, 0
2, 322200, Note_off_c, 0, 50, 0
2, 322200, Note_off_c, 0, 43, 0
2, 322200, Note_on_c, 0, 43, 78
2, 322200, Note_on_c, 0, 50, 78
2, 322200, Note_on_c, 0, 55, 78
2, 322200, Note_on_c, 0, 59, 78
2, 322200, Note_on_c, 0, 62, 78
2, 322200, Note_on_c, 0, 67, 78
2, 322560, Note_off_c, 0, 67, 0
2, 322560, Note_off_c, 0, 62, 0
2, 322560, Note_off_c, 0, 59, 0
2, 322560, Note_off_c, 0, 55, 0
2, 322560, Note_off_c, 0, 50, 0
2, 322560, Note_off_c, 0, 43, 0
2, 322560, Note_on_c, 0, 43, 78
2, 322560, Note_on_c, 0, 50, 78
2, 322560, Note_on_c, 0, 55, 78
2, 322560, Note_on_c, 0, 59, 78
2, 322560, Note_on_c, 0, 62, 78
2, 322560, Note_on_c, 0, 67, 78
2, 322920, Note_off_c, 0, 67, 0
2, 322920, Note_off_c, 0, 62, 0
2, 322920, Note_off_c, 0, 59, 0
2, 322920, Note_off_c, 0, 55, 0
2, 322920, Note_off_c, 0, 50, 0
2, 322920, Note_off_c, 0, 43, 0
2, 322920, Note_on_c, 0, 43, 78
2, 322920, Note_on_c, 0, 50, 78
2, 322920, Note_on_c, 0, 55, 78
2, 322920, Note_on_c, 0, 59, 78
2, 322920, Note_on_c, 0, 62, 78
2, 322920, Note_on_c, 0, 67, 78
2, 323280, Note_off_c, 0, 67, 0
2, 323280, Note_off_c, 0, 62, 0
2, 323280, Note_off_c, 0, 59, 0
2, 323280, Note_off_c, 0, 55, 0
2, 323280, Note_off_c, 0, 50, 0
2, 323280, Note_off_c, 0, 43, 0
2, 323280, Note_on_c, 0, 43, 78
2, 323280, Note_on_c, 0, 50, 78
2, 323280, Note_on_c, 0, 55, 78
2, 323280, Note_on_c, 0, 59, 78
2, 323280, Note_on_c, 0, 62, 78
2, 323280, Note_on_c, 0, 67, 78
2, 323640, Note_off_c, 0, 67, 0
2, 323640, Note_off_c, 0, 62, 0
2, 323640, Note_off_c, 0, 59, 0
2, 323640, Note_off_c, 0, 55, 0
2, 323640, Note_off_c, 0, 50, 0
2, 323640, Note_off_c, 0, 43, 0
2, 323640, Note_on_c, 0, 43, 78
2, 323640, Note_on_c, 0, 50, 78
2, 323640, Note_on_c, 0, 55, 78
2, 323640, Note_on_c, 0, 59, 78
2, 323640, Note_on_c, 0, 62, 78
2, 323640, Note_on_c, 0, 67, 78
2, 324000, Note_off_c, 0, 67, 0
2, 324000, Note_off_c, 0, 62, 0
2, 324000, Note_off_c, 0, 59, 0
2, 324000, Note_off_c, 0, 55, 0
2, 324000, Note_off_c, 0, 50, 0
2, 324000, Note_off_c, 0, 43, 0
2, 324000, Note_on_c, 0, 46, 78
2, 324000, Note_on_c, 0, 53, 78
2, 324000, Note_on_c, 0, 58, 78
2, 324000, Note_on_c, 0, 62, 78
2, 324000, Note_on_c, 0, 65, 78
2, 324000, Note_on_c, 0, 70, 78
2, 324360, Note_off_c, 0, 70, 0
2, 324360, Note_off_c, 0, 65, 0
2, 324360, Note_off_c, 0, 62, 0
2, 324360, Note_off_c, 0, 58, 0
2, 324360, Note_off_c, 0, 53, 0
2, 324360, Note_off_c, 0, 46, 0
2, 324360, Note_on_c, 0, 46, 78
2, 324360, Note_on_c, 0, 53, 78
2, 324360, Note_on_c, 0, 58, 78
2, 324360, Note_on_c, 0, 62, 78
2, 324360, Note_on_c, 0, 65, 78
2, 324360, Note_on_c, 0, 70, 78
2, 324720, Note_off_c, 0, 70, 0
2, 324720, Note_off_c, 0, 65, 0
2, 324720, Note_off_c, 0, 62, 0
2, 324720, Note_off_c, 0, 58, 0
2, 324720, Note_off_c, 0, 53, 0
2, 324720, Note_off_c, 0, 46, 0
2, 324720, Note_on_c, 0, 46, 78
2, 324720, Note_on_c, 0, 53, 78
2, 324720, Note_on_c, 0, 58, 78
2, 324720, Note_on_c, 0, 62, 78
2, 324720, Note_on_c, 0, 65, 78
2, 324720, Note_on_c, 0, 70, 78
2, 325080, Note_off_c, 0, 70, 0
2, 325080, Note_off_c, 0, 65, 0
2, 325080, Note_off_c, 0, 62, 0
2, 325080, Note_off_c, 0, 58, 0
2, 325080, Note_off_c, 0, 53, 0
2, 325080, Note_off_c, 0, 46, 0
2, 325080, Note_on_c, 0, 46, 78
2, 325080, Note_on_c, 0, 53, 78
2, 325080, Note_on_c, 0, 58, 78
2, 325080, Note_on_c, 0, 62, 78
2, 325080, Note_on_c, 0, 65, 78
2, 325080, Note_on_c, 0, 70, 78
2, 325440, Note_off_c, 0, 70, 0
2, 325440, Note_off_c, 0, 65, 0
2, 325440, Note_off_c, 0, 62, 0
2, 325440, Note_off_c, 0, 58, 0
2, 325440, Note_off_c, 0, 53, 0
2, 325440, Note_off_c, 0, 46, 0
2, 325440, End_track
3, 0, Start_track
3, 0, Control_c, 2, 7, 127
3, 0, Program_c, 2, 25
3, 0, Control_c, 2, 101, 0
3, 0, Control_c, 2, 100, 0
3, 0, Control_c, 2, 6, 24
3, 0, Control_c, 3, 7, 127
3, 0, Program_c, 3, 25
3, 0, Control_c, 3, 101, 0
3, 0, Control_c, 3, 100, 0
3, 0, Control_c, 3, 6, 24
3, 40320, Note_on_c, 2, 45, 65
3, 40320, Note_on_c, 2, 52, 65
3, 40320, Note_on_c, 2, 57, 65
3, 40320, Note_on_c, 2, 61, 65
3, 40320, Note_on_c, 2, 64, 65
3, 40320, Note_on_c, 2, 69, 65
3, 40680, Note_off_c, 2, 69, 0
3, 40680, Note_off_c, 2, 64, 0
3, 40680, Note_off_c, 2, 61, 0
3, 40680, Note_off_c, 2, 57, 0
3, 40680, Note_off_c, 2, 52, 0
3, 40680, Note_off_c, 2, 45, 0
3, 40680, Note_on_c, 2, 45, 65
3, 40680, Note_on_c, 2, 52, 65
3, 40680, Note_on_c, 2, 57, 65
3, 40680, Note_on_c, 2, 61, 65
3, 40680, Note_on_c, 2, 64, 65
3, 40680, Note_on_c, 2, 69, 65
3, 41040, Note_off_c, 2, 69, 0
3, 41040, Note_off_c, 2, 64, 0
3, 41040, Note_off_c, 2, 61, 0
3, 41040, Note_off_c, 2, 57, 0
3, 41040, Note_off_c, 2, 52, 0
3, 41040, Note_off_c, 2, 45, 0
3, 41040, Note_on_c, 2, 45, 65
3, 41040, Note_on_c, 2, 52, 65
3, 41040, Note_on_c, 2, 57, 65
3, 41040, Note_on_c, 2, 61, 65
3, 41040, Note_on_c, 2, 64, 65
3, 41040, Note_on_c, 2, 69, 65
3, 41400, Note_off_c, 2, 69, 0
3, 41400, Note_off_c, 2, 64, 0
3, 41400, Note_off_c, 2, 61, 0
3, 41400, Note_off_c, 2, 57, 0
3, 41400, Note_off_c, 2, 52, 0
3, 41400, Note_off_c, 2, 45, 0
3, 41400, Note_on_c, 2, 45, 65
3, 41400, Note_on_c, 2, 52, 65
3, 41400, Note_on_c, 2, 57, 65
3, 41400, Note_on_c, 2, 61, 65
3, 41400, Note_on_c, 2, 64, 65
3, 41400, Note_on_c, 2, 69, 65
3, 41760, Note_off_c, 2, 69, 0
3, 41760, Note_off_c, 2, 64, 0
3, 41760, Note_off_c, 2, 61, 0
3, 41760, Note_off_c, 2, 57, 0
3, 41760, Note_off_c, 2, 52, 0
3, 41760, Note_off_c, 2, 45, 0
3, 41760, Note_on_c, 2, 45, 65
3, 41760, Note_on_c, 2, 52, 65
3, 41760, Note_on_c, 2, 57, 65
3, 41760, Note_on_c, 2, 61, 65
3, 41760, Note_on_c, 2, 64, 65
3, 41760, Note_on_c, 2, 69, 65
3, 42120, Note_off_c, 2, 69, 0
3, 42120, Note_off_c, 2, 64, 0
3, 42120, Note_off_c, 2, 61, 0
3, 42120, Note_off_c, 2, 57, 0
3, 42120, Note_off_c, 2, 52, 0
3, 42120, Note_off_c, 2, 45, 0
3, 42120, Note_on_c, 2, 45, 65
3, 42120, Note_on_c, 2, 52, 65
3, 42120, Note_on_c, 2, 57, 65
3, 42120, Note_on_c, 2, 61, 65
3, 42120, Note_on_c, 2, 64, 65
3, 42120, Note_on_c, 2, 69, 65
3, 42480, Note_off_c, 2, 69, 0
3, 42480, Note_off_c, 2, 64, 0
3, 42480, Note_off_c, 2, 61, 0
3, 42480, Note_off_c, 2, 57, 0
3, 42480, Note_off_c, 2, 52, 0
3, 42480, Note_off_c, 2, 45, 0
3, 42480, Note_on_c, 2, 45, 65
3, 42480, Note_on_c, 2, 52, 65
3, 42480, Note_on_c, 2, 57, 65
3, 42480, Note_on_c, 2, 61, 65
3, 42480, Note_on_c, 2, 64, 65
3, 42480, Note_on_c, 2, 69, 65
3, 42840, Note_off_c, 2, 69, 0
3, 42840, Note_off_c, 2, 64, 0
3, 42840, Note_off_c, 2, 61, 0
3, 42840, Note_off_c, 2, 57, 0
3, 42840, Note_off_c, 2, 52, 0
3, 42840, Note_off_c, 2, 45, 0
3, 42840, Note_on_c, 2, 45, 65
3, 42840, Note_on_c, 2, 52, 65
3, 42840, Note_on_c, 2, 57, 65
3, 42840, Note_on_c, 2, 61, 65
3, 42840, Note_on_c, 2, 64, 65
3, 42840, Note_on_c, 2, 69, 65
3, 43200, Note_off_c, 2, 69, 0
3, 43200, Note_off_c, 2, 64, 0
3, 43200, Note_off_c, 2, 61, 0
3, 43200, Note_off_c, 2, 57, 0
3, 43200, Note_off_c, 2, 52, 0
3, 43200, Note_off_c, 2, 45, 0
3, 43200, Note_on_c, 2, 45, 65
3, 43200, Note_on_c, 2, 52, 65
3, 43200, Note_on_c, 2, 57, 65
3, 43200, Note_on_c, 2, 61, 65
3, 43200, Note_on_c, 2, 64, 65
3, 43200, Note_on_c, 2, 69, 65
3, 43560, Note_off_c, 2, 69, 0
3, 43560, Note_off_c, 2, 64, 0
3, 43560, Note_off_c, 2, 61, 0
3, 43560, Note_off_c, 2, 57, 0
3, 43560, Note_off_c, 2, 52, 0
3, 43560, Note_off_c, 2, 45, 0
3, 43560, Note_on_c, 2, 45, 65
3, 43560, Note_on_c, 2, 52, 65
3, 43560, Note_on_c, 2, 57, 65
3, 43560, Note_on_c, 2, 61, 65
3, 43560, Note_on_c, 2, 64, 65
3, 43560, Note_on_c, 2, 69, 65
3, 43920, Note_off_c, 2, 69, 0
3, 43920, Note_off_c, 2, 64, 0
3, 43920, Note_off_c, 2, 61, 0
3, 43920, Note_off_c, 2, 57, 0
3, 43920, Note_off_c, 2, 52, 0
3, 43920, Note_off_c, 2, 45, 0
3, 43920, Note_on_c, 2, 45, 65
3, 43920, Note_on_c, 2, 52, 65
3, 43920, Note_on_c, 2, 57, 65
3, 43920, Note_on_c, 2, 61, 65
3, 43920, Note_on_c, 2, 64, 65
3, 43920, Note_on_c, 2, 69, 65
3, 44280, Note_off_c, 2, 69, 0
3, 44280, Note_off_c, 2, 64, 0
3, 44280, Note_off_c, 2, 61, 0
3, 44280, Note_off_c, 2, 57, 0
3, 44280, Note_off_c, 2, 52, 0
3, 44280, Note_off_c, 2, 45, 0
3, 44280, Note_on_c, 2, 45, 65
3, 44280, Note_on_c, 2, 52, 65
3, 44280, Note_on_c, 2, 57, 65
3, 44280, Note_on_c, 2, 61, 65
3, 44280, Note_on_c, 2, 64, 65
3, 44280, Note_on_c, 2, 69, 65
3, 44640, Note_off_c, 2, 69, 0
3, 44640, Note_off_c, 2, 64, 0
3, 44640, Note_off_c, 2, 61, 0
3, 44640, Note_off_c, 2, 57, 0
3, 44640, Note_off_c, 2, 52, 0
3, 44640, Note_off_c, 2, 45, 0
3, 44640, Note_on_c, 2, 45, 65
3, 44640, Note_on_c, 2, 52, 65
3, 44640, Note_on_c, 2, 57, 65
3, 44640, Note_on_c, 2, 61, 65
3, 44640, Note_on_c, 2, 64, 65
3, 44640, Note_on_c, 2, 69, 65
3, 45000, Note_off_c, 2, 69, 0
3, 45000, Note_off_c, 2, 64, 0
3, 45000, Note_off_c, 2, 61, 0
3, 45000, Note_off_c, 2, 57, 0
3, 45000, Note_off_c, 2, 52, 0
3, 45000, Note_off_c, 2, 45, 0
3, 45000, Note_on_c, 2, 45, 65
3, 45000, Note_on_c, 2, 52, 65
3, 45000, Note_on_c, 2, 57, 65
3, 45000, Note_on_c, 2, 61, 65
3, 45000, Note_on_c, 2, 64, 65
3, 45000, Note_on_c, 2, 69, 65
3, 45360, Note_off_c, 2, 69, 0
3, 45360, Note_off_c, 2, 64, 0
3, 45360, Note_off_c, 2, 61, 0
3, 45360, Note_off_c, 2, 57, 0
3, 45360, Note_off_c, 2, 52, 0
3, 45360, Note_off_c, 2, 45, 0
3, 45360, Note_on_c, 2, 45, 65
3, 45360, Note_on_c, 2, 52, 65
3, 45360, Note_on_c, 2, 57, 65
3, 45360, Note_on_c, 2, 61, 65
3, 45360, Note_on_c, 2, 64, 65
3, 45360, Note_on_c, 2, 69, 65
3, 45720, Note_off_c, 2, 69, 0
3, 45720, Note_off_c, 2, 64, 0
3, 45720, Note_off_c, 2, 61, 0
3, 45720, Note_off_c, 2, 57, 0
3, 45720, Note_off_c, 2, 52, 0
3, 45720, Note_off_c, 2, 45, 0
3, 45720, Note_on_c, 2, 45, 65
3, 45720, Note_on_c, 2, 52, 65
3, 45720, Note_on_c, 2, 57, 65
3, 45720, Note_on_c, 2, 61, 65
3, 45720, Note_on_c, 2, 64, 65
3, 45720, Note_on_c, 2, 69, 65
3, 46080, Note_off_c, 2, 69, 0
3, 46080, Note_off_c, 2, 64, 0
3, 46080, Note_off_c, 2, 61, 0
3, 46080, Note_off_c, 2, 57, 0
3, 46080, Note_off_c, 2, 52, 0
3, 46080, Note_off_c, 2, 45, 0
3, 46080, Note_on_c, 2, 48, 65
3, 46080, Note_on_c, 2, 55, 65
3, 46080, Note_on_c, 2, 60, 65
3, 46080, Note_on_c, 2, 64, 65
3, 46080, Note_on_c, 2, 67, 65
3, 46080, Note_on_c, 2, 72, 65
3, 46440, Note_off_c, 2, 72, 0
3, 46440, Note_off_c, 2, 67, 0
3, 46440, Note_off_c, 2, 64, 0
3, 46440, Note_off_c, 2, 60, 0
3, 46440, Note_off_c, 2, 55, 0
3, 46440, Note_off_c, 2, 48, 0
3, 46440, Note_on_c, 2, 48, 65
3, 46440, Note_on_c, 2, 55, 65
3, 46440, Note_on_c, 2, 60, 65
3, 46440, Note_on_c, 2, 64, 65
3, 46440, Note_on_c, 2, 67, 65
3, 46440, Note_on_c, 2, 72, 65
3, 46800, Note_off_c, 2, 72, 0
3, 46800, Note_off_c, 2, 67, 0
3, 46800, Note_off_c, 2, 64, 0
3, 46800, Note_off_c, 2, 60, 0
3, 46800, Note_off_c, 2, 55, 0
3, 46800, Note_off_c, 2, 48, 0
3, 46800, Note_on_c, 2, 48, 65
3, 46800, Note_on_c, 2, 55, 65
3, 46800, Note_on_c, 2, 60, 65
3, 46800, Note_on_c, 2, 64, 65
3, 46800, Note_on_c, 2, 67, 65
3, 46800, Note_on_c, 2, 72, 65
3, 47160, Note_off_c, 2, 72, 0
3, 47160, Note_off_c, 2, 67, 0
3, 47160, Note_off_c, 2, 64, 0
3, 47160, Note_off_c, 2, 60, 0
3, 47160, Note_off_c, 2, 55, 0
3, 47160, Note_off_c, 2, 48, 0
3, 47160, Note_on_c, 2, 48, 65
3, 47160, Note_on_c, 2, 55, 65
3, 47160, Note_on_c, 2, 60, 65
3, 47160, Note_on_c, 2, 64, 65
3, 47160, Note_on_c, 2, 67, 65
3, 47160, Note_on_c, 2, 72, 65
3, 47520, Note_off_c, 2, 72, 0
3, 47520, Note_off_c, 2, 67, 0
3, 47520, Note_off_c, 2, 64, 0
3, 47520, Note_off_c, 2, 60, 0
3, 47520, Note_off_c, 2, 55, 0
3, 47520, Note_off_c, 2, 48, 0
3, 47520, Note_on_c, 2, 48, 65
3, 47520, Note_on_c, 2, 55, 65
3, 47520, Note_on_c, 2, 60, 65
3, 47520, Note_on_c, 2, 64, 65
3, 47520, Note_on_c, 2, 67, 65
3, 47520, Note_on_c, 2, 72, 65
3, 47880, Note_off_c, 2, 72, 0
3, 47880, Note_off_c, 2, 67, 0
3, 47880, Note_off_c, 2, 64, 0
3, 47880, Note_off_c, 2, 60, 0
3, 47880, Note_off_c, 2, 55, 0
3, 47880, Note_off_c, 2, 48, 0
3, 47880, Note_on_c, 2, 48, 65
3, 47880, Note_on_c, 2, 55, 65
3, 47880, Note_on_c, 2, 60, 65
3, 47880, Note_on_c, 2, 64, 65
3, 47880, Note_on_c, 2, 67, 65
3, 47880, Note_on_c, 2, 72, 65
3, 48240, Note_off_c, 2, 72, 0
3, 48240, Note_off_c, 2, 67, 0
3, 48240, Note_off_c, 2, 64, 0
3, 48240, Note_off_c, 2, 60, 0
3, 48240, Note_off_c, 2, 55, 0
3, 48240, Note_off_c, 2, 48, 0
3, 48240, Note_on_c, 2, 48, 65
3, 48240, Note_on_c, 2, 55, 65
3, 48240, Note_on_c, 2, 60, 65
3, 48240, Note_on_c, 2, 64, 65
3, 48240, Note_on_c, 2, 67, 65
3, 48240, Note_on_c, 2, 72, 65
3, 48600, Note_off_c, 2, 72, 0
3, 48600, Note_off_c, 2, 67, 0
3, 48600, Note_off_c, 2, 64, 0
3, 48600, Note_off_c, 2, 60, 0
3, 48600, Note_off_c, 2, 55, 0
3, 48600, Note_off_c, 2, 48, 0
3, 48600, Note_on_c, 2, 48, 65
3, 48600, Note_on_c, 2, 55, 65
3, 48600, Note_on_c, 2, 60, 65
3, 48600, Note_on_c, 2, 64, 65
3, 48600, Note_on_c, 2, 67, 65
3, 48600, Note_on_c, 2, 72, 65
3, 48960, Note_off_c, 2, 72, 0
3, 48960, Note_off_c, 2, 67, 0
3, 48960, Note_off_c, 2, 64, 0
3, 48960, Note_off_c, 2, 60, 0
3, 48960, Note_off_c, 2, 55, 0
3, 48960, Note_off_c, 2, 48, 0
3, 48960, Note_on_c, 2, 48, 65
3, 48960, Note_on_c, 2, 55, 65
3, 48960, Note_on_c, 2, 60, 65
3, 48960, Note_on_c, 2, 64, 65
3, 48960, Note_on_c, 2, 67, 65
3, 48960, Note_on_c, 2, 72, 65
3, 49320, Note_off_c, 2, 72, 0
3, 49320, Note_off_c, 2, 67, 0
3, 49320, Note_off_c, 2, 64, 0
3, 49320, Note_off_c, 2, 60, 0
3, 49320, Note_off_c, 2, 55, 0
3, 49320, Note_off_c, 2, 48, 0
3, 49320, Note_on_c, 2, 48, 65
3, 49320, Note_on_c, 2, 55, 65
3, 49320, Note_on_c, 2, 60, 65
3, 49320, Note_on_c, 2, 64, 65
3, 49320, Note_on_c, 2, 67, 65
3, 49320, Note_on_c, 2, 72, 65
3, 49680, Note_off_c, 2, 72, 0
3, 49680, Note_off_c, 2, 67, 0
3, 49680, Note_off_c, 2, 64, 0
3, 49680, Note_off_c, 2, 60, 0
3, 49680, Note_off_c, 2, 55, 0
3, 49680, Note_off_c, 2, 48, 0
3, 49680, Note_on_c, 2, 48, 65
3, 49680, Note_on_c, 2, 55, 65
3, 49680, Note_on_c, 2, 60, 65
3, 49680, Note_on_c, 2, 64, 65
3, 49680, Note_on_c, 2, 67, 65
3, 49680, Note_on_c, 2, 72, 65
3, 50040, Note_off_c, 2, 72, 0
3, 50040, Note_off_c, 2, 67, 0
3, 50040, Note_off_c, 2, 64, 0
3, 50040, Note_off_c, 2, 60, 0
3, 50040, Note_off_c, 2, 55, 0
3, 50040, Note_off_c, 2, 48, 0
3, 50040, Note_on_c, 2, 48, 65
3, 50040, Note_on_c, 2, 55, 65
3, 50040, Note_on_c, 2, 60, 65
3, 50040, Note_on_c, 2, 64, 65
3, 50040, Note_on_c, 2, 67, 65
3, 50040, Note_on_c, 2, 72, 65
3, 50400, Note_off_c, 2, 72, 0
3, 50400, Note_off_c, 2, 67, 0
3, 50400, Note_off_c, 2, 64, 0
3, 50400, Note_off_c, 2, 60, 0
3, 50400, Note_off_c, 2, 55, 0
3, 50400, Note_off_c, 2, 48, 0
3, 50400, Note_on_c, 2, 48, 65
3, 50400, Note_on_c, 2, 55, 65
3, 50400, Note_on_c, 2, 60, 65
3, 50400, Note_on_c, 2, 64, 65
3, 50400, Note_on_c, 2, 67, 65
3, 50400, Note_on_c, 2, 72, 65
3, 50760, Note_off_c, 2, 72, 0
3, 50760, Note_off_c, 2, 67, 0
3, 50760, Note_off_c, 2, 64, 0
3, 50760, Note_off_c, 2, 60, 0
3, 50760, Note_off_c, 2, 55, 0
3, 50760, Note_off_c, 2, 48, 0
3, 50760, Note_on_c, 2, 48, 65
3, 50760, Note_on_c, 2, 55, 65
3, 50760, Note_on_c, 2, 60, 65
3, 50760, Note_on_c, 2, 64, 65
3, 50760, Note_on_c, 2, 67, 65
3, 50760, Note_on_c, 2, 72, 65
3, 51120, Note_off_c, 2, 72, 0
3, 51120, Note_off_c, 2, 67, 0
3, 51120, Note_off_c, 2, 64, 0
3, 51120, Note_off_c, 2, 60, 0
3, 51120, Note_off_c, 2, 55, 0
3, 51120, Note_off_c, 2, 48, 0
3, 51120, Note_on_c, 2, 48, 65
3, 51120, Note_on_c, 2, 55, 65
3, 51120, Note_on_c, 2, 60, 65
3, 51120, Note_on_c, 2, 64, 65
3, 51120, Note_on_c, 2, 67, 65
3, 51120, Note_on_c, 2, 72, 65
3, 51480, Note_off_c, 2, 72, 0
3, 51480, Note_off_c, 2, 67, 0
3, 51480, Note_off_c, 2, 64, 0
3, 51480, Note_off_c, 2, 60, 0
3, 51480, Note_off_c, 2, 55, 0
3, 51480, Note_off_c, 2, 48, 0
3, 51480, Note_on_c, 2, 48, 65
3, 51480, Note_on_c, 2, 55, 65
3, 51480, Note_on_c, 2, 60, 65
3, 51480, Note_on_c, 2, 64, 65
3, 51480, Note_on_c, 2, 67, 65
3, 51480, Note_on_c, 2, 72, 65
3, 51840, Note_off_c, 2, 72, 0
3, 51840, Note_off_c, 2, 67, 0
3, 51840, Note_off_c, 2, 64, 0
3, 51840, Note_off_c, 2, 60, 0
3, 51840, Note_off_c, 2, 55, 0
3, 51840, Note_off_c, 2, 48, 0
3, 51840, Note_on_c, 2, 41, 65
3, 51840, Note_on_c, 2, 48, 65
3, 51840, Note_on_c, 2, 53, 65
3, 51840, Note_on_c, 2, 57, 65
3, 51840, Note_on_c, 2, 60, 65
3, 51840, Note_on_c, 2, 65, 65
3, 52200, Note_off_c, 2, 65, 0
3, 52200, Note_off_c, 2, 60, 0
3, 52200, Note_off_c, 2, 57, 0
3, 52200, Note_off_c, 2, 53, 0
3, 52200, Note_off_c, 2, 48, 0
3, 52200, Note_off_c, 2, 41, 0
3, 52200, Note_on_c, 2, 41, 65
3, 52200, Note_on_c, 2, 48, 65
3, 52200, Note_on_c, 2, 53, 65
3, 52200, Note_on_c, 2, 57, 65
3, 52200, Note_on_c, 2, 60, 65
3, 52200, Note_on_c, 2, 65, 65
3, 52560, Note_off_c, 2, 65, 0
3, 52560, Note_off_c, 2, 60, 0
3, 52560, Note_off_c, 2, 57, 0
3, 52560, Note_off_c, 2, 53, 0
3, 52560, Note_off_c, 2, 48, 0
3, 52560, Note_off_c, 2, 41, 0
3, 52560, Note_on_c, 2, 41, 65
3, 52560, Note_on_c, 2, 48, 65
3, 52560, Note_on_c, 2, 53, 65
3, 52560, Note_on_c, 2, 57, 65
3, 52560, Note_on_c, 2, 60, 65
3, 52560, Note_on_c, 2, 65, 65
3, 52920, Note_off_c, 2, 65, 0
3, 52920, Note_off_c, 2, 60, 0
3, 52920, Note_off_c, 2, 57, 0
3, 52920, Note_off_c, 2, 53, 0
3, 52920, Note_off_c, 2, 48, 0
3, 52920, Note_off_c, 2, 41, 0
3, 52920, Note_on_c, 2, 41, 65
3, 52920, Note_on_c, 2, 48, 65
3, 52920, Note_on_c, 2, 53, 65
3, 52920, Note_on_c, 2, 57, 65
3, 52920, Note_on_c, 2, 60, 65
3, 52920, Note_on_c, 2, 65, 65
3, 53280, Note_off_c, 2, 65, 0
3, 53280, Note_off_c, 2, 60, 0
3, 53280, Note_off_c, 2, 57, 0
3, 53280, Note_off_c, 2, 53, 0
3, 53280, Note_off_c, 2, 48, 0
3, 53280, Note_off_c, 2, 41, 0
3, 53280, Note_on_c, 2, 41, 65
3, 53280, Note_on_c, 2, 48, 65
3, 53280, Note_on_c, 2, 53, 65
3, 53280, Note_on_c, 2, 57, 65
3, 53280, Note_on_c, 2, 60, 65
3, 53280, Note_on_c, 2, 65, 65
3, 53640, Note_off_c, 2, 65, 0
3, 53640, Note_off_c, 2, 60, 0
3, 53640, Note_off_c, 2, 57, 0
3, 53640, Note_off_c, 2, 53, 0
3, 53640, Note_off_c, 2, 48, 0
3, 53640, Note_off_c, 2, 41, 0
3, 53640, Note_on_c, 2, 41, 65
3, 53640, Note_on_c, 2, 48, 65
3, 53640, Note_on_c, 2, 53, 65
3, 53640, Note_on_c, 2, 57, 65
3, 53640, Note_on_c, 2, 60, 65
3, 53640, Note_on_c, 2, 65, 65
3, 54000, Note_off_c, 2, 65, 0
3, 54000, Note_off_c, 2, 60, 0
3, 54000, Note_off_c, 2, 57, 0
3, 54000, Note_off_c, 2, 53, 0
3, 54000, Note_off_c, 2, 48, 0
3, 54000, Note_off_c, 2, 41, 0
3, 54000, Note_on_c, 2, 41, 65
3, 54000, Note_on_c, 2, 48, 65
3, 54000, Note_on_c, 2, 53, 65
3, 54000, Note_on_c, 2, 57, 65
3, 54000, Note_on_c, 2, 60, 65
3, 54000, Note_on_c, 2, 65, 65
3, 54360, Note_off_c, 2, 65, 0
3, 54360, Note_off_c, 2, 60, 0
3, 54360, Note_off_c, 2, 57, 0
3, 54360, Note_off_c, 2, 53, 0
3, 54360, Note_off_c, 2, 48, 0
3, 54360, Note_off_c, 2, 41, 0
3, 54360, Note_on_c, 2, 41, 65
3, 54360, Note_on_c, 2, 48, 65
3, 54360, Note_on_c, 2, 53, 65
3, 54360, Note_on_c, 2, 57, 65
3, 54360, Note_on_c, 2, 60, 65
3, 54360, Note_on_c, 2, 65, 65
3, 54720, Note_off_c, 2, 65, 0
3, 54720, Note_off_c, 2, 60, 0
3, 54720, Note_off_c, 2, 57, 0
3, 54720, Note_off_c, 2, 53, 0
3, 54720, Note_off_c, 2, 48, 0
3, 54720, Note_off_c, 2, 41, 0
3, 54720, Note_on_c, 2, 41, 65
3, 54720, Note_on_c, 2, 48, 65
3, 54720, Note_on_c, 2, 53, 65
3, 54720, Note_on_c, 2, 57, 65
3, 54720, Note_on_c, 2, 60, 65
3, 54720, Note_on_c, 2, 65, 65
3, 55080, Note_off_c, 2, 65, 0
3, 55080, Note_off_c, 2, 60, 0
3, 55080, Note_off_c, 2, 57, 0
3, 55080, Note_off_c, 2, 53, 0
3, 55080, Note_off_c, 2, 48, 0
3, 55080, Note_off_c, 2, 41, 0
3, 55080, Note_on_c, 2, 41, 65
3, 55080, Note_on_c, 2, 48, 65
3, 55080, Note_on_c, 2, 53, 65
3, 55080, Note_on_c, 2, 57, 65
3, 55080, Note_on_c, 2, 60, 65
3, 55080, Note_on_c, 2, 65, 65
3, 55440, Note_off_c, 2, 65, 0
3, 55440, Note_off_c, 2, 60, 0
3, 55440, Note_off_c, 2, 57, 0
3, 55440, Note_off_c, 2, 53, 0
3, 55440, Note_off_c, 2, 48, 0
3, 55440, Note_off_c, 2, 41, 0
3, 55440, Note_on_c, 2, 41, 65
3, 55440, Note_on_c, 2, 48, 65
3, 55440, Note_on_c, 2, 53, 65
3, 55440, Note_on_c, 2, 57, 65
3, 55440, Note_on_c, 2, 60, 65
3, 55440, Note_on_c, 2, 65, 65
3, 55800, Note_off_c, 2, 65, 0
3, 55800, Note_off_c, 2, 60, 0
3, 55800, Note_off_c, 2, 57, 0
3, 55800, Note_off_c, 2, 53, 0
3, 55800, Note_off_c, 2, 48, 0
3, 55800, Note_off_c, 2, 41, 0
3, 55800, Note_on_c, 2, 41, 65
3, 55800, Note_on_c, 2, 48, 65
3, 55800, Note_on_c, 2, 53, 65
3, 55800, Note_on_c, 2, 57, 65
3, 55800, Note_on_c, 2, 60, 65
3, 55800, Note_on_c, 2, 65, 65
3, 56160, Note_off_c, 2, 65, 0
3, 56160, Note_off_c, 2, 60, 0
3, 56160, Note_off_c, 2, 57, 0
3, 56160, Note_off_c, 2, 53, 0
3, 56160, Note_off_c, 2, 48, 0
3, 56160, Note_off_c, 2, 41, 0
3, 56160, Note_on_c, 2, 41, 65
3, 56160, Note_on_c, 2, 48, 65
3, 56160, Note_on_c, 2, 53, 65
3, 56160, Note_on_c, 2, 57, 65
3, 56160, Note_on_c, 2, 60, 65
3, 56160, Note_on_c, 2, 65, 65
3, 56520, Note_off_c, 2, 65, 0
3, 56520, Note_off_c, 2, 60, 0
3, 56520, Note_off_c, 2, 57, 0
3, 56520, Note_off_c, 2, 53, 0
3, 56520, Note_off_c, 2, 48, 0
3, 56520, Note_off_c, 2, 41, 0
3, 56520, Note_on_c, 2, 41, 65
3, 56520, Note_on_c, 2, 48, 65
3, 56520, Note_on_c, 2, 53, 65
3, 56520, Note_on_c, 2, 57, 65
3, 56520, Note_on_c, 2, 60, 65
3, 56520, Note_on_c, 2, 65, 65
3, 56880, Note_off_c, 2, 65, 0
3, 56880, Note_off_c, 2, 60, 0
3, 56880, Note_off_c, 2, 57, 0
3, 56880, Note_off_c, 2, 53, 0
3, 56880, Note_off_c, 2, 48, 0
3, 56880, Note_off_c, 2, 41, 0
3, 56880, Note_on_c, 2, 41, 65
3, 56880, Note_on_c, 2, 48, 65
3, 56880, Note_on_c, 2, 53, 65
3, 56880, Note_on_c, 2, 57, 65
3, 56880, Note_on_c, 2, 60, 65
3, 56880, Note_on_c, 2, 65, 65
3, 57240, Note_off_c, 2, 65, 0
3, 57240, Note_off_c, 2, 60, 0
3, 57240, Note_off_c, 2, 57, 0
3, 57240, Note_off_c, 2, 53, 0
3, 57240, Note_off_c, 2, 48, 0
3, 57240, Note_off_c, 2, 41, 0
3, 57240, Note_on_c, 2, 41, 65
3, 57240, Note_on_c, 2, 48, 65
3, 57240, Note_on_c, 2, 53, 65
3, 57240, Note_on_c, 2, 57, 65
3, 57240, Note_on_c, 2, 60, 65
3, 57240, Note_on_c, 2, 65, 65
3, 57600, Note_off_c, 2, 65, 0
3, 57600, Note_off_c, 2, 60, 0
3, 57600, Note_off_c, 2, 57, 0
3, 57600, Note_off_c, 2, 53, 0
3, 57600, Note_off_c, 2, 48, 0
3, 57600, Note_off_c, 2, 41, 0
3, 57600, Note_on_c, 2, 43, 65
3, 57600, Note_on_c, 2, 50, 65
3, 57600, Note_on_c, 2, 55, 65
3, 57600, Note_on_c, 2, 59, 65
3, 57600, Note_on_c, 2, 62, 65
3, 57600, Note_on_c, 2, 67, 65
3, 57960, Note_off_c, 2, 67, 0
3, 57960, Note_off_c, 2, 62, 0
3, 57960, Note_off_c, 2, 59, 0
3, 57960, Note_off_c, 2, 55, 0
3, 57960, Note_off_c, 2, 50, 0
3, 57960, Note_off_c, 2, 43, 0
3, 57960, Note_on_c, 2, 43, 65
3, 57960, Note_on_c, 2, 50, 65
3, 57960, Note_on_c, 2, 55, 65
3, 57960, Note_on_c, 2, 59, 65
3, 57960, Note_on_c, 2, 62, 65
3, 57960, Note_on_c, 2, 67, 65
3, 58320, Note_off_c, 2, 67, 0
3, 58320, Note_off_c, 2, 62, 0
3, 58320, Note_off_c, 2, 59, 0
3, 58320, Note_off_c, 2, 55, 0
3, 58320, Note_off_c, 2, 50, 0
3, 58320, Note_off_c, 2, 43, 0
3, 58320, Note_on_c, 2, 43, 65
3, 58320, Note_on_c, 2, 50, 65
3, 58320, Note_on_c, 2, 55, 65
3, 58320, Note_on_c, 2, 59, 65
3, 58320, Note_on_c, 2, 62, 65
3, 58320, Note_on_c, 2, 67, 65
3, 58680, Note_off_c, 2, 67, 0
3, 58680, Note_off_c, 2, 62, 0
3, 58680, Note_off_c, 2, 59, 0
3, 58680, Note_off_c, 2, 55, 0
3, 58680, Note_off_c, 2, 50, 0
3, 58680, Note_off_c, 2, 43, 0
3, 58680, Note_on_c, 2, 43, 65
3, 58680, Note_on_c, 2, 50, 65
3, 58680, Note_on_c, 2, 55, 65
3, 58680, Note_on_c, 2, 59, 65
3, 58680, Note_on_c, 2, 62, 65
3, 58680, Note_on_c, 2, 67, 65
3, 59040, Note_off_c, 2, 67, 0
3, 59040, Note_off_c, 2, 62, 0
3, 59040, Note_off_c, 2, 59, 0
3, 59040, Note_off_c, 2, 55, 0
3, 59040, Note_off_c, 2, 50, 0
3, 59040, Note_off_c, 2, 43, 0
3, 59040, Note_on_c, 2, 43, 65
3, 59040, Note_on_c, 2, 50, 65
3, 59040, Note_on_c, 2, 55, 65
3, 59040, Note_on_c, 2, 59, 65
3, 59040, Note_on_c, 2, 62, 65
3, 59040, Note_on_c, 2, 67, 65
3, 59400, Note_off_c, 2, 67, 0
3, 59400, Note_off_c, 2, 62, 0
3, 59400, Note_off_c, 2, 59, 0
3, 59400, Note_off_c, 2, 55, 0
3, 59400, Note_off_c, 2, 50, 0
3, 59400, Note_off_c, 2, 43, 0
3, 59400, Note_on_c, 2, 43, 65
3, 59400, Note_on_c, 2, 50, 65
3, 59400, Note_on_c, 2, 55, 65
3, 59400, Note_on_c, 2, 59, 65
3, 59400, Note_on_c, 2, 62, 65
3, 59400, Note_on_c, 2, 67, 65
3, 59760, Note_off_c, 2, 67, 0
3, 59760, Note_off_c, 2, 62, 0
3, 59760, Note_off_c, 2, 59, 0
3, 59760, Note_off_c, 2, 55, 0
3, 59760, Note_off_c, 2, 50, 0
3, 59760, Note_off_c, 2, 43, 0
3, 59760, Note_on_c, 2, 43, 65
3, 59760, Note_on_c, 2, 50, 65
3, 59760, Note_on_c, 2, 55, 65
3, 59760, Note_on_c, 2, 59, 65
3, 59760, Note_on_c, 2, 62, 65
3, 59760, Note_on_c, 2, 67, 65
3, 60120, Note_off_c, 2, 67, 0
3, 60120, Note_off_c, 2, 62, 0
3, 60120, Note_off_c, 2, 59, 0
3, 60120, Note_off_c, 2, 55, 0
3, 60120, Note_off_c, 2, 50, 0
3, 60120, Note_off_c, 2, 43, 0
3, 60120, Note_on_c, 2, 43, 65
3, 60120, Note_on_c, 2, 50, 65
3, 60120, Note_on_c, 2, 55, 65
3, 60120, Note_on_c, 2, 59, 65
3, 60120, Note_on_c, 2, 62, 65
3, 60120, Note_on_c, 2, 67, 65
3, 60480, Note_off_c, 2, 67, 0
3, 60480, Note_off_c, 2, 62, 0
3, 60480, Note_off_c, 2, 59, 0
3, 60480, Note_off_c, 2, 55, 0
3, 60480, Note_off_c, 2, 50, 0
3, 60480, Note_off_c, 2, 43, 0
3, 60480, Note_on_c, 2, 43, 65
3, 60480, Note_on_c, 2, 50, 65
3, 60480, Note_on_c, 2, 55, 65
3, 60480, Note_on_c, 2, 59, 65
3, 60480, Note_on_c, 2, 62, 65
3, 60480, Note_on_c, 2, 67, 65
3, 60840, Note_off_c, 2, 67, 0
3, 60840, Note_off_c, 2, 62, 0
3, 60840, Note_off_c, 2, 59, 0
3, 60840, Note_off_c, 2, 55, 0
3, 60840, Note_off_c, 2, 50, 0
3, 60840, Note_off_c, 2, 43, 0
3, 60840, Note_on_c, 2, 43, 65
3, 60840, Note_on_c, 2, 50, 65
3, 60840, Note_on_c, 2, 55, 65
3, 60840, Note_on_c, 2, 59, 65
3, 60840, Note_on_c, 2, 62, 65
3, 60840, Note_on_c, 2, 67, 65
3, 61200, Note_off_c, 2, 67, 0
3, 61200, Note_off_c, 2, 62, 0
3, 61200, Note_off_c, 2, 59, 0
3, 61200, Note_off_c, 2, 55, 0
3, 61200, Note_off_c, 2, 50, 0
3, 61200, Note_off_c, 2, 43, 0
3, 61200, Note_on_c, 2, 43, 65
3, 61200, Note_on_c, 2, 50, 65
3, 61200, Note_on_c, 2, 55, 65
3, 61200, Note_on_c, 2, 59, 65
3, 61200, Note_on_c, 2, 62, 65
3, 61200, Note_on_c, 2, 67, 65
3, 61560, Note_off_c, 2, 67, 0
3, 61560, Note_off_c, 2, 62, 0
3, 61560, Note_off_c, 2, 59, 0
3, 61560, Note_off_c, 2, 55, 0
3, 61560, Note_off_c, 2, 50, 0
3, 61560, Note_off_c, 2, 43, 0
3, 61560, Note_on_c, 2, 43, 65
3, 61560, Note_on_c, 2, 50, 65
3, 61560, Note_on_c, 2, 55, 65
3, 61560, Note_on_c, 2, 59, 65
3, 61560, Note_on_c, 2, 62, 65
3, 61560, Note_on_c, 2, 67, 65
3, 61920, Note_off_c, 2, 67, 0
3, 61920, Note_off_c, 2, 62, 0
3, 61920, Note_off_c, 2, 59, 0
3, 61920, Note_off_c, 2, 55, 0
3, 61920, Note_off_c, 2, 50, 0
3, 61920, Note_off_c, 2, 43, 0
3, 61920, Note_on_c, 2, 46, 65
3, 61920, Note_on_c, 2, 53, 65
3, 61920, Note_on_c, 2, 58, 65
3, 61920, Note_on_c, 2, 62, 65
3, 61920, Note_on_c, 2, 65, 65
3, 61920, Note_on_c, 2, 70, 65
3, 62280, Note_off_c, 2, 70, 0
3, 62280, Note_off_c, 2, 65, 0
3, 62280, Note_off_c, 2, 62, 0
3, 62280, Note_off_c, 2, 58, 0
3, 62280, Note_off_c, 2, 53, 0
3, 62280, Note_off_c, 2, 46, 0
3, 62280, Note_on_c, 2, 46, 65
3, 62280, Note_on_c, 2, 53, 65
3, 62280, Note_on_c, 2, 58, 65
3, 62280, Note_on_c, 2, 62, 65
3, 62280, Note_on_c, 2, 65, 65
3, 62280, Note_on_c, 2, 70, 65
3, 62640, Note_off_c, 2, 70, 0
3, 62640, Note_off_c, 2, 65, 0
3, 62640, Note_off_c, 2, 62, 0
3, 62640, Note_off_c, 2, 58, 0
3, 62640, Note_off_c, 2, 53, 0
3, 62640, Note_off_c, 2, 46, 0
3, 62640, Note_on_c, 2, 46, 65
3, 62640, Note_on_c, 2, 53, 65
3, 62640, Note_on_c, 2, 58, 65
3, 62640, Note_on_c, 2, 62, 65
3, 62640, Note_on_c, 2, 65, 65
3, 62640, Note_on_c, 2, 70, 65
3, 63000, Note_off_c, 2, 70, 0
3, 63000, Note_off_c, 2, 65, 0
3, 63000, Note_off_c, 2, 62, 0
3, 63000, Note_off_c, 2, 58, 0
3, 63000, Note_off_c, 2, 53, 0
3, 63000, Note_off_c, 2, 46, 0
3, 63000, Note_on_c, 2, 46, 65
3, 63000, Note_on_c, 2, 53, 65
3, 63000, Note_on_c, 2, 58, 65
3, 63000, Note_on_c, 2, 62, 65
3, 63000, Note_on_c, 2, 65, 65
3, 63000, Note_on_c, 2, 70, 65
3, 63360, Note_off_c, 2, 70, 0
3, 63360, Note_off_c, 2, 65, 0
3, 63360, Note_off_c, 2, 62, 0
3, 63360, Note_off_c, 2, 58, 0
3, 63360, Note_off_c, 2, 53, 0
3, 63360, Note_off_c, 2, 46, 0
3, 63360, Note_on_c, 2, 45, 65
3, 63360, Note_on_c, 2, 52, 65
3, 63360, Note_on_c, 2, 57, 65
3, 63360, Note_on_c, 2, 61, 65
3, 63360, Note_on_c, 2, 64, 65
3, 63360, Note_on_c, 2, 69, 65
3, 63720, Note_off_c, 2, 69, 0
3, 63720, Note_off_c, 2, 64, 0
3, 63720, Note_off_c, 2, 61, 0
3, 63720, Note_off_c, 2, 57, 0
3, 63720, Note_off_c, 2, 52, 0
3, 63720, Note_off_c, 2, 45, 0
3, 63720, Note_on_c, 2, 45, 65
3, 63720, Note_on_c, 2, 52, 65
3, 63720, Note_on_c, 2, 57, 65
3, 63720, Note_on_c, 2, 61, 65
3, 63720, Note_on_c, 2, 64, 65
3, 63720, Note_on_c, 2, 69, 65
3, 64080, Note_off_c, 2, 69, 0
3, 64080, Note_off_c, 2, 64, 0
3, 64080, Note_off_c, 2, 61, 0
3, 64080, Note_off_c, 2, 57, 0
3, 64080, Note_off_c, 2, 52, 0
3, 64080, Note_off_c, 2, 45, 0
3, 64080, Note_on_c, 2, 45, 65
3, 64080, Note_on_c, 2, 52, 65
3, 64080, Note_on_c, 2, 57, 65
3, 64080, Note_on_c, 2, 61, 65
3, 64080, Note_on_c, 2, 64, 65
3, 64080, Note_on_c, 2, 69, 65
3, 64440, Note_off_c, 2, 69, 0
3, 64440, Note_off_c, 2, 64, 0
3, 64440, Note_off_c, 2, 61, 0
3, 64440, Note_off_c, 2, 57, 0
3, 64440, Note_off_c, 2, 52, 0
3, 64440, Note_off_c, 2, 45, 0
3, 64440, Note_on_c, 2, 45, 65
3, 64440, Note_on_c, 2, 52, 65
3, 64440, Note_on_c, 2, 57, 65
3, 64440, Note_on_c, 2, 61, 65
3, 64440, Note_on_c, 2, 64, 65
3, 64440, Note_on_c, 2, 69, 65
3, 64800, Note_off_c, 2, 69, 0
3, 64800, Note_off_c, 2, 64, 0
3, 64800, Note_off_c, 2, 61, 0
3, 64800, Note_off_c, 2, 57, 0
3, 64800, Note_off_c, 2, 52, 0
3, 64800, Note_off_c, 2, 45, 0
3, 64800, Note_on_c, 2, 45, 65
3, 64800, Note_on_c, 2, 52, 65
3, 64800, Note_on_c, 2, 57, 65
3, 64800, Note_on_c, 2, 61, 65
3, 64800, Note_on_c, 2, 64, 65
3, 64800, Note_on_c, 2, 69, 65
3, 65160, Note_off_c, 2, 69, 0
3, 65160, Note_off_c, 2, 64, 0
3, 65160, Note_off_c, 2, 61, 0
3, 65160, Note_off_c, 2, 57, 0
3, 65160, Note_off_c, 2, 52, 0
3, 65160, Note_off_c, 2, 45, 0
3, 65160, Note_on_c, 2, 45, 65
3, 65160, Note_on_c, 2, 52, 65
3, 65160, Note_on_c, 2, 57, 65
3, 65160, Note_on_c, 2, 61, 65
3, 65160, Note_on_c, 2, 64, 65
3, 65160, Note_on_c, 2, 69, 65
3, 65520, Note_off_c, 2, 69, 0
3, 65520, Note_off_c, 2, 64, 0
3, 65520, Note_off_c, 2, 61, 0
3, 65520, Note_off_c, 2, 57, 0
3, 65520, Note_off_c, 2, 52, 0
3, 65520, Note_off_c, 2, 45, 0
3, 65520, Note_on_c, 2, 45, 65
3, 65520, Note_on_c, 2, 52, 65
3, 65520, Note_on_c, 2, 57, 65
3, 65520, Note_on_c, 2, 61, 65
3, 65520, Note_on_c, 2, 64, 65
3, 65520, Note_on_c, 2, 69, 65
3, 65880, Note_off_c, 2, 69, 0
3, 65880, Note_off_c, 2, 64, 0
3, 65880, Note_off_c, 2, 61, 0
3, 65880, Note_off_c, 2, 57, 0
3, 65880, Note_off_c, 2, 52, 0
3, 65880, Note_off_c, 2, 45, 0
3, 65880, Note_on_c, 2, 45, 65
3, 65880, Note_on_c, 2, 52, 65
3, 65880, Note_on_c, 2, 57, 65
3, 65880, Note_on_c, 2, 61, 65
3, 65880, Note_on_c, 2, 64, 65
3, 65880, Note_on_c, 2, 69, 65
3, 66240, Note_off_c, 2, 69, 0
3, 66240, Note_off_c, 2, 64, 0
3, 66240, Note_off_c, 2, 61, 0
3, 66240, Note_off_c, 2, 57, 0
3, 66240, Note_off_c, 2, 52, 0
3, 66240, Note_off_c, 2, 45, 0
3, 66240, Note_on_c, 2, 45, 80
3, 66240, Note_on_c, 2, 52, 80
3, 66240, Note_on_c, 2, 57, 80
3, 66240, Note_on_c, 2, 61, 80
3, 66240, Note_on_c, 2, 64, 80
3, 66240, Note_on_c, 2, 69, 80
3, 66600, Note_off_c, 2, 69, 0
3, 66600, Note_off_c, 2, 64, 0
3, 66600, Note_off_c, 2, 61, 0
3, 66600, Note_off_c, 2, 57, 0
3, 66600, Note_off_c, 2, 52, 0
3, 66600, Note_off_c, 2, 45, 0
3, 69120, Note_on_c, 2, 43, 78
3, 69120, Note_on_c, 2, 48, 78
3, 69120, Note_on_c, 2, 52, 78
3, 69120, Note_on_c, 2, 55, 78
3, 69120, Note_on_c, 2, 60, 78
3, 69120, Note_on_c, 2, 64, 78
3, 69840, Note_off_c, 2, 64, 0
3, 69840, Note_off_c, 2, 60, 0
3, 69840, Note_off_c, 2, 55, 0
3, 69840, Note_off_c, 2, 52, 0
3, 69840, Note_off_c, 2, 48, 0
3, 69840, Note_off_c, 2, 43, 0
3, 69840, Note_on_c, 2, 43, 78
3, 69840, Note_on_c, 2, 48, 78
3, 69840, Note_on_c, 2, 52, 78
3, 69840, Note_on_c, 2, 55, 78
3, 69840, Note_on_c, 2, 60, 78
3, 69840, Note_on_c, 2, 64, 78
3, 70380, Note_off_c, 2, 64, 0
3, 70380, Note_off_c, 2, 60, 0
3, 70380, Note_off_c, 2, 55, 0
3, 70380, Note_off_c, 2, 52, 0
3, 70380, Note_off_c, 2, 48, 0
3, 70380, Note_off_c, 2, 43, 0
3, 70380, Note_on_c, 2, 55, 78
3, 70380, Note_on_c, 2, 60, 78
3, 70380, Note_on_c, 2, 64, 78
3, 70560, Note_off_c, 2, 64, 0
3, 70560, Note_off_c, 2, 60, 0
3, 70560, Note_off_c, 2, 55, 0
3, 70560, Note_on_c, 2, 43, 78
3, 70560, Note_on_c, 2, 48, 78
3, 70560, Note_on_c, 2, 52, 78
3, 70560, Note_on_c, 2, 55, 78
3, 70560, Note_on_c, 2, 60, 78
3, 70560, Note_on_c, 2, 64, 78
3, 70920, Note_off_c, 2, 64, 0
3, 70920, Note_off_c, 2, 60, 0
3, 70920, Note_off_c, 2, 55, 0
3, 70920, Note_off_c, 2, 52, 0
3, 70920, Note_off_c, 2, 48, 0
3, 70920, Note_off_c, 2, 43, 0
3, 70920, Note_on_c, 2, 52, 78
3, 70920, Note_on_c, 2, 55, 78
3, 70920, Note_on_c, 2, 60, 78
3, 70920, Note_on_c, 2, 64, 78
3, 71280, Note_off_c, 2, 64, 0
3, 71280, Note_off_c, 2, 60, 0
3, 71280, Note_off_c, 2, 55, 0
3, 71280, Note_off_c, 2, 52, 0
3, 71280, Note_on_c, 2, 52, 78
3, 71280, Note_on_c, 2, 55, 78
3, 71280, Note_on_c, 2, 60, 78
3, 71280, Note_on_c, 2, 64, 78
3, 71460, Note_off_c, 2, 64, 0
3, 71460, Note_off_c, 2, 60, 0
3, 71460, Note_off_c, 2, 55, 0
3, 71460, Note_off_c, 2, 52, 0
3, 71460, Note_on_c, 2, 52, 78
3, 71460, Note_on_c, 2, 55, 78
3, 71460, Note_on_c, 2, 60, 78
3, 71460, Note_on_c, 2, 64, 78
3, 71640, Note_off_c, 2, 64, 0
3, 71640, Note_off_c, 2, 60, 0
3, 71640, Note_off_c, 2, 55, 0
3, 71640, Note_off_c, 2, 52, 0
3, 71640, Note_on_c, 2, 47, 78
3, 71640, Note_on_c, 2, 54, 78
3, 71640, Note_on_c, 2, 59, 78
3, 71640, Note_on_c, 2, 62, 78
3, 71640, Note_on_c, 2, 66, 78
3, 72360, Note_off_c, 2, 66, 0
3, 72360, Note_off_c, 2, 62, 0
3, 72360, Note_off_c, 2, 59, 0
3, 72360, Note_off_c, 2, 54, 0
3, 72360, Note_off_c, 2, 47, 0
3, 72360, Note_on_c, 2, 47, 78
3, 72720, Note_off_c, 2, 47, 0
3, 72720, Note_on_c, 2, 47, 78
3, 72720, Note_on_c, 2, 54, 78
3, 72720, Note_on_c, 2, 59, 78
3, 72720, Note_on_c, 2, 62, 78
3, 72720, Note_on_c, 2, 66, 78
3, 73260, Note_off_c, 2, 66, 0
3, 73260, Note_off_c, 2, 62, 0
3, 73260, Note_off_c, 2, 59, 0
3, 73260, Note_off_c, 2, 54, 0
3, 73260, Note_off_c, 2, 47, 0
3, 73260, Note_on_c, 2, 59, 78
3, 73260, Note_on_c, 2, 62, 78
3, 73260, Note_on_c, 2, 66, 78
3, 73440, Note_off_c, 2, 66, 0
3, 73440, Note_off_c, 2, 62, 0
3, 73440, Note_off_c, 2, 59, 0
3, 73440, Note_on_c, 2, 47, 78
3, 73440, Note_on_c, 2, 54, 78
3, 73440, Note_on_c, 2, 59, 78
3, 73440, Note_on_c, 2, 62, 78
3, 73440, Note_on_c, 2, 66, 78
3, 73800, Note_off_c, 2, 66, 0
3, 73800, Note_off_c, 2, 62, 0
3, 73800, Note_off_c, 2, 59, 0
3, 73800, Note_off_c, 2, 54, 0
3, 73800, Note_off_c, 2, 47, 0
3, 73800, Note_on_c, 2, 54, 78
3, 73800, Note_on_c, 2, 59, 78
3, 73800, Note_on_c, 2, 62, 78
3, 73800, Note_on_c, 2, 66, 78
3, 74160, Note_off_c, 2, 66, 0
3, 74160, Note_off_c, 2, 62, 0
3, 74160, Note_off_c, 2, 59, 0
3, 74160, Note_off_c, 2, 54, 0
3, 74160, Note_on_c, 2, 59, 78
3, 74340, Note_off_c, 2, 59, 0
3, 74340, Note_on_c, 2, 60, 78
3, 74520, Note_off_c, 2, 60, 0
3, 74520, Note_on_c, 2, 59, 78
3, 74700, Note_off_c, 2, 59, 0
3, 74700, Note_on_c, 2, 60, 78
3, 74880, Note_off_c, 2, 60, 0
3, 74880, Note_on_c, 2, 45, 78
3, 74880, Note_on_c, 2, 52, 78
3, 74880, Note_on_c, 2, 57, 78
3, 74880, Note_on_c, 2, 60, 78
3, 74880, Note_on_c, 2, 64, 78
3, 75600, Note_off_c, 2, 64, 0
3, 75600, Note_off_c, 2, 60, 0
3, 75600, Note_off_c, 2, 57, 0
3, 75600, Note_off_c, 2, 52, 0
3, 75600, Note_off_c, 2, 45, 0
3, 75600, Note_on_c, 2, 45, 78
3, 75600, Note_on_c, 2, 52, 78
3, 75600, Note_on_c, 2, 57, 78
3, 75600, Note_on_c, 2, 60, 78
3, 75600, Note_on_c, 2, 64, 78
3, 75600, Note_on_c, 2, 69, 78
3, 76140, Note_off_c, 2, 69, 0
3, 76140, Note_off_c, 2, 64, 0
3, 76140, Note_off_c, 2, 60, 0
3, 76140, Note_off_c, 2, 57, 0
3, 76140, Note_off_c, 2, 52, 0
3, 76140, Note_off_c, 2, 45, 0
3, 76140, Note_on_c, 2, 57, 78
3, 76140, Note_on_c, 2, 60, 78
3, 76140, Note_on_c, 2, 64, 78
3, 76140, Note_on_c, 2, 69, 78
3, 76320, Note_off_c, 2, 69, 0
3, 76320, Note_off_c, 2, 64, 0
3, 76320, Note_off_c, 2, 60, 0
3, 76320, Note_off_c, 2, 57, 0
3, 76320, Note_on_c, 2, 45, 78
3, 76320, Note_on_c, 2, 52, 78
3, 76320, Note_on_c, 2, 57, 78
3, 76320, Note_on_c, 2, 60, 78
3, 76320, Note_on_c, 2, 64, 78
3, 76680, Note_off_c, 2, 64, 0
3, 76680, Note_off_c, 2, 60, 0
3, 76680, Note_off_c, 2, 57, 0
3, 76680, Note_off_c, 2, 52, 0
3, 76680, Note_off_c, 2, 45, 0
3, 76680, Note_on_c, 2, 45, 78
3, 76680, Note_on_c, 2, 57, 78
3, 76860, Note_off_c, 2, 57, 0
3, 76860, Note_off_c, 2, 45, 0
3, 76860, Note_on_c, 2, 45, 78
3, 76860, Note_on_c, 2, 57, 78
3, 77040, Note_off_c, 2, 57, 0
3, 77040, Note_off_c, 2, 45, 0
3, 77040, Note_on_c, 2, 43, 78
3, 77040, Note_on_c, 2, 55, 78
3, 77220, Note_off_c, 2, 55, 0
3, 77220, Note_off_c, 2, 43, 0
3, 77220, Note_on_c, 2, 43, 78
3, 77220, Note_on_c, 2, 55, 78
3, 77400, Note_off_c, 2, 55, 0
3, 77400, Note_off_c, 2, 43, 0
3, 77400, Note_on_c, 2, 41, 78
3, 77400, Note_on_c, 2, 48, 78
3, 77400, Note_on_c, 2, 53, 78
3, 77400, Note_on_c, 2, 57, 78
3, 77400, Note_on_c, 2, 60, 78
3, 77400, Note_on_c, 2, 65, 78
3, 78120, Note_off_c, 2, 65, 0
3, 78120, Note_off_c, 2, 60, 0
3, 78120, Note_off_c, 2, 57, 0
3, 78120, Note_off_c, 2, 53, 0
3, 78120, Note_off_c, 2, 48, 0
3, 78120, Note_off_c, 2, 41, 0
3, 78120, Note_on_c, 2, 41, 78
3, 78480, Note_off_c, 2, 41, 0
3, 78480, Note_on_c, 2, 41, 78
3, 78480, Note_on_c, 2, 48, 78
3, 78480, Note_on_c, 2, 53, 78
3, 78480, Note_on_c, 2, 57, 78
3, 78480, Note_on_c, 2, 60, 78
3, 78480, Note_on_c, 2, 65, 78
3, 79020, Note_off_c, 2, 65, 0
3, 79020, Note_off_c, 2, 60, 0
3, 79020, Note_off_c, 2, 57, 0
3, 79020, Note_off_c, 2, 53, 0
3, 79020, Note_off_c, 2, 48, 0
3, 79020, Note_off_c, 2, 41, 0
3, 79020, Note_on_c, 2, 53, 78
3, 79020, Note_on_c, 2, 57, 78
3, 79020, Note_on_c, 2, 60, 78
3, 79020, Note_on_c, 2, 65, 78
3, 79200, Note_off_c, 2, 65, 0
3, 79200, Note_off_c, 2, 60, 0
3, 79200, Note_off_c, 2, 57, 0
3, 79200, Note_off_c, 2, 53, 0
3, 79200, Note_on_c, 2, 41, 78
3, 79200, Note_on_c, 2, 48, 78
3, 79200, Note_on_c, 2, 53, 78
3, 79200, Note_on_c, 2, 57, 78
3, 79200, Note_on_c, 2, 60, 78
3, 79200, Note_on_c, 2, 65, 78
3, 79560, Note_off_c, 2, 65, 0
3, 79560, Note_off_c, 2, 60, 0
3, 79560, Note_off_c, 2, 57, 0
3, 79560, Note_off_c, 2, 53, 0
3, 79560, Note_off_c, 2, 48, 0
3, 79560, Note_off_c, 2, 41, 0
3, 79560, Note_on_c, 2, 45, 78
3, 79560, Note_on_c, 2, 57, 78
3, 79740, Note_off_c, 2, 57, 0
3, 79740, Note_off_c, 2, 45, 0
3, 79740, Note_on_c, 3, 45, 78
3, 79740, Note_on_c, 3, 57, 78
3, 79760, Pitch_bend_c, 3, 8112
3, 79780, Pitch_bend_c, 3, 8037
3, 79800, Pitch_bend_c, 3, 7962
3, 79820, Pitch_bend_c, 3, 7887
3, 79840, Pitch_bend_c, 3, 7812
3, 79860, Pitch_bend_c, 3, 7737
3, 79880, Pitch_bend_c, 3, 7662
3, 79900, Pitch_bend_c, 3, 7587
3, 79920, Pitch_bend_c, 3, 7512
3, 80100, Note_off_c, 3, 57, 0
3, 80100, Note_off_c, 3, 45, 0
3, 80100, Pitch_bend_c, 3, 8192
3, 80100, Note_on_c, 3, 45, 78
3, 80100, Note_on_c, 3, 57, 78
3, 80120, Pitch_bend_c, 3, 8112
3, 80140, Pitch_bend_c, 3, 8037
3, 80160, Pitch_bend_c, 3, 7962
3, 80180, Pitch_bend_c, 3, 7887
3, 80200, Pitch_bend_c, 3, 7812
3, 80220, Pitch_bend_c, 3, 7737
3, 80240, Pitch_bend_c, 3, 7662
3, 80260, Pitch_bend_c, 3, 7587
3, 80280, Pitch_bend_c, 3, 7512
3, 80460, Note_off_c, 3, 57, 0
3, 80460, Note_off_c, 3, 45, 0
3, 80460, Pitch_bend_c, 3, 8192
3, 80460, Note_on_c, 2, 45, 78
3, 80460, Note_on_c, 2, 57, 78
3, 80640, Note_off_c, 2, 57, 0
3, 80640, Note_off_c, 2, 45, 0
3, 80640, Note_on_c, 2, 45, 78
3, 80640, Note_on_c, 2, 52, 78
3, 80640, Note_on_c, 2, 57, 78
3, 80640, Note_on_c, 2, 60, 78
3, 80640, Note_on_c, 2, 64, 78
3, 81360, Note_off_c, 2, 64, 0
3, 81360, Note_off_c, 2, 60, 0
3, 81360, Note_off_c, 2, 57, 0
3, 81360, Note_off_c, 2, 52, 0
3, 81360, Note_off_c, 2, 45, 0
3, 81360, Note_on_c, 2, 45, 78
3, 81360, Note_on_c, 2, 52, 78
3, 81360, Note_on_c, 2, 57, 78
3, 81360, Note_on_c, 2, 60, 78
3, 81360, Note_on_c, 2, 64, 78
3, 81360, Note_on_c, 2, 69, 78
3, 81900, Note_off_c, 2, 69, 0
3, 81900, Note_off_c, 2, 64, 0
3, 81900, Note_off_c, 2, 60, 0
3, 81900, Note_off_c, 2, 57, 0
3, 81900, Note_off_c, 2, 52, 0
3, 81900, Note_off_c, 2, 45, 0
3, 81900, Note_on_c, 2, 57, 78
3, 81900, Note_on_c, 2, 60, 78
3, 81900, Note_on_c, 2, 64, 78
3, 81900, Note_on_c, 2, 69, 78
3, 82080, Note_off_c, 2, 69, 0
3, 82080, Note_off_c, 2, 64, 0
3, 82080, Note_off_c, 2, 60, 0
3, 82080, Note_off_c, 2, 57, 0
3, 82080, Note_on_c, 2, 45, 78
3, 82080, Note_on_c, 2, 52, 78
3, 82080, Note_on_c, 2, 57, 78
3, 82080, Note_on_c, 2, 60, 78
3, 82080, Note_on_c, 2, 64, 78
3, 82440, Note_off_c, 2, 64, 0
3, 82440, Note_off_c, 2, 60, 0
3, 82440, Note_off_c, 2, 57, 0
3, 82440, Note_off_c, 2, 52, 0
3, 82440, Note_off_c, 2, 45, 0
3, 82440, Note_on_c, 2, 45, 78
3, 82440, Note_on_c, 2, 57, 78
3, 82620, Note_off_c, 2, 57, 0
3, 82620, Note_off_c, 2, 45, 0
3, 82620, Note_on_c, 2, 45, 78
3, 82620, Note_on_c, 2, 57, 78
3, 82800, Note_off_c, 2, 57, 0
3, 82800, Note_off_c, 2, 45, 0
3, 82800, Note_on_c, 2, 43, 78
3, 82800, Note_on_c, 2, 55, 78
3, 82980, Note_off_c, 2, 55, 0
3, 82980, Note_off_c, 2, 43, 0
3, 82980, Note_on_c, 2, 43, 78
3, 82980, Note_on_c, 2, 55, 78
3, 83160, Note_off_c, 2, 55, 0
3, 83160, Note_off_c, 2, 43, 0
3, 83160, Note_on_c, 2, 41, 78
3, 83160, Note_on_c, 2, 48, 78
3, 83160, Note_on_c, 2, 53, 78
3, 83160, Note_on_c, 2, 57, 78
3, 83160, Note_on_c, 2, 60, 78
3, 83160, Note_on_c, 2, 65, 78
3, 83880, Note_off_c, 2, 65, 0
3, 83880, Note_off_c, 2, 60, 0
3, 83880, Note_off_c, 2, 57, 0
3, 83880, Note_off_c, 2, 53, 0
3, 83880, Note_off_c, 2, 48, 0
3, 83880, Note_off_c, 2, 41, 0
3, 83880, Note_on_c, 2, 41, 78
3, 84240, Note_off_c, 2, 41, 0
3, 84240, Note_on_c, 2, 41, 78
3, 84240, Note_on_c, 2, 48, 78
3, 84240, Note_on_c, 2, 53, 78
3, 84240, Note_on_c, 2, 57, 78
3, 84240, Note_on_c, 2, 60, 78
3, 84240, Note_on_c, 2, 65, 78
3, 84780, Note_off_c, 2, 65, 0
3, 84780, Note_off_c, 2, 60, 0
3, 84780, Note_off_c, 2, 57, 0
3, 84780, Note_off_c, 2, 53, 0
3, 84780, Note_off_c, 2, 48, 0
3, 84780, Note_off_c, 2, 41, 0
3, 84780, Note_on_c, 2, 53, 78
3, 84780, Note_on_c, 2, 57, 78
3, 84780, Note_on_c, 2, 60, 78
3, 84780, Note_on_c, 2, 65, 78
3, 84960, Note_off_c, 2, 65, 0
3, 84960, Note_off_c, 2, 60, 0
3, 84960, Note_off_c, 2, 57, 0
3, 84960, Note_off_c, 2, 53, 0
3, 84960, Note_on_c, 2, 41, 78
3, 84960, Note_on_c, 2, 48, 78
3, 84960, Note_on_c, 2, 53, 78
3, 84960, Note_on_c, 2, 57, 78
3, 84960, Note_on_c, 2, 60, 78
3, 84960, Note_on_c, 2, 65, 78
3, 85320, Note_off_c, 2, 65, 0
3, 85320, Note_off_c, 2, 60, 0
3, 85320, Note_off_c, 2, 57, 0
3, 85320, Note_off_c, 2, 53, 0
3, 85320, Note_off_c, 2, 48, 0
3, 85320, Note_off_c, 2, 41, 0
3, 85320, Note_on_c, 2, 45, 78
3, 85320, Note_on_c, 2, 57, 78
3, 85500, Note_off_c, 2, 57, 0
3, 85500, Note_off_c, 2, 45, 0
3, 85500, Note_on_c, 2, 45, 78
3, 85500, Note_on_c, 2, 57, 78
3, 85680, Note_off_c, 2, 57, 0
3, 85680, Note_off_c, 2, 45, 0
3, 85680, Note_on_c, 2, 43, 78
3, 85680, Note_on_c, 2, 55, 78
3, 85860, Note_off_c, 2, 55, 0
3, 85860, Note_off_c, 2, 43, 0
3, 85860, Note_on_c, 2, 44, 78
3, 85860, Note_on_c, 2, 56, 78
3, 86040, Note_off_c, 2, 56, 0
3, 86040, Note_off_c, 2, 44, 0
3, 86040, Note_on_c, 2, 43, 78
3, 86040, Note_on_c, 2, 55, 78
3, 86220, Note_off_c, 2, 55, 0
3, 86220, Note_off_c, 2, 43, 0
3, 86220, Note_on_c, 2, 44, 78
3, 86220, Note_on_c, 2, 56, 78
3, 86400, Note_off_c, 2, 56, 0
3, 86400, Note_off_c, 2, 44, 0
3, 86400, Note_on_c, 2, 41, 78
3, 86400, Note_on_c, 2, 48, 78
3, 86400, Note_on_c, 2, 53, 78
3, 86400, Note_on_c, 2, 56, 78
3, 86400, Note_on_c, 2, 60, 78
3, 86400, Note_on_c, 2, 65, 78
3, 87120, Note_off_c, 2, 65, 0
3, 87120, Note_off_c, 2, 60, 0
3, 87120, Note_off_c, 2, 56, 0
3, 87120, Note_off_c, 2, 53, 0
3, 87120, Note_off_c, 2, 48, 0
3, 87120, Note_off_c, 2, 41, 0
3, 87120, Note_on_c, 2, 41, 78
3, 87120, Note_on_c, 2, 48, 78
3, 87120, Note_on_c, 2, 53, 78
3, 87120, Note_on_c, 2, 56, 78
3, 87120, Note_on_c, 2, 60, 78
3, 87120, Note_on_c, 2, 65, 78
3, 87660, Note_off_c, 2, 65, 0
3, 87660, Note_off_c, 2, 60, 0
3, 87660, Note_off_c, 2, 56, 0
3, 87660, Note_off_c, 2, 53, 0
3, 87660, Note_off_c, 2, 48, 0
3, 87660, Note_off_c, 2, 41, 0
3, 87660, Note_on_c, 2, 53, 78
3, 87660, Note_on_c, 2, 56, 78
3, 87660, Note_on_c, 2, 60, 78
3, 87660, Note_on_c, 2, 65, 78
3, 87840, Note_off_c, 2, 65, 0
3, 87840, Note_off_c, 2, 60, 0
3, 87840, Note_off_c, 2, 56, 0
3, 87840, Note_off_c, 2, 53, 0
3, 87840, Note_on_c, 2, 41, 78
3, 87840, Note_on_c, 2, 48, 78
3, 87840, Note_on_c, 2, 53, 78
3, 87840, Note_on_c, 2, 57, 78
3, 87840, Note_on_c, 2, 60, 78
3, 88200, Note_off_c, 2, 60, 0
3, 88200, Note_off_c, 2, 57, 0
3, 88200, Note_off_c, 2, 53, 0
3, 88200, Note_off_c, 2, 48, 0
3, 88200, Note_off_c, 2, 41, 0
3, 88200, Note_on_c, 2, 44, 78
3, 88200, Note_on_c, 2, 56, 78
3, 88380, Note_off_c, 2, 56, 0
3, 88380, Note_off_c, 2, 44, 0
3, 88380, Note_on_c, 2, 44, 78
3, 88380, Note_on_c, 2, 56, 78
3, 88560, Note_off_c, 2, 56, 0
3, 88560, Note_off_c, 2, 44, 0
3, 88560, Note_on_c, 2, 45, 78
3, 88740, Note_off_c, 2, 45, 0
3, 88740, Note_on_c, 2, 43, 78
3, 88920, Note_off_c, 2, 43, 0
3, 88920, Note_on_c, 2, 43, 78
3, 88920, Note_on_c, 2, 48, 78
3, 88920, Note_on_c, 2, 52, 78
3, 88920, Note_on_c, 2, 55, 78
3, 89100, Note_off_c, 2, 55, 0
3, 89100, Note_off_c, 2, 52, 0
3, 89100, Note_off_c, 2, 48, 0
3, 89100, Note_off_c, 2, 43, 0
3, 89100, Note_on_c, 2, 43, 78
3, 89100, Note_on_c, 2, 48, 78
3, 89100, Note_on_c, 2, 52, 78
3, 89100, Note_on_c, 2, 55, 78
3, 89280, Note_off_c, 2, 55, 0
3, 89280, Note_off_c, 2, 52, 0
3, 89280, Note_off_c, 2, 48, 0
3, 89280, Note_off_c, 2, 43, 0
3, 89280, Note_on_c, 2, 43, 78
3, 89280, Note_on_c, 2, 48, 78
3, 89280, Note_on_c, 2, 52, 78
3, 89280, Note_on_c, 2, 55, 78
3, 89280, Note_on_c, 2, 60, 78
3, 89280, Note_on_c, 2, 64, 78
3, 90000, Note_off_c, 2, 64, 0
3, 90000, Note_off_c, 2, 60, 0
3, 90000, Note_off_c, 2, 55, 0
3, 90000, Note_off_c, 2, 52, 0
3, 90000, Note_off_c, 2, 48, 0
3, 90000, Note_off_c, 2, 43, 0
3, 90000, Note_on_c, 2, 43, 78
3, 90000, Note_on_c, 2, 48, 78
3, 90000, Note_on_c, 2, 52, 78
3, 90000, Note_on_c, 2, 55, 78
3, 90000, Note_on_c, 2, 60, 78
3, 90000, Note_on_c, 2, 64, 78
3, 90540, Note_off_c, 2, 64, 0
3, 90540, Note_off_c, 2, 60, 0
3, 90540, Note_off_c, 2, 55, 0
3, 90540, Note_off_c, 2, 52, 0
3, 90540, Note_off_c, 2, 48, 0
3, 90540, Note_off_c, 2, 43, 0
3, 90540, Note_on_c, 2, 55, 78
3, 90540, Note_on_c, 2, 60, 78
3, 90540, Note_on_c, 2, 64, 78
3, 90720, Note_off_c, 2, 64, 0
3, 90720, Note_off_c, 2, 60, 0
3, 90720, Note_off_c, 2, 55, 0
3, 90720, Note_on_c, 2, 43, 78
3, 90720, Note_on_c, 2, 48, 78
3, 90720, Note_on_c, 2, 52, 78
3, 90720, Note_on_c, 2, 55, 78
3, 90720, Note_on_c, 2, 60, 78
3, 90720, Note_on_c, 2, 64, 78
3, 91080, Note_off_c, 2, 64, 0
3, 91080, Note_off_c, 2, 60, 0
3, 91080, Note_off_c, 2, 55, 0
3, 91080, Note_off_c, 2, 52, 0
3, 91080, Note_off_c, 2, 48, 0
3, 91080, Note_off_c, 2, 43, 0
3, 91080, Note_on_c, 2, 52, 78
3, 91080, Note_on_c, 2, 55, 78
3, 91080, Note_on_c, 2, 60, 78
3, 91080, Note_on_c, 2, 64, 78
3, 91440, Note_off_c, 2, 64, 0
3, 91440, Note_off_c, 2, 60, 0
3, 91440, Note_off_c, 2, 55, 0
3, 91440, Note_off_c, 2, 52, 0
3, 91440, Note_on_c, 2, 52, 78
3, 91440, Note_on_c, 2, 55, 78
3, 91440, Note_on_c, 2, 60, 78
3, 91440, Note_on_c, 2, 64, 78
3, 91620, Note_off_c, 2, 64, 0
3, 91620, Note_off_c, 2, 60, 0
3, 91620, Note_off_c, 2, 55, 0
3, 91620, Note_off_c, 2, 52, 0
3, 91620, Note_on_c, 2, 52, 78
3, 91620, Note_on_c, 2, 55, 78
3, 91620, Note_on_c, 2, 60, 78
3, 91620, Note_on_c, 2, 64, 78
3, 91800, Note_off_c, 2, 64, 0
3, 91800, Note_off_c, 2, 60, 0
3, 91800, Note_off_c, 2, 55, 0
3, 91800, Note_off_c, 2, 52, 0
3, 91800, Note_on_c, 2, 47, 78
3, 91800, Note_on_c, 2, 54, 78
3, 91800, Note_on_c, 2, 59, 78
3, 91800, Note_on_c, 2, 62, 78
3, 91800, Note_on_c, 2, 66, 78
3, 92520, Note_off_c, 2, 66, 0
3, 92520, Note_off_c, 2, 62, 0
3, 92520, Note_off_c, 2, 59, 0
3, 92520, Note_off_c, 2, 54, 0
3, 92520, Note_off_c, 2, 47, 0
3, 92520, Note_on_c, 2, 47, 78
3, 92880, Note_off_c, 2, 47, 0
3, 92880, Note_on_c, 2, 47, 78
3, 92880, Note_on_c, 2, 54, 78
3, 92880, Note_on_c, 2, 59, 78
3, 92880, Note_on_c, 2, 62, 78
3, 92880, Note_on_c, 2, 66, 78
3, 93420, Note_off_c, 2, 66, 0
3, 93420, Note_off_c, 2, 62, 0
3, 93420, Note_off_c, 2, 59, 0
3, 93420, Note_off_c, 2, 54, 0
3, 93420, Note_off_c, 2, 47, 0
3, 93420, Note_on_c, 2, 59, 78
3, 93420, Note_on_c, 2, 62, 78
3, 93420, Note_on_c, 2, 66, 78
3, 93600, Note_off_c, 2, 66, 0
3, 93600, Note_off_c, 2, 62, 0
3, 93600, Note_off_c, 2, 59, 0
3, 93600, Note_on_c, 2, 47, 78
3, 93600, Note_on_c, 2, 54, 78
3, 93600, Note_on_c, 2, 59, 78
3, 93600, Note_on_c, 2, 62, 78
3, 93600, Note_on_c, 2, 66, 78
3, 93960, Note_off_c, 2, 66, 0
3, 93960, Note_off_c, 2, 62, 0
3, 93960, Note_off_c, 2, 59, 0
3, 93960, Note_off_c, 2, 54, 0
3, 93960, Note_off_c, 2, 47, 0
3, 93960, Note_on_c, 2, 54, 78
3, 93960, Note_on_c, 2, 59, 78
3, 93960, Note_on_c, 2, 62, 78
3, 93960, Note_on_c, 2, 66, 78
3, 94320, Note_off_c, 2, 66, 0
3, 94320, Note_off_c, 2, 62, 0
3, 94320, Note_off_c, 2, 59, 0
3, 94320, Note_off_c, 2, 54, 0
3, 94320, Note_on_c, 2, 59, 78
3, 94500, Note_off_c, 2, 59, 0
3, 94500, Note_on_c, 2, 60, 78
3, 94680, Note_off_c, 2, 60, 0
3, 94680, Note_on_c, 2, 59, 78
3, 94860, Note_off_c, 2, 59, 0
3, 94860, Note_on_c, 2, 60, 78
3, 95040, Note_off_c, 2, 60, 0
3, 95040, Note_on_c, 2, 45, 78
3, 95040, Note_on_c, 2, 52, 78
3, 95040, Note_on_c, 2, 57, 78
3, 95040, Note_on_c, 2, 60, 78
3, 95040, Note_on_c, 2, 64, 78
3, 95760, Note_off_c, 2, 64, 0
3, 95760, Note_off_c, 2, 60, 0
3, 95760, Note_off_c, 2, 57, 0
3, 95760, Note_off_c, 2, 52, 0
3, 95760, Note_off_c, 2, 45, 0
3, 95760, Note_on_c, 2, 45, 78
3, 95760, Note_on_c, 2, 52, 78
3, 95760, Note_on_c, 2, 57, 78
3, 95760, Note_on_c, 2, 60, 78
3, 95760, Note_on_c, 2, 64, 78
3, 95760, Note_on_c, 2, 69, 78
3, 96300, Note_off_c, 2, 69, 0
3, 96300, Note_off_c, 2, 64, 0
3, 96300, Note_off_c, 2, 60, 0
3, 96300, Note_off_c, 2, 57, 0
3, 96300, Note_off_c, 2, 52, 0
3, 96300, Note_off_c, 2, 45, 0
3, 96300, Note_on_c, 2, 57, 78
3, 96300, Note_on_c, 2, 60, 78
3, 96300, Note_on_c, 2, 64, 78
3, 96300, Note_on_c, 2, 69, 78
3, 96480, Note_off_c, 2, 69, 0
3, 96480, Note_off_c, 2, 64, 0
3, 96480, Note_off_c, 2, 60, 0
3, 96480, Note_off_c, 2, 57, 0
3, 96480, Note_on_c, 2, 45, 78
3, 96480, Note_on_c, 2, 52, 78
3, 96480, Note_on_c, 2, 57, 78
3, 96480, Note_on_c, 2, 60, 78
3, 96480, Note_on_c, 2, 64, 78
3, 96840, Note_off_c, 2, 64, 0
3, 96840, Note_off_c, 2, 60, 0
3, 96840, Note_off_c, 2, 57, 0
3, 96840, Note_off_c, 2, 52, 0
3, 96840, Note_off_c, 2, 45, 0
3, 96840, Note_on_c, 2, 45, 78
3, 96840, Note_on_c, 2, 57, 78
3, 97020, Note_off_c, 2, 57, 0
3, 97020, Note_off_c, 2, 45, 0
3, 97020, Note_on_c, 2, 45, 78
3, 97020, Note_on_c, 2, 57, 78
3, 97200, Note_off_c, 2, 57, 0
3, 97200, Note_off_c, 2, 45, 0
3, 97200, Note_on_c, 2, 43, 78
3, 97200, Note_on_c, 2, 55, 78
3, 97380, Note_off_c, 2, 55, 0
3, 97380, Note_off_c, 2, 43, 0
3, 97380, Note_on_c, 2, 43, 78
3, 97380, Note_on_c, 2, 55, 78
3, 97560, Note_off_c, 2, 55, 0
3, 97560, Note_off_c, 2, 43, 0
3, 97560, Note_on_c, 2, 41, 78
3, 97560, Note_on_c, 2, 48, 78
3, 97560, Note_on_c, 2, 53, 78
3, 97560, Note_on_c, 2, 57, 78
3, 97560, Note_on_c, 2, 60, 78
3, 97560, Note_on_c, 2, 65, 78
3, 98280, Note_off_c, 2, 65, 0
3, 98280, Note_off_c, 2, 60, 0
3, 98280, Note_off_c, 2, 57, 0
3, 98280, Note_off_c, 2, 53, 0
3, 98280, Note_off_c, 2, 48, 0
3, 98280, Note_off_c, 2, 41, 0
3, 98280, Note_on_c, 2, 41, 78
3, 98640, Note_off_c, 2, 41, 0
3, 98640, Note_on_c, 2, 41, 78
3, 98640, Note_on_c, 2, 48, 78
3, 98640, Note_on_c, 2, 53, 78
3, 98640, Note_on_c, 2, 57, 78
3, 98640, Note_on_c, 2, 60, 78
3, 98640, Note_on_c, 2, 65, 78
3, 99180, Note_off_c, 2, 65, 0
3, 99180, Note_off_c, 2, 60, 0
3, 99180, Note_off_c, 2, 57, 0
3, 99180, Note_off_c, 2, 53, 0
3, 99180, Note_off_c, 2, 48, 0
3, 99180, Note_off_c, 2, 41, 0
3, 99180, Note_on_c, 2, 53, 78
3, 99180, Note_on_c, 2, 57, 78
3, 99180, Note_on_c, 2, 60, 78
3, 99180, Note_on_c, 2, 65, 78
3, 99360, Note_off_c, 2, 65, 0
3, 99360, Note_off_c, 2, 60, 0
3, 99360, Note_off_c, 2, 57, 0
3, 99360, Note_off_c, 2, 53, 0
3, 99360, Note_on_c, 2, 41, 78
3, 99360, Note_on_c, 2, 48, 78
3, 99360, Note_on_c, 2, 53, 78
3, 99360, Note_on_c, 2, 57, 78
3, 99360, Note_on_c, 2, 60, 78
3, 99360, Note_on_c, 2, 65, 78
3, 99720, Note_off_c, 2, 65, 0
3, 99720, Note_off_c, 2, 60, 0
3, 99720, Note_off_c, 2, 57, 0
3, 99720, Note_off_c, 2, 53, 0
3, 99720, Note_off_c, 2, 48, 0
3, 99720, Note_off_c, 2, 41, 0
3, 99720, Note_on_c, 2, 45, 78
3, 99720, Note_on_c, 2, 57, 78
3, 99900, Note_off_c, 2, 57, 0
3, 99900, Note_off_c, 2, 45, 0
3, 99900, Note_on_c, 3, 45, 78
3, 99900, Note_on_c, 3, 57, 78
3, 99920, Pitch_bend_c, 3, 8112
3, 99940, Pitch_bend_c, 3, 8037
3, 99960, Pitch_bend_c, 3, 7962
3, 99980, Pitch_bend_c, 3, 7887
3, 100000, Pitch_bend_c, 3, 7812
3, 100020, Pitch_bend_c, 3, 7737
3, 100040, Pitch_bend_c, 3, 7662
3, 100060, Pitch_bend_c, 3, 7587
3, 100080, Pitch_bend_c, 3, 7512
3, 100260, Note_off_c, 3, 57, 0
3, 100260, Note_off_c, 3, 45, 0
3, 100260, Pitch_bend_c, 3, 8192
3, 100260, Note_on_c, 3, 45, 78
3, 100260, Note_on_c, 3, 57, 78
3, 100280, Pitch_bend_c, 3, 8112
3, 100300, Pitch_bend_c, 3, 8037
3, 100320, Pitch_bend_c, 3, 7962
3, 100340, Pitch_bend_c, 3, 7887
3, 100360, Pitch_bend_c, 3, 7812
3, 100380, Pitch_bend_c, 3, 7737
3, 100400, Pitch_bend_c, 3, 7662
3, 100420, Pitch_bend_c, 3, 7587
3, 100440, Pitch_bend_c, 3, 7512
3, 100620, Note_off_c, 3, 57, 0
3, 100620, Note_off_c, 3, 45, 0
3, 100620, Pitch_bend_c, 3, 8192
3, 100620, Note_on_c, 2, 45, 78
3, 100620, Note_on_c, 2, 57, 78
3, 100800, Note_off_c, 2, 57, 0
3, 100800, Note_off_c, 2, 45, 0
3, 100800, Note_on_c, 2, 45, 78
3, 100800, Note_on_c, 2, 52, 78
3, 100800, Note_on_c, 2, 57, 78
3, 100800, Note_on_c, 2, 60, 78
3, 100800, Note_on_c, 2, 64, 78
3, 101520, Note_off_c, 2, 64, 0
3, 101520, Note_off_c, 2, 60, 0
3, 101520, Note_off_c, 2, 57, 0
3, 101520, Note_off_c, 2, 52, 0
3, 101520, Note_off_c, 2, 45, 0
3, 101520, Note_on_c, 2, 45, 78
3, 101520, Note_on_c, 2, 52, 78
3, 101520, Note_on_c, 2, 57, 78
3, 101520, Note_on_c, 2, 60, 78
3, 101520, Note_on_c, 2, 64, 78
3, 101520, Note_on_c, 2, 69, 78
3, 102060, Note_off_c, 2, 69, 0
3, 102060, Note_off_c, 2, 64, 0
3, 102060, Note_off_c, 2, 60, 0
3, 102060, Note_off_c, 2, 57, 0
3, 102060, Note_off_c, 2, 52, 0
3, 102060, Note_off_c, 2, 45, 0
3, 102060, Note_on_c, 2, 57, 78
3, 102060, Note_on_c, 2, 60, 78
3, 102060, Note_on_c, 2, 64, 78
3, 102060, Note_on_c, 2, 69, 78
3, 102240, Note_off_c, 2, 69, 0
3, 102240, Note_off_c, 2, 64, 0
3, 102240, Note_off_c, 2, 60, 0
3, 102240, Note_off_c, 2, 57, 0
3, 102240, Note_on_c, 2, 45, 78
3, 102240, Note_on_c, 2, 52, 78
3, 102240, Note_on_c, 2, 57, 78
3, 102240, Note_on_c, 2, 60, 78
3, 102240, Note_on_c, 2, 64, 78
3, 102600, Note_off_c, 2, 64, 0
3, 102600, Note_off_c, 2, 60, 0
3, 102600, Note_off_c, 2, 57, 0
3, 102600, Note_off_c, 2, 52, 0
3, 102600, Note_off_c, 2, 45, 0
3, 102600, Note_on_c, 2, 45, 78
3, 102600, Note_on_c, 2, 57, 78
3, 102780, Note_off_c, 2, 57, 0
3, 102780, Note_off_c, 2, 45, 0
3, 102780, Note_on_c, 2, 45, 78
3, 102780, Note_on_c, 2, 57, 78
3, 102960, Note_off_c, 2, 57, 0
3, 102960, Note_off_c, 2, 45, 0
3, 102960, Note_on_c, 2, 43, 78
3, 102960, Note_on_c, 2, 55, 78
3, 103140, Note_off_c, 2, 55, 0
3, 103140, Note_off_c, 2, 43, 0
3, 103140, Note_on_c, 2, 43, 78
3, 103140, Note_on_c, 2, 55, 78
3, 103320, Note_off_c, 2, 55, 0
3, 103320, Note_off_c, 2, 43, 0
3, 103320, Note_on_c, 2, 41, 78
3, 103320, Note_on_c, 2, 48, 78
3, 103320, Note_on_c, 2, 53, 78
3, 103320, Note_on_c, 2, 57, 78
3, 103320, Note_on_c, 2, 60, 78
3, 103320, Note_on_c, 2, 65, 78
3, 104040, Note_off_c, 2, 65, 0
3, 104040, Note_off_c, 2, 60, 0
3, 104040, Note_off_c, 2, 57, 0
3, 104040, Note_off_c, 2, 53, 0
3, 104040, Note_off_c, 2, 48, 0
3, 104040, Note_off_c, 2, 41, 0
3, 104040, Note_on_c, 2, 41, 78
3, 104400, Note_off_c, 2, 41, 0
3, 104400, Note_on_c, 2, 41, 78
3, 104400, Note_on_c, 2, 48, 78
3, 104400, Note_on_c, 2, 53, 78
3, 104400, Note_on_c, 2, 57, 78
3, 104400, Note_on_c, 2, 60, 78
3, 104400, Note_on_c, 2, 65, 78
3, 104940, Note_off_c, 2, 65, 0
3, 104940, Note_off_c, 2, 60, 0
3, 104940, Note_off_c, 2, 57, 0
3, 104940, Note_off_c, 2, 53, 0
3, 104940, Note_off_c, 2, 48, 0
3, 104940, Note_off_c, 2, 41, 0
3, 104940, Note_on_c, 2, 53, 78
3, 104940, Note_on_c, 2, 57, 78
3, 104940, Note_on_c, 2, 60, 78
3, 104940, Note_on_c, 2, 65, 78
3, 105120, Note_off_c, 2, 65, 0
3, 105120, Note_off_c, 2, 60, 0
3, 105120, Note_off_c, 2, 57, 0
3, 105120, Note_off_c, 2, 53, 0
3, 105120, Note_on_c, 2, 41, 78
3, 105120, Note_on_c, 2, 48, 78
3, 105120, Note_on_c, 2, 53, 78
3, 105120, Note_on_c, 2, 57, 78
3, 105120, Note_on_c, 2, 60, 78
3, 105120, Note_on_c, 2, 65, 78
3, 105480, Note_off_c, 2, 65, 0
3, 105480, Note_off_c, 2, 60, 0
3, 105480, Note_off_c, 2, 57, 0
3, 105480, Note_off_c, 2, 53, 0
3, 105480, Note_off_c, 2, 48, 0
3, 105480, Note_off_c, 2, 41, 0
3, 105480, Note_on_c, 2, 45, 78
3, 105480, Note_on_c, 2, 57, 78
3, 105660, Note_off_c, 2, 57, 0
3, 105660, Note_off_c, 2, 45, 0
3, 105660, Note_on_c, 2, 45, 78
3, 105660, Note_on_c, 2, 57, 78
3, 105840, Note_off_c, 2, 57, 0
3, 105840, Note_off_c, 2, 45, 0
3, 105840, Note_on_c, 2, 43, 78
3, 105840, Note_on_c, 2, 55, 78
3, 106020, Note_off_c, 2, 55, 0
3, 106020, Note_off_c, 2, 43, 0
3, 106020, Note_on_c, 2, 44, 78
3, 106020, Note_on_c, 2, 56, 78
3, 106200, Note_off_c, 2, 56, 0
3, 106200, Note_off_c, 2, 44, 0
3, 106200, Note_on_c, 2, 43, 78
3, 106200, Note_on_c, 2, 55, 78
3, 106380, Note_off_c, 2, 55, 0
3, 106380, Note_off_c, 2, 43, 0
3, 106380, Note_on_c, 2, 44, 78
3, 106380, Note_on_c, 2, 56, 78
3, 106560, Note_off_c, 2, 56, 0
3, 106560, Note_off_c, 2, 44, 0
3, 106560, Note_on_c, 2, 41, 78
3, 106560, Note_on_c, 2, 48, 78
3, 106560, Note_on_c, 2, 53, 78
3, 106560, Note_on_c, 2, 56, 78
3, 106560, Note_on_c, 2, 60, 78
3, 106560, Note_on_c, 2, 65, 78
3, 107280, Note_off_c, 2, 65, 0
3, 107280, Note_off_c, 2, 60, 0
3, 107280, Note_off_c, 2, 56, 0
3, 107280, Note_off_c, 2, 53, 0
3, 107280, Note_off_c, 2, 48, 0
3, 107280, Note_off_c, 2, 41, 0
3, 107280, Note_on_c, 2, 41, 78
3, 107280, Note_on_c, 2, 48, 78
3, 107280, Note_on_c, 2, 53, 78
3, 107280, Note_on_c, 2, 56, 78
3, 107280, Note_on_c, 2, 60, 78
3, 107280, Note_on_c, 2, 65, 78
3, 107820, Note_off_c, 2, 65, 0
3, 107820, Note_off_c, 2, 60, 0
3, 107820, Note_off_c, 2, 56, 0
3, 107820, Note_off_c, 2, 53, 0
3, 107820, Note_off_c, 2, 48, 0
3, 107820, Note_off_c, 2, 41, 0
3, 107820, Note_on_c, 2, 53, 78
3, 107820, Note_on_c, 2, 56, 78
3, 107820, Note_on_c, 2, 60, 78
3, 107820, Note_on_c, 2, 65, 78
3, 108000, Note_off_c, 2, 65, 0
3, 108000, Note_off_c, 2, 60, 0
3, 108000, Note_off_c, 2, 56, 0
3, 108000, Note_off_c, 2, 53, 0
3, 108000, Note_on_c, 2, 41, 78
3, 108000, Note_on_c, 2, 48, 78
3, 108000, Note_on_c, 2, 53, 78
3, 108000, Note_on_c, 2, 56, 78
3, 108000, Note_on_c, 2, 60, 78
3, 108360, Note_off_c, 2, 60, 0
3, 108360, Note_off_c, 2, 56, 0
3, 108360, Note_off_c, 2, 53, 0
3, 108360, Note_off_c, 2, 48, 0
3, 108360, Note_off_c, 2, 41, 0
3, 108360, Note_on_c, 2, 44, 78
3, 108360, Note_on_c, 2, 56, 78
3, 108540, Note_off_c, 2, 56, 0
3, 108540, Note_off_c, 2, 44, 0
3, 108540, Note_on_c, 2, 44, 78
3, 108540, Note_on_c, 2, 56, 78
3, 108720, Note_off_c, 2, 56, 0
3, 108720, Note_off_c, 2, 44, 0
3, 108720, Note_on_c, 2, 44, 78
3, 108720, Note_on_c, 2, 56, 78
3, 108900, Note_off_c, 2, 56, 0
3, 108900, Note_off_c, 2, 44, 0
3, 108900, Note_on_c, 2, 44, 78
3, 108900, Note_on_c, 2, 56, 78
3, 109080, Note_off_c, 2, 56, 0
3, 109080, Note_off_c, 2, 44, 0
3, 109080, Note_on_c, 2, 43, 78
3, 109080, Note_on_c, 2, 55, 78
3, 109260, Note_off_c, 2, 55, 0
3, 109260, Note_off_c, 2, 43, 0
3, 109260, Note_on_c, 2, 43, 78
3, 109260, Note_on_c, 2, 55, 78
3, 109440, Note_off_c, 2, 55, 0
3, 109440, Note_off_c, 2, 43, 0
3, 109440, Note_on_c, 2, 43, 78
3, 109440, Note_on_c, 2, 48, 78
3, 109440, Note_on_c, 2, 52, 78
3, 109440, Note_on_c, 2, 55, 78
3, 109440, Note_on_c, 2, 60, 78
3, 109440, Note_on_c, 2, 64, 78
3, 112320, Note_off_c, 2, 64, 0
3, 112320, Note_off_c, 2, 60, 0
3, 112320, Note_off_c, 2, 55, 0
3, 112320, Note_off_c, 2, 52, 0
3, 112320, Note_off_c, 2, 48, 0
3, 112320, Note_off_c, 2, 43, 0
3, 141120, Note_on_c, 2, 45, 65
3, 141120, Note_on_c, 2, 52, 65
3, 141120, Note_on_c, 2, 57, 65
3, 141120, Note_on_c, 2, 61, 65
3, 141120, Note_on_c, 2, 64, 65
3, 141120, Note_on_c, 2, 69, 65
3, 141480, Note_off_c, 2, 69, 0
3, 141480, Note_off_c, 2, 64, 0
3, 141480, Note_off_c, 2, 61, 0
3, 141480, Note_off_c, 2, 57, 0
3, 141480, Note_off_c, 2, 52, 0
3, 141480, Note_off_c, 2, 45, 0
3, 141480, Note_on_c, 2, 45, 65
3, 141480, Note_on_c, 2, 52, 65
3, 141480, Note_on_c, 2, 57, 65
3, 141480, Note_on_c, 2, 61, 65
3, 141480, Note_on_c, 2, 64, 65
3, 141480, Note_on_c, 2, 69, 65
3, 141840, Note_off_c, 2, 69, 0
3, 141840, Note_off_c, 2, 64, 0
3, 141840, Note_off_c, 2, 61, 0
3, 141840, Note_off_c, 2, 57, 0
3, 141840, Note_off_c, 2, 52, 0
3, 141840, Note_off_c, 2, 45, 0
3, 141840, Note_on_c, 2, 45, 65
3, 141840, Note_on_c, 2, 52, 65
3, 141840, Note_on_c, 2, 57, 65
3, 141840, Note_on_c, 2, 61, 65
3, 141840, Note_on_c, 2, 64, 65
3, 141840, Note_on_c, 2, 69, 65
3, 142200, Note_off_c, 2, 69, 0
3, 142200, Note_off_c, 2, 64, 0
3, 142200, Note_off_c, 2, 61, 0
3, 142200, Note_off_c, 2, 57, 0
3, 142200, Note_off_c, 2, 52, 0
3, 142200, Note_off_c, 2, 45, 0
3, 142200, Note_on_c, 2, 45, 65
3, 142200, Note_on_c, 2, 52, 65
3, 142200, Note_on_c, 2, 57, 65
3, 142200, Note_on_c, 2, 61, 65
3, 142200, Note_on_c, 2, 64, 65
3, 142200, Note_on_c, 2, 69, 65
3, 142560, Note_off_c, 2, 69, 0
3, 142560, Note_off_c, 2, 64, 0
3, 142560, Note_off_c, 2, 61, 0
3, 142560, Note_off_c, 2, 57, 0
3, 142560, Note_off_c, 2, 52, 0
3, 142560, Note_off_c, 2, 45, 0
3, 142560, Note_on_c, 2, 45, 65
3, 142560, Note_on_c, 2, 52, 65
3, 142560, Note_on_c, 2, 57, 65
3, 142560, Note_on_c, 2, 61, 65
3, 142560, Note_on_c, 2, 64, 65
3, 142560, Note_on_c, 2, 69, 65
3, 142920, Note_off_c, 2, 69, 0
3, 142920, Note_off_c, 2, 64, 0
3, 142920, Note_off_c, 2, 61, 0
3, 142920, Note_off_c, 2, 57, 0
3, 142920, Note_off_c, 2, 52, 0
3, 142920, Note_off_c, 2, 45, 0
3, 142920, Note_on_c, 2, 45, 65
3, 142920, Note_on_c, 2, 52, 65
3, 142920, Note_on_c, 2, 57, 65
3, 142920, Note_on_c, 2, 61, 65
3, 142920, Note_on_c, 2, 64, 65
3, 142920, Note_on_c, 2, 69, 65
3, 143280, Note_off_c, 2, 69, 0
3, 143280, Note_off_c, 2, 64, 0
3, 143280, Note_off_c, 2, 61, 0
3, 143280, Note_off_c, 2, 57, 0
3, 143280, Note_off_c, 2, 52, 0
3, 143280, Note_off_c, 2, 45, 0
3, 143280, Note_on_c, 2, 45, 65
3, 143280, Note_on_c, 2, 52, 65
3, 143280, Note_on_c, 2, 57, 65
3, 143280, Note_on_c, 2, 61, 65
3, 143280, Note_on_c, 2, 64, 65
3, 143280, Note_on_c, 2, 69, 65
3, 143640, Note_off_c, 2, 69, 0
3, 143640, Note_off_c, 2, 64, 0
3, 143640, Note_off_c, 2, 61, 0
3, 143640, Note_off_c, 2, 57, 0
3, 143640, Note_off_c, 2, 52, 0
3, 143640, Note_off_c, 2, 45, 0
3, 143640, Note_on_c, 2, 45, 65
3, 143640, Note_on_c, 2, 52, 65
3, 143640, Note_on_c, 2, 57, 65
3, 143640, Note_on_c, 2, 61, 65
3, 143640, Note_on_c, 2, 64, 65
3, 143640, Note_on_c, 2, 69, 65
3, 144000, Note_off_c, 2, 69, 0
3, 144000, Note_off_c, 2, 64, 0
3, 144000, Note_off_c, 2, 61, 0
3, 144000, Note_off_c, 2, 57, 0
3, 144000, Note_off_c, 2, 52, 0
3, 144000, Note_off_c, 2, 45, 0
3, 144000, Note_on_c, 2, 45, 65
3, 144000, Note_on_c, 2, 52, 65
3, 144000, Note_on_c, 2, 57, 65
3, 144000, Note_on_c, 2, 61, 65
3, 144000, Note_on_c, 2, 64, 65
3, 144000, Note_on_c, 2, 69, 65
3, 144360, Note_off_c, 2, 69, 0
3, 144360, Note_off_c, 2, 64, 0
3, 144360, Note_off_c, 2, 61, 0
3, 144360, Note_off_c, 2, 57, 0
3, 144360, Note_off_c, 2, 52, 0
3, 144360, Note_off_c, 2, 45, 0
3, 144360, Note_on_c, 2, 45, 65
3, 144360, Note_on_c, 2, 52, 65
3, 144360, Note_on_c, 2, 57, 65
3, 144360, Note_on_c, 2, 61, 65
3, 144360, Note_on_c, 2, 64, 65
3, 144360, Note_on_c, 2, 69, 65
3, 144720, Note_off_c, 2, 69, 0
3, 144720, Note_off_c, 2, 64, 0
3, 144720, Note_off_c, 2, 61, 0
3, 144720, Note_off_c, 2, 57, 0
3, 144720, Note_off_c, 2, 52, 0
3, 144720, Note_off_c, 2, 45, 0
3, 144720, Note_on_c, 2, 45, 65
3, 144720, Note_on_c, 2, 52, 65
3, 144720, Note_on_c, 2, 57, 65
3, 144720, Note_on_c, 2, 61, 65
3, 144720, Note_on_c, 2, 64, 65
3, 144720, Note_on_c, 2, 69, 65
3, 145080, Note_off_c, 2, 69, 0
3, 145080, Note_off_c, 2, 64, 0
3, 145080, Note_off_c, 2, 61, 0
3, 145080, Note_off_c, 2, 57, 0
3, 145080, Note_off_c, 2, 52, 0
3, 145080, Note_off_c, 2, 45, 0
3, 145080, Note_on_c, 2, 45, 65
3, 145080, Note_on_c, 2, 52, 65
3, 145080, Note_on_c, 2, 57, 65
3, 145080, Note_on_c, 2, 61, 65
3, 145080, Note_on_c, 2, 64, 65
3, 145080, Note_on_c, 2, 69, 65
3, 145440, Note_off_c, 2, 69, 0
3, 145440, Note_off_c, 2, 64, 0
3, 145440, Note_off_c, 2, 61, 0
3, 145440, Note_off_c, 2, 57, 0
3, 145440, Note_off_c, 2, 52, 0
3, 145440, Note_off_c, 2, 45, 0
3, 145440, Note_on_c, 2, 45, 65
3, 145440, Note_on_c, 2, 52, 65
3, 145440, Note_on_c, 2, 57, 65
3, 145440, Note_on_c, 2, 61, 65
3, 145440, Note_on_c, 2, 64, 65
3, 145440, Note_on_c, 2, 69, 65
3, 145800, Note_off_c, 2, 69, 0
3, 145800, Note_off_c, 2, 64, 0
3, 145800, Note_off_c, 2, 61, 0
3, 145800, Note_off_c, 2, 57, 0
3, 145800, Note_off_c, 2, 52, 0
3, 145800, Note_off_c, 2, 45, 0
3, 145800, Note_on_c, 2, 45, 65
3, 145800, Note_on_c, 2, 52, 65
3, 145800, Note_on_c, 2, 57, 65
3, 145800, Note_on_c, 2, 61, 65
3, 145800, Note_on_c, 2, 64, 65
3, 145800, Note_on_c, 2, 69, 65
3, 146160, Note_off_c, 2, 69, 0
3, 146160, Note_off_c, 2, 64, 0
3, 146160, Note_off_c, 2, 61, 0
3, 146160, Note_off_c, 2, 57, 0
3, 146160, Note_off_c, 2, 52, 0
3, 146160, Note_off_c, 2, 45, 0
3, 146160, Note_on_c, 2, 45, 65
3, 146160, Note_on_c, 2, 52, 65
3, 146160, Note_on_c, 2, 57, 65
3, 146160, Note_on_c, 2, 61, 65
3, 146160, Note_on_c, 2, 64, 65
3, 146160, Note_on_c, 2, 69, 65
3, 146520, Note_off_c, 2, 69, 0
3, 146520, Note_off_c, 2, 64, 0
3, 146520, Note_off_c, 2, 61, 0
3, 146520, Note_off_c, 2, 57, 0
3, 146520, Note_off_c, 2, 52, 0
3, 146520, Note_off_c, 2, 45, 0
3, 146520, Note_on_c, 2, 45, 65
3, 146520, Note_on_c, 2, 52, 65
3, 146520, Note_on_c, 2, 57, 65
3, 146520, Note_on_c, 2, 61, 65
3, 146520, Note_on_c, 2, 64, 65
3, 146520, Note_on_c, 2, 69, 65
3, 146880, Note_off_c, 2, 69, 0
3, 146880, Note_off_c, 2, 64, 0
3, 146880, Note_off_c, 2, 61, 0
3, 146880, Note_off_c, 2, 57, 0
3, 146880, Note_off_c, 2, 52, 0
3, 146880, Note_off_c, 2, 45, 0
3, 146880, Note_on_c, 2, 48, 65
3, 146880, Note_on_c, 2, 55, 65
3, 146880, Note_on_c, 2, 60, 65
3, 146880, Note_on_c, 2, 64, 65
3, 146880, Note_on_c, 2, 67, 65
3, 146880, Note_on_c, 2, 72, 65
3, 147240, Note_off_c, 2, 72, 0
3, 147240, Note_off_c, 2, 67, 0
3, 147240, Note_off_c, 2, 64, 0
3, 147240, Note_off_c, 2, 60, 0
3, 147240, Note_off_c, 2, 55, 0
3, 147240, Note_off_c, 2, 48, 0
3, 147240, Note_on_c, 2, 48, 65
3, 147240, Note_on_c, 2, 55, 65
3, 147240, Note_on_c, 2, 60, 65
3, 147240, Note_on_c, 2, 64, 65
3, 147240, Note_on_c, 2, 67, 65
3, 147240, Note_on_c, 2, 72, 65
3, 147600, Note_off_c, 2, 72, 0
3, 147600, Note_off_c, 2, 67, 0
3, 147600, Note_off_c, 2, 64, 0
3, 147600, Note_off_c, 2, 60, 0
3, 147600, Note_off_c, 2, 55, 0
3, 147600, Note_off_c, 2, 48, 0
3, 147600, Note_on_c, 2, 48, 65
3, 147600, Note_on_c, 2, 55, 65
3, 147600, Note_on_c, 2, 60, 65
3, 147600, Note_on_c, 2, 64, 65
3, 147600, Note_on_c, 2, 67, 65
3, 147600, Note_on_c, 2, 72, 65
3, 147960, Note_off_c, 2, 72, 0
3, 147960, Note_off_c, 2, 67, 0
3, 147960, Note_off_c, 2, 64, 0
3, 147960, Note_off_c, 2, 60, 0
3, 147960, Note_off_c, 2, 55, 0
3, 147960, Note_off_c, 2, 48, 0
3, 147960, Note_on_c, 2, 48, 65
3, 147960, Note_on_c, 2, 55, 65
3, 147960, Note_on_c, 2, 60, 65
3, 147960, Note_on_c, 2, 64, 65
3, 147960, Note_on_c, 2, 67, 65
3, 147960, Note_on_c, 2, 72, 65
3, 148320, Note_off_c, 2, 72, 0
3, 148320, Note_off_c, 2, 67, 0
3, 148320, Note_off_c, 2, 64, 0
3, 148320, Note_off_c, 2, 60, 0
3, 148320, Note_off_c, 2, 55, 0
3, 148320, Note_off_c, 2, 48, 0
3, 148320, Note_on_c, 2, 48, 65
3, 148320, Note_on_c, 2, 55, 65
3, 148320, Note_on_c, 2, 60, 65
3, 148320, Note_on_c, 2, 64, 65
3, 148320, Note_on_c, 2, 67, 65
3, 148320, Note_on_c, 2, 72, 65
3, 148680, Note_off_c, 2, 72, 0
3, 148680, Note_off_c, 2, 67, 0
3, 148680, Note_off_c, 2, 64, 0
3, 148680, Note_off_c, 2, 60, 0
3, 148680, Note_off_c, 2, 55, 0
3, 148680, Note_off_c, 2, 48, 0
3, 148680, Note_on_c, 2, 48, 65
3, 148680, Note_on_c, 2, 55, 65
3, 148680, Note_on_c, 2, 60, 65
3, 148680, Note_on_c, 2, 64, 65
3, 148680, Note_on_c, 2, 67, 65
3, 148680, Note_on_c, 2, 72, 65
3, 149040, Note_off_c, 2, 72, 0
3, 149040, Note_off_c, 2, 67, 0
3, 149040, Note_off_c, 2, 64, 0
3, 149040, Note_off_c, 2, 60, 0
3, 149040, Note_off_c, 2, 55, 0
3, 149040, Note_off_c, 2, 48, 0
3, 149040, Note_on_c, 2, 48, 65
3, 149040, Note_on_c, 2, 55, 65
3, 149040, Note_on_c, 2, 60, 65
3, 149040, Note_on_c, 2, 64, 65
3, 149040, Note_on_c, 2, 67, 65
3, 149040, Note_on_c, 2, 72, 65
3, 149400, Note_off_c, 2, 72, 0
3, 149400, Note_off_c, 2, 67, 0
3, 149400, Note_off_c, 2, 64, 0
3, 149400, Note_off_c, 2, 60, 0
3, 149400, Note_off_c, 2, 55, 0
3, 149400, Note_off_c, 2, 48, 0
3, 149400, Note_on_c, 2, 48, 65
3, 149400, Note_on_c, 2, 55, 65
3, 149400, Note_on_c, 2, 60, 65
3, 149400, Note_on_c, 2, 64, 65
3, 149400, Note_on_c, 2, 67, 65
3, 149400, Note_on_c, 2, 72, 65
3, 149760, Note_off_c, 2, 72, 0
3, 149760, Note_off_c, 2, 67, 0
3, 149760, Note_off_c, 2, 64, 0
3, 149760, Note_off_c, 2, 60, 0
3, 149760, Note_off_c, 2, 55, 0
3, 149760, Note_off_c, 2, 48, 0
3, 149760, Note_on_c, 2, 48, 65
3, 149760, Note_on_c, 2, 55, 65
3, 149760, Note_on_c, 2, 60, 65
3, 149760, Note_on_c, 2, 64, 65
3, 149760, Note_on_c, 2, 67, 65
3, 149760, Note_on_c, 2, 72, 65
3, 150120, Note_off_c, 2, 72, 0
3, 150120, Note_off_c, 2, 67, 0
3, 150120, Note_off_c, 2, 64, 0
3, 150120, Note_off_c, 2, 60, 0
3, 150120, Note_off_c, 2, 55, 0
3, 150120, Note_off_c, 2, 48, 0
3, 150120, Note_on_c, 2, 48, 65
3, 150120, Note_on_c, 2, 55, 65
3, 150120, Note_on_c, 2, 60, 65
3, 150120, Note_on_c, 2, 64, 65
3, 150120, Note_on_c, 2, 67, 65
3, 150120, Note_on_c, 2, 72, 65
3, 150480, Note_off_c, 2, 72, 0
3, 150480, Note_off_c, 2, 67, 0
3, 150480, Note_off_c, 2, 64, 0
3, 150480, Note_off_c, 2, 60, 0
3, 150480, Note_off_c, 2, 55, 0
3, 150480, Note_off_c, 2, 48, 0
3, 150480, Note_on_c, 2, 48, 65
3, 150480, Note_on_c, 2, 55, 65
3, 150480, Note_on_c, 2, 60, 65
3, 150480, Note_on_c, 2, 64, 65
3, 150480, Note_on_c, 2, 67, 65
3, 150480, Note_on_c, 2, 72, 65
3, 150840, Note_off_c, 2, 72, 0
3, 150840, Note_off_c, 2, 67, 0
3, 150840, Note_off_c, 2, 64, 0
3, 150840, Note_off_c, 2, 60, 0
3, 150840, Note_off_c, 2, 55, 0
3, 150840, Note_off_c, 2, 48, 0
3, 150840, Note_on_c, 2, 48, 65
3, 150840, Note_on_c, 2, 55, 65
3, 150840, Note_on_c, 2, 60, 65
3, 150840, Note_on_c, 2, 64, 65
3, 150840, Note_on_c, 2, 67, 65
3, 150840, Note_on_c, 2, 72, 65
3, 151200, Note_off_c, 2, 72, 0
3, 151200, Note_off_c, 2, 67, 0
3, 151200, Note_off_c, 2, 64, 0
3, 151200, Note_off_c, 2, 60, 0
3, 151200, Note_off_c, 2, 55, 0
3, 151200, Note_off_c, 2, 48, 0
3, 151200, Note_on_c, 2, 48, 65
3, 151200, Note_on_c, 2, 55, 65
3, 151200, Note_on_c, 2, 60, 65
3, 151200, Note_on_c, 2, 64, 65
3, 151200, Note_on_c, 2, 67, 65
3, 151200, Note_on_c, 2, 72, 65
3, 151560, Note_off_c, 2, 72, 0
3, 151560, Note_off_c, 2, 67, 0
3, 151560, Note_off_c, 2, 64, 0
3, 151560, Note_off_c, 2, 60, 0
3, 151560, Note_off_c, 2, 55, 0
3, 151560, Note_off_c, 2, 48, 0
3, 151560, Note_on_c, 2, 48, 65
3, 151560, Note_on_c, 2, 55, 65
3, 151560, Note_on_c, 2, 60, 65
3, 151560, Note_on_c, 2, 64, 65
3, 151560, Note_on_c, 2, 67, 65
3, 151560, Note_on_c, 2, 72, 65
3, 151920, Note_off_c, 2, 72, 0
3, 151920, Note_off_c, 2, 67, 0
3, 151920, Note_off_c, 2, 64, 0
3, 151920, Note_off_c, 2, 60, 0
3, 151920, Note_off_c, 2, 55, 0
3, 151920, Note_off_c, 2, 48, 0
3, 151920, Note_on_c, 2, 48, 65
3, 151920, Note_on_c, 2, 55, 65
3, 151920, Note_on_c, 2, 60, 65
3, 151920, Note_on_c, 2, 64, 65
3, 151920, Note_on_c, 2, 67, 65
3, 151920, Note_on_c, 2, 72, 65
3, 152280, Note_off_c, 2, 72, 0
3, 152280, Note_off_c, 2, 67, 0
3, 152280, Note_off_c, 2, 64, 0
3, 152280, Note_off_c, 2, 60, 0
3, 152280, Note_off_c, 2, 55, 0
3, 152280, Note_off_c, 2, 48, 0
3, 152280, Note_on_c, 2, 48, 65
3, 152280, Note_on_c, 2, 55, 65
3, 152280, Note_on_c, 2, 60, 65
3, 152280, Note_on_c, 2, 64, 65
3, 152280, Note_on_c, 2, 67, 65
3, 152280, Note_on_c, 2, 72, 65
3, 152640, Note_off_c, 2, 72, 0
3, 152640, Note_off_c, 2, 67, 0
3, 152640, Note_off_c, 2, 64, 0
3, 152640, Note_off_c, 2, 60, 0
3, 152640, Note_off_c, 2, 55, 0
3, 152640, Note_off_c, 2, 48, 0
3, 152640, Note_on_c, 2, 41, 65
3, 152640, Note_on_c, 2, 48, 65
3, 152640, Note_on_c, 2, 53, 65
3, 152640, Note_on_c, 2, 57, 65
3, 152640, Note_on_c, 2, 60, 65
3, 152640, Note_on_c, 2, 65, 65
3, 153000, Note_off_c, 2, 65, 0
3, 153000, Note_off_c, 2, 60, 0
3, 153000, Note_off_c, 2, 57, 0
3, 153000, Note_off_c, 2, 53, 0
3, 153000, Note_off_c, 2, 48, 0
3, 153000, Note_off_c, 2, 41, 0
3, 153000, Note_on_c, 2, 41, 65
3, 153000, Note_on_c, 2, 48, 65
3, 153000, Note_on_c, 2, 53, 65
3, 153000, Note_on_c, 2, 57, 65
3, 153000, Note_on_c, 2, 60, 65
3, 153000, Note_on_c, 2, 65, 65
3, 153360, Note_off_c, 2, 65, 0
3, 153360, Note_off_c, 2, 60, 0
3, 153360, Note_off_c, 2, 57, 0
3, 153360, Note_off_c, 2, 53, 0
3, 153360, Note_off_c, 2, 48, 0
3, 153360, Note_off_c, 2, 41, 0
3, 153360, Note_on_c, 2, 41, 65
3, 153360, Note_on_c, 2, 48, 65
3, 153360, Note_on_c, 2, 53, 65
3, 153360, Note_on_c, 2, 57, 65
3, 153360, Note_on_c, 2, 60, 65
3, 153360, Note_on_c, 2, 65, 65
3, 153720, Note_off_c, 2, 65, 0
3, 153720, Note_off_c, 2, 60, 0
3, 153720, Note_off_c, 2, 57, 0
3, 153720, Note_off_c, 2, 53, 0
3, 153720, Note_off_c, 2, 48, 0
3, 153720, Note_off_c, 2, 41, 0
3, 153720, Note_on_c, 2, 41, 65
3, 153720, Note_on_c, 2, 48, 65
3, 153720, Note_on_c, 2, 53, 65
3, 153720, Note_on_c, 2, 57, 65
3, 153720, Note_on_c, 2, 60, 65
3, 153720, Note_on_c, 2, 65, 65
3, 154080, Note_off_c, 2, 65, 0
3, 154080, Note_off_c, 2, 60, 0
3, 154080, Note_off_c, 2, 57, 0
3, 154080, Note_off_c, 2, 53, 0
3, 154080, Note_off_c, 2, 48, 0
3, 154080, Note_off_c, 2, 41, 0
3, 154080, Note_on_c, 2, 41, 65
3, 154080, Note_on_c, 2, 48, 65
3, 154080, Note_on_c, 2, 53, 65
3, 154080, Note_on_c, 2, 57, 65
3, 154080, Note_on_c, 2, 60, 65
3, 154080, Note_on_c, 2, 65, 65
3, 154440, Note_off_c, 2, 65, 0
3, 154440, Note_off_c, 2, 60, 0
3, 154440, Note_off_c, 2, 57, 0
3, 154440, Note_off_c, 2, 53, 0
3, 154440, Note_off_c, 2, 48, 0
3, 154440, Note_off_c, 2, 41, 0
3, 154440, Note_on_c, 2, 41, 65
3, 154440, Note_on_c, 2, 48, 65
3, 154440, Note_on_c, 2, 53, 65
3, 154440, Note_on_c, 2, 57, 65
3, 154440, Note_on_c, 2, 60, 65
3, 154440, Note_on_c, 2, 65, 65
3, 154800, Note_off_c, 2, 65, 0
3, 154800, Note_off_c, 2, 60, 0
3, 154800, Note_off_c, 2, 57, 0
3, 154800, Note_off_c, 2, 53, 0
3, 154800, Note_off_c, 2, 48, 0
3, 154800, Note_off_c, 2, 41, 0
3, 154800, Note_on_c, 2, 41, 65
3, 154800, Note_on_c, 2, 48, 65
3, 154800, Note_on_c, 2, 53, 65
3, 154800, Note_on_c, 2, 57, 65
3, 154800, Note_on_c, 2, 60, 65
3, 154800, Note_on_c, 2, 65, 65
3, 155160, Note_off_c, 2, 65, 0
3, 155160, Note_off_c, 2, 60, 0
3, 155160, Note_off_c, 2, 57, 0
3, 155160, Note_off_c, 2, 53, 0
3, 155160, Note_off_c, 2, 48, 0
3, 155160, Note_off_c, 2, 41, 0
3, 155160, Note_on_c, 2, 41, 65
3, 155160, Note_on_c, 2, 48, 65
3, 155160, Note_on_c, 2, 53, 65
3, 155160, Note_on_c, 2, 57, 65
3, 155160, Note_on_c, 2, 60, 65
3, 155160, Note_on_c, 2, 65, 65
3, 155520, Note_off_c, 2, 65, 0
3, 155520, Note_off_c, 2, 60, 0
3, 155520, Note_off_c, 2, 57, 0
3, 155520, Note_off_c, 2, 53, 0
3, 155520, Note_off_c, 2, 48, 0
3, 155520, Note_off_c, 2, 41, 0
3, 155520, Note_on_c, 2, 41, 65
3, 155520, Note_on_c, 2, 48, 65
3, 155520, Note_on_c, 2, 53, 65
3, 155520, Note_on_c, 2, 57, 65
3, 155520, Note_on_c, 2, 60, 65
3, 155520, Note_on_c, 2, 65, 65
3, 155880, Note_off_c, 2, 65, 0
3, 155880, Note_off_c, 2, 60, 0
3, 155880, Note_off_c, 2, 57, 0
3, 155880, Note_off_c, 2, 53, 0
3, 155880, Note_off_c, 2, 48, 0
3, 155880, Note_off_c, 2, 41, 0
3, 155880, Note_on_c, 2, 41, 65
3, 155880, Note_on_c, 2, 48, 65
3, 155880, Note_on_c, 2, 53, 65
3, 155880, Note_on_c, 2, 57, 65
3, 155880, Note_on_c, 2, 60, 65
3, 155880, Note_on_c, 2, 65, 65
3, 156240, Note_off_c, 2, 65, 0
3, 156240, Note_off_c, 2, 60, 0
3, 156240, Note_off_c, 2, 57, 0
3, 156240, Note_off_c, 2, 53, 0
3, 156240, Note_off_c, 2, 48, 0
3, 156240, Note_off_c, 2, 41, 0
3, 156240, Note_on_c, 2, 41, 65
3, 156240, Note_on_c, 2, 48, 65
3, 156240, Note_on_c, 2, 53, 65
3, 156240, Note_on_c, 2, 57, 65
3, 156240, Note_on_c, 2, 60, 65
3, 156240, Note_on_c, 2, 65, 65
3, 156600, Note_off_c, 2, 65, 0
3, 156600, Note_off_c, 2, 60, 0
3, 156600, Note_off_c, 2, 57, 0
3, 156600, Note_off_c, 2, 53, 0
3, 156600, Note_off_c, 2, 48, 0
3, 156600, Note_off_c, 2, 41, 0
3, 156600, Note_on_c, 2, 41, 65
3, 156600, Note_on_c, 2, 48, 65
3, 156600, Note_on_c, 2, 53, 65
3, 156600, Note_on_c, 2, 57, 65
3, 156600, Note_on_c, 2, 60, 65
3, 156600, Note_on_c, 2, 65, 65
3, 156960, Note_off_c, 2, 65, 0
3, 156960, Note_off_c, 2, 60, 0
3, 156960, Note_off_c, 2, 57, 0
3, 156960, Note_off_c, 2, 53, 0
3, 156960, Note_off_c, 2, 48, 0
3, 156960, Note_off_c, 2, 41, 0
3, 156960, Note_on_c, 2, 41, 65
3, 156960, Note_on_c, 2, 48, 65
3, 156960, Note_on_c, 2, 53, 65
3, 156960, Note_on_c, 2, 57, 65
3, 156960, Note_on_c, 2, 60, 65
3, 156960, Note_on_c, 2, 65, 65
3, 157320, Note_off_c, 2, 65, 0
3, 157320, Note_off_c, 2, 60, 0
3, 157320, Note_off_c, 2, 57, 0
3, 157320, Note_off_c, 2, 53, 0
3, 157320, Note_off_c, 2, 48, 0
3, 157320, Note_off_c, 2, 41, 0
3, 157320, Note_on_c, 2, 41, 65
3, 157320, Note_on_c, 2, 48, 65
3, 157320, Note_on_c, 2, 53, 65
3, 157320, Note_on_c, 2, 57, 65
3, 157320, Note_on_c, 2, 60, 65
3, 157320, Note_on_c, 2, 65, 65
3, 157680, Note_off_c, 2, 65, 0
3, 157680, Note_off_c, 2, 60, 0
3, 157680, Note_off_c, 2, 57, 0
3, 157680, Note_off_c, 2, 53, 0
3, 157680, Note_off_c, 2, 48, 0
3, 157680, Note_off_c, 2, 41, 0
3, 157680, Note_on_c, 2, 41, 65
3, 157680, Note_on_c, 2, 48, 65
3, 157680, Note_on_c, 2, 53, 65
3, 157680, Note_on_c, 2, 57, 65
3, 157680, Note_on_c, 2, 60, 65
3, 157680, Note_on_c, 2, 65, 65
3, 158040, Note_off_c, 2, 65, 0
3, 158040, Note_off_c, 2, 60, 0
3, 158040, Note_off_c, 2, 57, 0
3, 158040, Note_off_c, 2, 53, 0
3, 158040, Note_off_c, 2, 48, 0
3, 158040, Note_off_c, 2, 41, 0
3, 158040, Note_on_c, 2, 41, 65
3, 158040, Note_on_c, 2, 48, 65
3, 158040, Note_on_c, 2, 53, 65
3, 158040, Note_on_c, 2, 57, 65
3, 158040, Note_on_c, 2, 60, 65
3, 158040, Note_on_c, 2, 65, 65
3, 158400, Note_off_c, 2, 65, 0
3, 158400, Note_off_c, 2, 60, 0
3, 158400, Note_off_c, 2, 57, 0
3, 158400, Note_off_c, 2, 53, 0
3, 158400, Note_off_c, 2, 48, 0
3, 158400, Note_off_c, 2, 41, 0
3, 158400, Note_on_c, 2, 43, 65
3, 158400, Note_on_c, 2, 50, 65
3, 158400, Note_on_c, 2, 55, 65
3, 158400, Note_on_c, 2, 59, 65
3, 158400, Note_on_c, 2, 62, 65
3, 158400, Note_on_c, 2, 67, 65
3, 158760, Note_off_c, 2, 67, 0
3, 158760, Note_off_c, 2, 62, 0
3, 158760, Note_off_c, 2, 59, 0
3, 158760, Note_off_c, 2, 55, 0
3, 158760, Note_off_c, 2, 50, 0
3, 158760, Note_off_c, 2, 43, 0
3, 158760, Note_on_c, 2, 43, 65
3, 158760, Note_on_c, 2, 50, 65
3, 158760, Note_on_c, 2, 55, 65
3, 158760, Note_on_c, 2, 59, 65
3, 158760, Note_on_c, 2, 62, 65
3, 158760, Note_on_c, 2, 67, 65
3, 159120, Note_off_c, 2, 67, 0
3, 159120, Note_off_c, 2, 62, 0
3, 159120, Note_off_c, 2, 59, 0
3, 159120, Note_off_c, 2, 55, 0
3, 159120, Note_off_c, 2, 50, 0
3, 159120, Note_off_c, 2, 43, 0
3, 159120, Note_on_c, 2, 43, 65
3, 159120, Note_on_c, 2, 50, 65
3, 159120, Note_on_c, 2, 55, 65
3, 159120, Note_on_c, 2, 59, 65
3, 159120, Note_on_c, 2, 62, 65
3, 159120, Note_on_c, 2, 67, 65
3, 159480, Note_off_c, 2, 67, 0
3, 159480, Note_off_c, 2, 62, 0
3, 159480, Note_off_c, 2, 59, 0
3, 159480, Note_off_c, 2, 55, 0
3, 159480, Note_off_c, 2, 50, 0
3, 159480, Note_off_c, 2, 43, 0
3, 159480, Note_on_c, 2, 43, 65
3, 159480, Note_on_c, 2, 50, 65
3, 159480, Note_on_c, 2, 55, 65
3, 159480, Note_on_c, 2, 59, 65
3, 159480, Note_on_c, 2, 62, 65
3, 159480, Note_on_c, 2, 67, 65
3, 159840, Note_off_c, 2, 67, 0
3, 159840, Note_off_c, 2, 62, 0
3, 159840, Note_off_c, 2, 59, 0
3, 159840, Note_off_c, 2, 55, 0
3, 159840, Note_off_c, 2, 50, 0
3, 159840, Note_off_c, 2, 43, 0
3, 159840, Note_on_c, 2, 43, 65
3, 159840, Note_on_c, 2, 50, 65
3, 159840, Note_on_c, 2, 55, 65
3, 159840, Note_on_c, 2, 59, 65
3, 159840, Note_on_c, 2, 62, 65
3, 159840, Note_on_c, 2, 67, 65
3, 160200, Note_off_c, 2, 67, 0
3, 160200, Note_off_c, 2, 62, 0
3, 160200, Note_off_c, 2, 59, 0
3, 160200, Note_off_c, 2, 55, 0
3, 160200, Note_off_c, 2, 50, 0
3, 160200, Note_off_c, 2, 43, 0
3, 160200, Note_on_c, 2, 43, 65
3, 160200, Note_on_c, 2, 50, 65
3, 160200, Note_on_c, 2, 55, 65
3, 160200, Note_on_c, 2, 59, 65
3, 160200, Note_on_c, 2, 62, 65
3, 160200, Note_on_c, 2, 67, 65
3, 160560, Note_off_c, 2, 67, 0
3, 160560, Note_off_c, 2, 62, 0
3, 160560, Note_off_c, 2, 59, 0
3, 160560, Note_off_c, 2, 55, 0
3, 160560, Note_off_c, 2, 50, 0
3, 160560, Note_off_c, 2, 43, 0
3, 160560, Note_on_c, 2, 43, 65
3, 160560, Note_on_c, 2, 50, 65
3, 160560, Note_on_c, 2, 55, 65
3, 160560, Note_on_c, 2, 59, 65
3, 160560, Note_on_c, 2, 62, 65
3, 160560, Note_on_c, 2, 67, 65
3, 160920, Note_off_c, 2, 67, 0
3, 160920, Note_off_c, 2, 62, 0
3, 160920, Note_off_c, 2, 59, 0
3, 160920, Note_off_c, 2, 55, 0
3, 160920, Note_off_c, 2, 50, 0
3, 160920, Note_off_c, 2, 43, 0
3, 160920, Note_on_c, 2, 43, 65
3, 160920, Note_on_c, 2, 50, 65
3, 160920, Note_on_c, 2, 55, 65
3, 160920, Note_on_c, 2, 59, 65
3, 160920, Note_on_c, 2, 62, 65
3, 160920, Note_on_c, 2, 67, 65
3, 161280, Note_off_c, 2, 67, 0
3, 161280, Note_off_c, 2, 62, 0
3, 161280, Note_off_c, 2, 59, 0
3, 161280, Note_off_c, 2, 55, 0
3, 161280, Note_off_c, 2, 50, 0
3, 161280, Note_off_c, 2, 43, 0
3, 161280, Note_on_c, 2, 43, 65
3, 161280, Note_on_c, 2, 50, 65
3, 161280, Note_on_c, 2, 55, 65
3, 161280, Note_on_c, 2, 59, 65
3, 161280, Note_on_c, 2, 62, 65
3, 161280, Note_on_c, 2, 67, 65
3, 161640, Note_off_c, 2, 67, 0
3, 161640, Note_off_c, 2, 62, 0
3, 161640, Note_off_c, 2, 59, 0
3, 161640, Note_off_c, 2, 55, 0
3, 161640, Note_off_c, 2, 50, 0
3, 161640, Note_off_c, 2, 43, 0
3, 161640, Note_on_c, 2, 43, 65
3, 161640, Note_on_c, 2, 50, 65
3, 161640, Note_on_c, 2, 55, 65
3, 161640, Note_on_c, 2, 59, 65
3, 161640, Note_on_c, 2, 62, 65
3, 161640, Note_on_c, 2, 67, 65
3, 162000, Note_off_c, 2, 67, 0
3, 162000, Note_off_c, 2, 62, 0
3, 162000, Note_off_c, 2, 59, 0
3, 162000, Note_off_c, 2, 55, 0
3, 162000, Note_off_c, 2, 50, 0
3, 162000, Note_off_c, 2, 43, 0
3, 162000, Note_on_c, 2, 43, 65
3, 162000, Note_on_c, 2, 50, 65
3, 162000, Note_on_c, 2, 55, 65
3, 162000, Note_on_c, 2, 59, 65
3, 162000, Note_on_c, 2, 62, 65
3, 162000, Note_on_c, 2, 67, 65
3, 162360, Note_off_c, 2, 67, 0
3, 162360, Note_off_c, 2, 62, 0
3, 162360, Note_off_c, 2, 59, 0
3, 162360, Note_off_c, 2, 55, 0
3, 162360, Note_off_c, 2, 50, 0
3, 162360, Note_off_c, 2, 43, 0
3, 162360, Note_on_c, 2, 43, 65
3, 162360, Note_on_c, 2, 50, 65
3, 162360, Note_on_c, 2, 55, 65
3, 162360, Note_on_c, 2, 59, 65
3, 162360, Note_on_c, 2, 62, 65
3, 162360, Note_on_c, 2, 67, 65
3, 162720, Note_off_c, 2, 67, 0
3, 162720, Note_off_c, 2, 62, 0
3, 162720, Note_off_c, 2, 59, 0
3, 162720, Note_off_c, 2, 55, 0
3, 162720, Note_off_c, 2, 50, 0
3, 162720, Note_off_c, 2, 43, 0
3, 162720, Note_on_c, 2, 46, 65
3, 162720, Note_on_c, 2, 53, 65
3, 162720, Note_on_c, 2, 58, 65
3, 162720, Note_on_c, 2, 62, 65
3, 162720, Note_on_c, 2, 65, 65
3, 162720, Note_on_c, 2, 70, 65
3, 163080, Note_off_c, 2, 70, 0
3, 163080, Note_off_c, 2, 65, 0
3, 163080, Note_off_c, 2, 62, 0
3, 163080, Note_off_c, 2, 58, 0
3, 163080, Note_off_c, 2, 53, 0
3, 163080, Note_off_c, 2, 46, 0
3, 163080, Note_on_c, 2, 46, 65
3, 163080, Note_on_c, 2, 53, 65
3, 163080, Note_on_c, 2, 58, 65
3, 163080, Note_on_c, 2, 62, 65
3, 163080, Note_on_c, 2, 65, 65
3, 163080, Note_on_c, 2, 70, 65
3, 163440, Note_off_c, 2, 70, 0
3, 163440, Note_off_c, 2, 65, 0
3, 163440, Note_off_c, 2, 62, 0
3, 163440, Note_off_c, 2, 58, 0
3, 163440, Note_off_c, 2, 53, 0
3, 163440, Note_off_c, 2, 46, 0
3, 163440, Note_on_c, 2, 46, 65
3, 163440, Note_on_c, 2, 53, 65
3, 163440, Note_on_c, 2, 58, 65
3, 163440, Note_on_c, 2, 62, 65
3, 163440, Note_on_c, 2, 65, 65
3, 163440, Note_on_c, 2, 70, 65
3, 163800, Note_off_c, 2, 70, 0
3, 163800, Note_off_c, 2, 65, 0
3, 163800, Note_off_c, 2, 62, 0
3, 163800, Note_off_c, 2, 58, 0
3, 163800, Note_off_c, 2, 53, 0
3, 163800, Note_off_c, 2, 46, 0
3, 163800, Note_on_c, 2, 46, 65
3, 163800, Note_on_c, 2, 53, 65
3, 163800, Note_on_c, 2, 58, 65
3, 163800, Note_on_c, 2, 62, 65
3, 163800, Note_on_c, 2, 65, 65
3, 163800, Note_on_c, 2, 70, 65
3, 164160, Note_off_c, 2, 70, 0
3, 164160, Note_off_c, 2, 65, 0
3, 164160, Note_off_c, 2, 62, 0
3, 164160, Note_off_c, 2, 58, 0
3, 164160, Note_off_c, 2, 53, 0
3, 164160, Note_off_c, 2, 46, 0
3, 164160, Note_on_c, 2, 45, 65
3, 164160, Note_on_c, 2, 52, 65
3, 164160, Note_on_c, 2, 57, 65
3, 164160, Note_on_c, 2, 61, 65
3, 164160, Note_on_c, 2, 64, 65
3, 164160, Note_on_c, 2, 69, 65
3, 164520, Note_off_c, 2, 69, 0
3, 164520, Note_off_c, 2, 64, 0
3, 164520, Note_off_c, 2, 61, 0
3, 164520, Note_off_c, 2, 57, 0
3, 164520, Note_off_c, 2, 52, 0
3, 164520, Note_off_c, 2, 45, 0
3, 164520, Note_on_c, 2, 45, 65
3, 164520, Note_on_c, 2, 52, 65
3, 164520, Note_on_c, 2, 57, 65
3, 164520, Note_on_c, 2, 61, 65
3, 164520, Note_on_c, 2, 64, 65
3, 164520, Note_on_c, 2, 69, 65
3, 164880, Note_off_c, 2, 69, 0
3, 164880, Note_off_c, 2, 64, 0
3, 164880, Note_off_c, 2, 61, 0
3, 164880, Note_off_c, 2, 57, 0
3, 164880, Note_off_c, 2, 52, 0
3, 164880, Note_off_c, 2, 45, 0
3, 164880, Note_on_c, 2, 45, 65
3, 164880, Note_on_c, 2, 52, 65
3, 164880, Note_on_c, 2, 57, 65
3, 164880, Note_on_c, 2, 61, 65
3, 164880, Note_on_c, 2, 64, 65
3, 164880, Note_on_c, 2, 69, 65
3, 165240, Note_off_c, 2, 69, 0
3, 165240, Note_off_c, 2, 64, 0
3, 165240, Note_off_c, 2, 61, 0
3, 165240, Note_off_c, 2, 57, 0
3, 165240, Note_off_c, 2, 52, 0
3, 165240, Note_off_c, 2, 45, 0
3, 165240, Note_on_c, 2, 45, 65
3, 165240, Note_on_c, 2, 52, 65
3, 165240, Note_on_c, 2, 57, 65
3, 165240, Note_on_c, 2, 61, 65
3, 165240, Note_on_c, 2, 64, 65
3, 165240, Note_on_c, 2, 69, 65
3, 165600, Note_off_c, 2, 69, 0
3, 165600, Note_off_c, 2, 64, 0
3, 165600, Note_off_c, 2, 61, 0
3, 165600, Note_off_c, 2, 57, 0
3, 165600, Note_off_c, 2, 52, 0
3, 165600, Note_off_c, 2, 45, 0
3, 165600, Note_on_c, 2, 45, 65
3, 165600, Note_on_c, 2, 52, 65
3, 165600, Note_on_c, 2, 57, 65
3, 165600, Note_on_c, 2, 61, 65
3, 165600, Note_on_c, 2, 64, 65
3, 165600, Note_on_c, 2, 69, 65
3, 165960, Note_off_c, 2, 69, 0
3, 165960, Note_off_c, 2, 64, 0
3, 165960, Note_off_c, 2, 61, 0
3, 165960, Note_off_c, 2, 57, 0
3, 165960, Note_off_c, 2, 52, 0
3, 165960, Note_off_c, 2, 45, 0
3, 165960, Note_on_c, 2, 45, 65
3, 165960, Note_on_c, 2, 52, 65
3, 165960, Note_on_c, 2, 57, 65
3, 165960, Note_on_c, 2, 61, 65
3, 165960, Note_on_c, 2, 64, 65
3, 165960, Note_on_c, 2, 69, 65
3, 166320, Note_off_c, 2, 69, 0
3, 166320, Note_off_c, 2, 64, 0
3, 166320, Note_off_c, 2, 61, 0
3, 166320, Note_off_c, 2, 57, 0
3, 166320, Note_off_c, 2, 52, 0
3, 166320, Note_off_c, 2, 45, 0
3, 166320, Note_on_c, 2, 45, 65
3, 166320, Note_on_c, 2, 52, 65
3, 166320, Note_on_c, 2, 57, 65
3, 166320, Note_on_c, 2, 61, 65
3, 166320, Note_on_c, 2, 64, 65
3, 166320, Note_on_c, 2, 69, 65
3, 166680, Note_off_c, 2, 69, 0
3, 166680, Note_off_c, 2, 64, 0
3, 166680, Note_off_c, 2, 61, 0
3, 166680, Note_off_c, 2, 57, 0
3, 166680, Note_off_c, 2, 52, 0
3, 166680, Note_off_c, 2, 45, 0
3, 166680, Note_on_c, 2, 45, 65
3, 166680, Note_on_c, 2, 52, 65
3, 166680, Note_on_c, 2, 57, 65
3, 166680, Note_on_c, 2, 61, 65
3, 166680, Note_on_c, 2, 64, 65
3, 166680, Note_on_c, 2, 69, 65
3, 167040, Note_off_c, 2, 69, 0
3, 167040, Note_off_c, 2, 64, 0
3, 167040, Note_off_c, 2, 61, 0
3, 167040, Note_off_c, 2, 57, 0
3, 167040, Note_off_c, 2, 52, 0
3, 167040, Note_off_c, 2, 45, 0
3, 167040, Note_on_c, 2, 45, 80
3, 167040, Note_on_c, 2, 52, 80
3, 167040, Note_on_c, 2, 57, 80
3, 167040, Note_on_c, 2, 61, 80
3, 167040, Note_on_c, 2, 64, 80
3, 167040, Note_on_c, 2, 69, 80
3, 167400, Note_off_c, 2, 69, 0
3, 167400, Note_off_c, 2, 64, 0
3, 167400, Note_off_c, 2, 61, 0
3, 167400, Note_off_c, 2, 57, 0
3, 167400, Note_off_c, 2, 52, 0
3, 167400, Note_off_c, 2, 45, 0
3, 169920, Note_on_c, 2, 43, 78
3, 169920, Note_on_c, 2, 48, 78
3, 169920, Note_on_c, 2, 52, 78
3, 169920, Note_on_c, 2, 55, 78
3, 169920, Note_on_c, 2, 60, 78
3, 169920, Note_on_c, 2, 64, 78
3, 170640, Note_off_c, 2, 64, 0
3, 170640, Note_off_c, 2, 60, 0
3, 170640, Note_off_c, 2, 55, 0
3, 170640, Note_off_c, 2, 52, 0
3, 170640, Note_off_c, 2, 48, 0
3, 170640, Note_off_c, 2, 43, 0
3, 170640, Note_on_c, 2, 43, 78
3, 170640, Note_on_c, 2, 48, 78
3, 170640, Note_on_c, 2, 52, 78
3, 170640, Note_on_c, 2, 55, 78
3, 170640, Note_on_c, 2, 60, 78
3, 170640, Note_on_c, 2, 64, 78
3, 171180, Note_off_c, 2, 64, 0
3, 171180, Note_off_c, 2, 60, 0
3, 171180, Note_off_c, 2, 55, 0
3, 171180, Note_off_c, 2, 52, 0
3, 171180, Note_off_c, 2, 48, 0
3, 171180, Note_off_c, 2, 43, 0
3, 171180, Note_on_c, 2, 55, 78
3, 171180, Note_on_c, 2, 60, 78
3, 171180, Note_on_c, 2, 64, 78
3, 171360, Note_off_c, 2, 64, 0
3, 171360, Note_off_c, 2, 60, 0
3, 171360, Note_off_c, 2, 55, 0
3, 171360, Note_on_c, 2, 43, 78
3, 171360, Note_on_c, 2, 48, 78
3, 171360, Note_on_c, 2, 52, 78
3, 171360, Note_on_c, 2, 55, 78
3, 171360, Note_on_c, 2, 60, 78
3, 171360, Note_on_c, 2, 64, 78
3, 171720, Note_off_c, 2, 64, 0
3, 171720, Note_off_c, 2, 60, 0
3, 171720, Note_off_c, 2, 55, 0
3, 171720, Note_off_c, 2, 52, 0
3, 171720, Note_off_c, 2, 48, 0
3, 171720, Note_off_c, 2, 43, 0
3, 171720, Note_on_c, 2, 52, 78
3, 171720, Note_on_c, 2, 55, 78
3, 171720, Note_on_c, 2, 60, 78
3, 171720, Note_on_c, 2, 64, 78
3, 172080, Note_off_c, 2, 64, 0
3, 172080, Note_off_c, 2, 60, 0
3, 172080, Note_off_c, 2, 55, 0
3, 172080, Note_off_c, 2, 52, 0
3, 172080, Note_on_c, 2, 52, 78
3, 172080, Note_on_c, 2, 55, 78
3, 172080, Note_on_c, 2, 60, 78
3, 172080, Note_on_c, 2, 64, 78
3, 172260, Note_off_c, 2, 64, 0
3, 172260, Note_off_c, 2, 60, 0
3, 172260, Note_off_c, 2, 55, 0
3, 172260, Note_off_c, 2, 52, 0
3, 172260, Note_on_c, 2, 52, 78
3, 172260, Note_on_c, 2, 55, 78
3, 172260, Note_on_c, 2, 60, 78
3, 172260, Note_on_c, 2, 64, 78
3, 172440, Note_off_c, 2, 64, 0
3, 172440, Note_off_c, 2, 60, 0
3, 172440, Note_off_c, 2, 55, 0
3, 172440, Note_off_c, 2, 52, 0
3, 172440, Note_on_c, 2, 47, 78
3, 172440, Note_on_c, 2, 54, 78
3, 172440, Note_on_c, 2, 59, 78
3, 172440, Note_on_c, 2, 62, 78
3, 172440, Note_on_c, 2, 66, 78
3, 173160, Note_off_c, 2, 66, 0
3, 173160, Note_off_c, 2, 62, 0
3, 173160, Note_off_c, 2, 59, 0
3, 173160, Note_off_c, 2, 54, 0
3, 173160, Note_off_c, 2, 47, 0
3, 173160, Note_on_c, 2, 47, 78
3, 173520, Note_off_c, 2, 47, 0
3, 173520, Note_on_c, 2, 47, 78
3, 173520, Note_on_c, 2, 54, 78
3, 173520, Note_on_c, 2, 59, 78
3, 173520, Note_on_c, 2, 62, 78
3, 173520, Note_on_c, 2, 66, 78
3, 174060, Note_off_c, 2, 66, 0
3, 174060, Note_off_c, 2, 62, 0
3, 174060, Note_off_c, 2, 59, 0
3, 174060, Note_off_c, 2, 54, 0
3, 174060, Note_off_c, 2, 47, 0
3, 174060, Note_on_c, 2, 59, 78
3, 174060, Note_on_c, 2, 62, 78
3, 174060, Note_on_c, 2, 66, 78
3, 174240, Note_off_c, 2, 66, 0
3, 174240, Note_off_c, 2, 62, 0
3, 174240, Note_off_c, 2, 59, 0
3, 174240, Note_on_c, 2, 47, 78
3, 174240, Note_on_c, 2, 54, 78
3, 174240, Note_on_c, 2, 59, 78
3, 174240, Note_on_c, 2, 62, 78
3, 174240, Note_on_c, 2, 66, 78
3, 174600, Note_off_c, 2, 66, 0
3, 174600, Note_off_c, 2, 62, 0
3, 174600, Note_off_c, 2, 59, 0
3, 174600, Note_off_c, 2, 54, 0
3, 174600, Note_off_c, 2, 47, 0
3, 174600, Note_on_c, 2, 54, 78
3, 174600, Note_on_c, 2, 59, 78
3, 174600, Note_on_c, 2, 62, 78
3, 174600, Note_on_c, 2, 66, 78
3, 174960, Note_off_c, 2, 66, 0
3, 174960, Note_off_c, 2, 62, 0
3, 174960, Note_off_c, 2, 59, 0
3, 174960, Note_off_c, 2, 54, 0
3, 174960, Note_on_c, 2, 59, 78
3, 175140, Note_off_c, 2, 59, 0
3, 175140, Note_on_c, 2, 60, 78
3, 175320, Note_off_c, 2, 60, 0
3, 175320, Note_on_c, 2, 59, 78
3, 175500, Note_off_c, 2, 59, 0
3, 175500, Note_on_c, 2, 60, 78
3, 175680, Note_off_c, 2, 60, 0
3, 175680, Note_on_c, 2, 45, 78
3, 175680, Note_on_c, 2, 52, 78
3, 175680, Note_on_c, 2, 57, 78
3, 175680, Note_on_c, 2, 60, 78
3, 175680, Note_on_c, 2, 64, 78
3, 176400, Note_off_c, 2, 64, 0
3, 176400, Note_off_c, 2, 60, 0
3, 176400, Note_off_c, 2, 57, 0
3, 176400, Note_off_c, 2, 52, 0
3, 176400, Note_off_c, 2, 45, 0
3, 176400, Note_on_c, 2, 45, 78
3, 176400, Note_on_c, 2, 52, 78
3, 176400, Note_on_c, 2, 57, 78
3, 176400, Note_on_c, 2, 60, 78
3, 176400, Note_on_c, 2, 64, 78
3, 176400, Note_on_c, 2, 69, 78
3, 176940, Note_off_c, 2, 69, 0
3, 176940, Note_off_c, 2, 64, 0
3, 176940, Note_off_c, 2, 60, 0
3, 176940, Note_off_c, 2, 57, 0
3, 176940, Note_off_c, 2, 52, 0
3, 176940, Note_off_c, 2, 45, 0
3, 176940, Note_on_c, 2, 57, 78
3, 176940, Note_on_c, 2, 60, 78
3, 176940, Note_on_c, 2, 64, 78
3, 176940, Note_on_c, 2, 69, 78
3, 177120, Note_off_c, 2, 69, 0
3, 177120, Note_off_c, 2, 64, 0
3, 177120, Note_off_c, 2, 60, 0
3, 177120, Note_off_c, 2, 57, 0
3, 177120, Note_on_c, 2, 45, 78
3, 177120, Note_on_c, 2, 52, 78
3, 177120, Note_on_c, 2, 57, 78
3, 177120, Note_on_c, 2, 60, 78
3, 177120, Note_on_c, 2, 64, 78
3, 177480, Note_off_c, 2, 64, 0
3, 177480, Note_off_c, 2, 60, 0
3, 177480, Note_off_c, 2, 57, 0
3, 177480, Note_off_c, 2, 52, 0
3, 177480, Note_off_c, 2, 45, 0
3, 177480, Note_on_c, 2, 45, 78
3, 177480, Note_on_c, 2, 57, 78
3, 177660, Note_off_c, 2, 57, 0
3, 177660, Note_off_c, 2, 45, 0
3, 177660, Note_on_c, 2, 45, 78
3, 177660, Note_on_c, 2, 57, 78
3, 177840, Note_off_c, 2, 57, 0
3, 177840, Note_off_c, 2, 45, 0
3, 177840, Note_on_c, 2, 43, 78
3, 177840, Note_on_c, 2, 55, 78
3, 178020, Note_off_c, 2, 55, 0
3, 178020, Note_off_c, 2, 43, 0
3, 178020, Note_on_c, 2, 43, 78
3, 178020, Note_on_c, 2, 55, 78
3, 178200, Note_off_c, 2, 55, 0
3, 178200, Note_off_c, 2, 43, 0
3, 178200, Note_on_c, 2, 41, 78
3, 178200, Note_on_c, 2, 48, 78
3, 178200, Note_on_c, 2, 53, 78
3, 178200, Note_on_c, 2, 57, 78
3, 178200, Note_on_c, 2, 60, 78
3, 178200, Note_on_c, 2, 65, 78
3, 178920, Note_off_c, 2, 65, 0
3, 178920, Note_off_c, 2, 60, 0
3, 178920, Note_off_c, 2, 57, 0
3, 178920, Note_off_c, 2, 53, 0
3, 178920, Note_off_c, 2, 48, 0
3, 178920, Note_off_c, 2, 41, 0
3, 178920, Note_on_c, 2, 41, 78
3, 179280, Note_off_c, 2, 41, 0
3, 179280, Note_on_c, 2, 41, 78
3, 179280, Note_on_c, 2, 48, 78
3, 179280, Note_on_c, 2, 53, 78
3, 179280, Note_on_c, 2, 57, 78
3, 179280, Note_on_c, 2, 60, 78
3, 179280, Note_on_c, 2, 65, 78
3, 179820, Note_off_c, 2, 65, 0
3, 179820, Note_off_c, 2, 60, 0
3, 179820, Note_off_c, 2, 57, 0
3, 179820, Note_off_c, 2, 53, 0
3, 179820, Note_off_c, 2, 48, 0
3, 179820, Note_off_c, 2, 41, 0
3, 179820, Note_on_c, 2, 53, 78
3, 179820, Note_on_c, 2, 57, 78
3, 179820, Note_on_c, 2, 60, 78
3, 179820, Note_on_c, 2, 65, 78
3, 180000, Note_off_c, 2, 65, 0
3, 180000, Note_off_c, 2, 60, 0
3, 180000, Note_off_c, 2, 57, 0
3, 180000, Note_off_c, 2, 53, 0
3, 180000, Note_on_c, 2, 41, 78
3, 180000, Note_on_c, 2, 48, 78
3, 180000, Note_on_c, 2, 53, 78
3, 180000, Note_on_c, 2, 57, 78
3, 180000, Note_on_c, 2, 60, 78
3, 180000, Note_on_c, 2, 65, 78
3, 180360, Note_off_c, 2, 65, 0
3, 180360, Note_off_c, 2, 60, 0
3, 180360, Note_off_c, 2, 57, 0
3, 180360, Note_off_c, 2, 53, 0
3, 180360, Note_off_c, 2, 48, 0
3, 180360, Note_off_c, 2, 41, 0
3, 180360, Note_on_c, 2, 45, 78
3, 180360, Note_on_c, 2, 57, 78
3, 180540, Note_off_c, 2, 57, 0
3, 180540, Note_off_c, 2, 45, 0
3, 180540, Note_on_c, 3, 45, 78
3, 180540, Note_on_c, 3, 57, 78
3, 180560, Pitch_bend_c, 3, 8112
3, 180580, Pitch_bend_c, 3, 8037
3, 180600, Pitch_bend_c, 3, 7962
3, 180620, Pitch_bend_c, 3, 7887
3, 180640, Pitch_bend_c, 3, 7812
3, 180660, Pitch_bend_c, 3, 7737
3, 180680, Pitch_bend_c, 3, 7662
3, 180700, Pitch_bend_c, 3, 7587
3, 180720, Pitch_bend_c, 3, 7512
3, 180900, Note_off_c, 3, 57, 0
3, 180900, Note_off_c, 3, 45, 0
3, 180900, Pitch_bend_c, 3, 8192
3, 180900, Note_on_c, 3, 45, 78
3, 180900, Note_on_c, 3, 57, 78
3, 180920, Pitch_bend_c, 3, 8112
3, 180940, Pitch_bend_c, 3, 8037
3, 180960, Pitch_bend_c, 3, 7962
3, 180980, Pitch_bend_c, 3, 7887
3, 181000, Pitch_bend_c, 3, 7812
3, 181020, Pitch_bend_c, 3, 7737
3, 181040, Pitch_bend_c, 3, 7662
3, 181060, Pitch_bend_c, 3, 7587
3, 181080, Pitch_bend_c, 3, 7512
3, 181260, Note_off_c, 3, 57, 0
3, 181260, Note_off_c, 3, 45, 0
3, 181260, Pitch_bend_c, 3, 8192
3, 181260, Note_on_c, 2, 45, 78
3, 181260, Note_on_c, 2, 57, 78
3, 181440, Note_off_c, 2, 57, 0
3, 181440, Note_off_c, 2, 45, 0
3, 181440, Note_on_c, 2, 45, 78
3, 181440, Note_on_c, 2, 52, 78
3, 181440, Note_on_c, 2, 57, 78
3, 181440, Note_on_c, 2, 60, 78
3, 181440, Note_on_c, 2, 64, 78
3, 182160, Note_off_c, 2, 64, 0
3, 182160, Note_off_c, 2, 60, 0
3, 182160, Note_off_c, 2, 57, 0
3, 182160, Note_off_c, 2, 52, 0
3, 182160, Note_off_c, 2, 45, 0
3, 182160, Note_on_c, 2, 45, 78
3, 182160, Note_on_c, 2, 52, 78
3, 182160, Note_on_c, 2, 57, 78
3, 182160, Note_on_c, 2, 60, 78
3, 182160, Note_on_c, 2, 64, 78
3, 182160, Note_on_c, 2, 69, 78
3, 182700, Note_off_c, 2, 69, 0
3, 182700, Note_off_c, 2, 64, 0
3, 182700, Note_off_c, 2, 60, 0
3, 182700, Note_off_c, 2, 57, 0
3, 182700, Note_off_c, 2, 52, 0
3, 182700, Note_off_c, 2, 45, 0
3, 182700, Note_on_c, 2, 57, 78
3, 182700, Note_on_c, 2, 60, 78
3, 182700, Note_on_c, 2, 64, 78
3, 182700, Note_on_c, 2, 69, 78
3, 182880, Note_off_c, 2, 69, 0
3, 182880, Note_off_c, 2, 64, 0
3, 182880, Note_off_c, 2, 60, 0
3, 182880, Note_off_c, 2, 57, 0
3, 182880, Note_on_c, 2, 45, 78
3, 182880, Note_on_c, 2, 52, 78
3, 182880, Note_on_c, 2, 57, 78
3, 182880, Note_on_c, 2, 60, 78
3, 182880, Note_on_c, 2, 64, 78
3, 183240, Note_off_c, 2, 64, 0
3, 183240, Note_off_c, 2, 60, 0
3, 183240, Note_off_c, 2, 57, 0
3, 183240, Note_off_c, 2, 52, 0
3, 183240, Note_off_c, 2, 45, 0
3, 183240, Note_on_c, 2, 45, 78
3, 183240, Note_on_c, 2, 57, 78
3, 183420, Note_off_c, 2, 57, 0
3, 183420, Note_off_c, 2, 45, 0
3, 183420, Note_on_c, 2, 45, 78
3, 183420, Note_on_c, 2, 57, 78
3, 183600, Note_off_c, 2, 57, 0
3, 183600, Note_off_c, 2, 45, 0
3, 183600, Note_on_c, 2, 43, 78
3, 183600, Note_on_c, 2, 55, 78
3, 183780, Note_off_c, 2, 55, 0
3, 183780, Note_off_c, 2, 43, 0
3, 183780, Note_on_c, 2, 43, 78
3, 183780, Note_on_c, 2, 55, 78
3, 183960, Note_off_c, 2, 55, 0
3, 183960, Note_off_c, 2, 43, 0
3, 183960, Note_on_c, 2, 41, 78
3, 183960, Note_on_c, 2, 48, 78
3, 183960, Note_on_c, 2, 53, 78
3, 183960, Note_on_c, 2, 57, 78
3, 183960, Note_on_c, 2, 60, 78
3, 183960, Note_on_c, 2, 65, 78
3, 184680, Note_off_c, 2, 65, 0
3, 184680, Note_off_c, 2, 60, 0
3, 184680, Note_off_c, 2, 57, 0
3, 184680, Note_off_c, 2, 53, 0
3, 184680, Note_off_c, 2, 48, 0
3, 184680, Note_off_c, 2, 41, 0
3, 184680, Note_on_c, 2, 41, 78
3, 185040, Note_off_c, 2, 41, 0
3, 185040, Note_on_c, 2, 41, 78
3, 185040, Note_on_c, 2, 48, 78
3, 185040, Note_on_c, 2, 53, 78
3, 185040, Note_on_c, 2, 57, 78
3, 185040, Note_on_c, 2, 60, 78
3, 185040, Note_on_c, 2, 65, 78
3, 185580, Note_off_c, 2, 65, 0
3, 185580, Note_off_c, 2, 60, 0
3, 185580, Note_off_c, 2, 57, 0
3, 185580, Note_off_c, 2, 53, 0
3, 185580, Note_off_c, 2, 48, 0
3, 185580, Note_off_c, 2, 41, 0
3, 185580, Note_on_c, 2, 53, 78
3, 185580, Note_on_c, 2, 57, 78
3, 185580, Note_on_c, 2, 60, 78
3, 185580, Note_on_c, 2, 65, 78
3, 185760, Note_off_c, 2, 65, 0
3, 185760, Note_off_c, 2, 60, 0
3, 185760, Note_off_c, 2, 57, 0
3, 185760, Note_off_c, 2, 53, 0
3, 185760, Note_on_c, 2, 41, 78
3, 185760, Note_on_c, 2, 48, 78
3, 185760, Note_on_c, 2, 53, 78
3, 185760, Note_on_c, 2, 57, 78
3, 185760, Note_on_c, 2, 60, 78
3, 185760, Note_on_c, 2, 65, 78
3, 186120, Note_off_c, 2, 65, 0
3, 186120, Note_off_c, 2, 60, 0
3, 186120, Note_off_c, 2, 57, 0
3, 186120, Note_off_c, 2, 53, 0
3, 186120, Note_off_c, 2, 48, 0
3, 186120, Note_off_c, 2, 41, 0
3, 186120, Note_on_c, 2, 45, 78
3, 186120, Note_on_c, 2, 57, 78
3, 186300, Note_off_c, 2, 57, 0
3, 186300, Note_off_c, 2, 45, 0
3, 186300, Note_on_c, 2, 45, 78
3, 186300, Note_on_c, 2, 57, 78
3, 186480, Note_off_c, 2, 57, 0
3, 186480, Note_off_c, 2, 45, 0
3, 186480, Note_on_c, 2, 43, 78
3, 186480, Note_on_c, 2, 55, 78
3, 186660, Note_off_c, 2, 55, 0
3, 186660, Note_off_c, 2, 43, 0
3, 186660, Note_on_c, 2, 44, 78
3, 186660, Note_on_c, 2, 56, 78
3, 186840, Note_off_c, 2, 56, 0
3, 186840, Note_off_c, 2, 44, 0
3, 186840, Note_on_c, 2, 43, 78
3, 186840, Note_on_c, 2, 55, 78
3, 187020, Note_off_c, 2, 55, 0
3, 187020, Note_off_c, 2, 43, 0
3, 187020, Note_on_c, 2, 44, 78
3, 187020, Note_on_c, 2, 56, 78
3, 187200, Note_off_c, 2, 56, 0
3, 187200, Note_off_c, 2, 44, 0
3, 187200, Note_on_c, 2, 41, 78
3, 187200, Note_on_c, 2, 48, 78
3, 187200, Note_on_c, 2, 53, 78
3, 187200, Note_on_c, 2, 56, 78
3, 187200, Note_on_c, 2, 60, 78
3, 187200, Note_on_c, 2, 65, 78
3, 187920, Note_off_c, 2, 65, 0
3, 187920, Note_off_c, 2, 60, 0
3, 187920, Note_off_c, 2, 56, 0
3, 187920, Note_off_c, 2, 53, 0
3, 187920, Note_off_c, 2, 48, 0
3, 187920, Note_off_c, 2, 41, 0
3, 187920, Note_on_c, 2, 41, 78
3, 187920, Note_on_c, 2, 48, 78
3, 187920, Note_on_c, 2, 53, 78
3, 187920, Note_on_c, 2, 56, 78
3, 187920, Note_on_c, 2, 60, 78
3, 187920, Note_on_c, 2, 65, 78
3, 188460, Note_off_c, 2, 65, 0
3, 188460, Note_off_c, 2, 60, 0
3, 188460, Note_off_c, 2, 56, 0
3, 188460, Note_off_c, 2, 53, 0
3, 188460, Note_off_c, 2, 48, 0
3, 188460, Note_off_c, 2, 41, 0
3, 188460, Note_on_c, 2, 53, 78
3, 188460, Note_on_c, 2, 56, 78
3, 188460, Note_on_c, 2, 60, 78
3, 188460, Note_on_c, 2, 65, 78
3, 188640, Note_off_c, 2, 65, 0
3, 188640, Note_off_c, 2, 60, 0
3, 188640, Note_off_c, 2, 56, 0
3, 188640, Note_off_c, 2, 53, 0
3, 188640, Note_on_c, 2, 41, 78
3, 188640, Note_on_c, 2, 48, 78
3, 188640, Note_on_c, 2, 53, 78
3, 188640, Note_on_c, 2, 57, 78
3, 188640, Note_on_c, 2, 60, 78
3, 189000, Note_off_c, 2, 60, 0
3, 189000, Note_off_c, 2, 57, 0
3, 189000, Note_off_c, 2, 53, 0
3, 189000, Note_off_c, 2, 48, 0
3, 189000, Note_off_c, 2, 41, 0
3, 189000, Note_on_c, 2, 44, 78
3, 189000, Note_on_c, 2, 56, 78
3, 189180, Note_off_c, 2, 56, 0
3, 189180, Note_off_c, 2, 44, 0
3, 189180, Note_on_c, 2, 44, 78
3, 189180, Note_on_c, 2, 56, 78
3, 189360, Note_off_c, 2, 56, 0
3, 189360, Note_off_c, 2, 44, 0
3, 189360, Note_on_c, 2, 45, 78
3, 189540, Note_off_c, 2, 45, 0
3, 189540, Note_on_c, 2, 43, 78
3, 189720, Note_off_c, 2, 43, 0
3, 189720, Note_on_c, 2, 43, 78
3, 189720, Note_on_c, 2, 48, 78
3, 189720, Note_on_c, 2, 52, 78
3, 189720, Note_on_c, 2, 55, 78
3, 189900, Note_off_c, 2, 55, 0
3, 189900, Note_off_c, 2, 52, 0
3, 189900, Note_off_c, 2, 48, 0
3, 189900, Note_off_c, 2, 43, 0
3, 189900, Note_on_c, 2, 43, 78
3, 189900, Note_on_c, 2, 48, 78
3, 189900, Note_on_c, 2, 52, 78
3, 189900, Note_on_c, 2, 55, 78
3, 190080, Note_off_c, 2, 55, 0
3, 190080, Note_off_c, 2, 52, 0
3, 190080, Note_off_c, 2, 48, 0
3, 190080, Note_off_c, 2, 43, 0
3, 190080, Note_on_c, 2, 43, 78
3, 190080, Note_on_c, 2, 48, 78
3, 190080, Note_on_c, 2, 52, 78
3, 190080, Note_on_c, 2, 55, 78
3, 190080, Note_on_c, 2, 60, 78
3, 190080, Note_on_c, 2, 64, 78
3, 190800, Note_off_c, 2, 64, 0
3, 190800, Note_off_c, 2, 60, 0
3, 190800, Note_off_c, 2, 55, 0
3, 190800, Note_off_c, 2, 52, 0
3, 190800, Note_off_c, 2, 48, 0
3, 190800, Note_off_c, 2, 43, 0
3, 190800, Note_on_c, 2, 43, 78
3, 190800, Note_on_c, 2, 48, 78
3, 190800, Note_on_c, 2, 52, 78
3, 190800, Note_on_c, 2, 55, 78
3, 190800, Note_on_c, 2, 60, 78
3, 190800, Note_on_c, 2, 64, 78
3, 191340, Note_off_c, 2, 64, 0
3, 191340, Note_off_c, 2, 60, 0
3, 191340, Note_off_c, 2, 55, 0
3, 191340, Note_off_c, 2, 52, 0
3, 191340, Note_off_c, 2, 48, 0
3, 191340, Note_off_c, 2, 43, 0
3, 191340, Note_on_c, 2, 55, 78
3, 191340, Note_on_c, 2, 60, 78
3, 191340, Note_on_c, 2, 64, 78
3, 191520, Note_off_c, 2, 64, 0
3, 191520, Note_off_c, 2, 60, 0
3, 191520, Note_off_c, 2, 55, 0
3, 191520, Note_on_c, 2, 43, 78
3, 191520, Note_on_c, 2, 48, 78
3, 191520, Note_on_c, 2, 52, 78
3, 191520, Note_on_c, 2, 55, 78
3, 191520, Note_on_c, 2, 60, 78
3, 191520, Note_on_c, 2, 64, 78
3, 191880, Note_off_c, 2, 64, 0
3, 191880, Note_off_c, 2, 60, 0
3, 191880, Note_off_c, 2, 55, 0
3, 191880, Note_off_c, 2, 52, 0
3, 191880, Note_off_c, 2, 48, 0
3, 191880, Note_off_c, 2, 43, 0
3, 191880, Note_on_c, 2, 52, 78
3, 191880, Note_on_c, 2, 55, 78
3, 191880, Note_on_c, 2, 60, 78
3, 191880, Note_on_c, 2, 64, 78
3, 192240, Note_off_c, 2, 64, 0
3, 192240, Note_off_c, 2, 60, 0
3, 192240, Note_off_c, 2, 55, 0
3, 192240, Note_off_c, 2, 52, 0
3, 192240, Note_on_c, 2, 52, 78
3, 192240, Note_on_c, 2, 55, 78
3, 192240, Note_on_c, 2, 60, 78
3, 192240, Note_on_c, 2, 64, 78
3, 192420, Note_off_c, 2, 64, 0
3, 192420, Note_off_c, 2, 60, 0
3, 192420, Note_off_c, 2, 55, 0
3, 192420, Note_off_c, 2, 52, 0
3, 192420, Note_on_c, 2, 52, 78
3, 192420, Note_on_c, 2, 55, 78
3, 192420, Note_on_c, 2, 60, 78
3, 192420, Note_on_c, 2, 64, 78
3, 192600, Note_off_c, 2, 64, 0
3, 192600, Note_off_c, 2, 60, 0
3, 192600, Note_off_c, 2, 55, 0
3, 192600, Note_off_c, 2, 52, 0
3, 192600, Note_on_c, 2, 47, 78
3, 192600, Note_on_c, 2, 54, 78
3, 192600, Note_on_c, 2, 59, 78
3, 192600, Note_on_c, 2, 62, 78
3, 192600, Note_on_c, 2, 66, 78
3, 193320, Note_off_c, 2, 66, 0
3, 193320, Note_off_c, 2, 62, 0
3, 193320, Note_off_c, 2, 59, 0
3, 193320, Note_off_c, 2, 54, 0
3, 193320, Note_off_c, 2, 47, 0
3, 193320, Note_on_c, 2, 47, 78
3, 193680, Note_off_c, 2, 47, 0
3, 193680, Note_on_c, 2, 47, 78
3, 193680, Note_on_c, 2, 54, 78
3, 193680, Note_on_c, 2, 59, 78
3, 193680, Note_on_c, 2, 62, 78
3, 193680, Note_on_c, 2, 66, 78
3, 194220, Note_off_c, 2, 66, 0
3, 194220, Note_off_c, 2, 62, 0
3, 194220, Note_off_c, 2, 59, 0
3, 194220, Note_off_c, 2, 54, 0
3, 194220, Note_off_c, 2, 47, 0
3, 194220, Note_on_c, 2, 59, 78
3, 194220, Note_on_c, 2, 62, 78
3, 194220, Note_on_c, 2, 66, 78
3, 194400, Note_off_c, 2, 66, 0
3, 194400, Note_off_c, 2, 62, 0
3, 194400, Note_off_c, 2, 59, 0
3, 194400, Note_on_c, 2, 47, 78
3, 194400, Note_on_c, 2, 54, 78
3, 194400, Note_on_c, 2, 59, 78
3, 194400, Note_on_c, 2, 62, 78
3, 194400, Note_on_c, 2, 66, 78
3, 194760, Note_off_c, 2, 66, 0
3, 194760, Note_off_c, 2, 62, 0
3, 194760, Note_off_c, 2, 59, 0
3, 194760, Note_off_c, 2, 54, 0
3, 194760, Note_off_c, 2, 47, 0
3, 194760, Note_on_c, 2, 54, 78
3, 194760, Note_on_c, 2, 59, 78
3, 194760, Note_on_c, 2, 62, 78
3, 194760, Note_on_c, 2, 66, 78
3, 195120, Note_off_c, 2, 66, 0
3, 195120, Note_off_c, 2, 62, 0
3, 195120, Note_off_c, 2, 59, 0
3, 195120, Note_off_c, 2, 54, 0
3, 195120, Note_on_c, 2, 59, 78
3, 195300, Note_off_c, 2, 59, 0
3, 195300, Note_on_c, 2, 60, 78
3, 195480, Note_off_c, 2, 60, 0
3, 195480, Note_on_c, 2, 59, 78
3, 195660, Note_off_c, 2, 59, 0
3, 195660, Note_on_c, 2, 60, 78
3, 195840, Note_off_c, 2, 60, 0
3, 195840, Note_on_c, 2, 45, 78
3, 195840, Note_on_c, 2, 52, 78
3, 195840, Note_on_c, 2, 57, 78
3, 195840, Note_on_c, 2, 60, 78
3, 195840, Note_on_c, 2, 64, 78
3, 196560, Note_off_c, 2, 64, 0
3, 196560, Note_off_c, 2, 60, 0
3, 196560, Note_off_c, 2, 57, 0
3, 196560, Note_off_c, 2, 52, 0
3, 196560, Note_off_c, 2, 45, 0
3, 196560, Note_on_c, 2, 45, 78
3, 196560, Note_on_c, 2, 52, 78
3, 196560, Note_on_c, 2, 57, 78
3, 196560, Note_on_c, 2, 60, 78
3, 196560, Note_on_c, 2, 64, 78
3, 196560, Note_on_c, 2, 69, 78
3, 197100, Note_off_c, 2, 69, 0
3, 197100, Note_off_c, 2, 64, 0
3, 197100, Note_off_c, 2, 60, 0
3, 197100, Note_off_c, 2, 57, 0
3, 197100, Note_off_c, 2, 52, 0
3, 197100, Note_off_c, 2, 45, 0
3, 197100, Note_on_c, 2, 57, 78
3, 197100, Note_on_c, 2, 60, 78
3, 197100, Note_on_c, 2, 64, 78
3, 197100, Note_on_c, 2, 69, 78
3, 197280, Note_off_c, 2, 69, 0
3, 197280, Note_off_c, 2, 64, 0
3, 197280, Note_off_c, 2, 60, 0
3, 197280, Note_off_c, 2, 57, 0
3, 197280, Note_on_c, 2, 45, 78
3, 197280, Note_on_c, 2, 52, 78
3, 197280, Note_on_c, 2, 57, 78
3, 197280, Note_on_c, 2, 60, 78
3, 197280, Note_on_c, 2, 64, 78
3, 197640, Note_off_c, 2, 64, 0
3, 197640, Note_off_c, 2, 60, 0
3, 197640, Note_off_c, 2, 57, 0
3, 197640, Note_off_c, 2, 52, 0
3, 197640, Note_off_c, 2, 45, 0
3, 197640, Note_on_c, 2, 45, 78
3, 197640, Note_on_c, 2, 57, 78
3, 197820, Note_off_c, 2, 57, 0
3, 197820, Note_off_c, 2, 45, 0
3, 197820, Note_on_c, 2, 45, 78
3, 197820, Note_on_c, 2, 57, 78
3, 198000, Note_off_c, 2, 57, 0
3, 198000, Note_off_c, 2, 45, 0
3, 198000, Note_on_c, 2, 43, 78
3, 198000, Note_on_c, 2, 55, 78
3, 198180, Note_off_c, 2, 55, 0
3, 198180, Note_off_c, 2, 43, 0
3, 198180, Note_on_c, 2, 43, 78
3, 198180, Note_on_c, 2, 55, 78
3, 198360, Note_off_c, 2, 55, 0
3, 198360, Note_off_c, 2, 43, 0
3, 198360, Note_on_c, 2, 41, 78
3, 198360, Note_on_c, 2, 48, 78
3, 198360, Note_on_c, 2, 53, 78
3, 198360, Note_on_c, 2, 57, 78
3, 198360, Note_on_c, 2, 60, 78
3, 198360, Note_on_c, 2, 65, 78
3, 199080, Note_off_c, 2, 65, 0
3, 199080, Note_off_c, 2, 60, 0
3, 199080, Note_off_c, 2, 57, 0
3, 199080, Note_off_c, 2, 53, 0
3, 199080, Note_off_c, 2, 48, 0
3, 199080, Note_off_c, 2, 41, 0
3, 199080, Note_on_c, 2, 41, 78
3, 199440, Note_off_c, 2, 41, 0
3, 199440, Note_on_c, 2, 41, 78
3, 199440, Note_on_c, 2, 48, 78
3, 199440, Note_on_c, 2, 53, 78
3, 199440, Note_on_c, 2, 57, 78
3, 199440, Note_on_c, 2, 60, 78
3, 199440, Note_on_c, 2, 65, 78
3, 199980, Note_off_c, 2, 65, 0
3, 199980, Note_off_c, 2, 60, 0
3, 199980, Note_off_c, 2, 57, 0
3, 199980, Note_off_c, 2, 53, 0
3, 199980, Note_off_c, 2, 48, 0
3, 199980, Note_off_c, 2, 41, 0
3, 199980, Note_on_c, 2, 53, 78
3, 199980, Note_on_c, 2, 57, 78
3, 199980, Note_on_c, 2, 60, 78
3, 199980, Note_on_c, 2, 65, 78
3, 200160, Note_off_c, 2, 65, 0
3, 200160, Note_off_c, 2, 60, 0
3, 200160, Note_off_c, 2, 57, 0
3, 200160, Note_off_c, 2, 53, 0
3, 200160, Note_on_c, 2, 41, 78
3, 200160, Note_on_c, 2, 48, 78
3, 200160, Note_on_c, 2, 53, 78
3, 200160, Note_on_c, 2, 57, 78
3, 200160, Note_on_c, 2, 60, 78
3, 200160, Note_on_c, 2, 65, 78
3, 200520, Note_off_c, 2, 65, 0
3, 200520, Note_off_c, 2, 60, 0
3, 200520, Note_off_c, 2, 57, 0
3, 200520, Note_off_c, 2, 53, 0
3, 200520, Note_off_c, 2, 48, 0
3, 200520, Note_off_c, 2, 41, 0
3, 200520, Note_on_c, 2, 45, 78
3, 200520, Note_on_c, 2, 57, 78
3, 200700, Note_off_c, 2, 57, 0
3, 200700, Note_off_c, 2, 45, 0
3, 200700, Note_on_c, 3, 45, 78
3, 200700, Note_on_c, 3, 57, 78
3, 200720, Pitch_bend_c, 3, 8112
3, 200740, Pitch_bend_c, 3, 8037
3, 200760, Pitch_bend_c, 3, 7962
3, 200780, Pitch_bend_c, 3, 7887
3, 200800, Pitch_bend_c, 3, 7812
3, 200820, Pitch_bend_c, 3, 7737
3, 200840, Pitch_bend_c, 3, 7662
3, 200860, Pitch_bend_c, 3, 7587
3, 200880, Pitch_bend_c, 3, 7512
3, 201060, Note_off_c, 3, 57, 0
3, 201060, Note_off_c, 3, 45, 0
3, 201060, Pitch_bend_c, 3, 8192
3, 201060, Note_on_c, 3, 45, 78
3, 201060, Note_on_c, 3, 57, 78
3, 201080, Pitch_bend_c, 3, 8112
3, 201100, Pitch_bend_c, 3, 8037
3, 201120, Pitch_bend_c, 3, 7962
3, 201140, Pitch_bend_c, 3, 7887
3, 201160, Pitch_bend_c, 3, 7812
3, 201180, Pitch_bend_c, 3, 7737
3, 201200, Pitch_bend_c, 3, 7662
3, 201220, Pitch_bend_c, 3, 7587
3, 201240, Pitch_bend_c, 3, 7512
3, 201420, Note_off_c, 3, 57, 0
3, 201420, Note_off_c, 3, 45, 0
3, 201420, Pitch_bend_c, 3, 8192
3, 201420, Note_on_c, 2, 45, 78
3, 201420, Note_on_c, 2, 57, 78
3, 201600, Note_off_c, 2, 57, 0
3, 201600, Note_off_c, 2, 45, 0
3, 201600, Note_on_c, 2, 45, 78
3, 201600, Note_on_c, 2, 52, 78
3, 201600, Note_on_c, 2, 57, 78
3, 201600, Note_on_c, 2, 60, 78
3, 201600, Note_on_c, 2, 64, 78
3, 202320, Note_off_c, 2, 64, 0
3, 202320, Note_off_c, 2, 60, 0
3, 202320, Note_off_c, 2, 57, 0
3, 202320, Note_off_c, 2, 52, 0
3, 202320, Note_off_c, 2, 45, 0
3, 202320, Note_on_c, 2, 45, 78
3, 202320, Note_on_c, 2, 52, 78
3, 202320, Note_on_c, 2, 57, 78
3, 202320, Note_on_c, 2, 60, 78
3, 202320, Note_on_c, 2, 64, 78
3, 202320, Note_on_c, 2, 69, 78
3, 202860, Note_off_c, 2, 69, 0
3, 202860, Note_off_c, 2, 64, 0
3, 202860, Note_off_c, 2, 60, 0
3, 202860, Note_off_c, 2, 57, 0
3, 202860, Note_off_c, 2, 52, 0
3, 202860, Note_off_c, 2, 45, 0
3, 202860, Note_on_c, 2, 57, 78
3, 202860, Note_on_c, 2, 60, 78
3, 202860, Note_on_c, 2, 64, 78
3, 202860, Note_on_c, 2, 69, 78
3, 203040, Note_off_c, 2, 69, 0
3, 203040, Note_off_c, 2, 64, 0
3, 203040, Note_off_c, 2, 60, 0
3, 203040, Note_off_c, 2, 57, 0
3, 203040, Note_on_c, 2, 45, 78
3, 203040, Note_on_c, 2, 52, 78
3, 203040, Note_on_c, 2, 57, 78
3, 203040, Note_on_c, 2, 60, 78
3, 203040, Note_on_c, 2, 64, 78
3, 203400, Note_off_c, 2, 64, 0
3, 203400, Note_off_c, 2, 60, 0
3, 203400, Note_off_c, 2, 57, 0
3, 203400, Note_off_c, 2, 52, 0
3, 203400, Note_off_c, 2, 45, 0
3, 203400, Note_on_c, 2, 45, 78
3, 203400, Note_on_c, 2, 57, 78
3, 203580, Note_off_c, 2, 57, 0
3, 203580, Note_off_c, 2, 45, 0
3, 203580, Note_on_c, 2, 45, 78
3, 203580, Note_on_c, 2, 57, 78
3, 203760, Note_off_c, 2, 57, 0
3, 203760, Note_off_c, 2, 45, 0
3, 203760, Note_on_c, 2, 43, 78
3, 203760, Note_on_c, 2, 55, 78
3, 203940, Note_off_c, 2, 55, 0
3, 203940, Note_off_c, 2, 43, 0
3, 203940, Note_on_c, 2, 43, 78
3, 203940, Note_on_c, 2, 55, 78
3, 204120, Note_off_c, 2, 55, 0
3, 204120, Note_off_c, 2, 43, 0
3, 204120, Note_on_c, 2, 41, 78
3, 204120, Note_on_c, 2, 48, 78
3, 204120, Note_on_c, 2, 53, 78
3, 204120, Note_on_c, 2, 57, 78
3, 204120, Note_on_c, 2, 60, 78
3, 204120, Note_on_c, 2, 65, 78
3, 204840, Note_off_c, 2, 65, 0
3, 204840, Note_off_c, 2, 60, 0
3, 204840, Note_off_c, 2, 57, 0
3, 204840, Note_off_c, 2, 53, 0
3, 204840, Note_off_c, 2, 48, 0
3, 204840, Note_off_c, 2, 41, 0
3, 204840, Note_on_c, 2, 41, 78
3, 205200, Note_off_c, 2, 41, 0
3, 205200, Note_on_c, 2, 41, 78
3, 205200, Note_on_c, 2, 48, 78
3, 205200, Note_on_c, 2, 53, 78
3, 205200, Note_on_c, 2, 57, 78
3, 205200, Note_on_c, 2, 60, 78
3, 205200, Note_on_c, 2, 65, 78
3, 205740, Note_off_c, 2, 65, 0
3, 205740, Note_off_c, 2, 60, 0
3, 205740, Note_off_c, 2, 57, 0
3, 205740, Note_off_c, 2, 53, 0
3, 205740, Note_off_c, 2, 48, 0
3, 205740, Note_off_c, 2, 41, 0
3, 205740, Note_on_c, 2, 53, 78
3, 205740, Note_on_c, 2, 57, 78
3, 205740, Note_on_c, 2, 60, 78
3, 205740, Note_on_c, 2, 65, 78
3, 205920, Note_off_c, 2, 65, 0
3, 205920, Note_off_c, 2, 60, 0
3, 205920, Note_off_c, 2, 57, 0
3, 205920, Note_off_c, 2, 53, 0
3, 205920, Note_on_c, 2, 41, 78
3, 205920, Note_on_c, 2, 48, 78
3, 205920, Note_on_c, 2, 53, 78
3, 205920, Note_on_c, 2, 57, 78
3, 205920, Note_on_c, 2, 60, 78
3, 205920, Note_on_c, 2, 65, 78
3, 206280, Note_off_c, 2, 65, 0
3, 206280, Note_off_c, 2, 60, 0
3, 206280, Note_off_c, 2, 57, 0
3, 206280, Note_off_c, 2, 53, 0
3, 206280, Note_off_c, 2, 48, 0
3, 206280, Note_off_c, 2, 41, 0
3, 206280, Note_on_c, 2, 45, 78
3, 206280, Note_on_c, 2, 57, 78
3, 206460, Note_off_c, 2, 57, 0
3, 206460, Note_off_c, 2, 45, 0
3, 206460, Note_on_c, 2, 45, 78
3, 206460, Note_on_c, 2, 57, 78
3, 206640, Note_off_c, 2, 57, 0
3, 206640, Note_off_c, 2, 45, 0
3, 206640, Note_on_c, 2, 43, 78
3, 206640, Note_on_c, 2, 55, 78
3, 206820, Note_off_c, 2, 55, 0
3, 206820, Note_off_c, 2, 43, 0
3, 206820, Note_on_c, 2, 44, 78
3, 206820, Note_on_c, 2, 56, 78
3, 207000, Note_off_c, 2, 56, 0
3, 207000, Note_off_c, 2, 44, 0
3, 207000, Note_on_c, 2, 43, 78
3, 207000, Note_on_c, 2, 55, 78
3, 207180, Note_off_c, 2, 55, 0
3, 207180, Note_off_c, 2, 43, 0
3, 207180, Note_on_c, 2, 44, 78
3, 207180, Note_on_c, 2, 56, 78
3, 207360, Note_off_c, 2, 56, 0
3, 207360, Note_off_c, 2, 44, 0
3, 207360, Note_on_c, 2, 41, 78
3, 207360, Note_on_c, 2, 48, 78
3, 207360, Note_on_c, 2, 53, 78
3, 207360, Note_on_c, 2, 56, 78
3, 207360, Note_on_c, 2, 60, 78
3, 207360, Note_on_c, 2, 65, 78
3, 208080, Note_off_c, 2, 65, 0
3, 208080, Note_off_c, 2, 60, 0
3, 208080, Note_off_c, 2, 56, 0
3, 208080, Note_off_c, 2, 53, 0
3, 208080, Note_off_c, 2, 48, 0
3, 208080, Note_off_c, 2, 41, 0
3, 208080, Note_on_c, 2, 41, 78
3, 208080, Note_on_c, 2, 48, 78
3, 208080, Note_on_c, 2, 53, 78
3, 208080, Note_on_c, 2, 56, 78
3, 208080, Note_on_c, 2, 60, 78
3, 208080, Note_on_c, 2, 65, 78
3, 208620, Note_off_c, 2, 65, 0
3, 208620, Note_off_c, 2, 60, 0
3, 208620, Note_off_c, 2, 56, 0
3, 208620, Note_off_c, 2, 53, 0
3, 208620, Note_off_c, 2, 48, 0
3, 208620, Note_off_c, 2, 41, 0
3, 208620, Note_on_c, 2, 53, 78
3, 208620, Note_on_c, 2, 56, 78
3, 208620, Note_on_c, 2, 60, 78
3, 208620, Note_on_c, 2, 65, 78
3, 208800, Note_off_c, 2, 65, 0
3, 208800, Note_off_c, 2, 60, 0
3, 208800, Note_off_c, 2, 56, 0
3, 208800, Note_off_c, 2, 53, 0
3, 208800, Note_on_c, 2, 41, 78
3, 208800, Note_on_c, 2, 48, 78
3, 208800, Note_on_c, 2, 53, 78
3, 208800, Note_on_c, 2, 56, 78
3, 208800, Note_on_c, 2, 60, 78
3, 209160, Note_off_c, 2, 60, 0
3, 209160, Note_off_c, 2, 56, 0
3, 209160, Note_off_c, 2, 53, 0
3, 209160, Note_off_c, 2, 48, 0
3, 209160, Note_off_c, 2, 41, 0
3, 209160, Note_on_c, 2, 44, 78
3, 209160, Note_on_c, 2, 56, 78
3, 209340, Note_off_c, 2, 56, 0
3, 209340, Note_off_c, 2, 44, 0
3, 209340, Note_on_c, 2, 44, 78
3, 209340, Note_on_c, 2, 56, 78
3, 209520, Note_off_c, 2, 56, 0
3, 209520, Note_off_c, 2, 44, 0
3, 209520, Note_on_c, 2, 44, 78
3, 209520, Note_on_c, 2, 56, 78
3, 209700, Note_off_c, 2, 56, 0
3, 209700, Note_off_c, 2, 44, 0
3, 209700, Note_on_c, 2, 44, 78
3, 209700, Note_on_c, 2, 56, 78
3, 209880, Note_off_c, 2, 56, 0
3, 209880, Note_off_c, 2, 44, 0
3, 209880, Note_on_c, 2, 43, 78
3, 209880, Note_on_c, 2, 55, 78
3, 210060, Note_off_c, 2, 55, 0
3, 210060, Note_off_c, 2, 43, 0
3, 210060, Note_on_c, 2, 43, 78
3, 210060, Note_on_c, 2, 55, 78
3, 210240, Note_off_c, 2, 55, 0
3, 210240, Note_off_c, 2, 43, 0
3, 210240, Note_on_c, 2, 45, 65
3, 210240, Note_on_c, 2, 52, 65
3, 210240, Note_on_c, 2, 57, 65
3, 210240, Note_on_c, 2, 61, 65
3, 210240, Note_on_c, 2, 64, 65
3, 210240, Note_on_c, 2, 69, 65
3, 210600, Note_off_c, 2, 69, 0
3, 210600, Note_off_c, 2, 64, 0
3, 210600, Note_off_c, 2, 61, 0
3, 210600, Note_off_c, 2, 57, 0
3, 210600, Note_off_c, 2, 52, 0
3, 210600, Note_off_c, 2, 45, 0
3, 210600, Note_on_c, 2, 45, 65
3, 210600, Note_on_c, 2, 52, 65
3, 210600, Note_on_c, 2, 57, 65
3, 210600, Note_on_c, 2, 61, 65
3, 210600, Note_on_c, 2, 64, 65
3, 210600, Note_on_c, 2, 69, 65
3, 210960, Note_off_c, 2, 69, 0
3, 210960, Note_off_c, 2, 64, 0
3, 210960, Note_off_c, 2, 61, 0
3, 210960, Note_off_c, 2, 57, 0
3, 210960, Note_off_c, 2, 52, 0
3, 210960, Note_off_c, 2, 45, 0
3, 210960, Note_on_c, 2, 45, 65
3, 210960, Note_on_c, 2, 52, 65
3, 210960, Note_on_c, 2, 57, 65
3, 210960, Note_on_c, 2, 61, 65
3, 210960, Note_on_c, 2, 64, 65
3, 210960, Note_on_c, 2, 69, 65
3, 211320, Note_off_c, 2, 69, 0
3, 211320, Note_off_c, 2, 64, 0
3, 211320, Note_off_c, 2, 61, 0
3, 211320, Note_off_c, 2, 57, 0
3, 211320, Note_off_c, 2, 52, 0
3, 211320, Note_off_c, 2, 45, 0
3, 211320, Note_on_c, 2, 45, 65
3, 211320, Note_on_c, 2, 52, 65
3, 211320, Note_on_c, 2, 57, 65
3, 211320, Note_on_c, 2, 61, 65
3, 211320, Note_on_c, 2, 64, 65
3, 211320, Note_on_c, 2, 69, 65
3, 211680, Note_off_c, 2, 69, 0
3, 211680, Note_off_c, 2, 64, 0
3, 211680, Note_off_c, 2, 61, 0
3, 211680, Note_off_c, 2, 57, 0
3, 211680, Note_off_c, 2, 52, 0
3, 211680, Note_off_c, 2, 45, 0
3, 211680, Note_on_c, 2, 45, 65
3, 211680, Note_on_c, 2, 52, 65
3, 211680, Note_on_c, 2, 57, 65
3, 211680, Note_on_c, 2, 61, 65
3, 211680, Note_on_c, 2, 64, 65
3, 211680, Note_on_c, 2, 69, 65
3, 212040, Note_off_c, 2, 69, 0
3, 212040, Note_off_c, 2, 64, 0
3, 212040, Note_off_c, 2, 61, 0
3, 212040, Note_off_c, 2, 57, 0
3, 212040, Note_off_c, 2, 52, 0
3, 212040, Note_off_c, 2, 45, 0
3, 212040, Note_on_c, 2, 45, 65
3, 212040, Note_on_c, 2, 52, 65
3, 212040, Note_on_c, 2, 57, 65
3, 212040, Note_on_c, 2, 61, 65
3, 212040, Note_on_c, 2, 64, 65
3, 212040, Note_on_c, 2, 69, 65
3, 212400, Note_off_c, 2, 69, 0
3, 212400, Note_off_c, 2, 64, 0
3, 212400, Note_off_c, 2, 61, 0
3, 212400, Note_off_c, 2, 57, 0
3, 212400, Note_off_c, 2, 52, 0
3, 212400, Note_off_c, 2, 45, 0
3, 212400, Note_on_c, 2, 45, 65
3, 212400, Note_on_c, 2, 52, 65
3, 212400, Note_on_c, 2, 57, 65
3, 212400, Note_on_c, 2, 61, 65
3, 212400, Note_on_c, 2, 64, 65
3, 212400, Note_on_c, 2, 69, 65
3, 212760, Note_off_c, 2, 69, 0
3, 212760, Note_off_c, 2, 64, 0
3, 212760, Note_off_c, 2, 61, 0
3, 212760, Note_off_c, 2, 57, 0
3, 212760, Note_off_c, 2, 52, 0
3, 212760, Note_off_c, 2, 45, 0
3, 212760, Note_on_c, 2, 45, 65
3, 212760, Note_on_c, 2, 52, 65
3, 212760, Note_on_c, 2, 57, 65
3, 212760, Note_on_c, 2, 61, 65
3, 212760, Note_on_c, 2, 64, 65
3, 212760, Note_on_c, 2, 69, 65
3, 213120, Note_off_c, 2, 69, 0
3, 213120, Note_off_c, 2, 64, 0
3, 213120, Note_off_c, 2, 61, 0
3, 213120, Note_off_c, 2, 57, 0
3, 213120, Note_off_c, 2, 52, 0
3, 213120, Note_off_c, 2, 45, 0
3, 213120, Note_on_c, 2, 45, 65
3, 213120, Note_on_c, 2, 52, 65
3, 213120, Note_on_c, 2, 57, 65
3, 213120, Note_on_c, 2, 61, 65
3, 213120, Note_on_c, 2, 64, 65
3, 213120, Note_on_c, 2, 69, 65
3, 213480, Note_off_c, 2, 69, 0
3, 213480, Note_off_c, 2, 64, 0
3, 213480, Note_off_c, 2, 61, 0
3, 213480, Note_off_c, 2, 57, 0
3, 213480, Note_off_c, 2, 52, 0
3, 213480, Note_off_c, 2, 45, 0
3, 213480, Note_on_c, 2, 45, 65
3, 213480, Note_on_c, 2, 52, 65
3, 213480, Note_on_c, 2, 57, 65
3, 213480, Note_on_c, 2, 61, 65
3, 213480, Note_on_c, 2, 64, 65
3, 213480, Note_on_c, 2, 69, 65
3, 213840, Note_off_c, 2, 69, 0
3, 213840, Note_off_c, 2, 64, 0
3, 213840, Note_off_c, 2, 61, 0
3, 213840, Note_off_c, 2, 57, 0
3, 213840, Note_off_c, 2, 52, 0
3, 213840, Note_off_c, 2, 45, 0
3, 213840, Note_on_c, 2, 45, 65
3, 213840, Note_on_c, 2, 52, 65
3, 213840, Note_on_c, 2, 57, 65
3, 213840, Note_on_c, 2, 61, 65
3, 213840, Note_on_c, 2, 64, 65
3, 213840, Note_on_c, 2, 69, 65
3, 214200, Note_off_c, 2, 69, 0
3, 214200, Note_off_c, 2, 64, 0
3, 214200, Note_off_c, 2, 61, 0
3, 214200, Note_off_c, 2, 57, 0
3, 214200, Note_off_c, 2, 52, 0
3, 214200, Note_off_c, 2, 45, 0
3, 214200, Note_on_c, 2, 45, 65
3, 214200, Note_on_c, 2, 52, 65
3, 214200, Note_on_c, 2, 57, 65
3, 214200, Note_on_c, 2, 61, 65
3, 214200, Note_on_c, 2, 64, 65
3, 214200, Note_on_c, 2, 69, 65
3, 214560, Note_off_c, 2, 69, 0
3, 214560, Note_off_c, 2, 64, 0
3, 214560, Note_off_c, 2, 61, 0
3, 214560, Note_off_c, 2, 57, 0
3, 214560, Note_off_c, 2, 52, 0
3, 214560, Note_off_c, 2, 45, 0
3, 214560, Note_on_c, 2, 45, 65
3, 214560, Note_on_c, 2, 52, 65
3, 214560, Note_on_c, 2, 57, 65
3, 214560, Note_on_c, 2, 61, 65
3, 214560, Note_on_c, 2, 64, 65
3, 214560, Note_on_c, 2, 69, 65
3, 214920, Note_off_c, 2, 69, 0
3, 214920, Note_off_c, 2, 64, 0
3, 214920, Note_off_c, 2, 61, 0
3, 214920, Note_off_c, 2, 57, 0
3, 214920, Note_off_c, 2, 52, 0
3, 214920, Note_off_c, 2, 45, 0
3, 214920, Note_on_c, 2, 45, 65
3, 214920, Note_on_c, 2, 52, 65
3, 214920, Note_on_c, 2, 57, 65
3, 214920, Note_on_c, 2, 61, 65
3, 214920, Note_on_c, 2, 64, 65
3, 214920, Note_on_c, 2, 69, 65
3, 215280, Note_off_c, 2, 69, 0
3, 215280, Note_off_c, 2, 64, 0
3, 215280, Note_off_c, 2, 61, 0
3, 215280, Note_off_c, 2, 57, 0
3, 215280, Note_off_c, 2, 52, 0
3, 215280, Note_off_c, 2, 45, 0
3, 215280, Note_on_c, 2, 45, 65
3, 215280, Note_on_c, 2, 52, 65
3, 215280, Note_on_c, 2, 57, 65
3, 215280, Note_on_c, 2, 61, 65
3, 215280, Note_on_c, 2, 64, 65
3, 215280, Note_on_c, 2, 69, 65
3, 215640, Note_off_c, 2, 69, 0
3, 215640, Note_off_c, 2, 64, 0
3, 215640, Note_off_c, 2, 61, 0
3, 215640, Note_off_c, 2, 57, 0
3, 215640, Note_off_c, 2, 52, 0
3, 215640, Note_off_c, 2, 45, 0
3, 215640, Note_on_c, 2, 45, 65
3, 215640, Note_on_c, 2, 52, 65
3, 215640, Note_on_c, 2, 57, 65
3, 215640, Note_on_c, 2, 61, 65
3, 215640, Note_on_c, 2, 64, 65
3, 215640, Note_on_c, 2, 69, 65
3, 216000, Note_off_c, 2, 69, 0
3, 216000, Note_off_c, 2, 64, 0
3, 216000, Note_off_c, 2, 61, 0
3, 216000, Note_off_c, 2, 57, 0
3, 216000, Note_off_c, 2, 52, 0
3, 216000, Note_off_c, 2, 45, 0
3, 216000, Note_on_c, 2, 48, 65
3, 216000, Note_on_c, 2, 55, 65
3, 216000, Note_on_c, 2, 60, 65
3, 216000, Note_on_c, 2, 64, 65
3, 216000, Note_on_c, 2, 67, 65
3, 216000, Note_on_c, 2, 72, 65
3, 216360, Note_off_c, 2, 72, 0
3, 216360, Note_off_c, 2, 67, 0
3, 216360, Note_off_c, 2, 64, 0
3, 216360, Note_off_c, 2, 60, 0
3, 216360, Note_off_c, 2, 55, 0
3, 216360, Note_off_c, 2, 48, 0
3, 216360, Note_on_c, 2, 48, 65
3, 216360, Note_on_c, 2, 55, 65
3, 216360, Note_on_c, 2, 60, 65
3, 216360, Note_on_c, 2, 64, 65
3, 216360, Note_on_c, 2, 67, 65
3, 216360, Note_on_c, 2, 72, 65
3, 216720, Note_off_c, 2, 72, 0
3, 216720, Note_off_c, 2, 67, 0
3, 216720, Note_off_c, 2, 64, 0
3, 216720, Note_off_c, 2, 60, 0
3, 216720, Note_off_c, 2, 55, 0
3, 216720, Note_off_c, 2, 48, 0
3, 216720, Note_on_c, 2, 48, 65
3, 216720, Note_on_c, 2, 55, 65
3, 216720, Note_on_c, 2, 60, 65
3, 216720, Note_on_c, 2, 64, 65
3, 216720, Note_on_c, 2, 67, 65
3, 216720, Note_on_c, 2, 72, 65
3, 217080, Note_off_c, 2, 72, 0
3, 217080, Note_off_c, 2, 67, 0
3, 217080, Note_off_c, 2, 64, 0
3, 217080, Note_off_c, 2, 60, 0
3, 217080, Note_off_c, 2, 55, 0
3, 217080, Note_off_c, 2, 48, 0
3, 217080, Note_on_c, 2, 48, 65
3, 217080, Note_on_c, 2, 55, 65
3, 217080, Note_on_c, 2, 60, 65
3, 217080, Note_on_c, 2, 64, 65
3, 217080, Note_on_c, 2, 67, 65
3, 217080, Note_on_c, 2, 72, 65
3, 217440, Note_off_c, 2, 72, 0
3, 217440, Note_off_c, 2, 67, 0
3, 217440, Note_off_c, 2, 64, 0
3, 217440, Note_off_c, 2, 60, 0
3, 217440, Note_off_c, 2, 55, 0
3, 217440, Note_off_c, 2, 48, 0
3, 217440, Note_on_c, 2, 48, 65
3, 217440, Note_on_c, 2, 55, 65
3, 217440, Note_on_c, 2, 60, 65
3, 217440, Note_on_c, 2, 64, 65
3, 217440, Note_on_c, 2, 67, 65
3, 217440, Note_on_c, 2, 72, 65
3, 217800, Note_off_c, 2, 72, 0
3, 217800, Note_off_c, 2, 67, 0
3, 217800, Note_off_c, 2, 64, 0
3, 217800, Note_off_c, 2, 60, 0
3, 217800, Note_off_c, 2, 55, 0
3, 217800, Note_off_c, 2, 48, 0
3, 217800, Note_on_c, 2, 48, 65
3, 217800, Note_on_c, 2, 55, 65
3, 217800, Note_on_c, 2, 60, 65
3, 217800, Note_on_c, 2, 64, 65
3, 217800, Note_on_c, 2, 67, 65
3, 217800, Note_on_c, 2, 72, 65
3, 218160, Note_off_c, 2, 72, 0
3, 218160, Note_off_c, 2, 67, 0
3, 218160, Note_off_c, 2, 64, 0
3, 218160, Note_off_c, 2, 60, 0
3, 218160, Note_off_c, 2, 55, 0
3, 218160, Note_off_c, 2, 48, 0
3, 218160, Note_on_c, 2, 48, 65
3, 218160, Note_on_c, 2, 55, 65
3, 218160, Note_on_c, 2, 60, 65
3, 218160, Note_on_c, 2, 64, 65
3, 218160, Note_on_c, 2, 67, 65
3, 218160, Note_on_c, 2, 72, 65
3, 218520, Note_off_c, 2, 72, 0
3, 218520, Note_off_c, 2, 67, 0
3, 218520, Note_off_c, 2, 64, 0
3, 218520, Note_off_c, 2, 60, 0
3, 218520, Note_off_c, 2, 55, 0
3, 218520, Note_off_c, 2, 48, 0
3, 218520, Note_on_c, 2, 48, 65
3, 218520, Note_on_c, 2, 55, 65
3, 218520, Note_on_c, 2, 60, 65
3, 218520, Note_on_c, 2, 64, 65
3, 218520, Note_on_c, 2, 67, 65
3, 218520, Note_on_c, 2, 72, 65
3, 218880, Note_off_c, 2, 72, 0
3, 218880, Note_off_c, 2, 67, 0
3, 218880, Note_off_c, 2, 64, 0
3, 218880, Note_off_c, 2, 60, 0
3, 218880, Note_off_c, 2, 55, 0
3, 218880, Note_off_c, 2, 48, 0
3, 218880, Note_on_c, 2, 48, 65
3, 218880, Note_on_c, 2, 55, 65
3, 218880, Note_on_c, 2, 60, 65
3, 218880, Note_on_c, 2, 64, 65
3, 218880, Note_on_c, 2, 67, 65
3, 218880, Note_on_c, 2, 72, 65
3, 219240, Note_off_c, 2, 72, 0
3, 219240, Note_off_c, 2, 67, 0
3, 219240, Note_off_c, 2, 64, 0
3, 219240, Note_off_c, 2, 60, 0
3, 219240, Note_off_c, 2, 55, 0
3, 219240, Note_off_c, 2, 48, 0
3, 219240, Note_on_c, 2, 48, 65
3, 219240, Note_on_c, 2, 55, 65
3, 219240, Note_on_c, 2, 60, 65
3, 219240, Note_on_c, 2, 64, 65
3, 219240, Note_on_c, 2, 67, 65
3, 219240, Note_on_c, 2, 72, 65
3, 219600, Note_off_c, 2, 72, 0
3, 219600, Note_off_c, 2, 67, 0
3, 219600, Note_off_c, 2, 64, 0
3, 219600, Note_off_c, 2, 60, 0
3, 219600, Note_off_c, 2, 55, 0
3, 219600, Note_off_c, 2, 48, 0
3, 219600, Note_on_c, 2, 48, 65
3, 219600, Note_on_c, 2, 55, 65
3, 219600, Note_on_c, 2, 60, 65
3, 219600, Note_on_c, 2, 64, 65
3, 219600, Note_on_c, 2, 67, 65
3, 219600, Note_on_c, 2, 72, 65
3, 219960, Note_off_c, 2, 72, 0
3, 219960, Note_off_c, 2, 67, 0
3, 219960, Note_off_c, 2, 64, 0
3, 219960, Note_off_c, 2, 60, 0
3, 219960, Note_off_c, 2, 55, 0
3, 219960, Note_off_c, 2, 48, 0
3, 219960, Note_on_c, 2, 48, 65
3, 219960, Note_on_c, 2, 55, 65
3, 219960, Note_on_c, 2, 60, 65
3, 219960, Note_on_c, 2, 64, 65
3, 219960, Note_on_c, 2, 67, 65
3, 219960, Note_on_c, 2, 72, 65
3, 220320, Note_off_c, 2, 72, 0
3, 220320, Note_off_c, 2, 67, 0
3, 220320, Note_off_c, 2, 64, 0
3, 220320, Note_off_c, 2, 60, 0
3, 220320, Note_off_c, 2, 55, 0
3, 220320, Note_off_c, 2, 48, 0
3, 220320, Note_on_c, 2, 48, 65
3, 220320, Note_on_c, 2, 55, 65
3, 220320, Note_on_c, 2, 60, 65
3, 220320, Note_on_c, 2, 64, 65
3, 220320, Note_on_c, 2, 67, 65
3, 220320, Note_on_c, 2, 72, 65
3, 220680, Note_off_c, 2, 72, 0
3, 220680, Note_off_c, 2, 67, 0
3, 220680, Note_off_c, 2, 64, 0
3, 220680, Note_off_c, 2, 60, 0
3, 220680, Note_off_c, 2, 55, 0
3, 220680, Note_off_c, 2, 48, 0
3, 220680, Note_on_c, 2, 48, 65
3, 220680, Note_on_c, 2, 55, 65
3, 220680, Note_on_c, 2, 60, 65
3, 220680, Note_on_c, 2, 64, 65
3, 220680, Note_on_c, 2, 67, 65
3, 220680, Note_on_c, 2, 72, 65
3, 221040, Note_off_c, 2, 72, 0
3, 221040, Note_off_c, 2, 67, 0
3, 221040, Note_off_c, 2, 64, 0
3, 221040, Note_off_c, 2, 60, 0
3, 221040, Note_off_c, 2, 55, 0
3, 221040, Note_off_c, 2, 48, 0
3, 221040, Note_on_c, 2, 48, 65
3, 221040, Note_on_c, 2, 55, 65
3, 221040, Note_on_c, 2, 60, 65
3, 221040, Note_on_c, 2, 64, 65
3, 221040, Note_on_c, 2, 67, 65
3, 221040, Note_on_c, 2, 72, 65
3, 221400, Note_off_c, 2, 72, 0
3, 221400, Note_off_c, 2, 67, 0
3, 221400, Note_off_c, 2, 64, 0
3, 221400, Note_off_c, 2, 60, 0
3, 221400, Note_off_c, 2, 55, 0
3, 221400, Note_off_c, 2, 48, 0
3, 221400, Note_on_c, 2, 48, 65
3, 221400, Note_on_c, 2, 55, 65
3, 221400, Note_on_c, 2, 60, 65
3, 221400, Note_on_c, 2, 64, 65
3, 221400, Note_on_c, 2, 67, 65
3, 221400, Note_on_c, 2, 72, 65
3, 221760, Note_off_c, 2, 72, 0
3, 221760, Note_off_c, 2, 67, 0
3, 221760, Note_off_c, 2, 64, 0
3, 221760, Note_off_c, 2, 60, 0
3, 221760, Note_off_c, 2, 55, 0
3, 221760, Note_off_c, 2, 48, 0
3, 221760, Note_on_c, 2, 41, 65
3, 221760, Note_on_c, 2, 48, 65
3, 221760, Note_on_c, 2, 53, 65
3, 221760, Note_on_c, 2, 57, 65
3, 221760, Note_on_c, 2, 60, 65
3, 221760, Note_on_c, 2, 65, 65
3, 222120, Note_off_c, 2, 65, 0
3, 222120, Note_off_c, 2, 60, 0
3, 222120, Note_off_c, 2, 57, 0
3, 222120, Note_off_c, 2, 53, 0
3, 222120, Note_off_c, 2, 48, 0
3, 222120, Note_off_c, 2, 41, 0
3, 222120, Note_on_c, 2, 41, 65
3, 222120, Note_on_c, 2, 48, 65
3, 222120, Note_on_c, 2, 53, 65
3, 222120, Note_on_c, 2, 57, 65
3, 222120, Note_on_c, 2, 60, 65
3, 222120, Note_on_c, 2, 65, 65
3, 222480, Note_off_c, 2, 65, 0
3, 222480, Note_off_c, 2, 60, 0
3, 222480, Note_off_c, 2, 57, 0
3, 222480, Note_off_c, 2, 53, 0
3, 222480, Note_off_c, 2, 48, 0
3, 222480, Note_off_c, 2, 41, 0
3, 222480, Note_on_c, 2, 41, 65
3, 222480, Note_on_c, 2, 48, 65
3, 222480, Note_on_c, 2, 53, 65
3, 222480, Note_on_c, 2, 57, 65
3, 222480, Note_on_c, 2, 60, 65
3, 222480, Note_on_c, 2, 65, 65
3, 222840, Note_off_c, 2, 65, 0
3, 222840, Note_off_c, 2, 60, 0
3, 222840, Note_off_c, 2, 57, 0
3, 222840, Note_off_c, 2, 53, 0
3, 222840, Note_off_c, 2, 48, 0
3, 222840, Note_off_c, 2, 41, 0
3, 222840, Note_on_c, 2, 41, 65
3, 222840, Note_on_c, 2, 48, 65
3, 222840, Note_on_c, 2, 53, 65
3, 222840, Note_on_c, 2, 57, 65
3, 222840, Note_on_c, 2, 60, 65
3, 222840, Note_on_c, 2, 65, 65
3, 223200, Note_off_c, 2, 65, 0
3, 223200, Note_off_c, 2, 60, 0
3, 223200, Note_off_c, 2, 57, 0
3, 223200, Note_off_c, 2, 53, 0
3, 223200, Note_off_c, 2, 48, 0
3, 223200, Note_off_c, 2, 41, 0
3, 223200, Note_on_c, 2, 41, 65
3, 223200, Note_on_c, 2, 48, 65
3, 223200, Note_on_c, 2, 53, 65
3, 223200, Note_on_c, 2, 57, 65
3, 223200, Note_on_c, 2, 60, 65
3, 223200, Note_on_c, 2, 65, 65
3, 223560, Note_off_c, 2, 65, 0
3, 223560, Note_off_c, 2, 60, 0
3, 223560, Note_off_c, 2, 57, 0
3, 223560, Note_off_c, 2, 53, 0
3, 223560, Note_off_c, 2, 48, 0
3, 223560, Note_off_c, 2, 41, 0
3, 223560, Note_on_c, 2, 41, 65
3, 223560, Note_on_c, 2, 48, 65
3, 223560, Note_on_c, 2, 53, 65
3, 223560, Note_on_c, 2, 57, 65
3, 223560, Note_on_c, 2, 60, 65
3, 223560, Note_on_c, 2, 65, 65
3, 223920, Note_off_c, 2, 65, 0
3, 223920, Note_off_c, 2, 60, 0
3, 223920, Note_off_c, 2, 57, 0
3, 223920, Note_off_c, 2, 53, 0
3, 223920, Note_off_c, 2, 48, 0
3, 223920, Note_off_c, 2, 41, 0
3, 223920, Note_on_c, 2, 41, 65
3, 223920, Note_on_c, 2, 48, 65
3, 223920, Note_on_c, 2, 53, 65
3, 223920, Note_on_c, 2, 57, 65
3, 223920, Note_on_c, 2, 60, 65
3, 223920, Note_on_c, 2, 65, 65
3, 224280, Note_off_c, 2, 65, 0
3, 224280, Note_off_c, 2, 60, 0
3, 224280, Note_off_c, 2, 57, 0
3, 224280, Note_off_c, 2, 53, 0
3, 224280, Note_off_c, 2, 48, 0
3, 224280, Note_off_c, 2, 41, 0
3, 224280, Note_on_c, 2, 41, 65
3, 224280, Note_on_c, 2, 48, 65
3, 224280, Note_on_c, 2, 53, 65
3, 224280, Note_on_c, 2, 57, 65
3, 224280, Note_on_c, 2, 60, 65
3, 224280, Note_on_c, 2, 65, 65
3, 224640, Note_off_c, 2, 65, 0
3, 224640, Note_off_c, 2, 60, 0
3, 224640, Note_off_c, 2, 57, 0
3, 224640, Note_off_c, 2, 53, 0
3, 224640, Note_off_c, 2, 48, 0
3, 224640, Note_off_c, 2, 41, 0
3, 224640, Note_on_c, 2, 41, 65
3, 224640, Note_on_c, 2, 48, 65
3, 224640, Note_on_c, 2, 53, 65
3, 224640, Note_on_c, 2, 57, 65
3, 224640, Note_on_c, 2, 60, 65
3, 224640, Note_on_c, 2, 65, 65
3, 225000, Note_off_c, 2, 65, 0
3, 225000, Note_off_c, 2, 60, 0
3, 225000, Note_off_c, 2, 57, 0
3, 225000, Note_off_c, 2, 53, 0
3, 225000, Note_off_c, 2, 48, 0
3, 225000, Note_off_c, 2, 41, 0
3, 225000, Note_on_c, 2, 41, 65
3, 225000, Note_on_c, 2, 48, 65
3, 225000, Note_on_c, 2, 53, 65
3, 225000, Note_on_c, 2, 57, 65
3, 225000, Note_on_c, 2, 60, 65
3, 225000, Note_on_c, 2, 65, 65
3, 225360, Note_off_c, 2, 65, 0
3, 225360, Note_off_c, 2, 60, 0
3, 225360, Note_off_c, 2, 57, 0
3, 225360, Note_off_c, 2, 53, 0
3, 225360, Note_off_c, 2, 48, 0
3, 225360, Note_off_c, 2, 41, 0
3, 225360, Note_on_c, 2, 41, 65
3, 225360, Note_on_c, 2, 48, 65
3, 225360, Note_on_c, 2, 53, 65
3, 225360, Note_on_c, 2, 57, 65
3, 225360, Note_on_c, 2, 60, 65
3, 225360, Note_on_c, 2, 65, 65
3, 225720, Note_off_c, 2, 65, 0
3, 225720, Note_off_c, 2, 60, 0
3, 225720, Note_off_c, 2, 57, 0
3, 225720, Note_off_c, 2, 53, 0
3, 225720, Note_off_c, 2, 48, 0
3, 225720, Note_off_c, 2, 41, 0
3, 225720, Note_on_c, 2, 41, 65
3, 225720, Note_on_c, 2, 48, 65
3, 225720, Note_on_c, 2, 53, 65
3, 225720, Note_on_c, 2, 57, 65
3, 225720, Note_on_c, 2, 60, 65
3, 225720, Note_on_c, 2, 65, 65
3, 226080, Note_off_c, 2, 65, 0
3, 226080, Note_off_c, 2, 60, 0
3, 226080, Note_off_c, 2, 57, 0
3, 226080, Note_off_c, 2, 53, 0
3, 226080, Note_off_c, 2, 48, 0
3, 226080, Note_off_c, 2, 41, 0
3, 226080, Note_on_c, 2, 41, 65
3, 226080, Note_on_c, 2, 48, 65
3, 226080, Note_on_c, 2, 53, 65
3, 226080, Note_on_c, 2, 57, 65
3, 226080, Note_on_c, 2, 60, 65
3, 226080, Note_on_c, 2, 65, 65
3, 226440, Note_off_c, 2, 65, 0
3, 226440, Note_off_c, 2, 60, 0
3, 226440, Note_off_c, 2, 57, 0
3, 226440, Note_off_c, 2, 53, 0
3, 226440, Note_off_c, 2, 48, 0
3, 226440, Note_off_c, 2, 41, 0
3, 226440, Note_on_c, 2, 41, 65
3, 226440, Note_on_c, 2, 48, 65
3, 226440, Note_on_c, 2, 53, 65
3, 226440, Note_on_c, 2, 57, 65
3, 226440, Note_on_c, 2, 60, 65
3, 226440, Note_on_c, 2, 65, 65
3, 226800, Note_off_c, 2, 65, 0
3, 226800, Note_off_c, 2, 60, 0
3, 226800, Note_off_c, 2, 57, 0
3, 226800, Note_off_c, 2, 53, 0
3, 226800, Note_off_c, 2, 48, 0
3, 226800, Note_off_c, 2, 41, 0
3, 226800, Note_on_c, 2, 41, 65
3, 226800, Note_on_c, 2, 48, 65
3, 226800, Note_on_c, 2, 53, 65
3, 226800, Note_on_c, 2, 57, 65
3, 226800, Note_on_c, 2, 60, 65
3, 226800, Note_on_c, 2, 65, 65
3, 227160, Note_off_c, 2, 65, 0
3, 227160, Note_off_c, 2, 60, 0
3, 227160, Note_off_c, 2, 57, 0
3, 227160, Note_off_c, 2, 53, 0
3, 227160, Note_off_c, 2, 48, 0
3, 227160, Note_off_c, 2, 41, 0
3, 227160, Note_on_c, 2, 41, 65
3, 227160, Note_on_c, 2, 48, 65
3, 227160, Note_on_c, 2, 53, 65
3, 227160, Note_on_c, 2, 57, 65
3, 227160, Note_on_c, 2, 60, 65
3, 227160, Note_on_c, 2, 65, 65
3, 227520, Note_off_c, 2, 65, 0
3, 227520, Note_off_c, 2, 60, 0
3, 227520, Note_off_c, 2, 57, 0
3, 227520, Note_off_c, 2, 53, 0
3, 227520, Note_off_c, 2, 48, 0
3, 227520, Note_off_c, 2, 41, 0
3, 227520, Note_on_c, 2, 43, 65
3, 227520, Note_on_c, 2, 50, 65
3, 227520, Note_on_c, 2, 55, 65
3, 227520, Note_on_c, 2, 59, 65
3, 227520, Note_on_c, 2, 62, 65
3, 227520, Note_on_c, 2, 67, 65
3, 227880, Note_off_c, 2, 67, 0
3, 227880, Note_off_c, 2, 62, 0
3, 227880, Note_off_c, 2, 59, 0
3, 227880, Note_off_c, 2, 55, 0
3, 227880, Note_off_c, 2, 50, 0
3, 227880, Note_off_c, 2, 43, 0
3, 227880, Note_on_c, 2, 43, 65
3, 227880, Note_on_c, 2, 50, 65
3, 227880, Note_on_c, 2, 55, 65
3, 227880, Note_on_c, 2, 59, 65
3, 227880, Note_on_c, 2, 62, 65
3, 227880, Note_on_c, 2, 67, 65
3, 228240, Note_off_c, 2, 67, 0
3, 228240, Note_off_c, 2, 62, 0
3, 228240, Note_off_c, 2, 59, 0
3, 228240, Note_off_c, 2, 55, 0
3, 228240, Note_off_c, 2, 50, 0
3, 228240, Note_off_c, 2, 43, 0
3, 228240, Note_on_c, 2, 43, 65
3, 228240, Note_on_c, 2, 50, 65
3, 228240, Note_on_c, 2, 55, 65
3, 228240, Note_on_c, 2, 59, 65
3, 228240, Note_on_c, 2, 62, 65
3, 228240, Note_on_c, 2, 67, 65
3, 228600, Note_off_c, 2, 67, 0
3, 228600, Note_off_c, 2, 62, 0
3, 228600, Note_off_c, 2, 59, 0
3, 228600, Note_off_c, 2, 55, 0
3, 228600, Note_off_c, 2, 50, 0
3, 228600, Note_off_c, 2, 43, 0
3, 228600, Note_on_c, 2, 43, 65
3, 228600, Note_on_c, 2, 50, 65
3, 228600, Note_on_c, 2, 55, 65
3, 228600, Note_on_c, 2, 59, 65
3, 228600, Note_on_c, 2, 62, 65
3, 228600, Note_on_c, 2, 67, 65
3, 228960, Note_off_c, 2, 67, 0
3, 228960, Note_off_c, 2, 62, 0
3, 228960, Note_off_c, 2, 59, 0
3, 228960, Note_off_c, 2, 55, 0
3, 228960, Note_off_c, 2, 50, 0
3, 228960, Note_off_c, 2, 43, 0
3, 228960, Note_on_c, 2, 43, 65
3, 228960, Note_on_c, 2, 50, 65
3, 228960, Note_on_c, 2, 55, 65
3, 228960, Note_on_c, 2, 59, 65
3, 228960, Note_on_c, 2, 62, 65
3, 228960, Note_on_c, 2, 67, 65
3, 229320, Note_off_c, 2, 67, 0
3, 229320, Note_off_c, 2, 62, 0
3, 229320, Note_off_c, 2, 59, 0
3, 229320, Note_off_c, 2, 55, 0
3, 229320, Note_off_c, 2, 50, 0
3, 229320, Note_off_c, 2, 43, 0
3, 229320, Note_on_c, 2, 43, 65
3, 229320, Note_on_c, 2, 50, 65
3, 229320, Note_on_c, 2, 55, 65
3, 229320, Note_on_c, 2, 59, 65
3, 229320, Note_on_c, 2, 62, 65
3, 229320, Note_on_c, 2, 67, 65
3, 229680, Note_off_c, 2, 67, 0
3, 229680, Note_off_c, 2, 62, 0
3, 229680, Note_off_c, 2, 59, 0
3, 229680, Note_off_c, 2, 55, 0
3, 229680, Note_off_c, 2, 50, 0
3, 229680, Note_off_c, 2, 43, 0
3, 229680, Note_on_c, 2, 43, 65
3, 229680, Note_on_c, 2, 50, 65
3, 229680, Note_on_c, 2, 55, 65
3, 229680, Note_on_c, 2, 59, 65
3, 229680, Note_on_c, 2, 62, 65
3, 229680, Note_on_c, 2, 67, 65
3, 230040, Note_off_c, 2, 67, 0
3, 230040, Note_off_c, 2, 62, 0
3, 230040, Note_off_c, 2, 59, 0
3, 230040, Note_off_c, 2, 55, 0
3, 230040, Note_off_c, 2, 50, 0
3, 230040, Note_off_c, 2, 43, 0
3, 230040, Note_on_c, 2, 43, 65
3, 230040, Note_on_c, 2, 50, 65
3, 230040, Note_on_c, 2, 55, 65
3, 230040, Note_on_c, 2, 59, 65
3, 230040, Note_on_c, 2, 62, 65
3, 230040, Note_on_c, 2, 67, 65
3, 230400, Note_off_c, 2, 67, 0
3, 230400, Note_off_c, 2, 62, 0
3, 230400, Note_off_c, 2, 59, 0
3, 230400, Note_off_c, 2, 55, 0
3, 230400, Note_off_c, 2, 50, 0
3, 230400, Note_off_c, 2, 43, 0
3, 230400, Note_on_c, 2, 43, 65
3, 230400, Note_on_c, 2, 50, 65
3, 230400, Note_on_c, 2, 55, 65
3, 230400, Note_on_c, 2, 59, 65
3, 230400, Note_on_c, 2, 62, 65
3, 230400, Note_on_c, 2, 67, 65
3, 230760, Note_off_c, 2, 67, 0
3, 230760, Note_off_c, 2, 62, 0
3, 230760, Note_off_c, 2, 59, 0
3, 230760, Note_off_c, 2, 55, 0
3, 230760, Note_off_c, 2, 50, 0
3, 230760, Note_off_c, 2, 43, 0
3, 230760, Note_on_c, 2, 43, 65
3, 230760, Note_on_c, 2, 50, 65
3, 230760, Note_on_c, 2, 55, 65
3, 230760, Note_on_c, 2, 59, 65
3, 230760, Note_on_c, 2, 62, 65
3, 230760, Note_on_c, 2, 67, 65
3, 231120, Note_off_c, 2, 67, 0
3, 231120, Note_off_c, 2, 62, 0
3, 231120, Note_off_c, 2, 59, 0
3, 231120, Note_off_c, 2, 55, 0
3, 231120, Note_off_c, 2, 50, 0
3, 231120, Note_off_c, 2, 43, 0
3, 231120, Note_on_c, 2, 43, 65
3, 231120, Note_on_c, 2, 50, 65
3, 231120, Note_on_c, 2, 55, 65
3, 231120, Note_on_c, 2, 59, 65
3, 231120, Note_on_c, 2, 62, 65
3, 231120, Note_on_c, 2, 67, 65
3, 231480, Note_off_c, 2, 67, 0
3, 231480, Note_off_c, 2, 62, 0
3, 231480, Note_off_c, 2, 59, 0
3, 231480, Note_off_c, 2, 55, 0
3, 231480, Note_off_c, 2, 50, 0
3, 231480, Note_off_c, 2, 43, 0
3, 231480, Note_on_c, 2, 43, 65
3, 231480, Note_on_c, 2, 50, 65
3, 231480, Note_on_c, 2, 55, 65
3, 231480, Note_on_c, 2, 59, 65
3, 231480, Note_on_c, 2, 62, 65
3, 231480, Note_on_c, 2, 67, 65
3, 231840, Note_off_c, 2, 67, 0
3, 231840, Note_off_c, 2, 62, 0
3, 231840, Note_off_c, 2, 59, 0
3, 231840, Note_off_c, 2, 55, 0
3, 231840, Note_off_c, 2, 50, 0
3, 231840, Note_off_c, 2, 43, 0
3, 231840, Note_on_c, 2, 46, 65
3, 231840, Note_on_c, 2, 53, 65
3, 231840, Note_on_c, 2, 58, 65
3, 231840, Note_on_c, 2, 62, 65
3, 231840, Note_on_c, 2, 65, 65
3, 231840, Note_on_c, 2, 70, 65
3, 232200, Note_off_c, 2, 70, 0
3, 232200, Note_off_c, 2, 65, 0
3, 232200, Note_off_c, 2, 62, 0
3, 232200, Note_off_c, 2, 58, 0
3, 232200, Note_off_c, 2, 53, 0
3, 232200, Note_off_c, 2, 46, 0
3, 232200, Note_on_c, 2, 46, 65
3, 232200, Note_on_c, 2, 53, 65
3, 232200, Note_on_c, 2, 58, 65
3, 232200, Note_on_c, 2, 62, 65
3, 232200, Note_on_c, 2, 65, 65
3, 232200, Note_on_c, 2, 70, 65
3, 232560, Note_off_c, 2, 70, 0
3, 232560, Note_off_c, 2, 65, 0
3, 232560, Note_off_c, 2, 62, 0
3, 232560, Note_off_c, 2, 58, 0
3, 232560, Note_off_c, 2, 53, 0
3, 232560, Note_off_c, 2, 46, 0
3, 232560, Note_on_c, 2, 46, 65
3, 232560, Note_on_c, 2, 53, 65
3, 232560, Note_on_c, 2, 58, 65
3, 232560, Note_on_c, 2, 62, 65
3, 232560, Note_on_c, 2, 65, 65
3, 232560, Note_on_c, 2, 70, 65
3, 232920, Note_off_c, 2, 70, 0
3, 232920, Note_off_c, 2, 65, 0
3, 232920, Note_off_c, 2, 62, 0
3, 232920, Note_off_c, 2, 58, 0
3, 232920, Note_off_c, 2, 53, 0
3, 232920, Note_off_c, 2, 46, 0
3, 232920, Note_on_c, 2, 46, 65
3, 232920, Note_on_c, 2, 53, 65
3, 232920, Note_on_c, 2, 58, 65
3, 232920, Note_on_c, 2, 62, 65
3, 232920, Note_on_c, 2, 65, 65
3, 232920, Note_on_c, 2, 70, 65
3, 233280, Note_off_c, 2, 70, 0
3, 233280, Note_off_c, 2, 65, 0
3, 233280, Note_off_c, 2, 62, 0
3, 233280, Note_off_c, 2, 58, 0
3, 233280, Note_off_c, 2, 53, 0
3, 233280, Note_off_c, 2, 46, 0
3, 233280, Note_on_c, 2, 45, 65
3, 233280, Note_on_c, 2, 52, 65
3, 233280, Note_on_c, 2, 57, 65
3, 233280, Note_on_c, 2, 61, 65
3, 233280, Note_on_c, 2, 64, 65
3, 233280, Note_on_c, 2, 69, 65
3, 233640, Note_off_c, 2, 69, 0
3, 233640, Note_off_c, 2, 64, 0
3, 233640, Note_off_c, 2, 61, 0
3, 233640, Note_off_c, 2, 57, 0
3, 233640, Note_off_c, 2, 52, 0
3, 233640, Note_off_c, 2, 45, 0
3, 233640, Note_on_c, 2, 45, 65
3, 233640, Note_on_c, 2, 52, 65
3, 233640, Note_on_c, 2, 57, 65
3, 233640, Note_on_c, 2, 61, 65
3, 233640, Note_on_c, 2, 64, 65
3, 233640, Note_on_c, 2, 69, 65
3, 234000, Note_off_c, 2, 69, 0
3, 234000, Note_off_c, 2, 64, 0
3, 234000, Note_off_c, 2, 61, 0
3, 234000, Note_off_c, 2, 57, 0
3, 234000, Note_off_c, 2, 52, 0
3, 234000, Note_off_c, 2, 45, 0
3, 234000, Note_on_c, 2, 45, 65
3, 234000, Note_on_c, 2, 52, 65
3, 234000, Note_on_c, 2, 57, 65
3, 234000, Note_on_c, 2, 61, 65
3, 234000, Note_on_c, 2, 64, 65
3, 234000, Note_on_c, 2, 69, 65
3, 234360, Note_off_c, 2, 69, 0
3, 234360, Note_off_c, 2, 64, 0
3, 234360, Note_off_c, 2, 61, 0
3, 234360, Note_off_c, 2, 57, 0
3, 234360, Note_off_c, 2, 52, 0
3, 234360, Note_off_c, 2, 45, 0
3, 234360, Note_on_c, 2, 45, 65
3, 234360, Note_on_c, 2, 52, 65
3, 234360, Note_on_c, 2, 57, 65
3, 234360, Note_on_c, 2, 61, 65
3, 234360, Note_on_c, 2, 64, 65
3, 234360, Note_on_c, 2, 69, 65
3, 234720, Note_off_c, 2, 69, 0
3, 234720, Note_off_c, 2, 64, 0
3, 234720, Note_off_c, 2, 61, 0
3, 234720, Note_off_c, 2, 57, 0
3, 234720, Note_off_c, 2, 52, 0
3, 234720, Note_off_c, 2, 45, 0
3, 234720, Note_on_c, 2, 45, 65
3, 234720, Note_on_c, 2, 52, 65
3, 234720, Note_on_c, 2, 57, 65
3, 234720, Note_on_c, 2, 61, 65
3, 234720, Note_on_c, 2, 64, 65
3, 234720, Note_on_c, 2, 69, 65
3, 235080, Note_off_c, 2, 69, 0
3, 235080, Note_off_c, 2, 64, 0
3, 235080, Note_off_c, 2, 61, 0
3, 235080, Note_off_c, 2, 57, 0
3, 235080, Note_off_c, 2, 52, 0
3, 235080, Note_off_c, 2, 45, 0
3, 235080, Note_on_c, 2, 45, 65
3, 235080, Note_on_c, 2, 52, 65
3, 235080, Note_on_c, 2, 57, 65
3, 235080, Note_on_c, 2, 61, 65
3, 235080, Note_on_c, 2, 64, 65
3, 235080, Note_on_c, 2, 69, 65
3, 235440, Note_off_c, 2, 69, 0
3, 235440, Note_off_c, 2, 64, 0
3, 235440, Note_off_c, 2, 61, 0
3, 235440, Note_off_c, 2, 57, 0
3, 235440, Note_off_c, 2, 52, 0
3, 235440, Note_off_c, 2, 45, 0
3, 235440, Note_on_c, 2, 45, 65
3, 235440, Note_on_c, 2, 52, 65
3, 235440, Note_on_c, 2, 57, 65
3, 235440, Note_on_c, 2, 61, 65
3, 235440, Note_on_c, 2, 64, 65
3, 235440, Note_on_c, 2, 69, 65
3, 235800, Note_off_c, 2, 69, 0
3, 235800, Note_off_c, 2, 64, 0
3, 235800, Note_off_c, 2, 61, 0
3, 235800, Note_off_c, 2, 57, 0
3, 235800, Note_off_c, 2, 52, 0
3, 235800, Note_off_c, 2, 45, 0
3, 235800, Note_on_c, 2, 45, 65
3, 235800, Note_on_c, 2, 52, 65
3, 235800, Note_on_c, 2, 57, 65
3, 235800, Note_on_c, 2, 61, 65
3, 235800, Note_on_c, 2, 64, 65
3, 235800, Note_on_c, 2, 69, 65
3, 236160, Note_off_c, 2, 69, 0
3, 236160, Note_off_c, 2, 64, 0
3, 236160, Note_off_c, 2, 61, 0
3, 236160, Note_off_c, 2, 57, 0
3, 236160, Note_off_c, 2, 52, 0
3, 236160, Note_off_c, 2, 45, 0
3, 236160, Note_on_c, 2, 45, 65
3, 236160, Note_on_c, 2, 52, 65
3, 236160, Note_on_c, 2, 57, 65
3, 236160, Note_on_c, 2, 61, 65
3, 236160, Note_on_c, 2, 64, 65
3, 236160, Note_on_c, 2, 69, 65
3, 236520, Note_off_c, 2, 69, 0
3, 236520, Note_off_c, 2, 64, 0
3, 236520, Note_off_c, 2, 61, 0
3, 236520, Note_off_c, 2, 57, 0
3, 236520, Note_off_c, 2, 52, 0
3, 236520, Note_off_c, 2, 45, 0
3, 236520, Note_on_c, 2, 45, 65
3, 236520, Note_on_c, 2, 52, 65
3, 236520, Note_on_c, 2, 57, 65
3, 236520, Note_on_c, 2, 61, 65
3, 236520, Note_on_c, 2, 64, 65
3, 236520, Note_on_c, 2, 69, 65
3, 236880, Note_off_c, 2, 69, 0
3, 236880, Note_off_c, 2, 64, 0
3, 236880, Note_off_c, 2, 61, 0
3, 236880, Note_off_c, 2, 57, 0
3, 236880, Note_off_c, 2, 52, 0
3, 236880, Note_off_c, 2, 45, 0
3, 236880, Note_on_c, 2, 45, 65
3, 236880, Note_on_c, 2, 52, 65
3, 236880, Note_on_c, 2, 57, 65
3, 236880, Note_on_c, 2, 61, 65
3, 236880, Note_on_c, 2, 64, 65
3, 236880, Note_on_c, 2, 69, 65
3, 237240, Note_off_c, 2, 69, 0
3, 237240, Note_off_c, 2, 64, 0
3, 237240, Note_off_c, 2, 61, 0
3, 237240, Note_off_c, 2, 57, 0
3, 237240, Note_off_c, 2, 52, 0
3, 237240, Note_off_c, 2, 45, 0
3, 237240, Note_on_c, 2, 45, 65
3, 237240, Note_on_c, 2, 52, 65
3, 237240, Note_on_c, 2, 57, 65
3, 237240, Note_on_c, 2, 61, 65
3, 237240, Note_on_c, 2, 64, 65
3, 237240, Note_on_c, 2, 69, 65
3, 237600, Note_off_c, 2, 69, 0
3, 237600, Note_off_c, 2, 64, 0
3, 237600, Note_off_c, 2, 61, 0
3, 237600, Note_off_c, 2, 57, 0
3, 237600, Note_off_c, 2, 52, 0
3, 237600, Note_off_c, 2, 45, 0
3, 237600, Note_on_c, 2, 45, 65
3, 237600, Note_on_c, 2, 52, 65
3, 237600, Note_on_c, 2, 57, 65
3, 237600, Note_on_c, 2, 61, 65
3, 237600, Note_on_c, 2, 64, 65
3, 237600, Note_on_c, 2, 69, 65
3, 237960, Note_off_c, 2, 69, 0
3, 237960, Note_off_c, 2, 64, 0
3, 237960, Note_off_c, 2, 61, 0
3, 237960, Note_off_c, 2, 57, 0
3, 237960, Note_off_c, 2, 52, 0
3, 237960, Note_off_c, 2, 45, 0
3, 237960, Note_on_c, 2, 45, 65
3, 237960, Note_on_c, 2, 52, 65
3, 237960, Note_on_c, 2, 57, 65
3, 237960, Note_on_c, 2, 61, 65
3, 237960, Note_on_c, 2, 64, 65
3, 237960, Note_on_c, 2, 69, 65
3, 238320, Note_off_c, 2, 69, 0
3, 238320, Note_off_c, 2, 64, 0
3, 238320, Note_off_c, 2, 61, 0
3, 238320, Note_off_c, 2, 57, 0
3, 238320, Note_off_c, 2, 52, 0
3, 238320, Note_off_c, 2, 45, 0
3, 238320, Note_on_c, 2, 45, 65
3, 238320, Note_on_c, 2, 52, 65
3, 238320, Note_on_c, 2, 57, 65
3, 238320, Note_on_c, 2, 61, 65
3, 238320, Note_on_c, 2, 64, 65
3, 238320, Note_on_c, 2, 69, 65
3, 238680, Note_off_c, 2, 69, 0
3, 238680, Note_off_c, 2, 64, 0
3, 238680, Note_off_c, 2, 61, 0
3, 238680, Note_off_c, 2, 57, 0
3, 238680, Note_off_c, 2, 52, 0
3, 238680, Note_off_c, 2, 45, 0
3, 238680, Note_on_c, 2, 45, 65
3, 238680, Note_on_c, 2, 52, 65
3, 238680, Note_on_c, 2, 57, 65
3, 238680, Note_on_c, 2, 61, 65
3, 238680, Note_on_c, 2, 64, 65
3, 238680, Note_on_c, 2, 69, 65
3, 239040, Note_off_c, 2, 69, 0
3, 239040, Note_off_c, 2, 64, 0
3, 239040, Note_off_c, 2, 61, 0
3, 239040, Note_off_c, 2, 57, 0
3, 239040, Note_off_c, 2, 52, 0
3, 239040, Note_off_c, 2, 45, 0
3, 239040, Note_on_c, 2, 48, 65
3, 239040, Note_on_c, 2, 55, 65
3, 239040, Note_on_c, 2, 60, 65
3, 239040, Note_on_c, 2, 64, 65
3, 239040, Note_on_c, 2, 67, 65
3, 239040, Note_on_c, 2, 72, 65
3, 239400, Note_off_c, 2, 72, 0
3, 239400, Note_off_c, 2, 67, 0
3, 239400, Note_off_c, 2, 64, 0
3, 239400, Note_off_c, 2, 60, 0
3, 239400, Note_off_c, 2, 55, 0
3, 239400, Note_off_c, 2, 48, 0
3, 239400, Note_on_c, 2, 48, 65
3, 239400, Note_on_c, 2, 55, 65
3, 239400, Note_on_c, 2, 60, 65
3, 239400, Note_on_c, 2, 64, 65
3, 239400, Note_on_c, 2, 67, 65
3, 239400, Note_on_c, 2, 72, 65
3, 239760, Note_off_c, 2, 72, 0
3, 239760, Note_off_c, 2, 67, 0
3, 239760, Note_off_c, 2, 64, 0
3, 239760, Note_off_c, 2, 60, 0
3, 239760, Note_off_c, 2, 55, 0
3, 239760, Note_off_c, 2, 48, 0
3, 239760, Note_on_c, 2, 48, 65
3, 239760, Note_on_c, 2, 55, 65
3, 239760, Note_on_c, 2, 60, 65
3, 239760, Note_on_c, 2, 64, 65
3, 239760, Note_on_c, 2, 67, 65
3, 239760, Note_on_c, 2, 72, 65
3, 240120, Note_off_c, 2, 72, 0
3, 240120, Note_off_c, 2, 67, 0
3, 240120, Note_off_c, 2, 64, 0
3, 240120, Note_off_c, 2, 60, 0
3, 240120, Note_off_c, 2, 55, 0
3, 240120, Note_off_c, 2, 48, 0
3, 240120, Note_on_c, 2, 48, 65
3, 240120, Note_on_c, 2, 55, 65
3, 240120, Note_on_c, 2, 60, 65
3, 240120, Note_on_c, 2, 64, 65
3, 240120, Note_on_c, 2, 67, 65
3, 240120, Note_on_c, 2, 72, 65
3, 240480, Note_off_c, 2, 72, 0
3, 240480, Note_off_c, 2, 67, 0
3, 240480, Note_off_c, 2, 64, 0
3, 240480, Note_off_c, 2, 60, 0
3, 240480, Note_off_c, 2, 55, 0
3, 240480, Note_off_c, 2, 48, 0
3, 240480, Note_on_c, 2, 48, 65
3, 240480, Note_on_c, 2, 55, 65
3, 240480, Note_on_c, 2, 60, 65
3, 240480, Note_on_c, 2, 64, 65
3, 240480, Note_on_c, 2, 67, 65
3, 240480, Note_on_c, 2, 72, 65
3, 240840, Note_off_c, 2, 72, 0
3, 240840, Note_off_c, 2, 67, 0
3, 240840, Note_off_c, 2, 64, 0
3, 240840, Note_off_c, 2, 60, 0
3, 240840, Note_off_c, 2, 55, 0
3, 240840, Note_off_c, 2, 48, 0
3, 240840, Note_on_c, 2, 48, 65
3, 240840, Note_on_c, 2, 55, 65
3, 240840, Note_on_c, 2, 60, 65
3, 240840, Note_on_c, 2, 64, 65
3, 240840, Note_on_c, 2, 67, 65
3, 240840, Note_on_c, 2, 72, 65
3, 241200, Note_off_c, 2, 72, 0
3, 241200, Note_off_c, 2, 67, 0
3, 241200, Note_off_c, 2, 64, 0
3, 241200, Note_off_c, 2, 60, 0
3, 241200, Note_off_c, 2, 55, 0
3, 241200, Note_off_c, 2, 48, 0
3, 241200, Note_on_c, 2, 48, 65
3, 241200, Note_on_c, 2, 55, 65
3, 241200, Note_on_c, 2, 60, 65
3, 241200, Note_on_c, 2, 64, 65
3, 241200, Note_on_c, 2, 67, 65
3, 241200, Note_on_c, 2, 72, 65
3, 241560, Note_off_c, 2, 72, 0
3, 241560, Note_off_c, 2, 67, 0
3, 241560, Note_off_c, 2, 64, 0
3, 241560, Note_off_c, 2, 60, 0
3, 241560, Note_off_c, 2, 55, 0
3, 241560, Note_off_c, 2, 48, 0
3, 241560, Note_on_c, 2, 48, 65
3, 241560, Note_on_c, 2, 55, 65
3, 241560, Note_on_c, 2, 60, 65
3, 241560, Note_on_c, 2, 64, 65
3, 241560, Note_on_c, 2, 67, 65
3, 241560, Note_on_c, 2, 72, 65
3, 241920, Note_off_c, 2, 72, 0
3, 241920, Note_off_c, 2, 67, 0
3, 241920, Note_off_c, 2, 64, 0
3, 241920, Note_off_c, 2, 60, 0
3, 241920, Note_off_c, 2, 55, 0
3, 241920, Note_off_c, 2, 48, 0
3, 241920, Note_on_c, 2, 48, 65
3, 241920, Note_on_c, 2, 55, 65
3, 241920, Note_on_c, 2, 60, 65
3, 241920, Note_on_c, 2, 64, 65
3, 241920, Note_on_c, 2, 67, 65
3, 241920, Note_on_c, 2, 72, 65
3, 242280, Note_off_c, 2, 72, 0
3, 242280, Note_off_c, 2, 67, 0
3, 242280, Note_off_c, 2, 64, 0
3, 242280, Note_off_c, 2, 60, 0
3, 242280, Note_off_c, 2, 55, 0
3, 242280, Note_off_c, 2, 48, 0
3, 242280, Note_on_c, 2, 48, 65
3, 242280, Note_on_c, 2, 55, 65
3, 242280, Note_on_c, 2, 60, 65
3, 242280, Note_on_c, 2, 64, 65
3, 242280, Note_on_c, 2, 67, 65
3, 242280, Note_on_c, 2, 72, 65
3, 242640, Note_off_c, 2, 72, 0
3, 242640, Note_off_c, 2, 67, 0
3, 242640, Note_off_c, 2, 64, 0
3, 242640, Note_off_c, 2, 60, 0
3, 242640, Note_off_c, 2, 55, 0
3, 242640, Note_off_c, 2, 48, 0
3, 242640, Note_on_c, 2, 48, 65
3, 242640, Note_on_c, 2, 55, 65
3, 242640, Note_on_c, 2, 60, 65
3, 242640, Note_on_c, 2, 64, 65
3, 242640, Note_on_c, 2, 67, 65
3, 242640, Note_on_c, 2, 72, 65
3, 243000, Note_off_c, 2, 72, 0
3, 243000, Note_off_c, 2, 67, 0
3, 243000, Note_off_c, 2, 64, 0
3, 243000, Note_off_c, 2, 60, 0
3, 243000, Note_off_c, 2, 55, 0
3, 243000, Note_off_c, 2, 48, 0
3, 243000, Note_on_c, 2, 48, 65
3, 243000, Note_on_c, 2, 55, 65
3, 243000, Note_on_c, 2, 60, 65
3, 243000, Note_on_c, 2, 64, 65
3, 243000, Note_on_c, 2, 67, 65
3, 243000, Note_on_c, 2, 72, 65
3, 243360, Note_off_c, 2, 72, 0
3, 243360, Note_off_c, 2, 67, 0
3, 243360, Note_off_c, 2, 64, 0
3, 243360, Note_off_c, 2, 60, 0
3, 243360, Note_off_c, 2, 55, 0
3, 243360, Note_off_c, 2, 48, 0
3, 243360, Note_on_c, 2, 48, 65
3, 243360, Note_on_c, 2, 55, 65
3, 243360, Note_on_c, 2, 60, 65
3, 243360, Note_on_c, 2, 64, 65
3, 243360, Note_on_c, 2, 67, 65
3, 243360, Note_on_c, 2, 72, 65
3, 243720, Note_off_c, 2, 72, 0
3, 243720, Note_off_c, 2, 67, 0
3, 243720, Note_off_c, 2, 64, 0
3, 243720, Note_off_c, 2, 60, 0
3, 243720, Note_off_c, 2, 55, 0
3, 243720, Note_off_c, 2, 48, 0
3, 243720, Note_on_c, 2, 48, 65
3, 243720, Note_on_c, 2, 55, 65
3, 243720, Note_on_c, 2, 60, 65
3, 243720, Note_on_c, 2, 64, 65
3, 243720, Note_on_c, 2, 67, 65
3, 243720, Note_on_c, 2, 72, 65
3, 244080, Note_off_c, 2, 72, 0
3, 244080, Note_off_c, 2, 67, 0
3, 244080, Note_off_c, 2, 64, 0
3, 244080, Note_off_c, 2, 60, 0
3, 244080, Note_off_c, 2, 55, 0
3, 244080, Note_off_c, 2, 48, 0
3, 244080, Note_on_c, 2, 48, 65
3, 244080, Note_on_c, 2, 55, 65
3, 244080, Note_on_c, 2, 60, 65
3, 244080, Note_on_c, 2, 64, 65
3, 244080, Note_on_c, 2, 67, 65
3, 244080, Note_on_c, 2, 72, 65
3, 244440, Note_off_c, 2, 72, 0
3, 244440, Note_off_c, 2, 67, 0
3, 244440, Note_off_c, 2, 64, 0
3, 244440, Note_off_c, 2, 60, 0
3, 244440, Note_off_c, 2, 55, 0
3, 244440, Note_off_c, 2, 48, 0
3, 244440, Note_on_c, 2, 48, 65
3, 244440, Note_on_c, 2, 55, 65
3, 244440, Note_on_c, 2, 60, 65
3, 244440, Note_on_c, 2, 64, 65
3, 244440, Note_on_c, 2, 67, 65
3, 244440, Note_on_c, 2, 72, 65
3, 244800, Note_off_c, 2, 72, 0
3, 244800, Note_off_c, 2, 67, 0
3, 244800, Note_off_c, 2, 64, 0
3, 244800, Note_off_c, 2, 60, 0
3, 244800, Note_off_c, 2, 55, 0
3, 244800, Note_off_c, 2, 48, 0
3, 244800, Note_on_c, 2, 41, 65
3, 244800, Note_on_c, 2, 48, 65
3, 244800, Note_on_c, 2, 53, 65
3, 244800, Note_on_c, 2, 57, 65
3, 244800, Note_on_c, 2, 60, 65
3, 244800, Note_on_c, 2, 65, 65
3, 245160, Note_off_c, 2, 65, 0
3, 245160, Note_off_c, 2, 60, 0
3, 245160, Note_off_c, 2, 57, 0
3, 245160, Note_off_c, 2, 53, 0
3, 245160, Note_off_c, 2, 48, 0
3, 245160, Note_off_c, 2, 41, 0
3, 245160, Note_on_c, 2, 41, 65
3, 245160, Note_on_c, 2, 48, 65
3, 245160, Note_on_c, 2, 53, 65
3, 245160, Note_on_c, 2, 57, 65
3, 245160, Note_on_c, 2, 60, 65
3, 245160, Note_on_c, 2, 65, 65
3, 245520, Note_off_c, 2, 65, 0
3, 245520, Note_off_c, 2, 60, 0
3, 245520, Note_off_c, 2, 57, 0
3, 245520, Note_off_c, 2, 53, 0
3, 245520, Note_off_c, 2, 48, 0
3, 245520, Note_off_c, 2, 41, 0
3, 245520, Note_on_c, 2, 41, 65
3, 245520, Note_on_c, 2, 48, 65
3, 245520, Note_on_c, 2, 53, 65
3, 245520, Note_on_c, 2, 57, 65
3, 245520, Note_on_c, 2, 60, 65
3, 245520, Note_on_c, 2, 65, 65
3, 245880, Note_off_c, 2, 65, 0
3, 245880, Note_off_c, 2, 60, 0
3, 245880, Note_off_c, 2, 57, 0
3, 245880, Note_off_c, 2, 53, 0
3, 245880, Note_off_c, 2, 48, 0
3, 245880, Note_off_c, 2, 41, 0
3, 245880, Note_on_c, 2, 41, 65
3, 245880, Note_on_c, 2, 48, 65
3, 245880, Note_on_c, 2, 53, 65
3, 245880, Note_on_c, 2, 57, 65
3, 245880, Note_on_c, 2, 60, 65
3, 245880, Note_on_c, 2, 65, 65
3, 246240, Note_off_c, 2, 65, 0
3, 246240, Note_off_c, 2, 60, 0
3, 246240, Note_off_c, 2, 57, 0
3, 246240, Note_off_c, 2, 53, 0
3, 246240, Note_off_c, 2, 48, 0
3, 246240, Note_off_c, 2, 41, 0
3, 246240, Note_on_c, 2, 41, 65
3, 246240, Note_on_c, 2, 48, 65
3, 246240, Note_on_c, 2, 53, 65
3, 246240, Note_on_c, 2, 57, 65
3, 246240, Note_on_c, 2, 60, 65
3, 246240, Note_on_c, 2, 65, 65
3, 246600, Note_off_c, 2, 65, 0
3, 246600, Note_off_c, 2, 60, 0
3, 246600, Note_off_c, 2, 57, 0
3, 246600, Note_off_c, 2, 53, 0
3, 246600, Note_off_c, 2, 48, 0
3, 246600, Note_off_c, 2, 41, 0
3, 246600, Note_on_c, 2, 41, 65
3, 246600, Note_on_c, 2, 48, 65
3, 246600, Note_on_c, 2, 53, 65
3, 246600, Note_on_c, 2, 57, 65
3, 246600, Note_on_c, 2, 60, 65
3, 246600, Note_on_c, 2, 65, 65
3, 246960, Note_off_c, 2, 65, 0
3, 246960, Note_off_c, 2, 60, 0
3, 246960, Note_off_c, 2, 57, 0
3, 246960, Note_off_c, 2, 53, 0
3, 246960, Note_off_c, 2, 48, 0
3, 246960, Note_off_c, 2, 41, 0
3, 246960, Note_on_c, 2, 41, 65
3, 246960, Note_on_c, 2, 48, 65
3, 246960, Note_on_c, 2, 53, 65
3, 246960, Note_on_c, 2, 57, 65
3, 246960, Note_on_c, 2, 60, 65
3, 246960, Note_on_c, 2, 65, 65
3, 247320, Note_off_c, 2, 65, 0
3, 247320, Note_off_c, 2, 60, 0
3, 247320, Note_off_c, 2, 57, 0
3, 247320, Note_off_c, 2, 53, 0
3, 247320, Note_off_c, 2, 48, 0
3, 247320, Note_off_c, 2, 41, 0
3, 247320, Note_on_c, 2, 41, 65
3, 247320, Note_on_c, 2, 48, 65
3, 247320, Note_on_c, 2, 53, 65
3, 247320, Note_on_c, 2, 57, 65
3, 247320, Note_on_c, 2, 60, 65
3, 247320, Note_on_c, 2, 65, 65
3, 247680, Note_off_c, 2, 65, 0
3, 247680, Note_off_c, 2, 60, 0
3, 247680, Note_off_c, 2, 57, 0
3, 247680, Note_off_c, 2, 53, 0
3, 247680, Note_off_c, 2, 48, 0
3, 247680, Note_off_c, 2, 41, 0
3, 247680, Note_on_c, 2, 41, 65
3, 247680, Note_on_c, 2, 48, 65
3, 247680, Note_on_c, 2, 53, 65
3, 247680, Note_on_c, 2, 57, 65
3, 247680, Note_on_c, 2, 60, 65
3, 247680, Note_on_c, 2, 65, 65
3, 248040, Note_off_c, 2, 65, 0
3, 248040, Note_off_c, 2, 60, 0
3, 248040, Note_off_c, 2, 57, 0
3, 248040, Note_off_c, 2, 53, 0
3, 248040, Note_off_c, 2, 48, 0
3, 248040, Note_off_c, 2, 41, 0
3, 248040, Note_on_c, 2, 41, 65
3, 248040, Note_on_c, 2, 48, 65
3, 248040, Note_on_c, 2, 53, 65
3, 248040, Note_on_c, 2, 57, 65
3, 248040, Note_on_c, 2, 60, 65
3, 248040, Note_on_c, 2, 65, 65
3, 248400, Note_off_c, 2, 65, 0
3, 248400, Note_off_c, 2, 60, 0
3, 248400, Note_off_c, 2, 57, 0
3, 248400, Note_off_c, 2, 53, 0
3, 248400, Note_off_c, 2, 48, 0
3, 248400, Note_off_c, 2, 41, 0
3, 248400, Note_on_c, 2, 41, 65
3, 248400, Note_on_c, 2, 48, 65
3, 248400, Note_on_c, 2, 53, 65
3, 248400, Note_on_c, 2, 57, 65
3, 248400, Note_on_c, 2, 60, 65
3, 248400, Note_on_c, 2, 65, 65
3, 248760, Note_off_c, 2, 65, 0
3, 248760, Note_off_c, 2, 60, 0
3, 248760, Note_off_c, 2, 57, 0
3, 248760, Note_off_c, 2, 53, 0
3, 248760, Note_off_c, 2, 48, 0
3, 248760, Note_off_c, 2, 41, 0
3, 248760, Note_on_c, 2, 41, 65
3, 248760, Note_on_c, 2, 48, 65
3, 248760, Note_on_c, 2, 53, 65
3, 248760, Note_on_c, 2, 57, 65
3, 248760, Note_on_c, 2, 60, 65
3, 248760, Note_on_c, 2, 65, 65
3, 249120, Note_off_c, 2, 65, 0
3, 249120, Note_off_c, 2, 60, 0
3, 249120, Note_off_c, 2, 57, 0
3, 249120, Note_off_c, 2, 53, 0
3, 249120, Note_off_c, 2, 48, 0
3, 249120, Note_off_c, 2, 41, 0
3, 249120, Note_on_c, 2, 41, 65
3, 249120, Note_on_c, 2, 48, 65
3, 249120, Note_on_c, 2, 53, 65
3, 249120, Note_on_c, 2, 57, 65
3, 249120, Note_on_c, 2, 60, 65
3, 249120, Note_on_c, 2, 65, 65
3, 249480, Note_off_c, 2, 65, 0
3, 249480, Note_off_c, 2, 60, 0
3, 249480, Note_off_c, 2, 57, 0
3, 249480, Note_off_c, 2, 53, 0
3, 249480, Note_off_c, 2, 48, 0
3, 249480, Note_off_c, 2, 41, 0
3, 249480, Note_on_c, 2, 41, 65
3, 249480, Note_on_c, 2, 48, 65
3, 249480, Note_on_c, 2, 53, 65
3, 249480, Note_on_c, 2, 57, 65
3, 249480, Note_on_c, 2, 60, 65
3, 249480, Note_on_c, 2, 65, 65
3, 249840, Note_off_c, 2, 65, 0
3, 249840, Note_off_c, 2, 60, 0
3, 249840, Note_off_c, 2, 57, 0
3, 249840, Note_off_c, 2, 53, 0
3, 249840, Note_off_c, 2, 48, 0
3, 249840, Note_off_c, 2, 41, 0
3, 249840, Note_on_c, 2, 41, 65
3, 249840, Note_on_c, 2, 48, 65
3, 249840, Note_on_c, 2, 53, 65
3, 249840, Note_on_c, 2, 57, 65
3, 249840, Note_on_c, 2, 60, 65
3, 249840, Note_on_c, 2, 65, 65
3, 250200, Note_off_c, 2, 65, 0
3, 250200, Note_off_c, 2, 60, 0
3, 250200, Note_off_c, 2, 57, 0
3, 250200, Note_off_c, 2, 53, 0
3, 250200, Note_off_c, 2, 48, 0
3, 250200, Note_off_c, 2, 41, 0
3, 250200, Note_on_c, 2, 41, 65
3, 250200, Note_on_c, 2, 48, 65
3, 250200, Note_on_c, 2, 53, 65
3, 250200, Note_on_c, 2, 57, 65
3, 250200, Note_on_c, 2, 60, 65
3, 250200, Note_on_c, 2, 65, 65
3, 250560, Note_off_c, 2, 65, 0
3, 250560, Note_off_c, 2, 60, 0
3, 250560, Note_off_c, 2, 57, 0
3, 250560, Note_off_c, 2, 53, 0
3, 250560, Note_off_c, 2, 48, 0
3, 250560, Note_off_c, 2, 41, 0
3, 250560, Note_on_c, 2, 43, 65
3, 250560, Note_on_c, 2, 50, 65
3, 250560, Note_on_c, 2, 55, 65
3, 250560, Note_on_c, 2, 59, 65
3, 250560, Note_on_c, 2, 62, 65
3, 250560, Note_on_c, 2, 67, 65
3, 250920, Note_off_c, 2, 67, 0
3, 250920, Note_off_c, 2, 62, 0
3, 250920, Note_off_c, 2, 59, 0
3, 250920, Note_off_c, 2, 55, 0
3, 250920, Note_off_c, 2, 50, 0
3, 250920, Note_off_c, 2, 43, 0
3, 250920, Note_on_c, 2, 43, 65
3, 250920, Note_on_c, 2, 50, 65
3, 250920, Note_on_c, 2, 55, 65
3, 250920, Note_on_c, 2, 59, 65
3, 250920, Note_on_c, 2, 62, 65
3, 250920, Note_on_c, 2, 67, 65
3, 251280, Note_off_c, 2, 67, 0
3, 251280, Note_off_c, 2, 62, 0
3, 251280, Note_off_c, 2, 59, 0
3, 251280, Note_off_c, 2, 55, 0
3, 251280, Note_off_c, 2, 50, 0
3, 251280, Note_off_c, 2, 43, 0
3, 251280, Note_on_c, 2, 43, 65
3, 251280, Note_on_c, 2, 50, 65
3, 251280, Note_on_c, 2, 55, 65
3, 251280, Note_on_c, 2, 59, 65
3, 251280, Note_on_c, 2, 62, 65
3, 251280, Note_on_c, 2, 67, 65
3, 251640, Note_off_c, 2, 67, 0
3, 251640, Note_off_c, 2, 62, 0
3, 251640, Note_off_c, 2, 59, 0
3, 251640, Note_off_c, 2, 55, 0
3, 251640, Note_off_c, 2, 50, 0
3, 251640, Note_off_c, 2, 43, 0
3, 251640, Note_on_c, 2, 43, 65
3, 251640, Note_on_c, 2, 50, 65
3, 251640, Note_on_c, 2, 55, 65
3, 251640, Note_on_c, 2, 59, 65
3, 251640, Note_on_c, 2, 62, 65
3, 251640, Note_on_c, 2, 67, 65
3, 252000, Note_off_c, 2, 67, 0
3, 252000, Note_off_c, 2, 62, 0
3, 252000, Note_off_c, 2, 59, 0
3, 252000, Note_off_c, 2, 55, 0
3, 252000, Note_off_c, 2, 50, 0
3, 252000, Note_off_c, 2, 43, 0
3, 252000, Note_on_c, 2, 43, 65
3, 252000, Note_on_c, 2, 50, 65
3, 252000, Note_on_c, 2, 55, 65
3, 252000, Note_on_c, 2, 59, 65
3, 252000, Note_on_c, 2, 62, 65
3, 252000, Note_on_c, 2, 67, 65
3, 252360, Note_off_c, 2, 67, 0
3, 252360, Note_off_c, 2, 62, 0
3, 252360, Note_off_c, 2, 59, 0
3, 252360, Note_off_c, 2, 55, 0
3, 252360, Note_off_c, 2, 50, 0
3, 252360, Note_off_c, 2, 43, 0
3, 252360, Note_on_c, 2, 43, 65
3, 252360, Note_on_c, 2, 50, 65
3, 252360, Note_on_c, 2, 55, 65
3, 252360, Note_on_c, 2, 59, 65
3, 252360, Note_on_c, 2, 62, 65
3, 252360, Note_on_c, 2, 67, 65
3, 252720, Note_off_c, 2, 67, 0
3, 252720, Note_off_c, 2, 62, 0
3, 252720, Note_off_c, 2, 59, 0
3, 252720, Note_off_c, 2, 55, 0
3, 252720, Note_off_c, 2, 50, 0
3, 252720, Note_off_c, 2, 43, 0
3, 252720, Note_on_c, 2, 43, 65
3, 252720, Note_on_c, 2, 50, 65
3, 252720, Note_on_c, 2, 55, 65
3, 252720, Note_on_c, 2, 59, 65
3, 252720, Note_on_c, 2, 62, 65
3, 252720, Note_on_c, 2, 67, 65
3, 253080, Note_off_c, 2, 67, 0
3, 253080, Note_off_c, 2, 62, 0
3, 253080, Note_off_c, 2, 59, 0
3, 253080, Note_off_c, 2, 55, 0
3, 253080, Note_off_c, 2, 50, 0
3, 253080, Note_off_c, 2, 43, 0
3, 253080, Note_on_c, 2, 43, 65
3, 253080, Note_on_c, 2, 50, 65
3, 253080, Note_on_c, 2, 55, 65
3, 253080, Note_on_c, 2, 59, 65
3, 253080, Note_on_c, 2, 62, 65
3, 253080, Note_on_c, 2, 67, 65
3, 253440, Note_off_c, 2, 67, 0
3, 253440, Note_off_c, 2, 62, 0
3, 253440, Note_off_c, 2, 59, 0
3, 253440, Note_off_c, 2, 55, 0
3, 253440, Note_off_c, 2, 50, 0
3, 253440, Note_off_c, 2, 43, 0
3, 253440, Note_on_c, 2, 43, 65
3, 253440, Note_on_c, 2, 50, 65
3, 253440, Note_on_c, 2, 55, 65
3, 253440, Note_on_c, 2, 59, 65
3, 253440, Note_on_c, 2, 62, 65
3, 253440, Note_on_c, 2, 67, 65
3, 253800, Note_off_c, 2, 67, 0
3, 253800, Note_off_c, 2, 62, 0
3, 253800, Note_off_c, 2, 59, 0
3, 253800, Note_off_c, 2, 55, 0
3, 253800, Note_off_c, 2, 50, 0
3, 253800, Note_off_c, 2, 43, 0
3, 253800, Note_on_c, 2, 43, 65
3, 253800, Note_on_c, 2, 50, 65
3, 253800, Note_on_c, 2, 55, 65
3, 253800, Note_on_c, 2, 59, 65
3, 253800, Note_on_c, 2, 62, 65
3, 253800, Note_on_c, 2, 67, 65
3, 254160, Note_off_c, 2, 67, 0
3, 254160, Note_off_c, 2, 62, 0
3, 254160, Note_off_c, 2, 59, 0
3, 254160, Note_off_c, 2, 55, 0
3, 254160, Note_off_c, 2, 50, 0
3, 254160, Note_off_c, 2, 43, 0
3, 254160, Note_on_c, 2, 43, 65
3, 254160, Note_on_c, 2, 50, 65
3, 254160, Note_on_c, 2, 55, 65
3, 254160, Note_on_c, 2, 59, 65
3, 254160, Note_on_c, 2, 62, 65
3, 254160, Note_on_c, 2, 67, 65
3, 254520, Note_off_c, 2, 67, 0
3, 254520, Note_off_c, 2, 62, 0
3, 254520, Note_off_c, 2, 59, 0
3, 254520, Note_off_c, 2, 55, 0
3, 254520, Note_off_c, 2, 50, 0
3, 254520, Note_off_c, 2, 43, 0
3, 254520, Note_on_c, 2, 43, 65
3, 254520, Note_on_c, 2, 50, 65
3, 254520, Note_on_c, 2, 55, 65
3, 254520, Note_on_c, 2, 59, 65
3, 254520, Note_on_c, 2, 62, 65
3, 254520, Note_on_c, 2, 67, 65
3, 254880, Note_off_c, 2, 67, 0
3, 254880, Note_off_c, 2, 62, 0
3, 254880, Note_off_c, 2, 59, 0
3, 254880, Note_off_c, 2, 55, 0
3, 254880, Note_off_c, 2, 50, 0
3, 254880, Note_off_c, 2, 43, 0
3, 254880, Note_on_c, 2, 46, 65
3, 254880, Note_on_c, 2, 53, 65
3, 254880, Note_on_c, 2, 58, 65
3, 254880, Note_on_c, 2, 62, 65
3, 254880, Note_on_c, 2, 65, 65
3, 254880, Note_on_c, 2, 70, 65
3, 255240, Note_off_c, 2, 70, 0
3, 255240, Note_off_c, 2, 65, 0
3, 255240, Note_off_c, 2, 62, 0
3, 255240, Note_off_c, 2, 58, 0
3, 255240, Note_off_c, 2, 53, 0
3, 255240, Note_off_c, 2, 46, 0
3, 255240, Note_on_c, 2, 46, 65
3, 255240, Note_on_c, 2, 53, 65
3, 255240, Note_on_c, 2, 58, 65
3, 255240, Note_on_c, 2, 62, 65
3, 255240, Note_on_c, 2, 65, 65
3, 255240, Note_on_c, 2, 70, 65
3, 255600, Note_off_c, 2, 70, 0
3, 255600, Note_off_c, 2, 65, 0
3, 255600, Note_off_c, 2, 62, 0
3, 255600, Note_off_c, 2, 58, 0
3, 255600, Note_off_c, 2, 53, 0
3, 255600, Note_off_c, 2, 46, 0
3, 255600, Note_on_c, 2, 46, 65
3, 255600, Note_on_c, 2, 53, 65
3, 255600, Note_on_c, 2, 58, 65
3, 255600, Note_on_c, 2, 62, 65
3, 255600, Note_on_c, 2, 65, 65
3, 255600, Note_on_c, 2, 70, 65
3, 255960, Note_off_c, 2, 70, 0
3, 255960, Note_off_c, 2, 65, 0
3, 255960, Note_off_c, 2, 62, 0
3, 255960, Note_off_c, 2, 58, 0
3, 255960, Note_off_c, 2, 53, 0
3, 255960, Note_off_c, 2, 46, 0
3, 255960, Note_on_c, 2, 46, 65
3, 255960, Note_on_c, 2, 53, 65
3, 255960, Note_on_c, 2, 58, 65
3, 255960, Note_on_c, 2, 62, 65
3, 255960, Note_on_c, 2, 65, 65
3, 255960, Note_on_c, 2, 70, 65
3, 256320, Note_off_c, 2, 70, 0
3, 256320, Note_off_c, 2, 65, 0
3, 256320, Note_off_c, 2, 62, 0
3, 256320, Note_off_c, 2, 58, 0
3, 256320, Note_off_c, 2, 53, 0
3, 256320, Note_off_c, 2, 46, 0
3, 256320, Note_on_c, 2, 45, 78
3, 256320, Note_on_c, 2, 52, 78
3, 256320, Note_on_c, 2, 57, 78
3, 256320, Note_on_c, 2, 61, 78
3, 256320, Note_on_c, 2, 64, 78
3, 256320, Note_on_c, 2, 69, 78
3, 256680, Note_off_c, 2, 69, 0
3, 256680, Note_off_c, 2, 64, 0
3, 256680, Note_off_c, 2, 61, 0
3, 256680, Note_off_c, 2, 57, 0
3, 256680, Note_off_c, 2, 52, 0
3, 256680, Note_off_c, 2, 45, 0
3, 256680, Note_on_c, 2, 45, 78
3, 256680, Note_on_c, 2, 52, 78
3, 256680, Note_on_c, 2, 57, 78
3, 256680, Note_on_c, 2, 61, 78
3, 256680, Note_on_c, 2, 64, 78
3, 256680, Note_on_c, 2, 69, 78
3, 257040, Note_off_c, 2, 69, 0
3, 257040, Note_off_c, 2, 64, 0
3, 257040, Note_off_c, 2, 61, 0
3, 257040, Note_off_c, 2, 57, 0
3, 257040, Note_off_c, 2, 52, 0
3, 257040, Note_off_c, 2, 45, 0
3, 257040, Note_on_c, 2, 45, 78
3, 257040, Note_on_c, 2, 52, 78
3, 257040, Note_on_c, 2, 57, 78
3, 257040, Note_on_c, 2, 61, 78
3, 257040, Note_on_c, 2, 64, 78
3, 257040, Note_on_c, 2, 69, 78
3, 257400, Note_off_c, 2, 69, 0
3, 257400, Note_off_c, 2, 64, 0
3, 257400, Note_off_c, 2, 61, 0
3, 257400, Note_off_c, 2, 57, 0
3, 257400, Note_off_c, 2, 52, 0
3, 257400, Note_off_c, 2, 45, 0
3, 257400, Note_on_c, 2, 45, 78
3, 257400, Note_on_c, 2, 52, 78
3, 257400, Note_on_c, 2, 57, 78
3, 257400, Note_on_c, 2, 61, 78
3, 257400, Note_on_c, 2, 64, 78
3, 257400, Note_on_c, 2, 69, 78
3, 257760, Note_off_c, 2, 69, 0
3, 257760, Note_off_c, 2, 64, 0
3, 257760, Note_off_c, 2, 61, 0
3, 257760, Note_off_c, 2, 57, 0
3, 257760, Note_off_c, 2, 52, 0
3, 257760, Note_off_c, 2, 45, 0
3, 257760, Note_on_c, 2, 45, 78
3, 257760, Note_on_c, 2, 52, 78
3, 257760, Note_on_c, 2, 57, 78
3, 257760, Note_on_c, 2, 61, 78
3, 257760, Note_on_c, 2, 64, 78
3, 257760, Note_on_c, 2, 69, 78
3, 258120, Note_off_c, 2, 69, 0
3, 258120, Note_off_c, 2, 64, 0
3, 258120, Note_off_c, 2, 61, 0
3, 258120, Note_off_c, 2, 57, 0
3, 258120, Note_off_c, 2, 52, 0
3, 258120, Note_off_c, 2, 45, 0
3, 258120, Note_on_c, 2, 45, 78
3, 258120, Note_on_c, 2, 52, 78
3, 258120, Note_on_c, 2, 57, 78
3, 258120, Note_on_c, 2, 61, 78
3, 258120, Note_on_c, 2, 64, 78
3, 258120, Note_on_c, 2, 69, 78
3, 258480, Note_off_c, 2, 69, 0
3, 258480, Note_off_c, 2, 64, 0
3, 258480, Note_off_c, 2, 61, 0
3, 258480, Note_off_c, 2, 57, 0
3, 258480, Note_off_c, 2, 52, 0
3, 258480, Note_off_c, 2, 45, 0
3, 258480, Note_on_c, 2, 45, 78
3, 258480, Note_on_c, 2, 52, 78
3, 258480, Note_on_c, 2, 57, 78
3, 258480, Note_on_c, 2, 61, 78
3, 258480, Note_on_c, 2, 64, 78
3, 258480, Note_on_c, 2, 69, 78
3, 258840, Note_off_c, 2, 69, 0
3, 258840, Note_off_c, 2, 64, 0
3, 258840, Note_off_c, 2, 61, 0
3, 258840, Note_off_c, 2, 57, 0
3, 258840, Note_off_c, 2, 52, 0
3, 258840, Note_off_c, 2, 45, 0
3, 258840, Note_on_c, 2, 45, 78
3, 258840, Note_on_c, 2, 52, 78
3, 258840, Note_on_c, 2, 57, 78
3, 258840, Note_on_c, 2, 61, 78
3, 258840, Note_on_c, 2, 64, 78
3, 258840, Note_on_c, 2, 69, 78
3, 259200, Note_off_c, 2, 69, 0
3, 259200, Note_off_c, 2, 64, 0
3, 259200, Note_off_c, 2, 61, 0
3, 259200, Note_off_c, 2, 57, 0
3, 259200, Note_off_c, 2, 52, 0
3, 259200, Note_off_c, 2, 45, 0
3, 259200, Note_on_c, 2, 45, 78
3, 259200, Note_on_c, 2, 52, 78
3, 259200, Note_on_c, 2, 57, 78
3, 259200, Note_on_c, 2, 61, 78
3, 259200, Note_on_c, 2, 64, 78
3, 259200, Note_on_c, 2, 69, 78
3, 259560, Note_off_c, 2, 69, 0
3, 259560, Note_off_c, 2, 64, 0
3, 259560, Note_off_c, 2, 61, 0
3, 259560, Note_off_c, 2, 57, 0
3, 259560, Note_off_c, 2, 52, 0
3, 259560, Note_off_c, 2, 45, 0
3, 259560, Note_on_c, 2, 45, 78
3, 259560, Note_on_c, 2, 52, 78
3, 259560, Note_on_c, 2, 57, 78
3, 259560, Note_on_c, 2, 61, 78
3, 259560, Note_on_c, 2, 64, 78
3, 259560, Note_on_c, 2, 69, 78
3, 259920, Note_off_c, 2, 69, 0
3, 259920, Note_off_c, 2, 64, 0
3, 259920, Note_off_c, 2, 61, 0
3, 259920, Note_off_c, 2, 57, 0
3, 259920, Note_off_c, 2, 52, 0
3, 259920, Note_off_c, 2, 45, 0
3, 259920, Note_on_c, 2, 45, 78
3, 259920, Note_on_c, 2, 52, 78
3, 259920, Note_on_c, 2, 57, 78
3, 259920, Note_on_c, 2, 61, 78
3, 259920, Note_on_c, 2, 64, 78
3, 259920, Note_on_c, 2, 69, 78
3, 260280, Note_off_c, 2, 69, 0
3, 260280, Note_off_c, 2, 64, 0
3, 260280, Note_off_c, 2, 61, 0
3, 260280, Note_off_c, 2, 57, 0
3, 260280, Note_off_c, 2, 52, 0
3, 260280, Note_off_c, 2, 45, 0
3, 260280, Note_on_c, 2, 45, 78
3, 260280, Note_on_c, 2, 52, 78
3, 260280, Note_on_c, 2, 57, 78
3, 260280, Note_on_c, 2, 61, 78
3, 260280, Note_on_c, 2, 64, 78
3, 260280, Note_on_c, 2, 69, 78
3, 260640, Note_off_c, 2, 69, 0
3, 260640, Note_off_c, 2, 64, 0
3, 260640, Note_off_c, 2, 61, 0
3, 260640, Note_off_c, 2, 57, 0
3, 260640, Note_off_c, 2, 52, 0
3, 260640, Note_off_c, 2, 45, 0
3, 260640, Note_on_c, 2, 45, 78
3, 260640, Note_on_c, 2, 52, 78
3, 260640, Note_on_c, 2, 57, 78
3, 260640, Note_on_c, 2, 61, 78
3, 260640, Note_on_c, 2, 64, 78
3, 260640, Note_on_c, 2, 69, 78
3, 261000, Note_off_c, 2, 69, 0
3, 261000, Note_off_c, 2, 64, 0
3, 261000, Note_off_c, 2, 61, 0
3, 261000, Note_off_c, 2, 57, 0
3, 261000, Note_off_c, 2, 52, 0
3, 261000, Note_off_c, 2, 45, 0
3, 261000, Note_on_c, 2, 45, 78
3, 261000, Note_on_c, 2, 52, 78
3, 261000, Note_on_c, 2, 57, 78
3, 261000, Note_on_c, 2, 61, 78
3, 261000, Note_on_c, 2, 64, 78
3, 261000, Note_on_c, 2, 69, 78
3, 261360, Note_off_c, 2, 69, 0
3, 261360, Note_off_c, 2, 64, 0
3, 261360, Note_off_c, 2, 61, 0
3, 261360, Note_off_c, 2, 57, 0
3, 261360, Note_off_c, 2, 52, 0
3, 261360, Note_off_c, 2, 45, 0
3, 261360, Note_on_c, 2, 45, 78
3, 261360, Note_on_c, 2, 52, 78
3, 261360, Note_on_c, 2, 57, 78
3, 261360, Note_on_c, 2, 61, 78
3, 261360, Note_on_c, 2, 64, 78
3, 261360, Note_on_c, 2, 69, 78
3, 261720, Note_off_c, 2, 69, 0
3, 261720, Note_off_c, 2, 64, 0
3, 261720, Note_off_c, 2, 61, 0
3, 261720, Note_off_c, 2, 57, 0
3, 261720, Note_off_c, 2, 52, 0
3, 261720, Note_off_c, 2, 45, 0
3, 261720, Note_on_c, 2, 45, 78
3, 261720, Note_on_c, 2, 52, 78
3, 261720, Note_on_c, 2, 57, 78
3, 261720, Note_on_c, 2, 61, 78
3, 261720, Note_on_c, 2, 64, 78
3, 261720, Note_on_c, 2, 69, 78
3, 262080, Note_off_c, 2, 69, 0
3, 262080, Note_off_c, 2, 64, 0
3, 262080, Note_off_c, 2, 61, 0
3, 262080, Note_off_c, 2, 57, 0
3, 262080, Note_off_c, 2, 52, 0
3, 262080, Note_off_c, 2, 45, 0
3, 262080, Note_on_c, 2, 48, 78
3, 262080, Note_on_c, 2, 55, 78
3, 262080, Note_on_c, 2, 60, 78
3, 262080, Note_on_c, 2, 64, 78
3, 262080, Note_on_c, 2, 67, 78
3, 262080, Note_on_c, 2, 72, 78
3, 262440, Note_off_c, 2, 72, 0
3, 262440, Note_off_c, 2, 67, 0
3, 262440, Note_off_c, 2, 64, 0
3, 262440, Note_off_c, 2, 60, 0
3, 262440, Note_off_c, 2, 55, 0
3, 262440, Note_off_c, 2, 48, 0
3, 262440, Note_on_c, 2, 48, 78
3, 262440, Note_on_c, 2, 55, 78
3, 262440, Note_on_c, 2, 60, 78
3, 262440, Note_on_c, 2, 64, 78
3, 262440, Note_on_c, 2, 67, 78
3, 262440, Note_on_c, 2, 72, 78
3, 262800, Note_off_c, 2, 72, 0
3, 262800, Note_off_c, 2, 67, 0
3, 262800, Note_off_c, 2, 64, 0
3, 262800, Note_off_c, 2, 60, 0
3, 262800, Note_off_c, 2, 55, 0
3, 262800, Note_off_c, 2, 48, 0
3, 262800, Note_on_c, 2, 48, 78
3, 262800, Note_on_c, 2, 55, 78
3, 262800, Note_on_c, 2, 60, 78
3, 262800, Note_on_c, 2, 64, 78
3, 262800, Note_on_c, 2, 67, 78
3, 262800, Note_on_c, 2, 72, 78
3, 263160, Note_off_c, 2, 72, 0
3, 263160, Note_off_c, 2, 67, 0
3, 263160, Note_off_c, 2, 64, 0
3, 263160, Note_off_c, 2, 60, 0
3, 263160, Note_off_c, 2, 55, 0
3, 263160, Note_off_c, 2, 48, 0
3, 263160, Note_on_c, 2, 48, 78
3, 263160, Note_on_c, 2, 55, 78
3, 263160, Note_on_c, 2, 60, 78
3, 263160, Note_on_c, 2, 64, 78
3, 263160, Note_on_c, 2, 67, 78
3, 263160, Note_on_c, 2, 72, 78
3, 263520, Note_off_c, 2, 72, 0
3, 263520, Note_off_c, 2, 67, 0
3, 263520, Note_off_c, 2, 64, 0
3, 263520, Note_off_c, 2, 60, 0
3, 263520, Note_off_c, 2, 55, 0
3, 263520, Note_off_c, 2, 48, 0
3, 263520, Note_on_c, 2, 48, 78
3, 263520, Note_on_c, 2, 55, 78
3, 263520, Note_on_c, 2, 60, 78
3, 263520, Note_on_c, 2, 64, 78
3, 263520, Note_on_c, 2, 67, 78
3, 263520, Note_on_c, 2, 72, 78
3, 263880, Note_off_c, 2, 72, 0
3, 263880, Note_off_c, 2, 67, 0
3, 263880, Note_off_c, 2, 64, 0
3, 263880, Note_off_c, 2, 60, 0
3, 263880, Note_off_c, 2, 55, 0
3, 263880, Note_off_c, 2, 48, 0
3, 263880, Note_on_c, 2, 48, 78
3, 263880, Note_on_c, 2, 55, 78
3, 263880, Note_on_c, 2, 60, 78
3, 263880, Note_on_c, 2, 64, 78
3, 263880, Note_on_c, 2, 67, 78
3, 263880, Note_on_c, 2, 72, 78
3, 264240, Note_off_c, 2, 72, 0
3, 264240, Note_off_c, 2, 67, 0
3, 264240, Note_off_c, 2, 64, 0
3, 264240, Note_off_c, 2, 60, 0
3, 264240, Note_off_c, 2, 55, 0
3, 264240, Note_off_c, 2, 48, 0
3, 264240, Note_on_c, 2, 48, 78
3, 264240, Note_on_c, 2, 55, 78
3, 264240, Note_on_c, 2, 60, 78
3, 264240, Note_on_c, 2, 64, 78
3, 264240, Note_on_c, 2, 67, 78
3, 264240, Note_on_c, 2, 72, 78
3, 264600, Note_off_c, 2, 72, 0
3, 264600, Note_off_c, 2, 67, 0
3, 264600, Note_off_c, 2, 64, 0
3, 264600, Note_off_c, 2, 60, 0
3, 264600, Note_off_c, 2, 55, 0
3, 264600, Note_off_c, 2, 48, 0
3, 264600, Note_on_c, 2, 48, 78
3, 264600, Note_on_c, 2, 55, 78
3, 264600, Note_on_c, 2, 60, 78
3, 264600, Note_on_c, 2, 64, 78
3, 264600, Note_on_c, 2, 67, 78
3, 264600, Note_on_c, 2, 72, 78
3, 264960, Note_off_c, 2, 72, 0
3, 264960, Note_off_c, 2, 67, 0
3, 264960, Note_off_c, 2, 64, 0
3, 264960, Note_off_c, 2, 60, 0
3, 264960, Note_off_c, 2, 55, 0
3, 264960, Note_off_c, 2, 48, 0
3, 264960, Note_on_c, 2, 48, 78
3, 264960, Note_on_c, 2, 55, 78
3, 264960, Note_on_c, 2, 60, 78
3, 264960, Note_on_c, 2, 64, 78
3, 264960, Note_on_c, 2, 67, 78
3, 264960, Note_on_c, 2, 72, 78
3, 265320, Note_off_c, 2, 72, 0
3, 265320, Note_off_c, 2, 67, 0
3, 265320, Note_off_c, 2, 64, 0
3, 265320, Note_off_c, 2, 60, 0
3, 265320, Note_off_c, 2, 55, 0
3, 265320, Note_off_c, 2, 48, 0
3, 265320, Note_on_c, 2, 48, 78
3, 265320, Note_on_c, 2, 55, 78
3, 265320, Note_on_c, 2, 60, 78
3, 265320, Note_on_c, 2, 64, 78
3, 265320, Note_on_c, 2, 67, 78
3, 265320, Note_on_c, 2, 72, 78
3, 265680, Note_off_c, 2, 72, 0
3, 265680, Note_off_c, 2, 67, 0
3, 265680, Note_off_c, 2, 64, 0
3, 265680, Note_off_c, 2, 60, 0
3, 265680, Note_off_c, 2, 55, 0
3, 265680, Note_off_c, 2, 48, 0
3, 265680, Note_on_c, 2, 48, 78
3, 265680, Note_on_c, 2, 55, 78
3, 265680, Note_on_c, 2, 60, 78
3, 265680, Note_on_c, 2, 64, 78
3, 265680, Note_on_c, 2, 67, 78
3, 265680, Note_on_c, 2, 72, 78
3, 266040, Note_off_c, 2, 72, 0
3, 266040, Note_off_c, 2, 67, 0
3, 266040, Note_off_c, 2, 64, 0
3, 266040, Note_off_c, 2, 60, 0
3, 266040, Note_off_c, 2, 55, 0
3, 266040, Note_off_c, 2, 48, 0
3, 266040, Note_on_c, 2, 48, 78
3, 266040, Note_on_c, 2, 55, 78
3, 266040, Note_on_c, 2, 60, 78
3, 266040, Note_on_c, 2, 64, 78
3, 266040, Note_on_c, 2, 67, 78
3, 266040, Note_on_c, 2, 72, 78
3, 266400, Note_off_c, 2, 72, 0
3, 266400, Note_off_c, 2, 67, 0
3, 266400, Note_off_c, 2, 64, 0
3, 266400, Note_off_c, 2, 60, 0
3, 266400, Note_off_c, 2, 55, 0
3, 266400, Note_off_c, 2, 48, 0
3, 266400, Note_on_c, 2, 48, 78
3, 266400, Note_on_c, 2, 55, 78
3, 266400, Note_on_c, 2, 60, 78
3, 266400, Note_on_c, 2, 64, 78
3, 266400, Note_on_c, 2, 67, 78
3, 266400, Note_on_c, 2, 72, 78
3, 266760, Note_off_c, 2, 72, 0
3, 266760, Note_off_c, 2, 67, 0
3, 266760, Note_off_c, 2, 64, 0
3, 266760, Note_off_c, 2, 60, 0
3, 266760, Note_off_c, 2, 55, 0
3, 266760, Note_off_c, 2, 48, 0
3, 266760, Note_on_c, 2, 48, 78
3, 266760, Note_on_c, 2, 55, 78
3, 266760, Note_on_c, 2, 60, 78
3, 266760, Note_on_c, 2, 64, 78
3, 266760, Note_on_c, 2, 67, 78
3, 266760, Note_on_c, 2, 72, 78
3, 267120, Note_off_c, 2, 72, 0
3, 267120, Note_off_c, 2, 67, 0
3, 267120, Note_off_c, 2, 64, 0
3, 267120, Note_off_c, 2, 60, 0
3, 267120, Note_off_c, 2, 55, 0
3, 267120, Note_off_c, 2, 48, 0
3, 267120, Note_on_c, 2, 48, 78
3, 267120, Note_on_c, 2, 55, 78
3, 267120, Note_on_c, 2, 60, 78
3, 267120, Note_on_c, 2, 64, 78
3, 267120, Note_on_c, 2, 67, 78
3, 267120, Note_on_c, 2, 72, 78
3, 267480, Note_off_c, 2, 72, 0
3, 267480, Note_off_c, 2, 67, 0
3, 267480, Note_off_c, 2, 64, 0
3, 267480, Note_off_c, 2, 60, 0
3, 267480, Note_off_c, 2, 55, 0
3, 267480, Note_off_c, 2, 48, 0
3, 267480, Note_on_c, 2, 48, 78
3, 267480, Note_on_c, 2, 55, 78
3, 267480, Note_on_c, 2, 60, 78
3, 267480, Note_on_c, 2, 64, 78
3, 267480, Note_on_c, 2, 67, 78
3, 267480, Note_on_c, 2, 72, 78
3, 267840, Note_off_c, 2, 72, 0
3, 267840, Note_off_c, 2, 67, 0
3, 267840, Note_off_c, 2, 64, 0
3, 267840, Note_off_c, 2, 60, 0
3, 267840, Note_off_c, 2, 55, 0
3, 267840, Note_off_c, 2, 48, 0
3, 267840, Note_on_c, 2, 41, 78
3, 267840, Note_on_c, 2, 48, 78
3, 267840, Note_on_c, 2, 53, 78
3, 267840, Note_on_c, 2, 57, 78
3, 267840, Note_on_c, 2, 60, 78
3, 267840, Note_on_c, 2, 65, 78
3, 268200, Note_off_c, 2, 65, 0
3, 268200, Note_off_c, 2, 60, 0
3, 268200, Note_off_c, 2, 57, 0
3, 268200, Note_off_c, 2, 53, 0
3, 268200, Note_off_c, 2, 48, 0
3, 268200, Note_off_c, 2, 41, 0
3, 268200, Note_on_c, 2, 41, 78
3, 268200, Note_on_c, 2, 48, 78
3, 268200, Note_on_c, 2, 53, 78
3, 268200, Note_on_c, 2, 57, 78
3, 268200, Note_on_c, 2, 60, 78
3, 268200, Note_on_c, 2, 65, 78
3, 268560, Note_off_c, 2, 65, 0
3, 268560, Note_off_c, 2, 60, 0
3, 268560, Note_off_c, 2, 57, 0
3, 268560, Note_off_c, 2, 53, 0
3, 268560, Note_off_c, 2, 48, 0
3, 268560, Note_off_c, 2, 41, 0
3, 268560, Note_on_c, 2, 41, 78
3, 268560, Note_on_c, 2, 48, 78
3, 268560, Note_on_c, 2, 53, 78
3, 268560, Note_on_c, 2, 57, 78
3, 268560, Note_on_c, 2, 60, 78
3, 268560, Note_on_c, 2, 65, 78
3, 268920, Note_off_c, 2, 65, 0
3, 268920, Note_off_c, 2, 60, 0
3, 268920, Note_off_c, 2, 57, 0
3, 268920, Note_off_c, 2, 53, 0
3, 268920, Note_off_c, 2, 48, 0
3, 268920, Note_off_c, 2, 41, 0
3, 268920, Note_on_c, 2, 41, 78
3, 268920, Note_on_c, 2, 48, 78
3, 268920, Note_on_c, 2, 53, 78
3, 268920, Note_on_c, 2, 57, 78
3, 268920, Note_on_c, 2, 60, 78
3, 268920, Note_on_c, 2, 65, 78
3, 269280, Note_off_c, 2, 65, 0
3, 269280, Note_off_c, 2, 60, 0
3, 269280, Note_off_c, 2, 57, 0
3, 269280, Note_off_c, 2, 53, 0
3, 269280, Note_off_c, 2, 48, 0
3, 269280, Note_off_c, 2, 41, 0
3, 269280, Note_on_c, 2, 41, 78
3, 269280, Note_on_c, 2, 48, 78
3, 269280, Note_on_c, 2, 53, 78
3, 269280, Note_on_c, 2, 57, 78
3, 269280, Note_on_c, 2, 60, 78
3, 269280, Note_on_c, 2, 65, 78
3, 269640, Note_off_c, 2, 65, 0
3, 269640, Note_off_c, 2, 60, 0
3, 269640, Note_off_c, 2, 57, 0
3, 269640, Note_off_c, 2, 53, 0
3, 269640, Note_off_c, 2, 48, 0
3, 269640, Note_off_c, 2, 41, 0
3, 269640, Note_on_c, 2, 41, 78
3, 269640, Note_on_c, 2, 48, 78
3, 269640, Note_on_c, 2, 53, 78
3, 269640, Note_on_c, 2, 57, 78
3, 269640, Note_on_c, 2, 60, 78
3, 269640, Note_on_c, 2, 65, 78
3, 270000, Note_off_c, 2, 65, 0
3, 270000, Note_off_c, 2, 60, 0
3, 270000, Note_off_c, 2, 57, 0
3, 270000, Note_off_c, 2, 53, 0
3, 270000, Note_off_c, 2, 48, 0
3, 270000, Note_off_c, 2, 41, 0
3, 270000, Note_on_c, 2, 41, 78
3, 270000, Note_on_c, 2, 48, 78
3, 270000, Note_on_c, 2, 53, 78
3, 270000, Note_on_c, 2, 57, 78
3, 270000, Note_on_c, 2, 60, 78
3, 270000, Note_on_c, 2, 65, 78
3, 270360, Note_off_c, 2, 65, 0
3, 270360, Note_off_c, 2, 60, 0
3, 270360, Note_off_c, 2, 57, 0
3, 270360, Note_off_c, 2, 53, 0
3, 270360, Note_off_c, 2, 48, 0
3, 270360, Note_off_c, 2, 41, 0
3, 270360, Note_on_c, 2, 41, 78
3, 270360, Note_on_c, 2, 48, 78
3, 270360, Note_on_c, 2, 53, 78
3, 270360, Note_on_c, 2, 57, 78
3, 270360, Note_on_c, 2, 60, 78
3, 270360, Note_on_c, 2, 65, 78
3, 270720, Note_off_c, 2, 65, 0
3, 270720, Note_off_c, 2, 60, 0
3, 270720, Note_off_c, 2, 57, 0
3, 270720, Note_off_c, 2, 53, 0
3, 270720, Note_off_c, 2, 48, 0
3, 270720, Note_off_c, 2, 41, 0
3, 270720, Note_on_c, 2, 41, 78
3, 270720, Note_on_c, 2, 48, 78
3, 270720, Note_on_c, 2, 53, 78
3, 270720, Note_on_c, 2, 57, 78
3, 270720, Note_on_c, 2, 60, 78
3, 270720, Note_on_c, 2, 65, 78
3, 271080, Note_off_c, 2, 65, 0
3, 271080, Note_off_c, 2, 60, 0
3, 271080, Note_off_c, 2, 57, 0
3, 271080, Note_off_c, 2, 53, 0
3, 271080, Note_off_c, 2, 48, 0
3, 271080, Note_off_c, 2, 41, 0
3, 271080, Note_on_c, 2, 41, 78
3, 271080, Note_on_c, 2, 48, 78
3, 271080, Note_on_c, 2, 53, 78
3, 271080, Note_on_c, 2, 57, 78
3, 271080, Note_on_c, 2, 60, 78
3, 271080, Note_on_c, 2, 65, 78
3, 271440, Note_off_c, 2, 65, 0
3, 271440, Note_off_c, 2, 60, 0
3, 271440, Note_off_c, 2, 57, 0
3, 271440, Note_off_c, 2, 53, 0
3, 271440, Note_off_c, 2, 48, 0
3, 271440, Note_off_c, 2, 41, 0
3, 271440, Note_on_c, 2, 41, 78
3, 271440, Note_on_c, 2, 48, 78
3, 271440, Note_on_c, 2, 53, 78
3, 271440, Note_on_c, 2, 57, 78
3, 271440, Note_on_c, 2, 60, 78
3, 271440, Note_on_c, 2, 65, 78
3, 271800, Note_off_c, 2, 65, 0
3, 271800, Note_off_c, 2, 60, 0
3, 271800, Note_off_c, 2, 57, 0
3, 271800, Note_off_c, 2, 53, 0
3, 271800, Note_off_c, 2, 48, 0
3, 271800, Note_off_c, 2, 41, 0
3, 271800, Note_on_c, 2, 41, 78
3, 271800, Note_on_c, 2, 48, 78
3, 271800, Note_on_c, 2, 53, 78
3, 271800, Note_on_c, 2, 57, 78
3, 271800, Note_on_c, 2, 60, 78
3, 271800, Note_on_c, 2, 65, 78
3, 272160, Note_off_c, 2, 65, 0
3, 272160, Note_off_c, 2, 60, 0
3, 272160, Note_off_c, 2, 57, 0
3, 272160, Note_off_c, 2, 53, 0
3, 272160, Note_off_c, 2, 48, 0
3, 272160, Note_off_c, 2, 41, 0
3, 272160, Note_on_c, 2, 41, 78
3, 272160, Note_on_c, 2, 48, 78
3, 272160, Note_on_c, 2, 53, 78
3, 272160, Note_on_c, 2, 57, 78
3, 272160, Note_on_c, 2, 60, 78
3, 272160, Note_on_c, 2, 65, 78
3, 272520, Note_off_c, 2, 65, 0
3, 272520, Note_off_c, 2, 60, 0
3, 272520, Note_off_c, 2, 57, 0
3, 272520, Note_off_c, 2, 53, 0
3, 272520, Note_off_c, 2, 48, 0
3, 272520, Note_off_c, 2, 41, 0
3, 272520, Note_on_c, 2, 41, 78
3, 272520, Note_on_c, 2, 48, 78
3, 272520, Note_on_c, 2, 53, 78
3, 272520, Note_on_c, 2, 57, 78
3, 272520, Note_on_c, 2, 60, 78
3, 272520, Note_on_c, 2, 65, 78
3, 272880, Note_off_c, 2, 65, 0
3, 272880, Note_off_c, 2, 60, 0
3, 272880, Note_off_c, 2, 57, 0
3, 272880, Note_off_c, 2, 53, 0
3, 272880, Note_off_c, 2, 48, 0
3, 272880, Note_off_c, 2, 41, 0
3, 272880, Note_on_c, 2, 41, 78
3, 272880, Note_on_c, 2, 48, 78
3, 272880, Note_on_c, 2, 53, 78
3, 272880, Note_on_c, 2, 57, 78
3, 272880, Note_on_c, 2, 60, 78
3, 272880, Note_on_c, 2, 65, 78
3, 273240, Note_off_c, 2, 65, 0
3, 273240, Note_off_c, 2, 60, 0
3, 273240, Note_off_c, 2, 57, 0
3, 273240, Note_off_c, 2, 53, 0
3, 273240, Note_off_c, 2, 48, 0
3, 273240, Note_off_c, 2, 41, 0
3, 273240, Note_on_c, 2, 41, 78
3, 273240, Note_on_c, 2, 48, 78
3, 273240, Note_on_c, 2, 53, 78
3, 273240, Note_on_c, 2, 57, 78
3, 273240, Note_on_c, 2, 60, 78
3, 273240, Note_on_c, 2, 65, 78
3, 273600, Note_off_c, 2, 65, 0
3, 273600, Note_off_c, 2, 60, 0
3, 273600, Note_off_c, 2, 57, 0
3, 273600, Note_off_c, 2, 53, 0
3, 273600, Note_off_c, 2, 48, 0
3, 273600, Note_off_c, 2, 41, 0
3, 273600, Note_on_c, 2, 43, 78
3, 273600, Note_on_c, 2, 50, 78
3, 273600, Note_on_c, 2, 55, 78
3, 273600, Note_on_c, 2, 59, 78
3, 273600, Note_on_c, 2, 62, 78
3, 273600, Note_on_c, 2, 67, 78
3, 273960, Note_off_c, 2, 67, 0
3, 273960, Note_off_c, 2, 62, 0
3, 273960, Note_off_c, 2, 59, 0
3, 273960, Note_off_c, 2, 55, 0
3, 273960, Note_off_c, 2, 50, 0
3, 273960, Note_off_c, 2, 43, 0
3, 273960, Note_on_c, 2, 43, 78
3, 273960, Note_on_c, 2, 50, 78
3, 273960, Note_on_c, 2, 55, 78
3, 273960, Note_on_c, 2, 59, 78
3, 273960, Note_on_c, 2, 62, 78
3, 273960, Note_on_c, 2, 67, 78
3, 274320, Note_off_c, 2, 67, 0
3, 274320, Note_off_c, 2, 62, 0
3, 274320, Note_off_c, 2, 59, 0
3, 274320, Note_off_c, 2, 55, 0
3, 274320, Note_off_c, 2, 50, 0
3, 274320, Note_off_c, 2, 43, 0
3, 274320, Note_on_c, 2, 43, 78
3, 274320, Note_on_c, 2, 50, 78
3, 274320, Note_on_c, 2, 55, 78
3, 274320, Note_on_c, 2, 59, 78
3, 274320, Note_on_c, 2, 62, 78
3, 274320, Note_on_c, 2, 67, 78
3, 274680, Note_off_c, 2, 67, 0
3, 274680, Note_off_c, 2, 62, 0
3, 274680, Note_off_c, 2, 59, 0
3, 274680, Note_off_c, 2, 55, 0
3, 274680, Note_off_c, 2, 50, 0
3, 274680, Note_off_c, 2, 43, 0
3, 274680, Note_on_c, 2, 43, 78
3, 274680, Note_on_c, 2, 50, 78
3, 274680, Note_on_c, 2, 55, 78
3, 274680, Note_on_c, 2, 59, 78
3, 274680, Note_on_c, 2, 62, 78
3, 274680, Note_on_c, 2, 67, 78
3, 275040, Note_off_c, 2, 67, 0
3, 275040, Note_off_c, 2, 62, 0
3, 275040, Note_off_c, 2, 59, 0
3, 275040, Note_off_c, 2, 55, 0
3, 275040, Note_off_c, 2, 50, 0
3, 275040, Note_off_c, 2, 43, 0
3, 275040, Note_on_c, 2, 43, 78
3, 275040, Note_on_c, 2, 50, 78
3, 275040, Note_on_c, 2, 55, 78
3, 275040, Note_on_c, 2, 59, 78
3, 275040, Note_on_c, 2, 62, 78
3, 275040, Note_on_c, 2, 67, 78
3, 275400, Note_off_c, 2, 67, 0
3, 275400, Note_off_c, 2, 62, 0
3, 275400, Note_off_c, 2, 59, 0
3, 275400, Note_off_c, 2, 55, 0
3, 275400, Note_off_c, 2, 50, 0
3, 275400, Note_off_c, 2, 43, 0
3, 275400, Note_on_c, 2, 43, 78
3, 275400, Note_on_c, 2, 50, 78
3, 275400, Note_on_c, 2, 55, 78
3, 275400, Note_on_c, 2, 59, 78
3, 275400, Note_on_c, 2, 62, 78
3, 275400, Note_on_c, 2, 67, 78
3, 275760, Note_off_c, 2, 67, 0
3, 275760, Note_off_c, 2, 62, 0
3, 275760, Note_off_c, 2, 59, 0
3, 275760, Note_off_c, 2, 55, 0
3, 275760, Note_off_c, 2, 50, 0
3, 275760, Note_off_c, 2, 43, 0
3, 275760, Note_on_c, 2, 43, 78
3, 275760, Note_on_c, 2, 50, 78
3, 275760, Note_on_c, 2, 55, 78
3, 275760, Note_on_c, 2, 59, 78
3, 275760, Note_on_c, 2, 62, 78
3, 275760, Note_on_c, 2, 67, 78
3, 276120, Note_off_c, 2, 67, 0
3, 276120, Note_off_c, 2, 62, 0
3, 276120, Note_off_c, 2, 59, 0
3, 276120, Note_off_c, 2, 55, 0
3, 276120, Note_off_c, 2, 50, 0
3, 276120, Note_off_c, 2, 43, 0
3, 276120, Note_on_c, 2, 43, 78
3, 276120, Note_on_c, 2, 50, 78
3, 276120, Note_on_c, 2, 55, 78
3, 276120, Note_on_c, 2, 59, 78
3, 276120, Note_on_c, 2, 62, 78
3, 276120, Note_on_c, 2, 67, 78
3, 276480, Note_off_c, 2, 67, 0
3, 276480, Note_off_c, 2, 62, 0
3, 276480, Note_off_c, 2, 59, 0
3, 276480, Note_off_c, 2, 55, 0
3, 276480, Note_off_c, 2, 50, 0
3, 276480, Note_off_c, 2, 43, 0
3, 276480, Note_on_c, 2, 43, 78
3, 276480, Note_on_c, 2, 50, 78
3, 276480, Note_on_c, 2, 55, 78
3, 276480, Note_on_c, 2, 59, 78
3, 276480, Note_on_c, 2, 62, 78
3, 276480, Note_on_c, 2, 67, 78
3, 276840, Note_off_c, 2, 67, 0
3, 276840, Note_off_c, 2, 62, 0
3, 276840, Note_off_c, 2, 59, 0
3, 276840, Note_off_c, 2, 55, 0
3, 276840, Note_off_c, 2, 50, 0
3, 276840, Note_off_c, 2, 43, 0
3, 276840, Note_on_c, 2, 43, 78
3, 276840, Note_on_c, 2, 50, 78
3, 276840, Note_on_c, 2, 55, 78
3, 276840, Note_on_c, 2, 59, 78
3, 276840, Note_on_c, 2, 62, 78
3, 276840, Note_on_c, 2, 67, 78
3, 277200, Note_off_c, 2, 67, 0
3, 277200, Note_off_c, 2, 62, 0
3, 277200, Note_off_c, 2, 59, 0
3, 277200, Note_off_c, 2, 55, 0
3, 277200, Note_off_c, 2, 50, 0
3, 277200, Note_off_c, 2, 43, 0
3, 277200, Note_on_c, 2, 43, 78
3, 277200, Note_on_c, 2, 50, 78
3, 277200, Note_on_c, 2, 55, 78
3, 277200, Note_on_c, 2, 59, 78
3, 277200, Note_on_c, 2, 62, 78
3, 277200, Note_on_c, 2, 67, 78
3, 277560, Note_off_c, 2, 67, 0
3, 277560, Note_off_c, 2, 62, 0
3, 277560, Note_off_c, 2, 59, 0
3, 277560, Note_off_c, 2, 55, 0
3, 277560, Note_off_c, 2, 50, 0
3, 277560, Note_off_c, 2, 43, 0
3, 277560, Note_on_c, 2, 43, 78
3, 277560, Note_on_c, 2, 50, 78
3, 277560, Note_on_c, 2, 55, 78
3, 277560, Note_on_c, 2, 59, 78
3, 277560, Note_on_c, 2, 62, 78
3, 277560, Note_on_c, 2, 67, 78
3, 277920, Note_off_c, 2, 67, 0
3, 277920, Note_off_c, 2, 62, 0
3, 277920, Note_off_c, 2, 59, 0
3, 277920, Note_off_c, 2, 55, 0
3, 277920, Note_off_c, 2, 50, 0
3, 277920, Note_off_c, 2, 43, 0
3, 277920, Note_on_c, 2, 46, 78
3, 277920, Note_on_c, 2, 53, 78
3, 277920, Note_on_c, 2, 58, 78
3, 277920, Note_on_c, 2, 62, 78
3, 277920, Note_on_c, 2, 65, 78
3, 277920, Note_on_c, 2, 70, 78
3, 278280, Note_off_c, 2, 70, 0
3, 278280, Note_off_c, 2, 65, 0
3, 278280, Note_off_c, 2, 62, 0
3, 278280, Note_off_c, 2, 58, 0
3, 278280, Note_off_c, 2, 53, 0
3, 278280, Note_off_c, 2, 46, 0
3, 278280, Note_on_c, 2, 46, 78
3, 278280, Note_on_c, 2, 53, 78
3, 278280, Note_on_c, 2, 58, 78
3, 278280, Note_on_c, 2, 62, 78
3, 278280, Note_on_c, 2, 65, 78
3, 278280, Note_on_c, 2, 70, 78
3, 278640, Note_off_c, 2, 70, 0
3, 278640, Note_off_c, 2, 65, 0
3, 278640, Note_off_c, 2, 62, 0
3, 278640, Note_off_c, 2, 58, 0
3, 278640, Note_off_c, 2, 53, 0
3, 278640, Note_off_c, 2, 46, 0
3, 278640, Note_on_c, 2, 46, 78
3, 278640, Note_on_c, 2, 53, 78
3, 278640, Note_on_c, 2, 58, 78
3, 278640, Note_on_c, 2, 62, 78
3, 278640, Note_on_c, 2, 65, 78
3, 278640, Note_on_c, 2, 70, 78
3, 279000, Note_off_c, 2, 70, 0
3, 279000, Note_off_c, 2, 65, 0
3, 279000, Note_off_c, 2, 62, 0
3, 279000, Note_off_c, 2, 58, 0
3, 279000, Note_off_c, 2, 53, 0
3, 279000, Note_off_c, 2, 46, 0
3, 279000, Note_on_c, 2, 46, 78
3, 279000, Note_on_c, 2, 53, 78
3, 279000, Note_on_c, 2, 58, 78
3, 279000, Note_on_c, 2, 62, 78
3, 279000, Note_on_c, 2, 65, 78
3, 279000, Note_on_c, 2, 70, 78
3, 279360, Note_off_c, 2, 70, 0
3, 279360, Note_off_c, 2, 65, 0
3, 279360, Note_off_c, 2, 62, 0
3, 279360, Note_off_c, 2, 58, 0
3, 279360, Note_off_c, 2, 53, 0
3, 279360, Note_off_c, 2, 46, 0
3, 279360, Note_on_c, 2, 45, 78
3, 279360, Note_on_c, 2, 52, 78
3, 279360, Note_on_c, 2, 57, 78
3, 279360, Note_on_c, 2, 61, 78
3, 279360, Note_on_c, 2, 64, 78
3, 279360, Note_on_c, 2, 69, 78
3, 279720, Note_off_c, 2, 69, 0
3, 279720, Note_off_c, 2, 64, 0
3, 279720, Note_off_c, 2, 61, 0
3, 279720, Note_off_c, 2, 57, 0
3, 279720, Note_off_c, 2, 52, 0
3, 279720, Note_off_c, 2, 45, 0
3, 279720, Note_on_c, 2, 45, 78
3, 279720, Note_on_c, 2, 52, 78
3, 279720, Note_on_c, 2, 57, 78
3, 279720, Note_on_c, 2, 61, 78
3, 279720, Note_on_c, 2, 64, 78
3, 279720, Note_on_c, 2, 69, 78
3, 280080, Note_off_c, 2, 69, 0
3, 280080, Note_off_c, 2, 64, 0
3, 280080, Note_off_c, 2, 61, 0
3, 280080, Note_off_c, 2, 57, 0
3, 280080, Note_off_c, 2, 52, 0
3, 280080, Note_off_c, 2, 45, 0
3, 280080, Note_on_c, 2, 45, 78
3, 280080, Note_on_c, 2, 52, 78
3, 280080, Note_on_c, 2, 57, 78
3, 280080, Note_on_c, 2, 61, 78
3, 280080, Note_on_c, 2, 64, 78
3, 280080, Note_on_c, 2, 69, 78
3, 280440, Note_off_c, 2, 69, 0
3, 280440, Note_off_c, 2, 64, 0
3, 280440, Note_off_c, 2, 61, 0
3, 280440, Note_off_c, 2, 57, 0
3, 280440, Note_off_c, 2, 52, 0
3, 280440, Note_off_c, 2, 45, 0
3, 280440, Note_on_c, 2, 45, 78
3, 280440, Note_on_c, 2, 52, 78
3, 280440, Note_on_c, 2, 57, 78
3, 280440, Note_on_c, 2, 61, 78
3, 280440, Note_on_c, 2, 64, 78
3, 280440, Note_on_c, 2, 69, 78
3, 280800, Note_off_c, 2, 69, 0
3, 280800, Note_off_c, 2, 64, 0
3, 280800, Note_off_c, 2, 61, 0
3, 280800, Note_off_c, 2, 57, 0
3, 280800, Note_off_c, 2, 52, 0
3, 280800, Note_off_c, 2, 45, 0
3, 280800, Note_on_c, 2, 45, 78
3, 280800, Note_on_c, 2, 52, 78
3, 280800, Note_on_c, 2, 57, 78
3, 280800, Note_on_c, 2, 61, 78
3, 280800, Note_on_c, 2, 64, 78
3, 280800, Note_on_c, 2, 69, 78
3, 281160, Note_off_c, 2, 69, 0
3, 281160, Note_off_c, 2, 64, 0
3, 281160, Note_off_c, 2, 61, 0
3, 281160, Note_off_c, 2, 57, 0
3, 281160, Note_off_c, 2, 52, 0
3, 281160, Note_off_c, 2, 45, 0
3, 281160, Note_on_c, 2, 45, 78
3, 281160, Note_on_c, 2, 52, 78
3, 281160, Note_on_c, 2, 57, 78
3, 281160, Note_on_c, 2, 61, 78
3, 281160, Note_on_c, 2, 64, 78
3, 281160, Note_on_c, 2, 69, 78
3, 281520, Note_off_c, 2, 69, 0
3, 281520, Note_off_c, 2, 64, 0
3, 281520, Note_off_c, 2, 61, 0
3, 281520, Note_off_c, 2, 57, 0
3, 281520, Note_off_c, 2, 52, 0
3, 281520, Note_off_c, 2, 45, 0
3, 281520, Note_on_c, 2, 45, 78
3, 281520, Note_on_c, 2, 52, 78
3, 281520, Note_on_c, 2, 57, 78
3, 281520, Note_on_c, 2, 61, 78
3, 281520, Note_on_c, 2, 64, 78
3, 281520, Note_on_c, 2, 69, 78
3, 281880, Note_off_c, 2, 69, 0
3, 281880, Note_off_c, 2, 64, 0
3, 281880, Note_off_c, 2, 61, 0
3, 281880, Note_off_c, 2, 57, 0
3, 281880, Note_off_c, 2, 52, 0
3, 281880, Note_off_c, 2, 45, 0
3, 281880, Note_on_c, 2, 45, 78
3, 281880, Note_on_c, 2, 52, 78
3, 281880, Note_on_c, 2, 57, 78
3, 281880, Note_on_c, 2, 61, 78
3, 281880, Note_on_c, 2, 64, 78
3, 281880, Note_on_c, 2, 69, 78
3, 282240, Note_off_c, 2, 69, 0
3, 282240, Note_off_c, 2, 64, 0
3, 282240, Note_off_c, 2, 61, 0
3, 282240, Note_off_c, 2, 57, 0
3, 282240, Note_off_c, 2, 52, 0
3, 282240, Note_off_c, 2, 45, 0
3, 282240, Note_on_c, 2, 45, 78
3, 282240, Note_on_c, 2, 52, 78
3, 282240, Note_on_c, 2, 57, 78
3, 282240, Note_on_c, 2, 61, 78
3, 282240, Note_on_c, 2, 64, 78
3, 282240, Note_on_c, 2, 69, 78
3, 282600, Note_off_c, 2, 69, 0
3, 282600, Note_off_c, 2, 64, 0
3, 282600, Note_off_c, 2, 61, 0
3, 282600, Note_off_c, 2, 57, 0
3, 282600, Note_off_c, 2, 52, 0
3, 282600, Note_off_c, 2, 45, 0
3, 282600, Note_on_c, 2, 45, 78
3, 282600, Note_on_c, 2, 52, 78
3, 282600, Note_on_c, 2, 57, 78
3, 282600, Note_on_c, 2, 61, 78
3, 282600, Note_on_c, 2, 64, 78
3, 282600, Note_on_c, 2, 69, 78
3, 282960, Note_off_c, 2, 69, 0
3, 282960, Note_off_c, 2, 64, 0
3, 282960, Note_off_c, 2, 61, 0
3, 282960, Note_off_c, 2, 57, 0
3, 282960, Note_off_c, 2, 52, 0
3, 282960, Note_off_c, 2, 45, 0
3, 282960, Note_on_c, 2, 45, 78
3, 282960, Note_on_c, 2, 52, 78
3, 282960, Note_on_c, 2, 57, 78
3, 282960, Note_on_c, 2, 61, 78
3, 282960, Note_on_c, 2, 64, 78
3, 282960, Note_on_c, 2, 69, 78
3, 283320, Note_off_c, 2, 69, 0
3, 283320, Note_off_c, 2, 64, 0
3, 283320, Note_off_c, 2, 61, 0
3, 283320, Note_off_c, 2, 57, 0
3, 283320, Note_off_c, 2, 52, 0
3, 283320, Note_off_c, 2, 45, 0
3, 283320, Note_on_c, 2, 45, 78
3, 283320, Note_on_c, 2, 52, 78
3, 283320, Note_on_c, 2, 57, 78
3, 283320, Note_on_c, 2, 61, 78
3, 283320, Note_on_c, 2, 64, 78
3, 283320, Note_on_c, 2, 69, 78
3, 283680, Note_off_c, 2, 69, 0
3, 283680, Note_off_c, 2, 64, 0
3, 283680, Note_off_c, 2, 61, 0
3, 283680, Note_off_c, 2, 57, 0
3, 283680, Note_off_c, 2, 52, 0
3, 283680, Note_off_c, 2, 45, 0
3, 283680, Note_on_c, 2, 45, 78
3, 283680, Note_on_c, 2, 52, 78
3, 283680, Note_on_c, 2, 57, 78
3, 283680, Note_on_c, 2, 61, 78
3, 283680, Note_on_c, 2, 64, 78
3, 283680, Note_on_c, 2, 69, 78
3, 284040, Note_off_c, 2, 69, 0
3, 284040, Note_off_c, 2, 64, 0
3, 284040, Note_off_c, 2, 61, 0
3, 284040, Note_off_c, 2, 57, 0
3, 284040, Note_off_c, 2, 52, 0
3, 284040, Note_off_c, 2, 45, 0
3, 284040, Note_on_c, 2, 45, 78
3, 284040, Note_on_c, 2, 52, 78
3, 284040, Note_on_c, 2, 57, 78
3, 284040, Note_on_c, 2, 61, 78
3, 284040, Note_on_c, 2, 64, 78
3, 284040, Note_on_c, 2, 69, 78
3, 284400, Note_off_c, 2, 69, 0
3, 284400, Note_off_c, 2, 64, 0
3, 284400, Note_off_c, 2, 61, 0
3, 284400, Note_off_c, 2, 57, 0
3, 284400, Note_off_c, 2, 52, 0
3, 284400, Note_off_c, 2, 45, 0
3, 284400, Note_on_c, 2, 45, 78
3, 284400, Note_on_c, 2, 52, 78
3, 284400, Note_on_c, 2, 57, 78
3, 284400, Note_on_c, 2, 61, 78
3, 284400, Note_on_c, 2, 64, 78
3, 284400, Note_on_c, 2, 69, 78
3, 284760, Note_off_c, 2, 69, 0
3, 284760, Note_off_c, 2, 64, 0
3, 284760, Note_off_c, 2, 61, 0
3, 284760, Note_off_c, 2, 57, 0
3, 284760, Note_off_c, 2, 52, 0
3, 284760, Note_off_c, 2, 45, 0
3, 284760, Note_on_c, 2, 45, 78
3, 284760, Note_on_c, 2, 52, 78
3, 284760, Note_on_c, 2, 57, 78
3, 284760, Note_on_c, 2, 61, 78
3, 284760, Note_on_c, 2, 64, 78
3, 284760, Note_on_c, 2, 69, 78
3, 285120, Note_off_c, 2, 69, 0
3, 285120, Note_off_c, 2, 64, 0
3, 285120, Note_off_c, 2, 61, 0
3, 285120, Note_off_c, 2, 57, 0
3, 285120, Note_off_c, 2, 52, 0
3, 285120, Note_off_c, 2, 45, 0
3, 285120, Note_on_c, 2, 48, 78
3, 285120, Note_on_c, 2, 55, 78
3, 285120, Note_on_c, 2, 60, 78
3, 285120, Note_on_c, 2, 64, 78
3, 285120, Note_on_c, 2, 67, 78
3, 285120, Note_on_c, 2, 72, 78
3, 285480, Note_off_c, 2, 72, 0
3, 285480, Note_off_c, 2, 67, 0
3, 285480, Note_off_c, 2, 64, 0
3, 285480, Note_off_c, 2, 60, 0
3, 285480, Note_off_c, 2, 55, 0
3, 285480, Note_off_c, 2, 48, 0
3, 285480, Note_on_c, 2, 48, 78
3, 285480, Note_on_c, 2, 55, 78
3, 285480, Note_on_c, 2, 60, 78
3, 285480, Note_on_c, 2, 64, 78
3, 285480, Note_on_c, 2, 67, 78
3, 285480, Note_on_c, 2, 72, 78
3, 285840, Note_off_c, 2, 72, 0
3, 285840, Note_off_c, 2, 67, 0
3, 285840, Note_off_c, 2, 64, 0
3, 285840, Note_off_c, 2, 60, 0
3, 285840, Note_off_c, 2, 55, 0
3, 285840, Note_off_c, 2, 48, 0
3, 285840, Note_on_c, 2, 48, 78
3, 285840, Note_on_c, 2, 55, 78
3, 285840, Note_on_c, 2, 60, 78
3, 285840, Note_on_c, 2, 64, 78
3, 285840, Note_on_c, 2, 67, 78
3, 285840, Note_on_c, 2, 72, 78
3, 286200, Note_off_c, 2, 72, 0
3, 286200, Note_off_c, 2, 67, 0
3, 286200, Note_off_c, 2, 64, 0
3, 286200, Note_off_c, 2, 60, 0
3, 286200, Note_off_c, 2, 55, 0
3, 286200, Note_off_c, 2, 48, 0
3, 286200, Note_on_c, 2, 48, 78
3, 286200, Note_on_c, 2, 55, 78
3, 286200, Note_on_c, 2, 60, 78
3, 286200, Note_on_c, 2, 64, 78
3, 286200, Note_on_c, 2, 67, 78
3, 286200, Note_on_c, 2, 72, 78
3, 286560, Note_off_c, 2, 72, 0
3, 286560, Note_off_c, 2, 67, 0
3, 286560, Note_off_c, 2, 64, 0
3, 286560, Note_off_c, 2, 60, 0
3, 286560, Note_off_c, 2, 55, 0
3, 286560, Note_off_c, 2, 48, 0
3, 286560, Note_on_c, 2, 48, 78
3, 286560, Note_on_c, 2, 55, 78
3, 286560, Note_on_c, 2, 60, 78
3, 286560, Note_on_c, 2, 64, 78
3, 286560, Note_on_c, 2, 67, 78
3, 286560, Note_on_c, 2, 72, 78
3, 286920, Note_off_c, 2, 72, 0
3, 286920, Note_off_c, 2, 67, 0
3, 286920, Note_off_c, 2, 64, 0
3, 286920, Note_off_c, 2, 60, 0
3, 286920, Note_off_c, 2, 55, 0
3, 286920, Note_off_c, 2, 48, 0
3, 286920, Note_on_c, 2, 48, 78
3, 286920, Note_on_c, 2, 55, 78
3, 286920, Note_on_c, 2, 60, 78
3, 286920, Note_on_c, 2, 64, 78
3, 286920, Note_on_c, 2, 67, 78
3, 286920, Note_on_c, 2, 72, 78
3, 287280, Note_off_c, 2, 72, 0
3, 287280, Note_off_c, 2, 67, 0
3, 287280, Note_off_c, 2, 64, 0
3, 287280, Note_off_c, 2, 60, 0
3, 287280, Note_off_c, 2, 55, 0
3, 287280, Note_off_c, 2, 48, 0
3, 287280, Note_on_c, 2, 48, 78
3, 287280, Note_on_c, 2, 55, 78
3, 287280, Note_on_c, 2, 60, 78
3, 287280, Note_on_c, 2, 64, 78
3, 287280, Note_on_c, 2, 67, 78
3, 287280, Note_on_c, 2, 72, 78
3, 287640, Note_off_c, 2, 72, 0
3, 287640, Note_off_c, 2, 67, 0
3, 287640, Note_off_c, 2, 64, 0
3, 287640, Note_off_c, 2, 60, 0
3, 287640, Note_off_c, 2, 55, 0
3, 287640, Note_off_c, 2, 48, 0
3, 287640, Note_on_c, 2, 48, 78
3, 287640, Note_on_c, 2, 55, 78
3, 287640, Note_on_c, 2, 60, 78
3, 287640, Note_on_c, 2, 64, 78
3, 287640, Note_on_c, 2, 67, 78
3, 287640, Note_on_c, 2, 72, 78
3, 288000, Note_off_c, 2, 72, 0
3, 288000, Note_off_c, 2, 67, 0
3, 288000, Note_off_c, 2, 64, 0
3, 288000, Note_off_c, 2, 60, 0
3, 288000, Note_off_c, 2, 55, 0
3, 288000, Note_off_c, 2, 48, 0
3, 288000, Note_on_c, 2, 48, 78
3, 288000, Note_on_c, 2, 55, 78
3, 288000, Note_on_c, 2, 60, 78
3, 288000, Note_on_c, 2, 64, 78
3, 288000, Note_on_c, 2, 67, 78
3, 288000, Note_on_c, 2, 72, 78
3, 288360, Note_off_c, 2, 72, 0
3, 288360, Note_off_c, 2, 67, 0
3, 288360, Note_off_c, 2, 64, 0
3, 288360, Note_off_c, 2, 60, 0
3, 288360, Note_off_c, 2, 55, 0
3, 288360, Note_off_c, 2, 48, 0
3, 288360, Note_on_c, 2, 48, 78
3, 288360, Note_on_c, 2, 55, 78
3, 288360, Note_on_c, 2, 60, 78
3, 288360, Note_on_c, 2, 64, 78
3, 288360, Note_on_c, 2, 67, 78
3, 288360, Note_on_c, 2, 72, 78
3, 288720, Note_off_c, 2, 72, 0
3, 288720, Note_off_c, 2, 67, 0
3, 288720, Note_off_c, 2, 64, 0
3, 288720, Note_off_c, 2, 60, 0
3, 288720, Note_off_c, 2, 55, 0
3, 288720, Note_off_c, 2, 48, 0
3, 288720, Note_on_c, 2, 48, 78
3, 288720, Note_on_c, 2, 55, 78
3, 288720, Note_on_c, 2, 60, 78
3, 288720, Note_on_c, 2, 64, 78
3, 288720, Note_on_c, 2, 67, 78
3, 288720, Note_on_c, 2, 72, 78
3, 289080, Note_off_c, 2, 72, 0
3, 289080, Note_off_c, 2, 67, 0
3, 289080, Note_off_c, 2, 64, 0
3, 289080, Note_off_c, 2, 60, 0
3, 289080, Note_off_c, 2, 55, 0
3, 289080, Note_off_c, 2, 48, 0
3, 289080, Note_on_c, 2, 48, 78
3, 289080, Note_on_c, 2, 55, 78
3, 289080, Note_on_c, 2, 60, 78
3, 289080, Note_on_c, 2, 64, 78
3, 289080, Note_on_c, 2, 67, 78
3, 289080, Note_on_c, 2, 72, 78
3, 289440, Note_off_c, 2, 72, 0
3, 289440, Note_off_c, 2, 67, 0
3, 289440, Note_off_c, 2, 64, 0
3, 289440, Note_off_c, 2, 60, 0
3, 289440, Note_off_c, 2, 55, 0
3, 289440, Note_off_c, 2, 48, 0
3, 289440, Note_on_c, 2, 48, 78
3, 289440, Note_on_c, 2, 55, 78
3, 289440, Note_on_c, 2, 60, 78
3, 289440, Note_on_c, 2, 64, 78
3, 289440, Note_on_c, 2, 67, 78
3, 289440, Note_on_c, 2, 72, 78
3, 289800, Note_off_c, 2, 72, 0
3, 289800, Note_off_c, 2, 67, 0
3, 289800, Note_off_c, 2, 64, 0
3, 289800, Note_off_c, 2, 60, 0
3, 289800, Note_off_c, 2, 55, 0
3, 289800, Note_off_c, 2, 48, 0
3, 289800, Note_on_c, 2, 48, 78
3, 289800, Note_on_c, 2, 55, 78
3, 289800, Note_on_c, 2, 60, 78
3, 289800, Note_on_c, 2, 64, 78
3, 289800, Note_on_c, 2, 67, 78
3, 289800, Note_on_c, 2, 72, 78
3, 290160, Note_off_c, 2, 72, 0
3, 290160, Note_off_c, 2, 67, 0
3, 290160, Note_off_c, 2, 64, 0
3, 290160, Note_off_c, 2, 60, 0
3, 290160, Note_off_c, 2, 55, 0
3, 290160, Note_off_c, 2, 48, 0
3, 290160, Note_on_c, 2, 48, 78
3, 290160, Note_on_c, 2, 55, 78
3, 290160, Note_on_c, 2, 60, 78
3, 290160, Note_on_c, 2, 64, 78
3, 290160, Note_on_c, 2, 67, 78
3, 290160, Note_on_c, 2, 72, 78
3, 290520, Note_off_c, 2, 72, 0
3, 290520, Note_off_c, 2, 67, 0
3, 290520, Note_off_c, 2, 64, 0
3, 290520, Note_off_c, 2, 60, 0
3, 290520, Note_off_c, 2, 55, 0
3, 290520, Note_off_c, 2, 48, 0
3, 290520, Note_on_c, 2, 48, 78
3, 290520, Note_on_c, 2, 55, 78
3, 290520, Note_on_c, 2, 60, 78
3, 290520, Note_on_c, 2, 64, 78
3, 290520, Note_on_c, 2, 67, 78
3, 290520, Note_on_c, 2, 72, 78
3, 290880, Note_off_c, 2, 72, 0
3, 290880, Note_off_c, 2, 67, 0
3, 290880, Note_off_c, 2, 64, 0
3, 290880, Note_off_c, 2, 60, 0
3, 290880, Note_off_c, 2, 55, 0
3, 290880, Note_off_c, 2, 48, 0
3, 290880, Note_on_c, 2, 41, 78
3, 290880, Note_on_c, 2, 48, 78
3, 290880, Note_on_c, 2, 53, 78
3, 290880, Note_on_c, 2, 57, 78
3, 290880, Note_on_c, 2, 60, 78
3, 290880, Note_on_c, 2, 65, 78
3, 291240, Note_off_c, 2, 65, 0
3, 291240, Note_off_c, 2, 60, 0
3, 291240, Note_off_c, 2, 57, 0
3, 291240, Note_off_c, 2, 53, 0
3, 291240, Note_off_c, 2, 48, 0
3, 291240, Note_off_c, 2, 41, 0
3, 291240, Note_on_c, 2, 41, 78
3, 291240, Note_on_c, 2, 48, 78
3, 291240, Note_on_c, 2, 53, 78
3, 291240, Note_on_c, 2, 57, 78
3, 291240, Note_on_c, 2, 60, 78
3, 291240, Note_on_c, 2, 65, 78
3, 291600, Note_off_c, 2, 65, 0
3, 291600, Note_off_c, 2, 60, 0
3, 291600, Note_off_c, 2, 57, 0
3, 291600, Note_off_c, 2, 53, 0
3, 291600, Note_off_c, 2, 48, 0
3, 291600, Note_off_c, 2, 41, 0
3, 291600, Note_on_c, 2, 41, 78
3, 291600, Note_on_c, 2, 48, 78
3, 291600, Note_on_c, 2, 53, 78
3, 291600, Note_on_c, 2, 57, 78
3, 291600, Note_on_c, 2, 60, 78
3, 291600, Note_on_c, 2, 65, 78
3, 291960, Note_off_c, 2, 65, 0
3, 291960, Note_off_c, 2, 60, 0
3, 291960, Note_off_c, 2, 57, 0
3, 291960, Note_off_c, 2, 53, 0
3, 291960, Note_off_c, 2, 48, 0
3, 291960, Note_off_c, 2, 41, 0
3, 291960, Note_on_c, 2, 41, 78
3, 291960, Note_on_c, 2, 48, 78
3, 291960, Note_on_c, 2, 53, 78
3, 291960, Note_on_c, 2, 57, 78
3, 291960, Note_on_c, 2, 60, 78
3, 291960, Note_on_c, 2, 65, 78
3, 292320, Note_off_c, 2, 65, 0
3, 292320, Note_off_c, 2, 60, 0
3, 292320, Note_off_c, 2, 57, 0
3, 292320, Note_off_c, 2, 53, 0
3, 292320, Note_off_c, 2, 48, 0
3, 292320, Note_off_c, 2, 41, 0
3, 292320, Note_on_c, 2, 41, 78
3, 292320, Note_on_c, 2, 48, 78
3, 292320, Note_on_c, 2, 53, 78
3, 292320, Note_on_c, 2, 57, 78
3, 292320, Note_on_c, 2, 60, 78
3, 292320, Note_on_c, 2, 65, 78
3, 292680, Note_off_c, 2, 65, 0
3, 292680, Note_off_c, 2, 60, 0
3, 292680, Note_off_c, 2, 57, 0
3, 292680, Note_off_c, 2, 53, 0
3, 292680, Note_off_c, 2, 48, 0
3, 292680, Note_off_c, 2, 41, 0
3, 292680, Note_on_c, 2, 41, 78
3, 292680, Note_on_c, 2, 48, 78
3, 292680, Note_on_c, 2, 53, 78
3, 292680, Note_on_c, 2, 57, 78
3, 292680, Note_on_c, 2, 60, 78
3, 292680, Note_on_c, 2, 65, 78
3, 293040, Note_off_c, 2, 65, 0
3, 293040, Note_off_c, 2, 60, 0
3, 293040, Note_off_c, 2, 57, 0
3, 293040, Note_off_c, 2, 53, 0
3, 293040, Note_off_c, 2, 48, 0
3, 293040, Note_off_c, 2, 41, 0
3, 293040, Note_on_c, 2, 41, 78
3, 293040, Note_on_c, 2, 48, 78
3, 293040, Note_on_c, 2, 53, 78
3, 293040, Note_on_c, 2, 57, 78
3, 293040, Note_on_c, 2, 60, 78
3, 293040, Note_on_c, 2, 65, 78
3, 293400, Note_off_c, 2, 65, 0
3, 293400, Note_off_c, 2, 60, 0
3, 293400, Note_off_c, 2, 57, 0
3, 293400, Note_off_c, 2, 53, 0
3, 293400, Note_off_c, 2, 48, 0
3, 293400, Note_off_c, 2, 41, 0
3, 293400, Note_on_c, 2, 41, 78
3, 293400, Note_on_c, 2, 48, 78
3, 293400, Note_on_c, 2, 53, 78
3, 293400, Note_on_c, 2, 57, 78
3, 293400, Note_on_c, 2, 60, 78
3, 293400, Note_on_c, 2, 65, 78
3, 293760, Note_off_c, 2, 65, 0
3, 293760, Note_off_c, 2, 60, 0
3, 293760, Note_off_c, 2, 57, 0
3, 293760, Note_off_c, 2, 53, 0
3, 293760, Note_off_c, 2, 48, 0
3, 293760, Note_off_c, 2, 41, 0
3, 293760, Note_on_c, 2, 41, 78
3, 293760, Note_on_c, 2, 48, 78
3, 293760, Note_on_c, 2, 53, 78
3, 293760, Note_on_c, 2, 57, 78
3, 293760, Note_on_c, 2, 60, 78
3, 293760, Note_on_c, 2, 65, 78
3, 294120, Note_off_c, 2, 65, 0
3, 294120, Note_off_c, 2, 60, 0
3, 294120, Note_off_c, 2, 57, 0
3, 294120, Note_off_c, 2, 53, 0
3, 294120, Note_off_c, 2, 48, 0
3, 294120, Note_off_c, 2, 41, 0
3, 294120, Note_on_c, 2, 41, 78
3, 294120, Note_on_c, 2, 48, 78
3, 294120, Note_on_c, 2, 53, 78
3, 294120, Note_on_c, 2, 57, 78
3, 294120, Note_on_c, 2, 60, 78
3, 294120, Note_on_c, 2, 65, 78
3, 294480, Note_off_c, 2, 65, 0
3, 294480, Note_off_c, 2, 60, 0
3, 294480, Note_off_c, 2, 57, 0
3, 294480, Note_off_c, 2, 53, 0
3, 294480, Note_off_c, 2, 48, 0
3, 294480, Note_off_c, 2, 41, 0
3, 294480, Note_on_c, 2, 41, 78
3, 294480, Note_on_c, 2, 48, 78
3, 294480, Note_on_c, 2, 53, 78
3, 294480, Note_on_c, 2, 57, 78
3, 294480, Note_on_c, 2, 60, 78
3, 294480, Note_on_c, 2, 65, 78
3, 294840, Note_off_c, 2, 65, 0
3, 294840, Note_off_c, 2, 60, 0
3, 294840, Note_off_c, 2, 57, 0
3, 294840, Note_off_c, 2, 53, 0
3, 294840, Note_off_c, 2, 48, 0
3, 294840, Note_off_c, 2, 41, 0
3, 294840, Note_on_c, 2, 41, 78
3, 294840, Note_on_c, 2, 48, 78
3, 294840, Note_on_c, 2, 53, 78
3, 294840, Note_on_c, 2, 57, 78
3, 294840, Note_on_c, 2, 60, 78
3, 294840, Note_on_c, 2, 65, 78
3, 295200, Note_off_c, 2, 65, 0
3, 295200, Note_off_c, 2, 60, 0
3, 295200, Note_off_c, 2, 57, 0
3, 295200, Note_off_c, 2, 53, 0
3, 295200, Note_off_c, 2, 48, 0
3, 295200, Note_off_c, 2, 41, 0
3, 295200, Note_on_c, 2, 41, 78
3, 295200, Note_on_c, 2, 48, 78
3, 295200, Note_on_c, 2, 53, 78
3, 295200, Note_on_c, 2, 57, 78
3, 295200, Note_on_c, 2, 60, 78
3, 295200, Note_on_c, 2, 65, 78
3, 295560, Note_off_c, 2, 65, 0
3, 295560, Note_off_c, 2, 60, 0
3, 295560, Note_off_c, 2, 57, 0
3, 295560, Note_off_c, 2, 53, 0
3, 295560, Note_off_c, 2, 48, 0
3, 295560, Note_off_c, 2, 41, 0
3, 295560, Note_on_c, 2, 41, 78
3, 295560, Note_on_c, 2, 48, 78
3, 295560, Note_on_c, 2, 53, 78
3, 295560, Note_on_c, 2, 57, 78
3, 295560, Note_on_c, 2, 60, 78
3, 295560, Note_on_c, 2, 65, 78
3, 295920, Note_off_c, 2, 65, 0
3, 295920, Note_off_c, 2, 60, 0
3, 295920, Note_off_c, 2, 57, 0
3, 295920, Note_off_c, 2, 53, 0
3, 295920, Note_off_c, 2, 48, 0
3, 295920, Note_off_c, 2, 41, 0
3, 295920, Note_on_c, 2, 41, 78
3, 295920, Note_on_c, 2, 48, 78
3, 295920, Note_on_c, 2, 53, 78
3, 295920, Note_on_c, 2, 57, 78
3, 295920, Note_on_c, 2, 60, 78
3, 295920, Note_on_c, 2, 65, 78
3, 296280, Note_off_c, 2, 65, 0
3, 296280, Note_off_c, 2, 60, 0
3, 296280, Note_off_c, 2, 57, 0
3, 296280, Note_off_c, 2, 53, 0
3, 296280, Note_off_c, 2, 48, 0
3, 296280, Note_off_c, 2, 41, 0
3, 296280, Note_on_c, 2, 41, 78
3, 296280, Note_on_c, 2, 48, 78
3, 296280, Note_on_c, 2, 53, 78
3, 296280, Note_on_c, 2, 57, 78
3, 296280, Note_on_c, 2, 60, 78
3, 296280, Note_on_c, 2, 65, 78
3, 296640, Note_off_c, 2, 65, 0
3, 296640, Note_off_c, 2, 60, 0
3, 296640, Note_off_c, 2, 57, 0
3, 296640, Note_off_c, 2, 53, 0
3, 296640, Note_off_c, 2, 48, 0
3, 296640, Note_off_c, 2, 41, 0
3, 296640, Note_on_c, 2, 43, 78
3, 296640, Note_on_c, 2, 50, 78
3, 296640, Note_on_c, 2, 55, 78
3, 296640, Note_on_c, 2, 59, 78
3, 296640, Note_on_c, 2, 62, 78
3, 296640, Note_on_c, 2, 67, 78
3, 297000, Note_off_c, 2, 67, 0
3, 297000, Note_off_c, 2, 62, 0
3, 297000, Note_off_c, 2, 59, 0
3, 297000, Note_off_c, 2, 55, 0
3, 297000, Note_off_c, 2, 50, 0
3, 297000, Note_off_c, 2, 43, 0
3, 297000, Note_on_c, 2, 43, 78
3, 297000, Note_on_c, 2, 50, 78
3, 297000, Note_on_c, 2, 55, 78
3, 297000, Note_on_c, 2, 59, 78
3, 297000, Note_on_c, 2, 62, 78
3, 297000, Note_on_c, 2, 67, 78
3, 297360, Note_off_c, 2, 67, 0
3, 297360, Note_off_c, 2, 62, 0
3, 297360, Note_off_c, 2, 59, 0
3, 297360, Note_off_c, 2, 55, 0
3, 297360, Note_off_c, 2, 50, 0
3, 297360, Note_off_c, 2, 43, 0
3, 297360, Note_on_c, 2, 43, 78
3, 297360, Note_on_c, 2, 50, 78
3, 297360, Note_on_c, 2, 55, 78
3, 297360, Note_on_c, 2, 59, 78
3, 297360, Note_on_c, 2, 62, 78
3, 297360, Note_on_c, 2, 67, 78
3, 297720, Note_off_c, 2, 67, 0
3, 297720, Note_off_c, 2, 62, 0
3, 297720, Note_off_c, 2, 59, 0
3, 297720, Note_off_c, 2, 55, 0
3, 297720, Note_off_c, 2, 50, 0
3, 297720, Note_off_c, 2, 43, 0
3, 297720, Note_on_c, 2, 43, 78
3, 297720, Note_on_c, 2, 50, 78
3, 297720, Note_on_c, 2, 55, 78
3, 297720, Note_on_c, 2, 59, 78
3, 297720, Note_on_c, 2, 62, 78
3, 297720, Note_on_c, 2, 67, 78
3, 298080, Note_off_c, 2, 67, 0
3, 298080, Note_off_c, 2, 62, 0
3, 298080, Note_off_c, 2, 59, 0
3, 298080, Note_off_c, 2, 55, 0
3, 298080, Note_off_c, 2, 50, 0
3, 298080, Note_off_c, 2, 43, 0
3, 298080, Note_on_c, 2, 43, 78
3, 298080, Note_on_c, 2, 50, 78
3, 298080, Note_on_c, 2, 55, 78
3, 298080, Note_on_c, 2, 59, 78
3, 298080, Note_on_c, 2, 62, 78
3, 298080, Note_on_c, 2, 67, 78
3, 298440, Note_off_c, 2, 67, 0
3, 298440, Note_off_c, 2, 62, 0
3, 298440, Note_off_c, 2, 59, 0
3, 298440, Note_off_c, 2, 55, 0
3, 298440, Note_off_c, 2, 50, 0
3, 298440, Note_off_c, 2, 43, 0
3, 298440, Note_on_c, 2, 43, 78
3, 298440, Note_on_c, 2, 50, 78
3, 298440, Note_on_c, 2, 55, 78
3, 298440, Note_on_c, 2, 59, 78
3, 298440, Note_on_c, 2, 62, 78
3, 298440, Note_on_c, 2, 67, 78
3, 298800, Note_off_c, 2, 67, 0
3, 298800, Note_off_c, 2, 62, 0
3, 298800, Note_off_c, 2, 59, 0
3, 298800, Note_off_c, 2, 55, 0
3, 298800, Note_off_c, 2, 50, 0
3, 298800, Note_off_c, 2, 43, 0
3, 298800, Note_on_c, 2, 43, 78
3, 298800, Note_on_c, 2, 50, 78
3, 298800, Note_on_c, 2, 55, 78
3, 298800, Note_on_c, 2, 59, 78
3, 298800, Note_on_c, 2, 62, 78
3, 298800, Note_on_c, 2, 67, 78
3, 299160, Note_off_c, 2, 67, 0
3, 299160, Note_off_c, 2, 62, 0
3, 299160, Note_off_c, 2, 59, 0
3, 299160, Note_off_c, 2, 55, 0
3, 299160, Note_off_c, 2, 50, 0
3, 299160, Note_off_c, 2, 43, 0
3, 299160, Note_on_c, 2, 43, 78
3, 299160, Note_on_c, 2, 50, 78
3, 299160, Note_on_c, 2, 55, 78
3, 299160, Note_on_c, 2, 59, 78
3, 299160, Note_on_c, 2, 62, 78
3, 299160, Note_on_c, 2, 67, 78
3, 299520, Note_off_c, 2, 67, 0
3, 299520, Note_off_c, 2, 62, 0
3, 299520, Note_off_c, 2, 59, 0
3, 299520, Note_off_c, 2, 55, 0
3, 299520, Note_off_c, 2, 50, 0
3, 299520, Note_off_c, 2, 43, 0
3, 299520, Note_on_c, 2, 43, 78
3, 299520, Note_on_c, 2, 50, 78
3, 299520, Note_on_c, 2, 55, 78
3, 299520, Note_on_c, 2, 59, 78
3, 299520, Note_on_c, 2, 62, 78
3, 299520, Note_on_c, 2, 67, 78
3, 299880, Note_off_c, 2, 67, 0
3, 299880, Note_off_c, 2, 62, 0
3, 299880, Note_off_c, 2, 59, 0
3, 299880, Note_off_c, 2, 55, 0
3, 299880, Note_off_c, 2, 50, 0
3, 299880, Note_off_c, 2, 43, 0
3, 299880, Note_on_c, 2, 43, 78
3, 299880, Note_on_c, 2, 50, 78
3, 299880, Note_on_c, 2, 55, 78
3, 299880, Note_on_c, 2, 59, 78
3, 299880, Note_on_c, 2, 62, 78
3, 299880, Note_on_c, 2, 67, 78
3, 300240, Note_off_c, 2, 67, 0
3, 300240, Note_off_c, 2, 62, 0
3, 300240, Note_off_c, 2, 59, 0
3, 300240, Note_off_c, 2, 55, 0
3, 300240, Note_off_c, 2, 50, 0
3, 300240, Note_off_c, 2, 43, 0
3, 300240, Note_on_c, 2, 43, 78
3, 300240, Note_on_c, 2, 50, 78
3, 300240, Note_on_c, 2, 55, 78
3, 300240, Note_on_c, 2, 59, 78
3, 300240, Note_on_c, 2, 62, 78
3, 300240, Note_on_c, 2, 67, 78
3, 300600, Note_off_c, 2, 67, 0
3, 300600, Note_off_c, 2, 62, 0
3, 300600, Note_off_c, 2, 59, 0
3, 300600, Note_off_c, 2, 55, 0
3, 300600, Note_off_c, 2, 50, 0
3, 300600, Note_off_c, 2, 43, 0
3, 300600, Note_on_c, 2, 43, 78
3, 300600, Note_on_c, 2, 50, 78
3, 300600, Note_on_c, 2, 55, 78
3, 300600, Note_on_c, 2, 59, 78
3, 300600, Note_on_c, 2, 62, 78
3, 300600, Note_on_c, 2, 67, 78
3, 300960, Note_off_c, 2, 67, 0
3, 300960, Note_off_c, 2, 62, 0
3, 300960, Note_off_c, 2, 59, 0
3, 300960, Note_off_c, 2, 55, 0
3, 300960, Note_off_c, 2, 50, 0
3, 300960, Note_off_c, 2, 43, 0
3, 300960, Note_on_c, 2, 46, 78
3, 300960, Note_on_c, 2, 53, 78
3, 300960, Note_on_c, 2, 58, 78
3, 300960, Note_on_c, 2, 62, 78
3, 300960, Note_on_c, 2, 65, 78
3, 300960, Note_on_c, 2, 70, 78
3, 301320, Note_off_c, 2, 70, 0
3, 301320, Note_off_c, 2, 65, 0
3, 301320, Note_off_c, 2, 62, 0
3, 301320, Note_off_c, 2, 58, 0
3, 301320, Note_off_c, 2, 53, 0
3, 301320, Note_off_c, 2, 46, 0
3, 301320, Note_on_c, 2, 46, 78
3, 301320, Note_on_c, 2, 53, 78
3, 301320, Note_on_c, 2, 58, 78
3, 301320, Note_on_c, 2, 62, 78
3, 301320, Note_on_c, 2, 65, 78
3, 301320, Note_on_c, 2, 70, 78
3, 301680, Note_off_c, 2, 70, 0
3, 301680, Note_off_c, 2, 65, 0
3, 301680, Note_off_c, 2, 62, 0
3, 301680, Note_off_c, 2, 58, 0
3, 301680, Note_off_c, 2, 53, 0
3, 301680, Note_off_c, 2, 46, 0
3, 301680, Note_on_c, 2, 46, 78
3, 301680, Note_on_c, 2, 53, 78
3, 301680, Note_on_c, 2, 58, 78
3, 301680, Note_on_c, 2, 62, 78
3, 301680, Note_on_c, 2, 65, 78
3, 301680, Note_on_c, 2, 70, 78
3, 302040, Note_off_c, 2, 70, 0
3, 302040, Note_off_c, 2, 65, 0
3, 302040, Note_off_c, 2, 62, 0
3, 302040, Note_off_c, 2, 58, 0
3, 302040, Note_off_c, 2, 53, 0
3, 302040, Note_off_c, 2, 46, 0
3, 302040, Note_on_c, 2, 46, 78
3, 302040, Note_on_c, 2, 53, 78
3, 302040, Note_on_c, 2, 58, 78
3, 302040, Note_on_c, 2, 62, 78
3, 302040, Note_on_c, 2, 65, 78
3, 302040, Note_on_c, 2, 70, 78
3, 302400, Note_off_c, 2, 70, 0
3, 302400, Note_off_c, 2, 65, 0
3, 302400, Note_off_c, 2, 62, 0
3, 302400, Note_off_c, 2, 58, 0
3, 302400, Note_off_c, 2, 53, 0
3, 302400, Note_off_c, 2, 46, 0
3, 302400, Note_on_c, 2, 45, 78
3, 302400, Note_on_c, 2, 52, 78
3, 302400, Note_on_c, 2, 57, 78
3, 302400, Note_on_c, 2, 61, 78
3, 302400, Note_on_c, 2, 64, 78
3, 302400, Note_on_c, 2, 69, 78
3, 302760, Note_off_c, 2, 69, 0
3, 302760, Note_off_c, 2, 64, 0
3, 302760, Note_off_c, 2, 61, 0
3, 302760, Note_off_c, 2, 57, 0
3, 302760, Note_off_c, 2, 52, 0
3, 302760, Note_off_c, 2, 45, 0
3, 302760, Note_on_c, 2, 45, 78
3, 302760, Note_on_c, 2, 52, 78
3, 302760, Note_on_c, 2, 57, 78
3, 302760, Note_on_c, 2, 61, 78
3, 302760, Note_on_c, 2, 64, 78
3, 302760, Note_on_c, 2, 69, 78
3, 303120, Note_off_c, 2, 69, 0
3, 303120, Note_off_c, 2, 64, 0
3, 303120, Note_off_c, 2, 61, 0
3, 303120, Note_off_c, 2, 57, 0
3, 303120, Note_off_c, 2, 52, 0
3, 303120, Note_off_c, 2, 45, 0
3, 303120, Note_on_c, 2, 45, 78
3, 303120, Note_on_c, 2, 52, 78
3, 303120, Note_on_c, 2, 57, 78
3, 303120, Note_on_c, 2, 61, 78
3, 303120, Note_on_c, 2, 64, 78
3, 303120, Note_on_c, 2, 69, 78
3, 303480, Note_off_c, 2, 69, 0
3, 303480, Note_off_c, 2, 64, 0
3, 303480, Note_off_c, 2, 61, 0
3, 303480, Note_off_c, 2, 57, 0
3, 303480, Note_off_c, 2, 52, 0
3, 303480, Note_off_c, 2, 45, 0
3, 303480, Note_on_c, 2, 45, 78
3, 303480, Note_on_c, 2, 52, 78
3, 303480, Note_on_c, 2, 57, 78
3, 303480, Note_on_c, 2, 61, 78
3, 303480, Note_on_c, 2, 64, 78
3, 303480, Note_on_c, 2, 69, 78
3, 303840, Note_off_c, 2, 69, 0
3, 303840, Note_off_c, 2, 64, 0
3, 303840, Note_off_c, 2, 61, 0
3, 303840, Note_off_c, 2, 57, 0
3, 303840, Note_off_c, 2, 52, 0
3, 303840, Note_off_c, 2, 45, 0
3, 303840, Note_on_c, 2, 45, 78
3, 303840, Note_on_c, 2, 52, 78
3, 303840, Note_on_c, 2, 57, 78
3, 303840, Note_on_c, 2, 61, 78
3, 303840, Note_on_c, 2, 64, 78
3, 303840, Note_on_c, 2, 69, 78
3, 304200, Note_off_c, 2, 69, 0
3, 304200, Note_off_c, 2, 64, 0
3, 304200, Note_off_c, 2, 61, 0
3, 304200, Note_off_c, 2, 57, 0
3, 304200, Note_off_c, 2, 52, 0
3, 304200, Note_off_c, 2, 45, 0
3, 304200, Note_on_c, 2, 45, 78
3, 304200, Note_on_c, 2, 52, 78
3, 304200, Note_on_c, 2, 57, 78
3, 304200, Note_on_c, 2, 61, 78
3, 304200, Note_on_c, 2, 64, 78
3, 304200, Note_on_c, 2, 69, 78
3, 304560, Note_off_c, 2, 69, 0
3, 304560, Note_off_c, 2, 64, 0
3, 304560, Note_off_c, 2, 61, 0
3, 304560, Note_off_c, 2, 57, 0
3, 304560, Note_off_c, 2, 52, 0
3, 304560, Note_off_c, 2, 45, 0
3, 304560, Note_on_c, 2, 45, 78
3, 304560, Note_on_c, 2, 52, 78
3, 304560, Note_on_c, 2, 57, 78
3, 304560, Note_on_c, 2, 61, 78
3, 304560, Note_on_c, 2, 64, 78
3, 304560, Note_on_c, 2, 69, 78
3, 304920, Note_off_c, 2, 69, 0
3, 304920, Note_off_c, 2, 64, 0
3, 304920, Note_off_c, 2, 61, 0
3, 304920, Note_off_c, 2, 57, 0
3, 304920, Note_off_c, 2, 52, 0
3, 304920, Note_off_c, 2, 45, 0
3, 304920, Note_on_c, 2, 45, 78
3, 304920, Note_on_c, 2, 52, 78
3, 304920, Note_on_c, 2, 57, 78
3, 304920, Note_on_c, 2, 61, 78
3, 304920, Note_on_c, 2, 64, 78
3, 304920, Note_on_c, 2, 69, 78
3, 305280, Note_off_c, 2, 69, 0
3, 305280, Note_off_c, 2, 64, 0
3, 305280, Note_off_c, 2, 61, 0
3, 305280, Note_off_c, 2, 57, 0
3, 305280, Note_off_c, 2, 52, 0
3, 305280, Note_off_c, 2, 45, 0
3, 305280, Note_on_c, 2, 45, 78
3, 305280, Note_on_c, 2, 52, 78
3, 305280, Note_on_c, 2, 57, 78
3, 305280, Note_on_c, 2, 61, 78
3, 305280, Note_on_c, 2, 64, 78
3, 305280, Note_on_c, 2, 69, 78
3, 305640, Note_off_c, 2, 69, 0
3, 305640, Note_off_c, 2, 64, 0
3, 305640, Note_off_c, 2, 61, 0
3, 305640, Note_off_c, 2, 57, 0
3, 305640, Note_off_c, 2, 52, 0
3, 305640, Note_off_c, 2, 45, 0
3, 305640, Note_on_c, 2, 45, 78
3, 305640, Note_on_c, 2, 52, 78
3, 305640, Note_on_c, 2, 57, 78
3, 305640, Note_on_c, 2, 61, 78
3, 305640, Note_on_c, 2, 64, 78
3, 305640, Note_on_c, 2, 69, 78
3, 306000, Note_off_c, 2, 69, 0
3, 306000, Note_off_c, 2, 64, 0
3, 306000, Note_off_c, 2, 61, 0
3, 306000, Note_off_c, 2, 57, 0
3, 306000, Note_off_c, 2, 52, 0
3, 306000, Note_off_c, 2, 45, 0
3, 306000, Note_on_c, 2, 45, 78
3, 306000, Note_on_c, 2, 52, 78
3, 306000, Note_on_c, 2, 57, 78
3, 306000, Note_on_c, 2, 61, 78
3, 306000, Note_on_c, 2, 64, 78
3, 306000, Note_on_c, 2, 69, 78
3, 306360, Note_off_c, 2, 69, 0
3, 306360, Note_off_c, 2, 64, 0
3, 306360, Note_off_c, 2, 61, 0
3, 306360, Note_off_c, 2, 57, 0
3, 306360, Note_off_c, 2, 52, 0
3, 306360, Note_off_c, 2, 45, 0
3, 306360, Note_on_c, 2, 45, 78
3, 306360, Note_on_c, 2, 52, 78
3, 306360, Note_on_c, 2, 57, 78
3, 306360, Note_on_c, 2, 61, 78
3, 306360, Note_on_c, 2, 64, 78
3, 306360, Note_on_c, 2, 69, 78
3, 306720, Note_off_c, 2, 69, 0
3, 306720, Note_off_c, 2, 64, 0
3, 306720, Note_off_c, 2, 61, 0
3, 306720, Note_off_c, 2, 57, 0
3, 306720, Note_off_c, 2, 52, 0
3, 306720, Note_off_c, 2, 45, 0
3, 306720, Note_on_c, 2, 45, 78
3, 306720, Note_on_c, 2, 52, 78
3, 306720, Note_on_c, 2, 57, 78
3, 306720, Note_on_c, 2, 61, 78
3, 306720, Note_on_c, 2, 64, 78
3, 306720, Note_on_c, 2, 69, 78
3, 307080, Note_off_c, 2, 69, 0
3, 307080, Note_off_c, 2, 64, 0
3, 307080, Note_off_c, 2, 61, 0
3, 307080, Note_off_c, 2, 57, 0
3, 307080, Note_off_c, 2, 52, 0
3, 307080, Note_off_c, 2, 45, 0
3, 307080, Note_on_c, 2, 45, 78
3, 307080, Note_on_c, 2, 52, 78
3, 307080, Note_on_c, 2, 57, 78
3, 307080, Note_on_c, 2, 61, 78
3, 307080, Note_on_c, 2, 64, 78
3, 307080, Note_on_c, 2, 69, 78
3, 307440, Note_off_c, 2, 69, 0
3, 307440, Note_off_c, 2, 64, 0
3, 307440, Note_off_c, 2, 61, 0
3, 307440, Note_off_c, 2, 57, 0
3, 307440, Note_off_c, 2, 52, 0
3, 307440, Note_off_c, 2, 45, 0
3, 307440, Note_on_c, 2, 45, 78
3, 307440, Note_on_c, 2, 52, 78
3, 307440, Note_on_c, 2, 57, 78
3, 307440, Note_on_c, 2, 61, 78
3, 307440, Note_on_c, 2, 64, 78
3, 307440, Note_on_c, 2, 69, 78
3, 307800, Note_off_c, 2, 69, 0
3, 307800, Note_off_c, 2, 64, 0
3, 307800, Note_off_c, 2, 61, 0
3, 307800, Note_off_c, 2, 57, 0
3, 307800, Note_off_c, 2, 52, 0
3, 307800, Note_off_c, 2, 45, 0
3, 307800, Note_on_c, 2, 45, 78
3, 307800, Note_on_c, 2, 52, 78
3, 307800, Note_on_c, 2, 57, 78
3, 307800, Note_on_c, 2, 61, 78
3, 307800, Note_on_c, 2, 64, 78
3, 307800, Note_on_c, 2, 69, 78
3, 308160, Note_off_c, 2, 69, 0
3, 308160, Note_off_c, 2, 64, 0
3, 308160, Note_off_c, 2, 61, 0
3, 308160, Note_off_c, 2, 57, 0
3, 308160, Note_off_c, 2, 52, 0
3, 308160, Note_off_c, 2, 45, 0
3, 308160, Note_on_c, 2, 48, 78
3, 308160, Note_on_c, 2, 55, 78
3, 308160, Note_on_c, 2, 60, 78
3, 308160, Note_on_c, 2, 64, 78
3, 308160, Note_on_c, 2, 67, 78
3, 308160, Note_on_c, 2, 72, 78
3, 308520, Note_off_c, 2, 72, 0
3, 308520, Note_off_c, 2, 67, 0
3, 308520, Note_off_c, 2, 64, 0
3, 308520, Note_off_c, 2, 60, 0
3, 308520, Note_off_c, 2, 55, 0
3, 308520, Note_off_c, 2, 48, 0
3, 308520, Note_on_c, 2, 48, 78
3, 308520, Note_on_c, 2, 55, 78
3, 308520, Note_on_c, 2, 60, 78
3, 308520, Note_on_c, 2, 64, 78
3, 308520, Note_on_c, 2, 67, 78
3, 308520, Note_on_c, 2, 72, 78
3, 308880, Note_off_c, 2, 72, 0
3, 308880, Note_off_c, 2, 67, 0
3, 308880, Note_off_c, 2, 64, 0
3, 308880, Note_off_c, 2, 60, 0
3, 308880, Note_off_c, 2, 55, 0
3, 308880, Note_off_c, 2, 48, 0
3, 308880, Note_on_c, 2, 48, 78
3, 308880, Note_on_c, 2, 55, 78
3, 308880, Note_on_c, 2, 60, 78
3, 308880, Note_on_c, 2, 64, 78
3, 308880, Note_on_c, 2, 67, 78
3, 308880, Note_on_c, 2, 72, 78
3, 309240, Note_off_c, 2, 72, 0
3, 309240, Note_off_c, 2, 67, 0
3, 309240, Note_off_c, 2, 64, 0
3, 309240, Note_off_c, 2, 60, 0
3, 309240, Note_off_c, 2, 55, 0
3, 309240, Note_off_c, 2, 48, 0
3, 309240, Note_on_c, 2, 48, 78
3, 309240, Note_on_c, 2, 55, 78
3, 309240, Note_on_c, 2, 60, 78
3, 309240, Note_on_c, 2, 64, 78
3, 309240, Note_on_c, 2, 67, 78
3, 309240, Note_on_c, 2, 72, 78
3, 309600, Note_off_c, 2, 72, 0
3, 309600, Note_off_c, 2, 67, 0
3, 309600, Note_off_c, 2, 64, 0
3, 309600, Note_off_c, 2, 60, 0
3, 309600, Note_off_c, 2, 55, 0
3, 309600, Note_off_c, 2, 48, 0
3, 309600, Note_on_c, 2, 48, 78
3, 309600, Note_on_c, 2, 55, 78
3, 309600, Note_on_c, 2, 60, 78
3, 309600, Note_on_c, 2, 64, 78
3, 309600, Note_on_c, 2, 67, 78
3, 309600, Note_on_c, 2, 72, 78
3, 309960, Note_off_c, 2, 72, 0
3, 309960, Note_off_c, 2, 67, 0
3, 309960, Note_off_c, 2, 64, 0
3, 309960, Note_off_c, 2, 60, 0
3, 309960, Note_off_c, 2, 55, 0
3, 309960, Note_off_c, 2, 48, 0
3, 309960, Note_on_c, 2, 48, 78
3, 309960, Note_on_c, 2, 55, 78
3, 309960, Note_on_c, 2, 60, 78
3, 309960, Note_on_c, 2, 64, 78
3, 309960, Note_on_c, 2, 67, 78
3, 309960, Note_on_c, 2, 72, 78
3, 310320, Note_off_c, 2, 72, 0
3, 310320, Note_off_c, 2, 67, 0
3, 310320, Note_off_c, 2, 64, 0
3, 310320, Note_off_c, 2, 60, 0
3, 310320, Note_off_c, 2, 55, 0
3, 310320, Note_off_c, 2, 48, 0
3, 310320, Note_on_c, 2, 48, 78
3, 310320, Note_on_c, 2, 55, 78
3, 310320, Note_on_c, 2, 60, 78
3, 310320, Note_on_c, 2, 64, 78
3, 310320, Note_on_c, 2, 67, 78
3, 310320, Note_on_c, 2, 72, 78
3, 310680, Note_off_c, 2, 72, 0
3, 310680, Note_off_c, 2, 67, 0
3, 310680, Note_off_c, 2, 64, 0
3, 310680, Note_off_c, 2, 60, 0
3, 310680, Note_off_c, 2, 55, 0
3, 310680, Note_off_c, 2, 48, 0
3, 310680, Note_on_c, 2, 48, 78
3, 310680, Note_on_c, 2, 55, 78
3, 310680, Note_on_c, 2, 60, 78
3, 310680, Note_on_c, 2, 64, 78
3, 310680, Note_on_c, 2, 67, 78
3, 310680, Note_on_c, 2, 72, 78
3, 311040, Note_off_c, 2, 72, 0
3, 311040, Note_off_c, 2, 67, 0
3, 311040, Note_off_c, 2, 64, 0
3, 311040, Note_off_c, 2, 60, 0
3, 311040, Note_off_c, 2, 55, 0
3, 311040, Note_off_c, 2, 48, 0
3, 311040, Note_on_c, 2, 48, 78
3, 311040, Note_on_c, 2, 55, 78
3, 311040, Note_on_c, 2, 60, 78
3, 311040, Note_on_c, 2, 64, 78
3, 311040, Note_on_c, 2, 67, 78
3, 311040, Note_on_c, 2, 72, 78
3, 311400, Note_off_c, 2, 72, 0
3, 311400, Note_off_c, 2, 67, 0
3, 311400, Note_off_c, 2, 64, 0
3, 311400, Note_off_c, 2, 60, 0
3, 311400, Note_off_c, 2, 55, 0
3, 311400, Note_off_c, 2, 48, 0
3, 311400, Note_on_c, 2, 48, 78
3, 311400, Note_on_c, 2, 55, 78
3, 311400, Note_on_c, 2, 60, 78
3, 311400, Note_on_c, 2, 64, 78
3, 311400, Note_on_c, 2, 67, 78
3, 311400, Note_on_c, 2, 72, 78
3, 311760, Note_off_c, 2, 72, 0
3, 311760, Note_off_c, 2, 67, 0
3, 311760, Note_off_c, 2, 64, 0
3, 311760, Note_off_c, 2, 60, 0
3, 311760, Note_off_c, 2, 55, 0
3, 311760, Note_off_c, 2, 48, 0
3, 311760, Note_on_c, 2, 48, 78
3, 311760, Note_on_c, 2, 55, 78
3, 311760, Note_on_c, 2, 60, 78
3, 311760, Note_on_c, 2, 64, 78
3, 311760, Note_on_c, 2, 67, 78
3, 311760, Note_on_c, 2, 72, 78
3, 312120, Note_off_c, 2, 72, 0
3, 312120, Note_off_c, 2, 67, 0
3, 312120, Note_off_c, 2, 64, 0
3, 312120, Note_off_c, 2, 60, 0
3, 312120, Note_off_c, 2, 55, 0
3, 312120, Note_off_c, 2, 48, 0
3, 312120, Note_on_c, 2, 48, 78
3, 312120, Note_on_c, 2, 55, 78
3, 312120, Note_on_c, 2, 60, 78
3, 312120, Note_on_c, 2, 64, 78
3, 312120, Note_on_c, 2, 67, 78
3, 312120, Note_on_c, 2, 72, 78
3, 312480, Note_off_c, 2, 72, 0
3, 312480, Note_off_c, 2, 67, 0
3, 312480, Note_off_c, 2, 64, 0
3, 312480, Note_off_c, 2, 60, 0
3, 312480, Note_off_c, 2, 55, 0
3, 312480, Note_off_c, 2, 48, 0
3, 312480, Note_on_c, 2, 48, 78
3, 312480, Note_on_c, 2, 55, 78
3, 312480, Note_on_c, 2, 60, 78
3, 312480, Note_on_c, 2, 64, 78
3, 312480, Note_on_c, 2, 67, 78
3, 312480, Note_on_c, 2, 72, 78
3, 312840, Note_off_c, 2, 72, 0
3, 312840, Note_off_c, 2, 67, 0
3, 312840, Note_off_c, 2, 64, 0
3, 312840, Note_off_c, 2, 60, 0
3, 312840, Note_off_c, 2, 55, 0
3, 312840, Note_off_c, 2, 48, 0
3, 312840, Note_on_c, 2, 48, 78
3, 312840, Note_on_c, 2, 55, 78
3, 312840, Note_on_c, 2, 60, 78
3, 312840, Note_on_c, 2, 64, 78
3, 312840, Note_on_c, 2, 67, 78
3, 312840, Note_on_c, 2, 72, 78
3, 313200, Note_off_c, 2, 72, 0
3, 313200, Note_off_c, 2, 67, 0
3, 313200, Note_off_c, 2, 64, 0
3, 313200, Note_off_c, 2, 60, 0
3, 313200, Note_off_c, 2, 55, 0
3, 313200, Note_off_c, 2, 48, 0
3, 313200, Note_on_c, 2, 48, 78
3, 313200, Note_on_c, 2, 55, 78
3, 313200, Note_on_c, 2, 60, 78
3, 313200, Note_on_c, 2, 64, 78
3, 313200, Note_on_c, 2, 67, 78
3, 313200, Note_on_c, 2, 72, 78
3, 313560, Note_off_c, 2, 72, 0
3, 313560, Note_off_c, 2, 67, 0
3, 313560, Note_off_c, 2, 64, 0
3, 313560, Note_off_c, 2, 60, 0
3, 313560, Note_off_c, 2, 55, 0
3, 313560, Note_off_c, 2, 48, 0
3, 313560, Note_on_c, 2, 48, 78
3, 313560, Note_on_c, 2, 55, 78
3, 313560, Note_on_c, 2, 60, 78
3, 313560, Note_on_c, 2, 64, 78
3, 313560, Note_on_c, 2, 67, 78
3, 313560, Note_on_c, 2, 72, 78
3, 313920, Note_off_c, 2, 72, 0
3, 313920, Note_off_c, 2, 67, 0
3, 313920, Note_off_c, 2, 64, 0
3, 313920, Note_off_c, 2, 60, 0
3, 313920, Note_off_c, 2, 55, 0
3, 313920, Note_off_c, 2, 48, 0
3, 313920, Note_on_c, 2, 41, 78
3, 313920, Note_on_c, 2, 48, 78
3, 313920, Note_on_c, 2, 53, 78
3, 313920, Note_on_c, 2, 57, 78
3, 313920, Note_on_c, 2, 60, 78
3, 313920, Note_on_c, 2, 65, 78
3, 314280, Note_off_c, 2, 65, 0
3, 314280, Note_off_c, 2, 60, 0
3, 314280, Note_off_c, 2, 57, 0
3, 314280, Note_off_c, 2, 53, 0
3, 314280, Note_off_c, 2, 48, 0
3, 314280, Note_off_c, 2, 41, 0
3, 314280, Note_on_c, 2, 41, 78
3, 314280, Note_on_c, 2, 48, 78
3, 314280, Note_on_c, 2, 53, 78
3, 314280, Note_on_c, 2, 57, 78
3, 314280, Note_on_c, 2, 60, 78
3, 314280, Note_on_c, 2, 65, 78
3, 314640, Note_off_c, 2, 65, 0
3, 314640, Note_off_c, 2, 60, 0
3, 314640, Note_off_c, 2, 57, 0
3, 314640, Note_off_c, 2, 53, 0
3, 314640, Note_off_c, 2, 48, 0
3, 314640, Note_off_c, 2, 41, 0
3, 314640, Note_on_c, 2, 41, 78
3, 314640, Note_on_c, 2, 48, 78
3, 314640, Note_on_c, 2, 53, 78
3, 314640, Note_on_c, 2, 57, 78
3, 314640, Note_on_c, 2, 60, 78
3, 314640, Note_on_c, 2, 65, 78
3, 315000, Note_off_c, 2, 65, 0
3, 315000, Note_off_c, 2, 60, 0
3, 315000, Note_off_c, 2, 57, 0
3, 315000, Note_off_c, 2, 53, 0
3, 315000, Note_off_c, 2, 48, 0
3, 315000, Note_off_c, 2, 41, 0
3, 315000, Note_on_c, 2, 41, 78
3, 315000, Note_on_c, 2, 48, 78
3, 315000, Note_on_c, 2, 53, 78
3, 315000, Note_on_c, 2, 57, 78
3, 315000, Note_on_c, 2, 60, 78
3, 315000, Note_on_c, 2, 65, 78
3, 315360, Note_off_c, 2, 65, 0
3, 315360, Note_off_c, 2, 60, 0
3, 315360, Note_off_c, 2, 57, 0
3, 315360, Note_off_c, 2, 53, 0
3, 315360, Note_off_c, 2, 48, 0
3, 315360, Note_off_c, 2, 41, 0
3, 315360, Note_on_c, 2, 41, 78
3, 315360, Note_on_c, 2, 48, 78
3, 315360, Note_on_c, 2, 53, 78
3, 315360, Note_on_c, 2, 57, 78
3, 315360, Note_on_c, 2, 60, 78
3, 315360, Note_on_c, 2, 65, 78
3, 315720, Note_off_c, 2, 65, 0
3, 315720, Note_off_c, 2, 60, 0
3, 315720, Note_off_c, 2, 57, 0
3, 315720, Note_off_c, 2, 53, 0
3, 315720, Note_off_c, 2, 48, 0
3, 315720, Note_off_c, 2, 41, 0
3, 315720, Note_on_c, 2, 41, 78
3, 315720, Note_on_c, 2, 48, 78
3, 315720, Note_on_c, 2, 53, 78
3, 315720, Note_on_c, 2, 57, 78
3, 315720, Note_on_c, 2, 60, 78
3, 315720, Note_on_c, 2, 65, 78
3, 316080, Note_off_c, 2, 65, 0
3, 316080, Note_off_c, 2, 60, 0
3, 316080, Note_off_c, 2, 57, 0
3, 316080, Note_off_c, 2, 53, 0
3, 316080, Note_off_c, 2, 48, 0
3, 316080, Note_off_c, 2, 41, 0
3, 316080, Note_on_c, 2, 41, 78
3, 316080, Note_on_c, 2, 48, 78
3, 316080, Note_on_c, 2, 53, 78
3, 316080, Note_on_c, 2, 57, 78
3, 316080, Note_on_c, 2, 60, 78
3, 316080, Note_on_c, 2, 65, 78
3, 316440, Note_off_c, 2, 65, 0
3, 316440, Note_off_c, 2, 60, 0
3, 316440, Note_off_c, 2, 57, 0
3, 316440, Note_off_c, 2, 53, 0
3, 316440, Note_off_c, 2, 48, 0
3, 316440, Note_off_c, 2, 41, 0
3, 316440, Note_on_c, 2, 41, 78
3, 316440, Note_on_c, 2, 48, 78
3, 316440, Note_on_c, 2, 53, 78
3, 316440, Note_on_c, 2, 57, 78
3, 316440, Note_on_c, 2, 60, 78
3, 316440, Note_on_c, 2, 65, 78
3, 316800, Note_off_c, 2, 65, 0
3, 316800, Note_off_c, 2, 60, 0
3, 316800, Note_off_c, 2, 57, 0
3, 316800, Note_off_c, 2, 53, 0
3, 316800, Note_off_c, 2, 48, 0
3, 316800, Note_off_c, 2, 41, 0
3, 316800, Note_on_c, 2, 41, 78
3, 316800, Note_on_c, 2, 48, 78
3, 316800, Note_on_c, 2, 53, 78
3, 316800, Note_on_c, 2, 57, 78
3, 316800, Note_on_c, 2, 60, 78
3, 316800, Note_on_c, 2, 65, 78
3, 317160, Note_off_c, 2, 65, 0
3, 317160, Note_off_c, 2, 60, 0
3, 317160, Note_off_c, 2, 57, 0
3, 317160, Note_off_c, 2, 53, 0
3, 317160, Note_off_c, 2, 48, 0
3, 317160, Note_off_c, 2, 41, 0
3, 317160, Note_on_c, 2, 41, 78
3, 317160, Note_on_c, 2, 48, 78
3, 317160, Note_on_c, 2, 53, 78
3, 317160, Note_on_c, 2, 57, 78
3, 317160, Note_on_c, 2, 60, 78
3, 317160, Note_on_c, 2, 65, 78
3, 317520, Note_off_c, 2, 65, 0
3, 317520, Note_off_c, 2, 60, 0
3, 317520, Note_off_c, 2, 57, 0
3, 317520, Note_off_c, 2, 53, 0
3, 317520, Note_off_c, 2, 48, 0
3, 317520, Note_off_c, 2, 41, 0
3, 317520, Note_on_c, 2, 41, 78
3, 317520, Note_on_c, 2, 48, 78
3, 317520, Note_on_c, 2, 53, 78
3, 317520, Note_on_c, 2, 57, 78
3, 317520, Note_on_c, 2, 60, 78
3, 317520, Note_on_c, 2, 65, 78
3, 317880, Note_off_c, 2, 65, 0
3, 317880, Note_off_c, 2, 60, 0
3, 317880, Note_off_c, 2, 57, 0
3, 317880, Note_off_c, 2, 53, 0
3, 317880, Note_off_c, 2, 48, 0
3, 317880, Note_off_c, 2, 41, 0
3, 317880, Note_on_c, 2, 41, 78
3, 317880, Note_on_c, 2, 48, 78
3, 317880, Note_on_c, 2, 53, 78
3, 317880, Note_on_c, 2, 57, 78
3, 317880, Note_on_c, 2, 60, 78
3, 317880, Note_on_c, 2, 65, 78
3, 318240, Note_off_c, 2, 65, 0
3, 318240, Note_off_c, 2, 60, 0
3, 318240, Note_off_c, 2, 57, 0
3, 318240, Note_off_c, 2, 53, 0
3, 318240, Note_off_c, 2, 48, 0
3, 318240, Note_off_c, 2, 41, 0
3, 318240, Note_on_c, 2, 41, 78
3, 318240, Note_on_c, 2, 48, 78
3, 318240, Note_on_c, 2, 53, 78
3, 318240, Note_on_c, 2, 57, 78
3, 318240, Note_on_c, 2, 60, 78
3, 318240, Note_on_c, 2, 65, 78
3, 318600, Note_off_c, 2, 65, 0
3, 318600, Note_off_c, 2, 60, 0
3, 318600, Note_off_c, 2, 57, 0
3, 318600, Note_off_c, 2, 53, 0
3, 318600, Note_off_c, 2, 48, 0
3, 318600, Note_off_c, 2, 41, 0
3, 318600, Note_on_c, 2, 41, 78
3, 318600, Note_on_c, 2, 48, 78
3, 318600, Note_on_c, 2, 53, 78
3, 318600, Note_on_c, 2, 57, 78
3, 318600, Note_on_c, 2, 60, 78
3, 318600, Note_on_c, 2, 65, 78
3, 318960, Note_off_c, 2, 65, 0
3, 318960, Note_off_c, 2, 60, 0
3, 318960, Note_off_c, 2, 57, 0
3, 318960, Note_off_c, 2, 53, 0
3, 318960, Note_off_c, 2, 48, 0
3, 318960, Note_off_c, 2, 41, 0
3, 318960, Note_on_c, 2, 41, 78
3, 318960, Note_on_c, 2, 48, 78
3, 318960, Note_on_c, 2, 53, 78
3, 318960, Note_on_c, 2, 57, 78
3, 318960, Note_on_c, 2, 60, 78
3, 318960, Note_on_c, 2, 65, 78
3, 319320, Note_off_c, 2, 65, 0
3, 319320, Note_off_c, 2, 60, 0
3, 319320, Note_off_c, 2, 57, 0
3, 319320, Note_off_c, 2, 53, 0
3, 319320, Note_off_c, 2, 48, 0
3, 319320, Note_off_c, 2, 41, 0
3, 319320, Note_on_c, 2, 41, 78
3, 319320, Note_on_c, 2, 48, 78
3, 319320, Note_on_c, 2, 53, 78
3, 319320, Note_on_c, 2, 57, 78
3, 319320, Note_on_c, 2, 60, 78
3, 319320, Note_on_c, 2, 65, 78
3, 319680, Note_off_c, 2, 65, 0
3, 319680, Note_off_c, 2, 60, 0
3, 319680, Note_off_c, 2, 57, 0
3, 319680, Note_off_c, 2, 53, 0
3, 319680, Note_off_c, 2, 48, 0
3, 319680, Note_off_c, 2, 41, 0
3, 319680, Note_on_c, 2, 43, 78
3, 319680, Note_on_c, 2, 50, 78
3, 319680, Note_on_c, 2, 55, 78
3, 319680, Note_on_c, 2, 59, 78
3, 319680, Note_on_c, 2, 62, 78
3, 319680, Note_on_c, 2, 67, 78
3, 320040, Note_off_c, 2, 67, 0
3, 320040, Note_off_c, 2, 62, 0
3, 320040, Note_off_c, 2, 59, 0
3, 320040, Note_off_c, 2, 55, 0
3, 320040, Note_off_c, 2, 50, 0
3, 320040, Note_off_c, 2, 43, 0
3, 320040, Note_on_c, 2, 43, 78
3, 320040, Note_on_c, 2, 50, 78
3, 320040, Note_on_c, 2, 55, 78
3, 320040, Note_on_c, 2, 59, 78
3, 320040, Note_on_c, 2, 62, 78
3, 320040, Note_on_c, 2, 67, 78
3, 320400, Note_off_c, 2, 67, 0
3, 320400, Note_off_c, 2, 62, 0
3, 320400, Note_off_c, 2, 59, 0
3, 320400, Note_off_c, 2, 55, 0
3, 320400, Note_off_c, 2, 50, 0
3, 320400, Note_off_c, 2, 43, 0
3, 320400, Note_on_c, 2, 43, 78
3, 320400, Note_on_c, 2, 50, 78
3, 320400, Note_on_c, 2, 55, 78
3, 320400, Note_on_c, 2, 59, 78
3, 320400, Note_on_c, 2, 62, 78
3, 320400, Note_on_c, 2, 67, 78
3, 320760, Note_off_c, 2, 67, 0
3, 320760, Note_off_c, 2, 62, 0
3, 320760, Note_off_c, 2, 59, 0
3, 320760, Note_off_c, 2, 55, 0
3, 320760, Note_off_c, 2, 50, 0
3, 320760, Note_off_c, 2, 43, 0
3, 320760, Note_on_c, 2, 43, 78
3, 320760, Note_on_c, 2, 50, 78
3, 320760, Note_on_c, 2, 55, 78
3, 320760, Note_on_c, 2, 59, 78
3, 320760, Note_on_c, 2, 62, 78
3, 320760, Note_on_c, 2, 67, 78
3, 321120, Note_off_c, 2, 67, 0
3, 321120, Note_off_c, 2, 62, 0
3, 321120, Note_off_c, 2, 59, 0
3, 321120, Note_off_c, 2, 55, 0
3, 321120, Note_off_c, 2, 50, 0
3, 321120, Note_off_c, 2, 43, 0
3, 321120, Note_on_c, 2, 43, 78
3, 321120, Note_on_c, 2, 50, 78
3, 321120, Note_on_c, 2, 55, 78
3, 321120, Note_on_c, 2, 59, 78
3, 321120, Note_on_c, 2, 62, 78
3, 321120, Note_on_c, 2, 67, 78
3, 321480, Note_off_c, 2, 67, 0
3, 321480, Note_off_c, 2, 62, 0
3, 321480, Note_off_c, 2, 59, 0
3, 321480, Note_off_c, 2, 55, 0
3, 321480, Note_off_c, 2, 50, 0
3, 321480, Note_off_c, 2, 43, 0
3, 321480, Note_on_c, 2, 43, 78
3, 321480, Note_on_c, 2, 50, 78
3, 321480, Note_on_c, 2, 55, 78
3, 321480, Note_on_c, 2, 59, 78
3, 321480, Note_on_c, 2, 62, 78
3, 321480, Note_on_c, 2, 67, 78
3, 321840, Note_off_c, 2, 67, 0
3, 321840, Note_off_c, 2, 62, 0
3, 321840, Note_off_c, 2, 59, 0
3, 321840, Note_off_c, 2, 55, 0
3, 321840, Note_off_c, 2, 50, 0
3, 321840, Note_off_c, 2, 43, 0
3, 321840, Note_on_c, 2, 43, 78
3, 321840, Note_on_c, 2, 50, 78
3, 321840, Note_on_c, 2, 55, 78
3, 321840, Note_on_c, 2, 59, 78
3, 321840, Note_on_c, 2, 62, 78
3, 321840, Note_on_c, 2, 67, 78
3, 322200, Note_off_c, 2, 67, 0
3, 322200, Note_off_c, 2, 62, 0
3, 322200, Note_off_c, 2, 59, 0
3, 322200, Note_off_c, 2, 55, 0
3, 322200, Note_off_c, 2, 50, 0
3, 322200, Note_off_c, 2, 43, 0
3, 322200, Note_on_c, 2, 43, 78
3, 322200, Note_on_c, 2, 50, 78
3, 322200, Note_on_c, 2, 55, 78
3, 322200, Note_on_c, 2, 59, 78
3, 322200, Note_on_c, 2, 62, 78
3, 322200, Note_on_c, 2, 67, 78
3, 322560, Note_off_c, 2, 67, 0
3, 322560, Note_off_c, 2, 62, 0
3, 322560, Note_off_c, 2, 59, 0
3, 322560, Note_off_c, 2, 55, 0
3, 322560, Note_off_c, 2, 50, 0
3, 322560, Note_off_c, 2, 43, 0
3, 322560, Note_on_c, 2, 43, 78
3, 322560, Note_on_c, 2, 50, 78
3, 322560, Note_on_c, 2, 55, 78
3, 322560, Note_on_c, 2, 59, 78
3, 322560, Note_on_c, 2, 62, 78
3, 322560, Note_on_c, 2, 67, 78
3, 322920, Note_off_c, 2, 67, 0
3, 322920, Note_off_c, 2, 62, 0
3, 322920, Note_off_c, 2, 59, 0
3, 322920, Note_off_c, 2, 55, 0
3, 322920, Note_off_c, 2, 50, 0
3, 322920, Note_off_c, 2, 43, 0
3, 322920, Note_on_c, 2, 43, 78
3, 322920, Note_on_c, 2, 50, 78
3, 322920, Note_on_c, 2, 55, 78
3, 322920, Note_on_c, 2, 59, 78
3, 322920, Note_on_c, 2, 62, 78
3, 322920, Note_on_c, 2, 67, 78
3, 323280, Note_off_c, 2, 67, 0
3, 323280, Note_off_c, 2, 62, 0
3, 323280, Note_off_c, 2, 59, 0
3, 323280, Note_off_c, 2, 55, 0
3, 323280, Note_off_c, 2, 50, 0
3, 323280, Note_off_c, 2, 43, 0
3, 323280, Note_on_c, 2, 43, 78
3, 323280, Note_on_c, 2, 50, 78
3, 323280, Note_on_c, 2, 55, 78
3, 323280, Note_on_c, 2, 59, 78
3, 323280, Note_on_c, 2, 62, 78
3, 323280, Note_on_c, 2, 67, 78
3, 323640, Note_off_c, 2, 67, 0
3, 323640, Note_off_c, 2, 62, 0
3, 323640, Note_off_c, 2, 59, 0
3, 323640, Note_off_c, 2, 55, 0
3, 323640, Note_off_c, 2, 50, 0
3, 323640, Note_off_c, 2, 43, 0
3, 323640, Note_on_c, 2, 43, 78
3, 323640, Note_on_c, 2, 50, 78
3, 323640, Note_on_c, 2, 55, 78
3, 323640, Note_on_c, 2, 59, 78
3, 323640, Note_on_c, 2, 62, 78
3, 323640, Note_on_c, 2, 67, 78
3, 324000, Note_off_c, 2, 67, 0
3, 324000, Note_off_c, 2, 62, 0
3, 324000, Note_off_c, 2, 59, 0
3, 324000, Note_off_c, 2, 55, 0
3, 324000, Note_off_c, 2, 50, 0
3, 324000, Note_off_c, 2, 43, 0
3, 324000, Note_on_c, 2, 46, 78
3, 324000, Note_on_c, 2, 53, 78
3, 324000, Note_on_c, 2, 58, 78
3, 324000, Note_on_c, 2, 62, 78
3, 324000, Note_on_c, 2, 65, 78
3, 324000, Note_on_c, 2, 70, 78
3, 324360, Note_off_c, 2, 70, 0
3, 324360, Note_off_c, 2, 65, 0
3, 324360, Note_off_c, 2, 62, 0
3, 324360, Note_off_c, 2, 58, 0
3, 324360, Note_off_c, 2, 53, 0
3, 324360, Note_off_c, 2, 46, 0
3, 324360, Note_on_c, 2, 46, 78
3, 324360, Note_on_c, 2, 53, 78
3, 324360, Note_on_c, 2, 58, 78
3, 324360, Note_on_c, 2, 62, 78
3, 324360, Note_on_c, 2, 65, 78
3, 324360, Note_on_c, 2, 70, 78
3, 324720, Note_off_c, 2, 70, 0
3, 324720, Note_off_c, 2, 65, 0
3, 324720, Note_off_c, 2, 62, 0
3, 324720, Note_off_c, 2, 58, 0
3, 324720, Note_off_c, 2, 53, 0
3, 324720, Note_off_c, 2, 46, 0
3, 324720, Note_on_c, 2, 46, 78
3, 324720, Note_on_c, 2, 53, 78
3, 324720, Note_on_c, 2, 58, 78
3, 324720, Note_on_c, 2, 62, 78
3, 324720, Note_on_c, 2, 65, 78
3, 324720, Note_on_c, 2, 70, 78
3, 325080, Note_off_c, 2, 70, 0
3, 325080, Note_off_c, 2, 65, 0
3, 325080, Note_off_c, 2, 62, 0
3, 325080, Note_off_c, 2, 58, 0
3, 325080, Note_off_c, 2, 53, 0
3, 325080, Note_off_c, 2, 46, 0
3, 325080, Note_on_c, 2, 46, 78
3, 325080, Note_on_c, 2, 53, 78
3, 325080, Note_on_c, 2, 58, 78
3, 325080, Note_on_c, 2, 62, 78
3, 325080, Note_on_c, 2, 65, 78
3, 325080, Note_on_c, 2, 70, 78
3, 325440, Note_off_c, 2, 70, 0
3, 325440, Note_off_c, 2, 65, 0
3, 325440, Note_off_c, 2, 62, 0
3, 325440, Note_off_c, 2, 58, 0
3, 325440, Note_off_c, 2, 53, 0
3, 325440, Note_off_c, 2, 46, 0
3, 325440, End_track
4, 0, Start_track
4, 0, Control_c, 4, 7, 127
4, 0, Program_c, 4, 29
4, 0, Control_c, 4, 101, 0
4, 0, Control_c, 4, 100, 0
4, 0, Control_c, 4, 6, 24
4, 0, Control_c, 5, 7, 127
4, 0, Program_c, 5, 29
4, 0, Control_c, 5, 101, 0
4, 0, Control_c, 5, 100, 0
4, 0, Control_c, 5, 6, 24
4, 69120, Note_on_c, 4, 43, 78
4, 69120, Note_on_c, 4, 48, 78
4, 69120, Note_on_c, 4, 52, 78
4, 69120, Note_on_c, 4, 55, 78
4, 69120, Note_on_c, 4, 60, 78
4, 69120, Note_on_c, 4, 64, 78
4, 69840, Note_off_c, 4, 64, 0
4, 69840, Note_off_c, 4, 60, 0
4, 69840, Note_off_c, 4, 55, 0
4, 69840, Note_off_c, 4, 52, 0
4, 69840, Note_off_c, 4, 48, 0
4, 69840, Note_off_c, 4, 43, 0
4, 69840, Note_on_c, 4, 43, 78
4, 69840, Note_on_c, 4, 48, 78
4, 69840, Note_on_c, 4, 52, 78
4, 69840, Note_on_c, 4, 55, 78
4, 69840, Note_on_c, 4, 60, 78
4, 69840, Note_on_c, 4, 64, 78
4, 70380, Note_off_c, 4, 64, 0
4, 70380, Note_off_c, 4, 60, 0
4, 70380, Note_off_c, 4, 55, 0
4, 70380, Note_off_c, 4, 52, 0
4, 70380, Note_off_c, 4, 48, 0
4, 70380, Note_off_c, 4, 43, 0
4, 70380, Note_on_c, 4, 55, 78
4, 70380, Note_on_c, 4, 60, 78
4, 70380, Note_on_c, 4, 64, 78
4, 70560, Note_off_c, 4, 64, 0
4, 70560, Note_off_c, 4, 60, 0
4, 70560, Note_off_c, 4, 55, 0
4, 70560, Note_on_c, 4, 43, 78
4, 70560, Note_on_c, 4, 48, 78
4, 70560, Note_on_c, 4, 52, 78
4, 70560, Note_on_c, 4, 55, 78
4, 70560, Note_on_c, 4, 60, 78
4, 70560, Note_on_c, 4, 64, 78
4, 70920, Note_off_c, 4, 64, 0
4, 70920, Note_off_c, 4, 60, 0
4, 70920, Note_off_c, 4, 55, 0
4, 70920, Note_off_c, 4, 52, 0
4, 70920, Note_off_c, 4, 48, 0
4, 70920, Note_off_c, 4, 43, 0
4, 70920, Note_on_c, 4, 52, 78
4, 70920, Note_on_c, 4, 55, 78
4, 70920, Note_on_c, 4, 60, 78
4, 70920, Note_on_c, 4, 64, 78
4, 71280, Note_off_c, 4, 64, 0
4, 71280, Note_off_c, 4, 60, 0
4, 71280, Note_off_c, 4, 55, 0
4, 71280, Note_off_c, 4, 52, 0
4, 71280, Note_on_c, 4, 52, 78
4, 71280, Note_on_c, 4, 55, 78
4, 71280, Note_on_c, 4, 60, 78
4, 71280, Note_on_c, 4, 64, 78
4, 71460, Note_off_c, 4, 64, 0
4, 71460, Note_off_c, 4, 60, 0
4, 71460, Note_off_c, 4, 55, 0
4, 71460, Note_off_c, 4, 52, 0
4, 71460, Note_on_c, 4, 52, 78
4, 71460, Note_on_c, 4, 55, 78
4, 71460, Note_on_c, 4, 60, 78
4, 71460, Note_on_c, 4, 64, 78
4, 71640, Note_off_c, 4, 64, 0
4, 71640, Note_off_c, 4, 60, 0
4, 71640, Note_off_c, 4, 55, 0
4, 71640, Note_off_c, 4, 52, 0
4, 71640, Note_on_c, 4, 47, 78
4, 71640, Note_on_c, 4, 54, 78
4, 71640, Note_on_c, 4, 59, 78
4, 71640, Note_on_c, 4, 62, 78
4, 71640, Note_on_c, 4, 66, 78
4, 72360, Note_off_c, 4, 66, 0
4, 72360, Note_off_c, 4, 62, 0
4, 72360, Note_off_c, 4, 59, 0
4, 72360, Note_off_c, 4, 54, 0
4, 72360, Note_off_c, 4, 47, 0
4, 72360, Note_on_c, 4, 47, 78
4, 72720, Note_off_c, 4, 47, 0
4, 72720, Note_on_c, 4, 47, 78
4, 72720, Note_on_c, 4, 54, 78
4, 72720, Note_on_c, 4, 59, 78
4, 72720, Note_on_c, 4, 62, 78
4, 72720, Note_on_c, 4, 66, 78
4, 73260, Note_off_c, 4, 66, 0
4, 73260, Note_off_c, 4, 62, 0
4, 73260, Note_off_c, 4, 59, 0
4, 73260, Note_off_c, 4, 54, 0
4, 73260, Note_off_c, 4, 47, 0
4, 73260, Note_on_c, 4, 59, 78
4, 73260, Note_on_c, 4, 62, 78
4, 73260, Note_on_c, 4, 66, 78
4, 73440, Note_off_c, 4, 66, 0
4, 73440, Note_off_c, 4, 62, 0
4, 73440, Note_off_c, 4, 59, 0
4, 73440, Note_on_c, 4, 47, 78
4, 73440, Note_on_c, 4, 54, 78
4, 73440, Note_on_c, 4, 59, 78
4, 73440, Note_on_c, 4, 62, 78
4, 73440, Note_on_c, 4, 66, 78
4, 73800, Note_off_c, 4, 66, 0
4, 73800, Note_off_c, 4, 62, 0
4, 73800, Note_off_c, 4, 59, 0
4, 73800, Note_off_c, 4, 54, 0
4, 73800, Note_off_c, 4, 47, 0
4, 73800, Note_on_c, 4, 54, 78
4, 73800, Note_on_c, 4, 59, 78
4, 73800, Note_on_c, 4, 62, 78
4, 73800, Note_on_c, 4, 66, 78
4, 74160, Note_off_c, 4, 66, 0
4, 74160, Note_off_c, 4, 62, 0
4, 74160, Note_off_c, 4, 59, 0
4, 74160, Note_off_c, 4, 54, 0
4, 74160, Note_on_c, 4, 59, 78
4, 74340, Note_off_c, 4, 59, 0
4, 74340, Note_on_c, 4, 60, 78
4, 74520, Note_off_c, 4, 60, 0
4, 74520, Note_on_c, 4, 59, 78
4, 74700, Note_off_c, 4, 59, 0
4, 74700, Note_on_c, 4, 60, 78
4, 74880, Note_off_c, 4, 60, 0
4, 74880, Note_on_c, 4, 45, 78
4, 74880, Note_on_c, 4, 52, 78
4, 74880, Note_on_c, 4, 57, 78
4, 74880, Note_on_c, 4, 60, 78
4, 74880, Note_on_c, 4, 64, 78
4, 75600, Note_off_c, 4, 64, 0
4, 75600, Note_off_c, 4, 60, 0
4, 75600, Note_off_c, 4, 57, 0
4, 75600, Note_off_c, 4, 52, 0
4, 75600, Note_off_c, 4, 45, 0
4, 75600, Note_on_c, 4, 45, 78
4, 75600, Note_on_c, 4, 52, 78
4, 75600, Note_on_c, 4, 57, 78
4, 75600, Note_on_c, 4, 60, 78
4, 75600, Note_on_c, 4, 64, 78
4, 75600, Note_on_c, 4, 69, 78
4, 76140, Note_off_c, 4, 69, 0
4, 76140, Note_off_c, 4, 64, 0
4, 76140, Note_off_c, 4, 60, 0
4, 76140, Note_off_c, 4, 57, 0
4, 76140, Note_off_c, 4, 52, 0
4, 76140, Note_off_c, 4, 45, 0
4, 76140, Note_on_c, 4, 57, 78
4, 76140, Note_on_c, 4, 60, 78
4, 76140, Note_on_c, 4, 64, 78
4, 76140, Note_on_c, 4, 69, 78
4, 76320, Note_off_c, 4, 69, 0
4, 76320, Note_off_c, 4, 64, 0
4, 76320, Note_off_c, 4, 60, 0
4, 76320, Note_off_c, 4, 57, 0
4, 76320, Note_on_c, 4, 45, 78
4, 76320, Note_on_c, 4, 52, 78
4, 76320, Note_on_c, 4, 57, 78
4, 76320, Note_on_c, 4, 60, 78
4, 76320, Note_on_c, 4, 64, 78
4, 76680, Note_off_c, 4, 64, 0
4, 76680, Note_off_c, 4, 60, 0
4, 76680, Note_off_c, 4, 57, 0
4, 76680, Note_off_c, 4, 52, 0
4, 76680, Note_off_c, 4, 45, 0
4, 76680, Note_on_c, 4, 45, 78
4, 76680, Note_on_c, 4, 57, 78
4, 76860, Note_off_c, 4, 57, 0
4, 76860, Note_off_c, 4, 45, 0
4, 76860, Note_on_c, 4, 45, 78
4, 76860, Note_on_c, 4, 57, 78
4, 77040, Note_off_c, 4, 57, 0
4, 77040, Note_off_c, 4, 45, 0
4, 77040, Note_on_c, 4, 43, 78
4, 77040, Note_on_c, 4, 55, 78
4, 77220, Note_off_c, 4, 55, 0
4, 77220, Note_off_c, 4, 43, 0
4, 77220, Note_on_c, 4, 43, 78
4, 77220, Note_on_c, 4, 55, 78
4, 77400, Note_off_c, 4, 55, 0
4, 77400, Note_off_c, 4, 43, 0
4, 77400, Note_on_c, 4, 41, 78
4, 77400, Note_on_c, 4, 48, 78
4, 77400, Note_on_c, 4, 53, 78
4, 77400, Note_on_c, 4, 57, 78
4, 77400, Note_on_c, 4, 60, 78
4, 77400, Note_on_c, 4, 65, 78
4, 78120, Note_off_c, 4, 65, 0
4, 78120, Note_off_c, 4, 60, 0
4, 78120, Note_off_c, 4, 57, 0
4, 78120, Note_off_c, 4, 53, 0
4, 78120, Note_off_c, 4, 48, 0
4, 78120, Note_off_c, 4, 41, 0
4, 78120, Note_on_c, 4, 41, 78
4, 78480, Note_off_c, 4, 41, 0
4, 78480, Note_on_c, 4, 41, 78
4, 78480, Note_on_c, 4, 48, 78
4, 78480, Note_on_c, 4, 53, 78
4, 78480, Note_on_c, 4, 57, 78
4, 78480, Note_on_c, 4, 60, 78
4, 78480, Note_on_c, 4, 65, 78
4, 79020, Note_off_c, 4, 65, 0
4, 79020, Note_off_c, 4, 60, 0
4, 79020, Note_off_c, 4, 57, 0
4, 79020, Note_off_c, 4, 53, 0
4, 79020, Note_off_c, 4, 48, 0
4, 79020, Note_off_c, 4, 41, 0
4, 79020, Note_on_c, 4, 53, 78
4, 79020, Note_on_c, 4, 57, 78
4, 79020, Note_on_c, 4, 60, 78
4, 79020, Note_on_c, 4, 65, 78
4, 79200, Note_off_c, 4, 65, 0
4, 79200, Note_off_c, 4, 60, 0
4, 79200, Note_off_c, 4, 57, 0
4, 79200, Note_off_c, 4, 53, 0
4, 79200, Note_on_c, 4, 41, 78
4, 79200, Note_on_c, 4, 48, 78
4, 79200, Note_on_c, 4, 53, 78
4, 79200, Note_on_c, 4, 57, 78
4, 79200, Note_on_c, 4, 60, 78
4, 79200, Note_on_c, 4, 65, 78
4, 79560, Note_off_c, 4, 65, 0
4, 79560, Note_off_c, 4, 60, 0
4, 79560, Note_off_c, 4, 57, 0
4, 79560, Note_off_c, 4, 53, 0
4, 79560, Note_off_c, 4, 48, 0
4, 79560, Note_off_c, 4, 41, 0
4, 79560, Note_on_c, 4, 45, 78
4, 79560, Note_on_c, 4, 57, 78
4, 79740, Note_off_c, 4, 57, 0
4, 79740, Note_off_c, 4, 45, 0
4, 79740, Note_on_c, 5, 45, 78
4, 79740, Note_on_c, 5, 57, 78
4, 79760, Pitch_bend_c, 5, 8112
4, 79780, Pitch_bend_c, 5, 8037
4, 79800, Pitch_bend_c, 5, 7962
4, 79820, Pitch_bend_c, 5, 7887
4, 79840, Pitch_bend_c, 5, 7812
4, 79860, Pitch_bend_c, 5, 7737
4, 79880, Pitch_bend_c, 5, 7662
4, 79900, Pitch_bend_c, 5, 7587
4, 79920, Pitch_bend_c, 5, 7512
4, 80100, Note_off_c, 5, 57, 0
4, 80100, Note_off_c, 5, 45, 0
4, 80100, Pitch_bend_c, 5, 8192
4, 80100, Note_on_c, 5, 45, 78
4, 80100, Note_on_c, 5, 57, 78
4, 80120, Pitch_bend_c, 5, 8112
4, 80140, Pitch_bend_c, 5, 8037
4, 80160, Pitch_bend_c, 5, 7962
4, 80180, Pitch_bend_c, 5, 7887
4, 80200, Pitch_bend_c, 5, 7812
4, 80220, Pitch_bend_c, 5, 7737
4, 80240, Pitch_bend_c, 5, 7662
4, 80260, Pitch_bend_c, 5, 7587
4, 80280, Pitch_bend_c, 5, 7512
4, 80460, Note_off_c, 5, 57, 0
4, 80460, Note_off_c, 5, 45, 0
4, 80460, Pitch_bend_c, 5, 8192
4, 80460, Note_on_c, 4, 45, 78
4, 80460, Note_on_c, 4, 57, 78
4, 80640, Note_off_c, 4, 57, 0
4, 80640, Note_off_c, 4, 45, 0
4, 80640, Note_on_c, 4, 45, 78
4, 80640, Note_on_c, 4, 52, 78
4, 80640, Note_on_c, 4, 57, 78
4, 80640, Note_on_c, 4, 60, 78
4, 80640, Note_on_c, 4, 64, 78
4, 81360, Note_off_c, 4, 64, 0
4, 81360, Note_off_c, 4, 60, 0
4, 81360, Note_off_c, 4, 57, 0
4, 81360, Note_off_c, 4, 52, 0
4, 81360, Note_off_c, 4, 45, 0
4, 81360, Note_on_c, 4, 45, 78
4, 81360, Note_on_c, 4, 52, 78
4, 81360, Note_on_c, 4, 57, 78
4, 81360, Note_on_c, 4, 60, 78
4, 81360, Note_on_c, 4, 64, 78
4, 81360, Note_on_c, 4, 69, 78
4, 81900, Note_off_c, 4, 69, 0
4, 81900, Note_off_c, 4, 64, 0
4, 81900, Note_off_c, 4, 60, 0
4, 81900, Note_off_c, 4, 57, 0
4, 81900, Note_off_c, 4, 52, 0
4, 81900, Note_off_c, 4, 45, 0
4, 81900, Note_on_c, 4, 57, 78
4, 81900, Note_on_c, 4, 60, 78
4, 81900, Note_on_c, 4, 64, 78
4, 81900, Note_on_c, 4, 69, 78
4, 82080, Note_off_c, 4, 69, 0
4, 82080, Note_off_c, 4, 64, 0
4, 82080, Note_off_c, 4, 60, 0
4, 82080, Note_off_c, 4, 57, 0
4, 82080, Note_on_c, 4, 45, 78
4, 82080, Note_on_c, 4, 52, 78
4, 82080, Note_on_c, 4, 57, 78
4, 82080, Note_on_c, 4, 60, 78
4, 82080, Note_on_c, 4, 64, 78
4, 82440, Note_off_c, 4, 64, 0
4, 82440, Note_off_c, 4, 60, 0
4, 82440, Note_off_c, 4, 57, 0
4, 82440, Note_off_c, 4, 52, 0
4, 82440, Note_off_c, 4, 45, 0
4, 82440, Note_on_c, 4, 45, 78
4, 82440, Note_on_c, 4, 57, 78
4, 82620, Note_off_c, 4, 57, 0
4, 82620, Note_off_c, 4, 45, 0
4, 82620, Note_on_c, 4, 45, 78
4, 82620, Note_on_c, 4, 57, 78
4, 82800, Note_off_c, 4, 57, 0
4, 82800, Note_off_c, 4, 45, 0
4, 82800, Note_on_c, 4, 43, 78
4, 82800, Note_on_c, 4, 55, 78
4, 82980, Note_off_c, 4, 55, 0
4, 82980, Note_off_c, 4, 43, 0
4, 82980, Note_on_c, 4, 43, 78
4, 82980, Note_on_c, 4, 55, 78
4, 83160, Note_off_c, 4, 55, 0
4, 83160, Note_off_c, 4, 43, 0
4, 83160, Note_on_c, 4, 41, 78
4, 83160, Note_on_c, 4, 48, 78
4, 83160, Note_on_c, 4, 53, 78
4, 83160, Note_on_c, 4, 57, 78
4, 83160, Note_on_c, 4, 60, 78
4, 83160, Note_on_c, 4, 65, 78
4, 83880, Note_off_c, 4, 65, 0
4, 83880, Note_off_c, 4, 60, 0
4, 83880, Note_off_c, 4, 57, 0
4, 83880, Note_off_c, 4, 53, 0
4, 83880, Note_off_c, 4, 48, 0
4, 83880, Note_off_c, 4, 41, 0
4, 83880, Note_on_c, 4, 41, 78
4, 84240, Note_off_c, 4, 41, 0
4, 84240, Note_on_c, 4, 41, 78
4, 84240, Note_on_c, 4, 48, 78
4, 84240, Note_on_c, 4, 53, 78
4, 84240, Note_on_c, 4, 57, 78
4, 84240, Note_on_c, 4, 60, 78
4, 84240, Note_on_c, 4, 65, 78
4, 84780, Note_off_c, 4, 65, 0
4, 84780, Note_off_c, 4, 60, 0
4, 84780, Note_off_c, 4, 57, 0
4, 84780, Note_off_c, 4, 53, 0
4, 84780, Note_off_c, 4, 48, 0
4, 84780, Note_off_c, 4, 41, 0
4, 84780, Note_on_c, 4, 53, 78
4, 84780, Note_on_c, 4, 57, 78
4, 84780, Note_on_c, 4, 60, 78
4, 84780, Note_on_c, 4, 65, 78
4, 84960, Note_off_c, 4, 65, 0
4, 84960, Note_off_c, 4, 60, 0
4, 84960, Note_off_c, 4, 57, 0
4, 84960, Note_off_c, 4, 53, 0
4, 84960, Note_on_c, 4, 41, 78
4, 84960, Note_on_c, 4, 48, 78
4, 84960, Note_on_c, 4, 53, 78
4, 84960, Note_on_c, 4, 57, 78
4, 84960, Note_on_c, 4, 60, 78
4, 84960, Note_on_c, 4, 65, 78
4, 85320, Note_off_c, 4, 65, 0
4, 85320, Note_off_c, 4, 60, 0
4, 85320, Note_off_c, 4, 57, 0
4, 85320, Note_off_c, 4, 53, 0
4, 85320, Note_off_c, 4, 48, 0
4, 85320, Note_off_c, 4, 41, 0
4, 85320, Note_on_c, 4, 45, 78
4, 85320, Note_on_c, 4, 57, 78
4, 85500, Note_off_c, 4, 57, 0
4, 85500, Note_off_c, 4, 45, 0
4, 85500, Note_on_c, 4, 45, 78
4, 85500, Note_on_c, 4, 57, 78
4, 85680, Note_off_c, 4, 57, 0
4, 85680, Note_off_c, 4, 45, 0
4, 85680, Note_on_c, 4, 43, 78
4, 85680, Note_on_c, 4, 55, 78
4, 85860, Note_off_c, 4, 55, 0
4, 85860, Note_off_c, 4, 43, 0
4, 85860, Note_on_c, 4, 44, 78
4, 85860, Note_on_c, 4, 56, 78
4, 86040, Note_off_c, 4, 56, 0
4, 86040, Note_off_c, 4, 44, 0
4, 86040, Note_on_c, 4, 43, 78
4, 86040, Note_on_c, 4, 55, 78
4, 86220, Note_off_c, 4, 55, 0
4, 86220, Note_off_c, 4, 43, 0
4, 86220, Note_on_c, 4, 44, 78
4, 86220, Note_on_c, 4, 56, 78
4, 86400, Note_off_c, 4, 56, 0
4, 86400, Note_off_c, 4, 44, 0
4, 86400, Note_on_c, 4, 41, 78
4, 86400, Note_on_c, 4, 48, 78
4, 86400, Note_on_c, 4, 53, 78
4, 86400, Note_on_c, 4, 56, 78
4, 86400, Note_on_c, 4, 60, 78
4, 86400, Note_on_c, 4, 65, 78
4, 87120, Note_off_c, 4, 65, 0
4, 87120, Note_off_c, 4, 60, 0
4, 87120, Note_off_c, 4, 56, 0
4, 87120, Note_off_c, 4, 53, 0
4, 87120, Note_off_c, 4, 48, 0
4, 87120, Note_off_c, 4, 41, 0
4, 87120, Note_on_c, 4, 41, 78
4, 87120, Note_on_c, 4, 48, 78
4, 87120, Note_on_c, 4, 53, 78
4, 87120, Note_on_c, 4, 56, 78
4, 87120, Note_on_c, 4, 60, 78
4, 87120, Note_on_c, 4, 65, 78
4, 87660, Note_off_c, 4, 65, 0
4, 87660, Note_off_c, 4, 60, 0
4, 87660, Note_off_c, 4, 56, 0
4, 87660, Note_off_c, 4, 53, 0
4, 87660, Note_off_c, 4, 48, 0
4, 87660, Note_off_c, 4, 41, 0
4, 87660, Note_on_c, 4, 53, 78
4, 87660, Note_on_c, 4, 56, 78
4, 87660, Note_on_c, 4, 60, 78
4, 87660, Note_on_c, 4, 65, 78
4, 87840, Note_off_c, 4, 65, 0
4, 87840, Note_off_c, 4, 60, 0
4, 87840, Note_off_c, 4, 56, 0
4, 87840, Note_off_c, 4, 53, 0
4, 87840, Note_on_c, 4, 41, 78
4, 87840, Note_on_c, 4, 48, 78
4, 87840, Note_on_c, 4, 53, 78
4, 87840, Note_on_c, 4, 57, 78
4, 87840, Note_on_c, 4, 60, 78
4, 88200, Note_off_c, 4, 60, 0
4, 88200, Note_off_c, 4, 57, 0
4, 88200, Note_off_c, 4, 53, 0
4, 88200, Note_off_c, 4, 48, 0
4, 88200, Note_off_c, 4, 41, 0
4, 88200, Note_on_c, 4, 44, 78
4, 88200, Note_on_c, 4, 56, 78
4, 88380, Note_off_c, 4, 56, 0
4, 88380, Note_off_c, 4, 44, 0
4, 88380, Note_on_c, 4, 44, 78
4, 88380, Note_on_c, 4, 56, 78
4, 88560, Note_off_c, 4, 56, 0
4, 88560, Note_off_c, 4, 44, 0
4, 88560, Note_on_c, 4, 45, 78
4, 88740, Note_off_c, 4, 45, 0
4, 88740, Note_on_c, 4, 43, 78
4, 88920, Note_off_c, 4, 43, 0
4, 88920, Note_on_c, 4, 43, 78
4, 88920, Note_on_c, 4, 48, 78
4, 88920, Note_on_c, 4, 52, 78
4, 88920, Note_on_c, 4, 55, 78
4, 89100, Note_off_c, 4, 55, 0
4, 89100, Note_off_c, 4, 52, 0
4, 89100, Note_off_c, 4, 48, 0
4, 89100, Note_off_c, 4, 43, 0
4, 89100, Note_on_c, 4, 43, 78
4, 89100, Note_on_c, 4, 48, 78
4, 89100, Note_on_c, 4, 52, 78
4, 89100, Note_on_c, 4, 55, 78
4, 89280, Note_off_c, 4, 55, 0
4, 89280, Note_off_c, 4, 52, 0
4, 89280, Note_off_c, 4, 48, 0
4, 89280, Note_off_c, 4, 43, 0
4, 89280, Note_on_c, 4, 43, 78
4, 89280, Note_on_c, 4, 48, 78
4, 89280, Note_on_c, 4, 52, 78
4, 89280, Note_on_c, 4, 55, 78
4, 89280, Note_on_c, 4, 60, 78
4, 89280, Note_on_c, 4, 64, 78
4, 90000, Note_off_c, 4, 64, 0
4, 90000, Note_off_c, 4, 60, 0
4, 90000, Note_off_c, 4, 55, 0
4, 90000, Note_off_c, 4, 52, 0
4, 90000, Note_off_c, 4, 48, 0
4, 90000, Note_off_c, 4, 43, 0
4, 90000, Note_on_c, 4, 43, 78
4, 90000, Note_on_c, 4, 48, 78
4, 90000, Note_on_c, 4, 52, 78
4, 90000, Note_on_c, 4, 55, 78
4, 90000, Note_on_c, 4, 60, 78
4, 90000, Note_on_c, 4, 64, 78
4, 90540, Note_off_c, 4, 64, 0
4, 90540, Note_off_c, 4, 60, 0
4, 90540, Note_off_c, 4, 55, 0
4, 90540, Note_off_c, 4, 52, 0
4, 90540, Note_off_c, 4, 48, 0
4, 90540, Note_off_c, 4, 43, 0
4, 90540, Note_on_c, 4, 55, 78
4, 90540, Note_on_c, 4, 60, 78
4, 90540, Note_on_c, 4, 64, 78
4, 90720, Note_off_c, 4, 64, 0
4, 90720, Note_off_c, 4, 60, 0
4, 90720, Note_off_c, 4, 55, 0
4, 90720, Note_on_c, 4, 43, 78
4, 90720, Note_on_c, 4, 48, 78
4, 90720, Note_on_c, 4, 52, 78
4, 90720, Note_on_c, 4, 55, 78
4, 90720, Note_on_c, 4, 60, 78
4, 90720, Note_on_c, 4, 64, 78
4, 91080, Note_off_c, 4, 64, 0
4, 91080, Note_off_c, 4, 60, 0
4, 91080, Note_off_c, 4, 55, 0
4, 91080, Note_off_c, 4, 52, 0
4, 91080, Note_off_c, 4, 48, 0
4, 91080, Note_off_c, 4, 43, 0
4, 91080, Note_on_c, 4, 52, 78
4, 91080, Note_on_c, 4, 55, 78
4, 91080, Note_on_c, 4, 60, 78
4, 91080, Note_on_c, 4, 64, 78
4, 91440, Note_off_c, 4, 64, 0
4, 91440, Note_off_c, 4, 60, 0
4, 91440, Note_off_c, 4, 55, 0
4, 91440, Note_off_c, 4, 52, 0
4, 91440, Note_on_c, 4, 52, 78
4, 91440, Note_on_c, 4, 55, 78
4, 91440, Note_on_c, 4, 60, 78
4, 91440, Note_on_c, 4, 64, 78
4, 91620, Note_off_c, 4, 64, 0
4, 91620, Note_off_c, 4, 60, 0
4, 91620, Note_off_c, 4, 55, 0
4, 91620, Note_off_c, 4, 52, 0
4, 91620, Note_on_c, 4, 52, 78
4, 91620, Note_on_c, 4, 55, 78
4, 91620, Note_on_c, 4, 60, 78
4, 91620, Note_on_c, 4, 64, 78
4, 91800, Note_off_c, 4, 64, 0
4, 91800, Note_off_c, 4, 60, 0
4, 91800, Note_off_c, 4, 55, 0
4, 91800, Note_off_c, 4, 52, 0
4, 91800, Note_on_c, 4, 47, 78
4, 91800, Note_on_c, 4, 54, 78
4, 91800, Note_on_c, 4, 59, 78
4, 91800, Note_on_c, 4, 62, 78
4, 91800, Note_on_c, 4, 66, 78
4, 92520, Note_off_c, 4, 66, 0
4, 92520, Note_off_c, 4, 62, 0
4, 92520, Note_off_c, 4, 59, 0
4, 92520, Note_off_c, 4, 54, 0
4, 92520, Note_off_c, 4, 47, 0
4, 92520, Note_on_c, 4, 47, 78
4, 92880, Note_off_c, 4, 47, 0
4, 92880, Note_on_c, 4, 47, 78
4, 92880, Note_on_c, 4, 54, 78
4, 92880, Note_on_c, 4, 59, 78
4, 92880, Note_on_c, 4, 62, 78
4, 92880, Note_on_c, 4, 66, 78
4, 93420, Note_off_c, 4, 66, 0
4, 93420, Note_off_c, 4, 62, 0
4, 93420, Note_off_c, 4, 59, 0
4, 93420, Note_off_c, 4, 54, 0
4, 93420, Note_off_c, 4, 47, 0
4, 93420, Note_on_c, 4, 59, 78
4, 93420, Note_on_c, 4, 62, 78
4, 93420, Note_on_c, 4, 66, 78
4, 93600, Note_off_c, 4, 66, 0
4, 93600, Note_off_c, 4, 62, 0
4, 93600, Note_off_c, 4, 59, 0
4, 93600, Note_on_c, 4, 47, 78
4, 93600, Note_on_c, 4, 54, 78
4, 93600, Note_on_c, 4, 59, 78
4, 93600, Note_on_c, 4, 62, 78
4, 93600, Note_on_c, 4, 66, 78
4, 93960, Note_off_c, 4, 66, 0
4, 93960, Note_off_c, 4, 62, 0
4, 93960, Note_off_c, 4, 59, 0
4, 93960, Note_off_c, 4, 54, 0
4, 93960, Note_off_c, 4, 47, 0
4, 93960, Note_on_c, 4, 54, 78
4, 93960, Note_on_c, 4, 59, 78
4, 93960, Note_on_c, 4, 62, 78
4, 93960, Note_on_c, 4, 66, 78
4, 94320, Note_off_c, 4, 66, 0
4, 94320, Note_off_c, 4, 62, 0
4, 94320, Note_off_c, 4, 59, 0
4, 94320, Note_off_c, 4, 54, 0
4, 94320, Note_on_c, 4, 59, 78
4, 94500, Note_off_c, 4, 59, 0
4, 94500, Note_on_c, 4, 60, 78
4, 94680, Note_off_c, 4, 60, 0
4, 94680, Note_on_c, 4, 59, 78
4, 94860, Note_off_c, 4, 59, 0
4, 94860, Note_on_c, 4, 60, 78
4, 95040, Note_off_c, 4, 60, 0
4, 95040, Note_on_c, 4, 45, 78
4, 95040, Note_on_c, 4, 52, 78
4, 95040, Note_on_c, 4, 57, 78
4, 95040, Note_on_c, 4, 60, 78
4, 95040, Note_on_c, 4, 64, 78
4, 95760, Note_off_c, 4, 64, 0
4, 95760, Note_off_c, 4, 60, 0
4, 95760, Note_off_c, 4, 57, 0
4, 95760, Note_off_c, 4, 52, 0
4, 95760, Note_off_c, 4, 45, 0
4, 95760, Note_on_c, 4, 45, 78
4, 95760, Note_on_c, 4, 52, 78
4, 95760, Note_on_c, 4, 57, 78
4, 95760, Note_on_c, 4, 60, 78
4, 95760, Note_on_c, 4, 64, 78
4, 95760, Note_on_c, 4, 69, 78
4, 96300, Note_off_c, 4, 69, 0
4, 96300, Note_off_c, 4, 64, 0
4, 96300, Note_off_c, 4, 60, 0
4, 96300, Note_off_c, 4, 57, 0
4, 96300, Note_off_c, 4, 52, 0
4, 96300, Note_off_c, 4, 45, 0
4, 96300, Note_on_c, 4, 57, 78
4, 96300, Note_on_c, 4, 60, 78
4, 96300, Note_on_c, 4, 64, 78
4, 96300, Note_on_c, 4, 69, 78
4, 96480, Note_off_c, 4, 69, 0
4, 96480, Note_off_c, 4, 64, 0
4, 96480, Note_off_c, 4, 60, 0
4, 96480, Note_off_c, 4, 57, 0
4, 96480, Note_on_c, 4, 45, 78
4, 96480, Note_on_c, 4, 52, 78
4, 96480, Note_on_c, 4, 57, 78
4, 96480, Note_on_c, 4, 60, 78
4, 96480, Note_on_c, 4, 64, 78
4, 96840, Note_off_c, 4, 64, 0
4, 96840, Note_off_c, 4, 60, 0
4, 96840, Note_off_c, 4, 57, 0
4, 96840, Note_off_c, 4, 52, 0
4, 96840, Note_off_c, 4, 45, 0
4, 96840, Note_on_c, 4, 45, 78
4, 96840, Note_on_c, 4, 57, 78
4, 97020, Note_off_c, 4, 57, 0
4, 97020, Note_off_c, 4, 45, 0
4, 97020, Note_on_c, 4, 45, 78
4, 97020, Note_on_c, 4, 57, 78
4, 97200, Note_off_c, 4, 57, 0
4, 97200, Note_off_c, 4, 45, 0
4, 97200, Note_on_c, 4, 43, 78
4, 97200, Note_on_c, 4, 55, 78
4, 97380, Note_off_c, 4, 55, 0
4, 97380, Note_off_c, 4, 43, 0
4, 97380, Note_on_c, 4, 43, 78
4, 97380, Note_on_c, 4, 55, 78
4, 97560, Note_off_c, 4, 55, 0
4, 97560, Note_off_c, 4, 43, 0
4, 97560, Note_on_c, 4, 41, 78
4, 97560, Note_on_c, 4, 48, 78
4, 97560, Note_on_c, 4, 53, 78
4, 97560, Note_on_c, 4, 57, 78
4, 97560, Note_on_c, 4, 60, 78
4, 97560, Note_on_c, 4, 65, 78
4, 98280, Note_off_c, 4, 65, 0
4, 98280, Note_off_c, 4, 60, 0
4, 98280, Note_off_c, 4, 57, 0
4, 98280, Note_off_c, 4, 53, 0
4, 98280, Note_off_c, 4, 48, 0
4, 98280, Note_off_c, 4, 41, 0
4, 98280, Note_on_c, 4, 41, 78
4, 98640, Note_off_c, 4, 41, 0
4, 98640, Note_on_c, 4, 41, 78
4, 98640, Note_on_c, 4, 48, 78
4, 98640, Note_on_c, 4, 53, 78
4, 98640, Note_on_c, 4, 57, 78
4, 98640, Note_on_c, 4, 60, 78
4, 98640, Note_on_c, 4, 65, 78
4, 99180, Note_off_c, 4, 65, 0
4, 99180, Note_off_c, 4, 60, 0
4, 99180, Note_off_c, 4, 57, 0
4, 99180, Note_off_c, 4, 53, 0
4, 99180, Note_off_c, 4, 48, 0
4, 99180, Note_off_c, 4, 41, 0
4, 99180, Note_on_c, 4, 53, 78
4, 99180, Note_on_c, 4, 57, 78
4, 99180, Note_on_c, 4, 60, 78
4, 99180, Note_on_c, 4, 65, 78
4, 99360, Note_off_c, 4, 65, 0
4, 99360, Note_off_c, 4, 60, 0
4, 99360, Note_off_c, 4, 57, 0
4, 99360, Note_off_c, 4, 53, 0
4, 99360, Note_on_c, 4, 41, 78
4, 99360, Note_on_c, 4, 48, 78
4, 99360, Note_on_c, 4, 53, 78
4, 99360, Note_on_c, 4, 57, 78
4, 99360, Note_on_c, 4, 60, 78
4, 99360, Note_on_c, 4, 65, 78
4, 99720, Note_off_c, 4, 65, 0
4, 99720, Note_off_c, 4, 60, 0
4, 99720, Note_off_c, 4, 57, 0
4, 99720, Note_off_c, 4, 53, 0
4, 99720, Note_off_c, 4, 48, 0
4, 99720, Note_off_c, 4, 41, 0
4, 99720, Note_on_c, 4, 45, 78
4, 99720, Note_on_c, 4, 57, 78
4, 99900, Note_off_c, 4, 57, 0
4, 99900, Note_off_c, 4, 45, 0
4, 99900, Note_on_c, 5, 45, 78
4, 99900, Note_on_c, 5, 57, 78
4, 99920, Pitch_bend_c, 5, 8112
4, 99940, Pitch_bend_c, 5, 8037
4, 99960, Pitch_bend_c, 5, 7962
4, 99980, Pitch_bend_c, 5, 7887
4, 100000, Pitch_bend_c, 5, 7812
4, 100020, Pitch_bend_c, 5, 7737
4, 100040, Pitch_bend_c, 5, 7662
4, 100060, Pitch_bend_c, 5, 7587
4, 100080, Pitch_bend_c, 5, 7512
4, 100260, Note_off_c, 5, 57, 0
4, 100260, Note_off_c, 5, 45, 0
4, 100260, Pitch_bend_c, 5, 8192
4, 100260, Note_on_c, 5, 45, 78
4, 100260, Note_on_c, 5, 57, 78
4, 100280, Pitch_bend_c, 5, 8112
4, 100300, Pitch_bend_c, 5, 8037
4, 100320, Pitch_bend_c, 5, 7962
4, 100340, Pitch_bend_c, 5, 7887
4, 100360, Pitch_bend_c, 5, 7812
4, 100380, Pitch_bend_c, 5, 7737
4, 100400, Pitch_bend_c, 5, 7662
4, 100420, Pitch_bend_c, 5, 7587
4, 100440, Pitch_bend_c, 5, 7512
4, 100620, Note_off_c, 5, 57, 0
4, 100620, Note_off_c, 5, 45, 0
4, 100620, Pitch_bend_c, 5, 8192
4, 100620, Note_on_c, 4, 45, 78
4, 100620, Note_on_c, 4, 57, 78
4, 100800, Note_off_c, 4, 57, 0
4, 100800, Note_off_c, 4, 45, 0
4, 100800, Note_on_c, 4, 45, 78
4, 100800, Note_on_c, 4, 52, 78
4, 100800, Note_on_c, 4, 57, 78
4, 100800, Note_on_c, 4, 60, 78
4, 100800, Note_on_c, 4, 64, 78
4, 101520, Note_off_c, 4, 64, 0
4, 101520, Note_off_c, 4, 60, 0
4, 101520, Note_off_c, 4, 57, 0
4, 101520, Note_off_c, 4, 52, 0
4, 101520, Note_off_c, 4, 45, 0
4, 101520, Note_on_c, 4, 45, 78
4, 101520, Note_on_c, 4, 52, 78
4, 101520, Note_on_c, 4, 57, 78
4, 101520, Note_on_c, 4, 60, 78
4, 101520, Note_on_c, 4, 64, 78
4, 101520, Note_on_c, 4, 69, 78
4, 102060, Note_off_c, 4, 69, 0
4, 102060, Note_off_c, 4, 64, 0
4, 102060, Note_off_c, 4, 60, 0
4, 102060, Note_off_c, 4, 57, 0
4, 102060, Note_off_c, 4, 52, 0
4, 102060, Note_off_c, 4, 45, 0
4, 102060, Note_on_c, 4, 57, 78
4, 102060, Note_on_c, 4, 60, 78
4, 102060, Note_on_c, 4, 64, 78
4, 102060, Note_on_c, 4, 69, 78
4, 102240, Note_off_c, 4, 69, 0
4, 102240, Note_off_c, 4, 64, 0
4, 102240, Note_off_c, 4, 60, 0
4, 102240, Note_off_c, 4, 57, 0
4, 102240, Note_on_c, 4, 45, 78
4, 102240, Note_on_c, 4, 52, 78
4, 102240, Note_on_c, 4, 57, 78
4, 102240, Note_on_c, 4, 60, 78
4, 102240, Note_on_c, 4, 64, 78
4, 102600, Note_off_c, 4, 64, 0
4, 102600, Note_off_c, 4, 60, 0
4, 102600, Note_off_c, 4, 57, 0
4, 102600, Note_off_c, 4, 52, 0
4, 102600, Note_off_c, 4, 45, 0
4, 102600, Note_on_c, 4, 45, 78
4, 102600, Note_on_c, 4, 57, 78
4, 102780, Note_off_c, 4, 57, 0
4, 102780, Note_off_c, 4, 45, 0
4, 102780, Note_on_c, 4, 45, 78
4, 102780, Note_on_c, 4, 57, 78
4, 102960, Note_off_c, 4, 57, 0
4, 102960, Note_off_c, 4, 45, 0
4, 102960, Note_on_c, 4, 43, 78
4, 102960, Note_on_c, 4, 55, 78
4, 103140, Note_off_c, 4, 55, 0
4, 103140, Note_off_c, 4, 43, 0
4, 103140, Note_on_c, 4, 43, 78
4, 103140, Note_on_c, 4, 55, 78
4, 103320, Note_off_c, 4, 55, 0
4, 103320, Note_off_c, 4, 43, 0
4, 103320, Note_on_c, 4, 41, 78
4, 103320, Note_on_c, 4, 48, 78
4, 103320, Note_on_c, 4, 53, 78
4, 103320, Note_on_c, 4, 57, 78
4, 103320, Note_on_c, 4, 60, 78
4, 103320, Note_on_c, 4, 65, 78
4, 104040, Note_off_c, 4, 65, 0
4, 104040, Note_off_c, 4, 60, 0
4, 104040, Note_off_c, 4, 57, 0
4, 104040, Note_off_c, 4, 53, 0
4, 104040, Note_off_c, 4, 48, 0
4, 104040, Note_off_c, 4, 41, 0
4, 104040, Note_on_c, 4, 41, 78
4, 104400, Note_off_c, 4, 41, 0
4, 104400, Note_on_c, 4, 41, 78
4, 104400, Note_on_c, 4, 48, 78
4, 104400, Note_on_c, 4, 53, 78
4, 104400, Note_on_c, 4, 57, 78
4, 104400, Note_on_c, 4, 60, 78
4, 104400, Note_on_c, 4, 65, 78
4, 104940, Note_off_c, 4, 65, 0
4, 104940, Note_off_c, 4, 60, 0
4, 104940, Note_off_c, 4, 57, 0
4, 104940, Note_off_c, 4, 53, 0
4, 104940, Note_off_c, 4, 48, 0
4, 104940, Note_off_c, 4, 41, 0
4, 104940, Note_on_c, 4, 53, 78
4, 104940, Note_on_c, 4, 57, 78
4, 104940, Note_on_c, 4, 60, 78
4, 104940, Note_on_c, 4, 65, 78
4, 105120, Note_off_c, 4, 65, 0
4, 105120, Note_off_c, 4, 60, 0
4, 105120, Note_off_c, 4, 57, 0
4, 105120, Note_off_c, 4, 53, 0
4, 105120, Note_on_c, 4, 41, 78
4, 105120, Note_on_c, 4, 48, 78
4, 105120, Note_on_c, 4, 53, 78
4, 105120, Note_on_c, 4, 57, 78
4, 105120, Note_on_c, 4, 60, 78
4, 105120, Note_on_c, 4, 65, 78
4, 105480, Note_off_c, 4, 65, 0
4, 105480, Note_off_c, 4, 60, 0
4, 105480, Note_off_c, 4, 57, 0
4, 105480, Note_off_c, 4, 53, 0
4, 105480, Note_off_c, 4, 48, 0
4, 105480, Note_off_c, 4, 41, 0
4, 105480, Note_on_c, 4, 45, 78
4, 105480, Note_on_c, 4, 57, 78
4, 105660, Note_off_c, 4, 57, 0
4, 105660, Note_off_c, 4, 45, 0
4, 105660, Note_on_c, 4, 45, 78
4, 105660, Note_on_c, 4, 57, 78
4, 105840, Note_off_c, 4, 57, 0
4, 105840, Note_off_c, 4, 45, 0
4, 105840, Note_on_c, 4, 43, 78
4, 105840, Note_on_c, 4, 55, 78
4, 106020, Note_off_c, 4, 55, 0
4, 106020, Note_off_c, 4, 43, 0
4, 106020, Note_on_c, 4, 44, 78
4, 106020, Note_on_c, 4, 56, 78
4, 106200, Note_off_c, 4, 56, 0
4, 106200, Note_off_c, 4, 44, 0
4, 106200, Note_on_c, 4, 43, 78
4, 106200, Note_on_c, 4, 55, 78
4, 106380, Note_off_c, 4, 55, 0
4, 106380, Note_off_c, 4, 43, 0
4, 106380, Note_on_c, 4, 44, 78
4, 106380, Note_on_c, 4, 56, 78
4, 106560, Note_off_c, 4, 56, 0
4, 106560, Note_off_c, 4, 44, 0
4, 106560, Note_on_c, 4, 41, 78
4, 106560, Note_on_c, 4, 48, 78
4, 106560, Note_on_c, 4, 53, 78
4, 106560, Note_on_c, 4, 56, 78
4, 106560, Note_on_c, 4, 60, 78
4, 106560, Note_on_c, 4, 65, 78
4, 107280, Note_off_c, 4, 65, 0
4, 107280, Note_off_c, 4, 60, 0
4, 107280, Note_off_c, 4, 56, 0
4, 107280, Note_off_c, 4, 53, 0
4, 107280, Note_off_c, 4, 48, 0
4, 107280, Note_off_c, 4, 41, 0
4, 107280, Note_on_c, 4, 41, 78
4, 107280, Note_on_c, 4, 48, 78
4, 107280, Note_on_c, 4, 53, 78
4, 107280, Note_on_c, 4, 56, 78
4, 107280, Note_on_c, 4, 60, 78
4, 107280, Note_on_c, 4, 65, 78
4, 107820, Note_off_c, 4, 65, 0
4, 107820, Note_off_c, 4, 60, 0
4, 107820, Note_off_c, 4, 56, 0
4, 107820, Note_off_c, 4, 53, 0
4, 107820, Note_off_c, 4, 48, 0
4, 107820, Note_off_c, 4, 41, 0
4, 107820, Note_on_c, 4, 53, 78
4, 107820, Note_on_c, 4, 56, 78
4, 107820, Note_on_c, 4, 60, 78
4, 107820, Note_on_c, 4, 65, 78
4, 108000, Note_off_c, 4, 65, 0
4, 108000, Note_off_c, 4, 60, 0
4, 108000, Note_off_c, 4, 56, 0
4, 108000, Note_off_c, 4, 53, 0
4, 108000, Note_on_c, 4, 41, 78
4, 108000, Note_on_c, 4, 48, 78
4, 108000, Note_on_c, 4, 53, 78
4, 108000, Note_on_c, 4, 56, 78
4, 108000, Note_on_c, 4, 60, 78
4, 108360, Note_off_c, 4, 60, 0
4, 108360, Note_off_c, 4, 56, 0
4, 108360, Note_off_c, 4, 53, 0
4, 108360, Note_off_c, 4, 48, 0
4, 108360, Note_off_c, 4, 41, 0
4, 108360, Note_on_c, 4, 44, 78
4, 108360, Note_on_c, 4, 56, 78
4, 108540, Note_off_c, 4, 56, 0
4, 108540, Note_off_c, 4, 44, 0
4, 108540, Note_on_c, 4, 44, 78
4, 108540, Note_on_c, 4, 56, 78
4, 108720, Note_off_c, 4, 56, 0
4, 108720, Note_off_c, 4, 44, 0
4, 108720, Note_on_c, 4, 44, 78
4, 108720, Note_on_c, 4, 56, 78
4, 108900, Note_off_c, 4, 56, 0
4, 108900, Note_off_c, 4, 44, 0
4, 108900, Note_on_c, 4, 44, 78
4, 108900, Note_on_c, 4, 56, 78
4, 109080, Note_off_c, 4, 56, 0
4, 109080, Note_off_c, 4, 44, 0
4, 109080, Note_on_c, 4, 43, 78
4, 109080, Note_on_c, 4, 55, 78
4, 109260, Note_off_c, 4, 55, 0
4, 109260, Note_off_c, 4, 43, 0
4, 109260, Note_on_c, 4, 43, 78
4, 109260, Note_on_c, 4, 55, 78
4, 109440, Note_off_c, 4, 55, 0
4, 109440, Note_off_c, 4, 43, 0
4, 109440, Note_on_c, 4, 43, 78
4, 109440, Note_on_c, 4, 48, 78
4, 109440, Note_on_c, 4, 52, 78
4, 109440, Note_on_c, 4, 55, 78
4, 109440, Note_on_c, 4, 60, 78
4, 109440, Note_on_c, 4, 64, 78
4, 112320, Note_off_c, 4, 64, 0
4, 112320, Note_off_c, 4, 60, 0
4, 112320, Note_off_c, 4, 55, 0
4, 112320, Note_off_c, 4, 52, 0
4, 112320, Note_off_c, 4, 48, 0
4, 112320, Note_off_c, 4, 43, 0
4, 169920, Note_on_c, 4, 43, 78
4, 169920, Note_on_c, 4, 48, 78
4, 169920, Note_on_c, 4, 52, 78
4, 169920, Note_on_c, 4, 55, 78
4, 169920, Note_on_c, 4, 60, 78
4, 169920, Note_on_c, 4, 64, 78
4, 170640, Note_off_c, 4, 64, 0
4, 170640, Note_off_c, 4, 60, 0
4, 170640, Note_off_c, 4, 55, 0
4, 170640, Note_off_c, 4, 52, 0
4, 170640, Note_off_c, 4, 48, 0
4, 170640, Note_off_c, 4, 43, 0
4, 170640, Note_on_c, 4, 43, 78
4, 170640, Note_on_c, 4, 48, 78
4, 170640, Note_on_c, 4, 52, 78
4, 170640, Note_on_c, 4, 55, 78
4, 170640, Note_on_c, 4, 60, 78
4, 170640, Note_on_c, 4, 64, 78
4, 171180, Note_off_c, 4, 64, 0
4, 171180, Note_off_c, 4, 60, 0
4, 171180, Note_off_c, 4, 55, 0
4, 171180, Note_off_c, 4, 52, 0
4, 171180, Note_off_c, 4, 48, 0
4, 171180, Note_off_c, 4, 43, 0
4, 171180, Note_on_c, 4, 55, 78
4, 171180, Note_on_c, 4, 60, 78
4, 171180, Note_on_c, 4, 64, 78
4, 171360, Note_off_c, 4, 64, 0
4, 171360, Note_off_c, 4, 60, 0
4, 171360, Note_off_c, 4, 55, 0
4, 171360, Note_on_c, 4, 43, 78
4, 171360, Note_on_c, 4, 48, 78
4, 171360, Note_on_c, 4, 52, 78
4, 171360, Note_on_c, 4, 55, 78
4, 171360, Note_on_c, 4, 60, 78
4, 171360, Note_on_c, 4, 64, 78
4, 171720, Note_off_c, 4, 64, 0
4, 171720, Note_off_c, 4, 60, 0
4, 171720, Note_off_c, 4, 55, 0
4, 171720, Note_off_c, 4, 52, 0
4, 171720, Note_off_c, 4, 48, 0
4, 171720, Note_off_c, 4, 43, 0
4, 171720, Note_on_c, 4, 52, 78
4, 171720, Note_on_c, 4, 55, 78
4, 171720, Note_on_c, 4, 60, 78
4, 171720, Note_on_c, 4, 64, 78
4, 172080, Note_off_c, 4, 64, 0
4, 172080, Note_off_c, 4, 60, 0
4, 172080, Note_off_c, 4, 55, 0
4, 172080, Note_off_c, 4, 52, 0
4, 172080, Note_on_c, 4, 52, 78
4, 172080, Note_on_c, 4, 55, 78
4, 172080, Note_on_c, 4, 60, 78
4, 172080, Note_on_c, 4, 64, 78
4, 172260, Note_off_c, 4, 64, 0
4, 172260, Note_off_c, 4, 60, 0
4, 172260, Note_off_c, 4, 55, 0
4, 172260, Note_off_c, 4, 52, 0
4, 172260, Note_on_c, 4, 52, 78
4, 172260, Note_on_c, 4, 55, 78
4, 172260, Note_on_c, 4, 60, 78
4, 172260, Note_on_c, 4, 64, 78
4, 172440, Note_off_c, 4, 64, 0
4, 172440, Note_off_c, 4, 60, 0
4, 172440, Note_off_c, 4, 55, 0
4, 172440, Note_off_c, 4, 52, 0
4, 172440, Note_on_c, 4, 47, 78
4, 172440, Note_on_c, 4, 54, 78
4, 172440, Note_on_c, 4, 59, 78
4, 172440, Note_on_c, 4, 62, 78
4, 172440, Note_on_c, 4, 66, 78
4, 173160, Note_off_c, 4, 66, 0
4, 173160, Note_off_c, 4, 62, 0
4, 173160, Note_off_c, 4, 59, 0
4, 173160, Note_off_c, 4, 54, 0
4, 173160, Note_off_c, 4, 47, 0
4, 173160, Note_on_c, 4, 47, 78
4, 173520, Note_off_c, 4, 47, 0
4, 173520, Note_on_c, 4, 47, 78
4, 173520, Note_on_c, 4, 54, 78
4, 173520, Note_on_c, 4, 59, 78
4, 173520, Note_on_c, 4, 62, 78
4, 173520, Note_on_c, 4, 66, 78
4, 174060, Note_off_c, 4, 66, 0
4, 174060, Note_off_c, 4, 62, 0
4, 174060, Note_off_c, 4, 59, 0
4, 174060, Note_off_c, 4, 54, 0
4, 174060, Note_off_c, 4, 47, 0
4, 174060, Note_on_c, 4, 59, 78
4, 174060, Note_on_c, 4, 62, 78
4, 174060, Note_on_c, 4, 66, 78
4, 174240, Note_off_c, 4, 66, 0
4, 174240, Note_off_c, 4, 62, 0
4, 174240, Note_off_c, 4, 59, 0
4, 174240, Note_on_c, 4, 47, 78
4, 174240, Note_on_c, 4, 54, 78
4, 174240, Note_on_c, 4, 59, 78
4, 174240, Note_on_c, 4, 62, 78
4, 174240, Note_on_c, 4, 66, 78
4, 174600, Note_off_c, 4, 66, 0
4, 174600, Note_off_c, 4, 62, 0
4, 174600, Note_off_c, 4, 59, 0
4, 174600, Note_off_c, 4, 54, 0
4, 174600, Note_off_c, 4, 47, 0
4, 174600, Note_on_c, 4, 54, 78
4, 174600, Note_on_c, 4, 59, 78
4, 174600, Note_on_c, 4, 62, 78
4, 174600, Note_on_c, 4, 66, 78
4, 174960, Note_off_c, 4, 66, 0
4, 174960, Note_off_c, 4, 62, 0
4, 174960, Note_off_c, 4, 59, 0
4, 174960, Note_off_c, 4, 54, 0
4, 174960, Note_on_c, 4, 59, 78
4, 175140, Note_off_c, 4, 59, 0
4, 175140, Note_on_c, 4, 60, 78
4, 175320, Note_off_c, 4, 60, 0
4, 175320, Note_on_c, 4, 59, 78
4, 175500, Note_off_c, 4, 59, 0
4, 175500, Note_on_c, 4, 60, 78
4, 175680, Note_off_c, 4, 60, 0
4, 175680, Note_on_c, 4, 45, 78
4, 175680, Note_on_c, 4, 52, 78
4, 175680, Note_on_c, 4, 57, 78
4, 175680, Note_on_c, 4, 60, 78
4, 175680, Note_on_c, 4, 64, 78
4, 176400, Note_off_c, 4, 64, 0
4, 176400, Note_off_c, 4, 60, 0
4, 176400, Note_off_c, 4, 57, 0
4, 176400, Note_off_c, 4, 52, 0
4, 176400, Note_off_c, 4, 45, 0
4, 176400, Note_on_c, 4, 45, 78
4, 176400, Note_on_c, 4, 52, 78
4, 176400, Note_on_c, 4, 57, 78
4, 176400, Note_on_c, 4, 60, 78
4, 176400, Note_on_c, 4, 64, 78
4, 176400, Note_on_c, 4, 69, 78
4, 176940, Note_off_c, 4, 69, 0
4, 176940, Note_off_c, 4, 64, 0
4, 176940, Note_off_c, 4, 60, 0
4, 176940, Note_off_c, 4, 57, 0
4, 176940, Note_off_c, 4, 52, 0
4, 176940, Note_off_c, 4, 45, 0
4, 176940, Note_on_c, 4, 57, 78
4, 176940, Note_on_c, 4, 60, 78
4, 176940, Note_on_c, 4, 64, 78
4, 176940, Note_on_c, 4, 69, 78
4, 177120, Note_off_c, 4, 69, 0
4, 177120, Note_off_c, 4, 64, 0
4, 177120, Note_off_c, 4, 60, 0
4, 177120, Note_off_c, 4, 57, 0
4, 177120, Note_on_c, 4, 45, 78
4, 177120, Note_on_c, 4, 52, 78
4, 177120, Note_on_c, 4, 57, 78
4, 177120, Note_on_c, 4, 60, 78
4, 177120, Note_on_c, 4, 64, 78
4, 177480, Note_off_c, 4, 64, 0
4, 177480, Note_off_c, 4, 60, 0
4, 177480, Note_off_c, 4, 57, 0
4, 177480, Note_off_c, 4, 52, 0
4, 177480, Note_off_c, 4, 45, 0
4, 177480, Note_on_c, 4, 45, 78
4, 177480, Note_on_c, 4, 57, 78
4, 177660, Note_off_c, 4, 57, 0
4, 177660, Note_off_c, 4, 45, 0
4, 177660, Note_on_c, 4, 45, 78
4, 177660, Note_on_c, 4, 57, 78
4, 177840, Note_off_c, 4, 57, 0
4, 177840, Note_off_c, 4, 45, 0
4, 177840, Note_on_c, 4, 43, 78
4, 177840, Note_on_c, 4, 55, 78
4, 178020, Note_off_c, 4, 55, 0
4, 178020, Note_off_c, 4, 43, 0
4, 178020, Note_on_c, 4, 43, 78
4, 178020, Note_on_c, 4, 55, 78
4, 178200, Note_off_c, 4, 55, 0
4, 178200, Note_off_c, 4, 43, 0
4, 178200, Note_on_c, 4, 41, 78
4, 178200, Note_on_c, 4, 48, 78
4, 178200, Note_on_c, 4, 53, 78
4, 178200, Note_on_c, 4, 57, 78
4, 178200, Note_on_c, 4, 60, 78
4, 178200, Note_on_c, 4, 65, 78
4, 178920, Note_off_c, 4, 65, 0
4, 178920, Note_off_c, 4, 60, 0
4, 178920, Note_off_c, 4, 57, 0
4, 178920, Note_off_c, 4, 53, 0
4, 178920, Note_off_c, 4, 48, 0
4, 178920, Note_off_c, 4, 41, 0
4, 178920, Note_on_c, 4, 41, 78
4, 179280, Note_off_c, 4, 41, 0
4, 179280, Note_on_c, 4, 41, 78
4, 179280, Note_on_c, 4, 48, 78
4, 179280, Note_on_c, 4, 53, 78
4, 179280, Note_on_c, 4, 57, 78
4, 179280, Note_on_c, 4, 60, 78
4, 179280, Note_on_c, 4, 65, 78
4, 179820, Note_off_c, 4, 65, 0
4, 179820, Note_off_c, 4, 60, 0
4, 179820, Note_off_c, 4, 57, 0
4, 179820, Note_off_c, 4, 53, 0
4, 179820, Note_off_c, 4, 48, 0
4, 179820, Note_off_c, 4, 41, 0
4, 179820, Note_on_c, 4, 53, 78
4, 179820, Note_on_c, 4, 57, 78
4, 179820, Note_on_c, 4, 60, 78
4, 179820, Note_on_c, 4, 65, 78
4, 180000, Note_off_c, 4, 65, 0
4, 180000, Note_off_c, 4, 60, 0
4, 180000, Note_off_c, 4, 57, 0
4, 180000, Note_off_c, 4, 53, 0
4, 180000, Note_on_c, 4, 41, 78
4, 180000, Note_on_c, 4, 48, 78
4, 180000, Note_on_c, 4, 53, 78
4, 180000, Note_on_c, 4, 57, 78
4, 180000, Note_on_c, 4, 60, 78
4, 180000, Note_on_c, 4, 65, 78
4, 180360, Note_off_c, 4, 65, 0
4, 180360, Note_off_c, 4, 60, 0
4, 180360, Note_off_c, 4, 57, 0
4, 180360, Note_off_c, 4, 53, 0
4, 180360, Note_off_c, 4, 48, 0
4, 180360, Note_off_c, 4, 41, 0
4, 180360, Note_on_c, 4, 45, 78
4, 180360, Note_on_c, 4, 57, 78
4, 180540, Note_off_c, 4, 57, 0
4, 180540, Note_off_c, 4, 45, 0
4, 180540, Note_on_c, 5, 45, 78
4, 180540, Note_on_c, 5, 57, 78
4, 180560, Pitch_bend_c, 5, 8112
4, 180580, Pitch_bend_c, 5, 8037
4, 180600, Pitch_bend_c, 5, 7962
4, 180620, Pitch_bend_c, 5, 7887
4, 180640, Pitch_bend_c, 5, 7812
4, 180660, Pitch_bend_c, 5, 7737
4, 180680, Pitch_bend_c, 5, 7662
4, 180700, Pitch_bend_c, 5, 7587
4, 180720, Pitch_bend_c, 5, 7512
4, 180900, Note_off_c, 5, 57, 0
4, 180900, Note_off_c, 5, 45, 0
4, 180900, Pitch_bend_c, 5, 8192
4, 180900, Note_on_c, 5, 45, 78
4, 180900, Note_on_c, 5, 57, 78
4, 180920, Pitch_bend_c, 5, 8112
4, 180940, Pitch_bend_c, 5, 8037
4, 180960, Pitch_bend_c, 5, 7962
4, 180980, Pitch_bend_c, 5, 7887
4, 181000, Pitch_bend_c, 5, 7812
4, 181020, Pitch_bend_c, 5, 7737
4, 181040, Pitch_bend_c, 5, 7662
4, 181060, Pitch_bend_c, 5, 7587
4, 181080, Pitch_bend_c, 5, 7512
4, 181260, Note_off_c, 5, 57, 0
4, 181260, Note_off_c, 5, 45, 0
4, 181260, Pitch_bend_c, 5, 8192
4, 181260, Note_on_c, 4, 45, 78
4, 181260, Note_on_c, 4, 57, 78
4, 181440, Note_off_c, 4, 57, 0
4, 181440, Note_off_c, 4, 45, 0
4, 181440, Note_on_c, 4, 45, 78
4, 181440, Note_on_c, 4, 52, 78
4, 181440, Note_on_c, 4, 57, 78
4, 181440, Note_on_c, 4, 60, 78
4, 181440, Note_on_c, 4, 64, 78
4, 182160, Note_off_c, 4, 64, 0
4, 182160, Note_off_c, 4, 60, 0
4, 182160, Note_off_c, 4, 57, 0
4, 182160, Note_off_c, 4, 52, 0
4, 182160, Note_off_c, 4, 45, 0
4, 182160, Note_on_c, 4, 45, 78
4, 182160, Note_on_c, 4, 52, 78
4, 182160, Note_on_c, 4, 57, 78
4, 182160, Note_on_c, 4, 60, 78
4, 182160, Note_on_c, 4, 64, 78
4, 182160, Note_on_c, 4, 69, 78
4, 182700, Note_off_c, 4, 69, 0
4, 182700, Note_off_c, 4, 64, 0
4, 182700, Note_off_c, 4, 60, 0
4, 182700, Note_off_c, 4, 57, 0
4, 182700, Note_off_c, 4, 52, 0
4, 182700, Note_off_c, 4, 45, 0
4, 182700, Note_on_c, 4, 57, 78
4, 182700, Note_on_c, 4, 60, 78
4, 182700, Note_on_c, 4, 64, 78
4, 182700, Note_on_c, 4, 69, 78
4, 182880, Note_off_c, 4, 69, 0
4, 182880, Note_off_c, 4, 64, 0
4, 182880, Note_off_c, 4, 60, 0
4, 182880, Note_off_c, 4, 57, 0
4, 182880, Note_on_c, 4, 45, 78
4, 182880, Note_on_c, 4, 52, 78
4, 182880, Note_on_c, 4, 57, 78
4, 182880, Note_on_c, 4, 60, 78
4, 182880, Note_on_c, 4, 64, 78
4, 183240, Note_off_c, 4, 64, 0
4, 183240, Note_off_c, 4, 60, 0
4, 183240, Note_off_c, 4, 57, 0
4, 183240, Note_off_c, 4, 52, 0
4, 183240, Note_off_c, 4, 45, 0
4, 183240, Note_on_c, 4, 45, 78
4, 183240, Note_on_c, 4, 57, 78
4, 183420, Note_off_c, 4, 57, 0
4, 183420, Note_off_c, 4, 45, 0
4, 183420, Note_on_c, 4, 45, 78
4, 183420, Note_on_c, 4, 57, 78
4, 183600, Note_off_c, 4, 57, 0
4, 183600, Note_off_c, 4, 45, 0
4, 183600, Note_on_c, 4, 43, 78
4, 183600, Note_on_c, 4, 55, 78
4, 183780, Note_off_c, 4, 55, 0
4, 183780, Note_off_c, 4, 43, 0
4, 183780, Note_on_c, 4, 43, 78
4, 183780, Note_on_c, 4, 55, 78
4, 183960, Note_off_c, 4, 55, 0
4, 183960, Note_off_c, 4, 43, 0
4, 183960, Note_on_c, 4, 41, 78
4, 183960, Note_on_c, 4, 48, 78
4, 183960, Note_on_c, 4, 53, 78
4, 183960, Note_on_c, 4, 57, 78
4, 183960, Note_on_c, 4, 60, 78
4, 183960, Note_on_c, 4, 65, 78
4, 184680, Note_off_c, 4, 65, 0
4, 184680, Note_off_c, 4, 60, 0
4, 184680, Note_off_c, 4, 57, 0
4, 184680, Note_off_c, 4, 53, 0
4, 184680, Note_off_c, 4, 48, 0
4, 184680, Note_off_c, 4, 41, 0
4, 184680, Note_on_c, 4, 41, 78
4, 185040, Note_off_c, 4, 41, 0
4, 185040, Note_on_c, 4, 41, 78
4, 185040, Note_on_c, 4, 48, 78
4, 185040, Note_on_c, 4, 53, 78
4, 185040, Note_on_c, 4, 57, 78
4, 185040, Note_on_c, 4, 60, 78
4, 185040, Note_on_c, 4, 65, 78
4, 185580, Note_off_c, 4, 65, 0
4, 185580, Note_off_c, 4, 60, 0
4, 185580, Note_off_c, 4, 57, 0
4, 185580, Note_off_c, 4, 53, 0
4, 185580, Note_off_c, 4, 48, 0
4, 185580, Note_off_c, 4, 41, 0
4, 185580, Note_on_c, 4, 53, 78
4, 185580, Note_on_c, 4, 57, 78
4, 185580, Note_on_c, 4, 60, 78
4, 185580, Note_on_c, 4, 65, 78
4, 185760, Note_off_c, 4, 65, 0
4, 185760, Note_off_c, 4, 60, 0
4, 185760, Note_off_c, 4, 57, 0
4, 185760, Note_off_c, 4, 53, 0
4, 185760, Note_on_c, 4, 41, 78
4, 185760, Note_on_c, 4, 48, 78
4, 185760, Note_on_c, 4, 53, 78
4, 185760, Note_on_c, 4, 57, 78
4, 185760, Note_on_c, 4, 60, 78
4, 185760, Note_on_c, 4, 65, 78
4, 186120, Note_off_c, 4, 65, 0
4, 186120, Note_off_c, 4, 60, 0
4, 186120, Note_off_c, 4, 57, 0
4, 186120, Note_off_c, 4, 53, 0
4, 186120, Note_off_c, 4, 48, 0
4, 186120, Note_off_c, 4, 41, 0
4, 186120, Note_on_c, 4, 45, 78
4, 186120, Note_on_c, 4, 57, 78
4, 186300, Note_off_c, 4, 57, 0
4, 186300, Note_off_c, 4, 45, 0
4, 186300, Note_on_c, 4, 45, 78
4, 186300, Note_on_c, 4, 57, 78
4, 186480, Note_off_c, 4, 57, 0
4, 186480, Note_off_c, 4, 45, 0
4, 186480, Note_on_c, 4, 43, 78
4, 186480, Note_on_c, 4, 55, 78
4, 186660, Note_off_c, 4, 55, 0
4, 186660, Note_off_c, 4, 43, 0
4, 186660, Note_on_c, 4, 44, 78
4, 186660, Note_on_c, 4, 56, 78
4, 186840, Note_off_c, 4, 56, 0
4, 186840, Note_off_c, 4, 44, 0
4, 186840, Note_on_c, 4, 43, 78
4, 186840, Note_on_c, 4, 55, 78
4, 187020, Note_off_c, 4, 55, 0
4, 187020, Note_off_c, 4, 43, 0
4, 187020, Note_on_c, 4, 44, 78
4, 187020, Note_on_c, 4, 56, 78
4, 187200, Note_off_c, 4, 56, 0
4, 187200, Note_off_c, 4, 44, 0
4, 187200, Note_on_c, 4, 41, 78
4, 187200, Note_on_c, 4, 48, 78
4, 187200, Note_on_c, 4, 53, 78
4, 187200, Note_on_c, 4, 56, 78
4, 187200, Note_on_c, 4, 60, 78
4, 187200, Note_on_c, 4, 65, 78
4, 187920, Note_off_c, 4, 65, 0
4, 187920, Note_off_c, 4, 60, 0
4, 187920, Note_off_c, 4, 56, 0
4, 187920, Note_off_c, 4, 53, 0
4, 187920, Note_off_c, 4, 48, 0
4, 187920, Note_off_c, 4, 41, 0
4, 187920, Note_on_c, 4, 41, 78
4, 187920, Note_on_c, 4, 48, 78
4, 187920, Note_on_c, 4, 53, 78
4, 187920, Note_on_c, 4, 56, 78
4, 187920, Note_on_c, 4, 60, 78
4, 187920, Note_on_c, 4, 65, 78
4, 188460, Note_off_c, 4, 65, 0
4, 188460, Note_off_c, 4, 60, 0
4, 188460, Note_off_c, 4, 56, 0
4, 188460, Note_off_c, 4, 53, 0
4, 188460, Note_off_c, 4, 48, 0
4, 188460, Note_off_c, 4, 41, 0
4, 188460, Note_on_c, 4, 53, 78
4, 188460, Note_on_c, 4, 56, 78
4, 188460, Note_on_c, 4, 60, 78
4, 188460, Note_on_c, 4, 65, 78
4, 188640, Note_off_c, 4, 65, 0
4, 188640, Note_off_c, 4, 60, 0
4, 188640, Note_off_c, 4, 56, 0
4, 188640, Note_off_c, 4, 53, 0
4, 188640, Note_on_c, 4, 41, 78
4, 188640, Note_on_c, 4, 48, 78
4, 188640, Note_on_c, 4, 53, 78
4, 188640, Note_on_c, 4, 57, 78
4, 188640, Note_on_c, 4, 60, 78
4, 189000, Note_off_c, 4, 60, 0
4, 189000, Note_off_c, 4, 57, 0
4, 189000, Note_off_c, 4, 53, 0
4, 189000, Note_off_c, 4, 48, 0
4, 189000, Note_off_c, 4, 41, 0
4, 189000, Note_on_c, 4, 44, 78
4, 189000, Note_on_c, 4, 56, 78
4, 189180, Note_off_c, 4, 56, 0
4, 189180, Note_off_c, 4, 44, 0
4, 189180, Note_on_c, 4, 44, 78
4, 189180, Note_on_c, 4, 56, 78
4, 189360, Note_off_c, 4, 56, 0
4, 189360, Note_off_c, 4, 44, 0
4, 189360, Note_on_c, 4, 45, 78
4, 189540, Note_off_c, 4, 45, 0
4, 189540, Note_on_c, 4, 43, 78
4, 189720, Note_off_c, 4, 43, 0
4, 189720, Note_on_c, 4, 43, 78
4, 189720, Note_on_c, 4, 48, 78
4, 189720, Note_on_c, 4, 52, 78
4, 189720, Note_on_c, 4, 55, 78
4, 189900, Note_off_c, 4, 55, 0
4, 189900, Note_off_c, 4, 52, 0
4, 189900, Note_off_c, 4, 48, 0
4, 189900, Note_off_c, 4, 43, 0
4, 189900, Note_on_c, 4, 43, 78
4, 189900, Note_on_c, 4, 48, 78
4, 189900, Note_on_c, 4, 52, 78
4, 189900, Note_on_c, 4, 55, 78
4, 190080, Note_off_c, 4, 55, 0
4, 190080, Note_off_c, 4, 52, 0
4, 190080, Note_off_c, 4, 48, 0
4, 190080, Note_off_c, 4, 43, 0
4, 190080, Note_on_c, 4, 43, 78
4, 190080, Note_on_c, 4, 48, 78
4, 190080, Note_on_c, 4, 52, 78
4, 190080, Note_on_c, 4, 55, 78
4, 190080, Note_on_c, 4, 60, 78
4, 190080, Note_on_c, 4, 64, 78
4, 190800, Note_off_c, 4, 64, 0
4, 190800, Note_off_c, 4, 60, 0
4, 190800, Note_off_c, 4, 55, 0
4, 190800, Note_off_c, 4, 52, 0
4, 190800, Note_off_c, 4, 48, 0
4, 190800, Note_off_c, 4, 43, 0
4, 190800, Note_on_c, 4, 43, 78
4, 190800, Note_on_c, 4, 48, 78
4, 190800, Note_on_c, 4, 52, 78
4, 190800, Note_on_c, 4, 55, 78
4, 190800, Note_on_c, 4, 60, 78
4, 190800, Note_on_c, 4, 64, 78
4, 191340, Note_off_c, 4, 64, 0
4, 191340, Note_off_c, 4, 60, 0
4, 191340, Note_off_c, 4, 55, 0
4, 191340, Note_off_c, 4, 52, 0
4, 191340, Note_off_c, 4, 48, 0
4, 191340, Note_off_c, 4, 43, 0
4, 191340, Note_on_c, 4, 55, 78
4, 191340, Note_on_c, 4, 60, 78
4, 191340, Note_on_c, 4, 64, 78
4, 191520, Note_off_c, 4, 64, 0
4, 191520, Note_off_c, 4, 60, 0
4, 191520, Note_off_c, 4, 55, 0
4, 191520, Note_on_c, 4, 43, 78
4, 191520, Note_on_c, 4, 48, 78
4, 191520, Note_on_c, 4, 52, 78
4, 191520, Note_on_c, 4, 55, 78
4, 191520, Note_on_c, 4, 60, 78
4, 191520, Note_on_c, 4, 64, 78
4, 191880, Note_off_c, 4, 64, 0
4, 191880, Note_off_c, 4, 60, 0
4, 191880, Note_off_c, 4, 55, 0
4, 191880, Note_off_c, 4, 52, 0
4, 191880, Note_off_c, 4, 48, 0
4, 191880, Note_off_c, 4, 43, 0
4, 191880, Note_on_c, 4, 52, 78
4, 191880, Note_on_c, 4, 55, 78
4, 191880, Note_on_c, 4, 60, 78
4, 191880, Note_on_c, 4, 64, 78
4, 192240, Note_off_c, 4, 64, 0
4, 192240, Note_off_c, 4, 60, 0
4, 192240, Note_off_c, 4, 55, 0
4, 192240, Note_off_c, 4, 52, 0
4, 192240, Note_on_c, 4, 52, 78
4, 192240, Note_on_c, 4, 55, 78
4, 192240, Note_on_c, 4, 60, 78
4, 192240, Note_on_c, 4, 64, 78
4, 192420, Note_off_c, 4, 64, 0
4, 192420, Note_off_c, 4, 60, 0
4, 192420, Note_off_c, 4, 55, 0
4, 192420, Note_off_c, 4, 52, 0
4, 192420, Note_on_c, 4, 52, 78
4, 192420, Note_on_c, 4, 55, 78
4, 192420, Note_on_c, 4, 60, 78
4, 192420, Note_on_c, 4, 64, 78
4, 192600, Note_off_c, 4, 64, 0
4, 192600, Note_off_c, 4, 60, 0
4, 192600, Note_off_c, 4, 55, 0
4, 192600, Note_off_c, 4, 52, 0
4, 192600, Note_on_c, 4, 47, 78
4, 192600, Note_on_c, 4, 54, 78
4, 192600, Note_on_c, 4, 59, 78
4, 192600, Note_on_c, 4, 62, 78
4, 192600, Note_on_c, 4, 66, 78
4, 193320, Note_off_c, 4, 66, 0
4, 193320, Note_off_c, 4, 62, 0
4, 193320, Note_off_c, 4, 59, 0
4, 193320, Note_off_c, 4, 54, 0
4, 193320, Note_off_c, 4, 47, 0
4, 193320, Note_on_c, 4, 47, 78
4, 193680, Note_off_c, 4, 47, 0
4, 193680, Note_on_c, 4, 47, 78
4, 193680, Note_on_c, 4, 54, 78
4, 193680, Note_on_c, 4, 59, 78
4, 193680, Note_on_c, 4, 62, 78
4, 193680, Note_on_c, 4, 66, 78
4, 194220, Note_off_c, 4, 66, 0
4, 194220, Note_off_c, 4, 62, 0
4, 194220, Note_off_c, 4, 59, 0
4, 194220, Note_off_c, 4, 54, 0
4, 194220, Note_off_c, 4, 47, 0
4, 194220, Note_on_c, 4, 59, 78
4, 194220, Note_on_c, 4, 62, 78
4, 194220, Note_on_c, 4, 66, 78
4, 194400, Note_off_c, 4, 66, 0
4, 194400, Note_off_c, 4, 62, 0
4, 194400, Note_off_c, 4, 59, 0
4, 194400, Note_on_c, 4, 47, 78
4, 194400, Note_on_c, 4, 54, 78
4, 194400, Note_on_c, 4, 59, 78
4, 194400, Note_on_c, 4, 62, 78
4, 194400, Note_on_c, 4, 66, 78
4, 194760, Note_off_c, 4, 66, 0
4, 194760, Note_off_c, 4, 62, 0
4, 194760, Note_off_c, 4, 59, 0
4, 194760, Note_off_c, 4, 54, 0
4, 194760, Note_off_c, 4, 47, 0
4, 194760, Note_on_c, 4, 54, 78
4, 194760, Note_on_c, 4, 59, 78
4, 194760, Note_on_c, 4, 62, 78
4, 194760, Note_on_c, 4, 66, 78
4, 195120, Note_off_c, 4, 66, 0
4, 195120, Note_off_c, 4, 62, 0
4, 195120, Note_off_c, 4, 59, 0
4, 195120, Note_off_c, 4, 54, 0
4, 195120, Note_on_c, 4, 59, 78
4, 195300, Note_off_c, 4, 59, 0
4, 195300, Note_on_c, 4, 60, 78
4, 195480, Note_off_c, 4, 60, 0
4, 195480, Note_on_c, 4, 59, 78
4, 195660, Note_off_c, 4, 59, 0
4, 195660, Note_on_c, 4, 60, 78
4, 195840, Note_off_c, 4, 60, 0
4, 195840, Note_on_c, 4, 45, 78
4, 195840, Note_on_c, 4, 52, 78
4, 195840, Note_on_c, 4, 57, 78
4, 195840, Note_on_c, 4, 60, 78
4, 195840, Note_on_c, 4, 64, 78
4, 196560, Note_off_c, 4, 64, 0
4, 196560, Note_off_c, 4, 60, 0
4, 196560, Note_off_c, 4, 57, 0
4, 196560, Note_off_c, 4, 52, 0
4, 196560, Note_off_c, 4, 45, 0
4, 196560, Note_on_c, 4, 45, 78
4, 196560, Note_on_c, 4, 52, 78
4, 196560, Note_on_c, 4, 57, 78
4, 196560, Note_on_c, 4, 60, 78
4, 196560, Note_on_c, 4, 64, 78
4, 196560, Note_on_c, 4, 69, 78
4, 197100, Note_off_c, 4, 69, 0
4, 197100, Note_off_c, 4, 64, 0
4, 197100, Note_off_c, 4, 60, 0
4, 197100, Note_off_c, 4, 57, 0
4, 197100, Note_off_c, 4, 52, 0
4, 197100, Note_off_c, 4, 45, 0
4, 197100, Note_on_c, 4, 57, 78
4, 197100, Note_on_c, 4, 60, 78
4, 197100, Note_on_c, 4, 64, 78
4, 197100, Note_on_c, 4, 69, 78
4, 197280, Note_off_c, 4, 69, 0
4, 197280, Note_off_c, 4, 64, 0
4, 197280, Note_off_c, 4, 60, 0
4, 197280, Note_off_c, 4, 57, 0
4, 197280, Note_on_c, 4, 45, 78
4, 197280, Note_on_c, 4, 52, 78
4, 197280, Note_on_c, 4, 57, 78
4, 197280, Note_on_c, 4, 60, 78
4, 197280, Note_on_c, 4, 64, 78
4, 197640, Note_off_c, 4, 64, 0
4, 197640, Note_off_c, 4, 60, 0
4, 197640, Note_off_c, 4, 57, 0
4, 197640, Note_off_c, 4, 52, 0
4, 197640, Note_off_c, 4, 45, 0
4, 197640, Note_on_c, 4, 45, 78
4, 197640, Note_on_c, 4, 57, 78
4, 197820, Note_off_c, 4, 57, 0
4, 197820, Note_off_c, 4, 45, 0
4, 197820, Note_on_c, 4, 45, 78
4, 197820, Note_on_c, 4, 57, 78
4, 198000, Note_off_c, 4, 57, 0
4, 198000, Note_off_c, 4, 45, 0
4, 198000, Note_on_c, 4, 43, 78
4, 198000, Note_on_c, 4, 55, 78
4, 198180, Note_off_c, 4, 55, 0
4, 198180, Note_off_c, 4, 43, 0
4, 198180, Note_on_c, 4, 43, 78
4, 198180, Note_on_c, 4, 55, 78
4, 198360, Note_off_c, 4, 55, 0
4, 198360, Note_off_c, 4, 43, 0
4, 198360, Note_on_c, 4, 41, 78
4, 198360, Note_on_c, 4, 48, 78
4, 198360, Note_on_c, 4, 53, 78
4, 198360, Note_on_c, 4, 57, 78
4, 198360, Note_on_c, 4, 60, 78
4, 198360, Note_on_c, 4, 65, 78
4, 199080, Note_off_c, 4, 65, 0
4, 199080, Note_off_c, 4, 60, 0
4, 199080, Note_off_c, 4, 57, 0
4, 199080, Note_off_c, 4, 53, 0
4, 199080, Note_off_c, 4, 48, 0
4, 199080, Note_off_c, 4, 41, 0
4, 199080, Note_on_c, 4, 41, 78
4, 199440, Note_off_c, 4, 41, 0
4, 199440, Note_on_c, 4, 41, 78
4, 199440, Note_on_c, 4, 48, 78
4, 199440, Note_on_c, 4, 53, 78
4, 199440, Note_on_c, 4, 57, 78
4, 199440, Note_on_c, 4, 60, 78
4, 199440, Note_on_c, 4, 65, 78
4, 199980, Note_off_c, 4, 65, 0
4, 199980, Note_off_c, 4, 60, 0
4, 199980, Note_off_c, 4, 57, 0
4, 199980, Note_off_c, 4, 53, 0
4, 199980, Note_off_c, 4, 48, 0
4, 199980, Note_off_c, 4, 41, 0
4, 199980, Note_on_c, 4, 53, 78
4, 199980, Note_on_c, 4, 57, 78
4, 199980, Note_on_c, 4, 60, 78
4, 199980, Note_on_c, 4, 65, 78
4, 200160, Note_off_c, 4, 65, 0
4, 200160, Note_off_c, 4, 60, 0
4, 200160, Note_off_c, 4, 57, 0
4, 200160, Note_off_c, 4, 53, 0
4, 200160, Note_on_c, 4, 41, 78
4, 200160, Note_on_c, 4, 48, 78
4, 200160, Note_on_c, 4, 53, 78
4, 200160, Note_on_c, 4, 57, 78
4, 200160, Note_on_c, 4, 60, 78
4, 200160, Note_on_c, 4, 65, 78
4, 200520, Note_off_c, 4, 65, 0
4, 200520, Note_off_c, 4, 60, 0
4, 200520, Note_off_c, 4, 57, 0
4, 200520, Note_off_c, 4, 53, 0
4, 200520, Note_off_c, 4, 48, 0
4, 200520, Note_off_c, 4, 41, 0
4, 200520, Note_on_c, 4, 45, 78
4, 200520, Note_on_c, 4, 57, 78
4, 200700, Note_off_c, 4, 57, 0
4, 200700, Note_off_c, 4, 45, 0
4, 200700, Note_on_c, 5, 45, 78
4, 200700, Note_on_c, 5, 57, 78
4, 200720, Pitch_bend_c, 5, 8112
4, 200740, Pitch_bend_c, 5, 8037
4, 200760, Pitch_bend_c, 5, 7962
4, 200780, Pitch_bend_c, 5, 7887
4, 200800, Pitch_bend_c, 5, 7812
4, 200820, Pitch_bend_c, 5, 7737
4, 200840, Pitch_bend_c, 5, 7662
4, 200860, Pitch_bend_c, 5, 7587
4, 200880, Pitch_bend_c, 5, 7512
4, 201060, Note_off_c, 5, 57, 0
4, 201060, Note_off_c, 5, 45, 0
4, 201060, Pitch_bend_c, 5, 8192
4, 201060, Note_on_c, 5, 45, 78
4, 201060, Note_on_c, 5, 57, 78
4, 201080, Pitch_bend_c, 5, 8112
4, 201100, Pitch_bend_c, 5, 8037
4, 201120, Pitch_bend_c, 5, 7962
4, 201140, Pitch_bend_c, 5, 7887
4, 201160, Pitch_bend_c, 5, 7812
4, 201180, Pitch_bend_c, 5, 7737
4, 201200, Pitch_bend_c, 5, 7662
4, 201220, Pitch_bend_c, 5, 7587
4, 201240, Pitch_bend_c, 5, 7512
4, 201420, Note_off_c, 5, 57, 0
4, 201420, Note_off_c, 5, 45, 0
4, 201420, Pitch_bend_c, 5, 8192
4, 201420, Note_on_c, 4, 45, 78
4, 201420, Note_on_c, 4, 57, 78
4, 201600, Note_off_c, 4, 57, 0
4, 201600, Note_off_c, 4, 45, 0
4, 201600, Note_on_c, 4, 45, 78
4, 201600, Note_on_c, 4, 52, 78
4, 201600, Note_on_c, 4, 57, 78
4, 201600, Note_on_c, 4, 60, 78
4, 201600, Note_on_c, 4, 64, 78
4, 202320, Note_off_c, 4, 64, 0
4, 202320, Note_off_c, 4, 60, 0
4, 202320, Note_off_c, 4, 57, 0
4, 202320, Note_off_c, 4, 52, 0
4, 202320, Note_off_c, 4, 45, 0
4, 202320, Note_on_c, 4, 45, 78
4, 202320, Note_on_c, 4, 52, 78
4, 202320, Note_on_c, 4, 57, 78
4, 202320, Note_on_c, 4, 60, 78
4, 202320, Note_on_c, 4, 64, 78
4, 202320, Note_on_c, 4, 69, 78
4, 202860, Note_off_c, 4, 69, 0
4, 202860, Note_off_c, 4, 64, 0
4, 202860, Note_off_c, 4, 60, 0
4, 202860, Note_off_c, 4, 57, 0
4, 202860, Note_off_c, 4, 52, 0
4, 202860, Note_off_c, 4, 45, 0
4, 202860, Note_on_c, 4, 57, 78
4, 202860, Note_on_c, 4, 60, 78
4, 202860, Note_on_c, 4, 64, 78
4, 202860, Note_on_c, 4, 69, 78
4, 203040, Note_off_c, 4, 69, 0
4, 203040, Note_off_c, 4, 64, 0
4, 203040, Note_off_c, 4, 60, 0
4, 203040, Note_off_c, 4, 57, 0
4, 203040, Note_on_c, 4, 45, 78
4, 203040, Note_on_c, 4, 52, 78
4, 203040, Note_on_c, 4, 57, 78
4, 203040, Note_on_c, 4, 60, 78
4, 203040, Note_on_c, 4, 64, 78
4, 203400, Note_off_c, 4, 64, 0
4, 203400, Note_off_c, 4, 60, 0
4, 203400, Note_off_c, 4, 57, 0
4, 203400, Note_off_c, 4, 52, 0
4, 203400, Note_off_c, 4, 45, 0
4, 203400, Note_on_c, 4, 45, 78
4, 203400, Note_on_c, 4, 57, 78
4, 203580, Note_off_c, 4, 57, 0
4, 203580, Note_off_c, 4, 45, 0
4, 203580, Note_on_c, 4, 45, 78
4, 203580, Note_on_c, 4, 57, 78
4, 203760, Note_off_c, 4, 57, 0
4, 203760, Note_off_c, 4, 45, 0
4, 203760, Note_on_c, 4, 43, 78
4, 203760, Note_on_c, 4, 55, 78
4, 203940, Note_off_c, 4, 55, 0
4, 203940, Note_off_c, 4, 43, 0
4, 203940, Note_on_c, 4, 43, 78
4, 203940, Note_on_c, 4, 55, 78
4, 204120, Note_off_c, 4, 55, 0
4, 204120, Note_off_c, 4, 43, 0
4, 204120, Note_on_c, 4, 41, 78
4, 204120, Note_on_c, 4, 48, 78
4, 204120, Note_on_c, 4, 53, 78
4, 204120, Note_on_c, 4, 57, 78
4, 204120, Note_on_c, 4, 60, 78
4, 204120, Note_on_c, 4, 65, 78
4, 204840, Note_off_c, 4, 65, 0
4, 204840, Note_off_c, 4, 60, 0
4, 204840, Note_off_c, 4, 57, 0
4, 204840, Note_off_c, 4, 53, 0
4, 204840, Note_off_c, 4, 48, 0
4, 204840, Note_off_c, 4, 41, 0
4, 204840, Note_on_c, 4, 41, 78
4, 205200, Note_off_c, 4, 41, 0
4, 205200, Note_on_c, 4, 41, 78
4, 205200, Note_on_c, 4, 48, 78
4, 205200, Note_on_c, 4, 53, 78
4, 205200, Note_on_c, 4, 57, 78
4, 205200, Note_on_c, 4, 60, 78
4, 205200, Note_on_c, 4, 65, 78
4, 205740, Note_off_c, 4, 65, 0
4, 205740, Note_off_c, 4, 60, 0
4, 205740, Note_off_c, 4, 57, 0
4, 205740, Note_off_c, 4, 53, 0
4, 205740, Note_off_c, 4, 48, 0
4, 205740, Note_off_c, 4, 41, 0
4, 205740, Note_on_c, 4, 53, 78
4, 205740, Note_on_c, 4, 57, 78
4, 205740, Note_on_c, 4, 60, 78
4, 205740, Note_on_c, 4, 65, 78
4, 205920, Note_off_c, 4, 65, 0
4, 205920, Note_off_c, 4, 60, 0
4, 205920, Note_off_c, 4, 57, 0
4, 205920, Note_off_c, 4, 53, 0
4, 205920, Note_on_c, 4, 41, 78
4, 205920, Note_on_c, 4, 48, 78
4, 205920, Note_on_c, 4, 53, 78
4, 205920, Note_on_c, 4, 57, 78
4, 205920, Note_on_c, 4, 60, 78
4, 205920, Note_on_c, 4, 65, 78
4, 206280, Note_off_c, 4, 65, 0
4, 206280, Note_off_c, 4, 60, 0
4, 206280, Note_off_c, 4, 57, 0
4, 206280, Note_off_c, 4, 53, 0
4, 206280, Note_off_c, 4, 48, 0
4, 206280, Note_off_c, 4, 41, 0
4, 206280, Note_on_c, 4, 45, 78
4, 206280, Note_on_c, 4, 57, 78
4, 206460, Note_off_c, 4, 57, 0
4, 206460, Note_off_c, 4, 45, 0
4, 206460, Note_on_c, 4, 45, 78
4, 206460, Note_on_c, 4, 57, 78
4, 206640, Note_off_c, 4, 57, 0
4, 206640, Note_off_c, 4, 45, 0
4, 206640, Note_on_c, 4, 43, 78
4, 206640, Note_on_c, 4, 55, 78
4, 206820, Note_off_c, 4, 55, 0
4, 206820, Note_off_c, 4, 43, 0
4, 206820, Note_on_c, 4, 44, 78
4, 206820, Note_on_c, 4, 56, 78
4, 207000, Note_off_c, 4, 56, 0
4, 207000, Note_off_c, 4, 44, 0
4, 207000, Note_on_c, 4, 43, 78
4, 207000, Note_on_c, 4, 55, 78
4, 207180, Note_off_c, 4, 55, 0
4, 207180, Note_off_c, 4, 43, 0
4, 207180, Note_on_c, 4, 44, 78
4, 207180, Note_on_c, 4, 56, 78
4, 207360, Note_off_c, 4, 56, 0
4, 207360, Note_off_c, 4, 44, 0
4, 207360, Note_on_c, 4, 41, 78
4, 207360, Note_on_c, 4, 48, 78
4, 207360, Note_on_c, 4, 53, 78
4, 207360, Note_on_c, 4, 56, 78
4, 207360, Note_on_c, 4, 60, 78
4, 207360, Note_on_c, 4, 65, 78
4, 208080, Note_off_c, 4, 65, 0
4, 208080, Note_off_c, 4, 60, 0
4, 208080, Note_off_c, 4, 56, 0
4, 208080, Note_off_c, 4, 53, 0
4, 208080, Note_off_c, 4, 48, 0
4, 208080, Note_off_c, 4, 41, 0
4, 208080, Note_on_c, 4, 41, 78
4, 208080, Note_on_c, 4, 48, 78
4, 208080, Note_on_c, 4, 53, 78
4, 208080, Note_on_c, 4, 56, 78
4, 208080, Note_on_c, 4, 60, 78
4, 208080, Note_on_c, 4, 65, 78
4, 208620, Note_off_c, 4, 65, 0
4, 208620, Note_off_c, 4, 60, 0
4, 208620, Note_off_c, 4, 56, 0
4, 208620, Note_off_c, 4, 53, 0
4, 208620, Note_off_c, 4, 48, 0
4, 208620, Note_off_c, 4, 41, 0
4, 208620, Note_on_c, 4, 53, 78
4, 208620, Note_on_c, 4, 56, 78
4, 208620, Note_on_c, 4, 60, 78
4, 208620, Note_on_c, 4, 65, 78
4, 208800, Note_off_c, 4, 65, 0
4, 208800, Note_off_c, 4, 60, 0
4, 208800, Note_off_c, 4, 56, 0
4, 208800, Note_off_c, 4, 53, 0
4, 208800, Note_on_c, 4, 41, 78
4, 208800, Note_on_c, 4, 48, 78
4, 208800, Note_on_c, 4, 53, 78
4, 208800, Note_on_c, 4, 56, 78
4, 208800, Note_on_c, 4, 60, 78
4, 209160, Note_off_c, 4, 60, 0
4, 209160, Note_off_c, 4, 56, 0
4, 209160, Note_off_c, 4, 53, 0
4, 209160, Note_off_c, 4, 48, 0
4, 209160, Note_off_c, 4, 41, 0
4, 209160, Note_on_c, 4, 44, 78
4, 209160, Note_on_c, 4, 56, 78
4, 209340, Note_off_c, 4, 56, 0
4, 209340, Note_off_c, 4, 44, 0
4, 209340, Note_on_c, 4, 44, 78
4, 209340, Note_on_c, 4, 56, 78
4, 209520, Note_off_c, 4, 56, 0
4, 209520, Note_off_c, 4, 44, 0
4, 209520, Note_on_c, 4, 44, 78
4, 209520, Note_on_c, 4, 56, 78
4, 209700, Note_off_c, 4, 56, 0
4, 209700, Note_off_c, 4, 44, 0
4, 209700, Note_on_c, 4, 44, 78
4, 209700, Note_on_c, 4, 56, 78
4, 209880, Note_off_c, 4, 56, 0
4, 209880, Note_off_c, 4, 44, 0
4, 209880, Note_on_c, 4, 43, 78
4, 209880, Note_on_c, 4, 55, 78
4, 210060, Note_off_c, 4, 55, 0
4, 210060, Note_off_c, 4, 43, 0
4, 210060, Note_on_c, 4, 43, 78
4, 210060, Note_on_c, 4, 55, 78
4, 210240, Note_off_c, 4, 55, 0
4, 210240, Note_off_c, 4, 43, 0
4, 210240, Note_on_c, 4, 45, 65
4, 210240, Note_on_c, 4, 52, 65
4, 210240, Note_on_c, 4, 57, 65
4, 210240, Note_on_c, 4, 61, 65
4, 210240, Note_on_c, 4, 64, 65
4, 210240, Note_on_c, 4, 69, 65
4, 210600, Note_off_c, 4, 69, 0
4, 210600, Note_off_c, 4, 64, 0
4, 210600, Note_off_c, 4, 61, 0
4, 210600, Note_off_c, 4, 57, 0
4, 210600, Note_off_c, 4, 52, 0
4, 210600, Note_off_c, 4, 45, 0
4, 210600, Note_on_c, 4, 45, 65
4, 210600, Note_on_c, 4, 52, 65
4, 210600, Note_on_c, 4, 57, 65
4, 210600, Note_on_c, 4, 61, 65
4, 210600, Note_on_c, 4, 64, 65
4, 210600, Note_on_c, 4, 69, 65
4, 210960, Note_off_c, 4, 69, 0
4, 210960, Note_off_c, 4, 64, 0
4, 210960, Note_off_c, 4, 61, 0
4, 210960, Note_off_c, 4, 57, 0
4, 210960, Note_off_c, 4, 52, 0
4, 210960, Note_off_c, 4, 45, 0
4, 210960, Note_on_c, 4, 45, 65
4, 210960, Note_on_c, 4, 52, 65
4, 210960, Note_on_c, 4, 57, 65
4, 210960, Note_on_c, 4, 61, 65
4, 210960, Note_on_c, 4, 64, 65
4, 210960, Note_on_c, 4, 69, 65
4, 211320, Note_off_c, 4, 69, 0
4, 211320, Note_off_c, 4, 64, 0
4, 211320, Note_off_c, 4, 61, 0
4, 211320, Note_off_c, 4, 57, 0
4, 211320, Note_off_c, 4, 52, 0
4, 211320, Note_off_c, 4, 45, 0
4, 211320, Note_on_c, 4, 45, 65
4, 211320, Note_on_c, 4, 52, 65
4, 211320, Note_on_c, 4, 57, 65
4, 211320, Note_on_c, 4, 61, 65
4, 211320, Note_on_c, 4, 64, 65
4, 211320, Note_on_c, 4, 69, 65
4, 211680, Note_off_c, 4, 69, 0
4, 211680, Note_off_c, 4, 64, 0
4, 211680, Note_off_c, 4, 61, 0
4, 211680, Note_off_c, 4, 57, 0
4, 211680, Note_off_c, 4, 52, 0
4, 211680, Note_off_c, 4, 45, 0
4, 211680, Note_on_c, 4, 45, 65
4, 211680, Note_on_c, 4, 52, 65
4, 211680, Note_on_c, 4, 57, 65
4, 211680, Note_on_c, 4, 61, 65
4, 211680, Note_on_c, 4, 64, 65
4, 211680, Note_on_c, 4, 69, 65
4, 212040, Note_off_c, 4, 69, 0
4, 212040, Note_off_c, 4, 64, 0
4, 212040, Note_off_c, 4, 61, 0
4, 212040, Note_off_c, 4, 57, 0
4, 212040, Note_off_c, 4, 52, 0
4, 212040, Note_off_c, 4, 45, 0
4, 212040, Note_on_c, 4, 45, 65
4, 212040, Note_on_c, 4, 52, 65
4, 212040, Note_on_c, 4, 57, 65
4, 212040, Note_on_c, 4, 61, 65
4, 212040, Note_on_c, 4, 64, 65
4, 212040, Note_on_c, 4, 69, 65
4, 212400, Note_off_c, 4, 69, 0
4, 212400, Note_off_c, 4, 64, 0
4, 212400, Note_off_c, 4, 61, 0
4, 212400, Note_off_c, 4, 57, 0
4, 212400, Note_off_c, 4, 52, 0
4, 212400, Note_off_c, 4, 45, 0
4, 212400, Note_on_c, 4, 45, 65
4, 212400, Note_on_c, 4, 52, 65
4, 212400, Note_on_c, 4, 57, 65
4, 212400, Note_on_c, 4, 61, 65
4, 212400, Note_on_c, 4, 64, 65
4, 212400, Note_on_c, 4, 69, 65
4, 212760, Note_off_c, 4, 69, 0
4, 212760, Note_off_c, 4, 64, 0
4, 212760, Note_off_c, 4, 61, 0
4, 212760, Note_off_c, 4, 57, 0
4, 212760, Note_off_c, 4, 52, 0
4, 212760, Note_off_c, 4, 45, 0
4, 212760, Note_on_c, 4, 45, 65
4, 212760, Note_on_c, 4, 52, 65
4, 212760, Note_on_c, 4, 57, 65
4, 212760, Note_on_c, 4, 61, 65
4, 212760, Note_on_c, 4, 64, 65
4, 212760, Note_on_c, 4, 69, 65
4, 213120, Note_off_c, 4, 69, 0
4, 213120, Note_off_c, 4, 64, 0
4, 213120, Note_off_c, 4, 61, 0
4, 213120, Note_off_c, 4, 57, 0
4, 213120, Note_off_c, 4, 52, 0
4, 213120, Note_off_c, 4, 45, 0
4, 213120, Note_on_c, 4, 45, 65
4, 213120, Note_on_c, 4, 52, 65
4, 213120, Note_on_c, 4, 57, 65
4, 213120, Note_on_c, 4, 61, 65
4, 213120, Note_on_c, 4, 64, 65
4, 213120, Note_on_c, 4, 69, 65
4, 213480, Note_off_c, 4, 69, 0
4, 213480, Note_off_c, 4, 64, 0
4, 213480, Note_off_c, 4, 61, 0
4, 213480, Note_off_c, 4, 57, 0
4, 213480, Note_off_c, 4, 52, 0
4, 213480, Note_off_c, 4, 45, 0
4, 213480, Note_on_c, 4, 45, 65
4, 213480, Note_on_c, 4, 52, 65
4, 213480, Note_on_c, 4, 57, 65
4, 213480, Note_on_c, 4, 61, 65
4, 213480, Note_on_c, 4, 64, 65
4, 213480, Note_on_c, 4, 69, 65
4, 213840, Note_off_c, 4, 69, 0
4, 213840, Note_off_c, 4, 64, 0
4, 213840, Note_off_c, 4, 61, 0
4, 213840, Note_off_c, 4, 57, 0
4, 213840, Note_off_c, 4, 52, 0
4, 213840, Note_off_c, 4, 45, 0
4, 213840, Note_on_c, 4, 45, 65
4, 213840, Note_on_c, 4, 52, 65
4, 213840, Note_on_c, 4, 57, 65
4, 213840, Note_on_c, 4, 61, 65
4, 213840, Note_on_c, 4, 64, 65
4, 213840, Note_on_c, 4, 69, 65
4, 214200, Note_off_c, 4, 69, 0
4, 214200, Note_off_c, 4, 64, 0
4, 214200, Note_off_c, 4, 61, 0
4, 214200, Note_off_c, 4, 57, 0
4, 214200, Note_off_c, 4, 52, 0
4, 214200, Note_off_c, 4, 45, 0
4, 214200, Note_on_c, 4, 45, 65
4, 214200, Note_on_c, 4, 52, 65
4, 214200, Note_on_c, 4, 57, 65
4, 214200, Note_on_c, 4, 61, 65
4, 214200, Note_on_c, 4, 64, 65
4, 214200, Note_on_c, 4, 69, 65
4, 214560, Note_off_c, 4, 69, 0
4, 214560, Note_off_c, 4, 64, 0
4, 214560, Note_off_c, 4, 61, 0
4, 214560, Note_off_c, 4, 57, 0
4, 214560, Note_off_c, 4, 52, 0
4, 214560, Note_off_c, 4, 45, 0
4, 214560, Note_on_c, 4, 45, 65
4, 214560, Note_on_c, 4, 52, 65
4, 214560, Note_on_c, 4, 57, 65
4, 214560, Note_on_c, 4, 61, 65
4, 214560, Note_on_c, 4, 64, 65
4, 214560, Note_on_c, 4, 69, 65
4, 214920, Note_off_c, 4, 69, 0
4, 214920, Note_off_c, 4, 64, 0
4, 214920, Note_off_c, 4, 61, 0
4, 214920, Note_off_c, 4, 57, 0
4, 214920, Note_off_c, 4, 52, 0
4, 214920, Note_off_c, 4, 45, 0
4, 214920, Note_on_c, 4, 45, 65
4, 214920, Note_on_c, 4, 52, 65
4, 214920, Note_on_c, 4, 57, 65
4, 214920, Note_on_c, 4, 61, 65
4, 214920, Note_on_c, 4, 64, 65
4, 214920, Note_on_c, 4, 69, 65
4, 215280, Note_off_c, 4, 69, 0
4, 215280, Note_off_c, 4, 64, 0
4, 215280, Note_off_c, 4, 61, 0
4, 215280, Note_off_c, 4, 57, 0
4, 215280, Note_off_c, 4, 52, 0
4, 215280, Note_off_c, 4, 45, 0
4, 215280, Note_on_c, 4, 45, 65
4, 215280, Note_on_c, 4, 52, 65
4, 215280, Note_on_c, 4, 57, 65
4, 215280, Note_on_c, 4, 61, 65
4, 215280, Note_on_c, 4, 64, 65
4, 215280, Note_on_c, 4, 69, 65
4, 215640, Note_off_c, 4, 69, 0
4, 215640, Note_off_c, 4, 64, 0
4, 215640, Note_off_c, 4, 61, 0
4, 215640, Note_off_c, 4, 57, 0
4, 215640, Note_off_c, 4, 52, 0
4, 215640, Note_off_c, 4, 45, 0
4, 215640, Note_on_c, 4, 45, 65
4, 215640, Note_on_c, 4, 52, 65
4, 215640, Note_on_c, 4, 57, 65
4, 215640, Note_on_c, 4, 61, 65
4, 215640, Note_on_c, 4, 64, 65
4, 215640, Note_on_c, 4, 69, 65
4, 216000, Note_off_c, 4, 69, 0
4, 216000, Note_off_c, 4, 64, 0
4, 216000, Note_off_c, 4, 61, 0
4, 216000, Note_off_c, 4, 57, 0
4, 216000, Note_off_c, 4, 52, 0
4, 216000, Note_off_c, 4, 45, 0
4, 216000, Note_on_c, 4, 48, 65
4, 216000, Note_on_c, 4, 55, 65
4, 216000, Note_on_c, 4, 60, 65
4, 216000, Note_on_c, 4, 64, 65
4, 216000, Note_on_c, 4, 67, 65
4, 216000, Note_on_c, 4, 72, 65
4, 216360, Note_off_c, 4, 72, 0
4, 216360, Note_off_c, 4, 67, 0
4, 216360, Note_off_c, 4, 64, 0
4, 216360, Note_off_c, 4, 60, 0
4, 216360, Note_off_c, 4, 55, 0
4, 216360, Note_off_c, 4, 48, 0
4, 216360, Note_on_c, 4, 48, 65
4, 216360, Note_on_c, 4, 55, 65
4, 216360, Note_on_c, 4, 60, 65
4, 216360, Note_on_c, 4, 64, 65
4, 216360, Note_on_c, 4, 67, 65
4, 216360, Note_on_c, 4, 72, 65
4, 216720, Note_off_c, 4, 72, 0
4, 216720, Note_off_c, 4, 67, 0
4, 216720, Note_off_c, 4, 64, 0
4, 216720, Note_off_c, 4, 60, 0
4, 216720, Note_off_c, 4, 55, 0
4, 216720, Note_off_c, 4, 48, 0
4, 216720, Note_on_c, 4, 48, 65
4, 216720, Note_on_c, 4, 55, 65
4, 216720, Note_on_c, 4, 60, 65
4, 216720, Note_on_c, 4, 64, 65
4, 216720, Note_on_c, 4, 67, 65
4, 216720, Note_on_c, 4, 72, 65
4, 217080, Note_off_c, 4, 72, 0
4, 217080, Note_off_c, 4, 67, 0
4, 217080, Note_off_c, 4, 64, 0
4, 217080, Note_off_c, 4, 60, 0
4, 217080, Note_off_c, 4, 55, 0
4, 217080, Note_off_c, 4, 48, 0
4, 217080, Note_on_c, 4, 48, 65
4, 217080, Note_on_c, 4, 55, 65
4, 217080, Note_on_c, 4, 60, 65
4, 217080, Note_on_c, 4, 64, 65
4, 217080, Note_on_c, 4, 67, 65
4, 217080, Note_on_c, 4, 72, 65
4, 217440, Note_off_c, 4, 72, 0
4, 217440, Note_off_c, 4, 67, 0
4, 217440, Note_off_c, 4, 64, 0
4, 217440, Note_off_c, 4, 60, 0
4, 217440, Note_off_c, 4, 55, 0
4, 217440, Note_off_c, 4, 48, 0
4, 217440, Note_on_c, 4, 48, 65
4, 217440, Note_on_c, 4, 55, 65
4, 217440, Note_on_c, 4, 60, 65
4, 217440, Note_on_c, 4, 64, 65
4, 217440, Note_on_c, 4, 67, 65
4, 217440, Note_on_c, 4, 72, 65
4, 217800, Note_off_c, 4, 72, 0
4, 217800, Note_off_c, 4, 67, 0
4, 217800, Note_off_c, 4, 64, 0
4, 217800, Note_off_c, 4, 60, 0
4, 217800, Note_off_c, 4, 55, 0
4, 217800, Note_off_c, 4, 48, 0
4, 217800, Note_on_c, 4, 48, 65
4, 217800, Note_on_c, 4, 55, 65
4, 217800, Note_on_c, 4, 60, 65
4, 217800, Note_on_c, 4, 64, 65
4, 217800, Note_on_c, 4, 67, 65
4, 217800, Note_on_c, 4, 72, 65
4, 218160, Note_off_c, 4, 72, 0
4, 218160, Note_off_c, 4, 67, 0
4, 218160, Note_off_c, 4, 64, 0
4, 218160, Note_off_c, 4, 60, 0
4, 218160, Note_off_c, 4, 55, 0
4, 218160, Note_off_c, 4, 48, 0
4, 218160, Note_on_c, 4, 48, 65
4, 218160, Note_on_c, 4, 55, 65
4, 218160, Note_on_c, 4, 60, 65
4, 218160, Note_on_c, 4, 64, 65
4, 218160, Note_on_c, 4, 67, 65
4, 218160, Note_on_c, 4, 72, 65
4, 218520, Note_off_c, 4, 72, 0
4, 218520, Note_off_c, 4, 67, 0
4, 218520, Note_off_c, 4, 64, 0
4, 218520, Note_off_c, 4, 60, 0
4, 218520, Note_off_c, 4, 55, 0
4, 218520, Note_off_c, 4, 48, 0
4, 218520, Note_on_c, 4, 48, 65
4, 218520, Note_on_c, 4, 55, 65
4, 218520, Note_on_c, 4, 60, 65
4, 218520, Note_on_c, 4, 64, 65
4, 218520, Note_on_c, 4, 67, 65
4, 218520, Note_on_c, 4, 72, 65
4, 218880, Note_off_c, 4, 72, 0
4, 218880, Note_off_c, 4, 67, 0
4, 218880, Note_off_c, 4, 64, 0
4, 218880, Note_off_c, 4, 60, 0
4, 218880, Note_off_c, 4, 55, 0
4, 218880, Note_off_c, 4, 48, 0
4, 218880, Note_on_c, 4, 48, 65
4, 218880, Note_on_c, 4, 55, 65
4, 218880, Note_on_c, 4, 60, 65
4, 218880, Note_on_c, 4, 64, 65
4, 218880, Note_on_c, 4, 67, 65
4, 218880, Note_on_c, 4, 72, 65
4, 219240, Note_off_c, 4, 72, 0
4, 219240, Note_off_c, 4, 67, 0
4, 219240, Note_off_c, 4, 64, 0
4, 219240, Note_off_c, 4, 60, 0
4, 219240, Note_off_c, 4, 55, 0
4, 219240, Note_off_c, 4, 48, 0
4, 219240, Note_on_c, 4, 48, 65
4, 219240, Note_on_c, 4, 55, 65
4, 219240, Note_on_c, 4, 60, 65
4, 219240, Note_on_c, 4, 64, 65
4, 219240, Note_on_c, 4, 67, 65
4, 219240, Note_on_c, 4, 72, 65
4, 219600, Note_off_c, 4, 72, 0
4, 219600, Note_off_c, 4, 67, 0
4, 219600, Note_off_c, 4, 64, 0
4, 219600, Note_off_c, 4, 60, 0
4, 219600, Note_off_c, 4, 55, 0
4, 219600, Note_off_c, 4, 48, 0
4, 219600, Note_on_c, 4, 48, 65
4, 219600, Note_on_c, 4, 55, 65
4, 219600, Note_on_c, 4, 60, 65
4, 219600, Note_on_c, 4, 64, 65
4, 219600, Note_on_c, 4, 67, 65
4, 219600, Note_on_c, 4, 72, 65
4, 219960, Note_off_c, 4, 72, 0
4, 219960, Note_off_c, 4, 67, 0
4, 219960, Note_off_c, 4, 64, 0
4, 219960, Note_off_c, 4, 60, 0
4, 219960, Note_off_c, 4, 55, 0
4, 219960, Note_off_c, 4, 48, 0
4, 219960, Note_on_c, 4, 48, 65
4, 219960, Note_on_c, 4, 55, 65
4, 219960, Note_on_c, 4, 60, 65
4, 219960, Note_on_c, 4, 64, 65
4, 219960, Note_on_c, 4, 67, 65
4, 219960, Note_on_c, 4, 72, 65
4, 220320, Note_off_c, 4, 72, 0
4, 220320, Note_off_c, 4, 67, 0
4, 220320, Note_off_c, 4, 64, 0
4, 220320, Note_off_c, 4, 60, 0
4, 220320, Note_off_c, 4, 55, 0
4, 220320, Note_off_c, 4, 48, 0
4, 220320, Note_on_c, 4, 48, 65
4, 220320, Note_on_c, 4, 55, 65
4, 220320, Note_on_c, 4, 60, 65
4, 220320, Note_on_c, 4, 64, 65
4, 220320, Note_on_c, 4, 67, 65
4, 220320, Note_on_c, 4, 72, 65
4, 220680, Note_off_c, 4, 72, 0
4, 220680, Note_off_c, 4, 67, 0
4, 220680, Note_off_c, 4, 64, 0
4, 220680, Note_off_c, 4, 60, 0
4, 220680, Note_off_c, 4, 55, 0
4, 220680, Note_off_c, 4, 48, 0
4, 220680, Note_on_c, 4, 48, 65
4, 220680, Note_on_c, 4, 55, 65
4, 220680, Note_on_c, 4, 60, 65
4, 220680, Note_on_c, 4, 64, 65
4, 220680, Note_on_c, 4, 67, 65
4, 220680, Note_on_c, 4, 72, 65
4, 221040, Note_off_c, 4, 72, 0
4, 221040, Note_off_c, 4, 67, 0
4, 221040, Note_off_c, 4, 64, 0
4, 221040, Note_off_c, 4, 60, 0
4, 221040, Note_off_c, 4, 55, 0
4, 221040, Note_off_c, 4, 48, 0
4, 221040, Note_on_c, 4, 48, 65
4, 221040, Note_on_c, 4, 55, 65
4, 221040, Note_on_c, 4, 60, 65
4, 221040, Note_on_c, 4, 64, 65
4, 221040, Note_on_c, 4, 67, 65
4, 221040, Note_on_c, 4, 72, 65
4, 221400, Note_off_c, 4, 72, 0
4, 221400, Note_off_c, 4, 67, 0
4, 221400, Note_off_c, 4, 64, 0
4, 221400, Note_off_c, 4, 60, 0
4, 221400, Note_off_c, 4, 55, 0
4, 221400, Note_off_c, 4, 48, 0
4, 221400, Note_on_c, 4, 48, 65
4, 221400, Note_on_c, 4, 55, 65
4, 221400, Note_on_c, 4, 60, 65
4, 221400, Note_on_c, 4, 64, 65
4, 221400, Note_on_c, 4, 67, 65
4, 221400, Note_on_c, 4, 72, 65
4, 221760, Note_off_c, 4, 72, 0
4, 221760, Note_off_c, 4, 67, 0
4, 221760, Note_off_c, 4, 64, 0
4, 221760, Note_off_c, 4, 60, 0
4, 221760, Note_off_c, 4, 55, 0
4, 221760, Note_off_c, 4, 48, 0
4, 221760, Note_on_c, 4, 41, 65
4, 221760, Note_on_c, 4, 48, 65
4, 221760, Note_on_c, 4, 53, 65
4, 221760, Note_on_c, 4, 57, 65
4, 221760, Note_on_c, 4, 60, 65
4, 221760, Note_on_c, 4, 65, 65
4, 222120, Note_off_c, 4, 65, 0
4, 222120, Note_off_c, 4, 60, 0
4, 222120, Note_off_c, 4, 57, 0
4, 222120, Note_off_c, 4, 53, 0
4, 222120, Note_off_c, 4, 48, 0
4, 222120, Note_off_c, 4, 41, 0
4, 222120, Note_on_c, 4, 41, 65
4, 222120, Note_on_c, 4, 48, 65
4, 222120, Note_on_c, 4, 53, 65
4, 222120, Note_on_c, 4, 57, 65
4, 222120, Note_on_c, 4, 60, 65
4, 222120, Note_on_c, 4, 65, 65
4, 222480, Note_off_c, 4, 65, 0
4, 222480, Note_off_c, 4, 60, 0
4, 222480, Note_off_c, 4, 57, 0
4, 222480, Note_off_c, 4, 53, 0
4, 222480, Note_off_c, 4, 48, 0
4, 222480, Note_off_c, 4, 41, 0
4, 222480, Note_on_c, 4, 41, 65
4, 222480, Note_on_c, 4, 48, 65
4, 222480, Note_on_c, 4, 53, 65
4, 222480, Note_on_c, 4, 57, 65
4, 222480, Note_on_c, 4, 60, 65
4, 222480, Note_on_c, 4, 65, 65
4, 222840, Note_off_c, 4, 65, 0
4, 222840, Note_off_c, 4, 60, 0
4, 222840, Note_off_c, 4, 57, 0
4, 222840, Note_off_c, 4, 53, 0
4, 222840, Note_off_c, 4, 48, 0
4, 222840, Note_off_c, 4, 41, 0
4, 222840, Note_on_c, 4, 41, 65
4, 222840, Note_on_c, 4, 48, 65
4, 222840, Note_on_c, 4, 53, 65
4, 222840, Note_on_c, 4, 57, 65
4, 222840, Note_on_c, 4, 60, 65
4, 222840, Note_on_c, 4, 65, 65
4, 223200, Note_off_c, 4, 65, 0
4, 223200, Note_off_c, 4, 60, 0
4, 223200, Note_off_c, 4, 57, 0
4, 223200, Note_off_c, 4, 53, 0
4, 223200, Note_off_c, 4, 48, 0
4, 223200, Note_off_c, 4, 41, 0
4, 223200, Note_on_c, 4, 41, 65
4, 223200, Note_on_c, 4, 48, 65
4, 223200, Note_on_c, 4, 53, 65
4, 223200, Note_on_c, 4, 57, 65
4, 223200, Note_on_c, 4, 60, 65
4, 223200, Note_on_c, 4, 65, 65
4, 223560, Note_off_c, 4, 65, 0
4, 223560, Note_off_c, 4, 60, 0
4, 223560, Note_off_c, 4, 57, 0
4, 223560, Note_off_c, 4, 53, 0
4, 223560, Note_off_c, 4, 48, 0
4, 223560, Note_off_c, 4, 41, 0
4, 223560, Note_on_c, 4, 41, 65
4, 223560, Note_on_c, 4, 48, 65
4, 223560, Note_on_c, 4, 53, 65
4, 223560, Note_on_c, 4, 57, 65
4, 223560, Note_on_c, 4, 60, 65
4, 223560, Note_on_c, 4, 65, 65
4, 223920, Note_off_c, 4, 65, 0
4, 223920, Note_off_c, 4, 60, 0
4, 223920, Note_off_c, 4, 57, 0
4, 223920, Note_off_c, 4, 53, 0
4, 223920, Note_off_c, 4, 48, 0
4, 223920, Note_off_c, 4, 41, 0
4, 223920, Note_on_c, 4, 41, 65
4, 223920, Note_on_c, 4, 48, 65
4, 223920, Note_on_c, 4, 53, 65
4, 223920, Note_on_c, 4, 57, 65
4, 223920, Note_on_c, 4, 60, 65
4, 223920, Note_on_c, 4, 65, 65
4, 224280, Note_off_c, 4, 65, 0
4, 224280, Note_off_c, 4, 60, 0
4, 224280, Note_off_c, 4, 57, 0
4, 224280, Note_off_c, 4, 53, 0
4, 224280, Note_off_c, 4, 48, 0
4, 224280, Note_off_c, 4, 41, 0
4, 224280, Note_on_c, 4, 41, 65
4, 224280, Note_on_c, 4, 48, 65
4, 224280, Note_on_c, 4, 53, 65
4, 224280, Note_on_c, 4, 57, 65
4, 224280, Note_on_c, 4, 60, 65
4, 224280, Note_on_c, 4, 65, 65
4, 224640, Note_off_c, 4, 65, 0
4, 224640, Note_off_c, 4, 60, 0
4, 224640, Note_off_c, 4, 57, 0
4, 224640, Note_off_c, 4, 53, 0
4, 224640, Note_off_c, 4, 48, 0
4, 224640, Note_off_c, 4, 41, 0
4, 224640, Note_on_c, 4, 41, 65
4, 224640, Note_on_c, 4, 48, 65
4, 224640, Note_on_c, 4, 53, 65
4, 224640, Note_on_c, 4, 57, 65
4, 224640, Note_on_c, 4, 60, 65
4, 224640, Note_on_c, 4, 65, 65
4, 225000, Note_off_c, 4, 65, 0
4, 225000, Note_off_c, 4, 60, 0
4, 225000, Note_off_c, 4, 57, 0
4, 225000, Note_off_c, 4, 53, 0
4, 225000, Note_off_c, 4, 48, 0
4, 225000, Note_off_c, 4, 41, 0
4, 225000, Note_on_c, 4, 41, 65
4, 225000, Note_on_c, 4, 48, 65
4, 225000, Note_on_c, 4, 53, 65
4, 225000, Note_on_c, 4, 57, 65
4, 225000, Note_on_c, 4, 60, 65
4, 225000, Note_on_c, 4, 65, 65
4, 225360, Note_off_c, 4, 65, 0
4, 225360, Note_off_c, 4, 60, 0
4, 225360, Note_off_c, 4, 57, 0
4, 225360, Note_off_c, 4, 53, 0
4, 225360, Note_off_c, 4, 48, 0
4, 225360, Note_off_c, 4, 41, 0
4, 225360, Note_on_c, 4, 41, 65
4, 225360, Note_on_c, 4, 48, 65
4, 225360, Note_on_c, 4, 53, 65
4, 225360, Note_on_c, 4, 57, 65
4, 225360, Note_on_c, 4, 60, 65
4, 225360, Note_on_c, 4, 65, 65
4, 225720, Note_off_c, 4, 65, 0
4, 225720, Note_off_c, 4, 60, 0
4, 225720, Note_off_c, 4, 57, 0
4, 225720, Note_off_c, 4, 53, 0
4, 225720, Note_off_c, 4, 48, 0
4, 225720, Note_off_c, 4, 41, 0
4, 225720, Note_on_c, 4, 41, 65
4, 225720, Note_on_c, 4, 48, 65
4, 225720, Note_on_c, 4, 53, 65
4, 225720, Note_on_c, 4, 57, 65
4, 225720, Note_on_c, 4, 60, 65
4, 225720, Note_on_c, 4, 65, 65
4, 226080, Note_off_c, 4, 65, 0
4, 226080, Note_off_c, 4, 60, 0
4, 226080, Note_off_c, 4, 57, 0
4, 226080, Note_off_c, 4, 53, 0
4, 226080, Note_off_c, 4, 48, 0
4, 226080, Note_off_c, 4, 41, 0
4, 226080, Note_on_c, 4, 41, 65
4, 226080, Note_on_c, 4, 48, 65
4, 226080, Note_on_c, 4, 53, 65
4, 226080, Note_on_c, 4, 57, 65
4, 226080, Note_on_c, 4, 60, 65
4, 226080, Note_on_c, 4, 65, 65
4, 226440, Note_off_c, 4, 65, 0
4, 226440, Note_off_c, 4, 60, 0
4, 226440, Note_off_c, 4, 57, 0
4, 226440, Note_off_c, 4, 53, 0
4, 226440, Note_off_c, 4, 48, 0
4, 226440, Note_off_c, 4, 41, 0
4, 226440, Note_on_c, 4, 41, 65
4, 226440, Note_on_c, 4, 48, 65
4, 226440, Note_on_c, 4, 53, 65
4, 226440, Note_on_c, 4, 57, 65
4, 226440, Note_on_c, 4, 60, 65
4, 226440, Note_on_c, 4, 65, 65
4, 226800, Note_off_c, 4, 65, 0
4, 226800, Note_off_c, 4, 60, 0
4, 226800, Note_off_c, 4, 57, 0
4, 226800, Note_off_c, 4, 53, 0
4, 226800, Note_off_c, 4, 48, 0
4, 226800, Note_off_c, 4, 41, 0
4, 226800, Note_on_c, 4, 41, 65
4, 226800, Note_on_c, 4, 48, 65
4, 226800, Note_on_c, 4, 53, 65
4, 226800, Note_on_c, 4, 57, 65
4, 226800, Note_on_c, 4, 60, 65
4, 226800, Note_on_c, 4, 65, 65
4, 227160, Note_off_c, 4, 65, 0
4, 227160, Note_off_c, 4, 60, 0
4, 227160, Note_off_c, 4, 57, 0
4, 227160, Note_off_c, 4, 53, 0
4, 227160, Note_off_c, 4, 48, 0
4, 227160, Note_off_c, 4, 41, 0
4, 227160, Note_on_c, 4, 41, 65
4, 227160, Note_on_c, 4, 48, 65
4, 227160, Note_on_c, 4, 53, 65
4, 227160, Note_on_c, 4, 57, 65
4, 227160, Note_on_c, 4, 60, 65
4, 227160, Note_on_c, 4, 65, 65
4, 227520, Note_off_c, 4, 65, 0
4, 227520, Note_off_c, 4, 60, 0
4, 227520, Note_off_c, 4, 57, 0
4, 227520, Note_off_c, 4, 53, 0
4, 227520, Note_off_c, 4, 48, 0
4, 227520, Note_off_c, 4, 41, 0
4, 227520, Note_on_c, 4, 43, 65
4, 227520, Note_on_c, 4, 50, 65
4, 227520, Note_on_c, 4, 55, 65
4, 227520, Note_on_c, 4, 59, 65
4, 227520, Note_on_c, 4, 62, 65
4, 227520, Note_on_c, 4, 67, 65
4, 227880, Note_off_c, 4, 67, 0
4, 227880, Note_off_c, 4, 62, 0
4, 227880, Note_off_c, 4, 59, 0
4, 227880, Note_off_c, 4, 55, 0
4, 227880, Note_off_c, 4, 50, 0
4, 227880, Note_off_c, 4, 43, 0
4, 227880, Note_on_c, 4, 43, 65
4, 227880, Note_on_c, 4, 50, 65
4, 227880, Note_on_c, 4, 55, 65
4, 227880, Note_on_c, 4, 59, 65
4, 227880, Note_on_c, 4, 62, 65
4, 227880, Note_on_c, 4, 67, 65
4, 228240, Note_off_c, 4, 67, 0
4, 228240, Note_off_c, 4, 62, 0
4, 228240, Note_off_c, 4, 59, 0
4, 228240, Note_off_c, 4, 55, 0
4, 228240, Note_off_c, 4, 50, 0
4, 228240, Note_off_c, 4, 43, 0
4, 228240, Note_on_c, 4, 43, 65
4, 228240, Note_on_c, 4, 50, 65
4, 228240, Note_on_c, 4, 55, 65
4, 228240, Note_on_c, 4, 59, 65
4, 228240, Note_on_c, 4, 62, 65
4, 228240, Note_on_c, 4, 67, 65
4, 228600, Note_off_c, 4, 67, 0
4, 228600, Note_off_c, 4, 62, 0
4, 228600, Note_off_c, 4, 59, 0
4, 228600, Note_off_c, 4, 55, 0
4, 228600, Note_off_c, 4, 50, 0
4, 228600, Note_off_c, 4, 43, 0
4, 228600, Note_on_c, 4, 43, 65
4, 228600, Note_on_c, 4, 50, 65
4, 228600, Note_on_c, 4, 55, 65
4, 228600, Note_on_c, 4, 59, 65
4, 228600, Note_on_c, 4, 62, 65
4, 228600, Note_on_c, 4, 67, 65
4, 228960, Note_off_c, 4, 67, 0
4, 228960, Note_off_c, 4, 62, 0
4, 228960, Note_off_c, 4, 59, 0
4, 228960, Note_off_c, 4, 55, 0
4, 228960, Note_off_c, 4, 50, 0
4, 228960, Note_off_c, 4, 43, 0
4, 228960, Note_on_c, 4, 43, 65
4, 228960, Note_on_c, 4, 50, 65
4, 228960, Note_on_c, 4, 55, 65
4, 228960, Note_on_c, 4, 59, 65
4, 228960, Note_on_c, 4, 62, 65
4, 228960, Note_on_c, 4, 67, 65
4, 229320, Note_off_c, 4, 67, 0
4, 229320, Note_off_c, 4, 62, 0
4, 229320, Note_off_c, 4, 59, 0
4, 229320, Note_off_c, 4, 55, 0
4, 229320, Note_off_c, 4, 50, 0
4, 229320, Note_off_c, 4, 43, 0
4, 229320, Note_on_c, 4, 43, 65
4, 229320, Note_on_c, 4, 50, 65
4, 229320, Note_on_c, 4, 55, 65
4, 229320, Note_on_c, 4, 59, 65
4, 229320, Note_on_c, 4, 62, 65
4, 229320, Note_on_c, 4, 67, 65
4, 229680, Note_off_c, 4, 67, 0
4, 229680, Note_off_c, 4, 62, 0
4, 229680, Note_off_c, 4, 59, 0
4, 229680, Note_off_c, 4, 55, 0
4, 229680, Note_off_c, 4, 50, 0
4, 229680, Note_off_c, 4, 43, 0
4, 229680, Note_on_c, 4, 43, 65
4, 229680, Note_on_c, 4, 50, 65
4, 229680, Note_on_c, 4, 55, 65
4, 229680, Note_on_c, 4, 59, 65
4, 229680, Note_on_c, 4, 62, 65
4, 229680, Note_on_c, 4, 67, 65
4, 230040, Note_off_c, 4, 67, 0
4, 230040, Note_off_c, 4, 62, 0
4, 230040, Note_off_c, 4, 59, 0
4, 230040, Note_off_c, 4, 55, 0
4, 230040, Note_off_c, 4, 50, 0
4, 230040, Note_off_c, 4, 43, 0
4, 230040, Note_on_c, 4, 43, 65
4, 230040, Note_on_c, 4, 50, 65
4, 230040, Note_on_c, 4, 55, 65
4, 230040, Note_on_c, 4, 59, 65
4, 230040, Note_on_c, 4, 62, 65
4, 230040, Note_on_c, 4, 67, 65
4, 230400, Note_off_c, 4, 67, 0
4, 230400, Note_off_c, 4, 62, 0
4, 230400, Note_off_c, 4, 59, 0
4, 230400, Note_off_c, 4, 55, 0
4, 230400, Note_off_c, 4, 50, 0
4, 230400, Note_off_c, 4, 43, 0
4, 230400, Note_on_c, 4, 43, 65
4, 230400, Note_on_c, 4, 50, 65
4, 230400, Note_on_c, 4, 55, 65
4, 230400, Note_on_c, 4, 59, 65
4, 230400, Note_on_c, 4, 62, 65
4, 230400, Note_on_c, 4, 67, 65
4, 230760, Note_off_c, 4, 67, 0
4, 230760, Note_off_c, 4, 62, 0
4, 230760, Note_off_c, 4, 59, 0
4, 230760, Note_off_c, 4, 55, 0
4, 230760, Note_off_c, 4, 50, 0
4, 230760, Note_off_c, 4, 43, 0
4, 230760, Note_on_c, 4, 43, 65
4, 230760, Note_on_c, 4, 50, 65
4, 230760, Note_on_c, 4, 55, 65
4, 230760, Note_on_c, 4, 59, 65
4, 230760, Note_on_c, 4, 62, 65
4, 230760, Note_on_c, 4, 67, 65
4, 231120, Note_off_c, 4, 67, 0
4, 231120, Note_off_c, 4, 62, 0
4, 231120, Note_off_c, 4, 59, 0
4, 231120, Note_off_c, 4, 55, 0
4, 231120, Note_off_c, 4, 50, 0
4, 231120, Note_off_c, 4, 43, 0
4, 231120, Note_on_c, 4, 43, 65
4, 231120, Note_on_c, 4, 50, 65
4, 231120, Note_on_c, 4, 55, 65
4, 231120, Note_on_c, 4, 59, 65
4, 231120, Note_on_c, 4, 62, 65
4, 231120, Note_on_c, 4, 67, 65
4, 231480, Note_off_c, 4, 67, 0
4, 231480, Note_off_c, 4, 62, 0
4, 231480, Note_off_c, 4, 59, 0
4, 231480, Note_off_c, 4, 55, 0
4, 231480, Note_off_c, 4, 50, 0
4, 231480, Note_off_c, 4, 43, 0
4, 231480, Note_on_c, 4, 43, 65
4, 231480, Note_on_c, 4, 50, 65
4, 231480, Note_on_c, 4, 55, 65
4, 231480, Note_on_c, 4, 59, 65
4, 231480, Note_on_c, 4, 62, 65
4, 231480, Note_on_c, 4, 67, 65
4, 231840, Note_off_c, 4, 67, 0
4, 231840, Note_off_c, 4, 62, 0
4, 231840, Note_off_c, 4, 59, 0
4, 231840, Note_off_c, 4, 55, 0
4, 231840, Note_off_c, 4, 50, 0
4, 231840, Note_off_c, 4, 43, 0
4, 231840, Note_on_c, 4, 46, 65
4, 231840, Note_on_c, 4, 53, 65
4, 231840, Note_on_c, 4, 58, 65
4, 231840, Note_on_c, 4, 62, 65
4, 231840, Note_on_c, 4, 65, 65
4, 231840, Note_on_c, 4, 70, 65
4, 232200, Note_off_c, 4, 70, 0
4, 232200, Note_off_c, 4, 65, 0
4, 232200, Note_off_c, 4, 62, 0
4, 232200, Note_off_c, 4, 58, 0
4, 232200, Note_off_c, 4, 53, 0
4, 232200, Note_off_c, 4, 46, 0
4, 232200, Note_on_c, 4, 46, 65
4, 232200, Note_on_c, 4, 53, 65
4, 232200, Note_on_c, 4, 58, 65
4, 232200, Note_on_c, 4, 62, 65
4, 232200, Note_on_c, 4, 65, 65
4, 232200, Note_on_c, 4, 70, 65
4, 232560, Note_off_c, 4, 70, 0
4, 232560, Note_off_c, 4, 65, 0
4, 232560, Note_off_c, 4, 62, 0
4, 232560, Note_off_c, 4, 58, 0
4, 232560, Note_off_c, 4, 53, 0
4, 232560, Note_off_c, 4, 46, 0
4, 232560, Note_on_c, 4, 46, 65
4, 232560, Note_on_c, 4, 53, 65
4, 232560, Note_on_c, 4, 58, 65
4, 232560, Note_on_c, 4, 62, 65
4, 232560, Note_on_c, 4, 65, 65
4, 232560, Note_on_c, 4, 70, 65
4, 232920, Note_off_c, 4, 70, 0
4, 232920, Note_off_c, 4, 65, 0
4, 232920, Note_off_c, 4, 62, 0
4, 232920, Note_off_c, 4, 58, 0
4, 232920, Note_off_c, 4, 53, 0
4, 232920, Note_off_c, 4, 46, 0
4, 232920, Note_on_c, 4, 46, 65
4, 232920, Note_on_c, 4, 53, 65
4, 232920, Note_on_c, 4, 58, 65
4, 232920, Note_on_c, 4, 62, 65
4, 232920, Note_on_c, 4, 65, 65
4, 232920, Note_on_c, 4, 70, 65
4, 233280, Note_off_c, 4, 70, 0
4, 233280, Note_off_c, 4, 65, 0
4, 233280, Note_off_c, 4, 62, 0
4, 233280, Note_off_c, 4, 58, 0
4, 233280, Note_off_c, 4, 53, 0
4, 233280, Note_off_c, 4, 46, 0
4, 233280, Note_on_c, 4, 45, 65
4, 233280, Note_on_c, 4, 52, 65
4, 233280, Note_on_c, 4, 57, 65
4, 233280, Note_on_c, 4, 61, 65
4, 233280, Note_on_c, 4, 64, 65
4, 233280, Note_on_c, 4, 69, 65
4, 233640, Note_off_c, 4, 69, 0
4, 233640, Note_off_c, 4, 64, 0
4, 233640, Note_off_c, 4, 61, 0
4, 233640, Note_off_c, 4, 57, 0
4, 233640, Note_off_c, 4, 52, 0
4, 233640, Note_off_c, 4, 45, 0
4, 233640, Note_on_c, 4, 45, 65
4, 233640, Note_on_c, 4, 52, 65
4, 233640, Note_on_c, 4, 57, 65
4, 233640, Note_on_c, 4, 61, 65
4, 233640, Note_on_c, 4, 64, 65
4, 233640, Note_on_c, 4, 69, 65
4, 234000, Note_off_c, 4, 69, 0
4, 234000, Note_off_c, 4, 64, 0
4, 234000, Note_off_c, 4, 61, 0
4, 234000, Note_off_c, 4, 57, 0
4, 234000, Note_off_c, 4, 52, 0
4, 234000, Note_off_c, 4, 45, 0
4, 234000, Note_on_c, 4, 45, 65
4, 234000, Note_on_c, 4, 52, 65
4, 234000, Note_on_c, 4, 57, 65
4, 234000, Note_on_c, 4, 61, 65
4, 234000, Note_on_c, 4, 64, 65
4, 234000, Note_on_c, 4, 69, 65
4, 234360, Note_off_c, 4, 69, 0
4, 234360, Note_off_c, 4, 64, 0
4, 234360, Note_off_c, 4, 61, 0
4, 234360, Note_off_c, 4, 57, 0
4, 234360, Note_off_c, 4, 52, 0
4, 234360, Note_off_c, 4, 45, 0
4, 234360, Note_on_c, 4, 45, 65
4, 234360, Note_on_c, 4, 52, 65
4, 234360, Note_on_c, 4, 57, 65
4, 234360, Note_on_c, 4, 61, 65
4, 234360, Note_on_c, 4, 64, 65
4, 234360, Note_on_c, 4, 69, 65
4, 234720, Note_off_c, 4, 69, 0
4, 234720, Note_off_c, 4, 64, 0
4, 234720, Note_off_c, 4, 61, 0
4, 234720, Note_off_c, 4, 57, 0
4, 234720, Note_off_c, 4, 52, 0
4, 234720, Note_off_c, 4, 45, 0
4, 234720, Note_on_c, 4, 45, 65
4, 234720, Note_on_c, 4, 52, 65
4, 234720, Note_on_c, 4, 57, 65
4, 234720, Note_on_c, 4, 61, 65
4, 234720, Note_on_c, 4, 64, 65
4, 234720, Note_on_c, 4, 69, 65
4, 235080, Note_off_c, 4, 69, 0
4, 235080, Note_off_c, 4, 64, 0
4, 235080, Note_off_c, 4, 61, 0
4, 235080, Note_off_c, 4, 57, 0
4, 235080, Note_off_c, 4, 52, 0
4, 235080, Note_off_c, 4, 45, 0
4, 235080, Note_on_c, 4, 45, 65
4, 235080, Note_on_c, 4, 52, 65
4, 235080, Note_on_c, 4, 57, 65
4, 235080, Note_on_c, 4, 61, 65
4, 235080, Note_on_c, 4, 64, 65
4, 235080, Note_on_c, 4, 69, 65
4, 235440, Note_off_c, 4, 69, 0
4, 235440, Note_off_c, 4, 64, 0
4, 235440, Note_off_c, 4, 61, 0
4, 235440, Note_off_c, 4, 57, 0
4, 235440, Note_off_c, 4, 52, 0
4, 235440, Note_off_c, 4, 45, 0
4, 235440, Note_on_c, 4, 45, 65
4, 235440, Note_on_c, 4, 52, 65
4, 235440, Note_on_c, 4, 57, 65
4, 235440, Note_on_c, 4, 61, 65
4, 235440, Note_on_c, 4, 64, 65
4, 235440, Note_on_c, 4, 69, 65
4, 235800, Note_off_c, 4, 69, 0
4, 235800, Note_off_c, 4, 64, 0
4, 235800, Note_off_c, 4, 61, 0
4, 235800, Note_off_c, 4, 57, 0
4, 235800, Note_off_c, 4, 52, 0
4, 235800, Note_off_c, 4, 45, 0
4, 235800, Note_on_c, 4, 45, 65
4, 235800, Note_on_c, 4, 52, 65
4, 235800, Note_on_c, 4, 57, 65
4, 235800, Note_on_c, 4, 61, 65
4, 235800, Note_on_c, 4, 64, 65
4, 235800, Note_on_c, 4, 69, 65
4, 236160, Note_off_c, 4, 69, 0
4, 236160, Note_off_c, 4, 64, 0
4, 236160, Note_off_c, 4, 61, 0
4, 236160, Note_off_c, 4, 57, 0
4, 236160, Note_off_c, 4, 52, 0
4, 236160, Note_off_c, 4, 45, 0
4, 236160, Note_on_c, 4, 45, 65
4, 236160, Note_on_c, 4, 52, 65
4, 236160, Note_on_c, 4, 57, 65
4, 236160, Note_on_c, 4, 61, 65
4, 236160, Note_on_c, 4, 64, 65
4, 236160, Note_on_c, 4, 69, 65
4, 236520, Note_off_c, 4, 69, 0
4, 236520, Note_off_c, 4, 64, 0
4, 236520, Note_off_c, 4, 61, 0
4, 236520, Note_off_c, 4, 57, 0
4, 236520, Note_off_c, 4, 52, 0
4, 236520, Note_off_c, 4, 45, 0
4, 236520, Note_on_c, 4, 45, 65
4, 236520, Note_on_c, 4, 52, 65
4, 236520, Note_on_c, 4, 57, 65
4, 236520, Note_on_c, 4, 61, 65
4, 236520, Note_on_c, 4, 64, 65
4, 236520, Note_on_c, 4, 69, 65
4, 236880, Note_off_c, 4, 69, 0
4, 236880, Note_off_c, 4, 64, 0
4, 236880, Note_off_c, 4, 61, 0
4, 236880, Note_off_c, 4, 57, 0
4, 236880, Note_off_c, 4, 52, 0
4, 236880, Note_off_c, 4, 45, 0
4, 236880, Note_on_c, 4, 45, 65
4, 236880, Note_on_c, 4, 52, 65
4, 236880, Note_on_c, 4, 57, 65
4, 236880, Note_on_c, 4, 61, 65
4, 236880, Note_on_c, 4, 64, 65
4, 236880, Note_on_c, 4, 69, 65
4, 237240, Note_off_c, 4, 69, 0
4, 237240, Note_off_c, 4, 64, 0
4, 237240, Note_off_c, 4, 61, 0
4, 237240, Note_off_c, 4, 57, 0
4, 237240, Note_off_c, 4, 52, 0
4, 237240, Note_off_c, 4, 45, 0
4, 237240, Note_on_c, 4, 45, 65
4, 237240, Note_on_c, 4, 52, 65
4, 237240, Note_on_c, 4, 57, 65
4, 237240, Note_on_c, 4, 61, 65
4, 237240, Note_on_c, 4, 64, 65
4, 237240, Note_on_c, 4, 69, 65
4, 237600, Note_off_c, 4, 69, 0
4, 237600, Note_off_c, 4, 64, 0
4, 237600, Note_off_c, 4, 61, 0
4, 237600, Note_off_c, 4, 57, 0
4, 237600, Note_off_c, 4, 52, 0
4, 237600, Note_off_c, 4, 45, 0
4, 237600, Note_on_c, 4, 45, 65
4, 237600, Note_on_c, 4, 52, 65
4, 237600, Note_on_c, 4, 57, 65
4, 237600, Note_on_c, 4, 61, 65
4, 237600, Note_on_c, 4, 64, 65
4, 237600, Note_on_c, 4, 69, 65
4, 237960, Note_off_c, 4, 69, 0
4, 237960, Note_off_c, 4, 64, 0
4, 237960, Note_off_c, 4, 61, 0
4, 237960, Note_off_c, 4, 57, 0
4, 237960, Note_off_c, 4, 52, 0
4, 237960, Note_off_c, 4, 45, 0
4, 237960, Note_on_c, 4, 45, 65
4, 237960, Note_on_c, 4, 52, 65
4, 237960, Note_on_c, 4, 57, 65
4, 237960, Note_on_c, 4, 61, 65
4, 237960, Note_on_c, 4, 64, 65
4, 237960, Note_on_c, 4, 69, 65
4, 238320, Note_off_c, 4, 69, 0
4, 238320, Note_off_c, 4, 64, 0
4, 238320, Note_off_c, 4, 61, 0
4, 238320, Note_off_c, 4, 57, 0
4, 238320, Note_off_c, 4, 52, 0
4, 238320, Note_off_c, 4, 45, 0
4, 238320, Note_on_c, 4, 45, 65
4, 238320, Note_on_c, 4, 52, 65
4, 238320, Note_on_c, 4, 57, 65
4, 238320, Note_on_c, 4, 61, 65
4, 238320, Note_on_c, 4, 64, 65
4, 238320, Note_on_c, 4, 69, 65
4, 238680, Note_off_c, 4, 69, 0
4, 238680, Note_off_c, 4, 64, 0
4, 238680, Note_off_c, 4, 61, 0
4, 238680, Note_off_c, 4, 57, 0
4, 238680, Note_off_c, 4, 52, 0
4, 238680, Note_off_c, 4, 45, 0
4, 238680, Note_on_c, 4, 45, 65
4, 238680, Note_on_c, 4, 52, 65
4, 238680, Note_on_c, 4, 57, 65
4, 238680, Note_on_c, 4, 61, 65
4, 238680, Note_on_c, 4, 64, 65
4, 238680, Note_on_c, 4, 69, 65
4, 239040, Note_off_c, 4, 69, 0
4, 239040, Note_off_c, 4, 64, 0
4, 239040, Note_off_c, 4, 61, 0
4, 239040, Note_off_c, 4, 57, 0
4, 239040, Note_off_c, 4, 52, 0
4, 239040, Note_off_c, 4, 45, 0
4, 239040, Note_on_c, 4, 48, 65
4, 239040, Note_on_c, 4, 55, 65
4, 239040, Note_on_c, 4, 60, 65
4, 239040, Note_on_c, 4, 64, 65
4, 239040, Note_on_c, 4, 67, 65
4, 239040, Note_on_c, 4, 72, 65
4, 239400, Note_off_c, 4, 72, 0
4, 239400, Note_off_c, 4, 67, 0
4, 239400, Note_off_c, 4, 64, 0
4, 239400, Note_off_c, 4, 60, 0
4, 239400, Note_off_c, 4, 55, 0
4, 239400, Note_off_c, 4, 48, 0
4, 239400, Note_on_c, 4, 48, 65
4, 239400, Note_on_c, 4, 55, 65
4, 239400, Note_on_c, 4, 60, 65
4, 239400, Note_on_c, 4, 64, 65
4, 239400, Note_on_c, 4, 67, 65
4, 239400, Note_on_c, 4, 72, 65
4, 239760, Note_off_c, 4, 72, 0
4, 239760, Note_off_c, 4, 67, 0
4, 239760, Note_off_c, 4, 64, 0
4, 239760, Note_off_c, 4, 60, 0
4, 239760, Note_off_c, 4, 55, 0
4, 239760, Note_off_c, 4, 48, 0
4, 239760, Note_on_c, 4, 48, 65
4, 239760, Note_on_c, 4, 55, 65
4, 239760, Note_on_c, 4, 60, 65
4, 239760, Note_on_c, 4, 64, 65
4, 239760, Note_on_c, 4, 67, 65
4, 239760, Note_on_c, 4, 72, 65
4, 240120, Note_off_c, 4, 72, 0
4, 240120, Note_off_c, 4, 67, 0
4, 240120, Note_off_c, 4, 64, 0
4, 240120, Note_off_c, 4, 60, 0
4, 240120, Note_off_c, 4, 55, 0
4, 240120, Note_off_c, 4, 48, 0
4, 240120, Note_on_c, 4, 48, 65
4, 240120, Note_on_c, 4, 55, 65
4, 240120, Note_on_c, 4, 60, 65
4, 240120, Note_on_c, 4, 64, 65
4, 240120, Note_on_c, 4, 67, 65
4, 240120, Note_on_c, 4, 72, 65
4, 240480, Note_off_c, 4, 72, 0
4, 240480, Note_off_c, 4, 67, 0
4, 240480, Note_off_c, 4, 64, 0
4, 240480, Note_off_c, 4, 60, 0
4, 240480, Note_off_c, 4, 55, 0
4, 240480, Note_off_c, 4, 48, 0
4, 240480, Note_on_c, 4, 48, 65
4, 240480, Note_on_c, 4, 55, 65
4, 240480, Note_on_c, 4, 60, 65
4, 240480, Note_on_c, 4, 64, 65
4, 240480, Note_on_c, 4, 67, 65
4, 240480, Note_on_c, 4, 72, 65
4, 240840, Note_off_c, 4, 72, 0
4, 240840, Note_off_c, 4, 67, 0
4, 240840, Note_off_c, 4, 64, 0
4, 240840, Note_off_c, 4, 60, 0
4, 240840, Note_off_c, 4, 55, 0
4, 240840, Note_off_c, 4, 48, 0
4, 240840, Note_on_c, 4, 48, 65
4, 240840, Note_on_c, 4, 55, 65
4, 240840, Note_on_c, 4, 60, 65
4, 240840, Note_on_c, 4, 64, 65
4, 240840, Note_on_c, 4, 67, 65
4, 240840, Note_on_c, 4, 72, 65
4, 241200, Note_off_c, 4, 72, 0
4, 241200, Note_off_c, 4, 67, 0
4, 241200, Note_off_c, 4, 64, 0
4, 241200, Note_off_c, 4, 60, 0
4, 241200, Note_off_c, 4, 55, 0
4, 241200, Note_off_c, 4, 48, 0
4, 241200, Note_on_c, 4, 48, 65
4, 241200, Note_on_c, 4, 55, 65
4, 241200, Note_on_c, 4, 60, 65
4, 241200, Note_on_c, 4, 64, 65
4, 241200, Note_on_c, 4, 67, 65
4, 241200, Note_on_c, 4, 72, 65
4, 241560, Note_off_c, 4, 72, 0
4, 241560, Note_off_c, 4, 67, 0
4, 241560, Note_off_c, 4, 64, 0
4, 241560, Note_off_c, 4, 60, 0
4, 241560, Note_off_c, 4, 55, 0
4, 241560, Note_off_c, 4, 48, 0
4, 241560, Note_on_c, 4, 48, 65
4, 241560, Note_on_c, 4, 55, 65
4, 241560, Note_on_c, 4, 60, 65
4, 241560, Note_on_c, 4, 64, 65
4, 241560, Note_on_c, 4, 67, 65
4, 241560, Note_on_c, 4, 72, 65
4, 241920, Note_off_c, 4, 72, 0
4, 241920, Note_off_c, 4, 67, 0
4, 241920, Note_off_c, 4, 64, 0
4, 241920, Note_off_c, 4, 60, 0
4, 241920, Note_off_c, 4, 55, 0
4, 241920, Note_off_c, 4, 48, 0
4, 241920, Note_on_c, 4, 48, 65
4, 241920, Note_on_c, 4, 55, 65
4, 241920, Note_on_c, 4, 60, 65
4, 241920, Note_on_c, 4, 64, 65
4, 241920, Note_on_c, 4, 67, 65
4, 241920, Note_on_c, 4, 72, 65
4, 242280, Note_off_c, 4, 72, 0
4, 242280, Note_off_c, 4, 67, 0
4, 242280, Note_off_c, 4, 64, 0
4, 242280, Note_off_c, 4, 60, 0
4, 242280, Note_off_c, 4, 55, 0
4, 242280, Note_off_c, 4, 48, 0
4, 242280, Note_on_c, 4, 48, 65
4, 242280, Note_on_c, 4, 55, 65
4, 242280, Note_on_c, 4, 60, 65
4, 242280, Note_on_c, 4, 64, 65
4, 242280, Note_on_c, 4, 67, 65
4, 242280, Note_on_c, 4, 72, 65
4, 242640, Note_off_c, 4, 72, 0
4, 242640, Note_off_c, 4, 67, 0
4, 242640, Note_off_c, 4, 64, 0
4, 242640, Note_off_c, 4, 60, 0
4, 242640, Note_off_c, 4, 55, 0
4, 242640, Note_off_c, 4, 48, 0
4, 242640, Note_on_c, 4, 48, 65
4, 242640, Note_on_c, 4, 55, 65
4, 242640, Note_on_c, 4, 60, 65
4, 242640, Note_on_c, 4, 64, 65
4, 242640, Note_on_c, 4, 67, 65
4, 242640, Note_on_c, 4, 72, 65
4, 243000, Note_off_c, 4, 72, 0
4, 243000, Note_off_c, 4, 67, 0
4, 243000, Note_off_c, 4, 64, 0
4, 243000, Note_off_c, 4, 60, 0
4, 243000, Note_off_c, 4, 55, 0
4, 243000, Note_off_c, 4, 48, 0
4, 243000, Note_on_c, 4, 48, 65
4, 243000, Note_on_c, 4, 55, 65
4, 243000, Note_on_c, 4, 60, 65
4, 243000, Note_on_c, 4, 64, 65
4, 243000, Note_on_c, 4, 67, 65
4, 243000, Note_on_c, 4, 72, 65
4, 243360, Note_off_c, 4, 72, 0
4, 243360, Note_off_c, 4, 67, 0
4, 243360, Note_off_c, 4, 64, 0
4, 243360, Note_off_c, 4, 60, 0
4, 243360, Note_off_c, 4, 55, 0
4, 243360, Note_off_c, 4, 48, 0
4, 243360, Note_on_c, 4, 48, 65
4, 243360, Note_on_c, 4, 55, 65
4, 243360, Note_on_c, 4, 60, 65
4, 243360, Note_on_c, 4, 64, 65
4, 243360, Note_on_c, 4, 67, 65
4, 243360, Note_on_c, 4, 72, 65
4, 243720, Note_off_c, 4, 72, 0
4, 243720, Note_off_c, 4, 67, 0
4, 243720, Note_off_c, 4, 64, 0
4, 243720, Note_off_c, 4, 60, 0
4, 243720, Note_off_c, 4, 55, 0
4, 243720, Note_off_c, 4, 48, 0
4, 243720, Note_on_c, 4, 48, 65
4, 243720, Note_on_c, 4, 55, 65
4, 243720, Note_on_c, 4, 60, 65
4, 243720, Note_on_c, 4, 64, 65
4, 243720, Note_on_c, 4, 67, 65
4, 243720, Note_on_c, 4, 72, 65
4, 244080, Note_off_c, 4, 72, 0
4, 244080, Note_off_c, 4, 67, 0
4, 244080, Note_off_c, 4, 64, 0
4, 244080, Note_off_c, 4, 60, 0
4, 244080, Note_off_c, 4, 55, 0
4, 244080, Note_off_c, 4, 48, 0
4, 244080, Note_on_c, 4, 48, 65
4, 244080, Note_on_c, 4, 55, 65
4, 244080, Note_on_c, 4, 60, 65
4, 244080, Note_on_c, 4, 64, 65
4, 244080, Note_on_c, 4, 67, 65
4, 244080, Note_on_c, 4, 72, 65
4, 244440, Note_off_c, 4, 72, 0
4, 244440, Note_off_c, 4, 67, 0
4, 244440, Note_off_c, 4, 64, 0
4, 244440, Note_off_c, 4, 60, 0
4, 244440, Note_off_c, 4, 55, 0
4, 244440, Note_off_c, 4, 48, 0
4, 244440, Note_on_c, 4, 48, 65
4, 244440, Note_on_c, 4, 55, 65
4, 244440, Note_on_c, 4, 60, 65
4, 244440, Note_on_c, 4, 64, 65
4, 244440, Note_on_c, 4, 67, 65
4, 244440, Note_on_c, 4, 72, 65
4, 244800, Note_off_c, 4, 72, 0
4, 244800, Note_off_c, 4, 67, 0
4, 244800, Note_off_c, 4, 64, 0
4, 244800, Note_off_c, 4, 60, 0
4, 244800, Note_off_c, 4, 55, 0
4, 244800, Note_off_c, 4, 48, 0
4, 244800, Note_on_c, 4, 41, 65
4, 244800, Note_on_c, 4, 48, 65
4, 244800, Note_on_c, 4, 53, 65
4, 244800, Note_on_c, 4, 57, 65
4, 244800, Note_on_c, 4, 60, 65
4, 244800, Note_on_c, 4, 65, 65
4, 245160, Note_off_c, 4, 65, 0
4, 245160, Note_off_c, 4, 60, 0
4, 245160, Note_off_c, 4, 57, 0
4, 245160, Note_off_c, 4, 53, 0
4, 245160, Note_off_c, 4, 48, 0
4, 245160, Note_off_c, 4, 41, 0
4, 245160, Note_on_c, 4, 41, 65
4, 245160, Note_on_c, 4, 48, 65
4, 245160, Note_on_c, 4, 53, 65
4, 245160, Note_on_c, 4, 57, 65
4, 245160, Note_on_c, 4, 60, 65
4, 245160, Note_on_c, 4, 65, 65
4, 245520, Note_off_c, 4, 65, 0
4, 245520, Note_off_c, 4, 60, 0
4, 245520, Note_off_c, 4, 57, 0
4, 245520, Note_off_c, 4, 53, 0
4, 245520, Note_off_c, 4, 48, 0
4, 245520, Note_off_c, 4, 41, 0
4, 245520, Note_on_c, 4, 41, 65
4, 245520, Note_on_c, 4, 48, 65
4, 245520, Note_on_c, 4, 53, 65
4, 245520, Note_on_c, 4, 57, 65
4, 245520, Note_on_c, 4, 60, 65
4, 245520, Note_on_c, 4, 65, 65
4, 245880, Note_off_c, 4, 65, 0
4, 245880, Note_off_c, 4, 60, 0
4, 245880, Note_off_c, 4, 57, 0
4, 245880, Note_off_c, 4, 53, 0
4, 245880, Note_off_c, 4, 48, 0
4, 245880, Note_off_c, 4, 41, 0
4, 245880, Note_on_c, 4, 41, 65
4, 245880, Note_on_c, 4, 48, 65
4, 245880, Note_on_c, 4, 53, 65
4, 245880, Note_on_c, 4, 57, 65
4, 245880, Note_on_c, 4, 60, 65
4, 245880, Note_on_c, 4, 65, 65
4, 246240, Note_off_c, 4, 65, 0
4, 246240, Note_off_c, 4, 60, 0
4, 246240, Note_off_c, 4, 57, 0
4, 246240, Note_off_c, 4, 53, 0
4, 246240, Note_off_c, 4, 48, 0
4, 246240, Note_off_c, 4, 41, 0
4, 246240, Note_on_c, 4, 41, 65
4, 246240, Note_on_c, 4, 48, 65
4, 246240, Note_on_c, 4, 53, 65
4, 246240, Note_on_c, 4, 57, 65
4, 246240, Note_on_c, 4, 60, 65
4, 246240, Note_on_c, 4, 65, 65
4, 246600, Note_off_c, 4, 65, 0
4, 246600, Note_off_c, 4, 60, 0
4, 246600, Note_off_c, 4, 57, 0
4, 246600, Note_off_c, 4, 53, 0
4, 246600, Note_off_c, 4, 48, 0
4, 246600, Note_off_c, 4, 41, 0
4, 246600, Note_on_c, 4, 41, 65
4, 246600, Note_on_c, 4, 48, 65
4, 246600, Note_on_c, 4, 53, 65
4, 246600, Note_on_c, 4, 57, 65
4, 246600, Note_on_c, 4, 60, 65
4, 246600, Note_on_c, 4, 65, 65
4, 246960, Note_off_c, 4, 65, 0
4, 246960, Note_off_c, 4, 60, 0
4, 246960, Note_off_c, 4, 57, 0
4, 246960, Note_off_c, 4, 53, 0
4, 246960, Note_off_c, 4, 48, 0
4, 246960, Note_off_c, 4, 41, 0
4, 246960, Note_on_c, 4, 41, 65
4, 246960, Note_on_c, 4, 48, 65
4, 246960, Note_on_c, 4, 53, 65
4, 246960, Note_on_c, 4, 57, 65
4, 246960, Note_on_c, 4, 60, 65
4, 246960, Note_on_c, 4, 65, 65
4, 247320, Note_off_c, 4, 65, 0
4, 247320, Note_off_c, 4, 60, 0
4, 247320, Note_off_c, 4, 57, 0
4, 247320, Note_off_c, 4, 53, 0
4, 247320, Note_off_c, 4, 48, 0
4, 247320, Note_off_c, 4, 41, 0
4, 247320, Note_on_c, 4, 41, 65
4, 247320, Note_on_c, 4, 48, 65
4, 247320, Note_on_c, 4, 53, 65
4, 247320, Note_on_c, 4, 57, 65
4, 247320, Note_on_c, 4, 60, 65
4, 247320, Note_on_c, 4, 65, 65
4, 247680, Note_off_c, 4, 65, 0
4, 247680, Note_off_c, 4, 60, 0
4, 247680, Note_off_c, 4, 57, 0
4, 247680, Note_off_c, 4, 53, 0
4, 247680, Note_off_c, 4, 48, 0
4, 247680, Note_off_c, 4, 41, 0
4, 247680, Note_on_c, 4, 41, 65
4, 247680, Note_on_c, 4, 48, 65
4, 247680, Note_on_c, 4, 53, 65
4, 247680, Note_on_c, 4, 57, 65
4, 247680, Note_on_c, 4, 60, 65
4, 247680, Note_on_c, 4, 65, 65
4, 248040, Note_off_c, 4, 65, 0
4, 248040, Note_off_c, 4, 60, 0
4, 248040, Note_off_c, 4, 57, 0
4, 248040, Note_off_c, 4, 53, 0
4, 248040, Note_off_c, 4, 48, 0
4, 248040, Note_off_c, 4, 41, 0
4, 248040, Note_on_c, 4, 41, 65
4, 248040, Note_on_c, 4, 48, 65
4, 248040, Note_on_c, 4, 53, 65
4, 248040, Note_on_c, 4, 57, 65
4, 248040, Note_on_c, 4, 60, 65
4, 248040, Note_on_c, 4, 65, 65
4, 248400, Note_off_c, 4, 65, 0
4, 248400, Note_off_c, 4, 60, 0
4, 248400, Note_off_c, 4, 57, 0
4, 248400, Note_off_c, 4, 53, 0
4, 248400, Note_off_c, 4, 48, 0
4, 248400, Note_off_c, 4, 41, 0
4, 248400, Note_on_c, 4, 41, 65
4, 248400, Note_on_c, 4, 48, 65
4, 248400, Note_on_c, 4, 53, 65
4, 248400, Note_on_c, 4, 57, 65
4, 248400, Note_on_c, 4, 60, 65
4, 248400, Note_on_c, 4, 65, 65
4, 248760, Note_off_c, 4, 65, 0
4, 248760, Note_off_c, 4, 60, 0
4, 248760, Note_off_c, 4, 57, 0
4, 248760, Note_off_c, 4, 53, 0
4, 248760, Note_off_c, 4, 48, 0
4, 248760, Note_off_c, 4, 41, 0
4, 248760, Note_on_c, 4, 41, 65
4, 248760, Note_on_c, 4, 48, 65
4, 248760, Note_on_c, 4, 53, 65
4, 248760, Note_on_c, 4, 57, 65
4, 248760, Note_on_c, 4, 60, 65
4, 248760, Note_on_c, 4, 65, 65
4, 249120, Note_off_c, 4, 65, 0
4, 249120, Note_off_c, 4, 60, 0
4, 249120, Note_off_c, 4, 57, 0
4, 249120, Note_off_c, 4, 53, 0
4, 249120, Note_off_c, 4, 48, 0
4, 249120, Note_off_c, 4, 41, 0
4, 249120, Note_on_c, 4, 41, 65
4, 249120, Note_on_c, 4, 48, 65
4, 249120, Note_on_c, 4, 53, 65
4, 249120, Note_on_c, 4, 57, 65
4, 249120, Note_on_c, 4, 60, 65
4, 249120, Note_on_c, 4, 65, 65
4, 249480, Note_off_c, 4, 65, 0
4, 249480, Note_off_c, 4, 60, 0
4, 249480, Note_off_c, 4, 57, 0
4, 249480, Note_off_c, 4, 53, 0
4, 249480, Note_off_c, 4, 48, 0
4, 249480, Note_off_c, 4, 41, 0
4, 249480, Note_on_c, 4, 41, 65
4, 249480, Note_on_c, 4, 48, 65
4, 249480, Note_on_c, 4, 53, 65
4, 249480, Note_on_c, 4, 57, 65
4, 249480, Note_on_c, 4, 60, 65
4, 249480, Note_on_c, 4, 65, 65
4, 249840, Note_off_c, 4, 65, 0
4, 249840, Note_off_c, 4, 60, 0
4, 249840, Note_off_c, 4, 57, 0
4, 249840, Note_off_c, 4, 53, 0
4, 249840, Note_off_c, 4, 48, 0
4, 249840, Note_off_c, 4, 41, 0
4, 249840, Note_on_c, 4, 41, 65
4, 249840, Note_on_c, 4, 48, 65
4, 249840, Note_on_c, 4, 53, 65
4, 249840, Note_on_c, 4, 57, 65
4, 249840, Note_on_c, 4, 60, 65
4, 249840, Note_on_c, 4, 65, 65
4, 250200, Note_off_c, 4, 65, 0
4, 250200, Note_off_c, 4, 60, 0
4, 250200, Note_off_c, 4, 57, 0
4, 250200, Note_off_c, 4, 53, 0
4, 250200, Note_off_c, 4, 48, 0
4, 250200, Note_off_c, 4, 41, 0
4, 250200, Note_on_c, 4, 41, 65
4, 250200, Note_on_c, 4, 48, 65
4, 250200, Note_on_c, 4, 53, 65
4, 250200, Note_on_c, 4, 57, 65
4, 250200, Note_on_c, 4, 60, 65
4, 250200, Note_on_c, 4, 65, 65
4, 250560, Note_off_c, 4, 65, 0
4, 250560, Note_off_c, 4, 60, 0
4, 250560, Note_off_c, 4, 57, 0
4, 250560, Note_off_c, 4, 53, 0
4, 250560, Note_off_c, 4, 48, 0
4, 250560, Note_off_c, 4, 41, 0
4, 250560, Note_on_c, 4, 43, 65
4, 250560, Note_on_c, 4, 50, 65
4, 250560, Note_on_c, 4, 55, 65
4, 250560, Note_on_c, 4, 59, 65
4, 250560, Note_on_c, 4, 62, 65
4, 250560, Note_on_c, 4, 67, 65
4, 250920, Note_off_c, 4, 67, 0
4, 250920, Note_off_c, 4, 62, 0
4, 250920, Note_off_c, 4, 59, 0
4, 250920, Note_off_c, 4, 55, 0
4, 250920, Note_off_c, 4, 50, 0
4, 250920, Note_off_c, 4, 43, 0
4, 250920, Note_on_c, 4, 43, 65
4, 250920, Note_on_c, 4, 50, 65
4, 250920, Note_on_c, 4, 55, 65
4, 250920, Note_on_c, 4, 59, 65
4, 250920, Note_on_c, 4, 62, 65
4, 250920, Note_on_c, 4, 67, 65
4, 251280, Note_off_c, 4, 67, 0
4, 251280, Note_off_c, 4, 62, 0
4, 251280, Note_off_c, 4, 59, 0
4, 251280, Note_off_c, 4, 55, 0
4, 251280, Note_off_c, 4, 50, 0
4, 251280, Note_off_c, 4, 43, 0
4, 251280, Note_on_c, 4, 43, 65
4, 251280, Note_on_c, 4, 50, 65
4, 251280, Note_on_c, 4, 55, 65
4, 251280, Note_on_c, 4, 59, 65
4, 251280, Note_on_c, 4, 62, 65
4, 251280, Note_on_c, 4, 67, 65
4, 251640, Note_off_c, 4, 67, 0
4, 251640, Note_off_c, 4, 62, 0
4, 251640, Note_off_c, 4, 59, 0
4, 251640, Note_off_c, 4, 55, 0
4, 251640, Note_off_c, 4, 50, 0
4, 251640, Note_off_c, 4, 43, 0
4, 251640, Note_on_c, 4, 43, 65
4, 251640, Note_on_c, 4, 50, 65
4, 251640, Note_on_c, 4, 55, 65
4, 251640, Note_on_c, 4, 59, 65
4, 251640, Note_on_c, 4, 62, 65
4, 251640, Note_on_c, 4, 67, 65
4, 252000, Note_off_c, 4, 67, 0
4, 252000, Note_off_c, 4, 62, 0
4, 252000, Note_off_c, 4, 59, 0
4, 252000, Note_off_c, 4, 55, 0
4, 252000, Note_off_c, 4, 50, 0
4, 252000, Note_off_c, 4, 43, 0
4, 252000, Note_on_c, 4, 43, 65
4, 252000, Note_on_c, 4, 50, 65
4, 252000, Note_on_c, 4, 55, 65
4, 252000, Note_on_c, 4, 59, 65
4, 252000, Note_on_c, 4, 62, 65
4, 252000, Note_on_c, 4, 67, 65
4, 252360, Note_off_c, 4, 67, 0
4, 252360, Note_off_c, 4, 62, 0
4, 252360, Note_off_c, 4, 59, 0
4, 252360, Note_off_c, 4, 55, 0
4, 252360, Note_off_c, 4, 50, 0
4, 252360, Note_off_c, 4, 43, 0
4, 252360, Note_on_c, 4, 43, 65
4, 252360, Note_on_c, 4, 50, 65
4, 252360, Note_on_c, 4, 55, 65
4, 252360, Note_on_c, 4, 59, 65
4, 252360, Note_on_c, 4, 62, 65
4, 252360, Note_on_c, 4, 67, 65
4, 252720, Note_off_c, 4, 67, 0
4, 252720, Note_off_c, 4, 62, 0
4, 252720, Note_off_c, 4, 59, 0
4, 252720, Note_off_c, 4, 55, 0
4, 252720, Note_off_c, 4, 50, 0
4, 252720, Note_off_c, 4, 43, 0
4, 252720, Note_on_c, 4, 43, 65
4, 252720, Note_on_c, 4, 50, 65
4, 252720, Note_on_c, 4, 55, 65
4, 252720, Note_on_c, 4, 59, 65
4, 252720, Note_on_c, 4, 62, 65
4, 252720, Note_on_c, 4, 67, 65
4, 253080, Note_off_c, 4, 67, 0
4, 253080, Note_off_c, 4, 62, 0
4, 253080, Note_off_c, 4, 59, 0
4, 253080, Note_off_c, 4, 55, 0
4, 253080, Note_off_c, 4, 50, 0
4, 253080, Note_off_c, 4, 43, 0
4, 253080, Note_on_c, 4, 43, 65
4, 253080, Note_on_c, 4, 50, 65
4, 253080, Note_on_c, 4, 55, 65
4, 253080, Note_on_c, 4, 59, 65
4, 253080, Note_on_c, 4, 62, 65
4, 253080, Note_on_c, 4, 67, 65
4, 253440, Note_off_c, 4, 67, 0
4, 253440, Note_off_c, 4, 62, 0
4, 253440, Note_off_c, 4, 59, 0
4, 253440, Note_off_c, 4, 55, 0
4, 253440, Note_off_c, 4, 50, 0
4, 253440, Note_off_c, 4, 43, 0
4, 253440, Note_on_c, 4, 43, 65
4, 253440, Note_on_c, 4, 50, 65
4, 253440, Note_on_c, 4, 55, 65
4, 253440, Note_on_c, 4, 59, 65
4, 253440, Note_on_c, 4, 62, 65
4, 253440, Note_on_c, 4, 67, 65
4, 253800, Note_off_c, 4, 67, 0
4, 253800, Note_off_c, 4, 62, 0
4, 253800, Note_off_c, 4, 59, 0
4, 253800, Note_off_c, 4, 55, 0
4, 253800, Note_off_c, 4, 50, 0
4, 253800, Note_off_c, 4, 43, 0
4, 253800, Note_on_c, 4, 43, 65
4, 253800, Note_on_c, 4, 50, 65
4, 253800, Note_on_c, 4, 55, 65
4, 253800, Note_on_c, 4, 59, 65
4, 253800, Note_on_c, 4, 62, 65
4, 253800, Note_on_c, 4, 67, 65
4, 254160, Note_off_c, 4, 67, 0
4, 254160, Note_off_c, 4, 62, 0
4, 254160, Note_off_c, 4, 59, 0
4, 254160, Note_off_c, 4, 55, 0
4, 254160, Note_off_c, 4, 50, 0
4, 254160, Note_off_c, 4, 43, 0
4, 254160, Note_on_c, 4, 43, 65
4, 254160, Note_on_c, 4, 50, 65
4, 254160, Note_on_c, 4, 55, 65
4, 254160, Note_on_c, 4, 59, 65
4, 254160, Note_on_c, 4, 62, 65
4, 254160, Note_on_c, 4, 67, 65
4, 254520, Note_off_c, 4, 67, 0
4, 254520, Note_off_c, 4, 62, 0
4, 254520, Note_off_c, 4, 59, 0
4, 254520, Note_off_c, 4, 55, 0
4, 254520, Note_off_c, 4, 50, 0
4, 254520, Note_off_c, 4, 43, 0
4, 254520, Note_on_c, 4, 43, 65
4, 254520, Note_on_c, 4, 50, 65
4, 254520, Note_on_c, 4, 55, 65
4, 254520, Note_on_c, 4, 59, 65
4, 254520, Note_on_c, 4, 62, 65
4, 254520, Note_on_c, 4, 67, 65
4, 254880, Note_off_c, 4, 67, 0
4, 254880, Note_off_c, 4, 62, 0
4, 254880, Note_off_c, 4, 59, 0
4, 254880, Note_off_c, 4, 55, 0
4, 254880, Note_off_c, 4, 50, 0
4, 254880, Note_off_c, 4, 43, 0
4, 254880, Note_on_c, 4, 46, 65
4, 254880, Note_on_c, 4, 53, 65
4, 254880, Note_on_c, 4, 58, 65
4, 254880, Note_on_c, 4, 62, 65
4, 254880, Note_on_c, 4, 65, 65
4, 254880, Note_on_c, 4, 70, 65
4, 255240, Note_off_c, 4, 70, 0
4, 255240, Note_off_c, 4, 65, 0
4, 255240, Note_off_c, 4, 62, 0
4, 255240, Note_off_c, 4, 58, 0
4, 255240, Note_off_c, 4, 53, 0
4, 255240, Note_off_c, 4, 46, 0
4, 255240, Note_on_c, 4, 46, 65
4, 255240, Note_on_c, 4, 53, 65
4, 255240, Note_on_c, 4, 58, 65
4, 255240, Note_on_c, 4, 62, 65
4, 255240, Note_on_c, 4, 65, 65
4, 255240, Note_on_c, 4, 70, 65
4, 255600, Note_off_c, 4, 70, 0
4, 255600, Note_off_c, 4, 65, 0
4, 255600, Note_off_c, 4, 62, 0
4, 255600, Note_off_c, 4, 58, 0
4, 255600, Note_off_c, 4, 53, 0
4, 255600, Note_off_c, 4, 46, 0
4, 255600, Note_on_c, 4, 46, 65
4, 255600, Note_on_c, 4, 53, 65
4, 255600, Note_on_c, 4, 58, 65
4, 255600, Note_on_c, 4, 62, 65
4, 255600, Note_on_c, 4, 65, 65
4, 255600, Note_on_c, 4, 70, 65
4, 255960, Note_off_c, 4, 70, 0
4, 255960, Note_off_c, 4, 65, 0
4, 255960, Note_off_c, 4, 62, 0
4, 255960, Note_off_c, 4, 58, 0
4, 255960, Note_off_c, 4, 53, 0
4, 255960, Note_off_c, 4, 46, 0
4, 255960, Note_on_c, 4, 46, 65
4, 255960, Note_on_c, 4, 53, 65
4, 255960, Note_on_c, 4, 58, 65
4, 255960, Note_on_c, 4, 62, 65
4, 255960, Note_on_c, 4, 65, 65
4, 255960, Note_on_c, 4, 70, 65
4, 256320, Note_off_c, 4, 70, 0
4, 256320, Note_off_c, 4, 65, 0
4, 256320, Note_off_c, 4, 62, 0
4, 256320, Note_off_c, 4, 58, 0
4, 256320, Note_off_c, 4, 53, 0
4, 256320, Note_off_c, 4, 46, 0
4, 256320, Note_on_c, 4, 64, 91
4, 256320, Note_on_c, 4, 69, 91
4, 256320, Note_on_c, 4, 73, 91
4, 256680, Note_off_c, 4, 73, 0
4, 256680, Note_off_c, 4, 69, 0
4, 256680, Note_off_c, 4, 64, 0
4, 256680, Note_on_c, 4, 64, 91
4, 256680, Note_on_c, 4, 69, 91
4, 256680, Note_on_c, 4, 73, 91
4, 257040, Note_off_c, 4, 73, 0
4, 257040, Note_off_c, 4, 69, 0
4, 257040, Note_off_c, 4, 64, 0
4, 257040, Note_on_c, 4, 64, 91
4, 257040, Note_on_c, 4, 69, 91
4, 257040, Note_on_c, 4, 73, 91
4, 257400, Note_off_c, 4, 73, 0
4, 257400, Note_off_c, 4, 69, 0
4, 257400, Note_off_c, 4, 64, 0
4, 257400, Note_on_c, 4, 64, 91
4, 257400, Note_on_c, 4, 69, 91
4, 257400, Note_on_c, 4, 73, 91
4, 257760, Note_off_c, 4, 73, 0
4, 257760, Note_off_c, 4, 69, 0
4, 257760, Note_off_c, 4, 64, 0
4, 257760, Note_on_c, 4, 64, 91
4, 257760, Note_on_c, 4, 69, 91
4, 257760, Note_on_c, 4, 73, 91
4, 258120, Note_off_c, 4, 73, 0
4, 258120, Note_off_c, 4, 69, 0
4, 258120, Note_off_c, 4, 64, 0
4, 258120, Note_on_c, 4, 64, 91
4, 258120, Note_on_c, 4, 69, 91
4, 258120, Note_on_c, 4, 73, 91
4, 258480, Note_off_c, 4, 73, 0
4, 258480, Note_off_c, 4, 69, 0
4, 258480, Note_off_c, 4, 64, 0
4, 258480, Note_on_c, 4, 64, 91
4, 258480, Note_on_c, 4, 69, 91
4, 258480, Note_on_c, 4, 73, 91
4, 258840, Note_off_c, 4, 73, 0
4, 258840, Note_off_c, 4, 69, 0
4, 258840, Note_off_c, 4, 64, 0
4, 258840, Note_on_c, 4, 64, 91
4, 258840, Note_on_c, 4, 69, 91
4, 258840, Note_on_c, 4, 73, 91
4, 259200, Note_off_c, 4, 73, 0
4, 259200, Note_off_c, 4, 69, 0
4, 259200, Note_off_c, 4, 64, 0
4, 259200, Note_on_c, 4, 64, 91
4, 259200, Note_on_c, 4, 69, 91
4, 259200, Note_on_c, 4, 73, 91
4, 259560, Note_off_c, 4, 73, 0
4, 259560, Note_off_c, 4, 69, 0
4, 259560, Note_off_c, 4, 64, 0
4, 259560, Note_on_c, 4, 64, 91
4, 259560, Note_on_c, 4, 69, 91
4, 259560, Note_on_c, 4, 73, 91
4, 259920, Note_off_c, 4, 73, 0
4, 259920, Note_off_c, 4, 69, 0
4, 259920, Note_off_c, 4, 64, 0
4, 259920, Note_on_c, 4, 64, 91
4, 259920, Note_on_c, 4, 69, 91
4, 259920, Note_on_c, 4, 73, 91
4, 260280, Note_off_c, 4, 73, 0
4, 260280, Note_off_c, 4, 69, 0
4, 260280, Note_off_c, 4, 64, 0
4, 260280, Note_on_c, 4, 64, 91
4, 260280, Note_on_c, 4, 69, 91
4, 260280, Note_on_c, 4, 73, 91
4, 260640, Note_off_c, 4, 73, 0
4, 260640, Note_off_c, 4, 69, 0
4, 260640, Note_off_c, 4, 64, 0
4, 260640, Note_on_c, 4, 64, 91
4, 260640, Note_on_c, 4, 69, 91
4, 260640, Note_on_c, 4, 73, 91
4, 261000, Note_off_c, 4, 73, 0
4, 261000, Note_off_c, 4, 69, 0
4, 261000, Note_off_c, 4, 64, 0
4, 261000, Note_on_c, 4, 64, 91
4, 261000, Note_on_c, 4, 69, 91
4, 261000, Note_on_c, 4, 73, 91
4, 261360, Note_off_c, 4, 73, 0
4, 261360, Note_off_c, 4, 69, 0
4, 261360, Note_off_c, 4, 64, 0
4, 261360, Note_on_c, 4, 64, 91
4, 261360, Note_on_c, 4, 69, 91
4, 261360, Note_on_c, 4, 73, 91
4, 261720, Note_off_c, 4, 73, 0
4, 261720, Note_off_c, 4, 69, 0
4, 261720, Note_off_c, 4, 64, 0
4, 261720, Note_on_c, 4, 64, 91
4, 261720, Note_on_c, 4, 69, 91
4, 261720, Note_on_c, 4, 73, 91
4, 262080, Note_off_c, 4, 73, 0
4, 262080, Note_off_c, 4, 69, 0
4, 262080, Note_off_c, 4, 64, 0
4, 262080, Note_on_c, 4, 64, 91
4, 262080, Note_on_c, 4, 67, 91
4, 262080, Note_on_c, 4, 72, 91
4, 262440, Note_off_c, 4, 72, 0
4, 262440, Note_off_c, 4, 67, 0
4, 262440, Note_off_c, 4, 64, 0
4, 262440, Note_on_c, 4, 64, 91
4, 262440, Note_on_c, 4, 67, 91
4, 262440, Note_on_c, 4, 72, 91
4, 262800, Note_off_c, 4, 72, 0
4, 262800, Note_off_c, 4, 67, 0
4, 262800, Note_off_c, 4, 64, 0
4, 262800, Note_on_c, 4, 64, 91
4, 262800, Note_on_c, 4, 67, 91
4, 262800, Note_on_c, 4, 72, 91
4, 263160, Note_off_c, 4, 72, 0
4, 263160, Note_off_c, 4, 67, 0
4, 263160, Note_off_c, 4, 64, 0
4, 263160, Note_on_c, 4, 64, 91
4, 263160, Note_on_c, 4, 67, 91
4, 263160, Note_on_c, 4, 72, 91
4, 263520, Note_off_c, 4, 72, 0
4, 263520, Note_off_c, 4, 67, 0
4, 263520, Note_off_c, 4, 64, 0
4, 263520, Note_on_c, 4, 64, 91
4, 263520, Note_on_c, 4, 67, 91
4, 263520, Note_on_c, 4, 72, 91
4, 263880, Note_off_c, 4, 72, 0
4, 263880, Note_off_c, 4, 67, 0
4, 263880, Note_off_c, 4, 64, 0
4, 263880, Note_on_c, 4, 64, 91
4, 263880, Note_on_c, 4, 67, 91
4, 263880, Note_on_c, 4, 72, 91
4, 264240, Note_off_c, 4, 72, 0
4, 264240, Note_off_c, 4, 67, 0
4, 264240, Note_off_c, 4, 64, 0
4, 264240, Note_on_c, 4, 64, 91
4, 264240, Note_on_c, 4, 67, 91
4, 264240, Note_on_c, 4, 72, 91
4, 264600, Note_off_c, 4, 72, 0
4, 264600, Note_off_c, 4, 67, 0
4, 264600, Note_off_c, 4, 64, 0
4, 264600, Note_on_c, 4, 64, 91
4, 264600, Note_on_c, 4, 67, 91
4, 264600, Note_on_c, 4, 72, 91
4, 264960, Note_off_c, 4, 72, 0
4, 264960, Note_off_c, 4, 67, 0
4, 264960, Note_off_c, 4, 64, 0
4, 264960, Note_on_c, 4, 64, 91
4, 264960, Note_on_c, 4, 67, 91
4, 264960, Note_on_c, 4, 72, 91
4, 265320, Note_off_c, 4, 72, 0
4, 265320, Note_off_c, 4, 67, 0
4, 265320, Note_off_c, 4, 64, 0
4, 265320, Note_on_c, 4, 64, 91
4, 265320, Note_on_c, 4, 67, 91
4, 265320, Note_on_c, 4, 72, 91
4, 265680, Note_off_c, 4, 72, 0
4, 265680, Note_off_c, 4, 67, 0
4, 265680, Note_off_c, 4, 64, 0
4, 265680, Note_on_c, 4, 64, 91
4, 265680, Note_on_c, 4, 67, 91
4, 265680, Note_on_c, 4, 72, 91
4, 266040, Note_off_c, 4, 72, 0
4, 266040, Note_off_c, 4, 67, 0
4, 266040, Note_off_c, 4, 64, 0
4, 266040, Note_on_c, 4, 64, 91
4, 266040, Note_on_c, 4, 67, 91
4, 266040, Note_on_c, 4, 72, 91
4, 266400, Note_off_c, 4, 72, 0
4, 266400, Note_off_c, 4, 67, 0
4, 266400, Note_off_c, 4, 64, 0
4, 266400, Note_on_c, 4, 64, 91
4, 266400, Note_on_c, 4, 67, 91
4, 266400, Note_on_c, 4, 72, 91
4, 266760, Note_off_c, 4, 72, 0
4, 266760, Note_off_c, 4, 67, 0
4, 266760, Note_off_c, 4, 64, 0
4, 266760, Note_on_c, 4, 64, 91
4, 266760, Note_on_c, 4, 67, 91
4, 266760, Note_on_c, 4, 72, 91
4, 267120, Note_off_c, 4, 72, 0
4, 267120, Note_off_c, 4, 67, 0
4, 267120, Note_off_c, 4, 64, 0
4, 267120, Note_on_c, 4, 64, 91
4, 267120, Note_on_c, 4, 67, 91
4, 267120, Note_on_c, 4, 72, 91
4, 267480, Note_off_c, 4, 72, 0
4, 267480, Note_off_c, 4, 67, 0
4, 267480, Note_off_c, 4, 64, 0
4, 267480, Note_on_c, 4, 64, 91
4, 267480, Note_on_c, 4, 67, 91
4, 267480, Note_on_c, 4, 72, 91
4, 267840, Note_off_c, 4, 72, 0
4, 267840, Note_off_c, 4, 67, 0
4, 267840, Note_off_c, 4, 64, 0
4, 267840, Note_on_c, 4, 65, 91
4, 267840, Note_on_c, 4, 69, 91
4, 267840, Note_on_c, 4, 72, 91
4, 268200, Note_off_c, 4, 72, 0
4, 268200, Note_off_c, 4, 69, 0
4, 268200, Note_off_c, 4, 65, 0
4, 268200, Note_on_c, 4, 65, 91
4, 268200, Note_on_c, 4, 69, 91
4, 268200, Note_on_c, 4, 72, 91
4, 268560, Note_off_c, 4, 72, 0
4, 268560, Note_off_c, 4, 69, 0
4, 268560, Note_off_c, 4, 65, 0
4, 268560, Note_on_c, 4, 65, 91
4, 268560, Note_on_c, 4, 69, 91
4, 268560, Note_on_c, 4, 72, 91
4, 268920, Note_off_c, 4, 72, 0
4, 268920, Note_off_c, 4, 69, 0
4, 268920, Note_off_c, 4, 65, 0
4, 268920, Note_on_c, 4, 65, 91
4, 268920, Note_on_c, 4, 69, 91
4, 268920, Note_on_c, 4, 72, 91
4, 269280, Note_off_c, 4, 72, 0
4, 269280, Note_off_c, 4, 69, 0
4, 269280, Note_off_c, 4, 65, 0
4, 269280, Note_on_c, 4, 65, 91
4, 269280, Note_on_c, 4, 69, 91
4, 269280, Note_on_c, 4, 72, 91
4, 269640, Note_off_c, 4, 72, 0
4, 269640, Note_off_c, 4, 69, 0
4, 269640, Note_off_c, 4, 65, 0
4, 269640, Note_on_c, 4, 65, 91
4, 269640, Note_on_c, 4, 69, 91
4, 269640, Note_on_c, 4, 72, 91
4, 270000, Note_off_c, 4, 72, 0
4, 270000, Note_off_c, 4, 69, 0
4, 270000, Note_off_c, 4, 65, 0
4, 270000, Note_on_c, 4, 65, 91
4, 270000, Note_on_c, 4, 69, 91
4, 270000, Note_on_c, 4, 72, 91
4, 270360, Note_off_c, 4, 72, 0
4, 270360, Note_off_c, 4, 69, 0
4, 270360, Note_off_c, 4, 65, 0
4, 270360, Note_on_c, 4, 65, 91
4, 270360, Note_on_c, 4, 69, 91
4, 270360, Note_on_c, 4, 72, 91
4, 270720, Note_off_c, 4, 72, 0
4, 270720, Note_off_c, 4, 69, 0
4, 270720, Note_off_c, 4, 65, 0
4, 270720, Note_on_c, 4, 65, 91
4, 270720, Note_on_c, 4, 69, 91
4, 270720, Note_on_c, 4, 72, 91
4, 271080, Note_off_c, 4, 72, 0
4, 271080, Note_off_c, 4, 69, 0
4, 271080, Note_off_c, 4, 65, 0
4, 271080, Note_on_c, 4, 65, 91
4, 271080, Note_on_c, 4, 69, 91
4, 271080, Note_on_c, 4, 72, 91
4, 271440, Note_off_c, 4, 72, 0
4, 271440, Note_off_c, 4, 69, 0
4, 271440, Note_off_c, 4, 65, 0
4, 271440, Note_on_c, 4, 65, 91
4, 271440, Note_on_c, 4, 69, 91
4, 271440, Note_on_c, 4, 72, 91
4, 271800, Note_off_c, 4, 72, 0
4, 271800, Note_off_c, 4, 69, 0
4, 271800, Note_off_c, 4, 65, 0
4, 271800, Note_on_c, 4, 65, 91
4, 271800, Note_on_c, 4, 69, 91
4, 271800, Note_on_c, 4, 72, 91
4, 272160, Note_off_c, 4, 72, 0
4, 272160, Note_off_c, 4, 69, 0
4, 272160, Note_off_c, 4, 65, 0
4, 272160, Note_on_c, 4, 65, 91
4, 272160, Note_on_c, 4, 69, 91
4, 272160, Note_on_c, 4, 72, 91
4, 272520, Note_off_c, 4, 72, 0
4, 272520, Note_off_c, 4, 69, 0
4, 272520, Note_off_c, 4, 65, 0
4, 272520, Note_on_c, 4, 65, 91
4, 272520, Note_on_c, 4, 69, 91
4, 272520, Note_on_c, 4, 72, 91
4, 272880, Note_off_c, 4, 72, 0
4, 272880, Note_off_c, 4, 69, 0
4, 272880, Note_off_c, 4, 65, 0
4, 272880, Note_on_c, 4, 65, 91
4, 272880, Note_on_c, 4, 69, 91
4, 272880, Note_on_c, 4, 72, 91
4, 273240, Note_off_c, 4, 72, 0
4, 273240, Note_off_c, 4, 69, 0
4, 273240, Note_off_c, 4, 65, 0
4, 273240, Note_on_c, 4, 65, 91
4, 273240, Note_on_c, 4, 69, 91
4, 273240, Note_on_c, 4, 72, 91
4, 273600, Note_off_c, 4, 72, 0
4, 273600, Note_off_c, 4, 69, 0
4, 273600, Note_off_c, 4, 65, 0
4, 273600, Note_on_c, 4, 67, 91
4, 273600, Note_on_c, 4, 71, 91
4, 273600, Note_on_c, 4, 74, 91
4, 273960, Note_off_c, 4, 74, 0
4, 273960, Note_off_c, 4, 71, 0
4, 273960, Note_off_c, 4, 67, 0
4, 273960, Note_on_c, 4, 67, 91
4, 273960, Note_on_c, 4, 71, 91
4, 273960, Note_on_c, 4, 74, 91
4, 274320, Note_off_c, 4, 74, 0
4, 274320, Note_off_c, 4, 71, 0
4, 274320, Note_off_c, 4, 67, 0
4, 274320, Note_on_c, 4, 67, 91
4, 274320, Note_on_c, 4, 71, 91
4, 274320, Note_on_c, 4, 74, 91
4, 274680, Note_off_c, 4, 74, 0
4, 274680, Note_off_c, 4, 71, 0
4, 274680, Note_off_c, 4, 67, 0
4, 274680, Note_on_c, 4, 67, 91
4, 274680, Note_on_c, 4, 71, 91
4, 274680, Note_on_c, 4, 74, 91
4, 275040, Note_off_c, 4, 74, 0
4, 275040, Note_off_c, 4, 71, 0
4, 275040, Note_off_c, 4, 67, 0
4, 275040, Note_on_c, 4, 67, 91
4, 275040, Note_on_c, 4, 71, 91
4, 275040, Note_on_c, 4, 74, 91
4, 275400, Note_off_c, 4, 74, 0
4, 275400, Note_off_c, 4, 71, 0
4, 275400, Note_off_c, 4, 67, 0
4, 275400, Note_on_c, 4, 67, 91
4, 275400, Note_on_c, 4, 71, 91
4, 275400, Note_on_c, 4, 74, 91
4, 275760, Note_off_c, 4, 74, 0
4, 275760, Note_off_c, 4, 71, 0
4, 275760, Note_off_c, 4, 67, 0
4, 275760, Note_on_c, 4, 67, 91
4, 275760, Note_on_c, 4, 71, 91
4, 275760, Note_on_c, 4, 74, 91
4, 276120, Note_off_c, 4, 74, 0
4, 276120, Note_off_c, 4, 71, 0
4, 276120, Note_off_c, 4, 67, 0
4, 276120, Note_on_c, 4, 67, 91
4, 276120, Note_on_c, 4, 71, 91
4, 276120, Note_on_c, 4, 74, 91
4, 276480, Note_off_c, 4, 74, 0
4, 276480, Note_off_c, 4, 71, 0
4, 276480, Note_off_c, 4, 67, 0
4, 276480, Note_on_c, 4, 67, 91
4, 276480, Note_on_c, 4, 71, 91
4, 276480, Note_on_c, 4, 74, 91
4, 276840, Note_off_c, 4, 74, 0
4, 276840, Note_off_c, 4, 71, 0
4, 276840, Note_off_c, 4, 67, 0
4, 276840, Note_on_c, 4, 67, 91
4, 276840, Note_on_c, 4, 71, 91
4, 276840, Note_on_c, 4, 74, 91
4, 277200, Note_off_c, 4, 74, 0
4, 277200, Note_off_c, 4, 71, 0
4, 277200, Note_off_c, 4, 67, 0
4, 277200, Note_on_c, 4, 67, 91
4, 277200, Note_on_c, 4, 71, 91
4, 277200, Note_on_c, 4, 74, 91
4, 277560, Note_off_c, 4, 74, 0
4, 277560, Note_off_c, 4, 71, 0
4, 277560, Note_off_c, 4, 67, 0
4, 277560, Note_on_c, 4, 67, 91
4, 277560, Note_on_c, 4, 71, 91
4, 277560, Note_on_c, 4, 74, 91
4, 277920, Note_off_c, 4, 74, 0
4, 277920, Note_off_c, 4, 71, 0
4, 277920, Note_off_c, 4, 67, 0
4, 277920, Note_on_c, 4, 65, 91
4, 277920, Note_on_c, 4, 70, 91
4, 277920, Note_on_c, 4, 74, 91
4, 278280, Note_off_c, 4, 74, 0
4, 278280, Note_off_c, 4, 70, 0
4, 278280, Note_off_c, 4, 65, 0
4, 278280, Note_on_c, 4, 65, 91
4, 278280, Note_on_c, 4, 70, 91
4, 278280, Note_on_c, 4, 74, 91
4, 278640, Note_off_c, 4, 74, 0
4, 278640, Note_off_c, 4, 70, 0
4, 278640, Note_off_c, 4, 65, 0
4, 278640, Note_on_c, 4, 65, 91
4, 278640, Note_on_c, 4, 70, 91
4, 278640, Note_on_c, 4, 74, 91
4, 279000, Note_off_c, 4, 74, 0
4, 279000, Note_off_c, 4, 70, 0
4, 279000, Note_off_c, 4, 65, 0
4, 279000, Note_on_c, 4, 65, 91
4, 279000, Note_on_c, 4, 70, 91
4, 279000, Note_on_c, 4, 74, 91
4, 279360, Note_off_c, 4, 74, 0
4, 279360, Note_off_c, 4, 70, 0
4, 279360, Note_off_c, 4, 65, 0
4, 279360, Note_on_c, 4, 45, 91
4, 279360, Note_on_c, 4, 52, 91
4, 279360, Note_on_c, 4, 57, 91
4, 279360, Note_on_c, 4, 61, 91
4, 279360, Note_on_c, 4, 64, 91
4, 279360, Note_on_c, 4, 69, 91
4, 279360, Note_on_c, 4, 64, 91
4, 279360, Note_on_c, 4, 69, 91
4, 279360, Note_on_c, 4, 73, 91
4, 279720, Note_off_c, 4, 73, 0
4, 279720, Note_off_c, 4, 69, 0
4, 279720, Note_off_c, 4, 64, 0
4, 279720, Note_off_c, 4, 69, 0
4, 279720, Note_off_c, 4, 64, 0
4, 279720, Note_off_c, 4, 61, 0
4, 279720, Note_off_c, 4, 57, 0
4, 279720, Note_off_c, 4, 52, 0
4, 279720, Note_off_c, 4, 45, 0
4, 279720, Note_on_c, 4, 45, 91
4, 279720, Note_on_c, 4, 52, 91
4, 279720, Note_on_c, 4, 57, 91
4, 279720, Note_on_c, 4, 61, 91
4, 279720, Note_on_c, 4, 64, 91
4, 279720, Note_on_c, 4, 69, 91
4, 279720, Note_on_c, 4, 64, 91
4, 279720, Note_on_c, 4, 69, 91
4, 279720, Note_on_c, 4, 73, 91
4, 280080, Note_off_c, 4, 73, 0
4, 280080, Note_off_c, 4, 69, 0
4, 280080, Note_off_c, 4, 64, 0
4, 280080, Note_off_c, 4, 69, 0
4, 280080, Note_off_c, 4, 64, 0
4, 280080, Note_off_c, 4, 61, 0
4, 280080, Note_off_c, 4, 57, 0
4, 280080, Note_off_c, 4, 52, 0
4, 280080, Note_off_c, 4, 45, 0
4, 280080, Note_on_c, 4, 45, 91
4, 280080, Note_on_c, 4, 52, 91
4, 280080, Note_on_c, 4, 57, 91
4, 280080, Note_on_c, 4, 61, 91
4, 280080, Note_on_c, 4, 64, 91
4, 280080, Note_on_c, 4, 69, 91
4, 280080, Note_on_c, 4, 64, 91
4, 280080, Note_on_c, 4, 69, 91
4, 280080, Note_on_c, 4, 73, 91
4, 280440, Note_off_c, 4, 73, 0
4, 280440, Note_off_c, 4, 69, 0
4, 280440, Note_off_c, 4, 64, 0
4, 280440, Note_off_c, 4, 69, 0
4, 280440, Note_off_c, 4, 64, 0
4, 280440, Note_off_c, 4, 61, 0
4, 280440, Note_off_c, 4, 57, 0
4, 280440, Note_off_c, 4, 52, 0
4, 280440, Note_off_c, 4, 45, 0
4, 280440, Note_on_c, 4, 45, 91
4, 280440, Note_on_c, 4, 52, 91
4, 280440, Note_on_c, 4, 57, 91
4, 280440, Note_on_c, 4, 61, 91
4, 280440, Note_on_c, 4, 64, 91
4, 280440, Note_on_c, 4, 69, 91
4, 280440, Note_on_c, 4, 64, 91
4, 280440, Note_on_c, 4, 69, 91
4, 280440, Note_on_c, 4, 73, 91
4, 280800, Note_off_c, 4, 73, 0
4, 280800, Note_off_c, 4, 69, 0
4, 280800, Note_off_c, 4, 64, 0
4, 280800, Note_off_c, 4, 69, 0
4, 280800, Note_off_c, 4, 64, 0
4, 280800, Note_off_c, 4, 61, 0
4, 280800, Note_off_c, 4, 57, 0
4, 280800, Note_off_c, 4, 52, 0
4, 280800, Note_off_c, 4, 45, 0
4, 280800, Note_on_c, 4, 45, 91
4, 280800, Note_on_c, 4, 52, 91
4, 280800, Note_on_c, 4, 57, 91
4, 280800, Note_on_c, 4, 61, 91
4, 280800, Note_on_c, 4, 64, 91
4, 280800, Note_on_c, 4, 69, 91
4, 280800, Note_on_c, 4, 64, 91
4, 280800, Note_on_c, 4, 69, 91
4, 280800, Note_on_c, 4, 73, 91
4, 281160, Note_off_c, 4, 73, 0
4, 281160, Note_off_c, 4, 69, 0
4, 281160, Note_off_c, 4, 64, 0
4, 281160, Note_off_c, 4, 69, 0
4, 281160, Note_off_c, 4, 64, 0
4, 281160, Note_off_c, 4, 61, 0
4, 281160, Note_off_c, 4, 57, 0
4, 281160, Note_off_c, 4, 52, 0
4, 281160, Note_off_c, 4, 45, 0
4, 281160, Note_on_c, 4, 45, 91
4, 281160, Note_on_c, 4, 52, 91
4, 281160, Note_on_c, 4, 57, 91
4, 281160, Note_on_c, 4, 61, 91
4, 281160, Note_on_c, 4, 64, 91
4, 281160, Note_on_c, 4, 69, 91
4, 281160, Note_on_c, 4, 64, 91
4, 281160, Note_on_c, 4, 69, 91
4, 281160, Note_on_c, 4, 73, 91
4, 281520, Note_off_c, 4, 73, 0
4, 281520, Note_off_c, 4, 69, 0
4, 281520, Note_off_c, 4, 64, 0
4, 281520, Note_off_c, 4, 69, 0
4, 281520, Note_off_c, 4, 64, 0
4, 281520, Note_off_c, 4, 61, 0
4, 281520, Note_off_c, 4, 57, 0
4, 281520, Note_off_c, 4, 52, 0
4, 281520, Note_off_c, 4, 45, 0
4, 281520, Note_on_c, 4, 45, 91
4, 281520, Note_on_c, 4, 52, 91
4, 281520, Note_on_c, 4, 57, 91
4, 281520, Note_on_c, 4, 61, 91
4, 281520, Note_on_c, 4, 64, 91
4, 281520, Note_on_c, 4, 69, 91
4, 281520, Note_on_c, 4, 64, 91
4, 281520, Note_on_c, 4, 69, 91
4, 281520, Note_on_c, 4, 73, 91
4, 281880, Note_off_c, 4, 73, 0
4, 281880, Note_off_c, 4, 69, 0
4, 281880, Note_off_c, 4, 64, 0
4, 281880, Note_off_c, 4, 69, 0
4, 281880, Note_off_c, 4, 64, 0
4, 281880, Note_off_c, 4, 61, 0
4, 281880, Note_off_c, 4, 57, 0
4, 281880, Note_off_c, 4, 52, 0
4, 281880, Note_off_c, 4, 45, 0
4, 281880, Note_on_c, 4, 45, 91
4, 281880, Note_on_c, 4, 52, 91
4, 281880, Note_on_c, 4, 57, 91
4, 281880, Note_on_c, 4, 61, 91
4, 281880, Note_on_c, 4, 64, 91
4, 281880, Note_on_c, 4, 69, 91
4, 281880, Note_on_c, 4, 64, 91
4, 281880, Note_on_c, 4, 69, 91
4, 281880, Note_on_c, 4, 73, 91
4, 282240, Note_off_c, 4, 73, 0
4, 282240, Note_off_c, 4, 69, 0
4, 282240, Note_off_c, 4, 64, 0
4, 282240, Note_off_c, 4, 69, 0
4, 282240, Note_off_c, 4, 64, 0
4, 282240, Note_off_c, 4, 61, 0
4, 282240, Note_off_c, 4, 57, 0
4, 282240, Note_off_c, 4, 52, 0
4, 282240, Note_off_c, 4, 45, 0
4, 282240, Note_on_c, 4, 45, 91
4, 282240, Note_on_c, 4, 52, 91
4, 282240, Note_on_c, 4, 57, 91
4, 282240, Note_on_c, 4, 61, 91
4, 282240, Note_on_c, 4, 64, 91
4, 282240, Note_on_c, 4, 69, 91
4, 282240, Note_on_c, 4, 64, 91
4, 282240, Note_on_c, 4, 69, 91
4, 282240, Note_on_c, 4, 73, 91
4, 282600, Note_off_c, 4, 73, 0
4, 282600, Note_off_c, 4, 69, 0
4, 282600, Note_off_c, 4, 64, 0
4, 282600, Note_off_c, 4, 69, 0
4, 282600, Note_off_c, 4, 64, 0
4, 282600, Note_off_c, 4, 61, 0
4, 282600, Note_off_c, 4, 57, 0
4, 282600, Note_off_c, 4, 52, 0
4, 282600, Note_off_c, 4, 45, 0
4, 282600, Note_on_c, 4, 45, 91
4, 282600, Note_on_c, 4, 52, 91
4, 282600, Note_on_c, 4, 57, 91
4, 282600, Note_on_c, 4, 61, 91
4, 282600, Note_on_c, 4, 64, 91
4, 282600, Note_on_c, 4, 69, 91
4, 282600, Note_on_c, 4, 64, 91
4, 282600, Note_on_c, 4, 69, 91
4, 282600, Note_on_c, 4, 73, 91
4, 282960, Note_off_c, 4, 73, 0
4, 282960, Note_off_c, 4, 69, 0
4, 282960, Note_off_c, 4, 64, 0
4, 282960, Note_off_c, 4, 69, 0
4, 282960, Note_off_c, 4, 64, 0
4, 282960, Note_off_c, 4, 61, 0
4, 282960, Note_off_c, 4, 57, 0
4, 282960, Note_off_c, 4, 52, 0
4, 282960, Note_off_c, 4, 45, 0
4, 282960, Note_on_c, 4, 45, 91
4, 282960, Note_on_c, 4, 52, 91
4, 282960, Note_on_c, 4, 57, 91
4, 282960, Note_on_c, 4, 61, 91
4, 282960, Note_on_c, 4, 64, 91
4, 282960, Note_on_c, 4, 69, 91
4, 282960, Note_on_c, 4, 64, 91
4, 282960, Note_on_c, 4, 69, 91
4, 282960, Note_on_c, 4, 73, 91
4, 283320, Note_off_c, 4, 73, 0
4, 283320, Note_off_c, 4, 69, 0
4, 283320, Note_off_c, 4, 64, 0
4, 283320, Note_off_c, 4, 69, 0
4, 283320, Note_off_c, 4, 64, 0
4, 283320, Note_off_c, 4, 61, 0
4, 283320, Note_off_c, 4, 57, 0
4, 283320, Note_off_c, 4, 52, 0
4, 283320, Note_off_c, 4, 45, 0
4, 283320, Note_on_c, 4, 45, 91
4, 283320, Note_on_c, 4, 52, 91
4, 283320, Note_on_c, 4, 57, 91
4, 283320, Note_on_c, 4, 61, 91
4, 283320, Note_on_c, 4, 64, 91
4, 283320, Note_on_c, 4, 69, 91
4, 283320, Note_on_c, 4, 64, 91
4, 283320, Note_on_c, 4, 69, 91
4, 283320, Note_on_c, 4, 73, 91
4, 283680, Note_off_c, 4, 73, 0
4, 283680, Note_off_c, 4, 69, 0
4, 283680, Note_off_c, 4, 64, 0
4, 283680, Note_off_c, 4, 69, 0
4, 283680, Note_off_c, 4, 64, 0
4, 283680, Note_off_c, 4, 61, 0
4, 283680, Note_off_c, 4, 57, 0
4, 283680, Note_off_c, 4, 52, 0
4, 283680, Note_off_c, 4, 45, 0
4, 283680, Note_on_c, 4, 45, 91
4, 283680, Note_on_c, 4, 52, 91
4, 283680, Note_on_c, 4, 57, 91
4, 283680, Note_on_c, 4, 61, 91
4, 283680, Note_on_c, 4, 64, 91
4, 283680, Note_on_c, 4, 69, 91
4, 283680, Note_on_c, 4, 64, 91
4, 283680, Note_on_c, 4, 69, 91
4, 283680, Note_on_c, 4, 73, 91
4, 284040, Note_off_c, 4, 73, 0
4, 284040, Note_off_c, 4, 69, 0
4, 284040, Note_off_c, 4, 64, 0
4, 284040, Note_off_c, 4, 69, 0
4, 284040, Note_off_c, 4, 64, 0
4, 284040, Note_off_c, 4, 61, 0
4, 284040, Note_off_c, 4, 57, 0
4, 284040, Note_off_c, 4, 52, 0
4, 284040, Note_off_c, 4, 45, 0
4, 284040, Note_on_c, 4, 45, 91
4, 284040, Note_on_c, 4, 52, 91
4, 284040, Note_on_c, 4, 57, 91
4, 284040, Note_on_c, 4, 61, 91
4, 284040, Note_on_c, 4, 64, 91
4, 284040, Note_on_c, 4, 69, 91
4, 284040, Note_on_c, 4, 64, 91
4, 284040, Note_on_c, 4, 69, 91
4, 284040, Note_on_c, 4, 73, 91
4, 284400, Note_off_c, 4, 73, 0
4, 284400, Note_off_c, 4, 69, 0
4, 284400, Note_off_c, 4, 64, 0
4, 284400, Note_off_c, 4, 69, 0
4, 284400, Note_off_c, 4, 64, 0
4, 284400, Note_off_c, 4, 61, 0
4, 284400, Note_off_c, 4, 57, 0
4, 284400, Note_off_c, 4, 52, 0
4, 284400, Note_off_c, 4, 45, 0
4, 284400, Note_on_c, 4, 45, 91
4, 284400, Note_on_c, 4, 52, 91
4, 284400, Note_on_c, 4, 57, 91
4, 284400, Note_on_c, 4, 61, 91
4, 284400, Note_on_c, 4, 64, 91
4, 284400, Note_on_c, 4, 69, 91
4, 284400, Note_on_c, 4, 64, 91
4, 284400, Note_on_c, 4, 69, 91
4, 284400, Note_on_c, 4, 73, 91
4, 284760, Note_off_c, 4, 73, 0
4, 284760, Note_off_c, 4, 69, 0
4, 284760, Note_off_c, 4, 64, 0
4, 284760, Note_off_c, 4, 69, 0
4, 284760, Note_off_c, 4, 64, 0
4, 284760, Note_off_c, 4, 61, 0
4, 284760, Note_off_c, 4, 57, 0
4, 284760, Note_off_c, 4, 52, 0
4, 284760, Note_off_c, 4, 45, 0
4, 284760, Note_on_c, 4, 45, 91
4, 284760, Note_on_c, 4, 52, 91
4, 284760, Note_on_c, 4, 57, 91
4, 284760, Note_on_c, 4, 61, 91
4, 284760, Note_on_c, 4, 64, 91
4, 284760, Note_on_c, 4, 69, 91
4, 284760, Note_on_c, 4, 64, 91
4, 284760, Note_on_c, 4, 69, 91
4, 284760, Note_on_c, 4, 73, 91
4, 285120, Note_off_c, 4, 73, 0
4, 285120, Note_off_c, 4, 69, 0
4, 285120, Note_off_c, 4, 64, 0
4, 285120, Note_off_c, 4, 69, 0
4, 285120, Note_off_c, 4, 64, 0
4, 285120, Note_off_c, 4, 61, 0
4, 285120, Note_off_c, 4, 57, 0
4, 285120, Note_off_c, 4, 52, 0
4, 285120, Note_off_c, 4, 45, 0
4, 285120, Note_on_c, 4, 48, 91
4, 285120, Note_on_c, 4, 55, 91
4, 285120, Note_on_c, 4, 60, 91
4, 285120, Note_on_c, 4, 64, 91
4, 285120, Note_on_c, 4, 67, 91
4, 285120, Note_on_c, 4, 72, 91
4, 285120, Note_on_c, 4, 64, 91
4, 285120, Note_on_c, 4, 67, 91
4, 285120, Note_on_c, 4, 72, 91
4, 285480, Note_off_c, 4, 72, 0
4, 285480, Note_off_c, 4, 67, 0
4, 285480, Note_off_c, 4, 64, 0
4, 285480, Note_off_c, 4, 72, 0
4, 285480, Note_off_c, 4, 67, 0
4, 285480, Note_off_c, 4, 64, 0
4, 285480, Note_off_c, 4, 60, 0
4, 285480, Note_off_c, 4, 55, 0
4, 285480, Note_off_c, 4, 48, 0
4, 285480, Note_on_c, 4, 48, 91
4, 285480, Note_on_c, 4, 55, 91
4, 285480, Note_on_c, 4, 60, 91
4, 285480, Note_on_c, 4, 64, 91
4, 285480, Note_on_c, 4, 67, 91
4, 285480, Note_on_c, 4, 72, 91
4, 285480, Note_on_c, 4, 64, 91
4, 285480, Note_on_c, 4, 67, 91
4, 285480, Note_on_c, 4, 72, 91
4, 285840, Note_off_c, 4, 72, 0
4, 285840, Note_off_c, 4, 67, 0
4, 285840, Note_off_c, 4, 64, 0
4, 285840, Note_off_c, 4, 72, 0
4, 285840, Note_off_c, 4, 67, 0
4, 285840, Note_off_c, 4, 64, 0
4, 285840, Note_off_c, 4, 60, 0
4, 285840, Note_off_c, 4, 55, 0
4, 285840, Note_off_c, 4, 48, 0
4, 285840, Note_on_c, 4, 48, 91
4, 285840, Note_on_c, 4, 55, 91
4, 285840, Note_on_c, 4, 60, 91
4, 285840, Note_on_c, 4, 64, 91
4, 285840, Note_on_c, 4, 67, 91
4, 285840, Note_on_c, 4, 72, 91
4, 285840, Note_on_c, 4, 64, 91
4, 285840, Note_on_c, 4, 67, 91
4, 285840, Note_on_c, 4, 72, 91
4, 286200, Note_off_c, 4, 72, 0
4, 286200, Note_off_c, 4, 67, 0
4, 286200, Note_off_c, 4, 64, 0
4, 286200, Note_off_c, 4, 72, 0
4, 286200, Note_off_c, 4, 67, 0
4, 286200, Note_off_c, 4, 64, 0
4, 286200, Note_off_c, 4, 60, 0
4, 286200, Note_off_c, 4, 55, 0
4, 286200, Note_off_c, 4, 48, 0
4, 286200, Note_on_c, 4, 48, 91
4, 286200, Note_on_c, 4, 55, 91
4, 286200, Note_on_c, 4, 60, 91
4, 286200, Note_on_c, 4, 64, 91
4, 286200, Note_on_c, 4, 67, 91
4, 286200, Note_on_c, 4, 72, 91
4, 286200, Note_on_c, 4, 64, 91
4, 286200, Note_on_c, 4, 67, 91
4, 286200, Note_on_c, 4, 72, 91
4, 286560, Note_off_c, 4, 72, 0
4, 286560, Note_off_c, 4, 67, 0
4, 286560, Note_off_c, 4, 64, 0
4, 286560, Note_off_c, 4, 72, 0
4, 286560, Note_off_c, 4, 67, 0
4, 286560, Note_off_c, 4, 64, 0
4, 286560, Note_off_c, 4, 60, 0
4, 286560, Note_off_c, 4, 55, 0
4, 286560, Note_off_c, 4, 48, 0
4, 286560, Note_on_c, 4, 48, 91
4, 286560, Note_on_c, 4, 55, 91
4, 286560, Note_on_c, 4, 60, 91
4, 286560, Note_on_c, 4, 64, 91
4, 286560, Note_on_c, 4, 67, 91
4, 286560, Note_on_c, 4, 72, 91
4, 286560, Note_on_c, 4, 64, 91
4, 286560, Note_on_c, 4, 67, 91
4, 286560, Note_on_c, 4, 72, 91
4, 286920, Note_off_c, 4, 72, 0
4, 286920, Note_off_c, 4, 67, 0
4, 286920, Note_off_c, 4, 64, 0
4, 286920, Note_off_c, 4, 72, 0
4, 286920, Note_off_c, 4, 67, 0
4, 286920, Note_off_c, 4, 64, 0
4, 286920, Note_off_c, 4, 60, 0
4, 286920, Note_off_c, 4, 55, 0
4, 286920, Note_off_c, 4, 48, 0
4, 286920, Note_on_c, 4, 48, 91
4, 286920, Note_on_c, 4, 55, 91
4, 286920, Note_on_c, 4, 60, 91
4, 286920, Note_on_c, 4, 64, 91
4, 286920, Note_on_c, 4, 67, 91
4, 286920, Note_on_c, 4, 72, 91
4, 286920, Note_on_c, 4, 64, 91
4, 286920, Note_on_c, 4, 67, 91
4, 286920, Note_on_c, 4, 72, 91
4, 287280, Note_off_c, 4, 72, 0
4, 287280, Note_off_c, 4, 67, 0
4, 287280, Note_off_c, 4, 64, 0
4, 287280, Note_off_c, 4, 72, 0
4, 287280, Note_off_c, 4, 67, 0
4, 287280, Note_off_c, 4, 64, 0
4, 287280, Note_off_c, 4, 60, 0
4, 287280, Note_off_c, 4, 55, 0
4, 287280, Note_off_c, 4, 48, 0
4, 287280, Note_on_c, 4, 48, 91
4, 287280, Note_on_c, 4, 55, 91
4, 287280, Note_on_c, 4, 60, 91
4, 287280, Note_on_c, 4, 64, 91
4, 287280, Note_on_c, 4, 67, 91
4, 287280, Note_on_c, 4, 72, 91
4, 287280, Note_on_c, 4, 64, 91
4, 287280, Note_on_c, 4, 67, 91
4, 287280, Note_on_c, 4, 72, 91
4, 287640, Note_off_c, 4, 72, 0
4, 287640, Note_off_c, 4, 67, 0
4, 287640, Note_off_c, 4, 64, 0
4, 287640, Note_off_c, 4, 72, 0
4, 287640, Note_off_c, 4, 67, 0
4, 287640, Note_off_c, 4, 64, 0
4, 287640, Note_off_c, 4, 60, 0
4, 287640, Note_off_c, 4, 55, 0
4, 287640, Note_off_c, 4, 48, 0
4, 287640, Note_on_c, 4, 48, 91
4, 287640, Note_on_c, 4, 55, 91
4, 287640, Note_on_c, 4, 60, 91
4, 287640, Note_on_c, 4, 64, 91
4, 287640, Note_on_c, 4, 67, 91
4, 287640, Note_on_c, 4, 72, 91
4, 287640, Note_on_c, 4, 64, 91
4, 287640, Note_on_c, 4, 67, 91
4, 287640, Note_on_c, 4, 72, 91
4, 288000, Note_off_c, 4, 72, 0
4, 288000, Note_off_c, 4, 67, 0
4, 288000, Note_off_c, 4, 64, 0
4, 288000, Note_off_c, 4, 72, 0
4, 288000, Note_off_c, 4, 67, 0
4, 288000, Note_off_c, 4, 64, 0
4, 288000, Note_off_c, 4, 60, 0
4, 288000, Note_off_c, 4, 55, 0
4, 288000, Note_off_c, 4, 48, 0
4, 288000, Note_on_c, 4, 48, 91
4, 288000, Note_on_c, 4, 55, 91
4, 288000, Note_on_c, 4, 60, 91
4, 288000, Note_on_c, 4, 64, 91
4, 288000, Note_on_c, 4, 67, 91
4, 288000, Note_on_c, 4, 72, 91
4, 288000, Note_on_c, 4, 64, 91
4, 288000, Note_on_c, 4, 67, 91
4, 288000, Note_on_c, 4, 72, 91
4, 288360, Note_off_c, 4, 72, 0
4, 288360, Note_off_c, 4, 67, 0
4, 288360, Note_off_c, 4, 64, 0
4, 288360, Note_off_c, 4, 72, 0
4, 288360, Note_off_c, 4, 67, 0
4, 288360, Note_off_c, 4, 64, 0
4, 288360, Note_off_c, 4, 60, 0
4, 288360, Note_off_c, 4, 55, 0
4, 288360, Note_off_c, 4, 48, 0
4, 288360, Note_on_c, 4, 48, 91
4, 288360, Note_on_c, 4, 55, 91
4, 288360, Note_on_c, 4, 60, 91
4, 288360, Note_on_c, 4, 64, 91
4, 288360, Note_on_c, 4, 67, 91
4, 288360, Note_on_c, 4, 72, 91
4, 288360, Note_on_c, 4, 64, 91
4, 288360, Note_on_c, 4, 67, 91
4, 288360, Note_on_c, 4, 72, 91
4, 288720, Note_off_c, 4, 72, 0
4, 288720, Note_off_c, 4, 67, 0
4, 288720, Note_off_c, 4, 64, 0
4, 288720, Note_off_c, 4, 72, 0
4, 288720, Note_off_c, 4, 67, 0
4, 288720, Note_off_c, 4, 64, 0
4, 288720, Note_off_c, 4, 60, 0
4, 288720, Note_off_c, 4, 55, 0
4, 288720, Note_off_c, 4, 48, 0
4, 288720, Note_on_c, 4, 48, 91
4, 288720, Note_on_c, 4, 55, 91
4, 288720, Note_on_c, 4, 60, 91
4, 288720, Note_on_c, 4, 64, 91
4, 288720, Note_on_c, 4, 67, 91
4, 288720, Note_on_c, 4, 72, 91
4, 288720, Note_on_c, 4, 64, 91
4, 288720, Note_on_c, 4, 67, 91
4, 288720, Note_on_c, 4, 72, 91
4, 289080, Note_off_c, 4, 72, 0
4, 289080, Note_off_c, 4, 67, 0
4, 289080, Note_off_c, 4, 64, 0
4, 289080, Note_off_c, 4, 72, 0
4, 289080, Note_off_c, 4, 67, 0
4, 289080, Note_off_c, 4, 64, 0
4, 289080, Note_off_c, 4, 60, 0
4, 289080, Note_off_c, 4, 55, 0
4, 289080, Note_off_c, 4, 48, 0
4, 289080, Note_on_c, 4, 48, 91
4, 289080, Note_on_c, 4, 55, 91
4, 289080, Note_on_c, 4, 60, 91
4, 289080, Note_on_c, 4, 64, 91
4, 289080, Note_on_c, 4, 67, 91
4, 289080, Note_on_c, 4, 72, 91
4, 289080, Note_on_c, 4, 64, 91
4, 289080, Note_on_c, 4, 67, 91
4, 289080, Note_on_c, 4, 72, 91
4, 289440, Note_off_c, 4, 72, 0
4, 289440, Note_off_c, 4, 67, 0
4, 289440, Note_off_c, 4, 64, 0
4, 289440, Note_off_c, 4, 72, 0
4, 289440, Note_off_c, 4, 67, 0
4, 289440, Note_off_c, 4, 64, 0
4, 289440, Note_off_c, 4, 60, 0
4, 289440, Note_off_c, 4, 55, 0
4, 289440, Note_off_c, 4, 48, 0
4, 289440, Note_on_c, 4, 48, 91
4, 289440, Note_on_c, 4, 55, 91
4, 289440, Note_on_c, 4, 60, 91
4, 289440, Note_on_c, 4, 64, 91
4, 289440, Note_on_c, 4, 67, 91
4, 289440, Note_on_c, 4, 72, 91
4, 289440, Note_on_c, 4, 64, 91
4, 289440, Note_on_c, 4, 67, 91
4, 289440, Note_on_c, 4, 72, 91
4, 289800, Note_off_c, 4, 72, 0
4, 289800, Note_off_c, 4, 67, 0
4, 289800, Note_off_c, 4, 64, 0
4, 289800, Note_off_c, 4, 72, 0
4, 289800, Note_off_c, 4, 67, 0
4, 289800, Note_off_c, 4, 64, 0
4, 289800, Note_off_c, 4, 60, 0
4, 289800, Note_off_c, 4, 55, 0
4, 289800, Note_off_c, 4, 48, 0
4, 289800, Note_on_c, 4, 48, 91
4, 289800, Note_on_c, 4, 55, 91
4, 289800, Note_on_c, 4, 60, 91
4, 289800, Note_on_c, 4, 64, 91
4, 289800, Note_on_c, 4, 67, 91
4, 289800, Note_on_c, 4, 72, 91
4, 289800, Note_on_c, 4, 64, 91
4, 289800, Note_on_c, 4, 67, 91
4, 289800, Note_on_c, 4, 72, 91
4, 290160, Note_off_c, 4, 72, 0
4, 290160, Note_off_c, 4, 67, 0
4, 290160, Note_off_c, 4, 64, 0
4, 290160, Note_off_c, 4, 72, 0
4, 290160, Note_off_c, 4, 67, 0
4, 290160, Note_off_c, 4, 64, 0
4, 290160, Note_off_c, 4, 60, 0
4, 290160, Note_off_c, 4, 55, 0
4, 290160, Note_off_c, 4, 48, 0
4, 290160, Note_on_c, 4, 48, 91
4, 290160, Note_on_c, 4, 55, 91
4, 290160, Note_on_c, 4, 60, 91
4, 290160, Note_on_c, 4, 64, 91
4, 290160, Note_on_c, 4, 67, 91
4, 290160, Note_on_c, 4, 72, 91
4, 290160, Note_on_c, 4, 64, 91
4, 290160, Note_on_c, 4, 67, 91
4, 290160, Note_on_c, 4, 72, 91
4, 290520, Note_off_c, 4, 72, 0
4, 290520, Note_off_c, 4, 67, 0
4, 290520, Note_off_c, 4, 64, 0
4, 290520, Note_off_c, 4, 72, 0
4, 290520, Note_off_c, 4, 67, 0
4, 290520, Note_off_c, 4, 64, 0
4, 290520, Note_off_c, 4, 60, 0
4, 290520, Note_off_c, 4, 55, 0
4, 290520, Note_off_c, 4, 48, 0
4, 290520, Note_on_c, 4, 48, 91
4, 290520, Note_on_c, 4, 55, 91
4, 290520, Note_on_c, 4, 60, 91
4, 290520, Note_on_c, 4, 64, 91
4, 290520, Note_on_c, 4, 67, 91
4, 290520, Note_on_c, 4, 72, 91
4, 290520, Note_on_c, 4, 64, 91
4, 290520, Note_on_c, 4, 67, 91
4, 290520, Note_on_c, 4, 72, 91
4, 290880, Note_off_c, 4, 72, 0
4, 290880, Note_off_c, 4, 67, 0
4, 290880, Note_off_c, 4, 64, 0
4, 290880, Note_off_c, 4, 72, 0
4, 290880, Note_off_c, 4, 67, 0
4, 290880, Note_off_c, 4, 64, 0
4, 290880, Note_off_c, 4, 60, 0
4, 290880, Note_off_c, 4, 55, 0
4, 290880, Note_off_c, 4, 48, 0
4, 290880, Note_on_c, 4, 41, 91
4, 290880, Note_on_c, 4, 48, 91
4, 290880, Note_on_c, 4, 53, 91
4, 290880, Note_on_c, 4, 57, 91
4, 290880, Note_on_c, 4, 60, 91
4, 290880, Note_on_c, 4, 65, 91
4, 290880, Note_on_c, 4, 65, 91
4, 290880, Note_on_c, 4, 69, 91
4, 290880, Note_on_c, 4, 72, 91
4, 291240, Note_off_c, 4, 72, 0
4, 291240, Note_off_c, 4, 69, 0
4, 291240, Note_off_c, 4, 65, 0
4, 291240, Note_off_c, 4, 65, 0
4, 291240, Note_off_c, 4, 60, 0
4, 291240, Note_off_c, 4, 57, 0
4, 291240, Note_off_c, 4, 53, 0
4, 291240, Note_off_c, 4, 48, 0
4, 291240, Note_off_c, 4, 41, 0
4, 291240, Note_on_c, 4, 41, 91
4, 291240, Note_on_c, 4, 48, 91
4, 291240, Note_on_c, 4, 53, 91
4, 291240, Note_on_c, 4, 57, 91
4, 291240, Note_on_c, 4, 60, 91
4, 291240, Note_on_c, 4, 65, 91
4, 291240, Note_on_c, 4, 65, 91
4, 291240, Note_on_c, 4, 69, 91
4, 291240, Note_on_c, 4, 72, 91
4, 291600, Note_off_c, 4, 72, 0
4, 291600, Note_off_c, 4, 69, 0
4, 291600, Note_off_c, 4, 65, 0
4, 291600, Note_off_c, 4, 65, 0
4, 291600, Note_off_c, 4, 60, 0
4, 291600, Note_off_c, 4, 57, 0
4, 291600, Note_off_c, 4, 53, 0
4, 291600, Note_off_c, 4, 48, 0
4, 291600, Note_off_c, 4, 41, 0
4, 291600, Note_on_c, 4, 41, 91
4, 291600, Note_on_c, 4, 48, 91
4, 291600, Note_on_c, 4, 53, 91
4, 291600, Note_on_c, 4, 57, 91
4, 291600, Note_on_c, 4, 60, 91
4, 291600, Note_on_c, 4, 65, 91
4, 291600, Note_on_c, 4, 65, 91
4, 291600, Note_on_c, 4, 69, 91
4, 291600, Note_on_c, 4, 72, 91
4, 291960, Note_off_c, 4, 72, 0
4, 291960, Note_off_c, 4, 69, 0
4, 291960, Note_off_c, 4, 65, 0
4, 291960, Note_off_c, 4, 65, 0
4, 291960, Note_off_c, 4, 60, 0
4, 291960, Note_off_c, 4, 57, 0
4, 291960, Note_off_c, 4, 53, 0
4, 291960, Note_off_c, 4, 48, 0
4, 291960, Note_off_c, 4, 41, 0
4, 291960, Note_on_c, 4, 41, 91
4, 291960, Note_on_c, 4, 48, 91
4, 291960, Note_on_c, 4, 53, 91
4, 291960, Note_on_c, 4, 57, 91
4, 291960, Note_on_c, 4, 60, 91
4, 291960, Note_on_c, 4, 65, 91
4, 291960, Note_on_c, 4, 65, 91
4, 291960, Note_on_c, 4, 69, 91
4, 291960, Note_on_c, 4, 72, 91
4, 292320, Note_off_c, 4, 72, 0
4, 292320, Note_off_c, 4, 69, 0
4, 292320, Note_off_c, 4, 65, 0
4, 292320, Note_off_c, 4, 65, 0
4, 292320, Note_off_c, 4, 60, 0
4, 292320, Note_off_c, 4, 57, 0
4, 292320, Note_off_c, 4, 53, 0
4, 292320, Note_off_c, 4, 48, 0
4, 292320, Note_off_c, 4, 41, 0
4, 292320, Note_on_c, 4, 41, 91
4, 292320, Note_on_c, 4, 48, 91
4, 292320, Note_on_c, 4, 53, 91
4, 292320, Note_on_c, 4, 57, 91
4, 292320, Note_on_c, 4, 60, 91
4, 292320, Note_on_c, 4, 65, 91
4, 292320, Note_on_c, 4, 65, 91
4, 292320, Note_on_c, 4, 69, 91
4, 292320, Note_on_c, 4, 72, 91
4, 292680, Note_off_c, 4, 72, 0
4, 292680, Note_off_c, 4, 69, 0
4, 292680, Note_off_c, 4, 65, 0
4, 292680, Note_off_c, 4, 65, 0
4, 292680, Note_off_c, 4, 60, 0
4, 292680, Note_off_c, 4, 57, 0
4, 292680, Note_off_c, 4, 53, 0
4, 292680, Note_off_c, 4, 48, 0
4, 292680, Note_off_c, 4, 41, 0
4, 292680, Note_on_c, 4, 41, 91
4, 292680, Note_on_c, 4, 48, 91
4, 292680, Note_on_c, 4, 53, 91
4, 292680, Note_on_c, 4, 57, 91
4, 292680, Note_on_c, 4, 60, 91
4, 292680, Note_on_c, 4, 65, 91
4, 292680, Note_on_c, 4, 65, 91
4, 292680, Note_on_c, 4, 69, 91
4, 292680, Note_on_c, 4, 72, 91
4, 293040, Note_off_c, 4, 72, 0
4, 293040, Note_off_c, 4, 69, 0
4, 293040, Note_off_c, 4, 65, 0
4, 293040, Note_off_c, 4, 65, 0
4, 293040, Note_off_c, 4, 60, 0
4, 293040, Note_off_c, 4, 57, 0
4, 293040, Note_off_c, 4, 53, 0
4, 293040, Note_off_c, 4, 48, 0
4, 293040, Note_off_c, 4, 41, 0
4, 293040, Note_on_c, 4, 41, 91
4, 293040, Note_on_c, 4, 48, 91
4, 293040, Note_on_c, 4, 53, 91
4, 293040, Note_on_c, 4, 57, 91
4, 293040, Note_on_c, 4, 60, 91
4, 293040, Note_on_c, 4, 65, 91
4, 293040, Note_on_c, 4, 65, 91
4, 293040, Note_on_c, 4, 69, 91
4, 293040, Note_on_c, 4, 72, 91
4, 293400, Note_off_c, 4, 72, 0
4, 293400, Note_off_c, 4, 69, 0
4, 293400, Note_off_c, 4, 65, 0
4, 293400, Note_off_c, 4, 65, 0
4, 293400, Note_off_c, 4, 60, 0
4, 293400, Note_off_c, 4, 57, 0
4, 293400, Note_off_c, 4, 53, 0
4, 293400, Note_off_c, 4, 48, 0
4, 293400, Note_off_c, 4, 41, 0
4, 293400, Note_on_c, 4, 41, 91
4, 293400, Note_on_c, 4, 48, 91
4, 293400, Note_on_c, 4, 53, 91
4, 293400, Note_on_c, 4, 57, 91
4, 293400, Note_on_c, 4, 60, 91
4, 293400, Note_on_c, 4, 65, 91
4, 293400, Note_on_c, 4, 65, 91
4, 293400, Note_on_c, 4, 69, 91
4, 293400, Note_on_c, 4, 72, 91
4, 293760, Note_off_c, 4, 72, 0
4, 293760, Note_off_c, 4, 69, 0
4, 293760, Note_off_c, 4, 65, 0
4, 293760, Note_off_c, 4, 65, 0
4, 293760, Note_off_c, 4, 60, 0
4, 293760, Note_off_c, 4, 57, 0
4, 293760, Note_off_c, 4, 53, 0
4, 293760, Note_off_c, 4, 48, 0
4, 293760, Note_off_c, 4, 41, 0
4, 293760, Note_on_c, 4, 41, 91
4, 293760, Note_on_c, 4, 48, 91
4, 293760, Note_on_c, 4, 53, 91
4, 293760, Note_on_c, 4, 57, 91
4, 293760, Note_on_c, 4, 60, 91
4, 293760, Note_on_c, 4, 65, 91
4, 293760, Note_on_c, 4, 65, 91
4, 293760, Note_on_c, 4, 69, 91
4, 293760, Note_on_c, 4, 72, 91
4, 294120, Note_off_c, 4, 72, 0
4, 294120, Note_off_c, 4, 69, 0
4, 294120, Note_off_c, 4, 65, 0
4, 294120, Note_off_c, 4, 65, 0
4, 294120, Note_off_c, 4, 60, 0
4, 294120, Note_off_c, 4, 57, 0
4, 294120, Note_off_c, 4, 53, 0
4, 294120, Note_off_c, 4, 48, 0
4, 294120, Note_off_c, 4, 41, 0
4, 294120, Note_on_c, 4, 41, 91
4, 294120, Note_on_c, 4, 48, 91
4, 294120, Note_on_c, 4, 53, 91
4, 294120, Note_on_c, 4, 57, 91
4, 294120, Note_on_c, 4, 60, 91
4, 294120, Note_on_c, 4, 65, 91
4, 294120, Note_on_c, 4, 65, 91
4, 294120, Note_on_c, 4, 69, 91
4, 294120, Note_on_c, 4, 72, 91
4, 294480, Note_off_c, 4, 72, 0
4, 294480, Note_off_c, 4, 69, 0
4, 294480, Note_off_c, 4, 65, 0
4, 294480, Note_off_c, 4, 65, 0
4, 294480, Note_off_c, 4, 60, 0
4, 294480, Note_off_c, 4, 57, 0
4, 294480, Note_off_c, 4, 53, 0
4, 294480, Note_off_c, 4, 48, 0
4, 294480, Note_off_c, 4, 41, 0
4, 294480, Note_on_c, 4, 41, 91
4, 294480, Note_on_c, 4, 48, 91
4, 294480, Note_on_c, 4, 53, 91
4, 294480, Note_on_c, 4, 57, 91
4, 294480, Note_on_c, 4, 60, 91
4, 294480, Note_on_c, 4, 65, 91
4, 294480, Note_on_c, 4, 65, 91
4, 294480, Note_on_c, 4, 69, 91
4, 294480, Note_on_c, 4, 72, 91
4, 294840, Note_off_c, 4, 72, 0
4, 294840, Note_off_c, 4, 69, 0
4, 294840, Note_off_c, 4, 65, 0
4, 294840, Note_off_c, 4, 65, 0
4, 294840, Note_off_c, 4, 60, 0
4, 294840, Note_off_c, 4, 57, 0
4, 294840, Note_off_c, 4, 53, 0
4, 294840, Note_off_c, 4, 48, 0
4, 294840, Note_off_c, 4, 41, 0
4, 294840, Note_on_c, 4, 41, 91
4, 294840, Note_on_c, 4, 48, 91
4, 294840, Note_on_c, 4, 53, 91
4, 294840, Note_on_c, 4, 57, 91
4, 294840, Note_on_c, 4, 60, 91
4, 294840, Note_on_c, 4, 65, 91
4, 294840, Note_on_c, 4, 65, 91
4, 294840, Note_on_c, 4, 69, 91
4, 294840, Note_on_c, 4, 72, 91
4, 295200, Note_off_c, 4, 72, 0
4, 295200, Note_off_c, 4, 69, 0
4, 295200, Note_off_c, 4, 65, 0
4, 295200, Note_off_c, 4, 65, 0
4, 295200, Note_off_c, 4, 60, 0
4, 295200, Note_off_c, 4, 57, 0
4, 295200, Note_off_c, 4, 53, 0
4, 295200, Note_off_c, 4, 48, 0
4, 295200, Note_off_c, 4, 41, 0
4, 295200, Note_on_c, 4, 41, 91
4, 295200, Note_on_c, 4, 48, 91
4, 295200, Note_on_c, 4, 53, 91
4, 295200, Note_on_c, 4, 57, 91
4, 295200, Note_on_c, 4, 60, 91
4, 295200, Note_on_c, 4, 65, 91
4, 295200, Note_on_c, 4, 65, 91
4, 295200, Note_on_c, 4, 69, 91
4, 295200, Note_on_c, 4, 72, 91
4, 295560, Note_off_c, 4, 72, 0
4, 295560, Note_off_c, 4, 69, 0
4, 295560, Note_off_c, 4, 65, 0
4, 295560, Note_off_c, 4, 65, 0
4, 295560, Note_off_c, 4, 60, 0
4, 295560, Note_off_c, 4, 57, 0
4, 295560, Note_off_c, 4, 53, 0
4, 295560, Note_off_c, 4, 48, 0
4, 295560, Note_off_c, 4, 41, 0
4, 295560, Note_on_c, 4, 41, 91
4, 295560, Note_on_c, 4, 48, 91
4, 295560, Note_on_c, 4, 53, 91
4, 295560, Note_on_c, 4, 57, 91
4, 295560, Note_on_c, 4, 60, 91
4, 295560, Note_on_c, 4, 65, 91
4, 295560, Note_on_c, 4, 65, 91
4, 295560, Note_on_c, 4, 69, 91
4, 295560, Note_on_c, 4, 72, 91
4, 295920, Note_off_c, 4, 72, 0
4, 295920, Note_off_c, 4, 69, 0
4, 295920, Note_off_c, 4, 65, 0
4, 295920, Note_off_c, 4, 65, 0
4, 295920, Note_off_c, 4, 60, 0
4, 295920, Note_off_c, 4, 57, 0
4, 295920, Note_off_c, 4, 53, 0
4, 295920, Note_off_c, 4, 48, 0
4, 295920, Note_off_c, 4, 41, 0
4, 295920, Note_on_c, 4, 41, 91
4, 295920, Note_on_c, 4, 48, 91
4, 295920, Note_on_c, 4, 53, 91
4, 295920, Note_on_c, 4, 57, 91
4, 295920, Note_on_c, 4, 60, 91
4, 295920, Note_on_c, 4, 65, 91
4, 295920, Note_on_c, 4, 65, 91
4, 295920, Note_on_c, 4, 69, 91
4, 295920, Note_on_c, 4, 72, 91
4, 296280, Note_off_c, 4, 72, 0
4, 296280, Note_off_c, 4, 69, 0
4, 296280, Note_off_c, 4, 65, 0
4, 296280, Note_off_c, 4, 65, 0
4, 296280, Note_off_c, 4, 60, 0
4, 296280, Note_off_c, 4, 57, 0
4, 296280, Note_off_c, 4, 53, 0
4, 296280, Note_off_c, 4, 48, 0
4, 296280, Note_off_c, 4, 41, 0
4, 296280, Note_on_c, 4, 41, 91
4, 296280, Note_on_c, 4, 48, 91
4, 296280, Note_on_c, 4, 53, 91
4, 296280, Note_on_c, 4, 57, 91
4, 296280, Note_on_c, 4, 60, 91
4, 296280, Note_on_c, 4, 65, 91
4, 296280, Note_on_c, 4, 65, 91
4, 296280, Note_on_c, 4, 69, 91
4, 296280, Note_on_c, 4, 72, 91
4, 296640, Note_off_c, 4, 72, 0
4, 296640, Note_off_c, 4, 69, 0
4, 296640, Note_off_c, 4, 65, 0
4, 296640, Note_off_c, 4, 65, 0
4, 296640, Note_off_c, 4, 60, 0
4, 296640, Note_off_c, 4, 57, 0
4, 296640, Note_off_c, 4, 53, 0
4, 296640, Note_off_c, 4, 48, 0
4, 296640, Note_off_c, 4, 41, 0
4, 296640, Note_on_c, 4, 43, 91
4, 296640, Note_on_c, 4, 50, 91
4, 296640, Note_on_c, 4, 55, 91
4, 296640, Note_on_c, 4, 59, 91
4, 296640, Note_on_c, 4, 62, 91
4, 296640, Note_on_c, 4, 67, 91
4, 296640, Note_on_c, 4, 67, 91
4, 296640, Note_on_c, 4, 71, 91
4, 296640, Note_on_c, 4, 74, 91
4, 297000, Note_off_c, 4, 74, 0
4, 297000, Note_off_c, 4, 71, 0
4, 297000, Note_off_c, 4, 67, 0
4, 297000, Note_off_c, 4, 67, 0
4, 297000, Note_off_c, 4, 62, 0
4, 297000, Note_off_c, 4, 59, 0
4, 297000, Note_off_c, 4, 55, 0
4, 297000, Note_off_c, 4, 50, 0
4, 297000, Note_off_c, 4, 43, 0
4, 297000, Note_on_c, 4, 43, 91
4, 297000, Note_on_c, 4, 50, 91
4, 297000, Note_on_c, 4, 55, 91
4, 297000, Note_on_c, 4, 59, 91
4, 297000, Note_on_c, 4, 62, 91
4, 297000, Note_on_c, 4, 67, 91
4, 297000, Note_on_c, 4, 67, 91
4, 297000, Note_on_c, 4, 71, 91
4, 297000, Note_on_c, 4, 74, 91
4, 297360, Note_off_c, 4, 74, 0
4, 297360, Note_off_c, 4, 71, 0
4, 297360, Note_off_c, 4, 67, 0
4, 297360, Note_off_c, 4, 67, 0
4, 297360, Note_off_c, 4, 62, 0
4, 297360, Note_off_c, 4, 59, 0
4, 297360, Note_off_c, 4, 55, 0
4, 297360, Note_off_c, 4, 50, 0
4, 297360, Note_off_c, 4, 43, 0
4, 297360, Note_on_c, 4, 43, 91
4, 297360, Note_on_c, 4, 50, 91
4, 297360, Note_on_c, 4, 55, 91
4, 297360, Note_on_c, 4, 59, 91
4, 297360, Note_on_c, 4, 62, 91
4, 297360, Note_on_c, 4, 67, 91
4, 297360, Note_on_c, 4, 67, 91
4, 297360, Note_on_c, 4, 71, 91
4, 297360, Note_on_c, 4, 74, 91
4, 297720, Note_off_c, 4, 74, 0
4, 297720, Note_off_c, 4, 71, 0
4, 297720, Note_off_c, 4, 67, 0
4, 297720, Note_off_c, 4, 67, 0
4, 297720, Note_off_c, 4, 62, 0
4, 297720, Note_off_c, 4, 59, 0
4, 297720, Note_off_c, 4, 55, 0
4, 297720, Note_off_c, 4, 50, 0
4, 297720, Note_off_c, 4, 43, 0
4, 297720, Note_on_c, 4, 43, 91
4, 297720, Note_on_c, 4, 50, 91
4, 297720, Note_on_c, 4, 55, 91
4, 297720, Note_on_c, 4, 59, 91
4, 297720, Note_on_c, 4, 62, 91
4, 297720, Note_on_c, 4, 67, 91
4, 297720, Note_on_c, 4, 67, 91
4, 297720, Note_on_c, 4, 71, 91
4, 297720, Note_on_c, 4, 74, 91
4, 298080, Note_off_c, 4, 74, 0
4, 298080, Note_off_c, 4, 71, 0
4, 298080, Note_off_c, 4, 67, 0
4, 298080, Note_off_c, 4, 67, 0
4, 298080, Note_off_c, 4, 62, 0
4, 298080, Note_off_c, 4, 59, 0
4, 298080, Note_off_c, 4, 55, 0
4, 298080, Note_off_c, 4, 50, 0
4, 298080, Note_off_c, 4, 43, 0
4, 298080, Note_on_c, 4, 43, 91
4, 298080, Note_on_c, 4, 50, 91
4, 298080, Note_on_c, 4, 55, 91
4, 298080, Note_on_c, 4, 59, 91
4, 298080, Note_on_c, 4, 62, 91
4, 298080, Note_on_c, 4, 67, 91
4, 298080, Note_on_c, 4, 67, 91
4, 298080, Note_on_c, 4, 71, 91
4, 298080, Note_on_c, 4, 74, 91
4, 298440, Note_off_c, 4, 74, 0
4, 298440, Note_off_c, 4, 71, 0
4, 298440, Note_off_c, 4, 67, 0
4, 298440, Note_off_c, 4, 67, 0
4, 298440, Note_off_c, 4, 62, 0
4, 298440, Note_off_c, 4, 59, 0
4, 298440, Note_off_c, 4, 55, 0
4, 298440, Note_off_c, 4, 50, 0
4, 298440, Note_off_c, 4, 43, 0
4, 298440, Note_on_c, 4, 43, 91
4, 298440, Note_on_c, 4, 50, 91
4, 298440, Note_on_c, 4, 55, 91
4, 298440, Note_on_c, 4, 59, 91
4, 298440, Note_on_c, 4, 62, 91
4, 298440, Note_on_c, 4, 67, 91
4, 298440, Note_on_c, 4, 67, 91
4, 298440, Note_on_c, 4, 71, 91
4, 298440, Note_on_c, 4, 74, 91
4, 298800, Note_off_c, 4, 74, 0
4, 298800, Note_off_c, 4, 71, 0
4, 298800, Note_off_c, 4, 67, 0
4, 298800, Note_off_c, 4, 67, 0
4, 298800, Note_off_c, 4, 62, 0
4, 298800, Note_off_c, 4, 59, 0
4, 298800, Note_off_c, 4, 55, 0
4, 298800, Note_off_c, 4, 50, 0
4, 298800, Note_off_c, 4, 43, 0
4, 298800, Note_on_c, 4, 43, 91
4, 298800, Note_on_c, 4, 50, 91
4, 298800, Note_on_c, 4, 55, 91
4, 298800, Note_on_c, 4, 59, 91
4, 298800, Note_on_c, 4, 62, 91
4, 298800, Note_on_c, 4, 67, 91
4, 298800, Note_on_c, 4, 67, 91
4, 298800, Note_on_c, 4, 71, 91
4, 298800, Note_on_c, 4, 74, 91
4, 299160, Note_off_c, 4, 74, 0
4, 299160, Note_off_c, 4, 71, 0
4, 299160, Note_off_c, 4, 67, 0
4, 299160, Note_off_c, 4, 67, 0
4, 299160, Note_off_c, 4, 62, 0
4, 299160, Note_off_c, 4, 59, 0
4, 299160, Note_off_c, 4, 55, 0
4, 299160, Note_off_c, 4, 50, 0
4, 299160, Note_off_c, 4, 43, 0
4, 299160, Note_on_c, 4, 43, 91
4, 299160, Note_on_c, 4, 50, 91
4, 299160, Note_on_c, 4, 55, 91
4, 299160, Note_on_c, 4, 59, 91
4, 299160, Note_on_c, 4, 62, 91
4, 299160, Note_on_c, 4, 67, 91
4, 299160, Note_on_c, 4, 67, 91
4, 299160, Note_on_c, 4, 71, 91
4, 299160, Note_on_c, 4, 74, 91
4, 299520, Note_off_c, 4, 74, 0
4, 299520, Note_off_c, 4, 71, 0
4, 299520, Note_off_c, 4, 67, 0
4, 299520, Note_off_c, 4, 67, 0
4, 299520, Note_off_c, 4, 62, 0
4, 299520, Note_off_c, 4, 59, 0
4, 299520, Note_off_c, 4, 55, 0
4, 299520, Note_off_c, 4, 50, 0
4, 299520, Note_off_c, 4, 43, 0
4, 299520, Note_on_c, 4, 43, 91
4, 299520, Note_on_c, 4, 50, 91
4, 299520, Note_on_c, 4, 55, 91
4, 299520, Note_on_c, 4, 59, 91
4, 299520, Note_on_c, 4, 62, 91
4, 299520, Note_on_c, 4, 67, 91
4, 299520, Note_on_c, 4, 67, 91
4, 299520, Note_on_c, 4, 71, 91
4, 299520, Note_on_c, 4, 74, 91
4, 299880, Note_off_c, 4, 74, 0
4, 299880, Note_off_c, 4, 71, 0
4, 299880, Note_off_c, 4, 67, 0
4, 299880, Note_off_c, 4, 67, 0
4, 299880, Note_off_c, 4, 62, 0
4, 299880, Note_off_c, 4, 59, 0
4, 299880, Note_off_c, 4, 55, 0
4, 299880, Note_off_c, 4, 50, 0
4, 299880, Note_off_c, 4, 43, 0
4, 299880, Note_on_c, 4, 43, 91
4, 299880, Note_on_c, 4, 50, 91
4, 299880, Note_on_c, 4, 55, 91
4, 299880, Note_on_c, 4, 59, 91
4, 299880, Note_on_c, 4, 62, 91
4, 299880, Note_on_c, 4, 67, 91
4, 299880, Note_on_c, 4, 67, 91
4, 299880, Note_on_c, 4, 71, 91
4, 299880, Note_on_c, 4, 74, 91
4, 300240, Note_off_c, 4, 74, 0
4, 300240, Note_off_c, 4, 71, 0
4, 300240, Note_off_c, 4, 67, 0
4, 300240, Note_off_c, 4, 67, 0
4, 300240, Note_off_c, 4, 62, 0
4, 300240, Note_off_c, 4, 59, 0
4, 300240, Note_off_c, 4, 55, 0
4, 300240, Note_off_c, 4, 50, 0
4, 300240, Note_off_c, 4, 43, 0
4, 300240, Note_on_c, 4, 43, 91
4, 300240, Note_on_c, 4, 50, 91
4, 300240, Note_on_c, 4, 55, 91
4, 300240, Note_on_c, 4, 59, 91
4, 300240, Note_on_c, 4, 62, 91
4, 300240, Note_on_c, 4, 67, 91
4, 300240, Note_on_c, 4, 67, 91
4, 300240, Note_on_c, 4, 71, 91
4, 300240, Note_on_c, 4, 74, 91
4, 300600, Note_off_c, 4, 74, 0
4, 300600, Note_off_c, 4, 71, 0
4, 300600, Note_off_c, 4, 67, 0
4, 300600, Note_off_c, 4, 67, 0
4, 300600, Note_off_c, 4, 62, 0
4, 300600, Note_off_c, 4, 59, 0
4, 300600, Note_off_c, 4, 55, 0
4, 300600, Note_off_c, 4, 50, 0
4, 300600, Note_off_c, 4, 43, 0
4, 300600, Note_on_c, 4, 43, 91
4, 300600, Note_on_c, 4, 50, 91
4, 300600, Note_on_c, 4, 55, 91
4, 300600, Note_on_c, 4, 59, 91
4, 300600, Note_on_c, 4, 62, 91
4, 300600, Note_on_c, 4, 67, 91
4, 300600, Note_on_c, 4, 67, 91
4, 300600, Note_on_c, 4, 71, 91
4, 300600, Note_on_c, 4, 74, 91
4, 300960, Note_off_c, 4, 74, 0
4, 300960, Note_off_c, 4, 71, 0
4, 300960, Note_off_c, 4, 67, 0
4, 300960, Note_off_c, 4, 67, 0
4, 300960, Note_off_c, 4, 62, 0
4, 300960, Note_off_c, 4, 59, 0
4, 300960, Note_off_c, 4, 55, 0
4, 300960, Note_off_c, 4, 50, 0
4, 300960, Note_off_c, 4, 43, 0
4, 300960, Note_on_c, 4, 46, 91
4, 300960, Note_on_c, 4, 53, 91
4, 300960, Note_on_c, 4, 58, 91
4, 300960, Note_on_c, 4, 62, 91
4, 300960, Note_on_c, 4, 65, 91
4, 300960, Note_on_c, 4, 70, 91
4, 300960, Note_on_c, 4, 65, 91
4, 300960, Note_on_c, 4, 70, 91
4, 300960, Note_on_c, 4, 74, 91
4, 301320, Note_off_c, 4, 74, 0
4, 301320, Note_off_c, 4, 70, 0
4, 301320, Note_off_c, 4, 65, 0
4, 301320, Note_off_c, 4, 70, 0
4, 301320, Note_off_c, 4, 65, 0
4, 301320, Note_off_c, 4, 62, 0
4, 301320, Note_off_c, 4, 58, 0
4, 301320, Note_off_c, 4, 53, 0
4, 301320, Note_off_c, 4, 46, 0
4, 301320, Note_on_c, 4, 46, 91
4, 301320, Note_on_c, 4, 53, 91
4, 301320, Note_on_c, 4, 58, 91
4, 301320, Note_on_c, 4, 62, 91
4, 301320, Note_on_c, 4, 65, 91
4, 301320, Note_on_c, 4, 70, 91
4, 301320, Note_on_c, 4, 65, 91
4, 301320, Note_on_c, 4, 70, 91
4, 301320, Note_on_c, 4, 74, 91
4, 301680, Note_off_c, 4, 74, 0
4, 301680, Note_off_c, 4, 70, 0
4, 301680, Note_off_c, 4, 65, 0
4, 301680, Note_off_c, 4, 70, 0
4, 301680, Note_off_c, 4, 65, 0
4, 301680, Note_off_c, 4, 62, 0
4, 301680, Note_off_c, 4, 58, 0
4, 301680, Note_off_c, 4, 53, 0
4, 301680, Note_off_c, 4, 46, 0
4, 301680, Note_on_c, 4, 46, 91
4, 301680, Note_on_c, 4, 53, 91
4, 301680, Note_on_c, 4, 58, 91
4, 301680, Note_on_c, 4, 62, 91
4, 301680, Note_on_c, 4, 65, 91
4, 301680, Note_on_c, 4, 70, 91
4, 301680, Note_on_c, 4, 65, 91
4, 301680, Note_on_c, 4, 70, 91
4, 301680, Note_on_c, 4, 74, 91
4, 302040, Note_off_c, 4, 74, 0
4, 302040, Note_off_c, 4, 70, 0
4, 302040, Note_off_c, 4, 65, 0
4, 302040, Note_off_c, 4, 70, 0
4, 302040, Note_off_c, 4, 65, 0
4, 302040, Note_off_c, 4, 62, 0
4, 302040, Note_off_c, 4, 58, 0
4, 302040, Note_off_c, 4, 53, 0
4, 302040, Note_off_c, 4, 46, 0
4, 302040, Note_on_c, 4, 46, 91
4, 302040, Note_on_c, 4, 53, 91
4, 302040, Note_on_c, 4, 58, 91
4, 302040, Note_on_c, 4, 62, 91
4, 302040, Note_on_c, 4, 65, 91
4, 302040, Note_on_c, 4, 70, 91
4, 302040, Note_on_c, 4, 65, 91
4, 302040, Note_on_c, 4, 70, 91
4, 302040, Note_on_c, 4, 74, 91
4, 302400, Note_off_c, 4, 74, 0
4, 302400, Note_off_c, 4, 70, 0
4, 302400, Note_off_c, 4, 65, 0
4, 302400, Note_off_c, 4, 70, 0
4, 302400, Note_off_c, 4, 65, 0
4, 302400, Note_off_c, 4, 62, 0
4, 302400, Note_off_c, 4, 58, 0
4, 302400, Note_off_c, 4, 53, 0
4, 302400, Note_off_c, 4, 46, 0
4, 302400, Note_on_c, 4, 45, 91
4, 302400, Note_on_c, 4, 52, 91
4, 302400, Note_on_c, 4, 57, 91
4, 302400, Note_on_c, 4, 61, 91
4, 302400, Note_on_c, 4, 64, 91
4, 302400, Note_on_c, 4, 69, 91
4, 302400, Note_on_c, 4, 64, 91
4, 302400, Note_on_c, 4, 69, 91
4, 302400, Note_on_c, 4, 73, 91
4, 302760, Note_off_c, 4, 73, 0
4, 302760, Note_off_c, 4, 69, 0
4, 302760, Note_off_c, 4, 64, 0
4, 302760, Note_off_c, 4, 69, 0
4, 302760, Note_off_c, 4, 64, 0
4, 302760, Note_off_c, 4, 61, 0
4, 302760, Note_off_c, 4, 57, 0
4, 302760, Note_off_c, 4, 52, 0
4, 302760, Note_off_c, 4, 45, 0
4, 302760, Note_on_c, 4, 45, 91
4, 302760, Note_on_c, 4, 52, 91
4, 302760, Note_on_c, 4, 57, 91
4, 302760, Note_on_c, 4, 61, 91
4, 302760, Note_on_c, 4, 64, 91
4, 302760, Note_on_c, 4, 69, 91
4, 302760, Note_on_c, 4, 64, 91
4, 302760, Note_on_c, 4, 69, 91
4, 302760, Note_on_c, 4, 73, 91
4, 303120, Note_off_c, 4, 73, 0
4, 303120, Note_off_c, 4, 69, 0
4, 303120, Note_off_c, 4, 64, 0
4, 303120, Note_off_c, 4, 69, 0
4, 303120, Note_off_c, 4, 64, 0
4, 303120, Note_off_c, 4, 61, 0
4, 303120, Note_off_c, 4, 57, 0
4, 303120, Note_off_c, 4, 52, 0
4, 303120, Note_off_c, 4, 45, 0
4, 303120, Note_on_c, 4, 45, 91
4, 303120, Note_on_c, 4, 52, 91
4, 303120, Note_on_c, 4, 57, 91
4, 303120, Note_on_c, 4, 61, 91
4, 303120, Note_on_c, 4, 64, 91
4, 303120, Note_on_c, 4, 69, 91
4, 303120, Note_on_c, 4, 64, 91
4, 303120, Note_on_c, 4, 69, 91
4, 303120, Note_on_c, 4, 73, 91
4, 303480, Note_off_c, 4, 73, 0
4, 303480, Note_off_c, 4, 69, 0
4, 303480, Note_off_c, 4, 64, 0
4, 303480, Note_off_c, 4, 69, 0
4, 303480, Note_off_c, 4, 64, 0
4, 303480, Note_off_c, 4, 61, 0
4, 303480, Note_off_c, 4, 57, 0
4, 303480, Note_off_c, 4, 52, 0
4, 303480, Note_off_c, 4, 45, 0
4, 303480, Note_on_c, 4, 45, 91
4, 303480, Note_on_c, 4, 52, 91
4, 303480, Note_on_c, 4, 57, 91
4, 303480, Note_on_c, 4, 61, 91
4, 303480, Note_on_c, 4, 64, 91
4, 303480, Note_on_c, 4, 69, 91
4, 303480, Note_on_c, 4, 64, 91
4, 303480, Note_on_c, 4, 69, 91
4, 303480, Note_on_c, 4, 73, 91
4, 303840, Note_off_c, 4, 73, 0
4, 303840, Note_off_c, 4, 69, 0
4, 303840, Note_off_c, 4, 64, 0
4, 303840, Note_off_c, 4, 69, 0
4, 303840, Note_off_c, 4, 64, 0
4, 303840, Note_off_c, 4, 61, 0
4, 303840, Note_off_c, 4, 57, 0
4, 303840, Note_off_c, 4, 52, 0
4, 303840, Note_off_c, 4, 45, 0
4, 303840, Note_on_c, 4, 45, 91
4, 303840, Note_on_c, 4, 52, 91
4, 303840, Note_on_c, 4, 57, 91
4, 303840, Note_on_c, 4, 61, 91
4, 303840, Note_on_c, 4, 64, 91
4, 303840, Note_on_c, 4, 69, 91
4, 303840, Note_on_c, 4, 64, 91
4, 303840, Note_on_c, 4, 69, 91
4, 303840, Note_on_c, 4, 73, 91
4, 304200, Note_off_c, 4, 73, 0
4, 304200, Note_off_c, 4, 69, 0
4, 304200, Note_off_c, 4, 64, 0
4, 304200, Note_off_c, 4, 69, 0
4, 304200, Note_off_c, 4, 64, 0
4, 304200, Note_off_c, 4, 61, 0
4, 304200, Note_off_c, 4, 57, 0
4, 304200, Note_off_c, 4, 52, 0
4, 304200, Note_off_c, 4, 45, 0
4, 304200, Note_on_c, 4, 45, 91
4, 304200, Note_on_c, 4, 52, 91
4, 304200, Note_on_c, 4, 57, 91
4, 304200, Note_on_c, 4, 61, 91
4, 304200, Note_on_c, 4, 64, 91
4, 304200, Note_on_c, 4, 69, 91
4, 304200, Note_on_c, 4, 64, 91
4, 304200, Note_on_c, 4, 69, 91
4, 304200, Note_on_c, 4, 73, 91
4, 304560, Note_off_c, 4, 73, 0
4, 304560, Note_off_c, 4, 69, 0
4, 304560, Note_off_c, 4, 64, 0
4, 304560, Note_off_c, 4, 69, 0
4, 304560, Note_off_c, 4, 64, 0
4, 304560, Note_off_c, 4, 61, 0
4, 304560, Note_off_c, 4, 57, 0
4, 304560, Note_off_c, 4, 52, 0
4, 304560, Note_off_c, 4, 45, 0
4, 304560, Note_on_c, 4, 45, 91
4, 304560, Note_on_c, 4, 52, 91
4, 304560, Note_on_c, 4, 57, 91
4, 304560, Note_on_c, 4, 61, 91
4, 304560, Note_on_c, 4, 64, 91
4, 304560, Note_on_c, 4, 69, 91
4, 304560, Note_on_c, 4, 64, 91
4, 304560, Note_on_c, 4, 69, 91
4, 304560, Note_on_c, 4, 73, 91
4, 304920, Note_off_c, 4, 73, 0
4, 304920, Note_off_c, 4, 69, 0
4, 304920, Note_off_c, 4, 64, 0
4, 304920, Note_off_c, 4, 69, 0
4, 304920, Note_off_c, 4, 64, 0
4, 304920, Note_off_c, 4, 61, 0
4, 304920, Note_off_c, 4, 57, 0
4, 304920, Note_off_c, 4, 52, 0
4, 304920, Note_off_c, 4, 45, 0
4, 304920, Note_on_c, 4, 45, 91
4, 304920, Note_on_c, 4, 52, 91
4, 304920, Note_on_c, 4, 57, 91
4, 304920, Note_on_c, 4, 61, 91
4, 304920, Note_on_c, 4, 64, 91
4, 304920, Note_on_c, 4, 69, 91
4, 304920, Note_on_c, 4, 64, 91
4, 304920, Note_on_c, 4, 69, 91
4, 304920, Note_on_c, 4, 73, 91
4, 305280, Note_off_c, 4, 73, 0
4, 305280, Note_off_c, 4, 69, 0
4, 305280, Note_off_c, 4, 64, 0
4, 305280, Note_off_c, 4, 69, 0
4, 305280, Note_off_c, 4, 64, 0
4, 305280, Note_off_c, 4, 61, 0
4, 305280, Note_off_c, 4, 57, 0
4, 305280, Note_off_c, 4, 52, 0
4, 305280, Note_off_c, 4, 45, 0
4, 305280, Note_on_c, 4, 45, 91
4, 305280, Note_on_c, 4, 52, 91
4, 305280, Note_on_c, 4, 57, 91
4, 305280, Note_on_c, 4, 61, 91
4, 305280, Note_on_c, 4, 64, 91
4, 305280, Note_on_c, 4, 69, 91
4, 305280, Note_on_c, 4, 64, 91
4, 305280, Note_on_c, 4, 69, 91
4, 305280, Note_on_c, 4, 73, 91
4, 305640, Note_off_c, 4, 73, 0
4, 305640, Note_off_c, 4, 69, 0
4, 305640, Note_off_c, 4, 64, 0
4, 305640, Note_off_c, 4, 69, 0
4, 305640, Note_off_c, 4, 64, 0
4, 305640, Note_off_c, 4, 61, 0
4, 305640, Note_off_c, 4, 57, 0
4, 305640, Note_off_c, 4, 52, 0
4, 305640, Note_off_c, 4, 45, 0
4, 305640, Note_on_c, 4, 45, 91
4, 305640, Note_on_c, 4, 52, 91
4, 305640, Note_on_c, 4, 57, 91
4, 305640, Note_on_c, 4, 61, 91
4, 305640, Note_on_c, 4, 64, 91
4, 305640, Note_on_c, 4, 69, 91
4, 305640, Note_on_c, 4, 64, 91
4, 305640, Note_on_c, 4, 69, 91
4, 305640, Note_on_c, 4, 73, 91
4, 306000, Note_off_c, 4, 73, 0
4, 306000, Note_off_c, 4, 69, 0
4, 306000, Note_off_c, 4, 64, 0
4, 306000, Note_off_c, 4, 69, 0
4, 306000, Note_off_c, 4, 64, 0
4, 306000, Note_off_c, 4, 61, 0
4, 306000, Note_off_c, 4, 57, 0
4, 306000, Note_off_c, 4, 52, 0
4, 306000, Note_off_c, 4, 45, 0
4, 306000, Note_on_c, 4, 45, 91
4, 306000, Note_on_c, 4, 52, 91
4, 306000, Note_on_c, 4, 57, 91
4, 306000, Note_on_c, 4, 61, 91
4, 306000, Note_on_c, 4, 64, 91
4, 306000, Note_on_c, 4, 69, 91
4, 306000, Note_on_c, 4, 64, 91
4, 306000, Note_on_c, 4, 69, 91
4, 306000, Note_on_c, 4, 73, 91
4, 306360, Note_off_c, 4, 73, 0
4, 306360, Note_off_c, 4, 69, 0
4, 306360, Note_off_c, 4, 64, 0
4, 306360, Note_off_c, 4, 69, 0
4, 306360, Note_off_c, 4, 64, 0
4, 306360, Note_off_c, 4, 61, 0
4, 306360, Note_off_c, 4, 57, 0
4, 306360, Note_off_c, 4, 52, 0
4, 306360, Note_off_c, 4, 45, 0
4, 306360, Note_on_c, 4, 45, 91
4, 306360, Note_on_c, 4, 52, 91
4, 306360, Note_on_c, 4, 57, 91
4, 306360, Note_on_c, 4, 61, 91
4, 306360, Note_on_c, 4, 64, 91
4, 306360, Note_on_c, 4, 69, 91
4, 306360, Note_on_c, 4, 64, 91
4, 306360, Note_on_c, 4, 69, 91
4, 306360, Note_on_c, 4, 73, 91
4, 306720, Note_off_c, 4, 73, 0
4, 306720, Note_off_c, 4, 69, 0
4, 306720, Note_off_c, 4, 64, 0
4, 306720, Note_off_c, 4, 69, 0
4, 306720, Note_off_c, 4, 64, 0
4, 306720, Note_off_c, 4, 61, 0
4, 306720, Note_off_c, 4, 57, 0
4, 306720, Note_off_c, 4, 52, 0
4, 306720, Note_off_c, 4, 45, 0
4, 306720, Note_on_c, 4, 45, 91
4, 306720, Note_on_c, 4, 52, 91
4, 306720, Note_on_c, 4, 57, 91
4, 306720, Note_on_c, 4, 61, 91
4, 306720, Note_on_c, 4, 64, 91
4, 306720, Note_on_c, 4, 69, 91
4, 306720, Note_on_c, 4, 64, 91
4, 306720, Note_on_c, 4, 69, 91
4, 306720, Note_on_c, 4, 73, 91
4, 307080, Note_off_c, 4, 73, 0
4, 307080, Note_off_c, 4, 69, 0
4, 307080, Note_off_c, 4, 64, 0
4, 307080, Note_off_c, 4, 69, 0
4, 307080, Note_off_c, 4, 64, 0
4, 307080, Note_off_c, 4, 61, 0
4, 307080, Note_off_c, 4, 57, 0
4, 307080, Note_off_c, 4, 52, 0
4, 307080, Note_off_c, 4, 45, 0
4, 307080, Note_on_c, 4, 45, 91
4, 307080, Note_on_c, 4, 52, 91
4, 307080, Note_on_c, 4, 57, 91
4, 307080, Note_on_c, 4, 61, 91
4, 307080, Note_on_c, 4, 64, 91
4, 307080, Note_on_c, 4, 69, 91
4, 307080, Note_on_c, 4, 64, 91
4, 307080, Note_on_c, 4, 69, 91
4, 307080, Note_on_c, 4, 73, 91
4, 307440, Note_off_c, 4, 73, 0
4, 307440, Note_off_c, 4, 69, 0
4, 307440, Note_off_c, 4, 64, 0
4, 307440, Note_off_c, 4, 69, 0
4, 307440, Note_off_c, 4, 64, 0
4, 307440, Note_off_c, 4, 61, 0
4, 307440, Note_off_c, 4, 57, 0
4, 307440, Note_off_c, 4, 52, 0
4, 307440, Note_off_c, 4, 45, 0
4, 307440, Note_on_c, 4, 45, 91
4, 307440, Note_on_c, 4, 52, 91
4, 307440, Note_on_c, 4, 57, 91
4, 307440, Note_on_c, 4, 61, 91
4, 307440, Note_on_c, 4, 64, 91
4, 307440, Note_on_c, 4, 69, 91
4, 307440, Note_on_c, 4, 64, 91
4, 307440, Note_on_c, 4, 69, 91
4, 307440, Note_on_c, 4, 73, 91
4, 307800, Note_off_c, 4, 73, 0
4, 307800, Note_off_c, 4, 69, 0
4, 307800, Note_off_c, 4, 64, 0
4, 307800, Note_off_c, 4, 69, 0
4, 307800, Note_off_c, 4, 64, 0
4, 307800, Note_off_c, 4, 61, 0
4, 307800, Note_off_c, 4, 57, 0
4, 307800, Note_off_c, 4, 52, 0
4, 307800, Note_off_c, 4, 45, 0
4, 307800, Note_on_c, 4, 45, 91
4, 307800, Note_on_c, 4, 52, 91
4, 307800, Note_on_c, 4, 57, 91
4, 307800, Note_on_c, 4, 61, 91
4, 307800, Note_on_c, 4, 64, 91
4, 307800, Note_on_c, 4, 69, 91
4, 307800, Note_on_c, 4, 64, 91
4, 307800, Note_on_c, 4, 69, 91
4, 307800, Note_on_c, 4, 73, 91
4, 308160, Note_off_c, 4, 73, 0
4, 308160, Note_off_c, 4, 69, 0
4, 308160, Note_off_c, 4, 64, 0
4, 308160, Note_off_c, 4, 69, 0
4, 308160, Note_off_c, 4, 64, 0
4, 308160, Note_off_c, 4, 61, 0
4, 308160, Note_off_c, 4, 57, 0
4, 308160, Note_off_c, 4, 52, 0
4, 308160, Note_off_c, 4, 45, 0
4, 308160, Note_on_c, 4, 48, 91
4, 308160, Note_on_c, 4, 55, 91
4, 308160, Note_on_c, 4, 60, 91
4, 308160, Note_on_c, 4, 64, 91
4, 308160, Note_on_c, 4, 67, 91
4, 308160, Note_on_c, 4, 72, 91
4, 308160, Note_on_c, 4, 64, 91
4, 308160, Note_on_c, 4, 67, 91
4, 308160, Note_on_c, 4, 72, 91
4, 308520, Note_off_c, 4, 72, 0
4, 308520, Note_off_c, 4, 67, 0
4, 308520, Note_off_c, 4, 64, 0
4, 308520, Note_off_c, 4, 72, 0
4, 308520, Note_off_c, 4, 67, 0
4, 308520, Note_off_c, 4, 64, 0
4, 308520, Note_off_c, 4, 60, 0
4, 308520, Note_off_c, 4, 55, 0
4, 308520, Note_off_c, 4, 48, 0
4, 308520, Note_on_c, 4, 48, 91
4, 308520, Note_on_c, 4, 55, 91
4, 308520, Note_on_c, 4, 60, 91
4, 308520, Note_on_c, 4, 64, 91
4, 308520, Note_on_c, 4, 67, 91
4, 308520, Note_on_c, 4, 72, 91
4, 308520, Note_on_c, 4, 64, 91
4, 308520, Note_on_c, 4, 67, 91
4, 308520, Note_on_c, 4, 72, 91
4, 308880, Note_off_c, 4, 72, 0
4, 308880, Note_off_c, 4, 67, 0
4, 308880, Note_off_c, 4, 64, 0
4, 308880, Note_off_c, 4, 72, 0
4, 308880, Note_off_c, 4, 67, 0
4, 308880, Note_off_c, 4, 64, 0
4, 308880, Note_off_c, 4, 60, 0
4, 308880, Note_off_c, 4, 55, 0
4, 308880, Note_off_c, 4, 48, 0
4, 308880, Note_on_c, 4, 48, 91
4, 308880, Note_on_c, 4, 55, 91
4, 308880, Note_on_c, 4, 60, 91
4, 308880, Note_on_c, 4, 64, 91
4, 308880, Note_on_c, 4, 67, 91
4, 308880, Note_on_c, 4, 72, 91
4, 308880, Note_on_c, 4, 64, 91
4, 308880, Note_on_c, 4, 67, 91
4, 308880, Note_on_c, 4, 72, 91
4, 309240, Note_off_c, 4, 72, 0
4, 309240, Note_off_c, 4, 67, 0
4, 309240, Note_off_c, 4, 64, 0
4, 309240, Note_off_c, 4, 72, 0
4, 309240, Note_off_c, 4, 67, 0
4, 309240, Note_off_c, 4, 64, 0
4, 309240, Note_off_c, 4, 60, 0
4, 309240, Note_off_c, 4, 55, 0
4, 309240, Note_off_c, 4, 48, 0
4, 309240, Note_on_c, 4, 48, 91
4, 309240, Note_on_c, 4, 55, 91
4, 309240, Note_on_c, 4, 60, 91
4, 309240, Note_on_c, 4, 64, 91
4, 309240, Note_on_c, 4, 67, 91
4, 309240, Note_on_c, 4, 72, 91
4, 309240, Note_on_c, 4, 64, 91
4, 309240, Note_on_c, 4, 67, 91
4, 309240, Note_on_c, 4, 72, 91
4, 309600, Note_off_c, 4, 72, 0
4, 309600, Note_off_c, 4, 67, 0
4, 309600, Note_off_c, 4, 64, 0
4, 309600, Note_off_c, 4, 72, 0
4, 309600, Note_off_c, 4, 67, 0
4, 309600, Note_off_c, 4, 64, 0
4, 309600, Note_off_c, 4, 60, 0
4, 309600, Note_off_c, 4, 55, 0
4, 309600, Note_off_c, 4, 48, 0
4, 309600, Note_on_c, 4, 48, 91
4, 309600, Note_on_c, 4, 55, 91
4, 309600, Note_on_c, 4, 60, 91
4, 309600, Note_on_c, 4, 64, 91
4, 309600, Note_on_c, 4, 67, 91
4, 309600, Note_on_c, 4, 72, 91
4, 309600, Note_on_c, 4, 64, 91
4, 309600, Note_on_c, 4, 67, 91
4, 309600, Note_on_c, 4, 72, 91
4, 309960, Note_off_c, 4, 72, 0
4, 309960, Note_off_c, 4, 67, 0
4, 309960, Note_off_c, 4, 64, 0
4, 309960, Note_off_c, 4, 72, 0
4, 309960, Note_off_c, 4, 67, 0
4, 309960, Note_off_c, 4, 64, 0
4, 309960, Note_off_c, 4, 60, 0
4, 309960, Note_off_c, 4, 55, 0
4, 309960, Note_off_c, 4, 48, 0
4, 309960, Note_on_c, 4, 48, 91
4, 309960, Note_on_c, 4, 55, 91
4, 309960, Note_on_c, 4, 60, 91
4, 309960, Note_on_c, 4, 64, 91
4, 309960, Note_on_c, 4, 67, 91
4, 309960, Note_on_c, 4, 72, 91
4, 309960, Note_on_c, 4, 64, 91
4, 309960, Note_on_c, 4, 67, 91
4, 309960, Note_on_c, 4, 72, 91
4, 310320, Note_off_c, 4, 72, 0
4, 310320, Note_off_c, 4, 67, 0
4, 310320, Note_off_c, 4, 64, 0
4, 310320, Note_off_c, 4, 72, 0
4, 310320, Note_off_c, 4, 67, 0
4, 310320, Note_off_c, 4, 64, 0
4, 310320, Note_off_c, 4, 60, 0
4, 310320, Note_off_c, 4, 55, 0
4, 310320, Note_off_c, 4, 48, 0
4, 310320, Note_on_c, 4, 48, 91
4, 310320, Note_on_c, 4, 55, 91
4, 310320, Note_on_c, 4, 60, 91
4, 310320, Note_on_c, 4, 64, 91
4, 310320, Note_on_c, 4, 67, 91
4, 310320, Note_on_c, 4, 72, 91
4, 310320, Note_on_c, 4, 64, 91
4, 310320, Note_on_c, 4, 67, 91
4, 310320, Note_on_c, 4, 72, 91
4, 310680, Note_off_c, 4, 72, 0
4, 310680, Note_off_c, 4, 67, 0
4, 310680, Note_off_c, 4, 64, 0
4, 310680, Note_off_c, 4, 72, 0
4, 310680, Note_off_c, 4, 67, 0
4, 310680, Note_off_c, 4, 64, 0
4, 310680, Note_off_c, 4, 60, 0
4, 310680, Note_off_c, 4, 55, 0
4, 310680, Note_off_c, 4, 48, 0
4, 310680, Note_on_c, 4, 48, 91
4, 310680, Note_on_c, 4, 55, 91
4, 310680, Note_on_c, 4, 60, 91
4, 310680, Note_on_c, 4, 64, 91
4, 310680, Note_on_c, 4, 67, 91
4, 310680, Note_on_c, 4, 72, 91
4, 310680, Note_on_c, 4, 64, 91
4, 310680, Note_on_c, 4, 67, 91
4, 310680, Note_on_c, 4, 72, 91
4, 311040, Note_off_c, 4, 72, 0
4, 311040, Note_off_c, 4, 67, 0
4, 311040, Note_off_c, 4, 64, 0
4, 311040, Note_off_c, 4, 72, 0
4, 311040, Note_off_c, 4, 67, 0
4, 311040, Note_off_c, 4, 64, 0
4, 311040, Note_off_c, 4, 60, 0
4, 311040, Note_off_c, 4, 55, 0
4, 311040, Note_off_c, 4, 48, 0
4, 311040, Note_on_c, 4, 48, 91
4, 311040, Note_on_c, 4, 55, 91
4, 311040, Note_on_c, 4, 60, 91
4, 311040, Note_on_c, 4, 64, 91
4, 311040, Note_on_c, 4, 67, 91
4, 311040, Note_on_c, 4, 72, 91
4, 311040, Note_on_c, 4, 64, 91
4, 311040, Note_on_c, 4, 67, 91
4, 311040, Note_on_c, 4, 72, 91
4, 311400, Note_off_c, 4, 72, 0
4, 311400, Note_off_c, 4, 67, 0
4, 311400, Note_off_c, 4, 64, 0
4, 311400, Note_off_c, 4, 72, 0
4, 311400, Note_off_c, 4, 67, 0
4, 311400, Note_off_c, 4, 64, 0
4, 311400, Note_off_c, 4, 60, 0
4, 311400, Note_off_c, 4, 55, 0
4, 311400, Note_off_c, 4, 48, 0
4, 311400, Note_on_c, 4, 48, 91
4, 311400, Note_on_c, 4, 55, 91
4, 311400, Note_on_c, 4, 60, 91
4, 311400, Note_on_c, 4, 64, 91
4, 311400, Note_on_c, 4, 67, 91
4, 311400, Note_on_c, 4, 72, 91
4, 311400, Note_on_c, 4, 64, 91
4, 311400, Note_on_c, 4, 67, 91
4, 311400, Note_on_c, 4, 72, 91
4, 311760, Note_off_c, 4, 72, 0
4, 311760, Note_off_c, 4, 67, 0
4, 311760, Note_off_c, 4, 64, 0
4, 311760, Note_off_c, 4, 72, 0
4, 311760, Note_off_c, 4, 67, 0
4, 311760, Note_off_c, 4, 64, 0
4, 311760, Note_off_c, 4, 60, 0
4, 311760, Note_off_c, 4, 55, 0
4, 311760, Note_off_c, 4, 48, 0
4, 311760, Note_on_c, 4, 48, 91
4, 311760, Note_on_c, 4, 55, 91
4, 311760, Note_on_c, 4, 60, 91
4, 311760, Note_on_c, 4, 64, 91
4, 311760, Note_on_c, 4, 67, 91
4, 311760, Note_on_c, 4, 72, 91
4, 311760, Note_on_c, 4, 64, 91
4, 311760, Note_on_c, 4, 67, 91
4, 311760, Note_on_c, 4, 72, 91
4, 312120, Note_off_c, 4, 72, 0
4, 312120, Note_off_c, 4, 67, 0
4, 312120, Note_off_c, 4, 64, 0
4, 312120, Note_off_c, 4, 72, 0
4, 312120, Note_off_c, 4, 67, 0
4, 312120, Note_off_c, 4, 64, 0
4, 312120, Note_off_c, 4, 60, 0
4, 312120, Note_off_c, 4, 55, 0
4, 312120, Note_off_c, 4, 48, 0
4, 312120, Note_on_c, 4, 48, 91
4, 312120, Note_on_c, 4, 55, 91
4, 312120, Note_on_c, 4, 60, 91
4, 312120, Note_on_c, 4, 64, 91
4, 312120, Note_on_c, 4, 67, 91
4, 312120, Note_on_c, 4, 72, 91
4, 312120, Note_on_c, 4, 64, 91
4, 312120, Note_on_c, 4, 67, 91
4, 312120, Note_on_c, 4, 72, 91
4, 312480, Note_off_c, 4, 72, 0
4, 312480, Note_off_c, 4, 67, 0
4, 312480, Note_off_c, 4, 64, 0
4, 312480, Note_off_c, 4, 72, 0
4, 312480, Note_off_c, 4, 67, 0
4, 312480, Note_off_c, 4, 64, 0
4, 312480, Note_off_c, 4, 60, 0
4, 312480, Note_off_c, 4, 55, 0
4, 312480, Note_off_c, 4, 48, 0
4, 312480, Note_on_c, 4, 48, 91
4, 312480, Note_on_c, 4, 55, 91
4, 312480, Note_on_c, 4, 60, 91
4, 312480, Note_on_c, 4, 64, 91
4, 312480, Note_on_c, 4, 67, 91
4, 312480, Note_on_c, 4, 72, 91
4, 312480, Note_on_c, 4, 64, 91
4, 312480, Note_on_c, 4, 67, 91
4, 312480, Note_on_c, 4, 72, 91
4, 312840, Note_off_c, 4, 72, 0
4, 312840, Note_off_c, 4, 67, 0
4, 312840, Note_off_c, 4, 64, 0
4, 312840, Note_off_c, 4, 72, 0
4, 312840, Note_off_c, 4, 67, 0
4, 312840, Note_off_c, 4, 64, 0
4, 312840, Note_off_c, 4, 60, 0
4, 312840, Note_off_c, 4, 55, 0
4, 312840, Note_off_c, 4, 48, 0
4, 312840, Note_on_c, 4, 48, 91
4, 312840, Note_on_c, 4, 55, 91
4, 312840, Note_on_c, 4, 60, 91
4, 312840, Note_on_c, 4, 64, 91
4, 312840, Note_on_c, 4, 67, 91
4, 312840, Note_on_c, 4, 72, 91
4, 312840, Note_on_c, 4, 64, 91
4, 312840, Note_on_c, 4, 67, 91
4, 312840, Note_on_c, 4, 72, 91
4, 313200, Note_off_c, 4, 72, 0
4, 313200, Note_off_c, 4, 67, 0
4, 313200, Note_off_c, 4, 64, 0
4, 313200, Note_off_c, 4, 72, 0
4, 313200, Note_off_c, 4, 67, 0
4, 313200, Note_off_c, 4, 64, 0
4, 313200, Note_off_c, 4, 60, 0
4, 313200, Note_off_c, 4, 55, 0
4, 313200, Note_off_c, 4, 48, 0
4, 313200, Note_on_c, 4, 48, 91
4, 313200, Note_on_c, 4, 55, 91
4, 313200, Note_on_c, 4, 60, 91
4, 313200, Note_on_c, 4, 64, 91
4, 313200, Note_on_c, 4, 67, 91
4, 313200, Note_on_c, 4, 72, 91
4, 313200, Note_on_c, 4, 64, 91
4, 313200, Note_on_c, 4, 67, 91
4, 313200, Note_on_c, 4, 72, 91
4, 313560, Note_off_c, 4, 72, 0
4, 313560, Note_off_c, 4, 67, 0
4, 313560, Note_off_c, 4, 64, 0
4, 313560, Note_off_c, 4, 72, 0
4, 313560, Note_off_c, 4, 67, 0
4, 313560, Note_off_c, 4, 64, 0
4, 313560, Note_off_c, 4, 60, 0
4, 313560, Note_off_c, 4, 55, 0
4, 313560, Note_off_c, 4, 48, 0
4, 313560, Note_on_c, 4, 48, 91
4, 313560, Note_on_c, 4, 55, 91
4, 313560, Note_on_c, 4, 60, 91
4, 313560, Note_on_c, 4, 64, 91
4, 313560, Note_on_c, 4, 67, 91
4, 313560, Note_on_c, 4, 72, 91
4, 313560, Note_on_c, 4, 64, 91
4, 313560, Note_on_c, 4, 67, 91
4, 313560, Note_on_c, 4, 72, 91
4, 313920, Note_off_c, 4, 72, 0
4, 313920, Note_off_c, 4, 67, 0
4, 313920, Note_off_c, 4, 64, 0
4, 313920, Note_off_c, 4, 72, 0
4, 313920, Note_off_c, 4, 67, 0
4, 313920, Note_off_c, 4, 64, 0
4, 313920, Note_off_c, 4, 60, 0
4, 313920, Note_off_c, 4, 55, 0
4, 313920, Note_off_c, 4, 48, 0
4, 313920, Note_on_c, 4, 41, 91
4, 313920, Note_on_c, 4, 48, 91
4, 313920, Note_on_c, 4, 53, 91
4, 313920, Note_on_c, 4, 57, 91
4, 313920, Note_on_c, 4, 60, 91
4, 313920, Note_on_c, 4, 65, 91
4, 313920, Note_on_c, 4, 65, 91
4, 313920, Note_on_c, 4, 69, 91
4, 313920, Note_on_c, 4, 72, 91
4, 314280, Note_off_c, 4, 72, 0
4, 314280, Note_off_c, 4, 69, 0
4, 314280, Note_off_c, 4, 65, 0
4, 314280, Note_off_c, 4, 65, 0
4, 314280, Note_off_c, 4, 60, 0
4, 314280, Note_off_c, 4, 57, 0
4, 314280, Note_off_c, 4, 53, 0
4, 314280, Note_off_c, 4, 48, 0
4, 314280, Note_off_c, 4, 41, 0
4, 314280, Note_on_c, 4, 41, 91
4, 314280, Note_on_c, 4, 48, 91
4, 314280, Note_on_c, 4, 53, 91
4, 314280, Note_on_c, 4, 57, 91
4, 314280, Note_on_c, 4, 60, 91
4, 314280, Note_on_c, 4, 65, 91
4, 314280, Note_on_c, 4, 65, 91
4, 314280, Note_on_c, 4, 69, 91
4, 314280, Note_on_c, 4, 72, 91
4, 314640, Note_off_c, 4, 72, 0
4, 314640, Note_off_c, 4, 69, 0
4, 314640, Note_off_c, 4, 65, 0
4, 314640, Note_off_c, 4, 65, 0
4, 314640, Note_off_c, 4, 60, 0
4, 314640, Note_off_c, 4, 57, 0
4, 314640, Note_off_c, 4, 53, 0
4, 314640, Note_off_c, 4, 48, 0
4, 314640, Note_off_c, 4, 41, 0
4, 314640, Note_on_c, 4, 41, 91
4, 314640, Note_on_c, 4, 48, 91
4, 314640, Note_on_c, 4, 53, 91
4, 314640, Note_on_c, 4, 57, 91
4, 314640, Note_on_c, 4, 60, 91
4, 314640, Note_on_c, 4, 65, 91
4, 314640, Note_on_c, 4, 65, 91
4, 314640, Note_on_c, 4, 69, 91
4, 314640, Note_on_c, 4, 72, 91
4, 315000, Note_off_c, 4, 72, 0
4, 315000, Note_off_c, 4, 69, 0
4, 315000, Note_off_c, 4, 65, 0
4, 315000, Note_off_c, 4, 65, 0
4, 315000, Note_off_c, 4, 60, 0
4, 315000, Note_off_c, 4, 57, 0
4, 315000, Note_off_c, 4, 53, 0
4, 315000, Note_off_c, 4, 48, 0
4, 315000, Note_off_c, 4, 41, 0
4, 315000, Note_on_c, 4, 41, 91
4, 315000, Note_on_c, 4, 48, 91
4, 315000, Note_on_c, 4, 53, 91
4, 315000, Note_on_c, 4, 57, 91
4, 315000, Note_on_c, 4, 60, 91
4, 315000, Note_on_c, 4, 65, 91
4, 315000, Note_on_c, 4, 65, 91
4, 315000, Note_on_c, 4, 69, 91
4, 315000, Note_on_c, 4, 72, 91
4, 315360, Note_off_c, 4, 72, 0
4, 315360, Note_off_c, 4, 69, 0
4, 315360, Note_off_c, 4, 65, 0
4, 315360, Note_off_c, 4, 65, 0
4, 315360, Note_off_c, 4, 60, 0
4, 315360, Note_off_c, 4, 57, 0
4, 315360, Note_off_c, 4, 53, 0
4, 315360, Note_off_c, 4, 48, 0
4, 315360, Note_off_c, 4, 41, 0
4, 315360, Note_on_c, 4, 41, 91
4, 315360, Note_on_c, 4, 48, 91
4, 315360, Note_on_c, 4, 53, 91
4, 315360, Note_on_c, 4, 57, 91
4, 315360, Note_on_c, 4, 60, 91
4, 315360, Note_on_c, 4, 65, 91
4, 315360, Note_on_c, 4, 65, 91
4, 315360, Note_on_c, 4, 69, 91
4, 315360, Note_on_c, 4, 72, 91
4, 315720, Note_off_c, 4, 72, 0
4, 315720, Note_off_c, 4, 69, 0
4, 315720, Note_off_c, 4, 65, 0
4, 315720, Note_off_c, 4, 65, 0
4, 315720, Note_off_c, 4, 60, 0
4, 315720, Note_off_c, 4, 57, 0
4, 315720, Note_off_c, 4, 53, 0
4, 315720, Note_off_c, 4, 48, 0
4, 315720, Note_off_c, 4, 41, 0
4, 315720, Note_on_c, 4, 41, 91
4, 315720, Note_on_c, 4, 48, 91
4, 315720, Note_on_c, 4, 53, 91
4, 315720, Note_on_c, 4, 57, 91
4, 315720, Note_on_c, 4, 60, 91
4, 315720, Note_on_c, 4, 65, 91
4, 315720, Note_on_c, 4, 65, 91
4, 315720, Note_on_c, 4, 69, 91
4, 315720, Note_on_c, 4, 72, 91
4, 316080, Note_off_c, 4, 72, 0
4, 316080, Note_off_c, 4, 69, 0
4, 316080, Note_off_c, 4, 65, 0
4, 316080, Note_off_c, 4, 65, 0
4, 316080, Note_off_c, 4, 60, 0
4, 316080, Note_off_c, 4, 57, 0
4, 316080, Note_off_c, 4, 53, 0
4, 316080, Note_off_c, 4, 48, 0
4, 316080, Note_off_c, 4, 41, 0
4, 316080, Note_on_c, 4, 41, 91
4, 316080, Note_on_c, 4, 48, 91
4, 316080, Note_on_c, 4, 53, 91
4, 316080, Note_on_c, 4, 57, 91
4, 316080, Note_on_c, 4, 60, 91
4, 316080, Note_on_c, 4, 65, 91
4, 316080, Note_on_c, 4, 65, 91
4, 316080, Note_on_c, 4, 69, 91
4, 316080, Note_on_c, 4, 72, 91
4, 316440, Note_off_c, 4, 72, 0
4, 316440, Note_off_c, 4, 69, 0
4, 316440, Note_off_c, 4, 65, 0
4, 316440, Note_off_c, 4, 65, 0
4, 316440, Note_off_c, 4, 60, 0
4, 316440, Note_off_c, 4, 57, 0
4, 316440, Note_off_c, 4, 53, 0
4, 316440, Note_off_c, 4, 48, 0
4, 316440, Note_off_c, 4, 41, 0
4, 316440, Note_on_c, 4, 41, 91
4, 316440, Note_on_c, 4, 48, 91
4, 316440, Note_on_c, 4, 53, 91
4, 316440, Note_on_c, 4, 57, 91
4, 316440, Note_on_c, 4, 60, 91
4, 316440, Note_on_c, 4, 65, 91
4, 316440, Note_on_c, 4, 65, 91
4, 316440, Note_on_c, 4, 69, 91
4, 316440, Note_on_c, 4, 72, 91
4, 316800, Note_off_c, 4, 72, 0
4, 316800, Note_off_c, 4, 69, 0
4, 316800, Note_off_c, 4, 65, 0
4, 316800, Note_off_c, 4, 65, 0
4, 316800, Note_off_c, 4, 60, 0
4, 316800, Note_off_c, 4, 57, 0
4, 316800, Note_off_c, 4, 53, 0
4, 316800, Note_off_c, 4, 48, 0
4, 316800, Note_off_c, 4, 41, 0
4, 316800, Note_on_c, 4, 41, 91
4, 316800, Note_on_c, 4, 48, 91
4, 316800, Note_on_c, 4, 53, 91
4, 316800, Note_on_c, 4, 57, 91
4, 316800, Note_on_c, 4, 60, 91
4, 316800, Note_on_c, 4, 65, 91
4, 316800, Note_on_c, 4, 65, 91
4, 316800, Note_on_c, 4, 69, 91
4, 316800, Note_on_c, 4, 72, 91
4, 317160, Note_off_c, 4, 72, 0
4, 317160, Note_off_c, 4, 69, 0
4, 317160, Note_off_c, 4, 65, 0
4, 317160, Note_off_c, 4, 65, 0
4, 317160, Note_off_c, 4, 60, 0
4, 317160, Note_off_c, 4, 57, 0
4, 317160, Note_off_c, 4, 53, 0
4, 317160, Note_off_c, 4, 48, 0
4, 317160, Note_off_c, 4, 41, 0
4, 317160, Note_on_c, 4, 41, 91
4, 317160, Note_on_c, 4, 48, 91
4, 317160, Note_on_c, 4, 53, 91
4, 317160, Note_on_c, 4, 57, 91
4, 317160, Note_on_c, 4, 60, 91
4, 317160, Note_on_c, 4, 65, 91
4, 317160, Note_on_c, 4, 65, 91
4, 317160, Note_on_c, 4, 69, 91
4, 317160, Note_on_c, 4, 72, 91
4, 317520, Note_off_c, 4, 72, 0
4, 317520, Note_off_c, 4, 69, 0
4, 317520, Note_off_c, 4, 65, 0
4, 317520, Note_off_c, 4, 65, 0
4, 317520, Note_off_c, 4, 60, 0
4, 317520, Note_off_c, 4, 57, 0
4, 317520, Note_off_c, 4, 53, 0
4, 317520, Note_off_c, 4, 48, 0
4, 317520, Note_off_c, 4, 41, 0
4, 317520, Note_on_c, 4, 41, 91
4, 317520, Note_on_c, 4, 48, 91
4, 317520, Note_on_c, 4, 53, 91
4, 317520, Note_on_c, 4, 57, 91
4, 317520, Note_on_c, 4, 60, 91
4, 317520, Note_on_c, 4, 65, 91
4, 317520, Note_on_c, 4, 65, 91
4, 317520, Note_on_c, 4, 69, 91
4, 317520, Note_on_c, 4, 72, 91
4, 317880, Note_off_c, 4, 72, 0
4, 317880, Note_off_c, 4, 69, 0
4, 317880, Note_off_c, 4, 65, 0
4, 317880, Note_off_c, 4, 65, 0
4, 317880, Note_off_c, 4, 60, 0
4, 317880, Note_off_c, 4, 57, 0
4, 317880, Note_off_c, 4, 53, 0
4, 317880, Note_off_c, 4, 48, 0
4, 317880, Note_off_c, 4, 41, 0
4, 317880, Note_on_c, 4, 41, 91
4, 317880, Note_on_c, 4, 48, 91
4, 317880, Note_on_c, 4, 53, 91
4, 317880, Note_on_c, 4, 57, 91
4, 317880, Note_on_c, 4, 60, 91
4, 317880, Note_on_c, 4, 65, 91
4, 317880, Note_on_c, 4, 65, 91
4, 317880, Note_on_c, 4, 69, 91
4, 317880, Note_on_c, 4, 72, 91
4, 318240, Note_off_c, 4, 72, 0
4, 318240, Note_off_c, 4, 69, 0
4, 318240, Note_off_c, 4, 65, 0
4, 318240, Note_off_c, 4, 65, 0
4, 318240, Note_off_c, 4, 60, 0
4, 318240, Note_off_c, 4, 57, 0
4, 318240, Note_off_c, 4, 53, 0
4, 318240, Note_off_c, 4, 48, 0
4, 318240, Note_off_c, 4, 41, 0
4, 318240, Note_on_c, 4, 41, 91
4, 318240, Note_on_c, 4, 48, 91
4, 318240, Note_on_c, 4, 53, 91
4, 318240, Note_on_c, 4, 57, 91
4, 318240, Note_on_c, 4, 60, 91
4, 318240, Note_on_c, 4, 65, 91
4, 318240, Note_on_c, 4, 65, 91
4, 318240, Note_on_c, 4, 69, 91
4, 318240, Note_on_c, 4, 72, 91
4, 318600, Note_off_c, 4, 72, 0
4, 318600, Note_off_c, 4, 69, 0
4, 318600, Note_off_c, 4, 65, 0
4, 318600, Note_off_c, 4, 65, 0
4, 318600, Note_off_c, 4, 60, 0
4, 318600, Note_off_c, 4, 57, 0
4, 318600, Note_off_c, 4, 53, 0
4, 318600, Note_off_c, 4, 48, 0
4, 318600, Note_off_c, 4, 41, 0
4, 318600, Note_on_c, 4, 41, 91
4, 318600, Note_on_c, 4, 48, 91
4, 318600, Note_on_c, 4, 53, 91
4, 318600, Note_on_c, 4, 57, 91
4, 318600, Note_on_c, 4, 60, 91
4, 318600, Note_on_c, 4, 65, 91
4, 318600, Note_on_c, 4, 65, 91
4, 318600, Note_on_c, 4, 69, 91
4, 318600, Note_on_c, 4, 72, 91
4, 318960, Note_off_c, 4, 72, 0
4, 318960, Note_off_c, 4, 69, 0
4, 318960, Note_off_c, 4, 65, 0
4, 318960, Note_off_c, 4, 65, 0
4, 318960, Note_off_c, 4, 60, 0
4, 318960, Note_off_c, 4, 57, 0
4, 318960, Note_off_c, 4, 53, 0
4, 318960, Note_off_c, 4, 48, 0
4, 318960, Note_off_c, 4, 41, 0
4, 318960, Note_on_c, 4, 41, 91
4, 318960, Note_on_c, 4, 48, 91
4, 318960, Note_on_c, 4, 53, 91
4, 318960, Note_on_c, 4, 57, 91
4, 318960, Note_on_c, 4, 60, 91
4, 318960, Note_on_c, 4, 65, 91
4, 318960, Note_on_c, 4, 65, 91
4, 318960, Note_on_c, 4, 69, 91
4, 318960, Note_on_c, 4, 72, 91
4, 319320, Note_off_c, 4, 72, 0
4, 319320, Note_off_c, 4, 69, 0
4, 319320, Note_off_c, 4, 65, 0
4, 319320, Note_off_c, 4, 65, 0
4, 319320, Note_off_c, 4, 60, 0
4, 319320, Note_off_c, 4, 57, 0
4, 319320, Note_off_c, 4, 53, 0
4, 319320, Note_off_c, 4, 48, 0
4, 319320, Note_off_c, 4, 41, 0
4, 319320, Note_on_c, 4, 41, 91
4, 319320, Note_on_c, 4, 48, 91
4, 319320, Note_on_c, 4, 53, 91
4, 319320, Note_on_c, 4, 57, 91
4, 319320, Note_on_c, 4, 60, 91
4, 319320, Note_on_c, 4, 65, 91
4, 319320, Note_on_c, 4, 65, 91
4, 319320, Note_on_c, 4, 69, 91
4, 319320, Note_on_c, 4, 72, 91
4, 319680, Note_off_c, 4, 72, 0
4, 319680, Note_off_c, 4, 69, 0
4, 319680, Note_off_c, 4, 65, 0
4, 319680, Note_off_c, 4, 65, 0
4, 319680, Note_off_c, 4, 60, 0
4, 319680, Note_off_c, 4, 57, 0
4, 319680, Note_off_c, 4, 53, 0
4, 319680, Note_off_c, 4, 48, 0
4, 319680, Note_off_c, 4, 41, 0
4, 319680, Note_on_c, 4, 43, 91
4, 319680, Note_on_c, 4, 50, 91
4, 319680, Note_on_c, 4, 55, 91
4, 319680, Note_on_c, 4, 59, 91
4, 319680, Note_on_c, 4, 62, 91
4, 319680, Note_on_c, 4, 67, 91
4, 319680, Note_on_c, 4, 67, 91
4, 319680, Note_on_c, 4, 71, 91
4, 319680, Note_on_c, 4, 74, 91
4, 320040, Note_off_c, 4, 74, 0
4, 320040, Note_off_c, 4, 71, 0
4, 320040, Note_off_c, 4, 67, 0
4, 320040, Note_off_c, 4, 67, 0
4, 320040, Note_off_c, 4, 62, 0
4, 320040, Note_off_c, 4, 59, 0
4, 320040, Note_off_c, 4, 55, 0
4, 320040, Note_off_c, 4, 50, 0
4, 320040, Note_off_c, 4, 43, 0
4, 320040, Note_on_c, 4, 43, 91
4, 320040, Note_on_c, 4, 50, 91
4, 320040, Note_on_c, 4, 55, 91
4, 320040, Note_on_c, 4, 59, 91
4, 320040, Note_on_c, 4, 62, 91
4, 320040, Note_on_c, 4, 67, 91
4, 320040, Note_on_c, 4, 67, 91
4, 320040, Note_on_c, 4, 71, 91
4, 320040, Note_on_c, 4, 74, 91
4, 320400, Note_off_c, 4, 74, 0
4, 320400, Note_off_c, 4, 71, 0
4, 320400, Note_off_c, 4, 67, 0
4, 320400, Note_off_c, 4, 67, 0
4, 320400, Note_off_c, 4, 62, 0
4, 320400, Note_off_c, 4, 59, 0
4, 320400, Note_off_c, 4, 55, 0
4, 320400, Note_off_c, 4, 50, 0
4, 320400, Note_off_c, 4, 43, 0
4, 320400, Note_on_c, 4, 43, 91
4, 320400, Note_on_c, 4, 50, 91
4, 320400, Note_on_c, 4, 55, 91
4, 320400, Note_on_c, 4, 59, 91
4, 320400, Note_on_c, 4, 62, 91
4, 320400, Note_on_c, 4, 67, 91
4, 320400, Note_on_c, 4, 67, 91
4, 320400, Note_on_c, 4, 71, 91
4, 320400, Note_on_c, 4, 74, 91
4, 320760, Note_off_c, 4, 74, 0
4, 320760, Note_off_c, 4, 71, 0
4, 320760, Note_off_c, 4, 67, 0
4, 320760, Note_off_c, 4, 67, 0
4, 320760, Note_off_c, 4, 62, 0
4, 320760, Note_off_c, 4, 59, 0
4, 320760, Note_off_c, 4, 55, 0
4, 320760, Note_off_c, 4, 50, 0
4, 320760, Note_off_c, 4, 43, 0
4, 320760, Note_on_c, 4, 43, 91
4, 320760, Note_on_c, 4, 50, 91
4, 320760, Note_on_c, 4, 55, 91
4, 320760, Note_on_c, 4, 59, 91
4, 320760, Note_on_c, 4, 62, 91
4, 320760, Note_on_c, 4, 67, 91
4, 320760, Note_on_c, 4, 67, 91
4, 320760, Note_on_c, 4, 71, 91
4, 320760, Note_on_c, 4, 74, 91
4, 321120, Note_off_c, 4, 74, 0
4, 321120, Note_off_c, 4, 71, 0
4, 321120, Note_off_c, 4, 67, 0
4, 321120, Note_off_c, 4, 67, 0
4, 321120, Note_off_c, 4, 62, 0
4, 321120, Note_off_c, 4, 59, 0
4, 321120, Note_off_c, 4, 55, 0
4, 321120, Note_off_c, 4, 50, 0
4, 321120, Note_off_c, 4, 43, 0
4, 321120, Note_on_c, 4, 43, 91
4, 321120, Note_on_c, 4, 50, 91
4, 321120, Note_on_c, 4, 55, 91
4, 321120, Note_on_c, 4, 59, 91
4, 321120, Note_on_c, 4, 62, 91
4, 321120, Note_on_c, 4, 67, 91
4, 321120, Note_on_c, 4, 67, 91
4, 321120, Note_on_c, 4, 71, 91
4, 321120, Note_on_c, 4, 74, 91
4, 321480, Note_off_c, 4, 74, 0
4, 321480, Note_off_c, 4, 71, 0
4, 321480, Note_off_c, 4, 67, 0
4, 321480, Note_off_c, 4, 67, 0
4, 321480, Note_off_c, 4, 62, 0
4, 321480, Note_off_c, 4, 59, 0
4, 321480, Note_off_c, 4, 55, 0
4, 321480, Note_off_c, 4, 50, 0
4, 321480, Note_off_c, 4, 43, 0
4, 321480, Note_on_c, 4, 43, 91
4, 321480, Note_on_c, 4, 50, 91
4, 321480, Note_on_c, 4, 55, 91
4, 321480, Note_on_c, 4, 59, 91
4, 321480, Note_on_c, 4, 62, 91
4, 321480, Note_on_c, 4, 67, 91
4, 321480, Note_on_c, 4, 67, 91
4, 321480, Note_on_c, 4, 71, 91
4, 321480, Note_on_c, 4, 74, 91
4, 321840, Note_off_c, 4, 74, 0
4, 321840, Note_off_c, 4, 71, 0
4, 321840, Note_off_c, 4, 67, 0
4, 321840, Note_off_c, 4, 67, 0
4, 321840, Note_off_c, 4, 62, 0
4, 321840, Note_off_c, 4, 59, 0
4, 321840, Note_off_c, 4, 55, 0
4, 321840, Note_off_c, 4, 50, 0
4, 321840, Note_off_c, 4, 43, 0
4, 321840, Note_on_c, 4, 43, 91
4, 321840, Note_on_c, 4, 50, 91
4, 321840, Note_on_c, 4, 55, 91
4, 321840, Note_on_c, 4, 59, 91
4, 321840, Note_on_c, 4, 62, 91
4, 321840, Note_on_c, 4, 67, 91
4, 321840, Note_on_c, 4, 67, 91
4, 321840, Note_on_c, 4, 71, 91
4, 321840, Note_on_c, 4, 74, 91
4, 322200, Note_off_c, 4, 74, 0
4, 322200, Note_off_c, 4, 71, 0
4, 322200, Note_off_c, 4, 67, 0
4, 322200, Note_off_c, 4, 67, 0
4, 322200, Note_off_c, 4, 62, 0
4, 322200, Note_off_c, 4, 59, 0
4, 322200, Note_off_c, 4, 55, 0
4, 322200, Note_off_c, 4, 50, 0
4, 322200, Note_off_c, 4, 43, 0
4, 322200, Note_on_c, 4, 43, 91
4, 322200, Note_on_c, 4, 50, 91
4, 322200, Note_on_c, 4, 55, 91
4, 322200, Note_on_c, 4, 59, 91
4, 322200, Note_on_c, 4, 62, 91
4, 322200, Note_on_c, 4, 67, 91
4, 322200, Note_on_c, 4, 67, 91
4, 322200, Note_on_c, 4, 71, 91
4, 322200, Note_on_c, 4, 74, 91
4, 322560, Note_off_c, 4, 74, 0
4, 322560, Note_off_c, 4, 71, 0
4, 322560, Note_off_c, 4, 67, 0
4, 322560, Note_off_c, 4, 67, 0
4, 322560, Note_off_c, 4, 62, 0
4, 322560, Note_off_c, 4, 59, 0
4, 322560, Note_off_c, 4, 55, 0
4, 322560, Note_off_c, 4, 50, 0
4, 322560, Note_off_c, 4, 43, 0
4, 322560, Note_on_c, 4, 43, 91
4, 322560, Note_on_c, 4, 50, 91
4, 322560, Note_on_c, 4, 55, 91
4, 322560, Note_on_c, 4, 59, 91
4, 322560, Note_on_c, 4, 62, 91
4, 322560, Note_on_c, 4, 67, 91
4, 322560, Note_on_c, 4, 67, 91
4, 322560, Note_on_c, 4, 71, 91
4, 322560, Note_on_c, 4, 74, 91
4, 322920, Note_off_c, 4, 74, 0
4, 322920, Note_off_c, 4, 71, 0
4, 322920, Note_off_c, 4, 67, 0
4, 322920, Note_off_c, 4, 67, 0
4, 322920, Note_off_c, 4, 62, 0
4, 322920, Note_off_c, 4, 59, 0
4, 322920, Note_off_c, 4, 55, 0
4, 322920, Note_off_c, 4, 50, 0
4, 322920, Note_off_c, 4, 43, 0
4, 322920, Note_on_c, 4, 43, 91
4, 322920, Note_on_c, 4, 50, 91
4, 322920, Note_on_c, 4, 55, 91
4, 322920, Note_on_c, 4, 59, 91
4, 322920, Note_on_c, 4, 62, 91
4, 322920, Note_on_c, 4, 67, 91
4, 322920, Note_on_c, 4, 67, 91
4, 322920, Note_on_c, 4, 71, 91
4, 322920, Note_on_c, 4, 74, 91
4, 323280, Note_off_c, 4, 74, 0
4, 323280, Note_off_c, 4, 71, 0
4, 323280, Note_off_c, 4, 67, 0
4, 323280, Note_off_c, 4, 67, 0
4, 323280, Note_off_c, 4, 62, 0
4, 323280, Note_off_c, 4, 59, 0
4, 323280, Note_off_c, 4, 55, 0
4, 323280, Note_off_c, 4, 50, 0
4, 323280, Note_off_c, 4, 43, 0
4, 323280, Note_on_c, 4, 43, 91
4, 323280, Note_on_c, 4, 50, 91
4, 323280, Note_on_c, 4, 55, 91
4, 323280, Note_on_c, 4, 59, 91
4, 323280, Note_on_c, 4, 62, 91
4, 323280, Note_on_c, 4, 67, 91
4, 323280, Note_on_c, 4, 67, 91
4, 323280, Note_on_c, 4, 71, 91
4, 323280, Note_on_c, 4, 74, 91
4, 323640, Note_off_c, 4, 74, 0
4, 323640, Note_off_c, 4, 71, 0
4, 323640, Note_off_c, 4, 67, 0
4, 323640, Note_off_c, 4, 67, 0
4, 323640, Note_off_c, 4, 62, 0
4, 323640, Note_off_c, 4, 59, 0
4, 323640, Note_off_c, 4, 55, 0
4, 323640, Note_off_c, 4, 50, 0
4, 323640, Note_off_c, 4, 43, 0
4, 323640, Note_on_c, 4, 43, 91
4, 323640, Note_on_c, 4, 50, 91
4, 323640, Note_on_c, 4, 55, 91
4, 323640, Note_on_c, 4, 59, 91
4, 323640, Note_on_c, 4, 62, 91
4, 323640, Note_on_c, 4, 67, 91
4, 323640, Note_on_c, 4, 67, 91
4, 323640, Note_on_c, 4, 71, 91
4, 323640, Note_on_c, 4, 74, 91
4, 324000, Note_off_c, 4, 74, 0
4, 324000, Note_off_c, 4, 71, 0
4, 324000, Note_off_c, 4, 67, 0
4, 324000, Note_off_c, 4, 67, 0
4, 324000, Note_off_c, 4, 62, 0
4, 324000, Note_off_c, 4, 59, 0
4, 324000, Note_off_c, 4, 55, 0
4, 324000, Note_off_c, 4, 50, 0
4, 324000, Note_off_c, 4, 43, 0
4, 324000, Note_on_c, 4, 46, 91
4, 324000, Note_on_c, 4, 53, 91
4, 324000, Note_on_c, 4, 58, 91
4, 324000, Note_on_c, 4, 62, 91
4, 324000, Note_on_c, 4, 65, 91
4, 324000, Note_on_c, 4, 70, 91
4, 324000, Note_on_c, 4, 65, 91
4, 324000, Note_on_c, 4, 70, 91
4, 324000, Note_on_c, 4, 74, 91
4, 324360, Note_off_c, 4, 74, 0
4, 324360, Note_off_c, 4, 70, 0
4, 324360, Note_off_c, 4, 65, 0
4, 324360, Note_off_c, 4, 70, 0
4, 324360, Note_off_c, 4, 65, 0
4, 324360, Note_off_c, 4, 62, 0
4, 324360, Note_off_c, 4, 58, 0
4, 324360, Note_off_c, 4, 53, 0
4, 324360, Note_off_c, 4, 46, 0
4, 324360, Note_on_c, 4, 46, 91
4, 324360, Note_on_c, 4, 53, 91
4, 324360, Note_on_c, 4, 58, 91
4, 324360, Note_on_c, 4, 62, 91
4, 324360, Note_on_c, 4, 65, 91
4, 324360, Note_on_c, 4, 70, 91
4, 324360, Note_on_c, 4, 65, 91
4, 324360, Note_on_c, 4, 70, 91
4, 324360, Note_on_c, 4, 74, 91
4, 324720, Note_off_c, 4, 74, 0
4, 324720, Note_off_c, 4, 70, 0
4, 324720, Note_off_c, 4, 65, 0
4, 324720, Note_off_c, 4, 70, 0
4, 324720, Note_off_c, 4, 65, 0
4, 324720, Note_off_c, 4, 62, 0
4, 324720, Note_off_c, 4, 58, 0
4, 324720, Note_off_c, 4, 53, 0
4, 324720, Note_off_c, 4, 46, 0
4, 324720, Note_on_c, 4, 46, 91
4, 324720, Note_on_c, 4, 53, 91
4, 324720, Note_on_c, 4, 58, 91
4, 324720, Note_on_c, 4, 62, 91
4, 324720, Note_on_c, 4, 65, 91
4, 324720, Note_on_c, 4, 70, 91
4, 324720, Note_on_c, 4, 65, 91
4, 324720, Note_on_c, 4, 70, 91
4, 324720, Note_on_c, 4, 74, 91
4, 325080, Note_off_c, 4, 74, 0
4, 325080, Note_off_c, 4, 70, 0
4, 325080, Note_off_c, 4, 65, 0
4, 325080, Note_off_c, 4, 70, 0
4, 325080, Note_off_c, 4, 65, 0
4, 325080, Note_off_c, 4, 62, 0
4, 325080, Note_off_c, 4, 58, 0
4, 325080, Note_off_c, 4, 53, 0
4, 325080, Note_off_c, 4, 46, 0
4, 325080, Note_on_c, 4, 46, 91
4, 325080, Note_on_c, 4, 53, 91
4, 325080, Note_on_c, 4, 58, 91
4, 325080, Note_on_c, 4, 62, 91
4, 325080, Note_on_c, 4, 65, 91
4, 325080, Note_on_c, 4, 70, 91
4, 325080, Note_on_c, 4, 65, 91
4, 325080, Note_on_c, 4, 70, 91
4, 325080, Note_on_c, 4, 74, 91
4, 325440, Note_off_c, 4, 74, 0
4, 325440, Note_off_c, 4, 70, 0
4, 325440, Note_off_c, 4, 65, 0
4, 325440, Note_off_c, 4, 70, 0
4, 325440, Note_off_c, 4, 65, 0
4, 325440, Note_off_c, 4, 62, 0
4, 325440, Note_off_c, 4, 58, 0
4, 325440, Note_off_c, 4, 53, 0
4, 325440, Note_off_c, 4, 46, 0
4, 325440, End_track
5, 0, Start_track
5, 0, Control_c, 6, 7, 127
5, 0, Program_c, 6, 30
5, 0, Control_c, 6, 91, 102
5, 0, Control_c, 6, 101, 0
5, 0, Control_c, 6, 100, 0
5, 0, Control_c, 6, 6, 24
5, 0, Control_c, 7, 7, 127
5, 0, Program_c, 7, 30
5, 0, Control_c, 7, 91, 102
5, 0, Control_c, 7, 101, 0
5, 0, Control_c, 7, 100, 0
5, 0, Control_c, 7, 6, 24
5, 210600, Note_on_c, 6, 69, 78
5, 210960, Note_off_c, 6, 69, 0
5, 210960, Note_on_c, 6, 64, 78
5, 211320, Note_off_c, 6, 64, 0
5, 211320, Note_on_c, 7, 62, 78
5, 211330, Pitch_bend_c, 7, 8272
5, 211340, Pitch_bend_c, 7, 8347
5, 211350, Pitch_bend_c, 7, 8422
5, 211360, Pitch_bend_c, 7, 8497
5, 211370, Pitch_bend_c, 7, 8572
5, 211380, Pitch_bend_c, 7, 8647
5, 211390, Pitch_bend_c, 7, 8722
5, 211400, Pitch_bend_c, 7, 8797
5, 211410, Pitch_bend_c, 7, 8872
5, 212760, Note_off_c, 7, 62, 0
5, 212760, Pitch_bend_c, 7, 8192
5, 212760, Note_on_c, 6, 60, 78
5, 213480, Note_off_c, 6, 60, 0
5, 213480, Note_on_c, 7, 59, 78
5, 213520, Pitch_bend_c, 7, 8112
5, 213560, Pitch_bend_c, 7, 8037
5, 213600, Pitch_bend_c, 7, 7962
5, 213640, Pitch_bend_c, 7, 7887
5, 213680, Pitch_bend_c, 7, 7812
5, 213720, Pitch_bend_c, 7, 7737
5, 213760, Pitch_bend_c, 7, 7662
5, 213800, Pitch_bend_c, 7, 7587
5, 213840, Pitch_bend_c, 7, 7512
5, 214200, Note_off_c, 7, 59, 0
5, 214200, Pitch_bend_c, 7, 8192
5, 214200, Note_on_c, 6, 50, 78
5, 216000, Note_off_c, 6, 50, 0
5, 216360, Note_on_c, 6, 69, 78
5, 216720, Note_off_c, 6, 69, 0
5, 216720, Note_on_c, 6, 64, 78
5, 217080, Note_off_c, 6, 64, 0
5, 217080, Note_on_c, 7, 62, 78
5, 217090, Pitch_bend_c, 7, 8272
5, 217100, Pitch_bend_c, 7, 8347
5, 217110, Pitch_bend_c, 7, 8422
5, 217120, Pitch_bend_c, 7, 8497
5, 217130, Pitch_bend_c, 7, 8572
5, 217140, Pitch_bend_c, 7, 8647
5, 217150, Pitch_bend_c, 7, 8722
5, 217160, Pitch_bend_c, 7, 8797
5, 217170, Pitch_bend_c, 7, 8872
5, 218520, Note_off_c, 7, 62, 0
5, 218520, Pitch_bend_c, 7, 8192
5, 218520, Note_on_c, 6, 60, 78
5, 219240, Note_off_c, 6, 60, 0
5, 219240, Note_on_c, 7, 59, 78
5, 219280, Pitch_bend_c, 7, 8112
5, 219320, Pitch_bend_c, 7, 8037
5, 219360, Pitch_bend_c, 7, 7962
5, 219400, Pitch_bend_c, 7, 7887
5, 219440, Pitch_bend_c, 7, 7812
5, 219480, Pitch_bend_c, 7, 7737
5, 219520, Pitch_bend_c, 7, 7662
5, 219560, Pitch_bend_c, 7, 7587
5, 219600, Pitch_bend_c, 7, 7512
5, 219960, Note_off_c, 7, 59, 0
5, 219960, Pitch_bend_c, 7, 8192
5, 219960, Note_on_c, 6, 50, 78
5, 221760, Note_off_c, 6, 50, 0
5, 222120, Note_on_c, 6, 69, 78
5, 222480, Note_off_c, 6, 69, 0
5, 222480, Note_on_c, 6, 64, 78
5, 222840, Note_off_c, 6, 64, 0
5, 222840, Note_on_c, 7, 62, 78
5, 222850, Pitch_bend_c, 7, 8272
5, 222860, Pitch_bend_c, 7, 8347
5, 222870, Pitch_bend_c, 7, 8422
5, 222880, Pitch_bend_c, 7, 8497
5, 222890, Pitch_bend_c, 7, 8572
5, 222900, Pitch_bend_c, 7, 8647
5, 222910, Pitch_bend_c, 7, 8722
5, 222920, Pitch_bend_c, 7, 8797
5, 222930, Pitch_bend_c, 7, 8872
5, 224280, Note_off_c, 7, 62, 0
5, 224280, Pitch_bend_c, 7, 8192
5, 224280, Note_on_c, 6, 60, 78
5, 225000, Note_off_c, 6, 60, 0
5, 225000, Note_on_c, 7, 59, 78
5, 225040, Pitch_bend_c, 7, 8112
5, 225080, Pitch_bend_c, 7, 8037
5, 225120, Pitch_bend_c, 7, 7962
5, 225160, Pitch_bend_c, 7, 7887
5, 225200, Pitch_bend_c, 7, 7812
5, 225240, Pitch_bend_c, 7, 7737
5, 225280, Pitch_bend_c, 7, 7662
5, 225320, Pitch_bend_c, 7, 7587
5, 225360, Pitch_bend_c, 7, 7512
5, 225720, Note_off_c, 7, 59, 0
5, 225720, Pitch_bend_c, 7, 8192
5, 225720, Note_on_c, 6, 50, 78
5, 227520, Note_off_c, 6, 50, 0
5, 227880, Note_on_c, 6, 69, 78
5, 228240, Note_off_c, 6, 69, 0
5, 228240, Note_on_c, 6, 64, 78
5, 228600, Note_off_c, 6, 64, 0
5, 228600, Note_on_c, 7, 62, 78
5, 228610, Pitch_bend_c, 7, 8272
5, 228620, Pitch_bend_c, 7, 8347
5, 228630, Pitch_bend_c, 7, 8422
5, 228640, Pitch_bend_c, 7, 8497
5, 228650, Pitch_bend_c, 7, 8572
5, 228660, Pitch_bend_c, 7, 8647
5, 228670, Pitch_bend_c, 7, 8722
5, 228680, Pitch_bend_c, 7, 8797
5, 228690, Pitch_bend_c, 7, 8872
5, 230040, Note_off_c, 7, 62, 0
5, 230040, Pitch_bend_c, 7, 8192
5, 230040, Note_on_c, 6, 60, 78
5, 230760, Note_off_c, 6, 60, 0
5, 230760, Note_on_c, 7, 59, 78
5, 230800, Pitch_bend_c, 7, 8112
5, 230840, Pitch_bend_c, 7, 8037
5, 230880, Pitch_bend_c, 7, 7962
5, 230920, Pitch_bend_c, 7, 7887
5, 230960, Pitch_bend_c, 7, 7812
5, 231000, Pitch_bend_c, 7, 7737
5, 231040, Pitch_bend_c, 7, 7662
5, 231080, Pitch_bend_c, 7, 7587
5, 231120, Pitch_bend_c, 7, 7512
5, 231480, Note_off_c, 7, 59, 0
5, 231480, Pitch_bend_c, 7, 8192
5, 231480, Note_on_c, 6, 50, 78
5, 233280, Note_off_c, 6, 50, 0
5, 233640, Note_on_c, 6, 69, 78
5, 234000, Note_off_c, 6, 69, 0
5, 234000, Note_on_c, 6, 64, 78
5, 234360, Note_off_c, 6, 64, 0
5, 234360, Note_on_c, 7, 62, 78
5, 234370, Pitch_bend_c, 7, 8272
5, 234380, Pitch_bend_c, 7, 8347
5, 234390, Pitch_bend_c, 7, 8422
5, 234400, Pitch_bend_c, 7, 8497
5, 234410, Pitch_bend_c, 7, 8572
5, 234420, Pitch_bend_c, 7, 8647
5, 234430, Pitch_bend_c, 7, 8722
5, 234440, Pitch_bend_c, 7, 8797
5, 234450, Pitch_bend_c, 7, 8872
5, 235800, Note_off_c, 7, 62, 0
5, 235800, Pitch_bend_c, 7, 8192
5, 235800, Note_on_c, 6, 60, 78
5, 236520, Note_off_c, 6, 60, 0
5, 236520, Note_on_c, 7, 59, 78
5, 236560, Pitch_bend_c, 7, 8112
5, 236600, Pitch_bend_c, 7, 8037
5, 236640, Pitch_bend_c, 7, 7962
5, 236680, Pitch_bend_c, 7, 7887
5, 236720, Pitch_bend_c, 7, 7812
5, 236760, Pitch_bend_c, 7, 7737
5, 236800, Pitch_bend_c, 7, 7662
5, 236840, Pitch_bend_c, 7, 7587
5, 236880, Pitch_bend_c, 7, 7512
5, 237240, Note_off_c, 7, 59, 0
5, 237240, Pitch_bend_c, 7, 8192
5, 237240, Note_on_c, 6, 50, 78
5, 239040, Note_off_c, 6, 50, 0
5, 239400, Note_on_c, 6, 69, 78
5, 239760, Note_off_c, 6, 69, 0
5, 239760, Note_on_c, 6, 64, 78
5, 240120, Note_off_c, 6, 64, 0
5, 240120, Note_on_c, 7, 62, 78
5, 240130, Pitch_bend_c, 7, 8272
5, 240140, Pitch_bend_c, 7, 8347
5, 240150, Pitch_bend_c, 7, 8422
5, 240160, Pitch_bend_c, 7, 8497
5, 240170, Pitch_bend_c, 7, 8572
5, 240180, Pitch_bend_c, 7, 8647
5, 240190, Pitch_bend_c, 7, 8722
5, 240200, Pitch_bend_c, 7, 8797
5, 240210, Pitch_bend_c, 7, 8872
5, 241560, Note_off_c, 7, 62, 0
5, 241560, Pitch_bend_c, 7, 8192
5, 241560, Note_on_c, 6, 60, 78
5, 242280, Note_off_c, 6, 60, 0
5, 242280, Note_on_c, 7, 59, 78
5, 242320, Pitch_bend_c, 7, 8112
5, 242360, Pitch_bend_c, 7, 8037
5, 242400, Pitch_bend_c, 7, 7962
5, 242440, Pitch_bend_c, 7, 7887
5, 242480, Pitch_bend_c, 7, 7812
5, 242520, Pitch_bend_c, 7, 7737
5, 242560, Pitch_bend_c, 7, 7662
5, 242600, Pitch_bend_c, 7, 7587
5, 242640, Pitch_bend_c, 7, 7512
5, 243000, Note_off_c, 7, 59, 0
5, 243000, Pitch_bend_c, 7, 8192
5, 243000, Note_on_c, 6, 50, 78
5, 244800, Note_off_c, 6, 50, 0
5, 245160, Note_on_c, 6, 69, 78
5, 245520, Note_off_c, 6, 69, 0
5, 245520, Note_on_c, 6, 64, 78
5, 245880, Note_off_c, 6, 64, 0
5, 245880, Note_on_c, 7, 62, 78
5, 245890, Pitch_bend_c, 7, 8272
5, 245900, Pitch_bend_c, 7, 8347
5, 245910, Pitch_bend_c, 7, 8422
5, 245920, Pitch_bend_c, 7, 8497
5, 245930, Pitch_bend_c, 7, 8572
5, 245940, Pitch_bend_c, 7, 8647
5, 245950, Pitch_bend_c, 7, 8722
5, 245960, Pitch_bend_c, 7, 8797
5, 245970, Pitch_bend_c, 7, 8872
5, 247320, Note_off_c, 7, 62, 0
5, 247320, Pitch_bend_c, 7, 8192
5, 247320, Note_on_c, 6, 60, 78
5, 248040, Note_off_c, 6, 60, 0
5, 248040, Note_on_c, 7, 59, 78
5, 248080, Pitch_bend_c, 7, 8112
5, 248120, Pitch_bend_c, 7, 8037
5, 248160, Pitch_bend_c, 7, 7962
5, 248200, Pitch_bend_c, 7, 7887
5, 248240, Pitch_bend_c, 7, 7812
5, 248280, Pitch_bend_c, 7, 7737
5, 248320, Pitch_bend_c, 7, 7662
5, 248360, Pitch_bend_c, 7, 7587
5, 248400, Pitch_bend_c, 7, 7512
5, 248760, Note_off_c, 7, 59, 0
5, 248760, Pitch_bend_c, 7, 8192
5, 248760, Note_on_c, 6, 50, 78
5, 250560, Note_off_c, 6, 50, 0
5, 250920, Note_on_c, 6, 69, 78
5, 251280, Note_off_c, 6, 69, 0
5, 251280, Note_on_c, 6, 64, 78
5, 251640, Note_off_c, 6, 64, 0
5, 251640, Note_on_c, 7, 62, 78
5, 251650, Pitch_bend_c, 7, 8272
5, 251660, Pitch_bend_c, 7, 8347
5, 251670, Pitch_bend_c, 7, 8422
5, 251680, Pitch_bend_c, 7, 8497
5, 251690, Pitch_bend_c, 7, 8572
5, 251700, Pitch_bend_c, 7, 8647
5, 251710, Pitch_bend_c, 7, 8722
5, 251720, Pitch_bend_c, 7, 8797
5, 251730, Pitch_bend_c, 7, 8872
5, 253080, Note_off_c, 7, 62, 0
5, 253080, Pitch_bend_c, 7, 8192
5, 253080, Note_on_c, 6, 60, 78
5, 253800, Note_off_c, 6, 60, 0
5, 253800, Note_on_c, 7, 59, 78
5, 253840, Pitch_bend_c, 7, 8112
5, 253880, Pitch_bend_c, 7, 8037
5, 253920, Pitch_bend_c, 7, 7962
5, 253960, Pitch_bend_c, 7, 7887
5, 254000, Pitch_bend_c, 7, 7812
5, 254040, Pitch_bend_c, 7, 7737
5, 254080, Pitch_bend_c, 7, 7662
5, 254120, Pitch_bend_c, 7, 7587
5, 254160, Pitch_bend_c, 7, 7512
5, 254520, Note_off_c, 7, 59, 0
5, 254520, Pitch_bend_c, 7, 8192
5, 254520, Note_on_c, 6, 50, 78
5, 256320, Note_off_c, 6, 50, 0
5, 256680, Note_on_c, 6, 69, 104
5, 257040, Note_off_c, 6, 69, 0
5, 257040, Note_on_c, 6, 64, 104
5, 257400, Note_off_c, 6, 64, 0
5, 257400, Note_on_c, 7, 62, 104
5, 257440, Pitch_bend_c, 7, 8272
5, 257480, Pitch_bend_c, 7, 8347
5, 257520, Pitch_bend_c, 7, 8422
5, 257560, Pitch_bend_c, 7, 8497
5, 257600, Pitch_bend_c, 7, 8572
5, 257640, Pitch_bend_c, 7, 8647
5, 257680, Pitch_bend_c, 7, 8722
5, 257720, Pitch_bend_c, 7, 8797
5, 257760, Pitch_bend_c, 7, 8872
5, 258120, Control_c, 6, 1, 85
5, 258120, Control_c, 7, 1, 85
5, 258840, Note_off_c, 7, 62, 0
5, 258840, Pitch_bend_c, 7, 8192
5, 258840, Note_on_c, 6, 60, 104
5, 258840, Control_c, 6, 1, 0
5, 258840, Control_c, 7, 1, 0
5, 259560, Note_off_c, 6, 60, 0
5, 259560, Note_on_c, 7, 59, 104
5, 259600, Pitch_bend_c, 7, 8112
5, 259640, Pitch_bend_c, 7, 8037
5, 259680, Pitch_bend_c, 7, 7962
5, 259720, Pitch_bend_c, 7, 7887
5, 259760, Pitch_bend_c, 7, 7812
5, 259800, Pitch_bend_c, 7, 7737
5, 259840, Pitch_bend_c, 7, 7662
5, 259880, Pitch_bend_c, 7, 7587
5, 259920, Pitch_bend_c, 7, 7512
5, 260280, Note_off_c, 7, 59, 0
5, 260280, Pitch_bend_c, 7, 8192
5, 260280, Note_on_c, 6, 50, 104
5, 262080, Note_off_c, 6, 50, 0
5, 262440, Note_on_c, 6, 69, 104
5, 262800, Note_off_c, 6, 69, 0
5, 262800, Note_on_c, 6, 64, 104
5, 263160, Note_off_c, 6, 64, 0
5, 263160, Note_on_c, 7, 62, 104
5, 263200, Pitch_bend_c, 7, 8272
5, 263240, Pitch_bend_c, 7, 8347
5, 263280, Pitch_bend_c, 7, 8422
5, 263320, Pitch_bend_c, 7, 8497
5, 263360, Pitch_bend_c, 7, 8572
5, 263400, Pitch_bend_c, 7, 8647
5, 263440, Pitch_bend_c, 7, 8722
5, 263480, Pitch_bend_c, 7, 8797
5, 263520, Pitch_bend_c, 7, 8872
5, 263880, Control_c, 6, 1, 85
5, 263880, Control_c, 7, 1, 85
5, 264600, Note_off_c, 7, 62, 0
5, 264600, Pitch_bend_c, 7, 8192
5, 264600, Note_on_c, 6, 60, 104
5, 264600, Control_c, 6, 1, 0
5, 264600, Control_c, 7, 1, 0
5, 265320, Note_off_c, 6, 60, 0
5, 265320, Note_on_c, 7, 59, 104
5, 265360, Pitch_bend_c, 7, 8112
5, 265400, Pitch_bend_c, 7, 8037
5, 265440, Pitch_bend_c, 7, 7962
5, 265480, Pitch_bend_c, 7, 7887
5, 265520, Pitch_bend_c, 7, 7812
5, 265560, Pitch_bend_c, 7, 7737
5, 265600, Pitch_bend_c, 7, 7662
5, 265640, Pitch_bend_c, 7, 7587
5, 265680, Pitch_bend_c, 7, 7512
5, 266040, Note_off_c, 7, 59, 0
5, 266040, Pitch_bend_c, 7, 8192
5, 266040, Note_on_c, 6, 50, 104
5, 267840, Note_off_c, 6, 50, 0
5, 268200, Note_on_c, 6, 69, 104
5, 268560, Note_off_c, 6, 69, 0
5, 268560, Note_on_c, 6, 64, 104
5, 268920, Note_off_c, 6, 64, 0
5, 268920, Note_on_c, 7, 62, 104
5, 268960, Pitch_bend_c, 7, 8272
5, 269000, Pitch_bend_c, 7, 8347
5, 269040, Pitch_bend_c, 7, 8422
5, 269080, Pitch_bend_c, 7, 8497
5, 269120, Pitch_bend_c, 7, 8572
5, 269160, Pitch_bend_c, 7, 8647
5, 269200, Pitch_bend_c, 7, 8722
5, 269240, Pitch_bend_c, 7, 8797
5, 269280, Pitch_bend_c, 7, 8872
5, 269640, Control_c, 6, 1, 85
5, 269640, Control_c, 7, 1, 85
5, 270360, Note_off_c, 7, 62, 0
5, 270360, Pitch_bend_c, 7, 8192
5, 270360, Note_on_c, 6, 60, 104
5, 270360, Control_c, 6, 1, 0
5, 270360, Control_c, 7, 1, 0
5, 271080, Note_off_c, 6, 60, 0
5, 271080, Note_on_c, 7, 59, 104
5, 271120, Pitch_bend_c, 7, 8112
5, 271160, Pitch_bend_c, 7, 8037
5, 271200, Pitch_bend_c, 7, 7962
5, 271240, Pitch_bend_c, 7, 7887
5, 271280, Pitch_bend_c, 7, 7812
5, 271320, Pitch_bend_c, 7, 7737
5, 271360, Pitch_bend_c, 7, 7662
5, 271400, Pitch_bend_c, 7, 7587
5, 271440, Pitch_bend_c, 7, 7512
5, 271800, Note_off_c, 7, 59, 0
5, 271800, Pitch_bend_c, 7, 8192
5, 271800, Note_on_c, 6, 50, 104
5, 273600, Note_off_c, 6, 50, 0
5, 273960, Note_on_c, 6, 69, 104
5, 274320, Note_off_c, 6, 69, 0
5, 274320, Note_on_c, 6, 64, 104
5, 274680, Note_off_c, 6, 64, 0
5, 274680, Note_on_c, 7, 62, 104
5, 274720, Pitch_bend_c, 7, 8272
5, 274760, Pitch_bend_c, 7, 8347
5, 274800, Pitch_bend_c, 7, 8422
5, 274840, Pitch_bend_c, 7, 8497
5, 274880, Pitch_bend_c, 7, 8572
5, 274920, Pitch_bend_c, 7, 8647
5, 274960, Pitch_bend_c, 7, 8722
5, 275000, Pitch_bend_c, 7, 8797
5, 275040, Pitch_bend_c, 7, 8872
5, 275400, Control_c, 6, 1, 85
5, 275400, Control_c, 7, 1, 85
5, 276120, Note_off_c, 7, 62, 0
5, 276120, Pitch_bend_c, 7, 8192
5, 276120, Note_on_c, 6, 60, 104
5, 276120, Control_c, 6, 1, 0
5, 276120, Control_c, 7, 1, 0
5, 276840, Note_off_c, 6, 60, 0
5, 276840, Note_on_c, 7, 59, 104
5, 276880, Pitch_bend_c, 7, 8112
5, 276920, Pitch_bend_c, 7, 8037
5, 276960, Pitch_bend_c, 7, 7962
5, 277000, Pitch_bend_c, 7, 7887
5, 277040, Pitch_bend_c, 7, 7812
5, 277080, Pitch_bend_c, 7, 7737
5, 277120, Pitch_bend_c, 7, 7662
5, 277160, Pitch_bend_c, 7, 7587
5, 277200, Pitch_bend_c, 7, 7512
5, 277560, Note_off_c, 7, 59, 0
5, 277560, Pitch_bend_c, 7, 8192
5, 277560, Note_on_c, 6, 50, 104
5, 279360, Note_off_c, 6, 50, 0
5, 279720, Note_on_c, 6, 69, 104
5, 280080, Note_off_c, 6, 69, 0
5, 280080, Note_on_c, 6, 64, 104
5, 280440, Note_off_c, 6, 64, 0
5, 280440, Note_on_c, 7, 62, 104
5, 280480, Pitch_bend_c, 7, 8272
5, 280520, Pitch_bend_c, 7, 8347
5, 280560, Pitch_bend_c, 7, 8422
5, 280600, Pitch_bend_c, 7, 8497
5, 280640, Pitch_bend_c, 7, 8572
5, 280680, Pitch_bend_c, 7, 8647
5, 280720, Pitch_bend_c, 7, 8722
5, 280760, Pitch_bend_c, 7, 8797
5, 280800, Pitch_bend_c, 7, 8872
5, 281160, Control_c, 6, 1, 85
5, 281160, Control_c, 7, 1, 85
5, 281880, Note_off_c, 7, 62, 0
5, 281880, Pitch_bend_c, 7, 8192
5, 281880, Note_on_c, 6, 60, 104
5, 281880, Control_c, 6, 1, 0
5, 281880, Control_c, 7, 1, 0
5, 282600, Note_off_c, 6, 60, 0
5, 282600, Note_on_c, 7, 59, 104
5, 282640, Pitch_bend_c, 7, 8112
5, 282680, Pitch_bend_c, 7, 8037
5, 282720, Pitch_bend_c, 7, 7962
5, 282760, Pitch_bend_c, 7, 7887
5, 282800, Pitch_bend_c, 7, 7812
5, 282840, Pitch_bend_c, 7, 7737
5, 282880, Pitch_bend_c, 7, 7662
5, 282920, Pitch_bend_c, 7, 7587
5, 282960, Pitch_bend_c, 7, 7512
5, 283320, Note_off_c, 7, 59, 0
5, 283320, Pitch_bend_c, 7, 8192
5, 283320, Note_on_c, 6, 50, 104
5, 285120, Note_off_c, 6, 50, 0
5, 285480, Note_on_c, 6, 69, 104
5, 285840, Note_off_c, 6, 69, 0
5, 285840, Note_on_c, 6, 64, 104
5, 286200, Note_off_c, 6, 64, 0
5, 286200, Note_on_c, 7, 62, 104
5, 286240, Pitch_bend_c, 7, 8272
5, 286280, Pitch_bend_c, 7, 8347
5, 286320, Pitch_bend_c, 7, 8422
5, 286360, Pitch_bend_c, 7, 8497
5, 286400, Pitch_bend_c, 7, 8572
5, 286440, Pitch_bend_c, 7, 8647
5, 286480, Pitch_bend_c, 7, 8722
5, 286520, Pitch_bend_c, 7, 8797
5, 286560, Pitch_bend_c, 7, 8872
5, 286920, Control_c, 6, 1, 85
5, 286920, Control_c, 7, 1, 85
5, 287640, Note_off_c, 7, 62, 0
5, 287640, Pitch_bend_c, 7, 8192
5, 287640, Note_on_c, 6, 60, 104
5, 287640, Control_c, 6, 1, 0
5, 287640, Control_c, 7, 1, 0
5, 288360, Note_off_c, 6, 60, 0
5, 288360, Note_on_c, 7, 59, 104
5, 288400, Pitch_bend_c, 7, 8112
5, 288440, Pitch_bend_c, 7, 8037
5, 288480, Pitch_bend_c, 7, 7962
5, 288520, Pitch_bend_c, 7, 7887
5, 288560, Pitch_bend_c, 7, 7812
5, 288600, Pitch_bend_c, 7, 7737
5, 288640, Pitch_bend_c, 7, 7662
5, 288680, Pitch_bend_c, 7, 7587
5, 288720, Pitch_bend_c, 7, 7512
5, 289080, Note_off_c, 7, 59, 0
5, 289080, Pitch_bend_c, 7, 8192
5, 289080, Note_on_c, 6, 50, 104
5, 290880, Note_off_c, 6, 50, 0
5, 291240, Note_on_c, 6, 69, 104
5, 291600, Note_off_c, 6, 69, 0
5, 291600, Note_on_c, 6, 64, 104
5, 291960, Note_off_c, 6, 64, 0
5, 291960, Note_on_c, 7, 62, 104
5, 292000, Pitch_bend_c, 7, 8272
5, 292040, Pitch_bend_c, 7, 8347
5, 292080, Pitch_bend_c, 7, 8422
5, 292120, Pitch_bend_c, 7, 8497
5, 292160, Pitch_bend_c, 7, 8572
5, 292200, Pitch_bend_c, 7, 8647
5, 292240, Pitch_bend_c, 7, 8722
5, 292280, Pitch_bend_c, 7, 8797
5, 292320, Pitch_bend_c, 7, 8872
5, 292680, Control_c, 6, 1, 85
5, 292680, Control_c, 7, 1, 85
5, 293400, Note_off_c, 7, 62, 0
5, 293400, Pitch_bend_c, 7, 8192
5, 293400, Note_on_c, 6, 60, 104
5, 293400, Control_c, 6, 1, 0
5, 293400, Control_c, 7, 1, 0
5, 294120, Note_off_c, 6, 60, 0
5, 294120, Note_on_c, 7, 59, 104
5, 294160, Pitch_bend_c, 7, 8112
5, 294200, Pitch_bend_c, 7, 8037
5, 294240, Pitch_bend_c, 7, 7962
5, 294280, Pitch_bend_c, 7, 7887
5, 294320, Pitch_bend_c, 7, 7812
5, 294360, Pitch_bend_c, 7, 7737
5, 294400, Pitch_bend_c, 7, 7662
5, 294440, Pitch_bend_c, 7, 7587
5, 294480, Pitch_bend_c, 7, 7512
5, 294840, Note_off_c, 7, 59, 0
5, 294840, Pitch_bend_c, 7, 8192
5, 294840, Note_on_c, 6, 50, 104
5, 296640, Note_off_c, 6, 50, 0
5, 297000, Note_on_c, 6, 69, 104
5, 297360, Note_off_c, 6, 69, 0
5, 297360, Note_on_c, 6, 64, 104
5, 297720, Note_off_c, 6, 64, 0
5, 297720, Note_on_c, 7, 62, 104
5, 297760, Pitch_bend_c, 7, 8272
5, 297800, Pitch_bend_c, 7, 8347
5, 297840, Pitch_bend_c, 7, 8422
5, 297880, Pitch_bend_c, 7, 8497
5, 297920, Pitch_bend_c, 7, 8572
5, 297960, Pitch_bend_c, 7, 8647
5, 298000, Pitch_bend_c, 7, 8722
5, 298040, Pitch_bend_c, 7, 8797
5, 298080, Pitch_bend_c, 7, 8872
5, 298440, Control_c, 6, 1, 85
5, 298440, Control_c, 7, 1, 85
5, 299160, Note_off_c, 7, 62, 0
5, 299160, Pitch_bend_c, 7, 8192
5, 299160, Note_on_c, 6, 60, 104
5, 299160, Control_c, 6, 1, 0
5, 299160, Control_c, 7, 1, 0
5, 299880, Note_off_c, 6, 60, 0
5, 299880, Note_on_c, 7, 59, 104
5, 299920, Pitch_bend_c, 7, 8112
5, 299960, Pitch_bend_c, 7, 8037
5, 300000, Pitch_bend_c, 7, 7962
5, 300040, Pitch_bend_c, 7, 7887
5, 300080, Pitch_bend_c, 7, 7812
5, 300120, Pitch_bend_c, 7, 7737
5, 300160, Pitch_bend_c, 7, 7662
5, 300200, Pitch_bend_c, 7, 7587
5, 300240, Pitch_bend_c, 7, 7512
5, 300600, Note_off_c, 7, 59, 0
5, 300600, Pitch_bend_c, 7, 8192
5, 300600, Note_on_c, 6, 50, 104
5, 302400, Note_off_c, 6, 50, 0
5, 302760, Note_on_c, 6, 69, 104
5, 303120, Note_off_c, 6, 69, 0
5, 303120, Note_on_c, 6, 64, 104
5, 303480, Note_off_c, 6, 64, 0
5, 303480, Note_on_c, 7, 62, 104
5, 303520, Pitch_bend_c, 7, 8272
5, 303560, Pitch_bend_c, 7, 8347
5, 303600, Pitch_bend_c, 7, 8422
5, 303640, Pitch_bend_c, 7, 8497
5, 303680, Pitch_bend_c, 7, 8572
5, 303720, Pitch_bend_c, 7, 8647
5, 303760, Pitch_bend_c, 7, 8722
5, 303800, Pitch_bend_c, 7, 8797
5, 303840, Pitch_bend_c, 7, 8872
5, 304200, Control_c, 6, 1, 85
5, 304200, Control_c, 7, 1, 85
5, 304920, Note_off_c, 7, 62, 0
5, 304920, Pitch_bend_c, 7, 8192
5, 304920, Note_on_c, 6, 60, 104
5, 304920, Control_c, 6, 1, 0
5, 304920, Control_c, 7, 1, 0
5, 305640, Note_off_c, 6, 60, 0
5, 305640, Note_on_c, 7, 59, 104
5, 305680, Pitch_bend_c, 7, 8112
5, 305720, Pitch_bend_c, 7, 8037
5, 305760, Pitch_bend_c, 7, 7962
5, 305800, Pitch_bend_c, 7, 7887
5, 305840, Pitch_bend_c, 7, 7812
5, 305880, Pitch_bend_c, 7, 7737
5, 305920, Pitch_bend_c, 7, 7662
5, 305960, Pitch_bend_c, 7, 7587
5, 306000, Pitch_bend_c, 7, 7512
5, 306360, Note_off_c, 7, 59, 0
5, 306360, Pitch_bend_c, 7, 8192
5, 306360, Note_on_c, 6, 50, 104
5, 308160, Note_off_c, 6, 50, 0
5, 308520, Note_on_c, 6, 69, 104
5, 308880, Note_off_c, 6, 69, 0
5, 308880, Note_on_c, 6, 64, 104
5, 309240, Note_off_c, 6, 64, 0
5, 309240, Note_on_c, 7, 62, 104
5, 309280, Pitch_bend_c, 7, 8272
5, 309320, Pitch_bend_c, 7, 8347
5, 309360, Pitch_bend_c, 7, 8422
5, 309400, Pitch_bend_c, 7, 8497
5, 309440, Pitch_bend_c, 7, 8572
5, 309480, Pitch_bend_c, 7, 8647
5, 309520, Pitch_bend_c, 7, 8722
5, 309560, Pitch_bend_c, 7, 8797
5, 309600, Pitch_bend_c, 7, 8872
5, 309960, Control_c, 6, 1, 85
5, 309960, Control_c, 7, 1, 85
5, 310680, Note_off_c, 7, 62, 0
5, 310680, Pitch_bend_c, 7, 8192
5, 310680, Note_on_c, 6, 60, 104
5, 310680, Control_c, 6, 1, 0
5, 310680, Control_c, 7, 1, 0
5, 311400, Note_off_c, 6, 60, 0
5, 311400, Note_on_c, 7, 59, 104
5, 311440, Pitch_bend_c, 7, 8112
5, 311480, Pitch_bend_c, 7, 8037
5, 311520, Pitch_bend_c, 7, 7962
5, 311560, Pitch_bend_c, 7, 7887
5, 311600, Pitch_bend_c, 7, 7812
5, 311640, Pitch_bend_c, 7, 7737
5, 311680, Pitch_bend_c, 7, 7662
5, 311720, Pitch_bend_c, 7, 7587
5, 311760, Pitch_bend_c, 7, 7512
5, 312120, Note_off_c, 7, 59, 0
5, 312120, Pitch_bend_c, 7, 8192
5, 312120, Note_on_c, 6, 50, 104
5, 313920, Note_off_c, 6, 50, 0
5, 314280, Note_on_c, 6, 69, 104
5, 314640, Note_off_c, 6, 69, 0
5, 314640, Note_on_c, 6, 64, 104
5, 315000, Note_off_c, 6, 64, 0
5, 315000, Note_on_c, 7, 62, 104
5, 315040, Pitch_bend_c, 7, 8272
5, 315080, Pitch_bend_c, 7, 8347
5, 315120, Pitch_bend_c, 7, 8422
5, 315160, Pitch_bend_c, 7, 8497
5, 315200, Pitch_bend_c, 7, 8572
5, 315240, Pitch_bend_c, 7, 8647
5, 315280, Pitch_bend_c, 7, 8722
5, 315320, Pitch_bend_c, 7, 8797
5, 315360, Pitch_bend_c, 7, 8872
5, 315720, Control_c, 6, 1, 85
5, 315720, Control_c, 7, 1, 85
5, 316440, Note_off_c, 7, 62, 0
5, 316440, Pitch_bend_c, 7, 8192
5, 316440, Note_on_c, 6, 60, 104
5, 316440, Control_c, 6, 1, 0
5, 316440, Control_c, 7, 1, 0
5, 317160, Note_off_c, 6, 60, 0
5, 317160, Note_on_c, 7, 59, 104
5, 317200, Pitch_bend_c, 7, 8112
5, 317240, Pitch_bend_c, 7, 8037
5, 317280, Pitch_bend_c, 7, 7962
5, 317320, Pitch_bend_c, 7, 7887
5, 317360, Pitch_bend_c, 7, 7812
5, 317400, Pitch_bend_c, 7, 7737
5, 317440, Pitch_bend_c, 7, 7662
5, 317480, Pitch_bend_c, 7, 7587
5, 317520, Pitch_bend_c, 7, 7512
5, 317880, Note_off_c, 7, 59, 0
5, 317880, Pitch_bend_c, 7, 8192
5, 317880, Note_on_c, 6, 50, 104
5, 319680, Note_off_c, 6, 50, 0
5, 320040, Note_on_c, 6, 69, 104
5, 320400, Note_off_c, 6, 69, 0
5, 320400, Note_on_c, 6, 64, 104
5, 320760, Note_off_c, 6, 64, 0
5, 320760, Note_on_c, 7, 62, 104
5, 320800, Pitch_bend_c, 7, 8272
5, 320840, Pitch_bend_c, 7, 8347
5, 320880, Pitch_bend_c, 7, 8422
5, 320920, Pitch_bend_c, 7, 8497
5, 320960, Pitch_bend_c, 7, 8572
5, 321000, Pitch_bend_c, 7, 8647
5, 321040, Pitch_bend_c, 7, 8722
5, 321080, Pitch_bend_c, 7, 8797
5, 321120, Pitch_bend_c, 7, 8872
5, 321480, Control_c, 6, 1, 85
5, 321480, Control_c, 7, 1, 85
5, 322200, Note_off_c, 7, 62, 0
5, 322200, Pitch_bend_c, 7, 8192
5, 322200, Note_on_c, 6, 60, 104
5, 322200, Control_c, 6, 1, 0
5, 322200, Control_c, 7, 1, 0
5, 322560, Note_off_c, 6, 60, 0
5, 322560, Note_on_c, 6, 60, 104
5, 322920, Note_off_c, 6, 60, 0
5, 322920, Note_on_c, 7, 59, 104
5, 322960, Pitch_bend_c, 7, 8112
5, 323000, Pitch_bend_c, 7, 8037
5, 323040, Pitch_bend_c, 7, 7962
5, 323080, Pitch_bend_c, 7, 7887
5, 323120, Pitch_bend_c, 7, 7812
5, 323160, Pitch_bend_c, 7, 7737
5, 323200, Pitch_bend_c, 7, 7662
5, 323240, Pitch_bend_c, 7, 7587
5, 323280, Pitch_bend_c, 7, 7512
5, 323640, Note_off_c, 7, 59, 0
5, 323640, Pitch_bend_c, 7, 8192
5, 323640, Note_on_c, 6, 50, 104
5, 325440, Note_off_c, 6, 50, 0
5, 325440, End_track
6, 0, Start_track
6, 0, Control_c, 10, 7, 127
6, 0, Program_c, 10, 33
6, 0, Control_c, 10, 101, 0
6, 0, Control_c, 10, 100, 0
6, 0, Control_c, 10, 6, 24
6, 0, Control_c, 11, 7, 127
6, 0, Program_c, 11, 33
6, 0, Control_c, 11, 101, 0
6, 0, Control_c, 11, 100, 0
6, 0, Control_c, 11, 6, 24
6, 0, End_track
0, 0, End_of_file
