0, 0, Header, 1, 12, 480
1, 0, Start_track
1, 0, Tempo, 521739
1, 0, Title_t, "Be My Wife"
1, 0, Time_signature, 4, 2, 7, 246
1, 0, Tempo, 588235
1, 1920, Tempo, 521739
1, 1920, End_track
2, 0, Start_track
2, 0, Title_t, "Soft karaoke"
2, 0, Text_t, "@KMIDI KARAOKE FILE"
2, 0, End_track
3, 0, Start_track
3, 0, Title_t, "Words"
3, 0, Text_t, "@LENGL"
3, 0, Text_t, "@T< Be My Wife >"
3, 0, Text_t, "@T< David Bowie >"
3, 0, Text_t, "@T< Synchro: François ~ Mees >"
3, 1920, Text_t, "\\Be"
3, 2400, Text_t, " My"
3, 2640, Text_t, " Wife:"
3, 2880, Text_t, " David"
3, 3120, Text_t, " Bowie"
3, 3840, Text_t, "/Synchro:"
3, 4320, Text_t, " François"
3, 4560, Text_t, " ~"
3, 5040, Text_t, " Mees"
3, 9840, Text_t, "/Some"
3, 10080, Text_t, "times"
3, 10440, Text_t, " you"
3, 10560, Text_t, " get"
3, 10800, Text_t, " so"
3, 11040, Text_t, " lone"
3, 11280, Text_t, "ly,"
3, 13680, Text_t, "/Some"
3, 13920, Text_t, "times"
3, 14280, Text_t, " you"
3, 14400, Text_t, " get"
3, 14640, Text_t, " no"
3, 14880, Text_t, "where."
3, 17520, Text_t, "/I've"
3, 17760, Text_t, " li"
3, 18120, Text_t, "ved"
3, 18240, Text_t, " all"
3, 18360, Text_t, " o"
3, 18480, Text_t, "ver"
3, 18720, Text_t, " the"
3, 18960, Text_t, " world,"
3, 21360, Text_t, "/I've"
3, 21600, Text_t, " left"
3, 21960, Text_t, " e"
3, 22080, Text_t, "ve"
3, 22320, Text_t, "ry"
3, 22560, Text_t, " place."
3, 40320, Text_t, "\\Please"
3, 41760, Text_t, " be"
3, 42000, Text_t, " mine,"
3, 44160, Text_t, "/Share"
3, 45600, Text_t, " my"
3, 45840, Text_t, " life,"
3, 48000, Text_t, "/Stay"
3, 49440, Text_t, " with"
3, 49680, Text_t, " me,"
3, 51840, Text_t, "/Be"
3, 53280, Text_t, " my"
3, 53520, Text_t, " wife."
3, 55920, Text_t, "\\Some"
3, 56160, Text_t, "times"
3, 56520, Text_t, " you"
3, 56640, Text_t, " get"
3, 56880, Text_t, " so"
3, 57120, Text_t, " lone"
3, 57360, Text_t, "ly,"
3, 63600, Text_t, "/Some"
3, 63840, Text_t, "times"
3, 64200, Text_t, " you"
3, 64320, Text_t, " get"
3, 64560, Text_t, " no"
3, 64800, Text_t, "where."
3, 71280, Text_t, "/I've"
3, 71520, Text_t, " li"
3, 71880, Text_t, "ved"
3, 72000, Text_t, " all"
3, 72120, Text_t, " o"
3, 72240, Text_t, "ver"
3, 72480, Text_t, " the"
3, 72720, Text_t, " world,"
3, 78960, Text_t, "/I've"
3, 79200, Text_t, " left"
3, 79560, Text_t, " e"
3, 79680, Text_t, "ve"
3, 79920, Text_t, "ry"
3, 80160, Text_t, " place."
3, 86400, Text_t, "\\Please"
3, 87840, Text_t, " be"
3, 88080, Text_t, " mine,"
3, 90240, Text_t, "/Share"
3, 91680, Text_t, " my"
3, 91920, Text_t, " life,"
3, 94080, Text_t, "/Stay"
3, 95520, Text_t, " with"
3, 95760, Text_t, " me,"
3, 97920, Text_t, "/Be"
3, 99360, Text_t, " my"
3, 99600, Text_t, " wife."
3, 102000, Text_t, "\\Some"
3, 102240, Text_t, "times"
3, 102600, Text_t, " you"
3, 102720, Text_t, " get"
3, 102960, Text_t, " so"
3, 103200, Text_t, " lone"
3, 103680, Text_t, "ly."
3, 103920, Text_t, "/[Kar*François*Mees*]"
3, 103920, End_track
4, 0, Start_track
4, 0, Title_t, "Track 1"
4, 0, Control_c, 0, 100, 0
4, 0, Control_c, 0, 101, 0
4, 0, Control_c, 0, 6, 12
4, 0, Pitch_bend_c, 0, 8192
4, 0, Control_c, 1, 100, 0
4, 0, Control_c, 1, 101, 0
4, 0, Control_c, 1, 6, 12
4, 0, Pitch_bend_c, 1, 8192
4, 0, Program_c, 0, 106
4, 0, Program_c, 1, 106
4, 0, Control_c, 0, 7, 88
4, 0, Control_c, 1, 7, 88
4, 0, Control_c, 0, 10, 80
4, 0, Control_c, 1, 10, 80
4, 0, Control_c, 0, 93, 24
4, 0, Control_c, 1, 93, 24
4, 0, Control_c, 0, 91, 80
4, 0, Control_c, 1, 91, 80
4, 0, Control_c, 0, 92, 32
4, 0, Control_c, 1, 92, 32
4, 0, Control_c, 0, 95, 0
4, 0, Control_c, 1, 95, 0
4, 1920, Note_on_c, 0, 77, 95
4, 2040, Note_off_c, 0, 77, 80
4, 2400, Note_on_c, 0, 76, 47
4, 2640, Note_off_c, 0, 76, 80
4, 2640, Note_on_c, 0, 77, 95
4, 2880, Note_off_c, 0, 77, 80
4, 2880, Note_on_c, 0, 77, 111
4, 2880, Note_on_c, 0, 76, 111
4, 3000, Note_off_c, 0, 77, 80
4, 3000, Note_off_c, 0, 76, 80
4, 3120, Note_on_c, 0, 74, 111
4, 3120, Note_on_c, 0, 67, 111
4, 3240, Note_off_c, 0, 74, 80
4, 3240, Note_off_c, 0, 67, 80
4, 3840, Note_on_c, 0, 77, 95
4, 3960, Note_off_c, 0, 77, 80
4, 4320, Note_on_c, 0, 77, 79
4, 4320, Note_on_c, 0, 76, 63
4, 4560, Note_off_c, 0, 77, 80
4, 4560, Note_off_c, 0, 76, 80
4, 4560, Note_on_c, 0, 74, 95
4, 4560, Note_on_c, 0, 67, 95
4, 5040, Note_off_c, 0, 74, 80
4, 5040, Note_off_c, 0, 67, 80
4, 5040, Note_on_c, 0, 74, 111
4, 5040, Note_on_c, 0, 71, 79
4, 5280, Note_off_c, 0, 74, 80
4, 5280, Note_off_c, 0, 71, 80
4, 5280, Note_on_c, 0, 76, 111
4, 5280, Note_on_c, 0, 69, 79
4, 5520, Note_off_c, 0, 76, 80
4, 5520, Note_off_c, 0, 69, 80
4, 5520, Note_on_c, 0, 74, 111
4, 5520, Note_on_c, 0, 67, 63
4, 5760, Note_off_c, 0, 74, 80
4, 5760, Note_off_c, 0, 67, 80
4, 5760, Note_on_c, 0, 77, 111
4, 5760, Note_on_c, 0, 77, 95
4, 5840, Note_off_c, 0, 77, 80
4, 5840, Note_off_c, 0, 77, 80
4, 5840, Note_on_c, 0, 77, 47
4, 5920, Note_off_c, 0, 77, 80
4, 5920, Note_on_c, 0, 77, 47
4, 6000, Note_off_c, 0, 77, 80
4, 6000, Note_on_c, 0, 77, 47
4, 6080, Note_off_c, 0, 77, 80
4, 6080, Note_on_c, 0, 77, 47
4, 6160, Note_off_c, 0, 77, 80
4, 6160, Note_on_c, 0, 77, 47
4, 6240, Note_off_c, 0, 77, 80
4, 6240, Note_on_c, 0, 77, 95
4, 6240, Note_on_c, 0, 77, 63
4, 6300, Note_off_c, 0, 77, 80
4, 6320, Note_off_c, 0, 77, 80
4, 6320, Note_on_c, 0, 77, 63
4, 6400, Note_on_c, 0, 76, 47
4, 6410, Note_off_c, 0, 77, 80
4, 6480, Note_off_c, 0, 76, 80
4, 6480, Note_on_c, 0, 77, 63
4, 6560, Note_off_c, 0, 77, 80
4, 6560, Note_on_c, 0, 77, 63
4, 6640, Note_off_c, 0, 77, 80
4, 6640, Note_on_c, 0, 77, 63
4, 6720, Note_off_c, 0, 77, 80
4, 6720, Note_on_c, 0, 76, 127
4, 6840, Note_off_c, 0, 76, 80
4, 6960, Note_on_c, 0, 77, 127
4, 6960, Note_on_c, 0, 74, 111
4, 7080, Note_off_c, 0, 77, 80
4, 7080, Note_off_c, 0, 74, 80
4, 7680, Note_on_c, 0, 77, 95
4, 8160, Note_off_c, 0, 77, 80
4, 8160, Note_on_c, 0, 76, 95
4, 8400, Note_off_c, 0, 76, 80
4, 8400, Note_on_c, 0, 74, 95
4, 8880, Note_off_c, 0, 74, 80
4, 8880, Note_on_c, 0, 74, 95
4, 9120, Note_off_c, 0, 74, 80
4, 9120, Note_on_c, 0, 76, 95
4, 9360, Note_off_c, 0, 76, 80
4, 9360, Note_on_c, 0, 74, 95
4, 9600, Note_off_c, 0, 74, 80
4, 9600, Program_c, 0, 30
4, 9600, Program_c, 1, 30
4, 9840, Note_on_c, 0, 60, 95
4, 9840, Note_on_c, 0, 57, 95
4, 10080, Note_off_c, 0, 60, 80
4, 10080, Note_off_c, 0, 57, 80
4, 10080, Note_on_c, 0, 60, 95
4, 10080, Note_on_c, 0, 57, 95
4, 10560, Note_off_c, 0, 60, 80
4, 10560, Note_off_c, 0, 57, 80
4, 10560, Note_on_c, 0, 60, 95
4, 10560, Note_on_c, 0, 57, 95
4, 10800, Note_off_c, 0, 60, 80
4, 10800, Note_off_c, 0, 57, 80
4, 10800, Note_on_c, 0, 60, 95
4, 10800, Note_on_c, 0, 57, 95
4, 11040, Note_off_c, 0, 60, 80
4, 11040, Note_off_c, 0, 57, 80
4, 11040, Note_on_c, 0, 62, 95
4, 11040, Note_on_c, 0, 59, 95
4, 11280, Note_off_c, 0, 62, 80
4, 11280, Note_off_c, 0, 59, 80
4, 11280, Note_on_c, 1, 58, 79
4, 11280, Pitch_bend_c, 1, 8192
4, 11312, Pitch_bend_c, 1, 8320
4, 11344, Pitch_bend_c, 1, 8448
4, 11392, Pitch_bend_c, 1, 8576
4, 11424, Pitch_bend_c, 1, 8704
4, 11472, Pitch_bend_c, 1, 8832
4, 11700, Note_off_c, 1, 58, 80
4, 11700, Pitch_bend_c, 1, 8192
4, 11760, Note_on_c, 0, 57, 95
4, 12000, Note_off_c, 0, 57, 80
4, 12000, Note_on_c, 0, 57, 79
4, 12720, Note_off_c, 0, 57, 80
4, 12720, Note_on_c, 0, 52, 95
4, 12960, Note_off_c, 0, 52, 80
4, 12960, Note_on_c, 0, 55, 95
4, 13200, Note_off_c, 0, 55, 80
4, 13200, Note_on_c, 0, 52, 95
4, 13440, Note_off_c, 0, 52, 80
4, 13440, Note_on_c, 0, 57, 111
4, 14880, Note_off_c, 0, 57, 80
4, 15120, Note_on_c, 0, 59, 47
4, 17280, Note_off_c, 0, 59, 80
4, 17520, Note_on_c, 0, 60, 95
4, 17520, Note_on_c, 0, 57, 95
4, 17760, Note_off_c, 0, 60, 80
4, 17760, Note_off_c, 0, 57, 80
4, 17760, Note_on_c, 0, 60, 95
4, 17760, Note_on_c, 0, 57, 95
4, 18240, Note_off_c, 0, 60, 80
4, 18240, Note_off_c, 0, 57, 80
4, 18240, Note_on_c, 0, 60, 95
4, 18240, Note_on_c, 0, 57, 95
4, 18480, Note_off_c, 0, 60, 80
4, 18480, Note_off_c, 0, 57, 80
4, 18480, Note_on_c, 0, 60, 95
4, 18480, Note_on_c, 0, 57, 95
4, 18720, Note_off_c, 0, 60, 80
4, 18720, Note_off_c, 0, 57, 80
4, 18720, Note_on_c, 0, 62, 95
4, 18720, Note_on_c, 0, 59, 95
4, 18960, Note_off_c, 0, 62, 80
4, 18960, Note_off_c, 0, 59, 80
4, 18990, Note_on_c, 1, 58, 95
4, 18990, Pitch_bend_c, 1, 8192
4, 19022, Pitch_bend_c, 1, 8320
4, 19054, Pitch_bend_c, 1, 8448
4, 19086, Pitch_bend_c, 1, 8576
4, 19118, Pitch_bend_c, 1, 8704
4, 19166, Pitch_bend_c, 1, 8832
4, 19380, Note_off_c, 1, 58, 80
4, 19380, Pitch_bend_c, 1, 8192
4, 19440, Note_on_c, 0, 57, 95
4, 19680, Note_off_c, 0, 57, 80
4, 19680, Note_on_c, 0, 57, 79
4, 20400, Note_off_c, 0, 57, 80
4, 20400, Note_on_c, 0, 52, 95
4, 20640, Note_off_c, 0, 52, 80
4, 20640, Note_on_c, 0, 55, 95
4, 20880, Note_off_c, 0, 55, 80
4, 20880, Note_on_c, 0, 52, 95
4, 21120, Note_off_c, 0, 52, 80
4, 21120, Note_on_c, 0, 57, 111
4, 22560, Note_off_c, 0, 57, 80
4, 22800, Note_on_c, 0, 59, 47
4, 24960, Note_off_c, 0, 59, 80
4, 25200, Note_on_c, 0, 60, 95
4, 25200, Note_on_c, 0, 57, 95
4, 25440, Note_off_c, 0, 60, 80
4, 25440, Note_off_c, 0, 57, 80
4, 25440, Note_on_c, 0, 60, 95
4, 25440, Note_on_c, 0, 57, 95
4, 25920, Note_off_c, 0, 60, 80
4, 25920, Note_off_c, 0, 57, 80
4, 25920, Note_on_c, 0, 60, 95
4, 25920, Note_on_c, 0, 57, 95
4, 26160, Note_off_c, 0, 60, 80
4, 26160, Note_off_c, 0, 57, 80
4, 26160, Note_on_c, 0, 60, 95
4, 26160, Note_on_c, 0, 57, 95
4, 26400, Note_off_c, 0, 60, 80
4, 26400, Note_off_c, 0, 57, 80
4, 26400, Note_on_c, 0, 62, 95
4, 26400, Note_on_c, 0, 59, 95
4, 26640, Note_off_c, 0, 62, 80
4, 26640, Note_off_c, 0, 59, 80
4, 26670, Note_on_c, 1, 58, 95
4, 26670, Pitch_bend_c, 1, 8192
4, 26702, Pitch_bend_c, 1, 8320
4, 26734, Pitch_bend_c, 1, 8448
4, 26766, Pitch_bend_c, 1, 8576
4, 26798, Pitch_bend_c, 1, 8704
4, 26846, Pitch_bend_c, 1, 8832
4, 27060, Note_off_c, 1, 58, 80
4, 27060, Pitch_bend_c, 1, 8192
4, 27120, Note_on_c, 0, 57, 95
4, 27360, Note_off_c, 0, 57, 80
4, 27360, Note_on_c, 0, 57, 79
4, 28080, Note_off_c, 0, 57, 80
4, 28080, Note_on_c, 0, 52, 95
4, 28320, Note_off_c, 0, 52, 80
4, 28320, Note_on_c, 0, 55, 95
4, 28560, Note_off_c, 0, 55, 80
4, 28560, Note_on_c, 0, 52, 95
4, 28800, Note_off_c, 0, 52, 80
4, 28800, Note_on_c, 0, 57, 111
4, 30240, Note_off_c, 0, 57, 80
4, 30480, Note_on_c, 0, 59, 47
4, 32640, Note_off_c, 0, 59, 80
4, 32880, Note_on_c, 0, 60, 95
4, 32880, Note_on_c, 0, 57, 95
4, 33120, Note_off_c, 0, 60, 80
4, 33120, Note_off_c, 0, 57, 80
4, 33120, Note_on_c, 0, 60, 95
4, 33120, Note_on_c, 0, 57, 95
4, 33600, Note_off_c, 0, 60, 80
4, 33600, Note_off_c, 0, 57, 80
4, 33600, Note_on_c, 0, 60, 95
4, 33600, Note_on_c, 0, 57, 95
4, 33840, Note_off_c, 0, 60, 80
4, 33840, Note_off_c, 0, 57, 80
4, 33840, Note_on_c, 0, 60, 95
4, 33840, Note_on_c, 0, 57, 95
4, 34080, Note_off_c, 0, 60, 80
4, 34080, Note_off_c, 0, 57, 80
4, 34080, Note_on_c, 0, 62, 95
4, 34080, Note_on_c, 0, 59, 95
4, 34320, Note_off_c, 0, 62, 80
4, 34320, Note_off_c, 0, 59, 80
4, 34320, Note_on_c, 1, 58, 63
4, 34320, Pitch_bend_c, 1, 8192
4, 34352, Pitch_bend_c, 1, 8320
4, 34384, Pitch_bend_c, 1, 8448
4, 34432, Pitch_bend_c, 1, 8576
4, 34464, Pitch_bend_c, 1, 8704
4, 34512, Pitch_bend_c, 1, 8832
4, 34740, Note_off_c, 1, 58, 80
4, 34740, Pitch_bend_c, 1, 8192
4, 34800, Note_on_c, 0, 57, 95
4, 35040, Note_off_c, 0, 57, 80
4, 35040, Note_on_c, 0, 57, 79
4, 35760, Note_off_c, 0, 57, 80
4, 35760, Note_on_c, 0, 52, 95
4, 36000, Note_off_c, 0, 52, 80
4, 36000, Note_on_c, 0, 55, 95
4, 36240, Note_off_c, 0, 55, 80
4, 36240, Note_on_c, 0, 52, 95
4, 36480, Note_off_c, 0, 52, 80
4, 36480, Note_on_c, 0, 57, 111
4, 37920, Note_off_c, 0, 57, 80
4, 38160, Note_on_c, 0, 59, 47
4, 40320, Note_off_c, 0, 59, 80
4, 40320, Program_c, 0, 18
4, 40320, Program_c, 1, 18
4, 40320, Control_c, 0, 7, 72
4, 40320, Control_c, 1, 7, 72
4, 40320, Note_on_c, 0, 86, 127
4, 40320, Note_on_c, 0, 81, 127
4, 40320, Note_on_c, 0, 77, 111
4, 40320, Note_on_c, 0, 69, 111
4, 40320, Note_on_c, 0, 65, 111
4, 41700, Note_off_c, 0, 86, 80
4, 41700, Note_off_c, 0, 81, 80
4, 41700, Note_off_c, 0, 77, 80
4, 41700, Note_off_c, 0, 69, 80
4, 41700, Note_off_c, 0, 65, 80
4, 41760, Note_on_c, 0, 86, 127
4, 41760, Note_on_c, 0, 81, 127
4, 41760, Note_on_c, 0, 77, 111
4, 41760, Note_on_c, 0, 69, 111
4, 41760, Note_on_c, 0, 65, 111
4, 42120, Note_off_c, 0, 77, 80
4, 42120, Note_off_c, 0, 65, 80
4, 42180, Note_off_c, 0, 86, 80
4, 42180, Note_off_c, 0, 81, 80
4, 42180, Note_off_c, 0, 69, 80
4, 42240, Note_on_c, 0, 84, 127
4, 42240, Note_on_c, 0, 79, 127
4, 42240, Note_on_c, 0, 76, 111
4, 42240, Note_on_c, 0, 67, 111
4, 42240, Note_on_c, 0, 64, 111
4, 43920, Note_off_c, 0, 84, 80
4, 43920, Note_off_c, 0, 79, 80
4, 43920, Note_off_c, 0, 76, 80
4, 43920, Note_off_c, 0, 67, 80
4, 43920, Note_off_c, 0, 64, 80
4, 44160, Note_on_c, 0, 86, 127
4, 44160, Note_on_c, 0, 81, 127
4, 44160, Note_on_c, 0, 77, 111
4, 44160, Note_on_c, 0, 69, 111
4, 44160, Note_on_c, 0, 65, 111
4, 45540, Note_off_c, 0, 86, 80
4, 45540, Note_off_c, 0, 81, 80
4, 45540, Note_off_c, 0, 77, 80
4, 45540, Note_off_c, 0, 69, 80
4, 45540, Note_off_c, 0, 65, 80
4, 45600, Note_on_c, 0, 86, 127
4, 45600, Note_on_c, 0, 81, 127
4, 45600, Note_on_c, 0, 77, 111
4, 45600, Note_on_c, 0, 69, 111
4, 45600, Note_on_c, 0, 65, 111
4, 45960, Note_off_c, 0, 77, 80
4, 45960, Note_off_c, 0, 65, 80
4, 46020, Note_off_c, 0, 86, 80
4, 46020, Note_off_c, 0, 81, 80
4, 46020, Note_off_c, 0, 69, 80
4, 46080, Note_on_c, 0, 84, 127
4, 46080, Note_on_c, 0, 79, 127
4, 46080, Note_on_c, 0, 76, 111
4, 46080, Note_on_c, 0, 67, 111
4, 46080, Note_on_c, 0, 64, 111
4, 47760, Note_off_c, 0, 84, 80
4, 47760, Note_off_c, 0, 79, 80
4, 47760, Note_off_c, 0, 76, 80
4, 47760, Note_off_c, 0, 67, 80
4, 47760, Note_off_c, 0, 64, 80
4, 48000, Note_on_c, 0, 86, 127
4, 48000, Note_on_c, 0, 81, 127
4, 48000, Note_on_c, 0, 77, 111
4, 48000, Note_on_c, 0, 69, 111
4, 48000, Note_on_c, 0, 65, 111
4, 49380, Note_off_c, 0, 86, 80
4, 49380, Note_off_c, 0, 81, 80
4, 49380, Note_off_c, 0, 77, 80
4, 49380, Note_off_c, 0, 69, 80
4, 49380, Note_off_c, 0, 65, 80
4, 49440, Note_on_c, 0, 86, 127
4, 49440, Note_on_c, 0, 81, 127
4, 49440, Note_on_c, 0, 77, 111
4, 49440, Note_on_c, 0, 69, 111
4, 49440, Note_on_c, 0, 65, 111
4, 49800, Note_off_c, 0, 77, 80
4, 49800, Note_off_c, 0, 65, 80
4, 49860, Note_off_c, 0, 86, 80
4, 49860, Note_off_c, 0, 81, 80
4, 49860, Note_off_c, 0, 69, 80
4, 49920, Note_on_c, 0, 84, 127
4, 49920, Note_on_c, 0, 79, 127
4, 49920, Note_on_c, 0, 76, 111
4, 49920, Note_on_c, 0, 67, 111
4, 49920, Note_on_c, 0, 64, 111
4, 51600, Note_off_c, 0, 84, 80
4, 51600, Note_off_c, 0, 79, 80
4, 51600, Note_off_c, 0, 76, 80
4, 51600, Note_off_c, 0, 67, 80
4, 51600, Note_off_c, 0, 64, 80
4, 51840, Note_on_c, 0, 89, 111
4, 51840, Note_on_c, 0, 84, 111
4, 51840, Note_on_c, 0, 81, 95
4, 52560, Note_off_c, 0, 89, 80
4, 52560, Note_off_c, 0, 84, 80
4, 52560, Note_off_c, 0, 81, 80
4, 52800, Note_on_c, 0, 89, 111
4, 52800, Note_on_c, 0, 86, 111
4, 52800, Note_on_c, 0, 81, 95
4, 53520, Note_off_c, 0, 89, 80
4, 53520, Note_off_c, 0, 86, 80
4, 53520, Note_off_c, 0, 81, 80
4, 53760, Note_on_c, 0, 89, 111
4, 53760, Note_on_c, 0, 86, 111
4, 53760, Note_on_c, 0, 83, 95
4, 54480, Note_off_c, 0, 89, 80
4, 54480, Note_off_c, 0, 86, 80
4, 54480, Note_off_c, 0, 83, 80
4, 54720, Note_on_c, 0, 91, 111
4, 54720, Note_on_c, 0, 88, 111
4, 54720, Note_on_c, 0, 84, 95
4, 54960, Note_off_c, 0, 91, 80
4, 54960, Note_off_c, 0, 88, 80
4, 54960, Note_off_c, 0, 84, 80
4, 54960, Note_on_c, 0, 88, 111
4, 55200, Note_off_c, 0, 88, 80
4, 55200, Note_on_c, 0, 91, 111
4, 55200, Note_on_c, 0, 88, 111
4, 55200, Note_on_c, 0, 84, 95
4, 55440, Note_off_c, 0, 91, 80
4, 55440, Note_off_c, 0, 88, 80
4, 55440, Note_off_c, 0, 84, 80
4, 55440, Note_on_c, 0, 88, 111
4, 55680, Note_off_c, 0, 88, 80
4, 55680, Program_c, 0, 30
4, 55680, Program_c, 1, 30
4, 55920, Note_on_c, 0, 60, 111
4, 55920, Note_on_c, 0, 57, 111
4, 56160, Note_off_c, 0, 60, 80
4, 56160, Note_off_c, 0, 57, 80
4, 56160, Note_on_c, 0, 60, 111
4, 56160, Note_on_c, 0, 57, 111
4, 56640, Note_off_c, 0, 60, 80
4, 56640, Note_off_c, 0, 57, 80
4, 56640, Note_on_c, 0, 60, 111
4, 56640, Note_on_c, 0, 57, 111
4, 56880, Note_off_c, 0, 60, 80
4, 56880, Note_off_c, 0, 57, 80
4, 56880, Note_on_c, 0, 60, 111
4, 56880, Note_on_c, 0, 57, 111
4, 57120, Note_off_c, 0, 60, 80
4, 57120, Note_off_c, 0, 57, 80
4, 57120, Note_on_c, 0, 62, 111
4, 57120, Note_on_c, 0, 59, 111
4, 57360, Note_off_c, 0, 62, 80
4, 57360, Note_off_c, 0, 59, 80
4, 57360, Note_on_c, 1, 58, 111
4, 57360, Pitch_bend_c, 1, 8192
4, 57392, Pitch_bend_c, 1, 8320
4, 57424, Pitch_bend_c, 1, 8448
4, 57472, Pitch_bend_c, 1, 8576
4, 57504, Pitch_bend_c, 1, 8704
4, 57552, Pitch_bend_c, 1, 8832
4, 57780, Note_off_c, 1, 58, 80
4, 57780, Pitch_bend_c, 1, 8192
4, 57840, Note_on_c, 0, 57, 111
4, 58080, Note_off_c, 0, 57, 80
4, 58080, Note_on_c, 0, 57, 111
4, 58800, Note_off_c, 0, 57, 80
4, 58800, Note_on_c, 0, 52, 111
4, 59040, Note_off_c, 0, 52, 80
4, 59040, Note_on_c, 0, 55, 111
4, 59280, Note_off_c, 0, 55, 80
4, 59280, Note_on_c, 0, 52, 111
4, 59520, Note_off_c, 0, 52, 80
4, 59520, Note_on_c, 0, 57, 111
4, 60960, Note_off_c, 0, 57, 80
4, 61200, Note_on_c, 0, 59, 111
4, 63360, Note_off_c, 0, 59, 80
4, 63600, Note_on_c, 0, 60, 111
4, 63600, Note_on_c, 0, 57, 111
4, 63840, Note_off_c, 0, 60, 80
4, 63840, Note_off_c, 0, 57, 80
4, 63840, Note_on_c, 0, 60, 111
4, 63840, Note_on_c, 0, 57, 111
4, 64320, Note_off_c, 0, 60, 80
4, 64320, Note_off_c, 0, 57, 80
4, 64320, Note_on_c, 0, 60, 111
4, 64320, Note_on_c, 0, 57, 111
4, 64560, Note_off_c, 0, 60, 80
4, 64560, Note_off_c, 0, 57, 80
4, 64560, Note_on_c, 0, 60, 111
4, 64560, Note_on_c, 0, 57, 111
4, 64800, Note_off_c, 0, 60, 80
4, 64800, Note_off_c, 0, 57, 80
4, 64800, Note_on_c, 0, 62, 111
4, 64800, Note_on_c, 0, 59, 111
4, 65040, Note_off_c, 0, 62, 80
4, 65040, Note_off_c, 0, 59, 80
4, 65040, Note_on_c, 1, 58, 111
4, 65040, Pitch_bend_c, 1, 8192
4, 65072, Pitch_bend_c, 1, 8320
4, 65104, Pitch_bend_c, 1, 8448
4, 65152, Pitch_bend_c, 1, 8576
4, 65184, Pitch_bend_c, 1, 8704
4, 65232, Pitch_bend_c, 1, 8832
4, 65460, Note_off_c, 1, 58, 80
4, 65460, Pitch_bend_c, 1, 8192
4, 65520, Note_on_c, 0, 57, 111
4, 65760, Note_off_c, 0, 57, 80
4, 65760, Note_on_c, 0, 57, 111
4, 66480, Note_off_c, 0, 57, 80
4, 66480, Note_on_c, 0, 52, 111
4, 66720, Note_off_c, 0, 52, 80
4, 66720, Note_on_c, 0, 55, 111
4, 66960, Note_off_c, 0, 55, 80
4, 66960, Note_on_c, 0, 52, 111
4, 67200, Note_off_c, 0, 52, 80
4, 67200, Note_on_c, 0, 57, 111
4, 68640, Note_off_c, 0, 57, 80
4, 68880, Note_on_c, 0, 59, 111
4, 71040, Note_off_c, 0, 59, 80
4, 71280, Note_on_c, 0, 60, 111
4, 71280, Note_on_c, 0, 57, 111
4, 71520, Note_off_c, 0, 60, 80
4, 71520, Note_off_c, 0, 57, 80
4, 71520, Note_on_c, 0, 60, 111
4, 71520, Note_on_c, 0, 57, 111
4, 72000, Note_off_c, 0, 60, 80
4, 72000, Note_off_c, 0, 57, 80
4, 72000, Note_on_c, 0, 60, 111
4, 72000, Note_on_c, 0, 57, 111
4, 72240, Note_off_c, 0, 60, 80
4, 72240, Note_off_c, 0, 57, 80
4, 72240, Note_on_c, 0, 60, 111
4, 72240, Note_on_c, 0, 57, 111
4, 72480, Note_off_c, 0, 60, 80
4, 72480, Note_off_c, 0, 57, 80
4, 72480, Note_on_c, 0, 62, 111
4, 72480, Note_on_c, 0, 59, 111
4, 72720, Note_off_c, 0, 62, 80
4, 72720, Note_off_c, 0, 59, 80
4, 72720, Note_on_c, 1, 58, 111
4, 72720, Pitch_bend_c, 1, 8192
4, 72752, Pitch_bend_c, 1, 8320
4, 72784, Pitch_bend_c, 1, 8448
4, 72832, Pitch_bend_c, 1, 8576
4, 72864, Pitch_bend_c, 1, 8704
4, 72912, Pitch_bend_c, 1, 8832
4, 73140, Note_off_c, 1, 58, 80
4, 73140, Pitch_bend_c, 1, 8192
4, 73200, Note_on_c, 0, 57, 111
4, 73440, Note_off_c, 0, 57, 80
4, 73440, Note_on_c, 0, 57, 111
4, 74160, Note_off_c, 0, 57, 80
4, 74160, Note_on_c, 0, 52, 111
4, 74400, Note_off_c, 0, 52, 80
4, 74400, Note_on_c, 0, 55, 111
4, 74640, Note_off_c, 0, 55, 80
4, 74640, Note_on_c, 0, 52, 111
4, 74880, Note_off_c, 0, 52, 80
4, 74880, Note_on_c, 0, 57, 111
4, 76320, Note_off_c, 0, 57, 80
4, 76560, Note_on_c, 0, 59, 111
4, 78720, Note_off_c, 0, 59, 80
4, 78960, Note_on_c, 0, 60, 111
4, 78960, Note_on_c, 0, 57, 111
4, 79200, Note_off_c, 0, 60, 80
4, 79200, Note_off_c, 0, 57, 80
4, 79200, Note_on_c, 0, 60, 111
4, 79200, Note_on_c, 0, 57, 111
4, 79680, Note_off_c, 0, 60, 80
4, 79680, Note_off_c, 0, 57, 80
4, 79680, Note_on_c, 0, 60, 111
4, 79680, Note_on_c, 0, 57, 111
4, 79920, Note_off_c, 0, 60, 80
4, 79920, Note_off_c, 0, 57, 80
4, 79920, Note_on_c, 0, 60, 111
4, 79920, Note_on_c, 0, 57, 111
4, 80160, Note_off_c, 0, 60, 80
4, 80160, Note_off_c, 0, 57, 80
4, 80160, Note_on_c, 0, 62, 111
4, 80160, Note_on_c, 0, 59, 111
4, 80400, Note_off_c, 0, 62, 80
4, 80400, Note_off_c, 0, 59, 80
4, 80400, Note_on_c, 1, 58, 111
4, 80400, Pitch_bend_c, 1, 8192
4, 80432, Pitch_bend_c, 1, 8320
4, 80464, Pitch_bend_c, 1, 8448
4, 80512, Pitch_bend_c, 1, 8576
4, 80544, Pitch_bend_c, 1, 8704
4, 80592, Pitch_bend_c, 1, 8832
4, 80820, Note_off_c, 1, 58, 80
4, 80820, Pitch_bend_c, 1, 8192
4, 80880, Note_on_c, 0, 57, 111
4, 81120, Note_off_c, 0, 57, 80
4, 81120, Note_on_c, 0, 57, 111
4, 81840, Note_off_c, 0, 57, 80
4, 81840, Note_on_c, 0, 52, 111
4, 82080, Note_off_c, 0, 52, 80
4, 82080, Note_on_c, 0, 55, 111
4, 82320, Note_off_c, 0, 55, 80
4, 82320, Note_on_c, 0, 52, 111
4, 82560, Note_off_c, 0, 52, 80
4, 82560, Note_on_c, 0, 57, 111
4, 84000, Note_off_c, 0, 57, 80
4, 84240, Note_on_c, 0, 59, 111
4, 86400, Note_off_c, 0, 59, 80
4, 86400, Program_c, 0, 18
4, 86400, Program_c, 1, 18
4, 86400, Control_c, 0, 7, 72
4, 86400, Control_c, 1, 7, 72
4, 86400, Note_on_c, 0, 86, 127
4, 86400, Note_on_c, 0, 81, 127
4, 86400, Note_on_c, 0, 77, 111
4, 86400, Note_on_c, 0, 69, 111
4, 86400, Note_on_c, 0, 65, 111
4, 87780, Note_off_c, 0, 86, 80
4, 87780, Note_off_c, 0, 81, 80
4, 87780, Note_off_c, 0, 77, 80
4, 87780, Note_off_c, 0, 69, 80
4, 87780, Note_off_c, 0, 65, 80
4, 87840, Note_on_c, 0, 86, 127
4, 87840, Note_on_c, 0, 81, 127
4, 87840, Note_on_c, 0, 77, 111
4, 87840, Note_on_c, 0, 69, 111
4, 87840, Note_on_c, 0, 65, 111
4, 88200, Note_off_c, 0, 77, 80
4, 88200, Note_off_c, 0, 65, 80
4, 88260, Note_off_c, 0, 86, 80
4, 88260, Note_off_c, 0, 81, 80
4, 88260, Note_off_c, 0, 69, 80
4, 88320, Note_on_c, 0, 84, 127
4, 88320, Note_on_c, 0, 79, 127
4, 88320, Note_on_c, 0, 76, 111
4, 88320, Note_on_c, 0, 67, 111
4, 88320, Note_on_c, 0, 64, 111
4, 90000, Note_off_c, 0, 84, 80
4, 90000, Note_off_c, 0, 79, 80
4, 90000, Note_off_c, 0, 76, 80
4, 90000, Note_off_c, 0, 67, 80
4, 90000, Note_off_c, 0, 64, 80
4, 90240, Note_on_c, 0, 86, 127
4, 90240, Note_on_c, 0, 81, 127
4, 90240, Note_on_c, 0, 77, 111
4, 90240, Note_on_c, 0, 69, 111
4, 90240, Note_on_c, 0, 65, 111
4, 91620, Note_off_c, 0, 86, 80
4, 91620, Note_off_c, 0, 81, 80
4, 91620, Note_off_c, 0, 77, 80
4, 91620, Note_off_c, 0, 69, 80
4, 91620, Note_off_c, 0, 65, 80
4, 91680, Note_on_c, 0, 86, 127
4, 91680, Note_on_c, 0, 81, 127
4, 91680, Note_on_c, 0, 77, 111
4, 91680, Note_on_c, 0, 69, 111
4, 91680, Note_on_c, 0, 65, 111
4, 92040, Note_off_c, 0, 77, 80
4, 92040, Note_off_c, 0, 65, 80
4, 92100, Note_off_c, 0, 86, 80
4, 92100, Note_off_c, 0, 81, 80
4, 92100, Note_off_c, 0, 69, 80
4, 92160, Note_on_c, 0, 84, 127
4, 92160, Note_on_c, 0, 79, 127
4, 92160, Note_on_c, 0, 76, 111
4, 92160, Note_on_c, 0, 67, 111
4, 92160, Note_on_c, 0, 64, 111
4, 93840, Note_off_c, 0, 84, 80
4, 93840, Note_off_c, 0, 79, 80
4, 93840, Note_off_c, 0, 76, 80
4, 93840, Note_off_c, 0, 67, 80
4, 93840, Note_off_c, 0, 64, 80
4, 94080, Note_on_c, 0, 86, 127
4, 94080, Note_on_c, 0, 81, 127
4, 94080, Note_on_c, 0, 77, 111
4, 94080, Note_on_c, 0, 69, 111
4, 94080, Note_on_c, 0, 65, 111
4, 95460, Note_off_c, 0, 86, 80
4, 95460, Note_off_c, 0, 81, 80
4, 95460, Note_off_c, 0, 77, 80
4, 95460, Note_off_c, 0, 69, 80
4, 95460, Note_off_c, 0, 65, 80
4, 95520, Note_on_c, 0, 86, 127
4, 95520, Note_on_c, 0, 81, 127
4, 95520, Note_on_c, 0, 77, 111
4, 95520, Note_on_c, 0, 69, 111
4, 95520, Note_on_c, 0, 65, 111
4, 95880, Note_off_c, 0, 77, 80
4, 95880, Note_off_c, 0, 65, 80
4, 95940, Note_off_c, 0, 86, 80
4, 95940, Note_off_c, 0, 81, 80
4, 95940, Note_off_c, 0, 69, 80
4, 96000, Note_on_c, 0, 84, 127
4, 96000, Note_on_c, 0, 79, 127
4, 96000, Note_on_c, 0, 76, 111
4, 96000, Note_on_c, 0, 67, 111
4, 96000, Note_on_c, 0, 64, 111
4, 97680, Note_off_c, 0, 84, 80
4, 97680, Note_off_c, 0, 79, 80
4, 97680, Note_off_c, 0, 76, 80
4, 97680, Note_off_c, 0, 67, 80
4, 97680, Note_off_c, 0, 64, 80
4, 97920, Note_on_c, 0, 89, 127
4, 97920, Note_on_c, 0, 84, 127
4, 97920, Note_on_c, 0, 81, 111
4, 98640, Note_off_c, 0, 89, 80
4, 98640, Note_off_c, 0, 84, 80
4, 98640, Note_off_c, 0, 81, 80
4, 98880, Note_on_c, 0, 89, 127
4, 98880, Note_on_c, 0, 86, 127
4, 98880, Note_on_c, 0, 81, 111
4, 99600, Note_off_c, 0, 89, 80
4, 99600, Note_off_c, 0, 86, 80
4, 99600, Note_off_c, 0, 81, 80
4, 99840, Note_on_c, 0, 89, 127
4, 99840, Note_on_c, 0, 86, 127
4, 99840, Note_on_c, 0, 83, 111
4, 100560, Note_off_c, 0, 89, 80
4, 100560, Note_off_c, 0, 86, 80
4, 100560, Note_off_c, 0, 83, 80
4, 100800, Note_on_c, 0, 91, 127
4, 100800, Note_on_c, 0, 84, 127
4, 100800, Note_on_c, 0, 81, 111
4, 101040, Note_off_c, 0, 91, 80
4, 101040, Note_off_c, 0, 84, 80
4, 101040, Note_off_c, 0, 81, 80
4, 101040, Note_on_c, 0, 88, 127
4, 101280, Note_off_c, 0, 88, 80
4, 101280, Note_on_c, 0, 91, 127
4, 101280, Note_on_c, 0, 88, 127
4, 101280, Note_on_c, 0, 84, 111
4, 101520, Note_off_c, 0, 91, 80
4, 101520, Note_off_c, 0, 88, 80
4, 101520, Note_off_c, 0, 84, 80
4, 101520, Note_on_c, 0, 88, 127
4, 101760, Note_off_c, 0, 88, 80
4, 101760, Program_c, 0, 30
4, 101760, Program_c, 1, 30
4, 102000, Note_on_c, 0, 60, 111
4, 102000, Note_on_c, 0, 57, 111
4, 102240, Note_off_c, 0, 60, 80
4, 102240, Note_off_c, 0, 57, 80
4, 102240, Note_on_c, 0, 60, 111
4, 102240, Note_on_c, 0, 57, 111
4, 102720, Note_off_c, 0, 60, 80
4, 102720, Note_off_c, 0, 57, 80
4, 102720, Note_on_c, 0, 60, 111
4, 102720, Note_on_c, 0, 57, 111
4, 102960, Note_off_c, 0, 60, 80
4, 102960, Note_off_c, 0, 57, 80
4, 102960, Note_on_c, 0, 60, 111
4, 102960, Note_on_c, 0, 57, 111
4, 103200, Note_off_c, 0, 60, 80
4, 103200, Note_off_c, 0, 57, 80
4, 103200, Note_on_c, 0, 62, 111
4, 103200, Note_on_c, 0, 59, 111
4, 103440, Note_off_c, 0, 62, 80
4, 103440, Note_off_c, 0, 59, 80
4, 103440, Note_on_c, 1, 58, 111
4, 103440, Pitch_bend_c, 1, 8192
4, 103472, Pitch_bend_c, 1, 8320
4, 103504, Pitch_bend_c, 1, 8448
4, 103552, Pitch_bend_c, 1, 8576
4, 103584, Pitch_bend_c, 1, 8704
4, 103632, Pitch_bend_c, 1, 8832
4, 103860, Note_off_c, 1, 58, 80
4, 103860, Pitch_bend_c, 1, 8192
4, 103920, Note_on_c, 0, 57, 111
4, 104160, Note_off_c, 0, 57, 80
4, 104160, Note_on_c, 0, 57, 111
4, 104880, Note_off_c, 0, 57, 80
4, 104880, Note_on_c, 0, 52, 111
4, 105120, Note_off_c, 0, 52, 80
4, 105120, Note_on_c, 0, 55, 111
4, 105360, Note_off_c, 0, 55, 80
4, 105360, Note_on_c, 0, 52, 111
4, 105600, Note_off_c, 0, 52, 80
4, 105600, Note_on_c, 0, 57, 111
4, 107040, Note_off_c, 0, 57, 80
4, 107280, Note_on_c, 0, 59, 111
4, 109440, Note_off_c, 0, 59, 80
4, 109680, Note_on_c, 0, 60, 111
4, 109680, Note_on_c, 0, 57, 111
4, 109920, Note_off_c, 0, 60, 80
4, 109920, Note_off_c, 0, 57, 80
4, 109920, Note_on_c, 0, 60, 111
4, 109920, Note_on_c, 0, 57, 111
4, 110400, Note_off_c, 0, 60, 80
4, 110400, Note_off_c, 0, 57, 80
4, 110400, Note_on_c, 0, 60, 111
4, 110400, Note_on_c, 0, 57, 111
4, 110640, Note_off_c, 0, 60, 80
4, 110640, Note_off_c, 0, 57, 80
4, 110640, Note_on_c, 0, 60, 111
4, 110640, Note_on_c, 0, 57, 111
4, 110880, Note_off_c, 0, 60, 80
4, 110880, Note_off_c, 0, 57, 80
4, 110880, Note_on_c, 0, 62, 111
4, 110880, Note_on_c, 0, 59, 111
4, 111120, Note_off_c, 0, 62, 80
4, 111120, Note_off_c, 0, 59, 80
4, 111150, Note_on_c, 1, 58, 111
4, 111150, Pitch_bend_c, 1, 8192
4, 111182, Pitch_bend_c, 1, 8320
4, 111214, Pitch_bend_c, 1, 8448
4, 111246, Pitch_bend_c, 1, 8576
4, 111278, Pitch_bend_c, 1, 8704
4, 111326, Pitch_bend_c, 1, 8832
4, 111540, Note_off_c, 1, 58, 80
4, 111540, Pitch_bend_c, 1, 8192
4, 111600, Note_on_c, 0, 57, 111
4, 111840, Note_off_c, 0, 57, 80
4, 111840, Note_on_c, 0, 57, 111
4, 112560, Note_off_c, 0, 57, 80
4, 112560, Note_on_c, 0, 52, 111
4, 112800, Note_off_c, 0, 52, 80
4, 112800, Note_on_c, 0, 55, 111
4, 113040, Note_off_c, 0, 55, 80
4, 113040, Note_on_c, 0, 52, 111
4, 113280, Note_off_c, 0, 52, 80
4, 113280, Note_on_c, 0, 57, 111
4, 114720, Note_off_c, 0, 57, 80
4, 114960, Note_on_c, 0, 59, 111
4, 117120, Note_off_c, 0, 59, 80
4, 117360, Note_on_c, 0, 60, 111
4, 117360, Note_on_c, 0, 57, 111
4, 117600, Note_off_c, 0, 60, 80
4, 117600, Note_off_c, 0, 57, 80
4, 117600, Note_on_c, 0, 60, 111
4, 117600, Note_on_c, 0, 57, 111
4, 118080, Note_off_c, 0, 60, 80
4, 118080, Note_off_c, 0, 57, 80
4, 118080, Note_on_c, 0, 60, 111
4, 118080, Note_on_c, 0, 57, 111
4, 118320, Note_off_c, 0, 60, 80
4, 118320, Note_off_c, 0, 57, 80
4, 118320, Note_on_c, 0, 60, 111
4, 118320, Note_on_c, 0, 57, 111
4, 118560, Note_off_c, 0, 60, 80
4, 118560, Note_off_c, 0, 57, 80
4, 118560, Note_on_c, 0, 62, 111
4, 118560, Note_on_c, 0, 59, 111
4, 118800, Note_off_c, 0, 62, 80
4, 118800, Note_off_c, 0, 59, 80
4, 118830, Note_on_c, 1, 58, 111
4, 118830, Pitch_bend_c, 1, 8192
4, 118862, Pitch_bend_c, 1, 8320
4, 118894, Pitch_bend_c, 1, 8448
4, 118926, Pitch_bend_c, 1, 8576
4, 118958, Pitch_bend_c, 1, 8704
4, 119006, Pitch_bend_c, 1, 8832
4, 119220, Note_off_c, 1, 58, 80
4, 119220, Pitch_bend_c, 1, 8192
4, 119280, Note_on_c, 0, 57, 111
4, 119520, Note_off_c, 0, 57, 80
4, 119520, Note_on_c, 0, 57, 111
4, 120240, Note_off_c, 0, 57, 80
4, 120240, Note_on_c, 0, 52, 111
4, 120480, Note_off_c, 0, 52, 80
4, 120480, Note_on_c, 0, 55, 111
4, 120720, Note_off_c, 0, 55, 80
4, 120720, Note_on_c, 0, 52, 111
4, 120960, Note_off_c, 0, 52, 80
4, 120960, Note_on_c, 0, 57, 111
4, 122400, Note_off_c, 0, 57, 80
4, 122640, Note_on_c, 0, 59, 111
4, 124800, Note_off_c, 0, 59, 80
4, 125040, Note_on_c, 0, 60, 111
4, 125040, Note_on_c, 0, 57, 111
4, 125280, Note_off_c, 0, 60, 80
4, 125280, Note_off_c, 0, 57, 80
4, 125280, Note_on_c, 0, 60, 111
4, 125280, Note_on_c, 0, 57, 111
4, 125760, Note_off_c, 0, 60, 80
4, 125760, Note_off_c, 0, 57, 80
4, 125760, Note_on_c, 0, 60, 111
4, 125760, Note_on_c, 0, 57, 111
4, 126000, Note_off_c, 0, 60, 80
4, 126000, Note_off_c, 0, 57, 80
4, 126000, Note_on_c, 0, 60, 111
4, 126000, Note_on_c, 0, 57, 111
4, 126240, Note_off_c, 0, 60, 80
4, 126240, Note_off_c, 0, 57, 80
4, 126240, Note_on_c, 0, 62, 111
4, 126240, Note_on_c, 0, 59, 111
4, 126480, Note_off_c, 0, 62, 80
4, 126480, Note_off_c, 0, 59, 80
4, 126480, Note_on_c, 1, 58, 111
4, 126480, Pitch_bend_c, 1, 8192
4, 126512, Pitch_bend_c, 1, 8320
4, 126544, Pitch_bend_c, 1, 8448
4, 126592, Pitch_bend_c, 1, 8576
4, 126624, Pitch_bend_c, 1, 8704
4, 126672, Pitch_bend_c, 1, 8832
4, 126900, Note_off_c, 1, 58, 80
4, 126900, Pitch_bend_c, 1, 8192
4, 126960, Note_on_c, 0, 57, 111
4, 127200, Note_off_c, 0, 57, 80
4, 127200, Note_on_c, 0, 57, 111
4, 127920, Note_off_c, 0, 57, 80
4, 127920, Note_on_c, 0, 52, 111
4, 128160, Note_off_c, 0, 52, 80
4, 128160, Note_on_c, 0, 55, 111
4, 128400, Note_off_c, 0, 55, 80
4, 128400, Note_on_c, 0, 52, 111
4, 128640, Note_off_c, 0, 52, 80
4, 128640, Note_on_c, 0, 57, 111
4, 130080, Note_off_c, 0, 57, 80
4, 130320, Note_on_c, 0, 59, 111
4, 132480, Note_off_c, 0, 59, 80
4, 132720, Note_on_c, 0, 60, 111
4, 132720, Note_on_c, 0, 57, 111
4, 132960, Note_off_c, 0, 60, 80
4, 132960, Note_off_c, 0, 57, 80
4, 132960, Note_on_c, 0, 60, 111
4, 132960, Note_on_c, 0, 57, 111
4, 133440, Note_off_c, 0, 60, 80
4, 133440, Note_off_c, 0, 57, 80
4, 133440, Note_on_c, 0, 60, 111
4, 133440, Note_on_c, 0, 57, 111
4, 133680, Note_off_c, 0, 60, 80
4, 133680, Note_off_c, 0, 57, 80
4, 133680, Note_on_c, 0, 60, 111
4, 133680, Note_on_c, 0, 57, 111
4, 133920, Note_off_c, 0, 60, 80
4, 133920, Note_off_c, 0, 57, 80
4, 133920, Note_on_c, 0, 62, 111
4, 133920, Note_on_c, 0, 59, 111
4, 134160, Note_off_c, 0, 62, 80
4, 134160, Note_off_c, 0, 59, 80
4, 134160, Note_on_c, 1, 58, 111
4, 134160, Pitch_bend_c, 1, 8192
4, 134192, Pitch_bend_c, 1, 8320
4, 134224, Pitch_bend_c, 1, 8448
4, 134272, Pitch_bend_c, 1, 8576
4, 134304, Pitch_bend_c, 1, 8704
4, 134352, Pitch_bend_c, 1, 8832
4, 134580, Note_off_c, 1, 58, 80
4, 134580, Pitch_bend_c, 1, 8192
4, 134640, Note_on_c, 0, 57, 111
4, 134880, Note_off_c, 0, 57, 80
4, 134880, Note_on_c, 0, 57, 111
4, 135600, Note_off_c, 0, 57, 80
4, 135600, Note_on_c, 0, 52, 111
4, 135840, Note_off_c, 0, 52, 80
4, 135840, Note_on_c, 0, 55, 111
4, 136080, Note_off_c, 0, 55, 80
4, 136080, Note_on_c, 0, 52, 111
4, 136320, Note_off_c, 0, 52, 80
4, 136320, Note_on_c, 0, 57, 111
4, 137760, Note_off_c, 0, 57, 80
4, 138000, Note_on_c, 0, 59, 111
4, 140160, Note_off_c, 0, 59, 80
4, 140400, Note_on_c, 0, 60, 111
4, 140400, Note_on_c, 0, 57, 111
4, 140640, Note_off_c, 0, 60, 80
4, 140640, Note_off_c, 0, 57, 80
4, 140640, Note_on_c, 0, 60, 111
4, 140640, Note_on_c, 0, 57, 111
4, 141120, Note_off_c, 0, 60, 80
4, 141120, Note_off_c, 0, 57, 80
4, 141120, Note_on_c, 0, 60, 111
4, 141120, Note_on_c, 0, 57, 111
4, 141360, Note_off_c, 0, 60, 80
4, 141360, Note_off_c, 0, 57, 80
4, 141360, Note_on_c, 0, 60, 111
4, 141360, Note_on_c, 0, 57, 111
4, 141600, Note_off_c, 0, 60, 80
4, 141600, Note_off_c, 0, 57, 80
4, 141600, Note_on_c, 0, 62, 111
4, 141600, Note_on_c, 0, 59, 111
4, 141840, Note_off_c, 0, 62, 80
4, 141840, Note_off_c, 0, 59, 80
4, 141840, Note_on_c, 1, 58, 111
4, 141840, Pitch_bend_c, 1, 8192
4, 141872, Pitch_bend_c, 1, 8320
4, 141904, Pitch_bend_c, 1, 8448
4, 141952, Pitch_bend_c, 1, 8576
4, 141984, Pitch_bend_c, 1, 8704
4, 142032, Pitch_bend_c, 1, 8832
4, 142260, Note_off_c, 1, 58, 80
4, 142260, Pitch_bend_c, 1, 8192
4, 142320, Note_on_c, 0, 57, 111
4, 142560, Note_off_c, 0, 57, 80
4, 142560, Note_on_c, 0, 57, 111
4, 143280, Note_off_c, 0, 57, 80
4, 143280, Note_on_c, 0, 52, 111
4, 143520, Note_off_c, 0, 52, 80
4, 143520, Note_on_c, 0, 55, 111
4, 143760, Note_off_c, 0, 55, 80
4, 143760, Note_on_c, 0, 52, 111
4, 144000, Note_off_c, 0, 52, 80
4, 144240, Program_c, 0, 106
4, 144240, Program_c, 1, 106
4, 144240, Note_on_c, 0, 79, 127
4, 144240, Note_on_c, 0, 74, 127
4, 144480, Note_off_c, 0, 79, 80
4, 144480, Note_off_c, 0, 74, 80
4, 144720, Note_on_c, 0, 79, 127
4, 144720, Note_on_c, 0, 74, 127
4, 144960, Note_off_c, 0, 79, 80
4, 144960, Note_off_c, 0, 74, 80
4, 145200, Note_on_c, 0, 79, 127
4, 145200, Note_on_c, 0, 74, 127
4, 145440, Note_off_c, 0, 79, 80
4, 145440, Note_off_c, 0, 74, 80
4, 145440, Note_on_c, 0, 79, 127
4, 145440, Note_on_c, 0, 76, 127
4, 145680, Note_off_c, 0, 79, 80
4, 145680, Note_off_c, 0, 76, 80
4, 145680, Note_on_c, 0, 79, 127
4, 145680, Note_on_c, 0, 74, 127
4, 145920, Note_off_c, 0, 79, 80
4, 145920, Note_off_c, 0, 74, 80
4, 146160, Note_on_c, 0, 79, 127
4, 146160, Note_on_c, 0, 74, 127
4, 146400, Note_off_c, 0, 79, 80
4, 146400, Note_off_c, 0, 74, 80
4, 146640, Note_on_c, 0, 79, 127
4, 146640, Note_on_c, 0, 74, 127
4, 146880, Note_off_c, 0, 79, 80
4, 146880, Note_off_c, 0, 74, 80
4, 147120, Note_on_c, 0, 79, 127
4, 147120, Note_on_c, 0, 74, 127
4, 147360, Note_off_c, 0, 79, 80
4, 147360, Note_off_c, 0, 74, 80
4, 147360, Note_on_c, 0, 79, 127
4, 147360, Note_on_c, 0, 74, 127
4, 147600, Note_off_c, 0, 79, 80
4, 147600, Note_off_c, 0, 74, 80
4, 147600, Note_on_c, 0, 79, 127
4, 147600, Note_on_c, 0, 74, 127
4, 147840, Note_off_c, 0, 79, 80
4, 147840, Note_off_c, 0, 74, 80
4, 148080, Control_c, 0, 7, 71
4, 148080, Control_c, 1, 7, 71
4, 148080, Note_on_c, 0, 79, 127
4, 148080, Note_on_c, 0, 74, 127
4, 148200, Control_c, 0, 7, 70
4, 148200, Control_c, 1, 7, 70
4, 148320, Control_c, 0, 7, 68
4, 148320, Control_c, 1, 7, 68
4, 148320, Note_off_c, 0, 79, 80
4, 148320, Note_off_c, 0, 74, 80
4, 148320, Note_on_c, 0, 79, 127
4, 148320, Note_on_c, 0, 76, 127
4, 148440, Control_c, 0, 7, 67
4, 148440, Control_c, 1, 7, 67
4, 148560, Control_c, 0, 7, 66
4, 148560, Control_c, 1, 7, 66
4, 148560, Note_off_c, 0, 79, 80
4, 148560, Note_off_c, 0, 76, 80
4, 148560, Note_on_c, 0, 79, 127
4, 148560, Note_on_c, 0, 74, 127
4, 148680, Control_c, 0, 7, 65
4, 148680, Control_c, 1, 7, 65
4, 148800, Control_c, 0, 7, 64
4, 148800, Control_c, 1, 7, 64
4, 148800, Note_off_c, 0, 79, 80
4, 148800, Note_off_c, 0, 74, 80
4, 148920, Control_c, 0, 7, 63
4, 148920, Control_c, 1, 7, 63
4, 149040, Control_c, 0, 7, 61
4, 149040, Control_c, 1, 7, 61
4, 149040, Note_on_c, 0, 79, 127
4, 149040, Note_on_c, 0, 74, 127
4, 149160, Control_c, 0, 7, 60
4, 149160, Control_c, 1, 7, 60
4, 149280, Control_c, 0, 7, 59
4, 149280, Control_c, 1, 7, 59
4, 149280, Note_off_c, 0, 79, 80
4, 149280, Note_off_c, 0, 74, 80
4, 149280, Note_on_c, 0, 79, 127
4, 149280, Note_on_c, 0, 74, 127
4, 149400, Control_c, 0, 7, 58
4, 149400, Control_c, 1, 7, 58
4, 149520, Control_c, 0, 7, 57
4, 149520, Control_c, 1, 7, 57
4, 149520, Note_off_c, 0, 79, 80
4, 149520, Note_off_c, 0, 74, 80
4, 149520, Note_on_c, 0, 79, 127
4, 149520, Note_on_c, 0, 74, 127
4, 149640, Control_c, 0, 7, 55
4, 149640, Control_c, 1, 7, 55
4, 149760, Control_c, 0, 7, 54
4, 149760, Control_c, 1, 7, 54
4, 149760, Note_off_c, 0, 79, 80
4, 149760, Note_off_c, 0, 74, 80
4, 149880, Control_c, 0, 7, 53
4, 149880, Control_c, 1, 7, 53
4, 150000, Control_c, 0, 7, 52
4, 150000, Control_c, 1, 7, 52
4, 150000, Note_on_c, 0, 79, 127
4, 150000, Note_on_c, 0, 74, 127
4, 150120, Control_c, 0, 7, 51
4, 150120, Control_c, 1, 7, 51
4, 150240, Control_c, 0, 7, 50
4, 150240, Control_c, 1, 7, 50
4, 150240, Note_off_c, 0, 79, 80
4, 150240, Note_off_c, 0, 74, 80
4, 150240, Note_on_c, 0, 79, 127
4, 150240, Note_on_c, 0, 76, 127
4, 150360, Control_c, 0, 7, 48
4, 150360, Control_c, 1, 7, 48
4, 150480, Control_c, 0, 7, 47
4, 150480, Control_c, 1, 7, 47
4, 150480, Note_off_c, 0, 79, 80
4, 150480, Note_off_c, 0, 76, 80
4, 150480, Note_on_c, 0, 79, 127
4, 150480, Note_on_c, 0, 74, 127
4, 150600, Control_c, 0, 7, 46
4, 150600, Control_c, 1, 7, 46
4, 150720, Control_c, 0, 7, 45
4, 150720, Control_c, 1, 7, 45
4, 150720, Note_off_c, 0, 79, 80
4, 150720, Note_off_c, 0, 74, 80
4, 150840, Control_c, 0, 7, 44
4, 150840, Control_c, 1, 7, 44
4, 150960, Control_c, 0, 7, 42
4, 150960, Control_c, 1, 7, 42
4, 150960, Note_on_c, 0, 79, 127
4, 150960, Note_on_c, 0, 74, 127
4, 151080, Control_c, 0, 7, 41
4, 151080, Control_c, 1, 7, 41
4, 151200, Control_c, 0, 7, 40
4, 151200, Control_c, 1, 7, 40
4, 151200, Note_off_c, 0, 79, 80
4, 151200, Note_off_c, 0, 74, 80
4, 151200, Note_on_c, 0, 79, 127
4, 151200, Note_on_c, 0, 74, 127
4, 151320, Control_c, 0, 7, 39
4, 151320, Control_c, 1, 7, 39
4, 151440, Control_c, 0, 7, 38
4, 151440, Control_c, 1, 7, 38
4, 151440, Note_off_c, 0, 79, 80
4, 151440, Note_off_c, 0, 74, 80
4, 151440, Note_on_c, 0, 79, 127
4, 151440, Note_on_c, 0, 74, 127
4, 151560, Control_c, 0, 7, 37
4, 151560, Control_c, 1, 7, 37
4, 151680, Control_c, 0, 7, 35
4, 151680, Control_c, 1, 7, 35
4, 151680, Note_off_c, 0, 79, 80
4, 151680, Note_off_c, 0, 74, 80
4, 151800, Control_c, 0, 7, 34
4, 151800, Control_c, 1, 7, 34
4, 151920, Control_c, 0, 7, 33
4, 151920, Control_c, 1, 7, 33
4, 151920, Note_on_c, 0, 79, 127
4, 151920, Note_on_c, 0, 74, 127
4, 152040, Control_c, 0, 7, 32
4, 152040, Control_c, 1, 7, 32
4, 152160, Control_c, 0, 7, 31
4, 152160, Control_c, 1, 7, 31
4, 152160, Note_off_c, 0, 79, 80
4, 152160, Note_off_c, 0, 74, 80
4, 152160, Note_on_c, 0, 79, 127
4, 152160, Note_on_c, 0, 76, 127
4, 152280, Control_c, 0, 7, 30
4, 152280, Control_c, 1, 7, 30
4, 152400, Control_c, 0, 7, 28
4, 152400, Control_c, 1, 7, 28
4, 152400, Note_off_c, 0, 79, 80
4, 152400, Note_off_c, 0, 76, 80
4, 152400, Note_on_c, 0, 79, 127
4, 152400, Note_on_c, 0, 74, 127
4, 152520, Control_c, 0, 7, 27
4, 152520, Control_c, 1, 7, 27
4, 152640, Control_c, 0, 7, 26
4, 152640, Control_c, 1, 7, 26
4, 152640, Note_off_c, 0, 79, 80
4, 152640, Note_off_c, 0, 74, 80
4, 152760, Control_c, 0, 7, 25
4, 152760, Control_c, 1, 7, 25
4, 152880, Control_c, 0, 7, 24
4, 152880, Control_c, 1, 7, 24
4, 152880, Note_on_c, 0, 79, 127
4, 152880, Note_on_c, 0, 74, 127
4, 153000, Control_c, 0, 7, 22
4, 153000, Control_c, 1, 7, 22
4, 153120, Control_c, 0, 7, 21
4, 153120, Control_c, 1, 7, 21
4, 153120, Note_off_c, 0, 79, 80
4, 153120, Note_off_c, 0, 74, 80
4, 153120, Note_on_c, 0, 79, 127
4, 153120, Note_on_c, 0, 76, 127
4, 153240, Control_c, 0, 7, 20
4, 153240, Control_c, 1, 7, 20
4, 153360, Control_c, 0, 7, 19
4, 153360, Control_c, 1, 7, 19
4, 153360, Note_off_c, 0, 79, 80
4, 153360, Note_off_c, 0, 76, 80
4, 153360, Note_on_c, 0, 79, 127
4, 153360, Note_on_c, 0, 74, 127
4, 153480, Control_c, 0, 7, 18
4, 153480, Control_c, 1, 7, 18
4, 153600, Control_c, 0, 7, 17
4, 153600, Control_c, 1, 7, 17
4, 153600, Note_off_c, 0, 79, 80
4, 153600, Note_off_c, 0, 74, 80
4, 153720, Control_c, 0, 7, 15
4, 153720, Control_c, 1, 7, 15
4, 153840, Control_c, 0, 7, 14
4, 153840, Control_c, 1, 7, 14
4, 153840, Note_on_c, 0, 79, 127
4, 153840, Note_on_c, 0, 74, 127
4, 153960, Control_c, 0, 7, 13
4, 153960, Control_c, 1, 7, 13
4, 154080, Control_c, 0, 7, 12
4, 154080, Control_c, 1, 7, 12
4, 154080, Note_off_c, 0, 79, 80
4, 154080, Note_off_c, 0, 74, 80
4, 154200, Control_c, 0, 7, 11
4, 154200, Control_c, 1, 7, 11
4, 154320, Control_c, 0, 7, 9
4, 154320, Control_c, 1, 7, 9
4, 154320, Note_on_c, 0, 79, 127
4, 154320, Note_on_c, 0, 74, 127
4, 154440, Control_c, 0, 7, 8
4, 154440, Control_c, 1, 7, 8
4, 154560, Control_c, 0, 7, 7
4, 154560, Control_c, 1, 7, 7
4, 154560, Note_off_c, 0, 79, 80
4, 154560, Note_off_c, 0, 74, 80
4, 154680, Control_c, 0, 7, 6
4, 154680, Control_c, 1, 7, 6
4, 154800, Control_c, 0, 7, 5
4, 154800, Control_c, 1, 7, 5
4, 154800, Note_on_c, 0, 79, 127
4, 154800, Note_on_c, 0, 74, 127
4, 154920, Control_c, 0, 7, 4
4, 154920, Control_c, 1, 7, 4
4, 155040, Control_c, 0, 7, 2
4, 155040, Control_c, 1, 7, 2
4, 155040, Note_off_c, 0, 79, 80
4, 155040, Note_off_c, 0, 74, 80
4, 155040, Note_on_c, 0, 79, 127
4, 155040, Note_on_c, 0, 76, 127
4, 155160, Control_c, 0, 7, 1
4, 155160, Control_c, 1, 7, 1
4, 155280, Control_c, 0, 7, 0
4, 155280, Control_c, 1, 7, 0
4, 155280, Note_off_c, 0, 79, 80
4, 155280, Note_off_c, 0, 76, 80
4, 155280, Note_on_c, 0, 79, 127
4, 155280, Note_on_c, 0, 74, 127
4, 155520, Note_off_c, 0, 79, 80
4, 155520, Note_off_c, 0, 74, 80
4, 155520, End_track
5, 0, Start_track
5, 0, Title_t, "Track 3"
5, 0, Control_c, 4, 100, 0
5, 0, Control_c, 4, 101, 0
5, 0, Control_c, 4, 6, 12
5, 0, Pitch_bend_c, 4, 8192
5, 0, Control_c, 5, 100, 0
5, 0, Control_c, 5, 101, 0
5, 0, Control_c, 5, 6, 12
5, 0, Pitch_bend_c, 5, 8192
5, 0, Program_c, 4, 29
5, 0, Program_c, 5, 29
5, 0, Control_c, 4, 7, 96
5, 0, Control_c, 5, 7, 96
5, 0, Control_c, 4, 10, 56
5, 0, Control_c, 5, 10, 56
5, 0, Control_c, 4, 93, 40
5, 0, Control_c, 5, 93, 40
5, 0, Control_c, 4, 91, 127
5, 0, Control_c, 5, 91, 127
5, 0, Control_c, 4, 92, 0
5, 0, Control_c, 5, 92, 0
5, 0, Control_c, 4, 95, 72
5, 0, Control_c, 5, 95, 72
5, 1160, Note_on_c, 5, 50, 95
5, 1160, Pitch_bend_c, 5, 6144
5, 1200, Pitch_bend_c, 5, 6784
5, 1240, Pitch_bend_c, 5, 7552
5, 1280, Pitch_bend_c, 5, 8192
5, 1440, Note_off_c, 5, 50, 80
5, 1440, Note_on_c, 4, 53, 95
5, 1680, Note_off_c, 4, 53, 80
5, 1680, Note_on_c, 4, 54, 95
5, 1920, Note_off_c, 4, 54, 80
5, 1920, Note_on_c, 5, 55, 63
5, 2000, Pitch_bend_c, 5, 8192
5, 2080, Pitch_bend_c, 5, 8448
5, 2160, Pitch_bend_c, 5, 8192
5, 2240, Pitch_bend_c, 5, 8448
5, 2320, Pitch_bend_c, 5, 8192
5, 2400, Pitch_bend_c, 5, 8448
5, 2480, Pitch_bend_c, 5, 8192
5, 2560, Pitch_bend_c, 5, 8448
5, 2640, Pitch_bend_c, 5, 8192
5, 2720, Pitch_bend_c, 5, 8448
5, 2800, Pitch_bend_c, 5, 8192
5, 2880, Pitch_bend_c, 5, 8448
5, 2960, Pitch_bend_c, 5, 8192
5, 3040, Pitch_bend_c, 5, 8448
5, 3120, Pitch_bend_c, 5, 8192
5, 3200, Pitch_bend_c, 5, 8448
5, 3280, Pitch_bend_c, 5, 8192
5, 3360, Pitch_bend_c, 5, 8448
5, 3440, Pitch_bend_c, 5, 8192
5, 3520, Pitch_bend_c, 5, 8448
5, 3600, Pitch_bend_c, 5, 8192
5, 3680, Pitch_bend_c, 5, 8448
5, 3760, Pitch_bend_c, 5, 8192
5, 3840, Pitch_bend_c, 5, 8448
5, 3920, Pitch_bend_c, 5, 8192
5, 4000, Pitch_bend_c, 5, 8448
5, 4080, Pitch_bend_c, 5, 8192
5, 4160, Pitch_bend_c, 5, 8448
5, 4240, Pitch_bend_c, 5, 8192
5, 4320, Pitch_bend_c, 5, 8448
5, 4400, Pitch_bend_c, 5, 8192
5, 4480, Pitch_bend_c, 5, 8448
5, 4560, Pitch_bend_c, 5, 8192
5, 4640, Pitch_bend_c, 5, 8448
5, 4720, Pitch_bend_c, 5, 8192
5, 4800, Pitch_bend_c, 5, 8448
5, 4880, Pitch_bend_c, 5, 8192
5, 4960, Pitch_bend_c, 5, 8448
5, 5040, Pitch_bend_c, 5, 8192
5, 5120, Pitch_bend_c, 5, 8448
5, 5200, Pitch_bend_c, 5, 8192
5, 5280, Pitch_bend_c, 5, 8448
5, 5360, Pitch_bend_c, 5, 8192
5, 5440, Pitch_bend_c, 5, 8448
5, 5520, Pitch_bend_c, 5, 8192
5, 5600, Pitch_bend_c, 5, 8448
5, 5680, Pitch_bend_c, 5, 8192
5, 5760, Pitch_bend_c, 5, 8448
5, 5840, Pitch_bend_c, 5, 8192
5, 5920, Pitch_bend_c, 5, 8448
5, 6000, Pitch_bend_c, 5, 8192
5, 6080, Pitch_bend_c, 5, 8448
5, 6160, Pitch_bend_c, 5, 8192
5, 6240, Pitch_bend_c, 5, 8448
5, 6320, Pitch_bend_c, 5, 8192
5, 6400, Pitch_bend_c, 5, 8448
5, 6480, Pitch_bend_c, 5, 8192
5, 6560, Pitch_bend_c, 5, 8448
5, 6640, Pitch_bend_c, 5, 8192
5, 6720, Pitch_bend_c, 5, 8448
5, 6800, Pitch_bend_c, 5, 8192
5, 6880, Pitch_bend_c, 5, 8448
5, 6960, Pitch_bend_c, 5, 8192
5, 7040, Pitch_bend_c, 5, 8448
5, 7120, Pitch_bend_c, 5, 8192
5, 7200, Pitch_bend_c, 5, 8448
5, 7280, Pitch_bend_c, 5, 8192
5, 7360, Pitch_bend_c, 5, 8448
5, 7440, Pitch_bend_c, 5, 8192
5, 7520, Pitch_bend_c, 5, 8448
5, 7600, Pitch_bend_c, 5, 8192
5, 7680, Pitch_bend_c, 5, 8448
5, 7760, Pitch_bend_c, 5, 8192
5, 7840, Pitch_bend_c, 5, 8448
5, 7920, Pitch_bend_c, 5, 8192
5, 8000, Pitch_bend_c, 5, 8448
5, 8080, Pitch_bend_c, 5, 8192
5, 8160, Pitch_bend_c, 5, 8448
5, 8240, Pitch_bend_c, 5, 8192
5, 8320, Pitch_bend_c, 5, 8448
5, 8400, Pitch_bend_c, 5, 8192
5, 8480, Pitch_bend_c, 5, 8448
5, 8560, Pitch_bend_c, 5, 8192
5, 8640, Pitch_bend_c, 5, 8448
5, 8720, Pitch_bend_c, 5, 8192
5, 8800, Pitch_bend_c, 5, 8448
5, 8880, Pitch_bend_c, 5, 8192
5, 8960, Pitch_bend_c, 5, 8448
5, 9040, Pitch_bend_c, 5, 8192
5, 9120, Pitch_bend_c, 5, 8448
5, 9200, Pitch_bend_c, 5, 8192
5, 9280, Pitch_bend_c, 5, 8448
5, 9360, Pitch_bend_c, 5, 8192
5, 9440, Pitch_bend_c, 5, 8448
5, 9520, Pitch_bend_c, 5, 8192
5, 9600, Note_off_c, 5, 55, 80
5, 9600, Pitch_bend_c, 5, 8448
5, 9600, Pitch_bend_c, 5, 8192
5, 9600, Note_on_c, 4, 57, 95
5, 11220, Note_off_c, 4, 57, 80
5, 11220, Note_on_c, 4, 55, 111
5, 11640, Note_off_c, 4, 55, 80
5, 11760, Note_on_c, 4, 53, 95
5, 11880, Note_off_c, 4, 53, 80
5, 12000, Note_on_c, 4, 53, 95
5, 13440, Note_off_c, 4, 53, 80
5, 13440, Note_on_c, 4, 48, 95
5, 15120, Note_off_c, 4, 48, 80
5, 15120, Note_on_c, 4, 59, 95
5, 17280, Note_off_c, 4, 59, 80
5, 17280, Note_on_c, 4, 57, 95
5, 18900, Note_off_c, 4, 57, 80
5, 18900, Note_on_c, 5, 55, 95
5, 18900, Pitch_bend_c, 5, 8192
5, 18948, Pitch_bend_c, 5, 8320
5, 19028, Pitch_bend_c, 5, 8448
5, 19108, Pitch_bend_c, 5, 8576
5, 19124, Pitch_bend_c, 5, 8448
5, 19172, Pitch_bend_c, 5, 8320
5, 19236, Pitch_bend_c, 5, 8192
5, 19320, Note_off_c, 5, 55, 80
5, 19320, Pitch_bend_c, 5, 8192
5, 19440, Note_on_c, 4, 53, 95
5, 19560, Note_off_c, 4, 53, 80
5, 19680, Note_on_c, 4, 53, 79
5, 21120, Note_off_c, 4, 53, 80
5, 21120, Note_on_c, 4, 48, 95
5, 22800, Note_off_c, 4, 48, 80
5, 22800, Note_on_c, 4, 59, 95
5, 24960, Note_off_c, 4, 59, 80
5, 24960, Note_on_c, 4, 57, 95
5, 26580, Note_off_c, 4, 57, 80
5, 26580, Note_on_c, 5, 55, 95
5, 26580, Pitch_bend_c, 5, 8192
5, 26628, Pitch_bend_c, 5, 8320
5, 26708, Pitch_bend_c, 5, 8448
5, 26788, Pitch_bend_c, 5, 8576
5, 26804, Pitch_bend_c, 5, 8448
5, 26852, Pitch_bend_c, 5, 8320
5, 26916, Pitch_bend_c, 5, 8192
5, 27000, Note_off_c, 5, 55, 80
5, 27000, Pitch_bend_c, 5, 8192
5, 27120, Note_on_c, 4, 53, 95
5, 27240, Note_off_c, 4, 53, 80
5, 27360, Note_on_c, 4, 53, 95
5, 28800, Note_off_c, 4, 53, 80
5, 28800, Note_on_c, 4, 48, 79
5, 30480, Note_off_c, 4, 48, 80
5, 30480, Note_on_c, 4, 59, 95
5, 32640, Note_off_c, 4, 59, 80
5, 32640, Note_on_c, 4, 57, 95
5, 34260, Note_off_c, 4, 57, 80
5, 34260, Note_on_c, 5, 55, 95
5, 34260, Pitch_bend_c, 5, 8192
5, 34308, Pitch_bend_c, 5, 8320
5, 34388, Pitch_bend_c, 5, 8448
5, 34468, Pitch_bend_c, 5, 8576
5, 34484, Pitch_bend_c, 5, 8448
5, 34532, Pitch_bend_c, 5, 8320
5, 34596, Pitch_bend_c, 5, 8192
5, 34680, Note_off_c, 5, 55, 80
5, 34680, Pitch_bend_c, 5, 8192
5, 34800, Note_on_c, 4, 53, 95
5, 34920, Note_off_c, 4, 53, 80
5, 35040, Note_on_c, 4, 53, 95
5, 36480, Note_off_c, 4, 53, 80
5, 36480, Note_on_c, 4, 48, 95
5, 38160, Note_off_c, 4, 48, 80
5, 38160, Note_on_c, 4, 59, 95
5, 40320, Note_off_c, 4, 59, 80
5, 40320, Note_on_c, 4, 48, 79
5, 40360, Note_on_c, 4, 53, 79
5, 40800, Note_off_c, 4, 48, 80
5, 40800, Note_off_c, 4, 53, 80
5, 42240, Note_on_c, 4, 48, 63
5, 42260, Note_on_c, 4, 52, 79
5, 42720, Note_off_c, 4, 48, 80
5, 42720, Note_off_c, 4, 52, 80
5, 44160, Note_on_c, 4, 48, 63
5, 44200, Note_on_c, 4, 53, 79
5, 44640, Note_off_c, 4, 48, 80
5, 44640, Note_off_c, 4, 53, 80
5, 46080, Note_on_c, 4, 48, 63
5, 46100, Note_on_c, 4, 52, 79
5, 46560, Note_off_c, 4, 48, 80
5, 46560, Note_off_c, 4, 52, 80
5, 48000, Note_on_c, 4, 48, 63
5, 48040, Note_on_c, 4, 53, 79
5, 48480, Note_off_c, 4, 48, 80
5, 48480, Note_off_c, 4, 53, 80
5, 49920, Note_on_c, 4, 48, 63
5, 49940, Note_on_c, 4, 52, 79
5, 50400, Note_off_c, 4, 48, 80
5, 50400, Note_off_c, 4, 52, 80
5, 55680, Note_on_c, 4, 57, 95
5, 57300, Note_off_c, 4, 57, 80
5, 57300, Note_on_c, 5, 55, 95
5, 57300, Pitch_bend_c, 5, 8192
5, 57348, Pitch_bend_c, 5, 8320
5, 57428, Pitch_bend_c, 5, 8448
5, 57508, Pitch_bend_c, 5, 8576
5, 57524, Pitch_bend_c, 5, 8448
5, 57572, Pitch_bend_c, 5, 8320
5, 57636, Pitch_bend_c, 5, 8192
5, 57720, Note_off_c, 5, 55, 80
5, 57720, Pitch_bend_c, 5, 8192
5, 57840, Note_on_c, 4, 53, 95
5, 57960, Note_off_c, 4, 53, 80
5, 58080, Note_on_c, 4, 53, 79
5, 59400, Note_on_c, 5, 57, 95
5, 59400, Pitch_bend_c, 5, 6144
5, 59440, Pitch_bend_c, 5, 6784
5, 59480, Pitch_bend_c, 5, 7552
5, 59520, Note_off_c, 4, 53, 80
5, 59520, Pitch_bend_c, 5, 8192
5, 60960, Note_off_c, 5, 57, 80
5, 60960, Note_on_c, 4, 57, 95
5, 61200, Note_off_c, 4, 57, 80
5, 61200, Note_on_c, 4, 55, 95
5, 63360, Note_off_c, 4, 55, 80
5, 63360, Note_on_c, 4, 57, 95
5, 64980, Note_off_c, 4, 57, 80
5, 64980, Note_on_c, 5, 55, 111
5, 64980, Pitch_bend_c, 5, 8192
5, 65028, Pitch_bend_c, 5, 8320
5, 65108, Pitch_bend_c, 5, 8448
5, 65188, Pitch_bend_c, 5, 8576
5, 65204, Pitch_bend_c, 5, 8448
5, 65252, Pitch_bend_c, 5, 8320
5, 65316, Pitch_bend_c, 5, 8192
5, 65400, Note_off_c, 5, 55, 80
5, 65400, Pitch_bend_c, 5, 8192
5, 65520, Note_on_c, 4, 53, 95
5, 65640, Note_off_c, 4, 53, 80
5, 65760, Note_on_c, 4, 53, 95
5, 67080, Note_on_c, 5, 57, 95
5, 67080, Pitch_bend_c, 5, 6144
5, 67120, Pitch_bend_c, 5, 6784
5, 67160, Pitch_bend_c, 5, 7552
5, 67200, Note_off_c, 4, 53, 80
5, 67200, Pitch_bend_c, 5, 8192
5, 68640, Note_off_c, 5, 57, 80
5, 68640, Note_on_c, 4, 57, 95
5, 68880, Note_off_c, 4, 57, 80
5, 68880, Note_on_c, 4, 55, 95
5, 71040, Note_off_c, 4, 55, 80
5, 71040, Note_on_c, 4, 57, 95
5, 72660, Note_off_c, 4, 57, 80
5, 72660, Note_on_c, 5, 55, 95
5, 72660, Pitch_bend_c, 5, 8192
5, 72708, Pitch_bend_c, 5, 8320
5, 72788, Pitch_bend_c, 5, 8448
5, 72868, Pitch_bend_c, 5, 8576
5, 72884, Pitch_bend_c, 5, 8448
5, 72932, Pitch_bend_c, 5, 8320
5, 72996, Pitch_bend_c, 5, 8192
5, 73080, Note_off_c, 5, 55, 80
5, 73080, Pitch_bend_c, 5, 8192
5, 73200, Note_on_c, 4, 53, 95
5, 73320, Note_off_c, 4, 53, 80
5, 73440, Note_on_c, 4, 53, 79
5, 74760, Note_on_c, 5, 57, 95
5, 74760, Pitch_bend_c, 5, 6144
5, 74800, Pitch_bend_c, 5, 6784
5, 74840, Pitch_bend_c, 5, 7552
5, 74880, Note_off_c, 4, 53, 80
5, 74880, Pitch_bend_c, 5, 8192
5, 76320, Note_off_c, 5, 57, 80
5, 76320, Note_on_c, 4, 57, 95
5, 76560, Note_off_c, 4, 57, 80
5, 76560, Note_on_c, 4, 55, 95
5, 78720, Note_off_c, 4, 55, 80
5, 78720, Note_on_c, 4, 57, 95
5, 80340, Note_off_c, 4, 57, 80
5, 80340, Note_on_c, 5, 55, 111
5, 80340, Pitch_bend_c, 5, 8192
5, 80388, Pitch_bend_c, 5, 8320
5, 80468, Pitch_bend_c, 5, 8448
5, 80548, Pitch_bend_c, 5, 8576
5, 80564, Pitch_bend_c, 5, 8448
5, 80612, Pitch_bend_c, 5, 8320
5, 80676, Pitch_bend_c, 5, 8192
5, 80760, Note_off_c, 5, 55, 80
5, 80760, Pitch_bend_c, 5, 8192
5, 80880, Note_on_c, 4, 53, 95
5, 81000, Note_off_c, 4, 53, 80
5, 81120, Note_on_c, 4, 53, 95
5, 82440, Note_on_c, 5, 57, 95
5, 82440, Pitch_bend_c, 5, 6144
5, 82480, Pitch_bend_c, 5, 6784
5, 82520, Pitch_bend_c, 5, 7552
5, 82560, Note_off_c, 4, 53, 80
5, 82560, Pitch_bend_c, 5, 8192
5, 84000, Note_off_c, 5, 57, 80
5, 84000, Note_on_c, 4, 57, 95
5, 84240, Note_off_c, 4, 57, 80
5, 84240, Note_on_c, 4, 55, 95
5, 86400, Note_off_c, 4, 55, 80
5, 86400, Note_on_c, 4, 48, 79
5, 86440, Note_on_c, 4, 53, 47
5, 86880, Note_off_c, 4, 48, 80
5, 86880, Note_off_c, 4, 53, 80
5, 88320, Note_on_c, 4, 48, 79
5, 88340, Note_on_c, 4, 52, 47
5, 88800, Note_off_c, 4, 48, 80
5, 88800, Note_off_c, 4, 52, 80
5, 90240, Note_on_c, 4, 48, 79
5, 90280, Note_on_c, 4, 53, 47
5, 90720, Note_off_c, 4, 48, 80
5, 90720, Note_off_c, 4, 53, 80
5, 92160, Note_on_c, 4, 48, 79
5, 92180, Note_on_c, 4, 52, 47
5, 92640, Note_off_c, 4, 48, 80
5, 92640, Note_off_c, 4, 52, 80
5, 94080, Note_on_c, 4, 48, 79
5, 94120, Note_on_c, 4, 53, 47
5, 94560, Note_off_c, 4, 48, 80
5, 94560, Note_off_c, 4, 53, 80
5, 96000, Note_on_c, 4, 48, 79
5, 96020, Note_on_c, 4, 52, 47
5, 96480, Note_off_c, 4, 48, 80
5, 96480, Note_off_c, 4, 52, 80
5, 101640, Note_on_c, 5, 57, 111
5, 101640, Pitch_bend_c, 5, 6144
5, 101680, Pitch_bend_c, 5, 6784
5, 101720, Pitch_bend_c, 5, 7552
5, 101760, Pitch_bend_c, 5, 8192
5, 101840, Pitch_bend_c, 5, 8192
5, 101920, Pitch_bend_c, 5, 8448
5, 102000, Pitch_bend_c, 5, 8192
5, 102080, Pitch_bend_c, 5, 8448
5, 102160, Pitch_bend_c, 5, 8192
5, 102240, Pitch_bend_c, 5, 8448
5, 102320, Pitch_bend_c, 5, 8192
5, 102400, Pitch_bend_c, 5, 8448
5, 102480, Pitch_bend_c, 5, 8192
5, 102560, Pitch_bend_c, 5, 8448
5, 102640, Pitch_bend_c, 5, 8192
5, 102720, Pitch_bend_c, 5, 8448
5, 102800, Pitch_bend_c, 5, 8192
5, 102880, Pitch_bend_c, 5, 8448
5, 102960, Pitch_bend_c, 5, 8192
5, 103040, Pitch_bend_c, 5, 8448
5, 103120, Pitch_bend_c, 5, 8192
5, 103200, Pitch_bend_c, 5, 8448
5, 103200, Note_on_c, 4, 57, 111
5, 103280, Pitch_bend_c, 5, 8192
5, 103360, Pitch_bend_c, 5, 8448
5, 103440, Note_off_c, 5, 57, 80
5, 103440, Pitch_bend_c, 5, 8192
5, 103440, Pitch_bend_c, 5, 8192
5, 103440, Note_off_c, 4, 57, 80
5, 103440, Note_on_c, 5, 57, 111
5, 103440, Pitch_bend_c, 5, 8192
5, 103488, Pitch_bend_c, 5, 8320
5, 103584, Pitch_bend_c, 5, 8448
5, 103680, Pitch_bend_c, 5, 8576
5, 103920, Note_off_c, 5, 57, 80
5, 103920, Pitch_bend_c, 5, 8192
5, 103920, Note_on_c, 5, 55, 111
5, 104000, Pitch_bend_c, 5, 8192
5, 104080, Pitch_bend_c, 5, 8448
5, 104160, Pitch_bend_c, 5, 8192
5, 104240, Pitch_bend_c, 5, 8448
5, 104320, Pitch_bend_c, 5, 8192
5, 104400, Pitch_bend_c, 5, 8448
5, 104480, Pitch_bend_c, 5, 8192
5, 104560, Pitch_bend_c, 5, 8448
5, 104640, Pitch_bend_c, 5, 8192
5, 104720, Pitch_bend_c, 5, 8448
5, 104800, Pitch_bend_c, 5, 8192
5, 104880, Pitch_bend_c, 5, 8448
5, 104960, Pitch_bend_c, 5, 8192
5, 105040, Pitch_bend_c, 5, 8448
5, 105120, Pitch_bend_c, 5, 8192
5, 105200, Pitch_bend_c, 5, 8448
5, 105280, Pitch_bend_c, 5, 8192
5, 105360, Pitch_bend_c, 5, 8448
5, 105440, Pitch_bend_c, 5, 8192
5, 105480, Note_on_c, 5, 57, 111
5, 105480, Pitch_bend_c, 5, 6144
5, 105520, Pitch_bend_c, 5, 8448
5, 105520, Pitch_bend_c, 5, 6784
5, 105560, Pitch_bend_c, 5, 7552
5, 105600, Note_off_c, 5, 55, 80
5, 105600, Pitch_bend_c, 5, 8192
5, 105600, Pitch_bend_c, 5, 8192
5, 105600, Control_c, 4, 7, 120
5, 105600, Control_c, 5, 7, 120
5, 105600, Pitch_bend_c, 5, 8192
5, 105600, Pitch_bend_c, 5, 8192
5, 105760, Pitch_bend_c, 5, 8320
5, 106096, Pitch_bend_c, 5, 8448
5, 106400, Pitch_bend_c, 5, 8576
5, 106432, Pitch_bend_c, 5, 8704
5, 106464, Pitch_bend_c, 5, 8576
5, 106496, Pitch_bend_c, 5, 8448
5, 106528, Pitch_bend_c, 5, 8576
5, 106560, Pitch_bend_c, 5, 8704
5, 106592, Pitch_bend_c, 5, 8576
5, 106624, Pitch_bend_c, 5, 8448
5, 106656, Pitch_bend_c, 5, 8576
5, 106688, Pitch_bend_c, 5, 8704
5, 106720, Pitch_bend_c, 5, 8576
5, 106752, Pitch_bend_c, 5, 8448
5, 106784, Pitch_bend_c, 5, 8576
5, 106816, Pitch_bend_c, 5, 8704
5, 106848, Pitch_bend_c, 5, 8576
5, 106880, Pitch_bend_c, 5, 8448
5, 106912, Pitch_bend_c, 5, 8576
5, 106944, Pitch_bend_c, 5, 8704
5, 106976, Pitch_bend_c, 5, 8576
5, 107008, Pitch_bend_c, 5, 8448
5, 107040, Pitch_bend_c, 5, 8576
5, 107040, Note_on_c, 4, 57, 111
5, 107072, Pitch_bend_c, 5, 8704
5, 107104, Pitch_bend_c, 5, 8576
5, 107136, Pitch_bend_c, 5, 8448
5, 107168, Pitch_bend_c, 5, 8576
5, 107200, Pitch_bend_c, 5, 8704
5, 107232, Pitch_bend_c, 5, 8576
5, 107264, Pitch_bend_c, 5, 8448
5, 107280, Note_off_c, 5, 57, 80
5, 107280, Pitch_bend_c, 5, 8192
5, 107280, Note_off_c, 4, 57, 80
5, 107280, Note_on_c, 5, 57, 111
5, 107280, Pitch_bend_c, 5, 8192
5, 107328, Pitch_bend_c, 5, 8320
5, 107424, Pitch_bend_c, 5, 8448
5, 107520, Pitch_bend_c, 5, 8576
5, 107760, Note_off_c, 5, 57, 80
5, 107760, Pitch_bend_c, 5, 8192
5, 107760, Note_on_c, 5, 55, 111
5, 107840, Pitch_bend_c, 5, 8192
5, 107920, Pitch_bend_c, 5, 8448
5, 108000, Pitch_bend_c, 5, 8192
5, 108080, Pitch_bend_c, 5, 8448
5, 108160, Pitch_bend_c, 5, 8192
5, 108240, Pitch_bend_c, 5, 8448
5, 108320, Pitch_bend_c, 5, 8192
5, 108400, Pitch_bend_c, 5, 8448
5, 108480, Pitch_bend_c, 5, 8192
5, 108560, Pitch_bend_c, 5, 8448
5, 108640, Pitch_bend_c, 5, 8192
5, 108720, Pitch_bend_c, 5, 8448
5, 108800, Pitch_bend_c, 5, 8192
5, 108880, Pitch_bend_c, 5, 8448
5, 108960, Pitch_bend_c, 5, 8192
5, 109040, Pitch_bend_c, 5, 8448
5, 109120, Pitch_bend_c, 5, 8192
5, 109200, Pitch_bend_c, 5, 8448
5, 109280, Pitch_bend_c, 5, 8192
5, 109320, Note_on_c, 5, 57, 111
5, 109320, Pitch_bend_c, 5, 6144
5, 109360, Pitch_bend_c, 5, 8448
5, 109360, Pitch_bend_c, 5, 6784
5, 109400, Pitch_bend_c, 5, 7552
5, 109440, Note_off_c, 5, 55, 80
5, 109440, Pitch_bend_c, 5, 8192
5, 109440, Pitch_bend_c, 5, 8192
5, 109440, Pitch_bend_c, 5, 8192
5, 109520, Pitch_bend_c, 5, 8192
5, 109600, Pitch_bend_c, 5, 8448
5, 109680, Pitch_bend_c, 5, 8192
5, 109760, Pitch_bend_c, 5, 8448
5, 109840, Pitch_bend_c, 5, 8192
5, 109920, Pitch_bend_c, 5, 8448
5, 110000, Pitch_bend_c, 5, 8192
5, 110080, Pitch_bend_c, 5, 8448
5, 110160, Pitch_bend_c, 5, 8192
5, 110240, Pitch_bend_c, 5, 8448
5, 110320, Pitch_bend_c, 5, 8192
5, 110400, Pitch_bend_c, 5, 8448
5, 110400, Note_on_c, 5, 57, 111
5, 110480, Pitch_bend_c, 5, 8192
5, 110480, Pitch_bend_c, 5, 8192
5, 110560, Pitch_bend_c, 5, 8448
5, 110560, Pitch_bend_c, 5, 8448
5, 110640, Pitch_bend_c, 5, 8192
5, 110640, Pitch_bend_c, 5, 8192
5, 110720, Pitch_bend_c, 5, 8448
5, 110720, Pitch_bend_c, 5, 8448
5, 110760, Note_off_c, 5, 57, 80
5, 110760, Pitch_bend_c, 5, 8192
5, 110800, Pitch_bend_c, 5, 8192
5, 110850, Note_off_c, 5, 57, 80
5, 110850, Pitch_bend_c, 5, 8192
5, 110850, Note_on_c, 4, 59, 111
5, 111030, Note_off_c, 4, 59, 80
5, 111030, Note_on_c, 5, 60, 111
5, 111110, Pitch_bend_c, 5, 8192
5, 111180, Note_on_c, 5, 62, 111
5, 111180, Pitch_bend_c, 5, 6144
5, 111190, Pitch_bend_c, 5, 8448
5, 111220, Pitch_bend_c, 5, 6784
5, 111260, Pitch_bend_c, 5, 7552
5, 111270, Pitch_bend_c, 5, 8192
5, 111300, Note_off_c, 5, 60, 80
5, 111300, Pitch_bend_c, 5, 8192
5, 111300, Pitch_bend_c, 5, 8192
5, 111380, Pitch_bend_c, 5, 8192
5, 111460, Pitch_bend_c, 5, 8448
5, 111540, Pitch_bend_c, 5, 8192
5, 111620, Pitch_bend_c, 5, 8448
5, 111700, Pitch_bend_c, 5, 8192
5, 111780, Pitch_bend_c, 5, 8448
5, 111860, Pitch_bend_c, 5, 8192
5, 111940, Pitch_bend_c, 5, 8448
5, 112020, Pitch_bend_c, 5, 8192
5, 112100, Pitch_bend_c, 5, 8448
5, 112180, Pitch_bend_c, 5, 8192
5, 112260, Pitch_bend_c, 5, 8448
5, 112340, Pitch_bend_c, 5, 8192
5, 112420, Pitch_bend_c, 5, 8448
5, 112500, Pitch_bend_c, 5, 8192
5, 112560, Note_off_c, 5, 62, 80
5, 112560, Pitch_bend_c, 5, 8192
5, 112680, Note_on_c, 5, 60, 111
5, 112760, Pitch_bend_c, 5, 8192
5, 112840, Pitch_bend_c, 5, 8448
5, 112920, Pitch_bend_c, 5, 8192
5, 113000, Pitch_bend_c, 5, 8448
5, 113040, Note_off_c, 5, 60, 80
5, 113040, Pitch_bend_c, 5, 8192
5, 113040, Note_on_c, 5, 62, 111
5, 113120, Pitch_bend_c, 5, 8192
5, 113200, Pitch_bend_c, 5, 8448
5, 113280, Pitch_bend_c, 5, 8192
5, 113360, Pitch_bend_c, 5, 8448
5, 113400, Note_off_c, 5, 62, 80
5, 113400, Pitch_bend_c, 5, 8192
5, 113400, Note_on_c, 5, 63, 111
5, 113400, Pitch_bend_c, 5, 8192
5, 113432, Pitch_bend_c, 5, 8320
5, 113480, Pitch_bend_c, 5, 8448
5, 113544, Pitch_bend_c, 5, 8576
5, 113576, Pitch_bend_c, 5, 8704
5, 113640, Pitch_bend_c, 5, 8832
5, 113672, Pitch_bend_c, 5, 8960
5, 113704, Pitch_bend_c, 5, 8832
5, 113736, Pitch_bend_c, 5, 8704
5, 113768, Pitch_bend_c, 5, 8832
5, 113800, Pitch_bend_c, 5, 8960
5, 113832, Pitch_bend_c, 5, 8832
5, 113864, Pitch_bend_c, 5, 8704
5, 113896, Pitch_bend_c, 5, 8832
5, 113928, Pitch_bend_c, 5, 8960
5, 113940, Note_off_c, 5, 63, 80
5, 113940, Pitch_bend_c, 5, 8192
5, 113940, Note_on_c, 5, 57, 111
5, 114020, Pitch_bend_c, 5, 8192
5, 114100, Pitch_bend_c, 5, 8448
5, 114180, Pitch_bend_c, 5, 8192
5, 114260, Pitch_bend_c, 5, 8448
5, 114300, Note_off_c, 5, 57, 80
5, 114300, Pitch_bend_c, 5, 8192
5, 114300, Note_on_c, 4, 57, 111
5, 114660, Note_off_c, 4, 57, 80
5, 114660, Note_on_c, 5, 57, 111
5, 114740, Pitch_bend_c, 5, 8192
5, 114820, Pitch_bend_c, 5, 8448
5, 114900, Pitch_bend_c, 5, 8192
5, 114960, Note_off_c, 5, 57, 80
5, 114960, Pitch_bend_c, 5, 8192
5, 114960, Note_on_c, 5, 57, 111
5, 114960, Pitch_bend_c, 5, 8192
5, 115008, Pitch_bend_c, 5, 8320
5, 115104, Pitch_bend_c, 5, 8448
5, 115200, Pitch_bend_c, 5, 8576
5, 115440, Note_off_c, 5, 57, 80
5, 115440, Pitch_bend_c, 5, 8192
5, 115440, Note_on_c, 5, 55, 111
5, 115520, Pitch_bend_c, 5, 8192
5, 115600, Pitch_bend_c, 5, 8448
5, 115680, Pitch_bend_c, 5, 8192
5, 115760, Pitch_bend_c, 5, 8448
5, 115840, Pitch_bend_c, 5, 8192
5, 115920, Pitch_bend_c, 5, 8448
5, 116000, Pitch_bend_c, 5, 8192
5, 116080, Pitch_bend_c, 5, 8448
5, 116160, Pitch_bend_c, 5, 8192
5, 116240, Pitch_bend_c, 5, 8448
5, 116320, Pitch_bend_c, 5, 8192
5, 116400, Pitch_bend_c, 5, 8448
5, 116480, Pitch_bend_c, 5, 8192
5, 116560, Pitch_bend_c, 5, 8448
5, 116640, Pitch_bend_c, 5, 8192
5, 116720, Pitch_bend_c, 5, 8448
5, 116800, Pitch_bend_c, 5, 8192
5, 116880, Note_off_c, 5, 55, 80
5, 116880, Pitch_bend_c, 5, 8448
5, 116880, Pitch_bend_c, 5, 8192
5, 117000, Note_on_c, 5, 57, 111
5, 117000, Pitch_bend_c, 5, 6144
5, 117040, Pitch_bend_c, 5, 6784
5, 117080, Pitch_bend_c, 5, 7552
5, 117120, Pitch_bend_c, 5, 8192
5, 117200, Pitch_bend_c, 5, 8192
5, 117280, Pitch_bend_c, 5, 8448
5, 117360, Pitch_bend_c, 5, 8192
5, 117440, Pitch_bend_c, 5, 8448
5, 117520, Pitch_bend_c, 5, 8192
5, 117600, Pitch_bend_c, 5, 8448
5, 117680, Pitch_bend_c, 5, 8192
5, 117760, Pitch_bend_c, 5, 8448
5, 117840, Pitch_bend_c, 5, 8192
5, 117920, Pitch_bend_c, 5, 8448
5, 118000, Pitch_bend_c, 5, 8192
5, 118080, Pitch_bend_c, 5, 8448
5, 118080, Note_on_c, 5, 57, 111
5, 118160, Pitch_bend_c, 5, 8192
5, 118160, Pitch_bend_c, 5, 8192
5, 118240, Pitch_bend_c, 5, 8448
5, 118240, Pitch_bend_c, 5, 8448
5, 118320, Pitch_bend_c, 5, 8192
5, 118320, Pitch_bend_c, 5, 8192
5, 118400, Pitch_bend_c, 5, 8448
5, 118400, Pitch_bend_c, 5, 8448
5, 118440, Note_off_c, 5, 57, 80
5, 118440, Pitch_bend_c, 5, 8192
5, 118480, Pitch_bend_c, 5, 8192
5, 118530, Note_off_c, 5, 57, 80
5, 118530, Pitch_bend_c, 5, 8192
5, 118530, Note_on_c, 4, 59, 111
5, 118710, Note_off_c, 4, 59, 80
5, 118710, Note_on_c, 5, 60, 111
5, 118790, Pitch_bend_c, 5, 8192
5, 118860, Note_on_c, 5, 62, 111
5, 118860, Pitch_bend_c, 5, 6144
5, 118870, Pitch_bend_c, 5, 8448
5, 118900, Pitch_bend_c, 5, 6784
5, 118940, Pitch_bend_c, 5, 7552
5, 118950, Pitch_bend_c, 5, 8192
5, 118980, Note_off_c, 5, 60, 80
5, 118980, Pitch_bend_c, 5, 8192
5, 118980, Pitch_bend_c, 5, 8192
5, 119060, Pitch_bend_c, 5, 8192
5, 119140, Pitch_bend_c, 5, 8448
5, 119220, Pitch_bend_c, 5, 8192
5, 119300, Pitch_bend_c, 5, 8448
5, 119380, Pitch_bend_c, 5, 8192
5, 119460, Pitch_bend_c, 5, 8448
5, 119540, Pitch_bend_c, 5, 8192
5, 119620, Pitch_bend_c, 5, 8448
5, 119700, Pitch_bend_c, 5, 8192
5, 119780, Pitch_bend_c, 5, 8448
5, 119860, Pitch_bend_c, 5, 8192
5, 119940, Pitch_bend_c, 5, 8448
5, 120020, Pitch_bend_c, 5, 8192
5, 120100, Pitch_bend_c, 5, 8448
5, 120180, Pitch_bend_c, 5, 8192
5, 120240, Note_off_c, 5, 62, 80
5, 120240, Pitch_bend_c, 5, 8192
5, 120360, Note_on_c, 5, 60, 111
5, 120440, Pitch_bend_c, 5, 8192
5, 120520, Pitch_bend_c, 5, 8448
5, 120600, Pitch_bend_c, 5, 8192
5, 120680, Pitch_bend_c, 5, 8448
5, 120720, Note_off_c, 5, 60, 80
5, 120720, Pitch_bend_c, 5, 8192
5, 120720, Note_on_c, 5, 62, 111
5, 120800, Pitch_bend_c, 5, 8192
5, 120880, Pitch_bend_c, 5, 8448
5, 120960, Pitch_bend_c, 5, 8192
5, 121040, Pitch_bend_c, 5, 8448
5, 121080, Note_off_c, 5, 62, 80
5, 121080, Pitch_bend_c, 5, 8192
5, 121080, Note_on_c, 5, 63, 111
5, 121080, Pitch_bend_c, 5, 8192
5, 121112, Pitch_bend_c, 5, 8320
5, 121160, Pitch_bend_c, 5, 8448
5, 121224, Pitch_bend_c, 5, 8576
5, 121256, Pitch_bend_c, 5, 8704
5, 121320, Pitch_bend_c, 5, 8832
5, 121352, Pitch_bend_c, 5, 8960
5, 121384, Pitch_bend_c, 5, 8832
5, 121416, Pitch_bend_c, 5, 8704
5, 121448, Pitch_bend_c, 5, 8832
5, 121480, Pitch_bend_c, 5, 8960
5, 121512, Pitch_bend_c, 5, 8832
5, 121544, Pitch_bend_c, 5, 8704
5, 121576, Pitch_bend_c, 5, 8832
5, 121608, Pitch_bend_c, 5, 8960
5, 121620, Note_off_c, 5, 63, 80
5, 121620, Pitch_bend_c, 5, 8192
5, 121620, Note_on_c, 4, 57, 111
5, 121980, Note_off_c, 4, 57, 80
5, 121980, Note_on_c, 5, 57, 111
5, 122060, Pitch_bend_c, 5, 8192
5, 122140, Pitch_bend_c, 5, 8448
5, 122220, Pitch_bend_c, 5, 8192
5, 122300, Pitch_bend_c, 5, 8448
5, 122340, Note_off_c, 5, 57, 80
5, 122340, Pitch_bend_c, 5, 8192
5, 122340, Note_on_c, 4, 57, 111
5, 122640, Note_off_c, 4, 57, 80
5, 122640, Note_on_c, 5, 57, 111
5, 122640, Pitch_bend_c, 5, 8192
5, 122688, Pitch_bend_c, 5, 8320
5, 122784, Pitch_bend_c, 5, 8448
5, 122880, Pitch_bend_c, 5, 8576
5, 123120, Note_off_c, 5, 57, 80
5, 123120, Pitch_bend_c, 5, 8192
5, 123120, Note_on_c, 5, 55, 111
5, 123200, Pitch_bend_c, 5, 8192
5, 123280, Pitch_bend_c, 5, 8448
5, 123360, Pitch_bend_c, 5, 8192
5, 123440, Pitch_bend_c, 5, 8448
5, 123520, Pitch_bend_c, 5, 8192
5, 123600, Pitch_bend_c, 5, 8448
5, 123680, Pitch_bend_c, 5, 8192
5, 123760, Pitch_bend_c, 5, 8448
5, 123840, Pitch_bend_c, 5, 8192
5, 123920, Pitch_bend_c, 5, 8448
5, 124000, Pitch_bend_c, 5, 8192
5, 124080, Pitch_bend_c, 5, 8448
5, 124160, Pitch_bend_c, 5, 8192
5, 124240, Pitch_bend_c, 5, 8448
5, 124320, Pitch_bend_c, 5, 8192
5, 124400, Pitch_bend_c, 5, 8448
5, 124480, Pitch_bend_c, 5, 8192
5, 124560, Note_off_c, 5, 55, 80
5, 124560, Pitch_bend_c, 5, 8448
5, 124560, Pitch_bend_c, 5, 8192
5, 124680, Note_on_c, 5, 62, 127
5, 124680, Pitch_bend_c, 5, 6144
5, 124720, Pitch_bend_c, 5, 6784
5, 124760, Pitch_bend_c, 5, 7552
5, 124800, Pitch_bend_c, 5, 8192
5, 124920, Note_off_c, 5, 62, 80
5, 124920, Note_on_c, 4, 65, 127
5, 125040, Note_off_c, 4, 65, 80
5, 125040, Note_on_c, 4, 64, 127
5, 125160, Note_off_c, 4, 64, 80
5, 125160, Note_on_c, 4, 62, 127
5, 125520, Note_off_c, 4, 62, 80
5, 125520, Note_on_c, 5, 64, 111
5, 125600, Pitch_bend_c, 5, 8192
5, 125680, Pitch_bend_c, 5, 8448
5, 125760, Note_off_c, 5, 64, 80
5, 125760, Pitch_bend_c, 5, 8192
5, 125760, Pitch_bend_c, 5, 8192
5, 125760, Note_on_c, 4, 62, 111
5, 126000, Note_off_c, 4, 62, 80
5, 126000, Note_on_c, 5, 62, 127
5, 126080, Pitch_bend_c, 5, 8192
5, 126160, Pitch_bend_c, 5, 8448
5, 126240, Note_off_c, 5, 62, 80
5, 126240, Pitch_bend_c, 5, 8192
5, 126240, Pitch_bend_c, 5, 8192
5, 126240, Note_on_c, 5, 65, 111
5, 126240, Pitch_bend_c, 5, 8192
5, 126256, Pitch_bend_c, 5, 8320
5, 126304, Pitch_bend_c, 5, 8448
5, 126336, Pitch_bend_c, 5, 8576
5, 126368, Pitch_bend_c, 5, 8704
5, 126400, Pitch_bend_c, 5, 8832
5, 126432, Pitch_bend_c, 5, 8960
5, 126464, Pitch_bend_c, 5, 8832
5, 126496, Pitch_bend_c, 5, 8704
5, 126528, Pitch_bend_c, 5, 8832
5, 126560, Pitch_bend_c, 5, 8960
5, 126592, Pitch_bend_c, 5, 8832
5, 126600, Note_off_c, 5, 65, 80
5, 126600, Pitch_bend_c, 5, 8192
5, 126600, Note_on_c, 5, 67, 111
5, 126680, Pitch_bend_c, 5, 8192
5, 126760, Pitch_bend_c, 5, 8448
5, 126840, Pitch_bend_c, 5, 8192
5, 126920, Pitch_bend_c, 5, 8448
5, 127000, Pitch_bend_c, 5, 8192
5, 127080, Pitch_bend_c, 5, 8448
5, 127160, Pitch_bend_c, 5, 8192
5, 127240, Pitch_bend_c, 5, 8448
5, 127320, Pitch_bend_c, 5, 8192
5, 127400, Pitch_bend_c, 5, 8448
5, 127480, Pitch_bend_c, 5, 8192
5, 127560, Pitch_bend_c, 5, 8448
5, 127640, Pitch_bend_c, 5, 8192
5, 127720, Pitch_bend_c, 5, 8448
5, 127800, Pitch_bend_c, 5, 8192
5, 127860, Note_off_c, 5, 67, 80
5, 127860, Pitch_bend_c, 5, 8192
5, 127860, Note_on_c, 4, 64, 127
5, 128220, Note_off_c, 4, 64, 80
5, 128220, Note_on_c, 4, 64, 111
5, 128340, Note_off_c, 4, 64, 80
5, 128340, Note_on_c, 4, 65, 111
5, 128580, Note_off_c, 4, 65, 80
5, 128580, Note_on_c, 5, 64, 111
5, 128660, Pitch_bend_c, 5, 8192
5, 128740, Pitch_bend_c, 5, 8448
5, 128820, Pitch_bend_c, 5, 8192
5, 128900, Pitch_bend_c, 5, 8448
5, 128980, Pitch_bend_c, 5, 8192
5, 129060, Pitch_bend_c, 5, 8448
5, 129140, Pitch_bend_c, 5, 8192
5, 129220, Pitch_bend_c, 5, 8448
5, 129300, Pitch_bend_c, 5, 8192
5, 129380, Pitch_bend_c, 5, 8448
5, 129460, Pitch_bend_c, 5, 8192
5, 129540, Pitch_bend_c, 5, 8448
5, 129620, Pitch_bend_c, 5, 8192
5, 129700, Pitch_bend_c, 5, 8448
5, 129780, Pitch_bend_c, 5, 8192
5, 129860, Pitch_bend_c, 5, 8448
5, 129940, Pitch_bend_c, 5, 8192
5, 130020, Pitch_bend_c, 5, 8448
5, 130080, Note_off_c, 5, 64, 80
5, 130080, Pitch_bend_c, 5, 8192
5, 130080, Note_on_c, 4, 64, 111
5, 130320, Note_off_c, 4, 64, 80
5, 130320, Note_on_c, 5, 63, 111
5, 130400, Pitch_bend_c, 5, 8192
5, 130480, Pitch_bend_c, 5, 8448
5, 130560, Pitch_bend_c, 5, 8192
5, 130640, Pitch_bend_c, 5, 8448
5, 130720, Pitch_bend_c, 5, 8192
5, 130800, Note_off_c, 5, 63, 80
5, 130800, Pitch_bend_c, 5, 8448
5, 130800, Pitch_bend_c, 5, 8192
5, 130800, Note_on_c, 5, 62, 111
5, 130880, Pitch_bend_c, 5, 8192
5, 130900, Pitch_bend_c, 5, 7680
5, 130960, Pitch_bend_c, 5, 8448
5, 131000, Pitch_bend_c, 5, 8704
5, 131040, Pitch_bend_c, 5, 8192
5, 131100, Pitch_bend_c, 5, 7680
5, 131120, Pitch_bend_c, 5, 8448
5, 131200, Pitch_bend_c, 5, 8704
5, 131200, Pitch_bend_c, 5, 8192
5, 131280, Pitch_bend_c, 5, 8448
5, 131300, Pitch_bend_c, 5, 7680
5, 131360, Pitch_bend_c, 5, 8192
5, 131400, Pitch_bend_c, 5, 8704
5, 131440, Pitch_bend_c, 5, 8448
5, 131500, Pitch_bend_c, 5, 7680
5, 131520, Pitch_bend_c, 5, 8192
5, 131600, Pitch_bend_c, 5, 8704
5, 131600, Pitch_bend_c, 5, 8448
5, 131680, Pitch_bend_c, 5, 8192
5, 131700, Pitch_bend_c, 5, 7680
5, 131760, Pitch_bend_c, 5, 8192
5, 131760, Note_off_c, 5, 62, 80
5, 131760, Pitch_bend_c, 5, 8448
5, 131760, Pitch_bend_c, 5, 8192
5, 132120, Note_on_c, 5, 60, 95
5, 132200, Pitch_bend_c, 5, 8192
5, 132240, Note_off_c, 5, 60, 80
5, 132240, Pitch_bend_c, 5, 8192
5, 132240, Note_on_c, 4, 61, 95
5, 132360, Note_off_c, 4, 61, 80
5, 132360, Note_on_c, 4, 62, 95
5, 132480, Note_off_c, 4, 62, 80
5, 132480, Note_on_c, 5, 67, 111
5, 132560, Pitch_bend_c, 5, 8192
5, 132640, Pitch_bend_c, 5, 8448
5, 132720, Pitch_bend_c, 5, 8192
5, 132800, Pitch_bend_c, 5, 8448
5, 132880, Pitch_bend_c, 5, 8192
5, 132960, Pitch_bend_c, 5, 8448
5, 133040, Pitch_bend_c, 5, 8192
5, 133120, Pitch_bend_c, 5, 8448
5, 133200, Pitch_bend_c, 5, 8192
5, 133280, Pitch_bend_c, 5, 8448
5, 133360, Pitch_bend_c, 5, 8192
5, 133440, Note_off_c, 5, 67, 80
5, 133440, Pitch_bend_c, 5, 8448
5, 133440, Pitch_bend_c, 5, 8192
5, 133440, Note_on_c, 5, 69, 111
5, 133520, Pitch_bend_c, 5, 8192
5, 133600, Pitch_bend_c, 5, 8448
5, 133680, Pitch_bend_c, 5, 8192
5, 133760, Pitch_bend_c, 5, 8448
5, 133800, Note_off_c, 5, 69, 80
5, 133800, Pitch_bend_c, 5, 8192
5, 133800, Note_on_c, 5, 71, 111
5, 133880, Pitch_bend_c, 5, 8192
5, 133960, Pitch_bend_c, 5, 8448
5, 134040, Note_off_c, 5, 71, 80
5, 134040, Pitch_bend_c, 5, 8192
5, 134040, Pitch_bend_c, 5, 8192
5, 134040, Note_on_c, 5, 72, 111
5, 134120, Pitch_bend_c, 5, 8192
5, 134200, Pitch_bend_c, 5, 8448
5, 134280, Note_off_c, 5, 72, 80
5, 134280, Pitch_bend_c, 5, 8192
5, 134280, Pitch_bend_c, 5, 8192
5, 134280, Note_on_c, 5, 72, 111
5, 134360, Pitch_bend_c, 5, 8192
5, 134440, Pitch_bend_c, 5, 8448
5, 134520, Pitch_bend_c, 5, 8192
5, 134600, Pitch_bend_c, 5, 8448
5, 134640, Note_off_c, 5, 72, 80
5, 134640, Pitch_bend_c, 5, 8192
5, 134640, Note_on_c, 5, 71, 111
5, 134720, Pitch_bend_c, 5, 8192
5, 134800, Pitch_bend_c, 5, 8448
5, 134880, Note_off_c, 5, 71, 80
5, 134880, Pitch_bend_c, 5, 8192
5, 134880, Pitch_bend_c, 5, 8192
5, 134880, Note_on_c, 5, 72, 111
5, 134960, Pitch_bend_c, 5, 8192
5, 135040, Pitch_bend_c, 5, 8448
5, 135120, Pitch_bend_c, 5, 8192
5, 135200, Pitch_bend_c, 5, 8448
5, 135240, Note_off_c, 5, 72, 80
5, 135240, Pitch_bend_c, 5, 8192
5, 135240, Note_on_c, 5, 71, 111
5, 135320, Pitch_bend_c, 5, 8192
5, 135400, Pitch_bend_c, 5, 8448
5, 135480, Note_off_c, 5, 71, 80
5, 135480, Pitch_bend_c, 5, 8192
5, 135480, Pitch_bend_c, 5, 8192
5, 135480, Note_on_c, 5, 72, 111
5, 135560, Pitch_bend_c, 5, 8192
5, 135640, Pitch_bend_c, 5, 8448
5, 135720, Note_off_c, 5, 72, 80
5, 135720, Pitch_bend_c, 5, 8192
5, 135720, Pitch_bend_c, 5, 8192
5, 135720, Note_on_c, 5, 71, 111
5, 135800, Pitch_bend_c, 5, 8192
5, 135880, Pitch_bend_c, 5, 8448
5, 135960, Pitch_bend_c, 5, 8192
5, 135960, Note_on_c, 5, 59, 95
5, 135960, Pitch_bend_c, 5, 6144
5, 136000, Pitch_bend_c, 5, 6784
5, 136040, Pitch_bend_c, 5, 8448
5, 136040, Pitch_bend_c, 5, 7552
5, 136080, Note_off_c, 5, 71, 80
5, 136080, Pitch_bend_c, 5, 8192
5, 136080, Pitch_bend_c, 5, 8192
5, 136200, Note_off_c, 5, 59, 80
5, 136200, Note_on_c, 4, 71, 111
5, 136200, Note_on_c, 4, 59, 95
5, 136320, Note_off_c, 4, 71, 80
5, 136320, Note_off_c, 4, 59, 80
5, 136320, Note_on_c, 5, 72, 111
5, 136400, Pitch_bend_c, 5, 8192
5, 136480, Pitch_bend_c, 5, 8448
5, 136560, Note_off_c, 5, 72, 80
5, 136560, Pitch_bend_c, 5, 8192
5, 136560, Pitch_bend_c, 5, 8192
5, 136560, Note_on_c, 5, 71, 111
5, 136640, Pitch_bend_c, 5, 8192
5, 136720, Pitch_bend_c, 5, 8448
5, 136800, Pitch_bend_c, 5, 8192
5, 136880, Pitch_bend_c, 5, 8448
5, 136960, Pitch_bend_c, 5, 8192
5, 136980, Note_off_c, 5, 71, 80
5, 136980, Pitch_bend_c, 5, 8192
5, 136980, Note_on_c, 5, 71, 111
5, 137060, Pitch_bend_c, 5, 8192
5, 137140, Pitch_bend_c, 5, 8448
5, 137220, Note_off_c, 5, 71, 80
5, 137220, Pitch_bend_c, 5, 8192
5, 137220, Pitch_bend_c, 5, 8192
5, 137220, Note_on_c, 5, 69, 111
5, 137300, Pitch_bend_c, 5, 8192
5, 137380, Pitch_bend_c, 5, 8448
5, 137460, Pitch_bend_c, 5, 8192
5, 137540, Pitch_bend_c, 5, 8448
5, 137580, Note_off_c, 5, 69, 80
5, 137580, Pitch_bend_c, 5, 8192
5, 137580, Note_on_c, 5, 67, 111
5, 137660, Pitch_bend_c, 5, 8192
5, 137740, Pitch_bend_c, 5, 8448
5, 137820, Pitch_bend_c, 5, 8192
5, 137880, Note_off_c, 5, 67, 80
5, 137880, Pitch_bend_c, 5, 8192
5, 137880, Note_on_c, 5, 69, 111
5, 137880, Pitch_bend_c, 5, 8192
5, 137912, Pitch_bend_c, 5, 8320
5, 137960, Pitch_bend_c, 5, 8448
5, 138008, Pitch_bend_c, 5, 8704
5, 138040, Pitch_bend_c, 5, 8576
5, 138072, Pitch_bend_c, 5, 8448
5, 138104, Pitch_bend_c, 5, 8576
5, 138120, Note_off_c, 5, 69, 80
5, 138120, Pitch_bend_c, 5, 8192
5, 138120, Note_on_c, 5, 67, 111
5, 138200, Pitch_bend_c, 5, 8192
5, 138280, Pitch_bend_c, 5, 8448
5, 138360, Pitch_bend_c, 5, 8192
5, 138440, Pitch_bend_c, 5, 8448
5, 138520, Pitch_bend_c, 5, 8192
5, 138600, Pitch_bend_c, 5, 8448
5, 138680, Pitch_bend_c, 5, 8192
5, 138760, Pitch_bend_c, 5, 8448
5, 138840, Pitch_bend_c, 5, 8192
5, 138920, Pitch_bend_c, 5, 8448
5, 139000, Pitch_bend_c, 5, 8192
5, 139080, Pitch_bend_c, 5, 8448
5, 139160, Pitch_bend_c, 5, 8192
5, 139240, Pitch_bend_c, 5, 8448
5, 139320, Pitch_bend_c, 5, 8192
5, 139400, Pitch_bend_c, 5, 8448
5, 139480, Pitch_bend_c, 5, 8192
5, 139560, Pitch_bend_c, 5, 8448
5, 139560, Note_on_c, 5, 69, 111
5, 139560, Pitch_bend_c, 5, 6144
5, 139600, Pitch_bend_c, 5, 6784
5, 139640, Pitch_bend_c, 5, 8192
5, 139640, Pitch_bend_c, 5, 7552
5, 139680, Note_off_c, 5, 67, 80
5, 139680, Pitch_bend_c, 5, 8192
5, 139680, Pitch_bend_c, 5, 8192
5, 139920, Note_off_c, 5, 69, 80
5, 139920, Note_on_c, 4, 71, 111
5, 140160, Note_off_c, 4, 71, 80
5, 140160, Note_on_c, 5, 72, 111
5, 140240, Pitch_bend_c, 5, 8192
5, 140320, Pitch_bend_c, 5, 8448
5, 140400, Pitch_bend_c, 5, 8192
5, 140480, Pitch_bend_c, 5, 8448
5, 140560, Pitch_bend_c, 5, 8192
5, 140640, Note_off_c, 5, 72, 80
5, 140640, Pitch_bend_c, 5, 8448
5, 140640, Pitch_bend_c, 5, 8192
5, 140640, Note_on_c, 4, 71, 111
5, 140820, Note_off_c, 4, 71, 80
5, 140820, Note_on_c, 4, 72, 111
5, 140940, Note_off_c, 4, 72, 80
5, 140940, Note_on_c, 4, 74, 111
5, 141600, Note_off_c, 4, 74, 80
5, 141600, Note_on_c, 4, 72, 111
5, 141780, Note_off_c, 4, 72, 80
5, 141780, Note_on_c, 4, 74, 111
5, 141900, Note_off_c, 4, 74, 80
5, 141900, Note_on_c, 5, 75, 95
5, 141900, Pitch_bend_c, 5, 8192
5, 141948, Pitch_bend_c, 5, 8320
5, 142000, Pitch_bend_c, 5, 7680
5, 142076, Pitch_bend_c, 5, 8448
5, 142100, Pitch_bend_c, 5, 8704
5, 142188, Pitch_bend_c, 5, 8576
5, 142200, Pitch_bend_c, 5, 7680
5, 142284, Pitch_bend_c, 5, 8704
5, 142300, Pitch_bend_c, 5, 8704
5, 142396, Pitch_bend_c, 5, 8832
5, 142400, Pitch_bend_c, 5, 7680
5, 142500, Pitch_bend_c, 5, 8704
5, 142600, Pitch_bend_c, 5, 7680
5, 142700, Pitch_bend_c, 5, 8704
5, 142800, Pitch_bend_c, 5, 7680
5, 142900, Pitch_bend_c, 5, 8704
5, 143000, Pitch_bend_c, 5, 7680
5, 143040, Pitch_bend_c, 5, 8192
5, 143040, Note_off_c, 5, 75, 80
5, 143040, Pitch_bend_c, 5, 8192
5, 143040, Note_on_c, 4, 76, 111
5, 143220, Note_off_c, 4, 76, 80
5, 143220, Note_on_c, 4, 77, 111
5, 143400, Note_off_c, 4, 77, 80
5, 143400, Note_on_c, 4, 76, 111
5, 143520, Note_off_c, 4, 76, 80
5, 143520, Note_on_c, 4, 74, 111
5, 143640, Note_off_c, 4, 74, 80
5, 143640, Note_on_c, 4, 76, 111
5, 143760, Note_off_c, 4, 76, 80
5, 143760, Note_on_c, 5, 76, 111
5, 143840, Pitch_bend_c, 5, 8192
5, 143920, Pitch_bend_c, 5, 8448
5, 144000, Pitch_bend_c, 5, 8192
5, 144080, Pitch_bend_c, 5, 8448
5, 144160, Pitch_bend_c, 5, 8192
5, 144240, Pitch_bend_c, 5, 8448
5, 144320, Pitch_bend_c, 5, 8192
5, 144400, Pitch_bend_c, 5, 8448
5, 144480, Pitch_bend_c, 5, 8192
5, 144560, Pitch_bend_c, 5, 8448
5, 144640, Pitch_bend_c, 5, 8192
5, 144720, Pitch_bend_c, 5, 8448
5, 144800, Pitch_bend_c, 5, 8192
5, 144880, Pitch_bend_c, 5, 8448
5, 144960, Note_off_c, 5, 76, 80
5, 144960, Pitch_bend_c, 5, 8192
5, 144960, Pitch_bend_c, 5, 8192
5, 145320, Note_on_c, 5, 74, 111
5, 145400, Pitch_bend_c, 5, 8192
5, 145480, Pitch_bend_c, 5, 8448
5, 145560, Pitch_bend_c, 5, 8192
5, 145640, Pitch_bend_c, 5, 8448
5, 145680, Note_off_c, 5, 74, 80
5, 145680, Pitch_bend_c, 5, 8192
5, 145680, Note_on_c, 4, 76, 111
5, 145800, Note_off_c, 4, 76, 80
5, 145800, Note_on_c, 4, 74, 111
5, 145920, Note_off_c, 4, 74, 80
5, 145920, Note_on_c, 4, 76, 111
5, 146040, Note_off_c, 4, 76, 80
5, 146040, Note_on_c, 5, 74, 111
5, 146120, Pitch_bend_c, 5, 8192
5, 146200, Pitch_bend_c, 5, 8448
5, 146280, Pitch_bend_c, 5, 8192
5, 146360, Pitch_bend_c, 5, 8448
5, 146440, Pitch_bend_c, 5, 8192
5, 146520, Pitch_bend_c, 5, 8448
5, 146600, Pitch_bend_c, 5, 8192
5, 146680, Pitch_bend_c, 5, 8448
5, 146760, Pitch_bend_c, 5, 8192
5, 146840, Pitch_bend_c, 5, 8448
5, 146920, Pitch_bend_c, 5, 8192
5, 147000, Pitch_bend_c, 5, 8448
5, 147080, Pitch_bend_c, 5, 8192
5, 147120, Note_off_c, 5, 74, 80
5, 147120, Pitch_bend_c, 5, 8192
5, 147120, Note_on_c, 5, 74, 111
5, 147200, Pitch_bend_c, 5, 8192
5, 147280, Pitch_bend_c, 5, 8448
5, 147360, Pitch_bend_c, 5, 8192
5, 147440, Pitch_bend_c, 5, 8448
5, 147480, Note_off_c, 5, 74, 80
5, 147480, Pitch_bend_c, 5, 8192
5, 147480, Note_on_c, 4, 76, 111
5, 147600, Note_off_c, 4, 76, 80
5, 147600, Note_on_c, 4, 74, 111
5, 147720, Note_off_c, 4, 74, 80
5, 147720, Note_on_c, 4, 74, 111
5, 147840, Note_off_c, 4, 74, 80
5, 147840, Note_on_c, 4, 76, 111
5, 147960, Note_off_c, 4, 76, 80
5, 147960, Note_on_c, 5, 76, 111
5, 147960, Pitch_bend_c, 5, 8192
5, 148072, Pitch_bend_c, 5, 8320
5, 148080, Control_c, 4, 7, 118
5, 148080, Control_c, 5, 7, 118
5, 148200, Control_c, 4, 7, 116
5, 148200, Control_c, 5, 7, 116
5, 148280, Pitch_bend_c, 5, 8448
5, 148320, Control_c, 4, 7, 114
5, 148320, Control_c, 5, 7, 114
5, 148440, Control_c, 4, 7, 112
5, 148440, Control_c, 5, 7, 112
5, 148488, Pitch_bend_c, 5, 8576
5, 148504, Pitch_bend_c, 5, 8704
5, 148536, Pitch_bend_c, 5, 8576
5, 148560, Control_c, 4, 7, 110
5, 148560, Control_c, 5, 7, 110
5, 148568, Pitch_bend_c, 5, 8448
5, 148600, Pitch_bend_c, 5, 8576
5, 148632, Pitch_bend_c, 5, 8704
5, 148664, Pitch_bend_c, 5, 8576
5, 148680, Control_c, 4, 7, 108
5, 148680, Control_c, 5, 7, 108
5, 148696, Pitch_bend_c, 5, 8448
5, 148728, Pitch_bend_c, 5, 8576
5, 148760, Pitch_bend_c, 5, 8704
5, 148792, Pitch_bend_c, 5, 8576
5, 148800, Control_c, 4, 7, 106
5, 148800, Control_c, 5, 7, 106
5, 148824, Pitch_bend_c, 5, 8448
5, 148856, Pitch_bend_c, 5, 8576
5, 148888, Pitch_bend_c, 5, 8704
5, 148920, Control_c, 4, 7, 104
5, 148920, Control_c, 5, 7, 104
5, 148920, Pitch_bend_c, 5, 8576
5, 148952, Pitch_bend_c, 5, 8448
5, 148984, Pitch_bend_c, 5, 8576
5, 149016, Pitch_bend_c, 5, 8704
5, 149040, Control_c, 4, 7, 102
5, 149040, Control_c, 5, 7, 102
5, 149040, Note_off_c, 5, 76, 80
5, 149040, Pitch_bend_c, 5, 8192
5, 149040, Note_on_c, 5, 74, 111
5, 149120, Pitch_bend_c, 5, 8192
5, 149160, Control_c, 4, 7, 100
5, 149160, Control_c, 5, 7, 100
5, 149200, Pitch_bend_c, 5, 8448
5, 149280, Control_c, 4, 7, 98
5, 149280, Control_c, 5, 7, 98
5, 149280, Pitch_bend_c, 5, 8192
5, 149360, Pitch_bend_c, 5, 8448
5, 149400, Control_c, 4, 7, 96
5, 149400, Control_c, 5, 7, 96
5, 149400, Note_off_c, 5, 74, 80
5, 149400, Pitch_bend_c, 5, 8192
5, 149400, Note_on_c, 4, 76, 111
5, 149520, Control_c, 4, 7, 94
5, 149520, Control_c, 5, 7, 94
5, 149520, Note_off_c, 4, 76, 80
5, 149520, Note_on_c, 4, 74, 111
5, 149640, Control_c, 4, 7, 92
5, 149640, Control_c, 5, 7, 92
5, 149640, Note_off_c, 4, 74, 80
5, 149640, Note_on_c, 4, 76, 111
5, 149760, Control_c, 4, 7, 90
5, 149760, Control_c, 5, 7, 90
5, 149760, Note_off_c, 4, 76, 80
5, 149760, Note_on_c, 5, 74, 111
5, 149840, Pitch_bend_c, 5, 8192
5, 149880, Control_c, 4, 7, 89
5, 149880, Control_c, 5, 7, 89
5, 149920, Pitch_bend_c, 5, 8448
5, 150000, Control_c, 4, 7, 87
5, 150000, Control_c, 5, 7, 87
5, 150000, Pitch_bend_c, 5, 8192
5, 150080, Pitch_bend_c, 5, 8448
5, 150120, Control_c, 4, 7, 85
5, 150120, Control_c, 5, 7, 85
5, 150160, Pitch_bend_c, 5, 8192
5, 150240, Control_c, 4, 7, 83
5, 150240, Control_c, 5, 7, 83
5, 150240, Pitch_bend_c, 5, 8448
5, 150320, Pitch_bend_c, 5, 8192
5, 150360, Control_c, 4, 7, 81
5, 150360, Control_c, 5, 7, 81
5, 150400, Pitch_bend_c, 5, 8448
5, 150480, Control_c, 4, 7, 79
5, 150480, Control_c, 5, 7, 79
5, 150480, Pitch_bend_c, 5, 8192
5, 150560, Pitch_bend_c, 5, 8448
5, 150600, Control_c, 4, 7, 77
5, 150600, Control_c, 5, 7, 77
5, 150640, Pitch_bend_c, 5, 8192
5, 150720, Control_c, 4, 7, 75
5, 150720, Control_c, 5, 7, 75
5, 150720, Pitch_bend_c, 5, 8448
5, 150800, Pitch_bend_c, 5, 8192
5, 150840, Control_c, 4, 7, 73
5, 150840, Control_c, 5, 7, 73
5, 150880, Pitch_bend_c, 5, 8448
5, 150960, Control_c, 4, 7, 71
5, 150960, Control_c, 5, 7, 71
5, 150960, Note_off_c, 5, 74, 80
5, 150960, Pitch_bend_c, 5, 8192
5, 150960, Pitch_bend_c, 5, 8192
5, 150960, Note_on_c, 5, 74, 111
5, 151040, Pitch_bend_c, 5, 8192
5, 151080, Control_c, 4, 7, 69
5, 151080, Control_c, 5, 7, 69
5, 151120, Pitch_bend_c, 5, 8448
5, 151200, Control_c, 4, 7, 67
5, 151200, Control_c, 5, 7, 67
5, 151200, Pitch_bend_c, 5, 8192
5, 151280, Pitch_bend_c, 5, 8448
5, 151320, Control_c, 4, 7, 65
5, 151320, Control_c, 5, 7, 65
5, 151320, Note_off_c, 5, 74, 80
5, 151320, Pitch_bend_c, 5, 8192
5, 151320, Note_on_c, 4, 76, 111
5, 151440, Control_c, 4, 7, 63
5, 151440, Control_c, 5, 7, 63
5, 151440, Note_off_c, 4, 76, 80
5, 151440, Note_on_c, 4, 74, 111
5, 151560, Control_c, 4, 7, 61
5, 151560, Control_c, 5, 7, 61
5, 151560, Note_off_c, 4, 74, 80
5, 151560, Note_on_c, 4, 74, 111
5, 151680, Control_c, 4, 7, 59
5, 151680, Control_c, 5, 7, 59
5, 151680, Note_off_c, 4, 74, 80
5, 151680, Note_on_c, 4, 76, 111
5, 151800, Control_c, 4, 7, 57
5, 151800, Control_c, 5, 7, 57
5, 151800, Note_off_c, 4, 76, 80
5, 151800, Note_on_c, 5, 76, 111
5, 151800, Pitch_bend_c, 5, 8192
5, 151912, Pitch_bend_c, 5, 8320
5, 151920, Control_c, 4, 7, 55
5, 151920, Control_c, 5, 7, 55
5, 152040, Control_c, 4, 7, 53
5, 152040, Control_c, 5, 7, 53
5, 152120, Pitch_bend_c, 5, 8448
5, 152160, Control_c, 4, 7, 51
5, 152160, Control_c, 5, 7, 51
5, 152280, Control_c, 4, 7, 49
5, 152280, Control_c, 5, 7, 49
5, 152328, Pitch_bend_c, 5, 8576
5, 152344, Pitch_bend_c, 5, 8704
5, 152376, Pitch_bend_c, 5, 8576
5, 152400, Control_c, 4, 7, 47
5, 152400, Control_c, 5, 7, 47
5, 152408, Pitch_bend_c, 5, 8448
5, 152440, Pitch_bend_c, 5, 8576
5, 152472, Pitch_bend_c, 5, 8704
5, 152504, Pitch_bend_c, 5, 8576
5, 152520, Control_c, 4, 7, 45
5, 152520, Control_c, 5, 7, 45
5, 152536, Pitch_bend_c, 5, 8448
5, 152568, Pitch_bend_c, 5, 8576
5, 152600, Pitch_bend_c, 5, 8704
5, 152632, Pitch_bend_c, 5, 8576
5, 152640, Control_c, 4, 7, 43
5, 152640, Control_c, 5, 7, 43
5, 152664, Pitch_bend_c, 5, 8448
5, 152696, Pitch_bend_c, 5, 8576
5, 152728, Pitch_bend_c, 5, 8704
5, 152760, Control_c, 4, 7, 41
5, 152760, Control_c, 5, 7, 41
5, 152760, Pitch_bend_c, 5, 8576
5, 152792, Pitch_bend_c, 5, 8448
5, 152824, Pitch_bend_c, 5, 8576
5, 152856, Pitch_bend_c, 5, 8704
5, 152880, Control_c, 4, 7, 39
5, 152880, Control_c, 5, 7, 39
5, 152880, Note_off_c, 5, 76, 80
5, 152880, Pitch_bend_c, 5, 8192
5, 152880, Note_on_c, 5, 74, 111
5, 152960, Pitch_bend_c, 5, 8192
5, 153000, Control_c, 4, 7, 37
5, 153000, Control_c, 5, 7, 37
5, 153040, Pitch_bend_c, 5, 8448
5, 153120, Control_c, 4, 7, 35
5, 153120, Control_c, 5, 7, 35
5, 153120, Pitch_bend_c, 5, 8192
5, 153200, Pitch_bend_c, 5, 8448
5, 153240, Control_c, 4, 7, 33
5, 153240, Control_c, 5, 7, 33
5, 153240, Note_off_c, 5, 74, 80
5, 153240, Pitch_bend_c, 5, 8192
5, 153240, Note_on_c, 4, 76, 111
5, 153360, Control_c, 4, 7, 31
5, 153360, Control_c, 5, 7, 31
5, 153360, Note_off_c, 4, 76, 80
5, 153360, Note_on_c, 4, 74, 111
5, 153480, Control_c, 4, 7, 30
5, 153480, Control_c, 5, 7, 30
5, 153480, Note_off_c, 4, 74, 80
5, 153480, Note_on_c, 4, 76, 111
5, 153600, Control_c, 4, 7, 28
5, 153600, Control_c, 5, 7, 28
5, 153600, Note_off_c, 4, 76, 80
5, 153600, Note_on_c, 5, 74, 111
5, 153680, Pitch_bend_c, 5, 8192
5, 153720, Control_c, 4, 7, 26
5, 153720, Control_c, 5, 7, 26
5, 153760, Pitch_bend_c, 5, 8448
5, 153840, Control_c, 4, 7, 24
5, 153840, Control_c, 5, 7, 24
5, 153840, Pitch_bend_c, 5, 8192
5, 153920, Pitch_bend_c, 5, 8448
5, 153960, Control_c, 4, 7, 22
5, 153960, Control_c, 5, 7, 22
5, 154000, Pitch_bend_c, 5, 8192
5, 154080, Control_c, 4, 7, 20
5, 154080, Control_c, 5, 7, 20
5, 154080, Pitch_bend_c, 5, 8448
5, 154160, Pitch_bend_c, 5, 8192
5, 154200, Control_c, 4, 7, 18
5, 154200, Control_c, 5, 7, 18
5, 154240, Pitch_bend_c, 5, 8448
5, 154320, Control_c, 4, 7, 16
5, 154320, Control_c, 5, 7, 16
5, 154320, Pitch_bend_c, 5, 8192
5, 154400, Pitch_bend_c, 5, 8448
5, 154440, Control_c, 4, 7, 14
5, 154440, Control_c, 5, 7, 14
5, 154480, Pitch_bend_c, 5, 8192
5, 154560, Control_c, 4, 7, 12
5, 154560, Control_c, 5, 7, 12
5, 154560, Pitch_bend_c, 5, 8448
5, 154640, Pitch_bend_c, 5, 8192
5, 154680, Control_c, 4, 7, 10
5, 154680, Control_c, 5, 7, 10
5, 154720, Pitch_bend_c, 5, 8448
5, 154800, Control_c, 4, 7, 8
5, 154800, Control_c, 5, 7, 8
5, 154800, Note_off_c, 5, 74, 80
5, 154800, Pitch_bend_c, 5, 8192
5, 154800, Pitch_bend_c, 5, 8192
5, 154800, Note_on_c, 5, 74, 111
5, 154880, Pitch_bend_c, 5, 8192
5, 154920, Control_c, 4, 7, 6
5, 154920, Control_c, 5, 7, 6
5, 154960, Pitch_bend_c, 5, 8448
5, 155040, Control_c, 4, 7, 4
5, 155040, Control_c, 5, 7, 4
5, 155040, Pitch_bend_c, 5, 8192
5, 155120, Pitch_bend_c, 5, 8448
5, 155160, Control_c, 4, 7, 2
5, 155160, Control_c, 5, 7, 2
5, 155160, Note_off_c, 5, 74, 80
5, 155160, Pitch_bend_c, 5, 8192
5, 155160, Note_on_c, 4, 76, 111
5, 155280, Control_c, 4, 7, 0
5, 155280, Control_c, 5, 7, 0
5, 155280, Note_off_c, 4, 76, 80
5, 155280, Note_on_c, 4, 74, 111
5, 155400, Note_off_c, 4, 74, 80
5, 155400, Note_on_c, 4, 74, 111
5, 155520, Note_off_c, 4, 74, 80
5, 155520, End_track
6, 0, Start_track
6, 0, Title_t, "Track 4"
6, 0, Control_c, 6, 100, 0
6, 0, Control_c, 6, 101, 0
6, 0, Control_c, 6, 6, 12
6, 0, Pitch_bend_c, 6, 8192
6, 0, Control_c, 7, 100, 0
6, 0, Control_c, 7, 101, 0
6, 0, Control_c, 7, 6, 12
6, 0, Pitch_bend_c, 7, 8192
6, 0, Program_c, 6, 32
6, 0, Program_c, 7, 32
6, 0, Control_c, 6, 7, 96
6, 0, Control_c, 7, 7, 96
6, 0, Control_c, 6, 10, 72
6, 0, Control_c, 7, 10, 72
6, 0, Control_c, 6, 93, 24
6, 0, Control_c, 7, 93, 24
6, 0, Control_c, 6, 91, 32
6, 0, Control_c, 7, 91, 32
6, 0, Control_c, 6, 92, 0
6, 0, Control_c, 7, 92, 0
6, 0, Control_c, 6, 95, 88
6, 0, Control_c, 7, 95, 88
6, 1920, Note_on_c, 6, 31, 127
6, 2040, Note_off_c, 6, 31, 80
6, 2160, Note_on_c, 6, 31, 127
6, 2280, Note_off_c, 6, 31, 80
6, 2400, Note_on_c, 6, 31, 127
6, 2520, Note_off_c, 6, 31, 80
6, 2640, Note_on_c, 6, 31, 127
6, 2760, Note_off_c, 6, 31, 80
6, 2880, Note_on_c, 6, 31, 127
6, 3000, Note_off_c, 6, 31, 80
6, 3120, Note_on_c, 6, 31, 127
6, 3240, Note_off_c, 6, 31, 80
6, 3360, Note_on_c, 6, 31, 127
6, 3480, Note_off_c, 6, 31, 80
6, 3600, Note_on_c, 6, 31, 127
6, 3720, Note_off_c, 6, 31, 80
6, 3840, Note_on_c, 6, 31, 127
6, 3960, Note_off_c, 6, 31, 80
6, 4080, Note_on_c, 6, 31, 127
6, 4200, Note_off_c, 6, 31, 80
6, 4320, Note_on_c, 6, 31, 127
6, 4440, Note_off_c, 6, 31, 80
6, 4560, Note_on_c, 6, 31, 127
6, 4680, Note_off_c, 6, 31, 80
6, 4800, Note_on_c, 6, 31, 127
6, 4920, Note_off_c, 6, 31, 80
6, 5040, Note_on_c, 6, 31, 127
6, 5160, Note_off_c, 6, 31, 80
6, 5280, Note_on_c, 6, 31, 127
6, 5400, Note_off_c, 6, 31, 80
6, 5520, Note_on_c, 6, 31, 127
6, 5640, Note_off_c, 6, 31, 80
6, 5760, Note_on_c, 6, 31, 127
6, 5880, Note_off_c, 6, 31, 80
6, 6000, Note_on_c, 6, 31, 127
6, 6120, Note_off_c, 6, 31, 80
6, 6240, Note_on_c, 6, 31, 127
6, 6360, Note_off_c, 6, 31, 80
6, 6480, Note_on_c, 6, 31, 127
6, 6600, Note_off_c, 6, 31, 80
6, 6720, Note_on_c, 6, 31, 127
6, 6840, Note_off_c, 6, 31, 80
6, 6960, Note_on_c, 6, 31, 127
6, 7080, Note_off_c, 6, 31, 80
6, 7200, Note_on_c, 6, 31, 127
6, 7320, Note_off_c, 6, 31, 80
6, 7440, Note_on_c, 6, 31, 127
6, 7560, Note_off_c, 6, 31, 80
6, 7680, Note_on_c, 6, 31, 127
6, 7800, Note_off_c, 6, 31, 80
6, 7920, Note_on_c, 6, 31, 127
6, 8040, Note_off_c, 6, 31, 80
6, 8160, Note_on_c, 6, 31, 127
6, 8280, Note_off_c, 6, 31, 80
6, 8400, Note_on_c, 6, 31, 127
6, 8520, Note_off_c, 6, 31, 80
6, 8640, Note_on_c, 6, 31, 127
6, 8880, Note_off_c, 6, 31, 80
6, 8880, Note_on_c, 6, 28, 127
6, 9120, Note_off_c, 6, 28, 80
6, 9120, Note_on_c, 6, 31, 127
6, 9360, Note_off_c, 6, 31, 80
6, 9360, Note_on_c, 6, 28, 127
6, 9600, Note_off_c, 6, 28, 80
6, 9600, Note_on_c, 6, 45, 111
6, 9840, Note_off_c, 6, 45, 80
6, 10080, Note_on_c, 6, 45, 111
6, 10320, Note_off_c, 6, 45, 80
6, 10320, Note_on_c, 6, 40, 111
6, 10560, Note_off_c, 6, 40, 80
6, 10560, Note_on_c, 6, 45, 95
6, 10680, Note_off_c, 6, 45, 80
6, 10800, Note_on_c, 6, 40, 95
6, 11040, Note_off_c, 6, 40, 80
6, 11040, Note_on_c, 6, 33, 127
6, 11280, Note_off_c, 6, 33, 80
6, 11280, Note_on_c, 6, 43, 111
6, 11640, Note_off_c, 6, 43, 80
6, 11760, Note_on_c, 6, 41, 127
6, 11880, Note_off_c, 6, 41, 80
6, 12000, Note_on_c, 6, 41, 127
6, 12720, Note_off_c, 6, 41, 80
6, 12720, Note_on_c, 6, 40, 127
6, 12900, Note_off_c, 6, 40, 80
6, 12960, Note_on_c, 6, 43, 127
6, 13200, Note_off_c, 6, 43, 80
6, 13200, Note_on_c, 6, 40, 127
6, 13440, Note_off_c, 6, 40, 80
6, 13440, Note_on_c, 6, 45, 111
6, 13800, Note_off_c, 6, 45, 80
6, 13920, Note_on_c, 6, 45, 111
6, 14040, Note_off_c, 6, 45, 80
6, 14160, Note_on_c, 6, 45, 127
6, 14280, Note_off_c, 6, 45, 80
6, 14280, Note_on_c, 6, 28, 127
6, 14400, Note_off_c, 6, 28, 80
6, 14400, Note_on_c, 6, 48, 95
6, 14520, Note_off_c, 6, 48, 80
6, 14640, Note_on_c, 6, 40, 127
6, 14880, Note_off_c, 6, 40, 80
6, 14880, Note_on_c, 6, 45, 127
6, 15120, Note_off_c, 6, 45, 80
6, 15120, Note_on_c, 6, 43, 127
6, 15840, Note_off_c, 6, 43, 80
6, 15840, Note_on_c, 6, 43, 127
6, 16080, Note_off_c, 6, 43, 80
6, 16080, Note_on_c, 6, 43, 127
6, 16200, Note_off_c, 6, 43, 80
6, 16200, Note_on_c, 6, 43, 127
6, 16320, Note_off_c, 6, 43, 80
6, 16320, Note_on_c, 6, 43, 127
6, 17280, Note_off_c, 6, 43, 80
6, 17280, Note_on_c, 6, 45, 111
6, 17520, Note_off_c, 6, 45, 80
6, 17760, Note_on_c, 6, 45, 111
6, 18000, Note_off_c, 6, 45, 80
6, 18000, Note_on_c, 6, 40, 111
6, 18240, Note_off_c, 6, 40, 80
6, 18240, Note_on_c, 6, 45, 95
6, 18360, Note_off_c, 6, 45, 80
6, 18480, Note_on_c, 6, 40, 95
6, 18720, Note_off_c, 6, 40, 80
6, 18720, Note_on_c, 6, 33, 127
6, 18960, Note_off_c, 6, 33, 80
6, 18960, Note_on_c, 6, 43, 111
6, 19320, Note_off_c, 6, 43, 80
6, 19440, Note_on_c, 6, 41, 127
6, 19560, Note_off_c, 6, 41, 80
6, 19680, Note_on_c, 6, 41, 127
6, 20400, Note_off_c, 6, 41, 80
6, 20400, Note_on_c, 6, 40, 127
6, 20580, Note_off_c, 6, 40, 80
6, 20640, Note_on_c, 6, 43, 127
6, 20880, Note_off_c, 6, 43, 80
6, 20880, Note_on_c, 6, 40, 127
6, 21120, Note_off_c, 6, 40, 80
6, 21120, Note_on_c, 6, 45, 111
6, 21480, Note_off_c, 6, 45, 80
6, 21600, Note_on_c, 6, 45, 111
6, 21720, Note_off_c, 6, 45, 80
6, 21840, Note_on_c, 6, 45, 127
6, 21960, Note_off_c, 6, 45, 80
6, 21960, Note_on_c, 6, 28, 127
6, 22080, Note_off_c, 6, 28, 80
6, 22080, Note_on_c, 6, 48, 95
6, 22200, Note_off_c, 6, 48, 80
6, 22320, Note_on_c, 6, 40, 127
6, 22560, Note_off_c, 6, 40, 80
6, 22560, Note_on_c, 6, 45, 127
6, 22800, Note_off_c, 6, 45, 80
6, 22800, Note_on_c, 6, 43, 127
6, 23520, Note_off_c, 6, 43, 80
6, 23520, Note_on_c, 6, 43, 127
6, 23760, Note_off_c, 6, 43, 80
6, 23760, Note_on_c, 6, 43, 127
6, 23880, Note_off_c, 6, 43, 80
6, 23880, Note_on_c, 6, 43, 127
6, 24000, Note_off_c, 6, 43, 80
6, 24000, Note_on_c, 6, 43, 127
6, 24960, Note_off_c, 6, 43, 80
6, 24960, Note_on_c, 6, 45, 111
6, 25200, Note_off_c, 6, 45, 80
6, 25440, Note_on_c, 6, 45, 111
6, 25680, Note_off_c, 6, 45, 80
6, 25680, Note_on_c, 6, 40, 111
6, 25920, Note_off_c, 6, 40, 80
6, 25920, Note_on_c, 6, 45, 95
6, 26040, Note_off_c, 6, 45, 80
6, 26160, Note_on_c, 6, 40, 95
6, 26400, Note_off_c, 6, 40, 80
6, 26400, Note_on_c, 6, 33, 127
6, 26640, Note_off_c, 6, 33, 80
6, 26640, Note_on_c, 6, 43, 111
6, 27000, Note_off_c, 6, 43, 80
6, 27120, Note_on_c, 6, 41, 127
6, 27240, Note_off_c, 6, 41, 80
6, 27360, Note_on_c, 6, 41, 127
6, 28080, Note_off_c, 6, 41, 80
6, 28080, Note_on_c, 6, 40, 127
6, 28260, Note_off_c, 6, 40, 80
6, 28320, Note_on_c, 6, 43, 127
6, 28560, Note_off_c, 6, 43, 80
6, 28560, Note_on_c, 6, 40, 127
6, 28800, Note_off_c, 6, 40, 80
6, 28800, Note_on_c, 6, 45, 111
6, 29160, Note_off_c, 6, 45, 80
6, 29280, Note_on_c, 6, 45, 111
6, 29400, Note_off_c, 6, 45, 80
6, 29520, Note_on_c, 6, 45, 127
6, 29640, Note_off_c, 6, 45, 80
6, 29640, Note_on_c, 6, 28, 127
6, 29760, Note_off_c, 6, 28, 80
6, 29760, Note_on_c, 6, 48, 127
6, 29880, Note_off_c, 6, 48, 80
6, 30000, Note_on_c, 6, 40, 127
6, 30240, Note_off_c, 6, 40, 80
6, 30240, Note_on_c, 6, 45, 127
6, 30480, Note_off_c, 6, 45, 80
6, 30480, Note_on_c, 6, 43, 127
6, 31200, Note_off_c, 6, 43, 80
6, 31200, Note_on_c, 6, 43, 127
6, 31440, Note_off_c, 6, 43, 80
6, 31440, Note_on_c, 6, 43, 127
6, 31560, Note_off_c, 6, 43, 80
6, 31560, Note_on_c, 6, 43, 127
6, 31680, Note_off_c, 6, 43, 80
6, 31680, Note_on_c, 6, 43, 127
6, 32640, Note_off_c, 6, 43, 80
6, 32640, Note_on_c, 6, 45, 111
6, 32880, Note_off_c, 6, 45, 80
6, 33120, Note_on_c, 6, 45, 111
6, 33360, Note_off_c, 6, 45, 80
6, 33360, Note_on_c, 6, 40, 111
6, 33600, Note_off_c, 6, 40, 80
6, 33600, Note_on_c, 6, 45, 95
6, 33720, Note_off_c, 6, 45, 80
6, 33840, Note_on_c, 6, 40, 95
6, 34080, Note_off_c, 6, 40, 80
6, 34080, Note_on_c, 6, 33, 127
6, 34320, Note_off_c, 6, 33, 80
6, 34320, Note_on_c, 6, 43, 111
6, 34680, Note_off_c, 6, 43, 80
6, 34800, Note_on_c, 6, 41, 127
6, 34920, Note_off_c, 6, 41, 80
6, 35040, Note_on_c, 6, 41, 127
6, 35760, Note_off_c, 6, 41, 80
6, 35760, Note_on_c, 6, 40, 127
6, 35940, Note_off_c, 6, 40, 80
6, 36000, Note_on_c, 6, 43, 127
6, 36240, Note_off_c, 6, 43, 80
6, 36240, Note_on_c, 6, 40, 127
6, 36480, Note_off_c, 6, 40, 80
6, 36480, Note_on_c, 6, 45, 111
6, 36840, Note_off_c, 6, 45, 80
6, 36960, Note_on_c, 6, 45, 111
6, 37080, Note_off_c, 6, 45, 80
6, 37200, Note_on_c, 6, 45, 127
6, 37320, Note_off_c, 6, 45, 80
6, 37320, Note_on_c, 6, 28, 127
6, 37440, Note_off_c, 6, 28, 80
6, 37440, Note_on_c, 6, 48, 127
6, 37560, Note_off_c, 6, 48, 80
6, 37680, Note_on_c, 6, 40, 127
6, 37920, Note_off_c, 6, 40, 80
6, 37920, Note_on_c, 6, 45, 127
6, 38160, Note_off_c, 6, 45, 80
6, 38160, Note_on_c, 6, 43, 127
6, 39360, Note_off_c, 6, 43, 80
6, 39600, Note_on_c, 6, 40, 127
6, 39840, Note_off_c, 6, 40, 80
6, 39840, Note_on_c, 6, 43, 127
6, 40080, Note_off_c, 6, 43, 80
6, 40080, Note_on_c, 6, 45, 127
6, 40320, Note_off_c, 6, 45, 80
6, 40320, Program_c, 6, 39
6, 40320, Program_c, 7, 39
6, 40320, Note_on_c, 6, 50, 95
6, 40560, Note_off_c, 6, 50, 80
6, 40560, Note_on_c, 6, 33, 95
6, 40580, Note_off_c, 6, 33, 80
6, 40680, Note_on_c, 6, 50, 95
6, 40800, Note_off_c, 6, 50, 80
6, 40800, Note_on_c, 6, 50, 95
6, 41040, Note_off_c, 6, 50, 80
6, 41160, Note_on_c, 6, 38, 95
6, 41280, Note_off_c, 6, 38, 80
6, 41280, Note_on_c, 6, 38, 95
6, 41400, Note_off_c, 6, 38, 80
6, 41400, Note_on_c, 6, 36, 127
6, 41520, Note_off_c, 6, 36, 80
6, 41520, Note_on_c, 6, 33, 95
6, 41640, Note_off_c, 6, 33, 80
6, 41760, Note_on_c, 6, 36, 111
6, 41940, Note_off_c, 6, 36, 80
6, 42000, Note_on_c, 6, 38, 127
6, 42240, Note_off_c, 6, 38, 80
6, 42240, Note_on_c, 6, 36, 127
6, 42480, Note_off_c, 6, 36, 80
6, 42480, Note_on_c, 6, 33, 95
6, 42500, Note_off_c, 6, 33, 80
6, 42600, Note_on_c, 6, 36, 127
6, 42720, Note_off_c, 6, 36, 80
6, 42720, Note_on_c, 6, 36, 127
6, 42960, Note_off_c, 6, 36, 80
6, 43080, Note_on_c, 6, 40, 127
6, 43140, Note_off_c, 6, 40, 80
6, 43200, Note_on_c, 6, 40, 127
6, 43320, Note_off_c, 6, 40, 80
6, 43320, Note_on_c, 6, 40, 127
6, 43440, Note_off_c, 6, 40, 80
6, 43440, Note_on_c, 6, 40, 127
6, 43560, Note_off_c, 6, 40, 80
6, 43680, Note_on_c, 6, 41, 127
6, 43860, Note_off_c, 6, 41, 80
6, 43920, Note_on_c, 6, 43, 95
6, 44160, Note_off_c, 6, 43, 80
6, 44160, Note_on_c, 6, 50, 95
6, 44400, Note_off_c, 6, 50, 80
6, 44400, Note_on_c, 6, 33, 95
6, 44420, Note_off_c, 6, 33, 80
6, 44520, Note_on_c, 6, 50, 95
6, 44640, Note_off_c, 6, 50, 80
6, 44640, Note_on_c, 6, 50, 95
6, 44880, Note_off_c, 6, 50, 80
6, 45000, Note_on_c, 6, 50, 95
6, 45120, Note_off_c, 6, 50, 80
6, 45120, Note_on_c, 6, 38, 127
6, 45240, Note_off_c, 6, 38, 80
6, 45240, Note_on_c, 6, 36, 127
6, 45360, Note_off_c, 6, 36, 80
6, 45360, Note_on_c, 6, 31, 95
6, 45480, Note_off_c, 6, 31, 80
6, 45600, Note_on_c, 6, 33, 111
6, 45780, Note_off_c, 6, 33, 80
6, 45840, Note_on_c, 6, 38, 111
6, 46080, Note_off_c, 6, 38, 80
6, 46080, Note_on_c, 6, 36, 127
6, 46320, Note_off_c, 6, 36, 80
6, 46320, Note_on_c, 6, 33, 95
6, 46340, Note_off_c, 6, 33, 80
6, 46440, Note_on_c, 6, 36, 127
6, 46560, Note_off_c, 6, 36, 80
6, 46560, Note_on_c, 6, 36, 127
6, 46800, Note_off_c, 6, 36, 80
6, 46920, Note_on_c, 6, 40, 127
6, 46980, Note_off_c, 6, 40, 80
6, 47040, Note_on_c, 6, 40, 127
6, 47280, Note_off_c, 6, 40, 80
6, 47280, Note_on_c, 6, 40, 127
6, 47460, Note_off_c, 6, 40, 80
6, 47520, Note_on_c, 6, 41, 127
6, 47700, Note_off_c, 6, 41, 80
6, 47760, Note_on_c, 6, 43, 127
6, 48000, Note_off_c, 6, 43, 80
6, 48000, Note_on_c, 6, 50, 95
6, 48240, Note_off_c, 6, 50, 80
6, 48240, Note_on_c, 6, 33, 95
6, 48260, Note_off_c, 6, 33, 80
6, 48360, Note_on_c, 6, 50, 95
6, 48480, Note_off_c, 6, 50, 80
6, 48480, Note_on_c, 6, 50, 95
6, 48720, Note_off_c, 6, 50, 80
6, 48840, Note_on_c, 6, 38, 95
6, 48960, Note_off_c, 6, 38, 80
6, 48960, Note_on_c, 6, 33, 95
6, 49080, Note_off_c, 6, 33, 80
6, 49080, Note_on_c, 6, 31, 95
6, 49200, Note_off_c, 6, 31, 80
6, 49200, Note_on_c, 6, 29, 95
6, 49320, Note_off_c, 6, 29, 80
6, 49440, Note_on_c, 6, 36, 111
6, 49620, Note_off_c, 6, 36, 80
6, 49680, Note_on_c, 6, 38, 127
6, 49920, Note_off_c, 6, 38, 80
6, 49920, Note_on_c, 6, 36, 127
6, 50160, Note_off_c, 6, 36, 80
6, 50160, Note_on_c, 6, 33, 95
6, 50180, Note_off_c, 6, 33, 80
6, 50280, Note_on_c, 6, 36, 127
6, 50400, Note_off_c, 6, 36, 80
6, 50400, Note_on_c, 6, 36, 127
6, 50640, Note_off_c, 6, 36, 80
6, 50760, Note_on_c, 6, 40, 127
6, 51000, Note_off_c, 6, 40, 80
6, 51000, Note_on_c, 6, 40, 127
6, 51120, Note_off_c, 6, 40, 80
6, 51120, Note_on_c, 6, 40, 127
6, 51300, Note_off_c, 6, 40, 80
6, 51360, Note_on_c, 6, 41, 127
6, 51540, Note_off_c, 6, 41, 80
6, 51600, Note_on_c, 6, 43, 127
6, 51840, Note_off_c, 6, 43, 80
6, 51840, Note_on_c, 6, 36, 127
6, 52080, Note_off_c, 6, 36, 80
6, 52080, Note_on_c, 6, 36, 127
6, 52320, Note_off_c, 6, 36, 80
6, 52320, Note_on_c, 6, 36, 127
6, 52560, Note_off_c, 6, 36, 80
6, 52560, Note_on_c, 6, 36, 127
6, 52800, Note_off_c, 6, 36, 80
6, 52800, Note_on_c, 6, 38, 127
6, 53040, Note_off_c, 6, 38, 80
6, 53040, Note_on_c, 6, 38, 127
6, 53280, Note_off_c, 6, 38, 80
6, 53280, Note_on_c, 6, 38, 127
6, 53520, Note_off_c, 6, 38, 80
6, 53520, Note_on_c, 6, 38, 127
6, 53760, Note_off_c, 6, 38, 80
6, 53760, Note_on_c, 6, 41, 127
6, 54000, Note_off_c, 6, 41, 80
6, 54000, Note_on_c, 6, 41, 127
6, 54240, Note_off_c, 6, 41, 80
6, 54240, Note_on_c, 6, 41, 127
6, 54480, Note_off_c, 6, 41, 80
6, 54480, Note_on_c, 6, 41, 127
6, 54720, Note_off_c, 6, 41, 80
6, 54720, Note_on_c, 6, 43, 127
6, 54960, Note_off_c, 6, 43, 80
6, 54960, Note_on_c, 6, 40, 127
6, 55200, Note_off_c, 6, 40, 80
6, 55200, Note_on_c, 6, 43, 127
6, 55440, Note_off_c, 6, 43, 80
6, 55440, Note_on_c, 6, 40, 127
6, 55680, Note_off_c, 6, 40, 80
6, 55680, Program_c, 6, 33
6, 55680, Program_c, 7, 33
6, 55680, Note_on_c, 6, 45, 111
6, 55920, Note_off_c, 6, 45, 80
6, 56160, Note_on_c, 6, 45, 111
6, 56400, Note_off_c, 6, 45, 80
6, 56400, Note_on_c, 6, 40, 111
6, 56640, Note_off_c, 6, 40, 80
6, 56640, Note_on_c, 6, 45, 95
6, 56760, Note_off_c, 6, 45, 80
6, 56880, Note_on_c, 6, 40, 95
6, 57120, Note_off_c, 6, 40, 80
6, 57120, Note_on_c, 6, 33, 127
6, 57360, Note_off_c, 6, 33, 80
6, 57360, Note_on_c, 6, 43, 111
6, 57720, Note_off_c, 6, 43, 80
6, 57840, Note_on_c, 6, 41, 127
6, 57960, Note_off_c, 6, 41, 80
6, 58080, Note_on_c, 6, 41, 127
6, 58560, Note_off_c, 6, 41, 80
6, 58560, Note_on_c, 6, 40, 95
6, 58800, Note_off_c, 6, 40, 80
6, 58800, Note_on_c, 6, 40, 127
6, 58980, Note_off_c, 6, 40, 80
6, 59040, Note_on_c, 6, 43, 127
6, 59280, Note_off_c, 6, 43, 80
6, 59280, Note_on_c, 6, 40, 127
6, 59520, Note_off_c, 6, 40, 80
6, 59520, Note_on_c, 6, 45, 111
6, 59880, Note_off_c, 6, 45, 80
6, 60000, Note_on_c, 6, 45, 111
6, 60120, Note_off_c, 6, 45, 80
6, 60240, Note_on_c, 6, 45, 127
6, 60360, Note_off_c, 6, 45, 80
6, 60360, Note_on_c, 6, 28, 127
6, 60480, Note_off_c, 6, 28, 80
6, 60480, Note_on_c, 6, 48, 127
6, 60600, Note_off_c, 6, 48, 80
6, 60720, Note_on_c, 6, 40, 127
6, 60960, Note_off_c, 6, 40, 80
6, 60960, Note_on_c, 6, 45, 127
6, 61200, Note_off_c, 6, 45, 80
6, 61200, Note_on_c, 6, 43, 127
6, 62640, Note_off_c, 6, 43, 80
6, 62640, Note_on_c, 6, 40, 127
6, 62880, Note_off_c, 6, 40, 80
6, 62880, Note_on_c, 6, 43, 127
6, 63120, Note_off_c, 6, 43, 80
6, 63120, Note_on_c, 6, 40, 127
6, 63360, Note_off_c, 6, 40, 80
6, 63360, Note_on_c, 6, 45, 111
6, 63600, Note_off_c, 6, 45, 80
6, 63840, Note_on_c, 6, 45, 111
6, 64080, Note_off_c, 6, 45, 80
6, 64080, Note_on_c, 6, 40, 111
6, 64320, Note_off_c, 6, 40, 80
6, 64320, Note_on_c, 6, 45, 127
6, 64440, Note_off_c, 6, 45, 80
6, 64560, Note_on_c, 6, 40, 127
6, 64800, Note_off_c, 6, 40, 80
6, 64800, Note_on_c, 6, 33, 127
6, 65040, Note_off_c, 6, 33, 80
6, 65040, Note_on_c, 6, 43, 111
6, 65400, Note_off_c, 6, 43, 80
6, 65520, Note_on_c, 6, 41, 127
6, 65640, Note_off_c, 6, 41, 80
6, 65760, Note_on_c, 6, 41, 127
6, 66480, Note_off_c, 6, 41, 80
6, 66480, Note_on_c, 6, 40, 127
6, 66660, Note_off_c, 6, 40, 80
6, 66720, Note_on_c, 6, 43, 127
6, 66960, Note_off_c, 6, 43, 80
6, 66960, Note_on_c, 6, 40, 127
6, 67200, Note_off_c, 6, 40, 80
6, 67200, Note_on_c, 6, 45, 111
6, 67560, Note_off_c, 6, 45, 80
6, 67680, Note_on_c, 6, 45, 111
6, 67800, Note_off_c, 6, 45, 80
6, 67920, Note_on_c, 6, 45, 127
6, 68040, Note_off_c, 6, 45, 80
6, 68040, Note_on_c, 6, 28, 127
6, 68160, Note_off_c, 6, 28, 80
6, 68160, Note_on_c, 6, 48, 127
6, 68280, Note_off_c, 6, 48, 80
6, 68400, Note_on_c, 6, 40, 127
6, 68640, Note_off_c, 6, 40, 80
6, 68640, Note_on_c, 6, 45, 127
6, 68880, Note_off_c, 6, 45, 80
6, 68880, Note_on_c, 6, 43, 127
6, 69600, Note_off_c, 6, 43, 80
6, 69600, Note_on_c, 6, 36, 127
6, 69840, Note_off_c, 6, 36, 80
6, 69840, Note_on_c, 6, 38, 127
6, 70080, Note_off_c, 6, 38, 80
6, 70080, Note_on_c, 6, 40, 127
6, 70320, Note_off_c, 6, 40, 80
6, 70320, Note_on_c, 6, 40, 127
6, 70560, Note_off_c, 6, 40, 80
6, 70560, Note_on_c, 6, 43, 127
6, 70800, Note_off_c, 6, 43, 80
6, 70800, Note_on_c, 6, 40, 127
6, 71040, Note_off_c, 6, 40, 80
6, 71040, Note_on_c, 6, 45, 111
6, 71280, Note_off_c, 6, 45, 80
6, 71520, Note_on_c, 6, 45, 111
6, 71760, Note_off_c, 6, 45, 80
6, 71760, Note_on_c, 6, 40, 111
6, 72000, Note_off_c, 6, 40, 80
6, 72000, Note_on_c, 6, 45, 95
6, 72120, Note_off_c, 6, 45, 80
6, 72240, Note_on_c, 6, 40, 95
6, 72480, Note_off_c, 6, 40, 80
6, 72480, Note_on_c, 6, 33, 127
6, 72720, Note_off_c, 6, 33, 80
6, 72720, Note_on_c, 6, 43, 111
6, 73080, Note_off_c, 6, 43, 80
6, 73200, Note_on_c, 6, 41, 127
6, 73320, Note_off_c, 6, 41, 80
6, 73440, Note_on_c, 6, 41, 127
6, 74160, Note_off_c, 6, 41, 80
6, 74160, Note_on_c, 6, 40, 127
6, 74340, Note_off_c, 6, 40, 80
6, 74400, Note_on_c, 6, 43, 127
6, 74640, Note_off_c, 6, 43, 80
6, 74640, Note_on_c, 6, 40, 127
6, 74880, Note_off_c, 6, 40, 80
6, 74880, Note_on_c, 6, 45, 111
6, 75240, Note_off_c, 6, 45, 80
6, 75360, Note_on_c, 6, 45, 111
6, 75480, Note_off_c, 6, 45, 80
6, 75600, Note_on_c, 6, 45, 127
6, 75720, Note_off_c, 6, 45, 80
6, 75720, Note_on_c, 6, 28, 79
6, 75840, Note_off_c, 6, 28, 80
6, 75840, Note_on_c, 6, 48, 127
6, 75960, Note_off_c, 6, 48, 80
6, 76080, Note_on_c, 6, 40, 127
6, 76320, Note_off_c, 6, 40, 80
6, 76320, Note_on_c, 6, 45, 127
6, 76560, Note_off_c, 6, 45, 80
6, 76560, Note_on_c, 6, 43, 127
6, 78000, Note_off_c, 6, 43, 80
6, 78000, Note_on_c, 6, 40, 127
6, 78240, Note_off_c, 6, 40, 80
6, 78240, Note_on_c, 6, 43, 127
6, 78480, Note_off_c, 6, 43, 80
6, 78480, Note_on_c, 6, 40, 127
6, 78720, Note_off_c, 6, 40, 80
6, 78720, Note_on_c, 6, 45, 111
6, 78960, Note_off_c, 6, 45, 80
6, 79200, Note_on_c, 6, 45, 111
6, 79440, Note_off_c, 6, 45, 80
6, 79440, Note_on_c, 6, 40, 111
6, 79680, Note_off_c, 6, 40, 80
6, 79680, Note_on_c, 6, 45, 95
6, 79800, Note_off_c, 6, 45, 80
6, 79920, Note_on_c, 6, 40, 95
6, 80160, Note_off_c, 6, 40, 80
6, 80160, Note_on_c, 6, 33, 127
6, 80400, Note_off_c, 6, 33, 80
6, 80400, Note_on_c, 6, 43, 111
6, 80760, Note_off_c, 6, 43, 80
6, 80880, Note_on_c, 6, 41, 127
6, 81000, Note_off_c, 6, 41, 80
6, 81120, Note_on_c, 6, 41, 127
6, 81840, Note_off_c, 6, 41, 80
6, 81840, Note_on_c, 6, 40, 127
6, 82020, Note_off_c, 6, 40, 80
6, 82080, Note_on_c, 6, 43, 127
6, 82320, Note_off_c, 6, 43, 80
6, 82320, Note_on_c, 6, 40, 127
6, 82560, Note_off_c, 6, 40, 80
6, 82560, Note_on_c, 6, 45, 111
6, 82920, Note_off_c, 6, 45, 80
6, 83040, Note_on_c, 6, 45, 111
6, 83160, Note_off_c, 6, 45, 80
6, 83280, Note_on_c, 6, 45, 127
6, 83400, Note_off_c, 6, 45, 80
6, 83400, Note_on_c, 6, 28, 127
6, 83520, Note_off_c, 6, 28, 80
6, 83520, Note_on_c, 6, 48, 95
6, 83640, Note_off_c, 6, 48, 80
6, 83760, Note_on_c, 6, 40, 127
6, 84000, Note_off_c, 6, 40, 80
6, 84000, Note_on_c, 6, 45, 127
6, 84240, Note_off_c, 6, 45, 80
6, 84240, Note_on_c, 6, 43, 127
6, 84960, Note_off_c, 6, 43, 80
6, 84960, Note_on_c, 6, 36, 127
6, 85200, Note_off_c, 6, 36, 80
6, 85200, Note_on_c, 6, 38, 127
6, 85440, Note_off_c, 6, 38, 80
6, 85440, Note_on_c, 6, 40, 127
6, 85680, Note_off_c, 6, 40, 80
6, 85680, Note_on_c, 6, 41, 127
6, 85920, Note_off_c, 6, 41, 80
6, 85920, Note_on_c, 6, 43, 127
6, 86160, Note_off_c, 6, 43, 80
6, 86160, Note_on_c, 6, 45, 127
6, 86400, Note_off_c, 6, 45, 80
6, 86400, Program_c, 6, 39
6, 86400, Program_c, 7, 39
6, 86400, Control_c, 6, 7, 112
6, 86400, Control_c, 7, 7, 112
6, 86400, Note_on_c, 6, 38, 127
6, 86640, Note_off_c, 6, 38, 80
6, 86640, Note_on_c, 6, 33, 127
6, 86660, Note_off_c, 6, 33, 80
6, 86760, Note_on_c, 6, 38, 127
6, 86880, Note_off_c, 6, 38, 80
6, 86880, Note_on_c, 6, 38, 127
6, 87240, Note_off_c, 6, 38, 80
6, 87240, Note_on_c, 6, 48, 127
6, 87270, Note_off_c, 6, 48, 80
6, 87360, Note_on_c, 6, 24, 127
6, 87420, Note_off_c, 6, 24, 80
6, 87480, Note_on_c, 6, 31, 127
6, 87540, Note_off_c, 6, 31, 80
6, 87600, Note_on_c, 6, 41, 127
6, 87720, Note_off_c, 6, 41, 80
6, 87720, Note_on_c, 6, 29, 127
6, 87780, Note_off_c, 6, 29, 80
6, 87870, Note_on_c, 7, 48, 111
6, 87870, Pitch_bend_c, 7, 8192
6, 87886, Pitch_bend_c, 7, 8320
6, 87902, Pitch_bend_c, 7, 8448
6, 87934, Pitch_bend_c, 7, 8576
6, 87950, Pitch_bend_c, 7, 8704
6, 87966, Pitch_bend_c, 7, 8832
6, 87982, Pitch_bend_c, 7, 8960
6, 88014, Pitch_bend_c, 7, 9088
6, 88030, Pitch_bend_c, 7, 9216
6, 88046, Pitch_bend_c, 7, 9344
6, 88062, Pitch_bend_c, 7, 9472
6, 88078, Pitch_bend_c, 7, 9600
6, 88290, Note_off_c, 7, 48, 80
6, 88290, Pitch_bend_c, 7, 8192
6, 88320, Note_on_c, 6, 36, 127
6, 88500, Note_off_c, 6, 36, 80
6, 88560, Note_on_c, 6, 28, 95
6, 88580, Note_off_c, 6, 28, 80
6, 88680, Note_on_c, 6, 36, 127
6, 88800, Note_off_c, 6, 36, 80
6, 88800, Note_on_c, 6, 36, 127
6, 89040, Note_off_c, 6, 36, 80
6, 89160, Note_on_c, 6, 36, 127
6, 89280, Note_off_c, 6, 36, 80
6, 89280, Note_on_c, 6, 36, 95
6, 89400, Note_off_c, 6, 36, 80
6, 89400, Note_on_c, 6, 23, 127
6, 89420, Note_off_c, 6, 23, 80
6, 89520, Note_on_c, 6, 55, 127
6, 89610, Note_off_c, 6, 55, 80
6, 89640, Note_on_c, 6, 53, 111
6, 89700, Note_off_c, 6, 53, 80
6, 89760, Pitch_bend_c, 7, 8192
6, 89760, Note_on_c, 7, 52, 127
6, 89984, Pitch_bend_c, 7, 8064
6, 90016, Pitch_bend_c, 7, 7936
6, 90032, Pitch_bend_c, 7, 7808
6, 90048, Pitch_bend_c, 7, 7680
6, 90064, Pitch_bend_c, 7, 7552
6, 90080, Pitch_bend_c, 7, 7424
6, 90112, Pitch_bend_c, 7, 7296
6, 90128, Pitch_bend_c, 7, 7168
6, 90144, Pitch_bend_c, 7, 7040
6, 90160, Pitch_bend_c, 7, 6912
6, 90180, Pitch_bend_c, 7, 8192
6, 90180, Note_off_c, 7, 52, 80
6, 90240, Note_on_c, 6, 38, 127
6, 90480, Note_off_c, 6, 38, 80
6, 90480, Note_on_c, 6, 33, 127
6, 90500, Note_off_c, 6, 33, 80
6, 90600, Note_on_c, 6, 38, 127
6, 90720, Note_off_c, 6, 38, 80
6, 90720, Note_on_c, 6, 38, 127
6, 90960, Note_off_c, 6, 38, 80
6, 90960, Note_on_c, 6, 33, 127
6, 90980, Note_off_c, 6, 33, 80
6, 91080, Note_on_c, 6, 50, 127
6, 91140, Note_off_c, 6, 50, 80
6, 91200, Note_on_c, 6, 31, 127
6, 91260, Note_off_c, 6, 31, 80
6, 91320, Note_on_c, 6, 36, 127
6, 91380, Note_off_c, 6, 36, 80
6, 91440, Note_on_c, 6, 41, 127
6, 91500, Note_off_c, 6, 41, 80
6, 91560, Note_on_c, 6, 35, 127
6, 91680, Note_off_c, 6, 35, 80
6, 91680, Note_on_c, 6, 48, 127
6, 91860, Note_off_c, 6, 48, 80
6, 91920, Note_on_c, 6, 50, 111
6, 92040, Note_off_c, 6, 50, 80
6, 92160, Note_on_c, 6, 36, 127
6, 92400, Note_off_c, 6, 36, 80
6, 92400, Note_on_c, 6, 28, 127
6, 92420, Note_off_c, 6, 28, 80
6, 92520, Note_on_c, 6, 36, 127
6, 92640, Note_off_c, 6, 36, 80
6, 92640, Note_on_c, 6, 36, 127
6, 92880, Note_off_c, 6, 36, 80
6, 92880, Note_on_c, 6, 33, 127
6, 92900, Note_off_c, 6, 33, 80
6, 93000, Note_on_c, 6, 40, 95
6, 93060, Note_off_c, 6, 40, 80
6, 93120, Note_on_c, 6, 40, 127
6, 93240, Note_off_c, 6, 40, 80
6, 93240, Note_on_c, 6, 40, 127
6, 93360, Note_off_c, 6, 40, 80
6, 93360, Note_on_c, 6, 40, 111
6, 93480, Note_off_c, 6, 40, 80
6, 93480, Note_on_c, 6, 40, 127
6, 93540, Note_off_c, 6, 40, 80
6, 93600, Note_on_c, 6, 41, 127
6, 93720, Note_off_c, 6, 41, 80
6, 93840, Note_on_c, 6, 43, 111
6, 93960, Note_off_c, 6, 43, 80
6, 94080, Note_on_c, 6, 38, 111
6, 94320, Note_off_c, 6, 38, 80
6, 94320, Note_on_c, 6, 33, 127
6, 94340, Note_off_c, 6, 33, 80
6, 94440, Note_on_c, 6, 38, 127
6, 94560, Note_off_c, 6, 38, 80
6, 94560, Note_on_c, 6, 38, 127
6, 94680, Note_off_c, 6, 38, 80
6, 94800, Note_on_c, 6, 43, 95
6, 94820, Note_off_c, 6, 43, 80
6, 94920, Note_on_c, 6, 50, 127
6, 95010, Note_off_c, 6, 50, 80
6, 95040, Note_on_c, 6, 31, 127
6, 95100, Note_off_c, 6, 31, 80
6, 95160, Note_on_c, 6, 40, 127
6, 95250, Note_off_c, 6, 40, 80
6, 95280, Note_on_c, 6, 41, 127
6, 95340, Note_off_c, 6, 41, 80
6, 95400, Note_on_c, 6, 35, 127
6, 95430, Note_off_c, 6, 35, 80
6, 95520, Note_on_c, 6, 50, 111
6, 95700, Note_off_c, 6, 50, 80
6, 95760, Note_on_c, 6, 48, 127
6, 95880, Note_off_c, 6, 48, 80
6, 96000, Note_on_c, 6, 36, 127
6, 96240, Note_off_c, 6, 36, 80
6, 96240, Note_on_c, 6, 33, 127
6, 96260, Note_off_c, 6, 33, 80
6, 96360, Note_on_c, 6, 36, 127
6, 96480, Note_off_c, 6, 36, 80
6, 96480, Note_on_c, 6, 36, 127
6, 96840, Note_off_c, 6, 36, 80
6, 96840, Note_on_c, 6, 38, 127
6, 96860, Note_off_c, 6, 38, 80
6, 96960, Note_on_c, 6, 48, 95
6, 97020, Note_off_c, 6, 48, 80
6, 97080, Note_on_c, 6, 48, 111
6, 97200, Note_off_c, 6, 48, 80
6, 97200, Note_on_c, 6, 55, 111
6, 97260, Note_off_c, 6, 55, 80
6, 97320, Note_on_c, 6, 53, 127
6, 97380, Note_off_c, 6, 53, 80
6, 97440, Pitch_bend_c, 7, 8192
6, 97440, Note_on_c, 7, 52, 111
6, 97600, Pitch_bend_c, 7, 8064
6, 97616, Pitch_bend_c, 7, 7936
6, 97632, Pitch_bend_c, 7, 7808
6, 97648, Pitch_bend_c, 7, 7680
6, 97664, Pitch_bend_c, 7, 7552
6, 97680, Pitch_bend_c, 7, 7424
6, 97696, Pitch_bend_c, 7, 7296
6, 97712, Pitch_bend_c, 7, 7040
6, 97728, Pitch_bend_c, 7, 6912
6, 97740, Pitch_bend_c, 7, 8192
6, 97740, Note_off_c, 7, 52, 80
6, 97920, Note_on_c, 6, 36, 127
6, 98160, Note_off_c, 6, 36, 80
6, 98160, Note_on_c, 6, 36, 127
6, 98400, Note_off_c, 6, 36, 80
6, 98400, Note_on_c, 6, 36, 127
6, 98640, Note_off_c, 6, 36, 80
6, 98640, Note_on_c, 6, 36, 127
6, 98880, Note_off_c, 6, 36, 80
6, 98880, Note_on_c, 6, 38, 127
6, 99120, Note_off_c, 6, 38, 80
6, 99120, Note_on_c, 6, 38, 127
6, 99360, Note_off_c, 6, 38, 80
6, 99360, Note_on_c, 6, 38, 127
6, 99600, Note_off_c, 6, 38, 80
6, 99600, Note_on_c, 6, 38, 127
6, 99840, Note_off_c, 6, 38, 80
6, 99840, Note_on_c, 6, 41, 127
6, 100080, Note_off_c, 6, 41, 80
6, 100080, Note_on_c, 6, 41, 127
6, 100320, Note_off_c, 6, 41, 80
6, 100320, Note_on_c, 6, 41, 127
6, 100560, Note_off_c, 6, 41, 80
6, 100560, Note_on_c, 6, 41, 127
6, 100800, Note_off_c, 6, 41, 80
6, 100800, Note_on_c, 6, 43, 127
6, 101040, Note_off_c, 6, 43, 80
6, 101040, Note_on_c, 6, 40, 127
6, 101280, Note_off_c, 6, 40, 80
6, 101280, Note_on_c, 6, 43, 127
6, 101520, Note_off_c, 6, 43, 80
6, 101520, Note_on_c, 6, 40, 127
6, 101640, Note_off_c, 6, 40, 80
6, 101760, Program_c, 6, 32
6, 101760, Program_c, 7, 32
6, 101760, Note_on_c, 6, 45, 127
6, 102000, Note_off_c, 6, 45, 80
6, 102240, Note_on_c, 6, 45, 111
6, 102480, Note_off_c, 6, 45, 80
6, 102480, Note_on_c, 6, 40, 111
6, 102720, Note_off_c, 6, 40, 80
6, 102720, Note_on_c, 6, 45, 95
6, 102840, Note_off_c, 6, 45, 80
6, 102960, Note_on_c, 6, 40, 95
6, 103200, Note_off_c, 6, 40, 80
6, 103200, Note_on_c, 6, 33, 127
6, 103440, Note_off_c, 6, 33, 80
6, 103440, Note_on_c, 6, 43, 111
6, 103800, Note_off_c, 6, 43, 80
6, 103920, Note_on_c, 6, 41, 127
6, 104040, Note_off_c, 6, 41, 80
6, 104160, Note_on_c, 6, 41, 127
6, 104880, Note_off_c, 6, 41, 80
6, 104880, Note_on_c, 6, 40, 127
6, 105060, Note_off_c, 6, 40, 80
6, 105120, Note_on_c, 6, 43, 127
6, 105360, Note_off_c, 6, 43, 80
6, 105360, Note_on_c, 6, 40, 127
6, 105600, Note_off_c, 6, 40, 80
6, 105600, Note_on_c, 6, 45, 111
6, 105960, Note_off_c, 6, 45, 80
6, 106080, Note_on_c, 6, 45, 111
6, 106200, Note_off_c, 6, 45, 80
6, 106320, Note_on_c, 6, 45, 127
6, 106440, Note_off_c, 6, 45, 80
6, 106440, Note_on_c, 6, 28, 127
6, 106560, Note_off_c, 6, 28, 80
6, 106560, Note_on_c, 6, 48, 95
6, 106680, Note_off_c, 6, 48, 80
6, 106800, Note_on_c, 6, 40, 127
6, 107040, Note_off_c, 6, 40, 80
6, 107040, Note_on_c, 6, 45, 127
6, 107280, Note_off_c, 6, 45, 80
6, 107280, Note_on_c, 6, 43, 127
6, 108000, Note_off_c, 6, 43, 80
6, 108000, Note_on_c, 6, 43, 127
6, 108240, Note_off_c, 6, 43, 80
6, 108240, Note_on_c, 6, 43, 127
6, 108360, Note_off_c, 6, 43, 80
6, 108360, Note_on_c, 6, 43, 127
6, 108480, Note_off_c, 6, 43, 80
6, 108480, Note_on_c, 6, 43, 127
6, 109440, Note_off_c, 6, 43, 80
6, 109440, Note_on_c, 6, 45, 111
6, 109680, Note_off_c, 6, 45, 80
6, 109920, Note_on_c, 6, 45, 111
6, 110160, Note_off_c, 6, 45, 80
6, 110160, Note_on_c, 6, 40, 111
6, 110400, Note_off_c, 6, 40, 80
6, 110400, Note_on_c, 6, 45, 95
6, 110520, Note_off_c, 6, 45, 80
6, 110640, Note_on_c, 6, 40, 95
6, 110880, Note_off_c, 6, 40, 80
6, 110880, Note_on_c, 6, 33, 127
6, 111120, Note_off_c, 6, 33, 80
6, 111120, Note_on_c, 6, 43, 111
6, 111480, Note_off_c, 6, 43, 80
6, 111600, Note_on_c, 6, 41, 127
6, 111720, Note_off_c, 6, 41, 80
6, 111840, Note_on_c, 6, 41, 127
6, 112560, Note_off_c, 6, 41, 80
6, 112560, Note_on_c, 6, 40, 127
6, 112740, Note_off_c, 6, 40, 80
6, 112800, Note_on_c, 6, 43, 127
6, 113040, Note_off_c, 6, 43, 80
6, 113040, Note_on_c, 6, 40, 127
6, 113280, Note_off_c, 6, 40, 80
6, 113280, Note_on_c, 6, 45, 111
6, 113640, Note_off_c, 6, 45, 80
6, 113760, Note_on_c, 6, 45, 111
6, 113880, Note_off_c, 6, 45, 80
6, 114000, Note_on_c, 6, 45, 127
6, 114120, Note_off_c, 6, 45, 80
6, 114120, Note_on_c, 6, 28, 127
6, 114240, Note_off_c, 6, 28, 80
6, 114240, Note_on_c, 6, 48, 95
6, 114360, Note_off_c, 6, 48, 80
6, 114480, Note_on_c, 6, 40, 127
6, 114720, Note_off_c, 6, 40, 80
6, 114720, Note_on_c, 6, 45, 127
6, 114960, Note_off_c, 6, 45, 80
6, 114960, Note_on_c, 6, 43, 127
6, 115680, Note_off_c, 6, 43, 80
6, 115680, Note_on_c, 6, 43, 127
6, 115920, Note_off_c, 6, 43, 80
6, 115920, Note_on_c, 6, 43, 127
6, 116040, Note_off_c, 6, 43, 80
6, 116040, Note_on_c, 6, 43, 127
6, 116160, Note_off_c, 6, 43, 80
6, 116160, Note_on_c, 6, 43, 127
6, 117120, Note_off_c, 6, 43, 80
6, 117120, Note_on_c, 6, 45, 111
6, 117360, Note_off_c, 6, 45, 80
6, 117600, Note_on_c, 6, 45, 111
6, 117840, Note_off_c, 6, 45, 80
6, 117840, Note_on_c, 6, 40, 111
6, 118080, Note_off_c, 6, 40, 80
6, 118080, Note_on_c, 6, 45, 95
6, 118200, Note_off_c, 6, 45, 80
6, 118320, Note_on_c, 6, 40, 95
6, 118560, Note_off_c, 6, 40, 80
6, 118560, Note_on_c, 6, 33, 127
6, 118800, Note_off_c, 6, 33, 80
6, 118800, Note_on_c, 6, 43, 111
6, 119160, Note_off_c, 6, 43, 80
6, 119280, Note_on_c, 6, 41, 127
6, 119400, Note_off_c, 6, 41, 80
6, 119520, Note_on_c, 6, 41, 127
6, 120240, Note_off_c, 6, 41, 80
6, 120240, Note_on_c, 6, 40, 127
6, 120420, Note_off_c, 6, 40, 80
6, 120480, Note_on_c, 6, 43, 127
6, 120720, Note_off_c, 6, 43, 80
6, 120720, Note_on_c, 6, 40, 127
6, 120960, Note_off_c, 6, 40, 80
6, 120960, Note_on_c, 6, 45, 111
6, 121320, Note_off_c, 6, 45, 80
6, 121440, Note_on_c, 6, 45, 111
6, 121560, Note_off_c, 6, 45, 80
6, 121680, Note_on_c, 6, 45, 127
6, 121800, Note_off_c, 6, 45, 80
6, 121800, Note_on_c, 6, 28, 127
6, 121920, Note_off_c, 6, 28, 80
6, 121920, Note_on_c, 6, 48, 127
6, 122040, Note_off_c, 6, 48, 80
6, 122160, Note_on_c, 6, 40, 127
6, 122400, Note_off_c, 6, 40, 80
6, 122400, Note_on_c, 6, 45, 127
6, 122640, Note_off_c, 6, 45, 80
6, 122640, Note_on_c, 6, 43, 127
6, 123360, Note_off_c, 6, 43, 80
6, 123360, Note_on_c, 6, 43, 127
6, 123600, Note_off_c, 6, 43, 80
6, 123600, Note_on_c, 6, 43, 127
6, 123720, Note_off_c, 6, 43, 80
6, 123720, Note_on_c, 6, 43, 127
6, 123840, Note_off_c, 6, 43, 80
6, 123840, Note_on_c, 6, 43, 127
6, 124800, Note_off_c, 6, 43, 80
6, 124800, Note_on_c, 6, 45, 111
6, 125040, Note_off_c, 6, 45, 80
6, 125280, Note_on_c, 6, 45, 111
6, 125520, Note_off_c, 6, 45, 80
6, 125520, Note_on_c, 6, 40, 111
6, 125760, Note_off_c, 6, 40, 80
6, 125760, Note_on_c, 6, 45, 95
6, 125880, Note_off_c, 6, 45, 80
6, 126000, Note_on_c, 6, 40, 95
6, 126240, Note_off_c, 6, 40, 80
6, 126240, Note_on_c, 6, 33, 127
6, 126480, Note_off_c, 6, 33, 80
6, 126480, Note_on_c, 6, 43, 111
6, 126840, Note_off_c, 6, 43, 80
6, 126960, Note_on_c, 6, 41, 127
6, 127080, Note_off_c, 6, 41, 80
6, 127200, Note_on_c, 6, 41, 127
6, 127920, Note_off_c, 6, 41, 80
6, 127920, Note_on_c, 6, 40, 127
6, 128100, Note_off_c, 6, 40, 80
6, 128160, Note_on_c, 6, 43, 127
6, 128400, Note_off_c, 6, 43, 80
6, 128400, Note_on_c, 6, 40, 127
6, 128640, Note_off_c, 6, 40, 80
6, 128640, Note_on_c, 6, 45, 111
6, 129000, Note_off_c, 6, 45, 80
6, 129120, Note_on_c, 6, 45, 111
6, 129240, Note_off_c, 6, 45, 80
6, 129360, Note_on_c, 6, 45, 127
6, 129480, Note_off_c, 6, 45, 80
6, 129480, Note_on_c, 6, 28, 127
6, 129600, Note_off_c, 6, 28, 80
6, 129600, Note_on_c, 6, 48, 127
6, 129720, Note_off_c, 6, 48, 80
6, 129840, Note_on_c, 6, 40, 127
6, 130080, Note_off_c, 6, 40, 80
6, 130080, Note_on_c, 6, 45, 127
6, 130320, Note_off_c, 6, 45, 80
6, 130320, Note_on_c, 6, 43, 127
6, 131520, Note_off_c, 6, 43, 80
6, 131760, Note_on_c, 6, 40, 127
6, 132000, Note_off_c, 6, 40, 80
6, 132000, Note_on_c, 6, 41, 127
6, 132240, Note_off_c, 6, 41, 80
6, 132240, Note_on_c, 6, 45, 127
6, 132480, Note_off_c, 6, 45, 80
6, 132480, Note_on_c, 6, 45, 111
6, 132720, Note_off_c, 6, 45, 80
6, 132960, Note_on_c, 6, 45, 111
6, 133200, Note_off_c, 6, 45, 80
6, 133200, Note_on_c, 6, 40, 111
6, 133440, Note_off_c, 6, 40, 80
6, 133440, Note_on_c, 6, 45, 95
6, 133560, Note_off_c, 6, 45, 80
6, 133680, Note_on_c, 6, 40, 95
6, 133920, Note_off_c, 6, 40, 80
6, 133920, Note_on_c, 6, 33, 127
6, 134160, Note_off_c, 6, 33, 80
6, 134160, Note_on_c, 6, 43, 111
6, 134520, Note_off_c, 6, 43, 80
6, 134640, Note_on_c, 6, 41, 127
6, 134760, Note_off_c, 6, 41, 80
6, 134880, Note_on_c, 6, 41, 127
6, 135600, Note_off_c, 6, 41, 80
6, 135600, Note_on_c, 6, 40, 127
6, 135780, Note_off_c, 6, 40, 80
6, 135840, Note_on_c, 6, 43, 127
6, 136080, Note_off_c, 6, 43, 80
6, 136080, Note_on_c, 6, 40, 127
6, 136320, Note_off_c, 6, 40, 80
6, 136320, Note_on_c, 6, 45, 111
6, 136680, Note_off_c, 6, 45, 80
6, 136800, Note_on_c, 6, 45, 111
6, 136920, Note_off_c, 6, 45, 80
6, 137040, Note_on_c, 6, 45, 127
6, 137160, Note_off_c, 6, 45, 80
6, 137160, Note_on_c, 6, 28, 127
6, 137280, Note_off_c, 6, 28, 80
6, 137280, Note_on_c, 6, 48, 127
6, 137400, Note_off_c, 6, 48, 80
6, 137520, Note_on_c, 6, 40, 127
6, 137760, Note_off_c, 6, 40, 80
6, 137760, Note_on_c, 6, 45, 127
6, 138000, Note_off_c, 6, 45, 80
6, 138000, Note_on_c, 6, 43, 127
6, 138720, Note_off_c, 6, 43, 80
6, 138720, Note_on_c, 6, 43, 127
6, 138960, Note_off_c, 6, 43, 80
6, 138960, Note_on_c, 6, 43, 127
6, 139080, Note_off_c, 6, 43, 80
6, 139080, Note_on_c, 6, 43, 127
6, 139200, Note_off_c, 6, 43, 80
6, 139200, Note_on_c, 6, 43, 127
6, 140160, Note_off_c, 6, 43, 80
6, 140160, Note_on_c, 6, 45, 111
6, 140400, Note_off_c, 6, 45, 80
6, 140640, Note_on_c, 6, 45, 111
6, 140880, Note_off_c, 6, 45, 80
6, 140880, Note_on_c, 6, 40, 111
6, 141120, Note_off_c, 6, 40, 80
6, 141120, Note_on_c, 6, 45, 95
6, 141240, Note_off_c, 6, 45, 80
6, 141360, Note_on_c, 6, 40, 95
6, 141600, Note_off_c, 6, 40, 80
6, 141600, Note_on_c, 6, 33, 127
6, 141840, Note_off_c, 6, 33, 80
6, 141840, Note_on_c, 6, 43, 111
6, 142200, Note_off_c, 6, 43, 80
6, 142320, Note_on_c, 6, 41, 127
6, 142440, Note_off_c, 6, 41, 80
6, 142560, Note_on_c, 6, 41, 127
6, 143280, Note_off_c, 6, 41, 80
6, 143280, Note_on_c, 6, 40, 127
6, 143460, Note_off_c, 6, 40, 80
6, 143520, Note_on_c, 6, 43, 127
6, 143760, Note_off_c, 6, 43, 80
6, 143760, Note_on_c, 6, 40, 127
6, 144000, Note_off_c, 6, 40, 80
6, 144000, Note_on_c, 6, 31, 127
6, 144120, Note_off_c, 6, 31, 80
6, 144240, Note_on_c, 6, 31, 127
6, 144360, Note_off_c, 6, 31, 80
6, 144480, Note_on_c, 6, 31, 127
6, 144600, Note_off_c, 6, 31, 80
6, 144720, Note_on_c, 6, 31, 127
6, 144840, Note_off_c, 6, 31, 80
6, 144960, Note_on_c, 6, 31, 127
6, 145080, Note_off_c, 6, 31, 80
6, 145200, Note_on_c, 6, 31, 127
6, 145320, Note_off_c, 6, 31, 80
6, 145440, Note_on_c, 6, 31, 127
6, 145560, Note_off_c, 6, 31, 80
6, 145680, Note_on_c, 6, 31, 127
6, 145800, Note_off_c, 6, 31, 80
6, 145920, Note_on_c, 6, 31, 127
6, 146040, Note_off_c, 6, 31, 80
6, 146160, Note_on_c, 6, 31, 127
6, 146280, Note_off_c, 6, 31, 80
6, 146400, Note_on_c, 6, 31, 127
6, 146520, Note_off_c, 6, 31, 80
6, 146640, Note_on_c, 6, 31, 127
6, 146760, Note_off_c, 6, 31, 80
6, 146880, Note_on_c, 6, 31, 127
6, 147000, Note_off_c, 6, 31, 80
6, 147120, Note_on_c, 6, 31, 127
6, 147240, Note_off_c, 6, 31, 80
6, 147360, Note_on_c, 6, 31, 127
6, 147480, Note_off_c, 6, 31, 80
6, 147600, Note_on_c, 6, 31, 127
6, 147720, Note_off_c, 6, 31, 80
6, 147840, Note_on_c, 6, 31, 127
6, 147960, Note_off_c, 6, 31, 80
6, 148080, Control_c, 6, 7, 110
6, 148080, Control_c, 7, 7, 110
6, 148080, Note_on_c, 6, 31, 127
6, 148200, Control_c, 6, 7, 108
6, 148200, Control_c, 7, 7, 108
6, 148200, Note_off_c, 6, 31, 80
6, 148320, Control_c, 6, 7, 106
6, 148320, Control_c, 7, 7, 106
6, 148320, Note_on_c, 6, 31, 127
6, 148440, Control_c, 6, 7, 105
6, 148440, Control_c, 7, 7, 105
6, 148440, Note_off_c, 6, 31, 80
6, 148560, Control_c, 6, 7, 103
6, 148560, Control_c, 7, 7, 103
6, 148560, Note_on_c, 6, 31, 127
6, 148680, Control_c, 6, 7, 101
6, 148680, Control_c, 7, 7, 101
6, 148680, Note_off_c, 6, 31, 80
6, 148800, Control_c, 6, 7, 99
6, 148800, Control_c, 7, 7, 99
6, 148800, Note_on_c, 6, 31, 127
6, 148920, Control_c, 6, 7, 97
6, 148920, Control_c, 7, 7, 97
6, 148920, Note_off_c, 6, 31, 80
6, 149040, Control_c, 6, 7, 95
6, 149040, Control_c, 7, 7, 95
6, 149040, Note_on_c, 6, 31, 127
6, 149160, Control_c, 6, 7, 94
6, 149160, Control_c, 7, 7, 94
6, 149160, Note_off_c, 6, 31, 80
6, 149280, Control_c, 6, 7, 92
6, 149280, Control_c, 7, 7, 92
6, 149280, Note_on_c, 6, 31, 127
6, 149400, Control_c, 6, 7, 90
6, 149400, Control_c, 7, 7, 90
6, 149400, Note_off_c, 6, 31, 80
6, 149520, Control_c, 6, 7, 88
6, 149520, Control_c, 7, 7, 88
6, 149520, Note_on_c, 6, 31, 127
6, 149640, Control_c, 6, 7, 86
6, 149640, Control_c, 7, 7, 86
6, 149640, Note_off_c, 6, 31, 80
6, 149760, Control_c, 6, 7, 84
6, 149760, Control_c, 7, 7, 84
6, 149760, Note_on_c, 6, 31, 127
6, 149880, Control_c, 6, 7, 83
6, 149880, Control_c, 7, 7, 83
6, 149880, Note_off_c, 6, 31, 80
6, 150000, Control_c, 6, 7, 81
6, 150000, Control_c, 7, 7, 81
6, 150000, Note_on_c, 6, 31, 127
6, 150120, Control_c, 6, 7, 79
6, 150120, Control_c, 7, 7, 79
6, 150120, Note_off_c, 6, 31, 80
6, 150240, Control_c, 6, 7, 77
6, 150240, Control_c, 7, 7, 77
6, 150240, Note_on_c, 6, 31, 127
6, 150360, Control_c, 6, 7, 75
6, 150360, Control_c, 7, 7, 75
6, 150360, Note_off_c, 6, 31, 80
6, 150480, Control_c, 6, 7, 73
6, 150480, Control_c, 7, 7, 73
6, 150480, Note_on_c, 6, 31, 127
6, 150600, Control_c, 6, 7, 72
6, 150600, Control_c, 7, 7, 72
6, 150600, Note_off_c, 6, 31, 80
6, 150720, Control_c, 6, 7, 70
6, 150720, Control_c, 7, 7, 70
6, 150720, Note_on_c, 6, 31, 127
6, 150840, Control_c, 6, 7, 68
6, 150840, Control_c, 7, 7, 68
6, 150840, Note_off_c, 6, 31, 80
6, 150960, Control_c, 6, 7, 66
6, 150960, Control_c, 7, 7, 66
6, 150960, Note_on_c, 6, 31, 127
6, 151080, Control_c, 6, 7, 64
6, 151080, Control_c, 7, 7, 64
6, 151080, Note_off_c, 6, 31, 80
6, 151200, Control_c, 6, 7, 62
6, 151200, Control_c, 7, 7, 62
6, 151200, Note_on_c, 6, 31, 127
6, 151320, Control_c, 6, 7, 61
6, 151320, Control_c, 7, 7, 61
6, 151320, Note_off_c, 6, 31, 80
6, 151440, Control_c, 6, 7, 59
6, 151440, Control_c, 7, 7, 59
6, 151440, Note_on_c, 6, 31, 127
6, 151560, Control_c, 6, 7, 57
6, 151560, Control_c, 7, 7, 57
6, 151560, Note_off_c, 6, 31, 80
6, 151680, Control_c, 6, 7, 55
6, 151680, Control_c, 7, 7, 55
6, 151680, Note_on_c, 6, 31, 127
6, 151800, Control_c, 6, 7, 53
6, 151800, Control_c, 7, 7, 53
6, 151800, Note_off_c, 6, 31, 80
6, 151920, Control_c, 6, 7, 51
6, 151920, Control_c, 7, 7, 51
6, 151920, Note_on_c, 6, 31, 127
6, 152040, Control_c, 6, 7, 50
6, 152040, Control_c, 7, 7, 50
6, 152040, Note_off_c, 6, 31, 80
6, 152160, Control_c, 6, 7, 48
6, 152160, Control_c, 7, 7, 48
6, 152160, Note_on_c, 6, 31, 127
6, 152280, Control_c, 6, 7, 46
6, 152280, Control_c, 7, 7, 46
6, 152280, Note_off_c, 6, 31, 80
6, 152400, Control_c, 6, 7, 44
6, 152400, Control_c, 7, 7, 44
6, 152400, Note_on_c, 6, 31, 127
6, 152520, Control_c, 6, 7, 42
6, 152520, Control_c, 7, 7, 42
6, 152520, Note_off_c, 6, 31, 80
6, 152640, Control_c, 6, 7, 40
6, 152640, Control_c, 7, 7, 40
6, 152640, Note_on_c, 6, 31, 127
6, 152760, Control_c, 6, 7, 39
6, 152760, Control_c, 7, 7, 39
6, 152760, Note_off_c, 6, 31, 80
6, 152880, Control_c, 6, 7, 37
6, 152880, Control_c, 7, 7, 37
6, 152880, Note_on_c, 6, 31, 127
6, 153000, Control_c, 6, 7, 35
6, 153000, Control_c, 7, 7, 35
6, 153000, Note_off_c, 6, 31, 80
6, 153120, Control_c, 6, 7, 33
6, 153120, Control_c, 7, 7, 33
6, 153120, Note_on_c, 6, 31, 127
6, 153240, Control_c, 6, 7, 31
6, 153240, Control_c, 7, 7, 31
6, 153240, Note_off_c, 6, 31, 80
6, 153360, Control_c, 6, 7, 29
6, 153360, Control_c, 7, 7, 29
6, 153360, Note_on_c, 6, 31, 127
6, 153480, Control_c, 6, 7, 28
6, 153480, Control_c, 7, 7, 28
6, 153480, Note_off_c, 6, 31, 80
6, 153600, Control_c, 6, 7, 26
6, 153600, Control_c, 7, 7, 26
6, 153600, Note_on_c, 6, 31, 127
6, 153720, Control_c, 6, 7, 24
6, 153720, Control_c, 7, 7, 24
6, 153720, Note_off_c, 6, 31, 80
6, 153840, Control_c, 6, 7, 22
6, 153840, Control_c, 7, 7, 22
6, 153840, Note_on_c, 6, 31, 127
6, 153960, Control_c, 6, 7, 20
6, 153960, Control_c, 7, 7, 20
6, 153960, Note_off_c, 6, 31, 80
6, 154080, Control_c, 6, 7, 18
6, 154080, Control_c, 7, 7, 18
6, 154080, Note_on_c, 6, 31, 127
6, 154200, Control_c, 6, 7, 17
6, 154200, Control_c, 7, 7, 17
6, 154200, Note_off_c, 6, 31, 80
6, 154320, Control_c, 6, 7, 15
6, 154320, Control_c, 7, 7, 15
6, 154320, Note_on_c, 6, 31, 127
6, 154440, Control_c, 6, 7, 13
6, 154440, Control_c, 7, 7, 13
6, 154440, Note_off_c, 6, 31, 80
6, 154560, Control_c, 6, 7, 11
6, 154560, Control_c, 7, 7, 11
6, 154560, Note_on_c, 6, 31, 127
6, 154680, Control_c, 6, 7, 9
6, 154680, Control_c, 7, 7, 9
6, 154680, Note_off_c, 6, 31, 80
6, 154800, Control_c, 6, 7, 7
6, 154800, Control_c, 7, 7, 7
6, 154800, Note_on_c, 6, 31, 127
6, 154920, Control_c, 6, 7, 6
6, 154920, Control_c, 7, 7, 6
6, 154920, Note_off_c, 6, 31, 80
6, 155040, Control_c, 6, 7, 4
6, 155040, Control_c, 7, 7, 4
6, 155040, Note_on_c, 6, 31, 127
6, 155160, Control_c, 6, 7, 2
6, 155160, Control_c, 7, 7, 2
6, 155160, Note_off_c, 6, 31, 80
6, 155280, Control_c, 6, 7, 0
6, 155280, Control_c, 7, 7, 0
6, 155280, Note_on_c, 6, 31, 127
6, 155400, Note_off_c, 6, 31, 80
6, 155400, End_track
7, 0, Start_track
7, 0, Title_t, "Percussion"
7, 0, Control_c, 9, 100, 0
7, 0, Control_c, 9, 101, 0
7, 0, Control_c, 9, 6, 12
7, 0, Pitch_bend_c, 9, 8192
7, 0, Program_c, 9, 0
7, 0, Control_c, 9, 7, 96
7, 0, Control_c, 9, 10, 64
7, 0, Control_c, 9, 93, 16
7, 0, Control_c, 9, 91, 0
7, 0, Control_c, 9, 92, 16
7, 0, Control_c, 9, 95, 0
7, 1920, Note_on_c, 9, 41, 95
7, 1920, Note_on_c, 9, 47, 95
7, 2400, Note_off_c, 9, 41, 80
7, 2400, Note_off_c, 9, 47, 80
7, 2880, Note_on_c, 9, 41, 95
7, 2880, Note_on_c, 9, 47, 95
7, 3360, Note_off_c, 9, 41, 80
7, 3360, Note_off_c, 9, 47, 80
7, 3840, Note_on_c, 9, 41, 95
7, 3840, Note_on_c, 9, 47, 95
7, 4320, Note_off_c, 9, 41, 80
7, 4320, Note_off_c, 9, 47, 80
7, 4800, Note_on_c, 9, 41, 95
7, 4800, Note_on_c, 9, 47, 95
7, 5280, Note_off_c, 9, 41, 80
7, 5280, Note_off_c, 9, 47, 80
7, 5760, Note_on_c, 9, 41, 95
7, 5760, Note_on_c, 9, 47, 95
7, 6240, Note_off_c, 9, 41, 80
7, 6240, Note_off_c, 9, 47, 80
7, 6720, Note_on_c, 9, 41, 95
7, 6720, Note_on_c, 9, 47, 95
7, 7200, Note_off_c, 9, 41, 80
7, 7200, Note_off_c, 9, 47, 80
7, 7680, Note_on_c, 9, 41, 95
7, 7680, Note_on_c, 9, 47, 95
7, 7920, Note_off_c, 9, 41, 80
7, 7920, Note_off_c, 9, 47, 80
7, 7920, Note_on_c, 9, 47, 95
7, 8160, Note_off_c, 9, 47, 80
7, 8160, Note_on_c, 9, 47, 111
7, 8400, Note_off_c, 9, 47, 80
7, 8400, Note_on_c, 9, 47, 95
7, 8640, Note_off_c, 9, 47, 80
7, 8640, Note_on_c, 9, 41, 111
7, 8640, Note_on_c, 9, 47, 111
7, 8880, Note_off_c, 9, 41, 80
7, 8880, Note_off_c, 9, 47, 80
7, 8880, Note_on_c, 9, 47, 111
7, 9120, Note_off_c, 9, 47, 80
7, 9120, Note_on_c, 9, 47, 111
7, 9240, Note_off_c, 9, 47, 80
7, 9240, Note_on_c, 9, 47, 111
7, 9360, Note_off_c, 9, 47, 80
7, 9360, Note_on_c, 9, 47, 111
7, 9480, Note_off_c, 9, 47, 80
7, 9600, Note_on_c, 9, 57, 95
7, 9600, Note_on_c, 9, 49, 95
7, 9600, Note_on_c, 9, 38, 95
7, 9600, Note_on_c, 9, 41, 95
7, 9600, Note_on_c, 9, 36, 127
7, 9660, Note_off_c, 9, 57, 80
7, 9660, Note_off_c, 9, 49, 80
7, 9660, Note_off_c, 9, 38, 80
7, 9660, Note_off_c, 9, 41, 80
7, 9660, Note_off_c, 9, 36, 80
7, 9840, Note_on_c, 9, 36, 95
7, 10080, Note_off_c, 9, 36, 80
7, 10080, Note_on_c, 9, 55, 95
7, 10080, Note_on_c, 9, 40, 95
7, 10080, Note_on_c, 9, 27, 127
7, 10080, Note_on_c, 9, 38, 95
7, 10080, Note_on_c, 9, 41, 95
7, 10080, Note_on_c, 9, 36, 127
7, 10320, Note_off_c, 9, 55, 80
7, 10320, Note_off_c, 9, 40, 80
7, 10320, Note_off_c, 9, 27, 80
7, 10320, Note_off_c, 9, 38, 80
7, 10320, Note_off_c, 9, 41, 80
7, 10320, Note_off_c, 9, 36, 80
7, 10320, Note_on_c, 9, 55, 95
7, 10320, Note_on_c, 9, 59, 95
7, 10320, Note_on_c, 9, 36, 95
7, 10440, Note_off_c, 9, 55, 80
7, 10440, Note_off_c, 9, 59, 80
7, 10440, Note_off_c, 9, 36, 80
7, 10440, Note_on_c, 9, 55, 95
7, 10440, Note_on_c, 9, 59, 95
7, 10440, Note_on_c, 9, 36, 95
7, 10560, Note_off_c, 9, 55, 80
7, 10560, Note_off_c, 9, 59, 80
7, 10560, Note_off_c, 9, 36, 80
7, 10560, Note_on_c, 9, 44, 111
7, 10560, Note_on_c, 9, 59, 95
7, 10560, Note_on_c, 9, 38, 95
7, 10560, Note_on_c, 9, 36, 127
7, 10800, Note_off_c, 9, 44, 80
7, 10800, Note_off_c, 9, 59, 80
7, 10800, Note_off_c, 9, 38, 80
7, 10800, Note_off_c, 9, 36, 80
7, 10800, Note_on_c, 9, 44, 95
7, 10800, Note_on_c, 9, 59, 95
7, 10800, Note_on_c, 9, 38, 95
7, 10800, Note_on_c, 9, 36, 111
7, 11040, Note_off_c, 9, 44, 80
7, 11040, Note_off_c, 9, 59, 80
7, 11040, Note_off_c, 9, 38, 80
7, 11040, Note_off_c, 9, 36, 80
7, 11040, Note_on_c, 9, 38, 127
7, 11040, Note_on_c, 9, 41, 95
7, 11040, Note_on_c, 9, 38, 127
7, 11280, Note_off_c, 9, 38, 80
7, 11280, Note_off_c, 9, 41, 80
7, 11280, Note_off_c, 9, 38, 80
7, 11280, Note_on_c, 9, 57, 127
7, 11280, Note_on_c, 9, 36, 95
7, 11400, Note_off_c, 9, 36, 80
7, 11520, Note_on_c, 9, 38, 95
7, 11520, Note_on_c, 9, 41, 95
7, 11520, Note_on_c, 9, 36, 95
7, 11760, Note_off_c, 9, 57, 80
7, 11760, Note_off_c, 9, 38, 80
7, 11760, Note_off_c, 9, 41, 80
7, 11760, Note_off_c, 9, 36, 80
7, 11760, Note_on_c, 9, 36, 111
7, 12000, Note_off_c, 9, 36, 80
7, 12000, Note_on_c, 9, 57, 79
7, 12000, Note_on_c, 9, 40, 111
7, 12000, Note_on_c, 9, 27, 127
7, 12000, Note_on_c, 9, 38, 95
7, 12000, Note_on_c, 9, 42, 95
7, 12000, Note_on_c, 9, 36, 127
7, 12240, Note_off_c, 9, 57, 80
7, 12240, Note_off_c, 9, 40, 80
7, 12240, Note_off_c, 9, 27, 80
7, 12240, Note_off_c, 9, 38, 80
7, 12240, Note_off_c, 9, 42, 80
7, 12240, Note_off_c, 9, 36, 80
7, 12240, Note_on_c, 9, 36, 127
7, 12360, Note_off_c, 9, 36, 80
7, 12360, Note_on_c, 9, 59, 95
7, 12360, Note_on_c, 9, 36, 127
7, 12480, Note_off_c, 9, 59, 80
7, 12480, Note_off_c, 9, 36, 80
7, 12480, Note_on_c, 9, 44, 95
7, 12480, Note_on_c, 9, 36, 111
7, 12720, Note_off_c, 9, 44, 80
7, 12720, Note_off_c, 9, 36, 80
7, 12720, Note_on_c, 9, 44, 95
7, 12720, Note_on_c, 9, 47, 111
7, 12960, Note_off_c, 9, 44, 80
7, 12960, Note_off_c, 9, 47, 80
7, 12960, Note_on_c, 9, 46, 95
7, 12960, Note_on_c, 9, 38, 127
7, 12960, Note_on_c, 9, 47, 127
7, 13080, Note_off_c, 9, 46, 80
7, 13080, Note_off_c, 9, 38, 80
7, 13080, Note_off_c, 9, 47, 80
7, 13080, Note_on_c, 9, 47, 127
7, 13200, Note_off_c, 9, 47, 80
7, 13200, Note_on_c, 9, 47, 127
7, 13320, Note_off_c, 9, 47, 80
7, 13440, Note_on_c, 9, 57, 95
7, 13440, Note_on_c, 9, 49, 95
7, 13440, Note_on_c, 9, 38, 95
7, 13440, Note_on_c, 9, 41, 95
7, 13440, Note_on_c, 9, 36, 127
7, 13500, Note_off_c, 9, 57, 80
7, 13500, Note_off_c, 9, 49, 80
7, 13500, Note_off_c, 9, 38, 80
7, 13500, Note_off_c, 9, 41, 80
7, 13500, Note_off_c, 9, 36, 80
7, 13680, Note_on_c, 9, 36, 95
7, 13920, Note_off_c, 9, 36, 80
7, 13920, Note_on_c, 9, 55, 95
7, 13920, Note_on_c, 9, 40, 95
7, 13920, Note_on_c, 9, 27, 127
7, 13920, Note_on_c, 9, 38, 95
7, 13920, Note_on_c, 9, 41, 95
7, 13920, Note_on_c, 9, 36, 127
7, 14160, Note_off_c, 9, 55, 80
7, 14160, Note_off_c, 9, 40, 80
7, 14160, Note_off_c, 9, 27, 80
7, 14160, Note_off_c, 9, 38, 80
7, 14160, Note_off_c, 9, 41, 80
7, 14160, Note_off_c, 9, 36, 80
7, 14160, Note_on_c, 9, 55, 95
7, 14160, Note_on_c, 9, 59, 95
7, 14160, Note_on_c, 9, 36, 95
7, 14280, Note_off_c, 9, 55, 80
7, 14280, Note_off_c, 9, 59, 80
7, 14280, Note_off_c, 9, 36, 80
7, 14280, Note_on_c, 9, 55, 95
7, 14280, Note_on_c, 9, 59, 95
7, 14280, Note_on_c, 9, 36, 95
7, 14400, Note_off_c, 9, 55, 80
7, 14400, Note_off_c, 9, 59, 80
7, 14400, Note_off_c, 9, 36, 80
7, 14400, Note_on_c, 9, 44, 111
7, 14400, Note_on_c, 9, 59, 95
7, 14400, Note_on_c, 9, 38, 95
7, 14400, Note_on_c, 9, 36, 127
7, 14640, Note_off_c, 9, 44, 80
7, 14640, Note_off_c, 9, 59, 80
7, 14640, Note_off_c, 9, 38, 80
7, 14640, Note_off_c, 9, 36, 80
7, 14640, Note_on_c, 9, 44, 95
7, 14640, Note_on_c, 9, 59, 95
7, 14640, Note_on_c, 9, 38, 95
7, 14640, Note_on_c, 9, 36, 111
7, 14880, Note_off_c, 9, 44, 80
7, 14880, Note_off_c, 9, 59, 80
7, 14880, Note_off_c, 9, 38, 80
7, 14880, Note_off_c, 9, 36, 80
7, 14880, Note_on_c, 9, 38, 127
7, 14880, Note_on_c, 9, 41, 95
7, 14880, Note_on_c, 9, 38, 127
7, 15120, Note_off_c, 9, 38, 80
7, 15120, Note_off_c, 9, 41, 80
7, 15120, Note_off_c, 9, 38, 80
7, 15120, Note_on_c, 9, 57, 127
7, 15120, Note_on_c, 9, 36, 95
7, 15240, Note_off_c, 9, 36, 80
7, 15360, Note_on_c, 9, 38, 95
7, 15360, Note_on_c, 9, 41, 95
7, 15360, Note_on_c, 9, 36, 95
7, 15600, Note_off_c, 9, 57, 80
7, 15600, Note_off_c, 9, 38, 80
7, 15600, Note_off_c, 9, 41, 80
7, 15600, Note_off_c, 9, 36, 80
7, 15600, Note_on_c, 9, 36, 111
7, 15840, Note_off_c, 9, 36, 80
7, 15840, Note_on_c, 9, 57, 79
7, 15840, Note_on_c, 9, 40, 111
7, 15840, Note_on_c, 9, 27, 127
7, 15840, Note_on_c, 9, 38, 95
7, 15840, Note_on_c, 9, 42, 95
7, 15840, Note_on_c, 9, 36, 127
7, 16080, Note_off_c, 9, 57, 80
7, 16080, Note_off_c, 9, 40, 80
7, 16080, Note_off_c, 9, 27, 80
7, 16080, Note_off_c, 9, 38, 80
7, 16080, Note_off_c, 9, 42, 80
7, 16080, Note_off_c, 9, 36, 80
7, 16080, Note_on_c, 9, 36, 127
7, 16200, Note_off_c, 9, 36, 80
7, 16200, Note_on_c, 9, 59, 95
7, 16200, Note_on_c, 9, 36, 127
7, 16320, Note_off_c, 9, 59, 80
7, 16320, Note_off_c, 9, 36, 80
7, 16320, Note_on_c, 9, 44, 95
7, 16320, Note_on_c, 9, 36, 111
7, 16560, Note_off_c, 9, 44, 80
7, 16560, Note_off_c, 9, 36, 80
7, 16560, Note_on_c, 9, 44, 95
7, 16560, Note_on_c, 9, 47, 111
7, 16800, Note_off_c, 9, 44, 80
7, 16800, Note_off_c, 9, 47, 80
7, 16800, Note_on_c, 9, 46, 95
7, 16800, Note_on_c, 9, 38, 127
7, 16800, Note_on_c, 9, 47, 127
7, 16920, Note_off_c, 9, 46, 80
7, 16920, Note_off_c, 9, 38, 80
7, 16920, Note_off_c, 9, 47, 80
7, 16920, Note_on_c, 9, 47, 127
7, 17040, Note_off_c, 9, 47, 80
7, 17040, Note_on_c, 9, 47, 127
7, 17160, Note_off_c, 9, 47, 80
7, 17280, Note_on_c, 9, 57, 95
7, 17280, Note_on_c, 9, 49, 95
7, 17280, Note_on_c, 9, 38, 95
7, 17280, Note_on_c, 9, 41, 95
7, 17280, Note_on_c, 9, 36, 127
7, 17340, Note_off_c, 9, 57, 80
7, 17340, Note_off_c, 9, 49, 80
7, 17340, Note_off_c, 9, 38, 80
7, 17340, Note_off_c, 9, 41, 80
7, 17340, Note_off_c, 9, 36, 80
7, 17520, Note_on_c, 9, 36, 95
7, 17760, Note_off_c, 9, 36, 80
7, 17760, Note_on_c, 9, 55, 95
7, 17760, Note_on_c, 9, 40, 95
7, 17760, Note_on_c, 9, 27, 127
7, 17760, Note_on_c, 9, 38, 95
7, 17760, Note_on_c, 9, 41, 95
7, 17760, Note_on_c, 9, 36, 127
7, 18000, Note_off_c, 9, 55, 80
7, 18000, Note_off_c, 9, 40, 80
7, 18000, Note_off_c, 9, 27, 80
7, 18000, Note_off_c, 9, 38, 80
7, 18000, Note_off_c, 9, 41, 80
7, 18000, Note_off_c, 9, 36, 80
7, 18000, Note_on_c, 9, 55, 95
7, 18000, Note_on_c, 9, 59, 95
7, 18000, Note_on_c, 9, 36, 95
7, 18120, Note_off_c, 9, 55, 80
7, 18120, Note_off_c, 9, 59, 80
7, 18120, Note_off_c, 9, 36, 80
7, 18120, Note_on_c, 9, 55, 95
7, 18120, Note_on_c, 9, 59, 95
7, 18120, Note_on_c, 9, 36, 95
7, 18240, Note_off_c, 9, 55, 80
7, 18240, Note_off_c, 9, 59, 80
7, 18240, Note_off_c, 9, 36, 80
7, 18240, Note_on_c, 9, 44, 111
7, 18240, Note_on_c, 9, 59, 95
7, 18240, Note_on_c, 9, 38, 95
7, 18240, Note_on_c, 9, 36, 127
7, 18480, Note_off_c, 9, 44, 80
7, 18480, Note_off_c, 9, 59, 80
7, 18480, Note_off_c, 9, 38, 80
7, 18480, Note_off_c, 9, 36, 80
7, 18480, Note_on_c, 9, 44, 95
7, 18480, Note_on_c, 9, 59, 95
7, 18480, Note_on_c, 9, 38, 95
7, 18480, Note_on_c, 9, 36, 111
7, 18720, Note_off_c, 9, 44, 80
7, 18720, Note_off_c, 9, 59, 80
7, 18720, Note_off_c, 9, 38, 80
7, 18720, Note_off_c, 9, 36, 80
7, 18720, Note_on_c, 9, 38, 127
7, 18720, Note_on_c, 9, 41, 95
7, 18720, Note_on_c, 9, 38, 127
7, 18960, Note_off_c, 9, 38, 80
7, 18960, Note_off_c, 9, 41, 80
7, 18960, Note_off_c, 9, 38, 80
7, 18960, Note_on_c, 9, 57, 127
7, 18960, Note_on_c, 9, 36, 95
7, 19080, Note_off_c, 9, 36, 80
7, 19200, Note_on_c, 9, 38, 95
7, 19200, Note_on_c, 9, 41, 95
7, 19200, Note_on_c, 9, 36, 95
7, 19440, Note_off_c, 9, 57, 80
7, 19440, Note_off_c, 9, 38, 80
7, 19440, Note_off_c, 9, 41, 80
7, 19440, Note_off_c, 9, 36, 80
7, 19440, Note_on_c, 9, 36, 111
7, 19680, Note_off_c, 9, 36, 80
7, 19680, Note_on_c, 9, 57, 79
7, 19680, Note_on_c, 9, 40, 111
7, 19680, Note_on_c, 9, 27, 127
7, 19680, Note_on_c, 9, 38, 95
7, 19680, Note_on_c, 9, 42, 95
7, 19680, Note_on_c, 9, 36, 127
7, 19920, Note_off_c, 9, 57, 80
7, 19920, Note_off_c, 9, 40, 80
7, 19920, Note_off_c, 9, 27, 80
7, 19920, Note_off_c, 9, 38, 80
7, 19920, Note_off_c, 9, 42, 80
7, 19920, Note_off_c, 9, 36, 80
7, 19920, Note_on_c, 9, 36, 127
7, 20040, Note_off_c, 9, 36, 80
7, 20040, Note_on_c, 9, 59, 95
7, 20040, Note_on_c, 9, 36, 127
7, 20160, Note_off_c, 9, 59, 80
7, 20160, Note_off_c, 9, 36, 80
7, 20160, Note_on_c, 9, 44, 95
7, 20160, Note_on_c, 9, 36, 111
7, 20400, Note_off_c, 9, 44, 80
7, 20400, Note_off_c, 9, 36, 80
7, 20400, Note_on_c, 9, 44, 95
7, 20400, Note_on_c, 9, 47, 111
7, 20640, Note_off_c, 9, 44, 80
7, 20640, Note_off_c, 9, 47, 80
7, 20640, Note_on_c, 9, 46, 95
7, 20640, Note_on_c, 9, 38, 127
7, 20640, Note_on_c, 9, 47, 127
7, 20760, Note_off_c, 9, 46, 80
7, 20760, Note_off_c, 9, 38, 80
7, 20760, Note_off_c, 9, 47, 80
7, 20760, Note_on_c, 9, 47, 127
7, 20880, Note_off_c, 9, 47, 80
7, 20880, Note_on_c, 9, 47, 127
7, 21000, Note_off_c, 9, 47, 80
7, 21120, Note_on_c, 9, 57, 95
7, 21120, Note_on_c, 9, 49, 95
7, 21120, Note_on_c, 9, 38, 95
7, 21120, Note_on_c, 9, 41, 95
7, 21120, Note_on_c, 9, 36, 127
7, 21180, Note_off_c, 9, 57, 80
7, 21180, Note_off_c, 9, 49, 80
7, 21180, Note_off_c, 9, 38, 80
7, 21180, Note_off_c, 9, 41, 80
7, 21180, Note_off_c, 9, 36, 80
7, 21360, Note_on_c, 9, 36, 95
7, 21600, Note_off_c, 9, 36, 80
7, 21600, Note_on_c, 9, 55, 95
7, 21600, Note_on_c, 9, 40, 95
7, 21600, Note_on_c, 9, 27, 127
7, 21600, Note_on_c, 9, 38, 95
7, 21600, Note_on_c, 9, 41, 95
7, 21600, Note_on_c, 9, 36, 127
7, 21840, Note_off_c, 9, 55, 80
7, 21840, Note_off_c, 9, 40, 80
7, 21840, Note_off_c, 9, 27, 80
7, 21840, Note_off_c, 9, 38, 80
7, 21840, Note_off_c, 9, 41, 80
7, 21840, Note_off_c, 9, 36, 80
7, 21840, Note_on_c, 9, 55, 95
7, 21840, Note_on_c, 9, 59, 95
7, 21840, Note_on_c, 9, 36, 95
7, 21960, Note_off_c, 9, 55, 80
7, 21960, Note_off_c, 9, 59, 80
7, 21960, Note_off_c, 9, 36, 80
7, 21960, Note_on_c, 9, 55, 95
7, 21960, Note_on_c, 9, 59, 95
7, 21960, Note_on_c, 9, 36, 95
7, 22080, Note_off_c, 9, 55, 80
7, 22080, Note_off_c, 9, 59, 80
7, 22080, Note_off_c, 9, 36, 80
7, 22080, Note_on_c, 9, 44, 111
7, 22080, Note_on_c, 9, 59, 95
7, 22080, Note_on_c, 9, 38, 95
7, 22080, Note_on_c, 9, 36, 127
7, 22320, Note_off_c, 9, 44, 80
7, 22320, Note_off_c, 9, 59, 80
7, 22320, Note_off_c, 9, 38, 80
7, 22320, Note_off_c, 9, 36, 80
7, 22320, Note_on_c, 9, 44, 95
7, 22320, Note_on_c, 9, 59, 95
7, 22320, Note_on_c, 9, 38, 95
7, 22320, Note_on_c, 9, 36, 111
7, 22560, Note_off_c, 9, 44, 80
7, 22560, Note_off_c, 9, 59, 80
7, 22560, Note_off_c, 9, 38, 80
7, 22560, Note_off_c, 9, 36, 80
7, 22560, Note_on_c, 9, 38, 127
7, 22560, Note_on_c, 9, 41, 95
7, 22560, Note_on_c, 9, 38, 127
7, 22800, Note_off_c, 9, 38, 80
7, 22800, Note_off_c, 9, 41, 80
7, 22800, Note_off_c, 9, 38, 80
7, 22800, Note_on_c, 9, 57, 127
7, 22800, Note_on_c, 9, 36, 95
7, 22920, Note_off_c, 9, 36, 80
7, 23040, Note_on_c, 9, 38, 95
7, 23040, Note_on_c, 9, 41, 95
7, 23040, Note_on_c, 9, 36, 95
7, 23280, Note_off_c, 9, 57, 80
7, 23280, Note_off_c, 9, 38, 80
7, 23280, Note_off_c, 9, 41, 80
7, 23280, Note_off_c, 9, 36, 80
7, 23280, Note_on_c, 9, 36, 111
7, 23520, Note_off_c, 9, 36, 80
7, 23520, Note_on_c, 9, 57, 79
7, 23520, Note_on_c, 9, 40, 111
7, 23520, Note_on_c, 9, 27, 127
7, 23520, Note_on_c, 9, 38, 95
7, 23520, Note_on_c, 9, 42, 95
7, 23520, Note_on_c, 9, 36, 127
7, 23760, Note_off_c, 9, 57, 80
7, 23760, Note_off_c, 9, 40, 80
7, 23760, Note_off_c, 9, 27, 80
7, 23760, Note_off_c, 9, 38, 80
7, 23760, Note_off_c, 9, 42, 80
7, 23760, Note_off_c, 9, 36, 80
7, 23760, Note_on_c, 9, 36, 127
7, 23880, Note_off_c, 9, 36, 80
7, 23880, Note_on_c, 9, 59, 95
7, 23880, Note_on_c, 9, 36, 127
7, 24000, Note_off_c, 9, 59, 80
7, 24000, Note_off_c, 9, 36, 80
7, 24000, Note_on_c, 9, 44, 95
7, 24000, Note_on_c, 9, 36, 111
7, 24240, Note_off_c, 9, 44, 80
7, 24240, Note_off_c, 9, 36, 80
7, 24240, Note_on_c, 9, 44, 95
7, 24240, Note_on_c, 9, 47, 111
7, 24480, Note_off_c, 9, 44, 80
7, 24480, Note_off_c, 9, 47, 80
7, 24480, Note_on_c, 9, 46, 95
7, 24480, Note_on_c, 9, 38, 127
7, 24480, Note_on_c, 9, 47, 127
7, 24600, Note_off_c, 9, 46, 80
7, 24600, Note_off_c, 9, 38, 80
7, 24600, Note_off_c, 9, 47, 80
7, 24600, Note_on_c, 9, 47, 127
7, 24720, Note_off_c, 9, 47, 80
7, 24720, Note_on_c, 9, 47, 127
7, 24840, Note_off_c, 9, 47, 80
7, 24960, Note_on_c, 9, 57, 95
7, 24960, Note_on_c, 9, 49, 95
7, 24960, Note_on_c, 9, 38, 95
7, 24960, Note_on_c, 9, 41, 95
7, 24960, Note_on_c, 9, 36, 127
7, 25020, Note_off_c, 9, 57, 80
7, 25020, Note_off_c, 9, 49, 80
7, 25020, Note_off_c, 9, 38, 80
7, 25020, Note_off_c, 9, 41, 80
7, 25020, Note_off_c, 9, 36, 80
7, 25200, Note_on_c, 9, 36, 95
7, 25440, Note_off_c, 9, 36, 80
7, 25440, Note_on_c, 9, 55, 95
7, 25440, Note_on_c, 9, 40, 95
7, 25440, Note_on_c, 9, 27, 127
7, 25440, Note_on_c, 9, 38, 95
7, 25440, Note_on_c, 9, 41, 95
7, 25440, Note_on_c, 9, 36, 127
7, 25680, Note_off_c, 9, 55, 80
7, 25680, Note_off_c, 9, 40, 80
7, 25680, Note_off_c, 9, 27, 80
7, 25680, Note_off_c, 9, 38, 80
7, 25680, Note_off_c, 9, 41, 80
7, 25680, Note_off_c, 9, 36, 80
7, 25680, Note_on_c, 9, 55, 95
7, 25680, Note_on_c, 9, 59, 95
7, 25680, Note_on_c, 9, 36, 95
7, 25800, Note_off_c, 9, 55, 80
7, 25800, Note_off_c, 9, 59, 80
7, 25800, Note_off_c, 9, 36, 80
7, 25800, Note_on_c, 9, 55, 95
7, 25800, Note_on_c, 9, 59, 95
7, 25800, Note_on_c, 9, 36, 95
7, 25920, Note_off_c, 9, 55, 80
7, 25920, Note_off_c, 9, 59, 80
7, 25920, Note_off_c, 9, 36, 80
7, 25920, Note_on_c, 9, 44, 111
7, 25920, Note_on_c, 9, 59, 95
7, 25920, Note_on_c, 9, 38, 95
7, 25920, Note_on_c, 9, 36, 127
7, 26160, Note_off_c, 9, 44, 80
7, 26160, Note_off_c, 9, 59, 80
7, 26160, Note_off_c, 9, 38, 80
7, 26160, Note_off_c, 9, 36, 80
7, 26160, Note_on_c, 9, 44, 95
7, 26160, Note_on_c, 9, 59, 95
7, 26160, Note_on_c, 9, 38, 95
7, 26160, Note_on_c, 9, 36, 111
7, 26400, Note_off_c, 9, 44, 80
7, 26400, Note_off_c, 9, 59, 80
7, 26400, Note_off_c, 9, 38, 80
7, 26400, Note_off_c, 9, 36, 80
7, 26400, Note_on_c, 9, 38, 127
7, 26400, Note_on_c, 9, 41, 95
7, 26400, Note_on_c, 9, 38, 127
7, 26640, Note_off_c, 9, 38, 80
7, 26640, Note_off_c, 9, 41, 80
7, 26640, Note_off_c, 9, 38, 80
7, 26640, Note_on_c, 9, 57, 127
7, 26640, Note_on_c, 9, 36, 95
7, 26760, Note_off_c, 9, 36, 80
7, 26880, Note_on_c, 9, 38, 95
7, 26880, Note_on_c, 9, 41, 95
7, 26880, Note_on_c, 9, 36, 95
7, 27120, Note_off_c, 9, 57, 80
7, 27120, Note_off_c, 9, 38, 80
7, 27120, Note_off_c, 9, 41, 80
7, 27120, Note_off_c, 9, 36, 80
7, 27120, Note_on_c, 9, 36, 111
7, 27360, Note_off_c, 9, 36, 80
7, 27360, Note_on_c, 9, 57, 79
7, 27360, Note_on_c, 9, 40, 111
7, 27360, Note_on_c, 9, 27, 127
7, 27360, Note_on_c, 9, 38, 95
7, 27360, Note_on_c, 9, 42, 95
7, 27360, Note_on_c, 9, 36, 127
7, 27600, Note_off_c, 9, 57, 80
7, 27600, Note_off_c, 9, 40, 80
7, 27600, Note_off_c, 9, 27, 80
7, 27600, Note_off_c, 9, 38, 80
7, 27600, Note_off_c, 9, 42, 80
7, 27600, Note_off_c, 9, 36, 80
7, 27600, Note_on_c, 9, 36, 127
7, 27720, Note_off_c, 9, 36, 80
7, 27720, Note_on_c, 9, 59, 95
7, 27720, Note_on_c, 9, 36, 127
7, 27840, Note_off_c, 9, 59, 80
7, 27840, Note_off_c, 9, 36, 80
7, 27840, Note_on_c, 9, 44, 95
7, 27840, Note_on_c, 9, 36, 111
7, 28080, Note_off_c, 9, 44, 80
7, 28080, Note_off_c, 9, 36, 80
7, 28080, Note_on_c, 9, 44, 95
7, 28080, Note_on_c, 9, 47, 111
7, 28320, Note_off_c, 9, 44, 80
7, 28320, Note_off_c, 9, 47, 80
7, 28320, Note_on_c, 9, 46, 95
7, 28320, Note_on_c, 9, 38, 127
7, 28320, Note_on_c, 9, 47, 127
7, 28440, Note_off_c, 9, 46, 80
7, 28440, Note_off_c, 9, 38, 80
7, 28440, Note_off_c, 9, 47, 80
7, 28440, Note_on_c, 9, 47, 127
7, 28560, Note_off_c, 9, 47, 80
7, 28560, Note_on_c, 9, 47, 127
7, 28680, Note_off_c, 9, 47, 80
7, 28800, Note_on_c, 9, 57, 95
7, 28800, Note_on_c, 9, 49, 95
7, 28800, Note_on_c, 9, 38, 95
7, 28800, Note_on_c, 9, 41, 95
7, 28800, Note_on_c, 9, 36, 127
7, 28860, Note_off_c, 9, 57, 80
7, 28860, Note_off_c, 9, 49, 80
7, 28860, Note_off_c, 9, 38, 80
7, 28860, Note_off_c, 9, 41, 80
7, 28860, Note_off_c, 9, 36, 80
7, 29040, Note_on_c, 9, 36, 95
7, 29280, Note_off_c, 9, 36, 80
7, 29280, Note_on_c, 9, 55, 95
7, 29280, Note_on_c, 9, 40, 95
7, 29280, Note_on_c, 9, 27, 127
7, 29280, Note_on_c, 9, 38, 95
7, 29280, Note_on_c, 9, 41, 95
7, 29280, Note_on_c, 9, 36, 127
7, 29520, Note_off_c, 9, 55, 80
7, 29520, Note_off_c, 9, 40, 80
7, 29520, Note_off_c, 9, 27, 80
7, 29520, Note_off_c, 9, 38, 80
7, 29520, Note_off_c, 9, 41, 80
7, 29520, Note_off_c, 9, 36, 80
7, 29520, Note_on_c, 9, 55, 95
7, 29520, Note_on_c, 9, 59, 95
7, 29520, Note_on_c, 9, 36, 95
7, 29640, Note_off_c, 9, 55, 80
7, 29640, Note_off_c, 9, 59, 80
7, 29640, Note_off_c, 9, 36, 80
7, 29640, Note_on_c, 9, 55, 95
7, 29640, Note_on_c, 9, 59, 95
7, 29640, Note_on_c, 9, 36, 95
7, 29760, Note_off_c, 9, 55, 80
7, 29760, Note_off_c, 9, 59, 80
7, 29760, Note_off_c, 9, 36, 80
7, 29760, Note_on_c, 9, 44, 111
7, 29760, Note_on_c, 9, 59, 95
7, 29760, Note_on_c, 9, 38, 95
7, 29760, Note_on_c, 9, 36, 127
7, 30000, Note_off_c, 9, 44, 80
7, 30000, Note_off_c, 9, 59, 80
7, 30000, Note_off_c, 9, 38, 80
7, 30000, Note_off_c, 9, 36, 80
7, 30000, Note_on_c, 9, 44, 95
7, 30000, Note_on_c, 9, 59, 95
7, 30000, Note_on_c, 9, 38, 95
7, 30000, Note_on_c, 9, 36, 111
7, 30240, Note_off_c, 9, 44, 80
7, 30240, Note_off_c, 9, 59, 80
7, 30240, Note_off_c, 9, 38, 80
7, 30240, Note_off_c, 9, 36, 80
7, 30240, Note_on_c, 9, 38, 127
7, 30240, Note_on_c, 9, 41, 95
7, 30240, Note_on_c, 9, 38, 127
7, 30480, Note_off_c, 9, 38, 80
7, 30480, Note_off_c, 9, 41, 80
7, 30480, Note_off_c, 9, 38, 80
7, 30480, Note_on_c, 9, 57, 127
7, 30480, Note_on_c, 9, 36, 95
7, 30600, Note_off_c, 9, 36, 80
7, 30720, Note_on_c, 9, 38, 95
7, 30720, Note_on_c, 9, 41, 95
7, 30720, Note_on_c, 9, 36, 95
7, 30960, Note_off_c, 9, 57, 80
7, 30960, Note_off_c, 9, 38, 80
7, 30960, Note_off_c, 9, 41, 80
7, 30960, Note_off_c, 9, 36, 80
7, 30960, Note_on_c, 9, 36, 111
7, 31200, Note_off_c, 9, 36, 80
7, 31200, Note_on_c, 9, 57, 79
7, 31200, Note_on_c, 9, 40, 111
7, 31200, Note_on_c, 9, 27, 127
7, 31200, Note_on_c, 9, 38, 95
7, 31200, Note_on_c, 9, 42, 95
7, 31200, Note_on_c, 9, 36, 127
7, 31440, Note_off_c, 9, 57, 80
7, 31440, Note_off_c, 9, 40, 80
7, 31440, Note_off_c, 9, 27, 80
7, 31440, Note_off_c, 9, 38, 80
7, 31440, Note_off_c, 9, 42, 80
7, 31440, Note_off_c, 9, 36, 80
7, 31440, Note_on_c, 9, 36, 127
7, 31560, Note_off_c, 9, 36, 80
7, 31560, Note_on_c, 9, 59, 95
7, 31560, Note_on_c, 9, 36, 127
7, 31680, Note_off_c, 9, 59, 80
7, 31680, Note_off_c, 9, 36, 80
7, 31680, Note_on_c, 9, 44, 95
7, 31680, Note_on_c, 9, 36, 111
7, 31920, Note_off_c, 9, 44, 80
7, 31920, Note_off_c, 9, 36, 80
7, 31920, Note_on_c, 9, 44, 95
7, 31920, Note_on_c, 9, 47, 111
7, 32160, Note_off_c, 9, 44, 80
7, 32160, Note_off_c, 9, 47, 80
7, 32160, Note_on_c, 9, 46, 95
7, 32160, Note_on_c, 9, 38, 127
7, 32160, Note_on_c, 9, 47, 127
7, 32280, Note_off_c, 9, 46, 80
7, 32280, Note_off_c, 9, 38, 80
7, 32280, Note_off_c, 9, 47, 80
7, 32280, Note_on_c, 9, 47, 127
7, 32400, Note_off_c, 9, 47, 80
7, 32400, Note_on_c, 9, 47, 127
7, 32520, Note_off_c, 9, 47, 80
7, 32640, Note_on_c, 9, 57, 95
7, 32640, Note_on_c, 9, 49, 95
7, 32640, Note_on_c, 9, 38, 95
7, 32640, Note_on_c, 9, 41, 95
7, 32640, Note_on_c, 9, 36, 127
7, 32700, Note_off_c, 9, 57, 80
7, 32700, Note_off_c, 9, 49, 80
7, 32700, Note_off_c, 9, 38, 80
7, 32700, Note_off_c, 9, 41, 80
7, 32700, Note_off_c, 9, 36, 80
7, 32880, Note_on_c, 9, 36, 95
7, 33120, Note_off_c, 9, 36, 80
7, 33120, Note_on_c, 9, 55, 95
7, 33120, Note_on_c, 9, 40, 95
7, 33120, Note_on_c, 9, 27, 127
7, 33120, Note_on_c, 9, 38, 95
7, 33120, Note_on_c, 9, 41, 95
7, 33120, Note_on_c, 9, 36, 127
7, 33360, Note_off_c, 9, 55, 80
7, 33360, Note_off_c, 9, 40, 80
7, 33360, Note_off_c, 9, 27, 80
7, 33360, Note_off_c, 9, 38, 80
7, 33360, Note_off_c, 9, 41, 80
7, 33360, Note_off_c, 9, 36, 80
7, 33360, Note_on_c, 9, 55, 95
7, 33360, Note_on_c, 9, 59, 95
7, 33360, Note_on_c, 9, 36, 95
7, 33480, Note_off_c, 9, 55, 80
7, 33480, Note_off_c, 9, 59, 80
7, 33480, Note_off_c, 9, 36, 80
7, 33480, Note_on_c, 9, 55, 95
7, 33480, Note_on_c, 9, 59, 95
7, 33480, Note_on_c, 9, 36, 95
7, 33600, Note_off_c, 9, 55, 80
7, 33600, Note_off_c, 9, 59, 80
7, 33600, Note_off_c, 9, 36, 80
7, 33600, Note_on_c, 9, 44, 111
7, 33600, Note_on_c, 9, 59, 95
7, 33600, Note_on_c, 9, 38, 95
7, 33600, Note_on_c, 9, 36, 127
7, 33840, Note_off_c, 9, 44, 80
7, 33840, Note_off_c, 9, 59, 80
7, 33840, Note_off_c, 9, 38, 80
7, 33840, Note_off_c, 9, 36, 80
7, 33840, Note_on_c, 9, 44, 95
7, 33840, Note_on_c, 9, 59, 95
7, 33840, Note_on_c, 9, 38, 95
7, 33840, Note_on_c, 9, 36, 111
7, 34080, Note_off_c, 9, 44, 80
7, 34080, Note_off_c, 9, 59, 80
7, 34080, Note_off_c, 9, 38, 80
7, 34080, Note_off_c, 9, 36, 80
7, 34080, Note_on_c, 9, 38, 127
7, 34080, Note_on_c, 9, 41, 95
7, 34080, Note_on_c, 9, 38, 127
7, 34320, Note_off_c, 9, 38, 80
7, 34320, Note_off_c, 9, 41, 80
7, 34320, Note_off_c, 9, 38, 80
7, 34320, Note_on_c, 9, 57, 127
7, 34320, Note_on_c, 9, 36, 95
7, 34440, Note_off_c, 9, 36, 80
7, 34560, Note_on_c, 9, 38, 95
7, 34560, Note_on_c, 9, 41, 95
7, 34560, Note_on_c, 9, 36, 95
7, 34800, Note_off_c, 9, 57, 80
7, 34800, Note_off_c, 9, 38, 80
7, 34800, Note_off_c, 9, 41, 80
7, 34800, Note_off_c, 9, 36, 80
7, 34800, Note_on_c, 9, 36, 111
7, 35040, Note_off_c, 9, 36, 80
7, 35040, Note_on_c, 9, 57, 79
7, 35040, Note_on_c, 9, 40, 111
7, 35040, Note_on_c, 9, 27, 127
7, 35040, Note_on_c, 9, 38, 95
7, 35040, Note_on_c, 9, 42, 95
7, 35040, Note_on_c, 9, 36, 127
7, 35280, Note_off_c, 9, 57, 80
7, 35280, Note_off_c, 9, 40, 80
7, 35280, Note_off_c, 9, 27, 80
7, 35280, Note_off_c, 9, 38, 80
7, 35280, Note_off_c, 9, 42, 80
7, 35280, Note_off_c, 9, 36, 80
7, 35280, Note_on_c, 9, 36, 127
7, 35400, Note_off_c, 9, 36, 80
7, 35400, Note_on_c, 9, 59, 95
7, 35400, Note_on_c, 9, 36, 127
7, 35520, Note_off_c, 9, 59, 80
7, 35520, Note_off_c, 9, 36, 80
7, 35520, Note_on_c, 9, 44, 95
7, 35520, Note_on_c, 9, 36, 111
7, 35760, Note_off_c, 9, 44, 80
7, 35760, Note_off_c, 9, 36, 80
7, 35760, Note_on_c, 9, 44, 95
7, 35760, Note_on_c, 9, 47, 111
7, 36000, Note_off_c, 9, 44, 80
7, 36000, Note_off_c, 9, 47, 80
7, 36000, Note_on_c, 9, 46, 95
7, 36000, Note_on_c, 9, 38, 127
7, 36000, Note_on_c, 9, 47, 127
7, 36120, Note_off_c, 9, 46, 80
7, 36120, Note_off_c, 9, 38, 80
7, 36120, Note_off_c, 9, 47, 80
7, 36120, Note_on_c, 9, 47, 127
7, 36240, Note_off_c, 9, 47, 80
7, 36240, Note_on_c, 9, 47, 127
7, 36360, Note_off_c, 9, 47, 80
7, 36480, Note_on_c, 9, 57, 95
7, 36480, Note_on_c, 9, 49, 95
7, 36480, Note_on_c, 9, 38, 95
7, 36480, Note_on_c, 9, 41, 95
7, 36480, Note_on_c, 9, 36, 127
7, 36540, Note_off_c, 9, 57, 80
7, 36540, Note_off_c, 9, 49, 80
7, 36540, Note_off_c, 9, 38, 80
7, 36540, Note_off_c, 9, 41, 80
7, 36540, Note_off_c, 9, 36, 80
7, 36720, Note_on_c, 9, 36, 95
7, 36960, Note_off_c, 9, 36, 80
7, 36960, Note_on_c, 9, 55, 95
7, 36960, Note_on_c, 9, 40, 95
7, 36960, Note_on_c, 9, 27, 127
7, 36960, Note_on_c, 9, 38, 95
7, 36960, Note_on_c, 9, 41, 95
7, 36960, Note_on_c, 9, 36, 127
7, 37200, Note_off_c, 9, 55, 80
7, 37200, Note_off_c, 9, 40, 80
7, 37200, Note_off_c, 9, 27, 80
7, 37200, Note_off_c, 9, 38, 80
7, 37200, Note_off_c, 9, 41, 80
7, 37200, Note_off_c, 9, 36, 80
7, 37200, Note_on_c, 9, 55, 95
7, 37200, Note_on_c, 9, 59, 95
7, 37200, Note_on_c, 9, 36, 95
7, 37320, Note_off_c, 9, 55, 80
7, 37320, Note_off_c, 9, 59, 80
7, 37320, Note_off_c, 9, 36, 80
7, 37320, Note_on_c, 9, 55, 95
7, 37320, Note_on_c, 9, 59, 95
7, 37320, Note_on_c, 9, 36, 95
7, 37440, Note_off_c, 9, 55, 80
7, 37440, Note_off_c, 9, 59, 80
7, 37440, Note_off_c, 9, 36, 80
7, 37440, Note_on_c, 9, 44, 111
7, 37440, Note_on_c, 9, 59, 95
7, 37440, Note_on_c, 9, 38, 95
7, 37440, Note_on_c, 9, 36, 127
7, 37680, Note_off_c, 9, 44, 80
7, 37680, Note_off_c, 9, 59, 80
7, 37680, Note_off_c, 9, 38, 80
7, 37680, Note_off_c, 9, 36, 80
7, 37680, Note_on_c, 9, 44, 95
7, 37680, Note_on_c, 9, 59, 95
7, 37680, Note_on_c, 9, 38, 95
7, 37680, Note_on_c, 9, 36, 111
7, 37920, Note_off_c, 9, 44, 80
7, 37920, Note_off_c, 9, 59, 80
7, 37920, Note_off_c, 9, 38, 80
7, 37920, Note_off_c, 9, 36, 80
7, 37920, Note_on_c, 9, 38, 127
7, 37920, Note_on_c, 9, 41, 95
7, 37920, Note_on_c, 9, 38, 127
7, 38160, Note_off_c, 9, 38, 80
7, 38160, Note_off_c, 9, 41, 80
7, 38160, Note_off_c, 9, 38, 80
7, 38160, Note_on_c, 9, 57, 127
7, 38160, Note_on_c, 9, 36, 95
7, 38280, Note_off_c, 9, 36, 80
7, 38400, Note_on_c, 9, 38, 95
7, 38400, Note_on_c, 9, 41, 95
7, 38400, Note_on_c, 9, 36, 95
7, 38640, Note_off_c, 9, 57, 80
7, 38640, Note_off_c, 9, 38, 80
7, 38640, Note_off_c, 9, 41, 80
7, 38640, Note_off_c, 9, 36, 80
7, 38640, Note_on_c, 9, 36, 111
7, 38880, Note_off_c, 9, 36, 80
7, 38880, Note_on_c, 9, 57, 79
7, 38880, Note_on_c, 9, 40, 111
7, 38880, Note_on_c, 9, 27, 127
7, 38880, Note_on_c, 9, 38, 95
7, 38880, Note_on_c, 9, 42, 95
7, 38880, Note_on_c, 9, 36, 127
7, 39120, Note_off_c, 9, 57, 80
7, 39120, Note_off_c, 9, 40, 80
7, 39120, Note_off_c, 9, 27, 80
7, 39120, Note_off_c, 9, 38, 80
7, 39120, Note_off_c, 9, 42, 80
7, 39120, Note_off_c, 9, 36, 80
7, 39120, Note_on_c, 9, 36, 127
7, 39240, Note_off_c, 9, 36, 80
7, 39240, Note_on_c, 9, 59, 95
7, 39240, Note_on_c, 9, 36, 127
7, 39360, Note_off_c, 9, 59, 80
7, 39360, Note_off_c, 9, 36, 80
7, 39360, Note_on_c, 9, 44, 95
7, 39360, Note_on_c, 9, 36, 111
7, 39600, Note_off_c, 9, 44, 80
7, 39600, Note_off_c, 9, 36, 80
7, 39600, Note_on_c, 9, 44, 95
7, 39600, Note_on_c, 9, 47, 111
7, 39840, Note_off_c, 9, 44, 80
7, 39840, Note_off_c, 9, 47, 80
7, 39840, Note_on_c, 9, 46, 95
7, 39840, Note_on_c, 9, 38, 127
7, 39840, Note_on_c, 9, 47, 127
7, 39960, Note_off_c, 9, 46, 80
7, 39960, Note_off_c, 9, 38, 80
7, 39960, Note_off_c, 9, 47, 80
7, 39960, Note_on_c, 9, 47, 127
7, 40080, Note_off_c, 9, 47, 80
7, 40080, Note_on_c, 9, 47, 127
7, 40200, Note_off_c, 9, 47, 80
7, 40320, Note_on_c, 9, 44, 95
7, 40320, Note_on_c, 9, 36, 95
7, 40320, Note_on_c, 9, 36, 95
7, 40560, Note_off_c, 9, 44, 80
7, 40560, Note_off_c, 9, 36, 80
7, 40560, Note_off_c, 9, 36, 80
7, 40560, Note_on_c, 9, 54, 79
7, 40560, Note_on_c, 9, 44, 47
7, 40720, Note_off_c, 9, 54, 80
7, 40720, Note_off_c, 9, 44, 80
7, 40740, Note_on_c, 9, 36, 127
7, 40800, Note_off_c, 9, 36, 80
7, 40800, Note_on_c, 9, 44, 95
7, 40800, Note_on_c, 9, 40, 127
7, 40800, Note_on_c, 9, 27, 127
7, 40800, Note_on_c, 9, 38, 127
7, 40800, Note_on_c, 9, 42, 95
7, 40800, Note_on_c, 9, 36, 127
7, 41040, Note_off_c, 9, 44, 80
7, 41040, Note_off_c, 9, 40, 80
7, 41040, Note_off_c, 9, 27, 80
7, 41040, Note_off_c, 9, 38, 80
7, 41040, Note_off_c, 9, 42, 80
7, 41040, Note_off_c, 9, 36, 80
7, 41040, Note_on_c, 9, 54, 79
7, 41040, Note_on_c, 9, 44, 47
7, 41280, Note_off_c, 9, 54, 80
7, 41280, Note_off_c, 9, 44, 80
7, 41280, Note_on_c, 9, 44, 95
7, 41280, Note_on_c, 9, 36, 95
7, 41280, Note_on_c, 9, 36, 95
7, 41520, Note_off_c, 9, 44, 80
7, 41520, Note_off_c, 9, 36, 80
7, 41520, Note_off_c, 9, 36, 80
7, 41520, Note_on_c, 9, 54, 79
7, 41520, Note_on_c, 9, 44, 47
7, 41760, Note_off_c, 9, 54, 80
7, 41760, Note_off_c, 9, 44, 80
7, 41760, Note_on_c, 9, 44, 95
7, 41760, Note_on_c, 9, 40, 127
7, 41760, Note_on_c, 9, 27, 127
7, 41760, Note_on_c, 9, 38, 127
7, 41760, Note_on_c, 9, 42, 95
7, 41760, Note_on_c, 9, 36, 127
7, 42000, Note_off_c, 9, 44, 80
7, 42000, Note_off_c, 9, 40, 80
7, 42000, Note_off_c, 9, 27, 80
7, 42000, Note_off_c, 9, 38, 80
7, 42000, Note_off_c, 9, 42, 80
7, 42000, Note_off_c, 9, 36, 80
7, 42000, Note_on_c, 9, 54, 79
7, 42000, Note_on_c, 9, 44, 47
7, 42240, Note_off_c, 9, 54, 80
7, 42240, Note_off_c, 9, 44, 80
7, 42240, Note_on_c, 9, 44, 95
7, 42240, Note_on_c, 9, 36, 95
7, 42240, Note_on_c, 9, 36, 95
7, 42480, Note_off_c, 9, 44, 80
7, 42480, Note_off_c, 9, 36, 80
7, 42480, Note_off_c, 9, 36, 80
7, 42480, Note_on_c, 9, 54, 79
7, 42480, Note_on_c, 9, 44, 47
7, 42640, Note_off_c, 9, 54, 80
7, 42640, Note_off_c, 9, 44, 80
7, 42660, Note_on_c, 9, 36, 127
7, 42720, Note_off_c, 9, 36, 80
7, 42720, Note_on_c, 9, 44, 95
7, 42720, Note_on_c, 9, 40, 127
7, 42720, Note_on_c, 9, 27, 127
7, 42720, Note_on_c, 9, 38, 127
7, 42720, Note_on_c, 9, 42, 95
7, 42720, Note_on_c, 9, 36, 127
7, 42960, Note_off_c, 9, 44, 80
7, 42960, Note_off_c, 9, 40, 80
7, 42960, Note_off_c, 9, 27, 80
7, 42960, Note_off_c, 9, 38, 80
7, 42960, Note_off_c, 9, 42, 80
7, 42960, Note_off_c, 9, 36, 80
7, 42960, Note_on_c, 9, 54, 79
7, 42960, Note_on_c, 9, 44, 47
7, 43200, Note_off_c, 9, 54, 80
7, 43200, Note_off_c, 9, 44, 80
7, 43200, Note_on_c, 9, 44, 95
7, 43200, Note_on_c, 9, 36, 95
7, 43200, Note_on_c, 9, 36, 95
7, 43440, Note_off_c, 9, 44, 80
7, 43440, Note_off_c, 9, 36, 80
7, 43440, Note_off_c, 9, 36, 80
7, 43440, Note_on_c, 9, 54, 79
7, 43440, Note_on_c, 9, 44, 47
7, 43680, Note_off_c, 9, 54, 80
7, 43680, Note_off_c, 9, 44, 80
7, 43680, Note_on_c, 9, 44, 95
7, 43680, Note_on_c, 9, 40, 127
7, 43680, Note_on_c, 9, 27, 127
7, 43680, Note_on_c, 9, 38, 127
7, 43680, Note_on_c, 9, 42, 95
7, 43680, Note_on_c, 9, 36, 127
7, 43920, Note_off_c, 9, 44, 80
7, 43920, Note_off_c, 9, 40, 80
7, 43920, Note_off_c, 9, 27, 80
7, 43920, Note_off_c, 9, 38, 80
7, 43920, Note_off_c, 9, 42, 80
7, 43920, Note_off_c, 9, 36, 80
7, 43920, Note_on_c, 9, 54, 79
7, 43920, Note_on_c, 9, 44, 47
7, 44160, Note_off_c, 9, 54, 80
7, 44160, Note_off_c, 9, 44, 80
7, 44160, Note_on_c, 9, 44, 95
7, 44160, Note_on_c, 9, 36, 95
7, 44160, Note_on_c, 9, 36, 95
7, 44400, Note_off_c, 9, 44, 80
7, 44400, Note_off_c, 9, 36, 80
7, 44400, Note_off_c, 9, 36, 80
7, 44400, Note_on_c, 9, 54, 79
7, 44400, Note_on_c, 9, 44, 47
7, 44560, Note_off_c, 9, 54, 80
7, 44560, Note_off_c, 9, 44, 80
7, 44580, Note_on_c, 9, 36, 127
7, 44640, Note_off_c, 9, 36, 80
7, 44640, Note_on_c, 9, 44, 95
7, 44640, Note_on_c, 9, 40, 127
7, 44640, Note_on_c, 9, 27, 127
7, 44640, Note_on_c, 9, 38, 127
7, 44640, Note_on_c, 9, 42, 95
7, 44640, Note_on_c, 9, 36, 127
7, 44880, Note_off_c, 9, 44, 80
7, 44880, Note_off_c, 9, 40, 80
7, 44880, Note_off_c, 9, 27, 80
7, 44880, Note_off_c, 9, 38, 80
7, 44880, Note_off_c, 9, 42, 80
7, 44880, Note_off_c, 9, 36, 80
7, 44880, Note_on_c, 9, 54, 79
7, 44880, Note_on_c, 9, 44, 47
7, 45120, Note_off_c, 9, 54, 80
7, 45120, Note_off_c, 9, 44, 80
7, 45120, Note_on_c, 9, 44, 95
7, 45120, Note_on_c, 9, 36, 95
7, 45120, Note_on_c, 9, 36, 95
7, 45360, Note_off_c, 9, 44, 80
7, 45360, Note_off_c, 9, 36, 80
7, 45360, Note_off_c, 9, 36, 80
7, 45360, Note_on_c, 9, 54, 79
7, 45360, Note_on_c, 9, 44, 47
7, 45600, Note_off_c, 9, 54, 80
7, 45600, Note_off_c, 9, 44, 80
7, 45600, Note_on_c, 9, 44, 95
7, 45600, Note_on_c, 9, 40, 127
7, 45600, Note_on_c, 9, 27, 127
7, 45600, Note_on_c, 9, 38, 127
7, 45600, Note_on_c, 9, 42, 95
7, 45600, Note_on_c, 9, 36, 127
7, 45840, Note_off_c, 9, 44, 80
7, 45840, Note_off_c, 9, 40, 80
7, 45840, Note_off_c, 9, 27, 80
7, 45840, Note_off_c, 9, 38, 80
7, 45840, Note_off_c, 9, 42, 80
7, 45840, Note_off_c, 9, 36, 80
7, 45840, Note_on_c, 9, 54, 79
7, 45840, Note_on_c, 9, 44, 47
7, 46080, Note_off_c, 9, 54, 80
7, 46080, Note_off_c, 9, 44, 80
7, 46080, Note_on_c, 9, 44, 95
7, 46080, Note_on_c, 9, 36, 95
7, 46080, Note_on_c, 9, 36, 95
7, 46320, Note_off_c, 9, 44, 80
7, 46320, Note_off_c, 9, 36, 80
7, 46320, Note_off_c, 9, 36, 80
7, 46320, Note_on_c, 9, 54, 79
7, 46320, Note_on_c, 9, 44, 47
7, 46480, Note_off_c, 9, 54, 80
7, 46480, Note_off_c, 9, 44, 80
7, 46500, Note_on_c, 9, 36, 127
7, 46560, Note_off_c, 9, 36, 80
7, 46560, Note_on_c, 9, 44, 95
7, 46560, Note_on_c, 9, 40, 127
7, 46560, Note_on_c, 9, 27, 127
7, 46560, Note_on_c, 9, 38, 127
7, 46560, Note_on_c, 9, 42, 95
7, 46560, Note_on_c, 9, 36, 127
7, 46800, Note_off_c, 9, 44, 80
7, 46800, Note_off_c, 9, 40, 80
7, 46800, Note_off_c, 9, 27, 80
7, 46800, Note_off_c, 9, 38, 80
7, 46800, Note_off_c, 9, 42, 80
7, 46800, Note_off_c, 9, 36, 80
7, 46800, Note_on_c, 9, 54, 79
7, 46800, Note_on_c, 9, 44, 47
7, 47040, Note_off_c, 9, 54, 80
7, 47040, Note_off_c, 9, 44, 80
7, 47040, Note_on_c, 9, 44, 95
7, 47040, Note_on_c, 9, 36, 95
7, 47040, Note_on_c, 9, 36, 95
7, 47280, Note_off_c, 9, 44, 80
7, 47280, Note_off_c, 9, 36, 80
7, 47280, Note_off_c, 9, 36, 80
7, 47280, Note_on_c, 9, 54, 79
7, 47280, Note_on_c, 9, 44, 47
7, 47520, Note_off_c, 9, 54, 80
7, 47520, Note_off_c, 9, 44, 80
7, 47520, Note_on_c, 9, 44, 95
7, 47520, Note_on_c, 9, 40, 127
7, 47520, Note_on_c, 9, 27, 127
7, 47520, Note_on_c, 9, 38, 127
7, 47520, Note_on_c, 9, 42, 95
7, 47520, Note_on_c, 9, 36, 127
7, 47760, Note_off_c, 9, 44, 80
7, 47760, Note_off_c, 9, 40, 80
7, 47760, Note_off_c, 9, 27, 80
7, 47760, Note_off_c, 9, 38, 80
7, 47760, Note_off_c, 9, 42, 80
7, 47760, Note_off_c, 9, 36, 80
7, 47760, Note_on_c, 9, 54, 79
7, 47760, Note_on_c, 9, 44, 47
7, 48000, Note_off_c, 9, 54, 80
7, 48000, Note_off_c, 9, 44, 80
7, 48000, Note_on_c, 9, 44, 95
7, 48000, Note_on_c, 9, 36, 95
7, 48000, Note_on_c, 9, 36, 95
7, 48240, Note_off_c, 9, 44, 80
7, 48240, Note_off_c, 9, 36, 80
7, 48240, Note_off_c, 9, 36, 80
7, 48240, Note_on_c, 9, 54, 79
7, 48240, Note_on_c, 9, 44, 47
7, 48400, Note_off_c, 9, 54, 80
7, 48400, Note_off_c, 9, 44, 80
7, 48420, Note_on_c, 9, 36, 127
7, 48480, Note_off_c, 9, 36, 80
7, 48480, Note_on_c, 9, 44, 95
7, 48480, Note_on_c, 9, 40, 127
7, 48480, Note_on_c, 9, 27, 127
7, 48480, Note_on_c, 9, 38, 127
7, 48480, Note_on_c, 9, 42, 95
7, 48480, Note_on_c, 9, 36, 127
7, 48720, Note_off_c, 9, 44, 80
7, 48720, Note_off_c, 9, 40, 80
7, 48720, Note_off_c, 9, 27, 80
7, 48720, Note_off_c, 9, 38, 80
7, 48720, Note_off_c, 9, 42, 80
7, 48720, Note_off_c, 9, 36, 80
7, 48720, Note_on_c, 9, 54, 79
7, 48720, Note_on_c, 9, 44, 47
7, 48960, Note_off_c, 9, 54, 80
7, 48960, Note_off_c, 9, 44, 80
7, 48960, Note_on_c, 9, 44, 95
7, 48960, Note_on_c, 9, 36, 95
7, 48960, Note_on_c, 9, 36, 95
7, 49200, Note_off_c, 9, 44, 80
7, 49200, Note_off_c, 9, 36, 80
7, 49200, Note_off_c, 9, 36, 80
7, 49200, Note_on_c, 9, 54, 79
7, 49200, Note_on_c, 9, 44, 47
7, 49440, Note_off_c, 9, 54, 80
7, 49440, Note_off_c, 9, 44, 80
7, 49440, Note_on_c, 9, 44, 95
7, 49440, Note_on_c, 9, 40, 127
7, 49440, Note_on_c, 9, 27, 127
7, 49440, Note_on_c, 9, 38, 127
7, 49440, Note_on_c, 9, 42, 95
7, 49440, Note_on_c, 9, 36, 127
7, 49680, Note_off_c, 9, 44, 80
7, 49680, Note_off_c, 9, 40, 80
7, 49680, Note_off_c, 9, 27, 80
7, 49680, Note_off_c, 9, 38, 80
7, 49680, Note_off_c, 9, 42, 80
7, 49680, Note_off_c, 9, 36, 80
7, 49680, Note_on_c, 9, 54, 79
7, 49680, Note_on_c, 9, 44, 47
7, 49920, Note_off_c, 9, 54, 80
7, 49920, Note_off_c, 9, 44, 80
7, 49920, Note_on_c, 9, 44, 95
7, 49920, Note_on_c, 9, 36, 95
7, 49920, Note_on_c, 9, 36, 95
7, 50160, Note_off_c, 9, 44, 80
7, 50160, Note_off_c, 9, 36, 80
7, 50160, Note_off_c, 9, 36, 80
7, 50160, Note_on_c, 9, 54, 79
7, 50160, Note_on_c, 9, 44, 47
7, 50320, Note_off_c, 9, 54, 80
7, 50320, Note_off_c, 9, 44, 80
7, 50340, Note_on_c, 9, 36, 127
7, 50400, Note_off_c, 9, 36, 80
7, 50400, Note_on_c, 9, 44, 95
7, 50400, Note_on_c, 9, 40, 127
7, 50400, Note_on_c, 9, 27, 127
7, 50400, Note_on_c, 9, 38, 127
7, 50400, Note_on_c, 9, 42, 95
7, 50400, Note_on_c, 9, 36, 127
7, 50640, Note_off_c, 9, 44, 80
7, 50640, Note_off_c, 9, 40, 80
7, 50640, Note_off_c, 9, 27, 80
7, 50640, Note_off_c, 9, 38, 80
7, 50640, Note_off_c, 9, 42, 80
7, 50640, Note_off_c, 9, 36, 80
7, 50640, Note_on_c, 9, 54, 79
7, 50640, Note_on_c, 9, 44, 47
7, 50880, Note_off_c, 9, 54, 80
7, 50880, Note_off_c, 9, 44, 80
7, 50880, Note_on_c, 9, 44, 95
7, 50880, Note_on_c, 9, 36, 95
7, 50880, Note_on_c, 9, 36, 95
7, 51120, Note_off_c, 9, 44, 80
7, 51120, Note_off_c, 9, 36, 80
7, 51120, Note_off_c, 9, 36, 80
7, 51120, Note_on_c, 9, 54, 79
7, 51120, Note_on_c, 9, 44, 47
7, 51360, Note_off_c, 9, 54, 80
7, 51360, Note_off_c, 9, 44, 80
7, 51360, Note_on_c, 9, 44, 95
7, 51360, Note_on_c, 9, 40, 127
7, 51360, Note_on_c, 9, 27, 127
7, 51360, Note_on_c, 9, 38, 127
7, 51360, Note_on_c, 9, 42, 95
7, 51360, Note_on_c, 9, 36, 127
7, 51600, Note_off_c, 9, 44, 80
7, 51600, Note_off_c, 9, 40, 80
7, 51600, Note_off_c, 9, 27, 80
7, 51600, Note_off_c, 9, 38, 80
7, 51600, Note_off_c, 9, 42, 80
7, 51600, Note_off_c, 9, 36, 80
7, 51600, Note_on_c, 9, 54, 79
7, 51600, Note_on_c, 9, 44, 47
7, 51840, Note_off_c, 9, 54, 80
7, 51840, Note_off_c, 9, 44, 80
7, 51840, Note_on_c, 9, 36, 95
7, 51840, Note_on_c, 9, 47, 95
7, 52080, Note_off_c, 9, 36, 80
7, 52080, Note_off_c, 9, 47, 80
7, 52080, Note_on_c, 9, 47, 95
7, 52320, Note_off_c, 9, 47, 80
7, 52320, Note_on_c, 9, 38, 127
7, 52320, Note_on_c, 9, 36, 127
7, 52320, Note_on_c, 9, 47, 111
7, 52560, Note_off_c, 9, 38, 80
7, 52560, Note_off_c, 9, 36, 80
7, 52560, Note_off_c, 9, 47, 80
7, 52560, Note_on_c, 9, 47, 95
7, 52800, Note_off_c, 9, 47, 80
7, 52800, Note_on_c, 9, 36, 111
7, 52800, Note_on_c, 9, 47, 111
7, 53040, Note_off_c, 9, 36, 80
7, 53040, Note_off_c, 9, 47, 80
7, 53040, Note_on_c, 9, 47, 111
7, 53280, Note_off_c, 9, 47, 80
7, 53280, Note_on_c, 9, 38, 127
7, 53280, Note_on_c, 9, 36, 111
7, 53280, Note_on_c, 9, 47, 111
7, 53520, Note_off_c, 9, 38, 80
7, 53520, Note_off_c, 9, 36, 80
7, 53520, Note_off_c, 9, 47, 80
7, 53520, Note_on_c, 9, 47, 95
7, 53760, Note_off_c, 9, 47, 80
7, 53760, Note_on_c, 9, 36, 111
7, 53760, Note_on_c, 9, 47, 95
7, 54000, Note_off_c, 9, 36, 80
7, 54000, Note_off_c, 9, 47, 80
7, 54000, Note_on_c, 9, 47, 95
7, 54240, Note_off_c, 9, 47, 80
7, 54240, Note_on_c, 9, 38, 127
7, 54240, Note_on_c, 9, 36, 111
7, 54240, Note_on_c, 9, 47, 111
7, 54480, Note_off_c, 9, 38, 80
7, 54480, Note_off_c, 9, 36, 80
7, 54480, Note_off_c, 9, 47, 80
7, 54480, Note_on_c, 9, 47, 95
7, 54720, Note_off_c, 9, 47, 80
7, 54720, Note_on_c, 9, 36, 111
7, 54720, Note_on_c, 9, 47, 111
7, 54960, Note_off_c, 9, 36, 80
7, 54960, Note_off_c, 9, 47, 80
7, 54960, Note_on_c, 9, 47, 111
7, 55200, Note_off_c, 9, 47, 80
7, 55200, Note_on_c, 9, 38, 127
7, 55200, Note_on_c, 9, 36, 111
7, 55320, Note_off_c, 9, 38, 80
7, 55320, Note_off_c, 9, 36, 80
7, 55320, Note_on_c, 9, 47, 111
7, 55440, Note_off_c, 9, 47, 80
7, 55440, Note_on_c, 9, 47, 111
7, 55560, Note_off_c, 9, 47, 80
7, 55680, Note_on_c, 9, 57, 95
7, 55680, Note_on_c, 9, 49, 95
7, 55680, Note_on_c, 9, 38, 95
7, 55680, Note_on_c, 9, 41, 95
7, 55680, Note_on_c, 9, 36, 127
7, 55740, Note_off_c, 9, 57, 80
7, 55740, Note_off_c, 9, 49, 80
7, 55740, Note_off_c, 9, 38, 80
7, 55740, Note_off_c, 9, 41, 80
7, 55740, Note_off_c, 9, 36, 80
7, 55920, Note_on_c, 9, 36, 95
7, 56160, Note_off_c, 9, 36, 80
7, 56160, Note_on_c, 9, 55, 95
7, 56160, Note_on_c, 9, 40, 95
7, 56160, Note_on_c, 9, 27, 127
7, 56160, Note_on_c, 9, 38, 95
7, 56160, Note_on_c, 9, 41, 95
7, 56160, Note_on_c, 9, 36, 127
7, 56400, Note_off_c, 9, 55, 80
7, 56400, Note_off_c, 9, 40, 80
7, 56400, Note_off_c, 9, 27, 80
7, 56400, Note_off_c, 9, 38, 80
7, 56400, Note_off_c, 9, 41, 80
7, 56400, Note_off_c, 9, 36, 80
7, 56400, Note_on_c, 9, 55, 95
7, 56400, Note_on_c, 9, 59, 95
7, 56400, Note_on_c, 9, 36, 95
7, 56520, Note_off_c, 9, 55, 80
7, 56520, Note_off_c, 9, 59, 80
7, 56520, Note_off_c, 9, 36, 80
7, 56520, Note_on_c, 9, 55, 95
7, 56520, Note_on_c, 9, 59, 95
7, 56520, Note_on_c, 9, 36, 95
7, 56640, Note_off_c, 9, 55, 80
7, 56640, Note_off_c, 9, 59, 80
7, 56640, Note_off_c, 9, 36, 80
7, 56640, Note_on_c, 9, 44, 111
7, 56640, Note_on_c, 9, 59, 95
7, 56640, Note_on_c, 9, 38, 95
7, 56640, Note_on_c, 9, 36, 127
7, 56880, Note_off_c, 9, 44, 80
7, 56880, Note_off_c, 9, 59, 80
7, 56880, Note_off_c, 9, 38, 80
7, 56880, Note_off_c, 9, 36, 80
7, 56880, Note_on_c, 9, 44, 95
7, 56880, Note_on_c, 9, 59, 95
7, 56880, Note_on_c, 9, 38, 95
7, 56880, Note_on_c, 9, 36, 111
7, 57120, Note_off_c, 9, 44, 80
7, 57120, Note_off_c, 9, 59, 80
7, 57120, Note_off_c, 9, 38, 80
7, 57120, Note_off_c, 9, 36, 80
7, 57120, Note_on_c, 9, 38, 127
7, 57120, Note_on_c, 9, 41, 95
7, 57120, Note_on_c, 9, 38, 127
7, 57360, Note_off_c, 9, 38, 80
7, 57360, Note_off_c, 9, 41, 80
7, 57360, Note_off_c, 9, 38, 80
7, 57360, Note_on_c, 9, 57, 127
7, 57360, Note_on_c, 9, 36, 95
7, 57480, Note_off_c, 9, 36, 80
7, 57600, Note_on_c, 9, 38, 95
7, 57600, Note_on_c, 9, 41, 95
7, 57600, Note_on_c, 9, 36, 95
7, 57840, Note_off_c, 9, 57, 80
7, 57840, Note_off_c, 9, 38, 80
7, 57840, Note_off_c, 9, 41, 80
7, 57840, Note_off_c, 9, 36, 80
7, 57840, Note_on_c, 9, 36, 111
7, 58080, Note_off_c, 9, 36, 80
7, 58080, Note_on_c, 9, 57, 79
7, 58080, Note_on_c, 9, 40, 111
7, 58080, Note_on_c, 9, 27, 127
7, 58080, Note_on_c, 9, 38, 95
7, 58080, Note_on_c, 9, 42, 95
7, 58080, Note_on_c, 9, 36, 127
7, 58320, Note_off_c, 9, 57, 80
7, 58320, Note_off_c, 9, 40, 80
7, 58320, Note_off_c, 9, 27, 80
7, 58320, Note_off_c, 9, 38, 80
7, 58320, Note_off_c, 9, 42, 80
7, 58320, Note_off_c, 9, 36, 80
7, 58320, Note_on_c, 9, 36, 127
7, 58440, Note_off_c, 9, 36, 80
7, 58440, Note_on_c, 9, 59, 95
7, 58440, Note_on_c, 9, 36, 127
7, 58560, Note_off_c, 9, 59, 80
7, 58560, Note_off_c, 9, 36, 80
7, 58560, Note_on_c, 9, 44, 95
7, 58560, Note_on_c, 9, 36, 111
7, 58800, Note_off_c, 9, 44, 80
7, 58800, Note_off_c, 9, 36, 80
7, 58800, Note_on_c, 9, 44, 95
7, 58800, Note_on_c, 9, 47, 111
7, 59040, Note_off_c, 9, 44, 80
7, 59040, Note_off_c, 9, 47, 80
7, 59040, Note_on_c, 9, 46, 95
7, 59040, Note_on_c, 9, 38, 127
7, 59040, Note_on_c, 9, 47, 127
7, 59160, Note_off_c, 9, 46, 80
7, 59160, Note_off_c, 9, 38, 80
7, 59160, Note_off_c, 9, 47, 80
7, 59160, Note_on_c, 9, 47, 127
7, 59280, Note_off_c, 9, 47, 80
7, 59280, Note_on_c, 9, 47, 127
7, 59400, Note_off_c, 9, 47, 80
7, 59520, Note_on_c, 9, 57, 95
7, 59520, Note_on_c, 9, 49, 95
7, 59520, Note_on_c, 9, 38, 95
7, 59520, Note_on_c, 9, 41, 95
7, 59520, Note_on_c, 9, 36, 127
7, 59580, Note_off_c, 9, 57, 80
7, 59580, Note_off_c, 9, 49, 80
7, 59580, Note_off_c, 9, 38, 80
7, 59580, Note_off_c, 9, 41, 80
7, 59580, Note_off_c, 9, 36, 80
7, 59760, Note_on_c, 9, 36, 95
7, 60000, Note_off_c, 9, 36, 80
7, 60000, Note_on_c, 9, 55, 95
7, 60000, Note_on_c, 9, 40, 95
7, 60000, Note_on_c, 9, 27, 127
7, 60000, Note_on_c, 9, 38, 95
7, 60000, Note_on_c, 9, 41, 95
7, 60000, Note_on_c, 9, 36, 127
7, 60240, Note_off_c, 9, 55, 80
7, 60240, Note_off_c, 9, 40, 80
7, 60240, Note_off_c, 9, 27, 80
7, 60240, Note_off_c, 9, 38, 80
7, 60240, Note_off_c, 9, 41, 80
7, 60240, Note_off_c, 9, 36, 80
7, 60240, Note_on_c, 9, 55, 95
7, 60240, Note_on_c, 9, 59, 95
7, 60240, Note_on_c, 9, 36, 95
7, 60360, Note_off_c, 9, 55, 80
7, 60360, Note_off_c, 9, 59, 80
7, 60360, Note_off_c, 9, 36, 80
7, 60360, Note_on_c, 9, 55, 95
7, 60360, Note_on_c, 9, 59, 95
7, 60360, Note_on_c, 9, 36, 95
7, 60480, Note_off_c, 9, 55, 80
7, 60480, Note_off_c, 9, 59, 80
7, 60480, Note_off_c, 9, 36, 80
7, 60480, Note_on_c, 9, 44, 111
7, 60480, Note_on_c, 9, 59, 95
7, 60480, Note_on_c, 9, 38, 95
7, 60480, Note_on_c, 9, 36, 127
7, 60720, Note_off_c, 9, 44, 80
7, 60720, Note_off_c, 9, 59, 80
7, 60720, Note_off_c, 9, 38, 80
7, 60720, Note_off_c, 9, 36, 80
7, 60720, Note_on_c, 9, 44, 95
7, 60720, Note_on_c, 9, 59, 95
7, 60720, Note_on_c, 9, 38, 95
7, 60720, Note_on_c, 9, 36, 111
7, 60960, Note_off_c, 9, 44, 80
7, 60960, Note_off_c, 9, 59, 80
7, 60960, Note_off_c, 9, 38, 80
7, 60960, Note_off_c, 9, 36, 80
7, 60960, Note_on_c, 9, 38, 127
7, 60960, Note_on_c, 9, 41, 95
7, 60960, Note_on_c, 9, 38, 127
7, 61200, Note_off_c, 9, 38, 80
7, 61200, Note_off_c, 9, 41, 80
7, 61200, Note_off_c, 9, 38, 80
7, 61200, Note_on_c, 9, 57, 127
7, 61200, Note_on_c, 9, 36, 95
7, 61320, Note_off_c, 9, 36, 80
7, 61440, Note_on_c, 9, 38, 95
7, 61440, Note_on_c, 9, 41, 95
7, 61440, Note_on_c, 9, 36, 95
7, 61680, Note_off_c, 9, 57, 80
7, 61680, Note_off_c, 9, 38, 80
7, 61680, Note_off_c, 9, 41, 80
7, 61680, Note_off_c, 9, 36, 80
7, 61680, Note_on_c, 9, 36, 111
7, 61920, Note_off_c, 9, 36, 80
7, 61920, Note_on_c, 9, 57, 79
7, 61920, Note_on_c, 9, 40, 111
7, 61920, Note_on_c, 9, 27, 127
7, 61920, Note_on_c, 9, 38, 95
7, 61920, Note_on_c, 9, 42, 95
7, 61920, Note_on_c, 9, 36, 127
7, 62160, Note_off_c, 9, 57, 80
7, 62160, Note_off_c, 9, 40, 80
7, 62160, Note_off_c, 9, 27, 80
7, 62160, Note_off_c, 9, 38, 80
7, 62160, Note_off_c, 9, 42, 80
7, 62160, Note_off_c, 9, 36, 80
7, 62160, Note_on_c, 9, 36, 127
7, 62280, Note_off_c, 9, 36, 80
7, 62280, Note_on_c, 9, 59, 95
7, 62280, Note_on_c, 9, 36, 127
7, 62400, Note_off_c, 9, 59, 80
7, 62400, Note_off_c, 9, 36, 80
7, 62400, Note_on_c, 9, 44, 95
7, 62400, Note_on_c, 9, 36, 111
7, 62640, Note_off_c, 9, 44, 80
7, 62640, Note_off_c, 9, 36, 80
7, 62640, Note_on_c, 9, 44, 95
7, 62640, Note_on_c, 9, 47, 111
7, 62880, Note_off_c, 9, 44, 80
7, 62880, Note_off_c, 9, 47, 80
7, 62880, Note_on_c, 9, 46, 95
7, 62880, Note_on_c, 9, 38, 127
7, 62880, Note_on_c, 9, 47, 127
7, 63000, Note_off_c, 9, 46, 80
7, 63000, Note_off_c, 9, 38, 80
7, 63000, Note_off_c, 9, 47, 80
7, 63000, Note_on_c, 9, 47, 127
7, 63120, Note_off_c, 9, 47, 80
7, 63120, Note_on_c, 9, 47, 127
7, 63240, Note_off_c, 9, 47, 80
7, 63360, Note_on_c, 9, 57, 95
7, 63360, Note_on_c, 9, 49, 95
7, 63360, Note_on_c, 9, 38, 95
7, 63360, Note_on_c, 9, 41, 95
7, 63360, Note_on_c, 9, 36, 127
7, 63420, Note_off_c, 9, 57, 80
7, 63420, Note_off_c, 9, 49, 80
7, 63420, Note_off_c, 9, 38, 80
7, 63420, Note_off_c, 9, 41, 80
7, 63420, Note_off_c, 9, 36, 80
7, 63600, Note_on_c, 9, 36, 95
7, 63840, Note_off_c, 9, 36, 80
7, 63840, Note_on_c, 9, 55, 95
7, 63840, Note_on_c, 9, 40, 95
7, 63840, Note_on_c, 9, 27, 127
7, 63840, Note_on_c, 9, 38, 95
7, 63840, Note_on_c, 9, 41, 95
7, 63840, Note_on_c, 9, 36, 127
7, 64080, Note_off_c, 9, 55, 80
7, 64080, Note_off_c, 9, 40, 80
7, 64080, Note_off_c, 9, 27, 80
7, 64080, Note_off_c, 9, 38, 80
7, 64080, Note_off_c, 9, 41, 80
7, 64080, Note_off_c, 9, 36, 80
7, 64080, Note_on_c, 9, 55, 95
7, 64080, Note_on_c, 9, 59, 95
7, 64080, Note_on_c, 9, 36, 95
7, 64200, Note_off_c, 9, 55, 80
7, 64200, Note_off_c, 9, 59, 80
7, 64200, Note_off_c, 9, 36, 80
7, 64200, Note_on_c, 9, 55, 95
7, 64200, Note_on_c, 9, 59, 95
7, 64200, Note_on_c, 9, 36, 95
7, 64320, Note_off_c, 9, 55, 80
7, 64320, Note_off_c, 9, 59, 80
7, 64320, Note_off_c, 9, 36, 80
7, 64320, Note_on_c, 9, 44, 111
7, 64320, Note_on_c, 9, 59, 95
7, 64320, Note_on_c, 9, 38, 95
7, 64320, Note_on_c, 9, 36, 127
7, 64560, Note_off_c, 9, 44, 80
7, 64560, Note_off_c, 9, 59, 80
7, 64560, Note_off_c, 9, 38, 80
7, 64560, Note_off_c, 9, 36, 80
7, 64560, Note_on_c, 9, 44, 95
7, 64560, Note_on_c, 9, 59, 95
7, 64560, Note_on_c, 9, 38, 95
7, 64560, Note_on_c, 9, 36, 111
7, 64800, Note_off_c, 9, 44, 80
7, 64800, Note_off_c, 9, 59, 80
7, 64800, Note_off_c, 9, 38, 80
7, 64800, Note_off_c, 9, 36, 80
7, 64800, Note_on_c, 9, 38, 127
7, 64800, Note_on_c, 9, 41, 95
7, 64800, Note_on_c, 9, 38, 127
7, 65040, Note_off_c, 9, 38, 80
7, 65040, Note_off_c, 9, 41, 80
7, 65040, Note_off_c, 9, 38, 80
7, 65040, Note_on_c, 9, 57, 127
7, 65040, Note_on_c, 9, 36, 95
7, 65160, Note_off_c, 9, 36, 80
7, 65280, Note_on_c, 9, 38, 95
7, 65280, Note_on_c, 9, 41, 95
7, 65280, Note_on_c, 9, 36, 95
7, 65520, Note_off_c, 9, 57, 80
7, 65520, Note_off_c, 9, 38, 80
7, 65520, Note_off_c, 9, 41, 80
7, 65520, Note_off_c, 9, 36, 80
7, 65520, Note_on_c, 9, 36, 111
7, 65760, Note_off_c, 9, 36, 80
7, 65760, Note_on_c, 9, 57, 79
7, 65760, Note_on_c, 9, 40, 111
7, 65760, Note_on_c, 9, 27, 127
7, 65760, Note_on_c, 9, 38, 95
7, 65760, Note_on_c, 9, 42, 95
7, 65760, Note_on_c, 9, 36, 127
7, 66000, Note_off_c, 9, 57, 80
7, 66000, Note_off_c, 9, 40, 80
7, 66000, Note_off_c, 9, 27, 80
7, 66000, Note_off_c, 9, 38, 80
7, 66000, Note_off_c, 9, 42, 80
7, 66000, Note_off_c, 9, 36, 80
7, 66000, Note_on_c, 9, 36, 127
7, 66120, Note_off_c, 9, 36, 80
7, 66120, Note_on_c, 9, 59, 95
7, 66120, Note_on_c, 9, 36, 127
7, 66240, Note_off_c, 9, 59, 80
7, 66240, Note_off_c, 9, 36, 80
7, 66240, Note_on_c, 9, 44, 95
7, 66240, Note_on_c, 9, 36, 111
7, 66480, Note_off_c, 9, 44, 80
7, 66480, Note_off_c, 9, 36, 80
7, 66480, Note_on_c, 9, 44, 95
7, 66480, Note_on_c, 9, 47, 111
7, 66720, Note_off_c, 9, 44, 80
7, 66720, Note_off_c, 9, 47, 80
7, 66720, Note_on_c, 9, 46, 95
7, 66720, Note_on_c, 9, 38, 127
7, 66720, Note_on_c, 9, 47, 127
7, 66840, Note_off_c, 9, 46, 80
7, 66840, Note_off_c, 9, 38, 80
7, 66840, Note_off_c, 9, 47, 80
7, 66840, Note_on_c, 9, 47, 127
7, 66960, Note_off_c, 9, 47, 80
7, 66960, Note_on_c, 9, 47, 127
7, 67080, Note_off_c, 9, 47, 80
7, 67200, Note_on_c, 9, 57, 95
7, 67200, Note_on_c, 9, 49, 95
7, 67200, Note_on_c, 9, 38, 95
7, 67200, Note_on_c, 9, 41, 95
7, 67200, Note_on_c, 9, 36, 127
7, 67260, Note_off_c, 9, 57, 80
7, 67260, Note_off_c, 9, 49, 80
7, 67260, Note_off_c, 9, 38, 80
7, 67260, Note_off_c, 9, 41, 80
7, 67260, Note_off_c, 9, 36, 80
7, 67440, Note_on_c, 9, 36, 95
7, 67680, Note_off_c, 9, 36, 80
7, 67680, Note_on_c, 9, 55, 95
7, 67680, Note_on_c, 9, 40, 95
7, 67680, Note_on_c, 9, 27, 127
7, 67680, Note_on_c, 9, 38, 95
7, 67680, Note_on_c, 9, 41, 95
7, 67680, Note_on_c, 9, 36, 127
7, 67920, Note_off_c, 9, 55, 80
7, 67920, Note_off_c, 9, 40, 80
7, 67920, Note_off_c, 9, 27, 80
7, 67920, Note_off_c, 9, 38, 80
7, 67920, Note_off_c, 9, 41, 80
7, 67920, Note_off_c, 9, 36, 80
7, 67920, Note_on_c, 9, 55, 95
7, 67920, Note_on_c, 9, 59, 95
7, 67920, Note_on_c, 9, 36, 95
7, 68040, Note_off_c, 9, 55, 80
7, 68040, Note_off_c, 9, 59, 80
7, 68040, Note_off_c, 9, 36, 80
7, 68040, Note_on_c, 9, 55, 95
7, 68040, Note_on_c, 9, 59, 95
7, 68040, Note_on_c, 9, 36, 95
7, 68160, Note_off_c, 9, 55, 80
7, 68160, Note_off_c, 9, 59, 80
7, 68160, Note_off_c, 9, 36, 80
7, 68160, Note_on_c, 9, 44, 111
7, 68160, Note_on_c, 9, 59, 95
7, 68160, Note_on_c, 9, 38, 95
7, 68160, Note_on_c, 9, 36, 127
7, 68400, Note_off_c, 9, 44, 80
7, 68400, Note_off_c, 9, 59, 80
7, 68400, Note_off_c, 9, 38, 80
7, 68400, Note_off_c, 9, 36, 80
7, 68400, Note_on_c, 9, 44, 95
7, 68400, Note_on_c, 9, 59, 95
7, 68400, Note_on_c, 9, 38, 95
7, 68400, Note_on_c, 9, 36, 111
7, 68640, Note_off_c, 9, 44, 80
7, 68640, Note_off_c, 9, 59, 80
7, 68640, Note_off_c, 9, 38, 80
7, 68640, Note_off_c, 9, 36, 80
7, 68640, Note_on_c, 9, 38, 127
7, 68640, Note_on_c, 9, 41, 95
7, 68640, Note_on_c, 9, 38, 127
7, 68880, Note_off_c, 9, 38, 80
7, 68880, Note_off_c, 9, 41, 80
7, 68880, Note_off_c, 9, 38, 80
7, 68880, Note_on_c, 9, 57, 127
7, 68880, Note_on_c, 9, 36, 95
7, 69000, Note_off_c, 9, 36, 80
7, 69120, Note_on_c, 9, 38, 95
7, 69120, Note_on_c, 9, 41, 95
7, 69120, Note_on_c, 9, 36, 95
7, 69360, Note_off_c, 9, 57, 80
7, 69360, Note_off_c, 9, 38, 80
7, 69360, Note_off_c, 9, 41, 80
7, 69360, Note_off_c, 9, 36, 80
7, 69360, Note_on_c, 9, 36, 111
7, 69600, Note_off_c, 9, 36, 80
7, 69600, Note_on_c, 9, 57, 79
7, 69600, Note_on_c, 9, 40, 111
7, 69600, Note_on_c, 9, 27, 127
7, 69600, Note_on_c, 9, 38, 95
7, 69600, Note_on_c, 9, 42, 95
7, 69600, Note_on_c, 9, 36, 127
7, 69840, Note_off_c, 9, 57, 80
7, 69840, Note_off_c, 9, 40, 80
7, 69840, Note_off_c, 9, 27, 80
7, 69840, Note_off_c, 9, 38, 80
7, 69840, Note_off_c, 9, 42, 80
7, 69840, Note_off_c, 9, 36, 80
7, 69840, Note_on_c, 9, 36, 127
7, 69960, Note_off_c, 9, 36, 80
7, 69960, Note_on_c, 9, 59, 95
7, 69960, Note_on_c, 9, 36, 127
7, 70080, Note_off_c, 9, 59, 80
7, 70080, Note_off_c, 9, 36, 80
7, 70080, Note_on_c, 9, 44, 95
7, 70080, Note_on_c, 9, 36, 111
7, 70320, Note_off_c, 9, 44, 80
7, 70320, Note_off_c, 9, 36, 80
7, 70320, Note_on_c, 9, 44, 95
7, 70320, Note_on_c, 9, 47, 111
7, 70560, Note_off_c, 9, 44, 80
7, 70560, Note_off_c, 9, 47, 80
7, 70560, Note_on_c, 9, 46, 95
7, 70560, Note_on_c, 9, 38, 127
7, 70560, Note_on_c, 9, 47, 127
7, 70680, Note_off_c, 9, 46, 80
7, 70680, Note_off_c, 9, 38, 80
7, 70680, Note_off_c, 9, 47, 80
7, 70680, Note_on_c, 9, 47, 127
7, 70800, Note_off_c, 9, 47, 80
7, 70800, Note_on_c, 9, 47, 127
7, 70920, Note_off_c, 9, 47, 80
7, 71040, Note_on_c, 9, 57, 95
7, 71040, Note_on_c, 9, 49, 95
7, 71040, Note_on_c, 9, 38, 95
7, 71040, Note_on_c, 9, 41, 95
7, 71040, Note_on_c, 9, 36, 127
7, 71100, Note_off_c, 9, 57, 80
7, 71100, Note_off_c, 9, 49, 80
7, 71100, Note_off_c, 9, 38, 80
7, 71100, Note_off_c, 9, 41, 80
7, 71100, Note_off_c, 9, 36, 80
7, 71280, Note_on_c, 9, 36, 95
7, 71520, Note_off_c, 9, 36, 80
7, 71520, Note_on_c, 9, 55, 95
7, 71520, Note_on_c, 9, 40, 95
7, 71520, Note_on_c, 9, 27, 127
7, 71520, Note_on_c, 9, 38, 95
7, 71520, Note_on_c, 9, 41, 95
7, 71520, Note_on_c, 9, 36, 127
7, 71760, Note_off_c, 9, 55, 80
7, 71760, Note_off_c, 9, 40, 80
7, 71760, Note_off_c, 9, 27, 80
7, 71760, Note_off_c, 9, 38, 80
7, 71760, Note_off_c, 9, 41, 80
7, 71760, Note_off_c, 9, 36, 80
7, 71760, Note_on_c, 9, 55, 95
7, 71760, Note_on_c, 9, 59, 95
7, 71760, Note_on_c, 9, 36, 95
7, 71880, Note_off_c, 9, 55, 80
7, 71880, Note_off_c, 9, 59, 80
7, 71880, Note_off_c, 9, 36, 80
7, 71880, Note_on_c, 9, 55, 95
7, 71880, Note_on_c, 9, 59, 95
7, 71880, Note_on_c, 9, 36, 95
7, 72000, Note_off_c, 9, 55, 80
7, 72000, Note_off_c, 9, 59, 80
7, 72000, Note_off_c, 9, 36, 80
7, 72000, Note_on_c, 9, 44, 111
7, 72000, Note_on_c, 9, 59, 95
7, 72000, Note_on_c, 9, 38, 95
7, 72000, Note_on_c, 9, 36, 127
7, 72240, Note_off_c, 9, 44, 80
7, 72240, Note_off_c, 9, 59, 80
7, 72240, Note_off_c, 9, 38, 80
7, 72240, Note_off_c, 9, 36, 80
7, 72240, Note_on_c, 9, 44, 95
7, 72240, Note_on_c, 9, 59, 95
7, 72240, Note_on_c, 9, 38, 95
7, 72240, Note_on_c, 9, 36, 111
7, 72480, Note_off_c, 9, 44, 80
7, 72480, Note_off_c, 9, 59, 80
7, 72480, Note_off_c, 9, 38, 80
7, 72480, Note_off_c, 9, 36, 80
7, 72480, Note_on_c, 9, 38, 127
7, 72480, Note_on_c, 9, 41, 95
7, 72480, Note_on_c, 9, 38, 127
7, 72720, Note_off_c, 9, 38, 80
7, 72720, Note_off_c, 9, 41, 80
7, 72720, Note_off_c, 9, 38, 80
7, 72720, Note_on_c, 9, 57, 127
7, 72720, Note_on_c, 9, 36, 95
7, 72840, Note_off_c, 9, 36, 80
7, 72960, Note_on_c, 9, 38, 95
7, 72960, Note_on_c, 9, 41, 95
7, 72960, Note_on_c, 9, 36, 95
7, 73200, Note_off_c, 9, 57, 80
7, 73200, Note_off_c, 9, 38, 80
7, 73200, Note_off_c, 9, 41, 80
7, 73200, Note_off_c, 9, 36, 80
7, 73200, Note_on_c, 9, 36, 111
7, 73440, Note_off_c, 9, 36, 80
7, 73440, Note_on_c, 9, 57, 79
7, 73440, Note_on_c, 9, 40, 111
7, 73440, Note_on_c, 9, 27, 127
7, 73440, Note_on_c, 9, 38, 95
7, 73440, Note_on_c, 9, 42, 95
7, 73440, Note_on_c, 9, 36, 127
7, 73680, Note_off_c, 9, 57, 80
7, 73680, Note_off_c, 9, 40, 80
7, 73680, Note_off_c, 9, 27, 80
7, 73680, Note_off_c, 9, 38, 80
7, 73680, Note_off_c, 9, 42, 80
7, 73680, Note_off_c, 9, 36, 80
7, 73680, Note_on_c, 9, 36, 127
7, 73800, Note_off_c, 9, 36, 80
7, 73800, Note_on_c, 9, 59, 95
7, 73800, Note_on_c, 9, 36, 127
7, 73920, Note_off_c, 9, 59, 80
7, 73920, Note_off_c, 9, 36, 80
7, 73920, Note_on_c, 9, 44, 95
7, 73920, Note_on_c, 9, 36, 111
7, 74160, Note_off_c, 9, 44, 80
7, 74160, Note_off_c, 9, 36, 80
7, 74160, Note_on_c, 9, 44, 95
7, 74160, Note_on_c, 9, 47, 111
7, 74400, Note_off_c, 9, 44, 80
7, 74400, Note_off_c, 9, 47, 80
7, 74400, Note_on_c, 9, 46, 95
7, 74400, Note_on_c, 9, 38, 127
7, 74400, Note_on_c, 9, 47, 127
7, 74520, Note_off_c, 9, 46, 80
7, 74520, Note_off_c, 9, 38, 80
7, 74520, Note_off_c, 9, 47, 80
7, 74520, Note_on_c, 9, 47, 127
7, 74640, Note_off_c, 9, 47, 80
7, 74640, Note_on_c, 9, 47, 127
7, 74760, Note_off_c, 9, 47, 80
7, 74880, Note_on_c, 9, 57, 95
7, 74880, Note_on_c, 9, 49, 95
7, 74880, Note_on_c, 9, 38, 95
7, 74880, Note_on_c, 9, 41, 95
7, 74880, Note_on_c, 9, 36, 127
7, 74940, Note_off_c, 9, 57, 80
7, 74940, Note_off_c, 9, 49, 80
7, 74940, Note_off_c, 9, 38, 80
7, 74940, Note_off_c, 9, 41, 80
7, 74940, Note_off_c, 9, 36, 80
7, 75120, Note_on_c, 9, 36, 95
7, 75360, Note_off_c, 9, 36, 80
7, 75360, Note_on_c, 9, 55, 95
7, 75360, Note_on_c, 9, 40, 95
7, 75360, Note_on_c, 9, 27, 127
7, 75360, Note_on_c, 9, 38, 95
7, 75360, Note_on_c, 9, 41, 95
7, 75360, Note_on_c, 9, 36, 127
7, 75600, Note_off_c, 9, 55, 80
7, 75600, Note_off_c, 9, 40, 80
7, 75600, Note_off_c, 9, 27, 80
7, 75600, Note_off_c, 9, 38, 80
7, 75600, Note_off_c, 9, 41, 80
7, 75600, Note_off_c, 9, 36, 80
7, 75600, Note_on_c, 9, 55, 95
7, 75600, Note_on_c, 9, 59, 95
7, 75600, Note_on_c, 9, 36, 95
7, 75720, Note_off_c, 9, 55, 80
7, 75720, Note_off_c, 9, 59, 80
7, 75720, Note_off_c, 9, 36, 80
7, 75720, Note_on_c, 9, 55, 95
7, 75720, Note_on_c, 9, 59, 95
7, 75720, Note_on_c, 9, 36, 95
7, 75840, Note_off_c, 9, 55, 80
7, 75840, Note_off_c, 9, 59, 80
7, 75840, Note_off_c, 9, 36, 80
7, 75840, Note_on_c, 9, 44, 111
7, 75840, Note_on_c, 9, 59, 95
7, 75840, Note_on_c, 9, 38, 95
7, 75840, Note_on_c, 9, 36, 127
7, 76080, Note_off_c, 9, 44, 80
7, 76080, Note_off_c, 9, 59, 80
7, 76080, Note_off_c, 9, 38, 80
7, 76080, Note_off_c, 9, 36, 80
7, 76080, Note_on_c, 9, 44, 95
7, 76080, Note_on_c, 9, 59, 95
7, 76080, Note_on_c, 9, 38, 95
7, 76080, Note_on_c, 9, 36, 111
7, 76320, Note_off_c, 9, 44, 80
7, 76320, Note_off_c, 9, 59, 80
7, 76320, Note_off_c, 9, 38, 80
7, 76320, Note_off_c, 9, 36, 80
7, 76320, Note_on_c, 9, 38, 127
7, 76320, Note_on_c, 9, 41, 95
7, 76320, Note_on_c, 9, 38, 127
7, 76560, Note_off_c, 9, 38, 80
7, 76560, Note_off_c, 9, 41, 80
7, 76560, Note_off_c, 9, 38, 80
7, 76560, Note_on_c, 9, 57, 127
7, 76560, Note_on_c, 9, 36, 95
7, 76680, Note_off_c, 9, 36, 80
7, 76800, Note_on_c, 9, 38, 95
7, 76800, Note_on_c, 9, 41, 95
7, 76800, Note_on_c, 9, 36, 95
7, 77040, Note_off_c, 9, 57, 80
7, 77040, Note_off_c, 9, 38, 80
7, 77040, Note_off_c, 9, 41, 80
7, 77040, Note_off_c, 9, 36, 80
7, 77040, Note_on_c, 9, 36, 111
7, 77280, Note_off_c, 9, 36, 80
7, 77280, Note_on_c, 9, 57, 79
7, 77280, Note_on_c, 9, 40, 111
7, 77280, Note_on_c, 9, 27, 127
7, 77280, Note_on_c, 9, 38, 95
7, 77280, Note_on_c, 9, 42, 95
7, 77280, Note_on_c, 9, 36, 127
7, 77520, Note_off_c, 9, 57, 80
7, 77520, Note_off_c, 9, 40, 80
7, 77520, Note_off_c, 9, 27, 80
7, 77520, Note_off_c, 9, 38, 80
7, 77520, Note_off_c, 9, 42, 80
7, 77520, Note_off_c, 9, 36, 80
7, 77520, Note_on_c, 9, 36, 127
7, 77640, Note_off_c, 9, 36, 80
7, 77640, Note_on_c, 9, 59, 95
7, 77640, Note_on_c, 9, 36, 127
7, 77760, Note_off_c, 9, 59, 80
7, 77760, Note_off_c, 9, 36, 80
7, 77760, Note_on_c, 9, 44, 95
7, 77760, Note_on_c, 9, 36, 111
7, 78000, Note_off_c, 9, 44, 80
7, 78000, Note_off_c, 9, 36, 80
7, 78000, Note_on_c, 9, 44, 95
7, 78000, Note_on_c, 9, 47, 111
7, 78240, Note_off_c, 9, 44, 80
7, 78240, Note_off_c, 9, 47, 80
7, 78240, Note_on_c, 9, 46, 95
7, 78240, Note_on_c, 9, 38, 127
7, 78240, Note_on_c, 9, 47, 127
7, 78360, Note_off_c, 9, 46, 80
7, 78360, Note_off_c, 9, 38, 80
7, 78360, Note_off_c, 9, 47, 80
7, 78360, Note_on_c, 9, 47, 127
7, 78480, Note_off_c, 9, 47, 80
7, 78480, Note_on_c, 9, 47, 127
7, 78600, Note_off_c, 9, 47, 80
7, 78720, Note_on_c, 9, 57, 95
7, 78720, Note_on_c, 9, 49, 95
7, 78720, Note_on_c, 9, 38, 95
7, 78720, Note_on_c, 9, 41, 95
7, 78720, Note_on_c, 9, 36, 127
7, 78780, Note_off_c, 9, 57, 80
7, 78780, Note_off_c, 9, 49, 80
7, 78780, Note_off_c, 9, 38, 80
7, 78780, Note_off_c, 9, 41, 80
7, 78780, Note_off_c, 9, 36, 80
7, 78960, Note_on_c, 9, 36, 95
7, 79200, Note_off_c, 9, 36, 80
7, 79200, Note_on_c, 9, 55, 95
7, 79200, Note_on_c, 9, 40, 95
7, 79200, Note_on_c, 9, 27, 127
7, 79200, Note_on_c, 9, 38, 95
7, 79200, Note_on_c, 9, 41, 95
7, 79200, Note_on_c, 9, 36, 127
7, 79440, Note_off_c, 9, 55, 80
7, 79440, Note_off_c, 9, 40, 80
7, 79440, Note_off_c, 9, 27, 80
7, 79440, Note_off_c, 9, 38, 80
7, 79440, Note_off_c, 9, 41, 80
7, 79440, Note_off_c, 9, 36, 80
7, 79440, Note_on_c, 9, 55, 95
7, 79440, Note_on_c, 9, 59, 95
7, 79440, Note_on_c, 9, 36, 95
7, 79560, Note_off_c, 9, 55, 80
7, 79560, Note_off_c, 9, 59, 80
7, 79560, Note_off_c, 9, 36, 80
7, 79560, Note_on_c, 9, 55, 95
7, 79560, Note_on_c, 9, 59, 95
7, 79560, Note_on_c, 9, 36, 95
7, 79680, Note_off_c, 9, 55, 80
7, 79680, Note_off_c, 9, 59, 80
7, 79680, Note_off_c, 9, 36, 80
7, 79680, Note_on_c, 9, 44, 111
7, 79680, Note_on_c, 9, 59, 95
7, 79680, Note_on_c, 9, 38, 95
7, 79680, Note_on_c, 9, 36, 127
7, 79920, Note_off_c, 9, 44, 80
7, 79920, Note_off_c, 9, 59, 80
7, 79920, Note_off_c, 9, 38, 80
7, 79920, Note_off_c, 9, 36, 80
7, 79920, Note_on_c, 9, 44, 95
7, 79920, Note_on_c, 9, 59, 95
7, 79920, Note_on_c, 9, 38, 95
7, 79920, Note_on_c, 9, 36, 111
7, 80160, Note_off_c, 9, 44, 80
7, 80160, Note_off_c, 9, 59, 80
7, 80160, Note_off_c, 9, 38, 80
7, 80160, Note_off_c, 9, 36, 80
7, 80160, Note_on_c, 9, 38, 127
7, 80160, Note_on_c, 9, 41, 95
7, 80160, Note_on_c, 9, 38, 127
7, 80400, Note_off_c, 9, 38, 80
7, 80400, Note_off_c, 9, 41, 80
7, 80400, Note_off_c, 9, 38, 80
7, 80400, Note_on_c, 9, 57, 127
7, 80400, Note_on_c, 9, 36, 95
7, 80520, Note_off_c, 9, 36, 80
7, 80640, Note_on_c, 9, 38, 95
7, 80640, Note_on_c, 9, 41, 95
7, 80640, Note_on_c, 9, 36, 95
7, 80880, Note_off_c, 9, 57, 80
7, 80880, Note_off_c, 9, 38, 80
7, 80880, Note_off_c, 9, 41, 80
7, 80880, Note_off_c, 9, 36, 80
7, 80880, Note_on_c, 9, 36, 111
7, 81120, Note_off_c, 9, 36, 80
7, 81120, Note_on_c, 9, 57, 79
7, 81120, Note_on_c, 9, 40, 111
7, 81120, Note_on_c, 9, 27, 127
7, 81120, Note_on_c, 9, 38, 95
7, 81120, Note_on_c, 9, 42, 95
7, 81120, Note_on_c, 9, 36, 127
7, 81360, Note_off_c, 9, 57, 80
7, 81360, Note_off_c, 9, 40, 80
7, 81360, Note_off_c, 9, 27, 80
7, 81360, Note_off_c, 9, 38, 80
7, 81360, Note_off_c, 9, 42, 80
7, 81360, Note_off_c, 9, 36, 80
7, 81360, Note_on_c, 9, 36, 127
7, 81480, Note_off_c, 9, 36, 80
7, 81480, Note_on_c, 9, 59, 95
7, 81480, Note_on_c, 9, 36, 127
7, 81600, Note_off_c, 9, 59, 80
7, 81600, Note_off_c, 9, 36, 80
7, 81600, Note_on_c, 9, 44, 95
7, 81600, Note_on_c, 9, 36, 111
7, 81840, Note_off_c, 9, 44, 80
7, 81840, Note_off_c, 9, 36, 80
7, 81840, Note_on_c, 9, 44, 95
7, 81840, Note_on_c, 9, 47, 111
7, 82080, Note_off_c, 9, 44, 80
7, 82080, Note_off_c, 9, 47, 80
7, 82080, Note_on_c, 9, 46, 95
7, 82080, Note_on_c, 9, 38, 127
7, 82080, Note_on_c, 9, 47, 127
7, 82200, Note_off_c, 9, 46, 80
7, 82200, Note_off_c, 9, 38, 80
7, 82200, Note_off_c, 9, 47, 80
7, 82200, Note_on_c, 9, 47, 127
7, 82320, Note_off_c, 9, 47, 80
7, 82320, Note_on_c, 9, 47, 127
7, 82440, Note_off_c, 9, 47, 80
7, 82560, Note_on_c, 9, 57, 95
7, 82560, Note_on_c, 9, 49, 95
7, 82560, Note_on_c, 9, 38, 95
7, 82560, Note_on_c, 9, 41, 95
7, 82560, Note_on_c, 9, 36, 127
7, 82620, Note_off_c, 9, 57, 80
7, 82620, Note_off_c, 9, 49, 80
7, 82620, Note_off_c, 9, 38, 80
7, 82620, Note_off_c, 9, 41, 80
7, 82620, Note_off_c, 9, 36, 80
7, 82800, Note_on_c, 9, 36, 95
7, 83040, Note_off_c, 9, 36, 80
7, 83040, Note_on_c, 9, 55, 95
7, 83040, Note_on_c, 9, 40, 95
7, 83040, Note_on_c, 9, 27, 127
7, 83040, Note_on_c, 9, 38, 95
7, 83040, Note_on_c, 9, 41, 95
7, 83040, Note_on_c, 9, 36, 127
7, 83280, Note_off_c, 9, 55, 80
7, 83280, Note_off_c, 9, 40, 80
7, 83280, Note_off_c, 9, 27, 80
7, 83280, Note_off_c, 9, 38, 80
7, 83280, Note_off_c, 9, 41, 80
7, 83280, Note_off_c, 9, 36, 80
7, 83280, Note_on_c, 9, 55, 95
7, 83280, Note_on_c, 9, 59, 95
7, 83280, Note_on_c, 9, 36, 95
7, 83400, Note_off_c, 9, 55, 80
7, 83400, Note_off_c, 9, 59, 80
7, 83400, Note_off_c, 9, 36, 80
7, 83400, Note_on_c, 9, 55, 95
7, 83400, Note_on_c, 9, 59, 95
7, 83400, Note_on_c, 9, 36, 95
7, 83520, Note_off_c, 9, 55, 80
7, 83520, Note_off_c, 9, 59, 80
7, 83520, Note_off_c, 9, 36, 80
7, 83520, Note_on_c, 9, 44, 111
7, 83520, Note_on_c, 9, 59, 95
7, 83520, Note_on_c, 9, 38, 95
7, 83520, Note_on_c, 9, 36, 127
7, 83760, Note_off_c, 9, 44, 80
7, 83760, Note_off_c, 9, 59, 80
7, 83760, Note_off_c, 9, 38, 80
7, 83760, Note_off_c, 9, 36, 80
7, 83760, Note_on_c, 9, 44, 95
7, 83760, Note_on_c, 9, 59, 95
7, 83760, Note_on_c, 9, 38, 95
7, 83760, Note_on_c, 9, 36, 111
7, 84000, Note_off_c, 9, 44, 80
7, 84000, Note_off_c, 9, 59, 80
7, 84000, Note_off_c, 9, 38, 80
7, 84000, Note_off_c, 9, 36, 80
7, 84000, Note_on_c, 9, 38, 127
7, 84000, Note_on_c, 9, 41, 95
7, 84000, Note_on_c, 9, 38, 127
7, 84240, Note_off_c, 9, 38, 80
7, 84240, Note_off_c, 9, 41, 80
7, 84240, Note_off_c, 9, 38, 80
7, 84240, Note_on_c, 9, 57, 127
7, 84240, Note_on_c, 9, 36, 95
7, 84360, Note_off_c, 9, 36, 80
7, 84480, Note_on_c, 9, 38, 95
7, 84480, Note_on_c, 9, 41, 95
7, 84480, Note_on_c, 9, 36, 95
7, 84720, Note_off_c, 9, 57, 80
7, 84720, Note_off_c, 9, 38, 80
7, 84720, Note_off_c, 9, 41, 80
7, 84720, Note_off_c, 9, 36, 80
7, 84720, Note_on_c, 9, 36, 111
7, 84960, Note_off_c, 9, 36, 80
7, 84960, Note_on_c, 9, 57, 79
7, 84960, Note_on_c, 9, 40, 111
7, 84960, Note_on_c, 9, 27, 127
7, 84960, Note_on_c, 9, 38, 95
7, 84960, Note_on_c, 9, 42, 95
7, 84960, Note_on_c, 9, 36, 127
7, 85200, Note_off_c, 9, 57, 80
7, 85200, Note_off_c, 9, 40, 80
7, 85200, Note_off_c, 9, 27, 80
7, 85200, Note_off_c, 9, 38, 80
7, 85200, Note_off_c, 9, 42, 80
7, 85200, Note_off_c, 9, 36, 80
7, 85200, Note_on_c, 9, 36, 127
7, 85320, Note_off_c, 9, 36, 80
7, 85320, Note_on_c, 9, 59, 95
7, 85320, Note_on_c, 9, 36, 127
7, 85440, Note_off_c, 9, 59, 80
7, 85440, Note_off_c, 9, 36, 80
7, 85440, Note_on_c, 9, 44, 95
7, 85440, Note_on_c, 9, 36, 111
7, 85680, Note_off_c, 9, 44, 80
7, 85680, Note_off_c, 9, 36, 80
7, 85680, Note_on_c, 9, 44, 95
7, 85680, Note_on_c, 9, 47, 111
7, 85920, Note_off_c, 9, 44, 80
7, 85920, Note_off_c, 9, 47, 80
7, 85920, Note_on_c, 9, 46, 95
7, 85920, Note_on_c, 9, 38, 127
7, 85920, Note_on_c, 9, 47, 127
7, 86040, Note_off_c, 9, 46, 80
7, 86040, Note_off_c, 9, 38, 80
7, 86040, Note_off_c, 9, 47, 80
7, 86040, Note_on_c, 9, 47, 127
7, 86160, Note_off_c, 9, 47, 80
7, 86160, Note_on_c, 9, 47, 127
7, 86280, Note_off_c, 9, 47, 80
7, 86400, Note_on_c, 9, 44, 95
7, 86400, Note_on_c, 9, 36, 95
7, 86400, Note_on_c, 9, 36, 95
7, 86640, Note_off_c, 9, 44, 80
7, 86640, Note_off_c, 9, 36, 80
7, 86640, Note_off_c, 9, 36, 80
7, 86640, Note_on_c, 9, 54, 79
7, 86640, Note_on_c, 9, 44, 47
7, 86800, Note_off_c, 9, 54, 80
7, 86800, Note_off_c, 9, 44, 80
7, 86820, Note_on_c, 9, 36, 127
7, 86880, Note_off_c, 9, 36, 80
7, 86880, Note_on_c, 9, 44, 95
7, 86880, Note_on_c, 9, 40, 127
7, 86880, Note_on_c, 9, 27, 127
7, 86880, Note_on_c, 9, 38, 127
7, 86880, Note_on_c, 9, 42, 95
7, 86880, Note_on_c, 9, 36, 127
7, 87120, Note_off_c, 9, 44, 80
7, 87120, Note_off_c, 9, 40, 80
7, 87120, Note_off_c, 9, 27, 80
7, 87120, Note_off_c, 9, 38, 80
7, 87120, Note_off_c, 9, 42, 80
7, 87120, Note_off_c, 9, 36, 80
7, 87120, Note_on_c, 9, 54, 79
7, 87120, Note_on_c, 9, 44, 47
7, 87360, Note_off_c, 9, 54, 80
7, 87360, Note_off_c, 9, 44, 80
7, 87360, Note_on_c, 9, 44, 95
7, 87360, Note_on_c, 9, 36, 95
7, 87360, Note_on_c, 9, 36, 95
7, 87600, Note_off_c, 9, 44, 80
7, 87600, Note_off_c, 9, 36, 80
7, 87600, Note_off_c, 9, 36, 80
7, 87600, Note_on_c, 9, 54, 79
7, 87600, Note_on_c, 9, 44, 47
7, 87840, Note_off_c, 9, 54, 80
7, 87840, Note_off_c, 9, 44, 80
7, 87840, Note_on_c, 9, 44, 95
7, 87840, Note_on_c, 9, 40, 127
7, 87840, Note_on_c, 9, 27, 127
7, 87840, Note_on_c, 9, 38, 95
7, 87840, Note_on_c, 9, 42, 95
7, 87840, Note_on_c, 9, 36, 127
7, 88080, Note_off_c, 9, 44, 80
7, 88080, Note_off_c, 9, 40, 80
7, 88080, Note_off_c, 9, 27, 80
7, 88080, Note_off_c, 9, 38, 80
7, 88080, Note_off_c, 9, 42, 80
7, 88080, Note_off_c, 9, 36, 80
7, 88080, Note_on_c, 9, 54, 79
7, 88080, Note_on_c, 9, 44, 47
7, 88320, Note_off_c, 9, 54, 80
7, 88320, Note_off_c, 9, 44, 80
7, 88320, Note_on_c, 9, 44, 95
7, 88320, Note_on_c, 9, 36, 95
7, 88320, Note_on_c, 9, 36, 95
7, 88560, Note_off_c, 9, 44, 80
7, 88560, Note_off_c, 9, 36, 80
7, 88560, Note_off_c, 9, 36, 80
7, 88560, Note_on_c, 9, 54, 79
7, 88560, Note_on_c, 9, 44, 47
7, 88720, Note_off_c, 9, 54, 80
7, 88720, Note_off_c, 9, 44, 80
7, 88740, Note_on_c, 9, 36, 127
7, 88800, Note_off_c, 9, 36, 80
7, 88800, Note_on_c, 9, 44, 95
7, 88800, Note_on_c, 9, 40, 127
7, 88800, Note_on_c, 9, 27, 127
7, 88800, Note_on_c, 9, 38, 127
7, 88800, Note_on_c, 9, 42, 95
7, 88800, Note_on_c, 9, 36, 127
7, 89040, Note_off_c, 9, 44, 80
7, 89040, Note_off_c, 9, 40, 80
7, 89040, Note_off_c, 9, 27, 80
7, 89040, Note_off_c, 9, 38, 80
7, 89040, Note_off_c, 9, 42, 80
7, 89040, Note_off_c, 9, 36, 80
7, 89040, Note_on_c, 9, 54, 79
7, 89040, Note_on_c, 9, 44, 47
7, 89280, Note_off_c, 9, 54, 80
7, 89280, Note_off_c, 9, 44, 80
7, 89280, Note_on_c, 9, 44, 95
7, 89280, Note_on_c, 9, 36, 95
7, 89280, Note_on_c, 9, 36, 95
7, 89520, Note_off_c, 9, 44, 80
7, 89520, Note_off_c, 9, 36, 80
7, 89520, Note_off_c, 9, 36, 80
7, 89520, Note_on_c, 9, 54, 79
7, 89520, Note_on_c, 9, 44, 47
7, 89760, Note_off_c, 9, 54, 80
7, 89760, Note_off_c, 9, 44, 80
7, 89760, Note_on_c, 9, 44, 95
7, 89760, Note_on_c, 9, 40, 127
7, 89760, Note_on_c, 9, 27, 127
7, 89760, Note_on_c, 9, 38, 127
7, 89760, Note_on_c, 9, 42, 95
7, 89760, Note_on_c, 9, 36, 127
7, 90000, Note_off_c, 9, 44, 80
7, 90000, Note_off_c, 9, 40, 80
7, 90000, Note_off_c, 9, 27, 80
7, 90000, Note_off_c, 9, 38, 80
7, 90000, Note_off_c, 9, 42, 80
7, 90000, Note_off_c, 9, 36, 80
7, 90000, Note_on_c, 9, 54, 79
7, 90000, Note_on_c, 9, 44, 47
7, 90240, Note_off_c, 9, 54, 80
7, 90240, Note_off_c, 9, 44, 80
7, 90240, Note_on_c, 9, 44, 95
7, 90240, Note_on_c, 9, 36, 95
7, 90240, Note_on_c, 9, 36, 95
7, 90480, Note_off_c, 9, 44, 80
7, 90480, Note_off_c, 9, 36, 80
7, 90480, Note_off_c, 9, 36, 80
7, 90480, Note_on_c, 9, 54, 79
7, 90480, Note_on_c, 9, 44, 47
7, 90640, Note_off_c, 9, 54, 80
7, 90640, Note_off_c, 9, 44, 80
7, 90660, Note_on_c, 9, 36, 127
7, 90720, Note_off_c, 9, 36, 80
7, 90720, Note_on_c, 9, 44, 95
7, 90720, Note_on_c, 9, 40, 127
7, 90720, Note_on_c, 9, 27, 127
7, 90720, Note_on_c, 9, 38, 127
7, 90720, Note_on_c, 9, 42, 95
7, 90720, Note_on_c, 9, 36, 127
7, 90960, Note_off_c, 9, 44, 80
7, 90960, Note_off_c, 9, 40, 80
7, 90960, Note_off_c, 9, 27, 80
7, 90960, Note_off_c, 9, 38, 80
7, 90960, Note_off_c, 9, 42, 80
7, 90960, Note_off_c, 9, 36, 80
7, 90960, Note_on_c, 9, 54, 79
7, 90960, Note_on_c, 9, 44, 47
7, 91200, Note_off_c, 9, 54, 80
7, 91200, Note_off_c, 9, 44, 80
7, 91200, Note_on_c, 9, 44, 95
7, 91200, Note_on_c, 9, 36, 95
7, 91200, Note_on_c, 9, 36, 95
7, 91440, Note_off_c, 9, 44, 80
7, 91440, Note_off_c, 9, 36, 80
7, 91440, Note_off_c, 9, 36, 80
7, 91440, Note_on_c, 9, 54, 79
7, 91440, Note_on_c, 9, 44, 47
7, 91680, Note_off_c, 9, 54, 80
7, 91680, Note_off_c, 9, 44, 80
7, 91680, Note_on_c, 9, 44, 95
7, 91680, Note_on_c, 9, 40, 127
7, 91680, Note_on_c, 9, 27, 127
7, 91680, Note_on_c, 9, 38, 127
7, 91680, Note_on_c, 9, 42, 95
7, 91680, Note_on_c, 9, 36, 127
7, 91920, Note_off_c, 9, 44, 80
7, 91920, Note_off_c, 9, 40, 80
7, 91920, Note_off_c, 9, 27, 80
7, 91920, Note_off_c, 9, 38, 80
7, 91920, Note_off_c, 9, 42, 80
7, 91920, Note_off_c, 9, 36, 80
7, 91920, Note_on_c, 9, 54, 79
7, 91920, Note_on_c, 9, 44, 47
7, 92160, Note_off_c, 9, 54, 80
7, 92160, Note_off_c, 9, 44, 80
7, 92160, Note_on_c, 9, 44, 95
7, 92160, Note_on_c, 9, 36, 95
7, 92160, Note_on_c, 9, 36, 95
7, 92400, Note_off_c, 9, 44, 80
7, 92400, Note_off_c, 9, 36, 80
7, 92400, Note_off_c, 9, 36, 80
7, 92400, Note_on_c, 9, 54, 79
7, 92400, Note_on_c, 9, 44, 47
7, 92560, Note_off_c, 9, 54, 80
7, 92560, Note_off_c, 9, 44, 80
7, 92580, Note_on_c, 9, 36, 127
7, 92640, Note_off_c, 9, 36, 80
7, 92640, Note_on_c, 9, 44, 95
7, 92640, Note_on_c, 9, 40, 127
7, 92640, Note_on_c, 9, 27, 127
7, 92640, Note_on_c, 9, 38, 127
7, 92640, Note_on_c, 9, 42, 95
7, 92640, Note_on_c, 9, 36, 127
7, 92880, Note_off_c, 9, 44, 80
7, 92880, Note_off_c, 9, 40, 80
7, 92880, Note_off_c, 9, 27, 80
7, 92880, Note_off_c, 9, 38, 80
7, 92880, Note_off_c, 9, 42, 80
7, 92880, Note_off_c, 9, 36, 80
7, 92880, Note_on_c, 9, 54, 79
7, 92880, Note_on_c, 9, 44, 47
7, 93120, Note_off_c, 9, 54, 80
7, 93120, Note_off_c, 9, 44, 80
7, 93120, Note_on_c, 9, 44, 95
7, 93120, Note_on_c, 9, 36, 95
7, 93120, Note_on_c, 9, 36, 95
7, 93360, Note_off_c, 9, 44, 80
7, 93360, Note_off_c, 9, 36, 80
7, 93360, Note_off_c, 9, 36, 80
7, 93360, Note_on_c, 9, 54, 79
7, 93360, Note_on_c, 9, 44, 47
7, 93600, Note_off_c, 9, 54, 80
7, 93600, Note_off_c, 9, 44, 80
7, 93600, Note_on_c, 9, 44, 95
7, 93600, Note_on_c, 9, 40, 127
7, 93600, Note_on_c, 9, 27, 127
7, 93600, Note_on_c, 9, 38, 127
7, 93600, Note_on_c, 9, 42, 95
7, 93600, Note_on_c, 9, 36, 127
7, 93840, Note_off_c, 9, 44, 80
7, 93840, Note_off_c, 9, 40, 80
7, 93840, Note_off_c, 9, 27, 80
7, 93840, Note_off_c, 9, 38, 80
7, 93840, Note_off_c, 9, 42, 80
7, 93840, Note_off_c, 9, 36, 80
7, 93840, Note_on_c, 9, 54, 79
7, 93840, Note_on_c, 9, 44, 47
7, 94080, Note_off_c, 9, 54, 80
7, 94080, Note_off_c, 9, 44, 80
7, 94080, Note_on_c, 9, 44, 95
7, 94080, Note_on_c, 9, 36, 95
7, 94080, Note_on_c, 9, 36, 95
7, 94320, Note_off_c, 9, 44, 80
7, 94320, Note_off_c, 9, 36, 80
7, 94320, Note_off_c, 9, 36, 80
7, 94320, Note_on_c, 9, 54, 79
7, 94320, Note_on_c, 9, 44, 47
7, 94480, Note_off_c, 9, 54, 80
7, 94480, Note_off_c, 9, 44, 80
7, 94500, Note_on_c, 9, 36, 127
7, 94560, Note_off_c, 9, 36, 80
7, 94560, Note_on_c, 9, 44, 95
7, 94560, Note_on_c, 9, 40, 127
7, 94560, Note_on_c, 9, 27, 127
7, 94560, Note_on_c, 9, 38, 127
7, 94560, Note_on_c, 9, 42, 95
7, 94560, Note_on_c, 9, 36, 127
7, 94800, Note_off_c, 9, 44, 80
7, 94800, Note_off_c, 9, 40, 80
7, 94800, Note_off_c, 9, 27, 80
7, 94800, Note_off_c, 9, 38, 80
7, 94800, Note_off_c, 9, 42, 80
7, 94800, Note_off_c, 9, 36, 80
7, 94800, Note_on_c, 9, 54, 79
7, 94800, Note_on_c, 9, 44, 47
7, 95040, Note_off_c, 9, 54, 80
7, 95040, Note_off_c, 9, 44, 80
7, 95040, Note_on_c, 9, 44, 95
7, 95040, Note_on_c, 9, 36, 95
7, 95040, Note_on_c, 9, 36, 95
7, 95280, Note_off_c, 9, 44, 80
7, 95280, Note_off_c, 9, 36, 80
7, 95280, Note_off_c, 9, 36, 80
7, 95280, Note_on_c, 9, 54, 79
7, 95280, Note_on_c, 9, 44, 47
7, 95520, Note_off_c, 9, 54, 80
7, 95520, Note_off_c, 9, 44, 80
7, 95520, Note_on_c, 9, 44, 95
7, 95520, Note_on_c, 9, 40, 127
7, 95520, Note_on_c, 9, 27, 127
7, 95520, Note_on_c, 9, 38, 127
7, 95520, Note_on_c, 9, 42, 95
7, 95520, Note_on_c, 9, 36, 127
7, 95760, Note_off_c, 9, 44, 80
7, 95760, Note_off_c, 9, 40, 80
7, 95760, Note_off_c, 9, 27, 80
7, 95760, Note_off_c, 9, 38, 80
7, 95760, Note_off_c, 9, 42, 80
7, 95760, Note_off_c, 9, 36, 80
7, 95760, Note_on_c, 9, 54, 79
7, 95760, Note_on_c, 9, 44, 47
7, 96000, Note_off_c, 9, 54, 80
7, 96000, Note_off_c, 9, 44, 80
7, 96000, Note_on_c, 9, 44, 95
7, 96000, Note_on_c, 9, 36, 95
7, 96000, Note_on_c, 9, 36, 95
7, 96240, Note_off_c, 9, 44, 80
7, 96240, Note_off_c, 9, 36, 80
7, 96240, Note_off_c, 9, 36, 80
7, 96240, Note_on_c, 9, 54, 79
7, 96240, Note_on_c, 9, 44, 47
7, 96400, Note_off_c, 9, 54, 80
7, 96400, Note_off_c, 9, 44, 80
7, 96420, Note_on_c, 9, 36, 127
7, 96480, Note_off_c, 9, 36, 80
7, 96480, Note_on_c, 9, 44, 95
7, 96480, Note_on_c, 9, 40, 127
7, 96480, Note_on_c, 9, 27, 127
7, 96480, Note_on_c, 9, 38, 127
7, 96480, Note_on_c, 9, 42, 95
7, 96480, Note_on_c, 9, 36, 127
7, 96720, Note_off_c, 9, 44, 80
7, 96720, Note_off_c, 9, 40, 80
7, 96720, Note_off_c, 9, 27, 80
7, 96720, Note_off_c, 9, 38, 80
7, 96720, Note_off_c, 9, 42, 80
7, 96720, Note_off_c, 9, 36, 80
7, 96720, Note_on_c, 9, 54, 79
7, 96720, Note_on_c, 9, 44, 47
7, 96960, Note_off_c, 9, 54, 80
7, 96960, Note_off_c, 9, 44, 80
7, 96960, Note_on_c, 9, 44, 95
7, 96960, Note_on_c, 9, 36, 95
7, 96960, Note_on_c, 9, 36, 95
7, 97200, Note_off_c, 9, 44, 80
7, 97200, Note_off_c, 9, 36, 80
7, 97200, Note_off_c, 9, 36, 80
7, 97200, Note_on_c, 9, 54, 79
7, 97200, Note_on_c, 9, 44, 47
7, 97440, Note_off_c, 9, 54, 80
7, 97440, Note_off_c, 9, 44, 80
7, 97440, Note_on_c, 9, 44, 95
7, 97440, Note_on_c, 9, 40, 127
7, 97440, Note_on_c, 9, 27, 127
7, 97440, Note_on_c, 9, 38, 127
7, 97440, Note_on_c, 9, 42, 95
7, 97440, Note_on_c, 9, 36, 127
7, 97680, Note_off_c, 9, 44, 80
7, 97680, Note_off_c, 9, 40, 80
7, 97680, Note_off_c, 9, 27, 80
7, 97680, Note_off_c, 9, 38, 80
7, 97680, Note_off_c, 9, 42, 80
7, 97680, Note_off_c, 9, 36, 80
7, 97680, Note_on_c, 9, 54, 79
7, 97680, Note_on_c, 9, 44, 47
7, 97920, Note_off_c, 9, 54, 80
7, 97920, Note_off_c, 9, 44, 80
7, 97920, Note_on_c, 9, 36, 95
7, 97920, Note_on_c, 9, 47, 95
7, 98160, Note_off_c, 9, 36, 80
7, 98160, Note_off_c, 9, 47, 80
7, 98160, Note_on_c, 9, 47, 95
7, 98400, Note_off_c, 9, 47, 80
7, 98400, Note_on_c, 9, 38, 127
7, 98400, Note_on_c, 9, 36, 127
7, 98400, Note_on_c, 9, 47, 111
7, 98640, Note_off_c, 9, 38, 80
7, 98640, Note_off_c, 9, 36, 80
7, 98640, Note_off_c, 9, 47, 80
7, 98640, Note_on_c, 9, 47, 95
7, 98880, Note_off_c, 9, 47, 80
7, 98880, Note_on_c, 9, 36, 111
7, 98880, Note_on_c, 9, 47, 111
7, 99120, Note_off_c, 9, 36, 80
7, 99120, Note_off_c, 9, 47, 80
7, 99120, Note_on_c, 9, 47, 111
7, 99360, Note_off_c, 9, 47, 80
7, 99360, Note_on_c, 9, 38, 127
7, 99360, Note_on_c, 9, 36, 111
7, 99360, Note_on_c, 9, 47, 111
7, 99600, Note_off_c, 9, 38, 80
7, 99600, Note_off_c, 9, 36, 80
7, 99600, Note_off_c, 9, 47, 80
7, 99600, Note_on_c, 9, 47, 95
7, 99840, Note_off_c, 9, 47, 80
7, 99840, Note_on_c, 9, 36, 111
7, 99840, Note_on_c, 9, 47, 95
7, 100080, Note_off_c, 9, 36, 80
7, 100080, Note_off_c, 9, 47, 80
7, 100080, Note_on_c, 9, 47, 95
7, 100320, Note_off_c, 9, 47, 80
7, 100320, Note_on_c, 9, 38, 127
7, 100320, Note_on_c, 9, 36, 111
7, 100320, Note_on_c, 9, 47, 111
7, 100560, Note_off_c, 9, 38, 80
7, 100560, Note_off_c, 9, 36, 80
7, 100560, Note_off_c, 9, 47, 80
7, 100560, Note_on_c, 9, 47, 95
7, 100800, Note_off_c, 9, 47, 80
7, 100800, Note_on_c, 9, 36, 111
7, 100800, Note_on_c, 9, 47, 111
7, 101040, Note_off_c, 9, 36, 80
7, 101040, Note_off_c, 9, 47, 80
7, 101040, Note_on_c, 9, 47, 111
7, 101280, Note_off_c, 9, 47, 80
7, 101280, Note_on_c, 9, 38, 127
7, 101280, Note_on_c, 9, 36, 111
7, 101400, Note_off_c, 9, 38, 80
7, 101400, Note_off_c, 9, 36, 80
7, 101400, Note_on_c, 9, 47, 111
7, 101520, Note_off_c, 9, 47, 80
7, 101520, Note_on_c, 9, 47, 111
7, 101640, Note_off_c, 9, 47, 80
7, 101760, Note_on_c, 9, 57, 95
7, 101760, Note_on_c, 9, 49, 95
7, 101760, Note_on_c, 9, 38, 95
7, 101760, Note_on_c, 9, 41, 95
7, 101760, Note_on_c, 9, 36, 127
7, 101820, Note_off_c, 9, 57, 80
7, 101820, Note_off_c, 9, 49, 80
7, 101820, Note_off_c, 9, 38, 80
7, 101820, Note_off_c, 9, 41, 80
7, 101820, Note_off_c, 9, 36, 80
7, 102000, Note_on_c, 9, 36, 95
7, 102240, Note_off_c, 9, 36, 80
7, 102240, Note_on_c, 9, 55, 95
7, 102240, Note_on_c, 9, 40, 95
7, 102240, Note_on_c, 9, 27, 127
7, 102240, Note_on_c, 9, 38, 95
7, 102240, Note_on_c, 9, 41, 95
7, 102240, Note_on_c, 9, 36, 127
7, 102480, Note_off_c, 9, 55, 80
7, 102480, Note_off_c, 9, 40, 80
7, 102480, Note_off_c, 9, 27, 80
7, 102480, Note_off_c, 9, 38, 80
7, 102480, Note_off_c, 9, 41, 80
7, 102480, Note_off_c, 9, 36, 80
7, 102480, Note_on_c, 9, 55, 95
7, 102480, Note_on_c, 9, 59, 95
7, 102480, Note_on_c, 9, 36, 95
7, 102600, Note_off_c, 9, 55, 80
7, 102600, Note_off_c, 9, 59, 80
7, 102600, Note_off_c, 9, 36, 80
7, 102600, Note_on_c, 9, 55, 95
7, 102600, Note_on_c, 9, 59, 95
7, 102600, Note_on_c, 9, 36, 95
7, 102720, Note_off_c, 9, 55, 80
7, 102720, Note_off_c, 9, 59, 80
7, 102720, Note_off_c, 9, 36, 80
7, 102720, Note_on_c, 9, 44, 111
7, 102720, Note_on_c, 9, 59, 95
7, 102720, Note_on_c, 9, 38, 95
7, 102720, Note_on_c, 9, 36, 127
7, 102960, Note_off_c, 9, 44, 80
7, 102960, Note_off_c, 9, 59, 80
7, 102960, Note_off_c, 9, 38, 80
7, 102960, Note_off_c, 9, 36, 80
7, 102960, Note_on_c, 9, 44, 95
7, 102960, Note_on_c, 9, 59, 95
7, 102960, Note_on_c, 9, 38, 95
7, 102960, Note_on_c, 9, 36, 111
7, 103200, Note_off_c, 9, 44, 80
7, 103200, Note_off_c, 9, 59, 80
7, 103200, Note_off_c, 9, 38, 80
7, 103200, Note_off_c, 9, 36, 80
7, 103200, Note_on_c, 9, 38, 127
7, 103200, Note_on_c, 9, 41, 95
7, 103200, Note_on_c, 9, 38, 127
7, 103440, Note_off_c, 9, 38, 80
7, 103440, Note_off_c, 9, 41, 80
7, 103440, Note_off_c, 9, 38, 80
7, 103440, Note_on_c, 9, 57, 127
7, 103440, Note_on_c, 9, 36, 95
7, 103560, Note_off_c, 9, 36, 80
7, 103680, Note_on_c, 9, 38, 95
7, 103680, Note_on_c, 9, 41, 95
7, 103680, Note_on_c, 9, 36, 95
7, 103920, Note_off_c, 9, 57, 80
7, 103920, Note_off_c, 9, 38, 80
7, 103920, Note_off_c, 9, 41, 80
7, 103920, Note_off_c, 9, 36, 80
7, 103920, Note_on_c, 9, 36, 111
7, 104160, Note_off_c, 9, 36, 80
7, 104160, Note_on_c, 9, 57, 79
7, 104160, Note_on_c, 9, 40, 111
7, 104160, Note_on_c, 9, 27, 127
7, 104160, Note_on_c, 9, 38, 95
7, 104160, Note_on_c, 9, 42, 95
7, 104160, Note_on_c, 9, 36, 127
7, 104400, Note_off_c, 9, 57, 80
7, 104400, Note_off_c, 9, 40, 80
7, 104400, Note_off_c, 9, 27, 80
7, 104400, Note_off_c, 9, 38, 80
7, 104400, Note_off_c, 9, 42, 80
7, 104400, Note_off_c, 9, 36, 80
7, 104400, Note_on_c, 9, 36, 127
7, 104520, Note_off_c, 9, 36, 80
7, 104520, Note_on_c, 9, 59, 95
7, 104520, Note_on_c, 9, 36, 127
7, 104640, Note_off_c, 9, 59, 80
7, 104640, Note_off_c, 9, 36, 80
7, 104640, Note_on_c, 9, 44, 95
7, 104640, Note_on_c, 9, 36, 111
7, 104880, Note_off_c, 9, 44, 80
7, 104880, Note_off_c, 9, 36, 80
7, 104880, Note_on_c, 9, 44, 95
7, 104880, Note_on_c, 9, 47, 111
7, 105120, Note_off_c, 9, 44, 80
7, 105120, Note_off_c, 9, 47, 80
7, 105120, Note_on_c, 9, 46, 95
7, 105120, Note_on_c, 9, 38, 127
7, 105120, Note_on_c, 9, 47, 127
7, 105240, Note_off_c, 9, 46, 80
7, 105240, Note_off_c, 9, 38, 80
7, 105240, Note_off_c, 9, 47, 80
7, 105240, Note_on_c, 9, 47, 127
7, 105360, Note_off_c, 9, 47, 80
7, 105360, Note_on_c, 9, 47, 127
7, 105480, Note_off_c, 9, 47, 80
7, 105600, Note_on_c, 9, 57, 95
7, 105600, Note_on_c, 9, 49, 95
7, 105600, Note_on_c, 9, 38, 95
7, 105600, Note_on_c, 9, 41, 95
7, 105600, Note_on_c, 9, 36, 127
7, 105660, Note_off_c, 9, 57, 80
7, 105660, Note_off_c, 9, 49, 80
7, 105660, Note_off_c, 9, 38, 80
7, 105660, Note_off_c, 9, 41, 80
7, 105660, Note_off_c, 9, 36, 80
7, 105840, Note_on_c, 9, 36, 95
7, 106080, Note_off_c, 9, 36, 80
7, 106080, Note_on_c, 9, 55, 95
7, 106080, Note_on_c, 9, 40, 95
7, 106080, Note_on_c, 9, 27, 127
7, 106080, Note_on_c, 9, 38, 95
7, 106080, Note_on_c, 9, 41, 95
7, 106080, Note_on_c, 9, 36, 127
7, 106320, Note_off_c, 9, 55, 80
7, 106320, Note_off_c, 9, 40, 80
7, 106320, Note_off_c, 9, 27, 80
7, 106320, Note_off_c, 9, 38, 80
7, 106320, Note_off_c, 9, 41, 80
7, 106320, Note_off_c, 9, 36, 80
7, 106320, Note_on_c, 9, 55, 95
7, 106320, Note_on_c, 9, 59, 95
7, 106320, Note_on_c, 9, 36, 95
7, 106440, Note_off_c, 9, 55, 80
7, 106440, Note_off_c, 9, 59, 80
7, 106440, Note_off_c, 9, 36, 80
7, 106440, Note_on_c, 9, 55, 95
7, 106440, Note_on_c, 9, 59, 95
7, 106440, Note_on_c, 9, 36, 95
7, 106560, Note_off_c, 9, 55, 80
7, 106560, Note_off_c, 9, 59, 80
7, 106560, Note_off_c, 9, 36, 80
7, 106560, Note_on_c, 9, 44, 111
7, 106560, Note_on_c, 9, 59, 95
7, 106560, Note_on_c, 9, 38, 95
7, 106560, Note_on_c, 9, 36, 127
7, 106800, Note_off_c, 9, 44, 80
7, 106800, Note_off_c, 9, 59, 80
7, 106800, Note_off_c, 9, 38, 80
7, 106800, Note_off_c, 9, 36, 80
7, 106800, Note_on_c, 9, 44, 95
7, 106800, Note_on_c, 9, 59, 95
7, 106800, Note_on_c, 9, 38, 95
7, 106800, Note_on_c, 9, 36, 111
7, 107040, Note_off_c, 9, 44, 80
7, 107040, Note_off_c, 9, 59, 80
7, 107040, Note_off_c, 9, 38, 80
7, 107040, Note_off_c, 9, 36, 80
7, 107040, Note_on_c, 9, 38, 127
7, 107040, Note_on_c, 9, 41, 95
7, 107040, Note_on_c, 9, 38, 127
7, 107280, Note_off_c, 9, 38, 80
7, 107280, Note_off_c, 9, 41, 80
7, 107280, Note_off_c, 9, 38, 80
7, 107280, Note_on_c, 9, 57, 127
7, 107280, Note_on_c, 9, 36, 95
7, 107400, Note_off_c, 9, 36, 80
7, 107520, Note_on_c, 9, 38, 95
7, 107520, Note_on_c, 9, 41, 95
7, 107520, Note_on_c, 9, 36, 95
7, 107760, Note_off_c, 9, 57, 80
7, 107760, Note_off_c, 9, 38, 80
7, 107760, Note_off_c, 9, 41, 80
7, 107760, Note_off_c, 9, 36, 80
7, 107760, Note_on_c, 9, 36, 111
7, 108000, Note_off_c, 9, 36, 80
7, 108000, Note_on_c, 9, 57, 79
7, 108000, Note_on_c, 9, 40, 111
7, 108000, Note_on_c, 9, 27, 127
7, 108000, Note_on_c, 9, 38, 95
7, 108000, Note_on_c, 9, 42, 95
7, 108000, Note_on_c, 9, 36, 127
7, 108240, Note_off_c, 9, 57, 80
7, 108240, Note_off_c, 9, 40, 80
7, 108240, Note_off_c, 9, 27, 80
7, 108240, Note_off_c, 9, 38, 80
7, 108240, Note_off_c, 9, 42, 80
7, 108240, Note_off_c, 9, 36, 80
7, 108240, Note_on_c, 9, 36, 127
7, 108360, Note_off_c, 9, 36, 80
7, 108360, Note_on_c, 9, 59, 95
7, 108360, Note_on_c, 9, 36, 127
7, 108480, Note_off_c, 9, 59, 80
7, 108480, Note_off_c, 9, 36, 80
7, 108480, Note_on_c, 9, 44, 95
7, 108480, Note_on_c, 9, 36, 111
7, 108720, Note_off_c, 9, 44, 80
7, 108720, Note_off_c, 9, 36, 80
7, 108720, Note_on_c, 9, 44, 95
7, 108720, Note_on_c, 9, 47, 111
7, 108960, Note_off_c, 9, 44, 80
7, 108960, Note_off_c, 9, 47, 80
7, 108960, Note_on_c, 9, 46, 95
7, 108960, Note_on_c, 9, 38, 127
7, 108960, Note_on_c, 9, 47, 127
7, 109080, Note_off_c, 9, 46, 80
7, 109080, Note_off_c, 9, 38, 80
7, 109080, Note_off_c, 9, 47, 80
7, 109080, Note_on_c, 9, 47, 127
7, 109200, Note_off_c, 9, 47, 80
7, 109200, Note_on_c, 9, 47, 127
7, 109320, Note_off_c, 9, 47, 80
7, 109440, Note_on_c, 9, 57, 95
7, 109440, Note_on_c, 9, 49, 95
7, 109440, Note_on_c, 9, 38, 95
7, 109440, Note_on_c, 9, 41, 95
7, 109440, Note_on_c, 9, 36, 127
7, 109500, Note_off_c, 9, 57, 80
7, 109500, Note_off_c, 9, 49, 80
7, 109500, Note_off_c, 9, 38, 80
7, 109500, Note_off_c, 9, 41, 80
7, 109500, Note_off_c, 9, 36, 80
7, 109680, Note_on_c, 9, 36, 95
7, 109920, Note_off_c, 9, 36, 80
7, 109920, Note_on_c, 9, 55, 95
7, 109920, Note_on_c, 9, 40, 95
7, 109920, Note_on_c, 9, 27, 127
7, 109920, Note_on_c, 9, 38, 95
7, 109920, Note_on_c, 9, 41, 95
7, 109920, Note_on_c, 9, 36, 127
7, 110160, Note_off_c, 9, 55, 80
7, 110160, Note_off_c, 9, 40, 80
7, 110160, Note_off_c, 9, 27, 80
7, 110160, Note_off_c, 9, 38, 80
7, 110160, Note_off_c, 9, 41, 80
7, 110160, Note_off_c, 9, 36, 80
7, 110160, Note_on_c, 9, 55, 95
7, 110160, Note_on_c, 9, 59, 95
7, 110160, Note_on_c, 9, 36, 95
7, 110280, Note_off_c, 9, 55, 80
7, 110280, Note_off_c, 9, 59, 80
7, 110280, Note_off_c, 9, 36, 80
7, 110280, Note_on_c, 9, 55, 95
7, 110280, Note_on_c, 9, 59, 95
7, 110280, Note_on_c, 9, 36, 95
7, 110400, Note_off_c, 9, 55, 80
7, 110400, Note_off_c, 9, 59, 80
7, 110400, Note_off_c, 9, 36, 80
7, 110400, Note_on_c, 9, 44, 111
7, 110400, Note_on_c, 9, 59, 95
7, 110400, Note_on_c, 9, 38, 95
7, 110400, Note_on_c, 9, 36, 127
7, 110640, Note_off_c, 9, 44, 80
7, 110640, Note_off_c, 9, 59, 80
7, 110640, Note_off_c, 9, 38, 80
7, 110640, Note_off_c, 9, 36, 80
7, 110640, Note_on_c, 9, 44, 95
7, 110640, Note_on_c, 9, 59, 95
7, 110640, Note_on_c, 9, 38, 95
7, 110640, Note_on_c, 9, 36, 111
7, 110880, Note_off_c, 9, 44, 80
7, 110880, Note_off_c, 9, 59, 80
7, 110880, Note_off_c, 9, 38, 80
7, 110880, Note_off_c, 9, 36, 80
7, 110880, Note_on_c, 9, 38, 127
7, 110880, Note_on_c, 9, 41, 95
7, 110880, Note_on_c, 9, 38, 127
7, 111120, Note_off_c, 9, 38, 80
7, 111120, Note_off_c, 9, 41, 80
7, 111120, Note_off_c, 9, 38, 80
7, 111120, Note_on_c, 9, 57, 127
7, 111120, Note_on_c, 9, 36, 95
7, 111240, Note_off_c, 9, 36, 80
7, 111360, Note_on_c, 9, 38, 95
7, 111360, Note_on_c, 9, 41, 95
7, 111360, Note_on_c, 9, 36, 95
7, 111600, Note_off_c, 9, 57, 80
7, 111600, Note_off_c, 9, 38, 80
7, 111600, Note_off_c, 9, 41, 80
7, 111600, Note_off_c, 9, 36, 80
7, 111600, Note_on_c, 9, 36, 111
7, 111840, Note_off_c, 9, 36, 80
7, 111840, Note_on_c, 9, 57, 79
7, 111840, Note_on_c, 9, 40, 111
7, 111840, Note_on_c, 9, 27, 127
7, 111840, Note_on_c, 9, 38, 95
7, 111840, Note_on_c, 9, 42, 95
7, 111840, Note_on_c, 9, 36, 127
7, 112080, Note_off_c, 9, 57, 80
7, 112080, Note_off_c, 9, 40, 80
7, 112080, Note_off_c, 9, 27, 80
7, 112080, Note_off_c, 9, 38, 80
7, 112080, Note_off_c, 9, 42, 80
7, 112080, Note_off_c, 9, 36, 80
7, 112080, Note_on_c, 9, 36, 127
7, 112200, Note_off_c, 9, 36, 80
7, 112200, Note_on_c, 9, 59, 95
7, 112200, Note_on_c, 9, 36, 127
7, 112320, Note_off_c, 9, 59, 80
7, 112320, Note_off_c, 9, 36, 80
7, 112320, Note_on_c, 9, 44, 95
7, 112320, Note_on_c, 9, 36, 111
7, 112560, Note_off_c, 9, 44, 80
7, 112560, Note_off_c, 9, 36, 80
7, 112560, Note_on_c, 9, 44, 95
7, 112560, Note_on_c, 9, 47, 111
7, 112800, Note_off_c, 9, 44, 80
7, 112800, Note_off_c, 9, 47, 80
7, 112800, Note_on_c, 9, 46, 95
7, 112800, Note_on_c, 9, 38, 127
7, 112800, Note_on_c, 9, 47, 127
7, 112920, Note_off_c, 9, 46, 80
7, 112920, Note_off_c, 9, 38, 80
7, 112920, Note_off_c, 9, 47, 80
7, 112920, Note_on_c, 9, 47, 127
7, 113040, Note_off_c, 9, 47, 80
7, 113040, Note_on_c, 9, 47, 127
7, 113160, Note_off_c, 9, 47, 80
7, 113280, Note_on_c, 9, 57, 95
7, 113280, Note_on_c, 9, 49, 95
7, 113280, Note_on_c, 9, 38, 95
7, 113280, Note_on_c, 9, 41, 95
7, 113280, Note_on_c, 9, 36, 127
7, 113340, Note_off_c, 9, 57, 80
7, 113340, Note_off_c, 9, 49, 80
7, 113340, Note_off_c, 9, 38, 80
7, 113340, Note_off_c, 9, 41, 80
7, 113340, Note_off_c, 9, 36, 80
7, 113520, Note_on_c, 9, 36, 95
7, 113760, Note_off_c, 9, 36, 80
7, 113760, Note_on_c, 9, 55, 95
7, 113760, Note_on_c, 9, 40, 95
7, 113760, Note_on_c, 9, 27, 127
7, 113760, Note_on_c, 9, 38, 95
7, 113760, Note_on_c, 9, 41, 95
7, 113760, Note_on_c, 9, 36, 127
7, 114000, Note_off_c, 9, 55, 80
7, 114000, Note_off_c, 9, 40, 80
7, 114000, Note_off_c, 9, 27, 80
7, 114000, Note_off_c, 9, 38, 80
7, 114000, Note_off_c, 9, 41, 80
7, 114000, Note_off_c, 9, 36, 80
7, 114000, Note_on_c, 9, 55, 95
7, 114000, Note_on_c, 9, 59, 95
7, 114000, Note_on_c, 9, 36, 95
7, 114120, Note_off_c, 9, 55, 80
7, 114120, Note_off_c, 9, 59, 80
7, 114120, Note_off_c, 9, 36, 80
7, 114120, Note_on_c, 9, 55, 95
7, 114120, Note_on_c, 9, 59, 95
7, 114120, Note_on_c, 9, 36, 95
7, 114240, Note_off_c, 9, 55, 80
7, 114240, Note_off_c, 9, 59, 80
7, 114240, Note_off_c, 9, 36, 80
7, 114240, Note_on_c, 9, 44, 111
7, 114240, Note_on_c, 9, 59, 95
7, 114240, Note_on_c, 9, 38, 95
7, 114240, Note_on_c, 9, 36, 127
7, 114480, Note_off_c, 9, 44, 80
7, 114480, Note_off_c, 9, 59, 80
7, 114480, Note_off_c, 9, 38, 80
7, 114480, Note_off_c, 9, 36, 80
7, 114480, Note_on_c, 9, 44, 95
7, 114480, Note_on_c, 9, 59, 95
7, 114480, Note_on_c, 9, 38, 95
7, 114480, Note_on_c, 9, 36, 111
7, 114720, Note_off_c, 9, 44, 80
7, 114720, Note_off_c, 9, 59, 80
7, 114720, Note_off_c, 9, 38, 80
7, 114720, Note_off_c, 9, 36, 80
7, 114720, Note_on_c, 9, 38, 127
7, 114720, Note_on_c, 9, 41, 95
7, 114720, Note_on_c, 9, 38, 127
7, 114960, Note_off_c, 9, 38, 80
7, 114960, Note_off_c, 9, 41, 80
7, 114960, Note_off_c, 9, 38, 80
7, 114960, Note_on_c, 9, 57, 127
7, 114960, Note_on_c, 9, 36, 95
7, 115080, Note_off_c, 9, 36, 80
7, 115200, Note_on_c, 9, 38, 95
7, 115200, Note_on_c, 9, 41, 95
7, 115200, Note_on_c, 9, 36, 95
7, 115440, Note_off_c, 9, 57, 80
7, 115440, Note_off_c, 9, 38, 80
7, 115440, Note_off_c, 9, 41, 80
7, 115440, Note_off_c, 9, 36, 80
7, 115440, Note_on_c, 9, 36, 111
7, 115680, Note_off_c, 9, 36, 80
7, 115680, Note_on_c, 9, 57, 79
7, 115680, Note_on_c, 9, 40, 111
7, 115680, Note_on_c, 9, 27, 127
7, 115680, Note_on_c, 9, 38, 95
7, 115680, Note_on_c, 9, 42, 95
7, 115680, Note_on_c, 9, 36, 127
7, 115920, Note_off_c, 9, 57, 80
7, 115920, Note_off_c, 9, 40, 80
7, 115920, Note_off_c, 9, 27, 80
7, 115920, Note_off_c, 9, 38, 80
7, 115920, Note_off_c, 9, 42, 80
7, 115920, Note_off_c, 9, 36, 80
7, 115920, Note_on_c, 9, 36, 127
7, 116040, Note_off_c, 9, 36, 80
7, 116040, Note_on_c, 9, 59, 95
7, 116040, Note_on_c, 9, 36, 127
7, 116160, Note_off_c, 9, 59, 80
7, 116160, Note_off_c, 9, 36, 80
7, 116160, Note_on_c, 9, 44, 95
7, 116160, Note_on_c, 9, 36, 111
7, 116400, Note_off_c, 9, 44, 80
7, 116400, Note_off_c, 9, 36, 80
7, 116400, Note_on_c, 9, 44, 95
7, 116400, Note_on_c, 9, 47, 111
7, 116640, Note_off_c, 9, 44, 80
7, 116640, Note_off_c, 9, 47, 80
7, 116640, Note_on_c, 9, 46, 95
7, 116640, Note_on_c, 9, 38, 127
7, 116640, Note_on_c, 9, 47, 127
7, 116760, Note_off_c, 9, 46, 80
7, 116760, Note_off_c, 9, 38, 80
7, 116760, Note_off_c, 9, 47, 80
7, 116760, Note_on_c, 9, 47, 127
7, 116880, Note_off_c, 9, 47, 80
7, 116880, Note_on_c, 9, 47, 127
7, 117000, Note_off_c, 9, 47, 80
7, 117120, Note_on_c, 9, 57, 95
7, 117120, Note_on_c, 9, 49, 95
7, 117120, Note_on_c, 9, 38, 95
7, 117120, Note_on_c, 9, 41, 95
7, 117120, Note_on_c, 9, 36, 127
7, 117180, Note_off_c, 9, 57, 80
7, 117180, Note_off_c, 9, 49, 80
7, 117180, Note_off_c, 9, 38, 80
7, 117180, Note_off_c, 9, 41, 80
7, 117180, Note_off_c, 9, 36, 80
7, 117360, Note_on_c, 9, 36, 95
7, 117600, Note_off_c, 9, 36, 80
7, 117600, Note_on_c, 9, 55, 95
7, 117600, Note_on_c, 9, 40, 95
7, 117600, Note_on_c, 9, 27, 127
7, 117600, Note_on_c, 9, 38, 95
7, 117600, Note_on_c, 9, 41, 95
7, 117600, Note_on_c, 9, 36, 127
7, 117840, Note_off_c, 9, 55, 80
7, 117840, Note_off_c, 9, 40, 80
7, 117840, Note_off_c, 9, 27, 80
7, 117840, Note_off_c, 9, 38, 80
7, 117840, Note_off_c, 9, 41, 80
7, 117840, Note_off_c, 9, 36, 80
7, 117840, Note_on_c, 9, 55, 95
7, 117840, Note_on_c, 9, 59, 95
7, 117840, Note_on_c, 9, 36, 95
7, 117960, Note_off_c, 9, 55, 80
7, 117960, Note_off_c, 9, 59, 80
7, 117960, Note_off_c, 9, 36, 80
7, 117960, Note_on_c, 9, 55, 95
7, 117960, Note_on_c, 9, 59, 95
7, 117960, Note_on_c, 9, 36, 95
7, 118080, Note_off_c, 9, 55, 80
7, 118080, Note_off_c, 9, 59, 80
7, 118080, Note_off_c, 9, 36, 80
7, 118080, Note_on_c, 9, 44, 111
7, 118080, Note_on_c, 9, 59, 95
7, 118080, Note_on_c, 9, 38, 95
7, 118080, Note_on_c, 9, 36, 127
7, 118320, Note_off_c, 9, 44, 80
7, 118320, Note_off_c, 9, 59, 80
7, 118320, Note_off_c, 9, 38, 80
7, 118320, Note_off_c, 9, 36, 80
7, 118320, Note_on_c, 9, 44, 95
7, 118320, Note_on_c, 9, 59, 95
7, 118320, Note_on_c, 9, 38, 95
7, 118320, Note_on_c, 9, 36, 111
7, 118560, Note_off_c, 9, 44, 80
7, 118560, Note_off_c, 9, 59, 80
7, 118560, Note_off_c, 9, 38, 80
7, 118560, Note_off_c, 9, 36, 80
7, 118560, Note_on_c, 9, 38, 127
7, 118560, Note_on_c, 9, 41, 95
7, 118560, Note_on_c, 9, 38, 127
7, 118800, Note_off_c, 9, 38, 80
7, 118800, Note_off_c, 9, 41, 80
7, 118800, Note_off_c, 9, 38, 80
7, 118800, Note_on_c, 9, 57, 127
7, 118800, Note_on_c, 9, 36, 95
7, 118920, Note_off_c, 9, 36, 80
7, 119040, Note_on_c, 9, 38, 95
7, 119040, Note_on_c, 9, 41, 95
7, 119040, Note_on_c, 9, 36, 95
7, 119280, Note_off_c, 9, 57, 80
7, 119280, Note_off_c, 9, 38, 80
7, 119280, Note_off_c, 9, 41, 80
7, 119280, Note_off_c, 9, 36, 80
7, 119280, Note_on_c, 9, 36, 111
7, 119520, Note_off_c, 9, 36, 80
7, 119520, Note_on_c, 9, 57, 79
7, 119520, Note_on_c, 9, 40, 111
7, 119520, Note_on_c, 9, 27, 127
7, 119520, Note_on_c, 9, 38, 95
7, 119520, Note_on_c, 9, 42, 95
7, 119520, Note_on_c, 9, 36, 127
7, 119760, Note_off_c, 9, 57, 80
7, 119760, Note_off_c, 9, 40, 80
7, 119760, Note_off_c, 9, 27, 80
7, 119760, Note_off_c, 9, 38, 80
7, 119760, Note_off_c, 9, 42, 80
7, 119760, Note_off_c, 9, 36, 80
7, 119760, Note_on_c, 9, 36, 127
7, 119880, Note_off_c, 9, 36, 80
7, 119880, Note_on_c, 9, 59, 95
7, 119880, Note_on_c, 9, 36, 127
7, 120000, Note_off_c, 9, 59, 80
7, 120000, Note_off_c, 9, 36, 80
7, 120000, Note_on_c, 9, 44, 95
7, 120000, Note_on_c, 9, 36, 111
7, 120240, Note_off_c, 9, 44, 80
7, 120240, Note_off_c, 9, 36, 80
7, 120240, Note_on_c, 9, 44, 95
7, 120240, Note_on_c, 9, 47, 111
7, 120480, Note_off_c, 9, 44, 80
7, 120480, Note_off_c, 9, 47, 80
7, 120480, Note_on_c, 9, 46, 95
7, 120480, Note_on_c, 9, 38, 127
7, 120480, Note_on_c, 9, 47, 127
7, 120600, Note_off_c, 9, 46, 80
7, 120600, Note_off_c, 9, 38, 80
7, 120600, Note_off_c, 9, 47, 80
7, 120600, Note_on_c, 9, 47, 127
7, 120720, Note_off_c, 9, 47, 80
7, 120720, Note_on_c, 9, 47, 127
7, 120840, Note_off_c, 9, 47, 80
7, 120960, Note_on_c, 9, 57, 95
7, 120960, Note_on_c, 9, 49, 95
7, 120960, Note_on_c, 9, 38, 95
7, 120960, Note_on_c, 9, 41, 95
7, 120960, Note_on_c, 9, 36, 127
7, 121020, Note_off_c, 9, 57, 80
7, 121020, Note_off_c, 9, 49, 80
7, 121020, Note_off_c, 9, 38, 80
7, 121020, Note_off_c, 9, 41, 80
7, 121020, Note_off_c, 9, 36, 80
7, 121200, Note_on_c, 9, 36, 95
7, 121440, Note_off_c, 9, 36, 80
7, 121440, Note_on_c, 9, 55, 95
7, 121440, Note_on_c, 9, 40, 95
7, 121440, Note_on_c, 9, 27, 127
7, 121440, Note_on_c, 9, 38, 95
7, 121440, Note_on_c, 9, 41, 95
7, 121440, Note_on_c, 9, 36, 127
7, 121680, Note_off_c, 9, 55, 80
7, 121680, Note_off_c, 9, 40, 80
7, 121680, Note_off_c, 9, 27, 80
7, 121680, Note_off_c, 9, 38, 80
7, 121680, Note_off_c, 9, 41, 80
7, 121680, Note_off_c, 9, 36, 80
7, 121680, Note_on_c, 9, 55, 95
7, 121680, Note_on_c, 9, 59, 95
7, 121680, Note_on_c, 9, 36, 95
7, 121800, Note_off_c, 9, 55, 80
7, 121800, Note_off_c, 9, 59, 80
7, 121800, Note_off_c, 9, 36, 80
7, 121800, Note_on_c, 9, 55, 95
7, 121800, Note_on_c, 9, 59, 95
7, 121800, Note_on_c, 9, 36, 95
7, 121920, Note_off_c, 9, 55, 80
7, 121920, Note_off_c, 9, 59, 80
7, 121920, Note_off_c, 9, 36, 80
7, 121920, Note_on_c, 9, 44, 111
7, 121920, Note_on_c, 9, 59, 95
7, 121920, Note_on_c, 9, 38, 95
7, 121920, Note_on_c, 9, 36, 127
7, 122160, Note_off_c, 9, 44, 80
7, 122160, Note_off_c, 9, 59, 80
7, 122160, Note_off_c, 9, 38, 80
7, 122160, Note_off_c, 9, 36, 80
7, 122160, Note_on_c, 9, 44, 95
7, 122160, Note_on_c, 9, 59, 95
7, 122160, Note_on_c, 9, 38, 95
7, 122160, Note_on_c, 9, 36, 111
7, 122400, Note_off_c, 9, 44, 80
7, 122400, Note_off_c, 9, 59, 80
7, 122400, Note_off_c, 9, 38, 80
7, 122400, Note_off_c, 9, 36, 80
7, 122400, Note_on_c, 9, 38, 127
7, 122400, Note_on_c, 9, 41, 95
7, 122400, Note_on_c, 9, 38, 127
7, 122640, Note_off_c, 9, 38, 80
7, 122640, Note_off_c, 9, 41, 80
7, 122640, Note_off_c, 9, 38, 80
7, 122640, Note_on_c, 9, 57, 127
7, 122640, Note_on_c, 9, 36, 95
7, 122760, Note_off_c, 9, 36, 80
7, 122880, Note_on_c, 9, 38, 95
7, 122880, Note_on_c, 9, 41, 95
7, 122880, Note_on_c, 9, 36, 95
7, 123120, Note_off_c, 9, 57, 80
7, 123120, Note_off_c, 9, 38, 80
7, 123120, Note_off_c, 9, 41, 80
7, 123120, Note_off_c, 9, 36, 80
7, 123120, Note_on_c, 9, 36, 111
7, 123360, Note_off_c, 9, 36, 80
7, 123360, Note_on_c, 9, 57, 79
7, 123360, Note_on_c, 9, 40, 111
7, 123360, Note_on_c, 9, 27, 127
7, 123360, Note_on_c, 9, 38, 95
7, 123360, Note_on_c, 9, 42, 95
7, 123360, Note_on_c, 9, 36, 127
7, 123600, Note_off_c, 9, 57, 80
7, 123600, Note_off_c, 9, 40, 80
7, 123600, Note_off_c, 9, 27, 80
7, 123600, Note_off_c, 9, 38, 80
7, 123600, Note_off_c, 9, 42, 80
7, 123600, Note_off_c, 9, 36, 80
7, 123600, Note_on_c, 9, 36, 127
7, 123720, Note_off_c, 9, 36, 80
7, 123720, Note_on_c, 9, 59, 95
7, 123720, Note_on_c, 9, 36, 127
7, 123840, Note_off_c, 9, 59, 80
7, 123840, Note_off_c, 9, 36, 80
7, 123840, Note_on_c, 9, 44, 95
7, 123840, Note_on_c, 9, 36, 111
7, 124080, Note_off_c, 9, 44, 80
7, 124080, Note_off_c, 9, 36, 80
7, 124080, Note_on_c, 9, 44, 95
7, 124080, Note_on_c, 9, 47, 111
7, 124320, Note_off_c, 9, 44, 80
7, 124320, Note_off_c, 9, 47, 80
7, 124320, Note_on_c, 9, 46, 95
7, 124320, Note_on_c, 9, 38, 127
7, 124320, Note_on_c, 9, 47, 127
7, 124440, Note_off_c, 9, 46, 80
7, 124440, Note_off_c, 9, 38, 80
7, 124440, Note_off_c, 9, 47, 80
7, 124440, Note_on_c, 9, 47, 127
7, 124560, Note_off_c, 9, 47, 80
7, 124560, Note_on_c, 9, 47, 127
7, 124680, Note_off_c, 9, 47, 80
7, 124800, Note_on_c, 9, 57, 95
7, 124800, Note_on_c, 9, 49, 95
7, 124800, Note_on_c, 9, 38, 95
7, 124800, Note_on_c, 9, 41, 95
7, 124800, Note_on_c, 9, 36, 127
7, 124860, Note_off_c, 9, 57, 80
7, 124860, Note_off_c, 9, 49, 80
7, 124860, Note_off_c, 9, 38, 80
7, 124860, Note_off_c, 9, 41, 80
7, 124860, Note_off_c, 9, 36, 80
7, 125040, Note_on_c, 9, 36, 95
7, 125280, Note_off_c, 9, 36, 80
7, 125280, Note_on_c, 9, 55, 95
7, 125280, Note_on_c, 9, 40, 95
7, 125280, Note_on_c, 9, 27, 127
7, 125280, Note_on_c, 9, 38, 95
7, 125280, Note_on_c, 9, 41, 95
7, 125280, Note_on_c, 9, 36, 127
7, 125520, Note_off_c, 9, 55, 80
7, 125520, Note_off_c, 9, 40, 80
7, 125520, Note_off_c, 9, 27, 80
7, 125520, Note_off_c, 9, 38, 80
7, 125520, Note_off_c, 9, 41, 80
7, 125520, Note_off_c, 9, 36, 80
7, 125520, Note_on_c, 9, 55, 95
7, 125520, Note_on_c, 9, 59, 95
7, 125520, Note_on_c, 9, 36, 95
7, 125640, Note_off_c, 9, 55, 80
7, 125640, Note_off_c, 9, 59, 80
7, 125640, Note_off_c, 9, 36, 80
7, 125640, Note_on_c, 9, 55, 95
7, 125640, Note_on_c, 9, 59, 95
7, 125640, Note_on_c, 9, 36, 95
7, 125760, Note_off_c, 9, 55, 80
7, 125760, Note_off_c, 9, 59, 80
7, 125760, Note_off_c, 9, 36, 80
7, 125760, Note_on_c, 9, 44, 111
7, 125760, Note_on_c, 9, 59, 95
7, 125760, Note_on_c, 9, 38, 95
7, 125760, Note_on_c, 9, 36, 127
7, 126000, Note_off_c, 9, 44, 80
7, 126000, Note_off_c, 9, 59, 80
7, 126000, Note_off_c, 9, 38, 80
7, 126000, Note_off_c, 9, 36, 80
7, 126000, Note_on_c, 9, 44, 95
7, 126000, Note_on_c, 9, 59, 95
7, 126000, Note_on_c, 9, 38, 95
7, 126000, Note_on_c, 9, 36, 111
7, 126240, Note_off_c, 9, 44, 80
7, 126240, Note_off_c, 9, 59, 80
7, 126240, Note_off_c, 9, 38, 80
7, 126240, Note_off_c, 9, 36, 80
7, 126240, Note_on_c, 9, 38, 127
7, 126240, Note_on_c, 9, 41, 95
7, 126240, Note_on_c, 9, 38, 127
7, 126480, Note_off_c, 9, 38, 80
7, 126480, Note_off_c, 9, 41, 80
7, 126480, Note_off_c, 9, 38, 80
7, 126480, Note_on_c, 9, 57, 127
7, 126480, Note_on_c, 9, 36, 95
7, 126600, Note_off_c, 9, 36, 80
7, 126720, Note_on_c, 9, 38, 95
7, 126720, Note_on_c, 9, 41, 95
7, 126720, Note_on_c, 9, 36, 95
7, 126960, Note_off_c, 9, 57, 80
7, 126960, Note_off_c, 9, 38, 80
7, 126960, Note_off_c, 9, 41, 80
7, 126960, Note_off_c, 9, 36, 80
7, 126960, Note_on_c, 9, 36, 111
7, 127200, Note_off_c, 9, 36, 80
7, 127200, Note_on_c, 9, 57, 79
7, 127200, Note_on_c, 9, 40, 111
7, 127200, Note_on_c, 9, 27, 127
7, 127200, Note_on_c, 9, 38, 95
7, 127200, Note_on_c, 9, 42, 95
7, 127200, Note_on_c, 9, 36, 127
7, 127440, Note_off_c, 9, 57, 80
7, 127440, Note_off_c, 9, 40, 80
7, 127440, Note_off_c, 9, 27, 80
7, 127440, Note_off_c, 9, 38, 80
7, 127440, Note_off_c, 9, 42, 80
7, 127440, Note_off_c, 9, 36, 80
7, 127440, Note_on_c, 9, 36, 127
7, 127560, Note_off_c, 9, 36, 80
7, 127560, Note_on_c, 9, 59, 95
7, 127560, Note_on_c, 9, 36, 127
7, 127680, Note_off_c, 9, 59, 80
7, 127680, Note_off_c, 9, 36, 80
7, 127680, Note_on_c, 9, 44, 95
7, 127680, Note_on_c, 9, 36, 111
7, 127920, Note_off_c, 9, 44, 80
7, 127920, Note_off_c, 9, 36, 80
7, 127920, Note_on_c, 9, 44, 95
7, 127920, Note_on_c, 9, 47, 111
7, 128160, Note_off_c, 9, 44, 80
7, 128160, Note_off_c, 9, 47, 80
7, 128160, Note_on_c, 9, 46, 95
7, 128160, Note_on_c, 9, 38, 127
7, 128160, Note_on_c, 9, 47, 127
7, 128280, Note_off_c, 9, 46, 80
7, 128280, Note_off_c, 9, 38, 80
7, 128280, Note_off_c, 9, 47, 80
7, 128280, Note_on_c, 9, 47, 127
7, 128400, Note_off_c, 9, 47, 80
7, 128400, Note_on_c, 9, 47, 127
7, 128520, Note_off_c, 9, 47, 80
7, 128640, Note_on_c, 9, 57, 95
7, 128640, Note_on_c, 9, 49, 95
7, 128640, Note_on_c, 9, 38, 95
7, 128640, Note_on_c, 9, 41, 95
7, 128640, Note_on_c, 9, 36, 127
7, 128700, Note_off_c, 9, 57, 80
7, 128700, Note_off_c, 9, 49, 80
7, 128700, Note_off_c, 9, 38, 80
7, 128700, Note_off_c, 9, 41, 80
7, 128700, Note_off_c, 9, 36, 80
7, 128880, Note_on_c, 9, 36, 95
7, 129120, Note_off_c, 9, 36, 80
7, 129120, Note_on_c, 9, 55, 95
7, 129120, Note_on_c, 9, 40, 95
7, 129120, Note_on_c, 9, 27, 127
7, 129120, Note_on_c, 9, 38, 95
7, 129120, Note_on_c, 9, 41, 95
7, 129120, Note_on_c, 9, 36, 127
7, 129360, Note_off_c, 9, 55, 80
7, 129360, Note_off_c, 9, 40, 80
7, 129360, Note_off_c, 9, 27, 80
7, 129360, Note_off_c, 9, 38, 80
7, 129360, Note_off_c, 9, 41, 80
7, 129360, Note_off_c, 9, 36, 80
7, 129360, Note_on_c, 9, 55, 95
7, 129360, Note_on_c, 9, 59, 95
7, 129360, Note_on_c, 9, 36, 95
7, 129480, Note_off_c, 9, 55, 80
7, 129480, Note_off_c, 9, 59, 80
7, 129480, Note_off_c, 9, 36, 80
7, 129480, Note_on_c, 9, 55, 95
7, 129480, Note_on_c, 9, 59, 95
7, 129480, Note_on_c, 9, 36, 95
7, 129600, Note_off_c, 9, 55, 80
7, 129600, Note_off_c, 9, 59, 80
7, 129600, Note_off_c, 9, 36, 80
7, 129600, Note_on_c, 9, 44, 111
7, 129600, Note_on_c, 9, 59, 95
7, 129600, Note_on_c, 9, 38, 95
7, 129600, Note_on_c, 9, 36, 127
7, 129840, Note_off_c, 9, 44, 80
7, 129840, Note_off_c, 9, 59, 80
7, 129840, Note_off_c, 9, 38, 80
7, 129840, Note_off_c, 9, 36, 80
7, 129840, Note_on_c, 9, 44, 95
7, 129840, Note_on_c, 9, 59, 95
7, 129840, Note_on_c, 9, 38, 95
7, 129840, Note_on_c, 9, 36, 111
7, 130080, Note_off_c, 9, 44, 80
7, 130080, Note_off_c, 9, 59, 80
7, 130080, Note_off_c, 9, 38, 80
7, 130080, Note_off_c, 9, 36, 80
7, 130080, Note_on_c, 9, 38, 127
7, 130080, Note_on_c, 9, 41, 95
7, 130080, Note_on_c, 9, 38, 127
7, 130320, Note_off_c, 9, 38, 80
7, 130320, Note_off_c, 9, 41, 80
7, 130320, Note_off_c, 9, 38, 80
7, 130320, Note_on_c, 9, 57, 127
7, 130320, Note_on_c, 9, 36, 95
7, 130440, Note_off_c, 9, 36, 80
7, 130560, Note_on_c, 9, 38, 95
7, 130560, Note_on_c, 9, 41, 95
7, 130560, Note_on_c, 9, 36, 95
7, 130800, Note_off_c, 9, 57, 80
7, 130800, Note_off_c, 9, 38, 80
7, 130800, Note_off_c, 9, 41, 80
7, 130800, Note_off_c, 9, 36, 80
7, 130800, Note_on_c, 9, 36, 111
7, 131040, Note_off_c, 9, 36, 80
7, 131040, Note_on_c, 9, 57, 79
7, 131040, Note_on_c, 9, 40, 111
7, 131040, Note_on_c, 9, 27, 127
7, 131040, Note_on_c, 9, 38, 95
7, 131040, Note_on_c, 9, 42, 95
7, 131040, Note_on_c, 9, 36, 127
7, 131280, Note_off_c, 9, 57, 80
7, 131280, Note_off_c, 9, 40, 80
7, 131280, Note_off_c, 9, 27, 80
7, 131280, Note_off_c, 9, 38, 80
7, 131280, Note_off_c, 9, 42, 80
7, 131280, Note_off_c, 9, 36, 80
7, 131280, Note_on_c, 9, 36, 127
7, 131400, Note_off_c, 9, 36, 80
7, 131400, Note_on_c, 9, 59, 95
7, 131400, Note_on_c, 9, 36, 127
7, 131520, Note_off_c, 9, 59, 80
7, 131520, Note_off_c, 9, 36, 80
7, 131520, Note_on_c, 9, 44, 95
7, 131520, Note_on_c, 9, 36, 111
7, 131760, Note_off_c, 9, 44, 80
7, 131760, Note_off_c, 9, 36, 80
7, 131760, Note_on_c, 9, 44, 95
7, 131760, Note_on_c, 9, 47, 111
7, 132000, Note_off_c, 9, 44, 80
7, 132000, Note_off_c, 9, 47, 80
7, 132000, Note_on_c, 9, 46, 95
7, 132000, Note_on_c, 9, 38, 127
7, 132000, Note_on_c, 9, 47, 127
7, 132120, Note_off_c, 9, 46, 80
7, 132120, Note_off_c, 9, 38, 80
7, 132120, Note_off_c, 9, 47, 80
7, 132120, Note_on_c, 9, 47, 127
7, 132240, Note_off_c, 9, 47, 80
7, 132240, Note_on_c, 9, 47, 127
7, 132360, Note_off_c, 9, 47, 80
7, 132480, Note_on_c, 9, 57, 95
7, 132480, Note_on_c, 9, 49, 95
7, 132480, Note_on_c, 9, 38, 95
7, 132480, Note_on_c, 9, 41, 95
7, 132480, Note_on_c, 9, 36, 127
7, 132540, Note_off_c, 9, 57, 80
7, 132540, Note_off_c, 9, 49, 80
7, 132540, Note_off_c, 9, 38, 80
7, 132540, Note_off_c, 9, 41, 80
7, 132540, Note_off_c, 9, 36, 80
7, 132720, Note_on_c, 9, 36, 95
7, 132960, Note_off_c, 9, 36, 80
7, 132960, Note_on_c, 9, 55, 95
7, 132960, Note_on_c, 9, 40, 95
7, 132960, Note_on_c, 9, 27, 127
7, 132960, Note_on_c, 9, 38, 95
7, 132960, Note_on_c, 9, 41, 95
7, 132960, Note_on_c, 9, 36, 127
7, 133200, Note_off_c, 9, 55, 80
7, 133200, Note_off_c, 9, 40, 80
7, 133200, Note_off_c, 9, 27, 80
7, 133200, Note_off_c, 9, 38, 80
7, 133200, Note_off_c, 9, 41, 80
7, 133200, Note_off_c, 9, 36, 80
7, 133200, Note_on_c, 9, 55, 95
7, 133200, Note_on_c, 9, 59, 95
7, 133200, Note_on_c, 9, 36, 95
7, 133320, Note_off_c, 9, 55, 80
7, 133320, Note_off_c, 9, 59, 80
7, 133320, Note_off_c, 9, 36, 80
7, 133320, Note_on_c, 9, 55, 95
7, 133320, Note_on_c, 9, 59, 95
7, 133320, Note_on_c, 9, 36, 95
7, 133440, Note_off_c, 9, 55, 80
7, 133440, Note_off_c, 9, 59, 80
7, 133440, Note_off_c, 9, 36, 80
7, 133440, Note_on_c, 9, 44, 111
7, 133440, Note_on_c, 9, 59, 95
7, 133440, Note_on_c, 9, 38, 95
7, 133440, Note_on_c, 9, 36, 127
7, 133680, Note_off_c, 9, 44, 80
7, 133680, Note_off_c, 9, 59, 80
7, 133680, Note_off_c, 9, 38, 80
7, 133680, Note_off_c, 9, 36, 80
7, 133680, Note_on_c, 9, 44, 95
7, 133680, Note_on_c, 9, 59, 95
7, 133680, Note_on_c, 9, 38, 95
7, 133680, Note_on_c, 9, 36, 111
7, 133920, Note_off_c, 9, 44, 80
7, 133920, Note_off_c, 9, 59, 80
7, 133920, Note_off_c, 9, 38, 80
7, 133920, Note_off_c, 9, 36, 80
7, 133920, Note_on_c, 9, 38, 127
7, 133920, Note_on_c, 9, 41, 95
7, 133920, Note_on_c, 9, 38, 127
7, 134160, Note_off_c, 9, 38, 80
7, 134160, Note_off_c, 9, 41, 80
7, 134160, Note_off_c, 9, 38, 80
7, 134160, Note_on_c, 9, 57, 127
7, 134160, Note_on_c, 9, 36, 95
7, 134280, Note_off_c, 9, 36, 80
7, 134400, Note_on_c, 9, 38, 95
7, 134400, Note_on_c, 9, 41, 95
7, 134400, Note_on_c, 9, 36, 95
7, 134640, Note_off_c, 9, 57, 80
7, 134640, Note_off_c, 9, 38, 80
7, 134640, Note_off_c, 9, 41, 80
7, 134640, Note_off_c, 9, 36, 80
7, 134640, Note_on_c, 9, 36, 111
7, 134880, Note_off_c, 9, 36, 80
7, 134880, Note_on_c, 9, 57, 79
7, 134880, Note_on_c, 9, 40, 111
7, 134880, Note_on_c, 9, 27, 127
7, 134880, Note_on_c, 9, 38, 95
7, 134880, Note_on_c, 9, 42, 95
7, 134880, Note_on_c, 9, 36, 127
7, 135120, Note_off_c, 9, 57, 80
7, 135120, Note_off_c, 9, 40, 80
7, 135120, Note_off_c, 9, 27, 80
7, 135120, Note_off_c, 9, 38, 80
7, 135120, Note_off_c, 9, 42, 80
7, 135120, Note_off_c, 9, 36, 80
7, 135120, Note_on_c, 9, 36, 127
7, 135240, Note_off_c, 9, 36, 80
7, 135240, Note_on_c, 9, 59, 95
7, 135240, Note_on_c, 9, 36, 127
7, 135360, Note_off_c, 9, 59, 80
7, 135360, Note_off_c, 9, 36, 80
7, 135360, Note_on_c, 9, 44, 95
7, 135360, Note_on_c, 9, 36, 111
7, 135600, Note_off_c, 9, 44, 80
7, 135600, Note_off_c, 9, 36, 80
7, 135600, Note_on_c, 9, 44, 95
7, 135600, Note_on_c, 9, 47, 111
7, 135840, Note_off_c, 9, 44, 80
7, 135840, Note_off_c, 9, 47, 80
7, 135840, Note_on_c, 9, 46, 95
7, 135840, Note_on_c, 9, 38, 127
7, 135840, Note_on_c, 9, 47, 127
7, 135960, Note_off_c, 9, 46, 80
7, 135960, Note_off_c, 9, 38, 80
7, 135960, Note_off_c, 9, 47, 80
7, 135960, Note_on_c, 9, 47, 127
7, 136080, Note_off_c, 9, 47, 80
7, 136080, Note_on_c, 9, 47, 127
7, 136200, Note_off_c, 9, 47, 80
7, 136320, Note_on_c, 9, 57, 95
7, 136320, Note_on_c, 9, 49, 95
7, 136320, Note_on_c, 9, 38, 95
7, 136320, Note_on_c, 9, 41, 95
7, 136320, Note_on_c, 9, 36, 127
7, 136380, Note_off_c, 9, 57, 80
7, 136380, Note_off_c, 9, 49, 80
7, 136380, Note_off_c, 9, 38, 80
7, 136380, Note_off_c, 9, 41, 80
7, 136380, Note_off_c, 9, 36, 80
7, 136560, Note_on_c, 9, 36, 95
7, 136800, Note_off_c, 9, 36, 80
7, 136800, Note_on_c, 9, 55, 95
7, 136800, Note_on_c, 9, 40, 95
7, 136800, Note_on_c, 9, 27, 127
7, 136800, Note_on_c, 9, 38, 95
7, 136800, Note_on_c, 9, 41, 95
7, 136800, Note_on_c, 9, 36, 127
7, 137040, Note_off_c, 9, 55, 80
7, 137040, Note_off_c, 9, 40, 80
7, 137040, Note_off_c, 9, 27, 80
7, 137040, Note_off_c, 9, 38, 80
7, 137040, Note_off_c, 9, 41, 80
7, 137040, Note_off_c, 9, 36, 80
7, 137040, Note_on_c, 9, 55, 95
7, 137040, Note_on_c, 9, 59, 95
7, 137040, Note_on_c, 9, 36, 95
7, 137160, Note_off_c, 9, 55, 80
7, 137160, Note_off_c, 9, 59, 80
7, 137160, Note_off_c, 9, 36, 80
7, 137160, Note_on_c, 9, 55, 95
7, 137160, Note_on_c, 9, 59, 95
7, 137160, Note_on_c, 9, 36, 95
7, 137280, Note_off_c, 9, 55, 80
7, 137280, Note_off_c, 9, 59, 80
7, 137280, Note_off_c, 9, 36, 80
7, 137280, Note_on_c, 9, 44, 111
7, 137280, Note_on_c, 9, 59, 95
7, 137280, Note_on_c, 9, 38, 95
7, 137280, Note_on_c, 9, 36, 127
7, 137520, Note_off_c, 9, 44, 80
7, 137520, Note_off_c, 9, 59, 80
7, 137520, Note_off_c, 9, 38, 80
7, 137520, Note_off_c, 9, 36, 80
7, 137520, Note_on_c, 9, 44, 95
7, 137520, Note_on_c, 9, 59, 95
7, 137520, Note_on_c, 9, 38, 95
7, 137520, Note_on_c, 9, 36, 111
7, 137760, Note_off_c, 9, 44, 80
7, 137760, Note_off_c, 9, 59, 80
7, 137760, Note_off_c, 9, 38, 80
7, 137760, Note_off_c, 9, 36, 80
7, 137760, Note_on_c, 9, 38, 127
7, 137760, Note_on_c, 9, 41, 95
7, 137760, Note_on_c, 9, 38, 127
7, 138000, Note_off_c, 9, 38, 80
7, 138000, Note_off_c, 9, 41, 80
7, 138000, Note_off_c, 9, 38, 80
7, 138000, Note_on_c, 9, 57, 127
7, 138000, Note_on_c, 9, 36, 95
7, 138120, Note_off_c, 9, 36, 80
7, 138240, Note_on_c, 9, 38, 95
7, 138240, Note_on_c, 9, 41, 95
7, 138240, Note_on_c, 9, 36, 95
7, 138480, Note_off_c, 9, 57, 80
7, 138480, Note_off_c, 9, 38, 80
7, 138480, Note_off_c, 9, 41, 80
7, 138480, Note_off_c, 9, 36, 80
7, 138480, Note_on_c, 9, 36, 111
7, 138720, Note_off_c, 9, 36, 80
7, 138720, Note_on_c, 9, 57, 79
7, 138720, Note_on_c, 9, 40, 111
7, 138720, Note_on_c, 9, 27, 127
7, 138720, Note_on_c, 9, 38, 95
7, 138720, Note_on_c, 9, 42, 95
7, 138720, Note_on_c, 9, 36, 127
7, 138960, Note_off_c, 9, 57, 80
7, 138960, Note_off_c, 9, 40, 80
7, 138960, Note_off_c, 9, 27, 80
7, 138960, Note_off_c, 9, 38, 80
7, 138960, Note_off_c, 9, 42, 80
7, 138960, Note_off_c, 9, 36, 80
7, 138960, Note_on_c, 9, 36, 127
7, 139080, Note_off_c, 9, 36, 80
7, 139080, Note_on_c, 9, 59, 95
7, 139080, Note_on_c, 9, 36, 127
7, 139200, Note_off_c, 9, 59, 80
7, 139200, Note_off_c, 9, 36, 80
7, 139200, Note_on_c, 9, 44, 95
7, 139200, Note_on_c, 9, 36, 111
7, 139440, Note_off_c, 9, 44, 80
7, 139440, Note_off_c, 9, 36, 80
7, 139440, Note_on_c, 9, 44, 95
7, 139440, Note_on_c, 9, 47, 111
7, 139680, Note_off_c, 9, 44, 80
7, 139680, Note_off_c, 9, 47, 80
7, 139680, Note_on_c, 9, 46, 95
7, 139680, Note_on_c, 9, 38, 127
7, 139680, Note_on_c, 9, 47, 127
7, 139800, Note_off_c, 9, 46, 80
7, 139800, Note_off_c, 9, 38, 80
7, 139800, Note_off_c, 9, 47, 80
7, 139800, Note_on_c, 9, 47, 127
7, 139920, Note_off_c, 9, 47, 80
7, 139920, Note_on_c, 9, 47, 127
7, 140040, Note_off_c, 9, 47, 80
7, 140160, Note_on_c, 9, 57, 95
7, 140160, Note_on_c, 9, 49, 95
7, 140160, Note_on_c, 9, 38, 95
7, 140160, Note_on_c, 9, 41, 95
7, 140160, Note_on_c, 9, 36, 127
7, 140220, Note_off_c, 9, 57, 80
7, 140220, Note_off_c, 9, 49, 80
7, 140220, Note_off_c, 9, 38, 80
7, 140220, Note_off_c, 9, 41, 80
7, 140220, Note_off_c, 9, 36, 80
7, 140400, Note_on_c, 9, 36, 95
7, 140640, Note_off_c, 9, 36, 80
7, 140640, Note_on_c, 9, 55, 95
7, 140640, Note_on_c, 9, 40, 95
7, 140640, Note_on_c, 9, 27, 127
7, 140640, Note_on_c, 9, 38, 95
7, 140640, Note_on_c, 9, 41, 95
7, 140640, Note_on_c, 9, 36, 127
7, 140880, Note_off_c, 9, 55, 80
7, 140880, Note_off_c, 9, 40, 80
7, 140880, Note_off_c, 9, 27, 80
7, 140880, Note_off_c, 9, 38, 80
7, 140880, Note_off_c, 9, 41, 80
7, 140880, Note_off_c, 9, 36, 80
7, 140880, Note_on_c, 9, 55, 95
7, 140880, Note_on_c, 9, 59, 95
7, 140880, Note_on_c, 9, 36, 95
7, 141000, Note_off_c, 9, 55, 80
7, 141000, Note_off_c, 9, 59, 80
7, 141000, Note_off_c, 9, 36, 80
7, 141000, Note_on_c, 9, 55, 95
7, 141000, Note_on_c, 9, 59, 95
7, 141000, Note_on_c, 9, 36, 95
7, 141120, Note_off_c, 9, 55, 80
7, 141120, Note_off_c, 9, 59, 80
7, 141120, Note_off_c, 9, 36, 80
7, 141120, Note_on_c, 9, 44, 111
7, 141120, Note_on_c, 9, 59, 95
7, 141120, Note_on_c, 9, 38, 95
7, 141120, Note_on_c, 9, 36, 127
7, 141360, Note_off_c, 9, 44, 80
7, 141360, Note_off_c, 9, 59, 80
7, 141360, Note_off_c, 9, 38, 80
7, 141360, Note_off_c, 9, 36, 80
7, 141360, Note_on_c, 9, 44, 95
7, 141360, Note_on_c, 9, 59, 95
7, 141360, Note_on_c, 9, 38, 95
7, 141360, Note_on_c, 9, 36, 111
7, 141600, Note_off_c, 9, 44, 80
7, 141600, Note_off_c, 9, 59, 80
7, 141600, Note_off_c, 9, 38, 80
7, 141600, Note_off_c, 9, 36, 80
7, 141600, Note_on_c, 9, 38, 127
7, 141600, Note_on_c, 9, 41, 95
7, 141600, Note_on_c, 9, 38, 127
7, 141840, Note_off_c, 9, 38, 80
7, 141840, Note_off_c, 9, 41, 80
7, 141840, Note_off_c, 9, 38, 80
7, 141840, Note_on_c, 9, 57, 127
7, 141840, Note_on_c, 9, 36, 95
7, 141960, Note_off_c, 9, 57, 80
7, 141960, Note_off_c, 9, 36, 80
7, 142080, Note_on_c, 9, 44, 95
7, 142080, Note_on_c, 9, 36, 95
7, 142080, Note_on_c, 9, 36, 95
7, 142320, Note_off_c, 9, 44, 80
7, 142320, Note_off_c, 9, 36, 80
7, 142320, Note_off_c, 9, 36, 80
7, 142320, Note_on_c, 9, 54, 79
7, 142320, Note_on_c, 9, 44, 47
7, 142560, Note_off_c, 9, 54, 80
7, 142560, Note_off_c, 9, 44, 80
7, 142560, Note_on_c, 9, 44, 95
7, 142560, Note_on_c, 9, 40, 127
7, 142560, Note_on_c, 9, 27, 127
7, 142560, Note_on_c, 9, 38, 127
7, 142560, Note_on_c, 9, 42, 95
7, 142560, Note_on_c, 9, 36, 127
7, 142800, Note_off_c, 9, 44, 80
7, 142800, Note_off_c, 9, 40, 80
7, 142800, Note_off_c, 9, 27, 80
7, 142800, Note_off_c, 9, 38, 80
7, 142800, Note_off_c, 9, 42, 80
7, 142800, Note_off_c, 9, 36, 80
7, 142800, Note_on_c, 9, 54, 79
7, 142800, Note_on_c, 9, 44, 47
7, 143040, Note_off_c, 9, 54, 80
7, 143040, Note_off_c, 9, 44, 80
7, 143040, Note_on_c, 9, 44, 95
7, 143040, Note_on_c, 9, 36, 95
7, 143040, Note_on_c, 9, 36, 95
7, 143280, Note_off_c, 9, 44, 80
7, 143280, Note_off_c, 9, 36, 80
7, 143280, Note_off_c, 9, 36, 80
7, 143280, Note_on_c, 9, 54, 79
7, 143280, Note_on_c, 9, 44, 47
7, 143520, Note_off_c, 9, 54, 80
7, 143520, Note_off_c, 9, 44, 80
7, 143520, Note_on_c, 9, 44, 95
7, 143520, Note_on_c, 9, 40, 127
7, 143520, Note_on_c, 9, 27, 127
7, 143520, Note_on_c, 9, 38, 127
7, 143520, Note_on_c, 9, 42, 95
7, 143520, Note_on_c, 9, 36, 127
7, 143760, Note_off_c, 9, 44, 80
7, 143760, Note_off_c, 9, 40, 80
7, 143760, Note_off_c, 9, 27, 80
7, 143760, Note_off_c, 9, 38, 80
7, 143760, Note_off_c, 9, 42, 80
7, 143760, Note_off_c, 9, 36, 80
7, 143760, Note_on_c, 9, 44, 47
7, 144000, Note_off_c, 9, 44, 80
7, 144000, Note_on_c, 9, 44, 95
7, 144000, Note_on_c, 9, 36, 95
7, 144000, Note_on_c, 9, 36, 95
7, 144240, Note_off_c, 9, 44, 80
7, 144240, Note_off_c, 9, 36, 80
7, 144240, Note_off_c, 9, 36, 80
7, 144240, Note_on_c, 9, 54, 79
7, 144240, Note_on_c, 9, 44, 47
7, 144480, Note_off_c, 9, 54, 80
7, 144480, Note_off_c, 9, 44, 80
7, 144480, Note_on_c, 9, 44, 95
7, 144480, Note_on_c, 9, 40, 127
7, 144480, Note_on_c, 9, 27, 127
7, 144480, Note_on_c, 9, 38, 127
7, 144480, Note_on_c, 9, 42, 95
7, 144480, Note_on_c, 9, 36, 127
7, 144720, Note_off_c, 9, 44, 80
7, 144720, Note_off_c, 9, 40, 80
7, 144720, Note_off_c, 9, 27, 80
7, 144720, Note_off_c, 9, 38, 80
7, 144720, Note_off_c, 9, 42, 80
7, 144720, Note_off_c, 9, 36, 80
7, 144720, Note_on_c, 9, 54, 79
7, 144720, Note_on_c, 9, 44, 47
7, 144960, Note_off_c, 9, 54, 80
7, 144960, Note_off_c, 9, 44, 80
7, 144960, Note_on_c, 9, 44, 95
7, 144960, Note_on_c, 9, 36, 95
7, 144960, Note_on_c, 9, 36, 95
7, 145200, Note_off_c, 9, 44, 80
7, 145200, Note_off_c, 9, 36, 80
7, 145200, Note_off_c, 9, 36, 80
7, 145200, Note_on_c, 9, 54, 79
7, 145200, Note_on_c, 9, 44, 47
7, 145440, Note_off_c, 9, 54, 80
7, 145440, Note_off_c, 9, 44, 80
7, 145440, Note_on_c, 9, 44, 95
7, 145440, Note_on_c, 9, 40, 127
7, 145440, Note_on_c, 9, 27, 127
7, 145440, Note_on_c, 9, 38, 127
7, 145440, Note_on_c, 9, 42, 95
7, 145440, Note_on_c, 9, 36, 127
7, 145680, Note_off_c, 9, 44, 80
7, 145680, Note_off_c, 9, 40, 80
7, 145680, Note_off_c, 9, 27, 80
7, 145680, Note_off_c, 9, 38, 80
7, 145680, Note_off_c, 9, 42, 80
7, 145680, Note_off_c, 9, 36, 80
7, 145680, Note_on_c, 9, 44, 47
7, 145920, Note_off_c, 9, 44, 80
7, 145920, Note_on_c, 9, 44, 95
7, 145920, Note_on_c, 9, 36, 95
7, 145920, Note_on_c, 9, 36, 95
7, 146160, Note_off_c, 9, 44, 80
7, 146160, Note_off_c, 9, 36, 80
7, 146160, Note_off_c, 9, 36, 80
7, 146160, Note_on_c, 9, 54, 79
7, 146160, Note_on_c, 9, 44, 47
7, 146400, Note_off_c, 9, 54, 80
7, 146400, Note_off_c, 9, 44, 80
7, 146400, Note_on_c, 9, 44, 95
7, 146400, Note_on_c, 9, 40, 127
7, 146400, Note_on_c, 9, 27, 127
7, 146400, Note_on_c, 9, 38, 127
7, 146400, Note_on_c, 9, 42, 95
7, 146400, Note_on_c, 9, 36, 127
7, 146640, Note_off_c, 9, 44, 80
7, 146640, Note_off_c, 9, 40, 80
7, 146640, Note_off_c, 9, 27, 80
7, 146640, Note_off_c, 9, 38, 80
7, 146640, Note_off_c, 9, 42, 80
7, 146640, Note_off_c, 9, 36, 80
7, 146640, Note_on_c, 9, 54, 79
7, 146640, Note_on_c, 9, 44, 47
7, 146880, Note_off_c, 9, 54, 80
7, 146880, Note_off_c, 9, 44, 80
7, 146880, Note_on_c, 9, 44, 95
7, 146880, Note_on_c, 9, 36, 95
7, 146880, Note_on_c, 9, 36, 95
7, 147120, Note_off_c, 9, 44, 80
7, 147120, Note_off_c, 9, 36, 80
7, 147120, Note_off_c, 9, 36, 80
7, 147120, Note_on_c, 9, 54, 79
7, 147120, Note_on_c, 9, 44, 47
7, 147360, Note_off_c, 9, 54, 80
7, 147360, Note_off_c, 9, 44, 80
7, 147360, Note_on_c, 9, 44, 95
7, 147360, Note_on_c, 9, 40, 127
7, 147360, Note_on_c, 9, 27, 127
7, 147360, Note_on_c, 9, 38, 127
7, 147360, Note_on_c, 9, 42, 95
7, 147360, Note_on_c, 9, 36, 127
7, 147600, Note_off_c, 9, 44, 80
7, 147600, Note_off_c, 9, 40, 80
7, 147600, Note_off_c, 9, 27, 80
7, 147600, Note_off_c, 9, 38, 80
7, 147600, Note_off_c, 9, 42, 80
7, 147600, Note_off_c, 9, 36, 80
7, 147600, Note_on_c, 9, 44, 47
7, 147840, Note_off_c, 9, 44, 80
7, 147840, Note_on_c, 9, 44, 95
7, 147840, Note_on_c, 9, 36, 95
7, 147840, Note_on_c, 9, 36, 95
7, 148080, Control_c, 9, 7, 94
7, 148080, Note_off_c, 9, 44, 80
7, 148080, Note_off_c, 9, 36, 80
7, 148080, Note_off_c, 9, 36, 80
7, 148080, Note_on_c, 9, 54, 79
7, 148080, Note_on_c, 9, 44, 47
7, 148200, Control_c, 9, 7, 93
7, 148320, Control_c, 9, 7, 91
7, 148320, Note_off_c, 9, 54, 80
7, 148320, Note_off_c, 9, 44, 80
7, 148320, Note_on_c, 9, 44, 95
7, 148320, Note_on_c, 9, 40, 127
7, 148320, Note_on_c, 9, 27, 127
7, 148320, Note_on_c, 9, 38, 127
7, 148320, Note_on_c, 9, 42, 95
7, 148320, Note_on_c, 9, 36, 127
7, 148440, Control_c, 9, 7, 90
7, 148560, Control_c, 9, 7, 88
7, 148560, Note_off_c, 9, 44, 80
7, 148560, Note_off_c, 9, 40, 80
7, 148560, Note_off_c, 9, 27, 80
7, 148560, Note_off_c, 9, 38, 80
7, 148560, Note_off_c, 9, 42, 80
7, 148560, Note_off_c, 9, 36, 80
7, 148560, Note_on_c, 9, 54, 79
7, 148560, Note_on_c, 9, 44, 47
7, 148680, Control_c, 9, 7, 87
7, 148800, Control_c, 9, 7, 85
7, 148800, Note_off_c, 9, 54, 80
7, 148800, Note_off_c, 9, 44, 80
7, 148800, Note_on_c, 9, 44, 95
7, 148800, Note_on_c, 9, 36, 95
7, 148800, Note_on_c, 9, 36, 95
7, 148920, Control_c, 9, 7, 83
7, 149040, Control_c, 9, 7, 82
7, 149040, Note_off_c, 9, 44, 80
7, 149040, Note_off_c, 9, 36, 80
7, 149040, Note_off_c, 9, 36, 80
7, 149040, Note_on_c, 9, 54, 79
7, 149040, Note_on_c, 9, 44, 47
7, 149160, Control_c, 9, 7, 80
7, 149280, Control_c, 9, 7, 79
7, 149280, Note_off_c, 9, 54, 80
7, 149280, Note_off_c, 9, 44, 80
7, 149280, Note_on_c, 9, 44, 95
7, 149280, Note_on_c, 9, 40, 127
7, 149280, Note_on_c, 9, 27, 127
7, 149280, Note_on_c, 9, 38, 127
7, 149280, Note_on_c, 9, 42, 95
7, 149280, Note_on_c, 9, 36, 127
7, 149400, Control_c, 9, 7, 77
7, 149520, Control_c, 9, 7, 76
7, 149520, Note_off_c, 9, 44, 80
7, 149520, Note_off_c, 9, 40, 80
7, 149520, Note_off_c, 9, 27, 80
7, 149520, Note_off_c, 9, 38, 80
7, 149520, Note_off_c, 9, 42, 80
7, 149520, Note_off_c, 9, 36, 80
7, 149520, Note_on_c, 9, 44, 47
7, 149640, Control_c, 9, 7, 74
7, 149760, Control_c, 9, 7, 72
7, 149760, Note_off_c, 9, 44, 80
7, 149760, Note_on_c, 9, 44, 95
7, 149760, Note_on_c, 9, 36, 95
7, 149760, Note_on_c, 9, 36, 95
7, 149880, Control_c, 9, 7, 71
7, 150000, Control_c, 9, 7, 69
7, 150000, Note_off_c, 9, 44, 80
7, 150000, Note_off_c, 9, 36, 80
7, 150000, Note_off_c, 9, 36, 80
7, 150000, Note_on_c, 9, 54, 79
7, 150000, Note_on_c, 9, 44, 47
7, 150120, Control_c, 9, 7, 68
7, 150240, Control_c, 9, 7, 66
7, 150240, Note_off_c, 9, 54, 80
7, 150240, Note_off_c, 9, 44, 80
7, 150240, Note_on_c, 9, 44, 95
7, 150240, Note_on_c, 9, 40, 127
7, 150240, Note_on_c, 9, 27, 127
7, 150240, Note_on_c, 9, 38, 127
7, 150240, Note_on_c, 9, 42, 95
7, 150240, Note_on_c, 9, 36, 127
7, 150360, Control_c, 9, 7, 65
7, 150480, Control_c, 9, 7, 63
7, 150480, Note_off_c, 9, 44, 80
7, 150480, Note_off_c, 9, 40, 80
7, 150480, Note_off_c, 9, 27, 80
7, 150480, Note_off_c, 9, 38, 80
7, 150480, Note_off_c, 9, 42, 80
7, 150480, Note_off_c, 9, 36, 80
7, 150480, Note_on_c, 9, 54, 79
7, 150480, Note_on_c, 9, 44, 47
7, 150600, Control_c, 9, 7, 61
7, 150720, Control_c, 9, 7, 60
7, 150720, Note_off_c, 9, 54, 80
7, 150720, Note_off_c, 9, 44, 80
7, 150720, Note_on_c, 9, 44, 95
7, 150720, Note_on_c, 9, 36, 95
7, 150720, Note_on_c, 9, 36, 95
7, 150840, Control_c, 9, 7, 58
7, 150960, Control_c, 9, 7, 57
7, 150960, Note_off_c, 9, 44, 80
7, 150960, Note_off_c, 9, 36, 80
7, 150960, Note_off_c, 9, 36, 80
7, 150960, Note_on_c, 9, 54, 79
7, 150960, Note_on_c, 9, 44, 47
7, 151080, Control_c, 9, 7, 55
7, 151200, Control_c, 9, 7, 54
7, 151200, Note_off_c, 9, 54, 80
7, 151200, Note_off_c, 9, 44, 80
7, 151200, Note_on_c, 9, 44, 95
7, 151200, Note_on_c, 9, 40, 127
7, 151200, Note_on_c, 9, 27, 127
7, 151200, Note_on_c, 9, 38, 127
7, 151200, Note_on_c, 9, 42, 95
7, 151200, Note_on_c, 9, 36, 127
7, 151320, Control_c, 9, 7, 52
7, 151440, Control_c, 9, 7, 50
7, 151440, Note_off_c, 9, 44, 80
7, 151440, Note_off_c, 9, 40, 80
7, 151440, Note_off_c, 9, 27, 80
7, 151440, Note_off_c, 9, 38, 80
7, 151440, Note_off_c, 9, 42, 80
7, 151440, Note_off_c, 9, 36, 80
7, 151440, Note_on_c, 9, 44, 47
7, 151560, Control_c, 9, 7, 49
7, 151680, Control_c, 9, 7, 47
7, 151680, Note_off_c, 9, 44, 80
7, 151680, Note_on_c, 9, 44, 95
7, 151680, Note_on_c, 9, 36, 95
7, 151680, Note_on_c, 9, 36, 95
7, 151800, Control_c, 9, 7, 46
7, 151920, Control_c, 9, 7, 44
7, 151920, Note_off_c, 9, 44, 80
7, 151920, Note_off_c, 9, 36, 80
7, 151920, Note_off_c, 9, 36, 80
7, 151920, Note_on_c, 9, 54, 79
7, 151920, Note_on_c, 9, 44, 47
7, 152040, Control_c, 9, 7, 42
7, 152160, Control_c, 9, 7, 41
7, 152160, Note_off_c, 9, 54, 80
7, 152160, Note_off_c, 9, 44, 80
7, 152160, Note_on_c, 9, 44, 95
7, 152160, Note_on_c, 9, 40, 127
7, 152160, Note_on_c, 9, 27, 127
7, 152160, Note_on_c, 9, 38, 127
7, 152160, Note_on_c, 9, 42, 95
7, 152160, Note_on_c, 9, 36, 127
7, 152280, Control_c, 9, 7, 39
7, 152400, Control_c, 9, 7, 38
7, 152400, Note_off_c, 9, 44, 80
7, 152400, Note_off_c, 9, 40, 80
7, 152400, Note_off_c, 9, 27, 80
7, 152400, Note_off_c, 9, 38, 80
7, 152400, Note_off_c, 9, 42, 80
7, 152400, Note_off_c, 9, 36, 80
7, 152400, Note_on_c, 9, 54, 79
7, 152400, Note_on_c, 9, 44, 47
7, 152520, Control_c, 9, 7, 36
7, 152640, Control_c, 9, 7, 35
7, 152640, Note_off_c, 9, 54, 80
7, 152640, Note_off_c, 9, 44, 80
7, 152640, Note_on_c, 9, 44, 95
7, 152640, Note_on_c, 9, 36, 95
7, 152640, Note_on_c, 9, 36, 95
7, 152760, Control_c, 9, 7, 33
7, 152880, Control_c, 9, 7, 31
7, 152880, Note_off_c, 9, 44, 80
7, 152880, Note_off_c, 9, 36, 80
7, 152880, Note_off_c, 9, 36, 80
7, 152880, Note_on_c, 9, 54, 79
7, 152880, Note_on_c, 9, 44, 47
7, 153000, Control_c, 9, 7, 30
7, 153120, Control_c, 9, 7, 28
7, 153120, Note_off_c, 9, 54, 80
7, 153120, Note_off_c, 9, 44, 80
7, 153120, Note_on_c, 9, 44, 95
7, 153120, Note_on_c, 9, 40, 127
7, 153120, Note_on_c, 9, 27, 127
7, 153120, Note_on_c, 9, 38, 127
7, 153120, Note_on_c, 9, 42, 95
7, 153120, Note_on_c, 9, 36, 127
7, 153240, Control_c, 9, 7, 27
7, 153360, Control_c, 9, 7, 25
7, 153360, Note_off_c, 9, 44, 80
7, 153360, Note_off_c, 9, 40, 80
7, 153360, Note_off_c, 9, 27, 80
7, 153360, Note_off_c, 9, 38, 80
7, 153360, Note_off_c, 9, 42, 80
7, 153360, Note_off_c, 9, 36, 80
7, 153360, Note_on_c, 9, 44, 47
7, 153480, Control_c, 9, 7, 24
7, 153600, Control_c, 9, 7, 22
7, 153600, Note_off_c, 9, 44, 80
7, 153600, Note_on_c, 9, 44, 95
7, 153600, Note_on_c, 9, 36, 95
7, 153600, Note_on_c, 9, 36, 95
7, 153720, Control_c, 9, 7, 20
7, 153840, Control_c, 9, 7, 19
7, 153840, Note_off_c, 9, 44, 80
7, 153840, Note_off_c, 9, 36, 80
7, 153840, Note_off_c, 9, 36, 80
7, 153840, Note_on_c, 9, 54, 79
7, 153840, Note_on_c, 9, 44, 47
7, 153960, Control_c, 9, 7, 17
7, 154080, Control_c, 9, 7, 16
7, 154080, Note_off_c, 9, 54, 80
7, 154080, Note_off_c, 9, 44, 80
7, 154080, Note_on_c, 9, 44, 95
7, 154080, Note_on_c, 9, 40, 127
7, 154080, Note_on_c, 9, 27, 127
7, 154080, Note_on_c, 9, 38, 127
7, 154080, Note_on_c, 9, 42, 95
7, 154080, Note_on_c, 9, 36, 127
7, 154200, Control_c, 9, 7, 14
7, 154320, Control_c, 9, 7, 13
7, 154320, Note_off_c, 9, 44, 80
7, 154320, Note_off_c, 9, 40, 80
7, 154320, Note_off_c, 9, 27, 80
7, 154320, Note_off_c, 9, 38, 80
7, 154320, Note_off_c, 9, 42, 80
7, 154320, Note_off_c, 9, 36, 80
7, 154320, Note_on_c, 9, 54, 79
7, 154320, Note_on_c, 9, 44, 47
7, 154440, Control_c, 9, 7, 11
7, 154560, Control_c, 9, 7, 9
7, 154560, Note_off_c, 9, 54, 80
7, 154560, Note_off_c, 9, 44, 80
7, 154560, Note_on_c, 9, 44, 95
7, 154560, Note_on_c, 9, 36, 95
7, 154560, Note_on_c, 9, 36, 95
7, 154680, Control_c, 9, 7, 8
7, 154800, Control_c, 9, 7, 6
7, 154800, Note_off_c, 9, 44, 80
7, 154800, Note_off_c, 9, 36, 80
7, 154800, Note_off_c, 9, 36, 80
7, 154800, Note_on_c, 9, 54, 79
7, 154800, Note_on_c, 9, 44, 47
7, 154920, Control_c, 9, 7, 5
7, 155040, Control_c, 9, 7, 3
7, 155040, Note_off_c, 9, 54, 80
7, 155040, Note_off_c, 9, 44, 80
7, 155040, Note_on_c, 9, 44, 95
7, 155040, Note_on_c, 9, 40, 127
7, 155040, Note_on_c, 9, 27, 127
7, 155040, Note_on_c, 9, 38, 127
7, 155040, Note_on_c, 9, 42, 95
7, 155040, Note_on_c, 9, 36, 127
7, 155160, Control_c, 9, 7, 2
7, 155280, Control_c, 9, 7, 0
7, 155280, Note_off_c, 9, 44, 80
7, 155280, Note_off_c, 9, 40, 80
7, 155280, Note_off_c, 9, 27, 80
7, 155280, Note_off_c, 9, 38, 80
7, 155280, Note_off_c, 9, 42, 80
7, 155280, Note_off_c, 9, 36, 80
7, 155280, Note_on_c, 9, 44, 47
7, 155520, Note_off_c, 9, 44, 80
7, 155520, End_track
8, 0, Start_track
8, 0, Title_t, "Track 6"
8, 0, Control_c, 8, 100, 0
8, 0, Control_c, 8, 101, 0
8, 0, Control_c, 8, 6, 12
8, 0, Pitch_bend_c, 8, 8192
8, 0, Control_c, 10, 100, 0
8, 0, Control_c, 10, 101, 0
8, 0, Control_c, 10, 6, 12
8, 0, Pitch_bend_c, 10, 8192
8, 0, Program_c, 8, 0
8, 0, Program_c, 10, 0
8, 0, Control_c, 8, 7, 120
8, 0, Control_c, 10, 7, 120
8, 0, Control_c, 8, 10, 72
8, 0, Control_c, 10, 10, 72
8, 0, Control_c, 8, 93, 0
8, 0, Control_c, 10, 93, 0
8, 0, Control_c, 8, 91, 96
8, 0, Control_c, 10, 91, 96
8, 0, Control_c, 8, 92, 0
8, 0, Control_c, 10, 92, 0
8, 0, Control_c, 8, 95, 64
8, 0, Control_c, 10, 95, 64
8, 1920, Note_on_c, 8, 74, 111
8, 1930, Note_on_c, 8, 77, 111
8, 1940, Note_on_c, 8, 81, 95
8, 2400, Note_off_c, 8, 77, 80
8, 2400, Note_on_c, 8, 76, 31
8, 2640, Note_off_c, 8, 74, 80
8, 2640, Note_off_c, 8, 81, 80
8, 2640, Note_off_c, 8, 76, 80
8, 2640, Note_on_c, 8, 72, 95
8, 2645, Note_on_c, 8, 77, 111
8, 2650, Note_on_c, 8, 81, 95
8, 2880, Note_off_c, 8, 72, 80
8, 2880, Note_off_c, 8, 77, 80
8, 2880, Note_off_c, 8, 81, 80
8, 2880, Note_on_c, 8, 72, 95
8, 2885, Note_on_c, 8, 76, 95
8, 2890, Note_on_c, 8, 81, 95
8, 3120, Note_off_c, 8, 72, 80
8, 3120, Note_off_c, 8, 76, 80
8, 3120, Note_off_c, 8, 81, 80
8, 3120, Note_on_c, 8, 69, 95
8, 3125, Note_on_c, 8, 74, 95
8, 3130, Note_on_c, 8, 77, 111
8, 3135, Note_on_c, 8, 81, 111
8, 3600, Note_off_c, 8, 69, 80
8, 3600, Note_off_c, 8, 74, 80
8, 3600, Note_off_c, 8, 77, 80
8, 3600, Note_off_c, 8, 81, 80
8, 3600, Note_on_c, 8, 69, 15
8, 3620, Note_on_c, 8, 74, 47
8, 3640, Note_on_c, 8, 81, 31
8, 3840, Note_off_c, 8, 69, 80
8, 3840, Note_off_c, 8, 74, 80
8, 3840, Note_off_c, 8, 81, 80
8, 3840, Note_on_c, 8, 74, 95
8, 3850, Note_on_c, 8, 77, 111
8, 3860, Note_on_c, 8, 81, 95
8, 4200, Note_off_c, 8, 74, 80
8, 4200, Note_off_c, 8, 77, 80
8, 4200, Note_off_c, 8, 81, 80
8, 4320, Note_on_c, 8, 72, 95
8, 4325, Note_on_c, 8, 76, 111
8, 4330, Note_on_c, 8, 81, 95
8, 4560, Note_off_c, 8, 72, 80
8, 4560, Note_off_c, 8, 76, 80
8, 4560, Note_off_c, 8, 81, 80
8, 4560, Note_on_c, 8, 69, 111
8, 4565, Note_on_c, 8, 74, 95
8, 4570, Note_on_c, 8, 77, 111
8, 4575, Note_on_c, 8, 81, 95
8, 4800, Note_off_c, 8, 69, 80
8, 4800, Note_off_c, 8, 74, 80
8, 4800, Note_off_c, 8, 77, 80
8, 4800, Note_off_c, 8, 81, 80
8, 5040, Note_on_c, 8, 67, 79
8, 5060, Note_on_c, 8, 74, 63
8, 5280, Note_off_c, 8, 67, 80
8, 5280, Note_off_c, 8, 74, 80
8, 5280, Note_on_c, 8, 69, 79
8, 5300, Note_on_c, 8, 72, 79
8, 5520, Note_off_c, 8, 69, 80
8, 5520, Note_off_c, 8, 72, 80
8, 5520, Note_on_c, 8, 67, 79
8, 5540, Note_on_c, 8, 74, 79
8, 5760, Note_off_c, 8, 67, 80
8, 5760, Note_off_c, 8, 74, 80
8, 5760, Note_on_c, 8, 74, 79
8, 5770, Note_on_c, 8, 77, 111
8, 5780, Note_on_c, 8, 81, 127
8, 5920, Note_off_c, 8, 74, 80
8, 5920, Note_off_c, 8, 77, 80
8, 5920, Note_off_c, 8, 81, 80
8, 5920, Note_on_c, 8, 74, 63
8, 6000, Note_off_c, 8, 74, 80
8, 6000, Note_on_c, 8, 76, 63
8, 6160, Note_off_c, 8, 76, 80
8, 6160, Note_on_c, 8, 74, 63
8, 6240, Note_off_c, 8, 74, 80
8, 6240, Note_on_c, 8, 81, 79
8, 6240, Note_on_c, 8, 76, 79
8, 6240, Note_on_c, 8, 72, 63
8, 6320, Note_off_c, 8, 81, 80
8, 6320, Note_off_c, 8, 76, 80
8, 6320, Note_off_c, 8, 72, 80
8, 6320, Note_on_c, 8, 77, 63
8, 6320, Note_on_c, 8, 69, 47
8, 6400, Note_off_c, 8, 77, 80
8, 6400, Note_off_c, 8, 69, 80
8, 6400, Note_on_c, 8, 77, 63
8, 6400, Note_on_c, 8, 72, 47
8, 6480, Note_off_c, 8, 77, 80
8, 6480, Note_off_c, 8, 72, 80
8, 6480, Note_on_c, 8, 77, 63
8, 6480, Note_on_c, 8, 72, 47
8, 6560, Note_off_c, 8, 77, 80
8, 6560, Note_off_c, 8, 72, 80
8, 6560, Note_on_c, 8, 77, 63
8, 6560, Note_on_c, 8, 72, 47
8, 6640, Note_off_c, 8, 77, 80
8, 6640, Note_off_c, 8, 72, 80
8, 6640, Note_on_c, 8, 77, 63
8, 6640, Note_on_c, 8, 72, 63
8, 6720, Note_off_c, 8, 77, 80
8, 6720, Note_off_c, 8, 72, 80
8, 6720, Note_on_c, 8, 81, 95
8, 6720, Note_on_c, 8, 76, 111
8, 6720, Note_on_c, 8, 72, 95
8, 6840, Note_off_c, 8, 81, 80
8, 6840, Note_off_c, 8, 76, 80
8, 6840, Note_off_c, 8, 72, 80
8, 6960, Note_on_c, 8, 81, 95
8, 6960, Note_on_c, 8, 69, 111
8, 7080, Note_off_c, 8, 81, 80
8, 7080, Note_off_c, 8, 69, 80
8, 7560, Note_on_c, 8, 67, 47
8, 7680, Note_off_c, 8, 67, 80
8, 7680, Note_on_c, 8, 74, 95
8, 7685, Note_on_c, 8, 77, 95
8, 7690, Note_on_c, 8, 81, 95
8, 8040, Note_off_c, 8, 74, 80
8, 8040, Note_off_c, 8, 77, 80
8, 8040, Note_off_c, 8, 81, 80
8, 8160, Note_on_c, 8, 72, 95
8, 8165, Note_on_c, 8, 76, 95
8, 8170, Note_on_c, 8, 81, 95
8, 8400, Note_off_c, 8, 72, 80
8, 8400, Note_off_c, 8, 76, 80
8, 8400, Note_off_c, 8, 81, 80
8, 8400, Note_on_c, 8, 69, 95
8, 8405, Note_on_c, 8, 74, 95
8, 8410, Note_on_c, 8, 77, 95
8, 8415, Note_on_c, 8, 81, 111
8, 8880, Note_off_c, 8, 69, 80
8, 8880, Note_off_c, 8, 74, 80
8, 8880, Note_off_c, 8, 77, 80
8, 8880, Note_off_c, 8, 81, 80
8, 8880, Note_on_c, 8, 52, 127
8, 8880, Note_on_c, 8, 47, 127
8, 8880, Note_on_c, 8, 40, 127
8, 9120, Note_off_c, 8, 52, 80
8, 9120, Note_off_c, 8, 47, 80
8, 9120, Note_off_c, 8, 40, 80
8, 9120, Note_on_c, 8, 55, 127
8, 9120, Note_on_c, 8, 50, 127
8, 9120, Note_on_c, 8, 43, 127
8, 9240, Note_off_c, 8, 55, 80
8, 9240, Note_off_c, 8, 50, 80
8, 9240, Note_off_c, 8, 43, 80
8, 9240, Note_on_c, 8, 40, 127
8, 9360, Note_off_c, 8, 40, 80
8, 9360, Note_on_c, 8, 52, 127
8, 9360, Note_on_c, 8, 47, 127
8, 9360, Note_on_c, 8, 40, 127
8, 9600, Note_off_c, 8, 52, 80
8, 9600, Note_off_c, 8, 47, 80
8, 9600, Note_off_c, 8, 40, 80
8, 9600, Note_on_c, 8, 69, 127
8, 9600, Note_on_c, 8, 64, 127
8, 9600, Note_on_c, 8, 57, 127
8, 9840, Note_on_c, 8, 77, 63
8, 9840, Note_on_c, 8, 72, 63
8, 9840, Note_on_c, 8, 69, 63
8, 10080, Note_off_c, 8, 77, 80
8, 10080, Note_off_c, 8, 72, 80
8, 10080, Note_off_c, 8, 69, 80
8, 10080, Note_on_c, 8, 77, 63
8, 10080, Note_on_c, 8, 72, 63
8, 10080, Note_on_c, 8, 69, 63
8, 10320, Note_off_c, 8, 77, 80
8, 10320, Note_off_c, 8, 72, 80
8, 10320, Note_off_c, 8, 69, 80
8, 10320, Note_on_c, 8, 74, 63
8, 10320, Note_on_c, 8, 69, 63
8, 10320, Note_on_c, 8, 64, 63
8, 10560, Note_off_c, 8, 74, 80
8, 10560, Note_off_c, 8, 69, 80
8, 10560, Note_off_c, 8, 64, 80
8, 10560, Note_on_c, 8, 77, 63
8, 10560, Note_on_c, 8, 72, 63
8, 10560, Note_on_c, 8, 69, 63
8, 10800, Note_off_c, 8, 77, 80
8, 10800, Note_off_c, 8, 72, 80
8, 10800, Note_off_c, 8, 69, 80
8, 10800, Note_on_c, 8, 74, 63
8, 10800, Note_on_c, 8, 69, 63
8, 10800, Note_on_c, 8, 64, 63
8, 11040, Note_off_c, 8, 74, 80
8, 11040, Note_off_c, 8, 69, 80
8, 11040, Note_off_c, 8, 64, 80
8, 11040, Note_on_c, 8, 72, 63
8, 11040, Note_on_c, 8, 69, 63
8, 11040, Note_on_c, 8, 64, 63
8, 11520, Note_off_c, 8, 69, 80
8, 11520, Note_off_c, 8, 64, 80
8, 11520, Note_off_c, 8, 57, 80
8, 11520, Note_off_c, 8, 72, 80
8, 11520, Note_off_c, 8, 69, 80
8, 11520, Note_off_c, 8, 64, 80
8, 12720, Note_on_c, 8, 52, 127
8, 12720, Note_on_c, 8, 47, 127
8, 12720, Note_on_c, 8, 40, 127
8, 12960, Note_off_c, 8, 52, 80
8, 12960, Note_off_c, 8, 47, 80
8, 12960, Note_off_c, 8, 40, 80
8, 12960, Note_on_c, 8, 55, 127
8, 12960, Note_on_c, 8, 50, 127
8, 12960, Note_on_c, 8, 43, 127
8, 13080, Note_off_c, 8, 55, 80
8, 13080, Note_off_c, 8, 50, 80
8, 13080, Note_off_c, 8, 43, 80
8, 13080, Note_on_c, 8, 40, 127
8, 13200, Note_off_c, 8, 40, 80
8, 13200, Note_on_c, 8, 52, 127
8, 13200, Note_on_c, 8, 47, 127
8, 13200, Note_on_c, 8, 43, 127
8, 13440, Note_off_c, 8, 52, 80
8, 13440, Note_off_c, 8, 47, 80
8, 13440, Note_off_c, 8, 43, 80
8, 13440, Note_on_c, 8, 69, 127
8, 13440, Note_on_c, 8, 64, 127
8, 13440, Note_on_c, 8, 57, 127
8, 13680, Note_on_c, 8, 77, 63
8, 13680, Note_on_c, 8, 72, 63
8, 13680, Note_on_c, 8, 69, 63
8, 13920, Note_off_c, 8, 77, 80
8, 13920, Note_off_c, 8, 72, 80
8, 13920, Note_off_c, 8, 69, 80
8, 13920, Note_on_c, 8, 77, 63
8, 13920, Note_on_c, 8, 72, 63
8, 13920, Note_on_c, 8, 69, 63
8, 14160, Note_off_c, 8, 77, 80
8, 14160, Note_off_c, 8, 72, 80
8, 14160, Note_off_c, 8, 69, 80
8, 14160, Note_on_c, 8, 74, 63
8, 14160, Note_on_c, 8, 69, 63
8, 14160, Note_on_c, 8, 64, 63
8, 14400, Note_off_c, 8, 74, 80
8, 14400, Note_off_c, 8, 69, 80
8, 14400, Note_off_c, 8, 64, 80
8, 14400, Note_on_c, 8, 77, 63
8, 14400, Note_on_c, 8, 72, 63
8, 14400, Note_on_c, 8, 69, 63
8, 14640, Note_off_c, 8, 77, 80
8, 14640, Note_off_c, 8, 72, 80
8, 14640, Note_off_c, 8, 69, 80
8, 14640, Note_on_c, 8, 74, 63
8, 14640, Note_on_c, 8, 69, 63
8, 14640, Note_on_c, 8, 64, 63
8, 14880, Note_off_c, 8, 74, 80
8, 14880, Note_off_c, 8, 69, 80
8, 14880, Note_off_c, 8, 64, 80
8, 14880, Note_on_c, 8, 72, 63
8, 14880, Note_on_c, 8, 69, 63
8, 14880, Note_on_c, 8, 64, 63
8, 15360, Note_off_c, 8, 69, 80
8, 15360, Note_off_c, 8, 64, 80
8, 15360, Note_off_c, 8, 57, 80
8, 15360, Note_off_c, 8, 72, 80
8, 15360, Note_off_c, 8, 69, 80
8, 15360, Note_off_c, 8, 64, 80
8, 16560, Note_on_c, 8, 52, 127
8, 16560, Note_on_c, 8, 47, 127
8, 16560, Note_on_c, 8, 40, 127
8, 16800, Note_off_c, 8, 52, 80
8, 16800, Note_off_c, 8, 47, 80
8, 16800, Note_off_c, 8, 40, 80
8, 16800, Note_on_c, 8, 55, 127
8, 16800, Note_on_c, 8, 50, 127
8, 16800, Note_on_c, 8, 43, 127
8, 16920, Note_off_c, 8, 55, 80
8, 16920, Note_off_c, 8, 50, 80
8, 16920, Note_off_c, 8, 43, 80
8, 16920, Note_on_c, 8, 40, 127
8, 17040, Note_off_c, 8, 40, 80
8, 17040, Note_on_c, 8, 52, 127
8, 17040, Note_on_c, 8, 47, 127
8, 17040, Note_on_c, 8, 43, 127
8, 17280, Note_off_c, 8, 52, 80
8, 17280, Note_off_c, 8, 47, 80
8, 17280, Note_off_c, 8, 43, 80
8, 17280, Note_on_c, 8, 69, 127
8, 17280, Note_on_c, 8, 64, 127
8, 17280, Note_on_c, 8, 57, 127
8, 17520, Note_on_c, 8, 77, 63
8, 17520, Note_on_c, 8, 72, 63
8, 17520, Note_on_c, 8, 69, 63
8, 17760, Note_off_c, 8, 77, 80
8, 17760, Note_off_c, 8, 72, 80
8, 17760, Note_off_c, 8, 69, 80
8, 17760, Note_on_c, 8, 77, 63
8, 17760, Note_on_c, 8, 72, 63
8, 17760, Note_on_c, 8, 69, 63
8, 18000, Note_off_c, 8, 77, 80
8, 18000, Note_off_c, 8, 72, 80
8, 18000, Note_off_c, 8, 69, 80
8, 18000, Note_on_c, 8, 74, 63
8, 18000, Note_on_c, 8, 69, 63
8, 18000, Note_on_c, 8, 64, 63
8, 18240, Note_off_c, 8, 74, 80
8, 18240, Note_off_c, 8, 69, 80
8, 18240, Note_off_c, 8, 64, 80
8, 18240, Note_on_c, 8, 77, 63
8, 18240, Note_on_c, 8, 72, 63
8, 18240, Note_on_c, 8, 69, 63
8, 18480, Note_off_c, 8, 77, 80
8, 18480, Note_off_c, 8, 72, 80
8, 18480, Note_off_c, 8, 69, 80
8, 18480, Note_on_c, 8, 74, 63
8, 18480, Note_on_c, 8, 69, 63
8, 18480, Note_on_c, 8, 64, 63
8, 18720, Note_off_c, 8, 74, 80
8, 18720, Note_off_c, 8, 69, 80
8, 18720, Note_off_c, 8, 64, 80
8, 18720, Note_on_c, 8, 72, 63
8, 18720, Note_on_c, 8, 69, 63
8, 18720, Note_on_c, 8, 64, 63
8, 19200, Note_off_c, 8, 69, 80
8, 19200, Note_off_c, 8, 64, 80
8, 19200, Note_off_c, 8, 57, 80
8, 19200, Note_off_c, 8, 72, 80
8, 19200, Note_off_c, 8, 69, 80
8, 19200, Note_off_c, 8, 64, 80
8, 20400, Note_on_c, 8, 52, 127
8, 20400, Note_on_c, 8, 47, 127
8, 20400, Note_on_c, 8, 40, 127
8, 20640, Note_off_c, 8, 52, 80
8, 20640, Note_off_c, 8, 47, 80
8, 20640, Note_off_c, 8, 40, 80
8, 20640, Note_on_c, 8, 55, 127
8, 20640, Note_on_c, 8, 50, 127
8, 20640, Note_on_c, 8, 43, 127
8, 20760, Note_off_c, 8, 55, 80
8, 20760, Note_off_c, 8, 50, 80
8, 20760, Note_off_c, 8, 43, 80
8, 20760, Note_on_c, 8, 40, 127
8, 20880, Note_off_c, 8, 40, 80
8, 20880, Note_on_c, 8, 52, 127
8, 20880, Note_on_c, 8, 47, 127
8, 20880, Note_on_c, 8, 43, 127
8, 21120, Note_off_c, 8, 52, 80
8, 21120, Note_off_c, 8, 47, 80
8, 21120, Note_off_c, 8, 43, 80
8, 21120, Note_on_c, 8, 69, 127
8, 21120, Note_on_c, 8, 64, 127
8, 21120, Note_on_c, 8, 57, 127
8, 21360, Note_on_c, 8, 77, 63
8, 21360, Note_on_c, 8, 72, 63
8, 21360, Note_on_c, 8, 69, 63
8, 21600, Note_off_c, 8, 77, 80
8, 21600, Note_off_c, 8, 72, 80
8, 21600, Note_off_c, 8, 69, 80
8, 21600, Note_on_c, 8, 77, 63
8, 21600, Note_on_c, 8, 72, 63
8, 21600, Note_on_c, 8, 69, 63
8, 21840, Note_off_c, 8, 77, 80
8, 21840, Note_off_c, 8, 72, 80
8, 21840, Note_off_c, 8, 69, 80
8, 21840, Note_on_c, 8, 74, 63
8, 21840, Note_on_c, 8, 69, 63
8, 21840, Note_on_c, 8, 64, 63
8, 22080, Note_off_c, 8, 74, 80
8, 22080, Note_off_c, 8, 69, 80
8, 22080, Note_off_c, 8, 64, 80
8, 22080, Note_on_c, 8, 77, 63
8, 22080, Note_on_c, 8, 72, 63
8, 22080, Note_on_c, 8, 69, 63
8, 22320, Note_off_c, 8, 77, 80
8, 22320, Note_off_c, 8, 72, 80
8, 22320, Note_off_c, 8, 69, 80
8, 22320, Note_on_c, 8, 74, 63
8, 22320, Note_on_c, 8, 69, 63
8, 22320, Note_on_c, 8, 64, 63
8, 22560, Note_off_c, 8, 74, 80
8, 22560, Note_off_c, 8, 69, 80
8, 22560, Note_off_c, 8, 64, 80
8, 22560, Note_on_c, 8, 72, 63
8, 22560, Note_on_c, 8, 69, 63
8, 22560, Note_on_c, 8, 64, 63
8, 23040, Note_off_c, 8, 69, 80
8, 23040, Note_off_c, 8, 64, 80
8, 23040, Note_off_c, 8, 57, 80
8, 23040, Note_off_c, 8, 72, 80
8, 23040, Note_off_c, 8, 69, 80
8, 23040, Note_off_c, 8, 64, 80
8, 24240, Note_on_c, 8, 52, 127
8, 24240, Note_on_c, 8, 47, 127
8, 24240, Note_on_c, 8, 40, 127
8, 24480, Note_off_c, 8, 52, 80
8, 24480, Note_off_c, 8, 47, 80
8, 24480, Note_off_c, 8, 40, 80
8, 24480, Note_on_c, 8, 55, 127
8, 24480, Note_on_c, 8, 50, 127
8, 24480, Note_on_c, 8, 43, 127
8, 24600, Note_off_c, 8, 55, 80
8, 24600, Note_off_c, 8, 50, 80
8, 24600, Note_off_c, 8, 43, 80
8, 24600, Note_on_c, 8, 40, 127
8, 24720, Note_off_c, 8, 40, 80
8, 24720, Note_on_c, 8, 52, 127
8, 24720, Note_on_c, 8, 47, 127
8, 24720, Note_on_c, 8, 43, 127
8, 24960, Note_off_c, 8, 52, 80
8, 24960, Note_off_c, 8, 47, 80
8, 24960, Note_off_c, 8, 43, 80
8, 24960, Note_on_c, 8, 69, 127
8, 24960, Note_on_c, 8, 64, 127
8, 24960, Note_on_c, 8, 57, 127
8, 26880, Note_off_c, 8, 69, 80
8, 26880, Note_off_c, 8, 64, 80
8, 26880, Note_off_c, 8, 57, 80
8, 28080, Note_on_c, 8, 52, 127
8, 28080, Note_on_c, 8, 47, 127
8, 28080, Note_on_c, 8, 40, 127
8, 28320, Note_off_c, 8, 52, 80
8, 28320, Note_off_c, 8, 47, 80
8, 28320, Note_off_c, 8, 40, 80
8, 28320, Note_on_c, 8, 55, 127
8, 28320, Note_on_c, 8, 50, 127
8, 28320, Note_on_c, 8, 43, 127
8, 28440, Note_off_c, 8, 55, 80
8, 28440, Note_off_c, 8, 50, 80
8, 28440, Note_off_c, 8, 43, 80
8, 28440, Note_on_c, 8, 40, 127
8, 28560, Note_off_c, 8, 40, 80
8, 28560, Note_on_c, 8, 52, 127
8, 28560, Note_on_c, 8, 47, 127
8, 28560, Note_on_c, 8, 43, 127
8, 28800, Note_off_c, 8, 52, 80
8, 28800, Note_off_c, 8, 47, 80
8, 28800, Note_off_c, 8, 43, 80
8, 28800, Note_on_c, 8, 69, 127
8, 28800, Note_on_c, 8, 64, 127
8, 28800, Note_on_c, 8, 57, 127
8, 30720, Note_off_c, 8, 69, 80
8, 30720, Note_off_c, 8, 64, 80
8, 30720, Note_off_c, 8, 57, 80
8, 31920, Note_on_c, 8, 52, 127
8, 31920, Note_on_c, 8, 47, 127
8, 31920, Note_on_c, 8, 40, 127
8, 32160, Note_off_c, 8, 52, 80
8, 32160, Note_off_c, 8, 47, 80
8, 32160, Note_off_c, 8, 40, 80
8, 32160, Note_on_c, 8, 55, 127
8, 32160, Note_on_c, 8, 50, 127
8, 32160, Note_on_c, 8, 43, 127
8, 32280, Note_off_c, 8, 55, 80
8, 32280, Note_off_c, 8, 50, 80
8, 32280, Note_off_c, 8, 43, 80
8, 32280, Note_on_c, 8, 40, 127
8, 32400, Note_off_c, 8, 40, 80
8, 32400, Note_on_c, 8, 52, 127
8, 32400, Note_on_c, 8, 47, 127
8, 32400, Note_on_c, 8, 43, 127
8, 32640, Note_off_c, 8, 52, 80
8, 32640, Note_off_c, 8, 47, 80
8, 32640, Note_off_c, 8, 43, 80
8, 32640, Note_on_c, 8, 69, 127
8, 32640, Note_on_c, 8, 64, 127
8, 32640, Note_on_c, 8, 57, 127
8, 34560, Note_off_c, 8, 69, 80
8, 34560, Note_off_c, 8, 64, 80
8, 34560, Note_off_c, 8, 57, 80
8, 35760, Note_on_c, 8, 52, 127
8, 35760, Note_on_c, 8, 47, 127
8, 35760, Note_on_c, 8, 40, 127
8, 36000, Note_off_c, 8, 52, 80
8, 36000, Note_off_c, 8, 47, 80
8, 36000, Note_off_c, 8, 40, 80
8, 36000, Note_on_c, 8, 55, 127
8, 36000, Note_on_c, 8, 50, 127
8, 36000, Note_on_c, 8, 43, 127
8, 36120, Note_off_c, 8, 55, 80
8, 36120, Note_off_c, 8, 50, 80
8, 36120, Note_off_c, 8, 43, 80
8, 36120, Note_on_c, 8, 40, 127
8, 36240, Note_off_c, 8, 40, 80
8, 36240, Note_on_c, 8, 52, 127
8, 36240, Note_on_c, 8, 47, 127
8, 36240, Note_on_c, 8, 43, 127
8, 36480, Note_off_c, 8, 52, 80
8, 36480, Note_off_c, 8, 47, 80
8, 36480, Note_off_c, 8, 43, 80
8, 36480, Note_on_c, 8, 69, 127
8, 36480, Note_on_c, 8, 64, 127
8, 36480, Note_on_c, 8, 57, 127
8, 38400, Note_off_c, 8, 69, 80
8, 38400, Note_off_c, 8, 64, 80
8, 38400, Note_off_c, 8, 57, 80
8, 54960, Note_on_c, 8, 52, 127
8, 54960, Note_on_c, 8, 47, 127
8, 54960, Note_on_c, 8, 40, 127
8, 55200, Note_off_c, 8, 52, 80
8, 55200, Note_off_c, 8, 47, 80
8, 55200, Note_off_c, 8, 40, 80
8, 55200, Note_on_c, 8, 55, 127
8, 55200, Note_on_c, 8, 50, 127
8, 55200, Note_on_c, 8, 43, 127
8, 55320, Note_off_c, 8, 55, 80
8, 55320, Note_off_c, 8, 50, 80
8, 55320, Note_off_c, 8, 43, 80
8, 55320, Note_on_c, 8, 40, 127
8, 55440, Note_off_c, 8, 40, 80
8, 55440, Note_on_c, 8, 52, 127
8, 55440, Note_on_c, 8, 47, 127
8, 55440, Note_on_c, 8, 43, 127
8, 55680, Note_off_c, 8, 52, 80
8, 55680, Note_off_c, 8, 47, 80
8, 55680, Note_off_c, 8, 43, 80
8, 55680, Note_on_c, 8, 69, 127
8, 55680, Note_on_c, 8, 64, 127
8, 55680, Note_on_c, 8, 57, 127
8, 55920, Note_on_c, 8, 77, 63
8, 55920, Note_on_c, 8, 72, 63
8, 55920, Note_on_c, 8, 69, 63
8, 56160, Note_off_c, 8, 77, 80
8, 56160, Note_off_c, 8, 72, 80
8, 56160, Note_off_c, 8, 69, 80
8, 56160, Note_on_c, 8, 77, 63
8, 56160, Note_on_c, 8, 72, 63
8, 56160, Note_on_c, 8, 69, 63
8, 56400, Note_off_c, 8, 77, 80
8, 56400, Note_off_c, 8, 72, 80
8, 56400, Note_off_c, 8, 69, 80
8, 56400, Note_on_c, 8, 74, 63
8, 56400, Note_on_c, 8, 69, 63
8, 56400, Note_on_c, 8, 64, 63
8, 56640, Note_off_c, 8, 74, 80
8, 56640, Note_off_c, 8, 69, 80
8, 56640, Note_off_c, 8, 64, 80
8, 56640, Note_on_c, 8, 77, 63
8, 56640, Note_on_c, 8, 72, 63
8, 56640, Note_on_c, 8, 69, 63
8, 56880, Note_off_c, 8, 77, 80
8, 56880, Note_off_c, 8, 72, 80
8, 56880, Note_off_c, 8, 69, 80
8, 56880, Note_on_c, 8, 74, 63
8, 56880, Note_on_c, 8, 69, 63
8, 56880, Note_on_c, 8, 64, 63
8, 57120, Note_off_c, 8, 74, 80
8, 57120, Note_off_c, 8, 69, 80
8, 57120, Note_off_c, 8, 64, 80
8, 57120, Note_on_c, 8, 72, 63
8, 57120, Note_on_c, 8, 69, 63
8, 57120, Note_on_c, 8, 64, 63
8, 57600, Note_off_c, 8, 69, 80
8, 57600, Note_off_c, 8, 64, 80
8, 57600, Note_off_c, 8, 57, 80
8, 57600, Note_off_c, 8, 72, 80
8, 57600, Note_off_c, 8, 69, 80
8, 57600, Note_off_c, 8, 64, 80
8, 58800, Note_on_c, 8, 52, 127
8, 58800, Note_on_c, 8, 47, 127
8, 58800, Note_on_c, 8, 40, 127
8, 59040, Note_off_c, 8, 52, 80
8, 59040, Note_off_c, 8, 47, 80
8, 59040, Note_off_c, 8, 40, 80
8, 59040, Note_on_c, 8, 55, 127
8, 59040, Note_on_c, 8, 50, 127
8, 59040, Note_on_c, 8, 43, 127
8, 59160, Note_off_c, 8, 55, 80
8, 59160, Note_off_c, 8, 50, 80
8, 59160, Note_off_c, 8, 43, 80
8, 59160, Note_on_c, 8, 40, 127
8, 59280, Note_off_c, 8, 40, 80
8, 59280, Note_on_c, 8, 52, 127
8, 59280, Note_on_c, 8, 47, 127
8, 59280, Note_on_c, 8, 43, 127
8, 59520, Note_off_c, 8, 52, 80
8, 59520, Note_off_c, 8, 47, 80
8, 59520, Note_off_c, 8, 43, 80
8, 59520, Note_on_c, 8, 69, 127
8, 59520, Note_on_c, 8, 64, 127
8, 59520, Note_on_c, 8, 57, 127
8, 60000, Note_on_c, 8, 64, 79
8, 60000, Note_on_c, 8, 57, 79
8, 60240, Note_on_c, 8, 69, 79
8, 60240, Note_on_c, 8, 64, 79
8, 60480, Note_on_c, 8, 69, 79
8, 60480, Note_on_c, 8, 64, 79
8, 60720, Note_on_c, 8, 69, 79
8, 60720, Note_on_c, 8, 64, 95
8, 60960, Note_off_c, 8, 69, 80
8, 60960, Note_off_c, 8, 64, 80
8, 60960, Note_on_c, 8, 69, 79
8, 60960, Note_on_c, 8, 64, 79
8, 61200, Note_off_c, 8, 69, 80
8, 61200, Note_off_c, 8, 64, 80
8, 61200, Note_on_c, 8, 72, 95
8, 61200, Note_on_c, 8, 67, 95
8, 61200, Note_on_c, 8, 62, 79
8, 61440, Note_off_c, 8, 69, 80
8, 61440, Note_off_c, 8, 64, 80
8, 61440, Note_off_c, 8, 57, 80
8, 61920, Note_off_c, 8, 64, 80
8, 61920, Note_off_c, 8, 57, 80
8, 61920, Note_off_c, 8, 72, 80
8, 61920, Note_off_c, 8, 67, 80
8, 61920, Note_off_c, 8, 62, 80
8, 62160, Note_off_c, 8, 69, 80
8, 62160, Note_off_c, 8, 64, 80
8, 62400, Note_off_c, 8, 69, 80
8, 62400, Note_off_c, 8, 64, 80
8, 62640, Note_on_c, 8, 52, 127
8, 62640, Note_on_c, 8, 47, 127
8, 62640, Note_on_c, 8, 40, 127
8, 62880, Note_off_c, 8, 52, 80
8, 62880, Note_off_c, 8, 47, 80
8, 62880, Note_off_c, 8, 40, 80
8, 62880, Note_on_c, 8, 55, 127
8, 62880, Note_on_c, 8, 50, 127
8, 62880, Note_on_c, 8, 43, 127
8, 63000, Note_off_c, 8, 55, 80
8, 63000, Note_off_c, 8, 50, 80
8, 63000, Note_off_c, 8, 43, 80
8, 63000, Note_on_c, 8, 40, 127
8, 63120, Note_off_c, 8, 40, 80
8, 63120, Note_on_c, 8, 52, 127
8, 63120, Note_on_c, 8, 47, 127
8, 63120, Note_on_c, 8, 43, 127
8, 63360, Note_off_c, 8, 52, 80
8, 63360, Note_off_c, 8, 47, 80
8, 63360, Note_off_c, 8, 43, 80
8, 63360, Note_on_c, 8, 69, 127
8, 63360, Note_on_c, 8, 64, 127
8, 63360, Note_on_c, 8, 57, 127
8, 63600, Note_on_c, 8, 77, 63
8, 63600, Note_on_c, 8, 72, 63
8, 63600, Note_on_c, 8, 69, 63
8, 63840, Note_off_c, 8, 77, 80
8, 63840, Note_off_c, 8, 72, 80
8, 63840, Note_off_c, 8, 69, 80
8, 63840, Note_on_c, 8, 77, 63
8, 63840, Note_on_c, 8, 72, 63
8, 63840, Note_on_c, 8, 69, 63
8, 64080, Note_off_c, 8, 77, 80
8, 64080, Note_off_c, 8, 72, 80
8, 64080, Note_off_c, 8, 69, 80
8, 64080, Note_on_c, 8, 74, 63
8, 64080, Note_on_c, 8, 69, 63
8, 64080, Note_on_c, 8, 64, 63
8, 64320, Note_off_c, 8, 74, 80
8, 64320, Note_off_c, 8, 69, 80
8, 64320, Note_off_c, 8, 64, 80
8, 64320, Note_on_c, 8, 77, 63
8, 64320, Note_on_c, 8, 72, 63
8, 64320, Note_on_c, 8, 69, 63
8, 64560, Note_off_c, 8, 77, 80
8, 64560, Note_off_c, 8, 72, 80
8, 64560, Note_off_c, 8, 69, 80
8, 64560, Note_on_c, 8, 74, 63
8, 64560, Note_on_c, 8, 69, 63
8, 64560, Note_on_c, 8, 64, 63
8, 64800, Note_off_c, 8, 74, 80
8, 64800, Note_off_c, 8, 69, 80
8, 64800, Note_off_c, 8, 64, 80
8, 64800, Note_on_c, 8, 72, 63
8, 64800, Note_on_c, 8, 69, 63
8, 64800, Note_on_c, 8, 64, 63
8, 65280, Note_off_c, 8, 69, 80
8, 65280, Note_off_c, 8, 64, 80
8, 65280, Note_off_c, 8, 57, 80
8, 65280, Note_off_c, 8, 72, 80
8, 65280, Note_off_c, 8, 69, 80
8, 65280, Note_off_c, 8, 64, 80
8, 66480, Note_on_c, 8, 52, 127
8, 66480, Note_on_c, 8, 47, 127
8, 66480, Note_on_c, 8, 40, 127
8, 66720, Note_off_c, 8, 52, 80
8, 66720, Note_off_c, 8, 47, 80
8, 66720, Note_off_c, 8, 40, 80
8, 66720, Note_on_c, 8, 55, 127
8, 66720, Note_on_c, 8, 50, 127
8, 66720, Note_on_c, 8, 43, 127
8, 66840, Note_off_c, 8, 55, 80
8, 66840, Note_off_c, 8, 50, 80
8, 66840, Note_off_c, 8, 43, 80
8, 66840, Note_on_c, 8, 40, 127
8, 66960, Note_off_c, 8, 40, 80
8, 66960, Note_on_c, 8, 52, 127
8, 66960, Note_on_c, 8, 47, 127
8, 66960, Note_on_c, 8, 43, 127
8, 67200, Note_off_c, 8, 52, 80
8, 67200, Note_off_c, 8, 47, 80
8, 67200, Note_off_c, 8, 43, 80
8, 67200, Note_on_c, 8, 69, 127
8, 67200, Note_on_c, 8, 64, 127
8, 67200, Note_on_c, 8, 57, 127
8, 67680, Note_on_c, 8, 64, 79
8, 67680, Note_on_c, 8, 57, 79
8, 67920, Note_on_c, 8, 69, 79
8, 67920, Note_on_c, 8, 64, 79
8, 68160, Note_on_c, 8, 69, 79
8, 68160, Note_on_c, 8, 64, 79
8, 68400, Note_on_c, 8, 69, 79
8, 68400, Note_on_c, 8, 64, 95
8, 68640, Note_off_c, 8, 69, 80
8, 68640, Note_off_c, 8, 64, 80
8, 68640, Note_on_c, 8, 69, 79
8, 68640, Note_on_c, 8, 64, 79
8, 68880, Note_off_c, 8, 69, 80
8, 68880, Note_off_c, 8, 64, 80
8, 68880, Note_on_c, 8, 72, 95
8, 68880, Note_on_c, 8, 67, 95
8, 68880, Note_on_c, 8, 62, 79
8, 69120, Note_off_c, 8, 69, 80
8, 69120, Note_off_c, 8, 64, 80
8, 69120, Note_off_c, 8, 57, 80
8, 69600, Note_off_c, 8, 64, 80
8, 69600, Note_off_c, 8, 57, 80
8, 69600, Note_off_c, 8, 72, 80
8, 69600, Note_off_c, 8, 67, 80
8, 69600, Note_off_c, 8, 62, 80
8, 69840, Note_off_c, 8, 69, 80
8, 69840, Note_off_c, 8, 64, 80
8, 70080, Note_off_c, 8, 69, 80
8, 70080, Note_off_c, 8, 64, 80
8, 70320, Note_on_c, 8, 52, 127
8, 70320, Note_on_c, 8, 47, 127
8, 70320, Note_on_c, 8, 40, 127
8, 70560, Note_off_c, 8, 52, 80
8, 70560, Note_off_c, 8, 47, 80
8, 70560, Note_off_c, 8, 40, 80
8, 70560, Note_on_c, 8, 55, 127
8, 70560, Note_on_c, 8, 50, 127
8, 70560, Note_on_c, 8, 43, 127
8, 70680, Note_off_c, 8, 55, 80
8, 70680, Note_off_c, 8, 50, 80
8, 70680, Note_off_c, 8, 43, 80
8, 70680, Note_on_c, 8, 40, 127
8, 70800, Note_off_c, 8, 40, 80
8, 70800, Note_on_c, 8, 52, 127
8, 70800, Note_on_c, 8, 47, 127
8, 70800, Note_on_c, 8, 43, 127
8, 71040, Note_off_c, 8, 52, 80
8, 71040, Note_off_c, 8, 47, 80
8, 71040, Note_off_c, 8, 43, 80
8, 71040, Note_on_c, 8, 69, 127
8, 71040, Note_on_c, 8, 64, 127
8, 71040, Note_on_c, 8, 57, 127
8, 71520, Note_on_c, 8, 64, 79
8, 71520, Note_on_c, 8, 57, 79
8, 71760, Note_on_c, 8, 69, 79
8, 71760, Note_on_c, 8, 64, 79
8, 72000, Note_on_c, 8, 69, 79
8, 72000, Note_on_c, 8, 64, 79
8, 72240, Note_on_c, 8, 69, 79
8, 72240, Note_on_c, 8, 64, 95
8, 72480, Note_off_c, 8, 69, 80
8, 72480, Note_off_c, 8, 64, 80
8, 72480, Note_on_c, 8, 69, 79
8, 72480, Note_on_c, 8, 64, 79
8, 72720, Note_off_c, 8, 69, 80
8, 72720, Note_off_c, 8, 64, 80
8, 72720, Note_on_c, 8, 72, 95
8, 72720, Note_on_c, 8, 67, 95
8, 72720, Note_on_c, 8, 62, 79
8, 72960, Note_off_c, 8, 69, 80
8, 72960, Note_off_c, 8, 64, 80
8, 72960, Note_off_c, 8, 57, 80
8, 72960, Note_off_c, 8, 72, 80
8, 72960, Note_off_c, 8, 67, 80
8, 72960, Note_off_c, 8, 62, 80
8, 73440, Note_off_c, 8, 64, 80
8, 73440, Note_off_c, 8, 57, 80
8, 73680, Note_off_c, 8, 69, 80
8, 73680, Note_off_c, 8, 64, 80
8, 73920, Note_off_c, 8, 69, 80
8, 73920, Note_off_c, 8, 64, 80
8, 74160, Note_on_c, 8, 52, 127
8, 74160, Note_on_c, 8, 47, 127
8, 74160, Note_on_c, 8, 40, 127
8, 74400, Note_off_c, 8, 52, 80
8, 74400, Note_off_c, 8, 47, 80
8, 74400, Note_off_c, 8, 40, 80
8, 74400, Note_on_c, 8, 55, 127
8, 74400, Note_on_c, 8, 50, 127
8, 74400, Note_on_c, 8, 43, 127
8, 74520, Note_off_c, 8, 55, 80
8, 74520, Note_off_c, 8, 50, 80
8, 74520, Note_off_c, 8, 43, 80
8, 74520, Note_on_c, 8, 40, 127
8, 74640, Note_off_c, 8, 40, 80
8, 74640, Note_on_c, 8, 52, 127
8, 74640, Note_on_c, 8, 47, 127
8, 74640, Note_on_c, 8, 43, 127
8, 74880, Note_off_c, 8, 52, 80
8, 74880, Note_off_c, 8, 47, 80
8, 74880, Note_off_c, 8, 43, 80
8, 74880, Note_on_c, 8, 69, 127
8, 74880, Note_on_c, 8, 64, 127
8, 74880, Note_on_c, 8, 57, 127
8, 75360, Note_on_c, 8, 64, 79
8, 75360, Note_on_c, 8, 57, 79
8, 75600, Note_on_c, 8, 69, 79
8, 75600, Note_on_c, 8, 64, 79
8, 75840, Note_on_c, 8, 69, 79
8, 75840, Note_on_c, 8, 64, 79
8, 76080, Note_on_c, 8, 69, 79
8, 76080, Note_on_c, 8, 64, 95
8, 76320, Note_off_c, 8, 69, 80
8, 76320, Note_off_c, 8, 64, 80
8, 76320, Note_on_c, 8, 69, 79
8, 76320, Note_on_c, 8, 64, 79
8, 76560, Note_off_c, 8, 69, 80
8, 76560, Note_off_c, 8, 64, 80
8, 76560, Note_on_c, 8, 72, 95
8, 76560, Note_on_c, 8, 67, 95
8, 76560, Note_on_c, 8, 62, 79
8, 76800, Note_off_c, 8, 69, 80
8, 76800, Note_off_c, 8, 64, 80
8, 76800, Note_off_c, 8, 57, 80
8, 77280, Note_off_c, 8, 64, 80
8, 77280, Note_off_c, 8, 57, 80
8, 77280, Note_off_c, 8, 72, 80
8, 77280, Note_off_c, 8, 67, 80
8, 77280, Note_off_c, 8, 62, 80
8, 77520, Note_off_c, 8, 69, 80
8, 77520, Note_off_c, 8, 64, 80
8, 77760, Note_off_c, 8, 69, 80
8, 77760, Note_off_c, 8, 64, 80
8, 78000, Note_on_c, 8, 52, 127
8, 78000, Note_on_c, 8, 47, 127
8, 78000, Note_on_c, 8, 40, 127
8, 78240, Note_off_c, 8, 52, 80
8, 78240, Note_off_c, 8, 47, 80
8, 78240, Note_off_c, 8, 40, 80
8, 78240, Note_on_c, 8, 55, 127
8, 78240, Note_on_c, 8, 50, 127
8, 78240, Note_on_c, 8, 43, 127
8, 78360, Note_off_c, 8, 55, 80
8, 78360, Note_off_c, 8, 50, 80
8, 78360, Note_off_c, 8, 43, 80
8, 78360, Note_on_c, 8, 40, 127
8, 78480, Note_off_c, 8, 40, 80
8, 78480, Note_on_c, 8, 52, 127
8, 78480, Note_on_c, 8, 47, 127
8, 78480, Note_on_c, 8, 43, 127
8, 78720, Note_off_c, 8, 52, 80
8, 78720, Note_off_c, 8, 47, 80
8, 78720, Note_off_c, 8, 43, 80
8, 78720, Note_on_c, 8, 69, 127
8, 78720, Note_on_c, 8, 64, 127
8, 78720, Note_on_c, 8, 57, 127
8, 79200, Note_on_c, 8, 64, 79
8, 79200, Note_on_c, 8, 57, 79
8, 79440, Note_on_c, 8, 69, 79
8, 79440, Note_on_c, 8, 64, 79
8, 79680, Note_on_c, 8, 69, 79
8, 79680, Note_on_c, 8, 64, 79
8, 79920, Note_on_c, 8, 69, 79
8, 79920, Note_on_c, 8, 64, 95
8, 80160, Note_off_c, 8, 69, 80
8, 80160, Note_off_c, 8, 64, 80
8, 80160, Note_on_c, 8, 69, 79
8, 80160, Note_on_c, 8, 64, 79
8, 80400, Note_off_c, 8, 69, 80
8, 80400, Note_off_c, 8, 64, 80
8, 80400, Note_on_c, 8, 72, 95
8, 80400, Note_on_c, 8, 67, 95
8, 80400, Note_on_c, 8, 62, 79
8, 80640, Note_off_c, 8, 69, 80
8, 80640, Note_off_c, 8, 64, 80
8, 80640, Note_off_c, 8, 57, 80
8, 80640, Note_off_c, 8, 72, 80
8, 80640, Note_off_c, 8, 67, 80
8, 80640, Note_off_c, 8, 62, 80
8, 81120, Note_off_c, 8, 64, 80
8, 81120, Note_off_c, 8, 57, 80
8, 81360, Note_off_c, 8, 69, 80
8, 81360, Note_off_c, 8, 64, 80
8, 81600, Note_off_c, 8, 69, 80
8, 81600, Note_off_c, 8, 64, 80
8, 81840, Note_on_c, 8, 52, 127
8, 81840, Note_on_c, 8, 47, 127
8, 81840, Note_on_c, 8, 40, 127
8, 82080, Note_off_c, 8, 52, 80
8, 82080, Note_off_c, 8, 47, 80
8, 82080, Note_off_c, 8, 40, 80
8, 82080, Note_on_c, 8, 55, 127
8, 82080, Note_on_c, 8, 50, 127
8, 82080, Note_on_c, 8, 43, 127
8, 82200, Note_off_c, 8, 55, 80
8, 82200, Note_off_c, 8, 50, 80
8, 82200, Note_off_c, 8, 43, 80
8, 82200, Note_on_c, 8, 40, 127
8, 82320, Note_off_c, 8, 40, 80
8, 82320, Note_on_c, 8, 52, 127
8, 82320, Note_on_c, 8, 47, 127
8, 82320, Note_on_c, 8, 43, 127
8, 82560, Note_off_c, 8, 52, 80
8, 82560, Note_off_c, 8, 47, 80
8, 82560, Note_off_c, 8, 43, 80
8, 82560, Note_on_c, 8, 69, 127
8, 82560, Note_on_c, 8, 64, 127
8, 82560, Note_on_c, 8, 57, 127
8, 83040, Note_on_c, 8, 64, 79
8, 83040, Note_on_c, 8, 57, 79
8, 83280, Note_on_c, 8, 69, 79
8, 83280, Note_on_c, 8, 64, 79
8, 83520, Note_on_c, 8, 69, 79
8, 83520, Note_on_c, 8, 64, 79
8, 83760, Note_on_c, 8, 69, 79
8, 83760, Note_on_c, 8, 64, 95
8, 84000, Note_off_c, 8, 69, 80
8, 84000, Note_off_c, 8, 64, 80
8, 84000, Note_on_c, 8, 69, 79
8, 84000, Note_on_c, 8, 64, 79
8, 84240, Note_off_c, 8, 69, 80
8, 84240, Note_off_c, 8, 64, 80
8, 84240, Note_on_c, 8, 72, 95
8, 84240, Note_on_c, 8, 67, 95
8, 84240, Note_on_c, 8, 62, 79
8, 84480, Note_off_c, 8, 69, 80
8, 84480, Note_off_c, 8, 64, 80
8, 84480, Note_off_c, 8, 57, 80
8, 84960, Note_off_c, 8, 64, 80
8, 84960, Note_off_c, 8, 57, 80
8, 84960, Note_off_c, 8, 72, 80
8, 84960, Note_off_c, 8, 67, 80
8, 84960, Note_off_c, 8, 62, 80
8, 85200, Note_off_c, 8, 69, 80
8, 85200, Note_off_c, 8, 64, 80
8, 85440, Note_off_c, 8, 69, 80
8, 85440, Note_off_c, 8, 64, 80
8, 85680, Note_on_c, 8, 52, 127
8, 85680, Note_on_c, 8, 47, 127
8, 85680, Note_on_c, 8, 40, 127
8, 85920, Note_off_c, 8, 52, 80
8, 85920, Note_off_c, 8, 47, 80
8, 85920, Note_off_c, 8, 40, 80
8, 85920, Note_on_c, 8, 55, 127
8, 85920, Note_on_c, 8, 50, 127
8, 85920, Note_on_c, 8, 43, 127
8, 86040, Note_off_c, 8, 55, 80
8, 86040, Note_off_c, 8, 50, 80
8, 86040, Note_off_c, 8, 43, 80
8, 86040, Note_on_c, 8, 40, 127
8, 86160, Note_off_c, 8, 40, 80
8, 86160, Note_on_c, 8, 52, 127
8, 86160, Note_on_c, 8, 47, 127
8, 86160, Note_on_c, 8, 43, 127
8, 86400, Note_off_c, 8, 52, 80
8, 86400, Note_off_c, 8, 47, 80
8, 86400, Note_off_c, 8, 43, 80
8, 101040, Note_on_c, 8, 52, 127
8, 101040, Note_on_c, 8, 47, 127
8, 101040, Note_on_c, 8, 40, 127
8, 101280, Note_off_c, 8, 52, 80
8, 101280, Note_off_c, 8, 47, 80
8, 101280, Note_off_c, 8, 40, 80
8, 101280, Note_on_c, 8, 55, 127
8, 101280, Note_on_c, 8, 50, 127
8, 101280, Note_on_c, 8, 43, 127
8, 101400, Note_off_c, 8, 55, 80
8, 101400, Note_off_c, 8, 50, 80
8, 101400, Note_off_c, 8, 43, 80
8, 101400, Note_on_c, 8, 40, 127
8, 101520, Note_off_c, 8, 40, 80
8, 101520, Note_on_c, 8, 52, 127
8, 101520, Note_on_c, 8, 47, 127
8, 101520, Note_on_c, 8, 43, 127
8, 101640, Note_off_c, 8, 52, 80
8, 101640, Note_off_c, 8, 47, 80
8, 101640, Note_off_c, 8, 43, 80
8, 101760, Note_on_c, 8, 69, 127
8, 101760, Note_on_c, 8, 64, 127
8, 101760, Note_on_c, 8, 57, 127
8, 102000, Note_on_c, 8, 77, 63
8, 102000, Note_on_c, 8, 72, 63
8, 102000, Note_on_c, 8, 69, 63
8, 102240, Note_off_c, 8, 77, 80
8, 102240, Note_off_c, 8, 72, 80
8, 102240, Note_off_c, 8, 69, 80
8, 102240, Note_on_c, 8, 77, 63
8, 102240, Note_on_c, 8, 72, 63
8, 102240, Note_on_c, 8, 69, 63
8, 102480, Note_off_c, 8, 77, 80
8, 102480, Note_off_c, 8, 72, 80
8, 102480, Note_off_c, 8, 69, 80
8, 102480, Note_on_c, 8, 74, 63
8, 102480, Note_on_c, 8, 69, 63
8, 102480, Note_on_c, 8, 64, 63
8, 102720, Note_off_c, 8, 74, 80
8, 102720, Note_off_c, 8, 69, 80
8, 102720, Note_off_c, 8, 64, 80
8, 102720, Note_on_c, 8, 77, 63
8, 102720, Note_on_c, 8, 72, 63
8, 102720, Note_on_c, 8, 69, 63
8, 102960, Note_off_c, 8, 77, 80
8, 102960, Note_off_c, 8, 72, 80
8, 102960, Note_off_c, 8, 69, 80
8, 102960, Note_on_c, 8, 74, 63
8, 102960, Note_on_c, 8, 69, 63
8, 102960, Note_on_c, 8, 64, 63
8, 103200, Note_off_c, 8, 74, 80
8, 103200, Note_off_c, 8, 69, 80
8, 103200, Note_off_c, 8, 64, 80
8, 103200, Note_on_c, 8, 72, 63
8, 103200, Note_on_c, 8, 69, 63
8, 103200, Note_on_c, 8, 64, 63
8, 103680, Note_off_c, 8, 69, 80
8, 103680, Note_off_c, 8, 64, 80
8, 103680, Note_off_c, 8, 57, 80
8, 103680, Note_off_c, 8, 72, 80
8, 103680, Note_off_c, 8, 69, 80
8, 103680, Note_off_c, 8, 64, 80
8, 104880, Note_on_c, 8, 52, 127
8, 104880, Note_on_c, 8, 47, 127
8, 104880, Note_on_c, 8, 40, 127
8, 105120, Note_off_c, 8, 52, 80
8, 105120, Note_off_c, 8, 47, 80
8, 105120, Note_off_c, 8, 40, 80
8, 105120, Note_on_c, 8, 55, 127
8, 105120, Note_on_c, 8, 50, 127
8, 105120, Note_on_c, 8, 43, 127
8, 105240, Note_off_c, 8, 55, 80
8, 105240, Note_off_c, 8, 50, 80
8, 105240, Note_off_c, 8, 43, 80
8, 105240, Note_on_c, 8, 40, 127
8, 105360, Note_off_c, 8, 40, 80
8, 105360, Note_on_c, 8, 52, 127
8, 105360, Note_on_c, 8, 47, 127
8, 105360, Note_on_c, 8, 43, 127
8, 105600, Note_off_c, 8, 52, 80
8, 105600, Note_off_c, 8, 47, 80
8, 105600, Note_off_c, 8, 43, 80
8, 105600, Note_on_c, 8, 69, 127
8, 105600, Note_on_c, 8, 64, 127
8, 105600, Note_on_c, 8, 57, 127
8, 105840, Note_on_c, 8, 77, 63
8, 105840, Note_on_c, 8, 72, 63
8, 105840, Note_on_c, 8, 69, 63
8, 106080, Note_off_c, 8, 77, 80
8, 106080, Note_off_c, 8, 72, 80
8, 106080, Note_off_c, 8, 69, 80
8, 106080, Note_on_c, 8, 77, 63
8, 106080, Note_on_c, 8, 72, 63
8, 106080, Note_on_c, 8, 69, 63
8, 106320, Note_off_c, 8, 77, 80
8, 106320, Note_off_c, 8, 72, 80
8, 106320, Note_off_c, 8, 69, 80
8, 106320, Note_on_c, 8, 74, 63
8, 106320, Note_on_c, 8, 69, 63
8, 106320, Note_on_c, 8, 64, 63
8, 106560, Note_off_c, 8, 74, 80
8, 106560, Note_off_c, 8, 69, 80
8, 106560, Note_off_c, 8, 64, 80
8, 106560, Note_on_c, 8, 77, 63
8, 106560, Note_on_c, 8, 72, 63
8, 106560, Note_on_c, 8, 69, 63
8, 106800, Note_off_c, 8, 77, 80
8, 106800, Note_off_c, 8, 72, 80
8, 106800, Note_off_c, 8, 69, 80
8, 106800, Note_on_c, 8, 74, 63
8, 106800, Note_on_c, 8, 69, 63
8, 106800, Note_on_c, 8, 64, 63
8, 107040, Note_off_c, 8, 74, 80
8, 107040, Note_off_c, 8, 69, 80
8, 107040, Note_off_c, 8, 64, 80
8, 107040, Note_on_c, 8, 72, 63
8, 107040, Note_on_c, 8, 69, 63
8, 107040, Note_on_c, 8, 64, 63
8, 107520, Note_off_c, 8, 69, 80
8, 107520, Note_off_c, 8, 64, 80
8, 107520, Note_off_c, 8, 57, 80
8, 107520, Note_off_c, 8, 72, 80
8, 107520, Note_off_c, 8, 69, 80
8, 107520, Note_off_c, 8, 64, 80
8, 108720, Note_on_c, 8, 52, 127
8, 108720, Note_on_c, 8, 47, 127
8, 108720, Note_on_c, 8, 40, 127
8, 108960, Note_off_c, 8, 52, 80
8, 108960, Note_off_c, 8, 47, 80
8, 108960, Note_off_c, 8, 40, 80
8, 108960, Note_on_c, 8, 55, 127
8, 108960, Note_on_c, 8, 50, 127
8, 108960, Note_on_c, 8, 43, 127
8, 109080, Note_off_c, 8, 55, 80
8, 109080, Note_off_c, 8, 50, 80
8, 109080, Note_off_c, 8, 43, 80
8, 109080, Note_on_c, 8, 40, 127
8, 109200, Note_off_c, 8, 40, 80
8, 109200, Note_on_c, 8, 52, 127
8, 109200, Note_on_c, 8, 47, 127
8, 109200, Note_on_c, 8, 43, 127
8, 109440, Note_off_c, 8, 52, 80
8, 109440, Note_off_c, 8, 47, 80
8, 109440, Note_off_c, 8, 43, 80
8, 109440, Note_on_c, 8, 69, 127
8, 109440, Note_on_c, 8, 64, 127
8, 109440, Note_on_c, 8, 57, 127
8, 109680, Note_on_c, 8, 77, 63
8, 109680, Note_on_c, 8, 72, 63
8, 109680, Note_on_c, 8, 69, 63
8, 109920, Note_off_c, 8, 77, 80
8, 109920, Note_off_c, 8, 72, 80
8, 109920, Note_off_c, 8, 69, 80
8, 109920, Note_on_c, 8, 77, 63
8, 109920, Note_on_c, 8, 72, 63
8, 109920, Note_on_c, 8, 69, 63
8, 110160, Note_off_c, 8, 77, 80
8, 110160, Note_off_c, 8, 72, 80
8, 110160, Note_off_c, 8, 69, 80
8, 110160, Note_on_c, 8, 74, 63
8, 110160, Note_on_c, 8, 69, 63
8, 110160, Note_on_c, 8, 64, 63
8, 110400, Note_off_c, 8, 74, 80
8, 110400, Note_off_c, 8, 69, 80
8, 110400, Note_off_c, 8, 64, 80
8, 110400, Note_on_c, 8, 77, 63
8, 110400, Note_on_c, 8, 72, 63
8, 110400, Note_on_c, 8, 69, 63
8, 110640, Note_off_c, 8, 77, 80
8, 110640, Note_off_c, 8, 72, 80
8, 110640, Note_off_c, 8, 69, 80
8, 110640, Note_on_c, 8, 74, 63
8, 110640, Note_on_c, 8, 69, 63
8, 110640, Note_on_c, 8, 64, 63
8, 110880, Note_off_c, 8, 74, 80
8, 110880, Note_off_c, 8, 69, 80
8, 110880, Note_off_c, 8, 64, 80
8, 110880, Note_on_c, 8, 72, 63
8, 110880, Note_on_c, 8, 69, 63
8, 110880, Note_on_c, 8, 64, 63
8, 111360, Note_off_c, 8, 69, 80
8, 111360, Note_off_c, 8, 64, 80
8, 111360, Note_off_c, 8, 57, 80
8, 111360, Note_off_c, 8, 72, 80
8, 111360, Note_off_c, 8, 69, 80
8, 111360, Note_off_c, 8, 64, 80
8, 112560, Note_on_c, 8, 52, 127
8, 112560, Note_on_c, 8, 47, 127
8, 112560, Note_on_c, 8, 40, 127
8, 112800, Note_off_c, 8, 52, 80
8, 112800, Note_off_c, 8, 47, 80
8, 112800, Note_off_c, 8, 40, 80
8, 112800, Note_on_c, 8, 55, 127
8, 112800, Note_on_c, 8, 50, 127
8, 112800, Note_on_c, 8, 43, 127
8, 112920, Note_off_c, 8, 55, 80
8, 112920, Note_off_c, 8, 50, 80
8, 112920, Note_off_c, 8, 43, 80
8, 112920, Note_on_c, 8, 40, 127
8, 113040, Note_off_c, 8, 40, 80
8, 113040, Note_on_c, 8, 52, 127
8, 113040, Note_on_c, 8, 47, 127
8, 113040, Note_on_c, 8, 43, 127
8, 113280, Note_off_c, 8, 52, 80
8, 113280, Note_off_c, 8, 47, 80
8, 113280, Note_off_c, 8, 43, 80
8, 113280, Note_on_c, 8, 69, 127
8, 113280, Note_on_c, 8, 64, 127
8, 113280, Note_on_c, 8, 57, 127
8, 113520, Note_on_c, 8, 77, 63
8, 113520, Note_on_c, 8, 72, 63
8, 113520, Note_on_c, 8, 69, 63
8, 113760, Note_off_c, 8, 77, 80
8, 113760, Note_off_c, 8, 72, 80
8, 113760, Note_off_c, 8, 69, 80
8, 113760, Note_on_c, 8, 77, 63
8, 113760, Note_on_c, 8, 72, 63
8, 113760, Note_on_c, 8, 69, 63
8, 114000, Note_off_c, 8, 77, 80
8, 114000, Note_off_c, 8, 72, 80
8, 114000, Note_off_c, 8, 69, 80
8, 114000, Note_on_c, 8, 74, 63
8, 114000, Note_on_c, 8, 69, 63
8, 114000, Note_on_c, 8, 64, 63
8, 114240, Note_off_c, 8, 74, 80
8, 114240, Note_off_c, 8, 69, 80
8, 114240, Note_off_c, 8, 64, 80
8, 114240, Note_on_c, 8, 77, 63
8, 114240, Note_on_c, 8, 72, 63
8, 114240, Note_on_c, 8, 69, 63
8, 114480, Note_off_c, 8, 77, 80
8, 114480, Note_off_c, 8, 72, 80
8, 114480, Note_off_c, 8, 69, 80
8, 114480, Note_on_c, 8, 74, 63
8, 114480, Note_on_c, 8, 69, 63
8, 114480, Note_on_c, 8, 64, 63
8, 114720, Note_off_c, 8, 74, 80
8, 114720, Note_off_c, 8, 69, 80
8, 114720, Note_off_c, 8, 64, 80
8, 114720, Note_on_c, 8, 72, 63
8, 114720, Note_on_c, 8, 69, 63
8, 114720, Note_on_c, 8, 64, 63
8, 115200, Note_off_c, 8, 69, 80
8, 115200, Note_off_c, 8, 64, 80
8, 115200, Note_off_c, 8, 57, 80
8, 115200, Note_off_c, 8, 72, 80
8, 115200, Note_off_c, 8, 69, 80
8, 115200, Note_off_c, 8, 64, 80
8, 116400, Note_on_c, 8, 52, 127
8, 116400, Note_on_c, 8, 47, 127
8, 116400, Note_on_c, 8, 40, 127
8, 116640, Note_off_c, 8, 52, 80
8, 116640, Note_off_c, 8, 47, 80
8, 116640, Note_off_c, 8, 40, 80
8, 116640, Note_on_c, 8, 55, 127
8, 116640, Note_on_c, 8, 50, 127
8, 116640, Note_on_c, 8, 43, 127
8, 116760, Note_off_c, 8, 55, 80
8, 116760, Note_off_c, 8, 50, 80
8, 116760, Note_off_c, 8, 43, 80
8, 116760, Note_on_c, 8, 40, 127
8, 116880, Note_off_c, 8, 40, 80
8, 116880, Note_on_c, 8, 52, 127
8, 116880, Note_on_c, 8, 47, 127
8, 116880, Note_on_c, 8, 43, 127
8, 117120, Note_off_c, 8, 52, 80
8, 117120, Note_off_c, 8, 47, 80
8, 117120, Note_off_c, 8, 43, 80
8, 117120, Note_on_c, 8, 69, 127
8, 117120, Note_on_c, 8, 64, 127
8, 117120, Note_on_c, 8, 57, 127
8, 119040, Note_off_c, 8, 69, 80
8, 119040, Note_off_c, 8, 64, 80
8, 119040, Note_off_c, 8, 57, 80
8, 120240, Note_on_c, 8, 52, 127
8, 120240, Note_on_c, 8, 47, 127
8, 120240, Note_on_c, 8, 40, 127
8, 120480, Note_off_c, 8, 52, 80
8, 120480, Note_off_c, 8, 47, 80
8, 120480, Note_off_c, 8, 40, 80
8, 120480, Note_on_c, 8, 55, 127
8, 120480, Note_on_c, 8, 50, 127
8, 120480, Note_on_c, 8, 43, 127
8, 120600, Note_off_c, 8, 55, 80
8, 120600, Note_off_c, 8, 50, 80
8, 120600, Note_off_c, 8, 43, 80
8, 120600, Note_on_c, 8, 40, 127
8, 120720, Note_off_c, 8, 40, 80
8, 120720, Note_on_c, 8, 52, 127
8, 120720, Note_on_c, 8, 47, 127
8, 120720, Note_on_c, 8, 43, 127
8, 120960, Note_off_c, 8, 52, 80
8, 120960, Note_off_c, 8, 47, 80
8, 120960, Note_off_c, 8, 43, 80
8, 120960, Note_on_c, 8, 69, 127
8, 120960, Note_on_c, 8, 64, 127
8, 120960, Note_on_c, 8, 57, 127
8, 122880, Note_off_c, 8, 69, 80
8, 122880, Note_off_c, 8, 64, 80
8, 122880, Note_off_c, 8, 57, 80
8, 124080, Note_on_c, 8, 52, 127
8, 124080, Note_on_c, 8, 47, 127
8, 124080, Note_on_c, 8, 40, 127
8, 124320, Note_off_c, 8, 52, 80
8, 124320, Note_off_c, 8, 47, 80
8, 124320, Note_off_c, 8, 40, 80
8, 124320, Note_on_c, 8, 55, 127
8, 124320, Note_on_c, 8, 50, 127
8, 124320, Note_on_c, 8, 43, 127
8, 124440, Note_off_c, 8, 55, 80
8, 124440, Note_off_c, 8, 50, 80
8, 124440, Note_off_c, 8, 43, 80
8, 124440, Note_on_c, 8, 40, 127
8, 124560, Note_off_c, 8, 40, 80
8, 124560, Note_on_c, 8, 52, 127
8, 124560, Note_on_c, 8, 47, 127
8, 124560, Note_on_c, 8, 43, 127
8, 124800, Note_off_c, 8, 52, 80
8, 124800, Note_off_c, 8, 47, 80
8, 124800, Note_off_c, 8, 43, 80
8, 124800, Note_on_c, 8, 69, 127
8, 124800, Note_on_c, 8, 64, 127
8, 124800, Note_on_c, 8, 57, 127
8, 126720, Note_off_c, 8, 69, 80
8, 126720, Note_off_c, 8, 64, 80
8, 126720, Note_off_c, 8, 57, 80
8, 127920, Note_on_c, 8, 52, 127
8, 127920, Note_on_c, 8, 47, 127
8, 127920, Note_on_c, 8, 40, 127
8, 128160, Note_off_c, 8, 52, 80
8, 128160, Note_off_c, 8, 47, 80
8, 128160, Note_off_c, 8, 40, 80
8, 128160, Note_on_c, 8, 55, 127
8, 128160, Note_on_c, 8, 50, 127
8, 128160, Note_on_c, 8, 43, 127
8, 128280, Note_off_c, 8, 55, 80
8, 128280, Note_off_c, 8, 50, 80
8, 128280, Note_off_c, 8, 43, 80
8, 128280, Note_on_c, 8, 40, 127
8, 128400, Note_off_c, 8, 40, 80
8, 128400, Note_on_c, 8, 52, 127
8, 128400, Note_on_c, 8, 47, 127
8, 128400, Note_on_c, 8, 43, 127
8, 128640, Note_off_c, 8, 52, 80
8, 128640, Note_off_c, 8, 47, 80
8, 128640, Note_off_c, 8, 43, 80
8, 128640, Note_on_c, 8, 69, 127
8, 128640, Note_on_c, 8, 64, 127
8, 128640, Note_on_c, 8, 57, 127
8, 130560, Note_off_c, 8, 69, 80
8, 130560, Note_off_c, 8, 64, 80
8, 130560, Note_off_c, 8, 57, 80
8, 131760, Note_on_c, 8, 52, 127
8, 131760, Note_on_c, 8, 47, 127
8, 131760, Note_on_c, 8, 40, 127
8, 132000, Note_off_c, 8, 52, 80
8, 132000, Note_off_c, 8, 47, 80
8, 132000, Note_off_c, 8, 40, 80
8, 132000, Note_on_c, 8, 55, 127
8, 132000, Note_on_c, 8, 50, 127
8, 132000, Note_on_c, 8, 43, 127
8, 132120, Note_off_c, 8, 55, 80
8, 132120, Note_off_c, 8, 50, 80
8, 132120, Note_off_c, 8, 43, 80
8, 132120, Note_on_c, 8, 40, 127
8, 132240, Note_off_c, 8, 40, 80
8, 132240, Note_on_c, 8, 52, 127
8, 132240, Note_on_c, 8, 47, 127
8, 132240, Note_on_c, 8, 43, 127
8, 132480, Note_off_c, 8, 52, 80
8, 132480, Note_off_c, 8, 47, 80
8, 132480, Note_off_c, 8, 43, 80
8, 132480, Note_on_c, 8, 69, 127
8, 132480, Note_on_c, 8, 64, 127
8, 132480, Note_on_c, 8, 57, 127
8, 134400, Note_off_c, 8, 69, 80
8, 134400, Note_off_c, 8, 64, 80
8, 134400, Note_off_c, 8, 57, 80
8, 135600, Note_on_c, 8, 52, 127
8, 135600, Note_on_c, 8, 47, 127
8, 135600, Note_on_c, 8, 40, 127
8, 135840, Note_off_c, 8, 52, 80
8, 135840, Note_off_c, 8, 47, 80
8, 135840, Note_off_c, 8, 40, 80
8, 135840, Note_on_c, 8, 55, 127
8, 135840, Note_on_c, 8, 50, 127
8, 135840, Note_on_c, 8, 43, 127
8, 135960, Note_off_c, 8, 55, 80
8, 135960, Note_off_c, 8, 50, 80
8, 135960, Note_off_c, 8, 43, 80
8, 135960, Note_on_c, 8, 40, 127
8, 136080, Note_off_c, 8, 40, 80
8, 136080, Note_on_c, 8, 52, 127
8, 136080, Note_on_c, 8, 47, 127
8, 136080, Note_on_c, 8, 43, 127
8, 136320, Note_off_c, 8, 52, 80
8, 136320, Note_off_c, 8, 47, 80
8, 136320, Note_off_c, 8, 43, 80
8, 136320, Note_on_c, 8, 69, 127
8, 136320, Note_on_c, 8, 64, 127
8, 136320, Note_on_c, 8, 57, 127
8, 138240, Note_off_c, 8, 69, 80
8, 138240, Note_off_c, 8, 64, 80
8, 138240, Note_off_c, 8, 57, 80
8, 139440, Note_on_c, 8, 52, 127
8, 139440, Note_on_c, 8, 47, 127
8, 139440, Note_on_c, 8, 40, 127
8, 139680, Note_off_c, 8, 52, 80
8, 139680, Note_off_c, 8, 47, 80
8, 139680, Note_off_c, 8, 40, 80
8, 139680, Note_on_c, 8, 55, 127
8, 139680, Note_on_c, 8, 50, 127
8, 139680, Note_on_c, 8, 43, 127
8, 139800, Note_off_c, 8, 55, 80
8, 139800, Note_off_c, 8, 50, 80
8, 139800, Note_off_c, 8, 43, 80
8, 139800, Note_on_c, 8, 40, 127
8, 139920, Note_off_c, 8, 40, 80
8, 139920, Note_on_c, 8, 52, 127
8, 139920, Note_on_c, 8, 47, 127
8, 139920, Note_on_c, 8, 43, 127
8, 140160, Note_off_c, 8, 52, 80
8, 140160, Note_off_c, 8, 47, 80
8, 140160, Note_off_c, 8, 43, 80
8, 140160, Note_on_c, 8, 69, 127
8, 140160, Note_on_c, 8, 64, 127
8, 140160, Note_on_c, 8, 57, 127
8, 142080, Note_off_c, 8, 69, 80
8, 142080, Note_off_c, 8, 64, 80
8, 142080, Note_off_c, 8, 57, 80
8, 144240, Note_on_c, 8, 79, 95
8, 144240, Note_on_c, 8, 74, 95
8, 144240, Note_on_c, 8, 71, 95
8, 144240, Note_on_c, 8, 67, 95
8, 144480, Note_off_c, 8, 79, 80
8, 144480, Note_off_c, 8, 74, 80
8, 144480, Note_off_c, 8, 71, 80
8, 144480, Note_off_c, 8, 67, 80
8, 144720, Note_on_c, 8, 74, 95
8, 144720, Note_on_c, 8, 71, 95
8, 144720, Note_on_c, 8, 67, 95
8, 144960, Note_off_c, 8, 74, 80
8, 144960, Note_off_c, 8, 71, 80
8, 144960, Note_off_c, 8, 67, 80
8, 145200, Note_on_c, 8, 74, 95
8, 145200, Note_on_c, 8, 71, 95
8, 145200, Note_on_c, 8, 67, 95
8, 145440, Note_off_c, 8, 74, 80
8, 145440, Note_off_c, 8, 71, 80
8, 145440, Note_off_c, 8, 67, 80
8, 145680, Note_on_c, 8, 74, 95
8, 145680, Note_on_c, 8, 71, 95
8, 145680, Note_on_c, 8, 67, 95
8, 145920, Note_off_c, 8, 74, 80
8, 145920, Note_off_c, 8, 71, 80
8, 145920, Note_off_c, 8, 67, 80
8, 146160, Note_on_c, 8, 74, 95
8, 146160, Note_on_c, 8, 71, 95
8, 146160, Note_on_c, 8, 67, 95
8, 146400, Note_off_c, 8, 74, 80
8, 146400, Note_off_c, 8, 71, 80
8, 146400, Note_off_c, 8, 67, 80
8, 146640, Note_on_c, 8, 74, 95
8, 146640, Note_on_c, 8, 71, 95
8, 146640, Note_on_c, 8, 67, 95
8, 146880, Note_off_c, 8, 74, 80
8, 146880, Note_off_c, 8, 71, 80
8, 146880, Note_off_c, 8, 67, 80
8, 147120, Note_on_c, 8, 74, 95
8, 147120, Note_on_c, 8, 71, 95
8, 147120, Note_on_c, 8, 67, 95
8, 147360, Note_off_c, 8, 74, 80
8, 147360, Note_off_c, 8, 71, 80
8, 147360, Note_off_c, 8, 67, 80
8, 147360, Note_on_c, 8, 74, 95
8, 147360, Note_on_c, 8, 71, 95
8, 147360, Note_on_c, 8, 67, 95
8, 147600, Note_off_c, 8, 74, 80
8, 147600, Note_off_c, 8, 71, 80
8, 147600, Note_off_c, 8, 67, 80
8, 147600, Note_on_c, 8, 74, 95
8, 147600, Note_on_c, 8, 71, 95
8, 147600, Note_on_c, 8, 67, 95
8, 147840, Note_off_c, 8, 74, 80
8, 147840, Note_off_c, 8, 71, 80
8, 147840, Note_off_c, 8, 67, 80
8, 148080, Control_c, 8, 7, 118
8, 148080, Control_c, 10, 7, 118
8, 148080, Note_on_c, 8, 74, 95
8, 148080, Note_on_c, 8, 71, 95
8, 148080, Note_on_c, 8, 67, 95
8, 148200, Control_c, 8, 7, 116
8, 148200, Control_c, 10, 7, 116
8, 148320, Control_c, 8, 7, 114
8, 148320, Control_c, 10, 7, 114
8, 148320, Note_off_c, 8, 74, 80
8, 148320, Note_off_c, 8, 71, 80
8, 148320, Note_off_c, 8, 67, 80
8, 148320, Note_on_c, 8, 76, 95
8, 148320, Note_on_c, 8, 69, 95
8, 148320, Note_on_c, 8, 65, 95
8, 148440, Control_c, 8, 7, 112
8, 148440, Control_c, 10, 7, 112
8, 148560, Control_c, 8, 7, 110
8, 148560, Control_c, 10, 7, 110
8, 148560, Note_off_c, 8, 76, 80
8, 148560, Note_off_c, 8, 69, 80
8, 148560, Note_off_c, 8, 65, 80
8, 148560, Note_on_c, 8, 77, 95
8, 148560, Note_on_c, 8, 72, 95
8, 148560, Note_on_c, 8, 69, 95
8, 148680, Control_c, 8, 7, 108
8, 148680, Control_c, 10, 7, 108
8, 148800, Control_c, 8, 7, 106
8, 148800, Control_c, 10, 7, 106
8, 148800, Note_off_c, 8, 77, 80
8, 148800, Note_off_c, 8, 72, 80
8, 148800, Note_off_c, 8, 69, 80
8, 148920, Control_c, 8, 7, 104
8, 148920, Control_c, 10, 7, 104
8, 149040, Control_c, 8, 7, 102
8, 149040, Control_c, 10, 7, 102
8, 149040, Note_on_c, 8, 74, 95
8, 149040, Note_on_c, 8, 71, 95
8, 149040, Note_on_c, 8, 67, 95
8, 149160, Control_c, 8, 7, 100
8, 149160, Control_c, 10, 7, 100
8, 149280, Control_c, 8, 7, 98
8, 149280, Control_c, 10, 7, 98
8, 149280, Note_off_c, 8, 74, 80
8, 149280, Note_off_c, 8, 71, 80
8, 149280, Note_off_c, 8, 67, 80
8, 149400, Control_c, 8, 7, 96
8, 149400, Control_c, 10, 7, 96
8, 149520, Control_c, 8, 7, 94
8, 149520, Control_c, 10, 7, 94
8, 149520, Note_on_c, 8, 74, 95
8, 149520, Note_on_c, 8, 71, 95
8, 149520, Note_on_c, 8, 67, 95
8, 149640, Control_c, 8, 7, 92
8, 149640, Control_c, 10, 7, 92
8, 149760, Control_c, 8, 7, 90
8, 149760, Control_c, 10, 7, 90
8, 149760, Note_off_c, 8, 74, 80
8, 149760, Note_off_c, 8, 71, 80
8, 149760, Note_off_c, 8, 67, 80
8, 149880, Control_c, 8, 7, 89
8, 149880, Control_c, 10, 7, 89
8, 150000, Control_c, 8, 7, 87
8, 150000, Control_c, 10, 7, 87
8, 150000, Note_on_c, 8, 74, 95
8, 150000, Note_on_c, 8, 71, 95
8, 150000, Note_on_c, 8, 67, 95
8, 150120, Control_c, 8, 7, 85
8, 150120, Control_c, 10, 7, 85
8, 150240, Control_c, 8, 7, 83
8, 150240, Control_c, 10, 7, 83
8, 150240, Note_off_c, 8, 74, 80
8, 150240, Note_off_c, 8, 71, 80
8, 150240, Note_off_c, 8, 67, 80
8, 150360, Control_c, 8, 7, 81
8, 150360, Control_c, 10, 7, 81
8, 150480, Control_c, 8, 7, 79
8, 150480, Control_c, 10, 7, 79
8, 150480, Note_on_c, 8, 74, 95
8, 150480, Note_on_c, 8, 71, 95
8, 150480, Note_on_c, 8, 67, 95
8, 150600, Control_c, 8, 7, 77
8, 150600, Control_c, 10, 7, 77
8, 150720, Control_c, 8, 7, 75
8, 150720, Control_c, 10, 7, 75
8, 150720, Note_off_c, 8, 74, 80
8, 150720, Note_off_c, 8, 71, 80
8, 150720, Note_off_c, 8, 67, 80
8, 150840, Control_c, 8, 7, 73
8, 150840, Control_c, 10, 7, 73
8, 150960, Control_c, 8, 7, 71
8, 150960, Control_c, 10, 7, 71
8, 150960, Note_on_c, 8, 74, 95
8, 150960, Note_on_c, 8, 71, 95
8, 150960, Note_on_c, 8, 67, 95
8, 151080, Control_c, 8, 7, 69
8, 151080, Control_c, 10, 7, 69
8, 151200, Control_c, 8, 7, 67
8, 151200, Control_c, 10, 7, 67
8, 151200, Note_off_c, 8, 74, 80
8, 151200, Note_off_c, 8, 71, 80
8, 151200, Note_off_c, 8, 67, 80
8, 151320, Control_c, 8, 7, 65
8, 151320, Control_c, 10, 7, 65
8, 151440, Control_c, 8, 7, 63
8, 151440, Control_c, 10, 7, 63
8, 151440, Note_on_c, 8, 74, 95
8, 151440, Note_on_c, 8, 71, 95
8, 151440, Note_on_c, 8, 67, 95
8, 151560, Control_c, 8, 7, 61
8, 151560, Control_c, 10, 7, 61
8, 151680, Control_c, 8, 7, 59
8, 151680, Control_c, 10, 7, 59
8, 151680, Note_off_c, 8, 74, 80
8, 151680, Note_off_c, 8, 71, 80
8, 151680, Note_off_c, 8, 67, 80
8, 151800, Control_c, 8, 7, 57
8, 151800, Control_c, 10, 7, 57
8, 151920, Control_c, 8, 7, 55
8, 151920, Control_c, 10, 7, 55
8, 151920, Note_on_c, 8, 74, 95
8, 151920, Note_on_c, 8, 71, 95
8, 151920, Note_on_c, 8, 67, 95
8, 152040, Control_c, 8, 7, 53
8, 152040, Control_c, 10, 7, 53
8, 152160, Control_c, 8, 7, 51
8, 152160, Control_c, 10, 7, 51
8, 152160, Note_off_c, 8, 74, 80
8, 152160, Note_off_c, 8, 71, 80
8, 152160, Note_off_c, 8, 67, 80
8, 152160, Note_on_c, 8, 76, 95
8, 152160, Note_on_c, 8, 69, 95
8, 152160, Note_on_c, 8, 65, 95
8, 152280, Control_c, 8, 7, 49
8, 152280, Control_c, 10, 7, 49
8, 152400, Control_c, 8, 7, 47
8, 152400, Control_c, 10, 7, 47
8, 152400, Note_off_c, 8, 76, 80
8, 152400, Note_off_c, 8, 69, 80
8, 152400, Note_off_c, 8, 65, 80
8, 152400, Note_on_c, 8, 77, 95
8, 152400, Note_on_c, 8, 72, 95
8, 152400, Note_on_c, 8, 69, 95
8, 152520, Control_c, 8, 7, 45
8, 152520, Control_c, 10, 7, 45
8, 152640, Control_c, 8, 7, 43
8, 152640, Control_c, 10, 7, 43
8, 152640, Note_off_c, 8, 77, 80
8, 152640, Note_off_c, 8, 72, 80
8, 152640, Note_off_c, 8, 69, 80
8, 152760, Control_c, 8, 7, 41
8, 152760, Control_c, 10, 7, 41
8, 152880, Control_c, 8, 7, 39
8, 152880, Control_c, 10, 7, 39
8, 152880, Note_on_c, 8, 74, 95
8, 152880, Note_on_c, 8, 71, 95
8, 152880, Note_on_c, 8, 67, 95
8, 153000, Control_c, 8, 7, 37
8, 153000, Control_c, 10, 7, 37
8, 153120, Control_c, 8, 7, 35
8, 153120, Control_c, 10, 7, 35
8, 153120, Note_off_c, 8, 74, 80
8, 153120, Note_off_c, 8, 71, 80
8, 153120, Note_off_c, 8, 67, 80
8, 153240, Control_c, 8, 7, 33
8, 153240, Control_c, 10, 7, 33
8, 153360, Control_c, 8, 7, 31
8, 153360, Control_c, 10, 7, 31
8, 153360, Note_on_c, 8, 74, 95
8, 153360, Note_on_c, 8, 71, 95
8, 153360, Note_on_c, 8, 67, 95
8, 153480, Control_c, 8, 7, 30
8, 153480, Control_c, 10, 7, 30
8, 153600, Control_c, 8, 7, 28
8, 153600, Control_c, 10, 7, 28
8, 153600, Note_off_c, 8, 74, 80
8, 153600, Note_off_c, 8, 71, 80
8, 153600, Note_off_c, 8, 67, 80
8, 153720, Control_c, 8, 7, 26
8, 153720, Control_c, 10, 7, 26
8, 153840, Control_c, 8, 7, 24
8, 153840, Control_c, 10, 7, 24
8, 153840, Note_on_c, 8, 74, 95
8, 153840, Note_on_c, 8, 71, 95
8, 153840, Note_on_c, 8, 67, 95
8, 153960, Control_c, 8, 7, 22
8, 153960, Control_c, 10, 7, 22
8, 154080, Control_c, 8, 7, 20
8, 154080, Control_c, 10, 7, 20
8, 154080, Note_off_c, 8, 74, 80
8, 154080, Note_off_c, 8, 71, 80
8, 154080, Note_off_c, 8, 67, 80
8, 154200, Control_c, 8, 7, 18
8, 154200, Control_c, 10, 7, 18
8, 154320, Control_c, 8, 7, 16
8, 154320, Control_c, 10, 7, 16
8, 154320, Note_on_c, 8, 74, 95
8, 154320, Note_on_c, 8, 71, 95
8, 154320, Note_on_c, 8, 67, 95
8, 154440, Control_c, 8, 7, 14
8, 154440, Control_c, 10, 7, 14
8, 154560, Control_c, 8, 7, 12
8, 154560, Control_c, 10, 7, 12
8, 154560, Note_off_c, 8, 74, 80
8, 154560, Note_off_c, 8, 71, 80
8, 154560, Note_off_c, 8, 67, 80
8, 154680, Control_c, 8, 7, 10
8, 154680, Control_c, 10, 7, 10
8, 154800, Control_c, 8, 7, 8
8, 154800, Control_c, 10, 7, 8
8, 154800, Note_on_c, 8, 74, 95
8, 154800, Note_on_c, 8, 71, 95
8, 154800, Note_on_c, 8, 67, 95
8, 154920, Control_c, 8, 7, 6
8, 154920, Control_c, 10, 7, 6
8, 155040, Control_c, 8, 7, 4
8, 155040, Control_c, 10, 7, 4
8, 155040, Note_off_c, 8, 74, 80
8, 155040, Note_off_c, 8, 71, 80
8, 155040, Note_off_c, 8, 67, 80
8, 155040, Note_on_c, 8, 74, 95
8, 155040, Note_on_c, 8, 71, 95
8, 155040, Note_on_c, 8, 67, 95
8, 155160, Control_c, 8, 7, 2
8, 155160, Control_c, 10, 7, 2
8, 155280, Control_c, 8, 7, 0
8, 155280, Control_c, 10, 7, 0
8, 155280, Note_off_c, 8, 74, 80
8, 155280, Note_off_c, 8, 71, 80
8, 155280, Note_off_c, 8, 67, 80
8, 155280, Note_on_c, 8, 74, 95
8, 155280, Note_on_c, 8, 71, 95
8, 155280, Note_on_c, 8, 67, 95
8, 155520, Note_off_c, 8, 74, 80
8, 155520, Note_off_c, 8, 71, 80
8, 155520, Note_off_c, 8, 67, 80
8, 155520, End_track
9, 0, Start_track
9, 0, Title_t, "Track 6"
9, 0, Control_c, 2, 100, 0
9, 0, Control_c, 2, 101, 0
9, 0, Control_c, 2, 6, 12
9, 0, Pitch_bend_c, 2, 8192
9, 0, Control_c, 3, 100, 0
9, 0, Control_c, 3, 101, 0
9, 0, Control_c, 3, 6, 12
9, 0, Pitch_bend_c, 3, 8192
9, 0, Program_c, 2, 73
9, 0, Program_c, 3, 73
9, 0, Control_c, 2, 7, 127
9, 0, Control_c, 3, 7, 127
9, 0, Control_c, 2, 10, 112
9, 0, Control_c, 3, 10, 112
9, 0, Control_c, 2, 93, 56
9, 0, Control_c, 3, 93, 56
9, 0, Control_c, 2, 91, 16
9, 0, Control_c, 3, 91, 16
9, 0, Control_c, 2, 92, 0
9, 0, Control_c, 3, 92, 0
9, 0, Control_c, 2, 95, 0
9, 0, Control_c, 3, 95, 0
9, 9840, Note_on_c, 2, 60, 127
9, 10080, Note_off_c, 2, 60, 80
9, 10080, Note_on_c, 2, 60, 127
9, 10440, Note_off_c, 2, 60, 80
9, 10440, Note_on_c, 2, 57, 127
9, 10560, Note_off_c, 2, 57, 80
9, 10560, Note_on_c, 2, 60, 127
9, 10800, Note_off_c, 2, 60, 80
9, 10800, Note_on_c, 2, 57, 127
9, 11040, Note_off_c, 2, 57, 80
9, 11040, Note_on_c, 2, 55, 127
9, 11280, Note_off_c, 2, 55, 80
9, 11280, Note_on_c, 2, 57, 127
9, 11520, Note_off_c, 2, 57, 80
9, 13680, Note_on_c, 2, 60, 127
9, 13920, Note_off_c, 2, 60, 80
9, 13920, Note_on_c, 2, 60, 127
9, 14280, Note_off_c, 2, 60, 80
9, 14280, Note_on_c, 2, 57, 127
9, 14400, Note_off_c, 2, 57, 80
9, 14400, Note_on_c, 2, 60, 127
9, 14640, Note_off_c, 2, 60, 80
9, 14640, Note_on_c, 2, 62, 127
9, 14880, Note_off_c, 2, 62, 80
9, 14880, Note_on_c, 3, 53, 127
9, 14880, Pitch_bend_c, 3, 9856
9, 15056, Pitch_bend_c, 3, 9728
9, 15072, Pitch_bend_c, 3, 9600
9, 15088, Pitch_bend_c, 3, 9344
9, 15104, Pitch_bend_c, 3, 9216
9, 15120, Pitch_bend_c, 3, 9088
9, 15136, Pitch_bend_c, 3, 8832
9, 15152, Pitch_bend_c, 3, 8704
9, 15168, Pitch_bend_c, 3, 8576
9, 15184, Pitch_bend_c, 3, 8320
9, 15200, Pitch_bend_c, 3, 8192
9, 15360, Note_off_c, 3, 53, 80
9, 15360, Pitch_bend_c, 3, 8192
9, 17520, Note_on_c, 2, 60, 127
9, 17760, Note_off_c, 2, 60, 80
9, 17760, Note_on_c, 2, 60, 127
9, 18120, Note_off_c, 2, 60, 80
9, 18120, Note_on_c, 2, 57, 127
9, 18240, Note_off_c, 2, 57, 80
9, 18240, Note_on_c, 2, 60, 127
9, 18360, Note_off_c, 2, 60, 80
9, 18360, Note_on_c, 2, 60, 127
9, 18480, Note_off_c, 2, 60, 80
9, 18480, Note_on_c, 2, 57, 127
9, 18720, Note_off_c, 2, 57, 80
9, 18720, Note_on_c, 2, 55, 127
9, 18960, Note_off_c, 2, 55, 80
9, 18960, Note_on_c, 2, 57, 127
9, 19200, Note_off_c, 2, 57, 80
9, 21360, Note_on_c, 2, 60, 127
9, 21600, Note_off_c, 2, 60, 80
9, 21600, Note_on_c, 2, 60, 127
9, 21960, Note_off_c, 2, 60, 80
9, 21960, Note_on_c, 2, 57, 127
9, 22080, Note_off_c, 2, 57, 80
9, 22080, Note_on_c, 2, 60, 127
9, 22320, Note_off_c, 2, 60, 80
9, 22320, Note_on_c, 2, 62, 127
9, 22560, Note_off_c, 2, 62, 80
9, 22560, Note_on_c, 3, 53, 127
9, 22560, Pitch_bend_c, 3, 9856
9, 22736, Pitch_bend_c, 3, 9728
9, 22752, Pitch_bend_c, 3, 9600
9, 22768, Pitch_bend_c, 3, 9344
9, 22784, Pitch_bend_c, 3, 9216
9, 22800, Pitch_bend_c, 3, 9088
9, 22816, Pitch_bend_c, 3, 8832
9, 22832, Pitch_bend_c, 3, 8704
9, 22848, Pitch_bend_c, 3, 8576
9, 22864, Pitch_bend_c, 3, 8320
9, 22880, Pitch_bend_c, 3, 8192
9, 23040, Note_off_c, 3, 53, 80
9, 23040, Pitch_bend_c, 3, 8192
9, 40320, Note_on_c, 2, 57, 127
9, 41760, Note_off_c, 2, 57, 80
9, 41760, Note_on_c, 2, 60, 127
9, 42000, Note_off_c, 2, 60, 80
9, 42000, Note_on_c, 2, 55, 127
9, 42960, Note_off_c, 2, 55, 80
9, 44160, Note_on_c, 2, 57, 127
9, 45600, Note_off_c, 2, 57, 80
9, 45600, Note_on_c, 2, 60, 127
9, 45840, Note_off_c, 2, 60, 80
9, 45840, Note_on_c, 2, 55, 127
9, 46800, Note_off_c, 2, 55, 80
9, 48000, Note_on_c, 2, 57, 127
9, 49440, Note_off_c, 2, 57, 80
9, 49440, Note_on_c, 2, 60, 127
9, 49680, Note_off_c, 2, 60, 80
9, 49680, Note_on_c, 2, 55, 127
9, 50640, Note_off_c, 2, 55, 80
9, 51840, Note_on_c, 2, 60, 127
9, 53280, Note_off_c, 2, 60, 80
9, 53280, Note_on_c, 2, 62, 127
9, 53520, Note_off_c, 2, 62, 80
9, 53520, Note_on_c, 2, 57, 127
9, 54480, Note_off_c, 2, 57, 80
9, 55920, Note_on_c, 2, 60, 127
9, 56160, Note_off_c, 2, 60, 80
9, 56160, Note_on_c, 2, 60, 127
9, 56520, Note_off_c, 2, 60, 80
9, 56520, Note_on_c, 2, 57, 127
9, 56640, Note_off_c, 2, 57, 80
9, 56640, Note_on_c, 2, 60, 127
9, 56880, Note_off_c, 2, 60, 80
9, 56880, Note_on_c, 2, 57, 127
9, 57120, Note_off_c, 2, 57, 80
9, 57120, Note_on_c, 2, 55, 127
9, 57360, Note_off_c, 2, 55, 80
9, 57360, Note_on_c, 2, 57, 127
9, 57600, Note_off_c, 2, 57, 80
9, 63600, Note_on_c, 2, 60, 127
9, 63840, Note_off_c, 2, 60, 80
9, 63840, Note_on_c, 2, 60, 127
9, 64200, Note_off_c, 2, 60, 80
9, 64200, Note_on_c, 2, 57, 127
9, 64320, Note_off_c, 2, 57, 80
9, 64320, Note_on_c, 2, 60, 127
9, 64560, Note_off_c, 2, 60, 80
9, 64560, Note_on_c, 2, 62, 127
9, 64800, Note_off_c, 2, 62, 80
9, 64800, Note_on_c, 3, 53, 127
9, 64800, Pitch_bend_c, 3, 9856
9, 64976, Pitch_bend_c, 3, 9728
9, 64992, Pitch_bend_c, 3, 9600
9, 65008, Pitch_bend_c, 3, 9344
9, 65024, Pitch_bend_c, 3, 9216
9, 65040, Pitch_bend_c, 3, 9088
9, 65056, Pitch_bend_c, 3, 8832
9, 65072, Pitch_bend_c, 3, 8704
9, 65088, Pitch_bend_c, 3, 8576
9, 65104, Pitch_bend_c, 3, 8320
9, 65120, Pitch_bend_c, 3, 8192
9, 65280, Note_off_c, 3, 53, 80
9, 65280, Pitch_bend_c, 3, 8192
9, 71280, Note_on_c, 2, 60, 127
9, 71520, Note_off_c, 2, 60, 80
9, 71520, Note_on_c, 2, 60, 127
9, 71880, Note_off_c, 2, 60, 80
9, 71880, Note_on_c, 2, 57, 127
9, 72000, Note_off_c, 2, 57, 80
9, 72000, Note_on_c, 2, 60, 127
9, 72120, Note_off_c, 2, 60, 80
9, 72120, Note_on_c, 2, 60, 127
9, 72240, Note_off_c, 2, 60, 80
9, 72240, Note_on_c, 2, 57, 127
9, 72480, Note_off_c, 2, 57, 80
9, 72480, Note_on_c, 2, 55, 127
9, 72720, Note_off_c, 2, 55, 80
9, 72720, Note_on_c, 2, 57, 127
9, 72960, Note_off_c, 2, 57, 80
9, 78960, Note_on_c, 2, 60, 127
9, 79200, Note_off_c, 2, 60, 80
9, 79200, Note_on_c, 2, 60, 127
9, 79560, Note_off_c, 2, 60, 80
9, 79560, Note_on_c, 2, 57, 127
9, 79680, Note_off_c, 2, 57, 80
9, 79680, Note_on_c, 2, 60, 127
9, 79920, Note_off_c, 2, 60, 80
9, 79920, Note_on_c, 2, 62, 127
9, 80160, Note_off_c, 2, 62, 80
9, 80160, Note_on_c, 3, 53, 127
9, 80160, Pitch_bend_c, 3, 9856
9, 80336, Pitch_bend_c, 3, 9728
9, 80352, Pitch_bend_c, 3, 9600
9, 80368, Pitch_bend_c, 3, 9344
9, 80384, Pitch_bend_c, 3, 9216
9, 80400, Pitch_bend_c, 3, 9088
9, 80416, Pitch_bend_c, 3, 8832
9, 80432, Pitch_bend_c, 3, 8704
9, 80448, Pitch_bend_c, 3, 8576
9, 80464, Pitch_bend_c, 3, 8320
9, 80480, Pitch_bend_c, 3, 8192
9, 80640, Note_off_c, 3, 53, 80
9, 80640, Pitch_bend_c, 3, 8192
9, 86400, Note_on_c, 2, 57, 127
9, 87840, Note_off_c, 2, 57, 80
9, 87840, Note_on_c, 2, 60, 127
9, 88080, Note_off_c, 2, 60, 80
9, 88080, Note_on_c, 2, 55, 127
9, 89040, Note_off_c, 2, 55, 80
9, 90240, Note_on_c, 2, 57, 127
9, 91680, Note_off_c, 2, 57, 80
9, 91680, Note_on_c, 2, 60, 127
9, 91920, Note_off_c, 2, 60, 80
9, 91920, Note_on_c, 2, 55, 127
9, 92880, Note_off_c, 2, 55, 80
9, 94080, Note_on_c, 2, 57, 127
9, 95520, Note_off_c, 2, 57, 80
9, 95520, Note_on_c, 2, 60, 127
9, 95760, Note_off_c, 2, 60, 80
9, 95760, Note_on_c, 2, 55, 127
9, 96720, Note_off_c, 2, 55, 80
9, 97920, Note_on_c, 2, 60, 127
9, 99360, Note_off_c, 2, 60, 80
9, 99360, Note_on_c, 2, 62, 127
9, 99600, Note_off_c, 2, 62, 80
9, 99600, Note_on_c, 2, 57, 127
9, 100560, Note_off_c, 2, 57, 80
9, 101760, Control_c, 2, 10, 40
9, 101760, Control_c, 3, 10, 40
9, 102000, Note_on_c, 2, 65, 111
9, 102000, Note_on_c, 2, 60, 95
9, 102240, Note_off_c, 2, 65, 80
9, 102240, Note_off_c, 2, 60, 80
9, 102240, Note_on_c, 2, 65, 111
9, 102240, Note_on_c, 2, 60, 95
9, 102600, Note_off_c, 2, 65, 80
9, 102600, Note_off_c, 2, 60, 80
9, 102600, Note_on_c, 2, 62, 95
9, 102600, Note_on_c, 2, 57, 127
9, 102720, Note_off_c, 2, 62, 80
9, 102720, Note_off_c, 2, 57, 80
9, 102720, Note_on_c, 2, 65, 111
9, 102720, Note_on_c, 2, 60, 95
9, 102960, Note_off_c, 2, 65, 80
9, 102960, Note_off_c, 2, 60, 80
9, 102960, Note_on_c, 2, 62, 111
9, 102960, Note_on_c, 2, 57, 127
9, 103200, Note_off_c, 2, 62, 80
9, 103200, Note_off_c, 2, 57, 80
9, 103200, Note_on_c, 2, 60, 95
9, 103200, Note_on_c, 2, 55, 127
9, 103680, Note_off_c, 2, 60, 80
9, 103680, Note_off_c, 2, 55, 80
9, 103680, Note_on_c, 2, 62, 95
9, 103680, Note_on_c, 2, 57, 127
9, 104400, Note_off_c, 2, 62, 80
9, 104400, Note_off_c, 2, 57, 80
9, 148080, Control_c, 2, 7, 126
9, 148080, Control_c, 3, 7, 126
9, 148200, Control_c, 2, 7, 124
9, 148200, Control_c, 3, 7, 124
9, 148320, Control_c, 2, 7, 122
9, 148320, Control_c, 3, 7, 122
9, 148440, Control_c, 2, 7, 120
9, 148440, Control_c, 3, 7, 120
9, 148560, Control_c, 2, 7, 118
9, 148560, Control_c, 3, 7, 118
9, 148680, Control_c, 2, 7, 115
9, 148680, Control_c, 3, 7, 115
9, 148800, Control_c, 2, 7, 113
9, 148800, Control_c, 3, 7, 113
9, 148920, Control_c, 2, 7, 111
9, 148920, Control_c, 3, 7, 111
9, 149040, Control_c, 2, 7, 109
9, 149040, Control_c, 3, 7, 109
9, 149160, Control_c, 2, 7, 107
9, 149160, Control_c, 3, 7, 107
9, 149280, Control_c, 2, 7, 105
9, 149280, Control_c, 3, 7, 105
9, 149400, Control_c, 2, 7, 103
9, 149400, Control_c, 3, 7, 103
9, 149520, Control_c, 2, 7, 101
9, 149520, Control_c, 3, 7, 101
9, 149640, Control_c, 2, 7, 99
9, 149640, Control_c, 3, 7, 99
9, 149760, Control_c, 2, 7, 97
9, 149760, Control_c, 3, 7, 97
9, 149880, Control_c, 2, 7, 94
9, 149880, Control_c, 3, 7, 94
9, 150000, Control_c, 2, 7, 92
9, 150000, Control_c, 3, 7, 92
9, 150120, Control_c, 2, 7, 90
9, 150120, Control_c, 3, 7, 90
9, 150240, Control_c, 2, 7, 88
9, 150240, Control_c, 3, 7, 88
9, 150360, Control_c, 2, 7, 86
9, 150360, Control_c, 3, 7, 86
9, 150480, Control_c, 2, 7, 84
9, 150480, Control_c, 3, 7, 84
9, 150600, Control_c, 2, 7, 82
9, 150600, Control_c, 3, 7, 82
9, 150720, Control_c, 2, 7, 80
9, 150720, Control_c, 3, 7, 80
9, 150840, Control_c, 2, 7, 78
9, 150840, Control_c, 3, 7, 78
9, 150960, Control_c, 2, 7, 76
9, 150960, Control_c, 3, 7, 76
9, 151080, Control_c, 2, 7, 73
9, 151080, Control_c, 3, 7, 73
9, 151200, Control_c, 2, 7, 71
9, 151200, Control_c, 3, 7, 71
9, 151320, Control_c, 2, 7, 69
9, 151320, Control_c, 3, 7, 69
9, 151440, Control_c, 2, 7, 67
9, 151440, Control_c, 3, 7, 67
9, 151560, Control_c, 2, 7, 65
9, 151560, Control_c, 3, 7, 65
9, 151680, Control_c, 2, 7, 63
9, 151680, Control_c, 3, 7, 63
9, 151800, Control_c, 2, 7, 61
9, 151800, Control_c, 3, 7, 61
9, 151920, Control_c, 2, 7, 59
9, 151920, Control_c, 3, 7, 59
9, 152040, Control_c, 2, 7, 57
9, 152040, Control_c, 3, 7, 57
9, 152160, Control_c, 2, 7, 55
9, 152160, Control_c, 3, 7, 55
9, 152280, Control_c, 2, 7, 52
9, 152280, Control_c, 3, 7, 52
9, 152400, Control_c, 2, 7, 50
9, 152400, Control_c, 3, 7, 50
9, 152520, Control_c, 2, 7, 48
9, 152520, Control_c, 3, 7, 48
9, 152640, Control_c, 2, 7, 46
9, 152640, Control_c, 3, 7, 46
9, 152760, Control_c, 2, 7, 44
9, 152760, Control_c, 3, 7, 44
9, 152880, Control_c, 2, 7, 42
9, 152880, Control_c, 3, 7, 42
9, 153000, Control_c, 2, 7, 40
9, 153000, Control_c, 3, 7, 40
9, 153120, Control_c, 2, 7, 38
9, 153120, Control_c, 3, 7, 38
9, 153240, Control_c, 2, 7, 36
9, 153240, Control_c, 3, 7, 36
9, 153360, Control_c, 2, 7, 34
9, 153360, Control_c, 3, 7, 34
9, 153480, Control_c, 2, 7, 31
9, 153480, Control_c, 3, 7, 31
9, 153600, Control_c, 2, 7, 29
9, 153600, Control_c, 3, 7, 29
9, 153720, Control_c, 2, 7, 27
9, 153720, Control_c, 3, 7, 27
9, 153840, Control_c, 2, 7, 25
9, 153840, Control_c, 3, 7, 25
9, 153960, Control_c, 2, 7, 23
9, 153960, Control_c, 3, 7, 23
9, 154080, Control_c, 2, 7, 21
9, 154080, Control_c, 3, 7, 21
9, 154200, Control_c, 2, 7, 19
9, 154200, Control_c, 3, 7, 19
9, 154320, Control_c, 2, 7, 17
9, 154320, Control_c, 3, 7, 17
9, 154440, Control_c, 2, 7, 15
9, 154440, Control_c, 3, 7, 15
9, 154560, Control_c, 2, 7, 13
9, 154560, Control_c, 3, 7, 13
9, 154680, Control_c, 2, 7, 10
9, 154680, Control_c, 3, 7, 10
9, 154800, Control_c, 2, 7, 8
9, 154800, Control_c, 3, 7, 8
9, 154920, Control_c, 2, 7, 6
9, 154920, Control_c, 3, 7, 6
9, 155040, Control_c, 2, 7, 4
9, 155040, Control_c, 3, 7, 4
9, 155160, Control_c, 2, 7, 2
9, 155160, Control_c, 3, 7, 2
9, 155280, Control_c, 2, 7, 0
9, 155280, Control_c, 3, 7, 0
9, 155280, End_track
10, 0, Start_track
10, 0, Title_t, "Track 7"
10, 0, Control_c, 11, 100, 0
10, 0, Control_c, 11, 101, 0
10, 0, Control_c, 11, 6, 12
10, 0, Pitch_bend_c, 11, 8192
10, 0, Control_c, 12, 100, 0
10, 0, Control_c, 12, 101, 0
10, 0, Control_c, 12, 6, 12
10, 0, Pitch_bend_c, 12, 8192
10, 0, Program_c, 11, 30
10, 0, Program_c, 12, 30
10, 0, Control_c, 11, 7, 72
10, 0, Control_c, 12, 7, 72
10, 0, Control_c, 11, 10, 80
10, 0, Control_c, 12, 10, 80
10, 0, Control_c, 11, 93, 24
10, 0, Control_c, 12, 93, 24
10, 0, Control_c, 11, 91, 72
10, 0, Control_c, 12, 91, 72
10, 0, Control_c, 11, 92, 0
10, 0, Control_c, 12, 92, 0
10, 0, Control_c, 11, 95, 0
10, 0, Control_c, 12, 95, 0
10, 1140, Note_on_c, 12, 50, 95
10, 1140, Pitch_bend_c, 12, 6144
10, 1180, Pitch_bend_c, 12, 6784
10, 1220, Pitch_bend_c, 12, 7552
10, 1260, Pitch_bend_c, 12, 8192
10, 1340, Pitch_bend_c, 12, 8192
10, 1420, Note_off_c, 12, 50, 80
10, 1420, Pitch_bend_c, 12, 8448
10, 1420, Pitch_bend_c, 12, 8192
10, 1420, Note_on_c, 11, 53, 95
10, 1660, Note_off_c, 11, 53, 80
10, 1660, Note_on_c, 12, 54, 95
10, 1740, Pitch_bend_c, 12, 8192
10, 1820, Pitch_bend_c, 12, 8448
10, 1900, Pitch_bend_c, 12, 8192
10, 1920, Note_off_c, 12, 54, 80
10, 1920, Pitch_bend_c, 12, 8192
10, 1920, Note_on_c, 11, 55, 95
10, 2880, Note_off_c, 11, 55, 80
10, 2880, Note_on_c, 11, 67, 47
10, 3120, Note_off_c, 11, 67, 80
10, 3120, Note_on_c, 11, 55, 95
10, 3360, Note_off_c, 11, 55, 80
10, 3360, Note_on_c, 12, 71, 47
10, 3360, Pitch_bend_c, 12, 8192
10, 3360, Note_on_c, 11, 67, 63
10, 3440, Pitch_bend_c, 12, 8320
10, 3584, Pitch_bend_c, 12, 8448
10, 3712, Pitch_bend_c, 12, 8576
10, 3744, Pitch_bend_c, 12, 8448
10, 3840, Note_off_c, 11, 67, 80
10, 3856, Pitch_bend_c, 12, 8320
10, 3968, Pitch_bend_c, 12, 8192
10, 4080, Note_off_c, 12, 71, 80
10, 4080, Pitch_bend_c, 12, 8192
10, 4800, Note_on_c, 11, 67, 47
10, 5040, Note_off_c, 11, 67, 80
10, 5040, Note_on_c, 11, 55, 95
10, 5280, Note_off_c, 11, 55, 80
10, 5280, Note_on_c, 12, 71, 47
10, 5280, Pitch_bend_c, 12, 8192
10, 5280, Note_on_c, 11, 67, 63
10, 5360, Pitch_bend_c, 12, 8320
10, 5504, Pitch_bend_c, 12, 8448
10, 5632, Pitch_bend_c, 12, 8576
10, 5664, Pitch_bend_c, 12, 8448
10, 5760, Note_off_c, 11, 67, 80
10, 5776, Pitch_bend_c, 12, 8320
10, 5888, Pitch_bend_c, 12, 8192
10, 6000, Note_off_c, 12, 71, 80
10, 6000, Pitch_bend_c, 12, 8192
10, 6720, Note_on_c, 11, 67, 47
10, 6960, Note_off_c, 11, 67, 80
10, 6960, Note_on_c, 11, 55, 95
10, 7200, Note_off_c, 11, 55, 80
10, 7200, Note_on_c, 12, 71, 47
10, 7200, Pitch_bend_c, 12, 8192
10, 7200, Note_on_c, 11, 67, 63
10, 7280, Pitch_bend_c, 12, 8320
10, 7424, Pitch_bend_c, 12, 8448
10, 7552, Pitch_bend_c, 12, 8576
10, 7584, Pitch_bend_c, 12, 8448
10, 7696, Pitch_bend_c, 12, 8320
10, 7808, Pitch_bend_c, 12, 8192
10, 7920, Note_off_c, 12, 71, 80
10, 7920, Pitch_bend_c, 12, 8192
10, 7920, Note_off_c, 11, 67, 80
10, 8640, Note_on_c, 11, 67, 47
10, 8880, Note_off_c, 11, 67, 80
10, 8880, Note_on_c, 11, 55, 95
10, 9120, Note_off_c, 11, 55, 80
10, 9120, Note_on_c, 12, 71, 63
10, 9120, Pitch_bend_c, 12, 8192
10, 9120, Note_on_c, 12, 67, 63
10, 9120, Pitch_bend_c, 12, 8192
10, 9136, Pitch_bend_c, 12, 8320
10, 9136, Pitch_bend_c, 12, 8320
10, 9152, Pitch_bend_c, 12, 8448
10, 9168, Pitch_bend_c, 12, 8576
10, 9168, Pitch_bend_c, 12, 8448
10, 9184, Pitch_bend_c, 12, 8704
10, 9184, Pitch_bend_c, 12, 8576
10, 9200, Pitch_bend_c, 12, 8832
10, 9200, Pitch_bend_c, 12, 8704
10, 9216, Pitch_bend_c, 12, 8960
10, 9232, Pitch_bend_c, 12, 9088
10, 9232, Pitch_bend_c, 12, 8832
10, 9248, Pitch_bend_c, 12, 9216
10, 9360, Note_off_c, 12, 71, 80
10, 9360, Pitch_bend_c, 12, 8192
10, 9360, Note_off_c, 12, 67, 80
10, 9360, Pitch_bend_c, 12, 8192
10, 9360, Note_on_c, 12, 66, 63
10, 9360, Pitch_bend_c, 12, 8192
10, 9376, Pitch_bend_c, 12, 8320
10, 9408, Pitch_bend_c, 12, 8448
10, 9424, Pitch_bend_c, 12, 8576
10, 9440, Pitch_bend_c, 12, 8704
10, 9472, Pitch_bend_c, 12, 8832
10, 9600, Note_off_c, 12, 66, 80
10, 9600, Pitch_bend_c, 12, 8192
10, 9600, Note_on_c, 11, 64, 95
10, 11040, Note_off_c, 11, 64, 80
10, 11220, Note_on_c, 11, 67, 63
10, 11640, Note_off_c, 11, 67, 80
10, 11760, Note_on_c, 11, 65, 79
10, 11880, Note_off_c, 11, 65, 80
10, 12000, Note_on_c, 11, 65, 63
10, 13440, Note_off_c, 11, 65, 80
10, 13440, Note_on_c, 11, 64, 79
10, 13920, Note_off_c, 11, 64, 80
10, 13920, Note_on_c, 11, 67, 63
10, 14400, Note_off_c, 11, 67, 80
10, 14400, Note_on_c, 12, 71, 79
10, 14480, Pitch_bend_c, 12, 8192
10, 14560, Pitch_bend_c, 12, 8448
10, 14640, Pitch_bend_c, 12, 8192
10, 14720, Pitch_bend_c, 12, 8448
10, 14800, Pitch_bend_c, 12, 8192
10, 14880, Pitch_bend_c, 12, 8448
10, 14960, Pitch_bend_c, 12, 8192
10, 15040, Pitch_bend_c, 12, 8448
10, 15120, Pitch_bend_c, 12, 8192
10, 15200, Pitch_bend_c, 12, 8448
10, 15280, Pitch_bend_c, 12, 8192
10, 15360, Note_off_c, 12, 71, 80
10, 15360, Pitch_bend_c, 12, 8448
10, 15360, Pitch_bend_c, 12, 8192
10, 15360, Note_on_c, 12, 71, 63
10, 15440, Pitch_bend_c, 12, 8192
10, 15520, Pitch_bend_c, 12, 8448
10, 15600, Pitch_bend_c, 12, 8192
10, 15680, Pitch_bend_c, 12, 8448
10, 15760, Pitch_bend_c, 12, 8192
10, 15840, Note_off_c, 12, 71, 80
10, 15840, Pitch_bend_c, 12, 8448
10, 15840, Pitch_bend_c, 12, 8192
10, 15840, Note_on_c, 12, 71, 63
10, 15920, Pitch_bend_c, 12, 8192
10, 16000, Pitch_bend_c, 12, 8448
10, 16080, Pitch_bend_c, 12, 8192
10, 16160, Pitch_bend_c, 12, 8448
10, 16240, Pitch_bend_c, 12, 8192
10, 16320, Note_off_c, 12, 71, 80
10, 16320, Pitch_bend_c, 12, 8448
10, 16320, Pitch_bend_c, 12, 8192
10, 16320, Note_on_c, 12, 71, 63
10, 16400, Pitch_bend_c, 12, 8192
10, 16480, Pitch_bend_c, 12, 8448
10, 16560, Pitch_bend_c, 12, 8192
10, 16640, Pitch_bend_c, 12, 8448
10, 16720, Pitch_bend_c, 12, 8192
10, 16800, Note_off_c, 12, 71, 80
10, 16800, Pitch_bend_c, 12, 8448
10, 16800, Pitch_bend_c, 12, 8192
10, 16800, Note_on_c, 12, 71, 63
10, 16880, Pitch_bend_c, 12, 8192
10, 16960, Pitch_bend_c, 12, 8448
10, 17040, Pitch_bend_c, 12, 8192
10, 17120, Pitch_bend_c, 12, 8448
10, 17200, Pitch_bend_c, 12, 8192
10, 17280, Note_off_c, 12, 71, 80
10, 17280, Pitch_bend_c, 12, 8448
10, 17280, Pitch_bend_c, 12, 8192
10, 17280, Note_on_c, 11, 64, 95
10, 18720, Note_off_c, 11, 64, 80
10, 18900, Note_on_c, 11, 67, 63
10, 19320, Note_off_c, 11, 67, 80
10, 19440, Note_on_c, 11, 65, 79
10, 19560, Note_off_c, 11, 65, 80
10, 19680, Note_on_c, 11, 65, 63
10, 21120, Note_off_c, 11, 65, 80
10, 21120, Note_on_c, 11, 64, 79
10, 22080, Note_off_c, 11, 64, 80
10, 22080, Note_on_c, 11, 66, 63
10, 22560, Note_off_c, 11, 66, 80
10, 22560, Note_on_c, 11, 67, 79
10, 23040, Note_off_c, 11, 67, 80
10, 23040, Note_on_c, 12, 59, 79
10, 23120, Pitch_bend_c, 12, 8192
10, 23200, Pitch_bend_c, 12, 8448
10, 23280, Pitch_bend_c, 12, 8192
10, 23360, Pitch_bend_c, 12, 8448
10, 23440, Pitch_bend_c, 12, 8192
10, 23520, Note_off_c, 12, 59, 80
10, 23520, Pitch_bend_c, 12, 8448
10, 23520, Pitch_bend_c, 12, 8192
10, 23520, Note_on_c, 12, 59, 79
10, 23600, Pitch_bend_c, 12, 8192
10, 23680, Pitch_bend_c, 12, 8448
10, 23760, Pitch_bend_c, 12, 8192
10, 23840, Pitch_bend_c, 12, 8448
10, 23920, Pitch_bend_c, 12, 8192
10, 24000, Note_off_c, 12, 59, 80
10, 24000, Pitch_bend_c, 12, 8448
10, 24000, Pitch_bend_c, 12, 8192
10, 24000, Note_on_c, 12, 59, 79
10, 24080, Pitch_bend_c, 12, 8192
10, 24160, Pitch_bend_c, 12, 8448
10, 24240, Pitch_bend_c, 12, 8192
10, 24320, Pitch_bend_c, 12, 8448
10, 24400, Pitch_bend_c, 12, 8192
10, 24480, Note_off_c, 12, 59, 80
10, 24480, Pitch_bend_c, 12, 8448
10, 24480, Pitch_bend_c, 12, 8192
10, 24480, Note_on_c, 12, 59, 79
10, 24560, Pitch_bend_c, 12, 8192
10, 24640, Pitch_bend_c, 12, 8448
10, 24720, Pitch_bend_c, 12, 8192
10, 24800, Pitch_bend_c, 12, 8448
10, 24880, Pitch_bend_c, 12, 8192
10, 24960, Note_off_c, 12, 59, 80
10, 24960, Pitch_bend_c, 12, 8448
10, 24960, Pitch_bend_c, 12, 8192
10, 24960, Note_on_c, 12, 64, 95
10, 25040, Pitch_bend_c, 12, 8192
10, 25120, Pitch_bend_c, 12, 8448
10, 25200, Pitch_bend_c, 12, 8192
10, 25280, Pitch_bend_c, 12, 8448
10, 25360, Pitch_bend_c, 12, 8192
10, 25440, Pitch_bend_c, 12, 8448
10, 25520, Pitch_bend_c, 12, 8192
10, 25600, Pitch_bend_c, 12, 8448
10, 25680, Pitch_bend_c, 12, 8192
10, 25760, Pitch_bend_c, 12, 8448
10, 25840, Pitch_bend_c, 12, 8192
10, 25920, Pitch_bend_c, 12, 8448
10, 26000, Pitch_bend_c, 12, 8192
10, 26080, Pitch_bend_c, 12, 8448
10, 26160, Pitch_bend_c, 12, 8192
10, 26240, Pitch_bend_c, 12, 8448
10, 26320, Pitch_bend_c, 12, 8192
10, 26340, Note_on_c, 12, 67, 111
10, 26340, Pitch_bend_c, 12, 6144
10, 26380, Pitch_bend_c, 12, 6784
10, 26400, Note_off_c, 12, 64, 80
10, 26400, Pitch_bend_c, 12, 8448
10, 26400, Pitch_bend_c, 12, 8192
10, 26420, Pitch_bend_c, 12, 7552
10, 26460, Pitch_bend_c, 12, 8192
10, 26640, Note_off_c, 12, 67, 80
10, 26640, Note_on_c, 12, 69, 111
10, 26640, Pitch_bend_c, 12, 8192
10, 26800, Pitch_bend_c, 12, 8320
10, 27136, Pitch_bend_c, 12, 8448
10, 27440, Pitch_bend_c, 12, 8576
10, 27472, Pitch_bend_c, 12, 8704
10, 27504, Pitch_bend_c, 12, 8576
10, 27536, Pitch_bend_c, 12, 8448
10, 27568, Pitch_bend_c, 12, 8576
10, 27600, Pitch_bend_c, 12, 8704
10, 27632, Pitch_bend_c, 12, 8576
10, 27664, Pitch_bend_c, 12, 8448
10, 27696, Pitch_bend_c, 12, 8576
10, 27728, Pitch_bend_c, 12, 8704
10, 27760, Pitch_bend_c, 12, 8576
10, 27792, Pitch_bend_c, 12, 8448
10, 27824, Pitch_bend_c, 12, 8576
10, 27856, Pitch_bend_c, 12, 8704
10, 27888, Pitch_bend_c, 12, 8576
10, 27920, Pitch_bend_c, 12, 8448
10, 27952, Pitch_bend_c, 12, 8576
10, 27984, Pitch_bend_c, 12, 8704
10, 28016, Pitch_bend_c, 12, 8576
10, 28048, Pitch_bend_c, 12, 8448
10, 28080, Pitch_bend_c, 12, 8576
10, 28112, Pitch_bend_c, 12, 8704
10, 28144, Pitch_bend_c, 12, 8576
10, 28176, Pitch_bend_c, 12, 8448
10, 28208, Pitch_bend_c, 12, 8576
10, 28240, Pitch_bend_c, 12, 8704
10, 28272, Pitch_bend_c, 12, 8576
10, 28304, Pitch_bend_c, 12, 8448
10, 28320, Note_off_c, 12, 69, 80
10, 28320, Pitch_bend_c, 12, 8192
10, 28560, Note_on_c, 12, 64, 111
10, 28560, Pitch_bend_c, 12, 6144
10, 28600, Pitch_bend_c, 12, 6784
10, 28640, Pitch_bend_c, 12, 7552
10, 28680, Control_c, 11, 7, 88
10, 28680, Control_c, 12, 7, 88
10, 28680, Pitch_bend_c, 12, 8192
10, 29760, Note_off_c, 12, 64, 80
10, 29760, Note_on_c, 11, 67, 111
10, 30240, Note_off_c, 11, 67, 80
10, 30240, Note_on_c, 11, 67, 111
10, 30480, Note_off_c, 11, 67, 80
10, 30480, Note_on_c, 11, 67, 111
10, 30780, Note_off_c, 11, 67, 80
10, 30780, Note_on_c, 12, 69, 95
10, 30780, Pitch_bend_c, 12, 8192
10, 30796, Pitch_bend_c, 12, 8320
10, 30828, Pitch_bend_c, 12, 8448
10, 30844, Pitch_bend_c, 12, 8576
10, 30860, Pitch_bend_c, 12, 8704
10, 30892, Pitch_bend_c, 12, 8832
10, 30908, Pitch_bend_c, 12, 8960
10, 30940, Pitch_bend_c, 12, 9088
10, 30956, Pitch_bend_c, 12, 9216
10, 30972, Pitch_bend_c, 12, 9344
10, 31004, Pitch_bend_c, 12, 9472
10, 31020, Pitch_bend_c, 12, 9600
10, 31260, Note_off_c, 12, 69, 80
10, 31260, Pitch_bend_c, 12, 8192
10, 31260, Note_on_c, 12, 69, 111
10, 31340, Pitch_bend_c, 12, 8192
10, 31420, Pitch_bend_c, 12, 8448
10, 31500, Note_off_c, 12, 69, 80
10, 31500, Pitch_bend_c, 12, 8192
10, 31500, Pitch_bend_c, 12, 8192
10, 31500, Note_on_c, 12, 69, 111
10, 31580, Pitch_bend_c, 12, 8192
10, 31600, Pitch_bend_c, 12, 7680
10, 31660, Pitch_bend_c, 12, 8448
10, 31700, Pitch_bend_c, 12, 8704
10, 31740, Pitch_bend_c, 12, 8192
10, 31800, Pitch_bend_c, 12, 7680
10, 31820, Pitch_bend_c, 12, 8448
10, 31900, Pitch_bend_c, 12, 8704
10, 31900, Pitch_bend_c, 12, 8192
10, 31980, Pitch_bend_c, 12, 8448
10, 32000, Pitch_bend_c, 12, 7680
10, 32060, Pitch_bend_c, 12, 8192
10, 32100, Pitch_bend_c, 12, 8704
10, 32140, Pitch_bend_c, 12, 8448
10, 32200, Pitch_bend_c, 12, 7680
10, 32220, Pitch_bend_c, 12, 8192
10, 32300, Pitch_bend_c, 12, 8704
10, 32300, Pitch_bend_c, 12, 8448
10, 32380, Pitch_bend_c, 12, 8192
10, 32400, Pitch_bend_c, 12, 7680
10, 32460, Pitch_bend_c, 12, 8192
10, 32460, Note_off_c, 12, 69, 80
10, 32460, Pitch_bend_c, 12, 8448
10, 32460, Pitch_bend_c, 12, 8192
10, 32640, Note_on_c, 12, 64, 127
10, 32720, Pitch_bend_c, 12, 8192
10, 32800, Pitch_bend_c, 12, 8448
10, 32880, Pitch_bend_c, 12, 8192
10, 32960, Pitch_bend_c, 12, 8448
10, 33040, Pitch_bend_c, 12, 8192
10, 33120, Pitch_bend_c, 12, 8448
10, 33200, Pitch_bend_c, 12, 8192
10, 33280, Pitch_bend_c, 12, 8448
10, 33360, Pitch_bend_c, 12, 8192
10, 33440, Pitch_bend_c, 12, 8448
10, 33480, Note_off_c, 12, 64, 80
10, 33480, Note_on_c, 12, 67, 95
10, 33480, Pitch_bend_c, 12, 6144
10, 33520, Pitch_bend_c, 12, 8192
10, 33520, Pitch_bend_c, 12, 6784
10, 33560, Pitch_bend_c, 12, 7552
10, 33600, Pitch_bend_c, 12, 8448
10, 33600, Pitch_bend_c, 12, 8192
10, 33600, Pitch_bend_c, 12, 8192
10, 33840, Note_off_c, 12, 67, 80
10, 33840, Note_on_c, 11, 67, 95
10, 33960, Note_off_c, 11, 67, 80
10, 33960, Note_on_c, 12, 67, 127
10, 33960, Pitch_bend_c, 12, 6144
10, 34000, Pitch_bend_c, 12, 6784
10, 34040, Pitch_bend_c, 12, 7552
10, 34080, Pitch_bend_c, 12, 8192
10, 34260, Note_off_c, 12, 67, 80
10, 34260, Note_on_c, 12, 69, 111
10, 34340, Pitch_bend_c, 12, 8192
10, 34420, Pitch_bend_c, 12, 8448
10, 34500, Pitch_bend_c, 12, 8192
10, 34580, Pitch_bend_c, 12, 8448
10, 34660, Pitch_bend_c, 12, 8192
10, 34740, Pitch_bend_c, 12, 8448
10, 34820, Pitch_bend_c, 12, 8192
10, 34900, Pitch_bend_c, 12, 8448
10, 34980, Pitch_bend_c, 12, 8192
10, 35060, Pitch_bend_c, 12, 8448
10, 35140, Pitch_bend_c, 12, 8192
10, 35220, Pitch_bend_c, 12, 8448
10, 35300, Pitch_bend_c, 12, 8192
10, 35380, Pitch_bend_c, 12, 8448
10, 35460, Pitch_bend_c, 12, 8192
10, 35540, Pitch_bend_c, 12, 8448
10, 35620, Pitch_bend_c, 12, 8192
10, 35700, Pitch_bend_c, 12, 8448
10, 35780, Pitch_bend_c, 12, 8192
10, 35860, Pitch_bend_c, 12, 8448
10, 35940, Pitch_bend_c, 12, 8192
10, 36020, Pitch_bend_c, 12, 8448
10, 36100, Pitch_bend_c, 12, 8192
10, 36180, Pitch_bend_c, 12, 8448
10, 36240, Note_off_c, 12, 69, 80
10, 36240, Pitch_bend_c, 12, 8192
10, 36360, Note_on_c, 12, 74, 127
10, 36360, Pitch_bend_c, 12, 8192
10, 36376, Pitch_bend_c, 12, 8320
10, 36392, Pitch_bend_c, 12, 8448
10, 36408, Pitch_bend_c, 12, 8576
10, 36424, Pitch_bend_c, 12, 8704
10, 36440, Pitch_bend_c, 12, 8832
10, 36456, Pitch_bend_c, 12, 8960
10, 36472, Pitch_bend_c, 12, 9088
10, 36504, Pitch_bend_c, 12, 9344
10, 36520, Pitch_bend_c, 12, 9472
10, 36552, Pitch_bend_c, 12, 9600
10, 36720, Note_off_c, 12, 74, 80
10, 36720, Pitch_bend_c, 12, 8192
10, 36720, Note_on_c, 11, 76, 127
10, 36960, Note_off_c, 11, 76, 80
10, 36960, Note_on_c, 11, 79, 127
10, 37200, Note_off_c, 11, 79, 80
10, 37200, Note_on_c, 11, 76, 127
10, 37440, Note_off_c, 11, 76, 80
10, 37440, Note_on_c, 12, 67, 127
10, 37440, Pitch_bend_c, 12, 9600
10, 37536, Pitch_bend_c, 12, 9344
10, 37552, Pitch_bend_c, 12, 8960
10, 37568, Pitch_bend_c, 12, 8704
10, 37584, Pitch_bend_c, 12, 8448
10, 37600, Pitch_bend_c, 12, 8192
10, 37680, Note_off_c, 12, 67, 80
10, 37680, Pitch_bend_c, 12, 8192
10, 37680, Note_on_c, 11, 64, 127
10, 37920, Note_off_c, 11, 64, 80
10, 37920, Note_on_c, 11, 69, 127
10, 38160, Note_off_c, 11, 69, 80
10, 38160, Note_on_c, 12, 69, 127
10, 38240, Pitch_bend_c, 12, 8192
10, 38320, Pitch_bend_c, 12, 8448
10, 38400, Note_off_c, 12, 69, 80
10, 38400, Pitch_bend_c, 12, 8192
10, 38400, Pitch_bend_c, 12, 8192
10, 38400, Note_on_c, 11, 69, 95
10, 38640, Note_off_c, 11, 69, 80
10, 38640, Note_on_c, 12, 67, 127
10, 38720, Pitch_bend_c, 12, 8192
10, 38800, Pitch_bend_c, 12, 8448
10, 38880, Pitch_bend_c, 12, 8192
10, 38960, Pitch_bend_c, 12, 8448
10, 39040, Pitch_bend_c, 12, 8192
10, 39120, Pitch_bend_c, 12, 8448
10, 39200, Pitch_bend_c, 12, 8192
10, 39280, Pitch_bend_c, 12, 8448
10, 39360, Pitch_bend_c, 12, 8192
10, 39440, Pitch_bend_c, 12, 8448
10, 39520, Pitch_bend_c, 12, 8192
10, 39600, Pitch_bend_c, 12, 8448
10, 39680, Pitch_bend_c, 12, 8192
10, 39760, Pitch_bend_c, 12, 8448
10, 39840, Pitch_bend_c, 12, 8192
10, 39920, Pitch_bend_c, 12, 8448
10, 40000, Pitch_bend_c, 12, 8192
10, 40080, Note_off_c, 12, 67, 80
10, 40080, Pitch_bend_c, 12, 8448
10, 40080, Pitch_bend_c, 12, 8192
10, 40320, Control_c, 11, 7, 64
10, 40320, Control_c, 12, 7, 64
10, 40320, Note_on_c, 12, 65, 63
10, 40400, Pitch_bend_c, 12, 8192
10, 40480, Pitch_bend_c, 12, 8448
10, 40560, Pitch_bend_c, 12, 8192
10, 40640, Pitch_bend_c, 12, 8448
10, 40720, Pitch_bend_c, 12, 8192
10, 40800, Pitch_bend_c, 12, 8448
10, 40880, Pitch_bend_c, 12, 8192
10, 40960, Pitch_bend_c, 12, 8448
10, 41040, Pitch_bend_c, 12, 8192
10, 41120, Pitch_bend_c, 12, 8448
10, 41200, Pitch_bend_c, 12, 8192
10, 41280, Pitch_bend_c, 12, 8448
10, 41360, Pitch_bend_c, 12, 8192
10, 41440, Pitch_bend_c, 12, 8448
10, 41520, Pitch_bend_c, 12, 8192
10, 41600, Pitch_bend_c, 12, 8448
10, 41680, Pitch_bend_c, 12, 8192
10, 41760, Note_off_c, 12, 65, 80
10, 41760, Pitch_bend_c, 12, 8448
10, 41760, Pitch_bend_c, 12, 8192
10, 41760, Note_on_c, 11, 69, 63
10, 42240, Note_off_c, 11, 69, 80
10, 42240, Note_on_c, 12, 67, 63
10, 42320, Pitch_bend_c, 12, 8192
10, 42400, Pitch_bend_c, 12, 8448
10, 42480, Pitch_bend_c, 12, 8192
10, 42560, Pitch_bend_c, 12, 8448
10, 42640, Pitch_bend_c, 12, 8192
10, 42720, Pitch_bend_c, 12, 8448
10, 42800, Pitch_bend_c, 12, 8192
10, 42880, Pitch_bend_c, 12, 8448
10, 42960, Pitch_bend_c, 12, 8192
10, 43040, Pitch_bend_c, 12, 8448
10, 43120, Pitch_bend_c, 12, 8192
10, 43200, Pitch_bend_c, 12, 8448
10, 43280, Pitch_bend_c, 12, 8192
10, 43360, Pitch_bend_c, 12, 8448
10, 43440, Pitch_bend_c, 12, 8192
10, 43520, Pitch_bend_c, 12, 8448
10, 43600, Pitch_bend_c, 12, 8192
10, 43680, Note_off_c, 12, 67, 80
10, 43680, Pitch_bend_c, 12, 8448
10, 43680, Pitch_bend_c, 12, 8192
10, 44160, Note_on_c, 12, 65, 63
10, 44240, Pitch_bend_c, 12, 8192
10, 44320, Pitch_bend_c, 12, 8448
10, 44400, Pitch_bend_c, 12, 8192
10, 44480, Pitch_bend_c, 12, 8448
10, 44560, Pitch_bend_c, 12, 8192
10, 44640, Pitch_bend_c, 12, 8448
10, 44720, Pitch_bend_c, 12, 8192
10, 44800, Pitch_bend_c, 12, 8448
10, 44880, Pitch_bend_c, 12, 8192
10, 44960, Pitch_bend_c, 12, 8448
10, 45040, Pitch_bend_c, 12, 8192
10, 45120, Pitch_bend_c, 12, 8448
10, 45200, Pitch_bend_c, 12, 8192
10, 45280, Pitch_bend_c, 12, 8448
10, 45360, Pitch_bend_c, 12, 8192
10, 45440, Pitch_bend_c, 12, 8448
10, 45520, Pitch_bend_c, 12, 8192
10, 45600, Note_off_c, 12, 65, 80
10, 45600, Pitch_bend_c, 12, 8448
10, 45600, Pitch_bend_c, 12, 8192
10, 45600, Note_on_c, 11, 69, 63
10, 46080, Note_off_c, 11, 69, 80
10, 46080, Note_on_c, 12, 67, 63
10, 46160, Pitch_bend_c, 12, 8192
10, 46240, Pitch_bend_c, 12, 8448
10, 46320, Pitch_bend_c, 12, 8192
10, 46400, Pitch_bend_c, 12, 8448
10, 46480, Pitch_bend_c, 12, 8192
10, 46560, Pitch_bend_c, 12, 8448
10, 46640, Pitch_bend_c, 12, 8192
10, 46720, Pitch_bend_c, 12, 8448
10, 46800, Pitch_bend_c, 12, 8192
10, 46880, Pitch_bend_c, 12, 8448
10, 46960, Pitch_bend_c, 12, 8192
10, 47040, Pitch_bend_c, 12, 8448
10, 47120, Pitch_bend_c, 12, 8192
10, 47200, Pitch_bend_c, 12, 8448
10, 47280, Pitch_bend_c, 12, 8192
10, 47360, Pitch_bend_c, 12, 8448
10, 47440, Pitch_bend_c, 12, 8192
10, 47520, Note_off_c, 12, 67, 80
10, 47520, Pitch_bend_c, 12, 8448
10, 47520, Pitch_bend_c, 12, 8192
10, 48000, Note_on_c, 12, 65, 63
10, 48080, Pitch_bend_c, 12, 8192
10, 48160, Pitch_bend_c, 12, 8448
10, 48240, Pitch_bend_c, 12, 8192
10, 48320, Pitch_bend_c, 12, 8448
10, 48400, Pitch_bend_c, 12, 8192
10, 48480, Pitch_bend_c, 12, 8448
10, 48560, Pitch_bend_c, 12, 8192
10, 48640, Pitch_bend_c, 12, 8448
10, 48720, Pitch_bend_c, 12, 8192
10, 48800, Pitch_bend_c, 12, 8448
10, 48880, Pitch_bend_c, 12, 8192
10, 48960, Pitch_bend_c, 12, 8448
10, 49040, Pitch_bend_c, 12, 8192
10, 49120, Pitch_bend_c, 12, 8448
10, 49200, Pitch_bend_c, 12, 8192
10, 49280, Pitch_bend_c, 12, 8448
10, 49360, Pitch_bend_c, 12, 8192
10, 49440, Note_off_c, 12, 65, 80
10, 49440, Pitch_bend_c, 12, 8448
10, 49440, Pitch_bend_c, 12, 8192
10, 49440, Note_on_c, 11, 69, 63
10, 49920, Note_off_c, 11, 69, 80
10, 49920, Note_on_c, 12, 67, 63
10, 50000, Pitch_bend_c, 12, 8192
10, 50080, Pitch_bend_c, 12, 8448
10, 50160, Pitch_bend_c, 12, 8192
10, 50240, Pitch_bend_c, 12, 8448
10, 50320, Pitch_bend_c, 12, 8192
10, 50400, Pitch_bend_c, 12, 8448
10, 50480, Pitch_bend_c, 12, 8192
10, 50560, Pitch_bend_c, 12, 8448
10, 50640, Pitch_bend_c, 12, 8192
10, 50720, Pitch_bend_c, 12, 8448
10, 50800, Pitch_bend_c, 12, 8192
10, 50880, Pitch_bend_c, 12, 8448
10, 50960, Pitch_bend_c, 12, 8192
10, 51040, Pitch_bend_c, 12, 8448
10, 51120, Pitch_bend_c, 12, 8192
10, 51200, Pitch_bend_c, 12, 8448
10, 51280, Pitch_bend_c, 12, 8192
10, 51360, Note_off_c, 12, 67, 80
10, 51360, Pitch_bend_c, 12, 8448
10, 51360, Pitch_bend_c, 12, 8192
10, 51840, Note_on_c, 11, 65, 63
10, 52080, Note_off_c, 11, 65, 80
10, 52080, Note_on_c, 11, 69, 63
10, 52320, Note_off_c, 11, 69, 80
10, 52320, Note_on_c, 11, 68, 47
10, 52560, Note_off_c, 11, 68, 80
10, 52560, Note_on_c, 11, 65, 63
10, 52800, Note_off_c, 11, 65, 80
10, 52800, Note_on_c, 11, 65, 63
10, 53040, Note_off_c, 11, 65, 80
10, 53040, Note_on_c, 11, 65, 47
10, 53280, Note_off_c, 11, 65, 80
10, 53280, Note_on_c, 11, 69, 31
10, 53520, Note_off_c, 11, 69, 80
10, 53520, Note_on_c, 11, 65, 47
10, 53760, Note_off_c, 11, 65, 80
10, 53760, Note_on_c, 11, 67, 47
10, 54000, Note_off_c, 11, 67, 80
10, 54000, Note_on_c, 11, 67, 47
10, 54240, Note_off_c, 11, 67, 80
10, 54240, Note_on_c, 11, 71, 31
10, 54480, Note_off_c, 11, 71, 80
10, 54480, Note_on_c, 11, 67, 47
10, 54720, Note_off_c, 11, 67, 80
10, 54720, Note_on_c, 11, 69, 47
10, 54960, Note_off_c, 11, 69, 80
10, 54960, Note_on_c, 11, 69, 47
10, 55200, Note_off_c, 11, 69, 80
10, 55200, Note_on_c, 11, 72, 31
10, 55440, Note_off_c, 11, 72, 80
10, 55440, Note_on_c, 11, 69, 47
10, 55680, Note_off_c, 11, 69, 80
10, 55680, Note_on_c, 11, 64, 95
10, 57120, Note_off_c, 11, 64, 80
10, 57300, Note_on_c, 11, 67, 63
10, 57720, Note_off_c, 11, 67, 80
10, 57840, Note_on_c, 11, 65, 79
10, 57960, Note_off_c, 11, 65, 80
10, 58080, Note_on_c, 11, 65, 63
10, 59400, Note_on_c, 12, 69, 111
10, 59400, Pitch_bend_c, 12, 6144
10, 59440, Pitch_bend_c, 12, 6784
10, 59480, Pitch_bend_c, 12, 7552
10, 59520, Note_off_c, 11, 65, 80
10, 59520, Control_c, 11, 7, 88
10, 59520, Control_c, 12, 7, 88
10, 59520, Pitch_bend_c, 12, 8192
10, 59600, Pitch_bend_c, 12, 8192
10, 59680, Pitch_bend_c, 12, 8448
10, 59760, Pitch_bend_c, 12, 8192
10, 59840, Pitch_bend_c, 12, 8448
10, 59920, Pitch_bend_c, 12, 8192
10, 60000, Pitch_bend_c, 12, 8448
10, 60080, Pitch_bend_c, 12, 8192
10, 60160, Pitch_bend_c, 12, 8448
10, 60240, Pitch_bend_c, 12, 8192
10, 60320, Pitch_bend_c, 12, 8448
10, 60400, Pitch_bend_c, 12, 8192
10, 60480, Pitch_bend_c, 12, 8448
10, 60560, Pitch_bend_c, 12, 8192
10, 60640, Pitch_bend_c, 12, 8448
10, 60720, Note_off_c, 12, 69, 80
10, 60720, Pitch_bend_c, 12, 8192
10, 60720, Pitch_bend_c, 12, 8192
10, 60750, Note_on_c, 11, 67, 111
10, 60780, Note_off_c, 11, 67, 80
10, 60780, Note_on_c, 11, 69, 111
10, 61140, Note_off_c, 11, 69, 80
10, 61140, Note_on_c, 12, 69, 111
10, 61220, Pitch_bend_c, 12, 8192
10, 61300, Pitch_bend_c, 12, 8448
10, 61380, Pitch_bend_c, 12, 8192
10, 61460, Pitch_bend_c, 12, 8448
10, 61540, Pitch_bend_c, 12, 8192
10, 61620, Pitch_bend_c, 12, 8448
10, 61700, Pitch_bend_c, 12, 8192
10, 61780, Pitch_bend_c, 12, 8448
10, 61860, Pitch_bend_c, 12, 8192
10, 61940, Pitch_bend_c, 12, 8448
10, 62020, Pitch_bend_c, 12, 8192
10, 62100, Pitch_bend_c, 12, 8448
10, 62180, Pitch_bend_c, 12, 8192
10, 62260, Pitch_bend_c, 12, 8448
10, 62340, Pitch_bend_c, 12, 8192
10, 62420, Pitch_bend_c, 12, 8448
10, 62500, Pitch_bend_c, 12, 8192
10, 62580, Pitch_bend_c, 12, 8448
10, 62660, Pitch_bend_c, 12, 8192
10, 62740, Pitch_bend_c, 12, 8448
10, 62820, Pitch_bend_c, 12, 8192
10, 62900, Pitch_bend_c, 12, 8448
10, 62980, Pitch_bend_c, 12, 8192
10, 63060, Pitch_bend_c, 12, 8448
10, 63140, Pitch_bend_c, 12, 8192
10, 63220, Pitch_bend_c, 12, 8448
10, 63300, Pitch_bend_c, 12, 8192
10, 63360, Note_off_c, 12, 69, 80
10, 63360, Pitch_bend_c, 12, 8192
10, 63360, Note_on_c, 11, 64, 95
10, 64800, Note_off_c, 11, 64, 80
10, 64980, Note_on_c, 11, 67, 63
10, 65400, Note_off_c, 11, 67, 80
10, 65520, Note_on_c, 11, 65, 79
10, 65640, Note_off_c, 11, 65, 80
10, 65760, Note_on_c, 11, 65, 63
10, 67080, Note_on_c, 12, 69, 111
10, 67080, Pitch_bend_c, 12, 6144
10, 67120, Pitch_bend_c, 12, 6784
10, 67160, Pitch_bend_c, 12, 7552
10, 67200, Note_off_c, 11, 65, 80
10, 67200, Pitch_bend_c, 12, 8192
10, 67280, Pitch_bend_c, 12, 8192
10, 67360, Pitch_bend_c, 12, 8448
10, 67440, Pitch_bend_c, 12, 8192
10, 67520, Pitch_bend_c, 12, 8448
10, 67600, Pitch_bend_c, 12, 8192
10, 67680, Pitch_bend_c, 12, 8448
10, 67760, Pitch_bend_c, 12, 8192
10, 67840, Pitch_bend_c, 12, 8448
10, 67920, Pitch_bend_c, 12, 8192
10, 68000, Pitch_bend_c, 12, 8448
10, 68080, Pitch_bend_c, 12, 8192
10, 68160, Pitch_bend_c, 12, 8448
10, 68240, Pitch_bend_c, 12, 8192
10, 68320, Pitch_bend_c, 12, 8448
10, 68400, Note_off_c, 12, 69, 80
10, 68400, Pitch_bend_c, 12, 8192
10, 68400, Pitch_bend_c, 12, 8192
10, 68400, Note_on_c, 11, 67, 111
10, 68430, Note_off_c, 11, 67, 80
10, 68430, Note_on_c, 11, 69, 111
10, 68610, Note_on_c, 12, 69, 111
10, 68670, Note_off_c, 11, 69, 80
10, 68690, Pitch_bend_c, 12, 8192
10, 68770, Pitch_bend_c, 12, 8448
10, 68850, Pitch_bend_c, 12, 8192
10, 68930, Pitch_bend_c, 12, 8448
10, 69010, Pitch_bend_c, 12, 8192
10, 69060, Note_off_c, 12, 69, 80
10, 69060, Pitch_bend_c, 12, 8192
10, 69060, Note_on_c, 12, 69, 111
10, 69140, Pitch_bend_c, 12, 8192
10, 69220, Pitch_bend_c, 12, 8448
10, 69300, Pitch_bend_c, 12, 8192
10, 69380, Pitch_bend_c, 12, 8448
10, 69460, Pitch_bend_c, 12, 8192
10, 69540, Pitch_bend_c, 12, 8448
10, 69620, Pitch_bend_c, 12, 8192
10, 69700, Pitch_bend_c, 12, 8448
10, 69780, Pitch_bend_c, 12, 8192
10, 69860, Pitch_bend_c, 12, 8448
10, 69940, Pitch_bend_c, 12, 8192
10, 70020, Pitch_bend_c, 12, 8448
10, 70100, Pitch_bend_c, 12, 8192
10, 70180, Pitch_bend_c, 12, 8448
10, 70260, Pitch_bend_c, 12, 8192
10, 70340, Pitch_bend_c, 12, 8448
10, 70420, Pitch_bend_c, 12, 8192
10, 70500, Pitch_bend_c, 12, 8448
10, 70580, Pitch_bend_c, 12, 8192
10, 70660, Pitch_bend_c, 12, 8448
10, 70740, Pitch_bend_c, 12, 8192
10, 70820, Pitch_bend_c, 12, 8448
10, 70900, Pitch_bend_c, 12, 8192
10, 70980, Pitch_bend_c, 12, 8448
10, 71040, Note_off_c, 12, 69, 80
10, 71040, Pitch_bend_c, 12, 8192
10, 71040, Note_on_c, 11, 64, 95
10, 72480, Note_off_c, 11, 64, 80
10, 72660, Note_on_c, 11, 67, 63
10, 73080, Note_off_c, 11, 67, 80
10, 73200, Note_on_c, 11, 65, 79
10, 73320, Note_off_c, 11, 65, 80
10, 73440, Note_on_c, 11, 65, 63
10, 74760, Note_on_c, 12, 69, 111
10, 74760, Pitch_bend_c, 12, 6144
10, 74800, Pitch_bend_c, 12, 6784
10, 74840, Pitch_bend_c, 12, 7552
10, 74880, Note_off_c, 11, 65, 80
10, 74880, Pitch_bend_c, 12, 8192
10, 74960, Pitch_bend_c, 12, 8192
10, 75040, Pitch_bend_c, 12, 8448
10, 75120, Pitch_bend_c, 12, 8192
10, 75200, Pitch_bend_c, 12, 8448
10, 75280, Pitch_bend_c, 12, 8192
10, 75360, Pitch_bend_c, 12, 8448
10, 75440, Pitch_bend_c, 12, 8192
10, 75520, Pitch_bend_c, 12, 8448
10, 75600, Pitch_bend_c, 12, 8192
10, 75680, Pitch_bend_c, 12, 8448
10, 75760, Pitch_bend_c, 12, 8192
10, 75840, Pitch_bend_c, 12, 8448
10, 75920, Pitch_bend_c, 12, 8192
10, 76000, Pitch_bend_c, 12, 8448
10, 76080, Note_off_c, 12, 69, 80
10, 76080, Pitch_bend_c, 12, 8192
10, 76080, Pitch_bend_c, 12, 8192
10, 76080, Note_on_c, 11, 67, 111
10, 76110, Note_off_c, 11, 67, 80
10, 76110, Note_on_c, 11, 69, 111
10, 76290, Note_on_c, 12, 69, 111
10, 76350, Note_off_c, 11, 69, 80
10, 76370, Pitch_bend_c, 12, 8192
10, 76450, Pitch_bend_c, 12, 8448
10, 76530, Pitch_bend_c, 12, 8192
10, 76610, Pitch_bend_c, 12, 8448
10, 76690, Pitch_bend_c, 12, 8192
10, 76740, Note_off_c, 12, 69, 80
10, 76740, Pitch_bend_c, 12, 8192
10, 76740, Note_on_c, 12, 69, 111
10, 76820, Pitch_bend_c, 12, 8192
10, 76900, Pitch_bend_c, 12, 8448
10, 76980, Pitch_bend_c, 12, 8192
10, 77060, Pitch_bend_c, 12, 8448
10, 77140, Pitch_bend_c, 12, 8192
10, 77220, Pitch_bend_c, 12, 8448
10, 77300, Pitch_bend_c, 12, 8192
10, 77380, Pitch_bend_c, 12, 8448
10, 77460, Pitch_bend_c, 12, 8192
10, 77540, Pitch_bend_c, 12, 8448
10, 77620, Pitch_bend_c, 12, 8192
10, 77700, Pitch_bend_c, 12, 8448
10, 77780, Pitch_bend_c, 12, 8192
10, 77860, Pitch_bend_c, 12, 8448
10, 77940, Pitch_bend_c, 12, 8192
10, 78020, Pitch_bend_c, 12, 8448
10, 78100, Pitch_bend_c, 12, 8192
10, 78180, Pitch_bend_c, 12, 8448
10, 78260, Pitch_bend_c, 12, 8192
10, 78340, Pitch_bend_c, 12, 8448
10, 78420, Pitch_bend_c, 12, 8192
10, 78500, Pitch_bend_c, 12, 8448
10, 78580, Pitch_bend_c, 12, 8192
10, 78660, Pitch_bend_c, 12, 8448
10, 78720, Note_off_c, 12, 69, 80
10, 78720, Pitch_bend_c, 12, 8192
10, 78720, Note_on_c, 11, 64, 95
10, 80160, Note_off_c, 11, 64, 80
10, 80340, Note_on_c, 11, 67, 63
10, 80760, Note_off_c, 11, 67, 80
10, 80880, Note_on_c, 11, 65, 79
10, 81000, Note_off_c, 11, 65, 80
10, 81120, Note_on_c, 11, 65, 63
10, 82440, Note_on_c, 12, 69, 127
10, 82440, Pitch_bend_c, 12, 6144
10, 82480, Pitch_bend_c, 12, 6784
10, 82520, Pitch_bend_c, 12, 7552
10, 82560, Note_off_c, 11, 65, 80
10, 82560, Pitch_bend_c, 12, 8192
10, 82640, Pitch_bend_c, 12, 8192
10, 82720, Pitch_bend_c, 12, 8448
10, 82800, Pitch_bend_c, 12, 8192
10, 82880, Pitch_bend_c, 12, 8448
10, 82960, Pitch_bend_c, 12, 8192
10, 83040, Pitch_bend_c, 12, 8448
10, 83120, Pitch_bend_c, 12, 8192
10, 83200, Pitch_bend_c, 12, 8448
10, 83280, Pitch_bend_c, 12, 8192
10, 83360, Pitch_bend_c, 12, 8448
10, 83440, Pitch_bend_c, 12, 8192
10, 83520, Pitch_bend_c, 12, 8448
10, 83600, Pitch_bend_c, 12, 8192
10, 83680, Pitch_bend_c, 12, 8448
10, 83760, Note_off_c, 12, 69, 80
10, 83760, Pitch_bend_c, 12, 8192
10, 83760, Pitch_bend_c, 12, 8192
10, 83760, Note_on_c, 11, 67, 127
10, 83790, Note_off_c, 11, 67, 80
10, 83790, Note_on_c, 11, 69, 127
10, 83970, Note_on_c, 12, 69, 127
10, 84030, Note_off_c, 11, 69, 80
10, 84050, Pitch_bend_c, 12, 8192
10, 84130, Pitch_bend_c, 12, 8448
10, 84210, Pitch_bend_c, 12, 8192
10, 84290, Pitch_bend_c, 12, 8448
10, 84370, Pitch_bend_c, 12, 8192
10, 84420, Note_off_c, 12, 69, 80
10, 84420, Pitch_bend_c, 12, 8192
10, 84420, Note_on_c, 12, 69, 127
10, 84500, Pitch_bend_c, 12, 8192
10, 84580, Pitch_bend_c, 12, 8448
10, 84660, Pitch_bend_c, 12, 8192
10, 84720, Note_off_c, 12, 69, 80
10, 84720, Pitch_bend_c, 12, 8192
10, 84720, Note_on_c, 12, 69, 111
10, 84800, Pitch_bend_c, 12, 8192
10, 84880, Pitch_bend_c, 12, 8448
10, 84960, Pitch_bend_c, 12, 8192
10, 85040, Pitch_bend_c, 12, 8448
10, 85120, Pitch_bend_c, 12, 8192
10, 85200, Pitch_bend_c, 12, 8448
10, 85260, Note_off_c, 12, 69, 80
10, 85260, Pitch_bend_c, 12, 8192
10, 85260, Note_on_c, 11, 69, 95
10, 85350, Note_off_c, 11, 69, 80
10, 85350, Note_on_c, 11, 67, 111
10, 85440, Note_off_c, 11, 67, 80
10, 85440, Note_on_c, 12, 69, 111
10, 85540, Pitch_bend_c, 12, 7680
10, 85640, Pitch_bend_c, 12, 8704
10, 85740, Pitch_bend_c, 12, 7680
10, 85840, Pitch_bend_c, 12, 8704
10, 85920, Pitch_bend_c, 12, 8192
10, 85920, Note_off_c, 12, 69, 80
10, 86400, Control_c, 11, 7, 64
10, 86400, Control_c, 12, 7, 64
10, 86400, Note_on_c, 12, 65, 63
10, 86480, Pitch_bend_c, 12, 8192
10, 86560, Pitch_bend_c, 12, 8448
10, 86640, Pitch_bend_c, 12, 8192
10, 86720, Pitch_bend_c, 12, 8448
10, 86800, Pitch_bend_c, 12, 8192
10, 86880, Pitch_bend_c, 12, 8448
10, 86960, Pitch_bend_c, 12, 8192
10, 87040, Pitch_bend_c, 12, 8448
10, 87120, Pitch_bend_c, 12, 8192
10, 87200, Pitch_bend_c, 12, 8448
10, 87280, Pitch_bend_c, 12, 8192
10, 87360, Pitch_bend_c, 12, 8448
10, 87440, Pitch_bend_c, 12, 8192
10, 87520, Pitch_bend_c, 12, 8448
10, 87600, Pitch_bend_c, 12, 8192
10, 87680, Pitch_bend_c, 12, 8448
10, 87760, Pitch_bend_c, 12, 8192
10, 87840, Note_off_c, 12, 65, 80
10, 87840, Pitch_bend_c, 12, 8448
10, 87840, Pitch_bend_c, 12, 8192
10, 87840, Note_on_c, 11, 69, 63
10, 88320, Note_off_c, 11, 69, 80
10, 88320, Note_on_c, 12, 67, 63
10, 88400, Pitch_bend_c, 12, 8192
10, 88480, Pitch_bend_c, 12, 8448
10, 88560, Pitch_bend_c, 12, 8192
10, 88640, Pitch_bend_c, 12, 8448
10, 88720, Pitch_bend_c, 12, 8192
10, 88800, Pitch_bend_c, 12, 8448
10, 88880, Pitch_bend_c, 12, 8192
10, 88960, Pitch_bend_c, 12, 8448
10, 89040, Pitch_bend_c, 12, 8192
10, 89120, Pitch_bend_c, 12, 8448
10, 89200, Pitch_bend_c, 12, 8192
10, 89280, Pitch_bend_c, 12, 8448
10, 89360, Pitch_bend_c, 12, 8192
10, 89440, Pitch_bend_c, 12, 8448
10, 89520, Pitch_bend_c, 12, 8192
10, 89600, Pitch_bend_c, 12, 8448
10, 89680, Pitch_bend_c, 12, 8192
10, 89760, Note_off_c, 12, 67, 80
10, 89760, Pitch_bend_c, 12, 8448
10, 89760, Pitch_bend_c, 12, 8192
10, 90240, Note_on_c, 12, 65, 63
10, 90320, Pitch_bend_c, 12, 8192
10, 90400, Pitch_bend_c, 12, 8448
10, 90480, Pitch_bend_c, 12, 8192
10, 90560, Pitch_bend_c, 12, 8448
10, 90640, Pitch_bend_c, 12, 8192
10, 90720, Pitch_bend_c, 12, 8448
10, 90800, Pitch_bend_c, 12, 8192
10, 90880, Pitch_bend_c, 12, 8448
10, 90960, Pitch_bend_c, 12, 8192
10, 91040, Pitch_bend_c, 12, 8448
10, 91120, Pitch_bend_c, 12, 8192
10, 91200, Pitch_bend_c, 12, 8448
10, 91280, Pitch_bend_c, 12, 8192
10, 91360, Pitch_bend_c, 12, 8448
10, 91440, Pitch_bend_c, 12, 8192
10, 91520, Pitch_bend_c, 12, 8448
10, 91600, Pitch_bend_c, 12, 8192
10, 91680, Note_off_c, 12, 65, 80
10, 91680, Pitch_bend_c, 12, 8448
10, 91680, Pitch_bend_c, 12, 8192
10, 91680, Note_on_c, 11, 69, 63
10, 92160, Note_off_c, 11, 69, 80
10, 92160, Note_on_c, 12, 67, 63
10, 92240, Pitch_bend_c, 12, 8192
10, 92320, Pitch_bend_c, 12, 8448
10, 92400, Pitch_bend_c, 12, 8192
10, 92480, Pitch_bend_c, 12, 8448
10, 92560, Pitch_bend_c, 12, 8192
10, 92640, Pitch_bend_c, 12, 8448
10, 92720, Pitch_bend_c, 12, 8192
10, 92800, Pitch_bend_c, 12, 8448
10, 92880, Pitch_bend_c, 12, 8192
10, 92960, Pitch_bend_c, 12, 8448
10, 93040, Pitch_bend_c, 12, 8192
10, 93120, Pitch_bend_c, 12, 8448
10, 93200, Pitch_bend_c, 12, 8192
10, 93280, Pitch_bend_c, 12, 8448
10, 93360, Pitch_bend_c, 12, 8192
10, 93440, Pitch_bend_c, 12, 8448
10, 93520, Pitch_bend_c, 12, 8192
10, 93600, Note_off_c, 12, 67, 80
10, 93600, Pitch_bend_c, 12, 8448
10, 93600, Pitch_bend_c, 12, 8192
10, 94080, Note_on_c, 12, 65, 63
10, 94160, Pitch_bend_c, 12, 8192
10, 94240, Pitch_bend_c, 12, 8448
10, 94320, Pitch_bend_c, 12, 8192
10, 94400, Pitch_bend_c, 12, 8448
10, 94480, Pitch_bend_c, 12, 8192
10, 94560, Pitch_bend_c, 12, 8448
10, 94640, Pitch_bend_c, 12, 8192
10, 94720, Pitch_bend_c, 12, 8448
10, 94800, Pitch_bend_c, 12, 8192
10, 94880, Pitch_bend_c, 12, 8448
10, 94960, Pitch_bend_c, 12, 8192
10, 95040, Pitch_bend_c, 12, 8448
10, 95120, Pitch_bend_c, 12, 8192
10, 95200, Pitch_bend_c, 12, 8448
10, 95280, Pitch_bend_c, 12, 8192
10, 95360, Pitch_bend_c, 12, 8448
10, 95440, Pitch_bend_c, 12, 8192
10, 95520, Note_off_c, 12, 65, 80
10, 95520, Pitch_bend_c, 12, 8448
10, 95520, Pitch_bend_c, 12, 8192
10, 95520, Note_on_c, 11, 69, 63
10, 96000, Note_off_c, 11, 69, 80
10, 96000, Note_on_c, 12, 67, 63
10, 96080, Pitch_bend_c, 12, 8192
10, 96160, Pitch_bend_c, 12, 8448
10, 96240, Pitch_bend_c, 12, 8192
10, 96320, Pitch_bend_c, 12, 8448
10, 96400, Pitch_bend_c, 12, 8192
10, 96480, Pitch_bend_c, 12, 8448
10, 96560, Pitch_bend_c, 12, 8192
10, 96640, Pitch_bend_c, 12, 8448
10, 96720, Pitch_bend_c, 12, 8192
10, 96800, Pitch_bend_c, 12, 8448
10, 96880, Pitch_bend_c, 12, 8192
10, 96960, Pitch_bend_c, 12, 8448
10, 97040, Pitch_bend_c, 12, 8192
10, 97120, Pitch_bend_c, 12, 8448
10, 97200, Pitch_bend_c, 12, 8192
10, 97280, Pitch_bend_c, 12, 8448
10, 97360, Pitch_bend_c, 12, 8192
10, 97440, Note_off_c, 12, 67, 80
10, 97440, Pitch_bend_c, 12, 8448
10, 97440, Pitch_bend_c, 12, 8192
10, 97920, Note_on_c, 11, 65, 47
10, 98160, Note_off_c, 11, 65, 80
10, 98160, Note_on_c, 11, 69, 31
10, 98400, Note_off_c, 11, 69, 80
10, 98400, Note_on_c, 11, 65, 47
10, 98880, Note_off_c, 11, 65, 80
10, 98880, Note_on_c, 11, 65, 47
10, 99120, Note_off_c, 11, 65, 80
10, 99120, Note_on_c, 11, 65, 47
10, 99360, Note_off_c, 11, 65, 80
10, 99360, Note_on_c, 11, 69, 31
10, 99600, Note_off_c, 11, 69, 80
10, 99600, Note_on_c, 11, 65, 47
10, 99840, Note_off_c, 11, 65, 80
10, 99840, Note_on_c, 11, 67, 47
10, 100080, Note_off_c, 11, 67, 80
10, 100080, Note_on_c, 11, 67, 47
10, 100320, Note_off_c, 11, 67, 80
10, 100320, Note_on_c, 11, 71, 31
10, 100560, Note_off_c, 11, 71, 80
10, 100560, Note_on_c, 11, 67, 47
10, 100800, Note_off_c, 11, 67, 80
10, 100800, Note_on_c, 11, 69, 47
10, 101040, Note_off_c, 11, 69, 80
10, 101040, Note_on_c, 11, 69, 47
10, 101280, Note_off_c, 11, 69, 80
10, 101280, Note_on_c, 11, 72, 31
10, 101520, Note_off_c, 11, 72, 80
10, 101520, Note_on_c, 11, 69, 47
10, 101760, Note_off_c, 11, 69, 80
10, 101790, Note_on_c, 12, 57, 111
10, 101870, Pitch_bend_c, 12, 8192
10, 101950, Pitch_bend_c, 12, 8448
10, 102030, Pitch_bend_c, 12, 8192
10, 102110, Pitch_bend_c, 12, 8448
10, 102190, Pitch_bend_c, 12, 8192
10, 102270, Pitch_bend_c, 12, 8448
10, 102350, Pitch_bend_c, 12, 8192
10, 102430, Pitch_bend_c, 12, 8448
10, 102510, Pitch_bend_c, 12, 8192
10, 102590, Pitch_bend_c, 12, 8448
10, 102670, Pitch_bend_c, 12, 8192
10, 102750, Pitch_bend_c, 12, 8448
10, 102830, Pitch_bend_c, 12, 8192
10, 102910, Pitch_bend_c, 12, 8448
10, 102990, Pitch_bend_c, 12, 8192
10, 103070, Pitch_bend_c, 12, 8448
10, 103150, Pitch_bend_c, 12, 8192
10, 103230, Pitch_bend_c, 12, 8448
10, 103230, Note_on_c, 12, 57, 111
10, 103310, Pitch_bend_c, 12, 8192
10, 103310, Pitch_bend_c, 12, 8192
10, 103390, Pitch_bend_c, 12, 8448
10, 103390, Pitch_bend_c, 12, 8448
10, 103470, Note_off_c, 12, 57, 80
10, 103470, Pitch_bend_c, 12, 8192
10, 103470, Pitch_bend_c, 12, 8192
10, 103470, Note_off_c, 12, 57, 80
10, 103470, Pitch_bend_c, 12, 8192
10, 103470, Pitch_bend_c, 12, 8192
10, 103470, Note_on_c, 12, 57, 111
10, 103470, Pitch_bend_c, 12, 8192
10, 103518, Pitch_bend_c, 12, 8320
10, 103614, Pitch_bend_c, 12, 8448
10, 103710, Pitch_bend_c, 12, 8704
10, 103742, Pitch_bend_c, 12, 8576
10, 103774, Pitch_bend_c, 12, 8448
10, 103806, Pitch_bend_c, 12, 8576
10, 103838, Pitch_bend_c, 12, 8704
10, 103870, Pitch_bend_c, 12, 8576
10, 103902, Pitch_bend_c, 12, 8448
10, 103934, Pitch_bend_c, 12, 8576
10, 103950, Note_off_c, 12, 57, 80
10, 103950, Pitch_bend_c, 12, 8192
10, 103950, Note_on_c, 12, 55, 111
10, 104030, Pitch_bend_c, 12, 8192
10, 104110, Pitch_bend_c, 12, 8448
10, 104190, Pitch_bend_c, 12, 8192
10, 104270, Pitch_bend_c, 12, 8448
10, 104350, Pitch_bend_c, 12, 8192
10, 104430, Pitch_bend_c, 12, 8448
10, 104510, Pitch_bend_c, 12, 8192
10, 104590, Pitch_bend_c, 12, 8448
10, 104670, Pitch_bend_c, 12, 8192
10, 104750, Pitch_bend_c, 12, 8448
10, 104830, Pitch_bend_c, 12, 8192
10, 104910, Pitch_bend_c, 12, 8448
10, 104990, Pitch_bend_c, 12, 8192
10, 105070, Pitch_bend_c, 12, 8448
10, 105150, Pitch_bend_c, 12, 8192
10, 105230, Pitch_bend_c, 12, 8448
10, 105310, Pitch_bend_c, 12, 8192
10, 105390, Pitch_bend_c, 12, 8448
10, 105470, Pitch_bend_c, 12, 8192
10, 105550, Pitch_bend_c, 12, 8448
10, 105630, Note_off_c, 12, 55, 80
10, 105630, Pitch_bend_c, 12, 8192
10, 105630, Pitch_bend_c, 12, 8192
10, 105630, Control_c, 11, 7, 80
10, 105630, Control_c, 12, 7, 80
10, 105630, Note_on_c, 12, 57, 111
10, 105630, Pitch_bend_c, 12, 8192
10, 105790, Pitch_bend_c, 12, 8320
10, 106126, Pitch_bend_c, 12, 8448
10, 106430, Pitch_bend_c, 12, 8576
10, 106462, Pitch_bend_c, 12, 8704
10, 106494, Pitch_bend_c, 12, 8576
10, 106526, Pitch_bend_c, 12, 8448
10, 106558, Pitch_bend_c, 12, 8576
10, 106590, Pitch_bend_c, 12, 8704
10, 106622, Pitch_bend_c, 12, 8576
10, 106654, Pitch_bend_c, 12, 8448
10, 106686, Pitch_bend_c, 12, 8576
10, 106718, Pitch_bend_c, 12, 8704
10, 106750, Pitch_bend_c, 12, 8576
10, 106782, Pitch_bend_c, 12, 8448
10, 106814, Pitch_bend_c, 12, 8576
10, 106846, Pitch_bend_c, 12, 8704
10, 106878, Pitch_bend_c, 12, 8576
10, 106910, Pitch_bend_c, 12, 8448
10, 106942, Pitch_bend_c, 12, 8576
10, 106974, Pitch_bend_c, 12, 8704
10, 107006, Pitch_bend_c, 12, 8576
10, 107038, Pitch_bend_c, 12, 8448
10, 107070, Pitch_bend_c, 12, 8576
10, 107070, Note_on_c, 12, 57, 111
10, 107102, Pitch_bend_c, 12, 8704
10, 107134, Pitch_bend_c, 12, 8576
10, 107150, Pitch_bend_c, 12, 8192
10, 107166, Pitch_bend_c, 12, 8448
10, 107198, Pitch_bend_c, 12, 8576
10, 107230, Pitch_bend_c, 12, 8704
10, 107230, Pitch_bend_c, 12, 8448
10, 107262, Pitch_bend_c, 12, 8576
10, 107294, Pitch_bend_c, 12, 8448
10, 107310, Note_off_c, 12, 57, 80
10, 107310, Pitch_bend_c, 12, 8192
10, 107310, Note_off_c, 12, 57, 80
10, 107310, Pitch_bend_c, 12, 8192
10, 107310, Pitch_bend_c, 12, 8192
10, 107310, Note_on_c, 12, 57, 111
10, 107310, Pitch_bend_c, 12, 8192
10, 107358, Pitch_bend_c, 12, 8320
10, 107454, Pitch_bend_c, 12, 8448
10, 107550, Pitch_bend_c, 12, 8704
10, 107582, Pitch_bend_c, 12, 8576
10, 107614, Pitch_bend_c, 12, 8448
10, 107646, Pitch_bend_c, 12, 8576
10, 107678, Pitch_bend_c, 12, 8704
10, 107710, Pitch_bend_c, 12, 8576
10, 107742, Pitch_bend_c, 12, 8448
10, 107774, Pitch_bend_c, 12, 8576
10, 107790, Note_off_c, 12, 57, 80
10, 107790, Pitch_bend_c, 12, 8192
10, 107790, Note_on_c, 12, 55, 111
10, 107870, Pitch_bend_c, 12, 8192
10, 107950, Pitch_bend_c, 12, 8448
10, 108030, Pitch_bend_c, 12, 8192
10, 108110, Pitch_bend_c, 12, 8448
10, 108190, Pitch_bend_c, 12, 8192
10, 108270, Pitch_bend_c, 12, 8448
10, 108350, Pitch_bend_c, 12, 8192
10, 108430, Pitch_bend_c, 12, 8448
10, 108510, Pitch_bend_c, 12, 8192
10, 108590, Pitch_bend_c, 12, 8448
10, 108670, Pitch_bend_c, 12, 8192
10, 108750, Pitch_bend_c, 12, 8448
10, 108830, Pitch_bend_c, 12, 8192
10, 108910, Pitch_bend_c, 12, 8448
10, 108990, Pitch_bend_c, 12, 8192
10, 109070, Pitch_bend_c, 12, 8448
10, 109150, Pitch_bend_c, 12, 8192
10, 109230, Pitch_bend_c, 12, 8448
10, 109310, Pitch_bend_c, 12, 8192
10, 109390, Pitch_bend_c, 12, 8448
10, 109470, Note_off_c, 12, 55, 80
10, 109470, Pitch_bend_c, 12, 8192
10, 109470, Pitch_bend_c, 12, 8192
10, 109470, Note_on_c, 12, 57, 111
10, 109550, Pitch_bend_c, 12, 8192
10, 109630, Pitch_bend_c, 12, 8448
10, 109710, Pitch_bend_c, 12, 8192
10, 109790, Pitch_bend_c, 12, 8448
10, 109870, Pitch_bend_c, 12, 8192
10, 109950, Pitch_bend_c, 12, 8448
10, 110030, Pitch_bend_c, 12, 8192
10, 110110, Pitch_bend_c, 12, 8448
10, 110190, Pitch_bend_c, 12, 8192
10, 110270, Pitch_bend_c, 12, 8448
10, 110350, Pitch_bend_c, 12, 8192
10, 110430, Pitch_bend_c, 12, 8448
10, 110430, Note_on_c, 12, 57, 111
10, 110510, Pitch_bend_c, 12, 8192
10, 110510, Pitch_bend_c, 12, 8192
10, 110590, Pitch_bend_c, 12, 8448
10, 110590, Pitch_bend_c, 12, 8448
10, 110670, Pitch_bend_c, 12, 8192
10, 110670, Pitch_bend_c, 12, 8192
10, 110750, Pitch_bend_c, 12, 8448
10, 110750, Pitch_bend_c, 12, 8448
10, 110790, Note_off_c, 12, 57, 80
10, 110790, Pitch_bend_c, 12, 8192
10, 110830, Pitch_bend_c, 12, 8192
10, 110880, Note_off_c, 12, 57, 80
10, 110880, Pitch_bend_c, 12, 8192
10, 110880, Note_on_c, 11, 59, 111
10, 111060, Note_off_c, 11, 59, 80
10, 111060, Note_on_c, 12, 60, 111
10, 111140, Pitch_bend_c, 12, 8192
10, 111220, Pitch_bend_c, 12, 8448
10, 111300, Pitch_bend_c, 12, 8192
10, 111330, Note_off_c, 12, 60, 80
10, 111330, Pitch_bend_c, 12, 8192
10, 111330, Note_on_c, 12, 62, 111
10, 111410, Pitch_bend_c, 12, 8192
10, 111490, Pitch_bend_c, 12, 8448
10, 111570, Pitch_bend_c, 12, 8192
10, 111650, Pitch_bend_c, 12, 8448
10, 111730, Pitch_bend_c, 12, 8192
10, 111810, Pitch_bend_c, 12, 8448
10, 111890, Pitch_bend_c, 12, 8192
10, 111970, Pitch_bend_c, 12, 8448
10, 112050, Pitch_bend_c, 12, 8192
10, 112130, Pitch_bend_c, 12, 8448
10, 112210, Pitch_bend_c, 12, 8192
10, 112290, Pitch_bend_c, 12, 8448
10, 112370, Pitch_bend_c, 12, 8192
10, 112450, Pitch_bend_c, 12, 8448
10, 112530, Pitch_bend_c, 12, 8192
10, 112590, Note_off_c, 12, 62, 80
10, 112590, Pitch_bend_c, 12, 8192
10, 112710, Note_on_c, 12, 60, 111
10, 112790, Pitch_bend_c, 12, 8192
10, 112870, Pitch_bend_c, 12, 8448
10, 112950, Pitch_bend_c, 12, 8192
10, 113030, Pitch_bend_c, 12, 8448
10, 113070, Note_off_c, 12, 60, 80
10, 113070, Pitch_bend_c, 12, 8192
10, 113070, Note_on_c, 12, 62, 111
10, 113150, Pitch_bend_c, 12, 8192
10, 113230, Pitch_bend_c, 12, 8448
10, 113310, Pitch_bend_c, 12, 8192
10, 113390, Pitch_bend_c, 12, 8448
10, 113430, Note_off_c, 12, 62, 80
10, 113430, Pitch_bend_c, 12, 8192
10, 113430, Note_on_c, 12, 63, 111
10, 113430, Pitch_bend_c, 12, 8192
10, 113462, Pitch_bend_c, 12, 8320
10, 113510, Pitch_bend_c, 12, 8448
10, 113574, Pitch_bend_c, 12, 8576
10, 113606, Pitch_bend_c, 12, 8704
10, 113670, Pitch_bend_c, 12, 8832
10, 113702, Pitch_bend_c, 12, 8960
10, 113734, Pitch_bend_c, 12, 8832
10, 113766, Pitch_bend_c, 12, 8704
10, 113798, Pitch_bend_c, 12, 8832
10, 113830, Pitch_bend_c, 12, 8960
10, 113862, Pitch_bend_c, 12, 8832
10, 113894, Pitch_bend_c, 12, 8704
10, 113926, Pitch_bend_c, 12, 8832
10, 113958, Pitch_bend_c, 12, 8960
10, 113970, Note_off_c, 12, 63, 80
10, 113970, Pitch_bend_c, 12, 8192
10, 113970, Note_on_c, 11, 57, 111
10, 114330, Note_off_c, 11, 57, 80
10, 114330, Note_on_c, 11, 57, 111
10, 114690, Note_off_c, 11, 57, 80
10, 114690, Note_on_c, 11, 57, 111
10, 114990, Note_off_c, 11, 57, 80
10, 114990, Note_on_c, 12, 57, 111
10, 114990, Pitch_bend_c, 12, 8192
10, 115038, Pitch_bend_c, 12, 8320
10, 115134, Pitch_bend_c, 12, 8448
10, 115230, Pitch_bend_c, 12, 8576
10, 115470, Note_off_c, 12, 57, 80
10, 115470, Pitch_bend_c, 12, 8192
10, 115470, Note_on_c, 12, 55, 111
10, 115550, Pitch_bend_c, 12, 8192
10, 115630, Pitch_bend_c, 12, 8448
10, 115710, Pitch_bend_c, 12, 8192
10, 115790, Pitch_bend_c, 12, 8448
10, 115870, Pitch_bend_c, 12, 8192
10, 115950, Pitch_bend_c, 12, 8448
10, 116030, Pitch_bend_c, 12, 8192
10, 116110, Pitch_bend_c, 12, 8448
10, 116190, Pitch_bend_c, 12, 8192
10, 116270, Pitch_bend_c, 12, 8448
10, 116350, Pitch_bend_c, 12, 8192
10, 116430, Pitch_bend_c, 12, 8448
10, 116510, Pitch_bend_c, 12, 8192
10, 116590, Pitch_bend_c, 12, 8448
10, 116670, Pitch_bend_c, 12, 8192
10, 116750, Pitch_bend_c, 12, 8448
10, 116830, Pitch_bend_c, 12, 8192
10, 116910, Note_off_c, 12, 55, 80
10, 116910, Pitch_bend_c, 12, 8448
10, 116910, Pitch_bend_c, 12, 8192
10, 117150, Note_on_c, 12, 57, 111
10, 117230, Pitch_bend_c, 12, 8192
10, 117310, Pitch_bend_c, 12, 8448
10, 117390, Pitch_bend_c, 12, 8192
10, 117470, Pitch_bend_c, 12, 8448
10, 117550, Pitch_bend_c, 12, 8192
10, 117630, Pitch_bend_c, 12, 8448
10, 117710, Pitch_bend_c, 12, 8192
10, 117790, Pitch_bend_c, 12, 8448
10, 117870, Pitch_bend_c, 12, 8192
10, 117950, Pitch_bend_c, 12, 8448
10, 118030, Pitch_bend_c, 12, 8192
10, 118110, Pitch_bend_c, 12, 8448
10, 118110, Note_on_c, 12, 57, 111
10, 118190, Pitch_bend_c, 12, 8192
10, 118190, Pitch_bend_c, 12, 8192
10, 118270, Pitch_bend_c, 12, 8448
10, 118270, Pitch_bend_c, 12, 8448
10, 118350, Pitch_bend_c, 12, 8192
10, 118350, Pitch_bend_c, 12, 8192
10, 118430, Pitch_bend_c, 12, 8448
10, 118430, Pitch_bend_c, 12, 8448
10, 118470, Note_off_c, 12, 57, 80
10, 118470, Pitch_bend_c, 12, 8192
10, 118510, Pitch_bend_c, 12, 8192
10, 118560, Note_off_c, 12, 57, 80
10, 118560, Pitch_bend_c, 12, 8192
10, 118560, Note_on_c, 11, 59, 111
10, 118740, Note_off_c, 11, 59, 80
10, 118740, Note_on_c, 12, 60, 111
10, 118820, Pitch_bend_c, 12, 8192
10, 118900, Pitch_bend_c, 12, 8448
10, 118980, Pitch_bend_c, 12, 8192
10, 119010, Note_off_c, 12, 60, 80
10, 119010, Pitch_bend_c, 12, 8192
10, 119010, Note_on_c, 12, 62, 111
10, 119090, Pitch_bend_c, 12, 8192
10, 119170, Pitch_bend_c, 12, 8448
10, 119250, Pitch_bend_c, 12, 8192
10, 119330, Pitch_bend_c, 12, 8448
10, 119410, Pitch_bend_c, 12, 8192
10, 119490, Pitch_bend_c, 12, 8448
10, 119570, Pitch_bend_c, 12, 8192
10, 119650, Pitch_bend_c, 12, 8448
10, 119730, Pitch_bend_c, 12, 8192
10, 119810, Pitch_bend_c, 12, 8448
10, 119890, Pitch_bend_c, 12, 8192
10, 119970, Pitch_bend_c, 12, 8448
10, 120050, Pitch_bend_c, 12, 8192
10, 120130, Pitch_bend_c, 12, 8448
10, 120210, Pitch_bend_c, 12, 8192
10, 120270, Note_off_c, 12, 62, 80
10, 120270, Pitch_bend_c, 12, 8192
10, 120390, Note_on_c, 12, 60, 111
10, 120470, Pitch_bend_c, 12, 8192
10, 120550, Pitch_bend_c, 12, 8448
10, 120630, Pitch_bend_c, 12, 8192
10, 120710, Pitch_bend_c, 12, 8448
10, 120750, Note_off_c, 12, 60, 80
10, 120750, Pitch_bend_c, 12, 8192
10, 120750, Note_on_c, 12, 62, 111
10, 120830, Pitch_bend_c, 12, 8192
10, 120910, Pitch_bend_c, 12, 8448
10, 120990, Pitch_bend_c, 12, 8192
10, 121070, Pitch_bend_c, 12, 8448
10, 121110, Note_off_c, 12, 62, 80
10, 121110, Pitch_bend_c, 12, 8192
10, 121110, Note_on_c, 12, 63, 111
10, 121110, Pitch_bend_c, 12, 8192
10, 121142, Pitch_bend_c, 12, 8320
10, 121190, Pitch_bend_c, 12, 8448
10, 121254, Pitch_bend_c, 12, 8576
10, 121286, Pitch_bend_c, 12, 8704
10, 121350, Pitch_bend_c, 12, 8832
10, 121650, Note_off_c, 12, 63, 80
10, 121650, Pitch_bend_c, 12, 8192
10, 121650, Note_on_c, 12, 57, 111
10, 121730, Pitch_bend_c, 12, 8192
10, 121810, Pitch_bend_c, 12, 8448
10, 121890, Pitch_bend_c, 12, 8192
10, 121970, Pitch_bend_c, 12, 8448
10, 122010, Note_off_c, 12, 57, 80
10, 122010, Pitch_bend_c, 12, 8192
10, 122010, Note_on_c, 12, 57, 111
10, 122090, Pitch_bend_c, 12, 8192
10, 122170, Pitch_bend_c, 12, 8448
10, 122250, Pitch_bend_c, 12, 8192
10, 122330, Pitch_bend_c, 12, 8448
10, 122370, Note_off_c, 12, 57, 80
10, 122370, Pitch_bend_c, 12, 8192
10, 122370, Note_on_c, 12, 57, 111
10, 122450, Pitch_bend_c, 12, 8192
10, 122530, Pitch_bend_c, 12, 8448
10, 122610, Pitch_bend_c, 12, 8192
10, 122670, Note_off_c, 12, 57, 80
10, 122670, Pitch_bend_c, 12, 8192
10, 122670, Note_on_c, 12, 57, 111
10, 122670, Pitch_bend_c, 12, 8192
10, 122718, Pitch_bend_c, 12, 8320
10, 122814, Pitch_bend_c, 12, 8448
10, 122910, Pitch_bend_c, 12, 8704
10, 122942, Pitch_bend_c, 12, 8576
10, 122974, Pitch_bend_c, 12, 8448
10, 123006, Pitch_bend_c, 12, 8576
10, 123038, Pitch_bend_c, 12, 8704
10, 123070, Pitch_bend_c, 12, 8576
10, 123102, Pitch_bend_c, 12, 8448
10, 123134, Pitch_bend_c, 12, 8576
10, 123150, Note_off_c, 12, 57, 80
10, 123150, Pitch_bend_c, 12, 8192
10, 123150, Note_on_c, 12, 55, 111
10, 123230, Pitch_bend_c, 12, 8192
10, 123310, Pitch_bend_c, 12, 8448
10, 123390, Pitch_bend_c, 12, 8192
10, 123470, Pitch_bend_c, 12, 8448
10, 123550, Pitch_bend_c, 12, 8192
10, 123630, Pitch_bend_c, 12, 8448
10, 123710, Pitch_bend_c, 12, 8192
10, 123790, Pitch_bend_c, 12, 8448
10, 123870, Pitch_bend_c, 12, 8192
10, 123950, Pitch_bend_c, 12, 8448
10, 124030, Pitch_bend_c, 12, 8192
10, 124110, Pitch_bend_c, 12, 8448
10, 124190, Pitch_bend_c, 12, 8192
10, 124270, Pitch_bend_c, 12, 8448
10, 124350, Pitch_bend_c, 12, 8192
10, 124430, Pitch_bend_c, 12, 8448
10, 124510, Pitch_bend_c, 12, 8192
10, 124590, Note_off_c, 12, 55, 80
10, 124590, Pitch_bend_c, 12, 8448
10, 124590, Pitch_bend_c, 12, 8192
10, 124830, Note_on_c, 12, 64, 111
10, 124910, Pitch_bend_c, 12, 8192
10, 124990, Pitch_bend_c, 12, 8448
10, 125070, Pitch_bend_c, 12, 8192
10, 125150, Pitch_bend_c, 12, 8448
10, 125190, Note_off_c, 12, 64, 80
10, 125190, Pitch_bend_c, 12, 8192
10, 125190, Note_on_c, 11, 65, 111
10, 125310, Note_off_c, 11, 65, 80
10, 125310, Note_on_c, 12, 65, 111
10, 125390, Pitch_bend_c, 12, 8192
10, 125470, Pitch_bend_c, 12, 8448
10, 125550, Note_off_c, 12, 65, 80
10, 125550, Pitch_bend_c, 12, 8192
10, 125550, Pitch_bend_c, 12, 8192
10, 125550, Note_on_c, 12, 64, 111
10, 125630, Pitch_bend_c, 12, 8192
10, 125710, Pitch_bend_c, 12, 8448
10, 125790, Note_off_c, 12, 64, 80
10, 125790, Pitch_bend_c, 12, 8192
10, 125790, Pitch_bend_c, 12, 8192
10, 125790, Note_on_c, 12, 62, 111
10, 125870, Pitch_bend_c, 12, 8192
10, 125950, Pitch_bend_c, 12, 8448
10, 126030, Note_off_c, 12, 62, 80
10, 126030, Pitch_bend_c, 12, 8192
10, 126030, Pitch_bend_c, 12, 8192
10, 126030, Note_on_c, 12, 64, 111
10, 126110, Pitch_bend_c, 12, 8192
10, 126190, Pitch_bend_c, 12, 8448
10, 126270, Note_off_c, 12, 64, 80
10, 126270, Pitch_bend_c, 12, 8192
10, 126270, Pitch_bend_c, 12, 8192
10, 126270, Note_on_c, 12, 65, 111
10, 126270, Pitch_bend_c, 12, 8192
10, 126286, Pitch_bend_c, 12, 8320
10, 126318, Pitch_bend_c, 12, 8448
10, 126334, Pitch_bend_c, 12, 8576
10, 126350, Pitch_bend_c, 12, 8704
10, 126382, Pitch_bend_c, 12, 8832
10, 126510, Note_off_c, 12, 65, 80
10, 126510, Pitch_bend_c, 12, 8192
10, 126510, Note_on_c, 12, 67, 111
10, 126590, Pitch_bend_c, 12, 8192
10, 126670, Pitch_bend_c, 12, 8448
10, 126750, Pitch_bend_c, 12, 8192
10, 126830, Pitch_bend_c, 12, 8448
10, 126910, Pitch_bend_c, 12, 8192
10, 126990, Pitch_bend_c, 12, 8448
10, 127070, Pitch_bend_c, 12, 8192
10, 127150, Pitch_bend_c, 12, 8448
10, 127230, Pitch_bend_c, 12, 8192
10, 127310, Pitch_bend_c, 12, 8448
10, 127390, Pitch_bend_c, 12, 8192
10, 127470, Pitch_bend_c, 12, 8448
10, 127550, Pitch_bend_c, 12, 8192
10, 127630, Pitch_bend_c, 12, 8448
10, 127710, Pitch_bend_c, 12, 8192
10, 127790, Pitch_bend_c, 12, 8448
10, 127870, Pitch_bend_c, 12, 8192
10, 127890, Note_off_c, 12, 67, 80
10, 127890, Pitch_bend_c, 12, 8192
10, 127890, Note_on_c, 11, 64, 111
10, 128250, Note_off_c, 11, 64, 80
10, 128250, Note_on_c, 11, 65, 111
10, 128370, Note_off_c, 11, 65, 80
10, 128370, Note_on_c, 11, 65, 111
10, 128610, Note_off_c, 11, 65, 80
10, 128610, Note_on_c, 11, 64, 111
10, 130110, Note_off_c, 11, 64, 80
10, 130110, Note_on_c, 12, 64, 111
10, 130190, Pitch_bend_c, 12, 8192
10, 130270, Pitch_bend_c, 12, 8448
10, 130350, Note_off_c, 12, 64, 80
10, 130350, Pitch_bend_c, 12, 8192
10, 130350, Pitch_bend_c, 12, 8192
10, 130350, Note_on_c, 12, 62, 111
10, 130350, Pitch_bend_c, 12, 8192
10, 130366, Pitch_bend_c, 12, 8320
10, 130398, Pitch_bend_c, 12, 8448
10, 130414, Pitch_bend_c, 12, 8576
10, 130430, Pitch_bend_c, 12, 8704
10, 130462, Pitch_bend_c, 12, 8832
10, 130478, Pitch_bend_c, 12, 8960
10, 130510, Pitch_bend_c, 12, 9088
10, 130526, Pitch_bend_c, 12, 9216
10, 130542, Pitch_bend_c, 12, 9344
10, 130574, Pitch_bend_c, 12, 9472
10, 130590, Pitch_bend_c, 12, 9600
10, 130606, Pitch_bend_c, 12, 9472
10, 130622, Pitch_bend_c, 12, 9344
10, 130654, Pitch_bend_c, 12, 9216
10, 130670, Pitch_bend_c, 12, 9088
10, 130686, Pitch_bend_c, 12, 8960
10, 130718, Pitch_bend_c, 12, 8832
10, 130750, Pitch_bend_c, 12, 8704
10, 130798, Pitch_bend_c, 12, 8576
10, 130830, Note_off_c, 12, 62, 80
10, 130830, Pitch_bend_c, 12, 8192
10, 130830, Note_on_c, 12, 62, 111
10, 130830, Pitch_bend_c, 12, 8192
10, 130926, Pitch_bend_c, 12, 8320
10, 131118, Pitch_bend_c, 12, 8448
10, 131294, Pitch_bend_c, 12, 8576
10, 131310, Pitch_bend_c, 12, 8704
10, 131342, Pitch_bend_c, 12, 8576
10, 131374, Pitch_bend_c, 12, 8448
10, 131406, Pitch_bend_c, 12, 8576
10, 131438, Pitch_bend_c, 12, 8704
10, 131470, Pitch_bend_c, 12, 8576
10, 131502, Pitch_bend_c, 12, 8448
10, 131534, Pitch_bend_c, 12, 8576
10, 131566, Pitch_bend_c, 12, 8704
10, 131598, Pitch_bend_c, 12, 8576
10, 131630, Pitch_bend_c, 12, 8448
10, 131662, Pitch_bend_c, 12, 8576
10, 131694, Pitch_bend_c, 12, 8704
10, 131726, Pitch_bend_c, 12, 8576
10, 131758, Pitch_bend_c, 12, 8448
10, 131790, Note_off_c, 12, 62, 80
10, 131790, Pitch_bend_c, 12, 8576
10, 131790, Pitch_bend_c, 12, 8192
10, 132270, Note_on_c, 11, 62, 111
10, 132390, Note_off_c, 11, 62, 80
10, 132390, Note_on_c, 11, 64, 111
10, 132480, Note_off_c, 11, 64, 80
10, 132480, Note_on_c, 11, 66, 111
10, 132840, Note_off_c, 11, 66, 80
10, 132840, Note_on_c, 11, 67, 111
10, 133800, Note_off_c, 11, 67, 80
10, 133800, Note_on_c, 12, 71, 111
10, 133880, Pitch_bend_c, 12, 8192
10, 133960, Pitch_bend_c, 12, 8448
10, 134040, Note_off_c, 12, 71, 80
10, 134040, Pitch_bend_c, 12, 8192
10, 134040, Pitch_bend_c, 12, 8192
10, 134040, Note_on_c, 12, 72, 111
10, 134120, Pitch_bend_c, 12, 8192
10, 134200, Pitch_bend_c, 12, 8448
10, 134280, Pitch_bend_c, 12, 8192
10, 134360, Pitch_bend_c, 12, 8448
10, 134400, Note_off_c, 12, 72, 80
10, 134400, Pitch_bend_c, 12, 8192
10, 134400, Note_on_c, 12, 71, 111
10, 134480, Pitch_bend_c, 12, 8192
10, 134560, Pitch_bend_c, 12, 8448
10, 134640, Note_off_c, 12, 71, 80
10, 134640, Pitch_bend_c, 12, 8192
10, 134640, Pitch_bend_c, 12, 8192
10, 134640, Note_on_c, 12, 72, 111
10, 134720, Pitch_bend_c, 12, 8192
10, 134800, Pitch_bend_c, 12, 8448
10, 134880, Note_off_c, 12, 72, 80
10, 134880, Pitch_bend_c, 12, 8192
10, 134880, Pitch_bend_c, 12, 8192
10, 134880, Note_on_c, 12, 71, 111
10, 134960, Pitch_bend_c, 12, 8192
10, 135040, Pitch_bend_c, 12, 8448
10, 135120, Pitch_bend_c, 12, 8192
10, 135120, Note_on_c, 12, 59, 95
10, 135120, Pitch_bend_c, 12, 6144
10, 135160, Pitch_bend_c, 12, 6784
10, 135200, Pitch_bend_c, 12, 8448
10, 135200, Pitch_bend_c, 12, 7552
10, 135240, Note_off_c, 12, 71, 80
10, 135240, Pitch_bend_c, 12, 8192
10, 135240, Pitch_bend_c, 12, 8192
10, 135360, Note_off_c, 12, 59, 80
10, 135360, Note_on_c, 11, 71, 111
10, 135360, Note_on_c, 11, 59, 95
10, 135480, Note_off_c, 11, 71, 80
10, 135480, Note_off_c, 11, 59, 80
10, 135480, Note_on_c, 12, 72, 111
10, 135560, Pitch_bend_c, 12, 8192
10, 135640, Pitch_bend_c, 12, 8448
10, 135720, Note_off_c, 12, 72, 80
10, 135720, Pitch_bend_c, 12, 8192
10, 135720, Pitch_bend_c, 12, 8192
10, 135720, Note_on_c, 12, 71, 111
10, 135800, Pitch_bend_c, 12, 8192
10, 135880, Pitch_bend_c, 12, 8448
10, 135960, Pitch_bend_c, 12, 8192
10, 136040, Pitch_bend_c, 12, 8448
10, 136120, Pitch_bend_c, 12, 8192
10, 136140, Note_off_c, 12, 71, 80
10, 136140, Pitch_bend_c, 12, 8192
10, 136140, Note_on_c, 12, 71, 111
10, 136220, Pitch_bend_c, 12, 8192
10, 136300, Pitch_bend_c, 12, 8448
10, 136380, Note_off_c, 12, 71, 80
10, 136380, Pitch_bend_c, 12, 8192
10, 136380, Pitch_bend_c, 12, 8192
10, 136380, Note_on_c, 12, 72, 111
10, 136460, Pitch_bend_c, 12, 8192
10, 136540, Pitch_bend_c, 12, 8448
10, 136620, Pitch_bend_c, 12, 8192
10, 136700, Pitch_bend_c, 12, 8448
10, 136740, Note_off_c, 12, 72, 80
10, 136740, Pitch_bend_c, 12, 8192
10, 136740, Note_on_c, 12, 71, 111
10, 136820, Pitch_bend_c, 12, 8192
10, 136900, Pitch_bend_c, 12, 8448
10, 136980, Pitch_bend_c, 12, 8192
10, 137040, Note_off_c, 12, 71, 80
10, 137040, Pitch_bend_c, 12, 8192
10, 137040, Note_on_c, 12, 69, 111
10, 137040, Pitch_bend_c, 12, 8192
10, 137072, Pitch_bend_c, 12, 8320
10, 137120, Pitch_bend_c, 12, 8448
10, 137168, Pitch_bend_c, 12, 8704
10, 137200, Pitch_bend_c, 12, 8576
10, 137232, Pitch_bend_c, 12, 8448
10, 137264, Pitch_bend_c, 12, 8576
10, 137280, Note_off_c, 12, 69, 80
10, 137280, Pitch_bend_c, 12, 8192
10, 137280, Note_on_c, 12, 67, 111
10, 137360, Pitch_bend_c, 12, 8192
10, 137440, Pitch_bend_c, 12, 8448
10, 137520, Pitch_bend_c, 12, 8192
10, 137600, Pitch_bend_c, 12, 8448
10, 137680, Pitch_bend_c, 12, 8192
10, 137760, Pitch_bend_c, 12, 8448
10, 137840, Pitch_bend_c, 12, 8192
10, 137920, Pitch_bend_c, 12, 8448
10, 138000, Pitch_bend_c, 12, 8192
10, 138080, Pitch_bend_c, 12, 8448
10, 138160, Pitch_bend_c, 12, 8192
10, 138240, Pitch_bend_c, 12, 8448
10, 138320, Pitch_bend_c, 12, 8192
10, 138400, Pitch_bend_c, 12, 8448
10, 138480, Pitch_bend_c, 12, 8192
10, 138560, Pitch_bend_c, 12, 8448
10, 138640, Pitch_bend_c, 12, 8192
10, 138720, Pitch_bend_c, 12, 8448
10, 138800, Pitch_bend_c, 12, 8192
10, 138880, Pitch_bend_c, 12, 8448
10, 138960, Pitch_bend_c, 12, 8192
10, 139040, Pitch_bend_c, 12, 8448
10, 139120, Pitch_bend_c, 12, 8192
10, 139200, Pitch_bend_c, 12, 8448
10, 139280, Pitch_bend_c, 12, 8192
10, 139360, Pitch_bend_c, 12, 8448
10, 139440, Pitch_bend_c, 12, 8192
10, 139520, Pitch_bend_c, 12, 8448
10, 139600, Pitch_bend_c, 12, 8192
10, 139620, Note_on_c, 12, 69, 111
10, 139620, Pitch_bend_c, 12, 6144
10, 139660, Pitch_bend_c, 12, 6784
10, 139680, Pitch_bend_c, 12, 8448
10, 139700, Pitch_bend_c, 12, 7552
10, 139740, Note_off_c, 12, 67, 80
10, 139740, Pitch_bend_c, 12, 8192
10, 139740, Pitch_bend_c, 12, 8192
10, 139980, Note_off_c, 12, 69, 80
10, 139980, Note_on_c, 11, 71, 111
10, 140220, Note_off_c, 11, 71, 80
10, 140220, Note_on_c, 12, 72, 111
10, 140300, Pitch_bend_c, 12, 8192
10, 140380, Pitch_bend_c, 12, 8448
10, 140460, Pitch_bend_c, 12, 8192
10, 140540, Pitch_bend_c, 12, 8448
10, 140620, Pitch_bend_c, 12, 8192
10, 140700, Note_off_c, 12, 72, 80
10, 140700, Pitch_bend_c, 12, 8448
10, 140700, Pitch_bend_c, 12, 8192
10, 140700, Note_on_c, 11, 71, 111
10, 140880, Note_off_c, 11, 71, 80
10, 140880, Note_on_c, 11, 72, 111
10, 141000, Note_off_c, 11, 72, 80
10, 141000, Note_on_c, 11, 74, 111
10, 141660, Note_off_c, 11, 74, 80
10, 141660, Note_on_c, 11, 72, 111
10, 141840, Note_off_c, 11, 72, 80
10, 141840, Note_on_c, 11, 74, 111
10, 141960, Note_off_c, 11, 74, 80
10, 141960, Note_on_c, 12, 75, 111
10, 141960, Pitch_bend_c, 12, 8192
10, 141992, Pitch_bend_c, 12, 8320
10, 142072, Pitch_bend_c, 12, 8448
10, 142152, Pitch_bend_c, 12, 8576
10, 142232, Pitch_bend_c, 12, 8704
10, 142296, Pitch_bend_c, 12, 8832
10, 142360, Pitch_bend_c, 12, 8960
10, 142440, Pitch_bend_c, 12, 9088
10, 142504, Pitch_bend_c, 12, 9216
10, 142536, Pitch_bend_c, 12, 9344
10, 142568, Pitch_bend_c, 12, 9216
10, 142600, Pitch_bend_c, 12, 9088
10, 142632, Pitch_bend_c, 12, 9216
10, 142664, Pitch_bend_c, 12, 9344
10, 142696, Pitch_bend_c, 12, 9216
10, 142728, Pitch_bend_c, 12, 9088
10, 142760, Pitch_bend_c, 12, 9216
10, 142792, Pitch_bend_c, 12, 9344
10, 142824, Pitch_bend_c, 12, 9216
10, 142856, Pitch_bend_c, 12, 9088
10, 142888, Pitch_bend_c, 12, 9216
10, 142920, Pitch_bend_c, 12, 9344
10, 142952, Pitch_bend_c, 12, 9216
10, 142984, Pitch_bend_c, 12, 9088
10, 143016, Pitch_bend_c, 12, 9216
10, 143048, Pitch_bend_c, 12, 9344
10, 143080, Pitch_bend_c, 12, 9216
10, 143100, Note_off_c, 12, 75, 80
10, 143100, Pitch_bend_c, 12, 8192
10, 143100, Note_on_c, 11, 76, 111
10, 143280, Note_off_c, 11, 76, 80
10, 143280, Note_on_c, 11, 77, 111
10, 143460, Note_off_c, 11, 77, 80
10, 143460, Note_on_c, 11, 76, 111
10, 143580, Note_off_c, 11, 76, 80
10, 143580, Note_on_c, 11, 74, 111
10, 143700, Note_off_c, 11, 74, 80
10, 143700, Note_on_c, 11, 76, 111
10, 143820, Note_off_c, 11, 76, 80
10, 143820, Note_on_c, 11, 76, 111
10, 145020, Note_off_c, 11, 76, 80
10, 145380, Note_on_c, 12, 74, 111
10, 145460, Pitch_bend_c, 12, 8192
10, 145540, Pitch_bend_c, 12, 8448
10, 145620, Pitch_bend_c, 12, 8192
10, 145700, Pitch_bend_c, 12, 8448
10, 145740, Note_off_c, 12, 74, 80
10, 145740, Pitch_bend_c, 12, 8192
10, 145740, Note_on_c, 11, 76, 111
10, 145860, Note_off_c, 11, 76, 80
10, 145860, Note_on_c, 11, 74, 111
10, 145980, Note_off_c, 11, 74, 80
10, 145980, Note_on_c, 11, 76, 111
10, 146100, Note_off_c, 11, 76, 80
10, 146100, Note_on_c, 12, 74, 111
10, 146180, Pitch_bend_c, 12, 8192
10, 146260, Pitch_bend_c, 12, 8448
10, 146340, Pitch_bend_c, 12, 8192
10, 146420, Pitch_bend_c, 12, 8448
10, 146500, Pitch_bend_c, 12, 8192
10, 146580, Pitch_bend_c, 12, 8448
10, 146660, Pitch_bend_c, 12, 8192
10, 146740, Pitch_bend_c, 12, 8448
10, 146820, Pitch_bend_c, 12, 8192
10, 146900, Pitch_bend_c, 12, 8448
10, 146980, Pitch_bend_c, 12, 8192
10, 147060, Pitch_bend_c, 12, 8448
10, 147140, Pitch_bend_c, 12, 8192
10, 147180, Note_off_c, 12, 74, 80
10, 147180, Pitch_bend_c, 12, 8192
10, 147180, Note_on_c, 12, 74, 111
10, 147260, Pitch_bend_c, 12, 8192
10, 147340, Pitch_bend_c, 12, 8448
10, 147420, Pitch_bend_c, 12, 8192
10, 147500, Pitch_bend_c, 12, 8448
10, 147540, Note_off_c, 12, 74, 80
10, 147540, Pitch_bend_c, 12, 8192
10, 147540, Note_on_c, 11, 76, 111
10, 147660, Note_off_c, 11, 76, 80
10, 147660, Note_on_c, 11, 74, 111
10, 147780, Note_off_c, 11, 74, 80
10, 147780, Note_on_c, 11, 74, 111
10, 147900, Note_off_c, 11, 74, 80
10, 147900, Note_on_c, 11, 76, 111
10, 148020, Note_off_c, 11, 76, 80
10, 148020, Note_on_c, 12, 76, 111
10, 148020, Pitch_bend_c, 12, 8192
10, 148080, Control_c, 11, 7, 79
10, 148080, Control_c, 12, 7, 79
10, 148132, Pitch_bend_c, 12, 8320
10, 148200, Control_c, 11, 7, 77
10, 148200, Control_c, 12, 7, 77
10, 148320, Control_c, 11, 7, 76
10, 148320, Control_c, 12, 7, 76
10, 148340, Pitch_bend_c, 12, 8448
10, 148440, Control_c, 11, 7, 75
10, 148440, Control_c, 12, 7, 75
10, 148548, Pitch_bend_c, 12, 8576
10, 148560, Control_c, 11, 7, 73
10, 148560, Control_c, 12, 7, 73
10, 148564, Pitch_bend_c, 12, 8704
10, 148596, Pitch_bend_c, 12, 8576
10, 148628, Pitch_bend_c, 12, 8448
10, 148660, Pitch_bend_c, 12, 8576
10, 148680, Control_c, 11, 7, 72
10, 148680, Control_c, 12, 7, 72
10, 148692, Pitch_bend_c, 12, 8704
10, 148724, Pitch_bend_c, 12, 8576
10, 148756, Pitch_bend_c, 12, 8448
10, 148788, Pitch_bend_c, 12, 8576
10, 148800, Control_c, 11, 7, 71
10, 148800, Control_c, 12, 7, 71
10, 148820, Pitch_bend_c, 12, 8704
10, 148852, Pitch_bend_c, 12, 8576
10, 148884, Pitch_bend_c, 12, 8448
10, 148916, Pitch_bend_c, 12, 8576
10, 148920, Control_c, 11, 7, 70
10, 148920, Control_c, 12, 7, 70
10, 148948, Pitch_bend_c, 12, 8704
10, 148980, Pitch_bend_c, 12, 8576
10, 149012, Pitch_bend_c, 12, 8448
10, 149040, Control_c, 11, 7, 68
10, 149040, Control_c, 12, 7, 68
10, 149044, Pitch_bend_c, 12, 8576
10, 149076, Pitch_bend_c, 12, 8704
10, 149100, Note_off_c, 12, 76, 80
10, 149100, Pitch_bend_c, 12, 8192
10, 149100, Note_on_c, 12, 74, 111
10, 149160, Control_c, 11, 7, 67
10, 149160, Control_c, 12, 7, 67
10, 149180, Pitch_bend_c, 12, 8192
10, 149260, Pitch_bend_c, 12, 8448
10, 149280, Control_c, 11, 7, 66
10, 149280, Control_c, 12, 7, 66
10, 149340, Pitch_bend_c, 12, 8192
10, 149400, Control_c, 11, 7, 64
10, 149400, Control_c, 12, 7, 64
10, 149420, Pitch_bend_c, 12, 8448
10, 149460, Note_off_c, 12, 74, 80
10, 149460, Pitch_bend_c, 12, 8192
10, 149460, Note_on_c, 11, 76, 111
10, 149520, Control_c, 11, 7, 63
10, 149520, Control_c, 12, 7, 63
10, 149580, Note_off_c, 11, 76, 80
10, 149580, Note_on_c, 11, 74, 111
10, 149640, Control_c, 11, 7, 62
10, 149640, Control_c, 12, 7, 62
10, 149700, Note_off_c, 11, 74, 80
10, 149700, Note_on_c, 11, 76, 111
10, 149760, Control_c, 11, 7, 60
10, 149760, Control_c, 12, 7, 60
10, 149820, Note_off_c, 11, 76, 80
10, 149820, Note_on_c, 12, 74, 111
10, 149880, Control_c, 11, 7, 59
10, 149880, Control_c, 12, 7, 59
10, 149900, Pitch_bend_c, 12, 8192
10, 149980, Pitch_bend_c, 12, 8448
10, 150000, Control_c, 11, 7, 58
10, 150000, Control_c, 12, 7, 58
10, 150060, Pitch_bend_c, 12, 8192
10, 150120, Control_c, 11, 7, 56
10, 150120, Control_c, 12, 7, 56
10, 150140, Pitch_bend_c, 12, 8448
10, 150220, Pitch_bend_c, 12, 8192
10, 150240, Control_c, 11, 7, 55
10, 150240, Control_c, 12, 7, 55
10, 150300, Pitch_bend_c, 12, 8448
10, 150360, Control_c, 11, 7, 54
10, 150360, Control_c, 12, 7, 54
10, 150380, Pitch_bend_c, 12, 8192
10, 150460, Pitch_bend_c, 12, 8448
10, 150480, Control_c, 11, 7, 52
10, 150480, Control_c, 12, 7, 52
10, 150540, Pitch_bend_c, 12, 8192
10, 150600, Control_c, 11, 7, 51
10, 150600, Control_c, 12, 7, 51
10, 150620, Pitch_bend_c, 12, 8448
10, 150700, Pitch_bend_c, 12, 8192
10, 150720, Control_c, 11, 7, 50
10, 150720, Control_c, 12, 7, 50
10, 150780, Pitch_bend_c, 12, 8448
10, 150840, Control_c, 11, 7, 49
10, 150840, Control_c, 12, 7, 49
10, 150860, Pitch_bend_c, 12, 8192
10, 150940, Pitch_bend_c, 12, 8448
10, 150960, Control_c, 11, 7, 47
10, 150960, Control_c, 12, 7, 47
10, 151020, Note_off_c, 12, 74, 80
10, 151020, Pitch_bend_c, 12, 8192
10, 151020, Pitch_bend_c, 12, 8192
10, 151020, Note_on_c, 12, 74, 111
10, 151080, Control_c, 11, 7, 46
10, 151080, Control_c, 12, 7, 46
10, 151100, Pitch_bend_c, 12, 8192
10, 151180, Pitch_bend_c, 12, 8448
10, 151200, Control_c, 11, 7, 45
10, 151200, Control_c, 12, 7, 45
10, 151260, Pitch_bend_c, 12, 8192
10, 151320, Control_c, 11, 7, 43
10, 151320, Control_c, 12, 7, 43
10, 151340, Pitch_bend_c, 12, 8448
10, 151380, Note_off_c, 12, 74, 80
10, 151380, Pitch_bend_c, 12, 8192
10, 151380, Note_on_c, 11, 76, 111
10, 151440, Control_c, 11, 7, 42
10, 151440, Control_c, 12, 7, 42
10, 151500, Note_off_c, 11, 76, 80
10, 151500, Note_on_c, 11, 74, 111
10, 151560, Control_c, 11, 7, 41
10, 151560, Control_c, 12, 7, 41
10, 151620, Note_off_c, 11, 74, 80
10, 151620, Note_on_c, 11, 74, 111
10, 151680, Control_c, 11, 7, 39
10, 151680, Control_c, 12, 7, 39
10, 151740, Note_off_c, 11, 74, 80
10, 151740, Note_on_c, 11, 76, 111
10, 151800, Control_c, 11, 7, 38
10, 151800, Control_c, 12, 7, 38
10, 151860, Note_off_c, 11, 76, 80
10, 151860, Note_on_c, 12, 76, 111
10, 151860, Pitch_bend_c, 12, 8192
10, 151920, Control_c, 11, 7, 37
10, 151920, Control_c, 12, 7, 37
10, 151972, Pitch_bend_c, 12, 8320
10, 152040, Control_c, 11, 7, 35
10, 152040, Control_c, 12, 7, 35
10, 152160, Control_c, 11, 7, 34
10, 152160, Control_c, 12, 7, 34
10, 152180, Pitch_bend_c, 12, 8448
10, 152280, Control_c, 11, 7, 33
10, 152280, Control_c, 12, 7, 33
10, 152388, Pitch_bend_c, 12, 8576
10, 152400, Control_c, 11, 7, 31
10, 152400, Control_c, 12, 7, 31
10, 152404, Pitch_bend_c, 12, 8704
10, 152436, Pitch_bend_c, 12, 8576
10, 152468, Pitch_bend_c, 12, 8448
10, 152500, Pitch_bend_c, 12, 8576
10, 152520, Control_c, 11, 7, 30
10, 152520, Control_c, 12, 7, 30
10, 152532, Pitch_bend_c, 12, 8704
10, 152564, Pitch_bend_c, 12, 8576
10, 152596, Pitch_bend_c, 12, 8448
10, 152628, Pitch_bend_c, 12, 8576
10, 152640, Control_c, 11, 7, 29
10, 152640, Control_c, 12, 7, 29
10, 152660, Pitch_bend_c, 12, 8704
10, 152692, Pitch_bend_c, 12, 8576
10, 152724, Pitch_bend_c, 12, 8448
10, 152756, Pitch_bend_c, 12, 8576
10, 152760, Control_c, 11, 7, 28
10, 152760, Control_c, 12, 7, 28
10, 152788, Pitch_bend_c, 12, 8704
10, 152820, Pitch_bend_c, 12, 8576
10, 152852, Pitch_bend_c, 12, 8448
10, 152880, Control_c, 11, 7, 26
10, 152880, Control_c, 12, 7, 26
10, 152884, Pitch_bend_c, 12, 8576
10, 152916, Pitch_bend_c, 12, 8704
10, 152940, Note_off_c, 12, 76, 80
10, 152940, Pitch_bend_c, 12, 8192
10, 152940, Note_on_c, 12, 74, 111
10, 153000, Control_c, 11, 7, 25
10, 153000, Control_c, 12, 7, 25
10, 153020, Pitch_bend_c, 12, 8192
10, 153100, Pitch_bend_c, 12, 8448
10, 153120, Control_c, 11, 7, 24
10, 153120, Control_c, 12, 7, 24
10, 153180, Pitch_bend_c, 12, 8192
10, 153240, Control_c, 11, 7, 22
10, 153240, Control_c, 12, 7, 22
10, 153260, Pitch_bend_c, 12, 8448
10, 153300, Note_off_c, 12, 74, 80
10, 153300, Pitch_bend_c, 12, 8192
10, 153300, Note_on_c, 11, 76, 111
10, 153360, Control_c, 11, 7, 21
10, 153360, Control_c, 12, 7, 21
10, 153420, Note_off_c, 11, 76, 80
10, 153420, Note_on_c, 11, 74, 111
10, 153480, Control_c, 11, 7, 20
10, 153480, Control_c, 12, 7, 20
10, 153540, Note_off_c, 11, 74, 80
10, 153540, Note_on_c, 11, 76, 111
10, 153600, Control_c, 11, 7, 18
10, 153600, Control_c, 12, 7, 18
10, 153660, Note_off_c, 11, 76, 80
10, 153660, Note_on_c, 12, 74, 111
10, 153720, Control_c, 11, 7, 17
10, 153720, Control_c, 12, 7, 17
10, 153740, Pitch_bend_c, 12, 8192
10, 153820, Pitch_bend_c, 12, 8448
10, 153840, Control_c, 11, 7, 16
10, 153840, Control_c, 12, 7, 16
10, 153900, Pitch_bend_c, 12, 8192
10, 153960, Control_c, 11, 7, 14
10, 153960, Control_c, 12, 7, 14
10, 153980, Pitch_bend_c, 12, 8448
10, 154060, Pitch_bend_c, 12, 8192
10, 154080, Control_c, 11, 7, 13
10, 154080, Control_c, 12, 7, 13
10, 154140, Pitch_bend_c, 12, 8448
10, 154200, Control_c, 11, 7, 12
10, 154200, Control_c, 12, 7, 12
10, 154220, Pitch_bend_c, 12, 8192
10, 154300, Pitch_bend_c, 12, 8448
10, 154320, Control_c, 11, 7, 10
10, 154320, Control_c, 12, 7, 10
10, 154380, Pitch_bend_c, 12, 8192
10, 154440, Control_c, 11, 7, 9
10, 154440, Control_c, 12, 7, 9
10, 154460, Pitch_bend_c, 12, 8448
10, 154540, Pitch_bend_c, 12, 8192
10, 154560, Control_c, 11, 7, 8
10, 154560, Control_c, 12, 7, 8
10, 154620, Pitch_bend_c, 12, 8448
10, 154680, Control_c, 11, 7, 7
10, 154680, Control_c, 12, 7, 7
10, 154700, Pitch_bend_c, 12, 8192
10, 154780, Pitch_bend_c, 12, 8448
10, 154800, Control_c, 11, 7, 5
10, 154800, Control_c, 12, 7, 5
10, 154860, Note_off_c, 12, 74, 80
10, 154860, Pitch_bend_c, 12, 8192
10, 154860, Pitch_bend_c, 12, 8192
10, 154860, Note_on_c, 12, 74, 111
10, 154920, Control_c, 11, 7, 4
10, 154920, Control_c, 12, 7, 4
10, 154940, Pitch_bend_c, 12, 8192
10, 155020, Pitch_bend_c, 12, 8448
10, 155040, Control_c, 11, 7, 3
10, 155040, Control_c, 12, 7, 3
10, 155100, Pitch_bend_c, 12, 8192
10, 155160, Control_c, 11, 7, 1
10, 155160, Control_c, 12, 7, 1
10, 155180, Pitch_bend_c, 12, 8448
10, 155220, Note_off_c, 12, 74, 80
10, 155220, Pitch_bend_c, 12, 8192
10, 155220, Note_on_c, 11, 76, 111
10, 155280, Control_c, 11, 7, 0
10, 155280, Control_c, 12, 7, 0
10, 155340, Note_off_c, 11, 76, 80
10, 155340, Note_on_c, 11, 74, 111
10, 155460, Note_off_c, 11, 74, 80
10, 155460, Note_on_c, 11, 74, 111
10, 155520, Note_off_c, 11, 74, 80
10, 155520, End_track
11, 0, Start_track
11, 0, Title_t, "Track 8"
11, 0, Control_c, 13, 100, 0
11, 0, Control_c, 13, 101, 0
11, 0, Control_c, 13, 6, 12
11, 0, Pitch_bend_c, 13, 8192
11, 0, Control_c, 14, 100, 0
11, 0, Control_c, 14, 101, 0
11, 0, Control_c, 14, 6, 12
11, 0, Pitch_bend_c, 14, 8192
11, 0, Program_c, 13, 18
11, 0, Program_c, 14, 18
11, 0, Control_c, 13, 7, 104
11, 0, Control_c, 14, 7, 104
11, 0, Control_c, 13, 10, 64
11, 0, Control_c, 14, 10, 64
11, 0, Control_c, 13, 93, 0
11, 0, Control_c, 14, 93, 0
11, 0, Control_c, 13, 91, 0
11, 0, Control_c, 14, 91, 0
11, 0, Control_c, 13, 92, 24
11, 0, Control_c, 14, 92, 24
11, 0, Control_c, 13, 95, 0
11, 0, Control_c, 14, 95, 0
11, 1920, Note_on_c, 13, 65, 47
11, 9600, Note_off_c, 13, 65, 80
11, 9600, Note_on_c, 13, 93, 47
11, 9600, Note_on_c, 13, 88, 47
11, 9600, Note_on_c, 13, 84, 47
11, 11040, Note_off_c, 13, 93, 80
11, 11040, Note_off_c, 13, 88, 80
11, 11040, Note_off_c, 13, 84, 80
11, 11040, Note_on_c, 13, 91, 47
11, 11040, Note_on_c, 13, 86, 47
11, 11040, Note_on_c, 13, 83, 47
11, 13440, Note_off_c, 13, 91, 80
11, 13440, Note_off_c, 13, 86, 80
11, 13440, Note_off_c, 13, 83, 80
11, 13440, Note_on_c, 13, 93, 47
11, 13440, Note_on_c, 13, 88, 47
11, 13440, Note_on_c, 13, 84, 47
11, 14880, Note_off_c, 13, 93, 80
11, 14880, Note_off_c, 13, 88, 80
11, 14880, Note_off_c, 13, 84, 80
11, 14880, Note_on_c, 13, 91, 47
11, 14880, Note_on_c, 13, 86, 47
11, 14880, Note_on_c, 13, 83, 47
11, 17280, Note_off_c, 13, 91, 80
11, 17280, Note_off_c, 13, 86, 80
11, 17280, Note_off_c, 13, 83, 80
11, 17280, Note_on_c, 13, 93, 47
11, 17280, Note_on_c, 13, 88, 47
11, 17280, Note_on_c, 13, 84, 47
11, 18720, Note_off_c, 13, 93, 80
11, 18720, Note_off_c, 13, 88, 80
11, 18720, Note_off_c, 13, 84, 80
11, 18720, Note_on_c, 13, 91, 47
11, 18720, Note_on_c, 13, 86, 47
11, 18720, Note_on_c, 13, 83, 47
11, 21120, Note_off_c, 13, 91, 80
11, 21120, Note_off_c, 13, 86, 80
11, 21120, Note_off_c, 13, 83, 80
11, 21120, Note_on_c, 13, 93, 47
11, 21120, Note_on_c, 13, 88, 47
11, 21120, Note_on_c, 13, 84, 47
11, 22560, Note_off_c, 13, 93, 80
11, 22560, Note_off_c, 13, 88, 80
11, 22560, Note_off_c, 13, 84, 80
11, 22560, Note_on_c, 13, 91, 47
11, 22560, Note_on_c, 13, 86, 47
11, 22560, Note_on_c, 13, 83, 47
11, 24960, Note_off_c, 13, 91, 80
11, 24960, Note_off_c, 13, 86, 80
11, 24960, Note_off_c, 13, 83, 80
11, 24960, Note_on_c, 13, 93, 47
11, 24960, Note_on_c, 13, 88, 47
11, 24960, Note_on_c, 13, 84, 47
11, 26400, Note_off_c, 13, 93, 80
11, 26400, Note_off_c, 13, 88, 80
11, 26400, Note_off_c, 13, 84, 80
11, 26400, Note_on_c, 13, 91, 47
11, 26400, Note_on_c, 13, 86, 47
11, 26400, Note_on_c, 13, 83, 47
11, 28800, Note_off_c, 13, 91, 80
11, 28800, Note_off_c, 13, 86, 80
11, 28800, Note_off_c, 13, 83, 80
11, 28800, Note_on_c, 13, 93, 47
11, 28800, Note_on_c, 13, 88, 47
11, 28800, Note_on_c, 13, 84, 47
11, 30240, Note_off_c, 13, 93, 80
11, 30240, Note_off_c, 13, 88, 80
11, 30240, Note_off_c, 13, 84, 80
11, 30240, Note_on_c, 13, 91, 47
11, 30240, Note_on_c, 13, 86, 47
11, 30240, Note_on_c, 13, 83, 47
11, 32640, Note_off_c, 13, 91, 80
11, 32640, Note_off_c, 13, 86, 80
11, 32640, Note_off_c, 13, 83, 80
11, 32640, Note_on_c, 13, 93, 47
11, 32640, Note_on_c, 13, 88, 47
11, 32640, Note_on_c, 13, 84, 47
11, 34080, Note_off_c, 13, 93, 80
11, 34080, Note_off_c, 13, 88, 80
11, 34080, Note_off_c, 13, 84, 80
11, 34080, Note_on_c, 13, 91, 47
11, 34080, Note_on_c, 13, 86, 47
11, 34080, Note_on_c, 13, 83, 47
11, 36480, Note_off_c, 13, 91, 80
11, 36480, Note_off_c, 13, 86, 80
11, 36480, Note_off_c, 13, 83, 80
11, 36480, Note_on_c, 13, 93, 47
11, 36480, Note_on_c, 13, 88, 47
11, 36480, Note_on_c, 13, 84, 47
11, 37920, Note_off_c, 13, 93, 80
11, 37920, Note_off_c, 13, 88, 80
11, 37920, Note_off_c, 13, 84, 80
11, 37920, Note_on_c, 13, 91, 47
11, 37920, Note_on_c, 13, 86, 47
11, 37920, Note_on_c, 13, 83, 47
11, 40320, Note_off_c, 13, 91, 80
11, 40320, Note_off_c, 13, 86, 80
11, 40320, Note_off_c, 13, 83, 80
11, 40320, Program_c, 13, 18
11, 40320, Program_c, 14, 18
11, 40320, Control_c, 13, 7, 40
11, 40320, Control_c, 14, 7, 40
11, 40320, Note_on_c, 13, 86, 95
11, 40320, Note_on_c, 13, 81, 95
11, 40320, Note_on_c, 13, 77, 95
11, 40320, Note_on_c, 13, 69, 79
11, 40320, Note_on_c, 13, 65, 79
11, 41700, Note_off_c, 13, 86, 80
11, 41700, Note_off_c, 13, 81, 80
11, 41700, Note_off_c, 13, 77, 80
11, 41700, Note_off_c, 13, 69, 80
11, 41700, Note_off_c, 13, 65, 80
11, 41760, Note_on_c, 13, 86, 95
11, 41760, Note_on_c, 13, 81, 95
11, 41760, Note_on_c, 13, 77, 95
11, 41760, Note_on_c, 13, 69, 79
11, 41760, Note_on_c, 13, 65, 79
11, 42120, Note_off_c, 13, 77, 80
11, 42120, Note_off_c, 13, 65, 80
11, 42180, Note_off_c, 13, 86, 80
11, 42180, Note_off_c, 13, 81, 80
11, 42180, Note_off_c, 13, 69, 80
11, 42240, Note_on_c, 13, 84, 95
11, 42240, Note_on_c, 13, 79, 95
11, 42240, Note_on_c, 13, 76, 95
11, 42240, Note_on_c, 13, 67, 79
11, 42240, Note_on_c, 13, 64, 95
11, 44160, Note_off_c, 13, 84, 80
11, 44160, Note_off_c, 13, 79, 80
11, 44160, Note_off_c, 13, 76, 80
11, 44160, Note_off_c, 13, 67, 80
11, 44160, Note_off_c, 13, 64, 80
11, 44160, Note_on_c, 13, 86, 95
11, 44160, Note_on_c, 13, 81, 95
11, 44160, Note_on_c, 13, 77, 95
11, 44160, Note_on_c, 13, 69, 79
11, 44160, Note_on_c, 13, 65, 79
11, 45540, Note_off_c, 13, 86, 80
11, 45540, Note_off_c, 13, 81, 80
11, 45540, Note_off_c, 13, 77, 80
11, 45540, Note_off_c, 13, 69, 80
11, 45540, Note_off_c, 13, 65, 80
11, 45600, Note_on_c, 13, 86, 95
11, 45600, Note_on_c, 13, 81, 95
11, 45600, Note_on_c, 13, 77, 95
11, 45600, Note_on_c, 13, 69, 79
11, 45600, Note_on_c, 13, 65, 79
11, 45960, Note_off_c, 13, 77, 80
11, 45960, Note_off_c, 13, 65, 80
11, 46020, Note_off_c, 13, 86, 80
11, 46020, Note_off_c, 13, 81, 80
11, 46020, Note_off_c, 13, 69, 80
11, 46080, Note_on_c, 13, 84, 95
11, 46080, Note_on_c, 13, 79, 95
11, 46080, Note_on_c, 13, 76, 95
11, 46080, Note_on_c, 13, 67, 79
11, 46080, Note_on_c, 13, 64, 95
11, 48000, Note_off_c, 13, 84, 80
11, 48000, Note_off_c, 13, 79, 80
11, 48000, Note_off_c, 13, 76, 80
11, 48000, Note_off_c, 13, 67, 80
11, 48000, Note_off_c, 13, 64, 80
11, 48000, Note_on_c, 13, 86, 95
11, 48000, Note_on_c, 13, 81, 95
11, 48000, Note_on_c, 13, 77, 95
11, 48000, Note_on_c, 13, 69, 79
11, 48000, Note_on_c, 13, 65, 79
11, 49380, Note_off_c, 13, 86, 80
11, 49380, Note_off_c, 13, 81, 80
11, 49380, Note_off_c, 13, 77, 80
11, 49380, Note_off_c, 13, 69, 80
11, 49380, Note_off_c, 13, 65, 80
11, 49440, Note_on_c, 13, 86, 95
11, 49440, Note_on_c, 13, 81, 95
11, 49440, Note_on_c, 13, 77, 95
11, 49440, Note_on_c, 13, 69, 79
11, 49440, Note_on_c, 13, 65, 79
11, 49800, Note_off_c, 13, 77, 80
11, 49800, Note_off_c, 13, 65, 80
11, 49860, Note_off_c, 13, 86, 80
11, 49860, Note_off_c, 13, 81, 80
11, 49860, Note_off_c, 13, 69, 80
11, 49920, Note_on_c, 13, 84, 95
11, 49920, Note_on_c, 13, 79, 95
11, 49920, Note_on_c, 13, 76, 95
11, 49920, Note_on_c, 13, 67, 79
11, 49920, Note_on_c, 13, 64, 95
11, 51840, Note_off_c, 13, 84, 80
11, 51840, Note_off_c, 13, 79, 80
11, 51840, Note_off_c, 13, 76, 80
11, 51840, Note_off_c, 13, 67, 80
11, 51840, Note_off_c, 13, 64, 80
11, 51840, Control_c, 13, 7, 104
11, 51840, Control_c, 14, 7, 104
11, 51840, Note_on_c, 13, 65, 95
11, 52080, Note_off_c, 13, 65, 80
11, 52080, Note_on_c, 13, 69, 95
11, 52320, Note_off_c, 13, 69, 80
11, 52320, Note_on_c, 13, 65, 95
11, 52800, Note_off_c, 13, 65, 80
11, 52800, Note_on_c, 13, 65, 79
11, 53040, Note_off_c, 13, 65, 80
11, 53040, Note_on_c, 13, 65, 79
11, 53280, Note_off_c, 13, 65, 80
11, 53280, Note_on_c, 13, 69, 79
11, 53520, Note_off_c, 13, 69, 80
11, 53520, Note_on_c, 13, 65, 79
11, 53760, Note_off_c, 13, 65, 80
11, 53760, Note_on_c, 13, 67, 79
11, 54000, Note_off_c, 13, 67, 80
11, 54000, Note_on_c, 13, 67, 79
11, 54240, Note_off_c, 13, 67, 80
11, 54240, Note_on_c, 13, 71, 79
11, 54480, Note_off_c, 13, 71, 80
11, 54480, Note_on_c, 13, 67, 79
11, 54720, Note_off_c, 13, 67, 80
11, 54720, Note_on_c, 13, 69, 79
11, 54960, Note_off_c, 13, 69, 80
11, 54960, Note_on_c, 13, 69, 79
11, 55200, Note_off_c, 13, 69, 80
11, 55200, Note_on_c, 13, 72, 79
11, 55440, Note_off_c, 13, 72, 80
11, 55440, Note_on_c, 13, 69, 79
11, 55680, Note_off_c, 13, 69, 80
11, 55680, Note_on_c, 13, 93, 47
11, 55680, Note_on_c, 13, 88, 47
11, 55680, Note_on_c, 13, 84, 47
11, 57120, Note_off_c, 13, 93, 80
11, 57120, Note_off_c, 13, 88, 80
11, 57120, Note_off_c, 13, 84, 80
11, 57120, Note_on_c, 13, 91, 47
11, 57120, Note_on_c, 13, 86, 47
11, 57120, Note_on_c, 13, 83, 47
11, 59520, Note_off_c, 13, 91, 80
11, 59520, Note_off_c, 13, 86, 80
11, 59520, Note_off_c, 13, 83, 80
11, 59520, Note_on_c, 13, 93, 47
11, 59520, Note_on_c, 13, 88, 47
11, 59520, Note_on_c, 13, 84, 47
11, 60960, Note_off_c, 13, 93, 80
11, 60960, Note_off_c, 13, 88, 80
11, 60960, Note_off_c, 13, 84, 80
11, 60960, Note_on_c, 13, 91, 47
11, 60960, Note_on_c, 13, 86, 47
11, 60960, Note_on_c, 13, 83, 47
11, 63360, Note_off_c, 13, 91, 80
11, 63360, Note_off_c, 13, 86, 80
11, 63360, Note_off_c, 13, 83, 80
11, 63360, Note_on_c, 13, 93, 47
11, 63360, Note_on_c, 13, 88, 47
11, 63360, Note_on_c, 13, 84, 47
11, 64800, Note_off_c, 13, 93, 80
11, 64800, Note_off_c, 13, 88, 80
11, 64800, Note_off_c, 13, 84, 80
11, 64800, Note_on_c, 13, 91, 47
11, 64800, Note_on_c, 13, 86, 47
11, 64800, Note_on_c, 13, 83, 47
11, 67200, Note_off_c, 13, 91, 80
11, 67200, Note_off_c, 13, 86, 80
11, 67200, Note_off_c, 13, 83, 80
11, 67200, Note_on_c, 13, 93, 47
11, 67200, Note_on_c, 13, 88, 47
11, 67200, Note_on_c, 13, 84, 47
11, 68640, Note_off_c, 13, 93, 80
11, 68640, Note_off_c, 13, 88, 80
11, 68640, Note_off_c, 13, 84, 80
11, 68640, Note_on_c, 13, 91, 47
11, 68640, Note_on_c, 13, 86, 47
11, 68640, Note_on_c, 13, 83, 47
11, 71040, Note_off_c, 13, 91, 80
11, 71040, Note_off_c, 13, 86, 80
11, 71040, Note_off_c, 13, 83, 80
11, 71040, Note_on_c, 13, 93, 47
11, 71040, Note_on_c, 13, 88, 47
11, 71040, Note_on_c, 13, 84, 47
11, 72480, Note_off_c, 13, 93, 80
11, 72480, Note_off_c, 13, 88, 80
11, 72480, Note_off_c, 13, 84, 80
11, 72480, Note_on_c, 13, 91, 47
11, 72480, Note_on_c, 13, 86, 47
11, 72480, Note_on_c, 13, 83, 47
11, 74880, Note_off_c, 13, 91, 80
11, 74880, Note_off_c, 13, 86, 80
11, 74880, Note_off_c, 13, 83, 80
11, 74880, Note_on_c, 13, 93, 47
11, 74880, Note_on_c, 13, 88, 47
11, 74880, Note_on_c, 13, 84, 47
11, 76320, Note_off_c, 13, 93, 80
11, 76320, Note_off_c, 13, 88, 80
11, 76320, Note_off_c, 13, 84, 80
11, 76320, Note_on_c, 13, 91, 47
11, 76320, Note_on_c, 13, 86, 47
11, 76320, Note_on_c, 13, 83, 47
11, 78720, Note_off_c, 13, 91, 80
11, 78720, Note_off_c, 13, 86, 80
11, 78720, Note_off_c, 13, 83, 80
11, 78720, Note_on_c, 13, 93, 47
11, 78720, Note_on_c, 13, 88, 47
11, 78720, Note_on_c, 13, 84, 47
11, 80160, Note_off_c, 13, 93, 80
11, 80160, Note_off_c, 13, 88, 80
11, 80160, Note_off_c, 13, 84, 80
11, 80160, Note_on_c, 13, 91, 47
11, 80160, Note_on_c, 13, 86, 47
11, 80160, Note_on_c, 13, 83, 47
11, 82560, Note_off_c, 13, 91, 80
11, 82560, Note_off_c, 13, 86, 80
11, 82560, Note_off_c, 13, 83, 80
11, 82560, Note_on_c, 13, 93, 47
11, 82560, Note_on_c, 13, 88, 47
11, 82560, Note_on_c, 13, 84, 47
11, 84000, Note_off_c, 13, 93, 80
11, 84000, Note_off_c, 13, 88, 80
11, 84000, Note_off_c, 13, 84, 80
11, 84000, Note_on_c, 13, 91, 47
11, 84000, Note_on_c, 13, 86, 47
11, 84000, Note_on_c, 13, 83, 47
11, 86400, Note_off_c, 13, 91, 80
11, 86400, Note_off_c, 13, 86, 80
11, 86400, Note_off_c, 13, 83, 80
11, 86400, Program_c, 13, 18
11, 86400, Program_c, 14, 18
11, 86400, Control_c, 13, 7, 48
11, 86400, Control_c, 14, 7, 48
11, 86400, Note_on_c, 13, 86, 95
11, 86400, Note_on_c, 13, 81, 95
11, 86400, Note_on_c, 13, 77, 95
11, 86400, Note_on_c, 13, 69, 79
11, 86400, Note_on_c, 13, 65, 95
11, 87780, Note_off_c, 13, 86, 80
11, 87780, Note_off_c, 13, 81, 80
11, 87780, Note_off_c, 13, 77, 80
11, 87780, Note_off_c, 13, 69, 80
11, 87780, Note_off_c, 13, 65, 80
11, 87840, Note_on_c, 13, 86, 95
11, 87840, Note_on_c, 13, 81, 95
11, 87840, Note_on_c, 13, 77, 95
11, 87840, Note_on_c, 13, 69, 79
11, 87840, Note_on_c, 13, 65, 79
11, 88200, Note_off_c, 13, 77, 80
11, 88200, Note_off_c, 13, 65, 80
11, 88260, Note_off_c, 13, 86, 80
11, 88260, Note_off_c, 13, 81, 80
11, 88260, Note_off_c, 13, 69, 80
11, 88320, Note_on_c, 13, 84, 95
11, 88320, Note_on_c, 13, 79, 95
11, 88320, Note_on_c, 13, 76, 95
11, 88320, Note_on_c, 13, 67, 79
11, 88320, Note_on_c, 13, 64, 95
11, 90240, Note_off_c, 13, 84, 80
11, 90240, Note_off_c, 13, 79, 80
11, 90240, Note_off_c, 13, 76, 80
11, 90240, Note_off_c, 13, 67, 80
11, 90240, Note_off_c, 13, 64, 80
11, 90240, Note_on_c, 13, 86, 95
11, 90240, Note_on_c, 13, 81, 95
11, 90240, Note_on_c, 13, 77, 95
11, 90240, Note_on_c, 13, 69, 79
11, 90240, Note_on_c, 13, 65, 79
11, 91620, Note_off_c, 13, 86, 80
11, 91620, Note_off_c, 13, 81, 80
11, 91620, Note_off_c, 13, 77, 80
11, 91620, Note_off_c, 13, 69, 80
11, 91620, Note_off_c, 13, 65, 80
11, 91680, Note_on_c, 13, 86, 95
11, 91680, Note_on_c, 13, 81, 95
11, 91680, Note_on_c, 13, 77, 95
11, 91680, Note_on_c, 13, 69, 79
11, 91680, Note_on_c, 13, 65, 79
11, 92040, Note_off_c, 13, 77, 80
11, 92040, Note_off_c, 13, 65, 80
11, 92100, Note_off_c, 13, 86, 80
11, 92100, Note_off_c, 13, 81, 80
11, 92100, Note_off_c, 13, 69, 80
11, 92160, Note_on_c, 13, 84, 95
11, 92160, Note_on_c, 13, 79, 95
11, 92160, Note_on_c, 13, 76, 95
11, 92160, Note_on_c, 13, 67, 79
11, 92160, Note_on_c, 13, 64, 95
11, 94080, Note_off_c, 13, 84, 80
11, 94080, Note_off_c, 13, 79, 80
11, 94080, Note_off_c, 13, 76, 80
11, 94080, Note_off_c, 13, 67, 80
11, 94080, Note_off_c, 13, 64, 80
11, 94080, Note_on_c, 13, 86, 95
11, 94080, Note_on_c, 13, 81, 95
11, 94080, Note_on_c, 13, 77, 95
11, 94080, Note_on_c, 13, 69, 79
11, 94080, Note_on_c, 13, 65, 79
11, 95460, Note_off_c, 13, 86, 80
11, 95460, Note_off_c, 13, 81, 80
11, 95460, Note_off_c, 13, 77, 80
11, 95460, Note_off_c, 13, 69, 80
11, 95460, Note_off_c, 13, 65, 80
11, 95520, Note_on_c, 13, 86, 95
11, 95520, Note_on_c, 13, 81, 95
11, 95520, Note_on_c, 13, 77, 95
11, 95520, Note_on_c, 13, 69, 79
11, 95520, Note_on_c, 13, 65, 79
11, 95880, Note_off_c, 13, 77, 80
11, 95880, Note_off_c, 13, 65, 80
11, 95940, Note_off_c, 13, 86, 80
11, 95940, Note_off_c, 13, 81, 80
11, 95940, Note_off_c, 13, 69, 80
11, 96000, Note_on_c, 13, 84, 95
11, 96000, Note_on_c, 13, 79, 95
11, 96000, Note_on_c, 13, 76, 95
11, 96000, Note_on_c, 13, 67, 79
11, 96000, Note_on_c, 13, 64, 95
11, 97920, Note_off_c, 13, 84, 80
11, 97920, Note_off_c, 13, 79, 80
11, 97920, Note_off_c, 13, 76, 80
11, 97920, Note_off_c, 13, 67, 80
11, 97920, Note_off_c, 13, 64, 80
11, 97920, Control_c, 13, 7, 104
11, 97920, Control_c, 14, 7, 104
11, 97920, Note_on_c, 13, 65, 95
11, 98160, Note_off_c, 13, 65, 80
11, 98160, Note_on_c, 13, 69, 95
11, 98400, Note_off_c, 13, 69, 80
11, 98400, Note_on_c, 13, 65, 95
11, 98880, Note_off_c, 13, 65, 80
11, 98880, Note_on_c, 13, 65, 79
11, 99120, Note_off_c, 13, 65, 80
11, 99120, Note_on_c, 13, 65, 79
11, 99360, Note_off_c, 13, 65, 80
11, 99360, Note_on_c, 13, 69, 79
11, 99600, Note_off_c, 13, 69, 80
11, 99600, Note_on_c, 13, 65, 79
11, 99840, Note_off_c, 13, 65, 80
11, 99840, Note_on_c, 13, 67, 79
11, 100080, Note_off_c, 13, 67, 80
11, 100080, Note_on_c, 13, 67, 79
11, 100320, Note_off_c, 13, 67, 80
11, 100320, Note_on_c, 13, 71, 79
11, 100560, Note_off_c, 13, 71, 80
11, 100560, Note_on_c, 13, 67, 79
11, 100800, Note_off_c, 13, 67, 80
11, 100800, Note_on_c, 13, 69, 79
11, 101040, Note_off_c, 13, 69, 80
11, 101040, Note_on_c, 13, 69, 79
11, 101280, Note_off_c, 13, 69, 80
11, 101280, Note_on_c, 13, 72, 79
11, 101520, Note_off_c, 13, 72, 80
11, 101520, Note_on_c, 13, 69, 79
11, 101760, Note_off_c, 13, 69, 80
11, 101760, Note_on_c, 13, 93, 47
11, 101760, Note_on_c, 13, 88, 47
11, 101760, Note_on_c, 13, 84, 47
11, 103200, Note_off_c, 13, 93, 80
11, 103200, Note_off_c, 13, 88, 80
11, 103200, Note_off_c, 13, 84, 80
11, 103200, Note_on_c, 13, 91, 47
11, 103200, Note_on_c, 13, 86, 47
11, 103200, Note_on_c, 13, 83, 47
11, 105600, Note_off_c, 13, 91, 80
11, 105600, Note_off_c, 13, 86, 80
11, 105600, Note_off_c, 13, 83, 80
11, 105840, Note_on_c, 13, 92, 47
11, 105840, Note_on_c, 13, 76, 79
11, 105840, Note_on_c, 13, 71, 79
11, 106080, Note_off_c, 13, 92, 80
11, 106080, Note_off_c, 13, 76, 80
11, 106080, Note_off_c, 13, 71, 80
11, 106080, Note_on_c, 13, 92, 47
11, 106080, Note_on_c, 13, 76, 79
11, 106080, Note_on_c, 13, 71, 79
11, 106320, Note_off_c, 13, 92, 80
11, 106320, Note_off_c, 13, 76, 80
11, 106320, Note_off_c, 13, 71, 80
11, 106320, Note_on_c, 13, 92, 47
11, 106320, Note_on_c, 13, 76, 79
11, 106320, Note_on_c, 13, 71, 79
11, 106560, Note_off_c, 13, 92, 80
11, 106560, Note_off_c, 13, 76, 80
11, 106560, Note_off_c, 13, 71, 80
11, 106560, Note_on_c, 13, 92, 47
11, 106560, Note_on_c, 13, 76, 79
11, 106560, Note_on_c, 13, 71, 79
11, 107280, Note_off_c, 13, 92, 80
11, 107280, Note_off_c, 13, 76, 80
11, 107280, Note_off_c, 13, 71, 80
11, 107280, Note_on_c, 13, 95, 47
11, 107280, Note_on_c, 13, 79, 79
11, 107280, Note_on_c, 13, 76, 79
11, 109440, Note_off_c, 13, 95, 80
11, 109440, Note_off_c, 13, 79, 80
11, 109440, Note_off_c, 13, 76, 80
11, 109680, Note_on_c, 13, 92, 47
11, 109680, Note_on_c, 13, 76, 79
11, 109680, Note_on_c, 13, 71, 79
11, 109920, Note_off_c, 13, 92, 80
11, 109920, Note_off_c, 13, 76, 80
11, 109920, Note_off_c, 13, 71, 80
11, 109920, Note_on_c, 13, 92, 47
11, 109920, Note_on_c, 13, 76, 79
11, 109920, Note_on_c, 13, 71, 79
11, 110160, Note_off_c, 13, 92, 80
11, 110160, Note_off_c, 13, 76, 80
11, 110160, Note_off_c, 13, 71, 80
11, 110160, Note_on_c, 13, 92, 47
11, 110160, Note_on_c, 13, 76, 79
11, 110160, Note_on_c, 13, 71, 79
11, 110400, Note_off_c, 13, 92, 80
11, 110400, Note_off_c, 13, 76, 80
11, 110400, Note_off_c, 13, 71, 80
11, 110400, Note_on_c, 13, 92, 63
11, 110400, Note_on_c, 13, 76, 79
11, 110400, Note_on_c, 13, 71, 79
11, 110880, Note_off_c, 13, 92, 80
11, 110880, Note_off_c, 13, 76, 80
11, 110880, Note_off_c, 13, 71, 80
11, 110880, Note_on_c, 13, 95, 47
11, 110880, Note_on_c, 13, 79, 79
11, 110880, Note_on_c, 13, 76, 79
11, 111120, Note_off_c, 13, 95, 80
11, 111120, Note_off_c, 13, 79, 80
11, 111120, Note_off_c, 13, 76, 80
11, 111120, Note_on_c, 13, 95, 47
11, 111120, Note_on_c, 13, 79, 79
11, 111120, Note_on_c, 13, 76, 79
11, 111600, Note_off_c, 13, 95, 80
11, 111600, Note_off_c, 13, 79, 80
11, 111600, Note_off_c, 13, 76, 80
11, 111600, Note_on_c, 13, 96, 47
11, 111600, Note_on_c, 13, 77, 79
11, 111600, Note_on_c, 13, 74, 79
11, 111840, Note_off_c, 13, 96, 80
11, 111840, Note_off_c, 13, 77, 80
11, 111840, Note_off_c, 13, 74, 80
11, 111840, Note_on_c, 13, 96, 47
11, 111840, Note_on_c, 13, 77, 79
11, 111840, Note_on_c, 13, 74, 79
11, 113280, Note_off_c, 13, 96, 80
11, 113280, Note_off_c, 13, 77, 80
11, 113280, Note_off_c, 13, 74, 80
11, 113520, Note_on_c, 13, 92, 47
11, 113520, Note_on_c, 13, 76, 79
11, 113520, Note_on_c, 13, 71, 79
11, 113760, Note_off_c, 13, 92, 80
11, 113760, Note_off_c, 13, 76, 80
11, 113760, Note_off_c, 13, 71, 80
11, 113760, Note_on_c, 13, 92, 47
11, 113760, Note_on_c, 13, 76, 79
11, 113760, Note_on_c, 13, 71, 79
11, 114000, Note_off_c, 13, 92, 80
11, 114000, Note_off_c, 13, 76, 80
11, 114000, Note_off_c, 13, 71, 80
11, 114000, Note_on_c, 13, 92, 47
11, 114000, Note_on_c, 13, 76, 79
11, 114000, Note_on_c, 13, 71, 79
11, 114240, Note_off_c, 13, 92, 80
11, 114240, Note_off_c, 13, 76, 80
11, 114240, Note_off_c, 13, 71, 80
11, 114240, Note_on_c, 13, 92, 47
11, 114240, Note_on_c, 13, 76, 79
11, 114240, Note_on_c, 13, 71, 79
11, 114960, Note_off_c, 13, 92, 80
11, 114960, Note_off_c, 13, 76, 80
11, 114960, Note_off_c, 13, 71, 80
11, 114960, Note_on_c, 13, 95, 47
11, 114960, Note_on_c, 13, 79, 79
11, 114960, Note_on_c, 13, 76, 79
11, 117120, Note_off_c, 13, 95, 80
11, 117120, Note_off_c, 13, 79, 80
11, 117120, Note_off_c, 13, 76, 80
11, 117360, Note_on_c, 13, 92, 47
11, 117360, Note_on_c, 13, 76, 79
11, 117360, Note_on_c, 13, 71, 79
11, 117600, Note_off_c, 13, 92, 80
11, 117600, Note_off_c, 13, 76, 80
11, 117600, Note_off_c, 13, 71, 80
11, 117600, Note_on_c, 13, 92, 47
11, 117600, Note_on_c, 13, 76, 79
11, 117600, Note_on_c, 13, 71, 79
11, 117840, Note_off_c, 13, 92, 80
11, 117840, Note_off_c, 13, 76, 80
11, 117840, Note_off_c, 13, 71, 80
11, 117840, Note_on_c, 13, 92, 47
11, 117840, Note_on_c, 13, 76, 79
11, 117840, Note_on_c, 13, 71, 79
11, 118080, Note_off_c, 13, 92, 80
11, 118080, Note_off_c, 13, 76, 80
11, 118080, Note_off_c, 13, 71, 80
11, 118080, Note_on_c, 13, 92, 63
11, 118080, Note_on_c, 13, 76, 79
11, 118080, Note_on_c, 13, 71, 79
11, 118560, Note_off_c, 13, 92, 80
11, 118560, Note_off_c, 13, 76, 80
11, 118560, Note_off_c, 13, 71, 80
11, 118560, Note_on_c, 13, 95, 47
11, 118560, Note_on_c, 13, 79, 79
11, 118560, Note_on_c, 13, 76, 79
11, 118800, Note_off_c, 13, 95, 80
11, 118800, Note_off_c, 13, 79, 80
11, 118800, Note_off_c, 13, 76, 80
11, 118800, Note_on_c, 13, 95, 47
11, 118800, Note_on_c, 13, 79, 79
11, 118800, Note_on_c, 13, 76, 79
11, 119280, Note_off_c, 13, 95, 80
11, 119280, Note_off_c, 13, 79, 80
11, 119280, Note_off_c, 13, 76, 80
11, 119280, Note_on_c, 13, 96, 47
11, 119280, Note_on_c, 13, 77, 79
11, 119280, Note_on_c, 13, 74, 79
11, 119520, Note_off_c, 13, 96, 80
11, 119520, Note_off_c, 13, 77, 80
11, 119520, Note_off_c, 13, 74, 80
11, 119520, Note_on_c, 13, 96, 47
11, 119520, Note_on_c, 13, 77, 79
11, 119520, Note_on_c, 13, 74, 79
11, 120960, Note_off_c, 13, 96, 80
11, 120960, Note_off_c, 13, 77, 80
11, 120960, Note_off_c, 13, 74, 80
11, 121200, Note_on_c, 13, 92, 47
11, 121200, Note_on_c, 13, 76, 79
11, 121200, Note_on_c, 13, 71, 79
11, 121440, Note_off_c, 13, 92, 80
11, 121440, Note_off_c, 13, 76, 80
11, 121440, Note_off_c, 13, 71, 80
11, 121440, Note_on_c, 13, 92, 47
11, 121440, Note_on_c, 13, 76, 79
11, 121440, Note_on_c, 13, 71, 79
11, 121680, Note_off_c, 13, 92, 80
11, 121680, Note_off_c, 13, 76, 80
11, 121680, Note_off_c, 13, 71, 80
11, 121680, Note_on_c, 13, 92, 47
11, 121680, Note_on_c, 13, 76, 79
11, 121680, Note_on_c, 13, 71, 79
11, 121920, Note_off_c, 13, 92, 80
11, 121920, Note_off_c, 13, 76, 80
11, 121920, Note_off_c, 13, 71, 80
11, 121920, Note_on_c, 13, 92, 47
11, 121920, Note_on_c, 13, 76, 79
11, 121920, Note_on_c, 13, 71, 79
11, 122640, Note_off_c, 13, 92, 80
11, 122640, Note_off_c, 13, 76, 80
11, 122640, Note_off_c, 13, 71, 80
11, 122640, Note_on_c, 13, 95, 47
11, 122640, Note_on_c, 13, 79, 79
11, 122640, Note_on_c, 13, 76, 79
11, 124800, Note_off_c, 13, 95, 80
11, 124800, Note_off_c, 13, 79, 80
11, 124800, Note_off_c, 13, 76, 80
11, 125040, Note_on_c, 13, 92, 47
11, 125040, Note_on_c, 13, 76, 79
11, 125040, Note_on_c, 13, 71, 79
11, 125280, Note_off_c, 13, 92, 80
11, 125280, Note_off_c, 13, 76, 80
11, 125280, Note_off_c, 13, 71, 80
11, 125280, Note_on_c, 13, 92, 47
11, 125280, Note_on_c, 13, 76, 79
11, 125280, Note_on_c, 13, 71, 79
11, 125520, Note_off_c, 13, 92, 80
11, 125520, Note_off_c, 13, 76, 80
11, 125520, Note_off_c, 13, 71, 80
11, 125520, Note_on_c, 13, 92, 47
11, 125520, Note_on_c, 13, 76, 79
11, 125520, Note_on_c, 13, 71, 79
11, 125760, Note_off_c, 13, 92, 80
11, 125760, Note_off_c, 13, 76, 80
11, 125760, Note_off_c, 13, 71, 80
11, 125760, Note_on_c, 13, 92, 63
11, 125760, Note_on_c, 13, 76, 79
11, 125760, Note_on_c, 13, 71, 79
11, 126240, Note_off_c, 13, 92, 80
11, 126240, Note_off_c, 13, 76, 80
11, 126240, Note_off_c, 13, 71, 80
11, 126240, Note_on_c, 13, 95, 47
11, 126240, Note_on_c, 13, 79, 79
11, 126240, Note_on_c, 13, 76, 79
11, 126480, Note_off_c, 13, 95, 80
11, 126480, Note_off_c, 13, 79, 80
11, 126480, Note_off_c, 13, 76, 80
11, 126480, Note_on_c, 13, 95, 47
11, 126480, Note_on_c, 13, 79, 79
11, 126480, Note_on_c, 13, 76, 79
11, 126960, Note_off_c, 13, 95, 80
11, 126960, Note_off_c, 13, 79, 80
11, 126960, Note_off_c, 13, 76, 80
11, 126960, Note_on_c, 13, 96, 47
11, 126960, Note_on_c, 13, 77, 79
11, 126960, Note_on_c, 13, 74, 79
11, 127200, Note_off_c, 13, 96, 80
11, 127200, Note_off_c, 13, 77, 80
11, 127200, Note_off_c, 13, 74, 80
11, 127200, Note_on_c, 13, 96, 47
11, 127200, Note_on_c, 13, 77, 79
11, 127200, Note_on_c, 13, 74, 79
11, 128640, Note_off_c, 13, 96, 80
11, 128640, Note_off_c, 13, 77, 80
11, 128640, Note_off_c, 13, 74, 80
11, 128880, Note_on_c, 13, 92, 47
11, 128880, Note_on_c, 13, 76, 79
11, 128880, Note_on_c, 13, 71, 79
11, 129120, Note_off_c, 13, 92, 80
11, 129120, Note_off_c, 13, 76, 80
11, 129120, Note_off_c, 13, 71, 80
11, 129120, Note_on_c, 13, 92, 47
11, 129120, Note_on_c, 13, 76, 79
11, 129120, Note_on_c, 13, 71, 79
11, 129360, Note_off_c, 13, 92, 80
11, 129360, Note_off_c, 13, 76, 80
11, 129360, Note_off_c, 13, 71, 80
11, 129360, Note_on_c, 13, 92, 47
11, 129360, Note_on_c, 13, 76, 79
11, 129360, Note_on_c, 13, 71, 79
11, 129600, Note_off_c, 13, 92, 80
11, 129600, Note_off_c, 13, 76, 80
11, 129600, Note_off_c, 13, 71, 80
11, 129600, Note_on_c, 13, 92, 47
11, 129600, Note_on_c, 13, 76, 79
11, 129600, Note_on_c, 13, 71, 79
11, 130320, Note_off_c, 13, 92, 80
11, 130320, Note_off_c, 13, 76, 80
11, 130320, Note_off_c, 13, 71, 80
11, 130320, Note_on_c, 13, 95, 47
11, 130320, Note_on_c, 13, 79, 79
11, 130320, Note_on_c, 13, 76, 79
11, 132480, Note_off_c, 13, 95, 80
11, 132480, Note_off_c, 13, 79, 80
11, 132480, Note_off_c, 13, 76, 80
11, 132720, Note_on_c, 13, 92, 47
11, 132720, Note_on_c, 13, 76, 79
11, 132720, Note_on_c, 13, 71, 79
11, 132960, Note_off_c, 13, 92, 80
11, 132960, Note_off_c, 13, 76, 80
11, 132960, Note_off_c, 13, 71, 80
11, 132960, Note_on_c, 13, 92, 47
11, 132960, Note_on_c, 13, 76, 79
11, 132960, Note_on_c, 13, 71, 79
11, 133200, Note_off_c, 13, 92, 80
11, 133200, Note_off_c, 13, 76, 80
11, 133200, Note_off_c, 13, 71, 80
11, 133200, Note_on_c, 13, 92, 47
11, 133200, Note_on_c, 13, 76, 79
11, 133200, Note_on_c, 13, 71, 79
11, 133440, Note_off_c, 13, 92, 80
11, 133440, Note_off_c, 13, 76, 80
11, 133440, Note_off_c, 13, 71, 80
11, 133440, Note_on_c, 13, 92, 63
11, 133440, Note_on_c, 13, 76, 79
11, 133440, Note_on_c, 13, 71, 79
11, 133920, Note_off_c, 13, 92, 80
11, 133920, Note_off_c, 13, 76, 80
11, 133920, Note_off_c, 13, 71, 80
11, 133920, Note_on_c, 13, 95, 47
11, 133920, Note_on_c, 13, 79, 79
11, 133920, Note_on_c, 13, 76, 79
11, 134160, Note_off_c, 13, 95, 80
11, 134160, Note_off_c, 13, 79, 80
11, 134160, Note_off_c, 13, 76, 80
11, 134160, Note_on_c, 13, 95, 47
11, 134160, Note_on_c, 13, 79, 79
11, 134160, Note_on_c, 13, 76, 79
11, 134640, Note_off_c, 13, 95, 80
11, 134640, Note_off_c, 13, 79, 80
11, 134640, Note_off_c, 13, 76, 80
11, 134640, Note_on_c, 13, 96, 47
11, 134640, Note_on_c, 13, 77, 79
11, 134640, Note_on_c, 13, 74, 79
11, 134880, Note_off_c, 13, 96, 80
11, 134880, Note_off_c, 13, 77, 80
11, 134880, Note_off_c, 13, 74, 80
11, 134880, Note_on_c, 13, 96, 47
11, 134880, Note_on_c, 13, 77, 79
11, 134880, Note_on_c, 13, 74, 79
11, 136320, Note_off_c, 13, 96, 80
11, 136320, Note_off_c, 13, 77, 80
11, 136320, Note_off_c, 13, 74, 80
11, 136560, Note_on_c, 13, 92, 47
11, 136560, Note_on_c, 13, 76, 79
11, 136560, Note_on_c, 13, 71, 79
11, 136800, Note_off_c, 13, 92, 80
11, 136800, Note_off_c, 13, 76, 80
11, 136800, Note_off_c, 13, 71, 80
11, 136800, Note_on_c, 13, 92, 47
11, 136800, Note_on_c, 13, 76, 79
11, 136800, Note_on_c, 13, 71, 79
11, 137040, Note_off_c, 13, 92, 80
11, 137040, Note_off_c, 13, 76, 80
11, 137040, Note_off_c, 13, 71, 80
11, 137040, Note_on_c, 13, 92, 47
11, 137040, Note_on_c, 13, 76, 79
11, 137040, Note_on_c, 13, 71, 79
11, 137280, Note_off_c, 13, 92, 80
11, 137280, Note_off_c, 13, 76, 80
11, 137280, Note_off_c, 13, 71, 80
11, 137280, Note_on_c, 13, 92, 47
11, 137280, Note_on_c, 13, 76, 79
11, 137280, Note_on_c, 13, 71, 79
11, 138000, Note_off_c, 13, 92, 80
11, 138000, Note_off_c, 13, 76, 80
11, 138000, Note_off_c, 13, 71, 80
11, 138000, Note_on_c, 13, 95, 47
11, 138000, Note_on_c, 13, 79, 79
11, 138000, Note_on_c, 13, 76, 79
11, 140160, Note_off_c, 13, 95, 80
11, 140160, Note_off_c, 13, 79, 80
11, 140160, Note_off_c, 13, 76, 80
11, 140400, Note_on_c, 13, 92, 47
11, 140400, Note_on_c, 13, 76, 79
11, 140400, Note_on_c, 13, 71, 79
11, 140640, Note_off_c, 13, 92, 80
11, 140640, Note_off_c, 13, 76, 80
11, 140640, Note_off_c, 13, 71, 80
11, 140640, Note_on_c, 13, 92, 47
11, 140640, Note_on_c, 13, 76, 79
11, 140640, Note_on_c, 13, 71, 79
11, 140880, Note_off_c, 13, 92, 80
11, 140880, Note_off_c, 13, 76, 80
11, 140880, Note_off_c, 13, 71, 80
11, 140880, Note_on_c, 13, 92, 47
11, 140880, Note_on_c, 13, 76, 79
11, 140880, Note_on_c, 13, 71, 79
11, 141120, Note_off_c, 13, 92, 80
11, 141120, Note_off_c, 13, 76, 80
11, 141120, Note_off_c, 13, 71, 80
11, 141120, Note_on_c, 13, 92, 63
11, 141120, Note_on_c, 13, 76, 79
11, 141120, Note_on_c, 13, 71, 79
11, 141600, Note_off_c, 13, 92, 80
11, 141600, Note_off_c, 13, 76, 80
11, 141600, Note_off_c, 13, 71, 80
11, 141600, Note_on_c, 13, 95, 47
11, 141600, Note_on_c, 13, 79, 79
11, 141600, Note_on_c, 13, 76, 79
11, 141840, Note_off_c, 13, 95, 80
11, 141840, Note_off_c, 13, 79, 80
11, 141840, Note_off_c, 13, 76, 80
11, 141840, Note_on_c, 13, 95, 47
11, 141840, Note_on_c, 13, 79, 79
11, 141840, Note_on_c, 13, 76, 79
11, 142320, Note_off_c, 13, 95, 80
11, 142320, Note_off_c, 13, 79, 80
11, 142320, Note_off_c, 13, 76, 80
11, 142320, Note_on_c, 13, 96, 47
11, 142320, Note_on_c, 13, 77, 79
11, 142320, Note_on_c, 13, 74, 79
11, 142560, Note_off_c, 13, 96, 80
11, 142560, Note_off_c, 13, 77, 80
11, 142560, Note_off_c, 13, 74, 80
11, 142560, Note_on_c, 13, 96, 47
11, 142560, Note_on_c, 13, 77, 79
11, 142560, Note_on_c, 13, 74, 79
11, 144000, Note_off_c, 13, 96, 80
11, 144000, Note_off_c, 13, 77, 80
11, 144000, Note_off_c, 13, 74, 80
11, 144000, Program_c, 13, 29
11, 144000, Program_c, 14, 29
11, 144000, Note_on_c, 13, 57, 95
11, 145920, Note_off_c, 13, 57, 80
11, 145920, Note_on_c, 13, 55, 95
11, 147840, Note_off_c, 13, 55, 80
11, 147840, Note_on_c, 13, 57, 95
11, 148080, Control_c, 13, 7, 102
11, 148080, Control_c, 14, 7, 102
11, 148200, Control_c, 13, 7, 101
11, 148200, Control_c, 14, 7, 101
11, 148320, Control_c, 13, 7, 99
11, 148320, Control_c, 14, 7, 99
11, 148440, Control_c, 13, 7, 97
11, 148440, Control_c, 14, 7, 97
11, 148560, Control_c, 13, 7, 95
11, 148560, Control_c, 14, 7, 95
11, 148680, Control_c, 13, 7, 94
11, 148680, Control_c, 14, 7, 94
11, 148800, Control_c, 13, 7, 92
11, 148800, Control_c, 14, 7, 92
11, 148920, Control_c, 13, 7, 90
11, 148920, Control_c, 14, 7, 90
11, 149040, Control_c, 13, 7, 89
11, 149040, Control_c, 14, 7, 89
11, 149160, Control_c, 13, 7, 87
11, 149160, Control_c, 14, 7, 87
11, 149280, Control_c, 13, 7, 85
11, 149280, Control_c, 14, 7, 85
11, 149400, Control_c, 13, 7, 84
11, 149400, Control_c, 14, 7, 84
11, 149520, Control_c, 13, 7, 82
11, 149520, Control_c, 14, 7, 82
11, 149640, Control_c, 13, 7, 80
11, 149640, Control_c, 14, 7, 80
11, 149760, Control_c, 13, 7, 78
11, 149760, Control_c, 14, 7, 78
11, 149760, Note_off_c, 13, 57, 80
11, 149760, Note_on_c, 13, 55, 95
11, 149880, Control_c, 13, 7, 77
11, 149880, Control_c, 14, 7, 77
11, 150000, Control_c, 13, 7, 75
11, 150000, Control_c, 14, 7, 75
11, 150120, Control_c, 13, 7, 73
11, 150120, Control_c, 14, 7, 73
11, 150240, Control_c, 13, 7, 72
11, 150240, Control_c, 14, 7, 72
11, 150360, Control_c, 13, 7, 70
11, 150360, Control_c, 14, 7, 70
11, 150480, Control_c, 13, 7, 68
11, 150480, Control_c, 14, 7, 68
11, 150600, Control_c, 13, 7, 66
11, 150600, Control_c, 14, 7, 66
11, 150720, Control_c, 13, 7, 65
11, 150720, Control_c, 14, 7, 65
11, 150840, Control_c, 13, 7, 63
11, 150840, Control_c, 14, 7, 63
11, 150960, Control_c, 13, 7, 61
11, 150960, Control_c, 14, 7, 61
11, 151080, Control_c, 13, 7, 60
11, 151080, Control_c, 14, 7, 60
11, 151200, Control_c, 13, 7, 58
11, 151200, Control_c, 14, 7, 58
11, 151320, Control_c, 13, 7, 56
11, 151320, Control_c, 14, 7, 56
11, 151440, Control_c, 13, 7, 55
11, 151440, Control_c, 14, 7, 55
11, 151560, Control_c, 13, 7, 53
11, 151560, Control_c, 14, 7, 53
11, 151680, Control_c, 13, 7, 51
11, 151680, Control_c, 14, 7, 51
11, 151680, Note_off_c, 13, 55, 80
11, 151680, Note_on_c, 13, 57, 95
11, 151800, Control_c, 13, 7, 49
11, 151800, Control_c, 14, 7, 49
11, 151920, Control_c, 13, 7, 48
11, 151920, Control_c, 14, 7, 48
11, 152040, Control_c, 13, 7, 46
11, 152040, Control_c, 14, 7, 46
11, 152160, Control_c, 13, 7, 44
11, 152160, Control_c, 14, 7, 44
11, 152280, Control_c, 13, 7, 43
11, 152280, Control_c, 14, 7, 43
11, 152400, Control_c, 13, 7, 41
11, 152400, Control_c, 14, 7, 41
11, 152520, Control_c, 13, 7, 39
11, 152520, Control_c, 14, 7, 39
11, 152640, Control_c, 13, 7, 38
11, 152640, Control_c, 14, 7, 38
11, 152760, Control_c, 13, 7, 36
11, 152760, Control_c, 14, 7, 36
11, 152880, Control_c, 13, 7, 34
11, 152880, Control_c, 14, 7, 34
11, 153000, Control_c, 13, 7, 32
11, 153000, Control_c, 14, 7, 32
11, 153120, Control_c, 13, 7, 31
11, 153120, Control_c, 14, 7, 31
11, 153240, Control_c, 13, 7, 29
11, 153240, Control_c, 14, 7, 29
11, 153360, Control_c, 13, 7, 27
11, 153360, Control_c, 14, 7, 27
11, 153480, Control_c, 13, 7, 26
11, 153480, Control_c, 14, 7, 26
11, 153600, Control_c, 13, 7, 24
11, 153600, Control_c, 14, 7, 24
11, 153600, Note_off_c, 13, 57, 80
11, 153600, Note_on_c, 13, 55, 95
11, 153720, Control_c, 13, 7, 22
11, 153720, Control_c, 14, 7, 22
11, 153840, Control_c, 13, 7, 20
11, 153840, Control_c, 14, 7, 20
11, 153960, Control_c, 13, 7, 19
11, 153960, Control_c, 14, 7, 19
11, 154080, Control_c, 13, 7, 17
11, 154080, Control_c, 14, 7, 17
11, 154200, Control_c, 13, 7, 15
11, 154200, Control_c, 14, 7, 15
11, 154320, Control_c, 13, 7, 14
11, 154320, Control_c, 14, 7, 14
11, 154440, Control_c, 13, 7, 12
11, 154440, Control_c, 14, 7, 12
11, 154560, Control_c, 13, 7, 10
11, 154560, Control_c, 14, 7, 10
11, 154680, Control_c, 13, 7, 9
11, 154680, Control_c, 14, 7, 9
11, 154800, Control_c, 13, 7, 7
11, 154800, Control_c, 14, 7, 7
11, 154920, Control_c, 13, 7, 5
11, 154920, Control_c, 14, 7, 5
11, 155040, Control_c, 13, 7, 3
11, 155040, Control_c, 14, 7, 3
11, 155160, Control_c, 13, 7, 2
11, 155160, Control_c, 14, 7, 2
11, 155280, Control_c, 13, 7, 0
11, 155280, Control_c, 14, 7, 0
11, 155520, Note_off_c, 13, 55, 80
11, 155520, End_track
12, 0, Start_track
12, 0, Title_t, "Percussion"
12, 0, Control_c, 9, 100, 0
12, 0, Control_c, 9, 101, 0
12, 0, Control_c, 9, 6, 12
12, 0, Pitch_bend_c, 9, 8192
12, 0, Program_c, 9, 0
12, 0, Control_c, 9, 7, 96
12, 0, Control_c, 9, 10, 64
12, 0, Control_c, 9, 93, 16
12, 0, Control_c, 9, 91, 0
12, 0, Control_c, 9, 92, 16
12, 0, Control_c, 9, 95, 0
12, 9600, Note_on_c, 9, 46, 127
12, 10320, Note_off_c, 9, 46, 80
12, 10560, Note_on_c, 9, 44, 127
12, 10800, Note_off_c, 9, 44, 80
12, 10800, Note_on_c, 9, 44, 127
12, 11040, Note_off_c, 9, 44, 80
12, 11280, Note_on_c, 9, 46, 127
12, 11520, Note_off_c, 9, 46, 80
12, 11520, Note_on_c, 9, 44, 127
12, 12240, Note_off_c, 9, 44, 80
12, 12480, Note_on_c, 9, 44, 127
12, 12720, Note_off_c, 9, 44, 80
12, 12720, Note_on_c, 9, 44, 127
12, 12960, Note_off_c, 9, 44, 80
12, 13200, Note_on_c, 9, 44, 127
12, 13440, Note_off_c, 9, 44, 80
12, 13440, Note_on_c, 9, 46, 127
12, 14160, Note_off_c, 9, 46, 80
12, 14400, Note_on_c, 9, 44, 127
12, 14640, Note_off_c, 9, 44, 80
12, 14640, Note_on_c, 9, 44, 127
12, 14880, Note_off_c, 9, 44, 80
12, 15120, Note_on_c, 9, 46, 127
12, 15360, Note_off_c, 9, 46, 80
12, 15360, Note_on_c, 9, 44, 127
12, 16080, Note_off_c, 9, 44, 80
12, 16320, Note_on_c, 9, 44, 127
12, 16560, Note_off_c, 9, 44, 80
12, 16560, Note_on_c, 9, 44, 127
12, 16800, Note_off_c, 9, 44, 80
12, 17040, Note_on_c, 9, 44, 127
12, 17280, Note_off_c, 9, 44, 80
12, 17280, Note_on_c, 9, 46, 127
12, 18000, Note_off_c, 9, 46, 80
12, 18240, Note_on_c, 9, 44, 127
12, 18480, Note_off_c, 9, 44, 80
12, 18480, Note_on_c, 9, 44, 127
12, 18720, Note_off_c, 9, 44, 80
12, 18960, Note_on_c, 9, 46, 127
12, 19200, Note_off_c, 9, 46, 80
12, 19200, Note_on_c, 9, 44, 127
12, 19920, Note_off_c, 9, 44, 80
12, 20160, Note_on_c, 9, 44, 127
12, 20400, Note_off_c, 9, 44, 80
12, 20400, Note_on_c, 9, 44, 127
12, 20640, Note_off_c, 9, 44, 80
12, 20880, Note_on_c, 9, 44, 127
12, 21120, Note_off_c, 9, 44, 80
12, 21120, Note_on_c, 9, 46, 127
12, 21840, Note_off_c, 9, 46, 80
12, 22080, Note_on_c, 9, 44, 127
12, 22320, Note_off_c, 9, 44, 80
12, 22320, Note_on_c, 9, 44, 127
12, 22560, Note_off_c, 9, 44, 80
12, 22800, Note_on_c, 9, 46, 127
12, 23040, Note_off_c, 9, 46, 80
12, 23040, Note_on_c, 9, 44, 127
12, 23760, Note_off_c, 9, 44, 80
12, 24000, Note_on_c, 9, 44, 127
12, 24240, Note_off_c, 9, 44, 80
12, 24240, Note_on_c, 9, 44, 127
12, 24480, Note_off_c, 9, 44, 80
12, 24720, Note_on_c, 9, 44, 127
12, 24960, Note_off_c, 9, 44, 80
12, 24960, Note_on_c, 9, 46, 127
12, 25680, Note_off_c, 9, 46, 80
12, 25920, Note_on_c, 9, 44, 127
12, 26160, Note_off_c, 9, 44, 80
12, 26160, Note_on_c, 9, 44, 127
12, 26400, Note_off_c, 9, 44, 80
12, 26640, Note_on_c, 9, 46, 127
12, 26880, Note_off_c, 9, 46, 80
12, 26880, Note_on_c, 9, 44, 127
12, 27600, Note_off_c, 9, 44, 80
12, 27840, Note_on_c, 9, 44, 127
12, 28080, Note_off_c, 9, 44, 80
12, 28080, Note_on_c, 9, 44, 127
12, 28320, Note_off_c, 9, 44, 80
12, 28560, Note_on_c, 9, 44, 127
12, 28800, Note_off_c, 9, 44, 80
12, 28800, Note_on_c, 9, 46, 127
12, 29520, Note_off_c, 9, 46, 80
12, 29760, Note_on_c, 9, 44, 127
12, 30000, Note_off_c, 9, 44, 80
12, 30000, Note_on_c, 9, 44, 127
12, 30240, Note_off_c, 9, 44, 80
12, 30480, Note_on_c, 9, 46, 127
12, 30720, Note_off_c, 9, 46, 80
12, 30720, Note_on_c, 9, 44, 127
12, 31440, Note_off_c, 9, 44, 80
12, 31680, Note_on_c, 9, 44, 127
12, 31920, Note_off_c, 9, 44, 80
12, 31920, Note_on_c, 9, 44, 127
12, 32160, Note_off_c, 9, 44, 80
12, 32400, Note_on_c, 9, 44, 127
12, 32640, Note_off_c, 9, 44, 80
12, 32640, Note_on_c, 9, 46, 127
12, 33360, Note_off_c, 9, 46, 80
12, 33600, Note_on_c, 9, 44, 127
12, 33840, Note_off_c, 9, 44, 80
12, 33840, Note_on_c, 9, 44, 127
12, 34080, Note_off_c, 9, 44, 80
12, 34320, Note_on_c, 9, 46, 127
12, 34560, Note_off_c, 9, 46, 80
12, 34560, Note_on_c, 9, 44, 127
12, 35280, Note_off_c, 9, 44, 80
12, 35520, Note_on_c, 9, 44, 127
12, 35760, Note_off_c, 9, 44, 80
12, 35760, Note_on_c, 9, 44, 127
12, 36000, Note_off_c, 9, 44, 80
12, 36240, Note_on_c, 9, 44, 127
12, 36480, Note_off_c, 9, 44, 80
12, 36480, Note_on_c, 9, 46, 127
12, 37200, Note_off_c, 9, 46, 80
12, 37440, Note_on_c, 9, 44, 127
12, 37680, Note_off_c, 9, 44, 80
12, 37680, Note_on_c, 9, 44, 127
12, 37920, Note_off_c, 9, 44, 80
12, 38160, Note_on_c, 9, 46, 127
12, 38400, Note_off_c, 9, 46, 80
12, 38400, Note_on_c, 9, 44, 127
12, 39120, Note_off_c, 9, 44, 80
12, 39360, Note_on_c, 9, 44, 127
12, 39600, Note_off_c, 9, 44, 80
12, 39600, Note_on_c, 9, 44, 127
12, 39840, Note_off_c, 9, 44, 80
12, 40080, Note_on_c, 9, 44, 127
12, 40320, Note_off_c, 9, 44, 80
12, 40320, Note_on_c, 9, 55, 95
12, 40320, Note_on_c, 9, 51, 79
12, 40560, Note_off_c, 9, 55, 80
12, 40560, Note_off_c, 9, 51, 80
12, 40560, Note_on_c, 9, 55, 95
12, 40560, Note_on_c, 9, 51, 79
12, 40680, Note_off_c, 9, 55, 80
12, 40680, Note_off_c, 9, 51, 80
12, 40680, Note_on_c, 9, 55, 95
12, 40800, Note_off_c, 9, 55, 80
12, 40800, Note_on_c, 9, 55, 95
12, 40800, Note_on_c, 9, 51, 79
12, 40800, Note_on_c, 9, 86, 127
12, 40800, Note_on_c, 9, 64, 127
12, 40800, Note_on_c, 9, 40, 127
12, 40800, Note_on_c, 9, 61, 127
12, 41040, Note_off_c, 9, 55, 80
12, 41040, Note_off_c, 9, 51, 80
12, 41040, Note_off_c, 9, 86, 80
12, 41040, Note_off_c, 9, 64, 80
12, 41040, Note_off_c, 9, 40, 80
12, 41040, Note_off_c, 9, 61, 80
12, 41040, Note_on_c, 9, 55, 95
12, 41040, Note_on_c, 9, 51, 79
12, 41160, Note_off_c, 9, 55, 80
12, 41160, Note_off_c, 9, 51, 80
12, 41160, Note_on_c, 9, 55, 95
12, 41280, Note_off_c, 9, 55, 80
12, 41280, Note_on_c, 9, 55, 95
12, 41280, Note_on_c, 9, 51, 79
12, 41400, Note_off_c, 9, 55, 80
12, 41400, Note_off_c, 9, 51, 80
12, 41400, Note_on_c, 9, 55, 95
12, 41400, Note_on_c, 9, 51, 79
12, 41520, Note_off_c, 9, 55, 80
12, 41520, Note_off_c, 9, 51, 80
12, 41520, Note_on_c, 9, 55, 95
12, 41520, Note_on_c, 9, 51, 79
12, 41640, Note_off_c, 9, 55, 80
12, 41640, Note_off_c, 9, 51, 80
12, 41640, Note_on_c, 9, 55, 95
12, 41760, Note_off_c, 9, 55, 80
12, 41760, Note_on_c, 9, 55, 95
12, 41760, Note_on_c, 9, 51, 79
12, 41760, Note_on_c, 9, 86, 127
12, 41760, Note_on_c, 9, 64, 127
12, 41760, Note_on_c, 9, 40, 127
12, 41760, Note_on_c, 9, 61, 127
12, 42000, Note_off_c, 9, 55, 80
12, 42000, Note_off_c, 9, 51, 80
12, 42000, Note_off_c, 9, 86, 80
12, 42000, Note_off_c, 9, 64, 80
12, 42000, Note_off_c, 9, 40, 80
12, 42000, Note_off_c, 9, 61, 80
12, 42000, Note_on_c, 9, 55, 95
12, 42120, Note_off_c, 9, 55, 80
12, 42120, Note_on_c, 9, 55, 95
12, 42120, Note_on_c, 9, 51, 79
12, 42240, Note_off_c, 9, 55, 80
12, 42240, Note_off_c, 9, 51, 80
12, 42240, Note_on_c, 9, 55, 95
12, 42240, Note_on_c, 9, 51, 79
12, 42480, Note_off_c, 9, 55, 80
12, 42480, Note_off_c, 9, 51, 80
12, 42480, Note_on_c, 9, 55, 95
12, 42480, Note_on_c, 9, 51, 79
12, 42600, Note_off_c, 9, 55, 80
12, 42600, Note_off_c, 9, 51, 80
12, 42600, Note_on_c, 9, 55, 95
12, 42720, Note_off_c, 9, 55, 80
12, 42720, Note_on_c, 9, 55, 95
12, 42720, Note_on_c, 9, 51, 79
12, 42720, Note_on_c, 9, 86, 127
12, 42720, Note_on_c, 9, 64, 127
12, 42720, Note_on_c, 9, 40, 127
12, 42720, Note_on_c, 9, 61, 127
12, 42960, Note_off_c, 9, 55, 80
12, 42960, Note_off_c, 9, 51, 80
12, 42960, Note_off_c, 9, 86, 80
12, 42960, Note_off_c, 9, 64, 80
12, 42960, Note_off_c, 9, 40, 80
12, 42960, Note_off_c, 9, 61, 80
12, 42960, Note_on_c, 9, 55, 95
12, 42960, Note_on_c, 9, 51, 79
12, 43080, Note_off_c, 9, 55, 80
12, 43080, Note_off_c, 9, 51, 80
12, 43080, Note_on_c, 9, 55, 95
12, 43200, Note_off_c, 9, 55, 80
12, 43200, Note_on_c, 9, 55, 95
12, 43200, Note_on_c, 9, 51, 79
12, 43320, Note_off_c, 9, 55, 80
12, 43320, Note_off_c, 9, 51, 80
12, 43320, Note_on_c, 9, 55, 95
12, 43320, Note_on_c, 9, 51, 79
12, 43440, Note_off_c, 9, 55, 80
12, 43440, Note_off_c, 9, 51, 80
12, 43440, Note_on_c, 9, 55, 95
12, 43440, Note_on_c, 9, 51, 79
12, 43560, Note_off_c, 9, 55, 80
12, 43560, Note_off_c, 9, 51, 80
12, 43560, Note_on_c, 9, 55, 95
12, 43680, Note_off_c, 9, 55, 80
12, 43680, Note_on_c, 9, 55, 95
12, 43680, Note_on_c, 9, 51, 79
12, 43680, Note_on_c, 9, 86, 127
12, 43680, Note_on_c, 9, 64, 127
12, 43680, Note_on_c, 9, 40, 127
12, 43680, Note_on_c, 9, 61, 127
12, 43920, Note_off_c, 9, 55, 80
12, 43920, Note_off_c, 9, 51, 80
12, 43920, Note_off_c, 9, 86, 80
12, 43920, Note_off_c, 9, 64, 80
12, 43920, Note_off_c, 9, 40, 80
12, 43920, Note_off_c, 9, 61, 80
12, 43920, Note_on_c, 9, 55, 95
12, 44040, Note_off_c, 9, 55, 80
12, 44040, Note_on_c, 9, 55, 95
12, 44040, Note_on_c, 9, 51, 79
12, 44160, Note_off_c, 9, 55, 80
12, 44160, Note_off_c, 9, 51, 80
12, 44160, Note_on_c, 9, 55, 95
12, 44160, Note_on_c, 9, 51, 79
12, 44400, Note_off_c, 9, 55, 80
12, 44400, Note_off_c, 9, 51, 80
12, 44400, Note_on_c, 9, 55, 95
12, 44400, Note_on_c, 9, 51, 79
12, 44520, Note_off_c, 9, 55, 80
12, 44520, Note_off_c, 9, 51, 80
12, 44520, Note_on_c, 9, 55, 95
12, 44640, Note_off_c, 9, 55, 80
12, 44640, Note_on_c, 9, 55, 95
12, 44640, Note_on_c, 9, 51, 79
12, 44640, Note_on_c, 9, 86, 127
12, 44640, Note_on_c, 9, 64, 127
12, 44640, Note_on_c, 9, 40, 127
12, 44640, Note_on_c, 9, 61, 127
12, 44880, Note_off_c, 9, 55, 80
12, 44880, Note_off_c, 9, 51, 80
12, 44880, Note_off_c, 9, 86, 80
12, 44880, Note_off_c, 9, 64, 80
12, 44880, Note_off_c, 9, 40, 80
12, 44880, Note_off_c, 9, 61, 80
12, 44880, Note_on_c, 9, 55, 95
12, 44880, Note_on_c, 9, 51, 79
12, 45000, Note_off_c, 9, 55, 80
12, 45000, Note_off_c, 9, 51, 80
12, 45000, Note_on_c, 9, 55, 95
12, 45120, Note_off_c, 9, 55, 80
12, 45120, Note_on_c, 9, 55, 95
12, 45120, Note_on_c, 9, 51, 79
12, 45240, Note_off_c, 9, 55, 80
12, 45240, Note_off_c, 9, 51, 80
12, 45240, Note_on_c, 9, 55, 95
12, 45240, Note_on_c, 9, 51, 79
12, 45360, Note_off_c, 9, 55, 80
12, 45360, Note_off_c, 9, 51, 80
12, 45360, Note_on_c, 9, 55, 95
12, 45360, Note_on_c, 9, 51, 79
12, 45480, Note_off_c, 9, 55, 80
12, 45480, Note_off_c, 9, 51, 80
12, 45480, Note_on_c, 9, 55, 95
12, 45600, Note_off_c, 9, 55, 80
12, 45600, Note_on_c, 9, 55, 95
12, 45600, Note_on_c, 9, 51, 79
12, 45600, Note_on_c, 9, 86, 127
12, 45600, Note_on_c, 9, 64, 127
12, 45600, Note_on_c, 9, 40, 127
12, 45600, Note_on_c, 9, 61, 127
12, 45840, Note_off_c, 9, 55, 80
12, 45840, Note_off_c, 9, 51, 80
12, 45840, Note_off_c, 9, 86, 80
12, 45840, Note_off_c, 9, 64, 80
12, 45840, Note_off_c, 9, 40, 80
12, 45840, Note_off_c, 9, 61, 80
12, 45840, Note_on_c, 9, 55, 95
12, 45960, Note_off_c, 9, 55, 80
12, 45960, Note_on_c, 9, 55, 95
12, 45960, Note_on_c, 9, 51, 79
12, 46080, Note_off_c, 9, 55, 80
12, 46080, Note_off_c, 9, 51, 80
12, 46080, Note_on_c, 9, 55, 95
12, 46080, Note_on_c, 9, 51, 79
12, 46320, Note_off_c, 9, 55, 80
12, 46320, Note_off_c, 9, 51, 80
12, 46320, Note_on_c, 9, 55, 95
12, 46320, Note_on_c, 9, 51, 79
12, 46440, Note_off_c, 9, 55, 80
12, 46440, Note_off_c, 9, 51, 80
12, 46440, Note_on_c, 9, 55, 95
12, 46560, Note_off_c, 9, 55, 80
12, 46560, Note_on_c, 9, 55, 95
12, 46560, Note_on_c, 9, 51, 79
12, 46560, Note_on_c, 9, 86, 127
12, 46560, Note_on_c, 9, 64, 127
12, 46560, Note_on_c, 9, 40, 127
12, 46560, Note_on_c, 9, 61, 127
12, 46800, Note_off_c, 9, 55, 80
12, 46800, Note_off_c, 9, 51, 80
12, 46800, Note_off_c, 9, 86, 80
12, 46800, Note_off_c, 9, 64, 80
12, 46800, Note_off_c, 9, 40, 80
12, 46800, Note_off_c, 9, 61, 80
12, 46800, Note_on_c, 9, 55, 95
12, 46800, Note_on_c, 9, 51, 79
12, 46920, Note_off_c, 9, 55, 80
12, 46920, Note_off_c, 9, 51, 80
12, 46920, Note_on_c, 9, 55, 95
12, 47040, Note_off_c, 9, 55, 80
12, 47040, Note_on_c, 9, 55, 95
12, 47040, Note_on_c, 9, 51, 79
12, 47160, Note_off_c, 9, 55, 80
12, 47160, Note_off_c, 9, 51, 80
12, 47160, Note_on_c, 9, 55, 95
12, 47160, Note_on_c, 9, 51, 79
12, 47280, Note_off_c, 9, 55, 80
12, 47280, Note_off_c, 9, 51, 80
12, 47280, Note_on_c, 9, 55, 95
12, 47280, Note_on_c, 9, 51, 79
12, 47400, Note_off_c, 9, 55, 80
12, 47400, Note_off_c, 9, 51, 80
12, 47400, Note_on_c, 9, 55, 95
12, 47520, Note_off_c, 9, 55, 80
12, 47520, Note_on_c, 9, 55, 95
12, 47520, Note_on_c, 9, 51, 79
12, 47520, Note_on_c, 9, 86, 127
12, 47520, Note_on_c, 9, 64, 127
12, 47520, Note_on_c, 9, 40, 127
12, 47520, Note_on_c, 9, 61, 127
12, 47760, Note_off_c, 9, 55, 80
12, 47760, Note_off_c, 9, 51, 80
12, 47760, Note_off_c, 9, 86, 80
12, 47760, Note_off_c, 9, 64, 80
12, 47760, Note_off_c, 9, 40, 80
12, 47760, Note_off_c, 9, 61, 80
12, 47760, Note_on_c, 9, 55, 95
12, 47880, Note_off_c, 9, 55, 80
12, 47880, Note_on_c, 9, 55, 95
12, 47880, Note_on_c, 9, 51, 79
12, 48000, Note_off_c, 9, 55, 80
12, 48000, Note_off_c, 9, 51, 80
12, 48000, Note_on_c, 9, 55, 95
12, 48000, Note_on_c, 9, 51, 79
12, 48240, Note_off_c, 9, 55, 80
12, 48240, Note_off_c, 9, 51, 80
12, 48240, Note_on_c, 9, 55, 95
12, 48240, Note_on_c, 9, 51, 79
12, 48360, Note_off_c, 9, 55, 80
12, 48360, Note_off_c, 9, 51, 80
12, 48360, Note_on_c, 9, 55, 95
12, 48480, Note_off_c, 9, 55, 80
12, 48480, Note_on_c, 9, 55, 95
12, 48480, Note_on_c, 9, 51, 79
12, 48480, Note_on_c, 9, 86, 127
12, 48480, Note_on_c, 9, 64, 127
12, 48480, Note_on_c, 9, 40, 127
12, 48480, Note_on_c, 9, 61, 127
12, 48720, Note_off_c, 9, 55, 80
12, 48720, Note_off_c, 9, 51, 80
12, 48720, Note_off_c, 9, 86, 80
12, 48720, Note_off_c, 9, 64, 80
12, 48720, Note_off_c, 9, 40, 80
12, 48720, Note_off_c, 9, 61, 80
12, 48720, Note_on_c, 9, 55, 95
12, 48720, Note_on_c, 9, 51, 79
12, 48840, Note_off_c, 9, 55, 80
12, 48840, Note_off_c, 9, 51, 80
12, 48840, Note_on_c, 9, 55, 95
12, 48960, Note_off_c, 9, 55, 80
12, 48960, Note_on_c, 9, 55, 95
12, 48960, Note_on_c, 9, 51, 79
12, 49080, Note_off_c, 9, 55, 80
12, 49080, Note_off_c, 9, 51, 80
12, 49080, Note_on_c, 9, 55, 95
12, 49080, Note_on_c, 9, 51, 79
12, 49200, Note_off_c, 9, 55, 80
12, 49200, Note_off_c, 9, 51, 80
12, 49200, Note_on_c, 9, 55, 95
12, 49200, Note_on_c, 9, 51, 79
12, 49320, Note_off_c, 9, 55, 80
12, 49320, Note_off_c, 9, 51, 80
12, 49320, Note_on_c, 9, 55, 95
12, 49440, Note_off_c, 9, 55, 80
12, 49440, Note_on_c, 9, 55, 95
12, 49440, Note_on_c, 9, 51, 79
12, 49440, Note_on_c, 9, 86, 127
12, 49440, Note_on_c, 9, 64, 127
12, 49440, Note_on_c, 9, 40, 127
12, 49440, Note_on_c, 9, 61, 127
12, 49680, Note_off_c, 9, 55, 80
12, 49680, Note_off_c, 9, 51, 80
12, 49680, Note_off_c, 9, 86, 80
12, 49680, Note_off_c, 9, 64, 80
12, 49680, Note_off_c, 9, 40, 80
12, 49680, Note_off_c, 9, 61, 80
12, 49680, Note_on_c, 9, 55, 95
12, 49800, Note_off_c, 9, 55, 80
12, 49800, Note_on_c, 9, 55, 95
12, 49800, Note_on_c, 9, 51, 79
12, 49920, Note_off_c, 9, 55, 80
12, 49920, Note_off_c, 9, 51, 80
12, 49920, Note_on_c, 9, 55, 95
12, 49920, Note_on_c, 9, 51, 79
12, 50160, Note_off_c, 9, 55, 80
12, 50160, Note_off_c, 9, 51, 80
12, 50160, Note_on_c, 9, 55, 95
12, 50160, Note_on_c, 9, 51, 79
12, 50280, Note_off_c, 9, 55, 80
12, 50280, Note_off_c, 9, 51, 80
12, 50280, Note_on_c, 9, 55, 95
12, 50400, Note_off_c, 9, 55, 80
12, 50400, Note_on_c, 9, 55, 95
12, 50400, Note_on_c, 9, 51, 79
12, 50400, Note_on_c, 9, 86, 127
12, 50400, Note_on_c, 9, 64, 127
12, 50400, Note_on_c, 9, 40, 127
12, 50400, Note_on_c, 9, 61, 127
12, 50640, Note_off_c, 9, 55, 80
12, 50640, Note_off_c, 9, 51, 80
12, 50640, Note_off_c, 9, 86, 80
12, 50640, Note_off_c, 9, 64, 80
12, 50640, Note_off_c, 9, 40, 80
12, 50640, Note_off_c, 9, 61, 80
12, 50640, Note_on_c, 9, 55, 95
12, 50640, Note_on_c, 9, 51, 79
12, 50760, Note_off_c, 9, 55, 80
12, 50760, Note_off_c, 9, 51, 80
12, 50760, Note_on_c, 9, 55, 95
12, 50880, Note_off_c, 9, 55, 80
12, 50880, Note_on_c, 9, 55, 95
12, 50880, Note_on_c, 9, 51, 79
12, 51000, Note_off_c, 9, 55, 80
12, 51000, Note_off_c, 9, 51, 80
12, 51000, Note_on_c, 9, 55, 95
12, 51000, Note_on_c, 9, 51, 79
12, 51120, Note_off_c, 9, 55, 80
12, 51120, Note_off_c, 9, 51, 80
12, 51120, Note_on_c, 9, 55, 95
12, 51120, Note_on_c, 9, 51, 79
12, 51240, Note_off_c, 9, 55, 80
12, 51240, Note_off_c, 9, 51, 80
12, 51240, Note_on_c, 9, 55, 95
12, 51360, Note_off_c, 9, 55, 80
12, 51360, Note_on_c, 9, 55, 95
12, 51360, Note_on_c, 9, 51, 79
12, 51360, Note_on_c, 9, 86, 127
12, 51360, Note_on_c, 9, 64, 127
12, 51360, Note_on_c, 9, 40, 127
12, 51360, Note_on_c, 9, 61, 127
12, 51600, Note_off_c, 9, 55, 80
12, 51600, Note_off_c, 9, 51, 80
12, 51600, Note_off_c, 9, 86, 80
12, 51600, Note_off_c, 9, 64, 80
12, 51600, Note_off_c, 9, 40, 80
12, 51600, Note_off_c, 9, 61, 80
12, 51600, Note_on_c, 9, 55, 95
12, 51720, Note_off_c, 9, 55, 80
12, 51720, Note_on_c, 9, 55, 95
12, 51720, Note_on_c, 9, 51, 79
12, 51840, Note_off_c, 9, 55, 80
12, 51840, Note_off_c, 9, 51, 80
12, 51840, Note_on_c, 9, 57, 79
12, 52080, Note_off_c, 9, 57, 80
12, 52080, Note_on_c, 9, 57, 79
12, 52560, Note_off_c, 9, 57, 80
12, 52560, Note_on_c, 9, 57, 79
12, 52800, Note_off_c, 9, 57, 80
12, 52800, Note_on_c, 9, 57, 95
12, 53040, Note_off_c, 9, 57, 80
12, 53040, Note_on_c, 9, 57, 95
12, 53520, Note_off_c, 9, 57, 80
12, 53520, Note_on_c, 9, 57, 95
12, 53760, Note_off_c, 9, 57, 80
12, 53760, Note_on_c, 9, 57, 111
12, 54000, Note_off_c, 9, 57, 80
12, 54000, Note_on_c, 9, 57, 111
12, 54480, Note_off_c, 9, 57, 80
12, 54480, Note_on_c, 9, 57, 111
12, 54720, Note_off_c, 9, 57, 80
12, 54720, Note_on_c, 9, 57, 127
12, 54960, Note_off_c, 9, 57, 80
12, 54960, Note_on_c, 9, 57, 127
12, 55440, Note_off_c, 9, 57, 80
12, 55440, Note_on_c, 9, 57, 127
12, 55680, Note_off_c, 9, 57, 80
12, 55680, Note_on_c, 9, 46, 127
12, 56400, Note_off_c, 9, 46, 80
12, 56640, Note_on_c, 9, 44, 127
12, 56880, Note_off_c, 9, 44, 80
12, 56880, Note_on_c, 9, 44, 127
12, 57120, Note_off_c, 9, 44, 80
12, 57360, Note_on_c, 9, 46, 127
12, 57600, Note_off_c, 9, 46, 80
12, 57600, Note_on_c, 9, 44, 127
12, 58320, Note_off_c, 9, 44, 80
12, 58560, Note_on_c, 9, 44, 127
12, 58800, Note_off_c, 9, 44, 80
12, 58800, Note_on_c, 9, 44, 127
12, 59040, Note_off_c, 9, 44, 80
12, 59280, Note_on_c, 9, 44, 127
12, 59520, Note_off_c, 9, 44, 80
12, 59520, Note_on_c, 9, 46, 127
12, 60240, Note_off_c, 9, 46, 80
12, 60480, Note_on_c, 9, 44, 127
12, 60720, Note_off_c, 9, 44, 80
12, 60720, Note_on_c, 9, 44, 127
12, 60960, Note_off_c, 9, 44, 80
12, 61200, Note_on_c, 9, 46, 127
12, 61440, Note_off_c, 9, 46, 80
12, 61440, Note_on_c, 9, 44, 127
12, 62160, Note_off_c, 9, 44, 80
12, 62400, Note_on_c, 9, 44, 127
12, 62640, Note_off_c, 9, 44, 80
12, 62640, Note_on_c, 9, 44, 127
12, 62880, Note_off_c, 9, 44, 80
12, 63120, Note_on_c, 9, 44, 127
12, 63360, Note_off_c, 9, 44, 80
12, 63360, Note_on_c, 9, 46, 127
12, 64080, Note_off_c, 9, 46, 80
12, 64320, Note_on_c, 9, 44, 127
12, 64560, Note_off_c, 9, 44, 80
12, 64560, Note_on_c, 9, 44, 127
12, 64800, Note_off_c, 9, 44, 80
12, 65040, Note_on_c, 9, 46, 127
12, 65280, Note_off_c, 9, 46, 80
12, 65280, Note_on_c, 9, 44, 127
12, 66000, Note_off_c, 9, 44, 80
12, 66240, Note_on_c, 9, 44, 127
12, 66480, Note_off_c, 9, 44, 80
12, 66480, Note_on_c, 9, 44, 127
12, 66720, Note_off_c, 9, 44, 80
12, 66960, Note_on_c, 9, 44, 127
12, 67200, Note_off_c, 9, 44, 80
12, 67200, Note_on_c, 9, 46, 127
12, 67920, Note_off_c, 9, 46, 80
12, 68160, Note_on_c, 9, 44, 127
12, 68400, Note_off_c, 9, 44, 80
12, 68400, Note_on_c, 9, 44, 127
12, 68640, Note_off_c, 9, 44, 80
12, 68880, Note_on_c, 9, 46, 127
12, 69120, Note_off_c, 9, 46, 80
12, 69120, Note_on_c, 9, 44, 127
12, 69840, Note_off_c, 9, 44, 80
12, 70080, Note_on_c, 9, 44, 127
12, 70320, Note_off_c, 9, 44, 80
12, 70320, Note_on_c, 9, 44, 127
12, 70560, Note_off_c, 9, 44, 80
12, 70800, Note_on_c, 9, 44, 127
12, 71040, Note_off_c, 9, 44, 80
12, 71040, Note_on_c, 9, 46, 127
12, 71760, Note_off_c, 9, 46, 80
12, 72000, Note_on_c, 9, 44, 127
12, 72240, Note_off_c, 9, 44, 80
12, 72240, Note_on_c, 9, 44, 127
12, 72480, Note_off_c, 9, 44, 80
12, 72720, Note_on_c, 9, 46, 127
12, 72960, Note_off_c, 9, 46, 80
12, 72960, Note_on_c, 9, 44, 127
12, 73680, Note_off_c, 9, 44, 80
12, 73920, Note_on_c, 9, 44, 127
12, 74160, Note_off_c, 9, 44, 80
12, 74160, Note_on_c, 9, 44, 127
12, 74400, Note_off_c, 9, 44, 80
12, 74640, Note_on_c, 9, 44, 127
12, 74880, Note_off_c, 9, 44, 80
12, 74880, Note_on_c, 9, 46, 127
12, 75600, Note_off_c, 9, 46, 80
12, 75840, Note_on_c, 9, 44, 127
12, 76080, Note_off_c, 9, 44, 80
12, 76080, Note_on_c, 9, 44, 127
12, 76320, Note_off_c, 9, 44, 80
12, 76560, Note_on_c, 9, 46, 127
12, 76800, Note_off_c, 9, 46, 80
12, 76800, Note_on_c, 9, 44, 127
12, 77520, Note_off_c, 9, 44, 80
12, 77760, Note_on_c, 9, 44, 127
12, 78000, Note_off_c, 9, 44, 80
12, 78000, Note_on_c, 9, 44, 127
12, 78240, Note_off_c, 9, 44, 80
12, 78480, Note_on_c, 9, 44, 127
12, 78720, Note_off_c, 9, 44, 80
12, 78720, Note_on_c, 9, 46, 127
12, 79440, Note_off_c, 9, 46, 80
12, 79680, Note_on_c, 9, 44, 127
12, 79920, Note_off_c, 9, 44, 80
12, 79920, Note_on_c, 9, 44, 127
12, 80160, Note_off_c, 9, 44, 80
12, 80400, Note_on_c, 9, 46, 127
12, 80640, Note_off_c, 9, 46, 80
12, 80640, Note_on_c, 9, 44, 127
12, 81360, Note_off_c, 9, 44, 80
12, 81600, Note_on_c, 9, 44, 127
12, 81840, Note_off_c, 9, 44, 80
12, 81840, Note_on_c, 9, 44, 127
12, 82080, Note_off_c, 9, 44, 80
12, 82320, Note_on_c, 9, 44, 127
12, 82560, Note_off_c, 9, 44, 80
12, 82560, Note_on_c, 9, 46, 127
12, 83280, Note_off_c, 9, 46, 80
12, 83520, Note_on_c, 9, 44, 127
12, 83760, Note_off_c, 9, 44, 80
12, 83760, Note_on_c, 9, 44, 127
12, 84000, Note_off_c, 9, 44, 80
12, 84240, Note_on_c, 9, 46, 127
12, 84480, Note_off_c, 9, 46, 80
12, 84480, Note_on_c, 9, 44, 127
12, 85200, Note_off_c, 9, 44, 80
12, 85440, Note_on_c, 9, 44, 127
12, 85680, Note_off_c, 9, 44, 80
12, 85680, Note_on_c, 9, 44, 127
12, 85920, Note_off_c, 9, 44, 80
12, 86160, Note_on_c, 9, 44, 127
12, 86400, Note_off_c, 9, 44, 80
12, 86400, Note_on_c, 9, 55, 95
12, 86400, Note_on_c, 9, 51, 79
12, 86640, Note_off_c, 9, 55, 80
12, 86640, Note_off_c, 9, 51, 80
12, 86640, Note_on_c, 9, 55, 95
12, 86640, Note_on_c, 9, 51, 79
12, 86760, Note_off_c, 9, 55, 80
12, 86760, Note_off_c, 9, 51, 80
12, 86760, Note_on_c, 9, 55, 95
12, 86880, Note_off_c, 9, 55, 80
12, 86880, Note_on_c, 9, 55, 95
12, 86880, Note_on_c, 9, 51, 79
12, 86880, Note_on_c, 9, 86, 127
12, 86880, Note_on_c, 9, 64, 127
12, 86880, Note_on_c, 9, 40, 127
12, 86880, Note_on_c, 9, 61, 127
12, 87120, Note_off_c, 9, 55, 80
12, 87120, Note_off_c, 9, 51, 80
12, 87120, Note_off_c, 9, 86, 80
12, 87120, Note_off_c, 9, 64, 80
12, 87120, Note_off_c, 9, 40, 80
12, 87120, Note_off_c, 9, 61, 80
12, 87120, Note_on_c, 9, 55, 95
12, 87120, Note_on_c, 9, 51, 79
12, 87240, Note_off_c, 9, 55, 80
12, 87240, Note_off_c, 9, 51, 80
12, 87240, Note_on_c, 9, 55, 95
12, 87360, Note_off_c, 9, 55, 80
12, 87360, Note_on_c, 9, 55, 95
12, 87360, Note_on_c, 9, 51, 79
12, 87480, Note_off_c, 9, 55, 80
12, 87480, Note_off_c, 9, 51, 80
12, 87480, Note_on_c, 9, 55, 95
12, 87480, Note_on_c, 9, 51, 79
12, 87600, Note_off_c, 9, 55, 80
12, 87600, Note_off_c, 9, 51, 80
12, 87600, Note_on_c, 9, 55, 95
12, 87600, Note_on_c, 9, 51, 79
12, 87720, Note_off_c, 9, 55, 80
12, 87720, Note_off_c, 9, 51, 80
12, 87720, Note_on_c, 9, 55, 95
12, 87840, Note_off_c, 9, 55, 80
12, 87840, Note_on_c, 9, 55, 95
12, 87840, Note_on_c, 9, 51, 79
12, 87840, Note_on_c, 9, 86, 127
12, 87840, Note_on_c, 9, 64, 127
12, 87840, Note_on_c, 9, 40, 127
12, 87840, Note_on_c, 9, 61, 127
12, 88080, Note_off_c, 9, 55, 80
12, 88080, Note_off_c, 9, 51, 80
12, 88080, Note_off_c, 9, 86, 80
12, 88080, Note_off_c, 9, 64, 80
12, 88080, Note_off_c, 9, 40, 80
12, 88080, Note_off_c, 9, 61, 80
12, 88080, Note_on_c, 9, 55, 95
12, 88200, Note_off_c, 9, 55, 80
12, 88200, Note_on_c, 9, 55, 95
12, 88200, Note_on_c, 9, 51, 79
12, 88320, Note_off_c, 9, 55, 80
12, 88320, Note_off_c, 9, 51, 80
12, 88320, Note_on_c, 9, 55, 95
12, 88320, Note_on_c, 9, 51, 79
12, 88560, Note_off_c, 9, 55, 80
12, 88560, Note_off_c, 9, 51, 80
12, 88560, Note_on_c, 9, 55, 95
12, 88560, Note_on_c, 9, 51, 79
12, 88680, Note_off_c, 9, 55, 80
12, 88680, Note_off_c, 9, 51, 80
12, 88680, Note_on_c, 9, 55, 95
12, 88800, Note_off_c, 9, 55, 80
12, 88800, Note_on_c, 9, 55, 95
12, 88800, Note_on_c, 9, 51, 79
12, 88800, Note_on_c, 9, 86, 127
12, 88800, Note_on_c, 9, 64, 127
12, 88800, Note_on_c, 9, 40, 127
12, 88800, Note_on_c, 9, 61, 127
12, 89040, Note_off_c, 9, 55, 80
12, 89040, Note_off_c, 9, 51, 80
12, 89040, Note_off_c, 9, 86, 80
12, 89040, Note_off_c, 9, 64, 80
12, 89040, Note_off_c, 9, 40, 80
12, 89040, Note_off_c, 9, 61, 80
12, 89040, Note_on_c, 9, 55, 95
12, 89040, Note_on_c, 9, 51, 79
12, 89160, Note_off_c, 9, 55, 80
12, 89160, Note_off_c, 9, 51, 80
12, 89160, Note_on_c, 9, 55, 95
12, 89280, Note_off_c, 9, 55, 80
12, 89280, Note_on_c, 9, 55, 95
12, 89280, Note_on_c, 9, 51, 79
12, 89400, Note_off_c, 9, 55, 80
12, 89400, Note_off_c, 9, 51, 80
12, 89400, Note_on_c, 9, 55, 95
12, 89400, Note_on_c, 9, 51, 79
12, 89520, Note_off_c, 9, 55, 80
12, 89520, Note_off_c, 9, 51, 80
12, 89520, Note_on_c, 9, 55, 95
12, 89520, Note_on_c, 9, 51, 79
12, 89640, Note_off_c, 9, 55, 80
12, 89640, Note_off_c, 9, 51, 80
12, 89640, Note_on_c, 9, 55, 95
12, 89760, Note_off_c, 9, 55, 80
12, 89760, Note_on_c, 9, 55, 95
12, 89760, Note_on_c, 9, 51, 79
12, 89760, Note_on_c, 9, 86, 127
12, 89760, Note_on_c, 9, 64, 127
12, 89760, Note_on_c, 9, 40, 127
12, 89760, Note_on_c, 9, 61, 127
12, 90000, Note_off_c, 9, 55, 80
12, 90000, Note_off_c, 9, 51, 80
12, 90000, Note_off_c, 9, 86, 80
12, 90000, Note_off_c, 9, 64, 80
12, 90000, Note_off_c, 9, 40, 80
12, 90000, Note_off_c, 9, 61, 80
12, 90000, Note_on_c, 9, 55, 95
12, 90120, Note_off_c, 9, 55, 80
12, 90120, Note_on_c, 9, 55, 95
12, 90120, Note_on_c, 9, 51, 79
12, 90240, Note_off_c, 9, 55, 80
12, 90240, Note_off_c, 9, 51, 80
12, 90240, Note_on_c, 9, 55, 95
12, 90240, Note_on_c, 9, 51, 79
12, 90480, Note_off_c, 9, 55, 80
12, 90480, Note_off_c, 9, 51, 80
12, 90480, Note_on_c, 9, 55, 95
12, 90480, Note_on_c, 9, 51, 79
12, 90600, Note_off_c, 9, 55, 80
12, 90600, Note_off_c, 9, 51, 80
12, 90600, Note_on_c, 9, 55, 95
12, 90720, Note_off_c, 9, 55, 80
12, 90720, Note_on_c, 9, 55, 95
12, 90720, Note_on_c, 9, 51, 79
12, 90720, Note_on_c, 9, 86, 127
12, 90720, Note_on_c, 9, 64, 127
12, 90720, Note_on_c, 9, 40, 127
12, 90720, Note_on_c, 9, 61, 127
12, 90960, Note_off_c, 9, 55, 80
12, 90960, Note_off_c, 9, 51, 80
12, 90960, Note_off_c, 9, 86, 80
12, 90960, Note_off_c, 9, 64, 80
12, 90960, Note_off_c, 9, 40, 80
12, 90960, Note_off_c, 9, 61, 80
12, 90960, Note_on_c, 9, 55, 95
12, 90960, Note_on_c, 9, 51, 79
12, 91080, Note_off_c, 9, 55, 80
12, 91080, Note_off_c, 9, 51, 80
12, 91080, Note_on_c, 9, 55, 95
12, 91200, Note_off_c, 9, 55, 80
12, 91200, Note_on_c, 9, 55, 95
12, 91200, Note_on_c, 9, 51, 79
12, 91320, Note_off_c, 9, 55, 80
12, 91320, Note_off_c, 9, 51, 80
12, 91320, Note_on_c, 9, 55, 95
12, 91320, Note_on_c, 9, 51, 79
12, 91440, Note_off_c, 9, 55, 80
12, 91440, Note_off_c, 9, 51, 80
12, 91440, Note_on_c, 9, 55, 95
12, 91440, Note_on_c, 9, 51, 79
12, 91560, Note_off_c, 9, 55, 80
12, 91560, Note_off_c, 9, 51, 80
12, 91560, Note_on_c, 9, 55, 95
12, 91680, Note_off_c, 9, 55, 80
12, 91680, Note_on_c, 9, 55, 95
12, 91680, Note_on_c, 9, 51, 79
12, 91680, Note_on_c, 9, 86, 127
12, 91680, Note_on_c, 9, 64, 127
12, 91680, Note_on_c, 9, 40, 127
12, 91680, Note_on_c, 9, 61, 127
12, 91920, Note_off_c, 9, 55, 80
12, 91920, Note_off_c, 9, 51, 80
12, 91920, Note_off_c, 9, 86, 80
12, 91920, Note_off_c, 9, 64, 80
12, 91920, Note_off_c, 9, 40, 80
12, 91920, Note_off_c, 9, 61, 80
12, 91920, Note_on_c, 9, 55, 95
12, 92040, Note_off_c, 9, 55, 80
12, 92040, Note_on_c, 9, 55, 95
12, 92040, Note_on_c, 9, 51, 79
12, 92160, Note_off_c, 9, 55, 80
12, 92160, Note_off_c, 9, 51, 80
12, 92160, Note_on_c, 9, 55, 95
12, 92160, Note_on_c, 9, 51, 79
12, 92400, Note_off_c, 9, 55, 80
12, 92400, Note_off_c, 9, 51, 80
12, 92400, Note_on_c, 9, 55, 95
12, 92400, Note_on_c, 9, 51, 79
12, 92520, Note_off_c, 9, 55, 80
12, 92520, Note_off_c, 9, 51, 80
12, 92520, Note_on_c, 9, 55, 95
12, 92640, Note_off_c, 9, 55, 80
12, 92640, Note_on_c, 9, 55, 95
12, 92640, Note_on_c, 9, 51, 79
12, 92640, Note_on_c, 9, 86, 127
12, 92640, Note_on_c, 9, 64, 127
12, 92640, Note_on_c, 9, 40, 127
12, 92640, Note_on_c, 9, 61, 127
12, 92880, Note_off_c, 9, 55, 80
12, 92880, Note_off_c, 9, 51, 80
12, 92880, Note_off_c, 9, 86, 80
12, 92880, Note_off_c, 9, 64, 80
12, 92880, Note_off_c, 9, 40, 80
12, 92880, Note_off_c, 9, 61, 80
12, 92880, Note_on_c, 9, 55, 95
12, 92880, Note_on_c, 9, 51, 79
12, 93000, Note_off_c, 9, 55, 80
12, 93000, Note_off_c, 9, 51, 80
12, 93000, Note_on_c, 9, 55, 95
12, 93120, Note_off_c, 9, 55, 80
12, 93120, Note_on_c, 9, 55, 95
12, 93120, Note_on_c, 9, 51, 79
12, 93240, Note_off_c, 9, 55, 80
12, 93240, Note_off_c, 9, 51, 80
12, 93240, Note_on_c, 9, 55, 95
12, 93240, Note_on_c, 9, 51, 79
12, 93360, Note_off_c, 9, 55, 80
12, 93360, Note_off_c, 9, 51, 80
12, 93360, Note_on_c, 9, 55, 95
12, 93360, Note_on_c, 9, 51, 79
12, 93480, Note_off_c, 9, 55, 80
12, 93480, Note_off_c, 9, 51, 80
12, 93480, Note_on_c, 9, 55, 95
12, 93600, Note_off_c, 9, 55, 80
12, 93600, Note_on_c, 9, 55, 95
12, 93600, Note_on_c, 9, 51, 79
12, 93600, Note_on_c, 9, 86, 127
12, 93600, Note_on_c, 9, 64, 127
12, 93600, Note_on_c, 9, 40, 127
12, 93600, Note_on_c, 9, 61, 127
12, 93840, Note_off_c, 9, 55, 80
12, 93840, Note_off_c, 9, 51, 80
12, 93840, Note_off_c, 9, 86, 80
12, 93840, Note_off_c, 9, 64, 80
12, 93840, Note_off_c, 9, 40, 80
12, 93840, Note_off_c, 9, 61, 80
12, 93840, Note_on_c, 9, 55, 95
12, 93960, Note_off_c, 9, 55, 80
12, 93960, Note_on_c, 9, 55, 95
12, 93960, Note_on_c, 9, 51, 79
12, 94080, Note_off_c, 9, 55, 80
12, 94080, Note_off_c, 9, 51, 80
12, 94080, Note_on_c, 9, 55, 95
12, 94080, Note_on_c, 9, 51, 79
12, 94320, Note_off_c, 9, 55, 80
12, 94320, Note_off_c, 9, 51, 80
12, 94320, Note_on_c, 9, 55, 95
12, 94320, Note_on_c, 9, 51, 79
12, 94440, Note_off_c, 9, 55, 80
12, 94440, Note_off_c, 9, 51, 80
12, 94440, Note_on_c, 9, 55, 95
12, 94560, Note_off_c, 9, 55, 80
12, 94560, Note_on_c, 9, 55, 95
12, 94560, Note_on_c, 9, 51, 79
12, 94560, Note_on_c, 9, 86, 127
12, 94560, Note_on_c, 9, 64, 127
12, 94560, Note_on_c, 9, 40, 127
12, 94560, Note_on_c, 9, 61, 127
12, 94800, Note_off_c, 9, 55, 80
12, 94800, Note_off_c, 9, 51, 80
12, 94800, Note_off_c, 9, 86, 80
12, 94800, Note_off_c, 9, 64, 80
12, 94800, Note_off_c, 9, 40, 80
12, 94800, Note_off_c, 9, 61, 80
12, 94800, Note_on_c, 9, 55, 95
12, 94800, Note_on_c, 9, 51, 79
12, 94920, Note_off_c, 9, 55, 80
12, 94920, Note_off_c, 9, 51, 80
12, 94920, Note_on_c, 9, 55, 95
12, 95040, Note_off_c, 9, 55, 80
12, 95040, Note_on_c, 9, 55, 95
12, 95040, Note_on_c, 9, 51, 79
12, 95160, Note_off_c, 9, 55, 80
12, 95160, Note_off_c, 9, 51, 80
12, 95160, Note_on_c, 9, 55, 95
12, 95160, Note_on_c, 9, 51, 79
12, 95280, Note_off_c, 9, 55, 80
12, 95280, Note_off_c, 9, 51, 80
12, 95280, Note_on_c, 9, 55, 95
12, 95280, Note_on_c, 9, 51, 79
12, 95400, Note_off_c, 9, 55, 80
12, 95400, Note_off_c, 9, 51, 80
12, 95400, Note_on_c, 9, 55, 95
12, 95520, Note_off_c, 9, 55, 80
12, 95520, Note_on_c, 9, 55, 95
12, 95520, Note_on_c, 9, 51, 79
12, 95520, Note_on_c, 9, 86, 127
12, 95520, Note_on_c, 9, 64, 127
12, 95520, Note_on_c, 9, 40, 127
12, 95520, Note_on_c, 9, 61, 127
12, 95760, Note_off_c, 9, 55, 80
12, 95760, Note_off_c, 9, 51, 80
12, 95760, Note_off_c, 9, 86, 80
12, 95760, Note_off_c, 9, 64, 80
12, 95760, Note_off_c, 9, 40, 80
12, 95760, Note_off_c, 9, 61, 80
12, 95760, Note_on_c, 9, 55, 95
12, 95880, Note_off_c, 9, 55, 80
12, 95880, Note_on_c, 9, 55, 95
12, 95880, Note_on_c, 9, 51, 79
12, 96000, Note_off_c, 9, 55, 80
12, 96000, Note_off_c, 9, 51, 80
12, 96000, Note_on_c, 9, 55, 95
12, 96000, Note_on_c, 9, 51, 79
12, 96240, Note_off_c, 9, 55, 80
12, 96240, Note_off_c, 9, 51, 80
12, 96240, Note_on_c, 9, 55, 95
12, 96240, Note_on_c, 9, 51, 79
12, 96360, Note_off_c, 9, 55, 80
12, 96360, Note_off_c, 9, 51, 80
12, 96360, Note_on_c, 9, 55, 95
12, 96480, Note_off_c, 9, 55, 80
12, 96480, Note_on_c, 9, 55, 95
12, 96480, Note_on_c, 9, 51, 79
12, 96480, Note_on_c, 9, 86, 127
12, 96480, Note_on_c, 9, 64, 127
12, 96480, Note_on_c, 9, 40, 127
12, 96480, Note_on_c, 9, 61, 127
12, 96720, Note_off_c, 9, 55, 80
12, 96720, Note_off_c, 9, 51, 80
12, 96720, Note_off_c, 9, 86, 80
12, 96720, Note_off_c, 9, 64, 80
12, 96720, Note_off_c, 9, 40, 80
12, 96720, Note_off_c, 9, 61, 80
12, 96720, Note_on_c, 9, 55, 95
12, 96720, Note_on_c, 9, 51, 79
12, 96840, Note_off_c, 9, 55, 80
12, 96840, Note_off_c, 9, 51, 80
12, 96840, Note_on_c, 9, 55, 95
12, 96960, Note_off_c, 9, 55, 80
12, 96960, Note_on_c, 9, 55, 95
12, 96960, Note_on_c, 9, 51, 79
12, 97080, Note_off_c, 9, 55, 80
12, 97080, Note_off_c, 9, 51, 80
12, 97080, Note_on_c, 9, 55, 95
12, 97080, Note_on_c, 9, 51, 79
12, 97200, Note_off_c, 9, 55, 80
12, 97200, Note_off_c, 9, 51, 80
12, 97200, Note_on_c, 9, 55, 95
12, 97200, Note_on_c, 9, 51, 79
12, 97320, Note_off_c, 9, 55, 80
12, 97320, Note_off_c, 9, 51, 80
12, 97320, Note_on_c, 9, 55, 95
12, 97440, Note_off_c, 9, 55, 80
12, 97440, Note_on_c, 9, 55, 95
12, 97440, Note_on_c, 9, 51, 79
12, 97440, Note_on_c, 9, 86, 127
12, 97440, Note_on_c, 9, 64, 127
12, 97440, Note_on_c, 9, 40, 127
12, 97440, Note_on_c, 9, 61, 127
12, 97680, Note_off_c, 9, 55, 80
12, 97680, Note_off_c, 9, 51, 80
12, 97680, Note_off_c, 9, 86, 80
12, 97680, Note_off_c, 9, 64, 80
12, 97680, Note_off_c, 9, 40, 80
12, 97680, Note_off_c, 9, 61, 80
12, 97680, Note_on_c, 9, 55, 95
12, 97800, Note_off_c, 9, 55, 80
12, 97800, Note_on_c, 9, 55, 95
12, 97800, Note_on_c, 9, 51, 79
12, 97920, Note_off_c, 9, 55, 80
12, 97920, Note_off_c, 9, 51, 80
12, 97920, Note_on_c, 9, 57, 79
12, 98160, Note_off_c, 9, 57, 80
12, 98160, Note_on_c, 9, 57, 79
12, 98640, Note_off_c, 9, 57, 80
12, 98640, Note_on_c, 9, 57, 79
12, 98880, Note_off_c, 9, 57, 80
12, 98880, Note_on_c, 9, 57, 95
12, 99120, Note_off_c, 9, 57, 80
12, 99120, Note_on_c, 9, 57, 95
12, 99600, Note_off_c, 9, 57, 80
12, 99600, Note_on_c, 9, 57, 95
12, 99840, Note_off_c, 9, 57, 80
12, 99840, Note_on_c, 9, 57, 111
12, 100080, Note_off_c, 9, 57, 80
12, 100080, Note_on_c, 9, 57, 111
12, 100560, Note_off_c, 9, 57, 80
12, 100560, Note_on_c, 9, 57, 111
12, 100800, Note_off_c, 9, 57, 80
12, 100800, Note_on_c, 9, 57, 127
12, 101040, Note_off_c, 9, 57, 80
12, 101040, Note_on_c, 9, 57, 127
12, 101520, Note_off_c, 9, 57, 80
12, 101520, Note_on_c, 9, 57, 127
12, 101640, Note_off_c, 9, 57, 80
12, 101760, Note_on_c, 9, 49, 127
12, 102000, Note_off_c, 9, 49, 80
12, 103680, Note_on_c, 9, 44, 127
12, 104400, Note_off_c, 9, 44, 80
12, 104640, Note_on_c, 9, 44, 127
12, 104880, Note_off_c, 9, 44, 80
12, 104880, Note_on_c, 9, 44, 127
12, 105120, Note_off_c, 9, 44, 80
12, 105360, Note_on_c, 9, 44, 127
12, 105600, Note_off_c, 9, 44, 80
12, 105600, Note_on_c, 9, 46, 127
12, 106320, Note_off_c, 9, 46, 80
12, 106560, Note_on_c, 9, 44, 127
12, 106800, Note_off_c, 9, 44, 80
12, 106800, Note_on_c, 9, 44, 127
12, 107040, Note_off_c, 9, 44, 80
12, 107280, Note_on_c, 9, 46, 127
12, 107520, Note_off_c, 9, 46, 80
12, 107520, Note_on_c, 9, 44, 127
12, 108240, Note_off_c, 9, 44, 80
12, 108480, Note_on_c, 9, 44, 127
12, 108720, Note_off_c, 9, 44, 80
12, 108720, Note_on_c, 9, 44, 127
12, 108960, Note_off_c, 9, 44, 80
12, 109200, Note_on_c, 9, 44, 127
12, 109440, Note_off_c, 9, 44, 80
12, 109440, Note_on_c, 9, 46, 127
12, 110160, Note_off_c, 9, 46, 80
12, 110400, Note_on_c, 9, 44, 127
12, 110640, Note_off_c, 9, 44, 80
12, 110640, Note_on_c, 9, 44, 127
12, 110880, Note_off_c, 9, 44, 80
12, 111120, Note_on_c, 9, 46, 127
12, 111360, Note_off_c, 9, 46, 80
12, 111360, Note_on_c, 9, 44, 127
12, 112080, Note_off_c, 9, 44, 80
12, 112320, Note_on_c, 9, 44, 127
12, 112560, Note_off_c, 9, 44, 80
12, 112560, Note_on_c, 9, 44, 127
12, 112800, Note_off_c, 9, 44, 80
12, 113040, Note_on_c, 9, 44, 127
12, 113280, Note_off_c, 9, 44, 80
12, 113280, Note_on_c, 9, 46, 127
12, 114000, Note_off_c, 9, 46, 80
12, 114240, Note_on_c, 9, 44, 127
12, 114480, Note_off_c, 9, 44, 80
12, 114480, Note_on_c, 9, 44, 127
12, 114720, Note_off_c, 9, 44, 80
12, 114960, Note_on_c, 9, 46, 127
12, 115200, Note_off_c, 9, 46, 80
12, 115200, Note_on_c, 9, 44, 127
12, 115920, Note_off_c, 9, 44, 80
12, 116160, Note_on_c, 9, 44, 127
12, 116400, Note_off_c, 9, 44, 80
12, 116400, Note_on_c, 9, 44, 127
12, 116640, Note_off_c, 9, 44, 80
12, 116880, Note_on_c, 9, 44, 127
12, 117120, Note_off_c, 9, 44, 80
12, 117120, Note_on_c, 9, 46, 127
12, 117840, Note_off_c, 9, 46, 80
12, 118080, Note_on_c, 9, 44, 127
12, 118320, Note_off_c, 9, 44, 80
12, 118320, Note_on_c, 9, 44, 127
12, 118560, Note_off_c, 9, 44, 80
12, 118800, Note_on_c, 9, 46, 127
12, 119040, Note_off_c, 9, 46, 80
12, 119040, Note_on_c, 9, 44, 127
12, 119760, Note_off_c, 9, 44, 80
12, 120000, Note_on_c, 9, 44, 127
12, 120240, Note_off_c, 9, 44, 80
12, 120240, Note_on_c, 9, 44, 127
12, 120480, Note_off_c, 9, 44, 80
12, 120720, Note_on_c, 9, 44, 127
12, 120960, Note_off_c, 9, 44, 80
12, 120960, Note_on_c, 9, 46, 127
12, 121680, Note_off_c, 9, 46, 80
12, 121920, Note_on_c, 9, 44, 127
12, 122160, Note_off_c, 9, 44, 80
12, 122160, Note_on_c, 9, 44, 127
12, 122400, Note_off_c, 9, 44, 80
12, 122640, Note_on_c, 9, 46, 127
12, 122880, Note_off_c, 9, 46, 80
12, 122880, Note_on_c, 9, 44, 127
12, 123600, Note_off_c, 9, 44, 80
12, 123840, Note_on_c, 9, 44, 127
12, 124080, Note_off_c, 9, 44, 80
12, 124080, Note_on_c, 9, 44, 127
12, 124320, Note_off_c, 9, 44, 80
12, 124560, Note_on_c, 9, 44, 127
12, 124800, Note_off_c, 9, 44, 80
12, 124800, Note_on_c, 9, 46, 127
12, 125520, Note_off_c, 9, 46, 80
12, 125760, Note_on_c, 9, 44, 127
12, 126000, Note_off_c, 9, 44, 80
12, 126000, Note_on_c, 9, 44, 127
12, 126240, Note_off_c, 9, 44, 80
12, 126480, Note_on_c, 9, 46, 127
12, 126720, Note_off_c, 9, 46, 80
12, 126720, Note_on_c, 9, 46, 127
12, 127440, Note_off_c, 9, 46, 80
12, 127680, Note_on_c, 9, 44, 127
12, 127920, Note_off_c, 9, 44, 80
12, 127920, Note_on_c, 9, 44, 127
12, 128160, Note_off_c, 9, 44, 80
12, 128400, Note_on_c, 9, 46, 127
12, 128640, Note_off_c, 9, 46, 80
12, 128640, Note_on_c, 9, 46, 127
12, 129360, Note_off_c, 9, 46, 80
12, 129600, Note_on_c, 9, 44, 127
12, 129840, Note_off_c, 9, 44, 80
12, 129840, Note_on_c, 9, 44, 127
12, 130080, Note_off_c, 9, 44, 80
12, 130320, Note_on_c, 9, 46, 127
12, 130560, Note_off_c, 9, 46, 80
12, 130560, Note_on_c, 9, 46, 127
12, 131280, Note_off_c, 9, 46, 80
12, 131520, Note_on_c, 9, 44, 127
12, 131760, Note_off_c, 9, 44, 80
12, 131760, Note_on_c, 9, 44, 127
12, 132000, Note_off_c, 9, 44, 80
12, 132240, Note_on_c, 9, 46, 127
12, 132480, Note_off_c, 9, 46, 80
12, 132480, Note_on_c, 9, 46, 127
12, 133200, Note_off_c, 9, 46, 80
12, 133440, Note_on_c, 9, 44, 127
12, 133680, Note_off_c, 9, 44, 80
12, 133680, Note_on_c, 9, 44, 127
12, 133920, Note_off_c, 9, 44, 80
12, 134160, Note_on_c, 9, 46, 127
12, 134400, Note_off_c, 9, 46, 80
12, 134400, Note_on_c, 9, 46, 127
12, 135120, Note_off_c, 9, 46, 80
12, 135360, Note_on_c, 9, 44, 127
12, 135600, Note_off_c, 9, 44, 80
12, 135600, Note_on_c, 9, 44, 127
12, 135840, Note_off_c, 9, 44, 80
12, 136080, Note_on_c, 9, 46, 127
12, 136320, Note_off_c, 9, 46, 80
12, 136320, Note_on_c, 9, 46, 127
12, 137040, Note_off_c, 9, 46, 80
12, 137280, Note_on_c, 9, 44, 127
12, 137520, Note_off_c, 9, 44, 80
12, 137520, Note_on_c, 9, 44, 127
12, 137760, Note_off_c, 9, 44, 80
12, 138000, Note_on_c, 9, 46, 127
12, 138240, Note_off_c, 9, 46, 80
12, 138240, Note_on_c, 9, 46, 127
12, 138960, Note_off_c, 9, 46, 80
12, 139200, Note_on_c, 9, 44, 127
12, 139440, Note_off_c, 9, 44, 80
12, 139440, Note_on_c, 9, 44, 127
12, 139680, Note_off_c, 9, 44, 80
12, 139920, Note_on_c, 9, 46, 127
12, 140160, Note_off_c, 9, 46, 80
12, 140160, Note_on_c, 9, 46, 127
12, 140880, Note_off_c, 9, 46, 80
12, 141120, Note_on_c, 9, 44, 127
12, 141360, Note_off_c, 9, 44, 80
12, 141360, Note_on_c, 9, 44, 127
12, 141600, Note_off_c, 9, 44, 80
12, 141840, Note_on_c, 9, 46, 127
12, 142080, Note_off_c, 9, 46, 80
12, 142080, Note_on_c, 9, 46, 127
12, 142800, Note_off_c, 9, 46, 80
12, 143040, Note_on_c, 9, 44, 127
12, 143280, Note_off_c, 9, 44, 80
12, 143280, Note_on_c, 9, 44, 127
12, 143520, Note_off_c, 9, 44, 80
12, 143760, Note_on_c, 9, 46, 127
12, 144000, Note_off_c, 9, 46, 80
12, 148080, Control_c, 9, 7, 94
12, 148200, Control_c, 9, 7, 93
12, 148320, Control_c, 9, 7, 91
12, 148440, Control_c, 9, 7, 90
12, 148560, Control_c, 9, 7, 88
12, 148680, Control_c, 9, 7, 87
12, 148800, Control_c, 9, 7, 85
12, 148920, Control_c, 9, 7, 83
12, 149040, Control_c, 9, 7, 82
12, 149160, Control_c, 9, 7, 80
12, 149280, Control_c, 9, 7, 79
12, 149400, Control_c, 9, 7, 77
12, 149520, Control_c, 9, 7, 76
12, 149640, Control_c, 9, 7, 74
12, 149760, Control_c, 9, 7, 72
12, 149880, Control_c, 9, 7, 71
12, 150000, Control_c, 9, 7, 69
12, 150120, Control_c, 9, 7, 68
12, 150240, Control_c, 9, 7, 66
12, 150360, Control_c, 9, 7, 65
12, 150480, Control_c, 9, 7, 63
12, 150600, Control_c, 9, 7, 61
12, 150720, Control_c, 9, 7, 60
12, 150840, Control_c, 9, 7, 58
12, 150960, Control_c, 9, 7, 57
12, 151080, Control_c, 9, 7, 55
12, 151200, Control_c, 9, 7, 54
12, 151320, Control_c, 9, 7, 52
12, 151440, Control_c, 9, 7, 50
12, 151560, Control_c, 9, 7, 49
12, 151680, Control_c, 9, 7, 47
12, 151800, Control_c, 9, 7, 46
12, 151920, Control_c, 9, 7, 44
12, 152040, Control_c, 9, 7, 42
12, 152160, Control_c, 9, 7, 41
12, 152280, Control_c, 9, 7, 39
12, 152400, Control_c, 9, 7, 38
12, 152520, Control_c, 9, 7, 36
12, 152640, Control_c, 9, 7, 35
12, 152760, Control_c, 9, 7, 33
12, 152880, Control_c, 9, 7, 31
12, 153000, Control_c, 9, 7, 30
12, 153120, Control_c, 9, 7, 28
12, 153240, Control_c, 9, 7, 27
12, 153360, Control_c, 9, 7, 25
12, 153480, Control_c, 9, 7, 24
12, 153600, Control_c, 9, 7, 22
12, 153720, Control_c, 9, 7, 20
12, 153840, Control_c, 9, 7, 19
12, 153960, Control_c, 9, 7, 17
12, 154080, Control_c, 9, 7, 16
12, 154200, Control_c, 9, 7, 14
12, 154320, Control_c, 9, 7, 13
12, 154440, Control_c, 9, 7, 11
12, 154560, Control_c, 9, 7, 9
12, 154680, Control_c, 9, 7, 8
12, 154800, Control_c, 9, 7, 6
12, 154920, Control_c, 9, 7, 5
12, 155040, Control_c, 9, 7, 3
12, 155160, Control_c, 9, 7, 2
12, 155280, Control_c, 9, 7, 0
12, 155280, End_track
0, 0, End_of_file
