0, 0, Header, 1, 11, 120
1, 0, Start_track
1, 0, Title_t, "untitled"
1, 0, Time_signature, 4, 2, 24, 8
1, 0, Key_signature, 4, "major"
1, 0, Tempo, 566038
1, 1920, Marker_t, "Instru"
1, 4320, Marker_t, """Air cushioned..."""
1, 6720, Marker_t, """I stop and..."""
1, 9120, Marker_t, """And don't think..."""
1, 13920, Marker_t, "Organ solo"
1, 16320, Marker_t, """Blue blue jeans..."""
1, 18720, Marker_t, """My thoughts are..."""
1, 21120, Marker_t, """And don't think..."""
1, 29760, Marker_t, "Organ solo"
1, 29760, End_track
2, 0, Start_track
2, 0, MIDI_port, 0
2, 0, Title_t, "Vocals (Damon Albarn)"
2, 0, Program_c, 0, 53
2, 0, Control_c, 0, 7, 127
2, 0, Control_c, 0, 10, 42
2, 4440, Note_on_c, 0, 64, 100
2, 4560, Note_on_c, 0, 64, 0
2, 4560, Note_on_c, 0, 64, 100
2, 4620, Note_on_c, 0, 64, 0
2, 4620, Note_on_c, 0, 64, 100
2, 4740, Note_on_c, 0, 64, 0
2, 4740, Note_on_c, 0, 63, 100
2, 4980, Note_on_c, 0, 63, 0
2, 4980, Note_on_c, 0, 61, 100
2, 5040, Note_on_c, 0, 61, 0
2, 5040, Note_on_c, 0, 59, 100
2, 5160, Note_on_c, 0, 59, 0
2, 5220, Note_on_c, 0, 62, 100
2, 5280, Note_on_c, 0, 62, 0
2, 5280, Note_on_c, 0, 62, 100
2, 5340, Note_on_c, 0, 62, 0
2, 5340, Note_on_c, 0, 62, 100
2, 5400, Note_on_c, 0, 62, 0
2, 5400, Note_on_c, 0, 62, 100
2, 5460, Note_on_c, 0, 62, 0
2, 5460, Note_on_c, 0, 64, 100
2, 5520, Note_on_c, 0, 64, 0
2, 5520, Note_on_c, 0, 64, 100
2, 5640, Note_on_c, 0, 64, 0
2, 5640, Note_on_c, 0, 64, 100
2, 5760, Note_on_c, 0, 64, 0
2, 5760, Note_on_c, 0, 66, 100
2, 5820, Note_on_c, 0, 66, 0
2, 5820, Note_on_c, 0, 63, 100
2, 5940, Note_on_c, 0, 63, 0
2, 5940, Note_on_c, 0, 63, 100
2, 6120, Note_on_c, 0, 63, 0
2, 6180, Note_on_c, 0, 61, 100
2, 6300, Note_on_c, 0, 61, 0
2, 6300, Note_on_c, 0, 63, 100
2, 6360, Note_on_c, 0, 63, 0
2, 6360, Note_on_c, 0, 61, 100
2, 6420, Note_on_c, 0, 61, 0
2, 6420, Note_on_c, 0, 59, 100
2, 6540, Note_on_c, 0, 59, 0
2, 6540, Note_on_c, 0, 59, 100
2, 6600, Note_on_c, 0, 59, 0
2, 6900, Note_on_c, 0, 64, 100
2, 6960, Note_on_c, 0, 64, 0
2, 6960, Note_on_c, 0, 64, 100
2, 7020, Note_on_c, 0, 64, 0
2, 7020, Note_on_c, 0, 64, 100
2, 7140, Note_on_c, 0, 64, 0
2, 7140, Note_on_c, 0, 63, 100
2, 7380, Note_on_c, 0, 63, 0
2, 7380, Note_on_c, 0, 61, 100
2, 7440, Note_on_c, 0, 61, 0
2, 7440, Note_on_c, 0, 59, 100
2, 7560, Note_on_c, 0, 59, 0
2, 7620, Note_on_c, 0, 62, 100
2, 7680, Note_on_c, 0, 62, 0
2, 7680, Note_on_c, 0, 62, 100
2, 7740, Note_on_c, 0, 62, 0
2, 7740, Note_on_c, 0, 62, 100
2, 7860, Note_on_c, 0, 62, 0
2, 7860, Note_on_c, 0, 64, 100
2, 7980, Note_on_c, 0, 64, 0
2, 7980, Note_on_c, 0, 64, 100
2, 8040, Note_on_c, 0, 64, 0
2, 8100, Note_on_c, 0, 64, 100
2, 8160, Note_on_c, 0, 64, 0
2, 8160, Note_on_c, 0, 66, 100
2, 8280, Note_on_c, 0, 66, 0
2, 8280, Note_on_c, 0, 63, 100
2, 8340, Note_on_c, 0, 63, 0
2, 8340, Note_on_c, 0, 63, 100
2, 8520, Note_on_c, 0, 63, 0
2, 8580, Note_on_c, 0, 61, 100
2, 8700, Note_on_c, 0, 61, 0
2, 8700, Note_on_c, 0, 63, 100
2, 8760, Note_on_c, 0, 63, 0
2, 8760, Note_on_c, 0, 61, 100
2, 8820, Note_on_c, 0, 61, 0
2, 8820, Note_on_c, 0, 59, 100
2, 8940, Note_on_c, 0, 59, 0
2, 8940, Note_on_c, 0, 59, 100
2, 9000, Note_on_c, 0, 59, 0
2, 9180, Note_on_c, 0, 61, 100
2, 9240, Note_on_c, 0, 61, 0
2, 9240, Note_on_c, 0, 61, 100
2, 9360, Note_on_c, 0, 61, 0
2, 9360, Note_on_c, 0, 64, 100
2, 9420, Note_on_c, 0, 64, 0
2, 9420, Note_on_c, 0, 64, 100
2, 9540, Note_on_c, 0, 64, 0
2, 9540, Note_on_c, 0, 66, 100
2, 9660, Note_on_c, 0, 66, 0
2, 9660, Note_on_c, 0, 63, 100
2, 9780, Note_on_c, 0, 63, 0
2, 9780, Note_on_c, 0, 64, 100
2, 9840, Note_on_c, 0, 64, 0
2, 9840, Note_on_c, 0, 66, 100
2, 9900, Note_on_c, 0, 66, 0
2, 9900, Note_on_c, 0, 66, 100
2, 10020, Note_on_c, 0, 66, 0
2, 10080, Note_on_c, 0, 64, 100
2, 10380, Note_on_c, 0, 64, 0
2, 10380, Note_on_c, 0, 66, 100
2, 10500, Note_on_c, 0, 66, 0
2, 10500, Note_on_c, 0, 68, 100
2, 10680, Note_on_c, 0, 68, 0
2, 10980, Note_on_c, 0, 68, 100
2, 11040, Note_on_c, 0, 68, 0
2, 11040, Note_on_c, 0, 71, 100
2, 11100, Note_on_c, 0, 71, 0
2, 11100, Note_on_c, 0, 68, 100
2, 11220, Note_on_c, 0, 68, 0
2, 11220, Note_on_c, 0, 66, 100
2, 11340, Note_on_c, 0, 66, 0
2, 11340, Note_on_c, 0, 68, 100
2, 11460, Note_on_c, 0, 68, 0
2, 11460, Note_on_c, 0, 68, 100
2, 11520, Note_on_c, 0, 68, 0
2, 11520, Note_on_c, 0, 71, 100
2, 11580, Note_on_c, 0, 71, 0
2, 11580, Note_on_c, 0, 68, 100
2, 11700, Note_on_c, 0, 68, 0
2, 11700, Note_on_c, 0, 66, 100
2, 11820, Note_on_c, 0, 66, 0
2, 11820, Note_on_c, 0, 68, 100
2, 12000, Note_on_c, 0, 68, 0
2, 12060, Note_on_c, 0, 64, 100
2, 12120, Note_on_c, 0, 64, 0
2, 12120, Note_on_c, 0, 64, 100
2, 12240, Note_on_c, 0, 64, 0
2, 12240, Note_on_c, 0, 64, 100
2, 12270, Note_on_c, 0, 64, 0
2, 12270, Note_on_c, 0, 64, 100
2, 12300, Note_on_c, 0, 64, 0
2, 12300, Note_on_c, 0, 64, 100
2, 12360, Note_on_c, 0, 64, 0
2, 12360, Note_on_c, 0, 64, 100
2, 12390, Note_on_c, 0, 64, 0
2, 12390, Note_on_c, 0, 64, 100
2, 12540, Note_on_c, 0, 64, 0
2, 12540, Note_on_c, 0, 63, 100
2, 12600, Note_on_c, 0, 63, 0
2, 12600, Note_on_c, 0, 63, 100
2, 12720, Note_on_c, 0, 63, 0
2, 13020, Note_on_c, 0, 64, 100
2, 13080, Note_on_c, 0, 64, 0
2, 13080, Note_on_c, 0, 64, 100
2, 13110, Note_on_c, 0, 64, 0
2, 13110, Note_on_c, 0, 64, 100
2, 13140, Note_on_c, 0, 64, 0
2, 13140, Note_on_c, 0, 64, 100
2, 13260, Note_on_c, 0, 64, 0
2, 13260, Note_on_c, 0, 64, 100
2, 13380, Note_on_c, 0, 64, 0
2, 13380, Note_on_c, 0, 64, 100
2, 13620, Note_on_c, 0, 64, 0
2, 13620, Note_on_c, 0, 69, 100
2, 13680, Note_on_c, 0, 69, 0
2, 13680, Note_on_c, 0, 69, 100
2, 13740, Note_on_c, 0, 69, 0
2, 13740, Note_on_c, 0, 69, 100
2, 13800, Note_on_c, 0, 69, 0
2, 13800, Note_on_c, 0, 71, 100
2, 13860, Note_on_c, 0, 71, 0
2, 13860, Note_on_c, 0, 69, 100
2, 13920, Note_on_c, 0, 69, 0
2, 13920, Note_on_c, 0, 68, 100
2, 14160, Note_on_c, 0, 68, 0
2, 16560, Note_on_c, 0, 64, 100
2, 16680, Note_on_c, 0, 64, 0
2, 16680, Note_on_c, 0, 64, 100
2, 16800, Note_on_c, 0, 64, 0
2, 16800, Note_on_c, 0, 63, 100
2, 16980, Note_on_c, 0, 63, 0
2, 16980, Note_on_c, 0, 61, 100
2, 17040, Note_on_c, 0, 61, 0
2, 17040, Note_on_c, 0, 59, 100
2, 17160, Note_on_c, 0, 59, 0
2, 17220, Note_on_c, 0, 62, 100
2, 17280, Note_on_c, 0, 62, 0
2, 17280, Note_on_c, 0, 62, 100
2, 17340, Note_on_c, 0, 62, 0
2, 17340, Note_on_c, 0, 62, 100
2, 17400, Note_on_c, 0, 62, 0
2, 17400, Note_on_c, 0, 62, 100
2, 17460, Note_on_c, 0, 62, 0
2, 17460, Note_on_c, 0, 64, 100
2, 17520, Note_on_c, 0, 64, 0
2, 17520, Note_on_c, 0, 64, 100
2, 17640, Note_on_c, 0, 64, 0
2, 17700, Note_on_c, 0, 64, 100
2, 17760, Note_on_c, 0, 64, 0
2, 17760, Note_on_c, 0, 66, 100
2, 17880, Note_on_c, 0, 66, 0
2, 17880, Note_on_c, 0, 63, 100
2, 17940, Note_on_c, 0, 63, 0
2, 17940, Note_on_c, 0, 63, 100
2, 18060, Note_on_c, 0, 63, 0
2, 18060, Note_on_c, 0, 59, 100
2, 18180, Note_on_c, 0, 59, 0
2, 18180, Note_on_c, 0, 61, 100
2, 18300, Note_on_c, 0, 61, 0
2, 18300, Note_on_c, 0, 63, 100
2, 18360, Note_on_c, 0, 63, 0
2, 18360, Note_on_c, 0, 61, 100
2, 18420, Note_on_c, 0, 61, 0
2, 18420, Note_on_c, 0, 59, 100
2, 18540, Note_on_c, 0, 59, 0
2, 18540, Note_on_c, 0, 59, 100
2, 18600, Note_on_c, 0, 59, 0
2, 18840, Note_on_c, 0, 64, 100
2, 18960, Note_on_c, 0, 64, 0
2, 18960, Note_on_c, 0, 64, 100
2, 19080, Note_on_c, 0, 64, 0
2, 19080, Note_on_c, 0, 64, 100
2, 19200, Note_on_c, 0, 64, 0
2, 19200, Note_on_c, 0, 63, 100
2, 19260, Note_on_c, 0, 63, 0
2, 19260, Note_on_c, 0, 63, 100
2, 19380, Note_on_c, 0, 63, 0
2, 19380, Note_on_c, 0, 61, 100
2, 19440, Note_on_c, 0, 61, 0
2, 19440, Note_on_c, 0, 59, 100
2, 19560, Note_on_c, 0, 59, 0
2, 19680, Note_on_c, 0, 62, 100
2, 19740, Note_on_c, 0, 62, 0
2, 19740, Note_on_c, 0, 62, 100
2, 19860, Note_on_c, 0, 62, 0
2, 19860, Note_on_c, 0, 64, 100
2, 19980, Note_on_c, 0, 64, 0
2, 19980, Note_on_c, 0, 64, 100
2, 20040, Note_on_c, 0, 64, 0
2, 20100, Note_on_c, 0, 64, 100
2, 20160, Note_on_c, 0, 64, 0
2, 20160, Note_on_c, 0, 66, 100
2, 20220, Note_on_c, 0, 66, 0
2, 20220, Note_on_c, 0, 63, 100
2, 20340, Note_on_c, 0, 63, 0
2, 20340, Note_on_c, 0, 63, 100
2, 20460, Note_on_c, 0, 63, 0
2, 20460, Note_on_c, 0, 59, 100
2, 20580, Note_on_c, 0, 59, 0
2, 20580, Note_on_c, 0, 61, 100
2, 20700, Note_on_c, 0, 61, 0
2, 20700, Note_on_c, 0, 63, 100
2, 20760, Note_on_c, 0, 63, 0
2, 20760, Note_on_c, 0, 61, 100
2, 20820, Note_on_c, 0, 61, 0
2, 20820, Note_on_c, 0, 59, 100
2, 20940, Note_on_c, 0, 59, 0
2, 20940, Note_on_c, 0, 59, 100
2, 21000, Note_on_c, 0, 59, 0
2, 21180, Note_on_c, 0, 61, 100
2, 21240, Note_on_c, 0, 61, 0
2, 21240, Note_on_c, 0, 61, 100
2, 21360, Note_on_c, 0, 61, 0
2, 21360, Note_on_c, 0, 64, 100
2, 21420, Note_on_c, 0, 64, 0
2, 21420, Note_on_c, 0, 64, 100
2, 21540, Note_on_c, 0, 64, 0
2, 21540, Note_on_c, 0, 66, 100
2, 21660, Note_on_c, 0, 66, 0
2, 21660, Note_on_c, 0, 63, 100
2, 21780, Note_on_c, 0, 63, 0
2, 21780, Note_on_c, 0, 64, 100
2, 21840, Note_on_c, 0, 64, 0
2, 21840, Note_on_c, 0, 66, 100
2, 21900, Note_on_c, 0, 66, 0
2, 21900, Note_on_c, 0, 66, 100
2, 22020, Note_on_c, 0, 66, 0
2, 22080, Note_on_c, 0, 64, 100
2, 22380, Note_on_c, 0, 64, 0
2, 22380, Note_on_c, 0, 66, 100
2, 22500, Note_on_c, 0, 66, 0
2, 22500, Note_on_c, 0, 68, 100
2, 22680, Note_on_c, 0, 68, 0
2, 22980, Note_on_c, 0, 68, 100
2, 23040, Note_on_c, 0, 68, 0
2, 23040, Note_on_c, 0, 71, 100
2, 23100, Note_on_c, 0, 71, 0
2, 23100, Note_on_c, 0, 68, 100
2, 23220, Note_on_c, 0, 68, 0
2, 23220, Note_on_c, 0, 66, 100
2, 23340, Note_on_c, 0, 66, 0
2, 23340, Note_on_c, 0, 68, 100
2, 23460, Note_on_c, 0, 68, 0
2, 23460, Note_on_c, 0, 68, 100
2, 23520, Note_on_c, 0, 68, 0
2, 23520, Note_on_c, 0, 71, 100
2, 23580, Note_on_c, 0, 71, 0
2, 23580, Note_on_c, 0, 68, 100
2, 23700, Note_on_c, 0, 68, 0
2, 23700, Note_on_c, 0, 66, 100
2, 23820, Note_on_c, 0, 66, 0
2, 23820, Note_on_c, 0, 68, 100
2, 24000, Note_on_c, 0, 68, 0
2, 24060, Note_on_c, 0, 64, 100
2, 24120, Note_on_c, 0, 64, 0
2, 24120, Note_on_c, 0, 64, 100
2, 24240, Note_on_c, 0, 64, 0
2, 24240, Note_on_c, 0, 64, 100
2, 24270, Note_on_c, 0, 64, 0
2, 24270, Note_on_c, 0, 64, 100
2, 24300, Note_on_c, 0, 64, 0
2, 24300, Note_on_c, 0, 64, 100
2, 24360, Note_on_c, 0, 64, 0
2, 24360, Note_on_c, 0, 64, 100
2, 24390, Note_on_c, 0, 64, 0
2, 24390, Note_on_c, 0, 64, 100
2, 24540, Note_on_c, 0, 64, 0
2, 24540, Note_on_c, 0, 63, 100
2, 24600, Note_on_c, 0, 63, 0
2, 24600, Note_on_c, 0, 63, 100
2, 24720, Note_on_c, 0, 63, 0
2, 25020, Note_on_c, 0, 64, 100
2, 25080, Note_on_c, 0, 64, 0
2, 25080, Note_on_c, 0, 64, 100
2, 25110, Note_on_c, 0, 64, 0
2, 25110, Note_on_c, 0, 64, 100
2, 25140, Note_on_c, 0, 64, 0
2, 25140, Note_on_c, 0, 64, 100
2, 25260, Note_on_c, 0, 64, 0
2, 25260, Note_on_c, 0, 64, 100
2, 25380, Note_on_c, 0, 64, 0
2, 25380, Note_on_c, 0, 64, 100
2, 25620, Note_on_c, 0, 64, 0
2, 25620, Note_on_c, 0, 69, 100
2, 25680, Note_on_c, 0, 69, 0
2, 25680, Note_on_c, 0, 69, 100
2, 25740, Note_on_c, 0, 69, 0
2, 25740, Note_on_c, 0, 69, 100
2, 25800, Note_on_c, 0, 69, 0
2, 25800, Note_on_c, 0, 71, 100
2, 25860, Note_on_c, 0, 71, 0
2, 25860, Note_on_c, 0, 69, 100
2, 25920, Note_on_c, 0, 69, 0
2, 25920, Note_on_c, 0, 68, 100
2, 26100, Note_on_c, 0, 68, 0
2, 26100, Note_on_c, 0, 68, 100
2, 26160, Note_on_c, 0, 68, 0
2, 26160, Note_on_c, 0, 66, 100
2, 26220, Note_on_c, 0, 66, 0
2, 26220, Note_on_c, 0, 68, 100
2, 26340, Note_on_c, 0, 68, 0
2, 26340, Note_on_c, 0, 64, 100
2, 26460, Note_on_c, 0, 64, 0
2, 26460, Note_on_c, 0, 61, 100
2, 26640, Note_on_c, 0, 61, 0
2, 26820, Note_on_c, 0, 68, 100
2, 26880, Note_on_c, 0, 68, 0
2, 26880, Note_on_c, 0, 71, 100
2, 26940, Note_on_c, 0, 71, 0
2, 26940, Note_on_c, 0, 68, 100
2, 27060, Note_on_c, 0, 68, 0
2, 27060, Note_on_c, 0, 66, 100
2, 27180, Note_on_c, 0, 66, 0
2, 27180, Note_on_c, 0, 68, 100
2, 27300, Note_on_c, 0, 68, 0
2, 27300, Note_on_c, 0, 68, 100
2, 27360, Note_on_c, 0, 68, 0
2, 27360, Note_on_c, 0, 71, 100
2, 27420, Note_on_c, 0, 71, 0
2, 27420, Note_on_c, 0, 68, 100
2, 27540, Note_on_c, 0, 68, 0
2, 27540, Note_on_c, 0, 66, 100
2, 27660, Note_on_c, 0, 66, 0
2, 27660, Note_on_c, 0, 68, 100
2, 27840, Note_on_c, 0, 68, 0
2, 27900, Note_on_c, 0, 64, 100
2, 27960, Note_on_c, 0, 64, 0
2, 27960, Note_on_c, 0, 64, 100
2, 28080, Note_on_c, 0, 64, 0
2, 28080, Note_on_c, 0, 64, 100
2, 28110, Note_on_c, 0, 64, 0
2, 28110, Note_on_c, 0, 64, 100
2, 28140, Note_on_c, 0, 64, 0
2, 28140, Note_on_c, 0, 64, 100
2, 28200, Note_on_c, 0, 64, 0
2, 28200, Note_on_c, 0, 64, 100
2, 28230, Note_on_c, 0, 64, 0
2, 28230, Note_on_c, 0, 64, 100
2, 28380, Note_on_c, 0, 64, 0
2, 28380, Note_on_c, 0, 63, 100
2, 28440, Note_on_c, 0, 63, 0
2, 28440, Note_on_c, 0, 63, 100
2, 28560, Note_on_c, 0, 63, 0
2, 28860, Note_on_c, 0, 64, 100
2, 28920, Note_on_c, 0, 64, 0
2, 28920, Note_on_c, 0, 64, 100
2, 28950, Note_on_c, 0, 64, 0
2, 28950, Note_on_c, 0, 64, 100
2, 28980, Note_on_c, 0, 64, 0
2, 28980, Note_on_c, 0, 64, 100
2, 29100, Note_on_c, 0, 64, 0
2, 29100, Note_on_c, 0, 64, 100
2, 29220, Note_on_c, 0, 64, 0
2, 29220, Note_on_c, 0, 64, 100
2, 29460, Note_on_c, 0, 64, 0
2, 29460, Note_on_c, 0, 69, 100
2, 29520, Note_on_c, 0, 69, 0
2, 29520, Note_on_c, 0, 69, 100
2, 29580, Note_on_c, 0, 69, 0
2, 29580, Note_on_c, 0, 69, 100
2, 29640, Note_on_c, 0, 69, 0
2, 29640, Note_on_c, 0, 71, 100
2, 29700, Note_on_c, 0, 71, 0
2, 29700, Note_on_c, 0, 69, 100
2, 29760, Note_on_c, 0, 69, 0
2, 29760, Note_on_c, 0, 68, 100
2, 30000, Note_on_c, 0, 68, 0
2, 34260, Note_on_c, 0, 60, 100
2, 34320, Note_on_c, 0, 60, 0
2, 34320, Note_on_c, 0, 67, 100
2, 34380, Note_on_c, 0, 67, 0
2, 34380, Note_on_c, 0, 66, 100
2, 34440, Note_on_c, 0, 66, 0
2, 34440, Note_on_c, 0, 64, 100
2, 34500, Note_on_c, 0, 64, 0
2, 34500, Note_on_c, 0, 67, 100
2, 34620, Note_on_c, 0, 67, 0
2, 34620, Note_on_c, 0, 66, 100
2, 34680, Note_on_c, 0, 66, 0
2, 34680, Note_on_c, 0, 66, 100
2, 34920, Note_on_c, 0, 66, 0
2, 35100, Note_on_c, 0, 61, 100
2, 35160, Note_on_c, 0, 61, 0
2, 35160, Note_on_c, 0, 61, 100
2, 35280, Note_on_c, 0, 61, 0
2, 35280, Note_on_c, 0, 64, 100
2, 35460, Note_on_c, 0, 64, 0
2, 35460, Note_on_c, 0, 66, 100
2, 35580, Note_on_c, 0, 66, 0
2, 35580, Note_on_c, 0, 63, 100
2, 35700, Note_on_c, 0, 63, 0
2, 35700, Note_on_c, 0, 66, 100
2, 35760, Note_on_c, 0, 66, 0
2, 35760, Note_on_c, 0, 66, 100
2, 35880, Note_on_c, 0, 66, 0
2, 36120, Note_on_c, 0, 61, 100
2, 36240, Note_on_c, 0, 61, 0
2, 36240, Note_on_c, 0, 64, 100
2, 36300, Note_on_c, 0, 64, 0
2, 36300, Note_on_c, 0, 64, 100
2, 36420, Note_on_c, 0, 64, 0
2, 36420, Note_on_c, 0, 66, 100
2, 36540, Note_on_c, 0, 66, 0
2, 36540, Note_on_c, 0, 63, 100
2, 36660, Note_on_c, 0, 63, 0
2, 36660, Note_on_c, 0, 64, 100
2, 36720, Note_on_c, 0, 64, 0
2, 36720, Note_on_c, 0, 66, 100
2, 36780, Note_on_c, 0, 66, 0
2, 36780, Note_on_c, 0, 66, 100
2, 36900, Note_on_c, 0, 66, 0
2, 36960, Note_on_c, 0, 64, 100
2, 37260, Note_on_c, 0, 64, 0
2, 37260, Note_on_c, 0, 66, 100
2, 37380, Note_on_c, 0, 66, 0
2, 37380, Note_on_c, 0, 68, 100
2, 37560, Note_on_c, 0, 68, 0
2, 37860, Note_on_c, 0, 68, 100
2, 37920, Note_on_c, 0, 68, 0
2, 37920, Note_on_c, 0, 71, 100
2, 37980, Note_on_c, 0, 71, 0
2, 37980, Note_on_c, 0, 68, 100
2, 38100, Note_on_c, 0, 68, 0
2, 38100, Note_on_c, 0, 66, 100
2, 38220, Note_on_c, 0, 66, 0
2, 38220, Note_on_c, 0, 68, 100
2, 38340, Note_on_c, 0, 68, 0
2, 38340, Note_on_c, 0, 68, 100
2, 38400, Note_on_c, 0, 68, 0
2, 38400, Note_on_c, 0, 71, 100
2, 38460, Note_on_c, 0, 71, 0
2, 38460, Note_on_c, 0, 68, 100
2, 38580, Note_on_c, 0, 68, 0
2, 38580, Note_on_c, 0, 66, 100
2, 38700, Note_on_c, 0, 66, 0
2, 38700, Note_on_c, 0, 68, 100
2, 38880, Note_on_c, 0, 68, 0
2, 38940, Note_on_c, 0, 64, 100
2, 39000, Note_on_c, 0, 64, 0
2, 39000, Note_on_c, 0, 64, 100
2, 39120, Note_on_c, 0, 64, 0
2, 39120, Note_on_c, 0, 64, 100
2, 39150, Note_on_c, 0, 64, 0
2, 39150, Note_on_c, 0, 64, 100
2, 39180, Note_on_c, 0, 64, 0
2, 39180, Note_on_c, 0, 64, 100
2, 39240, Note_on_c, 0, 64, 0
2, 39240, Note_on_c, 0, 64, 100
2, 39270, Note_on_c, 0, 64, 0
2, 39270, Note_on_c, 0, 64, 100
2, 39420, Note_on_c, 0, 64, 0
2, 39420, Note_on_c, 0, 63, 100
2, 39480, Note_on_c, 0, 63, 0
2, 39480, Note_on_c, 0, 63, 100
2, 39600, Note_on_c, 0, 63, 0
2, 39900, Note_on_c, 0, 64, 100
2, 39960, Note_on_c, 0, 64, 0
2, 39960, Note_on_c, 0, 64, 100
2, 39990, Note_on_c, 0, 64, 0
2, 39990, Note_on_c, 0, 64, 100
2, 40020, Note_on_c, 0, 64, 0
2, 40020, Note_on_c, 0, 64, 100
2, 40140, Note_on_c, 0, 64, 0
2, 40140, Note_on_c, 0, 64, 100
2, 40260, Note_on_c, 0, 64, 0
2, 40260, Note_on_c, 0, 64, 100
2, 40500, Note_on_c, 0, 64, 0
2, 40500, Note_on_c, 0, 69, 100
2, 40560, Note_on_c, 0, 69, 0
2, 40560, Note_on_c, 0, 69, 100
2, 40620, Note_on_c, 0, 69, 0
2, 40620, Note_on_c, 0, 69, 100
2, 40680, Note_on_c, 0, 69, 0
2, 40680, Note_on_c, 0, 71, 100
2, 40740, Note_on_c, 0, 71, 0
2, 40740, Note_on_c, 0, 69, 100
2, 40800, Note_on_c, 0, 69, 0
2, 40800, Note_on_c, 0, 68, 100
2, 40980, Note_on_c, 0, 68, 0
2, 40980, Note_on_c, 0, 68, 100
2, 41040, Note_on_c, 0, 68, 0
2, 41040, Note_on_c, 0, 66, 100
2, 41100, Note_on_c, 0, 66, 0
2, 41100, Note_on_c, 0, 68, 100
2, 41220, Note_on_c, 0, 68, 0
2, 41220, Note_on_c, 0, 64, 100
2, 41340, Note_on_c, 0, 64, 0
2, 41340, Note_on_c, 0, 61, 100
2, 41520, Note_on_c, 0, 61, 0
2, 41700, Note_on_c, 0, 68, 100
2, 41760, Note_on_c, 0, 68, 0
2, 41760, Note_on_c, 0, 71, 100
2, 41820, Note_on_c, 0, 71, 0
2, 41820, Note_on_c, 0, 68, 100
2, 41940, Note_on_c, 0, 68, 0
2, 41940, Note_on_c, 0, 66, 100
2, 42060, Note_on_c, 0, 66, 0
2, 42060, Note_on_c, 0, 68, 100
2, 42180, Note_on_c, 0, 68, 0
2, 42180, Note_on_c, 0, 68, 100
2, 42240, Note_on_c, 0, 68, 0
2, 42240, Note_on_c, 0, 71, 100
2, 42300, Note_on_c, 0, 71, 0
2, 42300, Note_on_c, 0, 68, 100
2, 42420, Note_on_c, 0, 68, 0
2, 42420, Note_on_c, 0, 66, 100
2, 42540, Note_on_c, 0, 66, 0
2, 42540, Note_on_c, 0, 68, 100
2, 42720, Note_on_c, 0, 68, 0
2, 42780, Note_on_c, 0, 64, 100
2, 42840, Note_on_c, 0, 64, 0
2, 42840, Note_on_c, 0, 64, 100
2, 42960, Note_on_c, 0, 64, 0
2, 42960, Note_on_c, 0, 64, 100
2, 42990, Note_on_c, 0, 64, 0
2, 42990, Note_on_c, 0, 64, 100
2, 43020, Note_on_c, 0, 64, 0
2, 43020, Note_on_c, 0, 64, 100
2, 43080, Note_on_c, 0, 64, 0
2, 43080, Note_on_c, 0, 64, 100
2, 43110, Note_on_c, 0, 64, 0
2, 43110, Note_on_c, 0, 64, 100
2, 43260, Note_on_c, 0, 64, 0
2, 43260, Note_on_c, 0, 63, 100
2, 43320, Note_on_c, 0, 63, 0
2, 43320, Note_on_c, 0, 63, 100
2, 43440, Note_on_c, 0, 63, 0
2, 43740, Note_on_c, 0, 64, 100
2, 43800, Note_on_c, 0, 64, 0
2, 43800, Note_on_c, 0, 64, 100
2, 43830, Note_on_c, 0, 64, 0
2, 43830, Note_on_c, 0, 64, 100
2, 43860, Note_on_c, 0, 64, 0
2, 43860, Note_on_c, 0, 64, 100
2, 43980, Note_on_c, 0, 64, 0
2, 43980, Note_on_c, 0, 64, 100
2, 44100, Note_on_c, 0, 64, 0
2, 44100, Note_on_c, 0, 64, 100
2, 44340, Note_on_c, 0, 64, 0
2, 44340, Note_on_c, 0, 69, 100
2, 44400, Note_on_c, 0, 69, 0
2, 44400, Note_on_c, 0, 69, 100
2, 44460, Note_on_c, 0, 69, 0
2, 44460, Note_on_c, 0, 69, 100
2, 44520, Note_on_c, 0, 69, 0
2, 44520, Note_on_c, 0, 71, 100
2, 44580, Note_on_c, 0, 71, 0
2, 44580, Note_on_c, 0, 69, 100
2, 44640, Note_on_c, 0, 69, 0
2, 44640, Note_on_c, 0, 68, 100
2, 44880, Note_on_c, 0, 68, 0
2, 44880, Note_on_c, 0, 66, 100
2, 45060, Note_on_c, 0, 66, 0
2, 45060, Note_on_c, 0, 67, 100
2, 45240, Note_on_c, 0, 67, 0
2, 45300, Note_on_c, 0, 60, 100
2, 45360, Note_on_c, 0, 60, 0
2, 45360, Note_on_c, 0, 67, 100
2, 45420, Note_on_c, 0, 67, 0
2, 45420, Note_on_c, 0, 66, 100
2, 45480, Note_on_c, 0, 66, 0
2, 45480, Note_on_c, 0, 64, 100
2, 45540, Note_on_c, 0, 64, 0
2, 45540, Note_on_c, 0, 67, 100
2, 45660, Note_on_c, 0, 67, 0
2, 45660, Note_on_c, 0, 66, 100
2, 45720, Note_on_c, 0, 66, 0
2, 45720, Note_on_c, 0, 66, 100
2, 45960, Note_on_c, 0, 66, 0
2, 45960, End_track
3, 0, Start_track
3, 0, MIDI_port, 0
3, 0, Title_t, "Backing Vocals (Graham Coxon ?)"
3, 0, Program_c, 1, 53
3, 0, Control_c, 1, 7, 100
3, 0, Control_c, 1, 10, 42
3, 4440, Note_on_c, 1, 59, 100
3, 4560, Note_on_c, 1, 59, 0
3, 4560, Note_on_c, 1, 59, 100
3, 4620, Note_on_c, 1, 59, 0
3, 4620, Note_on_c, 1, 59, 100
3, 4740, Note_on_c, 1, 59, 0
3, 4740, Note_on_c, 1, 59, 100
3, 5160, Note_on_c, 1, 59, 0
3, 5220, Note_on_c, 1, 57, 100
3, 5280, Note_on_c, 1, 57, 0
3, 5280, Note_on_c, 1, 57, 100
3, 5340, Note_on_c, 1, 57, 0
3, 5340, Note_on_c, 1, 57, 100
3, 5400, Note_on_c, 1, 57, 0
3, 5400, Note_on_c, 1, 57, 100
3, 5460, Note_on_c, 1, 57, 0
3, 5460, Note_on_c, 1, 57, 100
3, 5520, Note_on_c, 1, 57, 0
3, 5520, Note_on_c, 1, 59, 100
3, 5640, Note_on_c, 1, 59, 0
3, 5640, Note_on_c, 1, 59, 100
3, 5760, Note_on_c, 1, 59, 0
3, 5760, Note_on_c, 1, 59, 100
3, 5820, Note_on_c, 1, 59, 0
3, 5820, Note_on_c, 1, 59, 100
3, 5940, Note_on_c, 1, 59, 0
3, 5940, Note_on_c, 1, 59, 100
3, 6120, Note_on_c, 1, 59, 0
3, 6180, Note_on_c, 1, 57, 100
3, 6300, Note_on_c, 1, 57, 0
3, 6300, Note_on_c, 1, 59, 100
3, 6360, Note_on_c, 1, 59, 0
3, 6360, Note_on_c, 1, 57, 100
3, 6420, Note_on_c, 1, 57, 0
3, 6420, Note_on_c, 1, 59, 100
3, 6540, Note_on_c, 1, 59, 0
3, 6540, Note_on_c, 1, 59, 100
3, 6600, Note_on_c, 1, 59, 0
3, 6900, Note_on_c, 1, 59, 100
3, 6960, Note_on_c, 1, 59, 0
3, 6960, Note_on_c, 1, 59, 100
3, 7020, Note_on_c, 1, 59, 0
3, 7020, Note_on_c, 1, 59, 100
3, 7140, Note_on_c, 1, 59, 0
3, 7140, Note_on_c, 1, 59, 100
3, 7380, Note_on_c, 1, 59, 0
3, 7380, Note_on_c, 1, 57, 100
3, 7440, Note_on_c, 1, 57, 0
3, 7440, Note_on_c, 1, 59, 100
3, 7560, Note_on_c, 1, 59, 0
3, 7620, Note_on_c, 1, 57, 100
3, 7680, Note_on_c, 1, 57, 0
3, 7680, Note_on_c, 1, 57, 100
3, 7740, Note_on_c, 1, 57, 0
3, 7740, Note_on_c, 1, 57, 100
3, 7860, Note_on_c, 1, 57, 0
3, 7860, Note_on_c, 1, 59, 100
3, 7980, Note_on_c, 1, 59, 0
3, 7980, Note_on_c, 1, 59, 100
3, 8040, Note_on_c, 1, 59, 0
3, 8100, Note_on_c, 1, 59, 100
3, 8160, Note_on_c, 1, 59, 0
3, 8160, Note_on_c, 1, 59, 100
3, 8280, Note_on_c, 1, 59, 0
3, 8280, Note_on_c, 1, 59, 100
3, 8340, Note_on_c, 1, 59, 0
3, 8340, Note_on_c, 1, 59, 100
3, 8520, Note_on_c, 1, 59, 0
3, 8580, Note_on_c, 1, 57, 100
3, 8700, Note_on_c, 1, 57, 0
3, 8700, Note_on_c, 1, 59, 100
3, 8760, Note_on_c, 1, 59, 0
3, 8760, Note_on_c, 1, 57, 100
3, 8820, Note_on_c, 1, 57, 0
3, 8820, Note_on_c, 1, 59, 100
3, 8940, Note_on_c, 1, 59, 0
3, 8940, Note_on_c, 1, 59, 100
3, 9000, Note_on_c, 1, 59, 0
3, 9180, Note_on_c, 1, 66, 100
3, 9240, Note_on_c, 1, 66, 0
3, 9240, Note_on_c, 1, 66, 100
3, 9360, Note_on_c, 1, 66, 0
3, 9360, Note_on_c, 1, 64, 100
3, 9420, Note_on_c, 1, 64, 0
3, 9420, Note_on_c, 1, 64, 100
3, 9540, Note_on_c, 1, 64, 0
3, 9540, Note_on_c, 1, 66, 100
3, 9660, Note_on_c, 1, 66, 0
3, 9660, Note_on_c, 1, 63, 100
3, 9780, Note_on_c, 1, 63, 0
3, 9780, Note_on_c, 1, 68, 100
3, 9840, Note_on_c, 1, 68, 0
3, 9840, Note_on_c, 1, 66, 100
3, 9900, Note_on_c, 1, 66, 0
3, 9900, Note_on_c, 1, 66, 100
3, 10020, Note_on_c, 1, 66, 0
3, 10080, Note_on_c, 1, 71, 100
3, 10200, Note_on_c, 1, 71, 0
3, 10200, Note_on_c, 1, 69, 100
3, 10320, Note_on_c, 1, 69, 0
3, 10320, Note_on_c, 1, 68, 100
3, 10380, Note_on_c, 1, 68, 0
3, 10380, Note_on_c, 1, 66, 100
3, 10500, Note_on_c, 1, 66, 0
3, 10500, Note_on_c, 1, 64, 100
3, 10680, Note_on_c, 1, 64, 0
3, 10980, Note_on_c, 1, 61, 100
3, 11040, Note_on_c, 1, 61, 0
3, 11040, Note_on_c, 1, 64, 100
3, 11100, Note_on_c, 1, 64, 0
3, 11100, Note_on_c, 1, 61, 100
3, 11220, Note_on_c, 1, 61, 0
3, 11220, Note_on_c, 1, 59, 100
3, 11340, Note_on_c, 1, 59, 0
3, 11340, Note_on_c, 1, 61, 100
3, 11460, Note_on_c, 1, 61, 0
3, 11460, Note_on_c, 1, 61, 100
3, 11520, Note_on_c, 1, 61, 0
3, 11520, Note_on_c, 1, 64, 100
3, 11580, Note_on_c, 1, 64, 0
3, 11580, Note_on_c, 1, 61, 100
3, 11700, Note_on_c, 1, 61, 0
3, 11700, Note_on_c, 1, 59, 100
3, 11820, Note_on_c, 1, 59, 0
3, 11820, Note_on_c, 1, 61, 100
3, 12000, Note_on_c, 1, 61, 0
3, 12060, Note_on_c, 1, 61, 100
3, 12120, Note_on_c, 1, 61, 0
3, 12120, Note_on_c, 1, 61, 100
3, 12240, Note_on_c, 1, 61, 0
3, 12240, Note_on_c, 1, 61, 100
3, 12270, Note_on_c, 1, 61, 0
3, 12270, Note_on_c, 1, 61, 100
3, 12300, Note_on_c, 1, 61, 0
3, 12300, Note_on_c, 1, 61, 100
3, 12360, Note_on_c, 1, 61, 0
3, 12360, Note_on_c, 1, 61, 100
3, 12390, Note_on_c, 1, 61, 0
3, 12390, Note_on_c, 1, 61, 100
3, 12540, Note_on_c, 1, 61, 0
3, 12540, Note_on_c, 1, 59, 100
3, 12600, Note_on_c, 1, 59, 0
3, 12600, Note_on_c, 1, 59, 100
3, 12720, Note_on_c, 1, 59, 0
3, 13020, Note_on_c, 1, 61, 100
3, 13080, Note_on_c, 1, 61, 0
3, 13080, Note_on_c, 1, 61, 100
3, 13110, Note_on_c, 1, 61, 0
3, 13110, Note_on_c, 1, 61, 100
3, 13140, Note_on_c, 1, 61, 0
3, 13140, Note_on_c, 1, 61, 100
3, 13260, Note_on_c, 1, 61, 0
3, 13260, Note_on_c, 1, 61, 100
3, 13380, Note_on_c, 1, 61, 0
3, 13380, Note_on_c, 1, 59, 100
3, 13620, Note_on_c, 1, 59, 0
3, 13620, Note_on_c, 1, 62, 100
3, 13680, Note_on_c, 1, 62, 0
3, 13680, Note_on_c, 1, 64, 100
3, 13740, Note_on_c, 1, 64, 0
3, 13740, Note_on_c, 1, 62, 100
3, 13800, Note_on_c, 1, 62, 0
3, 13800, Note_on_c, 1, 64, 100
3, 13860, Note_on_c, 1, 64, 0
3, 13860, Note_on_c, 1, 62, 100
3, 13920, Note_on_c, 1, 62, 0
3, 13920, Note_on_c, 1, 64, 100
3, 14160, Note_on_c, 1, 64, 0
3, 16560, Note_on_c, 1, 59, 100
3, 16680, Note_on_c, 1, 59, 0
3, 16680, Note_on_c, 1, 59, 100
3, 16800, Note_on_c, 1, 59, 0
3, 16800, Note_on_c, 1, 59, 100
3, 17160, Note_on_c, 1, 59, 0
3, 17220, Note_on_c, 1, 57, 100
3, 17280, Note_on_c, 1, 57, 0
3, 17280, Note_on_c, 1, 57, 100
3, 17340, Note_on_c, 1, 57, 0
3, 17340, Note_on_c, 1, 57, 100
3, 17400, Note_on_c, 1, 57, 0
3, 17400, Note_on_c, 1, 57, 100
3, 17460, Note_on_c, 1, 57, 0
3, 17460, Note_on_c, 1, 57, 100
3, 17520, Note_on_c, 1, 57, 0
3, 17520, Note_on_c, 1, 59, 100
3, 17640, Note_on_c, 1, 59, 0
3, 17700, Note_on_c, 1, 59, 100
3, 17760, Note_on_c, 1, 59, 0
3, 17760, Note_on_c, 1, 59, 100
3, 17880, Note_on_c, 1, 59, 0
3, 17880, Note_on_c, 1, 59, 100
3, 17940, Note_on_c, 1, 59, 0
3, 17940, Note_on_c, 1, 59, 100
3, 18060, Note_on_c, 1, 59, 0
3, 18060, Note_on_c, 1, 57, 100
3, 18180, Note_on_c, 1, 57, 0
3, 18180, Note_on_c, 1, 57, 100
3, 18300, Note_on_c, 1, 57, 0
3, 18300, Note_on_c, 1, 59, 100
3, 18360, Note_on_c, 1, 59, 0
3, 18360, Note_on_c, 1, 57, 100
3, 18420, Note_on_c, 1, 57, 0
3, 18420, Note_on_c, 1, 59, 100
3, 18540, Note_on_c, 1, 59, 0
3, 18540, Note_on_c, 1, 59, 100
3, 18600, Note_on_c, 1, 59, 0
3, 18840, Note_on_c, 1, 59, 100
3, 18960, Note_on_c, 1, 59, 0
3, 18960, Note_on_c, 1, 59, 100
3, 19080, Note_on_c, 1, 59, 0
3, 19080, Note_on_c, 1, 59, 100
3, 19200, Note_on_c, 1, 59, 0
3, 19200, Note_on_c, 1, 59, 100
3, 19260, Note_on_c, 1, 59, 0
3, 19260, Note_on_c, 1, 59, 100
3, 19380, Note_on_c, 1, 59, 0
3, 19380, Note_on_c, 1, 57, 100
3, 19440, Note_on_c, 1, 57, 0
3, 19440, Note_on_c, 1, 59, 100
3, 19560, Note_on_c, 1, 59, 0
3, 19680, Note_on_c, 1, 57, 100
3, 19740, Note_on_c, 1, 57, 0
3, 19740, Note_on_c, 1, 57, 100
3, 19860, Note_on_c, 1, 57, 0
3, 19860, Note_on_c, 1, 59, 100
3, 19980, Note_on_c, 1, 59, 0
3, 19980, Note_on_c, 1, 59, 100
3, 20040, Note_on_c, 1, 59, 0
3, 20100, Note_on_c, 1, 59, 100
3, 20160, Note_on_c, 1, 59, 0
3, 20160, Note_on_c, 1, 59, 100
3, 20220, Note_on_c, 1, 59, 0
3, 20220, Note_on_c, 1, 59, 100
3, 20340, Note_on_c, 1, 59, 0
3, 20340, Note_on_c, 1, 59, 100
3, 20460, Note_on_c, 1, 59, 0
3, 20460, Note_on_c, 1, 59, 100
3, 20580, Note_on_c, 1, 59, 0
3, 20580, Note_on_c, 1, 57, 100
3, 20700, Note_on_c, 1, 57, 0
3, 20700, Note_on_c, 1, 59, 100
3, 20760, Note_on_c, 1, 59, 0
3, 20760, Note_on_c, 1, 57, 100
3, 20820, Note_on_c, 1, 57, 0
3, 20820, Note_on_c, 1, 59, 100
3, 20940, Note_on_c, 1, 59, 0
3, 20940, Note_on_c, 1, 59, 100
3, 21000, Note_on_c, 1, 59, 0
3, 21180, Note_on_c, 1, 66, 100
3, 21240, Note_on_c, 1, 66, 0
3, 21240, Note_on_c, 1, 66, 100
3, 21360, Note_on_c, 1, 66, 0
3, 21360, Note_on_c, 1, 64, 100
3, 21420, Note_on_c, 1, 64, 0
3, 21420, Note_on_c, 1, 64, 100
3, 21540, Note_on_c, 1, 64, 0
3, 21540, Note_on_c, 1, 66, 100
3, 21660, Note_on_c, 1, 66, 0
3, 21660, Note_on_c, 1, 63, 100
3, 21780, Note_on_c, 1, 63, 0
3, 21780, Note_on_c, 1, 68, 100
3, 21840, Note_on_c, 1, 68, 0
3, 21840, Note_on_c, 1, 66, 100
3, 21900, Note_on_c, 1, 66, 0
3, 21900, Note_on_c, 1, 66, 100
3, 22020, Note_on_c, 1, 66, 0
3, 22080, Note_on_c, 1, 71, 100
3, 22200, Note_on_c, 1, 71, 0
3, 22200, Note_on_c, 1, 69, 100
3, 22320, Note_on_c, 1, 69, 0
3, 22320, Note_on_c, 1, 68, 100
3, 22380, Note_on_c, 1, 68, 0
3, 22380, Note_on_c, 1, 66, 100
3, 22500, Note_on_c, 1, 66, 0
3, 22500, Note_on_c, 1, 64, 100
3, 22680, Note_on_c, 1, 64, 0
3, 22980, Note_on_c, 1, 61, 100
3, 23040, Note_on_c, 1, 61, 0
3, 23040, Note_on_c, 1, 64, 100
3, 23100, Note_on_c, 1, 64, 0
3, 23100, Note_on_c, 1, 61, 100
3, 23220, Note_on_c, 1, 61, 0
3, 23220, Note_on_c, 1, 59, 100
3, 23340, Note_on_c, 1, 59, 0
3, 23340, Note_on_c, 1, 61, 100
3, 23460, Note_on_c, 1, 61, 0
3, 23460, Note_on_c, 1, 61, 100
3, 23520, Note_on_c, 1, 61, 0
3, 23520, Note_on_c, 1, 64, 100
3, 23580, Note_on_c, 1, 64, 0
3, 23580, Note_on_c, 1, 61, 100
3, 23700, Note_on_c, 1, 61, 0
3, 23700, Note_on_c, 1, 59, 100
3, 23820, Note_on_c, 1, 59, 0
3, 23820, Note_on_c, 1, 61, 100
3, 24000, Note_on_c, 1, 61, 0
3, 24060, Note_on_c, 1, 61, 100
3, 24120, Note_on_c, 1, 61, 0
3, 24120, Note_on_c, 1, 61, 100
3, 24240, Note_on_c, 1, 61, 0
3, 24240, Note_on_c, 1, 61, 100
3, 24270, Note_on_c, 1, 61, 0
3, 24270, Note_on_c, 1, 61, 100
3, 24300, Note_on_c, 1, 61, 0
3, 24300, Note_on_c, 1, 61, 100
3, 24360, Note_on_c, 1, 61, 0
3, 24360, Note_on_c, 1, 61, 100
3, 24390, Note_on_c, 1, 61, 0
3, 24390, Note_on_c, 1, 61, 100
3, 24540, Note_on_c, 1, 61, 0
3, 24540, Note_on_c, 1, 59, 100
3, 24600, Note_on_c, 1, 59, 0
3, 24600, Note_on_c, 1, 59, 100
3, 24720, Note_on_c, 1, 59, 0
3, 25020, Note_on_c, 1, 61, 100
3, 25080, Note_on_c, 1, 61, 0
3, 25080, Note_on_c, 1, 61, 100
3, 25110, Note_on_c, 1, 61, 0
3, 25110, Note_on_c, 1, 61, 100
3, 25140, Note_on_c, 1, 61, 0
3, 25140, Note_on_c, 1, 61, 100
3, 25260, Note_on_c, 1, 61, 0
3, 25260, Note_on_c, 1, 61, 100
3, 25380, Note_on_c, 1, 61, 0
3, 25380, Note_on_c, 1, 59, 100
3, 25620, Note_on_c, 1, 59, 0
3, 25620, Note_on_c, 1, 62, 100
3, 25680, Note_on_c, 1, 62, 0
3, 25680, Note_on_c, 1, 64, 100
3, 25740, Note_on_c, 1, 64, 0
3, 25740, Note_on_c, 1, 62, 100
3, 25800, Note_on_c, 1, 62, 0
3, 25800, Note_on_c, 1, 64, 100
3, 25860, Note_on_c, 1, 64, 0
3, 25860, Note_on_c, 1, 62, 100
3, 25920, Note_on_c, 1, 62, 0
3, 25920, Note_on_c, 1, 64, 100
3, 26100, Note_on_c, 1, 64, 0
3, 26100, Note_on_c, 1, 64, 100
3, 26160, Note_on_c, 1, 64, 0
3, 26160, Note_on_c, 1, 63, 100
3, 26220, Note_on_c, 1, 63, 0
3, 26220, Note_on_c, 1, 64, 100
3, 26340, Note_on_c, 1, 64, 0
3, 26340, Note_on_c, 1, 61, 100
3, 26640, Note_on_c, 1, 61, 0
3, 26820, Note_on_c, 1, 61, 100
3, 26880, Note_on_c, 1, 61, 0
3, 26880, Note_on_c, 1, 64, 100
3, 26940, Note_on_c, 1, 64, 0
3, 26940, Note_on_c, 1, 61, 100
3, 27060, Note_on_c, 1, 61, 0
3, 27060, Note_on_c, 1, 59, 100
3, 27180, Note_on_c, 1, 59, 0
3, 27180, Note_on_c, 1, 61, 100
3, 27300, Note_on_c, 1, 61, 0
3, 27300, Note_on_c, 1, 61, 100
3, 27360, Note_on_c, 1, 61, 0
3, 27360, Note_on_c, 1, 64, 100
3, 27420, Note_on_c, 1, 64, 0
3, 27420, Note_on_c, 1, 61, 100
3, 27540, Note_on_c, 1, 61, 0
3, 27540, Note_on_c, 1, 59, 100
3, 27660, Note_on_c, 1, 59, 0
3, 27660, Note_on_c, 1, 61, 100
3, 27840, Note_on_c, 1, 61, 0
3, 27900, Note_on_c, 1, 61, 100
3, 27960, Note_on_c, 1, 61, 0
3, 27960, Note_on_c, 1, 61, 100
3, 28080, Note_on_c, 1, 61, 0
3, 28080, Note_on_c, 1, 61, 100
3, 28110, Note_on_c, 1, 61, 0
3, 28110, Note_on_c, 1, 61, 100
3, 28140, Note_on_c, 1, 61, 0
3, 28140, Note_on_c, 1, 61, 100
3, 28200, Note_on_c, 1, 61, 0
3, 28200, Note_on_c, 1, 61, 100
3, 28230, Note_on_c, 1, 61, 0
3, 28230, Note_on_c, 1, 61, 100
3, 28380, Note_on_c, 1, 61, 0
3, 28380, Note_on_c, 1, 59, 100
3, 28440, Note_on_c, 1, 59, 0
3, 28440, Note_on_c, 1, 59, 100
3, 28560, Note_on_c, 1, 59, 0
3, 28860, Note_on_c, 1, 61, 100
3, 28920, Note_on_c, 1, 61, 0
3, 28920, Note_on_c, 1, 61, 100
3, 28950, Note_on_c, 1, 61, 0
3, 28950, Note_on_c, 1, 61, 100
3, 28980, Note_on_c, 1, 61, 0
3, 28980, Note_on_c, 1, 61, 100
3, 29100, Note_on_c, 1, 61, 0
3, 29100, Note_on_c, 1, 61, 100
3, 29220, Note_on_c, 1, 61, 0
3, 29220, Note_on_c, 1, 59, 100
3, 29460, Note_on_c, 1, 59, 0
3, 29460, Note_on_c, 1, 62, 100
3, 29520, Note_on_c, 1, 62, 0
3, 29520, Note_on_c, 1, 64, 100
3, 29580, Note_on_c, 1, 64, 0
3, 29580, Note_on_c, 1, 62, 100
3, 29640, Note_on_c, 1, 62, 0
3, 29640, Note_on_c, 1, 64, 100
3, 29700, Note_on_c, 1, 64, 0
3, 29700, Note_on_c, 1, 62, 100
3, 29760, Note_on_c, 1, 62, 0
3, 29760, Note_on_c, 1, 64, 100
3, 30000, Note_on_c, 1, 64, 0
3, 34260, Note_on_c, 1, 60, 100
3, 34320, Note_on_c, 1, 60, 0
3, 34320, Note_on_c, 1, 64, 100
3, 34380, Note_on_c, 1, 64, 0
3, 34380, Note_on_c, 1, 66, 100
3, 34440, Note_on_c, 1, 66, 0
3, 34440, Note_on_c, 1, 64, 100
3, 34500, Note_on_c, 1, 64, 0
3, 34500, Note_on_c, 1, 64, 100
3, 34620, Note_on_c, 1, 64, 0
3, 34620, Note_on_c, 1, 63, 100
3, 34680, Note_on_c, 1, 63, 0
3, 34680, Note_on_c, 1, 63, 100
3, 34920, Note_on_c, 1, 63, 0
3, 35100, Note_on_c, 1, 66, 100
3, 35160, Note_on_c, 1, 66, 0
3, 35160, Note_on_c, 1, 66, 100
3, 35280, Note_on_c, 1, 66, 0
3, 35280, Note_on_c, 1, 64, 100
3, 35460, Note_on_c, 1, 64, 0
3, 35460, Note_on_c, 1, 66, 100
3, 35580, Note_on_c, 1, 66, 0
3, 35580, Note_on_c, 1, 63, 100
3, 35700, Note_on_c, 1, 63, 0
3, 35700, Note_on_c, 1, 66, 100
3, 35760, Note_on_c, 1, 66, 0
3, 35760, Note_on_c, 1, 66, 100
3, 35880, Note_on_c, 1, 66, 0
3, 36120, Note_on_c, 1, 66, 100
3, 36240, Note_on_c, 1, 66, 0
3, 36240, Note_on_c, 1, 64, 100
3, 36300, Note_on_c, 1, 64, 0
3, 36300, Note_on_c, 1, 64, 100
3, 36420, Note_on_c, 1, 64, 0
3, 36420, Note_on_c, 1, 66, 100
3, 36540, Note_on_c, 1, 66, 0
3, 36540, Note_on_c, 1, 63, 100
3, 36660, Note_on_c, 1, 63, 0
3, 36660, Note_on_c, 1, 68, 100
3, 36720, Note_on_c, 1, 68, 0
3, 36720, Note_on_c, 1, 66, 100
3, 36780, Note_on_c, 1, 66, 0
3, 36780, Note_on_c, 1, 66, 100
3, 36900, Note_on_c, 1, 66, 0
3, 36960, Note_on_c, 1, 71, 100
3, 37080, Note_on_c, 1, 71, 0
3, 37080, Note_on_c, 1, 69, 100
3, 37200, Note_on_c, 1, 69, 0
3, 37200, Note_on_c, 1, 68, 100
3, 37260, Note_on_c, 1, 68, 0
3, 37260, Note_on_c, 1, 66, 100
3, 37380, Note_on_c, 1, 66, 0
3, 37380, Note_on_c, 1, 64, 100
3, 37560, Note_on_c, 1, 64, 0
3, 37860, Note_on_c, 1, 61, 100
3, 37920, Note_on_c, 1, 61, 0
3, 37920, Note_on_c, 1, 64, 100
3, 37980, Note_on_c, 1, 64, 0
3, 37980, Note_on_c, 1, 61, 100
3, 38100, Note_on_c, 1, 61, 0
3, 38100, Note_on_c, 1, 59, 100
3, 38220, Note_on_c, 1, 59, 0
3, 38220, Note_on_c, 1, 61, 100
3, 38340, Note_on_c, 1, 61, 0
3, 38340, Note_on_c, 1, 61, 100
3, 38400, Note_on_c, 1, 61, 0
3, 38400, Note_on_c, 1, 64, 100
3, 38460, Note_on_c, 1, 64, 0
3, 38460, Note_on_c, 1, 61, 100
3, 38580, Note_on_c, 1, 61, 0
3, 38580, Note_on_c, 1, 59, 100
3, 38700, Note_on_c, 1, 59, 0
3, 38700, Note_on_c, 1, 61, 100
3, 38880, Note_on_c, 1, 61, 0
3, 38940, Note_on_c, 1, 61, 100
3, 39000, Note_on_c, 1, 61, 0
3, 39000, Note_on_c, 1, 61, 100
3, 39120, Note_on_c, 1, 61, 0
3, 39120, Note_on_c, 1, 61, 100
3, 39150, Note_on_c, 1, 61, 0
3, 39150, Note_on_c, 1, 61, 100
3, 39180, Note_on_c, 1, 61, 0
3, 39180, Note_on_c, 1, 61, 100
3, 39240, Note_on_c, 1, 61, 0
3, 39240, Note_on_c, 1, 61, 100
3, 39270, Note_on_c, 1, 61, 0
3, 39270, Note_on_c, 1, 61, 100
3, 39420, Note_on_c, 1, 61, 0
3, 39420, Note_on_c, 1, 59, 100
3, 39480, Note_on_c, 1, 59, 0
3, 39480, Note_on_c, 1, 59, 100
3, 39600, Note_on_c, 1, 59, 0
3, 39900, Note_on_c, 1, 61, 100
3, 39960, Note_on_c, 1, 61, 0
3, 39960, Note_on_c, 1, 61, 100
3, 39990, Note_on_c, 1, 61, 0
3, 39990, Note_on_c, 1, 61, 100
3, 40020, Note_on_c, 1, 61, 0
3, 40020, Note_on_c, 1, 61, 100
3, 40140, Note_on_c, 1, 61, 0
3, 40140, Note_on_c, 1, 61, 100
3, 40260, Note_on_c, 1, 61, 0
3, 40260, Note_on_c, 1, 59, 100
3, 40500, Note_on_c, 1, 59, 0
3, 40500, Note_on_c, 1, 62, 100
3, 40560, Note_on_c, 1, 62, 0
3, 40560, Note_on_c, 1, 64, 100
3, 40620, Note_on_c, 1, 64, 0
3, 40620, Note_on_c, 1, 62, 100
3, 40680, Note_on_c, 1, 62, 0
3, 40680, Note_on_c, 1, 64, 100
3, 40740, Note_on_c, 1, 64, 0
3, 40740, Note_on_c, 1, 62, 100
3, 40800, Note_on_c, 1, 62, 0
3, 40800, Note_on_c, 1, 64, 100
3, 40980, Note_on_c, 1, 64, 0
3, 40980, Note_on_c, 1, 64, 100
3, 41040, Note_on_c, 1, 64, 0
3, 41040, Note_on_c, 1, 63, 100
3, 41100, Note_on_c, 1, 63, 0
3, 41100, Note_on_c, 1, 64, 100
3, 41220, Note_on_c, 1, 64, 0
3, 41220, Note_on_c, 1, 61, 100
3, 41520, Note_on_c, 1, 61, 0
3, 41700, Note_on_c, 1, 61, 100
3, 41760, Note_on_c, 1, 61, 0
3, 41760, Note_on_c, 1, 64, 100
3, 41820, Note_on_c, 1, 64, 0
3, 41820, Note_on_c, 1, 61, 100
3, 41940, Note_on_c, 1, 61, 0
3, 41940, Note_on_c, 1, 59, 100
3, 42060, Note_on_c, 1, 59, 0
3, 42060, Note_on_c, 1, 61, 100
3, 42180, Note_on_c, 1, 61, 0
3, 42180, Note_on_c, 1, 61, 100
3, 42240, Note_on_c, 1, 61, 0
3, 42240, Note_on_c, 1, 64, 100
3, 42300, Note_on_c, 1, 64, 0
3, 42300, Note_on_c, 1, 61, 100
3, 42420, Note_on_c, 1, 61, 0
3, 42420, Note_on_c, 1, 59, 100
3, 42540, Note_on_c, 1, 59, 0
3, 42540, Note_on_c, 1, 61, 100
3, 42720, Note_on_c, 1, 61, 0
3, 42780, Note_on_c, 1, 61, 100
3, 42840, Note_on_c, 1, 61, 0
3, 42840, Note_on_c, 1, 61, 100
3, 42960, Note_on_c, 1, 61, 0
3, 42960, Note_on_c, 1, 61, 100
3, 42990, Note_on_c, 1, 61, 0
3, 42990, Note_on_c, 1, 61, 100
3, 43020, Note_on_c, 1, 61, 0
3, 43020, Note_on_c, 1, 61, 100
3, 43080, Note_on_c, 1, 61, 0
3, 43080, Note_on_c, 1, 61, 100
3, 43110, Note_on_c, 1, 61, 0
3, 43110, Note_on_c, 1, 61, 100
3, 43260, Note_on_c, 1, 61, 0
3, 43260, Note_on_c, 1, 59, 100
3, 43320, Note_on_c, 1, 59, 0
3, 43320, Note_on_c, 1, 59, 100
3, 43440, Note_on_c, 1, 59, 0
3, 43740, Note_on_c, 1, 61, 100
3, 43800, Note_on_c, 1, 61, 0
3, 43800, Note_on_c, 1, 61, 100
3, 43830, Note_on_c, 1, 61, 0
3, 43830, Note_on_c, 1, 61, 100
3, 43860, Note_on_c, 1, 61, 0
3, 43860, Note_on_c, 1, 61, 100
3, 43980, Note_on_c, 1, 61, 0
3, 43980, Note_on_c, 1, 61, 100
3, 44100, Note_on_c, 1, 61, 0
3, 44100, Note_on_c, 1, 59, 100
3, 44340, Note_on_c, 1, 59, 0
3, 44340, Note_on_c, 1, 62, 100
3, 44400, Note_on_c, 1, 62, 0
3, 44400, Note_on_c, 1, 64, 100
3, 44460, Note_on_c, 1, 64, 0
3, 44460, Note_on_c, 1, 62, 100
3, 44520, Note_on_c, 1, 62, 0
3, 44520, Note_on_c, 1, 64, 100
3, 44580, Note_on_c, 1, 64, 0
3, 44580, Note_on_c, 1, 62, 100
3, 44640, Note_on_c, 1, 62, 0
3, 44640, Note_on_c, 1, 64, 100
3, 44880, Note_on_c, 1, 64, 0
3, 44880, Note_on_c, 1, 63, 100
3, 45060, Note_on_c, 1, 63, 0
3, 45060, Note_on_c, 1, 64, 100
3, 45240, Note_on_c, 1, 64, 0
3, 45300, Note_on_c, 1, 60, 100
3, 45360, Note_on_c, 1, 60, 0
3, 45360, Note_on_c, 1, 64, 100
3, 45420, Note_on_c, 1, 64, 0
3, 45420, Note_on_c, 1, 66, 100
3, 45480, Note_on_c, 1, 66, 0
3, 45480, Note_on_c, 1, 64, 100
3, 45540, Note_on_c, 1, 64, 0
3, 45540, Note_on_c, 1, 64, 100
3, 45660, Note_on_c, 1, 64, 0
3, 45660, Note_on_c, 1, 63, 100
3, 45720, Note_on_c, 1, 63, 0
3, 45720, Note_on_c, 1, 63, 100
3, 45960, Note_on_c, 1, 63, 0
3, 45960, End_track
4, 0, Start_track
4, 0, MIDI_port, 0
4, 0, Title_t, "Organ (Damon Albarn)"
4, 0, Program_c, 2, 23
4, 0, Control_c, 2, 7, 127
4, 0, Control_c, 2, 10, 64
4, 1920, Note_on_c, 2, 56, 100
4, 2340, Note_on_c, 2, 56, 0
4, 2340, Note_on_c, 2, 54, 100
4, 3060, Note_on_c, 2, 54, 0
4, 3060, Note_on_c, 2, 52, 100
4, 3300, Note_on_c, 2, 52, 0
4, 3300, Note_on_c, 2, 54, 100
4, 3780, Note_on_c, 2, 54, 0
4, 3780, Note_on_c, 2, 52, 100
4, 4020, Note_on_c, 2, 52, 0
4, 4020, Note_on_c, 2, 54, 100
4, 4320, Note_on_c, 2, 54, 0
4, 4320, Note_on_c, 2, 56, 100
4, 4740, Note_on_c, 2, 56, 0
4, 4740, Note_on_c, 2, 54, 100
4, 5460, Note_on_c, 2, 54, 0
4, 5460, Note_on_c, 2, 52, 100
4, 5700, Note_on_c, 2, 52, 0
4, 5700, Note_on_c, 2, 54, 100
4, 6180, Note_on_c, 2, 54, 0
4, 6180, Note_on_c, 2, 52, 100
4, 6420, Note_on_c, 2, 52, 0
4, 6420, Note_on_c, 2, 54, 100
4, 6660, Note_on_c, 2, 54, 0
4, 6720, Note_on_c, 2, 56, 100
4, 7140, Note_on_c, 2, 56, 0
4, 7140, Note_on_c, 2, 54, 100
4, 7860, Note_on_c, 2, 54, 0
4, 7860, Note_on_c, 2, 52, 100
4, 8100, Note_on_c, 2, 52, 0
4, 8100, Note_on_c, 2, 54, 100
4, 8580, Note_on_c, 2, 54, 0
4, 8580, Note_on_c, 2, 52, 100
4, 8820, Note_on_c, 2, 52, 0
4, 8820, Note_on_c, 2, 54, 100
4, 9060, Note_on_c, 2, 54, 0
4, 13920, Note_on_c, 2, 68, 100
4, 14040, Note_on_c, 2, 68, 0
4, 14040, Note_on_c, 2, 68, 100
4, 14160, Note_on_c, 2, 68, 0
4, 14160, Note_on_c, 2, 66, 100
4, 14220, Note_on_c, 2, 66, 0
4, 14220, Note_on_c, 2, 68, 100
4, 14280, Note_on_c, 2, 68, 0
4, 14280, Note_on_c, 2, 66, 100
4, 14340, Note_on_c, 2, 66, 0
4, 14340, Note_on_c, 2, 66, 100
4, 14700, Note_on_c, 2, 66, 0
4, 14700, Note_on_c, 2, 68, 100
4, 14760, Note_on_c, 2, 68, 0
4, 14760, Note_on_c, 2, 66, 100
4, 14820, Note_on_c, 2, 66, 0
4, 14820, Note_on_c, 2, 66, 100
4, 15060, Note_on_c, 2, 66, 0
4, 15060, Note_on_c, 2, 64, 100
4, 15300, Note_on_c, 2, 64, 0
4, 15300, Note_on_c, 2, 66, 100
4, 15660, Note_on_c, 2, 66, 0
4, 15660, Note_on_c, 2, 68, 100
4, 15720, Note_on_c, 2, 68, 0
4, 15720, Note_on_c, 2, 66, 100
4, 15780, Note_on_c, 2, 66, 0
4, 15780, Note_on_c, 2, 64, 100
4, 16020, Note_on_c, 2, 64, 0
4, 16020, Note_on_c, 2, 63, 100
4, 16140, Note_on_c, 2, 63, 0
4, 16140, Note_on_c, 2, 61, 100
4, 16260, Note_on_c, 2, 61, 0
4, 16260, Note_on_c, 2, 59, 100
4, 16800, Note_on_c, 2, 59, 0
4, 29760, Note_on_c, 2, 68, 100
4, 29880, Note_on_c, 2, 68, 0
4, 29880, Note_on_c, 2, 68, 100
4, 30000, Note_on_c, 2, 68, 0
4, 30000, Note_on_c, 2, 66, 100
4, 30060, Note_on_c, 2, 66, 0
4, 30060, Note_on_c, 2, 68, 100
4, 30120, Note_on_c, 2, 68, 0
4, 30120, Note_on_c, 2, 66, 100
4, 30180, Note_on_c, 2, 66, 0
4, 30180, Note_on_c, 2, 66, 100
4, 30540, Note_on_c, 2, 66, 0
4, 30540, Note_on_c, 2, 68, 100
4, 30600, Note_on_c, 2, 68, 0
4, 30600, Note_on_c, 2, 66, 100
4, 30660, Note_on_c, 2, 66, 0
4, 30660, Note_on_c, 2, 66, 100
4, 30900, Note_on_c, 2, 66, 0
4, 30900, Note_on_c, 2, 64, 100
4, 31140, Note_on_c, 2, 64, 0
4, 31140, Note_on_c, 2, 66, 100
4, 31500, Note_on_c, 2, 66, 0
4, 31500, Note_on_c, 2, 68, 100
4, 31560, Note_on_c, 2, 68, 0
4, 31560, Note_on_c, 2, 66, 100
4, 31620, Note_on_c, 2, 66, 0
4, 31620, Note_on_c, 2, 64, 100
4, 31860, Note_on_c, 2, 64, 0
4, 31860, Note_on_c, 2, 63, 100
4, 31980, Note_on_c, 2, 63, 0
4, 31980, Note_on_c, 2, 61, 100
4, 32100, Note_on_c, 2, 61, 0
4, 32100, Note_on_c, 2, 59, 100
4, 32160, Note_on_c, 2, 59, 0
4, 32160, Note_on_c, 2, 57, 100
4, 32580, Note_on_c, 2, 57, 0
4, 32640, Note_on_c, 2, 58, 100
4, 33120, Note_on_c, 2, 58, 0
4, 33120, End_track
5, 0, Start_track
5, 0, MIDI_port, 0
5, 0, Title_t, "Loop Drums (Dave Rowntree)"
5, 0, Program_c, 9, 0
5, 0, Control_c, 9, 7, 100
5, 0, Note_on_c, 9, 36, 100
5, 0, Note_on_c, 9, 59, 100
5, 60, Note_on_c, 9, 59, 0
5, 60, Note_on_c, 9, 36, 0
5, 60, Note_on_c, 9, 59, 100
5, 120, Note_on_c, 9, 59, 0
5, 120, Note_on_c, 9, 38, 100
5, 120, Note_on_c, 9, 59, 100
5, 180, Note_on_c, 9, 59, 0
5, 180, Note_on_c, 9, 38, 0
5, 180, Note_on_c, 9, 59, 100
5, 240, Note_on_c, 9, 59, 0
5, 240, Note_on_c, 9, 59, 100
5, 300, Note_on_c, 9, 59, 0
5, 300, Note_on_c, 9, 36, 100
5, 300, Note_on_c, 9, 59, 100
5, 360, Note_on_c, 9, 59, 0
5, 360, Note_on_c, 9, 36, 0
5, 360, Note_on_c, 9, 59, 100
5, 420, Note_on_c, 9, 59, 0
5, 420, Note_on_c, 9, 38, 100
5, 420, Note_on_c, 9, 59, 100
5, 480, Note_on_c, 9, 59, 0
5, 480, Note_on_c, 9, 38, 0
5, 480, Note_on_c, 9, 36, 100
5, 480, Note_on_c, 9, 59, 100
5, 540, Note_on_c, 9, 59, 0
5, 540, Note_on_c, 9, 36, 0
5, 540, Note_on_c, 9, 59, 100
5, 600, Note_on_c, 9, 59, 0
5, 600, Note_on_c, 9, 38, 100
5, 600, Note_on_c, 9, 59, 100
5, 660, Note_on_c, 9, 59, 0
5, 660, Note_on_c, 9, 38, 0
5, 660, Note_on_c, 9, 59, 100
5, 720, Note_on_c, 9, 59, 0
5, 720, Note_on_c, 9, 59, 100
5, 780, Note_on_c, 9, 59, 0
5, 780, Note_on_c, 9, 59, 100
5, 840, Note_on_c, 9, 59, 0
5, 840, Note_on_c, 9, 43, 100
5, 840, Note_on_c, 9, 59, 100
5, 900, Note_on_c, 9, 59, 0
5, 900, Note_on_c, 9, 43, 0
5, 900, Note_on_c, 9, 41, 100
5, 900, Note_on_c, 9, 59, 100
5, 960, Note_on_c, 9, 59, 0
5, 960, Note_on_c, 9, 41, 0
5, 960, Note_on_c, 9, 36, 100
5, 960, Note_on_c, 9, 59, 100
5, 1020, Note_on_c, 9, 59, 0
5, 1020, Note_on_c, 9, 36, 0
5, 1020, Note_on_c, 9, 59, 100
5, 1080, Note_on_c, 9, 59, 0
5, 1080, Note_on_c, 9, 38, 100
5, 1080, Note_on_c, 9, 59, 100
5, 1140, Note_on_c, 9, 59, 0
5, 1140, Note_on_c, 9, 38, 0
5, 1140, Note_on_c, 9, 59, 100
5, 1200, Note_on_c, 9, 59, 0
5, 1200, Note_on_c, 9, 59, 100
5, 1260, Note_on_c, 9, 59, 0
5, 1260, Note_on_c, 9, 36, 100
5, 1260, Note_on_c, 9, 59, 100
5, 1320, Note_on_c, 9, 59, 0
5, 1320, Note_on_c, 9, 36, 0
5, 1320, Note_on_c, 9, 59, 100
5, 1380, Note_on_c, 9, 59, 0
5, 1380, Note_on_c, 9, 38, 100
5, 1380, Note_on_c, 9, 59, 100
5, 1440, Note_on_c, 9, 59, 0
5, 1440, Note_on_c, 9, 38, 0
5, 1440, Note_on_c, 9, 36, 100
5, 1440, Note_on_c, 9, 59, 100
5, 1500, Note_on_c, 9, 59, 0
5, 1500, Note_on_c, 9, 36, 0
5, 1500, Note_on_c, 9, 59, 100
5, 1560, Note_on_c, 9, 59, 0
5, 1560, Note_on_c, 9, 38, 100
5, 1560, Note_on_c, 9, 59, 100
5, 1620, Note_on_c, 9, 59, 0
5, 1620, Note_on_c, 9, 38, 0
5, 1620, Note_on_c, 9, 59, 100
5, 1680, Note_on_c, 9, 59, 0
5, 1680, Note_on_c, 9, 59, 100
5, 1740, Note_on_c, 9, 59, 0
5, 1740, Note_on_c, 9, 59, 100
5, 1800, Note_on_c, 9, 59, 0
5, 1800, Note_on_c, 9, 43, 100
5, 1800, Note_on_c, 9, 59, 100
5, 1860, Note_on_c, 9, 59, 0
5, 1860, Note_on_c, 9, 43, 0
5, 1860, Note_on_c, 9, 41, 100
5, 1860, Note_on_c, 9, 59, 100
5, 1920, Note_on_c, 9, 59, 0
5, 1920, Note_on_c, 9, 41, 0
5, 1920, Note_on_c, 9, 36, 100
5, 1920, Note_on_c, 9, 59, 100
5, 1980, Note_on_c, 9, 59, 0
5, 1980, Note_on_c, 9, 36, 0
5, 1980, Note_on_c, 9, 59, 100
5, 2040, Note_on_c, 9, 59, 0
5, 2040, Note_on_c, 9, 38, 100
5, 2040, Note_on_c, 9, 59, 100
5, 2100, Note_on_c, 9, 59, 0
5, 2100, Note_on_c, 9, 38, 0
5, 2100, Note_on_c, 9, 59, 100
5, 2160, Note_on_c, 9, 59, 0
5, 2160, Note_on_c, 9, 59, 100
5, 2220, Note_on_c, 9, 59, 0
5, 2220, Note_on_c, 9, 36, 100
5, 2220, Note_on_c, 9, 59, 100
5, 2280, Note_on_c, 9, 59, 0
5, 2280, Note_on_c, 9, 36, 0
5, 2280, Note_on_c, 9, 59, 100
5, 2340, Note_on_c, 9, 59, 0
5, 2340, Note_on_c, 9, 38, 100
5, 2340, Note_on_c, 9, 59, 100
5, 2400, Note_on_c, 9, 59, 0
5, 2400, Note_on_c, 9, 38, 0
5, 2400, Note_on_c, 9, 36, 100
5, 2400, Note_on_c, 9, 59, 100
5, 2460, Note_on_c, 9, 59, 0
5, 2460, Note_on_c, 9, 36, 0
5, 2460, Note_on_c, 9, 59, 100
5, 2520, Note_on_c, 9, 59, 0
5, 2520, Note_on_c, 9, 38, 100
5, 2520, Note_on_c, 9, 59, 100
5, 2580, Note_on_c, 9, 59, 0
5, 2580, Note_on_c, 9, 38, 0
5, 2580, Note_on_c, 9, 59, 100
5, 2640, Note_on_c, 9, 59, 0
5, 2640, Note_on_c, 9, 59, 100
5, 2700, Note_on_c, 9, 59, 0
5, 2700, Note_on_c, 9, 59, 100
5, 2760, Note_on_c, 9, 59, 0
5, 2760, Note_on_c, 9, 43, 100
5, 2760, Note_on_c, 9, 59, 100
5, 2820, Note_on_c, 9, 59, 0
5, 2820, Note_on_c, 9, 43, 0
5, 2820, Note_on_c, 9, 41, 100
5, 2820, Note_on_c, 9, 59, 100
5, 2880, Note_on_c, 9, 59, 0
5, 2880, Note_on_c, 9, 41, 0
5, 2880, Note_on_c, 9, 36, 100
5, 2880, Note_on_c, 9, 59, 100
5, 2940, Note_on_c, 9, 59, 0
5, 2940, Note_on_c, 9, 36, 0
5, 2940, Note_on_c, 9, 59, 100
5, 3000, Note_on_c, 9, 59, 0
5, 3000, Note_on_c, 9, 38, 100
5, 3000, Note_on_c, 9, 59, 100
5, 3060, Note_on_c, 9, 59, 0
5, 3060, Note_on_c, 9, 38, 0
5, 3060, Note_on_c, 9, 59, 100
5, 3120, Note_on_c, 9, 59, 0
5, 3120, Note_on_c, 9, 59, 100
5, 3180, Note_on_c, 9, 59, 0
5, 3180, Note_on_c, 9, 36, 100
5, 3180, Note_on_c, 9, 59, 100
5, 3240, Note_on_c, 9, 59, 0
5, 3240, Note_on_c, 9, 36, 0
5, 3240, Note_on_c, 9, 59, 100
5, 3300, Note_on_c, 9, 59, 0
5, 3300, Note_on_c, 9, 38, 100
5, 3300, Note_on_c, 9, 59, 100
5, 3360, Note_on_c, 9, 59, 0
5, 3360, Note_on_c, 9, 38, 0
5, 3360, Note_on_c, 9, 36, 100
5, 3360, Note_on_c, 9, 59, 100
5, 3420, Note_on_c, 9, 59, 0
5, 3420, Note_on_c, 9, 36, 0
5, 3420, Note_on_c, 9, 59, 100
5, 3480, Note_on_c, 9, 59, 0
5, 3480, Note_on_c, 9, 38, 100
5, 3480, Note_on_c, 9, 59, 100
5, 3540, Note_on_c, 9, 59, 0
5, 3540, Note_on_c, 9, 38, 0
5, 3540, Note_on_c, 9, 59, 100
5, 3600, Note_on_c, 9, 59, 0
5, 3600, Note_on_c, 9, 59, 100
5, 3660, Note_on_c, 9, 59, 0
5, 3660, Note_on_c, 9, 59, 100
5, 3720, Note_on_c, 9, 59, 0
5, 3720, Note_on_c, 9, 43, 100
5, 3720, Note_on_c, 9, 59, 100
5, 3780, Note_on_c, 9, 59, 0
5, 3780, Note_on_c, 9, 43, 0
5, 3780, Note_on_c, 9, 41, 100
5, 3780, Note_on_c, 9, 59, 100
5, 3840, Note_on_c, 9, 59, 0
5, 3840, Note_on_c, 9, 41, 0
5, 3840, Note_on_c, 9, 36, 100
5, 3840, Note_on_c, 9, 59, 100
5, 3900, Note_on_c, 9, 59, 0
5, 3900, Note_on_c, 9, 36, 0
5, 3900, Note_on_c, 9, 59, 100
5, 3960, Note_on_c, 9, 59, 0
5, 3960, Note_on_c, 9, 38, 100
5, 3960, Note_on_c, 9, 59, 100
5, 4020, Note_on_c, 9, 59, 0
5, 4020, Note_on_c, 9, 38, 0
5, 4020, Note_on_c, 9, 59, 100
5, 4080, Note_on_c, 9, 59, 0
5, 4080, Note_on_c, 9, 59, 100
5, 4140, Note_on_c, 9, 59, 0
5, 4140, Note_on_c, 9, 36, 100
5, 4140, Note_on_c, 9, 59, 100
5, 4200, Note_on_c, 9, 59, 0
5, 4200, Note_on_c, 9, 36, 0
5, 4200, Note_on_c, 9, 59, 100
5, 4260, Note_on_c, 9, 59, 0
5, 4260, Note_on_c, 9, 38, 100
5, 4260, Note_on_c, 9, 59, 100
5, 4320, Note_on_c, 9, 59, 0
5, 4320, Note_on_c, 9, 38, 0
5, 4320, Note_on_c, 9, 36, 100
5, 4320, Note_on_c, 9, 59, 100
5, 4380, Note_on_c, 9, 59, 0
5, 4380, Note_on_c, 9, 36, 0
5, 4380, Note_on_c, 9, 59, 100
5, 4440, Note_on_c, 9, 59, 0
5, 4440, Note_on_c, 9, 38, 100
5, 4440, Note_on_c, 9, 59, 100
5, 4500, Note_on_c, 9, 59, 0
5, 4500, Note_on_c, 9, 38, 0
5, 4500, Note_on_c, 9, 59, 100
5, 4560, Note_on_c, 9, 59, 0
5, 4560, Note_on_c, 9, 59, 100
5, 4620, Note_on_c, 9, 59, 0
5, 4620, Note_on_c, 9, 59, 100
5, 4680, Note_on_c, 9, 59, 0
5, 4680, Note_on_c, 9, 43, 100
5, 4680, Note_on_c, 9, 59, 100
5, 4740, Note_on_c, 9, 59, 0
5, 4740, Note_on_c, 9, 43, 0
5, 4740, Note_on_c, 9, 41, 100
5, 4740, Note_on_c, 9, 59, 100
5, 4800, Note_on_c, 9, 59, 0
5, 4800, Note_on_c, 9, 41, 0
5, 4800, Note_on_c, 9, 36, 100
5, 4800, Note_on_c, 9, 59, 100
5, 4860, Note_on_c, 9, 59, 0
5, 4860, Note_on_c, 9, 36, 0
5, 4860, Note_on_c, 9, 59, 100
5, 4920, Note_on_c, 9, 59, 0
5, 4920, Note_on_c, 9, 38, 100
5, 4920, Note_on_c, 9, 59, 100
5, 4980, Note_on_c, 9, 59, 0
5, 4980, Note_on_c, 9, 38, 0
5, 4980, Note_on_c, 9, 59, 100
5, 5040, Note_on_c, 9, 59, 0
5, 5040, Note_on_c, 9, 59, 100
5, 5100, Note_on_c, 9, 59, 0
5, 5100, Note_on_c, 9, 36, 100
5, 5100, Note_on_c, 9, 59, 100
5, 5160, Note_on_c, 9, 59, 0
5, 5160, Note_on_c, 9, 36, 0
5, 5160, Note_on_c, 9, 59, 100
5, 5220, Note_on_c, 9, 59, 0
5, 5220, Note_on_c, 9, 38, 100
5, 5220, Note_on_c, 9, 59, 100
5, 5280, Note_on_c, 9, 59, 0
5, 5280, Note_on_c, 9, 38, 0
5, 5280, Note_on_c, 9, 36, 100
5, 5280, Note_on_c, 9, 59, 100
5, 5340, Note_on_c, 9, 59, 0
5, 5340, Note_on_c, 9, 36, 0
5, 5340, Note_on_c, 9, 59, 100
5, 5400, Note_on_c, 9, 59, 0
5, 5400, Note_on_c, 9, 38, 100
5, 5400, Note_on_c, 9, 59, 100
5, 5460, Note_on_c, 9, 59, 0
5, 5460, Note_on_c, 9, 38, 0
5, 5460, Note_on_c, 9, 59, 100
5, 5520, Note_on_c, 9, 59, 0
5, 5520, Note_on_c, 9, 59, 100
5, 5580, Note_on_c, 9, 59, 0
5, 5580, Note_on_c, 9, 59, 100
5, 5640, Note_on_c, 9, 59, 0
5, 5640, Note_on_c, 9, 43, 100
5, 5640, Note_on_c, 9, 59, 100
5, 5700, Note_on_c, 9, 59, 0
5, 5700, Note_on_c, 9, 43, 0
5, 5700, Note_on_c, 9, 41, 100
5, 5700, Note_on_c, 9, 59, 100
5, 5760, Note_on_c, 9, 59, 0
5, 5760, Note_on_c, 9, 41, 0
5, 5760, Note_on_c, 9, 36, 100
5, 5760, Note_on_c, 9, 59, 100
5, 5820, Note_on_c, 9, 59, 0
5, 5820, Note_on_c, 9, 36, 0
5, 5820, Note_on_c, 9, 59, 100
5, 5880, Note_on_c, 9, 59, 0
5, 5880, Note_on_c, 9, 38, 100
5, 5880, Note_on_c, 9, 59, 100
5, 5940, Note_on_c, 9, 59, 0
5, 5940, Note_on_c, 9, 38, 0
5, 5940, Note_on_c, 9, 59, 100
5, 6000, Note_on_c, 9, 59, 0
5, 6000, Note_on_c, 9, 59, 100
5, 6060, Note_on_c, 9, 59, 0
5, 6060, Note_on_c, 9, 36, 100
5, 6060, Note_on_c, 9, 59, 100
5, 6120, Note_on_c, 9, 59, 0
5, 6120, Note_on_c, 9, 36, 0
5, 6120, Note_on_c, 9, 59, 100
5, 6180, Note_on_c, 9, 59, 0
5, 6180, Note_on_c, 9, 38, 100
5, 6180, Note_on_c, 9, 59, 100
5, 6240, Note_on_c, 9, 59, 0
5, 6240, Note_on_c, 9, 38, 0
5, 6240, Note_on_c, 9, 36, 100
5, 6240, Note_on_c, 9, 59, 100
5, 6300, Note_on_c, 9, 59, 0
5, 6300, Note_on_c, 9, 36, 0
5, 6300, Note_on_c, 9, 59, 100
5, 6360, Note_on_c, 9, 59, 0
5, 6360, Note_on_c, 9, 38, 100
5, 6360, Note_on_c, 9, 59, 100
5, 6420, Note_on_c, 9, 59, 0
5, 6420, Note_on_c, 9, 38, 0
5, 6420, Note_on_c, 9, 59, 100
5, 6480, Note_on_c, 9, 59, 0
5, 6480, Note_on_c, 9, 59, 100
5, 6540, Note_on_c, 9, 59, 0
5, 6540, Note_on_c, 9, 59, 100
5, 6600, Note_on_c, 9, 59, 0
5, 6600, Note_on_c, 9, 43, 100
5, 6600, Note_on_c, 9, 59, 100
5, 6660, Note_on_c, 9, 59, 0
5, 6660, Note_on_c, 9, 43, 0
5, 6660, Note_on_c, 9, 41, 100
5, 6660, Note_on_c, 9, 59, 100
5, 6720, Note_on_c, 9, 59, 0
5, 6720, Note_on_c, 9, 41, 0
5, 6720, Note_on_c, 9, 36, 100
5, 6720, Note_on_c, 9, 59, 100
5, 6780, Note_on_c, 9, 59, 0
5, 6780, Note_on_c, 9, 36, 0
5, 6780, Note_on_c, 9, 59, 100
5, 6840, Note_on_c, 9, 59, 0
5, 6840, Note_on_c, 9, 38, 100
5, 6840, Note_on_c, 9, 59, 100
5, 6900, Note_on_c, 9, 59, 0
5, 6900, Note_on_c, 9, 38, 0
5, 6900, Note_on_c, 9, 59, 100
5, 6960, Note_on_c, 9, 59, 0
5, 6960, Note_on_c, 9, 59, 100
5, 7020, Note_on_c, 9, 59, 0
5, 7020, Note_on_c, 9, 36, 100
5, 7020, Note_on_c, 9, 59, 100
5, 7080, Note_on_c, 9, 59, 0
5, 7080, Note_on_c, 9, 36, 0
5, 7080, Note_on_c, 9, 59, 100
5, 7140, Note_on_c, 9, 59, 0
5, 7140, Note_on_c, 9, 38, 100
5, 7140, Note_on_c, 9, 59, 100
5, 7200, Note_on_c, 9, 59, 0
5, 7200, Note_on_c, 9, 38, 0
5, 7200, Note_on_c, 9, 36, 100
5, 7200, Note_on_c, 9, 59, 100
5, 7260, Note_on_c, 9, 59, 0
5, 7260, Note_on_c, 9, 36, 0
5, 7260, Note_on_c, 9, 59, 100
5, 7320, Note_on_c, 9, 59, 0
5, 7320, Note_on_c, 9, 38, 100
5, 7320, Note_on_c, 9, 59, 100
5, 7380, Note_on_c, 9, 59, 0
5, 7380, Note_on_c, 9, 38, 0
5, 7380, Note_on_c, 9, 59, 100
5, 7440, Note_on_c, 9, 59, 0
5, 7440, Note_on_c, 9, 59, 100
5, 7500, Note_on_c, 9, 59, 0
5, 7500, Note_on_c, 9, 59, 100
5, 7560, Note_on_c, 9, 59, 0
5, 7560, Note_on_c, 9, 43, 100
5, 7560, Note_on_c, 9, 59, 100
5, 7620, Note_on_c, 9, 59, 0
5, 7620, Note_on_c, 9, 43, 0
5, 7620, Note_on_c, 9, 41, 100
5, 7620, Note_on_c, 9, 59, 100
5, 7680, Note_on_c, 9, 59, 0
5, 7680, Note_on_c, 9, 41, 0
5, 7680, Note_on_c, 9, 36, 100
5, 7680, Note_on_c, 9, 59, 100
5, 7740, Note_on_c, 9, 59, 0
5, 7740, Note_on_c, 9, 36, 0
5, 7740, Note_on_c, 9, 59, 100
5, 7800, Note_on_c, 9, 59, 0
5, 7800, Note_on_c, 9, 38, 100
5, 7800, Note_on_c, 9, 59, 100
5, 7860, Note_on_c, 9, 59, 0
5, 7860, Note_on_c, 9, 38, 0
5, 7860, Note_on_c, 9, 59, 100
5, 7920, Note_on_c, 9, 59, 0
5, 7920, Note_on_c, 9, 59, 100
5, 7980, Note_on_c, 9, 59, 0
5, 7980, Note_on_c, 9, 36, 100
5, 7980, Note_on_c, 9, 59, 100
5, 8040, Note_on_c, 9, 59, 0
5, 8040, Note_on_c, 9, 36, 0
5, 8040, Note_on_c, 9, 59, 100
5, 8100, Note_on_c, 9, 59, 0
5, 8100, Note_on_c, 9, 38, 100
5, 8100, Note_on_c, 9, 59, 100
5, 8160, Note_on_c, 9, 59, 0
5, 8160, Note_on_c, 9, 38, 0
5, 8160, Note_on_c, 9, 36, 100
5, 8160, Note_on_c, 9, 59, 100
5, 8220, Note_on_c, 9, 59, 0
5, 8220, Note_on_c, 9, 36, 0
5, 8220, Note_on_c, 9, 59, 100
5, 8280, Note_on_c, 9, 59, 0
5, 8280, Note_on_c, 9, 38, 100
5, 8280, Note_on_c, 9, 59, 100
5, 8340, Note_on_c, 9, 59, 0
5, 8340, Note_on_c, 9, 38, 0
5, 8340, Note_on_c, 9, 59, 100
5, 8400, Note_on_c, 9, 59, 0
5, 8400, Note_on_c, 9, 59, 100
5, 8460, Note_on_c, 9, 59, 0
5, 8460, Note_on_c, 9, 59, 100
5, 8520, Note_on_c, 9, 59, 0
5, 8520, Note_on_c, 9, 43, 100
5, 8520, Note_on_c, 9, 59, 100
5, 8580, Note_on_c, 9, 59, 0
5, 8580, Note_on_c, 9, 43, 0
5, 8580, Note_on_c, 9, 41, 100
5, 8580, Note_on_c, 9, 59, 100
5, 8640, Note_on_c, 9, 59, 0
5, 8640, Note_on_c, 9, 41, 0
5, 8640, Note_on_c, 9, 36, 100
5, 8640, Note_on_c, 9, 59, 100
5, 8700, Note_on_c, 9, 59, 0
5, 8700, Note_on_c, 9, 36, 0
5, 8700, Note_on_c, 9, 59, 100
5, 8760, Note_on_c, 9, 59, 0
5, 8760, Note_on_c, 9, 38, 100
5, 8760, Note_on_c, 9, 59, 100
5, 8820, Note_on_c, 9, 59, 0
5, 8820, Note_on_c, 9, 38, 0
5, 8820, Note_on_c, 9, 59, 100
5, 8880, Note_on_c, 9, 59, 0
5, 8880, Note_on_c, 9, 59, 100
5, 8940, Note_on_c, 9, 59, 0
5, 8940, Note_on_c, 9, 36, 100
5, 8940, Note_on_c, 9, 59, 100
5, 9000, Note_on_c, 9, 59, 0
5, 9000, Note_on_c, 9, 36, 0
5, 9000, Note_on_c, 9, 59, 100
5, 9060, Note_on_c, 9, 59, 0
5, 9060, Note_on_c, 9, 38, 100
5, 9060, Note_on_c, 9, 59, 100
5, 9120, Note_on_c, 9, 59, 0
5, 9120, Note_on_c, 9, 38, 0
5, 9120, Note_on_c, 9, 36, 100
5, 9120, Note_on_c, 9, 59, 100
5, 9180, Note_on_c, 9, 59, 0
5, 9180, Note_on_c, 9, 36, 0
5, 9180, Note_on_c, 9, 59, 100
5, 9240, Note_on_c, 9, 59, 0
5, 9240, Note_on_c, 9, 38, 100
5, 9240, Note_on_c, 9, 59, 100
5, 9300, Note_on_c, 9, 59, 0
5, 9300, Note_on_c, 9, 38, 0
5, 9300, Note_on_c, 9, 59, 100
5, 9360, Note_on_c, 9, 59, 0
5, 9360, Note_on_c, 9, 59, 100
5, 9420, Note_on_c, 9, 59, 0
5, 9420, Note_on_c, 9, 59, 100
5, 9480, Note_on_c, 9, 59, 0
5, 9480, Note_on_c, 9, 43, 100
5, 9480, Note_on_c, 9, 59, 100
5, 9540, Note_on_c, 9, 59, 0
5, 9540, Note_on_c, 9, 43, 0
5, 9540, Note_on_c, 9, 41, 100
5, 9540, Note_on_c, 9, 59, 100
5, 9600, Note_on_c, 9, 59, 0
5, 9600, Note_on_c, 9, 41, 0
5, 9600, Note_on_c, 9, 36, 100
5, 9600, Note_on_c, 9, 59, 100
5, 9660, Note_on_c, 9, 59, 0
5, 9660, Note_on_c, 9, 36, 0
5, 9660, Note_on_c, 9, 59, 100
5, 9720, Note_on_c, 9, 59, 0
5, 9720, Note_on_c, 9, 38, 100
5, 9720, Note_on_c, 9, 59, 100
5, 9780, Note_on_c, 9, 59, 0
5, 9780, Note_on_c, 9, 38, 0
5, 9780, Note_on_c, 9, 59, 100
5, 9840, Note_on_c, 9, 59, 0
5, 9840, Note_on_c, 9, 59, 100
5, 9900, Note_on_c, 9, 59, 0
5, 9900, Note_on_c, 9, 36, 100
5, 9900, Note_on_c, 9, 59, 100
5, 9960, Note_on_c, 9, 59, 0
5, 9960, Note_on_c, 9, 36, 0
5, 9960, Note_on_c, 9, 59, 100
5, 10020, Note_on_c, 9, 59, 0
5, 10020, Note_on_c, 9, 38, 100
5, 10020, Note_on_c, 9, 59, 100
5, 10080, Note_on_c, 9, 59, 0
5, 10080, Note_on_c, 9, 38, 0
5, 10080, Note_on_c, 9, 54, 100
5, 10080, Note_on_c, 9, 36, 100
5, 10140, Note_on_c, 9, 36, 0
5, 10140, Note_on_c, 9, 54, 0
5, 10140, Note_on_c, 9, 54, 100
5, 10200, Note_on_c, 9, 54, 0
5, 10200, Note_on_c, 9, 54, 100
5, 10200, Note_on_c, 9, 38, 100
5, 10260, Note_on_c, 9, 38, 0
5, 10260, Note_on_c, 9, 54, 0
5, 10260, Note_on_c, 9, 54, 100
5, 10320, Note_on_c, 9, 54, 0
5, 10320, Note_on_c, 9, 54, 100
5, 10380, Note_on_c, 9, 54, 0
5, 10380, Note_on_c, 9, 54, 100
5, 10440, Note_on_c, 9, 54, 0
5, 10440, Note_on_c, 9, 54, 100
5, 10440, Note_on_c, 9, 43, 100
5, 10500, Note_on_c, 9, 43, 0
5, 10500, Note_on_c, 9, 54, 0
5, 10500, Note_on_c, 9, 54, 100
5, 10500, Note_on_c, 9, 41, 100
5, 10560, Note_on_c, 9, 41, 0
5, 10560, Note_on_c, 9, 54, 0
5, 10560, Note_on_c, 9, 54, 100
5, 10560, Note_on_c, 9, 36, 100
5, 10620, Note_on_c, 9, 36, 0
5, 10620, Note_on_c, 9, 54, 0
5, 10620, Note_on_c, 9, 54, 100
5, 10680, Note_on_c, 9, 54, 0
5, 10680, Note_on_c, 9, 54, 100
5, 10680, Note_on_c, 9, 38, 100
5, 10740, Note_on_c, 9, 38, 0
5, 10740, Note_on_c, 9, 54, 0
5, 10740, Note_on_c, 9, 54, 100
5, 10800, Note_on_c, 9, 54, 0
5, 10800, Note_on_c, 9, 54, 100
5, 10860, Note_on_c, 9, 54, 0
5, 10860, Note_on_c, 9, 54, 100
5, 10860, Note_on_c, 9, 36, 100
5, 10920, Note_on_c, 9, 36, 0
5, 10920, Note_on_c, 9, 54, 0
5, 10920, Note_on_c, 9, 54, 100
5, 10980, Note_on_c, 9, 54, 0
5, 10980, Note_on_c, 9, 54, 100
5, 10980, Note_on_c, 9, 38, 100
5, 11040, Note_on_c, 9, 38, 0
5, 11040, Note_on_c, 9, 54, 0
5, 11040, Note_on_c, 9, 54, 100
5, 11040, Note_on_c, 9, 36, 100
5, 11100, Note_on_c, 9, 36, 0
5, 11100, Note_on_c, 9, 54, 0
5, 11100, Note_on_c, 9, 54, 100
5, 11160, Note_on_c, 9, 54, 0
5, 11160, Note_on_c, 9, 54, 100
5, 11160, Note_on_c, 9, 38, 100
5, 11220, Note_on_c, 9, 38, 0
5, 11220, Note_on_c, 9, 54, 0
5, 11220, Note_on_c, 9, 54, 100
5, 11280, Note_on_c, 9, 54, 0
5, 11280, Note_on_c, 9, 54, 100
5, 11340, Note_on_c, 9, 54, 0
5, 11340, Note_on_c, 9, 54, 100
5, 11400, Note_on_c, 9, 54, 0
5, 11400, Note_on_c, 9, 54, 100
5, 11400, Note_on_c, 9, 43, 100
5, 11460, Note_on_c, 9, 43, 0
5, 11460, Note_on_c, 9, 54, 0
5, 11460, Note_on_c, 9, 54, 100
5, 11460, Note_on_c, 9, 41, 100
5, 11520, Note_on_c, 9, 41, 0
5, 11520, Note_on_c, 9, 54, 0
5, 11520, Note_on_c, 9, 54, 100
5, 11520, Note_on_c, 9, 36, 100
5, 11580, Note_on_c, 9, 36, 0
5, 11580, Note_on_c, 9, 54, 0
5, 11580, Note_on_c, 9, 54, 100
5, 11640, Note_on_c, 9, 54, 0
5, 11640, Note_on_c, 9, 54, 100
5, 11640, Note_on_c, 9, 38, 100
5, 11700, Note_on_c, 9, 38, 0
5, 11700, Note_on_c, 9, 54, 0
5, 11700, Note_on_c, 9, 54, 100
5, 11760, Note_on_c, 9, 54, 0
5, 11760, Note_on_c, 9, 54, 100
5, 11820, Note_on_c, 9, 54, 0
5, 11820, Note_on_c, 9, 54, 100
5, 11820, Note_on_c, 9, 36, 100
5, 11880, Note_on_c, 9, 36, 0
5, 11880, Note_on_c, 9, 54, 0
5, 11880, Note_on_c, 9, 54, 100
5, 11940, Note_on_c, 9, 54, 0
5, 11940, Note_on_c, 9, 54, 100
5, 11940, Note_on_c, 9, 38, 100
5, 12000, Note_on_c, 9, 38, 0
5, 12000, Note_on_c, 9, 54, 0
5, 12000, Note_on_c, 9, 36, 100
5, 12000, Note_on_c, 9, 54, 100
5, 12000, Note_on_c, 9, 36, 100
5, 12060, Note_on_c, 9, 36, 0
5, 12060, Note_on_c, 9, 54, 0
5, 12060, Note_on_c, 9, 36, 0
5, 12060, Note_on_c, 9, 54, 100
5, 12120, Note_on_c, 9, 54, 0
5, 12120, Note_on_c, 9, 54, 100
5, 12120, Note_on_c, 9, 38, 100
5, 12180, Note_on_c, 9, 38, 0
5, 12180, Note_on_c, 9, 54, 0
5, 12180, Note_on_c, 9, 54, 100
5, 12240, Note_on_c, 9, 54, 0
5, 12240, Note_on_c, 9, 54, 100
5, 12300, Note_on_c, 9, 54, 0
5, 12300, Note_on_c, 9, 54, 100
5, 12360, Note_on_c, 9, 54, 0
5, 12360, Note_on_c, 9, 54, 100
5, 12360, Note_on_c, 9, 43, 100
5, 12420, Note_on_c, 9, 43, 0
5, 12420, Note_on_c, 9, 54, 0
5, 12420, Note_on_c, 9, 54, 100
5, 12420, Note_on_c, 9, 41, 100
5, 12480, Note_on_c, 9, 41, 0
5, 12480, Note_on_c, 9, 54, 0
5, 12480, Note_on_c, 9, 54, 100
5, 12480, Note_on_c, 9, 36, 100
5, 12540, Note_on_c, 9, 36, 0
5, 12540, Note_on_c, 9, 54, 0
5, 12540, Note_on_c, 9, 54, 100
5, 12600, Note_on_c, 9, 54, 0
5, 12600, Note_on_c, 9, 54, 100
5, 12600, Note_on_c, 9, 38, 100
5, 12660, Note_on_c, 9, 38, 0
5, 12660, Note_on_c, 9, 54, 0
5, 12660, Note_on_c, 9, 54, 100
5, 12720, Note_on_c, 9, 54, 0
5, 12720, Note_on_c, 9, 54, 100
5, 12780, Note_on_c, 9, 54, 0
5, 12780, Note_on_c, 9, 54, 100
5, 12780, Note_on_c, 9, 36, 100
5, 12840, Note_on_c, 9, 36, 0
5, 12840, Note_on_c, 9, 54, 0
5, 12840, Note_on_c, 9, 54, 100
5, 12900, Note_on_c, 9, 54, 0
5, 12900, Note_on_c, 9, 54, 100
5, 12900, Note_on_c, 9, 38, 100
5, 12960, Note_on_c, 9, 38, 0
5, 12960, Note_on_c, 9, 54, 0
5, 12960, Note_on_c, 9, 54, 100
5, 12960, Note_on_c, 9, 36, 100
5, 13020, Note_on_c, 9, 36, 0
5, 13020, Note_on_c, 9, 54, 0
5, 13020, Note_on_c, 9, 54, 100
5, 13080, Note_on_c, 9, 54, 0
5, 13080, Note_on_c, 9, 54, 100
5, 13080, Note_on_c, 9, 38, 100
5, 13140, Note_on_c, 9, 38, 0
5, 13140, Note_on_c, 9, 54, 0
5, 13140, Note_on_c, 9, 54, 100
5, 13200, Note_on_c, 9, 54, 0
5, 13200, Note_on_c, 9, 54, 100
5, 13260, Note_on_c, 9, 54, 0
5, 13260, Note_on_c, 9, 54, 100
5, 13320, Note_on_c, 9, 54, 0
5, 13320, Note_on_c, 9, 54, 100
5, 13320, Note_on_c, 9, 43, 100
5, 13380, Note_on_c, 9, 43, 0
5, 13380, Note_on_c, 9, 54, 0
5, 13380, Note_on_c, 9, 54, 100
5, 13380, Note_on_c, 9, 41, 100
5, 13440, Note_on_c, 9, 41, 0
5, 13440, Note_on_c, 9, 54, 0
5, 13440, Note_on_c, 9, 54, 100
5, 13440, Note_on_c, 9, 36, 100
5, 13500, Note_on_c, 9, 36, 0
5, 13500, Note_on_c, 9, 54, 0
5, 13500, Note_on_c, 9, 54, 100
5, 13560, Note_on_c, 9, 54, 0
5, 13560, Note_on_c, 9, 54, 100
5, 13560, Note_on_c, 9, 38, 100
5, 13620, Note_on_c, 9, 38, 0
5, 13620, Note_on_c, 9, 54, 0
5, 13620, Note_on_c, 9, 54, 100
5, 13680, Note_on_c, 9, 54, 0
5, 13680, Note_on_c, 9, 54, 100
5, 13740, Note_on_c, 9, 54, 0
5, 13740, Note_on_c, 9, 54, 100
5, 13740, Note_on_c, 9, 36, 100
5, 13800, Note_on_c, 9, 36, 0
5, 13800, Note_on_c, 9, 54, 0
5, 13800, Note_on_c, 9, 54, 100
5, 13860, Note_on_c, 9, 54, 0
5, 13860, Note_on_c, 9, 54, 100
5, 13860, Note_on_c, 9, 38, 100
5, 13920, Note_on_c, 9, 38, 0
5, 13920, Note_on_c, 9, 54, 0
5, 13920, Note_on_c, 9, 36, 100
5, 13920, Note_on_c, 9, 59, 100
5, 13980, Note_on_c, 9, 59, 0
5, 13980, Note_on_c, 9, 36, 0
5, 13980, Note_on_c, 9, 59, 100
5, 14040, Note_on_c, 9, 59, 0
5, 14040, Note_on_c, 9, 38, 100
5, 14040, Note_on_c, 9, 59, 100
5, 14100, Note_on_c, 9, 59, 0
5, 14100, Note_on_c, 9, 38, 0
5, 14100, Note_on_c, 9, 59, 100
5, 14160, Note_on_c, 9, 59, 0
5, 14160, Note_on_c, 9, 59, 100
5, 14220, Note_on_c, 9, 59, 0
5, 14220, Note_on_c, 9, 59, 100
5, 14280, Note_on_c, 9, 59, 0
5, 14280, Note_on_c, 9, 43, 100
5, 14280, Note_on_c, 9, 59, 100
5, 14340, Note_on_c, 9, 59, 0
5, 14340, Note_on_c, 9, 43, 0
5, 14340, Note_on_c, 9, 41, 100
5, 14340, Note_on_c, 9, 59, 100
5, 14400, Note_on_c, 9, 59, 0
5, 14400, Note_on_c, 9, 41, 0
5, 14400, Note_on_c, 9, 36, 100
5, 14400, Note_on_c, 9, 59, 100
5, 14460, Note_on_c, 9, 59, 0
5, 14460, Note_on_c, 9, 36, 0
5, 14460, Note_on_c, 9, 59, 100
5, 14520, Note_on_c, 9, 59, 0
5, 14520, Note_on_c, 9, 38, 100
5, 14520, Note_on_c, 9, 59, 100
5, 14580, Note_on_c, 9, 59, 0
5, 14580, Note_on_c, 9, 38, 0
5, 14580, Note_on_c, 9, 59, 100
5, 14640, Note_on_c, 9, 59, 0
5, 14640, Note_on_c, 9, 59, 100
5, 14700, Note_on_c, 9, 59, 0
5, 14700, Note_on_c, 9, 36, 100
5, 14700, Note_on_c, 9, 59, 100
5, 14760, Note_on_c, 9, 59, 0
5, 14760, Note_on_c, 9, 36, 0
5, 14760, Note_on_c, 9, 59, 100
5, 14820, Note_on_c, 9, 59, 0
5, 14820, Note_on_c, 9, 38, 100
5, 14820, Note_on_c, 9, 59, 100
5, 14880, Note_on_c, 9, 59, 0
5, 14880, Note_on_c, 9, 38, 0
5, 14880, Note_on_c, 9, 36, 100
5, 14880, Note_on_c, 9, 59, 100
5, 14940, Note_on_c, 9, 59, 0
5, 14940, Note_on_c, 9, 36, 0
5, 14940, Note_on_c, 9, 59, 100
5, 15000, Note_on_c, 9, 59, 0
5, 15000, Note_on_c, 9, 38, 100
5, 15000, Note_on_c, 9, 59, 100
5, 15060, Note_on_c, 9, 59, 100
5, 15120, Note_on_c, 9, 59, 0
5, 15120, Note_on_c, 9, 38, 0
5, 15120, Note_on_c, 9, 59, 100
5, 15180, Note_on_c, 9, 59, 100
5, 15240, Note_on_c, 9, 59, 0
5, 15240, Note_on_c, 9, 59, 0
5, 15240, Note_on_c, 9, 43, 100
5, 15240, Note_on_c, 9, 59, 100
5, 15300, Note_on_c, 9, 43, 0
5, 15300, Note_on_c, 9, 59, 0
5, 15300, Note_on_c, 9, 41, 100
5, 15300, Note_on_c, 9, 59, 100
5, 15360, Note_on_c, 9, 41, 0
5, 15360, Note_on_c, 9, 59, 0
5, 15360, Note_on_c, 9, 36, 100
5, 15360, Note_on_c, 9, 59, 100
5, 15420, Note_on_c, 9, 36, 0
5, 15420, Note_on_c, 9, 59, 0
5, 15420, Note_on_c, 9, 59, 100
5, 15480, Note_on_c, 9, 59, 0
5, 15480, Note_on_c, 9, 38, 100
5, 15480, Note_on_c, 9, 59, 100
5, 15540, Note_on_c, 9, 59, 0
5, 15540, Note_on_c, 9, 38, 0
5, 15540, Note_on_c, 9, 59, 0
5, 15540, Note_on_c, 9, 59, 100
5, 15600, Note_on_c, 9, 59, 0
5, 15600, Note_on_c, 9, 59, 100
5, 15660, Note_on_c, 9, 59, 0
5, 15660, Note_on_c, 9, 36, 100
5, 15660, Note_on_c, 9, 59, 100
5, 15720, Note_on_c, 9, 59, 0
5, 15720, Note_on_c, 9, 36, 0
5, 15720, Note_on_c, 9, 59, 100
5, 15780, Note_on_c, 9, 59, 0
5, 15780, Note_on_c, 9, 38, 100
5, 15780, Note_on_c, 9, 59, 100
5, 15840, Note_on_c, 9, 59, 0
5, 15840, Note_on_c, 9, 38, 0
5, 15840, Note_on_c, 9, 36, 100
5, 15840, Note_on_c, 9, 59, 100
5, 15900, Note_on_c, 9, 59, 0
5, 15900, Note_on_c, 9, 36, 0
5, 15900, Note_on_c, 9, 59, 100
5, 15960, Note_on_c, 9, 59, 0
5, 15960, Note_on_c, 9, 38, 100
5, 15960, Note_on_c, 9, 59, 100
5, 16020, Note_on_c, 9, 59, 0
5, 16020, Note_on_c, 9, 38, 0
5, 16020, Note_on_c, 9, 59, 100
5, 16080, Note_on_c, 9, 59, 0
5, 16080, Note_on_c, 9, 59, 100
5, 16140, Note_on_c, 9, 59, 0
5, 16140, Note_on_c, 9, 59, 100
5, 16200, Note_on_c, 9, 59, 0
5, 16200, Note_on_c, 9, 43, 100
5, 16200, Note_on_c, 9, 59, 100
5, 16260, Note_on_c, 9, 59, 0
5, 16260, Note_on_c, 9, 43, 0
5, 16260, Note_on_c, 9, 41, 100
5, 16260, Note_on_c, 9, 59, 100
5, 16320, Note_on_c, 9, 59, 0
5, 16320, Note_on_c, 9, 41, 0
5, 16320, Note_on_c, 9, 36, 100
5, 16320, Note_on_c, 9, 59, 100
5, 16380, Note_on_c, 9, 59, 0
5, 16380, Note_on_c, 9, 36, 0
5, 16380, Note_on_c, 9, 59, 100
5, 16440, Note_on_c, 9, 59, 0
5, 16440, Note_on_c, 9, 38, 100
5, 16440, Note_on_c, 9, 59, 100
5, 16500, Note_on_c, 9, 59, 0
5, 16500, Note_on_c, 9, 38, 0
5, 16500, Note_on_c, 9, 59, 100
5, 16560, Note_on_c, 9, 59, 0
5, 16560, Note_on_c, 9, 59, 100
5, 16620, Note_on_c, 9, 59, 0
5, 16620, Note_on_c, 9, 36, 100
5, 16620, Note_on_c, 9, 59, 100
5, 16680, Note_on_c, 9, 59, 0
5, 16680, Note_on_c, 9, 36, 0
5, 16680, Note_on_c, 9, 59, 100
5, 16740, Note_on_c, 9, 59, 0
5, 16740, Note_on_c, 9, 38, 100
5, 16740, Note_on_c, 9, 59, 100
5, 16800, Note_on_c, 9, 59, 0
5, 16800, Note_on_c, 9, 38, 0
5, 16800, Note_on_c, 9, 36, 100
5, 16800, Note_on_c, 9, 59, 100
5, 16860, Note_on_c, 9, 59, 0
5, 16860, Note_on_c, 9, 36, 0
5, 16860, Note_on_c, 9, 59, 100
5, 16920, Note_on_c, 9, 59, 0
5, 16920, Note_on_c, 9, 38, 100
5, 16920, Note_on_c, 9, 59, 100
5, 16980, Note_on_c, 9, 59, 0
5, 16980, Note_on_c, 9, 38, 0
5, 16980, Note_on_c, 9, 59, 100
5, 17040, Note_on_c, 9, 59, 0
5, 17040, Note_on_c, 9, 59, 100
5, 17100, Note_on_c, 9, 59, 0
5, 17100, Note_on_c, 9, 59, 100
5, 17160, Note_on_c, 9, 59, 0
5, 17160, Note_on_c, 9, 43, 100
5, 17160, Note_on_c, 9, 59, 100
5, 17220, Note_on_c, 9, 59, 0
5, 17220, Note_on_c, 9, 43, 0
5, 17220, Note_on_c, 9, 41, 100
5, 17220, Note_on_c, 9, 59, 100
5, 17280, Note_on_c, 9, 59, 0
5, 17280, Note_on_c, 9, 41, 0
5, 17280, Note_on_c, 9, 36, 100
5, 17280, Note_on_c, 9, 59, 100
5, 17340, Note_on_c, 9, 59, 0
5, 17340, Note_on_c, 9, 36, 0
5, 17340, Note_on_c, 9, 59, 100
5, 17400, Note_on_c, 9, 59, 0
5, 17400, Note_on_c, 9, 38, 100
5, 17400, Note_on_c, 9, 59, 100
5, 17460, Note_on_c, 9, 59, 0
5, 17460, Note_on_c, 9, 38, 0
5, 17460, Note_on_c, 9, 59, 100
5, 17520, Note_on_c, 9, 59, 0
5, 17520, Note_on_c, 9, 59, 100
5, 17580, Note_on_c, 9, 59, 0
5, 17580, Note_on_c, 9, 36, 100
5, 17580, Note_on_c, 9, 59, 100
5, 17640, Note_on_c, 9, 59, 0
5, 17640, Note_on_c, 9, 36, 0
5, 17640, Note_on_c, 9, 59, 100
5, 17700, Note_on_c, 9, 59, 0
5, 17700, Note_on_c, 9, 38, 100
5, 17700, Note_on_c, 9, 59, 100
5, 17760, Note_on_c, 9, 59, 0
5, 17760, Note_on_c, 9, 38, 0
5, 17760, Note_on_c, 9, 36, 100
5, 17760, Note_on_c, 9, 59, 100
5, 17820, Note_on_c, 9, 59, 0
5, 17820, Note_on_c, 9, 36, 0
5, 17820, Note_on_c, 9, 59, 100
5, 17880, Note_on_c, 9, 59, 0
5, 17880, Note_on_c, 9, 38, 100
5, 17880, Note_on_c, 9, 59, 100
5, 17940, Note_on_c, 9, 59, 0
5, 17940, Note_on_c, 9, 38, 0
5, 17940, Note_on_c, 9, 59, 100
5, 18000, Note_on_c, 9, 59, 0
5, 18000, Note_on_c, 9, 59, 100
5, 18060, Note_on_c, 9, 59, 0
5, 18060, Note_on_c, 9, 59, 100
5, 18120, Note_on_c, 9, 59, 0
5, 18120, Note_on_c, 9, 43, 100
5, 18120, Note_on_c, 9, 59, 100
5, 18180, Note_on_c, 9, 59, 0
5, 18180, Note_on_c, 9, 43, 0
5, 18180, Note_on_c, 9, 41, 100
5, 18180, Note_on_c, 9, 59, 100
5, 18240, Note_on_c, 9, 59, 0
5, 18240, Note_on_c, 9, 41, 0
5, 18240, Note_on_c, 9, 36, 100
5, 18240, Note_on_c, 9, 59, 100
5, 18300, Note_on_c, 9, 59, 0
5, 18300, Note_on_c, 9, 36, 0
5, 18300, Note_on_c, 9, 59, 100
5, 18360, Note_on_c, 9, 59, 0
5, 18360, Note_on_c, 9, 38, 100
5, 18360, Note_on_c, 9, 59, 100
5, 18420, Note_on_c, 9, 59, 0
5, 18420, Note_on_c, 9, 38, 0
5, 18420, Note_on_c, 9, 59, 100
5, 18480, Note_on_c, 9, 59, 0
5, 18480, Note_on_c, 9, 59, 100
5, 18540, Note_on_c, 9, 59, 0
5, 18540, Note_on_c, 9, 36, 100
5, 18540, Note_on_c, 9, 59, 100
5, 18600, Note_on_c, 9, 59, 0
5, 18600, Note_on_c, 9, 36, 0
5, 18600, Note_on_c, 9, 59, 100
5, 18660, Note_on_c, 9, 59, 0
5, 18660, Note_on_c, 9, 38, 100
5, 18660, Note_on_c, 9, 59, 100
5, 18720, Note_on_c, 9, 59, 0
5, 18720, Note_on_c, 9, 38, 0
5, 18720, Note_on_c, 9, 36, 100
5, 18720, Note_on_c, 9, 59, 100
5, 18780, Note_on_c, 9, 59, 0
5, 18780, Note_on_c, 9, 36, 0
5, 18780, Note_on_c, 9, 59, 100
5, 18840, Note_on_c, 9, 59, 0
5, 18840, Note_on_c, 9, 38, 100
5, 18840, Note_on_c, 9, 59, 100
5, 18900, Note_on_c, 9, 59, 0
5, 18900, Note_on_c, 9, 38, 0
5, 18900, Note_on_c, 9, 59, 100
5, 18960, Note_on_c, 9, 59, 0
5, 18960, Note_on_c, 9, 59, 100
5, 19020, Note_on_c, 9, 59, 0
5, 19020, Note_on_c, 9, 59, 100
5, 19080, Note_on_c, 9, 59, 0
5, 19080, Note_on_c, 9, 43, 100
5, 19080, Note_on_c, 9, 59, 100
5, 19140, Note_on_c, 9, 59, 0
5, 19140, Note_on_c, 9, 43, 0
5, 19140, Note_on_c, 9, 41, 100
5, 19140, Note_on_c, 9, 59, 100
5, 19200, Note_on_c, 9, 59, 0
5, 19200, Note_on_c, 9, 41, 0
5, 19200, Note_on_c, 9, 36, 100
5, 19200, Note_on_c, 9, 59, 100
5, 19260, Note_on_c, 9, 59, 0
5, 19260, Note_on_c, 9, 36, 0
5, 19260, Note_on_c, 9, 59, 100
5, 19320, Note_on_c, 9, 59, 0
5, 19320, Note_on_c, 9, 38, 100
5, 19320, Note_on_c, 9, 59, 100
5, 19380, Note_on_c, 9, 59, 0
5, 19380, Note_on_c, 9, 38, 0
5, 19380, Note_on_c, 9, 59, 100
5, 19440, Note_on_c, 9, 59, 0
5, 19440, Note_on_c, 9, 59, 100
5, 19500, Note_on_c, 9, 59, 0
5, 19500, Note_on_c, 9, 36, 100
5, 19500, Note_on_c, 9, 59, 100
5, 19560, Note_on_c, 9, 59, 0
5, 19560, Note_on_c, 9, 36, 0
5, 19560, Note_on_c, 9, 59, 100
5, 19620, Note_on_c, 9, 59, 0
5, 19620, Note_on_c, 9, 38, 100
5, 19620, Note_on_c, 9, 59, 100
5, 19680, Note_on_c, 9, 59, 0
5, 19680, Note_on_c, 9, 38, 0
5, 19680, Note_on_c, 9, 36, 100
5, 19680, Note_on_c, 9, 59, 100
5, 19740, Note_on_c, 9, 59, 0
5, 19740, Note_on_c, 9, 36, 0
5, 19740, Note_on_c, 9, 59, 100
5, 19800, Note_on_c, 9, 59, 0
5, 19800, Note_on_c, 9, 38, 100
5, 19800, Note_on_c, 9, 59, 100
5, 19860, Note_on_c, 9, 59, 0
5, 19860, Note_on_c, 9, 38, 0
5, 19860, Note_on_c, 9, 59, 100
5, 19920, Note_on_c, 9, 59, 0
5, 19920, Note_on_c, 9, 59, 100
5, 19980, Note_on_c, 9, 59, 0
5, 19980, Note_on_c, 9, 59, 100
5, 20040, Note_on_c, 9, 59, 0
5, 20040, Note_on_c, 9, 43, 100
5, 20040, Note_on_c, 9, 59, 100
5, 20100, Note_on_c, 9, 59, 0
5, 20100, Note_on_c, 9, 43, 0
5, 20100, Note_on_c, 9, 41, 100
5, 20100, Note_on_c, 9, 59, 100
5, 20160, Note_on_c, 9, 59, 0
5, 20160, Note_on_c, 9, 41, 0
5, 20160, Note_on_c, 9, 36, 100
5, 20160, Note_on_c, 9, 59, 100
5, 20220, Note_on_c, 9, 59, 0
5, 20220, Note_on_c, 9, 36, 0
5, 20220, Note_on_c, 9, 59, 100
5, 20280, Note_on_c, 9, 59, 0
5, 20280, Note_on_c, 9, 38, 100
5, 20280, Note_on_c, 9, 59, 100
5, 20340, Note_on_c, 9, 59, 0
5, 20340, Note_on_c, 9, 38, 0
5, 20340, Note_on_c, 9, 59, 100
5, 20400, Note_on_c, 9, 59, 0
5, 20400, Note_on_c, 9, 59, 100
5, 20460, Note_on_c, 9, 59, 0
5, 20460, Note_on_c, 9, 36, 100
5, 20460, Note_on_c, 9, 59, 100
5, 20520, Note_on_c, 9, 59, 0
5, 20520, Note_on_c, 9, 36, 0
5, 20520, Note_on_c, 9, 59, 100
5, 20580, Note_on_c, 9, 59, 0
5, 20580, Note_on_c, 9, 38, 100
5, 20580, Note_on_c, 9, 59, 100
5, 20640, Note_on_c, 9, 59, 0
5, 20640, Note_on_c, 9, 38, 0
5, 20640, Note_on_c, 9, 36, 100
5, 20640, Note_on_c, 9, 59, 100
5, 20700, Note_on_c, 9, 59, 0
5, 20700, Note_on_c, 9, 36, 0
5, 20700, Note_on_c, 9, 59, 100
5, 20760, Note_on_c, 9, 59, 0
5, 20760, Note_on_c, 9, 38, 100
5, 20760, Note_on_c, 9, 59, 100
5, 20820, Note_on_c, 9, 59, 0
5, 20820, Note_on_c, 9, 38, 0
5, 20820, Note_on_c, 9, 59, 100
5, 20880, Note_on_c, 9, 59, 0
5, 20880, Note_on_c, 9, 59, 100
5, 20940, Note_on_c, 9, 59, 0
5, 20940, Note_on_c, 9, 59, 100
5, 21000, Note_on_c, 9, 59, 0
5, 21000, Note_on_c, 9, 43, 100
5, 21000, Note_on_c, 9, 59, 100
5, 21060, Note_on_c, 9, 59, 0
5, 21060, Note_on_c, 9, 43, 0
5, 21060, Note_on_c, 9, 41, 100
5, 21060, Note_on_c, 9, 59, 100
5, 21120, Note_on_c, 9, 59, 0
5, 21120, Note_on_c, 9, 41, 0
5, 21120, Note_on_c, 9, 36, 100
5, 21120, Note_on_c, 9, 59, 100
5, 21180, Note_on_c, 9, 59, 0
5, 21180, Note_on_c, 9, 36, 0
5, 21180, Note_on_c, 9, 59, 100
5, 21240, Note_on_c, 9, 59, 0
5, 21240, Note_on_c, 9, 38, 100
5, 21240, Note_on_c, 9, 59, 100
5, 21300, Note_on_c, 9, 59, 0
5, 21300, Note_on_c, 9, 38, 0
5, 21300, Note_on_c, 9, 59, 100
5, 21360, Note_on_c, 9, 59, 0
5, 21360, Note_on_c, 9, 59, 100
5, 21420, Note_on_c, 9, 59, 0
5, 21420, Note_on_c, 9, 36, 100
5, 21420, Note_on_c, 9, 59, 100
5, 21480, Note_on_c, 9, 59, 0
5, 21480, Note_on_c, 9, 36, 0
5, 21480, Note_on_c, 9, 59, 100
5, 21540, Note_on_c, 9, 59, 0
5, 21540, Note_on_c, 9, 38, 100
5, 21540, Note_on_c, 9, 59, 100
5, 21600, Note_on_c, 9, 59, 0
5, 21600, Note_on_c, 9, 38, 0
5, 21600, Note_on_c, 9, 36, 100
5, 21600, Note_on_c, 9, 59, 100
5, 21660, Note_on_c, 9, 59, 0
5, 21660, Note_on_c, 9, 36, 0
5, 21660, Note_on_c, 9, 59, 100
5, 21720, Note_on_c, 9, 59, 0
5, 21720, Note_on_c, 9, 38, 100
5, 21720, Note_on_c, 9, 59, 100
5, 21780, Note_on_c, 9, 59, 0
5, 21780, Note_on_c, 9, 38, 0
5, 21780, Note_on_c, 9, 59, 100
5, 21840, Note_on_c, 9, 59, 0
5, 21840, Note_on_c, 9, 59, 100
5, 21900, Note_on_c, 9, 59, 0
5, 21900, Note_on_c, 9, 59, 100
5, 21960, Note_on_c, 9, 59, 0
5, 21960, Note_on_c, 9, 43, 100
5, 21960, Note_on_c, 9, 59, 100
5, 22020, Note_on_c, 9, 59, 0
5, 22020, Note_on_c, 9, 43, 0
5, 22020, Note_on_c, 9, 41, 100
5, 22020, Note_on_c, 9, 59, 100
5, 22080, Note_on_c, 9, 59, 0
5, 22080, Note_on_c, 9, 41, 0
5, 22080, Note_on_c, 9, 36, 100
5, 22080, Note_on_c, 9, 59, 100
5, 22140, Note_on_c, 9, 59, 0
5, 22140, Note_on_c, 9, 36, 0
5, 22140, Note_on_c, 9, 59, 100
5, 22200, Note_on_c, 9, 59, 0
5, 22200, Note_on_c, 9, 38, 100
5, 22200, Note_on_c, 9, 59, 100
5, 22260, Note_on_c, 9, 59, 0
5, 22260, Note_on_c, 9, 38, 0
5, 22260, Note_on_c, 9, 59, 100
5, 22320, Note_on_c, 9, 59, 0
5, 22320, Note_on_c, 9, 59, 100
5, 22380, Note_on_c, 9, 59, 0
5, 22380, Note_on_c, 9, 36, 100
5, 22380, Note_on_c, 9, 59, 100
5, 22440, Note_on_c, 9, 59, 0
5, 22440, Note_on_c, 9, 36, 0
5, 22440, Note_on_c, 9, 59, 100
5, 22500, Note_on_c, 9, 59, 0
5, 22500, Note_on_c, 9, 38, 100
5, 22500, Note_on_c, 9, 59, 100
5, 22560, Note_on_c, 9, 59, 0
5, 22560, Note_on_c, 9, 38, 0
5, 22560, Note_on_c, 9, 36, 100
5, 22560, Note_on_c, 9, 59, 100
5, 22620, Note_on_c, 9, 59, 0
5, 22620, Note_on_c, 9, 36, 0
5, 22620, Note_on_c, 9, 59, 100
5, 22680, Note_on_c, 9, 59, 0
5, 22680, Note_on_c, 9, 38, 100
5, 22680, Note_on_c, 9, 59, 100
5, 22740, Note_on_c, 9, 59, 0
5, 22740, Note_on_c, 9, 38, 0
5, 22740, Note_on_c, 9, 59, 100
5, 22800, Note_on_c, 9, 59, 0
5, 22800, Note_on_c, 9, 59, 100
5, 22860, Note_on_c, 9, 59, 0
5, 22860, Note_on_c, 9, 59, 100
5, 22920, Note_on_c, 9, 59, 0
5, 22920, Note_on_c, 9, 43, 100
5, 22920, Note_on_c, 9, 59, 100
5, 22980, Note_on_c, 9, 59, 0
5, 22980, Note_on_c, 9, 43, 0
5, 22980, Note_on_c, 9, 41, 100
5, 22980, Note_on_c, 9, 59, 100
5, 23040, Note_on_c, 9, 59, 0
5, 23040, Note_on_c, 9, 41, 0
5, 23040, Note_on_c, 9, 36, 100
5, 23040, Note_on_c, 9, 59, 100
5, 23100, Note_on_c, 9, 59, 0
5, 23100, Note_on_c, 9, 36, 0
5, 23100, Note_on_c, 9, 59, 100
5, 23160, Note_on_c, 9, 59, 0
5, 23160, Note_on_c, 9, 38, 100
5, 23160, Note_on_c, 9, 59, 100
5, 23220, Note_on_c, 9, 59, 0
5, 23220, Note_on_c, 9, 38, 0
5, 23220, Note_on_c, 9, 59, 100
5, 23280, Note_on_c, 9, 59, 0
5, 23280, Note_on_c, 9, 59, 100
5, 23340, Note_on_c, 9, 59, 0
5, 23340, Note_on_c, 9, 36, 100
5, 23340, Note_on_c, 9, 59, 100
5, 23400, Note_on_c, 9, 59, 0
5, 23400, Note_on_c, 9, 36, 0
5, 23400, Note_on_c, 9, 59, 100
5, 23460, Note_on_c, 9, 59, 0
5, 23460, Note_on_c, 9, 38, 100
5, 23460, Note_on_c, 9, 59, 100
5, 23520, Note_on_c, 9, 59, 0
5, 23520, Note_on_c, 9, 38, 0
5, 23520, Note_on_c, 9, 36, 100
5, 23520, Note_on_c, 9, 59, 100
5, 23580, Note_on_c, 9, 59, 0
5, 23580, Note_on_c, 9, 36, 0
5, 23580, Note_on_c, 9, 59, 100
5, 23640, Note_on_c, 9, 59, 0
5, 23640, Note_on_c, 9, 38, 100
5, 23640, Note_on_c, 9, 59, 100
5, 23700, Note_on_c, 9, 59, 0
5, 23700, Note_on_c, 9, 38, 0
5, 23700, Note_on_c, 9, 59, 100
5, 23760, Note_on_c, 9, 59, 0
5, 23760, Note_on_c, 9, 59, 100
5, 23820, Note_on_c, 9, 59, 0
5, 23820, Note_on_c, 9, 59, 100
5, 23880, Note_on_c, 9, 59, 0
5, 23880, Note_on_c, 9, 43, 100
5, 23880, Note_on_c, 9, 59, 100
5, 23940, Note_on_c, 9, 59, 0
5, 23940, Note_on_c, 9, 43, 0
5, 23940, Note_on_c, 9, 41, 100
5, 23940, Note_on_c, 9, 59, 100
5, 24000, Note_on_c, 9, 59, 0
5, 24000, Note_on_c, 9, 41, 0
5, 24000, Note_on_c, 9, 36, 100
5, 24000, Note_on_c, 9, 59, 100
5, 24060, Note_on_c, 9, 59, 0
5, 24060, Note_on_c, 9, 36, 0
5, 24060, Note_on_c, 9, 59, 100
5, 24120, Note_on_c, 9, 59, 0
5, 24120, Note_on_c, 9, 38, 100
5, 24120, Note_on_c, 9, 59, 100
5, 24180, Note_on_c, 9, 59, 0
5, 24180, Note_on_c, 9, 38, 0
5, 24180, Note_on_c, 9, 59, 100
5, 24240, Note_on_c, 9, 59, 0
5, 24240, Note_on_c, 9, 59, 100
5, 24300, Note_on_c, 9, 59, 0
5, 24300, Note_on_c, 9, 36, 100
5, 24300, Note_on_c, 9, 59, 100
5, 24360, Note_on_c, 9, 59, 0
5, 24360, Note_on_c, 9, 36, 0
5, 24360, Note_on_c, 9, 59, 100
5, 24420, Note_on_c, 9, 59, 0
5, 24420, Note_on_c, 9, 38, 100
5, 24420, Note_on_c, 9, 59, 100
5, 24480, Note_on_c, 9, 59, 0
5, 24480, Note_on_c, 9, 38, 0
5, 24480, Note_on_c, 9, 36, 100
5, 24480, Note_on_c, 9, 59, 100
5, 24540, Note_on_c, 9, 59, 0
5, 24540, Note_on_c, 9, 36, 0
5, 24540, Note_on_c, 9, 59, 100
5, 24600, Note_on_c, 9, 59, 0
5, 24600, Note_on_c, 9, 38, 100
5, 24600, Note_on_c, 9, 59, 100
5, 24660, Note_on_c, 9, 59, 0
5, 24660, Note_on_c, 9, 38, 0
5, 24660, Note_on_c, 9, 59, 100
5, 24720, Note_on_c, 9, 59, 0
5, 24720, Note_on_c, 9, 59, 100
5, 24780, Note_on_c, 9, 59, 0
5, 24780, Note_on_c, 9, 59, 100
5, 24840, Note_on_c, 9, 59, 0
5, 24840, Note_on_c, 9, 43, 100
5, 24840, Note_on_c, 9, 59, 100
5, 24900, Note_on_c, 9, 59, 0
5, 24900, Note_on_c, 9, 43, 0
5, 24900, Note_on_c, 9, 41, 100
5, 24900, Note_on_c, 9, 59, 100
5, 24960, Note_on_c, 9, 59, 0
5, 24960, Note_on_c, 9, 41, 0
5, 24960, Note_on_c, 9, 36, 100
5, 24960, Note_on_c, 9, 59, 100
5, 25020, Note_on_c, 9, 59, 0
5, 25020, Note_on_c, 9, 36, 0
5, 25020, Note_on_c, 9, 59, 100
5, 25080, Note_on_c, 9, 59, 0
5, 25080, Note_on_c, 9, 38, 100
5, 25080, Note_on_c, 9, 59, 100
5, 25140, Note_on_c, 9, 59, 0
5, 25140, Note_on_c, 9, 38, 0
5, 25140, Note_on_c, 9, 59, 100
5, 25200, Note_on_c, 9, 59, 0
5, 25200, Note_on_c, 9, 59, 100
5, 25260, Note_on_c, 9, 59, 0
5, 25260, Note_on_c, 9, 36, 100
5, 25260, Note_on_c, 9, 59, 100
5, 25320, Note_on_c, 9, 59, 0
5, 25320, Note_on_c, 9, 36, 0
5, 25320, Note_on_c, 9, 59, 100
5, 25380, Note_on_c, 9, 59, 0
5, 25380, Note_on_c, 9, 38, 100
5, 25380, Note_on_c, 9, 59, 100
5, 25440, Note_on_c, 9, 59, 0
5, 25440, Note_on_c, 9, 38, 0
5, 25440, Note_on_c, 9, 36, 100
5, 25440, Note_on_c, 9, 59, 100
5, 25500, Note_on_c, 9, 59, 0
5, 25500, Note_on_c, 9, 36, 0
5, 25500, Note_on_c, 9, 59, 100
5, 25560, Note_on_c, 9, 59, 0
5, 25560, Note_on_c, 9, 38, 100
5, 25560, Note_on_c, 9, 59, 100
5, 25620, Note_on_c, 9, 59, 0
5, 25620, Note_on_c, 9, 38, 0
5, 25620, Note_on_c, 9, 59, 100
5, 25680, Note_on_c, 9, 59, 0
5, 25680, Note_on_c, 9, 59, 100
5, 25740, Note_on_c, 9, 59, 0
5, 25740, Note_on_c, 9, 59, 100
5, 25800, Note_on_c, 9, 59, 0
5, 25800, Note_on_c, 9, 43, 100
5, 25800, Note_on_c, 9, 59, 100
5, 25860, Note_on_c, 9, 59, 0
5, 25860, Note_on_c, 9, 43, 0
5, 25860, Note_on_c, 9, 41, 100
5, 25860, Note_on_c, 9, 59, 100
5, 25920, Note_on_c, 9, 59, 0
5, 25920, Note_on_c, 9, 41, 0
5, 25920, Note_on_c, 9, 36, 100
5, 25920, Note_on_c, 9, 59, 100
5, 25980, Note_on_c, 9, 59, 0
5, 25980, Note_on_c, 9, 36, 0
5, 25980, Note_on_c, 9, 59, 100
5, 26040, Note_on_c, 9, 59, 0
5, 26040, Note_on_c, 9, 38, 100
5, 26040, Note_on_c, 9, 59, 100
5, 26100, Note_on_c, 9, 59, 0
5, 26100, Note_on_c, 9, 38, 0
5, 26100, Note_on_c, 9, 59, 100
5, 26160, Note_on_c, 9, 59, 0
5, 26160, Note_on_c, 9, 59, 100
5, 26220, Note_on_c, 9, 59, 0
5, 26220, Note_on_c, 9, 36, 100
5, 26220, Note_on_c, 9, 59, 100
5, 26280, Note_on_c, 9, 59, 0
5, 26280, Note_on_c, 9, 36, 0
5, 26280, Note_on_c, 9, 59, 100
5, 26340, Note_on_c, 9, 59, 0
5, 26340, Note_on_c, 9, 38, 100
5, 26340, Note_on_c, 9, 59, 100
5, 26400, Note_on_c, 9, 59, 0
5, 26400, Note_on_c, 9, 38, 0
5, 26400, Note_on_c, 9, 36, 100
5, 26400, Note_on_c, 9, 59, 100
5, 26460, Note_on_c, 9, 59, 0
5, 26460, Note_on_c, 9, 36, 0
5, 26460, Note_on_c, 9, 59, 100
5, 26520, Note_on_c, 9, 59, 0
5, 26520, Note_on_c, 9, 38, 100
5, 26520, Note_on_c, 9, 59, 100
5, 26580, Note_on_c, 9, 59, 0
5, 26580, Note_on_c, 9, 38, 0
5, 26580, Note_on_c, 9, 59, 100
5, 26640, Note_on_c, 9, 59, 0
5, 26640, Note_on_c, 9, 59, 100
5, 26700, Note_on_c, 9, 59, 0
5, 26700, Note_on_c, 9, 59, 100
5, 26760, Note_on_c, 9, 59, 0
5, 26760, Note_on_c, 9, 43, 100
5, 26760, Note_on_c, 9, 59, 100
5, 26820, Note_on_c, 9, 59, 0
5, 26820, Note_on_c, 9, 43, 0
5, 26820, Note_on_c, 9, 41, 100
5, 26820, Note_on_c, 9, 59, 100
5, 26880, Note_on_c, 9, 59, 0
5, 26880, Note_on_c, 9, 41, 0
5, 26880, Note_on_c, 9, 36, 100
5, 26880, Note_on_c, 9, 59, 100
5, 26940, Note_on_c, 9, 59, 0
5, 26940, Note_on_c, 9, 36, 0
5, 26940, Note_on_c, 9, 59, 100
5, 27000, Note_on_c, 9, 59, 0
5, 27000, Note_on_c, 9, 38, 100
5, 27000, Note_on_c, 9, 59, 100
5, 27060, Note_on_c, 9, 59, 0
5, 27060, Note_on_c, 9, 38, 0
5, 27060, Note_on_c, 9, 59, 100
5, 27120, Note_on_c, 9, 59, 0
5, 27120, Note_on_c, 9, 59, 100
5, 27180, Note_on_c, 9, 59, 0
5, 27180, Note_on_c, 9, 36, 100
5, 27180, Note_on_c, 9, 59, 100
5, 27240, Note_on_c, 9, 59, 0
5, 27240, Note_on_c, 9, 36, 0
5, 27240, Note_on_c, 9, 59, 100
5, 27300, Note_on_c, 9, 59, 0
5, 27300, Note_on_c, 9, 38, 100
5, 27300, Note_on_c, 9, 59, 100
5, 27360, Note_on_c, 9, 59, 0
5, 27360, Note_on_c, 9, 38, 0
5, 27360, Note_on_c, 9, 36, 100
5, 27360, Note_on_c, 9, 59, 100
5, 27420, Note_on_c, 9, 59, 0
5, 27420, Note_on_c, 9, 36, 0
5, 27420, Note_on_c, 9, 59, 100
5, 27480, Note_on_c, 9, 59, 0
5, 27480, Note_on_c, 9, 38, 100
5, 27480, Note_on_c, 9, 59, 100
5, 27540, Note_on_c, 9, 59, 0
5, 27540, Note_on_c, 9, 38, 0
5, 27540, Note_on_c, 9, 59, 100
5, 27600, Note_on_c, 9, 59, 0
5, 27600, Note_on_c, 9, 59, 100
5, 27660, Note_on_c, 9, 59, 0
5, 27660, Note_on_c, 9, 59, 100
5, 27720, Note_on_c, 9, 59, 0
5, 27720, Note_on_c, 9, 43, 100
5, 27720, Note_on_c, 9, 59, 100
5, 27780, Note_on_c, 9, 59, 0
5, 27780, Note_on_c, 9, 43, 0
5, 27780, Note_on_c, 9, 41, 100
5, 27780, Note_on_c, 9, 59, 100
5, 27840, Note_on_c, 9, 59, 0
5, 27840, Note_on_c, 9, 41, 0
5, 27840, Note_on_c, 9, 36, 100
5, 27840, Note_on_c, 9, 59, 100
5, 27900, Note_on_c, 9, 59, 0
5, 27900, Note_on_c, 9, 36, 0
5, 27900, Note_on_c, 9, 59, 100
5, 27960, Note_on_c, 9, 59, 0
5, 27960, Note_on_c, 9, 38, 100
5, 27960, Note_on_c, 9, 59, 100
5, 28020, Note_on_c, 9, 59, 0
5, 28020, Note_on_c, 9, 38, 0
5, 28020, Note_on_c, 9, 59, 100
5, 28080, Note_on_c, 9, 59, 0
5, 28080, Note_on_c, 9, 59, 100
5, 28140, Note_on_c, 9, 59, 0
5, 28140, Note_on_c, 9, 36, 100
5, 28140, Note_on_c, 9, 59, 100
5, 28200, Note_on_c, 9, 59, 0
5, 28200, Note_on_c, 9, 36, 0
5, 28200, Note_on_c, 9, 59, 100
5, 28260, Note_on_c, 9, 59, 0
5, 28260, Note_on_c, 9, 38, 100
5, 28260, Note_on_c, 9, 59, 100
5, 28320, Note_on_c, 9, 59, 0
5, 28320, Note_on_c, 9, 38, 0
5, 28320, Note_on_c, 9, 36, 100
5, 28320, Note_on_c, 9, 59, 100
5, 28380, Note_on_c, 9, 59, 0
5, 28380, Note_on_c, 9, 36, 0
5, 28380, Note_on_c, 9, 59, 100
5, 28440, Note_on_c, 9, 59, 0
5, 28440, Note_on_c, 9, 38, 100
5, 28440, Note_on_c, 9, 59, 100
5, 28500, Note_on_c, 9, 59, 0
5, 28500, Note_on_c, 9, 38, 0
5, 28500, Note_on_c, 9, 59, 100
5, 28560, Note_on_c, 9, 59, 0
5, 28560, Note_on_c, 9, 59, 100
5, 28620, Note_on_c, 9, 59, 0
5, 28620, Note_on_c, 9, 59, 100
5, 28680, Note_on_c, 9, 59, 0
5, 28680, Note_on_c, 9, 43, 100
5, 28680, Note_on_c, 9, 59, 100
5, 28740, Note_on_c, 9, 59, 0
5, 28740, Note_on_c, 9, 43, 0
5, 28740, Note_on_c, 9, 41, 100
5, 28740, Note_on_c, 9, 59, 100
5, 28800, Note_on_c, 9, 59, 0
5, 28800, Note_on_c, 9, 41, 0
5, 28800, Note_on_c, 9, 36, 100
5, 28800, Note_on_c, 9, 59, 100
5, 28860, Note_on_c, 9, 59, 0
5, 28860, Note_on_c, 9, 36, 0
5, 28860, Note_on_c, 9, 59, 100
5, 28920, Note_on_c, 9, 59, 0
5, 28920, Note_on_c, 9, 38, 100
5, 28920, Note_on_c, 9, 59, 100
5, 28980, Note_on_c, 9, 59, 0
5, 28980, Note_on_c, 9, 38, 0
5, 28980, Note_on_c, 9, 59, 100
5, 29040, Note_on_c, 9, 59, 0
5, 29040, Note_on_c, 9, 59, 100
5, 29100, Note_on_c, 9, 59, 0
5, 29100, Note_on_c, 9, 36, 100
5, 29100, Note_on_c, 9, 59, 100
5, 29160, Note_on_c, 9, 59, 0
5, 29160, Note_on_c, 9, 36, 0
5, 29160, Note_on_c, 9, 59, 100
5, 29220, Note_on_c, 9, 59, 0
5, 29220, Note_on_c, 9, 38, 100
5, 29220, Note_on_c, 9, 59, 100
5, 29280, Note_on_c, 9, 59, 0
5, 29280, Note_on_c, 9, 38, 0
5, 29280, Note_on_c, 9, 36, 100
5, 29280, Note_on_c, 9, 59, 100
5, 29340, Note_on_c, 9, 59, 0
5, 29340, Note_on_c, 9, 36, 0
5, 29340, Note_on_c, 9, 59, 100
5, 29400, Note_on_c, 9, 59, 0
5, 29400, Note_on_c, 9, 38, 100
5, 29400, Note_on_c, 9, 59, 100
5, 29460, Note_on_c, 9, 59, 0
5, 29460, Note_on_c, 9, 38, 0
5, 29460, Note_on_c, 9, 59, 100
5, 29520, Note_on_c, 9, 59, 0
5, 29520, Note_on_c, 9, 59, 100
5, 29580, Note_on_c, 9, 59, 0
5, 29580, Note_on_c, 9, 59, 100
5, 29640, Note_on_c, 9, 59, 0
5, 29640, Note_on_c, 9, 43, 100
5, 29640, Note_on_c, 9, 59, 100
5, 29700, Note_on_c, 9, 59, 0
5, 29700, Note_on_c, 9, 43, 0
5, 29700, Note_on_c, 9, 41, 100
5, 29700, Note_on_c, 9, 59, 100
5, 29760, Note_on_c, 9, 59, 0
5, 29760, Note_on_c, 9, 41, 0
5, 29760, Note_on_c, 9, 36, 100
5, 29760, Note_on_c, 9, 59, 100
5, 29820, Note_on_c, 9, 59, 0
5, 29820, Note_on_c, 9, 36, 0
5, 29820, Note_on_c, 9, 59, 100
5, 29880, Note_on_c, 9, 59, 0
5, 29880, Note_on_c, 9, 38, 100
5, 29880, Note_on_c, 9, 59, 100
5, 29940, Note_on_c, 9, 59, 0
5, 29940, Note_on_c, 9, 38, 0
5, 29940, Note_on_c, 9, 59, 100
5, 30000, Note_on_c, 9, 59, 0
5, 30000, Note_on_c, 9, 59, 100
5, 30060, Note_on_c, 9, 59, 0
5, 30060, Note_on_c, 9, 36, 100
5, 30060, Note_on_c, 9, 59, 100
5, 30120, Note_on_c, 9, 59, 0
5, 30120, Note_on_c, 9, 36, 0
5, 30120, Note_on_c, 9, 59, 100
5, 30180, Note_on_c, 9, 59, 0
5, 30180, Note_on_c, 9, 38, 100
5, 30180, Note_on_c, 9, 59, 100
5, 30240, Note_on_c, 9, 59, 0
5, 30240, Note_on_c, 9, 38, 0
5, 30240, Note_on_c, 9, 36, 100
5, 30240, Note_on_c, 9, 59, 100
5, 30300, Note_on_c, 9, 59, 0
5, 30300, Note_on_c, 9, 36, 0
5, 30300, Note_on_c, 9, 59, 100
5, 30360, Note_on_c, 9, 59, 0
5, 30360, Note_on_c, 9, 38, 100
5, 30360, Note_on_c, 9, 59, 100
5, 30420, Note_on_c, 9, 59, 0
5, 30420, Note_on_c, 9, 38, 0
5, 30420, Note_on_c, 9, 59, 100
5, 30480, Note_on_c, 9, 59, 0
5, 30480, Note_on_c, 9, 59, 100
5, 30540, Note_on_c, 9, 59, 0
5, 30540, Note_on_c, 9, 59, 100
5, 30600, Note_on_c, 9, 59, 0
5, 30600, Note_on_c, 9, 43, 100
5, 30600, Note_on_c, 9, 59, 100
5, 30660, Note_on_c, 9, 59, 0
5, 30660, Note_on_c, 9, 43, 0
5, 30660, Note_on_c, 9, 41, 100
5, 30660, Note_on_c, 9, 59, 100
5, 30720, Note_on_c, 9, 59, 0
5, 30720, Note_on_c, 9, 41, 0
5, 30720, Note_on_c, 9, 36, 100
5, 30720, Note_on_c, 9, 59, 100
5, 30780, Note_on_c, 9, 59, 0
5, 30780, Note_on_c, 9, 36, 0
5, 30780, Note_on_c, 9, 59, 100
5, 30840, Note_on_c, 9, 59, 0
5, 30840, Note_on_c, 9, 38, 100
5, 30840, Note_on_c, 9, 59, 100
5, 30900, Note_on_c, 9, 59, 0
5, 30900, Note_on_c, 9, 38, 0
5, 30900, Note_on_c, 9, 59, 100
5, 30960, Note_on_c, 9, 59, 0
5, 30960, Note_on_c, 9, 59, 100
5, 31020, Note_on_c, 9, 59, 0
5, 31020, Note_on_c, 9, 36, 100
5, 31020, Note_on_c, 9, 59, 100
5, 31080, Note_on_c, 9, 59, 0
5, 31080, Note_on_c, 9, 36, 0
5, 31080, Note_on_c, 9, 59, 100
5, 31140, Note_on_c, 9, 59, 0
5, 31140, Note_on_c, 9, 38, 100
5, 31140, Note_on_c, 9, 59, 100
5, 31200, Note_on_c, 9, 59, 0
5, 31200, Note_on_c, 9, 38, 0
5, 31200, Note_on_c, 9, 36, 100
5, 31200, Note_on_c, 9, 59, 100
5, 31260, Note_on_c, 9, 59, 0
5, 31260, Note_on_c, 9, 36, 0
5, 31260, Note_on_c, 9, 59, 100
5, 31320, Note_on_c, 9, 59, 0
5, 31320, Note_on_c, 9, 38, 100
5, 31320, Note_on_c, 9, 59, 100
5, 31380, Note_on_c, 9, 59, 0
5, 31380, Note_on_c, 9, 38, 0
5, 31380, Note_on_c, 9, 59, 100
5, 31440, Note_on_c, 9, 59, 0
5, 31440, Note_on_c, 9, 59, 100
5, 31500, Note_on_c, 9, 59, 0
5, 31500, Note_on_c, 9, 59, 100
5, 31560, Note_on_c, 9, 59, 0
5, 31560, Note_on_c, 9, 43, 100
5, 31560, Note_on_c, 9, 59, 100
5, 31620, Note_on_c, 9, 59, 0
5, 31620, Note_on_c, 9, 43, 0
5, 31620, Note_on_c, 9, 41, 100
5, 31620, Note_on_c, 9, 59, 100
5, 31680, Note_on_c, 9, 59, 0
5, 31680, Note_on_c, 9, 41, 0
5, 31680, Note_on_c, 9, 36, 100
5, 31680, Note_on_c, 9, 59, 100
5, 31740, Note_on_c, 9, 59, 0
5, 31740, Note_on_c, 9, 36, 0
5, 31740, Note_on_c, 9, 59, 100
5, 31800, Note_on_c, 9, 59, 0
5, 31800, Note_on_c, 9, 38, 100
5, 31800, Note_on_c, 9, 59, 100
5, 31860, Note_on_c, 9, 59, 0
5, 31860, Note_on_c, 9, 38, 0
5, 31860, Note_on_c, 9, 59, 100
5, 31920, Note_on_c, 9, 59, 0
5, 31920, Note_on_c, 9, 59, 100
5, 31980, Note_on_c, 9, 59, 0
5, 31980, Note_on_c, 9, 36, 100
5, 31980, Note_on_c, 9, 59, 100
5, 32040, Note_on_c, 9, 59, 0
5, 32040, Note_on_c, 9, 36, 0
5, 32040, Note_on_c, 9, 59, 100
5, 32100, Note_on_c, 9, 59, 0
5, 32100, Note_on_c, 9, 38, 100
5, 32100, Note_on_c, 9, 59, 100
5, 32160, Note_on_c, 9, 59, 0
5, 32160, Note_on_c, 9, 38, 0
5, 32160, Note_on_c, 9, 36, 100
5, 32160, Note_on_c, 9, 59, 100
5, 32220, Note_on_c, 9, 59, 0
5, 32220, Note_on_c, 9, 36, 0
5, 32220, Note_on_c, 9, 59, 100
5, 32280, Note_on_c, 9, 59, 0
5, 32280, Note_on_c, 9, 38, 100
5, 32280, Note_on_c, 9, 59, 100
5, 32340, Note_on_c, 9, 59, 0
5, 32340, Note_on_c, 9, 38, 0
5, 32340, Note_on_c, 9, 59, 100
5, 32400, Note_on_c, 9, 59, 0
5, 32400, Note_on_c, 9, 59, 100
5, 32460, Note_on_c, 9, 59, 0
5, 32460, Note_on_c, 9, 59, 100
5, 32520, Note_on_c, 9, 59, 0
5, 32520, Note_on_c, 9, 43, 100
5, 32520, Note_on_c, 9, 59, 100
5, 32580, Note_on_c, 9, 59, 0
5, 32580, Note_on_c, 9, 43, 0
5, 32580, Note_on_c, 9, 41, 100
5, 32580, Note_on_c, 9, 59, 100
5, 32640, Note_on_c, 9, 59, 0
5, 32640, Note_on_c, 9, 41, 0
5, 32640, Note_on_c, 9, 36, 100
5, 32640, Note_on_c, 9, 59, 100
5, 32700, Note_on_c, 9, 59, 0
5, 32700, Note_on_c, 9, 36, 0
5, 32700, Note_on_c, 9, 59, 100
5, 32760, Note_on_c, 9, 59, 0
5, 32760, Note_on_c, 9, 38, 100
5, 32760, Note_on_c, 9, 59, 100
5, 32820, Note_on_c, 9, 59, 0
5, 32820, Note_on_c, 9, 38, 0
5, 32820, Note_on_c, 9, 59, 100
5, 32880, Note_on_c, 9, 59, 0
5, 32880, Note_on_c, 9, 59, 100
5, 32940, Note_on_c, 9, 59, 0
5, 32940, Note_on_c, 9, 36, 100
5, 32940, Note_on_c, 9, 59, 100
5, 33000, Note_on_c, 9, 59, 0
5, 33000, Note_on_c, 9, 36, 0
5, 33000, Note_on_c, 9, 59, 100
5, 33060, Note_on_c, 9, 59, 0
5, 33060, Note_on_c, 9, 38, 100
5, 33060, Note_on_c, 9, 59, 100
5, 33120, Note_on_c, 9, 59, 0
5, 33120, Note_on_c, 9, 38, 0
5, 33120, Note_on_c, 9, 36, 100
5, 33120, Note_on_c, 9, 59, 100
5, 33180, Note_on_c, 9, 59, 0
5, 33180, Note_on_c, 9, 36, 0
5, 33180, Note_on_c, 9, 59, 100
5, 33240, Note_on_c, 9, 59, 0
5, 33240, Note_on_c, 9, 38, 100
5, 33240, Note_on_c, 9, 59, 100
5, 33300, Note_on_c, 9, 59, 0
5, 33300, Note_on_c, 9, 38, 0
5, 33300, Note_on_c, 9, 59, 100
5, 33360, Note_on_c, 9, 59, 0
5, 33360, Note_on_c, 9, 59, 100
5, 33420, Note_on_c, 9, 59, 0
5, 33420, Note_on_c, 9, 59, 100
5, 33480, Note_on_c, 9, 59, 0
5, 33480, Note_on_c, 9, 43, 100
5, 33480, Note_on_c, 9, 59, 100
5, 33540, Note_on_c, 9, 59, 0
5, 33540, Note_on_c, 9, 43, 0
5, 33540, Note_on_c, 9, 41, 100
5, 33540, Note_on_c, 9, 59, 100
5, 33600, Note_on_c, 9, 59, 0
5, 33600, Note_on_c, 9, 41, 0
5, 33600, Note_on_c, 9, 36, 100
5, 33600, Note_on_c, 9, 59, 100
5, 33660, Note_on_c, 9, 59, 0
5, 33660, Note_on_c, 9, 36, 0
5, 33660, Note_on_c, 9, 59, 100
5, 33720, Note_on_c, 9, 59, 0
5, 33720, Note_on_c, 9, 38, 100
5, 33720, Note_on_c, 9, 59, 100
5, 33780, Note_on_c, 9, 59, 0
5, 33780, Note_on_c, 9, 38, 0
5, 33780, Note_on_c, 9, 59, 100
5, 33840, Note_on_c, 9, 59, 0
5, 33840, Note_on_c, 9, 59, 100
5, 33900, Note_on_c, 9, 59, 0
5, 33900, Note_on_c, 9, 36, 100
5, 33900, Note_on_c, 9, 59, 100
5, 33960, Note_on_c, 9, 59, 0
5, 33960, Note_on_c, 9, 36, 0
5, 33960, Note_on_c, 9, 59, 100
5, 34020, Note_on_c, 9, 59, 0
5, 34020, Note_on_c, 9, 38, 100
5, 34020, Note_on_c, 9, 59, 100
5, 34080, Note_on_c, 9, 59, 0
5, 34080, Note_on_c, 9, 38, 0
5, 34080, Note_on_c, 9, 36, 100
5, 34080, Note_on_c, 9, 59, 100
5, 34140, Note_on_c, 9, 59, 0
5, 34140, Note_on_c, 9, 36, 0
5, 34140, Note_on_c, 9, 59, 100
5, 34200, Note_on_c, 9, 59, 0
5, 34200, Note_on_c, 9, 38, 100
5, 34200, Note_on_c, 9, 59, 100
5, 34260, Note_on_c, 9, 59, 0
5, 34260, Note_on_c, 9, 38, 0
5, 34260, Note_on_c, 9, 59, 100
5, 34320, Note_on_c, 9, 59, 0
5, 34320, Note_on_c, 9, 59, 100
5, 34380, Note_on_c, 9, 59, 0
5, 34380, Note_on_c, 9, 59, 100
5, 34440, Note_on_c, 9, 59, 0
5, 34440, Note_on_c, 9, 43, 100
5, 34440, Note_on_c, 9, 59, 100
5, 34500, Note_on_c, 9, 59, 0
5, 34500, Note_on_c, 9, 43, 0
5, 34500, Note_on_c, 9, 41, 100
5, 34500, Note_on_c, 9, 59, 100
5, 34560, Note_on_c, 9, 59, 0
5, 34560, Note_on_c, 9, 41, 0
5, 34560, Note_on_c, 9, 36, 100
5, 34560, Note_on_c, 9, 59, 100
5, 34620, Note_on_c, 9, 59, 0
5, 34620, Note_on_c, 9, 36, 0
5, 34620, Note_on_c, 9, 59, 100
5, 34680, Note_on_c, 9, 59, 0
5, 34680, Note_on_c, 9, 38, 100
5, 34680, Note_on_c, 9, 59, 100
5, 34740, Note_on_c, 9, 59, 0
5, 34740, Note_on_c, 9, 38, 0
5, 34740, Note_on_c, 9, 59, 100
5, 34800, Note_on_c, 9, 59, 0
5, 34800, Note_on_c, 9, 59, 100
5, 34860, Note_on_c, 9, 59, 0
5, 34860, Note_on_c, 9, 36, 100
5, 34860, Note_on_c, 9, 59, 100
5, 34920, Note_on_c, 9, 59, 0
5, 34920, Note_on_c, 9, 36, 0
5, 34920, Note_on_c, 9, 59, 100
5, 34980, Note_on_c, 9, 59, 0
5, 34980, Note_on_c, 9, 38, 100
5, 34980, Note_on_c, 9, 59, 100
5, 35040, Note_on_c, 9, 59, 0
5, 35040, Note_on_c, 9, 38, 0
5, 35040, Note_on_c, 9, 36, 100
5, 35040, Note_on_c, 9, 59, 100
5, 35100, Note_on_c, 9, 59, 0
5, 35100, Note_on_c, 9, 36, 0
5, 35100, Note_on_c, 9, 59, 100
5, 35160, Note_on_c, 9, 59, 0
5, 35160, Note_on_c, 9, 38, 100
5, 35160, Note_on_c, 9, 59, 100
5, 35220, Note_on_c, 9, 59, 0
5, 35220, Note_on_c, 9, 38, 0
5, 35220, Note_on_c, 9, 59, 100
5, 35280, Note_on_c, 9, 59, 0
5, 35280, Note_on_c, 9, 59, 100
5, 35340, Note_on_c, 9, 59, 0
5, 35340, Note_on_c, 9, 59, 100
5, 35400, Note_on_c, 9, 59, 0
5, 35400, Note_on_c, 9, 43, 100
5, 35400, Note_on_c, 9, 59, 100
5, 35460, Note_on_c, 9, 59, 0
5, 35460, Note_on_c, 9, 43, 0
5, 35460, Note_on_c, 9, 41, 100
5, 35460, Note_on_c, 9, 59, 100
5, 35520, Note_on_c, 9, 59, 0
5, 35520, Note_on_c, 9, 41, 0
5, 35520, Note_on_c, 9, 36, 100
5, 35520, Note_on_c, 9, 59, 100
5, 35580, Note_on_c, 9, 59, 0
5, 35580, Note_on_c, 9, 36, 0
5, 35580, Note_on_c, 9, 59, 100
5, 35640, Note_on_c, 9, 59, 0
5, 35640, Note_on_c, 9, 38, 100
5, 35640, Note_on_c, 9, 59, 100
5, 35700, Note_on_c, 9, 59, 0
5, 35700, Note_on_c, 9, 38, 0
5, 35700, Note_on_c, 9, 59, 100
5, 35760, Note_on_c, 9, 59, 0
5, 35760, Note_on_c, 9, 59, 100
5, 35820, Note_on_c, 9, 59, 0
5, 35820, Note_on_c, 9, 36, 100
5, 35820, Note_on_c, 9, 59, 100
5, 35880, Note_on_c, 9, 59, 0
5, 35880, Note_on_c, 9, 36, 0
5, 35880, Note_on_c, 9, 59, 100
5, 35940, Note_on_c, 9, 59, 0
5, 35940, Note_on_c, 9, 38, 100
5, 35940, Note_on_c, 9, 59, 100
5, 36000, Note_on_c, 9, 59, 0
5, 36000, Note_on_c, 9, 38, 0
5, 36000, Note_on_c, 9, 36, 100
5, 36000, Note_on_c, 9, 59, 100
5, 36060, Note_on_c, 9, 59, 0
5, 36060, Note_on_c, 9, 36, 0
5, 36060, Note_on_c, 9, 59, 100
5, 36120, Note_on_c, 9, 59, 0
5, 36120, Note_on_c, 9, 38, 100
5, 36120, Note_on_c, 9, 59, 100
5, 36180, Note_on_c, 9, 59, 0
5, 36180, Note_on_c, 9, 38, 0
5, 36180, Note_on_c, 9, 59, 100
5, 36240, Note_on_c, 9, 59, 0
5, 36240, Note_on_c, 9, 59, 100
5, 36300, Note_on_c, 9, 59, 0
5, 36300, Note_on_c, 9, 59, 100
5, 36360, Note_on_c, 9, 59, 0
5, 36360, Note_on_c, 9, 43, 100
5, 36360, Note_on_c, 9, 59, 100
5, 36420, Note_on_c, 9, 59, 0
5, 36420, Note_on_c, 9, 43, 0
5, 36420, Note_on_c, 9, 41, 100
5, 36420, Note_on_c, 9, 59, 100
5, 36480, Note_on_c, 9, 59, 0
5, 36480, Note_on_c, 9, 41, 0
5, 36480, Note_on_c, 9, 36, 100
5, 36480, Note_on_c, 9, 59, 100
5, 36540, Note_on_c, 9, 59, 0
5, 36540, Note_on_c, 9, 36, 0
5, 36540, Note_on_c, 9, 59, 100
5, 36600, Note_on_c, 9, 59, 0
5, 36600, Note_on_c, 9, 38, 100
5, 36600, Note_on_c, 9, 59, 100
5, 36660, Note_on_c, 9, 59, 0
5, 36660, Note_on_c, 9, 38, 0
5, 36660, Note_on_c, 9, 59, 100
5, 36720, Note_on_c, 9, 59, 0
5, 36720, Note_on_c, 9, 59, 100
5, 36780, Note_on_c, 9, 59, 0
5, 36780, Note_on_c, 9, 36, 100
5, 36780, Note_on_c, 9, 59, 100
5, 36840, Note_on_c, 9, 59, 0
5, 36840, Note_on_c, 9, 36, 0
5, 36840, Note_on_c, 9, 59, 100
5, 36900, Note_on_c, 9, 59, 0
5, 36900, Note_on_c, 9, 38, 100
5, 36900, Note_on_c, 9, 59, 100
5, 36960, Note_on_c, 9, 59, 0
5, 36960, Note_on_c, 9, 38, 0
5, 36960, Note_on_c, 9, 36, 100
5, 36960, Note_on_c, 9, 59, 100
5, 37020, Note_on_c, 9, 59, 0
5, 37020, Note_on_c, 9, 36, 0
5, 37020, Note_on_c, 9, 59, 100
5, 37080, Note_on_c, 9, 59, 0
5, 37080, Note_on_c, 9, 38, 100
5, 37080, Note_on_c, 9, 59, 100
5, 37140, Note_on_c, 9, 59, 0
5, 37140, Note_on_c, 9, 38, 0
5, 37140, Note_on_c, 9, 59, 100
5, 37200, Note_on_c, 9, 59, 0
5, 37200, Note_on_c, 9, 59, 100
5, 37260, Note_on_c, 9, 59, 0
5, 37260, Note_on_c, 9, 59, 100
5, 37320, Note_on_c, 9, 59, 0
5, 37320, Note_on_c, 9, 43, 100
5, 37320, Note_on_c, 9, 59, 100
5, 37380, Note_on_c, 9, 59, 0
5, 37380, Note_on_c, 9, 43, 0
5, 37380, Note_on_c, 9, 41, 100
5, 37380, Note_on_c, 9, 59, 100
5, 37440, Note_on_c, 9, 59, 0
5, 37440, Note_on_c, 9, 41, 0
5, 37440, Note_on_c, 9, 36, 100
5, 37440, Note_on_c, 9, 59, 100
5, 37500, Note_on_c, 9, 59, 0
5, 37500, Note_on_c, 9, 36, 0
5, 37500, Note_on_c, 9, 59, 100
5, 37560, Note_on_c, 9, 59, 0
5, 37560, Note_on_c, 9, 38, 100
5, 37560, Note_on_c, 9, 59, 100
5, 37620, Note_on_c, 9, 59, 0
5, 37620, Note_on_c, 9, 38, 0
5, 37620, Note_on_c, 9, 59, 100
5, 37680, Note_on_c, 9, 59, 0
5, 37680, Note_on_c, 9, 59, 100
5, 37740, Note_on_c, 9, 59, 0
5, 37740, Note_on_c, 9, 36, 100
5, 37740, Note_on_c, 9, 59, 100
5, 37800, Note_on_c, 9, 59, 0
5, 37800, Note_on_c, 9, 36, 0
5, 37800, Note_on_c, 9, 59, 100
5, 37860, Note_on_c, 9, 59, 0
5, 37860, Note_on_c, 9, 38, 100
5, 37860, Note_on_c, 9, 59, 100
5, 37920, Note_on_c, 9, 59, 0
5, 37920, Note_on_c, 9, 38, 0
5, 37920, Note_on_c, 9, 36, 100
5, 37920, Note_on_c, 9, 59, 100
5, 37980, Note_on_c, 9, 59, 0
5, 37980, Note_on_c, 9, 36, 0
5, 37980, Note_on_c, 9, 59, 100
5, 38040, Note_on_c, 9, 59, 0
5, 38040, Note_on_c, 9, 38, 100
5, 38040, Note_on_c, 9, 59, 100
5, 38100, Note_on_c, 9, 59, 0
5, 38100, Note_on_c, 9, 38, 0
5, 38100, Note_on_c, 9, 59, 100
5, 38160, Note_on_c, 9, 59, 0
5, 38160, Note_on_c, 9, 59, 100
5, 38220, Note_on_c, 9, 59, 0
5, 38220, Note_on_c, 9, 59, 100
5, 38280, Note_on_c, 9, 59, 0
5, 38280, Note_on_c, 9, 43, 100
5, 38280, Note_on_c, 9, 59, 100
5, 38340, Note_on_c, 9, 59, 0
5, 38340, Note_on_c, 9, 43, 0
5, 38340, Note_on_c, 9, 41, 100
5, 38340, Note_on_c, 9, 59, 100
5, 38400, Note_on_c, 9, 59, 0
5, 38400, Note_on_c, 9, 41, 0
5, 38400, Note_on_c, 9, 36, 100
5, 38400, Note_on_c, 9, 59, 100
5, 38460, Note_on_c, 9, 59, 0
5, 38460, Note_on_c, 9, 36, 0
5, 38460, Note_on_c, 9, 59, 100
5, 38520, Note_on_c, 9, 59, 0
5, 38520, Note_on_c, 9, 38, 100
5, 38520, Note_on_c, 9, 59, 100
5, 38580, Note_on_c, 9, 59, 0
5, 38580, Note_on_c, 9, 38, 0
5, 38580, Note_on_c, 9, 59, 100
5, 38640, Note_on_c, 9, 59, 0
5, 38640, Note_on_c, 9, 59, 100
5, 38700, Note_on_c, 9, 59, 0
5, 38700, Note_on_c, 9, 36, 100
5, 38700, Note_on_c, 9, 59, 100
5, 38760, Note_on_c, 9, 59, 0
5, 38760, Note_on_c, 9, 36, 0
5, 38760, Note_on_c, 9, 59, 100
5, 38820, Note_on_c, 9, 59, 0
5, 38820, Note_on_c, 9, 38, 100
5, 38820, Note_on_c, 9, 59, 100
5, 38880, Note_on_c, 9, 59, 0
5, 38880, Note_on_c, 9, 38, 0
5, 38880, Note_on_c, 9, 36, 100
5, 38880, Note_on_c, 9, 59, 100
5, 38940, Note_on_c, 9, 59, 0
5, 38940, Note_on_c, 9, 36, 0
5, 38940, Note_on_c, 9, 59, 100
5, 39000, Note_on_c, 9, 59, 0
5, 39000, Note_on_c, 9, 38, 100
5, 39000, Note_on_c, 9, 59, 100
5, 39060, Note_on_c, 9, 59, 0
5, 39060, Note_on_c, 9, 38, 0
5, 39060, Note_on_c, 9, 59, 100
5, 39120, Note_on_c, 9, 59, 0
5, 39120, Note_on_c, 9, 59, 100
5, 39180, Note_on_c, 9, 59, 0
5, 39180, Note_on_c, 9, 59, 100
5, 39240, Note_on_c, 9, 59, 0
5, 39240, Note_on_c, 9, 43, 100
5, 39240, Note_on_c, 9, 59, 100
5, 39300, Note_on_c, 9, 59, 0
5, 39300, Note_on_c, 9, 43, 0
5, 39300, Note_on_c, 9, 41, 100
5, 39300, Note_on_c, 9, 59, 100
5, 39360, Note_on_c, 9, 59, 0
5, 39360, Note_on_c, 9, 41, 0
5, 39360, Note_on_c, 9, 36, 100
5, 39360, Note_on_c, 9, 59, 100
5, 39420, Note_on_c, 9, 59, 0
5, 39420, Note_on_c, 9, 36, 0
5, 39420, Note_on_c, 9, 59, 100
5, 39480, Note_on_c, 9, 59, 0
5, 39480, Note_on_c, 9, 38, 100
5, 39480, Note_on_c, 9, 59, 100
5, 39540, Note_on_c, 9, 59, 0
5, 39540, Note_on_c, 9, 38, 0
5, 39540, Note_on_c, 9, 59, 100
5, 39600, Note_on_c, 9, 59, 0
5, 39600, Note_on_c, 9, 59, 100
5, 39660, Note_on_c, 9, 59, 0
5, 39660, Note_on_c, 9, 36, 100
5, 39660, Note_on_c, 9, 59, 100
5, 39720, Note_on_c, 9, 59, 0
5, 39720, Note_on_c, 9, 36, 0
5, 39720, Note_on_c, 9, 59, 100
5, 39780, Note_on_c, 9, 59, 0
5, 39780, Note_on_c, 9, 38, 100
5, 39780, Note_on_c, 9, 59, 100
5, 39840, Note_on_c, 9, 59, 0
5, 39840, Note_on_c, 9, 38, 0
5, 39840, Note_on_c, 9, 36, 100
5, 39840, Note_on_c, 9, 59, 100
5, 39900, Note_on_c, 9, 59, 0
5, 39900, Note_on_c, 9, 36, 0
5, 39900, Note_on_c, 9, 59, 100
5, 39960, Note_on_c, 9, 59, 0
5, 39960, Note_on_c, 9, 38, 100
5, 39960, Note_on_c, 9, 59, 100
5, 40020, Note_on_c, 9, 59, 0
5, 40020, Note_on_c, 9, 38, 0
5, 40020, Note_on_c, 9, 59, 100
5, 40080, Note_on_c, 9, 59, 0
5, 40080, Note_on_c, 9, 59, 100
5, 40140, Note_on_c, 9, 59, 0
5, 40140, Note_on_c, 9, 59, 100
5, 40200, Note_on_c, 9, 59, 0
5, 40200, Note_on_c, 9, 43, 100
5, 40200, Note_on_c, 9, 59, 100
5, 40260, Note_on_c, 9, 59, 0
5, 40260, Note_on_c, 9, 43, 0
5, 40260, Note_on_c, 9, 41, 100
5, 40260, Note_on_c, 9, 59, 100
5, 40320, Note_on_c, 9, 59, 0
5, 40320, Note_on_c, 9, 41, 0
5, 40320, Note_on_c, 9, 36, 100
5, 40320, Note_on_c, 9, 59, 100
5, 40380, Note_on_c, 9, 59, 0
5, 40380, Note_on_c, 9, 36, 0
5, 40380, Note_on_c, 9, 59, 100
5, 40440, Note_on_c, 9, 59, 0
5, 40440, Note_on_c, 9, 38, 100
5, 40440, Note_on_c, 9, 59, 100
5, 40500, Note_on_c, 9, 59, 0
5, 40500, Note_on_c, 9, 38, 0
5, 40500, Note_on_c, 9, 59, 100
5, 40560, Note_on_c, 9, 59, 0
5, 40560, Note_on_c, 9, 59, 100
5, 40620, Note_on_c, 9, 59, 0
5, 40620, Note_on_c, 9, 36, 100
5, 40620, Note_on_c, 9, 59, 100
5, 40680, Note_on_c, 9, 59, 0
5, 40680, Note_on_c, 9, 36, 0
5, 40680, Note_on_c, 9, 59, 100
5, 40740, Note_on_c, 9, 59, 0
5, 40740, Note_on_c, 9, 38, 100
5, 40740, Note_on_c, 9, 59, 100
5, 40800, Note_on_c, 9, 59, 0
5, 40800, Note_on_c, 9, 38, 0
5, 40800, Note_on_c, 9, 36, 100
5, 40800, Note_on_c, 9, 59, 100
5, 40860, Note_on_c, 9, 59, 0
5, 40860, Note_on_c, 9, 36, 0
5, 40860, Note_on_c, 9, 59, 100
5, 40920, Note_on_c, 9, 59, 0
5, 40920, Note_on_c, 9, 38, 100
5, 40920, Note_on_c, 9, 59, 100
5, 40980, Note_on_c, 9, 59, 0
5, 40980, Note_on_c, 9, 38, 0
5, 40980, Note_on_c, 9, 59, 100
5, 41040, Note_on_c, 9, 59, 0
5, 41040, Note_on_c, 9, 59, 100
5, 41100, Note_on_c, 9, 59, 0
5, 41100, Note_on_c, 9, 59, 100
5, 41160, Note_on_c, 9, 59, 0
5, 41160, Note_on_c, 9, 43, 100
5, 41160, Note_on_c, 9, 59, 100
5, 41220, Note_on_c, 9, 59, 0
5, 41220, Note_on_c, 9, 43, 0
5, 41220, Note_on_c, 9, 41, 100
5, 41220, Note_on_c, 9, 59, 100
5, 41280, Note_on_c, 9, 59, 0
5, 41280, Note_on_c, 9, 41, 0
5, 41280, Note_on_c, 9, 36, 100
5, 41280, Note_on_c, 9, 59, 100
5, 41340, Note_on_c, 9, 59, 0
5, 41340, Note_on_c, 9, 36, 0
5, 41340, Note_on_c, 9, 59, 100
5, 41400, Note_on_c, 9, 59, 0
5, 41400, Note_on_c, 9, 38, 100
5, 41400, Note_on_c, 9, 59, 100
5, 41460, Note_on_c, 9, 59, 0
5, 41460, Note_on_c, 9, 38, 0
5, 41460, Note_on_c, 9, 59, 100
5, 41520, Note_on_c, 9, 59, 0
5, 41520, Note_on_c, 9, 59, 100
5, 41580, Note_on_c, 9, 59, 0
5, 41580, Note_on_c, 9, 36, 100
5, 41580, Note_on_c, 9, 59, 100
5, 41640, Note_on_c, 9, 59, 0
5, 41640, Note_on_c, 9, 36, 0
5, 41640, Note_on_c, 9, 59, 100
5, 41700, Note_on_c, 9, 59, 0
5, 41700, Note_on_c, 9, 38, 100
5, 41700, Note_on_c, 9, 59, 100
5, 41760, Note_on_c, 9, 59, 0
5, 41760, Note_on_c, 9, 38, 0
5, 41760, Note_on_c, 9, 36, 100
5, 41760, Note_on_c, 9, 59, 100
5, 41820, Note_on_c, 9, 59, 0
5, 41820, Note_on_c, 9, 36, 0
5, 41820, Note_on_c, 9, 59, 100
5, 41880, Note_on_c, 9, 59, 0
5, 41880, Note_on_c, 9, 38, 100
5, 41880, Note_on_c, 9, 59, 100
5, 41940, Note_on_c, 9, 59, 0
5, 41940, Note_on_c, 9, 38, 0
5, 41940, Note_on_c, 9, 59, 100
5, 42000, Note_on_c, 9, 59, 0
5, 42000, Note_on_c, 9, 59, 100
5, 42060, Note_on_c, 9, 59, 0
5, 42060, Note_on_c, 9, 59, 100
5, 42120, Note_on_c, 9, 59, 0
5, 42120, Note_on_c, 9, 43, 100
5, 42120, Note_on_c, 9, 59, 100
5, 42180, Note_on_c, 9, 59, 0
5, 42180, Note_on_c, 9, 43, 0
5, 42180, Note_on_c, 9, 41, 100
5, 42180, Note_on_c, 9, 59, 100
5, 42240, Note_on_c, 9, 59, 0
5, 42240, Note_on_c, 9, 41, 0
5, 42240, Note_on_c, 9, 36, 100
5, 42240, Note_on_c, 9, 59, 100
5, 42300, Note_on_c, 9, 59, 0
5, 42300, Note_on_c, 9, 36, 0
5, 42300, Note_on_c, 9, 59, 100
5, 42360, Note_on_c, 9, 59, 0
5, 42360, Note_on_c, 9, 38, 100
5, 42360, Note_on_c, 9, 59, 100
5, 42420, Note_on_c, 9, 59, 0
5, 42420, Note_on_c, 9, 38, 0
5, 42420, Note_on_c, 9, 59, 100
5, 42480, Note_on_c, 9, 59, 0
5, 42480, Note_on_c, 9, 59, 100
5, 42540, Note_on_c, 9, 59, 0
5, 42540, Note_on_c, 9, 36, 100
5, 42540, Note_on_c, 9, 59, 100
5, 42600, Note_on_c, 9, 59, 0
5, 42600, Note_on_c, 9, 36, 0
5, 42600, Note_on_c, 9, 59, 100
5, 42660, Note_on_c, 9, 59, 0
5, 42660, Note_on_c, 9, 38, 100
5, 42660, Note_on_c, 9, 59, 100
5, 42720, Note_on_c, 9, 59, 0
5, 42720, Note_on_c, 9, 38, 0
5, 42720, Note_on_c, 9, 36, 100
5, 42720, Note_on_c, 9, 59, 100
5, 42780, Note_on_c, 9, 59, 0
5, 42780, Note_on_c, 9, 36, 0
5, 42780, Note_on_c, 9, 59, 100
5, 42840, Note_on_c, 9, 59, 0
5, 42840, Note_on_c, 9, 38, 100
5, 42840, Note_on_c, 9, 59, 100
5, 42900, Note_on_c, 9, 59, 0
5, 42900, Note_on_c, 9, 38, 0
5, 42900, Note_on_c, 9, 59, 100
5, 42960, Note_on_c, 9, 59, 0
5, 42960, Note_on_c, 9, 59, 100
5, 43020, Note_on_c, 9, 59, 0
5, 43020, Note_on_c, 9, 59, 100
5, 43080, Note_on_c, 9, 59, 0
5, 43080, Note_on_c, 9, 43, 100
5, 43080, Note_on_c, 9, 59, 100
5, 43140, Note_on_c, 9, 59, 0
5, 43140, Note_on_c, 9, 43, 0
5, 43140, Note_on_c, 9, 41, 100
5, 43140, Note_on_c, 9, 59, 100
5, 43200, Note_on_c, 9, 59, 0
5, 43200, Note_on_c, 9, 41, 0
5, 43200, Note_on_c, 9, 36, 100
5, 43200, Note_on_c, 9, 59, 100
5, 43260, Note_on_c, 9, 59, 0
5, 43260, Note_on_c, 9, 36, 0
5, 43260, Note_on_c, 9, 59, 100
5, 43320, Note_on_c, 9, 59, 0
5, 43320, Note_on_c, 9, 38, 100
5, 43320, Note_on_c, 9, 59, 100
5, 43380, Note_on_c, 9, 59, 0
5, 43380, Note_on_c, 9, 38, 0
5, 43380, Note_on_c, 9, 59, 100
5, 43440, Note_on_c, 9, 59, 0
5, 43440, Note_on_c, 9, 59, 100
5, 43500, Note_on_c, 9, 59, 0
5, 43500, Note_on_c, 9, 36, 100
5, 43500, Note_on_c, 9, 59, 100
5, 43560, Note_on_c, 9, 59, 0
5, 43560, Note_on_c, 9, 36, 0
5, 43560, Note_on_c, 9, 59, 100
5, 43620, Note_on_c, 9, 59, 0
5, 43620, Note_on_c, 9, 38, 100
5, 43620, Note_on_c, 9, 59, 100
5, 43680, Note_on_c, 9, 59, 0
5, 43680, Note_on_c, 9, 38, 0
5, 43680, Note_on_c, 9, 36, 100
5, 43680, Note_on_c, 9, 59, 100
5, 43740, Note_on_c, 9, 59, 0
5, 43740, Note_on_c, 9, 36, 0
5, 43740, Note_on_c, 9, 59, 100
5, 43800, Note_on_c, 9, 59, 0
5, 43800, Note_on_c, 9, 38, 100
5, 43800, Note_on_c, 9, 59, 100
5, 43860, Note_on_c, 9, 59, 0
5, 43860, Note_on_c, 9, 38, 0
5, 43860, Note_on_c, 9, 59, 100
5, 43920, Note_on_c, 9, 59, 0
5, 43920, Note_on_c, 9, 59, 100
5, 43980, Note_on_c, 9, 59, 0
5, 43980, Note_on_c, 9, 59, 100
5, 44040, Note_on_c, 9, 59, 0
5, 44040, Note_on_c, 9, 43, 100
5, 44040, Note_on_c, 9, 59, 100
5, 44100, Note_on_c, 9, 59, 0
5, 44100, Note_on_c, 9, 43, 0
5, 44100, Note_on_c, 9, 41, 100
5, 44100, Note_on_c, 9, 59, 100
5, 44160, Note_on_c, 9, 59, 0
5, 44160, Note_on_c, 9, 41, 0
5, 44160, Note_on_c, 9, 36, 100
5, 44160, Note_on_c, 9, 59, 100
5, 44220, Note_on_c, 9, 59, 0
5, 44220, Note_on_c, 9, 36, 0
5, 44220, Note_on_c, 9, 59, 100
5, 44280, Note_on_c, 9, 59, 0
5, 44280, Note_on_c, 9, 38, 100
5, 44280, Note_on_c, 9, 59, 100
5, 44340, Note_on_c, 9, 59, 0
5, 44340, Note_on_c, 9, 38, 0
5, 44340, Note_on_c, 9, 59, 100
5, 44400, Note_on_c, 9, 59, 0
5, 44400, Note_on_c, 9, 59, 100
5, 44460, Note_on_c, 9, 59, 0
5, 44460, Note_on_c, 9, 36, 100
5, 44460, Note_on_c, 9, 59, 100
5, 44520, Note_on_c, 9, 59, 0
5, 44520, Note_on_c, 9, 36, 0
5, 44520, Note_on_c, 9, 59, 100
5, 44580, Note_on_c, 9, 59, 0
5, 44580, Note_on_c, 9, 38, 100
5, 44580, Note_on_c, 9, 59, 100
5, 44640, Note_on_c, 9, 59, 0
5, 44640, Note_on_c, 9, 38, 0
5, 44640, Note_on_c, 9, 36, 100
5, 44640, Note_on_c, 9, 59, 100
5, 44700, Note_on_c, 9, 59, 0
5, 44700, Note_on_c, 9, 36, 0
5, 44700, Note_on_c, 9, 59, 100
5, 44760, Note_on_c, 9, 59, 0
5, 44760, Note_on_c, 9, 38, 100
5, 44760, Note_on_c, 9, 59, 100
5, 44820, Note_on_c, 9, 59, 0
5, 44820, Note_on_c, 9, 38, 0
5, 44820, Note_on_c, 9, 59, 100
5, 44880, Note_on_c, 9, 59, 0
5, 44880, Note_on_c, 9, 59, 100
5, 44940, Note_on_c, 9, 59, 0
5, 44940, Note_on_c, 9, 59, 100
5, 45000, Note_on_c, 9, 59, 0
5, 45000, Note_on_c, 9, 43, 100
5, 45000, Note_on_c, 9, 59, 100
5, 45060, Note_on_c, 9, 59, 0
5, 45060, Note_on_c, 9, 43, 0
5, 45060, Note_on_c, 9, 41, 100
5, 45060, Note_on_c, 9, 59, 100
5, 45120, Note_on_c, 9, 59, 0
5, 45120, Note_on_c, 9, 41, 0
5, 45120, Note_on_c, 9, 36, 100
5, 45120, Note_on_c, 9, 59, 100
5, 45180, Note_on_c, 9, 59, 0
5, 45180, Note_on_c, 9, 36, 0
5, 45180, Note_on_c, 9, 59, 100
5, 45240, Note_on_c, 9, 59, 0
5, 45240, Note_on_c, 9, 38, 100
5, 45240, Note_on_c, 9, 59, 100
5, 45300, Note_on_c, 9, 59, 0
5, 45300, Note_on_c, 9, 38, 0
5, 45300, Note_on_c, 9, 59, 100
5, 45360, Note_on_c, 9, 59, 0
5, 45360, Note_on_c, 9, 59, 100
5, 45420, Note_on_c, 9, 59, 0
5, 45420, Note_on_c, 9, 36, 100
5, 45420, Note_on_c, 9, 59, 100
5, 45480, Note_on_c, 9, 59, 0
5, 45480, Note_on_c, 9, 36, 0
5, 45480, Note_on_c, 9, 59, 100
5, 45540, Note_on_c, 9, 59, 0
5, 45540, Note_on_c, 9, 38, 100
5, 45540, Note_on_c, 9, 59, 100
5, 45600, Note_on_c, 9, 59, 0
5, 45600, Note_on_c, 9, 38, 0
5, 45600, Note_on_c, 9, 36, 100
5, 45600, Note_on_c, 9, 59, 100
5, 45660, Note_on_c, 9, 59, 0
5, 45660, Note_on_c, 9, 36, 0
5, 45660, Note_on_c, 9, 59, 100
5, 45720, Note_on_c, 9, 59, 0
5, 45720, Note_on_c, 9, 38, 100
5, 45720, Note_on_c, 9, 59, 100
5, 45780, Note_on_c, 9, 59, 0
5, 45780, Note_on_c, 9, 38, 0
5, 45780, Note_on_c, 9, 59, 100
5, 45840, Note_on_c, 9, 59, 0
5, 45840, Note_on_c, 9, 59, 100
5, 45900, Note_on_c, 9, 59, 0
5, 45900, Note_on_c, 9, 59, 100
5, 45960, Note_on_c, 9, 59, 0
5, 45960, Note_on_c, 9, 43, 100
5, 45960, Note_on_c, 9, 59, 100
5, 46020, Note_on_c, 9, 59, 0
5, 46020, Note_on_c, 9, 43, 0
5, 46020, Note_on_c, 9, 41, 100
5, 46020, Note_on_c, 9, 59, 100
5, 46080, Note_on_c, 9, 59, 0
5, 46080, Note_on_c, 9, 41, 0
5, 46080, Note_on_c, 9, 36, 100
5, 46080, Note_on_c, 9, 59, 100
5, 46140, Note_on_c, 9, 59, 0
5, 46140, Note_on_c, 9, 36, 0
5, 46140, Note_on_c, 9, 59, 100
5, 46200, Note_on_c, 9, 59, 0
5, 46200, Note_on_c, 9, 38, 100
5, 46200, Note_on_c, 9, 59, 100
5, 46260, Note_on_c, 9, 59, 0
5, 46260, Note_on_c, 9, 38, 0
5, 46260, Note_on_c, 9, 59, 100
5, 46320, Note_on_c, 9, 59, 0
5, 46320, Note_on_c, 9, 59, 100
5, 46380, Note_on_c, 9, 59, 0
5, 46380, Note_on_c, 9, 36, 100
5, 46380, Note_on_c, 9, 59, 100
5, 46440, Note_on_c, 9, 59, 0
5, 46440, Note_on_c, 9, 36, 0
5, 46440, Note_on_c, 9, 59, 100
5, 46500, Note_on_c, 9, 59, 0
5, 46500, Note_on_c, 9, 38, 100
5, 46500, Note_on_c, 9, 59, 100
5, 46560, Note_on_c, 9, 59, 0
5, 46560, Note_on_c, 9, 38, 0
5, 46560, Control_c, 9, 7, 100
5, 46560, Note_on_c, 9, 36, 100
5, 46560, Note_on_c, 9, 59, 100
5, 46588, Control_c, 9, 7, 99
5, 46617, Control_c, 9, 7, 98
5, 46620, Note_on_c, 9, 59, 0
5, 46620, Note_on_c, 9, 36, 0
5, 46620, Note_on_c, 9, 59, 100
5, 46646, Control_c, 9, 7, 97
5, 46675, Control_c, 9, 7, 96
5, 46680, Note_on_c, 9, 59, 0
5, 46680, Note_on_c, 9, 38, 100
5, 46680, Note_on_c, 9, 59, 100
5, 46703, Control_c, 9, 7, 95
5, 46732, Control_c, 9, 7, 94
5, 46740, Note_on_c, 9, 59, 0
5, 46740, Note_on_c, 9, 38, 0
5, 46740, Note_on_c, 9, 59, 100
5, 46761, Control_c, 9, 7, 93
5, 46790, Control_c, 9, 7, 92
5, 46800, Note_on_c, 9, 59, 0
5, 46800, Note_on_c, 9, 59, 100
5, 46819, Control_c, 9, 7, 91
5, 46847, Control_c, 9, 7, 90
5, 46860, Note_on_c, 9, 59, 0
5, 46860, Note_on_c, 9, 59, 100
5, 46876, Control_c, 9, 7, 89
5, 46905, Control_c, 9, 7, 88
5, 46920, Note_on_c, 9, 59, 0
5, 46920, Note_on_c, 9, 43, 100
5, 46920, Note_on_c, 9, 59, 100
5, 46934, Control_c, 9, 7, 87
5, 46963, Control_c, 9, 7, 86
5, 46980, Note_on_c, 9, 59, 0
5, 46980, Note_on_c, 9, 43, 0
5, 46980, Note_on_c, 9, 41, 100
5, 46980, Note_on_c, 9, 59, 100
5, 46991, Control_c, 9, 7, 85
5, 47020, Control_c, 9, 7, 84
5, 47040, Note_on_c, 9, 59, 0
5, 47040, Note_on_c, 9, 41, 0
5, 47040, Note_on_c, 9, 36, 100
5, 47040, Note_on_c, 9, 59, 100
5, 47049, Control_c, 9, 7, 83
5, 47078, Control_c, 9, 7, 82
5, 47100, Note_on_c, 9, 59, 0
5, 47100, Note_on_c, 9, 36, 0
5, 47100, Note_on_c, 9, 59, 100
5, 47107, Control_c, 9, 7, 81
5, 47135, Control_c, 9, 7, 80
5, 47160, Note_on_c, 9, 59, 0
5, 47160, Note_on_c, 9, 38, 100
5, 47160, Note_on_c, 9, 59, 100
5, 47164, Control_c, 9, 7, 79
5, 47193, Control_c, 9, 7, 78
5, 47220, Note_on_c, 9, 59, 0
5, 47220, Note_on_c, 9, 38, 0
5, 47220, Note_on_c, 9, 59, 100
5, 47222, Control_c, 9, 7, 77
5, 47250, Control_c, 9, 7, 76
5, 47279, Control_c, 9, 7, 75
5, 47280, Note_on_c, 9, 59, 0
5, 47280, Note_on_c, 9, 59, 100
5, 47308, Control_c, 9, 7, 74
5, 47337, Control_c, 9, 7, 73
5, 47340, Note_on_c, 9, 59, 0
5, 47340, Note_on_c, 9, 36, 100
5, 47340, Note_on_c, 9, 59, 100
5, 47366, Control_c, 9, 7, 72
5, 47394, Control_c, 9, 7, 71
5, 47400, Note_on_c, 9, 59, 0
5, 47400, Note_on_c, 9, 36, 0
5, 47400, Note_on_c, 9, 59, 100
5, 47423, Control_c, 9, 7, 70
5, 47452, Control_c, 9, 7, 69
5, 47460, Note_on_c, 9, 59, 0
5, 47460, Note_on_c, 9, 38, 100
5, 47460, Note_on_c, 9, 59, 100
5, 47481, Control_c, 9, 7, 68
5, 47510, Control_c, 9, 7, 67
5, 47520, Note_on_c, 9, 59, 0
5, 47520, Note_on_c, 9, 38, 0
5, 47520, Note_on_c, 9, 36, 100
5, 47520, Note_on_c, 9, 59, 100
5, 47538, Control_c, 9, 7, 66
5, 47567, Control_c, 9, 7, 65
5, 47580, Note_on_c, 9, 59, 0
5, 47580, Note_on_c, 9, 36, 0
5, 47580, Note_on_c, 9, 59, 100
5, 47596, Control_c, 9, 7, 64
5, 47625, Control_c, 9, 7, 63
5, 47640, Note_on_c, 9, 59, 0
5, 47640, Note_on_c, 9, 38, 100
5, 47640, Note_on_c, 9, 59, 100
5, 47654, Control_c, 9, 7, 62
5, 47682, Control_c, 9, 7, 61
5, 47700, Note_on_c, 9, 59, 0
5, 47700, Note_on_c, 9, 38, 0
5, 47700, Note_on_c, 9, 59, 100
5, 47711, Control_c, 9, 7, 60
5, 47740, Control_c, 9, 7, 59
5, 47760, Note_on_c, 9, 59, 0
5, 47760, Note_on_c, 9, 59, 100
5, 47769, Control_c, 9, 7, 58
5, 47797, Control_c, 9, 7, 57
5, 47820, Note_on_c, 9, 59, 0
5, 47820, Note_on_c, 9, 59, 100
5, 47826, Control_c, 9, 7, 56
5, 47855, Control_c, 9, 7, 55
5, 47880, Note_on_c, 9, 59, 0
5, 47880, Note_on_c, 9, 43, 100
5, 47880, Note_on_c, 9, 59, 100
5, 47884, Control_c, 9, 7, 54
5, 47913, Control_c, 9, 7, 53
5, 47940, Note_on_c, 9, 59, 0
5, 47940, Note_on_c, 9, 43, 0
5, 47940, Note_on_c, 9, 41, 100
5, 47940, Note_on_c, 9, 59, 100
5, 47941, Control_c, 9, 7, 52
5, 47970, Control_c, 9, 7, 51
5, 47999, Control_c, 9, 7, 50
5, 48000, Note_on_c, 9, 59, 0
5, 48000, Note_on_c, 9, 41, 0
5, 48000, Note_on_c, 9, 36, 100
5, 48000, Note_on_c, 9, 59, 100
5, 48028, Control_c, 9, 7, 49
5, 48057, Control_c, 9, 7, 48
5, 48060, Note_on_c, 9, 59, 0
5, 48060, Note_on_c, 9, 36, 0
5, 48060, Note_on_c, 9, 59, 100
5, 48085, Control_c, 9, 7, 47
5, 48114, Control_c, 9, 7, 46
5, 48120, Note_on_c, 9, 59, 0
5, 48120, Note_on_c, 9, 38, 100
5, 48120, Note_on_c, 9, 59, 100
5, 48143, Control_c, 9, 7, 45
5, 48172, Control_c, 9, 7, 44
5, 48180, Note_on_c, 9, 59, 0
5, 48180, Note_on_c, 9, 38, 0
5, 48180, Note_on_c, 9, 59, 100
5, 48201, Control_c, 9, 7, 43
5, 48229, Control_c, 9, 7, 42
5, 48240, Note_on_c, 9, 59, 0
5, 48240, Note_on_c, 9, 59, 100
5, 48258, Control_c, 9, 7, 41
5, 48287, Control_c, 9, 7, 40
5, 48300, Note_on_c, 9, 59, 0
5, 48300, Note_on_c, 9, 36, 100
5, 48300, Note_on_c, 9, 59, 100
5, 48316, Control_c, 9, 7, 39
5, 48344, Control_c, 9, 7, 38
5, 48360, Note_on_c, 9, 59, 0
5, 48360, Note_on_c, 9, 36, 0
5, 48360, Note_on_c, 9, 59, 100
5, 48373, Control_c, 9, 7, 37
5, 48402, Control_c, 9, 7, 36
5, 48420, Note_on_c, 9, 59, 0
5, 48420, Note_on_c, 9, 38, 100
5, 48420, Note_on_c, 9, 59, 100
5, 48431, Control_c, 9, 7, 35
5, 48460, Control_c, 9, 7, 34
5, 48480, Note_on_c, 9, 59, 0
5, 48480, Note_on_c, 9, 38, 0
5, 48480, Note_on_c, 9, 36, 100
5, 48480, Note_on_c, 9, 59, 100
5, 48488, Control_c, 9, 7, 33
5, 48517, Control_c, 9, 7, 32
5, 48540, Note_on_c, 9, 59, 0
5, 48540, Note_on_c, 9, 36, 0
5, 48540, Note_on_c, 9, 59, 100
5, 48546, Control_c, 9, 7, 31
5, 48575, Control_c, 9, 7, 30
5, 48600, Note_on_c, 9, 59, 0
5, 48600, Note_on_c, 9, 38, 100
5, 48600, Note_on_c, 9, 59, 100
5, 48604, Control_c, 9, 7, 29
5, 48632, Control_c, 9, 7, 28
5, 48660, Note_on_c, 9, 59, 0
5, 48660, Note_on_c, 9, 38, 0
5, 48660, Note_on_c, 9, 59, 100
5, 48661, Control_c, 9, 7, 27
5, 48690, Control_c, 9, 7, 26
5, 48719, Control_c, 9, 7, 25
5, 48720, Note_on_c, 9, 59, 0
5, 48720, Note_on_c, 9, 59, 100
5, 48748, Control_c, 9, 7, 24
5, 48776, Control_c, 9, 7, 23
5, 48780, Note_on_c, 9, 59, 0
5, 48780, Note_on_c, 9, 59, 100
5, 48805, Control_c, 9, 7, 22
5, 48834, Control_c, 9, 7, 21
5, 48840, Note_on_c, 9, 59, 0
5, 48840, Note_on_c, 9, 43, 100
5, 48840, Note_on_c, 9, 59, 100
5, 48863, Control_c, 9, 7, 20
5, 48891, Control_c, 9, 7, 19
5, 48900, Note_on_c, 9, 59, 0
5, 48900, Note_on_c, 9, 43, 0
5, 48900, Note_on_c, 9, 41, 100
5, 48900, Note_on_c, 9, 59, 100
5, 48920, Control_c, 9, 7, 18
5, 48949, Control_c, 9, 7, 17
5, 48960, Note_on_c, 9, 59, 0
5, 48960, Note_on_c, 9, 41, 0
5, 48960, Note_on_c, 9, 36, 100
5, 48960, Note_on_c, 9, 59, 100
5, 48978, Control_c, 9, 7, 16
5, 49007, Control_c, 9, 7, 15
5, 49020, Note_on_c, 9, 59, 0
5, 49020, Note_on_c, 9, 36, 0
5, 49020, Note_on_c, 9, 59, 100
5, 49035, Control_c, 9, 7, 14
5, 49064, Control_c, 9, 7, 13
5, 49080, Note_on_c, 9, 59, 0
5, 49080, Note_on_c, 9, 38, 100
5, 49080, Note_on_c, 9, 59, 100
5, 49093, Control_c, 9, 7, 12
5, 49122, Control_c, 9, 7, 11
5, 49140, Note_on_c, 9, 59, 0
5, 49140, Note_on_c, 9, 38, 0
5, 49140, Note_on_c, 9, 59, 100
5, 49151, Control_c, 9, 7, 10
5, 49179, Control_c, 9, 7, 9
5, 49200, Note_on_c, 9, 59, 0
5, 49200, Note_on_c, 9, 59, 100
5, 49208, Control_c, 9, 7, 8
5, 49237, Control_c, 9, 7, 7
5, 49260, Note_on_c, 9, 59, 0
5, 49260, Note_on_c, 9, 36, 100
5, 49260, Note_on_c, 9, 59, 100
5, 49266, Control_c, 9, 7, 6
5, 49295, Control_c, 9, 7, 5
5, 49320, Note_on_c, 9, 59, 0
5, 49320, Note_on_c, 9, 36, 0
5, 49320, Note_on_c, 9, 59, 100
5, 49323, Control_c, 9, 7, 4
5, 49352, Control_c, 9, 7, 3
5, 49380, Note_on_c, 9, 59, 0
5, 49380, Note_on_c, 9, 38, 100
5, 49380, Note_on_c, 9, 59, 100
5, 49381, Control_c, 9, 7, 2
5, 49410, Control_c, 9, 7, 1
5, 49439, Control_c, 9, 7, 0
5, 49440, Note_on_c, 9, 59, 0
5, 49440, Note_on_c, 9, 38, 0
5, 49440, End_track
6, 0, Start_track
6, 0, MIDI_port, 0
6, 0, Title_t, "Rythm Guitar (Graham Coxon)"
6, 0, Program_c, 4, 25
6, 0, Control_c, 4, 7, 80
6, 0, Control_c, 4, 10, 30
6, 1680, Note_on_c, 4, 57, 100
6, 1680, Note_on_c, 4, 62, 100
6, 1680, Note_on_c, 4, 64, 100
6, 1800, Note_on_c, 4, 64, 0
6, 1800, Note_on_c, 4, 62, 0
6, 1800, Note_on_c, 4, 57, 0
6, 1800, Note_on_c, 4, 57, 100
6, 1800, Note_on_c, 4, 62, 100
6, 1800, Note_on_c, 4, 64, 100
6, 1920, Note_on_c, 4, 64, 0
6, 1920, Note_on_c, 4, 62, 0
6, 1920, Note_on_c, 4, 57, 0
6, 1920, Note_on_c, 4, 64, 100
6, 1920, Note_on_c, 4, 59, 100
6, 1920, Note_on_c, 4, 56, 100
6, 1920, Note_on_c, 4, 52, 100
6, 1920, Note_on_c, 4, 47, 100
6, 1920, Note_on_c, 4, 40, 100
6, 2040, Note_on_c, 4, 40, 0
6, 2040, Note_on_c, 4, 59, 0
6, 2040, Note_on_c, 4, 56, 0
6, 2040, Note_on_c, 4, 64, 0
6, 2040, Note_on_c, 4, 47, 0
6, 2040, Note_on_c, 4, 52, 0
6, 2040, Note_on_c, 4, 40, 100
6, 2040, Note_on_c, 4, 47, 100
6, 2040, Note_on_c, 4, 52, 100
6, 2040, Note_on_c, 4, 56, 100
6, 2040, Note_on_c, 4, 59, 100
6, 2040, Note_on_c, 4, 64, 100
6, 2160, Note_on_c, 4, 64, 0
6, 2160, Note_on_c, 4, 47, 0
6, 2160, Note_on_c, 4, 52, 0
6, 2160, Note_on_c, 4, 40, 0
6, 2160, Note_on_c, 4, 59, 0
6, 2160, Note_on_c, 4, 56, 0
6, 2160, Note_on_c, 4, 40, 100
6, 2160, Note_on_c, 4, 47, 100
6, 2160, Note_on_c, 4, 52, 100
6, 2160, Note_on_c, 4, 56, 100
6, 2160, Note_on_c, 4, 59, 100
6, 2160, Note_on_c, 4, 64, 100
6, 2220, Note_on_c, 4, 64, 0
6, 2220, Note_on_c, 4, 47, 0
6, 2220, Note_on_c, 4, 52, 0
6, 2220, Note_on_c, 4, 40, 0
6, 2220, Note_on_c, 4, 59, 0
6, 2220, Note_on_c, 4, 56, 0
6, 2220, Note_on_c, 4, 59, 100
6, 2220, Note_on_c, 4, 56, 100
6, 2220, Note_on_c, 4, 52, 100
6, 2220, Note_on_c, 4, 47, 100
6, 2220, Note_on_c, 4, 40, 100
6, 2220, Note_on_c, 4, 64, 100
6, 2280, Note_on_c, 4, 64, 0
6, 2280, Note_on_c, 4, 56, 0
6, 2280, Note_on_c, 4, 52, 0
6, 2280, Note_on_c, 4, 59, 0
6, 2280, Note_on_c, 4, 40, 0
6, 2280, Note_on_c, 4, 47, 0
6, 2280, Note_on_c, 4, 52, 100
6, 2280, Note_on_c, 4, 56, 100
6, 2280, Note_on_c, 4, 59, 100
6, 2280, Note_on_c, 4, 47, 100
6, 2280, Note_on_c, 4, 40, 100
6, 2280, Note_on_c, 4, 64, 100
6, 2340, Note_on_c, 4, 64, 0
6, 2340, Note_on_c, 4, 56, 0
6, 2340, Note_on_c, 4, 59, 0
6, 2340, Note_on_c, 4, 52, 0
6, 2340, Note_on_c, 4, 40, 0
6, 2340, Note_on_c, 4, 47, 0
6, 2340, Note_on_c, 4, 47, 100
6, 2340, Note_on_c, 4, 59, 100
6, 2340, Note_on_c, 4, 54, 100
6, 2340, Note_on_c, 4, 63, 100
6, 2460, Note_on_c, 4, 63, 0
6, 2460, Note_on_c, 4, 47, 0
6, 2460, Note_on_c, 4, 59, 0
6, 2460, Note_on_c, 4, 54, 0
6, 2460, Note_on_c, 4, 47, 100
6, 2460, Note_on_c, 4, 54, 100
6, 2460, Note_on_c, 4, 59, 100
6, 2460, Note_on_c, 4, 63, 100
6, 2520, Note_on_c, 4, 63, 0
6, 2520, Note_on_c, 4, 47, 0
6, 2520, Note_on_c, 4, 54, 0
6, 2520, Note_on_c, 4, 59, 0
6, 2520, Note_on_c, 4, 47, 100
6, 2520, Note_on_c, 4, 54, 100
6, 2520, Note_on_c, 4, 59, 100
6, 2520, Note_on_c, 4, 63, 100
6, 2640, Note_on_c, 4, 63, 0
6, 2640, Note_on_c, 4, 47, 0
6, 2640, Note_on_c, 4, 54, 0
6, 2640, Note_on_c, 4, 59, 0
6, 2640, Note_on_c, 4, 47, 100
6, 2640, Note_on_c, 4, 54, 100
6, 2640, Note_on_c, 4, 59, 100
6, 2640, Note_on_c, 4, 63, 100
6, 2700, Note_on_c, 4, 63, 0
6, 2700, Note_on_c, 4, 47, 0
6, 2700, Note_on_c, 4, 54, 0
6, 2700, Note_on_c, 4, 59, 0
6, 2700, Note_on_c, 4, 47, 100
6, 2700, Note_on_c, 4, 54, 100
6, 2700, Note_on_c, 4, 59, 100
6, 2700, Note_on_c, 4, 63, 100
6, 2760, Note_on_c, 4, 63, 0
6, 2760, Note_on_c, 4, 47, 0
6, 2760, Note_on_c, 4, 54, 0
6, 2760, Note_on_c, 4, 59, 0
6, 2760, Note_on_c, 4, 47, 100
6, 2760, Note_on_c, 4, 54, 100
6, 2760, Note_on_c, 4, 59, 100
6, 2760, Note_on_c, 4, 63, 100
6, 2820, Note_on_c, 4, 63, 0
6, 2820, Note_on_c, 4, 47, 0
6, 2820, Note_on_c, 4, 54, 0
6, 2820, Note_on_c, 4, 59, 0
6, 2820, Note_on_c, 4, 50, 100
6, 2820, Note_on_c, 4, 57, 100
6, 2820, Note_on_c, 4, 62, 100
6, 2940, Note_on_c, 4, 62, 0
6, 2940, Note_on_c, 4, 57, 0
6, 2940, Note_on_c, 4, 50, 0
6, 2940, Note_on_c, 4, 50, 100
6, 2940, Note_on_c, 4, 57, 100
6, 2940, Note_on_c, 4, 62, 100
6, 3000, Note_on_c, 4, 62, 0
6, 3000, Note_on_c, 4, 57, 0
6, 3000, Note_on_c, 4, 50, 0
6, 3000, Note_on_c, 4, 50, 100
6, 3000, Note_on_c, 4, 57, 100
6, 3000, Note_on_c, 4, 62, 100
6, 3060, Note_on_c, 4, 62, 0
6, 3060, Note_on_c, 4, 57, 0
6, 3060, Note_on_c, 4, 50, 0
6, 3060, Note_on_c, 4, 45, 100
6, 3060, Note_on_c, 4, 52, 100
6, 3060, Note_on_c, 4, 57, 100
6, 3060, Note_on_c, 4, 61, 100
6, 3060, Note_on_c, 4, 64, 100
6, 3180, Note_on_c, 4, 64, 0
6, 3180, Note_on_c, 4, 57, 0
6, 3180, Note_on_c, 4, 45, 0
6, 3180, Note_on_c, 4, 52, 0
6, 3180, Note_on_c, 4, 61, 0
6, 3180, Note_on_c, 4, 45, 100
6, 3180, Note_on_c, 4, 52, 100
6, 3180, Note_on_c, 4, 57, 100
6, 3180, Note_on_c, 4, 61, 100
6, 3180, Note_on_c, 4, 64, 100
6, 3240, Note_on_c, 4, 64, 0
6, 3240, Note_on_c, 4, 57, 0
6, 3240, Note_on_c, 4, 45, 0
6, 3240, Note_on_c, 4, 52, 0
6, 3240, Note_on_c, 4, 61, 0
6, 3240, Note_on_c, 4, 57, 100
6, 3240, Note_on_c, 4, 45, 100
6, 3240, Note_on_c, 4, 52, 100
6, 3240, Note_on_c, 4, 61, 100
6, 3240, Note_on_c, 4, 64, 100
6, 3300, Note_on_c, 4, 64, 0
6, 3300, Note_on_c, 4, 52, 0
6, 3300, Note_on_c, 4, 57, 0
6, 3300, Note_on_c, 4, 45, 0
6, 3300, Note_on_c, 4, 61, 0
6, 3300, Note_on_c, 4, 47, 100
6, 3300, Note_on_c, 4, 54, 100
6, 3300, Note_on_c, 4, 59, 100
6, 3300, Note_on_c, 4, 63, 100
6, 3420, Note_on_c, 4, 63, 0
6, 3420, Note_on_c, 4, 47, 0
6, 3420, Note_on_c, 4, 54, 0
6, 3420, Note_on_c, 4, 59, 0
6, 3420, Note_on_c, 4, 47, 100
6, 3420, Note_on_c, 4, 54, 100
6, 3420, Note_on_c, 4, 59, 100
6, 3420, Note_on_c, 4, 63, 100
6, 3480, Note_on_c, 4, 63, 0
6, 3480, Note_on_c, 4, 47, 0
6, 3480, Note_on_c, 4, 54, 0
6, 3480, Note_on_c, 4, 59, 0
6, 3480, Note_on_c, 4, 47, 100
6, 3480, Note_on_c, 4, 54, 100
6, 3480, Note_on_c, 4, 59, 100
6, 3480, Note_on_c, 4, 63, 100
6, 3600, Note_on_c, 4, 63, 0
6, 3600, Note_on_c, 4, 47, 0
6, 3600, Note_on_c, 4, 54, 0
6, 3600, Note_on_c, 4, 59, 0
6, 3600, Note_on_c, 4, 47, 100
6, 3600, Note_on_c, 4, 54, 100
6, 3600, Note_on_c, 4, 59, 100
6, 3600, Note_on_c, 4, 63, 100
6, 3660, Note_on_c, 4, 63, 0
6, 3660, Note_on_c, 4, 47, 0
6, 3660, Note_on_c, 4, 54, 0
6, 3660, Note_on_c, 4, 59, 0
6, 3660, Note_on_c, 4, 54, 100
6, 3660, Note_on_c, 4, 59, 100
6, 3660, Note_on_c, 4, 47, 100
6, 3660, Note_on_c, 4, 63, 100
6, 3720, Note_on_c, 4, 63, 0
6, 3720, Note_on_c, 4, 54, 0
6, 3720, Note_on_c, 4, 59, 0
6, 3720, Note_on_c, 4, 47, 0
6, 3720, Note_on_c, 4, 54, 100
6, 3720, Note_on_c, 4, 59, 100
6, 3720, Note_on_c, 4, 47, 100
6, 3720, Note_on_c, 4, 63, 100
6, 3780, Note_on_c, 4, 63, 0
6, 3780, Note_on_c, 4, 54, 0
6, 3780, Note_on_c, 4, 59, 0
6, 3780, Note_on_c, 4, 47, 0
6, 3780, Note_on_c, 4, 42, 100
6, 3780, Note_on_c, 4, 54, 100
6, 3780, Note_on_c, 4, 49, 100
6, 3780, Note_on_c, 4, 57, 100
6, 3780, Note_on_c, 4, 61, 100
6, 3900, Note_on_c, 4, 61, 0
6, 3900, Note_on_c, 4, 49, 0
6, 3900, Note_on_c, 4, 42, 0
6, 3900, Note_on_c, 4, 54, 0
6, 3900, Note_on_c, 4, 57, 0
6, 3900, Note_on_c, 4, 54, 100
6, 3900, Note_on_c, 4, 49, 100
6, 3900, Note_on_c, 4, 42, 100
6, 3900, Note_on_c, 4, 57, 100
6, 3900, Note_on_c, 4, 61, 100
6, 3960, Note_on_c, 4, 61, 0
6, 3960, Note_on_c, 4, 42, 0
6, 3960, Note_on_c, 4, 54, 0
6, 3960, Note_on_c, 4, 49, 0
6, 3960, Note_on_c, 4, 57, 0
6, 3960, Note_on_c, 4, 61, 100
6, 3960, Note_on_c, 4, 54, 100
6, 3960, Note_on_c, 4, 49, 100
6, 3960, Note_on_c, 4, 42, 100
6, 3960, Note_on_c, 4, 57, 100
6, 4020, Note_on_c, 4, 57, 0
6, 4020, Note_on_c, 4, 49, 0
6, 4020, Note_on_c, 4, 61, 0
6, 4020, Note_on_c, 4, 54, 0
6, 4020, Note_on_c, 4, 42, 0
6, 4020, Note_on_c, 4, 47, 100
6, 4020, Note_on_c, 4, 54, 100
6, 4020, Note_on_c, 4, 59, 100
6, 4020, Note_on_c, 4, 63, 100
6, 4140, Note_on_c, 4, 63, 0
6, 4140, Note_on_c, 4, 47, 0
6, 4140, Note_on_c, 4, 54, 0
6, 4140, Note_on_c, 4, 59, 0
6, 4140, Note_on_c, 4, 47, 100
6, 4140, Note_on_c, 4, 54, 100
6, 4140, Note_on_c, 4, 59, 100
6, 4140, Note_on_c, 4, 63, 100
6, 4200, Note_on_c, 4, 63, 0
6, 4200, Note_on_c, 4, 47, 0
6, 4200, Note_on_c, 4, 54, 0
6, 4200, Note_on_c, 4, 59, 0
6, 4200, Note_on_c, 4, 47, 100
6, 4200, Note_on_c, 4, 54, 100
6, 4200, Note_on_c, 4, 59, 100
6, 4200, Note_on_c, 4, 63, 100
6, 4320, Note_on_c, 4, 63, 0
6, 4320, Note_on_c, 4, 47, 0
6, 4320, Note_on_c, 4, 54, 0
6, 4320, Note_on_c, 4, 59, 0
6, 4320, Note_on_c, 4, 64, 100
6, 4320, Note_on_c, 4, 59, 100
6, 4320, Note_on_c, 4, 56, 100
6, 4320, Note_on_c, 4, 52, 100
6, 4320, Note_on_c, 4, 47, 100
6, 4320, Note_on_c, 4, 40, 100
6, 4440, Note_on_c, 4, 40, 0
6, 4440, Note_on_c, 4, 59, 0
6, 4440, Note_on_c, 4, 56, 0
6, 4440, Note_on_c, 4, 64, 0
6, 4440, Note_on_c, 4, 47, 0
6, 4440, Note_on_c, 4, 52, 0
6, 4440, Note_on_c, 4, 40, 100
6, 4440, Note_on_c, 4, 47, 100
6, 4440, Note_on_c, 4, 52, 100
6, 4440, Note_on_c, 4, 56, 100
6, 4440, Note_on_c, 4, 59, 100
6, 4440, Note_on_c, 4, 64, 100
6, 4560, Note_on_c, 4, 64, 0
6, 4560, Note_on_c, 4, 47, 0
6, 4560, Note_on_c, 4, 52, 0
6, 4560, Note_on_c, 4, 40, 0
6, 4560, Note_on_c, 4, 59, 0
6, 4560, Note_on_c, 4, 56, 0
6, 4560, Note_on_c, 4, 40, 100
6, 4560, Note_on_c, 4, 47, 100
6, 4560, Note_on_c, 4, 52, 100
6, 4560, Note_on_c, 4, 56, 100
6, 4560, Note_on_c, 4, 59, 100
6, 4560, Note_on_c, 4, 64, 100
6, 4620, Note_on_c, 4, 64, 0
6, 4620, Note_on_c, 4, 47, 0
6, 4620, Note_on_c, 4, 52, 0
6, 4620, Note_on_c, 4, 40, 0
6, 4620, Note_on_c, 4, 59, 0
6, 4620, Note_on_c, 4, 56, 0
6, 4620, Note_on_c, 4, 59, 100
6, 4620, Note_on_c, 4, 56, 100
6, 4620, Note_on_c, 4, 52, 100
6, 4620, Note_on_c, 4, 47, 100
6, 4620, Note_on_c, 4, 40, 100
6, 4620, Note_on_c, 4, 64, 100
6, 4680, Note_on_c, 4, 64, 0
6, 4680, Note_on_c, 4, 56, 0
6, 4680, Note_on_c, 4, 52, 0
6, 4680, Note_on_c, 4, 59, 0
6, 4680, Note_on_c, 4, 40, 0
6, 4680, Note_on_c, 4, 47, 0
6, 4680, Note_on_c, 4, 52, 100
6, 4680, Note_on_c, 4, 56, 100
6, 4680, Note_on_c, 4, 59, 100
6, 4680, Note_on_c, 4, 47, 100
6, 4680, Note_on_c, 4, 40, 100
6, 4680, Note_on_c, 4, 64, 100
6, 4740, Note_on_c, 4, 64, 0
6, 4740, Note_on_c, 4, 56, 0
6, 4740, Note_on_c, 4, 59, 0
6, 4740, Note_on_c, 4, 52, 0
6, 4740, Note_on_c, 4, 40, 0
6, 4740, Note_on_c, 4, 47, 0
6, 4740, Note_on_c, 4, 47, 100
6, 4740, Note_on_c, 4, 59, 100
6, 4740, Note_on_c, 4, 54, 100
6, 4740, Note_on_c, 4, 63, 100
6, 4860, Note_on_c, 4, 63, 0
6, 4860, Note_on_c, 4, 47, 0
6, 4860, Note_on_c, 4, 59, 0
6, 4860, Note_on_c, 4, 54, 0
6, 4860, Note_on_c, 4, 47, 100
6, 4860, Note_on_c, 4, 54, 100
6, 4860, Note_on_c, 4, 59, 100
6, 4860, Note_on_c, 4, 63, 100
6, 4920, Note_on_c, 4, 63, 0
6, 4920, Note_on_c, 4, 47, 0
6, 4920, Note_on_c, 4, 54, 0
6, 4920, Note_on_c, 4, 59, 0
6, 4920, Note_on_c, 4, 47, 100
6, 4920, Note_on_c, 4, 54, 100
6, 4920, Note_on_c, 4, 59, 100
6, 4920, Note_on_c, 4, 63, 100
6, 5040, Note_on_c, 4, 63, 0
6, 5040, Note_on_c, 4, 47, 0
6, 5040, Note_on_c, 4, 54, 0
6, 5040, Note_on_c, 4, 59, 0
6, 5040, Note_on_c, 4, 47, 100
6, 5040, Note_on_c, 4, 54, 100
6, 5040, Note_on_c, 4, 59, 100
6, 5040, Note_on_c, 4, 63, 100
6, 5100, Note_on_c, 4, 63, 0
6, 5100, Note_on_c, 4, 47, 0
6, 5100, Note_on_c, 4, 54, 0
6, 5100, Note_on_c, 4, 59, 0
6, 5100, Note_on_c, 4, 47, 100
6, 5100, Note_on_c, 4, 54, 100
6, 5100, Note_on_c, 4, 59, 100
6, 5100, Note_on_c, 4, 63, 100
6, 5160, Note_on_c, 4, 63, 0
6, 5160, Note_on_c, 4, 47, 0
6, 5160, Note_on_c, 4, 54, 0
6, 5160, Note_on_c, 4, 59, 0
6, 5160, Note_on_c, 4, 47, 100
6, 5160, Note_on_c, 4, 54, 100
6, 5160, Note_on_c, 4, 59, 100
6, 5160, Note_on_c, 4, 63, 100
6, 5280, Note_on_c, 4, 63, 0
6, 5280, Note_on_c, 4, 47, 0
6, 5280, Note_on_c, 4, 54, 0
6, 5280, Note_on_c, 4, 59, 0
6, 5280, Note_on_c, 4, 62, 100
6, 5280, Note_on_c, 4, 57, 100
6, 5280, Note_on_c, 4, 50, 100
6, 5400, Note_on_c, 4, 50, 0
6, 5400, Note_on_c, 4, 57, 0
6, 5400, Note_on_c, 4, 62, 0
6, 5400, Note_on_c, 4, 50, 100
6, 5400, Note_on_c, 4, 57, 100
6, 5400, Note_on_c, 4, 62, 100
6, 5460, Note_on_c, 4, 62, 0
6, 5460, Note_on_c, 4, 57, 0
6, 5460, Note_on_c, 4, 50, 0
6, 5460, Note_on_c, 4, 45, 100
6, 5460, Note_on_c, 4, 52, 100
6, 5460, Note_on_c, 4, 57, 100
6, 5460, Note_on_c, 4, 61, 100
6, 5460, Note_on_c, 4, 64, 100
6, 5580, Note_on_c, 4, 64, 0
6, 5580, Note_on_c, 4, 57, 0
6, 5580, Note_on_c, 4, 45, 0
6, 5580, Note_on_c, 4, 52, 0
6, 5580, Note_on_c, 4, 61, 0
6, 5580, Note_on_c, 4, 45, 100
6, 5580, Note_on_c, 4, 52, 100
6, 5580, Note_on_c, 4, 57, 100
6, 5580, Note_on_c, 4, 61, 100
6, 5580, Note_on_c, 4, 64, 100
6, 5640, Note_on_c, 4, 64, 0
6, 5640, Note_on_c, 4, 57, 0
6, 5640, Note_on_c, 4, 45, 0
6, 5640, Note_on_c, 4, 52, 0
6, 5640, Note_on_c, 4, 61, 0
6, 5640, Note_on_c, 4, 57, 100
6, 5640, Note_on_c, 4, 45, 100
6, 5640, Note_on_c, 4, 52, 100
6, 5640, Note_on_c, 4, 61, 100
6, 5640, Note_on_c, 4, 64, 100
6, 5700, Note_on_c, 4, 64, 0
6, 5700, Note_on_c, 4, 52, 0
6, 5700, Note_on_c, 4, 57, 0
6, 5700, Note_on_c, 4, 45, 0
6, 5700, Note_on_c, 4, 61, 0
6, 5700, Note_on_c, 4, 47, 100
6, 5700, Note_on_c, 4, 54, 100
6, 5700, Note_on_c, 4, 59, 100
6, 5700, Note_on_c, 4, 63, 100
6, 5820, Note_on_c, 4, 63, 0
6, 5820, Note_on_c, 4, 47, 0
6, 5820, Note_on_c, 4, 54, 0
6, 5820, Note_on_c, 4, 59, 0
6, 5820, Note_on_c, 4, 47, 100
6, 5820, Note_on_c, 4, 54, 100
6, 5820, Note_on_c, 4, 59, 100
6, 5820, Note_on_c, 4, 63, 100
6, 5880, Note_on_c, 4, 63, 0
6, 5880, Note_on_c, 4, 47, 0
6, 5880, Note_on_c, 4, 54, 0
6, 5880, Note_on_c, 4, 59, 0
6, 5880, Note_on_c, 4, 47, 100
6, 5880, Note_on_c, 4, 54, 100
6, 5880, Note_on_c, 4, 59, 100
6, 5880, Note_on_c, 4, 63, 100
6, 6000, Note_on_c, 4, 63, 0
6, 6000, Note_on_c, 4, 47, 0
6, 6000, Note_on_c, 4, 54, 0
6, 6000, Note_on_c, 4, 59, 0
6, 6000, Note_on_c, 4, 47, 100
6, 6000, Note_on_c, 4, 54, 100
6, 6000, Note_on_c, 4, 59, 100
6, 6000, Note_on_c, 4, 63, 100
6, 6060, Note_on_c, 4, 63, 0
6, 6060, Note_on_c, 4, 47, 0
6, 6060, Note_on_c, 4, 54, 0
6, 6060, Note_on_c, 4, 59, 0
6, 6060, Note_on_c, 4, 54, 100
6, 6060, Note_on_c, 4, 59, 100
6, 6060, Note_on_c, 4, 47, 100
6, 6060, Note_on_c, 4, 63, 100
6, 6120, Note_on_c, 4, 63, 0
6, 6120, Note_on_c, 4, 54, 0
6, 6120, Note_on_c, 4, 59, 0
6, 6120, Note_on_c, 4, 47, 0
6, 6120, Note_on_c, 4, 54, 100
6, 6120, Note_on_c, 4, 59, 100
6, 6120, Note_on_c, 4, 47, 100
6, 6120, Note_on_c, 4, 63, 100
6, 6180, Note_on_c, 4, 63, 0
6, 6180, Note_on_c, 4, 54, 0
6, 6180, Note_on_c, 4, 59, 0
6, 6180, Note_on_c, 4, 47, 0
6, 6180, Note_on_c, 4, 42, 100
6, 6180, Note_on_c, 4, 54, 100
6, 6180, Note_on_c, 4, 49, 100
6, 6180, Note_on_c, 4, 57, 100
6, 6180, Note_on_c, 4, 61, 100
6, 6300, Note_on_c, 4, 61, 0
6, 6300, Note_on_c, 4, 49, 0
6, 6300, Note_on_c, 4, 42, 0
6, 6300, Note_on_c, 4, 54, 0
6, 6300, Note_on_c, 4, 57, 0
6, 6300, Note_on_c, 4, 54, 100
6, 6300, Note_on_c, 4, 49, 100
6, 6300, Note_on_c, 4, 42, 100
6, 6300, Note_on_c, 4, 57, 100
6, 6300, Note_on_c, 4, 61, 100
6, 6360, Note_on_c, 4, 61, 0
6, 6360, Note_on_c, 4, 42, 0
6, 6360, Note_on_c, 4, 54, 0
6, 6360, Note_on_c, 4, 49, 0
6, 6360, Note_on_c, 4, 57, 0
6, 6360, Note_on_c, 4, 61, 100
6, 6360, Note_on_c, 4, 57, 100
6, 6360, Note_on_c, 4, 54, 100
6, 6360, Note_on_c, 4, 49, 100
6, 6360, Note_on_c, 4, 42, 100
6, 6480, Note_on_c, 4, 42, 0
6, 6480, Note_on_c, 4, 54, 0
6, 6480, Note_on_c, 4, 61, 0
6, 6480, Note_on_c, 4, 57, 0
6, 6480, Note_on_c, 4, 49, 0
6, 6480, Note_on_c, 4, 47, 100
6, 6480, Note_on_c, 4, 54, 100
6, 6480, Note_on_c, 4, 59, 100
6, 6480, Note_on_c, 4, 63, 100
6, 6540, Note_on_c, 4, 63, 0
6, 6540, Note_on_c, 4, 47, 0
6, 6540, Note_on_c, 4, 54, 0
6, 6540, Note_on_c, 4, 59, 0
6, 6540, Note_on_c, 4, 47, 100
6, 6540, Note_on_c, 4, 54, 100
6, 6540, Note_on_c, 4, 59, 100
6, 6540, Note_on_c, 4, 63, 100
6, 6600, Note_on_c, 4, 63, 0
6, 6600, Note_on_c, 4, 47, 0
6, 6600, Note_on_c, 4, 54, 0
6, 6600, Note_on_c, 4, 59, 0
6, 6600, Note_on_c, 4, 63, 100
6, 6600, Note_on_c, 4, 59, 100
6, 6600, Note_on_c, 4, 54, 100
6, 6600, Note_on_c, 4, 47, 100
6, 6660, Note_on_c, 4, 47, 0
6, 6660, Note_on_c, 4, 63, 0
6, 6660, Note_on_c, 4, 59, 0
6, 6660, Note_on_c, 4, 54, 0
6, 6660, Note_on_c, 4, 47, 100
6, 6660, Note_on_c, 4, 54, 100
6, 6660, Note_on_c, 4, 59, 100
6, 6660, Note_on_c, 4, 63, 100
6, 6720, Note_on_c, 4, 63, 0
6, 6720, Note_on_c, 4, 47, 0
6, 6720, Note_on_c, 4, 54, 0
6, 6720, Note_on_c, 4, 59, 0
6, 6720, Note_on_c, 4, 64, 100
6, 6720, Note_on_c, 4, 59, 100
6, 6720, Note_on_c, 4, 56, 100
6, 6720, Note_on_c, 4, 52, 100
6, 6720, Note_on_c, 4, 47, 100
6, 6720, Note_on_c, 4, 40, 100
6, 6840, Note_on_c, 4, 40, 0
6, 6840, Note_on_c, 4, 59, 0
6, 6840, Note_on_c, 4, 56, 0
6, 6840, Note_on_c, 4, 64, 0
6, 6840, Note_on_c, 4, 47, 0
6, 6840, Note_on_c, 4, 52, 0
6, 6840, Note_on_c, 4, 40, 100
6, 6840, Note_on_c, 4, 47, 100
6, 6840, Note_on_c, 4, 52, 100
6, 6840, Note_on_c, 4, 56, 100
6, 6840, Note_on_c, 4, 59, 100
6, 6840, Note_on_c, 4, 64, 100
6, 6960, Note_on_c, 4, 64, 0
6, 6960, Note_on_c, 4, 47, 0
6, 6960, Note_on_c, 4, 52, 0
6, 6960, Note_on_c, 4, 40, 0
6, 6960, Note_on_c, 4, 59, 0
6, 6960, Note_on_c, 4, 56, 0
6, 6960, Note_on_c, 4, 40, 100
6, 6960, Note_on_c, 4, 47, 100
6, 6960, Note_on_c, 4, 52, 100
6, 6960, Note_on_c, 4, 56, 100
6, 6960, Note_on_c, 4, 59, 100
6, 6960, Note_on_c, 4, 64, 100
6, 7020, Note_on_c, 4, 64, 0
6, 7020, Note_on_c, 4, 47, 0
6, 7020, Note_on_c, 4, 52, 0
6, 7020, Note_on_c, 4, 40, 0
6, 7020, Note_on_c, 4, 59, 0
6, 7020, Note_on_c, 4, 56, 0
6, 7020, Note_on_c, 4, 59, 100
6, 7020, Note_on_c, 4, 56, 100
6, 7020, Note_on_c, 4, 52, 100
6, 7020, Note_on_c, 4, 47, 100
6, 7020, Note_on_c, 4, 40, 100
6, 7020, Note_on_c, 4, 64, 100
6, 7140, Note_on_c, 4, 64, 0
6, 7140, Note_on_c, 4, 56, 0
6, 7140, Note_on_c, 4, 52, 0
6, 7140, Note_on_c, 4, 59, 0
6, 7140, Note_on_c, 4, 40, 0
6, 7140, Note_on_c, 4, 47, 0
6, 7140, Note_on_c, 4, 47, 100
6, 7140, Note_on_c, 4, 59, 100
6, 7140, Note_on_c, 4, 54, 100
6, 7140, Note_on_c, 4, 63, 100
6, 7260, Note_on_c, 4, 63, 0
6, 7260, Note_on_c, 4, 47, 0
6, 7260, Note_on_c, 4, 59, 0
6, 7260, Note_on_c, 4, 54, 0
6, 7260, Note_on_c, 4, 47, 100
6, 7260, Note_on_c, 4, 54, 100
6, 7260, Note_on_c, 4, 59, 100
6, 7260, Note_on_c, 4, 63, 100
6, 7320, Note_on_c, 4, 63, 0
6, 7320, Note_on_c, 4, 47, 0
6, 7320, Note_on_c, 4, 54, 0
6, 7320, Note_on_c, 4, 59, 0
6, 7320, Note_on_c, 4, 47, 100
6, 7320, Note_on_c, 4, 54, 100
6, 7320, Note_on_c, 4, 59, 100
6, 7320, Note_on_c, 4, 63, 100
6, 7440, Note_on_c, 4, 63, 0
6, 7440, Note_on_c, 4, 47, 0
6, 7440, Note_on_c, 4, 54, 0
6, 7440, Note_on_c, 4, 59, 0
6, 7440, Note_on_c, 4, 47, 100
6, 7440, Note_on_c, 4, 54, 100
6, 7440, Note_on_c, 4, 59, 100
6, 7440, Note_on_c, 4, 63, 100
6, 7500, Note_on_c, 4, 63, 0
6, 7500, Note_on_c, 4, 47, 0
6, 7500, Note_on_c, 4, 54, 0
6, 7500, Note_on_c, 4, 59, 0
6, 7500, Note_on_c, 4, 47, 100
6, 7500, Note_on_c, 4, 54, 100
6, 7500, Note_on_c, 4, 59, 100
6, 7500, Note_on_c, 4, 63, 100
6, 7560, Note_on_c, 4, 63, 0
6, 7560, Note_on_c, 4, 47, 0
6, 7560, Note_on_c, 4, 54, 0
6, 7560, Note_on_c, 4, 59, 0
6, 7560, Note_on_c, 4, 47, 100
6, 7560, Note_on_c, 4, 54, 100
6, 7560, Note_on_c, 4, 59, 100
6, 7560, Note_on_c, 4, 63, 100
6, 7620, Note_on_c, 4, 63, 0
6, 7620, Note_on_c, 4, 47, 0
6, 7620, Note_on_c, 4, 54, 0
6, 7620, Note_on_c, 4, 59, 0
6, 7620, Note_on_c, 4, 50, 100
6, 7620, Note_on_c, 4, 57, 100
6, 7620, Note_on_c, 4, 62, 100
6, 7740, Note_on_c, 4, 62, 0
6, 7740, Note_on_c, 4, 57, 0
6, 7740, Note_on_c, 4, 50, 0
6, 7740, Note_on_c, 4, 50, 100
6, 7740, Note_on_c, 4, 57, 100
6, 7740, Note_on_c, 4, 62, 100
6, 7860, Note_on_c, 4, 62, 0
6, 7860, Note_on_c, 4, 57, 0
6, 7860, Note_on_c, 4, 50, 0
6, 7860, Note_on_c, 4, 45, 100
6, 7860, Note_on_c, 4, 52, 100
6, 7860, Note_on_c, 4, 57, 100
6, 7860, Note_on_c, 4, 61, 100
6, 7860, Note_on_c, 4, 64, 100
6, 7980, Note_on_c, 4, 64, 0
6, 7980, Note_on_c, 4, 57, 0
6, 7980, Note_on_c, 4, 45, 0
6, 7980, Note_on_c, 4, 52, 0
6, 7980, Note_on_c, 4, 61, 0
6, 7980, Note_on_c, 4, 45, 100
6, 7980, Note_on_c, 4, 52, 100
6, 7980, Note_on_c, 4, 57, 100
6, 7980, Note_on_c, 4, 61, 100
6, 7980, Note_on_c, 4, 64, 100
6, 8100, Note_on_c, 4, 64, 0
6, 8100, Note_on_c, 4, 57, 0
6, 8100, Note_on_c, 4, 45, 0
6, 8100, Note_on_c, 4, 52, 0
6, 8100, Note_on_c, 4, 61, 0
6, 8100, Note_on_c, 4, 47, 100
6, 8100, Note_on_c, 4, 54, 100
6, 8100, Note_on_c, 4, 59, 100
6, 8100, Note_on_c, 4, 63, 100
6, 8220, Note_on_c, 4, 63, 0
6, 8220, Note_on_c, 4, 47, 0
6, 8220, Note_on_c, 4, 54, 0
6, 8220, Note_on_c, 4, 59, 0
6, 8220, Note_on_c, 4, 47, 100
6, 8220, Note_on_c, 4, 54, 100
6, 8220, Note_on_c, 4, 59, 100
6, 8220, Note_on_c, 4, 63, 100
6, 8280, Note_on_c, 4, 63, 0
6, 8280, Note_on_c, 4, 47, 0
6, 8280, Note_on_c, 4, 54, 0
6, 8280, Note_on_c, 4, 59, 0
6, 8280, Note_on_c, 4, 47, 100
6, 8280, Note_on_c, 4, 54, 100
6, 8280, Note_on_c, 4, 59, 100
6, 8280, Note_on_c, 4, 63, 100
6, 8400, Note_on_c, 4, 63, 0
6, 8400, Note_on_c, 4, 47, 0
6, 8400, Note_on_c, 4, 54, 0
6, 8400, Note_on_c, 4, 59, 0
6, 8400, Note_on_c, 4, 47, 100
6, 8400, Note_on_c, 4, 54, 100
6, 8400, Note_on_c, 4, 59, 100
6, 8400, Note_on_c, 4, 63, 100
6, 8460, Note_on_c, 4, 63, 0
6, 8460, Note_on_c, 4, 47, 0
6, 8460, Note_on_c, 4, 54, 0
6, 8460, Note_on_c, 4, 59, 0
6, 8460, Note_on_c, 4, 54, 100
6, 8460, Note_on_c, 4, 59, 100
6, 8460, Note_on_c, 4, 47, 100
6, 8460, Note_on_c, 4, 63, 100
6, 8520, Note_on_c, 4, 63, 0
6, 8520, Note_on_c, 4, 54, 0
6, 8520, Note_on_c, 4, 59, 0
6, 8520, Note_on_c, 4, 47, 0
6, 8520, Note_on_c, 4, 54, 100
6, 8520, Note_on_c, 4, 59, 100
6, 8520, Note_on_c, 4, 47, 100
6, 8520, Note_on_c, 4, 63, 100
6, 8580, Note_on_c, 4, 63, 0
6, 8580, Note_on_c, 4, 54, 0
6, 8580, Note_on_c, 4, 59, 0
6, 8580, Note_on_c, 4, 47, 0
6, 8580, Note_on_c, 4, 42, 100
6, 8580, Note_on_c, 4, 54, 100
6, 8580, Note_on_c, 4, 49, 100
6, 8580, Note_on_c, 4, 57, 100
6, 8580, Note_on_c, 4, 61, 100
6, 8700, Note_on_c, 4, 61, 0
6, 8700, Note_on_c, 4, 49, 0
6, 8700, Note_on_c, 4, 42, 0
6, 8700, Note_on_c, 4, 54, 0
6, 8700, Note_on_c, 4, 57, 0
6, 8700, Note_on_c, 4, 54, 100
6, 8700, Note_on_c, 4, 49, 100
6, 8700, Note_on_c, 4, 42, 100
6, 8700, Note_on_c, 4, 57, 100
6, 8700, Note_on_c, 4, 61, 100
6, 8760, Note_on_c, 4, 61, 0
6, 8760, Note_on_c, 4, 42, 0
6, 8760, Note_on_c, 4, 54, 0
6, 8760, Note_on_c, 4, 49, 0
6, 8760, Note_on_c, 4, 57, 0
6, 8760, Note_on_c, 4, 61, 100
6, 8760, Note_on_c, 4, 54, 100
6, 8760, Note_on_c, 4, 49, 100
6, 8760, Note_on_c, 4, 42, 100
6, 8760, Note_on_c, 4, 57, 100
6, 8880, Note_on_c, 4, 57, 0
6, 8880, Note_on_c, 4, 49, 0
6, 8880, Note_on_c, 4, 61, 0
6, 8880, Note_on_c, 4, 54, 0
6, 8880, Note_on_c, 4, 42, 0
6, 8880, Note_on_c, 4, 47, 100
6, 8880, Note_on_c, 4, 54, 100
6, 8880, Note_on_c, 4, 59, 100
6, 8880, Note_on_c, 4, 63, 100
6, 8940, Note_on_c, 4, 63, 0
6, 8940, Note_on_c, 4, 47, 0
6, 8940, Note_on_c, 4, 54, 0
6, 8940, Note_on_c, 4, 59, 0
6, 8940, Note_on_c, 4, 47, 100
6, 8940, Note_on_c, 4, 54, 100
6, 8940, Note_on_c, 4, 59, 100
6, 8940, Note_on_c, 4, 63, 100
6, 9000, Note_on_c, 4, 63, 0
6, 9000, Note_on_c, 4, 47, 0
6, 9000, Note_on_c, 4, 54, 0
6, 9000, Note_on_c, 4, 59, 0
6, 9000, Note_on_c, 4, 47, 100
6, 9000, Note_on_c, 4, 54, 100
6, 9000, Note_on_c, 4, 59, 100
6, 9000, Note_on_c, 4, 63, 100
6, 9120, Note_on_c, 4, 63, 0
6, 9120, Note_on_c, 4, 47, 0
6, 9120, Note_on_c, 4, 54, 0
6, 9120, Note_on_c, 4, 59, 0
6, 9120, Note_on_c, 4, 64, 100
6, 9120, Note_on_c, 4, 61, 100
6, 9120, Note_on_c, 4, 57, 100
6, 9120, Note_on_c, 4, 52, 100
6, 9120, Note_on_c, 4, 45, 100
6, 9540, Note_on_c, 4, 45, 0
6, 9540, Note_on_c, 4, 57, 0
6, 9540, Note_on_c, 4, 64, 0
6, 9540, Note_on_c, 4, 61, 0
6, 9540, Note_on_c, 4, 52, 0
6, 9540, Note_on_c, 4, 47, 100
6, 9540, Note_on_c, 4, 66, 100
6, 9540, Note_on_c, 4, 63, 100
6, 9540, Note_on_c, 4, 59, 100
6, 9540, Note_on_c, 4, 54, 100
6, 9660, Note_on_c, 4, 54, 0
6, 9660, Note_on_c, 4, 63, 0
6, 9660, Note_on_c, 4, 47, 0
6, 9660, Note_on_c, 4, 66, 0
6, 9660, Note_on_c, 4, 59, 0
6, 9660, Note_on_c, 4, 47, 100
6, 9660, Note_on_c, 4, 54, 100
6, 9660, Note_on_c, 4, 59, 100
6, 9660, Note_on_c, 4, 63, 100
6, 9660, Note_on_c, 4, 66, 100
6, 9780, Note_on_c, 4, 66, 0
6, 9780, Note_on_c, 4, 59, 0
6, 9780, Note_on_c, 4, 47, 0
6, 9780, Note_on_c, 4, 54, 0
6, 9780, Note_on_c, 4, 63, 0
6, 9780, Note_on_c, 4, 63, 100
6, 9780, Note_on_c, 4, 59, 100
6, 9780, Note_on_c, 4, 54, 100
6, 9780, Note_on_c, 4, 47, 100
6, 9780, Note_on_c, 4, 66, 100
6, 9900, Note_on_c, 4, 66, 0
6, 9900, Note_on_c, 4, 54, 0
6, 9900, Note_on_c, 4, 63, 0
6, 9900, Note_on_c, 4, 59, 0
6, 9900, Note_on_c, 4, 47, 0
6, 9900, Note_on_c, 4, 47, 100
6, 9900, Note_on_c, 4, 54, 100
6, 9900, Note_on_c, 4, 59, 100
6, 9900, Note_on_c, 4, 63, 100
6, 9900, Note_on_c, 4, 66, 100
6, 10080, Note_on_c, 4, 66, 0
6, 10080, Note_on_c, 4, 59, 0
6, 10080, Note_on_c, 4, 47, 0
6, 10080, Note_on_c, 4, 54, 0
6, 10080, Note_on_c, 4, 63, 0
6, 10080, Note_on_c, 4, 64, 100
6, 10080, Note_on_c, 4, 59, 100
6, 10080, Note_on_c, 4, 56, 100
6, 10080, Note_on_c, 4, 52, 100
6, 10080, Note_on_c, 4, 47, 100
6, 10080, Note_on_c, 4, 40, 100
6, 10380, Note_on_c, 4, 40, 0
6, 10380, Note_on_c, 4, 59, 0
6, 10380, Note_on_c, 4, 56, 0
6, 10380, Note_on_c, 4, 64, 0
6, 10380, Note_on_c, 4, 47, 0
6, 10380, Note_on_c, 4, 52, 0
6, 10380, Note_on_c, 4, 66, 100
6, 10380, Note_on_c, 4, 63, 100
6, 10380, Note_on_c, 4, 59, 100
6, 10380, Note_on_c, 4, 54, 100
6, 10380, Note_on_c, 4, 47, 100
6, 10500, Note_on_c, 4, 47, 0
6, 10500, Note_on_c, 4, 59, 0
6, 10500, Note_on_c, 4, 66, 0
6, 10500, Note_on_c, 4, 63, 0
6, 10500, Note_on_c, 4, 54, 0
6, 10500, Note_on_c, 4, 49, 100
6, 10500, Note_on_c, 4, 56, 100
6, 10500, Note_on_c, 4, 61, 100
6, 10500, Note_on_c, 4, 64, 100
6, 10500, Note_on_c, 4, 68, 100
6, 10860, Note_on_c, 4, 68, 0
6, 10860, Note_on_c, 4, 61, 0
6, 10860, Note_on_c, 4, 49, 0
6, 10860, Note_on_c, 4, 56, 0
6, 10860, Note_on_c, 4, 64, 0
6, 10860, Note_on_c, 4, 66, 100
6, 10860, Note_on_c, 4, 63, 100
6, 10860, Note_on_c, 4, 59, 100
6, 10860, Note_on_c, 4, 54, 100
6, 10860, Note_on_c, 4, 47, 100
6, 10920, Note_on_c, 4, 47, 0
6, 10920, Note_on_c, 4, 59, 0
6, 10920, Note_on_c, 4, 66, 0
6, 10920, Note_on_c, 4, 63, 0
6, 10920, Note_on_c, 4, 54, 0
6, 10920, Note_on_c, 4, 54, 100
6, 10920, Note_on_c, 4, 59, 100
6, 10920, Note_on_c, 4, 63, 100
6, 10920, Note_on_c, 4, 66, 100
6, 10920, Note_on_c, 4, 47, 100
6, 10980, Note_on_c, 4, 47, 0
6, 10980, Note_on_c, 4, 63, 0
6, 10980, Note_on_c, 4, 54, 0
6, 10980, Note_on_c, 4, 59, 0
6, 10980, Note_on_c, 4, 66, 0
6, 10980, Note_on_c, 4, 64, 100
6, 10980, Note_on_c, 4, 61, 100
6, 10980, Note_on_c, 4, 57, 100
6, 10980, Note_on_c, 4, 52, 100
6, 10980, Note_on_c, 4, 45, 100
6, 11340, Note_on_c, 4, 45, 0
6, 11340, Note_on_c, 4, 57, 0
6, 11340, Note_on_c, 4, 64, 0
6, 11340, Note_on_c, 4, 61, 0
6, 11340, Note_on_c, 4, 52, 0
6, 11340, Note_on_c, 4, 45, 100
6, 11340, Note_on_c, 4, 52, 100
6, 11340, Note_on_c, 4, 57, 100
6, 11340, Note_on_c, 4, 61, 100
6, 11340, Note_on_c, 4, 64, 100
6, 11460, Note_on_c, 4, 64, 0
6, 11460, Note_on_c, 4, 57, 0
6, 11460, Note_on_c, 4, 45, 0
6, 11460, Note_on_c, 4, 52, 0
6, 11460, Note_on_c, 4, 61, 0
6, 11460, Note_on_c, 4, 66, 100
6, 11460, Note_on_c, 4, 61, 100
6, 11460, Note_on_c, 4, 57, 100
6, 11460, Note_on_c, 4, 54, 100
6, 11460, Note_on_c, 4, 49, 100
6, 11460, Note_on_c, 4, 42, 100
6, 11580, Note_on_c, 4, 42, 0
6, 11580, Note_on_c, 4, 61, 0
6, 11580, Note_on_c, 4, 57, 0
6, 11580, Note_on_c, 4, 66, 0
6, 11580, Note_on_c, 4, 49, 0
6, 11580, Note_on_c, 4, 54, 0
6, 11580, Note_on_c, 4, 42, 100
6, 11580, Note_on_c, 4, 49, 100
6, 11580, Note_on_c, 4, 54, 100
6, 11580, Note_on_c, 4, 57, 100
6, 11580, Note_on_c, 4, 61, 100
6, 11580, Note_on_c, 4, 66, 100
6, 11700, Note_on_c, 4, 66, 0
6, 11700, Note_on_c, 4, 49, 0
6, 11700, Note_on_c, 4, 54, 0
6, 11700, Note_on_c, 4, 42, 0
6, 11700, Note_on_c, 4, 61, 0
6, 11700, Note_on_c, 4, 57, 0
6, 11700, Note_on_c, 4, 66, 100
6, 11700, Note_on_c, 4, 61, 100
6, 11700, Note_on_c, 4, 57, 100
6, 11700, Note_on_c, 4, 54, 100
6, 11700, Note_on_c, 4, 49, 100
6, 11700, Note_on_c, 4, 42, 100
6, 11820, Note_on_c, 4, 42, 0
6, 11820, Note_on_c, 4, 61, 0
6, 11820, Note_on_c, 4, 57, 0
6, 11820, Note_on_c, 4, 66, 0
6, 11820, Note_on_c, 4, 49, 0
6, 11820, Note_on_c, 4, 54, 0
6, 11820, Note_on_c, 4, 42, 100
6, 11820, Note_on_c, 4, 49, 100
6, 11820, Note_on_c, 4, 54, 100
6, 11820, Note_on_c, 4, 57, 100
6, 11820, Note_on_c, 4, 61, 100
6, 11820, Note_on_c, 4, 66, 100
6, 11880, Note_on_c, 4, 66, 0
6, 11880, Note_on_c, 4, 49, 0
6, 11880, Note_on_c, 4, 54, 0
6, 11880, Note_on_c, 4, 42, 0
6, 11880, Note_on_c, 4, 61, 0
6, 11880, Note_on_c, 4, 57, 0
6, 11880, Note_on_c, 4, 49, 100
6, 11880, Note_on_c, 4, 42, 100
6, 11880, Note_on_c, 4, 54, 100
6, 11880, Note_on_c, 4, 57, 100
6, 11880, Note_on_c, 4, 61, 100
6, 11880, Note_on_c, 4, 66, 100
6, 11940, Note_on_c, 4, 66, 0
6, 11940, Note_on_c, 4, 42, 0
6, 11940, Note_on_c, 4, 54, 0
6, 11940, Note_on_c, 4, 49, 0
6, 11940, Note_on_c, 4, 61, 0
6, 11940, Note_on_c, 4, 57, 0
6, 11940, Note_on_c, 4, 49, 100
6, 11940, Note_on_c, 4, 42, 100
6, 11940, Note_on_c, 4, 54, 100
6, 11940, Note_on_c, 4, 57, 100
6, 11940, Note_on_c, 4, 61, 100
6, 11940, Note_on_c, 4, 66, 100
6, 12000, Note_on_c, 4, 66, 0
6, 12000, Note_on_c, 4, 42, 0
6, 12000, Note_on_c, 4, 54, 0
6, 12000, Note_on_c, 4, 49, 0
6, 12000, Note_on_c, 4, 61, 0
6, 12000, Note_on_c, 4, 57, 0
6, 12000, Note_on_c, 4, 68, 100
6, 12000, Note_on_c, 4, 64, 100
6, 12000, Note_on_c, 4, 61, 100
6, 12000, Note_on_c, 4, 56, 100
6, 12000, Note_on_c, 4, 49, 100
6, 12120, Note_on_c, 4, 49, 0
6, 12120, Note_on_c, 4, 61, 0
6, 12120, Note_on_c, 4, 68, 0
6, 12120, Note_on_c, 4, 64, 0
6, 12120, Note_on_c, 4, 56, 0
6, 12120, Note_on_c, 4, 64, 100
6, 12120, Note_on_c, 4, 61, 100
6, 12120, Note_on_c, 4, 56, 100
6, 12120, Note_on_c, 4, 68, 100
6, 12120, Note_on_c, 4, 49, 100
6, 12180, Note_on_c, 4, 49, 0
6, 12180, Note_on_c, 4, 56, 0
6, 12180, Note_on_c, 4, 64, 0
6, 12180, Note_on_c, 4, 61, 0
6, 12180, Note_on_c, 4, 68, 0
6, 12180, Note_on_c, 4, 56, 100
6, 12180, Note_on_c, 4, 61, 100
6, 12180, Note_on_c, 4, 64, 100
6, 12180, Note_on_c, 4, 68, 100
6, 12180, Note_on_c, 4, 49, 100
6, 12240, Note_on_c, 4, 49, 0
6, 12240, Note_on_c, 4, 64, 0
6, 12240, Note_on_c, 4, 56, 0
6, 12240, Note_on_c, 4, 61, 0
6, 12240, Note_on_c, 4, 68, 0
6, 12240, Note_on_c, 4, 56, 100
6, 12240, Note_on_c, 4, 61, 100
6, 12240, Note_on_c, 4, 64, 100
6, 12240, Note_on_c, 4, 68, 100
6, 12240, Note_on_c, 4, 49, 100
6, 12300, Note_on_c, 4, 49, 0
6, 12300, Note_on_c, 4, 64, 0
6, 12300, Note_on_c, 4, 56, 0
6, 12300, Note_on_c, 4, 61, 0
6, 12300, Note_on_c, 4, 68, 0
6, 12300, Note_on_c, 4, 52, 100
6, 12300, Note_on_c, 4, 57, 100
6, 12300, Note_on_c, 4, 61, 100
6, 12300, Note_on_c, 4, 64, 100
6, 12300, Note_on_c, 4, 45, 100
6, 12360, Note_on_c, 4, 45, 0
6, 12360, Note_on_c, 4, 61, 0
6, 12360, Note_on_c, 4, 52, 0
6, 12360, Note_on_c, 4, 57, 0
6, 12360, Note_on_c, 4, 64, 0
6, 12360, Note_on_c, 4, 52, 100
6, 12360, Note_on_c, 4, 57, 100
6, 12360, Note_on_c, 4, 61, 100
6, 12360, Note_on_c, 4, 64, 100
6, 12360, Note_on_c, 4, 45, 100
6, 12420, Note_on_c, 4, 45, 0
6, 12420, Note_on_c, 4, 61, 0
6, 12420, Note_on_c, 4, 52, 0
6, 12420, Note_on_c, 4, 57, 0
6, 12420, Note_on_c, 4, 64, 0
6, 12420, Note_on_c, 4, 54, 100
6, 12420, Note_on_c, 4, 59, 100
6, 12420, Note_on_c, 4, 63, 100
6, 12420, Note_on_c, 4, 66, 100
6, 12420, Note_on_c, 4, 47, 100
6, 12540, Note_on_c, 4, 47, 0
6, 12540, Note_on_c, 4, 63, 0
6, 12540, Note_on_c, 4, 54, 0
6, 12540, Note_on_c, 4, 59, 0
6, 12540, Note_on_c, 4, 66, 0
6, 12540, Note_on_c, 4, 66, 100
6, 12540, Note_on_c, 4, 63, 100
6, 12540, Note_on_c, 4, 59, 100
6, 12540, Note_on_c, 4, 54, 100
6, 12540, Note_on_c, 4, 47, 100
6, 12600, Note_on_c, 4, 47, 0
6, 12600, Note_on_c, 4, 59, 0
6, 12600, Note_on_c, 4, 66, 0
6, 12600, Note_on_c, 4, 63, 0
6, 12600, Note_on_c, 4, 54, 0
6, 12600, Note_on_c, 4, 63, 100
6, 12600, Note_on_c, 4, 66, 100
6, 12600, Note_on_c, 4, 59, 100
6, 12600, Note_on_c, 4, 54, 100
6, 12600, Note_on_c, 4, 47, 100
6, 12660, Note_on_c, 4, 47, 0
6, 12660, Note_on_c, 4, 59, 0
6, 12660, Note_on_c, 4, 63, 0
6, 12660, Note_on_c, 4, 66, 0
6, 12660, Note_on_c, 4, 54, 0
6, 12660, Note_on_c, 4, 66, 100
6, 12660, Note_on_c, 4, 63, 100
6, 12660, Note_on_c, 4, 59, 100
6, 12660, Note_on_c, 4, 54, 100
6, 12660, Note_on_c, 4, 47, 100
6, 12720, Note_on_c, 4, 47, 0
6, 12720, Note_on_c, 4, 59, 0
6, 12720, Note_on_c, 4, 66, 0
6, 12720, Note_on_c, 4, 63, 0
6, 12720, Note_on_c, 4, 54, 0
6, 12720, Note_on_c, 4, 59, 100
6, 12720, Note_on_c, 4, 63, 100
6, 12720, Note_on_c, 4, 66, 100
6, 12720, Note_on_c, 4, 54, 100
6, 12720, Note_on_c, 4, 47, 100
6, 12780, Note_on_c, 4, 47, 0
6, 12780, Note_on_c, 4, 66, 0
6, 12780, Note_on_c, 4, 59, 0
6, 12780, Note_on_c, 4, 63, 0
6, 12780, Note_on_c, 4, 54, 0
6, 12780, Note_on_c, 4, 66, 100
6, 12780, Note_on_c, 4, 63, 100
6, 12780, Note_on_c, 4, 59, 100
6, 12780, Note_on_c, 4, 54, 100
6, 12780, Note_on_c, 4, 47, 100
6, 12840, Note_on_c, 4, 47, 0
6, 12840, Note_on_c, 4, 59, 0
6, 12840, Note_on_c, 4, 66, 0
6, 12840, Note_on_c, 4, 63, 0
6, 12840, Note_on_c, 4, 54, 0
6, 12840, Note_on_c, 4, 59, 100
6, 12840, Note_on_c, 4, 63, 100
6, 12840, Note_on_c, 4, 66, 100
6, 12840, Note_on_c, 4, 54, 100
6, 12840, Note_on_c, 4, 47, 100
6, 12900, Note_on_c, 4, 47, 0
6, 12900, Note_on_c, 4, 66, 0
6, 12900, Note_on_c, 4, 59, 0
6, 12900, Note_on_c, 4, 63, 0
6, 12900, Note_on_c, 4, 54, 0
6, 12900, Note_on_c, 4, 66, 100
6, 12900, Note_on_c, 4, 63, 100
6, 12900, Note_on_c, 4, 59, 100
6, 12900, Note_on_c, 4, 54, 100
6, 12900, Note_on_c, 4, 47, 100
6, 12930, Note_on_c, 4, 47, 0
6, 12930, Note_on_c, 4, 59, 0
6, 12930, Note_on_c, 4, 66, 0
6, 12930, Note_on_c, 4, 63, 0
6, 12930, Note_on_c, 4, 54, 0
6, 12930, Note_on_c, 4, 66, 100
6, 12930, Note_on_c, 4, 63, 100
6, 12930, Note_on_c, 4, 54, 100
6, 12930, Note_on_c, 4, 59, 100
6, 12930, Note_on_c, 4, 47, 100
6, 12960, Note_on_c, 4, 47, 0
6, 12960, Note_on_c, 4, 54, 0
6, 12960, Note_on_c, 4, 66, 0
6, 12960, Note_on_c, 4, 63, 0
6, 12960, Note_on_c, 4, 59, 0
6, 12960, Note_on_c, 4, 68, 100
6, 12960, Note_on_c, 4, 64, 100
6, 12960, Note_on_c, 4, 61, 100
6, 12960, Note_on_c, 4, 56, 100
6, 12960, Note_on_c, 4, 49, 100
6, 13080, Note_on_c, 4, 49, 0
6, 13080, Note_on_c, 4, 61, 0
6, 13080, Note_on_c, 4, 68, 0
6, 13080, Note_on_c, 4, 64, 0
6, 13080, Note_on_c, 4, 56, 0
6, 13080, Note_on_c, 4, 68, 100
6, 13080, Note_on_c, 4, 64, 100
6, 13080, Note_on_c, 4, 61, 100
6, 13080, Note_on_c, 4, 56, 100
6, 13080, Note_on_c, 4, 49, 100
6, 13200, Note_on_c, 4, 49, 0
6, 13200, Note_on_c, 4, 61, 0
6, 13200, Note_on_c, 4, 68, 0
6, 13200, Note_on_c, 4, 64, 0
6, 13200, Note_on_c, 4, 56, 0
6, 13200, Note_on_c, 4, 45, 100
6, 13200, Note_on_c, 4, 52, 100
6, 13200, Note_on_c, 4, 57, 100
6, 13200, Note_on_c, 4, 61, 100
6, 13200, Note_on_c, 4, 64, 100
6, 13260, Note_on_c, 4, 64, 0
6, 13260, Note_on_c, 4, 57, 0
6, 13260, Note_on_c, 4, 45, 0
6, 13260, Note_on_c, 4, 52, 0
6, 13260, Note_on_c, 4, 61, 0
6, 13260, Note_on_c, 4, 52, 100
6, 13260, Note_on_c, 4, 45, 100
6, 13260, Note_on_c, 4, 57, 100
6, 13260, Note_on_c, 4, 61, 100
6, 13260, Note_on_c, 4, 64, 100
6, 13380, Note_on_c, 4, 64, 0
6, 13380, Note_on_c, 4, 57, 0
6, 13380, Note_on_c, 4, 52, 0
6, 13380, Note_on_c, 4, 45, 0
6, 13380, Note_on_c, 4, 61, 0
6, 13380, Note_on_c, 4, 47, 100
6, 13380, Note_on_c, 4, 54, 100
6, 13380, Note_on_c, 4, 59, 100
6, 13380, Note_on_c, 4, 63, 100
6, 13380, Note_on_c, 4, 66, 100
6, 13500, Note_on_c, 4, 66, 0
6, 13500, Note_on_c, 4, 59, 0
6, 13500, Note_on_c, 4, 47, 0
6, 13500, Note_on_c, 4, 54, 0
6, 13500, Note_on_c, 4, 63, 0
6, 13500, Note_on_c, 4, 47, 100
6, 13500, Note_on_c, 4, 54, 100
6, 13500, Note_on_c, 4, 59, 100
6, 13500, Note_on_c, 4, 63, 100
6, 13500, Note_on_c, 4, 66, 100
6, 13560, Note_on_c, 4, 66, 0
6, 13560, Note_on_c, 4, 59, 0
6, 13560, Note_on_c, 4, 47, 0
6, 13560, Note_on_c, 4, 54, 0
6, 13560, Note_on_c, 4, 63, 0
6, 13560, Note_on_c, 4, 59, 100
6, 13560, Note_on_c, 4, 63, 100
6, 13560, Note_on_c, 4, 54, 100
6, 13560, Note_on_c, 4, 47, 100
6, 13560, Note_on_c, 4, 66, 100
6, 13620, Note_on_c, 4, 66, 0
6, 13620, Note_on_c, 4, 54, 0
6, 13620, Note_on_c, 4, 59, 0
6, 13620, Note_on_c, 4, 63, 0
6, 13620, Note_on_c, 4, 47, 0
6, 13620, Note_on_c, 4, 63, 100
6, 13620, Note_on_c, 4, 59, 100
6, 13620, Note_on_c, 4, 54, 100
6, 13620, Note_on_c, 4, 47, 100
6, 13620, Note_on_c, 4, 66, 100
6, 13680, Note_on_c, 4, 66, 0
6, 13680, Note_on_c, 4, 54, 0
6, 13680, Note_on_c, 4, 63, 0
6, 13680, Note_on_c, 4, 59, 0
6, 13680, Note_on_c, 4, 47, 0
6, 13680, Note_on_c, 4, 50, 100
6, 13680, Note_on_c, 4, 57, 100
6, 13680, Note_on_c, 4, 62, 100
6, 13680, Note_on_c, 4, 66, 100
6, 13740, Note_on_c, 4, 66, 0
6, 13740, Note_on_c, 4, 50, 0
6, 13740, Note_on_c, 4, 57, 0
6, 13740, Note_on_c, 4, 62, 0
6, 13740, Note_on_c, 4, 50, 100
6, 13740, Note_on_c, 4, 57, 100
6, 13740, Note_on_c, 4, 62, 100
6, 13740, Note_on_c, 4, 66, 100
6, 13800, Note_on_c, 4, 66, 0
6, 13800, Note_on_c, 4, 50, 0
6, 13800, Note_on_c, 4, 57, 0
6, 13800, Note_on_c, 4, 62, 0
6, 13800, Note_on_c, 4, 50, 100
6, 13800, Note_on_c, 4, 57, 100
6, 13800, Note_on_c, 4, 62, 100
6, 13800, Note_on_c, 4, 66, 100
6, 13860, Note_on_c, 4, 66, 0
6, 13860, Note_on_c, 4, 50, 0
6, 13860, Note_on_c, 4, 57, 0
6, 13860, Note_on_c, 4, 62, 0
6, 13860, Note_on_c, 4, 50, 100
6, 13860, Note_on_c, 4, 57, 100
6, 13860, Note_on_c, 4, 62, 100
6, 13860, Note_on_c, 4, 66, 100
6, 13920, Note_on_c, 4, 66, 0
6, 13920, Note_on_c, 4, 50, 0
6, 13920, Note_on_c, 4, 57, 0
6, 13920, Note_on_c, 4, 62, 0
6, 13920, Note_on_c, 4, 64, 100
6, 13920, Note_on_c, 4, 59, 100
6, 13920, Note_on_c, 4, 56, 100
6, 13920, Note_on_c, 4, 52, 100
6, 13920, Note_on_c, 4, 47, 100
6, 13920, Note_on_c, 4, 40, 100
6, 14040, Note_on_c, 4, 40, 0
6, 14040, Note_on_c, 4, 59, 0
6, 14040, Note_on_c, 4, 56, 0
6, 14040, Note_on_c, 4, 64, 0
6, 14040, Note_on_c, 4, 47, 0
6, 14040, Note_on_c, 4, 52, 0
6, 14040, Note_on_c, 4, 40, 100
6, 14040, Note_on_c, 4, 47, 100
6, 14040, Note_on_c, 4, 52, 100
6, 14040, Note_on_c, 4, 56, 100
6, 14040, Note_on_c, 4, 59, 100
6, 14040, Note_on_c, 4, 64, 100
6, 14160, Note_on_c, 4, 64, 0
6, 14160, Note_on_c, 4, 47, 0
6, 14160, Note_on_c, 4, 52, 0
6, 14160, Note_on_c, 4, 40, 0
6, 14160, Note_on_c, 4, 59, 0
6, 14160, Note_on_c, 4, 56, 0
6, 14160, Note_on_c, 4, 40, 100
6, 14160, Note_on_c, 4, 47, 100
6, 14160, Note_on_c, 4, 52, 100
6, 14160, Note_on_c, 4, 56, 100
6, 14160, Note_on_c, 4, 59, 100
6, 14160, Note_on_c, 4, 64, 100
6, 14220, Note_on_c, 4, 64, 0
6, 14220, Note_on_c, 4, 47, 0
6, 14220, Note_on_c, 4, 52, 0
6, 14220, Note_on_c, 4, 40, 0
6, 14220, Note_on_c, 4, 59, 0
6, 14220, Note_on_c, 4, 56, 0
6, 14220, Note_on_c, 4, 59, 100
6, 14220, Note_on_c, 4, 56, 100
6, 14220, Note_on_c, 4, 52, 100
6, 14220, Note_on_c, 4, 47, 100
6, 14220, Note_on_c, 4, 40, 100
6, 14220, Note_on_c, 4, 64, 100
6, 14280, Note_on_c, 4, 64, 0
6, 14280, Note_on_c, 4, 56, 0
6, 14280, Note_on_c, 4, 52, 0
6, 14280, Note_on_c, 4, 59, 0
6, 14280, Note_on_c, 4, 40, 0
6, 14280, Note_on_c, 4, 47, 0
6, 14280, Note_on_c, 4, 52, 100
6, 14280, Note_on_c, 4, 56, 100
6, 14280, Note_on_c, 4, 59, 100
6, 14280, Note_on_c, 4, 47, 100
6, 14280, Note_on_c, 4, 40, 100
6, 14280, Note_on_c, 4, 64, 100
6, 14340, Note_on_c, 4, 64, 0
6, 14340, Note_on_c, 4, 56, 0
6, 14340, Note_on_c, 4, 59, 0
6, 14340, Note_on_c, 4, 52, 0
6, 14340, Note_on_c, 4, 40, 0
6, 14340, Note_on_c, 4, 47, 0
6, 14340, Note_on_c, 4, 47, 100
6, 14340, Note_on_c, 4, 59, 100
6, 14340, Note_on_c, 4, 54, 100
6, 14340, Note_on_c, 4, 63, 100
6, 14460, Note_on_c, 4, 63, 0
6, 14460, Note_on_c, 4, 47, 0
6, 14460, Note_on_c, 4, 59, 0
6, 14460, Note_on_c, 4, 54, 0
6, 14460, Note_on_c, 4, 47, 100
6, 14460, Note_on_c, 4, 54, 100
6, 14460, Note_on_c, 4, 59, 100
6, 14460, Note_on_c, 4, 63, 100
6, 14520, Note_on_c, 4, 63, 0
6, 14520, Note_on_c, 4, 47, 0
6, 14520, Note_on_c, 4, 54, 0
6, 14520, Note_on_c, 4, 59, 0
6, 14520, Note_on_c, 4, 47, 100
6, 14520, Note_on_c, 4, 54, 100
6, 14520, Note_on_c, 4, 59, 100
6, 14520, Note_on_c, 4, 63, 100
6, 14640, Note_on_c, 4, 63, 0
6, 14640, Note_on_c, 4, 47, 0
6, 14640, Note_on_c, 4, 54, 0
6, 14640, Note_on_c, 4, 59, 0
6, 14640, Note_on_c, 4, 47, 100
6, 14640, Note_on_c, 4, 54, 100
6, 14640, Note_on_c, 4, 59, 100
6, 14640, Note_on_c, 4, 63, 100
6, 14700, Note_on_c, 4, 63, 0
6, 14700, Note_on_c, 4, 47, 0
6, 14700, Note_on_c, 4, 54, 0
6, 14700, Note_on_c, 4, 59, 0
6, 14700, Note_on_c, 4, 47, 100
6, 14700, Note_on_c, 4, 54, 100
6, 14700, Note_on_c, 4, 59, 100
6, 14700, Note_on_c, 4, 63, 100
6, 14760, Note_on_c, 4, 63, 0
6, 14760, Note_on_c, 4, 47, 0
6, 14760, Note_on_c, 4, 54, 0
6, 14760, Note_on_c, 4, 59, 0
6, 14760, Note_on_c, 4, 47, 100
6, 14760, Note_on_c, 4, 54, 100
6, 14760, Note_on_c, 4, 59, 100
6, 14760, Note_on_c, 4, 63, 100
6, 14820, Note_on_c, 4, 63, 0
6, 14820, Note_on_c, 4, 47, 0
6, 14820, Note_on_c, 4, 54, 0
6, 14820, Note_on_c, 4, 59, 0
6, 14820, Note_on_c, 4, 50, 100
6, 14820, Note_on_c, 4, 57, 100
6, 14820, Note_on_c, 4, 62, 100
6, 14940, Note_on_c, 4, 62, 0
6, 14940, Note_on_c, 4, 57, 0
6, 14940, Note_on_c, 4, 50, 0
6, 14940, Note_on_c, 4, 50, 100
6, 14940, Note_on_c, 4, 57, 100
6, 14940, Note_on_c, 4, 62, 100
6, 15000, Note_on_c, 4, 62, 0
6, 15000, Note_on_c, 4, 57, 0
6, 15000, Note_on_c, 4, 50, 0
6, 15000, Note_on_c, 4, 50, 100
6, 15000, Note_on_c, 4, 57, 100
6, 15000, Note_on_c, 4, 62, 100
6, 15060, Note_on_c, 4, 62, 0
6, 15060, Note_on_c, 4, 57, 0
6, 15060, Note_on_c, 4, 50, 0
6, 15060, Note_on_c, 4, 45, 100
6, 15060, Note_on_c, 4, 52, 100
6, 15060, Note_on_c, 4, 57, 100
6, 15060, Note_on_c, 4, 61, 100
6, 15060, Note_on_c, 4, 64, 100
6, 15180, Note_on_c, 4, 64, 0
6, 15180, Note_on_c, 4, 57, 0
6, 15180, Note_on_c, 4, 45, 0
6, 15180, Note_on_c, 4, 52, 0
6, 15180, Note_on_c, 4, 61, 0
6, 15180, Note_on_c, 4, 45, 100
6, 15180, Note_on_c, 4, 52, 100
6, 15180, Note_on_c, 4, 57, 100
6, 15180, Note_on_c, 4, 61, 100
6, 15180, Note_on_c, 4, 64, 100
6, 15240, Note_on_c, 4, 64, 0
6, 15240, Note_on_c, 4, 57, 0
6, 15240, Note_on_c, 4, 45, 0
6, 15240, Note_on_c, 4, 52, 0
6, 15240, Note_on_c, 4, 61, 0
6, 15240, Note_on_c, 4, 57, 100
6, 15240, Note_on_c, 4, 45, 100
6, 15240, Note_on_c, 4, 52, 100
6, 15240, Note_on_c, 4, 61, 100
6, 15240, Note_on_c, 4, 64, 100
6, 15300, Note_on_c, 4, 64, 0
6, 15300, Note_on_c, 4, 52, 0
6, 15300, Note_on_c, 4, 57, 0
6, 15300, Note_on_c, 4, 45, 0
6, 15300, Note_on_c, 4, 61, 0
6, 15300, Note_on_c, 4, 47, 100
6, 15300, Note_on_c, 4, 54, 100
6, 15300, Note_on_c, 4, 59, 100
6, 15300, Note_on_c, 4, 63, 100
6, 15420, Note_on_c, 4, 63, 0
6, 15420, Note_on_c, 4, 47, 0
6, 15420, Note_on_c, 4, 54, 0
6, 15420, Note_on_c, 4, 59, 0
6, 15420, Note_on_c, 4, 47, 100
6, 15420, Note_on_c, 4, 54, 100
6, 15420, Note_on_c, 4, 59, 100
6, 15420, Note_on_c, 4, 63, 100
6, 15480, Note_on_c, 4, 63, 0
6, 15480, Note_on_c, 4, 47, 0
6, 15480, Note_on_c, 4, 54, 0
6, 15480, Note_on_c, 4, 59, 0
6, 15480, Note_on_c, 4, 47, 100
6, 15480, Note_on_c, 4, 54, 100
6, 15480, Note_on_c, 4, 59, 100
6, 15480, Note_on_c, 4, 63, 100
6, 15600, Note_on_c, 4, 63, 0
6, 15600, Note_on_c, 4, 47, 0
6, 15600, Note_on_c, 4, 54, 0
6, 15600, Note_on_c, 4, 59, 0
6, 15600, Note_on_c, 4, 47, 100
6, 15600, Note_on_c, 4, 54, 100
6, 15600, Note_on_c, 4, 59, 100
6, 15600, Note_on_c, 4, 63, 100
6, 15660, Note_on_c, 4, 63, 0
6, 15660, Note_on_c, 4, 47, 0
6, 15660, Note_on_c, 4, 54, 0
6, 15660, Note_on_c, 4, 59, 0
6, 15660, Note_on_c, 4, 54, 100
6, 15660, Note_on_c, 4, 59, 100
6, 15660, Note_on_c, 4, 47, 100
6, 15660, Note_on_c, 4, 63, 100
6, 15720, Note_on_c, 4, 63, 0
6, 15720, Note_on_c, 4, 54, 0
6, 15720, Note_on_c, 4, 59, 0
6, 15720, Note_on_c, 4, 47, 0
6, 15720, Note_on_c, 4, 54, 100
6, 15720, Note_on_c, 4, 59, 100
6, 15720, Note_on_c, 4, 47, 100
6, 15720, Note_on_c, 4, 63, 100
6, 15780, Note_on_c, 4, 63, 0
6, 15780, Note_on_c, 4, 54, 0
6, 15780, Note_on_c, 4, 59, 0
6, 15780, Note_on_c, 4, 47, 0
6, 15780, Note_on_c, 4, 42, 100
6, 15780, Note_on_c, 4, 54, 100
6, 15780, Note_on_c, 4, 49, 100
6, 15780, Note_on_c, 4, 57, 100
6, 15780, Note_on_c, 4, 61, 100
6, 15900, Note_on_c, 4, 61, 0
6, 15900, Note_on_c, 4, 49, 0
6, 15900, Note_on_c, 4, 42, 0
6, 15900, Note_on_c, 4, 54, 0
6, 15900, Note_on_c, 4, 57, 0
6, 15900, Note_on_c, 4, 54, 100
6, 15900, Note_on_c, 4, 49, 100
6, 15900, Note_on_c, 4, 42, 100
6, 15900, Note_on_c, 4, 57, 100
6, 15900, Note_on_c, 4, 61, 100
6, 15960, Note_on_c, 4, 61, 0
6, 15960, Note_on_c, 4, 42, 0
6, 15960, Note_on_c, 4, 54, 0
6, 15960, Note_on_c, 4, 49, 0
6, 15960, Note_on_c, 4, 57, 0
6, 15960, Note_on_c, 4, 61, 100
6, 15960, Note_on_c, 4, 54, 100
6, 15960, Note_on_c, 4, 49, 100
6, 15960, Note_on_c, 4, 42, 100
6, 15960, Note_on_c, 4, 57, 100
6, 16020, Note_on_c, 4, 57, 0
6, 16020, Note_on_c, 4, 49, 0
6, 16020, Note_on_c, 4, 61, 0
6, 16020, Note_on_c, 4, 54, 0
6, 16020, Note_on_c, 4, 42, 0
6, 16020, Note_on_c, 4, 47, 100
6, 16020, Note_on_c, 4, 54, 100
6, 16020, Note_on_c, 4, 59, 100
6, 16020, Note_on_c, 4, 63, 100
6, 16140, Note_on_c, 4, 63, 0
6, 16140, Note_on_c, 4, 47, 0
6, 16140, Note_on_c, 4, 54, 0
6, 16140, Note_on_c, 4, 59, 0
6, 16140, Note_on_c, 4, 47, 100
6, 16140, Note_on_c, 4, 54, 100
6, 16140, Note_on_c, 4, 59, 100
6, 16140, Note_on_c, 4, 63, 100
6, 16200, Note_on_c, 4, 63, 0
6, 16200, Note_on_c, 4, 47, 0
6, 16200, Note_on_c, 4, 54, 0
6, 16200, Note_on_c, 4, 59, 0
6, 16200, Note_on_c, 4, 59, 100
6, 16200, Note_on_c, 4, 54, 100
6, 16200, Note_on_c, 4, 47, 100
6, 16200, Note_on_c, 4, 63, 100
6, 16260, Note_on_c, 4, 63, 0
6, 16260, Note_on_c, 4, 59, 0
6, 16260, Note_on_c, 4, 54, 0
6, 16260, Note_on_c, 4, 47, 0
6, 16260, Note_on_c, 4, 47, 100
6, 16260, Note_on_c, 4, 54, 100
6, 16260, Note_on_c, 4, 59, 100
6, 16260, Note_on_c, 4, 63, 100
6, 16320, Note_on_c, 4, 63, 0
6, 16320, Note_on_c, 4, 47, 0
6, 16320, Note_on_c, 4, 54, 0
6, 16320, Note_on_c, 4, 59, 0
6, 16320, Note_on_c, 4, 64, 100
6, 16320, Note_on_c, 4, 59, 100
6, 16320, Note_on_c, 4, 56, 100
6, 16320, Note_on_c, 4, 52, 100
6, 16320, Note_on_c, 4, 47, 100
6, 16320, Note_on_c, 4, 40, 100
6, 16440, Note_on_c, 4, 40, 0
6, 16440, Note_on_c, 4, 59, 0
6, 16440, Note_on_c, 4, 56, 0
6, 16440, Note_on_c, 4, 64, 0
6, 16440, Note_on_c, 4, 47, 0
6, 16440, Note_on_c, 4, 52, 0
6, 16440, Note_on_c, 4, 40, 100
6, 16440, Note_on_c, 4, 47, 100
6, 16440, Note_on_c, 4, 52, 100
6, 16440, Note_on_c, 4, 56, 100
6, 16440, Note_on_c, 4, 59, 100
6, 16440, Note_on_c, 4, 64, 100
6, 16560, Note_on_c, 4, 64, 0
6, 16560, Note_on_c, 4, 47, 0
6, 16560, Note_on_c, 4, 52, 0
6, 16560, Note_on_c, 4, 40, 0
6, 16560, Note_on_c, 4, 59, 0
6, 16560, Note_on_c, 4, 56, 0
6, 16560, Note_on_c, 4, 40, 100
6, 16560, Note_on_c, 4, 47, 100
6, 16560, Note_on_c, 4, 52, 100
6, 16560, Note_on_c, 4, 56, 100
6, 16560, Note_on_c, 4, 59, 100
6, 16560, Note_on_c, 4, 64, 100
6, 16620, Note_on_c, 4, 64, 0
6, 16620, Note_on_c, 4, 47, 0
6, 16620, Note_on_c, 4, 52, 0
6, 16620, Note_on_c, 4, 40, 0
6, 16620, Note_on_c, 4, 59, 0
6, 16620, Note_on_c, 4, 56, 0
6, 16620, Note_on_c, 4, 59, 100
6, 16620, Note_on_c, 4, 56, 100
6, 16620, Note_on_c, 4, 52, 100
6, 16620, Note_on_c, 4, 47, 100
6, 16620, Note_on_c, 4, 40, 100
6, 16620, Note_on_c, 4, 64, 100
6, 16740, Note_on_c, 4, 64, 0
6, 16740, Note_on_c, 4, 56, 0
6, 16740, Note_on_c, 4, 52, 0
6, 16740, Note_on_c, 4, 59, 0
6, 16740, Note_on_c, 4, 40, 0
6, 16740, Note_on_c, 4, 47, 0
6, 16740, Note_on_c, 4, 47, 100
6, 16740, Note_on_c, 4, 59, 100
6, 16740, Note_on_c, 4, 54, 100
6, 16740, Note_on_c, 4, 63, 100
6, 16860, Note_on_c, 4, 63, 0
6, 16860, Note_on_c, 4, 47, 0
6, 16860, Note_on_c, 4, 59, 0
6, 16860, Note_on_c, 4, 54, 0
6, 16860, Note_on_c, 4, 47, 100
6, 16860, Note_on_c, 4, 54, 100
6, 16860, Note_on_c, 4, 59, 100
6, 16860, Note_on_c, 4, 63, 100
6, 16920, Note_on_c, 4, 63, 0
6, 16920, Note_on_c, 4, 47, 0
6, 16920, Note_on_c, 4, 54, 0
6, 16920, Note_on_c, 4, 59, 0
6, 16920, Note_on_c, 4, 47, 100
6, 16920, Note_on_c, 4, 54, 100
6, 16920, Note_on_c, 4, 59, 100
6, 16920, Note_on_c, 4, 63, 100
6, 17040, Note_on_c, 4, 63, 0
6, 17040, Note_on_c, 4, 47, 0
6, 17040, Note_on_c, 4, 54, 0
6, 17040, Note_on_c, 4, 59, 0
6, 17040, Note_on_c, 4, 47, 100
6, 17040, Note_on_c, 4, 54, 100
6, 17040, Note_on_c, 4, 59, 100
6, 17040, Note_on_c, 4, 63, 100
6, 17100, Note_on_c, 4, 63, 0
6, 17100, Note_on_c, 4, 47, 0
6, 17100, Note_on_c, 4, 54, 0
6, 17100, Note_on_c, 4, 59, 0
6, 17100, Note_on_c, 4, 47, 100
6, 17100, Note_on_c, 4, 54, 100
6, 17100, Note_on_c, 4, 59, 100
6, 17100, Note_on_c, 4, 63, 100
6, 17160, Note_on_c, 4, 63, 0
6, 17160, Note_on_c, 4, 47, 0
6, 17160, Note_on_c, 4, 54, 0
6, 17160, Note_on_c, 4, 59, 0
6, 17160, Note_on_c, 4, 47, 100
6, 17160, Note_on_c, 4, 54, 100
6, 17160, Note_on_c, 4, 59, 100
6, 17160, Note_on_c, 4, 63, 100
6, 17220, Note_on_c, 4, 63, 0
6, 17220, Note_on_c, 4, 47, 0
6, 17220, Note_on_c, 4, 54, 0
6, 17220, Note_on_c, 4, 59, 0
6, 17220, Note_on_c, 4, 50, 100
6, 17220, Note_on_c, 4, 57, 100
6, 17220, Note_on_c, 4, 62, 100
6, 17340, Note_on_c, 4, 62, 0
6, 17340, Note_on_c, 4, 57, 0
6, 17340, Note_on_c, 4, 50, 0
6, 17340, Note_on_c, 4, 50, 100
6, 17340, Note_on_c, 4, 57, 100
6, 17340, Note_on_c, 4, 62, 100
6, 17400, Note_on_c, 4, 62, 0
6, 17400, Note_on_c, 4, 57, 0
6, 17400, Note_on_c, 4, 50, 0
6, 17400, Note_on_c, 4, 50, 100
6, 17400, Note_on_c, 4, 57, 100
6, 17400, Note_on_c, 4, 62, 100
6, 17460, Note_on_c, 4, 62, 0
6, 17460, Note_on_c, 4, 57, 0
6, 17460, Note_on_c, 4, 50, 0
6, 17460, Note_on_c, 4, 45, 100
6, 17460, Note_on_c, 4, 52, 100
6, 17460, Note_on_c, 4, 57, 100
6, 17460, Note_on_c, 4, 61, 100
6, 17460, Note_on_c, 4, 64, 100
6, 17580, Note_on_c, 4, 64, 0
6, 17580, Note_on_c, 4, 57, 0
6, 17580, Note_on_c, 4, 45, 0
6, 17580, Note_on_c, 4, 52, 0
6, 17580, Note_on_c, 4, 61, 0
6, 17580, Note_on_c, 4, 45, 100
6, 17580, Note_on_c, 4, 52, 100
6, 17580, Note_on_c, 4, 57, 100
6, 17580, Note_on_c, 4, 61, 100
6, 17580, Note_on_c, 4, 64, 100
6, 17700, Note_on_c, 4, 64, 0
6, 17700, Note_on_c, 4, 57, 0
6, 17700, Note_on_c, 4, 45, 0
6, 17700, Note_on_c, 4, 52, 0
6, 17700, Note_on_c, 4, 61, 0
6, 17700, Note_on_c, 4, 47, 100
6, 17700, Note_on_c, 4, 54, 100
6, 17700, Note_on_c, 4, 59, 100
6, 17700, Note_on_c, 4, 63, 100
6, 17820, Note_on_c, 4, 63, 0
6, 17820, Note_on_c, 4, 47, 0
6, 17820, Note_on_c, 4, 54, 0
6, 17820, Note_on_c, 4, 59, 0
6, 17820, Note_on_c, 4, 47, 100
6, 17820, Note_on_c, 4, 54, 100
6, 17820, Note_on_c, 4, 59, 100
6, 17820, Note_on_c, 4, 63, 100
6, 17880, Note_on_c, 4, 63, 0
6, 17880, Note_on_c, 4, 47, 0
6, 17880, Note_on_c, 4, 54, 0
6, 17880, Note_on_c, 4, 59, 0
6, 17880, Note_on_c, 4, 47, 100
6, 17880, Note_on_c, 4, 54, 100
6, 17880, Note_on_c, 4, 59, 100
6, 17880, Note_on_c, 4, 63, 100
6, 18060, Note_on_c, 4, 63, 0
6, 18060, Note_on_c, 4, 47, 0
6, 18060, Note_on_c, 4, 54, 0
6, 18060, Note_on_c, 4, 59, 0
6, 18060, Note_on_c, 4, 54, 100
6, 18060, Note_on_c, 4, 59, 100
6, 18060, Note_on_c, 4, 47, 100
6, 18060, Note_on_c, 4, 63, 100
6, 18120, Note_on_c, 4, 63, 0
6, 18120, Note_on_c, 4, 54, 0
6, 18120, Note_on_c, 4, 59, 0
6, 18120, Note_on_c, 4, 47, 0
6, 18120, Note_on_c, 4, 54, 100
6, 18120, Note_on_c, 4, 59, 100
6, 18120, Note_on_c, 4, 47, 100
6, 18120, Note_on_c, 4, 63, 100
6, 18180, Note_on_c, 4, 63, 0
6, 18180, Note_on_c, 4, 54, 0
6, 18180, Note_on_c, 4, 59, 0
6, 18180, Note_on_c, 4, 47, 0
6, 18180, Note_on_c, 4, 42, 100
6, 18180, Note_on_c, 4, 54, 100
6, 18180, Note_on_c, 4, 49, 100
6, 18180, Note_on_c, 4, 57, 100
6, 18180, Note_on_c, 4, 61, 100
6, 18300, Note_on_c, 4, 61, 0
6, 18300, Note_on_c, 4, 49, 0
6, 18300, Note_on_c, 4, 42, 0
6, 18300, Note_on_c, 4, 54, 0
6, 18300, Note_on_c, 4, 57, 0
6, 18300, Note_on_c, 4, 54, 100
6, 18300, Note_on_c, 4, 49, 100
6, 18300, Note_on_c, 4, 42, 100
6, 18300, Note_on_c, 4, 57, 100
6, 18300, Note_on_c, 4, 61, 100
6, 18420, Note_on_c, 4, 61, 0
6, 18420, Note_on_c, 4, 42, 0
6, 18420, Note_on_c, 4, 54, 0
6, 18420, Note_on_c, 4, 49, 0
6, 18420, Note_on_c, 4, 57, 0
6, 18420, Note_on_c, 4, 47, 100
6, 18420, Note_on_c, 4, 54, 100
6, 18420, Note_on_c, 4, 59, 100
6, 18420, Note_on_c, 4, 63, 100
6, 18540, Note_on_c, 4, 63, 0
6, 18540, Note_on_c, 4, 47, 0
6, 18540, Note_on_c, 4, 54, 0
6, 18540, Note_on_c, 4, 59, 0
6, 18540, Note_on_c, 4, 47, 100
6, 18540, Note_on_c, 4, 54, 100
6, 18540, Note_on_c, 4, 59, 100
6, 18540, Note_on_c, 4, 63, 100
6, 18600, Note_on_c, 4, 63, 0
6, 18600, Note_on_c, 4, 47, 0
6, 18600, Note_on_c, 4, 54, 0
6, 18600, Note_on_c, 4, 59, 0
6, 18600, Note_on_c, 4, 47, 100
6, 18600, Note_on_c, 4, 54, 100
6, 18600, Note_on_c, 4, 59, 100
6, 18600, Note_on_c, 4, 63, 100
6, 18720, Note_on_c, 4, 63, 0
6, 18720, Note_on_c, 4, 47, 0
6, 18720, Note_on_c, 4, 54, 0
6, 18720, Note_on_c, 4, 59, 0
6, 18720, Note_on_c, 4, 64, 100
6, 18720, Note_on_c, 4, 59, 100
6, 18720, Note_on_c, 4, 56, 100
6, 18720, Note_on_c, 4, 52, 100
6, 18720, Note_on_c, 4, 47, 100
6, 18720, Note_on_c, 4, 40, 100
6, 18840, Note_on_c, 4, 40, 0
6, 18840, Note_on_c, 4, 59, 0
6, 18840, Note_on_c, 4, 56, 0
6, 18840, Note_on_c, 4, 64, 0
6, 18840, Note_on_c, 4, 47, 0
6, 18840, Note_on_c, 4, 52, 0
6, 18840, Note_on_c, 4, 40, 100
6, 18840, Note_on_c, 4, 47, 100
6, 18840, Note_on_c, 4, 52, 100
6, 18840, Note_on_c, 4, 56, 100
6, 18840, Note_on_c, 4, 59, 100
6, 18840, Note_on_c, 4, 64, 100
6, 18960, Note_on_c, 4, 64, 0
6, 18960, Note_on_c, 4, 47, 0
6, 18960, Note_on_c, 4, 52, 0
6, 18960, Note_on_c, 4, 40, 0
6, 18960, Note_on_c, 4, 59, 0
6, 18960, Note_on_c, 4, 56, 0
6, 18960, Note_on_c, 4, 40, 100
6, 18960, Note_on_c, 4, 47, 100
6, 18960, Note_on_c, 4, 52, 100
6, 18960, Note_on_c, 4, 56, 100
6, 18960, Note_on_c, 4, 59, 100
6, 18960, Note_on_c, 4, 64, 100
6, 19020, Note_on_c, 4, 64, 0
6, 19020, Note_on_c, 4, 47, 0
6, 19020, Note_on_c, 4, 52, 0
6, 19020, Note_on_c, 4, 40, 0
6, 19020, Note_on_c, 4, 59, 0
6, 19020, Note_on_c, 4, 56, 0
6, 19020, Note_on_c, 4, 59, 100
6, 19020, Note_on_c, 4, 56, 100
6, 19020, Note_on_c, 4, 52, 100
6, 19020, Note_on_c, 4, 47, 100
6, 19020, Note_on_c, 4, 40, 100
6, 19020, Note_on_c, 4, 64, 100
6, 19080, Note_on_c, 4, 64, 0
6, 19080, Note_on_c, 4, 56, 0
6, 19080, Note_on_c, 4, 52, 0
6, 19080, Note_on_c, 4, 59, 0
6, 19080, Note_on_c, 4, 40, 0
6, 19080, Note_on_c, 4, 47, 0
6, 19080, Note_on_c, 4, 52, 100
6, 19080, Note_on_c, 4, 56, 100
6, 19080, Note_on_c, 4, 59, 100
6, 19080, Note_on_c, 4, 47, 100
6, 19080, Note_on_c, 4, 40, 100
6, 19080, Note_on_c, 4, 64, 100
6, 19140, Note_on_c, 4, 64, 0
6, 19140, Note_on_c, 4, 56, 0
6, 19140, Note_on_c, 4, 59, 0
6, 19140, Note_on_c, 4, 52, 0
6, 19140, Note_on_c, 4, 40, 0
6, 19140, Note_on_c, 4, 47, 0
6, 19140, Note_on_c, 4, 47, 100
6, 19140, Note_on_c, 4, 59, 100
6, 19140, Note_on_c, 4, 54, 100
6, 19140, Note_on_c, 4, 63, 100
6, 19260, Note_on_c, 4, 63, 0
6, 19260, Note_on_c, 4, 47, 0
6, 19260, Note_on_c, 4, 59, 0
6, 19260, Note_on_c, 4, 54, 0
6, 19260, Note_on_c, 4, 47, 100
6, 19260, Note_on_c, 4, 54, 100
6, 19260, Note_on_c, 4, 59, 100
6, 19260, Note_on_c, 4, 63, 100
6, 19320, Note_on_c, 4, 63, 0
6, 19320, Note_on_c, 4, 47, 0
6, 19320, Note_on_c, 4, 54, 0
6, 19320, Note_on_c, 4, 59, 0
6, 19320, Note_on_c, 4, 47, 100
6, 19320, Note_on_c, 4, 54, 100
6, 19320, Note_on_c, 4, 59, 100
6, 19320, Note_on_c, 4, 63, 100
6, 19440, Note_on_c, 4, 63, 0
6, 19440, Note_on_c, 4, 47, 0
6, 19440, Note_on_c, 4, 54, 0
6, 19440, Note_on_c, 4, 59, 0
6, 19440, Note_on_c, 4, 47, 100
6, 19440, Note_on_c, 4, 54, 100
6, 19440, Note_on_c, 4, 59, 100
6, 19440, Note_on_c, 4, 63, 100
6, 19500, Note_on_c, 4, 63, 0
6, 19500, Note_on_c, 4, 47, 0
6, 19500, Note_on_c, 4, 54, 0
6, 19500, Note_on_c, 4, 59, 0
6, 19500, Note_on_c, 4, 47, 100
6, 19500, Note_on_c, 4, 54, 100
6, 19500, Note_on_c, 4, 59, 100
6, 19500, Note_on_c, 4, 63, 100
6, 19620, Note_on_c, 4, 63, 0
6, 19620, Note_on_c, 4, 47, 0
6, 19620, Note_on_c, 4, 54, 0
6, 19620, Note_on_c, 4, 59, 0
6, 19620, Note_on_c, 4, 50, 100
6, 19620, Note_on_c, 4, 57, 100
6, 19620, Note_on_c, 4, 62, 100
6, 19740, Note_on_c, 4, 62, 0
6, 19740, Note_on_c, 4, 57, 0
6, 19740, Note_on_c, 4, 50, 0
6, 19740, Note_on_c, 4, 50, 100
6, 19740, Note_on_c, 4, 57, 100
6, 19740, Note_on_c, 4, 62, 100
6, 19860, Note_on_c, 4, 62, 0
6, 19860, Note_on_c, 4, 57, 0
6, 19860, Note_on_c, 4, 50, 0
6, 19860, Note_on_c, 4, 45, 100
6, 19860, Note_on_c, 4, 52, 100
6, 19860, Note_on_c, 4, 57, 100
6, 19860, Note_on_c, 4, 61, 100
6, 19860, Note_on_c, 4, 64, 100
6, 20100, Note_on_c, 4, 64, 0
6, 20100, Note_on_c, 4, 57, 0
6, 20100, Note_on_c, 4, 45, 0
6, 20100, Note_on_c, 4, 52, 0
6, 20100, Note_on_c, 4, 61, 0
6, 20100, Note_on_c, 4, 47, 100
6, 20100, Note_on_c, 4, 54, 100
6, 20100, Note_on_c, 4, 59, 100
6, 20100, Note_on_c, 4, 63, 100
6, 20220, Note_on_c, 4, 63, 0
6, 20220, Note_on_c, 4, 47, 0
6, 20220, Note_on_c, 4, 54, 0
6, 20220, Note_on_c, 4, 59, 0
6, 20220, Note_on_c, 4, 47, 100
6, 20220, Note_on_c, 4, 54, 100
6, 20220, Note_on_c, 4, 59, 100
6, 20220, Note_on_c, 4, 63, 100
6, 20400, Note_on_c, 4, 63, 0
6, 20400, Note_on_c, 4, 47, 0
6, 20400, Note_on_c, 4, 54, 0
6, 20400, Note_on_c, 4, 59, 0
6, 20400, Note_on_c, 4, 47, 100
6, 20400, Note_on_c, 4, 54, 100
6, 20400, Note_on_c, 4, 59, 100
6, 20400, Note_on_c, 4, 63, 100
6, 20460, Note_on_c, 4, 63, 0
6, 20460, Note_on_c, 4, 47, 0
6, 20460, Note_on_c, 4, 54, 0
6, 20460, Note_on_c, 4, 59, 0
6, 20460, Note_on_c, 4, 54, 100
6, 20460, Note_on_c, 4, 59, 100
6, 20460, Note_on_c, 4, 47, 100
6, 20460, Note_on_c, 4, 63, 100
6, 20580, Note_on_c, 4, 63, 0
6, 20580, Note_on_c, 4, 54, 0
6, 20580, Note_on_c, 4, 59, 0
6, 20580, Note_on_c, 4, 47, 0
6, 20580, Note_on_c, 4, 42, 100
6, 20580, Note_on_c, 4, 54, 100
6, 20580, Note_on_c, 4, 49, 100
6, 20580, Note_on_c, 4, 57, 100
6, 20580, Note_on_c, 4, 61, 100
6, 20700, Note_on_c, 4, 61, 0
6, 20700, Note_on_c, 4, 49, 0
6, 20700, Note_on_c, 4, 42, 0
6, 20700, Note_on_c, 4, 54, 0
6, 20700, Note_on_c, 4, 57, 0
6, 20700, Note_on_c, 4, 54, 100
6, 20700, Note_on_c, 4, 49, 100
6, 20700, Note_on_c, 4, 42, 100
6, 20700, Note_on_c, 4, 57, 100
6, 20700, Note_on_c, 4, 61, 100
6, 20760, Note_on_c, 4, 61, 0
6, 20760, Note_on_c, 4, 42, 0
6, 20760, Note_on_c, 4, 54, 0
6, 20760, Note_on_c, 4, 49, 0
6, 20760, Note_on_c, 4, 57, 0
6, 20760, Note_on_c, 4, 61, 100
6, 20760, Note_on_c, 4, 54, 100
6, 20760, Note_on_c, 4, 49, 100
6, 20760, Note_on_c, 4, 42, 100
6, 20760, Note_on_c, 4, 57, 100
6, 20820, Note_on_c, 4, 57, 0
6, 20820, Note_on_c, 4, 49, 0
6, 20820, Note_on_c, 4, 61, 0
6, 20820, Note_on_c, 4, 54, 0
6, 20820, Note_on_c, 4, 42, 0
6, 20820, Note_on_c, 4, 47, 100
6, 20820, Note_on_c, 4, 54, 100
6, 20820, Note_on_c, 4, 59, 100
6, 20820, Note_on_c, 4, 63, 100
6, 20940, Note_on_c, 4, 63, 0
6, 20940, Note_on_c, 4, 47, 0
6, 20940, Note_on_c, 4, 54, 0
6, 20940, Note_on_c, 4, 59, 0
6, 20940, Note_on_c, 4, 47, 100
6, 20940, Note_on_c, 4, 54, 100
6, 20940, Note_on_c, 4, 59, 100
6, 20940, Note_on_c, 4, 63, 100
6, 21000, Note_on_c, 4, 63, 0
6, 21000, Note_on_c, 4, 47, 0
6, 21000, Note_on_c, 4, 54, 0
6, 21000, Note_on_c, 4, 59, 0
6, 21000, Note_on_c, 4, 47, 100
6, 21000, Note_on_c, 4, 54, 100
6, 21000, Note_on_c, 4, 59, 100
6, 21000, Note_on_c, 4, 63, 100
6, 21060, Note_on_c, 4, 63, 0
6, 21060, Note_on_c, 4, 47, 0
6, 21060, Note_on_c, 4, 54, 0
6, 21060, Note_on_c, 4, 59, 0
6, 21060, Note_on_c, 4, 47, 100
6, 21060, Note_on_c, 4, 54, 100
6, 21060, Note_on_c, 4, 59, 100
6, 21060, Note_on_c, 4, 63, 100
6, 21120, Note_on_c, 4, 63, 0
6, 21120, Note_on_c, 4, 47, 0
6, 21120, Note_on_c, 4, 54, 0
6, 21120, Note_on_c, 4, 59, 0
6, 21120, Note_on_c, 4, 64, 100
6, 21120, Note_on_c, 4, 61, 100
6, 21120, Note_on_c, 4, 57, 100
6, 21120, Note_on_c, 4, 52, 100
6, 21120, Note_on_c, 4, 45, 100
6, 21240, Note_on_c, 4, 45, 0
6, 21240, Note_on_c, 4, 57, 0
6, 21240, Note_on_c, 4, 64, 0
6, 21240, Note_on_c, 4, 61, 0
6, 21240, Note_on_c, 4, 52, 0
6, 21240, Note_on_c, 4, 52, 100
6, 21240, Note_on_c, 4, 57, 100
6, 21240, Note_on_c, 4, 61, 100
6, 21240, Note_on_c, 4, 64, 100
6, 21240, Note_on_c, 4, 45, 100
6, 21360, Note_on_c, 4, 45, 0
6, 21360, Note_on_c, 4, 61, 0
6, 21360, Note_on_c, 4, 52, 0
6, 21360, Note_on_c, 4, 57, 0
6, 21360, Note_on_c, 4, 64, 0
6, 21360, Note_on_c, 4, 64, 100
6, 21360, Note_on_c, 4, 61, 100
6, 21360, Note_on_c, 4, 57, 100
6, 21360, Note_on_c, 4, 52, 100
6, 21360, Note_on_c, 4, 45, 100
6, 21420, Note_on_c, 4, 45, 0
6, 21420, Note_on_c, 4, 57, 0
6, 21420, Note_on_c, 4, 64, 0
6, 21420, Note_on_c, 4, 61, 0
6, 21420, Note_on_c, 4, 52, 0
6, 21420, Note_on_c, 4, 64, 100
6, 21420, Note_on_c, 4, 61, 100
6, 21420, Note_on_c, 4, 57, 100
6, 21420, Note_on_c, 4, 52, 100
6, 21420, Note_on_c, 4, 45, 100
6, 21540, Note_on_c, 4, 45, 0
6, 21540, Note_on_c, 4, 57, 0
6, 21540, Note_on_c, 4, 64, 0
6, 21540, Note_on_c, 4, 61, 0
6, 21540, Note_on_c, 4, 52, 0
6, 21540, Note_on_c, 4, 66, 100
6, 21540, Note_on_c, 4, 63, 100
6, 21540, Note_on_c, 4, 59, 100
6, 21540, Note_on_c, 4, 54, 100
6, 21540, Note_on_c, 4, 47, 100
6, 21660, Note_on_c, 4, 47, 0
6, 21660, Note_on_c, 4, 59, 0
6, 21660, Note_on_c, 4, 66, 0
6, 21660, Note_on_c, 4, 63, 0
6, 21660, Note_on_c, 4, 54, 0
6, 21660, Note_on_c, 4, 47, 100
6, 21660, Note_on_c, 4, 54, 100
6, 21660, Note_on_c, 4, 59, 100
6, 21660, Note_on_c, 4, 63, 100
6, 21660, Note_on_c, 4, 66, 100
6, 21780, Note_on_c, 4, 66, 0
6, 21780, Note_on_c, 4, 59, 0
6, 21780, Note_on_c, 4, 47, 0
6, 21780, Note_on_c, 4, 54, 0
6, 21780, Note_on_c, 4, 63, 0
6, 21780, Note_on_c, 4, 47, 100
6, 21780, Note_on_c, 4, 54, 100
6, 21780, Note_on_c, 4, 59, 100
6, 21780, Note_on_c, 4, 63, 100
6, 21780, Note_on_c, 4, 66, 100
6, 21900, Note_on_c, 4, 66, 0
6, 21900, Note_on_c, 4, 59, 0
6, 21900, Note_on_c, 4, 47, 0
6, 21900, Note_on_c, 4, 54, 0
6, 21900, Note_on_c, 4, 63, 0
6, 21900, Note_on_c, 4, 47, 100
6, 21900, Note_on_c, 4, 54, 100
6, 21900, Note_on_c, 4, 59, 100
6, 21900, Note_on_c, 4, 63, 100
6, 21900, Note_on_c, 4, 66, 100
6, 21960, Note_on_c, 4, 66, 0
6, 21960, Note_on_c, 4, 59, 0
6, 21960, Note_on_c, 4, 47, 0
6, 21960, Note_on_c, 4, 54, 0
6, 21960, Note_on_c, 4, 63, 0
6, 21960, Note_on_c, 4, 47, 100
6, 21960, Note_on_c, 4, 54, 100
6, 21960, Note_on_c, 4, 59, 100
6, 21960, Note_on_c, 4, 63, 100
6, 21960, Note_on_c, 4, 66, 100
6, 22020, Note_on_c, 4, 66, 0
6, 22020, Note_on_c, 4, 59, 0
6, 22020, Note_on_c, 4, 47, 0
6, 22020, Note_on_c, 4, 54, 0
6, 22020, Note_on_c, 4, 63, 0
6, 22020, Note_on_c, 4, 47, 100
6, 22020, Note_on_c, 4, 54, 100
6, 22020, Note_on_c, 4, 59, 100
6, 22020, Note_on_c, 4, 63, 100
6, 22020, Note_on_c, 4, 66, 100
6, 22080, Note_on_c, 4, 66, 0
6, 22080, Note_on_c, 4, 59, 0
6, 22080, Note_on_c, 4, 47, 0
6, 22080, Note_on_c, 4, 54, 0
6, 22080, Note_on_c, 4, 63, 0
6, 22080, Note_on_c, 4, 64, 100
6, 22080, Note_on_c, 4, 59, 100
6, 22080, Note_on_c, 4, 56, 100
6, 22080, Note_on_c, 4, 52, 100
6, 22080, Note_on_c, 4, 47, 100
6, 22080, Note_on_c, 4, 40, 100
6, 22380, Note_on_c, 4, 40, 0
6, 22380, Note_on_c, 4, 59, 0
6, 22380, Note_on_c, 4, 56, 0
6, 22380, Note_on_c, 4, 64, 0
6, 22380, Note_on_c, 4, 47, 0
6, 22380, Note_on_c, 4, 52, 0
6, 22380, Note_on_c, 4, 66, 100
6, 22380, Note_on_c, 4, 63, 100
6, 22380, Note_on_c, 4, 59, 100
6, 22380, Note_on_c, 4, 54, 100
6, 22380, Note_on_c, 4, 47, 100
6, 22500, Note_on_c, 4, 47, 0
6, 22500, Note_on_c, 4, 59, 0
6, 22500, Note_on_c, 4, 66, 0
6, 22500, Note_on_c, 4, 63, 0
6, 22500, Note_on_c, 4, 54, 0
6, 22500, Note_on_c, 4, 49, 100
6, 22500, Note_on_c, 4, 56, 100
6, 22500, Note_on_c, 4, 61, 100
6, 22500, Note_on_c, 4, 64, 100
6, 22500, Note_on_c, 4, 68, 100
6, 22860, Note_on_c, 4, 68, 0
6, 22860, Note_on_c, 4, 61, 0
6, 22860, Note_on_c, 4, 49, 0
6, 22860, Note_on_c, 4, 56, 0
6, 22860, Note_on_c, 4, 64, 0
6, 22860, Note_on_c, 4, 47, 100
6, 22860, Note_on_c, 4, 54, 100
6, 22860, Note_on_c, 4, 59, 100
6, 22860, Note_on_c, 4, 63, 100
6, 22860, Note_on_c, 4, 66, 100
6, 22920, Note_on_c, 4, 66, 0
6, 22920, Note_on_c, 4, 59, 0
6, 22920, Note_on_c, 4, 47, 0
6, 22920, Note_on_c, 4, 54, 0
6, 22920, Note_on_c, 4, 63, 0
6, 22920, Note_on_c, 4, 47, 100
6, 22920, Note_on_c, 4, 54, 100
6, 22920, Note_on_c, 4, 59, 100
6, 22920, Note_on_c, 4, 63, 100
6, 22920, Note_on_c, 4, 66, 100
6, 22980, Note_on_c, 4, 66, 0
6, 22980, Note_on_c, 4, 59, 0
6, 22980, Note_on_c, 4, 47, 0
6, 22980, Note_on_c, 4, 54, 0
6, 22980, Note_on_c, 4, 63, 0
6, 22980, Note_on_c, 4, 45, 100
6, 22980, Note_on_c, 4, 52, 100
6, 22980, Note_on_c, 4, 57, 100
6, 22980, Note_on_c, 4, 61, 100
6, 22980, Note_on_c, 4, 64, 100
6, 23040, Note_on_c, 4, 64, 0
6, 23040, Note_on_c, 4, 57, 0
6, 23040, Note_on_c, 4, 45, 0
6, 23040, Note_on_c, 4, 52, 0
6, 23040, Note_on_c, 4, 61, 0
6, 23040, Note_on_c, 4, 45, 100
6, 23040, Note_on_c, 4, 52, 100
6, 23040, Note_on_c, 4, 57, 100
6, 23040, Note_on_c, 4, 61, 100
6, 23040, Note_on_c, 4, 64, 100
6, 23160, Note_on_c, 4, 64, 0
6, 23160, Note_on_c, 4, 57, 0
6, 23160, Note_on_c, 4, 45, 0
6, 23160, Note_on_c, 4, 52, 0
6, 23160, Note_on_c, 4, 61, 0
6, 23160, Note_on_c, 4, 64, 100
6, 23160, Note_on_c, 4, 61, 100
6, 23160, Note_on_c, 4, 57, 100
6, 23160, Note_on_c, 4, 52, 100
6, 23160, Note_on_c, 4, 45, 100
6, 23340, Note_on_c, 4, 45, 0
6, 23340, Note_on_c, 4, 57, 0
6, 23340, Note_on_c, 4, 64, 0
6, 23340, Note_on_c, 4, 61, 0
6, 23340, Note_on_c, 4, 52, 0
6, 23340, Note_on_c, 4, 45, 100
6, 23340, Note_on_c, 4, 52, 100
6, 23340, Note_on_c, 4, 57, 100
6, 23340, Note_on_c, 4, 61, 100
6, 23340, Note_on_c, 4, 64, 100
6, 23460, Note_on_c, 4, 64, 0
6, 23460, Note_on_c, 4, 57, 0
6, 23460, Note_on_c, 4, 45, 0
6, 23460, Note_on_c, 4, 52, 0
6, 23460, Note_on_c, 4, 61, 0
6, 23460, Note_on_c, 4, 66, 100
6, 23460, Note_on_c, 4, 42, 100
6, 23460, Note_on_c, 4, 49, 100
6, 23460, Note_on_c, 4, 54, 100
6, 23460, Note_on_c, 4, 57, 100
6, 23460, Note_on_c, 4, 61, 100
6, 23700, Note_on_c, 4, 61, 0
6, 23700, Note_on_c, 4, 42, 0
6, 23700, Note_on_c, 4, 49, 0
6, 23700, Note_on_c, 4, 66, 0
6, 23700, Note_on_c, 4, 57, 0
6, 23700, Note_on_c, 4, 54, 0
6, 23700, Note_on_c, 4, 42, 100
6, 23700, Note_on_c, 4, 49, 100
6, 23700, Note_on_c, 4, 54, 100
6, 23700, Note_on_c, 4, 57, 100
6, 23700, Note_on_c, 4, 61, 100
6, 23700, Note_on_c, 4, 66, 100
6, 23820, Note_on_c, 4, 66, 0
6, 23820, Note_on_c, 4, 49, 0
6, 23820, Note_on_c, 4, 54, 0
6, 23820, Note_on_c, 4, 42, 0
6, 23820, Note_on_c, 4, 61, 0
6, 23820, Note_on_c, 4, 57, 0
6, 23820, Note_on_c, 4, 42, 100
6, 23820, Note_on_c, 4, 49, 100
6, 23820, Note_on_c, 4, 54, 100
6, 23820, Note_on_c, 4, 57, 100
6, 23820, Note_on_c, 4, 61, 100
6, 23820, Note_on_c, 4, 66, 100
6, 23880, Note_on_c, 4, 66, 0
6, 23880, Note_on_c, 4, 49, 0
6, 23880, Note_on_c, 4, 54, 0
6, 23880, Note_on_c, 4, 42, 0
6, 23880, Note_on_c, 4, 61, 0
6, 23880, Note_on_c, 4, 57, 0
6, 23880, Note_on_c, 4, 42, 100
6, 23880, Note_on_c, 4, 57, 100
6, 23880, Note_on_c, 4, 54, 100
6, 23880, Note_on_c, 4, 49, 100
6, 23880, Note_on_c, 4, 61, 100
6, 23880, Note_on_c, 4, 66, 100
6, 23940, Note_on_c, 4, 66, 0
6, 23940, Note_on_c, 4, 57, 0
6, 23940, Note_on_c, 4, 54, 0
6, 23940, Note_on_c, 4, 42, 0
6, 23940, Note_on_c, 4, 61, 0
6, 23940, Note_on_c, 4, 49, 0
6, 23940, Note_on_c, 4, 42, 100
6, 23940, Note_on_c, 4, 49, 100
6, 23940, Note_on_c, 4, 54, 100
6, 23940, Note_on_c, 4, 57, 100
6, 23940, Note_on_c, 4, 61, 100
6, 23940, Note_on_c, 4, 66, 100
6, 24000, Note_on_c, 4, 66, 0
6, 24000, Note_on_c, 4, 49, 0
6, 24000, Note_on_c, 4, 54, 0
6, 24000, Note_on_c, 4, 42, 0
6, 24000, Note_on_c, 4, 61, 0
6, 24000, Note_on_c, 4, 57, 0
6, 24000, Note_on_c, 4, 68, 100
6, 24000, Note_on_c, 4, 64, 100
6, 24000, Note_on_c, 4, 61, 100
6, 24000, Note_on_c, 4, 56, 100
6, 24000, Note_on_c, 4, 49, 100
6, 24120, Note_on_c, 4, 49, 0
6, 24120, Note_on_c, 4, 61, 0
6, 24120, Note_on_c, 4, 68, 0
6, 24120, Note_on_c, 4, 64, 0
6, 24120, Note_on_c, 4, 56, 0
6, 24120, Note_on_c, 4, 49, 100
6, 24120, Note_on_c, 4, 56, 100
6, 24120, Note_on_c, 4, 61, 100
6, 24120, Note_on_c, 4, 64, 100
6, 24120, Note_on_c, 4, 68, 100
6, 24240, Note_on_c, 4, 68, 0
6, 24240, Note_on_c, 4, 61, 0
6, 24240, Note_on_c, 4, 49, 0
6, 24240, Note_on_c, 4, 56, 0
6, 24240, Note_on_c, 4, 64, 0
6, 24240, Note_on_c, 4, 49, 100
6, 24240, Note_on_c, 4, 56, 100
6, 24240, Note_on_c, 4, 61, 100
6, 24240, Note_on_c, 4, 64, 100
6, 24240, Note_on_c, 4, 68, 100
6, 24300, Note_on_c, 4, 68, 0
6, 24300, Note_on_c, 4, 61, 0
6, 24300, Note_on_c, 4, 49, 0
6, 24300, Note_on_c, 4, 56, 0
6, 24300, Note_on_c, 4, 64, 0
6, 24300, Note_on_c, 4, 68, 100
6, 24300, Note_on_c, 4, 64, 100
6, 24300, Note_on_c, 4, 61, 100
6, 24300, Note_on_c, 4, 56, 100
6, 24300, Note_on_c, 4, 49, 100
6, 24360, Note_on_c, 4, 49, 0
6, 24360, Note_on_c, 4, 61, 0
6, 24360, Note_on_c, 4, 68, 0
6, 24360, Note_on_c, 4, 64, 0
6, 24360, Note_on_c, 4, 56, 0
6, 24360, Note_on_c, 4, 64, 100
6, 24360, Note_on_c, 4, 61, 100
6, 24360, Note_on_c, 4, 57, 100
6, 24360, Note_on_c, 4, 52, 100
6, 24360, Note_on_c, 4, 45, 100
6, 24420, Note_on_c, 4, 45, 0
6, 24420, Note_on_c, 4, 57, 0
6, 24420, Note_on_c, 4, 64, 0
6, 24420, Note_on_c, 4, 61, 0
6, 24420, Note_on_c, 4, 52, 0
6, 24420, Note_on_c, 4, 66, 100
6, 24420, Note_on_c, 4, 63, 100
6, 24420, Note_on_c, 4, 59, 100
6, 24420, Note_on_c, 4, 54, 100
6, 24420, Note_on_c, 4, 47, 100
6, 24540, Note_on_c, 4, 47, 0
6, 24540, Note_on_c, 4, 59, 0
6, 24540, Note_on_c, 4, 66, 0
6, 24540, Note_on_c, 4, 63, 0
6, 24540, Note_on_c, 4, 54, 0
6, 24540, Note_on_c, 4, 47, 100
6, 24540, Note_on_c, 4, 54, 100
6, 24540, Note_on_c, 4, 59, 100
6, 24540, Note_on_c, 4, 63, 100
6, 24540, Note_on_c, 4, 66, 100
6, 24600, Note_on_c, 4, 66, 0
6, 24600, Note_on_c, 4, 59, 0
6, 24600, Note_on_c, 4, 47, 0
6, 24600, Note_on_c, 4, 54, 0
6, 24600, Note_on_c, 4, 63, 0
6, 24600, Note_on_c, 4, 47, 100
6, 24600, Note_on_c, 4, 54, 100
6, 24600, Note_on_c, 4, 59, 100
6, 24600, Note_on_c, 4, 63, 100
6, 24600, Note_on_c, 4, 66, 100
6, 24720, Note_on_c, 4, 66, 0
6, 24720, Note_on_c, 4, 59, 0
6, 24720, Note_on_c, 4, 47, 0
6, 24720, Note_on_c, 4, 54, 0
6, 24720, Note_on_c, 4, 63, 0
6, 24720, Note_on_c, 4, 63, 100
6, 24720, Note_on_c, 4, 59, 100
6, 24720, Note_on_c, 4, 54, 100
6, 24720, Note_on_c, 4, 47, 100
6, 24720, Note_on_c, 4, 66, 100
6, 24780, Note_on_c, 4, 66, 0
6, 24780, Note_on_c, 4, 54, 0
6, 24780, Note_on_c, 4, 63, 0
6, 24780, Note_on_c, 4, 59, 0
6, 24780, Note_on_c, 4, 47, 0
6, 24780, Note_on_c, 4, 47, 100
6, 24780, Note_on_c, 4, 54, 100
6, 24780, Note_on_c, 4, 59, 100
6, 24780, Note_on_c, 4, 63, 100
6, 24780, Note_on_c, 4, 66, 100
6, 24840, Note_on_c, 4, 66, 0
6, 24840, Note_on_c, 4, 59, 0
6, 24840, Note_on_c, 4, 47, 0
6, 24840, Note_on_c, 4, 54, 0
6, 24840, Note_on_c, 4, 63, 0
6, 24840, Note_on_c, 4, 47, 100
6, 24840, Note_on_c, 4, 54, 100
6, 24840, Note_on_c, 4, 59, 100
6, 24840, Note_on_c, 4, 63, 100
6, 24840, Note_on_c, 4, 66, 100
6, 24900, Note_on_c, 4, 66, 0
6, 24900, Note_on_c, 4, 59, 0
6, 24900, Note_on_c, 4, 47, 0
6, 24900, Note_on_c, 4, 54, 0
6, 24900, Note_on_c, 4, 63, 0
6, 24900, Note_on_c, 4, 47, 100
6, 24900, Note_on_c, 4, 54, 100
6, 24900, Note_on_c, 4, 59, 100
6, 24900, Note_on_c, 4, 63, 100
6, 24900, Note_on_c, 4, 66, 100
6, 24930, Note_on_c, 4, 66, 0
6, 24930, Note_on_c, 4, 59, 0
6, 24930, Note_on_c, 4, 47, 0
6, 24930, Note_on_c, 4, 54, 0
6, 24930, Note_on_c, 4, 63, 0
6, 24930, Note_on_c, 4, 47, 100
6, 24930, Note_on_c, 4, 54, 100
6, 24930, Note_on_c, 4, 63, 100
6, 24930, Note_on_c, 4, 59, 100
6, 24930, Note_on_c, 4, 66, 100
6, 24960, Note_on_c, 4, 66, 0
6, 24960, Note_on_c, 4, 63, 0
6, 24960, Note_on_c, 4, 47, 0
6, 24960, Note_on_c, 4, 54, 0
6, 24960, Note_on_c, 4, 59, 0
6, 24960, Note_on_c, 4, 68, 100
6, 24960, Note_on_c, 4, 64, 100
6, 24960, Note_on_c, 4, 61, 100
6, 24960, Note_on_c, 4, 56, 100
6, 24960, Note_on_c, 4, 49, 100
6, 25080, Note_on_c, 4, 49, 0
6, 25080, Note_on_c, 4, 61, 0
6, 25080, Note_on_c, 4, 68, 0
6, 25080, Note_on_c, 4, 64, 0
6, 25080, Note_on_c, 4, 56, 0
6, 25080, Note_on_c, 4, 49, 100
6, 25080, Note_on_c, 4, 56, 100
6, 25080, Note_on_c, 4, 61, 100
6, 25080, Note_on_c, 4, 64, 100
6, 25080, Note_on_c, 4, 68, 100
6, 25140, Note_on_c, 4, 68, 0
6, 25140, Note_on_c, 4, 61, 0
6, 25140, Note_on_c, 4, 49, 0
6, 25140, Note_on_c, 4, 56, 0
6, 25140, Note_on_c, 4, 64, 0
6, 25140, Note_on_c, 4, 49, 100
6, 25140, Note_on_c, 4, 56, 100
6, 25140, Note_on_c, 4, 61, 100
6, 25140, Note_on_c, 4, 64, 100
6, 25140, Note_on_c, 4, 68, 100
6, 25200, Note_on_c, 4, 68, 0
6, 25200, Note_on_c, 4, 61, 0
6, 25200, Note_on_c, 4, 49, 0
6, 25200, Note_on_c, 4, 56, 0
6, 25200, Note_on_c, 4, 64, 0
6, 25200, Note_on_c, 4, 49, 100
6, 25200, Note_on_c, 4, 56, 100
6, 25200, Note_on_c, 4, 61, 100
6, 25200, Note_on_c, 4, 64, 100
6, 25200, Note_on_c, 4, 68, 100
6, 25260, Note_on_c, 4, 68, 0
6, 25260, Note_on_c, 4, 61, 0
6, 25260, Note_on_c, 4, 49, 0
6, 25260, Note_on_c, 4, 56, 0
6, 25260, Note_on_c, 4, 64, 0
6, 25260, Note_on_c, 4, 64, 100
6, 25260, Note_on_c, 4, 61, 100
6, 25260, Note_on_c, 4, 57, 100
6, 25260, Note_on_c, 4, 52, 100
6, 25260, Note_on_c, 4, 45, 100
6, 25320, Note_on_c, 4, 45, 0
6, 25320, Note_on_c, 4, 57, 0
6, 25320, Note_on_c, 4, 64, 0
6, 25320, Note_on_c, 4, 61, 0
6, 25320, Note_on_c, 4, 52, 0
6, 25320, Note_on_c, 4, 64, 100
6, 25320, Note_on_c, 4, 61, 100
6, 25320, Note_on_c, 4, 57, 100
6, 25320, Note_on_c, 4, 52, 100
6, 25320, Note_on_c, 4, 45, 100
6, 25380, Note_on_c, 4, 45, 0
6, 25380, Note_on_c, 4, 57, 0
6, 25380, Note_on_c, 4, 64, 0
6, 25380, Note_on_c, 4, 61, 0
6, 25380, Note_on_c, 4, 52, 0
6, 25380, Note_on_c, 4, 66, 100
6, 25380, Note_on_c, 4, 63, 100
6, 25380, Note_on_c, 4, 59, 100
6, 25380, Note_on_c, 4, 54, 100
6, 25380, Note_on_c, 4, 47, 100
6, 25500, Note_on_c, 4, 47, 0
6, 25500, Note_on_c, 4, 59, 0
6, 25500, Note_on_c, 4, 66, 0
6, 25500, Note_on_c, 4, 63, 0
6, 25500, Note_on_c, 4, 54, 0
6, 25500, Note_on_c, 4, 47, 100
6, 25500, Note_on_c, 4, 54, 100
6, 25500, Note_on_c, 4, 59, 100
6, 25500, Note_on_c, 4, 63, 100
6, 25500, Note_on_c, 4, 66, 100
6, 25560, Note_on_c, 4, 66, 0
6, 25560, Note_on_c, 4, 59, 0
6, 25560, Note_on_c, 4, 47, 0
6, 25560, Note_on_c, 4, 54, 0
6, 25560, Note_on_c, 4, 63, 0
6, 25560, Note_on_c, 4, 54, 100
6, 25560, Note_on_c, 4, 47, 100
6, 25560, Note_on_c, 4, 63, 100
6, 25560, Note_on_c, 4, 59, 100
6, 25560, Note_on_c, 4, 66, 100
6, 25620, Note_on_c, 4, 66, 0
6, 25620, Note_on_c, 4, 63, 0
6, 25620, Note_on_c, 4, 54, 0
6, 25620, Note_on_c, 4, 47, 0
6, 25620, Note_on_c, 4, 59, 0
6, 25620, Note_on_c, 4, 57, 100
6, 25620, Note_on_c, 4, 50, 100
6, 25620, Note_on_c, 4, 62, 100
6, 25620, Note_on_c, 4, 66, 100
6, 25740, Note_on_c, 4, 66, 0
6, 25740, Note_on_c, 4, 57, 0
6, 25740, Note_on_c, 4, 50, 0
6, 25740, Note_on_c, 4, 62, 0
6, 25740, Note_on_c, 4, 57, 100
6, 25740, Note_on_c, 4, 50, 100
6, 25740, Note_on_c, 4, 62, 100
6, 25740, Note_on_c, 4, 66, 100
6, 25800, Note_on_c, 4, 66, 0
6, 25800, Note_on_c, 4, 57, 0
6, 25800, Note_on_c, 4, 50, 0
6, 25800, Note_on_c, 4, 62, 0
6, 25800, Note_on_c, 4, 57, 100
6, 25800, Note_on_c, 4, 50, 100
6, 25800, Note_on_c, 4, 62, 100
6, 25800, Note_on_c, 4, 66, 100
6, 25860, Note_on_c, 4, 66, 0
6, 25860, Note_on_c, 4, 57, 0
6, 25860, Note_on_c, 4, 50, 0
6, 25860, Note_on_c, 4, 62, 0
6, 25860, Note_on_c, 4, 57, 100
6, 25860, Note_on_c, 4, 50, 100
6, 25860, Note_on_c, 4, 62, 100
6, 25860, Note_on_c, 4, 66, 100
6, 25920, Note_on_c, 4, 66, 0
6, 25920, Note_on_c, 4, 57, 0
6, 25920, Note_on_c, 4, 50, 0
6, 25920, Note_on_c, 4, 62, 0
6, 25920, Note_on_c, 4, 64, 100
6, 25920, Note_on_c, 4, 59, 100
6, 25920, Note_on_c, 4, 56, 100
6, 25920, Note_on_c, 4, 52, 100
6, 25920, Note_on_c, 4, 47, 100
6, 25920, Note_on_c, 4, 40, 100
6, 26040, Note_on_c, 4, 40, 0
6, 26040, Note_on_c, 4, 59, 0
6, 26040, Note_on_c, 4, 56, 0
6, 26040, Note_on_c, 4, 64, 0
6, 26040, Note_on_c, 4, 47, 0
6, 26040, Note_on_c, 4, 52, 0
6, 26040, Note_on_c, 4, 47, 100
6, 26040, Note_on_c, 4, 52, 100
6, 26040, Note_on_c, 4, 56, 100
6, 26040, Note_on_c, 4, 59, 100
6, 26040, Note_on_c, 4, 64, 100
6, 26040, Note_on_c, 4, 40, 100
6, 26100, Note_on_c, 4, 40, 0
6, 26100, Note_on_c, 4, 52, 0
6, 26100, Note_on_c, 4, 56, 0
6, 26100, Note_on_c, 4, 47, 0
6, 26100, Note_on_c, 4, 64, 0
6, 26100, Note_on_c, 4, 59, 0
6, 26100, Note_on_c, 4, 47, 100
6, 26100, Note_on_c, 4, 52, 100
6, 26100, Note_on_c, 4, 56, 100
6, 26100, Note_on_c, 4, 59, 100
6, 26100, Note_on_c, 4, 64, 100
6, 26100, Note_on_c, 4, 40, 100
6, 26160, Note_on_c, 4, 40, 0
6, 26160, Note_on_c, 4, 52, 0
6, 26160, Note_on_c, 4, 56, 0
6, 26160, Note_on_c, 4, 47, 0
6, 26160, Note_on_c, 4, 64, 0
6, 26160, Note_on_c, 4, 59, 0
6, 26160, Note_on_c, 4, 64, 100
6, 26160, Note_on_c, 4, 59, 100
6, 26160, Note_on_c, 4, 56, 100
6, 26160, Note_on_c, 4, 52, 100
6, 26160, Note_on_c, 4, 47, 100
6, 26160, Note_on_c, 4, 40, 100
6, 26220, Note_on_c, 4, 40, 0
6, 26220, Note_on_c, 4, 59, 0
6, 26220, Note_on_c, 4, 56, 0
6, 26220, Note_on_c, 4, 64, 0
6, 26220, Note_on_c, 4, 47, 0
6, 26220, Note_on_c, 4, 52, 0
6, 26220, Note_on_c, 4, 66, 100
6, 26220, Note_on_c, 4, 63, 100
6, 26220, Note_on_c, 4, 59, 100
6, 26220, Note_on_c, 4, 54, 100
6, 26220, Note_on_c, 4, 47, 100
6, 26340, Note_on_c, 4, 47, 0
6, 26340, Note_on_c, 4, 59, 0
6, 26340, Note_on_c, 4, 66, 0
6, 26340, Note_on_c, 4, 63, 0
6, 26340, Note_on_c, 4, 54, 0
6, 26340, Note_on_c, 4, 49, 100
6, 26340, Note_on_c, 4, 56, 100
6, 26340, Note_on_c, 4, 61, 100
6, 26340, Note_on_c, 4, 64, 100
6, 26340, Note_on_c, 4, 68, 100
6, 26460, Note_on_c, 4, 68, 0
6, 26460, Note_on_c, 4, 61, 0
6, 26460, Note_on_c, 4, 49, 0
6, 26460, Note_on_c, 4, 56, 0
6, 26460, Note_on_c, 4, 64, 0
6, 26460, Note_on_c, 4, 68, 100
6, 26460, Note_on_c, 4, 64, 100
6, 26460, Note_on_c, 4, 61, 100
6, 26460, Note_on_c, 4, 56, 100
6, 26460, Note_on_c, 4, 49, 100
6, 26520, Note_on_c, 4, 49, 0
6, 26520, Note_on_c, 4, 61, 0
6, 26520, Note_on_c, 4, 68, 0
6, 26520, Note_on_c, 4, 64, 0
6, 26520, Note_on_c, 4, 56, 0
6, 26520, Note_on_c, 4, 49, 100
6, 26520, Note_on_c, 4, 56, 100
6, 26520, Note_on_c, 4, 61, 100
6, 26520, Note_on_c, 4, 64, 100
6, 26520, Note_on_c, 4, 68, 100
6, 26640, Note_on_c, 4, 68, 0
6, 26640, Note_on_c, 4, 61, 0
6, 26640, Note_on_c, 4, 49, 0
6, 26640, Note_on_c, 4, 56, 0
6, 26640, Note_on_c, 4, 64, 0
6, 26640, Note_on_c, 4, 68, 100
6, 26640, Note_on_c, 4, 64, 100
6, 26640, Note_on_c, 4, 61, 100
6, 26640, Note_on_c, 4, 56, 100
6, 26640, Note_on_c, 4, 49, 100
6, 26700, Note_on_c, 4, 49, 0
6, 26700, Note_on_c, 4, 61, 0
6, 26700, Note_on_c, 4, 68, 0
6, 26700, Note_on_c, 4, 64, 0
6, 26700, Note_on_c, 4, 56, 0
6, 26700, Note_on_c, 4, 47, 100
6, 26700, Note_on_c, 4, 54, 100
6, 26700, Note_on_c, 4, 59, 100
6, 26700, Note_on_c, 4, 63, 100
6, 26700, Note_on_c, 4, 66, 100
6, 26760, Note_on_c, 4, 66, 0
6, 26760, Note_on_c, 4, 59, 0
6, 26760, Note_on_c, 4, 47, 0
6, 26760, Note_on_c, 4, 54, 0
6, 26760, Note_on_c, 4, 63, 0
6, 26760, Note_on_c, 4, 47, 100
6, 26760, Note_on_c, 4, 54, 100
6, 26760, Note_on_c, 4, 59, 100
6, 26760, Note_on_c, 4, 63, 100
6, 26760, Note_on_c, 4, 66, 100
6, 26820, Note_on_c, 4, 66, 0
6, 26820, Note_on_c, 4, 59, 0
6, 26820, Note_on_c, 4, 47, 0
6, 26820, Note_on_c, 4, 54, 0
6, 26820, Note_on_c, 4, 63, 0
6, 26820, Note_on_c, 4, 45, 100
6, 26820, Note_on_c, 4, 52, 100
6, 26820, Note_on_c, 4, 57, 100
6, 26820, Note_on_c, 4, 61, 100
6, 26820, Note_on_c, 4, 64, 100
6, 26880, Note_on_c, 4, 64, 0
6, 26880, Note_on_c, 4, 57, 0
6, 26880, Note_on_c, 4, 45, 0
6, 26880, Note_on_c, 4, 52, 0
6, 26880, Note_on_c, 4, 61, 0
6, 26880, Note_on_c, 4, 45, 100
6, 26880, Note_on_c, 4, 52, 100
6, 26880, Note_on_c, 4, 57, 100
6, 26880, Note_on_c, 4, 61, 100
6, 26880, Note_on_c, 4, 64, 100
6, 27000, Note_on_c, 4, 64, 0
6, 27000, Note_on_c, 4, 57, 0
6, 27000, Note_on_c, 4, 45, 0
6, 27000, Note_on_c, 4, 52, 0
6, 27000, Note_on_c, 4, 61, 0
6, 27000, Note_on_c, 4, 64, 100
6, 27000, Note_on_c, 4, 61, 100
6, 27000, Note_on_c, 4, 57, 100
6, 27000, Note_on_c, 4, 52, 100
6, 27000, Note_on_c, 4, 45, 100
6, 27180, Note_on_c, 4, 45, 0
6, 27180, Note_on_c, 4, 57, 0
6, 27180, Note_on_c, 4, 64, 0
6, 27180, Note_on_c, 4, 61, 0
6, 27180, Note_on_c, 4, 52, 0
6, 27180, Note_on_c, 4, 45, 100
6, 27180, Note_on_c, 4, 52, 100
6, 27180, Note_on_c, 4, 57, 100
6, 27180, Note_on_c, 4, 61, 100
6, 27180, Note_on_c, 4, 64, 100
6, 27300, Note_on_c, 4, 64, 0
6, 27300, Note_on_c, 4, 57, 0
6, 27300, Note_on_c, 4, 45, 0
6, 27300, Note_on_c, 4, 52, 0
6, 27300, Note_on_c, 4, 61, 0
6, 27300, Note_on_c, 4, 66, 100
6, 27300, Note_on_c, 4, 42, 100
6, 27300, Note_on_c, 4, 49, 100
6, 27300, Note_on_c, 4, 54, 100
6, 27300, Note_on_c, 4, 57, 100
6, 27300, Note_on_c, 4, 61, 100
6, 27540, Note_on_c, 4, 61, 0
6, 27540, Note_on_c, 4, 42, 0
6, 27540, Note_on_c, 4, 49, 0
6, 27540, Note_on_c, 4, 66, 0
6, 27540, Note_on_c, 4, 57, 0
6, 27540, Note_on_c, 4, 54, 0
6, 27540, Note_on_c, 4, 42, 100
6, 27540, Note_on_c, 4, 49, 100
6, 27540, Note_on_c, 4, 54, 100
6, 27540, Note_on_c, 4, 57, 100
6, 27540, Note_on_c, 4, 61, 100
6, 27540, Note_on_c, 4, 66, 100
6, 27660, Note_on_c, 4, 66, 0
6, 27660, Note_on_c, 4, 49, 0
6, 27660, Note_on_c, 4, 54, 0
6, 27660, Note_on_c, 4, 42, 0
6, 27660, Note_on_c, 4, 61, 0
6, 27660, Note_on_c, 4, 57, 0
6, 27660, Note_on_c, 4, 42, 100
6, 27660, Note_on_c, 4, 49, 100
6, 27660, Note_on_c, 4, 54, 100
6, 27660, Note_on_c, 4, 57, 100
6, 27660, Note_on_c, 4, 61, 100
6, 27660, Note_on_c, 4, 66, 100
6, 27720, Note_on_c, 4, 66, 0
6, 27720, Note_on_c, 4, 49, 0
6, 27720, Note_on_c, 4, 54, 0
6, 27720, Note_on_c, 4, 42, 0
6, 27720, Note_on_c, 4, 61, 0
6, 27720, Note_on_c, 4, 57, 0
6, 27720, Note_on_c, 4, 42, 100
6, 27720, Note_on_c, 4, 57, 100
6, 27720, Note_on_c, 4, 54, 100
6, 27720, Note_on_c, 4, 49, 100
6, 27720, Note_on_c, 4, 61, 100
6, 27720, Note_on_c, 4, 66, 100
6, 27780, Note_on_c, 4, 66, 0
6, 27780, Note_on_c, 4, 57, 0
6, 27780, Note_on_c, 4, 54, 0
6, 27780, Note_on_c, 4, 42, 0
6, 27780, Note_on_c, 4, 61, 0
6, 27780, Note_on_c, 4, 49, 0
6, 27780, Note_on_c, 4, 42, 100
6, 27780, Note_on_c, 4, 49, 100
6, 27780, Note_on_c, 4, 54, 100
6, 27780, Note_on_c, 4, 57, 100
6, 27780, Note_on_c, 4, 61, 100
6, 27780, Note_on_c, 4, 66, 100
6, 27840, Note_on_c, 4, 66, 0
6, 27840, Note_on_c, 4, 49, 0
6, 27840, Note_on_c, 4, 54, 0
6, 27840, Note_on_c, 4, 42, 0
6, 27840, Note_on_c, 4, 61, 0
6, 27840, Note_on_c, 4, 57, 0
6, 27840, Note_on_c, 4, 68, 100
6, 27840, Note_on_c, 4, 64, 100
6, 27840, Note_on_c, 4, 61, 100
6, 27840, Note_on_c, 4, 56, 100
6, 27840, Note_on_c, 4, 49, 100
6, 27960, Note_on_c, 4, 49, 0
6, 27960, Note_on_c, 4, 61, 0
6, 27960, Note_on_c, 4, 68, 0
6, 27960, Note_on_c, 4, 64, 0
6, 27960, Note_on_c, 4, 56, 0
6, 27960, Note_on_c, 4, 49, 100
6, 27960, Note_on_c, 4, 56, 100
6, 27960, Note_on_c, 4, 61, 100
6, 27960, Note_on_c, 4, 64, 100
6, 27960, Note_on_c, 4, 68, 100
6, 28080, Note_on_c, 4, 68, 0
6, 28080, Note_on_c, 4, 61, 0
6, 28080, Note_on_c, 4, 49, 0
6, 28080, Note_on_c, 4, 56, 0
6, 28080, Note_on_c, 4, 64, 0
6, 28080, Note_on_c, 4, 49, 100
6, 28080, Note_on_c, 4, 56, 100
6, 28080, Note_on_c, 4, 61, 100
6, 28080, Note_on_c, 4, 64, 100
6, 28080, Note_on_c, 4, 68, 100
6, 28140, Note_on_c, 4, 68, 0
6, 28140, Note_on_c, 4, 61, 0
6, 28140, Note_on_c, 4, 49, 0
6, 28140, Note_on_c, 4, 56, 0
6, 28140, Note_on_c, 4, 64, 0
6, 28140, Note_on_c, 4, 68, 100
6, 28140, Note_on_c, 4, 64, 100
6, 28140, Note_on_c, 4, 61, 100
6, 28140, Note_on_c, 4, 56, 100
6, 28140, Note_on_c, 4, 49, 100
6, 28200, Note_on_c, 4, 49, 0
6, 28200, Note_on_c, 4, 61, 0
6, 28200, Note_on_c, 4, 68, 0
6, 28200, Note_on_c, 4, 64, 0
6, 28200, Note_on_c, 4, 56, 0
6, 28200, Note_on_c, 4, 64, 100
6, 28200, Note_on_c, 4, 61, 100
6, 28200, Note_on_c, 4, 57, 100
6, 28200, Note_on_c, 4, 52, 100
6, 28200, Note_on_c, 4, 45, 100
6, 28260, Note_on_c, 4, 45, 0
6, 28260, Note_on_c, 4, 57, 0
6, 28260, Note_on_c, 4, 64, 0
6, 28260, Note_on_c, 4, 61, 0
6, 28260, Note_on_c, 4, 52, 0
6, 28260, Note_on_c, 4, 66, 100
6, 28260, Note_on_c, 4, 63, 100
6, 28260, Note_on_c, 4, 59, 100
6, 28260, Note_on_c, 4, 54, 100
6, 28260, Note_on_c, 4, 47, 100
6, 28380, Note_on_c, 4, 47, 0
6, 28380, Note_on_c, 4, 59, 0
6, 28380, Note_on_c, 4, 66, 0
6, 28380, Note_on_c, 4, 63, 0
6, 28380, Note_on_c, 4, 54, 0
6, 28380, Note_on_c, 4, 47, 100
6, 28380, Note_on_c, 4, 54, 100
6, 28380, Note_on_c, 4, 59, 100
6, 28380, Note_on_c, 4, 63, 100
6, 28380, Note_on_c, 4, 66, 100
6, 28440, Note_on_c, 4, 66, 0
6, 28440, Note_on_c, 4, 59, 0
6, 28440, Note_on_c, 4, 47, 0
6, 28440, Note_on_c, 4, 54, 0
6, 28440, Note_on_c, 4, 63, 0
6, 28440, Note_on_c, 4, 47, 100
6, 28440, Note_on_c, 4, 54, 100
6, 28440, Note_on_c, 4, 59, 100
6, 28440, Note_on_c, 4, 63, 100
6, 28440, Note_on_c, 4, 66, 100
6, 28560, Note_on_c, 4, 66, 0
6, 28560, Note_on_c, 4, 59, 0
6, 28560, Note_on_c, 4, 47, 0
6, 28560, Note_on_c, 4, 54, 0
6, 28560, Note_on_c, 4, 63, 0
6, 28560, Note_on_c, 4, 63, 100
6, 28560, Note_on_c, 4, 59, 100
6, 28560, Note_on_c, 4, 54, 100
6, 28560, Note_on_c, 4, 47, 100
6, 28560, Note_on_c, 4, 66, 100
6, 28620, Note_on_c, 4, 66, 0
6, 28620, Note_on_c, 4, 54, 0
6, 28620, Note_on_c, 4, 63, 0
6, 28620, Note_on_c, 4, 59, 0
6, 28620, Note_on_c, 4, 47, 0
6, 28620, Note_on_c, 4, 47, 100
6, 28620, Note_on_c, 4, 54, 100
6, 28620, Note_on_c, 4, 59, 100
6, 28620, Note_on_c, 4, 63, 100
6, 28620, Note_on_c, 4, 66, 100
6, 28680, Note_on_c, 4, 66, 0
6, 28680, Note_on_c, 4, 59, 0
6, 28680, Note_on_c, 4, 47, 0
6, 28680, Note_on_c, 4, 54, 0
6, 28680, Note_on_c, 4, 63, 0
6, 28680, Note_on_c, 4, 47, 100
6, 28680, Note_on_c, 4, 54, 100
6, 28680, Note_on_c, 4, 59, 100
6, 28680, Note_on_c, 4, 63, 100
6, 28680, Note_on_c, 4, 66, 100
6, 28740, Note_on_c, 4, 66, 0
6, 28740, Note_on_c, 4, 59, 0
6, 28740, Note_on_c, 4, 47, 0
6, 28740, Note_on_c, 4, 54, 0
6, 28740, Note_on_c, 4, 63, 0
6, 28740, Note_on_c, 4, 47, 100
6, 28740, Note_on_c, 4, 54, 100
6, 28740, Note_on_c, 4, 59, 100
6, 28740, Note_on_c, 4, 63, 100
6, 28740, Note_on_c, 4, 66, 100
6, 28770, Note_on_c, 4, 66, 0
6, 28770, Note_on_c, 4, 59, 0
6, 28770, Note_on_c, 4, 47, 0
6, 28770, Note_on_c, 4, 54, 0
6, 28770, Note_on_c, 4, 63, 0
6, 28770, Note_on_c, 4, 47, 100
6, 28770, Note_on_c, 4, 54, 100
6, 28770, Note_on_c, 4, 63, 100
6, 28770, Note_on_c, 4, 59, 100
6, 28770, Note_on_c, 4, 66, 100
6, 28800, Note_on_c, 4, 66, 0
6, 28800, Note_on_c, 4, 63, 0
6, 28800, Note_on_c, 4, 47, 0
6, 28800, Note_on_c, 4, 54, 0
6, 28800, Note_on_c, 4, 59, 0
6, 28800, Note_on_c, 4, 68, 100
6, 28800, Note_on_c, 4, 64, 100
6, 28800, Note_on_c, 4, 61, 100
6, 28800, Note_on_c, 4, 56, 100
6, 28800, Note_on_c, 4, 49, 100
6, 28920, Note_on_c, 4, 49, 0
6, 28920, Note_on_c, 4, 61, 0
6, 28920, Note_on_c, 4, 68, 0
6, 28920, Note_on_c, 4, 64, 0
6, 28920, Note_on_c, 4, 56, 0
6, 28920, Note_on_c, 4, 49, 100
6, 28920, Note_on_c, 4, 56, 100
6, 28920, Note_on_c, 4, 61, 100
6, 28920, Note_on_c, 4, 64, 100
6, 28920, Note_on_c, 4, 68, 100
6, 28980, Note_on_c, 4, 68, 0
6, 28980, Note_on_c, 4, 61, 0
6, 28980, Note_on_c, 4, 49, 0
6, 28980, Note_on_c, 4, 56, 0
6, 28980, Note_on_c, 4, 64, 0
6, 28980, Note_on_c, 4, 49, 100
6, 28980, Note_on_c, 4, 56, 100
6, 28980, Note_on_c, 4, 61, 100
6, 28980, Note_on_c, 4, 64, 100
6, 28980, Note_on_c, 4, 68, 100
6, 29040, Note_on_c, 4, 68, 0
6, 29040, Note_on_c, 4, 61, 0
6, 29040, Note_on_c, 4, 49, 0
6, 29040, Note_on_c, 4, 56, 0
6, 29040, Note_on_c, 4, 64, 0
6, 29040, Note_on_c, 4, 49, 100
6, 29040, Note_on_c, 4, 56, 100
6, 29040, Note_on_c, 4, 61, 100
6, 29040, Note_on_c, 4, 64, 100
6, 29040, Note_on_c, 4, 68, 100
6, 29100, Note_on_c, 4, 68, 0
6, 29100, Note_on_c, 4, 61, 0
6, 29100, Note_on_c, 4, 49, 0
6, 29100, Note_on_c, 4, 56, 0
6, 29100, Note_on_c, 4, 64, 0
6, 29100, Note_on_c, 4, 64, 100
6, 29100, Note_on_c, 4, 61, 100
6, 29100, Note_on_c, 4, 57, 100
6, 29100, Note_on_c, 4, 52, 100
6, 29100, Note_on_c, 4, 45, 100
6, 29160, Note_on_c, 4, 45, 0
6, 29160, Note_on_c, 4, 57, 0
6, 29160, Note_on_c, 4, 64, 0
6, 29160, Note_on_c, 4, 61, 0
6, 29160, Note_on_c, 4, 52, 0
6, 29160, Note_on_c, 4, 64, 100
6, 29160, Note_on_c, 4, 61, 100
6, 29160, Note_on_c, 4, 57, 100
6, 29160, Note_on_c, 4, 52, 100
6, 29160, Note_on_c, 4, 45, 100
6, 29220, Note_on_c, 4, 45, 0
6, 29220, Note_on_c, 4, 57, 0
6, 29220, Note_on_c, 4, 64, 0
6, 29220, Note_on_c, 4, 61, 0
6, 29220, Note_on_c, 4, 52, 0
6, 29220, Note_on_c, 4, 66, 100
6, 29220, Note_on_c, 4, 63, 100
6, 29220, Note_on_c, 4, 59, 100
6, 29220, Note_on_c, 4, 54, 100
6, 29220, Note_on_c, 4, 47, 100
6, 29340, Note_on_c, 4, 47, 0
6, 29340, Note_on_c, 4, 59, 0
6, 29340, Note_on_c, 4, 66, 0
6, 29340, Note_on_c, 4, 63, 0
6, 29340, Note_on_c, 4, 54, 0
6, 29340, Note_on_c, 4, 47, 100
6, 29340, Note_on_c, 4, 54, 100
6, 29340, Note_on_c, 4, 59, 100
6, 29340, Note_on_c, 4, 63, 100
6, 29340, Note_on_c, 4, 66, 100
6, 29400, Note_on_c, 4, 66, 0
6, 29400, Note_on_c, 4, 59, 0
6, 29400, Note_on_c, 4, 47, 0
6, 29400, Note_on_c, 4, 54, 0
6, 29400, Note_on_c, 4, 63, 0
6, 29400, Note_on_c, 4, 54, 100
6, 29400, Note_on_c, 4, 47, 100
6, 29400, Note_on_c, 4, 63, 100
6, 29400, Note_on_c, 4, 59, 100
6, 29400, Note_on_c, 4, 66, 100
6, 29460, Note_on_c, 4, 66, 0
6, 29460, Note_on_c, 4, 63, 0
6, 29460, Note_on_c, 4, 54, 0
6, 29460, Note_on_c, 4, 47, 0
6, 29460, Note_on_c, 4, 59, 0
6, 29460, Note_on_c, 4, 57, 100
6, 29460, Note_on_c, 4, 50, 100
6, 29460, Note_on_c, 4, 62, 100
6, 29460, Note_on_c, 4, 66, 100
6, 29580, Note_on_c, 4, 66, 0
6, 29580, Note_on_c, 4, 57, 0
6, 29580, Note_on_c, 4, 50, 0
6, 29580, Note_on_c, 4, 62, 0
6, 29580, Note_on_c, 4, 57, 100
6, 29580, Note_on_c, 4, 50, 100
6, 29580, Note_on_c, 4, 62, 100
6, 29580, Note_on_c, 4, 66, 100
6, 29640, Note_on_c, 4, 66, 0
6, 29640, Note_on_c, 4, 57, 0
6, 29640, Note_on_c, 4, 50, 0
6, 29640, Note_on_c, 4, 62, 0
6, 29640, Note_on_c, 4, 57, 100
6, 29640, Note_on_c, 4, 50, 100
6, 29640, Note_on_c, 4, 62, 100
6, 29640, Note_on_c, 4, 66, 100
6, 29700, Note_on_c, 4, 66, 0
6, 29700, Note_on_c, 4, 57, 0
6, 29700, Note_on_c, 4, 50, 0
6, 29700, Note_on_c, 4, 62, 0
6, 29700, Note_on_c, 4, 57, 100
6, 29700, Note_on_c, 4, 50, 100
6, 29700, Note_on_c, 4, 62, 100
6, 29700, Note_on_c, 4, 66, 100
6, 29760, Note_on_c, 4, 66, 0
6, 29760, Note_on_c, 4, 57, 0
6, 29760, Note_on_c, 4, 50, 0
6, 29760, Note_on_c, 4, 62, 0
6, 29760, Note_on_c, 4, 64, 100
6, 29760, Note_on_c, 4, 59, 100
6, 29760, Note_on_c, 4, 56, 100
6, 29760, Note_on_c, 4, 52, 100
6, 29760, Note_on_c, 4, 47, 100
6, 29760, Note_on_c, 4, 40, 100
6, 29880, Note_on_c, 4, 40, 0
6, 29880, Note_on_c, 4, 59, 0
6, 29880, Note_on_c, 4, 56, 0
6, 29880, Note_on_c, 4, 64, 0
6, 29880, Note_on_c, 4, 47, 0
6, 29880, Note_on_c, 4, 52, 0
6, 29880, Note_on_c, 4, 40, 100
6, 29880, Note_on_c, 4, 47, 100
6, 29880, Note_on_c, 4, 52, 100
6, 29880, Note_on_c, 4, 56, 100
6, 29880, Note_on_c, 4, 59, 100
6, 29880, Note_on_c, 4, 64, 100
6, 30000, Note_on_c, 4, 64, 0
6, 30000, Note_on_c, 4, 47, 0
6, 30000, Note_on_c, 4, 52, 0
6, 30000, Note_on_c, 4, 40, 0
6, 30000, Note_on_c, 4, 59, 0
6, 30000, Note_on_c, 4, 56, 0
6, 30000, Note_on_c, 4, 40, 100
6, 30000, Note_on_c, 4, 47, 100
6, 30000, Note_on_c, 4, 52, 100
6, 30000, Note_on_c, 4, 56, 100
6, 30000, Note_on_c, 4, 59, 100
6, 30000, Note_on_c, 4, 64, 100
6, 30060, Note_on_c, 4, 64, 0
6, 30060, Note_on_c, 4, 47, 0
6, 30060, Note_on_c, 4, 52, 0
6, 30060, Note_on_c, 4, 40, 0
6, 30060, Note_on_c, 4, 59, 0
6, 30060, Note_on_c, 4, 56, 0
6, 30060, Note_on_c, 4, 59, 100
6, 30060, Note_on_c, 4, 56, 100
6, 30060, Note_on_c, 4, 52, 100
6, 30060, Note_on_c, 4, 47, 100
6, 30060, Note_on_c, 4, 40, 100
6, 30060, Note_on_c, 4, 64, 100
6, 30120, Note_on_c, 4, 64, 0
6, 30120, Note_on_c, 4, 56, 0
6, 30120, Note_on_c, 4, 52, 0
6, 30120, Note_on_c, 4, 59, 0
6, 30120, Note_on_c, 4, 40, 0
6, 30120, Note_on_c, 4, 47, 0
6, 30120, Note_on_c, 4, 52, 100
6, 30120, Note_on_c, 4, 56, 100
6, 30120, Note_on_c, 4, 59, 100
6, 30120, Note_on_c, 4, 47, 100
6, 30120, Note_on_c, 4, 40, 100
6, 30120, Note_on_c, 4, 64, 100
6, 30180, Note_on_c, 4, 64, 0
6, 30180, Note_on_c, 4, 56, 0
6, 30180, Note_on_c, 4, 59, 0
6, 30180, Note_on_c, 4, 52, 0
6, 30180, Note_on_c, 4, 40, 0
6, 30180, Note_on_c, 4, 47, 0
6, 30180, Note_on_c, 4, 47, 100
6, 30180, Note_on_c, 4, 59, 100
6, 30180, Note_on_c, 4, 54, 100
6, 30180, Note_on_c, 4, 63, 100
6, 30300, Note_on_c, 4, 63, 0
6, 30300, Note_on_c, 4, 47, 0
6, 30300, Note_on_c, 4, 59, 0
6, 30300, Note_on_c, 4, 54, 0
6, 30300, Note_on_c, 4, 47, 100
6, 30300, Note_on_c, 4, 54, 100
6, 30300, Note_on_c, 4, 59, 100
6, 30300, Note_on_c, 4, 63, 100
6, 30360, Note_on_c, 4, 63, 0
6, 30360, Note_on_c, 4, 47, 0
6, 30360, Note_on_c, 4, 54, 0
6, 30360, Note_on_c, 4, 59, 0
6, 30360, Note_on_c, 4, 47, 100
6, 30360, Note_on_c, 4, 54, 100
6, 30360, Note_on_c, 4, 59, 100
6, 30360, Note_on_c, 4, 63, 100
6, 30480, Note_on_c, 4, 63, 0
6, 30480, Note_on_c, 4, 47, 0
6, 30480, Note_on_c, 4, 54, 0
6, 30480, Note_on_c, 4, 59, 0
6, 30480, Note_on_c, 4, 47, 100
6, 30480, Note_on_c, 4, 54, 100
6, 30480, Note_on_c, 4, 59, 100
6, 30480, Note_on_c, 4, 63, 100
6, 30540, Note_on_c, 4, 63, 0
6, 30540, Note_on_c, 4, 47, 0
6, 30540, Note_on_c, 4, 54, 0
6, 30540, Note_on_c, 4, 59, 0
6, 30540, Note_on_c, 4, 47, 100
6, 30540, Note_on_c, 4, 54, 100
6, 30540, Note_on_c, 4, 59, 100
6, 30540, Note_on_c, 4, 63, 100
6, 30600, Note_on_c, 4, 63, 0
6, 30600, Note_on_c, 4, 47, 0
6, 30600, Note_on_c, 4, 54, 0
6, 30600, Note_on_c, 4, 59, 0
6, 30600, Note_on_c, 4, 47, 100
6, 30600, Note_on_c, 4, 54, 100
6, 30600, Note_on_c, 4, 59, 100
6, 30600, Note_on_c, 4, 63, 100
6, 30660, Note_on_c, 4, 63, 0
6, 30660, Note_on_c, 4, 47, 0
6, 30660, Note_on_c, 4, 54, 0
6, 30660, Note_on_c, 4, 59, 0
6, 30660, Note_on_c, 4, 50, 100
6, 30660, Note_on_c, 4, 57, 100
6, 30660, Note_on_c, 4, 62, 100
6, 30780, Note_on_c, 4, 62, 0
6, 30780, Note_on_c, 4, 57, 0
6, 30780, Note_on_c, 4, 50, 0
6, 30780, Note_on_c, 4, 50, 100
6, 30780, Note_on_c, 4, 57, 100
6, 30780, Note_on_c, 4, 62, 100
6, 30840, Note_on_c, 4, 62, 0
6, 30840, Note_on_c, 4, 57, 0
6, 30840, Note_on_c, 4, 50, 0
6, 30840, Note_on_c, 4, 50, 100
6, 30840, Note_on_c, 4, 57, 100
6, 30840, Note_on_c, 4, 62, 100
6, 30900, Note_on_c, 4, 62, 0
6, 30900, Note_on_c, 4, 57, 0
6, 30900, Note_on_c, 4, 50, 0
6, 30900, Note_on_c, 4, 45, 100
6, 30900, Note_on_c, 4, 52, 100
6, 30900, Note_on_c, 4, 57, 100
6, 30900, Note_on_c, 4, 61, 100
6, 30900, Note_on_c, 4, 64, 100
6, 31020, Note_on_c, 4, 64, 0
6, 31020, Note_on_c, 4, 57, 0
6, 31020, Note_on_c, 4, 45, 0
6, 31020, Note_on_c, 4, 52, 0
6, 31020, Note_on_c, 4, 61, 0
6, 31020, Note_on_c, 4, 45, 100
6, 31020, Note_on_c, 4, 52, 100
6, 31020, Note_on_c, 4, 57, 100
6, 31020, Note_on_c, 4, 61, 100
6, 31020, Note_on_c, 4, 64, 100
6, 31080, Note_on_c, 4, 64, 0
6, 31080, Note_on_c, 4, 57, 0
6, 31080, Note_on_c, 4, 45, 0
6, 31080, Note_on_c, 4, 52, 0
6, 31080, Note_on_c, 4, 61, 0
6, 31080, Note_on_c, 4, 57, 100
6, 31080, Note_on_c, 4, 45, 100
6, 31080, Note_on_c, 4, 52, 100
6, 31080, Note_on_c, 4, 61, 100
6, 31080, Note_on_c, 4, 64, 100
6, 31140, Note_on_c, 4, 64, 0
6, 31140, Note_on_c, 4, 52, 0
6, 31140, Note_on_c, 4, 57, 0
6, 31140, Note_on_c, 4, 45, 0
6, 31140, Note_on_c, 4, 61, 0
6, 31140, Note_on_c, 4, 47, 100
6, 31140, Note_on_c, 4, 54, 100
6, 31140, Note_on_c, 4, 59, 100
6, 31140, Note_on_c, 4, 63, 100
6, 31260, Note_on_c, 4, 63, 0
6, 31260, Note_on_c, 4, 47, 0
6, 31260, Note_on_c, 4, 54, 0
6, 31260, Note_on_c, 4, 59, 0
6, 31260, Note_on_c, 4, 47, 100
6, 31260, Note_on_c, 4, 54, 100
6, 31260, Note_on_c, 4, 59, 100
6, 31260, Note_on_c, 4, 63, 100
6, 31320, Note_on_c, 4, 63, 0
6, 31320, Note_on_c, 4, 47, 0
6, 31320, Note_on_c, 4, 54, 0
6, 31320, Note_on_c, 4, 59, 0
6, 31320, Note_on_c, 4, 47, 100
6, 31320, Note_on_c, 4, 54, 100
6, 31320, Note_on_c, 4, 59, 100
6, 31320, Note_on_c, 4, 63, 100
6, 31440, Note_on_c, 4, 63, 0
6, 31440, Note_on_c, 4, 47, 0
6, 31440, Note_on_c, 4, 54, 0
6, 31440, Note_on_c, 4, 59, 0
6, 31440, Note_on_c, 4, 47, 100
6, 31440, Note_on_c, 4, 54, 100
6, 31440, Note_on_c, 4, 59, 100
6, 31440, Note_on_c, 4, 63, 100
6, 31500, Note_on_c, 4, 63, 0
6, 31500, Note_on_c, 4, 47, 0
6, 31500, Note_on_c, 4, 54, 0
6, 31500, Note_on_c, 4, 59, 0
6, 31500, Note_on_c, 4, 54, 100
6, 31500, Note_on_c, 4, 59, 100
6, 31500, Note_on_c, 4, 47, 100
6, 31500, Note_on_c, 4, 63, 100
6, 31560, Note_on_c, 4, 63, 0
6, 31560, Note_on_c, 4, 54, 0
6, 31560, Note_on_c, 4, 59, 0
6, 31560, Note_on_c, 4, 47, 0
6, 31560, Note_on_c, 4, 54, 100
6, 31560, Note_on_c, 4, 59, 100
6, 31560, Note_on_c, 4, 47, 100
6, 31560, Note_on_c, 4, 63, 100
6, 31620, Note_on_c, 4, 63, 0
6, 31620, Note_on_c, 4, 54, 0
6, 31620, Note_on_c, 4, 59, 0
6, 31620, Note_on_c, 4, 47, 0
6, 31620, Note_on_c, 4, 42, 100
6, 31620, Note_on_c, 4, 54, 100
6, 31620, Note_on_c, 4, 49, 100
6, 31620, Note_on_c, 4, 57, 100
6, 31620, Note_on_c, 4, 61, 100
6, 31740, Note_on_c, 4, 61, 0
6, 31740, Note_on_c, 4, 49, 0
6, 31740, Note_on_c, 4, 42, 0
6, 31740, Note_on_c, 4, 54, 0
6, 31740, Note_on_c, 4, 57, 0
6, 31740, Note_on_c, 4, 54, 100
6, 31740, Note_on_c, 4, 49, 100
6, 31740, Note_on_c, 4, 42, 100
6, 31740, Note_on_c, 4, 57, 100
6, 31740, Note_on_c, 4, 61, 100
6, 31800, Note_on_c, 4, 61, 0
6, 31800, Note_on_c, 4, 42, 0
6, 31800, Note_on_c, 4, 54, 0
6, 31800, Note_on_c, 4, 49, 0
6, 31800, Note_on_c, 4, 57, 0
6, 31800, Note_on_c, 4, 61, 100
6, 31800, Note_on_c, 4, 54, 100
6, 31800, Note_on_c, 4, 49, 100
6, 31800, Note_on_c, 4, 42, 100
6, 31800, Note_on_c, 4, 57, 100
6, 31860, Note_on_c, 4, 57, 0
6, 31860, Note_on_c, 4, 49, 0
6, 31860, Note_on_c, 4, 61, 0
6, 31860, Note_on_c, 4, 54, 0
6, 31860, Note_on_c, 4, 42, 0
6, 31860, Note_on_c, 4, 71, 100
6, 31860, Note_on_c, 4, 47, 100
6, 31860, Note_on_c, 4, 54, 100
6, 31860, Note_on_c, 4, 59, 100
6, 31860, Note_on_c, 4, 63, 100
6, 31980, Note_on_c, 4, 63, 0
6, 31980, Note_on_c, 4, 54, 0
6, 31980, Note_on_c, 4, 71, 0
6, 31980, Note_on_c, 4, 47, 0
6, 31980, Note_on_c, 4, 59, 0
6, 31980, Note_on_c, 4, 69, 100
6, 31980, Note_on_c, 4, 47, 100
6, 31980, Note_on_c, 4, 54, 100
6, 31980, Note_on_c, 4, 59, 100
6, 31980, Note_on_c, 4, 63, 100
6, 32040, Note_on_c, 4, 63, 0
6, 32040, Note_on_c, 4, 54, 0
6, 32040, Note_on_c, 4, 69, 0
6, 32040, Note_on_c, 4, 47, 0
6, 32040, Note_on_c, 4, 59, 0
6, 32040, Note_on_c, 4, 47, 100
6, 32040, Note_on_c, 4, 54, 100
6, 32040, Note_on_c, 4, 59, 100
6, 32040, Note_on_c, 4, 63, 100
6, 32040, Note_on_c, 4, 68, 100
6, 32100, Note_on_c, 4, 68, 0
6, 32100, Note_on_c, 4, 59, 0
6, 32100, Note_on_c, 4, 47, 0
6, 32100, Note_on_c, 4, 54, 0
6, 32100, Note_on_c, 4, 63, 0
6, 32100, Note_on_c, 4, 66, 100
6, 32100, Note_on_c, 4, 47, 100
6, 32100, Note_on_c, 4, 54, 100
6, 32100, Note_on_c, 4, 59, 100
6, 32100, Note_on_c, 4, 63, 100
6, 32160, Note_on_c, 4, 63, 0
6, 32160, Note_on_c, 4, 54, 0
6, 32160, Note_on_c, 4, 66, 0
6, 32160, Note_on_c, 4, 47, 0
6, 32160, Note_on_c, 4, 59, 0
6, 32160, Note_on_c, 4, 66, 100
6, 32160, Note_on_c, 4, 61, 100
6, 32160, Note_on_c, 4, 57, 100
6, 32160, Note_on_c, 4, 54, 100
6, 32160, Note_on_c, 4, 49, 100
6, 32160, Note_on_c, 4, 42, 100
6, 32280, Note_on_c, 4, 42, 0
6, 32280, Note_on_c, 4, 61, 0
6, 32280, Note_on_c, 4, 57, 0
6, 32280, Note_on_c, 4, 66, 0
6, 32280, Note_on_c, 4, 49, 0
6, 32280, Note_on_c, 4, 54, 0
6, 32280, Note_on_c, 4, 42, 100
6, 32280, Note_on_c, 4, 49, 100
6, 32280, Note_on_c, 4, 54, 100
6, 32280, Note_on_c, 4, 57, 100
6, 32280, Note_on_c, 4, 61, 100
6, 32280, Note_on_c, 4, 66, 100
6, 32400, Note_on_c, 4, 66, 0
6, 32400, Note_on_c, 4, 49, 0
6, 32400, Note_on_c, 4, 54, 0
6, 32400, Note_on_c, 4, 42, 0
6, 32400, Note_on_c, 4, 61, 0
6, 32400, Note_on_c, 4, 57, 0
6, 32400, Note_on_c, 4, 42, 100
6, 32400, Note_on_c, 4, 49, 100
6, 32400, Note_on_c, 4, 54, 100
6, 32400, Note_on_c, 4, 57, 100
6, 32400, Note_on_c, 4, 61, 100
6, 32400, Note_on_c, 4, 66, 100
6, 32460, Note_on_c, 4, 66, 0
6, 32460, Note_on_c, 4, 49, 0
6, 32460, Note_on_c, 4, 54, 0
6, 32460, Note_on_c, 4, 42, 0
6, 32460, Note_on_c, 4, 61, 0
6, 32460, Note_on_c, 4, 57, 0
6, 32460, Note_on_c, 4, 57, 100
6, 32460, Note_on_c, 4, 54, 100
6, 32460, Note_on_c, 4, 49, 100
6, 32460, Note_on_c, 4, 42, 100
6, 32460, Note_on_c, 4, 61, 100
6, 32460, Note_on_c, 4, 66, 100
6, 32520, Note_on_c, 4, 66, 0
6, 32520, Note_on_c, 4, 54, 0
6, 32520, Note_on_c, 4, 49, 0
6, 32520, Note_on_c, 4, 57, 0
6, 32520, Note_on_c, 4, 61, 0
6, 32520, Note_on_c, 4, 42, 0
6, 32520, Note_on_c, 4, 42, 100
6, 32520, Note_on_c, 4, 49, 100
6, 32520, Note_on_c, 4, 54, 100
6, 32520, Note_on_c, 4, 57, 100
6, 32520, Note_on_c, 4, 61, 100
6, 32520, Note_on_c, 4, 66, 100
6, 32580, Note_on_c, 4, 66, 0
6, 32580, Note_on_c, 4, 49, 0
6, 32580, Note_on_c, 4, 54, 0
6, 32580, Note_on_c, 4, 42, 0
6, 32580, Note_on_c, 4, 61, 0
6, 32580, Note_on_c, 4, 57, 0
6, 32580, Note_on_c, 4, 58, 100
6, 32580, Note_on_c, 4, 42, 100
6, 32580, Note_on_c, 4, 49, 100
6, 32580, Note_on_c, 4, 54, 100
6, 32580, Note_on_c, 4, 61, 100
6, 32580, Note_on_c, 4, 66, 100
6, 32700, Note_on_c, 4, 66, 0
6, 32700, Note_on_c, 4, 42, 0
6, 32700, Note_on_c, 4, 49, 0
6, 32700, Note_on_c, 4, 58, 0
6, 32700, Note_on_c, 4, 61, 0
6, 32700, Note_on_c, 4, 54, 0
6, 32700, Note_on_c, 4, 49, 100
6, 32700, Note_on_c, 4, 42, 100
6, 32700, Note_on_c, 4, 54, 100
6, 32700, Note_on_c, 4, 58, 100
6, 32700, Note_on_c, 4, 61, 100
6, 32700, Note_on_c, 4, 66, 100
6, 32760, Note_on_c, 4, 66, 0
6, 32760, Note_on_c, 4, 42, 0
6, 32760, Note_on_c, 4, 54, 0
6, 32760, Note_on_c, 4, 49, 0
6, 32760, Note_on_c, 4, 61, 0
6, 32760, Note_on_c, 4, 58, 0
6, 32760, Note_on_c, 4, 49, 100
6, 32760, Note_on_c, 4, 42, 100
6, 32760, Note_on_c, 4, 54, 100
6, 32760, Note_on_c, 4, 58, 100
6, 32760, Note_on_c, 4, 61, 100
6, 32760, Note_on_c, 4, 66, 100
6, 32880, Note_on_c, 4, 66, 0
6, 32880, Note_on_c, 4, 42, 0
6, 32880, Note_on_c, 4, 54, 0
6, 32880, Note_on_c, 4, 49, 0
6, 32880, Note_on_c, 4, 61, 0
6, 32880, Note_on_c, 4, 58, 0
6, 32880, Note_on_c, 4, 49, 100
6, 32880, Note_on_c, 4, 42, 100
6, 32880, Note_on_c, 4, 54, 100
6, 32880, Note_on_c, 4, 58, 100
6, 32880, Note_on_c, 4, 61, 100
6, 32880, Note_on_c, 4, 66, 100
6, 32940, Note_on_c, 4, 66, 0
6, 32940, Note_on_c, 4, 42, 0
6, 32940, Note_on_c, 4, 54, 0
6, 32940, Note_on_c, 4, 49, 0
6, 32940, Note_on_c, 4, 61, 0
6, 32940, Note_on_c, 4, 58, 0
6, 32940, Note_on_c, 4, 49, 100
6, 32940, Note_on_c, 4, 42, 100
6, 32940, Note_on_c, 4, 54, 100
6, 32940, Note_on_c, 4, 58, 100
6, 32940, Note_on_c, 4, 61, 100
6, 32940, Note_on_c, 4, 66, 100
6, 33000, Note_on_c, 4, 66, 0
6, 33000, Note_on_c, 4, 42, 0
6, 33000, Note_on_c, 4, 54, 0
6, 33000, Note_on_c, 4, 49, 0
6, 33000, Note_on_c, 4, 61, 0
6, 33000, Note_on_c, 4, 58, 0
6, 33000, Note_on_c, 4, 49, 100
6, 33000, Note_on_c, 4, 42, 100
6, 33000, Note_on_c, 4, 54, 100
6, 33000, Note_on_c, 4, 58, 100
6, 33000, Note_on_c, 4, 61, 100
6, 33000, Note_on_c, 4, 66, 100
6, 33060, Note_on_c, 4, 66, 0
6, 33060, Note_on_c, 4, 42, 0
6, 33060, Note_on_c, 4, 54, 0
6, 33060, Note_on_c, 4, 49, 0
6, 33060, Note_on_c, 4, 61, 0
6, 33060, Note_on_c, 4, 58, 0
6, 33060, Note_on_c, 4, 42, 100
6, 33060, Note_on_c, 4, 49, 100
6, 33060, Note_on_c, 4, 54, 100
6, 33060, Note_on_c, 4, 58, 100
6, 33060, Note_on_c, 4, 61, 100
6, 33060, Note_on_c, 4, 66, 100
6, 33120, Note_on_c, 4, 66, 0
6, 33120, Note_on_c, 4, 49, 0
6, 33120, Note_on_c, 4, 54, 0
6, 33120, Note_on_c, 4, 42, 0
6, 33120, Note_on_c, 4, 61, 0
6, 33120, Note_on_c, 4, 58, 0
6, 33120, Note_on_c, 4, 45, 100
6, 33120, Note_on_c, 4, 52, 100
6, 33120, Note_on_c, 4, 57, 100
6, 33120, Note_on_c, 4, 61, 100
6, 33120, Note_on_c, 4, 64, 100
6, 33240, Note_on_c, 4, 64, 0
6, 33240, Note_on_c, 4, 57, 0
6, 33240, Note_on_c, 4, 45, 0
6, 33240, Note_on_c, 4, 52, 0
6, 33240, Note_on_c, 4, 61, 0
6, 33240, Note_on_c, 4, 45, 100
6, 33240, Note_on_c, 4, 52, 100
6, 33240, Note_on_c, 4, 57, 100
6, 33240, Note_on_c, 4, 61, 100
6, 33240, Note_on_c, 4, 64, 100
6, 33300, Note_on_c, 4, 64, 0
6, 33300, Note_on_c, 4, 57, 0
6, 33300, Note_on_c, 4, 45, 0
6, 33300, Note_on_c, 4, 52, 0
6, 33300, Note_on_c, 4, 61, 0
6, 33300, Note_on_c, 4, 45, 100
6, 33300, Note_on_c, 4, 52, 100
6, 33300, Note_on_c, 4, 57, 100
6, 33300, Note_on_c, 4, 61, 100
6, 33300, Note_on_c, 4, 64, 100
6, 33360, Note_on_c, 4, 64, 0
6, 33360, Note_on_c, 4, 57, 0
6, 33360, Note_on_c, 4, 45, 0
6, 33360, Note_on_c, 4, 52, 0
6, 33360, Note_on_c, 4, 61, 0
6, 33360, Note_on_c, 4, 52, 100
6, 33360, Note_on_c, 4, 57, 100
6, 33360, Note_on_c, 4, 61, 100
6, 33360, Note_on_c, 4, 45, 100
6, 33360, Note_on_c, 4, 64, 100
6, 33420, Note_on_c, 4, 64, 0
6, 33420, Note_on_c, 4, 61, 0
6, 33420, Note_on_c, 4, 52, 0
6, 33420, Note_on_c, 4, 57, 0
6, 33420, Note_on_c, 4, 45, 0
6, 33420, Note_on_c, 4, 56, 100
6, 33420, Note_on_c, 4, 61, 100
6, 33420, Note_on_c, 4, 49, 100
6, 33420, Note_on_c, 4, 64, 100
6, 33480, Note_on_c, 4, 64, 0
6, 33480, Note_on_c, 4, 56, 0
6, 33480, Note_on_c, 4, 61, 0
6, 33480, Note_on_c, 4, 49, 0
6, 33480, Note_on_c, 4, 61, 100
6, 33480, Note_on_c, 4, 56, 100
6, 33480, Note_on_c, 4, 49, 100
6, 33480, Note_on_c, 4, 64, 100
6, 33540, Note_on_c, 4, 64, 0
6, 33540, Note_on_c, 4, 61, 0
6, 33540, Note_on_c, 4, 56, 0
6, 33540, Note_on_c, 4, 49, 0
6, 33540, Note_on_c, 4, 47, 100
6, 33540, Note_on_c, 4, 54, 100
6, 33540, Note_on_c, 4, 59, 100
6, 33540, Note_on_c, 4, 63, 100
6, 33540, Note_on_c, 4, 66, 100
6, 33660, Note_on_c, 4, 66, 0
6, 33660, Note_on_c, 4, 59, 0
6, 33660, Note_on_c, 4, 47, 0
6, 33660, Note_on_c, 4, 54, 0
6, 33660, Note_on_c, 4, 63, 0
6, 33660, Note_on_c, 4, 47, 100
6, 33660, Note_on_c, 4, 54, 100
6, 33660, Note_on_c, 4, 59, 100
6, 33660, Note_on_c, 4, 63, 100
6, 33660, Note_on_c, 4, 66, 100
6, 33720, Note_on_c, 4, 66, 0
6, 33720, Note_on_c, 4, 59, 0
6, 33720, Note_on_c, 4, 47, 0
6, 33720, Note_on_c, 4, 54, 0
6, 33720, Note_on_c, 4, 63, 0
6, 33720, Note_on_c, 4, 47, 100
6, 33720, Note_on_c, 4, 54, 100
6, 33720, Note_on_c, 4, 59, 100
6, 33720, Note_on_c, 4, 63, 100
6, 33720, Note_on_c, 4, 66, 100
6, 33840, Note_on_c, 4, 66, 0
6, 33840, Note_on_c, 4, 59, 0
6, 33840, Note_on_c, 4, 47, 0
6, 33840, Note_on_c, 4, 54, 0
6, 33840, Note_on_c, 4, 63, 0
6, 33840, Note_on_c, 4, 54, 100
6, 33840, Note_on_c, 4, 59, 100
6, 33840, Note_on_c, 4, 63, 100
6, 33840, Note_on_c, 4, 47, 100
6, 33840, Note_on_c, 4, 66, 100
6, 33900, Note_on_c, 4, 66, 0
6, 33900, Note_on_c, 4, 63, 0
6, 33900, Note_on_c, 4, 54, 0
6, 33900, Note_on_c, 4, 59, 0
6, 33900, Note_on_c, 4, 47, 0
6, 33900, Note_on_c, 4, 54, 100
6, 33900, Note_on_c, 4, 63, 100
6, 33900, Note_on_c, 4, 59, 100
6, 33900, Note_on_c, 4, 47, 100
6, 33900, Note_on_c, 4, 66, 100
6, 33960, Note_on_c, 4, 66, 0
6, 33960, Note_on_c, 4, 59, 0
6, 33960, Note_on_c, 4, 54, 0
6, 33960, Note_on_c, 4, 63, 0
6, 33960, Note_on_c, 4, 47, 0
6, 33960, Note_on_c, 4, 63, 100
6, 33960, Note_on_c, 4, 59, 100
6, 33960, Note_on_c, 4, 54, 100
6, 33960, Note_on_c, 4, 47, 100
6, 33960, Note_on_c, 4, 66, 100
6, 34020, Note_on_c, 4, 66, 0
6, 34020, Note_on_c, 4, 54, 0
6, 34020, Note_on_c, 4, 63, 0
6, 34020, Note_on_c, 4, 59, 0
6, 34020, Note_on_c, 4, 47, 0
6, 34020, Note_on_c, 4, 47, 100
6, 34020, Note_on_c, 4, 54, 100
6, 34020, Note_on_c, 4, 59, 100
6, 34020, Note_on_c, 4, 63, 100
6, 34020, Note_on_c, 4, 66, 100
6, 34080, Note_on_c, 4, 66, 0
6, 34080, Note_on_c, 4, 59, 0
6, 34080, Note_on_c, 4, 47, 0
6, 34080, Note_on_c, 4, 54, 0
6, 34080, Note_on_c, 4, 63, 0
6, 34080, Note_on_c, 4, 48, 100
6, 34080, Note_on_c, 4, 55, 100
6, 34080, Note_on_c, 4, 60, 100
6, 34080, Note_on_c, 4, 64, 100
6, 34080, Note_on_c, 4, 67, 100
6, 34200, Note_on_c, 4, 67, 0
6, 34200, Note_on_c, 4, 60, 0
6, 34200, Note_on_c, 4, 48, 0
6, 34200, Note_on_c, 4, 55, 0
6, 34200, Note_on_c, 4, 64, 0
6, 34200, Note_on_c, 4, 48, 100
6, 34200, Note_on_c, 4, 55, 100
6, 34200, Note_on_c, 4, 60, 100
6, 34200, Note_on_c, 4, 64, 100
6, 34200, Note_on_c, 4, 67, 100
6, 34320, Note_on_c, 4, 67, 0
6, 34320, Note_on_c, 4, 60, 0
6, 34320, Note_on_c, 4, 48, 0
6, 34320, Note_on_c, 4, 55, 0
6, 34320, Note_on_c, 4, 64, 0
6, 34320, Note_on_c, 4, 55, 100
6, 34320, Note_on_c, 4, 60, 100
6, 34320, Note_on_c, 4, 64, 100
6, 34320, Note_on_c, 4, 48, 100
6, 34320, Note_on_c, 4, 67, 100
6, 34380, Note_on_c, 4, 67, 0
6, 34380, Note_on_c, 4, 64, 0
6, 34380, Note_on_c, 4, 55, 0
6, 34380, Note_on_c, 4, 60, 0
6, 34380, Note_on_c, 4, 48, 0
6, 34380, Note_on_c, 4, 55, 100
6, 34380, Note_on_c, 4, 64, 100
6, 34380, Note_on_c, 4, 60, 100
6, 34380, Note_on_c, 4, 48, 100
6, 34380, Note_on_c, 4, 67, 100
6, 34440, Note_on_c, 4, 67, 0
6, 34440, Note_on_c, 4, 60, 0
6, 34440, Note_on_c, 4, 55, 0
6, 34440, Note_on_c, 4, 64, 0
6, 34440, Note_on_c, 4, 48, 0
6, 34440, Note_on_c, 4, 64, 100
6, 34440, Note_on_c, 4, 60, 100
6, 34440, Note_on_c, 4, 55, 100
6, 34440, Note_on_c, 4, 48, 100
6, 34440, Note_on_c, 4, 67, 100
6, 34500, Note_on_c, 4, 67, 0
6, 34500, Note_on_c, 4, 55, 0
6, 34500, Note_on_c, 4, 64, 0
6, 34500, Note_on_c, 4, 60, 0
6, 34500, Note_on_c, 4, 48, 0
6, 34500, Note_on_c, 4, 47, 100
6, 34500, Note_on_c, 4, 54, 100
6, 34500, Note_on_c, 4, 59, 100
6, 34500, Note_on_c, 4, 63, 100
6, 34500, Note_on_c, 4, 66, 100
6, 34620, Note_on_c, 4, 66, 0
6, 34620, Note_on_c, 4, 59, 0
6, 34620, Note_on_c, 4, 47, 0
6, 34620, Note_on_c, 4, 54, 0
6, 34620, Note_on_c, 4, 63, 0
6, 34620, Note_on_c, 4, 47, 100
6, 34620, Note_on_c, 4, 54, 100
6, 34620, Note_on_c, 4, 59, 100
6, 34620, Note_on_c, 4, 63, 100
6, 34620, Note_on_c, 4, 66, 100
6, 34680, Note_on_c, 4, 66, 0
6, 34680, Note_on_c, 4, 59, 0
6, 34680, Note_on_c, 4, 47, 0
6, 34680, Note_on_c, 4, 54, 0
6, 34680, Note_on_c, 4, 63, 0
6, 34680, Note_on_c, 4, 47, 100
6, 34680, Note_on_c, 4, 54, 100
6, 34680, Note_on_c, 4, 59, 100
6, 34680, Note_on_c, 4, 63, 100
6, 34680, Note_on_c, 4, 66, 100
6, 34800, Note_on_c, 4, 66, 0
6, 34800, Note_on_c, 4, 59, 0
6, 34800, Note_on_c, 4, 47, 0
6, 34800, Note_on_c, 4, 54, 0
6, 34800, Note_on_c, 4, 63, 0
6, 34800, Note_on_c, 4, 54, 100
6, 34800, Note_on_c, 4, 59, 100
6, 34800, Note_on_c, 4, 63, 100
6, 34800, Note_on_c, 4, 47, 100
6, 34800, Note_on_c, 4, 66, 100
6, 34860, Note_on_c, 4, 66, 0
6, 34860, Note_on_c, 4, 63, 0
6, 34860, Note_on_c, 4, 54, 0
6, 34860, Note_on_c, 4, 59, 0
6, 34860, Note_on_c, 4, 47, 0
6, 34860, Note_on_c, 4, 54, 100
6, 34860, Note_on_c, 4, 63, 100
6, 34860, Note_on_c, 4, 59, 100
6, 34860, Note_on_c, 4, 47, 100
6, 34860, Note_on_c, 4, 66, 100
6, 34920, Note_on_c, 4, 66, 0
6, 34920, Note_on_c, 4, 59, 0
6, 34920, Note_on_c, 4, 54, 0
6, 34920, Note_on_c, 4, 63, 0
6, 34920, Note_on_c, 4, 47, 0
6, 34920, Note_on_c, 4, 63, 100
6, 34920, Note_on_c, 4, 59, 100
6, 34920, Note_on_c, 4, 54, 100
6, 34920, Note_on_c, 4, 47, 100
6, 34920, Note_on_c, 4, 66, 100
6, 34980, Note_on_c, 4, 66, 0
6, 34980, Note_on_c, 4, 54, 0
6, 34980, Note_on_c, 4, 63, 0
6, 34980, Note_on_c, 4, 59, 0
6, 34980, Note_on_c, 4, 47, 0
6, 34980, Note_on_c, 4, 47, 100
6, 34980, Note_on_c, 4, 54, 100
6, 34980, Note_on_c, 4, 59, 100
6, 34980, Note_on_c, 4, 63, 100
6, 34980, Note_on_c, 4, 66, 100
6, 35040, Note_on_c, 4, 66, 0
6, 35040, Note_on_c, 4, 59, 0
6, 35040, Note_on_c, 4, 47, 0
6, 35040, Note_on_c, 4, 54, 0
6, 35040, Note_on_c, 4, 63, 0
6, 35040, Note_on_c, 4, 45, 100
6, 35040, Note_on_c, 4, 52, 100
6, 35040, Note_on_c, 4, 57, 100
6, 35040, Note_on_c, 4, 61, 100
6, 35040, Note_on_c, 4, 64, 100
6, 35160, Note_on_c, 4, 64, 0
6, 35160, Note_on_c, 4, 57, 0
6, 35160, Note_on_c, 4, 45, 0
6, 35160, Note_on_c, 4, 52, 0
6, 35160, Note_on_c, 4, 61, 0
6, 35160, Note_on_c, 4, 52, 100
6, 35160, Note_on_c, 4, 57, 100
6, 35160, Note_on_c, 4, 61, 100
6, 35160, Note_on_c, 4, 64, 100
6, 35160, Note_on_c, 4, 45, 100
6, 35280, Note_on_c, 4, 45, 0
6, 35280, Note_on_c, 4, 61, 0
6, 35280, Note_on_c, 4, 52, 0
6, 35280, Note_on_c, 4, 57, 0
6, 35280, Note_on_c, 4, 64, 0
6, 35280, Note_on_c, 4, 64, 100
6, 35280, Note_on_c, 4, 61, 100
6, 35280, Note_on_c, 4, 57, 100
6, 35280, Note_on_c, 4, 52, 100
6, 35280, Note_on_c, 4, 45, 100
6, 35340, Note_on_c, 4, 45, 0
6, 35340, Note_on_c, 4, 57, 0
6, 35340, Note_on_c, 4, 64, 0
6, 35340, Note_on_c, 4, 61, 0
6, 35340, Note_on_c, 4, 52, 0
6, 35340, Note_on_c, 4, 64, 100
6, 35340, Note_on_c, 4, 61, 100
6, 35340, Note_on_c, 4, 57, 100
6, 35340, Note_on_c, 4, 52, 100
6, 35340, Note_on_c, 4, 45, 100
6, 35460, Note_on_c, 4, 45, 0
6, 35460, Note_on_c, 4, 57, 0
6, 35460, Note_on_c, 4, 64, 0
6, 35460, Note_on_c, 4, 61, 0
6, 35460, Note_on_c, 4, 52, 0
6, 35460, Note_on_c, 4, 66, 100
6, 35460, Note_on_c, 4, 63, 100
6, 35460, Note_on_c, 4, 59, 100
6, 35460, Note_on_c, 4, 54, 100
6, 35460, Note_on_c, 4, 47, 100
6, 35580, Note_on_c, 4, 47, 0
6, 35580, Note_on_c, 4, 59, 0
6, 35580, Note_on_c, 4, 66, 0
6, 35580, Note_on_c, 4, 63, 0
6, 35580, Note_on_c, 4, 54, 0
6, 35580, Note_on_c, 4, 47, 100
6, 35580, Note_on_c, 4, 54, 100
6, 35580, Note_on_c, 4, 59, 100
6, 35580, Note_on_c, 4, 63, 100
6, 35580, Note_on_c, 4, 66, 100
6, 35700, Note_on_c, 4, 66, 0
6, 35700, Note_on_c, 4, 59, 0
6, 35700, Note_on_c, 4, 47, 0
6, 35700, Note_on_c, 4, 54, 0
6, 35700, Note_on_c, 4, 63, 0
6, 35700, Note_on_c, 4, 47, 100
6, 35700, Note_on_c, 4, 54, 100
6, 35700, Note_on_c, 4, 59, 100
6, 35700, Note_on_c, 4, 63, 100
6, 35700, Note_on_c, 4, 66, 100
6, 35820, Note_on_c, 4, 66, 0
6, 35820, Note_on_c, 4, 59, 0
6, 35820, Note_on_c, 4, 47, 0
6, 35820, Note_on_c, 4, 54, 0
6, 35820, Note_on_c, 4, 63, 0
6, 35820, Note_on_c, 4, 47, 100
6, 35820, Note_on_c, 4, 54, 100
6, 35820, Note_on_c, 4, 59, 100
6, 35820, Note_on_c, 4, 63, 100
6, 35820, Note_on_c, 4, 66, 100
6, 35880, Note_on_c, 4, 66, 0
6, 35880, Note_on_c, 4, 59, 0
6, 35880, Note_on_c, 4, 47, 0
6, 35880, Note_on_c, 4, 54, 0
6, 35880, Note_on_c, 4, 63, 0
6, 35880, Note_on_c, 4, 47, 100
6, 35880, Note_on_c, 4, 54, 100
6, 35880, Note_on_c, 4, 59, 100
6, 35880, Note_on_c, 4, 63, 100
6, 35880, Note_on_c, 4, 66, 100
6, 35940, Note_on_c, 4, 66, 0
6, 35940, Note_on_c, 4, 59, 0
6, 35940, Note_on_c, 4, 47, 0
6, 35940, Note_on_c, 4, 54, 0
6, 35940, Note_on_c, 4, 63, 0
6, 35940, Note_on_c, 4, 47, 100
6, 35940, Note_on_c, 4, 54, 100
6, 35940, Note_on_c, 4, 59, 100
6, 35940, Note_on_c, 4, 63, 100
6, 35940, Note_on_c, 4, 66, 100
6, 36000, Note_on_c, 4, 66, 0
6, 36000, Note_on_c, 4, 59, 0
6, 36000, Note_on_c, 4, 47, 0
6, 36000, Note_on_c, 4, 54, 0
6, 36000, Note_on_c, 4, 63, 0
6, 36000, Note_on_c, 4, 64, 100
6, 36000, Note_on_c, 4, 61, 100
6, 36000, Note_on_c, 4, 57, 100
6, 36000, Note_on_c, 4, 52, 100
6, 36000, Note_on_c, 4, 45, 100
6, 36120, Note_on_c, 4, 45, 0
6, 36120, Note_on_c, 4, 57, 0
6, 36120, Note_on_c, 4, 64, 0
6, 36120, Note_on_c, 4, 61, 0
6, 36120, Note_on_c, 4, 52, 0
6, 36120, Note_on_c, 4, 52, 100
6, 36120, Note_on_c, 4, 57, 100
6, 36120, Note_on_c, 4, 61, 100
6, 36120, Note_on_c, 4, 64, 100
6, 36120, Note_on_c, 4, 45, 100
6, 36240, Note_on_c, 4, 45, 0
6, 36240, Note_on_c, 4, 61, 0
6, 36240, Note_on_c, 4, 52, 0
6, 36240, Note_on_c, 4, 57, 0
6, 36240, Note_on_c, 4, 64, 0
6, 36240, Note_on_c, 4, 64, 100
6, 36240, Note_on_c, 4, 61, 100
6, 36240, Note_on_c, 4, 57, 100
6, 36240, Note_on_c, 4, 52, 100
6, 36240, Note_on_c, 4, 45, 100
6, 36300, Note_on_c, 4, 45, 0
6, 36300, Note_on_c, 4, 57, 0
6, 36300, Note_on_c, 4, 64, 0
6, 36300, Note_on_c, 4, 61, 0
6, 36300, Note_on_c, 4, 52, 0
6, 36300, Note_on_c, 4, 64, 100
6, 36300, Note_on_c, 4, 61, 100
6, 36300, Note_on_c, 4, 57, 100
6, 36300, Note_on_c, 4, 52, 100
6, 36300, Note_on_c, 4, 45, 100
6, 36420, Note_on_c, 4, 45, 0
6, 36420, Note_on_c, 4, 57, 0
6, 36420, Note_on_c, 4, 64, 0
6, 36420, Note_on_c, 4, 61, 0
6, 36420, Note_on_c, 4, 52, 0
6, 36420, Note_on_c, 4, 66, 100
6, 36420, Note_on_c, 4, 63, 100
6, 36420, Note_on_c, 4, 59, 100
6, 36420, Note_on_c, 4, 54, 100
6, 36420, Note_on_c, 4, 47, 100
6, 36540, Note_on_c, 4, 47, 0
6, 36540, Note_on_c, 4, 59, 0
6, 36540, Note_on_c, 4, 66, 0
6, 36540, Note_on_c, 4, 63, 0
6, 36540, Note_on_c, 4, 54, 0
6, 36540, Note_on_c, 4, 47, 100
6, 36540, Note_on_c, 4, 54, 100
6, 36540, Note_on_c, 4, 59, 100
6, 36540, Note_on_c, 4, 63, 100
6, 36540, Note_on_c, 4, 66, 100
6, 36660, Note_on_c, 4, 66, 0
6, 36660, Note_on_c, 4, 59, 0
6, 36660, Note_on_c, 4, 47, 0
6, 36660, Note_on_c, 4, 54, 0
6, 36660, Note_on_c, 4, 63, 0
6, 36660, Note_on_c, 4, 47, 100
6, 36660, Note_on_c, 4, 54, 100
6, 36660, Note_on_c, 4, 59, 100
6, 36660, Note_on_c, 4, 63, 100
6, 36660, Note_on_c, 4, 66, 100
6, 36780, Note_on_c, 4, 66, 0
6, 36780, Note_on_c, 4, 59, 0
6, 36780, Note_on_c, 4, 47, 0
6, 36780, Note_on_c, 4, 54, 0
6, 36780, Note_on_c, 4, 63, 0
6, 36780, Note_on_c, 4, 47, 100
6, 36780, Note_on_c, 4, 54, 100
6, 36780, Note_on_c, 4, 59, 100
6, 36780, Note_on_c, 4, 63, 100
6, 36780, Note_on_c, 4, 66, 100
6, 36840, Note_on_c, 4, 66, 0
6, 36840, Note_on_c, 4, 59, 0
6, 36840, Note_on_c, 4, 47, 0
6, 36840, Note_on_c, 4, 54, 0
6, 36840, Note_on_c, 4, 63, 0
6, 36840, Note_on_c, 4, 47, 100
6, 36840, Note_on_c, 4, 54, 100
6, 36840, Note_on_c, 4, 59, 100
6, 36840, Note_on_c, 4, 63, 100
6, 36840, Note_on_c, 4, 66, 100
6, 36900, Note_on_c, 4, 66, 0
6, 36900, Note_on_c, 4, 59, 0
6, 36900, Note_on_c, 4, 47, 0
6, 36900, Note_on_c, 4, 54, 0
6, 36900, Note_on_c, 4, 63, 0
6, 36900, Note_on_c, 4, 47, 100
6, 36900, Note_on_c, 4, 54, 100
6, 36900, Note_on_c, 4, 59, 100
6, 36900, Note_on_c, 4, 63, 100
6, 36900, Note_on_c, 4, 66, 100
6, 36960, Note_on_c, 4, 66, 0
6, 36960, Note_on_c, 4, 59, 0
6, 36960, Note_on_c, 4, 47, 0
6, 36960, Note_on_c, 4, 54, 0
6, 36960, Note_on_c, 4, 63, 0
6, 36960, Note_on_c, 4, 64, 100
6, 36960, Note_on_c, 4, 59, 100
6, 36960, Note_on_c, 4, 56, 100
6, 36960, Note_on_c, 4, 52, 100
6, 36960, Note_on_c, 4, 47, 100
6, 36960, Note_on_c, 4, 40, 100
6, 37080, Note_on_c, 4, 40, 0
6, 37080, Note_on_c, 4, 59, 0
6, 37080, Note_on_c, 4, 56, 0
6, 37080, Note_on_c, 4, 64, 0
6, 37080, Note_on_c, 4, 47, 0
6, 37080, Note_on_c, 4, 52, 0
6, 37080, Note_on_c, 4, 47, 100
6, 37080, Note_on_c, 4, 52, 100
6, 37080, Note_on_c, 4, 56, 100
6, 37080, Note_on_c, 4, 59, 100
6, 37080, Note_on_c, 4, 64, 100
6, 37080, Note_on_c, 4, 40, 100
6, 37200, Note_on_c, 4, 40, 0
6, 37200, Note_on_c, 4, 52, 0
6, 37200, Note_on_c, 4, 56, 0
6, 37200, Note_on_c, 4, 47, 0
6, 37200, Note_on_c, 4, 64, 0
6, 37200, Note_on_c, 4, 59, 0
6, 37200, Note_on_c, 4, 64, 100
6, 37200, Note_on_c, 4, 59, 100
6, 37200, Note_on_c, 4, 56, 100
6, 37200, Note_on_c, 4, 52, 100
6, 37200, Note_on_c, 4, 47, 100
6, 37200, Note_on_c, 4, 40, 100
6, 37260, Note_on_c, 4, 40, 0
6, 37260, Note_on_c, 4, 59, 0
6, 37260, Note_on_c, 4, 56, 0
6, 37260, Note_on_c, 4, 64, 0
6, 37260, Note_on_c, 4, 47, 0
6, 37260, Note_on_c, 4, 52, 0
6, 37260, Note_on_c, 4, 66, 100
6, 37260, Note_on_c, 4, 63, 100
6, 37260, Note_on_c, 4, 59, 100
6, 37260, Note_on_c, 4, 54, 100
6, 37260, Note_on_c, 4, 47, 100
6, 37380, Note_on_c, 4, 47, 0
6, 37380, Note_on_c, 4, 59, 0
6, 37380, Note_on_c, 4, 66, 0
6, 37380, Note_on_c, 4, 63, 0
6, 37380, Note_on_c, 4, 54, 0
6, 37380, Note_on_c, 4, 49, 100
6, 37380, Note_on_c, 4, 56, 100
6, 37380, Note_on_c, 4, 61, 100
6, 37380, Note_on_c, 4, 64, 100
6, 37380, Note_on_c, 4, 68, 100
6, 37500, Note_on_c, 4, 68, 0
6, 37500, Note_on_c, 4, 61, 0
6, 37500, Note_on_c, 4, 49, 0
6, 37500, Note_on_c, 4, 56, 0
6, 37500, Note_on_c, 4, 64, 0
6, 37500, Note_on_c, 4, 49, 100
6, 37500, Note_on_c, 4, 56, 100
6, 37500, Note_on_c, 4, 61, 100
6, 37500, Note_on_c, 4, 64, 100
6, 37500, Note_on_c, 4, 68, 100
6, 37560, Note_on_c, 4, 68, 0
6, 37560, Note_on_c, 4, 61, 0
6, 37560, Note_on_c, 4, 49, 0
6, 37560, Note_on_c, 4, 56, 0
6, 37560, Note_on_c, 4, 64, 0
6, 37560, Note_on_c, 4, 49, 100
6, 37560, Note_on_c, 4, 56, 100
6, 37560, Note_on_c, 4, 61, 100
6, 37560, Note_on_c, 4, 64, 100
6, 37560, Note_on_c, 4, 68, 100
6, 37740, Note_on_c, 4, 68, 0
6, 37740, Note_on_c, 4, 61, 0
6, 37740, Note_on_c, 4, 49, 0
6, 37740, Note_on_c, 4, 56, 0
6, 37740, Note_on_c, 4, 64, 0
6, 37740, Note_on_c, 4, 47, 100
6, 37740, Note_on_c, 4, 54, 100
6, 37740, Note_on_c, 4, 59, 100
6, 37740, Note_on_c, 4, 63, 100
6, 37740, Note_on_c, 4, 66, 100
6, 37800, Note_on_c, 4, 66, 0
6, 37800, Note_on_c, 4, 59, 0
6, 37800, Note_on_c, 4, 47, 0
6, 37800, Note_on_c, 4, 54, 0
6, 37800, Note_on_c, 4, 63, 0
6, 37800, Note_on_c, 4, 47, 100
6, 37800, Note_on_c, 4, 54, 100
6, 37800, Note_on_c, 4, 59, 100
6, 37800, Note_on_c, 4, 63, 100
6, 37800, Note_on_c, 4, 66, 100
6, 37860, Note_on_c, 4, 66, 0
6, 37860, Note_on_c, 4, 59, 0
6, 37860, Note_on_c, 4, 47, 0
6, 37860, Note_on_c, 4, 54, 0
6, 37860, Note_on_c, 4, 63, 0
6, 37860, Note_on_c, 4, 45, 100
6, 37860, Note_on_c, 4, 52, 100
6, 37860, Note_on_c, 4, 57, 100
6, 37860, Note_on_c, 4, 61, 100
6, 37860, Note_on_c, 4, 64, 100
6, 37920, Note_on_c, 4, 64, 0
6, 37920, Note_on_c, 4, 57, 0
6, 37920, Note_on_c, 4, 45, 0
6, 37920, Note_on_c, 4, 52, 0
6, 37920, Note_on_c, 4, 61, 0
6, 37920, Note_on_c, 4, 45, 100
6, 37920, Note_on_c, 4, 52, 100
6, 37920, Note_on_c, 4, 57, 100
6, 37920, Note_on_c, 4, 61, 100
6, 37920, Note_on_c, 4, 64, 100
6, 38040, Note_on_c, 4, 64, 0
6, 38040, Note_on_c, 4, 57, 0
6, 38040, Note_on_c, 4, 45, 0
6, 38040, Note_on_c, 4, 52, 0
6, 38040, Note_on_c, 4, 61, 0
6, 38040, Note_on_c, 4, 64, 100
6, 38040, Note_on_c, 4, 61, 100
6, 38040, Note_on_c, 4, 57, 100
6, 38040, Note_on_c, 4, 52, 100
6, 38040, Note_on_c, 4, 45, 100
6, 38220, Note_on_c, 4, 45, 0
6, 38220, Note_on_c, 4, 57, 0
6, 38220, Note_on_c, 4, 64, 0
6, 38220, Note_on_c, 4, 61, 0
6, 38220, Note_on_c, 4, 52, 0
6, 38220, Note_on_c, 4, 45, 100
6, 38220, Note_on_c, 4, 52, 100
6, 38220, Note_on_c, 4, 57, 100
6, 38220, Note_on_c, 4, 61, 100
6, 38220, Note_on_c, 4, 64, 100
6, 38340, Note_on_c, 4, 64, 0
6, 38340, Note_on_c, 4, 57, 0
6, 38340, Note_on_c, 4, 45, 0
6, 38340, Note_on_c, 4, 52, 0
6, 38340, Note_on_c, 4, 61, 0
6, 38340, Note_on_c, 4, 66, 100
6, 38340, Note_on_c, 4, 42, 100
6, 38340, Note_on_c, 4, 49, 100
6, 38340, Note_on_c, 4, 54, 100
6, 38340, Note_on_c, 4, 57, 100
6, 38340, Note_on_c, 4, 61, 100
6, 38580, Note_on_c, 4, 61, 0
6, 38580, Note_on_c, 4, 42, 0
6, 38580, Note_on_c, 4, 49, 0
6, 38580, Note_on_c, 4, 66, 0
6, 38580, Note_on_c, 4, 57, 0
6, 38580, Note_on_c, 4, 54, 0
6, 38580, Note_on_c, 4, 42, 100
6, 38580, Note_on_c, 4, 49, 100
6, 38580, Note_on_c, 4, 54, 100
6, 38580, Note_on_c, 4, 57, 100
6, 38580, Note_on_c, 4, 61, 100
6, 38580, Note_on_c, 4, 66, 100
6, 38700, Note_on_c, 4, 66, 0
6, 38700, Note_on_c, 4, 49, 0
6, 38700, Note_on_c, 4, 54, 0
6, 38700, Note_on_c, 4, 42, 0
6, 38700, Note_on_c, 4, 61, 0
6, 38700, Note_on_c, 4, 57, 0
6, 38700, Note_on_c, 4, 42, 100
6, 38700, Note_on_c, 4, 49, 100
6, 38700, Note_on_c, 4, 54, 100
6, 38700, Note_on_c, 4, 57, 100
6, 38700, Note_on_c, 4, 61, 100
6, 38700, Note_on_c, 4, 66, 100
6, 38760, Note_on_c, 4, 66, 0
6, 38760, Note_on_c, 4, 49, 0
6, 38760, Note_on_c, 4, 54, 0
6, 38760, Note_on_c, 4, 42, 0
6, 38760, Note_on_c, 4, 61, 0
6, 38760, Note_on_c, 4, 57, 0
6, 38760, Note_on_c, 4, 42, 100
6, 38760, Note_on_c, 4, 57, 100
6, 38760, Note_on_c, 4, 54, 100
6, 38760, Note_on_c, 4, 49, 100
6, 38760, Note_on_c, 4, 61, 100
6, 38760, Note_on_c, 4, 66, 100
6, 38820, Note_on_c, 4, 66, 0
6, 38820, Note_on_c, 4, 57, 0
6, 38820, Note_on_c, 4, 54, 0
6, 38820, Note_on_c, 4, 42, 0
6, 38820, Note_on_c, 4, 61, 0
6, 38820, Note_on_c, 4, 49, 0
6, 38820, Note_on_c, 4, 42, 100
6, 38820, Note_on_c, 4, 49, 100
6, 38820, Note_on_c, 4, 54, 100
6, 38820, Note_on_c, 4, 57, 100
6, 38820, Note_on_c, 4, 61, 100
6, 38820, Note_on_c, 4, 66, 100
6, 38880, Note_on_c, 4, 66, 0
6, 38880, Note_on_c, 4, 49, 0
6, 38880, Note_on_c, 4, 54, 0
6, 38880, Note_on_c, 4, 42, 0
6, 38880, Note_on_c, 4, 61, 0
6, 38880, Note_on_c, 4, 57, 0
6, 38880, Note_on_c, 4, 68, 100
6, 38880, Note_on_c, 4, 64, 100
6, 38880, Note_on_c, 4, 61, 100
6, 38880, Note_on_c, 4, 56, 100
6, 38880, Note_on_c, 4, 49, 100
6, 39000, Note_on_c, 4, 49, 0
6, 39000, Note_on_c, 4, 61, 0
6, 39000, Note_on_c, 4, 68, 0
6, 39000, Note_on_c, 4, 64, 0
6, 39000, Note_on_c, 4, 56, 0
6, 39000, Note_on_c, 4, 49, 100
6, 39000, Note_on_c, 4, 56, 100
6, 39000, Note_on_c, 4, 61, 100
6, 39000, Note_on_c, 4, 64, 100
6, 39000, Note_on_c, 4, 68, 100
6, 39120, Note_on_c, 4, 68, 0
6, 39120, Note_on_c, 4, 61, 0
6, 39120, Note_on_c, 4, 49, 0
6, 39120, Note_on_c, 4, 56, 0
6, 39120, Note_on_c, 4, 64, 0
6, 39120, Note_on_c, 4, 49, 100
6, 39120, Note_on_c, 4, 56, 100
6, 39120, Note_on_c, 4, 61, 100
6, 39120, Note_on_c, 4, 64, 100
6, 39120, Note_on_c, 4, 68, 100
6, 39180, Note_on_c, 4, 68, 0
6, 39180, Note_on_c, 4, 61, 0
6, 39180, Note_on_c, 4, 49, 0
6, 39180, Note_on_c, 4, 56, 0
6, 39180, Note_on_c, 4, 64, 0
6, 39180, Note_on_c, 4, 68, 100
6, 39180, Note_on_c, 4, 64, 100
6, 39180, Note_on_c, 4, 61, 100
6, 39180, Note_on_c, 4, 56, 100
6, 39180, Note_on_c, 4, 49, 100
6, 39240, Note_on_c, 4, 49, 0
6, 39240, Note_on_c, 4, 61, 0
6, 39240, Note_on_c, 4, 68, 0
6, 39240, Note_on_c, 4, 64, 0
6, 39240, Note_on_c, 4, 56, 0
6, 39240, Note_on_c, 4, 64, 100
6, 39240, Note_on_c, 4, 61, 100
6, 39240, Note_on_c, 4, 57, 100
6, 39240, Note_on_c, 4, 52, 100
6, 39240, Note_on_c, 4, 45, 100
6, 39300, Note_on_c, 4, 45, 0
6, 39300, Note_on_c, 4, 57, 0
6, 39300, Note_on_c, 4, 64, 0
6, 39300, Note_on_c, 4, 61, 0
6, 39300, Note_on_c, 4, 52, 0
6, 39300, Note_on_c, 4, 66, 100
6, 39300, Note_on_c, 4, 63, 100
6, 39300, Note_on_c, 4, 59, 100
6, 39300, Note_on_c, 4, 54, 100
6, 39300, Note_on_c, 4, 47, 100
6, 39420, Note_on_c, 4, 47, 0
6, 39420, Note_on_c, 4, 59, 0
6, 39420, Note_on_c, 4, 66, 0
6, 39420, Note_on_c, 4, 63, 0
6, 39420, Note_on_c, 4, 54, 0
6, 39420, Note_on_c, 4, 47, 100
6, 39420, Note_on_c, 4, 54, 100
6, 39420, Note_on_c, 4, 59, 100
6, 39420, Note_on_c, 4, 63, 100
6, 39420, Note_on_c, 4, 66, 100
6, 39480, Note_on_c, 4, 66, 0
6, 39480, Note_on_c, 4, 59, 0
6, 39480, Note_on_c, 4, 47, 0
6, 39480, Note_on_c, 4, 54, 0
6, 39480, Note_on_c, 4, 63, 0
6, 39480, Note_on_c, 4, 47, 100
6, 39480, Note_on_c, 4, 54, 100
6, 39480, Note_on_c, 4, 59, 100
6, 39480, Note_on_c, 4, 63, 100
6, 39480, Note_on_c, 4, 66, 100
6, 39600, Note_on_c, 4, 66, 0
6, 39600, Note_on_c, 4, 59, 0
6, 39600, Note_on_c, 4, 47, 0
6, 39600, Note_on_c, 4, 54, 0
6, 39600, Note_on_c, 4, 63, 0
6, 39600, Note_on_c, 4, 63, 100
6, 39600, Note_on_c, 4, 59, 100
6, 39600, Note_on_c, 4, 54, 100
6, 39600, Note_on_c, 4, 47, 100
6, 39600, Note_on_c, 4, 66, 100
6, 39660, Note_on_c, 4, 66, 0
6, 39660, Note_on_c, 4, 54, 0
6, 39660, Note_on_c, 4, 63, 0
6, 39660, Note_on_c, 4, 59, 0
6, 39660, Note_on_c, 4, 47, 0
6, 39660, Note_on_c, 4, 47, 100
6, 39660, Note_on_c, 4, 54, 100
6, 39660, Note_on_c, 4, 59, 100
6, 39660, Note_on_c, 4, 63, 100
6, 39660, Note_on_c, 4, 66, 100
6, 39720, Note_on_c, 4, 66, 0
6, 39720, Note_on_c, 4, 59, 0
6, 39720, Note_on_c, 4, 47, 0
6, 39720, Note_on_c, 4, 54, 0
6, 39720, Note_on_c, 4, 63, 0
6, 39720, Note_on_c, 4, 47, 100
6, 39720, Note_on_c, 4, 54, 100
6, 39720, Note_on_c, 4, 59, 100
6, 39720, Note_on_c, 4, 63, 100
6, 39720, Note_on_c, 4, 66, 100
6, 39780, Note_on_c, 4, 66, 0
6, 39780, Note_on_c, 4, 59, 0
6, 39780, Note_on_c, 4, 47, 0
6, 39780, Note_on_c, 4, 54, 0
6, 39780, Note_on_c, 4, 63, 0
6, 39780, Note_on_c, 4, 47, 100
6, 39780, Note_on_c, 4, 54, 100
6, 39780, Note_on_c, 4, 59, 100
6, 39780, Note_on_c, 4, 63, 100
6, 39780, Note_on_c, 4, 66, 100
6, 39810, Note_on_c, 4, 66, 0
6, 39810, Note_on_c, 4, 59, 0
6, 39810, Note_on_c, 4, 47, 0
6, 39810, Note_on_c, 4, 54, 0
6, 39810, Note_on_c, 4, 63, 0
6, 39810, Note_on_c, 4, 47, 100
6, 39810, Note_on_c, 4, 54, 100
6, 39810, Note_on_c, 4, 63, 100
6, 39810, Note_on_c, 4, 59, 100
6, 39810, Note_on_c, 4, 66, 100
6, 39840, Note_on_c, 4, 66, 0
6, 39840, Note_on_c, 4, 63, 0
6, 39840, Note_on_c, 4, 47, 0
6, 39840, Note_on_c, 4, 54, 0
6, 39840, Note_on_c, 4, 59, 0
6, 39840, Note_on_c, 4, 68, 100
6, 39840, Note_on_c, 4, 64, 100
6, 39840, Note_on_c, 4, 61, 100
6, 39840, Note_on_c, 4, 56, 100
6, 39840, Note_on_c, 4, 49, 100
6, 39960, Note_on_c, 4, 49, 0
6, 39960, Note_on_c, 4, 61, 0
6, 39960, Note_on_c, 4, 68, 0
6, 39960, Note_on_c, 4, 64, 0
6, 39960, Note_on_c, 4, 56, 0
6, 39960, Note_on_c, 4, 49, 100
6, 39960, Note_on_c, 4, 56, 100
6, 39960, Note_on_c, 4, 61, 100
6, 39960, Note_on_c, 4, 64, 100
6, 39960, Note_on_c, 4, 68, 100
6, 40020, Note_on_c, 4, 68, 0
6, 40020, Note_on_c, 4, 61, 0
6, 40020, Note_on_c, 4, 49, 0
6, 40020, Note_on_c, 4, 56, 0
6, 40020, Note_on_c, 4, 64, 0
6, 40020, Note_on_c, 4, 49, 100
6, 40020, Note_on_c, 4, 56, 100
6, 40020, Note_on_c, 4, 61, 100
6, 40020, Note_on_c, 4, 64, 100
6, 40020, Note_on_c, 4, 68, 100
6, 40080, Note_on_c, 4, 68, 0
6, 40080, Note_on_c, 4, 61, 0
6, 40080, Note_on_c, 4, 49, 0
6, 40080, Note_on_c, 4, 56, 0
6, 40080, Note_on_c, 4, 64, 0
6, 40080, Note_on_c, 4, 49, 100
6, 40080, Note_on_c, 4, 56, 100
6, 40080, Note_on_c, 4, 61, 100
6, 40080, Note_on_c, 4, 64, 100
6, 40080, Note_on_c, 4, 68, 100
6, 40140, Note_on_c, 4, 68, 0
6, 40140, Note_on_c, 4, 61, 0
6, 40140, Note_on_c, 4, 49, 0
6, 40140, Note_on_c, 4, 56, 0
6, 40140, Note_on_c, 4, 64, 0
6, 40140, Note_on_c, 4, 64, 100
6, 40140, Note_on_c, 4, 61, 100
6, 40140, Note_on_c, 4, 57, 100
6, 40140, Note_on_c, 4, 52, 100
6, 40140, Note_on_c, 4, 45, 100
6, 40200, Note_on_c, 4, 45, 0
6, 40200, Note_on_c, 4, 57, 0
6, 40200, Note_on_c, 4, 64, 0
6, 40200, Note_on_c, 4, 61, 0
6, 40200, Note_on_c, 4, 52, 0
6, 40200, Note_on_c, 4, 64, 100
6, 40200, Note_on_c, 4, 61, 100
6, 40200, Note_on_c, 4, 57, 100
6, 40200, Note_on_c, 4, 52, 100
6, 40200, Note_on_c, 4, 45, 100
6, 40260, Note_on_c, 4, 45, 0
6, 40260, Note_on_c, 4, 57, 0
6, 40260, Note_on_c, 4, 64, 0
6, 40260, Note_on_c, 4, 61, 0
6, 40260, Note_on_c, 4, 52, 0
6, 40260, Note_on_c, 4, 66, 100
6, 40260, Note_on_c, 4, 63, 100
6, 40260, Note_on_c, 4, 59, 100
6, 40260, Note_on_c, 4, 54, 100
6, 40260, Note_on_c, 4, 47, 100
6, 40380, Note_on_c, 4, 47, 0
6, 40380, Note_on_c, 4, 59, 0
6, 40380, Note_on_c, 4, 66, 0
6, 40380, Note_on_c, 4, 63, 0
6, 40380, Note_on_c, 4, 54, 0
6, 40380, Note_on_c, 4, 47, 100
6, 40380, Note_on_c, 4, 54, 100
6, 40380, Note_on_c, 4, 59, 100
6, 40380, Note_on_c, 4, 63, 100
6, 40380, Note_on_c, 4, 66, 100
6, 40440, Note_on_c, 4, 66, 0
6, 40440, Note_on_c, 4, 59, 0
6, 40440, Note_on_c, 4, 47, 0
6, 40440, Note_on_c, 4, 54, 0
6, 40440, Note_on_c, 4, 63, 0
6, 40440, Note_on_c, 4, 54, 100
6, 40440, Note_on_c, 4, 47, 100
6, 40440, Note_on_c, 4, 63, 100
6, 40440, Note_on_c, 4, 59, 100
6, 40440, Note_on_c, 4, 66, 100
6, 40500, Note_on_c, 4, 66, 0
6, 40500, Note_on_c, 4, 63, 0
6, 40500, Note_on_c, 4, 54, 0
6, 40500, Note_on_c, 4, 47, 0
6, 40500, Note_on_c, 4, 59, 0
6, 40500, Note_on_c, 4, 57, 100
6, 40500, Note_on_c, 4, 50, 100
6, 40500, Note_on_c, 4, 62, 100
6, 40500, Note_on_c, 4, 66, 100
6, 40620, Note_on_c, 4, 66, 0
6, 40620, Note_on_c, 4, 57, 0
6, 40620, Note_on_c, 4, 50, 0
6, 40620, Note_on_c, 4, 62, 0
6, 40620, Note_on_c, 4, 57, 100
6, 40620, Note_on_c, 4, 50, 100
6, 40620, Note_on_c, 4, 62, 100
6, 40620, Note_on_c, 4, 66, 100
6, 40680, Note_on_c, 4, 66, 0
6, 40680, Note_on_c, 4, 57, 0
6, 40680, Note_on_c, 4, 50, 0
6, 40680, Note_on_c, 4, 62, 0
6, 40680, Note_on_c, 4, 57, 100
6, 40680, Note_on_c, 4, 50, 100
6, 40680, Note_on_c, 4, 62, 100
6, 40680, Note_on_c, 4, 66, 100
6, 40740, Note_on_c, 4, 66, 0
6, 40740, Note_on_c, 4, 57, 0
6, 40740, Note_on_c, 4, 50, 0
6, 40740, Note_on_c, 4, 62, 0
6, 40740, Note_on_c, 4, 57, 100
6, 40740, Note_on_c, 4, 50, 100
6, 40740, Note_on_c, 4, 62, 100
6, 40740, Note_on_c, 4, 66, 100
6, 40800, Note_on_c, 4, 66, 0
6, 40800, Note_on_c, 4, 57, 0
6, 40800, Note_on_c, 4, 50, 0
6, 40800, Note_on_c, 4, 62, 0
6, 40800, Note_on_c, 4, 64, 100
6, 40800, Note_on_c, 4, 59, 100
6, 40800, Note_on_c, 4, 56, 100
6, 40800, Note_on_c, 4, 52, 100
6, 40800, Note_on_c, 4, 47, 100
6, 40800, Note_on_c, 4, 40, 100
6, 40920, Note_on_c, 4, 40, 0
6, 40920, Note_on_c, 4, 59, 0
6, 40920, Note_on_c, 4, 56, 0
6, 40920, Note_on_c, 4, 64, 0
6, 40920, Note_on_c, 4, 47, 0
6, 40920, Note_on_c, 4, 52, 0
6, 40920, Note_on_c, 4, 47, 100
6, 40920, Note_on_c, 4, 52, 100
6, 40920, Note_on_c, 4, 56, 100
6, 40920, Note_on_c, 4, 59, 100
6, 40920, Note_on_c, 4, 64, 100
6, 40920, Note_on_c, 4, 40, 100
6, 40980, Note_on_c, 4, 40, 0
6, 40980, Note_on_c, 4, 52, 0
6, 40980, Note_on_c, 4, 56, 0
6, 40980, Note_on_c, 4, 47, 0
6, 40980, Note_on_c, 4, 64, 0
6, 40980, Note_on_c, 4, 59, 0
6, 40980, Note_on_c, 4, 47, 100
6, 40980, Note_on_c, 4, 52, 100
6, 40980, Note_on_c, 4, 56, 100
6, 40980, Note_on_c, 4, 59, 100
6, 40980, Note_on_c, 4, 64, 100
6, 40980, Note_on_c, 4, 40, 100
6, 41040, Note_on_c, 4, 40, 0
6, 41040, Note_on_c, 4, 52, 0
6, 41040, Note_on_c, 4, 56, 0
6, 41040, Note_on_c, 4, 47, 0
6, 41040, Note_on_c, 4, 64, 0
6, 41040, Note_on_c, 4, 59, 0
6, 41040, Note_on_c, 4, 64, 100
6, 41040, Note_on_c, 4, 59, 100
6, 41040, Note_on_c, 4, 56, 100
6, 41040, Note_on_c, 4, 52, 100
6, 41040, Note_on_c, 4, 47, 100
6, 41040, Note_on_c, 4, 40, 100
6, 41100, Note_on_c, 4, 40, 0
6, 41100, Note_on_c, 4, 59, 0
6, 41100, Note_on_c, 4, 56, 0
6, 41100, Note_on_c, 4, 64, 0
6, 41100, Note_on_c, 4, 47, 0
6, 41100, Note_on_c, 4, 52, 0
6, 41100, Note_on_c, 4, 66, 100
6, 41100, Note_on_c, 4, 63, 100
6, 41100, Note_on_c, 4, 59, 100
6, 41100, Note_on_c, 4, 54, 100
6, 41100, Note_on_c, 4, 47, 100
6, 41220, Note_on_c, 4, 47, 0
6, 41220, Note_on_c, 4, 59, 0
6, 41220, Note_on_c, 4, 66, 0
6, 41220, Note_on_c, 4, 63, 0
6, 41220, Note_on_c, 4, 54, 0
6, 41220, Note_on_c, 4, 49, 100
6, 41220, Note_on_c, 4, 56, 100
6, 41220, Note_on_c, 4, 61, 100
6, 41220, Note_on_c, 4, 64, 100
6, 41220, Note_on_c, 4, 68, 100
6, 41340, Note_on_c, 4, 68, 0
6, 41340, Note_on_c, 4, 61, 0
6, 41340, Note_on_c, 4, 49, 0
6, 41340, Note_on_c, 4, 56, 0
6, 41340, Note_on_c, 4, 64, 0
6, 41340, Note_on_c, 4, 68, 100
6, 41340, Note_on_c, 4, 64, 100
6, 41340, Note_on_c, 4, 61, 100
6, 41340, Note_on_c, 4, 56, 100
6, 41340, Note_on_c, 4, 49, 100
6, 41400, Note_on_c, 4, 49, 0
6, 41400, Note_on_c, 4, 61, 0
6, 41400, Note_on_c, 4, 68, 0
6, 41400, Note_on_c, 4, 64, 0
6, 41400, Note_on_c, 4, 56, 0
6, 41400, Note_on_c, 4, 49, 100
6, 41400, Note_on_c, 4, 56, 100
6, 41400, Note_on_c, 4, 61, 100
6, 41400, Note_on_c, 4, 64, 100
6, 41400, Note_on_c, 4, 68, 100
6, 41520, Note_on_c, 4, 68, 0
6, 41520, Note_on_c, 4, 61, 0
6, 41520, Note_on_c, 4, 49, 0
6, 41520, Note_on_c, 4, 56, 0
6, 41520, Note_on_c, 4, 64, 0
6, 41520, Note_on_c, 4, 68, 100
6, 41520, Note_on_c, 4, 64, 100
6, 41520, Note_on_c, 4, 61, 100
6, 41520, Note_on_c, 4, 56, 100
6, 41520, Note_on_c, 4, 49, 100
6, 41580, Note_on_c, 4, 49, 0
6, 41580, Note_on_c, 4, 61, 0
6, 41580, Note_on_c, 4, 68, 0
6, 41580, Note_on_c, 4, 64, 0
6, 41580, Note_on_c, 4, 56, 0
6, 41580, Note_on_c, 4, 47, 100
6, 41580, Note_on_c, 4, 54, 100
6, 41580, Note_on_c, 4, 59, 100
6, 41580, Note_on_c, 4, 63, 100
6, 41580, Note_on_c, 4, 66, 100
6, 41640, Note_on_c, 4, 66, 0
6, 41640, Note_on_c, 4, 59, 0
6, 41640, Note_on_c, 4, 47, 0
6, 41640, Note_on_c, 4, 54, 0
6, 41640, Note_on_c, 4, 63, 0
6, 41640, Note_on_c, 4, 47, 100
6, 41640, Note_on_c, 4, 54, 100
6, 41640, Note_on_c, 4, 59, 100
6, 41640, Note_on_c, 4, 63, 100
6, 41640, Note_on_c, 4, 66, 100
6, 41700, Note_on_c, 4, 66, 0
6, 41700, Note_on_c, 4, 59, 0
6, 41700, Note_on_c, 4, 47, 0
6, 41700, Note_on_c, 4, 54, 0
6, 41700, Note_on_c, 4, 63, 0
6, 41700, Note_on_c, 4, 45, 100
6, 41700, Note_on_c, 4, 52, 100
6, 41700, Note_on_c, 4, 57, 100
6, 41700, Note_on_c, 4, 61, 100
6, 41700, Note_on_c, 4, 64, 100
6, 41760, Note_on_c, 4, 64, 0
6, 41760, Note_on_c, 4, 57, 0
6, 41760, Note_on_c, 4, 45, 0
6, 41760, Note_on_c, 4, 52, 0
6, 41760, Note_on_c, 4, 61, 0
6, 41760, Note_on_c, 4, 45, 100
6, 41760, Note_on_c, 4, 52, 100
6, 41760, Note_on_c, 4, 57, 100
6, 41760, Note_on_c, 4, 61, 100
6, 41760, Note_on_c, 4, 64, 100
6, 41880, Note_on_c, 4, 64, 0
6, 41880, Note_on_c, 4, 57, 0
6, 41880, Note_on_c, 4, 45, 0
6, 41880, Note_on_c, 4, 52, 0
6, 41880, Note_on_c, 4, 61, 0
6, 41880, Note_on_c, 4, 64, 100
6, 41880, Note_on_c, 4, 61, 100
6, 41880, Note_on_c, 4, 57, 100
6, 41880, Note_on_c, 4, 52, 100
6, 41880, Note_on_c, 4, 45, 100
6, 42060, Note_on_c, 4, 45, 0
6, 42060, Note_on_c, 4, 57, 0
6, 42060, Note_on_c, 4, 64, 0
6, 42060, Note_on_c, 4, 61, 0
6, 42060, Note_on_c, 4, 52, 0
6, 42060, Note_on_c, 4, 45, 100
6, 42060, Note_on_c, 4, 52, 100
6, 42060, Note_on_c, 4, 57, 100
6, 42060, Note_on_c, 4, 61, 100
6, 42060, Note_on_c, 4, 64, 100
6, 42180, Note_on_c, 4, 64, 0
6, 42180, Note_on_c, 4, 57, 0
6, 42180, Note_on_c, 4, 45, 0
6, 42180, Note_on_c, 4, 52, 0
6, 42180, Note_on_c, 4, 61, 0
6, 42180, Note_on_c, 4, 66, 100
6, 42180, Note_on_c, 4, 42, 100
6, 42180, Note_on_c, 4, 49, 100
6, 42180, Note_on_c, 4, 54, 100
6, 42180, Note_on_c, 4, 57, 100
6, 42180, Note_on_c, 4, 61, 100
6, 42420, Note_on_c, 4, 61, 0
6, 42420, Note_on_c, 4, 42, 0
6, 42420, Note_on_c, 4, 49, 0
6, 42420, Note_on_c, 4, 66, 0
6, 42420, Note_on_c, 4, 57, 0
6, 42420, Note_on_c, 4, 54, 0
6, 42420, Note_on_c, 4, 42, 100
6, 42420, Note_on_c, 4, 49, 100
6, 42420, Note_on_c, 4, 54, 100
6, 42420, Note_on_c, 4, 57, 100
6, 42420, Note_on_c, 4, 61, 100
6, 42420, Note_on_c, 4, 66, 100
6, 42540, Note_on_c, 4, 66, 0
6, 42540, Note_on_c, 4, 49, 0
6, 42540, Note_on_c, 4, 54, 0
6, 42540, Note_on_c, 4, 42, 0
6, 42540, Note_on_c, 4, 61, 0
6, 42540, Note_on_c, 4, 57, 0
6, 42540, Note_on_c, 4, 42, 100
6, 42540, Note_on_c, 4, 49, 100
6, 42540, Note_on_c, 4, 54, 100
6, 42540, Note_on_c, 4, 57, 100
6, 42540, Note_on_c, 4, 61, 100
6, 42540, Note_on_c, 4, 66, 100
6, 42600, Note_on_c, 4, 66, 0
6, 42600, Note_on_c, 4, 49, 0
6, 42600, Note_on_c, 4, 54, 0
6, 42600, Note_on_c, 4, 42, 0
6, 42600, Note_on_c, 4, 61, 0
6, 42600, Note_on_c, 4, 57, 0
6, 42600, Note_on_c, 4, 42, 100
6, 42600, Note_on_c, 4, 57, 100
6, 42600, Note_on_c, 4, 54, 100
6, 42600, Note_on_c, 4, 49, 100
6, 42600, Note_on_c, 4, 61, 100
6, 42600, Note_on_c, 4, 66, 100
6, 42660, Note_on_c, 4, 66, 0
6, 42660, Note_on_c, 4, 57, 0
6, 42660, Note_on_c, 4, 54, 0
6, 42660, Note_on_c, 4, 42, 0
6, 42660, Note_on_c, 4, 61, 0
6, 42660, Note_on_c, 4, 49, 0
6, 42660, Note_on_c, 4, 42, 100
6, 42660, Note_on_c, 4, 49, 100
6, 42660, Note_on_c, 4, 54, 100
6, 42660, Note_on_c, 4, 57, 100
6, 42660, Note_on_c, 4, 61, 100
6, 42660, Note_on_c, 4, 66, 100
6, 42720, Note_on_c, 4, 66, 0
6, 42720, Note_on_c, 4, 49, 0
6, 42720, Note_on_c, 4, 54, 0
6, 42720, Note_on_c, 4, 42, 0
6, 42720, Note_on_c, 4, 61, 0
6, 42720, Note_on_c, 4, 57, 0
6, 42720, Note_on_c, 4, 68, 100
6, 42720, Note_on_c, 4, 64, 100
6, 42720, Note_on_c, 4, 61, 100
6, 42720, Note_on_c, 4, 56, 100
6, 42720, Note_on_c, 4, 49, 100
6, 42840, Note_on_c, 4, 49, 0
6, 42840, Note_on_c, 4, 61, 0
6, 42840, Note_on_c, 4, 68, 0
6, 42840, Note_on_c, 4, 64, 0
6, 42840, Note_on_c, 4, 56, 0
6, 42840, Note_on_c, 4, 49, 100
6, 42840, Note_on_c, 4, 56, 100
6, 42840, Note_on_c, 4, 61, 100
6, 42840, Note_on_c, 4, 64, 100
6, 42840, Note_on_c, 4, 68, 100
6, 42960, Note_on_c, 4, 68, 0
6, 42960, Note_on_c, 4, 61, 0
6, 42960, Note_on_c, 4, 49, 0
6, 42960, Note_on_c, 4, 56, 0
6, 42960, Note_on_c, 4, 64, 0
6, 42960, Note_on_c, 4, 49, 100
6, 42960, Note_on_c, 4, 56, 100
6, 42960, Note_on_c, 4, 61, 100
6, 42960, Note_on_c, 4, 64, 100
6, 42960, Note_on_c, 4, 68, 100
6, 43020, Note_on_c, 4, 68, 0
6, 43020, Note_on_c, 4, 61, 0
6, 43020, Note_on_c, 4, 49, 0
6, 43020, Note_on_c, 4, 56, 0
6, 43020, Note_on_c, 4, 64, 0
6, 43020, Note_on_c, 4, 68, 100
6, 43020, Note_on_c, 4, 64, 100
6, 43020, Note_on_c, 4, 61, 100
6, 43020, Note_on_c, 4, 56, 100
6, 43020, Note_on_c, 4, 49, 100
6, 43080, Note_on_c, 4, 49, 0
6, 43080, Note_on_c, 4, 61, 0
6, 43080, Note_on_c, 4, 68, 0
6, 43080, Note_on_c, 4, 64, 0
6, 43080, Note_on_c, 4, 56, 0
6, 43080, Note_on_c, 4, 64, 100
6, 43080, Note_on_c, 4, 61, 100
6, 43080, Note_on_c, 4, 57, 100
6, 43080, Note_on_c, 4, 52, 100
6, 43080, Note_on_c, 4, 45, 100
6, 43140, Note_on_c, 4, 45, 0
6, 43140, Note_on_c, 4, 57, 0
6, 43140, Note_on_c, 4, 64, 0
6, 43140, Note_on_c, 4, 61, 0
6, 43140, Note_on_c, 4, 52, 0
6, 43140, Note_on_c, 4, 66, 100
6, 43140, Note_on_c, 4, 63, 100
6, 43140, Note_on_c, 4, 59, 100
6, 43140, Note_on_c, 4, 54, 100
6, 43140, Note_on_c, 4, 47, 100
6, 43260, Note_on_c, 4, 47, 0
6, 43260, Note_on_c, 4, 59, 0
6, 43260, Note_on_c, 4, 66, 0
6, 43260, Note_on_c, 4, 63, 0
6, 43260, Note_on_c, 4, 54, 0
6, 43260, Note_on_c, 4, 47, 100
6, 43260, Note_on_c, 4, 54, 100
6, 43260, Note_on_c, 4, 59, 100
6, 43260, Note_on_c, 4, 63, 100
6, 43260, Note_on_c, 4, 66, 100
6, 43320, Note_on_c, 4, 66, 0
6, 43320, Note_on_c, 4, 59, 0
6, 43320, Note_on_c, 4, 47, 0
6, 43320, Note_on_c, 4, 54, 0
6, 43320, Note_on_c, 4, 63, 0
6, 43320, Note_on_c, 4, 47, 100
6, 43320, Note_on_c, 4, 54, 100
6, 43320, Note_on_c, 4, 59, 100
6, 43320, Note_on_c, 4, 63, 100
6, 43320, Note_on_c, 4, 66, 100
6, 43440, Note_on_c, 4, 66, 0
6, 43440, Note_on_c, 4, 59, 0
6, 43440, Note_on_c, 4, 47, 0
6, 43440, Note_on_c, 4, 54, 0
6, 43440, Note_on_c, 4, 63, 0
6, 43440, Note_on_c, 4, 63, 100
6, 43440, Note_on_c, 4, 59, 100
6, 43440, Note_on_c, 4, 54, 100
6, 43440, Note_on_c, 4, 47, 100
6, 43440, Note_on_c, 4, 66, 100
6, 43500, Note_on_c, 4, 66, 0
6, 43500, Note_on_c, 4, 54, 0
6, 43500, Note_on_c, 4, 63, 0
6, 43500, Note_on_c, 4, 59, 0
6, 43500, Note_on_c, 4, 47, 0
6, 43500, Note_on_c, 4, 47, 100
6, 43500, Note_on_c, 4, 54, 100
6, 43500, Note_on_c, 4, 59, 100
6, 43500, Note_on_c, 4, 63, 100
6, 43500, Note_on_c, 4, 66, 100
6, 43560, Note_on_c, 4, 66, 0
6, 43560, Note_on_c, 4, 59, 0
6, 43560, Note_on_c, 4, 47, 0
6, 43560, Note_on_c, 4, 54, 0
6, 43560, Note_on_c, 4, 63, 0
6, 43560, Note_on_c, 4, 47, 100
6, 43560, Note_on_c, 4, 54, 100
6, 43560, Note_on_c, 4, 59, 100
6, 43560, Note_on_c, 4, 63, 100
6, 43560, Note_on_c, 4, 66, 100
6, 43620, Note_on_c, 4, 66, 0
6, 43620, Note_on_c, 4, 59, 0
6, 43620, Note_on_c, 4, 47, 0
6, 43620, Note_on_c, 4, 54, 0
6, 43620, Note_on_c, 4, 63, 0
6, 43620, Note_on_c, 4, 47, 100
6, 43620, Note_on_c, 4, 54, 100
6, 43620, Note_on_c, 4, 59, 100
6, 43620, Note_on_c, 4, 63, 100
6, 43620, Note_on_c, 4, 66, 100
6, 43650, Note_on_c, 4, 66, 0
6, 43650, Note_on_c, 4, 59, 0
6, 43650, Note_on_c, 4, 47, 0
6, 43650, Note_on_c, 4, 54, 0
6, 43650, Note_on_c, 4, 63, 0
6, 43650, Note_on_c, 4, 47, 100
6, 43650, Note_on_c, 4, 54, 100
6, 43650, Note_on_c, 4, 63, 100
6, 43650, Note_on_c, 4, 59, 100
6, 43650, Note_on_c, 4, 66, 100
6, 43680, Note_on_c, 4, 66, 0
6, 43680, Note_on_c, 4, 63, 0
6, 43680, Note_on_c, 4, 47, 0
6, 43680, Note_on_c, 4, 54, 0
6, 43680, Note_on_c, 4, 59, 0
6, 43680, Note_on_c, 4, 68, 100
6, 43680, Note_on_c, 4, 64, 100
6, 43680, Note_on_c, 4, 61, 100
6, 43680, Note_on_c, 4, 56, 100
6, 43680, Note_on_c, 4, 49, 100
6, 43800, Note_on_c, 4, 49, 0
6, 43800, Note_on_c, 4, 61, 0
6, 43800, Note_on_c, 4, 68, 0
6, 43800, Note_on_c, 4, 64, 0
6, 43800, Note_on_c, 4, 56, 0
6, 43800, Note_on_c, 4, 49, 100
6, 43800, Note_on_c, 4, 56, 100
6, 43800, Note_on_c, 4, 61, 100
6, 43800, Note_on_c, 4, 64, 100
6, 43800, Note_on_c, 4, 68, 100
6, 43860, Note_on_c, 4, 68, 0
6, 43860, Note_on_c, 4, 61, 0
6, 43860, Note_on_c, 4, 49, 0
6, 43860, Note_on_c, 4, 56, 0
6, 43860, Note_on_c, 4, 64, 0
6, 43860, Note_on_c, 4, 49, 100
6, 43860, Note_on_c, 4, 56, 100
6, 43860, Note_on_c, 4, 61, 100
6, 43860, Note_on_c, 4, 64, 100
6, 43860, Note_on_c, 4, 68, 100
6, 43920, Note_on_c, 4, 68, 0
6, 43920, Note_on_c, 4, 61, 0
6, 43920, Note_on_c, 4, 49, 0
6, 43920, Note_on_c, 4, 56, 0
6, 43920, Note_on_c, 4, 64, 0
6, 43920, Note_on_c, 4, 49, 100
6, 43920, Note_on_c, 4, 56, 100
6, 43920, Note_on_c, 4, 61, 100
6, 43920, Note_on_c, 4, 64, 100
6, 43920, Note_on_c, 4, 68, 100
6, 43980, Note_on_c, 4, 68, 0
6, 43980, Note_on_c, 4, 61, 0
6, 43980, Note_on_c, 4, 49, 0
6, 43980, Note_on_c, 4, 56, 0
6, 43980, Note_on_c, 4, 64, 0
6, 43980, Note_on_c, 4, 64, 100
6, 43980, Note_on_c, 4, 61, 100
6, 43980, Note_on_c, 4, 57, 100
6, 43980, Note_on_c, 4, 52, 100
6, 43980, Note_on_c, 4, 45, 100
6, 44040, Note_on_c, 4, 45, 0
6, 44040, Note_on_c, 4, 57, 0
6, 44040, Note_on_c, 4, 64, 0
6, 44040, Note_on_c, 4, 61, 0
6, 44040, Note_on_c, 4, 52, 0
6, 44040, Note_on_c, 4, 64, 100
6, 44040, Note_on_c, 4, 61, 100
6, 44040, Note_on_c, 4, 57, 100
6, 44040, Note_on_c, 4, 52, 100
6, 44040, Note_on_c, 4, 45, 100
6, 44100, Note_on_c, 4, 45, 0
6, 44100, Note_on_c, 4, 57, 0
6, 44100, Note_on_c, 4, 64, 0
6, 44100, Note_on_c, 4, 61, 0
6, 44100, Note_on_c, 4, 52, 0
6, 44100, Note_on_c, 4, 66, 100
6, 44100, Note_on_c, 4, 63, 100
6, 44100, Note_on_c, 4, 59, 100
6, 44100, Note_on_c, 4, 54, 100
6, 44100, Note_on_c, 4, 47, 100
6, 44220, Note_on_c, 4, 47, 0
6, 44220, Note_on_c, 4, 59, 0
6, 44220, Note_on_c, 4, 66, 0
6, 44220, Note_on_c, 4, 63, 0
6, 44220, Note_on_c, 4, 54, 0
6, 44220, Note_on_c, 4, 47, 100
6, 44220, Note_on_c, 4, 54, 100
6, 44220, Note_on_c, 4, 59, 100
6, 44220, Note_on_c, 4, 63, 100
6, 44220, Note_on_c, 4, 66, 100
6, 44280, Note_on_c, 4, 66, 0
6, 44280, Note_on_c, 4, 59, 0
6, 44280, Note_on_c, 4, 47, 0
6, 44280, Note_on_c, 4, 54, 0
6, 44280, Note_on_c, 4, 63, 0
6, 44280, Note_on_c, 4, 54, 100
6, 44280, Note_on_c, 4, 47, 100
6, 44280, Note_on_c, 4, 63, 100
6, 44280, Note_on_c, 4, 59, 100
6, 44280, Note_on_c, 4, 66, 100
6, 44340, Note_on_c, 4, 66, 0
6, 44340, Note_on_c, 4, 63, 0
6, 44340, Note_on_c, 4, 54, 0
6, 44340, Note_on_c, 4, 47, 0
6, 44340, Note_on_c, 4, 59, 0
6, 44340, Note_on_c, 4, 57, 100
6, 44340, Note_on_c, 4, 50, 100
6, 44340, Note_on_c, 4, 62, 100
6, 44340, Note_on_c, 4, 66, 100
6, 44460, Note_on_c, 4, 66, 0
6, 44460, Note_on_c, 4, 57, 0
6, 44460, Note_on_c, 4, 50, 0
6, 44460, Note_on_c, 4, 62, 0
6, 44460, Note_on_c, 4, 57, 100
6, 44460, Note_on_c, 4, 50, 100
6, 44460, Note_on_c, 4, 62, 100
6, 44460, Note_on_c, 4, 66, 100
6, 44520, Note_on_c, 4, 66, 0
6, 44520, Note_on_c, 4, 57, 0
6, 44520, Note_on_c, 4, 50, 0
6, 44520, Note_on_c, 4, 62, 0
6, 44520, Note_on_c, 4, 57, 100
6, 44520, Note_on_c, 4, 50, 100
6, 44520, Note_on_c, 4, 62, 100
6, 44520, Note_on_c, 4, 66, 100
6, 44580, Note_on_c, 4, 66, 0
6, 44580, Note_on_c, 4, 57, 0
6, 44580, Note_on_c, 4, 50, 0
6, 44580, Note_on_c, 4, 62, 0
6, 44580, Note_on_c, 4, 57, 100
6, 44580, Note_on_c, 4, 50, 100
6, 44580, Note_on_c, 4, 62, 100
6, 44580, Note_on_c, 4, 66, 100
6, 44640, Note_on_c, 4, 66, 0
6, 44640, Note_on_c, 4, 57, 0
6, 44640, Note_on_c, 4, 50, 0
6, 44640, Note_on_c, 4, 62, 0
6, 44640, Note_on_c, 4, 61, 100
6, 44640, Note_on_c, 4, 56, 100
6, 44640, Note_on_c, 4, 49, 100
6, 44640, Note_on_c, 4, 64, 100
6, 44640, Note_on_c, 4, 68, 100
6, 44760, Note_on_c, 4, 68, 0
6, 44760, Note_on_c, 4, 49, 0
6, 44760, Note_on_c, 4, 61, 0
6, 44760, Note_on_c, 4, 56, 0
6, 44760, Note_on_c, 4, 64, 0
6, 44760, Note_on_c, 4, 49, 100
6, 44760, Note_on_c, 4, 56, 100
6, 44760, Note_on_c, 4, 61, 100
6, 44760, Note_on_c, 4, 64, 100
6, 44760, Note_on_c, 4, 68, 100
6, 44880, Note_on_c, 4, 68, 0
6, 44880, Note_on_c, 4, 61, 0
6, 44880, Note_on_c, 4, 49, 0
6, 44880, Note_on_c, 4, 56, 0
6, 44880, Note_on_c, 4, 64, 0
6, 44880, Note_on_c, 4, 47, 100
6, 44880, Note_on_c, 4, 54, 100
6, 44880, Note_on_c, 4, 59, 100
6, 44880, Note_on_c, 4, 63, 100
6, 44880, Note_on_c, 4, 66, 100
6, 45060, Note_on_c, 4, 66, 0
6, 45060, Note_on_c, 4, 59, 0
6, 45060, Note_on_c, 4, 47, 0
6, 45060, Note_on_c, 4, 54, 0
6, 45060, Note_on_c, 4, 63, 0
6, 45060, Note_on_c, 4, 48, 100
6, 45060, Note_on_c, 4, 55, 100
6, 45060, Note_on_c, 4, 60, 100
6, 45060, Note_on_c, 4, 64, 100
6, 45060, Note_on_c, 4, 67, 100
6, 45510, Note_on_c, 4, 67, 0
6, 45510, Note_on_c, 4, 60, 0
6, 45510, Note_on_c, 4, 48, 0
6, 45510, Note_on_c, 4, 55, 0
6, 45510, Note_on_c, 4, 64, 0
6, 45570, Note_on_c, 4, 47, 100
6, 45585, Note_on_c, 4, 54, 100
6, 45600, Note_on_c, 4, 59, 100
6, 45615, Note_on_c, 4, 63, 100
6, 45630, Note_on_c, 4, 66, 100
6, 46050, Note_on_c, 4, 47, 0
6, 46065, Note_on_c, 4, 54, 0
6, 46080, Note_on_c, 4, 59, 0
6, 46095, Note_on_c, 4, 63, 0
6, 46110, Note_on_c, 4, 66, 0
6, 46110, End_track
7, 0, Start_track
7, 0, MIDI_port, 0
7, 0, Title_t, "Piano (Damon Albarn)"
7, 0, Program_c, 5, 0
7, 0, Control_c, 5, 7, 60
7, 0, Control_c, 5, 10, 0
7, 9120, Note_on_c, 5, 33, 100
7, 9120, Note_on_c, 5, 45, 100
7, 9120, Note_on_c, 5, 52, 100
7, 9120, Note_on_c, 5, 57, 100
7, 9120, Note_on_c, 5, 61, 100
7, 9600, Note_on_c, 5, 61, 0
7, 9600, Note_on_c, 5, 52, 0
7, 9600, Note_on_c, 5, 33, 0
7, 9600, Note_on_c, 5, 45, 0
7, 9600, Note_on_c, 5, 57, 0
7, 9600, Note_on_c, 5, 35, 100
7, 9600, Note_on_c, 5, 47, 100
7, 9660, Note_on_c, 5, 54, 100
7, 9660, Note_on_c, 5, 59, 100
7, 9660, Note_on_c, 5, 63, 100
7, 9780, Note_on_c, 5, 63, 0
7, 9780, Note_on_c, 5, 54, 0
7, 9780, Note_on_c, 5, 59, 0
7, 9780, Note_on_c, 5, 54, 100
7, 9780, Note_on_c, 5, 59, 100
7, 9780, Note_on_c, 5, 63, 100
7, 9900, Note_on_c, 5, 63, 0
7, 9900, Note_on_c, 5, 54, 0
7, 9900, Note_on_c, 5, 59, 0
7, 9900, Note_on_c, 5, 54, 100
7, 9900, Note_on_c, 5, 59, 100
7, 9900, Note_on_c, 5, 63, 100
7, 10080, Note_on_c, 5, 63, 0
7, 10080, Note_on_c, 5, 54, 0
7, 10080, Note_on_c, 5, 35, 0
7, 10080, Note_on_c, 5, 47, 0
7, 10080, Note_on_c, 5, 59, 0
7, 10080, Note_on_c, 5, 40, 100
7, 10080, Note_on_c, 5, 52, 100
7, 10080, Note_on_c, 5, 56, 100
7, 10080, Note_on_c, 5, 59, 100
7, 10080, Note_on_c, 5, 64, 100
7, 10380, Note_on_c, 5, 64, 0
7, 10380, Note_on_c, 5, 56, 0
7, 10380, Note_on_c, 5, 40, 0
7, 10380, Note_on_c, 5, 52, 0
7, 10380, Note_on_c, 5, 59, 0
7, 10380, Note_on_c, 5, 35, 100
7, 10380, Note_on_c, 5, 47, 100
7, 10380, Note_on_c, 5, 59, 100
7, 10380, Note_on_c, 5, 63, 100
7, 10380, Note_on_c, 5, 66, 100
7, 10500, Note_on_c, 5, 66, 0
7, 10500, Note_on_c, 5, 59, 0
7, 10500, Note_on_c, 5, 35, 0
7, 10500, Note_on_c, 5, 47, 0
7, 10500, Note_on_c, 5, 63, 0
7, 10500, Note_on_c, 5, 37, 100
7, 10500, Note_on_c, 5, 49, 100
7, 10500, Note_on_c, 5, 61, 100
7, 10500, Note_on_c, 5, 64, 100
7, 10500, Note_on_c, 5, 68, 100
7, 10860, Note_on_c, 5, 68, 0
7, 10860, Note_on_c, 5, 61, 0
7, 10860, Note_on_c, 5, 37, 0
7, 10860, Note_on_c, 5, 49, 0
7, 10860, Note_on_c, 5, 64, 0
7, 10860, Note_on_c, 5, 35, 100
7, 10860, Note_on_c, 5, 47, 100
7, 10860, Note_on_c, 5, 59, 100
7, 10860, Note_on_c, 5, 63, 100
7, 10860, Note_on_c, 5, 66, 100
7, 10980, Note_on_c, 5, 66, 0
7, 10980, Note_on_c, 5, 59, 0
7, 10980, Note_on_c, 5, 35, 0
7, 10980, Note_on_c, 5, 47, 0
7, 10980, Note_on_c, 5, 63, 0
7, 10980, Note_on_c, 5, 33, 100
7, 10980, Note_on_c, 5, 45, 100
7, 10980, Note_on_c, 5, 57, 100
7, 10980, Note_on_c, 5, 61, 100
7, 10980, Note_on_c, 5, 64, 100
7, 11400, Note_on_c, 5, 30, 100
7, 11400, Note_on_c, 5, 42, 100
7, 11460, Note_on_c, 5, 64, 0
7, 11460, Note_on_c, 5, 61, 0
7, 11460, Note_on_c, 5, 33, 0
7, 11460, Note_on_c, 5, 57, 0
7, 11460, Note_on_c, 5, 45, 0
7, 11820, Note_on_c, 5, 57, 100
7, 11820, Note_on_c, 5, 61, 100
7, 11820, Note_on_c, 5, 66, 100
7, 11940, Note_on_c, 5, 42, 0
7, 11940, Note_on_c, 5, 30, 0
7, 12000, Note_on_c, 5, 61, 0
7, 12000, Note_on_c, 5, 57, 0
7, 12000, Note_on_c, 5, 66, 0
7, 12000, Note_on_c, 5, 37, 100
7, 12000, Note_on_c, 5, 49, 100
7, 12000, Note_on_c, 5, 61, 100
7, 12000, Note_on_c, 5, 64, 100
7, 12000, Note_on_c, 5, 68, 100
7, 12300, Note_on_c, 5, 68, 0
7, 12300, Note_on_c, 5, 61, 0
7, 12300, Note_on_c, 5, 37, 0
7, 12300, Note_on_c, 5, 49, 0
7, 12300, Note_on_c, 5, 64, 0
7, 12300, Note_on_c, 5, 37, 100
7, 12300, Note_on_c, 5, 49, 100
7, 12300, Note_on_c, 5, 61, 100
7, 12300, Note_on_c, 5, 64, 100
7, 12300, Note_on_c, 5, 68, 100
7, 12420, Note_on_c, 5, 68, 0
7, 12420, Note_on_c, 5, 61, 0
7, 12420, Note_on_c, 5, 37, 0
7, 12420, Note_on_c, 5, 49, 0
7, 12420, Note_on_c, 5, 64, 0
7, 12420, Note_on_c, 5, 35, 100
7, 12420, Note_on_c, 5, 47, 100
7, 12420, Note_on_c, 5, 59, 100
7, 12420, Note_on_c, 5, 63, 100
7, 12420, Note_on_c, 5, 66, 100
7, 12960, Note_on_c, 5, 66, 0
7, 12960, Note_on_c, 5, 59, 0
7, 12960, Note_on_c, 5, 35, 0
7, 12960, Note_on_c, 5, 47, 0
7, 12960, Note_on_c, 5, 63, 0
7, 12960, Note_on_c, 5, 37, 100
7, 12960, Note_on_c, 5, 49, 100
7, 12960, Note_on_c, 5, 61, 100
7, 12960, Note_on_c, 5, 64, 100
7, 12960, Note_on_c, 5, 68, 100
7, 13080, Note_on_c, 5, 68, 0
7, 13080, Note_on_c, 5, 61, 0
7, 13080, Note_on_c, 5, 37, 0
7, 13080, Note_on_c, 5, 49, 0
7, 13080, Note_on_c, 5, 64, 0
7, 13080, Note_on_c, 5, 37, 100
7, 13080, Note_on_c, 5, 49, 100
7, 13080, Note_on_c, 5, 61, 100
7, 13080, Note_on_c, 5, 64, 100
7, 13080, Note_on_c, 5, 68, 100
7, 13260, Note_on_c, 5, 68, 0
7, 13260, Note_on_c, 5, 61, 0
7, 13260, Note_on_c, 5, 37, 0
7, 13260, Note_on_c, 5, 49, 0
7, 13260, Note_on_c, 5, 64, 0
7, 13260, Note_on_c, 5, 33, 100
7, 13260, Note_on_c, 5, 45, 100
7, 13260, Note_on_c, 5, 57, 100
7, 13260, Note_on_c, 5, 61, 100
7, 13260, Note_on_c, 5, 64, 100
7, 13380, Note_on_c, 5, 64, 0
7, 13380, Note_on_c, 5, 57, 0
7, 13380, Note_on_c, 5, 33, 0
7, 13380, Note_on_c, 5, 45, 0
7, 13380, Note_on_c, 5, 61, 0
7, 13380, Note_on_c, 5, 35, 100
7, 13380, Note_on_c, 5, 47, 100
7, 13380, Note_on_c, 5, 59, 100
7, 13380, Note_on_c, 5, 63, 100
7, 13380, Note_on_c, 5, 66, 100
7, 13680, Note_on_c, 5, 66, 0
7, 13680, Note_on_c, 5, 59, 0
7, 13680, Note_on_c, 5, 35, 0
7, 13680, Note_on_c, 5, 47, 0
7, 13680, Note_on_c, 5, 63, 0
7, 13680, Note_on_c, 5, 57, 100
7, 13680, Note_on_c, 5, 66, 100
7, 13680, Note_on_c, 5, 62, 100
7, 13680, Note_on_c, 5, 38, 100
7, 13680, Note_on_c, 5, 50, 100
7, 13920, Note_on_c, 5, 50, 0
7, 13920, Note_on_c, 5, 62, 0
7, 13920, Note_on_c, 5, 57, 0
7, 13920, Note_on_c, 5, 66, 0
7, 13920, Note_on_c, 5, 38, 0
7, 13920, End_track
8, 0, Start_track
8, 0, MIDI_port, 0
8, 0, Title_t, "Bass (Alex James)"
8, 0, Program_c, 10, 33
8, 0, Control_c, 10, 7, 70
8, 0, Control_c, 10, 10, 64
8, 1920, Note_on_c, 10, 40, 100
8, 2040, Note_on_c, 10, 40, 0
8, 2040, Note_on_c, 10, 40, 100
8, 2220, Note_on_c, 10, 40, 0
8, 2220, Note_on_c, 10, 32, 100
8, 2280, Note_on_c, 10, 32, 0
8, 2280, Note_on_c, 10, 33, 100
8, 2340, Note_on_c, 10, 33, 0
8, 2340, Note_on_c, 10, 35, 100
8, 2520, Note_on_c, 10, 35, 0
8, 2520, Note_on_c, 10, 35, 100
8, 2700, Note_on_c, 10, 35, 0
8, 2700, Note_on_c, 10, 42, 100
8, 2760, Note_on_c, 10, 42, 0
8, 2760, Note_on_c, 10, 40, 100
8, 2820, Note_on_c, 10, 40, 0
8, 2820, Note_on_c, 10, 38, 100
8, 3000, Note_on_c, 10, 38, 0
8, 3000, Note_on_c, 10, 38, 100
8, 3180, Note_on_c, 10, 38, 0
8, 3180, Note_on_c, 10, 33, 100
8, 3300, Note_on_c, 10, 33, 0
8, 3300, Note_on_c, 10, 35, 100
8, 3480, Note_on_c, 10, 35, 0
8, 34440, Note_on_c, 10, 35, 100
8, 34740, Note_on_c, 10, 35, 0
8, 34740, Note_on_c, 10, 39, 100
8, 34920, Note_on_c, 10, 39, 0
8, 34920, Note_on_c, 10, 42, 100
8, 35040, Note_on_c, 10, 42, 0
8, 35040, End_track
9, 0, Start_track
9, 0, MIDI_port, 0
9, 0, Title_t, "Volume Guitar 1 (Graham Coxon)"
9, 0, Program_c, 6, 93
9, 0, Control_c, 6, 7, 70
9, 0, Control_c, 6, 10, 97
9, 1680, Note_on_c, 6, 57, 100
9, 1680, Note_on_c, 6, 62, 100
9, 1680, Note_on_c, 6, 64, 100
9, 1800, Note_on_c, 6, 64, 0
9, 1800, Note_on_c, 6, 62, 0
9, 1800, Note_on_c, 6, 57, 0
9, 1800, Note_on_c, 6, 57, 100
9, 1800, Note_on_c, 6, 62, 100
9, 1800, Note_on_c, 6, 64, 100
9, 1920, Note_on_c, 6, 64, 0
9, 1920, Note_on_c, 6, 62, 0
9, 1920, Note_on_c, 6, 57, 0
9, 1920, Note_on_c, 6, 71, 100
9, 1920, Note_on_c, 6, 52, 100
9, 1920, Note_on_c, 6, 59, 100
9, 1920, Note_on_c, 6, 64, 100
9, 1920, Note_on_c, 6, 68, 100
9, 2040, Note_on_c, 6, 68, 0
9, 2040, Note_on_c, 6, 59, 0
9, 2040, Note_on_c, 6, 64, 0
9, 2040, Note_on_c, 6, 71, 0
9, 2040, Note_on_c, 6, 71, 100
9, 2040, Note_on_c, 6, 59, 100
9, 2040, Note_on_c, 6, 64, 100
9, 2040, Note_on_c, 6, 68, 100
9, 2160, Note_on_c, 6, 68, 0
9, 2160, Note_on_c, 6, 59, 0
9, 2160, Note_on_c, 6, 64, 0
9, 2160, Note_on_c, 6, 71, 0
9, 2160, Note_on_c, 6, 71, 100
9, 2160, Note_on_c, 6, 59, 100
9, 2160, Note_on_c, 6, 64, 100
9, 2160, Note_on_c, 6, 68, 100
9, 2220, Note_on_c, 6, 68, 0
9, 2220, Note_on_c, 6, 59, 0
9, 2220, Note_on_c, 6, 64, 0
9, 2220, Note_on_c, 6, 71, 0
9, 2220, Note_on_c, 6, 71, 100
9, 2220, Note_on_c, 6, 59, 100
9, 2220, Note_on_c, 6, 64, 100
9, 2220, Note_on_c, 6, 68, 100
9, 2340, Note_on_c, 6, 68, 0
9, 2340, Note_on_c, 6, 59, 0
9, 2340, Note_on_c, 6, 52, 0
9, 2340, Note_on_c, 6, 71, 0
9, 2340, Note_on_c, 6, 64, 0
9, 2340, Note_on_c, 6, 59, 100
9, 2340, Note_on_c, 6, 66, 100
9, 2340, Note_on_c, 6, 71, 100
9, 2460, Note_on_c, 6, 71, 0
9, 2460, Note_on_c, 6, 66, 0
9, 2460, Note_on_c, 6, 59, 0
9, 2460, Note_on_c, 6, 59, 100
9, 2460, Note_on_c, 6, 66, 100
9, 2460, Note_on_c, 6, 71, 100
9, 2520, Note_on_c, 6, 71, 0
9, 2520, Note_on_c, 6, 66, 0
9, 2520, Note_on_c, 6, 59, 0
9, 2520, Note_on_c, 6, 59, 100
9, 2520, Note_on_c, 6, 66, 100
9, 2520, Note_on_c, 6, 71, 100
9, 2640, Note_on_c, 6, 71, 0
9, 2640, Note_on_c, 6, 66, 0
9, 2640, Note_on_c, 6, 59, 0
9, 2640, Note_on_c, 6, 59, 100
9, 2640, Note_on_c, 6, 66, 100
9, 2640, Note_on_c, 6, 71, 100
9, 2700, Note_on_c, 6, 71, 0
9, 2700, Note_on_c, 6, 66, 0
9, 2700, Note_on_c, 6, 59, 0
9, 2700, Note_on_c, 6, 59, 100
9, 2700, Note_on_c, 6, 66, 100
9, 2700, Note_on_c, 6, 71, 100
9, 2820, Note_on_c, 6, 71, 0
9, 2820, Note_on_c, 6, 66, 0
9, 2820, Note_on_c, 6, 59, 0
9, 2820, Note_on_c, 6, 62, 100
9, 2820, Note_on_c, 6, 69, 100
9, 2820, Note_on_c, 6, 74, 100
9, 2940, Note_on_c, 6, 74, 0
9, 2940, Note_on_c, 6, 69, 0
9, 2940, Note_on_c, 6, 62, 0
9, 2940, Note_on_c, 6, 62, 100
9, 2940, Note_on_c, 6, 69, 100
9, 2940, Note_on_c, 6, 74, 100
9, 3000, Note_on_c, 6, 74, 0
9, 3000, Note_on_c, 6, 69, 0
9, 3000, Note_on_c, 6, 62, 0
9, 3000, Note_on_c, 6, 62, 100
9, 3000, Note_on_c, 6, 69, 100
9, 3000, Note_on_c, 6, 74, 100
9, 3060, Note_on_c, 6, 74, 0
9, 3060, Note_on_c, 6, 69, 0
9, 3060, Note_on_c, 6, 62, 0
9, 3060, Note_on_c, 6, 64, 100
9, 3060, Note_on_c, 6, 69, 100
9, 3060, Note_on_c, 6, 73, 100
9, 3180, Note_on_c, 6, 73, 0
9, 3180, Note_on_c, 6, 69, 0
9, 3180, Note_on_c, 6, 64, 0
9, 3180, Note_on_c, 6, 64, 100
9, 3180, Note_on_c, 6, 69, 100
9, 3180, Note_on_c, 6, 73, 100
9, 3240, Note_on_c, 6, 73, 0
9, 3240, Note_on_c, 6, 69, 0
9, 3240, Note_on_c, 6, 64, 0
9, 3240, Note_on_c, 6, 64, 100
9, 3240, Note_on_c, 6, 69, 100
9, 3240, Note_on_c, 6, 73, 100
9, 3300, Note_on_c, 6, 73, 0
9, 3300, Note_on_c, 6, 69, 0
9, 3300, Note_on_c, 6, 64, 0
9, 3300, Note_on_c, 6, 59, 100
9, 3300, Note_on_c, 6, 66, 100
9, 3300, Note_on_c, 6, 71, 100
9, 3420, Note_on_c, 6, 71, 0
9, 3420, Note_on_c, 6, 66, 0
9, 3420, Note_on_c, 6, 59, 0
9, 3420, Note_on_c, 6, 59, 100
9, 3420, Note_on_c, 6, 66, 100
9, 3420, Note_on_c, 6, 71, 100
9, 3480, Note_on_c, 6, 71, 0
9, 3480, Note_on_c, 6, 66, 0
9, 3480, Note_on_c, 6, 59, 0
9, 3480, Note_on_c, 6, 59, 100
9, 3480, Note_on_c, 6, 66, 100
9, 3480, Note_on_c, 6, 71, 100
9, 3540, Note_on_c, 6, 71, 0
9, 3540, Note_on_c, 6, 66, 0
9, 3540, Note_on_c, 6, 59, 0
9, 3540, Note_on_c, 6, 59, 100
9, 3540, Note_on_c, 6, 66, 100
9, 3540, Note_on_c, 6, 71, 100
9, 3660, Note_on_c, 6, 71, 0
9, 3660, Note_on_c, 6, 66, 0
9, 3660, Note_on_c, 6, 59, 0
9, 3660, Note_on_c, 6, 59, 100
9, 3660, Note_on_c, 6, 66, 100
9, 3660, Note_on_c, 6, 71, 100
9, 3720, Note_on_c, 6, 71, 0
9, 3720, Note_on_c, 6, 66, 0
9, 3720, Note_on_c, 6, 59, 0
9, 3720, Note_on_c, 6, 59, 100
9, 3720, Note_on_c, 6, 66, 100
9, 3720, Note_on_c, 6, 71, 100
9, 3780, Note_on_c, 6, 71, 0
9, 3780, Note_on_c, 6, 66, 0
9, 3780, Note_on_c, 6, 59, 0
9, 3780, Note_on_c, 6, 64, 100
9, 3780, Note_on_c, 6, 69, 100
9, 3780, Note_on_c, 6, 73, 100
9, 3900, Note_on_c, 6, 73, 0
9, 3900, Note_on_c, 6, 69, 0
9, 3900, Note_on_c, 6, 64, 0
9, 3900, Note_on_c, 6, 64, 100
9, 3900, Note_on_c, 6, 69, 100
9, 3900, Note_on_c, 6, 73, 100
9, 3960, Note_on_c, 6, 73, 0
9, 3960, Note_on_c, 6, 69, 0
9, 3960, Note_on_c, 6, 64, 0
9, 3960, Note_on_c, 6, 64, 100
9, 3960, Note_on_c, 6, 69, 100
9, 3960, Note_on_c, 6, 73, 100
9, 4020, Note_on_c, 6, 73, 0
9, 4020, Note_on_c, 6, 69, 0
9, 4020, Note_on_c, 6, 64, 0
9, 4020, Note_on_c, 6, 66, 100
9, 4020, Note_on_c, 6, 71, 100
9, 4020, Note_on_c, 6, 75, 100
9, 4140, Note_on_c, 6, 75, 0
9, 4140, Note_on_c, 6, 71, 0
9, 4140, Note_on_c, 6, 66, 0
9, 4140, Note_on_c, 6, 66, 100
9, 4140, Note_on_c, 6, 71, 100
9, 4140, Note_on_c, 6, 75, 100
9, 4200, Note_on_c, 6, 75, 0
9, 4200, Note_on_c, 6, 71, 0
9, 4200, Note_on_c, 6, 66, 0
9, 4200, Note_on_c, 6, 66, 100
9, 4200, Note_on_c, 6, 71, 100
9, 4200, Note_on_c, 6, 75, 100
9, 4320, Note_on_c, 6, 75, 0
9, 4320, Note_on_c, 6, 71, 0
9, 4320, Note_on_c, 6, 66, 0
9, 4320, Note_on_c, 6, 71, 100
9, 4320, Note_on_c, 6, 59, 100
9, 4320, Note_on_c, 6, 64, 100
9, 4320, Note_on_c, 6, 68, 100
9, 4440, Note_on_c, 6, 68, 0
9, 4440, Note_on_c, 6, 71, 0
9, 4440, Note_on_c, 6, 59, 0
9, 4440, Note_on_c, 6, 64, 0
9, 4440, Note_on_c, 6, 71, 100
9, 4440, Note_on_c, 6, 59, 100
9, 4440, Note_on_c, 6, 64, 100
9, 4440, Note_on_c, 6, 68, 100
9, 4560, Note_on_c, 6, 68, 0
9, 4560, Note_on_c, 6, 71, 0
9, 4560, Note_on_c, 6, 59, 0
9, 4560, Note_on_c, 6, 64, 0
9, 4560, Note_on_c, 6, 71, 100
9, 4560, Note_on_c, 6, 59, 100
9, 4560, Note_on_c, 6, 64, 100
9, 4560, Note_on_c, 6, 68, 100
9, 4620, Note_on_c, 6, 68, 0
9, 4620, Note_on_c, 6, 71, 0
9, 4620, Note_on_c, 6, 59, 0
9, 4620, Note_on_c, 6, 64, 0
9, 4620, Note_on_c, 6, 71, 100
9, 4620, Note_on_c, 6, 59, 100
9, 4620, Note_on_c, 6, 64, 100
9, 4620, Note_on_c, 6, 68, 100
9, 4740, Note_on_c, 6, 68, 0
9, 4740, Note_on_c, 6, 71, 0
9, 4740, Note_on_c, 6, 59, 0
9, 4740, Note_on_c, 6, 64, 0
9, 4740, Note_on_c, 6, 59, 100
9, 4740, Note_on_c, 6, 66, 100
9, 4740, Note_on_c, 6, 71, 100
9, 4860, Note_on_c, 6, 71, 0
9, 4860, Note_on_c, 6, 66, 0
9, 4860, Note_on_c, 6, 59, 0
9, 4860, Note_on_c, 6, 59, 100
9, 4860, Note_on_c, 6, 66, 100
9, 4860, Note_on_c, 6, 71, 100
9, 4920, Note_on_c, 6, 71, 0
9, 4920, Note_on_c, 6, 66, 0
9, 4920, Note_on_c, 6, 59, 0
9, 4920, Note_on_c, 6, 59, 100
9, 4920, Note_on_c, 6, 66, 100
9, 4920, Note_on_c, 6, 71, 100
9, 5040, Note_on_c, 6, 71, 0
9, 5040, Note_on_c, 6, 66, 0
9, 5040, Note_on_c, 6, 59, 0
9, 5040, Note_on_c, 6, 59, 100
9, 5040, Note_on_c, 6, 66, 100
9, 5040, Note_on_c, 6, 71, 100
9, 5100, Note_on_c, 6, 71, 0
9, 5100, Note_on_c, 6, 66, 0
9, 5100, Note_on_c, 6, 59, 0
9, 5100, Note_on_c, 6, 59, 100
9, 5100, Note_on_c, 6, 66, 100
9, 5100, Note_on_c, 6, 71, 100
9, 5220, Note_on_c, 6, 71, 0
9, 5220, Note_on_c, 6, 66, 0
9, 5220, Note_on_c, 6, 59, 0
9, 5220, Note_on_c, 6, 62, 100
9, 5220, Note_on_c, 6, 69, 100
9, 5220, Note_on_c, 6, 74, 100
9, 5340, Note_on_c, 6, 74, 0
9, 5340, Note_on_c, 6, 69, 0
9, 5340, Note_on_c, 6, 62, 0
9, 5340, Note_on_c, 6, 62, 100
9, 5340, Note_on_c, 6, 69, 100
9, 5340, Note_on_c, 6, 74, 100
9, 5400, Note_on_c, 6, 74, 0
9, 5400, Note_on_c, 6, 69, 0
9, 5400, Note_on_c, 6, 62, 0
9, 5400, Note_on_c, 6, 62, 100
9, 5400, Note_on_c, 6, 69, 100
9, 5400, Note_on_c, 6, 74, 100
9, 5460, Note_on_c, 6, 74, 0
9, 5460, Note_on_c, 6, 69, 0
9, 5460, Note_on_c, 6, 62, 0
9, 5460, Note_on_c, 6, 64, 100
9, 5460, Note_on_c, 6, 69, 100
9, 5460, Note_on_c, 6, 73, 100
9, 5580, Note_on_c, 6, 73, 0
9, 5580, Note_on_c, 6, 69, 0
9, 5580, Note_on_c, 6, 64, 0
9, 5580, Note_on_c, 6, 64, 100
9, 5580, Note_on_c, 6, 69, 100
9, 5580, Note_on_c, 6, 73, 100
9, 5640, Note_on_c, 6, 73, 0
9, 5640, Note_on_c, 6, 69, 0
9, 5640, Note_on_c, 6, 64, 0
9, 5640, Note_on_c, 6, 69, 100
9, 5640, Note_on_c, 6, 64, 100
9, 5640, Note_on_c, 6, 73, 100
9, 5760, Note_on_c, 6, 73, 0
9, 5760, Note_on_c, 6, 64, 0
9, 5760, Note_on_c, 6, 69, 0
9, 5820, Note_on_c, 6, 59, 100
9, 5820, Note_on_c, 6, 66, 100
9, 5820, Note_on_c, 6, 71, 100
9, 5880, Note_on_c, 6, 71, 0
9, 5880, Note_on_c, 6, 66, 0
9, 5880, Note_on_c, 6, 59, 0
9, 5880, Note_on_c, 6, 59, 100
9, 5880, Note_on_c, 6, 66, 100
9, 5880, Note_on_c, 6, 71, 100
9, 6000, Note_on_c, 6, 71, 0
9, 6000, Note_on_c, 6, 66, 0
9, 6000, Note_on_c, 6, 59, 0
9, 6000, Note_on_c, 6, 59, 100
9, 6000, Note_on_c, 6, 66, 100
9, 6000, Note_on_c, 6, 71, 100
9, 6060, Note_on_c, 6, 71, 0
9, 6060, Note_on_c, 6, 66, 0
9, 6060, Note_on_c, 6, 59, 0
9, 6060, Note_on_c, 6, 59, 100
9, 6060, Note_on_c, 6, 66, 100
9, 6060, Note_on_c, 6, 71, 100
9, 6180, Note_on_c, 6, 71, 0
9, 6180, Note_on_c, 6, 66, 0
9, 6180, Note_on_c, 6, 59, 0
9, 6180, Note_on_c, 6, 64, 100
9, 6180, Note_on_c, 6, 69, 100
9, 6180, Note_on_c, 6, 73, 100
9, 6300, Note_on_c, 6, 73, 0
9, 6300, Note_on_c, 6, 69, 0
9, 6300, Note_on_c, 6, 64, 0
9, 6300, Note_on_c, 6, 64, 100
9, 6300, Note_on_c, 6, 69, 100
9, 6300, Note_on_c, 6, 73, 100
9, 6360, Note_on_c, 6, 73, 0
9, 6360, Note_on_c, 6, 69, 0
9, 6360, Note_on_c, 6, 64, 0
9, 6360, Note_on_c, 6, 64, 100
9, 6360, Note_on_c, 6, 69, 100
9, 6360, Note_on_c, 6, 73, 100
9, 6420, Note_on_c, 6, 73, 0
9, 6420, Note_on_c, 6, 69, 0
9, 6420, Note_on_c, 6, 64, 0
9, 6420, Note_on_c, 6, 66, 100
9, 6420, Note_on_c, 6, 71, 100
9, 6420, Note_on_c, 6, 75, 100
9, 6540, Note_on_c, 6, 75, 0
9, 6540, Note_on_c, 6, 71, 0
9, 6540, Note_on_c, 6, 66, 0
9, 6540, Note_on_c, 6, 66, 100
9, 6540, Note_on_c, 6, 71, 100
9, 6540, Note_on_c, 6, 75, 100
9, 6600, Note_on_c, 6, 75, 0
9, 6600, Note_on_c, 6, 71, 0
9, 6600, Note_on_c, 6, 66, 0
9, 6600, Note_on_c, 6, 66, 100
9, 6600, Note_on_c, 6, 71, 100
9, 6600, Note_on_c, 6, 75, 100
9, 6720, Note_on_c, 6, 75, 0
9, 6720, Note_on_c, 6, 71, 0
9, 6720, Note_on_c, 6, 66, 0
9, 6720, Note_on_c, 6, 71, 100
9, 6720, Note_on_c, 6, 59, 100
9, 6720, Note_on_c, 6, 64, 100
9, 6720, Note_on_c, 6, 68, 100
9, 6840, Note_on_c, 6, 68, 0
9, 6840, Note_on_c, 6, 71, 0
9, 6840, Note_on_c, 6, 59, 0
9, 6840, Note_on_c, 6, 64, 0
9, 6840, Note_on_c, 6, 71, 100
9, 6840, Note_on_c, 6, 59, 100
9, 6840, Note_on_c, 6, 64, 100
9, 6840, Note_on_c, 6, 68, 100
9, 6960, Note_on_c, 6, 68, 0
9, 6960, Note_on_c, 6, 71, 0
9, 6960, Note_on_c, 6, 59, 0
9, 6960, Note_on_c, 6, 64, 0
9, 6960, Note_on_c, 6, 71, 100
9, 6960, Note_on_c, 6, 59, 100
9, 6960, Note_on_c, 6, 64, 100
9, 6960, Note_on_c, 6, 68, 100
9, 7020, Note_on_c, 6, 68, 0
9, 7020, Note_on_c, 6, 71, 0
9, 7020, Note_on_c, 6, 59, 0
9, 7020, Note_on_c, 6, 64, 0
9, 7020, Note_on_c, 6, 71, 100
9, 7020, Note_on_c, 6, 59, 100
9, 7020, Note_on_c, 6, 64, 100
9, 7020, Note_on_c, 6, 68, 100
9, 7140, Note_on_c, 6, 68, 0
9, 7140, Note_on_c, 6, 71, 0
9, 7140, Note_on_c, 6, 59, 0
9, 7140, Note_on_c, 6, 64, 0
9, 7140, Note_on_c, 6, 59, 100
9, 7140, Note_on_c, 6, 66, 100
9, 7140, Note_on_c, 6, 71, 100
9, 7260, Note_on_c, 6, 71, 0
9, 7260, Note_on_c, 6, 66, 0
9, 7260, Note_on_c, 6, 59, 0
9, 7260, Note_on_c, 6, 59, 100
9, 7260, Note_on_c, 6, 66, 100
9, 7260, Note_on_c, 6, 71, 100
9, 7320, Note_on_c, 6, 71, 0
9, 7320, Note_on_c, 6, 66, 0
9, 7320, Note_on_c, 6, 59, 0
9, 7320, Note_on_c, 6, 59, 100
9, 7320, Note_on_c, 6, 66, 100
9, 7320, Note_on_c, 6, 71, 100
9, 7440, Note_on_c, 6, 71, 0
9, 7440, Note_on_c, 6, 66, 0
9, 7440, Note_on_c, 6, 59, 0
9, 7440, Note_on_c, 6, 59, 100
9, 7440, Note_on_c, 6, 66, 100
9, 7440, Note_on_c, 6, 71, 100
9, 7500, Note_on_c, 6, 71, 0
9, 7500, Note_on_c, 6, 66, 0
9, 7500, Note_on_c, 6, 59, 0
9, 7500, Note_on_c, 6, 59, 100
9, 7500, Note_on_c, 6, 66, 100
9, 7500, Note_on_c, 6, 71, 100
9, 7620, Note_on_c, 6, 71, 0
9, 7620, Note_on_c, 6, 66, 0
9, 7620, Note_on_c, 6, 59, 0
9, 7620, Note_on_c, 6, 62, 100
9, 7620, Note_on_c, 6, 69, 100
9, 7620, Note_on_c, 6, 74, 100
9, 7740, Note_on_c, 6, 74, 0
9, 7740, Note_on_c, 6, 69, 0
9, 7740, Note_on_c, 6, 62, 0
9, 7740, Note_on_c, 6, 62, 100
9, 7740, Note_on_c, 6, 69, 100
9, 7740, Note_on_c, 6, 74, 100
9, 7800, Note_on_c, 6, 74, 0
9, 7800, Note_on_c, 6, 69, 0
9, 7800, Note_on_c, 6, 62, 0
9, 7800, Note_on_c, 6, 62, 100
9, 7800, Note_on_c, 6, 69, 100
9, 7800, Note_on_c, 6, 74, 100
9, 7860, Note_on_c, 6, 74, 0
9, 7860, Note_on_c, 6, 69, 0
9, 7860, Note_on_c, 6, 62, 0
9, 7860, Note_on_c, 6, 64, 100
9, 7860, Note_on_c, 6, 69, 100
9, 7860, Note_on_c, 6, 73, 100
9, 7980, Note_on_c, 6, 73, 0
9, 7980, Note_on_c, 6, 69, 0
9, 7980, Note_on_c, 6, 64, 0
9, 7980, Note_on_c, 6, 64, 100
9, 7980, Note_on_c, 6, 69, 100
9, 7980, Note_on_c, 6, 73, 100
9, 8040, Note_on_c, 6, 73, 0
9, 8040, Note_on_c, 6, 69, 0
9, 8040, Note_on_c, 6, 64, 0
9, 8040, Note_on_c, 6, 64, 100
9, 8040, Note_on_c, 6, 69, 100
9, 8040, Note_on_c, 6, 73, 100
9, 8100, Note_on_c, 6, 73, 0
9, 8100, Note_on_c, 6, 69, 0
9, 8100, Note_on_c, 6, 64, 0
9, 8100, Note_on_c, 6, 59, 100
9, 8100, Note_on_c, 6, 66, 100
9, 8100, Note_on_c, 6, 71, 100
9, 8220, Note_on_c, 6, 71, 0
9, 8220, Note_on_c, 6, 66, 0
9, 8220, Note_on_c, 6, 59, 0
9, 8220, Note_on_c, 6, 59, 100
9, 8220, Note_on_c, 6, 66, 100
9, 8220, Note_on_c, 6, 71, 100
9, 8280, Note_on_c, 6, 71, 0
9, 8280, Note_on_c, 6, 66, 0
9, 8280, Note_on_c, 6, 59, 0
9, 8280, Note_on_c, 6, 59, 100
9, 8280, Note_on_c, 6, 66, 100
9, 8280, Note_on_c, 6, 71, 100
9, 8400, Note_on_c, 6, 71, 0
9, 8400, Note_on_c, 6, 66, 0
9, 8400, Note_on_c, 6, 59, 0
9, 8400, Note_on_c, 6, 59, 100
9, 8400, Note_on_c, 6, 66, 100
9, 8400, Note_on_c, 6, 71, 100
9, 8460, Note_on_c, 6, 71, 0
9, 8460, Note_on_c, 6, 66, 0
9, 8460, Note_on_c, 6, 59, 0
9, 8460, Note_on_c, 6, 59, 100
9, 8460, Note_on_c, 6, 66, 100
9, 8460, Note_on_c, 6, 71, 100
9, 8580, Note_on_c, 6, 71, 0
9, 8580, Note_on_c, 6, 66, 0
9, 8580, Note_on_c, 6, 59, 0
9, 8580, Note_on_c, 6, 64, 100
9, 8580, Note_on_c, 6, 69, 100
9, 8580, Note_on_c, 6, 73, 100
9, 8700, Note_on_c, 6, 73, 0
9, 8700, Note_on_c, 6, 69, 0
9, 8700, Note_on_c, 6, 64, 0
9, 8700, Note_on_c, 6, 64, 100
9, 8700, Note_on_c, 6, 69, 100
9, 8700, Note_on_c, 6, 73, 100
9, 8760, Note_on_c, 6, 73, 0
9, 8760, Note_on_c, 6, 69, 0
9, 8760, Note_on_c, 6, 64, 0
9, 8760, Note_on_c, 6, 64, 100
9, 8760, Note_on_c, 6, 69, 100
9, 8760, Note_on_c, 6, 73, 100
9, 8880, Note_on_c, 6, 73, 0
9, 8880, Note_on_c, 6, 69, 0
9, 8880, Note_on_c, 6, 64, 0
9, 8880, Note_on_c, 6, 66, 100
9, 8880, Note_on_c, 6, 71, 100
9, 8880, Note_on_c, 6, 75, 100
9, 8940, Note_on_c, 6, 75, 0
9, 8940, Note_on_c, 6, 71, 0
9, 8940, Note_on_c, 6, 66, 0
9, 8940, Note_on_c, 6, 66, 100
9, 8940, Note_on_c, 6, 71, 100
9, 8940, Note_on_c, 6, 75, 100
9, 9000, Note_on_c, 6, 75, 0
9, 9000, Note_on_c, 6, 71, 0
9, 9000, Note_on_c, 6, 66, 0
9, 9000, Note_on_c, 6, 66, 100
9, 9000, Note_on_c, 6, 71, 100
9, 9000, Note_on_c, 6, 75, 100
9, 9060, Note_on_c, 6, 75, 0
9, 9060, Note_on_c, 6, 71, 0
9, 9060, Note_on_c, 6, 66, 0
9, 9060, Note_on_c, 6, 66, 100
9, 9060, Note_on_c, 6, 71, 100
9, 9060, Note_on_c, 6, 75, 100
9, 9120, Note_on_c, 6, 75, 0
9, 9120, Note_on_c, 6, 71, 0
9, 9120, Note_on_c, 6, 66, 0
9, 13920, Note_on_c, 6, 71, 100
9, 13920, Note_on_c, 6, 52, 100
9, 13920, Note_on_c, 6, 59, 100
9, 13920, Note_on_c, 6, 64, 100
9, 13920, Note_on_c, 6, 68, 100
9, 14040, Note_on_c, 6, 68, 0
9, 14040, Note_on_c, 6, 59, 0
9, 14040, Note_on_c, 6, 64, 0
9, 14040, Note_on_c, 6, 71, 0
9, 14040, Note_on_c, 6, 71, 100
9, 14040, Note_on_c, 6, 59, 100
9, 14040, Note_on_c, 6, 64, 100
9, 14040, Note_on_c, 6, 68, 100
9, 14160, Note_on_c, 6, 68, 0
9, 14160, Note_on_c, 6, 59, 0
9, 14160, Note_on_c, 6, 64, 0
9, 14160, Note_on_c, 6, 71, 0
9, 14160, Note_on_c, 6, 71, 100
9, 14160, Note_on_c, 6, 59, 100
9, 14160, Note_on_c, 6, 64, 100
9, 14160, Note_on_c, 6, 68, 100
9, 14220, Note_on_c, 6, 68, 0
9, 14220, Note_on_c, 6, 59, 0
9, 14220, Note_on_c, 6, 64, 0
9, 14220, Note_on_c, 6, 71, 0
9, 14220, Note_on_c, 6, 71, 100
9, 14220, Note_on_c, 6, 59, 100
9, 14220, Note_on_c, 6, 64, 100
9, 14220, Note_on_c, 6, 68, 100
9, 14340, Note_on_c, 6, 68, 0
9, 14340, Note_on_c, 6, 59, 0
9, 14340, Note_on_c, 6, 52, 0
9, 14340, Note_on_c, 6, 71, 0
9, 14340, Note_on_c, 6, 64, 0
9, 14340, Note_on_c, 6, 59, 100
9, 14340, Note_on_c, 6, 66, 100
9, 14340, Note_on_c, 6, 71, 100
9, 14460, Note_on_c, 6, 71, 0
9, 14460, Note_on_c, 6, 66, 0
9, 14460, Note_on_c, 6, 59, 0
9, 14460, Note_on_c, 6, 59, 100
9, 14460, Note_on_c, 6, 66, 100
9, 14460, Note_on_c, 6, 71, 100
9, 14520, Note_on_c, 6, 71, 0
9, 14520, Note_on_c, 6, 66, 0
9, 14520, Note_on_c, 6, 59, 0
9, 14520, Note_on_c, 6, 59, 100
9, 14520, Note_on_c, 6, 66, 100
9, 14520, Note_on_c, 6, 71, 100
9, 14640, Note_on_c, 6, 71, 0
9, 14640, Note_on_c, 6, 66, 0
9, 14640, Note_on_c, 6, 59, 0
9, 14640, Note_on_c, 6, 59, 100
9, 14640, Note_on_c, 6, 66, 100
9, 14640, Note_on_c, 6, 71, 100
9, 14700, Note_on_c, 6, 71, 0
9, 14700, Note_on_c, 6, 66, 0
9, 14700, Note_on_c, 6, 59, 0
9, 14700, Note_on_c, 6, 59, 100
9, 14700, Note_on_c, 6, 66, 100
9, 14700, Note_on_c, 6, 71, 100
9, 14820, Note_on_c, 6, 71, 0
9, 14820, Note_on_c, 6, 66, 0
9, 14820, Note_on_c, 6, 59, 0
9, 14820, Note_on_c, 6, 62, 100
9, 14820, Note_on_c, 6, 69, 100
9, 14820, Note_on_c, 6, 74, 100
9, 14940, Note_on_c, 6, 74, 0
9, 14940, Note_on_c, 6, 69, 0
9, 14940, Note_on_c, 6, 62, 0
9, 14940, Note_on_c, 6, 62, 100
9, 14940, Note_on_c, 6, 69, 100
9, 14940, Note_on_c, 6, 74, 100
9, 15000, Note_on_c, 6, 74, 0
9, 15000, Note_on_c, 6, 69, 0
9, 15000, Note_on_c, 6, 62, 0
9, 15000, Note_on_c, 6, 62, 100
9, 15000, Note_on_c, 6, 69, 100
9, 15000, Note_on_c, 6, 74, 100
9, 15060, Note_on_c, 6, 74, 0
9, 15060, Note_on_c, 6, 69, 0
9, 15060, Note_on_c, 6, 62, 0
9, 15060, Note_on_c, 6, 64, 100
9, 15060, Note_on_c, 6, 69, 100
9, 15060, Note_on_c, 6, 73, 100
9, 15180, Note_on_c, 6, 73, 0
9, 15180, Note_on_c, 6, 69, 0
9, 15180, Note_on_c, 6, 64, 0
9, 15180, Note_on_c, 6, 64, 100
9, 15180, Note_on_c, 6, 69, 100
9, 15180, Note_on_c, 6, 73, 100
9, 15240, Note_on_c, 6, 73, 0
9, 15240, Note_on_c, 6, 69, 0
9, 15240, Note_on_c, 6, 64, 0
9, 15240, Note_on_c, 6, 64, 100
9, 15240, Note_on_c, 6, 69, 100
9, 15240, Note_on_c, 6, 73, 100
9, 15300, Note_on_c, 6, 73, 0
9, 15300, Note_on_c, 6, 69, 0
9, 15300, Note_on_c, 6, 64, 0
9, 15300, Note_on_c, 6, 59, 100
9, 15300, Note_on_c, 6, 66, 100
9, 15300, Note_on_c, 6, 71, 100
9, 15420, Note_on_c, 6, 71, 0
9, 15420, Note_on_c, 6, 66, 0
9, 15420, Note_on_c, 6, 59, 0
9, 15420, Note_on_c, 6, 59, 100
9, 15420, Note_on_c, 6, 66, 100
9, 15420, Note_on_c, 6, 71, 100
9, 15480, Note_on_c, 6, 71, 0
9, 15480, Note_on_c, 6, 66, 0
9, 15480, Note_on_c, 6, 59, 0
9, 15480, Note_on_c, 6, 59, 100
9, 15480, Note_on_c, 6, 66, 100
9, 15480, Note_on_c, 6, 71, 100
9, 15540, Note_on_c, 6, 71, 0
9, 15540, Note_on_c, 6, 66, 0
9, 15540, Note_on_c, 6, 59, 0
9, 15540, Note_on_c, 6, 59, 100
9, 15540, Note_on_c, 6, 66, 100
9, 15540, Note_on_c, 6, 71, 100
9, 15660, Note_on_c, 6, 71, 0
9, 15660, Note_on_c, 6, 66, 0
9, 15660, Note_on_c, 6, 59, 0
9, 15660, Note_on_c, 6, 59, 100
9, 15660, Note_on_c, 6, 66, 100
9, 15660, Note_on_c, 6, 71, 100
9, 15720, Note_on_c, 6, 71, 0
9, 15720, Note_on_c, 6, 66, 0
9, 15720, Note_on_c, 6, 59, 0
9, 15720, Note_on_c, 6, 59, 100
9, 15720, Note_on_c, 6, 66, 100
9, 15720, Note_on_c, 6, 71, 100
9, 15780, Note_on_c, 6, 71, 0
9, 15780, Note_on_c, 6, 66, 0
9, 15780, Note_on_c, 6, 59, 0
9, 15780, Note_on_c, 6, 64, 100
9, 15780, Note_on_c, 6, 69, 100
9, 15780, Note_on_c, 6, 73, 100
9, 15900, Note_on_c, 6, 73, 0
9, 15900, Note_on_c, 6, 69, 0
9, 15900, Note_on_c, 6, 64, 0
9, 15900, Note_on_c, 6, 64, 100
9, 15900, Note_on_c, 6, 69, 100
9, 15900, Note_on_c, 6, 73, 100
9, 15960, Note_on_c, 6, 73, 0
9, 15960, Note_on_c, 6, 69, 0
9, 15960, Note_on_c, 6, 64, 0
9, 15960, Note_on_c, 6, 64, 100
9, 15960, Note_on_c, 6, 69, 100
9, 15960, Note_on_c, 6, 73, 100
9, 16020, Note_on_c, 6, 73, 0
9, 16020, Note_on_c, 6, 69, 0
9, 16020, Note_on_c, 6, 64, 0
9, 16020, Note_on_c, 6, 66, 100
9, 16020, Note_on_c, 6, 71, 100
9, 16020, Note_on_c, 6, 75, 100
9, 16140, Note_on_c, 6, 75, 0
9, 16140, Note_on_c, 6, 71, 0
9, 16140, Note_on_c, 6, 66, 0
9, 16140, Note_on_c, 6, 66, 100
9, 16140, Note_on_c, 6, 71, 100
9, 16140, Note_on_c, 6, 75, 100
9, 16200, Note_on_c, 6, 75, 0
9, 16200, Note_on_c, 6, 71, 0
9, 16200, Note_on_c, 6, 66, 0
9, 16200, Note_on_c, 6, 66, 100
9, 16200, Note_on_c, 6, 71, 100
9, 16200, Note_on_c, 6, 75, 100
9, 16320, Note_on_c, 6, 75, 0
9, 16320, Note_on_c, 6, 71, 0
9, 16320, Note_on_c, 6, 66, 0
9, 16320, Note_on_c, 6, 59, 100
9, 16320, Note_on_c, 6, 64, 100
9, 16320, Note_on_c, 6, 68, 100
9, 16320, Note_on_c, 6, 71, 100
9, 16440, Note_on_c, 6, 71, 0
9, 16440, Note_on_c, 6, 59, 0
9, 16440, Note_on_c, 6, 64, 0
9, 16440, Note_on_c, 6, 68, 0
9, 16440, Note_on_c, 6, 71, 100
9, 16440, Note_on_c, 6, 59, 100
9, 16440, Note_on_c, 6, 64, 100
9, 16440, Note_on_c, 6, 68, 100
9, 16560, Note_on_c, 6, 68, 0
9, 16560, Note_on_c, 6, 71, 0
9, 16560, Note_on_c, 6, 59, 0
9, 16560, Note_on_c, 6, 64, 0
9, 16560, Note_on_c, 6, 71, 100
9, 16560, Note_on_c, 6, 59, 100
9, 16560, Note_on_c, 6, 64, 100
9, 16560, Note_on_c, 6, 68, 100
9, 16620, Note_on_c, 6, 68, 0
9, 16620, Note_on_c, 6, 71, 0
9, 16620, Note_on_c, 6, 59, 0
9, 16620, Note_on_c, 6, 64, 0
9, 16620, Note_on_c, 6, 71, 100
9, 16620, Note_on_c, 6, 59, 100
9, 16620, Note_on_c, 6, 64, 100
9, 16620, Note_on_c, 6, 68, 100
9, 16740, Note_on_c, 6, 68, 0
9, 16740, Note_on_c, 6, 71, 0
9, 16740, Note_on_c, 6, 59, 0
9, 16740, Note_on_c, 6, 64, 0
9, 16740, Note_on_c, 6, 59, 100
9, 16740, Note_on_c, 6, 66, 100
9, 16740, Note_on_c, 6, 71, 100
9, 16860, Note_on_c, 6, 71, 0
9, 16860, Note_on_c, 6, 66, 0
9, 16860, Note_on_c, 6, 59, 0
9, 16860, Note_on_c, 6, 59, 100
9, 16860, Note_on_c, 6, 66, 100
9, 16860, Note_on_c, 6, 71, 100
9, 16920, Note_on_c, 6, 71, 0
9, 16920, Note_on_c, 6, 66, 0
9, 16920, Note_on_c, 6, 59, 0
9, 16920, Note_on_c, 6, 59, 100
9, 16920, Note_on_c, 6, 66, 100
9, 16920, Note_on_c, 6, 71, 100
9, 17040, Note_on_c, 6, 71, 0
9, 17040, Note_on_c, 6, 66, 0
9, 17040, Note_on_c, 6, 59, 0
9, 17040, Note_on_c, 6, 59, 100
9, 17040, Note_on_c, 6, 66, 100
9, 17040, Note_on_c, 6, 71, 100
9, 17100, Note_on_c, 6, 71, 0
9, 17100, Note_on_c, 6, 66, 0
9, 17100, Note_on_c, 6, 59, 0
9, 17100, Note_on_c, 6, 59, 100
9, 17100, Note_on_c, 6, 66, 100
9, 17100, Note_on_c, 6, 71, 100
9, 17220, Note_on_c, 6, 71, 0
9, 17220, Note_on_c, 6, 66, 0
9, 17220, Note_on_c, 6, 59, 0
9, 17220, Note_on_c, 6, 62, 100
9, 17220, Note_on_c, 6, 69, 100
9, 17220, Note_on_c, 6, 74, 100
9, 17340, Note_on_c, 6, 74, 0
9, 17340, Note_on_c, 6, 69, 0
9, 17340, Note_on_c, 6, 62, 0
9, 17340, Note_on_c, 6, 62, 100
9, 17340, Note_on_c, 6, 69, 100
9, 17340, Note_on_c, 6, 74, 100
9, 17400, Note_on_c, 6, 74, 0
9, 17400, Note_on_c, 6, 69, 0
9, 17400, Note_on_c, 6, 62, 0
9, 17400, Note_on_c, 6, 62, 100
9, 17400, Note_on_c, 6, 69, 100
9, 17400, Note_on_c, 6, 74, 100
9, 17460, Note_on_c, 6, 74, 0
9, 17460, Note_on_c, 6, 69, 0
9, 17460, Note_on_c, 6, 62, 0
9, 17460, Note_on_c, 6, 64, 100
9, 17460, Note_on_c, 6, 69, 100
9, 17460, Note_on_c, 6, 73, 100
9, 17580, Note_on_c, 6, 73, 0
9, 17580, Note_on_c, 6, 69, 0
9, 17580, Note_on_c, 6, 64, 0
9, 17580, Note_on_c, 6, 64, 100
9, 17580, Note_on_c, 6, 69, 100
9, 17580, Note_on_c, 6, 73, 100
9, 17640, Note_on_c, 6, 73, 0
9, 17640, Note_on_c, 6, 69, 0
9, 17640, Note_on_c, 6, 64, 0
9, 17640, Note_on_c, 6, 64, 100
9, 17640, Note_on_c, 6, 69, 100
9, 17640, Note_on_c, 6, 73, 100
9, 17700, Note_on_c, 6, 73, 0
9, 17700, Note_on_c, 6, 69, 0
9, 17700, Note_on_c, 6, 64, 0
9, 17700, Note_on_c, 6, 59, 100
9, 17700, Note_on_c, 6, 66, 100
9, 17700, Note_on_c, 6, 71, 100
9, 17820, Note_on_c, 6, 71, 0
9, 17820, Note_on_c, 6, 66, 0
9, 17820, Note_on_c, 6, 59, 0
9, 17820, Note_on_c, 6, 59, 100
9, 17820, Note_on_c, 6, 66, 100
9, 17820, Note_on_c, 6, 71, 100
9, 17880, Note_on_c, 6, 71, 0
9, 17880, Note_on_c, 6, 66, 0
9, 17880, Note_on_c, 6, 59, 0
9, 17880, Note_on_c, 6, 59, 100
9, 17880, Note_on_c, 6, 66, 100
9, 17880, Note_on_c, 6, 71, 100
9, 17940, Note_on_c, 6, 71, 0
9, 17940, Note_on_c, 6, 66, 0
9, 17940, Note_on_c, 6, 59, 0
9, 17940, Note_on_c, 6, 59, 100
9, 17940, Note_on_c, 6, 66, 100
9, 17940, Note_on_c, 6, 71, 100
9, 18060, Note_on_c, 6, 71, 0
9, 18060, Note_on_c, 6, 66, 0
9, 18060, Note_on_c, 6, 59, 0
9, 18060, Note_on_c, 6, 59, 100
9, 18060, Note_on_c, 6, 66, 100
9, 18060, Note_on_c, 6, 71, 100
9, 18120, Note_on_c, 6, 71, 0
9, 18120, Note_on_c, 6, 66, 0
9, 18120, Note_on_c, 6, 59, 0
9, 18120, Note_on_c, 6, 59, 100
9, 18120, Note_on_c, 6, 66, 100
9, 18120, Note_on_c, 6, 71, 100
9, 18180, Note_on_c, 6, 71, 0
9, 18180, Note_on_c, 6, 66, 0
9, 18180, Note_on_c, 6, 59, 0
9, 18180, Note_on_c, 6, 64, 100
9, 18180, Note_on_c, 6, 69, 100
9, 18180, Note_on_c, 6, 73, 100
9, 18300, Note_on_c, 6, 73, 0
9, 18300, Note_on_c, 6, 69, 0
9, 18300, Note_on_c, 6, 64, 0
9, 18300, Note_on_c, 6, 64, 100
9, 18300, Note_on_c, 6, 69, 100
9, 18300, Note_on_c, 6, 73, 100
9, 18360, Note_on_c, 6, 73, 0
9, 18360, Note_on_c, 6, 69, 0
9, 18360, Note_on_c, 6, 64, 0
9, 18360, Note_on_c, 6, 64, 100
9, 18360, Note_on_c, 6, 69, 100
9, 18360, Note_on_c, 6, 73, 100
9, 18420, Note_on_c, 6, 73, 0
9, 18420, Note_on_c, 6, 69, 0
9, 18420, Note_on_c, 6, 64, 0
9, 18420, Note_on_c, 6, 66, 100
9, 18420, Note_on_c, 6, 71, 100
9, 18420, Note_on_c, 6, 75, 100
9, 18540, Note_on_c, 6, 75, 0
9, 18540, Note_on_c, 6, 71, 0
9, 18540, Note_on_c, 6, 66, 0
9, 18540, Note_on_c, 6, 66, 100
9, 18540, Note_on_c, 6, 71, 100
9, 18540, Note_on_c, 6, 75, 100
9, 18600, Note_on_c, 6, 75, 0
9, 18600, Note_on_c, 6, 71, 0
9, 18600, Note_on_c, 6, 66, 0
9, 18600, Note_on_c, 6, 66, 100
9, 18600, Note_on_c, 6, 71, 100
9, 18600, Note_on_c, 6, 75, 100
9, 18720, Note_on_c, 6, 75, 0
9, 18720, Note_on_c, 6, 71, 0
9, 18720, Note_on_c, 6, 66, 0
9, 18720, Note_on_c, 6, 71, 100
9, 18720, Note_on_c, 6, 59, 100
9, 18720, Note_on_c, 6, 64, 100
9, 18720, Note_on_c, 6, 68, 100
9, 18840, Note_on_c, 6, 68, 0
9, 18840, Note_on_c, 6, 71, 0
9, 18840, Note_on_c, 6, 59, 0
9, 18840, Note_on_c, 6, 64, 0
9, 18840, Note_on_c, 6, 71, 100
9, 18840, Note_on_c, 6, 59, 100
9, 18840, Note_on_c, 6, 64, 100
9, 18840, Note_on_c, 6, 68, 100
9, 18960, Note_on_c, 6, 68, 0
9, 18960, Note_on_c, 6, 71, 0
9, 18960, Note_on_c, 6, 59, 0
9, 18960, Note_on_c, 6, 64, 0
9, 18960, Note_on_c, 6, 71, 100
9, 18960, Note_on_c, 6, 59, 100
9, 18960, Note_on_c, 6, 64, 100
9, 18960, Note_on_c, 6, 68, 100
9, 19020, Note_on_c, 6, 68, 0
9, 19020, Note_on_c, 6, 71, 0
9, 19020, Note_on_c, 6, 59, 0
9, 19020, Note_on_c, 6, 64, 0
9, 19020, Note_on_c, 6, 71, 100
9, 19020, Note_on_c, 6, 59, 100
9, 19020, Note_on_c, 6, 64, 100
9, 19020, Note_on_c, 6, 68, 100
9, 19140, Note_on_c, 6, 68, 0
9, 19140, Note_on_c, 6, 71, 0
9, 19140, Note_on_c, 6, 59, 0
9, 19140, Note_on_c, 6, 64, 0
9, 19140, Note_on_c, 6, 59, 100
9, 19140, Note_on_c, 6, 66, 100
9, 19140, Note_on_c, 6, 71, 100
9, 19260, Note_on_c, 6, 71, 0
9, 19260, Note_on_c, 6, 66, 0
9, 19260, Note_on_c, 6, 59, 0
9, 19260, Note_on_c, 6, 59, 100
9, 19260, Note_on_c, 6, 66, 100
9, 19260, Note_on_c, 6, 71, 100
9, 19320, Note_on_c, 6, 71, 0
9, 19320, Note_on_c, 6, 66, 0
9, 19320, Note_on_c, 6, 59, 0
9, 19320, Note_on_c, 6, 59, 100
9, 19320, Note_on_c, 6, 66, 100
9, 19320, Note_on_c, 6, 71, 100
9, 19440, Note_on_c, 6, 71, 0
9, 19440, Note_on_c, 6, 66, 0
9, 19440, Note_on_c, 6, 59, 0
9, 19440, Note_on_c, 6, 59, 100
9, 19440, Note_on_c, 6, 66, 100
9, 19440, Note_on_c, 6, 71, 100
9, 19500, Note_on_c, 6, 71, 0
9, 19500, Note_on_c, 6, 66, 0
9, 19500, Note_on_c, 6, 59, 0
9, 19500, Note_on_c, 6, 59, 100
9, 19500, Note_on_c, 6, 66, 100
9, 19500, Note_on_c, 6, 71, 100
9, 19620, Note_on_c, 6, 71, 0
9, 19620, Note_on_c, 6, 66, 0
9, 19620, Note_on_c, 6, 59, 0
9, 19620, Note_on_c, 6, 62, 100
9, 19620, Note_on_c, 6, 69, 100
9, 19620, Note_on_c, 6, 74, 100
9, 19740, Note_on_c, 6, 74, 0
9, 19740, Note_on_c, 6, 69, 0
9, 19740, Note_on_c, 6, 62, 0
9, 19740, Note_on_c, 6, 62, 100
9, 19740, Note_on_c, 6, 69, 100
9, 19740, Note_on_c, 6, 74, 100
9, 19800, Note_on_c, 6, 74, 0
9, 19800, Note_on_c, 6, 69, 0
9, 19800, Note_on_c, 6, 62, 0
9, 19800, Note_on_c, 6, 62, 100
9, 19800, Note_on_c, 6, 69, 100
9, 19800, Note_on_c, 6, 74, 100
9, 19860, Note_on_c, 6, 74, 0
9, 19860, Note_on_c, 6, 69, 0
9, 19860, Note_on_c, 6, 62, 0
9, 19860, Note_on_c, 6, 64, 100
9, 19860, Note_on_c, 6, 69, 100
9, 19860, Note_on_c, 6, 73, 100
9, 19980, Note_on_c, 6, 73, 0
9, 19980, Note_on_c, 6, 69, 0
9, 19980, Note_on_c, 6, 64, 0
9, 19980, Note_on_c, 6, 64, 100
9, 19980, Note_on_c, 6, 69, 100
9, 19980, Note_on_c, 6, 73, 100
9, 20040, Note_on_c, 6, 73, 0
9, 20040, Note_on_c, 6, 69, 0
9, 20040, Note_on_c, 6, 64, 0
9, 20040, Note_on_c, 6, 64, 100
9, 20040, Note_on_c, 6, 69, 100
9, 20040, Note_on_c, 6, 73, 100
9, 20100, Note_on_c, 6, 73, 0
9, 20100, Note_on_c, 6, 69, 0
9, 20100, Note_on_c, 6, 64, 0
9, 20100, Note_on_c, 6, 59, 100
9, 20100, Note_on_c, 6, 66, 100
9, 20100, Note_on_c, 6, 71, 100
9, 20220, Note_on_c, 6, 71, 0
9, 20220, Note_on_c, 6, 66, 0
9, 20220, Note_on_c, 6, 59, 0
9, 20220, Note_on_c, 6, 59, 100
9, 20220, Note_on_c, 6, 66, 100
9, 20220, Note_on_c, 6, 71, 100
9, 20280, Note_on_c, 6, 71, 0
9, 20280, Note_on_c, 6, 66, 0
9, 20280, Note_on_c, 6, 59, 0
9, 20280, Note_on_c, 6, 59, 100
9, 20280, Note_on_c, 6, 66, 100
9, 20280, Note_on_c, 6, 71, 100
9, 20400, Note_on_c, 6, 71, 0
9, 20400, Note_on_c, 6, 66, 0
9, 20400, Note_on_c, 6, 59, 0
9, 20400, Note_on_c, 6, 59, 100
9, 20400, Note_on_c, 6, 66, 100
9, 20400, Note_on_c, 6, 71, 100
9, 20460, Note_on_c, 6, 71, 0
9, 20460, Note_on_c, 6, 66, 0
9, 20460, Note_on_c, 6, 59, 0
9, 20460, Note_on_c, 6, 59, 100
9, 20460, Note_on_c, 6, 66, 100
9, 20460, Note_on_c, 6, 71, 100
9, 20580, Note_on_c, 6, 71, 0
9, 20580, Note_on_c, 6, 66, 0
9, 20580, Note_on_c, 6, 59, 0
9, 20580, Note_on_c, 6, 64, 100
9, 20580, Note_on_c, 6, 69, 100
9, 20580, Note_on_c, 6, 73, 100
9, 20700, Note_on_c, 6, 73, 0
9, 20700, Note_on_c, 6, 69, 0
9, 20700, Note_on_c, 6, 64, 0
9, 20700, Note_on_c, 6, 64, 100
9, 20700, Note_on_c, 6, 69, 100
9, 20700, Note_on_c, 6, 73, 100
9, 20760, Note_on_c, 6, 73, 0
9, 20760, Note_on_c, 6, 69, 0
9, 20760, Note_on_c, 6, 64, 0
9, 20760, Note_on_c, 6, 64, 100
9, 20760, Note_on_c, 6, 69, 100
9, 20760, Note_on_c, 6, 73, 100
9, 20880, Note_on_c, 6, 73, 0
9, 20880, Note_on_c, 6, 69, 0
9, 20880, Note_on_c, 6, 64, 0
9, 20880, Note_on_c, 6, 66, 100
9, 20880, Note_on_c, 6, 71, 100
9, 20880, Note_on_c, 6, 75, 100
9, 20940, Note_on_c, 6, 75, 0
9, 20940, Note_on_c, 6, 71, 0
9, 20940, Note_on_c, 6, 66, 0
9, 20940, Note_on_c, 6, 66, 100
9, 20940, Note_on_c, 6, 71, 100
9, 20940, Note_on_c, 6, 75, 100
9, 21000, Note_on_c, 6, 75, 0
9, 21000, Note_on_c, 6, 71, 0
9, 21000, Note_on_c, 6, 66, 0
9, 21000, Note_on_c, 6, 66, 100
9, 21000, Note_on_c, 6, 71, 100
9, 21000, Note_on_c, 6, 75, 100
9, 21060, Note_on_c, 6, 75, 0
9, 21060, Note_on_c, 6, 71, 0
9, 21060, Note_on_c, 6, 66, 0
9, 21060, Note_on_c, 6, 66, 100
9, 21060, Note_on_c, 6, 71, 100
9, 21060, Note_on_c, 6, 75, 100
9, 21120, Note_on_c, 6, 75, 0
9, 21120, Note_on_c, 6, 71, 0
9, 21120, Note_on_c, 6, 66, 0
9, 22080, Note_on_c, 6, 59, 100
9, 22080, Note_on_c, 6, 64, 100
9, 22080, Note_on_c, 6, 68, 100
9, 22200, Note_on_c, 6, 68, 0
9, 22200, Note_on_c, 6, 64, 0
9, 22200, Note_on_c, 6, 59, 0
9, 22200, Note_on_c, 6, 59, 100
9, 22200, Note_on_c, 6, 64, 100
9, 22200, Note_on_c, 6, 68, 100
9, 22320, Note_on_c, 6, 68, 0
9, 22320, Note_on_c, 6, 64, 0
9, 22320, Note_on_c, 6, 59, 0
9, 22320, Note_on_c, 6, 59, 100
9, 22320, Note_on_c, 6, 64, 100
9, 22320, Note_on_c, 6, 68, 100
9, 22380, Note_on_c, 6, 68, 0
9, 22380, Note_on_c, 6, 64, 0
9, 22380, Note_on_c, 6, 59, 0
9, 22380, Note_on_c, 6, 63, 100
9, 22380, Note_on_c, 6, 59, 100
9, 22380, Note_on_c, 6, 66, 100
9, 22500, Note_on_c, 6, 66, 0
9, 22500, Note_on_c, 6, 59, 0
9, 22500, Note_on_c, 6, 63, 0
9, 22500, Note_on_c, 6, 56, 100
9, 22500, Note_on_c, 6, 61, 100
9, 22500, Note_on_c, 6, 64, 100
9, 22500, Note_on_c, 6, 68, 100
9, 22620, Note_on_c, 6, 68, 0
9, 22620, Note_on_c, 6, 56, 0
9, 22620, Note_on_c, 6, 61, 0
9, 22620, Note_on_c, 6, 64, 0
9, 22620, Note_on_c, 6, 56, 100
9, 22620, Note_on_c, 6, 61, 100
9, 22620, Note_on_c, 6, 64, 100
9, 22620, Note_on_c, 6, 68, 100
9, 22680, Note_on_c, 6, 68, 0
9, 22680, Note_on_c, 6, 56, 0
9, 22680, Note_on_c, 6, 61, 0
9, 22680, Note_on_c, 6, 64, 0
9, 22680, Note_on_c, 6, 56, 100
9, 22680, Note_on_c, 6, 61, 100
9, 22680, Note_on_c, 6, 64, 100
9, 22680, Note_on_c, 6, 68, 100
9, 22800, Note_on_c, 6, 68, 0
9, 22800, Note_on_c, 6, 56, 0
9, 22800, Note_on_c, 6, 61, 0
9, 22800, Note_on_c, 6, 64, 0
9, 22800, Note_on_c, 6, 56, 100
9, 22800, Note_on_c, 6, 61, 100
9, 22800, Note_on_c, 6, 64, 100
9, 22800, Note_on_c, 6, 68, 100
9, 22860, Note_on_c, 6, 68, 0
9, 22860, Note_on_c, 6, 56, 0
9, 22860, Note_on_c, 6, 61, 0
9, 22860, Note_on_c, 6, 64, 0
9, 22860, Note_on_c, 6, 63, 100
9, 22860, Note_on_c, 6, 59, 100
9, 22860, Note_on_c, 6, 66, 100
9, 22980, Note_on_c, 6, 66, 0
9, 22980, Note_on_c, 6, 59, 0
9, 22980, Note_on_c, 6, 63, 0
9, 22980, Note_on_c, 6, 57, 100
9, 22980, Note_on_c, 6, 61, 100
9, 22980, Note_on_c, 6, 64, 100
9, 23040, Note_on_c, 6, 64, 0
9, 23040, Note_on_c, 6, 61, 0
9, 23040, Note_on_c, 6, 57, 0
9, 23040, Note_on_c, 6, 57, 100
9, 23040, Note_on_c, 6, 61, 100
9, 23040, Note_on_c, 6, 64, 100
9, 23100, Note_on_c, 6, 61, 0
9, 23100, Note_on_c, 6, 57, 0
9, 23160, Note_on_c, 6, 64, 0
9, 23160, Note_on_c, 6, 61, 100
9, 23160, Note_on_c, 6, 57, 100
9, 23160, Note_on_c, 6, 64, 100
9, 23220, Note_on_c, 6, 57, 0
9, 23220, Note_on_c, 6, 61, 0
9, 23280, Note_on_c, 6, 64, 0
9, 23280, Note_on_c, 6, 57, 100
9, 23280, Note_on_c, 6, 61, 100
9, 23280, Note_on_c, 6, 64, 100
9, 23340, Note_on_c, 6, 64, 0
9, 23340, Note_on_c, 6, 61, 0
9, 23340, Note_on_c, 6, 57, 0
9, 23340, Note_on_c, 6, 57, 100
9, 23340, Note_on_c, 6, 61, 100
9, 23340, Note_on_c, 6, 64, 100
9, 23460, Note_on_c, 6, 64, 0
9, 23460, Note_on_c, 6, 61, 0
9, 23460, Note_on_c, 6, 57, 0
9, 23460, Note_on_c, 6, 57, 100
9, 23460, Note_on_c, 6, 61, 100
9, 23460, Note_on_c, 6, 66, 100
9, 23580, Note_on_c, 6, 66, 0
9, 23580, Note_on_c, 6, 61, 0
9, 23580, Note_on_c, 6, 57, 0
9, 23580, Note_on_c, 6, 57, 100
9, 23580, Note_on_c, 6, 61, 100
9, 23580, Note_on_c, 6, 66, 100
9, 23640, Note_on_c, 6, 66, 0
9, 23640, Note_on_c, 6, 61, 0
9, 23640, Note_on_c, 6, 57, 0
9, 23640, Note_on_c, 6, 57, 100
9, 23640, Note_on_c, 6, 61, 100
9, 23640, Note_on_c, 6, 66, 100
9, 23760, Note_on_c, 6, 66, 0
9, 23760, Note_on_c, 6, 61, 0
9, 23760, Note_on_c, 6, 57, 0
9, 23760, Note_on_c, 6, 57, 100
9, 23760, Note_on_c, 6, 61, 100
9, 23760, Note_on_c, 6, 66, 100
9, 23820, Note_on_c, 6, 66, 0
9, 23820, Note_on_c, 6, 61, 0
9, 23820, Note_on_c, 6, 57, 0
9, 23820, Note_on_c, 6, 57, 100
9, 23820, Note_on_c, 6, 61, 100
9, 23820, Note_on_c, 6, 66, 100
9, 23940, Note_on_c, 6, 66, 0
9, 23940, Note_on_c, 6, 61, 0
9, 23940, Note_on_c, 6, 57, 0
9, 23940, Note_on_c, 6, 57, 100
9, 23940, Note_on_c, 6, 61, 100
9, 23940, Note_on_c, 6, 66, 100
9, 24000, Note_on_c, 6, 66, 0
9, 24000, Note_on_c, 6, 61, 0
9, 24000, Note_on_c, 6, 57, 0
9, 24000, Note_on_c, 6, 61, 100
9, 24000, Note_on_c, 6, 64, 100
9, 24000, Note_on_c, 6, 68, 100
9, 24120, Note_on_c, 6, 68, 0
9, 24120, Note_on_c, 6, 64, 0
9, 24120, Note_on_c, 6, 61, 0
9, 24120, Note_on_c, 6, 61, 100
9, 24120, Note_on_c, 6, 64, 100
9, 24120, Note_on_c, 6, 68, 100
9, 24240, Note_on_c, 6, 68, 0
9, 24240, Note_on_c, 6, 64, 0
9, 24240, Note_on_c, 6, 61, 0
9, 24240, Note_on_c, 6, 61, 100
9, 24240, Note_on_c, 6, 64, 100
9, 24240, Note_on_c, 6, 68, 100
9, 24300, Note_on_c, 6, 68, 0
9, 24300, Note_on_c, 6, 64, 0
9, 24300, Note_on_c, 6, 61, 0
9, 24300, Note_on_c, 6, 57, 100
9, 24300, Note_on_c, 6, 61, 100
9, 24300, Note_on_c, 6, 64, 100
9, 24420, Note_on_c, 6, 64, 0
9, 24420, Note_on_c, 6, 61, 0
9, 24420, Note_on_c, 6, 57, 0
9, 24420, Note_on_c, 6, 59, 100
9, 24420, Note_on_c, 6, 63, 100
9, 24420, Note_on_c, 6, 66, 100
9, 24540, Note_on_c, 6, 66, 0
9, 24540, Note_on_c, 6, 63, 0
9, 24540, Note_on_c, 6, 59, 0
9, 24540, Note_on_c, 6, 59, 100
9, 24540, Note_on_c, 6, 63, 100
9, 24540, Note_on_c, 6, 66, 100
9, 24600, Note_on_c, 6, 66, 0
9, 24600, Note_on_c, 6, 63, 0
9, 24600, Note_on_c, 6, 59, 0
9, 24600, Note_on_c, 6, 59, 100
9, 24600, Note_on_c, 6, 63, 100
9, 24600, Note_on_c, 6, 66, 100
9, 24720, Note_on_c, 6, 66, 0
9, 24720, Note_on_c, 6, 63, 0
9, 24720, Note_on_c, 6, 59, 0
9, 24720, Note_on_c, 6, 63, 100
9, 24720, Note_on_c, 6, 59, 100
9, 24720, Note_on_c, 6, 66, 100
9, 24780, Note_on_c, 6, 66, 0
9, 24780, Note_on_c, 6, 59, 0
9, 24780, Note_on_c, 6, 63, 0
9, 24780, Note_on_c, 6, 59, 100
9, 24780, Note_on_c, 6, 63, 100
9, 24780, Note_on_c, 6, 66, 100
9, 24900, Note_on_c, 6, 66, 0
9, 24900, Note_on_c, 6, 63, 0
9, 24900, Note_on_c, 6, 59, 0
9, 24900, Note_on_c, 6, 59, 100
9, 24900, Note_on_c, 6, 63, 100
9, 24900, Note_on_c, 6, 66, 100
9, 24960, Note_on_c, 6, 66, 0
9, 24960, Note_on_c, 6, 63, 0
9, 24960, Note_on_c, 6, 59, 0
9, 24960, Note_on_c, 6, 61, 100
9, 24960, Note_on_c, 6, 64, 100
9, 24960, Note_on_c, 6, 68, 100
9, 25080, Note_on_c, 6, 68, 0
9, 25080, Note_on_c, 6, 64, 0
9, 25080, Note_on_c, 6, 61, 0
9, 25080, Note_on_c, 6, 61, 100
9, 25080, Note_on_c, 6, 64, 100
9, 25080, Note_on_c, 6, 68, 100
9, 25200, Note_on_c, 6, 68, 0
9, 25200, Note_on_c, 6, 64, 0
9, 25200, Note_on_c, 6, 61, 0
9, 25200, Note_on_c, 6, 61, 100
9, 25200, Note_on_c, 6, 64, 100
9, 25200, Note_on_c, 6, 68, 100
9, 25260, Note_on_c, 6, 68, 0
9, 25260, Note_on_c, 6, 64, 0
9, 25260, Note_on_c, 6, 61, 0
9, 25260, Note_on_c, 6, 57, 100
9, 25260, Note_on_c, 6, 61, 100
9, 25260, Note_on_c, 6, 64, 100
9, 25380, Note_on_c, 6, 64, 0
9, 25380, Note_on_c, 6, 61, 0
9, 25380, Note_on_c, 6, 57, 0
9, 25380, Note_on_c, 6, 59, 100
9, 25380, Note_on_c, 6, 63, 100
9, 25380, Note_on_c, 6, 66, 100
9, 25500, Note_on_c, 6, 66, 0
9, 25500, Note_on_c, 6, 63, 0
9, 25500, Note_on_c, 6, 59, 0
9, 25500, Note_on_c, 6, 59, 100
9, 25500, Note_on_c, 6, 63, 100
9, 25500, Note_on_c, 6, 66, 100
9, 25560, Note_on_c, 6, 66, 0
9, 25560, Note_on_c, 6, 63, 0
9, 25560, Note_on_c, 6, 59, 0
9, 25560, Note_on_c, 6, 59, 100
9, 25560, Note_on_c, 6, 63, 100
9, 25560, Note_on_c, 6, 66, 100
9, 25680, Note_on_c, 6, 66, 0
9, 25680, Note_on_c, 6, 63, 0
9, 25680, Note_on_c, 6, 59, 0
9, 25680, Note_on_c, 6, 62, 100
9, 25680, Note_on_c, 6, 57, 100
9, 25680, Note_on_c, 6, 66, 100
9, 25740, Note_on_c, 6, 66, 0
9, 25740, Note_on_c, 6, 57, 0
9, 25740, Note_on_c, 6, 62, 0
9, 25740, Note_on_c, 6, 57, 100
9, 25740, Note_on_c, 6, 62, 100
9, 25740, Note_on_c, 6, 66, 100
9, 25860, Note_on_c, 6, 66, 0
9, 25860, Note_on_c, 6, 62, 0
9, 25860, Note_on_c, 6, 57, 0
9, 25860, Note_on_c, 6, 57, 100
9, 25860, Note_on_c, 6, 62, 100
9, 25860, Note_on_c, 6, 66, 100
9, 25920, Note_on_c, 6, 66, 0
9, 25920, Note_on_c, 6, 62, 0
9, 25920, Note_on_c, 6, 57, 0
9, 25920, Note_on_c, 6, 59, 100
9, 25920, Note_on_c, 6, 64, 100
9, 25920, Note_on_c, 6, 68, 100
9, 26040, Note_on_c, 6, 68, 0
9, 26040, Note_on_c, 6, 64, 0
9, 26040, Note_on_c, 6, 59, 0
9, 26040, Note_on_c, 6, 59, 100
9, 26040, Note_on_c, 6, 64, 100
9, 26040, Note_on_c, 6, 68, 100
9, 26160, Note_on_c, 6, 68, 0
9, 26160, Note_on_c, 6, 64, 0
9, 26160, Note_on_c, 6, 59, 0
9, 26160, Note_on_c, 6, 59, 100
9, 26160, Note_on_c, 6, 64, 100
9, 26160, Note_on_c, 6, 68, 100
9, 26220, Note_on_c, 6, 68, 0
9, 26220, Note_on_c, 6, 64, 0
9, 26220, Note_on_c, 6, 59, 0
9, 26220, Note_on_c, 6, 63, 100
9, 26220, Note_on_c, 6, 59, 100
9, 26220, Note_on_c, 6, 66, 100
9, 26340, Note_on_c, 6, 66, 0
9, 26340, Note_on_c, 6, 59, 0
9, 26340, Note_on_c, 6, 63, 0
9, 26340, Note_on_c, 6, 56, 100
9, 26340, Note_on_c, 6, 61, 100
9, 26340, Note_on_c, 6, 64, 100
9, 26340, Note_on_c, 6, 68, 100
9, 26460, Note_on_c, 6, 68, 0
9, 26460, Note_on_c, 6, 56, 0
9, 26460, Note_on_c, 6, 61, 0
9, 26460, Note_on_c, 6, 64, 0
9, 26460, Note_on_c, 6, 56, 100
9, 26460, Note_on_c, 6, 61, 100
9, 26460, Note_on_c, 6, 64, 100
9, 26460, Note_on_c, 6, 68, 100
9, 26520, Note_on_c, 6, 68, 0
9, 26520, Note_on_c, 6, 56, 0
9, 26520, Note_on_c, 6, 61, 0
9, 26520, Note_on_c, 6, 64, 0
9, 26520, Note_on_c, 6, 56, 100
9, 26520, Note_on_c, 6, 61, 100
9, 26520, Note_on_c, 6, 64, 100
9, 26520, Note_on_c, 6, 68, 100
9, 26640, Note_on_c, 6, 68, 0
9, 26640, Note_on_c, 6, 56, 0
9, 26640, Note_on_c, 6, 61, 0
9, 26640, Note_on_c, 6, 64, 0
9, 26640, Note_on_c, 6, 56, 100
9, 26640, Note_on_c, 6, 61, 100
9, 26640, Note_on_c, 6, 64, 100
9, 26640, Note_on_c, 6, 68, 100
9, 26700, Note_on_c, 6, 68, 0
9, 26700, Note_on_c, 6, 56, 0
9, 26700, Note_on_c, 6, 61, 0
9, 26700, Note_on_c, 6, 64, 0
9, 26700, Note_on_c, 6, 63, 100
9, 26700, Note_on_c, 6, 59, 100
9, 26700, Note_on_c, 6, 66, 100
9, 26820, Note_on_c, 6, 66, 0
9, 26820, Note_on_c, 6, 59, 0
9, 26820, Note_on_c, 6, 63, 0
9, 26820, Note_on_c, 6, 57, 100
9, 26820, Note_on_c, 6, 61, 100
9, 26820, Note_on_c, 6, 64, 100
9, 26880, Note_on_c, 6, 64, 0
9, 26880, Note_on_c, 6, 61, 0
9, 26880, Note_on_c, 6, 57, 0
9, 26880, Note_on_c, 6, 57, 100
9, 26880, Note_on_c, 6, 61, 100
9, 26880, Note_on_c, 6, 64, 100
9, 26940, Note_on_c, 6, 61, 0
9, 26940, Note_on_c, 6, 57, 0
9, 27000, Note_on_c, 6, 64, 0
9, 27000, Note_on_c, 6, 61, 100
9, 27000, Note_on_c, 6, 57, 100
9, 27000, Note_on_c, 6, 64, 100
9, 27060, Note_on_c, 6, 57, 0
9, 27060, Note_on_c, 6, 61, 0
9, 27120, Note_on_c, 6, 64, 0
9, 27120, Note_on_c, 6, 57, 100
9, 27120, Note_on_c, 6, 61, 100
9, 27120, Note_on_c, 6, 64, 100
9, 27180, Note_on_c, 6, 64, 0
9, 27180, Note_on_c, 6, 61, 0
9, 27180, Note_on_c, 6, 57, 0
9, 27180, Note_on_c, 6, 57, 100
9, 27180, Note_on_c, 6, 61, 100
9, 27180, Note_on_c, 6, 64, 100
9, 27300, Note_on_c, 6, 64, 0
9, 27300, Note_on_c, 6, 61, 0
9, 27300, Note_on_c, 6, 57, 0
9, 27300, Note_on_c, 6, 57, 100
9, 27300, Note_on_c, 6, 61, 100
9, 27300, Note_on_c, 6, 66, 100
9, 27420, Note_on_c, 6, 66, 0
9, 27420, Note_on_c, 6, 61, 0
9, 27420, Note_on_c, 6, 57, 0
9, 27420, Note_on_c, 6, 57, 100
9, 27420, Note_on_c, 6, 61, 100
9, 27420, Note_on_c, 6, 66, 100
9, 27480, Note_on_c, 6, 66, 0
9, 27480, Note_on_c, 6, 61, 0
9, 27480, Note_on_c, 6, 57, 0
9, 27480, Note_on_c, 6, 57, 100
9, 27480, Note_on_c, 6, 61, 100
9, 27480, Note_on_c, 6, 66, 100
9, 27600, Note_on_c, 6, 66, 0
9, 27600, Note_on_c, 6, 61, 0
9, 27600, Note_on_c, 6, 57, 0
9, 27600, Note_on_c, 6, 57, 100
9, 27600, Note_on_c, 6, 61, 100
9, 27600, Note_on_c, 6, 66, 100
9, 27660, Note_on_c, 6, 66, 0
9, 27660, Note_on_c, 6, 61, 0
9, 27660, Note_on_c, 6, 57, 0
9, 27660, Note_on_c, 6, 57, 100
9, 27660, Note_on_c, 6, 61, 100
9, 27660, Note_on_c, 6, 66, 100
9, 27780, Note_on_c, 6, 66, 0
9, 27780, Note_on_c, 6, 61, 0
9, 27780, Note_on_c, 6, 57, 0
9, 27780, Note_on_c, 6, 57, 100
9, 27780, Note_on_c, 6, 61, 100
9, 27780, Note_on_c, 6, 66, 100
9, 27840, Note_on_c, 6, 66, 0
9, 27840, Note_on_c, 6, 61, 0
9, 27840, Note_on_c, 6, 57, 0
9, 27840, Note_on_c, 6, 61, 100
9, 27840, Note_on_c, 6, 64, 100
9, 27840, Note_on_c, 6, 68, 100
9, 27960, Note_on_c, 6, 68, 0
9, 27960, Note_on_c, 6, 64, 0
9, 27960, Note_on_c, 6, 61, 0
9, 27960, Note_on_c, 6, 61, 100
9, 27960, Note_on_c, 6, 64, 100
9, 27960, Note_on_c, 6, 68, 100
9, 28080, Note_on_c, 6, 68, 0
9, 28080, Note_on_c, 6, 64, 0
9, 28080, Note_on_c, 6, 61, 0
9, 28080, Note_on_c, 6, 61, 100
9, 28080, Note_on_c, 6, 64, 100
9, 28080, Note_on_c, 6, 68, 100
9, 28140, Note_on_c, 6, 68, 0
9, 28140, Note_on_c, 6, 64, 0
9, 28140, Note_on_c, 6, 61, 0
9, 28140, Note_on_c, 6, 57, 100
9, 28140, Note_on_c, 6, 61, 100
9, 28140, Note_on_c, 6, 64, 100
9, 28260, Note_on_c, 6, 64, 0
9, 28260, Note_on_c, 6, 61, 0
9, 28260, Note_on_c, 6, 57, 0
9, 28260, Note_on_c, 6, 59, 100
9, 28260, Note_on_c, 6, 63, 100
9, 28260, Note_on_c, 6, 66, 100
9, 28380, Note_on_c, 6, 66, 0
9, 28380, Note_on_c, 6, 63, 0
9, 28380, Note_on_c, 6, 59, 0
9, 28380, Note_on_c, 6, 59, 100
9, 28380, Note_on_c, 6, 63, 100
9, 28380, Note_on_c, 6, 66, 100
9, 28440, Note_on_c, 6, 66, 0
9, 28440, Note_on_c, 6, 63, 0
9, 28440, Note_on_c, 6, 59, 0
9, 28440, Note_on_c, 6, 59, 100
9, 28440, Note_on_c, 6, 63, 100
9, 28440, Note_on_c, 6, 66, 100
9, 28560, Note_on_c, 6, 66, 0
9, 28560, Note_on_c, 6, 63, 0
9, 28560, Note_on_c, 6, 59, 0
9, 28560, Note_on_c, 6, 63, 100
9, 28560, Note_on_c, 6, 59, 100
9, 28560, Note_on_c, 6, 66, 100
9, 28620, Note_on_c, 6, 66, 0
9, 28620, Note_on_c, 6, 59, 0
9, 28620, Note_on_c, 6, 63, 0
9, 28620, Note_on_c, 6, 59, 100
9, 28620, Note_on_c, 6, 63, 100
9, 28620, Note_on_c, 6, 66, 100
9, 28740, Note_on_c, 6, 66, 0
9, 28740, Note_on_c, 6, 63, 0
9, 28740, Note_on_c, 6, 59, 0
9, 28740, Note_on_c, 6, 59, 100
9, 28740, Note_on_c, 6, 63, 100
9, 28740, Note_on_c, 6, 66, 100
9, 28800, Note_on_c, 6, 66, 0
9, 28800, Note_on_c, 6, 63, 0
9, 28800, Note_on_c, 6, 59, 0
9, 28800, Note_on_c, 6, 61, 100
9, 28800, Note_on_c, 6, 64, 100
9, 28800, Note_on_c, 6, 68, 100
9, 28920, Note_on_c, 6, 68, 0
9, 28920, Note_on_c, 6, 64, 0
9, 28920, Note_on_c, 6, 61, 0
9, 28920, Note_on_c, 6, 61, 100
9, 28920, Note_on_c, 6, 64, 100
9, 28920, Note_on_c, 6, 68, 100
9, 29040, Note_on_c, 6, 68, 0
9, 29040, Note_on_c, 6, 64, 0
9, 29040, Note_on_c, 6, 61, 0
9, 29040, Note_on_c, 6, 61, 100
9, 29040, Note_on_c, 6, 64, 100
9, 29040, Note_on_c, 6, 68, 100
9, 29100, Note_on_c, 6, 68, 0
9, 29100, Note_on_c, 6, 64, 0
9, 29100, Note_on_c, 6, 61, 0
9, 29100, Note_on_c, 6, 57, 100
9, 29100, Note_on_c, 6, 61, 100
9, 29100, Note_on_c, 6, 64, 100
9, 29220, Note_on_c, 6, 64, 0
9, 29220, Note_on_c, 6, 61, 0
9, 29220, Note_on_c, 6, 57, 0
9, 29220, Note_on_c, 6, 59, 100
9, 29220, Note_on_c, 6, 63, 100
9, 29220, Note_on_c, 6, 66, 100
9, 29340, Note_on_c, 6, 66, 0
9, 29340, Note_on_c, 6, 63, 0
9, 29340, Note_on_c, 6, 59, 0
9, 29340, Note_on_c, 6, 59, 100
9, 29340, Note_on_c, 6, 63, 100
9, 29340, Note_on_c, 6, 66, 100
9, 29400, Note_on_c, 6, 66, 0
9, 29400, Note_on_c, 6, 63, 0
9, 29400, Note_on_c, 6, 59, 0
9, 29400, Note_on_c, 6, 59, 100
9, 29400, Note_on_c, 6, 63, 100
9, 29400, Note_on_c, 6, 66, 100
9, 29520, Note_on_c, 6, 66, 0
9, 29520, Note_on_c, 6, 63, 0
9, 29520, Note_on_c, 6, 59, 0
9, 29520, Note_on_c, 6, 62, 100
9, 29520, Note_on_c, 6, 57, 100
9, 29520, Note_on_c, 6, 66, 100
9, 29580, Note_on_c, 6, 66, 0
9, 29580, Note_on_c, 6, 57, 0
9, 29580, Note_on_c, 6, 62, 0
9, 29580, Note_on_c, 6, 57, 100
9, 29580, Note_on_c, 6, 62, 100
9, 29580, Note_on_c, 6, 66, 100
9, 29700, Note_on_c, 6, 66, 0
9, 29700, Note_on_c, 6, 62, 0
9, 29700, Note_on_c, 6, 57, 0
9, 29700, Note_on_c, 6, 57, 100
9, 29700, Note_on_c, 6, 62, 100
9, 29700, Note_on_c, 6, 66, 100
9, 29760, Note_on_c, 6, 66, 0
9, 29760, Note_on_c, 6, 62, 0
9, 29760, Note_on_c, 6, 57, 0
9, 29760, Note_on_c, 6, 71, 100
9, 29760, Note_on_c, 6, 52, 100
9, 29760, Note_on_c, 6, 59, 100
9, 29760, Note_on_c, 6, 64, 100
9, 29760, Note_on_c, 6, 68, 100
9, 29880, Note_on_c, 6, 68, 0
9, 29880, Note_on_c, 6, 59, 0
9, 29880, Note_on_c, 6, 64, 0
9, 29880, Note_on_c, 6, 71, 0
9, 29880, Note_on_c, 6, 71, 100
9, 29880, Note_on_c, 6, 59, 100
9, 29880, Note_on_c, 6, 64, 100
9, 29880, Note_on_c, 6, 68, 100
9, 30000, Note_on_c, 6, 68, 0
9, 30000, Note_on_c, 6, 59, 0
9, 30000, Note_on_c, 6, 64, 0
9, 30000, Note_on_c, 6, 71, 0
9, 30000, Note_on_c, 6, 71, 100
9, 30000, Note_on_c, 6, 59, 100
9, 30000, Note_on_c, 6, 64, 100
9, 30000, Note_on_c, 6, 68, 100
9, 30060, Note_on_c, 6, 68, 0
9, 30060, Note_on_c, 6, 59, 0
9, 30060, Note_on_c, 6, 64, 0
9, 30060, Note_on_c, 6, 71, 0
9, 30060, Note_on_c, 6, 71, 100
9, 30060, Note_on_c, 6, 59, 100
9, 30060, Note_on_c, 6, 64, 100
9, 30060, Note_on_c, 6, 68, 100
9, 30180, Note_on_c, 6, 68, 0
9, 30180, Note_on_c, 6, 59, 0
9, 30180, Note_on_c, 6, 52, 0
9, 30180, Note_on_c, 6, 71, 0
9, 30180, Note_on_c, 6, 64, 0
9, 30180, Note_on_c, 6, 59, 100
9, 30180, Note_on_c, 6, 66, 100
9, 30180, Note_on_c, 6, 71, 100
9, 30300, Note_on_c, 6, 71, 0
9, 30300, Note_on_c, 6, 66, 0
9, 30300, Note_on_c, 6, 59, 0
9, 30300, Note_on_c, 6, 59, 100
9, 30300, Note_on_c, 6, 66, 100
9, 30300, Note_on_c, 6, 71, 100
9, 30360, Note_on_c, 6, 71, 0
9, 30360, Note_on_c, 6, 66, 0
9, 30360, Note_on_c, 6, 59, 0
9, 30360, Note_on_c, 6, 59, 100
9, 30360, Note_on_c, 6, 66, 100
9, 30360, Note_on_c, 6, 71, 100
9, 30480, Note_on_c, 6, 71, 0
9, 30480, Note_on_c, 6, 66, 0
9, 30480, Note_on_c, 6, 59, 0
9, 30480, Note_on_c, 6, 59, 100
9, 30480, Note_on_c, 6, 66, 100
9, 30480, Note_on_c, 6, 71, 100
9, 30540, Note_on_c, 6, 71, 0
9, 30540, Note_on_c, 6, 66, 0
9, 30540, Note_on_c, 6, 59, 0
9, 30540, Note_on_c, 6, 59, 100
9, 30540, Note_on_c, 6, 66, 100
9, 30540, Note_on_c, 6, 71, 100
9, 30660, Note_on_c, 6, 71, 0
9, 30660, Note_on_c, 6, 66, 0
9, 30660, Note_on_c, 6, 59, 0
9, 30660, Note_on_c, 6, 62, 100
9, 30660, Note_on_c, 6, 69, 100
9, 30660, Note_on_c, 6, 74, 100
9, 30780, Note_on_c, 6, 74, 0
9, 30780, Note_on_c, 6, 69, 0
9, 30780, Note_on_c, 6, 62, 0
9, 30780, Note_on_c, 6, 62, 100
9, 30780, Note_on_c, 6, 69, 100
9, 30780, Note_on_c, 6, 74, 100
9, 30840, Note_on_c, 6, 74, 0
9, 30840, Note_on_c, 6, 69, 0
9, 30840, Note_on_c, 6, 62, 0
9, 30840, Note_on_c, 6, 62, 100
9, 30840, Note_on_c, 6, 69, 100
9, 30840, Note_on_c, 6, 74, 100
9, 30900, Note_on_c, 6, 74, 0
9, 30900, Note_on_c, 6, 69, 0
9, 30900, Note_on_c, 6, 62, 0
9, 30900, Note_on_c, 6, 64, 100
9, 30900, Note_on_c, 6, 69, 100
9, 30900, Note_on_c, 6, 73, 100
9, 31020, Note_on_c, 6, 73, 0
9, 31020, Note_on_c, 6, 69, 0
9, 31020, Note_on_c, 6, 64, 0
9, 31020, Note_on_c, 6, 64, 100
9, 31020, Note_on_c, 6, 69, 100
9, 31020, Note_on_c, 6, 73, 100
9, 31080, Note_on_c, 6, 73, 0
9, 31080, Note_on_c, 6, 69, 0
9, 31080, Note_on_c, 6, 64, 0
9, 31080, Note_on_c, 6, 64, 100
9, 31080, Note_on_c, 6, 69, 100
9, 31080, Note_on_c, 6, 73, 100
9, 31140, Note_on_c, 6, 73, 0
9, 31140, Note_on_c, 6, 69, 0
9, 31140, Note_on_c, 6, 64, 0
9, 31140, Note_on_c, 6, 59, 100
9, 31140, Note_on_c, 6, 66, 100
9, 31140, Note_on_c, 6, 71, 100
9, 31260, Note_on_c, 6, 71, 0
9, 31260, Note_on_c, 6, 66, 0
9, 31260, Note_on_c, 6, 59, 0
9, 31260, Note_on_c, 6, 59, 100
9, 31260, Note_on_c, 6, 66, 100
9, 31260, Note_on_c, 6, 71, 100
9, 31320, Note_on_c, 6, 71, 0
9, 31320, Note_on_c, 6, 66, 0
9, 31320, Note_on_c, 6, 59, 0
9, 31320, Note_on_c, 6, 59, 100
9, 31320, Note_on_c, 6, 66, 100
9, 31320, Note_on_c, 6, 71, 100
9, 31380, Note_on_c, 6, 71, 0
9, 31380, Note_on_c, 6, 66, 0
9, 31380, Note_on_c, 6, 59, 0
9, 31380, Note_on_c, 6, 59, 100
9, 31380, Note_on_c, 6, 66, 100
9, 31380, Note_on_c, 6, 71, 100
9, 31500, Note_on_c, 6, 71, 0
9, 31500, Note_on_c, 6, 66, 0
9, 31500, Note_on_c, 6, 59, 0
9, 31500, Note_on_c, 6, 59, 100
9, 31500, Note_on_c, 6, 66, 100
9, 31500, Note_on_c, 6, 71, 100
9, 31560, Note_on_c, 6, 71, 0
9, 31560, Note_on_c, 6, 66, 0
9, 31560, Note_on_c, 6, 59, 0
9, 31560, Note_on_c, 6, 59, 100
9, 31560, Note_on_c, 6, 66, 100
9, 31560, Note_on_c, 6, 71, 100
9, 31620, Note_on_c, 6, 71, 0
9, 31620, Note_on_c, 6, 66, 0
9, 31620, Note_on_c, 6, 59, 0
9, 31620, Note_on_c, 6, 64, 100
9, 31620, Note_on_c, 6, 69, 100
9, 31620, Note_on_c, 6, 73, 100
9, 31740, Note_on_c, 6, 73, 0
9, 31740, Note_on_c, 6, 69, 0
9, 31740, Note_on_c, 6, 64, 0
9, 31740, Note_on_c, 6, 64, 100
9, 31740, Note_on_c, 6, 69, 100
9, 31740, Note_on_c, 6, 73, 100
9, 31800, Note_on_c, 6, 73, 0
9, 31800, Note_on_c, 6, 69, 0
9, 31800, Note_on_c, 6, 64, 0
9, 31800, Note_on_c, 6, 64, 100
9, 31800, Note_on_c, 6, 69, 100
9, 31800, Note_on_c, 6, 73, 100
9, 31860, Note_on_c, 6, 73, 0
9, 31860, Note_on_c, 6, 69, 0
9, 31860, Note_on_c, 6, 64, 0
9, 31860, Note_on_c, 6, 66, 100
9, 31860, Note_on_c, 6, 71, 100
9, 31860, Note_on_c, 6, 75, 100
9, 31980, Note_on_c, 6, 75, 0
9, 31980, Note_on_c, 6, 71, 0
9, 31980, Note_on_c, 6, 66, 0
9, 31980, Note_on_c, 6, 66, 100
9, 31980, Note_on_c, 6, 71, 100
9, 31980, Note_on_c, 6, 75, 100
9, 32040, Note_on_c, 6, 75, 0
9, 32040, Note_on_c, 6, 71, 0
9, 32040, Note_on_c, 6, 66, 0
9, 32040, Note_on_c, 6, 66, 100
9, 32040, Note_on_c, 6, 71, 100
9, 32040, Note_on_c, 6, 75, 100
9, 32160, Note_on_c, 6, 75, 0
9, 32160, Note_on_c, 6, 71, 0
9, 32160, Note_on_c, 6, 66, 0
9, 45600, Note_on_c, 6, 66, 100
9, 45600, Note_on_c, 6, 63, 100
9, 45600, Note_on_c, 6, 59, 100
9, 45600, Note_on_c, 6, 54, 100
9, 46560, Control_c, 6, 7, 70
9, 46587, Control_c, 6, 7, 69
9, 46614, Control_c, 6, 7, 68
9, 46642, Control_c, 6, 7, 67
9, 46669, Control_c, 6, 7, 66
9, 46697, Control_c, 6, 7, 65
9, 46724, Control_c, 6, 7, 64
9, 46751, Control_c, 6, 7, 63
9, 46779, Control_c, 6, 7, 62
9, 46806, Control_c, 6, 7, 61
9, 46834, Control_c, 6, 7, 60
9, 46861, Control_c, 6, 7, 59
9, 46888, Control_c, 6, 7, 58
9, 46916, Control_c, 6, 7, 57
9, 46943, Control_c, 6, 7, 56
9, 46971, Control_c, 6, 7, 55
9, 46998, Control_c, 6, 7, 54
9, 47026, Control_c, 6, 7, 53
9, 47053, Control_c, 6, 7, 52
9, 47080, Control_c, 6, 7, 51
9, 47108, Control_c, 6, 7, 50
9, 47135, Control_c, 6, 7, 49
9, 47163, Control_c, 6, 7, 48
9, 47190, Control_c, 6, 7, 47
9, 47217, Control_c, 6, 7, 46
9, 47245, Control_c, 6, 7, 45
9, 47272, Control_c, 6, 7, 44
9, 47300, Control_c, 6, 7, 43
9, 47327, Control_c, 6, 7, 42
9, 47355, Control_c, 6, 7, 41
9, 47382, Control_c, 6, 7, 40
9, 47409, Control_c, 6, 7, 39
9, 47437, Control_c, 6, 7, 38
9, 47464, Control_c, 6, 7, 37
9, 47492, Control_c, 6, 7, 36
9, 47519, Control_c, 6, 7, 35
9, 47546, Control_c, 6, 7, 34
9, 47574, Control_c, 6, 7, 33
9, 47601, Control_c, 6, 7, 32
9, 47629, Control_c, 6, 7, 31
9, 47656, Control_c, 6, 7, 30
9, 47683, Control_c, 6, 7, 29
9, 47711, Control_c, 6, 7, 28
9, 47738, Control_c, 6, 7, 27
9, 47766, Control_c, 6, 7, 26
9, 47793, Control_c, 6, 7, 25
9, 47821, Control_c, 6, 7, 24
9, 47848, Control_c, 6, 7, 23
9, 47875, Control_c, 6, 7, 22
9, 47903, Control_c, 6, 7, 21
9, 47930, Control_c, 6, 7, 20
9, 47958, Control_c, 6, 7, 19
9, 47985, Control_c, 6, 7, 18
9, 48012, Control_c, 6, 7, 17
9, 48040, Control_c, 6, 7, 16
9, 48067, Control_c, 6, 7, 15
9, 48095, Control_c, 6, 7, 14
9, 48122, Control_c, 6, 7, 13
9, 48150, Control_c, 6, 7, 12
9, 48177, Control_c, 6, 7, 11
9, 48204, Control_c, 6, 7, 10
9, 48232, Control_c, 6, 7, 9
9, 48259, Control_c, 6, 7, 8
9, 48287, Control_c, 6, 7, 7
9, 48314, Control_c, 6, 7, 6
9, 48341, Control_c, 6, 7, 5
9, 48369, Control_c, 6, 7, 4
9, 48396, Control_c, 6, 7, 3
9, 48424, Control_c, 6, 7, 2
9, 48451, Control_c, 6, 7, 1
9, 48479, Control_c, 6, 7, 0
9, 48480, Note_on_c, 6, 54, 0
9, 48480, Note_on_c, 6, 66, 0
9, 48480, Note_on_c, 6, 63, 0
9, 48480, Note_on_c, 6, 59, 0
9, 48480, End_track
10, 0, Start_track
10, 0, MIDI_port, 0
10, 0, Title_t, "Volume Guitar 2 (Graham Coxon)"
10, 0, Program_c, 7, 93
10, 0, Control_c, 7, 7, 127
10, 0, Control_c, 7, 10, 64
10, 9000, Control_c, 7, 7, 10
10, 9000, Note_on_c, 7, 64, 100
10, 9000, Note_on_c, 7, 61, 100
10, 9000, Note_on_c, 7, 57, 100
10, 9001, Control_c, 7, 7, 11
10, 9002, Control_c, 7, 7, 12
10, 9003, Control_c, 7, 7, 13
10, 9004, Control_c, 7, 7, 14
10, 9005, Control_c, 7, 7, 15
10, 9006, Control_c, 7, 7, 16
10, 9007, Control_c, 7, 7, 17
10, 9008, Control_c, 7, 7, 18
10, 9009, Control_c, 7, 7, 19
10, 9010, Control_c, 7, 7, 20
10, 9011, Control_c, 7, 7, 21
10, 9012, Control_c, 7, 7, 22
10, 9013, Control_c, 7, 7, 23
10, 9014, Control_c, 7, 7, 24
10, 9015, Control_c, 7, 7, 25
10, 9016, Control_c, 7, 7, 26
10, 9017, Control_c, 7, 7, 27
10, 9018, Control_c, 7, 7, 28
10, 9019, Control_c, 7, 7, 29
10, 9020, Control_c, 7, 7, 30
10, 9021, Control_c, 7, 7, 31
10, 9022, Control_c, 7, 7, 32
10, 9023, Control_c, 7, 7, 33
10, 9024, Control_c, 7, 7, 34
10, 9025, Control_c, 7, 7, 35
10, 9026, Control_c, 7, 7, 36
10, 9027, Control_c, 7, 7, 37
10, 9028, Control_c, 7, 7, 38
10, 9029, Control_c, 7, 7, 39
10, 9030, Control_c, 7, 7, 40
10, 9031, Control_c, 7, 7, 41
10, 9032, Control_c, 7, 7, 42
10, 9033, Control_c, 7, 7, 43
10, 9034, Control_c, 7, 7, 44
10, 9035, Control_c, 7, 7, 45
10, 9036, Control_c, 7, 7, 46
10, 9037, Control_c, 7, 7, 47
10, 9038, Control_c, 7, 7, 48
10, 9040, Control_c, 7, 7, 49
10, 9041, Control_c, 7, 7, 50
10, 9042, Control_c, 7, 7, 51
10, 9043, Control_c, 7, 7, 52
10, 9044, Control_c, 7, 7, 53
10, 9045, Control_c, 7, 7, 54
10, 9046, Control_c, 7, 7, 55
10, 9047, Control_c, 7, 7, 56
10, 9048, Control_c, 7, 7, 57
10, 9049, Control_c, 7, 7, 58
10, 9050, Control_c, 7, 7, 59
10, 9051, Control_c, 7, 7, 60
10, 9052, Control_c, 7, 7, 61
10, 9053, Control_c, 7, 7, 62
10, 9054, Control_c, 7, 7, 63
10, 9055, Control_c, 7, 7, 64
10, 9056, Control_c, 7, 7, 65
10, 9057, Control_c, 7, 7, 66
10, 9058, Control_c, 7, 7, 67
10, 9059, Control_c, 7, 7, 68
10, 9060, Control_c, 7, 7, 69
10, 9061, Control_c, 7, 7, 70
10, 9062, Control_c, 7, 7, 71
10, 9063, Control_c, 7, 7, 72
10, 9064, Control_c, 7, 7, 73
10, 9065, Control_c, 7, 7, 74
10, 9066, Control_c, 7, 7, 75
10, 9067, Control_c, 7, 7, 76
10, 9068, Control_c, 7, 7, 77
10, 9069, Control_c, 7, 7, 78
10, 9070, Control_c, 7, 7, 79
10, 9071, Control_c, 7, 7, 80
10, 9072, Control_c, 7, 7, 81
10, 9073, Control_c, 7, 7, 82
10, 9074, Control_c, 7, 7, 83
10, 9075, Control_c, 7, 7, 84
10, 9076, Control_c, 7, 7, 85
10, 9077, Control_c, 7, 7, 86
10, 9078, Control_c, 7, 7, 87
10, 9080, Control_c, 7, 7, 88
10, 9081, Control_c, 7, 7, 89
10, 9082, Control_c, 7, 7, 90
10, 9083, Control_c, 7, 7, 91
10, 9084, Control_c, 7, 7, 92
10, 9085, Control_c, 7, 7, 93
10, 9086, Control_c, 7, 7, 94
10, 9087, Control_c, 7, 7, 95
10, 9088, Control_c, 7, 7, 96
10, 9089, Control_c, 7, 7, 97
10, 9090, Control_c, 7, 7, 98
10, 9091, Control_c, 7, 7, 99
10, 9092, Control_c, 7, 7, 100
10, 9093, Control_c, 7, 7, 101
10, 9094, Control_c, 7, 7, 102
10, 9095, Control_c, 7, 7, 103
10, 9096, Control_c, 7, 7, 104
10, 9097, Control_c, 7, 7, 105
10, 9098, Control_c, 7, 7, 106
10, 9099, Control_c, 7, 7, 107
10, 9100, Control_c, 7, 7, 108
10, 9101, Control_c, 7, 7, 109
10, 9102, Control_c, 7, 7, 110
10, 9103, Control_c, 7, 7, 111
10, 9104, Control_c, 7, 7, 112
10, 9105, Control_c, 7, 7, 113
10, 9106, Control_c, 7, 7, 114
10, 9107, Control_c, 7, 7, 115
10, 9108, Control_c, 7, 7, 116
10, 9109, Control_c, 7, 7, 117
10, 9110, Control_c, 7, 7, 118
10, 9111, Control_c, 7, 7, 119
10, 9112, Control_c, 7, 7, 120
10, 9113, Control_c, 7, 7, 121
10, 9114, Control_c, 7, 7, 122
10, 9115, Control_c, 7, 7, 123
10, 9116, Control_c, 7, 7, 124
10, 9117, Control_c, 7, 7, 125
10, 9118, Control_c, 7, 7, 126
10, 9120, Control_c, 7, 7, 127
10, 9120, Control_c, 7, 7, 127
10, 9540, Note_on_c, 7, 57, 0
10, 9540, Note_on_c, 7, 61, 0
10, 9540, Note_on_c, 7, 64, 0
10, 9540, Control_c, 7, 7, 10
10, 9540, Note_on_c, 7, 59, 100
10, 9540, Note_on_c, 7, 63, 100
10, 9540, Note_on_c, 7, 66, 100
10, 9541, Control_c, 7, 7, 12
10, 9542, Control_c, 7, 7, 14
10, 9543, Control_c, 7, 7, 16
10, 9544, Control_c, 7, 7, 18
10, 9545, Control_c, 7, 7, 20
10, 9546, Control_c, 7, 7, 22
10, 9547, Control_c, 7, 7, 24
10, 9548, Control_c, 7, 7, 26
10, 9549, Control_c, 7, 7, 28
10, 9550, Control_c, 7, 7, 30
10, 9551, Control_c, 7, 7, 32
10, 9552, Control_c, 7, 7, 34
10, 9553, Control_c, 7, 7, 36
10, 9554, Control_c, 7, 7, 38
10, 9555, Control_c, 7, 7, 40
10, 9556, Control_c, 7, 7, 42
10, 9557, Control_c, 7, 7, 44
10, 9558, Control_c, 7, 7, 46
10, 9559, Control_c, 7, 7, 48
10, 9560, Control_c, 7, 7, 49
10, 9561, Control_c, 7, 7, 51
10, 9562, Control_c, 7, 7, 53
10, 9563, Control_c, 7, 7, 55
10, 9564, Control_c, 7, 7, 57
10, 9565, Control_c, 7, 7, 59
10, 9566, Control_c, 7, 7, 61
10, 9567, Control_c, 7, 7, 63
10, 9568, Control_c, 7, 7, 65
10, 9569, Control_c, 7, 7, 67
10, 9570, Control_c, 7, 7, 69
10, 9571, Control_c, 7, 7, 71
10, 9572, Control_c, 7, 7, 73
10, 9573, Control_c, 7, 7, 75
10, 9574, Control_c, 7, 7, 77
10, 9575, Control_c, 7, 7, 79
10, 9576, Control_c, 7, 7, 81
10, 9577, Control_c, 7, 7, 83
10, 9578, Control_c, 7, 7, 85
10, 9579, Control_c, 7, 7, 87
10, 9580, Control_c, 7, 7, 88
10, 9581, Control_c, 7, 7, 90
10, 9582, Control_c, 7, 7, 92
10, 9583, Control_c, 7, 7, 94
10, 9584, Control_c, 7, 7, 96
10, 9585, Control_c, 7, 7, 98
10, 9586, Control_c, 7, 7, 100
10, 9587, Control_c, 7, 7, 102
10, 9588, Control_c, 7, 7, 104
10, 9589, Control_c, 7, 7, 106
10, 9590, Control_c, 7, 7, 108
10, 9591, Control_c, 7, 7, 110
10, 9592, Control_c, 7, 7, 112
10, 9593, Control_c, 7, 7, 114
10, 9594, Control_c, 7, 7, 116
10, 9595, Control_c, 7, 7, 118
10, 9596, Control_c, 7, 7, 120
10, 9597, Control_c, 7, 7, 122
10, 9598, Control_c, 7, 7, 124
10, 9599, Control_c, 7, 7, 126
10, 9600, Control_c, 7, 7, 127
10, 10080, Note_on_c, 7, 66, 0
10, 10080, Note_on_c, 7, 63, 0
10, 10080, Note_on_c, 7, 59, 0
10, 21000, Control_c, 7, 7, 10
10, 21000, Note_on_c, 7, 64, 100
10, 21000, Note_on_c, 7, 61, 100
10, 21000, Note_on_c, 7, 57, 100
10, 21001, Control_c, 7, 7, 11
10, 21002, Control_c, 7, 7, 12
10, 21003, Control_c, 7, 7, 13
10, 21004, Control_c, 7, 7, 14
10, 21005, Control_c, 7, 7, 15
10, 21006, Control_c, 7, 7, 16
10, 21007, Control_c, 7, 7, 17
10, 21008, Control_c, 7, 7, 18
10, 21009, Control_c, 7, 7, 19
10, 21010, Control_c, 7, 7, 20
10, 21011, Control_c, 7, 7, 21
10, 21012, Control_c, 7, 7, 22
10, 21013, Control_c, 7, 7, 23
10, 21014, Control_c, 7, 7, 24
10, 21015, Control_c, 7, 7, 25
10, 21016, Control_c, 7, 7, 26
10, 21017, Control_c, 7, 7, 27
10, 21018, Control_c, 7, 7, 28
10, 21019, Control_c, 7, 7, 29
10, 21020, Control_c, 7, 7, 30
10, 21021, Control_c, 7, 7, 31
10, 21022, Control_c, 7, 7, 32
10, 21023, Control_c, 7, 7, 33
10, 21024, Control_c, 7, 7, 34
10, 21025, Control_c, 7, 7, 35
10, 21026, Control_c, 7, 7, 36
10, 21027, Control_c, 7, 7, 37
10, 21028, Control_c, 7, 7, 38
10, 21029, Control_c, 7, 7, 39
10, 21030, Control_c, 7, 7, 40
10, 21031, Control_c, 7, 7, 41
10, 21032, Control_c, 7, 7, 42
10, 21033, Control_c, 7, 7, 43
10, 21034, Control_c, 7, 7, 44
10, 21035, Control_c, 7, 7, 45
10, 21036, Control_c, 7, 7, 46
10, 21037, Control_c, 7, 7, 47
10, 21038, Control_c, 7, 7, 48
10, 21040, Control_c, 7, 7, 49
10, 21041, Control_c, 7, 7, 50
10, 21042, Control_c, 7, 7, 51
10, 21043, Control_c, 7, 7, 52
10, 21044, Control_c, 7, 7, 53
10, 21045, Control_c, 7, 7, 54
10, 21046, Control_c, 7, 7, 55
10, 21047, Control_c, 7, 7, 56
10, 21048, Control_c, 7, 7, 57
10, 21049, Control_c, 7, 7, 58
10, 21050, Control_c, 7, 7, 59
10, 21051, Control_c, 7, 7, 60
10, 21052, Control_c, 7, 7, 61
10, 21053, Control_c, 7, 7, 62
10, 21054, Control_c, 7, 7, 63
10, 21055, Control_c, 7, 7, 64
10, 21056, Control_c, 7, 7, 65
10, 21057, Control_c, 7, 7, 66
10, 21058, Control_c, 7, 7, 67
10, 21059, Control_c, 7, 7, 68
10, 21060, Control_c, 7, 7, 69
10, 21061, Control_c, 7, 7, 70
10, 21062, Control_c, 7, 7, 71
10, 21063, Control_c, 7, 7, 72
10, 21064, Control_c, 7, 7, 73
10, 21065, Control_c, 7, 7, 74
10, 21066, Control_c, 7, 7, 75
10, 21067, Control_c, 7, 7, 76
10, 21068, Control_c, 7, 7, 77
10, 21069, Control_c, 7, 7, 78
10, 21070, Control_c, 7, 7, 79
10, 21071, Control_c, 7, 7, 80
10, 21072, Control_c, 7, 7, 81
10, 21073, Control_c, 7, 7, 82
10, 21074, Control_c, 7, 7, 83
10, 21075, Control_c, 7, 7, 84
10, 21076, Control_c, 7, 7, 85
10, 21077, Control_c, 7, 7, 86
10, 21078, Control_c, 7, 7, 87
10, 21080, Control_c, 7, 7, 88
10, 21081, Control_c, 7, 7, 89
10, 21082, Control_c, 7, 7, 90
10, 21083, Control_c, 7, 7, 91
10, 21084, Control_c, 7, 7, 92
10, 21085, Control_c, 7, 7, 93
10, 21086, Control_c, 7, 7, 94
10, 21087, Control_c, 7, 7, 95
10, 21088, Control_c, 7, 7, 96
10, 21089, Control_c, 7, 7, 97
10, 21090, Control_c, 7, 7, 98
10, 21091, Control_c, 7, 7, 99
10, 21092, Control_c, 7, 7, 100
10, 21093, Control_c, 7, 7, 101
10, 21094, Control_c, 7, 7, 102
10, 21095, Control_c, 7, 7, 103
10, 21096, Control_c, 7, 7, 104
10, 21097, Control_c, 7, 7, 105
10, 21098, Control_c, 7, 7, 106
10, 21099, Control_c, 7, 7, 107
10, 21100, Control_c, 7, 7, 108
10, 21101, Control_c, 7, 7, 109
10, 21102, Control_c, 7, 7, 110
10, 21103, Control_c, 7, 7, 111
10, 21104, Control_c, 7, 7, 112
10, 21105, Control_c, 7, 7, 113
10, 21106, Control_c, 7, 7, 114
10, 21107, Control_c, 7, 7, 115
10, 21108, Control_c, 7, 7, 116
10, 21109, Control_c, 7, 7, 117
10, 21110, Control_c, 7, 7, 118
10, 21111, Control_c, 7, 7, 119
10, 21112, Control_c, 7, 7, 120
10, 21113, Control_c, 7, 7, 121
10, 21114, Control_c, 7, 7, 122
10, 21115, Control_c, 7, 7, 123
10, 21116, Control_c, 7, 7, 124
10, 21117, Control_c, 7, 7, 125
10, 21118, Control_c, 7, 7, 126
10, 21120, Control_c, 7, 7, 127
10, 21120, Control_c, 7, 7, 127
10, 21540, Note_on_c, 7, 57, 0
10, 21540, Note_on_c, 7, 61, 0
10, 21540, Note_on_c, 7, 64, 0
10, 21540, Control_c, 7, 7, 10
10, 21540, Note_on_c, 7, 59, 100
10, 21540, Note_on_c, 7, 63, 100
10, 21540, Note_on_c, 7, 66, 100
10, 21541, Control_c, 7, 7, 12
10, 21542, Control_c, 7, 7, 14
10, 21543, Control_c, 7, 7, 16
10, 21544, Control_c, 7, 7, 18
10, 21545, Control_c, 7, 7, 20
10, 21546, Control_c, 7, 7, 22
10, 21547, Control_c, 7, 7, 24
10, 21548, Control_c, 7, 7, 26
10, 21549, Control_c, 7, 7, 28
10, 21550, Control_c, 7, 7, 30
10, 21551, Control_c, 7, 7, 32
10, 21552, Control_c, 7, 7, 34
10, 21553, Control_c, 7, 7, 36
10, 21554, Control_c, 7, 7, 38
10, 21555, Control_c, 7, 7, 40
10, 21556, Control_c, 7, 7, 42
10, 21557, Control_c, 7, 7, 44
10, 21558, Control_c, 7, 7, 46
10, 21559, Control_c, 7, 7, 48
10, 21560, Control_c, 7, 7, 49
10, 21561, Control_c, 7, 7, 51
10, 21562, Control_c, 7, 7, 53
10, 21563, Control_c, 7, 7, 55
10, 21564, Control_c, 7, 7, 57
10, 21565, Control_c, 7, 7, 59
10, 21566, Control_c, 7, 7, 61
10, 21567, Control_c, 7, 7, 63
10, 21568, Control_c, 7, 7, 65
10, 21569, Control_c, 7, 7, 67
10, 21570, Control_c, 7, 7, 69
10, 21571, Control_c, 7, 7, 71
10, 21572, Control_c, 7, 7, 73
10, 21573, Control_c, 7, 7, 75
10, 21574, Control_c, 7, 7, 77
10, 21575, Control_c, 7, 7, 79
10, 21576, Control_c, 7, 7, 81
10, 21577, Control_c, 7, 7, 83
10, 21578, Control_c, 7, 7, 85
10, 21579, Control_c, 7, 7, 87
10, 21580, Control_c, 7, 7, 88
10, 21581, Control_c, 7, 7, 90
10, 21582, Control_c, 7, 7, 92
10, 21583, Control_c, 7, 7, 94
10, 21584, Control_c, 7, 7, 96
10, 21585, Control_c, 7, 7, 98
10, 21586, Control_c, 7, 7, 100
10, 21587, Control_c, 7, 7, 102
10, 21588, Control_c, 7, 7, 104
10, 21589, Control_c, 7, 7, 106
10, 21590, Control_c, 7, 7, 108
10, 21591, Control_c, 7, 7, 110
10, 21592, Control_c, 7, 7, 112
10, 21593, Control_c, 7, 7, 114
10, 21594, Control_c, 7, 7, 116
10, 21595, Control_c, 7, 7, 118
10, 21596, Control_c, 7, 7, 120
10, 21597, Control_c, 7, 7, 122
10, 21598, Control_c, 7, 7, 124
10, 21599, Control_c, 7, 7, 126
10, 21600, Control_c, 7, 7, 127
10, 22080, Note_on_c, 7, 66, 0
10, 22080, Note_on_c, 7, 63, 0
10, 22080, Note_on_c, 7, 59, 0
10, 22080, End_track
11, 0, Start_track
11, 0, MIDI_port, 0
11, 0, Title_t, "Electric Guitar (Graham Coxon)"
11, 0, Program_c, 8, 27
11, 0, Control_c, 8, 7, 80
11, 0, Control_c, 8, 10, 64
11, 0, Program_c, 8, 27
11, 10080, Note_on_c, 8, 47, 127
11, 10080, Note_on_c, 8, 40, 127
11, 10200, Note_on_c, 8, 40, 0
11, 10200, Note_on_c, 8, 47, 0
11, 10200, Note_on_c, 8, 47, 127
11, 10200, Note_on_c, 8, 40, 127
11, 10320, Note_on_c, 8, 40, 0
11, 10320, Note_on_c, 8, 47, 0
11, 10320, Note_on_c, 8, 47, 127
11, 10320, Note_on_c, 8, 40, 127
11, 10380, Note_on_c, 8, 40, 0
11, 10380, Note_on_c, 8, 47, 0
11, 10380, Note_on_c, 8, 54, 127
11, 10380, Note_on_c, 8, 47, 127
11, 10500, Note_on_c, 8, 47, 0
11, 10500, Note_on_c, 8, 54, 0
11, 10500, Note_on_c, 8, 56, 127
11, 10500, Note_on_c, 8, 49, 127
11, 10620, Note_on_c, 8, 49, 0
11, 10620, Note_on_c, 8, 56, 0
11, 10620, Note_on_c, 8, 56, 127
11, 10620, Note_on_c, 8, 49, 127
11, 10680, Note_on_c, 8, 49, 0
11, 10680, Note_on_c, 8, 56, 0
11, 10680, Note_on_c, 8, 56, 127
11, 10680, Note_on_c, 8, 49, 127
11, 10800, Note_on_c, 8, 49, 0
11, 10800, Note_on_c, 8, 56, 0
11, 10800, Note_on_c, 8, 56, 127
11, 10800, Note_on_c, 8, 49, 127
11, 10860, Note_on_c, 8, 49, 0
11, 10860, Note_on_c, 8, 56, 0
11, 10860, Note_on_c, 8, 54, 127
11, 10860, Note_on_c, 8, 47, 127
11, 10980, Note_on_c, 8, 47, 0
11, 10980, Note_on_c, 8, 54, 0
11, 10980, Note_on_c, 8, 52, 127
11, 10980, Note_on_c, 8, 45, 127
11, 11040, Note_on_c, 8, 45, 0
11, 11040, Note_on_c, 8, 52, 0
11, 11040, Note_on_c, 8, 52, 127
11, 11040, Note_on_c, 8, 45, 127
11, 11160, Note_on_c, 8, 45, 0
11, 11160, Note_on_c, 8, 52, 0
11, 11160, Note_on_c, 8, 52, 127
11, 11160, Note_on_c, 8, 45, 127
11, 11280, Note_on_c, 8, 45, 0
11, 11280, Note_on_c, 8, 52, 0
11, 11280, Note_on_c, 8, 52, 127
11, 11280, Note_on_c, 8, 45, 127
11, 11340, Note_on_c, 8, 45, 0
11, 11340, Note_on_c, 8, 52, 0
11, 11340, Note_on_c, 8, 52, 127
11, 11340, Note_on_c, 8, 45, 127
11, 11460, Note_on_c, 8, 45, 0
11, 11460, Note_on_c, 8, 52, 0
11, 11460, Note_on_c, 8, 52, 127
11, 11460, Note_on_c, 8, 45, 127
11, 11520, Note_on_c, 8, 45, 0
11, 11520, Note_on_c, 8, 52, 0
11, 11520, Note_on_c, 8, 49, 127
11, 11520, Note_on_c, 8, 42, 127
11, 11640, Note_on_c, 8, 42, 0
11, 11640, Note_on_c, 8, 49, 0
11, 11640, Note_on_c, 8, 49, 127
11, 11640, Note_on_c, 8, 42, 127
11, 11700, Note_on_c, 8, 42, 0
11, 11700, Note_on_c, 8, 49, 0
11, 11700, Note_on_c, 8, 49, 127
11, 11700, Note_on_c, 8, 42, 127
11, 11820, Note_on_c, 8, 42, 0
11, 11820, Note_on_c, 8, 49, 0
11, 11820, Note_on_c, 8, 49, 127
11, 11820, Note_on_c, 8, 42, 127
11, 11880, Note_on_c, 8, 42, 0
11, 11880, Note_on_c, 8, 49, 0
11, 11880, Note_on_c, 8, 49, 127
11, 11880, Note_on_c, 8, 42, 127
11, 11940, Note_on_c, 8, 42, 0
11, 11940, Note_on_c, 8, 49, 0
11, 11940, Note_on_c, 8, 49, 127
11, 11940, Note_on_c, 8, 42, 127
11, 11940, Control_c, 8, 6, 32
11, 11970, Pitch_bend_c, 8, 8448
11, 11980, Pitch_bend_c, 8, 8704
11, 11990, Pitch_bend_c, 8, 8960
11, 12000, Note_on_c, 8, 42, 0
11, 12000, Note_on_c, 8, 49, 0
11, 12000, Pitch_bend_c, 8, 8192
11, 12000, Pitch_bend_c, 8, 8192
11, 12000, Note_on_c, 8, 56, 127
11, 12000, Note_on_c, 8, 49, 127
11, 12120, Note_on_c, 8, 49, 0
11, 12120, Note_on_c, 8, 56, 0
11, 12120, Note_on_c, 8, 56, 127
11, 12120, Note_on_c, 8, 49, 127
11, 12240, Note_on_c, 8, 49, 0
11, 12240, Note_on_c, 8, 56, 0
11, 12240, Note_on_c, 8, 56, 127
11, 12240, Note_on_c, 8, 49, 127
11, 12300, Note_on_c, 8, 49, 0
11, 12300, Note_on_c, 8, 56, 0
11, 12300, Note_on_c, 8, 56, 127
11, 12300, Note_on_c, 8, 49, 127
11, 12360, Note_on_c, 8, 49, 0
11, 12360, Note_on_c, 8, 56, 0
11, 12360, Note_on_c, 8, 52, 127
11, 12360, Note_on_c, 8, 45, 127
11, 12420, Note_on_c, 8, 45, 0
11, 12420, Note_on_c, 8, 52, 0
11, 12420, Note_on_c, 8, 54, 127
11, 12420, Note_on_c, 8, 47, 127
11, 12540, Note_on_c, 8, 47, 0
11, 12540, Note_on_c, 8, 54, 0
11, 12540, Note_on_c, 8, 54, 127
11, 12540, Note_on_c, 8, 47, 127
11, 12600, Note_on_c, 8, 47, 0
11, 12600, Note_on_c, 8, 54, 0
11, 12600, Note_on_c, 8, 54, 127
11, 12600, Note_on_c, 8, 47, 127
11, 12720, Note_on_c, 8, 47, 0
11, 12720, Note_on_c, 8, 54, 0
11, 12720, Note_on_c, 8, 54, 127
11, 12720, Note_on_c, 8, 47, 127
11, 12780, Note_on_c, 8, 47, 0
11, 12780, Note_on_c, 8, 54, 0
11, 12780, Note_on_c, 8, 54, 127
11, 12780, Note_on_c, 8, 47, 127
11, 12900, Note_on_c, 8, 47, 0
11, 12900, Note_on_c, 8, 54, 0
11, 12900, Note_on_c, 8, 54, 127
11, 12900, Note_on_c, 8, 47, 127
11, 12930, Note_on_c, 8, 47, 0
11, 12930, Note_on_c, 8, 54, 0
11, 12930, Note_on_c, 8, 54, 127
11, 12930, Note_on_c, 8, 47, 127
11, 12960, Note_on_c, 8, 47, 0
11, 12960, Note_on_c, 8, 54, 0
11, 12960, Note_on_c, 8, 56, 127
11, 12960, Note_on_c, 8, 49, 127
11, 13080, Note_on_c, 8, 49, 0
11, 13080, Note_on_c, 8, 56, 0
11, 13080, Note_on_c, 8, 56, 127
11, 13080, Note_on_c, 8, 49, 127
11, 13200, Note_on_c, 8, 49, 0
11, 13200, Note_on_c, 8, 56, 0
11, 13200, Note_on_c, 8, 56, 127
11, 13200, Note_on_c, 8, 49, 127
11, 13260, Note_on_c, 8, 49, 0
11, 13260, Note_on_c, 8, 56, 0
11, 13260, Note_on_c, 8, 52, 127
11, 13260, Note_on_c, 8, 45, 127
11, 13380, Note_on_c, 8, 45, 0
11, 13380, Note_on_c, 8, 52, 0
11, 13380, Note_on_c, 8, 54, 127
11, 13380, Note_on_c, 8, 47, 127
11, 13500, Note_on_c, 8, 47, 0
11, 13500, Note_on_c, 8, 54, 0
11, 13500, Note_on_c, 8, 54, 127
11, 13500, Note_on_c, 8, 47, 127
11, 13560, Note_on_c, 8, 47, 0
11, 13560, Note_on_c, 8, 54, 0
11, 13560, Note_on_c, 8, 54, 127
11, 13560, Note_on_c, 8, 47, 127
11, 13620, Note_on_c, 8, 47, 0
11, 13620, Note_on_c, 8, 54, 0
11, 13620, Note_on_c, 8, 57, 127
11, 13620, Note_on_c, 8, 50, 127
11, 13740, Note_on_c, 8, 50, 0
11, 13740, Note_on_c, 8, 57, 0
11, 13740, Note_on_c, 8, 57, 127
11, 13740, Note_on_c, 8, 50, 127
11, 13800, Note_on_c, 8, 50, 0
11, 13800, Note_on_c, 8, 57, 0
11, 13800, Note_on_c, 8, 57, 127
11, 13800, Note_on_c, 8, 50, 127
11, 13860, Note_on_c, 8, 50, 0
11, 13860, Note_on_c, 8, 57, 0
11, 13860, Note_on_c, 8, 57, 127
11, 13860, Note_on_c, 8, 50, 127
11, 13920, Note_on_c, 8, 50, 0
11, 13920, Note_on_c, 8, 57, 0
11, 13920, Note_on_c, 8, 59, 127
11, 13920, Note_on_c, 8, 52, 127
11, 14040, Note_on_c, 8, 52, 0
11, 14040, Note_on_c, 8, 59, 0
11, 14040, Note_on_c, 8, 59, 127
11, 14040, Note_on_c, 8, 52, 127
11, 14160, Note_on_c, 8, 52, 0
11, 14160, Note_on_c, 8, 59, 0
11, 14160, Note_on_c, 8, 59, 127
11, 14160, Note_on_c, 8, 52, 127
11, 14220, Note_on_c, 8, 52, 0
11, 14220, Note_on_c, 8, 59, 0
11, 14220, Note_on_c, 8, 59, 127
11, 14220, Note_on_c, 8, 52, 127
11, 14340, Note_on_c, 8, 52, 0
11, 14340, Note_on_c, 8, 59, 0
11, 14340, Note_on_c, 8, 54, 127
11, 14340, Note_on_c, 8, 47, 127
11, 14460, Note_on_c, 8, 47, 0
11, 14460, Note_on_c, 8, 54, 0
11, 14460, Note_on_c, 8, 54, 127
11, 14460, Note_on_c, 8, 47, 127
11, 14520, Note_on_c, 8, 47, 0
11, 14520, Note_on_c, 8, 54, 0
11, 14520, Note_on_c, 8, 54, 127
11, 14520, Note_on_c, 8, 47, 127
11, 14640, Note_on_c, 8, 47, 0
11, 14640, Note_on_c, 8, 54, 0
11, 14640, Note_on_c, 8, 54, 127
11, 14640, Note_on_c, 8, 47, 127
11, 14700, Note_on_c, 8, 47, 0
11, 14700, Note_on_c, 8, 54, 0
11, 14700, Note_on_c, 8, 54, 127
11, 14700, Note_on_c, 8, 47, 127
11, 14700, Control_c, 8, 6, 32
11, 14730, Pitch_bend_c, 8, 8448
11, 14730, Pitch_bend_c, 8, 8448
11, 14737, Pitch_bend_c, 8, 8704
11, 14737, Pitch_bend_c, 8, 8704
11, 14745, Pitch_bend_c, 8, 8960
11, 14745, Pitch_bend_c, 8, 8960
11, 14752, Pitch_bend_c, 8, 9216
11, 14752, Pitch_bend_c, 8, 9216
11, 14760, Note_on_c, 8, 47, 0
11, 14760, Note_on_c, 8, 54, 0
11, 14760, Pitch_bend_c, 8, 8192
11, 14760, Pitch_bend_c, 8, 8192
11, 14760, Note_on_c, 8, 59, 127
11, 14760, Note_on_c, 8, 52, 127
11, 14820, Note_on_c, 8, 52, 0
11, 14820, Note_on_c, 8, 59, 0
11, 14820, Note_on_c, 8, 57, 127
11, 14820, Note_on_c, 8, 50, 127
11, 14940, Note_on_c, 8, 50, 0
11, 14940, Note_on_c, 8, 57, 0
11, 14940, Note_on_c, 8, 57, 127
11, 14940, Note_on_c, 8, 50, 127
11, 15000, Note_on_c, 8, 50, 0
11, 15000, Note_on_c, 8, 57, 0
11, 15000, Note_on_c, 8, 57, 127
11, 15000, Note_on_c, 8, 50, 127
11, 15060, Note_on_c, 8, 50, 0
11, 15060, Note_on_c, 8, 57, 0
11, 15060, Note_on_c, 8, 52, 127
11, 15060, Note_on_c, 8, 45, 127
11, 15180, Note_on_c, 8, 45, 0
11, 15180, Note_on_c, 8, 52, 0
11, 15180, Note_on_c, 8, 52, 127
11, 15180, Note_on_c, 8, 45, 127
11, 15240, Note_on_c, 8, 45, 0
11, 15240, Note_on_c, 8, 52, 0
11, 15240, Note_on_c, 8, 52, 127
11, 15240, Note_on_c, 8, 45, 127
11, 15300, Note_on_c, 8, 45, 0
11, 15300, Note_on_c, 8, 52, 0
11, 15300, Note_on_c, 8, 54, 127
11, 15300, Note_on_c, 8, 47, 127
11, 15420, Note_on_c, 8, 47, 0
11, 15420, Note_on_c, 8, 54, 0
11, 15420, Note_on_c, 8, 54, 127
11, 15420, Note_on_c, 8, 47, 127
11, 15480, Note_on_c, 8, 47, 0
11, 15480, Note_on_c, 8, 54, 0
11, 15480, Note_on_c, 8, 54, 127
11, 15480, Note_on_c, 8, 47, 127
11, 15540, Note_on_c, 8, 47, 0
11, 15540, Note_on_c, 8, 54, 0
11, 15540, Note_on_c, 8, 54, 127
11, 15540, Note_on_c, 8, 47, 127
11, 15660, Note_on_c, 8, 47, 0
11, 15660, Note_on_c, 8, 54, 0
11, 15660, Note_on_c, 8, 54, 127
11, 15660, Note_on_c, 8, 47, 127
11, 15720, Note_on_c, 8, 47, 0
11, 15720, Note_on_c, 8, 54, 0
11, 15720, Note_on_c, 8, 54, 127
11, 15720, Note_on_c, 8, 47, 127
11, 15720, Control_c, 8, 6, 32
11, 15750, Pitch_bend_c, 8, 7936
11, 15750, Pitch_bend_c, 8, 7936
11, 15757, Pitch_bend_c, 8, 7680
11, 15757, Pitch_bend_c, 8, 7680
11, 15765, Pitch_bend_c, 8, 7424
11, 15765, Pitch_bend_c, 8, 7424
11, 15772, Pitch_bend_c, 8, 7168
11, 15772, Pitch_bend_c, 8, 7168
11, 15780, Note_on_c, 8, 47, 0
11, 15780, Note_on_c, 8, 54, 0
11, 15780, Pitch_bend_c, 8, 8192
11, 15780, Pitch_bend_c, 8, 8192
11, 15780, Note_on_c, 8, 49, 127
11, 15780, Note_on_c, 8, 42, 127
11, 15900, Note_on_c, 8, 42, 0
11, 15900, Note_on_c, 8, 49, 0
11, 15900, Note_on_c, 8, 49, 127
11, 15900, Note_on_c, 8, 42, 127
11, 15960, Note_on_c, 8, 42, 0
11, 15960, Note_on_c, 8, 49, 0
11, 15960, Note_on_c, 8, 49, 127
11, 15960, Note_on_c, 8, 42, 127
11, 16020, Note_on_c, 8, 42, 0
11, 16020, Note_on_c, 8, 49, 0
11, 16020, Note_on_c, 8, 54, 127
11, 16020, Note_on_c, 8, 47, 127
11, 16140, Note_on_c, 8, 47, 0
11, 16140, Note_on_c, 8, 54, 0
11, 16140, Note_on_c, 8, 54, 127
11, 16140, Note_on_c, 8, 47, 127
11, 16200, Note_on_c, 8, 47, 0
11, 16200, Note_on_c, 8, 54, 0
11, 16200, Note_on_c, 8, 54, 127
11, 16200, Note_on_c, 8, 47, 127
11, 16260, Note_on_c, 8, 47, 0
11, 16260, Note_on_c, 8, 54, 0
11, 16260, Note_on_c, 8, 54, 127
11, 16260, Note_on_c, 8, 47, 127
11, 16320, Note_on_c, 8, 47, 0
11, 16320, Note_on_c, 8, 54, 0
11, 16320, Note_on_c, 8, 47, 127
11, 16320, Note_on_c, 8, 40, 127
11, 16800, Note_on_c, 8, 40, 0
11, 16800, Note_on_c, 8, 47, 0
11, 22080, Note_on_c, 8, 47, 127
11, 22080, Note_on_c, 8, 40, 127
11, 22200, Note_on_c, 8, 40, 0
11, 22200, Note_on_c, 8, 47, 0
11, 22200, Note_on_c, 8, 47, 127
11, 22200, Note_on_c, 8, 40, 127
11, 22320, Note_on_c, 8, 40, 0
11, 22320, Note_on_c, 8, 47, 0
11, 22320, Note_on_c, 8, 47, 127
11, 22320, Note_on_c, 8, 40, 127
11, 22380, Note_on_c, 8, 40, 0
11, 22380, Note_on_c, 8, 47, 0
11, 22380, Note_on_c, 8, 54, 127
11, 22380, Note_on_c, 8, 47, 127
11, 22500, Note_on_c, 8, 47, 0
11, 22500, Note_on_c, 8, 54, 0
11, 22500, Note_on_c, 8, 56, 127
11, 22500, Note_on_c, 8, 49, 127
11, 22620, Note_on_c, 8, 49, 0
11, 22620, Note_on_c, 8, 56, 0
11, 22620, Note_on_c, 8, 56, 127
11, 22620, Note_on_c, 8, 49, 127
11, 22680, Note_on_c, 8, 49, 0
11, 22680, Note_on_c, 8, 56, 0
11, 22680, Note_on_c, 8, 56, 127
11, 22680, Note_on_c, 8, 49, 127
11, 22800, Note_on_c, 8, 49, 0
11, 22800, Note_on_c, 8, 56, 0
11, 22800, Note_on_c, 8, 56, 127
11, 22800, Note_on_c, 8, 49, 127
11, 22860, Note_on_c, 8, 49, 0
11, 22860, Note_on_c, 8, 56, 0
11, 22860, Note_on_c, 8, 54, 127
11, 22860, Note_on_c, 8, 47, 127
11, 22980, Note_on_c, 8, 47, 0
11, 22980, Note_on_c, 8, 54, 0
11, 22980, Note_on_c, 8, 52, 127
11, 22980, Note_on_c, 8, 45, 127
11, 23040, Note_on_c, 8, 45, 0
11, 23040, Note_on_c, 8, 52, 0
11, 23040, Note_on_c, 8, 52, 127
11, 23040, Note_on_c, 8, 45, 127
11, 23160, Note_on_c, 8, 45, 0
11, 23160, Note_on_c, 8, 52, 0
11, 23160, Note_on_c, 8, 52, 127
11, 23160, Note_on_c, 8, 45, 127
11, 23280, Note_on_c, 8, 45, 0
11, 23280, Note_on_c, 8, 52, 0
11, 23280, Note_on_c, 8, 52, 127
11, 23280, Note_on_c, 8, 45, 127
11, 23340, Note_on_c, 8, 45, 0
11, 23340, Note_on_c, 8, 52, 0
11, 23340, Note_on_c, 8, 52, 127
11, 23340, Note_on_c, 8, 45, 127
11, 23460, Note_on_c, 8, 45, 0
11, 23460, Note_on_c, 8, 52, 0
11, 23460, Note_on_c, 8, 52, 127
11, 23460, Note_on_c, 8, 45, 127
11, 23520, Note_on_c, 8, 45, 0
11, 23520, Note_on_c, 8, 52, 0
11, 23520, Note_on_c, 8, 49, 127
11, 23520, Note_on_c, 8, 42, 127
11, 23640, Note_on_c, 8, 42, 0
11, 23640, Note_on_c, 8, 49, 0
11, 23640, Note_on_c, 8, 49, 127
11, 23640, Note_on_c, 8, 42, 127
11, 23700, Note_on_c, 8, 42, 0
11, 23700, Note_on_c, 8, 49, 0
11, 23700, Note_on_c, 8, 49, 127
11, 23700, Note_on_c, 8, 42, 127
11, 23820, Note_on_c, 8, 42, 0
11, 23820, Note_on_c, 8, 49, 0
11, 23820, Note_on_c, 8, 49, 127
11, 23820, Note_on_c, 8, 42, 127
11, 23880, Note_on_c, 8, 42, 0
11, 23880, Note_on_c, 8, 49, 0
11, 23880, Note_on_c, 8, 49, 127
11, 23880, Note_on_c, 8, 42, 127
11, 23940, Note_on_c, 8, 42, 0
11, 23940, Note_on_c, 8, 49, 0
11, 23940, Note_on_c, 8, 49, 127
11, 23940, Note_on_c, 8, 42, 127
11, 23940, Control_c, 8, 6, 32
11, 23970, Pitch_bend_c, 8, 8448
11, 23970, Pitch_bend_c, 8, 8448
11, 23975, Pitch_bend_c, 8, 8704
11, 23975, Pitch_bend_c, 8, 8704
11, 23980, Pitch_bend_c, 8, 8960
11, 23980, Pitch_bend_c, 8, 8960
11, 23985, Pitch_bend_c, 8, 9216
11, 23985, Pitch_bend_c, 8, 9216
11, 23990, Pitch_bend_c, 8, 9472
11, 23990, Pitch_bend_c, 8, 9472
11, 23995, Pitch_bend_c, 8, 9728
11, 23995, Pitch_bend_c, 8, 9728
11, 24000, Note_on_c, 8, 42, 0
11, 24000, Note_on_c, 8, 49, 0
11, 24000, Pitch_bend_c, 8, 8192
11, 24000, Pitch_bend_c, 8, 8192
11, 24000, Note_on_c, 8, 56, 127
11, 24000, Note_on_c, 8, 49, 127
11, 24120, Note_on_c, 8, 49, 0
11, 24120, Note_on_c, 8, 56, 0
11, 24120, Note_on_c, 8, 56, 127
11, 24120, Note_on_c, 8, 49, 127
11, 24240, Note_on_c, 8, 49, 0
11, 24240, Note_on_c, 8, 56, 0
11, 24240, Note_on_c, 8, 56, 127
11, 24240, Note_on_c, 8, 49, 127
11, 24300, Note_on_c, 8, 49, 0
11, 24300, Note_on_c, 8, 56, 0
11, 24300, Note_on_c, 8, 56, 127
11, 24300, Note_on_c, 8, 49, 127
11, 24360, Note_on_c, 8, 49, 0
11, 24360, Note_on_c, 8, 56, 0
11, 24360, Note_on_c, 8, 52, 127
11, 24360, Note_on_c, 8, 45, 127
11, 24420, Note_on_c, 8, 45, 0
11, 24420, Note_on_c, 8, 52, 0
11, 24420, Note_on_c, 8, 54, 127
11, 24420, Note_on_c, 8, 47, 127
11, 24540, Note_on_c, 8, 47, 0
11, 24540, Note_on_c, 8, 54, 0
11, 24540, Note_on_c, 8, 54, 127
11, 24540, Note_on_c, 8, 47, 127
11, 24600, Note_on_c, 8, 47, 0
11, 24600, Note_on_c, 8, 54, 0
11, 24600, Note_on_c, 8, 54, 127
11, 24600, Note_on_c, 8, 47, 127
11, 24720, Note_on_c, 8, 47, 0
11, 24720, Note_on_c, 8, 54, 0
11, 24720, Note_on_c, 8, 54, 127
11, 24720, Note_on_c, 8, 47, 127
11, 24780, Note_on_c, 8, 47, 0
11, 24780, Note_on_c, 8, 54, 0
11, 24780, Note_on_c, 8, 54, 127
11, 24780, Note_on_c, 8, 47, 127
11, 24900, Note_on_c, 8, 47, 0
11, 24900, Note_on_c, 8, 54, 0
11, 24900, Note_on_c, 8, 54, 127
11, 24900, Note_on_c, 8, 47, 127
11, 24930, Note_on_c, 8, 47, 0
11, 24930, Note_on_c, 8, 54, 0
11, 24930, Note_on_c, 8, 54, 127
11, 24930, Note_on_c, 8, 47, 127
11, 24960, Note_on_c, 8, 47, 0
11, 24960, Note_on_c, 8, 54, 0
11, 24960, Note_on_c, 8, 56, 127
11, 24960, Note_on_c, 8, 49, 127
11, 25080, Note_on_c, 8, 49, 0
11, 25080, Note_on_c, 8, 56, 0
11, 25080, Note_on_c, 8, 56, 127
11, 25080, Note_on_c, 8, 49, 127
11, 25200, Note_on_c, 8, 49, 0
11, 25200, Note_on_c, 8, 56, 0
11, 25200, Note_on_c, 8, 56, 127
11, 25200, Note_on_c, 8, 49, 127
11, 25260, Note_on_c, 8, 49, 0
11, 25260, Note_on_c, 8, 56, 0
11, 25260, Note_on_c, 8, 52, 127
11, 25260, Note_on_c, 8, 45, 127
11, 25380, Note_on_c, 8, 45, 0
11, 25380, Note_on_c, 8, 52, 0
11, 25380, Note_on_c, 8, 54, 127
11, 25380, Note_on_c, 8, 47, 127
11, 25500, Note_on_c, 8, 47, 0
11, 25500, Note_on_c, 8, 54, 0
11, 25500, Note_on_c, 8, 54, 127
11, 25500, Note_on_c, 8, 47, 127
11, 25560, Note_on_c, 8, 47, 0
11, 25560, Note_on_c, 8, 54, 0
11, 25560, Note_on_c, 8, 54, 127
11, 25560, Note_on_c, 8, 47, 127
11, 25560, Control_c, 8, 6, 32
11, 25590, Pitch_bend_c, 8, 8448
11, 25590, Pitch_bend_c, 8, 8448
11, 25605, Pitch_bend_c, 8, 8704
11, 25605, Pitch_bend_c, 8, 8704
11, 25620, Note_on_c, 8, 47, 0
11, 25620, Note_on_c, 8, 54, 0
11, 25620, Pitch_bend_c, 8, 8192
11, 25620, Pitch_bend_c, 8, 8192
11, 25620, Note_on_c, 8, 57, 127
11, 25620, Note_on_c, 8, 50, 127
11, 25740, Note_on_c, 8, 50, 0
11, 25740, Note_on_c, 8, 57, 0
11, 25740, Note_on_c, 8, 57, 127
11, 25740, Note_on_c, 8, 50, 127
11, 25800, Note_on_c, 8, 50, 0
11, 25800, Note_on_c, 8, 57, 0
11, 25800, Note_on_c, 8, 57, 127
11, 25800, Note_on_c, 8, 50, 127
11, 25860, Note_on_c, 8, 50, 0
11, 25860, Note_on_c, 8, 57, 0
11, 25860, Note_on_c, 8, 57, 127
11, 25860, Note_on_c, 8, 50, 127
11, 25920, Note_on_c, 8, 50, 0
11, 25920, Note_on_c, 8, 57, 0
11, 25920, Note_on_c, 8, 59, 127
11, 25920, Note_on_c, 8, 52, 127
11, 26040, Note_on_c, 8, 52, 0
11, 26040, Note_on_c, 8, 59, 0
11, 26040, Note_on_c, 8, 59, 127
11, 26040, Note_on_c, 8, 52, 127
11, 26160, Note_on_c, 8, 52, 0
11, 26160, Note_on_c, 8, 59, 0
11, 26160, Note_on_c, 8, 59, 127
11, 26160, Note_on_c, 8, 52, 127
11, 26220, Note_on_c, 8, 52, 0
11, 26220, Note_on_c, 8, 59, 0
11, 26220, Note_on_c, 8, 54, 127
11, 26220, Note_on_c, 8, 47, 127
11, 26340, Note_on_c, 8, 47, 0
11, 26340, Note_on_c, 8, 54, 0
11, 26340, Note_on_c, 8, 56, 127
11, 26340, Note_on_c, 8, 49, 127
11, 26460, Note_on_c, 8, 49, 0
11, 26460, Note_on_c, 8, 56, 0
11, 26460, Note_on_c, 8, 56, 127
11, 26460, Note_on_c, 8, 49, 127
11, 26520, Note_on_c, 8, 49, 0
11, 26520, Note_on_c, 8, 56, 0
11, 26520, Note_on_c, 8, 56, 127
11, 26520, Note_on_c, 8, 49, 127
11, 26640, Note_on_c, 8, 49, 0
11, 26640, Note_on_c, 8, 56, 0
11, 26640, Note_on_c, 8, 56, 127
11, 26640, Note_on_c, 8, 49, 127
11, 26700, Note_on_c, 8, 49, 0
11, 26700, Note_on_c, 8, 56, 0
11, 26700, Note_on_c, 8, 54, 127
11, 26700, Note_on_c, 8, 47, 127
11, 26820, Note_on_c, 8, 47, 0
11, 26820, Note_on_c, 8, 54, 0
11, 26820, Note_on_c, 8, 52, 127
11, 26820, Note_on_c, 8, 45, 127
11, 26940, Note_on_c, 8, 45, 0
11, 26940, Note_on_c, 8, 52, 0
11, 26940, Note_on_c, 8, 52, 127
11, 26940, Note_on_c, 8, 45, 127
11, 27000, Note_on_c, 8, 45, 0
11, 27000, Note_on_c, 8, 52, 0
11, 27000, Note_on_c, 8, 52, 127
11, 27000, Note_on_c, 8, 45, 127
11, 27120, Note_on_c, 8, 45, 0
11, 27120, Note_on_c, 8, 52, 0
11, 27120, Note_on_c, 8, 52, 127
11, 27120, Note_on_c, 8, 45, 127
11, 27180, Note_on_c, 8, 45, 0
11, 27180, Note_on_c, 8, 52, 0
11, 27180, Note_on_c, 8, 52, 127
11, 27180, Note_on_c, 8, 45, 127
11, 27300, Note_on_c, 8, 45, 0
11, 27300, Note_on_c, 8, 52, 0
11, 27300, Note_on_c, 8, 52, 127
11, 27300, Note_on_c, 8, 45, 127
11, 27360, Note_on_c, 8, 45, 0
11, 27360, Note_on_c, 8, 52, 0
11, 27360, Note_on_c, 8, 49, 127
11, 27360, Note_on_c, 8, 42, 127
11, 27480, Note_on_c, 8, 42, 0
11, 27480, Note_on_c, 8, 49, 0
11, 27480, Note_on_c, 8, 49, 127
11, 27480, Note_on_c, 8, 42, 127
11, 27540, Note_on_c, 8, 42, 0
11, 27540, Note_on_c, 8, 49, 0
11, 27540, Note_on_c, 8, 49, 127
11, 27540, Note_on_c, 8, 42, 127
11, 27660, Note_on_c, 8, 42, 0
11, 27660, Note_on_c, 8, 49, 0
11, 27660, Note_on_c, 8, 49, 127
11, 27660, Note_on_c, 8, 42, 127
11, 27720, Note_on_c, 8, 42, 0
11, 27720, Note_on_c, 8, 49, 0
11, 27720, Note_on_c, 8, 49, 127
11, 27720, Note_on_c, 8, 42, 127
11, 27780, Note_on_c, 8, 42, 0
11, 27780, Note_on_c, 8, 49, 0
11, 27780, Note_on_c, 8, 49, 127
11, 27780, Note_on_c, 8, 42, 127
11, 27840, Note_on_c, 8, 42, 0
11, 27840, Note_on_c, 8, 49, 0
11, 27840, Note_on_c, 8, 56, 127
11, 27840, Note_on_c, 8, 49, 127
11, 27960, Note_on_c, 8, 49, 0
11, 27960, Note_on_c, 8, 56, 0
11, 27960, Note_on_c, 8, 56, 127
11, 27960, Note_on_c, 8, 49, 127
11, 28080, Note_on_c, 8, 49, 0
11, 28080, Note_on_c, 8, 56, 0
11, 28080, Note_on_c, 8, 56, 127
11, 28080, Note_on_c, 8, 49, 127
11, 28140, Note_on_c, 8, 49, 0
11, 28140, Note_on_c, 8, 56, 0
11, 28140, Note_on_c, 8, 56, 127
11, 28140, Note_on_c, 8, 49, 127
11, 28200, Note_on_c, 8, 49, 0
11, 28200, Note_on_c, 8, 56, 0
11, 28200, Note_on_c, 8, 52, 127
11, 28200, Note_on_c, 8, 45, 127
11, 28260, Note_on_c, 8, 45, 0
11, 28260, Note_on_c, 8, 52, 0
11, 28260, Note_on_c, 8, 54, 127
11, 28260, Note_on_c, 8, 47, 127
11, 28380, Note_on_c, 8, 47, 0
11, 28380, Note_on_c, 8, 54, 0
11, 28380, Note_on_c, 8, 54, 127
11, 28380, Note_on_c, 8, 47, 127
11, 28440, Note_on_c, 8, 47, 0
11, 28440, Note_on_c, 8, 54, 0
11, 28440, Note_on_c, 8, 54, 127
11, 28440, Note_on_c, 8, 47, 127
11, 28560, Note_on_c, 8, 47, 0
11, 28560, Note_on_c, 8, 54, 0
11, 28560, Note_on_c, 8, 54, 127
11, 28560, Note_on_c, 8, 47, 127
11, 28620, Note_on_c, 8, 47, 0
11, 28620, Note_on_c, 8, 54, 0
11, 28620, Note_on_c, 8, 54, 127
11, 28620, Note_on_c, 8, 47, 127
11, 28740, Note_on_c, 8, 47, 0
11, 28740, Note_on_c, 8, 54, 0
11, 28740, Note_on_c, 8, 54, 127
11, 28740, Note_on_c, 8, 47, 127
11, 28770, Note_on_c, 8, 47, 0
11, 28770, Note_on_c, 8, 54, 0
11, 28770, Note_on_c, 8, 54, 127
11, 28770, Note_on_c, 8, 47, 127
11, 28800, Note_on_c, 8, 47, 0
11, 28800, Note_on_c, 8, 54, 0
11, 28800, Note_on_c, 8, 56, 127
11, 28800, Note_on_c, 8, 49, 127
11, 28920, Note_on_c, 8, 49, 0
11, 28920, Note_on_c, 8, 56, 0
11, 28920, Note_on_c, 8, 56, 127
11, 28920, Note_on_c, 8, 49, 127
11, 29040, Note_on_c, 8, 49, 0
11, 29040, Note_on_c, 8, 56, 0
11, 29040, Note_on_c, 8, 56, 127
11, 29040, Note_on_c, 8, 49, 127
11, 29100, Note_on_c, 8, 49, 0
11, 29100, Note_on_c, 8, 56, 0
11, 29100, Note_on_c, 8, 52, 127
11, 29100, Note_on_c, 8, 45, 127
11, 29220, Note_on_c, 8, 45, 0
11, 29220, Note_on_c, 8, 52, 0
11, 29220, Note_on_c, 8, 54, 127
11, 29220, Note_on_c, 8, 47, 127
11, 29340, Note_on_c, 8, 47, 0
11, 29340, Note_on_c, 8, 54, 0
11, 29340, Note_on_c, 8, 54, 127
11, 29340, Note_on_c, 8, 47, 127
11, 29400, Note_on_c, 8, 47, 0
11, 29400, Note_on_c, 8, 54, 0
11, 29400, Note_on_c, 8, 54, 127
11, 29400, Note_on_c, 8, 47, 127
11, 29400, Control_c, 8, 6, 32
11, 29430, Pitch_bend_c, 8, 8448
11, 29430, Pitch_bend_c, 8, 8448
11, 29445, Pitch_bend_c, 8, 8704
11, 29445, Pitch_bend_c, 8, 8704
11, 29460, Note_on_c, 8, 47, 0
11, 29460, Note_on_c, 8, 54, 0
11, 29460, Pitch_bend_c, 8, 8192
11, 29460, Pitch_bend_c, 8, 8192
11, 29460, Note_on_c, 8, 57, 127
11, 29460, Note_on_c, 8, 50, 127
11, 29580, Note_on_c, 8, 50, 0
11, 29580, Note_on_c, 8, 57, 0
11, 29580, Note_on_c, 8, 57, 127
11, 29580, Note_on_c, 8, 50, 127
11, 29640, Note_on_c, 8, 50, 0
11, 29640, Note_on_c, 8, 57, 0
11, 29640, Note_on_c, 8, 57, 127
11, 29640, Note_on_c, 8, 50, 127
11, 29700, Note_on_c, 8, 50, 0
11, 29700, Note_on_c, 8, 57, 0
11, 29700, Note_on_c, 8, 57, 127
11, 29700, Note_on_c, 8, 50, 127
11, 29760, Note_on_c, 8, 50, 0
11, 29760, Note_on_c, 8, 57, 0
11, 29760, Program_c, 8, 29
11, 29760, Note_on_c, 8, 59, 127
11, 29760, Note_on_c, 8, 52, 127
11, 29880, Note_on_c, 8, 52, 0
11, 29880, Note_on_c, 8, 59, 0
11, 29880, Note_on_c, 8, 59, 127
11, 29880, Note_on_c, 8, 52, 127
11, 30000, Note_on_c, 8, 52, 0
11, 30000, Note_on_c, 8, 59, 0
11, 30000, Note_on_c, 8, 59, 127
11, 30000, Note_on_c, 8, 52, 127
11, 30060, Note_on_c, 8, 52, 0
11, 30060, Note_on_c, 8, 59, 0
11, 30060, Note_on_c, 8, 59, 127
11, 30060, Note_on_c, 8, 52, 127
11, 30060, Control_c, 8, 6, 32
11, 30120, Pitch_bend_c, 8, 7936
11, 30120, Pitch_bend_c, 8, 7936
11, 30135, Pitch_bend_c, 8, 7680
11, 30135, Pitch_bend_c, 8, 7680
11, 30150, Pitch_bend_c, 8, 7424
11, 30150, Pitch_bend_c, 8, 7424
11, 30165, Pitch_bend_c, 8, 7168
11, 30165, Pitch_bend_c, 8, 7168
11, 30180, Note_on_c, 8, 52, 0
11, 30180, Note_on_c, 8, 59, 0
11, 30180, Pitch_bend_c, 8, 8192
11, 30180, Pitch_bend_c, 8, 8192
11, 30180, Note_on_c, 8, 54, 127
11, 30180, Note_on_c, 8, 47, 127
11, 30300, Note_on_c, 8, 47, 0
11, 30300, Note_on_c, 8, 54, 0
11, 30300, Note_on_c, 8, 54, 127
11, 30300, Note_on_c, 8, 47, 127
11, 30360, Note_on_c, 8, 47, 0
11, 30360, Note_on_c, 8, 54, 0
11, 30360, Note_on_c, 8, 54, 127
11, 30360, Note_on_c, 8, 47, 127
11, 30480, Note_on_c, 8, 47, 0
11, 30480, Note_on_c, 8, 54, 0
11, 30480, Note_on_c, 8, 54, 127
11, 30480, Note_on_c, 8, 47, 127
11, 30540, Note_on_c, 8, 47, 0
11, 30540, Note_on_c, 8, 54, 0
11, 30540, Note_on_c, 8, 54, 127
11, 30540, Note_on_c, 8, 47, 127
11, 30540, Control_c, 8, 6, 32
11, 30570, Pitch_bend_c, 8, 8448
11, 30570, Pitch_bend_c, 8, 8448
11, 30577, Pitch_bend_c, 8, 8704
11, 30577, Pitch_bend_c, 8, 8704
11, 30585, Pitch_bend_c, 8, 8960
11, 30585, Pitch_bend_c, 8, 8960
11, 30592, Pitch_bend_c, 8, 9216
11, 30592, Pitch_bend_c, 8, 9216
11, 30600, Note_on_c, 8, 47, 0
11, 30600, Note_on_c, 8, 54, 0
11, 30600, Pitch_bend_c, 8, 8192
11, 30600, Pitch_bend_c, 8, 8192
11, 30600, Note_on_c, 8, 59, 127
11, 30600, Note_on_c, 8, 52, 127
11, 30660, Note_on_c, 8, 52, 0
11, 30660, Note_on_c, 8, 59, 0
11, 30660, Note_on_c, 8, 57, 127
11, 30660, Note_on_c, 8, 50, 127
11, 30780, Note_on_c, 8, 50, 0
11, 30780, Note_on_c, 8, 57, 0
11, 30780, Note_on_c, 8, 57, 127
11, 30780, Note_on_c, 8, 50, 127
11, 30840, Note_on_c, 8, 50, 0
11, 30840, Note_on_c, 8, 57, 0
11, 30840, Note_on_c, 8, 57, 127
11, 30840, Note_on_c, 8, 50, 127
11, 30840, Control_c, 8, 6, 32
11, 30870, Pitch_bend_c, 8, 7936
11, 30870, Pitch_bend_c, 8, 7936
11, 30877, Pitch_bend_c, 8, 7680
11, 30877, Pitch_bend_c, 8, 7680
11, 30885, Pitch_bend_c, 8, 7424
11, 30885, Pitch_bend_c, 8, 7424
11, 30892, Pitch_bend_c, 8, 7168
11, 30892, Pitch_bend_c, 8, 7168
11, 30900, Note_on_c, 8, 50, 0
11, 30900, Note_on_c, 8, 57, 0
11, 30900, Pitch_bend_c, 8, 8192
11, 30900, Pitch_bend_c, 8, 8192
11, 30900, Note_on_c, 8, 52, 127
11, 30900, Note_on_c, 8, 45, 127
11, 31020, Note_on_c, 8, 45, 0
11, 31020, Note_on_c, 8, 52, 0
11, 31020, Note_on_c, 8, 52, 127
11, 31020, Note_on_c, 8, 45, 127
11, 31080, Note_on_c, 8, 45, 0
11, 31080, Note_on_c, 8, 52, 0
11, 31080, Note_on_c, 8, 52, 127
11, 31080, Note_on_c, 8, 45, 127
11, 31080, Control_c, 8, 6, 32
11, 31110, Pitch_bend_c, 8, 8448
11, 31110, Pitch_bend_c, 8, 8448
11, 31140, Note_on_c, 8, 45, 0
11, 31140, Note_on_c, 8, 52, 0
11, 31140, Pitch_bend_c, 8, 8192
11, 31140, Pitch_bend_c, 8, 8192
11, 31140, Note_on_c, 8, 54, 127
11, 31140, Note_on_c, 8, 47, 127
11, 31260, Note_on_c, 8, 47, 0
11, 31260, Note_on_c, 8, 54, 0
11, 31260, Note_on_c, 8, 54, 127
11, 31260, Note_on_c, 8, 47, 127
11, 31320, Note_on_c, 8, 47, 0
11, 31320, Note_on_c, 8, 54, 0
11, 31320, Note_on_c, 8, 54, 127
11, 31320, Note_on_c, 8, 47, 127
11, 31380, Note_on_c, 8, 47, 0
11, 31380, Note_on_c, 8, 54, 0
11, 31380, Note_on_c, 8, 54, 127
11, 31380, Note_on_c, 8, 47, 127
11, 31500, Note_on_c, 8, 47, 0
11, 31500, Note_on_c, 8, 54, 0
11, 31500, Note_on_c, 8, 54, 127
11, 31500, Note_on_c, 8, 47, 127
11, 31560, Note_on_c, 8, 47, 0
11, 31560, Note_on_c, 8, 54, 0
11, 31560, Note_on_c, 8, 54, 127
11, 31560, Note_on_c, 8, 47, 127
11, 31560, Control_c, 8, 6, 32
11, 31590, Pitch_bend_c, 8, 7936
11, 31590, Pitch_bend_c, 8, 7936
11, 31597, Pitch_bend_c, 8, 7680
11, 31597, Pitch_bend_c, 8, 7680
11, 31605, Pitch_bend_c, 8, 7424
11, 31605, Pitch_bend_c, 8, 7424
11, 31612, Pitch_bend_c, 8, 7168
11, 31612, Pitch_bend_c, 8, 7168
11, 31620, Note_on_c, 8, 47, 0
11, 31620, Note_on_c, 8, 54, 0
11, 31620, Pitch_bend_c, 8, 8192
11, 31620, Pitch_bend_c, 8, 8192
11, 31620, Note_on_c, 8, 49, 127
11, 31620, Note_on_c, 8, 42, 127
11, 31740, Note_on_c, 8, 42, 0
11, 31740, Note_on_c, 8, 49, 0
11, 31740, Note_on_c, 8, 49, 127
11, 31740, Note_on_c, 8, 42, 127
11, 31800, Note_on_c, 8, 42, 0
11, 31800, Note_on_c, 8, 49, 0
11, 31800, Note_on_c, 8, 49, 127
11, 31800, Note_on_c, 8, 42, 127
11, 31800, Control_c, 8, 6, 32
11, 31830, Pitch_bend_c, 8, 8448
11, 31830, Pitch_bend_c, 8, 8448
11, 31837, Pitch_bend_c, 8, 8704
11, 31837, Pitch_bend_c, 8, 8704
11, 31845, Pitch_bend_c, 8, 8960
11, 31845, Pitch_bend_c, 8, 8960
11, 31852, Pitch_bend_c, 8, 9216
11, 31852, Pitch_bend_c, 8, 9216
11, 31860, Note_on_c, 8, 42, 0
11, 31860, Note_on_c, 8, 49, 0
11, 31860, Pitch_bend_c, 8, 8192
11, 31860, Pitch_bend_c, 8, 8192
11, 31860, Note_on_c, 8, 54, 127
11, 31860, Note_on_c, 8, 47, 127
11, 31980, Note_on_c, 8, 47, 0
11, 31980, Note_on_c, 8, 54, 0
11, 31980, Note_on_c, 8, 54, 127
11, 31980, Note_on_c, 8, 47, 127
11, 32040, Note_on_c, 8, 47, 0
11, 32040, Note_on_c, 8, 54, 0
11, 32040, Note_on_c, 8, 54, 127
11, 32040, Note_on_c, 8, 47, 127
11, 32100, Note_on_c, 8, 47, 0
11, 32100, Note_on_c, 8, 54, 0
11, 32100, Note_on_c, 8, 54, 127
11, 32100, Note_on_c, 8, 47, 127
11, 32160, Note_on_c, 8, 47, 0
11, 32160, Note_on_c, 8, 54, 0
11, 32160, Note_on_c, 8, 57, 127
11, 32160, Note_on_c, 8, 54, 127
11, 32160, Note_on_c, 8, 49, 127
11, 32160, Note_on_c, 8, 42, 127
11, 32580, Note_on_c, 8, 42, 0
11, 32580, Note_on_c, 8, 57, 0
11, 32580, Note_on_c, 8, 54, 0
11, 32580, Note_on_c, 8, 49, 0
11, 32580, Note_on_c, 8, 58, 127
11, 32580, Note_on_c, 8, 54, 127
11, 32580, Note_on_c, 8, 49, 127
11, 32580, Note_on_c, 8, 42, 127
11, 32760, Note_on_c, 8, 49, 0
11, 32760, Note_on_c, 8, 58, 0
11, 32760, Note_on_c, 8, 54, 0
11, 32760, Note_on_c, 8, 66, 127
11, 32760, Note_on_c, 8, 61, 127
11, 32760, Note_on_c, 8, 58, 127
11, 32760, Note_on_c, 8, 54, 127
11, 32760, Note_on_c, 8, 49, 127
11, 32940, Note_on_c, 8, 49, 0
11, 32940, Note_on_c, 8, 58, 0
11, 32940, Note_on_c, 8, 54, 0
11, 32940, Note_on_c, 8, 58, 127
11, 32940, Note_on_c, 8, 54, 127
11, 32940, Note_on_c, 8, 49, 127
11, 33060, Note_on_c, 8, 49, 0
11, 33060, Note_on_c, 8, 58, 0
11, 33060, Note_on_c, 8, 54, 0
11, 33060, Note_on_c, 8, 58, 127
11, 33060, Note_on_c, 8, 54, 127
11, 33060, Note_on_c, 8, 49, 127
11, 33120, Note_on_c, 8, 49, 0
11, 33120, Note_on_c, 8, 42, 0
11, 33120, Note_on_c, 8, 66, 0
11, 33120, Note_on_c, 8, 61, 0
11, 33120, Note_on_c, 8, 54, 0
11, 33120, Note_on_c, 8, 58, 0
11, 33120, Program_c, 8, 27
11, 33120, Note_on_c, 8, 52, 127
11, 33180, Note_on_c, 8, 52, 0
11, 33180, Note_on_c, 8, 56, 127
11, 33240, Note_on_c, 8, 56, 0
11, 33240, Note_on_c, 8, 57, 127
11, 33300, Note_on_c, 8, 57, 0
11, 33300, Note_on_c, 8, 59, 127
11, 33360, Note_on_c, 8, 59, 0
11, 33360, Note_on_c, 8, 62, 127
11, 33420, Note_on_c, 8, 62, 0
11, 33420, Note_on_c, 8, 64, 127
11, 33480, Note_on_c, 8, 64, 0
11, 33480, Note_on_c, 8, 62, 127
11, 33540, Note_on_c, 8, 62, 0
11, 33540, Note_on_c, 8, 63, 127
11, 33600, Note_on_c, 8, 63, 0
11, 33600, Note_on_c, 8, 64, 127
11, 33660, Note_on_c, 8, 64, 0
11, 33660, Note_on_c, 8, 68, 127
11, 33720, Note_on_c, 8, 68, 0
11, 33720, Note_on_c, 8, 69, 127
11, 33780, Note_on_c, 8, 69, 0
11, 33780, Note_on_c, 8, 71, 127
11, 33840, Note_on_c, 8, 71, 0
11, 33840, Note_on_c, 8, 73, 127
11, 33900, Note_on_c, 8, 73, 0
11, 33900, Note_on_c, 8, 74, 127
11, 33960, Note_on_c, 8, 74, 0
11, 33960, Note_on_c, 8, 76, 127
11, 34020, Note_on_c, 8, 76, 0
11, 34020, Note_on_c, 8, 78, 127
11, 34080, Note_on_c, 8, 78, 0
11, 34080, Note_on_c, 8, 79, 127
11, 34560, Note_on_c, 8, 79, 0
11, 36960, Note_on_c, 8, 47, 127
11, 36960, Note_on_c, 8, 40, 127
11, 37080, Note_on_c, 8, 40, 0
11, 37080, Note_on_c, 8, 47, 0
11, 37080, Note_on_c, 8, 47, 127
11, 37080, Note_on_c, 8, 40, 127
11, 37200, Note_on_c, 8, 40, 0
11, 37200, Note_on_c, 8, 47, 0
11, 37200, Note_on_c, 8, 47, 127
11, 37200, Note_on_c, 8, 40, 127
11, 37260, Note_on_c, 8, 40, 0
11, 37260, Note_on_c, 8, 47, 0
11, 37260, Note_on_c, 8, 54, 127
11, 37260, Note_on_c, 8, 47, 127
11, 37380, Note_on_c, 8, 47, 0
11, 37380, Note_on_c, 8, 54, 0
11, 37380, Note_on_c, 8, 56, 127
11, 37380, Note_on_c, 8, 49, 127
11, 37500, Note_on_c, 8, 49, 0
11, 37500, Note_on_c, 8, 56, 0
11, 37500, Note_on_c, 8, 56, 127
11, 37500, Note_on_c, 8, 49, 127
11, 37560, Note_on_c, 8, 49, 0
11, 37560, Note_on_c, 8, 56, 0
11, 37560, Note_on_c, 8, 56, 127
11, 37560, Note_on_c, 8, 49, 127
11, 37680, Note_on_c, 8, 49, 0
11, 37680, Note_on_c, 8, 56, 0
11, 37680, Note_on_c, 8, 56, 127
11, 37680, Note_on_c, 8, 49, 127
11, 37740, Note_on_c, 8, 49, 0
11, 37740, Note_on_c, 8, 56, 0
11, 37740, Note_on_c, 8, 54, 127
11, 37740, Note_on_c, 8, 47, 127
11, 37860, Note_on_c, 8, 47, 0
11, 37860, Note_on_c, 8, 54, 0
11, 37860, Note_on_c, 8, 52, 127
11, 37860, Note_on_c, 8, 45, 127
11, 37920, Note_on_c, 8, 45, 0
11, 37920, Note_on_c, 8, 52, 0
11, 37920, Note_on_c, 8, 52, 127
11, 37920, Note_on_c, 8, 45, 127
11, 38040, Note_on_c, 8, 45, 0
11, 38040, Note_on_c, 8, 52, 0
11, 38040, Note_on_c, 8, 52, 127
11, 38040, Note_on_c, 8, 45, 127
11, 38160, Note_on_c, 8, 45, 0
11, 38160, Note_on_c, 8, 52, 0
11, 38160, Note_on_c, 8, 52, 127
11, 38160, Note_on_c, 8, 45, 127
11, 38220, Note_on_c, 8, 45, 0
11, 38220, Note_on_c, 8, 52, 0
11, 38220, Note_on_c, 8, 52, 127
11, 38220, Note_on_c, 8, 45, 127
11, 38340, Note_on_c, 8, 45, 0
11, 38340, Note_on_c, 8, 52, 0
11, 38340, Note_on_c, 8, 52, 127
11, 38340, Note_on_c, 8, 45, 127
11, 38400, Note_on_c, 8, 45, 0
11, 38400, Note_on_c, 8, 52, 0
11, 38400, Note_on_c, 8, 49, 127
11, 38400, Note_on_c, 8, 42, 127
11, 38520, Note_on_c, 8, 42, 0
11, 38520, Note_on_c, 8, 49, 0
11, 38520, Note_on_c, 8, 49, 127
11, 38520, Note_on_c, 8, 42, 127
11, 38580, Note_on_c, 8, 42, 0
11, 38580, Note_on_c, 8, 49, 0
11, 38580, Note_on_c, 8, 49, 127
11, 38580, Note_on_c, 8, 42, 127
11, 38700, Note_on_c, 8, 42, 0
11, 38700, Note_on_c, 8, 49, 0
11, 38700, Note_on_c, 8, 49, 127
11, 38700, Note_on_c, 8, 42, 127
11, 38760, Note_on_c, 8, 42, 0
11, 38760, Note_on_c, 8, 49, 0
11, 38760, Note_on_c, 8, 49, 127
11, 38760, Note_on_c, 8, 42, 127
11, 38820, Note_on_c, 8, 42, 0
11, 38820, Note_on_c, 8, 49, 0
11, 38820, Note_on_c, 8, 49, 127
11, 38820, Note_on_c, 8, 42, 127
11, 38880, Note_on_c, 8, 42, 0
11, 38880, Note_on_c, 8, 49, 0
11, 38880, Note_on_c, 8, 56, 127
11, 38880, Note_on_c, 8, 49, 127
11, 39000, Note_on_c, 8, 49, 0
11, 39000, Note_on_c, 8, 56, 0
11, 39000, Note_on_c, 8, 56, 127
11, 39000, Note_on_c, 8, 49, 127
11, 39120, Note_on_c, 8, 49, 0
11, 39120, Note_on_c, 8, 56, 0
11, 39120, Note_on_c, 8, 56, 127
11, 39120, Note_on_c, 8, 49, 127
11, 39180, Note_on_c, 8, 49, 0
11, 39180, Note_on_c, 8, 56, 0
11, 39180, Note_on_c, 8, 56, 127
11, 39180, Note_on_c, 8, 49, 127
11, 39240, Note_on_c, 8, 49, 0
11, 39240, Note_on_c, 8, 56, 0
11, 39240, Note_on_c, 8, 52, 127
11, 39240, Note_on_c, 8, 45, 127
11, 39300, Note_on_c, 8, 45, 0
11, 39300, Note_on_c, 8, 52, 0
11, 39300, Note_on_c, 8, 54, 127
11, 39300, Note_on_c, 8, 47, 127
11, 39420, Note_on_c, 8, 47, 0
11, 39420, Note_on_c, 8, 54, 0
11, 39420, Note_on_c, 8, 54, 127
11, 39420, Note_on_c, 8, 47, 127
11, 39480, Note_on_c, 8, 47, 0
11, 39480, Note_on_c, 8, 54, 0
11, 39480, Note_on_c, 8, 54, 127
11, 39480, Note_on_c, 8, 47, 127
11, 39600, Note_on_c, 8, 47, 0
11, 39600, Note_on_c, 8, 54, 0
11, 39600, Note_on_c, 8, 54, 127
11, 39600, Note_on_c, 8, 47, 127
11, 39660, Note_on_c, 8, 47, 0
11, 39660, Note_on_c, 8, 54, 0
11, 39660, Note_on_c, 8, 54, 127
11, 39660, Note_on_c, 8, 47, 127
11, 39780, Note_on_c, 8, 47, 0
11, 39780, Note_on_c, 8, 54, 0
11, 39780, Note_on_c, 8, 54, 127
11, 39780, Note_on_c, 8, 47, 127
11, 39810, Note_on_c, 8, 47, 0
11, 39810, Note_on_c, 8, 54, 0
11, 39810, Note_on_c, 8, 54, 127
11, 39810, Note_on_c, 8, 47, 127
11, 39840, Note_on_c, 8, 47, 0
11, 39840, Note_on_c, 8, 54, 0
11, 39840, Note_on_c, 8, 56, 127
11, 39840, Note_on_c, 8, 49, 127
11, 39960, Note_on_c, 8, 49, 0
11, 39960, Note_on_c, 8, 56, 0
11, 39960, Note_on_c, 8, 56, 127
11, 39960, Note_on_c, 8, 49, 127
11, 40080, Note_on_c, 8, 49, 0
11, 40080, Note_on_c, 8, 56, 0
11, 40080, Note_on_c, 8, 56, 127
11, 40080, Note_on_c, 8, 49, 127
11, 40140, Note_on_c, 8, 49, 0
11, 40140, Note_on_c, 8, 56, 0
11, 40140, Note_on_c, 8, 52, 127
11, 40140, Note_on_c, 8, 45, 127
11, 40260, Note_on_c, 8, 45, 0
11, 40260, Note_on_c, 8, 52, 0
11, 40260, Note_on_c, 8, 54, 127
11, 40260, Note_on_c, 8, 47, 127
11, 40380, Note_on_c, 8, 47, 0
11, 40380, Note_on_c, 8, 54, 0
11, 40380, Note_on_c, 8, 54, 127
11, 40380, Note_on_c, 8, 47, 127
11, 40440, Note_on_c, 8, 47, 0
11, 40440, Note_on_c, 8, 54, 0
11, 40440, Note_on_c, 8, 54, 127
11, 40440, Note_on_c, 8, 47, 127
11, 40440, Control_c, 8, 6, 32
11, 40470, Pitch_bend_c, 8, 8448
11, 40470, Pitch_bend_c, 8, 8448
11, 40485, Pitch_bend_c, 8, 8704
11, 40485, Pitch_bend_c, 8, 8704
11, 40500, Note_on_c, 8, 47, 0
11, 40500, Note_on_c, 8, 54, 0
11, 40500, Pitch_bend_c, 8, 8192
11, 40500, Pitch_bend_c, 8, 8192
11, 40500, Note_on_c, 8, 57, 127
11, 40500, Note_on_c, 8, 50, 127
11, 40620, Note_on_c, 8, 50, 0
11, 40620, Note_on_c, 8, 57, 0
11, 40620, Note_on_c, 8, 57, 127
11, 40620, Note_on_c, 8, 50, 127
11, 40680, Note_on_c, 8, 50, 0
11, 40680, Note_on_c, 8, 57, 0
11, 40680, Note_on_c, 8, 57, 127
11, 40680, Note_on_c, 8, 50, 127
11, 40740, Note_on_c, 8, 50, 0
11, 40740, Note_on_c, 8, 57, 0
11, 40740, Note_on_c, 8, 57, 127
11, 40740, Note_on_c, 8, 50, 127
11, 40800, Note_on_c, 8, 50, 0
11, 40800, Note_on_c, 8, 57, 0
11, 40800, Note_on_c, 8, 59, 127
11, 40800, Note_on_c, 8, 52, 127
11, 40920, Note_on_c, 8, 52, 0
11, 40920, Note_on_c, 8, 59, 0
11, 40920, Note_on_c, 8, 59, 127
11, 40920, Note_on_c, 8, 52, 127
11, 41040, Note_on_c, 8, 52, 0
11, 41040, Note_on_c, 8, 59, 0
11, 41040, Note_on_c, 8, 59, 127
11, 41040, Note_on_c, 8, 52, 127
11, 41100, Note_on_c, 8, 52, 0
11, 41100, Note_on_c, 8, 59, 0
11, 41100, Note_on_c, 8, 54, 127
11, 41100, Note_on_c, 8, 47, 127
11, 41220, Note_on_c, 8, 47, 0
11, 41220, Note_on_c, 8, 54, 0
11, 41220, Note_on_c, 8, 56, 127
11, 41220, Note_on_c, 8, 49, 127
11, 41340, Note_on_c, 8, 49, 0
11, 41340, Note_on_c, 8, 56, 0
11, 41340, Note_on_c, 8, 56, 127
11, 41340, Note_on_c, 8, 49, 127
11, 41400, Note_on_c, 8, 49, 0
11, 41400, Note_on_c, 8, 56, 0
11, 41400, Note_on_c, 8, 56, 127
11, 41400, Note_on_c, 8, 49, 127
11, 41520, Note_on_c, 8, 49, 0
11, 41520, Note_on_c, 8, 56, 0
11, 41520, Note_on_c, 8, 56, 127
11, 41520, Note_on_c, 8, 49, 127
11, 41580, Note_on_c, 8, 49, 0
11, 41580, Note_on_c, 8, 56, 0
11, 41580, Note_on_c, 8, 54, 127
11, 41580, Note_on_c, 8, 47, 127
11, 41700, Note_on_c, 8, 47, 0
11, 41700, Note_on_c, 8, 54, 0
11, 41700, Note_on_c, 8, 52, 127
11, 41700, Note_on_c, 8, 45, 127
11, 41820, Note_on_c, 8, 45, 0
11, 41820, Note_on_c, 8, 52, 0
11, 41820, Note_on_c, 8, 52, 127
11, 41820, Note_on_c, 8, 45, 127
11, 41880, Note_on_c, 8, 45, 0
11, 41880, Note_on_c, 8, 52, 0
11, 41880, Note_on_c, 8, 52, 127
11, 41880, Note_on_c, 8, 45, 127
11, 42000, Note_on_c, 8, 45, 0
11, 42000, Note_on_c, 8, 52, 0
11, 42000, Note_on_c, 8, 52, 127
11, 42000, Note_on_c, 8, 45, 127
11, 42060, Note_on_c, 8, 45, 0
11, 42060, Note_on_c, 8, 52, 0
11, 42060, Note_on_c, 8, 52, 127
11, 42060, Note_on_c, 8, 45, 127
11, 42180, Note_on_c, 8, 45, 0
11, 42180, Note_on_c, 8, 52, 0
11, 42180, Note_on_c, 8, 52, 127
11, 42180, Note_on_c, 8, 45, 127
11, 42240, Note_on_c, 8, 45, 0
11, 42240, Note_on_c, 8, 52, 0
11, 42240, Note_on_c, 8, 49, 127
11, 42240, Note_on_c, 8, 42, 127
11, 42360, Note_on_c, 8, 42, 0
11, 42360, Note_on_c, 8, 49, 0
11, 42360, Note_on_c, 8, 49, 127
11, 42360, Note_on_c, 8, 42, 127
11, 42420, Note_on_c, 8, 42, 0
11, 42420, Note_on_c, 8, 49, 0
11, 42420, Note_on_c, 8, 49, 127
11, 42420, Note_on_c, 8, 42, 127
11, 42540, Note_on_c, 8, 42, 0
11, 42540, Note_on_c, 8, 49, 0
11, 42540, Note_on_c, 8, 49, 127
11, 42540, Note_on_c, 8, 42, 127
11, 42600, Note_on_c, 8, 42, 0
11, 42600, Note_on_c, 8, 49, 0
11, 42600, Note_on_c, 8, 49, 127
11, 42600, Note_on_c, 8, 42, 127
11, 42660, Note_on_c, 8, 42, 0
11, 42660, Note_on_c, 8, 49, 0
11, 42660, Note_on_c, 8, 49, 127
11, 42660, Note_on_c, 8, 42, 127
11, 42720, Note_on_c, 8, 42, 0
11, 42720, Note_on_c, 8, 49, 0
11, 42720, Note_on_c, 8, 56, 127
11, 42720, Note_on_c, 8, 49, 127
11, 42840, Note_on_c, 8, 49, 0
11, 42840, Note_on_c, 8, 56, 0
11, 42840, Note_on_c, 8, 56, 127
11, 42840, Note_on_c, 8, 49, 127
11, 42960, Note_on_c, 8, 49, 0
11, 42960, Note_on_c, 8, 56, 0
11, 42960, Note_on_c, 8, 56, 127
11, 42960, Note_on_c, 8, 49, 127
11, 43020, Note_on_c, 8, 49, 0
11, 43020, Note_on_c, 8, 56, 0
11, 43020, Note_on_c, 8, 56, 127
11, 43020, Note_on_c, 8, 49, 127
11, 43080, Note_on_c, 8, 49, 0
11, 43080, Note_on_c, 8, 56, 0
11, 43080, Note_on_c, 8, 52, 127
11, 43080, Note_on_c, 8, 45, 127
11, 43140, Note_on_c, 8, 45, 0
11, 43140, Note_on_c, 8, 52, 0
11, 43140, Note_on_c, 8, 54, 127
11, 43140, Note_on_c, 8, 47, 127
11, 43260, Note_on_c, 8, 47, 0
11, 43260, Note_on_c, 8, 54, 0
11, 43260, Note_on_c, 8, 54, 127
11, 43260, Note_on_c, 8, 47, 127
11, 43320, Note_on_c, 8, 47, 0
11, 43320, Note_on_c, 8, 54, 0
11, 43320, Note_on_c, 8, 54, 127
11, 43320, Note_on_c, 8, 47, 127
11, 43440, Note_on_c, 8, 47, 0
11, 43440, Note_on_c, 8, 54, 0
11, 43440, Note_on_c, 8, 54, 127
11, 43440, Note_on_c, 8, 47, 127
11, 43500, Note_on_c, 8, 47, 0
11, 43500, Note_on_c, 8, 54, 0
11, 43500, Note_on_c, 8, 54, 127
11, 43500, Note_on_c, 8, 47, 127
11, 43620, Note_on_c, 8, 47, 0
11, 43620, Note_on_c, 8, 54, 0
11, 43620, Note_on_c, 8, 54, 127
11, 43620, Note_on_c, 8, 47, 127
11, 43650, Note_on_c, 8, 47, 0
11, 43650, Note_on_c, 8, 54, 0
11, 43650, Note_on_c, 8, 54, 127
11, 43650, Note_on_c, 8, 47, 127
11, 43680, Note_on_c, 8, 47, 0
11, 43680, Note_on_c, 8, 54, 0
11, 43680, Note_on_c, 8, 56, 127
11, 43680, Note_on_c, 8, 49, 127
11, 43800, Note_on_c, 8, 49, 0
11, 43800, Note_on_c, 8, 56, 0
11, 43800, Note_on_c, 8, 56, 127
11, 43800, Note_on_c, 8, 49, 127
11, 43920, Note_on_c, 8, 49, 0
11, 43920, Note_on_c, 8, 56, 0
11, 43920, Note_on_c, 8, 56, 127
11, 43920, Note_on_c, 8, 49, 127
11, 43980, Note_on_c, 8, 49, 0
11, 43980, Note_on_c, 8, 56, 0
11, 43980, Note_on_c, 8, 52, 127
11, 43980, Note_on_c, 8, 45, 127
11, 44100, Note_on_c, 8, 45, 0
11, 44100, Note_on_c, 8, 52, 0
11, 44100, Note_on_c, 8, 54, 127
11, 44100, Note_on_c, 8, 47, 127
11, 44220, Note_on_c, 8, 47, 0
11, 44220, Note_on_c, 8, 54, 0
11, 44220, Note_on_c, 8, 54, 127
11, 44220, Note_on_c, 8, 47, 127
11, 44280, Note_on_c, 8, 47, 0
11, 44280, Note_on_c, 8, 54, 0
11, 44280, Note_on_c, 8, 54, 127
11, 44280, Note_on_c, 8, 47, 127
11, 44340, Note_on_c, 8, 47, 0
11, 44340, Note_on_c, 8, 54, 0
11, 44340, Note_on_c, 8, 57, 127
11, 44340, Note_on_c, 8, 50, 127
11, 44460, Note_on_c, 8, 50, 0
11, 44460, Note_on_c, 8, 57, 0
11, 44460, Note_on_c, 8, 57, 127
11, 44460, Note_on_c, 8, 50, 127
11, 44520, Note_on_c, 8, 50, 0
11, 44520, Note_on_c, 8, 57, 0
11, 44520, Note_on_c, 8, 57, 127
11, 44520, Note_on_c, 8, 50, 127
11, 44580, Note_on_c, 8, 50, 0
11, 44580, Note_on_c, 8, 57, 0
11, 44580, Note_on_c, 8, 57, 127
11, 44580, Note_on_c, 8, 50, 127
11, 44640, Note_on_c, 8, 50, 0
11, 44640, Note_on_c, 8, 57, 0
11, 44640, Note_on_c, 8, 56, 127
11, 44640, Note_on_c, 8, 49, 127
11, 44880, Note_on_c, 8, 49, 0
11, 44880, Note_on_c, 8, 56, 0
11, 44880, Note_on_c, 8, 54, 127
11, 44880, Note_on_c, 8, 47, 127
11, 45060, Note_on_c, 8, 47, 0
11, 45060, Note_on_c, 8, 54, 0
11, 45060, Note_on_c, 8, 55, 127
11, 45060, Note_on_c, 8, 48, 127
11, 45540, Note_on_c, 8, 48, 0
11, 45540, Note_on_c, 8, 55, 0
11, 45540, Note_on_c, 8, 63, 127
11, 45540, Note_on_c, 8, 59, 127
11, 45540, Note_on_c, 8, 54, 127
11, 45540, Note_on_c, 8, 47, 127
11, 46020, Note_on_c, 8, 47, 0
11, 46020, Note_on_c, 8, 63, 0
11, 46020, Note_on_c, 8, 59, 0
11, 46020, Note_on_c, 8, 54, 0
11, 46020, End_track
0, 0, End_of_file
