0, 0, Header, 1, 5, 480
1, 0, Start_track
1, 0, Tempo, 480000
1, 0, Title_t, "Bone Machine"
1, 0, Time_signature, 4, 2, 7, 83
1, 71040, Tempo, 600000
1, 75840, Tempo, 480000
1, 90240, Tempo, 444444
1, 93120, Tempo, 480000
1, 94080, Time_signature, 3, 2, 7, 83
1, 94560, Tempo, 480000
1, 95520, Time_signature, 4, 2, 7, 83
1, 95520, End_track
2, 0, Start_track
2, 0, Title_t, "Track 1"
2, 0, Control_c, 1, 100, 0
2, 0, Control_c, 1, 101, 0
2, 0, Control_c, 1, 6, 12
2, 0, Pitch_bend_c, 1, 8192
2, 0, Control_c, 1, 101, 0
2, 0, Control_c, 1, 100, 1
2, 0, Control_c, 1, 6, 64
2, 0, Control_c, 1, 38, 0
2, 0, Control_c, 1, 101, 127
2, 0, Control_c, 1, 100, 127
2, 0, Control_c, 0, 100, 0
2, 0, Control_c, 0, 101, 0
2, 0, Control_c, 0, 6, 12
2, 0, Pitch_bend_c, 0, 8192
2, 0, Control_c, 0, 101, 0
2, 0, Control_c, 0, 100, 1
2, 0, Control_c, 0, 6, 64
2, 0, Control_c, 0, 38, 0
2, 0, Control_c, 0, 101, 127
2, 0, Control_c, 0, 100, 127
2, 0, Control_c, 1, 101, 0
2, 0, Control_c, 1, 100, 2
2, 0, Control_c, 1, 6, 64
2, 0, Control_c, 1, 101, 127
2, 0, Control_c, 1, 100, 127
2, 0, Control_c, 0, 101, 0
2, 0, Control_c, 0, 100, 2
2, 0, Control_c, 0, 6, 64
2, 0, Control_c, 0, 101, 127
2, 0, Control_c, 0, 100, 127
2, 0, Program_c, 1, 27
2, 0, Program_c, 0, 27
2, 0, Control_c, 1, 0, 0
2, 0, Control_c, 0, 0, 0
2, 0, Control_c, 1, 7, 88
2, 0, Control_c, 0, 7, 88
2, 0, Control_c, 1, 10, 64
2, 0, Control_c, 0, 10, 64
2, 0, Control_c, 1, 93, 0
2, 0, Control_c, 0, 93, 0
2, 0, Control_c, 1, 91, 0
2, 0, Control_c, 0, 91, 0
2, 0, Control_c, 1, 92, 0
2, 0, Control_c, 0, 92, 0
2, 0, Control_c, 1, 95, 0
2, 0, Control_c, 0, 95, 0
2, 37440, Note_on_c, 0, 69, 95
2, 37440, Note_on_c, 0, 65, 95
2, 37440, Note_on_c, 0, 62, 95
2, 37440, Note_on_c, 0, 57, 95
2, 37440, Note_on_c, 0, 50, 95
2, 37680, Note_off_c, 0, 69, 80
2, 37680, Note_off_c, 0, 65, 80
2, 37680, Note_off_c, 0, 62, 80
2, 37680, Note_off_c, 0, 57, 80
2, 37680, Note_off_c, 0, 50, 80
2, 37680, Note_on_c, 0, 69, 95
2, 37680, Note_on_c, 0, 65, 95
2, 37680, Note_on_c, 0, 62, 95
2, 37680, Note_on_c, 0, 57, 95
2, 37680, Note_on_c, 0, 50, 95
2, 37920, Note_off_c, 0, 69, 80
2, 37920, Note_off_c, 0, 65, 80
2, 37920, Note_off_c, 0, 62, 80
2, 37920, Note_off_c, 0, 57, 80
2, 37920, Note_off_c, 0, 50, 80
2, 37920, Note_on_c, 0, 69, 95
2, 37920, Note_on_c, 0, 65, 95
2, 37920, Note_on_c, 0, 62, 95
2, 37920, Note_on_c, 0, 57, 95
2, 37920, Note_on_c, 0, 50, 95
2, 38160, Note_off_c, 0, 69, 80
2, 38160, Note_off_c, 0, 65, 80
2, 38160, Note_off_c, 0, 62, 80
2, 38160, Note_off_c, 0, 57, 80
2, 38160, Note_off_c, 0, 50, 80
2, 38160, Note_on_c, 0, 69, 95
2, 38160, Note_on_c, 0, 65, 95
2, 38160, Note_on_c, 0, 62, 95
2, 38160, Note_on_c, 0, 57, 95
2, 38160, Note_on_c, 0, 50, 95
2, 38400, Note_off_c, 0, 69, 80
2, 38400, Note_off_c, 0, 65, 80
2, 38400, Note_off_c, 0, 62, 80
2, 38400, Note_off_c, 0, 57, 80
2, 38400, Note_off_c, 0, 50, 80
2, 38400, Note_on_c, 0, 64, 95
2, 38400, Note_on_c, 0, 61, 95
2, 38400, Note_on_c, 0, 57, 95
2, 38400, Note_on_c, 0, 52, 95
2, 38400, Note_on_c, 0, 45, 95
2, 38640, Note_off_c, 0, 64, 80
2, 38640, Note_off_c, 0, 61, 80
2, 38640, Note_off_c, 0, 57, 80
2, 38640, Note_off_c, 0, 52, 80
2, 38640, Note_off_c, 0, 45, 80
2, 38640, Note_on_c, 0, 64, 95
2, 38640, Note_on_c, 0, 61, 95
2, 38640, Note_on_c, 0, 57, 95
2, 38640, Note_on_c, 0, 52, 95
2, 38640, Note_on_c, 0, 45, 95
2, 38880, Note_off_c, 0, 64, 80
2, 38880, Note_off_c, 0, 61, 80
2, 38880, Note_off_c, 0, 57, 80
2, 38880, Note_off_c, 0, 52, 80
2, 38880, Note_off_c, 0, 45, 80
2, 38880, Note_on_c, 0, 64, 95
2, 38880, Note_on_c, 0, 61, 95
2, 38880, Note_on_c, 0, 57, 95
2, 38880, Note_on_c, 0, 52, 95
2, 38880, Note_on_c, 0, 45, 95
2, 39120, Note_off_c, 0, 64, 80
2, 39120, Note_off_c, 0, 61, 80
2, 39120, Note_off_c, 0, 57, 80
2, 39120, Note_off_c, 0, 52, 80
2, 39120, Note_off_c, 0, 45, 80
2, 39120, Note_on_c, 0, 64, 95
2, 39120, Note_on_c, 0, 61, 95
2, 39120, Note_on_c, 0, 57, 95
2, 39120, Note_on_c, 0, 52, 95
2, 39120, Note_on_c, 0, 45, 95
2, 39360, Note_off_c, 0, 64, 80
2, 39360, Note_off_c, 0, 61, 80
2, 39360, Note_off_c, 0, 57, 80
2, 39360, Note_off_c, 0, 52, 80
2, 39360, Note_off_c, 0, 45, 80
2, 39360, Note_on_c, 0, 67, 95
2, 39360, Note_on_c, 0, 62, 95
2, 39360, Note_on_c, 0, 60, 95
2, 39360, Note_on_c, 0, 55, 95
2, 39360, Note_on_c, 0, 48, 95
2, 39600, Note_off_c, 0, 67, 80
2, 39600, Note_off_c, 0, 62, 80
2, 39600, Note_off_c, 0, 60, 80
2, 39600, Note_off_c, 0, 55, 80
2, 39600, Note_off_c, 0, 48, 80
2, 39600, Note_on_c, 0, 67, 95
2, 39600, Note_on_c, 0, 62, 95
2, 39600, Note_on_c, 0, 60, 95
2, 39600, Note_on_c, 0, 55, 95
2, 39600, Note_on_c, 0, 48, 95
2, 39840, Note_off_c, 0, 67, 80
2, 39840, Note_off_c, 0, 62, 80
2, 39840, Note_off_c, 0, 60, 80
2, 39840, Note_off_c, 0, 55, 80
2, 39840, Note_off_c, 0, 48, 80
2, 39840, Note_on_c, 0, 67, 95
2, 39840, Note_on_c, 0, 62, 95
2, 39840, Note_on_c, 0, 60, 95
2, 39840, Note_on_c, 0, 55, 95
2, 39840, Note_on_c, 0, 48, 95
2, 40080, Note_off_c, 0, 67, 80
2, 40080, Note_off_c, 0, 62, 80
2, 40080, Note_off_c, 0, 60, 80
2, 40080, Note_off_c, 0, 55, 80
2, 40080, Note_off_c, 0, 48, 80
2, 40080, Note_on_c, 0, 67, 95
2, 40080, Note_on_c, 0, 62, 95
2, 40080, Note_on_c, 0, 60, 95
2, 40080, Note_on_c, 0, 55, 95
2, 40080, Note_on_c, 0, 48, 95
2, 40320, Note_off_c, 0, 67, 80
2, 40320, Note_off_c, 0, 62, 80
2, 40320, Note_off_c, 0, 60, 80
2, 40320, Note_off_c, 0, 55, 80
2, 40320, Note_off_c, 0, 48, 80
2, 40320, Note_on_c, 0, 62, 95
2, 40320, Note_on_c, 0, 59, 95
2, 40320, Note_on_c, 0, 55, 95
2, 40320, Note_on_c, 0, 50, 95
2, 40320, Note_on_c, 0, 43, 95
2, 40560, Note_off_c, 0, 62, 80
2, 40560, Note_off_c, 0, 59, 80
2, 40560, Note_off_c, 0, 55, 80
2, 40560, Note_off_c, 0, 50, 80
2, 40560, Note_off_c, 0, 43, 80
2, 40560, Note_on_c, 0, 62, 95
2, 40560, Note_on_c, 0, 59, 95
2, 40560, Note_on_c, 0, 55, 95
2, 40560, Note_on_c, 0, 50, 95
2, 40560, Note_on_c, 0, 43, 95
2, 40800, Note_off_c, 0, 62, 80
2, 40800, Note_off_c, 0, 59, 80
2, 40800, Note_off_c, 0, 55, 80
2, 40800, Note_off_c, 0, 50, 80
2, 40800, Note_off_c, 0, 43, 80
2, 40800, Note_on_c, 0, 62, 95
2, 40800, Note_on_c, 0, 59, 95
2, 40800, Note_on_c, 0, 55, 95
2, 40800, Note_on_c, 0, 50, 95
2, 40800, Note_on_c, 0, 43, 95
2, 41040, Note_off_c, 0, 62, 80
2, 41040, Note_off_c, 0, 59, 80
2, 41040, Note_off_c, 0, 55, 80
2, 41040, Note_off_c, 0, 50, 80
2, 41040, Note_off_c, 0, 43, 80
2, 41040, Note_on_c, 0, 62, 95
2, 41040, Note_on_c, 0, 59, 95
2, 41040, Note_on_c, 0, 55, 95
2, 41040, Note_on_c, 0, 50, 95
2, 41040, Note_on_c, 0, 43, 95
2, 41280, Note_off_c, 0, 62, 80
2, 41280, Note_off_c, 0, 59, 80
2, 41280, Note_off_c, 0, 55, 80
2, 41280, Note_off_c, 0, 50, 80
2, 41280, Note_off_c, 0, 43, 80
2, 41280, Note_on_c, 0, 69, 95
2, 41280, Note_on_c, 0, 65, 95
2, 41280, Note_on_c, 0, 62, 95
2, 41280, Note_on_c, 0, 57, 95
2, 41280, Note_on_c, 0, 50, 95
2, 41520, Note_off_c, 0, 69, 80
2, 41520, Note_off_c, 0, 65, 80
2, 41520, Note_off_c, 0, 62, 80
2, 41520, Note_off_c, 0, 57, 80
2, 41520, Note_off_c, 0, 50, 80
2, 41520, Note_on_c, 0, 69, 95
2, 41520, Note_on_c, 0, 65, 95
2, 41520, Note_on_c, 0, 62, 95
2, 41520, Note_on_c, 0, 57, 95
2, 41520, Note_on_c, 0, 50, 95
2, 41760, Note_off_c, 0, 69, 80
2, 41760, Note_off_c, 0, 65, 80
2, 41760, Note_off_c, 0, 62, 80
2, 41760, Note_off_c, 0, 57, 80
2, 41760, Note_off_c, 0, 50, 80
2, 41760, Note_on_c, 0, 69, 95
2, 41760, Note_on_c, 0, 65, 95
2, 41760, Note_on_c, 0, 62, 95
2, 41760, Note_on_c, 0, 57, 95
2, 41760, Note_on_c, 0, 50, 95
2, 42000, Note_off_c, 0, 69, 80
2, 42000, Note_off_c, 0, 65, 80
2, 42000, Note_off_c, 0, 62, 80
2, 42000, Note_off_c, 0, 57, 80
2, 42000, Note_off_c, 0, 50, 80
2, 42000, Note_on_c, 0, 69, 95
2, 42000, Note_on_c, 0, 65, 95
2, 42000, Note_on_c, 0, 62, 95
2, 42000, Note_on_c, 0, 57, 95
2, 42000, Note_on_c, 0, 50, 95
2, 42240, Note_off_c, 0, 69, 80
2, 42240, Note_off_c, 0, 65, 80
2, 42240, Note_off_c, 0, 62, 80
2, 42240, Note_off_c, 0, 57, 80
2, 42240, Note_off_c, 0, 50, 80
2, 42240, Note_on_c, 0, 64, 95
2, 42240, Note_on_c, 0, 61, 95
2, 42240, Note_on_c, 0, 57, 95
2, 42240, Note_on_c, 0, 52, 95
2, 42240, Note_on_c, 0, 45, 95
2, 42480, Note_off_c, 0, 64, 80
2, 42480, Note_off_c, 0, 61, 80
2, 42480, Note_off_c, 0, 57, 80
2, 42480, Note_off_c, 0, 52, 80
2, 42480, Note_off_c, 0, 45, 80
2, 42480, Note_on_c, 0, 64, 95
2, 42480, Note_on_c, 0, 61, 95
2, 42480, Note_on_c, 0, 57, 95
2, 42480, Note_on_c, 0, 52, 95
2, 42480, Note_on_c, 0, 45, 95
2, 42720, Note_off_c, 0, 64, 80
2, 42720, Note_off_c, 0, 61, 80
2, 42720, Note_off_c, 0, 57, 80
2, 42720, Note_off_c, 0, 52, 80
2, 42720, Note_off_c, 0, 45, 80
2, 42720, Note_on_c, 0, 64, 95
2, 42720, Note_on_c, 0, 61, 95
2, 42720, Note_on_c, 0, 57, 95
2, 42720, Note_on_c, 0, 52, 95
2, 42720, Note_on_c, 0, 45, 95
2, 42960, Note_off_c, 0, 64, 80
2, 42960, Note_off_c, 0, 61, 80
2, 42960, Note_off_c, 0, 57, 80
2, 42960, Note_off_c, 0, 52, 80
2, 42960, Note_off_c, 0, 45, 80
2, 42960, Note_on_c, 0, 64, 95
2, 42960, Note_on_c, 0, 61, 95
2, 42960, Note_on_c, 0, 57, 95
2, 42960, Note_on_c, 0, 52, 95
2, 42960, Note_on_c, 0, 45, 95
2, 43200, Note_off_c, 0, 64, 80
2, 43200, Note_off_c, 0, 61, 80
2, 43200, Note_off_c, 0, 57, 80
2, 43200, Note_off_c, 0, 52, 80
2, 43200, Note_off_c, 0, 45, 80
2, 43200, Note_on_c, 0, 67, 95
2, 43200, Note_on_c, 0, 62, 95
2, 43200, Note_on_c, 0, 60, 95
2, 43200, Note_on_c, 0, 55, 95
2, 43200, Note_on_c, 0, 48, 95
2, 43440, Note_off_c, 0, 67, 80
2, 43440, Note_off_c, 0, 62, 80
2, 43440, Note_off_c, 0, 60, 80
2, 43440, Note_off_c, 0, 55, 80
2, 43440, Note_off_c, 0, 48, 80
2, 43440, Note_on_c, 0, 67, 95
2, 43440, Note_on_c, 0, 62, 95
2, 43440, Note_on_c, 0, 60, 95
2, 43440, Note_on_c, 0, 55, 95
2, 43440, Note_on_c, 0, 48, 95
2, 43680, Note_off_c, 0, 67, 80
2, 43680, Note_off_c, 0, 62, 80
2, 43680, Note_off_c, 0, 60, 80
2, 43680, Note_off_c, 0, 55, 80
2, 43680, Note_off_c, 0, 48, 80
2, 43680, Note_on_c, 0, 67, 95
2, 43680, Note_on_c, 0, 62, 95
2, 43680, Note_on_c, 0, 60, 95
2, 43680, Note_on_c, 0, 55, 95
2, 43680, Note_on_c, 0, 48, 95
2, 43920, Note_off_c, 0, 67, 80
2, 43920, Note_off_c, 0, 62, 80
2, 43920, Note_off_c, 0, 60, 80
2, 43920, Note_off_c, 0, 55, 80
2, 43920, Note_off_c, 0, 48, 80
2, 43920, Note_on_c, 0, 67, 95
2, 43920, Note_on_c, 0, 62, 95
2, 43920, Note_on_c, 0, 60, 95
2, 43920, Note_on_c, 0, 55, 95
2, 43920, Note_on_c, 0, 48, 95
2, 44160, Note_off_c, 0, 67, 80
2, 44160, Note_off_c, 0, 62, 80
2, 44160, Note_off_c, 0, 60, 80
2, 44160, Note_off_c, 0, 55, 80
2, 44160, Note_off_c, 0, 48, 80
2, 44160, Note_on_c, 0, 62, 95
2, 44160, Note_on_c, 0, 59, 95
2, 44160, Note_on_c, 0, 55, 95
2, 44160, Note_on_c, 0, 50, 95
2, 44160, Note_on_c, 0, 43, 95
2, 44400, Note_off_c, 0, 62, 80
2, 44400, Note_off_c, 0, 59, 80
2, 44400, Note_off_c, 0, 55, 80
2, 44400, Note_off_c, 0, 50, 80
2, 44400, Note_off_c, 0, 43, 80
2, 44400, Note_on_c, 0, 62, 95
2, 44400, Note_on_c, 0, 59, 95
2, 44400, Note_on_c, 0, 55, 95
2, 44400, Note_on_c, 0, 50, 95
2, 44400, Note_on_c, 0, 43, 95
2, 44640, Note_off_c, 0, 62, 80
2, 44640, Note_off_c, 0, 59, 80
2, 44640, Note_off_c, 0, 55, 80
2, 44640, Note_off_c, 0, 50, 80
2, 44640, Note_off_c, 0, 43, 80
2, 44640, Note_on_c, 0, 62, 95
2, 44640, Note_on_c, 0, 59, 95
2, 44640, Note_on_c, 0, 55, 95
2, 44640, Note_on_c, 0, 50, 95
2, 44640, Note_on_c, 0, 43, 95
2, 44880, Note_off_c, 0, 62, 80
2, 44880, Note_off_c, 0, 59, 80
2, 44880, Note_off_c, 0, 55, 80
2, 44880, Note_off_c, 0, 50, 80
2, 44880, Note_off_c, 0, 43, 80
2, 44880, Note_on_c, 0, 62, 95
2, 44880, Note_on_c, 0, 59, 95
2, 44880, Note_on_c, 0, 55, 95
2, 44880, Note_on_c, 0, 50, 95
2, 44880, Note_on_c, 0, 43, 95
2, 45120, Note_off_c, 0, 62, 80
2, 45120, Note_off_c, 0, 59, 80
2, 45120, Note_off_c, 0, 55, 80
2, 45120, Note_off_c, 0, 50, 80
2, 45120, Note_off_c, 0, 43, 80
2, 45120, Note_on_c, 0, 69, 95
2, 45120, Note_on_c, 0, 65, 95
2, 45120, Note_on_c, 0, 62, 95
2, 45120, Note_on_c, 0, 57, 95
2, 45120, Note_on_c, 0, 50, 95
2, 45360, Note_off_c, 0, 69, 80
2, 45360, Note_off_c, 0, 65, 80
2, 45360, Note_off_c, 0, 62, 80
2, 45360, Note_off_c, 0, 57, 80
2, 45360, Note_off_c, 0, 50, 80
2, 45360, Note_on_c, 0, 69, 95
2, 45360, Note_on_c, 0, 65, 95
2, 45360, Note_on_c, 0, 62, 95
2, 45360, Note_on_c, 0, 57, 95
2, 45360, Note_on_c, 0, 50, 95
2, 45600, Note_off_c, 0, 69, 80
2, 45600, Note_off_c, 0, 65, 80
2, 45600, Note_off_c, 0, 62, 80
2, 45600, Note_off_c, 0, 57, 80
2, 45600, Note_off_c, 0, 50, 80
2, 45600, Note_on_c, 0, 69, 95
2, 45600, Note_on_c, 0, 65, 95
2, 45600, Note_on_c, 0, 62, 95
2, 45600, Note_on_c, 0, 57, 95
2, 45600, Note_on_c, 0, 50, 95
2, 45840, Note_off_c, 0, 69, 80
2, 45840, Note_off_c, 0, 65, 80
2, 45840, Note_off_c, 0, 62, 80
2, 45840, Note_off_c, 0, 57, 80
2, 45840, Note_off_c, 0, 50, 80
2, 45840, Note_on_c, 0, 69, 95
2, 45840, Note_on_c, 0, 65, 95
2, 45840, Note_on_c, 0, 62, 95
2, 45840, Note_on_c, 0, 57, 95
2, 45840, Note_on_c, 0, 50, 95
2, 46080, Note_off_c, 0, 69, 80
2, 46080, Note_off_c, 0, 65, 80
2, 46080, Note_off_c, 0, 62, 80
2, 46080, Note_off_c, 0, 57, 80
2, 46080, Note_off_c, 0, 50, 80
2, 46080, Note_on_c, 0, 64, 95
2, 46080, Note_on_c, 0, 61, 95
2, 46080, Note_on_c, 0, 57, 95
2, 46080, Note_on_c, 0, 52, 95
2, 46080, Note_on_c, 0, 45, 95
2, 46320, Note_off_c, 0, 64, 80
2, 46320, Note_off_c, 0, 61, 80
2, 46320, Note_off_c, 0, 57, 80
2, 46320, Note_off_c, 0, 52, 80
2, 46320, Note_off_c, 0, 45, 80
2, 46320, Note_on_c, 0, 64, 95
2, 46320, Note_on_c, 0, 61, 95
2, 46320, Note_on_c, 0, 57, 95
2, 46320, Note_on_c, 0, 52, 95
2, 46320, Note_on_c, 0, 45, 95
2, 46560, Note_off_c, 0, 64, 80
2, 46560, Note_off_c, 0, 61, 80
2, 46560, Note_off_c, 0, 57, 80
2, 46560, Note_off_c, 0, 52, 80
2, 46560, Note_off_c, 0, 45, 80
2, 46560, Note_on_c, 0, 64, 95
2, 46560, Note_on_c, 0, 61, 95
2, 46560, Note_on_c, 0, 57, 95
2, 46560, Note_on_c, 0, 52, 95
2, 46560, Note_on_c, 0, 45, 95
2, 46800, Note_off_c, 0, 64, 80
2, 46800, Note_off_c, 0, 61, 80
2, 46800, Note_off_c, 0, 57, 80
2, 46800, Note_off_c, 0, 52, 80
2, 46800, Note_off_c, 0, 45, 80
2, 46800, Note_on_c, 0, 64, 95
2, 46800, Note_on_c, 0, 61, 95
2, 46800, Note_on_c, 0, 57, 95
2, 46800, Note_on_c, 0, 52, 95
2, 46800, Note_on_c, 0, 45, 95
2, 47040, Note_off_c, 0, 64, 80
2, 47040, Note_off_c, 0, 61, 80
2, 47040, Note_off_c, 0, 57, 80
2, 47040, Note_off_c, 0, 52, 80
2, 47040, Note_off_c, 0, 45, 80
2, 47040, Note_on_c, 0, 67, 95
2, 47040, Note_on_c, 0, 62, 95
2, 47040, Note_on_c, 0, 60, 95
2, 47040, Note_on_c, 0, 55, 95
2, 47040, Note_on_c, 0, 48, 95
2, 47280, Note_off_c, 0, 67, 80
2, 47280, Note_off_c, 0, 62, 80
2, 47280, Note_off_c, 0, 60, 80
2, 47280, Note_off_c, 0, 55, 80
2, 47280, Note_off_c, 0, 48, 80
2, 47280, Note_on_c, 0, 67, 95
2, 47280, Note_on_c, 0, 62, 95
2, 47280, Note_on_c, 0, 60, 95
2, 47280, Note_on_c, 0, 55, 95
2, 47280, Note_on_c, 0, 48, 95
2, 47520, Note_off_c, 0, 67, 80
2, 47520, Note_off_c, 0, 62, 80
2, 47520, Note_off_c, 0, 60, 80
2, 47520, Note_off_c, 0, 55, 80
2, 47520, Note_off_c, 0, 48, 80
2, 47520, Note_on_c, 0, 67, 95
2, 47520, Note_on_c, 0, 62, 95
2, 47520, Note_on_c, 0, 60, 95
2, 47520, Note_on_c, 0, 55, 95
2, 47520, Note_on_c, 0, 48, 95
2, 47760, Note_off_c, 0, 67, 80
2, 47760, Note_off_c, 0, 62, 80
2, 47760, Note_off_c, 0, 60, 80
2, 47760, Note_off_c, 0, 55, 80
2, 47760, Note_off_c, 0, 48, 80
2, 47760, Note_on_c, 0, 67, 95
2, 47760, Note_on_c, 0, 62, 95
2, 47760, Note_on_c, 0, 60, 95
2, 47760, Note_on_c, 0, 55, 95
2, 47760, Note_on_c, 0, 48, 95
2, 48000, Note_off_c, 0, 67, 80
2, 48000, Note_off_c, 0, 62, 80
2, 48000, Note_off_c, 0, 60, 80
2, 48000, Note_off_c, 0, 55, 80
2, 48000, Note_off_c, 0, 48, 80
2, 48000, Note_on_c, 0, 62, 95
2, 48000, Note_on_c, 0, 59, 95
2, 48000, Note_on_c, 0, 55, 95
2, 48000, Note_on_c, 0, 50, 95
2, 48000, Note_on_c, 0, 43, 95
2, 48240, Note_off_c, 0, 62, 80
2, 48240, Note_off_c, 0, 59, 80
2, 48240, Note_off_c, 0, 55, 80
2, 48240, Note_off_c, 0, 50, 80
2, 48240, Note_off_c, 0, 43, 80
2, 48240, Note_on_c, 0, 62, 95
2, 48240, Note_on_c, 0, 59, 95
2, 48240, Note_on_c, 0, 55, 95
2, 48240, Note_on_c, 0, 50, 95
2, 48240, Note_on_c, 0, 43, 95
2, 48480, Note_off_c, 0, 62, 80
2, 48480, Note_off_c, 0, 59, 80
2, 48480, Note_off_c, 0, 55, 80
2, 48480, Note_off_c, 0, 50, 80
2, 48480, Note_off_c, 0, 43, 80
2, 48480, Note_on_c, 0, 62, 95
2, 48480, Note_on_c, 0, 59, 95
2, 48480, Note_on_c, 0, 55, 95
2, 48480, Note_on_c, 0, 50, 95
2, 48480, Note_on_c, 0, 43, 95
2, 48720, Note_off_c, 0, 62, 80
2, 48720, Note_off_c, 0, 59, 80
2, 48720, Note_off_c, 0, 55, 80
2, 48720, Note_off_c, 0, 50, 80
2, 48720, Note_off_c, 0, 43, 80
2, 48720, Note_on_c, 0, 62, 95
2, 48720, Note_on_c, 0, 59, 95
2, 48720, Note_on_c, 0, 55, 95
2, 48720, Note_on_c, 0, 50, 95
2, 48720, Note_on_c, 0, 43, 95
2, 48960, Note_off_c, 0, 62, 80
2, 48960, Note_off_c, 0, 59, 80
2, 48960, Note_off_c, 0, 55, 80
2, 48960, Note_off_c, 0, 50, 80
2, 48960, Note_off_c, 0, 43, 80
2, 48960, Note_on_c, 0, 69, 95
2, 48960, Note_on_c, 0, 65, 95
2, 48960, Note_on_c, 0, 62, 95
2, 48960, Note_on_c, 0, 57, 95
2, 48960, Note_on_c, 0, 50, 95
2, 49200, Note_off_c, 0, 69, 80
2, 49200, Note_off_c, 0, 65, 80
2, 49200, Note_off_c, 0, 62, 80
2, 49200, Note_off_c, 0, 57, 80
2, 49200, Note_off_c, 0, 50, 80
2, 49200, Note_on_c, 0, 69, 95
2, 49200, Note_on_c, 0, 65, 95
2, 49200, Note_on_c, 0, 62, 95
2, 49200, Note_on_c, 0, 57, 95
2, 49200, Note_on_c, 0, 50, 95
2, 49440, Note_off_c, 0, 69, 80
2, 49440, Note_off_c, 0, 65, 80
2, 49440, Note_off_c, 0, 62, 80
2, 49440, Note_off_c, 0, 57, 80
2, 49440, Note_off_c, 0, 50, 80
2, 49440, Note_on_c, 0, 69, 95
2, 49440, Note_on_c, 0, 65, 95
2, 49440, Note_on_c, 0, 62, 95
2, 49440, Note_on_c, 0, 57, 95
2, 49440, Note_on_c, 0, 50, 95
2, 49680, Note_off_c, 0, 69, 80
2, 49680, Note_off_c, 0, 65, 80
2, 49680, Note_off_c, 0, 62, 80
2, 49680, Note_off_c, 0, 57, 80
2, 49680, Note_off_c, 0, 50, 80
2, 49680, Note_on_c, 0, 69, 95
2, 49680, Note_on_c, 0, 65, 95
2, 49680, Note_on_c, 0, 62, 95
2, 49680, Note_on_c, 0, 57, 95
2, 49680, Note_on_c, 0, 50, 95
2, 49920, Note_off_c, 0, 69, 80
2, 49920, Note_off_c, 0, 65, 80
2, 49920, Note_off_c, 0, 62, 80
2, 49920, Note_off_c, 0, 57, 80
2, 49920, Note_off_c, 0, 50, 80
2, 49920, Note_on_c, 0, 64, 95
2, 49920, Note_on_c, 0, 61, 95
2, 49920, Note_on_c, 0, 57, 95
2, 49920, Note_on_c, 0, 52, 95
2, 49920, Note_on_c, 0, 45, 95
2, 50160, Note_off_c, 0, 64, 80
2, 50160, Note_off_c, 0, 61, 80
2, 50160, Note_off_c, 0, 57, 80
2, 50160, Note_off_c, 0, 52, 80
2, 50160, Note_off_c, 0, 45, 80
2, 50160, Note_on_c, 0, 64, 95
2, 50160, Note_on_c, 0, 61, 95
2, 50160, Note_on_c, 0, 57, 95
2, 50160, Note_on_c, 0, 52, 95
2, 50160, Note_on_c, 0, 45, 95
2, 50400, Note_off_c, 0, 64, 80
2, 50400, Note_off_c, 0, 61, 80
2, 50400, Note_off_c, 0, 57, 80
2, 50400, Note_off_c, 0, 52, 80
2, 50400, Note_off_c, 0, 45, 80
2, 50400, Note_on_c, 0, 64, 95
2, 50400, Note_on_c, 0, 61, 95
2, 50400, Note_on_c, 0, 57, 95
2, 50400, Note_on_c, 0, 52, 95
2, 50400, Note_on_c, 0, 45, 95
2, 50640, Note_off_c, 0, 64, 80
2, 50640, Note_off_c, 0, 61, 80
2, 50640, Note_off_c, 0, 57, 80
2, 50640, Note_off_c, 0, 52, 80
2, 50640, Note_off_c, 0, 45, 80
2, 50640, Note_on_c, 0, 64, 95
2, 50640, Note_on_c, 0, 61, 95
2, 50640, Note_on_c, 0, 57, 95
2, 50640, Note_on_c, 0, 52, 95
2, 50640, Note_on_c, 0, 45, 95
2, 50880, Note_off_c, 0, 64, 80
2, 50880, Note_off_c, 0, 61, 80
2, 50880, Note_off_c, 0, 57, 80
2, 50880, Note_off_c, 0, 52, 80
2, 50880, Note_off_c, 0, 45, 80
2, 50880, Note_on_c, 0, 67, 95
2, 50880, Note_on_c, 0, 62, 95
2, 50880, Note_on_c, 0, 60, 95
2, 50880, Note_on_c, 0, 55, 95
2, 50880, Note_on_c, 0, 48, 95
2, 51120, Note_off_c, 0, 67, 80
2, 51120, Note_off_c, 0, 62, 80
2, 51120, Note_off_c, 0, 60, 80
2, 51120, Note_off_c, 0, 55, 80
2, 51120, Note_off_c, 0, 48, 80
2, 51120, Note_on_c, 0, 67, 95
2, 51120, Note_on_c, 0, 62, 95
2, 51120, Note_on_c, 0, 60, 95
2, 51120, Note_on_c, 0, 55, 95
2, 51120, Note_on_c, 0, 48, 95
2, 51360, Note_off_c, 0, 67, 80
2, 51360, Note_off_c, 0, 62, 80
2, 51360, Note_off_c, 0, 60, 80
2, 51360, Note_off_c, 0, 55, 80
2, 51360, Note_off_c, 0, 48, 80
2, 51360, Note_on_c, 0, 67, 95
2, 51360, Note_on_c, 0, 62, 95
2, 51360, Note_on_c, 0, 60, 95
2, 51360, Note_on_c, 0, 55, 95
2, 51360, Note_on_c, 0, 48, 95
2, 51600, Note_off_c, 0, 67, 80
2, 51600, Note_off_c, 0, 62, 80
2, 51600, Note_off_c, 0, 60, 80
2, 51600, Note_off_c, 0, 55, 80
2, 51600, Note_off_c, 0, 48, 80
2, 51600, Note_on_c, 0, 67, 95
2, 51600, Note_on_c, 0, 62, 95
2, 51600, Note_on_c, 0, 60, 95
2, 51600, Note_on_c, 0, 55, 95
2, 51600, Note_on_c, 0, 48, 95
2, 51840, Note_off_c, 0, 67, 80
2, 51840, Note_off_c, 0, 62, 80
2, 51840, Note_off_c, 0, 60, 80
2, 51840, Note_off_c, 0, 55, 80
2, 51840, Note_off_c, 0, 48, 80
2, 51840, Note_on_c, 0, 62, 95
2, 51840, Note_on_c, 0, 59, 95
2, 51840, Note_on_c, 0, 55, 95
2, 51840, Note_on_c, 0, 50, 95
2, 51840, Note_on_c, 0, 43, 95
2, 52080, Note_off_c, 0, 62, 80
2, 52080, Note_off_c, 0, 59, 80
2, 52080, Note_off_c, 0, 55, 80
2, 52080, Note_off_c, 0, 50, 80
2, 52080, Note_off_c, 0, 43, 80
2, 52080, Note_on_c, 0, 62, 95
2, 52080, Note_on_c, 0, 59, 95
2, 52080, Note_on_c, 0, 55, 95
2, 52080, Note_on_c, 0, 50, 95
2, 52080, Note_on_c, 0, 43, 95
2, 52320, Note_off_c, 0, 62, 80
2, 52320, Note_off_c, 0, 59, 80
2, 52320, Note_off_c, 0, 55, 80
2, 52320, Note_off_c, 0, 50, 80
2, 52320, Note_off_c, 0, 43, 80
2, 52320, Note_on_c, 0, 62, 95
2, 52320, Note_on_c, 0, 59, 95
2, 52320, Note_on_c, 0, 55, 95
2, 52320, Note_on_c, 0, 50, 95
2, 52320, Note_on_c, 0, 43, 95
2, 52560, Note_off_c, 0, 62, 80
2, 52560, Note_off_c, 0, 59, 80
2, 52560, Note_off_c, 0, 55, 80
2, 52560, Note_off_c, 0, 50, 80
2, 52560, Note_off_c, 0, 43, 80
2, 52560, Note_on_c, 0, 62, 95
2, 52560, Note_on_c, 0, 59, 95
2, 52560, Note_on_c, 0, 55, 95
2, 52560, Note_on_c, 0, 50, 95
2, 52560, Note_on_c, 0, 43, 95
2, 52800, Note_off_c, 0, 62, 80
2, 52800, Note_off_c, 0, 59, 80
2, 52800, Note_off_c, 0, 55, 80
2, 52800, Note_off_c, 0, 50, 80
2, 52800, Note_off_c, 0, 43, 80
2, 52800, Note_on_c, 0, 69, 95
2, 52800, Note_on_c, 0, 65, 95
2, 52800, Note_on_c, 0, 62, 95
2, 52800, Note_on_c, 0, 57, 95
2, 52800, Note_on_c, 0, 50, 95
2, 53040, Note_off_c, 0, 69, 80
2, 53040, Note_off_c, 0, 65, 80
2, 53040, Note_off_c, 0, 62, 80
2, 53040, Note_off_c, 0, 57, 80
2, 53040, Note_off_c, 0, 50, 80
2, 53040, Note_on_c, 0, 69, 95
2, 53040, Note_on_c, 0, 65, 95
2, 53040, Note_on_c, 0, 62, 95
2, 53040, Note_on_c, 0, 57, 95
2, 53040, Note_on_c, 0, 50, 95
2, 53280, Note_off_c, 0, 69, 80
2, 53280, Note_off_c, 0, 65, 80
2, 53280, Note_off_c, 0, 62, 80
2, 53280, Note_off_c, 0, 57, 80
2, 53280, Note_off_c, 0, 50, 80
2, 53280, Note_on_c, 0, 69, 95
2, 53280, Note_on_c, 0, 65, 95
2, 53280, Note_on_c, 0, 62, 95
2, 53280, Note_on_c, 0, 57, 95
2, 53280, Note_on_c, 0, 50, 95
2, 53520, Note_off_c, 0, 69, 80
2, 53520, Note_off_c, 0, 65, 80
2, 53520, Note_off_c, 0, 62, 80
2, 53520, Note_off_c, 0, 57, 80
2, 53520, Note_off_c, 0, 50, 80
2, 53520, Note_on_c, 0, 69, 95
2, 53520, Note_on_c, 0, 65, 95
2, 53520, Note_on_c, 0, 62, 95
2, 53520, Note_on_c, 0, 57, 95
2, 53520, Note_on_c, 0, 50, 95
2, 53760, Note_off_c, 0, 69, 80
2, 53760, Note_off_c, 0, 65, 80
2, 53760, Note_off_c, 0, 62, 80
2, 53760, Note_off_c, 0, 57, 80
2, 53760, Note_off_c, 0, 50, 80
2, 53760, Note_on_c, 0, 64, 95
2, 53760, Note_on_c, 0, 61, 95
2, 53760, Note_on_c, 0, 57, 95
2, 53760, Note_on_c, 0, 52, 95
2, 53760, Note_on_c, 0, 45, 95
2, 54000, Note_off_c, 0, 64, 80
2, 54000, Note_off_c, 0, 61, 80
2, 54000, Note_off_c, 0, 57, 80
2, 54000, Note_off_c, 0, 52, 80
2, 54000, Note_off_c, 0, 45, 80
2, 54000, Note_on_c, 0, 64, 95
2, 54000, Note_on_c, 0, 61, 95
2, 54000, Note_on_c, 0, 57, 95
2, 54000, Note_on_c, 0, 52, 95
2, 54000, Note_on_c, 0, 45, 95
2, 54240, Note_off_c, 0, 64, 80
2, 54240, Note_off_c, 0, 61, 80
2, 54240, Note_off_c, 0, 57, 80
2, 54240, Note_off_c, 0, 52, 80
2, 54240, Note_off_c, 0, 45, 80
2, 54240, Note_on_c, 0, 64, 95
2, 54240, Note_on_c, 0, 61, 95
2, 54240, Note_on_c, 0, 57, 95
2, 54240, Note_on_c, 0, 52, 95
2, 54240, Note_on_c, 0, 45, 95
2, 54480, Note_off_c, 0, 64, 80
2, 54480, Note_off_c, 0, 61, 80
2, 54480, Note_off_c, 0, 57, 80
2, 54480, Note_off_c, 0, 52, 80
2, 54480, Note_off_c, 0, 45, 80
2, 54480, Note_on_c, 0, 64, 95
2, 54480, Note_on_c, 0, 61, 95
2, 54480, Note_on_c, 0, 57, 95
2, 54480, Note_on_c, 0, 52, 95
2, 54480, Note_on_c, 0, 45, 95
2, 54720, Note_off_c, 0, 64, 80
2, 54720, Note_off_c, 0, 61, 80
2, 54720, Note_off_c, 0, 57, 80
2, 54720, Note_off_c, 0, 52, 80
2, 54720, Note_off_c, 0, 45, 80
2, 54720, Note_on_c, 0, 67, 95
2, 54720, Note_on_c, 0, 62, 95
2, 54720, Note_on_c, 0, 60, 95
2, 54720, Note_on_c, 0, 55, 95
2, 54720, Note_on_c, 0, 48, 95
2, 54960, Note_off_c, 0, 67, 80
2, 54960, Note_off_c, 0, 62, 80
2, 54960, Note_off_c, 0, 60, 80
2, 54960, Note_off_c, 0, 55, 80
2, 54960, Note_off_c, 0, 48, 80
2, 54960, Note_on_c, 0, 67, 95
2, 54960, Note_on_c, 0, 62, 95
2, 54960, Note_on_c, 0, 60, 95
2, 54960, Note_on_c, 0, 55, 95
2, 54960, Note_on_c, 0, 48, 95
2, 55200, Note_off_c, 0, 67, 80
2, 55200, Note_off_c, 0, 62, 80
2, 55200, Note_off_c, 0, 60, 80
2, 55200, Note_off_c, 0, 55, 80
2, 55200, Note_off_c, 0, 48, 80
2, 55200, Note_on_c, 0, 67, 95
2, 55200, Note_on_c, 0, 62, 95
2, 55200, Note_on_c, 0, 60, 95
2, 55200, Note_on_c, 0, 55, 95
2, 55200, Note_on_c, 0, 48, 95
2, 55440, Note_off_c, 0, 67, 80
2, 55440, Note_off_c, 0, 62, 80
2, 55440, Note_off_c, 0, 60, 80
2, 55440, Note_off_c, 0, 55, 80
2, 55440, Note_off_c, 0, 48, 80
2, 55440, Note_on_c, 0, 67, 95
2, 55440, Note_on_c, 0, 62, 95
2, 55440, Note_on_c, 0, 60, 95
2, 55440, Note_on_c, 0, 55, 95
2, 55440, Note_on_c, 0, 48, 95
2, 55680, Note_off_c, 0, 67, 80
2, 55680, Note_off_c, 0, 62, 80
2, 55680, Note_off_c, 0, 60, 80
2, 55680, Note_off_c, 0, 55, 80
2, 55680, Note_off_c, 0, 48, 80
2, 55680, Note_on_c, 0, 62, 95
2, 55680, Note_on_c, 0, 59, 95
2, 55680, Note_on_c, 0, 55, 95
2, 55680, Note_on_c, 0, 50, 95
2, 55680, Note_on_c, 0, 43, 95
2, 55920, Note_off_c, 0, 62, 80
2, 55920, Note_off_c, 0, 59, 80
2, 55920, Note_off_c, 0, 55, 80
2, 55920, Note_off_c, 0, 50, 80
2, 55920, Note_off_c, 0, 43, 80
2, 55920, Note_on_c, 0, 62, 95
2, 55920, Note_on_c, 0, 59, 95
2, 55920, Note_on_c, 0, 55, 95
2, 55920, Note_on_c, 0, 50, 95
2, 55920, Note_on_c, 0, 43, 95
2, 56160, Note_off_c, 0, 62, 80
2, 56160, Note_off_c, 0, 59, 80
2, 56160, Note_off_c, 0, 55, 80
2, 56160, Note_off_c, 0, 50, 80
2, 56160, Note_off_c, 0, 43, 80
2, 56160, Note_on_c, 0, 62, 95
2, 56160, Note_on_c, 0, 59, 95
2, 56160, Note_on_c, 0, 55, 95
2, 56160, Note_on_c, 0, 50, 95
2, 56160, Note_on_c, 0, 43, 95
2, 56400, Note_off_c, 0, 62, 80
2, 56400, Note_off_c, 0, 59, 80
2, 56400, Note_off_c, 0, 55, 80
2, 56400, Note_off_c, 0, 50, 80
2, 56400, Note_off_c, 0, 43, 80
2, 56400, Note_on_c, 0, 62, 95
2, 56400, Note_on_c, 0, 59, 95
2, 56400, Note_on_c, 0, 55, 95
2, 56400, Note_on_c, 0, 50, 95
2, 56400, Note_on_c, 0, 43, 95
2, 56640, Note_off_c, 0, 62, 80
2, 56640, Note_off_c, 0, 59, 80
2, 56640, Note_off_c, 0, 55, 80
2, 56640, Note_off_c, 0, 50, 80
2, 56640, Note_off_c, 0, 43, 80
2, 56640, Note_on_c, 0, 69, 95
2, 56640, Note_on_c, 0, 65, 95
2, 56640, Note_on_c, 0, 62, 95
2, 56640, Note_on_c, 0, 57, 95
2, 56640, Note_on_c, 0, 50, 95
2, 56880, Note_off_c, 0, 69, 80
2, 56880, Note_off_c, 0, 65, 80
2, 56880, Note_off_c, 0, 62, 80
2, 56880, Note_off_c, 0, 57, 80
2, 56880, Note_off_c, 0, 50, 80
2, 56880, Note_on_c, 0, 69, 95
2, 56880, Note_on_c, 0, 65, 95
2, 56880, Note_on_c, 0, 62, 95
2, 56880, Note_on_c, 0, 57, 95
2, 56880, Note_on_c, 0, 50, 95
2, 57120, Note_off_c, 0, 69, 80
2, 57120, Note_off_c, 0, 65, 80
2, 57120, Note_off_c, 0, 62, 80
2, 57120, Note_off_c, 0, 57, 80
2, 57120, Note_off_c, 0, 50, 80
2, 57120, Note_on_c, 0, 69, 95
2, 57120, Note_on_c, 0, 65, 95
2, 57120, Note_on_c, 0, 62, 95
2, 57120, Note_on_c, 0, 57, 95
2, 57120, Note_on_c, 0, 50, 95
2, 57360, Note_off_c, 0, 69, 80
2, 57360, Note_off_c, 0, 65, 80
2, 57360, Note_off_c, 0, 62, 80
2, 57360, Note_off_c, 0, 57, 80
2, 57360, Note_off_c, 0, 50, 80
2, 57360, Note_on_c, 0, 69, 95
2, 57360, Note_on_c, 0, 65, 95
2, 57360, Note_on_c, 0, 62, 95
2, 57360, Note_on_c, 0, 57, 95
2, 57360, Note_on_c, 0, 50, 95
2, 57600, Note_off_c, 0, 69, 80
2, 57600, Note_off_c, 0, 65, 80
2, 57600, Note_off_c, 0, 62, 80
2, 57600, Note_off_c, 0, 57, 80
2, 57600, Note_off_c, 0, 50, 80
2, 57600, Note_on_c, 0, 64, 95
2, 57600, Note_on_c, 0, 61, 95
2, 57600, Note_on_c, 0, 57, 95
2, 57600, Note_on_c, 0, 52, 95
2, 57600, Note_on_c, 0, 45, 95
2, 57840, Note_off_c, 0, 64, 80
2, 57840, Note_off_c, 0, 61, 80
2, 57840, Note_off_c, 0, 57, 80
2, 57840, Note_off_c, 0, 52, 80
2, 57840, Note_off_c, 0, 45, 80
2, 57840, Note_on_c, 0, 64, 95
2, 57840, Note_on_c, 0, 61, 95
2, 57840, Note_on_c, 0, 57, 95
2, 57840, Note_on_c, 0, 52, 95
2, 57840, Note_on_c, 0, 45, 95
2, 58080, Note_off_c, 0, 64, 80
2, 58080, Note_off_c, 0, 61, 80
2, 58080, Note_off_c, 0, 57, 80
2, 58080, Note_off_c, 0, 52, 80
2, 58080, Note_off_c, 0, 45, 80
2, 58080, Note_on_c, 0, 64, 95
2, 58080, Note_on_c, 0, 61, 95
2, 58080, Note_on_c, 0, 57, 95
2, 58080, Note_on_c, 0, 52, 95
2, 58080, Note_on_c, 0, 45, 95
2, 58320, Note_off_c, 0, 64, 80
2, 58320, Note_off_c, 0, 61, 80
2, 58320, Note_off_c, 0, 57, 80
2, 58320, Note_off_c, 0, 52, 80
2, 58320, Note_off_c, 0, 45, 80
2, 58320, Note_on_c, 0, 64, 95
2, 58320, Note_on_c, 0, 61, 95
2, 58320, Note_on_c, 0, 57, 95
2, 58320, Note_on_c, 0, 52, 95
2, 58320, Note_on_c, 0, 45, 95
2, 58560, Note_off_c, 0, 64, 80
2, 58560, Note_off_c, 0, 61, 80
2, 58560, Note_off_c, 0, 57, 80
2, 58560, Note_off_c, 0, 52, 80
2, 58560, Note_off_c, 0, 45, 80
2, 58560, Note_on_c, 0, 67, 95
2, 58560, Note_on_c, 0, 62, 95
2, 58560, Note_on_c, 0, 60, 95
2, 58560, Note_on_c, 0, 55, 95
2, 58560, Note_on_c, 0, 48, 95
2, 58800, Note_off_c, 0, 67, 80
2, 58800, Note_off_c, 0, 62, 80
2, 58800, Note_off_c, 0, 60, 80
2, 58800, Note_off_c, 0, 55, 80
2, 58800, Note_off_c, 0, 48, 80
2, 58800, Note_on_c, 0, 67, 95
2, 58800, Note_on_c, 0, 62, 95
2, 58800, Note_on_c, 0, 60, 95
2, 58800, Note_on_c, 0, 55, 95
2, 58800, Note_on_c, 0, 48, 95
2, 59040, Note_off_c, 0, 67, 80
2, 59040, Note_off_c, 0, 62, 80
2, 59040, Note_off_c, 0, 60, 80
2, 59040, Note_off_c, 0, 55, 80
2, 59040, Note_off_c, 0, 48, 80
2, 59040, Note_on_c, 0, 67, 95
2, 59040, Note_on_c, 0, 62, 95
2, 59040, Note_on_c, 0, 60, 95
2, 59040, Note_on_c, 0, 55, 95
2, 59040, Note_on_c, 0, 48, 95
2, 59280, Note_off_c, 0, 67, 80
2, 59280, Note_off_c, 0, 62, 80
2, 59280, Note_off_c, 0, 60, 80
2, 59280, Note_off_c, 0, 55, 80
2, 59280, Note_off_c, 0, 48, 80
2, 59280, Note_on_c, 0, 67, 95
2, 59280, Note_on_c, 0, 62, 95
2, 59280, Note_on_c, 0, 60, 95
2, 59280, Note_on_c, 0, 55, 95
2, 59280, Note_on_c, 0, 48, 95
2, 59520, Note_off_c, 0, 67, 80
2, 59520, Note_off_c, 0, 62, 80
2, 59520, Note_off_c, 0, 60, 80
2, 59520, Note_off_c, 0, 55, 80
2, 59520, Note_off_c, 0, 48, 80
2, 59520, Note_on_c, 0, 62, 95
2, 59520, Note_on_c, 0, 59, 95
2, 59520, Note_on_c, 0, 55, 95
2, 59520, Note_on_c, 0, 50, 95
2, 59520, Note_on_c, 0, 43, 95
2, 59760, Note_off_c, 0, 62, 80
2, 59760, Note_off_c, 0, 59, 80
2, 59760, Note_off_c, 0, 55, 80
2, 59760, Note_off_c, 0, 50, 80
2, 59760, Note_off_c, 0, 43, 80
2, 59760, Note_on_c, 0, 62, 95
2, 59760, Note_on_c, 0, 59, 95
2, 59760, Note_on_c, 0, 55, 95
2, 59760, Note_on_c, 0, 50, 95
2, 59760, Note_on_c, 0, 43, 95
2, 60000, Note_off_c, 0, 62, 80
2, 60000, Note_off_c, 0, 59, 80
2, 60000, Note_off_c, 0, 55, 80
2, 60000, Note_off_c, 0, 50, 80
2, 60000, Note_off_c, 0, 43, 80
2, 60000, Note_on_c, 0, 62, 95
2, 60000, Note_on_c, 0, 59, 95
2, 60000, Note_on_c, 0, 55, 95
2, 60000, Note_on_c, 0, 50, 95
2, 60000, Note_on_c, 0, 43, 95
2, 60240, Note_off_c, 0, 62, 80
2, 60240, Note_off_c, 0, 59, 80
2, 60240, Note_off_c, 0, 55, 80
2, 60240, Note_off_c, 0, 50, 80
2, 60240, Note_off_c, 0, 43, 80
2, 60240, Note_on_c, 0, 62, 95
2, 60240, Note_on_c, 0, 59, 95
2, 60240, Note_on_c, 0, 55, 95
2, 60240, Note_on_c, 0, 50, 95
2, 60240, Note_on_c, 0, 43, 95
2, 60480, Note_off_c, 0, 62, 80
2, 60480, Note_off_c, 0, 59, 80
2, 60480, Note_off_c, 0, 55, 80
2, 60480, Note_off_c, 0, 50, 80
2, 60480, Note_off_c, 0, 43, 80
2, 60480, Note_on_c, 0, 69, 95
2, 60480, Note_on_c, 0, 65, 95
2, 60480, Note_on_c, 0, 62, 95
2, 60480, Note_on_c, 0, 57, 95
2, 60480, Note_on_c, 0, 50, 95
2, 60720, Note_off_c, 0, 69, 80
2, 60720, Note_off_c, 0, 65, 80
2, 60720, Note_off_c, 0, 62, 80
2, 60720, Note_off_c, 0, 57, 80
2, 60720, Note_off_c, 0, 50, 80
2, 60720, Note_on_c, 0, 69, 95
2, 60720, Note_on_c, 0, 65, 95
2, 60720, Note_on_c, 0, 62, 95
2, 60720, Note_on_c, 0, 57, 95
2, 60720, Note_on_c, 0, 50, 95
2, 60960, Note_off_c, 0, 69, 80
2, 60960, Note_off_c, 0, 65, 80
2, 60960, Note_off_c, 0, 62, 80
2, 60960, Note_off_c, 0, 57, 80
2, 60960, Note_off_c, 0, 50, 80
2, 60960, Note_on_c, 0, 69, 95
2, 60960, Note_on_c, 0, 65, 95
2, 60960, Note_on_c, 0, 62, 95
2, 60960, Note_on_c, 0, 57, 95
2, 60960, Note_on_c, 0, 50, 95
2, 61200, Note_off_c, 0, 69, 80
2, 61200, Note_off_c, 0, 65, 80
2, 61200, Note_off_c, 0, 62, 80
2, 61200, Note_off_c, 0, 57, 80
2, 61200, Note_off_c, 0, 50, 80
2, 61200, Note_on_c, 0, 69, 95
2, 61200, Note_on_c, 0, 65, 95
2, 61200, Note_on_c, 0, 62, 95
2, 61200, Note_on_c, 0, 57, 95
2, 61200, Note_on_c, 0, 50, 95
2, 61440, Note_off_c, 0, 69, 80
2, 61440, Note_off_c, 0, 65, 80
2, 61440, Note_off_c, 0, 62, 80
2, 61440, Note_off_c, 0, 57, 80
2, 61440, Note_off_c, 0, 50, 80
2, 61440, Note_on_c, 0, 64, 95
2, 61440, Note_on_c, 0, 61, 95
2, 61440, Note_on_c, 0, 57, 95
2, 61440, Note_on_c, 0, 52, 95
2, 61440, Note_on_c, 0, 45, 95
2, 61680, Note_off_c, 0, 64, 80
2, 61680, Note_off_c, 0, 61, 80
2, 61680, Note_off_c, 0, 57, 80
2, 61680, Note_off_c, 0, 52, 80
2, 61680, Note_off_c, 0, 45, 80
2, 61680, Note_on_c, 0, 64, 95
2, 61680, Note_on_c, 0, 61, 95
2, 61680, Note_on_c, 0, 57, 95
2, 61680, Note_on_c, 0, 52, 95
2, 61680, Note_on_c, 0, 45, 95
2, 61920, Note_off_c, 0, 64, 80
2, 61920, Note_off_c, 0, 61, 80
2, 61920, Note_off_c, 0, 57, 80
2, 61920, Note_off_c, 0, 52, 80
2, 61920, Note_off_c, 0, 45, 80
2, 61920, Note_on_c, 0, 64, 95
2, 61920, Note_on_c, 0, 61, 95
2, 61920, Note_on_c, 0, 57, 95
2, 61920, Note_on_c, 0, 52, 95
2, 61920, Note_on_c, 0, 45, 95
2, 62160, Note_off_c, 0, 64, 80
2, 62160, Note_off_c, 0, 61, 80
2, 62160, Note_off_c, 0, 57, 80
2, 62160, Note_off_c, 0, 52, 80
2, 62160, Note_off_c, 0, 45, 80
2, 62160, Note_on_c, 0, 64, 95
2, 62160, Note_on_c, 0, 61, 95
2, 62160, Note_on_c, 0, 57, 95
2, 62160, Note_on_c, 0, 52, 95
2, 62160, Note_on_c, 0, 45, 95
2, 62400, Note_off_c, 0, 64, 80
2, 62400, Note_off_c, 0, 61, 80
2, 62400, Note_off_c, 0, 57, 80
2, 62400, Note_off_c, 0, 52, 80
2, 62400, Note_off_c, 0, 45, 80
2, 62400, Note_on_c, 0, 67, 95
2, 62400, Note_on_c, 0, 62, 95
2, 62400, Note_on_c, 0, 60, 95
2, 62400, Note_on_c, 0, 55, 95
2, 62400, Note_on_c, 0, 48, 95
2, 62640, Note_off_c, 0, 67, 80
2, 62640, Note_off_c, 0, 62, 80
2, 62640, Note_off_c, 0, 60, 80
2, 62640, Note_off_c, 0, 55, 80
2, 62640, Note_off_c, 0, 48, 80
2, 62640, Note_on_c, 0, 67, 95
2, 62640, Note_on_c, 0, 62, 95
2, 62640, Note_on_c, 0, 60, 95
2, 62640, Note_on_c, 0, 55, 95
2, 62640, Note_on_c, 0, 48, 95
2, 62880, Note_off_c, 0, 67, 80
2, 62880, Note_off_c, 0, 62, 80
2, 62880, Note_off_c, 0, 60, 80
2, 62880, Note_off_c, 0, 55, 80
2, 62880, Note_off_c, 0, 48, 80
2, 62880, Note_on_c, 0, 67, 95
2, 62880, Note_on_c, 0, 62, 95
2, 62880, Note_on_c, 0, 60, 95
2, 62880, Note_on_c, 0, 55, 95
2, 62880, Note_on_c, 0, 48, 95
2, 63120, Note_off_c, 0, 67, 80
2, 63120, Note_off_c, 0, 62, 80
2, 63120, Note_off_c, 0, 60, 80
2, 63120, Note_off_c, 0, 55, 80
2, 63120, Note_off_c, 0, 48, 80
2, 63120, Note_on_c, 0, 67, 95
2, 63120, Note_on_c, 0, 62, 95
2, 63120, Note_on_c, 0, 60, 95
2, 63120, Note_on_c, 0, 55, 95
2, 63120, Note_on_c, 0, 48, 95
2, 63360, Note_off_c, 0, 67, 80
2, 63360, Note_off_c, 0, 62, 80
2, 63360, Note_off_c, 0, 60, 80
2, 63360, Note_off_c, 0, 55, 80
2, 63360, Note_off_c, 0, 48, 80
2, 63360, Note_on_c, 0, 62, 95
2, 63360, Note_on_c, 0, 59, 95
2, 63360, Note_on_c, 0, 55, 95
2, 63360, Note_on_c, 0, 50, 95
2, 63360, Note_on_c, 0, 43, 95
2, 63600, Note_off_c, 0, 62, 80
2, 63600, Note_off_c, 0, 59, 80
2, 63600, Note_off_c, 0, 55, 80
2, 63600, Note_off_c, 0, 50, 80
2, 63600, Note_off_c, 0, 43, 80
2, 63600, Note_on_c, 0, 62, 95
2, 63600, Note_on_c, 0, 59, 95
2, 63600, Note_on_c, 0, 55, 95
2, 63600, Note_on_c, 0, 50, 95
2, 63600, Note_on_c, 0, 43, 95
2, 63840, Note_off_c, 0, 62, 80
2, 63840, Note_off_c, 0, 59, 80
2, 63840, Note_off_c, 0, 55, 80
2, 63840, Note_off_c, 0, 50, 80
2, 63840, Note_off_c, 0, 43, 80
2, 63840, Note_on_c, 0, 62, 95
2, 63840, Note_on_c, 0, 59, 95
2, 63840, Note_on_c, 0, 55, 95
2, 63840, Note_on_c, 0, 50, 95
2, 63840, Note_on_c, 0, 43, 95
2, 64080, Note_off_c, 0, 62, 80
2, 64080, Note_off_c, 0, 59, 80
2, 64080, Note_off_c, 0, 55, 80
2, 64080, Note_off_c, 0, 50, 80
2, 64080, Note_off_c, 0, 43, 80
2, 64080, Note_on_c, 0, 62, 95
2, 64080, Note_on_c, 0, 59, 95
2, 64080, Note_on_c, 0, 55, 95
2, 64080, Note_on_c, 0, 50, 95
2, 64080, Note_on_c, 0, 43, 95
2, 64320, Note_off_c, 0, 62, 80
2, 64320, Note_off_c, 0, 59, 80
2, 64320, Note_off_c, 0, 55, 80
2, 64320, Note_off_c, 0, 50, 80
2, 64320, Note_off_c, 0, 43, 80
2, 64320, Note_on_c, 0, 69, 95
2, 64320, Note_on_c, 0, 65, 95
2, 64320, Note_on_c, 0, 62, 95
2, 64320, Note_on_c, 0, 57, 95
2, 64320, Note_on_c, 0, 50, 95
2, 64560, Note_off_c, 0, 69, 80
2, 64560, Note_off_c, 0, 65, 80
2, 64560, Note_off_c, 0, 62, 80
2, 64560, Note_off_c, 0, 57, 80
2, 64560, Note_off_c, 0, 50, 80
2, 64560, Note_on_c, 0, 69, 95
2, 64560, Note_on_c, 0, 65, 95
2, 64560, Note_on_c, 0, 62, 95
2, 64560, Note_on_c, 0, 57, 95
2, 64560, Note_on_c, 0, 50, 95
2, 64800, Note_off_c, 0, 69, 80
2, 64800, Note_off_c, 0, 65, 80
2, 64800, Note_off_c, 0, 62, 80
2, 64800, Note_off_c, 0, 57, 80
2, 64800, Note_off_c, 0, 50, 80
2, 64800, Note_on_c, 0, 69, 95
2, 64800, Note_on_c, 0, 65, 95
2, 64800, Note_on_c, 0, 62, 95
2, 64800, Note_on_c, 0, 57, 95
2, 64800, Note_on_c, 0, 50, 95
2, 65040, Note_off_c, 0, 69, 80
2, 65040, Note_off_c, 0, 65, 80
2, 65040, Note_off_c, 0, 62, 80
2, 65040, Note_off_c, 0, 57, 80
2, 65040, Note_off_c, 0, 50, 80
2, 65040, Note_on_c, 0, 69, 95
2, 65040, Note_on_c, 0, 65, 95
2, 65040, Note_on_c, 0, 62, 95
2, 65040, Note_on_c, 0, 57, 95
2, 65040, Note_on_c, 0, 50, 95
2, 65280, Note_off_c, 0, 69, 80
2, 65280, Note_off_c, 0, 65, 80
2, 65280, Note_off_c, 0, 62, 80
2, 65280, Note_off_c, 0, 57, 80
2, 65280, Note_off_c, 0, 50, 80
2, 65280, Note_on_c, 0, 64, 95
2, 65280, Note_on_c, 0, 61, 95
2, 65280, Note_on_c, 0, 57, 95
2, 65280, Note_on_c, 0, 52, 95
2, 65280, Note_on_c, 0, 45, 95
2, 65520, Note_off_c, 0, 64, 80
2, 65520, Note_off_c, 0, 61, 80
2, 65520, Note_off_c, 0, 57, 80
2, 65520, Note_off_c, 0, 52, 80
2, 65520, Note_off_c, 0, 45, 80
2, 65520, Note_on_c, 0, 64, 95
2, 65520, Note_on_c, 0, 61, 95
2, 65520, Note_on_c, 0, 57, 95
2, 65520, Note_on_c, 0, 52, 95
2, 65520, Note_on_c, 0, 45, 95
2, 65760, Note_off_c, 0, 64, 80
2, 65760, Note_off_c, 0, 61, 80
2, 65760, Note_off_c, 0, 57, 80
2, 65760, Note_off_c, 0, 52, 80
2, 65760, Note_off_c, 0, 45, 80
2, 65760, Note_on_c, 0, 64, 95
2, 65760, Note_on_c, 0, 61, 95
2, 65760, Note_on_c, 0, 57, 95
2, 65760, Note_on_c, 0, 52, 95
2, 65760, Note_on_c, 0, 45, 95
2, 66000, Note_off_c, 0, 64, 80
2, 66000, Note_off_c, 0, 61, 80
2, 66000, Note_off_c, 0, 57, 80
2, 66000, Note_off_c, 0, 52, 80
2, 66000, Note_off_c, 0, 45, 80
2, 66000, Note_on_c, 0, 64, 95
2, 66000, Note_on_c, 0, 61, 95
2, 66000, Note_on_c, 0, 57, 95
2, 66000, Note_on_c, 0, 52, 95
2, 66000, Note_on_c, 0, 45, 95
2, 66240, Note_off_c, 0, 64, 80
2, 66240, Note_off_c, 0, 61, 80
2, 66240, Note_off_c, 0, 57, 80
2, 66240, Note_off_c, 0, 52, 80
2, 66240, Note_off_c, 0, 45, 80
2, 66240, Note_on_c, 0, 67, 95
2, 66240, Note_on_c, 0, 62, 95
2, 66240, Note_on_c, 0, 60, 95
2, 66240, Note_on_c, 0, 55, 95
2, 66240, Note_on_c, 0, 48, 95
2, 66480, Note_off_c, 0, 67, 80
2, 66480, Note_off_c, 0, 62, 80
2, 66480, Note_off_c, 0, 60, 80
2, 66480, Note_off_c, 0, 55, 80
2, 66480, Note_off_c, 0, 48, 80
2, 66480, Note_on_c, 0, 67, 95
2, 66480, Note_on_c, 0, 62, 95
2, 66480, Note_on_c, 0, 60, 95
2, 66480, Note_on_c, 0, 55, 95
2, 66480, Note_on_c, 0, 48, 95
2, 66720, Note_off_c, 0, 67, 80
2, 66720, Note_off_c, 0, 62, 80
2, 66720, Note_off_c, 0, 60, 80
2, 66720, Note_off_c, 0, 55, 80
2, 66720, Note_off_c, 0, 48, 80
2, 66720, Note_on_c, 0, 67, 95
2, 66720, Note_on_c, 0, 62, 95
2, 66720, Note_on_c, 0, 60, 95
2, 66720, Note_on_c, 0, 55, 95
2, 66720, Note_on_c, 0, 48, 95
2, 66960, Note_off_c, 0, 67, 80
2, 66960, Note_off_c, 0, 62, 80
2, 66960, Note_off_c, 0, 60, 80
2, 66960, Note_off_c, 0, 55, 80
2, 66960, Note_off_c, 0, 48, 80
2, 66960, Note_on_c, 0, 67, 95
2, 66960, Note_on_c, 0, 62, 95
2, 66960, Note_on_c, 0, 60, 95
2, 66960, Note_on_c, 0, 55, 95
2, 66960, Note_on_c, 0, 48, 95
2, 67200, Note_off_c, 0, 67, 80
2, 67200, Note_off_c, 0, 62, 80
2, 67200, Note_off_c, 0, 60, 80
2, 67200, Note_off_c, 0, 55, 80
2, 67200, Note_off_c, 0, 48, 80
2, 67200, Note_on_c, 0, 62, 95
2, 67200, Note_on_c, 0, 59, 95
2, 67200, Note_on_c, 0, 55, 95
2, 67200, Note_on_c, 0, 50, 95
2, 67200, Note_on_c, 0, 43, 95
2, 67440, Note_off_c, 0, 62, 80
2, 67440, Note_off_c, 0, 59, 80
2, 67440, Note_off_c, 0, 55, 80
2, 67440, Note_off_c, 0, 50, 80
2, 67440, Note_off_c, 0, 43, 80
2, 67440, Note_on_c, 0, 62, 95
2, 67440, Note_on_c, 0, 59, 95
2, 67440, Note_on_c, 0, 55, 95
2, 67440, Note_on_c, 0, 50, 95
2, 67440, Note_on_c, 0, 43, 95
2, 67680, Note_off_c, 0, 62, 80
2, 67680, Note_off_c, 0, 59, 80
2, 67680, Note_off_c, 0, 55, 80
2, 67680, Note_off_c, 0, 50, 80
2, 67680, Note_off_c, 0, 43, 80
2, 67680, Note_on_c, 0, 62, 95
2, 67680, Note_on_c, 0, 59, 95
2, 67680, Note_on_c, 0, 55, 95
2, 67680, Note_on_c, 0, 50, 95
2, 67680, Note_on_c, 0, 43, 95
2, 67920, Note_off_c, 0, 62, 80
2, 67920, Note_off_c, 0, 59, 80
2, 67920, Note_off_c, 0, 55, 80
2, 67920, Note_off_c, 0, 50, 80
2, 67920, Note_off_c, 0, 43, 80
2, 67920, Note_on_c, 0, 62, 95
2, 67920, Note_on_c, 0, 59, 95
2, 67920, Note_on_c, 0, 55, 95
2, 67920, Note_on_c, 0, 50, 95
2, 67920, Note_on_c, 0, 43, 95
2, 68160, Note_off_c, 0, 62, 80
2, 68160, Note_off_c, 0, 59, 80
2, 68160, Note_off_c, 0, 55, 80
2, 68160, Note_off_c, 0, 50, 80
2, 68160, Note_off_c, 0, 43, 80
2, 68160, Note_on_c, 0, 69, 95
2, 68160, Note_on_c, 0, 65, 95
2, 68160, Note_on_c, 0, 62, 95
2, 68160, Note_on_c, 0, 57, 95
2, 68160, Note_on_c, 0, 50, 95
2, 68400, Note_off_c, 0, 69, 80
2, 68400, Note_off_c, 0, 65, 80
2, 68400, Note_off_c, 0, 62, 80
2, 68400, Note_off_c, 0, 57, 80
2, 68400, Note_off_c, 0, 50, 80
2, 68400, Note_on_c, 0, 69, 95
2, 68400, Note_on_c, 0, 65, 95
2, 68400, Note_on_c, 0, 62, 95
2, 68400, Note_on_c, 0, 57, 95
2, 68400, Note_on_c, 0, 50, 95
2, 68640, Note_off_c, 0, 69, 80
2, 68640, Note_off_c, 0, 65, 80
2, 68640, Note_off_c, 0, 62, 80
2, 68640, Note_off_c, 0, 57, 80
2, 68640, Note_off_c, 0, 50, 80
2, 68640, Note_on_c, 0, 69, 95
2, 68640, Note_on_c, 0, 65, 95
2, 68640, Note_on_c, 0, 62, 95
2, 68640, Note_on_c, 0, 57, 95
2, 68640, Note_on_c, 0, 50, 95
2, 68880, Note_off_c, 0, 69, 80
2, 68880, Note_off_c, 0, 65, 80
2, 68880, Note_off_c, 0, 62, 80
2, 68880, Note_off_c, 0, 57, 80
2, 68880, Note_off_c, 0, 50, 80
2, 68880, Note_on_c, 0, 69, 95
2, 68880, Note_on_c, 0, 65, 95
2, 68880, Note_on_c, 0, 62, 95
2, 68880, Note_on_c, 0, 57, 95
2, 68880, Note_on_c, 0, 50, 95
2, 69120, Note_off_c, 0, 69, 80
2, 69120, Note_off_c, 0, 65, 80
2, 69120, Note_off_c, 0, 62, 80
2, 69120, Note_off_c, 0, 57, 80
2, 69120, Note_off_c, 0, 50, 80
2, 69120, Note_on_c, 0, 64, 95
2, 69120, Note_on_c, 0, 61, 95
2, 69120, Note_on_c, 0, 57, 95
2, 69120, Note_on_c, 0, 52, 95
2, 69120, Note_on_c, 0, 45, 95
2, 69360, Note_off_c, 0, 64, 80
2, 69360, Note_off_c, 0, 61, 80
2, 69360, Note_off_c, 0, 57, 80
2, 69360, Note_off_c, 0, 52, 80
2, 69360, Note_off_c, 0, 45, 80
2, 69360, Note_on_c, 0, 64, 95
2, 69360, Note_on_c, 0, 61, 95
2, 69360, Note_on_c, 0, 57, 95
2, 69360, Note_on_c, 0, 52, 95
2, 69360, Note_on_c, 0, 45, 95
2, 69600, Note_off_c, 0, 64, 80
2, 69600, Note_off_c, 0, 61, 80
2, 69600, Note_off_c, 0, 57, 80
2, 69600, Note_off_c, 0, 52, 80
2, 69600, Note_off_c, 0, 45, 80
2, 69600, Note_on_c, 0, 64, 95
2, 69600, Note_on_c, 0, 61, 95
2, 69600, Note_on_c, 0, 57, 95
2, 69600, Note_on_c, 0, 52, 95
2, 69600, Note_on_c, 0, 45, 95
2, 69840, Note_off_c, 0, 64, 80
2, 69840, Note_off_c, 0, 61, 80
2, 69840, Note_off_c, 0, 57, 80
2, 69840, Note_off_c, 0, 52, 80
2, 69840, Note_off_c, 0, 45, 80
2, 69840, Note_on_c, 0, 64, 95
2, 69840, Note_on_c, 0, 61, 95
2, 69840, Note_on_c, 0, 57, 95
2, 69840, Note_on_c, 0, 52, 95
2, 69840, Note_on_c, 0, 45, 95
2, 70080, Note_off_c, 0, 64, 80
2, 70080, Note_off_c, 0, 61, 80
2, 70080, Note_off_c, 0, 57, 80
2, 70080, Note_off_c, 0, 52, 80
2, 70080, Note_off_c, 0, 45, 80
2, 70080, Note_on_c, 0, 67, 95
2, 70080, Note_on_c, 0, 62, 95
2, 70080, Note_on_c, 0, 60, 95
2, 70080, Note_on_c, 0, 55, 95
2, 70080, Note_on_c, 0, 48, 95
2, 70320, Note_off_c, 0, 67, 80
2, 70320, Note_off_c, 0, 62, 80
2, 70320, Note_off_c, 0, 60, 80
2, 70320, Note_off_c, 0, 55, 80
2, 70320, Note_off_c, 0, 48, 80
2, 70320, Note_on_c, 0, 67, 95
2, 70320, Note_on_c, 0, 62, 95
2, 70320, Note_on_c, 0, 60, 95
2, 70320, Note_on_c, 0, 55, 95
2, 70320, Note_on_c, 0, 48, 95
2, 70560, Note_off_c, 0, 67, 80
2, 70560, Note_off_c, 0, 62, 80
2, 70560, Note_off_c, 0, 60, 80
2, 70560, Note_off_c, 0, 55, 80
2, 70560, Note_off_c, 0, 48, 80
2, 75840, Note_on_c, 0, 69, 95
2, 75840, Note_on_c, 0, 65, 95
2, 75840, Note_on_c, 0, 62, 95
2, 75840, Note_on_c, 0, 57, 95
2, 75840, Note_on_c, 0, 50, 95
2, 76080, Note_off_c, 0, 69, 80
2, 76080, Note_off_c, 0, 65, 80
2, 76080, Note_off_c, 0, 62, 80
2, 76080, Note_off_c, 0, 57, 80
2, 76080, Note_off_c, 0, 50, 80
2, 76080, Note_on_c, 0, 69, 95
2, 76080, Note_on_c, 0, 65, 95
2, 76080, Note_on_c, 0, 62, 95
2, 76080, Note_on_c, 0, 57, 95
2, 76080, Note_on_c, 0, 50, 95
2, 76320, Note_off_c, 0, 69, 80
2, 76320, Note_off_c, 0, 65, 80
2, 76320, Note_off_c, 0, 62, 80
2, 76320, Note_off_c, 0, 57, 80
2, 76320, Note_off_c, 0, 50, 80
2, 76320, Note_on_c, 0, 69, 95
2, 76320, Note_on_c, 0, 65, 95
2, 76320, Note_on_c, 0, 62, 95
2, 76320, Note_on_c, 0, 57, 95
2, 76320, Note_on_c, 0, 50, 95
2, 76560, Note_off_c, 0, 69, 80
2, 76560, Note_off_c, 0, 65, 80
2, 76560, Note_off_c, 0, 62, 80
2, 76560, Note_off_c, 0, 57, 80
2, 76560, Note_off_c, 0, 50, 80
2, 76560, Note_on_c, 0, 69, 95
2, 76560, Note_on_c, 0, 65, 95
2, 76560, Note_on_c, 0, 62, 95
2, 76560, Note_on_c, 0, 57, 95
2, 76560, Note_on_c, 0, 50, 95
2, 76800, Note_off_c, 0, 69, 80
2, 76800, Note_off_c, 0, 65, 80
2, 76800, Note_off_c, 0, 62, 80
2, 76800, Note_off_c, 0, 57, 80
2, 76800, Note_off_c, 0, 50, 80
2, 76800, Note_on_c, 0, 64, 95
2, 76800, Note_on_c, 0, 61, 95
2, 76800, Note_on_c, 0, 57, 95
2, 76800, Note_on_c, 0, 52, 95
2, 76800, Note_on_c, 0, 45, 95
2, 77040, Note_off_c, 0, 64, 80
2, 77040, Note_off_c, 0, 61, 80
2, 77040, Note_off_c, 0, 57, 80
2, 77040, Note_off_c, 0, 52, 80
2, 77040, Note_off_c, 0, 45, 80
2, 77040, Note_on_c, 0, 64, 95
2, 77040, Note_on_c, 0, 61, 95
2, 77040, Note_on_c, 0, 57, 95
2, 77040, Note_on_c, 0, 52, 95
2, 77040, Note_on_c, 0, 45, 95
2, 77280, Note_off_c, 0, 64, 80
2, 77280, Note_off_c, 0, 61, 80
2, 77280, Note_off_c, 0, 57, 80
2, 77280, Note_off_c, 0, 52, 80
2, 77280, Note_off_c, 0, 45, 80
2, 77280, Note_on_c, 0, 64, 95
2, 77280, Note_on_c, 0, 61, 95
2, 77280, Note_on_c, 0, 57, 95
2, 77280, Note_on_c, 0, 52, 95
2, 77280, Note_on_c, 0, 45, 95
2, 77520, Note_off_c, 0, 64, 80
2, 77520, Note_off_c, 0, 61, 80
2, 77520, Note_off_c, 0, 57, 80
2, 77520, Note_off_c, 0, 52, 80
2, 77520, Note_off_c, 0, 45, 80
2, 77520, Note_on_c, 0, 64, 95
2, 77520, Note_on_c, 0, 61, 95
2, 77520, Note_on_c, 0, 57, 95
2, 77520, Note_on_c, 0, 52, 95
2, 77520, Note_on_c, 0, 45, 95
2, 77760, Note_off_c, 0, 64, 80
2, 77760, Note_off_c, 0, 61, 80
2, 77760, Note_off_c, 0, 57, 80
2, 77760, Note_off_c, 0, 52, 80
2, 77760, Note_off_c, 0, 45, 80
2, 77760, Note_on_c, 0, 67, 95
2, 77760, Note_on_c, 0, 62, 95
2, 77760, Note_on_c, 0, 60, 95
2, 77760, Note_on_c, 0, 55, 95
2, 77760, Note_on_c, 0, 48, 95
2, 78000, Note_off_c, 0, 67, 80
2, 78000, Note_off_c, 0, 62, 80
2, 78000, Note_off_c, 0, 60, 80
2, 78000, Note_off_c, 0, 55, 80
2, 78000, Note_off_c, 0, 48, 80
2, 78000, Note_on_c, 0, 67, 95
2, 78000, Note_on_c, 0, 62, 95
2, 78000, Note_on_c, 0, 60, 95
2, 78000, Note_on_c, 0, 55, 95
2, 78000, Note_on_c, 0, 48, 95
2, 78240, Note_off_c, 0, 67, 80
2, 78240, Note_off_c, 0, 62, 80
2, 78240, Note_off_c, 0, 60, 80
2, 78240, Note_off_c, 0, 55, 80
2, 78240, Note_off_c, 0, 48, 80
2, 78240, Note_on_c, 0, 67, 95
2, 78240, Note_on_c, 0, 62, 95
2, 78240, Note_on_c, 0, 60, 95
2, 78240, Note_on_c, 0, 55, 95
2, 78240, Note_on_c, 0, 48, 95
2, 78480, Note_off_c, 0, 67, 80
2, 78480, Note_off_c, 0, 62, 80
2, 78480, Note_off_c, 0, 60, 80
2, 78480, Note_off_c, 0, 55, 80
2, 78480, Note_off_c, 0, 48, 80
2, 78480, Note_on_c, 0, 67, 95
2, 78480, Note_on_c, 0, 62, 95
2, 78480, Note_on_c, 0, 60, 95
2, 78480, Note_on_c, 0, 55, 95
2, 78480, Note_on_c, 0, 48, 95
2, 78720, Note_off_c, 0, 67, 80
2, 78720, Note_off_c, 0, 62, 80
2, 78720, Note_off_c, 0, 60, 80
2, 78720, Note_off_c, 0, 55, 80
2, 78720, Note_off_c, 0, 48, 80
2, 78720, Note_on_c, 0, 62, 95
2, 78720, Note_on_c, 0, 59, 95
2, 78720, Note_on_c, 0, 55, 95
2, 78720, Note_on_c, 0, 50, 95
2, 78720, Note_on_c, 0, 43, 95
2, 78960, Note_off_c, 0, 62, 80
2, 78960, Note_off_c, 0, 59, 80
2, 78960, Note_off_c, 0, 55, 80
2, 78960, Note_off_c, 0, 50, 80
2, 78960, Note_off_c, 0, 43, 80
2, 78960, Note_on_c, 0, 62, 95
2, 78960, Note_on_c, 0, 59, 95
2, 78960, Note_on_c, 0, 55, 95
2, 78960, Note_on_c, 0, 50, 95
2, 78960, Note_on_c, 0, 43, 95
2, 79200, Note_off_c, 0, 62, 80
2, 79200, Note_off_c, 0, 59, 80
2, 79200, Note_off_c, 0, 55, 80
2, 79200, Note_off_c, 0, 50, 80
2, 79200, Note_off_c, 0, 43, 80
2, 79200, Note_on_c, 0, 62, 95
2, 79200, Note_on_c, 0, 59, 95
2, 79200, Note_on_c, 0, 55, 95
2, 79200, Note_on_c, 0, 50, 95
2, 79200, Note_on_c, 0, 43, 95
2, 79440, Note_off_c, 0, 62, 80
2, 79440, Note_off_c, 0, 59, 80
2, 79440, Note_off_c, 0, 55, 80
2, 79440, Note_off_c, 0, 50, 80
2, 79440, Note_off_c, 0, 43, 80
2, 79440, Note_on_c, 0, 62, 95
2, 79440, Note_on_c, 0, 59, 95
2, 79440, Note_on_c, 0, 55, 95
2, 79440, Note_on_c, 0, 50, 95
2, 79440, Note_on_c, 0, 43, 95
2, 79680, Note_off_c, 0, 62, 80
2, 79680, Note_off_c, 0, 59, 80
2, 79680, Note_off_c, 0, 55, 80
2, 79680, Note_off_c, 0, 50, 80
2, 79680, Note_off_c, 0, 43, 80
2, 79680, Note_on_c, 0, 69, 95
2, 79680, Note_on_c, 0, 65, 95
2, 79680, Note_on_c, 0, 62, 95
2, 79680, Note_on_c, 0, 57, 95
2, 79680, Note_on_c, 0, 50, 95
2, 79920, Note_off_c, 0, 69, 80
2, 79920, Note_off_c, 0, 65, 80
2, 79920, Note_off_c, 0, 62, 80
2, 79920, Note_off_c, 0, 57, 80
2, 79920, Note_off_c, 0, 50, 80
2, 79920, Note_on_c, 0, 69, 95
2, 79920, Note_on_c, 0, 65, 95
2, 79920, Note_on_c, 0, 62, 95
2, 79920, Note_on_c, 0, 57, 95
2, 79920, Note_on_c, 0, 50, 95
2, 80160, Note_off_c, 0, 69, 80
2, 80160, Note_off_c, 0, 65, 80
2, 80160, Note_off_c, 0, 62, 80
2, 80160, Note_off_c, 0, 57, 80
2, 80160, Note_off_c, 0, 50, 80
2, 80160, Note_on_c, 0, 69, 95
2, 80160, Note_on_c, 0, 65, 95
2, 80160, Note_on_c, 0, 62, 95
2, 80160, Note_on_c, 0, 57, 95
2, 80160, Note_on_c, 0, 50, 95
2, 80400, Note_off_c, 0, 69, 80
2, 80400, Note_off_c, 0, 65, 80
2, 80400, Note_off_c, 0, 62, 80
2, 80400, Note_off_c, 0, 57, 80
2, 80400, Note_off_c, 0, 50, 80
2, 80400, Note_on_c, 0, 69, 95
2, 80400, Note_on_c, 0, 65, 95
2, 80400, Note_on_c, 0, 62, 95
2, 80400, Note_on_c, 0, 57, 95
2, 80400, Note_on_c, 0, 50, 95
2, 80640, Note_off_c, 0, 69, 80
2, 80640, Note_off_c, 0, 65, 80
2, 80640, Note_off_c, 0, 62, 80
2, 80640, Note_off_c, 0, 57, 80
2, 80640, Note_off_c, 0, 50, 80
2, 80640, Note_on_c, 0, 64, 95
2, 80640, Note_on_c, 0, 61, 95
2, 80640, Note_on_c, 0, 57, 95
2, 80640, Note_on_c, 0, 52, 95
2, 80640, Note_on_c, 0, 45, 95
2, 80880, Note_off_c, 0, 64, 80
2, 80880, Note_off_c, 0, 61, 80
2, 80880, Note_off_c, 0, 57, 80
2, 80880, Note_off_c, 0, 52, 80
2, 80880, Note_off_c, 0, 45, 80
2, 80880, Note_on_c, 0, 64, 95
2, 80880, Note_on_c, 0, 61, 95
2, 80880, Note_on_c, 0, 57, 95
2, 80880, Note_on_c, 0, 52, 95
2, 80880, Note_on_c, 0, 45, 95
2, 81120, Note_off_c, 0, 64, 80
2, 81120, Note_off_c, 0, 61, 80
2, 81120, Note_off_c, 0, 57, 80
2, 81120, Note_off_c, 0, 52, 80
2, 81120, Note_off_c, 0, 45, 80
2, 81120, Note_on_c, 0, 64, 95
2, 81120, Note_on_c, 0, 61, 95
2, 81120, Note_on_c, 0, 57, 95
2, 81120, Note_on_c, 0, 52, 95
2, 81120, Note_on_c, 0, 45, 95
2, 81360, Note_off_c, 0, 64, 80
2, 81360, Note_off_c, 0, 61, 80
2, 81360, Note_off_c, 0, 57, 80
2, 81360, Note_off_c, 0, 52, 80
2, 81360, Note_off_c, 0, 45, 80
2, 81360, Note_on_c, 0, 64, 95
2, 81360, Note_on_c, 0, 61, 95
2, 81360, Note_on_c, 0, 57, 95
2, 81360, Note_on_c, 0, 52, 95
2, 81360, Note_on_c, 0, 45, 95
2, 81600, Note_off_c, 0, 64, 80
2, 81600, Note_off_c, 0, 61, 80
2, 81600, Note_off_c, 0, 57, 80
2, 81600, Note_off_c, 0, 52, 80
2, 81600, Note_off_c, 0, 45, 80
2, 81600, Note_on_c, 0, 67, 95
2, 81600, Note_on_c, 0, 62, 95
2, 81600, Note_on_c, 0, 60, 95
2, 81600, Note_on_c, 0, 55, 95
2, 81600, Note_on_c, 0, 48, 95
2, 81840, Note_off_c, 0, 67, 80
2, 81840, Note_off_c, 0, 62, 80
2, 81840, Note_off_c, 0, 60, 80
2, 81840, Note_off_c, 0, 55, 80
2, 81840, Note_off_c, 0, 48, 80
2, 81840, Note_on_c, 0, 67, 95
2, 81840, Note_on_c, 0, 62, 95
2, 81840, Note_on_c, 0, 60, 95
2, 81840, Note_on_c, 0, 55, 95
2, 81840, Note_on_c, 0, 48, 95
2, 82080, Note_off_c, 0, 67, 80
2, 82080, Note_off_c, 0, 62, 80
2, 82080, Note_off_c, 0, 60, 80
2, 82080, Note_off_c, 0, 55, 80
2, 82080, Note_off_c, 0, 48, 80
2, 82080, Note_on_c, 0, 67, 95
2, 82080, Note_on_c, 0, 62, 95
2, 82080, Note_on_c, 0, 60, 95
2, 82080, Note_on_c, 0, 55, 95
2, 82080, Note_on_c, 0, 48, 95
2, 82320, Note_off_c, 0, 67, 80
2, 82320, Note_off_c, 0, 62, 80
2, 82320, Note_off_c, 0, 60, 80
2, 82320, Note_off_c, 0, 55, 80
2, 82320, Note_off_c, 0, 48, 80
2, 82320, Note_on_c, 0, 67, 95
2, 82320, Note_on_c, 0, 62, 95
2, 82320, Note_on_c, 0, 60, 95
2, 82320, Note_on_c, 0, 55, 95
2, 82320, Note_on_c, 0, 48, 95
2, 82560, Note_off_c, 0, 67, 80
2, 82560, Note_off_c, 0, 62, 80
2, 82560, Note_off_c, 0, 60, 80
2, 82560, Note_off_c, 0, 55, 80
2, 82560, Note_off_c, 0, 48, 80
2, 82560, Note_on_c, 0, 62, 95
2, 82560, Note_on_c, 0, 59, 95
2, 82560, Note_on_c, 0, 55, 95
2, 82560, Note_on_c, 0, 50, 95
2, 82560, Note_on_c, 0, 43, 95
2, 82800, Note_off_c, 0, 62, 80
2, 82800, Note_off_c, 0, 59, 80
2, 82800, Note_off_c, 0, 55, 80
2, 82800, Note_off_c, 0, 50, 80
2, 82800, Note_off_c, 0, 43, 80
2, 82800, Note_on_c, 0, 62, 95
2, 82800, Note_on_c, 0, 59, 95
2, 82800, Note_on_c, 0, 55, 95
2, 82800, Note_on_c, 0, 50, 95
2, 82800, Note_on_c, 0, 43, 95
2, 83040, Note_off_c, 0, 62, 80
2, 83040, Note_off_c, 0, 59, 80
2, 83040, Note_off_c, 0, 55, 80
2, 83040, Note_off_c, 0, 50, 80
2, 83040, Note_off_c, 0, 43, 80
2, 83040, Note_on_c, 0, 62, 95
2, 83040, Note_on_c, 0, 59, 95
2, 83040, Note_on_c, 0, 55, 95
2, 83040, Note_on_c, 0, 50, 95
2, 83040, Note_on_c, 0, 43, 95
2, 83280, Note_off_c, 0, 62, 80
2, 83280, Note_off_c, 0, 59, 80
2, 83280, Note_off_c, 0, 55, 80
2, 83280, Note_off_c, 0, 50, 80
2, 83280, Note_off_c, 0, 43, 80
2, 83280, Note_on_c, 0, 62, 95
2, 83280, Note_on_c, 0, 59, 95
2, 83280, Note_on_c, 0, 55, 95
2, 83280, Note_on_c, 0, 50, 95
2, 83280, Note_on_c, 0, 43, 95
2, 83520, Note_off_c, 0, 62, 80
2, 83520, Note_off_c, 0, 59, 80
2, 83520, Note_off_c, 0, 55, 80
2, 83520, Note_off_c, 0, 50, 80
2, 83520, Note_off_c, 0, 43, 80
2, 83520, Note_on_c, 0, 69, 95
2, 83520, Note_on_c, 0, 65, 95
2, 83520, Note_on_c, 0, 62, 95
2, 83520, Note_on_c, 0, 57, 95
2, 83520, Note_on_c, 0, 50, 95
2, 83760, Note_off_c, 0, 69, 80
2, 83760, Note_off_c, 0, 65, 80
2, 83760, Note_off_c, 0, 62, 80
2, 83760, Note_off_c, 0, 57, 80
2, 83760, Note_off_c, 0, 50, 80
2, 83760, Note_on_c, 0, 69, 95
2, 83760, Note_on_c, 0, 65, 95
2, 83760, Note_on_c, 0, 62, 95
2, 83760, Note_on_c, 0, 57, 95
2, 83760, Note_on_c, 0, 50, 95
2, 84000, Note_off_c, 0, 69, 80
2, 84000, Note_off_c, 0, 65, 80
2, 84000, Note_off_c, 0, 62, 80
2, 84000, Note_off_c, 0, 57, 80
2, 84000, Note_off_c, 0, 50, 80
2, 84000, Note_on_c, 0, 69, 95
2, 84000, Note_on_c, 0, 65, 95
2, 84000, Note_on_c, 0, 62, 95
2, 84000, Note_on_c, 0, 57, 95
2, 84000, Note_on_c, 0, 50, 95
2, 84240, Note_off_c, 0, 69, 80
2, 84240, Note_off_c, 0, 65, 80
2, 84240, Note_off_c, 0, 62, 80
2, 84240, Note_off_c, 0, 57, 80
2, 84240, Note_off_c, 0, 50, 80
2, 84240, Note_on_c, 0, 69, 95
2, 84240, Note_on_c, 0, 65, 95
2, 84240, Note_on_c, 0, 62, 95
2, 84240, Note_on_c, 0, 57, 95
2, 84240, Note_on_c, 0, 50, 95
2, 84480, Note_off_c, 0, 69, 80
2, 84480, Note_off_c, 0, 65, 80
2, 84480, Note_off_c, 0, 62, 80
2, 84480, Note_off_c, 0, 57, 80
2, 84480, Note_off_c, 0, 50, 80
2, 84480, Note_on_c, 0, 64, 95
2, 84480, Note_on_c, 0, 61, 95
2, 84480, Note_on_c, 0, 57, 95
2, 84480, Note_on_c, 0, 52, 95
2, 84480, Note_on_c, 0, 45, 95
2, 84720, Note_off_c, 0, 64, 80
2, 84720, Note_off_c, 0, 61, 80
2, 84720, Note_off_c, 0, 57, 80
2, 84720, Note_off_c, 0, 52, 80
2, 84720, Note_off_c, 0, 45, 80
2, 84720, Note_on_c, 0, 64, 95
2, 84720, Note_on_c, 0, 61, 95
2, 84720, Note_on_c, 0, 57, 95
2, 84720, Note_on_c, 0, 52, 95
2, 84720, Note_on_c, 0, 45, 95
2, 84960, Note_off_c, 0, 64, 80
2, 84960, Note_off_c, 0, 61, 80
2, 84960, Note_off_c, 0, 57, 80
2, 84960, Note_off_c, 0, 52, 80
2, 84960, Note_off_c, 0, 45, 80
2, 84960, Note_on_c, 0, 64, 95
2, 84960, Note_on_c, 0, 61, 95
2, 84960, Note_on_c, 0, 57, 95
2, 84960, Note_on_c, 0, 52, 95
2, 84960, Note_on_c, 0, 45, 95
2, 85200, Note_off_c, 0, 64, 80
2, 85200, Note_off_c, 0, 61, 80
2, 85200, Note_off_c, 0, 57, 80
2, 85200, Note_off_c, 0, 52, 80
2, 85200, Note_off_c, 0, 45, 80
2, 85200, Note_on_c, 0, 64, 95
2, 85200, Note_on_c, 0, 61, 95
2, 85200, Note_on_c, 0, 57, 95
2, 85200, Note_on_c, 0, 52, 95
2, 85200, Note_on_c, 0, 45, 95
2, 85440, Note_off_c, 0, 64, 80
2, 85440, Note_off_c, 0, 61, 80
2, 85440, Note_off_c, 0, 57, 80
2, 85440, Note_off_c, 0, 52, 80
2, 85440, Note_off_c, 0, 45, 80
2, 85440, Note_on_c, 0, 67, 95
2, 85440, Note_on_c, 0, 62, 95
2, 85440, Note_on_c, 0, 60, 95
2, 85440, Note_on_c, 0, 55, 95
2, 85440, Note_on_c, 0, 48, 95
2, 85680, Note_off_c, 0, 67, 80
2, 85680, Note_off_c, 0, 62, 80
2, 85680, Note_off_c, 0, 60, 80
2, 85680, Note_off_c, 0, 55, 80
2, 85680, Note_off_c, 0, 48, 80
2, 85680, Note_on_c, 0, 67, 95
2, 85680, Note_on_c, 0, 62, 95
2, 85680, Note_on_c, 0, 60, 95
2, 85680, Note_on_c, 0, 55, 95
2, 85680, Note_on_c, 0, 48, 95
2, 85920, Note_off_c, 0, 67, 80
2, 85920, Note_off_c, 0, 62, 80
2, 85920, Note_off_c, 0, 60, 80
2, 85920, Note_off_c, 0, 55, 80
2, 85920, Note_off_c, 0, 48, 80
2, 85920, Note_on_c, 0, 67, 95
2, 85920, Note_on_c, 0, 62, 95
2, 85920, Note_on_c, 0, 60, 95
2, 85920, Note_on_c, 0, 55, 95
2, 85920, Note_on_c, 0, 48, 95
2, 86160, Note_off_c, 0, 67, 80
2, 86160, Note_off_c, 0, 62, 80
2, 86160, Note_off_c, 0, 60, 80
2, 86160, Note_off_c, 0, 55, 80
2, 86160, Note_off_c, 0, 48, 80
2, 86160, Note_on_c, 0, 67, 95
2, 86160, Note_on_c, 0, 62, 95
2, 86160, Note_on_c, 0, 60, 95
2, 86160, Note_on_c, 0, 55, 95
2, 86160, Note_on_c, 0, 48, 95
2, 86400, Note_off_c, 0, 67, 80
2, 86400, Note_off_c, 0, 62, 80
2, 86400, Note_off_c, 0, 60, 80
2, 86400, Note_off_c, 0, 55, 80
2, 86400, Note_off_c, 0, 48, 80
2, 86400, Note_on_c, 0, 62, 95
2, 86400, Note_on_c, 0, 59, 95
2, 86400, Note_on_c, 0, 55, 95
2, 86400, Note_on_c, 0, 50, 95
2, 86400, Note_on_c, 0, 43, 95
2, 86640, Note_off_c, 0, 62, 80
2, 86640, Note_off_c, 0, 59, 80
2, 86640, Note_off_c, 0, 55, 80
2, 86640, Note_off_c, 0, 50, 80
2, 86640, Note_off_c, 0, 43, 80
2, 86640, Note_on_c, 0, 62, 95
2, 86640, Note_on_c, 0, 59, 95
2, 86640, Note_on_c, 0, 55, 95
2, 86640, Note_on_c, 0, 50, 95
2, 86640, Note_on_c, 0, 43, 95
2, 86880, Note_off_c, 0, 62, 80
2, 86880, Note_off_c, 0, 59, 80
2, 86880, Note_off_c, 0, 55, 80
2, 86880, Note_off_c, 0, 50, 80
2, 86880, Note_off_c, 0, 43, 80
2, 86880, Note_on_c, 0, 62, 95
2, 86880, Note_on_c, 0, 59, 95
2, 86880, Note_on_c, 0, 55, 95
2, 86880, Note_on_c, 0, 50, 95
2, 86880, Note_on_c, 0, 43, 95
2, 87120, Note_off_c, 0, 62, 80
2, 87120, Note_off_c, 0, 59, 80
2, 87120, Note_off_c, 0, 55, 80
2, 87120, Note_off_c, 0, 50, 80
2, 87120, Note_off_c, 0, 43, 80
2, 87120, Note_on_c, 0, 62, 95
2, 87120, Note_on_c, 0, 59, 95
2, 87120, Note_on_c, 0, 55, 95
2, 87120, Note_on_c, 0, 50, 95
2, 87120, Note_on_c, 0, 43, 95
2, 87360, Note_off_c, 0, 62, 80
2, 87360, Note_off_c, 0, 59, 80
2, 87360, Note_off_c, 0, 55, 80
2, 87360, Note_off_c, 0, 50, 80
2, 87360, Note_off_c, 0, 43, 80
2, 87360, Note_on_c, 0, 69, 95
2, 87360, Note_on_c, 0, 65, 95
2, 87360, Note_on_c, 0, 62, 95
2, 87360, Note_on_c, 0, 57, 95
2, 87360, Note_on_c, 0, 50, 95
2, 87600, Note_off_c, 0, 69, 80
2, 87600, Note_off_c, 0, 65, 80
2, 87600, Note_off_c, 0, 62, 80
2, 87600, Note_off_c, 0, 57, 80
2, 87600, Note_off_c, 0, 50, 80
2, 87600, Note_on_c, 0, 69, 95
2, 87600, Note_on_c, 0, 65, 95
2, 87600, Note_on_c, 0, 62, 95
2, 87600, Note_on_c, 0, 57, 95
2, 87600, Note_on_c, 0, 50, 95
2, 87840, Note_off_c, 0, 69, 80
2, 87840, Note_off_c, 0, 65, 80
2, 87840, Note_off_c, 0, 62, 80
2, 87840, Note_off_c, 0, 57, 80
2, 87840, Note_off_c, 0, 50, 80
2, 87840, Note_on_c, 0, 69, 95
2, 87840, Note_on_c, 0, 65, 95
2, 87840, Note_on_c, 0, 62, 95
2, 87840, Note_on_c, 0, 57, 95
2, 87840, Note_on_c, 0, 50, 95
2, 88080, Note_off_c, 0, 69, 80
2, 88080, Note_off_c, 0, 65, 80
2, 88080, Note_off_c, 0, 62, 80
2, 88080, Note_off_c, 0, 57, 80
2, 88080, Note_off_c, 0, 50, 80
2, 88080, Note_on_c, 0, 69, 95
2, 88080, Note_on_c, 0, 65, 95
2, 88080, Note_on_c, 0, 62, 95
2, 88080, Note_on_c, 0, 57, 95
2, 88080, Note_on_c, 0, 50, 95
2, 88320, Note_off_c, 0, 69, 80
2, 88320, Note_off_c, 0, 65, 80
2, 88320, Note_off_c, 0, 62, 80
2, 88320, Note_off_c, 0, 57, 80
2, 88320, Note_off_c, 0, 50, 80
2, 88320, Note_on_c, 0, 64, 95
2, 88320, Note_on_c, 0, 61, 95
2, 88320, Note_on_c, 0, 57, 95
2, 88320, Note_on_c, 0, 52, 95
2, 88320, Note_on_c, 0, 45, 95
2, 88560, Note_off_c, 0, 64, 80
2, 88560, Note_off_c, 0, 61, 80
2, 88560, Note_off_c, 0, 57, 80
2, 88560, Note_off_c, 0, 52, 80
2, 88560, Note_off_c, 0, 45, 80
2, 88560, Note_on_c, 0, 64, 95
2, 88560, Note_on_c, 0, 61, 95
2, 88560, Note_on_c, 0, 57, 95
2, 88560, Note_on_c, 0, 52, 95
2, 88560, Note_on_c, 0, 45, 95
2, 88800, Note_off_c, 0, 64, 80
2, 88800, Note_off_c, 0, 61, 80
2, 88800, Note_off_c, 0, 57, 80
2, 88800, Note_off_c, 0, 52, 80
2, 88800, Note_off_c, 0, 45, 80
2, 88800, Note_on_c, 0, 64, 95
2, 88800, Note_on_c, 0, 61, 95
2, 88800, Note_on_c, 0, 57, 95
2, 88800, Note_on_c, 0, 52, 95
2, 88800, Note_on_c, 0, 45, 95
2, 89040, Note_off_c, 0, 64, 80
2, 89040, Note_off_c, 0, 61, 80
2, 89040, Note_off_c, 0, 57, 80
2, 89040, Note_off_c, 0, 52, 80
2, 89040, Note_off_c, 0, 45, 80
2, 89040, Note_on_c, 0, 64, 95
2, 89040, Note_on_c, 0, 61, 95
2, 89040, Note_on_c, 0, 57, 95
2, 89040, Note_on_c, 0, 52, 95
2, 89040, Note_on_c, 0, 45, 95
2, 89280, Note_off_c, 0, 64, 80
2, 89280, Note_off_c, 0, 61, 80
2, 89280, Note_off_c, 0, 57, 80
2, 89280, Note_off_c, 0, 52, 80
2, 89280, Note_off_c, 0, 45, 80
2, 89280, Note_on_c, 0, 67, 95
2, 89280, Note_on_c, 0, 62, 95
2, 89280, Note_on_c, 0, 60, 95
2, 89280, Note_on_c, 0, 55, 95
2, 89280, Note_on_c, 0, 48, 95
2, 89520, Note_off_c, 0, 67, 80
2, 89520, Note_off_c, 0, 62, 80
2, 89520, Note_off_c, 0, 60, 80
2, 89520, Note_off_c, 0, 55, 80
2, 89520, Note_off_c, 0, 48, 80
2, 89520, Note_on_c, 0, 67, 95
2, 89520, Note_on_c, 0, 62, 95
2, 89520, Note_on_c, 0, 60, 95
2, 89520, Note_on_c, 0, 55, 95
2, 89520, Note_on_c, 0, 48, 95
2, 89760, Note_off_c, 0, 67, 80
2, 89760, Note_off_c, 0, 62, 80
2, 89760, Note_off_c, 0, 60, 80
2, 89760, Note_off_c, 0, 55, 80
2, 89760, Note_off_c, 0, 48, 80
2, 89760, Note_on_c, 0, 67, 95
2, 89760, Note_on_c, 0, 62, 95
2, 89760, Note_on_c, 0, 60, 95
2, 89760, Note_on_c, 0, 55, 95
2, 89760, Note_on_c, 0, 48, 95
2, 90000, Note_off_c, 0, 67, 80
2, 90000, Note_off_c, 0, 62, 80
2, 90000, Note_off_c, 0, 60, 80
2, 90000, Note_off_c, 0, 55, 80
2, 90000, Note_off_c, 0, 48, 80
2, 90000, Note_on_c, 0, 67, 95
2, 90000, Note_on_c, 0, 62, 95
2, 90000, Note_on_c, 0, 60, 95
2, 90000, Note_on_c, 0, 55, 95
2, 90000, Note_on_c, 0, 48, 95
2, 90240, Note_off_c, 0, 67, 80
2, 90240, Note_off_c, 0, 62, 80
2, 90240, Note_off_c, 0, 60, 80
2, 90240, Note_off_c, 0, 55, 80
2, 90240, Note_off_c, 0, 48, 80
2, 94560, Note_on_c, 0, 69, 95
2, 94560, Note_on_c, 0, 65, 95
2, 94560, Note_on_c, 0, 62, 95
2, 94560, Note_on_c, 0, 57, 95
2, 94560, Note_on_c, 0, 50, 95
2, 94800, Note_off_c, 0, 69, 80
2, 94800, Note_off_c, 0, 65, 80
2, 94800, Note_off_c, 0, 62, 80
2, 94800, Note_off_c, 0, 57, 80
2, 94800, Note_off_c, 0, 50, 80
2, 94800, Note_on_c, 0, 69, 95
2, 94800, Note_on_c, 0, 65, 95
2, 94800, Note_on_c, 0, 62, 95
2, 94800, Note_on_c, 0, 57, 95
2, 94800, Note_on_c, 0, 50, 95
2, 95040, Note_off_c, 0, 69, 80
2, 95040, Note_off_c, 0, 65, 80
2, 95040, Note_off_c, 0, 62, 80
2, 95040, Note_off_c, 0, 57, 80
2, 95040, Note_off_c, 0, 50, 80
2, 95040, Note_on_c, 0, 69, 95
2, 95040, Note_on_c, 0, 65, 95
2, 95040, Note_on_c, 0, 62, 95
2, 95040, Note_on_c, 0, 57, 95
2, 95040, Note_on_c, 0, 50, 95
2, 95280, Note_off_c, 0, 69, 80
2, 95280, Note_off_c, 0, 65, 80
2, 95280, Note_off_c, 0, 62, 80
2, 95280, Note_off_c, 0, 57, 80
2, 95280, Note_off_c, 0, 50, 80
2, 95280, Note_on_c, 0, 69, 95
2, 95280, Note_on_c, 0, 65, 95
2, 95280, Note_on_c, 0, 62, 95
2, 95280, Note_on_c, 0, 57, 95
2, 95280, Note_on_c, 0, 50, 95
2, 95520, Note_off_c, 0, 69, 80
2, 95520, Note_off_c, 0, 65, 80
2, 95520, Note_off_c, 0, 62, 80
2, 95520, Note_off_c, 0, 57, 80
2, 95520, Note_off_c, 0, 50, 80
2, 95520, Note_on_c, 0, 64, 95
2, 95520, Note_on_c, 0, 61, 95
2, 95520, Note_on_c, 0, 57, 95
2, 95520, Note_on_c, 0, 52, 95
2, 95520, Note_on_c, 0, 45, 95
2, 95760, Note_off_c, 0, 64, 80
2, 95760, Note_off_c, 0, 61, 80
2, 95760, Note_off_c, 0, 57, 80
2, 95760, Note_off_c, 0, 52, 80
2, 95760, Note_off_c, 0, 45, 80
2, 95760, Note_on_c, 0, 64, 95
2, 95760, Note_on_c, 0, 61, 95
2, 95760, Note_on_c, 0, 57, 95
2, 95760, Note_on_c, 0, 52, 95
2, 95760, Note_on_c, 0, 45, 95
2, 96000, Note_off_c, 0, 64, 80
2, 96000, Note_off_c, 0, 61, 80
2, 96000, Note_off_c, 0, 57, 80
2, 96000, Note_off_c, 0, 52, 80
2, 96000, Note_off_c, 0, 45, 80
2, 96000, Note_on_c, 0, 64, 95
2, 96000, Note_on_c, 0, 61, 95
2, 96000, Note_on_c, 0, 57, 95
2, 96000, Note_on_c, 0, 52, 95
2, 96000, Note_on_c, 0, 45, 95
2, 96240, Note_off_c, 0, 64, 80
2, 96240, Note_off_c, 0, 61, 80
2, 96240, Note_off_c, 0, 57, 80
2, 96240, Note_off_c, 0, 52, 80
2, 96240, Note_off_c, 0, 45, 80
2, 96240, Note_on_c, 0, 64, 95
2, 96240, Note_on_c, 0, 61, 95
2, 96240, Note_on_c, 0, 57, 95
2, 96240, Note_on_c, 0, 52, 95
2, 96240, Note_on_c, 0, 45, 95
2, 96480, Note_off_c, 0, 64, 80
2, 96480, Note_off_c, 0, 61, 80
2, 96480, Note_off_c, 0, 57, 80
2, 96480, Note_off_c, 0, 52, 80
2, 96480, Note_off_c, 0, 45, 80
2, 96480, Note_on_c, 0, 67, 95
2, 96480, Note_on_c, 0, 62, 95
2, 96480, Note_on_c, 0, 60, 95
2, 96480, Note_on_c, 0, 55, 95
2, 96480, Note_on_c, 0, 48, 95
2, 96720, Note_off_c, 0, 67, 80
2, 96720, Note_off_c, 0, 62, 80
2, 96720, Note_off_c, 0, 60, 80
2, 96720, Note_off_c, 0, 55, 80
2, 96720, Note_off_c, 0, 48, 80
2, 96720, Note_on_c, 0, 67, 95
2, 96720, Note_on_c, 0, 62, 95
2, 96720, Note_on_c, 0, 60, 95
2, 96720, Note_on_c, 0, 55, 95
2, 96720, Note_on_c, 0, 48, 95
2, 96960, Note_off_c, 0, 67, 80
2, 96960, Note_off_c, 0, 62, 80
2, 96960, Note_off_c, 0, 60, 80
2, 96960, Note_off_c, 0, 55, 80
2, 96960, Note_off_c, 0, 48, 80
2, 96960, Note_on_c, 0, 67, 95
2, 96960, Note_on_c, 0, 62, 95
2, 96960, Note_on_c, 0, 60, 95
2, 96960, Note_on_c, 0, 55, 95
2, 96960, Note_on_c, 0, 48, 95
2, 97200, Note_off_c, 0, 67, 80
2, 97200, Note_off_c, 0, 62, 80
2, 97200, Note_off_c, 0, 60, 80
2, 97200, Note_off_c, 0, 55, 80
2, 97200, Note_off_c, 0, 48, 80
2, 97200, Note_on_c, 0, 67, 95
2, 97200, Note_on_c, 0, 62, 95
2, 97200, Note_on_c, 0, 60, 95
2, 97200, Note_on_c, 0, 55, 95
2, 97200, Note_on_c, 0, 48, 95
2, 97440, Note_off_c, 0, 67, 80
2, 97440, Note_off_c, 0, 62, 80
2, 97440, Note_off_c, 0, 60, 80
2, 97440, Note_off_c, 0, 55, 80
2, 97440, Note_off_c, 0, 48, 80
2, 97440, Note_on_c, 0, 62, 95
2, 97440, Note_on_c, 0, 59, 95
2, 97440, Note_on_c, 0, 55, 95
2, 97440, Note_on_c, 0, 50, 95
2, 97440, Note_on_c, 0, 43, 95
2, 97680, Note_off_c, 0, 62, 80
2, 97680, Note_off_c, 0, 59, 80
2, 97680, Note_off_c, 0, 55, 80
2, 97680, Note_off_c, 0, 50, 80
2, 97680, Note_off_c, 0, 43, 80
2, 97680, Note_on_c, 0, 62, 95
2, 97680, Note_on_c, 0, 59, 95
2, 97680, Note_on_c, 0, 55, 95
2, 97680, Note_on_c, 0, 50, 95
2, 97680, Note_on_c, 0, 43, 95
2, 97920, Note_off_c, 0, 62, 80
2, 97920, Note_off_c, 0, 59, 80
2, 97920, Note_off_c, 0, 55, 80
2, 97920, Note_off_c, 0, 50, 80
2, 97920, Note_off_c, 0, 43, 80
2, 97920, Note_on_c, 0, 62, 95
2, 97920, Note_on_c, 0, 59, 95
2, 97920, Note_on_c, 0, 55, 95
2, 97920, Note_on_c, 0, 50, 95
2, 97920, Note_on_c, 0, 43, 95
2, 98160, Note_off_c, 0, 62, 80
2, 98160, Note_off_c, 0, 59, 80
2, 98160, Note_off_c, 0, 55, 80
2, 98160, Note_off_c, 0, 50, 80
2, 98160, Note_off_c, 0, 43, 80
2, 98160, Note_on_c, 0, 62, 95
2, 98160, Note_on_c, 0, 59, 95
2, 98160, Note_on_c, 0, 55, 95
2, 98160, Note_on_c, 0, 50, 95
2, 98160, Note_on_c, 0, 43, 95
2, 98400, Note_off_c, 0, 62, 80
2, 98400, Note_off_c, 0, 59, 80
2, 98400, Note_off_c, 0, 55, 80
2, 98400, Note_off_c, 0, 50, 80
2, 98400, Note_off_c, 0, 43, 80
2, 98400, Note_on_c, 0, 69, 95
2, 98400, Note_on_c, 0, 65, 95
2, 98400, Note_on_c, 0, 62, 95
2, 98400, Note_on_c, 0, 57, 95
2, 98400, Note_on_c, 0, 50, 95
2, 98640, Note_off_c, 0, 69, 80
2, 98640, Note_off_c, 0, 65, 80
2, 98640, Note_off_c, 0, 62, 80
2, 98640, Note_off_c, 0, 57, 80
2, 98640, Note_off_c, 0, 50, 80
2, 98640, Note_on_c, 0, 69, 95
2, 98640, Note_on_c, 0, 65, 95
2, 98640, Note_on_c, 0, 62, 95
2, 98640, Note_on_c, 0, 57, 95
2, 98640, Note_on_c, 0, 50, 95
2, 98880, Note_off_c, 0, 69, 80
2, 98880, Note_off_c, 0, 65, 80
2, 98880, Note_off_c, 0, 62, 80
2, 98880, Note_off_c, 0, 57, 80
2, 98880, Note_off_c, 0, 50, 80
2, 98880, Note_on_c, 0, 69, 95
2, 98880, Note_on_c, 0, 65, 95
2, 98880, Note_on_c, 0, 62, 95
2, 98880, Note_on_c, 0, 57, 95
2, 98880, Note_on_c, 0, 50, 95
2, 99120, Note_off_c, 0, 69, 80
2, 99120, Note_off_c, 0, 65, 80
2, 99120, Note_off_c, 0, 62, 80
2, 99120, Note_off_c, 0, 57, 80
2, 99120, Note_off_c, 0, 50, 80
2, 99120, Note_on_c, 0, 69, 95
2, 99120, Note_on_c, 0, 65, 95
2, 99120, Note_on_c, 0, 62, 95
2, 99120, Note_on_c, 0, 57, 95
2, 99120, Note_on_c, 0, 50, 95
2, 99360, Note_off_c, 0, 69, 80
2, 99360, Note_off_c, 0, 65, 80
2, 99360, Note_off_c, 0, 62, 80
2, 99360, Note_off_c, 0, 57, 80
2, 99360, Note_off_c, 0, 50, 80
2, 99360, Note_on_c, 0, 64, 95
2, 99360, Note_on_c, 0, 61, 95
2, 99360, Note_on_c, 0, 57, 95
2, 99360, Note_on_c, 0, 52, 95
2, 99360, Note_on_c, 0, 45, 95
2, 99600, Note_off_c, 0, 64, 80
2, 99600, Note_off_c, 0, 61, 80
2, 99600, Note_off_c, 0, 57, 80
2, 99600, Note_off_c, 0, 52, 80
2, 99600, Note_off_c, 0, 45, 80
2, 99600, Note_on_c, 0, 64, 95
2, 99600, Note_on_c, 0, 61, 95
2, 99600, Note_on_c, 0, 57, 95
2, 99600, Note_on_c, 0, 52, 95
2, 99600, Note_on_c, 0, 45, 95
2, 99840, Note_off_c, 0, 64, 80
2, 99840, Note_off_c, 0, 61, 80
2, 99840, Note_off_c, 0, 57, 80
2, 99840, Note_off_c, 0, 52, 80
2, 99840, Note_off_c, 0, 45, 80
2, 99840, Note_on_c, 0, 64, 95
2, 99840, Note_on_c, 0, 61, 95
2, 99840, Note_on_c, 0, 57, 95
2, 99840, Note_on_c, 0, 52, 95
2, 99840, Note_on_c, 0, 45, 95
2, 100080, Note_off_c, 0, 64, 80
2, 100080, Note_off_c, 0, 61, 80
2, 100080, Note_off_c, 0, 57, 80
2, 100080, Note_off_c, 0, 52, 80
2, 100080, Note_off_c, 0, 45, 80
2, 100080, Note_on_c, 0, 64, 95
2, 100080, Note_on_c, 0, 61, 95
2, 100080, Note_on_c, 0, 57, 95
2, 100080, Note_on_c, 0, 52, 95
2, 100080, Note_on_c, 0, 45, 95
2, 100320, Note_off_c, 0, 64, 80
2, 100320, Note_off_c, 0, 61, 80
2, 100320, Note_off_c, 0, 57, 80
2, 100320, Note_off_c, 0, 52, 80
2, 100320, Note_off_c, 0, 45, 80
2, 100320, Note_on_c, 0, 67, 95
2, 100320, Note_on_c, 0, 62, 95
2, 100320, Note_on_c, 0, 60, 95
2, 100320, Note_on_c, 0, 55, 95
2, 100320, Note_on_c, 0, 48, 95
2, 100560, Note_off_c, 0, 67, 80
2, 100560, Note_off_c, 0, 62, 80
2, 100560, Note_off_c, 0, 60, 80
2, 100560, Note_off_c, 0, 55, 80
2, 100560, Note_off_c, 0, 48, 80
2, 100560, Note_on_c, 0, 67, 95
2, 100560, Note_on_c, 0, 62, 95
2, 100560, Note_on_c, 0, 60, 95
2, 100560, Note_on_c, 0, 55, 95
2, 100560, Note_on_c, 0, 48, 95
2, 100800, Note_off_c, 0, 67, 80
2, 100800, Note_off_c, 0, 62, 80
2, 100800, Note_off_c, 0, 60, 80
2, 100800, Note_off_c, 0, 55, 80
2, 100800, Note_off_c, 0, 48, 80
2, 100800, Note_on_c, 0, 67, 95
2, 100800, Note_on_c, 0, 62, 95
2, 100800, Note_on_c, 0, 60, 95
2, 100800, Note_on_c, 0, 55, 95
2, 100800, Note_on_c, 0, 48, 95
2, 101040, Note_off_c, 0, 67, 80
2, 101040, Note_off_c, 0, 62, 80
2, 101040, Note_off_c, 0, 60, 80
2, 101040, Note_off_c, 0, 55, 80
2, 101040, Note_off_c, 0, 48, 80
2, 101040, Note_on_c, 0, 67, 95
2, 101040, Note_on_c, 0, 62, 95
2, 101040, Note_on_c, 0, 60, 95
2, 101040, Note_on_c, 0, 55, 95
2, 101040, Note_on_c, 0, 48, 95
2, 101280, Note_off_c, 0, 67, 80
2, 101280, Note_off_c, 0, 62, 80
2, 101280, Note_off_c, 0, 60, 80
2, 101280, Note_off_c, 0, 55, 80
2, 101280, Note_off_c, 0, 48, 80
2, 102240, Note_on_c, 0, 69, 95
2, 102240, Note_on_c, 0, 65, 95
2, 102240, Note_on_c, 0, 62, 95
2, 102240, Note_on_c, 0, 57, 95
2, 102240, Note_on_c, 0, 50, 95
2, 102480, Note_off_c, 0, 69, 80
2, 102480, Note_off_c, 0, 65, 80
2, 102480, Note_off_c, 0, 62, 80
2, 102480, Note_off_c, 0, 57, 80
2, 102480, Note_off_c, 0, 50, 80
2, 102480, Note_on_c, 0, 69, 95
2, 102480, Note_on_c, 0, 65, 95
2, 102480, Note_on_c, 0, 62, 95
2, 102480, Note_on_c, 0, 57, 95
2, 102480, Note_on_c, 0, 50, 95
2, 102720, Note_off_c, 0, 69, 80
2, 102720, Note_off_c, 0, 65, 80
2, 102720, Note_off_c, 0, 62, 80
2, 102720, Note_off_c, 0, 57, 80
2, 102720, Note_off_c, 0, 50, 80
2, 102720, Note_on_c, 0, 69, 95
2, 102720, Note_on_c, 0, 65, 95
2, 102720, Note_on_c, 0, 62, 95
2, 102720, Note_on_c, 0, 57, 95
2, 102720, Note_on_c, 0, 50, 95
2, 102960, Note_off_c, 0, 69, 80
2, 102960, Note_off_c, 0, 65, 80
2, 102960, Note_off_c, 0, 62, 80
2, 102960, Note_off_c, 0, 57, 80
2, 102960, Note_off_c, 0, 50, 80
2, 102960, Note_on_c, 0, 69, 95
2, 102960, Note_on_c, 0, 65, 95
2, 102960, Note_on_c, 0, 62, 95
2, 102960, Note_on_c, 0, 57, 95
2, 102960, Note_on_c, 0, 50, 95
2, 103200, Note_off_c, 0, 69, 80
2, 103200, Note_off_c, 0, 65, 80
2, 103200, Note_off_c, 0, 62, 80
2, 103200, Note_off_c, 0, 57, 80
2, 103200, Note_off_c, 0, 50, 80
2, 103200, Note_on_c, 0, 64, 95
2, 103200, Note_on_c, 0, 61, 95
2, 103200, Note_on_c, 0, 57, 95
2, 103200, Note_on_c, 0, 52, 95
2, 103200, Note_on_c, 0, 45, 95
2, 103440, Note_off_c, 0, 64, 80
2, 103440, Note_off_c, 0, 61, 80
2, 103440, Note_off_c, 0, 57, 80
2, 103440, Note_off_c, 0, 52, 80
2, 103440, Note_off_c, 0, 45, 80
2, 103440, Note_on_c, 0, 64, 95
2, 103440, Note_on_c, 0, 61, 95
2, 103440, Note_on_c, 0, 57, 95
2, 103440, Note_on_c, 0, 52, 95
2, 103440, Note_on_c, 0, 45, 95
2, 103680, Note_off_c, 0, 64, 80
2, 103680, Note_off_c, 0, 61, 80
2, 103680, Note_off_c, 0, 57, 80
2, 103680, Note_off_c, 0, 52, 80
2, 103680, Note_off_c, 0, 45, 80
2, 103680, Note_on_c, 0, 64, 95
2, 103680, Note_on_c, 0, 61, 95
2, 103680, Note_on_c, 0, 57, 95
2, 103680, Note_on_c, 0, 52, 95
2, 103680, Note_on_c, 0, 45, 95
2, 103920, Note_off_c, 0, 64, 80
2, 103920, Note_off_c, 0, 61, 80
2, 103920, Note_off_c, 0, 57, 80
2, 103920, Note_off_c, 0, 52, 80
2, 103920, Note_off_c, 0, 45, 80
2, 103920, Note_on_c, 0, 64, 95
2, 103920, Note_on_c, 0, 61, 95
2, 103920, Note_on_c, 0, 57, 95
2, 103920, Note_on_c, 0, 52, 95
2, 103920, Note_on_c, 0, 45, 95
2, 104160, Note_off_c, 0, 64, 80
2, 104160, Note_off_c, 0, 61, 80
2, 104160, Note_off_c, 0, 57, 80
2, 104160, Note_off_c, 0, 52, 80
2, 104160, Note_off_c, 0, 45, 80
2, 104160, Note_on_c, 0, 67, 95
2, 104160, Note_on_c, 0, 62, 95
2, 104160, Note_on_c, 0, 60, 95
2, 104160, Note_on_c, 0, 55, 95
2, 104160, Note_on_c, 0, 48, 95
2, 104400, Note_off_c, 0, 67, 80
2, 104400, Note_off_c, 0, 62, 80
2, 104400, Note_off_c, 0, 60, 80
2, 104400, Note_off_c, 0, 55, 80
2, 104400, Note_off_c, 0, 48, 80
2, 104400, Note_on_c, 0, 67, 95
2, 104400, Note_on_c, 0, 62, 95
2, 104400, Note_on_c, 0, 60, 95
2, 104400, Note_on_c, 0, 55, 95
2, 104400, Note_on_c, 0, 48, 95
2, 104640, Note_off_c, 0, 67, 80
2, 104640, Note_off_c, 0, 62, 80
2, 104640, Note_off_c, 0, 60, 80
2, 104640, Note_off_c, 0, 55, 80
2, 104640, Note_off_c, 0, 48, 80
2, 104640, Note_on_c, 0, 67, 95
2, 104640, Note_on_c, 0, 62, 95
2, 104640, Note_on_c, 0, 60, 95
2, 104640, Note_on_c, 0, 55, 95
2, 104640, Note_on_c, 0, 48, 95
2, 104880, Note_off_c, 0, 67, 80
2, 104880, Note_off_c, 0, 62, 80
2, 104880, Note_off_c, 0, 60, 80
2, 104880, Note_off_c, 0, 55, 80
2, 104880, Note_off_c, 0, 48, 80
2, 104880, Note_on_c, 0, 67, 95
2, 104880, Note_on_c, 0, 62, 95
2, 104880, Note_on_c, 0, 60, 95
2, 104880, Note_on_c, 0, 55, 95
2, 104880, Note_on_c, 0, 48, 95
2, 105120, Note_off_c, 0, 67, 80
2, 105120, Note_off_c, 0, 62, 80
2, 105120, Note_off_c, 0, 60, 80
2, 105120, Note_off_c, 0, 55, 80
2, 105120, Note_off_c, 0, 48, 80
2, 105120, Note_on_c, 0, 62, 95
2, 105120, Note_on_c, 0, 59, 95
2, 105120, Note_on_c, 0, 55, 95
2, 105120, Note_on_c, 0, 50, 95
2, 105120, Note_on_c, 0, 43, 95
2, 105360, Note_off_c, 0, 62, 80
2, 105360, Note_off_c, 0, 59, 80
2, 105360, Note_off_c, 0, 55, 80
2, 105360, Note_off_c, 0, 50, 80
2, 105360, Note_off_c, 0, 43, 80
2, 105360, Note_on_c, 0, 62, 95
2, 105360, Note_on_c, 0, 59, 95
2, 105360, Note_on_c, 0, 55, 95
2, 105360, Note_on_c, 0, 50, 95
2, 105360, Note_on_c, 0, 43, 95
2, 105600, Note_off_c, 0, 62, 80
2, 105600, Note_off_c, 0, 59, 80
2, 105600, Note_off_c, 0, 55, 80
2, 105600, Note_off_c, 0, 50, 80
2, 105600, Note_off_c, 0, 43, 80
2, 105600, Note_on_c, 0, 62, 95
2, 105600, Note_on_c, 0, 59, 95
2, 105600, Note_on_c, 0, 55, 95
2, 105600, Note_on_c, 0, 50, 95
2, 105600, Note_on_c, 0, 43, 95
2, 105840, Note_off_c, 0, 62, 80
2, 105840, Note_off_c, 0, 59, 80
2, 105840, Note_off_c, 0, 55, 80
2, 105840, Note_off_c, 0, 50, 80
2, 105840, Note_off_c, 0, 43, 80
2, 105840, Note_on_c, 0, 62, 95
2, 105840, Note_on_c, 0, 59, 95
2, 105840, Note_on_c, 0, 55, 95
2, 105840, Note_on_c, 0, 50, 95
2, 105840, Note_on_c, 0, 43, 95
2, 106080, Note_off_c, 0, 62, 80
2, 106080, Note_off_c, 0, 59, 80
2, 106080, Note_off_c, 0, 55, 80
2, 106080, Note_off_c, 0, 50, 80
2, 106080, Note_off_c, 0, 43, 80
2, 106080, Note_on_c, 0, 69, 95
2, 106080, Note_on_c, 0, 65, 95
2, 106080, Note_on_c, 0, 62, 95
2, 106080, Note_on_c, 0, 57, 95
2, 106080, Note_on_c, 0, 50, 95
2, 106320, Note_off_c, 0, 69, 80
2, 106320, Note_off_c, 0, 65, 80
2, 106320, Note_off_c, 0, 62, 80
2, 106320, Note_off_c, 0, 57, 80
2, 106320, Note_off_c, 0, 50, 80
2, 106320, Note_on_c, 0, 69, 95
2, 106320, Note_on_c, 0, 65, 95
2, 106320, Note_on_c, 0, 62, 95
2, 106320, Note_on_c, 0, 57, 95
2, 106320, Note_on_c, 0, 50, 95
2, 106560, Note_off_c, 0, 69, 80
2, 106560, Note_off_c, 0, 65, 80
2, 106560, Note_off_c, 0, 62, 80
2, 106560, Note_off_c, 0, 57, 80
2, 106560, Note_off_c, 0, 50, 80
2, 106560, Note_on_c, 0, 69, 95
2, 106560, Note_on_c, 0, 65, 95
2, 106560, Note_on_c, 0, 62, 95
2, 106560, Note_on_c, 0, 57, 95
2, 106560, Note_on_c, 0, 50, 95
2, 106800, Note_off_c, 0, 69, 80
2, 106800, Note_off_c, 0, 65, 80
2, 106800, Note_off_c, 0, 62, 80
2, 106800, Note_off_c, 0, 57, 80
2, 106800, Note_off_c, 0, 50, 80
2, 106800, Note_on_c, 0, 69, 95
2, 106800, Note_on_c, 0, 65, 95
2, 106800, Note_on_c, 0, 62, 95
2, 106800, Note_on_c, 0, 57, 95
2, 106800, Note_on_c, 0, 50, 95
2, 107040, Note_off_c, 0, 69, 80
2, 107040, Note_off_c, 0, 65, 80
2, 107040, Note_off_c, 0, 62, 80
2, 107040, Note_off_c, 0, 57, 80
2, 107040, Note_off_c, 0, 50, 80
2, 107040, Note_on_c, 0, 64, 95
2, 107040, Note_on_c, 0, 61, 95
2, 107040, Note_on_c, 0, 57, 95
2, 107040, Note_on_c, 0, 52, 95
2, 107040, Note_on_c, 0, 45, 95
2, 107280, Note_off_c, 0, 64, 80
2, 107280, Note_off_c, 0, 61, 80
2, 107280, Note_off_c, 0, 57, 80
2, 107280, Note_off_c, 0, 52, 80
2, 107280, Note_off_c, 0, 45, 80
2, 107280, Note_on_c, 0, 64, 95
2, 107280, Note_on_c, 0, 61, 95
2, 107280, Note_on_c, 0, 57, 95
2, 107280, Note_on_c, 0, 52, 95
2, 107280, Note_on_c, 0, 45, 95
2, 107520, Note_off_c, 0, 64, 80
2, 107520, Note_off_c, 0, 61, 80
2, 107520, Note_off_c, 0, 57, 80
2, 107520, Note_off_c, 0, 52, 80
2, 107520, Note_off_c, 0, 45, 80
2, 107520, Note_on_c, 0, 64, 95
2, 107520, Note_on_c, 0, 61, 95
2, 107520, Note_on_c, 0, 57, 95
2, 107520, Note_on_c, 0, 52, 95
2, 107520, Note_on_c, 0, 45, 95
2, 107760, Note_off_c, 0, 64, 80
2, 107760, Note_off_c, 0, 61, 80
2, 107760, Note_off_c, 0, 57, 80
2, 107760, Note_off_c, 0, 52, 80
2, 107760, Note_off_c, 0, 45, 80
2, 107760, Note_on_c, 0, 64, 95
2, 107760, Note_on_c, 0, 61, 95
2, 107760, Note_on_c, 0, 57, 95
2, 107760, Note_on_c, 0, 52, 95
2, 107760, Note_on_c, 0, 45, 95
2, 108000, Note_off_c, 0, 64, 80
2, 108000, Note_off_c, 0, 61, 80
2, 108000, Note_off_c, 0, 57, 80
2, 108000, Note_off_c, 0, 52, 80
2, 108000, Note_off_c, 0, 45, 80
2, 108000, Note_on_c, 0, 67, 95
2, 108000, Note_on_c, 0, 62, 95
2, 108000, Note_on_c, 0, 60, 95
2, 108000, Note_on_c, 0, 55, 95
2, 108000, Note_on_c, 0, 48, 95
2, 108240, Note_off_c, 0, 67, 80
2, 108240, Note_off_c, 0, 62, 80
2, 108240, Note_off_c, 0, 60, 80
2, 108240, Note_off_c, 0, 55, 80
2, 108240, Note_off_c, 0, 48, 80
2, 108240, Note_on_c, 0, 67, 95
2, 108240, Note_on_c, 0, 62, 95
2, 108240, Note_on_c, 0, 60, 95
2, 108240, Note_on_c, 0, 55, 95
2, 108240, Note_on_c, 0, 48, 95
2, 108480, Note_off_c, 0, 67, 80
2, 108480, Note_off_c, 0, 62, 80
2, 108480, Note_off_c, 0, 60, 80
2, 108480, Note_off_c, 0, 55, 80
2, 108480, Note_off_c, 0, 48, 80
2, 108480, Note_on_c, 0, 67, 95
2, 108480, Note_on_c, 0, 62, 95
2, 108480, Note_on_c, 0, 60, 95
2, 108480, Note_on_c, 0, 55, 95
2, 108480, Note_on_c, 0, 48, 95
2, 108720, Note_off_c, 0, 67, 80
2, 108720, Note_off_c, 0, 62, 80
2, 108720, Note_off_c, 0, 60, 80
2, 108720, Note_off_c, 0, 55, 80
2, 108720, Note_off_c, 0, 48, 80
2, 108720, Note_on_c, 0, 67, 95
2, 108720, Note_on_c, 0, 62, 95
2, 108720, Note_on_c, 0, 60, 95
2, 108720, Note_on_c, 0, 55, 95
2, 108720, Note_on_c, 0, 48, 95
2, 108960, Note_off_c, 0, 67, 80
2, 108960, Note_off_c, 0, 62, 80
2, 108960, Note_off_c, 0, 60, 80
2, 108960, Note_off_c, 0, 55, 80
2, 108960, Note_off_c, 0, 48, 80
2, 108960, Note_on_c, 0, 62, 95
2, 108960, Note_on_c, 0, 59, 95
2, 108960, Note_on_c, 0, 55, 95
2, 108960, Note_on_c, 0, 50, 95
2, 108960, Note_on_c, 0, 43, 95
2, 109200, Note_off_c, 0, 62, 80
2, 109200, Note_off_c, 0, 59, 80
2, 109200, Note_off_c, 0, 55, 80
2, 109200, Note_off_c, 0, 50, 80
2, 109200, Note_off_c, 0, 43, 80
2, 109200, Note_on_c, 0, 62, 95
2, 109200, Note_on_c, 0, 59, 95
2, 109200, Note_on_c, 0, 55, 95
2, 109200, Note_on_c, 0, 50, 95
2, 109200, Note_on_c, 0, 43, 95
2, 109440, Note_off_c, 0, 62, 80
2, 109440, Note_off_c, 0, 59, 80
2, 109440, Note_off_c, 0, 55, 80
2, 109440, Note_off_c, 0, 50, 80
2, 109440, Note_off_c, 0, 43, 80
2, 109440, Note_on_c, 0, 62, 95
2, 109440, Note_on_c, 0, 59, 95
2, 109440, Note_on_c, 0, 55, 95
2, 109440, Note_on_c, 0, 50, 95
2, 109440, Note_on_c, 0, 43, 95
2, 109680, Note_off_c, 0, 62, 80
2, 109680, Note_off_c, 0, 59, 80
2, 109680, Note_off_c, 0, 55, 80
2, 109680, Note_off_c, 0, 50, 80
2, 109680, Note_off_c, 0, 43, 80
2, 109680, Note_on_c, 0, 62, 95
2, 109680, Note_on_c, 0, 59, 95
2, 109680, Note_on_c, 0, 55, 95
2, 109680, Note_on_c, 0, 50, 95
2, 109680, Note_on_c, 0, 43, 95
2, 109920, Note_off_c, 0, 62, 80
2, 109920, Note_off_c, 0, 59, 80
2, 109920, Note_off_c, 0, 55, 80
2, 109920, Note_off_c, 0, 50, 80
2, 109920, Note_off_c, 0, 43, 80
2, 109920, Note_on_c, 0, 69, 95
2, 109920, Note_on_c, 0, 65, 95
2, 109920, Note_on_c, 0, 62, 95
2, 109920, Note_on_c, 0, 57, 95
2, 109920, Note_on_c, 0, 50, 95
2, 110160, Note_off_c, 0, 69, 80
2, 110160, Note_off_c, 0, 65, 80
2, 110160, Note_off_c, 0, 62, 80
2, 110160, Note_off_c, 0, 57, 80
2, 110160, Note_off_c, 0, 50, 80
2, 110160, Note_on_c, 0, 69, 95
2, 110160, Note_on_c, 0, 65, 95
2, 110160, Note_on_c, 0, 62, 95
2, 110160, Note_on_c, 0, 57, 95
2, 110160, Note_on_c, 0, 50, 95
2, 110400, Note_off_c, 0, 69, 80
2, 110400, Note_off_c, 0, 65, 80
2, 110400, Note_off_c, 0, 62, 80
2, 110400, Note_off_c, 0, 57, 80
2, 110400, Note_off_c, 0, 50, 80
2, 110400, Note_on_c, 0, 69, 95
2, 110400, Note_on_c, 0, 65, 95
2, 110400, Note_on_c, 0, 62, 95
2, 110400, Note_on_c, 0, 57, 95
2, 110400, Note_on_c, 0, 50, 95
2, 110640, Note_off_c, 0, 69, 80
2, 110640, Note_off_c, 0, 65, 80
2, 110640, Note_off_c, 0, 62, 80
2, 110640, Note_off_c, 0, 57, 80
2, 110640, Note_off_c, 0, 50, 80
2, 110640, Note_on_c, 0, 69, 95
2, 110640, Note_on_c, 0, 65, 95
2, 110640, Note_on_c, 0, 62, 95
2, 110640, Note_on_c, 0, 57, 95
2, 110640, Note_on_c, 0, 50, 95
2, 110880, Note_off_c, 0, 69, 80
2, 110880, Note_off_c, 0, 65, 80
2, 110880, Note_off_c, 0, 62, 80
2, 110880, Note_off_c, 0, 57, 80
2, 110880, Note_off_c, 0, 50, 80
2, 110880, Note_on_c, 0, 64, 95
2, 110880, Note_on_c, 0, 61, 95
2, 110880, Note_on_c, 0, 57, 95
2, 110880, Note_on_c, 0, 52, 95
2, 110880, Note_on_c, 0, 45, 95
2, 111120, Note_off_c, 0, 64, 80
2, 111120, Note_off_c, 0, 61, 80
2, 111120, Note_off_c, 0, 57, 80
2, 111120, Note_off_c, 0, 52, 80
2, 111120, Note_off_c, 0, 45, 80
2, 111120, Note_on_c, 0, 64, 95
2, 111120, Note_on_c, 0, 61, 95
2, 111120, Note_on_c, 0, 57, 95
2, 111120, Note_on_c, 0, 52, 95
2, 111120, Note_on_c, 0, 45, 95
2, 111360, Note_off_c, 0, 64, 80
2, 111360, Note_off_c, 0, 61, 80
2, 111360, Note_off_c, 0, 57, 80
2, 111360, Note_off_c, 0, 52, 80
2, 111360, Note_off_c, 0, 45, 80
2, 111360, Note_on_c, 0, 64, 95
2, 111360, Note_on_c, 0, 61, 95
2, 111360, Note_on_c, 0, 57, 95
2, 111360, Note_on_c, 0, 52, 95
2, 111360, Note_on_c, 0, 45, 95
2, 111600, Note_off_c, 0, 64, 80
2, 111600, Note_off_c, 0, 61, 80
2, 111600, Note_off_c, 0, 57, 80
2, 111600, Note_off_c, 0, 52, 80
2, 111600, Note_off_c, 0, 45, 80
2, 111600, Note_on_c, 0, 64, 95
2, 111600, Note_on_c, 0, 61, 95
2, 111600, Note_on_c, 0, 57, 95
2, 111600, Note_on_c, 0, 52, 95
2, 111600, Note_on_c, 0, 45, 95
2, 111840, Note_off_c, 0, 64, 80
2, 111840, Note_off_c, 0, 61, 80
2, 111840, Note_off_c, 0, 57, 80
2, 111840, Note_off_c, 0, 52, 80
2, 111840, Note_off_c, 0, 45, 80
2, 111840, Note_on_c, 0, 67, 95
2, 111840, Note_on_c, 0, 62, 95
2, 111840, Note_on_c, 0, 60, 95
2, 111840, Note_on_c, 0, 55, 95
2, 111840, Note_on_c, 0, 48, 95
2, 112080, Note_off_c, 0, 67, 80
2, 112080, Note_off_c, 0, 62, 80
2, 112080, Note_off_c, 0, 60, 80
2, 112080, Note_off_c, 0, 55, 80
2, 112080, Note_off_c, 0, 48, 80
2, 112080, Note_on_c, 0, 67, 95
2, 112080, Note_on_c, 0, 62, 95
2, 112080, Note_on_c, 0, 60, 95
2, 112080, Note_on_c, 0, 55, 95
2, 112080, Note_on_c, 0, 48, 95
2, 112320, Note_off_c, 0, 67, 80
2, 112320, Note_off_c, 0, 62, 80
2, 112320, Note_off_c, 0, 60, 80
2, 112320, Note_off_c, 0, 55, 80
2, 112320, Note_off_c, 0, 48, 80
2, 112320, Note_on_c, 0, 67, 95
2, 112320, Note_on_c, 0, 62, 95
2, 112320, Note_on_c, 0, 60, 95
2, 112320, Note_on_c, 0, 55, 95
2, 112320, Note_on_c, 0, 48, 95
2, 112560, Note_off_c, 0, 67, 80
2, 112560, Note_off_c, 0, 62, 80
2, 112560, Note_off_c, 0, 60, 80
2, 112560, Note_off_c, 0, 55, 80
2, 112560, Note_off_c, 0, 48, 80
2, 112560, Note_on_c, 0, 67, 95
2, 112560, Note_on_c, 0, 62, 95
2, 112560, Note_on_c, 0, 60, 95
2, 112560, Note_on_c, 0, 55, 95
2, 112560, Note_on_c, 0, 48, 95
2, 112800, Note_off_c, 0, 67, 80
2, 112800, Note_off_c, 0, 62, 80
2, 112800, Note_off_c, 0, 60, 80
2, 112800, Note_off_c, 0, 55, 80
2, 112800, Note_off_c, 0, 48, 80
2, 112800, Note_on_c, 0, 62, 95
2, 112800, Note_on_c, 0, 59, 95
2, 112800, Note_on_c, 0, 55, 95
2, 112800, Note_on_c, 0, 50, 95
2, 112800, Note_on_c, 0, 43, 95
2, 113040, Note_off_c, 0, 62, 80
2, 113040, Note_off_c, 0, 59, 80
2, 113040, Note_off_c, 0, 55, 80
2, 113040, Note_off_c, 0, 50, 80
2, 113040, Note_off_c, 0, 43, 80
2, 113040, Note_on_c, 0, 62, 95
2, 113040, Note_on_c, 0, 59, 95
2, 113040, Note_on_c, 0, 55, 95
2, 113040, Note_on_c, 0, 50, 95
2, 113040, Note_on_c, 0, 43, 95
2, 113280, Note_off_c, 0, 62, 80
2, 113280, Note_off_c, 0, 59, 80
2, 113280, Note_off_c, 0, 55, 80
2, 113280, Note_off_c, 0, 50, 80
2, 113280, Note_off_c, 0, 43, 80
2, 113280, Note_on_c, 0, 62, 95
2, 113280, Note_on_c, 0, 59, 95
2, 113280, Note_on_c, 0, 55, 95
2, 113280, Note_on_c, 0, 50, 95
2, 113280, Note_on_c, 0, 43, 95
2, 113520, Note_off_c, 0, 62, 80
2, 113520, Note_off_c, 0, 59, 80
2, 113520, Note_off_c, 0, 55, 80
2, 113520, Note_off_c, 0, 50, 80
2, 113520, Note_off_c, 0, 43, 80
2, 113520, Note_on_c, 0, 62, 95
2, 113520, Note_on_c, 0, 59, 95
2, 113520, Note_on_c, 0, 55, 95
2, 113520, Note_on_c, 0, 50, 95
2, 113520, Note_on_c, 0, 43, 95
2, 113760, Note_off_c, 0, 62, 80
2, 113760, Note_off_c, 0, 59, 80
2, 113760, Note_off_c, 0, 55, 80
2, 113760, Note_off_c, 0, 50, 80
2, 113760, Note_off_c, 0, 43, 80
2, 113760, Note_on_c, 0, 69, 95
2, 113760, Note_on_c, 0, 65, 95
2, 113760, Note_on_c, 0, 62, 95
2, 113760, Note_on_c, 0, 57, 95
2, 113760, Note_on_c, 0, 50, 95
2, 114000, Note_off_c, 0, 69, 80
2, 114000, Note_off_c, 0, 65, 80
2, 114000, Note_off_c, 0, 62, 80
2, 114000, Note_off_c, 0, 57, 80
2, 114000, Note_off_c, 0, 50, 80
2, 114000, Note_on_c, 0, 69, 95
2, 114000, Note_on_c, 0, 65, 95
2, 114000, Note_on_c, 0, 62, 95
2, 114000, Note_on_c, 0, 57, 95
2, 114000, Note_on_c, 0, 50, 95
2, 114240, Note_off_c, 0, 69, 80
2, 114240, Note_off_c, 0, 65, 80
2, 114240, Note_off_c, 0, 62, 80
2, 114240, Note_off_c, 0, 57, 80
2, 114240, Note_off_c, 0, 50, 80
2, 114240, Note_on_c, 0, 69, 95
2, 114240, Note_on_c, 0, 65, 95
2, 114240, Note_on_c, 0, 62, 95
2, 114240, Note_on_c, 0, 57, 95
2, 114240, Note_on_c, 0, 50, 95
2, 114480, Note_off_c, 0, 69, 80
2, 114480, Note_off_c, 0, 65, 80
2, 114480, Note_off_c, 0, 62, 80
2, 114480, Note_off_c, 0, 57, 80
2, 114480, Note_off_c, 0, 50, 80
2, 114480, Note_on_c, 0, 69, 95
2, 114480, Note_on_c, 0, 65, 95
2, 114480, Note_on_c, 0, 62, 95
2, 114480, Note_on_c, 0, 57, 95
2, 114480, Note_on_c, 0, 50, 95
2, 114720, Note_off_c, 0, 69, 80
2, 114720, Note_off_c, 0, 65, 80
2, 114720, Note_off_c, 0, 62, 80
2, 114720, Note_off_c, 0, 57, 80
2, 114720, Note_off_c, 0, 50, 80
2, 114720, Note_on_c, 0, 64, 95
2, 114720, Note_on_c, 0, 61, 95
2, 114720, Note_on_c, 0, 57, 95
2, 114720, Note_on_c, 0, 52, 95
2, 114720, Note_on_c, 0, 45, 95
2, 114960, Note_off_c, 0, 64, 80
2, 114960, Note_off_c, 0, 61, 80
2, 114960, Note_off_c, 0, 57, 80
2, 114960, Note_off_c, 0, 52, 80
2, 114960, Note_off_c, 0, 45, 80
2, 114960, Note_on_c, 0, 64, 95
2, 114960, Note_on_c, 0, 61, 95
2, 114960, Note_on_c, 0, 57, 95
2, 114960, Note_on_c, 0, 52, 95
2, 114960, Note_on_c, 0, 45, 95
2, 115200, Note_off_c, 0, 64, 80
2, 115200, Note_off_c, 0, 61, 80
2, 115200, Note_off_c, 0, 57, 80
2, 115200, Note_off_c, 0, 52, 80
2, 115200, Note_off_c, 0, 45, 80
2, 115200, Note_on_c, 0, 64, 95
2, 115200, Note_on_c, 0, 61, 95
2, 115200, Note_on_c, 0, 57, 95
2, 115200, Note_on_c, 0, 52, 95
2, 115200, Note_on_c, 0, 45, 95
2, 115440, Note_off_c, 0, 64, 80
2, 115440, Note_off_c, 0, 61, 80
2, 115440, Note_off_c, 0, 57, 80
2, 115440, Note_off_c, 0, 52, 80
2, 115440, Note_off_c, 0, 45, 80
2, 115440, Note_on_c, 0, 64, 95
2, 115440, Note_on_c, 0, 61, 95
2, 115440, Note_on_c, 0, 57, 95
2, 115440, Note_on_c, 0, 52, 95
2, 115440, Note_on_c, 0, 45, 95
2, 115680, Note_off_c, 0, 64, 80
2, 115680, Note_off_c, 0, 61, 80
2, 115680, Note_off_c, 0, 57, 80
2, 115680, Note_off_c, 0, 52, 80
2, 115680, Note_off_c, 0, 45, 80
2, 115680, Note_on_c, 0, 67, 95
2, 115680, Note_on_c, 0, 62, 95
2, 115680, Note_on_c, 0, 60, 95
2, 115680, Note_on_c, 0, 55, 95
2, 115680, Note_on_c, 0, 48, 95
2, 115920, Note_off_c, 0, 67, 80
2, 115920, Note_off_c, 0, 62, 80
2, 115920, Note_off_c, 0, 60, 80
2, 115920, Note_off_c, 0, 55, 80
2, 115920, Note_off_c, 0, 48, 80
2, 115920, Note_on_c, 0, 67, 95
2, 115920, Note_on_c, 0, 62, 95
2, 115920, Note_on_c, 0, 60, 95
2, 115920, Note_on_c, 0, 55, 95
2, 115920, Note_on_c, 0, 48, 95
2, 116160, Note_off_c, 0, 67, 80
2, 116160, Note_off_c, 0, 62, 80
2, 116160, Note_off_c, 0, 60, 80
2, 116160, Note_off_c, 0, 55, 80
2, 116160, Note_off_c, 0, 48, 80
2, 116160, Note_on_c, 0, 67, 95
2, 116160, Note_on_c, 0, 62, 95
2, 116160, Note_on_c, 0, 60, 95
2, 116160, Note_on_c, 0, 55, 95
2, 116160, Note_on_c, 0, 48, 95
2, 116400, Note_off_c, 0, 67, 80
2, 116400, Note_off_c, 0, 62, 80
2, 116400, Note_off_c, 0, 60, 80
2, 116400, Note_off_c, 0, 55, 80
2, 116400, Note_off_c, 0, 48, 80
2, 116400, Note_on_c, 0, 67, 95
2, 116400, Note_on_c, 0, 62, 95
2, 116400, Note_on_c, 0, 60, 95
2, 116400, Note_on_c, 0, 55, 95
2, 116400, Note_on_c, 0, 48, 95
2, 116640, Note_off_c, 0, 67, 80
2, 116640, Note_off_c, 0, 62, 80
2, 116640, Note_off_c, 0, 60, 80
2, 116640, Note_off_c, 0, 55, 80
2, 116640, Note_off_c, 0, 48, 80
2, 116640, Note_on_c, 0, 62, 95
2, 116640, Note_on_c, 0, 59, 95
2, 116640, Note_on_c, 0, 55, 95
2, 116640, Note_on_c, 0, 50, 95
2, 116640, Note_on_c, 0, 43, 95
2, 116880, Note_off_c, 0, 62, 80
2, 116880, Note_off_c, 0, 59, 80
2, 116880, Note_off_c, 0, 55, 80
2, 116880, Note_off_c, 0, 50, 80
2, 116880, Note_off_c, 0, 43, 80
2, 116880, Note_on_c, 0, 62, 95
2, 116880, Note_on_c, 0, 59, 95
2, 116880, Note_on_c, 0, 55, 95
2, 116880, Note_on_c, 0, 50, 95
2, 116880, Note_on_c, 0, 43, 95
2, 117120, Note_off_c, 0, 62, 80
2, 117120, Note_off_c, 0, 59, 80
2, 117120, Note_off_c, 0, 55, 80
2, 117120, Note_off_c, 0, 50, 80
2, 117120, Note_off_c, 0, 43, 80
2, 117120, Note_on_c, 0, 62, 95
2, 117120, Note_on_c, 0, 59, 95
2, 117120, Note_on_c, 0, 55, 95
2, 117120, Note_on_c, 0, 50, 95
2, 117120, Note_on_c, 0, 43, 95
2, 117360, Note_off_c, 0, 62, 80
2, 117360, Note_off_c, 0, 59, 80
2, 117360, Note_off_c, 0, 55, 80
2, 117360, Note_off_c, 0, 50, 80
2, 117360, Note_off_c, 0, 43, 80
2, 117360, Note_on_c, 0, 62, 95
2, 117360, Note_on_c, 0, 59, 95
2, 117360, Note_on_c, 0, 55, 95
2, 117360, Note_on_c, 0, 50, 95
2, 117360, Note_on_c, 0, 43, 95
2, 117600, Note_off_c, 0, 62, 80
2, 117600, Note_off_c, 0, 59, 80
2, 117600, Note_off_c, 0, 55, 80
2, 117600, Note_off_c, 0, 50, 80
2, 117600, Note_off_c, 0, 43, 80
2, 117600, Note_on_c, 0, 69, 95
2, 117600, Note_on_c, 0, 65, 95
2, 117600, Note_on_c, 0, 62, 95
2, 117600, Note_on_c, 0, 57, 95
2, 117600, Note_on_c, 0, 50, 95
2, 117840, Note_off_c, 0, 69, 80
2, 117840, Note_off_c, 0, 65, 80
2, 117840, Note_off_c, 0, 62, 80
2, 117840, Note_off_c, 0, 57, 80
2, 117840, Note_off_c, 0, 50, 80
2, 117840, Note_on_c, 0, 69, 95
2, 117840, Note_on_c, 0, 65, 95
2, 117840, Note_on_c, 0, 62, 95
2, 117840, Note_on_c, 0, 57, 95
2, 117840, Note_on_c, 0, 50, 95
2, 118080, Note_off_c, 0, 69, 80
2, 118080, Note_off_c, 0, 65, 80
2, 118080, Note_off_c, 0, 62, 80
2, 118080, Note_off_c, 0, 57, 80
2, 118080, Note_off_c, 0, 50, 80
2, 118080, Note_on_c, 0, 69, 95
2, 118080, Note_on_c, 0, 65, 95
2, 118080, Note_on_c, 0, 62, 95
2, 118080, Note_on_c, 0, 57, 95
2, 118080, Note_on_c, 0, 50, 95
2, 118320, Note_off_c, 0, 69, 80
2, 118320, Note_off_c, 0, 65, 80
2, 118320, Note_off_c, 0, 62, 80
2, 118320, Note_off_c, 0, 57, 80
2, 118320, Note_off_c, 0, 50, 80
2, 118320, Note_on_c, 0, 69, 95
2, 118320, Note_on_c, 0, 65, 95
2, 118320, Note_on_c, 0, 62, 95
2, 118320, Note_on_c, 0, 57, 95
2, 118320, Note_on_c, 0, 50, 95
2, 118560, Note_off_c, 0, 69, 80
2, 118560, Note_off_c, 0, 65, 80
2, 118560, Note_off_c, 0, 62, 80
2, 118560, Note_off_c, 0, 57, 80
2, 118560, Note_off_c, 0, 50, 80
2, 118560, End_track
3, 0, Start_track
3, 0, Title_t, "Track 2"
3, 0, Control_c, 3, 100, 0
3, 0, Control_c, 3, 101, 0
3, 0, Control_c, 3, 6, 12
3, 0, Pitch_bend_c, 3, 8192
3, 0, Control_c, 3, 101, 0
3, 0, Control_c, 3, 100, 1
3, 0, Control_c, 3, 6, 64
3, 0, Control_c, 3, 38, 0
3, 0, Control_c, 3, 101, 127
3, 0, Control_c, 3, 100, 127
3, 0, Control_c, 2, 100, 0
3, 0, Control_c, 2, 101, 0
3, 0, Control_c, 2, 6, 12
3, 0, Pitch_bend_c, 2, 8192
3, 0, Control_c, 2, 101, 0
3, 0, Control_c, 2, 100, 1
3, 0, Control_c, 2, 6, 64
3, 0, Control_c, 2, 38, 0
3, 0, Control_c, 2, 101, 127
3, 0, Control_c, 2, 100, 127
3, 0, Control_c, 3, 101, 0
3, 0, Control_c, 3, 100, 2
3, 0, Control_c, 3, 6, 64
3, 0, Control_c, 3, 101, 127
3, 0, Control_c, 3, 100, 127
3, 0, Control_c, 2, 101, 0
3, 0, Control_c, 2, 100, 2
3, 0, Control_c, 2, 6, 64
3, 0, Control_c, 2, 101, 127
3, 0, Control_c, 2, 100, 127
3, 0, Program_c, 3, 29
3, 0, Program_c, 2, 29
3, 0, Control_c, 3, 0, 0
3, 0, Control_c, 2, 0, 0
3, 0, Control_c, 3, 7, 104
3, 0, Control_c, 2, 7, 104
3, 0, Control_c, 3, 10, 64
3, 0, Control_c, 2, 10, 64
3, 0, Control_c, 3, 93, 0
3, 0, Control_c, 2, 93, 0
3, 0, Control_c, 3, 91, 0
3, 0, Control_c, 2, 91, 0
3, 0, Control_c, 3, 92, 0
3, 0, Control_c, 2, 92, 0
3, 0, Control_c, 3, 95, 0
3, 0, Control_c, 2, 95, 0
3, 22080, Note_on_c, 2, 69, 95
3, 22080, Note_on_c, 2, 65, 95
3, 22080, Note_on_c, 2, 62, 95
3, 22320, Note_off_c, 2, 69, 80
3, 22320, Note_off_c, 2, 65, 80
3, 22320, Note_off_c, 2, 62, 80
3, 22320, Note_on_c, 2, 69, 95
3, 22320, Note_on_c, 2, 65, 95
3, 22320, Note_on_c, 2, 62, 95
3, 22560, Note_off_c, 2, 69, 80
3, 22560, Note_off_c, 2, 65, 80
3, 22560, Note_off_c, 2, 62, 80
3, 22560, Note_on_c, 2, 69, 95
3, 22560, Note_on_c, 2, 65, 95
3, 22560, Note_on_c, 2, 62, 95
3, 22800, Note_off_c, 2, 69, 80
3, 22800, Note_off_c, 2, 65, 80
3, 22800, Note_off_c, 2, 62, 80
3, 22800, Note_on_c, 2, 69, 95
3, 22800, Note_on_c, 2, 65, 95
3, 22800, Note_on_c, 2, 62, 95
3, 23040, Note_off_c, 2, 69, 80
3, 23040, Note_off_c, 2, 65, 80
3, 23040, Note_off_c, 2, 62, 80
3, 23040, Note_on_c, 3, 62, 95
3, 23040, Pitch_bend_c, 3, 8192
3, 23056, Pitch_bend_c, 3, 8320
3, 23072, Pitch_bend_c, 3, 8448
3, 23088, Pitch_bend_c, 3, 8832
3, 23104, Pitch_bend_c, 3, 9344
3, 23120, Pitch_bend_c, 3, 9600
3, 23296, Pitch_bend_c, 3, 9344
3, 23312, Pitch_bend_c, 3, 8832
3, 23328, Pitch_bend_c, 3, 8448
3, 23344, Pitch_bend_c, 3, 8320
3, 23360, Pitch_bend_c, 3, 8192
3, 23520, Note_off_c, 3, 62, 80
3, 23520, Pitch_bend_c, 3, 8192
3, 23520, Note_on_c, 2, 60, 95
3, 23760, Note_off_c, 2, 60, 80
3, 23760, Note_on_c, 2, 59, 95
3, 24000, Note_off_c, 2, 59, 80
3, 24000, Note_on_c, 2, 67, 95
3, 24000, Note_on_c, 2, 62, 95
3, 24000, Note_on_c, 2, 60, 95
3, 24240, Note_off_c, 2, 67, 80
3, 24240, Note_off_c, 2, 62, 80
3, 24240, Note_off_c, 2, 60, 80
3, 24240, Note_on_c, 2, 67, 95
3, 24240, Note_on_c, 2, 62, 95
3, 24240, Note_on_c, 2, 60, 95
3, 24480, Note_off_c, 2, 67, 80
3, 24480, Note_off_c, 2, 62, 80
3, 24480, Note_off_c, 2, 60, 80
3, 24480, Note_on_c, 2, 67, 95
3, 24480, Note_on_c, 2, 62, 95
3, 24480, Note_on_c, 2, 60, 95
3, 24720, Note_off_c, 2, 67, 80
3, 24720, Note_off_c, 2, 62, 80
3, 24720, Note_off_c, 2, 60, 80
3, 24720, Note_on_c, 2, 67, 95
3, 24720, Note_on_c, 2, 62, 95
3, 24720, Note_on_c, 2, 60, 95
3, 24960, Note_off_c, 2, 67, 80
3, 24960, Note_off_c, 2, 62, 80
3, 24960, Note_off_c, 2, 60, 80
3, 24960, Note_on_c, 3, 60, 95
3, 24960, Pitch_bend_c, 3, 8192
3, 24976, Pitch_bend_c, 3, 8320
3, 24992, Pitch_bend_c, 3, 8448
3, 25008, Pitch_bend_c, 3, 8832
3, 25024, Pitch_bend_c, 3, 9344
3, 25040, Pitch_bend_c, 3, 9600
3, 25216, Pitch_bend_c, 3, 9344
3, 25232, Pitch_bend_c, 3, 8832
3, 25248, Pitch_bend_c, 3, 8448
3, 25264, Pitch_bend_c, 3, 8320
3, 25280, Pitch_bend_c, 3, 8192
3, 25440, Note_off_c, 3, 60, 80
3, 25440, Pitch_bend_c, 3, 8192
3, 25440, Note_on_c, 2, 59, 95
3, 25680, Note_off_c, 2, 59, 80
3, 25680, Note_on_c, 2, 59, 95
3, 25920, Note_off_c, 2, 59, 80
3, 25920, Note_on_c, 2, 69, 95
3, 25920, Note_on_c, 2, 65, 95
3, 25920, Note_on_c, 2, 62, 95
3, 26160, Note_off_c, 2, 69, 80
3, 26160, Note_off_c, 2, 65, 80
3, 26160, Note_off_c, 2, 62, 80
3, 26160, Note_on_c, 2, 69, 95
3, 26160, Note_on_c, 2, 65, 95
3, 26160, Note_on_c, 2, 62, 95
3, 26400, Note_off_c, 2, 69, 80
3, 26400, Note_off_c, 2, 65, 80
3, 26400, Note_off_c, 2, 62, 80
3, 26400, Note_on_c, 2, 69, 95
3, 26400, Note_on_c, 2, 65, 95
3, 26400, Note_on_c, 2, 62, 95
3, 26640, Note_off_c, 2, 69, 80
3, 26640, Note_off_c, 2, 65, 80
3, 26640, Note_off_c, 2, 62, 80
3, 26640, Note_on_c, 2, 69, 95
3, 26640, Note_on_c, 2, 65, 95
3, 26640, Note_on_c, 2, 62, 95
3, 26880, Note_off_c, 2, 69, 80
3, 26880, Note_off_c, 2, 65, 80
3, 26880, Note_off_c, 2, 62, 80
3, 26880, Note_on_c, 3, 62, 95
3, 26880, Pitch_bend_c, 3, 8192
3, 26896, Pitch_bend_c, 3, 8320
3, 26912, Pitch_bend_c, 3, 8448
3, 26928, Pitch_bend_c, 3, 8832
3, 26944, Pitch_bend_c, 3, 9344
3, 26960, Pitch_bend_c, 3, 9600
3, 27136, Pitch_bend_c, 3, 9344
3, 27152, Pitch_bend_c, 3, 8832
3, 27168, Pitch_bend_c, 3, 8448
3, 27184, Pitch_bend_c, 3, 8320
3, 27200, Pitch_bend_c, 3, 8192
3, 27360, Note_off_c, 3, 62, 80
3, 27360, Pitch_bend_c, 3, 8192
3, 27360, Note_on_c, 2, 60, 95
3, 27600, Note_off_c, 2, 60, 80
3, 27600, Note_on_c, 2, 59, 95
3, 27840, Note_off_c, 2, 59, 80
3, 27840, Note_on_c, 2, 67, 95
3, 27840, Note_on_c, 2, 62, 95
3, 27840, Note_on_c, 2, 60, 95
3, 28080, Note_off_c, 2, 67, 80
3, 28080, Note_off_c, 2, 62, 80
3, 28080, Note_off_c, 2, 60, 80
3, 28080, Note_on_c, 2, 67, 95
3, 28080, Note_on_c, 2, 62, 95
3, 28080, Note_on_c, 2, 60, 95
3, 28320, Note_off_c, 2, 67, 80
3, 28320, Note_off_c, 2, 62, 80
3, 28320, Note_off_c, 2, 60, 80
3, 28320, Note_on_c, 2, 67, 95
3, 28320, Note_on_c, 2, 62, 95
3, 28320, Note_on_c, 2, 60, 95
3, 28560, Note_off_c, 2, 67, 80
3, 28560, Note_off_c, 2, 62, 80
3, 28560, Note_off_c, 2, 60, 80
3, 28560, Note_on_c, 2, 67, 95
3, 28560, Note_on_c, 2, 62, 95
3, 28560, Note_on_c, 2, 60, 95
3, 28800, Note_off_c, 2, 67, 80
3, 28800, Note_off_c, 2, 62, 80
3, 28800, Note_off_c, 2, 60, 80
3, 28800, Note_on_c, 3, 60, 95
3, 28800, Pitch_bend_c, 3, 8192
3, 28816, Pitch_bend_c, 3, 8320
3, 28832, Pitch_bend_c, 3, 8448
3, 28848, Pitch_bend_c, 3, 8832
3, 28864, Pitch_bend_c, 3, 9344
3, 28880, Pitch_bend_c, 3, 9600
3, 29056, Pitch_bend_c, 3, 9344
3, 29072, Pitch_bend_c, 3, 8832
3, 29088, Pitch_bend_c, 3, 8448
3, 29104, Pitch_bend_c, 3, 8320
3, 29120, Pitch_bend_c, 3, 8192
3, 29280, Note_off_c, 3, 60, 80
3, 29280, Pitch_bend_c, 3, 8192
3, 29280, Note_on_c, 2, 59, 95
3, 29520, Note_off_c, 2, 59, 80
3, 29520, Note_on_c, 2, 59, 95
3, 29760, Note_off_c, 2, 59, 80
3, 29760, Note_on_c, 2, 69, 95
3, 29760, Note_on_c, 2, 65, 95
3, 29760, Note_on_c, 2, 62, 95
3, 30000, Note_off_c, 2, 69, 80
3, 30000, Note_off_c, 2, 65, 80
3, 30000, Note_off_c, 2, 62, 80
3, 30000, Note_on_c, 2, 69, 95
3, 30000, Note_on_c, 2, 65, 95
3, 30000, Note_on_c, 2, 62, 95
3, 30240, Note_off_c, 2, 69, 80
3, 30240, Note_off_c, 2, 65, 80
3, 30240, Note_off_c, 2, 62, 80
3, 30240, Note_on_c, 2, 69, 95
3, 30240, Note_on_c, 2, 65, 95
3, 30240, Note_on_c, 2, 62, 95
3, 30480, Note_off_c, 2, 69, 80
3, 30480, Note_off_c, 2, 65, 80
3, 30480, Note_off_c, 2, 62, 80
3, 30480, Note_on_c, 2, 69, 95
3, 30480, Note_on_c, 2, 65, 95
3, 30480, Note_on_c, 2, 62, 95
3, 30720, Note_off_c, 2, 69, 80
3, 30720, Note_off_c, 2, 65, 80
3, 30720, Note_off_c, 2, 62, 80
3, 30720, Note_on_c, 3, 62, 95
3, 30720, Pitch_bend_c, 3, 8192
3, 30736, Pitch_bend_c, 3, 8320
3, 30752, Pitch_bend_c, 3, 8448
3, 30768, Pitch_bend_c, 3, 8832
3, 30784, Pitch_bend_c, 3, 9344
3, 30800, Pitch_bend_c, 3, 9600
3, 30976, Pitch_bend_c, 3, 9344
3, 30992, Pitch_bend_c, 3, 8832
3, 31008, Pitch_bend_c, 3, 8448
3, 31024, Pitch_bend_c, 3, 8320
3, 31040, Pitch_bend_c, 3, 8192
3, 31200, Note_off_c, 3, 62, 80
3, 31200, Pitch_bend_c, 3, 8192
3, 31200, Note_on_c, 2, 60, 95
3, 31440, Note_off_c, 2, 60, 80
3, 31440, Note_on_c, 2, 59, 95
3, 31680, Note_off_c, 2, 59, 80
3, 31680, Note_on_c, 2, 67, 95
3, 31680, Note_on_c, 2, 62, 95
3, 31680, Note_on_c, 2, 60, 95
3, 31920, Note_off_c, 2, 67, 80
3, 31920, Note_off_c, 2, 62, 80
3, 31920, Note_off_c, 2, 60, 80
3, 31920, Note_on_c, 2, 67, 95
3, 31920, Note_on_c, 2, 62, 95
3, 31920, Note_on_c, 2, 60, 95
3, 32160, Note_off_c, 2, 67, 80
3, 32160, Note_off_c, 2, 62, 80
3, 32160, Note_off_c, 2, 60, 80
3, 32160, Note_on_c, 2, 67, 95
3, 32160, Note_on_c, 2, 62, 95
3, 32160, Note_on_c, 2, 60, 95
3, 32400, Note_off_c, 2, 67, 80
3, 32400, Note_off_c, 2, 62, 80
3, 32400, Note_off_c, 2, 60, 80
3, 32400, Note_on_c, 2, 67, 95
3, 32400, Note_on_c, 2, 62, 95
3, 32400, Note_on_c, 2, 60, 95
3, 32640, Note_off_c, 2, 67, 80
3, 32640, Note_off_c, 2, 62, 80
3, 32640, Note_off_c, 2, 60, 80
3, 32640, Note_on_c, 3, 60, 95
3, 32640, Pitch_bend_c, 3, 8192
3, 32656, Pitch_bend_c, 3, 8320
3, 32672, Pitch_bend_c, 3, 8448
3, 32688, Pitch_bend_c, 3, 8832
3, 32704, Pitch_bend_c, 3, 9344
3, 32720, Pitch_bend_c, 3, 9600
3, 32896, Pitch_bend_c, 3, 9344
3, 32912, Pitch_bend_c, 3, 8832
3, 32928, Pitch_bend_c, 3, 8448
3, 32944, Pitch_bend_c, 3, 8320
3, 32960, Pitch_bend_c, 3, 8192
3, 33120, Note_off_c, 3, 60, 80
3, 33120, Pitch_bend_c, 3, 8192
3, 33120, Note_on_c, 2, 59, 95
3, 33360, Note_off_c, 2, 59, 80
3, 33360, Note_on_c, 2, 59, 95
3, 33600, Note_off_c, 2, 59, 80
3, 33600, Note_on_c, 2, 69, 95
3, 33600, Note_on_c, 2, 65, 95
3, 33600, Note_on_c, 2, 62, 95
3, 33840, Note_off_c, 2, 69, 80
3, 33840, Note_off_c, 2, 65, 80
3, 33840, Note_off_c, 2, 62, 80
3, 33840, Note_on_c, 2, 69, 95
3, 33840, Note_on_c, 2, 65, 95
3, 33840, Note_on_c, 2, 62, 95
3, 34080, Note_off_c, 2, 69, 80
3, 34080, Note_off_c, 2, 65, 80
3, 34080, Note_off_c, 2, 62, 80
3, 34080, Note_on_c, 2, 69, 95
3, 34080, Note_on_c, 2, 65, 95
3, 34080, Note_on_c, 2, 62, 95
3, 34320, Note_off_c, 2, 69, 80
3, 34320, Note_off_c, 2, 65, 80
3, 34320, Note_off_c, 2, 62, 80
3, 34320, Note_on_c, 2, 69, 95
3, 34320, Note_on_c, 2, 65, 95
3, 34320, Note_on_c, 2, 62, 95
3, 34560, Note_off_c, 2, 69, 80
3, 34560, Note_off_c, 2, 65, 80
3, 34560, Note_off_c, 2, 62, 80
3, 34560, Note_on_c, 3, 62, 95
3, 34560, Pitch_bend_c, 3, 8192
3, 34576, Pitch_bend_c, 3, 8320
3, 34592, Pitch_bend_c, 3, 8448
3, 34608, Pitch_bend_c, 3, 8832
3, 34624, Pitch_bend_c, 3, 9344
3, 34640, Pitch_bend_c, 3, 9600
3, 34816, Pitch_bend_c, 3, 9344
3, 34832, Pitch_bend_c, 3, 8832
3, 34848, Pitch_bend_c, 3, 8448
3, 34864, Pitch_bend_c, 3, 8320
3, 34880, Pitch_bend_c, 3, 8192
3, 35040, Note_off_c, 3, 62, 80
3, 35040, Pitch_bend_c, 3, 8192
3, 35040, Note_on_c, 2, 60, 95
3, 35280, Note_off_c, 2, 60, 80
3, 35280, Note_on_c, 2, 59, 95
3, 35520, Note_off_c, 2, 59, 80
3, 35520, Note_on_c, 2, 67, 95
3, 35520, Note_on_c, 2, 62, 95
3, 35520, Note_on_c, 2, 60, 95
3, 35760, Note_off_c, 2, 67, 80
3, 35760, Note_off_c, 2, 62, 80
3, 35760, Note_off_c, 2, 60, 80
3, 35760, Note_on_c, 2, 67, 95
3, 35760, Note_on_c, 2, 62, 95
3, 35760, Note_on_c, 2, 60, 95
3, 36000, Note_off_c, 2, 67, 80
3, 36000, Note_off_c, 2, 62, 80
3, 36000, Note_off_c, 2, 60, 80
3, 36000, Note_on_c, 2, 67, 95
3, 36000, Note_on_c, 2, 62, 95
3, 36000, Note_on_c, 2, 60, 95
3, 36240, Note_off_c, 2, 67, 80
3, 36240, Note_off_c, 2, 62, 80
3, 36240, Note_off_c, 2, 60, 80
3, 36240, Note_on_c, 2, 67, 95
3, 36240, Note_on_c, 2, 62, 95
3, 36240, Note_on_c, 2, 60, 95
3, 36480, Note_off_c, 2, 67, 80
3, 36480, Note_off_c, 2, 62, 80
3, 36480, Note_off_c, 2, 60, 80
3, 36480, Note_on_c, 3, 60, 95
3, 36480, Pitch_bend_c, 3, 8192
3, 36496, Pitch_bend_c, 3, 8320
3, 36512, Pitch_bend_c, 3, 8448
3, 36528, Pitch_bend_c, 3, 8832
3, 36544, Pitch_bend_c, 3, 9344
3, 36560, Pitch_bend_c, 3, 9600
3, 36736, Pitch_bend_c, 3, 9344
3, 36752, Pitch_bend_c, 3, 8832
3, 36768, Pitch_bend_c, 3, 8448
3, 36784, Pitch_bend_c, 3, 8320
3, 36800, Pitch_bend_c, 3, 8192
3, 36960, Note_off_c, 3, 60, 80
3, 36960, Pitch_bend_c, 3, 8192
3, 36960, Note_on_c, 2, 59, 95
3, 37200, Note_off_c, 2, 59, 80
3, 37200, Note_on_c, 2, 59, 95
3, 37440, Note_off_c, 2, 59, 80
3, 56640, Note_on_c, 2, 69, 95
3, 56640, Note_on_c, 2, 65, 95
3, 56640, Note_on_c, 2, 62, 95
3, 56880, Note_off_c, 2, 69, 80
3, 56880, Note_off_c, 2, 65, 80
3, 56880, Note_off_c, 2, 62, 80
3, 56880, Note_on_c, 2, 69, 95
3, 56880, Note_on_c, 2, 65, 95
3, 56880, Note_on_c, 2, 62, 95
3, 57120, Note_off_c, 2, 69, 80
3, 57120, Note_off_c, 2, 65, 80
3, 57120, Note_off_c, 2, 62, 80
3, 57120, Note_on_c, 2, 69, 95
3, 57120, Note_on_c, 2, 65, 95
3, 57120, Note_on_c, 2, 62, 95
3, 57360, Note_off_c, 2, 69, 80
3, 57360, Note_off_c, 2, 65, 80
3, 57360, Note_off_c, 2, 62, 80
3, 57360, Note_on_c, 2, 69, 95
3, 57360, Note_on_c, 2, 65, 95
3, 57360, Note_on_c, 2, 62, 95
3, 57600, Note_off_c, 2, 69, 80
3, 57600, Note_off_c, 2, 65, 80
3, 57600, Note_off_c, 2, 62, 80
3, 57600, Note_on_c, 3, 62, 95
3, 57600, Pitch_bend_c, 3, 8192
3, 57616, Pitch_bend_c, 3, 8320
3, 57632, Pitch_bend_c, 3, 8448
3, 57648, Pitch_bend_c, 3, 8832
3, 57664, Pitch_bend_c, 3, 9344
3, 57680, Pitch_bend_c, 3, 9600
3, 57856, Pitch_bend_c, 3, 9344
3, 57872, Pitch_bend_c, 3, 8832
3, 57888, Pitch_bend_c, 3, 8448
3, 57904, Pitch_bend_c, 3, 8320
3, 57920, Pitch_bend_c, 3, 8192
3, 58080, Note_off_c, 3, 62, 80
3, 58080, Pitch_bend_c, 3, 8192
3, 58080, Note_on_c, 2, 60, 95
3, 58320, Note_off_c, 2, 60, 80
3, 58320, Note_on_c, 2, 59, 95
3, 58560, Note_off_c, 2, 59, 80
3, 58560, Note_on_c, 2, 67, 95
3, 58560, Note_on_c, 2, 62, 95
3, 58560, Note_on_c, 2, 60, 95
3, 58800, Note_off_c, 2, 67, 80
3, 58800, Note_off_c, 2, 62, 80
3, 58800, Note_off_c, 2, 60, 80
3, 58800, Note_on_c, 2, 67, 95
3, 58800, Note_on_c, 2, 62, 95
3, 58800, Note_on_c, 2, 60, 95
3, 59040, Note_off_c, 2, 67, 80
3, 59040, Note_off_c, 2, 62, 80
3, 59040, Note_off_c, 2, 60, 80
3, 59040, Note_on_c, 2, 67, 95
3, 59040, Note_on_c, 2, 62, 95
3, 59040, Note_on_c, 2, 60, 95
3, 59280, Note_off_c, 2, 67, 80
3, 59280, Note_off_c, 2, 62, 80
3, 59280, Note_off_c, 2, 60, 80
3, 59280, Note_on_c, 2, 67, 95
3, 59280, Note_on_c, 2, 62, 95
3, 59280, Note_on_c, 2, 60, 95
3, 59520, Note_off_c, 2, 67, 80
3, 59520, Note_off_c, 2, 62, 80
3, 59520, Note_off_c, 2, 60, 80
3, 59520, Note_on_c, 3, 60, 95
3, 59520, Pitch_bend_c, 3, 8192
3, 59536, Pitch_bend_c, 3, 8320
3, 59552, Pitch_bend_c, 3, 8448
3, 59568, Pitch_bend_c, 3, 8832
3, 59584, Pitch_bend_c, 3, 9344
3, 59600, Pitch_bend_c, 3, 9600
3, 59776, Pitch_bend_c, 3, 9344
3, 59792, Pitch_bend_c, 3, 8832
3, 59808, Pitch_bend_c, 3, 8448
3, 59824, Pitch_bend_c, 3, 8320
3, 59840, Pitch_bend_c, 3, 8192
3, 60000, Note_off_c, 3, 60, 80
3, 60000, Pitch_bend_c, 3, 8192
3, 60000, Note_on_c, 2, 59, 95
3, 60240, Note_off_c, 2, 59, 80
3, 60240, Note_on_c, 2, 59, 95
3, 60480, Note_off_c, 2, 59, 80
3, 60480, Note_on_c, 2, 69, 95
3, 60480, Note_on_c, 2, 65, 95
3, 60480, Note_on_c, 2, 62, 95
3, 60720, Note_off_c, 2, 69, 80
3, 60720, Note_off_c, 2, 65, 80
3, 60720, Note_off_c, 2, 62, 80
3, 60720, Note_on_c, 2, 69, 95
3, 60720, Note_on_c, 2, 65, 95
3, 60720, Note_on_c, 2, 62, 95
3, 60960, Note_off_c, 2, 69, 80
3, 60960, Note_off_c, 2, 65, 80
3, 60960, Note_off_c, 2, 62, 80
3, 60960, Note_on_c, 2, 69, 95
3, 60960, Note_on_c, 2, 65, 95
3, 60960, Note_on_c, 2, 62, 95
3, 61200, Note_off_c, 2, 69, 80
3, 61200, Note_off_c, 2, 65, 80
3, 61200, Note_off_c, 2, 62, 80
3, 61200, Note_on_c, 2, 69, 95
3, 61200, Note_on_c, 2, 65, 95
3, 61200, Note_on_c, 2, 62, 95
3, 61440, Note_off_c, 2, 69, 80
3, 61440, Note_off_c, 2, 65, 80
3, 61440, Note_off_c, 2, 62, 80
3, 61440, Note_on_c, 3, 62, 95
3, 61440, Pitch_bend_c, 3, 8192
3, 61456, Pitch_bend_c, 3, 8320
3, 61472, Pitch_bend_c, 3, 8448
3, 61488, Pitch_bend_c, 3, 8832
3, 61504, Pitch_bend_c, 3, 9344
3, 61520, Pitch_bend_c, 3, 9600
3, 61696, Pitch_bend_c, 3, 9344
3, 61712, Pitch_bend_c, 3, 8832
3, 61728, Pitch_bend_c, 3, 8448
3, 61744, Pitch_bend_c, 3, 8320
3, 61760, Pitch_bend_c, 3, 8192
3, 61920, Note_off_c, 3, 62, 80
3, 61920, Pitch_bend_c, 3, 8192
3, 61920, Note_on_c, 2, 60, 95
3, 62160, Note_off_c, 2, 60, 80
3, 62160, Note_on_c, 2, 59, 95
3, 62400, Note_off_c, 2, 59, 80
3, 62400, Note_on_c, 2, 67, 95
3, 62400, Note_on_c, 2, 62, 95
3, 62400, Note_on_c, 2, 60, 95
3, 62640, Note_off_c, 2, 67, 80
3, 62640, Note_off_c, 2, 62, 80
3, 62640, Note_off_c, 2, 60, 80
3, 62640, Note_on_c, 2, 67, 95
3, 62640, Note_on_c, 2, 62, 95
3, 62640, Note_on_c, 2, 60, 95
3, 62880, Note_off_c, 2, 67, 80
3, 62880, Note_off_c, 2, 62, 80
3, 62880, Note_off_c, 2, 60, 80
3, 62880, Note_on_c, 2, 67, 95
3, 62880, Note_on_c, 2, 62, 95
3, 62880, Note_on_c, 2, 60, 95
3, 63120, Note_off_c, 2, 67, 80
3, 63120, Note_off_c, 2, 62, 80
3, 63120, Note_off_c, 2, 60, 80
3, 63120, Note_on_c, 2, 67, 95
3, 63120, Note_on_c, 2, 62, 95
3, 63120, Note_on_c, 2, 60, 95
3, 63360, Note_off_c, 2, 67, 80
3, 63360, Note_off_c, 2, 62, 80
3, 63360, Note_off_c, 2, 60, 80
3, 63360, Note_on_c, 3, 60, 95
3, 63360, Pitch_bend_c, 3, 8192
3, 63376, Pitch_bend_c, 3, 8320
3, 63392, Pitch_bend_c, 3, 8448
3, 63408, Pitch_bend_c, 3, 8832
3, 63424, Pitch_bend_c, 3, 9344
3, 63440, Pitch_bend_c, 3, 9600
3, 63616, Pitch_bend_c, 3, 9344
3, 63632, Pitch_bend_c, 3, 8832
3, 63648, Pitch_bend_c, 3, 8448
3, 63664, Pitch_bend_c, 3, 8320
3, 63680, Pitch_bend_c, 3, 8192
3, 63840, Note_off_c, 3, 60, 80
3, 63840, Pitch_bend_c, 3, 8192
3, 63840, Note_on_c, 2, 59, 95
3, 64080, Note_off_c, 2, 59, 80
3, 64080, Note_on_c, 2, 59, 95
3, 64320, Note_off_c, 2, 59, 80
3, 64320, Note_on_c, 2, 69, 95
3, 64320, Note_on_c, 2, 65, 95
3, 64320, Note_on_c, 2, 62, 95
3, 64560, Note_off_c, 2, 69, 80
3, 64560, Note_off_c, 2, 65, 80
3, 64560, Note_off_c, 2, 62, 80
3, 64560, Note_on_c, 2, 69, 95
3, 64560, Note_on_c, 2, 65, 95
3, 64560, Note_on_c, 2, 62, 95
3, 64800, Note_off_c, 2, 69, 80
3, 64800, Note_off_c, 2, 65, 80
3, 64800, Note_off_c, 2, 62, 80
3, 64800, Note_on_c, 2, 69, 95
3, 64800, Note_on_c, 2, 65, 95
3, 64800, Note_on_c, 2, 62, 95
3, 65040, Note_off_c, 2, 69, 80
3, 65040, Note_off_c, 2, 65, 80
3, 65040, Note_off_c, 2, 62, 80
3, 65040, Note_on_c, 2, 69, 95
3, 65040, Note_on_c, 2, 65, 95
3, 65040, Note_on_c, 2, 62, 95
3, 65280, Note_off_c, 2, 69, 80
3, 65280, Note_off_c, 2, 65, 80
3, 65280, Note_off_c, 2, 62, 80
3, 65280, Note_on_c, 3, 62, 95
3, 65280, Pitch_bend_c, 3, 8192
3, 65296, Pitch_bend_c, 3, 8320
3, 65312, Pitch_bend_c, 3, 8448
3, 65328, Pitch_bend_c, 3, 8832
3, 65344, Pitch_bend_c, 3, 9344
3, 65360, Pitch_bend_c, 3, 9600
3, 65536, Pitch_bend_c, 3, 9344
3, 65552, Pitch_bend_c, 3, 8832
3, 65568, Pitch_bend_c, 3, 8448
3, 65584, Pitch_bend_c, 3, 8320
3, 65600, Pitch_bend_c, 3, 8192
3, 65760, Note_off_c, 3, 62, 80
3, 65760, Pitch_bend_c, 3, 8192
3, 65760, Note_on_c, 2, 60, 95
3, 66000, Note_off_c, 2, 60, 80
3, 66000, Note_on_c, 2, 59, 95
3, 66240, Note_off_c, 2, 59, 80
3, 66240, Note_on_c, 2, 67, 95
3, 66240, Note_on_c, 2, 62, 95
3, 66240, Note_on_c, 2, 60, 95
3, 66480, Note_off_c, 2, 67, 80
3, 66480, Note_off_c, 2, 62, 80
3, 66480, Note_off_c, 2, 60, 80
3, 66480, Note_on_c, 2, 67, 95
3, 66480, Note_on_c, 2, 62, 95
3, 66480, Note_on_c, 2, 60, 95
3, 66720, Note_off_c, 2, 67, 80
3, 66720, Note_off_c, 2, 62, 80
3, 66720, Note_off_c, 2, 60, 80
3, 66720, Note_on_c, 2, 67, 95
3, 66720, Note_on_c, 2, 62, 95
3, 66720, Note_on_c, 2, 60, 95
3, 66960, Note_off_c, 2, 67, 80
3, 66960, Note_off_c, 2, 62, 80
3, 66960, Note_off_c, 2, 60, 80
3, 66960, Note_on_c, 2, 67, 95
3, 66960, Note_on_c, 2, 62, 95
3, 66960, Note_on_c, 2, 60, 95
3, 67200, Note_off_c, 2, 67, 80
3, 67200, Note_off_c, 2, 62, 80
3, 67200, Note_off_c, 2, 60, 80
3, 67200, Note_on_c, 3, 60, 95
3, 67200, Pitch_bend_c, 3, 8192
3, 67216, Pitch_bend_c, 3, 8320
3, 67232, Pitch_bend_c, 3, 8448
3, 67248, Pitch_bend_c, 3, 8832
3, 67264, Pitch_bend_c, 3, 9344
3, 67280, Pitch_bend_c, 3, 9600
3, 67456, Pitch_bend_c, 3, 9344
3, 67472, Pitch_bend_c, 3, 8832
3, 67488, Pitch_bend_c, 3, 8448
3, 67504, Pitch_bend_c, 3, 8320
3, 67520, Pitch_bend_c, 3, 8192
3, 67680, Note_off_c, 3, 60, 80
3, 67680, Pitch_bend_c, 3, 8192
3, 67680, Note_on_c, 2, 59, 95
3, 67920, Note_off_c, 2, 59, 80
3, 67920, Note_on_c, 2, 59, 95
3, 68160, Note_off_c, 2, 59, 80
3, 68160, Note_on_c, 2, 69, 95
3, 68160, Note_on_c, 2, 65, 95
3, 68160, Note_on_c, 2, 62, 95
3, 68400, Note_off_c, 2, 69, 80
3, 68400, Note_off_c, 2, 65, 80
3, 68400, Note_off_c, 2, 62, 80
3, 68400, Note_on_c, 2, 69, 95
3, 68400, Note_on_c, 2, 65, 95
3, 68400, Note_on_c, 2, 62, 95
3, 68640, Note_off_c, 2, 69, 80
3, 68640, Note_off_c, 2, 65, 80
3, 68640, Note_off_c, 2, 62, 80
3, 68640, Note_on_c, 2, 69, 95
3, 68640, Note_on_c, 2, 65, 95
3, 68640, Note_on_c, 2, 62, 95
3, 68880, Note_off_c, 2, 69, 80
3, 68880, Note_off_c, 2, 65, 80
3, 68880, Note_off_c, 2, 62, 80
3, 68880, Note_on_c, 2, 69, 95
3, 68880, Note_on_c, 2, 65, 95
3, 68880, Note_on_c, 2, 62, 95
3, 69120, Note_off_c, 2, 69, 80
3, 69120, Note_off_c, 2, 65, 80
3, 69120, Note_off_c, 2, 62, 80
3, 69120, Note_on_c, 3, 62, 95
3, 69120, Pitch_bend_c, 3, 8192
3, 69136, Pitch_bend_c, 3, 8320
3, 69152, Pitch_bend_c, 3, 8448
3, 69168, Pitch_bend_c, 3, 8832
3, 69184, Pitch_bend_c, 3, 9344
3, 69200, Pitch_bend_c, 3, 9600
3, 69376, Pitch_bend_c, 3, 9344
3, 69392, Pitch_bend_c, 3, 8832
3, 69408, Pitch_bend_c, 3, 8448
3, 69424, Pitch_bend_c, 3, 8320
3, 69440, Pitch_bend_c, 3, 8192
3, 69600, Note_off_c, 3, 62, 80
3, 69600, Pitch_bend_c, 3, 8192
3, 69600, Note_on_c, 2, 60, 95
3, 69840, Note_off_c, 2, 60, 80
3, 69840, Note_on_c, 2, 59, 95
3, 70080, Note_off_c, 2, 59, 80
3, 70080, Note_on_c, 2, 67, 95
3, 70080, Note_on_c, 2, 62, 95
3, 70080, Note_on_c, 2, 60, 95
3, 70320, Note_off_c, 2, 67, 80
3, 70320, Note_off_c, 2, 62, 80
3, 70320, Note_off_c, 2, 60, 80
3, 70320, Note_on_c, 2, 67, 95
3, 70320, Note_on_c, 2, 62, 95
3, 70320, Note_on_c, 2, 60, 95
3, 70560, Note_off_c, 2, 67, 80
3, 70560, Note_off_c, 2, 62, 80
3, 70560, Note_off_c, 2, 60, 80
3, 75840, Note_on_c, 2, 69, 95
3, 75840, Note_on_c, 2, 65, 95
3, 75840, Note_on_c, 2, 62, 95
3, 76080, Note_off_c, 2, 69, 80
3, 76080, Note_off_c, 2, 65, 80
3, 76080, Note_off_c, 2, 62, 80
3, 76080, Note_on_c, 2, 69, 95
3, 76080, Note_on_c, 2, 65, 95
3, 76080, Note_on_c, 2, 62, 95
3, 76320, Note_off_c, 2, 69, 80
3, 76320, Note_off_c, 2, 65, 80
3, 76320, Note_off_c, 2, 62, 80
3, 76320, Note_on_c, 2, 69, 95
3, 76320, Note_on_c, 2, 65, 95
3, 76320, Note_on_c, 2, 62, 95
3, 76560, Note_off_c, 2, 69, 80
3, 76560, Note_off_c, 2, 65, 80
3, 76560, Note_off_c, 2, 62, 80
3, 76560, Note_on_c, 2, 69, 95
3, 76560, Note_on_c, 2, 65, 95
3, 76560, Note_on_c, 2, 62, 95
3, 76800, Note_off_c, 2, 69, 80
3, 76800, Note_off_c, 2, 65, 80
3, 76800, Note_off_c, 2, 62, 80
3, 76800, Note_on_c, 3, 62, 95
3, 76800, Pitch_bend_c, 3, 8192
3, 76816, Pitch_bend_c, 3, 8320
3, 76832, Pitch_bend_c, 3, 8448
3, 76848, Pitch_bend_c, 3, 8832
3, 76864, Pitch_bend_c, 3, 9344
3, 76880, Pitch_bend_c, 3, 9600
3, 77056, Pitch_bend_c, 3, 9344
3, 77072, Pitch_bend_c, 3, 8832
3, 77088, Pitch_bend_c, 3, 8448
3, 77104, Pitch_bend_c, 3, 8320
3, 77120, Pitch_bend_c, 3, 8192
3, 77280, Note_off_c, 3, 62, 80
3, 77280, Pitch_bend_c, 3, 8192
3, 77280, Note_on_c, 2, 60, 95
3, 77520, Note_off_c, 2, 60, 80
3, 77520, Note_on_c, 2, 59, 95
3, 77760, Note_off_c, 2, 59, 80
3, 77760, Note_on_c, 2, 67, 95
3, 77760, Note_on_c, 2, 62, 95
3, 77760, Note_on_c, 2, 60, 95
3, 78000, Note_off_c, 2, 67, 80
3, 78000, Note_off_c, 2, 62, 80
3, 78000, Note_off_c, 2, 60, 80
3, 78000, Note_on_c, 2, 67, 95
3, 78000, Note_on_c, 2, 62, 95
3, 78000, Note_on_c, 2, 60, 95
3, 78240, Note_off_c, 2, 67, 80
3, 78240, Note_off_c, 2, 62, 80
3, 78240, Note_off_c, 2, 60, 80
3, 78240, Note_on_c, 2, 67, 95
3, 78240, Note_on_c, 2, 62, 95
3, 78240, Note_on_c, 2, 60, 95
3, 78480, Note_off_c, 2, 67, 80
3, 78480, Note_off_c, 2, 62, 80
3, 78480, Note_off_c, 2, 60, 80
3, 78480, Note_on_c, 2, 67, 95
3, 78480, Note_on_c, 2, 62, 95
3, 78480, Note_on_c, 2, 60, 95
3, 78720, Note_off_c, 2, 67, 80
3, 78720, Note_off_c, 2, 62, 80
3, 78720, Note_off_c, 2, 60, 80
3, 78720, Note_on_c, 3, 60, 95
3, 78720, Pitch_bend_c, 3, 8192
3, 78736, Pitch_bend_c, 3, 8320
3, 78752, Pitch_bend_c, 3, 8448
3, 78768, Pitch_bend_c, 3, 8832
3, 78784, Pitch_bend_c, 3, 9344
3, 78800, Pitch_bend_c, 3, 9600
3, 78976, Pitch_bend_c, 3, 9344
3, 78992, Pitch_bend_c, 3, 8832
3, 79008, Pitch_bend_c, 3, 8448
3, 79024, Pitch_bend_c, 3, 8320
3, 79040, Pitch_bend_c, 3, 8192
3, 79200, Note_off_c, 3, 60, 80
3, 79200, Pitch_bend_c, 3, 8192
3, 79200, Note_on_c, 2, 59, 95
3, 79440, Note_off_c, 2, 59, 80
3, 79440, Note_on_c, 2, 59, 95
3, 79680, Note_off_c, 2, 59, 80
3, 79680, Note_on_c, 2, 69, 95
3, 79680, Note_on_c, 2, 65, 95
3, 79680, Note_on_c, 2, 62, 95
3, 79920, Note_off_c, 2, 69, 80
3, 79920, Note_off_c, 2, 65, 80
3, 79920, Note_off_c, 2, 62, 80
3, 79920, Note_on_c, 2, 69, 95
3, 79920, Note_on_c, 2, 65, 95
3, 79920, Note_on_c, 2, 62, 95
3, 80160, Note_off_c, 2, 69, 80
3, 80160, Note_off_c, 2, 65, 80
3, 80160, Note_off_c, 2, 62, 80
3, 80160, Note_on_c, 2, 69, 95
3, 80160, Note_on_c, 2, 65, 95
3, 80160, Note_on_c, 2, 62, 95
3, 80400, Note_off_c, 2, 69, 80
3, 80400, Note_off_c, 2, 65, 80
3, 80400, Note_off_c, 2, 62, 80
3, 80400, Note_on_c, 2, 69, 95
3, 80400, Note_on_c, 2, 65, 95
3, 80400, Note_on_c, 2, 62, 95
3, 80640, Note_off_c, 2, 69, 80
3, 80640, Note_off_c, 2, 65, 80
3, 80640, Note_off_c, 2, 62, 80
3, 80640, Note_on_c, 3, 62, 95
3, 80640, Pitch_bend_c, 3, 8192
3, 80656, Pitch_bend_c, 3, 8320
3, 80672, Pitch_bend_c, 3, 8448
3, 80688, Pitch_bend_c, 3, 8832
3, 80704, Pitch_bend_c, 3, 9344
3, 80720, Pitch_bend_c, 3, 9600
3, 80896, Pitch_bend_c, 3, 9344
3, 80912, Pitch_bend_c, 3, 8832
3, 80928, Pitch_bend_c, 3, 8448
3, 80944, Pitch_bend_c, 3, 8320
3, 80960, Pitch_bend_c, 3, 8192
3, 81120, Note_off_c, 3, 62, 80
3, 81120, Pitch_bend_c, 3, 8192
3, 81120, Note_on_c, 2, 60, 95
3, 81360, Note_off_c, 2, 60, 80
3, 81360, Note_on_c, 2, 59, 95
3, 81600, Note_off_c, 2, 59, 80
3, 81600, Note_on_c, 2, 67, 95
3, 81600, Note_on_c, 2, 62, 95
3, 81600, Note_on_c, 2, 60, 95
3, 81840, Note_off_c, 2, 67, 80
3, 81840, Note_off_c, 2, 62, 80
3, 81840, Note_off_c, 2, 60, 80
3, 81840, Note_on_c, 2, 67, 95
3, 81840, Note_on_c, 2, 62, 95
3, 81840, Note_on_c, 2, 60, 95
3, 82080, Note_off_c, 2, 67, 80
3, 82080, Note_off_c, 2, 62, 80
3, 82080, Note_off_c, 2, 60, 80
3, 82080, Note_on_c, 2, 67, 95
3, 82080, Note_on_c, 2, 62, 95
3, 82080, Note_on_c, 2, 60, 95
3, 82320, Note_off_c, 2, 67, 80
3, 82320, Note_off_c, 2, 62, 80
3, 82320, Note_off_c, 2, 60, 80
3, 82320, Note_on_c, 2, 67, 95
3, 82320, Note_on_c, 2, 62, 95
3, 82320, Note_on_c, 2, 60, 95
3, 82560, Note_off_c, 2, 67, 80
3, 82560, Note_off_c, 2, 62, 80
3, 82560, Note_off_c, 2, 60, 80
3, 82560, Note_on_c, 3, 60, 95
3, 82560, Pitch_bend_c, 3, 8192
3, 82576, Pitch_bend_c, 3, 8320
3, 82592, Pitch_bend_c, 3, 8448
3, 82608, Pitch_bend_c, 3, 8832
3, 82624, Pitch_bend_c, 3, 9344
3, 82640, Pitch_bend_c, 3, 9600
3, 82816, Pitch_bend_c, 3, 9344
3, 82832, Pitch_bend_c, 3, 8832
3, 82848, Pitch_bend_c, 3, 8448
3, 82864, Pitch_bend_c, 3, 8320
3, 82880, Pitch_bend_c, 3, 8192
3, 83040, Note_off_c, 3, 60, 80
3, 83040, Pitch_bend_c, 3, 8192
3, 83040, Note_on_c, 2, 59, 95
3, 83280, Note_off_c, 2, 59, 80
3, 83280, Note_on_c, 2, 59, 95
3, 83520, Note_off_c, 2, 59, 80
3, 83520, Note_on_c, 2, 69, 95
3, 83520, Note_on_c, 2, 65, 95
3, 83520, Note_on_c, 2, 62, 95
3, 83760, Note_off_c, 2, 69, 80
3, 83760, Note_off_c, 2, 65, 80
3, 83760, Note_off_c, 2, 62, 80
3, 83760, Note_on_c, 2, 69, 95
3, 83760, Note_on_c, 2, 65, 95
3, 83760, Note_on_c, 2, 62, 95
3, 84000, Note_off_c, 2, 69, 80
3, 84000, Note_off_c, 2, 65, 80
3, 84000, Note_off_c, 2, 62, 80
3, 84000, Note_on_c, 2, 69, 95
3, 84000, Note_on_c, 2, 65, 95
3, 84000, Note_on_c, 2, 62, 95
3, 84240, Note_off_c, 2, 69, 80
3, 84240, Note_off_c, 2, 65, 80
3, 84240, Note_off_c, 2, 62, 80
3, 84240, Note_on_c, 2, 69, 95
3, 84240, Note_on_c, 2, 65, 95
3, 84240, Note_on_c, 2, 62, 95
3, 84480, Note_off_c, 2, 69, 80
3, 84480, Note_off_c, 2, 65, 80
3, 84480, Note_off_c, 2, 62, 80
3, 84480, Note_on_c, 3, 62, 95
3, 84480, Pitch_bend_c, 3, 8192
3, 84496, Pitch_bend_c, 3, 8320
3, 84512, Pitch_bend_c, 3, 8448
3, 84528, Pitch_bend_c, 3, 8832
3, 84544, Pitch_bend_c, 3, 9344
3, 84560, Pitch_bend_c, 3, 9600
3, 84736, Pitch_bend_c, 3, 9344
3, 84752, Pitch_bend_c, 3, 8832
3, 84768, Pitch_bend_c, 3, 8448
3, 84784, Pitch_bend_c, 3, 8320
3, 84800, Pitch_bend_c, 3, 8192
3, 84960, Note_off_c, 3, 62, 80
3, 84960, Pitch_bend_c, 3, 8192
3, 84960, Note_on_c, 2, 60, 95
3, 85200, Note_off_c, 2, 60, 80
3, 85200, Note_on_c, 2, 59, 95
3, 85440, Note_off_c, 2, 59, 80
3, 85440, Note_on_c, 2, 67, 95
3, 85440, Note_on_c, 2, 62, 95
3, 85440, Note_on_c, 2, 60, 95
3, 85680, Note_off_c, 2, 67, 80
3, 85680, Note_off_c, 2, 62, 80
3, 85680, Note_off_c, 2, 60, 80
3, 85680, Note_on_c, 2, 67, 95
3, 85680, Note_on_c, 2, 62, 95
3, 85680, Note_on_c, 2, 60, 95
3, 85920, Note_off_c, 2, 67, 80
3, 85920, Note_off_c, 2, 62, 80
3, 85920, Note_off_c, 2, 60, 80
3, 85920, Note_on_c, 2, 67, 95
3, 85920, Note_on_c, 2, 62, 95
3, 85920, Note_on_c, 2, 60, 95
3, 86160, Note_off_c, 2, 67, 80
3, 86160, Note_off_c, 2, 62, 80
3, 86160, Note_off_c, 2, 60, 80
3, 86160, Note_on_c, 2, 67, 95
3, 86160, Note_on_c, 2, 62, 95
3, 86160, Note_on_c, 2, 60, 95
3, 86400, Note_off_c, 2, 67, 80
3, 86400, Note_off_c, 2, 62, 80
3, 86400, Note_off_c, 2, 60, 80
3, 86400, Note_on_c, 3, 60, 95
3, 86400, Pitch_bend_c, 3, 8192
3, 86416, Pitch_bend_c, 3, 8320
3, 86432, Pitch_bend_c, 3, 8448
3, 86448, Pitch_bend_c, 3, 8832
3, 86464, Pitch_bend_c, 3, 9344
3, 86480, Pitch_bend_c, 3, 9600
3, 86656, Pitch_bend_c, 3, 9344
3, 86672, Pitch_bend_c, 3, 8832
3, 86688, Pitch_bend_c, 3, 8448
3, 86704, Pitch_bend_c, 3, 8320
3, 86720, Pitch_bend_c, 3, 8192
3, 86880, Note_off_c, 3, 60, 80
3, 86880, Pitch_bend_c, 3, 8192
3, 86880, Note_on_c, 2, 59, 95
3, 87120, Note_off_c, 2, 59, 80
3, 87120, Note_on_c, 2, 59, 95
3, 87360, Note_off_c, 2, 59, 80
3, 87360, Note_on_c, 2, 69, 95
3, 87360, Note_on_c, 2, 65, 95
3, 87360, Note_on_c, 2, 62, 95
3, 87600, Note_off_c, 2, 69, 80
3, 87600, Note_off_c, 2, 65, 80
3, 87600, Note_off_c, 2, 62, 80
3, 87600, Note_on_c, 2, 69, 95
3, 87600, Note_on_c, 2, 65, 95
3, 87600, Note_on_c, 2, 62, 95
3, 87840, Note_off_c, 2, 69, 80
3, 87840, Note_off_c, 2, 65, 80
3, 87840, Note_off_c, 2, 62, 80
3, 87840, Note_on_c, 2, 69, 95
3, 87840, Note_on_c, 2, 65, 95
3, 87840, Note_on_c, 2, 62, 95
3, 88080, Note_off_c, 2, 69, 80
3, 88080, Note_off_c, 2, 65, 80
3, 88080, Note_off_c, 2, 62, 80
3, 88080, Note_on_c, 2, 69, 95
3, 88080, Note_on_c, 2, 65, 95
3, 88080, Note_on_c, 2, 62, 95
3, 88320, Note_off_c, 2, 69, 80
3, 88320, Note_off_c, 2, 65, 80
3, 88320, Note_off_c, 2, 62, 80
3, 88320, Note_on_c, 3, 62, 95
3, 88320, Pitch_bend_c, 3, 8192
3, 88336, Pitch_bend_c, 3, 8320
3, 88352, Pitch_bend_c, 3, 8448
3, 88368, Pitch_bend_c, 3, 8832
3, 88384, Pitch_bend_c, 3, 9344
3, 88400, Pitch_bend_c, 3, 9600
3, 88576, Pitch_bend_c, 3, 9344
3, 88592, Pitch_bend_c, 3, 8832
3, 88608, Pitch_bend_c, 3, 8448
3, 88624, Pitch_bend_c, 3, 8320
3, 88640, Pitch_bend_c, 3, 8192
3, 88800, Note_off_c, 3, 62, 80
3, 88800, Pitch_bend_c, 3, 8192
3, 88800, Note_on_c, 2, 60, 95
3, 89040, Note_off_c, 2, 60, 80
3, 89040, Note_on_c, 2, 59, 95
3, 89280, Note_off_c, 2, 59, 80
3, 89280, Note_on_c, 2, 67, 95
3, 89280, Note_on_c, 2, 62, 95
3, 89280, Note_on_c, 2, 60, 95
3, 89520, Note_off_c, 2, 67, 80
3, 89520, Note_off_c, 2, 62, 80
3, 89520, Note_off_c, 2, 60, 80
3, 89520, Note_on_c, 2, 67, 95
3, 89520, Note_on_c, 2, 62, 95
3, 89520, Note_on_c, 2, 60, 95
3, 89760, Note_off_c, 2, 67, 80
3, 89760, Note_off_c, 2, 62, 80
3, 89760, Note_off_c, 2, 60, 80
3, 89760, Note_on_c, 2, 67, 95
3, 89760, Note_on_c, 2, 62, 95
3, 89760, Note_on_c, 2, 60, 95
3, 90000, Note_off_c, 2, 67, 80
3, 90000, Note_off_c, 2, 62, 80
3, 90000, Note_off_c, 2, 60, 80
3, 90000, Note_on_c, 2, 67, 95
3, 90000, Note_on_c, 2, 62, 95
3, 90000, Note_on_c, 2, 60, 95
3, 90240, Note_off_c, 2, 67, 80
3, 90240, Note_off_c, 2, 62, 80
3, 90240, Note_off_c, 2, 60, 80
3, 92160, Note_on_c, 2, 48, 95
3, 92160, Note_on_c, 2, 41, 95
3, 93120, Note_off_c, 2, 48, 80
3, 93120, Note_off_c, 2, 41, 80
3, 93120, Note_on_c, 2, 50, 95
3, 93120, Note_on_c, 2, 43, 95
3, 93360, Note_off_c, 2, 50, 80
3, 93360, Note_off_c, 2, 43, 80
3, 93600, Note_on_c, 2, 50, 95
3, 93600, Note_on_c, 2, 43, 95
3, 93840, Note_off_c, 2, 50, 80
3, 93840, Note_off_c, 2, 43, 80
3, 94080, Note_on_c, 2, 50, 95
3, 94080, Note_on_c, 2, 43, 95
3, 94320, Note_off_c, 2, 50, 80
3, 94320, Note_off_c, 2, 43, 80
3, 94560, Note_on_c, 2, 69, 95
3, 94560, Note_on_c, 2, 65, 95
3, 94560, Note_on_c, 2, 62, 95
3, 94800, Note_off_c, 2, 69, 80
3, 94800, Note_off_c, 2, 65, 80
3, 94800, Note_off_c, 2, 62, 80
3, 94800, Note_on_c, 2, 69, 95
3, 94800, Note_on_c, 2, 65, 95
3, 94800, Note_on_c, 2, 62, 95
3, 95040, Note_off_c, 2, 69, 80
3, 95040, Note_off_c, 2, 65, 80
3, 95040, Note_off_c, 2, 62, 80
3, 95040, Note_on_c, 2, 69, 95
3, 95040, Note_on_c, 2, 65, 95
3, 95040, Note_on_c, 2, 62, 95
3, 95280, Note_off_c, 2, 69, 80
3, 95280, Note_off_c, 2, 65, 80
3, 95280, Note_off_c, 2, 62, 80
3, 95280, Note_on_c, 2, 69, 95
3, 95280, Note_on_c, 2, 65, 95
3, 95280, Note_on_c, 2, 62, 95
3, 95520, Note_off_c, 2, 69, 80
3, 95520, Note_off_c, 2, 65, 80
3, 95520, Note_off_c, 2, 62, 80
3, 95520, Note_on_c, 3, 62, 95
3, 95520, Pitch_bend_c, 3, 8192
3, 95536, Pitch_bend_c, 3, 8320
3, 95552, Pitch_bend_c, 3, 8448
3, 95568, Pitch_bend_c, 3, 8832
3, 95584, Pitch_bend_c, 3, 9344
3, 95600, Pitch_bend_c, 3, 9600
3, 95776, Pitch_bend_c, 3, 9344
3, 95792, Pitch_bend_c, 3, 8832
3, 95808, Pitch_bend_c, 3, 8448
3, 95824, Pitch_bend_c, 3, 8320
3, 95840, Pitch_bend_c, 3, 8192
3, 96000, Note_off_c, 3, 62, 80
3, 96000, Pitch_bend_c, 3, 8192
3, 96000, Note_on_c, 2, 60, 95
3, 96240, Note_off_c, 2, 60, 80
3, 96240, Note_on_c, 2, 59, 95
3, 96480, Note_off_c, 2, 59, 80
3, 96480, Note_on_c, 2, 67, 95
3, 96480, Note_on_c, 2, 62, 95
3, 96480, Note_on_c, 2, 60, 95
3, 96720, Note_off_c, 2, 67, 80
3, 96720, Note_off_c, 2, 62, 80
3, 96720, Note_off_c, 2, 60, 80
3, 96720, Note_on_c, 2, 67, 95
3, 96720, Note_on_c, 2, 62, 95
3, 96720, Note_on_c, 2, 60, 95
3, 96960, Note_off_c, 2, 67, 80
3, 96960, Note_off_c, 2, 62, 80
3, 96960, Note_off_c, 2, 60, 80
3, 96960, Note_on_c, 2, 67, 95
3, 96960, Note_on_c, 2, 62, 95
3, 96960, Note_on_c, 2, 60, 95
3, 97200, Note_off_c, 2, 67, 80
3, 97200, Note_off_c, 2, 62, 80
3, 97200, Note_off_c, 2, 60, 80
3, 97200, Note_on_c, 2, 67, 95
3, 97200, Note_on_c, 2, 62, 95
3, 97200, Note_on_c, 2, 60, 95
3, 97440, Note_off_c, 2, 67, 80
3, 97440, Note_off_c, 2, 62, 80
3, 97440, Note_off_c, 2, 60, 80
3, 97440, Note_on_c, 3, 60, 95
3, 97440, Pitch_bend_c, 3, 8192
3, 97456, Pitch_bend_c, 3, 8320
3, 97472, Pitch_bend_c, 3, 8448
3, 97488, Pitch_bend_c, 3, 8832
3, 97504, Pitch_bend_c, 3, 9344
3, 97520, Pitch_bend_c, 3, 9600
3, 97696, Pitch_bend_c, 3, 9344
3, 97712, Pitch_bend_c, 3, 8832
3, 97728, Pitch_bend_c, 3, 8448
3, 97744, Pitch_bend_c, 3, 8320
3, 97760, Pitch_bend_c, 3, 8192
3, 97920, Note_off_c, 3, 60, 80
3, 97920, Pitch_bend_c, 3, 8192
3, 97920, Note_on_c, 2, 59, 95
3, 98160, Note_off_c, 2, 59, 80
3, 98160, Note_on_c, 2, 59, 95
3, 98400, Note_off_c, 2, 59, 80
3, 98400, Note_on_c, 2, 69, 95
3, 98400, Note_on_c, 2, 65, 95
3, 98400, Note_on_c, 2, 62, 95
3, 98640, Note_off_c, 2, 69, 80
3, 98640, Note_off_c, 2, 65, 80
3, 98640, Note_off_c, 2, 62, 80
3, 98640, Note_on_c, 2, 69, 95
3, 98640, Note_on_c, 2, 65, 95
3, 98640, Note_on_c, 2, 62, 95
3, 98880, Note_off_c, 2, 69, 80
3, 98880, Note_off_c, 2, 65, 80
3, 98880, Note_off_c, 2, 62, 80
3, 98880, Note_on_c, 2, 69, 95
3, 98880, Note_on_c, 2, 65, 95
3, 98880, Note_on_c, 2, 62, 95
3, 99120, Note_off_c, 2, 69, 80
3, 99120, Note_off_c, 2, 65, 80
3, 99120, Note_off_c, 2, 62, 80
3, 99120, Note_on_c, 2, 69, 95
3, 99120, Note_on_c, 2, 65, 95
3, 99120, Note_on_c, 2, 62, 95
3, 99360, Note_off_c, 2, 69, 80
3, 99360, Note_off_c, 2, 65, 80
3, 99360, Note_off_c, 2, 62, 80
3, 99360, Note_on_c, 3, 62, 95
3, 99360, Pitch_bend_c, 3, 8192
3, 99376, Pitch_bend_c, 3, 8320
3, 99392, Pitch_bend_c, 3, 8448
3, 99408, Pitch_bend_c, 3, 8832
3, 99424, Pitch_bend_c, 3, 9344
3, 99440, Pitch_bend_c, 3, 9600
3, 99616, Pitch_bend_c, 3, 9344
3, 99632, Pitch_bend_c, 3, 8832
3, 99648, Pitch_bend_c, 3, 8448
3, 99664, Pitch_bend_c, 3, 8320
3, 99680, Pitch_bend_c, 3, 8192
3, 99840, Note_off_c, 3, 62, 80
3, 99840, Pitch_bend_c, 3, 8192
3, 99840, Note_on_c, 2, 60, 95
3, 100080, Note_off_c, 2, 60, 80
3, 100080, Note_on_c, 2, 59, 95
3, 100320, Note_off_c, 2, 59, 80
3, 100320, Note_on_c, 2, 67, 95
3, 100320, Note_on_c, 2, 62, 95
3, 100320, Note_on_c, 2, 60, 95
3, 100560, Note_off_c, 2, 67, 80
3, 100560, Note_off_c, 2, 62, 80
3, 100560, Note_off_c, 2, 60, 80
3, 100560, Note_on_c, 2, 67, 95
3, 100560, Note_on_c, 2, 62, 95
3, 100560, Note_on_c, 2, 60, 95
3, 100800, Note_off_c, 2, 67, 80
3, 100800, Note_off_c, 2, 62, 80
3, 100800, Note_off_c, 2, 60, 80
3, 100800, Note_on_c, 2, 67, 95
3, 100800, Note_on_c, 2, 62, 95
3, 100800, Note_on_c, 2, 60, 95
3, 101040, Note_off_c, 2, 67, 80
3, 101040, Note_off_c, 2, 62, 80
3, 101040, Note_off_c, 2, 60, 80
3, 101040, Note_on_c, 2, 67, 95
3, 101040, Note_on_c, 2, 62, 95
3, 101040, Note_on_c, 2, 60, 95
3, 101280, Note_off_c, 2, 67, 80
3, 101280, Note_off_c, 2, 62, 80
3, 101280, Note_off_c, 2, 60, 80
3, 101280, Note_on_c, 3, 60, 95
3, 101280, Pitch_bend_c, 3, 8192
3, 101296, Pitch_bend_c, 3, 8320
3, 101312, Pitch_bend_c, 3, 8448
3, 101328, Pitch_bend_c, 3, 8832
3, 101344, Pitch_bend_c, 3, 9344
3, 101360, Pitch_bend_c, 3, 9600
3, 101536, Pitch_bend_c, 3, 9344
3, 101552, Pitch_bend_c, 3, 8832
3, 101568, Pitch_bend_c, 3, 8448
3, 101584, Pitch_bend_c, 3, 8320
3, 101600, Pitch_bend_c, 3, 8192
3, 101760, Note_off_c, 3, 60, 80
3, 101760, Pitch_bend_c, 3, 8192
3, 101760, Note_on_c, 2, 59, 95
3, 102000, Note_off_c, 2, 59, 80
3, 102000, Note_on_c, 2, 59, 95
3, 102240, Note_off_c, 2, 59, 80
3, 102240, End_track
4, 0, Start_track
4, 0, Title_t, "Track 3"
4, 0, Control_c, 5, 100, 0
4, 0, Control_c, 5, 101, 0
4, 0, Control_c, 5, 6, 12
4, 0, Pitch_bend_c, 5, 8192
4, 0, Control_c, 5, 101, 0
4, 0, Control_c, 5, 100, 1
4, 0, Control_c, 5, 6, 64
4, 0, Control_c, 5, 38, 0
4, 0, Control_c, 5, 101, 127
4, 0, Control_c, 5, 100, 127
4, 0, Control_c, 4, 100, 0
4, 0, Control_c, 4, 101, 0
4, 0, Control_c, 4, 6, 12
4, 0, Pitch_bend_c, 4, 8192
4, 0, Control_c, 4, 101, 0
4, 0, Control_c, 4, 100, 1
4, 0, Control_c, 4, 6, 64
4, 0, Control_c, 4, 38, 0
4, 0, Control_c, 4, 101, 127
4, 0, Control_c, 4, 100, 127
4, 0, Control_c, 5, 101, 0
4, 0, Control_c, 5, 100, 2
4, 0, Control_c, 5, 6, 64
4, 0, Control_c, 5, 101, 127
4, 0, Control_c, 5, 100, 127
4, 0, Control_c, 4, 101, 0
4, 0, Control_c, 4, 100, 2
4, 0, Control_c, 4, 6, 64
4, 0, Control_c, 4, 101, 127
4, 0, Control_c, 4, 100, 127
4, 0, Program_c, 5, 34
4, 0, Program_c, 4, 34
4, 0, Control_c, 5, 0, 0
4, 0, Control_c, 4, 0, 0
4, 0, Control_c, 5, 7, 127
4, 0, Control_c, 4, 7, 127
4, 0, Control_c, 5, 10, 64
4, 0, Control_c, 4, 10, 64
4, 0, Control_c, 5, 93, 0
4, 0, Control_c, 4, 93, 0
4, 0, Control_c, 5, 91, 0
4, 0, Control_c, 4, 91, 0
4, 0, Control_c, 5, 92, 0
4, 0, Control_c, 4, 92, 0
4, 0, Control_c, 5, 95, 0
4, 0, Control_c, 4, 95, 0
4, 10560, Note_on_c, 4, 38, 95
4, 10800, Note_off_c, 4, 38, 80
4, 10800, Note_on_c, 4, 38, 95
4, 11040, Note_off_c, 4, 38, 80
4, 11040, Note_on_c, 4, 38, 95
4, 11280, Note_off_c, 4, 38, 80
4, 11280, Note_on_c, 4, 38, 95
4, 11520, Note_off_c, 4, 38, 80
4, 11520, Note_on_c, 4, 33, 95
4, 11760, Note_off_c, 4, 33, 80
4, 11760, Note_on_c, 4, 33, 95
4, 12000, Note_off_c, 4, 33, 80
4, 12000, Note_on_c, 4, 33, 95
4, 12240, Note_off_c, 4, 33, 80
4, 12240, Note_on_c, 4, 33, 95
4, 12480, Note_off_c, 4, 33, 80
4, 12480, Note_on_c, 4, 36, 95
4, 12720, Note_off_c, 4, 36, 80
4, 12720, Note_on_c, 4, 36, 95
4, 12960, Note_off_c, 4, 36, 80
4, 12960, Note_on_c, 4, 36, 95
4, 13200, Note_off_c, 4, 36, 80
4, 13200, Note_on_c, 4, 36, 95
4, 13440, Note_off_c, 4, 36, 80
4, 13440, Note_on_c, 4, 31, 95
4, 13680, Note_off_c, 4, 31, 80
4, 13680, Note_on_c, 4, 31, 95
4, 13920, Note_off_c, 4, 31, 80
4, 13920, Note_on_c, 4, 31, 95
4, 14160, Note_off_c, 4, 31, 80
4, 14160, Note_on_c, 4, 31, 95
4, 14400, Note_off_c, 4, 31, 80
4, 14400, Note_on_c, 4, 38, 95
4, 14640, Note_off_c, 4, 38, 80
4, 14640, Note_on_c, 4, 38, 95
4, 14880, Note_off_c, 4, 38, 80
4, 14880, Note_on_c, 4, 38, 95
4, 15120, Note_off_c, 4, 38, 80
4, 15120, Note_on_c, 4, 38, 95
4, 15360, Note_off_c, 4, 38, 80
4, 15360, Note_on_c, 4, 33, 95
4, 15600, Note_off_c, 4, 33, 80
4, 15600, Note_on_c, 4, 33, 95
4, 15840, Note_off_c, 4, 33, 80
4, 15840, Note_on_c, 4, 33, 95
4, 16080, Note_off_c, 4, 33, 80
4, 16080, Note_on_c, 4, 33, 95
4, 16320, Note_off_c, 4, 33, 80
4, 16320, Note_on_c, 4, 36, 95
4, 16560, Note_off_c, 4, 36, 80
4, 16560, Note_on_c, 4, 36, 95
4, 16800, Note_off_c, 4, 36, 80
4, 16800, Note_on_c, 4, 36, 95
4, 17040, Note_off_c, 4, 36, 80
4, 17040, Note_on_c, 4, 36, 95
4, 17280, Note_off_c, 4, 36, 80
4, 17280, Note_on_c, 4, 31, 95
4, 17520, Note_off_c, 4, 31, 80
4, 17520, Note_on_c, 4, 31, 95
4, 17760, Note_off_c, 4, 31, 80
4, 17760, Note_on_c, 4, 31, 95
4, 18000, Note_off_c, 4, 31, 80
4, 18000, Note_on_c, 4, 31, 95
4, 18240, Note_off_c, 4, 31, 80
4, 18240, Note_on_c, 4, 38, 95
4, 18480, Note_off_c, 4, 38, 80
4, 18480, Note_on_c, 4, 38, 95
4, 18720, Note_off_c, 4, 38, 80
4, 18720, Note_on_c, 4, 38, 95
4, 18960, Note_off_c, 4, 38, 80
4, 18960, Note_on_c, 4, 38, 95
4, 19200, Note_off_c, 4, 38, 80
4, 19200, Note_on_c, 4, 33, 95
4, 19440, Note_off_c, 4, 33, 80
4, 19440, Note_on_c, 4, 33, 95
4, 19680, Note_off_c, 4, 33, 80
4, 19680, Note_on_c, 4, 33, 95
4, 19920, Note_off_c, 4, 33, 80
4, 19920, Note_on_c, 4, 33, 95
4, 20160, Note_off_c, 4, 33, 80
4, 20160, Note_on_c, 4, 36, 95
4, 20400, Note_off_c, 4, 36, 80
4, 20400, Note_on_c, 4, 36, 95
4, 20640, Note_off_c, 4, 36, 80
4, 20640, Note_on_c, 4, 36, 95
4, 20880, Note_off_c, 4, 36, 80
4, 20880, Note_on_c, 4, 36, 95
4, 21120, Note_off_c, 4, 36, 80
4, 21120, Note_on_c, 4, 31, 95
4, 21360, Note_off_c, 4, 31, 80
4, 21360, Note_on_c, 4, 31, 95
4, 21600, Note_off_c, 4, 31, 80
4, 21600, Note_on_c, 4, 31, 95
4, 21840, Note_off_c, 4, 31, 80
4, 21840, Note_on_c, 4, 31, 95
4, 22080, Note_off_c, 4, 31, 80
4, 22080, Note_on_c, 4, 38, 95
4, 22320, Note_off_c, 4, 38, 80
4, 22320, Note_on_c, 4, 38, 95
4, 22560, Note_off_c, 4, 38, 80
4, 22560, Note_on_c, 4, 38, 95
4, 22800, Note_off_c, 4, 38, 80
4, 22800, Note_on_c, 4, 38, 95
4, 23040, Note_off_c, 4, 38, 80
4, 23040, Note_on_c, 4, 33, 95
4, 23280, Note_off_c, 4, 33, 80
4, 23280, Note_on_c, 4, 33, 95
4, 23520, Note_off_c, 4, 33, 80
4, 23520, Note_on_c, 4, 33, 95
4, 23760, Note_off_c, 4, 33, 80
4, 23760, Note_on_c, 4, 33, 95
4, 24000, Note_off_c, 4, 33, 80
4, 24000, Note_on_c, 4, 36, 95
4, 24240, Note_off_c, 4, 36, 80
4, 24240, Note_on_c, 4, 36, 95
4, 24480, Note_off_c, 4, 36, 80
4, 24480, Note_on_c, 4, 36, 95
4, 24720, Note_off_c, 4, 36, 80
4, 24720, Note_on_c, 4, 36, 95
4, 24960, Note_off_c, 4, 36, 80
4, 24960, Note_on_c, 4, 31, 95
4, 25200, Note_off_c, 4, 31, 80
4, 25200, Note_on_c, 4, 31, 95
4, 25440, Note_off_c, 4, 31, 80
4, 25440, Note_on_c, 4, 31, 95
4, 25680, Note_off_c, 4, 31, 80
4, 25680, Note_on_c, 4, 31, 95
4, 25920, Note_off_c, 4, 31, 80
4, 25920, Note_on_c, 4, 38, 95
4, 26160, Note_off_c, 4, 38, 80
4, 26160, Note_on_c, 4, 38, 95
4, 26400, Note_off_c, 4, 38, 80
4, 26400, Note_on_c, 4, 38, 95
4, 26640, Note_off_c, 4, 38, 80
4, 26640, Note_on_c, 4, 38, 95
4, 26880, Note_off_c, 4, 38, 80
4, 26880, Note_on_c, 4, 33, 95
4, 27120, Note_off_c, 4, 33, 80
4, 27120, Note_on_c, 4, 33, 95
4, 27360, Note_off_c, 4, 33, 80
4, 27360, Note_on_c, 4, 33, 95
4, 27600, Note_off_c, 4, 33, 80
4, 27600, Note_on_c, 4, 33, 95
4, 27840, Note_off_c, 4, 33, 80
4, 27840, Note_on_c, 4, 36, 95
4, 28080, Note_off_c, 4, 36, 80
4, 28080, Note_on_c, 4, 36, 95
4, 28320, Note_off_c, 4, 36, 80
4, 28320, Note_on_c, 4, 36, 95
4, 28560, Note_off_c, 4, 36, 80
4, 28560, Note_on_c, 4, 36, 95
4, 28800, Note_off_c, 4, 36, 80
4, 28800, Note_on_c, 4, 31, 95
4, 29040, Note_off_c, 4, 31, 80
4, 29040, Note_on_c, 4, 31, 95
4, 29280, Note_off_c, 4, 31, 80
4, 29280, Note_on_c, 4, 31, 95
4, 29520, Note_off_c, 4, 31, 80
4, 29520, Note_on_c, 4, 31, 95
4, 29760, Note_off_c, 4, 31, 80
4, 29760, Note_on_c, 4, 38, 95
4, 30000, Note_off_c, 4, 38, 80
4, 30000, Note_on_c, 4, 38, 95
4, 30240, Note_off_c, 4, 38, 80
4, 30240, Note_on_c, 4, 38, 95
4, 30480, Note_off_c, 4, 38, 80
4, 30480, Note_on_c, 4, 38, 95
4, 30720, Note_off_c, 4, 38, 80
4, 30720, Note_on_c, 4, 33, 95
4, 30960, Note_off_c, 4, 33, 80
4, 30960, Note_on_c, 4, 33, 95
4, 31200, Note_off_c, 4, 33, 80
4, 31200, Note_on_c, 4, 33, 95
4, 31440, Note_off_c, 4, 33, 80
4, 31440, Note_on_c, 4, 33, 95
4, 31680, Note_off_c, 4, 33, 80
4, 31680, Note_on_c, 4, 36, 95
4, 31920, Note_off_c, 4, 36, 80
4, 31920, Note_on_c, 4, 36, 95
4, 32160, Note_off_c, 4, 36, 80
4, 32160, Note_on_c, 4, 36, 95
4, 32400, Note_off_c, 4, 36, 80
4, 32400, Note_on_c, 4, 36, 95
4, 32640, Note_off_c, 4, 36, 80
4, 32640, Note_on_c, 4, 31, 95
4, 32880, Note_off_c, 4, 31, 80
4, 32880, Note_on_c, 4, 31, 95
4, 33120, Note_off_c, 4, 31, 80
4, 33120, Note_on_c, 4, 31, 95
4, 33360, Note_off_c, 4, 31, 80
4, 33360, Note_on_c, 4, 31, 95
4, 33600, Note_off_c, 4, 31, 80
4, 33600, Note_on_c, 4, 38, 95
4, 33840, Note_off_c, 4, 38, 80
4, 33840, Note_on_c, 4, 38, 95
4, 34080, Note_off_c, 4, 38, 80
4, 34080, Note_on_c, 4, 38, 95
4, 34320, Note_off_c, 4, 38, 80
4, 34320, Note_on_c, 4, 38, 95
4, 34560, Note_off_c, 4, 38, 80
4, 34560, Note_on_c, 4, 33, 95
4, 34800, Note_off_c, 4, 33, 80
4, 34800, Note_on_c, 4, 33, 95
4, 35040, Note_off_c, 4, 33, 80
4, 35040, Note_on_c, 4, 33, 95
4, 35280, Note_off_c, 4, 33, 80
4, 35280, Note_on_c, 4, 33, 95
4, 35520, Note_off_c, 4, 33, 80
4, 35520, Note_on_c, 4, 36, 95
4, 35760, Note_off_c, 4, 36, 80
4, 35760, Note_on_c, 4, 36, 95
4, 36000, Note_off_c, 4, 36, 80
4, 36000, Note_on_c, 4, 36, 95
4, 36240, Note_off_c, 4, 36, 80
4, 36240, Note_on_c, 4, 36, 95
4, 36480, Note_off_c, 4, 36, 80
4, 36480, Note_on_c, 4, 31, 95
4, 36720, Note_off_c, 4, 31, 80
4, 36720, Note_on_c, 4, 31, 95
4, 36960, Note_off_c, 4, 31, 80
4, 36960, Note_on_c, 4, 31, 95
4, 37200, Note_off_c, 4, 31, 80
4, 37200, Note_on_c, 4, 31, 95
4, 37440, Note_off_c, 4, 31, 80
4, 37440, Note_on_c, 4, 38, 95
4, 37680, Note_off_c, 4, 38, 80
4, 37680, Note_on_c, 4, 38, 95
4, 37920, Note_off_c, 4, 38, 80
4, 37920, Note_on_c, 4, 38, 95
4, 38160, Note_off_c, 4, 38, 80
4, 38160, Note_on_c, 4, 38, 95
4, 38400, Note_off_c, 4, 38, 80
4, 38400, Note_on_c, 4, 33, 95
4, 38640, Note_off_c, 4, 33, 80
4, 38640, Note_on_c, 4, 33, 95
4, 38880, Note_off_c, 4, 33, 80
4, 38880, Note_on_c, 4, 33, 95
4, 39120, Note_off_c, 4, 33, 80
4, 39120, Note_on_c, 4, 33, 95
4, 39360, Note_off_c, 4, 33, 80
4, 39360, Note_on_c, 4, 36, 95
4, 39600, Note_off_c, 4, 36, 80
4, 39600, Note_on_c, 4, 36, 95
4, 39840, Note_off_c, 4, 36, 80
4, 39840, Note_on_c, 4, 36, 95
4, 40080, Note_off_c, 4, 36, 80
4, 40080, Note_on_c, 4, 36, 95
4, 40320, Note_off_c, 4, 36, 80
4, 40320, Note_on_c, 4, 31, 95
4, 40560, Note_off_c, 4, 31, 80
4, 40560, Note_on_c, 4, 31, 95
4, 40800, Note_off_c, 4, 31, 80
4, 40800, Note_on_c, 4, 31, 95
4, 41040, Note_off_c, 4, 31, 80
4, 41040, Note_on_c, 4, 31, 95
4, 41280, Note_off_c, 4, 31, 80
4, 41280, Note_on_c, 4, 38, 95
4, 41520, Note_off_c, 4, 38, 80
4, 41520, Note_on_c, 4, 38, 95
4, 41760, Note_off_c, 4, 38, 80
4, 41760, Note_on_c, 4, 38, 95
4, 42000, Note_off_c, 4, 38, 80
4, 42000, Note_on_c, 4, 38, 95
4, 42240, Note_off_c, 4, 38, 80
4, 42240, Note_on_c, 4, 33, 95
4, 42480, Note_off_c, 4, 33, 80
4, 42480, Note_on_c, 4, 33, 95
4, 42720, Note_off_c, 4, 33, 80
4, 42720, Note_on_c, 4, 33, 95
4, 42960, Note_off_c, 4, 33, 80
4, 42960, Note_on_c, 4, 33, 95
4, 43200, Note_off_c, 4, 33, 80
4, 43200, Note_on_c, 4, 36, 95
4, 43440, Note_off_c, 4, 36, 80
4, 43440, Note_on_c, 4, 36, 95
4, 43680, Note_off_c, 4, 36, 80
4, 43680, Note_on_c, 4, 36, 95
4, 43920, Note_off_c, 4, 36, 80
4, 43920, Note_on_c, 4, 36, 95
4, 44160, Note_off_c, 4, 36, 80
4, 44160, Note_on_c, 4, 31, 95
4, 44400, Note_off_c, 4, 31, 80
4, 44400, Note_on_c, 4, 31, 95
4, 44640, Note_off_c, 4, 31, 80
4, 44640, Note_on_c, 4, 31, 95
4, 44880, Note_off_c, 4, 31, 80
4, 44880, Note_on_c, 4, 31, 95
4, 45120, Note_off_c, 4, 31, 80
4, 45120, Note_on_c, 4, 38, 95
4, 45360, Note_off_c, 4, 38, 80
4, 45360, Note_on_c, 4, 38, 95
4, 45600, Note_off_c, 4, 38, 80
4, 45600, Note_on_c, 4, 38, 95
4, 45840, Note_off_c, 4, 38, 80
4, 45840, Note_on_c, 4, 38, 95
4, 46080, Note_off_c, 4, 38, 80
4, 46080, Note_on_c, 4, 33, 95
4, 46320, Note_off_c, 4, 33, 80
4, 46320, Note_on_c, 4, 33, 95
4, 46560, Note_off_c, 4, 33, 80
4, 46560, Note_on_c, 4, 33, 95
4, 46800, Note_off_c, 4, 33, 80
4, 46800, Note_on_c, 4, 33, 95
4, 47040, Note_off_c, 4, 33, 80
4, 47040, Note_on_c, 4, 36, 95
4, 47280, Note_off_c, 4, 36, 80
4, 47280, Note_on_c, 4, 36, 95
4, 47520, Note_off_c, 4, 36, 80
4, 47520, Note_on_c, 4, 36, 95
4, 47760, Note_off_c, 4, 36, 80
4, 47760, Note_on_c, 4, 36, 95
4, 48000, Note_off_c, 4, 36, 80
4, 48000, Note_on_c, 4, 31, 95
4, 48240, Note_off_c, 4, 31, 80
4, 48240, Note_on_c, 4, 31, 95
4, 48480, Note_off_c, 4, 31, 80
4, 48480, Note_on_c, 4, 31, 95
4, 48720, Note_off_c, 4, 31, 80
4, 48720, Note_on_c, 4, 31, 95
4, 48960, Note_off_c, 4, 31, 80
4, 48960, Note_on_c, 4, 38, 95
4, 49200, Note_off_c, 4, 38, 80
4, 49200, Note_on_c, 4, 38, 95
4, 49440, Note_off_c, 4, 38, 80
4, 49440, Note_on_c, 4, 38, 95
4, 49680, Note_off_c, 4, 38, 80
4, 49680, Note_on_c, 4, 38, 95
4, 49920, Note_off_c, 4, 38, 80
4, 49920, Note_on_c, 4, 33, 95
4, 50160, Note_off_c, 4, 33, 80
4, 50160, Note_on_c, 4, 33, 95
4, 50400, Note_off_c, 4, 33, 80
4, 50400, Note_on_c, 4, 33, 95
4, 50640, Note_off_c, 4, 33, 80
4, 50640, Note_on_c, 4, 33, 95
4, 50880, Note_off_c, 4, 33, 80
4, 50880, Note_on_c, 4, 36, 95
4, 51120, Note_off_c, 4, 36, 80
4, 51120, Note_on_c, 4, 36, 95
4, 51360, Note_off_c, 4, 36, 80
4, 51360, Note_on_c, 4, 36, 95
4, 51600, Note_off_c, 4, 36, 80
4, 51600, Note_on_c, 4, 36, 95
4, 51840, Note_off_c, 4, 36, 80
4, 51840, Note_on_c, 4, 31, 95
4, 52080, Note_off_c, 4, 31, 80
4, 52080, Note_on_c, 4, 31, 95
4, 52320, Note_off_c, 4, 31, 80
4, 52320, Note_on_c, 4, 31, 95
4, 52560, Note_off_c, 4, 31, 80
4, 52560, Note_on_c, 4, 31, 95
4, 52800, Note_off_c, 4, 31, 80
4, 52800, Note_on_c, 4, 38, 95
4, 53040, Note_off_c, 4, 38, 80
4, 53040, Note_on_c, 4, 38, 95
4, 53280, Note_off_c, 4, 38, 80
4, 53280, Note_on_c, 4, 38, 95
4, 53520, Note_off_c, 4, 38, 80
4, 53520, Note_on_c, 4, 38, 95
4, 53760, Note_off_c, 4, 38, 80
4, 53760, Note_on_c, 4, 33, 95
4, 54000, Note_off_c, 4, 33, 80
4, 54000, Note_on_c, 4, 33, 95
4, 54240, Note_off_c, 4, 33, 80
4, 54240, Note_on_c, 4, 33, 95
4, 54480, Note_off_c, 4, 33, 80
4, 54480, Note_on_c, 4, 33, 95
4, 54720, Note_off_c, 4, 33, 80
4, 54720, Note_on_c, 4, 36, 95
4, 54960, Note_off_c, 4, 36, 80
4, 54960, Note_on_c, 4, 36, 95
4, 55200, Note_off_c, 4, 36, 80
4, 55200, Note_on_c, 4, 36, 95
4, 55440, Note_off_c, 4, 36, 80
4, 55440, Note_on_c, 4, 36, 95
4, 55680, Note_off_c, 4, 36, 80
4, 55680, Note_on_c, 4, 31, 95
4, 55920, Note_off_c, 4, 31, 80
4, 55920, Note_on_c, 4, 31, 95
4, 56160, Note_off_c, 4, 31, 80
4, 56160, Note_on_c, 4, 31, 95
4, 56400, Note_off_c, 4, 31, 80
4, 56400, Note_on_c, 4, 31, 95
4, 56640, Note_off_c, 4, 31, 80
4, 56640, Note_on_c, 4, 38, 95
4, 56880, Note_off_c, 4, 38, 80
4, 56880, Note_on_c, 4, 38, 95
4, 57120, Note_off_c, 4, 38, 80
4, 57120, Note_on_c, 4, 38, 95
4, 57360, Note_off_c, 4, 38, 80
4, 57360, Note_on_c, 4, 38, 95
4, 57600, Note_off_c, 4, 38, 80
4, 57600, Note_on_c, 4, 33, 95
4, 57840, Note_off_c, 4, 33, 80
4, 57840, Note_on_c, 4, 33, 95
4, 58080, Note_off_c, 4, 33, 80
4, 58080, Note_on_c, 4, 33, 95
4, 58320, Note_off_c, 4, 33, 80
4, 58320, Note_on_c, 4, 33, 95
4, 58560, Note_off_c, 4, 33, 80
4, 58560, Note_on_c, 4, 36, 95
4, 58800, Note_off_c, 4, 36, 80
4, 58800, Note_on_c, 4, 36, 95
4, 59040, Note_off_c, 4, 36, 80
4, 59040, Note_on_c, 4, 36, 95
4, 59280, Note_off_c, 4, 36, 80
4, 59280, Note_on_c, 4, 36, 95
4, 59520, Note_off_c, 4, 36, 80
4, 59520, Note_on_c, 4, 31, 95
4, 59760, Note_off_c, 4, 31, 80
4, 59760, Note_on_c, 4, 31, 95
4, 60000, Note_off_c, 4, 31, 80
4, 60000, Note_on_c, 4, 31, 95
4, 60240, Note_off_c, 4, 31, 80
4, 60240, Note_on_c, 4, 31, 95
4, 60480, Note_off_c, 4, 31, 80
4, 60480, Note_on_c, 4, 38, 95
4, 60720, Note_off_c, 4, 38, 80
4, 60720, Note_on_c, 4, 38, 95
4, 60960, Note_off_c, 4, 38, 80
4, 60960, Note_on_c, 4, 38, 95
4, 61200, Note_off_c, 4, 38, 80
4, 61200, Note_on_c, 4, 38, 95
4, 61440, Note_off_c, 4, 38, 80
4, 61440, Note_on_c, 4, 33, 95
4, 61680, Note_off_c, 4, 33, 80
4, 61680, Note_on_c, 4, 33, 95
4, 61920, Note_off_c, 4, 33, 80
4, 61920, Note_on_c, 4, 33, 95
4, 62160, Note_off_c, 4, 33, 80
4, 62160, Note_on_c, 4, 33, 95
4, 62400, Note_off_c, 4, 33, 80
4, 62400, Note_on_c, 4, 36, 95
4, 62640, Note_off_c, 4, 36, 80
4, 62640, Note_on_c, 4, 36, 95
4, 62880, Note_off_c, 4, 36, 80
4, 62880, Note_on_c, 4, 36, 95
4, 63120, Note_off_c, 4, 36, 80
4, 63120, Note_on_c, 4, 36, 95
4, 63360, Note_off_c, 4, 36, 80
4, 63360, Note_on_c, 4, 31, 95
4, 63600, Note_off_c, 4, 31, 80
4, 63600, Note_on_c, 4, 31, 95
4, 63840, Note_off_c, 4, 31, 80
4, 63840, Note_on_c, 4, 31, 95
4, 64080, Note_off_c, 4, 31, 80
4, 64080, Note_on_c, 4, 31, 95
4, 64320, Note_off_c, 4, 31, 80
4, 64320, Note_on_c, 4, 38, 95
4, 64560, Note_off_c, 4, 38, 80
4, 64560, Note_on_c, 4, 38, 95
4, 64800, Note_off_c, 4, 38, 80
4, 64800, Note_on_c, 4, 38, 95
4, 65040, Note_off_c, 4, 38, 80
4, 65040, Note_on_c, 4, 38, 95
4, 65280, Note_off_c, 4, 38, 80
4, 65280, Note_on_c, 4, 33, 95
4, 65520, Note_off_c, 4, 33, 80
4, 65520, Note_on_c, 4, 33, 95
4, 65760, Note_off_c, 4, 33, 80
4, 65760, Note_on_c, 4, 33, 95
4, 66000, Note_off_c, 4, 33, 80
4, 66000, Note_on_c, 4, 33, 95
4, 66240, Note_off_c, 4, 33, 80
4, 66240, Note_on_c, 4, 36, 95
4, 66480, Note_off_c, 4, 36, 80
4, 66480, Note_on_c, 4, 36, 95
4, 66720, Note_off_c, 4, 36, 80
4, 66720, Note_on_c, 4, 36, 95
4, 66960, Note_off_c, 4, 36, 80
4, 66960, Note_on_c, 4, 36, 95
4, 67200, Note_off_c, 4, 36, 80
4, 67200, Note_on_c, 4, 31, 95
4, 67440, Note_off_c, 4, 31, 80
4, 67440, Note_on_c, 4, 31, 95
4, 67680, Note_off_c, 4, 31, 80
4, 67680, Note_on_c, 4, 31, 95
4, 67920, Note_off_c, 4, 31, 80
4, 67920, Note_on_c, 4, 31, 95
4, 68160, Note_off_c, 4, 31, 80
4, 68160, Note_on_c, 4, 38, 95
4, 68400, Note_off_c, 4, 38, 80
4, 68400, Note_on_c, 4, 38, 95
4, 68640, Note_off_c, 4, 38, 80
4, 68640, Note_on_c, 4, 38, 95
4, 68880, Note_off_c, 4, 38, 80
4, 68880, Note_on_c, 4, 38, 95
4, 69120, Note_off_c, 4, 38, 80
4, 69120, Note_on_c, 4, 33, 95
4, 69360, Note_off_c, 4, 33, 80
4, 69360, Note_on_c, 4, 33, 95
4, 69600, Note_off_c, 4, 33, 80
4, 69600, Note_on_c, 4, 33, 95
4, 69840, Note_off_c, 4, 33, 80
4, 69840, Note_on_c, 4, 33, 95
4, 70080, Note_off_c, 4, 33, 80
4, 70080, Note_on_c, 4, 36, 95
4, 70320, Note_off_c, 4, 36, 80
4, 70320, Note_on_c, 4, 36, 95
4, 70560, Note_off_c, 4, 36, 80
4, 70560, Note_on_c, 4, 40, 95
4, 71520, Note_off_c, 4, 40, 80
4, 71520, Note_on_c, 4, 36, 95
4, 72480, Note_off_c, 4, 36, 80
4, 72480, Note_on_c, 4, 29, 95
4, 73440, Note_off_c, 4, 29, 80
4, 73440, Note_on_c, 4, 31, 95
4, 74880, Note_off_c, 4, 31, 80
4, 75840, Note_on_c, 4, 38, 95
4, 76080, Note_off_c, 4, 38, 80
4, 76080, Note_on_c, 4, 38, 95
4, 76320, Note_off_c, 4, 38, 80
4, 76320, Note_on_c, 4, 38, 95
4, 76560, Note_off_c, 4, 38, 80
4, 76560, Note_on_c, 4, 38, 95
4, 76800, Note_off_c, 4, 38, 80
4, 76800, Note_on_c, 4, 33, 95
4, 77040, Note_off_c, 4, 33, 80
4, 77040, Note_on_c, 4, 33, 95
4, 77280, Note_off_c, 4, 33, 80
4, 77280, Note_on_c, 4, 33, 95
4, 77520, Note_off_c, 4, 33, 80
4, 77520, Note_on_c, 4, 33, 95
4, 77760, Note_off_c, 4, 33, 80
4, 77760, Note_on_c, 4, 36, 95
4, 78000, Note_off_c, 4, 36, 80
4, 78000, Note_on_c, 4, 36, 95
4, 78240, Note_off_c, 4, 36, 80
4, 78240, Note_on_c, 4, 36, 95
4, 78480, Note_off_c, 4, 36, 80
4, 78480, Note_on_c, 4, 36, 95
4, 78720, Note_off_c, 4, 36, 80
4, 78720, Note_on_c, 4, 31, 95
4, 78960, Note_off_c, 4, 31, 80
4, 78960, Note_on_c, 4, 31, 95
4, 79200, Note_off_c, 4, 31, 80
4, 79200, Note_on_c, 4, 31, 95
4, 79440, Note_off_c, 4, 31, 80
4, 79440, Note_on_c, 4, 31, 95
4, 79680, Note_off_c, 4, 31, 80
4, 79680, Note_on_c, 4, 38, 95
4, 79920, Note_off_c, 4, 38, 80
4, 79920, Note_on_c, 4, 38, 95
4, 80160, Note_off_c, 4, 38, 80
4, 80160, Note_on_c, 4, 38, 95
4, 80400, Note_off_c, 4, 38, 80
4, 80400, Note_on_c, 4, 38, 95
4, 80640, Note_off_c, 4, 38, 80
4, 80640, Note_on_c, 4, 33, 95
4, 80880, Note_off_c, 4, 33, 80
4, 80880, Note_on_c, 4, 33, 95
4, 81120, Note_off_c, 4, 33, 80
4, 81120, Note_on_c, 4, 33, 95
4, 81360, Note_off_c, 4, 33, 80
4, 81360, Note_on_c, 4, 33, 95
4, 81600, Note_off_c, 4, 33, 80
4, 81600, Note_on_c, 4, 36, 95
4, 81840, Note_off_c, 4, 36, 80
4, 81840, Note_on_c, 4, 36, 95
4, 82080, Note_off_c, 4, 36, 80
4, 82080, Note_on_c, 4, 36, 95
4, 82320, Note_off_c, 4, 36, 80
4, 82320, Note_on_c, 4, 36, 95
4, 82560, Note_off_c, 4, 36, 80
4, 82560, Note_on_c, 4, 31, 95
4, 82800, Note_off_c, 4, 31, 80
4, 82800, Note_on_c, 4, 31, 95
4, 83040, Note_off_c, 4, 31, 80
4, 83040, Note_on_c, 4, 31, 95
4, 83280, Note_off_c, 4, 31, 80
4, 83280, Note_on_c, 4, 31, 95
4, 83520, Note_off_c, 4, 31, 80
4, 83520, Note_on_c, 4, 38, 95
4, 83760, Note_off_c, 4, 38, 80
4, 83760, Note_on_c, 4, 38, 95
4, 84000, Note_off_c, 4, 38, 80
4, 84000, Note_on_c, 4, 38, 95
4, 84240, Note_off_c, 4, 38, 80
4, 84240, Note_on_c, 4, 38, 95
4, 84480, Note_off_c, 4, 38, 80
4, 84480, Note_on_c, 4, 33, 95
4, 84720, Note_off_c, 4, 33, 80
4, 84720, Note_on_c, 4, 33, 95
4, 84960, Note_off_c, 4, 33, 80
4, 84960, Note_on_c, 4, 33, 95
4, 85200, Note_off_c, 4, 33, 80
4, 85200, Note_on_c, 4, 33, 95
4, 85440, Note_off_c, 4, 33, 80
4, 85440, Note_on_c, 4, 36, 95
4, 85680, Note_off_c, 4, 36, 80
4, 85680, Note_on_c, 4, 36, 95
4, 85920, Note_off_c, 4, 36, 80
4, 85920, Note_on_c, 4, 36, 95
4, 86160, Note_off_c, 4, 36, 80
4, 86160, Note_on_c, 4, 36, 95
4, 86400, Note_off_c, 4, 36, 80
4, 86400, Note_on_c, 4, 31, 95
4, 86640, Note_off_c, 4, 31, 80
4, 86640, Note_on_c, 4, 31, 95
4, 86880, Note_off_c, 4, 31, 80
4, 86880, Note_on_c, 4, 31, 95
4, 87120, Note_off_c, 4, 31, 80
4, 87120, Note_on_c, 4, 31, 95
4, 87360, Note_off_c, 4, 31, 80
4, 87360, Note_on_c, 4, 38, 95
4, 87600, Note_off_c, 4, 38, 80
4, 87600, Note_on_c, 4, 38, 95
4, 87840, Note_off_c, 4, 38, 80
4, 87840, Note_on_c, 4, 38, 95
4, 88080, Note_off_c, 4, 38, 80
4, 88080, Note_on_c, 4, 38, 95
4, 88320, Note_off_c, 4, 38, 80
4, 88320, Note_on_c, 4, 33, 95
4, 88560, Note_off_c, 4, 33, 80
4, 88560, Note_on_c, 4, 33, 95
4, 88800, Note_off_c, 4, 33, 80
4, 88800, Note_on_c, 4, 33, 95
4, 89040, Note_off_c, 4, 33, 80
4, 89040, Note_on_c, 4, 33, 95
4, 89280, Note_off_c, 4, 33, 80
4, 89280, Note_on_c, 4, 36, 95
4, 89520, Note_off_c, 4, 36, 80
4, 89520, Note_on_c, 4, 36, 95
4, 89760, Note_off_c, 4, 36, 80
4, 89760, Note_on_c, 4, 36, 95
4, 90000, Note_off_c, 4, 36, 80
4, 90000, Note_on_c, 5, 36, 95
4, 90192, Pitch_bend_c, 5, 8832
4, 90208, Pitch_bend_c, 5, 9600
4, 90224, Pitch_bend_c, 5, 10240
4, 90240, Note_off_c, 5, 36, 80
4, 90240, Pitch_bend_c, 5, 8192
4, 90240, Note_on_c, 4, 40, 76
4, 90480, Note_off_c, 4, 40, 80
4, 90480, Note_on_c, 4, 40, 95
4, 90600, Note_off_c, 4, 40, 80
4, 90600, Note_on_c, 4, 40, 95
4, 90720, Note_off_c, 4, 40, 80
4, 90720, Note_on_c, 4, 40, 95
4, 90840, Note_off_c, 4, 40, 80
4, 90840, Note_on_c, 4, 40, 95
4, 90960, Note_off_c, 4, 40, 80
4, 90960, Note_on_c, 4, 40, 95
4, 91080, Note_off_c, 4, 40, 80
4, 91080, Note_on_c, 4, 40, 95
4, 91200, Note_off_c, 4, 40, 80
4, 91200, Note_on_c, 4, 36, 95
4, 91440, Note_off_c, 4, 36, 80
4, 91440, Note_on_c, 4, 36, 95
4, 91560, Note_off_c, 4, 36, 80
4, 91560, Note_on_c, 4, 36, 95
4, 91680, Note_off_c, 4, 36, 80
4, 91680, Note_on_c, 4, 36, 95
4, 91800, Note_off_c, 4, 36, 80
4, 91800, Note_on_c, 4, 36, 95
4, 91920, Note_off_c, 4, 36, 80
4, 91920, Note_on_c, 4, 36, 95
4, 92040, Note_off_c, 4, 36, 80
4, 92040, Note_on_c, 4, 36, 95
4, 92160, Note_off_c, 4, 36, 80
4, 92160, Note_on_c, 4, 29, 95
4, 92400, Note_off_c, 4, 29, 80
4, 92400, Note_on_c, 4, 29, 95
4, 92520, Note_off_c, 4, 29, 80
4, 92520, Note_on_c, 4, 29, 95
4, 92640, Note_off_c, 4, 29, 80
4, 92640, Note_on_c, 4, 29, 95
4, 92760, Note_off_c, 4, 29, 80
4, 92760, Note_on_c, 4, 29, 95
4, 92880, Note_off_c, 4, 29, 80
4, 92880, Note_on_c, 4, 29, 95
4, 93000, Note_off_c, 4, 29, 80
4, 93000, Note_on_c, 4, 29, 95
4, 93120, Note_off_c, 4, 29, 80
4, 93120, Note_on_c, 4, 31, 95
4, 93360, Note_off_c, 4, 31, 80
4, 93600, Note_on_c, 4, 31, 95
4, 93840, Note_off_c, 4, 31, 80
4, 94080, Note_on_c, 4, 31, 95
4, 94320, Note_off_c, 4, 31, 80
4, 94560, Note_on_c, 4, 38, 95
4, 94800, Note_off_c, 4, 38, 80
4, 94800, Note_on_c, 4, 38, 95
4, 95040, Note_off_c, 4, 38, 80
4, 95040, Note_on_c, 4, 38, 95
4, 95280, Note_off_c, 4, 38, 80
4, 95280, Note_on_c, 4, 38, 95
4, 95520, Note_off_c, 4, 38, 80
4, 95520, Note_on_c, 4, 33, 95
4, 95760, Note_off_c, 4, 33, 80
4, 95760, Note_on_c, 4, 33, 95
4, 96000, Note_off_c, 4, 33, 80
4, 96000, Note_on_c, 4, 33, 95
4, 96240, Note_off_c, 4, 33, 80
4, 96240, Note_on_c, 4, 33, 95
4, 96480, Note_off_c, 4, 33, 80
4, 96480, Note_on_c, 4, 36, 95
4, 96720, Note_off_c, 4, 36, 80
4, 96720, Note_on_c, 4, 36, 95
4, 96960, Note_off_c, 4, 36, 80
4, 96960, Note_on_c, 4, 36, 95
4, 97200, Note_off_c, 4, 36, 80
4, 97200, Note_on_c, 4, 36, 95
4, 97440, Note_off_c, 4, 36, 80
4, 97440, Note_on_c, 4, 31, 95
4, 97680, Note_off_c, 4, 31, 80
4, 97680, Note_on_c, 4, 31, 95
4, 97920, Note_off_c, 4, 31, 80
4, 97920, Note_on_c, 4, 31, 95
4, 98160, Note_off_c, 4, 31, 80
4, 98160, Note_on_c, 4, 31, 95
4, 98400, Note_off_c, 4, 31, 80
4, 98400, Note_on_c, 4, 38, 95
4, 98640, Note_off_c, 4, 38, 80
4, 98640, Note_on_c, 4, 38, 95
4, 98880, Note_off_c, 4, 38, 80
4, 98880, Note_on_c, 4, 38, 95
4, 99120, Note_off_c, 4, 38, 80
4, 99120, Note_on_c, 4, 38, 95
4, 99360, Note_off_c, 4, 38, 80
4, 99360, Note_on_c, 4, 33, 95
4, 99600, Note_off_c, 4, 33, 80
4, 99600, Note_on_c, 4, 33, 95
4, 99840, Note_off_c, 4, 33, 80
4, 99840, Note_on_c, 4, 33, 95
4, 100080, Note_off_c, 4, 33, 80
4, 100080, Note_on_c, 4, 33, 95
4, 100320, Note_off_c, 4, 33, 80
4, 100320, Note_on_c, 4, 36, 95
4, 100560, Note_off_c, 4, 36, 80
4, 100560, Note_on_c, 4, 36, 95
4, 100800, Note_off_c, 4, 36, 80
4, 100800, Note_on_c, 4, 36, 95
4, 101040, Note_off_c, 4, 36, 80
4, 101040, Note_on_c, 4, 36, 95
4, 101280, Note_off_c, 4, 36, 80
4, 101280, Note_on_c, 4, 31, 95
4, 101520, Note_off_c, 4, 31, 80
4, 101520, Note_on_c, 4, 31, 95
4, 101760, Note_off_c, 4, 31, 80
4, 101760, Note_on_c, 4, 31, 95
4, 102000, Note_off_c, 4, 31, 80
4, 102000, Note_on_c, 4, 31, 95
4, 102240, Note_off_c, 4, 31, 80
4, 102240, Note_on_c, 4, 38, 95
4, 102480, Note_off_c, 4, 38, 80
4, 102480, Note_on_c, 4, 38, 95
4, 102720, Note_off_c, 4, 38, 80
4, 102720, Note_on_c, 4, 38, 95
4, 102960, Note_off_c, 4, 38, 80
4, 102960, Note_on_c, 4, 38, 95
4, 103200, Note_off_c, 4, 38, 80
4, 103200, Note_on_c, 4, 33, 95
4, 103440, Note_off_c, 4, 33, 80
4, 103440, Note_on_c, 4, 33, 95
4, 103680, Note_off_c, 4, 33, 80
4, 103680, Note_on_c, 4, 33, 95
4, 103920, Note_off_c, 4, 33, 80
4, 103920, Note_on_c, 4, 33, 95
4, 104160, Note_off_c, 4, 33, 80
4, 104160, Note_on_c, 4, 36, 95
4, 104400, Note_off_c, 4, 36, 80
4, 104400, Note_on_c, 4, 36, 95
4, 104640, Note_off_c, 4, 36, 80
4, 104640, Note_on_c, 4, 36, 95
4, 104880, Note_off_c, 4, 36, 80
4, 104880, Note_on_c, 4, 36, 95
4, 105120, Note_off_c, 4, 36, 80
4, 105120, Note_on_c, 4, 31, 95
4, 105360, Note_off_c, 4, 31, 80
4, 105360, Note_on_c, 4, 31, 95
4, 105600, Note_off_c, 4, 31, 80
4, 105600, Note_on_c, 4, 31, 95
4, 105840, Note_off_c, 4, 31, 80
4, 105840, Note_on_c, 4, 31, 95
4, 106080, Note_off_c, 4, 31, 80
4, 106080, Note_on_c, 4, 38, 95
4, 106320, Note_off_c, 4, 38, 80
4, 106320, Note_on_c, 4, 38, 95
4, 106560, Note_off_c, 4, 38, 80
4, 106560, Note_on_c, 4, 38, 95
4, 106800, Note_off_c, 4, 38, 80
4, 106800, Note_on_c, 4, 38, 95
4, 107040, Note_off_c, 4, 38, 80
4, 107040, Note_on_c, 4, 33, 95
4, 107280, Note_off_c, 4, 33, 80
4, 107280, Note_on_c, 4, 33, 95
4, 107520, Note_off_c, 4, 33, 80
4, 107520, Note_on_c, 4, 33, 95
4, 107760, Note_off_c, 4, 33, 80
4, 107760, Note_on_c, 4, 33, 95
4, 108000, Note_off_c, 4, 33, 80
4, 108000, Note_on_c, 4, 36, 95
4, 108240, Note_off_c, 4, 36, 80
4, 108240, Note_on_c, 4, 36, 95
4, 108480, Note_off_c, 4, 36, 80
4, 108480, Note_on_c, 4, 36, 95
4, 108720, Note_off_c, 4, 36, 80
4, 108720, Note_on_c, 4, 36, 95
4, 108960, Note_off_c, 4, 36, 80
4, 108960, Note_on_c, 4, 31, 95
4, 109200, Note_off_c, 4, 31, 80
4, 109200, Note_on_c, 4, 31, 95
4, 109440, Note_off_c, 4, 31, 80
4, 109440, Note_on_c, 4, 31, 95
4, 109680, Note_off_c, 4, 31, 80
4, 109680, Note_on_c, 4, 31, 95
4, 109920, Note_off_c, 4, 31, 80
4, 109920, Note_on_c, 4, 38, 95
4, 110160, Note_off_c, 4, 38, 80
4, 110160, Note_on_c, 4, 38, 95
4, 110400, Note_off_c, 4, 38, 80
4, 110400, Note_on_c, 4, 38, 95
4, 110640, Note_off_c, 4, 38, 80
4, 110640, Note_on_c, 4, 38, 95
4, 110880, Note_off_c, 4, 38, 80
4, 110880, Note_on_c, 4, 33, 95
4, 111120, Note_off_c, 4, 33, 80
4, 111120, Note_on_c, 4, 33, 95
4, 111360, Note_off_c, 4, 33, 80
4, 111360, Note_on_c, 4, 33, 95
4, 111600, Note_off_c, 4, 33, 80
4, 111600, Note_on_c, 4, 33, 95
4, 111840, Note_off_c, 4, 33, 80
4, 111840, Note_on_c, 4, 36, 95
4, 112080, Note_off_c, 4, 36, 80
4, 112080, Note_on_c, 4, 36, 95
4, 112320, Note_off_c, 4, 36, 80
4, 112320, Note_on_c, 4, 36, 95
4, 112560, Note_off_c, 4, 36, 80
4, 112560, Note_on_c, 4, 36, 95
4, 112800, Note_off_c, 4, 36, 80
4, 112800, Note_on_c, 4, 31, 95
4, 113040, Note_off_c, 4, 31, 80
4, 113040, Note_on_c, 4, 31, 95
4, 113280, Note_off_c, 4, 31, 80
4, 113280, Note_on_c, 4, 31, 95
4, 113520, Note_off_c, 4, 31, 80
4, 113520, Note_on_c, 4, 31, 95
4, 113760, Note_off_c, 4, 31, 80
4, 113760, Note_on_c, 4, 38, 95
4, 114000, Note_off_c, 4, 38, 80
4, 114000, Note_on_c, 4, 38, 95
4, 114240, Note_off_c, 4, 38, 80
4, 114240, Note_on_c, 4, 38, 95
4, 114480, Note_off_c, 4, 38, 80
4, 114480, Note_on_c, 4, 38, 95
4, 114720, Note_off_c, 4, 38, 80
4, 114720, Note_on_c, 4, 33, 95
4, 114960, Note_off_c, 4, 33, 80
4, 114960, Note_on_c, 4, 33, 95
4, 115200, Note_off_c, 4, 33, 80
4, 115200, Note_on_c, 4, 33, 95
4, 115440, Note_off_c, 4, 33, 80
4, 115440, Note_on_c, 4, 33, 95
4, 115680, Note_off_c, 4, 33, 80
4, 115680, Note_on_c, 4, 36, 95
4, 115920, Note_off_c, 4, 36, 80
4, 115920, Note_on_c, 4, 36, 95
4, 116160, Note_off_c, 4, 36, 80
4, 116160, Note_on_c, 4, 36, 95
4, 116400, Note_off_c, 4, 36, 80
4, 116400, Note_on_c, 4, 36, 95
4, 116640, Note_off_c, 4, 36, 80
4, 116640, Note_on_c, 4, 31, 95
4, 116880, Note_off_c, 4, 31, 80
4, 116880, Note_on_c, 4, 31, 95
4, 117120, Note_off_c, 4, 31, 80
4, 117120, Note_on_c, 4, 31, 95
4, 117360, Note_off_c, 4, 31, 80
4, 117360, Note_on_c, 4, 31, 95
4, 117600, Note_off_c, 4, 31, 80
4, 117600, Note_on_c, 4, 38, 95
4, 117840, Note_off_c, 4, 38, 80
4, 117840, Note_on_c, 4, 38, 95
4, 118080, Note_off_c, 4, 38, 80
4, 118080, Note_on_c, 4, 38, 95
4, 118320, Note_off_c, 4, 38, 80
4, 118320, Note_on_c, 4, 38, 95
4, 118560, Note_off_c, 4, 38, 80
4, 118560, End_track
5, 0, Start_track
5, 0, Title_t, "Percussion"
5, 0, Control_c, 9, 100, 0
5, 0, Control_c, 9, 101, 0
5, 0, Control_c, 9, 6, 12
5, 0, Pitch_bend_c, 9, 8192
5, 0, Control_c, 9, 101, 0
5, 0, Control_c, 9, 100, 1
5, 0, Control_c, 9, 6, 64
5, 0, Control_c, 9, 38, 0
5, 0, Control_c, 9, 101, 127
5, 0, Control_c, 9, 100, 127
5, 0, Program_c, 9, 24
5, 0, Control_c, 9, 0, 0
5, 0, Control_c, 9, 7, 104
5, 0, Control_c, 9, 10, 64
5, 0, Control_c, 9, 93, 0
5, 0, Control_c, 9, 91, 0
5, 0, Control_c, 9, 92, 0
5, 0, Control_c, 9, 95, 0
5, 1920, Note_on_c, 9, 35, 95
5, 1920, Note_on_c, 9, 35, 95
5, 1920, Note_on_c, 9, 35, 95
5, 1920, Note_on_c, 9, 49, 95
5, 2160, Note_off_c, 9, 35, 80
5, 2160, Note_off_c, 9, 35, 80
5, 2160, Note_off_c, 9, 35, 80
5, 2160, Note_off_c, 9, 49, 80
5, 2160, Note_on_c, 9, 35, 95
5, 2160, Note_on_c, 9, 35, 95
5, 2160, Note_on_c, 9, 35, 95
5, 2160, Note_on_c, 9, 42, 95
5, 2400, Note_off_c, 9, 35, 80
5, 2400, Note_off_c, 9, 35, 80
5, 2400, Note_off_c, 9, 35, 80
5, 2400, Note_off_c, 9, 42, 80
5, 2400, Note_on_c, 9, 35, 95
5, 2400, Note_on_c, 9, 35, 95
5, 2400, Note_on_c, 9, 35, 95
5, 2400, Note_on_c, 9, 42, 95
5, 2640, Note_off_c, 9, 35, 80
5, 2640, Note_off_c, 9, 35, 80
5, 2640, Note_off_c, 9, 35, 80
5, 2640, Note_off_c, 9, 42, 80
5, 2640, Note_on_c, 9, 35, 95
5, 2640, Note_on_c, 9, 35, 95
5, 2640, Note_on_c, 9, 35, 95
5, 2640, Note_on_c, 9, 42, 95
5, 2880, Note_off_c, 9, 35, 80
5, 2880, Note_off_c, 9, 35, 80
5, 2880, Note_off_c, 9, 35, 80
5, 2880, Note_off_c, 9, 42, 80
5, 2880, Note_on_c, 9, 40, 95
5, 2880, Note_on_c, 9, 42, 95
5, 3120, Note_off_c, 9, 40, 80
5, 3120, Note_off_c, 9, 42, 80
5, 3120, Note_on_c, 9, 35, 95
5, 3120, Note_on_c, 9, 35, 95
5, 3120, Note_on_c, 9, 35, 95
5, 3120, Note_on_c, 9, 42, 95
5, 3360, Note_off_c, 9, 35, 80
5, 3360, Note_off_c, 9, 35, 80
5, 3360, Note_off_c, 9, 35, 80
5, 3360, Note_off_c, 9, 42, 80
5, 3360, Note_on_c, 9, 35, 95
5, 3360, Note_on_c, 9, 35, 95
5, 3360, Note_on_c, 9, 35, 95
5, 3360, Note_on_c, 9, 42, 95
5, 3600, Note_off_c, 9, 35, 80
5, 3600, Note_off_c, 9, 35, 80
5, 3600, Note_off_c, 9, 35, 80
5, 3600, Note_off_c, 9, 42, 80
5, 3600, Note_on_c, 9, 42, 95
5, 3840, Note_off_c, 9, 42, 80
5, 3840, Note_on_c, 9, 40, 95
5, 3840, Note_on_c, 9, 42, 95
5, 4080, Note_off_c, 9, 40, 80
5, 4080, Note_off_c, 9, 42, 80
5, 4080, Note_on_c, 9, 35, 95
5, 4080, Note_on_c, 9, 35, 95
5, 4080, Note_on_c, 9, 35, 95
5, 4080, Note_on_c, 9, 42, 95
5, 4320, Note_off_c, 9, 35, 80
5, 4320, Note_off_c, 9, 35, 80
5, 4320, Note_off_c, 9, 35, 80
5, 4320, Note_off_c, 9, 42, 80
5, 4320, Note_on_c, 9, 35, 95
5, 4320, Note_on_c, 9, 35, 95
5, 4320, Note_on_c, 9, 35, 95
5, 4320, Note_on_c, 9, 42, 95
5, 4560, Note_off_c, 9, 35, 80
5, 4560, Note_off_c, 9, 35, 80
5, 4560, Note_off_c, 9, 35, 80
5, 4560, Note_off_c, 9, 42, 80
5, 4560, Note_on_c, 9, 35, 95
5, 4560, Note_on_c, 9, 35, 95
5, 4560, Note_on_c, 9, 35, 95
5, 4560, Note_on_c, 9, 42, 95
5, 4800, Note_off_c, 9, 35, 80
5, 4800, Note_off_c, 9, 35, 80
5, 4800, Note_off_c, 9, 35, 80
5, 4800, Note_off_c, 9, 42, 80
5, 4800, Note_on_c, 9, 40, 95
5, 4800, Note_on_c, 9, 42, 95
5, 5040, Note_off_c, 9, 40, 80
5, 5040, Note_off_c, 9, 42, 80
5, 5040, Note_on_c, 9, 35, 95
5, 5040, Note_on_c, 9, 35, 95
5, 5040, Note_on_c, 9, 35, 95
5, 5040, Note_on_c, 9, 42, 95
5, 5280, Note_off_c, 9, 35, 80
5, 5280, Note_off_c, 9, 35, 80
5, 5280, Note_off_c, 9, 35, 80
5, 5280, Note_off_c, 9, 42, 80
5, 5280, Note_on_c, 9, 35, 95
5, 5280, Note_on_c, 9, 35, 95
5, 5280, Note_on_c, 9, 35, 95
5, 5280, Note_on_c, 9, 42, 95
5, 5520, Note_off_c, 9, 35, 80
5, 5520, Note_off_c, 9, 35, 80
5, 5520, Note_off_c, 9, 35, 80
5, 5520, Note_off_c, 9, 42, 80
5, 5520, Note_on_c, 9, 42, 95
5, 5760, Note_off_c, 9, 42, 80
5, 5760, Note_on_c, 9, 40, 95
5, 5760, Note_on_c, 9, 42, 95
5, 6000, Note_off_c, 9, 40, 80
5, 6000, Note_off_c, 9, 42, 80
5, 6000, Note_on_c, 9, 35, 95
5, 6000, Note_on_c, 9, 35, 95
5, 6000, Note_on_c, 9, 35, 95
5, 6000, Note_on_c, 9, 42, 95
5, 6240, Note_off_c, 9, 35, 80
5, 6240, Note_off_c, 9, 35, 80
5, 6240, Note_off_c, 9, 35, 80
5, 6240, Note_off_c, 9, 42, 80
5, 6240, Note_on_c, 9, 35, 95
5, 6240, Note_on_c, 9, 35, 95
5, 6240, Note_on_c, 9, 35, 95
5, 6240, Note_on_c, 9, 42, 95
5, 6480, Note_off_c, 9, 35, 80
5, 6480, Note_off_c, 9, 35, 80
5, 6480, Note_off_c, 9, 35, 80
5, 6480, Note_off_c, 9, 42, 80
5, 6480, Note_on_c, 9, 35, 95
5, 6480, Note_on_c, 9, 35, 95
5, 6480, Note_on_c, 9, 35, 95
5, 6480, Note_on_c, 9, 42, 95
5, 6720, Note_off_c, 9, 35, 80
5, 6720, Note_off_c, 9, 35, 80
5, 6720, Note_off_c, 9, 35, 80
5, 6720, Note_off_c, 9, 42, 80
5, 6720, Note_on_c, 9, 40, 95
5, 6720, Note_on_c, 9, 42, 95
5, 6960, Note_off_c, 9, 40, 80
5, 6960, Note_off_c, 9, 42, 80
5, 6960, Note_on_c, 9, 35, 95
5, 6960, Note_on_c, 9, 35, 95
5, 6960, Note_on_c, 9, 35, 95
5, 6960, Note_on_c, 9, 42, 95
5, 7200, Note_off_c, 9, 35, 80
5, 7200, Note_off_c, 9, 35, 80
5, 7200, Note_off_c, 9, 35, 80
5, 7200, Note_off_c, 9, 42, 80
5, 7200, Note_on_c, 9, 35, 95
5, 7200, Note_on_c, 9, 35, 95
5, 7200, Note_on_c, 9, 35, 95
5, 7200, Note_on_c, 9, 42, 95
5, 7440, Note_off_c, 9, 35, 80
5, 7440, Note_off_c, 9, 35, 80
5, 7440, Note_off_c, 9, 35, 80
5, 7440, Note_off_c, 9, 42, 80
5, 7440, Note_on_c, 9, 42, 95
5, 7680, Note_off_c, 9, 42, 80
5, 7680, Note_on_c, 9, 40, 95
5, 7680, Note_on_c, 9, 42, 95
5, 7920, Note_off_c, 9, 40, 80
5, 7920, Note_off_c, 9, 42, 80
5, 7920, Note_on_c, 9, 35, 95
5, 7920, Note_on_c, 9, 35, 95
5, 7920, Note_on_c, 9, 35, 95
5, 7920, Note_on_c, 9, 42, 95
5, 8160, Note_off_c, 9, 35, 80
5, 8160, Note_off_c, 9, 35, 80
5, 8160, Note_off_c, 9, 35, 80
5, 8160, Note_off_c, 9, 42, 80
5, 8160, Note_on_c, 9, 35, 95
5, 8160, Note_on_c, 9, 35, 95
5, 8160, Note_on_c, 9, 35, 95
5, 8160, Note_on_c, 9, 42, 95
5, 8400, Note_off_c, 9, 35, 80
5, 8400, Note_off_c, 9, 35, 80
5, 8400, Note_off_c, 9, 35, 80
5, 8400, Note_off_c, 9, 42, 80
5, 8400, Note_on_c, 9, 35, 95
5, 8400, Note_on_c, 9, 35, 95
5, 8400, Note_on_c, 9, 35, 95
5, 8400, Note_on_c, 9, 42, 95
5, 8640, Note_off_c, 9, 35, 80
5, 8640, Note_off_c, 9, 35, 80
5, 8640, Note_off_c, 9, 35, 80
5, 8640, Note_off_c, 9, 42, 80
5, 8640, Note_on_c, 9, 40, 95
5, 8640, Note_on_c, 9, 42, 95
5, 8880, Note_off_c, 9, 40, 80
5, 8880, Note_off_c, 9, 42, 80
5, 8880, Note_on_c, 9, 35, 95
5, 8880, Note_on_c, 9, 35, 95
5, 8880, Note_on_c, 9, 35, 95
5, 8880, Note_on_c, 9, 42, 95
5, 9120, Note_off_c, 9, 35, 80
5, 9120, Note_off_c, 9, 35, 80
5, 9120, Note_off_c, 9, 35, 80
5, 9120, Note_off_c, 9, 42, 80
5, 9120, Note_on_c, 9, 35, 95
5, 9120, Note_on_c, 9, 35, 95
5, 9120, Note_on_c, 9, 35, 95
5, 9120, Note_on_c, 9, 42, 95
5, 9360, Note_off_c, 9, 35, 80
5, 9360, Note_off_c, 9, 35, 80
5, 9360, Note_off_c, 9, 35, 80
5, 9360, Note_off_c, 9, 42, 80
5, 9360, Note_on_c, 9, 42, 95
5, 9600, Note_off_c, 9, 42, 80
5, 9600, Note_on_c, 9, 40, 95
5, 9600, Note_on_c, 9, 42, 95
5, 9840, Note_off_c, 9, 40, 80
5, 9840, Note_off_c, 9, 42, 80
5, 9840, Note_on_c, 9, 35, 95
5, 9840, Note_on_c, 9, 35, 95
5, 9840, Note_on_c, 9, 35, 95
5, 9840, Note_on_c, 9, 42, 95
5, 10080, Note_off_c, 9, 35, 80
5, 10080, Note_off_c, 9, 35, 80
5, 10080, Note_off_c, 9, 35, 80
5, 10080, Note_off_c, 9, 42, 80
5, 10080, Note_on_c, 9, 35, 95
5, 10080, Note_on_c, 9, 35, 95
5, 10080, Note_on_c, 9, 35, 95
5, 10080, Note_on_c, 9, 42, 95
5, 10320, Note_off_c, 9, 35, 80
5, 10320, Note_off_c, 9, 35, 80
5, 10320, Note_off_c, 9, 35, 80
5, 10320, Note_off_c, 9, 42, 80
5, 10320, Note_on_c, 9, 35, 95
5, 10320, Note_on_c, 9, 35, 95
5, 10320, Note_on_c, 9, 35, 95
5, 10320, Note_on_c, 9, 42, 95
5, 10560, Note_off_c, 9, 35, 80
5, 10560, Note_off_c, 9, 35, 80
5, 10560, Note_off_c, 9, 35, 80
5, 10560, Note_off_c, 9, 42, 80
5, 10560, Note_on_c, 9, 40, 95
5, 10560, Note_on_c, 9, 42, 95
5, 10800, Note_off_c, 9, 40, 80
5, 10800, Note_off_c, 9, 42, 80
5, 10800, Note_on_c, 9, 35, 95
5, 10800, Note_on_c, 9, 35, 95
5, 10800, Note_on_c, 9, 35, 95
5, 10800, Note_on_c, 9, 42, 95
5, 11040, Note_off_c, 9, 35, 80
5, 11040, Note_off_c, 9, 35, 80
5, 11040, Note_off_c, 9, 35, 80
5, 11040, Note_off_c, 9, 42, 80
5, 11040, Note_on_c, 9, 35, 95
5, 11040, Note_on_c, 9, 35, 95
5, 11040, Note_on_c, 9, 35, 95
5, 11040, Note_on_c, 9, 42, 95
5, 11280, Note_off_c, 9, 35, 80
5, 11280, Note_off_c, 9, 35, 80
5, 11280, Note_off_c, 9, 35, 80
5, 11280, Note_off_c, 9, 42, 80
5, 11280, Note_on_c, 9, 42, 95
5, 11520, Note_off_c, 9, 42, 80
5, 11520, Note_on_c, 9, 40, 95
5, 11520, Note_on_c, 9, 42, 95
5, 11760, Note_off_c, 9, 40, 80
5, 11760, Note_off_c, 9, 42, 80
5, 11760, Note_on_c, 9, 35, 95
5, 11760, Note_on_c, 9, 35, 95
5, 11760, Note_on_c, 9, 35, 95
5, 11760, Note_on_c, 9, 42, 95
5, 12000, Note_off_c, 9, 35, 80
5, 12000, Note_off_c, 9, 35, 80
5, 12000, Note_off_c, 9, 35, 80
5, 12000, Note_off_c, 9, 42, 80
5, 12000, Note_on_c, 9, 35, 95
5, 12000, Note_on_c, 9, 35, 95
5, 12000, Note_on_c, 9, 35, 95
5, 12000, Note_on_c, 9, 42, 95
5, 12240, Note_off_c, 9, 35, 80
5, 12240, Note_off_c, 9, 35, 80
5, 12240, Note_off_c, 9, 35, 80
5, 12240, Note_off_c, 9, 42, 80
5, 12240, Note_on_c, 9, 35, 95
5, 12240, Note_on_c, 9, 35, 95
5, 12240, Note_on_c, 9, 35, 95
5, 12240, Note_on_c, 9, 42, 95
5, 12480, Note_off_c, 9, 35, 80
5, 12480, Note_off_c, 9, 35, 80
5, 12480, Note_off_c, 9, 35, 80
5, 12480, Note_off_c, 9, 42, 80
5, 12480, Note_on_c, 9, 40, 95
5, 12480, Note_on_c, 9, 42, 95
5, 12720, Note_off_c, 9, 40, 80
5, 12720, Note_off_c, 9, 42, 80
5, 12720, Note_on_c, 9, 35, 95
5, 12720, Note_on_c, 9, 35, 95
5, 12720, Note_on_c, 9, 35, 95
5, 12720, Note_on_c, 9, 42, 95
5, 12960, Note_off_c, 9, 35, 80
5, 12960, Note_off_c, 9, 35, 80
5, 12960, Note_off_c, 9, 35, 80
5, 12960, Note_off_c, 9, 42, 80
5, 12960, Note_on_c, 9, 35, 95
5, 12960, Note_on_c, 9, 35, 95
5, 12960, Note_on_c, 9, 35, 95
5, 12960, Note_on_c, 9, 42, 95
5, 13200, Note_off_c, 9, 35, 80
5, 13200, Note_off_c, 9, 35, 80
5, 13200, Note_off_c, 9, 35, 80
5, 13200, Note_off_c, 9, 42, 80
5, 13200, Note_on_c, 9, 42, 95
5, 13440, Note_off_c, 9, 42, 80
5, 13440, Note_on_c, 9, 40, 95
5, 13440, Note_on_c, 9, 42, 95
5, 13680, Note_off_c, 9, 40, 80
5, 13680, Note_off_c, 9, 42, 80
5, 13680, Note_on_c, 9, 35, 95
5, 13680, Note_on_c, 9, 35, 95
5, 13680, Note_on_c, 9, 35, 95
5, 13680, Note_on_c, 9, 42, 95
5, 13920, Note_off_c, 9, 35, 80
5, 13920, Note_off_c, 9, 35, 80
5, 13920, Note_off_c, 9, 35, 80
5, 13920, Note_off_c, 9, 42, 80
5, 13920, Note_on_c, 9, 35, 95
5, 13920, Note_on_c, 9, 35, 95
5, 13920, Note_on_c, 9, 35, 95
5, 13920, Note_on_c, 9, 42, 95
5, 14160, Note_off_c, 9, 35, 80
5, 14160, Note_off_c, 9, 35, 80
5, 14160, Note_off_c, 9, 35, 80
5, 14160, Note_off_c, 9, 42, 80
5, 14160, Note_on_c, 9, 35, 95
5, 14160, Note_on_c, 9, 35, 95
5, 14160, Note_on_c, 9, 35, 95
5, 14160, Note_on_c, 9, 42, 95
5, 14400, Note_off_c, 9, 35, 80
5, 14400, Note_off_c, 9, 35, 80
5, 14400, Note_off_c, 9, 35, 80
5, 14400, Note_off_c, 9, 42, 80
5, 14400, Note_on_c, 9, 40, 95
5, 14400, Note_on_c, 9, 42, 95
5, 14640, Note_off_c, 9, 40, 80
5, 14640, Note_off_c, 9, 42, 80
5, 14640, Note_on_c, 9, 35, 95
5, 14640, Note_on_c, 9, 35, 95
5, 14640, Note_on_c, 9, 35, 95
5, 14640, Note_on_c, 9, 42, 95
5, 14880, Note_off_c, 9, 35, 80
5, 14880, Note_off_c, 9, 35, 80
5, 14880, Note_off_c, 9, 35, 80
5, 14880, Note_off_c, 9, 42, 80
5, 14880, Note_on_c, 9, 35, 95
5, 14880, Note_on_c, 9, 35, 95
5, 14880, Note_on_c, 9, 35, 95
5, 14880, Note_on_c, 9, 42, 95
5, 15120, Note_off_c, 9, 35, 80
5, 15120, Note_off_c, 9, 35, 80
5, 15120, Note_off_c, 9, 35, 80
5, 15120, Note_off_c, 9, 42, 80
5, 15120, Note_on_c, 9, 42, 95
5, 15360, Note_off_c, 9, 42, 80
5, 15360, Note_on_c, 9, 40, 95
5, 15360, Note_on_c, 9, 42, 95
5, 15600, Note_off_c, 9, 40, 80
5, 15600, Note_off_c, 9, 42, 80
5, 15600, Note_on_c, 9, 35, 95
5, 15600, Note_on_c, 9, 35, 95
5, 15600, Note_on_c, 9, 35, 95
5, 15600, Note_on_c, 9, 42, 95
5, 15840, Note_off_c, 9, 35, 80
5, 15840, Note_off_c, 9, 35, 80
5, 15840, Note_off_c, 9, 35, 80
5, 15840, Note_off_c, 9, 42, 80
5, 15840, Note_on_c, 9, 35, 95
5, 15840, Note_on_c, 9, 35, 95
5, 15840, Note_on_c, 9, 35, 95
5, 15840, Note_on_c, 9, 42, 95
5, 16080, Note_off_c, 9, 35, 80
5, 16080, Note_off_c, 9, 35, 80
5, 16080, Note_off_c, 9, 35, 80
5, 16080, Note_off_c, 9, 42, 80
5, 16080, Note_on_c, 9, 35, 95
5, 16080, Note_on_c, 9, 35, 95
5, 16080, Note_on_c, 9, 35, 95
5, 16080, Note_on_c, 9, 42, 95
5, 16320, Note_off_c, 9, 35, 80
5, 16320, Note_off_c, 9, 35, 80
5, 16320, Note_off_c, 9, 35, 80
5, 16320, Note_off_c, 9, 42, 80
5, 16320, Note_on_c, 9, 40, 95
5, 16320, Note_on_c, 9, 42, 95
5, 16560, Note_off_c, 9, 40, 80
5, 16560, Note_off_c, 9, 42, 80
5, 16560, Note_on_c, 9, 35, 95
5, 16560, Note_on_c, 9, 35, 95
5, 16560, Note_on_c, 9, 35, 95
5, 16560, Note_on_c, 9, 42, 95
5, 16800, Note_off_c, 9, 35, 80
5, 16800, Note_off_c, 9, 35, 80
5, 16800, Note_off_c, 9, 35, 80
5, 16800, Note_off_c, 9, 42, 80
5, 16800, Note_on_c, 9, 35, 95
5, 16800, Note_on_c, 9, 35, 95
5, 16800, Note_on_c, 9, 35, 95
5, 16800, Note_on_c, 9, 42, 95
5, 17040, Note_off_c, 9, 35, 80
5, 17040, Note_off_c, 9, 35, 80
5, 17040, Note_off_c, 9, 35, 80
5, 17040, Note_off_c, 9, 42, 80
5, 17040, Note_on_c, 9, 42, 95
5, 17280, Note_off_c, 9, 42, 80
5, 17280, Note_on_c, 9, 40, 95
5, 17280, Note_on_c, 9, 42, 95
5, 17520, Note_off_c, 9, 40, 80
5, 17520, Note_off_c, 9, 42, 80
5, 17520, Note_on_c, 9, 35, 95
5, 17520, Note_on_c, 9, 35, 95
5, 17520, Note_on_c, 9, 35, 95
5, 17520, Note_on_c, 9, 42, 95
5, 17760, Note_off_c, 9, 35, 80
5, 17760, Note_off_c, 9, 35, 80
5, 17760, Note_off_c, 9, 35, 80
5, 17760, Note_off_c, 9, 42, 80
5, 17760, Note_on_c, 9, 35, 95
5, 17760, Note_on_c, 9, 35, 95
5, 17760, Note_on_c, 9, 35, 95
5, 17760, Note_on_c, 9, 42, 95
5, 18000, Note_off_c, 9, 35, 80
5, 18000, Note_off_c, 9, 35, 80
5, 18000, Note_off_c, 9, 35, 80
5, 18000, Note_off_c, 9, 42, 80
5, 18000, Note_on_c, 9, 35, 95
5, 18000, Note_on_c, 9, 35, 95
5, 18000, Note_on_c, 9, 35, 95
5, 18000, Note_on_c, 9, 42, 95
5, 18240, Note_off_c, 9, 35, 80
5, 18240, Note_off_c, 9, 35, 80
5, 18240, Note_off_c, 9, 35, 80
5, 18240, Note_off_c, 9, 42, 80
5, 18240, Note_on_c, 9, 40, 95
5, 18240, Note_on_c, 9, 42, 95
5, 18480, Note_off_c, 9, 40, 80
5, 18480, Note_off_c, 9, 42, 80
5, 18480, Note_on_c, 9, 35, 95
5, 18480, Note_on_c, 9, 35, 95
5, 18480, Note_on_c, 9, 35, 95
5, 18480, Note_on_c, 9, 42, 95
5, 18720, Note_off_c, 9, 35, 80
5, 18720, Note_off_c, 9, 35, 80
5, 18720, Note_off_c, 9, 35, 80
5, 18720, Note_off_c, 9, 42, 80
5, 18720, Note_on_c, 9, 35, 95
5, 18720, Note_on_c, 9, 35, 95
5, 18720, Note_on_c, 9, 35, 95
5, 18720, Note_on_c, 9, 42, 95
5, 18960, Note_off_c, 9, 35, 80
5, 18960, Note_off_c, 9, 35, 80
5, 18960, Note_off_c, 9, 35, 80
5, 18960, Note_off_c, 9, 42, 80
5, 18960, Note_on_c, 9, 42, 95
5, 19200, Note_off_c, 9, 42, 80
5, 19200, Note_on_c, 9, 40, 95
5, 19200, Note_on_c, 9, 42, 95
5, 19440, Note_off_c, 9, 40, 80
5, 19440, Note_off_c, 9, 42, 80
5, 19440, Note_on_c, 9, 35, 95
5, 19440, Note_on_c, 9, 35, 95
5, 19440, Note_on_c, 9, 35, 95
5, 19440, Note_on_c, 9, 42, 95
5, 19680, Note_off_c, 9, 35, 80
5, 19680, Note_off_c, 9, 35, 80
5, 19680, Note_off_c, 9, 35, 80
5, 19680, Note_off_c, 9, 42, 80
5, 19680, Note_on_c, 9, 35, 95
5, 19680, Note_on_c, 9, 35, 95
5, 19680, Note_on_c, 9, 35, 95
5, 19680, Note_on_c, 9, 42, 95
5, 19920, Note_off_c, 9, 35, 80
5, 19920, Note_off_c, 9, 35, 80
5, 19920, Note_off_c, 9, 35, 80
5, 19920, Note_off_c, 9, 42, 80
5, 19920, Note_on_c, 9, 35, 95
5, 19920, Note_on_c, 9, 35, 95
5, 19920, Note_on_c, 9, 35, 95
5, 19920, Note_on_c, 9, 42, 95
5, 20160, Note_off_c, 9, 35, 80
5, 20160, Note_off_c, 9, 35, 80
5, 20160, Note_off_c, 9, 35, 80
5, 20160, Note_off_c, 9, 42, 80
5, 20160, Note_on_c, 9, 40, 95
5, 20160, Note_on_c, 9, 42, 95
5, 20400, Note_off_c, 9, 40, 80
5, 20400, Note_off_c, 9, 42, 80
5, 20400, Note_on_c, 9, 35, 95
5, 20400, Note_on_c, 9, 35, 95
5, 20400, Note_on_c, 9, 35, 95
5, 20400, Note_on_c, 9, 42, 95
5, 20640, Note_off_c, 9, 35, 80
5, 20640, Note_off_c, 9, 35, 80
5, 20640, Note_off_c, 9, 35, 80
5, 20640, Note_off_c, 9, 42, 80
5, 20640, Note_on_c, 9, 35, 95
5, 20640, Note_on_c, 9, 35, 95
5, 20640, Note_on_c, 9, 35, 95
5, 20640, Note_on_c, 9, 42, 95
5, 20880, Note_off_c, 9, 35, 80
5, 20880, Note_off_c, 9, 35, 80
5, 20880, Note_off_c, 9, 35, 80
5, 20880, Note_off_c, 9, 42, 80
5, 20880, Note_on_c, 9, 42, 95
5, 21120, Note_off_c, 9, 42, 80
5, 21120, Note_on_c, 9, 40, 95
5, 21120, Note_on_c, 9, 42, 95
5, 21240, Note_off_c, 9, 40, 80
5, 21240, Note_off_c, 9, 42, 80
5, 21240, Note_on_c, 9, 40, 95
5, 21240, Note_on_c, 9, 42, 95
5, 21360, Note_off_c, 9, 40, 80
5, 21360, Note_off_c, 9, 42, 80
5, 21360, Note_on_c, 9, 35, 95
5, 21360, Note_on_c, 9, 35, 95
5, 21360, Note_on_c, 9, 35, 95
5, 21360, Note_on_c, 9, 42, 95
5, 21600, Note_off_c, 9, 35, 80
5, 21600, Note_off_c, 9, 35, 80
5, 21600, Note_off_c, 9, 35, 80
5, 21600, Note_off_c, 9, 42, 80
5, 21600, Note_on_c, 9, 40, 95
5, 21600, Note_on_c, 9, 42, 95
5, 21840, Note_off_c, 9, 40, 80
5, 21840, Note_off_c, 9, 42, 80
5, 21840, Note_on_c, 9, 35, 95
5, 21840, Note_on_c, 9, 35, 95
5, 21840, Note_on_c, 9, 35, 95
5, 21840, Note_on_c, 9, 42, 95
5, 22080, Note_off_c, 9, 35, 80
5, 22080, Note_off_c, 9, 35, 80
5, 22080, Note_off_c, 9, 35, 80
5, 22080, Note_off_c, 9, 42, 80
5, 22080, Note_on_c, 9, 35, 95
5, 22080, Note_on_c, 9, 35, 95
5, 22080, Note_on_c, 9, 35, 95
5, 22080, Note_on_c, 9, 42, 95
5, 22320, Note_off_c, 9, 35, 80
5, 22320, Note_off_c, 9, 35, 80
5, 22320, Note_off_c, 9, 35, 80
5, 22320, Note_off_c, 9, 42, 80
5, 22320, Note_on_c, 9, 35, 95
5, 22320, Note_on_c, 9, 35, 95
5, 22320, Note_on_c, 9, 35, 95
5, 22560, Note_off_c, 9, 35, 80
5, 22560, Note_off_c, 9, 35, 80
5, 22560, Note_off_c, 9, 35, 80
5, 22560, Note_on_c, 9, 35, 95
5, 22560, Note_on_c, 9, 35, 95
5, 22560, Note_on_c, 9, 35, 95
5, 22800, Note_off_c, 9, 35, 80
5, 22800, Note_off_c, 9, 35, 80
5, 22800, Note_off_c, 9, 35, 80
5, 22800, Note_on_c, 9, 35, 95
5, 22800, Note_on_c, 9, 35, 95
5, 22800, Note_on_c, 9, 35, 95
5, 23040, Note_off_c, 9, 35, 80
5, 23040, Note_off_c, 9, 35, 80
5, 23040, Note_off_c, 9, 35, 80
5, 23040, Note_on_c, 9, 40, 95
5, 23040, Note_on_c, 9, 42, 95
5, 23280, Note_off_c, 9, 40, 80
5, 23280, Note_off_c, 9, 42, 80
5, 23280, Note_on_c, 9, 35, 95
5, 23280, Note_on_c, 9, 35, 95
5, 23280, Note_on_c, 9, 35, 95
5, 23280, Note_on_c, 9, 42, 95
5, 23520, Note_off_c, 9, 35, 80
5, 23520, Note_off_c, 9, 35, 80
5, 23520, Note_off_c, 9, 35, 80
5, 23520, Note_off_c, 9, 42, 80
5, 23520, Note_on_c, 9, 35, 95
5, 23520, Note_on_c, 9, 35, 95
5, 23520, Note_on_c, 9, 35, 95
5, 23520, Note_on_c, 9, 42, 95
5, 23760, Note_off_c, 9, 35, 80
5, 23760, Note_off_c, 9, 35, 80
5, 23760, Note_off_c, 9, 35, 80
5, 23760, Note_off_c, 9, 42, 80
5, 23760, Note_on_c, 9, 35, 95
5, 23760, Note_on_c, 9, 35, 95
5, 23760, Note_on_c, 9, 35, 95
5, 23760, Note_on_c, 9, 42, 95
5, 24000, Note_off_c, 9, 35, 80
5, 24000, Note_off_c, 9, 35, 80
5, 24000, Note_off_c, 9, 35, 80
5, 24000, Note_off_c, 9, 42, 80
5, 24000, Note_on_c, 9, 42, 95
5, 24240, Note_off_c, 9, 42, 80
5, 24240, Note_on_c, 9, 35, 95
5, 24240, Note_on_c, 9, 35, 95
5, 24240, Note_on_c, 9, 35, 95
5, 24240, Note_on_c, 9, 42, 95
5, 24480, Note_off_c, 9, 35, 80
5, 24480, Note_off_c, 9, 35, 80
5, 24480, Note_off_c, 9, 35, 80
5, 24480, Note_off_c, 9, 42, 80
5, 24480, Note_on_c, 9, 35, 95
5, 24480, Note_on_c, 9, 35, 95
5, 24480, Note_on_c, 9, 35, 95
5, 24480, Note_on_c, 9, 42, 95
5, 24720, Note_off_c, 9, 35, 80
5, 24720, Note_off_c, 9, 35, 80
5, 24720, Note_off_c, 9, 35, 80
5, 24720, Note_off_c, 9, 42, 80
5, 24720, Note_on_c, 9, 35, 95
5, 24720, Note_on_c, 9, 35, 95
5, 24720, Note_on_c, 9, 35, 95
5, 24720, Note_on_c, 9, 42, 95
5, 24960, Note_off_c, 9, 35, 80
5, 24960, Note_off_c, 9, 35, 80
5, 24960, Note_off_c, 9, 35, 80
5, 24960, Note_off_c, 9, 42, 80
5, 24960, Note_on_c, 9, 40, 95
5, 24960, Note_on_c, 9, 42, 95
5, 25200, Note_off_c, 9, 40, 80
5, 25200, Note_off_c, 9, 42, 80
5, 25200, Note_on_c, 9, 35, 95
5, 25200, Note_on_c, 9, 35, 95
5, 25200, Note_on_c, 9, 35, 95
5, 25200, Note_on_c, 9, 42, 95
5, 25440, Note_off_c, 9, 35, 80
5, 25440, Note_off_c, 9, 35, 80
5, 25440, Note_off_c, 9, 35, 80
5, 25440, Note_off_c, 9, 42, 80
5, 25440, Note_on_c, 9, 35, 95
5, 25440, Note_on_c, 9, 35, 95
5, 25440, Note_on_c, 9, 35, 95
5, 25440, Note_on_c, 9, 42, 95
5, 25680, Note_off_c, 9, 35, 80
5, 25680, Note_off_c, 9, 35, 80
5, 25680, Note_off_c, 9, 35, 80
5, 25680, Note_off_c, 9, 42, 80
5, 25680, Note_on_c, 9, 35, 95
5, 25680, Note_on_c, 9, 35, 95
5, 25680, Note_on_c, 9, 35, 95
5, 25680, Note_on_c, 9, 42, 95
5, 25920, Note_off_c, 9, 35, 80
5, 25920, Note_off_c, 9, 35, 80
5, 25920, Note_off_c, 9, 35, 80
5, 25920, Note_off_c, 9, 42, 80
5, 25920, Note_on_c, 9, 42, 95
5, 26160, Note_off_c, 9, 42, 80
5, 26160, Note_on_c, 9, 35, 95
5, 26160, Note_on_c, 9, 35, 95
5, 26160, Note_on_c, 9, 35, 95
5, 26160, Note_on_c, 9, 42, 95
5, 26400, Note_off_c, 9, 35, 80
5, 26400, Note_off_c, 9, 35, 80
5, 26400, Note_off_c, 9, 35, 80
5, 26400, Note_off_c, 9, 42, 80
5, 26400, Note_on_c, 9, 35, 95
5, 26400, Note_on_c, 9, 35, 95
5, 26400, Note_on_c, 9, 35, 95
5, 26400, Note_on_c, 9, 42, 95
5, 26640, Note_off_c, 9, 35, 80
5, 26640, Note_off_c, 9, 35, 80
5, 26640, Note_off_c, 9, 35, 80
5, 26640, Note_off_c, 9, 42, 80
5, 26640, Note_on_c, 9, 35, 95
5, 26640, Note_on_c, 9, 35, 95
5, 26640, Note_on_c, 9, 35, 95
5, 26640, Note_on_c, 9, 42, 95
5, 26880, Note_off_c, 9, 35, 80
5, 26880, Note_off_c, 9, 35, 80
5, 26880, Note_off_c, 9, 35, 80
5, 26880, Note_off_c, 9, 42, 80
5, 26880, Note_on_c, 9, 40, 95
5, 26880, Note_on_c, 9, 42, 95
5, 27120, Note_off_c, 9, 40, 80
5, 27120, Note_off_c, 9, 42, 80
5, 27120, Note_on_c, 9, 35, 95
5, 27120, Note_on_c, 9, 35, 95
5, 27120, Note_on_c, 9, 35, 95
5, 27120, Note_on_c, 9, 42, 95
5, 27360, Note_off_c, 9, 35, 80
5, 27360, Note_off_c, 9, 35, 80
5, 27360, Note_off_c, 9, 35, 80
5, 27360, Note_off_c, 9, 42, 80
5, 27360, Note_on_c, 9, 35, 95
5, 27360, Note_on_c, 9, 35, 95
5, 27360, Note_on_c, 9, 35, 95
5, 27360, Note_on_c, 9, 42, 95
5, 27600, Note_off_c, 9, 35, 80
5, 27600, Note_off_c, 9, 35, 80
5, 27600, Note_off_c, 9, 35, 80
5, 27600, Note_off_c, 9, 42, 80
5, 27600, Note_on_c, 9, 35, 95
5, 27600, Note_on_c, 9, 35, 95
5, 27600, Note_on_c, 9, 35, 95
5, 27600, Note_on_c, 9, 42, 95
5, 27840, Note_off_c, 9, 35, 80
5, 27840, Note_off_c, 9, 35, 80
5, 27840, Note_off_c, 9, 35, 80
5, 27840, Note_off_c, 9, 42, 80
5, 27840, Note_on_c, 9, 42, 95
5, 28080, Note_off_c, 9, 42, 80
5, 28080, Note_on_c, 9, 35, 95
5, 28080, Note_on_c, 9, 35, 95
5, 28080, Note_on_c, 9, 35, 95
5, 28080, Note_on_c, 9, 42, 95
5, 28320, Note_off_c, 9, 35, 80
5, 28320, Note_off_c, 9, 35, 80
5, 28320, Note_off_c, 9, 35, 80
5, 28320, Note_off_c, 9, 42, 80
5, 28320, Note_on_c, 9, 35, 95
5, 28320, Note_on_c, 9, 35, 95
5, 28320, Note_on_c, 9, 35, 95
5, 28320, Note_on_c, 9, 42, 95
5, 28560, Note_off_c, 9, 35, 80
5, 28560, Note_off_c, 9, 35, 80
5, 28560, Note_off_c, 9, 35, 80
5, 28560, Note_off_c, 9, 42, 80
5, 28560, Note_on_c, 9, 35, 95
5, 28560, Note_on_c, 9, 35, 95
5, 28560, Note_on_c, 9, 35, 95
5, 28560, Note_on_c, 9, 42, 95
5, 28800, Note_off_c, 9, 35, 80
5, 28800, Note_off_c, 9, 35, 80
5, 28800, Note_off_c, 9, 35, 80
5, 28800, Note_off_c, 9, 42, 80
5, 28800, Note_on_c, 9, 40, 95
5, 28800, Note_on_c, 9, 42, 95
5, 29040, Note_off_c, 9, 40, 80
5, 29040, Note_off_c, 9, 42, 80
5, 29040, Note_on_c, 9, 35, 95
5, 29040, Note_on_c, 9, 35, 95
5, 29040, Note_on_c, 9, 35, 95
5, 29040, Note_on_c, 9, 42, 95
5, 29280, Note_off_c, 9, 35, 80
5, 29280, Note_off_c, 9, 35, 80
5, 29280, Note_off_c, 9, 35, 80
5, 29280, Note_off_c, 9, 42, 80
5, 29280, Note_on_c, 9, 35, 95
5, 29280, Note_on_c, 9, 35, 95
5, 29280, Note_on_c, 9, 35, 95
5, 29280, Note_on_c, 9, 42, 95
5, 29520, Note_off_c, 9, 35, 80
5, 29520, Note_off_c, 9, 35, 80
5, 29520, Note_off_c, 9, 35, 80
5, 29520, Note_off_c, 9, 42, 80
5, 29520, Note_on_c, 9, 35, 95
5, 29520, Note_on_c, 9, 35, 95
5, 29520, Note_on_c, 9, 35, 95
5, 29520, Note_on_c, 9, 42, 95
5, 29760, Note_off_c, 9, 35, 80
5, 29760, Note_off_c, 9, 35, 80
5, 29760, Note_off_c, 9, 35, 80
5, 29760, Note_off_c, 9, 42, 80
5, 29760, Note_on_c, 9, 42, 95
5, 30000, Note_off_c, 9, 42, 80
5, 30000, Note_on_c, 9, 35, 95
5, 30000, Note_on_c, 9, 35, 95
5, 30000, Note_on_c, 9, 35, 95
5, 30000, Note_on_c, 9, 42, 95
5, 30240, Note_off_c, 9, 35, 80
5, 30240, Note_off_c, 9, 35, 80
5, 30240, Note_off_c, 9, 35, 80
5, 30240, Note_off_c, 9, 42, 80
5, 30240, Note_on_c, 9, 35, 95
5, 30240, Note_on_c, 9, 35, 95
5, 30240, Note_on_c, 9, 35, 95
5, 30240, Note_on_c, 9, 42, 95
5, 30480, Note_off_c, 9, 35, 80
5, 30480, Note_off_c, 9, 35, 80
5, 30480, Note_off_c, 9, 35, 80
5, 30480, Note_off_c, 9, 42, 80
5, 30480, Note_on_c, 9, 35, 95
5, 30480, Note_on_c, 9, 35, 95
5, 30480, Note_on_c, 9, 35, 95
5, 30480, Note_on_c, 9, 42, 95
5, 30720, Note_off_c, 9, 35, 80
5, 30720, Note_off_c, 9, 35, 80
5, 30720, Note_off_c, 9, 35, 80
5, 30720, Note_off_c, 9, 42, 80
5, 30720, Note_on_c, 9, 40, 95
5, 30720, Note_on_c, 9, 42, 95
5, 30960, Note_off_c, 9, 40, 80
5, 30960, Note_off_c, 9, 42, 80
5, 30960, Note_on_c, 9, 35, 95
5, 30960, Note_on_c, 9, 35, 95
5, 30960, Note_on_c, 9, 35, 95
5, 30960, Note_on_c, 9, 42, 95
5, 31200, Note_off_c, 9, 35, 80
5, 31200, Note_off_c, 9, 35, 80
5, 31200, Note_off_c, 9, 35, 80
5, 31200, Note_off_c, 9, 42, 80
5, 31200, Note_on_c, 9, 35, 95
5, 31200, Note_on_c, 9, 35, 95
5, 31200, Note_on_c, 9, 35, 95
5, 31200, Note_on_c, 9, 42, 95
5, 31440, Note_off_c, 9, 35, 80
5, 31440, Note_off_c, 9, 35, 80
5, 31440, Note_off_c, 9, 35, 80
5, 31440, Note_off_c, 9, 42, 80
5, 31440, Note_on_c, 9, 35, 95
5, 31440, Note_on_c, 9, 35, 95
5, 31440, Note_on_c, 9, 35, 95
5, 31440, Note_on_c, 9, 42, 95
5, 31680, Note_off_c, 9, 35, 80
5, 31680, Note_off_c, 9, 35, 80
5, 31680, Note_off_c, 9, 35, 80
5, 31680, Note_off_c, 9, 42, 80
5, 31680, Note_on_c, 9, 42, 95
5, 31920, Note_off_c, 9, 42, 80
5, 31920, Note_on_c, 9, 35, 95
5, 31920, Note_on_c, 9, 35, 95
5, 31920, Note_on_c, 9, 35, 95
5, 31920, Note_on_c, 9, 42, 95
5, 32160, Note_off_c, 9, 35, 80
5, 32160, Note_off_c, 9, 35, 80
5, 32160, Note_off_c, 9, 35, 80
5, 32160, Note_off_c, 9, 42, 80
5, 32160, Note_on_c, 9, 35, 95
5, 32160, Note_on_c, 9, 35, 95
5, 32160, Note_on_c, 9, 35, 95
5, 32160, Note_on_c, 9, 42, 95
5, 32400, Note_off_c, 9, 35, 80
5, 32400, Note_off_c, 9, 35, 80
5, 32400, Note_off_c, 9, 35, 80
5, 32400, Note_off_c, 9, 42, 80
5, 32400, Note_on_c, 9, 35, 95
5, 32400, Note_on_c, 9, 35, 95
5, 32400, Note_on_c, 9, 35, 95
5, 32400, Note_on_c, 9, 42, 95
5, 32640, Note_off_c, 9, 35, 80
5, 32640, Note_off_c, 9, 35, 80
5, 32640, Note_off_c, 9, 35, 80
5, 32640, Note_off_c, 9, 42, 80
5, 32640, Note_on_c, 9, 40, 95
5, 32640, Note_on_c, 9, 42, 95
5, 32880, Note_off_c, 9, 40, 80
5, 32880, Note_off_c, 9, 42, 80
5, 32880, Note_on_c, 9, 35, 95
5, 32880, Note_on_c, 9, 35, 95
5, 32880, Note_on_c, 9, 35, 95
5, 32880, Note_on_c, 9, 42, 95
5, 33120, Note_off_c, 9, 35, 80
5, 33120, Note_off_c, 9, 35, 80
5, 33120, Note_off_c, 9, 35, 80
5, 33120, Note_off_c, 9, 42, 80
5, 33120, Note_on_c, 9, 35, 95
5, 33120, Note_on_c, 9, 35, 95
5, 33120, Note_on_c, 9, 35, 95
5, 33120, Note_on_c, 9, 42, 95
5, 33360, Note_off_c, 9, 35, 80
5, 33360, Note_off_c, 9, 35, 80
5, 33360, Note_off_c, 9, 35, 80
5, 33360, Note_off_c, 9, 42, 80
5, 33360, Note_on_c, 9, 35, 95
5, 33360, Note_on_c, 9, 35, 95
5, 33360, Note_on_c, 9, 35, 95
5, 33360, Note_on_c, 9, 42, 95
5, 33600, Note_off_c, 9, 35, 80
5, 33600, Note_off_c, 9, 35, 80
5, 33600, Note_off_c, 9, 35, 80
5, 33600, Note_off_c, 9, 42, 80
5, 33600, Note_on_c, 9, 42, 95
5, 33840, Note_off_c, 9, 42, 80
5, 33840, Note_on_c, 9, 35, 95
5, 33840, Note_on_c, 9, 35, 95
5, 33840, Note_on_c, 9, 35, 95
5, 33840, Note_on_c, 9, 42, 95
5, 34080, Note_off_c, 9, 35, 80
5, 34080, Note_off_c, 9, 35, 80
5, 34080, Note_off_c, 9, 35, 80
5, 34080, Note_off_c, 9, 42, 80
5, 34080, Note_on_c, 9, 35, 95
5, 34080, Note_on_c, 9, 35, 95
5, 34080, Note_on_c, 9, 35, 95
5, 34080, Note_on_c, 9, 42, 95
5, 34320, Note_off_c, 9, 35, 80
5, 34320, Note_off_c, 9, 35, 80
5, 34320, Note_off_c, 9, 35, 80
5, 34320, Note_off_c, 9, 42, 80
5, 34320, Note_on_c, 9, 35, 95
5, 34320, Note_on_c, 9, 35, 95
5, 34320, Note_on_c, 9, 35, 95
5, 34320, Note_on_c, 9, 42, 95
5, 34560, Note_off_c, 9, 35, 80
5, 34560, Note_off_c, 9, 35, 80
5, 34560, Note_off_c, 9, 35, 80
5, 34560, Note_off_c, 9, 42, 80
5, 34560, Note_on_c, 9, 40, 95
5, 34560, Note_on_c, 9, 42, 95
5, 34800, Note_off_c, 9, 40, 80
5, 34800, Note_off_c, 9, 42, 80
5, 34800, Note_on_c, 9, 35, 95
5, 34800, Note_on_c, 9, 35, 95
5, 34800, Note_on_c, 9, 35, 95
5, 34800, Note_on_c, 9, 42, 95
5, 35040, Note_off_c, 9, 35, 80
5, 35040, Note_off_c, 9, 35, 80
5, 35040, Note_off_c, 9, 35, 80
5, 35040, Note_off_c, 9, 42, 80
5, 35040, Note_on_c, 9, 35, 95
5, 35040, Note_on_c, 9, 35, 95
5, 35040, Note_on_c, 9, 35, 95
5, 35040, Note_on_c, 9, 42, 95
5, 35280, Note_off_c, 9, 35, 80
5, 35280, Note_off_c, 9, 35, 80
5, 35280, Note_off_c, 9, 35, 80
5, 35280, Note_off_c, 9, 42, 80
5, 35280, Note_on_c, 9, 35, 95
5, 35280, Note_on_c, 9, 35, 95
5, 35280, Note_on_c, 9, 35, 95
5, 35280, Note_on_c, 9, 42, 95
5, 35520, Note_off_c, 9, 35, 80
5, 35520, Note_off_c, 9, 35, 80
5, 35520, Note_off_c, 9, 35, 80
5, 35520, Note_off_c, 9, 42, 80
5, 35520, Note_on_c, 9, 42, 95
5, 35760, Note_off_c, 9, 42, 80
5, 35760, Note_on_c, 9, 35, 95
5, 35760, Note_on_c, 9, 35, 95
5, 35760, Note_on_c, 9, 35, 95
5, 35760, Note_on_c, 9, 42, 95
5, 36000, Note_off_c, 9, 35, 80
5, 36000, Note_off_c, 9, 35, 80
5, 36000, Note_off_c, 9, 35, 80
5, 36000, Note_off_c, 9, 42, 80
5, 36000, Note_on_c, 9, 35, 95
5, 36000, Note_on_c, 9, 35, 95
5, 36000, Note_on_c, 9, 35, 95
5, 36000, Note_on_c, 9, 42, 95
5, 36240, Note_off_c, 9, 35, 80
5, 36240, Note_off_c, 9, 35, 80
5, 36240, Note_off_c, 9, 35, 80
5, 36240, Note_off_c, 9, 42, 80
5, 36240, Note_on_c, 9, 35, 95
5, 36240, Note_on_c, 9, 35, 95
5, 36240, Note_on_c, 9, 35, 95
5, 36240, Note_on_c, 9, 42, 95
5, 36480, Note_off_c, 9, 35, 80
5, 36480, Note_off_c, 9, 35, 80
5, 36480, Note_off_c, 9, 35, 80
5, 36480, Note_off_c, 9, 42, 80
5, 36480, Note_on_c, 9, 40, 95
5, 36480, Note_on_c, 9, 42, 95
5, 36600, Note_off_c, 9, 40, 80
5, 36600, Note_off_c, 9, 42, 80
5, 36600, Note_on_c, 9, 40, 95
5, 36600, Note_on_c, 9, 42, 95
5, 36720, Note_off_c, 9, 40, 80
5, 36720, Note_off_c, 9, 42, 80
5, 36720, Note_on_c, 9, 35, 95
5, 36720, Note_on_c, 9, 35, 95
5, 36720, Note_on_c, 9, 35, 95
5, 36720, Note_on_c, 9, 42, 95
5, 36960, Note_off_c, 9, 35, 80
5, 36960, Note_off_c, 9, 35, 80
5, 36960, Note_off_c, 9, 35, 80
5, 36960, Note_off_c, 9, 42, 80
5, 36960, Note_on_c, 9, 40, 95
5, 36960, Note_on_c, 9, 42, 95
5, 37200, Note_off_c, 9, 40, 80
5, 37200, Note_off_c, 9, 42, 80
5, 37200, Note_on_c, 9, 35, 95
5, 37200, Note_on_c, 9, 35, 95
5, 37200, Note_on_c, 9, 35, 95
5, 37200, Note_on_c, 9, 42, 95
5, 37440, Note_off_c, 9, 35, 80
5, 37440, Note_off_c, 9, 35, 80
5, 37440, Note_off_c, 9, 35, 80
5, 37440, Note_off_c, 9, 42, 80
5, 37440, Note_on_c, 9, 35, 95
5, 37440, Note_on_c, 9, 35, 95
5, 37440, Note_on_c, 9, 35, 95
5, 37440, Note_on_c, 9, 42, 95
5, 37920, Note_off_c, 9, 35, 80
5, 37920, Note_off_c, 9, 35, 80
5, 37920, Note_off_c, 9, 35, 80
5, 37920, Note_off_c, 9, 42, 80
5, 38160, Note_on_c, 9, 35, 95
5, 38160, Note_on_c, 9, 35, 95
5, 38160, Note_on_c, 9, 35, 95
5, 38400, Note_off_c, 9, 35, 80
5, 38400, Note_off_c, 9, 35, 80
5, 38400, Note_off_c, 9, 35, 80
5, 38400, Note_on_c, 9, 40, 95
5, 38400, Note_on_c, 9, 42, 95
5, 38640, Note_off_c, 9, 40, 80
5, 38640, Note_off_c, 9, 42, 80
5, 38640, Note_on_c, 9, 35, 95
5, 38640, Note_on_c, 9, 35, 95
5, 38640, Note_on_c, 9, 35, 95
5, 38640, Note_on_c, 9, 42, 95
5, 38880, Note_off_c, 9, 35, 80
5, 38880, Note_off_c, 9, 35, 80
5, 38880, Note_off_c, 9, 35, 80
5, 38880, Note_off_c, 9, 42, 80
5, 38880, Note_on_c, 9, 35, 95
5, 38880, Note_on_c, 9, 35, 95
5, 38880, Note_on_c, 9, 35, 95
5, 38880, Note_on_c, 9, 42, 95
5, 39120, Note_off_c, 9, 35, 80
5, 39120, Note_off_c, 9, 35, 80
5, 39120, Note_off_c, 9, 35, 80
5, 39120, Note_off_c, 9, 42, 80
5, 39120, Note_on_c, 9, 35, 95
5, 39120, Note_on_c, 9, 35, 95
5, 39120, Note_on_c, 9, 35, 95
5, 39120, Note_on_c, 9, 42, 95
5, 39360, Note_off_c, 9, 35, 80
5, 39360, Note_off_c, 9, 35, 80
5, 39360, Note_off_c, 9, 35, 80
5, 39360, Note_off_c, 9, 42, 80
5, 39360, Note_on_c, 9, 40, 95
5, 39360, Note_on_c, 9, 42, 95
5, 39600, Note_off_c, 9, 40, 80
5, 39600, Note_off_c, 9, 42, 80
5, 39600, Note_on_c, 9, 35, 95
5, 39600, Note_on_c, 9, 35, 95
5, 39600, Note_on_c, 9, 35, 95
5, 39600, Note_on_c, 9, 42, 95
5, 39840, Note_off_c, 9, 35, 80
5, 39840, Note_off_c, 9, 35, 80
5, 39840, Note_off_c, 9, 35, 80
5, 39840, Note_off_c, 9, 42, 80
5, 39840, Note_on_c, 9, 35, 95
5, 39840, Note_on_c, 9, 35, 95
5, 39840, Note_on_c, 9, 35, 95
5, 39840, Note_on_c, 9, 42, 95
5, 40080, Note_off_c, 9, 35, 80
5, 40080, Note_off_c, 9, 35, 80
5, 40080, Note_off_c, 9, 35, 80
5, 40080, Note_off_c, 9, 42, 80
5, 40080, Note_on_c, 9, 42, 95
5, 40320, Note_off_c, 9, 42, 80
5, 40320, Note_on_c, 9, 40, 95
5, 40320, Note_on_c, 9, 42, 95
5, 40560, Note_off_c, 9, 40, 80
5, 40560, Note_off_c, 9, 42, 80
5, 40560, Note_on_c, 9, 35, 95
5, 40560, Note_on_c, 9, 35, 95
5, 40560, Note_on_c, 9, 35, 95
5, 40560, Note_on_c, 9, 42, 95
5, 40800, Note_off_c, 9, 35, 80
5, 40800, Note_off_c, 9, 35, 80
5, 40800, Note_off_c, 9, 35, 80
5, 40800, Note_off_c, 9, 42, 80
5, 40800, Note_on_c, 9, 35, 95
5, 40800, Note_on_c, 9, 35, 95
5, 40800, Note_on_c, 9, 35, 95
5, 40800, Note_on_c, 9, 42, 95
5, 41040, Note_off_c, 9, 35, 80
5, 41040, Note_off_c, 9, 35, 80
5, 41040, Note_off_c, 9, 35, 80
5, 41040, Note_off_c, 9, 42, 80
5, 41040, Note_on_c, 9, 35, 95
5, 41040, Note_on_c, 9, 35, 95
5, 41040, Note_on_c, 9, 35, 95
5, 41040, Note_on_c, 9, 42, 95
5, 41280, Note_off_c, 9, 35, 80
5, 41280, Note_off_c, 9, 35, 80
5, 41280, Note_off_c, 9, 35, 80
5, 41280, Note_off_c, 9, 42, 80
5, 41280, Note_on_c, 9, 40, 95
5, 41280, Note_on_c, 9, 42, 95
5, 41520, Note_off_c, 9, 40, 80
5, 41520, Note_off_c, 9, 42, 80
5, 41520, Note_on_c, 9, 35, 95
5, 41520, Note_on_c, 9, 35, 95
5, 41520, Note_on_c, 9, 35, 95
5, 41520, Note_on_c, 9, 42, 95
5, 41760, Note_off_c, 9, 35, 80
5, 41760, Note_off_c, 9, 35, 80
5, 41760, Note_off_c, 9, 35, 80
5, 41760, Note_off_c, 9, 42, 80
5, 41760, Note_on_c, 9, 35, 95
5, 41760, Note_on_c, 9, 35, 95
5, 41760, Note_on_c, 9, 35, 95
5, 41760, Note_on_c, 9, 42, 95
5, 42000, Note_off_c, 9, 35, 80
5, 42000, Note_off_c, 9, 35, 80
5, 42000, Note_off_c, 9, 35, 80
5, 42000, Note_off_c, 9, 42, 80
5, 42000, Note_on_c, 9, 42, 95
5, 42240, Note_off_c, 9, 42, 80
5, 42240, Note_on_c, 9, 40, 95
5, 42240, Note_on_c, 9, 42, 95
5, 42480, Note_off_c, 9, 40, 80
5, 42480, Note_off_c, 9, 42, 80
5, 42480, Note_on_c, 9, 35, 95
5, 42480, Note_on_c, 9, 35, 95
5, 42480, Note_on_c, 9, 35, 95
5, 42480, Note_on_c, 9, 42, 95
5, 42720, Note_off_c, 9, 35, 80
5, 42720, Note_off_c, 9, 35, 80
5, 42720, Note_off_c, 9, 35, 80
5, 42720, Note_off_c, 9, 42, 80
5, 42720, Note_on_c, 9, 35, 95
5, 42720, Note_on_c, 9, 35, 95
5, 42720, Note_on_c, 9, 35, 95
5, 42720, Note_on_c, 9, 42, 95
5, 42960, Note_off_c, 9, 35, 80
5, 42960, Note_off_c, 9, 35, 80
5, 42960, Note_off_c, 9, 35, 80
5, 42960, Note_off_c, 9, 42, 80
5, 42960, Note_on_c, 9, 35, 95
5, 42960, Note_on_c, 9, 35, 95
5, 42960, Note_on_c, 9, 35, 95
5, 42960, Note_on_c, 9, 42, 95
5, 43200, Note_off_c, 9, 35, 80
5, 43200, Note_off_c, 9, 35, 80
5, 43200, Note_off_c, 9, 35, 80
5, 43200, Note_off_c, 9, 42, 80
5, 43200, Note_on_c, 9, 40, 95
5, 43200, Note_on_c, 9, 42, 95
5, 43440, Note_off_c, 9, 40, 80
5, 43440, Note_off_c, 9, 42, 80
5, 43440, Note_on_c, 9, 35, 95
5, 43440, Note_on_c, 9, 35, 95
5, 43440, Note_on_c, 9, 35, 95
5, 43440, Note_on_c, 9, 42, 95
5, 43680, Note_off_c, 9, 35, 80
5, 43680, Note_off_c, 9, 35, 80
5, 43680, Note_off_c, 9, 35, 80
5, 43680, Note_off_c, 9, 42, 80
5, 43680, Note_on_c, 9, 35, 95
5, 43680, Note_on_c, 9, 35, 95
5, 43680, Note_on_c, 9, 35, 95
5, 43680, Note_on_c, 9, 42, 95
5, 43920, Note_off_c, 9, 35, 80
5, 43920, Note_off_c, 9, 35, 80
5, 43920, Note_off_c, 9, 35, 80
5, 43920, Note_off_c, 9, 42, 80
5, 43920, Note_on_c, 9, 42, 95
5, 44160, Note_off_c, 9, 42, 80
5, 44160, Note_on_c, 9, 40, 95
5, 44160, Note_on_c, 9, 42, 95
5, 44400, Note_off_c, 9, 40, 80
5, 44400, Note_off_c, 9, 42, 80
5, 44400, Note_on_c, 9, 35, 95
5, 44400, Note_on_c, 9, 35, 95
5, 44400, Note_on_c, 9, 35, 95
5, 44400, Note_on_c, 9, 42, 95
5, 44640, Note_off_c, 9, 35, 80
5, 44640, Note_off_c, 9, 35, 80
5, 44640, Note_off_c, 9, 35, 80
5, 44640, Note_off_c, 9, 42, 80
5, 44640, Note_on_c, 9, 35, 95
5, 44640, Note_on_c, 9, 35, 95
5, 44640, Note_on_c, 9, 35, 95
5, 44640, Note_on_c, 9, 42, 95
5, 44880, Note_off_c, 9, 35, 80
5, 44880, Note_off_c, 9, 35, 80
5, 44880, Note_off_c, 9, 35, 80
5, 44880, Note_off_c, 9, 42, 80
5, 44880, Note_on_c, 9, 35, 95
5, 44880, Note_on_c, 9, 35, 95
5, 44880, Note_on_c, 9, 35, 95
5, 44880, Note_on_c, 9, 42, 95
5, 45120, Note_off_c, 9, 35, 80
5, 45120, Note_off_c, 9, 35, 80
5, 45120, Note_off_c, 9, 35, 80
5, 45120, Note_off_c, 9, 42, 80
5, 45120, Note_on_c, 9, 40, 95
5, 45120, Note_on_c, 9, 42, 95
5, 45360, Note_off_c, 9, 40, 80
5, 45360, Note_off_c, 9, 42, 80
5, 45360, Note_on_c, 9, 35, 95
5, 45360, Note_on_c, 9, 35, 95
5, 45360, Note_on_c, 9, 35, 95
5, 45360, Note_on_c, 9, 42, 95
5, 45600, Note_off_c, 9, 35, 80
5, 45600, Note_off_c, 9, 35, 80
5, 45600, Note_off_c, 9, 35, 80
5, 45600, Note_off_c, 9, 42, 80
5, 45600, Note_on_c, 9, 35, 95
5, 45600, Note_on_c, 9, 35, 95
5, 45600, Note_on_c, 9, 35, 95
5, 45600, Note_on_c, 9, 42, 95
5, 45840, Note_off_c, 9, 35, 80
5, 45840, Note_off_c, 9, 35, 80
5, 45840, Note_off_c, 9, 35, 80
5, 45840, Note_off_c, 9, 42, 80
5, 45840, Note_on_c, 9, 42, 95
5, 46080, Note_off_c, 9, 42, 80
5, 46080, Note_on_c, 9, 40, 95
5, 46080, Note_on_c, 9, 42, 95
5, 46320, Note_off_c, 9, 40, 80
5, 46320, Note_off_c, 9, 42, 80
5, 46320, Note_on_c, 9, 35, 95
5, 46320, Note_on_c, 9, 35, 95
5, 46320, Note_on_c, 9, 35, 95
5, 46320, Note_on_c, 9, 42, 95
5, 46560, Note_off_c, 9, 35, 80
5, 46560, Note_off_c, 9, 35, 80
5, 46560, Note_off_c, 9, 35, 80
5, 46560, Note_off_c, 9, 42, 80
5, 46560, Note_on_c, 9, 35, 95
5, 46560, Note_on_c, 9, 35, 95
5, 46560, Note_on_c, 9, 35, 95
5, 46560, Note_on_c, 9, 42, 95
5, 46800, Note_off_c, 9, 35, 80
5, 46800, Note_off_c, 9, 35, 80
5, 46800, Note_off_c, 9, 35, 80
5, 46800, Note_off_c, 9, 42, 80
5, 46800, Note_on_c, 9, 35, 95
5, 46800, Note_on_c, 9, 35, 95
5, 46800, Note_on_c, 9, 35, 95
5, 46800, Note_on_c, 9, 42, 95
5, 47040, Note_off_c, 9, 35, 80
5, 47040, Note_off_c, 9, 35, 80
5, 47040, Note_off_c, 9, 35, 80
5, 47040, Note_off_c, 9, 42, 80
5, 47040, Note_on_c, 9, 40, 95
5, 47040, Note_on_c, 9, 42, 95
5, 47280, Note_off_c, 9, 40, 80
5, 47280, Note_off_c, 9, 42, 80
5, 47280, Note_on_c, 9, 35, 95
5, 47280, Note_on_c, 9, 35, 95
5, 47280, Note_on_c, 9, 35, 95
5, 47280, Note_on_c, 9, 42, 95
5, 47520, Note_off_c, 9, 35, 80
5, 47520, Note_off_c, 9, 35, 80
5, 47520, Note_off_c, 9, 35, 80
5, 47520, Note_off_c, 9, 42, 80
5, 47520, Note_on_c, 9, 35, 95
5, 47520, Note_on_c, 9, 35, 95
5, 47520, Note_on_c, 9, 35, 95
5, 47520, Note_on_c, 9, 42, 95
5, 47760, Note_off_c, 9, 35, 80
5, 47760, Note_off_c, 9, 35, 80
5, 47760, Note_off_c, 9, 35, 80
5, 47760, Note_off_c, 9, 42, 80
5, 47760, Note_on_c, 9, 42, 95
5, 48000, Note_off_c, 9, 42, 80
5, 48000, Note_on_c, 9, 40, 95
5, 48000, Note_on_c, 9, 42, 95
5, 48240, Note_off_c, 9, 40, 80
5, 48240, Note_off_c, 9, 42, 80
5, 48240, Note_on_c, 9, 35, 95
5, 48240, Note_on_c, 9, 35, 95
5, 48240, Note_on_c, 9, 35, 95
5, 48240, Note_on_c, 9, 42, 95
5, 48480, Note_off_c, 9, 35, 80
5, 48480, Note_off_c, 9, 35, 80
5, 48480, Note_off_c, 9, 35, 80
5, 48480, Note_off_c, 9, 42, 80
5, 48480, Note_on_c, 9, 35, 95
5, 48480, Note_on_c, 9, 35, 95
5, 48480, Note_on_c, 9, 35, 95
5, 48480, Note_on_c, 9, 42, 95
5, 48720, Note_off_c, 9, 35, 80
5, 48720, Note_off_c, 9, 35, 80
5, 48720, Note_off_c, 9, 35, 80
5, 48720, Note_off_c, 9, 42, 80
5, 48720, Note_on_c, 9, 35, 95
5, 48720, Note_on_c, 9, 35, 95
5, 48720, Note_on_c, 9, 35, 95
5, 48720, Note_on_c, 9, 42, 95
5, 48960, Note_off_c, 9, 35, 80
5, 48960, Note_off_c, 9, 35, 80
5, 48960, Note_off_c, 9, 35, 80
5, 48960, Note_off_c, 9, 42, 80
5, 48960, Note_on_c, 9, 40, 95
5, 48960, Note_on_c, 9, 42, 95
5, 49200, Note_off_c, 9, 40, 80
5, 49200, Note_off_c, 9, 42, 80
5, 49200, Note_on_c, 9, 35, 95
5, 49200, Note_on_c, 9, 35, 95
5, 49200, Note_on_c, 9, 35, 95
5, 49200, Note_on_c, 9, 42, 95
5, 49440, Note_off_c, 9, 35, 80
5, 49440, Note_off_c, 9, 35, 80
5, 49440, Note_off_c, 9, 35, 80
5, 49440, Note_off_c, 9, 42, 80
5, 49440, Note_on_c, 9, 35, 95
5, 49440, Note_on_c, 9, 35, 95
5, 49440, Note_on_c, 9, 35, 95
5, 49440, Note_on_c, 9, 42, 95
5, 49680, Note_off_c, 9, 35, 80
5, 49680, Note_off_c, 9, 35, 80
5, 49680, Note_off_c, 9, 35, 80
5, 49680, Note_off_c, 9, 42, 80
5, 49680, Note_on_c, 9, 42, 95
5, 49920, Note_off_c, 9, 42, 80
5, 49920, Note_on_c, 9, 40, 95
5, 49920, Note_on_c, 9, 42, 95
5, 50160, Note_off_c, 9, 40, 80
5, 50160, Note_off_c, 9, 42, 80
5, 50160, Note_on_c, 9, 35, 95
5, 50160, Note_on_c, 9, 35, 95
5, 50160, Note_on_c, 9, 35, 95
5, 50160, Note_on_c, 9, 42, 95
5, 50400, Note_off_c, 9, 35, 80
5, 50400, Note_off_c, 9, 35, 80
5, 50400, Note_off_c, 9, 35, 80
5, 50400, Note_off_c, 9, 42, 80
5, 50400, Note_on_c, 9, 35, 95
5, 50400, Note_on_c, 9, 35, 95
5, 50400, Note_on_c, 9, 35, 95
5, 50400, Note_on_c, 9, 42, 95
5, 50640, Note_off_c, 9, 35, 80
5, 50640, Note_off_c, 9, 35, 80
5, 50640, Note_off_c, 9, 35, 80
5, 50640, Note_off_c, 9, 42, 80
5, 50640, Note_on_c, 9, 35, 95
5, 50640, Note_on_c, 9, 35, 95
5, 50640, Note_on_c, 9, 35, 95
5, 50640, Note_on_c, 9, 42, 95
5, 50880, Note_off_c, 9, 35, 80
5, 50880, Note_off_c, 9, 35, 80
5, 50880, Note_off_c, 9, 35, 80
5, 50880, Note_off_c, 9, 42, 80
5, 50880, Note_on_c, 9, 40, 95
5, 50880, Note_on_c, 9, 42, 95
5, 51120, Note_off_c, 9, 40, 80
5, 51120, Note_off_c, 9, 42, 80
5, 51120, Note_on_c, 9, 35, 95
5, 51120, Note_on_c, 9, 35, 95
5, 51120, Note_on_c, 9, 35, 95
5, 51120, Note_on_c, 9, 42, 95
5, 51360, Note_off_c, 9, 35, 80
5, 51360, Note_off_c, 9, 35, 80
5, 51360, Note_off_c, 9, 35, 80
5, 51360, Note_off_c, 9, 42, 80
5, 51360, Note_on_c, 9, 35, 95
5, 51360, Note_on_c, 9, 35, 95
5, 51360, Note_on_c, 9, 35, 95
5, 51360, Note_on_c, 9, 42, 95
5, 51600, Note_off_c, 9, 35, 80
5, 51600, Note_off_c, 9, 35, 80
5, 51600, Note_off_c, 9, 35, 80
5, 51600, Note_off_c, 9, 42, 80
5, 51600, Note_on_c, 9, 42, 95
5, 51840, Note_off_c, 9, 42, 80
5, 51840, Note_on_c, 9, 40, 95
5, 51840, Note_on_c, 9, 42, 95
5, 52080, Note_off_c, 9, 40, 80
5, 52080, Note_off_c, 9, 42, 80
5, 52080, Note_on_c, 9, 35, 95
5, 52080, Note_on_c, 9, 35, 95
5, 52080, Note_on_c, 9, 35, 95
5, 52080, Note_on_c, 9, 42, 95
5, 52320, Note_off_c, 9, 35, 80
5, 52320, Note_off_c, 9, 35, 80
5, 52320, Note_off_c, 9, 35, 80
5, 52320, Note_off_c, 9, 42, 80
5, 52320, Note_on_c, 9, 35, 95
5, 52320, Note_on_c, 9, 35, 95
5, 52320, Note_on_c, 9, 35, 95
5, 52320, Note_on_c, 9, 42, 95
5, 52560, Note_off_c, 9, 35, 80
5, 52560, Note_off_c, 9, 35, 80
5, 52560, Note_off_c, 9, 35, 80
5, 52560, Note_off_c, 9, 42, 80
5, 52560, Note_on_c, 9, 35, 95
5, 52560, Note_on_c, 9, 35, 95
5, 52560, Note_on_c, 9, 35, 95
5, 52560, Note_on_c, 9, 42, 95
5, 52800, Note_off_c, 9, 35, 80
5, 52800, Note_off_c, 9, 35, 80
5, 52800, Note_off_c, 9, 35, 80
5, 52800, Note_off_c, 9, 42, 80
5, 52800, Note_on_c, 9, 40, 95
5, 52800, Note_on_c, 9, 42, 95
5, 53040, Note_off_c, 9, 40, 80
5, 53040, Note_off_c, 9, 42, 80
5, 53040, Note_on_c, 9, 35, 95
5, 53040, Note_on_c, 9, 35, 95
5, 53040, Note_on_c, 9, 35, 95
5, 53040, Note_on_c, 9, 42, 95
5, 53280, Note_off_c, 9, 35, 80
5, 53280, Note_off_c, 9, 35, 80
5, 53280, Note_off_c, 9, 35, 80
5, 53280, Note_off_c, 9, 42, 80
5, 53280, Note_on_c, 9, 35, 95
5, 53280, Note_on_c, 9, 35, 95
5, 53280, Note_on_c, 9, 35, 95
5, 53280, Note_on_c, 9, 42, 95
5, 53520, Note_off_c, 9, 35, 80
5, 53520, Note_off_c, 9, 35, 80
5, 53520, Note_off_c, 9, 35, 80
5, 53520, Note_off_c, 9, 42, 80
5, 53520, Note_on_c, 9, 42, 95
5, 53760, Note_off_c, 9, 42, 80
5, 53760, Note_on_c, 9, 40, 95
5, 53760, Note_on_c, 9, 42, 95
5, 54000, Note_off_c, 9, 40, 80
5, 54000, Note_off_c, 9, 42, 80
5, 54000, Note_on_c, 9, 35, 95
5, 54000, Note_on_c, 9, 35, 95
5, 54000, Note_on_c, 9, 35, 95
5, 54000, Note_on_c, 9, 42, 95
5, 54240, Note_off_c, 9, 35, 80
5, 54240, Note_off_c, 9, 35, 80
5, 54240, Note_off_c, 9, 35, 80
5, 54240, Note_off_c, 9, 42, 80
5, 54240, Note_on_c, 9, 35, 95
5, 54240, Note_on_c, 9, 35, 95
5, 54240, Note_on_c, 9, 35, 95
5, 54240, Note_on_c, 9, 42, 95
5, 54480, Note_off_c, 9, 35, 80
5, 54480, Note_off_c, 9, 35, 80
5, 54480, Note_off_c, 9, 35, 80
5, 54480, Note_off_c, 9, 42, 80
5, 54480, Note_on_c, 9, 35, 95
5, 54480, Note_on_c, 9, 35, 95
5, 54480, Note_on_c, 9, 35, 95
5, 54480, Note_on_c, 9, 42, 95
5, 54720, Note_off_c, 9, 35, 80
5, 54720, Note_off_c, 9, 35, 80
5, 54720, Note_off_c, 9, 35, 80
5, 54720, Note_off_c, 9, 42, 80
5, 54720, Note_on_c, 9, 40, 95
5, 54720, Note_on_c, 9, 42, 95
5, 54960, Note_off_c, 9, 40, 80
5, 54960, Note_off_c, 9, 42, 80
5, 54960, Note_on_c, 9, 35, 95
5, 54960, Note_on_c, 9, 35, 95
5, 54960, Note_on_c, 9, 35, 95
5, 54960, Note_on_c, 9, 42, 95
5, 55200, Note_off_c, 9, 35, 80
5, 55200, Note_off_c, 9, 35, 80
5, 55200, Note_off_c, 9, 35, 80
5, 55200, Note_off_c, 9, 42, 80
5, 55200, Note_on_c, 9, 35, 95
5, 55200, Note_on_c, 9, 35, 95
5, 55200, Note_on_c, 9, 35, 95
5, 55200, Note_on_c, 9, 42, 95
5, 55440, Note_off_c, 9, 35, 80
5, 55440, Note_off_c, 9, 35, 80
5, 55440, Note_off_c, 9, 35, 80
5, 55440, Note_off_c, 9, 42, 80
5, 55440, Note_on_c, 9, 42, 95
5, 55680, Note_off_c, 9, 42, 80
5, 55680, Note_on_c, 9, 40, 95
5, 55680, Note_on_c, 9, 42, 95
5, 55800, Note_off_c, 9, 40, 80
5, 55800, Note_off_c, 9, 42, 80
5, 55800, Note_on_c, 9, 40, 95
5, 55800, Note_on_c, 9, 42, 95
5, 55920, Note_off_c, 9, 40, 80
5, 55920, Note_off_c, 9, 42, 80
5, 55920, Note_on_c, 9, 35, 95
5, 55920, Note_on_c, 9, 35, 95
5, 55920, Note_on_c, 9, 35, 95
5, 55920, Note_on_c, 9, 42, 95
5, 56160, Note_off_c, 9, 35, 80
5, 56160, Note_off_c, 9, 35, 80
5, 56160, Note_off_c, 9, 35, 80
5, 56160, Note_off_c, 9, 42, 80
5, 56160, Note_on_c, 9, 40, 95
5, 56160, Note_on_c, 9, 42, 95
5, 56400, Note_off_c, 9, 40, 80
5, 56400, Note_off_c, 9, 42, 80
5, 56400, Note_on_c, 9, 35, 95
5, 56400, Note_on_c, 9, 35, 95
5, 56400, Note_on_c, 9, 35, 95
5, 56400, Note_on_c, 9, 42, 95
5, 56640, Note_off_c, 9, 35, 80
5, 56640, Note_off_c, 9, 35, 80
5, 56640, Note_off_c, 9, 35, 80
5, 56640, Note_off_c, 9, 42, 80
5, 56640, Note_on_c, 9, 35, 95
5, 56640, Note_on_c, 9, 35, 95
5, 56640, Note_on_c, 9, 35, 95
5, 56640, Note_on_c, 9, 42, 95
5, 56880, Note_off_c, 9, 35, 80
5, 56880, Note_off_c, 9, 35, 80
5, 56880, Note_off_c, 9, 35, 80
5, 56880, Note_off_c, 9, 42, 80
5, 56880, Note_on_c, 9, 35, 95
5, 56880, Note_on_c, 9, 35, 95
5, 56880, Note_on_c, 9, 35, 95
5, 57120, Note_off_c, 9, 35, 80
5, 57120, Note_off_c, 9, 35, 80
5, 57120, Note_off_c, 9, 35, 80
5, 57120, Note_on_c, 9, 35, 95
5, 57120, Note_on_c, 9, 35, 95
5, 57120, Note_on_c, 9, 35, 95
5, 57360, Note_off_c, 9, 35, 80
5, 57360, Note_off_c, 9, 35, 80
5, 57360, Note_off_c, 9, 35, 80
5, 57360, Note_on_c, 9, 35, 95
5, 57360, Note_on_c, 9, 35, 95
5, 57360, Note_on_c, 9, 35, 95
5, 57600, Note_off_c, 9, 35, 80
5, 57600, Note_off_c, 9, 35, 80
5, 57600, Note_off_c, 9, 35, 80
5, 57600, Note_on_c, 9, 40, 95
5, 57600, Note_on_c, 9, 42, 95
5, 57840, Note_off_c, 9, 40, 80
5, 57840, Note_off_c, 9, 42, 80
5, 57840, Note_on_c, 9, 35, 95
5, 57840, Note_on_c, 9, 35, 95
5, 57840, Note_on_c, 9, 35, 95
5, 57840, Note_on_c, 9, 42, 95
5, 58080, Note_off_c, 9, 35, 80
5, 58080, Note_off_c, 9, 35, 80
5, 58080, Note_off_c, 9, 35, 80
5, 58080, Note_off_c, 9, 42, 80
5, 58080, Note_on_c, 9, 35, 95
5, 58080, Note_on_c, 9, 35, 95
5, 58080, Note_on_c, 9, 35, 95
5, 58080, Note_on_c, 9, 42, 95
5, 58320, Note_off_c, 9, 35, 80
5, 58320, Note_off_c, 9, 35, 80
5, 58320, Note_off_c, 9, 35, 80
5, 58320, Note_off_c, 9, 42, 80
5, 58320, Note_on_c, 9, 35, 95
5, 58320, Note_on_c, 9, 35, 95
5, 58320, Note_on_c, 9, 35, 95
5, 58320, Note_on_c, 9, 42, 95
5, 58560, Note_off_c, 9, 35, 80
5, 58560, Note_off_c, 9, 35, 80
5, 58560, Note_off_c, 9, 35, 80
5, 58560, Note_off_c, 9, 42, 80
5, 58560, Note_on_c, 9, 42, 95
5, 58800, Note_off_c, 9, 42, 80
5, 58800, Note_on_c, 9, 35, 95
5, 58800, Note_on_c, 9, 35, 95
5, 58800, Note_on_c, 9, 35, 95
5, 58800, Note_on_c, 9, 42, 95
5, 59040, Note_off_c, 9, 35, 80
5, 59040, Note_off_c, 9, 35, 80
5, 59040, Note_off_c, 9, 35, 80
5, 59040, Note_off_c, 9, 42, 80
5, 59040, Note_on_c, 9, 35, 95
5, 59040, Note_on_c, 9, 35, 95
5, 59040, Note_on_c, 9, 35, 95
5, 59040, Note_on_c, 9, 42, 95
5, 59280, Note_off_c, 9, 35, 80
5, 59280, Note_off_c, 9, 35, 80
5, 59280, Note_off_c, 9, 35, 80
5, 59280, Note_off_c, 9, 42, 80
5, 59280, Note_on_c, 9, 35, 95
5, 59280, Note_on_c, 9, 35, 95
5, 59280, Note_on_c, 9, 35, 95
5, 59280, Note_on_c, 9, 42, 95
5, 59520, Note_off_c, 9, 35, 80
5, 59520, Note_off_c, 9, 35, 80
5, 59520, Note_off_c, 9, 35, 80
5, 59520, Note_off_c, 9, 42, 80
5, 59520, Note_on_c, 9, 40, 95
5, 59520, Note_on_c, 9, 42, 95
5, 59760, Note_off_c, 9, 40, 80
5, 59760, Note_off_c, 9, 42, 80
5, 59760, Note_on_c, 9, 35, 95
5, 59760, Note_on_c, 9, 35, 95
5, 59760, Note_on_c, 9, 35, 95
5, 59760, Note_on_c, 9, 42, 95
5, 60000, Note_off_c, 9, 35, 80
5, 60000, Note_off_c, 9, 35, 80
5, 60000, Note_off_c, 9, 35, 80
5, 60000, Note_off_c, 9, 42, 80
5, 60000, Note_on_c, 9, 35, 95
5, 60000, Note_on_c, 9, 35, 95
5, 60000, Note_on_c, 9, 35, 95
5, 60000, Note_on_c, 9, 42, 95
5, 60240, Note_off_c, 9, 35, 80
5, 60240, Note_off_c, 9, 35, 80
5, 60240, Note_off_c, 9, 35, 80
5, 60240, Note_off_c, 9, 42, 80
5, 60240, Note_on_c, 9, 35, 95
5, 60240, Note_on_c, 9, 35, 95
5, 60240, Note_on_c, 9, 35, 95
5, 60240, Note_on_c, 9, 42, 95
5, 60480, Note_off_c, 9, 35, 80
5, 60480, Note_off_c, 9, 35, 80
5, 60480, Note_off_c, 9, 35, 80
5, 60480, Note_off_c, 9, 42, 80
5, 60480, Note_on_c, 9, 42, 95
5, 60720, Note_off_c, 9, 42, 80
5, 60720, Note_on_c, 9, 35, 95
5, 60720, Note_on_c, 9, 35, 95
5, 60720, Note_on_c, 9, 35, 95
5, 60720, Note_on_c, 9, 42, 95
5, 60960, Note_off_c, 9, 35, 80
5, 60960, Note_off_c, 9, 35, 80
5, 60960, Note_off_c, 9, 35, 80
5, 60960, Note_off_c, 9, 42, 80
5, 60960, Note_on_c, 9, 47, 95
5, 60960, Note_on_c, 9, 35, 95
5, 60960, Note_on_c, 9, 35, 95
5, 60960, Note_on_c, 9, 42, 95
5, 61080, Note_off_c, 9, 47, 80
5, 61080, Note_off_c, 9, 35, 80
5, 61080, Note_off_c, 9, 35, 80
5, 61080, Note_off_c, 9, 42, 80
5, 61080, Note_on_c, 9, 45, 95
5, 61200, Note_off_c, 9, 45, 80
5, 61200, Note_on_c, 9, 43, 95
5, 61200, Note_on_c, 9, 35, 95
5, 61200, Note_on_c, 9, 35, 95
5, 61200, Note_on_c, 9, 42, 95
5, 61320, Note_off_c, 9, 43, 80
5, 61320, Note_off_c, 9, 35, 80
5, 61320, Note_off_c, 9, 35, 80
5, 61320, Note_off_c, 9, 42, 80
5, 61440, Note_on_c, 9, 40, 95
5, 61440, Note_on_c, 9, 42, 95
5, 61680, Note_off_c, 9, 40, 80
5, 61680, Note_off_c, 9, 42, 80
5, 61680, Note_on_c, 9, 35, 95
5, 61680, Note_on_c, 9, 35, 95
5, 61680, Note_on_c, 9, 35, 95
5, 61680, Note_on_c, 9, 42, 95
5, 61920, Note_off_c, 9, 35, 80
5, 61920, Note_off_c, 9, 35, 80
5, 61920, Note_off_c, 9, 35, 80
5, 61920, Note_off_c, 9, 42, 80
5, 61920, Note_on_c, 9, 35, 95
5, 61920, Note_on_c, 9, 35, 95
5, 61920, Note_on_c, 9, 35, 95
5, 61920, Note_on_c, 9, 42, 95
5, 62160, Note_off_c, 9, 35, 80
5, 62160, Note_off_c, 9, 35, 80
5, 62160, Note_off_c, 9, 35, 80
5, 62160, Note_off_c, 9, 42, 80
5, 62160, Note_on_c, 9, 35, 95
5, 62160, Note_on_c, 9, 35, 95
5, 62160, Note_on_c, 9, 35, 95
5, 62160, Note_on_c, 9, 42, 95
5, 62400, Note_off_c, 9, 35, 80
5, 62400, Note_off_c, 9, 35, 80
5, 62400, Note_off_c, 9, 35, 80
5, 62400, Note_off_c, 9, 42, 80
5, 62400, Note_on_c, 9, 42, 95
5, 62640, Note_off_c, 9, 42, 80
5, 62640, Note_on_c, 9, 35, 95
5, 62640, Note_on_c, 9, 35, 95
5, 62640, Note_on_c, 9, 35, 95
5, 62640, Note_on_c, 9, 42, 95
5, 62880, Note_off_c, 9, 35, 80
5, 62880, Note_off_c, 9, 35, 80
5, 62880, Note_off_c, 9, 35, 80
5, 62880, Note_off_c, 9, 42, 80
5, 62880, Note_on_c, 9, 35, 95
5, 62880, Note_on_c, 9, 35, 95
5, 62880, Note_on_c, 9, 35, 95
5, 62880, Note_on_c, 9, 42, 95
5, 63120, Note_off_c, 9, 35, 80
5, 63120, Note_off_c, 9, 35, 80
5, 63120, Note_off_c, 9, 35, 80
5, 63120, Note_off_c, 9, 42, 80
5, 63120, Note_on_c, 9, 35, 95
5, 63120, Note_on_c, 9, 35, 95
5, 63120, Note_on_c, 9, 35, 95
5, 63120, Note_on_c, 9, 42, 95
5, 63360, Note_off_c, 9, 35, 80
5, 63360, Note_off_c, 9, 35, 80
5, 63360, Note_off_c, 9, 35, 80
5, 63360, Note_off_c, 9, 42, 80
5, 63360, Note_on_c, 9, 40, 95
5, 63360, Note_on_c, 9, 42, 95
5, 63600, Note_off_c, 9, 40, 80
5, 63600, Note_off_c, 9, 42, 80
5, 63600, Note_on_c, 9, 35, 95
5, 63600, Note_on_c, 9, 35, 95
5, 63600, Note_on_c, 9, 35, 95
5, 63600, Note_on_c, 9, 42, 95
5, 63840, Note_off_c, 9, 35, 80
5, 63840, Note_off_c, 9, 35, 80
5, 63840, Note_off_c, 9, 35, 80
5, 63840, Note_off_c, 9, 42, 80
5, 63840, Note_on_c, 9, 35, 95
5, 63840, Note_on_c, 9, 35, 95
5, 63840, Note_on_c, 9, 35, 95
5, 63840, Note_on_c, 9, 42, 95
5, 64080, Note_off_c, 9, 35, 80
5, 64080, Note_off_c, 9, 35, 80
5, 64080, Note_off_c, 9, 35, 80
5, 64080, Note_off_c, 9, 42, 80
5, 64080, Note_on_c, 9, 35, 95
5, 64080, Note_on_c, 9, 35, 95
5, 64080, Note_on_c, 9, 35, 95
5, 64080, Note_on_c, 9, 42, 95
5, 64320, Note_off_c, 9, 35, 80
5, 64320, Note_off_c, 9, 35, 80
5, 64320, Note_off_c, 9, 35, 80
5, 64320, Note_off_c, 9, 42, 80
5, 64320, Note_on_c, 9, 42, 95
5, 64560, Note_off_c, 9, 42, 80
5, 64560, Note_on_c, 9, 35, 95
5, 64560, Note_on_c, 9, 35, 95
5, 64560, Note_on_c, 9, 35, 95
5, 64560, Note_on_c, 9, 42, 95
5, 64800, Note_off_c, 9, 35, 80
5, 64800, Note_off_c, 9, 35, 80
5, 64800, Note_off_c, 9, 35, 80
5, 64800, Note_off_c, 9, 42, 80
5, 64800, Note_on_c, 9, 47, 95
5, 64800, Note_on_c, 9, 35, 95
5, 64800, Note_on_c, 9, 35, 95
5, 64800, Note_on_c, 9, 42, 95
5, 64920, Note_off_c, 9, 47, 80
5, 64920, Note_off_c, 9, 35, 80
5, 64920, Note_off_c, 9, 35, 80
5, 64920, Note_off_c, 9, 42, 80
5, 64920, Note_on_c, 9, 45, 95
5, 65040, Note_off_c, 9, 45, 80
5, 65040, Note_on_c, 9, 43, 95
5, 65040, Note_on_c, 9, 35, 95
5, 65040, Note_on_c, 9, 35, 95
5, 65040, Note_on_c, 9, 42, 95
5, 65160, Note_off_c, 9, 43, 80
5, 65160, Note_off_c, 9, 35, 80
5, 65160, Note_off_c, 9, 35, 80
5, 65160, Note_off_c, 9, 42, 80
5, 65280, Note_on_c, 9, 40, 95
5, 65280, Note_on_c, 9, 42, 95
5, 65520, Note_off_c, 9, 40, 80
5, 65520, Note_off_c, 9, 42, 80
5, 65520, Note_on_c, 9, 35, 95
5, 65520, Note_on_c, 9, 35, 95
5, 65520, Note_on_c, 9, 35, 95
5, 65520, Note_on_c, 9, 42, 95
5, 65760, Note_off_c, 9, 35, 80
5, 65760, Note_off_c, 9, 35, 80
5, 65760, Note_off_c, 9, 35, 80
5, 65760, Note_off_c, 9, 42, 80
5, 65760, Note_on_c, 9, 35, 95
5, 65760, Note_on_c, 9, 35, 95
5, 65760, Note_on_c, 9, 35, 95
5, 65760, Note_on_c, 9, 42, 95
5, 66000, Note_off_c, 9, 35, 80
5, 66000, Note_off_c, 9, 35, 80
5, 66000, Note_off_c, 9, 35, 80
5, 66000, Note_off_c, 9, 42, 80
5, 66000, Note_on_c, 9, 35, 95
5, 66000, Note_on_c, 9, 35, 95
5, 66000, Note_on_c, 9, 35, 95
5, 66000, Note_on_c, 9, 42, 95
5, 66240, Note_off_c, 9, 35, 80
5, 66240, Note_off_c, 9, 35, 80
5, 66240, Note_off_c, 9, 35, 80
5, 66240, Note_off_c, 9, 42, 80
5, 66240, Note_on_c, 9, 42, 95
5, 66480, Note_off_c, 9, 42, 80
5, 66480, Note_on_c, 9, 35, 95
5, 66480, Note_on_c, 9, 35, 95
5, 66480, Note_on_c, 9, 35, 95
5, 66480, Note_on_c, 9, 42, 95
5, 66720, Note_off_c, 9, 35, 80
5, 66720, Note_off_c, 9, 35, 80
5, 66720, Note_off_c, 9, 35, 80
5, 66720, Note_off_c, 9, 42, 80
5, 66720, Note_on_c, 9, 35, 95
5, 66720, Note_on_c, 9, 35, 95
5, 66720, Note_on_c, 9, 35, 95
5, 66720, Note_on_c, 9, 42, 95
5, 66960, Note_off_c, 9, 35, 80
5, 66960, Note_off_c, 9, 35, 80
5, 66960, Note_off_c, 9, 35, 80
5, 66960, Note_off_c, 9, 42, 80
5, 66960, Note_on_c, 9, 35, 95
5, 66960, Note_on_c, 9, 35, 95
5, 66960, Note_on_c, 9, 35, 95
5, 66960, Note_on_c, 9, 42, 95
5, 67200, Note_off_c, 9, 35, 80
5, 67200, Note_off_c, 9, 35, 80
5, 67200, Note_off_c, 9, 35, 80
5, 67200, Note_off_c, 9, 42, 80
5, 67200, Note_on_c, 9, 40, 95
5, 67200, Note_on_c, 9, 42, 95
5, 67440, Note_off_c, 9, 40, 80
5, 67440, Note_off_c, 9, 42, 80
5, 67440, Note_on_c, 9, 35, 95
5, 67440, Note_on_c, 9, 35, 95
5, 67440, Note_on_c, 9, 35, 95
5, 67440, Note_on_c, 9, 42, 95
5, 67680, Note_off_c, 9, 35, 80
5, 67680, Note_off_c, 9, 35, 80
5, 67680, Note_off_c, 9, 35, 80
5, 67680, Note_off_c, 9, 42, 80
5, 67680, Note_on_c, 9, 35, 95
5, 67680, Note_on_c, 9, 35, 95
5, 67680, Note_on_c, 9, 35, 95
5, 67680, Note_on_c, 9, 42, 95
5, 67920, Note_off_c, 9, 35, 80
5, 67920, Note_off_c, 9, 35, 80
5, 67920, Note_off_c, 9, 35, 80
5, 67920, Note_off_c, 9, 42, 80
5, 67920, Note_on_c, 9, 35, 95
5, 67920, Note_on_c, 9, 35, 95
5, 67920, Note_on_c, 9, 35, 95
5, 67920, Note_on_c, 9, 42, 95
5, 68160, Note_off_c, 9, 35, 80
5, 68160, Note_off_c, 9, 35, 80
5, 68160, Note_off_c, 9, 35, 80
5, 68160, Note_off_c, 9, 42, 80
5, 68160, Note_on_c, 9, 42, 95
5, 68400, Note_off_c, 9, 42, 80
5, 68400, Note_on_c, 9, 35, 95
5, 68400, Note_on_c, 9, 35, 95
5, 68400, Note_on_c, 9, 35, 95
5, 68400, Note_on_c, 9, 42, 95
5, 68640, Note_off_c, 9, 35, 80
5, 68640, Note_off_c, 9, 35, 80
5, 68640, Note_off_c, 9, 35, 80
5, 68640, Note_off_c, 9, 42, 80
5, 68640, Note_on_c, 9, 47, 95
5, 68640, Note_on_c, 9, 35, 95
5, 68640, Note_on_c, 9, 35, 95
5, 68640, Note_on_c, 9, 42, 95
5, 68760, Note_off_c, 9, 47, 80
5, 68760, Note_off_c, 9, 35, 80
5, 68760, Note_off_c, 9, 35, 80
5, 68760, Note_off_c, 9, 42, 80
5, 68760, Note_on_c, 9, 45, 95
5, 68880, Note_off_c, 9, 45, 80
5, 68880, Note_on_c, 9, 43, 95
5, 68880, Note_on_c, 9, 35, 95
5, 68880, Note_on_c, 9, 35, 95
5, 68880, Note_on_c, 9, 42, 95
5, 69000, Note_off_c, 9, 43, 80
5, 69000, Note_off_c, 9, 35, 80
5, 69000, Note_off_c, 9, 35, 80
5, 69000, Note_off_c, 9, 42, 80
5, 69120, Note_on_c, 9, 40, 95
5, 69120, Note_on_c, 9, 42, 95
5, 69360, Note_off_c, 9, 40, 80
5, 69360, Note_off_c, 9, 42, 80
5, 69360, Note_on_c, 9, 35, 95
5, 69360, Note_on_c, 9, 35, 95
5, 69360, Note_on_c, 9, 35, 95
5, 69360, Note_on_c, 9, 42, 95
5, 69600, Note_off_c, 9, 35, 80
5, 69600, Note_off_c, 9, 35, 80
5, 69600, Note_off_c, 9, 35, 80
5, 69600, Note_off_c, 9, 42, 80
5, 69600, Note_on_c, 9, 35, 95
5, 69600, Note_on_c, 9, 35, 95
5, 69600, Note_on_c, 9, 35, 95
5, 69600, Note_on_c, 9, 42, 95
5, 69840, Note_off_c, 9, 35, 80
5, 69840, Note_off_c, 9, 35, 80
5, 69840, Note_off_c, 9, 35, 80
5, 69840, Note_off_c, 9, 42, 80
5, 69840, Note_on_c, 9, 35, 95
5, 69840, Note_on_c, 9, 35, 95
5, 69840, Note_on_c, 9, 35, 95
5, 69840, Note_on_c, 9, 42, 95
5, 70080, Note_off_c, 9, 35, 80
5, 70080, Note_off_c, 9, 35, 80
5, 70080, Note_off_c, 9, 35, 80
5, 70080, Note_off_c, 9, 42, 80
5, 70080, Note_on_c, 9, 42, 95
5, 70320, Note_off_c, 9, 42, 80
5, 70320, Note_on_c, 9, 35, 95
5, 70320, Note_on_c, 9, 35, 95
5, 70320, Note_on_c, 9, 35, 95
5, 70320, Note_on_c, 9, 42, 95
5, 70560, Note_off_c, 9, 35, 80
5, 70560, Note_off_c, 9, 35, 80
5, 70560, Note_off_c, 9, 35, 80
5, 70560, Note_off_c, 9, 42, 80
5, 75840, Note_on_c, 9, 40, 95
5, 75840, Note_on_c, 9, 49, 95
5, 76080, Note_off_c, 9, 40, 80
5, 76080, Note_off_c, 9, 49, 80
5, 76080, Note_on_c, 9, 35, 95
5, 76080, Note_on_c, 9, 35, 95
5, 76080, Note_on_c, 9, 35, 95
5, 76080, Note_on_c, 9, 42, 95
5, 76320, Note_off_c, 9, 35, 80
5, 76320, Note_off_c, 9, 35, 80
5, 76320, Note_off_c, 9, 35, 80
5, 76320, Note_off_c, 9, 42, 80
5, 76320, Note_on_c, 9, 35, 95
5, 76320, Note_on_c, 9, 35, 95
5, 76320, Note_on_c, 9, 35, 95
5, 76320, Note_on_c, 9, 42, 95
5, 76560, Note_off_c, 9, 35, 80
5, 76560, Note_off_c, 9, 35, 80
5, 76560, Note_off_c, 9, 35, 80
5, 76560, Note_off_c, 9, 42, 80
5, 76560, Note_on_c, 9, 35, 95
5, 76560, Note_on_c, 9, 35, 95
5, 76560, Note_on_c, 9, 35, 95
5, 76560, Note_on_c, 9, 42, 95
5, 76800, Note_off_c, 9, 35, 80
5, 76800, Note_off_c, 9, 35, 80
5, 76800, Note_off_c, 9, 35, 80
5, 76800, Note_off_c, 9, 42, 80
5, 76800, Note_on_c, 9, 40, 95
5, 76800, Note_on_c, 9, 42, 95
5, 77040, Note_off_c, 9, 40, 80
5, 77040, Note_off_c, 9, 42, 80
5, 77040, Note_on_c, 9, 35, 95
5, 77040, Note_on_c, 9, 35, 95
5, 77040, Note_on_c, 9, 35, 95
5, 77040, Note_on_c, 9, 42, 95
5, 77280, Note_off_c, 9, 35, 80
5, 77280, Note_off_c, 9, 35, 80
5, 77280, Note_off_c, 9, 35, 80
5, 77280, Note_off_c, 9, 42, 80
5, 77280, Note_on_c, 9, 35, 95
5, 77280, Note_on_c, 9, 35, 95
5, 77280, Note_on_c, 9, 35, 95
5, 77280, Note_on_c, 9, 42, 95
5, 77520, Note_off_c, 9, 35, 80
5, 77520, Note_off_c, 9, 35, 80
5, 77520, Note_off_c, 9, 35, 80
5, 77520, Note_off_c, 9, 42, 80
5, 77520, Note_on_c, 9, 35, 95
5, 77520, Note_on_c, 9, 35, 95
5, 77520, Note_on_c, 9, 35, 95
5, 77520, Note_on_c, 9, 42, 95
5, 77760, Note_off_c, 9, 35, 80
5, 77760, Note_off_c, 9, 35, 80
5, 77760, Note_off_c, 9, 35, 80
5, 77760, Note_off_c, 9, 42, 80
5, 77760, Note_on_c, 9, 40, 95
5, 77760, Note_on_c, 9, 42, 95
5, 78000, Note_off_c, 9, 40, 80
5, 78000, Note_off_c, 9, 42, 80
5, 78000, Note_on_c, 9, 35, 95
5, 78000, Note_on_c, 9, 35, 95
5, 78000, Note_on_c, 9, 35, 95
5, 78000, Note_on_c, 9, 42, 95
5, 78240, Note_off_c, 9, 35, 80
5, 78240, Note_off_c, 9, 35, 80
5, 78240, Note_off_c, 9, 35, 80
5, 78240, Note_off_c, 9, 42, 80
5, 78240, Note_on_c, 9, 35, 95
5, 78240, Note_on_c, 9, 35, 95
5, 78240, Note_on_c, 9, 35, 95
5, 78240, Note_on_c, 9, 42, 95
5, 78480, Note_off_c, 9, 35, 80
5, 78480, Note_off_c, 9, 35, 80
5, 78480, Note_off_c, 9, 35, 80
5, 78480, Note_off_c, 9, 42, 80
5, 78480, Note_on_c, 9, 35, 95
5, 78480, Note_on_c, 9, 35, 95
5, 78480, Note_on_c, 9, 35, 95
5, 78480, Note_on_c, 9, 42, 95
5, 78720, Note_off_c, 9, 35, 80
5, 78720, Note_off_c, 9, 35, 80
5, 78720, Note_off_c, 9, 35, 80
5, 78720, Note_off_c, 9, 42, 80
5, 78720, Note_on_c, 9, 40, 95
5, 78720, Note_on_c, 9, 42, 95
5, 78960, Note_off_c, 9, 40, 80
5, 78960, Note_off_c, 9, 42, 80
5, 78960, Note_on_c, 9, 35, 95
5, 78960, Note_on_c, 9, 35, 95
5, 78960, Note_on_c, 9, 35, 95
5, 78960, Note_on_c, 9, 42, 95
5, 79200, Note_off_c, 9, 35, 80
5, 79200, Note_off_c, 9, 35, 80
5, 79200, Note_off_c, 9, 35, 80
5, 79200, Note_off_c, 9, 42, 80
5, 79200, Note_on_c, 9, 35, 95
5, 79200, Note_on_c, 9, 35, 95
5, 79200, Note_on_c, 9, 35, 95
5, 79200, Note_on_c, 9, 42, 95
5, 79440, Note_off_c, 9, 35, 80
5, 79440, Note_off_c, 9, 35, 80
5, 79440, Note_off_c, 9, 35, 80
5, 79440, Note_off_c, 9, 42, 80
5, 79440, Note_on_c, 9, 35, 95
5, 79440, Note_on_c, 9, 35, 95
5, 79440, Note_on_c, 9, 35, 95
5, 79440, Note_on_c, 9, 42, 95
5, 79680, Note_off_c, 9, 35, 80
5, 79680, Note_off_c, 9, 35, 80
5, 79680, Note_off_c, 9, 35, 80
5, 79680, Note_off_c, 9, 42, 80
5, 79680, Note_on_c, 9, 42, 95
5, 79920, Note_off_c, 9, 42, 80
5, 79920, Note_on_c, 9, 35, 95
5, 79920, Note_on_c, 9, 35, 95
5, 79920, Note_on_c, 9, 35, 95
5, 79920, Note_on_c, 9, 42, 95
5, 80160, Note_off_c, 9, 35, 80
5, 80160, Note_off_c, 9, 35, 80
5, 80160, Note_off_c, 9, 35, 80
5, 80160, Note_off_c, 9, 42, 80
5, 80160, Note_on_c, 9, 35, 95
5, 80160, Note_on_c, 9, 35, 95
5, 80160, Note_on_c, 9, 35, 95
5, 80160, Note_on_c, 9, 42, 95
5, 80400, Note_off_c, 9, 35, 80
5, 80400, Note_off_c, 9, 35, 80
5, 80400, Note_off_c, 9, 35, 80
5, 80400, Note_off_c, 9, 42, 80
5, 80400, Note_on_c, 9, 35, 95
5, 80400, Note_on_c, 9, 35, 95
5, 80400, Note_on_c, 9, 35, 95
5, 80400, Note_on_c, 9, 42, 95
5, 80640, Note_off_c, 9, 35, 80
5, 80640, Note_off_c, 9, 35, 80
5, 80640, Note_off_c, 9, 35, 80
5, 80640, Note_off_c, 9, 42, 80
5, 80640, Note_on_c, 9, 40, 95
5, 80640, Note_on_c, 9, 42, 95
5, 80880, Note_off_c, 9, 40, 80
5, 80880, Note_off_c, 9, 42, 80
5, 80880, Note_on_c, 9, 35, 95
5, 80880, Note_on_c, 9, 35, 95
5, 80880, Note_on_c, 9, 35, 95
5, 80880, Note_on_c, 9, 42, 95
5, 81120, Note_off_c, 9, 35, 80
5, 81120, Note_off_c, 9, 35, 80
5, 81120, Note_off_c, 9, 35, 80
5, 81120, Note_off_c, 9, 42, 80
5, 81120, Note_on_c, 9, 35, 95
5, 81120, Note_on_c, 9, 35, 95
5, 81120, Note_on_c, 9, 35, 95
5, 81120, Note_on_c, 9, 42, 95
5, 81360, Note_off_c, 9, 35, 80
5, 81360, Note_off_c, 9, 35, 80
5, 81360, Note_off_c, 9, 35, 80
5, 81360, Note_off_c, 9, 42, 80
5, 81360, Note_on_c, 9, 35, 95
5, 81360, Note_on_c, 9, 35, 95
5, 81360, Note_on_c, 9, 35, 95
5, 81360, Note_on_c, 9, 42, 95
5, 81600, Note_off_c, 9, 35, 80
5, 81600, Note_off_c, 9, 35, 80
5, 81600, Note_off_c, 9, 35, 80
5, 81600, Note_off_c, 9, 42, 80
5, 81600, Note_on_c, 9, 42, 95
5, 81840, Note_off_c, 9, 42, 80
5, 81840, Note_on_c, 9, 35, 95
5, 81840, Note_on_c, 9, 35, 95
5, 81840, Note_on_c, 9, 35, 95
5, 81840, Note_on_c, 9, 42, 95
5, 82080, Note_off_c, 9, 35, 80
5, 82080, Note_off_c, 9, 35, 80
5, 82080, Note_off_c, 9, 35, 80
5, 82080, Note_off_c, 9, 42, 80
5, 82080, Note_on_c, 9, 35, 95
5, 82080, Note_on_c, 9, 35, 95
5, 82080, Note_on_c, 9, 35, 95
5, 82080, Note_on_c, 9, 42, 95
5, 82320, Note_off_c, 9, 35, 80
5, 82320, Note_off_c, 9, 35, 80
5, 82320, Note_off_c, 9, 35, 80
5, 82320, Note_off_c, 9, 42, 80
5, 82320, Note_on_c, 9, 35, 95
5, 82320, Note_on_c, 9, 35, 95
5, 82320, Note_on_c, 9, 35, 95
5, 82320, Note_on_c, 9, 42, 95
5, 82560, Note_off_c, 9, 35, 80
5, 82560, Note_off_c, 9, 35, 80
5, 82560, Note_off_c, 9, 35, 80
5, 82560, Note_off_c, 9, 42, 80
5, 82560, Note_on_c, 9, 40, 95
5, 82560, Note_on_c, 9, 42, 95
5, 82800, Note_off_c, 9, 40, 80
5, 82800, Note_off_c, 9, 42, 80
5, 82800, Note_on_c, 9, 35, 95
5, 82800, Note_on_c, 9, 35, 95
5, 82800, Note_on_c, 9, 35, 95
5, 82800, Note_on_c, 9, 42, 95
5, 83040, Note_off_c, 9, 35, 80
5, 83040, Note_off_c, 9, 35, 80
5, 83040, Note_off_c, 9, 35, 80
5, 83040, Note_off_c, 9, 42, 80
5, 83040, Note_on_c, 9, 35, 95
5, 83040, Note_on_c, 9, 35, 95
5, 83040, Note_on_c, 9, 35, 95
5, 83040, Note_on_c, 9, 42, 95
5, 83280, Note_off_c, 9, 35, 80
5, 83280, Note_off_c, 9, 35, 80
5, 83280, Note_off_c, 9, 35, 80
5, 83280, Note_off_c, 9, 42, 80
5, 83280, Note_on_c, 9, 35, 95
5, 83280, Note_on_c, 9, 35, 95
5, 83280, Note_on_c, 9, 35, 95
5, 83280, Note_on_c, 9, 42, 95
5, 83520, Note_off_c, 9, 35, 80
5, 83520, Note_off_c, 9, 35, 80
5, 83520, Note_off_c, 9, 35, 80
5, 83520, Note_off_c, 9, 42, 80
5, 83520, Note_on_c, 9, 42, 95
5, 83760, Note_off_c, 9, 42, 80
5, 83760, Note_on_c, 9, 35, 95
5, 83760, Note_on_c, 9, 35, 95
5, 83760, Note_on_c, 9, 35, 95
5, 83760, Note_on_c, 9, 42, 95
5, 84000, Note_off_c, 9, 35, 80
5, 84000, Note_off_c, 9, 35, 80
5, 84000, Note_off_c, 9, 35, 80
5, 84000, Note_off_c, 9, 42, 80
5, 84000, Note_on_c, 9, 35, 95
5, 84000, Note_on_c, 9, 35, 95
5, 84000, Note_on_c, 9, 35, 95
5, 84000, Note_on_c, 9, 42, 95
5, 84240, Note_off_c, 9, 35, 80
5, 84240, Note_off_c, 9, 35, 80
5, 84240, Note_off_c, 9, 35, 80
5, 84240, Note_off_c, 9, 42, 80
5, 84240, Note_on_c, 9, 35, 95
5, 84240, Note_on_c, 9, 35, 95
5, 84240, Note_on_c, 9, 35, 95
5, 84240, Note_on_c, 9, 42, 95
5, 84480, Note_off_c, 9, 35, 80
5, 84480, Note_off_c, 9, 35, 80
5, 84480, Note_off_c, 9, 35, 80
5, 84480, Note_off_c, 9, 42, 80
5, 84480, Note_on_c, 9, 40, 95
5, 84480, Note_on_c, 9, 42, 95
5, 84720, Note_off_c, 9, 40, 80
5, 84720, Note_off_c, 9, 42, 80
5, 84720, Note_on_c, 9, 35, 95
5, 84720, Note_on_c, 9, 35, 95
5, 84720, Note_on_c, 9, 35, 95
5, 84720, Note_on_c, 9, 42, 95
5, 84960, Note_off_c, 9, 35, 80
5, 84960, Note_off_c, 9, 35, 80
5, 84960, Note_off_c, 9, 35, 80
5, 84960, Note_off_c, 9, 42, 80
5, 84960, Note_on_c, 9, 35, 95
5, 84960, Note_on_c, 9, 35, 95
5, 84960, Note_on_c, 9, 35, 95
5, 84960, Note_on_c, 9, 42, 95
5, 85200, Note_off_c, 9, 35, 80
5, 85200, Note_off_c, 9, 35, 80
5, 85200, Note_off_c, 9, 35, 80
5, 85200, Note_off_c, 9, 42, 80
5, 85200, Note_on_c, 9, 35, 95
5, 85200, Note_on_c, 9, 35, 95
5, 85200, Note_on_c, 9, 35, 95
5, 85200, Note_on_c, 9, 42, 95
5, 85440, Note_off_c, 9, 35, 80
5, 85440, Note_off_c, 9, 35, 80
5, 85440, Note_off_c, 9, 35, 80
5, 85440, Note_off_c, 9, 42, 80
5, 85440, Note_on_c, 9, 42, 95
5, 85680, Note_off_c, 9, 42, 80
5, 85680, Note_on_c, 9, 35, 95
5, 85680, Note_on_c, 9, 35, 95
5, 85680, Note_on_c, 9, 35, 95
5, 85680, Note_on_c, 9, 42, 95
5, 85920, Note_off_c, 9, 35, 80
5, 85920, Note_off_c, 9, 35, 80
5, 85920, Note_off_c, 9, 35, 80
5, 85920, Note_off_c, 9, 42, 80
5, 85920, Note_on_c, 9, 35, 95
5, 85920, Note_on_c, 9, 35, 95
5, 85920, Note_on_c, 9, 35, 95
5, 85920, Note_on_c, 9, 42, 95
5, 86160, Note_off_c, 9, 35, 80
5, 86160, Note_off_c, 9, 35, 80
5, 86160, Note_off_c, 9, 35, 80
5, 86160, Note_off_c, 9, 42, 80
5, 86160, Note_on_c, 9, 35, 95
5, 86160, Note_on_c, 9, 35, 95
5, 86160, Note_on_c, 9, 35, 95
5, 86160, Note_on_c, 9, 42, 95
5, 86400, Note_off_c, 9, 35, 80
5, 86400, Note_off_c, 9, 35, 80
5, 86400, Note_off_c, 9, 35, 80
5, 86400, Note_off_c, 9, 42, 80
5, 86400, Note_on_c, 9, 40, 95
5, 86400, Note_on_c, 9, 42, 95
5, 86640, Note_off_c, 9, 40, 80
5, 86640, Note_off_c, 9, 42, 80
5, 86640, Note_on_c, 9, 35, 95
5, 86640, Note_on_c, 9, 35, 95
5, 86640, Note_on_c, 9, 35, 95
5, 86640, Note_on_c, 9, 42, 95
5, 86880, Note_off_c, 9, 35, 80
5, 86880, Note_off_c, 9, 35, 80
5, 86880, Note_off_c, 9, 35, 80
5, 86880, Note_off_c, 9, 42, 80
5, 86880, Note_on_c, 9, 35, 95
5, 86880, Note_on_c, 9, 35, 95
5, 86880, Note_on_c, 9, 35, 95
5, 86880, Note_on_c, 9, 42, 95
5, 87120, Note_off_c, 9, 35, 80
5, 87120, Note_off_c, 9, 35, 80
5, 87120, Note_off_c, 9, 35, 80
5, 87120, Note_off_c, 9, 42, 80
5, 87120, Note_on_c, 9, 35, 95
5, 87120, Note_on_c, 9, 35, 95
5, 87120, Note_on_c, 9, 35, 95
5, 87120, Note_on_c, 9, 42, 95
5, 87360, Note_off_c, 9, 35, 80
5, 87360, Note_off_c, 9, 35, 80
5, 87360, Note_off_c, 9, 35, 80
5, 87360, Note_off_c, 9, 42, 80
5, 87360, Note_on_c, 9, 42, 95
5, 87600, Note_off_c, 9, 42, 80
5, 87600, Note_on_c, 9, 35, 95
5, 87600, Note_on_c, 9, 35, 95
5, 87600, Note_on_c, 9, 35, 95
5, 87600, Note_on_c, 9, 42, 95
5, 87840, Note_off_c, 9, 35, 80
5, 87840, Note_off_c, 9, 35, 80
5, 87840, Note_off_c, 9, 35, 80
5, 87840, Note_off_c, 9, 42, 80
5, 87840, Note_on_c, 9, 35, 95
5, 87840, Note_on_c, 9, 35, 95
5, 87840, Note_on_c, 9, 35, 95
5, 87840, Note_on_c, 9, 42, 95
5, 88080, Note_off_c, 9, 35, 80
5, 88080, Note_off_c, 9, 35, 80
5, 88080, Note_off_c, 9, 35, 80
5, 88080, Note_off_c, 9, 42, 80
5, 88080, Note_on_c, 9, 35, 95
5, 88080, Note_on_c, 9, 35, 95
5, 88080, Note_on_c, 9, 35, 95
5, 88080, Note_on_c, 9, 42, 95
5, 88320, Note_off_c, 9, 35, 80
5, 88320, Note_off_c, 9, 35, 80
5, 88320, Note_off_c, 9, 35, 80
5, 88320, Note_off_c, 9, 42, 80
5, 88320, Note_on_c, 9, 40, 95
5, 88320, Note_on_c, 9, 42, 95
5, 88560, Note_off_c, 9, 40, 80
5, 88560, Note_off_c, 9, 42, 80
5, 88560, Note_on_c, 9, 35, 95
5, 88560, Note_on_c, 9, 35, 95
5, 88560, Note_on_c, 9, 35, 95
5, 88560, Note_on_c, 9, 42, 95
5, 88800, Note_off_c, 9, 35, 80
5, 88800, Note_off_c, 9, 35, 80
5, 88800, Note_off_c, 9, 35, 80
5, 88800, Note_off_c, 9, 42, 80
5, 88800, Note_on_c, 9, 35, 95
5, 88800, Note_on_c, 9, 35, 95
5, 88800, Note_on_c, 9, 35, 95
5, 88800, Note_on_c, 9, 42, 95
5, 89040, Note_off_c, 9, 35, 80
5, 89040, Note_off_c, 9, 35, 80
5, 89040, Note_off_c, 9, 35, 80
5, 89040, Note_off_c, 9, 42, 80
5, 89040, Note_on_c, 9, 35, 95
5, 89040, Note_on_c, 9, 35, 95
5, 89040, Note_on_c, 9, 35, 95
5, 89040, Note_on_c, 9, 42, 95
5, 89280, Note_off_c, 9, 35, 80
5, 89280, Note_off_c, 9, 35, 80
5, 89280, Note_off_c, 9, 35, 80
5, 89280, Note_off_c, 9, 42, 80
5, 89280, Note_on_c, 9, 42, 95
5, 89520, Note_off_c, 9, 42, 80
5, 89520, Note_on_c, 9, 35, 95
5, 89520, Note_on_c, 9, 35, 95
5, 89520, Note_on_c, 9, 35, 95
5, 89520, Note_on_c, 9, 42, 95
5, 89760, Note_off_c, 9, 35, 80
5, 89760, Note_off_c, 9, 35, 80
5, 89760, Note_off_c, 9, 35, 80
5, 89760, Note_off_c, 9, 42, 80
5, 89760, Note_on_c, 9, 35, 95
5, 89760, Note_on_c, 9, 35, 95
5, 89760, Note_on_c, 9, 35, 95
5, 89760, Note_on_c, 9, 42, 95
5, 90000, Note_off_c, 9, 35, 80
5, 90000, Note_off_c, 9, 35, 80
5, 90000, Note_off_c, 9, 35, 80
5, 90000, Note_off_c, 9, 42, 80
5, 90000, Note_on_c, 9, 35, 95
5, 90000, Note_on_c, 9, 35, 95
5, 90000, Note_on_c, 9, 35, 95
5, 90000, Note_on_c, 9, 42, 95
5, 90240, Note_off_c, 9, 35, 80
5, 90240, Note_off_c, 9, 35, 80
5, 90240, Note_off_c, 9, 35, 80
5, 90240, Note_off_c, 9, 42, 80
5, 90240, Note_on_c, 9, 40, 50
5, 90360, Note_off_c, 9, 40, 80
5, 90360, Note_on_c, 9, 40, 50
5, 90480, Note_off_c, 9, 40, 80
5, 90480, Note_on_c, 9, 40, 95
5, 90600, Note_off_c, 9, 40, 80
5, 90600, Note_on_c, 9, 40, 95
5, 90720, Note_off_c, 9, 40, 80
5, 90720, Note_on_c, 9, 40, 95
5, 90840, Note_off_c, 9, 40, 80
5, 90840, Note_on_c, 9, 40, 95
5, 90960, Note_off_c, 9, 40, 80
5, 90960, Note_on_c, 9, 40, 95
5, 91080, Note_off_c, 9, 40, 80
5, 91080, Note_on_c, 9, 40, 95
5, 91200, Note_off_c, 9, 40, 80
5, 91200, Note_on_c, 9, 40, 50
5, 91320, Note_off_c, 9, 40, 80
5, 91320, Note_on_c, 9, 40, 50
5, 91440, Note_off_c, 9, 40, 80
5, 91440, Note_on_c, 9, 40, 95
5, 91560, Note_off_c, 9, 40, 80
5, 91560, Note_on_c, 9, 40, 95
5, 91680, Note_off_c, 9, 40, 80
5, 91680, Note_on_c, 9, 40, 95
5, 91800, Note_off_c, 9, 40, 80
5, 91800, Note_on_c, 9, 40, 95
5, 91920, Note_off_c, 9, 40, 80
5, 91920, Note_on_c, 9, 40, 95
5, 92040, Note_off_c, 9, 40, 80
5, 92040, Note_on_c, 9, 40, 95
5, 92160, Note_off_c, 9, 40, 80
5, 92160, Note_on_c, 9, 40, 50
5, 92280, Note_off_c, 9, 40, 80
5, 92280, Note_on_c, 9, 40, 50
5, 92400, Note_off_c, 9, 40, 80
5, 92400, Note_on_c, 9, 40, 95
5, 92520, Note_off_c, 9, 40, 80
5, 92520, Note_on_c, 9, 40, 95
5, 92640, Note_off_c, 9, 40, 80
5, 92640, Note_on_c, 9, 40, 95
5, 92760, Note_off_c, 9, 40, 80
5, 92760, Note_on_c, 9, 40, 95
5, 92880, Note_off_c, 9, 40, 80
5, 92880, Note_on_c, 9, 40, 95
5, 93000, Note_off_c, 9, 40, 80
5, 93000, Note_on_c, 9, 40, 95
5, 93120, Note_off_c, 9, 40, 80
5, 93120, Note_on_c, 9, 40, 95
5, 93600, Note_off_c, 9, 40, 80
5, 93600, Note_on_c, 9, 40, 95
5, 94080, Note_off_c, 9, 40, 80
5, 94080, Note_on_c, 9, 40, 95
5, 94560, Note_off_c, 9, 40, 80
5, 94560, Note_on_c, 9, 40, 95
5, 94560, Note_on_c, 9, 49, 95
5, 94800, Note_off_c, 9, 40, 80
5, 94800, Note_off_c, 9, 49, 80
5, 94800, Note_on_c, 9, 35, 95
5, 94800, Note_on_c, 9, 35, 95
5, 94800, Note_on_c, 9, 35, 95
5, 94800, Note_on_c, 9, 42, 95
5, 95040, Note_off_c, 9, 35, 80
5, 95040, Note_off_c, 9, 35, 80
5, 95040, Note_off_c, 9, 35, 80
5, 95040, Note_off_c, 9, 42, 80
5, 95040, Note_on_c, 9, 35, 95
5, 95040, Note_on_c, 9, 35, 95
5, 95040, Note_on_c, 9, 35, 95
5, 95040, Note_on_c, 9, 42, 95
5, 95280, Note_off_c, 9, 35, 80
5, 95280, Note_off_c, 9, 35, 80
5, 95280, Note_off_c, 9, 35, 80
5, 95280, Note_off_c, 9, 42, 80
5, 95280, Note_on_c, 9, 35, 95
5, 95280, Note_on_c, 9, 35, 95
5, 95280, Note_on_c, 9, 35, 95
5, 95280, Note_on_c, 9, 42, 95
5, 95520, Note_off_c, 9, 35, 80
5, 95520, Note_off_c, 9, 35, 80
5, 95520, Note_off_c, 9, 35, 80
5, 95520, Note_off_c, 9, 42, 80
5, 95520, Note_on_c, 9, 40, 95
5, 95520, Note_on_c, 9, 42, 95
5, 95760, Note_off_c, 9, 40, 80
5, 95760, Note_off_c, 9, 42, 80
5, 95760, Note_on_c, 9, 35, 95
5, 95760, Note_on_c, 9, 35, 95
5, 95760, Note_on_c, 9, 35, 95
5, 95760, Note_on_c, 9, 42, 95
5, 96000, Note_off_c, 9, 35, 80
5, 96000, Note_off_c, 9, 35, 80
5, 96000, Note_off_c, 9, 35, 80
5, 96000, Note_off_c, 9, 42, 80
5, 96000, Note_on_c, 9, 35, 95
5, 96000, Note_on_c, 9, 35, 95
5, 96000, Note_on_c, 9, 35, 95
5, 96000, Note_on_c, 9, 42, 95
5, 96240, Note_off_c, 9, 35, 80
5, 96240, Note_off_c, 9, 35, 80
5, 96240, Note_off_c, 9, 35, 80
5, 96240, Note_off_c, 9, 42, 80
5, 96240, Note_on_c, 9, 35, 95
5, 96240, Note_on_c, 9, 35, 95
5, 96240, Note_on_c, 9, 35, 95
5, 96240, Note_on_c, 9, 42, 95
5, 96480, Note_off_c, 9, 35, 80
5, 96480, Note_off_c, 9, 35, 80
5, 96480, Note_off_c, 9, 35, 80
5, 96480, Note_off_c, 9, 42, 80
5, 96480, Note_on_c, 9, 40, 95
5, 96480, Note_on_c, 9, 42, 95
5, 96720, Note_off_c, 9, 40, 80
5, 96720, Note_off_c, 9, 42, 80
5, 96720, Note_on_c, 9, 35, 95
5, 96720, Note_on_c, 9, 35, 95
5, 96720, Note_on_c, 9, 35, 95
5, 96720, Note_on_c, 9, 42, 95
5, 96960, Note_off_c, 9, 35, 80
5, 96960, Note_off_c, 9, 35, 80
5, 96960, Note_off_c, 9, 35, 80
5, 96960, Note_off_c, 9, 42, 80
5, 96960, Note_on_c, 9, 35, 95
5, 96960, Note_on_c, 9, 35, 95
5, 96960, Note_on_c, 9, 35, 95
5, 96960, Note_on_c, 9, 42, 95
5, 97200, Note_off_c, 9, 35, 80
5, 97200, Note_off_c, 9, 35, 80
5, 97200, Note_off_c, 9, 35, 80
5, 97200, Note_off_c, 9, 42, 80
5, 97200, Note_on_c, 9, 35, 95
5, 97200, Note_on_c, 9, 35, 95
5, 97200, Note_on_c, 9, 35, 95
5, 97200, Note_on_c, 9, 42, 95
5, 97440, Note_off_c, 9, 35, 80
5, 97440, Note_off_c, 9, 35, 80
5, 97440, Note_off_c, 9, 35, 80
5, 97440, Note_off_c, 9, 42, 80
5, 97440, Note_on_c, 9, 40, 95
5, 97440, Note_on_c, 9, 42, 95
5, 97680, Note_off_c, 9, 40, 80
5, 97680, Note_off_c, 9, 42, 80
5, 97680, Note_on_c, 9, 35, 95
5, 97680, Note_on_c, 9, 35, 95
5, 97680, Note_on_c, 9, 35, 95
5, 97680, Note_on_c, 9, 42, 95
5, 97920, Note_off_c, 9, 35, 80
5, 97920, Note_off_c, 9, 35, 80
5, 97920, Note_off_c, 9, 35, 80
5, 97920, Note_off_c, 9, 42, 80
5, 97920, Note_on_c, 9, 35, 95
5, 97920, Note_on_c, 9, 35, 95
5, 97920, Note_on_c, 9, 35, 95
5, 97920, Note_on_c, 9, 42, 95
5, 98160, Note_off_c, 9, 35, 80
5, 98160, Note_off_c, 9, 35, 80
5, 98160, Note_off_c, 9, 35, 80
5, 98160, Note_off_c, 9, 42, 80
5, 98160, Note_on_c, 9, 35, 95
5, 98160, Note_on_c, 9, 35, 95
5, 98160, Note_on_c, 9, 35, 95
5, 98160, Note_on_c, 9, 42, 95
5, 98400, Note_off_c, 9, 35, 80
5, 98400, Note_off_c, 9, 35, 80
5, 98400, Note_off_c, 9, 35, 80
5, 98400, Note_off_c, 9, 42, 80
5, 98400, Note_on_c, 9, 42, 95
5, 98640, Note_off_c, 9, 42, 80
5, 98640, Note_on_c, 9, 35, 95
5, 98640, Note_on_c, 9, 35, 95
5, 98640, Note_on_c, 9, 35, 95
5, 98640, Note_on_c, 9, 42, 95
5, 98880, Note_off_c, 9, 35, 80
5, 98880, Note_off_c, 9, 35, 80
5, 98880, Note_off_c, 9, 35, 80
5, 98880, Note_off_c, 9, 42, 80
5, 98880, Note_on_c, 9, 35, 95
5, 98880, Note_on_c, 9, 35, 95
5, 98880, Note_on_c, 9, 35, 95
5, 98880, Note_on_c, 9, 42, 95
5, 99120, Note_off_c, 9, 35, 80
5, 99120, Note_off_c, 9, 35, 80
5, 99120, Note_off_c, 9, 35, 80
5, 99120, Note_off_c, 9, 42, 80
5, 99120, Note_on_c, 9, 35, 95
5, 99120, Note_on_c, 9, 35, 95
5, 99120, Note_on_c, 9, 35, 95
5, 99120, Note_on_c, 9, 42, 95
5, 99360, Note_off_c, 9, 35, 80
5, 99360, Note_off_c, 9, 35, 80
5, 99360, Note_off_c, 9, 35, 80
5, 99360, Note_off_c, 9, 42, 80
5, 99360, Note_on_c, 9, 40, 95
5, 99360, Note_on_c, 9, 42, 95
5, 99600, Note_off_c, 9, 40, 80
5, 99600, Note_off_c, 9, 42, 80
5, 99600, Note_on_c, 9, 35, 95
5, 99600, Note_on_c, 9, 35, 95
5, 99600, Note_on_c, 9, 35, 95
5, 99600, Note_on_c, 9, 42, 95
5, 99840, Note_off_c, 9, 35, 80
5, 99840, Note_off_c, 9, 35, 80
5, 99840, Note_off_c, 9, 35, 80
5, 99840, Note_off_c, 9, 42, 80
5, 99840, Note_on_c, 9, 35, 95
5, 99840, Note_on_c, 9, 35, 95
5, 99840, Note_on_c, 9, 35, 95
5, 99840, Note_on_c, 9, 42, 95
5, 100080, Note_off_c, 9, 35, 80
5, 100080, Note_off_c, 9, 35, 80
5, 100080, Note_off_c, 9, 35, 80
5, 100080, Note_off_c, 9, 42, 80
5, 100080, Note_on_c, 9, 35, 95
5, 100080, Note_on_c, 9, 35, 95
5, 100080, Note_on_c, 9, 35, 95
5, 100080, Note_on_c, 9, 42, 95
5, 100320, Note_off_c, 9, 35, 80
5, 100320, Note_off_c, 9, 35, 80
5, 100320, Note_off_c, 9, 35, 80
5, 100320, Note_off_c, 9, 42, 80
5, 100320, Note_on_c, 9, 42, 95
5, 100560, Note_off_c, 9, 42, 80
5, 100560, Note_on_c, 9, 35, 95
5, 100560, Note_on_c, 9, 35, 95
5, 100560, Note_on_c, 9, 35, 95
5, 100560, Note_on_c, 9, 42, 95
5, 100800, Note_off_c, 9, 35, 80
5, 100800, Note_off_c, 9, 35, 80
5, 100800, Note_off_c, 9, 35, 80
5, 100800, Note_off_c, 9, 42, 80
5, 100800, Note_on_c, 9, 35, 95
5, 100800, Note_on_c, 9, 35, 95
5, 100800, Note_on_c, 9, 35, 95
5, 100800, Note_on_c, 9, 42, 95
5, 101040, Note_off_c, 9, 35, 80
5, 101040, Note_off_c, 9, 35, 80
5, 101040, Note_off_c, 9, 35, 80
5, 101040, Note_off_c, 9, 42, 80
5, 101040, Note_on_c, 9, 35, 95
5, 101040, Note_on_c, 9, 35, 95
5, 101040, Note_on_c, 9, 35, 95
5, 101040, Note_on_c, 9, 42, 95
5, 101280, Note_off_c, 9, 35, 80
5, 101280, Note_off_c, 9, 35, 80
5, 101280, Note_off_c, 9, 35, 80
5, 101280, Note_off_c, 9, 42, 80
5, 101280, Note_on_c, 9, 40, 95
5, 101280, Note_on_c, 9, 42, 95
5, 101400, Note_off_c, 9, 40, 80
5, 101400, Note_off_c, 9, 42, 80
5, 101400, Note_on_c, 9, 40, 95
5, 101400, Note_on_c, 9, 42, 95
5, 101520, Note_off_c, 9, 40, 80
5, 101520, Note_off_c, 9, 42, 80
5, 101520, Note_on_c, 9, 35, 95
5, 101520, Note_on_c, 9, 35, 95
5, 101520, Note_on_c, 9, 35, 95
5, 101520, Note_on_c, 9, 42, 95
5, 101760, Note_off_c, 9, 35, 80
5, 101760, Note_off_c, 9, 35, 80
5, 101760, Note_off_c, 9, 35, 80
5, 101760, Note_off_c, 9, 42, 80
5, 101760, Note_on_c, 9, 40, 95
5, 101760, Note_on_c, 9, 42, 95
5, 102000, Note_off_c, 9, 40, 80
5, 102000, Note_off_c, 9, 42, 80
5, 102000, Note_on_c, 9, 35, 95
5, 102000, Note_on_c, 9, 35, 95
5, 102000, Note_on_c, 9, 35, 95
5, 102000, Note_on_c, 9, 42, 95
5, 102240, Note_off_c, 9, 35, 80
5, 102240, Note_off_c, 9, 35, 80
5, 102240, Note_off_c, 9, 35, 80
5, 102240, Note_off_c, 9, 42, 80
5, 102240, Note_on_c, 9, 35, 95
5, 102240, Note_on_c, 9, 35, 95
5, 102240, Note_on_c, 9, 35, 95
5, 102240, Note_on_c, 9, 42, 95
5, 102720, Note_off_c, 9, 35, 80
5, 102720, Note_off_c, 9, 35, 80
5, 102720, Note_off_c, 9, 35, 80
5, 102720, Note_off_c, 9, 42, 80
5, 102960, Note_on_c, 9, 35, 95
5, 102960, Note_on_c, 9, 35, 95
5, 102960, Note_on_c, 9, 35, 95
5, 103200, Note_off_c, 9, 35, 80
5, 103200, Note_off_c, 9, 35, 80
5, 103200, Note_off_c, 9, 35, 80
5, 103200, Note_on_c, 9, 40, 95
5, 103200, Note_on_c, 9, 42, 95
5, 103440, Note_off_c, 9, 40, 80
5, 103440, Note_off_c, 9, 42, 80
5, 103440, Note_on_c, 9, 35, 95
5, 103440, Note_on_c, 9, 35, 95
5, 103440, Note_on_c, 9, 35, 95
5, 103440, Note_on_c, 9, 42, 95
5, 103680, Note_off_c, 9, 35, 80
5, 103680, Note_off_c, 9, 35, 80
5, 103680, Note_off_c, 9, 35, 80
5, 103680, Note_off_c, 9, 42, 80
5, 103680, Note_on_c, 9, 35, 95
5, 103680, Note_on_c, 9, 35, 95
5, 103680, Note_on_c, 9, 35, 95
5, 103680, Note_on_c, 9, 42, 95
5, 103920, Note_off_c, 9, 35, 80
5, 103920, Note_off_c, 9, 35, 80
5, 103920, Note_off_c, 9, 35, 80
5, 103920, Note_off_c, 9, 42, 80
5, 103920, Note_on_c, 9, 35, 95
5, 103920, Note_on_c, 9, 35, 95
5, 103920, Note_on_c, 9, 35, 95
5, 103920, Note_on_c, 9, 42, 95
5, 104160, Note_off_c, 9, 35, 80
5, 104160, Note_off_c, 9, 35, 80
5, 104160, Note_off_c, 9, 35, 80
5, 104160, Note_off_c, 9, 42, 80
5, 104160, Note_on_c, 9, 40, 95
5, 104160, Note_on_c, 9, 42, 95
5, 104400, Note_off_c, 9, 40, 80
5, 104400, Note_off_c, 9, 42, 80
5, 104400, Note_on_c, 9, 35, 95
5, 104400, Note_on_c, 9, 35, 95
5, 104400, Note_on_c, 9, 35, 95
5, 104400, Note_on_c, 9, 42, 95
5, 104640, Note_off_c, 9, 35, 80
5, 104640, Note_off_c, 9, 35, 80
5, 104640, Note_off_c, 9, 35, 80
5, 104640, Note_off_c, 9, 42, 80
5, 104640, Note_on_c, 9, 35, 95
5, 104640, Note_on_c, 9, 35, 95
5, 104640, Note_on_c, 9, 35, 95
5, 104640, Note_on_c, 9, 42, 95
5, 104880, Note_off_c, 9, 35, 80
5, 104880, Note_off_c, 9, 35, 80
5, 104880, Note_off_c, 9, 35, 80
5, 104880, Note_off_c, 9, 42, 80
5, 104880, Note_on_c, 9, 42, 95
5, 105120, Note_off_c, 9, 42, 80
5, 105120, Note_on_c, 9, 40, 95
5, 105120, Note_on_c, 9, 42, 95
5, 105360, Note_off_c, 9, 40, 80
5, 105360, Note_off_c, 9, 42, 80
5, 105360, Note_on_c, 9, 35, 95
5, 105360, Note_on_c, 9, 35, 95
5, 105360, Note_on_c, 9, 35, 95
5, 105360, Note_on_c, 9, 42, 95
5, 105600, Note_off_c, 9, 35, 80
5, 105600, Note_off_c, 9, 35, 80
5, 105600, Note_off_c, 9, 35, 80
5, 105600, Note_off_c, 9, 42, 80
5, 105600, Note_on_c, 9, 35, 95
5, 105600, Note_on_c, 9, 35, 95
5, 105600, Note_on_c, 9, 35, 95
5, 105600, Note_on_c, 9, 42, 95
5, 105840, Note_off_c, 9, 35, 80
5, 105840, Note_off_c, 9, 35, 80
5, 105840, Note_off_c, 9, 35, 80
5, 105840, Note_off_c, 9, 42, 80
5, 105840, Note_on_c, 9, 35, 95
5, 105840, Note_on_c, 9, 35, 95
5, 105840, Note_on_c, 9, 35, 95
5, 105840, Note_on_c, 9, 42, 95
5, 106080, Note_off_c, 9, 35, 80
5, 106080, Note_off_c, 9, 35, 80
5, 106080, Note_off_c, 9, 35, 80
5, 106080, Note_off_c, 9, 42, 80
5, 106080, Note_on_c, 9, 40, 95
5, 106080, Note_on_c, 9, 42, 95
5, 106320, Note_off_c, 9, 40, 80
5, 106320, Note_off_c, 9, 42, 80
5, 106320, Note_on_c, 9, 35, 95
5, 106320, Note_on_c, 9, 35, 95
5, 106320, Note_on_c, 9, 35, 95
5, 106320, Note_on_c, 9, 42, 95
5, 106560, Note_off_c, 9, 35, 80
5, 106560, Note_off_c, 9, 35, 80
5, 106560, Note_off_c, 9, 35, 80
5, 106560, Note_off_c, 9, 42, 80
5, 106560, Note_on_c, 9, 35, 95
5, 106560, Note_on_c, 9, 35, 95
5, 106560, Note_on_c, 9, 35, 95
5, 106560, Note_on_c, 9, 42, 95
5, 106800, Note_off_c, 9, 35, 80
5, 106800, Note_off_c, 9, 35, 80
5, 106800, Note_off_c, 9, 35, 80
5, 106800, Note_off_c, 9, 42, 80
5, 106800, Note_on_c, 9, 42, 95
5, 107040, Note_off_c, 9, 42, 80
5, 107040, Note_on_c, 9, 40, 95
5, 107040, Note_on_c, 9, 42, 95
5, 107280, Note_off_c, 9, 40, 80
5, 107280, Note_off_c, 9, 42, 80
5, 107280, Note_on_c, 9, 35, 95
5, 107280, Note_on_c, 9, 35, 95
5, 107280, Note_on_c, 9, 35, 95
5, 107280, Note_on_c, 9, 42, 95
5, 107520, Note_off_c, 9, 35, 80
5, 107520, Note_off_c, 9, 35, 80
5, 107520, Note_off_c, 9, 35, 80
5, 107520, Note_off_c, 9, 42, 80
5, 107520, Note_on_c, 9, 35, 95
5, 107520, Note_on_c, 9, 35, 95
5, 107520, Note_on_c, 9, 35, 95
5, 107520, Note_on_c, 9, 42, 95
5, 107760, Note_off_c, 9, 35, 80
5, 107760, Note_off_c, 9, 35, 80
5, 107760, Note_off_c, 9, 35, 80
5, 107760, Note_off_c, 9, 42, 80
5, 107760, Note_on_c, 9, 35, 95
5, 107760, Note_on_c, 9, 35, 95
5, 107760, Note_on_c, 9, 35, 95
5, 107760, Note_on_c, 9, 42, 95
5, 108000, Note_off_c, 9, 35, 80
5, 108000, Note_off_c, 9, 35, 80
5, 108000, Note_off_c, 9, 35, 80
5, 108000, Note_off_c, 9, 42, 80
5, 108000, Note_on_c, 9, 40, 95
5, 108000, Note_on_c, 9, 42, 95
5, 108240, Note_off_c, 9, 40, 80
5, 108240, Note_off_c, 9, 42, 80
5, 108240, Note_on_c, 9, 35, 95
5, 108240, Note_on_c, 9, 35, 95
5, 108240, Note_on_c, 9, 35, 95
5, 108240, Note_on_c, 9, 42, 95
5, 108480, Note_off_c, 9, 35, 80
5, 108480, Note_off_c, 9, 35, 80
5, 108480, Note_off_c, 9, 35, 80
5, 108480, Note_off_c, 9, 42, 80
5, 108480, Note_on_c, 9, 35, 95
5, 108480, Note_on_c, 9, 35, 95
5, 108480, Note_on_c, 9, 35, 95
5, 108480, Note_on_c, 9, 42, 95
5, 108720, Note_off_c, 9, 35, 80
5, 108720, Note_off_c, 9, 35, 80
5, 108720, Note_off_c, 9, 35, 80
5, 108720, Note_off_c, 9, 42, 80
5, 108720, Note_on_c, 9, 42, 95
5, 108960, Note_off_c, 9, 42, 80
5, 108960, Note_on_c, 9, 40, 95
5, 108960, Note_on_c, 9, 42, 95
5, 109200, Note_off_c, 9, 40, 80
5, 109200, Note_off_c, 9, 42, 80
5, 109200, Note_on_c, 9, 35, 95
5, 109200, Note_on_c, 9, 35, 95
5, 109200, Note_on_c, 9, 35, 95
5, 109200, Note_on_c, 9, 42, 95
5, 109440, Note_off_c, 9, 35, 80
5, 109440, Note_off_c, 9, 35, 80
5, 109440, Note_off_c, 9, 35, 80
5, 109440, Note_off_c, 9, 42, 80
5, 109440, Note_on_c, 9, 35, 95
5, 109440, Note_on_c, 9, 35, 95
5, 109440, Note_on_c, 9, 35, 95
5, 109440, Note_on_c, 9, 42, 95
5, 109680, Note_off_c, 9, 35, 80
5, 109680, Note_off_c, 9, 35, 80
5, 109680, Note_off_c, 9, 35, 80
5, 109680, Note_off_c, 9, 42, 80
5, 109680, Note_on_c, 9, 35, 95
5, 109680, Note_on_c, 9, 35, 95
5, 109680, Note_on_c, 9, 35, 95
5, 109680, Note_on_c, 9, 42, 95
5, 109920, Note_off_c, 9, 35, 80
5, 109920, Note_off_c, 9, 35, 80
5, 109920, Note_off_c, 9, 35, 80
5, 109920, Note_off_c, 9, 42, 80
5, 109920, Note_on_c, 9, 40, 95
5, 109920, Note_on_c, 9, 42, 95
5, 110160, Note_off_c, 9, 40, 80
5, 110160, Note_off_c, 9, 42, 80
5, 110160, Note_on_c, 9, 35, 95
5, 110160, Note_on_c, 9, 35, 95
5, 110160, Note_on_c, 9, 35, 95
5, 110160, Note_on_c, 9, 42, 95
5, 110400, Note_off_c, 9, 35, 80
5, 110400, Note_off_c, 9, 35, 80
5, 110400, Note_off_c, 9, 35, 80
5, 110400, Note_off_c, 9, 42, 80
5, 110400, Note_on_c, 9, 35, 95
5, 110400, Note_on_c, 9, 35, 95
5, 110400, Note_on_c, 9, 35, 95
5, 110400, Note_on_c, 9, 42, 95
5, 110640, Note_off_c, 9, 35, 80
5, 110640, Note_off_c, 9, 35, 80
5, 110640, Note_off_c, 9, 35, 80
5, 110640, Note_off_c, 9, 42, 80
5, 110640, Note_on_c, 9, 42, 95
5, 110880, Note_off_c, 9, 42, 80
5, 110880, Note_on_c, 9, 40, 95
5, 110880, Note_on_c, 9, 42, 95
5, 111120, Note_off_c, 9, 40, 80
5, 111120, Note_off_c, 9, 42, 80
5, 111120, Note_on_c, 9, 35, 95
5, 111120, Note_on_c, 9, 35, 95
5, 111120, Note_on_c, 9, 35, 95
5, 111120, Note_on_c, 9, 42, 95
5, 111360, Note_off_c, 9, 35, 80
5, 111360, Note_off_c, 9, 35, 80
5, 111360, Note_off_c, 9, 35, 80
5, 111360, Note_off_c, 9, 42, 80
5, 111360, Note_on_c, 9, 35, 95
5, 111360, Note_on_c, 9, 35, 95
5, 111360, Note_on_c, 9, 35, 95
5, 111360, Note_on_c, 9, 42, 95
5, 111600, Note_off_c, 9, 35, 80
5, 111600, Note_off_c, 9, 35, 80
5, 111600, Note_off_c, 9, 35, 80
5, 111600, Note_off_c, 9, 42, 80
5, 111600, Note_on_c, 9, 35, 95
5, 111600, Note_on_c, 9, 35, 95
5, 111600, Note_on_c, 9, 35, 95
5, 111600, Note_on_c, 9, 42, 95
5, 111840, Note_off_c, 9, 35, 80
5, 111840, Note_off_c, 9, 35, 80
5, 111840, Note_off_c, 9, 35, 80
5, 111840, Note_off_c, 9, 42, 80
5, 111840, Note_on_c, 9, 40, 95
5, 111840, Note_on_c, 9, 42, 95
5, 112080, Note_off_c, 9, 40, 80
5, 112080, Note_off_c, 9, 42, 80
5, 112080, Note_on_c, 9, 35, 95
5, 112080, Note_on_c, 9, 35, 95
5, 112080, Note_on_c, 9, 35, 95
5, 112080, Note_on_c, 9, 42, 95
5, 112320, Note_off_c, 9, 35, 80
5, 112320, Note_off_c, 9, 35, 80
5, 112320, Note_off_c, 9, 35, 80
5, 112320, Note_off_c, 9, 42, 80
5, 112320, Note_on_c, 9, 35, 95
5, 112320, Note_on_c, 9, 35, 95
5, 112320, Note_on_c, 9, 35, 95
5, 112320, Note_on_c, 9, 42, 95
5, 112560, Note_off_c, 9, 35, 80
5, 112560, Note_off_c, 9, 35, 80
5, 112560, Note_off_c, 9, 35, 80
5, 112560, Note_off_c, 9, 42, 80
5, 112560, Note_on_c, 9, 42, 95
5, 112800, Note_off_c, 9, 42, 80
5, 112800, Note_on_c, 9, 40, 95
5, 112800, Note_on_c, 9, 42, 95
5, 113040, Note_off_c, 9, 40, 80
5, 113040, Note_off_c, 9, 42, 80
5, 113040, Note_on_c, 9, 35, 95
5, 113040, Note_on_c, 9, 35, 95
5, 113040, Note_on_c, 9, 35, 95
5, 113040, Note_on_c, 9, 42, 95
5, 113280, Note_off_c, 9, 35, 80
5, 113280, Note_off_c, 9, 35, 80
5, 113280, Note_off_c, 9, 35, 80
5, 113280, Note_off_c, 9, 42, 80
5, 113280, Note_on_c, 9, 35, 95
5, 113280, Note_on_c, 9, 35, 95
5, 113280, Note_on_c, 9, 35, 95
5, 113280, Note_on_c, 9, 42, 95
5, 113520, Note_off_c, 9, 35, 80
5, 113520, Note_off_c, 9, 35, 80
5, 113520, Note_off_c, 9, 35, 80
5, 113520, Note_off_c, 9, 42, 80
5, 113520, Note_on_c, 9, 35, 95
5, 113520, Note_on_c, 9, 35, 95
5, 113520, Note_on_c, 9, 35, 95
5, 113520, Note_on_c, 9, 42, 95
5, 113760, Note_off_c, 9, 35, 80
5, 113760, Note_off_c, 9, 35, 80
5, 113760, Note_off_c, 9, 35, 80
5, 113760, Note_off_c, 9, 42, 80
5, 113760, Note_on_c, 9, 40, 95
5, 113760, Note_on_c, 9, 42, 95
5, 114000, Note_off_c, 9, 40, 80
5, 114000, Note_off_c, 9, 42, 80
5, 114000, Note_on_c, 9, 35, 95
5, 114000, Note_on_c, 9, 35, 95
5, 114000, Note_on_c, 9, 35, 95
5, 114000, Note_on_c, 9, 42, 95
5, 114240, Note_off_c, 9, 35, 80
5, 114240, Note_off_c, 9, 35, 80
5, 114240, Note_off_c, 9, 35, 80
5, 114240, Note_off_c, 9, 42, 80
5, 114240, Note_on_c, 9, 35, 95
5, 114240, Note_on_c, 9, 35, 95
5, 114240, Note_on_c, 9, 35, 95
5, 114240, Note_on_c, 9, 42, 95
5, 114480, Note_off_c, 9, 35, 80
5, 114480, Note_off_c, 9, 35, 80
5, 114480, Note_off_c, 9, 35, 80
5, 114480, Note_off_c, 9, 42, 80
5, 114480, Note_on_c, 9, 42, 95
5, 114720, Note_off_c, 9, 42, 80
5, 114720, Note_on_c, 9, 40, 95
5, 114720, Note_on_c, 9, 42, 95
5, 114960, Note_off_c, 9, 40, 80
5, 114960, Note_off_c, 9, 42, 80
5, 114960, Note_on_c, 9, 35, 95
5, 114960, Note_on_c, 9, 35, 95
5, 114960, Note_on_c, 9, 35, 95
5, 114960, Note_on_c, 9, 42, 95
5, 115200, Note_off_c, 9, 35, 80
5, 115200, Note_off_c, 9, 35, 80
5, 115200, Note_off_c, 9, 35, 80
5, 115200, Note_off_c, 9, 42, 80
5, 115200, Note_on_c, 9, 35, 95
5, 115200, Note_on_c, 9, 35, 95
5, 115200, Note_on_c, 9, 35, 95
5, 115200, Note_on_c, 9, 42, 95
5, 115440, Note_off_c, 9, 35, 80
5, 115440, Note_off_c, 9, 35, 80
5, 115440, Note_off_c, 9, 35, 80
5, 115440, Note_off_c, 9, 42, 80
5, 115440, Note_on_c, 9, 35, 95
5, 115440, Note_on_c, 9, 35, 95
5, 115440, Note_on_c, 9, 35, 95
5, 115440, Note_on_c, 9, 42, 95
5, 115680, Note_off_c, 9, 35, 80
5, 115680, Note_off_c, 9, 35, 80
5, 115680, Note_off_c, 9, 35, 80
5, 115680, Note_off_c, 9, 42, 80
5, 115680, Note_on_c, 9, 40, 95
5, 115680, Note_on_c, 9, 42, 95
5, 115920, Note_off_c, 9, 40, 80
5, 115920, Note_off_c, 9, 42, 80
5, 115920, Note_on_c, 9, 35, 95
5, 115920, Note_on_c, 9, 35, 95
5, 115920, Note_on_c, 9, 35, 95
5, 115920, Note_on_c, 9, 42, 95
5, 116160, Note_off_c, 9, 35, 80
5, 116160, Note_off_c, 9, 35, 80
5, 116160, Note_off_c, 9, 35, 80
5, 116160, Note_off_c, 9, 42, 80
5, 116160, Note_on_c, 9, 35, 95
5, 116160, Note_on_c, 9, 35, 95
5, 116160, Note_on_c, 9, 35, 95
5, 116160, Note_on_c, 9, 42, 95
5, 116400, Note_off_c, 9, 35, 80
5, 116400, Note_off_c, 9, 35, 80
5, 116400, Note_off_c, 9, 35, 80
5, 116400, Note_off_c, 9, 42, 80
5, 116400, Note_on_c, 9, 42, 95
5, 116640, Note_off_c, 9, 42, 80
5, 116640, Note_on_c, 9, 40, 95
5, 116640, Note_on_c, 9, 42, 95
5, 116880, Note_off_c, 9, 40, 80
5, 116880, Note_off_c, 9, 42, 80
5, 116880, Note_on_c, 9, 35, 95
5, 116880, Note_on_c, 9, 35, 95
5, 116880, Note_on_c, 9, 35, 95
5, 116880, Note_on_c, 9, 42, 95
5, 117120, Note_off_c, 9, 35, 80
5, 117120, Note_off_c, 9, 35, 80
5, 117120, Note_off_c, 9, 35, 80
5, 117120, Note_off_c, 9, 42, 80
5, 117120, Note_on_c, 9, 35, 95
5, 117120, Note_on_c, 9, 35, 95
5, 117120, Note_on_c, 9, 35, 95
5, 117120, Note_on_c, 9, 42, 95
5, 117360, Note_off_c, 9, 35, 80
5, 117360, Note_off_c, 9, 35, 80
5, 117360, Note_off_c, 9, 35, 80
5, 117360, Note_off_c, 9, 42, 80
5, 117360, Note_on_c, 9, 35, 95
5, 117360, Note_on_c, 9, 35, 95
5, 117360, Note_on_c, 9, 35, 95
5, 117360, Note_on_c, 9, 42, 95
5, 117600, Note_off_c, 9, 35, 80
5, 117600, Note_off_c, 9, 35, 80
5, 117600, Note_off_c, 9, 35, 80
5, 117600, Note_off_c, 9, 42, 80
5, 117600, Note_on_c, 9, 40, 95
5, 117600, Note_on_c, 9, 42, 95
5, 117840, Note_off_c, 9, 40, 80
5, 117840, Note_off_c, 9, 42, 80
5, 117840, Note_on_c, 9, 35, 95
5, 117840, Note_on_c, 9, 35, 95
5, 117840, Note_on_c, 9, 35, 95
5, 117840, Note_on_c, 9, 42, 95
5, 118080, Note_off_c, 9, 35, 80
5, 118080, Note_off_c, 9, 35, 80
5, 118080, Note_off_c, 9, 35, 80
5, 118080, Note_off_c, 9, 42, 80
5, 118080, Note_on_c, 9, 35, 95
5, 118080, Note_on_c, 9, 35, 95
5, 118080, Note_on_c, 9, 35, 95
5, 118080, Note_on_c, 9, 42, 95
5, 118320, Note_off_c, 9, 35, 80
5, 118320, Note_off_c, 9, 35, 80
5, 118320, Note_off_c, 9, 35, 80
5, 118320, Note_off_c, 9, 42, 80
5, 118320, Note_on_c, 9, 42, 95
5, 118560, Note_off_c, 9, 42, 80
5, 118560, End_track
0, 0, End_of_file
