0, 0, Header, 1, 8, 240
1, 0, Start_track
1, 0, Time_signature, 4, 2, 24, 8
1, 0, Tempo, 326087
1, 7680, Marker_t, "you know the day..."
1, 34560, Marker_t, "solo organo"
1, 46080, Marker_t, "every body loves..."
1, 53760, Marker_t, "she gets..."
1, 61440, Marker_t, "intro"
1, 65280, Marker_t, "I see an isaland..."
1, 76800, Marker_t, "acorde mi7"
1, 84480, Marker_t, "made the scene"
1, 84480, End_track
2, 0, Start_track
2, 0, Title_t, "bajo"
2, 0, Program_c, 1, 33
2, 0, Control_c, 1, 7, 77
2, 1923, Note_on_c, 1, 40, 85
2, 2102, Note_off_c, 1, 40, 64
2, 2166, Note_on_c, 1, 35, 74
2, 2303, Note_off_c, 1, 35, 64
2, 2416, Note_on_c, 1, 38, 84
2, 2566, Note_off_c, 1, 38, 64
2, 2640, Note_on_c, 1, 33, 80
2, 2729, Note_off_c, 1, 33, 64
2, 2817, Note_on_c, 1, 40, 97
2, 2932, Note_off_c, 1, 40, 64
2, 3018, Note_on_c, 1, 35, 78
2, 3118, Note_off_c, 1, 35, 64
2, 3244, Note_on_c, 1, 35, 74
2, 3345, Note_off_c, 1, 35, 64
2, 3358, Note_on_c, 1, 38, 76
2, 3515, Note_off_c, 1, 38, 64
2, 3595, Note_on_c, 1, 33, 82
2, 3747, Note_off_c, 1, 33, 64
2, 3861, Note_on_c, 1, 40, 85
2, 3994, Note_off_c, 1, 40, 64
2, 4080, Note_on_c, 1, 35, 82
2, 4204, Note_off_c, 1, 35, 64
2, 4325, Note_on_c, 1, 38, 94
2, 4436, Note_off_c, 1, 38, 64
2, 4546, Note_on_c, 1, 33, 77
2, 4626, Note_off_c, 1, 33, 64
2, 4710, Note_on_c, 1, 40, 80
2, 4813, Note_off_c, 1, 40, 64
2, 4922, Note_on_c, 1, 35, 82
2, 5012, Note_off_c, 1, 35, 64
2, 5140, Note_on_c, 1, 35, 72
2, 5233, Note_off_c, 1, 35, 64
2, 5259, Note_on_c, 1, 38, 78
2, 5414, Note_off_c, 1, 38, 64
2, 5502, Note_on_c, 1, 33, 84
2, 5611, Note_off_c, 1, 33, 64
2, 5745, Note_on_c, 1, 40, 103
2, 5862, Note_off_c, 1, 40, 64
2, 5984, Note_on_c, 1, 35, 85
2, 6094, Note_off_c, 1, 35, 64
2, 6240, Note_on_c, 1, 38, 92
2, 6344, Note_off_c, 1, 38, 64
2, 6458, Note_on_c, 1, 33, 73
2, 6549, Note_off_c, 1, 33, 64
2, 6631, Note_on_c, 1, 40, 103
2, 6730, Note_off_c, 1, 40, 64
2, 6854, Note_on_c, 1, 35, 70
2, 6946, Note_off_c, 1, 35, 64
2, 7068, Note_on_c, 1, 35, 82
2, 7154, Note_off_c, 1, 35, 64
2, 7196, Note_on_c, 1, 38, 82
2, 7311, Note_off_c, 1, 38, 64
2, 7421, Note_on_c, 1, 33, 87
2, 7525, Note_off_c, 1, 33, 64
2, 7671, Note_on_c, 1, 40, 103
2, 7785, Note_off_c, 1, 40, 64
2, 7896, Note_on_c, 1, 35, 77
2, 8006, Note_off_c, 1, 35, 64
2, 8136, Note_on_c, 1, 38, 94
2, 8247, Note_off_c, 1, 38, 64
2, 8359, Note_on_c, 1, 33, 74
2, 8443, Note_off_c, 1, 33, 64
2, 8543, Note_on_c, 1, 40, 85
2, 8629, Note_off_c, 1, 40, 64
2, 8759, Note_on_c, 1, 35, 76
2, 8852, Note_off_c, 1, 35, 64
2, 8978, Note_on_c, 1, 35, 66
2, 9070, Note_off_c, 1, 35, 64
2, 9104, Note_on_c, 1, 38, 87
2, 9218, Note_off_c, 1, 38, 64
2, 9333, Note_on_c, 1, 33, 85
2, 9437, Note_off_c, 1, 33, 64
2, 9603, Note_on_c, 1, 40, 97
2, 9711, Note_off_c, 1, 40, 64
2, 9839, Note_on_c, 1, 35, 77
2, 9949, Note_off_c, 1, 35, 64
2, 10079, Note_on_c, 1, 38, 94
2, 10177, Note_off_c, 1, 38, 64
2, 10303, Note_on_c, 1, 33, 69
2, 10393, Note_off_c, 1, 33, 64
2, 10479, Note_on_c, 1, 40, 103
2, 10567, Note_off_c, 1, 40, 64
2, 10700, Note_on_c, 1, 35, 90
2, 10788, Note_off_c, 1, 35, 64
2, 10914, Note_on_c, 1, 35, 78
2, 11000, Note_off_c, 1, 35, 64
2, 11036, Note_on_c, 1, 38, 94
2, 11137, Note_off_c, 1, 38, 64
2, 11267, Note_on_c, 1, 33, 90
2, 11367, Note_off_c, 1, 33, 64
2, 11512, Note_on_c, 1, 40, 122
2, 11520, Note_off_c, 1, 40, 64
2, 11527, Note_on_c, 1, 38, 118
2, 11772, Note_off_c, 1, 38, 64
2, 11931, Note_on_c, 1, 38, 110
2, 12333, Note_off_c, 1, 38, 64
2, 12516, Note_on_c, 1, 38, 118
2, 12779, Note_off_c, 1, 38, 64
2, 12893, Note_on_c, 1, 38, 118
2, 13311, Note_off_c, 1, 38, 64
2, 13452, Note_on_c, 1, 40, 122
2, 13592, Note_off_c, 1, 40, 64
2, 13695, Note_on_c, 1, 35, 90
2, 13810, Note_off_c, 1, 35, 64
2, 13933, Note_on_c, 1, 38, 103
2, 14033, Note_off_c, 1, 38, 64
2, 14137, Note_on_c, 1, 33, 73
2, 14223, Note_off_c, 1, 33, 64
2, 14298, Note_on_c, 1, 40, 113
2, 14390, Note_off_c, 1, 40, 64
2, 14525, Note_on_c, 1, 35, 84
2, 14616, Note_off_c, 1, 35, 64
2, 14737, Note_on_c, 1, 35, 82
2, 14830, Note_off_c, 1, 35, 64
2, 14856, Note_on_c, 1, 38, 103
2, 14969, Note_off_c, 1, 38, 64
2, 15093, Note_on_c, 1, 33, 78
2, 15196, Note_off_c, 1, 33, 64
2, 15344, Note_on_c, 1, 40, 97
2, 15450, Note_off_c, 1, 40, 64
2, 15572, Note_on_c, 1, 35, 82
2, 15691, Note_off_c, 1, 35, 64
2, 15828, Note_on_c, 1, 38, 100
2, 15923, Note_off_c, 1, 38, 64
2, 16040, Note_on_c, 1, 33, 74
2, 16124, Note_off_c, 1, 33, 64
2, 16216, Note_on_c, 1, 40, 106
2, 16318, Note_off_c, 1, 40, 64
2, 16453, Note_on_c, 1, 35, 87
2, 16543, Note_off_c, 1, 35, 64
2, 16665, Note_on_c, 1, 35, 78
2, 16751, Note_off_c, 1, 35, 64
2, 16791, Note_on_c, 1, 38, 97
2, 16890, Note_off_c, 1, 38, 64
2, 17022, Note_on_c, 1, 33, 85
2, 17117, Note_off_c, 1, 33, 64
2, 17279, Note_on_c, 1, 40, 110
2, 17367, Note_off_c, 1, 40, 64
2, 17519, Note_on_c, 1, 35, 80
2, 17619, Note_off_c, 1, 35, 64
2, 17767, Note_on_c, 1, 38, 92
2, 17859, Note_off_c, 1, 38, 64
2, 17981, Note_on_c, 1, 33, 73
2, 18067, Note_off_c, 1, 33, 64
2, 18155, Note_on_c, 1, 40, 106
2, 18235, Note_off_c, 1, 40, 64
2, 18369, Note_on_c, 1, 35, 80
2, 18453, Note_off_c, 1, 35, 64
2, 18583, Note_on_c, 1, 35, 72
2, 18674, Note_off_c, 1, 35, 64
2, 18714, Note_on_c, 1, 38, 85
2, 18809, Note_off_c, 1, 38, 64
2, 18950, Note_on_c, 1, 33, 94
2, 19045, Note_off_c, 1, 33, 64
2, 19213, Note_on_c, 1, 40, 100
2, 19277, Note_off_c, 1, 40, 64
2, 19447, Note_on_c, 1, 35, 82
2, 19537, Note_off_c, 1, 35, 64
2, 19694, Note_on_c, 1, 38, 90
2, 19765, Note_off_c, 1, 38, 64
2, 19899, Note_on_c, 1, 33, 70
2, 19979, Note_off_c, 1, 33, 64
2, 20083, Note_on_c, 1, 40, 94
2, 20158, Note_off_c, 1, 40, 64
2, 20295, Note_on_c, 1, 35, 78
2, 20376, Note_off_c, 1, 35, 64
2, 20518, Note_on_c, 1, 35, 70
2, 20597, Note_off_c, 1, 35, 64
2, 20648, Note_on_c, 1, 38, 92
2, 20727, Note_off_c, 1, 38, 64
2, 20873, Note_on_c, 1, 33, 80
2, 20957, Note_off_c, 1, 33, 64
2, 21096, Note_on_c, 1, 40, 97
2, 21120, Note_off_c, 1, 40, 64
2, 21133, Note_on_c, 1, 40, 100
2, 21197, Note_off_c, 1, 40, 64
2, 21367, Note_on_c, 1, 35, 82
2, 21457, Note_off_c, 1, 35, 64
2, 21614, Note_on_c, 1, 38, 90
2, 21685, Note_off_c, 1, 38, 64
2, 21819, Note_on_c, 1, 33, 70
2, 21899, Note_off_c, 1, 33, 64
2, 22003, Note_on_c, 1, 40, 94
2, 22078, Note_off_c, 1, 40, 64
2, 22215, Note_on_c, 1, 35, 78
2, 22296, Note_off_c, 1, 35, 64
2, 22438, Note_on_c, 1, 35, 70
2, 22517, Note_off_c, 1, 35, 64
2, 22568, Note_on_c, 1, 38, 92
2, 22647, Note_off_c, 1, 38, 64
2, 22793, Note_on_c, 1, 33, 80
2, 22877, Note_off_c, 1, 33, 64
2, 23016, Note_on_c, 1, 40, 97
2, 23040, Note_off_c, 1, 40, 64
2, 23040, Note_on_c, 1, 40, 103
2, 23145, Note_off_c, 1, 40, 64
2, 23256, Note_on_c, 1, 35, 77
2, 23366, Note_off_c, 1, 35, 64
2, 23496, Note_on_c, 1, 38, 94
2, 23607, Note_off_c, 1, 38, 64
2, 23719, Note_on_c, 1, 33, 74
2, 23803, Note_off_c, 1, 33, 64
2, 23903, Note_on_c, 1, 40, 85
2, 23989, Note_off_c, 1, 40, 64
2, 24119, Note_on_c, 1, 35, 76
2, 24212, Note_off_c, 1, 35, 64
2, 24338, Note_on_c, 1, 35, 66
2, 24430, Note_off_c, 1, 35, 64
2, 24464, Note_on_c, 1, 38, 87
2, 24578, Note_off_c, 1, 38, 64
2, 24693, Note_on_c, 1, 33, 85
2, 24797, Note_off_c, 1, 33, 64
2, 24963, Note_on_c, 1, 40, 97
2, 25071, Note_off_c, 1, 40, 64
2, 25199, Note_on_c, 1, 35, 77
2, 25309, Note_off_c, 1, 35, 64
2, 25439, Note_on_c, 1, 38, 94
2, 25537, Note_off_c, 1, 38, 64
2, 25663, Note_on_c, 1, 33, 69
2, 25753, Note_off_c, 1, 33, 64
2, 25839, Note_on_c, 1, 40, 103
2, 25927, Note_off_c, 1, 40, 64
2, 26060, Note_on_c, 1, 35, 90
2, 26148, Note_off_c, 1, 35, 64
2, 26274, Note_on_c, 1, 35, 78
2, 26360, Note_off_c, 1, 35, 64
2, 26396, Note_on_c, 1, 38, 94
2, 26497, Note_off_c, 1, 38, 64
2, 26627, Note_on_c, 1, 33, 90
2, 26727, Note_off_c, 1, 33, 64
2, 26872, Note_on_c, 1, 40, 122
2, 26880, Note_off_c, 1, 40, 64
2, 26887, Note_on_c, 1, 38, 118
2, 27132, Note_off_c, 1, 38, 64
2, 27291, Note_on_c, 1, 38, 110
2, 27693, Note_off_c, 1, 38, 64
2, 27876, Note_on_c, 1, 38, 118
2, 28139, Note_off_c, 1, 38, 64
2, 28253, Note_on_c, 1, 38, 118
2, 28671, Note_off_c, 1, 38, 64
2, 28812, Note_on_c, 1, 40, 122
2, 28952, Note_off_c, 1, 40, 64
2, 29055, Note_on_c, 1, 35, 90
2, 29170, Note_off_c, 1, 35, 64
2, 29293, Note_on_c, 1, 38, 103
2, 29393, Note_off_c, 1, 38, 64
2, 29497, Note_on_c, 1, 33, 73
2, 29583, Note_off_c, 1, 33, 64
2, 29658, Note_on_c, 1, 40, 113
2, 29750, Note_off_c, 1, 40, 64
2, 29885, Note_on_c, 1, 35, 84
2, 29976, Note_off_c, 1, 35, 64
2, 30097, Note_on_c, 1, 35, 82
2, 30190, Note_off_c, 1, 35, 64
2, 30216, Note_on_c, 1, 38, 103
2, 30329, Note_off_c, 1, 38, 64
2, 30453, Note_on_c, 1, 33, 78
2, 30556, Note_off_c, 1, 33, 64
2, 30704, Note_on_c, 1, 40, 97
2, 30810, Note_off_c, 1, 40, 64
2, 30932, Note_on_c, 1, 35, 82
2, 31051, Note_off_c, 1, 35, 64
2, 31188, Note_on_c, 1, 38, 100
2, 31283, Note_off_c, 1, 38, 64
2, 31400, Note_on_c, 1, 33, 74
2, 31484, Note_off_c, 1, 33, 64
2, 31576, Note_on_c, 1, 40, 106
2, 31678, Note_off_c, 1, 40, 64
2, 31813, Note_on_c, 1, 35, 87
2, 31903, Note_off_c, 1, 35, 64
2, 32025, Note_on_c, 1, 35, 78
2, 32111, Note_off_c, 1, 35, 64
2, 32151, Note_on_c, 1, 38, 97
2, 32250, Note_off_c, 1, 38, 64
2, 32382, Note_on_c, 1, 33, 85
2, 32477, Note_off_c, 1, 33, 64
2, 32639, Note_on_c, 1, 40, 110
2, 32727, Note_off_c, 1, 40, 64
2, 32879, Note_on_c, 1, 35, 80
2, 32979, Note_off_c, 1, 35, 64
2, 33127, Note_on_c, 1, 38, 92
2, 33219, Note_off_c, 1, 38, 64
2, 33341, Note_on_c, 1, 33, 73
2, 33427, Note_off_c, 1, 33, 64
2, 33515, Note_on_c, 1, 40, 106
2, 33595, Note_off_c, 1, 40, 64
2, 33729, Note_on_c, 1, 35, 80
2, 33813, Note_off_c, 1, 35, 64
2, 33943, Note_on_c, 1, 35, 72
2, 34034, Note_off_c, 1, 35, 64
2, 34074, Note_on_c, 1, 38, 85
2, 34169, Note_off_c, 1, 38, 64
2, 34310, Note_on_c, 1, 33, 94
2, 34405, Note_off_c, 1, 33, 64
2, 34581, Note_on_c, 1, 40, 85
2, 34714, Note_off_c, 1, 40, 64
2, 34800, Note_on_c, 1, 35, 82
2, 34924, Note_off_c, 1, 35, 64
2, 35045, Note_on_c, 1, 38, 94
2, 35156, Note_off_c, 1, 38, 64
2, 35266, Note_on_c, 1, 33, 77
2, 35346, Note_off_c, 1, 33, 64
2, 35430, Note_on_c, 1, 40, 80
2, 35533, Note_off_c, 1, 40, 64
2, 35642, Note_on_c, 1, 35, 82
2, 35732, Note_off_c, 1, 35, 64
2, 35860, Note_on_c, 1, 35, 72
2, 35953, Note_off_c, 1, 35, 64
2, 35979, Note_on_c, 1, 38, 78
2, 36134, Note_off_c, 1, 38, 64
2, 36222, Note_on_c, 1, 33, 84
2, 36331, Note_off_c, 1, 33, 64
2, 36465, Note_on_c, 1, 40, 103
2, 36582, Note_off_c, 1, 40, 64
2, 36704, Note_on_c, 1, 35, 85
2, 36814, Note_off_c, 1, 35, 64
2, 36960, Note_on_c, 1, 38, 92
2, 37064, Note_off_c, 1, 38, 64
2, 37178, Note_on_c, 1, 33, 73
2, 37269, Note_off_c, 1, 33, 64
2, 37351, Note_on_c, 1, 40, 103
2, 37450, Note_off_c, 1, 40, 64
2, 37574, Note_on_c, 1, 35, 70
2, 37666, Note_off_c, 1, 35, 64
2, 37788, Note_on_c, 1, 35, 82
2, 37874, Note_off_c, 1, 35, 64
2, 37916, Note_on_c, 1, 38, 82
2, 38031, Note_off_c, 1, 38, 64
2, 38141, Note_on_c, 1, 33, 87
2, 38245, Note_off_c, 1, 33, 64
2, 38391, Note_on_c, 1, 40, 103
2, 38505, Note_off_c, 1, 40, 64
2, 38616, Note_on_c, 1, 35, 77
2, 38726, Note_off_c, 1, 35, 64
2, 38856, Note_on_c, 1, 38, 94
2, 38967, Note_off_c, 1, 38, 64
2, 39079, Note_on_c, 1, 33, 74
2, 39163, Note_off_c, 1, 33, 64
2, 39263, Note_on_c, 1, 40, 85
2, 39349, Note_off_c, 1, 40, 64
2, 39479, Note_on_c, 1, 35, 76
2, 39572, Note_off_c, 1, 35, 64
2, 39698, Note_on_c, 1, 35, 66
2, 39790, Note_off_c, 1, 35, 64
2, 39824, Note_on_c, 1, 38, 87
2, 39938, Note_off_c, 1, 38, 64
2, 40053, Note_on_c, 1, 33, 85
2, 40157, Note_off_c, 1, 33, 64
2, 40323, Note_on_c, 1, 40, 97
2, 40431, Note_off_c, 1, 40, 64
2, 40559, Note_on_c, 1, 35, 77
2, 40669, Note_off_c, 1, 35, 64
2, 40799, Note_on_c, 1, 38, 94
2, 40897, Note_off_c, 1, 38, 64
2, 41023, Note_on_c, 1, 33, 69
2, 41113, Note_off_c, 1, 33, 64
2, 41199, Note_on_c, 1, 40, 103
2, 41287, Note_off_c, 1, 40, 64
2, 41420, Note_on_c, 1, 35, 90
2, 41508, Note_off_c, 1, 35, 64
2, 41634, Note_on_c, 1, 35, 78
2, 41720, Note_off_c, 1, 35, 64
2, 41756, Note_on_c, 1, 38, 94
2, 41857, Note_off_c, 1, 38, 64
2, 41987, Note_on_c, 1, 33, 90
2, 42087, Note_off_c, 1, 33, 64
2, 42232, Note_on_c, 1, 40, 122
2, 42240, Note_off_c, 1, 40, 64
2, 42261, Note_on_c, 1, 40, 85
2, 42394, Note_off_c, 1, 40, 64
2, 42480, Note_on_c, 1, 35, 82
2, 42604, Note_off_c, 1, 35, 64
2, 42725, Note_on_c, 1, 38, 94
2, 42836, Note_off_c, 1, 38, 64
2, 42946, Note_on_c, 1, 33, 77
2, 43026, Note_off_c, 1, 33, 64
2, 43110, Note_on_c, 1, 40, 80
2, 43213, Note_off_c, 1, 40, 64
2, 43322, Note_on_c, 1, 35, 82
2, 43412, Note_off_c, 1, 35, 64
2, 43540, Note_on_c, 1, 35, 72
2, 43633, Note_off_c, 1, 35, 64
2, 43659, Note_on_c, 1, 38, 78
2, 43814, Note_off_c, 1, 38, 64
2, 43902, Note_on_c, 1, 33, 84
2, 44011, Note_off_c, 1, 33, 64
2, 44145, Note_on_c, 1, 40, 103
2, 44262, Note_off_c, 1, 40, 64
2, 44384, Note_on_c, 1, 35, 85
2, 44494, Note_off_c, 1, 35, 64
2, 44640, Note_on_c, 1, 38, 92
2, 44744, Note_off_c, 1, 38, 64
2, 44858, Note_on_c, 1, 33, 73
2, 44949, Note_off_c, 1, 33, 64
2, 45031, Note_on_c, 1, 40, 103
2, 45130, Note_off_c, 1, 40, 64
2, 45254, Note_on_c, 1, 35, 70
2, 45346, Note_off_c, 1, 35, 64
2, 45468, Note_on_c, 1, 35, 82
2, 45554, Note_off_c, 1, 35, 64
2, 45596, Note_on_c, 1, 38, 82
2, 45711, Note_off_c, 1, 38, 64
2, 45821, Note_on_c, 1, 33, 87
2, 45925, Note_off_c, 1, 33, 64
2, 46071, Note_on_c, 1, 40, 103
2, 46185, Note_off_c, 1, 40, 64
2, 46296, Note_on_c, 1, 35, 77
2, 46406, Note_off_c, 1, 35, 64
2, 46536, Note_on_c, 1, 38, 94
2, 46647, Note_off_c, 1, 38, 64
2, 46759, Note_on_c, 1, 33, 74
2, 46843, Note_off_c, 1, 33, 64
2, 46943, Note_on_c, 1, 40, 85
2, 47029, Note_off_c, 1, 40, 64
2, 47159, Note_on_c, 1, 35, 76
2, 47252, Note_off_c, 1, 35, 64
2, 47378, Note_on_c, 1, 35, 66
2, 47470, Note_off_c, 1, 35, 64
2, 47504, Note_on_c, 1, 38, 87
2, 47618, Note_off_c, 1, 38, 64
2, 47733, Note_on_c, 1, 33, 85
2, 47837, Note_off_c, 1, 33, 64
2, 48003, Note_on_c, 1, 40, 97
2, 48111, Note_off_c, 1, 40, 64
2, 48239, Note_on_c, 1, 35, 77
2, 48349, Note_off_c, 1, 35, 64
2, 48479, Note_on_c, 1, 38, 94
2, 48577, Note_off_c, 1, 38, 64
2, 48703, Note_on_c, 1, 33, 69
2, 48793, Note_off_c, 1, 33, 64
2, 48879, Note_on_c, 1, 40, 103
2, 48967, Note_off_c, 1, 40, 64
2, 49100, Note_on_c, 1, 35, 90
2, 49188, Note_off_c, 1, 35, 64
2, 49314, Note_on_c, 1, 35, 78
2, 49400, Note_off_c, 1, 35, 64
2, 49436, Note_on_c, 1, 38, 94
2, 49537, Note_off_c, 1, 38, 64
2, 49667, Note_on_c, 1, 33, 90
2, 49767, Note_off_c, 1, 33, 64
2, 49912, Note_on_c, 1, 40, 122
2, 49920, Note_off_c, 1, 40, 64
2, 49941, Note_on_c, 1, 40, 85
2, 50074, Note_off_c, 1, 40, 64
2, 50160, Note_on_c, 1, 35, 82
2, 50284, Note_off_c, 1, 35, 64
2, 50405, Note_on_c, 1, 38, 94
2, 50516, Note_off_c, 1, 38, 64
2, 50626, Note_on_c, 1, 33, 77
2, 50706, Note_off_c, 1, 33, 64
2, 50790, Note_on_c, 1, 40, 80
2, 50893, Note_off_c, 1, 40, 64
2, 51002, Note_on_c, 1, 35, 82
2, 51092, Note_off_c, 1, 35, 64
2, 51220, Note_on_c, 1, 35, 72
2, 51313, Note_off_c, 1, 35, 64
2, 51339, Note_on_c, 1, 38, 78
2, 51494, Note_off_c, 1, 38, 64
2, 51582, Note_on_c, 1, 33, 84
2, 51691, Note_off_c, 1, 33, 64
2, 51825, Note_on_c, 1, 40, 103
2, 51942, Note_off_c, 1, 40, 64
2, 52064, Note_on_c, 1, 35, 85
2, 52174, Note_off_c, 1, 35, 64
2, 52320, Note_on_c, 1, 38, 92
2, 52424, Note_off_c, 1, 38, 64
2, 52538, Note_on_c, 1, 33, 73
2, 52629, Note_off_c, 1, 33, 64
2, 52711, Note_on_c, 1, 40, 103
2, 52810, Note_off_c, 1, 40, 64
2, 52934, Note_on_c, 1, 35, 70
2, 53026, Note_off_c, 1, 35, 64
2, 53148, Note_on_c, 1, 35, 82
2, 53234, Note_off_c, 1, 35, 64
2, 53276, Note_on_c, 1, 38, 82
2, 53391, Note_off_c, 1, 38, 64
2, 53501, Note_on_c, 1, 33, 87
2, 53605, Note_off_c, 1, 33, 64
2, 53751, Note_on_c, 1, 40, 103
2, 53865, Note_off_c, 1, 40, 64
2, 53976, Note_on_c, 1, 35, 77
2, 54086, Note_off_c, 1, 35, 64
2, 54216, Note_on_c, 1, 38, 94
2, 54327, Note_off_c, 1, 38, 64
2, 54439, Note_on_c, 1, 33, 74
2, 54523, Note_off_c, 1, 33, 64
2, 54623, Note_on_c, 1, 40, 85
2, 54709, Note_off_c, 1, 40, 64
2, 54839, Note_on_c, 1, 35, 76
2, 54932, Note_off_c, 1, 35, 64
2, 55058, Note_on_c, 1, 35, 66
2, 55150, Note_off_c, 1, 35, 64
2, 55184, Note_on_c, 1, 38, 87
2, 55298, Note_off_c, 1, 38, 64
2, 55413, Note_on_c, 1, 33, 85
2, 55517, Note_off_c, 1, 33, 64
2, 55683, Note_on_c, 1, 40, 97
2, 55791, Note_off_c, 1, 40, 64
2, 55919, Note_on_c, 1, 35, 77
2, 56029, Note_off_c, 1, 35, 64
2, 56159, Note_on_c, 1, 38, 94
2, 56257, Note_off_c, 1, 38, 64
2, 56383, Note_on_c, 1, 33, 69
2, 56473, Note_off_c, 1, 33, 64
2, 56559, Note_on_c, 1, 40, 103
2, 56647, Note_off_c, 1, 40, 64
2, 56780, Note_on_c, 1, 35, 90
2, 56868, Note_off_c, 1, 35, 64
2, 56994, Note_on_c, 1, 35, 78
2, 57080, Note_off_c, 1, 35, 64
2, 57116, Note_on_c, 1, 38, 94
2, 57217, Note_off_c, 1, 38, 64
2, 57347, Note_on_c, 1, 33, 90
2, 57447, Note_off_c, 1, 33, 64
2, 57592, Note_on_c, 1, 40, 122
2, 57600, Note_off_c, 1, 40, 64
2, 57621, Note_on_c, 1, 40, 85
2, 57754, Note_off_c, 1, 40, 64
2, 57840, Note_on_c, 1, 35, 82
2, 57964, Note_off_c, 1, 35, 64
2, 58085, Note_on_c, 1, 38, 94
2, 58196, Note_off_c, 1, 38, 64
2, 58306, Note_on_c, 1, 33, 77
2, 58386, Note_off_c, 1, 33, 64
2, 58470, Note_on_c, 1, 40, 80
2, 58573, Note_off_c, 1, 40, 64
2, 58682, Note_on_c, 1, 35, 82
2, 58772, Note_off_c, 1, 35, 64
2, 58900, Note_on_c, 1, 35, 72
2, 58993, Note_off_c, 1, 35, 64
2, 59019, Note_on_c, 1, 38, 78
2, 59174, Note_off_c, 1, 38, 64
2, 59262, Note_on_c, 1, 33, 84
2, 59371, Note_off_c, 1, 33, 64
2, 59505, Note_on_c, 1, 40, 103
2, 59622, Note_off_c, 1, 40, 64
2, 59744, Note_on_c, 1, 35, 85
2, 59854, Note_off_c, 1, 35, 64
2, 60000, Note_on_c, 1, 38, 92
2, 60104, Note_off_c, 1, 38, 64
2, 60218, Note_on_c, 1, 33, 73
2, 60309, Note_off_c, 1, 33, 64
2, 60391, Note_on_c, 1, 40, 103
2, 60490, Note_off_c, 1, 40, 64
2, 60614, Note_on_c, 1, 35, 70
2, 60706, Note_off_c, 1, 35, 64
2, 60828, Note_on_c, 1, 35, 82
2, 60914, Note_off_c, 1, 35, 64
2, 60956, Note_on_c, 1, 38, 82
2, 61071, Note_off_c, 1, 38, 64
2, 61181, Note_on_c, 1, 33, 87
2, 61285, Note_off_c, 1, 33, 64
2, 61431, Note_on_c, 1, 40, 103
2, 61545, Note_off_c, 1, 40, 64
2, 61656, Note_on_c, 1, 35, 77
2, 61766, Note_off_c, 1, 35, 64
2, 61896, Note_on_c, 1, 38, 94
2, 62007, Note_off_c, 1, 38, 64
2, 62119, Note_on_c, 1, 33, 74
2, 62203, Note_off_c, 1, 33, 64
2, 62303, Note_on_c, 1, 40, 85
2, 62389, Note_off_c, 1, 40, 64
2, 62519, Note_on_c, 1, 35, 76
2, 62612, Note_off_c, 1, 35, 64
2, 62738, Note_on_c, 1, 35, 66
2, 62830, Note_off_c, 1, 35, 64
2, 62864, Note_on_c, 1, 38, 87
2, 62978, Note_off_c, 1, 38, 64
2, 63093, Note_on_c, 1, 33, 85
2, 63197, Note_off_c, 1, 33, 64
2, 63363, Note_on_c, 1, 40, 97
2, 63471, Note_off_c, 1, 40, 64
2, 63599, Note_on_c, 1, 35, 77
2, 63709, Note_off_c, 1, 35, 64
2, 63839, Note_on_c, 1, 38, 94
2, 63937, Note_off_c, 1, 38, 64
2, 64063, Note_on_c, 1, 33, 69
2, 64153, Note_off_c, 1, 33, 64
2, 64239, Note_on_c, 1, 40, 103
2, 64327, Note_off_c, 1, 40, 64
2, 64460, Note_on_c, 1, 35, 90
2, 64548, Note_off_c, 1, 35, 64
2, 64674, Note_on_c, 1, 35, 78
2, 64760, Note_off_c, 1, 35, 64
2, 64796, Note_on_c, 1, 38, 94
2, 64897, Note_off_c, 1, 38, 64
2, 65027, Note_on_c, 1, 33, 90
2, 65127, Note_off_c, 1, 33, 64
2, 65272, Note_on_c, 1, 40, 122
2, 65280, Note_off_c, 1, 40, 64
2, 65280, Note_on_c, 1, 40, 103
2, 65385, Note_off_c, 1, 40, 64
2, 65496, Note_on_c, 1, 35, 77
2, 65606, Note_off_c, 1, 35, 64
2, 65736, Note_on_c, 1, 38, 94
2, 65847, Note_off_c, 1, 38, 64
2, 65959, Note_on_c, 1, 33, 74
2, 66043, Note_off_c, 1, 33, 64
2, 66143, Note_on_c, 1, 40, 85
2, 66229, Note_off_c, 1, 40, 64
2, 66359, Note_on_c, 1, 35, 76
2, 66452, Note_off_c, 1, 35, 64
2, 66578, Note_on_c, 1, 35, 66
2, 66670, Note_off_c, 1, 35, 64
2, 66704, Note_on_c, 1, 38, 87
2, 66818, Note_off_c, 1, 38, 64
2, 66933, Note_on_c, 1, 33, 85
2, 67037, Note_off_c, 1, 33, 64
2, 67203, Note_on_c, 1, 40, 97
2, 67311, Note_off_c, 1, 40, 64
2, 67439, Note_on_c, 1, 35, 77
2, 67549, Note_off_c, 1, 35, 64
2, 67679, Note_on_c, 1, 38, 94
2, 67777, Note_off_c, 1, 38, 64
2, 67903, Note_on_c, 1, 33, 69
2, 67993, Note_off_c, 1, 33, 64
2, 68079, Note_on_c, 1, 40, 103
2, 68167, Note_off_c, 1, 40, 64
2, 68300, Note_on_c, 1, 35, 90
2, 68388, Note_off_c, 1, 35, 64
2, 68514, Note_on_c, 1, 35, 78
2, 68600, Note_off_c, 1, 35, 64
2, 68636, Note_on_c, 1, 38, 94
2, 68737, Note_off_c, 1, 38, 64
2, 68867, Note_on_c, 1, 33, 90
2, 68967, Note_off_c, 1, 33, 64
2, 69112, Note_on_c, 1, 40, 122
2, 69120, Note_off_c, 1, 40, 64
2, 69127, Note_on_c, 1, 38, 118
2, 69372, Note_off_c, 1, 38, 64
2, 69531, Note_on_c, 1, 38, 110
2, 69933, Note_off_c, 1, 38, 64
2, 70116, Note_on_c, 1, 38, 118
2, 70379, Note_off_c, 1, 38, 64
2, 70493, Note_on_c, 1, 38, 118
2, 70911, Note_off_c, 1, 38, 64
2, 71052, Note_on_c, 1, 40, 122
2, 71192, Note_off_c, 1, 40, 64
2, 71295, Note_on_c, 1, 35, 90
2, 71410, Note_off_c, 1, 35, 64
2, 71533, Note_on_c, 1, 38, 103
2, 71633, Note_off_c, 1, 38, 64
2, 71737, Note_on_c, 1, 33, 73
2, 71823, Note_off_c, 1, 33, 64
2, 71898, Note_on_c, 1, 40, 113
2, 71990, Note_off_c, 1, 40, 64
2, 72125, Note_on_c, 1, 35, 84
2, 72216, Note_off_c, 1, 35, 64
2, 72337, Note_on_c, 1, 35, 82
2, 72430, Note_off_c, 1, 35, 64
2, 72456, Note_on_c, 1, 38, 103
2, 72569, Note_off_c, 1, 38, 64
2, 72693, Note_on_c, 1, 33, 78
2, 72796, Note_off_c, 1, 33, 64
2, 72944, Note_on_c, 1, 40, 97
2, 73050, Note_off_c, 1, 40, 64
2, 73172, Note_on_c, 1, 35, 82
2, 73291, Note_off_c, 1, 35, 64
2, 73428, Note_on_c, 1, 38, 100
2, 73523, Note_off_c, 1, 38, 64
2, 73640, Note_on_c, 1, 33, 74
2, 73724, Note_off_c, 1, 33, 64
2, 73816, Note_on_c, 1, 40, 106
2, 73918, Note_off_c, 1, 40, 64
2, 74053, Note_on_c, 1, 35, 87
2, 74143, Note_off_c, 1, 35, 64
2, 74265, Note_on_c, 1, 35, 78
2, 74351, Note_off_c, 1, 35, 64
2, 74391, Note_on_c, 1, 38, 97
2, 74490, Note_off_c, 1, 38, 64
2, 74622, Note_on_c, 1, 33, 85
2, 74717, Note_off_c, 1, 33, 64
2, 74879, Note_on_c, 1, 40, 110
2, 74967, Note_off_c, 1, 40, 64
2, 75119, Note_on_c, 1, 35, 80
2, 75219, Note_off_c, 1, 35, 64
2, 75367, Note_on_c, 1, 38, 92
2, 75459, Note_off_c, 1, 38, 64
2, 75581, Note_on_c, 1, 33, 73
2, 75667, Note_off_c, 1, 33, 64
2, 75755, Note_on_c, 1, 40, 106
2, 75835, Note_off_c, 1, 40, 64
2, 75969, Note_on_c, 1, 35, 80
2, 76053, Note_off_c, 1, 35, 64
2, 76183, Note_on_c, 1, 35, 72
2, 76274, Note_off_c, 1, 35, 64
2, 76314, Note_on_c, 1, 38, 85
2, 76409, Note_off_c, 1, 38, 64
2, 76550, Note_on_c, 1, 33, 94
2, 76645, Note_off_c, 1, 33, 64
2, 76800, Note_on_c, 1, 40, 103
2, 76905, Note_off_c, 1, 40, 64
2, 77016, Note_on_c, 1, 35, 77
2, 77126, Note_off_c, 1, 35, 64
2, 77256, Note_on_c, 1, 38, 94
2, 77367, Note_off_c, 1, 38, 64
2, 77479, Note_on_c, 1, 33, 74
2, 77563, Note_off_c, 1, 33, 64
2, 77663, Note_on_c, 1, 40, 85
2, 77749, Note_off_c, 1, 40, 64
2, 77879, Note_on_c, 1, 35, 76
2, 77972, Note_off_c, 1, 35, 64
2, 78098, Note_on_c, 1, 35, 66
2, 78190, Note_off_c, 1, 35, 64
2, 78224, Note_on_c, 1, 38, 87
2, 78338, Note_off_c, 1, 38, 64
2, 78453, Note_on_c, 1, 33, 85
2, 78557, Note_off_c, 1, 33, 64
2, 78723, Note_on_c, 1, 40, 97
2, 78831, Note_off_c, 1, 40, 64
2, 78959, Note_on_c, 1, 35, 77
2, 79069, Note_off_c, 1, 35, 64
2, 79199, Note_on_c, 1, 38, 94
2, 79297, Note_off_c, 1, 38, 64
2, 79423, Note_on_c, 1, 33, 69
2, 79513, Note_off_c, 1, 33, 64
2, 79599, Note_on_c, 1, 40, 103
2, 79687, Note_off_c, 1, 40, 64
2, 79820, Note_on_c, 1, 35, 90
2, 79908, Note_off_c, 1, 35, 64
2, 80034, Note_on_c, 1, 35, 78
2, 80120, Note_off_c, 1, 35, 64
2, 80156, Note_on_c, 1, 38, 94
2, 80257, Note_off_c, 1, 38, 64
2, 80387, Note_on_c, 1, 33, 90
2, 80487, Note_off_c, 1, 33, 64
2, 80632, Note_on_c, 1, 40, 122
2, 80640, Note_off_c, 1, 40, 64
2, 80640, Note_on_c, 1, 40, 103
2, 80745, Note_off_c, 1, 40, 64
2, 80856, Note_on_c, 1, 35, 77
2, 80966, Note_off_c, 1, 35, 64
2, 81096, Note_on_c, 1, 38, 94
2, 81207, Note_off_c, 1, 38, 64
2, 81319, Note_on_c, 1, 33, 74
2, 81403, Note_off_c, 1, 33, 64
2, 81503, Note_on_c, 1, 40, 85
2, 81589, Note_off_c, 1, 40, 64
2, 81719, Note_on_c, 1, 35, 76
2, 81812, Note_off_c, 1, 35, 64
2, 81938, Note_on_c, 1, 35, 66
2, 82030, Note_off_c, 1, 35, 64
2, 82064, Note_on_c, 1, 38, 87
2, 82178, Note_off_c, 1, 38, 64
2, 82293, Note_on_c, 1, 33, 85
2, 82397, Note_off_c, 1, 33, 64
2, 82563, Note_on_c, 1, 40, 97
2, 82671, Note_off_c, 1, 40, 64
2, 82799, Note_on_c, 1, 35, 77
2, 82909, Note_off_c, 1, 35, 64
2, 83039, Note_on_c, 1, 38, 94
2, 83137, Note_off_c, 1, 38, 64
2, 83263, Note_on_c, 1, 33, 69
2, 83353, Note_off_c, 1, 33, 64
2, 83439, Note_on_c, 1, 40, 103
2, 83527, Note_off_c, 1, 40, 64
2, 83660, Note_on_c, 1, 35, 90
2, 83748, Note_off_c, 1, 35, 64
2, 83874, Note_on_c, 1, 35, 78
2, 83960, Note_off_c, 1, 35, 64
2, 83996, Note_on_c, 1, 38, 94
2, 84097, Note_off_c, 1, 38, 64
2, 84227, Note_on_c, 1, 33, 90
2, 84327, Note_off_c, 1, 33, 64
2, 84472, Note_on_c, 1, 40, 122
2, 84480, Note_off_c, 1, 40, 64
2, 84480, Note_on_c, 1, 40, 103
2, 84585, Note_off_c, 1, 40, 64
2, 84696, Note_on_c, 1, 35, 77
2, 84806, Note_off_c, 1, 35, 64
2, 84936, Note_on_c, 1, 38, 94
2, 85047, Note_off_c, 1, 38, 64
2, 85159, Note_on_c, 1, 33, 74
2, 85243, Note_off_c, 1, 33, 64
2, 85343, Note_on_c, 1, 40, 85
2, 85429, Note_off_c, 1, 40, 64
2, 85559, Note_on_c, 1, 35, 76
2, 85652, Note_off_c, 1, 35, 64
2, 85778, Note_on_c, 1, 35, 66
2, 85870, Note_off_c, 1, 35, 64
2, 85904, Note_on_c, 1, 38, 87
2, 86018, Note_off_c, 1, 38, 64
2, 86133, Note_on_c, 1, 33, 85
2, 86237, Note_off_c, 1, 33, 64
2, 86403, Note_on_c, 1, 40, 97
2, 86511, Note_off_c, 1, 40, 64
2, 86639, Note_on_c, 1, 35, 77
2, 86749, Note_off_c, 1, 35, 64
2, 86879, Note_on_c, 1, 38, 94
2, 86977, Note_off_c, 1, 38, 64
2, 87103, Note_on_c, 1, 33, 69
2, 87193, Note_off_c, 1, 33, 64
2, 87279, Note_on_c, 1, 40, 103
2, 87367, Note_off_c, 1, 40, 64
2, 87500, Note_on_c, 1, 35, 90
2, 87588, Note_off_c, 1, 35, 64
2, 87714, Note_on_c, 1, 35, 78
2, 87800, Note_off_c, 1, 35, 64
2, 87836, Note_on_c, 1, 38, 94
2, 87937, Note_off_c, 1, 38, 64
2, 88067, Note_on_c, 1, 33, 90
2, 88167, Note_off_c, 1, 33, 64
2, 88312, Note_on_c, 1, 40, 122
2, 88320, Note_off_c, 1, 40, 64
2, 88327, Note_on_c, 1, 38, 118
2, 88572, Note_off_c, 1, 38, 64
2, 88731, Note_on_c, 1, 38, 110
2, 89133, Note_off_c, 1, 38, 64
2, 89316, Note_on_c, 1, 38, 118
2, 89579, Note_off_c, 1, 38, 64
2, 89693, Note_on_c, 1, 38, 118
2, 90111, Note_off_c, 1, 38, 64
2, 90243, Note_on_c, 1, 40, 97
2, 90351, Note_off_c, 1, 40, 64
2, 90479, Note_on_c, 1, 35, 77
2, 90589, Note_off_c, 1, 35, 64
2, 90719, Note_on_c, 1, 38, 94
2, 90817, Note_off_c, 1, 38, 64
2, 90943, Note_on_c, 1, 33, 69
2, 91033, Note_off_c, 1, 33, 64
2, 91119, Note_on_c, 1, 40, 103
2, 91207, Note_off_c, 1, 40, 64
2, 91340, Note_on_c, 1, 35, 90
2, 91428, Note_off_c, 1, 35, 64
2, 91554, Note_on_c, 1, 35, 78
2, 91640, Note_off_c, 1, 35, 64
2, 91676, Note_on_c, 1, 38, 94
2, 91777, Note_off_c, 1, 38, 64
2, 91907, Note_on_c, 1, 33, 90
2, 92007, Note_off_c, 1, 33, 64
2, 92152, Note_on_c, 1, 40, 122
2, 92160, Note_off_c, 1, 40, 64
2, 92163, Note_on_c, 1, 40, 97
2, 92271, Note_off_c, 1, 40, 64
2, 92399, Note_on_c, 1, 35, 77
2, 92509, Note_off_c, 1, 35, 64
2, 92639, Note_on_c, 1, 38, 94
2, 92737, Note_off_c, 1, 38, 64
2, 92863, Note_on_c, 1, 33, 69
2, 92953, Note_off_c, 1, 33, 64
2, 93039, Note_on_c, 1, 40, 103
2, 93127, Note_off_c, 1, 40, 64
2, 93260, Note_on_c, 1, 35, 90
2, 93348, Note_off_c, 1, 35, 64
2, 93474, Note_on_c, 1, 35, 78
2, 93560, Note_off_c, 1, 35, 64
2, 93596, Note_on_c, 1, 38, 94
2, 93697, Note_off_c, 1, 38, 64
2, 93827, Note_on_c, 1, 33, 90
2, 93927, Note_off_c, 1, 33, 64
2, 94072, Note_on_c, 1, 40, 122
2, 94080, Note_off_c, 1, 40, 64
2, 94083, Note_on_c, 1, 40, 97
2, 94191, Note_off_c, 1, 40, 64
2, 94319, Note_on_c, 1, 35, 77
2, 94429, Note_off_c, 1, 35, 64
2, 94559, Note_on_c, 1, 38, 94
2, 94657, Note_off_c, 1, 38, 64
2, 94783, Note_on_c, 1, 33, 69
2, 94873, Note_off_c, 1, 33, 64
2, 94959, Note_on_c, 1, 40, 103
2, 95047, Note_off_c, 1, 40, 64
2, 95180, Note_on_c, 1, 35, 90
2, 95268, Note_off_c, 1, 35, 64
2, 95394, Note_on_c, 1, 35, 78
2, 95480, Note_off_c, 1, 35, 64
2, 95516, Note_on_c, 1, 38, 94
2, 95617, Note_off_c, 1, 38, 64
2, 95747, Note_on_c, 1, 33, 90
2, 95847, Note_off_c, 1, 33, 64
2, 95992, Note_on_c, 1, 40, 122
2, 96000, Note_off_c, 1, 40, 64
2, 96003, Note_on_c, 1, 40, 97
2, 96111, Note_off_c, 1, 40, 64
2, 96239, Note_on_c, 1, 35, 77
2, 96349, Note_off_c, 1, 35, 64
2, 96479, Note_on_c, 1, 38, 94
2, 96577, Note_off_c, 1, 38, 64
2, 96703, Note_on_c, 1, 33, 69
2, 96793, Note_off_c, 1, 33, 64
2, 96879, Note_on_c, 1, 40, 103
2, 96967, Note_off_c, 1, 40, 64
2, 97100, Note_on_c, 1, 35, 90
2, 97188, Note_off_c, 1, 35, 64
2, 97314, Note_on_c, 1, 35, 78
2, 97400, Note_off_c, 1, 35, 64
2, 97436, Note_on_c, 1, 38, 94
2, 97537, Note_off_c, 1, 38, 64
2, 97667, Note_on_c, 1, 33, 90
2, 97767, Note_off_c, 1, 33, 64
2, 97912, Note_on_c, 1, 40, 122
2, 97920, Note_off_c, 1, 40, 64
2, 97923, Note_on_c, 1, 40, 97
2, 98031, Note_off_c, 1, 40, 64
2, 98159, Note_on_c, 1, 35, 77
2, 98269, Note_off_c, 1, 35, 64
2, 98399, Note_on_c, 1, 38, 94
2, 98497, Note_off_c, 1, 38, 64
2, 98623, Note_on_c, 1, 33, 69
2, 98713, Note_off_c, 1, 33, 64
2, 98799, Note_on_c, 1, 40, 103
2, 98887, Note_off_c, 1, 40, 64
2, 99020, Note_on_c, 1, 35, 90
2, 99108, Note_off_c, 1, 35, 64
2, 99234, Note_on_c, 1, 35, 78
2, 99320, Note_off_c, 1, 35, 64
2, 99356, Note_on_c, 1, 38, 94
2, 99457, Note_off_c, 1, 38, 64
2, 99587, Note_on_c, 1, 33, 90
2, 99687, Note_off_c, 1, 33, 64
2, 99832, Note_on_c, 1, 40, 122
2, 99840, Note_off_c, 1, 40, 64
2, 99843, Note_on_c, 1, 40, 97
2, 99951, Note_off_c, 1, 40, 64
2, 100079, Note_on_c, 1, 35, 77
2, 100189, Note_off_c, 1, 35, 64
2, 100319, Note_on_c, 1, 38, 94
2, 100417, Note_off_c, 1, 38, 64
2, 100543, Note_on_c, 1, 33, 69
2, 100633, Note_off_c, 1, 33, 64
2, 100719, Note_on_c, 1, 40, 103
2, 100807, Note_off_c, 1, 40, 64
2, 100940, Note_on_c, 1, 35, 90
2, 101028, Note_off_c, 1, 35, 64
2, 101154, Note_on_c, 1, 35, 78
2, 101240, Note_off_c, 1, 35, 64
2, 101276, Note_on_c, 1, 38, 94
2, 101377, Note_off_c, 1, 38, 64
2, 101507, Note_on_c, 1, 33, 90
2, 101607, Note_off_c, 1, 33, 64
2, 101752, Note_on_c, 1, 40, 122
2, 101760, Note_off_c, 1, 40, 64
2, 101760, End_track
3, 0, Start_track
3, 0, Title_t, "guitarra"
3, 0, Program_c, 2, 30
3, 0, Control_c, 2, 7, 80
3, 4076, Note_on_c, 2, 52, 97
3, 4176, Note_off_c, 2, 52, 64
3, 4328, Note_on_c, 2, 50, 106
3, 4419, Note_off_c, 2, 50, 64
3, 4706, Note_on_c, 2, 52, 100
3, 4807, Note_off_c, 2, 52, 64
3, 4904, Note_on_c, 2, 47, 80
3, 5004, Note_off_c, 2, 47, 64
3, 5125, Note_on_c, 2, 47, 63
3, 5238, Note_off_c, 2, 47, 64
3, 5247, Note_on_c, 2, 50, 97
3, 5326, Note_off_c, 2, 50, 64
3, 5476, Note_on_c, 2, 64, 100
3, 5565, Note_off_c, 2, 64, 64
3, 6002, Note_on_c, 2, 52, 106
3, 6092, Note_off_c, 2, 52, 64
3, 6256, Note_on_c, 2, 50, 85
3, 6335, Note_off_c, 2, 50, 64
3, 6629, Note_on_c, 2, 52, 92
3, 6719, Note_off_c, 2, 52, 64
3, 6823, Note_on_c, 2, 47, 73
3, 6916, Note_off_c, 2, 47, 64
3, 7044, Note_on_c, 2, 47, 63
3, 7143, Note_off_c, 2, 47, 64
3, 7165, Note_on_c, 2, 50, 76
3, 7240, Note_off_c, 2, 50, 64
3, 7395, Note_on_c, 2, 64, 85
3, 7472, Note_off_c, 2, 64, 64
3, 7932, Note_on_c, 2, 52, 84
3, 8002, Note_off_c, 2, 52, 64
3, 8168, Note_on_c, 2, 50, 90
3, 8252, Note_off_c, 2, 50, 64
3, 8592, Note_on_c, 2, 52, 94
3, 8669, Note_off_c, 2, 52, 64
3, 8793, Note_on_c, 2, 47, 65
3, 8879, Note_off_c, 2, 47, 64
3, 8994, Note_on_c, 2, 47, 62
3, 9108, Note_on_c, 2, 50, 77
3, 9111, Note_off_c, 2, 47, 64
3, 9179, Note_off_c, 2, 50, 64
3, 9325, Note_on_c, 2, 64, 85
3, 9422, Note_off_c, 2, 64, 64
3, 9857, Note_on_c, 2, 52, 84
3, 9930, Note_off_c, 2, 52, 64
3, 10093, Note_on_c, 2, 50, 82
3, 10168, Note_off_c, 2, 50, 64
3, 10500, Note_on_c, 2, 52, 94
3, 10577, Note_off_c, 2, 52, 64
3, 10697, Note_on_c, 2, 47, 80
3, 10780, Note_off_c, 2, 47, 64
3, 10897, Note_on_c, 2, 47, 64
3, 10990, Note_off_c, 2, 47, 64
3, 11010, Note_on_c, 2, 50, 69
3, 11082, Note_off_c, 2, 50, 64
3, 11244, Note_on_c, 2, 64, 76
3, 11332, Note_off_c, 2, 64, 64
3, 11539, Note_on_c, 2, 50, 78
3, 11621, Note_off_c, 2, 50, 64
3, 11910, Note_on_c, 2, 50, 94
3, 12171, Note_off_c, 2, 50, 64
3, 12524, Note_on_c, 2, 50, 103
3, 12663, Note_off_c, 2, 50, 64
3, 12911, Note_on_c, 2, 50, 97
3, 13169, Note_off_c, 2, 50, 64
3, 19449, Note_on_c, 2, 52, 92
3, 19524, Note_off_c, 2, 52, 64
3, 19694, Note_on_c, 2, 50, 90
3, 19775, Note_off_c, 2, 50, 64
3, 20100, Note_on_c, 2, 52, 100
3, 20179, Note_off_c, 2, 52, 64
3, 20290, Note_on_c, 2, 47, 78
3, 20385, Note_off_c, 2, 47, 64
3, 20505, Note_on_c, 2, 47, 67
3, 20606, Note_off_c, 2, 47, 64
3, 20640, Note_on_c, 2, 50, 84
3, 20718, Note_off_c, 2, 50, 64
3, 20886, Note_on_c, 2, 64, 68
3, 20899, Note_on_c, 2, 62, 57
3, 20939, Note_off_c, 2, 62, 64
3, 20948, Note_off_c, 2, 64, 64
3, 21369, Note_on_c, 2, 52, 92
3, 21444, Note_off_c, 2, 52, 64
3, 21614, Note_on_c, 2, 50, 90
3, 21695, Note_off_c, 2, 50, 64
3, 22020, Note_on_c, 2, 52, 100
3, 22099, Note_off_c, 2, 52, 64
3, 22210, Note_on_c, 2, 47, 78
3, 22305, Note_off_c, 2, 47, 64
3, 22425, Note_on_c, 2, 47, 67
3, 22526, Note_off_c, 2, 47, 64
3, 22560, Note_on_c, 2, 50, 84
3, 22638, Note_off_c, 2, 50, 64
3, 22806, Note_on_c, 2, 64, 68
3, 22819, Note_on_c, 2, 62, 57
3, 22859, Note_off_c, 2, 62, 64
3, 22868, Note_off_c, 2, 64, 64
3, 23292, Note_on_c, 2, 52, 84
3, 23362, Note_off_c, 2, 52, 64
3, 23528, Note_on_c, 2, 50, 90
3, 23612, Note_off_c, 2, 50, 64
3, 23952, Note_on_c, 2, 52, 94
3, 24029, Note_off_c, 2, 52, 64
3, 24153, Note_on_c, 2, 47, 65
3, 24239, Note_off_c, 2, 47, 64
3, 24354, Note_on_c, 2, 47, 62
3, 24468, Note_on_c, 2, 50, 77
3, 24471, Note_off_c, 2, 47, 64
3, 24539, Note_off_c, 2, 50, 64
3, 24685, Note_on_c, 2, 64, 85
3, 24782, Note_off_c, 2, 64, 64
3, 25217, Note_on_c, 2, 52, 84
3, 25290, Note_off_c, 2, 52, 64
3, 25453, Note_on_c, 2, 50, 82
3, 25528, Note_off_c, 2, 50, 64
3, 25860, Note_on_c, 2, 52, 94
3, 25937, Note_off_c, 2, 52, 64
3, 26057, Note_on_c, 2, 47, 80
3, 26140, Note_off_c, 2, 47, 64
3, 26257, Note_on_c, 2, 47, 64
3, 26350, Note_off_c, 2, 47, 64
3, 26370, Note_on_c, 2, 50, 69
3, 26442, Note_off_c, 2, 50, 64
3, 26604, Note_on_c, 2, 64, 76
3, 26692, Note_off_c, 2, 64, 64
3, 26899, Note_on_c, 2, 50, 78
3, 26981, Note_off_c, 2, 50, 64
3, 27270, Note_on_c, 2, 50, 94
3, 27531, Note_off_c, 2, 50, 64
3, 27884, Note_on_c, 2, 50, 103
3, 28023, Note_off_c, 2, 50, 64
3, 28271, Note_on_c, 2, 50, 97
3, 28529, Note_off_c, 2, 50, 64
3, 34796, Note_on_c, 2, 52, 97
3, 34896, Note_off_c, 2, 52, 64
3, 35048, Note_on_c, 2, 50, 106
3, 35139, Note_off_c, 2, 50, 64
3, 35426, Note_on_c, 2, 52, 100
3, 35527, Note_off_c, 2, 52, 64
3, 35624, Note_on_c, 2, 47, 80
3, 35724, Note_off_c, 2, 47, 64
3, 35845, Note_on_c, 2, 47, 63
3, 35958, Note_off_c, 2, 47, 64
3, 35967, Note_on_c, 2, 50, 97
3, 36046, Note_off_c, 2, 50, 64
3, 36196, Note_on_c, 2, 64, 100
3, 36285, Note_off_c, 2, 64, 64
3, 36722, Note_on_c, 2, 52, 106
3, 36812, Note_off_c, 2, 52, 64
3, 36976, Note_on_c, 2, 50, 85
3, 37055, Note_off_c, 2, 50, 64
3, 37349, Note_on_c, 2, 52, 92
3, 37439, Note_off_c, 2, 52, 64
3, 37543, Note_on_c, 2, 47, 73
3, 37636, Note_off_c, 2, 47, 64
3, 37764, Note_on_c, 2, 47, 63
3, 37863, Note_off_c, 2, 47, 64
3, 37885, Note_on_c, 2, 50, 76
3, 37960, Note_off_c, 2, 50, 64
3, 38115, Note_on_c, 2, 64, 85
3, 38192, Note_off_c, 2, 64, 64
3, 38652, Note_on_c, 2, 52, 84
3, 38722, Note_off_c, 2, 52, 64
3, 38888, Note_on_c, 2, 50, 90
3, 38972, Note_off_c, 2, 50, 64
3, 39312, Note_on_c, 2, 52, 94
3, 39389, Note_off_c, 2, 52, 64
3, 39513, Note_on_c, 2, 47, 65
3, 39599, Note_off_c, 2, 47, 64
3, 39714, Note_on_c, 2, 47, 62
3, 39828, Note_on_c, 2, 50, 77
3, 39831, Note_off_c, 2, 47, 64
3, 39899, Note_off_c, 2, 50, 64
3, 40045, Note_on_c, 2, 64, 85
3, 40142, Note_off_c, 2, 64, 64
3, 40577, Note_on_c, 2, 52, 84
3, 40650, Note_off_c, 2, 52, 64
3, 40813, Note_on_c, 2, 50, 82
3, 40888, Note_off_c, 2, 50, 64
3, 41220, Note_on_c, 2, 52, 94
3, 41297, Note_off_c, 2, 52, 64
3, 41417, Note_on_c, 2, 47, 80
3, 41500, Note_off_c, 2, 47, 64
3, 41617, Note_on_c, 2, 47, 64
3, 41710, Note_off_c, 2, 47, 64
3, 41730, Note_on_c, 2, 50, 69
3, 41802, Note_off_c, 2, 50, 64
3, 41964, Note_on_c, 2, 64, 76
3, 42052, Note_off_c, 2, 64, 64
3, 42476, Note_on_c, 2, 52, 97
3, 42576, Note_off_c, 2, 52, 64
3, 42728, Note_on_c, 2, 50, 106
3, 42819, Note_off_c, 2, 50, 64
3, 43106, Note_on_c, 2, 52, 100
3, 43207, Note_off_c, 2, 52, 64
3, 43304, Note_on_c, 2, 47, 80
3, 43404, Note_off_c, 2, 47, 64
3, 43525, Note_on_c, 2, 47, 63
3, 43638, Note_off_c, 2, 47, 64
3, 43647, Note_on_c, 2, 50, 97
3, 43726, Note_off_c, 2, 50, 64
3, 43876, Note_on_c, 2, 64, 100
3, 43965, Note_off_c, 2, 64, 64
3, 44402, Note_on_c, 2, 52, 106
3, 44492, Note_off_c, 2, 52, 64
3, 44656, Note_on_c, 2, 50, 85
3, 44735, Note_off_c, 2, 50, 64
3, 45029, Note_on_c, 2, 52, 92
3, 45119, Note_off_c, 2, 52, 64
3, 45223, Note_on_c, 2, 47, 73
3, 45316, Note_off_c, 2, 47, 64
3, 45444, Note_on_c, 2, 47, 63
3, 45543, Note_off_c, 2, 47, 64
3, 45565, Note_on_c, 2, 50, 76
3, 45640, Note_off_c, 2, 50, 64
3, 45795, Note_on_c, 2, 64, 85
3, 45872, Note_off_c, 2, 64, 64
3, 46332, Note_on_c, 2, 52, 84
3, 46402, Note_off_c, 2, 52, 64
3, 46568, Note_on_c, 2, 50, 90
3, 46652, Note_off_c, 2, 50, 64
3, 46992, Note_on_c, 2, 52, 94
3, 47069, Note_off_c, 2, 52, 64
3, 47193, Note_on_c, 2, 47, 65
3, 47279, Note_off_c, 2, 47, 64
3, 47394, Note_on_c, 2, 47, 62
3, 47508, Note_on_c, 2, 50, 77
3, 47511, Note_off_c, 2, 47, 64
3, 47579, Note_off_c, 2, 50, 64
3, 47725, Note_on_c, 2, 64, 85
3, 47822, Note_off_c, 2, 64, 64
3, 48257, Note_on_c, 2, 52, 84
3, 48330, Note_off_c, 2, 52, 64
3, 48493, Note_on_c, 2, 50, 82
3, 48568, Note_off_c, 2, 50, 64
3, 48900, Note_on_c, 2, 52, 94
3, 48977, Note_off_c, 2, 52, 64
3, 49097, Note_on_c, 2, 47, 80
3, 49180, Note_off_c, 2, 47, 64
3, 49297, Note_on_c, 2, 47, 64
3, 49390, Note_off_c, 2, 47, 64
3, 49410, Note_on_c, 2, 50, 69
3, 49482, Note_off_c, 2, 50, 64
3, 49644, Note_on_c, 2, 64, 76
3, 49732, Note_off_c, 2, 64, 64
3, 50156, Note_on_c, 2, 52, 97
3, 50256, Note_off_c, 2, 52, 64
3, 50408, Note_on_c, 2, 50, 106
3, 50499, Note_off_c, 2, 50, 64
3, 50786, Note_on_c, 2, 52, 100
3, 50887, Note_off_c, 2, 52, 64
3, 50984, Note_on_c, 2, 47, 80
3, 51084, Note_off_c, 2, 47, 64
3, 51205, Note_on_c, 2, 47, 63
3, 51318, Note_off_c, 2, 47, 64
3, 51327, Note_on_c, 2, 50, 97
3, 51406, Note_off_c, 2, 50, 64
3, 51556, Note_on_c, 2, 64, 100
3, 51645, Note_off_c, 2, 64, 64
3, 52082, Note_on_c, 2, 52, 106
3, 52172, Note_off_c, 2, 52, 64
3, 52336, Note_on_c, 2, 50, 85
3, 52415, Note_off_c, 2, 50, 64
3, 52709, Note_on_c, 2, 52, 92
3, 52799, Note_off_c, 2, 52, 64
3, 52903, Note_on_c, 2, 47, 73
3, 52996, Note_off_c, 2, 47, 64
3, 53124, Note_on_c, 2, 47, 63
3, 53223, Note_off_c, 2, 47, 64
3, 53245, Note_on_c, 2, 50, 76
3, 53320, Note_off_c, 2, 50, 64
3, 53475, Note_on_c, 2, 64, 85
3, 53552, Note_off_c, 2, 64, 64
3, 54012, Note_on_c, 2, 52, 84
3, 54082, Note_off_c, 2, 52, 64
3, 54248, Note_on_c, 2, 50, 90
3, 54332, Note_off_c, 2, 50, 64
3, 54672, Note_on_c, 2, 52, 94
3, 54749, Note_off_c, 2, 52, 64
3, 54873, Note_on_c, 2, 47, 65
3, 54959, Note_off_c, 2, 47, 64
3, 55074, Note_on_c, 2, 47, 62
3, 55188, Note_on_c, 2, 50, 77
3, 55191, Note_off_c, 2, 47, 64
3, 55259, Note_off_c, 2, 50, 64
3, 55405, Note_on_c, 2, 64, 85
3, 55502, Note_off_c, 2, 64, 64
3, 55937, Note_on_c, 2, 52, 84
3, 56010, Note_off_c, 2, 52, 64
3, 56173, Note_on_c, 2, 50, 82
3, 56248, Note_off_c, 2, 50, 64
3, 56580, Note_on_c, 2, 52, 94
3, 56657, Note_off_c, 2, 52, 64
3, 56777, Note_on_c, 2, 47, 80
3, 56860, Note_off_c, 2, 47, 64
3, 56977, Note_on_c, 2, 47, 64
3, 57070, Note_off_c, 2, 47, 64
3, 57090, Note_on_c, 2, 50, 69
3, 57162, Note_off_c, 2, 50, 64
3, 57324, Note_on_c, 2, 64, 76
3, 57412, Note_off_c, 2, 64, 64
3, 57836, Note_on_c, 2, 52, 97
3, 57936, Note_off_c, 2, 52, 64
3, 58088, Note_on_c, 2, 50, 106
3, 58179, Note_off_c, 2, 50, 64
3, 58466, Note_on_c, 2, 52, 100
3, 58567, Note_off_c, 2, 52, 64
3, 58664, Note_on_c, 2, 47, 80
3, 58764, Note_off_c, 2, 47, 64
3, 58885, Note_on_c, 2, 47, 63
3, 58998, Note_off_c, 2, 47, 64
3, 59007, Note_on_c, 2, 50, 97
3, 59086, Note_off_c, 2, 50, 64
3, 59236, Note_on_c, 2, 64, 100
3, 59325, Note_off_c, 2, 64, 64
3, 59762, Note_on_c, 2, 52, 106
3, 59852, Note_off_c, 2, 52, 64
3, 60016, Note_on_c, 2, 50, 85
3, 60095, Note_off_c, 2, 50, 64
3, 60389, Note_on_c, 2, 52, 92
3, 60479, Note_off_c, 2, 52, 64
3, 60583, Note_on_c, 2, 47, 73
3, 60676, Note_off_c, 2, 47, 64
3, 60804, Note_on_c, 2, 47, 63
3, 60903, Note_off_c, 2, 47, 64
3, 60925, Note_on_c, 2, 50, 76
3, 61000, Note_off_c, 2, 50, 64
3, 61155, Note_on_c, 2, 64, 85
3, 61232, Note_off_c, 2, 64, 64
3, 61692, Note_on_c, 2, 52, 84
3, 61762, Note_off_c, 2, 52, 64
3, 61928, Note_on_c, 2, 50, 90
3, 62012, Note_off_c, 2, 50, 64
3, 62352, Note_on_c, 2, 52, 94
3, 62429, Note_off_c, 2, 52, 64
3, 62553, Note_on_c, 2, 47, 65
3, 62639, Note_off_c, 2, 47, 64
3, 62754, Note_on_c, 2, 47, 62
3, 62868, Note_on_c, 2, 50, 77
3, 62871, Note_off_c, 2, 47, 64
3, 62939, Note_off_c, 2, 50, 64
3, 63085, Note_on_c, 2, 64, 85
3, 63182, Note_off_c, 2, 64, 64
3, 63617, Note_on_c, 2, 52, 84
3, 63690, Note_off_c, 2, 52, 64
3, 63853, Note_on_c, 2, 50, 82
3, 63928, Note_off_c, 2, 50, 64
3, 64260, Note_on_c, 2, 52, 94
3, 64337, Note_off_c, 2, 52, 64
3, 64457, Note_on_c, 2, 47, 80
3, 64540, Note_off_c, 2, 47, 64
3, 64657, Note_on_c, 2, 47, 64
3, 64750, Note_off_c, 2, 47, 64
3, 64770, Note_on_c, 2, 50, 69
3, 64842, Note_off_c, 2, 50, 64
3, 65004, Note_on_c, 2, 64, 76
3, 65092, Note_off_c, 2, 64, 64
3, 65532, Note_on_c, 2, 52, 84
3, 65602, Note_off_c, 2, 52, 64
3, 65768, Note_on_c, 2, 50, 90
3, 65852, Note_off_c, 2, 50, 64
3, 66192, Note_on_c, 2, 52, 94
3, 66269, Note_off_c, 2, 52, 64
3, 66393, Note_on_c, 2, 47, 65
3, 66479, Note_off_c, 2, 47, 64
3, 66594, Note_on_c, 2, 47, 62
3, 66708, Note_on_c, 2, 50, 77
3, 66711, Note_off_c, 2, 47, 64
3, 66779, Note_off_c, 2, 50, 64
3, 66925, Note_on_c, 2, 64, 85
3, 67022, Note_off_c, 2, 64, 64
3, 67457, Note_on_c, 2, 52, 84
3, 67530, Note_off_c, 2, 52, 64
3, 67693, Note_on_c, 2, 50, 82
3, 67768, Note_off_c, 2, 50, 64
3, 68100, Note_on_c, 2, 52, 94
3, 68177, Note_off_c, 2, 52, 64
3, 68297, Note_on_c, 2, 47, 80
3, 68380, Note_off_c, 2, 47, 64
3, 68497, Note_on_c, 2, 47, 64
3, 68590, Note_off_c, 2, 47, 64
3, 68610, Note_on_c, 2, 50, 69
3, 68682, Note_off_c, 2, 50, 64
3, 68844, Note_on_c, 2, 64, 76
3, 68932, Note_off_c, 2, 64, 64
3, 69139, Note_on_c, 2, 50, 78
3, 69221, Note_off_c, 2, 50, 64
3, 69510, Note_on_c, 2, 50, 94
3, 69771, Note_off_c, 2, 50, 64
3, 70124, Note_on_c, 2, 50, 103
3, 70263, Note_off_c, 2, 50, 64
3, 70511, Note_on_c, 2, 50, 97
3, 70769, Note_off_c, 2, 50, 64
3, 88339, Note_on_c, 2, 50, 78
3, 88421, Note_off_c, 2, 50, 64
3, 88710, Note_on_c, 2, 50, 94
3, 88971, Note_off_c, 2, 50, 64
3, 89324, Note_on_c, 2, 50, 103
3, 89463, Note_off_c, 2, 50, 64
3, 89711, Note_on_c, 2, 50, 97
3, 89969, Note_off_c, 2, 50, 64
3, 89969, End_track
4, 0, Start_track
4, 0, Title_t, "distorcionador"
4, 0, Program_c, 3, 30
4, 0, Control_c, 3, 7, 76
4, 13459, Note_on_c, 3, 40, 65
4, 13544, Note_off_c, 3, 40, 64
4, 13564, Note_on_c, 3, 43, 68
4, 13650, Note_off_c, 3, 43, 64
4, 13672, Note_on_c, 3, 44, 113
4, 13731, Note_off_c, 3, 44, 64
4, 13787, Note_on_c, 3, 45, 80
4, 13858, Note_off_c, 3, 45, 64
4, 13903, Note_on_c, 3, 47, 82
4, 13969, Note_off_c, 3, 47, 64
4, 14050, Note_on_c, 3, 50, 59
4, 14106, Note_off_c, 3, 50, 64
4, 14145, Note_on_c, 3, 51, 103
4, 14204, Note_off_c, 3, 51, 64
4, 14263, Note_on_c, 3, 52, 92
4, 14318, Note_off_c, 3, 52, 64
4, 14382, Note_on_c, 3, 55, 94
4, 14464, Note_off_c, 3, 55, 64
4, 14512, Note_on_c, 3, 57, 118
4, 14587, Note_off_c, 3, 57, 64
4, 14614, Note_on_c, 3, 55, 84
4, 14685, Note_off_c, 3, 55, 64
4, 14756, Note_on_c, 3, 52, 85
4, 15008, Note_off_c, 3, 52, 64
4, 15016, Note_on_c, 3, 50, 76
4, 15117, Note_off_c, 3, 50, 64
4, 15120, Note_on_c, 3, 52, 84
4, 15191, Note_off_c, 3, 52, 64
4, 15358, Note_on_c, 3, 40, 92
4, 15435, Note_off_c, 3, 40, 64
4, 15475, Note_on_c, 3, 43, 84
4, 15531, Note_off_c, 3, 43, 64
4, 15588, Note_on_c, 3, 44, 100
4, 15637, Note_off_c, 3, 44, 64
4, 15706, Note_on_c, 3, 45, 82
4, 15769, Note_off_c, 3, 45, 64
4, 15827, Note_on_c, 3, 47, 85
4, 15880, Note_off_c, 3, 47, 64
4, 15950, Note_on_c, 3, 50, 94
4, 16005, Note_off_c, 3, 50, 64
4, 16059, Note_on_c, 3, 51, 90
4, 16120, Note_off_c, 3, 51, 64
4, 16186, Note_on_c, 3, 52, 82
4, 16243, Note_off_c, 3, 52, 64
4, 16304, Note_on_c, 3, 55, 97
4, 16373, Note_off_c, 3, 55, 64
4, 16423, Note_on_c, 3, 57, 94
4, 16486, Note_off_c, 3, 57, 64
4, 16529, Note_on_c, 3, 55, 94
4, 16594, Note_off_c, 3, 55, 64
4, 16673, Note_on_c, 3, 52, 92
4, 16883, Note_off_c, 3, 52, 64
4, 16914, Note_on_c, 3, 50, 84
4, 17017, Note_off_c, 3, 50, 64
4, 17027, Note_on_c, 3, 52, 85
4, 17174, Note_off_c, 3, 52, 64
4, 17280, Note_on_c, 3, 40, 92
4, 17355, Note_off_c, 3, 40, 64
4, 17395, Note_on_c, 3, 43, 84
4, 17451, Note_off_c, 3, 43, 64
4, 17508, Note_on_c, 3, 44, 100
4, 17557, Note_off_c, 3, 44, 64
4, 17626, Note_on_c, 3, 45, 82
4, 17689, Note_off_c, 3, 45, 64
4, 17747, Note_on_c, 3, 47, 85
4, 17800, Note_off_c, 3, 47, 64
4, 17870, Note_on_c, 3, 50, 94
4, 17925, Note_off_c, 3, 50, 64
4, 17979, Note_on_c, 3, 51, 90
4, 18040, Note_off_c, 3, 51, 64
4, 18106, Note_on_c, 3, 52, 82
4, 18163, Note_off_c, 3, 52, 64
4, 18224, Note_on_c, 3, 55, 97
4, 18293, Note_off_c, 3, 55, 64
4, 18343, Note_on_c, 3, 57, 94
4, 18406, Note_off_c, 3, 57, 64
4, 18449, Note_on_c, 3, 55, 94
4, 18514, Note_off_c, 3, 55, 64
4, 18593, Note_on_c, 3, 52, 92
4, 18803, Note_off_c, 3, 52, 64
4, 18834, Note_on_c, 3, 50, 84
4, 18937, Note_off_c, 3, 50, 64
4, 18947, Note_on_c, 3, 52, 85
4, 19094, Note_off_c, 3, 52, 64
4, 28819, Note_on_c, 3, 40, 65
4, 28904, Note_off_c, 3, 40, 64
4, 28924, Note_on_c, 3, 43, 68
4, 29010, Note_off_c, 3, 43, 64
4, 29032, Note_on_c, 3, 44, 113
4, 29091, Note_off_c, 3, 44, 64
4, 29147, Note_on_c, 3, 45, 80
4, 29218, Note_off_c, 3, 45, 64
4, 29263, Note_on_c, 3, 47, 82
4, 29329, Note_off_c, 3, 47, 64
4, 29410, Note_on_c, 3, 50, 59
4, 29466, Note_off_c, 3, 50, 64
4, 29505, Note_on_c, 3, 51, 103
4, 29564, Note_off_c, 3, 51, 64
4, 29623, Note_on_c, 3, 52, 92
4, 29678, Note_off_c, 3, 52, 64
4, 29742, Note_on_c, 3, 55, 94
4, 29824, Note_off_c, 3, 55, 64
4, 29872, Note_on_c, 3, 57, 118
4, 29947, Note_off_c, 3, 57, 64
4, 29974, Note_on_c, 3, 55, 84
4, 30045, Note_off_c, 3, 55, 64
4, 30116, Note_on_c, 3, 52, 85
4, 30368, Note_off_c, 3, 52, 64
4, 30376, Note_on_c, 3, 50, 76
4, 30477, Note_off_c, 3, 50, 64
4, 30480, Note_on_c, 3, 52, 84
4, 30551, Note_off_c, 3, 52, 64
4, 30718, Note_on_c, 3, 40, 92
4, 30795, Note_off_c, 3, 40, 64
4, 30835, Note_on_c, 3, 43, 84
4, 30891, Note_off_c, 3, 43, 64
4, 30948, Note_on_c, 3, 44, 100
4, 30997, Note_off_c, 3, 44, 64
4, 31066, Note_on_c, 3, 45, 82
4, 31129, Note_off_c, 3, 45, 64
4, 31187, Note_on_c, 3, 47, 85
4, 31240, Note_off_c, 3, 47, 64
4, 31310, Note_on_c, 3, 50, 94
4, 31365, Note_off_c, 3, 50, 64
4, 31419, Note_on_c, 3, 51, 90
4, 31480, Note_off_c, 3, 51, 64
4, 31546, Note_on_c, 3, 52, 82
4, 31603, Note_off_c, 3, 52, 64
4, 31664, Note_on_c, 3, 55, 97
4, 31733, Note_off_c, 3, 55, 64
4, 31783, Note_on_c, 3, 57, 94
4, 31846, Note_off_c, 3, 57, 64
4, 31889, Note_on_c, 3, 55, 94
4, 31954, Note_off_c, 3, 55, 64
4, 32033, Note_on_c, 3, 52, 92
4, 32243, Note_off_c, 3, 52, 64
4, 32274, Note_on_c, 3, 50, 84
4, 32377, Note_off_c, 3, 50, 64
4, 32387, Note_on_c, 3, 52, 85
4, 32534, Note_off_c, 3, 52, 64
4, 32640, Note_on_c, 3, 40, 92
4, 32715, Note_off_c, 3, 40, 64
4, 32755, Note_on_c, 3, 43, 84
4, 32811, Note_off_c, 3, 43, 64
4, 32868, Note_on_c, 3, 44, 100
4, 32917, Note_off_c, 3, 44, 64
4, 32986, Note_on_c, 3, 45, 82
4, 33049, Note_off_c, 3, 45, 64
4, 33107, Note_on_c, 3, 47, 85
4, 33160, Note_off_c, 3, 47, 64
4, 33230, Note_on_c, 3, 50, 94
4, 33285, Note_off_c, 3, 50, 64
4, 33339, Note_on_c, 3, 51, 90
4, 33400, Note_off_c, 3, 51, 64
4, 33466, Note_on_c, 3, 52, 82
4, 33523, Note_off_c, 3, 52, 64
4, 33584, Note_on_c, 3, 55, 97
4, 33653, Note_off_c, 3, 55, 64
4, 33703, Note_on_c, 3, 57, 94
4, 33766, Note_off_c, 3, 57, 64
4, 33809, Note_on_c, 3, 55, 94
4, 33874, Note_off_c, 3, 55, 64
4, 33953, Note_on_c, 3, 52, 92
4, 34163, Note_off_c, 3, 52, 64
4, 34194, Note_on_c, 3, 50, 84
4, 34297, Note_off_c, 3, 50, 64
4, 34307, Note_on_c, 3, 52, 85
4, 34454, Note_off_c, 3, 52, 64
4, 71059, Note_on_c, 3, 40, 65
4, 71144, Note_off_c, 3, 40, 64
4, 71164, Note_on_c, 3, 43, 68
4, 71250, Note_off_c, 3, 43, 64
4, 71272, Note_on_c, 3, 44, 113
4, 71331, Note_off_c, 3, 44, 64
4, 71387, Note_on_c, 3, 45, 80
4, 71458, Note_off_c, 3, 45, 64
4, 71503, Note_on_c, 3, 47, 82
4, 71569, Note_off_c, 3, 47, 64
4, 71650, Note_on_c, 3, 50, 59
4, 71706, Note_off_c, 3, 50, 64
4, 71745, Note_on_c, 3, 51, 103
4, 71804, Note_off_c, 3, 51, 64
4, 71863, Note_on_c, 3, 52, 92
4, 71918, Note_off_c, 3, 52, 64
4, 71982, Note_on_c, 3, 55, 94
4, 72064, Note_off_c, 3, 55, 64
4, 72112, Note_on_c, 3, 57, 118
4, 72187, Note_off_c, 3, 57, 64
4, 72214, Note_on_c, 3, 55, 84
4, 72285, Note_off_c, 3, 55, 64
4, 72356, Note_on_c, 3, 52, 85
4, 72608, Note_off_c, 3, 52, 64
4, 72616, Note_on_c, 3, 50, 76
4, 72717, Note_off_c, 3, 50, 64
4, 72720, Note_on_c, 3, 52, 84
4, 72791, Note_off_c, 3, 52, 64
4, 72958, Note_on_c, 3, 40, 92
4, 73035, Note_off_c, 3, 40, 64
4, 73075, Note_on_c, 3, 43, 84
4, 73131, Note_off_c, 3, 43, 64
4, 73188, Note_on_c, 3, 44, 100
4, 73237, Note_off_c, 3, 44, 64
4, 73306, Note_on_c, 3, 45, 82
4, 73369, Note_off_c, 3, 45, 64
4, 73427, Note_on_c, 3, 47, 85
4, 73480, Note_off_c, 3, 47, 64
4, 73550, Note_on_c, 3, 50, 94
4, 73605, Note_off_c, 3, 50, 64
4, 73659, Note_on_c, 3, 51, 90
4, 73720, Note_off_c, 3, 51, 64
4, 73786, Note_on_c, 3, 52, 82
4, 73843, Note_off_c, 3, 52, 64
4, 73904, Note_on_c, 3, 55, 97
4, 73973, Note_off_c, 3, 55, 64
4, 74023, Note_on_c, 3, 57, 94
4, 74086, Note_off_c, 3, 57, 64
4, 74129, Note_on_c, 3, 55, 94
4, 74194, Note_off_c, 3, 55, 64
4, 74273, Note_on_c, 3, 52, 92
4, 74483, Note_off_c, 3, 52, 64
4, 74514, Note_on_c, 3, 50, 84
4, 74617, Note_off_c, 3, 50, 64
4, 74627, Note_on_c, 3, 52, 85
4, 74774, Note_off_c, 3, 52, 64
4, 74880, Note_on_c, 3, 40, 92
4, 74955, Note_off_c, 3, 40, 64
4, 74995, Note_on_c, 3, 43, 84
4, 75051, Note_off_c, 3, 43, 64
4, 75108, Note_on_c, 3, 44, 100
4, 75157, Note_off_c, 3, 44, 64
4, 75226, Note_on_c, 3, 45, 82
4, 75289, Note_off_c, 3, 45, 64
4, 75347, Note_on_c, 3, 47, 85
4, 75400, Note_off_c, 3, 47, 64
4, 75470, Note_on_c, 3, 50, 94
4, 75525, Note_off_c, 3, 50, 64
4, 75579, Note_on_c, 3, 51, 90
4, 75640, Note_off_c, 3, 51, 64
4, 75706, Note_on_c, 3, 52, 82
4, 75763, Note_off_c, 3, 52, 64
4, 75824, Note_on_c, 3, 55, 97
4, 75893, Note_off_c, 3, 55, 64
4, 75943, Note_on_c, 3, 57, 94
4, 76006, Note_off_c, 3, 57, 64
4, 76049, Note_on_c, 3, 55, 94
4, 76114, Note_off_c, 3, 55, 64
4, 76193, Note_on_c, 3, 52, 92
4, 76403, Note_off_c, 3, 52, 64
4, 76434, Note_on_c, 3, 50, 84
4, 76537, Note_off_c, 3, 50, 64
4, 76547, Note_on_c, 3, 52, 85
4, 76694, Note_off_c, 3, 52, 64
4, 76800, Note_on_c, 3, 62, 53
4, 76800, Note_on_c, 3, 56, 46
4, 76807, Note_on_c, 3, 59, 61
4, 76933, Note_off_c, 3, 56, 64
4, 76935, Note_off_c, 3, 59, 64
4, 76944, Note_off_c, 3, 62, 64
4, 77043, Note_on_c, 3, 56, 50
4, 77046, Note_on_c, 3, 62, 56
4, 77050, Note_on_c, 3, 59, 62
4, 77182, Note_off_c, 3, 59, 64
4, 77187, Note_off_c, 3, 56, 64
4, 77191, Note_off_c, 3, 62, 64
4, 77299, Note_on_c, 3, 56, 57
4, 77302, Note_on_c, 3, 62, 68
4, 77306, Note_on_c, 3, 59, 53
4, 77593, Note_off_c, 3, 59, 64
4, 77598, Note_off_c, 3, 62, 64
4, 77600, Note_off_c, 3, 56, 64
4, 77670, Note_on_c, 3, 56, 62
4, 77670, Note_on_c, 3, 62, 60
4, 77670, Note_on_c, 3, 59, 60
4, 77832, Note_off_c, 3, 59, 64
4, 77834, Note_off_c, 3, 62, 64
4, 77837, Note_off_c, 3, 56, 64
4, 77911, Note_on_c, 3, 62, 59
4, 77913, Note_on_c, 3, 59, 60
4, 77913, Note_on_c, 3, 56, 62
4, 78061, Note_off_c, 3, 59, 64
4, 78066, Note_off_c, 3, 62, 64
4, 78068, Note_off_c, 3, 56, 64
4, 78143, Note_on_c, 3, 62, 47
4, 78147, Note_on_c, 3, 56, 47
4, 78150, Note_on_c, 3, 59, 53
4, 78236, Note_off_c, 3, 59, 64
4, 78264, Note_on_c, 3, 59, 66
4, 78395, Note_off_c, 3, 59, 64
4, 78403, Note_off_c, 3, 56, 64
4, 78408, Note_off_c, 3, 62, 64
4, 78485, Note_on_c, 3, 56, 59
4, 78485, Note_on_c, 3, 62, 66
4, 78494, Note_on_c, 3, 59, 54
4, 78620, Note_off_c, 3, 59, 64
4, 78633, Note_off_c, 3, 62, 64
4, 78638, Note_off_c, 3, 56, 64
4, 78720, Note_on_c, 3, 56, 46
4, 78727, Note_on_c, 3, 59, 61
4, 78853, Note_off_c, 3, 56, 64
4, 78855, Note_off_c, 3, 59, 64
4, 78963, Note_on_c, 3, 56, 50
4, 78966, Note_on_c, 3, 62, 56
4, 78970, Note_on_c, 3, 59, 62
4, 79102, Note_off_c, 3, 59, 64
4, 79107, Note_off_c, 3, 56, 64
4, 79111, Note_off_c, 3, 62, 64
4, 79219, Note_on_c, 3, 56, 57
4, 79222, Note_on_c, 3, 62, 68
4, 79226, Note_on_c, 3, 59, 53
4, 79513, Note_off_c, 3, 59, 64
4, 79518, Note_off_c, 3, 62, 64
4, 79520, Note_off_c, 3, 56, 64
4, 79590, Note_on_c, 3, 56, 62
4, 79590, Note_on_c, 3, 62, 60
4, 79590, Note_on_c, 3, 59, 60
4, 79752, Note_off_c, 3, 59, 64
4, 79754, Note_off_c, 3, 62, 64
4, 79757, Note_off_c, 3, 56, 64
4, 79831, Note_on_c, 3, 62, 59
4, 79833, Note_on_c, 3, 59, 60
4, 79833, Note_on_c, 3, 56, 62
4, 79981, Note_off_c, 3, 59, 64
4, 79986, Note_off_c, 3, 62, 64
4, 79988, Note_off_c, 3, 56, 64
4, 80063, Note_on_c, 3, 62, 47
4, 80067, Note_on_c, 3, 56, 47
4, 80070, Note_on_c, 3, 59, 53
4, 80156, Note_off_c, 3, 59, 64
4, 80184, Note_on_c, 3, 59, 66
4, 80315, Note_off_c, 3, 59, 64
4, 80323, Note_off_c, 3, 56, 64
4, 80328, Note_off_c, 3, 62, 64
4, 80405, Note_on_c, 3, 56, 59
4, 80405, Note_on_c, 3, 62, 66
4, 80414, Note_on_c, 3, 59, 54
4, 80540, Note_off_c, 3, 59, 64
4, 80553, Note_off_c, 3, 62, 64
4, 80558, Note_off_c, 3, 56, 64
4, 80640, Note_on_c, 3, 62, 53
4, 80640, Note_on_c, 3, 56, 46
4, 80647, Note_on_c, 3, 59, 61
4, 80773, Note_off_c, 3, 56, 64
4, 80775, Note_off_c, 3, 59, 64
4, 80784, Note_off_c, 3, 62, 64
4, 80883, Note_on_c, 3, 56, 50
4, 80886, Note_on_c, 3, 62, 56
4, 80890, Note_on_c, 3, 59, 62
4, 81022, Note_off_c, 3, 59, 64
4, 81027, Note_off_c, 3, 56, 64
4, 81031, Note_off_c, 3, 62, 64
4, 81139, Note_on_c, 3, 56, 57
4, 81142, Note_on_c, 3, 62, 68
4, 81146, Note_on_c, 3, 59, 53
4, 81433, Note_off_c, 3, 59, 64
4, 81438, Note_off_c, 3, 62, 64
4, 81440, Note_off_c, 3, 56, 64
4, 81510, Note_on_c, 3, 56, 62
4, 81510, Note_on_c, 3, 62, 60
4, 81510, Note_on_c, 3, 59, 60
4, 81672, Note_off_c, 3, 59, 64
4, 81674, Note_off_c, 3, 62, 64
4, 81677, Note_off_c, 3, 56, 64
4, 81751, Note_on_c, 3, 62, 59
4, 81753, Note_on_c, 3, 59, 60
4, 81753, Note_on_c, 3, 56, 62
4, 81901, Note_off_c, 3, 59, 64
4, 81906, Note_off_c, 3, 62, 64
4, 81908, Note_off_c, 3, 56, 64
4, 81983, Note_on_c, 3, 62, 47
4, 81987, Note_on_c, 3, 56, 47
4, 81990, Note_on_c, 3, 59, 53
4, 82076, Note_off_c, 3, 59, 64
4, 82104, Note_on_c, 3, 59, 66
4, 82235, Note_off_c, 3, 59, 64
4, 82243, Note_off_c, 3, 56, 64
4, 82248, Note_off_c, 3, 62, 64
4, 82325, Note_on_c, 3, 56, 59
4, 82325, Note_on_c, 3, 62, 66
4, 82334, Note_on_c, 3, 59, 54
4, 82460, Note_off_c, 3, 59, 64
4, 82473, Note_off_c, 3, 62, 64
4, 82478, Note_off_c, 3, 56, 64
4, 82569, Note_on_c, 3, 56, 58
4, 82569, Note_on_c, 3, 62, 57
4, 82578, Note_on_c, 3, 59, 48
4, 82710, Note_off_c, 3, 59, 64
4, 82717, Note_off_c, 3, 62, 64
4, 82717, Note_off_c, 3, 56, 64
4, 82812, Note_on_c, 3, 62, 55
4, 82814, Note_on_c, 3, 56, 53
4, 82814, Note_on_c, 3, 59, 56
4, 82949, Note_off_c, 3, 59, 64
4, 82949, Note_off_c, 3, 56, 64
4, 82951, Note_off_c, 3, 62, 64
4, 83057, Note_on_c, 3, 56, 62
4, 83059, Note_on_c, 3, 62, 60
4, 83064, Note_on_c, 3, 59, 54
4, 83337, Note_off_c, 3, 56, 64
4, 83344, Note_off_c, 3, 59, 64
4, 83348, Note_off_c, 3, 62, 64
4, 83419, Note_on_c, 3, 62, 56
4, 83424, Note_on_c, 3, 59, 60
4, 83424, Note_on_c, 3, 56, 72
4, 83585, Note_off_c, 3, 59, 64
4, 83589, Note_off_c, 3, 56, 64
4, 83596, Note_off_c, 3, 62, 64
4, 83662, Note_on_c, 3, 56, 67
4, 83662, Note_on_c, 3, 62, 64
4, 83666, Note_on_c, 3, 59, 60
4, 83801, Note_off_c, 3, 59, 64
4, 83805, Note_off_c, 3, 62, 64
4, 83808, Note_off_c, 3, 56, 64
4, 83883, Note_on_c, 3, 56, 62
4, 83885, Note_on_c, 3, 62, 66
4, 83892, Note_on_c, 3, 59, 57
4, 83969, Note_off_c, 3, 59, 64
4, 83971, Note_off_c, 3, 56, 64
4, 83978, Note_off_c, 3, 62, 64
4, 84008, Note_on_c, 3, 62, 62
4, 84014, Note_on_c, 3, 56, 62
4, 84014, Note_on_c, 3, 59, 68
4, 84132, Note_off_c, 3, 59, 64
4, 84139, Note_off_c, 3, 62, 64
4, 84148, Note_off_c, 3, 56, 64
4, 84229, Note_on_c, 3, 56, 64
4, 84233, Note_on_c, 3, 62, 73
4, 84236, Note_on_c, 3, 59, 66
4, 84384, Note_off_c, 3, 62, 64
4, 84386, Note_off_c, 3, 59, 64
4, 84397, Note_off_c, 3, 56, 64
4, 84480, Note_on_c, 3, 62, 53
4, 84480, Note_on_c, 3, 56, 46
4, 84487, Note_on_c, 3, 59, 61
4, 84613, Note_off_c, 3, 56, 64
4, 84615, Note_off_c, 3, 59, 64
4, 84624, Note_off_c, 3, 62, 64
4, 84723, Note_on_c, 3, 56, 50
4, 84726, Note_on_c, 3, 62, 56
4, 84730, Note_on_c, 3, 59, 62
4, 84862, Note_off_c, 3, 59, 64
4, 84867, Note_off_c, 3, 56, 64
4, 84871, Note_off_c, 3, 62, 64
4, 84979, Note_on_c, 3, 56, 57
4, 84982, Note_on_c, 3, 62, 68
4, 84986, Note_on_c, 3, 59, 53
4, 85273, Note_off_c, 3, 59, 64
4, 85278, Note_off_c, 3, 62, 64
4, 85280, Note_off_c, 3, 56, 64
4, 85350, Note_on_c, 3, 56, 62
4, 85350, Note_on_c, 3, 62, 60
4, 85350, Note_on_c, 3, 59, 60
4, 85512, Note_off_c, 3, 59, 64
4, 85514, Note_off_c, 3, 62, 64
4, 85517, Note_off_c, 3, 56, 64
4, 85591, Note_on_c, 3, 62, 59
4, 85593, Note_on_c, 3, 59, 60
4, 85593, Note_on_c, 3, 56, 62
4, 85741, Note_off_c, 3, 59, 64
4, 85746, Note_off_c, 3, 62, 64
4, 85748, Note_off_c, 3, 56, 64
4, 85823, Note_on_c, 3, 62, 47
4, 85827, Note_on_c, 3, 56, 47
4, 85830, Note_on_c, 3, 59, 53
4, 85916, Note_off_c, 3, 59, 64
4, 85944, Note_on_c, 3, 59, 66
4, 86075, Note_off_c, 3, 59, 64
4, 86083, Note_off_c, 3, 56, 64
4, 86088, Note_off_c, 3, 62, 64
4, 86165, Note_on_c, 3, 56, 59
4, 86165, Note_on_c, 3, 62, 66
4, 86174, Note_on_c, 3, 59, 54
4, 86300, Note_off_c, 3, 59, 64
4, 86313, Note_off_c, 3, 62, 64
4, 86318, Note_off_c, 3, 56, 64
4, 86400, Note_on_c, 3, 56, 46
4, 86407, Note_on_c, 3, 59, 61
4, 86533, Note_off_c, 3, 56, 64
4, 86535, Note_off_c, 3, 59, 64
4, 86643, Note_on_c, 3, 56, 50
4, 86646, Note_on_c, 3, 62, 56
4, 86650, Note_on_c, 3, 59, 62
4, 86782, Note_off_c, 3, 59, 64
4, 86787, Note_off_c, 3, 56, 64
4, 86791, Note_off_c, 3, 62, 64
4, 86899, Note_on_c, 3, 56, 57
4, 86902, Note_on_c, 3, 62, 68
4, 86906, Note_on_c, 3, 59, 53
4, 87193, Note_off_c, 3, 59, 64
4, 87198, Note_off_c, 3, 62, 64
4, 87200, Note_off_c, 3, 56, 64
4, 87270, Note_on_c, 3, 56, 62
4, 87270, Note_on_c, 3, 62, 60
4, 87270, Note_on_c, 3, 59, 60
4, 87432, Note_off_c, 3, 59, 64
4, 87434, Note_off_c, 3, 62, 64
4, 87437, Note_off_c, 3, 56, 64
4, 87511, Note_on_c, 3, 62, 59
4, 87513, Note_on_c, 3, 59, 60
4, 87513, Note_on_c, 3, 56, 62
4, 87661, Note_off_c, 3, 59, 64
4, 87666, Note_off_c, 3, 62, 64
4, 87668, Note_off_c, 3, 56, 64
4, 87743, Note_on_c, 3, 62, 47
4, 87747, Note_on_c, 3, 56, 47
4, 87750, Note_on_c, 3, 59, 53
4, 87836, Note_off_c, 3, 59, 64
4, 87864, Note_on_c, 3, 59, 66
4, 87995, Note_off_c, 3, 59, 64
4, 88003, Note_off_c, 3, 56, 64
4, 88008, Note_off_c, 3, 62, 64
4, 88085, Note_on_c, 3, 56, 59
4, 88085, Note_on_c, 3, 62, 66
4, 88094, Note_on_c, 3, 59, 54
4, 88220, Note_off_c, 3, 59, 64
4, 88233, Note_off_c, 3, 62, 64
4, 88238, Note_off_c, 3, 56, 64
4, 90259, Note_on_c, 3, 40, 65
4, 90344, Note_off_c, 3, 40, 64
4, 90364, Note_on_c, 3, 43, 68
4, 90450, Note_off_c, 3, 43, 64
4, 90472, Note_on_c, 3, 44, 113
4, 90531, Note_off_c, 3, 44, 64
4, 90587, Note_on_c, 3, 45, 80
4, 90658, Note_off_c, 3, 45, 64
4, 90703, Note_on_c, 3, 47, 82
4, 90769, Note_off_c, 3, 47, 64
4, 90850, Note_on_c, 3, 50, 59
4, 90906, Note_off_c, 3, 50, 64
4, 90945, Note_on_c, 3, 51, 103
4, 91004, Note_off_c, 3, 51, 64
4, 91063, Note_on_c, 3, 52, 92
4, 91118, Note_off_c, 3, 52, 64
4, 91182, Note_on_c, 3, 55, 94
4, 91264, Note_off_c, 3, 55, 64
4, 91312, Note_on_c, 3, 57, 118
4, 91387, Note_off_c, 3, 57, 64
4, 91414, Note_on_c, 3, 55, 84
4, 91485, Note_off_c, 3, 55, 64
4, 91556, Note_on_c, 3, 52, 85
4, 91808, Note_off_c, 3, 52, 64
4, 91816, Note_on_c, 3, 50, 76
4, 91917, Note_off_c, 3, 50, 64
4, 91920, Note_on_c, 3, 52, 84
4, 91991, Note_off_c, 3, 52, 64
4, 92158, Note_on_c, 3, 40, 92
4, 92235, Note_off_c, 3, 40, 64
4, 92275, Note_on_c, 3, 43, 84
4, 92331, Note_off_c, 3, 43, 64
4, 92388, Note_on_c, 3, 44, 100
4, 92437, Note_off_c, 3, 44, 64
4, 92506, Note_on_c, 3, 45, 82
4, 92569, Note_off_c, 3, 45, 64
4, 92627, Note_on_c, 3, 47, 85
4, 92680, Note_off_c, 3, 47, 64
4, 92750, Note_on_c, 3, 50, 94
4, 92805, Note_off_c, 3, 50, 64
4, 92859, Note_on_c, 3, 51, 90
4, 92920, Note_off_c, 3, 51, 64
4, 92986, Note_on_c, 3, 52, 82
4, 93043, Note_off_c, 3, 52, 64
4, 93104, Note_on_c, 3, 55, 97
4, 93173, Note_off_c, 3, 55, 64
4, 93223, Note_on_c, 3, 57, 94
4, 93286, Note_off_c, 3, 57, 64
4, 93329, Note_on_c, 3, 55, 94
4, 93394, Note_off_c, 3, 55, 64
4, 93473, Note_on_c, 3, 52, 92
4, 93683, Note_off_c, 3, 52, 64
4, 93714, Note_on_c, 3, 50, 84
4, 93817, Note_off_c, 3, 50, 64
4, 93827, Note_on_c, 3, 52, 85
4, 93974, Note_off_c, 3, 52, 64
4, 94099, Note_on_c, 3, 40, 65
4, 94184, Note_off_c, 3, 40, 64
4, 94204, Note_on_c, 3, 43, 68
4, 94290, Note_off_c, 3, 43, 64
4, 94312, Note_on_c, 3, 44, 113
4, 94371, Note_off_c, 3, 44, 64
4, 94427, Note_on_c, 3, 45, 80
4, 94498, Note_off_c, 3, 45, 64
4, 94543, Note_on_c, 3, 47, 82
4, 94609, Note_off_c, 3, 47, 64
4, 94690, Note_on_c, 3, 50, 59
4, 94746, Note_off_c, 3, 50, 64
4, 94785, Note_on_c, 3, 51, 103
4, 94844, Note_off_c, 3, 51, 64
4, 95022, Note_on_c, 3, 55, 94
4, 95040, Note_off_c, 3, 55, 64
4, 95059, Note_on_c, 3, 40, 65
4, 95144, Note_off_c, 3, 40, 64
4, 95164, Note_on_c, 3, 43, 68
4, 95250, Note_off_c, 3, 43, 64
4, 95272, Note_on_c, 3, 44, 113
4, 95331, Note_off_c, 3, 44, 64
4, 95387, Note_on_c, 3, 45, 80
4, 95458, Note_off_c, 3, 45, 64
4, 95503, Note_on_c, 3, 47, 82
4, 95569, Note_off_c, 3, 47, 64
4, 95650, Note_on_c, 3, 50, 59
4, 95706, Note_off_c, 3, 50, 64
4, 95745, Note_on_c, 3, 51, 103
4, 95804, Note_off_c, 3, 51, 64
4, 95982, Note_on_c, 3, 55, 94
4, 96000, Note_off_c, 3, 55, 64
4, 96019, Note_on_c, 3, 40, 65
4, 96104, Note_off_c, 3, 40, 64
4, 96124, Note_on_c, 3, 43, 68
4, 96210, Note_off_c, 3, 43, 64
4, 96232, Note_on_c, 3, 44, 113
4, 96291, Note_off_c, 3, 44, 64
4, 96347, Note_on_c, 3, 45, 80
4, 96418, Note_off_c, 3, 45, 64
4, 96463, Note_on_c, 3, 47, 82
4, 96529, Note_off_c, 3, 47, 64
4, 96610, Note_on_c, 3, 50, 59
4, 96666, Note_off_c, 3, 50, 64
4, 96705, Note_on_c, 3, 51, 103
4, 96764, Note_off_c, 3, 51, 64
4, 96942, Note_on_c, 3, 55, 94
4, 96960, Note_off_c, 3, 55, 64
4, 96979, Note_on_c, 3, 40, 65
4, 97064, Note_off_c, 3, 40, 64
4, 97084, Note_on_c, 3, 43, 68
4, 97170, Note_off_c, 3, 43, 64
4, 97192, Note_on_c, 3, 44, 113
4, 97251, Note_off_c, 3, 44, 64
4, 97307, Note_on_c, 3, 45, 80
4, 97378, Note_off_c, 3, 45, 64
4, 97423, Note_on_c, 3, 47, 82
4, 97489, Note_off_c, 3, 47, 64
4, 97570, Note_on_c, 3, 50, 59
4, 97626, Note_off_c, 3, 50, 64
4, 97665, Note_on_c, 3, 51, 103
4, 97724, Note_off_c, 3, 51, 64
4, 97920, Note_on_c, 3, 52, 80
4, 98040, Note_off_c, 3, 52, 64
4, 98400, Note_on_c, 3, 52, 80
4, 98520, Note_off_c, 3, 52, 64
4, 98880, Note_on_c, 3, 52, 80
4, 99000, Note_off_c, 3, 52, 64
4, 99360, Note_on_c, 3, 52, 80
4, 99480, Note_off_c, 3, 52, 64
4, 99840, Note_on_c, 3, 52, 80
4, 99960, Note_off_c, 3, 52, 64
4, 100320, Note_on_c, 3, 52, 80
4, 100440, Note_off_c, 3, 52, 64
4, 100800, Note_on_c, 3, 52, 80
4, 100920, Note_off_c, 3, 52, 64
4, 101280, Note_on_c, 3, 52, 80
4, 101400, Note_off_c, 3, 52, 64
4, 101760, Note_on_c, 3, 52, 80
4, 101880, Note_off_c, 3, 52, 64
4, 101880, End_track
5, 0, Start_track
5, 0, Title_t, "organ Draw"
5, 0, Program_c, 4, 16
5, 0, Control_c, 4, 7, 82
5, 13455, Note_on_c, 4, 88, 84
5, 13459, Note_on_c, 4, 83, 55
5, 19191, Note_off_c, 4, 88, 64
5, 19196, Note_off_c, 4, 83, 64
5, 28838, Note_on_c, 4, 83, 67
5, 28838, Note_on_c, 4, 88, 84
5, 32528, Note_off_c, 4, 88, 64
5, 32539, Note_off_c, 4, 83, 64
5, 32612, Note_on_c, 4, 83, 49
5, 32616, Note_on_c, 4, 88, 53
5, 33691, Note_on_c, 4, 91, 56
5, 33824, Note_on_c, 4, 93, 53
5, 33857, Note_off_c, 4, 91, 64
5, 33952, Note_on_c, 4, 91, 76
5, 33981, Note_off_c, 4, 88, 64
5, 34009, Note_off_c, 4, 93, 64
5, 34060, Note_off_c, 4, 91, 64
5, 34089, Note_on_c, 4, 88, 31
5, 34422, Note_off_c, 4, 88, 64
5, 34431, Note_off_c, 4, 83, 64
5, 34570, Note_on_c, 4, 88, 127
5, 34577, Note_on_c, 4, 83, 103
5, 34698, Note_off_c, 4, 88, 64
5, 34707, Note_off_c, 4, 83, 64
5, 34793, Note_on_c, 4, 83, 100
5, 34793, Note_on_c, 4, 88, 122
5, 34948, Note_off_c, 4, 88, 64
5, 34950, Note_off_c, 4, 83, 64
5, 35043, Note_on_c, 4, 83, 100
5, 35049, Note_on_c, 4, 88, 127
5, 35193, Note_off_c, 4, 88, 64
5, 35199, Note_off_c, 4, 83, 64
5, 35268, Note_on_c, 4, 83, 82
5, 35279, Note_on_c, 4, 88, 110
5, 35347, Note_off_c, 4, 88, 64
5, 35352, Note_off_c, 4, 83, 64
5, 35409, Note_on_c, 4, 83, 100
5, 35416, Note_on_c, 4, 88, 122
5, 35557, Note_off_c, 4, 88, 64
5, 35564, Note_off_c, 4, 83, 64
5, 35650, Note_on_c, 4, 83, 92
5, 35650, Note_on_c, 4, 88, 127
5, 35815, Note_off_c, 4, 83, 64
5, 35822, Note_off_c, 4, 88, 64
5, 35891, Note_on_c, 4, 83, 97
5, 35891, Note_on_c, 4, 88, 100
5, 35955, Note_off_c, 4, 88, 64
5, 35966, Note_off_c, 4, 83, 64
5, 36000, Note_on_c, 4, 83, 82
5, 36012, Note_on_c, 4, 88, 103
5, 36149, Note_off_c, 4, 83, 64
5, 36156, Note_off_c, 4, 88, 64
5, 36220, Note_on_c, 4, 83, 106
5, 36220, Note_on_c, 4, 88, 127
5, 36350, Note_off_c, 4, 88, 64
5, 36367, Note_off_c, 4, 83, 64
5, 36480, Note_on_c, 4, 88, 106
5, 36480, Note_on_c, 4, 83, 90
5, 36628, Note_off_c, 4, 88, 64
5, 36667, Note_off_c, 4, 83, 64
5, 36900, Note_on_c, 4, 88, 103
5, 36900, Note_on_c, 4, 83, 103
5, 36963, Note_off_c, 4, 83, 64
5, 36972, Note_off_c, 4, 88, 64
5, 37027, Note_on_c, 4, 95, 127
5, 37036, Note_on_c, 4, 93, 113
5, 37098, Note_off_c, 4, 93, 64
5, 37107, Note_off_c, 4, 95, 64
5, 37162, Note_on_c, 4, 95, 122
5, 37303, Note_off_c, 4, 95, 64
5, 37370, Note_on_c, 4, 93, 127
5, 37500, Note_off_c, 4, 93, 64
5, 37579, Note_on_c, 4, 93, 118
5, 37663, Note_off_c, 4, 93, 64
5, 37778, Note_on_c, 4, 93, 103
5, 37900, Note_on_c, 4, 90, 118
5, 37908, Note_off_c, 4, 93, 64
5, 38098, Note_off_c, 4, 90, 64
5, 38118, Note_on_c, 4, 88, 113
5, 38257, Note_off_c, 4, 88, 64
5, 38383, Note_on_c, 4, 88, 85
5, 38383, Note_on_c, 4, 83, 100
5, 38400, Note_off_c, 4, 83, 64
5, 38400, Note_off_c, 4, 88, 64
5, 38606, Note_on_c, 4, 83, 118
5, 38611, Note_on_c, 4, 88, 127
5, 38754, Note_off_c, 4, 88, 64
5, 38757, Note_off_c, 4, 83, 64
5, 38863, Note_on_c, 4, 83, 110
5, 38869, Note_on_c, 4, 88, 127
5, 38944, Note_off_c, 4, 88, 64
5, 38949, Note_off_c, 4, 83, 64
5, 39010, Note_on_c, 4, 83, 92
5, 39017, Note_on_c, 4, 88, 110
5, 39172, Note_off_c, 4, 83, 64
5, 39176, Note_off_c, 4, 88, 64
5, 39256, Note_on_c, 4, 83, 100
5, 39256, Note_on_c, 4, 88, 118
5, 39401, Note_off_c, 4, 88, 64
5, 39410, Note_off_c, 4, 83, 64
5, 39479, Note_on_c, 4, 83, 94
5, 39479, Note_on_c, 4, 88, 122
5, 39640, Note_off_c, 4, 88, 64
5, 39649, Note_off_c, 4, 83, 64
5, 39713, Note_on_c, 4, 83, 92
5, 39713, Note_on_c, 4, 88, 110
5, 39783, Note_off_c, 4, 88, 64
5, 39790, Note_off_c, 4, 83, 64
5, 39830, Note_on_c, 4, 83, 85
5, 39838, Note_on_c, 4, 88, 106
5, 40006, Note_off_c, 4, 83, 64
5, 40013, Note_off_c, 4, 88, 64
5, 40072, Note_on_c, 4, 83, 90
5, 40075, Note_on_c, 4, 88, 106
5, 40468, Note_off_c, 4, 88, 64
5, 40507, Note_off_c, 4, 83, 64
5, 40740, Note_on_c, 4, 88, 103
5, 40740, Note_on_c, 4, 83, 103
5, 40803, Note_off_c, 4, 83, 64
5, 40812, Note_off_c, 4, 88, 64
5, 40867, Note_on_c, 4, 95, 127
5, 40876, Note_on_c, 4, 93, 113
5, 40938, Note_off_c, 4, 93, 64
5, 40947, Note_off_c, 4, 95, 64
5, 41002, Note_on_c, 4, 95, 122
5, 41143, Note_off_c, 4, 95, 64
5, 41210, Note_on_c, 4, 93, 127
5, 41340, Note_off_c, 4, 93, 64
5, 41419, Note_on_c, 4, 93, 118
5, 41503, Note_off_c, 4, 93, 64
5, 41618, Note_on_c, 4, 93, 103
5, 41740, Note_on_c, 4, 90, 118
5, 41748, Note_off_c, 4, 93, 64
5, 41938, Note_off_c, 4, 90, 64
5, 41958, Note_on_c, 4, 88, 113
5, 42097, Note_off_c, 4, 88, 64
5, 42223, Note_on_c, 4, 88, 85
5, 42223, Note_on_c, 4, 83, 100
5, 42296, Note_off_c, 4, 88, 64
5, 42316, Note_off_c, 4, 83, 64
5, 42457, Note_on_c, 4, 83, 87
5, 42462, Note_on_c, 4, 88, 110
5, 42574, Note_off_c, 4, 83, 64
5, 42585, Note_off_c, 4, 88, 64
5, 42702, Note_on_c, 4, 95, 122
5, 42793, Note_off_c, 4, 95, 64
5, 42846, Note_on_c, 4, 95, 106
5, 43027, Note_off_c, 4, 95, 64
5, 43102, Note_on_c, 4, 93, 127
5, 43248, Note_off_c, 4, 93, 64
5, 43327, Note_on_c, 4, 93, 113
5, 43418, Note_off_c, 4, 93, 64
5, 43537, Note_on_c, 4, 93, 87
5, 43540, Note_on_c, 4, 91, 90
5, 43647, Note_off_c, 4, 91, 64
5, 43654, Note_off_c, 4, 93, 64
5, 43658, Note_on_c, 4, 90, 122
5, 43877, Note_on_c, 4, 86, 110
5, 43910, Note_off_c, 4, 90, 64
5, 43985, Note_off_c, 4, 86, 64
5, 44118, Note_on_c, 4, 83, 103
5, 44122, Note_on_c, 4, 88, 127
5, 44217, Note_off_c, 4, 88, 64
5, 44221, Note_off_c, 4, 83, 64
5, 44367, Note_on_c, 4, 88, 122
5, 44367, Note_on_c, 4, 83, 113
5, 44480, Note_off_c, 4, 83, 64
5, 44480, Note_off_c, 4, 88, 64
5, 44623, Note_on_c, 4, 95, 110
5, 44712, Note_off_c, 4, 95, 64
5, 44758, Note_on_c, 4, 95, 84
5, 44957, Note_off_c, 4, 95, 64
5, 45027, Note_on_c, 4, 93, 118
5, 45160, Note_off_c, 4, 93, 64
5, 45241, Note_on_c, 4, 93, 92
5, 45328, Note_off_c, 4, 93, 64
5, 45456, Note_on_c, 4, 93, 100
5, 45579, Note_off_c, 4, 93, 64
5, 45599, Note_on_c, 4, 90, 97
5, 45705, Note_off_c, 4, 90, 64
5, 45804, Note_on_c, 4, 88, 90
5, 45937, Note_off_c, 4, 88, 64
5, 46041, Note_on_c, 4, 88, 87
5, 46136, Note_off_c, 4, 88, 64
5, 46292, Note_on_c, 4, 88, 94
5, 46297, Note_on_c, 4, 95, 127
5, 46657, Note_off_c, 4, 88, 64
5, 46666, Note_off_c, 4, 95, 64
5, 46736, Note_on_c, 4, 88, 85
5, 46743, Note_on_c, 4, 95, 110
5, 46981, Note_off_c, 4, 95, 64
5, 46999, Note_off_c, 4, 88, 64
5, 47052, Note_on_c, 4, 88, 77
5, 47056, Note_on_c, 4, 95, 103
5, 47350, Note_off_c, 4, 88, 64
5, 47352, Note_off_c, 4, 95, 64
5, 47438, Note_on_c, 4, 88, 110
5, 47449, Note_on_c, 4, 95, 113
5, 47626, Note_off_c, 4, 95, 64
5, 47701, Note_on_c, 4, 91, 106
5, 47816, Note_on_c, 4, 93, 97
5, 47838, Note_off_c, 4, 91, 64
5, 47851, Note_off_c, 4, 88, 64
5, 47933, Note_on_c, 4, 91, 103
5, 47946, Note_off_c, 4, 93, 64
5, 48030, Note_on_c, 4, 88, 53
5, 48085, Note_off_c, 4, 91, 64
5, 48194, Note_off_c, 4, 88, 64
5, 48262, Note_on_c, 4, 88, 67
5, 48264, Note_on_c, 4, 95, 110
5, 48628, Note_off_c, 4, 95, 64
5, 48633, Note_off_c, 4, 88, 64
5, 48701, Note_on_c, 4, 88, 90
5, 48706, Note_on_c, 4, 95, 113
5, 48946, Note_off_c, 4, 95, 64
5, 48953, Note_off_c, 4, 88, 64
5, 49004, Note_on_c, 4, 88, 78
5, 49008, Note_on_c, 4, 95, 113
5, 49251, Note_off_c, 4, 95, 64
5, 49269, Note_off_c, 4, 88, 64
5, 49342, Note_on_c, 4, 88, 92
5, 49351, Note_on_c, 4, 95, 127
5, 49523, Note_off_c, 4, 95, 64
5, 49582, Note_on_c, 4, 91, 94
5, 49702, Note_on_c, 4, 93, 87
5, 49724, Note_off_c, 4, 91, 64
5, 49768, Note_off_c, 4, 88, 64
5, 49816, Note_on_c, 4, 91, 97
5, 49838, Note_off_c, 4, 93, 64
5, 49922, Note_on_c, 4, 88, 82
5, 49964, Note_off_c, 4, 91, 64
5, 50066, Note_off_c, 4, 88, 64
5, 50160, Note_on_c, 4, 88, 90
5, 50174, Note_on_c, 4, 95, 110
5, 50503, Note_off_c, 4, 88, 64
5, 50510, Note_off_c, 4, 95, 64
5, 50600, Note_on_c, 4, 88, 103
5, 50607, Note_on_c, 4, 95, 118
5, 50806, Note_off_c, 4, 88, 64
5, 50812, Note_off_c, 4, 95, 64
5, 50903, Note_on_c, 4, 88, 87
5, 50909, Note_on_c, 4, 95, 113
5, 51163, Note_off_c, 4, 88, 64
5, 51172, Note_off_c, 4, 95, 64
5, 51258, Note_on_c, 4, 88, 100
5, 51267, Note_on_c, 4, 95, 127
5, 51453, Note_off_c, 4, 95, 64
5, 51508, Note_on_c, 4, 91, 92
5, 51620, Note_on_c, 4, 93, 106
5, 51647, Note_off_c, 4, 91, 64
5, 51693, Note_off_c, 4, 88, 64
5, 51733, Note_on_c, 4, 91, 97
5, 51759, Note_off_c, 4, 93, 64
5, 51843, Note_on_c, 4, 88, 72
5, 51910, Note_off_c, 4, 91, 64
5, 51993, Note_off_c, 4, 88, 64
5, 52049, Note_on_c, 4, 88, 62
5, 52061, Note_on_c, 4, 95, 118
5, 52413, Note_off_c, 4, 88, 64
5, 52417, Note_off_c, 4, 95, 64
5, 52515, Note_on_c, 4, 88, 100
5, 52526, Note_on_c, 4, 95, 118
5, 52742, Note_off_c, 4, 95, 64
5, 52753, Note_off_c, 4, 88, 64
5, 52824, Note_on_c, 4, 88, 49
5, 52837, Note_on_c, 4, 95, 127
5, 53084, Note_off_c, 4, 95, 64
5, 53095, Note_off_c, 4, 88, 64
5, 53203, Note_on_c, 4, 88, 68
5, 53217, Note_on_c, 4, 95, 113
5, 53378, Note_off_c, 4, 95, 64
5, 53440, Note_on_c, 4, 91, 84
5, 53548, Note_on_c, 4, 93, 106
5, 53570, Note_off_c, 4, 91, 64
5, 53623, Note_off_c, 4, 88, 64
5, 53663, Note_on_c, 4, 91, 100
5, 53667, Note_off_c, 4, 93, 64
5, 53667, Note_on_c, 4, 88, 49
5, 53736, Note_off_c, 4, 91, 64
5, 53791, Note_on_c, 4, 95, 118
5, 53956, Note_off_c, 4, 95, 64
5, 53978, Note_off_c, 4, 88, 64
5, 54014, Note_on_c, 4, 88, 68
5, 54027, Note_on_c, 4, 95, 110
5, 54224, Note_off_c, 4, 95, 64
5, 54261, Note_on_c, 4, 93, 106
5, 54436, Note_off_c, 4, 93, 64
5, 54449, Note_off_c, 4, 88, 64
5, 54486, Note_on_c, 4, 88, 66
5, 54497, Note_on_c, 4, 93, 92
5, 54608, Note_off_c, 4, 93, 64
5, 54643, Note_on_c, 4, 95, 110
5, 54809, Note_off_c, 4, 95, 64
5, 54829, Note_off_c, 4, 88, 64
5, 54866, Note_on_c, 4, 88, 59
5, 54882, Note_on_c, 4, 95, 103
5, 55025, Note_off_c, 4, 95, 64
5, 55054, Note_off_c, 4, 88, 64
5, 55094, Note_on_c, 4, 88, 59
5, 55098, Note_on_c, 4, 95, 100
5, 55233, Note_on_c, 4, 93, 97
5, 55239, Note_off_c, 4, 95, 64
5, 55378, Note_off_c, 4, 93, 64
5, 55392, Note_off_c, 4, 88, 64
5, 55436, Note_on_c, 4, 88, 63
5, 55438, Note_on_c, 4, 93, 92
5, 55600, Note_off_c, 4, 93, 64
5, 55676, Note_on_c, 4, 95, 110
5, 55833, Note_off_c, 4, 95, 64
5, 55838, Note_off_c, 4, 88, 64
5, 55897, Note_on_c, 4, 88, 73
5, 55908, Note_on_c, 4, 95, 113
5, 56078, Note_off_c, 4, 95, 64
5, 56164, Note_on_c, 4, 93, 113
5, 56321, Note_off_c, 4, 93, 64
5, 56321, Note_off_c, 4, 88, 64
5, 56383, Note_on_c, 4, 88, 87
5, 56387, Note_on_c, 4, 93, 106
5, 56487, Note_off_c, 4, 93, 64
5, 56533, Note_on_c, 4, 95, 106
5, 56690, Note_off_c, 4, 95, 64
5, 56763, Note_on_c, 4, 95, 110
5, 56920, Note_off_c, 4, 95, 64
5, 56928, Note_off_c, 4, 88, 64
5, 56966, Note_on_c, 4, 88, 61
5, 56992, Note_on_c, 4, 95, 97
5, 57098, Note_off_c, 4, 95, 64
5, 57140, Note_on_c, 4, 93, 113
5, 57293, Note_off_c, 4, 93, 64
5, 57368, Note_on_c, 4, 93, 100
5, 57527, Note_off_c, 4, 93, 64
5, 57595, Note_on_c, 4, 95, 122
5, 57741, Note_off_c, 4, 95, 64
5, 57825, Note_on_c, 4, 95, 127
5, 58010, Note_off_c, 4, 95, 64
5, 58092, Note_on_c, 4, 93, 118
5, 58236, Note_off_c, 4, 93, 64
5, 58315, Note_on_c, 4, 93, 85
5, 58434, Note_off_c, 4, 93, 64
5, 58478, Note_on_c, 4, 95, 118
5, 58646, Note_off_c, 4, 95, 64
5, 58726, Note_on_c, 4, 95, 100
5, 58852, Note_off_c, 4, 95, 64
5, 58940, Note_on_c, 4, 95, 97
5, 58951, Note_on_c, 4, 93, 77
5, 58982, Note_off_c, 4, 93, 64
5, 59059, Note_off_c, 4, 95, 64
5, 59090, Note_on_c, 4, 93, 100
5, 59218, Note_off_c, 4, 93, 64
5, 59293, Note_on_c, 4, 93, 106
5, 59439, Note_off_c, 4, 93, 64
5, 59520, Note_on_c, 4, 95, 106
5, 59655, Note_off_c, 4, 95, 64
5, 59759, Note_on_c, 4, 95, 110
5, 59931, Note_off_c, 4, 95, 64
5, 59995, Note_on_c, 4, 93, 103
5, 60156, Note_off_c, 4, 93, 64
5, 60190, Note_off_c, 4, 88, 64
5, 60225, Note_on_c, 4, 88, 64
5, 60236, Note_on_c, 4, 93, 94
5, 60344, Note_off_c, 4, 93, 64
5, 60402, Note_on_c, 4, 95, 118
5, 60536, Note_off_c, 4, 95, 64
5, 60607, Note_on_c, 4, 95, 103
5, 60724, Note_off_c, 4, 95, 64
5, 60810, Note_on_c, 4, 95, 90
5, 60945, Note_on_c, 4, 93, 87
5, 60980, Note_off_c, 4, 95, 64
5, 61097, Note_off_c, 4, 93, 64
5, 61155, Note_on_c, 4, 93, 85
5, 61307, Note_off_c, 4, 93, 64
5, 61440, Note_off_c, 4, 88, 64
5, 71078, Note_on_c, 4, 83, 67
5, 71078, Note_on_c, 4, 88, 84
5, 74768, Note_off_c, 4, 88, 64
5, 74779, Note_off_c, 4, 83, 64
5, 74852, Note_on_c, 4, 83, 49
5, 74856, Note_on_c, 4, 88, 53
5, 75931, Note_on_c, 4, 91, 56
5, 76064, Note_on_c, 4, 93, 53
5, 76097, Note_off_c, 4, 91, 64
5, 76192, Note_on_c, 4, 91, 76
5, 76221, Note_off_c, 4, 88, 64
5, 76249, Note_off_c, 4, 93, 64
5, 76300, Note_off_c, 4, 91, 64
5, 76329, Note_on_c, 4, 88, 31
5, 76662, Note_off_c, 4, 88, 64
5, 76671, Note_off_c, 4, 83, 64
5, 76671, End_track
6, 0, Start_track
6, 0, Title_t, "organ Rock"
6, 0, Program_c, 5, 18
6, 0, Control_c, 5, 7, 82
6, 13477, Note_on_c, 5, 83, 65
6, 13486, Note_on_c, 5, 88, 84
6, 19191, Note_off_c, 5, 88, 64
6, 19194, Note_off_c, 5, 83, 64
6, 28812, Note_on_c, 5, 83, 74
6, 28812, Note_on_c, 5, 88, 87
6, 32561, Note_off_c, 5, 88, 64
6, 32581, Note_off_c, 5, 83, 64
6, 32632, Note_on_c, 5, 83, 46
6, 32638, Note_on_c, 5, 88, 60
6, 32777, Note_off_c, 5, 88, 64
6, 32795, Note_off_c, 5, 83, 64
6, 32885, Note_on_c, 5, 83, 49
6, 32892, Note_on_c, 5, 88, 55
6, 33031, Note_off_c, 5, 88, 64
6, 33049, Note_off_c, 5, 83, 64
6, 33128, Note_on_c, 5, 83, 46
6, 33135, Note_on_c, 5, 88, 56
6, 33259, Note_off_c, 5, 88, 64
6, 33270, Note_off_c, 5, 83, 64
6, 33371, Note_on_c, 5, 88, 65
6, 33373, Note_on_c, 5, 83, 45
6, 33488, Note_off_c, 5, 83, 64
6, 33501, Note_off_c, 5, 88, 64
6, 33568, Note_on_c, 5, 91, 74
6, 33691, Note_on_c, 5, 93, 51
6, 33724, Note_off_c, 5, 91, 64
6, 33806, Note_on_c, 5, 91, 78
6, 33868, Note_off_c, 5, 93, 64
6, 33930, Note_on_c, 5, 83, 46
6, 33961, Note_off_c, 5, 91, 64
6, 33989, Note_on_c, 5, 88, 49
6, 34442, Note_off_c, 5, 83, 64
6, 34451, Note_off_c, 5, 88, 64
6, 34568, Note_on_c, 5, 88, 113
6, 34575, Note_on_c, 5, 83, 92
6, 34689, Note_off_c, 5, 88, 64
6, 34698, Note_off_c, 5, 83, 64
6, 34809, Note_on_c, 5, 83, 97
6, 34811, Note_on_c, 5, 88, 110
6, 34954, Note_off_c, 5, 88, 64
6, 34954, Note_off_c, 5, 83, 64
6, 35067, Note_on_c, 5, 83, 97
6, 35067, Note_on_c, 5, 88, 110
6, 35206, Note_off_c, 5, 88, 64
6, 35217, Note_off_c, 5, 83, 64
6, 35290, Note_on_c, 5, 88, 84
6, 35290, Note_on_c, 5, 83, 65
6, 35356, Note_off_c, 5, 88, 64
6, 35363, Note_off_c, 5, 83, 64
6, 35420, Note_on_c, 5, 83, 74
6, 35425, Note_on_c, 5, 88, 100
6, 35566, Note_off_c, 5, 88, 64
6, 35573, Note_off_c, 5, 83, 64
6, 35650, Note_on_c, 5, 88, 110
6, 35659, Note_on_c, 5, 83, 68
6, 35807, Note_off_c, 5, 88, 64
6, 35824, Note_off_c, 5, 83, 64
6, 35888, Note_on_c, 5, 83, 74
6, 35893, Note_on_c, 5, 88, 92
6, 35952, Note_off_c, 5, 88, 64
6, 35961, Note_off_c, 5, 83, 64
6, 36000, Note_on_c, 5, 83, 68
6, 36008, Note_on_c, 5, 88, 85
6, 36142, Note_off_c, 5, 88, 64
6, 36149, Note_off_c, 5, 83, 64
6, 36215, Note_on_c, 5, 88, 106
6, 36217, Note_on_c, 5, 83, 73
6, 36348, Note_off_c, 5, 88, 64
6, 36365, Note_off_c, 5, 83, 64
6, 36866, Note_on_c, 5, 88, 92
6, 36869, Note_on_c, 5, 83, 97
6, 36935, Note_off_c, 5, 88, 64
6, 36938, Note_off_c, 5, 83, 64
6, 36992, Note_on_c, 5, 95, 113
6, 37065, Note_off_c, 5, 95, 64
6, 37118, Note_on_c, 5, 95, 82
6, 37314, Note_off_c, 5, 95, 64
6, 37363, Note_on_c, 5, 93, 110
6, 37363, Note_on_c, 5, 95, 113
6, 37456, Note_off_c, 5, 95, 64
6, 37478, Note_off_c, 5, 93, 64
6, 37573, Note_on_c, 5, 93, 77
6, 37668, Note_off_c, 5, 93, 64
6, 37780, Note_on_c, 5, 93, 80
6, 37913, Note_on_c, 5, 90, 94
6, 37928, Note_off_c, 5, 93, 64
6, 38067, Note_off_c, 5, 90, 64
6, 38125, Note_on_c, 5, 88, 77
6, 38264, Note_off_c, 5, 88, 64
6, 38379, Note_on_c, 5, 88, 85
6, 38379, Note_on_c, 5, 83, 84
6, 38400, Note_off_c, 5, 83, 64
6, 38400, Note_off_c, 5, 88, 64
6, 38600, Note_on_c, 5, 88, 100
6, 38604, Note_on_c, 5, 83, 90
6, 38715, Note_off_c, 5, 88, 64
6, 38721, Note_off_c, 5, 83, 64
6, 38858, Note_on_c, 5, 83, 78
6, 38863, Note_on_c, 5, 88, 106
6, 38933, Note_off_c, 5, 88, 64
6, 38940, Note_off_c, 5, 83, 64
6, 39006, Note_on_c, 5, 83, 70
6, 39006, Note_on_c, 5, 88, 97
6, 39147, Note_off_c, 5, 88, 64
6, 39167, Note_off_c, 5, 83, 64
6, 39260, Note_on_c, 5, 88, 106
6, 39267, Note_on_c, 5, 83, 87
6, 39401, Note_off_c, 5, 88, 64
6, 39415, Note_off_c, 5, 83, 64
6, 39512, Note_on_c, 5, 88, 106
6, 39512, Note_on_c, 5, 83, 85
6, 39666, Note_off_c, 5, 88, 64
6, 39679, Note_off_c, 5, 83, 64
6, 39744, Note_on_c, 5, 88, 80
6, 39750, Note_on_c, 5, 83, 58
6, 39816, Note_off_c, 5, 88, 64
6, 39823, Note_off_c, 5, 83, 64
6, 39861, Note_on_c, 5, 83, 77
6, 39865, Note_on_c, 5, 88, 80
6, 40020, Note_off_c, 5, 88, 64
6, 40031, Note_off_c, 5, 83, 64
6, 40088, Note_on_c, 5, 88, 97
6, 40088, Note_on_c, 5, 83, 73
6, 40251, Note_off_c, 5, 88, 64
6, 40309, Note_off_c, 5, 83, 64
6, 40706, Note_on_c, 5, 88, 92
6, 40709, Note_on_c, 5, 83, 97
6, 40775, Note_off_c, 5, 88, 64
6, 40778, Note_off_c, 5, 83, 64
6, 40832, Note_on_c, 5, 95, 113
6, 40905, Note_off_c, 5, 95, 64
6, 40958, Note_on_c, 5, 95, 82
6, 41154, Note_off_c, 5, 95, 64
6, 41203, Note_on_c, 5, 93, 110
6, 41203, Note_on_c, 5, 95, 113
6, 41296, Note_off_c, 5, 95, 64
6, 41318, Note_off_c, 5, 93, 64
6, 41413, Note_on_c, 5, 93, 77
6, 41508, Note_off_c, 5, 93, 64
6, 41620, Note_on_c, 5, 93, 80
6, 41753, Note_on_c, 5, 90, 94
6, 41768, Note_off_c, 5, 93, 64
6, 41907, Note_off_c, 5, 90, 64
6, 41965, Note_on_c, 5, 88, 77
6, 42104, Note_off_c, 5, 88, 64
6, 42219, Note_on_c, 5, 88, 85
6, 42219, Note_on_c, 5, 83, 84
6, 42307, Note_off_c, 5, 88, 64
6, 42311, Note_off_c, 5, 83, 64
6, 42455, Note_on_c, 5, 88, 100
6, 42455, Note_on_c, 5, 83, 85
6, 42563, Note_off_c, 5, 83, 64
6, 42574, Note_off_c, 5, 88, 64
6, 42713, Note_on_c, 5, 95, 110
6, 42797, Note_off_c, 5, 95, 64
6, 42857, Note_on_c, 5, 95, 103
6, 43042, Note_off_c, 5, 95, 64
6, 43102, Note_on_c, 5, 93, 127
6, 43237, Note_off_c, 5, 93, 64
6, 43314, Note_on_c, 5, 93, 103
6, 43404, Note_off_c, 5, 93, 64
6, 43510, Note_on_c, 5, 93, 94
6, 43660, Note_on_c, 5, 90, 92
6, 43694, Note_off_c, 5, 93, 64
6, 43899, Note_on_c, 5, 88, 106
6, 43920, Note_off_c, 5, 90, 64
6, 44029, Note_off_c, 5, 88, 64
6, 44140, Note_on_c, 5, 88, 103
6, 44140, Note_on_c, 5, 83, 100
6, 44243, Note_off_c, 5, 88, 64
6, 44259, Note_off_c, 5, 83, 64
6, 44383, Note_on_c, 5, 88, 100
6, 44383, Note_on_c, 5, 83, 100
6, 44495, Note_off_c, 5, 83, 64
6, 44495, Note_off_c, 5, 88, 64
6, 44623, Note_on_c, 5, 95, 92
6, 44727, Note_off_c, 5, 95, 64
6, 44776, Note_on_c, 5, 95, 92
6, 44954, Note_off_c, 5, 95, 64
6, 45023, Note_on_c, 5, 93, 127
6, 45138, Note_off_c, 5, 93, 64
6, 45235, Note_on_c, 5, 93, 100
6, 45321, Note_off_c, 5, 93, 64
6, 45442, Note_on_c, 5, 93, 78
6, 45590, Note_on_c, 5, 90, 100
6, 45599, Note_off_c, 5, 93, 64
6, 45813, Note_on_c, 5, 88, 103
6, 45820, Note_off_c, 5, 90, 64
6, 45950, Note_off_c, 5, 88, 64
6, 46310, Note_on_c, 5, 88, 70
6, 46317, Note_on_c, 5, 95, 110
6, 46650, Note_off_c, 5, 95, 64
6, 46650, Note_off_c, 5, 88, 64
6, 46730, Note_on_c, 5, 88, 84
6, 46734, Note_on_c, 5, 95, 127
6, 46957, Note_off_c, 5, 95, 64
6, 46959, Note_off_c, 5, 88, 64
6, 47048, Note_on_c, 5, 88, 82
6, 47054, Note_on_c, 5, 95, 113
6, 47313, Note_off_c, 5, 88, 64
6, 47319, Note_off_c, 5, 95, 64
6, 47434, Note_on_c, 5, 88, 100
6, 47445, Note_on_c, 5, 95, 92
6, 47452, Note_on_c, 5, 96, 80
6, 47511, Note_off_c, 5, 96, 64
6, 47637, Note_off_c, 5, 95, 64
6, 47688, Note_on_c, 5, 91, 87
6, 47800, Note_on_c, 5, 93, 92
6, 47831, Note_off_c, 5, 88, 64
6, 47836, Note_off_c, 5, 91, 64
6, 47925, Note_on_c, 5, 91, 103
6, 47955, Note_off_c, 5, 93, 64
6, 48035, Note_off_c, 5, 91, 64
6, 48041, Note_on_c, 5, 88, 77
6, 48189, Note_off_c, 5, 88, 64
6, 48255, Note_on_c, 5, 88, 64
6, 48271, Note_on_c, 5, 95, 106
6, 48611, Note_off_c, 5, 88, 64
6, 48615, Note_off_c, 5, 95, 64
6, 48686, Note_on_c, 5, 88, 77
6, 48697, Note_on_c, 5, 95, 110
6, 48920, Note_off_c, 5, 95, 64
6, 48922, Note_off_c, 5, 88, 64
6, 48999, Note_on_c, 5, 88, 76
6, 49004, Note_on_c, 5, 95, 103
6, 49275, Note_off_c, 5, 88, 64
6, 49280, Note_off_c, 5, 95, 64
6, 49377, Note_on_c, 5, 88, 87
6, 49381, Note_on_c, 5, 95, 113
6, 49547, Note_off_c, 5, 95, 64
6, 49604, Note_on_c, 5, 91, 87
6, 49717, Note_on_c, 5, 93, 106
6, 49739, Note_off_c, 5, 91, 64
6, 49764, Note_off_c, 5, 88, 64
6, 49834, Note_on_c, 5, 91, 100
6, 49838, Note_off_c, 5, 93, 64
6, 49854, Note_on_c, 5, 88, 40
6, 49956, Note_off_c, 5, 91, 64
6, 50070, Note_off_c, 5, 88, 64
6, 50148, Note_on_c, 5, 88, 77
6, 50150, Note_on_c, 5, 95, 118
6, 50516, Note_off_c, 5, 95, 64
6, 50519, Note_off_c, 5, 88, 64
6, 50600, Note_on_c, 5, 88, 94
6, 50611, Note_on_c, 5, 95, 110
6, 50806, Note_off_c, 5, 88, 64
6, 50817, Note_off_c, 5, 95, 64
6, 50892, Note_on_c, 5, 88, 77
6, 50898, Note_on_c, 5, 95, 106
6, 51139, Note_off_c, 5, 95, 64
6, 51149, Note_off_c, 5, 88, 64
6, 51252, Note_on_c, 5, 88, 92
6, 51256, Note_on_c, 5, 95, 113
6, 51428, Note_off_c, 5, 95, 64
6, 51483, Note_on_c, 5, 91, 82
6, 51594, Note_on_c, 5, 93, 82
6, 51625, Note_off_c, 5, 91, 64
6, 51642, Note_off_c, 5, 88, 64
6, 51720, Note_on_c, 5, 91, 84
6, 51740, Note_off_c, 5, 93, 64
6, 51815, Note_on_c, 5, 88, 60
6, 51872, Note_off_c, 5, 91, 64
6, 51969, Note_off_c, 5, 88, 64
6, 52069, Note_on_c, 5, 88, 70
6, 52069, Note_on_c, 5, 95, 103
6, 52437, Note_off_c, 5, 95, 64
6, 52442, Note_off_c, 5, 88, 64
6, 52530, Note_on_c, 5, 88, 74
6, 52530, Note_on_c, 5, 95, 97
6, 52744, Note_off_c, 5, 88, 64
6, 52757, Note_off_c, 5, 95, 64
6, 52826, Note_on_c, 5, 88, 64
6, 52833, Note_on_c, 5, 95, 97
6, 53078, Note_off_c, 5, 95, 64
6, 53082, Note_off_c, 5, 88, 64
6, 53192, Note_on_c, 5, 88, 87
6, 53199, Note_on_c, 5, 95, 97
6, 53347, Note_off_c, 5, 95, 64
6, 53415, Note_on_c, 5, 91, 100
6, 53499, Note_off_c, 5, 88, 64
6, 53539, Note_on_c, 5, 93, 100
6, 53563, Note_off_c, 5, 91, 64
6, 53645, Note_on_c, 5, 91, 97
6, 53654, Note_off_c, 5, 93, 64
6, 53660, Note_on_c, 5, 88, 61
6, 53731, Note_off_c, 5, 91, 64
6, 53778, Note_on_c, 5, 95, 113
6, 53934, Note_off_c, 5, 95, 64
6, 54012, Note_on_c, 5, 95, 113
6, 54195, Note_off_c, 5, 95, 64
6, 54248, Note_on_c, 5, 93, 100
6, 54409, Note_off_c, 5, 93, 64
6, 54455, Note_off_c, 5, 88, 64
6, 54473, Note_on_c, 5, 88, 53
6, 54478, Note_on_c, 5, 93, 106
6, 54588, Note_off_c, 5, 93, 64
6, 54634, Note_on_c, 5, 95, 110
6, 54771, Note_off_c, 5, 95, 64
6, 54853, Note_on_c, 5, 95, 106
6, 54981, Note_off_c, 5, 95, 64
6, 55065, Note_on_c, 5, 95, 103
6, 55169, Note_off_c, 5, 95, 64
6, 55200, Note_on_c, 5, 93, 94
6, 55343, Note_off_c, 5, 93, 64
6, 55434, Note_on_c, 5, 93, 87
6, 55597, Note_off_c, 5, 93, 64
6, 55679, Note_on_c, 5, 95, 110
6, 55811, Note_off_c, 5, 95, 64
6, 55902, Note_on_c, 5, 95, 118
6, 56078, Note_off_c, 5, 95, 64
6, 56173, Note_on_c, 5, 93, 100
6, 56317, Note_off_c, 5, 93, 64
6, 56400, Note_on_c, 5, 93, 74
6, 56507, Note_off_c, 5, 93, 64
6, 56540, Note_on_c, 5, 95, 103
6, 56708, Note_off_c, 5, 95, 64
6, 56794, Note_on_c, 5, 95, 113
6, 56906, Note_off_c, 5, 95, 64
6, 57010, Note_on_c, 5, 95, 94
6, 57134, Note_off_c, 5, 95, 64
6, 57142, Note_on_c, 5, 93, 90
6, 57284, Note_off_c, 5, 93, 64
6, 57368, Note_on_c, 5, 93, 84
6, 57518, Note_off_c, 5, 93, 64
6, 57602, Note_on_c, 5, 95, 113
6, 57728, Note_off_c, 5, 95, 64
6, 57840, Note_on_c, 5, 95, 92
6, 57986, Note_off_c, 5, 95, 64
6, 58088, Note_on_c, 5, 93, 87
6, 58224, Note_off_c, 5, 93, 64
6, 58315, Note_on_c, 5, 93, 73
6, 58430, Note_off_c, 5, 93, 64
6, 58470, Note_on_c, 5, 95, 110
6, 58600, Note_off_c, 5, 95, 64
6, 58690, Note_on_c, 5, 95, 103
6, 58803, Note_off_c, 5, 95, 64
6, 58913, Note_on_c, 5, 95, 94
6, 59035, Note_off_c, 5, 95, 64
6, 59048, Note_on_c, 5, 93, 94
6, 59181, Note_off_c, 5, 93, 64
6, 59271, Note_on_c, 5, 93, 85
6, 59408, Note_off_c, 5, 93, 64
6, 59503, Note_on_c, 5, 95, 92
6, 59629, Note_off_c, 5, 95, 64
6, 59741, Note_on_c, 5, 95, 97
6, 59925, Note_off_c, 5, 95, 64
6, 59995, Note_on_c, 5, 93, 90
6, 60128, Note_off_c, 5, 93, 64
6, 60243, Note_on_c, 5, 93, 80
6, 60377, Note_off_c, 5, 93, 64
6, 60386, Note_on_c, 5, 95, 87
6, 60501, Note_off_c, 5, 95, 64
6, 60598, Note_on_c, 5, 95, 85
6, 60706, Note_off_c, 5, 95, 64
6, 60795, Note_on_c, 5, 95, 74
6, 60929, Note_on_c, 5, 93, 90
6, 60949, Note_off_c, 5, 95, 64
6, 61064, Note_off_c, 5, 93, 64
6, 61148, Note_on_c, 5, 93, 77
6, 61291, Note_off_c, 5, 93, 64
6, 61440, Note_off_c, 5, 88, 64
6, 71052, Note_on_c, 5, 83, 74
6, 71052, Note_on_c, 5, 88, 87
6, 74801, Note_off_c, 5, 88, 64
6, 74821, Note_off_c, 5, 83, 64
6, 74872, Note_on_c, 5, 83, 46
6, 74878, Note_on_c, 5, 88, 60
6, 75017, Note_off_c, 5, 88, 64
6, 75035, Note_off_c, 5, 83, 64
6, 75125, Note_on_c, 5, 83, 49
6, 75132, Note_on_c, 5, 88, 55
6, 75271, Note_off_c, 5, 88, 64
6, 75289, Note_off_c, 5, 83, 64
6, 75368, Note_on_c, 5, 83, 46
6, 75375, Note_on_c, 5, 88, 56
6, 75499, Note_off_c, 5, 88, 64
6, 75510, Note_off_c, 5, 83, 64
6, 75611, Note_on_c, 5, 88, 65
6, 75613, Note_on_c, 5, 83, 45
6, 75728, Note_off_c, 5, 83, 64
6, 75741, Note_off_c, 5, 88, 64
6, 75808, Note_on_c, 5, 91, 74
6, 75931, Note_on_c, 5, 93, 51
6, 75964, Note_off_c, 5, 91, 64
6, 76046, Note_on_c, 5, 91, 78
6, 76108, Note_off_c, 5, 93, 64
6, 76170, Note_on_c, 5, 83, 46
6, 76201, Note_off_c, 5, 91, 64
6, 76229, Note_on_c, 5, 88, 49
6, 76682, Note_off_c, 5, 83, 64
6, 76691, Note_off_c, 5, 88, 64
6, 76691, End_track
7, 0, Start_track
7, 0, Title_t, "batera"
7, 0, Program_c, 9, 0
7, 0, Control_c, 9, 7, 82
7, 0, Note_on_c, 9, 42, 103
7, 1, Note_off_c, 9, 42, 64
7, 7, Note_on_c, 9, 42, 28
7, 17, Note_off_c, 9, 42, 64
7, 111, Note_on_c, 9, 42, 83
7, 116, Note_off_c, 9, 42, 64
7, 129, Note_on_c, 9, 42, 28
7, 134, Note_off_c, 9, 42, 64
7, 250, Note_on_c, 9, 42, 28
7, 255, Note_off_c, 9, 42, 64
7, 348, Note_on_c, 9, 42, 70
7, 354, Note_off_c, 9, 42, 64
7, 372, Note_on_c, 9, 42, 28
7, 374, Note_off_c, 9, 42, 64
7, 472, Note_on_c, 9, 42, 103
7, 476, Note_off_c, 9, 42, 64
7, 488, Note_on_c, 9, 42, 28
7, 497, Note_off_c, 9, 42, 64
7, 594, Note_on_c, 9, 42, 74
7, 600, Note_off_c, 9, 42, 64
7, 606, Note_on_c, 9, 42, 28
7, 613, Note_off_c, 9, 42, 64
7, 726, Note_on_c, 9, 42, 28
7, 731, Note_off_c, 9, 42, 64
7, 830, Note_on_c, 9, 42, 88
7, 837, Note_off_c, 9, 42, 64
7, 848, Note_on_c, 9, 42, 28
7, 857, Note_off_c, 9, 42, 64
7, 953, Note_on_c, 9, 42, 103
7, 958, Note_off_c, 9, 42, 64
7, 960, Note_on_c, 9, 42, 103
7, 961, Note_off_c, 9, 42, 64
7, 967, Note_on_c, 9, 42, 28
7, 977, Note_off_c, 9, 42, 64
7, 1071, Note_on_c, 9, 42, 83
7, 1076, Note_off_c, 9, 42, 64
7, 1089, Note_on_c, 9, 42, 28
7, 1094, Note_off_c, 9, 42, 64
7, 1210, Note_on_c, 9, 42, 28
7, 1215, Note_off_c, 9, 42, 64
7, 1308, Note_on_c, 9, 42, 70
7, 1314, Note_off_c, 9, 42, 64
7, 1332, Note_on_c, 9, 42, 28
7, 1334, Note_off_c, 9, 42, 64
7, 1432, Note_on_c, 9, 42, 103
7, 1436, Note_off_c, 9, 42, 64
7, 1448, Note_on_c, 9, 42, 28
7, 1457, Note_off_c, 9, 42, 64
7, 1554, Note_on_c, 9, 42, 74
7, 1560, Note_off_c, 9, 42, 64
7, 1566, Note_on_c, 9, 42, 28
7, 1573, Note_off_c, 9, 42, 64
7, 1686, Note_on_c, 9, 42, 28
7, 1691, Note_off_c, 9, 42, 64
7, 1790, Note_on_c, 9, 42, 88
7, 1797, Note_off_c, 9, 42, 64
7, 1808, Note_on_c, 9, 42, 28
7, 1817, Note_off_c, 9, 42, 64
7, 1913, Note_on_c, 9, 35, 66
7, 1913, Note_on_c, 9, 42, 103
7, 1918, Note_off_c, 9, 42, 64
7, 1920, Note_off_c, 9, 35, 64
7, 1932, Note_on_c, 9, 42, 28
7, 1936, Note_off_c, 9, 42, 64
7, 2030, Note_on_c, 9, 42, 87
7, 2035, Note_off_c, 9, 42, 64
7, 2052, Note_on_c, 9, 42, 28
7, 2056, Note_off_c, 9, 42, 64
7, 2152, Note_on_c, 9, 42, 103
7, 2154, Note_on_c, 9, 54, 70
7, 2154, Note_on_c, 9, 40, 74
7, 2158, Note_off_c, 9, 42, 64
7, 2171, Note_on_c, 9, 42, 28
7, 2175, Note_off_c, 9, 42, 64
7, 2200, Note_off_c, 9, 54, 64
7, 2205, Note_off_c, 9, 40, 64
7, 2272, Note_on_c, 9, 42, 77
7, 2276, Note_off_c, 9, 42, 64
7, 2291, Note_on_c, 9, 42, 28
7, 2293, Note_off_c, 9, 42, 64
7, 2394, Note_on_c, 9, 42, 103
7, 2394, Note_on_c, 9, 35, 57
7, 2398, Note_off_c, 9, 42, 64
7, 2411, Note_on_c, 9, 42, 28
7, 2416, Note_off_c, 9, 42, 64
7, 2416, Note_off_c, 9, 35, 64
7, 2513, Note_on_c, 9, 42, 82
7, 2520, Note_off_c, 9, 42, 64
7, 2530, Note_on_c, 9, 42, 28
7, 2534, Note_off_c, 9, 42, 64
7, 2634, Note_on_c, 9, 54, 71
7, 2634, Note_on_c, 9, 42, 103
7, 2634, Note_on_c, 9, 40, 69
7, 2640, Note_off_c, 9, 42, 64
7, 2645, Note_on_c, 9, 42, 28
7, 2650, Note_off_c, 9, 42, 64
7, 2675, Note_off_c, 9, 54, 64
7, 2680, Note_off_c, 9, 40, 64
7, 2754, Note_on_c, 9, 42, 101
7, 2754, Note_on_c, 9, 35, 62
7, 2758, Note_off_c, 9, 42, 64
7, 2767, Note_on_c, 9, 42, 28
7, 2772, Note_off_c, 9, 42, 64
7, 2794, Note_off_c, 9, 35, 64
7, 2873, Note_on_c, 9, 35, 66
7, 2873, Note_on_c, 9, 42, 103
7, 2878, Note_off_c, 9, 42, 64
7, 2887, Note_on_c, 9, 42, 28
7, 2897, Note_off_c, 9, 42, 64
7, 2926, Note_off_c, 9, 35, 64
7, 2992, Note_on_c, 9, 42, 93
7, 2997, Note_off_c, 9, 42, 64
7, 3012, Note_on_c, 9, 42, 28
7, 3016, Note_off_c, 9, 42, 64
7, 3112, Note_on_c, 9, 54, 69
7, 3112, Note_on_c, 9, 42, 103
7, 3112, Note_on_c, 9, 40, 70
7, 3119, Note_off_c, 9, 42, 64
7, 3128, Note_on_c, 9, 42, 28
7, 3135, Note_off_c, 9, 42, 64
7, 3160, Note_off_c, 9, 54, 64
7, 3165, Note_off_c, 9, 40, 64
7, 3232, Note_on_c, 9, 42, 99
7, 3236, Note_off_c, 9, 42, 64
7, 3248, Note_on_c, 9, 42, 28
7, 3255, Note_off_c, 9, 42, 64
7, 3352, Note_on_c, 9, 42, 103
7, 3352, Note_on_c, 9, 35, 58
7, 3358, Note_off_c, 9, 42, 64
7, 3368, Note_on_c, 9, 42, 28
7, 3377, Note_off_c, 9, 42, 64
7, 3377, Note_off_c, 9, 35, 64
7, 3472, Note_on_c, 9, 42, 87
7, 3477, Note_off_c, 9, 42, 64
7, 3492, Note_on_c, 9, 42, 28
7, 3496, Note_off_c, 9, 42, 64
7, 3592, Note_on_c, 9, 42, 103
7, 3594, Note_on_c, 9, 54, 72
7, 3594, Note_on_c, 9, 40, 70
7, 3600, Note_off_c, 9, 42, 64
7, 3605, Note_on_c, 9, 42, 28
7, 3614, Note_off_c, 9, 42, 64
7, 3631, Note_off_c, 9, 54, 64
7, 3647, Note_off_c, 9, 40, 64
7, 3712, Note_on_c, 9, 42, 103
7, 3714, Note_on_c, 9, 35, 63
7, 3718, Note_off_c, 9, 42, 64
7, 3727, Note_on_c, 9, 42, 28
7, 3731, Note_off_c, 9, 42, 64
7, 3749, Note_off_c, 9, 35, 64
7, 3833, Note_on_c, 9, 35, 62
7, 3833, Note_on_c, 9, 42, 103
7, 3840, Note_off_c, 9, 42, 64
7, 3849, Note_on_c, 9, 42, 28
7, 3855, Note_off_c, 9, 42, 64
7, 3855, Note_off_c, 9, 35, 64
7, 3952, Note_on_c, 9, 42, 83
7, 3959, Note_off_c, 9, 42, 64
7, 3971, Note_on_c, 9, 42, 28
7, 3973, Note_off_c, 9, 42, 64
7, 4075, Note_on_c, 9, 54, 65
7, 4075, Note_on_c, 9, 42, 103
7, 4075, Note_on_c, 9, 40, 70
7, 4080, Note_off_c, 9, 42, 64
7, 4089, Note_on_c, 9, 42, 28
7, 4096, Note_off_c, 9, 42, 64
7, 4096, Note_off_c, 9, 40, 64
7, 4109, Note_off_c, 9, 54, 64
7, 4190, Note_on_c, 9, 42, 70
7, 4195, Note_off_c, 9, 42, 64
7, 4207, Note_on_c, 9, 42, 28
7, 4211, Note_off_c, 9, 42, 64
7, 4312, Note_on_c, 9, 42, 103
7, 4312, Note_on_c, 9, 35, 57
7, 4316, Note_off_c, 9, 42, 64
7, 4331, Note_on_c, 9, 42, 28
7, 4335, Note_off_c, 9, 42, 64
7, 4335, Note_off_c, 9, 35, 64
7, 4430, Note_on_c, 9, 42, 74
7, 4435, Note_off_c, 9, 42, 64
7, 4447, Note_on_c, 9, 42, 28
7, 4456, Note_off_c, 9, 42, 64
7, 4553, Note_on_c, 9, 42, 103
7, 4556, Note_on_c, 9, 54, 73
7, 4556, Note_on_c, 9, 40, 70
7, 4560, Note_off_c, 9, 42, 64
7, 4566, Note_on_c, 9, 42, 28
7, 4572, Note_off_c, 9, 42, 64
7, 4572, Note_off_c, 9, 40, 64
7, 4591, Note_off_c, 9, 54, 64
7, 4671, Note_on_c, 9, 42, 88
7, 4671, Note_on_c, 9, 35, 58
7, 4677, Note_off_c, 9, 42, 64
7, 4690, Note_on_c, 9, 42, 28
7, 4692, Note_off_c, 9, 42, 64
7, 4708, Note_off_c, 9, 35, 64
7, 4792, Note_on_c, 9, 35, 66
7, 4792, Note_on_c, 9, 42, 103
7, 4796, Note_off_c, 9, 42, 64
7, 4807, Note_on_c, 9, 42, 28
7, 4817, Note_off_c, 9, 35, 64
7, 4820, Note_off_c, 9, 42, 64
7, 4910, Note_on_c, 9, 42, 72
7, 4918, Note_off_c, 9, 42, 64
7, 4926, Note_on_c, 9, 42, 28
7, 4934, Note_off_c, 9, 42, 64
7, 5033, Note_on_c, 9, 42, 103
7, 5033, Note_on_c, 9, 40, 69
7, 5035, Note_on_c, 9, 54, 70
7, 5040, Note_off_c, 9, 42, 64
7, 5049, Note_on_c, 9, 42, 28
7, 5052, Note_off_c, 9, 40, 64
7, 5054, Note_off_c, 9, 42, 64
7, 5069, Note_off_c, 9, 54, 64
7, 5153, Note_on_c, 9, 42, 66
7, 5157, Note_off_c, 9, 42, 64
7, 5170, Note_on_c, 9, 42, 28
7, 5175, Note_off_c, 9, 42, 64
7, 5274, Note_on_c, 9, 42, 103
7, 5274, Note_on_c, 9, 35, 55
7, 5278, Note_off_c, 9, 42, 64
7, 5291, Note_on_c, 9, 42, 28
7, 5296, Note_off_c, 9, 42, 64
7, 5296, Note_off_c, 9, 35, 64
7, 5390, Note_on_c, 9, 42, 70
7, 5395, Note_off_c, 9, 42, 64
7, 5412, Note_on_c, 9, 42, 28
7, 5416, Note_off_c, 9, 42, 64
7, 5514, Note_on_c, 9, 42, 103
7, 5516, Note_on_c, 9, 54, 69
7, 5516, Note_on_c, 9, 40, 70
7, 5520, Note_off_c, 9, 42, 64
7, 5527, Note_on_c, 9, 42, 28
7, 5533, Note_off_c, 9, 42, 64
7, 5553, Note_off_c, 9, 54, 64
7, 5561, Note_off_c, 9, 40, 64
7, 5629, Note_on_c, 9, 42, 103
7, 5631, Note_on_c, 9, 35, 63
7, 5635, Note_off_c, 9, 42, 64
7, 5649, Note_on_c, 9, 42, 28
7, 5654, Note_off_c, 9, 42, 64
7, 5667, Note_off_c, 9, 35, 64
7, 5750, Note_on_c, 9, 42, 103
7, 5753, Note_on_c, 9, 35, 74
7, 5758, Note_off_c, 9, 42, 64
7, 5766, Note_on_c, 9, 42, 28
7, 5772, Note_off_c, 9, 42, 64
7, 5772, Note_off_c, 9, 35, 64
7, 5872, Note_on_c, 9, 42, 87
7, 5876, Note_off_c, 9, 42, 64
7, 5888, Note_on_c, 9, 42, 28
7, 5895, Note_off_c, 9, 42, 64
7, 5994, Note_on_c, 9, 54, 70
7, 5994, Note_on_c, 9, 42, 103
7, 5994, Note_on_c, 9, 40, 74
7, 6000, Note_off_c, 9, 42, 64
7, 6005, Note_on_c, 9, 42, 28
7, 6017, Note_off_c, 9, 42, 64
7, 6040, Note_off_c, 9, 54, 64
7, 6046, Note_off_c, 9, 40, 64
7, 6110, Note_on_c, 9, 42, 77
7, 6115, Note_off_c, 9, 42, 64
7, 6130, Note_on_c, 9, 42, 28
7, 6133, Note_off_c, 9, 42, 64
7, 6231, Note_on_c, 9, 42, 103
7, 6234, Note_on_c, 9, 35, 57
7, 6239, Note_off_c, 9, 42, 64
7, 6250, Note_on_c, 9, 42, 28
7, 6257, Note_off_c, 9, 35, 64
7, 6260, Note_off_c, 9, 42, 64
7, 6353, Note_on_c, 9, 42, 82
7, 6358, Note_off_c, 9, 42, 64
7, 6369, Note_on_c, 9, 42, 28
7, 6371, Note_off_c, 9, 42, 64
7, 6473, Note_on_c, 9, 54, 71
7, 6473, Note_on_c, 9, 42, 103
7, 6473, Note_on_c, 9, 40, 69
7, 6479, Note_off_c, 9, 42, 64
7, 6487, Note_on_c, 9, 42, 28
7, 6494, Note_off_c, 9, 42, 64
7, 6516, Note_off_c, 9, 54, 64
7, 6522, Note_off_c, 9, 40, 64
7, 6592, Note_on_c, 9, 42, 101
7, 6592, Note_on_c, 9, 35, 62
7, 6600, Note_off_c, 9, 42, 64
7, 6608, Note_on_c, 9, 42, 28
7, 6615, Note_off_c, 9, 42, 64
7, 6634, Note_off_c, 9, 35, 64
7, 6712, Note_on_c, 9, 35, 66
7, 6712, Note_on_c, 9, 42, 103
7, 6718, Note_off_c, 9, 42, 64
7, 6729, Note_on_c, 9, 42, 28
7, 6733, Note_off_c, 9, 42, 64
7, 6766, Note_off_c, 9, 35, 64
7, 6832, Note_on_c, 9, 42, 93
7, 6836, Note_off_c, 9, 42, 64
7, 6850, Note_on_c, 9, 42, 28
7, 6859, Note_off_c, 9, 42, 64
7, 6954, Note_on_c, 9, 54, 69
7, 6954, Note_on_c, 9, 42, 103
7, 6954, Note_on_c, 9, 40, 70
7, 6960, Note_off_c, 9, 42, 64
7, 6967, Note_on_c, 9, 42, 28
7, 6970, Note_off_c, 9, 42, 64
7, 7000, Note_off_c, 9, 54, 64
7, 7008, Note_off_c, 9, 40, 64
7, 7071, Note_on_c, 9, 42, 99
7, 7076, Note_off_c, 9, 42, 64
7, 7091, Note_on_c, 9, 42, 28
7, 7095, Note_off_c, 9, 42, 64
7, 7192, Note_on_c, 9, 42, 103
7, 7194, Note_on_c, 9, 35, 58
7, 7199, Note_off_c, 9, 42, 64
7, 7207, Note_on_c, 9, 42, 28
7, 7214, Note_off_c, 9, 35, 64
7, 7217, Note_off_c, 9, 42, 64
7, 7311, Note_on_c, 9, 42, 87
7, 7313, Note_off_c, 9, 42, 64
7, 7330, Note_on_c, 9, 42, 28
7, 7340, Note_off_c, 9, 42, 64
7, 7434, Note_on_c, 9, 54, 72
7, 7434, Note_on_c, 9, 42, 103
7, 7434, Note_on_c, 9, 40, 70
7, 7437, Note_off_c, 9, 42, 64
7, 7449, Note_on_c, 9, 42, 28
7, 7454, Note_off_c, 9, 42, 64
7, 7471, Note_off_c, 9, 54, 64
7, 7487, Note_off_c, 9, 40, 64
7, 7552, Note_on_c, 9, 42, 103
7, 7552, Note_on_c, 9, 35, 63
7, 7558, Note_off_c, 9, 42, 64
7, 7569, Note_on_c, 9, 42, 28
7, 7579, Note_off_c, 9, 42, 64
7, 7590, Note_off_c, 9, 35, 64
7, 7673, Note_on_c, 9, 42, 103
7, 7675, Note_on_c, 9, 35, 62
7, 7678, Note_off_c, 9, 42, 64
7, 7687, Note_on_c, 9, 42, 28
7, 7696, Note_off_c, 9, 42, 64
7, 7696, Note_off_c, 9, 35, 64
7, 7794, Note_on_c, 9, 42, 83
7, 7797, Note_off_c, 9, 42, 64
7, 7810, Note_on_c, 9, 42, 28
7, 7815, Note_off_c, 9, 42, 64
7, 7913, Note_on_c, 9, 54, 65
7, 7913, Note_on_c, 9, 42, 103
7, 7913, Note_on_c, 9, 40, 70
7, 7918, Note_off_c, 9, 42, 64
7, 7925, Note_on_c, 9, 42, 28
7, 7932, Note_off_c, 9, 40, 64
7, 7935, Note_off_c, 9, 42, 64
7, 7956, Note_off_c, 9, 54, 64
7, 8032, Note_on_c, 9, 42, 70
7, 8036, Note_off_c, 9, 42, 64
7, 8052, Note_on_c, 9, 42, 28
7, 8056, Note_off_c, 9, 42, 64
7, 8152, Note_on_c, 9, 42, 103
7, 8152, Note_on_c, 9, 35, 57
7, 8156, Note_off_c, 9, 42, 64
7, 8171, Note_on_c, 9, 42, 28
7, 8176, Note_off_c, 9, 42, 64
7, 8176, Note_off_c, 9, 35, 64
7, 8272, Note_on_c, 9, 42, 74
7, 8277, Note_off_c, 9, 42, 64
7, 8292, Note_on_c, 9, 42, 28
7, 8295, Note_off_c, 9, 42, 64
7, 8392, Note_on_c, 9, 42, 103
7, 8392, Note_on_c, 9, 40, 70
7, 8394, Note_on_c, 9, 54, 73
7, 8395, Note_off_c, 9, 42, 64
7, 8406, Note_on_c, 9, 42, 28
7, 8419, Note_off_c, 9, 42, 64
7, 8419, Note_off_c, 9, 40, 64
7, 8432, Note_off_c, 9, 54, 64
7, 8511, Note_on_c, 9, 42, 88
7, 8513, Note_on_c, 9, 35, 58
7, 8517, Note_off_c, 9, 42, 64
7, 8527, Note_on_c, 9, 42, 28
7, 8535, Note_off_c, 9, 42, 64
7, 8550, Note_off_c, 9, 35, 64
7, 8631, Note_on_c, 9, 42, 103
7, 8633, Note_on_c, 9, 35, 66
7, 8637, Note_off_c, 9, 42, 64
7, 8650, Note_on_c, 9, 42, 28
7, 8655, Note_off_c, 9, 42, 64
7, 8655, Note_off_c, 9, 35, 64
7, 8752, Note_on_c, 9, 42, 72
7, 8754, Note_off_c, 9, 42, 64
7, 8769, Note_on_c, 9, 42, 28
7, 8774, Note_off_c, 9, 42, 64
7, 8871, Note_on_c, 9, 42, 103
7, 8873, Note_on_c, 9, 54, 70
7, 8873, Note_on_c, 9, 40, 69
7, 8877, Note_off_c, 9, 42, 64
7, 8889, Note_on_c, 9, 42, 28
7, 8894, Note_off_c, 9, 42, 64
7, 8894, Note_off_c, 9, 40, 64
7, 8911, Note_off_c, 9, 54, 64
7, 8992, Note_on_c, 9, 42, 66
7, 8996, Note_off_c, 9, 42, 64
7, 9012, Note_on_c, 9, 42, 28
7, 9016, Note_off_c, 9, 42, 64
7, 9112, Note_on_c, 9, 42, 103
7, 9114, Note_on_c, 9, 35, 55
7, 9119, Note_off_c, 9, 42, 64
7, 9129, Note_on_c, 9, 42, 28
7, 9133, Note_off_c, 9, 35, 64
7, 9135, Note_off_c, 9, 42, 64
7, 9232, Note_on_c, 9, 42, 70
7, 9236, Note_off_c, 9, 42, 64
7, 9251, Note_on_c, 9, 42, 28
7, 9256, Note_off_c, 9, 42, 64
7, 9352, Note_on_c, 9, 42, 103
7, 9355, Note_on_c, 9, 54, 69
7, 9355, Note_on_c, 9, 40, 70
7, 9360, Note_off_c, 9, 42, 64
7, 9367, Note_on_c, 9, 42, 28
7, 9369, Note_off_c, 9, 42, 64
7, 9392, Note_off_c, 9, 54, 64
7, 9400, Note_off_c, 9, 40, 64
7, 9472, Note_on_c, 9, 42, 103
7, 9474, Note_on_c, 9, 35, 63
7, 9478, Note_off_c, 9, 42, 64
7, 9490, Note_on_c, 9, 42, 28
7, 9493, Note_off_c, 9, 42, 64
7, 9508, Note_off_c, 9, 35, 64
7, 9590, Note_on_c, 9, 35, 74
7, 9590, Note_on_c, 9, 42, 103
7, 9597, Note_off_c, 9, 42, 64
7, 9610, Note_on_c, 9, 42, 28
7, 9615, Note_off_c, 9, 35, 64
7, 9618, Note_off_c, 9, 42, 64
7, 9713, Note_on_c, 9, 42, 87
7, 9718, Note_off_c, 9, 42, 64
7, 9730, Note_on_c, 9, 42, 28
7, 9734, Note_off_c, 9, 42, 64
7, 9832, Note_on_c, 9, 42, 103
7, 9834, Note_on_c, 9, 54, 70
7, 9834, Note_on_c, 9, 40, 74
7, 9837, Note_off_c, 9, 42, 64
7, 9849, Note_on_c, 9, 42, 28
7, 9855, Note_off_c, 9, 42, 64
7, 9880, Note_off_c, 9, 54, 64
7, 9887, Note_off_c, 9, 40, 64
7, 9950, Note_on_c, 9, 42, 77
7, 9956, Note_off_c, 9, 42, 64
7, 9970, Note_on_c, 9, 42, 28
7, 9973, Note_off_c, 9, 42, 64
7, 10074, Note_on_c, 9, 42, 103
7, 10074, Note_on_c, 9, 35, 57
7, 10079, Note_off_c, 9, 42, 64
7, 10090, Note_on_c, 9, 42, 28
7, 10096, Note_off_c, 9, 42, 64
7, 10096, Note_off_c, 9, 35, 64
7, 10188, Note_on_c, 9, 42, 82
7, 10200, Note_off_c, 9, 42, 64
7, 10207, Note_on_c, 9, 42, 28
7, 10211, Note_off_c, 9, 42, 64
7, 10314, Note_on_c, 9, 54, 71
7, 10314, Note_on_c, 9, 42, 103
7, 10314, Note_on_c, 9, 40, 69
7, 10320, Note_off_c, 9, 42, 64
7, 10329, Note_on_c, 9, 42, 28
7, 10332, Note_off_c, 9, 42, 64
7, 10356, Note_off_c, 9, 54, 64
7, 10360, Note_off_c, 9, 40, 64
7, 10429, Note_on_c, 9, 42, 101
7, 10429, Note_on_c, 9, 35, 62
7, 10436, Note_off_c, 9, 42, 64
7, 10449, Note_on_c, 9, 42, 28
7, 10457, Note_off_c, 9, 42, 64
7, 10472, Note_off_c, 9, 35, 64
7, 10552, Note_on_c, 9, 35, 66
7, 10552, Note_on_c, 9, 42, 103
7, 10557, Note_off_c, 9, 42, 64
7, 10569, Note_on_c, 9, 42, 28
7, 10571, Note_off_c, 9, 42, 64
7, 10606, Note_off_c, 9, 35, 64
7, 10670, Note_on_c, 9, 42, 93
7, 10680, Note_off_c, 9, 42, 64
7, 10687, Note_on_c, 9, 42, 28
7, 10697, Note_off_c, 9, 42, 64
7, 10795, Note_on_c, 9, 54, 69
7, 10795, Note_on_c, 9, 42, 103
7, 10795, Note_on_c, 9, 40, 70
7, 10800, Note_off_c, 9, 42, 64
7, 10807, Note_on_c, 9, 42, 28
7, 10810, Note_off_c, 9, 42, 64
7, 10840, Note_off_c, 9, 54, 64
7, 10847, Note_off_c, 9, 40, 64
7, 10910, Note_on_c, 9, 42, 99
7, 10915, Note_off_c, 9, 42, 64
7, 10931, Note_on_c, 9, 42, 28
7, 10939, Note_off_c, 9, 42, 64
7, 11032, Note_on_c, 9, 35, 65
7, 11038, Note_on_c, 9, 47, 74
7, 11055, Note_off_c, 9, 35, 64
7, 11072, Note_off_c, 9, 47, 64
7, 11143, Note_on_c, 9, 31, 38
7, 11145, Note_on_c, 9, 43, 46
7, 11149, Note_on_c, 9, 40, 34
7, 11156, Note_off_c, 9, 43, 64
7, 11167, Note_off_c, 9, 31, 64
7, 11167, Note_on_c, 9, 38, 40
7, 11175, Note_off_c, 9, 40, 64
7, 11184, Note_off_c, 9, 38, 64
7, 11184, Note_on_c, 9, 31, 43
7, 11213, Note_off_c, 9, 31, 64
7, 11220, Note_on_c, 9, 40, 34
7, 11230, Note_on_c, 9, 38, 36
7, 11243, Note_off_c, 9, 40, 64
7, 11248, Note_off_c, 9, 38, 64
7, 11267, Note_on_c, 9, 40, 81
7, 11275, Note_on_c, 9, 54, 73
7, 11277, Note_on_c, 9, 34, 76
7, 11285, Note_off_c, 9, 34, 64
7, 11305, Note_off_c, 9, 40, 64
7, 11315, Note_off_c, 9, 54, 64
7, 11394, Note_on_c, 9, 35, 63
7, 11430, Note_off_c, 9, 35, 64
7, 11506, Note_on_c, 9, 57, 52
7, 11518, Note_off_c, 9, 57, 64
7, 11518, Note_on_c, 9, 35, 62
7, 11518, Note_on_c, 9, 42, 103
7, 11522, Note_off_c, 9, 42, 64
7, 11529, Note_on_c, 9, 42, 28
7, 11540, Note_off_c, 9, 42, 64
7, 11540, Note_off_c, 9, 35, 64
7, 11632, Note_on_c, 9, 42, 83
7, 11636, Note_off_c, 9, 42, 64
7, 11647, Note_on_c, 9, 42, 28
7, 11654, Note_off_c, 9, 42, 64
7, 11752, Note_on_c, 9, 42, 103
7, 11754, Note_on_c, 9, 54, 65
7, 11754, Note_on_c, 9, 40, 70
7, 11758, Note_off_c, 9, 42, 64
7, 11768, Note_on_c, 9, 42, 28
7, 11773, Note_off_c, 9, 42, 64
7, 11773, Note_off_c, 9, 40, 64
7, 11793, Note_off_c, 9, 54, 64
7, 11873, Note_on_c, 9, 42, 70
7, 11877, Note_off_c, 9, 42, 64
7, 11890, Note_on_c, 9, 42, 28
7, 11896, Note_off_c, 9, 42, 64
7, 11989, Note_on_c, 9, 42, 103
7, 11989, Note_on_c, 9, 35, 57
7, 11994, Note_off_c, 9, 42, 64
7, 12007, Note_on_c, 9, 42, 28
7, 12017, Note_off_c, 9, 35, 64
7, 12020, Note_off_c, 9, 42, 64
7, 12111, Note_on_c, 9, 42, 74
7, 12118, Note_off_c, 9, 42, 64
7, 12127, Note_on_c, 9, 42, 28
7, 12135, Note_off_c, 9, 42, 64
7, 12233, Note_on_c, 9, 54, 73
7, 12240, Note_on_c, 9, 34, 76
7, 12245, Note_off_c, 9, 34, 64
7, 12271, Note_off_c, 9, 54, 64
7, 12351, Note_on_c, 9, 35, 63
7, 12393, Note_off_c, 9, 35, 64
7, 12465, Note_on_c, 9, 57, 52
7, 12475, Note_off_c, 9, 57, 64
7, 12475, Note_on_c, 9, 42, 103
7, 12477, Note_on_c, 9, 35, 62
7, 12482, Note_off_c, 9, 42, 64
7, 12485, Note_on_c, 9, 42, 28
7, 12491, Note_off_c, 9, 42, 64
7, 12491, Note_off_c, 9, 35, 64
7, 12594, Note_on_c, 9, 42, 83
7, 12596, Note_off_c, 9, 42, 64
7, 12609, Note_on_c, 9, 42, 28
7, 12613, Note_off_c, 9, 42, 64
7, 12714, Note_on_c, 9, 54, 65
7, 12714, Note_on_c, 9, 42, 103
7, 12714, Note_on_c, 9, 40, 70
7, 12719, Note_off_c, 9, 42, 64
7, 12725, Note_on_c, 9, 42, 28
7, 12730, Note_off_c, 9, 42, 64
7, 12730, Note_off_c, 9, 40, 64
7, 12752, Note_off_c, 9, 54, 64
7, 12831, Note_on_c, 9, 42, 70
7, 12836, Note_off_c, 9, 42, 64
7, 12849, Note_on_c, 9, 42, 28
7, 12854, Note_off_c, 9, 42, 64
7, 12951, Note_on_c, 9, 42, 103
7, 12953, Note_on_c, 9, 35, 57
7, 12957, Note_off_c, 9, 42, 64
7, 12969, Note_on_c, 9, 42, 28
7, 12974, Note_off_c, 9, 42, 64
7, 12974, Note_off_c, 9, 35, 64
7, 13072, Note_on_c, 9, 42, 74
7, 13074, Note_off_c, 9, 42, 64
7, 13090, Note_on_c, 9, 42, 28
7, 13094, Note_off_c, 9, 42, 64
7, 13193, Note_on_c, 9, 54, 73
7, 13200, Note_on_c, 9, 34, 76
7, 13202, Note_off_c, 9, 34, 64
7, 13232, Note_off_c, 9, 54, 64
7, 13312, Note_on_c, 9, 35, 63
7, 13352, Note_off_c, 9, 35, 64
7, 13428, Note_on_c, 9, 57, 52
7, 13436, Note_off_c, 9, 57, 64
7, 13438, Note_on_c, 9, 35, 62
7, 13438, Note_on_c, 9, 42, 103
7, 13442, Note_off_c, 9, 42, 64
7, 13448, Note_on_c, 9, 42, 28
7, 13451, Note_off_c, 9, 35, 64
7, 13454, Note_off_c, 9, 42, 64
7, 13552, Note_on_c, 9, 42, 83
7, 13557, Note_off_c, 9, 42, 64
7, 13567, Note_on_c, 9, 42, 28
7, 13575, Note_off_c, 9, 42, 64
7, 13674, Note_on_c, 9, 54, 65
7, 13674, Note_on_c, 9, 42, 103
7, 13674, Note_on_c, 9, 40, 70
7, 13680, Note_off_c, 9, 42, 64
7, 13689, Note_on_c, 9, 42, 28
7, 13699, Note_off_c, 9, 42, 64
7, 13699, Note_off_c, 9, 40, 64
7, 13716, Note_off_c, 9, 54, 64
7, 13792, Note_on_c, 9, 42, 70
7, 13796, Note_off_c, 9, 42, 64
7, 13809, Note_on_c, 9, 42, 28
7, 13813, Note_off_c, 9, 42, 64
7, 13912, Note_on_c, 9, 42, 103
7, 13913, Note_on_c, 9, 35, 57
7, 13915, Note_off_c, 9, 42, 64
7, 13926, Note_on_c, 9, 42, 28
7, 13931, Note_off_c, 9, 35, 64
7, 13934, Note_off_c, 9, 42, 64
7, 14032, Note_on_c, 9, 42, 74
7, 14036, Note_off_c, 9, 42, 64
7, 14051, Note_on_c, 9, 42, 28
7, 14056, Note_off_c, 9, 42, 64
7, 14153, Note_on_c, 9, 42, 103
7, 14153, Note_on_c, 9, 40, 70
7, 14155, Note_on_c, 9, 54, 73
7, 14160, Note_off_c, 9, 42, 64
7, 14165, Note_on_c, 9, 42, 28
7, 14179, Note_off_c, 9, 42, 64
7, 14179, Note_off_c, 9, 40, 64
7, 14194, Note_off_c, 9, 54, 64
7, 14270, Note_on_c, 9, 42, 88
7, 14273, Note_on_c, 9, 35, 58
7, 14278, Note_off_c, 9, 42, 64
7, 14291, Note_on_c, 9, 42, 28
7, 14298, Note_off_c, 9, 42, 64
7, 14310, Note_off_c, 9, 35, 64
7, 14389, Note_on_c, 9, 42, 103
7, 14390, Note_on_c, 9, 35, 66
7, 14396, Note_off_c, 9, 42, 64
7, 14407, Note_on_c, 9, 42, 28
7, 14419, Note_off_c, 9, 42, 64
7, 14419, Note_off_c, 9, 35, 64
7, 14510, Note_on_c, 9, 42, 72
7, 14520, Note_off_c, 9, 42, 64
7, 14527, Note_on_c, 9, 42, 28
7, 14533, Note_off_c, 9, 42, 64
7, 14633, Note_on_c, 9, 42, 103
7, 14633, Note_on_c, 9, 40, 69
7, 14636, Note_on_c, 9, 54, 70
7, 14640, Note_off_c, 9, 42, 64
7, 14649, Note_on_c, 9, 42, 28
7, 14652, Note_off_c, 9, 40, 64
7, 14654, Note_off_c, 9, 42, 64
7, 14666, Note_off_c, 9, 54, 64
7, 14752, Note_on_c, 9, 42, 66
7, 14756, Note_off_c, 9, 42, 64
7, 14771, Note_on_c, 9, 42, 28
7, 14776, Note_off_c, 9, 42, 64
7, 14874, Note_on_c, 9, 42, 103
7, 14874, Note_on_c, 9, 35, 55
7, 14878, Note_off_c, 9, 42, 64
7, 14891, Note_on_c, 9, 42, 28
7, 14896, Note_off_c, 9, 42, 64
7, 14896, Note_off_c, 9, 35, 64
7, 14990, Note_on_c, 9, 42, 70
7, 14998, Note_off_c, 9, 42, 64
7, 15012, Note_on_c, 9, 42, 28
7, 15014, Note_off_c, 9, 42, 64
7, 15113, Note_on_c, 9, 54, 69
7, 15113, Note_on_c, 9, 42, 103
7, 15113, Note_on_c, 9, 40, 70
7, 15120, Note_off_c, 9, 42, 64
7, 15130, Note_on_c, 9, 42, 28
7, 15135, Note_off_c, 9, 42, 64
7, 15152, Note_off_c, 9, 54, 64
7, 15158, Note_off_c, 9, 40, 64
7, 15234, Note_on_c, 9, 42, 103
7, 15234, Note_on_c, 9, 35, 63
7, 15239, Note_off_c, 9, 42, 64
7, 15247, Note_on_c, 9, 42, 28
7, 15251, Note_off_c, 9, 42, 64
7, 15269, Note_off_c, 9, 35, 64
7, 15350, Note_on_c, 9, 42, 103
7, 15353, Note_on_c, 9, 35, 74
7, 15358, Note_off_c, 9, 42, 64
7, 15369, Note_on_c, 9, 42, 28
7, 15374, Note_off_c, 9, 42, 64
7, 15374, Note_off_c, 9, 35, 64
7, 15472, Note_on_c, 9, 42, 87
7, 15476, Note_off_c, 9, 42, 64
7, 15486, Note_on_c, 9, 42, 28
7, 15492, Note_off_c, 9, 42, 64
7, 15588, Note_on_c, 9, 42, 103
7, 15588, Note_on_c, 9, 40, 74
7, 15591, Note_on_c, 9, 54, 70
7, 15600, Note_off_c, 9, 42, 64
7, 15609, Note_on_c, 9, 42, 28
7, 15617, Note_off_c, 9, 42, 64
7, 15640, Note_off_c, 9, 54, 64
7, 15642, Note_off_c, 9, 40, 64
7, 15712, Note_on_c, 9, 42, 77
7, 15716, Note_off_c, 9, 42, 64
7, 15730, Note_on_c, 9, 42, 28
7, 15735, Note_off_c, 9, 42, 64
7, 15834, Note_on_c, 9, 42, 103
7, 15834, Note_on_c, 9, 35, 57
7, 15838, Note_off_c, 9, 42, 64
7, 15852, Note_on_c, 9, 42, 28
7, 15860, Note_off_c, 9, 42, 64
7, 15860, Note_off_c, 9, 35, 64
7, 15950, Note_on_c, 9, 42, 82
7, 15955, Note_off_c, 9, 42, 64
7, 15970, Note_on_c, 9, 42, 28
7, 15974, Note_off_c, 9, 42, 64
7, 16072, Note_on_c, 9, 42, 103
7, 16073, Note_on_c, 9, 54, 71
7, 16073, Note_on_c, 9, 40, 69
7, 16077, Note_off_c, 9, 42, 64
7, 16088, Note_on_c, 9, 42, 28
7, 16094, Note_off_c, 9, 42, 64
7, 16114, Note_off_c, 9, 54, 64
7, 16120, Note_off_c, 9, 40, 64
7, 16190, Note_on_c, 9, 42, 101
7, 16193, Note_on_c, 9, 35, 62
7, 16199, Note_off_c, 9, 42, 64
7, 16205, Note_on_c, 9, 42, 28
7, 16218, Note_off_c, 9, 42, 64
7, 16234, Note_off_c, 9, 35, 64
7, 16312, Note_on_c, 9, 35, 66
7, 16312, Note_on_c, 9, 42, 103
7, 16317, Note_off_c, 9, 42, 64
7, 16328, Note_on_c, 9, 42, 28
7, 16335, Note_off_c, 9, 42, 64
7, 16364, Note_off_c, 9, 35, 64
7, 16428, Note_on_c, 9, 42, 93
7, 16437, Note_off_c, 9, 42, 64
7, 16447, Note_on_c, 9, 42, 28
7, 16453, Note_off_c, 9, 42, 64
7, 16552, Note_on_c, 9, 42, 103
7, 16554, Note_on_c, 9, 54, 69
7, 16554, Note_on_c, 9, 40, 70
7, 16559, Note_off_c, 9, 42, 64
7, 16568, Note_on_c, 9, 42, 28
7, 16575, Note_off_c, 9, 42, 64
7, 16601, Note_off_c, 9, 54, 64
7, 16606, Note_off_c, 9, 40, 64
7, 16672, Note_on_c, 9, 42, 99
7, 16676, Note_off_c, 9, 42, 64
7, 16690, Note_on_c, 9, 42, 28
7, 16693, Note_off_c, 9, 42, 64
7, 16793, Note_on_c, 9, 42, 103
7, 16793, Note_on_c, 9, 35, 58
7, 16798, Note_off_c, 9, 42, 64
7, 16808, Note_on_c, 9, 42, 28
7, 16815, Note_off_c, 9, 35, 64
7, 16818, Note_off_c, 9, 42, 64
7, 16908, Note_on_c, 9, 42, 87
7, 16913, Note_off_c, 9, 42, 64
7, 16931, Note_on_c, 9, 42, 28
7, 16935, Note_off_c, 9, 42, 64
7, 17034, Note_on_c, 9, 54, 72
7, 17034, Note_on_c, 9, 42, 103
7, 17034, Note_on_c, 9, 40, 70
7, 17040, Note_off_c, 9, 42, 64
7, 17046, Note_on_c, 9, 42, 28
7, 17056, Note_off_c, 9, 42, 64
7, 17073, Note_off_c, 9, 54, 64
7, 17085, Note_off_c, 9, 40, 64
7, 17152, Note_on_c, 9, 42, 103
7, 17154, Note_on_c, 9, 35, 63
7, 17157, Note_off_c, 9, 42, 64
7, 17169, Note_on_c, 9, 42, 28
7, 17174, Note_off_c, 9, 42, 64
7, 17193, Note_off_c, 9, 35, 64
7, 17273, Note_on_c, 9, 35, 62
7, 17273, Note_on_c, 9, 42, 103
7, 17279, Note_off_c, 9, 42, 64
7, 17287, Note_on_c, 9, 42, 28
7, 17297, Note_off_c, 9, 35, 64
7, 17300, Note_off_c, 9, 42, 64
7, 17389, Note_on_c, 9, 42, 83
7, 17394, Note_off_c, 9, 42, 64
7, 17412, Note_on_c, 9, 42, 28
7, 17414, Note_off_c, 9, 42, 64
7, 17512, Note_on_c, 9, 54, 65
7, 17512, Note_on_c, 9, 42, 103
7, 17512, Note_on_c, 9, 40, 70
7, 17517, Note_off_c, 9, 42, 64
7, 17533, Note_on_c, 9, 42, 28
7, 17539, Note_off_c, 9, 42, 64
7, 17539, Note_off_c, 9, 40, 64
7, 17551, Note_off_c, 9, 54, 64
7, 17626, Note_on_c, 9, 42, 70
7, 17633, Note_off_c, 9, 42, 64
7, 17649, Note_on_c, 9, 42, 28
7, 17653, Note_off_c, 9, 42, 64
7, 17752, Note_on_c, 9, 42, 103
7, 17752, Note_on_c, 9, 35, 57
7, 17760, Note_off_c, 9, 42, 64
7, 17767, Note_on_c, 9, 42, 28
7, 17776, Note_off_c, 9, 42, 64
7, 17776, Note_off_c, 9, 35, 64
7, 17872, Note_on_c, 9, 42, 74
7, 17876, Note_off_c, 9, 42, 64
7, 17888, Note_on_c, 9, 42, 28
7, 17893, Note_off_c, 9, 42, 64
7, 17994, Note_on_c, 9, 54, 73
7, 17994, Note_on_c, 9, 42, 103
7, 17994, Note_on_c, 9, 40, 70
7, 17998, Note_off_c, 9, 42, 64
7, 18007, Note_on_c, 9, 42, 28
7, 18013, Note_off_c, 9, 42, 64
7, 18013, Note_off_c, 9, 40, 64
7, 18034, Note_off_c, 9, 54, 64
7, 18113, Note_on_c, 9, 42, 88
7, 18113, Note_on_c, 9, 35, 58
7, 18120, Note_off_c, 9, 42, 64
7, 18128, Note_on_c, 9, 42, 28
7, 18134, Note_off_c, 9, 42, 64
7, 18150, Note_off_c, 9, 35, 64
7, 18231, Note_on_c, 9, 42, 103
7, 18232, Note_on_c, 9, 35, 66
7, 18238, Note_off_c, 9, 42, 64
7, 18250, Note_on_c, 9, 42, 28
7, 18256, Note_off_c, 9, 42, 64
7, 18256, Note_off_c, 9, 35, 64
7, 18352, Note_on_c, 9, 42, 72
7, 18356, Note_off_c, 9, 42, 64
7, 18371, Note_on_c, 9, 42, 28
7, 18376, Note_off_c, 9, 42, 64
7, 18476, Note_on_c, 9, 54, 65
7, 18484, Note_on_c, 9, 40, 70
7, 18484, Note_on_c, 9, 34, 52
7, 18510, Note_off_c, 9, 34, 64
7, 18512, Note_off_c, 9, 54, 64
7, 18524, Note_off_c, 9, 40, 64
7, 18592, Note_on_c, 9, 45, 58
7, 18643, Note_off_c, 9, 45, 64
7, 18715, Note_on_c, 9, 35, 65
7, 18720, Note_on_c, 9, 47, 74
7, 18730, Note_off_c, 9, 35, 64
7, 18751, Note_off_c, 9, 47, 64
7, 18822, Note_on_c, 9, 31, 38
7, 18825, Note_on_c, 9, 43, 46
7, 18832, Note_on_c, 9, 40, 34
7, 18840, Note_off_c, 9, 43, 64
7, 18848, Note_on_c, 9, 38, 40
7, 18852, Note_off_c, 9, 31, 64
7, 18861, Note_off_c, 9, 40, 64
7, 18865, Note_off_c, 9, 38, 64
7, 18865, Note_on_c, 9, 31, 43
7, 18893, Note_off_c, 9, 31, 64
7, 18899, Note_on_c, 9, 40, 34
7, 18907, Note_on_c, 9, 38, 36
7, 18923, Note_off_c, 9, 40, 64
7, 18925, Note_off_c, 9, 38, 64
7, 18948, Note_on_c, 9, 40, 81
7, 18954, Note_on_c, 9, 54, 73
7, 18954, Note_on_c, 9, 34, 76
7, 18968, Note_off_c, 9, 34, 64
7, 18989, Note_off_c, 9, 40, 64
7, 18995, Note_off_c, 9, 54, 64
7, 19074, Note_on_c, 9, 35, 63
7, 19111, Note_off_c, 9, 35, 64
7, 19186, Note_on_c, 9, 57, 52
7, 19196, Note_off_c, 9, 57, 64
7, 19196, Note_on_c, 9, 35, 62
7, 19196, Note_on_c, 9, 42, 103
7, 19200, Note_off_c, 9, 42, 64
7, 19200, Note_on_c, 9, 42, 103
7, 19201, Note_off_c, 9, 42, 64
7, 19207, Note_on_c, 9, 42, 28
7, 19217, Note_off_c, 9, 42, 64
7, 19311, Note_on_c, 9, 42, 83
7, 19316, Note_off_c, 9, 42, 64
7, 19329, Note_on_c, 9, 42, 28
7, 19334, Note_off_c, 9, 42, 64
7, 19450, Note_on_c, 9, 42, 28
7, 19455, Note_off_c, 9, 42, 64
7, 19548, Note_on_c, 9, 42, 70
7, 19554, Note_off_c, 9, 42, 64
7, 19572, Note_on_c, 9, 42, 28
7, 19574, Note_off_c, 9, 42, 64
7, 19672, Note_on_c, 9, 42, 103
7, 19676, Note_off_c, 9, 42, 64
7, 19688, Note_on_c, 9, 42, 28
7, 19697, Note_off_c, 9, 42, 64
7, 19794, Note_on_c, 9, 42, 74
7, 19800, Note_off_c, 9, 42, 64
7, 19806, Note_on_c, 9, 42, 28
7, 19813, Note_off_c, 9, 42, 64
7, 19926, Note_on_c, 9, 42, 28
7, 19931, Note_off_c, 9, 42, 64
7, 20030, Note_on_c, 9, 42, 88
7, 20037, Note_off_c, 9, 42, 64
7, 20048, Note_on_c, 9, 42, 28
7, 20057, Note_off_c, 9, 42, 64
7, 20153, Note_on_c, 9, 42, 103
7, 20158, Note_off_c, 9, 42, 64
7, 20160, Note_on_c, 9, 42, 103
7, 20161, Note_off_c, 9, 42, 64
7, 20167, Note_on_c, 9, 42, 28
7, 20177, Note_off_c, 9, 42, 64
7, 20271, Note_on_c, 9, 42, 83
7, 20276, Note_off_c, 9, 42, 64
7, 20289, Note_on_c, 9, 42, 28
7, 20294, Note_off_c, 9, 42, 64
7, 20410, Note_on_c, 9, 42, 28
7, 20415, Note_off_c, 9, 42, 64
7, 20508, Note_on_c, 9, 42, 70
7, 20514, Note_off_c, 9, 42, 64
7, 20532, Note_on_c, 9, 42, 28
7, 20534, Note_off_c, 9, 42, 64
7, 20632, Note_on_c, 9, 42, 103
7, 20636, Note_off_c, 9, 42, 64
7, 20648, Note_on_c, 9, 42, 28
7, 20657, Note_off_c, 9, 42, 64
7, 20754, Note_on_c, 9, 42, 74
7, 20760, Note_off_c, 9, 42, 64
7, 20766, Note_on_c, 9, 42, 28
7, 20773, Note_off_c, 9, 42, 64
7, 20886, Note_on_c, 9, 42, 28
7, 20891, Note_off_c, 9, 42, 64
7, 20990, Note_on_c, 9, 42, 88
7, 20997, Note_off_c, 9, 42, 64
7, 21008, Note_on_c, 9, 42, 28
7, 21017, Note_off_c, 9, 42, 64
7, 21113, Note_on_c, 9, 35, 66
7, 21113, Note_on_c, 9, 42, 103
7, 21118, Note_off_c, 9, 42, 64
7, 21120, Note_off_c, 9, 35, 64
7, 21120, Note_on_c, 9, 42, 103
7, 21121, Note_off_c, 9, 42, 64
7, 21127, Note_on_c, 9, 42, 28
7, 21137, Note_off_c, 9, 42, 64
7, 21231, Note_on_c, 9, 42, 83
7, 21236, Note_off_c, 9, 42, 64
7, 21249, Note_on_c, 9, 42, 28
7, 21254, Note_off_c, 9, 42, 64
7, 21370, Note_on_c, 9, 42, 28
7, 21375, Note_off_c, 9, 42, 64
7, 21468, Note_on_c, 9, 42, 70
7, 21474, Note_off_c, 9, 42, 64
7, 21492, Note_on_c, 9, 42, 28
7, 21494, Note_off_c, 9, 42, 64
7, 21592, Note_on_c, 9, 42, 103
7, 21596, Note_off_c, 9, 42, 64
7, 21608, Note_on_c, 9, 42, 28
7, 21617, Note_off_c, 9, 42, 64
7, 21714, Note_on_c, 9, 42, 74
7, 21720, Note_off_c, 9, 42, 64
7, 21726, Note_on_c, 9, 42, 28
7, 21733, Note_off_c, 9, 42, 64
7, 21846, Note_on_c, 9, 42, 28
7, 21851, Note_off_c, 9, 42, 64
7, 21950, Note_on_c, 9, 42, 88
7, 21957, Note_off_c, 9, 42, 64
7, 21968, Note_on_c, 9, 42, 28
7, 21977, Note_off_c, 9, 42, 64
7, 22073, Note_on_c, 9, 42, 103
7, 22078, Note_off_c, 9, 42, 64
7, 22080, Note_on_c, 9, 42, 103
7, 22081, Note_off_c, 9, 42, 64
7, 22087, Note_on_c, 9, 42, 28
7, 22097, Note_off_c, 9, 42, 64
7, 22191, Note_on_c, 9, 42, 83
7, 22196, Note_off_c, 9, 42, 64
7, 22209, Note_on_c, 9, 42, 28
7, 22214, Note_off_c, 9, 42, 64
7, 22330, Note_on_c, 9, 42, 28
7, 22335, Note_off_c, 9, 42, 64
7, 22428, Note_on_c, 9, 42, 70
7, 22434, Note_off_c, 9, 42, 64
7, 22452, Note_on_c, 9, 42, 28
7, 22454, Note_off_c, 9, 42, 64
7, 22552, Note_on_c, 9, 42, 103
7, 22556, Note_off_c, 9, 42, 64
7, 22568, Note_on_c, 9, 42, 28
7, 22577, Note_off_c, 9, 42, 64
7, 22674, Note_on_c, 9, 42, 74
7, 22680, Note_off_c, 9, 42, 64
7, 22686, Note_on_c, 9, 42, 28
7, 22693, Note_off_c, 9, 42, 64
7, 22806, Note_on_c, 9, 42, 28
7, 22811, Note_off_c, 9, 42, 64
7, 22910, Note_on_c, 9, 42, 88
7, 22917, Note_off_c, 9, 42, 64
7, 22928, Note_on_c, 9, 42, 28
7, 22937, Note_off_c, 9, 42, 64
7, 23033, Note_on_c, 9, 35, 66
7, 23033, Note_on_c, 9, 42, 103
7, 23038, Note_off_c, 9, 42, 64
7, 23040, Note_off_c, 9, 35, 64
7, 23048, Note_on_c, 9, 42, 28
7, 23054, Note_off_c, 9, 35, 64
7, 23057, Note_off_c, 9, 42, 64
7, 23152, Note_on_c, 9, 42, 83
7, 23155, Note_off_c, 9, 42, 64
7, 23167, Note_on_c, 9, 42, 28
7, 23171, Note_off_c, 9, 42, 64
7, 23272, Note_on_c, 9, 42, 103
7, 23274, Note_on_c, 9, 54, 65
7, 23274, Note_on_c, 9, 40, 70
7, 23278, Note_off_c, 9, 42, 64
7, 23285, Note_on_c, 9, 42, 28
7, 23291, Note_off_c, 9, 42, 64
7, 23291, Note_off_c, 9, 40, 64
7, 23312, Note_off_c, 9, 54, 64
7, 23391, Note_on_c, 9, 42, 70
7, 23397, Note_off_c, 9, 42, 64
7, 23412, Note_on_c, 9, 42, 28
7, 23414, Note_off_c, 9, 42, 64
7, 23514, Note_on_c, 9, 42, 103
7, 23514, Note_on_c, 9, 35, 57
7, 23518, Note_off_c, 9, 42, 64
7, 23528, Note_on_c, 9, 42, 28
7, 23536, Note_off_c, 9, 35, 64
7, 23538, Note_off_c, 9, 42, 64
7, 23632, Note_on_c, 9, 42, 74
7, 23635, Note_off_c, 9, 42, 64
7, 23649, Note_on_c, 9, 42, 28
7, 23656, Note_off_c, 9, 42, 64
7, 23752, Note_on_c, 9, 42, 103
7, 23754, Note_on_c, 9, 54, 73
7, 23754, Note_on_c, 9, 40, 70
7, 23759, Note_off_c, 9, 42, 64
7, 23769, Note_on_c, 9, 42, 28
7, 23776, Note_off_c, 9, 40, 64
7, 23780, Note_off_c, 9, 42, 64
7, 23793, Note_off_c, 9, 54, 64
7, 23872, Note_on_c, 9, 42, 88
7, 23872, Note_on_c, 9, 35, 58
7, 23880, Note_off_c, 9, 42, 64
7, 23887, Note_on_c, 9, 42, 28
7, 23894, Note_off_c, 9, 42, 64
7, 23909, Note_off_c, 9, 35, 64
7, 23989, Note_on_c, 9, 42, 103
7, 23992, Note_on_c, 9, 35, 66
7, 23994, Note_off_c, 9, 42, 64
7, 24009, Note_on_c, 9, 42, 28
7, 24014, Note_off_c, 9, 42, 64
7, 24014, Note_off_c, 9, 35, 64
7, 24112, Note_on_c, 9, 42, 72
7, 24116, Note_off_c, 9, 42, 64
7, 24130, Note_on_c, 9, 42, 28
7, 24135, Note_off_c, 9, 42, 64
7, 24230, Note_on_c, 9, 42, 103
7, 24233, Note_on_c, 9, 54, 70
7, 24233, Note_on_c, 9, 40, 69
7, 24238, Note_off_c, 9, 42, 64
7, 24246, Note_on_c, 9, 42, 28
7, 24254, Note_off_c, 9, 42, 64
7, 24254, Note_off_c, 9, 40, 64
7, 24272, Note_off_c, 9, 54, 64
7, 24350, Note_on_c, 9, 42, 66
7, 24356, Note_off_c, 9, 42, 64
7, 24370, Note_on_c, 9, 42, 28
7, 24375, Note_off_c, 9, 42, 64
7, 24475, Note_on_c, 9, 42, 103
7, 24475, Note_on_c, 9, 35, 55
7, 24482, Note_off_c, 9, 42, 64
7, 24490, Note_on_c, 9, 42, 28
7, 24493, Note_off_c, 9, 35, 64
7, 24495, Note_off_c, 9, 42, 64
7, 24594, Note_on_c, 9, 42, 70
7, 24596, Note_off_c, 9, 42, 64
7, 24610, Note_on_c, 9, 42, 28
7, 24617, Note_off_c, 9, 42, 64
7, 24709, Note_on_c, 9, 42, 103
7, 24709, Note_on_c, 9, 40, 70
7, 24713, Note_on_c, 9, 54, 69
7, 24717, Note_off_c, 9, 42, 64
7, 24727, Note_on_c, 9, 42, 28
7, 24730, Note_off_c, 9, 42, 64
7, 24751, Note_off_c, 9, 54, 64
7, 24761, Note_off_c, 9, 40, 64
7, 24834, Note_on_c, 9, 42, 103
7, 24834, Note_on_c, 9, 35, 63
7, 24839, Note_off_c, 9, 42, 64
7, 24850, Note_on_c, 9, 42, 28
7, 24855, Note_off_c, 9, 42, 64
7, 24870, Note_off_c, 9, 35, 64
7, 24952, Note_on_c, 9, 35, 74
7, 24952, Note_on_c, 9, 42, 103
7, 24955, Note_off_c, 9, 42, 64
7, 24968, Note_on_c, 9, 42, 28
7, 24975, Note_off_c, 9, 35, 64
7, 24979, Note_off_c, 9, 42, 64
7, 25071, Note_on_c, 9, 42, 87
7, 25076, Note_off_c, 9, 42, 64
7, 25092, Note_on_c, 9, 42, 28
7, 25096, Note_off_c, 9, 42, 64
7, 25191, Note_on_c, 9, 54, 70
7, 25191, Note_on_c, 9, 42, 103
7, 25191, Note_on_c, 9, 40, 74
7, 25196, Note_off_c, 9, 42, 64
7, 25207, Note_on_c, 9, 42, 28
7, 25211, Note_off_c, 9, 42, 64
7, 25242, Note_off_c, 9, 54, 64
7, 25243, Note_off_c, 9, 40, 64
7, 25311, Note_on_c, 9, 42, 77
7, 25316, Note_off_c, 9, 42, 64
7, 25330, Note_on_c, 9, 42, 28
7, 25338, Note_off_c, 9, 42, 64
7, 25433, Note_on_c, 9, 42, 103
7, 25433, Note_on_c, 9, 35, 57
7, 25436, Note_off_c, 9, 42, 64
7, 25450, Note_on_c, 9, 42, 28
7, 25455, Note_off_c, 9, 35, 64
7, 25457, Note_off_c, 9, 42, 64
7, 25552, Note_on_c, 9, 42, 82
7, 25556, Note_off_c, 9, 42, 64
7, 25568, Note_on_c, 9, 42, 28
7, 25576, Note_off_c, 9, 42, 64
7, 25674, Note_on_c, 9, 42, 103
7, 25674, Note_on_c, 9, 40, 69
7, 25676, Note_on_c, 9, 54, 71
7, 25679, Note_off_c, 9, 42, 64
7, 25688, Note_on_c, 9, 42, 28
7, 25694, Note_off_c, 9, 42, 64
7, 25716, Note_off_c, 9, 54, 64
7, 25722, Note_off_c, 9, 40, 64
7, 25788, Note_on_c, 9, 42, 101
7, 25791, Note_on_c, 9, 35, 62
7, 25794, Note_off_c, 9, 42, 64
7, 25809, Note_on_c, 9, 42, 28
7, 25819, Note_off_c, 9, 42, 64
7, 25834, Note_off_c, 9, 35, 64
7, 25913, Note_on_c, 9, 35, 66
7, 25913, Note_on_c, 9, 42, 103
7, 25918, Note_off_c, 9, 42, 64
7, 25932, Note_on_c, 9, 42, 28
7, 25935, Note_off_c, 9, 42, 64
7, 25965, Note_off_c, 9, 35, 64
7, 26030, Note_on_c, 9, 42, 93
7, 26032, Note_off_c, 9, 42, 64
7, 26050, Note_on_c, 9, 42, 28
7, 26056, Note_off_c, 9, 42, 64
7, 26155, Note_on_c, 9, 54, 69
7, 26155, Note_on_c, 9, 42, 103
7, 26155, Note_on_c, 9, 40, 70
7, 26161, Note_off_c, 9, 42, 64
7, 26168, Note_on_c, 9, 42, 28
7, 26175, Note_off_c, 9, 42, 64
7, 26200, Note_off_c, 9, 54, 64
7, 26208, Note_off_c, 9, 40, 64
7, 26269, Note_on_c, 9, 42, 99
7, 26274, Note_off_c, 9, 42, 64
7, 26290, Note_on_c, 9, 42, 28
7, 26294, Note_off_c, 9, 42, 64
7, 26394, Note_on_c, 9, 35, 65
7, 26400, Note_on_c, 9, 47, 74
7, 26420, Note_off_c, 9, 35, 64
7, 26432, Note_off_c, 9, 47, 64
7, 26505, Note_on_c, 9, 43, 46
7, 26505, Note_on_c, 9, 31, 38
7, 26516, Note_on_c, 9, 40, 34
7, 26520, Note_off_c, 9, 43, 64
7, 26526, Note_on_c, 9, 38, 40
7, 26527, Note_off_c, 9, 31, 64
7, 26535, Note_off_c, 9, 40, 64
7, 26544, Note_off_c, 9, 38, 64
7, 26544, Note_on_c, 9, 31, 43
7, 26579, Note_off_c, 9, 31, 64
7, 26579, Note_on_c, 9, 40, 34
7, 26587, Note_on_c, 9, 38, 36
7, 26601, Note_off_c, 9, 40, 64
7, 26603, Note_off_c, 9, 38, 64
7, 26627, Note_on_c, 9, 40, 81
7, 26635, Note_on_c, 9, 54, 73
7, 26635, Note_on_c, 9, 34, 76
7, 26645, Note_off_c, 9, 34, 64
7, 26661, Note_off_c, 9, 40, 64
7, 26678, Note_off_c, 9, 54, 64
7, 26751, Note_on_c, 9, 35, 63
7, 26790, Note_off_c, 9, 35, 64
7, 26867, Note_on_c, 9, 57, 52
7, 26876, Note_off_c, 9, 57, 64
7, 26876, Note_on_c, 9, 42, 103
7, 26878, Note_on_c, 9, 35, 62
7, 26882, Note_off_c, 9, 42, 64
7, 26887, Note_on_c, 9, 42, 28
7, 26894, Note_off_c, 9, 42, 64
7, 26894, Note_off_c, 9, 35, 64
7, 26990, Note_on_c, 9, 42, 83
7, 26995, Note_off_c, 9, 42, 64
7, 27011, Note_on_c, 9, 42, 28
7, 27015, Note_off_c, 9, 42, 64
7, 27113, Note_on_c, 9, 54, 65
7, 27113, Note_on_c, 9, 42, 103
7, 27113, Note_on_c, 9, 40, 70
7, 27120, Note_off_c, 9, 42, 64
7, 27128, Note_on_c, 9, 42, 28
7, 27135, Note_off_c, 9, 42, 64
7, 27135, Note_off_c, 9, 40, 64
7, 27152, Note_off_c, 9, 54, 64
7, 27231, Note_on_c, 9, 42, 70
7, 27239, Note_off_c, 9, 42, 64
7, 27248, Note_on_c, 9, 42, 28
7, 27256, Note_off_c, 9, 42, 64
7, 27352, Note_on_c, 9, 42, 103
7, 27352, Note_on_c, 9, 35, 57
7, 27358, Note_off_c, 9, 42, 64
7, 27368, Note_on_c, 9, 42, 28
7, 27375, Note_off_c, 9, 42, 64
7, 27375, Note_off_c, 9, 35, 64
7, 27472, Note_on_c, 9, 42, 74
7, 27477, Note_off_c, 9, 42, 64
7, 27490, Note_on_c, 9, 42, 28
7, 27494, Note_off_c, 9, 42, 64
7, 27593, Note_on_c, 9, 54, 73
7, 27600, Note_on_c, 9, 34, 76
7, 27605, Note_off_c, 9, 34, 64
7, 27632, Note_off_c, 9, 54, 64
7, 27712, Note_on_c, 9, 35, 63
7, 27750, Note_off_c, 9, 35, 64
7, 27830, Note_on_c, 9, 57, 52
7, 27834, Note_off_c, 9, 57, 64
7, 27836, Note_on_c, 9, 35, 62
7, 27836, Note_on_c, 9, 42, 103
7, 27840, Note_off_c, 9, 42, 64
7, 27844, Note_on_c, 9, 42, 28
7, 27852, Note_off_c, 9, 42, 64
7, 27852, Note_off_c, 9, 35, 64
7, 27952, Note_on_c, 9, 42, 83
7, 27956, Note_off_c, 9, 42, 64
7, 27971, Note_on_c, 9, 42, 28
7, 27976, Note_off_c, 9, 42, 64
7, 28072, Note_on_c, 9, 42, 103
7, 28074, Note_on_c, 9, 54, 65
7, 28074, Note_on_c, 9, 40, 70
7, 28078, Note_off_c, 9, 42, 64
7, 28087, Note_on_c, 9, 42, 28
7, 28095, Note_off_c, 9, 40, 64
7, 28100, Note_off_c, 9, 42, 64
7, 28114, Note_off_c, 9, 54, 64
7, 28192, Note_on_c, 9, 42, 70
7, 28198, Note_off_c, 9, 42, 64
7, 28210, Note_on_c, 9, 42, 28
7, 28218, Note_off_c, 9, 42, 64
7, 28312, Note_on_c, 9, 42, 103
7, 28312, Note_on_c, 9, 35, 57
7, 28317, Note_off_c, 9, 42, 64
7, 28325, Note_on_c, 9, 42, 28
7, 28339, Note_off_c, 9, 42, 64
7, 28339, Note_off_c, 9, 35, 64
7, 28430, Note_on_c, 9, 42, 74
7, 28435, Note_off_c, 9, 42, 64
7, 28449, Note_on_c, 9, 42, 28
7, 28454, Note_off_c, 9, 42, 64
7, 28554, Note_on_c, 9, 54, 73
7, 28558, Note_on_c, 9, 34, 76
7, 28565, Note_off_c, 9, 34, 64
7, 28595, Note_off_c, 9, 54, 64
7, 28673, Note_on_c, 9, 35, 63
7, 28712, Note_off_c, 9, 35, 64
7, 28786, Note_on_c, 9, 57, 52
7, 28794, Note_off_c, 9, 57, 64
7, 28796, Note_on_c, 9, 35, 62
7, 28796, Note_on_c, 9, 42, 103
7, 28801, Note_off_c, 9, 42, 64
7, 28805, Note_on_c, 9, 42, 28
7, 28819, Note_off_c, 9, 42, 64
7, 28819, Note_off_c, 9, 35, 64
7, 28912, Note_on_c, 9, 42, 83
7, 28919, Note_off_c, 9, 42, 64
7, 28927, Note_on_c, 9, 42, 28
7, 28938, Note_off_c, 9, 42, 64
7, 29030, Note_on_c, 9, 42, 103
7, 29032, Note_on_c, 9, 54, 65
7, 29032, Note_on_c, 9, 40, 70
7, 29037, Note_off_c, 9, 42, 64
7, 29047, Note_on_c, 9, 42, 28
7, 29055, Note_off_c, 9, 40, 64
7, 29056, Note_off_c, 9, 42, 64
7, 29074, Note_off_c, 9, 54, 64
7, 29150, Note_on_c, 9, 42, 70
7, 29156, Note_off_c, 9, 42, 64
7, 29170, Note_on_c, 9, 42, 28
7, 29176, Note_off_c, 9, 42, 64
7, 29274, Note_on_c, 9, 42, 103
7, 29276, Note_on_c, 9, 35, 57
7, 29280, Note_off_c, 9, 42, 64
7, 29287, Note_on_c, 9, 42, 28
7, 29299, Note_off_c, 9, 35, 64
7, 29300, Note_off_c, 9, 42, 64
7, 29390, Note_on_c, 9, 42, 74
7, 29396, Note_off_c, 9, 42, 64
7, 29408, Note_on_c, 9, 42, 28
7, 29415, Note_off_c, 9, 42, 64
7, 29512, Note_on_c, 9, 42, 103
7, 29513, Note_on_c, 9, 54, 73
7, 29513, Note_on_c, 9, 40, 70
7, 29519, Note_off_c, 9, 42, 64
7, 29528, Note_on_c, 9, 42, 28
7, 29533, Note_off_c, 9, 42, 64
7, 29533, Note_off_c, 9, 40, 64
7, 29552, Note_off_c, 9, 54, 64
7, 29634, Note_on_c, 9, 42, 88
7, 29634, Note_on_c, 9, 35, 58
7, 29640, Note_off_c, 9, 42, 64
7, 29652, Note_on_c, 9, 42, 28
7, 29654, Note_off_c, 9, 42, 64
7, 29668, Note_off_c, 9, 35, 64
7, 29752, Note_on_c, 9, 42, 103
7, 29753, Note_on_c, 9, 35, 66
7, 29757, Note_off_c, 9, 42, 64
7, 29767, Note_on_c, 9, 42, 28
7, 29775, Note_off_c, 9, 35, 64
7, 29778, Note_off_c, 9, 42, 64
7, 29872, Note_on_c, 9, 42, 72
7, 29876, Note_off_c, 9, 42, 64
7, 29892, Note_on_c, 9, 42, 28
7, 29894, Note_off_c, 9, 42, 64
7, 29992, Note_on_c, 9, 54, 70
7, 29992, Note_on_c, 9, 42, 103
7, 29992, Note_on_c, 9, 40, 69
7, 29998, Note_off_c, 9, 42, 64
7, 30004, Note_on_c, 9, 42, 28
7, 30010, Note_off_c, 9, 40, 64
7, 30014, Note_off_c, 9, 42, 64
7, 30030, Note_off_c, 9, 54, 64
7, 30112, Note_on_c, 9, 42, 66
7, 30117, Note_off_c, 9, 42, 64
7, 30126, Note_on_c, 9, 42, 28
7, 30131, Note_off_c, 9, 42, 64
7, 30234, Note_on_c, 9, 42, 103
7, 30234, Note_on_c, 9, 35, 55
7, 30238, Note_off_c, 9, 42, 64
7, 30248, Note_on_c, 9, 42, 28
7, 30254, Note_off_c, 9, 42, 64
7, 30254, Note_off_c, 9, 35, 64
7, 30352, Note_on_c, 9, 42, 70
7, 30356, Note_off_c, 9, 42, 64
7, 30369, Note_on_c, 9, 42, 28
7, 30375, Note_off_c, 9, 42, 64
7, 30473, Note_on_c, 9, 54, 69
7, 30473, Note_on_c, 9, 42, 103
7, 30473, Note_on_c, 9, 40, 70
7, 30480, Note_off_c, 9, 42, 64
7, 30488, Note_on_c, 9, 42, 28
7, 30497, Note_off_c, 9, 42, 64
7, 30512, Note_off_c, 9, 54, 64
7, 30521, Note_off_c, 9, 40, 64
7, 30590, Note_on_c, 9, 42, 103
7, 30591, Note_on_c, 9, 35, 63
7, 30597, Note_off_c, 9, 42, 64
7, 30610, Note_on_c, 9, 42, 28
7, 30615, Note_off_c, 9, 42, 64
7, 30630, Note_off_c, 9, 35, 64
7, 30712, Note_on_c, 9, 35, 74
7, 30712, Note_on_c, 9, 42, 103
7, 30720, Note_off_c, 9, 42, 64
7, 30729, Note_on_c, 9, 42, 28
7, 30734, Note_off_c, 9, 42, 64
7, 30734, Note_off_c, 9, 35, 64
7, 30832, Note_on_c, 9, 42, 87
7, 30838, Note_off_c, 9, 42, 64
7, 30851, Note_on_c, 9, 42, 28
7, 30855, Note_off_c, 9, 42, 64
7, 30953, Note_on_c, 9, 42, 103
7, 30953, Note_on_c, 9, 40, 74
7, 30956, Note_on_c, 9, 54, 70
7, 30960, Note_off_c, 9, 42, 64
7, 30968, Note_on_c, 9, 42, 28
7, 30975, Note_off_c, 9, 42, 64
7, 31002, Note_off_c, 9, 54, 64
7, 31006, Note_off_c, 9, 40, 64
7, 31074, Note_on_c, 9, 42, 77
7, 31078, Note_off_c, 9, 42, 64
7, 31090, Note_on_c, 9, 42, 28
7, 31095, Note_off_c, 9, 42, 64
7, 31192, Note_on_c, 9, 42, 103
7, 31192, Note_on_c, 9, 35, 57
7, 31195, Note_off_c, 9, 42, 64
7, 31204, Note_on_c, 9, 42, 28
7, 31215, Note_off_c, 9, 42, 64
7, 31215, Note_off_c, 9, 35, 64
7, 31310, Note_on_c, 9, 42, 82
7, 31315, Note_off_c, 9, 42, 64
7, 31328, Note_on_c, 9, 42, 28
7, 31331, Note_off_c, 9, 42, 64
7, 31433, Note_on_c, 9, 42, 103
7, 31433, Note_on_c, 9, 40, 69
7, 31435, Note_on_c, 9, 54, 71
7, 31440, Note_off_c, 9, 42, 64
7, 31450, Note_on_c, 9, 42, 28
7, 31455, Note_off_c, 9, 42, 64
7, 31474, Note_off_c, 9, 54, 64
7, 31479, Note_off_c, 9, 40, 64
7, 31553, Note_on_c, 9, 42, 101
7, 31553, Note_on_c, 9, 35, 62
7, 31558, Note_off_c, 9, 42, 64
7, 31563, Note_on_c, 9, 42, 28
7, 31576, Note_off_c, 9, 42, 64
7, 31593, Note_off_c, 9, 35, 64
7, 31671, Note_on_c, 9, 42, 103
7, 31673, Note_on_c, 9, 35, 66
7, 31679, Note_off_c, 9, 42, 64
7, 31689, Note_on_c, 9, 42, 28
7, 31695, Note_off_c, 9, 42, 64
7, 31726, Note_off_c, 9, 35, 64
7, 31792, Note_on_c, 9, 42, 93
7, 31796, Note_off_c, 9, 42, 64
7, 31808, Note_on_c, 9, 42, 28
7, 31818, Note_off_c, 9, 42, 64
7, 31911, Note_on_c, 9, 42, 103
7, 31913, Note_on_c, 9, 54, 69
7, 31913, Note_on_c, 9, 40, 70
7, 31920, Note_off_c, 9, 42, 64
7, 31928, Note_on_c, 9, 42, 28
7, 31935, Note_off_c, 9, 42, 64
7, 31958, Note_off_c, 9, 54, 64
7, 31968, Note_off_c, 9, 40, 64
7, 32031, Note_on_c, 9, 42, 99
7, 32033, Note_off_c, 9, 42, 64
7, 32049, Note_on_c, 9, 42, 28
7, 32054, Note_off_c, 9, 42, 64
7, 32151, Note_on_c, 9, 42, 103
7, 32153, Note_on_c, 9, 35, 58
7, 32158, Note_off_c, 9, 42, 64
7, 32168, Note_on_c, 9, 42, 28
7, 32175, Note_off_c, 9, 35, 64
7, 32178, Note_off_c, 9, 42, 64
7, 32269, Note_on_c, 9, 42, 87
7, 32280, Note_off_c, 9, 42, 64
7, 32287, Note_on_c, 9, 42, 28
7, 32292, Note_off_c, 9, 42, 64
7, 32394, Note_on_c, 9, 54, 72
7, 32394, Note_on_c, 9, 42, 103
7, 32394, Note_on_c, 9, 40, 70
7, 32400, Note_off_c, 9, 42, 64
7, 32407, Note_on_c, 9, 42, 28
7, 32412, Note_off_c, 9, 42, 64
7, 32434, Note_off_c, 9, 54, 64
7, 32445, Note_off_c, 9, 40, 64
7, 32515, Note_on_c, 9, 42, 103
7, 32515, Note_on_c, 9, 35, 63
7, 32519, Note_off_c, 9, 42, 64
7, 32527, Note_on_c, 9, 42, 28
7, 32530, Note_off_c, 9, 42, 64
7, 32548, Note_off_c, 9, 35, 64
7, 32631, Note_on_c, 9, 35, 62
7, 32631, Note_on_c, 9, 42, 103
7, 32639, Note_off_c, 9, 42, 64
7, 32647, Note_on_c, 9, 42, 28
7, 32659, Note_off_c, 9, 42, 64
7, 32659, Note_off_c, 9, 35, 64
7, 32753, Note_on_c, 9, 42, 83
7, 32755, Note_off_c, 9, 42, 64
7, 32772, Note_on_c, 9, 42, 28
7, 32774, Note_off_c, 9, 42, 64
7, 32873, Note_on_c, 9, 42, 103
7, 32875, Note_on_c, 9, 54, 65
7, 32875, Note_on_c, 9, 40, 70
7, 32880, Note_off_c, 9, 42, 64
7, 32888, Note_on_c, 9, 42, 28
7, 32900, Note_off_c, 9, 42, 64
7, 32900, Note_off_c, 9, 40, 64
7, 32912, Note_off_c, 9, 54, 64
7, 32991, Note_on_c, 9, 42, 70
7, 32996, Note_off_c, 9, 42, 64
7, 33012, Note_on_c, 9, 42, 28
7, 33016, Note_off_c, 9, 42, 64
7, 33114, Note_on_c, 9, 42, 103
7, 33114, Note_on_c, 9, 35, 57
7, 33121, Note_off_c, 9, 42, 64
7, 33130, Note_on_c, 9, 42, 28
7, 33136, Note_off_c, 9, 42, 64
7, 33136, Note_off_c, 9, 35, 64
7, 33234, Note_on_c, 9, 42, 74
7, 33238, Note_off_c, 9, 42, 64
7, 33248, Note_on_c, 9, 42, 28
7, 33251, Note_off_c, 9, 42, 64
7, 33355, Note_on_c, 9, 54, 73
7, 33355, Note_on_c, 9, 42, 103
7, 33355, Note_on_c, 9, 40, 70
7, 33361, Note_off_c, 9, 42, 64
7, 33369, Note_on_c, 9, 42, 28
7, 33375, Note_off_c, 9, 42, 64
7, 33375, Note_off_c, 9, 40, 64
7, 33391, Note_off_c, 9, 54, 64
7, 33473, Note_on_c, 9, 42, 88
7, 33473, Note_on_c, 9, 35, 58
7, 33478, Note_off_c, 9, 42, 64
7, 33486, Note_on_c, 9, 42, 28
7, 33500, Note_off_c, 9, 42, 64
7, 33509, Note_off_c, 9, 35, 64
7, 33593, Note_on_c, 9, 46, 83
7, 33600, Note_on_c, 9, 35, 66
7, 33602, Note_on_c, 9, 49, 52
7, 33623, Note_off_c, 9, 49, 64
7, 33646, Note_off_c, 9, 46, 64
7, 33650, Note_off_c, 9, 35, 64
7, 33719, Note_on_c, 9, 31, 57
7, 33762, Note_off_c, 9, 31, 64
7, 33832, Note_on_c, 9, 54, 65
7, 33837, Note_on_c, 9, 40, 70
7, 33840, Note_on_c, 9, 34, 52
7, 33864, Note_off_c, 9, 34, 64
7, 33873, Note_off_c, 9, 54, 64
7, 33885, Note_off_c, 9, 40, 64
7, 33953, Note_on_c, 9, 45, 58
7, 34001, Note_off_c, 9, 45, 64
7, 34072, Note_on_c, 9, 35, 65
7, 34078, Note_on_c, 9, 47, 74
7, 34098, Note_off_c, 9, 35, 64
7, 34114, Note_off_c, 9, 47, 64
7, 34182, Note_on_c, 9, 31, 38
7, 34185, Note_on_c, 9, 43, 46
7, 34192, Note_on_c, 9, 40, 34
7, 34199, Note_off_c, 9, 43, 64
7, 34206, Note_on_c, 9, 38, 40
7, 34210, Note_off_c, 9, 31, 64
7, 34213, Note_off_c, 9, 40, 64
7, 34225, Note_off_c, 9, 38, 64
7, 34225, Note_on_c, 9, 31, 43
7, 34254, Note_off_c, 9, 31, 64
7, 34257, Note_on_c, 9, 40, 34
7, 34266, Note_on_c, 9, 38, 36
7, 34279, Note_off_c, 9, 40, 64
7, 34284, Note_off_c, 9, 38, 64
7, 34307, Note_on_c, 9, 40, 81
7, 34313, Note_on_c, 9, 54, 73
7, 34315, Note_on_c, 9, 34, 76
7, 34327, Note_off_c, 9, 34, 64
7, 34348, Note_off_c, 9, 40, 64
7, 34352, Note_off_c, 9, 54, 64
7, 34430, Note_on_c, 9, 35, 63
7, 34468, Note_off_c, 9, 35, 64
7, 34547, Note_on_c, 9, 57, 52
7, 34554, Note_off_c, 9, 57, 64
7, 34555, Note_on_c, 9, 35, 62
7, 34555, Note_on_c, 9, 42, 103
7, 34561, Note_off_c, 9, 42, 64
7, 34566, Note_on_c, 9, 42, 28
7, 34572, Note_off_c, 9, 35, 64
7, 34575, Note_off_c, 9, 42, 64
7, 34672, Note_on_c, 9, 42, 83
7, 34676, Note_off_c, 9, 42, 64
7, 34689, Note_on_c, 9, 42, 28
7, 34692, Note_off_c, 9, 42, 64
7, 34792, Note_on_c, 9, 42, 103
7, 34792, Note_on_c, 9, 40, 70
7, 34795, Note_on_c, 9, 54, 65
7, 34799, Note_off_c, 9, 42, 64
7, 34809, Note_on_c, 9, 42, 28
7, 34817, Note_off_c, 9, 42, 64
7, 34817, Note_off_c, 9, 40, 64
7, 34830, Note_off_c, 9, 54, 64
7, 34913, Note_on_c, 9, 42, 70
7, 34916, Note_off_c, 9, 42, 64
7, 34928, Note_on_c, 9, 42, 28
7, 34935, Note_off_c, 9, 42, 64
7, 35033, Note_on_c, 9, 42, 103
7, 35033, Note_on_c, 9, 35, 57
7, 35039, Note_off_c, 9, 42, 64
7, 35052, Note_on_c, 9, 42, 28
7, 35058, Note_off_c, 9, 42, 64
7, 35058, Note_off_c, 9, 35, 64
7, 35152, Note_on_c, 9, 42, 74
7, 35153, Note_off_c, 9, 42, 64
7, 35168, Note_on_c, 9, 42, 28
7, 35174, Note_off_c, 9, 42, 64
7, 35270, Note_on_c, 9, 42, 103
7, 35272, Note_on_c, 9, 54, 73
7, 35272, Note_on_c, 9, 40, 70
7, 35276, Note_off_c, 9, 42, 64
7, 35287, Note_on_c, 9, 42, 28
7, 35290, Note_off_c, 9, 42, 64
7, 35290, Note_off_c, 9, 40, 64
7, 35311, Note_off_c, 9, 54, 64
7, 35392, Note_on_c, 9, 42, 88
7, 35392, Note_on_c, 9, 35, 58
7, 35396, Note_off_c, 9, 42, 64
7, 35410, Note_on_c, 9, 42, 28
7, 35415, Note_off_c, 9, 42, 64
7, 35432, Note_off_c, 9, 35, 64
7, 35512, Note_on_c, 9, 42, 103
7, 35515, Note_on_c, 9, 35, 66
7, 35517, Note_off_c, 9, 42, 64
7, 35527, Note_on_c, 9, 42, 28
7, 35535, Note_off_c, 9, 42, 64
7, 35535, Note_off_c, 9, 35, 64
7, 35630, Note_on_c, 9, 42, 72
7, 35635, Note_off_c, 9, 42, 64
7, 35650, Note_on_c, 9, 42, 28
7, 35658, Note_off_c, 9, 42, 64
7, 35754, Note_on_c, 9, 42, 103
7, 35754, Note_on_c, 9, 54, 70
7, 35754, Note_on_c, 9, 40, 69
7, 35760, Note_off_c, 9, 42, 64
7, 35764, Note_on_c, 9, 42, 28
7, 35771, Note_off_c, 9, 42, 64
7, 35771, Note_off_c, 9, 40, 64
7, 35790, Note_off_c, 9, 54, 64
7, 35870, Note_on_c, 9, 42, 66
7, 35875, Note_off_c, 9, 42, 64
7, 35890, Note_on_c, 9, 42, 28
7, 35894, Note_off_c, 9, 42, 64
7, 35991, Note_on_c, 9, 42, 103
7, 35991, Note_on_c, 9, 35, 55
7, 35998, Note_off_c, 9, 42, 64
7, 36008, Note_on_c, 9, 42, 28
7, 36018, Note_off_c, 9, 42, 64
7, 36018, Note_off_c, 9, 35, 64
7, 36112, Note_on_c, 9, 42, 70
7, 36116, Note_off_c, 9, 42, 64
7, 36130, Note_on_c, 9, 42, 28
7, 36134, Note_off_c, 9, 42, 64
7, 36235, Note_on_c, 9, 54, 73
7, 36243, Note_on_c, 9, 34, 76
7, 36248, Note_off_c, 9, 34, 64
7, 36271, Note_off_c, 9, 54, 64
7, 36352, Note_on_c, 9, 35, 63
7, 36389, Note_off_c, 9, 35, 64
7, 36468, Note_on_c, 9, 57, 52
7, 36477, Note_off_c, 9, 57, 64
7, 36479, Note_on_c, 9, 35, 62
7, 36479, Note_on_c, 9, 42, 103
7, 36480, Note_off_c, 9, 42, 64
7, 36484, Note_on_c, 9, 42, 28
7, 36491, Note_off_c, 9, 42, 64
7, 36491, Note_off_c, 9, 35, 64
7, 36592, Note_on_c, 9, 42, 83
7, 36598, Note_off_c, 9, 42, 64
7, 36606, Note_on_c, 9, 42, 28
7, 36612, Note_off_c, 9, 42, 64
7, 36712, Note_on_c, 9, 42, 103
7, 36712, Note_on_c, 9, 40, 70
7, 36715, Note_on_c, 9, 54, 65
7, 36719, Note_off_c, 9, 42, 64
7, 36727, Note_on_c, 9, 42, 28
7, 36737, Note_off_c, 9, 42, 64
7, 36737, Note_off_c, 9, 40, 64
7, 36753, Note_off_c, 9, 54, 64
7, 36830, Note_on_c, 9, 42, 70
7, 36835, Note_off_c, 9, 42, 64
7, 36852, Note_on_c, 9, 42, 28
7, 36854, Note_off_c, 9, 42, 64
7, 36952, Note_on_c, 9, 42, 103
7, 36952, Note_on_c, 9, 35, 57
7, 36956, Note_off_c, 9, 42, 64
7, 36972, Note_on_c, 9, 42, 28
7, 36976, Note_off_c, 9, 35, 64
7, 36978, Note_off_c, 9, 42, 64
7, 37071, Note_on_c, 9, 42, 74
7, 37075, Note_off_c, 9, 42, 64
7, 37086, Note_on_c, 9, 42, 28
7, 37100, Note_off_c, 9, 42, 64
7, 37195, Note_on_c, 9, 42, 103
7, 37195, Note_on_c, 9, 54, 73
7, 37195, Note_on_c, 9, 40, 70
7, 37200, Note_off_c, 9, 42, 64
7, 37207, Note_on_c, 9, 42, 28
7, 37216, Note_off_c, 9, 42, 64
7, 37216, Note_off_c, 9, 40, 64
7, 37232, Note_off_c, 9, 54, 64
7, 37312, Note_on_c, 9, 42, 88
7, 37312, Note_on_c, 9, 35, 58
7, 37317, Note_off_c, 9, 42, 64
7, 37328, Note_on_c, 9, 42, 28
7, 37339, Note_off_c, 9, 42, 64
7, 37351, Note_off_c, 9, 35, 64
7, 37432, Note_on_c, 9, 42, 103
7, 37434, Note_on_c, 9, 35, 66
7, 37438, Note_off_c, 9, 42, 64
7, 37451, Note_on_c, 9, 42, 28
7, 37456, Note_off_c, 9, 42, 64
7, 37456, Note_off_c, 9, 35, 64
7, 37551, Note_on_c, 9, 42, 72
7, 37556, Note_off_c, 9, 42, 64
7, 37571, Note_on_c, 9, 42, 28
7, 37573, Note_off_c, 9, 42, 64
7, 37672, Note_on_c, 9, 42, 103
7, 37674, Note_on_c, 9, 54, 70
7, 37674, Note_on_c, 9, 40, 69
7, 37677, Note_off_c, 9, 42, 64
7, 37686, Note_on_c, 9, 42, 28
7, 37695, Note_off_c, 9, 42, 64
7, 37695, Note_off_c, 9, 40, 64
7, 37709, Note_off_c, 9, 54, 64
7, 37790, Note_on_c, 9, 42, 66
7, 37795, Note_off_c, 9, 42, 64
7, 37810, Note_on_c, 9, 42, 28
7, 37815, Note_off_c, 9, 42, 64
7, 37912, Note_on_c, 9, 35, 65
7, 37919, Note_on_c, 9, 47, 74
7, 37936, Note_off_c, 9, 35, 64
7, 37952, Note_off_c, 9, 47, 64
7, 38022, Note_on_c, 9, 31, 38
7, 38025, Note_on_c, 9, 43, 46
7, 38033, Note_on_c, 9, 40, 34
7, 38040, Note_off_c, 9, 43, 64
7, 38044, Note_on_c, 9, 38, 40
7, 38048, Note_off_c, 9, 31, 64
7, 38054, Note_off_c, 9, 40, 64
7, 38066, Note_off_c, 9, 38, 64
7, 38066, Note_on_c, 9, 31, 43
7, 38098, Note_off_c, 9, 31, 64
7, 38100, Note_on_c, 9, 40, 34
7, 38108, Note_on_c, 9, 38, 36
7, 38124, Note_off_c, 9, 40, 64
7, 38126, Note_off_c, 9, 38, 64
7, 38153, Note_on_c, 9, 54, 73
7, 38153, Note_on_c, 9, 40, 81
7, 38160, Note_on_c, 9, 34, 76
7, 38166, Note_off_c, 9, 34, 64
7, 38186, Note_off_c, 9, 40, 64
7, 38194, Note_off_c, 9, 54, 64
7, 38273, Note_on_c, 9, 35, 63
7, 38311, Note_off_c, 9, 35, 64
7, 38388, Note_on_c, 9, 57, 52
7, 38395, Note_off_c, 9, 57, 64
7, 38397, Note_on_c, 9, 35, 62
7, 38397, Note_on_c, 9, 42, 103
7, 38398, Note_off_c, 9, 42, 64
7, 38412, Note_off_c, 9, 35, 64
7, 38412, Note_on_c, 9, 42, 28
7, 38413, Note_off_c, 9, 42, 64
7, 38509, Note_on_c, 9, 42, 83
7, 38516, Note_off_c, 9, 42, 64
7, 38528, Note_on_c, 9, 42, 28
7, 38534, Note_off_c, 9, 42, 64
7, 38634, Note_on_c, 9, 54, 65
7, 38634, Note_on_c, 9, 42, 103
7, 38634, Note_on_c, 9, 40, 70
7, 38641, Note_off_c, 9, 42, 64
7, 38649, Note_on_c, 9, 42, 28
7, 38654, Note_off_c, 9, 42, 64
7, 38654, Note_off_c, 9, 40, 64
7, 38673, Note_off_c, 9, 54, 64
7, 38750, Note_on_c, 9, 42, 70
7, 38754, Note_off_c, 9, 42, 64
7, 38773, Note_on_c, 9, 42, 28
7, 38775, Note_off_c, 9, 42, 64
7, 38870, Note_on_c, 9, 42, 103
7, 38870, Note_on_c, 9, 35, 57
7, 38881, Note_off_c, 9, 42, 64
7, 38892, Note_on_c, 9, 42, 28
7, 38896, Note_off_c, 9, 42, 64
7, 38896, Note_off_c, 9, 35, 64
7, 38991, Note_on_c, 9, 42, 74
7, 38995, Note_off_c, 9, 42, 64
7, 39013, Note_on_c, 9, 42, 28
7, 39017, Note_off_c, 9, 42, 64
7, 39112, Note_on_c, 9, 42, 103
7, 39114, Note_on_c, 9, 54, 73
7, 39114, Note_on_c, 9, 40, 70
7, 39120, Note_off_c, 9, 42, 64
7, 39128, Note_on_c, 9, 42, 28
7, 39135, Note_off_c, 9, 42, 64
7, 39135, Note_off_c, 9, 40, 64
7, 39152, Note_off_c, 9, 54, 64
7, 39232, Note_on_c, 9, 42, 88
7, 39234, Note_on_c, 9, 35, 58
7, 39238, Note_off_c, 9, 42, 64
7, 39248, Note_on_c, 9, 42, 28
7, 39255, Note_off_c, 9, 42, 64
7, 39270, Note_off_c, 9, 35, 64
7, 39351, Note_on_c, 9, 35, 66
7, 39351, Note_on_c, 9, 42, 103
7, 39356, Note_off_c, 9, 42, 64
7, 39366, Note_on_c, 9, 42, 28
7, 39371, Note_off_c, 9, 42, 64
7, 39371, Note_off_c, 9, 35, 64
7, 39468, Note_on_c, 9, 42, 72
7, 39475, Note_off_c, 9, 42, 64
7, 39489, Note_on_c, 9, 42, 28
7, 39498, Note_off_c, 9, 42, 64
7, 39592, Note_on_c, 9, 54, 70
7, 39592, Note_on_c, 9, 42, 103
7, 39592, Note_on_c, 9, 40, 69
7, 39597, Note_off_c, 9, 42, 64
7, 39611, Note_on_c, 9, 42, 28
7, 39613, Note_off_c, 9, 42, 64
7, 39613, Note_off_c, 9, 40, 64
7, 39630, Note_off_c, 9, 54, 64
7, 39712, Note_on_c, 9, 42, 66
7, 39714, Note_off_c, 9, 42, 64
7, 39727, Note_on_c, 9, 42, 28
7, 39739, Note_off_c, 9, 42, 64
7, 39835, Note_on_c, 9, 47, 74
7, 39835, Note_on_c, 9, 35, 65
7, 39853, Note_off_c, 9, 35, 64
7, 39874, Note_off_c, 9, 47, 64
7, 39945, Note_on_c, 9, 31, 38
7, 39947, Note_on_c, 9, 43, 46
7, 39954, Note_on_c, 9, 40, 34
7, 39960, Note_off_c, 9, 43, 64
7, 39968, Note_off_c, 9, 31, 64
7, 39968, Note_on_c, 9, 38, 40
7, 39974, Note_off_c, 9, 40, 64
7, 39986, Note_off_c, 9, 38, 64
7, 39986, Note_on_c, 9, 31, 43
7, 40015, Note_off_c, 9, 31, 64
7, 40021, Note_on_c, 9, 40, 34
7, 40030, Note_on_c, 9, 38, 36
7, 40043, Note_off_c, 9, 38, 64
7, 40043, Note_off_c, 9, 40, 64
7, 40066, Note_on_c, 9, 40, 81
7, 40073, Note_on_c, 9, 54, 73
7, 40075, Note_on_c, 9, 34, 76
7, 40087, Note_off_c, 9, 34, 64
7, 40101, Note_off_c, 9, 40, 64
7, 40109, Note_off_c, 9, 54, 64
7, 40192, Note_on_c, 9, 35, 63
7, 40230, Note_off_c, 9, 35, 64
7, 40306, Note_on_c, 9, 57, 52
7, 40315, Note_off_c, 9, 57, 64
7, 40317, Note_on_c, 9, 35, 62
7, 40317, Note_on_c, 9, 42, 103
7, 40322, Note_off_c, 9, 42, 64
7, 40328, Note_on_c, 9, 42, 28
7, 40338, Note_off_c, 9, 42, 64
7, 40338, Note_off_c, 9, 35, 64
7, 40432, Note_on_c, 9, 42, 83
7, 40436, Note_off_c, 9, 42, 64
7, 40448, Note_on_c, 9, 42, 28
7, 40454, Note_off_c, 9, 42, 64
7, 40552, Note_on_c, 9, 42, 103
7, 40554, Note_on_c, 9, 54, 65
7, 40554, Note_on_c, 9, 40, 70
7, 40558, Note_off_c, 9, 42, 64
7, 40570, Note_on_c, 9, 42, 28
7, 40575, Note_off_c, 9, 42, 64
7, 40575, Note_off_c, 9, 40, 64
7, 40590, Note_off_c, 9, 54, 64
7, 40673, Note_on_c, 9, 42, 70
7, 40675, Note_off_c, 9, 42, 64
7, 40690, Note_on_c, 9, 42, 28
7, 40694, Note_off_c, 9, 42, 64
7, 40791, Note_on_c, 9, 42, 103
7, 40793, Note_on_c, 9, 35, 57
7, 40798, Note_off_c, 9, 42, 64
7, 40807, Note_on_c, 9, 42, 28
7, 40814, Note_off_c, 9, 42, 64
7, 40814, Note_off_c, 9, 35, 64
7, 40910, Note_on_c, 9, 42, 74
7, 40915, Note_off_c, 9, 42, 64
7, 40928, Note_on_c, 9, 42, 28
7, 40938, Note_off_c, 9, 42, 64
7, 41034, Note_on_c, 9, 54, 73
7, 41034, Note_on_c, 9, 42, 103
7, 41034, Note_on_c, 9, 40, 70
7, 41037, Note_off_c, 9, 42, 64
7, 41049, Note_on_c, 9, 42, 28
7, 41054, Note_off_c, 9, 42, 64
7, 41054, Note_off_c, 9, 40, 64
7, 41071, Note_off_c, 9, 54, 64
7, 41153, Note_on_c, 9, 42, 88
7, 41153, Note_on_c, 9, 35, 58
7, 41158, Note_off_c, 9, 42, 64
7, 41169, Note_on_c, 9, 42, 28
7, 41174, Note_off_c, 9, 42, 64
7, 41189, Note_off_c, 9, 35, 64
7, 41270, Note_on_c, 9, 35, 66
7, 41270, Note_on_c, 9, 42, 103
7, 41276, Note_off_c, 9, 42, 64
7, 41290, Note_on_c, 9, 42, 28
7, 41295, Note_off_c, 9, 42, 64
7, 41295, Note_off_c, 9, 35, 64
7, 41390, Note_on_c, 9, 42, 72
7, 41398, Note_off_c, 9, 42, 64
7, 41409, Note_on_c, 9, 42, 28
7, 41415, Note_off_c, 9, 42, 64
7, 41511, Note_on_c, 9, 42, 103
7, 41511, Note_on_c, 9, 54, 70
7, 41511, Note_on_c, 9, 40, 69
7, 41518, Note_off_c, 9, 42, 64
7, 41525, Note_on_c, 9, 42, 28
7, 41529, Note_off_c, 9, 40, 64
7, 41534, Note_off_c, 9, 42, 64
7, 41550, Note_off_c, 9, 54, 64
7, 41632, Note_on_c, 9, 42, 66
7, 41637, Note_off_c, 9, 42, 64
7, 41645, Note_on_c, 9, 42, 28
7, 41651, Note_off_c, 9, 42, 64
7, 41755, Note_on_c, 9, 35, 65
7, 41760, Note_on_c, 9, 47, 74
7, 41765, Note_off_c, 9, 35, 64
7, 41796, Note_off_c, 9, 47, 64
7, 41860, Note_on_c, 9, 31, 38
7, 41863, Note_on_c, 9, 43, 46
7, 41874, Note_on_c, 9, 40, 34
7, 41880, Note_off_c, 9, 43, 64
7, 41885, Note_on_c, 9, 38, 40
7, 41887, Note_off_c, 9, 31, 64
7, 41898, Note_off_c, 9, 40, 64
7, 41904, Note_off_c, 9, 38, 64
7, 41904, Note_on_c, 9, 31, 43
7, 41933, Note_off_c, 9, 31, 64
7, 41940, Note_on_c, 9, 40, 34
7, 41953, Note_on_c, 9, 38, 36
7, 41964, Note_off_c, 9, 40, 64
7, 41965, Note_off_c, 9, 38, 64
7, 41986, Note_on_c, 9, 40, 81
7, 41993, Note_on_c, 9, 54, 73
7, 41995, Note_on_c, 9, 34, 76
7, 42008, Note_off_c, 9, 34, 64
7, 42025, Note_off_c, 9, 40, 64
7, 42031, Note_off_c, 9, 54, 64
7, 42112, Note_on_c, 9, 35, 63
7, 42150, Note_off_c, 9, 35, 64
7, 42229, Note_on_c, 9, 57, 52
7, 42233, Note_off_c, 9, 57, 64
7, 42233, Note_on_c, 9, 42, 103
7, 42235, Note_on_c, 9, 35, 62
7, 42243, Note_off_c, 9, 42, 64
7, 42256, Note_off_c, 9, 35, 64
7, 42256, Note_on_c, 9, 42, 28
7, 42257, Note_off_c, 9, 42, 64
7, 42349, Note_on_c, 9, 42, 83
7, 42354, Note_off_c, 9, 42, 64
7, 42371, Note_on_c, 9, 42, 28
7, 42375, Note_off_c, 9, 42, 64
7, 42472, Note_on_c, 9, 42, 103
7, 42474, Note_on_c, 9, 54, 65
7, 42474, Note_on_c, 9, 40, 70
7, 42480, Note_off_c, 9, 42, 64
7, 42488, Note_on_c, 9, 42, 28
7, 42494, Note_off_c, 9, 42, 64
7, 42494, Note_off_c, 9, 40, 64
7, 42511, Note_off_c, 9, 54, 64
7, 42594, Note_on_c, 9, 42, 70
7, 42598, Note_off_c, 9, 42, 64
7, 42610, Note_on_c, 9, 42, 28
7, 42615, Note_off_c, 9, 42, 64
7, 42709, Note_on_c, 9, 42, 103
7, 42712, Note_on_c, 9, 35, 57
7, 42720, Note_off_c, 9, 42, 64
7, 42728, Note_on_c, 9, 42, 28
7, 42740, Note_off_c, 9, 42, 64
7, 42740, Note_off_c, 9, 35, 64
7, 42832, Note_on_c, 9, 42, 74
7, 42836, Note_off_c, 9, 42, 64
7, 42852, Note_on_c, 9, 42, 28
7, 42860, Note_off_c, 9, 42, 64
7, 42957, Note_on_c, 9, 54, 73
7, 42957, Note_on_c, 9, 42, 103
7, 42957, Note_on_c, 9, 40, 70
7, 42960, Note_off_c, 9, 42, 64
7, 42964, Note_on_c, 9, 42, 28
7, 42970, Note_off_c, 9, 40, 64
7, 42973, Note_off_c, 9, 42, 64
7, 42992, Note_off_c, 9, 54, 64
7, 43069, Note_on_c, 9, 42, 88
7, 43072, Note_on_c, 9, 35, 58
7, 43077, Note_off_c, 9, 42, 64
7, 43090, Note_on_c, 9, 42, 28
7, 43095, Note_off_c, 9, 42, 64
7, 43110, Note_off_c, 9, 35, 64
7, 43193, Note_on_c, 9, 35, 66
7, 43193, Note_on_c, 9, 42, 103
7, 43198, Note_off_c, 9, 42, 64
7, 43211, Note_on_c, 9, 42, 28
7, 43216, Note_off_c, 9, 35, 64
7, 43219, Note_off_c, 9, 42, 64
7, 43310, Note_on_c, 9, 42, 72
7, 43317, Note_off_c, 9, 42, 64
7, 43330, Note_on_c, 9, 42, 28
7, 43335, Note_off_c, 9, 42, 64
7, 43432, Note_on_c, 9, 54, 70
7, 43432, Note_on_c, 9, 42, 103
7, 43432, Note_on_c, 9, 40, 69
7, 43437, Note_off_c, 9, 42, 64
7, 43448, Note_on_c, 9, 42, 28
7, 43454, Note_off_c, 9, 42, 64
7, 43454, Note_off_c, 9, 40, 64
7, 43470, Note_off_c, 9, 54, 64
7, 43552, Note_on_c, 9, 42, 66
7, 43559, Note_off_c, 9, 42, 64
7, 43571, Note_on_c, 9, 42, 28
7, 43574, Note_off_c, 9, 42, 64
7, 43672, Note_on_c, 9, 42, 103
7, 43672, Note_on_c, 9, 35, 55
7, 43679, Note_off_c, 9, 42, 64
7, 43691, Note_on_c, 9, 42, 28
7, 43693, Note_off_c, 9, 42, 64
7, 43693, Note_off_c, 9, 35, 64
7, 43792, Note_on_c, 9, 42, 70
7, 43798, Note_off_c, 9, 42, 64
7, 43807, Note_on_c, 9, 42, 28
7, 43812, Note_off_c, 9, 42, 64
7, 43916, Note_on_c, 9, 54, 73
7, 43922, Note_on_c, 9, 34, 76
7, 43927, Note_off_c, 9, 34, 64
7, 43954, Note_off_c, 9, 54, 64
7, 44032, Note_on_c, 9, 35, 63
7, 44070, Note_off_c, 9, 35, 64
7, 44150, Note_on_c, 9, 57, 52
7, 44155, Note_off_c, 9, 57, 64
7, 44155, Note_on_c, 9, 42, 103
7, 44156, Note_on_c, 9, 35, 62
7, 44163, Note_off_c, 9, 42, 64
7, 44170, Note_off_c, 9, 35, 64
7, 44170, Note_on_c, 9, 42, 28
7, 44171, Note_off_c, 9, 42, 64
7, 44274, Note_on_c, 9, 42, 83
7, 44277, Note_off_c, 9, 42, 64
7, 44284, Note_on_c, 9, 42, 28
7, 44291, Note_off_c, 9, 42, 64
7, 44393, Note_on_c, 9, 54, 65
7, 44393, Note_on_c, 9, 42, 103
7, 44393, Note_on_c, 9, 40, 70
7, 44398, Note_off_c, 9, 42, 64
7, 44406, Note_on_c, 9, 42, 28
7, 44411, Note_off_c, 9, 40, 64
7, 44413, Note_off_c, 9, 42, 64
7, 44437, Note_off_c, 9, 54, 64
7, 44511, Note_on_c, 9, 42, 70
7, 44516, Note_off_c, 9, 42, 64
7, 44531, Note_on_c, 9, 42, 28
7, 44536, Note_off_c, 9, 42, 64
7, 44636, Note_on_c, 9, 42, 103
7, 44636, Note_on_c, 9, 35, 57
7, 44640, Note_off_c, 9, 42, 64
7, 44651, Note_on_c, 9, 42, 28
7, 44658, Note_off_c, 9, 42, 64
7, 44658, Note_off_c, 9, 35, 64
7, 44752, Note_on_c, 9, 42, 74
7, 44755, Note_off_c, 9, 42, 64
7, 44768, Note_on_c, 9, 42, 28
7, 44779, Note_off_c, 9, 42, 64
7, 44872, Note_on_c, 9, 42, 103
7, 44874, Note_on_c, 9, 54, 73
7, 44874, Note_on_c, 9, 40, 70
7, 44877, Note_off_c, 9, 42, 64
7, 44887, Note_on_c, 9, 42, 28
7, 44895, Note_off_c, 9, 40, 64
7, 44899, Note_off_c, 9, 42, 64
7, 44910, Note_off_c, 9, 54, 64
7, 44992, Note_on_c, 9, 42, 88
7, 44992, Note_on_c, 9, 35, 58
7, 44996, Note_off_c, 9, 42, 64
7, 45009, Note_on_c, 9, 42, 28
7, 45020, Note_off_c, 9, 42, 64
7, 45032, Note_off_c, 9, 35, 64
7, 45112, Note_on_c, 9, 35, 66
7, 45112, Note_on_c, 9, 42, 103
7, 45115, Note_off_c, 9, 42, 64
7, 45130, Note_on_c, 9, 42, 28
7, 45134, Note_off_c, 9, 42, 64
7, 45134, Note_off_c, 9, 35, 64
7, 45234, Note_on_c, 9, 42, 72
7, 45237, Note_off_c, 9, 42, 64
7, 45248, Note_on_c, 9, 42, 28
7, 45259, Note_off_c, 9, 42, 64
7, 45352, Note_on_c, 9, 42, 103
7, 45352, Note_on_c, 9, 40, 69
7, 45354, Note_on_c, 9, 54, 70
7, 45357, Note_off_c, 9, 42, 64
7, 45367, Note_on_c, 9, 42, 28
7, 45372, Note_off_c, 9, 42, 64
7, 45372, Note_off_c, 9, 40, 64
7, 45391, Note_off_c, 9, 54, 64
7, 45473, Note_on_c, 9, 42, 66
7, 45476, Note_off_c, 9, 42, 64
7, 45488, Note_on_c, 9, 42, 28
7, 45493, Note_off_c, 9, 42, 64
7, 45594, Note_on_c, 9, 35, 65
7, 45600, Note_on_c, 9, 47, 74
7, 45610, Note_off_c, 9, 35, 64
7, 45632, Note_off_c, 9, 47, 64
7, 45702, Note_on_c, 9, 31, 38
7, 45704, Note_on_c, 9, 43, 46
7, 45714, Note_on_c, 9, 40, 34
7, 45720, Note_off_c, 9, 43, 64
7, 45729, Note_off_c, 9, 31, 64
7, 45729, Note_on_c, 9, 38, 40
7, 45735, Note_off_c, 9, 40, 64
7, 45742, Note_off_c, 9, 38, 64
7, 45742, Note_on_c, 9, 31, 43
7, 45775, Note_off_c, 9, 31, 64
7, 45780, Note_on_c, 9, 40, 34
7, 45785, Note_on_c, 9, 38, 36
7, 45804, Note_off_c, 9, 38, 64
7, 45804, Note_off_c, 9, 40, 64
7, 45828, Note_on_c, 9, 40, 81
7, 45835, Note_on_c, 9, 54, 73
7, 45835, Note_on_c, 9, 34, 76
7, 45847, Note_off_c, 9, 34, 64
7, 45861, Note_off_c, 9, 40, 64
7, 45868, Note_off_c, 9, 54, 64
7, 45952, Note_on_c, 9, 35, 63
7, 45990, Note_off_c, 9, 35, 64
7, 46066, Note_on_c, 9, 57, 52
7, 46077, Note_off_c, 9, 57, 64
7, 46077, Note_on_c, 9, 35, 62
7, 46077, Note_on_c, 9, 42, 103
7, 46080, Note_off_c, 9, 42, 64
7, 46086, Note_on_c, 9, 42, 28
7, 46089, Note_off_c, 9, 42, 64
7, 46089, Note_off_c, 9, 35, 64
7, 46192, Note_on_c, 9, 42, 83
7, 46194, Note_off_c, 9, 42, 64
7, 46211, Note_on_c, 9, 42, 28
7, 46218, Note_off_c, 9, 42, 64
7, 46312, Note_on_c, 9, 42, 103
7, 46314, Note_on_c, 9, 54, 65
7, 46314, Note_on_c, 9, 40, 70
7, 46322, Note_off_c, 9, 42, 64
7, 46332, Note_on_c, 9, 42, 28
7, 46339, Note_off_c, 9, 42, 64
7, 46339, Note_off_c, 9, 40, 64
7, 46354, Note_off_c, 9, 54, 64
7, 46432, Note_on_c, 9, 42, 70
7, 46437, Note_off_c, 9, 42, 64
7, 46453, Note_on_c, 9, 42, 28
7, 46457, Note_off_c, 9, 42, 64
7, 46552, Note_on_c, 9, 42, 103
7, 46554, Note_on_c, 9, 35, 57
7, 46559, Note_off_c, 9, 42, 64
7, 46568, Note_on_c, 9, 42, 28
7, 46575, Note_off_c, 9, 35, 64
7, 46578, Note_off_c, 9, 42, 64
7, 46670, Note_on_c, 9, 42, 74
7, 46675, Note_off_c, 9, 42, 64
7, 46688, Note_on_c, 9, 42, 28
7, 46691, Note_off_c, 9, 42, 64
7, 46791, Note_on_c, 9, 42, 103
7, 46791, Note_on_c, 9, 40, 70
7, 46794, Note_on_c, 9, 54, 73
7, 46797, Note_off_c, 9, 42, 64
7, 46804, Note_on_c, 9, 42, 28
7, 46819, Note_off_c, 9, 42, 64
7, 46819, Note_off_c, 9, 40, 64
7, 46836, Note_off_c, 9, 54, 64
7, 46914, Note_on_c, 9, 42, 88
7, 46914, Note_on_c, 9, 35, 58
7, 46918, Note_off_c, 9, 42, 64
7, 46930, Note_on_c, 9, 42, 28
7, 46935, Note_off_c, 9, 42, 64
7, 46954, Note_off_c, 9, 35, 64
7, 47032, Note_on_c, 9, 42, 103
7, 47033, Note_on_c, 9, 35, 66
7, 47039, Note_off_c, 9, 42, 64
7, 47048, Note_on_c, 9, 42, 28
7, 47056, Note_off_c, 9, 35, 64
7, 47060, Note_off_c, 9, 42, 64
7, 47152, Note_on_c, 9, 42, 72
7, 47156, Note_off_c, 9, 42, 64
7, 47170, Note_on_c, 9, 42, 28
7, 47174, Note_off_c, 9, 42, 64
7, 47274, Note_on_c, 9, 42, 103
7, 47274, Note_on_c, 9, 54, 70
7, 47274, Note_on_c, 9, 40, 69
7, 47280, Note_off_c, 9, 42, 64
7, 47287, Note_on_c, 9, 42, 28
7, 47291, Note_off_c, 9, 40, 64
7, 47293, Note_off_c, 9, 42, 64
7, 47312, Note_off_c, 9, 54, 64
7, 47393, Note_on_c, 9, 42, 66
7, 47399, Note_off_c, 9, 42, 64
7, 47408, Note_on_c, 9, 42, 28
7, 47419, Note_off_c, 9, 42, 64
7, 47514, Note_on_c, 9, 35, 65
7, 47521, Note_on_c, 9, 47, 74
7, 47534, Note_off_c, 9, 35, 64
7, 47552, Note_off_c, 9, 47, 64
7, 47623, Note_on_c, 9, 43, 46
7, 47623, Note_on_c, 9, 31, 38
7, 47634, Note_on_c, 9, 40, 34
7, 47641, Note_off_c, 9, 43, 64
7, 47648, Note_off_c, 9, 31, 64
7, 47648, Note_on_c, 9, 38, 40
7, 47656, Note_off_c, 9, 40, 64
7, 47666, Note_off_c, 9, 38, 64
7, 47668, Note_on_c, 9, 31, 43
7, 47696, Note_off_c, 9, 31, 64
7, 47702, Note_on_c, 9, 40, 34
7, 47708, Note_on_c, 9, 38, 36
7, 47726, Note_off_c, 9, 38, 64
7, 47726, Note_off_c, 9, 40, 64
7, 47749, Note_on_c, 9, 40, 81
7, 47754, Note_on_c, 9, 54, 73
7, 47759, Note_on_c, 9, 34, 76
7, 47761, Note_off_c, 9, 34, 64
7, 47784, Note_off_c, 9, 40, 64
7, 47794, Note_off_c, 9, 54, 64
7, 47874, Note_on_c, 9, 35, 63
7, 47910, Note_off_c, 9, 35, 64
7, 47988, Note_on_c, 9, 57, 52
7, 47996, Note_off_c, 9, 57, 64
7, 47998, Note_on_c, 9, 35, 62
7, 47998, Note_on_c, 9, 42, 103
7, 48002, Note_off_c, 9, 42, 64
7, 48008, Note_on_c, 9, 42, 28
7, 48014, Note_off_c, 9, 42, 64
7, 48014, Note_off_c, 9, 35, 64
7, 48110, Note_on_c, 9, 42, 83
7, 48117, Note_off_c, 9, 42, 64
7, 48127, Note_on_c, 9, 42, 28
7, 48140, Note_off_c, 9, 42, 64
7, 48237, Note_on_c, 9, 54, 65
7, 48237, Note_on_c, 9, 42, 103
7, 48237, Note_on_c, 9, 40, 70
7, 48240, Note_off_c, 9, 42, 64
7, 48247, Note_on_c, 9, 42, 28
7, 48254, Note_off_c, 9, 42, 64
7, 48254, Note_off_c, 9, 40, 64
7, 48278, Note_off_c, 9, 54, 64
7, 48350, Note_on_c, 9, 42, 70
7, 48357, Note_off_c, 9, 42, 64
7, 48370, Note_on_c, 9, 42, 28
7, 48374, Note_off_c, 9, 42, 64
7, 48474, Note_on_c, 9, 42, 103
7, 48474, Note_on_c, 9, 35, 57
7, 48478, Note_off_c, 9, 42, 64
7, 48490, Note_on_c, 9, 42, 28
7, 48496, Note_off_c, 9, 42, 64
7, 48496, Note_off_c, 9, 35, 64
7, 48591, Note_on_c, 9, 42, 74
7, 48596, Note_off_c, 9, 42, 64
7, 48610, Note_on_c, 9, 42, 28
7, 48613, Note_off_c, 9, 42, 64
7, 48715, Note_on_c, 9, 54, 73
7, 48715, Note_on_c, 9, 42, 103
7, 48715, Note_on_c, 9, 40, 70
7, 48723, Note_off_c, 9, 42, 64
7, 48732, Note_on_c, 9, 42, 28
7, 48734, Note_off_c, 9, 40, 64
7, 48736, Note_off_c, 9, 42, 64
7, 48752, Note_off_c, 9, 54, 64
7, 48828, Note_on_c, 9, 42, 88
7, 48830, Note_on_c, 9, 35, 58
7, 48835, Note_off_c, 9, 42, 64
7, 48849, Note_on_c, 9, 42, 28
7, 48854, Note_off_c, 9, 42, 64
7, 48872, Note_off_c, 9, 35, 64
7, 48954, Note_on_c, 9, 35, 66
7, 48954, Note_on_c, 9, 42, 103
7, 48957, Note_off_c, 9, 42, 64
7, 48966, Note_on_c, 9, 42, 28
7, 48971, Note_off_c, 9, 35, 64
7, 48974, Note_off_c, 9, 42, 64
7, 49070, Note_on_c, 9, 42, 72
7, 49075, Note_off_c, 9, 42, 64
7, 49090, Note_on_c, 9, 42, 28
7, 49095, Note_off_c, 9, 42, 64
7, 49195, Note_on_c, 9, 54, 70
7, 49195, Note_on_c, 9, 42, 103
7, 49195, Note_on_c, 9, 40, 69
7, 49199, Note_off_c, 9, 42, 64
7, 49207, Note_on_c, 9, 42, 28
7, 49211, Note_off_c, 9, 40, 64
7, 49213, Note_off_c, 9, 42, 64
7, 49228, Note_off_c, 9, 54, 64
7, 49310, Note_on_c, 9, 42, 66
7, 49320, Note_off_c, 9, 42, 64
7, 49328, Note_on_c, 9, 42, 28
7, 49336, Note_off_c, 9, 42, 64
7, 49436, Note_on_c, 9, 35, 65
7, 49440, Note_on_c, 9, 47, 74
7, 49458, Note_off_c, 9, 35, 64
7, 49473, Note_off_c, 9, 47, 64
7, 49542, Note_on_c, 9, 31, 38
7, 49543, Note_on_c, 9, 43, 46
7, 49552, Note_on_c, 9, 40, 34
7, 49557, Note_off_c, 9, 43, 64
7, 49566, Note_on_c, 9, 38, 40
7, 49570, Note_off_c, 9, 31, 64
7, 49578, Note_off_c, 9, 40, 64
7, 49585, Note_off_c, 9, 38, 64
7, 49585, Note_on_c, 9, 31, 43
7, 49614, Note_off_c, 9, 31, 64
7, 49621, Note_on_c, 9, 40, 34
7, 49632, Note_on_c, 9, 38, 36
7, 49643, Note_off_c, 9, 40, 64
7, 49645, Note_off_c, 9, 38, 64
7, 49674, Note_on_c, 9, 54, 73
7, 49674, Note_on_c, 9, 40, 81
7, 49678, Note_on_c, 9, 34, 76
7, 49681, Note_off_c, 9, 34, 64
7, 49702, Note_off_c, 9, 40, 64
7, 49715, Note_off_c, 9, 54, 64
7, 49789, Note_on_c, 9, 35, 63
7, 49829, Note_off_c, 9, 35, 64
7, 49910, Note_on_c, 9, 57, 52
7, 49914, Note_off_c, 9, 57, 64
7, 49915, Note_on_c, 9, 35, 62
7, 49915, Note_on_c, 9, 42, 103
7, 49920, Note_off_c, 9, 42, 64
7, 49926, Note_on_c, 9, 42, 28
7, 49936, Note_off_c, 9, 42, 64
7, 49936, Note_off_c, 9, 35, 64
7, 50031, Note_on_c, 9, 42, 83
7, 50036, Note_off_c, 9, 42, 64
7, 50052, Note_on_c, 9, 42, 28
7, 50053, Note_off_c, 9, 42, 64
7, 50152, Note_on_c, 9, 42, 103
7, 50154, Note_on_c, 9, 54, 65
7, 50154, Note_on_c, 9, 40, 70
7, 50158, Note_off_c, 9, 42, 64
7, 50166, Note_on_c, 9, 42, 28
7, 50175, Note_off_c, 9, 40, 64
7, 50178, Note_off_c, 9, 42, 64
7, 50192, Note_off_c, 9, 54, 64
7, 50270, Note_on_c, 9, 42, 70
7, 50276, Note_off_c, 9, 42, 64
7, 50292, Note_on_c, 9, 42, 28
7, 50297, Note_off_c, 9, 42, 64
7, 50396, Note_on_c, 9, 42, 103
7, 50396, Note_on_c, 9, 35, 57
7, 50400, Note_off_c, 9, 42, 64
7, 50405, Note_on_c, 9, 42, 28
7, 50415, Note_off_c, 9, 42, 64
7, 50415, Note_off_c, 9, 35, 64
7, 50512, Note_on_c, 9, 42, 74
7, 50516, Note_off_c, 9, 42, 64
7, 50528, Note_on_c, 9, 42, 28
7, 50534, Note_off_c, 9, 42, 64
7, 50629, Note_on_c, 9, 42, 103
7, 50632, Note_on_c, 9, 54, 73
7, 50632, Note_on_c, 9, 40, 70
7, 50637, Note_off_c, 9, 42, 64
7, 50647, Note_on_c, 9, 42, 28
7, 50652, Note_off_c, 9, 42, 64
7, 50652, Note_off_c, 9, 40, 64
7, 50672, Note_off_c, 9, 54, 64
7, 50752, Note_on_c, 9, 42, 88
7, 50752, Note_on_c, 9, 35, 58
7, 50756, Note_off_c, 9, 42, 64
7, 50768, Note_on_c, 9, 42, 28
7, 50776, Note_off_c, 9, 42, 64
7, 50790, Note_off_c, 9, 35, 64
7, 50873, Note_on_c, 9, 35, 66
7, 50873, Note_on_c, 9, 42, 103
7, 50878, Note_off_c, 9, 42, 64
7, 50887, Note_on_c, 9, 42, 28
7, 50893, Note_off_c, 9, 35, 64
7, 50897, Note_off_c, 9, 42, 64
7, 50994, Note_on_c, 9, 42, 72
7, 50997, Note_off_c, 9, 42, 64
7, 51009, Note_on_c, 9, 42, 28
7, 51019, Note_off_c, 9, 42, 64
7, 51112, Note_on_c, 9, 42, 103
7, 51114, Note_on_c, 9, 54, 70
7, 51114, Note_on_c, 9, 40, 69
7, 51119, Note_off_c, 9, 42, 64
7, 51127, Note_on_c, 9, 42, 28
7, 51133, Note_off_c, 9, 42, 64
7, 51133, Note_off_c, 9, 40, 64
7, 51153, Note_off_c, 9, 54, 64
7, 51230, Note_on_c, 9, 42, 66
7, 51236, Note_off_c, 9, 42, 64
7, 51246, Note_on_c, 9, 42, 28
7, 51252, Note_off_c, 9, 42, 64
7, 51352, Note_on_c, 9, 35, 65
7, 51360, Note_on_c, 9, 47, 74
7, 51371, Note_off_c, 9, 35, 64
7, 51396, Note_off_c, 9, 47, 64
7, 51462, Note_on_c, 9, 31, 38
7, 51463, Note_on_c, 9, 43, 46
7, 51470, Note_on_c, 9, 40, 34
7, 51476, Note_off_c, 9, 43, 64
7, 51486, Note_on_c, 9, 38, 40
7, 51492, Note_off_c, 9, 31, 64
7, 51497, Note_off_c, 9, 40, 64
7, 51503, Note_off_c, 9, 38, 64
7, 51503, Note_on_c, 9, 31, 43
7, 51539, Note_off_c, 9, 31, 64
7, 51540, Note_on_c, 9, 40, 34
7, 51547, Note_on_c, 9, 38, 36
7, 51561, Note_off_c, 9, 40, 64
7, 51568, Note_off_c, 9, 38, 64
7, 51585, Note_on_c, 9, 40, 81
7, 51596, Note_on_c, 9, 54, 73
7, 51596, Note_on_c, 9, 34, 76
7, 51608, Note_off_c, 9, 34, 64
7, 51625, Note_off_c, 9, 40, 64
7, 51632, Note_off_c, 9, 54, 64
7, 51710, Note_on_c, 9, 35, 63
7, 51750, Note_off_c, 9, 35, 64
7, 51828, Note_on_c, 9, 57, 52
7, 51838, Note_off_c, 9, 57, 64
7, 51838, Note_on_c, 9, 35, 62
7, 51838, Note_on_c, 9, 42, 103
7, 51840, Note_off_c, 9, 42, 64
7, 51848, Note_off_c, 9, 35, 64
7, 51848, Note_on_c, 9, 42, 28
7, 51851, Note_off_c, 9, 42, 64
7, 51950, Note_on_c, 9, 42, 83
7, 51957, Note_off_c, 9, 42, 64
7, 51970, Note_on_c, 9, 42, 28
7, 51973, Note_off_c, 9, 42, 64
7, 52073, Note_on_c, 9, 42, 103
7, 52073, Note_on_c, 9, 54, 65
7, 52073, Note_on_c, 9, 40, 70
7, 52082, Note_off_c, 9, 42, 64
7, 52091, Note_on_c, 9, 42, 28
7, 52097, Note_off_c, 9, 40, 64
7, 52099, Note_off_c, 9, 42, 64
7, 52112, Note_off_c, 9, 54, 64
7, 52189, Note_on_c, 9, 42, 70
7, 52193, Note_off_c, 9, 42, 64
7, 52212, Note_on_c, 9, 42, 28
7, 52214, Note_off_c, 9, 42, 64
7, 52309, Note_on_c, 9, 42, 103
7, 52311, Note_on_c, 9, 35, 57
7, 52319, Note_off_c, 9, 42, 64
7, 52330, Note_on_c, 9, 42, 28
7, 52334, Note_off_c, 9, 42, 64
7, 52334, Note_off_c, 9, 35, 64
7, 52428, Note_on_c, 9, 42, 74
7, 52433, Note_off_c, 9, 42, 64
7, 52448, Note_on_c, 9, 42, 28
7, 52451, Note_off_c, 9, 42, 64
7, 52551, Note_on_c, 9, 42, 103
7, 52553, Note_on_c, 9, 54, 73
7, 52553, Note_on_c, 9, 40, 70
7, 52559, Note_off_c, 9, 42, 64
7, 52567, Note_on_c, 9, 42, 28
7, 52572, Note_off_c, 9, 42, 64
7, 52572, Note_off_c, 9, 40, 64
7, 52594, Note_off_c, 9, 54, 64
7, 52673, Note_on_c, 9, 42, 88
7, 52675, Note_on_c, 9, 35, 58
7, 52679, Note_off_c, 9, 42, 64
7, 52685, Note_on_c, 9, 42, 28
7, 52691, Note_off_c, 9, 42, 64
7, 52709, Note_off_c, 9, 35, 64
7, 52792, Note_on_c, 9, 35, 66
7, 52792, Note_on_c, 9, 42, 103
7, 52796, Note_off_c, 9, 42, 64
7, 52810, Note_on_c, 9, 42, 28
7, 52815, Note_off_c, 9, 42, 64
7, 52815, Note_off_c, 9, 35, 64
7, 52909, Note_on_c, 9, 42, 72
7, 52918, Note_off_c, 9, 42, 64
7, 52930, Note_on_c, 9, 42, 28
7, 52934, Note_off_c, 9, 42, 64
7, 53032, Note_on_c, 9, 42, 103
7, 53034, Note_on_c, 9, 54, 70
7, 53034, Note_on_c, 9, 40, 69
7, 53037, Note_off_c, 9, 42, 64
7, 53050, Note_on_c, 9, 42, 28
7, 53052, Note_off_c, 9, 40, 64
7, 53054, Note_off_c, 9, 42, 64
7, 53063, Note_off_c, 9, 54, 64
7, 53153, Note_on_c, 9, 42, 66
7, 53158, Note_off_c, 9, 42, 64
7, 53166, Note_on_c, 9, 42, 28
7, 53173, Note_off_c, 9, 42, 64
7, 53275, Note_on_c, 9, 35, 65
7, 53280, Note_on_c, 9, 47, 74
7, 53293, Note_off_c, 9, 35, 64
7, 53314, Note_off_c, 9, 47, 64
7, 53382, Note_on_c, 9, 43, 46
7, 53382, Note_on_c, 9, 31, 38
7, 53396, Note_on_c, 9, 40, 34
7, 53400, Note_off_c, 9, 43, 64
7, 53408, Note_off_c, 9, 31, 64
7, 53408, Note_on_c, 9, 38, 40
7, 53412, Note_off_c, 9, 40, 64
7, 53423, Note_off_c, 9, 38, 64
7, 53423, Note_on_c, 9, 31, 43
7, 53458, Note_off_c, 9, 31, 64
7, 53460, Note_on_c, 9, 40, 34
7, 53470, Note_on_c, 9, 38, 36
7, 53484, Note_off_c, 9, 40, 64
7, 53490, Note_off_c, 9, 38, 64
7, 53512, Note_on_c, 9, 40, 81
7, 53514, Note_on_c, 9, 54, 73
7, 53520, Note_on_c, 9, 34, 76
7, 53525, Note_off_c, 9, 34, 64
7, 53542, Note_off_c, 9, 40, 64
7, 53549, Note_off_c, 9, 54, 64
7, 53630, Note_on_c, 9, 35, 63
7, 53667, Note_off_c, 9, 35, 64
7, 53755, Note_on_c, 9, 35, 62
7, 53755, Note_on_c, 9, 42, 103
7, 53755, Note_on_c, 9, 57, 52
7, 53756, Note_off_c, 9, 57, 64
7, 53762, Note_off_c, 9, 42, 64
7, 53768, Note_on_c, 9, 42, 28
7, 53774, Note_off_c, 9, 35, 64
7, 53778, Note_off_c, 9, 42, 64
7, 53873, Note_on_c, 9, 42, 83
7, 53875, Note_off_c, 9, 42, 64
7, 53885, Note_on_c, 9, 42, 28
7, 53896, Note_off_c, 9, 42, 64
7, 53991, Note_on_c, 9, 42, 103
7, 53993, Note_on_c, 9, 54, 65
7, 53993, Note_on_c, 9, 40, 70
7, 53998, Note_off_c, 9, 42, 64
7, 54009, Note_on_c, 9, 42, 28
7, 54013, Note_off_c, 9, 40, 64
7, 54016, Note_off_c, 9, 42, 64
7, 54032, Note_off_c, 9, 54, 64
7, 54110, Note_on_c, 9, 42, 70
7, 54115, Note_off_c, 9, 42, 64
7, 54130, Note_on_c, 9, 42, 28
7, 54138, Note_off_c, 9, 42, 64
7, 54232, Note_on_c, 9, 42, 103
7, 54234, Note_on_c, 9, 35, 57
7, 54240, Note_off_c, 9, 42, 64
7, 54249, Note_on_c, 9, 42, 28
7, 54253, Note_off_c, 9, 35, 64
7, 54255, Note_off_c, 9, 42, 64
7, 54354, Note_on_c, 9, 42, 74
7, 54358, Note_off_c, 9, 42, 64
7, 54366, Note_on_c, 9, 42, 28
7, 54371, Note_off_c, 9, 42, 64
7, 54472, Note_on_c, 9, 42, 103
7, 54472, Note_on_c, 9, 40, 70
7, 54476, Note_on_c, 9, 54, 73
7, 54480, Note_off_c, 9, 42, 64
7, 54491, Note_on_c, 9, 42, 28
7, 54496, Note_off_c, 9, 42, 64
7, 54496, Note_off_c, 9, 40, 64
7, 54511, Note_off_c, 9, 54, 64
7, 54592, Note_on_c, 9, 42, 88
7, 54592, Note_on_c, 9, 35, 58
7, 54598, Note_off_c, 9, 42, 64
7, 54608, Note_on_c, 9, 42, 28
7, 54612, Note_off_c, 9, 42, 64
7, 54632, Note_off_c, 9, 35, 64
7, 54713, Note_on_c, 9, 35, 66
7, 54713, Note_on_c, 9, 42, 103
7, 54720, Note_off_c, 9, 42, 64
7, 54729, Note_on_c, 9, 42, 28
7, 54739, Note_off_c, 9, 42, 64
7, 54739, Note_off_c, 9, 35, 64
7, 54830, Note_on_c, 9, 42, 72
7, 54835, Note_off_c, 9, 42, 64
7, 54850, Note_on_c, 9, 42, 28
7, 54858, Note_off_c, 9, 42, 64
7, 54950, Note_on_c, 9, 42, 103
7, 54950, Note_on_c, 9, 40, 69
7, 54953, Note_on_c, 9, 54, 70
7, 54960, Note_off_c, 9, 42, 64
7, 54968, Note_on_c, 9, 42, 28
7, 54974, Note_off_c, 9, 40, 64
7, 54977, Note_off_c, 9, 42, 64
7, 54992, Note_off_c, 9, 54, 64
7, 55072, Note_on_c, 9, 42, 66
7, 55077, Note_off_c, 9, 42, 64
7, 55084, Note_on_c, 9, 42, 28
7, 55094, Note_off_c, 9, 42, 64
7, 55195, Note_on_c, 9, 35, 65
7, 55200, Note_on_c, 9, 47, 74
7, 55210, Note_off_c, 9, 35, 64
7, 55234, Note_off_c, 9, 47, 64
7, 55303, Note_on_c, 9, 43, 46
7, 55303, Note_on_c, 9, 31, 38
7, 55313, Note_on_c, 9, 40, 34
7, 55320, Note_off_c, 9, 43, 64
7, 55324, Note_on_c, 9, 38, 40
7, 55326, Note_off_c, 9, 31, 64
7, 55331, Note_off_c, 9, 40, 64
7, 55341, Note_off_c, 9, 38, 64
7, 55343, Note_on_c, 9, 31, 43
7, 55374, Note_off_c, 9, 31, 64
7, 55379, Note_on_c, 9, 40, 34
7, 55389, Note_on_c, 9, 38, 36
7, 55402, Note_off_c, 9, 40, 64
7, 55406, Note_off_c, 9, 38, 64
7, 55426, Note_on_c, 9, 40, 81
7, 55434, Note_on_c, 9, 54, 73
7, 55440, Note_on_c, 9, 34, 76
7, 55442, Note_off_c, 9, 34, 64
7, 55461, Note_off_c, 9, 40, 64
7, 55471, Note_off_c, 9, 54, 64
7, 55550, Note_on_c, 9, 35, 63
7, 55590, Note_off_c, 9, 35, 64
7, 55667, Note_on_c, 9, 57, 52
7, 55676, Note_off_c, 9, 57, 64
7, 55678, Note_on_c, 9, 35, 62
7, 55678, Note_on_c, 9, 42, 103
7, 55683, Note_off_c, 9, 42, 64
7, 55689, Note_on_c, 9, 42, 28
7, 55697, Note_off_c, 9, 35, 64
7, 55700, Note_off_c, 9, 42, 64
7, 55790, Note_on_c, 9, 42, 83
7, 55795, Note_off_c, 9, 42, 64
7, 55810, Note_on_c, 9, 42, 28
7, 55816, Note_off_c, 9, 42, 64
7, 55910, Note_on_c, 9, 42, 103
7, 55910, Note_on_c, 9, 40, 70
7, 55913, Note_on_c, 9, 54, 65
7, 55920, Note_off_c, 9, 42, 64
7, 55924, Note_on_c, 9, 42, 28
7, 55932, Note_off_c, 9, 42, 64
7, 55932, Note_off_c, 9, 40, 64
7, 55945, Note_off_c, 9, 54, 64
7, 56030, Note_on_c, 9, 42, 70
7, 56035, Note_off_c, 9, 42, 64
7, 56052, Note_on_c, 9, 42, 28
7, 56055, Note_off_c, 9, 42, 64
7, 56152, Note_on_c, 9, 42, 103
7, 56154, Note_on_c, 9, 35, 57
7, 56157, Note_off_c, 9, 42, 64
7, 56169, Note_on_c, 9, 42, 28
7, 56176, Note_off_c, 9, 42, 64
7, 56176, Note_off_c, 9, 35, 64
7, 56269, Note_on_c, 9, 42, 74
7, 56276, Note_off_c, 9, 42, 64
7, 56289, Note_on_c, 9, 42, 28
7, 56294, Note_off_c, 9, 42, 64
7, 56394, Note_on_c, 9, 42, 103
7, 56394, Note_on_c, 9, 40, 70
7, 56395, Note_on_c, 9, 54, 73
7, 56400, Note_off_c, 9, 42, 64
7, 56411, Note_on_c, 9, 42, 28
7, 56415, Note_off_c, 9, 40, 64
7, 56418, Note_off_c, 9, 42, 64
7, 56434, Note_off_c, 9, 54, 64
7, 56512, Note_on_c, 9, 42, 88
7, 56512, Note_on_c, 9, 35, 58
7, 56519, Note_off_c, 9, 42, 64
7, 56527, Note_on_c, 9, 42, 28
7, 56531, Note_off_c, 9, 42, 64
7, 56549, Note_off_c, 9, 35, 64
7, 56631, Note_on_c, 9, 42, 103
7, 56633, Note_on_c, 9, 35, 66
7, 56635, Note_off_c, 9, 42, 64
7, 56649, Note_on_c, 9, 42, 28
7, 56654, Note_off_c, 9, 42, 64
7, 56654, Note_off_c, 9, 35, 64
7, 56752, Note_on_c, 9, 42, 72
7, 56756, Note_off_c, 9, 42, 64
7, 56771, Note_on_c, 9, 42, 28
7, 56773, Note_off_c, 9, 42, 64
7, 56874, Note_on_c, 9, 42, 103
7, 56874, Note_on_c, 9, 54, 70
7, 56874, Note_on_c, 9, 40, 69
7, 56880, Note_off_c, 9, 42, 64
7, 56889, Note_on_c, 9, 42, 28
7, 56894, Note_off_c, 9, 42, 64
7, 56894, Note_off_c, 9, 40, 64
7, 56906, Note_off_c, 9, 54, 64
7, 56991, Note_on_c, 9, 42, 66
7, 56996, Note_off_c, 9, 42, 64
7, 57011, Note_on_c, 9, 42, 28
7, 57015, Note_off_c, 9, 42, 64
7, 57113, Note_on_c, 9, 35, 65
7, 57115, Note_on_c, 9, 47, 74
7, 57134, Note_off_c, 9, 35, 64
7, 57152, Note_off_c, 9, 47, 64
7, 57224, Note_on_c, 9, 43, 46
7, 57224, Note_on_c, 9, 31, 38
7, 57234, Note_on_c, 9, 40, 34
7, 57239, Note_off_c, 9, 43, 64
7, 57246, Note_off_c, 9, 31, 64
7, 57246, Note_on_c, 9, 38, 40
7, 57255, Note_off_c, 9, 40, 64
7, 57262, Note_off_c, 9, 38, 64
7, 57264, Note_on_c, 9, 31, 43
7, 57296, Note_off_c, 9, 31, 64
7, 57300, Note_on_c, 9, 40, 34
7, 57306, Note_on_c, 9, 38, 36
7, 57324, Note_off_c, 9, 40, 64
7, 57329, Note_off_c, 9, 38, 64
7, 57350, Note_on_c, 9, 40, 81
7, 57353, Note_on_c, 9, 54, 73
7, 57355, Note_on_c, 9, 34, 76
7, 57365, Note_off_c, 9, 34, 64
7, 57383, Note_off_c, 9, 40, 64
7, 57389, Note_off_c, 9, 54, 64
7, 57473, Note_on_c, 9, 35, 63
7, 57512, Note_off_c, 9, 35, 64
7, 57586, Note_on_c, 9, 57, 52
7, 57595, Note_off_c, 9, 57, 64
7, 57595, Note_on_c, 9, 42, 103
7, 57596, Note_on_c, 9, 35, 62
7, 57601, Note_off_c, 9, 42, 64
7, 57611, Note_on_c, 9, 42, 28
7, 57621, Note_off_c, 9, 42, 64
7, 57621, Note_off_c, 9, 35, 64
7, 57712, Note_on_c, 9, 42, 83
7, 57717, Note_off_c, 9, 42, 64
7, 57732, Note_on_c, 9, 42, 28
7, 57739, Note_off_c, 9, 42, 64
7, 57836, Note_on_c, 9, 54, 65
7, 57836, Note_on_c, 9, 42, 103
7, 57836, Note_on_c, 9, 40, 70
7, 57842, Note_off_c, 9, 42, 64
7, 57852, Note_off_c, 9, 40, 64
7, 57852, Note_on_c, 9, 42, 28
7, 57854, Note_off_c, 9, 42, 64
7, 57870, Note_off_c, 9, 54, 64
7, 57950, Note_on_c, 9, 42, 70
7, 57956, Note_off_c, 9, 42, 64
7, 57971, Note_on_c, 9, 42, 28
7, 57976, Note_off_c, 9, 42, 64
7, 58074, Note_on_c, 9, 42, 103
7, 58074, Note_on_c, 9, 35, 57
7, 58078, Note_off_c, 9, 42, 64
7, 58091, Note_on_c, 9, 42, 28
7, 58098, Note_off_c, 9, 42, 64
7, 58098, Note_off_c, 9, 35, 64
7, 58191, Note_on_c, 9, 42, 74
7, 58198, Note_off_c, 9, 42, 64
7, 58209, Note_on_c, 9, 42, 28
7, 58214, Note_off_c, 9, 42, 64
7, 58310, Note_on_c, 9, 42, 103
7, 58310, Note_on_c, 9, 40, 70
7, 58314, Note_on_c, 9, 54, 73
7, 58318, Note_off_c, 9, 42, 64
7, 58328, Note_on_c, 9, 42, 28
7, 58338, Note_off_c, 9, 42, 64
7, 58338, Note_off_c, 9, 40, 64
7, 58353, Note_off_c, 9, 54, 64
7, 58433, Note_on_c, 9, 42, 88
7, 58433, Note_on_c, 9, 35, 58
7, 58439, Note_off_c, 9, 42, 64
7, 58446, Note_on_c, 9, 42, 28
7, 58451, Note_off_c, 9, 42, 64
7, 58470, Note_off_c, 9, 35, 64
7, 58551, Note_on_c, 9, 42, 103
7, 58553, Note_on_c, 9, 35, 66
7, 58558, Note_off_c, 9, 42, 64
7, 58570, Note_on_c, 9, 42, 28
7, 58576, Note_off_c, 9, 42, 64
7, 58576, Note_off_c, 9, 35, 64
7, 58672, Note_on_c, 9, 42, 72
7, 58676, Note_off_c, 9, 42, 64
7, 58690, Note_on_c, 9, 42, 28
7, 58694, Note_off_c, 9, 42, 64
7, 58794, Note_on_c, 9, 42, 103
7, 58794, Note_on_c, 9, 40, 69
7, 58796, Note_on_c, 9, 54, 70
7, 58799, Note_off_c, 9, 42, 64
7, 58805, Note_on_c, 9, 42, 28
7, 58820, Note_off_c, 9, 42, 64
7, 58820, Note_off_c, 9, 40, 64
7, 58825, Note_off_c, 9, 54, 64
7, 58912, Note_on_c, 9, 42, 66
7, 58916, Note_off_c, 9, 42, 64
7, 58930, Note_on_c, 9, 42, 28
7, 58936, Note_off_c, 9, 42, 64
7, 59031, Note_on_c, 9, 42, 103
7, 59033, Note_on_c, 9, 35, 55
7, 59038, Note_off_c, 9, 42, 64
7, 59052, Note_on_c, 9, 42, 28
7, 59055, Note_off_c, 9, 42, 64
7, 59055, Note_off_c, 9, 35, 64
7, 59152, Note_on_c, 9, 42, 70
7, 59158, Note_off_c, 9, 42, 64
7, 59168, Note_on_c, 9, 42, 28
7, 59173, Note_off_c, 9, 42, 64
7, 59276, Note_on_c, 9, 54, 73
7, 59280, Note_on_c, 9, 34, 76
7, 59283, Note_off_c, 9, 34, 64
7, 59312, Note_off_c, 9, 54, 64
7, 59392, Note_on_c, 9, 35, 63
7, 59430, Note_off_c, 9, 35, 64
7, 59516, Note_on_c, 9, 35, 62
7, 59516, Note_on_c, 9, 42, 103
7, 59516, Note_on_c, 9, 57, 52
7, 59517, Note_off_c, 9, 57, 64
7, 59522, Note_off_c, 9, 42, 64
7, 59528, Note_on_c, 9, 42, 28
7, 59536, Note_off_c, 9, 42, 64
7, 59536, Note_off_c, 9, 35, 64
7, 59630, Note_on_c, 9, 42, 83
7, 59638, Note_off_c, 9, 42, 64
7, 59649, Note_on_c, 9, 42, 28
7, 59654, Note_off_c, 9, 42, 64
7, 59751, Note_on_c, 9, 42, 103
7, 59753, Note_on_c, 9, 54, 65
7, 59753, Note_on_c, 9, 40, 70
7, 59757, Note_off_c, 9, 42, 64
7, 59768, Note_on_c, 9, 42, 28
7, 59780, Note_off_c, 9, 42, 64
7, 59780, Note_off_c, 9, 40, 64
7, 59791, Note_off_c, 9, 54, 64
7, 59869, Note_on_c, 9, 42, 70
7, 59873, Note_off_c, 9, 42, 64
7, 59890, Note_on_c, 9, 42, 28
7, 59895, Note_off_c, 9, 42, 64
7, 59993, Note_on_c, 9, 42, 103
7, 59993, Note_on_c, 9, 35, 57
7, 59998, Note_off_c, 9, 42, 64
7, 60010, Note_on_c, 9, 42, 28
7, 60014, Note_off_c, 9, 35, 64
7, 60016, Note_off_c, 9, 42, 64
7, 60113, Note_on_c, 9, 42, 74
7, 60118, Note_off_c, 9, 42, 64
7, 60131, Note_on_c, 9, 42, 28
7, 60136, Note_off_c, 9, 42, 64
7, 60232, Note_on_c, 9, 42, 103
7, 60232, Note_on_c, 9, 40, 70
7, 60235, Note_on_c, 9, 54, 73
7, 60240, Note_off_c, 9, 42, 64
7, 60249, Note_on_c, 9, 42, 28
7, 60257, Note_off_c, 9, 42, 64
7, 60257, Note_off_c, 9, 40, 64
7, 60273, Note_off_c, 9, 54, 64
7, 60353, Note_on_c, 9, 42, 88
7, 60353, Note_on_c, 9, 35, 58
7, 60360, Note_off_c, 9, 42, 64
7, 60369, Note_on_c, 9, 42, 28
7, 60372, Note_off_c, 9, 42, 64
7, 60390, Note_off_c, 9, 35, 64
7, 60472, Note_on_c, 9, 42, 103
7, 60474, Note_on_c, 9, 35, 66
7, 60476, Note_off_c, 9, 42, 64
7, 60489, Note_on_c, 9, 42, 28
7, 60499, Note_off_c, 9, 35, 64
7, 60500, Note_off_c, 9, 42, 64
7, 60594, Note_on_c, 9, 42, 72
7, 60597, Note_off_c, 9, 42, 64
7, 60610, Note_on_c, 9, 42, 28
7, 60617, Note_off_c, 9, 42, 64
7, 60714, Note_on_c, 9, 42, 103
7, 60714, Note_on_c, 9, 40, 69
7, 60715, Note_on_c, 9, 54, 70
7, 60720, Note_off_c, 9, 42, 64
7, 60729, Note_on_c, 9, 42, 28
7, 60734, Note_off_c, 9, 42, 64
7, 60734, Note_off_c, 9, 40, 64
7, 60749, Note_off_c, 9, 54, 64
7, 60829, Note_on_c, 9, 42, 66
7, 60838, Note_off_c, 9, 42, 64
7, 60850, Note_on_c, 9, 42, 28
7, 60852, Note_off_c, 9, 42, 64
7, 60954, Note_on_c, 9, 42, 103
7, 60954, Note_on_c, 9, 35, 55
7, 60960, Note_off_c, 9, 42, 64
7, 60965, Note_on_c, 9, 42, 28
7, 60970, Note_off_c, 9, 35, 64
7, 60973, Note_off_c, 9, 42, 64
7, 61073, Note_on_c, 9, 42, 70
7, 61077, Note_off_c, 9, 42, 64
7, 61087, Note_on_c, 9, 42, 28
7, 61092, Note_off_c, 9, 42, 64
7, 61193, Note_on_c, 9, 42, 103
7, 61193, Note_on_c, 9, 54, 69
7, 61193, Note_on_c, 9, 40, 70
7, 61197, Note_off_c, 9, 42, 64
7, 61206, Note_on_c, 9, 42, 28
7, 61213, Note_off_c, 9, 42, 64
7, 61234, Note_off_c, 9, 54, 64
7, 61242, Note_off_c, 9, 40, 64
7, 61313, Note_on_c, 9, 42, 103
7, 61313, Note_on_c, 9, 35, 63
7, 61320, Note_off_c, 9, 42, 64
7, 61328, Note_on_c, 9, 42, 28
7, 61332, Note_off_c, 9, 42, 64
7, 61350, Note_off_c, 9, 35, 64
7, 61431, Note_on_c, 9, 42, 103
7, 61433, Note_on_c, 9, 35, 74
7, 61439, Note_off_c, 9, 42, 64
7, 61440, Note_on_c, 9, 42, 103
7, 61441, Note_off_c, 9, 42, 64
7, 61447, Note_on_c, 9, 42, 28
7, 61457, Note_off_c, 9, 42, 64
7, 61551, Note_on_c, 9, 42, 83
7, 61556, Note_off_c, 9, 42, 64
7, 61569, Note_on_c, 9, 42, 28
7, 61574, Note_off_c, 9, 42, 64
7, 61690, Note_on_c, 9, 42, 28
7, 61695, Note_off_c, 9, 42, 64
7, 61788, Note_on_c, 9, 42, 70
7, 61794, Note_off_c, 9, 42, 64
7, 61812, Note_on_c, 9, 42, 28
7, 61814, Note_off_c, 9, 42, 64
7, 61912, Note_on_c, 9, 42, 103
7, 61916, Note_off_c, 9, 42, 64
7, 61928, Note_on_c, 9, 42, 28
7, 61937, Note_off_c, 9, 42, 64
7, 62034, Note_on_c, 9, 42, 74
7, 62040, Note_off_c, 9, 42, 64
7, 62046, Note_on_c, 9, 42, 28
7, 62053, Note_off_c, 9, 42, 64
7, 62166, Note_on_c, 9, 42, 28
7, 62171, Note_off_c, 9, 42, 64
7, 62270, Note_on_c, 9, 42, 88
7, 62277, Note_off_c, 9, 42, 64
7, 62288, Note_on_c, 9, 42, 28
7, 62297, Note_off_c, 9, 42, 64
7, 62393, Note_on_c, 9, 42, 103
7, 62398, Note_off_c, 9, 42, 64
7, 62400, Note_on_c, 9, 42, 103
7, 62401, Note_off_c, 9, 42, 64
7, 62407, Note_on_c, 9, 42, 28
7, 62417, Note_off_c, 9, 42, 64
7, 62511, Note_on_c, 9, 42, 83
7, 62516, Note_off_c, 9, 42, 64
7, 62529, Note_on_c, 9, 42, 28
7, 62534, Note_off_c, 9, 42, 64
7, 62650, Note_on_c, 9, 42, 28
7, 62655, Note_off_c, 9, 42, 64
7, 62748, Note_on_c, 9, 42, 70
7, 62754, Note_off_c, 9, 42, 64
7, 62772, Note_on_c, 9, 42, 28
7, 62774, Note_off_c, 9, 42, 64
7, 62872, Note_on_c, 9, 42, 103
7, 62876, Note_off_c, 9, 42, 64
7, 62888, Note_on_c, 9, 42, 28
7, 62897, Note_off_c, 9, 42, 64
7, 62994, Note_on_c, 9, 42, 74
7, 63000, Note_off_c, 9, 42, 64
7, 63006, Note_on_c, 9, 42, 28
7, 63013, Note_off_c, 9, 42, 64
7, 63126, Note_on_c, 9, 42, 28
7, 63131, Note_off_c, 9, 42, 64
7, 63230, Note_on_c, 9, 42, 88
7, 63237, Note_off_c, 9, 42, 64
7, 63248, Note_on_c, 9, 42, 28
7, 63257, Note_off_c, 9, 42, 64
7, 63353, Note_on_c, 9, 35, 66
7, 63353, Note_on_c, 9, 42, 103
7, 63358, Note_off_c, 9, 42, 64
7, 63360, Note_off_c, 9, 35, 64
7, 63360, Note_on_c, 9, 42, 103
7, 63361, Note_off_c, 9, 42, 64
7, 63367, Note_on_c, 9, 42, 28
7, 63377, Note_off_c, 9, 42, 64
7, 63471, Note_on_c, 9, 42, 83
7, 63476, Note_off_c, 9, 42, 64
7, 63489, Note_on_c, 9, 42, 28
7, 63494, Note_off_c, 9, 42, 64
7, 63610, Note_on_c, 9, 42, 28
7, 63615, Note_off_c, 9, 42, 64
7, 63708, Note_on_c, 9, 42, 70
7, 63714, Note_off_c, 9, 42, 64
7, 63732, Note_on_c, 9, 42, 28
7, 63734, Note_off_c, 9, 42, 64
7, 63832, Note_on_c, 9, 42, 103
7, 63836, Note_off_c, 9, 42, 64
7, 63848, Note_on_c, 9, 42, 28
7, 63857, Note_off_c, 9, 42, 64
7, 63954, Note_on_c, 9, 42, 74
7, 63960, Note_off_c, 9, 42, 64
7, 63966, Note_on_c, 9, 42, 28
7, 63973, Note_off_c, 9, 42, 64
7, 64086, Note_on_c, 9, 42, 28
7, 64091, Note_off_c, 9, 42, 64
7, 64190, Note_on_c, 9, 42, 88
7, 64197, Note_off_c, 9, 42, 64
7, 64208, Note_on_c, 9, 42, 28
7, 64217, Note_off_c, 9, 42, 64
7, 64313, Note_on_c, 9, 42, 103
7, 64318, Note_off_c, 9, 42, 64
7, 64320, Note_on_c, 9, 42, 103
7, 64321, Note_off_c, 9, 42, 64
7, 64327, Note_on_c, 9, 42, 28
7, 64337, Note_off_c, 9, 42, 64
7, 64431, Note_on_c, 9, 42, 83
7, 64436, Note_off_c, 9, 42, 64
7, 64449, Note_on_c, 9, 42, 28
7, 64454, Note_off_c, 9, 42, 64
7, 64570, Note_on_c, 9, 42, 28
7, 64575, Note_off_c, 9, 42, 64
7, 64668, Note_on_c, 9, 42, 70
7, 64674, Note_off_c, 9, 42, 64
7, 64692, Note_on_c, 9, 42, 28
7, 64694, Note_off_c, 9, 42, 64
7, 64792, Note_on_c, 9, 42, 103
7, 64796, Note_off_c, 9, 42, 64
7, 64808, Note_on_c, 9, 42, 28
7, 64817, Note_off_c, 9, 42, 64
7, 64914, Note_on_c, 9, 42, 74
7, 64920, Note_off_c, 9, 42, 64
7, 64926, Note_on_c, 9, 42, 28
7, 64933, Note_off_c, 9, 42, 64
7, 65046, Note_on_c, 9, 42, 28
7, 65051, Note_off_c, 9, 42, 64
7, 65150, Note_on_c, 9, 42, 88
7, 65157, Note_off_c, 9, 42, 64
7, 65168, Note_on_c, 9, 42, 28
7, 65177, Note_off_c, 9, 42, 64
7, 65273, Note_on_c, 9, 35, 66
7, 65273, Note_on_c, 9, 42, 103
7, 65278, Note_off_c, 9, 42, 64
7, 65280, Note_off_c, 9, 35, 64
7, 65280, Note_on_c, 9, 35, 62
7, 65288, Note_on_c, 9, 42, 28
7, 65294, Note_off_c, 9, 35, 64
7, 65297, Note_off_c, 9, 42, 64
7, 65392, Note_on_c, 9, 42, 83
7, 65395, Note_off_c, 9, 42, 64
7, 65407, Note_on_c, 9, 42, 28
7, 65411, Note_off_c, 9, 42, 64
7, 65512, Note_on_c, 9, 42, 103
7, 65514, Note_on_c, 9, 54, 65
7, 65514, Note_on_c, 9, 40, 70
7, 65518, Note_off_c, 9, 42, 64
7, 65525, Note_on_c, 9, 42, 28
7, 65531, Note_off_c, 9, 42, 64
7, 65531, Note_off_c, 9, 40, 64
7, 65552, Note_off_c, 9, 54, 64
7, 65631, Note_on_c, 9, 42, 70
7, 65637, Note_off_c, 9, 42, 64
7, 65652, Note_on_c, 9, 42, 28
7, 65654, Note_off_c, 9, 42, 64
7, 65754, Note_on_c, 9, 42, 103
7, 65754, Note_on_c, 9, 35, 57
7, 65758, Note_off_c, 9, 42, 64
7, 65768, Note_on_c, 9, 42, 28
7, 65776, Note_off_c, 9, 35, 64
7, 65778, Note_off_c, 9, 42, 64
7, 65872, Note_on_c, 9, 42, 74
7, 65875, Note_off_c, 9, 42, 64
7, 65889, Note_on_c, 9, 42, 28
7, 65896, Note_off_c, 9, 42, 64
7, 65992, Note_on_c, 9, 42, 103
7, 65994, Note_on_c, 9, 54, 73
7, 65994, Note_on_c, 9, 40, 70
7, 65999, Note_off_c, 9, 42, 64
7, 66009, Note_on_c, 9, 42, 28
7, 66016, Note_off_c, 9, 40, 64
7, 66020, Note_off_c, 9, 42, 64
7, 66033, Note_off_c, 9, 54, 64
7, 66112, Note_on_c, 9, 42, 88
7, 66120, Note_off_c, 9, 42, 64
7, 66127, Note_on_c, 9, 42, 28
7, 66134, Note_off_c, 9, 42, 64
7, 66149, Note_off_c, 9, 35, 64
7, 66229, Note_on_c, 9, 42, 103
7, 66232, Note_on_c, 9, 35, 66
7, 66234, Note_off_c, 9, 42, 64
7, 66249, Note_on_c, 9, 42, 28
7, 66254, Note_off_c, 9, 42, 64
7, 66254, Note_off_c, 9, 35, 64
7, 66352, Note_on_c, 9, 42, 72
7, 66356, Note_off_c, 9, 42, 64
7, 66370, Note_on_c, 9, 42, 28
7, 66375, Note_off_c, 9, 42, 64
7, 66470, Note_on_c, 9, 42, 103
7, 66473, Note_on_c, 9, 54, 70
7, 66473, Note_on_c, 9, 40, 69
7, 66478, Note_off_c, 9, 42, 64
7, 66486, Note_on_c, 9, 42, 28
7, 66494, Note_off_c, 9, 42, 64
7, 66494, Note_off_c, 9, 40, 64
7, 66512, Note_off_c, 9, 54, 64
7, 66590, Note_on_c, 9, 42, 66
7, 66596, Note_off_c, 9, 42, 64
7, 66610, Note_on_c, 9, 42, 28
7, 66615, Note_off_c, 9, 42, 64
7, 66715, Note_on_c, 9, 42, 103
7, 66715, Note_on_c, 9, 35, 55
7, 66722, Note_off_c, 9, 42, 64
7, 66730, Note_on_c, 9, 42, 28
7, 66733, Note_off_c, 9, 35, 64
7, 66735, Note_off_c, 9, 42, 64
7, 66834, Note_on_c, 9, 42, 70
7, 66836, Note_off_c, 9, 42, 64
7, 66850, Note_on_c, 9, 42, 28
7, 66857, Note_off_c, 9, 42, 64
7, 66949, Note_on_c, 9, 42, 103
7, 66949, Note_on_c, 9, 40, 70
7, 66953, Note_on_c, 9, 54, 69
7, 66957, Note_off_c, 9, 42, 64
7, 66967, Note_on_c, 9, 42, 28
7, 66970, Note_off_c, 9, 42, 64
7, 66991, Note_off_c, 9, 54, 64
7, 67001, Note_off_c, 9, 40, 64
7, 67074, Note_on_c, 9, 42, 103
7, 67074, Note_on_c, 9, 35, 63
7, 67079, Note_off_c, 9, 42, 64
7, 67090, Note_on_c, 9, 42, 28
7, 67095, Note_off_c, 9, 42, 64
7, 67110, Note_off_c, 9, 35, 64
7, 67192, Note_on_c, 9, 35, 74
7, 67192, Note_on_c, 9, 42, 103
7, 67195, Note_off_c, 9, 42, 64
7, 67208, Note_on_c, 9, 42, 28
7, 67215, Note_off_c, 9, 35, 64
7, 67219, Note_off_c, 9, 42, 64
7, 67311, Note_on_c, 9, 42, 87
7, 67316, Note_off_c, 9, 42, 64
7, 67332, Note_on_c, 9, 42, 28
7, 67336, Note_off_c, 9, 42, 64
7, 67431, Note_on_c, 9, 54, 70
7, 67431, Note_on_c, 9, 42, 103
7, 67431, Note_on_c, 9, 40, 74
7, 67436, Note_off_c, 9, 42, 64
7, 67447, Note_on_c, 9, 42, 28
7, 67451, Note_off_c, 9, 42, 64
7, 67482, Note_off_c, 9, 54, 64
7, 67483, Note_off_c, 9, 40, 64
7, 67551, Note_on_c, 9, 42, 77
7, 67556, Note_off_c, 9, 42, 64
7, 67570, Note_on_c, 9, 42, 28
7, 67578, Note_off_c, 9, 42, 64
7, 67673, Note_on_c, 9, 42, 103
7, 67673, Note_on_c, 9, 35, 57
7, 67676, Note_off_c, 9, 42, 64
7, 67690, Note_on_c, 9, 42, 28
7, 67695, Note_off_c, 9, 35, 64
7, 67697, Note_off_c, 9, 42, 64
7, 67792, Note_on_c, 9, 42, 82
7, 67796, Note_off_c, 9, 42, 64
7, 67808, Note_on_c, 9, 42, 28
7, 67816, Note_off_c, 9, 42, 64
7, 67914, Note_on_c, 9, 42, 103
7, 67914, Note_on_c, 9, 40, 69
7, 67916, Note_on_c, 9, 54, 71
7, 67919, Note_off_c, 9, 42, 64
7, 67928, Note_on_c, 9, 42, 28
7, 67934, Note_off_c, 9, 42, 64
7, 67956, Note_off_c, 9, 54, 64
7, 67962, Note_off_c, 9, 40, 64
7, 68028, Note_on_c, 9, 42, 101
7, 68031, Note_on_c, 9, 35, 62
7, 68034, Note_off_c, 9, 42, 64
7, 68049, Note_on_c, 9, 42, 28
7, 68059, Note_off_c, 9, 42, 64
7, 68074, Note_off_c, 9, 35, 64
7, 68153, Note_on_c, 9, 35, 66
7, 68153, Note_on_c, 9, 42, 103
7, 68158, Note_off_c, 9, 42, 64
7, 68172, Note_on_c, 9, 42, 28
7, 68175, Note_off_c, 9, 42, 64
7, 68205, Note_off_c, 9, 35, 64
7, 68270, Note_on_c, 9, 42, 93
7, 68272, Note_off_c, 9, 42, 64
7, 68290, Note_on_c, 9, 42, 28
7, 68296, Note_off_c, 9, 42, 64
7, 68395, Note_on_c, 9, 54, 69
7, 68395, Note_on_c, 9, 42, 103
7, 68395, Note_on_c, 9, 40, 70
7, 68401, Note_off_c, 9, 42, 64
7, 68408, Note_on_c, 9, 42, 28
7, 68415, Note_off_c, 9, 42, 64
7, 68440, Note_off_c, 9, 54, 64
7, 68448, Note_off_c, 9, 40, 64
7, 68509, Note_on_c, 9, 42, 99
7, 68514, Note_off_c, 9, 42, 64
7, 68530, Note_on_c, 9, 42, 28
7, 68534, Note_off_c, 9, 42, 64
7, 68634, Note_on_c, 9, 35, 65
7, 68640, Note_on_c, 9, 47, 74
7, 68660, Note_off_c, 9, 35, 64
7, 68672, Note_off_c, 9, 47, 64
7, 68745, Note_on_c, 9, 43, 46
7, 68745, Note_on_c, 9, 31, 38
7, 68756, Note_on_c, 9, 40, 34
7, 68760, Note_off_c, 9, 43, 64
7, 68766, Note_on_c, 9, 38, 40
7, 68767, Note_off_c, 9, 31, 64
7, 68775, Note_off_c, 9, 40, 64
7, 68784, Note_off_c, 9, 38, 64
7, 68784, Note_on_c, 9, 31, 43
7, 68819, Note_off_c, 9, 31, 64
7, 68819, Note_on_c, 9, 40, 34
7, 68827, Note_on_c, 9, 38, 36
7, 68841, Note_off_c, 9, 40, 64
7, 68843, Note_off_c, 9, 38, 64
7, 68867, Note_on_c, 9, 40, 81
7, 68875, Note_on_c, 9, 54, 73
7, 68875, Note_on_c, 9, 34, 76
7, 68885, Note_off_c, 9, 34, 64
7, 68901, Note_off_c, 9, 40, 64
7, 68918, Note_off_c, 9, 54, 64
7, 68991, Note_on_c, 9, 35, 63
7, 69030, Note_off_c, 9, 35, 64
7, 69107, Note_on_c, 9, 57, 52
7, 69116, Note_off_c, 9, 57, 64
7, 69116, Note_on_c, 9, 42, 103
7, 69118, Note_on_c, 9, 35, 62
7, 69122, Note_off_c, 9, 42, 64
7, 69127, Note_on_c, 9, 42, 28
7, 69134, Note_off_c, 9, 42, 64
7, 69134, Note_off_c, 9, 35, 64
7, 69230, Note_on_c, 9, 42, 83
7, 69235, Note_off_c, 9, 42, 64
7, 69251, Note_on_c, 9, 42, 28
7, 69255, Note_off_c, 9, 42, 64
7, 69353, Note_on_c, 9, 54, 65
7, 69353, Note_on_c, 9, 42, 103
7, 69353, Note_on_c, 9, 40, 70
7, 69360, Note_off_c, 9, 42, 64
7, 69368, Note_on_c, 9, 42, 28
7, 69375, Note_off_c, 9, 42, 64
7, 69375, Note_off_c, 9, 40, 64
7, 69392, Note_off_c, 9, 54, 64
7, 69471, Note_on_c, 9, 42, 70
7, 69479, Note_off_c, 9, 42, 64
7, 69488, Note_on_c, 9, 42, 28
7, 69496, Note_off_c, 9, 42, 64
7, 69592, Note_on_c, 9, 42, 103
7, 69592, Note_on_c, 9, 35, 57
7, 69598, Note_off_c, 9, 42, 64
7, 69608, Note_on_c, 9, 42, 28
7, 69615, Note_off_c, 9, 42, 64
7, 69615, Note_off_c, 9, 35, 64
7, 69712, Note_on_c, 9, 42, 74
7, 69717, Note_off_c, 9, 42, 64
7, 69730, Note_on_c, 9, 42, 28
7, 69734, Note_off_c, 9, 42, 64
7, 69833, Note_on_c, 9, 54, 73
7, 69840, Note_on_c, 9, 34, 76
7, 69845, Note_off_c, 9, 34, 64
7, 69872, Note_off_c, 9, 54, 64
7, 69952, Note_on_c, 9, 35, 63
7, 69990, Note_off_c, 9, 35, 64
7, 70070, Note_on_c, 9, 57, 52
7, 70074, Note_off_c, 9, 57, 64
7, 70076, Note_on_c, 9, 35, 62
7, 70076, Note_on_c, 9, 42, 103
7, 70080, Note_off_c, 9, 42, 64
7, 70084, Note_on_c, 9, 42, 28
7, 70092, Note_off_c, 9, 42, 64
7, 70092, Note_off_c, 9, 35, 64
7, 70192, Note_on_c, 9, 42, 83
7, 70196, Note_off_c, 9, 42, 64
7, 70211, Note_on_c, 9, 42, 28
7, 70216, Note_off_c, 9, 42, 64
7, 70312, Note_on_c, 9, 42, 103
7, 70314, Note_on_c, 9, 54, 65
7, 70314, Note_on_c, 9, 40, 70
7, 70318, Note_off_c, 9, 42, 64
7, 70327, Note_on_c, 9, 42, 28
7, 70335, Note_off_c, 9, 40, 64
7, 70340, Note_off_c, 9, 42, 64
7, 70354, Note_off_c, 9, 54, 64
7, 70432, Note_on_c, 9, 42, 70
7, 70438, Note_off_c, 9, 42, 64
7, 70450, Note_on_c, 9, 42, 28
7, 70458, Note_off_c, 9, 42, 64
7, 70552, Note_on_c, 9, 42, 103
7, 70552, Note_on_c, 9, 35, 57
7, 70557, Note_off_c, 9, 42, 64
7, 70565, Note_on_c, 9, 42, 28
7, 70579, Note_off_c, 9, 42, 64
7, 70579, Note_off_c, 9, 35, 64
7, 70670, Note_on_c, 9, 42, 74
7, 70675, Note_off_c, 9, 42, 64
7, 70689, Note_on_c, 9, 42, 28
7, 70694, Note_off_c, 9, 42, 64
7, 70794, Note_on_c, 9, 54, 73
7, 70798, Note_on_c, 9, 34, 76
7, 70805, Note_off_c, 9, 34, 64
7, 70835, Note_off_c, 9, 54, 64
7, 70913, Note_on_c, 9, 35, 63
7, 70952, Note_off_c, 9, 35, 64
7, 71026, Note_on_c, 9, 57, 52
7, 71034, Note_off_c, 9, 57, 64
7, 71036, Note_on_c, 9, 35, 62
7, 71036, Note_on_c, 9, 42, 103
7, 71041, Note_off_c, 9, 42, 64
7, 71045, Note_on_c, 9, 42, 28
7, 71059, Note_off_c, 9, 42, 64
7, 71059, Note_off_c, 9, 35, 64
7, 71152, Note_on_c, 9, 42, 83
7, 71159, Note_off_c, 9, 42, 64
7, 71167, Note_on_c, 9, 42, 28
7, 71178, Note_off_c, 9, 42, 64
7, 71270, Note_on_c, 9, 42, 103
7, 71272, Note_on_c, 9, 54, 65
7, 71272, Note_on_c, 9, 40, 70
7, 71277, Note_off_c, 9, 42, 64
7, 71287, Note_on_c, 9, 42, 28
7, 71295, Note_off_c, 9, 40, 64
7, 71296, Note_off_c, 9, 42, 64
7, 71314, Note_off_c, 9, 54, 64
7, 71390, Note_on_c, 9, 42, 70
7, 71396, Note_off_c, 9, 42, 64
7, 71410, Note_on_c, 9, 42, 28
7, 71416, Note_off_c, 9, 42, 64
7, 71514, Note_on_c, 9, 42, 103
7, 71516, Note_on_c, 9, 35, 57
7, 71520, Note_off_c, 9, 42, 64
7, 71527, Note_on_c, 9, 42, 28
7, 71539, Note_off_c, 9, 35, 64
7, 71540, Note_off_c, 9, 42, 64
7, 71630, Note_on_c, 9, 42, 74
7, 71636, Note_off_c, 9, 42, 64
7, 71648, Note_on_c, 9, 42, 28
7, 71655, Note_off_c, 9, 42, 64
7, 71752, Note_on_c, 9, 42, 103
7, 71753, Note_on_c, 9, 54, 73
7, 71753, Note_on_c, 9, 40, 70
7, 71759, Note_off_c, 9, 42, 64
7, 71768, Note_on_c, 9, 42, 28
7, 71773, Note_off_c, 9, 42, 64
7, 71773, Note_off_c, 9, 40, 64
7, 71792, Note_off_c, 9, 54, 64
7, 71874, Note_on_c, 9, 42, 88
7, 71874, Note_on_c, 9, 35, 58
7, 71880, Note_off_c, 9, 42, 64
7, 71892, Note_on_c, 9, 42, 28
7, 71894, Note_off_c, 9, 42, 64
7, 71908, Note_off_c, 9, 35, 64
7, 71992, Note_on_c, 9, 42, 103
7, 71993, Note_on_c, 9, 35, 66
7, 71997, Note_off_c, 9, 42, 64
7, 72007, Note_on_c, 9, 42, 28
7, 72015, Note_off_c, 9, 35, 64
7, 72018, Note_off_c, 9, 42, 64
7, 72112, Note_on_c, 9, 42, 72
7, 72116, Note_off_c, 9, 42, 64
7, 72132, Note_on_c, 9, 42, 28
7, 72134, Note_off_c, 9, 42, 64
7, 72232, Note_on_c, 9, 54, 70
7, 72232, Note_on_c, 9, 42, 103
7, 72232, Note_on_c, 9, 40, 69
7, 72238, Note_off_c, 9, 42, 64
7, 72244, Note_on_c, 9, 42, 28
7, 72250, Note_off_c, 9, 40, 64
7, 72254, Note_off_c, 9, 42, 64
7, 72270, Note_off_c, 9, 54, 64
7, 72352, Note_on_c, 9, 42, 66
7, 72357, Note_off_c, 9, 42, 64
7, 72366, Note_on_c, 9, 42, 28
7, 72371, Note_off_c, 9, 42, 64
7, 72474, Note_on_c, 9, 42, 103
7, 72474, Note_on_c, 9, 35, 55
7, 72478, Note_off_c, 9, 42, 64
7, 72488, Note_on_c, 9, 42, 28
7, 72494, Note_off_c, 9, 42, 64
7, 72494, Note_off_c, 9, 35, 64
7, 72592, Note_on_c, 9, 42, 70
7, 72596, Note_off_c, 9, 42, 64
7, 72609, Note_on_c, 9, 42, 28
7, 72615, Note_off_c, 9, 42, 64
7, 72713, Note_on_c, 9, 54, 69
7, 72713, Note_on_c, 9, 42, 103
7, 72713, Note_on_c, 9, 40, 70
7, 72720, Note_off_c, 9, 42, 64
7, 72728, Note_on_c, 9, 42, 28
7, 72737, Note_off_c, 9, 42, 64
7, 72752, Note_off_c, 9, 54, 64
7, 72761, Note_off_c, 9, 40, 64
7, 72830, Note_on_c, 9, 42, 103
7, 72831, Note_on_c, 9, 35, 63
7, 72837, Note_off_c, 9, 42, 64
7, 72850, Note_on_c, 9, 42, 28
7, 72855, Note_off_c, 9, 42, 64
7, 72870, Note_off_c, 9, 35, 64
7, 72952, Note_on_c, 9, 35, 74
7, 72952, Note_on_c, 9, 42, 103
7, 72960, Note_off_c, 9, 42, 64
7, 72969, Note_on_c, 9, 42, 28
7, 72974, Note_off_c, 9, 42, 64
7, 72974, Note_off_c, 9, 35, 64
7, 73072, Note_on_c, 9, 42, 87
7, 73078, Note_off_c, 9, 42, 64
7, 73091, Note_on_c, 9, 42, 28
7, 73095, Note_off_c, 9, 42, 64
7, 73193, Note_on_c, 9, 42, 103
7, 73193, Note_on_c, 9, 40, 74
7, 73196, Note_on_c, 9, 54, 70
7, 73200, Note_off_c, 9, 42, 64
7, 73208, Note_on_c, 9, 42, 28
7, 73215, Note_off_c, 9, 42, 64
7, 73242, Note_off_c, 9, 54, 64
7, 73246, Note_off_c, 9, 40, 64
7, 73314, Note_on_c, 9, 42, 77
7, 73318, Note_off_c, 9, 42, 64
7, 73330, Note_on_c, 9, 42, 28
7, 73335, Note_off_c, 9, 42, 64
7, 73432, Note_on_c, 9, 42, 103
7, 73432, Note_on_c, 9, 35, 57
7, 73435, Note_off_c, 9, 42, 64
7, 73444, Note_on_c, 9, 42, 28
7, 73455, Note_off_c, 9, 42, 64
7, 73455, Note_off_c, 9, 35, 64
7, 73550, Note_on_c, 9, 42, 82
7, 73555, Note_off_c, 9, 42, 64
7, 73568, Note_on_c, 9, 42, 28
7, 73571, Note_off_c, 9, 42, 64
7, 73673, Note_on_c, 9, 42, 103
7, 73673, Note_on_c, 9, 40, 69
7, 73675, Note_on_c, 9, 54, 71
7, 73680, Note_off_c, 9, 42, 64
7, 73690, Note_on_c, 9, 42, 28
7, 73695, Note_off_c, 9, 42, 64
7, 73714, Note_off_c, 9, 54, 64
7, 73719, Note_off_c, 9, 40, 64
7, 73793, Note_on_c, 9, 42, 101
7, 73793, Note_on_c, 9, 35, 62
7, 73798, Note_off_c, 9, 42, 64
7, 73803, Note_on_c, 9, 42, 28
7, 73816, Note_off_c, 9, 42, 64
7, 73833, Note_off_c, 9, 35, 64
7, 73911, Note_on_c, 9, 42, 103
7, 73913, Note_on_c, 9, 35, 66
7, 73919, Note_off_c, 9, 42, 64
7, 73929, Note_on_c, 9, 42, 28
7, 73935, Note_off_c, 9, 42, 64
7, 73966, Note_off_c, 9, 35, 64
7, 74032, Note_on_c, 9, 42, 93
7, 74036, Note_off_c, 9, 42, 64
7, 74048, Note_on_c, 9, 42, 28
7, 74058, Note_off_c, 9, 42, 64
7, 74151, Note_on_c, 9, 42, 103
7, 74153, Note_on_c, 9, 54, 69
7, 74153, Note_on_c, 9, 40, 70
7, 74160, Note_off_c, 9, 42, 64
7, 74168, Note_on_c, 9, 42, 28
7, 74175, Note_off_c, 9, 42, 64
7, 74198, Note_off_c, 9, 54, 64
7, 74208, Note_off_c, 9, 40, 64
7, 74271, Note_on_c, 9, 42, 99
7, 74273, Note_off_c, 9, 42, 64
7, 74289, Note_on_c, 9, 42, 28
7, 74294, Note_off_c, 9, 42, 64
7, 74391, Note_on_c, 9, 42, 103
7, 74393, Note_on_c, 9, 35, 58
7, 74398, Note_off_c, 9, 42, 64
7, 74408, Note_on_c, 9, 42, 28
7, 74415, Note_off_c, 9, 35, 64
7, 74418, Note_off_c, 9, 42, 64
7, 74509, Note_on_c, 9, 42, 87
7, 74520, Note_off_c, 9, 42, 64
7, 74527, Note_on_c, 9, 42, 28
7, 74532, Note_off_c, 9, 42, 64
7, 74634, Note_on_c, 9, 54, 72
7, 74634, Note_on_c, 9, 42, 103
7, 74634, Note_on_c, 9, 40, 70
7, 74640, Note_off_c, 9, 42, 64
7, 74647, Note_on_c, 9, 42, 28
7, 74652, Note_off_c, 9, 42, 64
7, 74674, Note_off_c, 9, 54, 64
7, 74685, Note_off_c, 9, 40, 64
7, 74755, Note_on_c, 9, 42, 103
7, 74755, Note_on_c, 9, 35, 63
7, 74759, Note_off_c, 9, 42, 64
7, 74767, Note_on_c, 9, 42, 28
7, 74770, Note_off_c, 9, 42, 64
7, 74788, Note_off_c, 9, 35, 64
7, 74871, Note_on_c, 9, 35, 62
7, 74871, Note_on_c, 9, 42, 103
7, 74879, Note_off_c, 9, 42, 64
7, 74887, Note_on_c, 9, 42, 28
7, 74899, Note_off_c, 9, 42, 64
7, 74899, Note_off_c, 9, 35, 64
7, 74993, Note_on_c, 9, 42, 83
7, 74995, Note_off_c, 9, 42, 64
7, 75012, Note_on_c, 9, 42, 28
7, 75014, Note_off_c, 9, 42, 64
7, 75113, Note_on_c, 9, 42, 103
7, 75115, Note_on_c, 9, 54, 65
7, 75115, Note_on_c, 9, 40, 70
7, 75120, Note_off_c, 9, 42, 64
7, 75128, Note_on_c, 9, 42, 28
7, 75140, Note_off_c, 9, 42, 64
7, 75140, Note_off_c, 9, 40, 64
7, 75152, Note_off_c, 9, 54, 64
7, 75231, Note_on_c, 9, 42, 70
7, 75236, Note_off_c, 9, 42, 64
7, 75252, Note_on_c, 9, 42, 28
7, 75256, Note_off_c, 9, 42, 64
7, 75354, Note_on_c, 9, 42, 103
7, 75354, Note_on_c, 9, 35, 57
7, 75361, Note_off_c, 9, 42, 64
7, 75370, Note_on_c, 9, 42, 28
7, 75376, Note_off_c, 9, 42, 64
7, 75376, Note_off_c, 9, 35, 64
7, 75474, Note_on_c, 9, 42, 74
7, 75478, Note_off_c, 9, 42, 64
7, 75488, Note_on_c, 9, 42, 28
7, 75491, Note_off_c, 9, 42, 64
7, 75595, Note_on_c, 9, 54, 73
7, 75595, Note_on_c, 9, 42, 103
7, 75595, Note_on_c, 9, 40, 70
7, 75601, Note_off_c, 9, 42, 64
7, 75609, Note_on_c, 9, 42, 28
7, 75615, Note_off_c, 9, 42, 64
7, 75615, Note_off_c, 9, 40, 64
7, 75631, Note_off_c, 9, 54, 64
7, 75713, Note_on_c, 9, 42, 88
7, 75713, Note_on_c, 9, 35, 58
7, 75718, Note_off_c, 9, 42, 64
7, 75726, Note_on_c, 9, 42, 28
7, 75740, Note_off_c, 9, 42, 64
7, 75749, Note_off_c, 9, 35, 64
7, 75833, Note_on_c, 9, 46, 83
7, 75840, Note_on_c, 9, 35, 66
7, 75842, Note_on_c, 9, 49, 52
7, 75863, Note_off_c, 9, 49, 64
7, 75886, Note_off_c, 9, 46, 64
7, 75890, Note_off_c, 9, 35, 64
7, 75959, Note_on_c, 9, 31, 57
7, 76002, Note_off_c, 9, 31, 64
7, 76072, Note_on_c, 9, 54, 65
7, 76077, Note_on_c, 9, 40, 70
7, 76080, Note_on_c, 9, 34, 52
7, 76104, Note_off_c, 9, 34, 64
7, 76113, Note_off_c, 9, 54, 64
7, 76125, Note_off_c, 9, 40, 64
7, 76193, Note_on_c, 9, 45, 58
7, 76241, Note_off_c, 9, 45, 64
7, 76312, Note_on_c, 9, 35, 65
7, 76318, Note_on_c, 9, 47, 74
7, 76338, Note_off_c, 9, 35, 64
7, 76354, Note_off_c, 9, 47, 64
7, 76422, Note_on_c, 9, 31, 38
7, 76425, Note_on_c, 9, 43, 46
7, 76432, Note_on_c, 9, 40, 34
7, 76439, Note_off_c, 9, 43, 64
7, 76446, Note_on_c, 9, 38, 40
7, 76450, Note_off_c, 9, 31, 64
7, 76453, Note_off_c, 9, 40, 64
7, 76465, Note_off_c, 9, 38, 64
7, 76465, Note_on_c, 9, 31, 43
7, 76494, Note_off_c, 9, 31, 64
7, 76497, Note_on_c, 9, 40, 34
7, 76506, Note_on_c, 9, 38, 36
7, 76519, Note_off_c, 9, 40, 64
7, 76524, Note_off_c, 9, 38, 64
7, 76547, Note_on_c, 9, 40, 81
7, 76553, Note_on_c, 9, 54, 73
7, 76555, Note_on_c, 9, 34, 76
7, 76567, Note_off_c, 9, 34, 64
7, 76588, Note_off_c, 9, 40, 64
7, 76592, Note_off_c, 9, 54, 64
7, 76670, Note_on_c, 9, 35, 63
7, 76708, Note_off_c, 9, 35, 64
7, 76787, Note_on_c, 9, 57, 52
7, 76794, Note_off_c, 9, 57, 64
7, 76795, Note_on_c, 9, 35, 62
7, 76795, Note_on_c, 9, 42, 103
7, 76800, Note_off_c, 9, 42, 64
7, 76800, Note_off_c, 9, 35, 64
7, 76800, Note_on_c, 9, 35, 62
7, 76808, Note_on_c, 9, 42, 28
7, 76814, Note_off_c, 9, 35, 64
7, 76817, Note_off_c, 9, 42, 64
7, 76912, Note_on_c, 9, 42, 83
7, 76915, Note_off_c, 9, 42, 64
7, 76927, Note_on_c, 9, 42, 28
7, 76931, Note_off_c, 9, 42, 64
7, 77032, Note_on_c, 9, 42, 103
7, 77034, Note_on_c, 9, 54, 65
7, 77034, Note_on_c, 9, 40, 70
7, 77038, Note_off_c, 9, 42, 64
7, 77045, Note_on_c, 9, 42, 28
7, 77051, Note_off_c, 9, 42, 64
7, 77051, Note_off_c, 9, 40, 64
7, 77072, Note_off_c, 9, 54, 64
7, 77151, Note_on_c, 9, 42, 70
7, 77157, Note_off_c, 9, 42, 64
7, 77172, Note_on_c, 9, 42, 28
7, 77174, Note_off_c, 9, 42, 64
7, 77274, Note_on_c, 9, 42, 103
7, 77274, Note_on_c, 9, 35, 57
7, 77278, Note_off_c, 9, 42, 64
7, 77288, Note_on_c, 9, 42, 28
7, 77296, Note_off_c, 9, 35, 64
7, 77298, Note_off_c, 9, 42, 64
7, 77392, Note_on_c, 9, 42, 74
7, 77395, Note_off_c, 9, 42, 64
7, 77409, Note_on_c, 9, 42, 28
7, 77416, Note_off_c, 9, 42, 64
7, 77512, Note_on_c, 9, 42, 103
7, 77514, Note_on_c, 9, 54, 73
7, 77514, Note_on_c, 9, 40, 70
7, 77519, Note_off_c, 9, 42, 64
7, 77529, Note_on_c, 9, 42, 28
7, 77536, Note_off_c, 9, 40, 64
7, 77540, Note_off_c, 9, 42, 64
7, 77553, Note_off_c, 9, 54, 64
7, 77632, Note_on_c, 9, 42, 88
7, 77632, Note_on_c, 9, 35, 58
7, 77640, Note_off_c, 9, 42, 64
7, 77647, Note_on_c, 9, 42, 28
7, 77654, Note_off_c, 9, 42, 64
7, 77669, Note_off_c, 9, 35, 64
7, 77749, Note_on_c, 9, 42, 103
7, 77752, Note_on_c, 9, 35, 66
7, 77754, Note_off_c, 9, 42, 64
7, 77769, Note_on_c, 9, 42, 28
7, 77774, Note_off_c, 9, 42, 64
7, 77774, Note_off_c, 9, 35, 64
7, 77872, Note_on_c, 9, 42, 72
7, 77876, Note_off_c, 9, 42, 64
7, 77890, Note_on_c, 9, 42, 28
7, 77895, Note_off_c, 9, 42, 64
7, 77990, Note_on_c, 9, 42, 103
7, 77993, Note_on_c, 9, 54, 70
7, 77993, Note_on_c, 9, 40, 69
7, 77998, Note_off_c, 9, 42, 64
7, 78006, Note_on_c, 9, 42, 28
7, 78014, Note_off_c, 9, 42, 64
7, 78014, Note_off_c, 9, 40, 64
7, 78032, Note_off_c, 9, 54, 64
7, 78110, Note_on_c, 9, 42, 66
7, 78116, Note_off_c, 9, 42, 64
7, 78130, Note_on_c, 9, 42, 28
7, 78135, Note_off_c, 9, 42, 64
7, 78235, Note_on_c, 9, 42, 103
7, 78235, Note_on_c, 9, 35, 55
7, 78242, Note_off_c, 9, 42, 64
7, 78250, Note_on_c, 9, 42, 28
7, 78253, Note_off_c, 9, 35, 64
7, 78255, Note_off_c, 9, 42, 64
7, 78354, Note_on_c, 9, 42, 70
7, 78356, Note_off_c, 9, 42, 64
7, 78370, Note_on_c, 9, 42, 28
7, 78377, Note_off_c, 9, 42, 64
7, 78469, Note_on_c, 9, 42, 103
7, 78469, Note_on_c, 9, 40, 70
7, 78473, Note_on_c, 9, 54, 69
7, 78477, Note_off_c, 9, 42, 64
7, 78487, Note_on_c, 9, 42, 28
7, 78490, Note_off_c, 9, 42, 64
7, 78511, Note_off_c, 9, 54, 64
7, 78521, Note_off_c, 9, 40, 64
7, 78594, Note_on_c, 9, 42, 103
7, 78594, Note_on_c, 9, 35, 63
7, 78599, Note_off_c, 9, 42, 64
7, 78610, Note_on_c, 9, 42, 28
7, 78615, Note_off_c, 9, 42, 64
7, 78630, Note_off_c, 9, 35, 64
7, 78712, Note_on_c, 9, 35, 74
7, 78712, Note_on_c, 9, 42, 103
7, 78715, Note_off_c, 9, 42, 64
7, 78728, Note_on_c, 9, 42, 28
7, 78735, Note_off_c, 9, 35, 64
7, 78739, Note_off_c, 9, 42, 64
7, 78831, Note_on_c, 9, 42, 87
7, 78836, Note_off_c, 9, 42, 64
7, 78852, Note_on_c, 9, 42, 28
7, 78856, Note_off_c, 9, 42, 64
7, 78951, Note_on_c, 9, 54, 70
7, 78951, Note_on_c, 9, 42, 103
7, 78951, Note_on_c, 9, 40, 74
7, 78956, Note_off_c, 9, 42, 64
7, 78967, Note_on_c, 9, 42, 28
7, 78971, Note_off_c, 9, 42, 64
7, 79002, Note_off_c, 9, 54, 64
7, 79003, Note_off_c, 9, 40, 64
7, 79071, Note_on_c, 9, 42, 77
7, 79076, Note_off_c, 9, 42, 64
7, 79090, Note_on_c, 9, 42, 28
7, 79098, Note_off_c, 9, 42, 64
7, 79193, Note_on_c, 9, 42, 103
7, 79193, Note_on_c, 9, 35, 57
7, 79196, Note_off_c, 9, 42, 64
7, 79210, Note_on_c, 9, 42, 28
7, 79215, Note_off_c, 9, 35, 64
7, 79217, Note_off_c, 9, 42, 64
7, 79312, Note_on_c, 9, 42, 82
7, 79316, Note_off_c, 9, 42, 64
7, 79328, Note_on_c, 9, 42, 28
7, 79336, Note_off_c, 9, 42, 64
7, 79434, Note_on_c, 9, 42, 103
7, 79434, Note_on_c, 9, 40, 69
7, 79436, Note_on_c, 9, 54, 71
7, 79439, Note_off_c, 9, 42, 64
7, 79448, Note_on_c, 9, 42, 28
7, 79454, Note_off_c, 9, 42, 64
7, 79476, Note_off_c, 9, 54, 64
7, 79482, Note_off_c, 9, 40, 64
7, 79548, Note_on_c, 9, 42, 101
7, 79551, Note_on_c, 9, 35, 62
7, 79554, Note_off_c, 9, 42, 64
7, 79569, Note_on_c, 9, 42, 28
7, 79579, Note_off_c, 9, 42, 64
7, 79594, Note_off_c, 9, 35, 64
7, 79673, Note_on_c, 9, 35, 66
7, 79673, Note_on_c, 9, 42, 103
7, 79678, Note_off_c, 9, 42, 64
7, 79680, Note_on_c, 9, 35, 74
7, 79688, Note_on_c, 9, 42, 28
7, 79695, Note_off_c, 9, 35, 64
7, 79699, Note_off_c, 9, 42, 64
7, 79791, Note_on_c, 9, 42, 87
7, 79796, Note_off_c, 9, 42, 64
7, 79812, Note_on_c, 9, 42, 28
7, 79816, Note_off_c, 9, 42, 64
7, 79911, Note_on_c, 9, 54, 70
7, 79911, Note_on_c, 9, 42, 103
7, 79911, Note_on_c, 9, 40, 74
7, 79916, Note_off_c, 9, 42, 64
7, 79927, Note_on_c, 9, 42, 28
7, 79931, Note_off_c, 9, 42, 64
7, 79962, Note_off_c, 9, 54, 64
7, 79963, Note_off_c, 9, 40, 64
7, 80031, Note_on_c, 9, 42, 77
7, 80036, Note_off_c, 9, 42, 64
7, 80050, Note_on_c, 9, 42, 28
7, 80058, Note_off_c, 9, 42, 64
7, 80153, Note_on_c, 9, 42, 103
7, 80153, Note_on_c, 9, 35, 57
7, 80156, Note_off_c, 9, 42, 64
7, 80170, Note_on_c, 9, 42, 28
7, 80175, Note_off_c, 9, 35, 64
7, 80177, Note_off_c, 9, 42, 64
7, 80272, Note_on_c, 9, 42, 82
7, 80276, Note_off_c, 9, 42, 64
7, 80288, Note_on_c, 9, 42, 28
7, 80296, Note_off_c, 9, 42, 64
7, 80394, Note_on_c, 9, 42, 103
7, 80394, Note_on_c, 9, 40, 69
7, 80396, Note_on_c, 9, 54, 71
7, 80399, Note_off_c, 9, 42, 64
7, 80408, Note_on_c, 9, 42, 28
7, 80414, Note_off_c, 9, 42, 64
7, 80436, Note_off_c, 9, 54, 64
7, 80442, Note_off_c, 9, 40, 64
7, 80508, Note_on_c, 9, 42, 101
7, 80511, Note_on_c, 9, 35, 62
7, 80514, Note_off_c, 9, 42, 64
7, 80529, Note_on_c, 9, 42, 28
7, 80539, Note_off_c, 9, 42, 64
7, 80554, Note_off_c, 9, 35, 64
7, 80633, Note_on_c, 9, 35, 66
7, 80633, Note_on_c, 9, 42, 103
7, 80638, Note_off_c, 9, 42, 64
7, 80640, Note_off_c, 9, 35, 64
7, 80640, Note_on_c, 9, 35, 74
7, 80648, Note_on_c, 9, 42, 28
7, 80655, Note_off_c, 9, 35, 64
7, 80659, Note_off_c, 9, 42, 64
7, 80751, Note_on_c, 9, 42, 87
7, 80756, Note_off_c, 9, 42, 64
7, 80772, Note_on_c, 9, 42, 28
7, 80776, Note_off_c, 9, 42, 64
7, 80871, Note_on_c, 9, 54, 70
7, 80871, Note_on_c, 9, 42, 103
7, 80871, Note_on_c, 9, 40, 74
7, 80876, Note_off_c, 9, 42, 64
7, 80887, Note_on_c, 9, 42, 28
7, 80891, Note_off_c, 9, 42, 64
7, 80922, Note_off_c, 9, 54, 64
7, 80923, Note_off_c, 9, 40, 64
7, 80991, Note_on_c, 9, 42, 77
7, 80996, Note_off_c, 9, 42, 64
7, 81010, Note_on_c, 9, 42, 28
7, 81018, Note_off_c, 9, 42, 64
7, 81113, Note_on_c, 9, 42, 103
7, 81113, Note_on_c, 9, 35, 57
7, 81116, Note_off_c, 9, 42, 64
7, 81130, Note_on_c, 9, 42, 28
7, 81135, Note_off_c, 9, 35, 64
7, 81137, Note_off_c, 9, 42, 64
7, 81232, Note_on_c, 9, 42, 82
7, 81236, Note_off_c, 9, 42, 64
7, 81248, Note_on_c, 9, 42, 28
7, 81256, Note_off_c, 9, 42, 64
7, 81354, Note_on_c, 9, 42, 103
7, 81354, Note_on_c, 9, 40, 69
7, 81356, Note_on_c, 9, 54, 71
7, 81359, Note_off_c, 9, 42, 64
7, 81368, Note_on_c, 9, 42, 28
7, 81374, Note_off_c, 9, 42, 64
7, 81396, Note_off_c, 9, 54, 64
7, 81402, Note_off_c, 9, 40, 64
7, 81468, Note_on_c, 9, 42, 101
7, 81474, Note_off_c, 9, 42, 64
7, 81489, Note_on_c, 9, 42, 28
7, 81499, Note_off_c, 9, 42, 64
7, 81514, Note_off_c, 9, 35, 64
7, 81593, Note_on_c, 9, 35, 66
7, 81593, Note_on_c, 9, 42, 103
7, 81598, Note_off_c, 9, 42, 64
7, 81600, Note_off_c, 9, 35, 64
7, 81600, Note_on_c, 9, 35, 74
7, 81608, Note_on_c, 9, 42, 28
7, 81615, Note_off_c, 9, 35, 64
7, 81619, Note_off_c, 9, 42, 64
7, 81711, Note_on_c, 9, 42, 87
7, 81716, Note_off_c, 9, 42, 64
7, 81732, Note_on_c, 9, 42, 28
7, 81736, Note_off_c, 9, 42, 64
7, 81831, Note_on_c, 9, 54, 70
7, 81831, Note_on_c, 9, 42, 103
7, 81831, Note_on_c, 9, 40, 74
7, 81836, Note_off_c, 9, 42, 64
7, 81847, Note_on_c, 9, 42, 28
7, 81851, Note_off_c, 9, 42, 64
7, 81882, Note_off_c, 9, 54, 64
7, 81883, Note_off_c, 9, 40, 64
7, 81951, Note_on_c, 9, 42, 77
7, 81956, Note_off_c, 9, 42, 64
7, 81970, Note_on_c, 9, 42, 28
7, 81978, Note_off_c, 9, 42, 64
7, 82073, Note_on_c, 9, 42, 103
7, 82073, Note_on_c, 9, 35, 57
7, 82076, Note_off_c, 9, 42, 64
7, 82090, Note_on_c, 9, 42, 28
7, 82095, Note_off_c, 9, 35, 64
7, 82097, Note_off_c, 9, 42, 64
7, 82192, Note_on_c, 9, 42, 82
7, 82196, Note_off_c, 9, 42, 64
7, 82208, Note_on_c, 9, 42, 28
7, 82216, Note_off_c, 9, 42, 64
7, 82314, Note_on_c, 9, 42, 103
7, 82314, Note_on_c, 9, 40, 69
7, 82316, Note_on_c, 9, 54, 71
7, 82319, Note_off_c, 9, 42, 64
7, 82328, Note_on_c, 9, 42, 28
7, 82334, Note_off_c, 9, 42, 64
7, 82356, Note_off_c, 9, 54, 64
7, 82362, Note_off_c, 9, 40, 64
7, 82428, Note_on_c, 9, 42, 101
7, 82431, Note_on_c, 9, 35, 62
7, 82434, Note_off_c, 9, 42, 64
7, 82449, Note_on_c, 9, 42, 28
7, 82459, Note_off_c, 9, 42, 64
7, 82474, Note_off_c, 9, 35, 64
7, 82553, Note_on_c, 9, 35, 66
7, 82553, Note_on_c, 9, 42, 103
7, 82558, Note_off_c, 9, 42, 64
7, 82560, Note_off_c, 9, 35, 64
7, 82560, Note_on_c, 9, 35, 74
7, 82568, Note_on_c, 9, 42, 28
7, 82575, Note_off_c, 9, 35, 64
7, 82579, Note_off_c, 9, 42, 64
7, 82671, Note_on_c, 9, 42, 87
7, 82676, Note_off_c, 9, 42, 64
7, 82692, Note_on_c, 9, 42, 28
7, 82696, Note_off_c, 9, 42, 64
7, 82791, Note_on_c, 9, 54, 70
7, 82791, Note_on_c, 9, 42, 103
7, 82791, Note_on_c, 9, 40, 74
7, 82796, Note_off_c, 9, 42, 64
7, 82807, Note_on_c, 9, 42, 28
7, 82811, Note_off_c, 9, 42, 64
7, 82842, Note_off_c, 9, 54, 64
7, 82843, Note_off_c, 9, 40, 64
7, 82911, Note_on_c, 9, 42, 77
7, 82916, Note_off_c, 9, 42, 64
7, 82930, Note_on_c, 9, 42, 28
7, 82938, Note_off_c, 9, 42, 64
7, 83033, Note_on_c, 9, 42, 103
7, 83033, Note_on_c, 9, 35, 57
7, 83036, Note_off_c, 9, 42, 64
7, 83050, Note_on_c, 9, 42, 28
7, 83055, Note_off_c, 9, 35, 64
7, 83057, Note_off_c, 9, 42, 64
7, 83152, Note_on_c, 9, 42, 82
7, 83156, Note_off_c, 9, 42, 64
7, 83168, Note_on_c, 9, 42, 28
7, 83176, Note_off_c, 9, 42, 64
7, 83274, Note_on_c, 9, 42, 103
7, 83274, Note_on_c, 9, 40, 69
7, 83276, Note_on_c, 9, 54, 71
7, 83279, Note_off_c, 9, 42, 64
7, 83288, Note_on_c, 9, 42, 28
7, 83294, Note_off_c, 9, 42, 64
7, 83316, Note_off_c, 9, 54, 64
7, 83322, Note_off_c, 9, 40, 64
7, 83388, Note_on_c, 9, 42, 101
7, 83391, Note_on_c, 9, 35, 62
7, 83394, Note_off_c, 9, 42, 64
7, 83409, Note_on_c, 9, 42, 28
7, 83419, Note_off_c, 9, 42, 64
7, 83434, Note_off_c, 9, 35, 64
7, 83513, Note_on_c, 9, 35, 66
7, 83513, Note_on_c, 9, 42, 103
7, 83518, Note_off_c, 9, 42, 64
7, 83520, Note_off_c, 9, 35, 64
7, 83520, Note_on_c, 9, 35, 66
7, 83532, Note_on_c, 9, 42, 28
7, 83535, Note_off_c, 9, 42, 64
7, 83565, Note_off_c, 9, 35, 64
7, 83630, Note_on_c, 9, 42, 93
7, 83632, Note_off_c, 9, 42, 64
7, 83650, Note_on_c, 9, 42, 28
7, 83656, Note_off_c, 9, 42, 64
7, 83755, Note_on_c, 9, 54, 69
7, 83755, Note_on_c, 9, 42, 103
7, 83755, Note_on_c, 9, 40, 70
7, 83761, Note_off_c, 9, 42, 64
7, 83768, Note_on_c, 9, 42, 28
7, 83775, Note_off_c, 9, 42, 64
7, 83800, Note_off_c, 9, 54, 64
7, 83808, Note_off_c, 9, 40, 64
7, 83869, Note_on_c, 9, 42, 99
7, 83874, Note_off_c, 9, 42, 64
7, 83890, Note_on_c, 9, 42, 28
7, 83894, Note_off_c, 9, 42, 64
7, 83994, Note_on_c, 9, 35, 65
7, 84000, Note_on_c, 9, 47, 74
7, 84020, Note_off_c, 9, 35, 64
7, 84032, Note_off_c, 9, 47, 64
7, 84105, Note_on_c, 9, 43, 46
7, 84105, Note_on_c, 9, 31, 38
7, 84116, Note_on_c, 9, 40, 34
7, 84120, Note_off_c, 9, 43, 64
7, 84126, Note_on_c, 9, 38, 40
7, 84127, Note_off_c, 9, 31, 64
7, 84135, Note_off_c, 9, 40, 64
7, 84144, Note_off_c, 9, 38, 64
7, 84144, Note_on_c, 9, 31, 43
7, 84179, Note_off_c, 9, 31, 64
7, 84179, Note_on_c, 9, 40, 34
7, 84187, Note_on_c, 9, 38, 36
7, 84201, Note_off_c, 9, 40, 64
7, 84203, Note_off_c, 9, 38, 64
7, 84227, Note_on_c, 9, 40, 81
7, 84235, Note_on_c, 9, 54, 73
7, 84235, Note_on_c, 9, 34, 76
7, 84245, Note_off_c, 9, 34, 64
7, 84261, Note_off_c, 9, 40, 64
7, 84278, Note_off_c, 9, 54, 64
7, 84351, Note_on_c, 9, 35, 63
7, 84390, Note_off_c, 9, 35, 64
7, 84467, Note_on_c, 9, 57, 52
7, 84476, Note_off_c, 9, 57, 64
7, 84476, Note_on_c, 9, 42, 103
7, 84478, Note_on_c, 9, 35, 62
7, 84480, Note_off_c, 9, 35, 64
7, 84480, Note_off_c, 9, 42, 64
7, 84480, Note_on_c, 9, 35, 62
7, 84488, Note_on_c, 9, 42, 28
7, 84494, Note_off_c, 9, 35, 64
7, 84497, Note_off_c, 9, 42, 64
7, 84592, Note_on_c, 9, 42, 83
7, 84595, Note_off_c, 9, 42, 64
7, 84607, Note_on_c, 9, 42, 28
7, 84611, Note_off_c, 9, 42, 64
7, 84712, Note_on_c, 9, 42, 103
7, 84714, Note_on_c, 9, 54, 65
7, 84714, Note_on_c, 9, 40, 70
7, 84718, Note_off_c, 9, 42, 64
7, 84725, Note_on_c, 9, 42, 28
7, 84731, Note_off_c, 9, 42, 64
7, 84731, Note_off_c, 9, 40, 64
7, 84752, Note_off_c, 9, 54, 64
7, 84831, Note_on_c, 9, 42, 70
7, 84837, Note_off_c, 9, 42, 64
7, 84852, Note_on_c, 9, 42, 28
7, 84854, Note_off_c, 9, 42, 64
7, 84954, Note_on_c, 9, 42, 103
7, 84954, Note_on_c, 9, 35, 57
7, 84958, Note_off_c, 9, 42, 64
7, 84968, Note_on_c, 9, 42, 28
7, 84976, Note_off_c, 9, 35, 64
7, 84978, Note_off_c, 9, 42, 64
7, 85072, Note_on_c, 9, 42, 74
7, 85075, Note_off_c, 9, 42, 64
7, 85089, Note_on_c, 9, 42, 28
7, 85096, Note_off_c, 9, 42, 64
7, 85192, Note_on_c, 9, 42, 103
7, 85194, Note_on_c, 9, 54, 73
7, 85194, Note_on_c, 9, 40, 70
7, 85199, Note_off_c, 9, 42, 64
7, 85209, Note_on_c, 9, 42, 28
7, 85216, Note_off_c, 9, 40, 64
7, 85220, Note_off_c, 9, 42, 64
7, 85233, Note_off_c, 9, 54, 64
7, 85312, Note_on_c, 9, 42, 88
7, 85312, Note_on_c, 9, 35, 58
7, 85320, Note_off_c, 9, 42, 64
7, 85327, Note_on_c, 9, 42, 28
7, 85334, Note_off_c, 9, 42, 64
7, 85349, Note_off_c, 9, 35, 64
7, 85429, Note_on_c, 9, 42, 103
7, 85432, Note_on_c, 9, 35, 66
7, 85434, Note_off_c, 9, 42, 64
7, 85449, Note_on_c, 9, 42, 28
7, 85454, Note_off_c, 9, 42, 64
7, 85454, Note_off_c, 9, 35, 64
7, 85552, Note_on_c, 9, 42, 72
7, 85556, Note_off_c, 9, 42, 64
7, 85570, Note_on_c, 9, 42, 28
7, 85575, Note_off_c, 9, 42, 64
7, 85670, Note_on_c, 9, 42, 103
7, 85673, Note_on_c, 9, 54, 70
7, 85673, Note_on_c, 9, 40, 69
7, 85678, Note_off_c, 9, 42, 64
7, 85686, Note_on_c, 9, 42, 28
7, 85694, Note_off_c, 9, 42, 64
7, 85694, Note_off_c, 9, 40, 64
7, 85712, Note_off_c, 9, 54, 64
7, 85790, Note_on_c, 9, 42, 66
7, 85796, Note_off_c, 9, 42, 64
7, 85810, Note_on_c, 9, 42, 28
7, 85815, Note_off_c, 9, 42, 64
7, 85915, Note_on_c, 9, 42, 103
7, 85915, Note_on_c, 9, 35, 55
7, 85922, Note_off_c, 9, 42, 64
7, 85930, Note_on_c, 9, 42, 28
7, 85933, Note_off_c, 9, 35, 64
7, 85935, Note_off_c, 9, 42, 64
7, 86034, Note_on_c, 9, 42, 70
7, 86036, Note_off_c, 9, 42, 64
7, 86050, Note_on_c, 9, 42, 28
7, 86057, Note_off_c, 9, 42, 64
7, 86149, Note_on_c, 9, 42, 103
7, 86149, Note_on_c, 9, 40, 70
7, 86153, Note_on_c, 9, 54, 69
7, 86157, Note_off_c, 9, 42, 64
7, 86167, Note_on_c, 9, 42, 28
7, 86170, Note_off_c, 9, 42, 64
7, 86191, Note_off_c, 9, 54, 64
7, 86201, Note_off_c, 9, 40, 64
7, 86274, Note_on_c, 9, 42, 103
7, 86274, Note_on_c, 9, 35, 63
7, 86279, Note_off_c, 9, 42, 64
7, 86290, Note_on_c, 9, 42, 28
7, 86295, Note_off_c, 9, 42, 64
7, 86310, Note_off_c, 9, 35, 64
7, 86392, Note_on_c, 9, 35, 74
7, 86392, Note_on_c, 9, 42, 103
7, 86395, Note_off_c, 9, 42, 64
7, 86408, Note_on_c, 9, 42, 28
7, 86415, Note_off_c, 9, 35, 64
7, 86419, Note_off_c, 9, 42, 64
7, 86511, Note_on_c, 9, 42, 87
7, 86516, Note_off_c, 9, 42, 64
7, 86532, Note_on_c, 9, 42, 28
7, 86536, Note_off_c, 9, 42, 64
7, 86631, Note_on_c, 9, 54, 70
7, 86631, Note_on_c, 9, 42, 103
7, 86631, Note_on_c, 9, 40, 74
7, 86636, Note_off_c, 9, 42, 64
7, 86647, Note_on_c, 9, 42, 28
7, 86651, Note_off_c, 9, 42, 64
7, 86682, Note_off_c, 9, 54, 64
7, 86683, Note_off_c, 9, 40, 64
7, 86751, Note_on_c, 9, 42, 77
7, 86756, Note_off_c, 9, 42, 64
7, 86770, Note_on_c, 9, 42, 28
7, 86778, Note_off_c, 9, 42, 64
7, 86873, Note_on_c, 9, 42, 103
7, 86873, Note_on_c, 9, 35, 57
7, 86876, Note_off_c, 9, 42, 64
7, 86890, Note_on_c, 9, 42, 28
7, 86895, Note_off_c, 9, 35, 64
7, 86897, Note_off_c, 9, 42, 64
7, 86992, Note_on_c, 9, 42, 82
7, 86996, Note_off_c, 9, 42, 64
7, 87008, Note_on_c, 9, 42, 28
7, 87016, Note_off_c, 9, 42, 64
7, 87114, Note_on_c, 9, 42, 103
7, 87114, Note_on_c, 9, 40, 69
7, 87116, Note_on_c, 9, 54, 71
7, 87119, Note_off_c, 9, 42, 64
7, 87128, Note_on_c, 9, 42, 28
7, 87134, Note_off_c, 9, 42, 64
7, 87156, Note_off_c, 9, 54, 64
7, 87162, Note_off_c, 9, 40, 64
7, 87228, Note_on_c, 9, 42, 101
7, 87231, Note_on_c, 9, 35, 62
7, 87234, Note_off_c, 9, 42, 64
7, 87249, Note_on_c, 9, 42, 28
7, 87259, Note_off_c, 9, 42, 64
7, 87274, Note_off_c, 9, 35, 64
7, 87353, Note_on_c, 9, 35, 66
7, 87353, Note_on_c, 9, 42, 103
7, 87358, Note_off_c, 9, 42, 64
7, 87372, Note_on_c, 9, 42, 28
7, 87375, Note_off_c, 9, 42, 64
7, 87405, Note_off_c, 9, 35, 64
7, 87470, Note_on_c, 9, 42, 93
7, 87472, Note_off_c, 9, 42, 64
7, 87490, Note_on_c, 9, 42, 28
7, 87496, Note_off_c, 9, 42, 64
7, 87595, Note_on_c, 9, 54, 69
7, 87595, Note_on_c, 9, 42, 103
7, 87595, Note_on_c, 9, 40, 70
7, 87601, Note_off_c, 9, 42, 64
7, 87608, Note_on_c, 9, 42, 28
7, 87615, Note_off_c, 9, 42, 64
7, 87640, Note_off_c, 9, 54, 64
7, 87648, Note_off_c, 9, 40, 64
7, 87709, Note_on_c, 9, 42, 99
7, 87714, Note_off_c, 9, 42, 64
7, 87730, Note_on_c, 9, 42, 28
7, 87734, Note_off_c, 9, 42, 64
7, 87834, Note_on_c, 9, 35, 65
7, 87840, Note_on_c, 9, 47, 74
7, 87860, Note_off_c, 9, 35, 64
7, 87872, Note_off_c, 9, 47, 64
7, 87945, Note_on_c, 9, 43, 46
7, 87945, Note_on_c, 9, 31, 38
7, 87956, Note_on_c, 9, 40, 34
7, 87960, Note_off_c, 9, 43, 64
7, 87966, Note_on_c, 9, 38, 40
7, 87967, Note_off_c, 9, 31, 64
7, 87975, Note_off_c, 9, 40, 64
7, 87984, Note_off_c, 9, 38, 64
7, 87984, Note_on_c, 9, 31, 43
7, 88019, Note_off_c, 9, 31, 64
7, 88019, Note_on_c, 9, 40, 34
7, 88027, Note_on_c, 9, 38, 36
7, 88041, Note_off_c, 9, 40, 64
7, 88043, Note_off_c, 9, 38, 64
7, 88067, Note_on_c, 9, 40, 81
7, 88075, Note_on_c, 9, 54, 73
7, 88075, Note_on_c, 9, 34, 76
7, 88085, Note_off_c, 9, 34, 64
7, 88101, Note_off_c, 9, 40, 64
7, 88118, Note_off_c, 9, 54, 64
7, 88191, Note_on_c, 9, 35, 63
7, 88230, Note_off_c, 9, 35, 64
7, 88307, Note_on_c, 9, 57, 52
7, 88316, Note_off_c, 9, 57, 64
7, 88316, Note_on_c, 9, 42, 103
7, 88318, Note_on_c, 9, 35, 62
7, 88322, Note_off_c, 9, 42, 64
7, 88327, Note_on_c, 9, 42, 28
7, 88334, Note_off_c, 9, 42, 64
7, 88334, Note_off_c, 9, 35, 64
7, 88430, Note_on_c, 9, 42, 83
7, 88435, Note_off_c, 9, 42, 64
7, 88451, Note_on_c, 9, 42, 28
7, 88455, Note_off_c, 9, 42, 64
7, 88553, Note_on_c, 9, 54, 65
7, 88553, Note_on_c, 9, 42, 103
7, 88553, Note_on_c, 9, 40, 70
7, 88560, Note_off_c, 9, 42, 64
7, 88568, Note_on_c, 9, 42, 28
7, 88575, Note_off_c, 9, 42, 64
7, 88575, Note_off_c, 9, 40, 64
7, 88592, Note_off_c, 9, 54, 64
7, 88671, Note_on_c, 9, 42, 70
7, 88679, Note_off_c, 9, 42, 64
7, 88688, Note_on_c, 9, 42, 28
7, 88696, Note_off_c, 9, 42, 64
7, 88792, Note_on_c, 9, 42, 103
7, 88792, Note_on_c, 9, 35, 57
7, 88798, Note_off_c, 9, 42, 64
7, 88808, Note_on_c, 9, 42, 28
7, 88815, Note_off_c, 9, 42, 64
7, 88815, Note_off_c, 9, 35, 64
7, 88912, Note_on_c, 9, 42, 74
7, 88917, Note_off_c, 9, 42, 64
7, 88930, Note_on_c, 9, 42, 28
7, 88934, Note_off_c, 9, 42, 64
7, 89033, Note_on_c, 9, 54, 73
7, 89040, Note_on_c, 9, 34, 76
7, 89045, Note_off_c, 9, 34, 64
7, 89072, Note_off_c, 9, 54, 64
7, 89152, Note_on_c, 9, 35, 63
7, 89190, Note_off_c, 9, 35, 64
7, 89270, Note_on_c, 9, 57, 52
7, 89274, Note_off_c, 9, 57, 64
7, 89276, Note_on_c, 9, 35, 62
7, 89276, Note_on_c, 9, 42, 103
7, 89280, Note_off_c, 9, 42, 64
7, 89284, Note_on_c, 9, 42, 28
7, 89292, Note_off_c, 9, 42, 64
7, 89292, Note_off_c, 9, 35, 64
7, 89392, Note_on_c, 9, 42, 83
7, 89396, Note_off_c, 9, 42, 64
7, 89411, Note_on_c, 9, 42, 28
7, 89416, Note_off_c, 9, 42, 64
7, 89512, Note_on_c, 9, 42, 103
7, 89514, Note_on_c, 9, 54, 65
7, 89514, Note_on_c, 9, 40, 70
7, 89518, Note_off_c, 9, 42, 64
7, 89527, Note_on_c, 9, 42, 28
7, 89535, Note_off_c, 9, 40, 64
7, 89540, Note_off_c, 9, 42, 64
7, 89554, Note_off_c, 9, 54, 64
7, 89632, Note_on_c, 9, 42, 70
7, 89638, Note_off_c, 9, 42, 64
7, 89650, Note_on_c, 9, 42, 28
7, 89658, Note_off_c, 9, 42, 64
7, 89752, Note_on_c, 9, 42, 103
7, 89752, Note_on_c, 9, 35, 57
7, 89757, Note_off_c, 9, 42, 64
7, 89765, Note_on_c, 9, 42, 28
7, 89779, Note_off_c, 9, 42, 64
7, 89779, Note_off_c, 9, 35, 64
7, 89870, Note_on_c, 9, 42, 74
7, 89875, Note_off_c, 9, 42, 64
7, 89889, Note_on_c, 9, 42, 28
7, 89894, Note_off_c, 9, 42, 64
7, 89994, Note_on_c, 9, 54, 73
7, 89998, Note_on_c, 9, 34, 76
7, 90005, Note_off_c, 9, 34, 64
7, 90035, Note_off_c, 9, 54, 64
7, 90113, Note_on_c, 9, 35, 63
7, 90152, Note_off_c, 9, 35, 64
7, 90226, Note_on_c, 9, 57, 52
7, 90234, Note_off_c, 9, 57, 64
7, 90236, Note_on_c, 9, 35, 62
7, 90236, Note_on_c, 9, 42, 103
7, 90241, Note_off_c, 9, 42, 64
7, 90245, Note_on_c, 9, 42, 28
7, 90259, Note_off_c, 9, 42, 64
7, 90259, Note_off_c, 9, 35, 64
7, 90352, Note_on_c, 9, 42, 83
7, 90359, Note_off_c, 9, 42, 64
7, 90367, Note_on_c, 9, 42, 28
7, 90378, Note_off_c, 9, 42, 64
7, 90470, Note_on_c, 9, 42, 103
7, 90472, Note_on_c, 9, 54, 65
7, 90472, Note_on_c, 9, 40, 70
7, 90477, Note_off_c, 9, 42, 64
7, 90487, Note_on_c, 9, 42, 28
7, 90495, Note_off_c, 9, 40, 64
7, 90496, Note_off_c, 9, 42, 64
7, 90514, Note_off_c, 9, 54, 64
7, 90590, Note_on_c, 9, 42, 70
7, 90596, Note_off_c, 9, 42, 64
7, 90610, Note_on_c, 9, 42, 28
7, 90616, Note_off_c, 9, 42, 64
7, 90714, Note_on_c, 9, 42, 103
7, 90716, Note_on_c, 9, 35, 57
7, 90720, Note_off_c, 9, 42, 64
7, 90727, Note_on_c, 9, 42, 28
7, 90739, Note_off_c, 9, 35, 64
7, 90740, Note_off_c, 9, 42, 64
7, 90830, Note_on_c, 9, 42, 74
7, 90836, Note_off_c, 9, 42, 64
7, 90848, Note_on_c, 9, 42, 28
7, 90855, Note_off_c, 9, 42, 64
7, 90952, Note_on_c, 9, 42, 103
7, 90953, Note_on_c, 9, 54, 73
7, 90953, Note_on_c, 9, 40, 70
7, 90959, Note_off_c, 9, 42, 64
7, 90968, Note_on_c, 9, 42, 28
7, 90973, Note_off_c, 9, 42, 64
7, 90973, Note_off_c, 9, 40, 64
7, 90992, Note_off_c, 9, 54, 64
7, 91074, Note_on_c, 9, 42, 88
7, 91074, Note_on_c, 9, 35, 58
7, 91080, Note_off_c, 9, 42, 64
7, 91092, Note_on_c, 9, 42, 28
7, 91094, Note_off_c, 9, 42, 64
7, 91108, Note_off_c, 9, 35, 64
7, 91192, Note_on_c, 9, 42, 103
7, 91193, Note_on_c, 9, 35, 66
7, 91197, Note_off_c, 9, 42, 64
7, 91207, Note_on_c, 9, 42, 28
7, 91215, Note_off_c, 9, 35, 64
7, 91218, Note_off_c, 9, 42, 64
7, 91312, Note_on_c, 9, 42, 72
7, 91316, Note_off_c, 9, 42, 64
7, 91332, Note_on_c, 9, 42, 28
7, 91334, Note_off_c, 9, 42, 64
7, 91432, Note_on_c, 9, 54, 70
7, 91432, Note_on_c, 9, 42, 103
7, 91432, Note_on_c, 9, 40, 69
7, 91438, Note_off_c, 9, 42, 64
7, 91444, Note_on_c, 9, 42, 28
7, 91450, Note_off_c, 9, 40, 64
7, 91454, Note_off_c, 9, 42, 64
7, 91470, Note_off_c, 9, 54, 64
7, 91552, Note_on_c, 9, 42, 66
7, 91557, Note_off_c, 9, 42, 64
7, 91566, Note_on_c, 9, 42, 28
7, 91571, Note_off_c, 9, 42, 64
7, 91674, Note_on_c, 9, 42, 103
7, 91674, Note_on_c, 9, 35, 55
7, 91678, Note_off_c, 9, 42, 64
7, 91688, Note_on_c, 9, 42, 28
7, 91694, Note_off_c, 9, 42, 64
7, 91694, Note_off_c, 9, 35, 64
7, 91792, Note_on_c, 9, 42, 70
7, 91796, Note_off_c, 9, 42, 64
7, 91809, Note_on_c, 9, 42, 28
7, 91815, Note_off_c, 9, 42, 64
7, 91913, Note_on_c, 9, 54, 69
7, 91913, Note_on_c, 9, 42, 103
7, 91913, Note_on_c, 9, 40, 70
7, 91920, Note_off_c, 9, 42, 64
7, 91928, Note_on_c, 9, 42, 28
7, 91937, Note_off_c, 9, 42, 64
7, 91952, Note_off_c, 9, 54, 64
7, 91961, Note_off_c, 9, 40, 64
7, 92030, Note_on_c, 9, 42, 103
7, 92031, Note_on_c, 9, 35, 63
7, 92037, Note_off_c, 9, 42, 64
7, 92050, Note_on_c, 9, 42, 28
7, 92055, Note_off_c, 9, 42, 64
7, 92070, Note_off_c, 9, 35, 64
7, 92152, Note_on_c, 9, 35, 74
7, 92152, Note_on_c, 9, 42, 103
7, 92160, Note_off_c, 9, 42, 64
7, 92169, Note_on_c, 9, 42, 28
7, 92174, Note_off_c, 9, 42, 64
7, 92174, Note_off_c, 9, 35, 64
7, 92272, Note_on_c, 9, 42, 87
7, 92278, Note_off_c, 9, 42, 64
7, 92291, Note_on_c, 9, 42, 28
7, 92295, Note_off_c, 9, 42, 64
7, 92393, Note_on_c, 9, 42, 103
7, 92393, Note_on_c, 9, 40, 74
7, 92396, Note_on_c, 9, 54, 70
7, 92400, Note_off_c, 9, 42, 64
7, 92408, Note_on_c, 9, 42, 28
7, 92415, Note_off_c, 9, 42, 64
7, 92442, Note_off_c, 9, 54, 64
7, 92446, Note_off_c, 9, 40, 64
7, 92514, Note_on_c, 9, 42, 77
7, 92518, Note_off_c, 9, 42, 64
7, 92530, Note_on_c, 9, 42, 28
7, 92535, Note_off_c, 9, 42, 64
7, 92632, Note_on_c, 9, 42, 103
7, 92632, Note_on_c, 9, 35, 57
7, 92635, Note_off_c, 9, 42, 64
7, 92644, Note_on_c, 9, 42, 28
7, 92655, Note_off_c, 9, 42, 64
7, 92655, Note_off_c, 9, 35, 64
7, 92750, Note_on_c, 9, 42, 82
7, 92755, Note_off_c, 9, 42, 64
7, 92768, Note_on_c, 9, 42, 28
7, 92771, Note_off_c, 9, 42, 64
7, 92873, Note_on_c, 9, 42, 103
7, 92873, Note_on_c, 9, 40, 69
7, 92875, Note_on_c, 9, 54, 71
7, 92880, Note_off_c, 9, 42, 64
7, 92890, Note_on_c, 9, 42, 28
7, 92895, Note_off_c, 9, 42, 64
7, 92914, Note_off_c, 9, 54, 64
7, 92919, Note_off_c, 9, 40, 64
7, 92993, Note_on_c, 9, 42, 101
7, 92993, Note_on_c, 9, 35, 62
7, 92998, Note_off_c, 9, 42, 64
7, 93003, Note_on_c, 9, 42, 28
7, 93016, Note_off_c, 9, 42, 64
7, 93033, Note_off_c, 9, 35, 64
7, 93111, Note_on_c, 9, 42, 103
7, 93113, Note_on_c, 9, 35, 66
7, 93119, Note_off_c, 9, 42, 64
7, 93129, Note_on_c, 9, 42, 28
7, 93135, Note_off_c, 9, 42, 64
7, 93166, Note_off_c, 9, 35, 64
7, 93232, Note_on_c, 9, 42, 93
7, 93236, Note_off_c, 9, 42, 64
7, 93248, Note_on_c, 9, 42, 28
7, 93258, Note_off_c, 9, 42, 64
7, 93351, Note_on_c, 9, 42, 103
7, 93353, Note_on_c, 9, 54, 69
7, 93353, Note_on_c, 9, 40, 70
7, 93360, Note_off_c, 9, 42, 64
7, 93368, Note_on_c, 9, 42, 28
7, 93375, Note_off_c, 9, 42, 64
7, 93398, Note_off_c, 9, 54, 64
7, 93408, Note_off_c, 9, 40, 64
7, 93471, Note_on_c, 9, 42, 99
7, 93473, Note_off_c, 9, 42, 64
7, 93489, Note_on_c, 9, 42, 28
7, 93494, Note_off_c, 9, 42, 64
7, 93591, Note_on_c, 9, 42, 103
7, 93593, Note_on_c, 9, 35, 58
7, 93598, Note_off_c, 9, 42, 64
7, 93608, Note_on_c, 9, 42, 28
7, 93615, Note_off_c, 9, 35, 64
7, 93618, Note_off_c, 9, 42, 64
7, 93709, Note_on_c, 9, 42, 87
7, 93720, Note_off_c, 9, 42, 64
7, 93727, Note_on_c, 9, 42, 28
7, 93732, Note_off_c, 9, 42, 64
7, 93834, Note_on_c, 9, 54, 72
7, 93834, Note_on_c, 9, 42, 103
7, 93834, Note_on_c, 9, 40, 70
7, 93840, Note_off_c, 9, 42, 64
7, 93847, Note_on_c, 9, 42, 28
7, 93852, Note_off_c, 9, 42, 64
7, 93874, Note_off_c, 9, 54, 64
7, 93885, Note_off_c, 9, 40, 64
7, 93955, Note_on_c, 9, 42, 103
7, 93955, Note_on_c, 9, 35, 63
7, 93959, Note_off_c, 9, 42, 64
7, 93967, Note_on_c, 9, 42, 28
7, 93970, Note_off_c, 9, 42, 64
7, 93988, Note_off_c, 9, 35, 64
7, 94071, Note_on_c, 9, 35, 62
7, 94071, Note_on_c, 9, 42, 103
7, 94079, Note_off_c, 9, 42, 64
7, 94087, Note_on_c, 9, 42, 28
7, 94099, Note_off_c, 9, 42, 64
7, 94099, Note_off_c, 9, 35, 64
7, 94193, Note_on_c, 9, 42, 83
7, 94195, Note_off_c, 9, 42, 64
7, 94212, Note_on_c, 9, 42, 28
7, 94214, Note_off_c, 9, 42, 64
7, 94313, Note_on_c, 9, 42, 103
7, 94315, Note_on_c, 9, 54, 65
7, 94315, Note_on_c, 9, 40, 70
7, 94320, Note_off_c, 9, 42, 64
7, 94328, Note_on_c, 9, 42, 28
7, 94340, Note_off_c, 9, 42, 64
7, 94340, Note_off_c, 9, 40, 64
7, 94352, Note_off_c, 9, 54, 64
7, 94431, Note_on_c, 9, 42, 70
7, 94436, Note_off_c, 9, 42, 64
7, 94452, Note_on_c, 9, 42, 28
7, 94456, Note_off_c, 9, 42, 64
7, 94554, Note_on_c, 9, 42, 103
7, 94554, Note_on_c, 9, 35, 57
7, 94561, Note_off_c, 9, 42, 64
7, 94570, Note_on_c, 9, 42, 28
7, 94576, Note_off_c, 9, 42, 64
7, 94576, Note_off_c, 9, 35, 64
7, 94674, Note_on_c, 9, 42, 74
7, 94678, Note_off_c, 9, 42, 64
7, 94688, Note_on_c, 9, 42, 28
7, 94691, Note_off_c, 9, 42, 64
7, 94795, Note_on_c, 9, 54, 73
7, 94795, Note_on_c, 9, 42, 103
7, 94795, Note_on_c, 9, 40, 70
7, 94801, Note_off_c, 9, 42, 64
7, 94809, Note_on_c, 9, 42, 28
7, 94815, Note_off_c, 9, 42, 64
7, 94815, Note_off_c, 9, 40, 64
7, 94831, Note_off_c, 9, 54, 64
7, 94913, Note_on_c, 9, 42, 88
7, 94913, Note_on_c, 9, 35, 58
7, 94918, Note_off_c, 9, 42, 64
7, 94926, Note_on_c, 9, 42, 28
7, 94940, Note_off_c, 9, 42, 64
7, 94949, Note_off_c, 9, 35, 64
7, 95033, Note_on_c, 9, 46, 83
7, 95040, Note_on_c, 9, 35, 66
7, 95042, Note_on_c, 9, 49, 52
7, 95063, Note_off_c, 9, 49, 64
7, 95086, Note_off_c, 9, 46, 64
7, 95090, Note_off_c, 9, 35, 64
7, 95159, Note_on_c, 9, 31, 57
7, 95202, Note_off_c, 9, 31, 64
7, 95272, Note_on_c, 9, 54, 65
7, 95277, Note_on_c, 9, 40, 70
7, 95280, Note_on_c, 9, 34, 52
7, 95304, Note_off_c, 9, 34, 64
7, 95313, Note_off_c, 9, 54, 64
7, 95325, Note_off_c, 9, 40, 64
7, 95393, Note_on_c, 9, 45, 58
7, 95441, Note_off_c, 9, 45, 64
7, 95512, Note_on_c, 9, 35, 65
7, 95518, Note_on_c, 9, 47, 74
7, 95538, Note_off_c, 9, 35, 64
7, 95554, Note_off_c, 9, 47, 64
7, 95622, Note_on_c, 9, 31, 38
7, 95625, Note_on_c, 9, 43, 46
7, 95632, Note_on_c, 9, 40, 34
7, 95639, Note_off_c, 9, 43, 64
7, 95646, Note_on_c, 9, 38, 40
7, 95650, Note_off_c, 9, 31, 64
7, 95653, Note_off_c, 9, 40, 64
7, 95665, Note_off_c, 9, 38, 64
7, 95665, Note_on_c, 9, 31, 43
7, 95694, Note_off_c, 9, 31, 64
7, 95697, Note_on_c, 9, 40, 34
7, 95706, Note_on_c, 9, 38, 36
7, 95719, Note_off_c, 9, 40, 64
7, 95724, Note_off_c, 9, 38, 64
7, 95747, Note_on_c, 9, 40, 81
7, 95753, Note_on_c, 9, 54, 73
7, 95755, Note_on_c, 9, 34, 76
7, 95767, Note_off_c, 9, 34, 64
7, 95788, Note_off_c, 9, 40, 64
7, 95792, Note_off_c, 9, 54, 64
7, 95870, Note_on_c, 9, 35, 63
7, 95908, Note_off_c, 9, 35, 64
7, 95987, Note_on_c, 9, 57, 52
7, 95994, Note_off_c, 9, 57, 64
7, 95995, Note_on_c, 9, 35, 62
7, 95995, Note_on_c, 9, 42, 103
7, 96000, Note_off_c, 9, 42, 64
7, 96000, Note_off_c, 9, 35, 64
7, 96000, Note_on_c, 9, 35, 62
7, 96007, Note_on_c, 9, 42, 28
7, 96019, Note_off_c, 9, 42, 64
7, 96019, Note_off_c, 9, 35, 64
7, 96113, Note_on_c, 9, 42, 83
7, 96115, Note_off_c, 9, 42, 64
7, 96132, Note_on_c, 9, 42, 28
7, 96134, Note_off_c, 9, 42, 64
7, 96233, Note_on_c, 9, 42, 103
7, 96235, Note_on_c, 9, 54, 65
7, 96235, Note_on_c, 9, 40, 70
7, 96240, Note_off_c, 9, 42, 64
7, 96248, Note_on_c, 9, 42, 28
7, 96260, Note_off_c, 9, 42, 64
7, 96260, Note_off_c, 9, 40, 64
7, 96272, Note_off_c, 9, 54, 64
7, 96351, Note_on_c, 9, 42, 70
7, 96356, Note_off_c, 9, 42, 64
7, 96372, Note_on_c, 9, 42, 28
7, 96376, Note_off_c, 9, 42, 64
7, 96474, Note_on_c, 9, 42, 103
7, 96474, Note_on_c, 9, 35, 57
7, 96481, Note_off_c, 9, 42, 64
7, 96490, Note_on_c, 9, 42, 28
7, 96496, Note_off_c, 9, 42, 64
7, 96496, Note_off_c, 9, 35, 64
7, 96594, Note_on_c, 9, 42, 74
7, 96598, Note_off_c, 9, 42, 64
7, 96608, Note_on_c, 9, 42, 28
7, 96611, Note_off_c, 9, 42, 64
7, 96715, Note_on_c, 9, 54, 73
7, 96715, Note_on_c, 9, 42, 103
7, 96715, Note_on_c, 9, 40, 70
7, 96721, Note_off_c, 9, 42, 64
7, 96729, Note_on_c, 9, 42, 28
7, 96735, Note_off_c, 9, 42, 64
7, 96735, Note_off_c, 9, 40, 64
7, 96751, Note_off_c, 9, 54, 64
7, 96833, Note_on_c, 9, 42, 88
7, 96833, Note_on_c, 9, 35, 58
7, 96838, Note_off_c, 9, 42, 64
7, 96846, Note_on_c, 9, 42, 28
7, 96860, Note_off_c, 9, 42, 64
7, 96869, Note_off_c, 9, 35, 64
7, 96953, Note_on_c, 9, 46, 83
7, 96960, Note_on_c, 9, 35, 66
7, 96962, Note_on_c, 9, 49, 52
7, 96983, Note_off_c, 9, 49, 64
7, 97006, Note_off_c, 9, 46, 64
7, 97010, Note_off_c, 9, 35, 64
7, 97079, Note_on_c, 9, 31, 57
7, 97122, Note_off_c, 9, 31, 64
7, 97192, Note_on_c, 9, 54, 65
7, 97197, Note_on_c, 9, 40, 70
7, 97200, Note_on_c, 9, 34, 52
7, 97224, Note_off_c, 9, 34, 64
7, 97233, Note_off_c, 9, 54, 64
7, 97245, Note_off_c, 9, 40, 64
7, 97313, Note_on_c, 9, 45, 58
7, 97361, Note_off_c, 9, 45, 64
7, 97432, Note_on_c, 9, 35, 65
7, 97438, Note_on_c, 9, 47, 74
7, 97458, Note_off_c, 9, 35, 64
7, 97474, Note_off_c, 9, 47, 64
7, 97542, Note_on_c, 9, 31, 38
7, 97545, Note_on_c, 9, 43, 46
7, 97552, Note_on_c, 9, 40, 34
7, 97559, Note_off_c, 9, 43, 64
7, 97566, Note_on_c, 9, 38, 40
7, 97570, Note_off_c, 9, 31, 64
7, 97573, Note_off_c, 9, 40, 64
7, 97585, Note_off_c, 9, 38, 64
7, 97585, Note_on_c, 9, 31, 43
7, 97614, Note_off_c, 9, 31, 64
7, 97617, Note_on_c, 9, 40, 34
7, 97626, Note_on_c, 9, 38, 36
7, 97639, Note_off_c, 9, 40, 64
7, 97644, Note_off_c, 9, 38, 64
7, 97667, Note_on_c, 9, 40, 81
7, 97673, Note_on_c, 9, 54, 73
7, 97675, Note_on_c, 9, 34, 76
7, 97687, Note_off_c, 9, 34, 64
7, 97708, Note_off_c, 9, 40, 64
7, 97712, Note_off_c, 9, 54, 64
7, 97790, Note_on_c, 9, 35, 63
7, 97828, Note_off_c, 9, 35, 64
7, 97907, Note_on_c, 9, 57, 52
7, 97914, Note_off_c, 9, 57, 64
7, 97915, Note_on_c, 9, 35, 62
7, 97915, Note_on_c, 9, 42, 103
7, 97920, Note_off_c, 9, 42, 64
7, 97920, Note_off_c, 9, 35, 64
7, 97920, Note_on_c, 9, 35, 62
7, 97927, Note_on_c, 9, 42, 28
7, 97939, Note_off_c, 9, 42, 64
7, 97939, Note_off_c, 9, 35, 64
7, 98033, Note_on_c, 9, 42, 83
7, 98035, Note_off_c, 9, 42, 64
7, 98052, Note_on_c, 9, 42, 28
7, 98054, Note_off_c, 9, 42, 64
7, 98153, Note_on_c, 9, 42, 103
7, 98155, Note_on_c, 9, 54, 65
7, 98155, Note_on_c, 9, 40, 70
7, 98160, Note_off_c, 9, 42, 64
7, 98168, Note_on_c, 9, 42, 28
7, 98180, Note_off_c, 9, 42, 64
7, 98180, Note_off_c, 9, 40, 64
7, 98192, Note_off_c, 9, 54, 64
7, 98271, Note_on_c, 9, 42, 70
7, 98276, Note_off_c, 9, 42, 64
7, 98292, Note_on_c, 9, 42, 28
7, 98296, Note_off_c, 9, 42, 64
7, 98394, Note_on_c, 9, 42, 103
7, 98394, Note_on_c, 9, 35, 57
7, 98401, Note_off_c, 9, 42, 64
7, 98410, Note_on_c, 9, 42, 28
7, 98416, Note_off_c, 9, 42, 64
7, 98416, Note_off_c, 9, 35, 64
7, 98514, Note_on_c, 9, 42, 74
7, 98518, Note_off_c, 9, 42, 64
7, 98528, Note_on_c, 9, 42, 28
7, 98531, Note_off_c, 9, 42, 64
7, 98635, Note_on_c, 9, 54, 73
7, 98635, Note_on_c, 9, 42, 103
7, 98635, Note_on_c, 9, 40, 70
7, 98641, Note_off_c, 9, 42, 64
7, 98649, Note_on_c, 9, 42, 28
7, 98655, Note_off_c, 9, 42, 64
7, 98655, Note_off_c, 9, 40, 64
7, 98671, Note_off_c, 9, 54, 64
7, 98753, Note_on_c, 9, 42, 88
7, 98753, Note_on_c, 9, 35, 58
7, 98758, Note_off_c, 9, 42, 64
7, 98766, Note_on_c, 9, 42, 28
7, 98780, Note_off_c, 9, 42, 64
7, 98789, Note_off_c, 9, 35, 64
7, 98873, Note_on_c, 9, 46, 83
7, 98880, Note_on_c, 9, 35, 66
7, 98882, Note_on_c, 9, 49, 52
7, 98903, Note_off_c, 9, 49, 64
7, 98926, Note_off_c, 9, 46, 64
7, 98930, Note_off_c, 9, 35, 64
7, 98999, Note_on_c, 9, 31, 57
7, 99042, Note_off_c, 9, 31, 64
7, 99112, Note_on_c, 9, 54, 65
7, 99117, Note_on_c, 9, 40, 70
7, 99120, Note_on_c, 9, 34, 52
7, 99144, Note_off_c, 9, 34, 64
7, 99153, Note_off_c, 9, 54, 64
7, 99165, Note_off_c, 9, 40, 64
7, 99233, Note_on_c, 9, 45, 58
7, 99281, Note_off_c, 9, 45, 64
7, 99352, Note_on_c, 9, 35, 65
7, 99358, Note_on_c, 9, 47, 74
7, 99378, Note_off_c, 9, 35, 64
7, 99394, Note_off_c, 9, 47, 64
7, 99462, Note_on_c, 9, 31, 38
7, 99465, Note_on_c, 9, 43, 46
7, 99472, Note_on_c, 9, 40, 34
7, 99479, Note_off_c, 9, 43, 64
7, 99486, Note_on_c, 9, 38, 40
7, 99490, Note_off_c, 9, 31, 64
7, 99493, Note_off_c, 9, 40, 64
7, 99505, Note_off_c, 9, 38, 64
7, 99505, Note_on_c, 9, 31, 43
7, 99534, Note_off_c, 9, 31, 64
7, 99537, Note_on_c, 9, 40, 34
7, 99546, Note_on_c, 9, 38, 36
7, 99559, Note_off_c, 9, 40, 64
7, 99564, Note_off_c, 9, 38, 64
7, 99587, Note_on_c, 9, 40, 81
7, 99593, Note_on_c, 9, 54, 73
7, 99595, Note_on_c, 9, 34, 76
7, 99607, Note_off_c, 9, 34, 64
7, 99628, Note_off_c, 9, 40, 64
7, 99632, Note_off_c, 9, 54, 64
7, 99710, Note_on_c, 9, 35, 63
7, 99748, Note_off_c, 9, 35, 64
7, 99827, Note_on_c, 9, 57, 52
7, 99834, Note_off_c, 9, 57, 64
7, 99835, Note_on_c, 9, 35, 62
7, 99835, Note_on_c, 9, 42, 103
7, 99840, Note_off_c, 9, 42, 64
7, 99840, Note_off_c, 9, 35, 64
7, 99840, Note_on_c, 9, 35, 62
7, 99847, Note_on_c, 9, 42, 28
7, 99859, Note_off_c, 9, 42, 64
7, 99859, Note_off_c, 9, 35, 64
7, 99953, Note_on_c, 9, 42, 83
7, 99955, Note_off_c, 9, 42, 64
7, 99972, Note_on_c, 9, 42, 28
7, 99974, Note_off_c, 9, 42, 64
7, 100073, Note_on_c, 9, 42, 103
7, 100075, Note_on_c, 9, 54, 65
7, 100075, Note_on_c, 9, 40, 70
7, 100080, Note_off_c, 9, 42, 64
7, 100088, Note_on_c, 9, 42, 28
7, 100100, Note_off_c, 9, 42, 64
7, 100100, Note_off_c, 9, 40, 64
7, 100112, Note_off_c, 9, 54, 64
7, 100191, Note_on_c, 9, 42, 70
7, 100196, Note_off_c, 9, 42, 64
7, 100212, Note_on_c, 9, 42, 28
7, 100216, Note_off_c, 9, 42, 64
7, 100314, Note_on_c, 9, 42, 103
7, 100314, Note_on_c, 9, 35, 57
7, 100321, Note_off_c, 9, 42, 64
7, 100330, Note_on_c, 9, 42, 28
7, 100336, Note_off_c, 9, 42, 64
7, 100336, Note_off_c, 9, 35, 64
7, 100434, Note_on_c, 9, 42, 74
7, 100438, Note_off_c, 9, 42, 64
7, 100448, Note_on_c, 9, 42, 28
7, 100451, Note_off_c, 9, 42, 64
7, 100555, Note_on_c, 9, 54, 73
7, 100555, Note_on_c, 9, 42, 103
7, 100555, Note_on_c, 9, 40, 70
7, 100561, Note_off_c, 9, 42, 64
7, 100569, Note_on_c, 9, 42, 28
7, 100575, Note_off_c, 9, 42, 64
7, 100575, Note_off_c, 9, 40, 64
7, 100591, Note_off_c, 9, 54, 64
7, 100673, Note_on_c, 9, 42, 88
7, 100673, Note_on_c, 9, 35, 58
7, 100678, Note_off_c, 9, 42, 64
7, 100686, Note_on_c, 9, 42, 28
7, 100700, Note_off_c, 9, 42, 64
7, 100709, Note_off_c, 9, 35, 64
7, 100793, Note_on_c, 9, 46, 83
7, 100800, Note_on_c, 9, 35, 66
7, 100802, Note_on_c, 9, 49, 52
7, 100823, Note_off_c, 9, 49, 64
7, 100846, Note_off_c, 9, 46, 64
7, 100850, Note_off_c, 9, 35, 64
7, 100919, Note_on_c, 9, 31, 57
7, 100962, Note_off_c, 9, 31, 64
7, 101032, Note_on_c, 9, 54, 65
7, 101037, Note_on_c, 9, 40, 70
7, 101040, Note_on_c, 9, 34, 52
7, 101064, Note_off_c, 9, 34, 64
7, 101073, Note_off_c, 9, 54, 64
7, 101085, Note_off_c, 9, 40, 64
7, 101153, Note_on_c, 9, 45, 58
7, 101201, Note_off_c, 9, 45, 64
7, 101272, Note_on_c, 9, 35, 65
7, 101278, Note_on_c, 9, 47, 74
7, 101298, Note_off_c, 9, 35, 64
7, 101314, Note_off_c, 9, 47, 64
7, 101382, Note_on_c, 9, 31, 38
7, 101385, Note_on_c, 9, 43, 46
7, 101392, Note_on_c, 9, 40, 34
7, 101399, Note_off_c, 9, 43, 64
7, 101406, Note_on_c, 9, 38, 40
7, 101410, Note_off_c, 9, 31, 64
7, 101413, Note_off_c, 9, 40, 64
7, 101425, Note_off_c, 9, 38, 64
7, 101425, Note_on_c, 9, 31, 43
7, 101454, Note_off_c, 9, 31, 64
7, 101457, Note_on_c, 9, 40, 34
7, 101466, Note_on_c, 9, 38, 36
7, 101479, Note_off_c, 9, 40, 64
7, 101484, Note_off_c, 9, 38, 64
7, 101507, Note_on_c, 9, 40, 81
7, 101513, Note_on_c, 9, 54, 73
7, 101515, Note_on_c, 9, 34, 76
7, 101527, Note_off_c, 9, 34, 64
7, 101548, Note_off_c, 9, 40, 64
7, 101552, Note_off_c, 9, 54, 64
7, 101630, Note_on_c, 9, 35, 63
7, 101668, Note_off_c, 9, 35, 64
7, 101747, Note_on_c, 9, 57, 52
7, 101754, Note_off_c, 9, 57, 64
7, 101755, Note_on_c, 9, 35, 62
7, 101755, Note_on_c, 9, 42, 103
7, 101760, Note_off_c, 9, 42, 64
7, 101760, Note_off_c, 9, 35, 64
7, 101760, End_track
8, 0, Start_track
8, 0, Title_t, "voz"
8, 0, Program_c, 6, 63
8, 0, Control_c, 6, 7, 118
8, 7320, Note_on_c, 6, 71, 80
8, 7440, Note_off_c, 6, 71, 64
8, 7440, Note_on_c, 6, 71, 80
8, 7560, Note_off_c, 6, 71, 64
8, 7560, Note_on_c, 6, 71, 80
8, 7680, Note_off_c, 6, 71, 64
8, 7680, Note_on_c, 6, 71, 80
8, 7920, Note_off_c, 6, 71, 64
8, 7920, Note_on_c, 6, 71, 80
8, 8160, Note_off_c, 6, 71, 64
8, 8160, Note_on_c, 6, 71, 80
8, 8400, Note_off_c, 6, 71, 64
8, 8400, Note_on_c, 6, 69, 80
8, 8520, Note_off_c, 6, 69, 64
8, 8520, Note_on_c, 6, 71, 80
8, 8640, Note_off_c, 6, 71, 64
8, 8640, Note_on_c, 6, 71, 80
8, 8880, Note_off_c, 6, 71, 64
8, 9600, Note_on_c, 6, 74, 80
8, 9840, Note_off_c, 6, 74, 64
8, 9840, Note_on_c, 6, 74, 80
8, 9960, Note_off_c, 6, 74, 64
8, 9960, Note_on_c, 6, 74, 80
8, 9960, Note_on_c, 6, 74, 80
8, 9960, Note_on_c, 6, 74, 80
8, 10080, Note_off_c, 6, 74, 64
8, 10080, Note_off_c, 6, 74, 64
8, 10080, Note_off_c, 6, 74, 64
8, 10080, Note_on_c, 6, 74, 80
8, 10320, Note_off_c, 6, 74, 64
8, 10320, Note_on_c, 6, 73, 80
8, 10440, Note_off_c, 6, 73, 64
8, 10440, Note_on_c, 6, 71, 80
8, 10560, Note_off_c, 6, 71, 64
8, 10560, Note_on_c, 6, 71, 80
8, 10800, Note_off_c, 6, 71, 64
8, 11340, Note_on_c, 6, 71, 80
8, 11400, Note_off_c, 6, 71, 64
8, 11400, Note_on_c, 6, 71, 80
8, 11460, Note_off_c, 6, 71, 64
8, 11520, Note_on_c, 6, 74, 80
8, 11760, Note_off_c, 6, 74, 64
8, 11760, Note_on_c, 6, 71, 80
8, 11880, Note_off_c, 6, 71, 64
8, 11880, Note_on_c, 6, 71, 80
8, 12000, Note_off_c, 6, 71, 64
8, 12000, Note_on_c, 6, 74, 80
8, 12240, Note_off_c, 6, 74, 64
8, 12480, Note_on_c, 6, 74, 80
8, 12720, Note_off_c, 6, 74, 64
8, 12720, Note_on_c, 6, 71, 80
8, 12840, Note_off_c, 6, 71, 64
8, 12840, Note_on_c, 6, 74, 80
8, 12960, Note_off_c, 6, 74, 64
8, 12960, Note_on_c, 6, 74, 80
8, 13200, Note_off_c, 6, 74, 64
8, 13440, Note_on_c, 6, 79, 80
8, 13560, Note_off_c, 6, 79, 64
8, 13560, Note_on_c, 6, 79, 80
8, 13560, Note_on_c, 6, 79, 80
8, 13680, Note_off_c, 6, 79, 64
8, 13680, Note_off_c, 6, 79, 64
8, 13800, Note_on_c, 6, 76, 80
8, 13920, Note_off_c, 6, 76, 64
8, 14160, Note_on_c, 6, 79, 80
8, 14280, Note_off_c, 6, 79, 64
8, 14280, Note_on_c, 6, 76, 80
8, 14400, Note_off_c, 6, 76, 64
8, 14400, Note_on_c, 6, 79, 80
8, 14520, Note_off_c, 6, 79, 64
8, 14520, Note_on_c, 6, 79, 80
8, 14640, Note_off_c, 6, 79, 64
8, 14760, Note_on_c, 6, 76, 80
8, 14880, Note_off_c, 6, 76, 64
8, 15360, Note_on_c, 6, 79, 80
8, 15480, Note_off_c, 6, 79, 64
8, 15480, Note_on_c, 6, 79, 80
8, 15480, Note_on_c, 6, 79, 80
8, 15600, Note_off_c, 6, 79, 64
8, 15600, Note_off_c, 6, 79, 64
8, 15720, Note_on_c, 6, 76, 80
8, 15840, Note_off_c, 6, 76, 64
8, 16080, Note_on_c, 6, 79, 80
8, 16200, Note_off_c, 6, 79, 64
8, 16200, Note_on_c, 6, 76, 80
8, 16320, Note_off_c, 6, 76, 64
8, 16320, Note_on_c, 6, 79, 80
8, 16440, Note_off_c, 6, 79, 64
8, 16440, Note_on_c, 6, 79, 80
8, 16560, Note_off_c, 6, 79, 64
8, 16680, Note_on_c, 6, 76, 80
8, 16800, Note_off_c, 6, 76, 64
8, 17280, Note_on_c, 6, 74, 80
8, 17400, Note_off_c, 6, 74, 64
8, 17400, Note_on_c, 6, 74, 80
8, 17520, Note_off_c, 6, 74, 64
8, 17640, Note_on_c, 6, 76, 80
8, 17760, Note_off_c, 6, 76, 64
8, 18000, Note_on_c, 6, 71, 80
8, 18120, Note_off_c, 6, 71, 64
8, 18120, Note_on_c, 6, 70, 80
8, 18240, Note_off_c, 6, 70, 64
8, 18240, Note_on_c, 6, 71, 80
8, 18360, Note_off_c, 6, 71, 64
8, 18480, Note_on_c, 6, 64, 80
8, 18600, Note_off_c, 6, 64, 64
8, 18720, Note_on_c, 6, 64, 80
8, 18960, Note_off_c, 6, 64, 64
8, 22680, Note_on_c, 6, 71, 80
8, 22800, Note_off_c, 6, 71, 64
8, 22800, Note_on_c, 6, 71, 80
8, 22920, Note_off_c, 6, 71, 64
8, 22920, Note_on_c, 6, 71, 80
8, 23040, Note_off_c, 6, 71, 64
8, 23040, Note_on_c, 6, 71, 80
8, 23280, Note_off_c, 6, 71, 64
8, 23280, Note_on_c, 6, 71, 80
8, 23520, Note_off_c, 6, 71, 64
8, 23520, Note_on_c, 6, 71, 80
8, 23760, Note_off_c, 6, 71, 64
8, 23760, Note_on_c, 6, 69, 80
8, 23880, Note_off_c, 6, 69, 64
8, 23880, Note_on_c, 6, 71, 80
8, 24000, Note_off_c, 6, 71, 64
8, 24000, Note_on_c, 6, 71, 80
8, 24240, Note_off_c, 6, 71, 64
8, 24960, Note_on_c, 6, 74, 80
8, 25200, Note_off_c, 6, 74, 64
8, 25200, Note_on_c, 6, 74, 80
8, 25320, Note_off_c, 6, 74, 64
8, 25320, Note_on_c, 6, 74, 80
8, 25320, Note_on_c, 6, 74, 80
8, 25320, Note_on_c, 6, 74, 80
8, 25440, Note_off_c, 6, 74, 64
8, 25440, Note_off_c, 6, 74, 64
8, 25440, Note_off_c, 6, 74, 64
8, 25440, Note_on_c, 6, 74, 80
8, 25680, Note_off_c, 6, 74, 64
8, 25680, Note_on_c, 6, 73, 80
8, 25800, Note_off_c, 6, 73, 64
8, 25800, Note_on_c, 6, 71, 80
8, 25920, Note_off_c, 6, 71, 64
8, 25920, Note_on_c, 6, 71, 80
8, 26160, Note_off_c, 6, 71, 64
8, 26700, Note_on_c, 6, 71, 80
8, 26760, Note_off_c, 6, 71, 64
8, 26760, Note_on_c, 6, 71, 80
8, 26820, Note_off_c, 6, 71, 64
8, 26880, Note_on_c, 6, 74, 80
8, 27120, Note_off_c, 6, 74, 64
8, 27120, Note_on_c, 6, 71, 80
8, 27240, Note_off_c, 6, 71, 64
8, 27240, Note_on_c, 6, 71, 80
8, 27360, Note_off_c, 6, 71, 64
8, 27360, Note_on_c, 6, 74, 80
8, 27600, Note_off_c, 6, 74, 64
8, 27840, Note_on_c, 6, 74, 80
8, 28080, Note_off_c, 6, 74, 64
8, 28080, Note_on_c, 6, 71, 80
8, 28200, Note_off_c, 6, 71, 64
8, 28200, Note_on_c, 6, 74, 80
8, 28320, Note_off_c, 6, 74, 64
8, 28320, Note_on_c, 6, 74, 80
8, 28560, Note_off_c, 6, 74, 64
8, 28800, Note_on_c, 6, 79, 80
8, 28920, Note_off_c, 6, 79, 64
8, 28920, Note_on_c, 6, 79, 80
8, 28920, Note_on_c, 6, 79, 80
8, 29040, Note_off_c, 6, 79, 64
8, 29040, Note_off_c, 6, 79, 64
8, 29160, Note_on_c, 6, 76, 80
8, 29280, Note_off_c, 6, 76, 64
8, 29520, Note_on_c, 6, 79, 80
8, 29640, Note_off_c, 6, 79, 64
8, 29640, Note_on_c, 6, 76, 80
8, 29760, Note_off_c, 6, 76, 64
8, 29760, Note_on_c, 6, 79, 80
8, 29880, Note_off_c, 6, 79, 64
8, 29880, Note_on_c, 6, 79, 80
8, 30000, Note_off_c, 6, 79, 64
8, 30120, Note_on_c, 6, 76, 80
8, 30240, Note_off_c, 6, 76, 64
8, 30720, Note_on_c, 6, 79, 80
8, 30840, Note_off_c, 6, 79, 64
8, 30840, Note_on_c, 6, 79, 80
8, 30840, Note_on_c, 6, 79, 80
8, 30960, Note_off_c, 6, 79, 64
8, 30960, Note_off_c, 6, 79, 64
8, 31080, Note_on_c, 6, 76, 80
8, 31200, Note_off_c, 6, 76, 64
8, 31440, Note_on_c, 6, 79, 80
8, 31560, Note_off_c, 6, 79, 64
8, 31560, Note_on_c, 6, 76, 80
8, 31680, Note_off_c, 6, 76, 64
8, 31680, Note_on_c, 6, 79, 80
8, 31800, Note_off_c, 6, 79, 64
8, 31800, Note_on_c, 6, 79, 80
8, 31920, Note_off_c, 6, 79, 64
8, 32040, Note_on_c, 6, 76, 80
8, 32160, Note_off_c, 6, 76, 64
8, 32640, Note_on_c, 6, 74, 80
8, 32760, Note_off_c, 6, 74, 64
8, 32760, Note_on_c, 6, 74, 80
8, 32880, Note_off_c, 6, 74, 64
8, 33000, Note_on_c, 6, 76, 80
8, 33120, Note_off_c, 6, 76, 64
8, 33360, Note_on_c, 6, 71, 80
8, 33480, Note_off_c, 6, 71, 64
8, 33480, Note_on_c, 6, 70, 80
8, 33600, Note_off_c, 6, 70, 64
8, 33600, Note_on_c, 6, 71, 80
8, 33720, Note_off_c, 6, 71, 64
8, 33840, Note_on_c, 6, 64, 80
8, 33960, Note_off_c, 6, 64, 64
8, 34080, Note_on_c, 6, 64, 80
8, 34320, Note_off_c, 6, 64, 64
8, 46307, Note_on_c, 6, 76, 118
8, 46690, Note_off_c, 6, 76, 64
8, 46789, Note_on_c, 6, 76, 106
8, 47004, Note_off_c, 6, 76, 64
8, 47084, Note_on_c, 6, 76, 106
8, 47385, Note_off_c, 6, 76, 64
8, 47471, Note_on_c, 6, 76, 106
8, 47823, Note_off_c, 6, 76, 64
8, 48245, Note_on_c, 6, 76, 127
8, 48610, Note_off_c, 6, 76, 64
8, 48696, Note_on_c, 6, 76, 110
8, 48931, Note_off_c, 6, 76, 64
8, 49007, Note_on_c, 6, 76, 113
8, 49318, Note_off_c, 6, 76, 64
8, 49395, Note_on_c, 6, 76, 122
8, 49695, Note_off_c, 6, 76, 64
8, 50187, Note_on_c, 6, 76, 118
8, 50562, Note_off_c, 6, 76, 64
8, 50649, Note_on_c, 6, 76, 113
8, 50824, Note_off_c, 6, 76, 64
8, 50906, Note_on_c, 6, 76, 118
8, 51191, Note_off_c, 6, 76, 64
8, 51277, Note_on_c, 6, 76, 127
8, 51579, Note_off_c, 6, 76, 64
8, 52059, Note_on_c, 6, 76, 127
8, 52449, Note_off_c, 6, 76, 64
8, 52527, Note_on_c, 6, 76, 118
8, 52699, Note_off_c, 6, 76, 64
8, 52805, Note_on_c, 6, 76, 122
8, 53120, Note_off_c, 6, 76, 64
8, 53195, Note_on_c, 6, 76, 113
8, 53480, Note_off_c, 6, 76, 64
8, 53770, Note_on_c, 6, 79, 127
8, 53833, Note_off_c, 6, 79, 64
8, 53892, Note_on_c, 6, 79, 127
8, 54012, Note_off_c, 6, 79, 64
8, 55687, Note_on_c, 6, 79, 110
8, 55763, Note_off_c, 6, 79, 64
8, 55824, Note_on_c, 6, 79, 106
8, 55930, Note_off_c, 6, 79, 64
8, 57625, Note_on_c, 6, 79, 127
8, 57691, Note_off_c, 6, 79, 64
8, 57754, Note_on_c, 6, 79, 122
8, 57869, Note_off_c, 6, 79, 64
8, 59541, Note_on_c, 6, 79, 110
8, 59606, Note_off_c, 6, 79, 64
8, 59673, Note_on_c, 6, 79, 118
8, 59755, Note_off_c, 6, 79, 64
8, 64920, Note_on_c, 6, 71, 80
8, 65040, Note_off_c, 6, 71, 64
8, 65040, Note_on_c, 6, 71, 80
8, 65160, Note_off_c, 6, 71, 64
8, 65160, Note_on_c, 6, 71, 80
8, 65280, Note_off_c, 6, 71, 64
8, 65280, Note_on_c, 6, 71, 80
8, 65520, Note_off_c, 6, 71, 64
8, 65520, Note_on_c, 6, 71, 80
8, 65760, Note_off_c, 6, 71, 64
8, 65760, Note_on_c, 6, 71, 80
8, 66000, Note_off_c, 6, 71, 64
8, 66000, Note_on_c, 6, 69, 80
8, 66120, Note_off_c, 6, 69, 64
8, 66120, Note_on_c, 6, 71, 80
8, 66240, Note_off_c, 6, 71, 64
8, 66240, Note_on_c, 6, 71, 80
8, 66480, Note_off_c, 6, 71, 64
8, 67200, Note_on_c, 6, 74, 80
8, 67440, Note_off_c, 6, 74, 64
8, 67440, Note_on_c, 6, 74, 80
8, 67560, Note_off_c, 6, 74, 64
8, 67560, Note_on_c, 6, 74, 80
8, 67560, Note_on_c, 6, 74, 80
8, 67560, Note_on_c, 6, 74, 80
8, 67680, Note_off_c, 6, 74, 64
8, 67680, Note_off_c, 6, 74, 64
8, 67680, Note_off_c, 6, 74, 64
8, 67680, Note_on_c, 6, 74, 80
8, 67920, Note_off_c, 6, 74, 64
8, 67920, Note_on_c, 6, 73, 80
8, 68040, Note_off_c, 6, 73, 64
8, 68040, Note_on_c, 6, 71, 80
8, 68160, Note_off_c, 6, 71, 64
8, 68160, Note_on_c, 6, 71, 80
8, 68400, Note_off_c, 6, 71, 64
8, 68940, Note_on_c, 6, 71, 80
8, 69000, Note_off_c, 6, 71, 64
8, 69000, Note_on_c, 6, 71, 80
8, 69060, Note_off_c, 6, 71, 64
8, 69120, Note_on_c, 6, 74, 80
8, 69360, Note_off_c, 6, 74, 64
8, 69360, Note_on_c, 6, 71, 80
8, 69480, Note_off_c, 6, 71, 64
8, 69480, Note_on_c, 6, 71, 80
8, 69600, Note_off_c, 6, 71, 64
8, 69600, Note_on_c, 6, 74, 80
8, 69840, Note_off_c, 6, 74, 64
8, 70080, Note_on_c, 6, 74, 80
8, 70320, Note_off_c, 6, 74, 64
8, 70320, Note_on_c, 6, 71, 80
8, 70440, Note_off_c, 6, 71, 64
8, 70440, Note_on_c, 6, 74, 80
8, 70560, Note_off_c, 6, 74, 64
8, 70560, Note_on_c, 6, 74, 80
8, 70800, Note_off_c, 6, 74, 64
8, 71040, Note_on_c, 6, 79, 80
8, 71160, Note_off_c, 6, 79, 64
8, 71160, Note_on_c, 6, 79, 80
8, 71160, Note_on_c, 6, 79, 80
8, 71280, Note_off_c, 6, 79, 64
8, 71280, Note_off_c, 6, 79, 64
8, 71400, Note_on_c, 6, 76, 80
8, 71520, Note_off_c, 6, 76, 64
8, 71760, Note_on_c, 6, 79, 80
8, 71880, Note_off_c, 6, 79, 64
8, 71880, Note_on_c, 6, 76, 80
8, 72000, Note_off_c, 6, 76, 64
8, 72000, Note_on_c, 6, 79, 80
8, 72120, Note_off_c, 6, 79, 64
8, 72120, Note_on_c, 6, 79, 80
8, 72240, Note_off_c, 6, 79, 64
8, 72360, Note_on_c, 6, 76, 80
8, 72480, Note_off_c, 6, 76, 64
8, 72960, Note_on_c, 6, 79, 80
8, 73080, Note_off_c, 6, 79, 64
8, 73080, Note_on_c, 6, 79, 80
8, 73080, Note_on_c, 6, 79, 80
8, 73200, Note_off_c, 6, 79, 64
8, 73200, Note_off_c, 6, 79, 64
8, 73320, Note_on_c, 6, 76, 80
8, 73440, Note_off_c, 6, 76, 64
8, 73680, Note_on_c, 6, 79, 80
8, 73800, Note_off_c, 6, 79, 64
8, 73800, Note_on_c, 6, 76, 80
8, 73920, Note_off_c, 6, 76, 64
8, 73920, Note_on_c, 6, 79, 80
8, 74040, Note_off_c, 6, 79, 64
8, 74040, Note_on_c, 6, 79, 80
8, 74160, Note_off_c, 6, 79, 64
8, 74280, Note_on_c, 6, 76, 80
8, 74400, Note_off_c, 6, 76, 64
8, 74880, Note_on_c, 6, 74, 80
8, 75000, Note_off_c, 6, 74, 64
8, 75000, Note_on_c, 6, 74, 80
8, 75120, Note_off_c, 6, 74, 64
8, 75240, Note_on_c, 6, 76, 80
8, 75360, Note_off_c, 6, 76, 64
8, 75600, Note_on_c, 6, 71, 80
8, 75720, Note_off_c, 6, 71, 64
8, 75720, Note_on_c, 6, 70, 80
8, 75840, Note_off_c, 6, 70, 64
8, 75840, Note_on_c, 6, 71, 80
8, 75960, Note_off_c, 6, 71, 64
8, 76080, Note_on_c, 6, 64, 80
8, 76200, Note_off_c, 6, 64, 64
8, 76320, Note_on_c, 6, 64, 80
8, 76560, Note_off_c, 6, 64, 64
8, 84501, Note_on_c, 6, 76, 113
8, 84681, Note_off_c, 6, 76, 64
8, 84742, Note_on_c, 6, 76, 76
8, 84817, Note_off_c, 6, 76, 64
8, 84886, Note_on_c, 6, 76, 127
8, 85020, Note_off_c, 6, 76, 64
8, 85476, Note_on_c, 6, 76, 127
8, 85639, Note_off_c, 6, 76, 64
8, 85699, Note_on_c, 6, 74, 118
8, 85780, Note_off_c, 6, 74, 64
8, 85843, Note_on_c, 6, 76, 127
8, 85966, Note_off_c, 6, 76, 64
8, 86441, Note_on_c, 6, 76, 127
8, 86605, Note_off_c, 6, 76, 64
8, 86665, Note_on_c, 6, 74, 118
8, 86746, Note_off_c, 6, 74, 64
8, 86804, Note_on_c, 6, 76, 127
8, 86936, Note_off_c, 6, 76, 64
8, 87386, Note_on_c, 6, 76, 127
8, 87573, Note_off_c, 6, 76, 64
8, 87637, Note_on_c, 6, 76, 106
8, 87709, Note_off_c, 6, 76, 64
8, 87771, Note_on_c, 6, 76, 127
8, 87883, Note_off_c, 6, 76, 64
8, 88008, Note_on_c, 6, 76, 38
8, 88037, Note_off_c, 6, 76, 64
8, 88351, Note_on_c, 6, 74, 127
8, 88613, Note_off_c, 6, 74, 64
8, 88694, Note_on_c, 6, 74, 127
8, 88972, Note_off_c, 6, 74, 64
8, 89280, Note_on_c, 6, 76, 127
8, 89537, Note_off_c, 6, 76, 64
8, 89680, Note_on_c, 6, 74, 127
8, 89963, Note_off_c, 6, 74, 64
8, 90240, Note_on_c, 6, 79, 80
8, 90360, Note_off_c, 6, 79, 64
8, 90360, Note_on_c, 6, 79, 80
8, 90360, Note_on_c, 6, 79, 80
8, 90480, Note_off_c, 6, 79, 64
8, 90480, Note_off_c, 6, 79, 64
8, 90600, Note_on_c, 6, 76, 80
8, 90720, Note_off_c, 6, 76, 64
8, 90960, Note_on_c, 6, 79, 80
8, 91080, Note_off_c, 6, 79, 64
8, 91080, Note_on_c, 6, 76, 80
8, 91200, Note_off_c, 6, 76, 64
8, 91200, Note_on_c, 6, 79, 80
8, 91320, Note_off_c, 6, 79, 64
8, 91320, Note_on_c, 6, 79, 80
8, 91440, Note_off_c, 6, 79, 64
8, 91560, Note_on_c, 6, 76, 80
8, 91680, Note_off_c, 6, 76, 64
8, 92160, Note_on_c, 6, 79, 80
8, 92280, Note_off_c, 6, 79, 64
8, 92280, Note_on_c, 6, 79, 80
8, 92280, Note_on_c, 6, 79, 80
8, 92400, Note_off_c, 6, 79, 64
8, 92400, Note_off_c, 6, 79, 64
8, 92520, Note_on_c, 6, 76, 80
8, 92640, Note_off_c, 6, 76, 64
8, 92880, Note_on_c, 6, 79, 80
8, 93000, Note_off_c, 6, 79, 64
8, 93000, Note_on_c, 6, 76, 80
8, 93120, Note_off_c, 6, 76, 64
8, 93120, Note_on_c, 6, 79, 80
8, 93240, Note_off_c, 6, 79, 64
8, 93240, Note_on_c, 6, 79, 80
8, 93360, Note_off_c, 6, 79, 64
8, 93480, Note_on_c, 6, 76, 80
8, 93600, Note_off_c, 6, 76, 64
8, 94133, Note_on_c, 6, 76, 127
8, 94185, Note_off_c, 6, 76, 64
8, 94256, Note_on_c, 6, 76, 127
8, 94343, Note_off_c, 6, 76, 64
8, 94485, Note_on_c, 6, 76, 127
8, 94562, Note_off_c, 6, 76, 64
8, 95033, Note_on_c, 6, 76, 127
8, 95092, Note_off_c, 6, 76, 64
8, 95170, Note_on_c, 6, 76, 127
8, 95250, Note_off_c, 6, 76, 64
8, 95415, Note_on_c, 6, 76, 127
8, 95493, Note_off_c, 6, 76, 64
8, 95998, Note_on_c, 6, 76, 127
8, 96055, Note_off_c, 6, 76, 64
8, 96134, Note_on_c, 6, 76, 127
8, 96211, Note_off_c, 6, 76, 64
8, 96361, Note_on_c, 6, 76, 127
8, 96433, Note_off_c, 6, 76, 64
8, 96960, Note_on_c, 6, 76, 127
8, 97021, Note_off_c, 6, 76, 64
8, 97099, Note_on_c, 6, 76, 127
8, 97169, Note_off_c, 6, 76, 64
8, 97333, Note_on_c, 6, 76, 127
8, 97411, Note_off_c, 6, 76, 64
8, 97896, Note_on_c, 6, 76, 127
8, 97966, Note_off_c, 6, 76, 64
8, 98373, Note_on_c, 6, 76, 127
8, 98462, Note_off_c, 6, 76, 64
8, 98864, Note_on_c, 6, 76, 127
8, 98941, Note_off_c, 6, 76, 64
8, 99338, Note_on_c, 6, 76, 127
8, 99415, Note_off_c, 6, 76, 64
8, 99831, Note_on_c, 6, 76, 127
8, 99907, Note_off_c, 6, 76, 64
8, 100330, Note_on_c, 6, 76, 127
8, 100404, Note_off_c, 6, 76, 64
8, 100810, Note_on_c, 6, 76, 127
8, 100879, Note_off_c, 6, 76, 64
8, 101293, Note_on_c, 6, 76, 127
8, 101347, Note_off_c, 6, 76, 64
8, 101770, Note_on_c, 6, 76, 127
8, 101835, Note_off_c, 6, 76, 64
8, 101835, End_track
0, 0, End_of_file
