0, 0, Header, 1, 17, 480
1, 0, Start_track
1, 0, Time_signature, 4, 2, 24, 8
1, 0, Key_signature, 0, "major"
1, 0, Tempo, 600000
1, 0, Marker_t, "Partially Sequenced by:  Mark Cataldo from Joejah"
1, 1440, Marker_t, "Reworked By Anne Wallace"
1, 177108, Tempo, 666667
1, 182404, Tempo, 750000
1, 183356, Tempo, 869565
1, 183356, End_track
2, 0, Start_track
2, 0, MIDI_port, 0
2, 0, Title_t, "Bass"
2, 0, Program_c, 0, 35
2, 0, Control_c, 0, 7, 109
2, 0, Control_c, 0, 10, 63
2, 0, Control_c, 0, 91, 12
2, 0, Note_on_c, 0, 24, 64
2, 1860, Note_on_c, 0, 24, 0
2, 1920, Note_on_c, 0, 25, 64
2, 2580, Note_on_c, 0, 25, 0
2, 2640, Note_on_c, 0, 37, 64
2, 3060, Note_on_c, 0, 37, 0
2, 3120, Note_on_c, 0, 37, 64
2, 3300, Note_on_c, 0, 37, 0
2, 3360, Note_on_c, 0, 25, 64
2, 3780, Note_on_c, 0, 25, 0
2, 3840, Note_on_c, 0, 26, 64
2, 4500, Note_on_c, 0, 26, 0
2, 4560, Note_on_c, 0, 38, 64
2, 4980, Note_on_c, 0, 38, 0
2, 5040, Note_on_c, 0, 26, 64
2, 5220, Note_on_c, 0, 26, 0
2, 5280, Note_on_c, 0, 38, 64
2, 5700, Note_on_c, 0, 38, 0
2, 5760, Note_on_c, 0, 27, 64
2, 6420, Note_on_c, 0, 27, 0
2, 6480, Note_on_c, 0, 39, 64
2, 6900, Note_on_c, 0, 39, 0
2, 6960, Note_on_c, 0, 39, 64
2, 7140, Note_on_c, 0, 39, 0
2, 7200, Note_on_c, 0, 27, 64
2, 7620, Note_on_c, 0, 27, 0
2, 7680, Note_on_c, 0, 29, 65
2, 7860, Note_on_c, 0, 29, 0
2, 7920, Note_on_c, 0, 29, 70
2, 8100, Note_on_c, 0, 29, 0
2, 8160, Note_on_c, 0, 29, 75
2, 8340, Note_on_c, 0, 29, 0
2, 8400, Note_on_c, 0, 29, 80
2, 8580, Note_on_c, 0, 29, 0
2, 8640, Note_on_c, 0, 29, 85
2, 8820, Note_on_c, 0, 29, 0
2, 8880, Note_on_c, 0, 29, 90
2, 9060, Note_on_c, 0, 29, 0
2, 9120, Note_on_c, 0, 29, 95
2, 9300, Note_on_c, 0, 29, 0
2, 9360, Note_on_c, 0, 29, 100
2, 9540, Note_on_c, 0, 29, 0
2, 9600, Note_on_c, 0, 26, 64
2, 9780, Note_on_c, 0, 26, 0
2, 9840, Note_on_c, 0, 26, 64
2, 10020, Note_on_c, 0, 26, 0
2, 10080, Note_on_c, 0, 30, 64
2, 10260, Note_on_c, 0, 30, 0
2, 10320, Note_on_c, 0, 30, 64
2, 10500, Note_on_c, 0, 30, 0
2, 10560, Note_on_c, 0, 33, 64
2, 10740, Note_on_c, 0, 33, 0
2, 10800, Note_on_c, 0, 33, 64
2, 10980, Note_on_c, 0, 33, 0
2, 11040, Note_on_c, 0, 35, 64
2, 11220, Note_on_c, 0, 35, 0
2, 11280, Note_on_c, 0, 33, 64
2, 11460, Note_on_c, 0, 33, 0
2, 11520, Note_on_c, 0, 29, 65
2, 11700, Note_on_c, 0, 29, 0
2, 11760, Note_on_c, 0, 29, 70
2, 11940, Note_on_c, 0, 29, 0
2, 12000, Note_on_c, 0, 29, 75
2, 12180, Note_on_c, 0, 29, 0
2, 12240, Note_on_c, 0, 29, 80
2, 12420, Note_on_c, 0, 29, 0
2, 12480, Note_on_c, 0, 29, 85
2, 12660, Note_on_c, 0, 29, 0
2, 12720, Note_on_c, 0, 29, 90
2, 12900, Note_on_c, 0, 29, 0
2, 12960, Note_on_c, 0, 29, 95
2, 13140, Note_on_c, 0, 29, 0
2, 13200, Note_on_c, 0, 29, 100
2, 13380, Note_on_c, 0, 29, 0
2, 13440, Note_on_c, 0, 26, 64
2, 13620, Note_on_c, 0, 26, 0
2, 13680, Note_on_c, 0, 26, 64
2, 13860, Note_on_c, 0, 26, 0
2, 13920, Note_on_c, 0, 30, 64
2, 14100, Note_on_c, 0, 30, 0
2, 14160, Note_on_c, 0, 30, 64
2, 14340, Note_on_c, 0, 30, 0
2, 14400, Note_on_c, 0, 33, 64
2, 14580, Note_on_c, 0, 33, 0
2, 14640, Note_on_c, 0, 33, 64
2, 14820, Note_on_c, 0, 33, 0
2, 14880, Note_on_c, 0, 35, 64
2, 15060, Note_on_c, 0, 35, 0
2, 15120, Note_on_c, 0, 33, 64
2, 15300, Note_on_c, 0, 33, 0
2, 15360, Note_on_c, 0, 29, 65
2, 15540, Note_on_c, 0, 29, 0
2, 15600, Note_on_c, 0, 29, 70
2, 15780, Note_on_c, 0, 29, 0
2, 15840, Note_on_c, 0, 29, 75
2, 16020, Note_on_c, 0, 29, 0
2, 16080, Note_on_c, 0, 29, 80
2, 16260, Note_on_c, 0, 29, 0
2, 16320, Note_on_c, 0, 29, 85
2, 16500, Note_on_c, 0, 29, 0
2, 16560, Note_on_c, 0, 29, 90
2, 16740, Note_on_c, 0, 29, 0
2, 16800, Note_on_c, 0, 29, 95
2, 16980, Note_on_c, 0, 29, 0
2, 17040, Note_on_c, 0, 29, 100
2, 17220, Note_on_c, 0, 29, 0
2, 17280, Note_on_c, 0, 24, 64
2, 18420, Note_on_c, 0, 24, 0
2, 18480, Note_on_c, 0, 31, 64
2, 18660, Note_on_c, 0, 31, 0
2, 18720, Note_on_c, 0, 36, 64
2, 18900, Note_on_c, 0, 36, 0
2, 18960, Note_on_c, 0, 31, 64
2, 19140, Note_on_c, 0, 31, 0
2, 19200, Note_on_c, 0, 28, 64
2, 20340, Note_on_c, 0, 28, 0
2, 20400, Note_on_c, 0, 28, 64
2, 20580, Note_on_c, 0, 28, 0
2, 20640, Note_on_c, 0, 30, 64
2, 20820, Note_on_c, 0, 30, 0
2, 20880, Note_on_c, 0, 31, 64
2, 21060, Note_on_c, 0, 31, 0
2, 21120, Note_on_c, 0, 29, 64
2, 21780, Note_on_c, 0, 29, 0
2, 21840, Note_on_c, 0, 36, 64
2, 22500, Note_on_c, 0, 36, 0
2, 22560, Note_on_c, 0, 29, 64
2, 22740, Note_on_c, 0, 29, 0
2, 22800, Note_on_c, 0, 30, 64
2, 22980, Note_on_c, 0, 30, 0
2, 23040, Note_on_c, 0, 31, 64
2, 23460, Note_on_c, 0, 31, 0
2, 23520, Note_on_c, 0, 26, 64
2, 23940, Note_on_c, 0, 26, 0
2, 24000, Note_on_c, 0, 29, 64
2, 24420, Note_on_c, 0, 29, 0
2, 24480, Note_on_c, 0, 26, 64
2, 24660, Note_on_c, 0, 26, 0
2, 24720, Note_on_c, 0, 24, 64
2, 24900, Note_on_c, 0, 24, 0
2, 24960, Note_on_c, 0, 24, 64
2, 26100, Note_on_c, 0, 24, 0
2, 26160, Note_on_c, 0, 31, 64
2, 26340, Note_on_c, 0, 31, 0
2, 26400, Note_on_c, 0, 36, 64
2, 26580, Note_on_c, 0, 36, 0
2, 26640, Note_on_c, 0, 31, 64
2, 26820, Note_on_c, 0, 31, 0
2, 26880, Note_on_c, 0, 28, 64
2, 28020, Note_on_c, 0, 28, 0
2, 28080, Note_on_c, 0, 28, 64
2, 28260, Note_on_c, 0, 28, 0
2, 28320, Note_on_c, 0, 36, 64
2, 28500, Note_on_c, 0, 36, 0
2, 28560, Note_on_c, 0, 31, 64
2, 28740, Note_on_c, 0, 31, 0
2, 28800, Note_on_c, 0, 29, 64
2, 29460, Note_on_c, 0, 29, 0
2, 29520, Note_on_c, 0, 29, 64
2, 29940, Note_on_c, 0, 29, 0
2, 30000, Note_on_c, 0, 24, 64
2, 30180, Note_on_c, 0, 24, 0
2, 30240, Note_on_c, 0, 29, 64
2, 30420, Note_on_c, 0, 29, 0
2, 30480, Note_on_c, 0, 30, 64
2, 30660, Note_on_c, 0, 30, 0
2, 30720, Note_on_c, 0, 31, 64
2, 31380, Note_on_c, 0, 31, 0
2, 31440, Note_on_c, 0, 31, 64
2, 31860, Note_on_c, 0, 31, 0
2, 31920, Note_on_c, 0, 26, 64
2, 32100, Note_on_c, 0, 26, 0
2, 32160, Note_on_c, 0, 19, 64
2, 32580, Note_on_c, 0, 19, 0
2, 32640, Note_on_c, 0, 24, 64
2, 33060, Note_on_c, 0, 24, 0
2, 33120, Note_on_c, 0, 31, 64
2, 33300, Note_on_c, 0, 31, 0
2, 33360, Note_on_c, 0, 36, 64
2, 33540, Note_on_c, 0, 36, 0
2, 33600, Note_on_c, 0, 26, 64
2, 34020, Note_on_c, 0, 26, 0
2, 34080, Note_on_c, 0, 33, 64
2, 34260, Note_on_c, 0, 33, 0
2, 34320, Note_on_c, 0, 38, 64
2, 34500, Note_on_c, 0, 38, 0
2, 34560, Note_on_c, 0, 28, 64
2, 34980, Note_on_c, 0, 28, 0
2, 35040, Note_on_c, 0, 35, 64
2, 35220, Note_on_c, 0, 35, 0
2, 35280, Note_on_c, 0, 40, 64
2, 35460, Note_on_c, 0, 40, 0
2, 35520, Note_on_c, 0, 27, 64
2, 35940, Note_on_c, 0, 27, 0
2, 36000, Note_on_c, 0, 34, 64
2, 36180, Note_on_c, 0, 34, 0
2, 36240, Note_on_c, 0, 39, 64
2, 36420, Note_on_c, 0, 39, 0
2, 36480, Note_on_c, 0, 26, 64
2, 37140, Note_on_c, 0, 26, 0
2, 37200, Note_on_c, 0, 38, 64
2, 37620, Note_on_c, 0, 38, 0
2, 37680, Note_on_c, 0, 38, 64
2, 37860, Note_on_c, 0, 38, 0
2, 37920, Note_on_c, 0, 33, 64
2, 38100, Note_on_c, 0, 33, 0
2, 38160, Note_on_c, 0, 32, 64
2, 38340, Note_on_c, 0, 32, 0
2, 38400, Note_on_c, 0, 31, 64
2, 39060, Note_on_c, 0, 31, 0
2, 39120, Note_on_c, 0, 31, 64
2, 39540, Note_on_c, 0, 31, 0
2, 39600, Note_on_c, 0, 26, 64
2, 40020, Note_on_c, 0, 26, 0
2, 40080, Note_on_c, 0, 25, 64
2, 40260, Note_on_c, 0, 25, 0
2, 40320, Note_on_c, 0, 24, 64
2, 40740, Note_on_c, 0, 24, 0
2, 40800, Note_on_c, 0, 31, 64
2, 40980, Note_on_c, 0, 31, 0
2, 41040, Note_on_c, 0, 36, 64
2, 41220, Note_on_c, 0, 36, 0
2, 41280, Note_on_c, 0, 26, 64
2, 41700, Note_on_c, 0, 26, 0
2, 41760, Note_on_c, 0, 33, 64
2, 41940, Note_on_c, 0, 33, 0
2, 42000, Note_on_c, 0, 38, 64
2, 42180, Note_on_c, 0, 38, 0
2, 42240, Note_on_c, 0, 28, 64
2, 42660, Note_on_c, 0, 28, 0
2, 42720, Note_on_c, 0, 35, 64
2, 42900, Note_on_c, 0, 35, 0
2, 42960, Note_on_c, 0, 40, 64
2, 43140, Note_on_c, 0, 40, 0
2, 43200, Note_on_c, 0, 27, 64
2, 43620, Note_on_c, 0, 27, 0
2, 43680, Note_on_c, 0, 34, 64
2, 43860, Note_on_c, 0, 34, 0
2, 43920, Note_on_c, 0, 39, 64
2, 44100, Note_on_c, 0, 39, 0
2, 44160, Note_on_c, 0, 26, 64
2, 44820, Note_on_c, 0, 26, 0
2, 44880, Note_on_c, 0, 38, 64
2, 45300, Note_on_c, 0, 38, 0
2, 45360, Note_on_c, 0, 26, 64
2, 45780, Note_on_c, 0, 26, 0
2, 45840, Note_on_c, 0, 39, 64
2, 46020, Note_on_c, 0, 39, 0
2, 46080, Note_on_c, 0, 31, 64
2, 46260, Note_on_c, 0, 31, 0
2, 46320, Note_on_c, 0, 31, 64
2, 46500, Note_on_c, 0, 31, 0
2, 46560, Note_on_c, 0, 31, 64
2, 46740, Note_on_c, 0, 31, 0
2, 46800, Note_on_c, 0, 31, 64
2, 46980, Note_on_c, 0, 31, 0
2, 47040, Note_on_c, 0, 29, 64
2, 47700, Note_on_c, 0, 29, 0
2, 47760, Note_on_c, 0, 29, 64
2, 47940, Note_on_c, 0, 29, 0
2, 48000, Note_on_c, 0, 36, 94
2, 48660, Note_on_c, 0, 36, 0
2, 48720, Note_on_c, 0, 36, 114
2, 48900, Note_on_c, 0, 36, 0
2, 48960, Note_on_c, 0, 35, 114
2, 49620, Note_on_c, 0, 35, 0
2, 49680, Note_on_c, 0, 35, 114
2, 49860, Note_on_c, 0, 35, 0
2, 49920, Note_on_c, 0, 33, 114
2, 50580, Note_on_c, 0, 33, 0
2, 50640, Note_on_c, 0, 33, 114
2, 50820, Note_on_c, 0, 33, 0
2, 50880, Note_on_c, 0, 31, 114
2, 51540, Note_on_c, 0, 31, 0
2, 51600, Note_on_c, 0, 31, 114
2, 51780, Note_on_c, 0, 31, 0
2, 51840, Note_on_c, 0, 29, 114
2, 52500, Note_on_c, 0, 29, 0
2, 52560, Note_on_c, 0, 29, 114
2, 52740, Note_on_c, 0, 29, 0
2, 52800, Note_on_c, 0, 28, 114
2, 53460, Note_on_c, 0, 28, 0
2, 53520, Note_on_c, 0, 28, 114
2, 53700, Note_on_c, 0, 28, 0
2, 53760, Note_on_c, 0, 26, 114
2, 53940, Note_on_c, 0, 26, 0
2, 54000, Note_on_c, 0, 26, 114
2, 54420, Note_on_c, 0, 26, 0
2, 54480, Note_on_c, 0, 26, 114
2, 54660, Note_on_c, 0, 26, 0
2, 54720, Note_on_c, 0, 31, 114
2, 55380, Note_on_c, 0, 31, 0
2, 55440, Note_on_c, 0, 31, 114
2, 55620, Note_on_c, 0, 31, 0
2, 55680, Note_on_c, 0, 29, 114
2, 56340, Note_on_c, 0, 29, 0
2, 56400, Note_on_c, 0, 29, 114
2, 56580, Note_on_c, 0, 29, 0
2, 56640, Note_on_c, 0, 36, 114
2, 57300, Note_on_c, 0, 36, 0
2, 57360, Note_on_c, 0, 36, 114
2, 57540, Note_on_c, 0, 36, 0
2, 57600, Note_on_c, 0, 35, 114
2, 58260, Note_on_c, 0, 35, 0
2, 58320, Note_on_c, 0, 35, 114
2, 58500, Note_on_c, 0, 35, 0
2, 58560, Note_on_c, 0, 33, 114
2, 59220, Note_on_c, 0, 33, 0
2, 59280, Note_on_c, 0, 33, 114
2, 59460, Note_on_c, 0, 33, 0
2, 59520, Note_on_c, 0, 31, 114
2, 60180, Note_on_c, 0, 31, 0
2, 60240, Note_on_c, 0, 31, 114
2, 60420, Note_on_c, 0, 31, 0
2, 60480, Note_on_c, 0, 29, 114
2, 61140, Note_on_c, 0, 29, 0
2, 61200, Note_on_c, 0, 29, 114
2, 61380, Note_on_c, 0, 29, 0
2, 61440, Note_on_c, 0, 28, 114
2, 62100, Note_on_c, 0, 28, 0
2, 62160, Note_on_c, 0, 28, 114
2, 62340, Note_on_c, 0, 28, 0
2, 62400, Note_on_c, 0, 38, 104
2, 63060, Note_on_c, 0, 38, 0
2, 63120, Note_on_c, 0, 38, 104
2, 63300, Note_on_c, 0, 38, 0
2, 63360, Note_on_c, 0, 33, 104
2, 63780, Note_on_c, 0, 33, 0
2, 63840, Note_on_c, 0, 31, 104
2, 64260, Note_on_c, 0, 31, 0
2, 64320, Note_on_c, 0, 34, 104
2, 64740, Note_on_c, 0, 34, 0
2, 64800, Note_on_c, 0, 29, 104
2, 66180, Note_on_c, 0, 29, 0
2, 66240, Note_on_c, 0, 28, 104
2, 66660, Note_on_c, 0, 28, 0
2, 66720, Note_on_c, 0, 26, 104
2, 67140, Note_on_c, 0, 26, 0
2, 67200, Note_on_c, 0, 21, 104
2, 67620, Note_on_c, 0, 21, 0
2, 67680, Note_on_c, 0, 24, 104
2, 69060, Note_on_c, 0, 24, 0
2, 69120, Note_on_c, 0, 12, 104
2, 69300, Note_on_c, 0, 12, 0
2, 69360, Note_on_c, 0, 12, 94
2, 69540, Note_on_c, 0, 12, 0
2, 69600, Note_on_c, 0, 12, 94
2, 69780, Note_on_c, 0, 12, 0
2, 69840, Note_on_c, 0, 12, 94
2, 69930, Note_on_c, 0, 12, 0
2, 69960, Note_on_c, 0, 12, 94
2, 70050, Note_on_c, 0, 12, 0
2, 70080, Note_on_c, 0, 12, 94
2, 70260, Note_on_c, 0, 12, 0
2, 70320, Note_on_c, 0, 12, 104
2, 70500, Note_on_c, 0, 12, 0
2, 70560, Note_on_c, 0, 12, 104
2, 70740, Note_on_c, 0, 12, 0
2, 70800, Note_on_c, 0, 12, 104
2, 70980, Note_on_c, 0, 12, 0
2, 71040, Note_on_c, 0, 26, 104
2, 71220, Note_on_c, 0, 26, 0
2, 71280, Note_on_c, 0, 26, 104
2, 71460, Note_on_c, 0, 26, 0
2, 71520, Note_on_c, 0, 30, 104
2, 71700, Note_on_c, 0, 30, 0
2, 71760, Note_on_c, 0, 30, 104
2, 71940, Note_on_c, 0, 30, 0
2, 72000, Note_on_c, 0, 33, 104
2, 72180, Note_on_c, 0, 33, 0
2, 72240, Note_on_c, 0, 33, 104
2, 72420, Note_on_c, 0, 33, 0
2, 72480, Note_on_c, 0, 35, 104
2, 72660, Note_on_c, 0, 35, 0
2, 72720, Note_on_c, 0, 33, 104
2, 72900, Note_on_c, 0, 33, 0
2, 72960, Note_on_c, 0, 29, 104
2, 73140, Note_on_c, 0, 29, 0
2, 73200, Note_on_c, 0, 29, 104
2, 73380, Note_on_c, 0, 29, 0
2, 73440, Note_on_c, 0, 29, 104
2, 73620, Note_on_c, 0, 29, 0
2, 73680, Note_on_c, 0, 29, 104
2, 73860, Note_on_c, 0, 29, 0
2, 73920, Note_on_c, 0, 29, 104
2, 74100, Note_on_c, 0, 29, 0
2, 74160, Note_on_c, 0, 29, 104
2, 74340, Note_on_c, 0, 29, 0
2, 74400, Note_on_c, 0, 29, 104
2, 74580, Note_on_c, 0, 29, 0
2, 74640, Note_on_c, 0, 29, 107
2, 74820, Note_on_c, 0, 29, 0
2, 74880, Note_on_c, 0, 26, 94
2, 75060, Note_on_c, 0, 26, 0
2, 75120, Note_on_c, 0, 26, 94
2, 75300, Note_on_c, 0, 26, 0
2, 75360, Note_on_c, 0, 30, 94
2, 75540, Note_on_c, 0, 30, 0
2, 75600, Note_on_c, 0, 30, 94
2, 75780, Note_on_c, 0, 30, 0
2, 75840, Note_on_c, 0, 33, 94
2, 76020, Note_on_c, 0, 33, 0
2, 76080, Note_on_c, 0, 33, 94
2, 76260, Note_on_c, 0, 33, 0
2, 76320, Note_on_c, 0, 35, 94
2, 76500, Note_on_c, 0, 35, 0
2, 76560, Note_on_c, 0, 33, 94
2, 76740, Note_on_c, 0, 33, 0
2, 76800, Note_on_c, 0, 29, 84
2, 76980, Note_on_c, 0, 29, 0
2, 77040, Note_on_c, 0, 29, 94
2, 77220, Note_on_c, 0, 29, 0
2, 77280, Note_on_c, 0, 29, 94
2, 77460, Note_on_c, 0, 29, 0
2, 77520, Note_on_c, 0, 29, 94
2, 77700, Note_on_c, 0, 29, 0
2, 77760, Note_on_c, 0, 29, 94
2, 77940, Note_on_c, 0, 29, 0
2, 78000, Note_on_c, 0, 29, 104
2, 78180, Note_on_c, 0, 29, 0
2, 78240, Note_on_c, 0, 29, 114
2, 78420, Note_on_c, 0, 29, 0
2, 78480, Note_on_c, 0, 29, 127
2, 78660, Note_on_c, 0, 29, 0
2, 78720, Note_on_c, 0, 24, 64
2, 79860, Note_on_c, 0, 24, 0
2, 79920, Note_on_c, 0, 31, 64
2, 80100, Note_on_c, 0, 31, 0
2, 80160, Note_on_c, 0, 36, 64
2, 80340, Note_on_c, 0, 36, 0
2, 80400, Note_on_c, 0, 31, 64
2, 80580, Note_on_c, 0, 31, 0
2, 80640, Note_on_c, 0, 28, 64
2, 81780, Note_on_c, 0, 28, 0
2, 81840, Note_on_c, 0, 28, 64
2, 82020, Note_on_c, 0, 28, 0
2, 82080, Note_on_c, 0, 36, 64
2, 82260, Note_on_c, 0, 36, 0
2, 82320, Note_on_c, 0, 31, 64
2, 82500, Note_on_c, 0, 31, 0
2, 82560, Note_on_c, 0, 29, 64
2, 83460, Note_on_c, 0, 29, 0
2, 83520, Note_on_c, 0, 29, 64
2, 83940, Note_on_c, 0, 29, 0
2, 84000, Note_on_c, 0, 29, 64
2, 84180, Note_on_c, 0, 29, 0
2, 84240, Note_on_c, 0, 30, 64
2, 84420, Note_on_c, 0, 30, 0
2, 84480, Note_on_c, 0, 31, 64
2, 84900, Note_on_c, 0, 31, 0
2, 84960, Note_on_c, 0, 23, 64
2, 85380, Note_on_c, 0, 23, 0
2, 85440, Note_on_c, 0, 29, 64
2, 85860, Note_on_c, 0, 29, 0
2, 85920, Note_on_c, 0, 29, 64
2, 86100, Note_on_c, 0, 29, 0
2, 86160, Note_on_c, 0, 26, 64
2, 86340, Note_on_c, 0, 26, 0
2, 86400, Note_on_c, 0, 24, 64
2, 87300, Note_on_c, 0, 24, 0
2, 87360, Note_on_c, 0, 36, 64
2, 87540, Note_on_c, 0, 36, 0
2, 87600, Note_on_c, 0, 31, 64
2, 87780, Note_on_c, 0, 31, 0
2, 87840, Note_on_c, 0, 36, 64
2, 88020, Note_on_c, 0, 36, 0
2, 88080, Note_on_c, 0, 31, 64
2, 88260, Note_on_c, 0, 31, 0
2, 88320, Note_on_c, 0, 28, 64
2, 89460, Note_on_c, 0, 28, 0
2, 89520, Note_on_c, 0, 28, 64
2, 89700, Note_on_c, 0, 28, 0
2, 89760, Note_on_c, 0, 36, 64
2, 89940, Note_on_c, 0, 36, 0
2, 90000, Note_on_c, 0, 31, 64
2, 90180, Note_on_c, 0, 31, 0
2, 90240, Note_on_c, 0, 29, 64
2, 91620, Note_on_c, 0, 29, 0
2, 91680, Note_on_c, 0, 29, 64
2, 91860, Note_on_c, 0, 29, 0
2, 91920, Note_on_c, 0, 30, 64
2, 92100, Note_on_c, 0, 30, 0
2, 92160, Note_on_c, 0, 31, 64
2, 93060, Note_on_c, 0, 31, 0
2, 93120, Note_on_c, 0, 31, 64
2, 93300, Note_on_c, 0, 31, 0
2, 93360, Note_on_c, 0, 26, 64
2, 93540, Note_on_c, 0, 26, 0
2, 93600, Note_on_c, 0, 31, 64
2, 93780, Note_on_c, 0, 31, 0
2, 93840, Note_on_c, 0, 26, 64
2, 94020, Note_on_c, 0, 26, 0
2, 94080, Note_on_c, 0, 24, 64
2, 94500, Note_on_c, 0, 24, 0
2, 94560, Note_on_c, 0, 31, 64
2, 94740, Note_on_c, 0, 31, 0
2, 94800, Note_on_c, 0, 36, 64
2, 94980, Note_on_c, 0, 36, 0
2, 95040, Note_on_c, 0, 26, 64
2, 95460, Note_on_c, 0, 26, 0
2, 95520, Note_on_c, 0, 33, 64
2, 95700, Note_on_c, 0, 33, 0
2, 95760, Note_on_c, 0, 38, 64
2, 95940, Note_on_c, 0, 38, 0
2, 96000, Note_on_c, 0, 28, 64
2, 96420, Note_on_c, 0, 28, 0
2, 96480, Note_on_c, 0, 35, 64
2, 96660, Note_on_c, 0, 35, 0
2, 96720, Note_on_c, 0, 40, 64
2, 96900, Note_on_c, 0, 40, 0
2, 96960, Note_on_c, 0, 27, 64
2, 97380, Note_on_c, 0, 27, 0
2, 97440, Note_on_c, 0, 34, 64
2, 97620, Note_on_c, 0, 34, 0
2, 97680, Note_on_c, 0, 39, 64
2, 97860, Note_on_c, 0, 39, 0
2, 97920, Note_on_c, 0, 26, 64
2, 98580, Note_on_c, 0, 26, 0
2, 98640, Note_on_c, 0, 38, 64
2, 99060, Note_on_c, 0, 38, 0
2, 99120, Note_on_c, 0, 38, 64
2, 99300, Note_on_c, 0, 38, 0
2, 99360, Note_on_c, 0, 33, 64
2, 99540, Note_on_c, 0, 33, 0
2, 99600, Note_on_c, 0, 32, 64
2, 99780, Note_on_c, 0, 32, 0
2, 99840, Note_on_c, 0, 31, 64
2, 100500, Note_on_c, 0, 31, 0
2, 100560, Note_on_c, 0, 38, 64
2, 100980, Note_on_c, 0, 38, 0
2, 101040, Note_on_c, 0, 31, 64
2, 101220, Note_on_c, 0, 31, 0
2, 101280, Note_on_c, 0, 29, 64
2, 101460, Note_on_c, 0, 29, 0
2, 101520, Note_on_c, 0, 26, 64
2, 101700, Note_on_c, 0, 26, 0
2, 101760, Note_on_c, 0, 24, 64
2, 102180, Note_on_c, 0, 24, 0
2, 102240, Note_on_c, 0, 31, 64
2, 102420, Note_on_c, 0, 31, 0
2, 102480, Note_on_c, 0, 36, 64
2, 102660, Note_on_c, 0, 36, 0
2, 102720, Note_on_c, 0, 26, 64
2, 103140, Note_on_c, 0, 26, 0
2, 103200, Note_on_c, 0, 33, 64
2, 103380, Note_on_c, 0, 33, 0
2, 103440, Note_on_c, 0, 38, 64
2, 103620, Note_on_c, 0, 38, 0
2, 103680, Note_on_c, 0, 28, 64
2, 104100, Note_on_c, 0, 28, 0
2, 104160, Note_on_c, 0, 35, 64
2, 104340, Note_on_c, 0, 35, 0
2, 104400, Note_on_c, 0, 40, 64
2, 104580, Note_on_c, 0, 40, 0
2, 104640, Note_on_c, 0, 27, 64
2, 105060, Note_on_c, 0, 27, 0
2, 105120, Note_on_c, 0, 34, 64
2, 105300, Note_on_c, 0, 34, 0
2, 105360, Note_on_c, 0, 39, 64
2, 105540, Note_on_c, 0, 39, 0
2, 105600, Note_on_c, 0, 26, 64
2, 106260, Note_on_c, 0, 26, 0
2, 106320, Note_on_c, 0, 26, 64
2, 106740, Note_on_c, 0, 26, 0
2, 106800, Note_on_c, 0, 21, 64
2, 106980, Note_on_c, 0, 21, 0
2, 107040, Note_on_c, 0, 24, 64
2, 107220, Note_on_c, 0, 24, 0
2, 107280, Note_on_c, 0, 29, 64
2, 107460, Note_on_c, 0, 29, 0
2, 107520, Note_on_c, 0, 31, 64
2, 107940, Note_on_c, 0, 31, 0
2, 108000, Note_on_c, 0, 31, 64
2, 108180, Note_on_c, 0, 31, 0
2, 108240, Note_on_c, 0, 31, 64
2, 108420, Note_on_c, 0, 31, 0
2, 108480, Note_on_c, 0, 29, 64
2, 109140, Note_on_c, 0, 29, 0
2, 109200, Note_on_c, 0, 29, 64
2, 109380, Note_on_c, 0, 29, 0
2, 109440, Note_on_c, 0, 36, 94
2, 110100, Note_on_c, 0, 36, 0
2, 110160, Note_on_c, 0, 36, 94
2, 110340, Note_on_c, 0, 36, 0
2, 110400, Note_on_c, 0, 35, 94
2, 111060, Note_on_c, 0, 35, 0
2, 111120, Note_on_c, 0, 35, 94
2, 111300, Note_on_c, 0, 35, 0
2, 111360, Note_on_c, 0, 33, 94
2, 112020, Note_on_c, 0, 33, 0
2, 112080, Note_on_c, 0, 33, 94
2, 112260, Note_on_c, 0, 33, 0
2, 112320, Note_on_c, 0, 31, 94
2, 112980, Note_on_c, 0, 31, 0
2, 113040, Note_on_c, 0, 31, 94
2, 113220, Note_on_c, 0, 31, 0
2, 113280, Note_on_c, 0, 29, 94
2, 113940, Note_on_c, 0, 29, 0
2, 114000, Note_on_c, 0, 29, 94
2, 114180, Note_on_c, 0, 29, 0
2, 114240, Note_on_c, 0, 28, 94
2, 114900, Note_on_c, 0, 28, 0
2, 114960, Note_on_c, 0, 28, 94
2, 115140, Note_on_c, 0, 28, 0
2, 115200, Note_on_c, 0, 26, 104
2, 115380, Note_on_c, 0, 26, 0
2, 115440, Note_on_c, 0, 26, 104
2, 115860, Note_on_c, 0, 26, 0
2, 115920, Note_on_c, 0, 26, 104
2, 116100, Note_on_c, 0, 26, 0
2, 116160, Note_on_c, 0, 31, 114
2, 116820, Note_on_c, 0, 31, 0
2, 116880, Note_on_c, 0, 31, 114
2, 117060, Note_on_c, 0, 31, 0
2, 117120, Note_on_c, 0, 29, 114
2, 117780, Note_on_c, 0, 29, 0
2, 117840, Note_on_c, 0, 29, 114
2, 118020, Note_on_c, 0, 29, 0
2, 118080, Note_on_c, 0, 36, 114
2, 118740, Note_on_c, 0, 36, 0
2, 118800, Note_on_c, 0, 36, 114
2, 118980, Note_on_c, 0, 36, 0
2, 119040, Note_on_c, 0, 35, 114
2, 119700, Note_on_c, 0, 35, 0
2, 119760, Note_on_c, 0, 35, 114
2, 119940, Note_on_c, 0, 35, 0
2, 120000, Note_on_c, 0, 33, 114
2, 120660, Note_on_c, 0, 33, 0
2, 120720, Note_on_c, 0, 33, 114
2, 120900, Note_on_c, 0, 33, 0
2, 120960, Note_on_c, 0, 31, 114
2, 121620, Note_on_c, 0, 31, 0
2, 121680, Note_on_c, 0, 31, 114
2, 121860, Note_on_c, 0, 31, 0
2, 121920, Note_on_c, 0, 29, 114
2, 122580, Note_on_c, 0, 29, 0
2, 122640, Note_on_c, 0, 29, 114
2, 122820, Note_on_c, 0, 29, 0
2, 122880, Note_on_c, 0, 28, 114
2, 123540, Note_on_c, 0, 28, 0
2, 123600, Note_on_c, 0, 28, 114
2, 123780, Note_on_c, 0, 28, 0
2, 123840, Note_on_c, 0, 38, 94
2, 124500, Note_on_c, 0, 38, 0
2, 124560, Note_on_c, 0, 38, 94
2, 124740, Note_on_c, 0, 38, 0
2, 124800, Note_on_c, 0, 33, 94
2, 125220, Note_on_c, 0, 33, 0
2, 125280, Note_on_c, 0, 31, 94
2, 125700, Note_on_c, 0, 31, 0
2, 125760, Note_on_c, 0, 34, 94
2, 126180, Note_on_c, 0, 34, 0
2, 126240, Note_on_c, 0, 29, 94
2, 127620, Note_on_c, 0, 29, 0
2, 127680, Note_on_c, 0, 28, 94
2, 128100, Note_on_c, 0, 28, 0
2, 128160, Note_on_c, 0, 26, 94
2, 128580, Note_on_c, 0, 26, 0
2, 128640, Note_on_c, 0, 21, 94
2, 129060, Note_on_c, 0, 21, 0
2, 129120, Note_on_c, 0, 24, 94
2, 130500, Note_on_c, 0, 24, 0
2, 130560, Note_on_c, 0, 29, 94
2, 131220, Note_on_c, 0, 29, 0
2, 131280, Note_on_c, 0, 29, 94
2, 131700, Note_on_c, 0, 29, 0
2, 131760, Note_on_c, 0, 24, 94
2, 132180, Note_on_c, 0, 24, 0
2, 132240, Note_on_c, 0, 26, 94
2, 132420, Note_on_c, 0, 26, 0
2, 132480, Note_on_c, 0, 29, 94
2, 133140, Note_on_c, 0, 29, 0
2, 133200, Note_on_c, 0, 29, 94
2, 133620, Note_on_c, 0, 29, 0
2, 133680, Note_on_c, 0, 29, 94
2, 133860, Note_on_c, 0, 29, 0
2, 133920, Note_on_c, 0, 29, 94
2, 134100, Note_on_c, 0, 29, 0
2, 134160, Note_on_c, 0, 21, 94
2, 134340, Note_on_c, 0, 21, 0
2, 134400, Note_on_c, 0, 24, 94
2, 135540, Note_on_c, 0, 24, 0
2, 135600, Note_on_c, 0, 31, 94
2, 135780, Note_on_c, 0, 31, 0
2, 135840, Note_on_c, 0, 36, 94
2, 135930, Note_on_c, 0, 36, 0
2, 135960, Note_on_c, 0, 36, 94
2, 136140, Note_on_c, 0, 36, 0
2, 136200, Note_on_c, 0, 36, 94
2, 136290, Note_on_c, 0, 36, 0
2, 136320, Note_on_c, 0, 36, 94
2, 136980, Note_on_c, 0, 36, 0
2, 137040, Note_on_c, 0, 36, 94
2, 137460, Note_on_c, 0, 36, 0
2, 137520, Note_on_c, 0, 36, 94
2, 137700, Note_on_c, 0, 36, 0
2, 137760, Note_on_c, 0, 31, 94
2, 137940, Note_on_c, 0, 31, 0
2, 138000, Note_on_c, 0, 31, 94
2, 138180, Note_on_c, 0, 31, 0
2, 138240, Note_on_c, 0, 29, 94
2, 138900, Note_on_c, 0, 29, 0
2, 138960, Note_on_c, 0, 36, 94
2, 139380, Note_on_c, 0, 36, 0
2, 139440, Note_on_c, 0, 29, 94
2, 139620, Note_on_c, 0, 29, 0
2, 139680, Note_on_c, 0, 30, 94
2, 139860, Note_on_c, 0, 30, 0
2, 139920, Note_on_c, 0, 31, 94
2, 140100, Note_on_c, 0, 31, 0
2, 140160, Note_on_c, 0, 29, 94
2, 140820, Note_on_c, 0, 29, 0
2, 140880, Note_on_c, 0, 29, 94
2, 141300, Note_on_c, 0, 29, 0
2, 141360, Note_on_c, 0, 24, 94
2, 141540, Note_on_c, 0, 24, 0
2, 141600, Note_on_c, 0, 29, 94
2, 141780, Note_on_c, 0, 29, 0
2, 141840, Note_on_c, 0, 30, 94
2, 142020, Note_on_c, 0, 30, 0
2, 142080, Note_on_c, 0, 31, 94
2, 142740, Note_on_c, 0, 31, 0
2, 142800, Note_on_c, 0, 31, 94
2, 143220, Note_on_c, 0, 31, 0
2, 143280, Note_on_c, 0, 26, 94
2, 143460, Note_on_c, 0, 26, 0
2, 143520, Note_on_c, 0, 29, 94
2, 143700, Note_on_c, 0, 29, 0
2, 143760, Note_on_c, 0, 30, 94
2, 143940, Note_on_c, 0, 30, 0
2, 144000, Note_on_c, 0, 31, 94
2, 144420, Note_on_c, 0, 31, 0
2, 144480, Note_on_c, 0, 31, 94
2, 144660, Note_on_c, 0, 31, 0
2, 144720, Note_on_c, 0, 31, 94
2, 144900, Note_on_c, 0, 31, 0
2, 144960, Note_on_c, 0, 29, 94
2, 145380, Note_on_c, 0, 29, 0
2, 145440, Note_on_c, 0, 29, 94
2, 145860, Note_on_c, 0, 29, 0
2, 145920, Note_on_c, 0, 36, 94
2, 146580, Note_on_c, 0, 36, 0
2, 146640, Note_on_c, 0, 36, 94
2, 146820, Note_on_c, 0, 36, 0
2, 146880, Note_on_c, 0, 35, 94
2, 147540, Note_on_c, 0, 35, 0
2, 147600, Note_on_c, 0, 35, 94
2, 147780, Note_on_c, 0, 35, 0
2, 147840, Note_on_c, 0, 33, 94
2, 148500, Note_on_c, 0, 33, 0
2, 148560, Note_on_c, 0, 33, 94
2, 148740, Note_on_c, 0, 33, 0
2, 148800, Note_on_c, 0, 31, 94
2, 149460, Note_on_c, 0, 31, 0
2, 149520, Note_on_c, 0, 31, 94
2, 149700, Note_on_c, 0, 31, 0
2, 149760, Note_on_c, 0, 29, 94
2, 150420, Note_on_c, 0, 29, 0
2, 150480, Note_on_c, 0, 29, 94
2, 150660, Note_on_c, 0, 29, 0
2, 150720, Note_on_c, 0, 28, 94
2, 151380, Note_on_c, 0, 28, 0
2, 151440, Note_on_c, 0, 28, 94
2, 151620, Note_on_c, 0, 28, 0
2, 151680, Note_on_c, 0, 26, 94
2, 152340, Note_on_c, 0, 26, 0
2, 152400, Note_on_c, 0, 26, 94
2, 152580, Note_on_c, 0, 26, 0
2, 152640, Note_on_c, 0, 31, 104
2, 153300, Note_on_c, 0, 31, 0
2, 153360, Note_on_c, 0, 31, 104
2, 153540, Note_on_c, 0, 31, 0
2, 153600, Note_on_c, 0, 29, 104
2, 154260, Note_on_c, 0, 29, 0
2, 154320, Note_on_c, 0, 29, 104
2, 154500, Note_on_c, 0, 29, 0
2, 154560, Note_on_c, 0, 36, 104
2, 155220, Note_on_c, 0, 36, 0
2, 155280, Note_on_c, 0, 36, 104
2, 155460, Note_on_c, 0, 36, 0
2, 155520, Note_on_c, 0, 35, 104
2, 156180, Note_on_c, 0, 35, 0
2, 156240, Note_on_c, 0, 35, 104
2, 156420, Note_on_c, 0, 35, 0
2, 156480, Note_on_c, 0, 33, 104
2, 157140, Note_on_c, 0, 33, 0
2, 157200, Note_on_c, 0, 33, 104
2, 157380, Note_on_c, 0, 33, 0
2, 157440, Note_on_c, 0, 31, 104
2, 158100, Note_on_c, 0, 31, 0
2, 158160, Note_on_c, 0, 31, 104
2, 158340, Note_on_c, 0, 31, 0
2, 158400, Note_on_c, 0, 29, 104
2, 159060, Note_on_c, 0, 29, 0
2, 159120, Note_on_c, 0, 29, 104
2, 159300, Note_on_c, 0, 29, 0
2, 159360, Note_on_c, 0, 28, 104
2, 160020, Note_on_c, 0, 28, 0
2, 160080, Note_on_c, 0, 28, 104
2, 160260, Note_on_c, 0, 28, 0
2, 160320, Note_on_c, 0, 38, 104
2, 160980, Note_on_c, 0, 38, 0
2, 161040, Note_on_c, 0, 38, 104
2, 161220, Note_on_c, 0, 38, 0
2, 161280, Note_on_c, 0, 33, 104
2, 161700, Note_on_c, 0, 33, 0
2, 161760, Note_on_c, 0, 31, 104
2, 162180, Note_on_c, 0, 31, 0
2, 162240, Note_on_c, 0, 34, 104
2, 162660, Note_on_c, 0, 34, 0
2, 162720, Note_on_c, 0, 29, 104
2, 164100, Note_on_c, 0, 29, 0
2, 164160, Note_on_c, 0, 28, 104
2, 164580, Note_on_c, 0, 28, 0
2, 164640, Note_on_c, 0, 26, 104
2, 165060, Note_on_c, 0, 26, 0
2, 165120, Note_on_c, 0, 21, 104
2, 165540, Note_on_c, 0, 21, 0
2, 165600, Note_on_c, 0, 24, 64
2, 166980, Note_on_c, 0, 24, 0
2, 167040, Note_on_c, 0, 33, 64
2, 167460, Note_on_c, 0, 33, 0
2, 167520, Note_on_c, 0, 31, 64
2, 167940, Note_on_c, 0, 31, 0
2, 168000, Note_on_c, 0, 34, 64
2, 168420, Note_on_c, 0, 34, 0
2, 168480, Note_on_c, 0, 29, 64
2, 169860, Note_on_c, 0, 29, 0
2, 169920, Note_on_c, 0, 40, 64
2, 170340, Note_on_c, 0, 40, 0
2, 170400, Note_on_c, 0, 38, 64
2, 170820, Note_on_c, 0, 38, 0
2, 170880, Note_on_c, 0, 33, 64
2, 171300, Note_on_c, 0, 33, 0
2, 171360, Note_on_c, 0, 36, 64
2, 173120, Control_c, 0, 7, 106
2, 173140, Control_c, 0, 7, 105
2, 173160, Control_c, 0, 7, 103
2, 173180, Control_c, 0, 7, 100
2, 173200, Control_c, 0, 7, 97
2, 173220, Note_on_c, 0, 36, 0
2, 173220, Control_c, 0, 7, 96
2, 173240, Control_c, 0, 7, 95
2, 173260, Control_c, 0, 7, 94
2, 173280, Note_on_c, 0, 38, 64
2, 173300, Control_c, 0, 7, 92
2, 173420, Control_c, 0, 7, 91
2, 173460, Control_c, 0, 7, 90
2, 173480, Control_c, 0, 7, 89
2, 173520, Control_c, 0, 7, 88
2, 173540, Control_c, 0, 7, 87
2, 173580, Control_c, 0, 7, 86
2, 173760, Control_c, 0, 7, 85
2, 173900, Control_c, 0, 7, 83
2, 173920, Control_c, 0, 7, 82
2, 174000, Control_c, 0, 7, 81
2, 174180, Control_c, 0, 7, 80
2, 174300, Control_c, 0, 7, 79
2, 174320, Control_c, 0, 7, 78
2, 174380, Control_c, 0, 7, 77
2, 174400, Control_c, 0, 7, 76
2, 174420, Note_on_c, 0, 38, 0
2, 174480, Note_on_c, 0, 45, 64
2, 174500, Control_c, 0, 7, 74
2, 174520, Control_c, 0, 7, 73
2, 174580, Control_c, 0, 7, 72
2, 174620, Control_c, 0, 7, 71
2, 174700, Control_c, 0, 7, 70
2, 174740, Control_c, 0, 7, 69
2, 174820, Control_c, 0, 7, 68
2, 175000, Control_c, 0, 7, 67
2, 175040, Control_c, 0, 7, 65
2, 175060, Control_c, 0, 7, 64
2, 175140, Note_on_c, 0, 45, 0
2, 175200, Note_on_c, 0, 40, 64
2, 175580, Control_c, 0, 7, 63
2, 175620, Control_c, 0, 7, 62
2, 176340, Note_on_c, 0, 40, 0
2, 176400, Note_on_c, 0, 47, 64
2, 176580, Note_on_c, 0, 47, 0
2, 176640, Note_on_c, 0, 40, 64
2, 177060, Note_on_c, 0, 40, 0
2, 177120, Note_on_c, 0, 39, 64
2, 178500, Note_on_c, 0, 39, 0
2, 178560, Note_on_c, 0, 40, 64
2, 178980, Note_on_c, 0, 40, 0
2, 179040, Note_on_c, 0, 38, 64
2, 180180, Note_on_c, 0, 38, 0
2, 180240, Note_on_c, 0, 45, 64
2, 180660, Note_on_c, 0, 45, 0
2, 180720, Note_on_c, 0, 41, 64
2, 180900, Note_on_c, 0, 41, 0
2, 180960, Note_on_c, 0, 37, 64
2, 181860, Note_on_c, 0, 37, 0
2, 181920, Note_on_c, 0, 37, 64
2, 182100, Note_on_c, 0, 37, 0
2, 182160, Note_on_c, 0, 39, 64
2, 182340, Note_on_c, 0, 39, 0
2, 182400, Note_on_c, 0, 37, 64
2, 182820, Note_on_c, 0, 37, 0
2, 182880, Note_on_c, 0, 36, 64
2, 186660, Note_on_c, 0, 36, 0
2, 186660, End_track
3, 0, Start_track
3, 0, MIDI_port, 0
3, 0, Title_t, "PIANO 1 TREBLE(MC)"
3, 0, Program_c, 1, 0
3, 0, Control_c, 1, 7, 87
3, 0, Control_c, 1, 10, 46
3, 0, Control_c, 1, 91, 63
3, 0, Note_on_c, 1, 55, 64
3, 0, Note_on_c, 1, 59, 64
3, 0, Note_on_c, 1, 64, 64
3, 1860, Note_on_c, 1, 64, 0
3, 1860, Note_on_c, 1, 59, 0
3, 1860, Note_on_c, 1, 55, 0
3, 1920, Note_on_c, 1, 65, 64
3, 1920, Note_on_c, 1, 61, 64
3, 1920, Note_on_c, 1, 56, 64
3, 3780, Note_on_c, 1, 56, 0
3, 3780, Note_on_c, 1, 61, 0
3, 3780, Note_on_c, 1, 65, 0
3, 3840, Note_on_c, 1, 57, 64
3, 3840, Note_on_c, 1, 60, 64
3, 3840, Note_on_c, 1, 65, 64
3, 5700, Note_on_c, 1, 65, 0
3, 5700, Note_on_c, 1, 60, 0
3, 5700, Note_on_c, 1, 57, 0
3, 5760, Note_on_c, 1, 67, 64
3, 5760, Note_on_c, 1, 63, 64
3, 5760, Note_on_c, 1, 58, 64
3, 7620, Note_on_c, 1, 58, 0
3, 7620, Note_on_c, 1, 63, 0
3, 7620, Note_on_c, 1, 67, 0
3, 7680, Note_on_c, 1, 57, 64
3, 7680, Note_on_c, 1, 60, 64
3, 7680, Note_on_c, 1, 63, 64
3, 7680, Note_on_c, 1, 65, 64
3, 9540, Note_on_c, 1, 65, 0
3, 9540, Note_on_c, 1, 57, 0
3, 9540, Note_on_c, 1, 60, 0
3, 9540, Note_on_c, 1, 63, 0
3, 9600, Note_on_c, 1, 62, 64
3, 9780, Note_on_c, 1, 62, 0
3, 9840, Note_on_c, 1, 62, 64
3, 10020, Note_on_c, 1, 62, 0
3, 10080, Note_on_c, 1, 65, 64
3, 10260, Note_on_c, 1, 65, 0
3, 10320, Note_on_c, 1, 66, 64
3, 10500, Note_on_c, 1, 66, 0
3, 10560, Note_on_c, 1, 69, 64
3, 10740, Note_on_c, 1, 69, 0
3, 10800, Note_on_c, 1, 69, 64
3, 10980, Note_on_c, 1, 69, 0
3, 11040, Note_on_c, 1, 71, 64
3, 11220, Note_on_c, 1, 71, 0
3, 11280, Note_on_c, 1, 69, 64
3, 11460, Note_on_c, 1, 69, 0
3, 11520, Note_on_c, 1, 57, 64
3, 11520, Note_on_c, 1, 60, 64
3, 11520, Note_on_c, 1, 63, 64
3, 11520, Note_on_c, 1, 65, 64
3, 13380, Note_on_c, 1, 65, 0
3, 13380, Note_on_c, 1, 57, 0
3, 13380, Note_on_c, 1, 60, 0
3, 13380, Note_on_c, 1, 63, 0
3, 13440, Note_on_c, 1, 62, 64
3, 13620, Note_on_c, 1, 62, 0
3, 13680, Note_on_c, 1, 62, 64
3, 13860, Note_on_c, 1, 62, 0
3, 13920, Note_on_c, 1, 65, 64
3, 14100, Note_on_c, 1, 65, 0
3, 14160, Note_on_c, 1, 66, 64
3, 14340, Note_on_c, 1, 66, 0
3, 14400, Note_on_c, 1, 69, 64
3, 14580, Note_on_c, 1, 69, 0
3, 14640, Note_on_c, 1, 69, 64
3, 14820, Note_on_c, 1, 69, 0
3, 14880, Note_on_c, 1, 71, 64
3, 15060, Note_on_c, 1, 71, 0
3, 15120, Note_on_c, 1, 69, 64
3, 15300, Note_on_c, 1, 69, 0
3, 15360, Note_on_c, 1, 57, 64
3, 15360, Note_on_c, 1, 60, 64
3, 15360, Note_on_c, 1, 63, 64
3, 15360, Note_on_c, 1, 65, 64
3, 17220, Note_on_c, 1, 65, 0
3, 17220, Note_on_c, 1, 57, 0
3, 17220, Note_on_c, 1, 60, 0
3, 17220, Note_on_c, 1, 63, 0
3, 17280, Note_on_c, 1, 55, 64
3, 17280, Note_on_c, 1, 60, 64
3, 17280, Note_on_c, 1, 64, 64
3, 18420, Note_on_c, 1, 64, 0
3, 18420, Note_on_c, 1, 60, 0
3, 18420, Note_on_c, 1, 55, 0
3, 18480, Note_on_c, 1, 67, 64
3, 18660, Note_on_c, 1, 67, 0
3, 18720, Note_on_c, 1, 76, 64
3, 18810, Note_on_c, 1, 76, 0
3, 18840, Note_on_c, 1, 74, 64
3, 18930, Note_on_c, 1, 74, 0
3, 18960, Note_on_c, 1, 72, 64
3, 19050, Note_on_c, 1, 72, 0
3, 19080, Note_on_c, 1, 67, 64
3, 19170, Note_on_c, 1, 67, 0
3, 19200, Note_on_c, 1, 67, 64
3, 19200, Note_on_c, 1, 71, 64
3, 19200, Note_on_c, 1, 76, 64
3, 20340, Note_on_c, 1, 76, 0
3, 20340, Note_on_c, 1, 71, 0
3, 20340, Note_on_c, 1, 67, 0
3, 20400, Note_on_c, 1, 64, 64
3, 21060, Note_on_c, 1, 64, 0
3, 21120, Note_on_c, 1, 60, 64
3, 21120, Note_on_c, 1, 69, 64
3, 21120, Note_on_c, 1, 72, 64
3, 21780, Note_on_c, 1, 72, 0
3, 21780, Note_on_c, 1, 69, 0
3, 21780, Note_on_c, 1, 60, 0
3, 21840, Note_on_c, 1, 72, 64
3, 21840, Note_on_c, 1, 69, 64
3, 21840, Note_on_c, 1, 60, 64
3, 22260, Note_on_c, 1, 60, 0
3, 22260, Note_on_c, 1, 69, 0
3, 22260, Note_on_c, 1, 72, 0
3, 22320, Note_on_c, 1, 60, 64
3, 22500, Note_on_c, 1, 60, 0
3, 22560, Note_on_c, 1, 65, 64
3, 22650, Note_on_c, 1, 65, 0
3, 22680, Note_on_c, 1, 69, 64
3, 22770, Note_on_c, 1, 69, 0
3, 22800, Note_on_c, 1, 72, 64
3, 22890, Note_on_c, 1, 72, 0
3, 22920, Note_on_c, 1, 69, 64
3, 23010, Note_on_c, 1, 69, 0
3, 23040, Note_on_c, 1, 62, 64
3, 23040, Note_on_c, 1, 67, 64
3, 23040, Note_on_c, 1, 71, 64
3, 23940, Note_on_c, 1, 71, 0
3, 23940, Note_on_c, 1, 67, 0
3, 23940, Note_on_c, 1, 62, 0
3, 24000, Note_on_c, 1, 60, 64
3, 24000, Note_on_c, 1, 65, 64
3, 24000, Note_on_c, 1, 69, 64
3, 24180, Note_on_c, 1, 69, 0
3, 24180, Note_on_c, 1, 65, 0
3, 24180, Note_on_c, 1, 60, 0
3, 24240, Note_on_c, 1, 60, 64
3, 24420, Note_on_c, 1, 60, 0
3, 24480, Note_on_c, 1, 65, 64
3, 24660, Note_on_c, 1, 65, 0
3, 24720, Note_on_c, 1, 69, 64
3, 24900, Note_on_c, 1, 69, 0
3, 24960, Note_on_c, 1, 60, 64
3, 24960, Note_on_c, 1, 64, 64
3, 24960, Note_on_c, 1, 67, 64
3, 25620, Note_on_c, 1, 67, 0
3, 25620, Note_on_c, 1, 64, 0
3, 25620, Note_on_c, 1, 60, 0
3, 25680, Note_on_c, 1, 64, 64
3, 25680, Note_on_c, 1, 76, 64
3, 26580, Note_on_c, 1, 76, 0
3, 26580, Note_on_c, 1, 64, 0
3, 26640, Note_on_c, 1, 72, 64
3, 26730, Note_on_c, 1, 72, 0
3, 26760, Note_on_c, 1, 74, 64
3, 26850, Note_on_c, 1, 74, 0
3, 26880, Note_on_c, 1, 76, 64
3, 27060, Note_on_c, 1, 76, 0
3, 27120, Note_on_c, 1, 71, 64
3, 27300, Note_on_c, 1, 71, 0
3, 27360, Note_on_c, 1, 67, 64
3, 27540, Note_on_c, 1, 67, 0
3, 27600, Note_on_c, 1, 64, 64
3, 27780, Note_on_c, 1, 64, 0
3, 27840, Note_on_c, 1, 71, 64
3, 28020, Note_on_c, 1, 71, 0
3, 28080, Note_on_c, 1, 64, 64
3, 28260, Note_on_c, 1, 64, 0
3, 28320, Note_on_c, 1, 67, 64
3, 28320, Note_on_c, 1, 71, 64
3, 28500, Note_on_c, 1, 71, 0
3, 28500, Note_on_c, 1, 67, 0
3, 28560, Note_on_c, 1, 67, 64
3, 28740, Note_on_c, 1, 67, 0
3, 28800, Note_on_c, 1, 60, 64
3, 28800, Note_on_c, 1, 65, 64
3, 28800, Note_on_c, 1, 69, 64
3, 29220, Note_on_c, 1, 69, 0
3, 29220, Note_on_c, 1, 65, 0
3, 29220, Note_on_c, 1, 60, 0
3, 29280, Note_on_c, 1, 60, 64
3, 29460, Note_on_c, 1, 60, 0
3, 29520, Note_on_c, 1, 60, 64
3, 29520, Note_on_c, 1, 65, 64
3, 29520, Note_on_c, 1, 69, 64
3, 29940, Note_on_c, 1, 69, 0
3, 29940, Note_on_c, 1, 65, 0
3, 29940, Note_on_c, 1, 60, 0
3, 30000, Note_on_c, 1, 60, 64
3, 30180, Note_on_c, 1, 60, 0
3, 30240, Note_on_c, 1, 65, 64
3, 30330, Note_on_c, 1, 65, 0
3, 30360, Note_on_c, 1, 67, 64
3, 30450, Note_on_c, 1, 67, 0
3, 30480, Note_on_c, 1, 69, 64
3, 30570, Note_on_c, 1, 69, 0
3, 30600, Note_on_c, 1, 65, 64
3, 30690, Note_on_c, 1, 65, 0
3, 30720, Note_on_c, 1, 59, 64
3, 30720, Note_on_c, 1, 62, 64
3, 30720, Note_on_c, 1, 67, 64
3, 31140, Note_on_c, 1, 67, 0
3, 31140, Note_on_c, 1, 62, 0
3, 31140, Note_on_c, 1, 59, 0
3, 31200, Note_on_c, 1, 67, 64
3, 31380, Note_on_c, 1, 67, 0
3, 31440, Note_on_c, 1, 69, 64
3, 31620, Note_on_c, 1, 69, 0
3, 31680, Note_on_c, 1, 71, 64
3, 31860, Note_on_c, 1, 71, 0
3, 31920, Note_on_c, 1, 67, 64
3, 32100, Note_on_c, 1, 67, 0
3, 32160, Note_on_c, 1, 69, 64
3, 32340, Note_on_c, 1, 69, 0
3, 32400, Note_on_c, 1, 67, 64
3, 32580, Note_on_c, 1, 67, 0
3, 32640, Note_on_c, 1, 60, 64
3, 32640, Note_on_c, 1, 64, 64
3, 32640, Note_on_c, 1, 67, 64
3, 32640, Note_on_c, 1, 71, 64
3, 33540, Note_on_c, 1, 71, 0
3, 33540, Note_on_c, 1, 60, 0
3, 33540, Note_on_c, 1, 64, 0
3, 33540, Note_on_c, 1, 67, 0
3, 33600, Note_on_c, 1, 62, 64
3, 33600, Note_on_c, 1, 65, 64
3, 33600, Note_on_c, 1, 69, 64
3, 33600, Note_on_c, 1, 72, 64
3, 34500, Note_on_c, 1, 72, 0
3, 34500, Note_on_c, 1, 62, 0
3, 34500, Note_on_c, 1, 65, 0
3, 34500, Note_on_c, 1, 69, 0
3, 34560, Note_on_c, 1, 64, 64
3, 34560, Note_on_c, 1, 67, 64
3, 34560, Note_on_c, 1, 71, 64
3, 34560, Note_on_c, 1, 74, 64
3, 35220, Note_on_c, 1, 74, 0
3, 35220, Note_on_c, 1, 64, 0
3, 35220, Note_on_c, 1, 67, 0
3, 35220, Note_on_c, 1, 71, 0
3, 35280, Note_on_c, 1, 74, 64
3, 35280, Note_on_c, 1, 71, 64
3, 35280, Note_on_c, 1, 67, 64
3, 35280, Note_on_c, 1, 64, 64
3, 35460, Note_on_c, 1, 64, 0
3, 35460, Note_on_c, 1, 74, 0
3, 35460, Note_on_c, 1, 71, 0
3, 35460, Note_on_c, 1, 67, 0
3, 35520, Note_on_c, 1, 63, 64
3, 35520, Note_on_c, 1, 66, 64
3, 35520, Note_on_c, 1, 70, 64
3, 35520, Note_on_c, 1, 73, 64
3, 36420, Note_on_c, 1, 73, 0
3, 36420, Note_on_c, 1, 63, 0
3, 36420, Note_on_c, 1, 66, 0
3, 36420, Note_on_c, 1, 70, 0
3, 36480, Note_on_c, 1, 62, 64
3, 36480, Note_on_c, 1, 65, 64
3, 36480, Note_on_c, 1, 69, 64
3, 36480, Note_on_c, 1, 72, 64
3, 37380, Note_on_c, 1, 72, 0
3, 37380, Note_on_c, 1, 62, 0
3, 37380, Note_on_c, 1, 65, 0
3, 37380, Note_on_c, 1, 69, 0
3, 37440, Note_on_c, 1, 69, 64
3, 37620, Note_on_c, 1, 69, 0
3, 37680, Note_on_c, 1, 76, 64
3, 37860, Note_on_c, 1, 76, 0
3, 37920, Note_on_c, 1, 72, 64
3, 38100, Note_on_c, 1, 72, 0
3, 38160, Note_on_c, 1, 69, 64
3, 38340, Note_on_c, 1, 69, 0
3, 38400, Note_on_c, 1, 62, 64
3, 38400, Note_on_c, 1, 71, 64
3, 38400, Note_on_c, 1, 74, 64
3, 39060, Note_on_c, 1, 74, 0
3, 39060, Note_on_c, 1, 71, 0
3, 39060, Note_on_c, 1, 62, 0
3, 39120, Note_on_c, 1, 59, 64
3, 39120, Note_on_c, 1, 62, 64
3, 39120, Note_on_c, 1, 67, 64
3, 39540, Note_on_c, 1, 67, 0
3, 39540, Note_on_c, 1, 62, 0
3, 39540, Note_on_c, 1, 59, 0
3, 39600, Note_on_c, 1, 62, 64
3, 39780, Note_on_c, 1, 62, 0
3, 39840, Note_on_c, 1, 65, 64
3, 40020, Note_on_c, 1, 65, 0
3, 40080, Note_on_c, 1, 67, 64
3, 40260, Note_on_c, 1, 67, 0
3, 40320, Note_on_c, 1, 60, 64
3, 40320, Note_on_c, 1, 64, 64
3, 40320, Note_on_c, 1, 67, 64
3, 40320, Note_on_c, 1, 71, 64
3, 40980, Note_on_c, 1, 71, 0
3, 40980, Note_on_c, 1, 60, 0
3, 40980, Note_on_c, 1, 64, 0
3, 40980, Note_on_c, 1, 67, 0
3, 41040, Note_on_c, 1, 67, 64
3, 41220, Note_on_c, 1, 67, 0
3, 41280, Note_on_c, 1, 62, 64
3, 41280, Note_on_c, 1, 65, 64
3, 41280, Note_on_c, 1, 69, 64
3, 41280, Note_on_c, 1, 72, 64
3, 41940, Note_on_c, 1, 72, 0
3, 41940, Note_on_c, 1, 62, 0
3, 41940, Note_on_c, 1, 65, 0
3, 41940, Note_on_c, 1, 69, 0
3, 42000, Note_on_c, 1, 65, 64
3, 42090, Note_on_c, 1, 65, 0
3, 42120, Note_on_c, 1, 67, 64
3, 42210, Note_on_c, 1, 67, 0
3, 42240, Note_on_c, 1, 64, 64
3, 42240, Note_on_c, 1, 67, 64
3, 42240, Note_on_c, 1, 71, 64
3, 42240, Note_on_c, 1, 74, 64
3, 42660, Note_on_c, 1, 74, 0
3, 42660, Note_on_c, 1, 64, 0
3, 42660, Note_on_c, 1, 67, 0
3, 42660, Note_on_c, 1, 71, 0
3, 42720, Note_on_c, 1, 62, 64
3, 42900, Note_on_c, 1, 62, 0
3, 42960, Note_on_c, 1, 67, 64
3, 43140, Note_on_c, 1, 67, 0
3, 43200, Note_on_c, 1, 58, 64
3, 43200, Note_on_c, 1, 61, 64
3, 43200, Note_on_c, 1, 66, 64
3, 43860, Note_on_c, 1, 66, 0
3, 43860, Note_on_c, 1, 61, 0
3, 43860, Note_on_c, 1, 58, 0
3, 43920, Note_on_c, 1, 58, 64
3, 43920, Note_on_c, 1, 61, 64
3, 43920, Note_on_c, 1, 66, 64
3, 44100, Note_on_c, 1, 66, 0
3, 44100, Note_on_c, 1, 61, 0
3, 44100, Note_on_c, 1, 58, 0
3, 44160, Note_on_c, 1, 72, 64
3, 44340, Note_on_c, 1, 72, 0
3, 44400, Note_on_c, 1, 65, 64
3, 44580, Note_on_c, 1, 65, 0
3, 44640, Note_on_c, 1, 62, 64
3, 44820, Note_on_c, 1, 62, 0
3, 44880, Note_on_c, 1, 65, 64
3, 45060, Note_on_c, 1, 65, 0
3, 45120, Note_on_c, 1, 69, 64
3, 45300, Note_on_c, 1, 69, 0
3, 45360, Note_on_c, 1, 65, 64
3, 45540, Note_on_c, 1, 65, 0
3, 45600, Note_on_c, 1, 62, 64
3, 45780, Note_on_c, 1, 62, 0
3, 45840, Note_on_c, 1, 62, 64
3, 46020, Note_on_c, 1, 62, 0
3, 46080, Note_on_c, 1, 55, 64
3, 46170, Note_on_c, 1, 55, 0
3, 46200, Note_on_c, 1, 57, 40
3, 46290, Note_on_c, 1, 57, 0
3, 46320, Note_on_c, 1, 59, 43
3, 46410, Note_on_c, 1, 59, 0
3, 46440, Note_on_c, 1, 60, 45
3, 46530, Note_on_c, 1, 60, 0
3, 46560, Note_on_c, 1, 62, 48
3, 46650, Note_on_c, 1, 62, 0
3, 46680, Note_on_c, 1, 64, 50
3, 46770, Note_on_c, 1, 64, 0
3, 46800, Note_on_c, 1, 65, 53
3, 46890, Note_on_c, 1, 65, 0
3, 46920, Note_on_c, 1, 67, 55
3, 47010, Note_on_c, 1, 67, 0
3, 47040, Note_on_c, 1, 65, 58
3, 47130, Note_on_c, 1, 65, 0
3, 47160, Note_on_c, 1, 67, 60
3, 47250, Note_on_c, 1, 67, 0
3, 47280, Note_on_c, 1, 69, 63
3, 47370, Note_on_c, 1, 69, 0
3, 47400, Note_on_c, 1, 71, 65
3, 47490, Note_on_c, 1, 71, 0
3, 47520, Note_on_c, 1, 69, 68
3, 47610, Note_on_c, 1, 69, 0
3, 47640, Note_on_c, 1, 71, 70
3, 47730, Note_on_c, 1, 71, 0
3, 47760, Note_on_c, 1, 72, 73
3, 47850, Note_on_c, 1, 72, 0
3, 47880, Note_on_c, 1, 74, 75
3, 47970, Note_on_c, 1, 74, 0
3, 47970, Control_c, 1, 7, 105
3, 48000, Note_on_c, 1, 76, 77
3, 48180, Note_on_c, 1, 76, 0
3, 48240, Note_on_c, 1, 55, 64
3, 48240, Note_on_c, 1, 60, 64
3, 48240, Note_on_c, 1, 64, 64
3, 48420, Note_on_c, 1, 64, 0
3, 48420, Note_on_c, 1, 60, 0
3, 48420, Note_on_c, 1, 55, 0
3, 48480, Note_on_c, 1, 64, 64
3, 48480, Note_on_c, 1, 60, 64
3, 48480, Note_on_c, 1, 55, 64
3, 48660, Note_on_c, 1, 55, 0
3, 48660, Note_on_c, 1, 60, 0
3, 48660, Note_on_c, 1, 64, 0
3, 48720, Note_on_c, 1, 55, 64
3, 48720, Note_on_c, 1, 60, 64
3, 48720, Note_on_c, 1, 64, 64
3, 48900, Note_on_c, 1, 64, 0
3, 48900, Note_on_c, 1, 60, 0
3, 48900, Note_on_c, 1, 55, 0
3, 48960, Note_on_c, 1, 64, 64
3, 48960, Note_on_c, 1, 60, 64
3, 48960, Note_on_c, 1, 55, 64
3, 49140, Note_on_c, 1, 55, 0
3, 49140, Note_on_c, 1, 60, 0
3, 49140, Note_on_c, 1, 64, 0
3, 49200, Note_on_c, 1, 55, 64
3, 49200, Note_on_c, 1, 60, 64
3, 49200, Note_on_c, 1, 64, 64
3, 49380, Note_on_c, 1, 64, 0
3, 49380, Note_on_c, 1, 60, 0
3, 49380, Note_on_c, 1, 55, 0
3, 49440, Note_on_c, 1, 64, 64
3, 49440, Note_on_c, 1, 60, 64
3, 49440, Note_on_c, 1, 55, 64
3, 49620, Note_on_c, 1, 55, 0
3, 49620, Note_on_c, 1, 60, 0
3, 49620, Note_on_c, 1, 64, 0
3, 49680, Note_on_c, 1, 55, 64
3, 49680, Note_on_c, 1, 60, 64
3, 49680, Note_on_c, 1, 64, 64
3, 49860, Note_on_c, 1, 64, 0
3, 49860, Note_on_c, 1, 60, 0
3, 49860, Note_on_c, 1, 55, 0
3, 49920, Note_on_c, 1, 64, 64
3, 49920, Note_on_c, 1, 60, 64
3, 49920, Note_on_c, 1, 55, 64
3, 50100, Note_on_c, 1, 55, 0
3, 50100, Note_on_c, 1, 60, 0
3, 50100, Note_on_c, 1, 64, 0
3, 50160, Note_on_c, 1, 55, 64
3, 50160, Note_on_c, 1, 60, 64
3, 50160, Note_on_c, 1, 64, 64
3, 50340, Note_on_c, 1, 64, 0
3, 50340, Note_on_c, 1, 60, 0
3, 50340, Note_on_c, 1, 55, 0
3, 50400, Note_on_c, 1, 64, 64
3, 50400, Note_on_c, 1, 60, 64
3, 50400, Note_on_c, 1, 55, 64
3, 50580, Note_on_c, 1, 55, 0
3, 50580, Note_on_c, 1, 60, 0
3, 50580, Note_on_c, 1, 64, 0
3, 50640, Note_on_c, 1, 55, 64
3, 50640, Note_on_c, 1, 60, 64
3, 50640, Note_on_c, 1, 64, 64
3, 50820, Note_on_c, 1, 64, 0
3, 50820, Note_on_c, 1, 60, 0
3, 50820, Note_on_c, 1, 55, 0
3, 50880, Note_on_c, 1, 64, 64
3, 50880, Note_on_c, 1, 60, 64
3, 50880, Note_on_c, 1, 55, 64
3, 51060, Note_on_c, 1, 55, 0
3, 51060, Note_on_c, 1, 60, 0
3, 51060, Note_on_c, 1, 64, 0
3, 51120, Note_on_c, 1, 55, 64
3, 51120, Note_on_c, 1, 60, 64
3, 51120, Note_on_c, 1, 64, 64
3, 51300, Note_on_c, 1, 64, 0
3, 51300, Note_on_c, 1, 60, 0
3, 51300, Note_on_c, 1, 55, 0
3, 51360, Note_on_c, 1, 64, 64
3, 51360, Note_on_c, 1, 60, 64
3, 51360, Note_on_c, 1, 55, 64
3, 51540, Note_on_c, 1, 55, 0
3, 51540, Note_on_c, 1, 60, 0
3, 51540, Note_on_c, 1, 64, 0
3, 51600, Note_on_c, 1, 55, 64
3, 51600, Note_on_c, 1, 60, 64
3, 51600, Note_on_c, 1, 64, 64
3, 51780, Note_on_c, 1, 64, 0
3, 51780, Note_on_c, 1, 60, 0
3, 51780, Note_on_c, 1, 55, 0
3, 51840, Note_on_c, 1, 65, 64
3, 51840, Note_on_c, 1, 60, 64
3, 51840, Note_on_c, 1, 57, 64
3, 52020, Note_on_c, 1, 57, 0
3, 52020, Note_on_c, 1, 60, 0
3, 52020, Note_on_c, 1, 65, 0
3, 52080, Note_on_c, 1, 57, 64
3, 52080, Note_on_c, 1, 60, 64
3, 52080, Note_on_c, 1, 65, 64
3, 52260, Note_on_c, 1, 65, 0
3, 52260, Note_on_c, 1, 60, 0
3, 52260, Note_on_c, 1, 57, 0
3, 52320, Note_on_c, 1, 65, 64
3, 52320, Note_on_c, 1, 60, 64
3, 52320, Note_on_c, 1, 57, 64
3, 52500, Note_on_c, 1, 57, 0
3, 52500, Note_on_c, 1, 60, 0
3, 52500, Note_on_c, 1, 65, 0
3, 52560, Note_on_c, 1, 57, 64
3, 52560, Note_on_c, 1, 60, 64
3, 52560, Note_on_c, 1, 65, 64
3, 52740, Note_on_c, 1, 65, 0
3, 52740, Note_on_c, 1, 60, 0
3, 52740, Note_on_c, 1, 57, 0
3, 52800, Note_on_c, 1, 65, 64
3, 52800, Note_on_c, 1, 60, 64
3, 52800, Note_on_c, 1, 57, 64
3, 52980, Note_on_c, 1, 57, 0
3, 52980, Note_on_c, 1, 60, 0
3, 52980, Note_on_c, 1, 65, 0
3, 53040, Note_on_c, 1, 57, 64
3, 53040, Note_on_c, 1, 60, 64
3, 53040, Note_on_c, 1, 65, 64
3, 53220, Note_on_c, 1, 65, 0
3, 53220, Note_on_c, 1, 60, 0
3, 53220, Note_on_c, 1, 57, 0
3, 53280, Note_on_c, 1, 65, 64
3, 53280, Note_on_c, 1, 60, 64
3, 53280, Note_on_c, 1, 57, 64
3, 53460, Note_on_c, 1, 57, 0
3, 53460, Note_on_c, 1, 60, 0
3, 53460, Note_on_c, 1, 65, 0
3, 53520, Note_on_c, 1, 57, 64
3, 53520, Note_on_c, 1, 60, 64
3, 53520, Note_on_c, 1, 65, 64
3, 53700, Note_on_c, 1, 65, 0
3, 53700, Note_on_c, 1, 60, 0
3, 53700, Note_on_c, 1, 57, 0
3, 53760, Note_on_c, 1, 57, 64
3, 53760, Note_on_c, 1, 62, 64
3, 53760, Note_on_c, 1, 66, 64
3, 53940, Note_on_c, 1, 66, 0
3, 53940, Note_on_c, 1, 62, 0
3, 53940, Note_on_c, 1, 57, 0
3, 54000, Note_on_c, 1, 66, 64
3, 54000, Note_on_c, 1, 62, 64
3, 54000, Note_on_c, 1, 57, 64
3, 54180, Note_on_c, 1, 57, 0
3, 54180, Note_on_c, 1, 62, 0
3, 54180, Note_on_c, 1, 66, 0
3, 54240, Note_on_c, 1, 57, 64
3, 54240, Note_on_c, 1, 62, 64
3, 54240, Note_on_c, 1, 66, 64
3, 54420, Note_on_c, 1, 66, 0
3, 54420, Note_on_c, 1, 62, 0
3, 54420, Note_on_c, 1, 57, 0
3, 54480, Note_on_c, 1, 66, 64
3, 54480, Note_on_c, 1, 62, 64
3, 54480, Note_on_c, 1, 57, 64
3, 54660, Note_on_c, 1, 57, 0
3, 54660, Note_on_c, 1, 62, 0
3, 54660, Note_on_c, 1, 66, 0
3, 54720, Note_on_c, 1, 59, 64
3, 54720, Note_on_c, 1, 62, 64
3, 54720, Note_on_c, 1, 67, 64
3, 54900, Note_on_c, 1, 67, 0
3, 54900, Note_on_c, 1, 62, 0
3, 54900, Note_on_c, 1, 59, 0
3, 54960, Note_on_c, 1, 67, 64
3, 54960, Note_on_c, 1, 62, 64
3, 54960, Note_on_c, 1, 59, 64
3, 55140, Note_on_c, 1, 59, 0
3, 55140, Note_on_c, 1, 62, 0
3, 55140, Note_on_c, 1, 67, 0
3, 55200, Note_on_c, 1, 59, 64
3, 55200, Note_on_c, 1, 62, 64
3, 55200, Note_on_c, 1, 67, 64
3, 55380, Note_on_c, 1, 67, 0
3, 55380, Note_on_c, 1, 62, 0
3, 55380, Note_on_c, 1, 59, 0
3, 55440, Note_on_c, 1, 67, 64
3, 55440, Note_on_c, 1, 62, 64
3, 55440, Note_on_c, 1, 59, 64
3, 55620, Note_on_c, 1, 59, 0
3, 55620, Note_on_c, 1, 62, 0
3, 55620, Note_on_c, 1, 67, 0
3, 55680, Note_on_c, 1, 57, 64
3, 55680, Note_on_c, 1, 60, 64
3, 55680, Note_on_c, 1, 65, 64
3, 55860, Note_on_c, 1, 65, 0
3, 55860, Note_on_c, 1, 60, 0
3, 55860, Note_on_c, 1, 57, 0
3, 55920, Note_on_c, 1, 65, 64
3, 55920, Note_on_c, 1, 60, 64
3, 55920, Note_on_c, 1, 57, 64
3, 56100, Note_on_c, 1, 57, 0
3, 56100, Note_on_c, 1, 60, 0
3, 56100, Note_on_c, 1, 65, 0
3, 56160, Note_on_c, 1, 57, 64
3, 56160, Note_on_c, 1, 60, 64
3, 56160, Note_on_c, 1, 65, 64
3, 56340, Note_on_c, 1, 65, 0
3, 56340, Note_on_c, 1, 60, 0
3, 56340, Note_on_c, 1, 57, 0
3, 56400, Note_on_c, 1, 65, 64
3, 56400, Note_on_c, 1, 60, 64
3, 56400, Note_on_c, 1, 57, 64
3, 56580, Note_on_c, 1, 57, 0
3, 56580, Note_on_c, 1, 60, 0
3, 56580, Note_on_c, 1, 65, 0
3, 56640, Note_on_c, 1, 55, 64
3, 56640, Note_on_c, 1, 60, 64
3, 56640, Note_on_c, 1, 64, 64
3, 56820, Note_on_c, 1, 64, 0
3, 56820, Note_on_c, 1, 60, 0
3, 56820, Note_on_c, 1, 55, 0
3, 56880, Note_on_c, 1, 64, 64
3, 56880, Note_on_c, 1, 60, 64
3, 56880, Note_on_c, 1, 55, 64
3, 57060, Note_on_c, 1, 55, 0
3, 57060, Note_on_c, 1, 60, 0
3, 57060, Note_on_c, 1, 64, 0
3, 57120, Note_on_c, 1, 55, 64
3, 57120, Note_on_c, 1, 60, 64
3, 57120, Note_on_c, 1, 64, 64
3, 57300, Note_on_c, 1, 64, 0
3, 57300, Note_on_c, 1, 60, 0
3, 57300, Note_on_c, 1, 55, 0
3, 57360, Note_on_c, 1, 64, 64
3, 57360, Note_on_c, 1, 60, 64
3, 57360, Note_on_c, 1, 55, 64
3, 57540, Note_on_c, 1, 55, 0
3, 57540, Note_on_c, 1, 60, 0
3, 57540, Note_on_c, 1, 64, 0
3, 57600, Note_on_c, 1, 55, 64
3, 57600, Note_on_c, 1, 60, 64
3, 57600, Note_on_c, 1, 64, 64
3, 57780, Note_on_c, 1, 64, 0
3, 57780, Note_on_c, 1, 60, 0
3, 57780, Note_on_c, 1, 55, 0
3, 57840, Note_on_c, 1, 64, 64
3, 57840, Note_on_c, 1, 60, 64
3, 57840, Note_on_c, 1, 55, 64
3, 58020, Note_on_c, 1, 55, 0
3, 58020, Note_on_c, 1, 60, 0
3, 58020, Note_on_c, 1, 64, 0
3, 58080, Note_on_c, 1, 55, 64
3, 58080, Note_on_c, 1, 60, 64
3, 58080, Note_on_c, 1, 64, 64
3, 58260, Note_on_c, 1, 64, 0
3, 58260, Note_on_c, 1, 60, 0
3, 58260, Note_on_c, 1, 55, 0
3, 58320, Note_on_c, 1, 64, 64
3, 58320, Note_on_c, 1, 60, 64
3, 58320, Note_on_c, 1, 55, 64
3, 58500, Note_on_c, 1, 55, 0
3, 58500, Note_on_c, 1, 60, 0
3, 58500, Note_on_c, 1, 64, 0
3, 58560, Note_on_c, 1, 55, 64
3, 58560, Note_on_c, 1, 60, 64
3, 58560, Note_on_c, 1, 64, 64
3, 58740, Note_on_c, 1, 64, 0
3, 58740, Note_on_c, 1, 60, 0
3, 58740, Note_on_c, 1, 55, 0
3, 58800, Note_on_c, 1, 64, 64
3, 58800, Note_on_c, 1, 60, 64
3, 58800, Note_on_c, 1, 55, 64
3, 58980, Note_on_c, 1, 55, 0
3, 58980, Note_on_c, 1, 60, 0
3, 58980, Note_on_c, 1, 64, 0
3, 59040, Note_on_c, 1, 55, 64
3, 59040, Note_on_c, 1, 60, 64
3, 59040, Note_on_c, 1, 64, 64
3, 59220, Note_on_c, 1, 64, 0
3, 59220, Note_on_c, 1, 60, 0
3, 59220, Note_on_c, 1, 55, 0
3, 59280, Note_on_c, 1, 64, 64
3, 59280, Note_on_c, 1, 60, 64
3, 59280, Note_on_c, 1, 55, 64
3, 59460, Note_on_c, 1, 55, 0
3, 59460, Note_on_c, 1, 60, 0
3, 59460, Note_on_c, 1, 64, 0
3, 59520, Note_on_c, 1, 55, 64
3, 59520, Note_on_c, 1, 60, 64
3, 59520, Note_on_c, 1, 64, 64
3, 59700, Note_on_c, 1, 64, 0
3, 59700, Note_on_c, 1, 60, 0
3, 59700, Note_on_c, 1, 55, 0
3, 59760, Note_on_c, 1, 64, 64
3, 59760, Note_on_c, 1, 60, 64
3, 59760, Note_on_c, 1, 55, 64
3, 59940, Note_on_c, 1, 55, 0
3, 59940, Note_on_c, 1, 60, 0
3, 59940, Note_on_c, 1, 64, 0
3, 60000, Note_on_c, 1, 55, 64
3, 60000, Note_on_c, 1, 60, 64
3, 60000, Note_on_c, 1, 64, 64
3, 60180, Note_on_c, 1, 64, 0
3, 60180, Note_on_c, 1, 60, 0
3, 60180, Note_on_c, 1, 55, 0
3, 60240, Note_on_c, 1, 64, 64
3, 60240, Note_on_c, 1, 60, 64
3, 60240, Note_on_c, 1, 55, 64
3, 60420, Note_on_c, 1, 55, 0
3, 60420, Note_on_c, 1, 60, 0
3, 60420, Note_on_c, 1, 64, 0
3, 60480, Note_on_c, 1, 57, 64
3, 60480, Note_on_c, 1, 60, 64
3, 60480, Note_on_c, 1, 65, 64
3, 60660, Note_on_c, 1, 65, 0
3, 60660, Note_on_c, 1, 60, 0
3, 60660, Note_on_c, 1, 57, 0
3, 60720, Note_on_c, 1, 65, 64
3, 60720, Note_on_c, 1, 60, 64
3, 60720, Note_on_c, 1, 57, 64
3, 60900, Note_on_c, 1, 57, 0
3, 60900, Note_on_c, 1, 60, 0
3, 60900, Note_on_c, 1, 65, 0
3, 60960, Note_on_c, 1, 57, 64
3, 60960, Note_on_c, 1, 60, 64
3, 60960, Note_on_c, 1, 65, 64
3, 61140, Note_on_c, 1, 65, 0
3, 61140, Note_on_c, 1, 60, 0
3, 61140, Note_on_c, 1, 57, 0
3, 61200, Note_on_c, 1, 65, 64
3, 61200, Note_on_c, 1, 60, 64
3, 61200, Note_on_c, 1, 57, 64
3, 61380, Note_on_c, 1, 57, 0
3, 61380, Note_on_c, 1, 60, 0
3, 61380, Note_on_c, 1, 65, 0
3, 61440, Note_on_c, 1, 57, 64
3, 61440, Note_on_c, 1, 60, 64
3, 61440, Note_on_c, 1, 65, 64
3, 61620, Note_on_c, 1, 65, 0
3, 61620, Note_on_c, 1, 60, 0
3, 61620, Note_on_c, 1, 57, 0
3, 61680, Note_on_c, 1, 65, 64
3, 61680, Note_on_c, 1, 60, 64
3, 61680, Note_on_c, 1, 57, 64
3, 61860, Note_on_c, 1, 57, 0
3, 61860, Note_on_c, 1, 60, 0
3, 61860, Note_on_c, 1, 65, 0
3, 61920, Note_on_c, 1, 57, 64
3, 61920, Note_on_c, 1, 60, 64
3, 61920, Note_on_c, 1, 65, 64
3, 62100, Note_on_c, 1, 65, 0
3, 62100, Note_on_c, 1, 60, 0
3, 62100, Note_on_c, 1, 57, 0
3, 62160, Note_on_c, 1, 65, 64
3, 62160, Note_on_c, 1, 60, 64
3, 62160, Note_on_c, 1, 57, 64
3, 62340, Note_on_c, 1, 57, 0
3, 62340, Note_on_c, 1, 60, 0
3, 62340, Note_on_c, 1, 65, 0
3, 62400, Note_on_c, 1, 57, 64
3, 62400, Note_on_c, 1, 62, 64
3, 62400, Note_on_c, 1, 66, 64
3, 62580, Note_on_c, 1, 66, 0
3, 62580, Note_on_c, 1, 62, 0
3, 62580, Note_on_c, 1, 57, 0
3, 62640, Note_on_c, 1, 66, 64
3, 62640, Note_on_c, 1, 62, 64
3, 62640, Note_on_c, 1, 57, 64
3, 62820, Note_on_c, 1, 57, 0
3, 62820, Note_on_c, 1, 62, 0
3, 62820, Note_on_c, 1, 66, 0
3, 62880, Note_on_c, 1, 57, 64
3, 62880, Note_on_c, 1, 62, 64
3, 62880, Note_on_c, 1, 66, 64
3, 63060, Note_on_c, 1, 66, 0
3, 63060, Note_on_c, 1, 62, 0
3, 63060, Note_on_c, 1, 57, 0
3, 63120, Note_on_c, 1, 66, 64
3, 63120, Note_on_c, 1, 62, 64
3, 63120, Note_on_c, 1, 57, 64
3, 63300, Note_on_c, 1, 57, 0
3, 63300, Note_on_c, 1, 62, 0
3, 63300, Note_on_c, 1, 66, 0
3, 63360, Note_on_c, 1, 60, 64
3, 63360, Note_on_c, 1, 64, 64
3, 63360, Note_on_c, 1, 69, 64
3, 63780, Note_on_c, 1, 69, 0
3, 63780, Note_on_c, 1, 64, 0
3, 63780, Note_on_c, 1, 60, 0
3, 63840, Note_on_c, 1, 59, 64
3, 63840, Note_on_c, 1, 62, 64
3, 63840, Note_on_c, 1, 67, 64
3, 64260, Note_on_c, 1, 67, 0
3, 64260, Note_on_c, 1, 62, 0
3, 64260, Note_on_c, 1, 59, 0
3, 64320, Note_on_c, 1, 62, 64
3, 64320, Note_on_c, 1, 65, 64
3, 64320, Note_on_c, 1, 70, 64
3, 64740, Note_on_c, 1, 70, 0
3, 64740, Note_on_c, 1, 65, 0
3, 64740, Note_on_c, 1, 62, 0
3, 64800, Note_on_c, 1, 57, 64
3, 64800, Note_on_c, 1, 60, 64
3, 64800, Note_on_c, 1, 65, 64
3, 66180, Note_on_c, 1, 65, 0
3, 66180, Note_on_c, 1, 60, 0
3, 66180, Note_on_c, 1, 57, 0
3, 66240, Note_on_c, 1, 68, 64
3, 66240, Note_on_c, 1, 72, 64
3, 66240, Note_on_c, 1, 76, 64
3, 66660, Note_on_c, 1, 76, 0
3, 66660, Note_on_c, 1, 72, 0
3, 66660, Note_on_c, 1, 68, 0
3, 66720, Note_on_c, 1, 66, 64
3, 66720, Note_on_c, 1, 71, 64
3, 66720, Note_on_c, 1, 74, 64
3, 67140, Note_on_c, 1, 74, 0
3, 67140, Note_on_c, 1, 71, 0
3, 67140, Note_on_c, 1, 66, 0
3, 67200, Note_on_c, 1, 65, 64
3, 67200, Note_on_c, 1, 69, 64
3, 67200, Note_on_c, 1, 74, 64
3, 67620, Note_on_c, 1, 74, 0
3, 67620, Note_on_c, 1, 69, 0
3, 67620, Note_on_c, 1, 65, 0
3, 67680, Note_on_c, 1, 64, 64
3, 67680, Note_on_c, 1, 67, 64
3, 67680, Note_on_c, 1, 72, 64
3, 69060, Note_on_c, 1, 72, 0
3, 69060, Note_on_c, 1, 67, 0
3, 69060, Note_on_c, 1, 64, 0
3, 71020, Control_c, 1, 7, 90
3, 71040, Note_on_c, 1, 62, 64
3, 71220, Note_on_c, 1, 62, 0
3, 71280, Note_on_c, 1, 62, 64
3, 71460, Note_on_c, 1, 62, 0
3, 71520, Note_on_c, 1, 65, 64
3, 71700, Note_on_c, 1, 65, 0
3, 71760, Note_on_c, 1, 66, 64
3, 71940, Note_on_c, 1, 66, 0
3, 72000, Note_on_c, 1, 69, 64
3, 72180, Note_on_c, 1, 69, 0
3, 72240, Note_on_c, 1, 69, 64
3, 72420, Note_on_c, 1, 69, 0
3, 72480, Note_on_c, 1, 71, 64
3, 72660, Note_on_c, 1, 71, 0
3, 72720, Note_on_c, 1, 69, 64
3, 72900, Note_on_c, 1, 69, 0
3, 72960, Note_on_c, 1, 57, 45
3, 72960, Note_on_c, 1, 60, 45
3, 72960, Note_on_c, 1, 64, 45
3, 72960, Note_on_c, 1, 65, 45
3, 73140, Note_on_c, 1, 65, 0
3, 73140, Note_on_c, 1, 57, 0
3, 73140, Note_on_c, 1, 60, 0
3, 73140, Note_on_c, 1, 64, 0
3, 73200, Note_on_c, 1, 65, 50
3, 73200, Note_on_c, 1, 64, 50
3, 73200, Note_on_c, 1, 60, 50
3, 73200, Note_on_c, 1, 57, 50
3, 73380, Note_on_c, 1, 57, 0
3, 73380, Note_on_c, 1, 65, 0
3, 73380, Note_on_c, 1, 64, 0
3, 73380, Note_on_c, 1, 60, 0
3, 73440, Note_on_c, 1, 57, 55
3, 73440, Note_on_c, 1, 60, 55
3, 73440, Note_on_c, 1, 64, 55
3, 73440, Note_on_c, 1, 65, 55
3, 73620, Note_on_c, 1, 65, 0
3, 73620, Note_on_c, 1, 57, 0
3, 73620, Note_on_c, 1, 60, 0
3, 73620, Note_on_c, 1, 64, 0
3, 73680, Note_on_c, 1, 65, 60
3, 73680, Note_on_c, 1, 64, 60
3, 73680, Note_on_c, 1, 60, 60
3, 73680, Note_on_c, 1, 57, 60
3, 73860, Note_on_c, 1, 57, 0
3, 73860, Note_on_c, 1, 65, 0
3, 73860, Note_on_c, 1, 64, 0
3, 73860, Note_on_c, 1, 60, 0
3, 73920, Note_on_c, 1, 57, 65
3, 73920, Note_on_c, 1, 60, 65
3, 73920, Note_on_c, 1, 64, 65
3, 73920, Note_on_c, 1, 65, 65
3, 74100, Note_on_c, 1, 65, 0
3, 74100, Note_on_c, 1, 57, 0
3, 74100, Note_on_c, 1, 60, 0
3, 74100, Note_on_c, 1, 64, 0
3, 74160, Note_on_c, 1, 65, 70
3, 74160, Note_on_c, 1, 64, 70
3, 74160, Note_on_c, 1, 60, 70
3, 74160, Note_on_c, 1, 57, 70
3, 74340, Note_on_c, 1, 57, 0
3, 74340, Note_on_c, 1, 65, 0
3, 74340, Note_on_c, 1, 64, 0
3, 74340, Note_on_c, 1, 60, 0
3, 74400, Note_on_c, 1, 57, 75
3, 74400, Note_on_c, 1, 60, 75
3, 74400, Note_on_c, 1, 64, 75
3, 74400, Note_on_c, 1, 65, 75
3, 74580, Note_on_c, 1, 65, 0
3, 74580, Note_on_c, 1, 57, 0
3, 74580, Note_on_c, 1, 60, 0
3, 74580, Note_on_c, 1, 64, 0
3, 74640, Note_on_c, 1, 65, 80
3, 74640, Note_on_c, 1, 64, 80
3, 74640, Note_on_c, 1, 60, 80
3, 74640, Note_on_c, 1, 57, 80
3, 74820, Note_on_c, 1, 57, 0
3, 74820, Note_on_c, 1, 65, 0
3, 74820, Note_on_c, 1, 64, 0
3, 74820, Note_on_c, 1, 60, 0
3, 74880, Note_on_c, 1, 62, 64
3, 75060, Note_on_c, 1, 62, 0
3, 75120, Note_on_c, 1, 62, 64
3, 75300, Note_on_c, 1, 62, 0
3, 75360, Note_on_c, 1, 65, 64
3, 75540, Note_on_c, 1, 65, 0
3, 75600, Note_on_c, 1, 66, 64
3, 75780, Note_on_c, 1, 66, 0
3, 75840, Note_on_c, 1, 69, 64
3, 76020, Note_on_c, 1, 69, 0
3, 76080, Note_on_c, 1, 69, 64
3, 76260, Note_on_c, 1, 69, 0
3, 76320, Note_on_c, 1, 71, 64
3, 76500, Note_on_c, 1, 71, 0
3, 76560, Note_on_c, 1, 69, 64
3, 76740, Note_on_c, 1, 69, 0
3, 76800, Note_on_c, 1, 57, 45
3, 76800, Note_on_c, 1, 60, 45
3, 76800, Note_on_c, 1, 64, 45
3, 76800, Note_on_c, 1, 65, 45
3, 76980, Note_on_c, 1, 65, 0
3, 76980, Note_on_c, 1, 57, 0
3, 76980, Note_on_c, 1, 60, 0
3, 76980, Note_on_c, 1, 64, 0
3, 77040, Note_on_c, 1, 65, 50
3, 77040, Note_on_c, 1, 64, 50
3, 77040, Note_on_c, 1, 60, 50
3, 77040, Note_on_c, 1, 57, 50
3, 77220, Note_on_c, 1, 57, 0
3, 77220, Note_on_c, 1, 65, 0
3, 77220, Note_on_c, 1, 64, 0
3, 77220, Note_on_c, 1, 60, 0
3, 77280, Note_on_c, 1, 57, 55
3, 77280, Note_on_c, 1, 60, 55
3, 77280, Note_on_c, 1, 64, 55
3, 77280, Note_on_c, 1, 65, 55
3, 77460, Note_on_c, 1, 65, 0
3, 77460, Note_on_c, 1, 57, 0
3, 77460, Note_on_c, 1, 60, 0
3, 77460, Note_on_c, 1, 64, 0
3, 77520, Note_on_c, 1, 65, 60
3, 77520, Note_on_c, 1, 64, 60
3, 77520, Note_on_c, 1, 60, 60
3, 77520, Note_on_c, 1, 57, 60
3, 77700, Note_on_c, 1, 57, 0
3, 77700, Note_on_c, 1, 65, 0
3, 77700, Note_on_c, 1, 64, 0
3, 77700, Note_on_c, 1, 60, 0
3, 77760, Note_on_c, 1, 57, 65
3, 77760, Note_on_c, 1, 60, 65
3, 77760, Note_on_c, 1, 64, 65
3, 77760, Note_on_c, 1, 65, 65
3, 77940, Note_on_c, 1, 65, 0
3, 77940, Note_on_c, 1, 57, 0
3, 77940, Note_on_c, 1, 60, 0
3, 77940, Note_on_c, 1, 64, 0
3, 78000, Note_on_c, 1, 65, 70
3, 78000, Note_on_c, 1, 64, 70
3, 78000, Note_on_c, 1, 60, 70
3, 78000, Note_on_c, 1, 57, 70
3, 78180, Note_on_c, 1, 57, 0
3, 78180, Note_on_c, 1, 65, 0
3, 78180, Note_on_c, 1, 64, 0
3, 78180, Note_on_c, 1, 60, 0
3, 78240, Note_on_c, 1, 57, 75
3, 78240, Note_on_c, 1, 60, 75
3, 78240, Note_on_c, 1, 64, 75
3, 78240, Note_on_c, 1, 65, 75
3, 78420, Note_on_c, 1, 65, 0
3, 78420, Note_on_c, 1, 57, 0
3, 78420, Note_on_c, 1, 60, 0
3, 78420, Note_on_c, 1, 64, 0
3, 78440, Control_c, 1, 7, 92
3, 78480, Note_on_c, 1, 65, 80
3, 78480, Note_on_c, 1, 64, 80
3, 78480, Note_on_c, 1, 60, 80
3, 78480, Note_on_c, 1, 57, 80
3, 78660, Note_on_c, 1, 57, 0
3, 78660, Note_on_c, 1, 65, 0
3, 78660, Note_on_c, 1, 64, 0
3, 78660, Note_on_c, 1, 60, 0
3, 78720, Note_on_c, 1, 55, 64
3, 78720, Note_on_c, 1, 60, 64
3, 78720, Note_on_c, 1, 64, 64
3, 78727, Control_c, 1, 7, 91
3, 78747, Control_c, 1, 7, 90
3, 78767, Control_c, 1, 7, 89
3, 78807, Control_c, 1, 7, 88
3, 78987, Control_c, 1, 7, 87
3, 79620, Note_on_c, 1, 64, 0
3, 79620, Note_on_c, 1, 60, 0
3, 79620, Note_on_c, 1, 55, 0
3, 79680, Note_on_c, 1, 60, 64
3, 79860, Note_on_c, 1, 60, 0
3, 79920, Note_on_c, 1, 64, 64
3, 80100, Note_on_c, 1, 64, 0
3, 80160, Note_on_c, 1, 67, 64
3, 80340, Note_on_c, 1, 67, 0
3, 80400, Note_on_c, 1, 72, 64
3, 80580, Note_on_c, 1, 72, 0
3, 80640, Note_on_c, 1, 76, 64
3, 80640, Note_on_c, 1, 67, 64
3, 80640, Note_on_c, 1, 71, 64
3, 80920, Control_c, 1, 7, 89
3, 81540, Note_on_c, 1, 71, 0
3, 81540, Note_on_c, 1, 67, 0
3, 81540, Note_on_c, 1, 76, 0
3, 81600, Note_on_c, 1, 67, 64
3, 81600, Note_on_c, 1, 71, 64
3, 81600, Note_on_c, 1, 64, 64
3, 82500, Note_on_c, 1, 64, 0
3, 82500, Note_on_c, 1, 71, 0
3, 82500, Note_on_c, 1, 67, 0
3, 82560, Note_on_c, 1, 69, 64
3, 82740, Note_on_c, 1, 69, 0
3, 82800, Note_on_c, 1, 72, 64
3, 82980, Note_on_c, 1, 72, 0
3, 83040, Note_on_c, 1, 60, 64
3, 83220, Note_on_c, 1, 60, 0
3, 83280, Note_on_c, 1, 65, 64
3, 83460, Note_on_c, 1, 65, 0
3, 83520, Note_on_c, 1, 60, 64
3, 83700, Note_on_c, 1, 60, 0
3, 83760, Note_on_c, 1, 65, 64
3, 83940, Note_on_c, 1, 65, 0
3, 84000, Note_on_c, 1, 72, 64
3, 84090, Note_on_c, 1, 72, 0
3, 84120, Note_on_c, 1, 69, 64
3, 84210, Note_on_c, 1, 69, 0
3, 84240, Note_on_c, 1, 65, 64
3, 84330, Note_on_c, 1, 65, 0
3, 84360, Note_on_c, 1, 60, 64
3, 84450, Note_on_c, 1, 60, 0
3, 84480, Note_on_c, 1, 62, 64
3, 84480, Note_on_c, 1, 71, 64
3, 84480, Note_on_c, 1, 67, 64
3, 85140, Note_on_c, 1, 67, 0
3, 85140, Note_on_c, 1, 71, 0
3, 85140, Note_on_c, 1, 62, 0
3, 85200, Note_on_c, 1, 71, 64
3, 85200, Note_on_c, 1, 62, 64
3, 85200, Note_on_c, 1, 67, 64
3, 85380, Note_on_c, 1, 67, 0
3, 85380, Note_on_c, 1, 62, 0
3, 85380, Note_on_c, 1, 71, 0
3, 85440, Note_on_c, 1, 60, 64
3, 85440, Note_on_c, 1, 65, 64
3, 85440, Note_on_c, 1, 69, 64
3, 85860, Note_on_c, 1, 69, 0
3, 85860, Note_on_c, 1, 65, 0
3, 85860, Note_on_c, 1, 60, 0
3, 85920, Note_on_c, 1, 60, 64
3, 86010, Note_on_c, 1, 60, 0
3, 86040, Note_on_c, 1, 65, 64
3, 86130, Note_on_c, 1, 65, 0
3, 86160, Note_on_c, 1, 69, 64
3, 86250, Note_on_c, 1, 69, 0
3, 86280, Note_on_c, 1, 65, 64
3, 86370, Note_on_c, 1, 65, 0
3, 86400, Note_on_c, 1, 60, 64
3, 86400, Note_on_c, 1, 64, 64
3, 86400, Note_on_c, 1, 67, 64
3, 86820, Note_on_c, 1, 67, 0
3, 86820, Note_on_c, 1, 64, 0
3, 86820, Note_on_c, 1, 60, 0
3, 86880, Note_on_c, 1, 60, 64
3, 87060, Note_on_c, 1, 60, 0
3, 87120, Note_on_c, 1, 55, 64
3, 87300, Note_on_c, 1, 55, 0
3, 87360, Note_on_c, 1, 60, 64
3, 87780, Note_on_c, 1, 60, 0
3, 87840, Note_on_c, 1, 67, 64
3, 87930, Note_on_c, 1, 67, 0
3, 87960, Note_on_c, 1, 69, 64
3, 88050, Note_on_c, 1, 69, 0
3, 88080, Note_on_c, 1, 72, 64
3, 88170, Note_on_c, 1, 72, 0
3, 88200, Note_on_c, 1, 74, 64
3, 88290, Note_on_c, 1, 74, 0
3, 88320, Note_on_c, 1, 76, 64
3, 88740, Note_on_c, 1, 76, 0
3, 88800, Note_on_c, 1, 71, 64
3, 88980, Note_on_c, 1, 71, 0
3, 89040, Note_on_c, 1, 64, 64
3, 89040, Note_on_c, 1, 67, 64
3, 89700, Note_on_c, 1, 67, 0
3, 89700, Note_on_c, 1, 64, 0
3, 89760, Note_on_c, 1, 76, 64
3, 89850, Note_on_c, 1, 76, 0
3, 89880, Note_on_c, 1, 71, 64
3, 89970, Note_on_c, 1, 71, 0
3, 90000, Note_on_c, 1, 67, 64
3, 90180, Note_on_c, 1, 67, 0
3, 90240, Note_on_c, 1, 69, 64
3, 90420, Note_on_c, 1, 69, 0
3, 90480, Note_on_c, 1, 60, 64
3, 90660, Note_on_c, 1, 60, 0
3, 90720, Note_on_c, 1, 57, 64
3, 90900, Note_on_c, 1, 57, 0
3, 90960, Note_on_c, 1, 60, 64
3, 91140, Note_on_c, 1, 60, 0
3, 91200, Note_on_c, 1, 57, 64
3, 91380, Note_on_c, 1, 57, 0
3, 91440, Note_on_c, 1, 60, 64
3, 91620, Note_on_c, 1, 60, 0
3, 91680, Note_on_c, 1, 69, 64
3, 91770, Note_on_c, 1, 69, 0
3, 91800, Note_on_c, 1, 67, 64
3, 91890, Note_on_c, 1, 67, 0
3, 91920, Note_on_c, 1, 65, 64
3, 92010, Note_on_c, 1, 65, 0
3, 92040, Note_on_c, 1, 60, 64
3, 92130, Note_on_c, 1, 60, 0
3, 92160, Note_on_c, 1, 59, 64
3, 92160, Note_on_c, 1, 62, 64
3, 92160, Note_on_c, 1, 67, 64
3, 92820, Note_on_c, 1, 67, 0
3, 92820, Note_on_c, 1, 62, 0
3, 92820, Note_on_c, 1, 59, 0
3, 92880, Note_on_c, 1, 62, 64
3, 92880, Note_on_c, 1, 71, 64
3, 93300, Note_on_c, 1, 71, 0
3, 93300, Note_on_c, 1, 62, 0
3, 93360, Note_on_c, 1, 67, 64
3, 93540, Note_on_c, 1, 67, 0
3, 93600, Note_on_c, 1, 62, 64
3, 93780, Note_on_c, 1, 62, 0
3, 93840, Note_on_c, 1, 59, 64
3, 94020, Note_on_c, 1, 59, 0
3, 94080, Note_on_c, 1, 60, 64
3, 94080, Note_on_c, 1, 64, 64
3, 94080, Note_on_c, 1, 67, 64
3, 94080, Note_on_c, 1, 71, 64
3, 94500, Note_on_c, 1, 71, 0
3, 94500, Note_on_c, 1, 60, 0
3, 94500, Note_on_c, 1, 64, 0
3, 94500, Note_on_c, 1, 67, 0
3, 94560, Note_on_c, 1, 67, 64
3, 94740, Note_on_c, 1, 67, 0
3, 94800, Note_on_c, 1, 71, 64
3, 94980, Note_on_c, 1, 71, 0
3, 95040, Note_on_c, 1, 62, 64
3, 95040, Note_on_c, 1, 65, 64
3, 95040, Note_on_c, 1, 69, 64
3, 95040, Note_on_c, 1, 72, 64
3, 95700, Note_on_c, 1, 72, 0
3, 95700, Note_on_c, 1, 62, 0
3, 95700, Note_on_c, 1, 65, 0
3, 95700, Note_on_c, 1, 69, 0
3, 95760, Note_on_c, 1, 62, 64
3, 95760, Note_on_c, 1, 65, 64
3, 95760, Note_on_c, 1, 69, 64
3, 95760, Note_on_c, 1, 72, 64
3, 95940, Note_on_c, 1, 72, 0
3, 95940, Note_on_c, 1, 62, 0
3, 95940, Note_on_c, 1, 65, 0
3, 95940, Note_on_c, 1, 69, 0
3, 96000, Note_on_c, 1, 64, 64
3, 96000, Note_on_c, 1, 67, 64
3, 96000, Note_on_c, 1, 71, 64
3, 96000, Note_on_c, 1, 74, 64
3, 96900, Note_on_c, 1, 74, 0
3, 96900, Note_on_c, 1, 64, 0
3, 96900, Note_on_c, 1, 67, 0
3, 96900, Note_on_c, 1, 71, 0
3, 96960, Note_on_c, 1, 63, 64
3, 96960, Note_on_c, 1, 66, 64
3, 96960, Note_on_c, 1, 70, 64
3, 96960, Note_on_c, 1, 73, 64
3, 97260, Note_on_c, 1, 73, 0
3, 97260, Note_on_c, 1, 63, 0
3, 97260, Note_on_c, 1, 66, 0
3, 97260, Note_on_c, 1, 70, 0
3, 97320, Note_on_c, 1, 66, 64
3, 97410, Note_on_c, 1, 66, 0
3, 97440, Note_on_c, 1, 63, 64
3, 97620, Note_on_c, 1, 63, 0
3, 97680, Note_on_c, 1, 66, 64
3, 97860, Note_on_c, 1, 66, 0
3, 97920, Note_on_c, 1, 62, 64
3, 97920, Note_on_c, 1, 65, 64
3, 97920, Note_on_c, 1, 69, 64
3, 97920, Note_on_c, 1, 72, 64
3, 98580, Note_on_c, 1, 72, 0
3, 98580, Note_on_c, 1, 62, 0
3, 98580, Note_on_c, 1, 65, 0
3, 98580, Note_on_c, 1, 69, 0
3, 98640, Note_on_c, 1, 60, 64
3, 98640, Note_on_c, 1, 69, 64
3, 99060, Note_on_c, 1, 69, 0
3, 99060, Note_on_c, 1, 60, 0
3, 99120, Note_on_c, 1, 65, 64
3, 99300, Note_on_c, 1, 65, 0
3, 99360, Note_on_c, 1, 60, 64
3, 99780, Note_on_c, 1, 60, 0
3, 99840, Note_on_c, 1, 59, 64
3, 99840, Note_on_c, 1, 62, 64
3, 99840, Note_on_c, 1, 67, 64
3, 100500, Note_on_c, 1, 67, 0
3, 100500, Note_on_c, 1, 62, 0
3, 100500, Note_on_c, 1, 59, 0
3, 100560, Note_on_c, 1, 55, 64
3, 101700, Note_on_c, 1, 55, 0
3, 101760, Note_on_c, 1, 64, 64
3, 101760, Note_on_c, 1, 67, 64
3, 101760, Note_on_c, 1, 72, 64
3, 102420, Note_on_c, 1, 72, 0
3, 102420, Note_on_c, 1, 67, 0
3, 102420, Note_on_c, 1, 64, 0
3, 102480, Note_on_c, 1, 71, 64
3, 102660, Note_on_c, 1, 71, 0
3, 102720, Note_on_c, 1, 60, 64
3, 102720, Note_on_c, 1, 65, 64
3, 102720, Note_on_c, 1, 69, 64
3, 103380, Note_on_c, 1, 69, 0
3, 103380, Note_on_c, 1, 65, 0
3, 103380, Note_on_c, 1, 60, 0
3, 103440, Note_on_c, 1, 72, 64
3, 103620, Note_on_c, 1, 72, 0
3, 103680, Note_on_c, 1, 62, 64
3, 103680, Note_on_c, 1, 67, 64
3, 103680, Note_on_c, 1, 71, 64
3, 104100, Note_on_c, 1, 71, 0
3, 104100, Note_on_c, 1, 67, 0
3, 104100, Note_on_c, 1, 62, 0
3, 104160, Note_on_c, 1, 67, 64
3, 104340, Note_on_c, 1, 67, 0
3, 104400, Note_on_c, 1, 64, 64
3, 104580, Note_on_c, 1, 64, 0
3, 104640, Note_on_c, 1, 61, 64
3, 104640, Note_on_c, 1, 66, 64
3, 104640, Note_on_c, 1, 70, 64
3, 105540, Note_on_c, 1, 70, 0
3, 105540, Note_on_c, 1, 66, 0
3, 105540, Note_on_c, 1, 61, 0
3, 105600, Note_on_c, 1, 62, 64
3, 105600, Note_on_c, 1, 65, 64
3, 105600, Note_on_c, 1, 69, 64
3, 105600, Note_on_c, 1, 72, 64
3, 106020, Note_on_c, 1, 72, 0
3, 106020, Note_on_c, 1, 62, 0
3, 106020, Note_on_c, 1, 65, 0
3, 106020, Note_on_c, 1, 69, 0
3, 106080, Note_on_c, 1, 57, 64
3, 106260, Note_on_c, 1, 57, 0
3, 106320, Note_on_c, 1, 60, 64
3, 106500, Note_on_c, 1, 60, 0
3, 106560, Note_on_c, 1, 57, 64
3, 106740, Note_on_c, 1, 57, 0
3, 106800, Note_on_c, 1, 60, 64
3, 106980, Note_on_c, 1, 60, 0
3, 107040, Note_on_c, 1, 65, 64
3, 107220, Note_on_c, 1, 65, 0
3, 107280, Note_on_c, 1, 69, 64
3, 107460, Note_on_c, 1, 69, 0
3, 107520, Note_on_c, 1, 55, 64
3, 107610, Note_on_c, 1, 55, 0
3, 107640, Note_on_c, 1, 57, 50
3, 107730, Note_on_c, 1, 57, 0
3, 107760, Note_on_c, 1, 59, 55
3, 107850, Note_on_c, 1, 59, 0
3, 107880, Note_on_c, 1, 60, 60
3, 107970, Note_on_c, 1, 60, 0
3, 108000, Note_on_c, 1, 62, 65
3, 108090, Note_on_c, 1, 62, 0
3, 108120, Note_on_c, 1, 64, 70
3, 108210, Note_on_c, 1, 64, 0
3, 108240, Note_on_c, 1, 65, 75
3, 108330, Note_on_c, 1, 65, 0
3, 108360, Note_on_c, 1, 67, 80
3, 108450, Note_on_c, 1, 67, 0
3, 108480, Note_on_c, 1, 65, 85
3, 108570, Note_on_c, 1, 65, 0
3, 108600, Note_on_c, 1, 67, 90
3, 108690, Note_on_c, 1, 67, 0
3, 108720, Note_on_c, 1, 69, 95
3, 108810, Note_on_c, 1, 69, 0
3, 108840, Note_on_c, 1, 71, 100
3, 108930, Note_on_c, 1, 71, 0
3, 108960, Note_on_c, 1, 69, 105
3, 109050, Note_on_c, 1, 69, 0
3, 109080, Note_on_c, 1, 71, 110
3, 109170, Note_on_c, 1, 71, 0
3, 109200, Note_on_c, 1, 72, 115
3, 109290, Note_on_c, 1, 72, 0
3, 109320, Note_on_c, 1, 74, 120
3, 109410, Note_on_c, 1, 74, 0
3, 109440, Note_on_c, 1, 76, 127
3, 109620, Note_on_c, 1, 76, 0
3, 109680, Note_on_c, 1, 55, 64
3, 109680, Note_on_c, 1, 60, 64
3, 109680, Note_on_c, 1, 64, 64
3, 109845, Control_c, 1, 7, 103
3, 109860, Note_on_c, 1, 64, 0
3, 109860, Note_on_c, 1, 60, 0
3, 109860, Note_on_c, 1, 55, 0
3, 109920, Note_on_c, 1, 64, 64
3, 109920, Note_on_c, 1, 60, 64
3, 109920, Note_on_c, 1, 55, 64
3, 110100, Note_on_c, 1, 55, 0
3, 110100, Note_on_c, 1, 60, 0
3, 110100, Note_on_c, 1, 64, 0
3, 110160, Note_on_c, 1, 55, 64
3, 110160, Note_on_c, 1, 60, 64
3, 110160, Note_on_c, 1, 64, 64
3, 110340, Note_on_c, 1, 64, 0
3, 110340, Note_on_c, 1, 60, 0
3, 110340, Note_on_c, 1, 55, 0
3, 110400, Note_on_c, 1, 64, 64
3, 110400, Note_on_c, 1, 60, 64
3, 110400, Note_on_c, 1, 55, 64
3, 110580, Note_on_c, 1, 55, 0
3, 110580, Note_on_c, 1, 60, 0
3, 110580, Note_on_c, 1, 64, 0
3, 110640, Note_on_c, 1, 55, 64
3, 110640, Note_on_c, 1, 60, 64
3, 110640, Note_on_c, 1, 64, 64
3, 110820, Note_on_c, 1, 64, 0
3, 110820, Note_on_c, 1, 60, 0
3, 110820, Note_on_c, 1, 55, 0
3, 110880, Note_on_c, 1, 64, 64
3, 110880, Note_on_c, 1, 60, 64
3, 110880, Note_on_c, 1, 55, 64
3, 111060, Note_on_c, 1, 55, 0
3, 111060, Note_on_c, 1, 60, 0
3, 111060, Note_on_c, 1, 64, 0
3, 111120, Note_on_c, 1, 55, 64
3, 111120, Note_on_c, 1, 60, 64
3, 111120, Note_on_c, 1, 64, 64
3, 111300, Note_on_c, 1, 64, 0
3, 111300, Note_on_c, 1, 60, 0
3, 111300, Note_on_c, 1, 55, 0
3, 111360, Note_on_c, 1, 64, 64
3, 111360, Note_on_c, 1, 60, 64
3, 111360, Note_on_c, 1, 55, 64
3, 111540, Note_on_c, 1, 55, 0
3, 111540, Note_on_c, 1, 60, 0
3, 111540, Note_on_c, 1, 64, 0
3, 111600, Note_on_c, 1, 55, 64
3, 111600, Note_on_c, 1, 60, 64
3, 111600, Note_on_c, 1, 64, 64
3, 111780, Note_on_c, 1, 64, 0
3, 111780, Note_on_c, 1, 60, 0
3, 111780, Note_on_c, 1, 55, 0
3, 111840, Note_on_c, 1, 64, 64
3, 111840, Note_on_c, 1, 60, 64
3, 111840, Note_on_c, 1, 55, 64
3, 112020, Note_on_c, 1, 55, 0
3, 112020, Note_on_c, 1, 60, 0
3, 112020, Note_on_c, 1, 64, 0
3, 112080, Note_on_c, 1, 55, 64
3, 112080, Note_on_c, 1, 60, 64
3, 112080, Note_on_c, 1, 64, 64
3, 112260, Note_on_c, 1, 64, 0
3, 112260, Note_on_c, 1, 60, 0
3, 112260, Note_on_c, 1, 55, 0
3, 112320, Note_on_c, 1, 64, 64
3, 112320, Note_on_c, 1, 60, 64
3, 112320, Note_on_c, 1, 55, 64
3, 112500, Note_on_c, 1, 55, 0
3, 112500, Note_on_c, 1, 60, 0
3, 112500, Note_on_c, 1, 64, 0
3, 112560, Note_on_c, 1, 55, 64
3, 112560, Note_on_c, 1, 60, 64
3, 112560, Note_on_c, 1, 64, 64
3, 112740, Note_on_c, 1, 64, 0
3, 112740, Note_on_c, 1, 60, 0
3, 112740, Note_on_c, 1, 55, 0
3, 112800, Note_on_c, 1, 64, 64
3, 112800, Note_on_c, 1, 60, 64
3, 112800, Note_on_c, 1, 55, 64
3, 112980, Note_on_c, 1, 55, 0
3, 112980, Note_on_c, 1, 60, 0
3, 112980, Note_on_c, 1, 64, 0
3, 113040, Note_on_c, 1, 55, 64
3, 113040, Note_on_c, 1, 60, 64
3, 113040, Note_on_c, 1, 64, 64
3, 113220, Note_on_c, 1, 64, 0
3, 113220, Note_on_c, 1, 60, 0
3, 113220, Note_on_c, 1, 55, 0
3, 113280, Note_on_c, 1, 65, 64
3, 113280, Note_on_c, 1, 60, 64
3, 113280, Note_on_c, 1, 57, 64
3, 113460, Note_on_c, 1, 57, 0
3, 113460, Note_on_c, 1, 60, 0
3, 113460, Note_on_c, 1, 65, 0
3, 113520, Note_on_c, 1, 57, 64
3, 113520, Note_on_c, 1, 60, 64
3, 113520, Note_on_c, 1, 65, 64
3, 113700, Note_on_c, 1, 65, 0
3, 113700, Note_on_c, 1, 60, 0
3, 113700, Note_on_c, 1, 57, 0
3, 113760, Note_on_c, 1, 65, 64
3, 113760, Note_on_c, 1, 60, 64
3, 113760, Note_on_c, 1, 57, 64
3, 113940, Note_on_c, 1, 57, 0
3, 113940, Note_on_c, 1, 60, 0
3, 113940, Note_on_c, 1, 65, 0
3, 114000, Note_on_c, 1, 57, 64
3, 114000, Note_on_c, 1, 60, 64
3, 114000, Note_on_c, 1, 65, 64
3, 114180, Note_on_c, 1, 65, 0
3, 114180, Note_on_c, 1, 60, 0
3, 114180, Note_on_c, 1, 57, 0
3, 114240, Note_on_c, 1, 65, 64
3, 114240, Note_on_c, 1, 60, 64
3, 114240, Note_on_c, 1, 57, 64
3, 114420, Note_on_c, 1, 57, 0
3, 114420, Note_on_c, 1, 60, 0
3, 114420, Note_on_c, 1, 65, 0
3, 114480, Note_on_c, 1, 57, 64
3, 114480, Note_on_c, 1, 60, 64
3, 114480, Note_on_c, 1, 65, 64
3, 114660, Note_on_c, 1, 65, 0
3, 114660, Note_on_c, 1, 60, 0
3, 114660, Note_on_c, 1, 57, 0
3, 114720, Note_on_c, 1, 65, 64
3, 114720, Note_on_c, 1, 60, 64
3, 114720, Note_on_c, 1, 57, 64
3, 114900, Note_on_c, 1, 57, 0
3, 114900, Note_on_c, 1, 60, 0
3, 114900, Note_on_c, 1, 65, 0
3, 114960, Note_on_c, 1, 57, 64
3, 114960, Note_on_c, 1, 60, 64
3, 114960, Note_on_c, 1, 65, 64
3, 115140, Note_on_c, 1, 65, 0
3, 115140, Note_on_c, 1, 60, 0
3, 115140, Note_on_c, 1, 57, 0
3, 115200, Note_on_c, 1, 57, 64
3, 115200, Note_on_c, 1, 62, 64
3, 115200, Note_on_c, 1, 66, 64
3, 115380, Note_on_c, 1, 66, 0
3, 115380, Note_on_c, 1, 62, 0
3, 115380, Note_on_c, 1, 57, 0
3, 115440, Note_on_c, 1, 66, 64
3, 115440, Note_on_c, 1, 62, 64
3, 115440, Note_on_c, 1, 57, 64
3, 115620, Note_on_c, 1, 57, 0
3, 115620, Note_on_c, 1, 62, 0
3, 115620, Note_on_c, 1, 66, 0
3, 115680, Note_on_c, 1, 57, 64
3, 115680, Note_on_c, 1, 62, 64
3, 115680, Note_on_c, 1, 66, 64
3, 115860, Note_on_c, 1, 66, 0
3, 115860, Note_on_c, 1, 62, 0
3, 115860, Note_on_c, 1, 57, 0
3, 115920, Note_on_c, 1, 66, 64
3, 115920, Note_on_c, 1, 62, 64
3, 115920, Note_on_c, 1, 57, 64
3, 116100, Note_on_c, 1, 57, 0
3, 116100, Note_on_c, 1, 62, 0
3, 116100, Note_on_c, 1, 66, 0
3, 116160, Note_on_c, 1, 59, 64
3, 116160, Note_on_c, 1, 62, 64
3, 116160, Note_on_c, 1, 67, 64
3, 116340, Note_on_c, 1, 67, 0
3, 116340, Note_on_c, 1, 62, 0
3, 116340, Note_on_c, 1, 59, 0
3, 116400, Note_on_c, 1, 67, 64
3, 116400, Note_on_c, 1, 62, 64
3, 116400, Note_on_c, 1, 59, 64
3, 116580, Note_on_c, 1, 59, 0
3, 116580, Note_on_c, 1, 62, 0
3, 116580, Note_on_c, 1, 67, 0
3, 116640, Note_on_c, 1, 59, 64
3, 116640, Note_on_c, 1, 62, 64
3, 116640, Note_on_c, 1, 67, 64
3, 116820, Note_on_c, 1, 67, 0
3, 116820, Note_on_c, 1, 62, 0
3, 116820, Note_on_c, 1, 59, 0
3, 116880, Note_on_c, 1, 67, 64
3, 116880, Note_on_c, 1, 62, 64
3, 116880, Note_on_c, 1, 59, 64
3, 117060, Note_on_c, 1, 59, 0
3, 117060, Note_on_c, 1, 62, 0
3, 117060, Note_on_c, 1, 67, 0
3, 117120, Note_on_c, 1, 57, 64
3, 117120, Note_on_c, 1, 60, 64
3, 117120, Note_on_c, 1, 65, 64
3, 117300, Note_on_c, 1, 65, 0
3, 117300, Note_on_c, 1, 60, 0
3, 117300, Note_on_c, 1, 57, 0
3, 117360, Note_on_c, 1, 65, 64
3, 117360, Note_on_c, 1, 60, 64
3, 117360, Note_on_c, 1, 57, 64
3, 117540, Note_on_c, 1, 57, 0
3, 117540, Note_on_c, 1, 60, 0
3, 117540, Note_on_c, 1, 65, 0
3, 117600, Note_on_c, 1, 57, 64
3, 117600, Note_on_c, 1, 60, 64
3, 117600, Note_on_c, 1, 65, 64
3, 117780, Note_on_c, 1, 65, 0
3, 117780, Note_on_c, 1, 60, 0
3, 117780, Note_on_c, 1, 57, 0
3, 117840, Note_on_c, 1, 65, 64
3, 117840, Note_on_c, 1, 60, 64
3, 117840, Note_on_c, 1, 57, 64
3, 118020, Note_on_c, 1, 57, 0
3, 118020, Note_on_c, 1, 60, 0
3, 118020, Note_on_c, 1, 65, 0
3, 118080, Note_on_c, 1, 55, 64
3, 118080, Note_on_c, 1, 60, 64
3, 118080, Note_on_c, 1, 64, 64
3, 118260, Note_on_c, 1, 64, 0
3, 118260, Note_on_c, 1, 60, 0
3, 118260, Note_on_c, 1, 55, 0
3, 118320, Note_on_c, 1, 64, 64
3, 118320, Note_on_c, 1, 60, 64
3, 118320, Note_on_c, 1, 55, 64
3, 118500, Note_on_c, 1, 55, 0
3, 118500, Note_on_c, 1, 60, 0
3, 118500, Note_on_c, 1, 64, 0
3, 118560, Note_on_c, 1, 55, 64
3, 118560, Note_on_c, 1, 60, 64
3, 118560, Note_on_c, 1, 64, 64
3, 118740, Note_on_c, 1, 64, 0
3, 118740, Note_on_c, 1, 60, 0
3, 118740, Note_on_c, 1, 55, 0
3, 118800, Note_on_c, 1, 64, 64
3, 118800, Note_on_c, 1, 60, 64
3, 118800, Note_on_c, 1, 55, 64
3, 118980, Note_on_c, 1, 55, 0
3, 118980, Note_on_c, 1, 60, 0
3, 118980, Note_on_c, 1, 64, 0
3, 119040, Note_on_c, 1, 55, 64
3, 119040, Note_on_c, 1, 60, 64
3, 119040, Note_on_c, 1, 64, 64
3, 119220, Note_on_c, 1, 64, 0
3, 119220, Note_on_c, 1, 60, 0
3, 119220, Note_on_c, 1, 55, 0
3, 119280, Note_on_c, 1, 64, 64
3, 119280, Note_on_c, 1, 60, 64
3, 119280, Note_on_c, 1, 55, 64
3, 119460, Note_on_c, 1, 55, 0
3, 119460, Note_on_c, 1, 60, 0
3, 119460, Note_on_c, 1, 64, 0
3, 119520, Note_on_c, 1, 55, 64
3, 119520, Note_on_c, 1, 60, 64
3, 119520, Note_on_c, 1, 64, 64
3, 119700, Note_on_c, 1, 64, 0
3, 119700, Note_on_c, 1, 60, 0
3, 119700, Note_on_c, 1, 55, 0
3, 119760, Note_on_c, 1, 64, 64
3, 119760, Note_on_c, 1, 60, 64
3, 119760, Note_on_c, 1, 55, 64
3, 119940, Note_on_c, 1, 55, 0
3, 119940, Note_on_c, 1, 60, 0
3, 119940, Note_on_c, 1, 64, 0
3, 120000, Note_on_c, 1, 55, 64
3, 120000, Note_on_c, 1, 60, 64
3, 120000, Note_on_c, 1, 64, 64
3, 120180, Note_on_c, 1, 64, 0
3, 120180, Note_on_c, 1, 60, 0
3, 120180, Note_on_c, 1, 55, 0
3, 120240, Note_on_c, 1, 64, 64
3, 120240, Note_on_c, 1, 60, 64
3, 120240, Note_on_c, 1, 55, 64
3, 120420, Note_on_c, 1, 55, 0
3, 120420, Note_on_c, 1, 60, 0
3, 120420, Note_on_c, 1, 64, 0
3, 120480, Note_on_c, 1, 55, 64
3, 120480, Note_on_c, 1, 60, 64
3, 120480, Note_on_c, 1, 64, 64
3, 120660, Note_on_c, 1, 64, 0
3, 120660, Note_on_c, 1, 60, 0
3, 120660, Note_on_c, 1, 55, 0
3, 120720, Note_on_c, 1, 64, 64
3, 120720, Note_on_c, 1, 60, 64
3, 120720, Note_on_c, 1, 55, 64
3, 120900, Note_on_c, 1, 55, 0
3, 120900, Note_on_c, 1, 60, 0
3, 120900, Note_on_c, 1, 64, 0
3, 120960, Note_on_c, 1, 55, 64
3, 120960, Note_on_c, 1, 60, 64
3, 120960, Note_on_c, 1, 64, 64
3, 121140, Note_on_c, 1, 64, 0
3, 121140, Note_on_c, 1, 60, 0
3, 121140, Note_on_c, 1, 55, 0
3, 121200, Note_on_c, 1, 64, 64
3, 121200, Note_on_c, 1, 60, 64
3, 121200, Note_on_c, 1, 55, 64
3, 121380, Note_on_c, 1, 55, 0
3, 121380, Note_on_c, 1, 60, 0
3, 121380, Note_on_c, 1, 64, 0
3, 121440, Note_on_c, 1, 55, 64
3, 121440, Note_on_c, 1, 60, 64
3, 121440, Note_on_c, 1, 64, 64
3, 121620, Note_on_c, 1, 64, 0
3, 121620, Note_on_c, 1, 60, 0
3, 121620, Note_on_c, 1, 55, 0
3, 121680, Note_on_c, 1, 64, 64
3, 121680, Note_on_c, 1, 60, 64
3, 121680, Note_on_c, 1, 55, 64
3, 121860, Note_on_c, 1, 55, 0
3, 121860, Note_on_c, 1, 60, 0
3, 121860, Note_on_c, 1, 64, 0
3, 121920, Note_on_c, 1, 57, 64
3, 121920, Note_on_c, 1, 60, 64
3, 121920, Note_on_c, 1, 65, 64
3, 122100, Note_on_c, 1, 65, 0
3, 122100, Note_on_c, 1, 60, 0
3, 122100, Note_on_c, 1, 57, 0
3, 122160, Note_on_c, 1, 65, 64
3, 122160, Note_on_c, 1, 60, 64
3, 122160, Note_on_c, 1, 57, 64
3, 122340, Note_on_c, 1, 57, 0
3, 122340, Note_on_c, 1, 60, 0
3, 122340, Note_on_c, 1, 65, 0
3, 122400, Note_on_c, 1, 57, 64
3, 122400, Note_on_c, 1, 60, 64
3, 122400, Note_on_c, 1, 65, 64
3, 122580, Note_on_c, 1, 65, 0
3, 122580, Note_on_c, 1, 60, 0
3, 122580, Note_on_c, 1, 57, 0
3, 122640, Note_on_c, 1, 65, 64
3, 122640, Note_on_c, 1, 60, 64
3, 122640, Note_on_c, 1, 57, 64
3, 122820, Note_on_c, 1, 57, 0
3, 122820, Note_on_c, 1, 60, 0
3, 122820, Note_on_c, 1, 65, 0
3, 122880, Note_on_c, 1, 57, 64
3, 122880, Note_on_c, 1, 60, 64
3, 122880, Note_on_c, 1, 65, 64
3, 123060, Note_on_c, 1, 65, 0
3, 123060, Note_on_c, 1, 60, 0
3, 123060, Note_on_c, 1, 57, 0
3, 123120, Note_on_c, 1, 65, 64
3, 123120, Note_on_c, 1, 60, 64
3, 123120, Note_on_c, 1, 57, 64
3, 123300, Note_on_c, 1, 57, 0
3, 123300, Note_on_c, 1, 60, 0
3, 123300, Note_on_c, 1, 65, 0
3, 123360, Note_on_c, 1, 57, 64
3, 123360, Note_on_c, 1, 60, 64
3, 123360, Note_on_c, 1, 65, 64
3, 123540, Note_on_c, 1, 65, 0
3, 123540, Note_on_c, 1, 60, 0
3, 123540, Note_on_c, 1, 57, 0
3, 123600, Note_on_c, 1, 65, 64
3, 123600, Note_on_c, 1, 60, 64
3, 123600, Note_on_c, 1, 57, 64
3, 123780, Note_on_c, 1, 57, 0
3, 123780, Note_on_c, 1, 60, 0
3, 123780, Note_on_c, 1, 65, 0
3, 123840, Note_on_c, 1, 57, 64
3, 123840, Note_on_c, 1, 62, 64
3, 123840, Note_on_c, 1, 66, 64
3, 124020, Note_on_c, 1, 66, 0
3, 124020, Note_on_c, 1, 62, 0
3, 124020, Note_on_c, 1, 57, 0
3, 124080, Note_on_c, 1, 66, 64
3, 124080, Note_on_c, 1, 62, 64
3, 124080, Note_on_c, 1, 57, 64
3, 124260, Note_on_c, 1, 57, 0
3, 124260, Note_on_c, 1, 62, 0
3, 124260, Note_on_c, 1, 66, 0
3, 124320, Note_on_c, 1, 57, 64
3, 124320, Note_on_c, 1, 62, 64
3, 124320, Note_on_c, 1, 66, 64
3, 124500, Note_on_c, 1, 66, 0
3, 124500, Note_on_c, 1, 62, 0
3, 124500, Note_on_c, 1, 57, 0
3, 124560, Note_on_c, 1, 66, 64
3, 124560, Note_on_c, 1, 62, 64
3, 124560, Note_on_c, 1, 57, 64
3, 124740, Note_on_c, 1, 57, 0
3, 124740, Note_on_c, 1, 62, 0
3, 124740, Note_on_c, 1, 66, 0
3, 124800, Note_on_c, 1, 60, 64
3, 124800, Note_on_c, 1, 64, 64
3, 124800, Note_on_c, 1, 69, 64
3, 125220, Note_on_c, 1, 69, 0
3, 125220, Note_on_c, 1, 64, 0
3, 125220, Note_on_c, 1, 60, 0
3, 125280, Note_on_c, 1, 59, 64
3, 125280, Note_on_c, 1, 62, 64
3, 125280, Note_on_c, 1, 67, 64
3, 125700, Note_on_c, 1, 67, 0
3, 125700, Note_on_c, 1, 62, 0
3, 125700, Note_on_c, 1, 59, 0
3, 125760, Note_on_c, 1, 62, 64
3, 125760, Note_on_c, 1, 65, 64
3, 125760, Note_on_c, 1, 70, 64
3, 126180, Note_on_c, 1, 70, 0
3, 126180, Note_on_c, 1, 65, 0
3, 126180, Note_on_c, 1, 62, 0
3, 126240, Note_on_c, 1, 57, 64
3, 126240, Note_on_c, 1, 60, 64
3, 126240, Note_on_c, 1, 65, 64
3, 127620, Note_on_c, 1, 65, 0
3, 127620, Note_on_c, 1, 60, 0
3, 127620, Note_on_c, 1, 57, 0
3, 127680, Note_on_c, 1, 68, 64
3, 127680, Note_on_c, 1, 72, 64
3, 127680, Note_on_c, 1, 76, 64
3, 128100, Note_on_c, 1, 76, 0
3, 128100, Note_on_c, 1, 72, 0
3, 128100, Note_on_c, 1, 68, 0
3, 128160, Note_on_c, 1, 66, 64
3, 128160, Note_on_c, 1, 71, 64
3, 128160, Note_on_c, 1, 74, 64
3, 128580, Note_on_c, 1, 74, 0
3, 128580, Note_on_c, 1, 71, 0
3, 128580, Note_on_c, 1, 66, 0
3, 128640, Note_on_c, 1, 65, 64
3, 128640, Note_on_c, 1, 69, 64
3, 128640, Note_on_c, 1, 74, 64
3, 129060, Note_on_c, 1, 74, 0
3, 129060, Note_on_c, 1, 69, 0
3, 129060, Note_on_c, 1, 65, 0
3, 129120, Note_on_c, 1, 64, 64
3, 129120, Note_on_c, 1, 67, 64
3, 129120, Note_on_c, 1, 72, 64
3, 130500, Note_on_c, 1, 72, 0
3, 130500, Note_on_c, 1, 67, 0
3, 130500, Note_on_c, 1, 64, 0
3, 130560, Note_on_c, 1, 65, 64
3, 130560, Note_on_c, 1, 69, 64
3, 130560, Note_on_c, 1, 72, 64
3, 131220, Note_on_c, 1, 72, 0
3, 131220, Note_on_c, 1, 69, 0
3, 131220, Note_on_c, 1, 65, 0
3, 131280, Note_on_c, 1, 57, 64
3, 131280, Note_on_c, 1, 60, 64
3, 131280, Note_on_c, 1, 65, 64
3, 131700, Note_on_c, 1, 65, 0
3, 131700, Note_on_c, 1, 60, 0
3, 131700, Note_on_c, 1, 57, 0
3, 131760, Note_on_c, 1, 65, 64
3, 131760, Note_on_c, 1, 60, 64
3, 131760, Note_on_c, 1, 57, 64
3, 131940, Note_on_c, 1, 57, 0
3, 131940, Note_on_c, 1, 60, 0
3, 131940, Note_on_c, 1, 65, 0
3, 132000, Note_on_c, 1, 57, 64
3, 132000, Note_on_c, 1, 60, 64
3, 132000, Note_on_c, 1, 65, 64
3, 132180, Note_on_c, 1, 65, 0
3, 132180, Note_on_c, 1, 60, 0
3, 132180, Note_on_c, 1, 57, 0
3, 132240, Note_on_c, 1, 65, 64
3, 132240, Note_on_c, 1, 60, 64
3, 132240, Note_on_c, 1, 57, 64
3, 132420, Note_on_c, 1, 57, 0
3, 132420, Note_on_c, 1, 60, 0
3, 132420, Note_on_c, 1, 65, 0
3, 132480, Note_on_c, 1, 57, 64
3, 132480, Note_on_c, 1, 60, 64
3, 132480, Note_on_c, 1, 65, 64
3, 133140, Note_on_c, 1, 65, 0
3, 133140, Note_on_c, 1, 60, 0
3, 133140, Note_on_c, 1, 57, 0
3, 133200, Note_on_c, 1, 57, 64
3, 133200, Note_on_c, 1, 60, 64
3, 133200, Note_on_c, 1, 65, 64
3, 133620, Note_on_c, 1, 65, 0
3, 133620, Note_on_c, 1, 60, 0
3, 133620, Note_on_c, 1, 57, 0
3, 133680, Note_on_c, 1, 65, 64
3, 133680, Note_on_c, 1, 60, 64
3, 133680, Note_on_c, 1, 57, 64
3, 133860, Note_on_c, 1, 57, 0
3, 133860, Note_on_c, 1, 60, 0
3, 133860, Note_on_c, 1, 65, 0
3, 133920, Note_on_c, 1, 57, 64
3, 133920, Note_on_c, 1, 60, 64
3, 133920, Note_on_c, 1, 65, 64
3, 134100, Note_on_c, 1, 65, 0
3, 134100, Note_on_c, 1, 60, 0
3, 134100, Note_on_c, 1, 57, 0
3, 134160, Note_on_c, 1, 65, 64
3, 134160, Note_on_c, 1, 60, 64
3, 134160, Note_on_c, 1, 57, 64
3, 134340, Note_on_c, 1, 57, 0
3, 134340, Note_on_c, 1, 60, 0
3, 134340, Note_on_c, 1, 65, 0
3, 134400, Note_on_c, 1, 55, 64
3, 134400, Note_on_c, 1, 60, 64
3, 134400, Note_on_c, 1, 64, 64
3, 135060, Note_on_c, 1, 64, 0
3, 135060, Note_on_c, 1, 60, 0
3, 135060, Note_on_c, 1, 55, 0
3, 135120, Note_on_c, 1, 64, 64
3, 135120, Note_on_c, 1, 60, 64
3, 135120, Note_on_c, 1, 55, 64
3, 135780, Note_on_c, 1, 55, 0
3, 135780, Note_on_c, 1, 60, 0
3, 135780, Note_on_c, 1, 64, 0
3, 135840, Note_on_c, 1, 65, 64
3, 135840, Note_on_c, 1, 69, 64
3, 135840, Note_on_c, 1, 72, 64
3, 135930, Note_on_c, 1, 72, 0
3, 135930, Note_on_c, 1, 69, 0
3, 135930, Note_on_c, 1, 65, 0
3, 135960, Note_on_c, 1, 65, 64
3, 135960, Note_on_c, 1, 69, 64
3, 135960, Note_on_c, 1, 72, 64
3, 136140, Note_on_c, 1, 72, 0
3, 136140, Note_on_c, 1, 69, 0
3, 136140, Note_on_c, 1, 65, 0
3, 136200, Note_on_c, 1, 65, 64
3, 136200, Note_on_c, 1, 69, 64
3, 136200, Note_on_c, 1, 72, 64
3, 136290, Note_on_c, 1, 72, 0
3, 136290, Note_on_c, 1, 69, 0
3, 136290, Note_on_c, 1, 65, 0
3, 136320, Note_on_c, 1, 64, 64
3, 136320, Note_on_c, 1, 67, 64
3, 136320, Note_on_c, 1, 72, 64
3, 136980, Note_on_c, 1, 72, 0
3, 136980, Note_on_c, 1, 67, 0
3, 136980, Note_on_c, 1, 64, 0
3, 137040, Note_on_c, 1, 64, 64
3, 137460, Note_on_c, 1, 64, 0
3, 137520, Note_on_c, 1, 67, 64
3, 137700, Note_on_c, 1, 67, 0
3, 137760, Note_on_c, 1, 64, 64
3, 138180, Note_on_c, 1, 64, 0
3, 138240, Note_on_c, 1, 57, 64
3, 138240, Note_on_c, 1, 60, 64
3, 138240, Note_on_c, 1, 65, 64
3, 138900, Note_on_c, 1, 65, 0
3, 138900, Note_on_c, 1, 60, 0
3, 138900, Note_on_c, 1, 57, 0
3, 138960, Note_on_c, 1, 57, 64
3, 138960, Note_on_c, 1, 60, 64
3, 138960, Note_on_c, 1, 65, 64
3, 139380, Note_on_c, 1, 65, 0
3, 139380, Note_on_c, 1, 60, 0
3, 139380, Note_on_c, 1, 57, 0
3, 139440, Note_on_c, 1, 65, 64
3, 139440, Note_on_c, 1, 60, 64
3, 139440, Note_on_c, 1, 57, 64
3, 139620, Note_on_c, 1, 57, 0
3, 139620, Note_on_c, 1, 60, 0
3, 139620, Note_on_c, 1, 65, 0
3, 139680, Note_on_c, 1, 57, 64
3, 139680, Note_on_c, 1, 60, 64
3, 139680, Note_on_c, 1, 65, 64
3, 139860, Note_on_c, 1, 65, 0
3, 139860, Note_on_c, 1, 60, 0
3, 139860, Note_on_c, 1, 57, 0
3, 139920, Note_on_c, 1, 65, 64
3, 139920, Note_on_c, 1, 60, 64
3, 139920, Note_on_c, 1, 57, 64
3, 140100, Note_on_c, 1, 57, 0
3, 140100, Note_on_c, 1, 60, 0
3, 140100, Note_on_c, 1, 65, 0
3, 140160, Note_on_c, 1, 57, 64
3, 140160, Note_on_c, 1, 60, 64
3, 140160, Note_on_c, 1, 65, 64
3, 140820, Note_on_c, 1, 65, 0
3, 140820, Note_on_c, 1, 60, 0
3, 140820, Note_on_c, 1, 57, 0
3, 140880, Note_on_c, 1, 65, 64
3, 140880, Note_on_c, 1, 60, 64
3, 140880, Note_on_c, 1, 57, 64
3, 141300, Note_on_c, 1, 57, 0
3, 141300, Note_on_c, 1, 60, 0
3, 141300, Note_on_c, 1, 65, 0
3, 141360, Note_on_c, 1, 57, 64
3, 141360, Note_on_c, 1, 60, 64
3, 141360, Note_on_c, 1, 65, 64
3, 141540, Note_on_c, 1, 65, 0
3, 141540, Note_on_c, 1, 60, 0
3, 141540, Note_on_c, 1, 57, 0
3, 141600, Note_on_c, 1, 65, 64
3, 141600, Note_on_c, 1, 60, 64
3, 141600, Note_on_c, 1, 57, 64
3, 141780, Note_on_c, 1, 57, 0
3, 141780, Note_on_c, 1, 60, 0
3, 141780, Note_on_c, 1, 65, 0
3, 141840, Note_on_c, 1, 57, 64
3, 141840, Note_on_c, 1, 60, 64
3, 141840, Note_on_c, 1, 65, 64
3, 142020, Note_on_c, 1, 65, 0
3, 142020, Note_on_c, 1, 60, 0
3, 142020, Note_on_c, 1, 57, 0
3, 142080, Note_on_c, 1, 59, 64
3, 142080, Note_on_c, 1, 62, 64
3, 142080, Note_on_c, 1, 67, 64
3, 142260, Note_on_c, 1, 67, 0
3, 142260, Note_on_c, 1, 62, 0
3, 142260, Note_on_c, 1, 59, 0
3, 142320, Note_on_c, 1, 67, 64
3, 142320, Note_on_c, 1, 62, 64
3, 142320, Note_on_c, 1, 59, 64
3, 142500, Note_on_c, 1, 59, 0
3, 142500, Note_on_c, 1, 62, 0
3, 142500, Note_on_c, 1, 67, 0
3, 142560, Note_on_c, 1, 59, 64
3, 142560, Note_on_c, 1, 62, 64
3, 142560, Note_on_c, 1, 67, 64
3, 142740, Note_on_c, 1, 67, 0
3, 142740, Note_on_c, 1, 62, 0
3, 142740, Note_on_c, 1, 59, 0
3, 142800, Note_on_c, 1, 67, 64
3, 142800, Note_on_c, 1, 62, 64
3, 142800, Note_on_c, 1, 59, 64
3, 142980, Note_on_c, 1, 59, 0
3, 142980, Note_on_c, 1, 62, 0
3, 142980, Note_on_c, 1, 67, 0
3, 143040, Note_on_c, 1, 59, 64
3, 143040, Note_on_c, 1, 62, 64
3, 143040, Note_on_c, 1, 67, 64
3, 143220, Note_on_c, 1, 67, 0
3, 143220, Note_on_c, 1, 62, 0
3, 143220, Note_on_c, 1, 59, 0
3, 143280, Note_on_c, 1, 67, 64
3, 143280, Note_on_c, 1, 62, 64
3, 143280, Note_on_c, 1, 59, 64
3, 143460, Note_on_c, 1, 59, 0
3, 143460, Note_on_c, 1, 62, 0
3, 143460, Note_on_c, 1, 67, 0
3, 143520, Note_on_c, 1, 59, 64
3, 143520, Note_on_c, 1, 62, 64
3, 143520, Note_on_c, 1, 67, 64
3, 143700, Note_on_c, 1, 67, 0
3, 143700, Note_on_c, 1, 62, 0
3, 143700, Note_on_c, 1, 59, 0
3, 143760, Note_on_c, 1, 67, 64
3, 143760, Note_on_c, 1, 62, 64
3, 143760, Note_on_c, 1, 59, 64
3, 143940, Note_on_c, 1, 59, 0
3, 143940, Note_on_c, 1, 62, 0
3, 143940, Note_on_c, 1, 67, 0
3, 144000, Note_on_c, 1, 55, 64
3, 144090, Note_on_c, 1, 55, 0
3, 144120, Note_on_c, 1, 57, 50
3, 144210, Note_on_c, 1, 57, 0
3, 144240, Note_on_c, 1, 59, 55
3, 144330, Note_on_c, 1, 59, 0
3, 144360, Note_on_c, 1, 60, 60
3, 144450, Note_on_c, 1, 60, 0
3, 144480, Note_on_c, 1, 62, 65
3, 144570, Note_on_c, 1, 62, 0
3, 144600, Note_on_c, 1, 64, 70
3, 144690, Note_on_c, 1, 64, 0
3, 144720, Note_on_c, 1, 65, 75
3, 144810, Note_on_c, 1, 65, 0
3, 144840, Note_on_c, 1, 67, 80
3, 144930, Note_on_c, 1, 67, 0
3, 144960, Note_on_c, 1, 65, 85
3, 145050, Note_on_c, 1, 65, 0
3, 145080, Note_on_c, 1, 67, 90
3, 145170, Note_on_c, 1, 67, 0
3, 145200, Note_on_c, 1, 69, 95
3, 145290, Note_on_c, 1, 69, 0
3, 145320, Note_on_c, 1, 71, 100
3, 145410, Note_on_c, 1, 71, 0
3, 145440, Note_on_c, 1, 69, 105
3, 145530, Note_on_c, 1, 69, 0
3, 145560, Note_on_c, 1, 71, 110
3, 145650, Note_on_c, 1, 71, 0
3, 145680, Note_on_c, 1, 72, 115
3, 145770, Note_on_c, 1, 72, 0
3, 145800, Note_on_c, 1, 74, 120
3, 145890, Note_on_c, 1, 74, 0
3, 145920, Note_on_c, 1, 76, 127
3, 146100, Note_on_c, 1, 76, 0
3, 146160, Note_on_c, 1, 55, 64
3, 146160, Note_on_c, 1, 60, 64
3, 146160, Note_on_c, 1, 64, 64
3, 146340, Note_on_c, 1, 64, 0
3, 146340, Note_on_c, 1, 60, 0
3, 146340, Note_on_c, 1, 55, 0
3, 146400, Note_on_c, 1, 64, 64
3, 146400, Note_on_c, 1, 60, 64
3, 146400, Note_on_c, 1, 55, 64
3, 146580, Note_on_c, 1, 55, 0
3, 146580, Note_on_c, 1, 60, 0
3, 146580, Note_on_c, 1, 64, 0
3, 146640, Note_on_c, 1, 55, 64
3, 146640, Note_on_c, 1, 60, 64
3, 146640, Note_on_c, 1, 64, 64
3, 146820, Note_on_c, 1, 64, 0
3, 146820, Note_on_c, 1, 60, 0
3, 146820, Note_on_c, 1, 55, 0
3, 146880, Note_on_c, 1, 64, 64
3, 146880, Note_on_c, 1, 60, 64
3, 146880, Note_on_c, 1, 55, 64
3, 147060, Note_on_c, 1, 55, 0
3, 147060, Note_on_c, 1, 60, 0
3, 147060, Note_on_c, 1, 64, 0
3, 147120, Note_on_c, 1, 55, 64
3, 147120, Note_on_c, 1, 60, 64
3, 147120, Note_on_c, 1, 64, 64
3, 147300, Note_on_c, 1, 64, 0
3, 147300, Note_on_c, 1, 60, 0
3, 147300, Note_on_c, 1, 55, 0
3, 147360, Note_on_c, 1, 64, 64
3, 147360, Note_on_c, 1, 60, 64
3, 147360, Note_on_c, 1, 55, 64
3, 147540, Note_on_c, 1, 55, 0
3, 147540, Note_on_c, 1, 60, 0
3, 147540, Note_on_c, 1, 64, 0
3, 147600, Note_on_c, 1, 55, 64
3, 147600, Note_on_c, 1, 60, 64
3, 147600, Note_on_c, 1, 64, 64
3, 147780, Note_on_c, 1, 64, 0
3, 147780, Note_on_c, 1, 60, 0
3, 147780, Note_on_c, 1, 55, 0
3, 147840, Note_on_c, 1, 64, 64
3, 147840, Note_on_c, 1, 60, 64
3, 147840, Note_on_c, 1, 55, 64
3, 148020, Note_on_c, 1, 55, 0
3, 148020, Note_on_c, 1, 60, 0
3, 148020, Note_on_c, 1, 64, 0
3, 148080, Note_on_c, 1, 55, 64
3, 148080, Note_on_c, 1, 60, 64
3, 148080, Note_on_c, 1, 64, 64
3, 148260, Note_on_c, 1, 64, 0
3, 148260, Note_on_c, 1, 60, 0
3, 148260, Note_on_c, 1, 55, 0
3, 148320, Note_on_c, 1, 64, 64
3, 148320, Note_on_c, 1, 60, 64
3, 148320, Note_on_c, 1, 55, 64
3, 148500, Note_on_c, 1, 55, 0
3, 148500, Note_on_c, 1, 60, 0
3, 148500, Note_on_c, 1, 64, 0
3, 148560, Note_on_c, 1, 55, 64
3, 148560, Note_on_c, 1, 60, 64
3, 148560, Note_on_c, 1, 64, 64
3, 148740, Note_on_c, 1, 64, 0
3, 148740, Note_on_c, 1, 60, 0
3, 148740, Note_on_c, 1, 55, 0
3, 148800, Note_on_c, 1, 64, 64
3, 148800, Note_on_c, 1, 60, 64
3, 148800, Note_on_c, 1, 55, 64
3, 148980, Note_on_c, 1, 55, 0
3, 148980, Note_on_c, 1, 60, 0
3, 148980, Note_on_c, 1, 64, 0
3, 149040, Note_on_c, 1, 55, 64
3, 149040, Note_on_c, 1, 60, 64
3, 149040, Note_on_c, 1, 64, 64
3, 149220, Note_on_c, 1, 64, 0
3, 149220, Note_on_c, 1, 60, 0
3, 149220, Note_on_c, 1, 55, 0
3, 149280, Note_on_c, 1, 64, 64
3, 149280, Note_on_c, 1, 60, 64
3, 149280, Note_on_c, 1, 55, 64
3, 149460, Note_on_c, 1, 55, 0
3, 149460, Note_on_c, 1, 60, 0
3, 149460, Note_on_c, 1, 64, 0
3, 149520, Note_on_c, 1, 55, 64
3, 149520, Note_on_c, 1, 60, 64
3, 149520, Note_on_c, 1, 64, 64
3, 149700, Note_on_c, 1, 64, 0
3, 149700, Note_on_c, 1, 60, 0
3, 149700, Note_on_c, 1, 55, 0
3, 149760, Note_on_c, 1, 65, 64
3, 149760, Note_on_c, 1, 60, 64
3, 149760, Note_on_c, 1, 57, 64
3, 149940, Note_on_c, 1, 57, 0
3, 149940, Note_on_c, 1, 60, 0
3, 149940, Note_on_c, 1, 65, 0
3, 150000, Note_on_c, 1, 57, 64
3, 150000, Note_on_c, 1, 60, 64
3, 150000, Note_on_c, 1, 65, 64
3, 150180, Note_on_c, 1, 65, 0
3, 150180, Note_on_c, 1, 60, 0
3, 150180, Note_on_c, 1, 57, 0
3, 150240, Note_on_c, 1, 65, 64
3, 150240, Note_on_c, 1, 60, 64
3, 150240, Note_on_c, 1, 57, 64
3, 150420, Note_on_c, 1, 57, 0
3, 150420, Note_on_c, 1, 60, 0
3, 150420, Note_on_c, 1, 65, 0
3, 150480, Note_on_c, 1, 57, 64
3, 150480, Note_on_c, 1, 60, 64
3, 150480, Note_on_c, 1, 65, 64
3, 150660, Note_on_c, 1, 65, 0
3, 150660, Note_on_c, 1, 60, 0
3, 150660, Note_on_c, 1, 57, 0
3, 150720, Note_on_c, 1, 65, 64
3, 150720, Note_on_c, 1, 60, 64
3, 150720, Note_on_c, 1, 57, 64
3, 150900, Note_on_c, 1, 57, 0
3, 150900, Note_on_c, 1, 60, 0
3, 150900, Note_on_c, 1, 65, 0
3, 150960, Note_on_c, 1, 57, 64
3, 150960, Note_on_c, 1, 60, 64
3, 150960, Note_on_c, 1, 65, 64
3, 151140, Note_on_c, 1, 65, 0
3, 151140, Note_on_c, 1, 60, 0
3, 151140, Note_on_c, 1, 57, 0
3, 151200, Note_on_c, 1, 65, 64
3, 151200, Note_on_c, 1, 60, 64
3, 151200, Note_on_c, 1, 57, 64
3, 151380, Note_on_c, 1, 57, 0
3, 151380, Note_on_c, 1, 60, 0
3, 151380, Note_on_c, 1, 65, 0
3, 151440, Note_on_c, 1, 57, 64
3, 151440, Note_on_c, 1, 60, 64
3, 151440, Note_on_c, 1, 65, 64
3, 151620, Note_on_c, 1, 65, 0
3, 151620, Note_on_c, 1, 60, 0
3, 151620, Note_on_c, 1, 57, 0
3, 151680, Note_on_c, 1, 57, 64
3, 151680, Note_on_c, 1, 62, 64
3, 151680, Note_on_c, 1, 66, 64
3, 151860, Note_on_c, 1, 66, 0
3, 151860, Note_on_c, 1, 62, 0
3, 151860, Note_on_c, 1, 57, 0
3, 151920, Note_on_c, 1, 66, 64
3, 151920, Note_on_c, 1, 62, 64
3, 151920, Note_on_c, 1, 57, 64
3, 152100, Note_on_c, 1, 57, 0
3, 152100, Note_on_c, 1, 62, 0
3, 152100, Note_on_c, 1, 66, 0
3, 152160, Note_on_c, 1, 57, 64
3, 152160, Note_on_c, 1, 62, 64
3, 152160, Note_on_c, 1, 66, 64
3, 152340, Note_on_c, 1, 66, 0
3, 152340, Note_on_c, 1, 62, 0
3, 152340, Note_on_c, 1, 57, 0
3, 152400, Note_on_c, 1, 66, 64
3, 152400, Note_on_c, 1, 62, 64
3, 152400, Note_on_c, 1, 57, 64
3, 152580, Note_on_c, 1, 57, 0
3, 152580, Note_on_c, 1, 62, 0
3, 152580, Note_on_c, 1, 66, 0
3, 152640, Note_on_c, 1, 59, 64
3, 152640, Note_on_c, 1, 62, 64
3, 152640, Note_on_c, 1, 67, 64
3, 152820, Note_on_c, 1, 67, 0
3, 152820, Note_on_c, 1, 62, 0
3, 152820, Note_on_c, 1, 59, 0
3, 152880, Note_on_c, 1, 67, 64
3, 152880, Note_on_c, 1, 62, 64
3, 152880, Note_on_c, 1, 59, 64
3, 153060, Note_on_c, 1, 59, 0
3, 153060, Note_on_c, 1, 62, 0
3, 153060, Note_on_c, 1, 67, 0
3, 153120, Note_on_c, 1, 59, 64
3, 153120, Note_on_c, 1, 62, 64
3, 153120, Note_on_c, 1, 67, 64
3, 153300, Note_on_c, 1, 67, 0
3, 153300, Note_on_c, 1, 62, 0
3, 153300, Note_on_c, 1, 59, 0
3, 153360, Note_on_c, 1, 67, 64
3, 153360, Note_on_c, 1, 62, 64
3, 153360, Note_on_c, 1, 59, 64
3, 153540, Note_on_c, 1, 59, 0
3, 153540, Note_on_c, 1, 62, 0
3, 153540, Note_on_c, 1, 67, 0
3, 153600, Note_on_c, 1, 57, 64
3, 153600, Note_on_c, 1, 60, 64
3, 153600, Note_on_c, 1, 65, 64
3, 153780, Note_on_c, 1, 65, 0
3, 153780, Note_on_c, 1, 60, 0
3, 153780, Note_on_c, 1, 57, 0
3, 153840, Note_on_c, 1, 65, 64
3, 153840, Note_on_c, 1, 60, 64
3, 153840, Note_on_c, 1, 57, 64
3, 154020, Note_on_c, 1, 57, 0
3, 154020, Note_on_c, 1, 60, 0
3, 154020, Note_on_c, 1, 65, 0
3, 154080, Note_on_c, 1, 57, 64
3, 154080, Note_on_c, 1, 60, 64
3, 154080, Note_on_c, 1, 65, 64
3, 154260, Note_on_c, 1, 65, 0
3, 154260, Note_on_c, 1, 60, 0
3, 154260, Note_on_c, 1, 57, 0
3, 154320, Note_on_c, 1, 65, 64
3, 154320, Note_on_c, 1, 60, 64
3, 154320, Note_on_c, 1, 57, 64
3, 154500, Note_on_c, 1, 57, 0
3, 154500, Note_on_c, 1, 60, 0
3, 154500, Note_on_c, 1, 65, 0
3, 154560, Note_on_c, 1, 55, 64
3, 154560, Note_on_c, 1, 60, 64
3, 154560, Note_on_c, 1, 64, 64
3, 154740, Note_on_c, 1, 64, 0
3, 154740, Note_on_c, 1, 60, 0
3, 154740, Note_on_c, 1, 55, 0
3, 154800, Note_on_c, 1, 64, 64
3, 154800, Note_on_c, 1, 60, 64
3, 154800, Note_on_c, 1, 55, 64
3, 154980, Note_on_c, 1, 55, 0
3, 154980, Note_on_c, 1, 60, 0
3, 154980, Note_on_c, 1, 64, 0
3, 155040, Note_on_c, 1, 55, 64
3, 155040, Note_on_c, 1, 60, 64
3, 155040, Note_on_c, 1, 64, 64
3, 155220, Note_on_c, 1, 64, 0
3, 155220, Note_on_c, 1, 60, 0
3, 155220, Note_on_c, 1, 55, 0
3, 155280, Note_on_c, 1, 64, 64
3, 155280, Note_on_c, 1, 60, 64
3, 155280, Note_on_c, 1, 55, 64
3, 155460, Note_on_c, 1, 55, 0
3, 155460, Note_on_c, 1, 60, 0
3, 155460, Note_on_c, 1, 64, 0
3, 155520, Note_on_c, 1, 55, 64
3, 155520, Note_on_c, 1, 60, 64
3, 155520, Note_on_c, 1, 64, 64
3, 155700, Note_on_c, 1, 64, 0
3, 155700, Note_on_c, 1, 60, 0
3, 155700, Note_on_c, 1, 55, 0
3, 155760, Note_on_c, 1, 64, 64
3, 155760, Note_on_c, 1, 60, 64
3, 155760, Note_on_c, 1, 55, 64
3, 155940, Note_on_c, 1, 55, 0
3, 155940, Note_on_c, 1, 60, 0
3, 155940, Note_on_c, 1, 64, 0
3, 156000, Note_on_c, 1, 55, 64
3, 156000, Note_on_c, 1, 60, 64
3, 156000, Note_on_c, 1, 64, 64
3, 156180, Note_on_c, 1, 64, 0
3, 156180, Note_on_c, 1, 60, 0
3, 156180, Note_on_c, 1, 55, 0
3, 156240, Note_on_c, 1, 64, 64
3, 156240, Note_on_c, 1, 60, 64
3, 156240, Note_on_c, 1, 55, 64
3, 156420, Note_on_c, 1, 55, 0
3, 156420, Note_on_c, 1, 60, 0
3, 156420, Note_on_c, 1, 64, 0
3, 156480, Note_on_c, 1, 55, 64
3, 156480, Note_on_c, 1, 60, 64
3, 156480, Note_on_c, 1, 64, 64
3, 156660, Note_on_c, 1, 64, 0
3, 156660, Note_on_c, 1, 60, 0
3, 156660, Note_on_c, 1, 55, 0
3, 156720, Note_on_c, 1, 64, 64
3, 156720, Note_on_c, 1, 60, 64
3, 156720, Note_on_c, 1, 55, 64
3, 156900, Note_on_c, 1, 55, 0
3, 156900, Note_on_c, 1, 60, 0
3, 156900, Note_on_c, 1, 64, 0
3, 156960, Note_on_c, 1, 55, 64
3, 156960, Note_on_c, 1, 60, 64
3, 156960, Note_on_c, 1, 64, 64
3, 157140, Note_on_c, 1, 64, 0
3, 157140, Note_on_c, 1, 60, 0
3, 157140, Note_on_c, 1, 55, 0
3, 157200, Note_on_c, 1, 64, 64
3, 157200, Note_on_c, 1, 60, 64
3, 157200, Note_on_c, 1, 55, 64
3, 157380, Note_on_c, 1, 55, 0
3, 157380, Note_on_c, 1, 60, 0
3, 157380, Note_on_c, 1, 64, 0
3, 157440, Note_on_c, 1, 55, 64
3, 157440, Note_on_c, 1, 60, 64
3, 157440, Note_on_c, 1, 64, 64
3, 157620, Note_on_c, 1, 64, 0
3, 157620, Note_on_c, 1, 60, 0
3, 157620, Note_on_c, 1, 55, 0
3, 157680, Note_on_c, 1, 64, 64
3, 157680, Note_on_c, 1, 60, 64
3, 157680, Note_on_c, 1, 55, 64
3, 157860, Note_on_c, 1, 55, 0
3, 157860, Note_on_c, 1, 60, 0
3, 157860, Note_on_c, 1, 64, 0
3, 157920, Note_on_c, 1, 55, 64
3, 157920, Note_on_c, 1, 60, 64
3, 157920, Note_on_c, 1, 64, 64
3, 158100, Note_on_c, 1, 64, 0
3, 158100, Note_on_c, 1, 60, 0
3, 158100, Note_on_c, 1, 55, 0
3, 158160, Note_on_c, 1, 64, 64
3, 158160, Note_on_c, 1, 60, 64
3, 158160, Note_on_c, 1, 55, 64
3, 158340, Note_on_c, 1, 55, 0
3, 158340, Note_on_c, 1, 60, 0
3, 158340, Note_on_c, 1, 64, 0
3, 158400, Note_on_c, 1, 57, 64
3, 158400, Note_on_c, 1, 60, 64
3, 158400, Note_on_c, 1, 65, 64
3, 158580, Note_on_c, 1, 65, 0
3, 158580, Note_on_c, 1, 60, 0
3, 158580, Note_on_c, 1, 57, 0
3, 158640, Note_on_c, 1, 65, 64
3, 158640, Note_on_c, 1, 60, 64
3, 158640, Note_on_c, 1, 57, 64
3, 158820, Note_on_c, 1, 57, 0
3, 158820, Note_on_c, 1, 60, 0
3, 158820, Note_on_c, 1, 65, 0
3, 158880, Note_on_c, 1, 57, 64
3, 158880, Note_on_c, 1, 60, 64
3, 158880, Note_on_c, 1, 65, 64
3, 159060, Note_on_c, 1, 65, 0
3, 159060, Note_on_c, 1, 60, 0
3, 159060, Note_on_c, 1, 57, 0
3, 159120, Note_on_c, 1, 65, 64
3, 159120, Note_on_c, 1, 60, 64
3, 159120, Note_on_c, 1, 57, 64
3, 159300, Note_on_c, 1, 57, 0
3, 159300, Note_on_c, 1, 60, 0
3, 159300, Note_on_c, 1, 65, 0
3, 159360, Note_on_c, 1, 57, 64
3, 159360, Note_on_c, 1, 60, 64
3, 159360, Note_on_c, 1, 65, 64
3, 159540, Note_on_c, 1, 65, 0
3, 159540, Note_on_c, 1, 60, 0
3, 159540, Note_on_c, 1, 57, 0
3, 159600, Note_on_c, 1, 65, 64
3, 159600, Note_on_c, 1, 60, 64
3, 159600, Note_on_c, 1, 57, 64
3, 159780, Note_on_c, 1, 57, 0
3, 159780, Note_on_c, 1, 60, 0
3, 159780, Note_on_c, 1, 65, 0
3, 159840, Note_on_c, 1, 57, 64
3, 159840, Note_on_c, 1, 60, 64
3, 159840, Note_on_c, 1, 65, 64
3, 160020, Note_on_c, 1, 65, 0
3, 160020, Note_on_c, 1, 60, 0
3, 160020, Note_on_c, 1, 57, 0
3, 160080, Note_on_c, 1, 65, 64
3, 160080, Note_on_c, 1, 60, 64
3, 160080, Note_on_c, 1, 57, 64
3, 160260, Note_on_c, 1, 57, 0
3, 160260, Note_on_c, 1, 60, 0
3, 160260, Note_on_c, 1, 65, 0
3, 160320, Note_on_c, 1, 57, 64
3, 160320, Note_on_c, 1, 62, 64
3, 160320, Note_on_c, 1, 66, 64
3, 160500, Note_on_c, 1, 66, 0
3, 160500, Note_on_c, 1, 62, 0
3, 160500, Note_on_c, 1, 57, 0
3, 160560, Note_on_c, 1, 66, 64
3, 160560, Note_on_c, 1, 62, 64
3, 160560, Note_on_c, 1, 57, 64
3, 160740, Note_on_c, 1, 57, 0
3, 160740, Note_on_c, 1, 62, 0
3, 160740, Note_on_c, 1, 66, 0
3, 160800, Note_on_c, 1, 57, 64
3, 160800, Note_on_c, 1, 62, 64
3, 160800, Note_on_c, 1, 66, 64
3, 160980, Note_on_c, 1, 66, 0
3, 160980, Note_on_c, 1, 62, 0
3, 160980, Note_on_c, 1, 57, 0
3, 161040, Note_on_c, 1, 66, 64
3, 161040, Note_on_c, 1, 62, 64
3, 161040, Note_on_c, 1, 57, 64
3, 161220, Note_on_c, 1, 57, 0
3, 161220, Note_on_c, 1, 62, 0
3, 161220, Note_on_c, 1, 66, 0
3, 161280, Note_on_c, 1, 60, 64
3, 161280, Note_on_c, 1, 64, 64
3, 161280, Note_on_c, 1, 69, 64
3, 161700, Note_on_c, 1, 69, 0
3, 161700, Note_on_c, 1, 64, 0
3, 161700, Note_on_c, 1, 60, 0
3, 161760, Note_on_c, 1, 59, 64
3, 161760, Note_on_c, 1, 62, 64
3, 161760, Note_on_c, 1, 67, 64
3, 162180, Note_on_c, 1, 67, 0
3, 162180, Note_on_c, 1, 62, 0
3, 162180, Note_on_c, 1, 59, 0
3, 162240, Note_on_c, 1, 62, 64
3, 162240, Note_on_c, 1, 65, 64
3, 162240, Note_on_c, 1, 70, 64
3, 162660, Note_on_c, 1, 70, 0
3, 162660, Note_on_c, 1, 65, 0
3, 162660, Note_on_c, 1, 62, 0
3, 162720, Note_on_c, 1, 57, 64
3, 162720, Note_on_c, 1, 60, 64
3, 162720, Note_on_c, 1, 65, 64
3, 164100, Note_on_c, 1, 65, 0
3, 164100, Note_on_c, 1, 60, 0
3, 164100, Note_on_c, 1, 57, 0
3, 164160, Note_on_c, 1, 68, 64
3, 164160, Note_on_c, 1, 72, 64
3, 164160, Note_on_c, 1, 76, 64
3, 164580, Note_on_c, 1, 76, 0
3, 164580, Note_on_c, 1, 72, 0
3, 164580, Note_on_c, 1, 68, 0
3, 164640, Note_on_c, 1, 66, 64
3, 164640, Note_on_c, 1, 71, 64
3, 164640, Note_on_c, 1, 74, 64
3, 165060, Note_on_c, 1, 74, 0
3, 165060, Note_on_c, 1, 71, 0
3, 165060, Note_on_c, 1, 66, 0
3, 165120, Note_on_c, 1, 65, 64
3, 165120, Note_on_c, 1, 69, 64
3, 165120, Note_on_c, 1, 74, 64
3, 165540, Note_on_c, 1, 74, 0
3, 165540, Note_on_c, 1, 69, 0
3, 165540, Note_on_c, 1, 65, 0
3, 165600, Note_on_c, 1, 64, 64
3, 165600, Note_on_c, 1, 67, 64
3, 165600, Note_on_c, 1, 72, 64
3, 166980, Note_on_c, 1, 72, 0
3, 166980, Note_on_c, 1, 67, 0
3, 166980, Note_on_c, 1, 64, 0
3, 167040, Note_on_c, 1, 60, 64
3, 167040, Note_on_c, 1, 64, 64
3, 167040, Note_on_c, 1, 69, 64
3, 167460, Note_on_c, 1, 69, 0
3, 167460, Note_on_c, 1, 64, 0
3, 167460, Note_on_c, 1, 60, 0
3, 167520, Note_on_c, 1, 59, 64
3, 167520, Note_on_c, 1, 62, 64
3, 167520, Note_on_c, 1, 67, 64
3, 167940, Note_on_c, 1, 67, 0
3, 167940, Note_on_c, 1, 62, 0
3, 167940, Note_on_c, 1, 59, 0
3, 168000, Note_on_c, 1, 65, 64
3, 168000, Note_on_c, 1, 62, 64
3, 168000, Note_on_c, 1, 70, 64
3, 168420, Note_on_c, 1, 70, 0
3, 168420, Note_on_c, 1, 62, 0
3, 168420, Note_on_c, 1, 65, 0
3, 168480, Note_on_c, 1, 57, 64
3, 168480, Note_on_c, 1, 60, 64
3, 168480, Note_on_c, 1, 65, 64
3, 169860, Note_on_c, 1, 65, 0
3, 169860, Note_on_c, 1, 60, 0
3, 169860, Note_on_c, 1, 57, 0
3, 169920, Note_on_c, 1, 68, 64
3, 169920, Note_on_c, 1, 72, 64
3, 169920, Note_on_c, 1, 76, 64
3, 170340, Note_on_c, 1, 76, 0
3, 170340, Note_on_c, 1, 72, 0
3, 170340, Note_on_c, 1, 68, 0
3, 170400, Note_on_c, 1, 66, 64
3, 170400, Note_on_c, 1, 71, 64
3, 170400, Note_on_c, 1, 74, 64
3, 170820, Note_on_c, 1, 74, 0
3, 170820, Note_on_c, 1, 71, 0
3, 170820, Note_on_c, 1, 66, 0
3, 170880, Note_on_c, 1, 65, 64
3, 170880, Note_on_c, 1, 69, 64
3, 170880, Note_on_c, 1, 74, 64
3, 171300, Note_on_c, 1, 74, 0
3, 171300, Note_on_c, 1, 69, 0
3, 171300, Note_on_c, 1, 65, 0
3, 171360, Note_on_c, 1, 64, 64
3, 171360, Note_on_c, 1, 67, 64
3, 172260, Note_on_c, 1, 67, 0
3, 172260, Note_on_c, 1, 64, 0
3, 173280, Note_on_c, 1, 57, 64
3, 173280, Note_on_c, 1, 53, 64
3, 175140, Note_on_c, 1, 53, 0
3, 175140, Note_on_c, 1, 57, 0
3, 175440, Note_on_c, 1, 59, 64
3, 175440, Note_on_c, 1, 64, 64
3, 175860, Note_on_c, 1, 64, 0
3, 175860, Note_on_c, 1, 59, 0
3, 177120, Note_on_c, 1, 55, 64
3, 177120, Note_on_c, 1, 58, 64
3, 177120, Note_on_c, 1, 61, 64
3, 177780, Note_on_c, 1, 61, 0
3, 177780, Note_on_c, 1, 58, 0
3, 177780, Note_on_c, 1, 55, 0
3, 179040, Note_on_c, 1, 53, 64
3, 179040, Note_on_c, 1, 57, 64
3, 179040, Note_on_c, 1, 60, 64
3, 179940, Note_on_c, 1, 60, 0
3, 179940, Note_on_c, 1, 57, 0
3, 179940, Note_on_c, 1, 53, 0
3, 180480, Note_on_c, 1, 60, 64
3, 180480, Note_on_c, 1, 57, 64
3, 180480, Note_on_c, 1, 53, 64
3, 180900, Note_on_c, 1, 53, 0
3, 180900, Note_on_c, 1, 57, 0
3, 180900, Note_on_c, 1, 60, 0
3, 180960, Note_on_c, 1, 53, 64
3, 180960, Note_on_c, 1, 56, 64
3, 181500, Note_on_c, 1, 56, 0
3, 181500, Note_on_c, 1, 53, 0
3, 181560, Note_on_c, 1, 56, 64
3, 181560, Note_on_c, 1, 60, 64
3, 181980, Note_on_c, 1, 60, 0
3, 181980, Note_on_c, 1, 56, 0
3, 182400, Note_on_c, 1, 60, 64
3, 182400, Note_on_c, 1, 56, 64
3, 182820, Note_on_c, 1, 56, 0
3, 182820, Note_on_c, 1, 60, 0
3, 182880, Note_on_c, 1, 59, 64
3, 182880, Note_on_c, 1, 55, 64
3, 186660, Note_on_c, 1, 55, 0
3, 186660, Note_on_c, 1, 59, 0
3, 186660, End_track
4, 0, Start_track
4, 0, MIDI_port, 0
4, 0, Title_t, "PIANO 1 BASS (MC)"
4, 0, Program_c, 2, 0
4, 0, Control_c, 2, 7, 101
4, 0, Control_c, 2, 10, 82
4, 0, Control_c, 2, 91, 65
4, 0, Note_on_c, 2, 36, 64
4, 1860, Note_on_c, 2, 36, 0
4, 1920, Note_on_c, 2, 37, 64
4, 2580, Note_on_c, 2, 37, 0
4, 2640, Note_on_c, 2, 49, 64
4, 3060, Note_on_c, 2, 49, 0
4, 3120, Note_on_c, 2, 49, 64
4, 3300, Note_on_c, 2, 49, 0
4, 3360, Note_on_c, 2, 37, 64
4, 3780, Note_on_c, 2, 37, 0
4, 3840, Note_on_c, 2, 38, 64
4, 4500, Note_on_c, 2, 38, 0
4, 4560, Note_on_c, 2, 50, 64
4, 4980, Note_on_c, 2, 50, 0
4, 5040, Note_on_c, 2, 38, 64
4, 5220, Note_on_c, 2, 38, 0
4, 5280, Note_on_c, 2, 50, 64
4, 5700, Note_on_c, 2, 50, 0
4, 5760, Note_on_c, 2, 39, 64
4, 6420, Note_on_c, 2, 39, 0
4, 6480, Note_on_c, 2, 51, 64
4, 6900, Note_on_c, 2, 51, 0
4, 6960, Note_on_c, 2, 51, 64
4, 7140, Note_on_c, 2, 51, 0
4, 7200, Note_on_c, 2, 39, 64
4, 7620, Note_on_c, 2, 39, 0
4, 7680, Note_on_c, 2, 41, 65
4, 7860, Note_on_c, 2, 41, 0
4, 7920, Note_on_c, 2, 41, 70
4, 8100, Note_on_c, 2, 41, 0
4, 8160, Note_on_c, 2, 41, 75
4, 8340, Note_on_c, 2, 41, 0
4, 8400, Note_on_c, 2, 41, 80
4, 8580, Note_on_c, 2, 41, 0
4, 8640, Note_on_c, 2, 41, 85
4, 8820, Note_on_c, 2, 41, 0
4, 8880, Note_on_c, 2, 41, 90
4, 9060, Note_on_c, 2, 41, 0
4, 9120, Note_on_c, 2, 41, 95
4, 9300, Note_on_c, 2, 41, 0
4, 9360, Note_on_c, 2, 41, 100
4, 9540, Note_on_c, 2, 41, 0
4, 9600, Note_on_c, 2, 38, 64
4, 9780, Note_on_c, 2, 38, 0
4, 9840, Note_on_c, 2, 38, 64
4, 10020, Note_on_c, 2, 38, 0
4, 10080, Note_on_c, 2, 42, 64
4, 10260, Note_on_c, 2, 42, 0
4, 10320, Note_on_c, 2, 42, 64
4, 10500, Note_on_c, 2, 42, 0
4, 10560, Note_on_c, 2, 45, 64
4, 10740, Note_on_c, 2, 45, 0
4, 10800, Note_on_c, 2, 45, 64
4, 10980, Note_on_c, 2, 45, 0
4, 11040, Note_on_c, 2, 47, 64
4, 11220, Note_on_c, 2, 47, 0
4, 11280, Note_on_c, 2, 45, 64
4, 11460, Note_on_c, 2, 45, 0
4, 11520, Note_on_c, 2, 41, 65
4, 11700, Note_on_c, 2, 41, 0
4, 11760, Note_on_c, 2, 41, 70
4, 11940, Note_on_c, 2, 41, 0
4, 12000, Note_on_c, 2, 41, 75
4, 12180, Note_on_c, 2, 41, 0
4, 12240, Note_on_c, 2, 41, 80
4, 12420, Note_on_c, 2, 41, 0
4, 12480, Note_on_c, 2, 41, 85
4, 12660, Note_on_c, 2, 41, 0
4, 12720, Note_on_c, 2, 41, 90
4, 12900, Note_on_c, 2, 41, 0
4, 12960, Note_on_c, 2, 41, 95
4, 13140, Note_on_c, 2, 41, 0
4, 13200, Note_on_c, 2, 41, 100
4, 13380, Note_on_c, 2, 41, 0
4, 13440, Note_on_c, 2, 38, 64
4, 13620, Note_on_c, 2, 38, 0
4, 13680, Note_on_c, 2, 38, 64
4, 13860, Note_on_c, 2, 38, 0
4, 13920, Note_on_c, 2, 42, 64
4, 14100, Note_on_c, 2, 42, 0
4, 14160, Note_on_c, 2, 42, 64
4, 14340, Note_on_c, 2, 42, 0
4, 14400, Note_on_c, 2, 45, 64
4, 14580, Note_on_c, 2, 45, 0
4, 14640, Note_on_c, 2, 45, 64
4, 14820, Note_on_c, 2, 45, 0
4, 14880, Note_on_c, 2, 47, 64
4, 15060, Note_on_c, 2, 47, 0
4, 15120, Note_on_c, 2, 45, 64
4, 15300, Note_on_c, 2, 45, 0
4, 15360, Note_on_c, 2, 41, 65
4, 15540, Note_on_c, 2, 41, 0
4, 15600, Note_on_c, 2, 41, 70
4, 15780, Note_on_c, 2, 41, 0
4, 15840, Note_on_c, 2, 41, 75
4, 16020, Note_on_c, 2, 41, 0
4, 16080, Note_on_c, 2, 41, 80
4, 16260, Note_on_c, 2, 41, 0
4, 16320, Note_on_c, 2, 41, 85
4, 16500, Note_on_c, 2, 41, 0
4, 16560, Note_on_c, 2, 41, 90
4, 16740, Note_on_c, 2, 41, 0
4, 16800, Note_on_c, 2, 41, 95
4, 16980, Note_on_c, 2, 41, 0
4, 17040, Note_on_c, 2, 41, 100
4, 17220, Note_on_c, 2, 41, 0
4, 17280, Note_on_c, 2, 36, 64
4, 18420, Note_on_c, 2, 36, 0
4, 18480, Note_on_c, 2, 43, 64
4, 18660, Note_on_c, 2, 43, 0
4, 18720, Note_on_c, 2, 48, 64
4, 18900, Note_on_c, 2, 48, 0
4, 18960, Note_on_c, 2, 43, 64
4, 19140, Note_on_c, 2, 43, 0
4, 19200, Note_on_c, 2, 40, 64
4, 20340, Note_on_c, 2, 40, 0
4, 20400, Note_on_c, 2, 40, 64
4, 20580, Note_on_c, 2, 40, 0
4, 20640, Note_on_c, 2, 42, 64
4, 20820, Note_on_c, 2, 42, 0
4, 20880, Note_on_c, 2, 43, 64
4, 21060, Note_on_c, 2, 43, 0
4, 21120, Note_on_c, 2, 41, 64
4, 21780, Note_on_c, 2, 41, 0
4, 21840, Note_on_c, 2, 48, 64
4, 22500, Note_on_c, 2, 48, 0
4, 22560, Note_on_c, 2, 41, 64
4, 22740, Note_on_c, 2, 41, 0
4, 22800, Note_on_c, 2, 42, 64
4, 22980, Note_on_c, 2, 42, 0
4, 23040, Note_on_c, 2, 43, 64
4, 23460, Note_on_c, 2, 43, 0
4, 23520, Note_on_c, 2, 38, 64
4, 23940, Note_on_c, 2, 38, 0
4, 24000, Note_on_c, 2, 41, 64
4, 24420, Note_on_c, 2, 41, 0
4, 24480, Note_on_c, 2, 38, 64
4, 24660, Note_on_c, 2, 38, 0
4, 24720, Note_on_c, 2, 36, 64
4, 24900, Note_on_c, 2, 36, 0
4, 24960, Note_on_c, 2, 36, 64
4, 26100, Note_on_c, 2, 36, 0
4, 26160, Note_on_c, 2, 43, 64
4, 26340, Note_on_c, 2, 43, 0
4, 26400, Note_on_c, 2, 48, 64
4, 26580, Note_on_c, 2, 48, 0
4, 26640, Note_on_c, 2, 43, 64
4, 26820, Note_on_c, 2, 43, 0
4, 26880, Note_on_c, 2, 40, 64
4, 28020, Note_on_c, 2, 40, 0
4, 28080, Note_on_c, 2, 40, 64
4, 28260, Note_on_c, 2, 40, 0
4, 28320, Note_on_c, 2, 48, 64
4, 28500, Note_on_c, 2, 48, 0
4, 28560, Note_on_c, 2, 43, 64
4, 28740, Note_on_c, 2, 43, 0
4, 28800, Note_on_c, 2, 41, 64
4, 29460, Note_on_c, 2, 41, 0
4, 29520, Note_on_c, 2, 41, 64
4, 29940, Note_on_c, 2, 41, 0
4, 30000, Note_on_c, 2, 36, 64
4, 30180, Note_on_c, 2, 36, 0
4, 30240, Note_on_c, 2, 41, 64
4, 30420, Note_on_c, 2, 41, 0
4, 30480, Note_on_c, 2, 42, 64
4, 30660, Note_on_c, 2, 42, 0
4, 30720, Note_on_c, 2, 43, 64
4, 31380, Note_on_c, 2, 43, 0
4, 31440, Note_on_c, 2, 43, 64
4, 31860, Note_on_c, 2, 43, 0
4, 31920, Note_on_c, 2, 38, 64
4, 32100, Note_on_c, 2, 38, 0
4, 32160, Note_on_c, 2, 31, 64
4, 32580, Note_on_c, 2, 31, 0
4, 32640, Note_on_c, 2, 36, 64
4, 33060, Note_on_c, 2, 36, 0
4, 33120, Note_on_c, 2, 43, 64
4, 33300, Note_on_c, 2, 43, 0
4, 33360, Note_on_c, 2, 48, 64
4, 33540, Note_on_c, 2, 48, 0
4, 33600, Note_on_c, 2, 38, 64
4, 34020, Note_on_c, 2, 38, 0
4, 34080, Note_on_c, 2, 45, 64
4, 34260, Note_on_c, 2, 45, 0
4, 34320, Note_on_c, 2, 50, 64
4, 34500, Note_on_c, 2, 50, 0
4, 34560, Note_on_c, 2, 40, 64
4, 34980, Note_on_c, 2, 40, 0
4, 35040, Note_on_c, 2, 47, 64
4, 35220, Note_on_c, 2, 47, 0
4, 35280, Note_on_c, 2, 52, 64
4, 35460, Note_on_c, 2, 52, 0
4, 35520, Note_on_c, 2, 39, 64
4, 35940, Note_on_c, 2, 39, 0
4, 36000, Note_on_c, 2, 46, 64
4, 36180, Note_on_c, 2, 46, 0
4, 36240, Note_on_c, 2, 51, 64
4, 36420, Note_on_c, 2, 51, 0
4, 36480, Note_on_c, 2, 38, 64
4, 37140, Note_on_c, 2, 38, 0
4, 37200, Note_on_c, 2, 50, 64
4, 37620, Note_on_c, 2, 50, 0
4, 37680, Note_on_c, 2, 50, 64
4, 37860, Note_on_c, 2, 50, 0
4, 37920, Note_on_c, 2, 45, 64
4, 38100, Note_on_c, 2, 45, 0
4, 38160, Note_on_c, 2, 44, 64
4, 38340, Note_on_c, 2, 44, 0
4, 38400, Note_on_c, 2, 43, 64
4, 39060, Note_on_c, 2, 43, 0
4, 39120, Note_on_c, 2, 43, 64
4, 39540, Note_on_c, 2, 43, 0
4, 39600, Note_on_c, 2, 38, 64
4, 40020, Note_on_c, 2, 38, 0
4, 40080, Note_on_c, 2, 37, 64
4, 40260, Note_on_c, 2, 37, 0
4, 40320, Note_on_c, 2, 36, 64
4, 40740, Note_on_c, 2, 36, 0
4, 40800, Note_on_c, 2, 43, 64
4, 40980, Note_on_c, 2, 43, 0
4, 41040, Note_on_c, 2, 48, 64
4, 41220, Note_on_c, 2, 48, 0
4, 41280, Note_on_c, 2, 38, 64
4, 41700, Note_on_c, 2, 38, 0
4, 41760, Note_on_c, 2, 45, 64
4, 41940, Note_on_c, 2, 45, 0
4, 42000, Note_on_c, 2, 50, 64
4, 42180, Note_on_c, 2, 50, 0
4, 42240, Note_on_c, 2, 40, 64
4, 42660, Note_on_c, 2, 40, 0
4, 42720, Note_on_c, 2, 47, 64
4, 42900, Note_on_c, 2, 47, 0
4, 42960, Note_on_c, 2, 52, 64
4, 43140, Note_on_c, 2, 52, 0
4, 43200, Note_on_c, 2, 39, 64
4, 43620, Note_on_c, 2, 39, 0
4, 43680, Note_on_c, 2, 46, 64
4, 43860, Note_on_c, 2, 46, 0
4, 43920, Note_on_c, 2, 51, 64
4, 44100, Note_on_c, 2, 51, 0
4, 44160, Note_on_c, 2, 38, 64
4, 44820, Note_on_c, 2, 38, 0
4, 44880, Note_on_c, 2, 50, 64
4, 45300, Note_on_c, 2, 50, 0
4, 45360, Note_on_c, 2, 38, 64
4, 45780, Note_on_c, 2, 38, 0
4, 45840, Note_on_c, 2, 51, 64
4, 46020, Note_on_c, 2, 51, 0
4, 46080, Note_on_c, 2, 43, 64
4, 46260, Note_on_c, 2, 43, 0
4, 46320, Note_on_c, 2, 43, 64
4, 46500, Note_on_c, 2, 43, 0
4, 46560, Note_on_c, 2, 43, 64
4, 46740, Note_on_c, 2, 43, 0
4, 46800, Note_on_c, 2, 43, 64
4, 46980, Note_on_c, 2, 43, 0
4, 47040, Note_on_c, 2, 41, 64
4, 47700, Note_on_c, 2, 41, 0
4, 47760, Note_on_c, 2, 41, 64
4, 47940, Note_on_c, 2, 41, 0
4, 47960, Control_c, 2, 7, 88
4, 48000, Note_on_c, 2, 48, 94
4, 48660, Note_on_c, 2, 48, 0
4, 48720, Note_on_c, 2, 48, 114
4, 48900, Note_on_c, 2, 48, 0
4, 48960, Note_on_c, 2, 47, 114
4, 49620, Note_on_c, 2, 47, 0
4, 49680, Note_on_c, 2, 47, 114
4, 49860, Note_on_c, 2, 47, 0
4, 49920, Note_on_c, 2, 45, 114
4, 50580, Note_on_c, 2, 45, 0
4, 50640, Note_on_c, 2, 45, 114
4, 50722, Control_c, 2, 7, 85
4, 50820, Note_on_c, 2, 45, 0
4, 50880, Note_on_c, 2, 43, 114
4, 51540, Note_on_c, 2, 43, 0
4, 51600, Note_on_c, 2, 43, 114
4, 51780, Note_on_c, 2, 43, 0
4, 51840, Note_on_c, 2, 41, 114
4, 52500, Note_on_c, 2, 41, 0
4, 52560, Note_on_c, 2, 41, 114
4, 52740, Note_on_c, 2, 41, 0
4, 52800, Note_on_c, 2, 40, 114
4, 53460, Note_on_c, 2, 40, 0
4, 53520, Note_on_c, 2, 40, 114
4, 53700, Note_on_c, 2, 40, 0
4, 53760, Note_on_c, 2, 38, 114
4, 53940, Note_on_c, 2, 38, 0
4, 54000, Note_on_c, 2, 38, 114
4, 54420, Note_on_c, 2, 38, 0
4, 54480, Note_on_c, 2, 38, 114
4, 54660, Note_on_c, 2, 38, 0
4, 54720, Note_on_c, 2, 43, 114
4, 55380, Note_on_c, 2, 43, 0
4, 55440, Note_on_c, 2, 43, 114
4, 55620, Note_on_c, 2, 43, 0
4, 55680, Note_on_c, 2, 41, 114
4, 56340, Note_on_c, 2, 41, 0
4, 56400, Note_on_c, 2, 41, 114
4, 56580, Note_on_c, 2, 41, 0
4, 56640, Note_on_c, 2, 48, 114
4, 57300, Note_on_c, 2, 48, 0
4, 57360, Note_on_c, 2, 48, 114
4, 57540, Note_on_c, 2, 48, 0
4, 57600, Note_on_c, 2, 47, 114
4, 58260, Note_on_c, 2, 47, 0
4, 58320, Note_on_c, 2, 47, 114
4, 58500, Note_on_c, 2, 47, 0
4, 58560, Note_on_c, 2, 45, 114
4, 59220, Note_on_c, 2, 45, 0
4, 59280, Note_on_c, 2, 45, 114
4, 59460, Note_on_c, 2, 45, 0
4, 59520, Note_on_c, 2, 43, 114
4, 60180, Note_on_c, 2, 43, 0
4, 60240, Note_on_c, 2, 43, 114
4, 60420, Note_on_c, 2, 43, 0
4, 60480, Note_on_c, 2, 41, 114
4, 61140, Note_on_c, 2, 41, 0
4, 61200, Note_on_c, 2, 41, 114
4, 61380, Note_on_c, 2, 41, 0
4, 61440, Note_on_c, 2, 40, 114
4, 62100, Note_on_c, 2, 40, 0
4, 62160, Note_on_c, 2, 40, 114
4, 62340, Note_on_c, 2, 40, 0
4, 62400, Note_on_c, 2, 50, 104
4, 63060, Note_on_c, 2, 50, 0
4, 63120, Note_on_c, 2, 50, 104
4, 63300, Note_on_c, 2, 50, 0
4, 63360, Note_on_c, 2, 45, 104
4, 63780, Note_on_c, 2, 45, 0
4, 63840, Note_on_c, 2, 43, 104
4, 64260, Note_on_c, 2, 43, 0
4, 64320, Note_on_c, 2, 46, 104
4, 64740, Note_on_c, 2, 46, 0
4, 64800, Note_on_c, 2, 41, 104
4, 66180, Note_on_c, 2, 41, 0
4, 66240, Note_on_c, 2, 40, 104
4, 66660, Note_on_c, 2, 40, 0
4, 66720, Note_on_c, 2, 38, 104
4, 67140, Note_on_c, 2, 38, 0
4, 67200, Note_on_c, 2, 33, 104
4, 67620, Note_on_c, 2, 33, 0
4, 67680, Note_on_c, 2, 36, 104
4, 69060, Note_on_c, 2, 36, 0
4, 69120, Note_on_c, 2, 24, 104
4, 69220, Control_c, 2, 7, 87
4, 69300, Note_on_c, 2, 24, 0
4, 69360, Note_on_c, 2, 24, 94
4, 69540, Note_on_c, 2, 24, 0
4, 69600, Note_on_c, 2, 24, 94
4, 69660, Control_c, 2, 7, 90
4, 69740, Control_c, 2, 7, 91
4, 69780, Note_on_c, 2, 24, 0
4, 69820, Control_c, 2, 7, 92
4, 69840, Note_on_c, 2, 24, 94
4, 69880, Control_c, 2, 7, 93
4, 69930, Note_on_c, 2, 24, 0
4, 69950, Control_c, 2, 7, 94
4, 69960, Note_on_c, 2, 24, 94
4, 70000, Control_c, 2, 7, 95
4, 70050, Note_on_c, 2, 24, 0
4, 70080, Control_c, 2, 7, 96
4, 70080, Note_on_c, 2, 24, 94
4, 70260, Note_on_c, 2, 24, 0
4, 70280, Control_c, 2, 7, 97
4, 70320, Control_c, 2, 7, 98
4, 70320, Note_on_c, 2, 24, 104
4, 70362, Control_c, 2, 7, 99
4, 70482, Control_c, 2, 7, 100
4, 70500, Note_on_c, 2, 24, 0
4, 70560, Note_on_c, 2, 24, 104
4, 70740, Note_on_c, 2, 24, 0
4, 70800, Note_on_c, 2, 24, 104
4, 70980, Note_on_c, 2, 24, 0
4, 71040, Note_on_c, 2, 38, 104
4, 71220, Note_on_c, 2, 38, 0
4, 71280, Note_on_c, 2, 38, 104
4, 71460, Note_on_c, 2, 38, 0
4, 71520, Note_on_c, 2, 42, 104
4, 71700, Note_on_c, 2, 42, 0
4, 71760, Note_on_c, 2, 42, 104
4, 71940, Note_on_c, 2, 42, 0
4, 72000, Note_on_c, 2, 45, 104
4, 72180, Note_on_c, 2, 45, 0
4, 72240, Note_on_c, 2, 45, 104
4, 72420, Note_on_c, 2, 45, 0
4, 72480, Note_on_c, 2, 47, 104
4, 72660, Note_on_c, 2, 47, 0
4, 72720, Note_on_c, 2, 45, 104
4, 72900, Note_on_c, 2, 45, 0
4, 72960, Note_on_c, 2, 41, 104
4, 73140, Note_on_c, 2, 41, 0
4, 73200, Note_on_c, 2, 41, 104
4, 73380, Note_on_c, 2, 41, 0
4, 73440, Note_on_c, 2, 41, 104
4, 73620, Note_on_c, 2, 41, 0
4, 73680, Note_on_c, 2, 41, 104
4, 73860, Note_on_c, 2, 41, 0
4, 73920, Note_on_c, 2, 41, 104
4, 74100, Note_on_c, 2, 41, 0
4, 74160, Note_on_c, 2, 41, 104
4, 74340, Note_on_c, 2, 41, 0
4, 74400, Note_on_c, 2, 41, 104
4, 74580, Note_on_c, 2, 41, 0
4, 74640, Note_on_c, 2, 41, 107
4, 74820, Note_on_c, 2, 41, 0
4, 74880, Note_on_c, 2, 38, 94
4, 75060, Note_on_c, 2, 38, 0
4, 75120, Note_on_c, 2, 38, 94
4, 75300, Note_on_c, 2, 38, 0
4, 75360, Note_on_c, 2, 42, 94
4, 75540, Note_on_c, 2, 42, 0
4, 75600, Note_on_c, 2, 42, 94
4, 75780, Note_on_c, 2, 42, 0
4, 75840, Note_on_c, 2, 45, 94
4, 76020, Note_on_c, 2, 45, 0
4, 76080, Note_on_c, 2, 45, 94
4, 76260, Note_on_c, 2, 45, 0
4, 76320, Note_on_c, 2, 47, 94
4, 76500, Note_on_c, 2, 47, 0
4, 76560, Note_on_c, 2, 45, 94
4, 76740, Note_on_c, 2, 45, 0
4, 76800, Note_on_c, 2, 41, 84
4, 76980, Note_on_c, 2, 41, 0
4, 77040, Note_on_c, 2, 41, 94
4, 77220, Note_on_c, 2, 41, 0
4, 77280, Note_on_c, 2, 41, 94
4, 77460, Note_on_c, 2, 41, 0
4, 77520, Note_on_c, 2, 41, 94
4, 77700, Note_on_c, 2, 41, 0
4, 77760, Note_on_c, 2, 41, 94
4, 77940, Note_on_c, 2, 41, 0
4, 78000, Note_on_c, 2, 41, 104
4, 78180, Note_on_c, 2, 41, 0
4, 78240, Note_on_c, 2, 41, 114
4, 78420, Note_on_c, 2, 41, 0
4, 78480, Note_on_c, 2, 41, 127
4, 78660, Note_on_c, 2, 41, 0
4, 78720, Note_on_c, 2, 36, 64
4, 79860, Note_on_c, 2, 36, 0
4, 79920, Note_on_c, 2, 43, 64
4, 80100, Note_on_c, 2, 43, 0
4, 80160, Note_on_c, 2, 48, 64
4, 80340, Note_on_c, 2, 48, 0
4, 80400, Note_on_c, 2, 43, 64
4, 80580, Note_on_c, 2, 43, 0
4, 80640, Note_on_c, 2, 40, 64
4, 81780, Note_on_c, 2, 40, 0
4, 81840, Note_on_c, 2, 40, 64
4, 82020, Note_on_c, 2, 40, 0
4, 82080, Note_on_c, 2, 48, 64
4, 82260, Note_on_c, 2, 48, 0
4, 82320, Note_on_c, 2, 43, 64
4, 82500, Note_on_c, 2, 43, 0
4, 82560, Note_on_c, 2, 41, 64
4, 83460, Note_on_c, 2, 41, 0
4, 83520, Note_on_c, 2, 41, 64
4, 83940, Note_on_c, 2, 41, 0
4, 84000, Note_on_c, 2, 41, 64
4, 84180, Note_on_c, 2, 41, 0
4, 84240, Note_on_c, 2, 42, 64
4, 84420, Note_on_c, 2, 42, 0
4, 84480, Note_on_c, 2, 43, 64
4, 84900, Note_on_c, 2, 43, 0
4, 84960, Note_on_c, 2, 35, 64
4, 85380, Note_on_c, 2, 35, 0
4, 85440, Note_on_c, 2, 41, 64
4, 85860, Note_on_c, 2, 41, 0
4, 85920, Note_on_c, 2, 41, 64
4, 86100, Note_on_c, 2, 41, 0
4, 86160, Note_on_c, 2, 38, 64
4, 86340, Note_on_c, 2, 38, 0
4, 86400, Note_on_c, 2, 36, 64
4, 87300, Note_on_c, 2, 36, 0
4, 87360, Note_on_c, 2, 48, 64
4, 87540, Note_on_c, 2, 48, 0
4, 87600, Note_on_c, 2, 43, 64
4, 87780, Note_on_c, 2, 43, 0
4, 87840, Note_on_c, 2, 48, 64
4, 88020, Note_on_c, 2, 48, 0
4, 88080, Note_on_c, 2, 43, 64
4, 88260, Note_on_c, 2, 43, 0
4, 88320, Note_on_c, 2, 40, 64
4, 89460, Note_on_c, 2, 40, 0
4, 89520, Note_on_c, 2, 40, 64
4, 89700, Note_on_c, 2, 40, 0
4, 89760, Note_on_c, 2, 48, 64
4, 89940, Note_on_c, 2, 48, 0
4, 90000, Note_on_c, 2, 43, 64
4, 90180, Note_on_c, 2, 43, 0
4, 90240, Note_on_c, 2, 41, 64
4, 91620, Note_on_c, 2, 41, 0
4, 91680, Note_on_c, 2, 41, 64
4, 91860, Note_on_c, 2, 41, 0
4, 91920, Note_on_c, 2, 42, 64
4, 92100, Note_on_c, 2, 42, 0
4, 92160, Note_on_c, 2, 43, 64
4, 93060, Note_on_c, 2, 43, 0
4, 93120, Note_on_c, 2, 43, 64
4, 93300, Note_on_c, 2, 43, 0
4, 93360, Note_on_c, 2, 38, 64
4, 93540, Note_on_c, 2, 38, 0
4, 93600, Note_on_c, 2, 43, 64
4, 93780, Note_on_c, 2, 43, 0
4, 93840, Note_on_c, 2, 38, 64
4, 94020, Note_on_c, 2, 38, 0
4, 94080, Note_on_c, 2, 36, 64
4, 94500, Note_on_c, 2, 36, 0
4, 94560, Note_on_c, 2, 43, 64
4, 94740, Note_on_c, 2, 43, 0
4, 94800, Note_on_c, 2, 48, 64
4, 94980, Note_on_c, 2, 48, 0
4, 95040, Note_on_c, 2, 38, 64
4, 95460, Note_on_c, 2, 38, 0
4, 95520, Note_on_c, 2, 45, 64
4, 95700, Note_on_c, 2, 45, 0
4, 95760, Note_on_c, 2, 50, 64
4, 95940, Note_on_c, 2, 50, 0
4, 96000, Note_on_c, 2, 40, 64
4, 96420, Note_on_c, 2, 40, 0
4, 96480, Note_on_c, 2, 47, 64
4, 96660, Note_on_c, 2, 47, 0
4, 96720, Note_on_c, 2, 52, 64
4, 96900, Note_on_c, 2, 52, 0
4, 96960, Note_on_c, 2, 39, 64
4, 97380, Note_on_c, 2, 39, 0
4, 97440, Note_on_c, 2, 46, 64
4, 97620, Note_on_c, 2, 46, 0
4, 97680, Note_on_c, 2, 51, 64
4, 97860, Note_on_c, 2, 51, 0
4, 97920, Note_on_c, 2, 38, 64
4, 98580, Note_on_c, 2, 38, 0
4, 98640, Note_on_c, 2, 50, 64
4, 99060, Note_on_c, 2, 50, 0
4, 99120, Note_on_c, 2, 50, 64
4, 99300, Note_on_c, 2, 50, 0
4, 99360, Note_on_c, 2, 45, 64
4, 99540, Note_on_c, 2, 45, 0
4, 99600, Note_on_c, 2, 44, 64
4, 99780, Note_on_c, 2, 44, 0
4, 99840, Note_on_c, 2, 43, 64
4, 100500, Note_on_c, 2, 43, 0
4, 100560, Note_on_c, 2, 50, 64
4, 100980, Note_on_c, 2, 50, 0
4, 101040, Note_on_c, 2, 43, 64
4, 101220, Note_on_c, 2, 43, 0
4, 101280, Note_on_c, 2, 41, 64
4, 101460, Note_on_c, 2, 41, 0
4, 101520, Note_on_c, 2, 38, 64
4, 101700, Note_on_c, 2, 38, 0
4, 101760, Note_on_c, 2, 36, 64
4, 102180, Note_on_c, 2, 36, 0
4, 102240, Note_on_c, 2, 43, 64
4, 102420, Note_on_c, 2, 43, 0
4, 102480, Note_on_c, 2, 48, 64
4, 102660, Note_on_c, 2, 48, 0
4, 102720, Note_on_c, 2, 38, 64
4, 103140, Note_on_c, 2, 38, 0
4, 103200, Note_on_c, 2, 45, 64
4, 103380, Note_on_c, 2, 45, 0
4, 103440, Note_on_c, 2, 50, 64
4, 103620, Note_on_c, 2, 50, 0
4, 103680, Note_on_c, 2, 40, 64
4, 104100, Note_on_c, 2, 40, 0
4, 104160, Note_on_c, 2, 47, 64
4, 104340, Note_on_c, 2, 47, 0
4, 104400, Note_on_c, 2, 52, 64
4, 104580, Note_on_c, 2, 52, 0
4, 104640, Note_on_c, 2, 39, 64
4, 105060, Note_on_c, 2, 39, 0
4, 105120, Note_on_c, 2, 46, 64
4, 105300, Note_on_c, 2, 46, 0
4, 105360, Note_on_c, 2, 51, 64
4, 105540, Note_on_c, 2, 51, 0
4, 105600, Note_on_c, 2, 38, 64
4, 106260, Note_on_c, 2, 38, 0
4, 106320, Note_on_c, 2, 38, 64
4, 106740, Note_on_c, 2, 38, 0
4, 106800, Note_on_c, 2, 33, 64
4, 106980, Note_on_c, 2, 33, 0
4, 107040, Note_on_c, 2, 36, 64
4, 107220, Note_on_c, 2, 36, 0
4, 107280, Note_on_c, 2, 41, 64
4, 107460, Note_on_c, 2, 41, 0
4, 107520, Note_on_c, 2, 43, 64
4, 107940, Note_on_c, 2, 43, 0
4, 108000, Note_on_c, 2, 43, 64
4, 108180, Note_on_c, 2, 43, 0
4, 108240, Note_on_c, 2, 43, 64
4, 108420, Note_on_c, 2, 43, 0
4, 108480, Note_on_c, 2, 41, 64
4, 109140, Note_on_c, 2, 41, 0
4, 109200, Note_on_c, 2, 41, 64
4, 109380, Note_on_c, 2, 41, 0
4, 109440, Note_on_c, 2, 48, 94
4, 109491, Control_c, 2, 7, 89
4, 110100, Note_on_c, 2, 48, 0
4, 110160, Note_on_c, 2, 48, 94
4, 110340, Note_on_c, 2, 48, 0
4, 110400, Note_on_c, 2, 47, 94
4, 110705, Control_c, 2, 7, 86
4, 111060, Note_on_c, 2, 47, 0
4, 111120, Note_on_c, 2, 47, 94
4, 111300, Note_on_c, 2, 47, 0
4, 111360, Note_on_c, 2, 45, 94
4, 112020, Note_on_c, 2, 45, 0
4, 112080, Note_on_c, 2, 45, 94
4, 112260, Note_on_c, 2, 45, 0
4, 112320, Note_on_c, 2, 43, 94
4, 112980, Note_on_c, 2, 43, 0
4, 113040, Note_on_c, 2, 43, 94
4, 113220, Note_on_c, 2, 43, 0
4, 113280, Note_on_c, 2, 41, 94
4, 113940, Note_on_c, 2, 41, 0
4, 114000, Note_on_c, 2, 41, 94
4, 114180, Note_on_c, 2, 41, 0
4, 114240, Note_on_c, 2, 40, 94
4, 114900, Note_on_c, 2, 40, 0
4, 114960, Note_on_c, 2, 40, 94
4, 115140, Note_on_c, 2, 40, 0
4, 115200, Note_on_c, 2, 38, 104
4, 115380, Note_on_c, 2, 38, 0
4, 115440, Note_on_c, 2, 38, 104
4, 115860, Note_on_c, 2, 38, 0
4, 115920, Note_on_c, 2, 38, 104
4, 116100, Note_on_c, 2, 38, 0
4, 116160, Note_on_c, 2, 43, 114
4, 116820, Note_on_c, 2, 43, 0
4, 116880, Note_on_c, 2, 43, 114
4, 117060, Note_on_c, 2, 43, 0
4, 117120, Note_on_c, 2, 41, 114
4, 117780, Note_on_c, 2, 41, 0
4, 117840, Note_on_c, 2, 41, 114
4, 118020, Note_on_c, 2, 41, 0
4, 118080, Note_on_c, 2, 48, 114
4, 118740, Note_on_c, 2, 48, 0
4, 118800, Note_on_c, 2, 48, 114
4, 118980, Note_on_c, 2, 48, 0
4, 119040, Note_on_c, 2, 47, 114
4, 119700, Note_on_c, 2, 47, 0
4, 119760, Note_on_c, 2, 47, 114
4, 119940, Note_on_c, 2, 47, 0
4, 120000, Note_on_c, 2, 45, 114
4, 120660, Note_on_c, 2, 45, 0
4, 120720, Note_on_c, 2, 45, 114
4, 120900, Note_on_c, 2, 45, 0
4, 120960, Note_on_c, 2, 43, 114
4, 121620, Note_on_c, 2, 43, 0
4, 121680, Note_on_c, 2, 43, 114
4, 121860, Note_on_c, 2, 43, 0
4, 121920, Note_on_c, 2, 41, 114
4, 122580, Note_on_c, 2, 41, 0
4, 122640, Note_on_c, 2, 41, 114
4, 122820, Note_on_c, 2, 41, 0
4, 122880, Note_on_c, 2, 40, 114
4, 123540, Note_on_c, 2, 40, 0
4, 123600, Note_on_c, 2, 40, 114
4, 123780, Note_on_c, 2, 40, 0
4, 123840, Note_on_c, 2, 50, 94
4, 124500, Note_on_c, 2, 50, 0
4, 124560, Note_on_c, 2, 50, 94
4, 124740, Note_on_c, 2, 50, 0
4, 124800, Note_on_c, 2, 45, 94
4, 125220, Note_on_c, 2, 45, 0
4, 125280, Note_on_c, 2, 43, 94
4, 125700, Note_on_c, 2, 43, 0
4, 125760, Note_on_c, 2, 46, 94
4, 126180, Note_on_c, 2, 46, 0
4, 126240, Note_on_c, 2, 41, 94
4, 127620, Note_on_c, 2, 41, 0
4, 127680, Note_on_c, 2, 40, 94
4, 128100, Note_on_c, 2, 40, 0
4, 128160, Note_on_c, 2, 38, 94
4, 128580, Note_on_c, 2, 38, 0
4, 128640, Note_on_c, 2, 33, 94
4, 129060, Note_on_c, 2, 33, 0
4, 129120, Note_on_c, 2, 36, 94
4, 130500, Note_on_c, 2, 36, 0
4, 130560, Note_on_c, 2, 41, 94
4, 131220, Note_on_c, 2, 41, 0
4, 131280, Note_on_c, 2, 41, 94
4, 131700, Note_on_c, 2, 41, 0
4, 131760, Note_on_c, 2, 36, 94
4, 132180, Note_on_c, 2, 36, 0
4, 132240, Note_on_c, 2, 38, 94
4, 132420, Note_on_c, 2, 38, 0
4, 132480, Note_on_c, 2, 41, 94
4, 133140, Note_on_c, 2, 41, 0
4, 133200, Note_on_c, 2, 41, 94
4, 133620, Note_on_c, 2, 41, 0
4, 133680, Note_on_c, 2, 41, 94
4, 133860, Note_on_c, 2, 41, 0
4, 133920, Note_on_c, 2, 41, 94
4, 134100, Note_on_c, 2, 41, 0
4, 134160, Note_on_c, 2, 33, 94
4, 134340, Note_on_c, 2, 33, 0
4, 134400, Note_on_c, 2, 36, 94
4, 135540, Note_on_c, 2, 36, 0
4, 135600, Note_on_c, 2, 43, 94
4, 135780, Note_on_c, 2, 43, 0
4, 135840, Note_on_c, 2, 48, 94
4, 135930, Note_on_c, 2, 48, 0
4, 135960, Note_on_c, 2, 48, 94
4, 136140, Note_on_c, 2, 48, 0
4, 136200, Note_on_c, 2, 48, 94
4, 136290, Note_on_c, 2, 48, 0
4, 136320, Note_on_c, 2, 48, 94
4, 136980, Note_on_c, 2, 48, 0
4, 137040, Note_on_c, 2, 48, 94
4, 137460, Note_on_c, 2, 48, 0
4, 137520, Note_on_c, 2, 48, 94
4, 137700, Note_on_c, 2, 48, 0
4, 137760, Note_on_c, 2, 43, 94
4, 137940, Note_on_c, 2, 43, 0
4, 138000, Note_on_c, 2, 43, 94
4, 138180, Note_on_c, 2, 43, 0
4, 138240, Note_on_c, 2, 41, 94
4, 138900, Note_on_c, 2, 41, 0
4, 138960, Note_on_c, 2, 48, 94
4, 139380, Note_on_c, 2, 48, 0
4, 139440, Note_on_c, 2, 41, 94
4, 139620, Note_on_c, 2, 41, 0
4, 139680, Note_on_c, 2, 42, 94
4, 139860, Note_on_c, 2, 42, 0
4, 139920, Note_on_c, 2, 43, 94
4, 140100, Note_on_c, 2, 43, 0
4, 140160, Note_on_c, 2, 41, 94
4, 140820, Note_on_c, 2, 41, 0
4, 140880, Note_on_c, 2, 41, 94
4, 141300, Note_on_c, 2, 41, 0
4, 141360, Note_on_c, 2, 36, 94
4, 141540, Note_on_c, 2, 36, 0
4, 141600, Note_on_c, 2, 41, 94
4, 141780, Note_on_c, 2, 41, 0
4, 141840, Note_on_c, 2, 42, 94
4, 142020, Note_on_c, 2, 42, 0
4, 142080, Note_on_c, 2, 43, 94
4, 142740, Note_on_c, 2, 43, 0
4, 142800, Note_on_c, 2, 43, 94
4, 143220, Note_on_c, 2, 43, 0
4, 143280, Note_on_c, 2, 38, 94
4, 143460, Note_on_c, 2, 38, 0
4, 143520, Note_on_c, 2, 41, 94
4, 143700, Note_on_c, 2, 41, 0
4, 143760, Note_on_c, 2, 42, 94
4, 143940, Note_on_c, 2, 42, 0
4, 144000, Note_on_c, 2, 43, 94
4, 144420, Note_on_c, 2, 43, 0
4, 144480, Note_on_c, 2, 43, 94
4, 144660, Note_on_c, 2, 43, 0
4, 144720, Note_on_c, 2, 43, 94
4, 144900, Note_on_c, 2, 43, 0
4, 144960, Note_on_c, 2, 41, 94
4, 145380, Note_on_c, 2, 41, 0
4, 145440, Note_on_c, 2, 41, 94
4, 145860, Note_on_c, 2, 41, 0
4, 145920, Note_on_c, 2, 48, 94
4, 146580, Note_on_c, 2, 48, 0
4, 146640, Note_on_c, 2, 48, 94
4, 146820, Note_on_c, 2, 48, 0
4, 146880, Note_on_c, 2, 47, 94
4, 147540, Note_on_c, 2, 47, 0
4, 147600, Note_on_c, 2, 47, 94
4, 147780, Note_on_c, 2, 47, 0
4, 147840, Note_on_c, 2, 45, 94
4, 148500, Note_on_c, 2, 45, 0
4, 148560, Note_on_c, 2, 45, 94
4, 148740, Note_on_c, 2, 45, 0
4, 148800, Note_on_c, 2, 43, 94
4, 149460, Note_on_c, 2, 43, 0
4, 149520, Note_on_c, 2, 43, 94
4, 149700, Note_on_c, 2, 43, 0
4, 149760, Note_on_c, 2, 41, 94
4, 150420, Note_on_c, 2, 41, 0
4, 150480, Note_on_c, 2, 41, 94
4, 150660, Note_on_c, 2, 41, 0
4, 150720, Note_on_c, 2, 40, 94
4, 151380, Note_on_c, 2, 40, 0
4, 151440, Note_on_c, 2, 40, 94
4, 151620, Note_on_c, 2, 40, 0
4, 151680, Note_on_c, 2, 38, 94
4, 152340, Note_on_c, 2, 38, 0
4, 152400, Note_on_c, 2, 38, 94
4, 152580, Note_on_c, 2, 38, 0
4, 152640, Note_on_c, 2, 43, 104
4, 153300, Note_on_c, 2, 43, 0
4, 153360, Note_on_c, 2, 43, 104
4, 153540, Note_on_c, 2, 43, 0
4, 153600, Note_on_c, 2, 41, 104
4, 154260, Note_on_c, 2, 41, 0
4, 154320, Note_on_c, 2, 41, 104
4, 154500, Note_on_c, 2, 41, 0
4, 154560, Note_on_c, 2, 48, 104
4, 155220, Note_on_c, 2, 48, 0
4, 155280, Note_on_c, 2, 48, 104
4, 155460, Note_on_c, 2, 48, 0
4, 155520, Note_on_c, 2, 47, 104
4, 156180, Note_on_c, 2, 47, 0
4, 156240, Note_on_c, 2, 47, 104
4, 156420, Note_on_c, 2, 47, 0
4, 156480, Note_on_c, 2, 45, 104
4, 157140, Note_on_c, 2, 45, 0
4, 157200, Note_on_c, 2, 45, 104
4, 157380, Note_on_c, 2, 45, 0
4, 157440, Note_on_c, 2, 43, 104
4, 158100, Note_on_c, 2, 43, 0
4, 158160, Note_on_c, 2, 43, 104
4, 158340, Note_on_c, 2, 43, 0
4, 158400, Note_on_c, 2, 41, 104
4, 159060, Note_on_c, 2, 41, 0
4, 159120, Note_on_c, 2, 41, 104
4, 159300, Note_on_c, 2, 41, 0
4, 159360, Note_on_c, 2, 40, 104
4, 160020, Note_on_c, 2, 40, 0
4, 160080, Note_on_c, 2, 40, 104
4, 160260, Note_on_c, 2, 40, 0
4, 160320, Note_on_c, 2, 50, 104
4, 160980, Note_on_c, 2, 50, 0
4, 161040, Note_on_c, 2, 50, 104
4, 161220, Note_on_c, 2, 50, 0
4, 161280, Note_on_c, 2, 45, 104
4, 161700, Note_on_c, 2, 45, 0
4, 161760, Note_on_c, 2, 43, 104
4, 162180, Note_on_c, 2, 43, 0
4, 162240, Note_on_c, 2, 46, 104
4, 162660, Note_on_c, 2, 46, 0
4, 162720, Note_on_c, 2, 41, 104
4, 164100, Note_on_c, 2, 41, 0
4, 164160, Note_on_c, 2, 40, 104
4, 164580, Note_on_c, 2, 40, 0
4, 164640, Note_on_c, 2, 38, 104
4, 165060, Note_on_c, 2, 38, 0
4, 165120, Note_on_c, 2, 33, 104
4, 165540, Note_on_c, 2, 33, 0
4, 165600, Note_on_c, 2, 36, 64
4, 166980, Note_on_c, 2, 36, 0
4, 167040, Note_on_c, 2, 45, 64
4, 167460, Note_on_c, 2, 45, 0
4, 167520, Note_on_c, 2, 43, 64
4, 167940, Note_on_c, 2, 43, 0
4, 168000, Note_on_c, 2, 46, 64
4, 168420, Note_on_c, 2, 46, 0
4, 168480, Note_on_c, 2, 41, 64
4, 169860, Note_on_c, 2, 41, 0
4, 169920, Note_on_c, 2, 52, 64
4, 170340, Note_on_c, 2, 52, 0
4, 170400, Note_on_c, 2, 50, 64
4, 170820, Note_on_c, 2, 50, 0
4, 170880, Note_on_c, 2, 45, 64
4, 171300, Note_on_c, 2, 45, 0
4, 171360, Note_on_c, 2, 48, 64
4, 173220, Note_on_c, 2, 48, 0
4, 173280, Note_on_c, 2, 50, 64
4, 174420, Note_on_c, 2, 50, 0
4, 174480, Note_on_c, 2, 57, 64
4, 175140, Note_on_c, 2, 57, 0
4, 175200, Note_on_c, 2, 52, 64
4, 176340, Note_on_c, 2, 52, 0
4, 176400, Note_on_c, 2, 59, 64
4, 176480, Control_c, 2, 7, 89
4, 176580, Note_on_c, 2, 59, 0
4, 176580, Control_c, 2, 7, 90
4, 176640, Control_c, 2, 7, 91
4, 176640, Note_on_c, 2, 52, 64
4, 176660, Control_c, 2, 7, 92
4, 176880, Control_c, 2, 7, 93
4, 176920, Control_c, 2, 7, 94
4, 177060, Note_on_c, 2, 52, 0
4, 177120, Control_c, 2, 7, 95
4, 177120, Note_on_c, 2, 51, 64
4, 177160, Control_c, 2, 7, 96
4, 177300, Control_c, 2, 7, 97
4, 177440, Control_c, 2, 7, 98
4, 177620, Control_c, 2, 7, 99
4, 177660, Control_c, 2, 7, 100
4, 177780, Control_c, 2, 7, 101
4, 177880, Control_c, 2, 7, 103
4, 178500, Note_on_c, 2, 51, 0
4, 178560, Note_on_c, 2, 52, 64
4, 178980, Note_on_c, 2, 52, 0
4, 179040, Note_on_c, 2, 50, 64
4, 180180, Note_on_c, 2, 50, 0
4, 180240, Note_on_c, 2, 57, 64
4, 180660, Note_on_c, 2, 57, 0
4, 180720, Note_on_c, 2, 53, 64
4, 180900, Note_on_c, 2, 53, 0
4, 180960, Note_on_c, 2, 49, 64
4, 181860, Note_on_c, 2, 49, 0
4, 181920, Note_on_c, 2, 49, 64
4, 182100, Note_on_c, 2, 49, 0
4, 182160, Note_on_c, 2, 51, 64
4, 182340, Note_on_c, 2, 51, 0
4, 182400, Note_on_c, 2, 49, 64
4, 182820, Note_on_c, 2, 49, 0
4, 182880, Note_on_c, 2, 48, 64
4, 186660, Note_on_c, 2, 48, 0
4, 186660, End_track
5, 0, Start_track
5, 0, MIDI_port, 0
5, 0, Title_t, "SAX 9-3 (MC)"
5, 0, Program_c, 3, 65
5, 0, Control_c, 3, 7, 101
5, 0, Control_c, 3, 10, 43
5, 0, Control_c, 3, 91, 88
5, 172800, Note_on_c, 3, 64, 64
5, 173100, Note_on_c, 3, 64, 0
5, 173120, Note_on_c, 3, 62, 64
5, 173300, Note_on_c, 3, 62, 0
5, 173440, Note_on_c, 3, 64, 64
5, 173620, Note_on_c, 3, 64, 0
5, 173760, Note_on_c, 3, 64, 64
5, 174240, Note_on_c, 3, 64, 0
5, 174240, Note_on_c, 3, 62, 64
5, 174480, Note_on_c, 3, 62, 0
5, 174480, Note_on_c, 3, 60, 64
5, 174720, Note_on_c, 3, 60, 0
5, 174720, Note_on_c, 3, 62, 64
5, 175140, Note_on_c, 3, 62, 0
5, 175920, Note_on_c, 3, 69, 64
5, 176340, Note_on_c, 3, 69, 0
5, 176400, Note_on_c, 3, 67, 64
5, 176580, Note_on_c, 3, 67, 0
5, 176640, Note_on_c, 3, 64, 64
5, 176820, Note_on_c, 3, 64, 0
5, 176880, Note_on_c, 3, 62, 64
5, 176970, Note_on_c, 3, 62, 0
5, 177000, Note_on_c, 3, 60, 64
5, 177540, Note_on_c, 3, 60, 0
5, 177600, Note_on_c, 3, 63, 64
5, 178320, Note_on_c, 3, 63, 0
5, 178320, Note_on_c, 3, 62, 64
5, 178400, Note_on_c, 3, 62, 0
5, 178400, Note_on_c, 3, 64, 64
5, 178480, Note_on_c, 3, 64, 0
5, 178480, Note_on_c, 3, 62, 64
5, 178560, Note_on_c, 3, 62, 0
5, 178560, Note_on_c, 3, 60, 64
5, 178800, Note_on_c, 3, 60, 0
5, 178800, Note_on_c, 3, 62, 64
5, 178980, Note_on_c, 3, 62, 0
5, 179840, Note_on_c, 3, 63, 64
5, 180020, Note_on_c, 3, 63, 0
5, 180160, Note_on_c, 3, 62, 64
5, 180340, Note_on_c, 3, 62, 0
5, 180480, Note_on_c, 3, 60, 64
5, 180900, Note_on_c, 3, 60, 0
5, 180960, Note_on_c, 3, 62, 64
5, 181380, Note_on_c, 3, 62, 0
5, 181440, Note_on_c, 3, 60, 64
5, 182100, Note_on_c, 3, 60, 0
5, 182160, Note_on_c, 3, 65, 64
5, 182580, Note_on_c, 3, 65, 0
5, 182640, Note_on_c, 3, 64, 64
5, 182820, Note_on_c, 3, 64, 0
5, 182880, Note_on_c, 3, 65, 64
5, 183300, Note_on_c, 3, 65, 0
5, 183360, Note_on_c, 3, 65, 64
5, 183540, Note_on_c, 3, 65, 0
5, 183680, Note_on_c, 3, 64, 64
5, 183860, Note_on_c, 3, 64, 0
5, 184000, Note_on_c, 3, 65, 64
5, 184180, Note_on_c, 3, 65, 0
5, 184320, Note_on_c, 3, 64, 64
5, 185760, Note_on_c, 3, 64, 0
5, 185760, End_track
6, 0, Start_track
6, 0, MIDI_port, 0
6, 0, Title_t, "Melody"
6, 0, Program_c, 4, 66
6, 0, Control_c, 4, 7, 91
6, 0, Control_c, 4, 10, 64
6, 0, Control_c, 4, 91, 26
6, 17640, Note_on_c, 4, 62, 75
6, 17760, Note_on_c, 4, 62, 0
6, 17760, Note_on_c, 4, 64, 75
6, 18000, Note_on_c, 4, 64, 0
6, 18000, Note_on_c, 4, 62, 75
6, 18240, Note_on_c, 4, 62, 0
6, 18240, Note_on_c, 4, 64, 75
6, 18600, Note_on_c, 4, 64, 0
6, 18600, Note_on_c, 4, 62, 75
6, 18720, Note_on_c, 4, 62, 0
6, 18720, Note_on_c, 4, 64, 75
6, 18840, Note_on_c, 4, 64, 0
6, 18960, Note_on_c, 4, 67, 75
6, 19440, Note_on_c, 4, 67, 0
6, 19680, Note_on_c, 4, 71, 75
6, 20040, Note_on_c, 4, 71, 0
6, 20040, Note_on_c, 4, 67, 75
6, 20160, Note_on_c, 4, 67, 0
6, 20160, Note_on_c, 4, 69, 75
6, 20640, Note_on_c, 4, 69, 0
6, 20880, Note_on_c, 4, 69, 75
6, 21000, Note_on_c, 4, 69, 0
6, 21000, Note_on_c, 4, 71, 75
6, 21120, Note_on_c, 4, 71, 0
6, 21120, Note_on_c, 4, 72, 75
6, 21720, Note_on_c, 4, 72, 0
6, 21840, Note_on_c, 4, 72, 75
6, 22080, Note_on_c, 4, 72, 0
6, 22080, Note_on_c, 4, 69, 75
6, 22320, Note_on_c, 4, 69, 0
6, 22440, Note_on_c, 4, 67, 75
6, 22680, Note_on_c, 4, 67, 0
6, 22800, Note_on_c, 4, 69, 75
6, 23160, Note_on_c, 4, 69, 0
6, 23280, Note_on_c, 4, 62, 75
6, 23520, Note_on_c, 4, 62, 0
6, 23520, Note_on_c, 4, 62, 75
6, 23640, Note_on_c, 4, 62, 0
6, 23760, Note_on_c, 4, 64, 75
6, 24000, Note_on_c, 4, 64, 0
6, 24000, Note_on_c, 4, 65, 75
6, 24240, Note_on_c, 4, 65, 0
6, 24240, Note_on_c, 4, 64, 75
6, 24360, Note_on_c, 4, 64, 0
6, 24360, Note_on_c, 4, 62, 75
6, 24600, Note_on_c, 4, 62, 0
6, 24600, Note_on_c, 4, 60, 75
6, 24960, Note_on_c, 4, 60, 0
6, 25320, Note_on_c, 4, 64, 75
6, 25440, Note_on_c, 4, 64, 0
6, 25440, Note_on_c, 4, 64, 75
6, 25680, Note_on_c, 4, 64, 0
6, 25680, Note_on_c, 4, 62, 75
6, 25920, Note_on_c, 4, 62, 0
6, 25920, Note_on_c, 4, 64, 75
6, 26160, Note_on_c, 4, 64, 0
6, 26160, Note_on_c, 4, 62, 75
6, 26280, Note_on_c, 4, 62, 0
6, 26280, Note_on_c, 4, 64, 75
6, 26640, Note_on_c, 4, 64, 0
6, 26640, Note_on_c, 4, 67, 75
6, 27120, Note_on_c, 4, 67, 0
6, 27360, Note_on_c, 4, 71, 75
6, 27720, Note_on_c, 4, 71, 0
6, 27720, Note_on_c, 4, 67, 75
6, 27840, Note_on_c, 4, 67, 0
6, 27840, Note_on_c, 4, 69, 75
6, 28440, Note_on_c, 4, 69, 0
6, 28440, Note_on_c, 4, 67, 75
6, 28560, Note_on_c, 4, 67, 0
6, 28560, Note_on_c, 4, 69, 75
6, 28680, Note_on_c, 4, 69, 0
6, 28680, Note_on_c, 4, 71, 75
6, 28800, Note_on_c, 4, 71, 0
6, 28800, Note_on_c, 4, 71, 75
6, 28920, Note_on_c, 4, 71, 0
6, 28920, Note_on_c, 4, 72, 75
6, 29280, Note_on_c, 4, 72, 0
6, 29640, Note_on_c, 4, 69, 75
6, 29760, Note_on_c, 4, 69, 0
6, 29760, Note_on_c, 4, 72, 75
6, 30120, Note_on_c, 4, 72, 0
6, 30240, Note_on_c, 4, 76, 75
6, 30480, Note_on_c, 4, 76, 0
6, 30480, Note_on_c, 4, 74, 75
6, 31080, Note_on_c, 4, 74, 0
6, 32400, Note_on_c, 4, 76, 75
6, 32520, Note_on_c, 4, 76, 0
6, 32520, Note_on_c, 4, 76, 75
6, 32760, Note_on_c, 4, 76, 0
6, 32880, Note_on_c, 4, 79, 75
6, 33360, Note_on_c, 4, 79, 0
6, 33360, Note_on_c, 4, 76, 75
6, 33720, Note_on_c, 4, 76, 0
6, 33840, Note_on_c, 4, 74, 75
6, 34200, Note_on_c, 4, 74, 0
6, 34320, Note_on_c, 4, 72, 75
6, 34440, Note_on_c, 4, 72, 0
6, 34440, Note_on_c, 4, 71, 75
6, 34800, Note_on_c, 4, 71, 0
6, 34920, Note_on_c, 4, 67, 75
6, 35520, Note_on_c, 4, 67, 0
6, 36240, Note_on_c, 4, 72, 75
6, 36360, Note_on_c, 4, 72, 0
6, 36360, Note_on_c, 4, 72, 75
6, 36840, Note_on_c, 4, 72, 0
6, 36840, Note_on_c, 4, 72, 75
6, 37560, Note_on_c, 4, 72, 0
6, 37680, Note_on_c, 4, 72, 75
6, 38040, Note_on_c, 4, 72, 0
6, 38040, Note_on_c, 4, 72, 75
6, 38160, Note_on_c, 4, 72, 0
6, 38280, Note_on_c, 4, 72, 75
6, 38400, Note_on_c, 4, 72, 0
6, 38520, Note_on_c, 4, 76, 75
6, 38880, Note_on_c, 4, 76, 0
6, 39960, Note_on_c, 4, 76, 75
6, 40080, Note_on_c, 4, 76, 0
6, 40080, Note_on_c, 4, 76, 75
6, 40200, Note_on_c, 4, 76, 0
6, 40200, Note_on_c, 4, 77, 75
6, 40320, Note_on_c, 4, 77, 0
6, 40440, Note_on_c, 4, 79, 75
6, 40920, Note_on_c, 4, 79, 0
6, 41040, Note_on_c, 4, 76, 75
6, 41280, Note_on_c, 4, 76, 0
6, 41400, Note_on_c, 4, 74, 75
6, 41880, Note_on_c, 4, 74, 0
6, 42000, Note_on_c, 4, 72, 75
6, 42120, Note_on_c, 4, 72, 0
6, 42120, Note_on_c, 4, 71, 75
6, 42480, Note_on_c, 4, 71, 0
6, 42480, Note_on_c, 4, 69, 75
6, 43320, Note_on_c, 4, 69, 0
6, 43800, Note_on_c, 4, 72, 75
6, 43920, Note_on_c, 4, 72, 0
6, 43920, Note_on_c, 4, 72, 75
6, 44160, Note_on_c, 4, 72, 0
6, 44160, Note_on_c, 4, 69, 75
6, 44400, Note_on_c, 4, 69, 0
6, 44400, Note_on_c, 4, 72, 75
6, 44760, Note_on_c, 4, 72, 0
6, 45000, Note_on_c, 4, 69, 75
6, 45120, Note_on_c, 4, 72, 75
6, 45240, Note_on_c, 4, 69, 0
6, 45480, Note_on_c, 4, 72, 0
6, 45600, Note_on_c, 4, 76, 75
6, 45840, Note_on_c, 4, 76, 0
6, 45840, Note_on_c, 4, 74, 75
6, 46200, Note_on_c, 4, 74, 0
6, 46320, Note_on_c, 4, 77, 75
6, 46440, Note_on_c, 4, 77, 0
6, 46560, Note_on_c, 4, 77, 75
6, 46680, Note_on_c, 4, 77, 0
6, 46800, Note_on_c, 4, 77, 75
6, 46920, Note_on_c, 4, 77, 0
6, 47040, Note_on_c, 4, 77, 75
6, 47280, Note_on_c, 4, 77, 0
6, 47280, Note_on_c, 4, 79, 75
6, 47640, Note_on_c, 4, 79, 0
6, 47682, Control_c, 4, 7, 94
6, 47760, Note_on_c, 4, 76, 75
6, 47805, Control_c, 4, 7, 95
6, 47825, Control_c, 4, 7, 96
6, 47851, Control_c, 4, 7, 97
6, 47885, Control_c, 4, 7, 98
6, 47925, Control_c, 4, 7, 99
6, 47970, Control_c, 4, 7, 100
6, 48000, Note_on_c, 4, 64, 75
6, 48000, Note_on_c, 4, 76, 75
6, 48003, Note_on_c, 4, 67, 75
6, 48007, Control_c, 4, 7, 101
6, 48360, Note_on_c, 4, 76, 0
6, 48480, Note_on_c, 4, 76, 0
6, 48540, Note_on_c, 4, 67, 0
6, 48600, Note_on_c, 4, 64, 0
6, 48705, Note_on_c, 4, 67, 75
6, 48720, Note_on_c, 4, 64, 75
6, 48720, Note_on_c, 4, 76, 75
6, 48840, Note_on_c, 4, 64, 0
6, 48904, Note_on_c, 4, 67, 0
6, 48952, Note_on_c, 4, 71, 75
6, 48960, Note_on_c, 4, 76, 0
6, 48960, Note_on_c, 4, 79, 75
6, 48960, Note_on_c, 4, 67, 75
6, 49320, Note_on_c, 4, 67, 0
6, 49320, Note_on_c, 4, 79, 0
6, 49334, Note_on_c, 4, 71, 0
6, 49433, Note_on_c, 4, 72, 75
6, 49440, Note_on_c, 4, 81, 75
6, 49440, Note_on_c, 4, 69, 75
6, 49649, Note_on_c, 4, 72, 0
6, 49680, Note_on_c, 4, 69, 0
6, 49680, Note_on_c, 4, 81, 0
6, 49680, Note_on_c, 4, 60, 75
6, 49680, Note_on_c, 4, 72, 75
6, 49680, Note_on_c, 4, 64, 75
6, 50100, Control_c, 4, 7, 122
6, 50160, Note_on_c, 4, 72, 0
6, 50160, Note_on_c, 4, 76, 75
6, 50400, Note_on_c, 4, 76, 0
6, 50400, Note_on_c, 4, 60, 0
6, 50400, Note_on_c, 4, 76, 75
6, 50419, Note_on_c, 4, 64, 0
6, 50640, Note_on_c, 4, 76, 0
6, 50640, Note_on_c, 4, 77, 75
6, 51000, Note_on_c, 4, 77, 0
6, 51120, Note_on_c, 4, 76, 75
6, 51360, Note_on_c, 4, 76, 0
6, 51360, Note_on_c, 4, 72, 75
6, 51840, Note_on_c, 4, 72, 0
6, 51887, Control_c, 4, 7, 122
6, 51887, Control_c, 4, 7, 123
6, 51907, Control_c, 4, 7, 119
6, 51927, Control_c, 4, 7, 118
6, 51967, Control_c, 4, 7, 117
6, 52007, Control_c, 4, 7, 114
6, 52040, Control_c, 4, 7, 113
6, 52320, Note_on_c, 4, 72, 75
6, 52560, Note_on_c, 4, 72, 0
6, 52560, Note_on_c, 4, 69, 75
6, 52780, Control_c, 4, 7, 114
6, 52800, Note_on_c, 4, 69, 0
6, 52800, Note_on_c, 4, 72, 75
6, 53160, Note_on_c, 4, 72, 0
6, 53160, Note_on_c, 4, 69, 75
6, 53280, Note_on_c, 4, 69, 0
6, 53280, Note_on_c, 4, 72, 75
6, 53640, Note_on_c, 4, 72, 0
6, 53640, Note_on_c, 4, 69, 75
6, 53760, Note_on_c, 4, 69, 0
6, 53760, Note_on_c, 4, 74, 75
6, 53880, Note_on_c, 4, 74, 0
6, 53880, Note_on_c, 4, 74, 75
6, 54000, Note_on_c, 4, 74, 0
6, 54000, Note_on_c, 4, 76, 75
6, 54720, Note_on_c, 4, 76, 0
6, 54800, Control_c, 4, 7, 105
6, 54800, Control_c, 4, 7, 113
6, 54837, Control_c, 4, 7, 104
6, 54877, Control_c, 4, 7, 103
6, 54900, Control_c, 4, 7, 100
6, 54920, Control_c, 4, 7, 99
6, 54960, Note_on_c, 4, 77, 75
6, 55080, Note_on_c, 4, 77, 0
6, 55200, Note_on_c, 4, 77, 75
6, 55320, Note_on_c, 4, 77, 0
6, 55440, Note_on_c, 4, 77, 75
6, 55560, Note_on_c, 4, 77, 0
6, 55680, Note_on_c, 4, 77, 75
6, 55800, Note_on_c, 4, 77, 0
6, 55860, Control_c, 4, 7, 101
6, 55880, Control_c, 4, 7, 109
6, 55900, Control_c, 4, 7, 112
6, 55920, Control_c, 4, 7, 113
6, 55920, Note_on_c, 4, 79, 75
6, 55945, Control_c, 4, 7, 114
6, 56278, Control_c, 4, 7, 112
6, 56298, Control_c, 4, 7, 109
6, 56340, Control_c, 4, 7, 108
6, 56400, Note_on_c, 4, 79, 0
6, 56400, Note_on_c, 4, 76, 75
6, 56402, Control_c, 4, 7, 106
6, 56422, Control_c, 4, 7, 105
6, 56633, Note_on_c, 4, 67, 75
6, 56640, Note_on_c, 4, 64, 75
6, 57208, Note_on_c, 4, 67, 0
6, 57240, Note_on_c, 4, 64, 0
6, 57240, Note_on_c, 4, 76, 0
6, 57360, Note_on_c, 4, 64, 75
6, 57360, Note_on_c, 4, 76, 75
6, 57364, Note_on_c, 4, 67, 75
6, 57480, Note_on_c, 4, 76, 0
6, 57558, Note_on_c, 4, 67, 0
6, 57600, Note_on_c, 4, 64, 0
6, 57600, Note_on_c, 4, 67, 75
6, 57600, Note_on_c, 4, 79, 75
6, 57608, Note_on_c, 4, 71, 75
6, 57960, Note_on_c, 4, 79, 0
6, 57960, Note_on_c, 4, 67, 0
6, 58017, Note_on_c, 4, 71, 0
6, 58080, Note_on_c, 4, 69, 75
6, 58080, Note_on_c, 4, 81, 75
6, 58080, Note_on_c, 4, 72, 75
6, 58320, Note_on_c, 4, 81, 0
6, 58320, Note_on_c, 4, 69, 0
6, 58320, Note_on_c, 4, 72, 75
6, 58320, Note_on_c, 4, 60, 75
6, 58337, Note_on_c, 4, 72, 0
6, 58352, Note_on_c, 4, 64, 75
6, 58660, Control_c, 4, 7, 113
6, 58677, Control_c, 4, 7, 115
6, 58697, Control_c, 4, 7, 118
6, 58800, Note_on_c, 4, 72, 0
6, 58800, Note_on_c, 4, 76, 75
6, 58920, Note_on_c, 4, 76, 0
6, 59000, Control_c, 4, 7, 115
6, 59024, Note_on_c, 4, 64, 0
6, 59024, Control_c, 4, 7, 108
6, 59040, Note_on_c, 4, 60, 0
6, 59040, Note_on_c, 4, 76, 75
6, 59042, Control_c, 4, 7, 106
6, 59260, Control_c, 4, 7, 114
6, 59280, Note_on_c, 4, 76, 0
6, 59280, Control_c, 4, 7, 117
6, 59280, Note_on_c, 4, 77, 75
6, 59285, Control_c, 4, 7, 119
6, 59640, Note_on_c, 4, 77, 0
6, 59760, Note_on_c, 4, 76, 75
6, 60000, Note_on_c, 4, 76, 0
6, 60000, Note_on_c, 4, 72, 75
6, 60600, Note_on_c, 4, 72, 0
6, 60600, Control_c, 4, 7, 117
6, 60620, Control_c, 4, 7, 109
6, 60640, Control_c, 4, 7, 106
6, 60660, Control_c, 4, 7, 105
6, 60960, Note_on_c, 4, 72, 75
6, 61160, Control_c, 4, 7, 108
6, 61180, Control_c, 4, 7, 109
6, 61200, Note_on_c, 4, 72, 0
6, 61200, Note_on_c, 4, 69, 75
6, 61440, Note_on_c, 4, 69, 0
6, 61440, Note_on_c, 4, 72, 75
6, 61720, Control_c, 4, 7, 108
6, 61740, Control_c, 4, 7, 106
6, 61760, Control_c, 4, 7, 105
6, 61800, Note_on_c, 4, 72, 0
6, 61800, Note_on_c, 4, 69, 75
6, 61920, Note_on_c, 4, 69, 0
6, 61920, Note_on_c, 4, 72, 75
6, 62040, Note_on_c, 4, 72, 0
6, 62040, Note_on_c, 4, 72, 75
6, 62280, Note_on_c, 4, 72, 0
6, 62280, Note_on_c, 4, 72, 75
6, 62400, Note_on_c, 4, 72, 0
6, 62400, Note_on_c, 4, 74, 75
6, 62480, Control_c, 4, 7, 106
6, 62580, Control_c, 4, 7, 107
6, 62600, Control_c, 4, 7, 108
6, 62620, Control_c, 4, 7, 109
6, 62640, Note_on_c, 4, 74, 0
6, 62640, Note_on_c, 4, 76, 75
6, 62740, Control_c, 4, 7, 110
6, 62774, Control_c, 4, 7, 112
6, 63022, Control_c, 4, 7, 104
6, 63042, Control_c, 4, 7, 103
6, 63060, Control_c, 4, 7, 102
6, 63120, Note_on_c, 4, 76, 0
6, 63265, Control_c, 4, 7, 105
6, 63285, Control_c, 4, 7, 113
6, 63300, Control_c, 4, 7, 121
6, 63320, Control_c, 4, 7, 122
6, 63360, Note_on_c, 4, 76, 75
6, 63367, Control_c, 4, 7, 123
6, 63720, Note_on_c, 4, 76, 0
6, 63800, Control_c, 4, 7, 121
6, 63828, Control_c, 4, 7, 120
6, 63840, Note_on_c, 4, 74, 75
6, 63845, Control_c, 4, 7, 119
6, 64200, Note_on_c, 4, 74, 0
6, 64260, Control_c, 4, 7, 112
6, 64295, Control_c, 4, 7, 109
6, 64311, Control_c, 4, 7, 108
6, 64320, Note_on_c, 4, 72, 75
6, 64380, Control_c, 4, 7, 106
6, 64400, Control_c, 4, 7, 105
6, 64680, Note_on_c, 4, 72, 0
6, 64766, Control_c, 4, 7, 121
6, 64800, Control_c, 4, 7, 127
6, 64800, Note_on_c, 4, 77, 75
6, 65400, Note_on_c, 4, 77, 0
6, 65582, Control_c, 4, 7, 118
6, 65602, Control_c, 4, 7, 117
6, 66000, Note_on_c, 4, 74, 75
6, 66120, Note_on_c, 4, 74, 0
6, 66240, Note_on_c, 4, 76, 75
6, 66320, Control_c, 4, 7, 119
6, 66600, Note_on_c, 4, 76, 0
6, 66640, Control_c, 4, 7, 117
6, 66680, Control_c, 4, 7, 115
6, 66720, Note_on_c, 4, 74, 75
6, 67080, Note_on_c, 4, 74, 0
6, 67160, Control_c, 4, 7, 108
6, 67180, Control_c, 4, 7, 105
6, 67200, Note_on_c, 4, 72, 75
6, 67680, Note_on_c, 4, 72, 0
6, 67680, Control_c, 4, 7, 97
6, 67680, Note_on_c, 4, 67, 75
6, 67696, Control_c, 4, 7, 96
6, 67716, Control_c, 4, 7, 94
6, 67818, Control_c, 4, 7, 92
6, 67898, Control_c, 4, 7, 91
6, 68078, Control_c, 4, 7, 90
6, 68138, Control_c, 4, 7, 89
6, 68298, Control_c, 4, 7, 88
6, 68338, Control_c, 4, 7, 87
6, 68418, Control_c, 4, 7, 86
6, 68458, Control_c, 4, 7, 85
6, 68558, Control_c, 4, 7, 83
6, 68598, Control_c, 4, 7, 82
6, 68678, Control_c, 4, 7, 81
6, 68698, Control_c, 4, 7, 80
6, 68760, Note_on_c, 4, 67, 0
6, 68778, Control_c, 4, 7, 79
6, 68838, Control_c, 4, 7, 78
6, 68878, Control_c, 4, 7, 77
6, 68898, Control_c, 4, 7, 76
6, 68998, Control_c, 4, 7, 74
6, 69300, Control_c, 4, 7, 75
6, 69340, Control_c, 4, 7, 76
6, 69480, Control_c, 4, 7, 77
6, 69520, Control_c, 4, 7, 78
6, 69540, Control_c, 4, 7, 80
6, 69600, Control_c, 4, 7, 81
6, 69620, Control_c, 4, 7, 82
6, 69660, Control_c, 4, 7, 83
6, 69740, Control_c, 4, 7, 84
6, 69860, Control_c, 4, 7, 85
6, 69900, Control_c, 4, 7, 86
6, 69960, Control_c, 4, 7, 87
6, 70100, Control_c, 4, 7, 89
6, 79080, Note_on_c, 4, 62, 75
6, 79200, Note_on_c, 4, 62, 0
6, 79200, Note_on_c, 4, 64, 75
6, 79440, Note_on_c, 4, 64, 0
6, 79440, Note_on_c, 4, 62, 75
6, 79680, Note_on_c, 4, 62, 0
6, 79680, Note_on_c, 4, 64, 75
6, 80040, Note_on_c, 4, 64, 0
6, 80040, Note_on_c, 4, 62, 75
6, 80160, Note_on_c, 4, 62, 0
6, 80160, Note_on_c, 4, 64, 75
6, 80280, Note_on_c, 4, 64, 0
6, 80400, Note_on_c, 4, 67, 75
6, 80880, Note_on_c, 4, 67, 0
6, 81120, Note_on_c, 4, 71, 75
6, 81480, Note_on_c, 4, 71, 0
6, 81480, Note_on_c, 4, 67, 75
6, 81600, Note_on_c, 4, 67, 0
6, 81600, Note_on_c, 4, 69, 75
6, 82080, Note_on_c, 4, 69, 0
6, 82320, Note_on_c, 4, 69, 75
6, 82440, Note_on_c, 4, 69, 0
6, 82440, Note_on_c, 4, 71, 75
6, 82560, Note_on_c, 4, 71, 0
6, 82560, Note_on_c, 4, 72, 75
6, 83160, Note_on_c, 4, 72, 0
6, 83280, Note_on_c, 4, 72, 75
6, 83520, Note_on_c, 4, 72, 0
6, 83520, Note_on_c, 4, 69, 75
6, 83760, Note_on_c, 4, 69, 0
6, 83880, Note_on_c, 4, 67, 75
6, 84120, Note_on_c, 4, 67, 0
6, 84240, Note_on_c, 4, 69, 75
6, 84600, Note_on_c, 4, 69, 0
6, 84720, Note_on_c, 4, 62, 75
6, 84960, Note_on_c, 4, 62, 0
6, 84960, Note_on_c, 4, 62, 75
6, 85080, Note_on_c, 4, 62, 0
6, 85200, Note_on_c, 4, 64, 75
6, 85440, Note_on_c, 4, 64, 0
6, 85440, Note_on_c, 4, 65, 75
6, 85680, Note_on_c, 4, 65, 0
6, 85680, Note_on_c, 4, 64, 75
6, 85800, Note_on_c, 4, 64, 0
6, 85800, Note_on_c, 4, 62, 75
6, 86040, Note_on_c, 4, 62, 0
6, 86040, Note_on_c, 4, 60, 75
6, 86400, Note_on_c, 4, 60, 0
6, 86760, Note_on_c, 4, 64, 75
6, 86880, Note_on_c, 4, 64, 0
6, 86880, Note_on_c, 4, 64, 75
6, 87120, Note_on_c, 4, 64, 0
6, 87120, Note_on_c, 4, 62, 75
6, 87360, Note_on_c, 4, 62, 0
6, 87360, Note_on_c, 4, 64, 75
6, 87600, Note_on_c, 4, 64, 0
6, 87600, Note_on_c, 4, 62, 75
6, 87720, Note_on_c, 4, 62, 0
6, 87720, Note_on_c, 4, 64, 75
6, 88080, Note_on_c, 4, 64, 0
6, 88080, Note_on_c, 4, 67, 75
6, 88560, Note_on_c, 4, 67, 0
6, 88800, Note_on_c, 4, 71, 75
6, 89160, Note_on_c, 4, 71, 0
6, 89160, Note_on_c, 4, 67, 75
6, 89280, Note_on_c, 4, 67, 0
6, 89280, Note_on_c, 4, 69, 75
6, 89880, Note_on_c, 4, 69, 0
6, 89880, Note_on_c, 4, 67, 75
6, 90000, Note_on_c, 4, 67, 0
6, 90000, Note_on_c, 4, 69, 75
6, 90120, Note_on_c, 4, 69, 0
6, 90120, Note_on_c, 4, 71, 75
6, 90240, Note_on_c, 4, 71, 0
6, 90240, Note_on_c, 4, 71, 75
6, 90360, Note_on_c, 4, 71, 0
6, 90360, Note_on_c, 4, 72, 75
6, 90720, Note_on_c, 4, 72, 0
6, 91080, Note_on_c, 4, 69, 75
6, 91200, Note_on_c, 4, 69, 0
6, 91200, Note_on_c, 4, 72, 75
6, 91560, Note_on_c, 4, 72, 0
6, 91680, Note_on_c, 4, 76, 75
6, 91920, Note_on_c, 4, 76, 0
6, 91920, Note_on_c, 4, 74, 75
6, 92520, Note_on_c, 4, 74, 0
6, 93840, Note_on_c, 4, 76, 75
6, 93960, Note_on_c, 4, 76, 0
6, 93960, Note_on_c, 4, 76, 75
6, 94200, Note_on_c, 4, 76, 0
6, 94320, Note_on_c, 4, 79, 75
6, 94800, Note_on_c, 4, 79, 0
6, 94800, Note_on_c, 4, 76, 75
6, 95160, Note_on_c, 4, 76, 0
6, 95280, Note_on_c, 4, 74, 75
6, 95640, Note_on_c, 4, 74, 0
6, 95760, Note_on_c, 4, 72, 75
6, 95880, Note_on_c, 4, 72, 0
6, 95880, Note_on_c, 4, 71, 75
6, 96240, Note_on_c, 4, 71, 0
6, 96360, Note_on_c, 4, 67, 75
6, 96960, Note_on_c, 4, 67, 0
6, 97680, Note_on_c, 4, 72, 75
6, 97800, Note_on_c, 4, 72, 0
6, 97800, Note_on_c, 4, 72, 75
6, 98280, Note_on_c, 4, 72, 0
6, 98280, Note_on_c, 4, 72, 75
6, 99000, Note_on_c, 4, 72, 0
6, 99120, Note_on_c, 4, 72, 75
6, 99480, Note_on_c, 4, 72, 0
6, 99480, Note_on_c, 4, 72, 75
6, 99600, Note_on_c, 4, 72, 0
6, 99720, Note_on_c, 4, 72, 75
6, 99840, Note_on_c, 4, 72, 0
6, 99960, Note_on_c, 4, 76, 75
6, 100320, Note_on_c, 4, 76, 0
6, 101400, Note_on_c, 4, 76, 75
6, 101520, Note_on_c, 4, 76, 0
6, 101520, Note_on_c, 4, 76, 75
6, 101640, Note_on_c, 4, 76, 0
6, 101640, Note_on_c, 4, 77, 75
6, 101760, Note_on_c, 4, 77, 0
6, 101880, Note_on_c, 4, 79, 75
6, 102360, Note_on_c, 4, 79, 0
6, 102480, Note_on_c, 4, 76, 75
6, 102720, Note_on_c, 4, 76, 0
6, 102840, Note_on_c, 4, 74, 75
6, 103320, Note_on_c, 4, 74, 0
6, 103440, Note_on_c, 4, 72, 75
6, 103560, Note_on_c, 4, 72, 0
6, 103560, Note_on_c, 4, 71, 75
6, 103920, Note_on_c, 4, 71, 0
6, 103920, Note_on_c, 4, 69, 75
6, 104760, Note_on_c, 4, 69, 0
6, 105240, Note_on_c, 4, 72, 75
6, 105360, Note_on_c, 4, 72, 0
6, 105360, Note_on_c, 4, 72, 75
6, 105600, Note_on_c, 4, 72, 0
6, 105600, Note_on_c, 4, 69, 75
6, 105840, Note_on_c, 4, 69, 0
6, 105840, Note_on_c, 4, 72, 75
6, 106200, Note_on_c, 4, 72, 0
6, 106440, Note_on_c, 4, 69, 75
6, 106560, Note_on_c, 4, 72, 75
6, 106680, Note_on_c, 4, 69, 0
6, 106920, Note_on_c, 4, 72, 0
6, 107040, Note_on_c, 4, 76, 75
6, 107280, Note_on_c, 4, 76, 0
6, 107280, Note_on_c, 4, 74, 75
6, 107640, Note_on_c, 4, 74, 0
6, 107760, Note_on_c, 4, 77, 75
6, 107880, Note_on_c, 4, 77, 0
6, 108000, Note_on_c, 4, 77, 75
6, 108120, Note_on_c, 4, 77, 0
6, 108197, Control_c, 4, 7, 90
6, 108240, Note_on_c, 4, 77, 75
6, 108242, Control_c, 4, 7, 91
6, 108316, Control_c, 4, 7, 92
6, 108360, Note_on_c, 4, 77, 0
6, 108386, Control_c, 4, 7, 93
6, 108420, Control_c, 4, 7, 94
6, 108480, Note_on_c, 4, 77, 75
6, 108570, Control_c, 4, 7, 95
6, 108642, Control_c, 4, 7, 96
6, 108698, Control_c, 4, 7, 97
6, 108720, Note_on_c, 4, 77, 0
6, 108720, Control_c, 4, 7, 98
6, 108720, Note_on_c, 4, 79, 75
6, 108880, Control_c, 4, 7, 99
6, 108982, Control_c, 4, 7, 100
6, 109080, Note_on_c, 4, 79, 0
6, 109200, Note_on_c, 4, 76, 75
6, 109225, Control_c, 4, 7, 101
6, 109290, Control_c, 4, 7, 103
6, 109419, Control_c, 4, 7, 104
6, 109440, Note_on_c, 4, 64, 75
6, 109440, Note_on_c, 4, 76, 75
6, 109443, Note_on_c, 4, 67, 75
6, 109800, Note_on_c, 4, 76, 0
6, 109920, Note_on_c, 4, 76, 0
6, 109980, Note_on_c, 4, 67, 0
6, 110040, Note_on_c, 4, 64, 0
6, 110145, Note_on_c, 4, 67, 75
6, 110160, Note_on_c, 4, 64, 75
6, 110160, Note_on_c, 4, 76, 75
6, 110280, Note_on_c, 4, 64, 0
6, 110344, Note_on_c, 4, 67, 0
6, 110392, Note_on_c, 4, 71, 75
6, 110400, Note_on_c, 4, 76, 0
6, 110400, Note_on_c, 4, 79, 75
6, 110400, Note_on_c, 4, 67, 75
6, 110760, Note_on_c, 4, 67, 0
6, 110760, Note_on_c, 4, 79, 0
6, 110774, Note_on_c, 4, 71, 0
6, 110873, Note_on_c, 4, 72, 75
6, 110880, Note_on_c, 4, 81, 75
6, 110880, Note_on_c, 4, 69, 75
6, 111089, Note_on_c, 4, 72, 0
6, 111120, Note_on_c, 4, 69, 0
6, 111120, Note_on_c, 4, 81, 0
6, 111120, Note_on_c, 4, 60, 75
6, 111120, Note_on_c, 4, 72, 75
6, 111120, Note_on_c, 4, 64, 75
6, 111560, Control_c, 4, 7, 117
6, 111580, Control_c, 4, 7, 119
6, 111600, Note_on_c, 4, 72, 0
6, 111600, Control_c, 4, 7, 121
6, 111600, Note_on_c, 4, 76, 75
6, 111840, Note_on_c, 4, 76, 0
6, 111840, Note_on_c, 4, 60, 0
6, 111840, Note_on_c, 4, 76, 75
6, 111859, Note_on_c, 4, 64, 0
6, 111960, Control_c, 4, 7, 113
6, 111980, Control_c, 4, 7, 110
6, 112000, Control_c, 4, 7, 108
6, 112040, Control_c, 4, 7, 106
6, 112060, Control_c, 4, 7, 105
6, 112080, Note_on_c, 4, 76, 0
6, 112080, Note_on_c, 4, 77, 75
6, 112440, Note_on_c, 4, 77, 0
6, 112560, Control_c, 4, 7, 108
6, 112560, Note_on_c, 4, 76, 75
6, 112580, Control_c, 4, 7, 110
6, 112620, Control_c, 4, 7, 112
6, 112760, Control_c, 4, 7, 114
6, 112800, Note_on_c, 4, 76, 0
6, 112800, Control_c, 4, 7, 117
6, 112800, Note_on_c, 4, 72, 75
6, 112802, Control_c, 4, 7, 118
6, 112822, Control_c, 4, 7, 119
6, 113280, Note_on_c, 4, 72, 0
6, 113291, Control_c, 4, 7, 112
6, 113311, Control_c, 4, 7, 109
6, 113331, Control_c, 4, 7, 106
6, 113760, Control_c, 4, 7, 109
6, 113760, Note_on_c, 4, 72, 75
6, 113800, Control_c, 4, 7, 110
6, 113960, Control_c, 4, 7, 108
6, 114000, Note_on_c, 4, 72, 0
6, 114000, Control_c, 4, 7, 97
6, 114000, Note_on_c, 4, 69, 75
6, 114002, Control_c, 4, 7, 95
6, 114022, Control_c, 4, 7, 94
6, 114142, Control_c, 4, 7, 95
6, 114180, Control_c, 4, 7, 96
6, 114200, Control_c, 4, 7, 97
6, 114220, Control_c, 4, 7, 98
6, 114240, Note_on_c, 4, 69, 0
6, 114240, Control_c, 4, 7, 105
6, 114240, Note_on_c, 4, 72, 75
6, 114260, Control_c, 4, 7, 106
6, 114505, Control_c, 4, 7, 105
6, 114545, Control_c, 4, 7, 104
6, 114600, Note_on_c, 4, 72, 0
6, 114600, Note_on_c, 4, 69, 75
6, 114720, Note_on_c, 4, 69, 0
6, 114720, Control_c, 4, 7, 112
6, 114720, Note_on_c, 4, 72, 75
6, 114740, Control_c, 4, 7, 119
6, 114760, Control_c, 4, 7, 121
6, 114920, Control_c, 4, 7, 118
6, 114940, Control_c, 4, 7, 110
6, 114960, Control_c, 4, 7, 108
6, 115080, Note_on_c, 4, 72, 0
6, 115080, Note_on_c, 4, 69, 75
6, 115200, Note_on_c, 4, 69, 0
6, 115200, Note_on_c, 4, 74, 75
6, 115280, Control_c, 4, 7, 109
6, 115300, Control_c, 4, 7, 110
6, 115320, Note_on_c, 4, 74, 0
6, 115320, Control_c, 4, 7, 112
6, 115320, Note_on_c, 4, 74, 75
6, 115440, Note_on_c, 4, 74, 0
6, 115440, Note_on_c, 4, 76, 75
6, 116160, Note_on_c, 4, 76, 0
6, 116400, Note_on_c, 4, 77, 75
6, 116520, Note_on_c, 4, 77, 0
6, 116640, Note_on_c, 4, 77, 75
6, 116760, Note_on_c, 4, 77, 0
6, 116880, Note_on_c, 4, 77, 75
6, 117000, Note_on_c, 4, 77, 0
6, 117120, Note_on_c, 4, 77, 75
6, 117240, Note_on_c, 4, 77, 0
6, 117360, Note_on_c, 4, 79, 75
6, 117385, Control_c, 4, 7, 114
6, 117405, Control_c, 4, 7, 115
6, 117700, Control_c, 4, 7, 114
6, 117718, Control_c, 4, 7, 112
6, 117738, Control_c, 4, 7, 111
6, 117840, Note_on_c, 4, 79, 0
6, 117840, Note_on_c, 4, 76, 75
6, 117842, Control_c, 4, 7, 110
6, 117902, Control_c, 4, 7, 109
6, 118073, Note_on_c, 4, 67, 75
6, 118080, Note_on_c, 4, 64, 75
6, 118648, Note_on_c, 4, 67, 0
6, 118680, Note_on_c, 4, 64, 0
6, 118680, Note_on_c, 4, 76, 0
6, 118800, Control_c, 4, 7, 106
6, 118800, Note_on_c, 4, 64, 75
6, 118800, Note_on_c, 4, 76, 75
6, 118804, Note_on_c, 4, 67, 75
6, 118920, Note_on_c, 4, 76, 0
6, 118960, Control_c, 4, 7, 105
6, 118998, Note_on_c, 4, 67, 0
6, 119018, Control_c, 4, 7, 104
6, 119040, Note_on_c, 4, 64, 0
6, 119040, Note_on_c, 4, 67, 75
6, 119040, Note_on_c, 4, 79, 75
6, 119048, Note_on_c, 4, 71, 75
6, 119400, Note_on_c, 4, 79, 0
6, 119400, Note_on_c, 4, 67, 0
6, 119457, Note_on_c, 4, 71, 0
6, 119520, Note_on_c, 4, 69, 75
6, 119520, Note_on_c, 4, 81, 75
6, 119520, Note_on_c, 4, 72, 75
6, 119760, Note_on_c, 4, 81, 0
6, 119760, Note_on_c, 4, 69, 0
6, 119760, Note_on_c, 4, 72, 75
6, 119760, Note_on_c, 4, 60, 75
6, 119777, Note_on_c, 4, 72, 0
6, 119792, Note_on_c, 4, 64, 75
6, 120180, Control_c, 4, 7, 106
6, 120220, Control_c, 4, 7, 107
6, 120240, Note_on_c, 4, 72, 0
6, 120240, Control_c, 4, 7, 108
6, 120240, Note_on_c, 4, 76, 75
6, 120360, Note_on_c, 4, 76, 0
6, 120464, Note_on_c, 4, 64, 0
6, 120464, Control_c, 4, 7, 109
6, 120480, Note_on_c, 4, 60, 0
6, 120480, Note_on_c, 4, 76, 75
6, 120522, Control_c, 4, 7, 110
6, 120720, Note_on_c, 4, 76, 0
6, 120720, Control_c, 4, 7, 113
6, 120720, Note_on_c, 4, 77, 75
6, 120725, Control_c, 4, 7, 115
6, 121080, Note_on_c, 4, 77, 0
6, 121127, Control_c, 4, 7, 114
6, 121140, Control_c, 4, 7, 113
6, 121160, Control_c, 4, 7, 112
6, 121200, Note_on_c, 4, 76, 75
6, 121345, Control_c, 4, 7, 104
6, 121365, Control_c, 4, 7, 101
6, 121380, Control_c, 4, 7, 100
6, 121440, Note_on_c, 4, 76, 0
6, 121440, Note_on_c, 4, 72, 75
6, 122040, Note_on_c, 4, 72, 0
6, 122325, Control_c, 4, 7, 99
6, 122380, Control_c, 4, 7, 100
6, 122400, Control_c, 4, 7, 101
6, 122400, Note_on_c, 4, 72, 75
6, 122520, Control_c, 4, 7, 103
6, 122640, Note_on_c, 4, 72, 0
6, 122640, Note_on_c, 4, 69, 75
6, 122775, Control_c, 4, 7, 104
6, 122795, Control_c, 4, 7, 105
6, 122880, Note_on_c, 4, 69, 0
6, 122880, Note_on_c, 4, 72, 75
6, 122920, Control_c, 4, 7, 106
6, 123140, Control_c, 4, 7, 105
6, 123160, Control_c, 4, 7, 104
6, 123240, Note_on_c, 4, 72, 0
6, 123240, Note_on_c, 4, 69, 75
6, 123320, Control_c, 4, 7, 105
6, 123360, Note_on_c, 4, 69, 0
6, 123360, Note_on_c, 4, 72, 75
6, 123480, Note_on_c, 4, 72, 0
6, 123480, Note_on_c, 4, 72, 75
6, 123720, Note_on_c, 4, 72, 0
6, 123720, Note_on_c, 4, 72, 75
6, 123820, Control_c, 4, 7, 106
6, 123840, Note_on_c, 4, 72, 0
6, 123840, Control_c, 4, 7, 107
6, 123840, Note_on_c, 4, 74, 75
6, 123997, Control_c, 4, 7, 109
6, 124020, Control_c, 4, 7, 112
6, 124040, Control_c, 4, 7, 113
6, 124060, Control_c, 4, 7, 115
6, 124080, Note_on_c, 4, 74, 0
6, 124080, Control_c, 4, 7, 118
6, 124080, Note_on_c, 4, 76, 75
6, 124462, Control_c, 4, 7, 117
6, 124500, Control_c, 4, 7, 114
6, 124520, Control_c, 4, 7, 106
6, 124560, Note_on_c, 4, 76, 0
6, 124760, Control_c, 4, 7, 109
6, 124780, Control_c, 4, 7, 112
6, 124800, Control_c, 4, 7, 114
6, 124800, Note_on_c, 4, 76, 75
6, 124807, Control_c, 4, 7, 115
6, 125160, Note_on_c, 4, 76, 0
6, 125280, Note_on_c, 4, 74, 75
6, 125325, Control_c, 4, 7, 114
6, 125365, Control_c, 4, 7, 113
6, 125385, Control_c, 4, 7, 112
6, 125640, Note_on_c, 4, 74, 0
6, 125662, Control_c, 4, 7, 109
6, 125682, Control_c, 4, 7, 106
6, 125720, Control_c, 4, 7, 105
6, 125760, Note_on_c, 4, 72, 75
6, 126120, Note_on_c, 4, 72, 0
6, 126180, Control_c, 4, 7, 115
6, 126206, Control_c, 4, 7, 127
6, 126240, Note_on_c, 4, 77, 75
6, 126840, Note_on_c, 4, 77, 0
6, 127440, Note_on_c, 4, 74, 75
6, 127560, Note_on_c, 4, 74, 0
6, 127582, Control_c, 4, 7, 126
6, 127620, Control_c, 4, 7, 124
6, 127640, Control_c, 4, 7, 123
6, 127649, Control_c, 4, 7, 121
6, 127680, Note_on_c, 4, 76, 75
6, 128040, Note_on_c, 4, 76, 0
6, 128120, Control_c, 4, 7, 118
6, 128160, Note_on_c, 4, 74, 75
6, 128163, Control_c, 4, 7, 115
6, 128163, Control_c, 4, 7, 117
6, 128520, Note_on_c, 4, 74, 0
6, 128623, Control_c, 4, 7, 114
6, 128640, Control_c, 4, 7, 113
6, 128640, Note_on_c, 4, 72, 75
6, 128661, Control_c, 4, 7, 112
6, 129120, Note_on_c, 4, 72, 0
6, 129120, Note_on_c, 4, 67, 75
6, 129136, Control_c, 4, 7, 104
6, 129156, Control_c, 4, 7, 101
6, 129176, Control_c, 4, 7, 99
6, 129256, Control_c, 4, 7, 97
6, 129276, Control_c, 4, 7, 96
6, 129336, Control_c, 4, 7, 95
6, 129358, Control_c, 4, 7, 94
6, 129418, Control_c, 4, 7, 92
6, 129438, Control_c, 4, 7, 91
6, 129498, Control_c, 4, 7, 90
6, 130200, Note_on_c, 4, 67, 0
6, 130400, Control_c, 4, 7, 113
6, 130560, Note_on_c, 4, 62, 75
6, 130560, Note_on_c, 4, 74, 75
6, 130566, Note_on_c, 4, 65, 75
6, 131177, Note_on_c, 4, 62, 0
6, 131188, Note_on_c, 4, 65, 0
6, 131233, Note_on_c, 4, 74, 0
6, 131270, Note_on_c, 4, 60, 75
6, 131273, Note_on_c, 4, 72, 75
6, 131283, Note_on_c, 4, 65, 75
6, 131881, Note_on_c, 4, 65, 0
6, 131915, Note_on_c, 4, 60, 0
6, 131987, Note_on_c, 4, 72, 0
6, 131998, Note_on_c, 4, 71, 75
6, 132000, Note_on_c, 4, 59, 75
6, 132003, Note_on_c, 4, 65, 75
6, 132017, Note_on_c, 4, 61, 75
6, 132028, Note_on_c, 4, 61, 0
6, 132372, Note_on_c, 4, 59, 0
6, 132376, Note_on_c, 4, 65, 0
6, 132409, Note_on_c, 4, 71, 0
6, 132462, Note_on_c, 4, 65, 75
6, 132480, Note_on_c, 4, 74, 75
6, 132494, Note_on_c, 4, 62, 75
6, 133076, Note_on_c, 4, 62, 0
6, 133094, Note_on_c, 4, 65, 0
6, 133134, Note_on_c, 4, 74, 0
6, 133155, Note_on_c, 4, 60, 75
6, 133180, Note_on_c, 4, 65, 75
6, 133203, Note_on_c, 4, 72, 75
6, 133796, Note_on_c, 4, 65, 0
6, 133808, Note_on_c, 4, 60, 0
6, 133868, Note_on_c, 4, 72, 0
6, 133892, Note_on_c, 4, 65, 75
6, 133931, Note_on_c, 4, 59, 75
6, 133945, Note_on_c, 4, 71, 75
6, 134256, Note_on_c, 4, 59, 0
6, 134256, Note_on_c, 4, 65, 0
6, 134328, Note_on_c, 4, 71, 0
6, 134374, Note_on_c, 4, 65, 75
6, 134395, Note_on_c, 4, 74, 75
6, 134416, Note_on_c, 4, 62, 75
6, 134595, Note_on_c, 4, 65, 0
6, 134620, Note_on_c, 4, 74, 0
6, 134632, Note_on_c, 4, 62, 0
6, 134646, Note_on_c, 4, 64, 75
6, 134659, Note_on_c, 4, 60, 75
6, 134660, Note_on_c, 4, 72, 75
6, 135003, Note_on_c, 4, 64, 0
6, 135040, Note_on_c, 4, 72, 0
6, 135057, Note_on_c, 4, 60, 0
6, 135092, Note_on_c, 4, 52, 75
6, 135105, Note_on_c, 4, 64, 75
6, 135108, Note_on_c, 4, 60, 75
6, 136260, Note_on_c, 4, 60, 0
6, 136281, Note_on_c, 4, 64, 0
6, 136283, Note_on_c, 4, 52, 0
6, 138216, Note_on_c, 4, 74, 75
6, 138227, Note_on_c, 4, 62, 75
6, 138249, Note_on_c, 4, 65, 75
6, 138824, Note_on_c, 4, 62, 0
6, 138852, Note_on_c, 4, 65, 0
6, 138876, Note_on_c, 4, 74, 0
6, 138926, Note_on_c, 4, 60, 75
6, 138950, Note_on_c, 4, 72, 75
6, 138955, Note_on_c, 4, 65, 75
6, 139520, Note_on_c, 4, 65, 0
6, 139560, Note_on_c, 4, 60, 0
6, 139630, Note_on_c, 4, 72, 0
6, 139651, Note_on_c, 4, 65, 75
6, 139659, Note_on_c, 4, 71, 75
6, 139664, Note_on_c, 4, 59, 75
6, 139982, Note_on_c, 4, 59, 0
6, 140030, Note_on_c, 4, 65, 0
6, 140108, Note_on_c, 4, 71, 0
6, 140145, Note_on_c, 4, 65, 75
6, 140164, Note_on_c, 4, 62, 75
6, 140192, Note_on_c, 4, 74, 75
6, 140694, Note_on_c, 4, 62, 0
6, 140768, Note_on_c, 4, 65, 0
6, 140820, Note_on_c, 4, 74, 0
6, 140854, Note_on_c, 4, 60, 75
6, 140886, Note_on_c, 4, 65, 75
6, 140886, Note_on_c, 4, 72, 75
6, 141580, Note_on_c, 4, 65, 0
6, 141641, Note_on_c, 4, 72, 0
6, 141641, Note_on_c, 4, 60, 0
6, 141832, Note_on_c, 4, 65, 75
6, 141833, Note_on_c, 4, 74, 75
6, 141857, Note_on_c, 4, 62, 75
6, 141977, Note_on_c, 4, 62, 0
6, 141984, Note_on_c, 4, 65, 0
6, 141995, Note_on_c, 4, 74, 0
6, 142059, Note_on_c, 4, 76, 75
6, 142073, Note_on_c, 4, 64, 75
6, 142097, Note_on_c, 4, 67, 75
6, 142329, Note_on_c, 4, 67, 0
6, 142388, Note_on_c, 4, 64, 0
6, 142476, Note_on_c, 4, 76, 0
6, 142542, Note_on_c, 4, 67, 75
6, 142556, Note_on_c, 4, 64, 75
6, 142577, Note_on_c, 4, 76, 75
6, 142825, Note_on_c, 4, 67, 0
6, 142907, Note_on_c, 4, 64, 0
6, 142947, Note_on_c, 4, 76, 0
6, 143014, Note_on_c, 4, 67, 75
6, 143036, Note_on_c, 4, 77, 75
6, 143044, Note_on_c, 4, 65, 75
6, 143108, Note_on_c, 4, 67, 0
6, 143192, Note_on_c, 4, 77, 0
6, 143232, Note_on_c, 4, 65, 0
6, 143264, Note_on_c, 4, 67, 75
6, 143280, Note_on_c, 4, 77, 75
6, 143300, Note_on_c, 4, 65, 75
6, 143582, Note_on_c, 4, 67, 0
6, 143630, Note_on_c, 4, 77, 0
6, 143648, Note_on_c, 4, 65, 0
6, 143760, Note_on_c, 4, 65, 75
6, 143764, Note_on_c, 4, 77, 75
6, 143771, Note_on_c, 4, 67, 75
6, 144064, Note_on_c, 4, 67, 0
6, 144092, Note_on_c, 4, 77, 0
6, 144113, Note_on_c, 4, 65, 0
6, 144180, Control_c, 4, 7, 109
6, 144180, Control_c, 4, 7, 110
6, 144236, Note_on_c, 4, 77, 75
6, 144259, Note_on_c, 4, 67, 75
6, 144264, Note_on_c, 4, 65, 75
6, 144332, Note_on_c, 4, 67, 0
6, 144387, Note_on_c, 4, 77, 0
6, 144398, Note_on_c, 4, 65, 0
6, 144484, Note_on_c, 4, 77, 75
6, 144500, Note_on_c, 4, 65, 75
6, 144502, Note_on_c, 4, 67, 75
6, 144580, Note_on_c, 4, 67, 0
6, 144609, Note_on_c, 4, 77, 0
6, 144620, Note_on_c, 4, 65, 0
6, 144723, Note_on_c, 4, 77, 75
6, 144728, Note_on_c, 4, 65, 75
6, 144742, Note_on_c, 4, 67, 75
6, 144811, Note_on_c, 4, 67, 0
6, 144854, Note_on_c, 4, 65, 0
6, 144862, Note_on_c, 4, 77, 0
6, 144955, Note_on_c, 4, 65, 75
6, 144960, Note_on_c, 4, 77, 75
6, 144963, Note_on_c, 4, 67, 75
6, 145048, Note_on_c, 4, 67, 0
6, 145107, Note_on_c, 4, 65, 0
6, 145115, Note_on_c, 4, 77, 0
6, 145203, Note_on_c, 4, 67, 75
6, 145204, Note_on_c, 4, 67, 75
6, 145220, Control_c, 4, 7, 112
6, 145235, Note_on_c, 4, 79, 75
6, 145500, Note_on_c, 4, 67, 0
6, 145530, Control_c, 4, 7, 112
6, 145550, Control_c, 4, 7, 109
6, 145560, Control_c, 4, 7, 106
6, 145582, Control_c, 4, 7, 104
6, 145614, Note_on_c, 4, 67, 0
6, 145659, Note_on_c, 4, 79, 0
6, 145707, Note_on_c, 4, 76, 75
6, 145710, Note_on_c, 4, 64, 75
6, 145890, Control_c, 4, 7, 101
6, 145909, Control_c, 4, 7, 99
6, 145920, Note_on_c, 4, 64, 75
6, 145920, Note_on_c, 4, 76, 75
6, 145923, Note_on_c, 4, 67, 75
6, 146400, Note_on_c, 4, 76, 0
6, 146460, Note_on_c, 4, 67, 0
6, 146500, Control_c, 4, 7, 100
6, 146520, Note_on_c, 4, 64, 0
6, 146520, Control_c, 4, 7, 101
6, 146540, Control_c, 4, 7, 103
6, 146625, Note_on_c, 4, 67, 75
6, 146640, Note_on_c, 4, 64, 75
6, 146640, Note_on_c, 4, 76, 75
6, 146682, Control_c, 4, 7, 104
6, 146760, Note_on_c, 4, 64, 0
6, 146766, Note_on_c, 4, 76, 0
6, 146804, Note_on_c, 4, 64, 0
6, 146824, Note_on_c, 4, 67, 0
6, 146872, Note_on_c, 4, 71, 75
6, 146880, Note_on_c, 4, 76, 0
6, 146880, Control_c, 4, 7, 112
6, 146880, Note_on_c, 4, 79, 75
6, 146880, Note_on_c, 4, 67, 75
6, 146920, Control_c, 4, 7, 113
6, 147240, Note_on_c, 4, 67, 0
6, 147240, Note_on_c, 4, 79, 0
6, 147254, Note_on_c, 4, 71, 0
6, 147353, Note_on_c, 4, 72, 75
6, 147360, Note_on_c, 4, 81, 75
6, 147360, Note_on_c, 4, 69, 75
6, 147569, Note_on_c, 4, 72, 0
6, 147600, Note_on_c, 4, 69, 0
6, 147600, Note_on_c, 4, 81, 0
6, 147600, Note_on_c, 4, 60, 75
6, 147600, Note_on_c, 4, 72, 75
6, 147600, Note_on_c, 4, 64, 75
6, 147645, Control_c, 4, 7, 110
6, 147665, Control_c, 4, 7, 109
6, 147685, Control_c, 4, 7, 108
6, 148080, Note_on_c, 4, 72, 0
6, 148080, Note_on_c, 4, 76, 75
6, 148105, Control_c, 4, 7, 109
6, 148280, Control_c, 4, 7, 110
6, 148300, Control_c, 4, 7, 112
6, 148320, Note_on_c, 4, 76, 0
6, 148320, Note_on_c, 4, 60, 0
6, 148320, Note_on_c, 4, 76, 75
6, 148339, Note_on_c, 4, 64, 0
6, 148520, Control_c, 4, 7, 114
6, 148540, Control_c, 4, 7, 122
6, 148560, Note_on_c, 4, 76, 0
6, 148560, Note_on_c, 4, 77, 75
6, 148562, Control_c, 4, 7, 124
6, 148582, Control_c, 4, 7, 125
6, 148920, Note_on_c, 4, 77, 0
6, 149040, Note_on_c, 4, 76, 75
6, 149280, Note_on_c, 4, 76, 0
6, 149280, Note_on_c, 4, 72, 75
6, 149760, Note_on_c, 4, 72, 0
6, 149840, Control_c, 4, 7, 124
6, 149880, Control_c, 4, 7, 122
6, 149900, Control_c, 4, 7, 121
6, 149920, Control_c, 4, 7, 118
6, 149960, Control_c, 4, 7, 117
6, 149980, Control_c, 4, 7, 114
6, 150000, Control_c, 4, 7, 112
6, 150040, Control_c, 4, 7, 111
6, 150240, Note_on_c, 4, 72, 75
6, 150480, Note_on_c, 4, 72, 0
6, 150480, Note_on_c, 4, 69, 75
6, 150602, Control_c, 4, 7, 112
6, 150622, Control_c, 4, 7, 113
6, 150680, Control_c, 4, 7, 114
6, 150720, Note_on_c, 4, 69, 0
6, 150720, Control_c, 4, 7, 115
6, 150720, Note_on_c, 4, 72, 75
6, 151000, Control_c, 4, 7, 116
6, 151020, Control_c, 4, 7, 117
6, 151080, Note_on_c, 4, 72, 0
6, 151080, Note_on_c, 4, 69, 75
6, 151140, Control_c, 4, 7, 115
6, 151160, Control_c, 4, 7, 114
6, 151200, Note_on_c, 4, 69, 0
6, 151200, Note_on_c, 4, 72, 75
6, 151525, Control_c, 4, 7, 115
6, 151560, Note_on_c, 4, 72, 0
6, 151560, Note_on_c, 4, 69, 75
6, 151680, Note_on_c, 4, 69, 0
6, 151680, Note_on_c, 4, 74, 75
6, 151707, Control_c, 4, 7, 114
6, 151800, Note_on_c, 4, 74, 0
6, 151800, Control_c, 4, 7, 117
6, 151800, Note_on_c, 4, 74, 75
6, 151807, Control_c, 4, 7, 118
6, 151827, Control_c, 4, 7, 119
6, 151920, Note_on_c, 4, 74, 0
6, 151920, Note_on_c, 4, 76, 75
6, 151945, Control_c, 4, 7, 122
6, 151965, Control_c, 4, 7, 127
6, 152640, Note_on_c, 4, 76, 0
6, 152660, Control_c, 4, 7, 124
6, 152680, Control_c, 4, 7, 122
6, 152700, Control_c, 4, 7, 121
6, 152800, Control_c, 4, 7, 122
6, 152820, Control_c, 4, 7, 124
6, 152880, Note_on_c, 4, 77, 75
6, 152905, Control_c, 4, 7, 123
6, 152925, Control_c, 4, 7, 121
6, 153000, Note_on_c, 4, 77, 0
6, 153025, Control_c, 4, 7, 126
6, 153025, Control_c, 4, 7, 123
6, 153120, Note_on_c, 4, 77, 75
6, 153240, Note_on_c, 4, 77, 0
6, 153340, Control_c, 4, 7, 118
6, 153360, Control_c, 4, 7, 117
6, 153360, Note_on_c, 4, 77, 75
6, 153380, Control_c, 4, 7, 115
6, 153480, Note_on_c, 4, 77, 0
6, 153540, Control_c, 4, 7, 116
6, 153600, Note_on_c, 4, 77, 75
6, 153655, Control_c, 4, 7, 115
6, 153675, Control_c, 4, 7, 114
6, 153720, Note_on_c, 4, 77, 0
6, 153820, Control_c, 4, 7, 122
6, 153840, Control_c, 4, 7, 127
6, 153840, Note_on_c, 4, 79, 75
6, 154160, Control_c, 4, 7, 121
6, 154180, Control_c, 4, 7, 120
6, 154200, Control_c, 4, 7, 119
6, 154320, Note_on_c, 4, 79, 0
6, 154320, Note_on_c, 4, 76, 75
6, 154342, Control_c, 4, 7, 118
6, 154362, Control_c, 4, 7, 117
6, 154382, Control_c, 4, 7, 114
6, 154402, Control_c, 4, 7, 112
6, 154553, Note_on_c, 4, 67, 75
6, 154560, Note_on_c, 4, 64, 75
6, 154562, Control_c, 4, 7, 111
6, 154582, Control_c, 4, 7, 110
6, 154602, Control_c, 4, 7, 108
6, 154662, Control_c, 4, 7, 106
6, 155128, Note_on_c, 4, 67, 0
6, 155160, Note_on_c, 4, 64, 0
6, 155160, Note_on_c, 4, 76, 0
6, 155280, Note_on_c, 4, 64, 75
6, 155280, Note_on_c, 4, 76, 75
6, 155284, Note_on_c, 4, 67, 75
6, 155400, Note_on_c, 4, 76, 0
6, 155478, Note_on_c, 4, 67, 0
6, 155478, Control_c, 4, 7, 105
6, 155498, Control_c, 4, 7, 104
6, 155520, Note_on_c, 4, 64, 0
6, 155520, Control_c, 4, 7, 103
6, 155520, Note_on_c, 4, 67, 75
6, 155520, Note_on_c, 4, 79, 75
6, 155528, Note_on_c, 4, 71, 75
6, 155880, Note_on_c, 4, 79, 0
6, 155880, Note_on_c, 4, 67, 0
6, 155937, Note_on_c, 4, 71, 0
6, 156000, Note_on_c, 4, 69, 75
6, 156000, Note_on_c, 4, 81, 75
6, 156000, Note_on_c, 4, 72, 75
6, 156200, Control_c, 4, 7, 100
6, 156240, Note_on_c, 4, 81, 0
6, 156240, Note_on_c, 4, 69, 0
6, 156240, Note_on_c, 4, 72, 75
6, 156240, Note_on_c, 4, 60, 75
6, 156242, Control_c, 4, 7, 99
6, 156257, Note_on_c, 4, 72, 0
6, 156257, Control_c, 4, 7, 97
6, 156272, Note_on_c, 4, 64, 75
6, 156680, Control_c, 4, 7, 105
6, 156700, Control_c, 4, 7, 113
6, 156720, Note_on_c, 4, 72, 0
6, 156720, Note_on_c, 4, 76, 75
6, 156840, Note_on_c, 4, 76, 0
6, 156944, Note_on_c, 4, 64, 0
6, 156960, Note_on_c, 4, 60, 0
6, 156960, Note_on_c, 4, 76, 75
6, 157200, Note_on_c, 4, 76, 0
6, 157200, Note_on_c, 4, 77, 75
6, 157240, Control_c, 4, 7, 126
6, 157260, Control_c, 4, 7, 127
6, 157560, Note_on_c, 4, 77, 0
6, 157600, Control_c, 4, 7, 126
6, 157620, Control_c, 4, 7, 123
6, 157640, Control_c, 4, 7, 122
6, 157680, Note_on_c, 4, 76, 75
6, 157840, Control_c, 4, 7, 114
6, 157860, Control_c, 4, 7, 113
6, 157920, Note_on_c, 4, 76, 0
6, 157920, Note_on_c, 4, 72, 75
6, 158520, Note_on_c, 4, 72, 0
6, 158700, Control_c, 4, 7, 114
6, 158720, Control_c, 4, 7, 113
6, 158740, Control_c, 4, 7, 112
6, 158880, Note_on_c, 4, 72, 75
6, 158922, Control_c, 4, 7, 111
6, 158942, Control_c, 4, 7, 109
6, 159120, Note_on_c, 4, 72, 0
6, 159120, Note_on_c, 4, 69, 75
6, 159125, Control_c, 4, 7, 108
6, 159145, Control_c, 4, 7, 106
6, 159340, Control_c, 4, 7, 105
6, 159360, Note_on_c, 4, 69, 0
6, 159360, Note_on_c, 4, 72, 75
6, 159367, Control_c, 4, 7, 104
6, 159720, Note_on_c, 4, 72, 0
6, 159720, Note_on_c, 4, 69, 75
6, 159840, Note_on_c, 4, 69, 0
6, 159840, Note_on_c, 4, 72, 75
6, 159960, Note_on_c, 4, 72, 0
6, 159960, Note_on_c, 4, 72, 75
6, 160200, Note_on_c, 4, 72, 0
6, 160200, Note_on_c, 4, 72, 75
6, 160280, Control_c, 4, 7, 106
6, 160300, Control_c, 4, 7, 109
6, 160320, Note_on_c, 4, 72, 0
6, 160320, Note_on_c, 4, 74, 75
6, 160520, Control_c, 4, 7, 119
6, 160540, Control_c, 4, 7, 127
6, 160560, Note_on_c, 4, 74, 0
6, 160560, Note_on_c, 4, 76, 75
6, 160940, Control_c, 4, 7, 119
6, 160960, Control_c, 4, 7, 118
6, 161040, Note_on_c, 4, 76, 0
6, 161040, Control_c, 4, 7, 117
6, 161060, Control_c, 4, 7, 115
6, 161195, Control_c, 4, 7, 118
6, 161215, Control_c, 4, 7, 127
6, 161280, Note_on_c, 4, 76, 75
6, 161640, Note_on_c, 4, 76, 0
6, 161760, Note_on_c, 4, 74, 75
6, 161845, Control_c, 4, 7, 126
6, 161865, Control_c, 4, 7, 124
6, 161900, Control_c, 4, 7, 122
6, 161920, Control_c, 4, 7, 119
6, 161940, Control_c, 4, 7, 117
6, 161960, Control_c, 4, 7, 114
6, 162120, Note_on_c, 4, 74, 0
6, 162240, Control_c, 4, 7, 112
6, 162240, Note_on_c, 4, 72, 75
6, 162260, Control_c, 4, 7, 109
6, 162280, Control_c, 4, 7, 106
6, 162300, Control_c, 4, 7, 104
6, 162600, Note_on_c, 4, 72, 0
6, 162686, Control_c, 4, 7, 112
6, 162706, Control_c, 4, 7, 127
6, 162720, Note_on_c, 4, 77, 75
6, 163320, Note_on_c, 4, 77, 0
6, 163505, Control_c, 4, 7, 122
6, 163525, Control_c, 4, 7, 119
6, 163562, Control_c, 4, 7, 117
6, 163605, Control_c, 4, 7, 115
6, 163920, Note_on_c, 4, 74, 75
6, 164040, Note_on_c, 4, 74, 0
6, 164160, Control_c, 4, 7, 116
6, 164160, Note_on_c, 4, 76, 75
6, 164200, Control_c, 4, 7, 118
6, 164220, Control_c, 4, 7, 119
6, 164520, Note_on_c, 4, 76, 0
6, 164540, Control_c, 4, 7, 117
6, 164560, Control_c, 4, 7, 114
6, 164580, Control_c, 4, 7, 113
6, 164600, Control_c, 4, 7, 112
6, 164640, Note_on_c, 4, 74, 75
6, 165000, Note_on_c, 4, 74, 0
6, 165080, Control_c, 4, 7, 109
6, 165120, Control_c, 4, 7, 101
6, 165120, Note_on_c, 4, 72, 75
6, 165140, Control_c, 4, 7, 100
6, 165600, Note_on_c, 4, 72, 0
6, 165600, Note_on_c, 4, 67, 75
6, 165616, Control_c, 4, 7, 92
6, 165636, Control_c, 4, 7, 90
6, 165656, Control_c, 4, 7, 89
6, 166544, Note_on_c, 4, 69, 75
6, 166680, Note_on_c, 4, 67, 0
6, 166758, Control_c, 4, 7, 91
6, 166778, Control_c, 4, 7, 101
6, 166795, Control_c, 4, 7, 103
6, 166795, Note_on_c, 4, 72, 75
6, 166803, Note_on_c, 4, 69, 0
6, 166938, Control_c, 4, 7, 105
6, 166980, Control_c, 4, 7, 106
6, 167000, Control_c, 4, 7, 107
6, 167020, Control_c, 4, 7, 114
6, 167030, Note_on_c, 4, 72, 0
6, 167040, Note_on_c, 4, 76, 75
6, 167047, Control_c, 4, 7, 124
6, 167067, Control_c, 4, 7, 125
6, 167087, Control_c, 4, 7, 126
6, 167400, Note_on_c, 4, 76, 0
6, 167427, Control_c, 4, 7, 124
6, 167460, Control_c, 4, 7, 122
6, 167480, Control_c, 4, 7, 114
6, 167508, Control_c, 4, 7, 112
6, 167520, Note_on_c, 4, 74, 75
6, 167525, Control_c, 4, 7, 111
6, 167880, Note_on_c, 4, 74, 0
6, 167880, Control_c, 4, 7, 109
6, 167900, Control_c, 4, 7, 106
6, 167920, Control_c, 4, 7, 104
6, 167940, Control_c, 4, 7, 103
6, 168000, Note_on_c, 4, 72, 75
6, 168360, Note_on_c, 4, 72, 0
6, 168400, Control_c, 4, 7, 113
6, 168420, Control_c, 4, 7, 127
6, 168480, Note_on_c, 4, 77, 75
6, 168900, Control_c, 4, 7, 118
6, 168920, Control_c, 4, 7, 117
6, 169080, Note_on_c, 4, 77, 0
6, 169660, Control_c, 4, 7, 119
6, 169680, Note_on_c, 4, 74, 75
6, 169800, Note_on_c, 4, 74, 0
6, 169920, Control_c, 4, 7, 122
6, 169920, Note_on_c, 4, 76, 75
6, 170280, Note_on_c, 4, 76, 0
6, 170340, Control_c, 4, 7, 119
6, 170360, Control_c, 4, 7, 118
6, 170380, Control_c, 4, 7, 117
6, 170400, Note_on_c, 4, 74, 75
6, 170760, Note_on_c, 4, 74, 0
6, 170880, Note_on_c, 4, 72, 75
6, 170912, Control_c, 4, 7, 114
6, 171147, Control_c, 4, 7, 112
6, 171360, Note_on_c, 4, 72, 0
6, 171376, Note_on_c, 4, 67, 75
6, 171436, Control_c, 4, 7, 109
6, 171456, Control_c, 4, 7, 108
6, 171476, Control_c, 4, 7, 106
6, 171516, Control_c, 4, 7, 105
6, 171536, Control_c, 4, 7, 104
6, 171596, Control_c, 4, 7, 103
6, 171636, Control_c, 4, 7, 102
6, 171676, Control_c, 4, 7, 101
6, 171696, Control_c, 4, 7, 100
6, 171796, Control_c, 4, 7, 99
6, 171876, Control_c, 4, 7, 97
6, 171916, Control_c, 4, 7, 96
6, 171958, Control_c, 4, 7, 95
6, 172018, Control_c, 4, 7, 94
6, 172058, Control_c, 4, 7, 92
6, 172118, Control_c, 4, 7, 91
6, 172158, Control_c, 4, 7, 90
6, 172198, Control_c, 4, 7, 89
6, 172238, Control_c, 4, 7, 88
6, 172280, Control_c, 4, 7, 87
6, 172300, Control_c, 4, 7, 86
6, 172340, Control_c, 4, 7, 85
6, 172380, Control_c, 4, 7, 83
6, 172440, Control_c, 4, 7, 82
6, 172458, Control_c, 4, 7, 81
6, 172498, Control_c, 4, 7, 80
6, 172518, Control_c, 4, 7, 79
6, 172558, Control_c, 4, 7, 78
6, 172578, Control_c, 4, 7, 77
6, 172618, Control_c, 4, 7, 76
6, 172658, Control_c, 4, 7, 74
6, 172718, Control_c, 4, 7, 73
6, 172740, Control_c, 4, 7, 72
6, 172780, Control_c, 4, 7, 71
6, 172820, Control_c, 4, 7, 70
6, 172860, Control_c, 4, 7, 69
6, 172880, Control_c, 4, 7, 68
6, 172920, Control_c, 4, 7, 67
6, 172940, Control_c, 4, 7, 65
6, 173000, Control_c, 4, 7, 64
6, 173020, Control_c, 4, 7, 63
6, 173060, Control_c, 4, 7, 62
6, 173100, Control_c, 4, 7, 61
6, 173160, Control_c, 4, 7, 60
6, 173180, Control_c, 4, 7, 59
6, 173220, Control_c, 4, 7, 58
6, 173240, Control_c, 4, 7, 56
6, 173280, Control_c, 4, 7, 55
6, 173300, Control_c, 4, 7, 54
6, 173360, Control_c, 4, 7, 53
6, 173400, Control_c, 4, 7, 52
6, 173440, Control_c, 4, 7, 51
6, 173480, Control_c, 4, 7, 50
6, 173520, Control_c, 4, 7, 49
6, 173540, Control_c, 4, 7, 47
6, 173580, Control_c, 4, 7, 46
6, 173600, Control_c, 4, 7, 45
6, 173640, Control_c, 4, 7, 44
6, 173680, Control_c, 4, 7, 43
6, 173720, Control_c, 4, 7, 42
6, 173740, Control_c, 4, 7, 41
6, 173780, Control_c, 4, 7, 40
6, 173800, Control_c, 4, 7, 38
6, 173860, Control_c, 4, 7, 37
6, 173880, Control_c, 4, 7, 36
6, 173920, Control_c, 4, 7, 35
6, 173940, Control_c, 4, 7, 34
6, 173960, Control_c, 4, 7, 33
6, 173980, Control_c, 4, 7, 32
6, 174042, Control_c, 4, 7, 31
6, 174082, Control_c, 4, 7, 30
6, 174142, Control_c, 4, 7, 29
6, 174162, Control_c, 4, 7, 28
6, 174200, Control_c, 4, 7, 27
6, 174220, Control_c, 4, 7, 26
6, 174260, Control_c, 4, 7, 24
6, 174280, Control_c, 4, 7, 23
6, 174300, Control_c, 4, 7, 22
6, 174340, Control_c, 4, 7, 21
6, 174360, Control_c, 4, 7, 20
6, 174400, Control_c, 4, 7, 19
6, 174420, Control_c, 4, 7, 18
6, 174460, Control_c, 4, 7, 17
6, 174480, Control_c, 4, 7, 15
6, 174500, Control_c, 4, 7, 14
6, 174540, Control_c, 4, 7, 13
6, 174544, Note_on_c, 4, 67, 0
6, 174600, Control_c, 4, 7, 12
6, 174660, Control_c, 4, 7, 11
6, 174680, Control_c, 4, 7, 10
6, 174740, Control_c, 4, 7, 9
6, 174780, Control_c, 4, 7, 8
6, 174860, Control_c, 4, 7, 6
6, 174880, Control_c, 4, 7, 5
6, 174900, Control_c, 4, 7, 4
6, 174920, Control_c, 4, 7, 3
6, 174960, Control_c, 4, 7, 2
6, 174980, Control_c, 4, 7, 1
6, 175020, Control_c, 4, 7, 0
6, 175020, End_track
7, 0, Start_track
7, 0, MIDI_port, 0
7, 0, Title_t, "ORGAN (MC)"
7, 0, Program_c, 5, 18
7, 0, Control_c, 5, 7, 68
7, 0, Control_c, 5, 10, 94
7, 0, Control_c, 5, 91, 61
7, 0, Note_on_c, 5, 67, 44
7, 0, Note_on_c, 5, 71, 44
7, 0, Note_on_c, 5, 76, 44
7, 1860, Note_on_c, 5, 76, 0
7, 1860, Note_on_c, 5, 71, 0
7, 1860, Note_on_c, 5, 67, 0
7, 1920, Note_on_c, 5, 77, 44
7, 1920, Note_on_c, 5, 73, 44
7, 1920, Note_on_c, 5, 68, 44
7, 3780, Note_on_c, 5, 68, 0
7, 3780, Note_on_c, 5, 73, 0
7, 3780, Note_on_c, 5, 77, 0
7, 3840, Note_on_c, 5, 69, 44
7, 3840, Note_on_c, 5, 72, 44
7, 3840, Note_on_c, 5, 77, 44
7, 5700, Note_on_c, 5, 77, 0
7, 5700, Note_on_c, 5, 72, 0
7, 5700, Note_on_c, 5, 69, 0
7, 5760, Note_on_c, 5, 79, 44
7, 5760, Note_on_c, 5, 75, 44
7, 5760, Note_on_c, 5, 70, 44
7, 7620, Note_on_c, 5, 70, 0
7, 7620, Note_on_c, 5, 75, 0
7, 7620, Note_on_c, 5, 79, 0
7, 7680, Note_on_c, 5, 69, 44
7, 7680, Note_on_c, 5, 72, 44
7, 7680, Note_on_c, 5, 75, 44
7, 7680, Note_on_c, 5, 77, 44
7, 9540, Note_on_c, 5, 77, 0
7, 9540, Note_on_c, 5, 69, 0
7, 9540, Note_on_c, 5, 72, 0
7, 9540, Note_on_c, 5, 75, 0
7, 11520, Note_on_c, 5, 69, 44
7, 11520, Note_on_c, 5, 72, 44
7, 11520, Note_on_c, 5, 75, 44
7, 11520, Note_on_c, 5, 77, 44
7, 13380, Note_on_c, 5, 77, 0
7, 13380, Note_on_c, 5, 69, 0
7, 13380, Note_on_c, 5, 72, 0
7, 13380, Note_on_c, 5, 75, 0
7, 15360, Note_on_c, 5, 69, 44
7, 15360, Note_on_c, 5, 72, 44
7, 15360, Note_on_c, 5, 75, 44
7, 15360, Note_on_c, 5, 77, 44
7, 17220, Note_on_c, 5, 77, 0
7, 17220, Note_on_c, 5, 69, 0
7, 17220, Note_on_c, 5, 72, 0
7, 17220, Note_on_c, 5, 75, 0
7, 17280, Note_on_c, 5, 67, 44
7, 17280, Note_on_c, 5, 72, 44
7, 17280, Note_on_c, 5, 76, 44
7, 18420, Note_on_c, 5, 76, 0
7, 18420, Note_on_c, 5, 72, 0
7, 18420, Note_on_c, 5, 67, 0
7, 19200, Note_on_c, 5, 79, 44
7, 19200, Note_on_c, 5, 83, 44
7, 19200, Note_on_c, 5, 88, 44
7, 20340, Note_on_c, 5, 88, 0
7, 20340, Note_on_c, 5, 83, 0
7, 20340, Note_on_c, 5, 79, 0
7, 20400, Note_on_c, 5, 76, 44
7, 21060, Note_on_c, 5, 76, 0
7, 21120, Note_on_c, 5, 72, 44
7, 21120, Note_on_c, 5, 81, 44
7, 21120, Note_on_c, 5, 84, 44
7, 21780, Note_on_c, 5, 84, 0
7, 21780, Note_on_c, 5, 81, 0
7, 21780, Note_on_c, 5, 72, 0
7, 21840, Note_on_c, 5, 84, 44
7, 21840, Note_on_c, 5, 81, 44
7, 21840, Note_on_c, 5, 72, 44
7, 22260, Note_on_c, 5, 72, 0
7, 22260, Note_on_c, 5, 81, 0
7, 22260, Note_on_c, 5, 84, 0
7, 23040, Note_on_c, 5, 74, 44
7, 23040, Note_on_c, 5, 79, 44
7, 23040, Note_on_c, 5, 83, 44
7, 23940, Note_on_c, 5, 83, 0
7, 23940, Note_on_c, 5, 79, 0
7, 23940, Note_on_c, 5, 74, 0
7, 24960, Note_on_c, 5, 72, 44
7, 24960, Note_on_c, 5, 76, 44
7, 24960, Note_on_c, 5, 79, 44
7, 25620, Note_on_c, 5, 79, 0
7, 25620, Note_on_c, 5, 76, 0
7, 25620, Note_on_c, 5, 72, 0
7, 25680, Note_on_c, 5, 76, 44
7, 25680, Note_on_c, 5, 88, 44
7, 26580, Note_on_c, 5, 88, 0
7, 26580, Note_on_c, 5, 76, 0
7, 28800, Note_on_c, 5, 72, 44
7, 28800, Note_on_c, 5, 77, 44
7, 28800, Note_on_c, 5, 81, 44
7, 29220, Note_on_c, 5, 81, 0
7, 29220, Note_on_c, 5, 77, 0
7, 29220, Note_on_c, 5, 72, 0
7, 29520, Note_on_c, 5, 72, 44
7, 29520, Note_on_c, 5, 77, 44
7, 29520, Note_on_c, 5, 81, 44
7, 29940, Note_on_c, 5, 81, 0
7, 29940, Note_on_c, 5, 77, 0
7, 29940, Note_on_c, 5, 72, 0
7, 30720, Note_on_c, 5, 71, 44
7, 30720, Note_on_c, 5, 74, 44
7, 30720, Note_on_c, 5, 79, 44
7, 31140, Note_on_c, 5, 79, 0
7, 31140, Note_on_c, 5, 74, 0
7, 31140, Note_on_c, 5, 71, 0
7, 32640, Note_on_c, 5, 72, 44
7, 32640, Note_on_c, 5, 76, 44
7, 32640, Note_on_c, 5, 79, 44
7, 32640, Note_on_c, 5, 83, 44
7, 33540, Note_on_c, 5, 83, 0
7, 33540, Note_on_c, 5, 72, 0
7, 33540, Note_on_c, 5, 76, 0
7, 33540, Note_on_c, 5, 79, 0
7, 33600, Note_on_c, 5, 74, 44
7, 33600, Note_on_c, 5, 77, 44
7, 33600, Note_on_c, 5, 81, 44
7, 33600, Note_on_c, 5, 84, 44
7, 34500, Note_on_c, 5, 84, 0
7, 34500, Note_on_c, 5, 74, 0
7, 34500, Note_on_c, 5, 77, 0
7, 34500, Note_on_c, 5, 81, 0
7, 34560, Note_on_c, 5, 76, 44
7, 34560, Note_on_c, 5, 79, 44
7, 34560, Note_on_c, 5, 83, 44
7, 34560, Note_on_c, 5, 86, 44
7, 35220, Note_on_c, 5, 86, 0
7, 35220, Note_on_c, 5, 76, 0
7, 35220, Note_on_c, 5, 79, 0
7, 35220, Note_on_c, 5, 83, 0
7, 35280, Note_on_c, 5, 86, 44
7, 35280, Note_on_c, 5, 83, 44
7, 35280, Note_on_c, 5, 79, 44
7, 35280, Note_on_c, 5, 76, 44
7, 35460, Note_on_c, 5, 76, 0
7, 35460, Note_on_c, 5, 86, 0
7, 35460, Note_on_c, 5, 83, 0
7, 35460, Note_on_c, 5, 79, 0
7, 35520, Note_on_c, 5, 75, 44
7, 35520, Note_on_c, 5, 78, 44
7, 35520, Note_on_c, 5, 82, 44
7, 35520, Note_on_c, 5, 85, 44
7, 36420, Note_on_c, 5, 85, 0
7, 36420, Note_on_c, 5, 75, 0
7, 36420, Note_on_c, 5, 78, 0
7, 36420, Note_on_c, 5, 82, 0
7, 36480, Note_on_c, 5, 74, 44
7, 36480, Note_on_c, 5, 77, 44
7, 36480, Note_on_c, 5, 81, 44
7, 36480, Note_on_c, 5, 84, 44
7, 37380, Note_on_c, 5, 84, 0
7, 37380, Note_on_c, 5, 74, 0
7, 37380, Note_on_c, 5, 77, 0
7, 37380, Note_on_c, 5, 81, 0
7, 38400, Note_on_c, 5, 74, 44
7, 38400, Note_on_c, 5, 83, 44
7, 38400, Note_on_c, 5, 86, 44
7, 39060, Note_on_c, 5, 86, 0
7, 39060, Note_on_c, 5, 83, 0
7, 39060, Note_on_c, 5, 74, 0
7, 39120, Note_on_c, 5, 71, 44
7, 39120, Note_on_c, 5, 74, 44
7, 39120, Note_on_c, 5, 79, 44
7, 39540, Note_on_c, 5, 79, 0
7, 39540, Note_on_c, 5, 74, 0
7, 39540, Note_on_c, 5, 71, 0
7, 40320, Note_on_c, 5, 72, 44
7, 40320, Note_on_c, 5, 76, 44
7, 40320, Note_on_c, 5, 79, 44
7, 40320, Note_on_c, 5, 83, 44
7, 40980, Note_on_c, 5, 83, 0
7, 40980, Note_on_c, 5, 72, 0
7, 40980, Note_on_c, 5, 76, 0
7, 40980, Note_on_c, 5, 79, 0
7, 41280, Note_on_c, 5, 74, 44
7, 41280, Note_on_c, 5, 77, 44
7, 41280, Note_on_c, 5, 81, 44
7, 41280, Note_on_c, 5, 84, 44
7, 41940, Note_on_c, 5, 84, 0
7, 41940, Note_on_c, 5, 74, 0
7, 41940, Note_on_c, 5, 77, 0
7, 41940, Note_on_c, 5, 81, 0
7, 42240, Note_on_c, 5, 76, 44
7, 42240, Note_on_c, 5, 79, 44
7, 42240, Note_on_c, 5, 83, 44
7, 42240, Note_on_c, 5, 86, 44
7, 42660, Note_on_c, 5, 86, 0
7, 42660, Note_on_c, 5, 76, 0
7, 42660, Note_on_c, 5, 79, 0
7, 42660, Note_on_c, 5, 83, 0
7, 43200, Note_on_c, 5, 70, 44
7, 43200, Note_on_c, 5, 73, 44
7, 43200, Note_on_c, 5, 78, 44
7, 43860, Note_on_c, 5, 78, 0
7, 43860, Note_on_c, 5, 73, 0
7, 43860, Note_on_c, 5, 70, 0
7, 43920, Note_on_c, 5, 70, 44
7, 43920, Note_on_c, 5, 73, 44
7, 43920, Note_on_c, 5, 78, 44
7, 44100, Note_on_c, 5, 78, 0
7, 44100, Note_on_c, 5, 73, 0
7, 44100, Note_on_c, 5, 70, 0
7, 48240, Note_on_c, 5, 67, 44
7, 48240, Note_on_c, 5, 72, 44
7, 48240, Note_on_c, 5, 76, 44
7, 48420, Note_on_c, 5, 76, 0
7, 48420, Note_on_c, 5, 72, 0
7, 48420, Note_on_c, 5, 67, 0
7, 48480, Note_on_c, 5, 76, 44
7, 48480, Note_on_c, 5, 72, 44
7, 48480, Note_on_c, 5, 67, 44
7, 48660, Note_on_c, 5, 67, 0
7, 48660, Note_on_c, 5, 72, 0
7, 48660, Note_on_c, 5, 76, 0
7, 48720, Note_on_c, 5, 67, 44
7, 48720, Note_on_c, 5, 72, 44
7, 48720, Note_on_c, 5, 76, 44
7, 48900, Note_on_c, 5, 76, 0
7, 48900, Note_on_c, 5, 72, 0
7, 48900, Note_on_c, 5, 67, 0
7, 48960, Note_on_c, 5, 76, 44
7, 48960, Note_on_c, 5, 72, 44
7, 48960, Note_on_c, 5, 67, 44
7, 49140, Note_on_c, 5, 67, 0
7, 49140, Note_on_c, 5, 72, 0
7, 49140, Note_on_c, 5, 76, 0
7, 49200, Note_on_c, 5, 67, 44
7, 49200, Note_on_c, 5, 72, 44
7, 49200, Note_on_c, 5, 76, 44
7, 49380, Note_on_c, 5, 76, 0
7, 49380, Note_on_c, 5, 72, 0
7, 49380, Note_on_c, 5, 67, 0
7, 49440, Note_on_c, 5, 76, 44
7, 49440, Note_on_c, 5, 72, 44
7, 49440, Note_on_c, 5, 67, 44
7, 49620, Note_on_c, 5, 67, 0
7, 49620, Note_on_c, 5, 72, 0
7, 49620, Note_on_c, 5, 76, 0
7, 49680, Note_on_c, 5, 67, 44
7, 49680, Note_on_c, 5, 72, 44
7, 49680, Note_on_c, 5, 76, 44
7, 49860, Note_on_c, 5, 76, 0
7, 49860, Note_on_c, 5, 72, 0
7, 49860, Note_on_c, 5, 67, 0
7, 49920, Note_on_c, 5, 76, 44
7, 49920, Note_on_c, 5, 72, 44
7, 49920, Note_on_c, 5, 67, 44
7, 50100, Note_on_c, 5, 67, 0
7, 50100, Note_on_c, 5, 72, 0
7, 50100, Note_on_c, 5, 76, 0
7, 50160, Note_on_c, 5, 67, 44
7, 50160, Note_on_c, 5, 72, 44
7, 50160, Note_on_c, 5, 76, 44
7, 50340, Note_on_c, 5, 76, 0
7, 50340, Note_on_c, 5, 72, 0
7, 50340, Note_on_c, 5, 67, 0
7, 50400, Note_on_c, 5, 76, 44
7, 50400, Note_on_c, 5, 72, 44
7, 50400, Note_on_c, 5, 67, 44
7, 50580, Note_on_c, 5, 67, 0
7, 50580, Note_on_c, 5, 72, 0
7, 50580, Note_on_c, 5, 76, 0
7, 50640, Note_on_c, 5, 67, 44
7, 50640, Note_on_c, 5, 72, 44
7, 50640, Note_on_c, 5, 76, 44
7, 50820, Note_on_c, 5, 76, 0
7, 50820, Note_on_c, 5, 72, 0
7, 50820, Note_on_c, 5, 67, 0
7, 50880, Note_on_c, 5, 76, 44
7, 50880, Note_on_c, 5, 72, 44
7, 50880, Note_on_c, 5, 67, 44
7, 51060, Note_on_c, 5, 67, 0
7, 51060, Note_on_c, 5, 72, 0
7, 51060, Note_on_c, 5, 76, 0
7, 51120, Note_on_c, 5, 67, 44
7, 51120, Note_on_c, 5, 72, 44
7, 51120, Note_on_c, 5, 76, 44
7, 51300, Note_on_c, 5, 76, 0
7, 51300, Note_on_c, 5, 72, 0
7, 51300, Note_on_c, 5, 67, 0
7, 51360, Note_on_c, 5, 76, 44
7, 51360, Note_on_c, 5, 72, 44
7, 51360, Note_on_c, 5, 67, 44
7, 51540, Note_on_c, 5, 67, 0
7, 51540, Note_on_c, 5, 72, 0
7, 51540, Note_on_c, 5, 76, 0
7, 51600, Note_on_c, 5, 67, 44
7, 51600, Note_on_c, 5, 72, 44
7, 51600, Note_on_c, 5, 76, 44
7, 51780, Note_on_c, 5, 76, 0
7, 51780, Note_on_c, 5, 72, 0
7, 51780, Note_on_c, 5, 67, 0
7, 51840, Note_on_c, 5, 77, 44
7, 51840, Note_on_c, 5, 72, 44
7, 51840, Note_on_c, 5, 69, 44
7, 52020, Note_on_c, 5, 69, 0
7, 52020, Note_on_c, 5, 72, 0
7, 52020, Note_on_c, 5, 77, 0
7, 52080, Note_on_c, 5, 69, 44
7, 52080, Note_on_c, 5, 72, 44
7, 52080, Note_on_c, 5, 77, 44
7, 52260, Note_on_c, 5, 77, 0
7, 52260, Note_on_c, 5, 72, 0
7, 52260, Note_on_c, 5, 69, 0
7, 52320, Note_on_c, 5, 77, 44
7, 52320, Note_on_c, 5, 72, 44
7, 52320, Note_on_c, 5, 69, 44
7, 52500, Note_on_c, 5, 69, 0
7, 52500, Note_on_c, 5, 72, 0
7, 52500, Note_on_c, 5, 77, 0
7, 52560, Note_on_c, 5, 69, 44
7, 52560, Note_on_c, 5, 72, 44
7, 52560, Note_on_c, 5, 77, 44
7, 52740, Note_on_c, 5, 77, 0
7, 52740, Note_on_c, 5, 72, 0
7, 52740, Note_on_c, 5, 69, 0
7, 52800, Note_on_c, 5, 77, 44
7, 52800, Note_on_c, 5, 72, 44
7, 52800, Note_on_c, 5, 69, 44
7, 52980, Note_on_c, 5, 69, 0
7, 52980, Note_on_c, 5, 72, 0
7, 52980, Note_on_c, 5, 77, 0
7, 53040, Note_on_c, 5, 69, 44
7, 53040, Note_on_c, 5, 72, 44
7, 53040, Note_on_c, 5, 77, 44
7, 53220, Note_on_c, 5, 77, 0
7, 53220, Note_on_c, 5, 72, 0
7, 53220, Note_on_c, 5, 69, 0
7, 53280, Note_on_c, 5, 77, 44
7, 53280, Note_on_c, 5, 72, 44
7, 53280, Note_on_c, 5, 69, 44
7, 53460, Note_on_c, 5, 69, 0
7, 53460, Note_on_c, 5, 72, 0
7, 53460, Note_on_c, 5, 77, 0
7, 53520, Note_on_c, 5, 69, 44
7, 53520, Note_on_c, 5, 72, 44
7, 53520, Note_on_c, 5, 77, 44
7, 53700, Note_on_c, 5, 77, 0
7, 53700, Note_on_c, 5, 72, 0
7, 53700, Note_on_c, 5, 69, 0
7, 53760, Note_on_c, 5, 69, 44
7, 53760, Note_on_c, 5, 74, 44
7, 53760, Note_on_c, 5, 78, 44
7, 53940, Note_on_c, 5, 78, 0
7, 53940, Note_on_c, 5, 74, 0
7, 53940, Note_on_c, 5, 69, 0
7, 54000, Note_on_c, 5, 78, 44
7, 54000, Note_on_c, 5, 74, 44
7, 54000, Note_on_c, 5, 69, 44
7, 54180, Note_on_c, 5, 69, 0
7, 54180, Note_on_c, 5, 74, 0
7, 54180, Note_on_c, 5, 78, 0
7, 54240, Note_on_c, 5, 69, 44
7, 54240, Note_on_c, 5, 74, 44
7, 54240, Note_on_c, 5, 78, 44
7, 54420, Note_on_c, 5, 78, 0
7, 54420, Note_on_c, 5, 74, 0
7, 54420, Note_on_c, 5, 69, 0
7, 54480, Note_on_c, 5, 78, 44
7, 54480, Note_on_c, 5, 74, 44
7, 54480, Note_on_c, 5, 69, 44
7, 54660, Note_on_c, 5, 69, 0
7, 54660, Note_on_c, 5, 74, 0
7, 54660, Note_on_c, 5, 78, 0
7, 54720, Note_on_c, 5, 71, 44
7, 54720, Note_on_c, 5, 74, 44
7, 54720, Note_on_c, 5, 79, 44
7, 54900, Note_on_c, 5, 79, 0
7, 54900, Note_on_c, 5, 74, 0
7, 54900, Note_on_c, 5, 71, 0
7, 54960, Note_on_c, 5, 79, 44
7, 54960, Note_on_c, 5, 74, 44
7, 54960, Note_on_c, 5, 71, 44
7, 55140, Note_on_c, 5, 71, 0
7, 55140, Note_on_c, 5, 74, 0
7, 55140, Note_on_c, 5, 79, 0
7, 55200, Note_on_c, 5, 71, 44
7, 55200, Note_on_c, 5, 74, 44
7, 55200, Note_on_c, 5, 79, 44
7, 55380, Note_on_c, 5, 79, 0
7, 55380, Note_on_c, 5, 74, 0
7, 55380, Note_on_c, 5, 71, 0
7, 55440, Note_on_c, 5, 79, 44
7, 55440, Note_on_c, 5, 74, 44
7, 55440, Note_on_c, 5, 71, 44
7, 55620, Note_on_c, 5, 71, 0
7, 55620, Note_on_c, 5, 74, 0
7, 55620, Note_on_c, 5, 79, 0
7, 55680, Note_on_c, 5, 69, 44
7, 55680, Note_on_c, 5, 72, 44
7, 55680, Note_on_c, 5, 77, 44
7, 55860, Note_on_c, 5, 77, 0
7, 55860, Note_on_c, 5, 72, 0
7, 55860, Note_on_c, 5, 69, 0
7, 55920, Note_on_c, 5, 77, 44
7, 55920, Note_on_c, 5, 72, 44
7, 55920, Note_on_c, 5, 69, 44
7, 56100, Note_on_c, 5, 69, 0
7, 56100, Note_on_c, 5, 72, 0
7, 56100, Note_on_c, 5, 77, 0
7, 56160, Note_on_c, 5, 69, 44
7, 56160, Note_on_c, 5, 72, 44
7, 56160, Note_on_c, 5, 77, 44
7, 56340, Note_on_c, 5, 77, 0
7, 56340, Note_on_c, 5, 72, 0
7, 56340, Note_on_c, 5, 69, 0
7, 56400, Note_on_c, 5, 77, 44
7, 56400, Note_on_c, 5, 72, 44
7, 56400, Note_on_c, 5, 69, 44
7, 56580, Note_on_c, 5, 69, 0
7, 56580, Note_on_c, 5, 72, 0
7, 56580, Note_on_c, 5, 77, 0
7, 56640, Note_on_c, 5, 67, 44
7, 56640, Note_on_c, 5, 72, 44
7, 56640, Note_on_c, 5, 76, 44
7, 56820, Note_on_c, 5, 76, 0
7, 56820, Note_on_c, 5, 72, 0
7, 56820, Note_on_c, 5, 67, 0
7, 56880, Note_on_c, 5, 76, 44
7, 56880, Note_on_c, 5, 72, 44
7, 56880, Note_on_c, 5, 67, 44
7, 57060, Note_on_c, 5, 67, 0
7, 57060, Note_on_c, 5, 72, 0
7, 57060, Note_on_c, 5, 76, 0
7, 57120, Note_on_c, 5, 67, 44
7, 57120, Note_on_c, 5, 72, 44
7, 57120, Note_on_c, 5, 76, 44
7, 57300, Note_on_c, 5, 76, 0
7, 57300, Note_on_c, 5, 72, 0
7, 57300, Note_on_c, 5, 67, 0
7, 57360, Note_on_c, 5, 76, 44
7, 57360, Note_on_c, 5, 72, 44
7, 57360, Note_on_c, 5, 67, 44
7, 57540, Note_on_c, 5, 67, 0
7, 57540, Note_on_c, 5, 72, 0
7, 57540, Note_on_c, 5, 76, 0
7, 57600, Note_on_c, 5, 67, 44
7, 57600, Note_on_c, 5, 72, 44
7, 57600, Note_on_c, 5, 76, 44
7, 57780, Note_on_c, 5, 76, 0
7, 57780, Note_on_c, 5, 72, 0
7, 57780, Note_on_c, 5, 67, 0
7, 57840, Note_on_c, 5, 76, 44
7, 57840, Note_on_c, 5, 72, 44
7, 57840, Note_on_c, 5, 67, 44
7, 58020, Note_on_c, 5, 67, 0
7, 58020, Note_on_c, 5, 72, 0
7, 58020, Note_on_c, 5, 76, 0
7, 58080, Note_on_c, 5, 67, 44
7, 58080, Note_on_c, 5, 72, 44
7, 58080, Note_on_c, 5, 76, 44
7, 58260, Note_on_c, 5, 76, 0
7, 58260, Note_on_c, 5, 72, 0
7, 58260, Note_on_c, 5, 67, 0
7, 58320, Note_on_c, 5, 76, 44
7, 58320, Note_on_c, 5, 72, 44
7, 58320, Note_on_c, 5, 67, 44
7, 58500, Note_on_c, 5, 67, 0
7, 58500, Note_on_c, 5, 72, 0
7, 58500, Note_on_c, 5, 76, 0
7, 58560, Note_on_c, 5, 67, 44
7, 58560, Note_on_c, 5, 72, 44
7, 58560, Note_on_c, 5, 76, 44
7, 58740, Note_on_c, 5, 76, 0
7, 58740, Note_on_c, 5, 72, 0
7, 58740, Note_on_c, 5, 67, 0
7, 58800, Note_on_c, 5, 76, 44
7, 58800, Note_on_c, 5, 72, 44
7, 58800, Note_on_c, 5, 67, 44
7, 58980, Note_on_c, 5, 67, 0
7, 58980, Note_on_c, 5, 72, 0
7, 58980, Note_on_c, 5, 76, 0
7, 59040, Note_on_c, 5, 67, 44
7, 59040, Note_on_c, 5, 72, 44
7, 59040, Note_on_c, 5, 76, 44
7, 59220, Note_on_c, 5, 76, 0
7, 59220, Note_on_c, 5, 72, 0
7, 59220, Note_on_c, 5, 67, 0
7, 59280, Note_on_c, 5, 76, 44
7, 59280, Note_on_c, 5, 72, 44
7, 59280, Note_on_c, 5, 67, 44
7, 59460, Note_on_c, 5, 67, 0
7, 59460, Note_on_c, 5, 72, 0
7, 59460, Note_on_c, 5, 76, 0
7, 59520, Note_on_c, 5, 67, 44
7, 59520, Note_on_c, 5, 72, 44
7, 59520, Note_on_c, 5, 76, 44
7, 59700, Note_on_c, 5, 76, 0
7, 59700, Note_on_c, 5, 72, 0
7, 59700, Note_on_c, 5, 67, 0
7, 59760, Note_on_c, 5, 76, 44
7, 59760, Note_on_c, 5, 72, 44
7, 59760, Note_on_c, 5, 67, 44
7, 59940, Note_on_c, 5, 67, 0
7, 59940, Note_on_c, 5, 72, 0
7, 59940, Note_on_c, 5, 76, 0
7, 60000, Note_on_c, 5, 67, 44
7, 60000, Note_on_c, 5, 72, 44
7, 60000, Note_on_c, 5, 76, 44
7, 60180, Note_on_c, 5, 76, 0
7, 60180, Note_on_c, 5, 72, 0
7, 60180, Note_on_c, 5, 67, 0
7, 60240, Note_on_c, 5, 76, 44
7, 60240, Note_on_c, 5, 72, 44
7, 60240, Note_on_c, 5, 67, 44
7, 60420, Note_on_c, 5, 67, 0
7, 60420, Note_on_c, 5, 72, 0
7, 60420, Note_on_c, 5, 76, 0
7, 60480, Note_on_c, 5, 69, 44
7, 60480, Note_on_c, 5, 72, 44
7, 60480, Note_on_c, 5, 77, 44
7, 60660, Note_on_c, 5, 77, 0
7, 60660, Note_on_c, 5, 72, 0
7, 60660, Note_on_c, 5, 69, 0
7, 60720, Note_on_c, 5, 77, 44
7, 60720, Note_on_c, 5, 72, 44
7, 60720, Note_on_c, 5, 69, 44
7, 60900, Note_on_c, 5, 69, 0
7, 60900, Note_on_c, 5, 72, 0
7, 60900, Note_on_c, 5, 77, 0
7, 60960, Note_on_c, 5, 69, 44
7, 60960, Note_on_c, 5, 72, 44
7, 60960, Note_on_c, 5, 77, 44
7, 61140, Note_on_c, 5, 77, 0
7, 61140, Note_on_c, 5, 72, 0
7, 61140, Note_on_c, 5, 69, 0
7, 61200, Note_on_c, 5, 77, 44
7, 61200, Note_on_c, 5, 72, 44
7, 61200, Note_on_c, 5, 69, 44
7, 61380, Note_on_c, 5, 69, 0
7, 61380, Note_on_c, 5, 72, 0
7, 61380, Note_on_c, 5, 77, 0
7, 61440, Note_on_c, 5, 69, 44
7, 61440, Note_on_c, 5, 72, 44
7, 61440, Note_on_c, 5, 77, 44
7, 61620, Note_on_c, 5, 77, 0
7, 61620, Note_on_c, 5, 72, 0
7, 61620, Note_on_c, 5, 69, 0
7, 61680, Note_on_c, 5, 77, 44
7, 61680, Note_on_c, 5, 72, 44
7, 61680, Note_on_c, 5, 69, 44
7, 61860, Note_on_c, 5, 69, 0
7, 61860, Note_on_c, 5, 72, 0
7, 61860, Note_on_c, 5, 77, 0
7, 61920, Note_on_c, 5, 69, 44
7, 61920, Note_on_c, 5, 72, 44
7, 61920, Note_on_c, 5, 77, 44
7, 62100, Note_on_c, 5, 77, 0
7, 62100, Note_on_c, 5, 72, 0
7, 62100, Note_on_c, 5, 69, 0
7, 62160, Note_on_c, 5, 77, 44
7, 62160, Note_on_c, 5, 72, 44
7, 62160, Note_on_c, 5, 69, 44
7, 62340, Note_on_c, 5, 69, 0
7, 62340, Note_on_c, 5, 72, 0
7, 62340, Note_on_c, 5, 77, 0
7, 62400, Note_on_c, 5, 69, 44
7, 62400, Note_on_c, 5, 74, 44
7, 62400, Note_on_c, 5, 78, 44
7, 62580, Note_on_c, 5, 78, 0
7, 62580, Note_on_c, 5, 74, 0
7, 62580, Note_on_c, 5, 69, 0
7, 62640, Note_on_c, 5, 78, 44
7, 62640, Note_on_c, 5, 74, 44
7, 62640, Note_on_c, 5, 69, 44
7, 62820, Note_on_c, 5, 69, 0
7, 62820, Note_on_c, 5, 74, 0
7, 62820, Note_on_c, 5, 78, 0
7, 62880, Note_on_c, 5, 69, 44
7, 62880, Note_on_c, 5, 74, 44
7, 62880, Note_on_c, 5, 78, 44
7, 63060, Note_on_c, 5, 78, 0
7, 63060, Note_on_c, 5, 74, 0
7, 63060, Note_on_c, 5, 69, 0
7, 63120, Note_on_c, 5, 78, 44
7, 63120, Note_on_c, 5, 74, 44
7, 63120, Note_on_c, 5, 69, 44
7, 63300, Note_on_c, 5, 69, 0
7, 63300, Note_on_c, 5, 74, 0
7, 63300, Note_on_c, 5, 78, 0
7, 63360, Note_on_c, 5, 72, 44
7, 63360, Note_on_c, 5, 76, 44
7, 63360, Note_on_c, 5, 81, 44
7, 63780, Note_on_c, 5, 81, 0
7, 63780, Note_on_c, 5, 76, 0
7, 63780, Note_on_c, 5, 72, 0
7, 63840, Note_on_c, 5, 71, 44
7, 63840, Note_on_c, 5, 74, 44
7, 63840, Note_on_c, 5, 79, 44
7, 64260, Note_on_c, 5, 79, 0
7, 64260, Note_on_c, 5, 74, 0
7, 64260, Note_on_c, 5, 71, 0
7, 64320, Note_on_c, 5, 74, 44
7, 64320, Note_on_c, 5, 77, 44
7, 64320, Note_on_c, 5, 82, 44
7, 64740, Note_on_c, 5, 82, 0
7, 64740, Note_on_c, 5, 77, 0
7, 64740, Note_on_c, 5, 74, 0
7, 64800, Note_on_c, 5, 69, 44
7, 64800, Note_on_c, 5, 72, 44
7, 64800, Note_on_c, 5, 77, 44
7, 66180, Note_on_c, 5, 77, 0
7, 66180, Note_on_c, 5, 72, 0
7, 66180, Note_on_c, 5, 69, 0
7, 66240, Note_on_c, 5, 80, 44
7, 66240, Note_on_c, 5, 84, 44
7, 66240, Note_on_c, 5, 88, 44
7, 66660, Note_on_c, 5, 88, 0
7, 66660, Note_on_c, 5, 84, 0
7, 66660, Note_on_c, 5, 80, 0
7, 66720, Note_on_c, 5, 78, 44
7, 66720, Note_on_c, 5, 83, 44
7, 66720, Note_on_c, 5, 86, 44
7, 67140, Note_on_c, 5, 86, 0
7, 67140, Note_on_c, 5, 83, 0
7, 67140, Note_on_c, 5, 78, 0
7, 67200, Note_on_c, 5, 77, 44
7, 67200, Note_on_c, 5, 81, 44
7, 67200, Note_on_c, 5, 86, 44
7, 67620, Note_on_c, 5, 86, 0
7, 67620, Note_on_c, 5, 81, 0
7, 67620, Note_on_c, 5, 77, 0
7, 67680, Note_on_c, 5, 76, 44
7, 67680, Note_on_c, 5, 79, 44
7, 67680, Note_on_c, 5, 84, 44
7, 69060, Note_on_c, 5, 84, 0
7, 69060, Note_on_c, 5, 79, 0
7, 69060, Note_on_c, 5, 76, 0
7, 72960, Note_on_c, 5, 69, 25
7, 72960, Note_on_c, 5, 72, 25
7, 72960, Note_on_c, 5, 76, 25
7, 72960, Note_on_c, 5, 77, 25
7, 73140, Note_on_c, 5, 77, 0
7, 73140, Note_on_c, 5, 69, 0
7, 73140, Note_on_c, 5, 72, 0
7, 73140, Note_on_c, 5, 76, 0
7, 73200, Note_on_c, 5, 77, 30
7, 73200, Note_on_c, 5, 76, 30
7, 73200, Note_on_c, 5, 72, 30
7, 73200, Note_on_c, 5, 69, 30
7, 73380, Note_on_c, 5, 69, 0
7, 73380, Note_on_c, 5, 77, 0
7, 73380, Note_on_c, 5, 76, 0
7, 73380, Note_on_c, 5, 72, 0
7, 73440, Note_on_c, 5, 69, 35
7, 73440, Note_on_c, 5, 72, 35
7, 73440, Note_on_c, 5, 76, 35
7, 73440, Note_on_c, 5, 77, 35
7, 73620, Note_on_c, 5, 77, 0
7, 73620, Note_on_c, 5, 69, 0
7, 73620, Note_on_c, 5, 72, 0
7, 73620, Note_on_c, 5, 76, 0
7, 73680, Note_on_c, 5, 77, 40
7, 73680, Note_on_c, 5, 76, 40
7, 73680, Note_on_c, 5, 72, 40
7, 73680, Note_on_c, 5, 69, 40
7, 73860, Note_on_c, 5, 69, 0
7, 73860, Note_on_c, 5, 77, 0
7, 73860, Note_on_c, 5, 76, 0
7, 73860, Note_on_c, 5, 72, 0
7, 73920, Note_on_c, 5, 69, 45
7, 73920, Note_on_c, 5, 72, 45
7, 73920, Note_on_c, 5, 76, 45
7, 73920, Note_on_c, 5, 77, 45
7, 74100, Note_on_c, 5, 77, 0
7, 74100, Note_on_c, 5, 69, 0
7, 74100, Note_on_c, 5, 72, 0
7, 74100, Note_on_c, 5, 76, 0
7, 74160, Note_on_c, 5, 77, 50
7, 74160, Note_on_c, 5, 76, 50
7, 74160, Note_on_c, 5, 72, 50
7, 74160, Note_on_c, 5, 69, 50
7, 74340, Note_on_c, 5, 69, 0
7, 74340, Note_on_c, 5, 77, 0
7, 74340, Note_on_c, 5, 76, 0
7, 74340, Note_on_c, 5, 72, 0
7, 74400, Note_on_c, 5, 69, 55
7, 74400, Note_on_c, 5, 72, 55
7, 74400, Note_on_c, 5, 76, 55
7, 74400, Note_on_c, 5, 77, 55
7, 74580, Note_on_c, 5, 77, 0
7, 74580, Note_on_c, 5, 69, 0
7, 74580, Note_on_c, 5, 72, 0
7, 74580, Note_on_c, 5, 76, 0
7, 74640, Note_on_c, 5, 77, 60
7, 74640, Note_on_c, 5, 76, 60
7, 74640, Note_on_c, 5, 72, 60
7, 74640, Note_on_c, 5, 69, 60
7, 74820, Note_on_c, 5, 69, 0
7, 74820, Note_on_c, 5, 77, 0
7, 74820, Note_on_c, 5, 76, 0
7, 74820, Note_on_c, 5, 72, 0
7, 76800, Note_on_c, 5, 69, 25
7, 76800, Note_on_c, 5, 72, 25
7, 76800, Note_on_c, 5, 76, 25
7, 76800, Note_on_c, 5, 77, 25
7, 76980, Note_on_c, 5, 77, 0
7, 76980, Note_on_c, 5, 69, 0
7, 76980, Note_on_c, 5, 72, 0
7, 76980, Note_on_c, 5, 76, 0
7, 77040, Note_on_c, 5, 77, 30
7, 77040, Note_on_c, 5, 76, 30
7, 77040, Note_on_c, 5, 72, 30
7, 77040, Note_on_c, 5, 69, 30
7, 77220, Note_on_c, 5, 69, 0
7, 77220, Note_on_c, 5, 77, 0
7, 77220, Note_on_c, 5, 76, 0
7, 77220, Note_on_c, 5, 72, 0
7, 77280, Note_on_c, 5, 69, 35
7, 77280, Note_on_c, 5, 72, 35
7, 77280, Note_on_c, 5, 76, 35
7, 77280, Note_on_c, 5, 77, 35
7, 77460, Note_on_c, 5, 77, 0
7, 77460, Note_on_c, 5, 69, 0
7, 77460, Note_on_c, 5, 72, 0
7, 77460, Note_on_c, 5, 76, 0
7, 77520, Note_on_c, 5, 77, 40
7, 77520, Note_on_c, 5, 76, 40
7, 77520, Note_on_c, 5, 72, 40
7, 77520, Note_on_c, 5, 69, 40
7, 77700, Note_on_c, 5, 69, 0
7, 77700, Note_on_c, 5, 77, 0
7, 77700, Note_on_c, 5, 76, 0
7, 77700, Note_on_c, 5, 72, 0
7, 77760, Note_on_c, 5, 69, 45
7, 77760, Note_on_c, 5, 72, 45
7, 77760, Note_on_c, 5, 76, 45
7, 77760, Note_on_c, 5, 77, 45
7, 77940, Note_on_c, 5, 77, 0
7, 77940, Note_on_c, 5, 69, 0
7, 77940, Note_on_c, 5, 72, 0
7, 77940, Note_on_c, 5, 76, 0
7, 78000, Note_on_c, 5, 77, 50
7, 78000, Note_on_c, 5, 76, 50
7, 78000, Note_on_c, 5, 72, 50
7, 78000, Note_on_c, 5, 69, 50
7, 78180, Note_on_c, 5, 69, 0
7, 78180, Note_on_c, 5, 77, 0
7, 78180, Note_on_c, 5, 76, 0
7, 78180, Note_on_c, 5, 72, 0
7, 78240, Note_on_c, 5, 69, 55
7, 78240, Note_on_c, 5, 72, 55
7, 78240, Note_on_c, 5, 76, 55
7, 78240, Note_on_c, 5, 77, 55
7, 78420, Note_on_c, 5, 77, 0
7, 78420, Note_on_c, 5, 69, 0
7, 78420, Note_on_c, 5, 72, 0
7, 78420, Note_on_c, 5, 76, 0
7, 78480, Note_on_c, 5, 77, 60
7, 78480, Note_on_c, 5, 76, 60
7, 78480, Note_on_c, 5, 72, 60
7, 78480, Note_on_c, 5, 69, 60
7, 78660, Note_on_c, 5, 69, 0
7, 78660, Note_on_c, 5, 77, 0
7, 78660, Note_on_c, 5, 76, 0
7, 78660, Note_on_c, 5, 72, 0
7, 78720, Note_on_c, 5, 67, 44
7, 78720, Note_on_c, 5, 72, 44
7, 78720, Note_on_c, 5, 76, 44
7, 79620, Note_on_c, 5, 76, 0
7, 79620, Note_on_c, 5, 72, 0
7, 79620, Note_on_c, 5, 67, 0
7, 80640, Note_on_c, 5, 88, 44
7, 80640, Note_on_c, 5, 79, 44
7, 80640, Note_on_c, 5, 83, 44
7, 81540, Note_on_c, 5, 83, 0
7, 81540, Note_on_c, 5, 79, 0
7, 81540, Note_on_c, 5, 88, 0
7, 81600, Note_on_c, 5, 79, 44
7, 81600, Note_on_c, 5, 83, 44
7, 81600, Note_on_c, 5, 76, 44
7, 82500, Note_on_c, 5, 76, 0
7, 82500, Note_on_c, 5, 83, 0
7, 82500, Note_on_c, 5, 79, 0
7, 84480, Note_on_c, 5, 74, 44
7, 84480, Note_on_c, 5, 83, 44
7, 84480, Note_on_c, 5, 79, 44
7, 85140, Note_on_c, 5, 79, 0
7, 85140, Note_on_c, 5, 83, 0
7, 85140, Note_on_c, 5, 74, 0
7, 85200, Note_on_c, 5, 83, 44
7, 85200, Note_on_c, 5, 74, 44
7, 85200, Note_on_c, 5, 79, 44
7, 85380, Note_on_c, 5, 79, 0
7, 85380, Note_on_c, 5, 74, 0
7, 85380, Note_on_c, 5, 83, 0
7, 85440, Note_on_c, 5, 72, 44
7, 85440, Note_on_c, 5, 77, 44
7, 85440, Note_on_c, 5, 81, 44
7, 85860, Note_on_c, 5, 81, 0
7, 85860, Note_on_c, 5, 77, 0
7, 85860, Note_on_c, 5, 72, 0
7, 86400, Note_on_c, 5, 72, 44
7, 86400, Note_on_c, 5, 76, 44
7, 86400, Note_on_c, 5, 79, 44
7, 86820, Note_on_c, 5, 79, 0
7, 86820, Note_on_c, 5, 76, 0
7, 86820, Note_on_c, 5, 72, 0
7, 89040, Note_on_c, 5, 76, 44
7, 89040, Note_on_c, 5, 79, 44
7, 89700, Note_on_c, 5, 79, 0
7, 89700, Note_on_c, 5, 76, 0
7, 92160, Note_on_c, 5, 71, 44
7, 92160, Note_on_c, 5, 74, 44
7, 92160, Note_on_c, 5, 79, 44
7, 92820, Note_on_c, 5, 79, 0
7, 92820, Note_on_c, 5, 74, 0
7, 92820, Note_on_c, 5, 71, 0
7, 92880, Note_on_c, 5, 74, 44
7, 92880, Note_on_c, 5, 83, 44
7, 93300, Note_on_c, 5, 83, 0
7, 93300, Note_on_c, 5, 74, 0
7, 94080, Note_on_c, 5, 72, 44
7, 94080, Note_on_c, 5, 76, 44
7, 94080, Note_on_c, 5, 79, 44
7, 94080, Note_on_c, 5, 83, 44
7, 94500, Note_on_c, 5, 83, 0
7, 94500, Note_on_c, 5, 72, 0
7, 94500, Note_on_c, 5, 76, 0
7, 94500, Note_on_c, 5, 79, 0
7, 95040, Note_on_c, 5, 74, 44
7, 95040, Note_on_c, 5, 77, 44
7, 95040, Note_on_c, 5, 81, 44
7, 95040, Note_on_c, 5, 84, 44
7, 95700, Note_on_c, 5, 84, 0
7, 95700, Note_on_c, 5, 74, 0
7, 95700, Note_on_c, 5, 77, 0
7, 95700, Note_on_c, 5, 81, 0
7, 95760, Note_on_c, 5, 74, 44
7, 95760, Note_on_c, 5, 77, 44
7, 95760, Note_on_c, 5, 81, 44
7, 95760, Note_on_c, 5, 84, 44
7, 95940, Note_on_c, 5, 84, 0
7, 95940, Note_on_c, 5, 74, 0
7, 95940, Note_on_c, 5, 77, 0
7, 95940, Note_on_c, 5, 81, 0
7, 96000, Note_on_c, 5, 76, 44
7, 96000, Note_on_c, 5, 79, 44
7, 96000, Note_on_c, 5, 83, 44
7, 96000, Note_on_c, 5, 86, 44
7, 96900, Note_on_c, 5, 86, 0
7, 96900, Note_on_c, 5, 76, 0
7, 96900, Note_on_c, 5, 79, 0
7, 96900, Note_on_c, 5, 83, 0
7, 96960, Note_on_c, 5, 75, 44
7, 96960, Note_on_c, 5, 78, 44
7, 96960, Note_on_c, 5, 82, 44
7, 96960, Note_on_c, 5, 85, 44
7, 97260, Note_on_c, 5, 85, 0
7, 97260, Note_on_c, 5, 75, 0
7, 97260, Note_on_c, 5, 78, 0
7, 97260, Note_on_c, 5, 82, 0
7, 97920, Note_on_c, 5, 74, 44
7, 97920, Note_on_c, 5, 77, 44
7, 97920, Note_on_c, 5, 81, 44
7, 97920, Note_on_c, 5, 84, 44
7, 98580, Note_on_c, 5, 84, 0
7, 98580, Note_on_c, 5, 74, 0
7, 98580, Note_on_c, 5, 77, 0
7, 98580, Note_on_c, 5, 81, 0
7, 98640, Note_on_c, 5, 72, 44
7, 98640, Note_on_c, 5, 81, 44
7, 99060, Note_on_c, 5, 81, 0
7, 99060, Note_on_c, 5, 72, 0
7, 99840, Note_on_c, 5, 71, 44
7, 99840, Note_on_c, 5, 74, 44
7, 99840, Note_on_c, 5, 79, 44
7, 100500, Note_on_c, 5, 79, 0
7, 100500, Note_on_c, 5, 74, 0
7, 100500, Note_on_c, 5, 71, 0
7, 100560, Note_on_c, 5, 67, 44
7, 101700, Note_on_c, 5, 67, 0
7, 101760, Note_on_c, 5, 76, 44
7, 101760, Note_on_c, 5, 79, 44
7, 101760, Note_on_c, 5, 84, 44
7, 102420, Note_on_c, 5, 84, 0
7, 102420, Note_on_c, 5, 79, 0
7, 102420, Note_on_c, 5, 76, 0
7, 102720, Note_on_c, 5, 72, 44
7, 102720, Note_on_c, 5, 77, 44
7, 102720, Note_on_c, 5, 81, 44
7, 103380, Note_on_c, 5, 81, 0
7, 103380, Note_on_c, 5, 77, 0
7, 103380, Note_on_c, 5, 72, 0
7, 103680, Note_on_c, 5, 74, 44
7, 103680, Note_on_c, 5, 79, 44
7, 103680, Note_on_c, 5, 83, 44
7, 104100, Note_on_c, 5, 83, 0
7, 104100, Note_on_c, 5, 79, 0
7, 104100, Note_on_c, 5, 74, 0
7, 104640, Note_on_c, 5, 73, 44
7, 104640, Note_on_c, 5, 78, 44
7, 104640, Note_on_c, 5, 82, 44
7, 105540, Note_on_c, 5, 82, 0
7, 105540, Note_on_c, 5, 78, 0
7, 105540, Note_on_c, 5, 73, 0
7, 105600, Note_on_c, 5, 74, 44
7, 105600, Note_on_c, 5, 77, 44
7, 105600, Note_on_c, 5, 81, 44
7, 105600, Note_on_c, 5, 84, 44
7, 106020, Note_on_c, 5, 84, 0
7, 106020, Note_on_c, 5, 74, 0
7, 106020, Note_on_c, 5, 77, 0
7, 106020, Note_on_c, 5, 81, 0
7, 109680, Note_on_c, 5, 67, 44
7, 109680, Note_on_c, 5, 72, 44
7, 109680, Note_on_c, 5, 76, 44
7, 109860, Note_on_c, 5, 76, 0
7, 109860, Note_on_c, 5, 72, 0
7, 109860, Note_on_c, 5, 67, 0
7, 109920, Note_on_c, 5, 76, 44
7, 109920, Note_on_c, 5, 72, 44
7, 109920, Note_on_c, 5, 67, 44
7, 110100, Note_on_c, 5, 67, 0
7, 110100, Note_on_c, 5, 72, 0
7, 110100, Note_on_c, 5, 76, 0
7, 110160, Note_on_c, 5, 67, 44
7, 110160, Note_on_c, 5, 72, 44
7, 110160, Note_on_c, 5, 76, 44
7, 110340, Note_on_c, 5, 76, 0
7, 110340, Note_on_c, 5, 72, 0
7, 110340, Note_on_c, 5, 67, 0
7, 110400, Note_on_c, 5, 76, 44
7, 110400, Note_on_c, 5, 72, 44
7, 110400, Note_on_c, 5, 67, 44
7, 110580, Note_on_c, 5, 67, 0
7, 110580, Note_on_c, 5, 72, 0
7, 110580, Note_on_c, 5, 76, 0
7, 110640, Note_on_c, 5, 67, 44
7, 110640, Note_on_c, 5, 72, 44
7, 110640, Note_on_c, 5, 76, 44
7, 110820, Note_on_c, 5, 76, 0
7, 110820, Note_on_c, 5, 72, 0
7, 110820, Note_on_c, 5, 67, 0
7, 110880, Note_on_c, 5, 76, 44
7, 110880, Note_on_c, 5, 72, 44
7, 110880, Note_on_c, 5, 67, 44
7, 111060, Note_on_c, 5, 67, 0
7, 111060, Note_on_c, 5, 72, 0
7, 111060, Note_on_c, 5, 76, 0
7, 111120, Note_on_c, 5, 67, 44
7, 111120, Note_on_c, 5, 72, 44
7, 111120, Note_on_c, 5, 76, 44
7, 111300, Note_on_c, 5, 76, 0
7, 111300, Note_on_c, 5, 72, 0
7, 111300, Note_on_c, 5, 67, 0
7, 111360, Note_on_c, 5, 76, 44
7, 111360, Note_on_c, 5, 72, 44
7, 111360, Note_on_c, 5, 67, 44
7, 111540, Note_on_c, 5, 67, 0
7, 111540, Note_on_c, 5, 72, 0
7, 111540, Note_on_c, 5, 76, 0
7, 111600, Note_on_c, 5, 67, 44
7, 111600, Note_on_c, 5, 72, 44
7, 111600, Note_on_c, 5, 76, 44
7, 111780, Note_on_c, 5, 76, 0
7, 111780, Note_on_c, 5, 72, 0
7, 111780, Note_on_c, 5, 67, 0
7, 111840, Note_on_c, 5, 76, 44
7, 111840, Note_on_c, 5, 72, 44
7, 111840, Note_on_c, 5, 67, 44
7, 112020, Note_on_c, 5, 67, 0
7, 112020, Note_on_c, 5, 72, 0
7, 112020, Note_on_c, 5, 76, 0
7, 112080, Note_on_c, 5, 67, 44
7, 112080, Note_on_c, 5, 72, 44
7, 112080, Note_on_c, 5, 76, 44
7, 112260, Note_on_c, 5, 76, 0
7, 112260, Note_on_c, 5, 72, 0
7, 112260, Note_on_c, 5, 67, 0
7, 112320, Note_on_c, 5, 76, 44
7, 112320, Note_on_c, 5, 72, 44
7, 112320, Note_on_c, 5, 67, 44
7, 112500, Note_on_c, 5, 67, 0
7, 112500, Note_on_c, 5, 72, 0
7, 112500, Note_on_c, 5, 76, 0
7, 112560, Note_on_c, 5, 67, 44
7, 112560, Note_on_c, 5, 72, 44
7, 112560, Note_on_c, 5, 76, 44
7, 112740, Note_on_c, 5, 76, 0
7, 112740, Note_on_c, 5, 72, 0
7, 112740, Note_on_c, 5, 67, 0
7, 112800, Note_on_c, 5, 76, 44
7, 112800, Note_on_c, 5, 72, 44
7, 112800, Note_on_c, 5, 67, 44
7, 112980, Note_on_c, 5, 67, 0
7, 112980, Note_on_c, 5, 72, 0
7, 112980, Note_on_c, 5, 76, 0
7, 113040, Note_on_c, 5, 67, 44
7, 113040, Note_on_c, 5, 72, 44
7, 113040, Note_on_c, 5, 76, 44
7, 113220, Note_on_c, 5, 76, 0
7, 113220, Note_on_c, 5, 72, 0
7, 113220, Note_on_c, 5, 67, 0
7, 113280, Note_on_c, 5, 77, 44
7, 113280, Note_on_c, 5, 72, 44
7, 113280, Note_on_c, 5, 69, 44
7, 113460, Note_on_c, 5, 69, 0
7, 113460, Note_on_c, 5, 72, 0
7, 113460, Note_on_c, 5, 77, 0
7, 113520, Note_on_c, 5, 69, 44
7, 113520, Note_on_c, 5, 72, 44
7, 113520, Note_on_c, 5, 77, 44
7, 113700, Note_on_c, 5, 77, 0
7, 113700, Note_on_c, 5, 72, 0
7, 113700, Note_on_c, 5, 69, 0
7, 113760, Note_on_c, 5, 77, 44
7, 113760, Note_on_c, 5, 72, 44
7, 113760, Note_on_c, 5, 69, 44
7, 113940, Note_on_c, 5, 69, 0
7, 113940, Note_on_c, 5, 72, 0
7, 113940, Note_on_c, 5, 77, 0
7, 114000, Note_on_c, 5, 69, 44
7, 114000, Note_on_c, 5, 72, 44
7, 114000, Note_on_c, 5, 77, 44
7, 114180, Note_on_c, 5, 77, 0
7, 114180, Note_on_c, 5, 72, 0
7, 114180, Note_on_c, 5, 69, 0
7, 114240, Note_on_c, 5, 77, 44
7, 114240, Note_on_c, 5, 72, 44
7, 114240, Note_on_c, 5, 69, 44
7, 114420, Note_on_c, 5, 69, 0
7, 114420, Note_on_c, 5, 72, 0
7, 114420, Note_on_c, 5, 77, 0
7, 114480, Note_on_c, 5, 69, 44
7, 114480, Note_on_c, 5, 72, 44
7, 114480, Note_on_c, 5, 77, 44
7, 114660, Note_on_c, 5, 77, 0
7, 114660, Note_on_c, 5, 72, 0
7, 114660, Note_on_c, 5, 69, 0
7, 114720, Note_on_c, 5, 77, 44
7, 114720, Note_on_c, 5, 72, 44
7, 114720, Note_on_c, 5, 69, 44
7, 114900, Note_on_c, 5, 69, 0
7, 114900, Note_on_c, 5, 72, 0
7, 114900, Note_on_c, 5, 77, 0
7, 114960, Note_on_c, 5, 69, 44
7, 114960, Note_on_c, 5, 72, 44
7, 114960, Note_on_c, 5, 77, 44
7, 115140, Note_on_c, 5, 77, 0
7, 115140, Note_on_c, 5, 72, 0
7, 115140, Note_on_c, 5, 69, 0
7, 115200, Note_on_c, 5, 69, 44
7, 115200, Note_on_c, 5, 74, 44
7, 115200, Note_on_c, 5, 78, 44
7, 115380, Note_on_c, 5, 78, 0
7, 115380, Note_on_c, 5, 74, 0
7, 115380, Note_on_c, 5, 69, 0
7, 115440, Note_on_c, 5, 78, 44
7, 115440, Note_on_c, 5, 74, 44
7, 115440, Note_on_c, 5, 69, 44
7, 115620, Note_on_c, 5, 69, 0
7, 115620, Note_on_c, 5, 74, 0
7, 115620, Note_on_c, 5, 78, 0
7, 115680, Note_on_c, 5, 69, 44
7, 115680, Note_on_c, 5, 74, 44
7, 115680, Note_on_c, 5, 78, 44
7, 115860, Note_on_c, 5, 78, 0
7, 115860, Note_on_c, 5, 74, 0
7, 115860, Note_on_c, 5, 69, 0
7, 115920, Note_on_c, 5, 78, 44
7, 115920, Note_on_c, 5, 74, 44
7, 115920, Note_on_c, 5, 69, 44
7, 116100, Note_on_c, 5, 69, 0
7, 116100, Note_on_c, 5, 74, 0
7, 116100, Note_on_c, 5, 78, 0
7, 116160, Note_on_c, 5, 71, 44
7, 116160, Note_on_c, 5, 74, 44
7, 116160, Note_on_c, 5, 79, 44
7, 116340, Note_on_c, 5, 79, 0
7, 116340, Note_on_c, 5, 74, 0
7, 116340, Note_on_c, 5, 71, 0
7, 116400, Note_on_c, 5, 79, 44
7, 116400, Note_on_c, 5, 74, 44
7, 116400, Note_on_c, 5, 71, 44
7, 116580, Note_on_c, 5, 71, 0
7, 116580, Note_on_c, 5, 74, 0
7, 116580, Note_on_c, 5, 79, 0
7, 116640, Note_on_c, 5, 71, 44
7, 116640, Note_on_c, 5, 74, 44
7, 116640, Note_on_c, 5, 79, 44
7, 116820, Note_on_c, 5, 79, 0
7, 116820, Note_on_c, 5, 74, 0
7, 116820, Note_on_c, 5, 71, 0
7, 116880, Note_on_c, 5, 79, 44
7, 116880, Note_on_c, 5, 74, 44
7, 116880, Note_on_c, 5, 71, 44
7, 117060, Note_on_c, 5, 71, 0
7, 117060, Note_on_c, 5, 74, 0
7, 117060, Note_on_c, 5, 79, 0
7, 117120, Note_on_c, 5, 69, 44
7, 117120, Note_on_c, 5, 72, 44
7, 117120, Note_on_c, 5, 77, 44
7, 117300, Note_on_c, 5, 77, 0
7, 117300, Note_on_c, 5, 72, 0
7, 117300, Note_on_c, 5, 69, 0
7, 117360, Note_on_c, 5, 77, 44
7, 117360, Note_on_c, 5, 72, 44
7, 117360, Note_on_c, 5, 69, 44
7, 117540, Note_on_c, 5, 69, 0
7, 117540, Note_on_c, 5, 72, 0
7, 117540, Note_on_c, 5, 77, 0
7, 117600, Note_on_c, 5, 69, 44
7, 117600, Note_on_c, 5, 72, 44
7, 117600, Note_on_c, 5, 77, 44
7, 117780, Note_on_c, 5, 77, 0
7, 117780, Note_on_c, 5, 72, 0
7, 117780, Note_on_c, 5, 69, 0
7, 117840, Note_on_c, 5, 77, 44
7, 117840, Note_on_c, 5, 72, 44
7, 117840, Note_on_c, 5, 69, 44
7, 118020, Note_on_c, 5, 69, 0
7, 118020, Note_on_c, 5, 72, 0
7, 118020, Note_on_c, 5, 77, 0
7, 118080, Note_on_c, 5, 67, 44
7, 118080, Note_on_c, 5, 72, 44
7, 118080, Note_on_c, 5, 76, 44
7, 118260, Note_on_c, 5, 76, 0
7, 118260, Note_on_c, 5, 72, 0
7, 118260, Note_on_c, 5, 67, 0
7, 118320, Note_on_c, 5, 76, 44
7, 118320, Note_on_c, 5, 72, 44
7, 118320, Note_on_c, 5, 67, 44
7, 118500, Note_on_c, 5, 67, 0
7, 118500, Note_on_c, 5, 72, 0
7, 118500, Note_on_c, 5, 76, 0
7, 118560, Note_on_c, 5, 67, 44
7, 118560, Note_on_c, 5, 72, 44
7, 118560, Note_on_c, 5, 76, 44
7, 118740, Note_on_c, 5, 76, 0
7, 118740, Note_on_c, 5, 72, 0
7, 118740, Note_on_c, 5, 67, 0
7, 118800, Note_on_c, 5, 76, 44
7, 118800, Note_on_c, 5, 72, 44
7, 118800, Note_on_c, 5, 67, 44
7, 118980, Note_on_c, 5, 67, 0
7, 118980, Note_on_c, 5, 72, 0
7, 118980, Note_on_c, 5, 76, 0
7, 119040, Note_on_c, 5, 67, 44
7, 119040, Note_on_c, 5, 72, 44
7, 119040, Note_on_c, 5, 76, 44
7, 119220, Note_on_c, 5, 76, 0
7, 119220, Note_on_c, 5, 72, 0
7, 119220, Note_on_c, 5, 67, 0
7, 119280, Note_on_c, 5, 76, 44
7, 119280, Note_on_c, 5, 72, 44
7, 119280, Note_on_c, 5, 67, 44
7, 119460, Note_on_c, 5, 67, 0
7, 119460, Note_on_c, 5, 72, 0
7, 119460, Note_on_c, 5, 76, 0
7, 119520, Note_on_c, 5, 67, 44
7, 119520, Note_on_c, 5, 72, 44
7, 119520, Note_on_c, 5, 76, 44
7, 119700, Note_on_c, 5, 76, 0
7, 119700, Note_on_c, 5, 72, 0
7, 119700, Note_on_c, 5, 67, 0
7, 119760, Note_on_c, 5, 76, 44
7, 119760, Note_on_c, 5, 72, 44
7, 119760, Note_on_c, 5, 67, 44
7, 119940, Note_on_c, 5, 67, 0
7, 119940, Note_on_c, 5, 72, 0
7, 119940, Note_on_c, 5, 76, 0
7, 120000, Note_on_c, 5, 67, 44
7, 120000, Note_on_c, 5, 72, 44
7, 120000, Note_on_c, 5, 76, 44
7, 120180, Note_on_c, 5, 76, 0
7, 120180, Note_on_c, 5, 72, 0
7, 120180, Note_on_c, 5, 67, 0
7, 120240, Note_on_c, 5, 76, 44
7, 120240, Note_on_c, 5, 72, 44
7, 120240, Note_on_c, 5, 67, 44
7, 120420, Note_on_c, 5, 67, 0
7, 120420, Note_on_c, 5, 72, 0
7, 120420, Note_on_c, 5, 76, 0
7, 120480, Note_on_c, 5, 67, 44
7, 120480, Note_on_c, 5, 72, 44
7, 120480, Note_on_c, 5, 76, 44
7, 120660, Note_on_c, 5, 76, 0
7, 120660, Note_on_c, 5, 72, 0
7, 120660, Note_on_c, 5, 67, 0
7, 120720, Note_on_c, 5, 76, 44
7, 120720, Note_on_c, 5, 72, 44
7, 120720, Note_on_c, 5, 67, 44
7, 120900, Note_on_c, 5, 67, 0
7, 120900, Note_on_c, 5, 72, 0
7, 120900, Note_on_c, 5, 76, 0
7, 120960, Note_on_c, 5, 67, 44
7, 120960, Note_on_c, 5, 72, 44
7, 120960, Note_on_c, 5, 76, 44
7, 121140, Note_on_c, 5, 76, 0
7, 121140, Note_on_c, 5, 72, 0
7, 121140, Note_on_c, 5, 67, 0
7, 121200, Note_on_c, 5, 76, 44
7, 121200, Note_on_c, 5, 72, 44
7, 121200, Note_on_c, 5, 67, 44
7, 121380, Note_on_c, 5, 67, 0
7, 121380, Note_on_c, 5, 72, 0
7, 121380, Note_on_c, 5, 76, 0
7, 121440, Note_on_c, 5, 67, 44
7, 121440, Note_on_c, 5, 72, 44
7, 121440, Note_on_c, 5, 76, 44
7, 121620, Note_on_c, 5, 76, 0
7, 121620, Note_on_c, 5, 72, 0
7, 121620, Note_on_c, 5, 67, 0
7, 121680, Note_on_c, 5, 76, 44
7, 121680, Note_on_c, 5, 72, 44
7, 121680, Note_on_c, 5, 67, 44
7, 121860, Note_on_c, 5, 67, 0
7, 121860, Note_on_c, 5, 72, 0
7, 121860, Note_on_c, 5, 76, 0
7, 121920, Note_on_c, 5, 69, 44
7, 121920, Note_on_c, 5, 72, 44
7, 121920, Note_on_c, 5, 77, 44
7, 122100, Note_on_c, 5, 77, 0
7, 122100, Note_on_c, 5, 72, 0
7, 122100, Note_on_c, 5, 69, 0
7, 122160, Note_on_c, 5, 77, 44
7, 122160, Note_on_c, 5, 72, 44
7, 122160, Note_on_c, 5, 69, 44
7, 122340, Note_on_c, 5, 69, 0
7, 122340, Note_on_c, 5, 72, 0
7, 122340, Note_on_c, 5, 77, 0
7, 122400, Note_on_c, 5, 69, 44
7, 122400, Note_on_c, 5, 72, 44
7, 122400, Note_on_c, 5, 77, 44
7, 122580, Note_on_c, 5, 77, 0
7, 122580, Note_on_c, 5, 72, 0
7, 122580, Note_on_c, 5, 69, 0
7, 122640, Note_on_c, 5, 77, 44
7, 122640, Note_on_c, 5, 72, 44
7, 122640, Note_on_c, 5, 69, 44
7, 122820, Note_on_c, 5, 69, 0
7, 122820, Note_on_c, 5, 72, 0
7, 122820, Note_on_c, 5, 77, 0
7, 122880, Note_on_c, 5, 69, 44
7, 122880, Note_on_c, 5, 72, 44
7, 122880, Note_on_c, 5, 77, 44
7, 123060, Note_on_c, 5, 77, 0
7, 123060, Note_on_c, 5, 72, 0
7, 123060, Note_on_c, 5, 69, 0
7, 123120, Note_on_c, 5, 77, 44
7, 123120, Note_on_c, 5, 72, 44
7, 123120, Note_on_c, 5, 69, 44
7, 123300, Note_on_c, 5, 69, 0
7, 123300, Note_on_c, 5, 72, 0
7, 123300, Note_on_c, 5, 77, 0
7, 123360, Note_on_c, 5, 69, 44
7, 123360, Note_on_c, 5, 72, 44
7, 123360, Note_on_c, 5, 77, 44
7, 123540, Note_on_c, 5, 77, 0
7, 123540, Note_on_c, 5, 72, 0
7, 123540, Note_on_c, 5, 69, 0
7, 123600, Note_on_c, 5, 77, 44
7, 123600, Note_on_c, 5, 72, 44
7, 123600, Note_on_c, 5, 69, 44
7, 123780, Note_on_c, 5, 69, 0
7, 123780, Note_on_c, 5, 72, 0
7, 123780, Note_on_c, 5, 77, 0
7, 123840, Note_on_c, 5, 69, 44
7, 123840, Note_on_c, 5, 74, 44
7, 123840, Note_on_c, 5, 78, 44
7, 124020, Note_on_c, 5, 78, 0
7, 124020, Note_on_c, 5, 74, 0
7, 124020, Note_on_c, 5, 69, 0
7, 124080, Note_on_c, 5, 78, 44
7, 124080, Note_on_c, 5, 74, 44
7, 124080, Note_on_c, 5, 69, 44
7, 124260, Note_on_c, 5, 69, 0
7, 124260, Note_on_c, 5, 74, 0
7, 124260, Note_on_c, 5, 78, 0
7, 124320, Note_on_c, 5, 69, 44
7, 124320, Note_on_c, 5, 74, 44
7, 124320, Note_on_c, 5, 78, 44
7, 124500, Note_on_c, 5, 78, 0
7, 124500, Note_on_c, 5, 74, 0
7, 124500, Note_on_c, 5, 69, 0
7, 124560, Note_on_c, 5, 78, 44
7, 124560, Note_on_c, 5, 74, 44
7, 124560, Note_on_c, 5, 69, 44
7, 124740, Note_on_c, 5, 69, 0
7, 124740, Note_on_c, 5, 74, 0
7, 124740, Note_on_c, 5, 78, 0
7, 124800, Note_on_c, 5, 72, 44
7, 124800, Note_on_c, 5, 76, 44
7, 124800, Note_on_c, 5, 81, 44
7, 125220, Note_on_c, 5, 81, 0
7, 125220, Note_on_c, 5, 76, 0
7, 125220, Note_on_c, 5, 72, 0
7, 125280, Note_on_c, 5, 71, 44
7, 125280, Note_on_c, 5, 74, 44
7, 125280, Note_on_c, 5, 79, 44
7, 125700, Note_on_c, 5, 79, 0
7, 125700, Note_on_c, 5, 74, 0
7, 125700, Note_on_c, 5, 71, 0
7, 125760, Note_on_c, 5, 74, 44
7, 125760, Note_on_c, 5, 77, 44
7, 125760, Note_on_c, 5, 82, 44
7, 126180, Note_on_c, 5, 82, 0
7, 126180, Note_on_c, 5, 77, 0
7, 126180, Note_on_c, 5, 74, 0
7, 126240, Note_on_c, 5, 69, 44
7, 126240, Note_on_c, 5, 72, 44
7, 126240, Note_on_c, 5, 77, 44
7, 127620, Note_on_c, 5, 77, 0
7, 127620, Note_on_c, 5, 72, 0
7, 127620, Note_on_c, 5, 69, 0
7, 127680, Note_on_c, 5, 80, 44
7, 127680, Note_on_c, 5, 84, 44
7, 127680, Note_on_c, 5, 88, 44
7, 128100, Note_on_c, 5, 88, 0
7, 128100, Note_on_c, 5, 84, 0
7, 128100, Note_on_c, 5, 80, 0
7, 128160, Note_on_c, 5, 78, 44
7, 128160, Note_on_c, 5, 83, 44
7, 128160, Note_on_c, 5, 86, 44
7, 128580, Note_on_c, 5, 86, 0
7, 128580, Note_on_c, 5, 83, 0
7, 128580, Note_on_c, 5, 78, 0
7, 128640, Note_on_c, 5, 77, 44
7, 128640, Note_on_c, 5, 81, 44
7, 128640, Note_on_c, 5, 86, 44
7, 129060, Note_on_c, 5, 86, 0
7, 129060, Note_on_c, 5, 81, 0
7, 129060, Note_on_c, 5, 77, 0
7, 129120, Note_on_c, 5, 76, 44
7, 129120, Note_on_c, 5, 79, 44
7, 129120, Note_on_c, 5, 84, 44
7, 130500, Note_on_c, 5, 84, 0
7, 130500, Note_on_c, 5, 79, 0
7, 130500, Note_on_c, 5, 76, 0
7, 130560, Note_on_c, 5, 77, 44
7, 130560, Note_on_c, 5, 81, 44
7, 130560, Note_on_c, 5, 84, 44
7, 131220, Note_on_c, 5, 84, 0
7, 131220, Note_on_c, 5, 81, 0
7, 131220, Note_on_c, 5, 77, 0
7, 131280, Note_on_c, 5, 69, 44
7, 131280, Note_on_c, 5, 72, 44
7, 131280, Note_on_c, 5, 77, 44
7, 131700, Note_on_c, 5, 77, 0
7, 131700, Note_on_c, 5, 72, 0
7, 131700, Note_on_c, 5, 69, 0
7, 131760, Note_on_c, 5, 77, 44
7, 131760, Note_on_c, 5, 72, 44
7, 131760, Note_on_c, 5, 69, 44
7, 131940, Note_on_c, 5, 69, 0
7, 131940, Note_on_c, 5, 72, 0
7, 131940, Note_on_c, 5, 77, 0
7, 132000, Note_on_c, 5, 69, 44
7, 132000, Note_on_c, 5, 72, 44
7, 132000, Note_on_c, 5, 77, 44
7, 132180, Note_on_c, 5, 77, 0
7, 132180, Note_on_c, 5, 72, 0
7, 132180, Note_on_c, 5, 69, 0
7, 132240, Note_on_c, 5, 77, 44
7, 132240, Note_on_c, 5, 72, 44
7, 132240, Note_on_c, 5, 69, 44
7, 132420, Note_on_c, 5, 69, 0
7, 132420, Note_on_c, 5, 72, 0
7, 132420, Note_on_c, 5, 77, 0
7, 132480, Note_on_c, 5, 69, 44
7, 132480, Note_on_c, 5, 72, 44
7, 132480, Note_on_c, 5, 77, 44
7, 133140, Note_on_c, 5, 77, 0
7, 133140, Note_on_c, 5, 72, 0
7, 133140, Note_on_c, 5, 69, 0
7, 133200, Note_on_c, 5, 69, 44
7, 133200, Note_on_c, 5, 72, 44
7, 133200, Note_on_c, 5, 77, 44
7, 133620, Note_on_c, 5, 77, 0
7, 133620, Note_on_c, 5, 72, 0
7, 133620, Note_on_c, 5, 69, 0
7, 133680, Note_on_c, 5, 77, 44
7, 133680, Note_on_c, 5, 72, 44
7, 133680, Note_on_c, 5, 69, 44
7, 133860, Note_on_c, 5, 69, 0
7, 133860, Note_on_c, 5, 72, 0
7, 133860, Note_on_c, 5, 77, 0
7, 133920, Note_on_c, 5, 69, 44
7, 133920, Note_on_c, 5, 72, 44
7, 133920, Note_on_c, 5, 77, 44
7, 134100, Note_on_c, 5, 77, 0
7, 134100, Note_on_c, 5, 72, 0
7, 134100, Note_on_c, 5, 69, 0
7, 134160, Note_on_c, 5, 77, 44
7, 134160, Note_on_c, 5, 72, 44
7, 134160, Note_on_c, 5, 69, 44
7, 134340, Note_on_c, 5, 69, 0
7, 134340, Note_on_c, 5, 72, 0
7, 134340, Note_on_c, 5, 77, 0
7, 134400, Note_on_c, 5, 67, 44
7, 134400, Note_on_c, 5, 72, 44
7, 134400, Note_on_c, 5, 76, 44
7, 135060, Note_on_c, 5, 76, 0
7, 135060, Note_on_c, 5, 72, 0
7, 135060, Note_on_c, 5, 67, 0
7, 135120, Note_on_c, 5, 76, 44
7, 135120, Note_on_c, 5, 72, 44
7, 135120, Note_on_c, 5, 67, 44
7, 135780, Note_on_c, 5, 67, 0
7, 135780, Note_on_c, 5, 72, 0
7, 135780, Note_on_c, 5, 76, 0
7, 135840, Note_on_c, 5, 77, 44
7, 135840, Note_on_c, 5, 81, 44
7, 135840, Note_on_c, 5, 84, 44
7, 135930, Note_on_c, 5, 84, 0
7, 135930, Note_on_c, 5, 81, 0
7, 135930, Note_on_c, 5, 77, 0
7, 135960, Note_on_c, 5, 77, 44
7, 135960, Note_on_c, 5, 81, 44
7, 135960, Note_on_c, 5, 84, 44
7, 136140, Note_on_c, 5, 84, 0
7, 136140, Note_on_c, 5, 81, 0
7, 136140, Note_on_c, 5, 77, 0
7, 136200, Note_on_c, 5, 77, 44
7, 136200, Note_on_c, 5, 81, 44
7, 136200, Note_on_c, 5, 84, 44
7, 136290, Note_on_c, 5, 84, 0
7, 136290, Note_on_c, 5, 81, 0
7, 136290, Note_on_c, 5, 77, 0
7, 136320, Note_on_c, 5, 76, 44
7, 136320, Note_on_c, 5, 79, 44
7, 136320, Note_on_c, 5, 84, 44
7, 136980, Note_on_c, 5, 84, 0
7, 136980, Note_on_c, 5, 79, 0
7, 136980, Note_on_c, 5, 76, 0
7, 138240, Note_on_c, 5, 69, 44
7, 138240, Note_on_c, 5, 72, 44
7, 138240, Note_on_c, 5, 77, 44
7, 138900, Note_on_c, 5, 77, 0
7, 138900, Note_on_c, 5, 72, 0
7, 138900, Note_on_c, 5, 69, 0
7, 138960, Note_on_c, 5, 69, 44
7, 138960, Note_on_c, 5, 72, 44
7, 138960, Note_on_c, 5, 77, 44
7, 139380, Note_on_c, 5, 77, 0
7, 139380, Note_on_c, 5, 72, 0
7, 139380, Note_on_c, 5, 69, 0
7, 139440, Note_on_c, 5, 77, 44
7, 139440, Note_on_c, 5, 72, 44
7, 139440, Note_on_c, 5, 69, 44
7, 139620, Note_on_c, 5, 69, 0
7, 139620, Note_on_c, 5, 72, 0
7, 139620, Note_on_c, 5, 77, 0
7, 139680, Note_on_c, 5, 69, 44
7, 139680, Note_on_c, 5, 72, 44
7, 139680, Note_on_c, 5, 77, 44
7, 139860, Note_on_c, 5, 77, 0
7, 139860, Note_on_c, 5, 72, 0
7, 139860, Note_on_c, 5, 69, 0
7, 139920, Note_on_c, 5, 77, 44
7, 139920, Note_on_c, 5, 72, 44
7, 139920, Note_on_c, 5, 69, 44
7, 140100, Note_on_c, 5, 69, 0
7, 140100, Note_on_c, 5, 72, 0
7, 140100, Note_on_c, 5, 77, 0
7, 140160, Note_on_c, 5, 69, 44
7, 140160, Note_on_c, 5, 72, 44
7, 140160, Note_on_c, 5, 77, 44
7, 140820, Note_on_c, 5, 77, 0
7, 140820, Note_on_c, 5, 72, 0
7, 140820, Note_on_c, 5, 69, 0
7, 140880, Note_on_c, 5, 77, 44
7, 140880, Note_on_c, 5, 72, 44
7, 140880, Note_on_c, 5, 69, 44
7, 141300, Note_on_c, 5, 69, 0
7, 141300, Note_on_c, 5, 72, 0
7, 141300, Note_on_c, 5, 77, 0
7, 141360, Note_on_c, 5, 69, 44
7, 141360, Note_on_c, 5, 72, 44
7, 141360, Note_on_c, 5, 77, 44
7, 141540, Note_on_c, 5, 77, 0
7, 141540, Note_on_c, 5, 72, 0
7, 141540, Note_on_c, 5, 69, 0
7, 141600, Note_on_c, 5, 77, 44
7, 141600, Note_on_c, 5, 72, 44
7, 141600, Note_on_c, 5, 69, 44
7, 141780, Note_on_c, 5, 69, 0
7, 141780, Note_on_c, 5, 72, 0
7, 141780, Note_on_c, 5, 77, 0
7, 141840, Note_on_c, 5, 69, 44
7, 141840, Note_on_c, 5, 72, 44
7, 141840, Note_on_c, 5, 77, 44
7, 142020, Note_on_c, 5, 77, 0
7, 142020, Note_on_c, 5, 72, 0
7, 142020, Note_on_c, 5, 69, 0
7, 142080, Note_on_c, 5, 71, 44
7, 142080, Note_on_c, 5, 74, 44
7, 142080, Note_on_c, 5, 79, 44
7, 142260, Note_on_c, 5, 79, 0
7, 142260, Note_on_c, 5, 74, 0
7, 142260, Note_on_c, 5, 71, 0
7, 142320, Note_on_c, 5, 79, 44
7, 142320, Note_on_c, 5, 74, 44
7, 142320, Note_on_c, 5, 71, 44
7, 142500, Note_on_c, 5, 71, 0
7, 142500, Note_on_c, 5, 74, 0
7, 142500, Note_on_c, 5, 79, 0
7, 142560, Note_on_c, 5, 71, 44
7, 142560, Note_on_c, 5, 74, 44
7, 142560, Note_on_c, 5, 79, 44
7, 142740, Note_on_c, 5, 79, 0
7, 142740, Note_on_c, 5, 74, 0
7, 142740, Note_on_c, 5, 71, 0
7, 142800, Note_on_c, 5, 79, 44
7, 142800, Note_on_c, 5, 74, 44
7, 142800, Note_on_c, 5, 71, 44
7, 142980, Note_on_c, 5, 71, 0
7, 142980, Note_on_c, 5, 74, 0
7, 142980, Note_on_c, 5, 79, 0
7, 143040, Note_on_c, 5, 71, 44
7, 143040, Note_on_c, 5, 74, 44
7, 143040, Note_on_c, 5, 79, 44
7, 143220, Note_on_c, 5, 79, 0
7, 143220, Note_on_c, 5, 74, 0
7, 143220, Note_on_c, 5, 71, 0
7, 143280, Note_on_c, 5, 79, 44
7, 143280, Note_on_c, 5, 74, 44
7, 143280, Note_on_c, 5, 71, 44
7, 143460, Note_on_c, 5, 71, 0
7, 143460, Note_on_c, 5, 74, 0
7, 143460, Note_on_c, 5, 79, 0
7, 143520, Note_on_c, 5, 71, 44
7, 143520, Note_on_c, 5, 74, 44
7, 143520, Note_on_c, 5, 79, 44
7, 143700, Note_on_c, 5, 79, 0
7, 143700, Note_on_c, 5, 74, 0
7, 143700, Note_on_c, 5, 71, 0
7, 143760, Note_on_c, 5, 79, 44
7, 143760, Note_on_c, 5, 74, 44
7, 143760, Note_on_c, 5, 71, 44
7, 143940, Note_on_c, 5, 71, 0
7, 143940, Note_on_c, 5, 74, 0
7, 143940, Note_on_c, 5, 79, 0
7, 146160, Note_on_c, 5, 67, 44
7, 146160, Note_on_c, 5, 72, 44
7, 146160, Note_on_c, 5, 76, 44
7, 146340, Note_on_c, 5, 76, 0
7, 146340, Note_on_c, 5, 72, 0
7, 146340, Note_on_c, 5, 67, 0
7, 146400, Note_on_c, 5, 76, 44
7, 146400, Note_on_c, 5, 72, 44
7, 146400, Note_on_c, 5, 67, 44
7, 146580, Note_on_c, 5, 67, 0
7, 146580, Note_on_c, 5, 72, 0
7, 146580, Note_on_c, 5, 76, 0
7, 146640, Note_on_c, 5, 67, 44
7, 146640, Note_on_c, 5, 72, 44
7, 146640, Note_on_c, 5, 76, 44
7, 146820, Note_on_c, 5, 76, 0
7, 146820, Note_on_c, 5, 72, 0
7, 146820, Note_on_c, 5, 67, 0
7, 146880, Note_on_c, 5, 76, 44
7, 146880, Note_on_c, 5, 72, 44
7, 146880, Note_on_c, 5, 67, 44
7, 147060, Note_on_c, 5, 67, 0
7, 147060, Note_on_c, 5, 72, 0
7, 147060, Note_on_c, 5, 76, 0
7, 147120, Note_on_c, 5, 67, 44
7, 147120, Note_on_c, 5, 72, 44
7, 147120, Note_on_c, 5, 76, 44
7, 147300, Note_on_c, 5, 76, 0
7, 147300, Note_on_c, 5, 72, 0
7, 147300, Note_on_c, 5, 67, 0
7, 147360, Note_on_c, 5, 76, 44
7, 147360, Note_on_c, 5, 72, 44
7, 147360, Note_on_c, 5, 67, 44
7, 147540, Note_on_c, 5, 67, 0
7, 147540, Note_on_c, 5, 72, 0
7, 147540, Note_on_c, 5, 76, 0
7, 147600, Note_on_c, 5, 67, 44
7, 147600, Note_on_c, 5, 72, 44
7, 147600, Note_on_c, 5, 76, 44
7, 147780, Note_on_c, 5, 76, 0
7, 147780, Note_on_c, 5, 72, 0
7, 147780, Note_on_c, 5, 67, 0
7, 147840, Note_on_c, 5, 76, 44
7, 147840, Note_on_c, 5, 72, 44
7, 147840, Note_on_c, 5, 67, 44
7, 148020, Note_on_c, 5, 67, 0
7, 148020, Note_on_c, 5, 72, 0
7, 148020, Note_on_c, 5, 76, 0
7, 148080, Note_on_c, 5, 67, 44
7, 148080, Note_on_c, 5, 72, 44
7, 148080, Note_on_c, 5, 76, 44
7, 148260, Note_on_c, 5, 76, 0
7, 148260, Note_on_c, 5, 72, 0
7, 148260, Note_on_c, 5, 67, 0
7, 148320, Note_on_c, 5, 76, 44
7, 148320, Note_on_c, 5, 72, 44
7, 148320, Note_on_c, 5, 67, 44
7, 148500, Note_on_c, 5, 67, 0
7, 148500, Note_on_c, 5, 72, 0
7, 148500, Note_on_c, 5, 76, 0
7, 148560, Note_on_c, 5, 67, 44
7, 148560, Note_on_c, 5, 72, 44
7, 148560, Note_on_c, 5, 76, 44
7, 148740, Note_on_c, 5, 76, 0
7, 148740, Note_on_c, 5, 72, 0
7, 148740, Note_on_c, 5, 67, 0
7, 148800, Note_on_c, 5, 76, 44
7, 148800, Note_on_c, 5, 72, 44
7, 148800, Note_on_c, 5, 67, 44
7, 148980, Note_on_c, 5, 67, 0
7, 148980, Note_on_c, 5, 72, 0
7, 148980, Note_on_c, 5, 76, 0
7, 149040, Note_on_c, 5, 67, 44
7, 149040, Note_on_c, 5, 72, 44
7, 149040, Note_on_c, 5, 76, 44
7, 149220, Note_on_c, 5, 76, 0
7, 149220, Note_on_c, 5, 72, 0
7, 149220, Note_on_c, 5, 67, 0
7, 149280, Note_on_c, 5, 76, 44
7, 149280, Note_on_c, 5, 72, 44
7, 149280, Note_on_c, 5, 67, 44
7, 149460, Note_on_c, 5, 67, 0
7, 149460, Note_on_c, 5, 72, 0
7, 149460, Note_on_c, 5, 76, 0
7, 149520, Note_on_c, 5, 67, 44
7, 149520, Note_on_c, 5, 72, 44
7, 149520, Note_on_c, 5, 76, 44
7, 149700, Note_on_c, 5, 76, 0
7, 149700, Note_on_c, 5, 72, 0
7, 149700, Note_on_c, 5, 67, 0
7, 149760, Note_on_c, 5, 77, 44
7, 149760, Note_on_c, 5, 72, 44
7, 149760, Note_on_c, 5, 69, 44
7, 149940, Note_on_c, 5, 69, 0
7, 149940, Note_on_c, 5, 72, 0
7, 149940, Note_on_c, 5, 77, 0
7, 150000, Note_on_c, 5, 69, 44
7, 150000, Note_on_c, 5, 72, 44
7, 150000, Note_on_c, 5, 77, 44
7, 150180, Note_on_c, 5, 77, 0
7, 150180, Note_on_c, 5, 72, 0
7, 150180, Note_on_c, 5, 69, 0
7, 150240, Note_on_c, 5, 77, 44
7, 150240, Note_on_c, 5, 72, 44
7, 150240, Note_on_c, 5, 69, 44
7, 150420, Note_on_c, 5, 69, 0
7, 150420, Note_on_c, 5, 72, 0
7, 150420, Note_on_c, 5, 77, 0
7, 150480, Note_on_c, 5, 69, 44
7, 150480, Note_on_c, 5, 72, 44
7, 150480, Note_on_c, 5, 77, 44
7, 150660, Note_on_c, 5, 77, 0
7, 150660, Note_on_c, 5, 72, 0
7, 150660, Note_on_c, 5, 69, 0
7, 150720, Note_on_c, 5, 77, 44
7, 150720, Note_on_c, 5, 72, 44
7, 150720, Note_on_c, 5, 69, 44
7, 150900, Note_on_c, 5, 69, 0
7, 150900, Note_on_c, 5, 72, 0
7, 150900, Note_on_c, 5, 77, 0
7, 150960, Note_on_c, 5, 69, 44
7, 150960, Note_on_c, 5, 72, 44
7, 150960, Note_on_c, 5, 77, 44
7, 151140, Note_on_c, 5, 77, 0
7, 151140, Note_on_c, 5, 72, 0
7, 151140, Note_on_c, 5, 69, 0
7, 151200, Note_on_c, 5, 77, 44
7, 151200, Note_on_c, 5, 72, 44
7, 151200, Note_on_c, 5, 69, 44
7, 151380, Note_on_c, 5, 69, 0
7, 151380, Note_on_c, 5, 72, 0
7, 151380, Note_on_c, 5, 77, 0
7, 151440, Note_on_c, 5, 69, 44
7, 151440, Note_on_c, 5, 72, 44
7, 151440, Note_on_c, 5, 77, 44
7, 151620, Note_on_c, 5, 77, 0
7, 151620, Note_on_c, 5, 72, 0
7, 151620, Note_on_c, 5, 69, 0
7, 151680, Note_on_c, 5, 69, 44
7, 151680, Note_on_c, 5, 74, 44
7, 151680, Note_on_c, 5, 78, 44
7, 151860, Note_on_c, 5, 78, 0
7, 151860, Note_on_c, 5, 74, 0
7, 151860, Note_on_c, 5, 69, 0
7, 151920, Note_on_c, 5, 78, 44
7, 151920, Note_on_c, 5, 74, 44
7, 151920, Note_on_c, 5, 69, 44
7, 152100, Note_on_c, 5, 69, 0
7, 152100, Note_on_c, 5, 74, 0
7, 152100, Note_on_c, 5, 78, 0
7, 152160, Note_on_c, 5, 69, 44
7, 152160, Note_on_c, 5, 74, 44
7, 152160, Note_on_c, 5, 78, 44
7, 152340, Note_on_c, 5, 78, 0
7, 152340, Note_on_c, 5, 74, 0
7, 152340, Note_on_c, 5, 69, 0
7, 152400, Note_on_c, 5, 78, 44
7, 152400, Note_on_c, 5, 74, 44
7, 152400, Note_on_c, 5, 69, 44
7, 152580, Note_on_c, 5, 69, 0
7, 152580, Note_on_c, 5, 74, 0
7, 152580, Note_on_c, 5, 78, 0
7, 152640, Note_on_c, 5, 71, 44
7, 152640, Note_on_c, 5, 74, 44
7, 152640, Note_on_c, 5, 79, 44
7, 152820, Note_on_c, 5, 79, 0
7, 152820, Note_on_c, 5, 74, 0
7, 152820, Note_on_c, 5, 71, 0
7, 152880, Note_on_c, 5, 79, 44
7, 152880, Note_on_c, 5, 74, 44
7, 152880, Note_on_c, 5, 71, 44
7, 153060, Note_on_c, 5, 71, 0
7, 153060, Note_on_c, 5, 74, 0
7, 153060, Note_on_c, 5, 79, 0
7, 153120, Note_on_c, 5, 71, 44
7, 153120, Note_on_c, 5, 74, 44
7, 153120, Note_on_c, 5, 79, 44
7, 153300, Note_on_c, 5, 79, 0
7, 153300, Note_on_c, 5, 74, 0
7, 153300, Note_on_c, 5, 71, 0
7, 153360, Note_on_c, 5, 79, 44
7, 153360, Note_on_c, 5, 74, 44
7, 153360, Note_on_c, 5, 71, 44
7, 153540, Note_on_c, 5, 71, 0
7, 153540, Note_on_c, 5, 74, 0
7, 153540, Note_on_c, 5, 79, 0
7, 153600, Note_on_c, 5, 69, 44
7, 153600, Note_on_c, 5, 72, 44
7, 153600, Note_on_c, 5, 77, 44
7, 153780, Note_on_c, 5, 77, 0
7, 153780, Note_on_c, 5, 72, 0
7, 153780, Note_on_c, 5, 69, 0
7, 153840, Note_on_c, 5, 77, 44
7, 153840, Note_on_c, 5, 72, 44
7, 153840, Note_on_c, 5, 69, 44
7, 154020, Note_on_c, 5, 69, 0
7, 154020, Note_on_c, 5, 72, 0
7, 154020, Note_on_c, 5, 77, 0
7, 154080, Note_on_c, 5, 69, 44
7, 154080, Note_on_c, 5, 72, 44
7, 154080, Note_on_c, 5, 77, 44
7, 154260, Note_on_c, 5, 77, 0
7, 154260, Note_on_c, 5, 72, 0
7, 154260, Note_on_c, 5, 69, 0
7, 154320, Note_on_c, 5, 77, 44
7, 154320, Note_on_c, 5, 72, 44
7, 154320, Note_on_c, 5, 69, 44
7, 154500, Note_on_c, 5, 69, 0
7, 154500, Note_on_c, 5, 72, 0
7, 154500, Note_on_c, 5, 77, 0
7, 154560, Note_on_c, 5, 67, 44
7, 154560, Note_on_c, 5, 72, 44
7, 154560, Note_on_c, 5, 76, 44
7, 154740, Note_on_c, 5, 76, 0
7, 154740, Note_on_c, 5, 72, 0
7, 154740, Note_on_c, 5, 67, 0
7, 154800, Note_on_c, 5, 76, 44
7, 154800, Note_on_c, 5, 72, 44
7, 154800, Note_on_c, 5, 67, 44
7, 154980, Note_on_c, 5, 67, 0
7, 154980, Note_on_c, 5, 72, 0
7, 154980, Note_on_c, 5, 76, 0
7, 155040, Note_on_c, 5, 67, 44
7, 155040, Note_on_c, 5, 72, 44
7, 155040, Note_on_c, 5, 76, 44
7, 155220, Note_on_c, 5, 76, 0
7, 155220, Note_on_c, 5, 72, 0
7, 155220, Note_on_c, 5, 67, 0
7, 155280, Note_on_c, 5, 76, 44
7, 155280, Note_on_c, 5, 72, 44
7, 155280, Note_on_c, 5, 67, 44
7, 155460, Note_on_c, 5, 67, 0
7, 155460, Note_on_c, 5, 72, 0
7, 155460, Note_on_c, 5, 76, 0
7, 155520, Note_on_c, 5, 67, 44
7, 155520, Note_on_c, 5, 72, 44
7, 155520, Note_on_c, 5, 76, 44
7, 155700, Note_on_c, 5, 76, 0
7, 155700, Note_on_c, 5, 72, 0
7, 155700, Note_on_c, 5, 67, 0
7, 155760, Note_on_c, 5, 76, 44
7, 155760, Note_on_c, 5, 72, 44
7, 155760, Note_on_c, 5, 67, 44
7, 155940, Note_on_c, 5, 67, 0
7, 155940, Note_on_c, 5, 72, 0
7, 155940, Note_on_c, 5, 76, 0
7, 156000, Note_on_c, 5, 67, 44
7, 156000, Note_on_c, 5, 72, 44
7, 156000, Note_on_c, 5, 76, 44
7, 156180, Note_on_c, 5, 76, 0
7, 156180, Note_on_c, 5, 72, 0
7, 156180, Note_on_c, 5, 67, 0
7, 156240, Note_on_c, 5, 76, 44
7, 156240, Note_on_c, 5, 72, 44
7, 156240, Note_on_c, 5, 67, 44
7, 156420, Note_on_c, 5, 67, 0
7, 156420, Note_on_c, 5, 72, 0
7, 156420, Note_on_c, 5, 76, 0
7, 156480, Note_on_c, 5, 67, 44
7, 156480, Note_on_c, 5, 72, 44
7, 156480, Note_on_c, 5, 76, 44
7, 156660, Note_on_c, 5, 76, 0
7, 156660, Note_on_c, 5, 72, 0
7, 156660, Note_on_c, 5, 67, 0
7, 156720, Note_on_c, 5, 76, 44
7, 156720, Note_on_c, 5, 72, 44
7, 156720, Note_on_c, 5, 67, 44
7, 156900, Note_on_c, 5, 67, 0
7, 156900, Note_on_c, 5, 72, 0
7, 156900, Note_on_c, 5, 76, 0
7, 156960, Note_on_c, 5, 67, 44
7, 156960, Note_on_c, 5, 72, 44
7, 156960, Note_on_c, 5, 76, 44
7, 157140, Note_on_c, 5, 76, 0
7, 157140, Note_on_c, 5, 72, 0
7, 157140, Note_on_c, 5, 67, 0
7, 157200, Note_on_c, 5, 76, 44
7, 157200, Note_on_c, 5, 72, 44
7, 157200, Note_on_c, 5, 67, 44
7, 157380, Note_on_c, 5, 67, 0
7, 157380, Note_on_c, 5, 72, 0
7, 157380, Note_on_c, 5, 76, 0
7, 157440, Note_on_c, 5, 67, 44
7, 157440, Note_on_c, 5, 72, 44
7, 157440, Note_on_c, 5, 76, 44
7, 157620, Note_on_c, 5, 76, 0
7, 157620, Note_on_c, 5, 72, 0
7, 157620, Note_on_c, 5, 67, 0
7, 157680, Note_on_c, 5, 76, 44
7, 157680, Note_on_c, 5, 72, 44
7, 157680, Note_on_c, 5, 67, 44
7, 157860, Note_on_c, 5, 67, 0
7, 157860, Note_on_c, 5, 72, 0
7, 157860, Note_on_c, 5, 76, 0
7, 157920, Note_on_c, 5, 67, 44
7, 157920, Note_on_c, 5, 72, 44
7, 157920, Note_on_c, 5, 76, 44
7, 158100, Note_on_c, 5, 76, 0
7, 158100, Note_on_c, 5, 72, 0
7, 158100, Note_on_c, 5, 67, 0
7, 158160, Note_on_c, 5, 76, 44
7, 158160, Note_on_c, 5, 72, 44
7, 158160, Note_on_c, 5, 67, 44
7, 158340, Note_on_c, 5, 67, 0
7, 158340, Note_on_c, 5, 72, 0
7, 158340, Note_on_c, 5, 76, 0
7, 158400, Note_on_c, 5, 69, 44
7, 158400, Note_on_c, 5, 72, 44
7, 158400, Note_on_c, 5, 77, 44
7, 158580, Note_on_c, 5, 77, 0
7, 158580, Note_on_c, 5, 72, 0
7, 158580, Note_on_c, 5, 69, 0
7, 158640, Note_on_c, 5, 77, 44
7, 158640, Note_on_c, 5, 72, 44
7, 158640, Note_on_c, 5, 69, 44
7, 158820, Note_on_c, 5, 69, 0
7, 158820, Note_on_c, 5, 72, 0
7, 158820, Note_on_c, 5, 77, 0
7, 158880, Note_on_c, 5, 69, 44
7, 158880, Note_on_c, 5, 72, 44
7, 158880, Note_on_c, 5, 77, 44
7, 159060, Note_on_c, 5, 77, 0
7, 159060, Note_on_c, 5, 72, 0
7, 159060, Note_on_c, 5, 69, 0
7, 159120, Note_on_c, 5, 77, 44
7, 159120, Note_on_c, 5, 72, 44
7, 159120, Note_on_c, 5, 69, 44
7, 159300, Note_on_c, 5, 69, 0
7, 159300, Note_on_c, 5, 72, 0
7, 159300, Note_on_c, 5, 77, 0
7, 159360, Note_on_c, 5, 69, 44
7, 159360, Note_on_c, 5, 72, 44
7, 159360, Note_on_c, 5, 77, 44
7, 159540, Note_on_c, 5, 77, 0
7, 159540, Note_on_c, 5, 72, 0
7, 159540, Note_on_c, 5, 69, 0
7, 159600, Note_on_c, 5, 77, 44
7, 159600, Note_on_c, 5, 72, 44
7, 159600, Note_on_c, 5, 69, 44
7, 159780, Note_on_c, 5, 69, 0
7, 159780, Note_on_c, 5, 72, 0
7, 159780, Note_on_c, 5, 77, 0
7, 159840, Note_on_c, 5, 69, 44
7, 159840, Note_on_c, 5, 72, 44
7, 159840, Note_on_c, 5, 77, 44
7, 160020, Note_on_c, 5, 77, 0
7, 160020, Note_on_c, 5, 72, 0
7, 160020, Note_on_c, 5, 69, 0
7, 160080, Note_on_c, 5, 77, 44
7, 160080, Note_on_c, 5, 72, 44
7, 160080, Note_on_c, 5, 69, 44
7, 160260, Note_on_c, 5, 69, 0
7, 160260, Note_on_c, 5, 72, 0
7, 160260, Note_on_c, 5, 77, 0
7, 160320, Note_on_c, 5, 69, 44
7, 160320, Note_on_c, 5, 74, 44
7, 160320, Note_on_c, 5, 78, 44
7, 160500, Note_on_c, 5, 78, 0
7, 160500, Note_on_c, 5, 74, 0
7, 160500, Note_on_c, 5, 69, 0
7, 160560, Note_on_c, 5, 78, 44
7, 160560, Note_on_c, 5, 74, 44
7, 160560, Note_on_c, 5, 69, 44
7, 160740, Note_on_c, 5, 69, 0
7, 160740, Note_on_c, 5, 74, 0
7, 160740, Note_on_c, 5, 78, 0
7, 160800, Note_on_c, 5, 69, 44
7, 160800, Note_on_c, 5, 74, 44
7, 160800, Note_on_c, 5, 78, 44
7, 160980, Note_on_c, 5, 78, 0
7, 160980, Note_on_c, 5, 74, 0
7, 160980, Note_on_c, 5, 69, 0
7, 161040, Note_on_c, 5, 78, 44
7, 161040, Note_on_c, 5, 74, 44
7, 161040, Note_on_c, 5, 69, 44
7, 161220, Note_on_c, 5, 69, 0
7, 161220, Note_on_c, 5, 74, 0
7, 161220, Note_on_c, 5, 78, 0
7, 161280, Note_on_c, 5, 72, 44
7, 161280, Note_on_c, 5, 76, 44
7, 161280, Note_on_c, 5, 81, 44
7, 161700, Note_on_c, 5, 81, 0
7, 161700, Note_on_c, 5, 76, 0
7, 161700, Note_on_c, 5, 72, 0
7, 161760, Note_on_c, 5, 71, 44
7, 161760, Note_on_c, 5, 74, 44
7, 161760, Note_on_c, 5, 79, 44
7, 162180, Note_on_c, 5, 79, 0
7, 162180, Note_on_c, 5, 74, 0
7, 162180, Note_on_c, 5, 71, 0
7, 162240, Note_on_c, 5, 74, 44
7, 162240, Note_on_c, 5, 77, 44
7, 162240, Note_on_c, 5, 82, 44
7, 162660, Note_on_c, 5, 82, 0
7, 162660, Note_on_c, 5, 77, 0
7, 162660, Note_on_c, 5, 74, 0
7, 162720, Note_on_c, 5, 69, 44
7, 162720, Note_on_c, 5, 72, 44
7, 162720, Note_on_c, 5, 77, 44
7, 164100, Note_on_c, 5, 77, 0
7, 164100, Note_on_c, 5, 72, 0
7, 164100, Note_on_c, 5, 69, 0
7, 164160, Note_on_c, 5, 80, 44
7, 164160, Note_on_c, 5, 84, 44
7, 164160, Note_on_c, 5, 88, 44
7, 164580, Note_on_c, 5, 88, 0
7, 164580, Note_on_c, 5, 84, 0
7, 164580, Note_on_c, 5, 80, 0
7, 164640, Note_on_c, 5, 78, 44
7, 164640, Note_on_c, 5, 83, 44
7, 164640, Note_on_c, 5, 86, 44
7, 165060, Note_on_c, 5, 86, 0
7, 165060, Note_on_c, 5, 83, 0
7, 165060, Note_on_c, 5, 78, 0
7, 165120, Note_on_c, 5, 77, 44
7, 165120, Note_on_c, 5, 81, 44
7, 165120, Note_on_c, 5, 86, 44
7, 165540, Note_on_c, 5, 86, 0
7, 165540, Note_on_c, 5, 81, 0
7, 165540, Note_on_c, 5, 77, 0
7, 165600, Note_on_c, 5, 76, 44
7, 165600, Note_on_c, 5, 79, 44
7, 165600, Note_on_c, 5, 84, 44
7, 166980, Note_on_c, 5, 84, 0
7, 166980, Note_on_c, 5, 79, 0
7, 166980, Note_on_c, 5, 76, 0
7, 167040, Note_on_c, 5, 72, 44
7, 167040, Note_on_c, 5, 76, 44
7, 167040, Note_on_c, 5, 81, 44
7, 167460, Note_on_c, 5, 81, 0
7, 167460, Note_on_c, 5, 76, 0
7, 167460, Note_on_c, 5, 72, 0
7, 167520, Note_on_c, 5, 71, 44
7, 167520, Note_on_c, 5, 74, 44
7, 167520, Note_on_c, 5, 79, 44
7, 167940, Note_on_c, 5, 79, 0
7, 167940, Note_on_c, 5, 74, 0
7, 167940, Note_on_c, 5, 71, 0
7, 168000, Note_on_c, 5, 77, 44
7, 168000, Note_on_c, 5, 74, 44
7, 168000, Note_on_c, 5, 82, 44
7, 168420, Note_on_c, 5, 82, 0
7, 168420, Note_on_c, 5, 74, 0
7, 168420, Note_on_c, 5, 77, 0
7, 168480, Note_on_c, 5, 69, 44
7, 168480, Note_on_c, 5, 72, 44
7, 168480, Note_on_c, 5, 77, 44
7, 169860, Note_on_c, 5, 77, 0
7, 169860, Note_on_c, 5, 72, 0
7, 169860, Note_on_c, 5, 69, 0
7, 169920, Note_on_c, 5, 80, 44
7, 169920, Note_on_c, 5, 84, 44
7, 169920, Note_on_c, 5, 88, 44
7, 170340, Note_on_c, 5, 88, 0
7, 170340, Note_on_c, 5, 84, 0
7, 170340, Note_on_c, 5, 80, 0
7, 170400, Note_on_c, 5, 78, 44
7, 170400, Note_on_c, 5, 83, 44
7, 170400, Note_on_c, 5, 86, 44
7, 170820, Note_on_c, 5, 86, 0
7, 170820, Note_on_c, 5, 83, 0
7, 170820, Note_on_c, 5, 78, 0
7, 170880, Note_on_c, 5, 77, 44
7, 170880, Note_on_c, 5, 81, 44
7, 170880, Note_on_c, 5, 86, 44
7, 171300, Note_on_c, 5, 86, 0
7, 171300, Note_on_c, 5, 81, 0
7, 171300, Note_on_c, 5, 77, 0
7, 171360, Note_on_c, 5, 76, 44
7, 171360, Note_on_c, 5, 79, 44
7, 172260, Note_on_c, 5, 79, 0
7, 172260, Note_on_c, 5, 76, 0
7, 173280, Note_on_c, 5, 69, 44
7, 173280, Note_on_c, 5, 65, 44
7, 175140, Note_on_c, 5, 65, 0
7, 175140, Note_on_c, 5, 69, 0
7, 175440, Note_on_c, 5, 71, 44
7, 175440, Note_on_c, 5, 76, 44
7, 175860, Note_on_c, 5, 76, 0
7, 175860, Note_on_c, 5, 71, 0
7, 177120, Note_on_c, 5, 67, 44
7, 177120, Note_on_c, 5, 70, 44
7, 177120, Note_on_c, 5, 73, 44
7, 177780, Note_on_c, 5, 73, 0
7, 177780, Note_on_c, 5, 70, 0
7, 177780, Note_on_c, 5, 67, 0
7, 179040, Note_on_c, 5, 65, 44
7, 179040, Note_on_c, 5, 69, 44
7, 179040, Note_on_c, 5, 72, 44
7, 179940, Note_on_c, 5, 72, 0
7, 179940, Note_on_c, 5, 69, 0
7, 179940, Note_on_c, 5, 65, 0
7, 180480, Note_on_c, 5, 72, 44
7, 180480, Note_on_c, 5, 69, 44
7, 180480, Note_on_c, 5, 65, 44
7, 180900, Note_on_c, 5, 65, 0
7, 180900, Note_on_c, 5, 69, 0
7, 180900, Note_on_c, 5, 72, 0
7, 180960, Note_on_c, 5, 65, 44
7, 180960, Note_on_c, 5, 68, 44
7, 181500, Note_on_c, 5, 68, 0
7, 181500, Note_on_c, 5, 65, 0
7, 181560, Note_on_c, 5, 68, 44
7, 181560, Note_on_c, 5, 72, 44
7, 181980, Note_on_c, 5, 72, 0
7, 181980, Note_on_c, 5, 68, 0
7, 182400, Note_on_c, 5, 72, 44
7, 182400, Note_on_c, 5, 68, 44
7, 182820, Note_on_c, 5, 68, 0
7, 182820, Note_on_c, 5, 72, 0
7, 182880, Note_on_c, 5, 71, 44
7, 182880, Note_on_c, 5, 67, 44
7, 186660, Note_on_c, 5, 67, 0
7, 186660, Note_on_c, 5, 71, 0
7, 186660, End_track
8, 0, Start_track
8, 0, MIDI_port, 0
8, 0, Title_t, "Drums"
8, 0, Program_c, 9, 0
8, 0, Control_c, 9, 7, 85
8, 0, Control_c, 9, 10, 64
8, 0, Control_c, 9, 91, 9
8, 7435, Note_on_c, 9, 46, 48
8, 7675, Note_on_c, 9, 46, 0
8, 7680, Note_on_c, 9, 42, 107
8, 7680, Note_on_c, 9, 36, 107
8, 7800, Note_on_c, 9, 36, 0
8, 7800, Note_on_c, 9, 42, 0
8, 7920, Note_on_c, 9, 42, 59
8, 7920, Note_on_c, 9, 36, 59
8, 8040, Note_on_c, 9, 36, 0
8, 8040, Note_on_c, 9, 42, 0
8, 8160, Note_on_c, 9, 38, 93
8, 8160, Note_on_c, 9, 36, 93
8, 8160, Note_on_c, 9, 42, 93
8, 8280, Note_on_c, 9, 42, 0
8, 8400, Note_on_c, 9, 36, 0
8, 8400, Note_on_c, 9, 38, 0
8, 8402, Note_on_c, 9, 42, 49
8, 8522, Note_on_c, 9, 42, 0
8, 8637, Note_on_c, 9, 42, 93
8, 8637, Note_on_c, 9, 36, 93
8, 8757, Note_on_c, 9, 36, 0
8, 8757, Note_on_c, 9, 42, 0
8, 8874, Note_on_c, 9, 42, 51
8, 8874, Note_on_c, 9, 36, 51
8, 8994, Note_on_c, 9, 36, 0
8, 8994, Note_on_c, 9, 42, 0
8, 9122, Note_on_c, 9, 42, 86
8, 9122, Note_on_c, 9, 36, 86
8, 9122, Note_on_c, 9, 38, 86
8, 9242, Note_on_c, 9, 42, 0
8, 9362, Note_on_c, 9, 38, 0
8, 9362, Note_on_c, 9, 36, 0
8, 9365, Note_on_c, 9, 42, 52
8, 9485, Note_on_c, 9, 42, 0
8, 9607, Note_on_c, 9, 36, 104
8, 9607, Note_on_c, 9, 42, 104
8, 9727, Note_on_c, 9, 42, 0
8, 9727, Note_on_c, 9, 36, 0
8, 9845, Note_on_c, 9, 36, 45
8, 9845, Note_on_c, 9, 42, 45
8, 9965, Note_on_c, 9, 42, 0
8, 9965, Note_on_c, 9, 36, 0
8, 10078, Note_on_c, 9, 36, 95
8, 10078, Note_on_c, 9, 38, 95
8, 10078, Note_on_c, 9, 42, 95
8, 10198, Note_on_c, 9, 42, 0
8, 10318, Note_on_c, 9, 38, 0
8, 10318, Note_on_c, 9, 36, 0
8, 10322, Note_on_c, 9, 42, 57
8, 10442, Note_on_c, 9, 42, 0
8, 10560, Note_on_c, 9, 36, 84
8, 10560, Note_on_c, 9, 42, 84
8, 10680, Note_on_c, 9, 42, 0
8, 10680, Note_on_c, 9, 36, 0
8, 10805, Note_on_c, 9, 42, 56
8, 10805, Note_on_c, 9, 36, 56
8, 10925, Note_on_c, 9, 36, 0
8, 10925, Note_on_c, 9, 42, 0
8, 11040, Note_on_c, 9, 36, 105
8, 11040, Note_on_c, 9, 42, 105
8, 11040, Note_on_c, 9, 38, 105
8, 11160, Note_on_c, 9, 38, 0
8, 11160, Note_on_c, 9, 42, 0
8, 11160, Note_on_c, 9, 36, 0
8, 11275, Note_on_c, 9, 46, 48
8, 11515, Note_on_c, 9, 46, 0
8, 11520, Note_on_c, 9, 42, 107
8, 11520, Note_on_c, 9, 36, 107
8, 11640, Note_on_c, 9, 36, 0
8, 11640, Note_on_c, 9, 42, 0
8, 11760, Note_on_c, 9, 42, 59
8, 11880, Note_on_c, 9, 42, 0
8, 12000, Note_on_c, 9, 38, 93
8, 12000, Note_on_c, 9, 42, 93
8, 12120, Note_on_c, 9, 42, 0
8, 12120, Note_on_c, 9, 38, 0
8, 12242, Note_on_c, 9, 36, 49
8, 12242, Note_on_c, 9, 42, 49
8, 12362, Note_on_c, 9, 42, 0
8, 12362, Note_on_c, 9, 36, 0
8, 12477, Note_on_c, 9, 36, 93
8, 12477, Note_on_c, 9, 42, 93
8, 12597, Note_on_c, 9, 42, 0
8, 12597, Note_on_c, 9, 36, 0
8, 12714, Note_on_c, 9, 36, 51
8, 12714, Note_on_c, 9, 42, 51
8, 12834, Note_on_c, 9, 42, 0
8, 12834, Note_on_c, 9, 36, 0
8, 12962, Note_on_c, 9, 38, 86
8, 12962, Note_on_c, 9, 42, 86
8, 13082, Note_on_c, 9, 42, 0
8, 13082, Note_on_c, 9, 38, 0
8, 13205, Note_on_c, 9, 42, 52
8, 13325, Note_on_c, 9, 42, 0
8, 13447, Note_on_c, 9, 42, 104
8, 13447, Note_on_c, 9, 36, 104
8, 13567, Note_on_c, 9, 36, 0
8, 13567, Note_on_c, 9, 42, 0
8, 13685, Note_on_c, 9, 42, 45
8, 13685, Note_on_c, 9, 36, 45
8, 13805, Note_on_c, 9, 36, 0
8, 13805, Note_on_c, 9, 42, 0
8, 13918, Note_on_c, 9, 42, 95
8, 13918, Note_on_c, 9, 38, 95
8, 13918, Note_on_c, 9, 36, 95
8, 14038, Note_on_c, 9, 36, 0
8, 14038, Note_on_c, 9, 38, 0
8, 14038, Note_on_c, 9, 42, 0
8, 14162, Note_on_c, 9, 42, 57
8, 14282, Note_on_c, 9, 42, 0
8, 14400, Note_on_c, 9, 42, 84
8, 14400, Note_on_c, 9, 36, 84
8, 14520, Note_on_c, 9, 36, 0
8, 14520, Note_on_c, 9, 42, 0
8, 14645, Note_on_c, 9, 36, 56
8, 14645, Note_on_c, 9, 42, 56
8, 14765, Note_on_c, 9, 42, 0
8, 14765, Note_on_c, 9, 36, 0
8, 14880, Note_on_c, 9, 38, 105
8, 14880, Note_on_c, 9, 36, 105
8, 14880, Note_on_c, 9, 42, 105
8, 15000, Note_on_c, 9, 42, 0
8, 15000, Note_on_c, 9, 36, 0
8, 15000, Note_on_c, 9, 38, 0
8, 15115, Note_on_c, 9, 46, 48
8, 15235, Note_on_c, 9, 46, 0
8, 15360, Note_on_c, 9, 42, 107
8, 15360, Note_on_c, 9, 36, 107
8, 15480, Note_on_c, 9, 36, 0
8, 15480, Note_on_c, 9, 42, 0
8, 15600, Note_on_c, 9, 42, 59
8, 15720, Note_on_c, 9, 42, 0
8, 15840, Note_on_c, 9, 38, 93
8, 15840, Note_on_c, 9, 42, 93
8, 15960, Note_on_c, 9, 42, 0
8, 15960, Note_on_c, 9, 38, 0
8, 16082, Note_on_c, 9, 42, 49
8, 16202, Note_on_c, 9, 42, 0
8, 16317, Note_on_c, 9, 42, 93
8, 16317, Note_on_c, 9, 36, 93
8, 16437, Note_on_c, 9, 36, 0
8, 16437, Note_on_c, 9, 42, 0
8, 16554, Note_on_c, 9, 42, 51
8, 16554, Note_on_c, 9, 36, 51
8, 16554, Note_on_c, 9, 45, 51
8, 16674, Note_on_c, 9, 36, 0
8, 16674, Note_on_c, 9, 42, 0
8, 16802, Note_on_c, 9, 38, 86
8, 16802, Note_on_c, 9, 42, 86
8, 16914, Note_on_c, 9, 45, 0
8, 16922, Note_on_c, 9, 42, 0
8, 16922, Note_on_c, 9, 38, 0
8, 17045, Note_on_c, 9, 41, 52
8, 17045, Note_on_c, 9, 42, 52
8, 17045, Note_on_c, 9, 36, 52
8, 17165, Note_on_c, 9, 36, 0
8, 17165, Note_on_c, 9, 42, 0
8, 17285, Note_on_c, 9, 41, 0
8, 17287, Note_on_c, 9, 46, 104
8, 18367, Note_on_c, 9, 46, 0
8, 46320, Note_on_c, 9, 38, 60
8, 46320, Note_on_c, 9, 36, 59
8, 46440, Note_on_c, 9, 36, 0
8, 46440, Note_on_c, 9, 38, 0
8, 46560, Note_on_c, 9, 38, 70
8, 46560, Note_on_c, 9, 36, 93
8, 46680, Note_on_c, 9, 36, 0
8, 46680, Note_on_c, 9, 38, 0
8, 46802, Note_on_c, 9, 36, 49
8, 46802, Note_on_c, 9, 38, 80
8, 46922, Note_on_c, 9, 38, 0
8, 46922, Note_on_c, 9, 36, 0
8, 47037, Note_on_c, 9, 36, 93
8, 47037, Note_on_c, 9, 38, 93
8, 47157, Note_on_c, 9, 38, 0
8, 47157, Note_on_c, 9, 36, 0
8, 47274, Note_on_c, 9, 36, 51
8, 47274, Note_on_c, 9, 38, 107
8, 47394, Note_on_c, 9, 38, 0
8, 47394, Note_on_c, 9, 36, 0
8, 47522, Note_on_c, 9, 36, 86
8, 47522, Note_on_c, 9, 38, 107
8, 47642, Note_on_c, 9, 38, 0
8, 47642, Note_on_c, 9, 36, 0
8, 47765, Note_on_c, 9, 46, 52
8, 47765, Note_on_c, 9, 38, 107
8, 47765, Note_on_c, 9, 43, 52
8, 47870, Note_on_c, 9, 43, 57
8, 47870, Note_on_c, 9, 38, 107
8, 47885, Note_on_c, 9, 38, 0
8, 47885, Note_on_c, 9, 43, 0
8, 47990, Note_on_c, 9, 43, 0
8, 47990, Note_on_c, 9, 38, 0
8, 48005, Note_on_c, 9, 46, 0
8, 48007, Note_on_c, 9, 36, 104
8, 48007, Note_on_c, 9, 42, 104
8, 48007, Note_on_c, 9, 49, 104
8, 48127, Note_on_c, 9, 49, 0
8, 48127, Note_on_c, 9, 42, 0
8, 48245, Note_on_c, 9, 42, 45
8, 48247, Note_on_c, 9, 36, 0
8, 48365, Note_on_c, 9, 42, 0
8, 48478, Note_on_c, 9, 38, 95
8, 48478, Note_on_c, 9, 42, 95
8, 48598, Note_on_c, 9, 42, 0
8, 48598, Note_on_c, 9, 38, 0
8, 48722, Note_on_c, 9, 42, 57
8, 48722, Note_on_c, 9, 36, 57
8, 48842, Note_on_c, 9, 36, 0
8, 48842, Note_on_c, 9, 42, 0
8, 48960, Note_on_c, 9, 36, 84
8, 48960, Note_on_c, 9, 42, 84
8, 49080, Note_on_c, 9, 42, 0
8, 49080, Note_on_c, 9, 36, 0
8, 49205, Note_on_c, 9, 42, 56
8, 49325, Note_on_c, 9, 42, 0
8, 49440, Note_on_c, 9, 38, 105
8, 49440, Note_on_c, 9, 42, 105
8, 49560, Note_on_c, 9, 42, 0
8, 49675, Note_on_c, 9, 42, 48
8, 49680, Note_on_c, 9, 38, 0
8, 49795, Note_on_c, 9, 42, 0
8, 49920, Note_on_c, 9, 42, 107
8, 49920, Note_on_c, 9, 36, 107
8, 50040, Note_on_c, 9, 36, 0
8, 50040, Note_on_c, 9, 42, 0
8, 50160, Note_on_c, 9, 42, 59
8, 50280, Note_on_c, 9, 42, 0
8, 50400, Note_on_c, 9, 38, 93
8, 50400, Note_on_c, 9, 42, 93
8, 50520, Note_on_c, 9, 42, 0
8, 50640, Note_on_c, 9, 38, 0
8, 50642, Note_on_c, 9, 42, 49
8, 50642, Note_on_c, 9, 36, 49
8, 50762, Note_on_c, 9, 36, 0
8, 50762, Note_on_c, 9, 42, 0
8, 50877, Note_on_c, 9, 42, 93
8, 50877, Note_on_c, 9, 36, 93
8, 50997, Note_on_c, 9, 36, 0
8, 50997, Note_on_c, 9, 42, 0
8, 51114, Note_on_c, 9, 36, 51
8, 51114, Note_on_c, 9, 42, 51
8, 51234, Note_on_c, 9, 42, 0
8, 51234, Note_on_c, 9, 36, 0
8, 51362, Note_on_c, 9, 38, 86
8, 51362, Note_on_c, 9, 42, 86
8, 51482, Note_on_c, 9, 42, 0
8, 51482, Note_on_c, 9, 38, 0
8, 51605, Note_on_c, 9, 36, 52
8, 51605, Note_on_c, 9, 42, 52
8, 51725, Note_on_c, 9, 42, 0
8, 51725, Note_on_c, 9, 36, 0
8, 51847, Note_on_c, 9, 36, 104
8, 51847, Note_on_c, 9, 42, 104
8, 51967, Note_on_c, 9, 42, 0
8, 51967, Note_on_c, 9, 36, 0
8, 52085, Note_on_c, 9, 42, 45
8, 52205, Note_on_c, 9, 42, 0
8, 52318, Note_on_c, 9, 38, 95
8, 52318, Note_on_c, 9, 42, 95
8, 52438, Note_on_c, 9, 42, 0
8, 52438, Note_on_c, 9, 38, 0
8, 52562, Note_on_c, 9, 36, 57
8, 52562, Note_on_c, 9, 42, 57
8, 52682, Note_on_c, 9, 42, 0
8, 52682, Note_on_c, 9, 36, 0
8, 52800, Note_on_c, 9, 36, 84
8, 52800, Note_on_c, 9, 42, 84
8, 52920, Note_on_c, 9, 42, 0
8, 52920, Note_on_c, 9, 36, 0
8, 53045, Note_on_c, 9, 42, 56
8, 53165, Note_on_c, 9, 42, 0
8, 53280, Note_on_c, 9, 38, 105
8, 53280, Note_on_c, 9, 42, 105
8, 53400, Note_on_c, 9, 42, 0
8, 53515, Note_on_c, 9, 42, 48
8, 53520, Note_on_c, 9, 38, 0
8, 53635, Note_on_c, 9, 42, 0
8, 53760, Note_on_c, 9, 42, 107
8, 53760, Note_on_c, 9, 36, 107
8, 53880, Note_on_c, 9, 36, 0
8, 53880, Note_on_c, 9, 42, 0
8, 54000, Note_on_c, 9, 42, 59
8, 54120, Note_on_c, 9, 42, 0
8, 54240, Note_on_c, 9, 38, 93
8, 54240, Note_on_c, 9, 42, 93
8, 54360, Note_on_c, 9, 42, 0
8, 54360, Note_on_c, 9, 38, 0
8, 54482, Note_on_c, 9, 36, 49
8, 54482, Note_on_c, 9, 42, 49
8, 54602, Note_on_c, 9, 42, 0
8, 54602, Note_on_c, 9, 36, 0
8, 54717, Note_on_c, 9, 36, 93
8, 54717, Note_on_c, 9, 42, 93
8, 54837, Note_on_c, 9, 42, 0
8, 54837, Note_on_c, 9, 36, 0
8, 54954, Note_on_c, 9, 42, 51
8, 55074, Note_on_c, 9, 42, 0
8, 55202, Note_on_c, 9, 42, 86
8, 55202, Note_on_c, 9, 38, 86
8, 55322, Note_on_c, 9, 38, 0
8, 55322, Note_on_c, 9, 42, 0
8, 55445, Note_on_c, 9, 42, 52
8, 55565, Note_on_c, 9, 42, 0
8, 55687, Note_on_c, 9, 42, 104
8, 55687, Note_on_c, 9, 36, 104
8, 55807, Note_on_c, 9, 36, 0
8, 55807, Note_on_c, 9, 42, 0
8, 55925, Note_on_c, 9, 42, 45
8, 56045, Note_on_c, 9, 42, 0
8, 56158, Note_on_c, 9, 38, 95
8, 56158, Note_on_c, 9, 42, 95
8, 56278, Note_on_c, 9, 42, 0
8, 56278, Note_on_c, 9, 38, 0
8, 56402, Note_on_c, 9, 36, 57
8, 56402, Note_on_c, 9, 46, 57
8, 56402, Note_on_c, 9, 43, 57
8, 56515, Note_on_c, 9, 43, 80
8, 56522, Note_on_c, 9, 43, 0
8, 56522, Note_on_c, 9, 36, 0
8, 56635, Note_on_c, 9, 43, 0
8, 56640, Note_on_c, 9, 49, 84
8, 56640, Note_on_c, 9, 36, 84
8, 56640, Note_on_c, 9, 42, 84
8, 56642, Note_on_c, 9, 46, 0
8, 56760, Note_on_c, 9, 42, 0
8, 56760, Note_on_c, 9, 36, 0
8, 56885, Note_on_c, 9, 42, 56
8, 57005, Note_on_c, 9, 42, 0
8, 57120, Note_on_c, 9, 49, 0
8, 57120, Note_on_c, 9, 42, 105
8, 57120, Note_on_c, 9, 38, 105
8, 57240, Note_on_c, 9, 38, 0
8, 57240, Note_on_c, 9, 42, 0
8, 57355, Note_on_c, 9, 42, 48
8, 57475, Note_on_c, 9, 42, 0
8, 57600, Note_on_c, 9, 42, 107
8, 57600, Note_on_c, 9, 36, 107
8, 57720, Note_on_c, 9, 36, 0
8, 57720, Note_on_c, 9, 42, 0
8, 57840, Note_on_c, 9, 42, 59
8, 57960, Note_on_c, 9, 42, 0
8, 58080, Note_on_c, 9, 42, 93
8, 58080, Note_on_c, 9, 38, 93
8, 58200, Note_on_c, 9, 38, 0
8, 58200, Note_on_c, 9, 42, 0
8, 58322, Note_on_c, 9, 36, 49
8, 58322, Note_on_c, 9, 42, 49
8, 58442, Note_on_c, 9, 42, 0
8, 58442, Note_on_c, 9, 36, 0
8, 58557, Note_on_c, 9, 36, 93
8, 58557, Note_on_c, 9, 42, 93
8, 58677, Note_on_c, 9, 42, 0
8, 58677, Note_on_c, 9, 36, 0
8, 58794, Note_on_c, 9, 42, 51
8, 58914, Note_on_c, 9, 42, 0
8, 59042, Note_on_c, 9, 38, 86
8, 59042, Note_on_c, 9, 42, 86
8, 59162, Note_on_c, 9, 42, 0
8, 59162, Note_on_c, 9, 38, 0
8, 59285, Note_on_c, 9, 42, 52
8, 59405, Note_on_c, 9, 42, 0
8, 59527, Note_on_c, 9, 42, 104
8, 59527, Note_on_c, 9, 36, 104
8, 59647, Note_on_c, 9, 36, 0
8, 59647, Note_on_c, 9, 42, 0
8, 59765, Note_on_c, 9, 42, 45
8, 59885, Note_on_c, 9, 42, 0
8, 59998, Note_on_c, 9, 38, 95
8, 59998, Note_on_c, 9, 42, 95
8, 60118, Note_on_c, 9, 42, 0
8, 60118, Note_on_c, 9, 38, 0
8, 60242, Note_on_c, 9, 36, 57
8, 60242, Note_on_c, 9, 42, 57
8, 60362, Note_on_c, 9, 42, 0
8, 60362, Note_on_c, 9, 36, 0
8, 60480, Note_on_c, 9, 36, 84
8, 60480, Note_on_c, 9, 42, 84
8, 60600, Note_on_c, 9, 42, 0
8, 60600, Note_on_c, 9, 36, 0
8, 60725, Note_on_c, 9, 42, 56
8, 60845, Note_on_c, 9, 42, 0
8, 60960, Note_on_c, 9, 38, 105
8, 60960, Note_on_c, 9, 42, 105
8, 61080, Note_on_c, 9, 42, 0
8, 61080, Note_on_c, 9, 38, 0
8, 61195, Note_on_c, 9, 42, 48
8, 61315, Note_on_c, 9, 42, 0
8, 61440, Note_on_c, 9, 36, 107
8, 61440, Note_on_c, 9, 42, 107
8, 61560, Note_on_c, 9, 42, 0
8, 61560, Note_on_c, 9, 36, 0
8, 61680, Note_on_c, 9, 42, 59
8, 61800, Note_on_c, 9, 42, 0
8, 61920, Note_on_c, 9, 38, 93
8, 61920, Note_on_c, 9, 42, 93
8, 62040, Note_on_c, 9, 42, 0
8, 62040, Note_on_c, 9, 38, 0
8, 62162, Note_on_c, 9, 36, 49
8, 62162, Note_on_c, 9, 42, 49
8, 62282, Note_on_c, 9, 42, 0
8, 62282, Note_on_c, 9, 36, 0
8, 62397, Note_on_c, 9, 36, 93
8, 62397, Note_on_c, 9, 42, 93
8, 62517, Note_on_c, 9, 42, 0
8, 62517, Note_on_c, 9, 36, 0
8, 62634, Note_on_c, 9, 42, 51
8, 62754, Note_on_c, 9, 42, 0
8, 62882, Note_on_c, 9, 42, 86
8, 62882, Note_on_c, 9, 38, 86
8, 63002, Note_on_c, 9, 38, 0
8, 63002, Note_on_c, 9, 42, 0
8, 63125, Note_on_c, 9, 42, 52
8, 63125, Note_on_c, 9, 43, 52
8, 63230, Note_on_c, 9, 43, 57
8, 63245, Note_on_c, 9, 43, 0
8, 63245, Note_on_c, 9, 42, 0
8, 63350, Note_on_c, 9, 43, 0
8, 63367, Note_on_c, 9, 46, 104
8, 63367, Note_on_c, 9, 36, 104
8, 63367, Note_on_c, 9, 49, 104
8, 63487, Note_on_c, 9, 36, 0
8, 63605, Note_on_c, 9, 42, 45
8, 63607, Note_on_c, 9, 46, 0
8, 63725, Note_on_c, 9, 42, 0
8, 63727, Note_on_c, 9, 49, 0
8, 63838, Note_on_c, 9, 36, 95
8, 63838, Note_on_c, 9, 46, 95
8, 63838, Note_on_c, 9, 49, 95
8, 63958, Note_on_c, 9, 36, 0
8, 64078, Note_on_c, 9, 46, 0
8, 64082, Note_on_c, 9, 42, 57
8, 64198, Note_on_c, 9, 49, 0
8, 64202, Note_on_c, 9, 42, 0
8, 64320, Note_on_c, 9, 46, 84
8, 64320, Note_on_c, 9, 36, 84
8, 64320, Note_on_c, 9, 49, 84
8, 64560, Note_on_c, 9, 36, 0
8, 64560, Note_on_c, 9, 46, 0
8, 64565, Note_on_c, 9, 42, 56
8, 64680, Note_on_c, 9, 49, 0
8, 64685, Note_on_c, 9, 42, 0
8, 64800, Note_on_c, 9, 49, 105
8, 64800, Note_on_c, 9, 46, 105
8, 64800, Note_on_c, 9, 38, 105
8, 64920, Note_on_c, 9, 38, 0
8, 65280, Note_on_c, 9, 46, 0
8, 65280, Note_on_c, 9, 49, 0
8, 65280, Note_on_c, 9, 38, 107
8, 65280, Note_on_c, 9, 42, 107
8, 65400, Note_on_c, 9, 38, 0
8, 65402, Note_on_c, 9, 38, 90
8, 65520, Note_on_c, 9, 38, 90
8, 65522, Note_on_c, 9, 38, 0
8, 65635, Note_on_c, 9, 38, 90
8, 65640, Note_on_c, 9, 38, 0
8, 65755, Note_on_c, 9, 38, 0
8, 65760, Note_on_c, 9, 38, 90
8, 65760, Note_on_c, 9, 39, 93
8, 65880, Note_on_c, 9, 39, 0
8, 65880, Note_on_c, 9, 38, 0
8, 65880, Note_on_c, 9, 42, 0
8, 66002, Note_on_c, 9, 38, 90
8, 66122, Note_on_c, 9, 38, 0
8, 66237, Note_on_c, 9, 36, 93
8, 66237, Note_on_c, 9, 46, 93
8, 66237, Note_on_c, 9, 49, 93
8, 66357, Note_on_c, 9, 36, 0
8, 66474, Note_on_c, 9, 42, 51
8, 66477, Note_on_c, 9, 46, 0
8, 66594, Note_on_c, 9, 42, 0
8, 66597, Note_on_c, 9, 49, 0
8, 66722, Note_on_c, 9, 46, 86
8, 66722, Note_on_c, 9, 36, 86
8, 66722, Note_on_c, 9, 49, 86
8, 66842, Note_on_c, 9, 36, 0
8, 66962, Note_on_c, 9, 46, 0
8, 66965, Note_on_c, 9, 42, 52
8, 67082, Note_on_c, 9, 49, 0
8, 67085, Note_on_c, 9, 42, 0
8, 67207, Note_on_c, 9, 46, 104
8, 67207, Note_on_c, 9, 36, 104
8, 67207, Note_on_c, 9, 49, 104
8, 67327, Note_on_c, 9, 36, 0
8, 67567, Note_on_c, 9, 49, 0
8, 67678, Note_on_c, 9, 42, 95
8, 67678, Note_on_c, 9, 36, 95
8, 67678, Note_on_c, 9, 49, 95
8, 67687, Note_on_c, 9, 46, 0
8, 67798, Note_on_c, 9, 42, 0
8, 67798, Note_on_c, 9, 36, 0
8, 68518, Note_on_c, 9, 49, 0
8, 69120, Note_on_c, 9, 36, 107
8, 69240, Note_on_c, 9, 36, 0
8, 70805, Note_on_c, 9, 46, 52
8, 71045, Note_on_c, 9, 46, 0
8, 71047, Note_on_c, 9, 36, 104
8, 71047, Note_on_c, 9, 42, 104
8, 71167, Note_on_c, 9, 42, 0
8, 71167, Note_on_c, 9, 36, 0
8, 71285, Note_on_c, 9, 36, 45
8, 71285, Note_on_c, 9, 42, 45
8, 71405, Note_on_c, 9, 42, 0
8, 71405, Note_on_c, 9, 36, 0
8, 71518, Note_on_c, 9, 42, 95
8, 71518, Note_on_c, 9, 38, 95
8, 71638, Note_on_c, 9, 38, 0
8, 71638, Note_on_c, 9, 42, 0
8, 71762, Note_on_c, 9, 42, 57
8, 71882, Note_on_c, 9, 42, 0
8, 72000, Note_on_c, 9, 42, 84
8, 72000, Note_on_c, 9, 36, 84
8, 72120, Note_on_c, 9, 36, 0
8, 72120, Note_on_c, 9, 42, 0
8, 72245, Note_on_c, 9, 36, 56
8, 72245, Note_on_c, 9, 42, 56
8, 72365, Note_on_c, 9, 42, 0
8, 72365, Note_on_c, 9, 36, 0
8, 72480, Note_on_c, 9, 42, 105
8, 72480, Note_on_c, 9, 38, 105
8, 72600, Note_on_c, 9, 38, 0
8, 72600, Note_on_c, 9, 42, 0
8, 72715, Note_on_c, 9, 46, 48
8, 72715, Note_on_c, 9, 36, 48
8, 72835, Note_on_c, 9, 36, 0
8, 72955, Note_on_c, 9, 46, 0
8, 72960, Note_on_c, 9, 42, 107
8, 72960, Note_on_c, 9, 36, 107
8, 73080, Note_on_c, 9, 36, 0
8, 73080, Note_on_c, 9, 42, 0
8, 73200, Note_on_c, 9, 42, 59
8, 73320, Note_on_c, 9, 42, 0
8, 73440, Note_on_c, 9, 38, 93
8, 73440, Note_on_c, 9, 42, 93
8, 73560, Note_on_c, 9, 42, 0
8, 73560, Note_on_c, 9, 38, 0
8, 73682, Note_on_c, 9, 42, 49
8, 73802, Note_on_c, 9, 42, 0
8, 73917, Note_on_c, 9, 42, 93
8, 73917, Note_on_c, 9, 36, 93
8, 74037, Note_on_c, 9, 36, 0
8, 74037, Note_on_c, 9, 42, 0
8, 74154, Note_on_c, 9, 36, 51
8, 74154, Note_on_c, 9, 42, 51
8, 74274, Note_on_c, 9, 42, 0
8, 74274, Note_on_c, 9, 36, 0
8, 74402, Note_on_c, 9, 38, 86
8, 74402, Note_on_c, 9, 42, 86
8, 74522, Note_on_c, 9, 42, 0
8, 74522, Note_on_c, 9, 38, 0
8, 74645, Note_on_c, 9, 36, 52
8, 74645, Note_on_c, 9, 46, 52
8, 74765, Note_on_c, 9, 36, 0
8, 74885, Note_on_c, 9, 46, 0
8, 74887, Note_on_c, 9, 42, 104
8, 74887, Note_on_c, 9, 36, 104
8, 75007, Note_on_c, 9, 36, 0
8, 75007, Note_on_c, 9, 42, 0
8, 75125, Note_on_c, 9, 42, 45
8, 75245, Note_on_c, 9, 42, 0
8, 75358, Note_on_c, 9, 38, 95
8, 75358, Note_on_c, 9, 42, 95
8, 75478, Note_on_c, 9, 42, 0
8, 75478, Note_on_c, 9, 38, 0
8, 75602, Note_on_c, 9, 42, 57
8, 75722, Note_on_c, 9, 42, 0
8, 75840, Note_on_c, 9, 36, 84
8, 75840, Note_on_c, 9, 42, 84
8, 75960, Note_on_c, 9, 42, 0
8, 75960, Note_on_c, 9, 36, 0
8, 76085, Note_on_c, 9, 36, 56
8, 76085, Note_on_c, 9, 42, 56
8, 76205, Note_on_c, 9, 42, 0
8, 76205, Note_on_c, 9, 36, 0
8, 76320, Note_on_c, 9, 42, 105
8, 76320, Note_on_c, 9, 38, 105
8, 76440, Note_on_c, 9, 38, 0
8, 76440, Note_on_c, 9, 42, 0
8, 76555, Note_on_c, 9, 46, 48
8, 76555, Note_on_c, 9, 36, 48
8, 76675, Note_on_c, 9, 36, 0
8, 76795, Note_on_c, 9, 46, 0
8, 76800, Note_on_c, 9, 42, 107
8, 76800, Note_on_c, 9, 36, 107
8, 76920, Note_on_c, 9, 36, 0
8, 76920, Note_on_c, 9, 42, 0
8, 77040, Note_on_c, 9, 42, 59
8, 77160, Note_on_c, 9, 42, 0
8, 77280, Note_on_c, 9, 38, 93
8, 77280, Note_on_c, 9, 42, 93
8, 77400, Note_on_c, 9, 42, 0
8, 77400, Note_on_c, 9, 38, 0
8, 77522, Note_on_c, 9, 42, 49
8, 77642, Note_on_c, 9, 42, 0
8, 77757, Note_on_c, 9, 36, 93
8, 77757, Note_on_c, 9, 42, 93
8, 77877, Note_on_c, 9, 42, 0
8, 77877, Note_on_c, 9, 36, 0
8, 77994, Note_on_c, 9, 36, 51
8, 77994, Note_on_c, 9, 42, 51
8, 78114, Note_on_c, 9, 42, 0
8, 78114, Note_on_c, 9, 36, 0
8, 78242, Note_on_c, 9, 38, 86
8, 78242, Note_on_c, 9, 42, 86
8, 78362, Note_on_c, 9, 42, 0
8, 78362, Note_on_c, 9, 38, 0
8, 78485, Note_on_c, 9, 36, 52
8, 78485, Note_on_c, 9, 42, 52
8, 78605, Note_on_c, 9, 42, 0
8, 78605, Note_on_c, 9, 36, 0
8, 78727, Note_on_c, 9, 46, 104
8, 78727, Note_on_c, 9, 36, 104
8, 78847, Note_on_c, 9, 36, 0
8, 79687, Note_on_c, 9, 46, 0
8, 107760, Note_on_c, 9, 36, 59
8, 107760, Note_on_c, 9, 38, 60
8, 107880, Note_on_c, 9, 38, 0
8, 107880, Note_on_c, 9, 36, 0
8, 108000, Note_on_c, 9, 38, 70
8, 108000, Note_on_c, 9, 36, 93
8, 108120, Note_on_c, 9, 36, 0
8, 108120, Note_on_c, 9, 38, 0
8, 108242, Note_on_c, 9, 38, 80
8, 108242, Note_on_c, 9, 36, 49
8, 108362, Note_on_c, 9, 36, 0
8, 108362, Note_on_c, 9, 38, 0
8, 108477, Note_on_c, 9, 38, 93
8, 108477, Note_on_c, 9, 36, 93
8, 108597, Note_on_c, 9, 36, 0
8, 108597, Note_on_c, 9, 38, 0
8, 108714, Note_on_c, 9, 38, 93
8, 108714, Note_on_c, 9, 36, 51
8, 108834, Note_on_c, 9, 36, 0
8, 108834, Note_on_c, 9, 38, 0
8, 108962, Note_on_c, 9, 38, 93
8, 108962, Note_on_c, 9, 36, 86
8, 109082, Note_on_c, 9, 36, 0
8, 109082, Note_on_c, 9, 38, 0
8, 109205, Note_on_c, 9, 46, 52
8, 109205, Note_on_c, 9, 38, 93
8, 109310, Note_on_c, 9, 38, 93
8, 109325, Note_on_c, 9, 38, 0
8, 109430, Note_on_c, 9, 38, 0
8, 109445, Note_on_c, 9, 46, 0
8, 109447, Note_on_c, 9, 42, 104
8, 109447, Note_on_c, 9, 36, 104
8, 109567, Note_on_c, 9, 42, 0
8, 109685, Note_on_c, 9, 42, 45
8, 109687, Note_on_c, 9, 36, 0
8, 109805, Note_on_c, 9, 42, 0
8, 109918, Note_on_c, 9, 42, 95
8, 109918, Note_on_c, 9, 38, 95
8, 110038, Note_on_c, 9, 38, 0
8, 110038, Note_on_c, 9, 42, 0
8, 110162, Note_on_c, 9, 36, 57
8, 110162, Note_on_c, 9, 42, 57
8, 110282, Note_on_c, 9, 42, 0
8, 110282, Note_on_c, 9, 36, 0
8, 110400, Note_on_c, 9, 36, 84
8, 110400, Note_on_c, 9, 42, 84
8, 110520, Note_on_c, 9, 42, 0
8, 110520, Note_on_c, 9, 36, 0
8, 110645, Note_on_c, 9, 42, 56
8, 110765, Note_on_c, 9, 42, 0
8, 110880, Note_on_c, 9, 38, 105
8, 110880, Note_on_c, 9, 42, 105
8, 111000, Note_on_c, 9, 42, 0
8, 111000, Note_on_c, 9, 38, 0
8, 111115, Note_on_c, 9, 42, 48
8, 111235, Note_on_c, 9, 42, 0
8, 111360, Note_on_c, 9, 42, 107
8, 111360, Note_on_c, 9, 36, 107
8, 111480, Note_on_c, 9, 36, 0
8, 111480, Note_on_c, 9, 42, 0
8, 111600, Note_on_c, 9, 42, 59
8, 111720, Note_on_c, 9, 42, 0
8, 111840, Note_on_c, 9, 38, 93
8, 111840, Note_on_c, 9, 42, 93
8, 111960, Note_on_c, 9, 42, 0
8, 111960, Note_on_c, 9, 38, 0
8, 112082, Note_on_c, 9, 36, 49
8, 112082, Note_on_c, 9, 42, 49
8, 112202, Note_on_c, 9, 42, 0
8, 112202, Note_on_c, 9, 36, 0
8, 112317, Note_on_c, 9, 36, 93
8, 112317, Note_on_c, 9, 42, 93
8, 112437, Note_on_c, 9, 42, 0
8, 112437, Note_on_c, 9, 36, 0
8, 112554, Note_on_c, 9, 42, 51
8, 112674, Note_on_c, 9, 42, 0
8, 112802, Note_on_c, 9, 42, 86
8, 112802, Note_on_c, 9, 38, 86
8, 112922, Note_on_c, 9, 38, 0
8, 112922, Note_on_c, 9, 42, 0
8, 113045, Note_on_c, 9, 36, 52
8, 113045, Note_on_c, 9, 42, 52
8, 113165, Note_on_c, 9, 42, 0
8, 113165, Note_on_c, 9, 36, 0
8, 113287, Note_on_c, 9, 36, 104
8, 113287, Note_on_c, 9, 42, 104
8, 113407, Note_on_c, 9, 42, 0
8, 113407, Note_on_c, 9, 36, 0
8, 113525, Note_on_c, 9, 42, 45
8, 113645, Note_on_c, 9, 42, 0
8, 113758, Note_on_c, 9, 38, 95
8, 113758, Note_on_c, 9, 42, 95
8, 113878, Note_on_c, 9, 42, 0
8, 113878, Note_on_c, 9, 38, 0
8, 114002, Note_on_c, 9, 36, 57
8, 114002, Note_on_c, 9, 42, 57
8, 114122, Note_on_c, 9, 42, 0
8, 114122, Note_on_c, 9, 36, 0
8, 114240, Note_on_c, 9, 36, 84
8, 114240, Note_on_c, 9, 42, 84
8, 114360, Note_on_c, 9, 42, 0
8, 114360, Note_on_c, 9, 36, 0
8, 114485, Note_on_c, 9, 42, 56
8, 114605, Note_on_c, 9, 42, 0
8, 114720, Note_on_c, 9, 42, 105
8, 114720, Note_on_c, 9, 38, 105
8, 114840, Note_on_c, 9, 38, 0
8, 114840, Note_on_c, 9, 42, 0
8, 114955, Note_on_c, 9, 42, 48
8, 114955, Note_on_c, 9, 36, 48
8, 115075, Note_on_c, 9, 36, 0
8, 115075, Note_on_c, 9, 42, 0
8, 115200, Note_on_c, 9, 42, 107
8, 115200, Note_on_c, 9, 36, 107
8, 115320, Note_on_c, 9, 36, 0
8, 115320, Note_on_c, 9, 42, 0
8, 115440, Note_on_c, 9, 42, 59
8, 115560, Note_on_c, 9, 42, 0
8, 115680, Note_on_c, 9, 38, 93
8, 115680, Note_on_c, 9, 42, 93
8, 115800, Note_on_c, 9, 42, 0
8, 115800, Note_on_c, 9, 38, 0
8, 115922, Note_on_c, 9, 36, 49
8, 115922, Note_on_c, 9, 42, 49
8, 116042, Note_on_c, 9, 42, 0
8, 116042, Note_on_c, 9, 36, 0
8, 116157, Note_on_c, 9, 36, 93
8, 116157, Note_on_c, 9, 42, 93
8, 116277, Note_on_c, 9, 42, 0
8, 116277, Note_on_c, 9, 36, 0
8, 116394, Note_on_c, 9, 42, 51
8, 116514, Note_on_c, 9, 42, 0
8, 116642, Note_on_c, 9, 38, 86
8, 116642, Note_on_c, 9, 42, 86
8, 116762, Note_on_c, 9, 42, 0
8, 116762, Note_on_c, 9, 38, 0
8, 116885, Note_on_c, 9, 36, 52
8, 116885, Note_on_c, 9, 42, 52
8, 117005, Note_on_c, 9, 42, 0
8, 117005, Note_on_c, 9, 36, 0
8, 117127, Note_on_c, 9, 36, 104
8, 117127, Note_on_c, 9, 42, 104
8, 117247, Note_on_c, 9, 42, 0
8, 117247, Note_on_c, 9, 36, 0
8, 117365, Note_on_c, 9, 42, 45
8, 117365, Note_on_c, 9, 38, 45
8, 117485, Note_on_c, 9, 38, 0
8, 117485, Note_on_c, 9, 42, 0
8, 117598, Note_on_c, 9, 38, 95
8, 117598, Note_on_c, 9, 42, 95
8, 117718, Note_on_c, 9, 42, 0
8, 117718, Note_on_c, 9, 38, 0
8, 117842, Note_on_c, 9, 46, 57
8, 117842, Note_on_c, 9, 36, 57
8, 117962, Note_on_c, 9, 36, 0
8, 118080, Note_on_c, 9, 36, 84
8, 118080, Note_on_c, 9, 42, 84
8, 118082, Note_on_c, 9, 46, 0
8, 118200, Note_on_c, 9, 42, 0
8, 118200, Note_on_c, 9, 36, 0
8, 118325, Note_on_c, 9, 42, 56
8, 118445, Note_on_c, 9, 42, 0
8, 118560, Note_on_c, 9, 38, 105
8, 118560, Note_on_c, 9, 42, 105
8, 118680, Note_on_c, 9, 42, 0
8, 118680, Note_on_c, 9, 38, 0
8, 118795, Note_on_c, 9, 36, 48
8, 118795, Note_on_c, 9, 42, 48
8, 118915, Note_on_c, 9, 42, 0
8, 118915, Note_on_c, 9, 36, 0
8, 119040, Note_on_c, 9, 36, 107
8, 119040, Note_on_c, 9, 42, 107
8, 119160, Note_on_c, 9, 42, 0
8, 119160, Note_on_c, 9, 36, 0
8, 119280, Note_on_c, 9, 42, 59
8, 119400, Note_on_c, 9, 42, 0
8, 119520, Note_on_c, 9, 42, 93
8, 119520, Note_on_c, 9, 38, 93
8, 119640, Note_on_c, 9, 38, 0
8, 119640, Note_on_c, 9, 42, 0
8, 119762, Note_on_c, 9, 36, 49
8, 119762, Note_on_c, 9, 42, 49
8, 119882, Note_on_c, 9, 42, 0
8, 119882, Note_on_c, 9, 36, 0
8, 119997, Note_on_c, 9, 36, 93
8, 119997, Note_on_c, 9, 42, 93
8, 120117, Note_on_c, 9, 42, 0
8, 120117, Note_on_c, 9, 36, 0
8, 120234, Note_on_c, 9, 42, 51
8, 120354, Note_on_c, 9, 42, 0
8, 120482, Note_on_c, 9, 38, 86
8, 120482, Note_on_c, 9, 42, 86
8, 120602, Note_on_c, 9, 42, 0
8, 120602, Note_on_c, 9, 38, 0
8, 120725, Note_on_c, 9, 36, 52
8, 120725, Note_on_c, 9, 42, 52
8, 120845, Note_on_c, 9, 42, 0
8, 120845, Note_on_c, 9, 36, 0
8, 120967, Note_on_c, 9, 36, 104
8, 120967, Note_on_c, 9, 42, 104
8, 121087, Note_on_c, 9, 42, 0
8, 121087, Note_on_c, 9, 36, 0
8, 121205, Note_on_c, 9, 42, 45
8, 121325, Note_on_c, 9, 42, 0
8, 121438, Note_on_c, 9, 38, 95
8, 121438, Note_on_c, 9, 42, 95
8, 121558, Note_on_c, 9, 42, 0
8, 121558, Note_on_c, 9, 38, 0
8, 121682, Note_on_c, 9, 36, 57
8, 121682, Note_on_c, 9, 42, 57
8, 121802, Note_on_c, 9, 42, 0
8, 121802, Note_on_c, 9, 36, 0
8, 121920, Note_on_c, 9, 36, 84
8, 121920, Note_on_c, 9, 42, 84
8, 122040, Note_on_c, 9, 42, 0
8, 122040, Note_on_c, 9, 36, 0
8, 122165, Note_on_c, 9, 42, 56
8, 122285, Note_on_c, 9, 42, 0
8, 122400, Note_on_c, 9, 42, 105
8, 122400, Note_on_c, 9, 38, 105
8, 122520, Note_on_c, 9, 38, 0
8, 122520, Note_on_c, 9, 42, 0
8, 122635, Note_on_c, 9, 42, 48
8, 122635, Note_on_c, 9, 36, 48
8, 122755, Note_on_c, 9, 36, 0
8, 122755, Note_on_c, 9, 42, 0
8, 122880, Note_on_c, 9, 36, 107
8, 122880, Note_on_c, 9, 42, 107
8, 123000, Note_on_c, 9, 42, 0
8, 123000, Note_on_c, 9, 36, 0
8, 123120, Note_on_c, 9, 42, 59
8, 123240, Note_on_c, 9, 42, 0
8, 123360, Note_on_c, 9, 38, 93
8, 123360, Note_on_c, 9, 42, 93
8, 123480, Note_on_c, 9, 42, 0
8, 123480, Note_on_c, 9, 38, 0
8, 123602, Note_on_c, 9, 36, 49
8, 123602, Note_on_c, 9, 42, 49
8, 123722, Note_on_c, 9, 42, 0
8, 123722, Note_on_c, 9, 36, 0
8, 123837, Note_on_c, 9, 42, 93
8, 123837, Note_on_c, 9, 36, 93
8, 123957, Note_on_c, 9, 36, 0
8, 123957, Note_on_c, 9, 42, 0
8, 124074, Note_on_c, 9, 42, 51
8, 124194, Note_on_c, 9, 42, 0
8, 124322, Note_on_c, 9, 42, 86
8, 124322, Note_on_c, 9, 38, 86
8, 124442, Note_on_c, 9, 38, 0
8, 124442, Note_on_c, 9, 42, 0
8, 124565, Note_on_c, 9, 42, 52
8, 124565, Note_on_c, 9, 36, 52
8, 124685, Note_on_c, 9, 36, 0
8, 124685, Note_on_c, 9, 42, 0
8, 124807, Note_on_c, 9, 46, 104
8, 124807, Note_on_c, 9, 36, 104
8, 124807, Note_on_c, 9, 49, 104
8, 124927, Note_on_c, 9, 36, 0
8, 125045, Note_on_c, 9, 42, 45
8, 125047, Note_on_c, 9, 46, 0
8, 125165, Note_on_c, 9, 42, 0
8, 125167, Note_on_c, 9, 49, 0
8, 125278, Note_on_c, 9, 49, 95
8, 125278, Note_on_c, 9, 46, 95
8, 125278, Note_on_c, 9, 38, 95
8, 125518, Note_on_c, 9, 38, 0
8, 125518, Note_on_c, 9, 46, 0
8, 125522, Note_on_c, 9, 42, 57
8, 125638, Note_on_c, 9, 49, 0
8, 125642, Note_on_c, 9, 42, 0
8, 125760, Note_on_c, 9, 36, 84
8, 125760, Note_on_c, 9, 46, 84
8, 125760, Note_on_c, 9, 49, 84
8, 125880, Note_on_c, 9, 36, 0
8, 126000, Note_on_c, 9, 46, 0
8, 126005, Note_on_c, 9, 42, 56
8, 126120, Note_on_c, 9, 49, 0
8, 126125, Note_on_c, 9, 42, 0
8, 126240, Note_on_c, 9, 46, 105
8, 126240, Note_on_c, 9, 38, 105
8, 126240, Note_on_c, 9, 49, 105
8, 126480, Note_on_c, 9, 38, 0
8, 126720, Note_on_c, 9, 38, 107
8, 126720, Note_on_c, 9, 42, 107
8, 126840, Note_on_c, 9, 42, 0
8, 126840, Note_on_c, 9, 46, 0
8, 126840, Note_on_c, 9, 49, 0
8, 126840, Note_on_c, 9, 38, 0
8, 126842, Note_on_c, 9, 38, 90
8, 126960, Note_on_c, 9, 38, 90
8, 126962, Note_on_c, 9, 38, 0
8, 127075, Note_on_c, 9, 38, 90
8, 127080, Note_on_c, 9, 38, 0
8, 127195, Note_on_c, 9, 38, 0
8, 127200, Note_on_c, 9, 38, 90
8, 127200, Note_on_c, 9, 42, 93
8, 127320, Note_on_c, 9, 42, 0
8, 127320, Note_on_c, 9, 38, 0
8, 127442, Note_on_c, 9, 38, 90
8, 127562, Note_on_c, 9, 38, 0
8, 127677, Note_on_c, 9, 36, 93
8, 127677, Note_on_c, 9, 42, 93
8, 127677, Note_on_c, 9, 49, 93
8, 127797, Note_on_c, 9, 42, 0
8, 127797, Note_on_c, 9, 36, 0
8, 127917, Note_on_c, 9, 49, 0
8, 128162, Note_on_c, 9, 46, 86
8, 128162, Note_on_c, 9, 38, 86
8, 128162, Note_on_c, 9, 36, 86
8, 128162, Note_on_c, 9, 49, 86
8, 128282, Note_on_c, 9, 36, 0
8, 128282, Note_on_c, 9, 46, 0
8, 128282, Note_on_c, 9, 38, 0
8, 128522, Note_on_c, 9, 49, 0
8, 128647, Note_on_c, 9, 36, 104
8, 128647, Note_on_c, 9, 49, 104
8, 128647, Note_on_c, 9, 42, 104
8, 128767, Note_on_c, 9, 42, 0
8, 128767, Note_on_c, 9, 36, 0
8, 128887, Note_on_c, 9, 49, 0
8, 129118, Note_on_c, 9, 46, 95
8, 129118, Note_on_c, 9, 36, 95
8, 129118, Note_on_c, 9, 49, 95
8, 129358, Note_on_c, 9, 36, 0
8, 129598, Note_on_c, 9, 46, 0
8, 129600, Note_on_c, 9, 42, 64
8, 129832, Note_on_c, 9, 42, 0
8, 130078, Note_on_c, 9, 49, 0
8, 130083, Note_on_c, 9, 42, 64
8, 130270, Note_on_c, 9, 42, 0
8, 130337, Note_on_c, 9, 46, 64
8, 130560, Note_on_c, 9, 36, 107
8, 130560, Note_on_c, 9, 42, 107
8, 130595, Note_on_c, 9, 46, 0
8, 130680, Note_on_c, 9, 42, 0
8, 130680, Note_on_c, 9, 36, 0
8, 130800, Note_on_c, 9, 42, 59
8, 130920, Note_on_c, 9, 42, 0
8, 131040, Note_on_c, 9, 42, 93
8, 131040, Note_on_c, 9, 38, 93
8, 131160, Note_on_c, 9, 38, 0
8, 131160, Note_on_c, 9, 42, 0
8, 131282, Note_on_c, 9, 42, 49
8, 131282, Note_on_c, 9, 36, 49
8, 131402, Note_on_c, 9, 42, 0
8, 131517, Note_on_c, 9, 42, 93
8, 131522, Note_on_c, 9, 36, 0
8, 131637, Note_on_c, 9, 42, 0
8, 131754, Note_on_c, 9, 36, 51
8, 131754, Note_on_c, 9, 42, 51
8, 131874, Note_on_c, 9, 42, 0
8, 131874, Note_on_c, 9, 36, 0
8, 132002, Note_on_c, 9, 38, 86
8, 132002, Note_on_c, 9, 42, 86
8, 132122, Note_on_c, 9, 42, 0
8, 132122, Note_on_c, 9, 38, 0
8, 132245, Note_on_c, 9, 46, 52
8, 132245, Note_on_c, 9, 36, 52
8, 132365, Note_on_c, 9, 36, 0
8, 132485, Note_on_c, 9, 46, 0
8, 132487, Note_on_c, 9, 36, 104
8, 132487, Note_on_c, 9, 42, 104
8, 132607, Note_on_c, 9, 42, 0
8, 132607, Note_on_c, 9, 36, 0
8, 132725, Note_on_c, 9, 42, 45
8, 132845, Note_on_c, 9, 42, 0
8, 132958, Note_on_c, 9, 38, 95
8, 132958, Note_on_c, 9, 42, 95
8, 133078, Note_on_c, 9, 42, 0
8, 133078, Note_on_c, 9, 38, 0
8, 133202, Note_on_c, 9, 36, 57
8, 133202, Note_on_c, 9, 42, 57
8, 133322, Note_on_c, 9, 42, 0
8, 133322, Note_on_c, 9, 36, 0
8, 133440, Note_on_c, 9, 42, 84
8, 133560, Note_on_c, 9, 42, 0
8, 133685, Note_on_c, 9, 42, 56
8, 133685, Note_on_c, 9, 36, 56
8, 133805, Note_on_c, 9, 36, 0
8, 133805, Note_on_c, 9, 42, 0
8, 133920, Note_on_c, 9, 38, 105
8, 133920, Note_on_c, 9, 42, 105
8, 134040, Note_on_c, 9, 42, 0
8, 134040, Note_on_c, 9, 38, 0
8, 134155, Note_on_c, 9, 46, 48
8, 134155, Note_on_c, 9, 36, 48
8, 134275, Note_on_c, 9, 36, 0
8, 134395, Note_on_c, 9, 46, 0
8, 134400, Note_on_c, 9, 36, 107
8, 134400, Note_on_c, 9, 42, 107
8, 134520, Note_on_c, 9, 42, 0
8, 134520, Note_on_c, 9, 36, 0
8, 134640, Note_on_c, 9, 42, 59
8, 134760, Note_on_c, 9, 42, 0
8, 134880, Note_on_c, 9, 38, 93
8, 134880, Note_on_c, 9, 42, 93
8, 135000, Note_on_c, 9, 42, 0
8, 135000, Note_on_c, 9, 38, 0
8, 135122, Note_on_c, 9, 42, 49
8, 135122, Note_on_c, 9, 36, 49
8, 135242, Note_on_c, 9, 36, 0
8, 135242, Note_on_c, 9, 42, 0
8, 135357, Note_on_c, 9, 42, 93
8, 135357, Note_on_c, 9, 36, 93
8, 135477, Note_on_c, 9, 36, 0
8, 135477, Note_on_c, 9, 42, 0
8, 135594, Note_on_c, 9, 42, 51
8, 135714, Note_on_c, 9, 42, 0
8, 135842, Note_on_c, 9, 38, 86
8, 135842, Note_on_c, 9, 42, 86
8, 135962, Note_on_c, 9, 42, 0
8, 135962, Note_on_c, 9, 38, 0
8, 136085, Note_on_c, 9, 46, 52
8, 136085, Note_on_c, 9, 36, 52
8, 136205, Note_on_c, 9, 36, 0
8, 136325, Note_on_c, 9, 46, 0
8, 136327, Note_on_c, 9, 42, 104
8, 136327, Note_on_c, 9, 36, 104
8, 136447, Note_on_c, 9, 36, 0
8, 136447, Note_on_c, 9, 42, 0
8, 136565, Note_on_c, 9, 42, 45
8, 136685, Note_on_c, 9, 42, 0
8, 136798, Note_on_c, 9, 38, 95
8, 136798, Note_on_c, 9, 42, 95
8, 136918, Note_on_c, 9, 42, 0
8, 136918, Note_on_c, 9, 38, 0
8, 137042, Note_on_c, 9, 36, 57
8, 137042, Note_on_c, 9, 42, 57
8, 137162, Note_on_c, 9, 42, 0
8, 137162, Note_on_c, 9, 36, 0
8, 137280, Note_on_c, 9, 42, 84
8, 137400, Note_on_c, 9, 42, 0
8, 137525, Note_on_c, 9, 42, 56
8, 137525, Note_on_c, 9, 36, 56
8, 137645, Note_on_c, 9, 36, 0
8, 137645, Note_on_c, 9, 42, 0
8, 137760, Note_on_c, 9, 42, 105
8, 137760, Note_on_c, 9, 38, 105
8, 137880, Note_on_c, 9, 38, 0
8, 137880, Note_on_c, 9, 42, 0
8, 137995, Note_on_c, 9, 46, 48
8, 137995, Note_on_c, 9, 36, 48
8, 138115, Note_on_c, 9, 36, 0
8, 138115, Note_on_c, 9, 46, 0
8, 138240, Note_on_c, 9, 42, 107
8, 138240, Note_on_c, 9, 36, 107
8, 138360, Note_on_c, 9, 36, 0
8, 138360, Note_on_c, 9, 42, 0
8, 138480, Note_on_c, 9, 42, 59
8, 138600, Note_on_c, 9, 42, 0
8, 138720, Note_on_c, 9, 42, 93
8, 138720, Note_on_c, 9, 38, 93
8, 138840, Note_on_c, 9, 38, 0
8, 138840, Note_on_c, 9, 42, 0
8, 138962, Note_on_c, 9, 36, 49
8, 138962, Note_on_c, 9, 42, 49
8, 139082, Note_on_c, 9, 42, 0
8, 139082, Note_on_c, 9, 36, 0
8, 139197, Note_on_c, 9, 42, 93
8, 139317, Note_on_c, 9, 42, 0
8, 139434, Note_on_c, 9, 36, 51
8, 139434, Note_on_c, 9, 42, 51
8, 139554, Note_on_c, 9, 42, 0
8, 139554, Note_on_c, 9, 36, 0
8, 139682, Note_on_c, 9, 42, 86
8, 139682, Note_on_c, 9, 38, 86
8, 139802, Note_on_c, 9, 38, 0
8, 139802, Note_on_c, 9, 42, 0
8, 139925, Note_on_c, 9, 46, 52
8, 139925, Note_on_c, 9, 36, 52
8, 140045, Note_on_c, 9, 36, 0
8, 140165, Note_on_c, 9, 46, 0
8, 140167, Note_on_c, 9, 42, 104
8, 140167, Note_on_c, 9, 36, 104
8, 140287, Note_on_c, 9, 36, 0
8, 140287, Note_on_c, 9, 42, 0
8, 140405, Note_on_c, 9, 42, 45
8, 140525, Note_on_c, 9, 42, 0
8, 140638, Note_on_c, 9, 42, 95
8, 140638, Note_on_c, 9, 38, 95
8, 140758, Note_on_c, 9, 38, 0
8, 140758, Note_on_c, 9, 42, 0
8, 140882, Note_on_c, 9, 42, 57
8, 140882, Note_on_c, 9, 36, 57
8, 141002, Note_on_c, 9, 36, 0
8, 141002, Note_on_c, 9, 42, 0
8, 141120, Note_on_c, 9, 42, 84
8, 141240, Note_on_c, 9, 42, 0
8, 141365, Note_on_c, 9, 42, 56
8, 141365, Note_on_c, 9, 36, 56
8, 141485, Note_on_c, 9, 36, 0
8, 141485, Note_on_c, 9, 42, 0
8, 141600, Note_on_c, 9, 42, 105
8, 141600, Note_on_c, 9, 38, 105
8, 141720, Note_on_c, 9, 38, 0
8, 141720, Note_on_c, 9, 42, 0
8, 141835, Note_on_c, 9, 46, 48
8, 141835, Note_on_c, 9, 36, 48
8, 141955, Note_on_c, 9, 36, 0
8, 142075, Note_on_c, 9, 46, 0
8, 142080, Note_on_c, 9, 42, 107
8, 142080, Note_on_c, 9, 36, 107
8, 142200, Note_on_c, 9, 36, 0
8, 142200, Note_on_c, 9, 42, 0
8, 142320, Note_on_c, 9, 42, 59
8, 142440, Note_on_c, 9, 42, 0
8, 142560, Note_on_c, 9, 42, 93
8, 142560, Note_on_c, 9, 38, 93
8, 142680, Note_on_c, 9, 38, 0
8, 142680, Note_on_c, 9, 42, 0
8, 142802, Note_on_c, 9, 42, 49
8, 142922, Note_on_c, 9, 42, 0
8, 143037, Note_on_c, 9, 42, 93
8, 143037, Note_on_c, 9, 36, 93
8, 143157, Note_on_c, 9, 36, 0
8, 143157, Note_on_c, 9, 42, 0
8, 143274, Note_on_c, 9, 42, 51
8, 143394, Note_on_c, 9, 42, 0
8, 143522, Note_on_c, 9, 42, 86
8, 143522, Note_on_c, 9, 38, 86
8, 143642, Note_on_c, 9, 38, 0
8, 143642, Note_on_c, 9, 42, 0
8, 143765, Note_on_c, 9, 42, 52
8, 143885, Note_on_c, 9, 42, 0
8, 144007, Note_on_c, 9, 42, 104
8, 144007, Note_on_c, 9, 36, 104
8, 144127, Note_on_c, 9, 36, 0
8, 144127, Note_on_c, 9, 42, 0
8, 144245, Note_on_c, 9, 46, 45
8, 144245, Note_on_c, 9, 38, 45
8, 144365, Note_on_c, 9, 38, 0
8, 144478, Note_on_c, 9, 42, 95
8, 144478, Note_on_c, 9, 38, 95
8, 144485, Note_on_c, 9, 46, 0
8, 144598, Note_on_c, 9, 38, 0
8, 144598, Note_on_c, 9, 42, 0
8, 144722, Note_on_c, 9, 42, 57
8, 144722, Note_on_c, 9, 36, 57
8, 144842, Note_on_c, 9, 36, 0
8, 144842, Note_on_c, 9, 42, 0
8, 144960, Note_on_c, 9, 46, 84
8, 144960, Note_on_c, 9, 38, 84
8, 145080, Note_on_c, 9, 38, 0
8, 145200, Note_on_c, 9, 46, 0
8, 145205, Note_on_c, 9, 42, 56
8, 145205, Note_on_c, 9, 36, 56
8, 145325, Note_on_c, 9, 36, 0
8, 145440, Note_on_c, 9, 46, 105
8, 145440, Note_on_c, 9, 38, 105
8, 145445, Note_on_c, 9, 42, 0
8, 145550, Note_on_c, 9, 38, 30
8, 145560, Note_on_c, 9, 38, 0
8, 145670, Note_on_c, 9, 38, 0
8, 145675, Note_on_c, 9, 42, 48
8, 145675, Note_on_c, 9, 36, 48
8, 145680, Note_on_c, 9, 46, 0
8, 145795, Note_on_c, 9, 36, 0
8, 145795, Note_on_c, 9, 42, 0
8, 145920, Note_on_c, 9, 36, 107
8, 145920, Note_on_c, 9, 42, 107
8, 145920, Note_on_c, 9, 49, 107
8, 146040, Note_on_c, 9, 42, 0
8, 146040, Note_on_c, 9, 36, 0
8, 146160, Note_on_c, 9, 42, 59
8, 146280, Note_on_c, 9, 42, 0
8, 146400, Note_on_c, 9, 49, 0
8, 146400, Note_on_c, 9, 42, 93
8, 146400, Note_on_c, 9, 38, 93
8, 146520, Note_on_c, 9, 38, 0
8, 146520, Note_on_c, 9, 42, 0
8, 146642, Note_on_c, 9, 36, 49
8, 146642, Note_on_c, 9, 42, 49
8, 146762, Note_on_c, 9, 42, 0
8, 146762, Note_on_c, 9, 36, 0
8, 146877, Note_on_c, 9, 36, 93
8, 146877, Note_on_c, 9, 42, 93
8, 146997, Note_on_c, 9, 42, 0
8, 146997, Note_on_c, 9, 36, 0
8, 147114, Note_on_c, 9, 42, 51
8, 147234, Note_on_c, 9, 42, 0
8, 147362, Note_on_c, 9, 38, 86
8, 147362, Note_on_c, 9, 42, 86
8, 147482, Note_on_c, 9, 42, 0
8, 147602, Note_on_c, 9, 38, 0
8, 147605, Note_on_c, 9, 42, 52
8, 147725, Note_on_c, 9, 42, 0
8, 147847, Note_on_c, 9, 42, 104
8, 147847, Note_on_c, 9, 36, 104
8, 147967, Note_on_c, 9, 36, 0
8, 147967, Note_on_c, 9, 42, 0
8, 148085, Note_on_c, 9, 42, 45
8, 148205, Note_on_c, 9, 42, 0
8, 148318, Note_on_c, 9, 38, 95
8, 148318, Note_on_c, 9, 42, 95
8, 148438, Note_on_c, 9, 42, 0
8, 148438, Note_on_c, 9, 38, 0
8, 148562, Note_on_c, 9, 36, 57
8, 148562, Note_on_c, 9, 42, 57
8, 148682, Note_on_c, 9, 42, 0
8, 148682, Note_on_c, 9, 36, 0
8, 148800, Note_on_c, 9, 42, 84
8, 148800, Note_on_c, 9, 36, 84
8, 148920, Note_on_c, 9, 36, 0
8, 148920, Note_on_c, 9, 42, 0
8, 149045, Note_on_c, 9, 42, 56
8, 149165, Note_on_c, 9, 42, 0
8, 149280, Note_on_c, 9, 42, 105
8, 149280, Note_on_c, 9, 38, 105
8, 149400, Note_on_c, 9, 38, 0
8, 149400, Note_on_c, 9, 42, 0
8, 149515, Note_on_c, 9, 42, 48
8, 149635, Note_on_c, 9, 42, 0
8, 149760, Note_on_c, 9, 36, 107
8, 149760, Note_on_c, 9, 42, 107
8, 149880, Note_on_c, 9, 42, 0
8, 149880, Note_on_c, 9, 36, 0
8, 150000, Note_on_c, 9, 42, 59
8, 150120, Note_on_c, 9, 42, 0
8, 150240, Note_on_c, 9, 42, 93
8, 150240, Note_on_c, 9, 38, 93
8, 150360, Note_on_c, 9, 38, 0
8, 150360, Note_on_c, 9, 42, 0
8, 150482, Note_on_c, 9, 42, 49
8, 150482, Note_on_c, 9, 36, 49
8, 150602, Note_on_c, 9, 36, 0
8, 150602, Note_on_c, 9, 42, 0
8, 150717, Note_on_c, 9, 42, 93
8, 150717, Note_on_c, 9, 36, 93
8, 150837, Note_on_c, 9, 36, 0
8, 150837, Note_on_c, 9, 42, 0
8, 150954, Note_on_c, 9, 42, 51
8, 151074, Note_on_c, 9, 42, 0
8, 151202, Note_on_c, 9, 38, 86
8, 151202, Note_on_c, 9, 42, 86
8, 151322, Note_on_c, 9, 42, 0
8, 151322, Note_on_c, 9, 38, 0
8, 151445, Note_on_c, 9, 36, 52
8, 151445, Note_on_c, 9, 42, 52
8, 151565, Note_on_c, 9, 42, 0
8, 151565, Note_on_c, 9, 36, 0
8, 151687, Note_on_c, 9, 36, 104
8, 151687, Note_on_c, 9, 42, 104
8, 151807, Note_on_c, 9, 42, 0
8, 151807, Note_on_c, 9, 36, 0
8, 151925, Note_on_c, 9, 42, 45
8, 152045, Note_on_c, 9, 42, 0
8, 152158, Note_on_c, 9, 42, 95
8, 152158, Note_on_c, 9, 38, 95
8, 152278, Note_on_c, 9, 38, 0
8, 152278, Note_on_c, 9, 42, 0
8, 152402, Note_on_c, 9, 42, 57
8, 152402, Note_on_c, 9, 36, 57
8, 152522, Note_on_c, 9, 36, 0
8, 152522, Note_on_c, 9, 42, 0
8, 152640, Note_on_c, 9, 42, 84
8, 152640, Note_on_c, 9, 36, 84
8, 152760, Note_on_c, 9, 36, 0
8, 152760, Note_on_c, 9, 42, 0
8, 152885, Note_on_c, 9, 42, 56
8, 153005, Note_on_c, 9, 42, 0
8, 153120, Note_on_c, 9, 38, 105
8, 153120, Note_on_c, 9, 42, 105
8, 153240, Note_on_c, 9, 42, 0
8, 153240, Note_on_c, 9, 38, 0
8, 153355, Note_on_c, 9, 36, 48
8, 153355, Note_on_c, 9, 42, 48
8, 153475, Note_on_c, 9, 42, 0
8, 153475, Note_on_c, 9, 36, 0
8, 153600, Note_on_c, 9, 36, 107
8, 153600, Note_on_c, 9, 42, 107
8, 153720, Note_on_c, 9, 42, 0
8, 153720, Note_on_c, 9, 36, 0
8, 153840, Note_on_c, 9, 42, 59
8, 153960, Note_on_c, 9, 42, 0
8, 154080, Note_on_c, 9, 38, 93
8, 154080, Note_on_c, 9, 42, 93
8, 154200, Note_on_c, 9, 42, 0
8, 154200, Note_on_c, 9, 38, 0
8, 154322, Note_on_c, 9, 42, 49
8, 154322, Note_on_c, 9, 46, 49
8, 154442, Note_on_c, 9, 42, 0
8, 154557, Note_on_c, 9, 36, 93
8, 154557, Note_on_c, 9, 42, 93
8, 154557, Note_on_c, 9, 49, 93
8, 154562, Note_on_c, 9, 46, 0
8, 154677, Note_on_c, 9, 36, 0
8, 154677, Note_on_c, 9, 42, 0
8, 154794, Note_on_c, 9, 42, 51
8, 154914, Note_on_c, 9, 42, 0
8, 155037, Note_on_c, 9, 49, 0
8, 155042, Note_on_c, 9, 42, 86
8, 155042, Note_on_c, 9, 38, 86
8, 155162, Note_on_c, 9, 38, 0
8, 155162, Note_on_c, 9, 42, 0
8, 155285, Note_on_c, 9, 42, 52
8, 155285, Note_on_c, 9, 36, 52
8, 155405, Note_on_c, 9, 36, 0
8, 155405, Note_on_c, 9, 42, 0
8, 155527, Note_on_c, 9, 36, 104
8, 155527, Note_on_c, 9, 42, 104
8, 155647, Note_on_c, 9, 42, 0
8, 155647, Note_on_c, 9, 36, 0
8, 155765, Note_on_c, 9, 42, 45
8, 155885, Note_on_c, 9, 42, 0
8, 155998, Note_on_c, 9, 38, 95
8, 155998, Note_on_c, 9, 42, 95
8, 156118, Note_on_c, 9, 42, 0
8, 156118, Note_on_c, 9, 38, 0
8, 156242, Note_on_c, 9, 42, 57
8, 156362, Note_on_c, 9, 42, 0
8, 156480, Note_on_c, 9, 36, 84
8, 156480, Note_on_c, 9, 42, 84
8, 156600, Note_on_c, 9, 42, 0
8, 156600, Note_on_c, 9, 36, 0
8, 156725, Note_on_c, 9, 42, 56
8, 156845, Note_on_c, 9, 42, 0
8, 156960, Note_on_c, 9, 42, 105
8, 156960, Note_on_c, 9, 38, 105
8, 157080, Note_on_c, 9, 38, 0
8, 157080, Note_on_c, 9, 42, 0
8, 157195, Note_on_c, 9, 42, 48
8, 157195, Note_on_c, 9, 36, 48
8, 157315, Note_on_c, 9, 36, 0
8, 157315, Note_on_c, 9, 42, 0
8, 157440, Note_on_c, 9, 36, 107
8, 157440, Note_on_c, 9, 42, 107
8, 157560, Note_on_c, 9, 42, 0
8, 157560, Note_on_c, 9, 36, 0
8, 157680, Note_on_c, 9, 42, 59
8, 157800, Note_on_c, 9, 42, 0
8, 157920, Note_on_c, 9, 38, 93
8, 157920, Note_on_c, 9, 42, 93
8, 158040, Note_on_c, 9, 42, 0
8, 158040, Note_on_c, 9, 38, 0
8, 158162, Note_on_c, 9, 42, 49
8, 158282, Note_on_c, 9, 42, 0
8, 158397, Note_on_c, 9, 36, 93
8, 158397, Note_on_c, 9, 42, 93
8, 158517, Note_on_c, 9, 42, 0
8, 158517, Note_on_c, 9, 36, 0
8, 158634, Note_on_c, 9, 42, 51
8, 158754, Note_on_c, 9, 42, 0
8, 158882, Note_on_c, 9, 38, 86
8, 158882, Note_on_c, 9, 42, 86
8, 159002, Note_on_c, 9, 42, 0
8, 159002, Note_on_c, 9, 38, 0
8, 159125, Note_on_c, 9, 36, 52
8, 159125, Note_on_c, 9, 42, 52
8, 159245, Note_on_c, 9, 42, 0
8, 159245, Note_on_c, 9, 36, 0
8, 159367, Note_on_c, 9, 36, 104
8, 159367, Note_on_c, 9, 42, 104
8, 159487, Note_on_c, 9, 42, 0
8, 159487, Note_on_c, 9, 36, 0
8, 159605, Note_on_c, 9, 42, 45
8, 159725, Note_on_c, 9, 42, 0
8, 159838, Note_on_c, 9, 42, 95
8, 159838, Note_on_c, 9, 38, 95
8, 159958, Note_on_c, 9, 38, 0
8, 159958, Note_on_c, 9, 42, 0
8, 160082, Note_on_c, 9, 42, 57
8, 160202, Note_on_c, 9, 42, 0
8, 160320, Note_on_c, 9, 42, 84
8, 160320, Note_on_c, 9, 36, 84
8, 160440, Note_on_c, 9, 36, 0
8, 160440, Note_on_c, 9, 42, 0
8, 160565, Note_on_c, 9, 42, 56
8, 160685, Note_on_c, 9, 42, 0
8, 160800, Note_on_c, 9, 42, 105
8, 160800, Note_on_c, 9, 38, 105
8, 160920, Note_on_c, 9, 38, 0
8, 160920, Note_on_c, 9, 42, 0
8, 161035, Note_on_c, 9, 42, 48
8, 161035, Note_on_c, 9, 36, 48
8, 161155, Note_on_c, 9, 36, 0
8, 161155, Note_on_c, 9, 42, 0
8, 161280, Note_on_c, 9, 49, 107
8, 161280, Note_on_c, 9, 36, 107
8, 161280, Note_on_c, 9, 46, 107
8, 161400, Note_on_c, 9, 36, 0
8, 161520, Note_on_c, 9, 46, 0
8, 161520, Note_on_c, 9, 49, 0
8, 161760, Note_on_c, 9, 49, 93
8, 161760, Note_on_c, 9, 46, 93
8, 161760, Note_on_c, 9, 38, 93
8, 161880, Note_on_c, 9, 38, 0
8, 162000, Note_on_c, 9, 46, 0
8, 162000, Note_on_c, 9, 49, 0
8, 162237, Note_on_c, 9, 49, 93
8, 162237, Note_on_c, 9, 46, 93
8, 162237, Note_on_c, 9, 36, 93
8, 162357, Note_on_c, 9, 36, 0
8, 162477, Note_on_c, 9, 46, 0
8, 162477, Note_on_c, 9, 49, 0
8, 162722, Note_on_c, 9, 46, 86
8, 162722, Note_on_c, 9, 38, 86
8, 162722, Note_on_c, 9, 49, 86
8, 162842, Note_on_c, 9, 38, 0
8, 163202, Note_on_c, 9, 49, 0
8, 163207, Note_on_c, 9, 38, 104
8, 163325, Note_on_c, 9, 38, 90
8, 163327, Note_on_c, 9, 38, 0
8, 163445, Note_on_c, 9, 38, 0
8, 163445, Note_on_c, 9, 38, 90
8, 163555, Note_on_c, 9, 38, 90
8, 163562, Note_on_c, 9, 46, 0
8, 163565, Note_on_c, 9, 38, 0
8, 163675, Note_on_c, 9, 38, 0
8, 163678, Note_on_c, 9, 38, 95
8, 163798, Note_on_c, 9, 38, 0
8, 163922, Note_on_c, 9, 38, 90
8, 164042, Note_on_c, 9, 38, 0
8, 164160, Note_on_c, 9, 49, 84
8, 164160, Note_on_c, 9, 46, 84
8, 164160, Note_on_c, 9, 36, 84
8, 164280, Note_on_c, 9, 36, 0
8, 164400, Note_on_c, 9, 49, 0
8, 164520, Note_on_c, 9, 46, 0
8, 164640, Note_on_c, 9, 46, 105
8, 164640, Note_on_c, 9, 38, 105
8, 164640, Note_on_c, 9, 49, 105
8, 164760, Note_on_c, 9, 38, 0
8, 164880, Note_on_c, 9, 49, 0
8, 165000, Note_on_c, 9, 46, 0
8, 165120, Note_on_c, 9, 49, 107
8, 165120, Note_on_c, 9, 36, 107
8, 165120, Note_on_c, 9, 46, 107
8, 165240, Note_on_c, 9, 36, 0
8, 165360, Note_on_c, 9, 46, 0
8, 165360, Note_on_c, 9, 49, 0
8, 165600, Note_on_c, 9, 46, 93
8, 165600, Note_on_c, 9, 36, 93
8, 165600, Note_on_c, 9, 49, 93
8, 165720, Note_on_c, 9, 36, 0
8, 166096, Note_on_c, 9, 45, 64
8, 166110, Note_on_c, 9, 46, 64
8, 166124, Note_on_c, 9, 46, 0
8, 166200, Note_on_c, 9, 49, 0
8, 166292, Note_on_c, 9, 45, 0
8, 166504, Note_on_c, 9, 45, 64
8, 166552, Note_on_c, 9, 45, 0
8, 166622, Note_on_c, 9, 41, 64
8, 166680, Note_on_c, 9, 41, 0
8, 166680, Note_on_c, 9, 46, 0
8, 166737, Note_on_c, 9, 41, 64
8, 166779, Note_on_c, 9, 41, 0
8, 166862, Note_on_c, 9, 41, 64
8, 166918, Note_on_c, 9, 41, 0
8, 167047, Note_on_c, 9, 49, 104
8, 167047, Note_on_c, 9, 46, 104
8, 167047, Note_on_c, 9, 36, 104
8, 167287, Note_on_c, 9, 36, 0
8, 167287, Note_on_c, 9, 49, 0
8, 167407, Note_on_c, 9, 46, 0
8, 167518, Note_on_c, 9, 49, 95
8, 167518, Note_on_c, 9, 46, 95
8, 167518, Note_on_c, 9, 36, 95
8, 167758, Note_on_c, 9, 36, 0
8, 167758, Note_on_c, 9, 49, 0
8, 167878, Note_on_c, 9, 46, 0
8, 168000, Note_on_c, 9, 49, 84
8, 168000, Note_on_c, 9, 46, 84
8, 168000, Note_on_c, 9, 36, 84
8, 168240, Note_on_c, 9, 36, 0
8, 168240, Note_on_c, 9, 49, 0
8, 168360, Note_on_c, 9, 46, 0
8, 168480, Note_on_c, 9, 46, 105
8, 168480, Note_on_c, 9, 36, 105
8, 168480, Note_on_c, 9, 49, 105
8, 168960, Note_on_c, 9, 49, 0
8, 168960, Note_on_c, 9, 36, 0
8, 168960, Note_on_c, 9, 38, 107
8, 169080, Note_on_c, 9, 38, 0
8, 169080, Note_on_c, 9, 46, 0
8, 169082, Note_on_c, 9, 38, 80
8, 169200, Note_on_c, 9, 38, 80
8, 169202, Note_on_c, 9, 38, 0
8, 169315, Note_on_c, 9, 38, 80
8, 169320, Note_on_c, 9, 38, 0
8, 169435, Note_on_c, 9, 38, 0
8, 169440, Note_on_c, 9, 38, 80
8, 169560, Note_on_c, 9, 38, 0
8, 169682, Note_on_c, 9, 38, 80
8, 169802, Note_on_c, 9, 38, 0
8, 169917, Note_on_c, 9, 46, 93
8, 169917, Note_on_c, 9, 36, 93
8, 169917, Note_on_c, 9, 49, 93
8, 170037, Note_on_c, 9, 36, 0
8, 170157, Note_on_c, 9, 49, 0
8, 170277, Note_on_c, 9, 46, 0
8, 170402, Note_on_c, 9, 46, 86
8, 170402, Note_on_c, 9, 36, 86
8, 170402, Note_on_c, 9, 49, 86
8, 170522, Note_on_c, 9, 49, 0
8, 170522, Note_on_c, 9, 36, 0
8, 170762, Note_on_c, 9, 46, 0
8, 170887, Note_on_c, 9, 46, 104
8, 170887, Note_on_c, 9, 36, 104
8, 170887, Note_on_c, 9, 49, 104
8, 170980, Note_on_c, 9, 49, 0
8, 171007, Note_on_c, 9, 36, 0
8, 171142, Note_on_c, 9, 41, 64
8, 171204, Note_on_c, 9, 41, 0
8, 171247, Note_on_c, 9, 46, 0
8, 171254, Note_on_c, 9, 41, 64
8, 171326, Note_on_c, 9, 41, 0
8, 171358, Note_on_c, 9, 49, 95
8, 171358, Note_on_c, 9, 46, 95
8, 171358, Note_on_c, 9, 36, 95
8, 171958, Note_on_c, 9, 46, 0
8, 172340, Note_on_c, 9, 49, 0
8, 172798, Note_on_c, 9, 36, 0
8, 172798, End_track
9, 0, Start_track
9, 0, MIDI_port, 0
9, 0, Title_t, "Strings"
9, 0, Program_c, 6, 48
9, 0, Control_c, 6, 7, 60
9, 0, Control_c, 6, 10, 41
9, 0, Control_c, 6, 91, 75
9, 0, Note_on_c, 6, 55, 64
9, 0, Note_on_c, 6, 59, 64
9, 0, Note_on_c, 6, 64, 64
9, 1860, Note_on_c, 6, 64, 0
9, 1860, Note_on_c, 6, 59, 0
9, 1860, Note_on_c, 6, 55, 0
9, 1920, Note_on_c, 6, 65, 64
9, 1920, Note_on_c, 6, 61, 64
9, 1920, Note_on_c, 6, 56, 64
9, 3780, Note_on_c, 6, 56, 0
9, 3780, Note_on_c, 6, 61, 0
9, 3780, Note_on_c, 6, 65, 0
9, 3840, Note_on_c, 6, 57, 64
9, 3840, Note_on_c, 6, 60, 64
9, 3840, Note_on_c, 6, 65, 64
9, 5700, Note_on_c, 6, 65, 0
9, 5700, Note_on_c, 6, 60, 0
9, 5700, Note_on_c, 6, 57, 0
9, 5760, Note_on_c, 6, 67, 64
9, 5760, Note_on_c, 6, 63, 64
9, 5760, Note_on_c, 6, 58, 64
9, 7620, Note_on_c, 6, 58, 0
9, 7620, Note_on_c, 6, 63, 0
9, 7620, Note_on_c, 6, 67, 0
9, 7680, Note_on_c, 6, 53, 65
9, 7680, Note_on_c, 6, 65, 64
9, 7860, Note_on_c, 6, 53, 0
9, 7920, Note_on_c, 6, 53, 70
9, 8100, Note_on_c, 6, 53, 0
9, 8160, Note_on_c, 6, 53, 75
9, 8340, Note_on_c, 6, 53, 0
9, 8400, Note_on_c, 6, 53, 80
9, 8580, Note_on_c, 6, 53, 0
9, 8640, Note_on_c, 6, 53, 85
9, 8820, Note_on_c, 6, 53, 0
9, 8880, Note_on_c, 6, 53, 90
9, 9060, Note_on_c, 6, 53, 0
9, 9120, Note_on_c, 6, 53, 95
9, 9300, Note_on_c, 6, 53, 0
9, 9360, Note_on_c, 6, 53, 100
9, 9540, Note_on_c, 6, 53, 0
9, 9600, Note_on_c, 6, 50, 64
9, 9604, Note_on_c, 6, 65, 0
9, 9780, Note_on_c, 6, 50, 0
9, 9840, Note_on_c, 6, 50, 64
9, 10020, Note_on_c, 6, 50, 0
9, 10080, Note_on_c, 6, 54, 64
9, 10260, Note_on_c, 6, 54, 0
9, 10320, Note_on_c, 6, 54, 64
9, 10500, Note_on_c, 6, 54, 0
9, 10560, Note_on_c, 6, 57, 64
9, 10740, Note_on_c, 6, 57, 0
9, 10800, Note_on_c, 6, 57, 64
9, 10980, Note_on_c, 6, 57, 0
9, 11040, Note_on_c, 6, 59, 64
9, 11220, Note_on_c, 6, 59, 0
9, 11280, Note_on_c, 6, 57, 64
9, 11460, Note_on_c, 6, 57, 0
9, 11497, Note_on_c, 6, 65, 64
9, 11520, Note_on_c, 6, 53, 65
9, 11700, Note_on_c, 6, 53, 0
9, 11760, Note_on_c, 6, 53, 70
9, 11940, Note_on_c, 6, 53, 0
9, 12000, Note_on_c, 6, 53, 75
9, 12180, Note_on_c, 6, 53, 0
9, 12240, Note_on_c, 6, 53, 80
9, 12420, Note_on_c, 6, 53, 0
9, 12480, Note_on_c, 6, 53, 85
9, 12660, Note_on_c, 6, 53, 0
9, 12720, Note_on_c, 6, 53, 90
9, 12900, Note_on_c, 6, 53, 0
9, 12960, Note_on_c, 6, 53, 95
9, 13140, Note_on_c, 6, 53, 0
9, 13200, Note_on_c, 6, 53, 100
9, 13380, Note_on_c, 6, 53, 0
9, 13432, Note_on_c, 6, 65, 0
9, 13440, Note_on_c, 6, 50, 64
9, 13620, Note_on_c, 6, 50, 0
9, 13680, Note_on_c, 6, 50, 64
9, 13860, Note_on_c, 6, 50, 0
9, 13920, Note_on_c, 6, 54, 64
9, 14100, Note_on_c, 6, 54, 0
9, 14160, Note_on_c, 6, 54, 64
9, 14340, Note_on_c, 6, 54, 0
9, 14400, Note_on_c, 6, 57, 64
9, 14580, Note_on_c, 6, 57, 0
9, 14640, Note_on_c, 6, 57, 64
9, 14820, Note_on_c, 6, 57, 0
9, 14880, Note_on_c, 6, 59, 64
9, 15060, Note_on_c, 6, 59, 0
9, 15120, Note_on_c, 6, 57, 64
9, 15300, Note_on_c, 6, 57, 0
9, 15366, Note_on_c, 6, 65, 64
9, 17267, Note_on_c, 6, 65, 0
9, 17272, Note_on_c, 6, 60, 64
9, 19067, Note_on_c, 6, 60, 0
9, 45660, Control_c, 6, 7, 62
9, 46020, Control_c, 6, 7, 63
9, 46071, Note_on_c, 6, 67, 64
9, 46074, Note_on_c, 6, 59, 64
9, 46080, Control_c, 6, 7, 64
9, 46120, Control_c, 6, 7, 65
9, 46170, Control_c, 6, 7, 66
9, 46208, Control_c, 6, 7, 67
9, 46208, Note_on_c, 6, 69, 64
9, 46234, Note_on_c, 6, 67, 0
9, 46234, Control_c, 6, 7, 68
9, 46260, Control_c, 6, 7, 69
9, 46310, Control_c, 6, 7, 71
9, 46328, Control_c, 6, 7, 72
9, 46328, Note_on_c, 6, 71, 64
9, 46360, Note_on_c, 6, 69, 0
9, 46410, Control_c, 6, 7, 73
9, 46443, Note_on_c, 6, 72, 64
9, 46444, Note_on_c, 6, 71, 0
9, 46530, Control_c, 6, 7, 74
9, 46547, Note_on_c, 6, 69, 64
9, 46585, Note_on_c, 6, 72, 0
9, 46632, Note_on_c, 6, 71, 64
9, 46670, Control_c, 6, 7, 75
9, 46695, Note_on_c, 6, 69, 0
9, 46715, Control_c, 6, 7, 76
9, 46752, Note_on_c, 6, 72, 64
9, 46759, Note_on_c, 6, 71, 0
9, 46770, Control_c, 6, 7, 77
9, 46842, Control_c, 6, 7, 78
9, 46885, Note_on_c, 6, 74, 64
9, 46900, Note_on_c, 6, 72, 0
9, 46920, Control_c, 6, 7, 80
9, 46962, Control_c, 6, 7, 81
9, 47010, Note_on_c, 6, 71, 64
9, 47015, Note_on_c, 6, 74, 0
9, 47015, Control_c, 6, 7, 82
9, 47033, Note_on_c, 6, 57, 64
9, 47037, Note_on_c, 6, 59, 0
9, 47100, Control_c, 6, 7, 83
9, 47123, Note_on_c, 6, 72, 64
9, 47155, Note_on_c, 6, 71, 0
9, 47160, Control_c, 6, 7, 84
9, 47238, Control_c, 6, 7, 85
9, 47238, Note_on_c, 6, 74, 64
9, 47257, Note_on_c, 6, 72, 0
9, 47300, Control_c, 6, 7, 86
9, 47363, Note_on_c, 6, 76, 64
9, 47375, Note_on_c, 6, 74, 0
9, 47420, Control_c, 6, 7, 87
9, 47485, Note_on_c, 6, 72, 64
9, 47495, Note_on_c, 6, 71, 64
9, 47504, Note_on_c, 6, 71, 0
9, 47511, Note_on_c, 6, 76, 0
9, 47542, Control_c, 6, 7, 89
9, 47586, Control_c, 6, 7, 90
9, 47586, Note_on_c, 6, 74, 64
9, 47618, Note_on_c, 6, 72, 0
9, 47662, Control_c, 6, 7, 91
9, 47690, Note_on_c, 6, 76, 64
9, 47713, Note_on_c, 6, 74, 0
9, 47765, Control_c, 6, 7, 92
9, 47851, Note_on_c, 6, 77, 64
9, 47873, Note_on_c, 6, 76, 0
9, 47905, Control_c, 6, 7, 93
9, 47976, Control_c, 6, 7, 63
9, 47976, Note_on_c, 6, 79, 64
9, 47985, Note_on_c, 6, 55, 64
9, 47989, Note_on_c, 6, 77, 0
9, 47994, Note_on_c, 6, 57, 0
9, 47998, Note_on_c, 6, 84, 43
9, 48011, Note_on_c, 6, 79, 43
9, 48742, Control_c, 6, 7, 64
9, 48762, Control_c, 6, 7, 65
9, 48782, Control_c, 6, 7, 66
9, 48802, Control_c, 6, 7, 67
9, 48920, Control_c, 6, 7, 68
9, 48931, Note_on_c, 6, 79, 0
9, 48945, Note_on_c, 6, 55, 0
9, 49040, Control_c, 6, 7, 69
9, 49380, Control_c, 6, 7, 71
9, 49440, Control_c, 6, 7, 72
9, 49843, Note_on_c, 6, 79, 0
9, 49860, Control_c, 6, 7, 71
9, 50000, Control_c, 6, 7, 70
9, 50036, Note_on_c, 6, 79, 43
9, 50600, Control_c, 6, 7, 69
9, 51786, Note_on_c, 6, 79, 0
9, 51818, Note_on_c, 6, 77, 43
9, 51822, Note_on_c, 6, 81, 43
9, 51840, Note_on_c, 6, 84, 0
9, 54681, Note_on_c, 6, 77, 0
9, 54688, Note_on_c, 6, 79, 43
9, 54702, Note_on_c, 6, 81, 0
9, 54705, Note_on_c, 6, 83, 43
9, 55676, Note_on_c, 6, 81, 43
9, 55685, Note_on_c, 6, 79, 0
9, 55686, Note_on_c, 6, 77, 43
9, 55695, Note_on_c, 6, 83, 0
9, 56623, Note_on_c, 6, 84, 43
9, 56624, Note_on_c, 6, 79, 43
9, 56629, Note_on_c, 6, 81, 0
9, 56634, Note_on_c, 6, 77, 0
9, 60458, Note_on_c, 6, 79, 0
9, 60467, Note_on_c, 6, 81, 43
9, 60469, Note_on_c, 6, 77, 43
9, 60478, Note_on_c, 6, 84, 0
9, 63356, Note_on_c, 6, 81, 0
9, 63360, Note_on_c, 6, 77, 0
9, 63360, Note_on_c, 6, 79, 43
9, 63828, Note_on_c, 6, 79, 0
9, 63845, Note_on_c, 6, 79, 43
9, 64295, Note_on_c, 6, 77, 43
9, 64311, Note_on_c, 6, 79, 0
9, 64766, Note_on_c, 6, 77, 0
9, 64800, Note_on_c, 6, 81, 43
9, 66209, Note_on_c, 6, 84, 43
9, 66723, Note_on_c, 6, 83, 43
9, 66745, Note_on_c, 6, 84, 0
9, 67183, Note_on_c, 6, 81, 0
9, 67221, Note_on_c, 6, 81, 43
9, 67232, Note_on_c, 6, 83, 0
9, 67682, Note_on_c, 6, 79, 43
9, 67696, Note_on_c, 6, 81, 0
9, 68778, Control_c, 6, 7, 67
9, 68798, Control_c, 6, 7, 64
9, 68838, Control_c, 6, 7, 63
9, 68898, Control_c, 6, 7, 62
9, 68918, Control_c, 6, 7, 61
9, 68958, Control_c, 6, 7, 60
9, 68998, Control_c, 6, 7, 59
9, 69018, Control_c, 6, 7, 58
9, 69060, Control_c, 6, 7, 56
9, 69080, Control_c, 6, 7, 55
9, 69100, Control_c, 6, 7, 54
9, 69140, Control_c, 6, 7, 53
9, 69160, Control_c, 6, 7, 52
9, 69200, Control_c, 6, 7, 51
9, 69240, Control_c, 6, 7, 50
9, 69300, Control_c, 6, 7, 49
9, 69340, Control_c, 6, 7, 47
9, 69360, Control_c, 6, 7, 46
9, 69420, Control_c, 6, 7, 45
9, 69460, Control_c, 6, 7, 44
9, 69520, Control_c, 6, 7, 43
9, 69540, Control_c, 6, 7, 42
9, 69600, Control_c, 6, 7, 41
9, 69640, Control_c, 6, 7, 40
9, 69660, Control_c, 6, 7, 38
9, 69700, Control_c, 6, 7, 37
9, 69720, Control_c, 6, 7, 36
9, 69760, Control_c, 6, 7, 35
9, 69820, Control_c, 6, 7, 34
9, 69840, Control_c, 6, 7, 33
9, 69900, Control_c, 6, 7, 32
9, 69930, Control_c, 6, 7, 31
9, 69980, Control_c, 6, 7, 30
9, 70000, Control_c, 6, 7, 29
9, 70050, Control_c, 6, 7, 28
9, 70080, Control_c, 6, 7, 27
9, 70120, Control_c, 6, 7, 26
9, 70140, Control_c, 6, 7, 24
9, 70200, Control_c, 6, 7, 23
9, 70220, Control_c, 6, 7, 22
9, 70260, Control_c, 6, 7, 21
9, 70280, Control_c, 6, 7, 20
9, 70320, Control_c, 6, 7, 19
9, 70362, Note_on_c, 6, 79, 0
9, 70362, Control_c, 6, 7, 18
9, 70382, Control_c, 6, 7, 17
9, 70402, Control_c, 6, 7, 15
9, 70462, Control_c, 6, 7, 14
9, 70500, Control_c, 6, 7, 13
9, 70540, Control_c, 6, 7, 12
9, 70560, Control_c, 6, 7, 11
9, 70600, Control_c, 6, 7, 10
9, 70620, Control_c, 6, 7, 9
9, 70680, Control_c, 6, 7, 8
9, 70720, Control_c, 6, 7, 6
9, 70760, Control_c, 6, 7, 5
9, 70780, Control_c, 6, 7, 4
9, 70805, Control_c, 6, 7, 1
9, 70825, Control_c, 6, 7, 0
9, 70885, Control_c, 6, 7, 68
9, 71040, Note_on_c, 6, 50, 64
9, 71220, Note_on_c, 6, 50, 0
9, 71280, Note_on_c, 6, 50, 64
9, 71460, Note_on_c, 6, 50, 0
9, 71520, Note_on_c, 6, 54, 64
9, 71700, Note_on_c, 6, 54, 0
9, 71760, Note_on_c, 6, 54, 64
9, 71940, Note_on_c, 6, 54, 0
9, 72000, Note_on_c, 6, 57, 64
9, 72180, Note_on_c, 6, 57, 0
9, 72240, Note_on_c, 6, 57, 64
9, 72420, Note_on_c, 6, 57, 0
9, 72480, Note_on_c, 6, 59, 64
9, 72660, Note_on_c, 6, 59, 0
9, 72720, Note_on_c, 6, 57, 64
9, 72900, Note_on_c, 6, 57, 0
9, 72937, Note_on_c, 6, 65, 64
9, 72960, Note_on_c, 6, 53, 65
9, 73140, Note_on_c, 6, 53, 0
9, 73200, Note_on_c, 6, 53, 70
9, 73380, Note_on_c, 6, 53, 0
9, 73440, Note_on_c, 6, 53, 75
9, 73620, Note_on_c, 6, 53, 0
9, 73680, Note_on_c, 6, 53, 80
9, 73860, Note_on_c, 6, 53, 0
9, 73860, Control_c, 6, 7, 69
9, 73920, Note_on_c, 6, 53, 85
9, 74037, Control_c, 6, 7, 71
9, 74057, Control_c, 6, 7, 72
9, 74077, Control_c, 6, 7, 73
9, 74100, Note_on_c, 6, 53, 0
9, 74100, Control_c, 6, 7, 74
9, 74140, Control_c, 6, 7, 75
9, 74160, Note_on_c, 6, 53, 90
9, 74220, Control_c, 6, 7, 76
9, 74274, Control_c, 6, 7, 77
9, 74294, Control_c, 6, 7, 78
9, 74340, Note_on_c, 6, 53, 0
9, 74340, Control_c, 6, 7, 80
9, 74400, Note_on_c, 6, 53, 95
9, 74402, Control_c, 6, 7, 81
9, 74502, Control_c, 6, 7, 82
9, 74542, Control_c, 6, 7, 83
9, 74580, Note_on_c, 6, 53, 0
9, 74580, Control_c, 6, 7, 84
9, 74620, Control_c, 6, 7, 85
9, 74640, Note_on_c, 6, 53, 100
9, 74645, Control_c, 6, 7, 86
9, 74685, Control_c, 6, 7, 87
9, 74745, Control_c, 6, 7, 89
9, 74820, Note_on_c, 6, 53, 0
9, 74820, Control_c, 6, 7, 86
9, 74840, Control_c, 6, 7, 83
9, 74872, Note_on_c, 6, 65, 0
9, 74880, Note_on_c, 6, 50, 64
9, 74927, Control_c, 6, 7, 82
9, 74947, Control_c, 6, 7, 81
9, 74967, Control_c, 6, 7, 80
9, 75007, Control_c, 6, 7, 77
9, 75027, Control_c, 6, 7, 76
9, 75060, Note_on_c, 6, 50, 0
9, 75060, Control_c, 6, 7, 74
9, 75120, Note_on_c, 6, 50, 64
9, 75300, Note_on_c, 6, 50, 0
9, 75360, Note_on_c, 6, 54, 64
9, 75540, Note_on_c, 6, 54, 0
9, 75600, Note_on_c, 6, 54, 64
9, 75780, Note_on_c, 6, 54, 0
9, 75840, Note_on_c, 6, 57, 64
9, 76020, Note_on_c, 6, 57, 0
9, 76080, Note_on_c, 6, 57, 64
9, 76260, Note_on_c, 6, 57, 0
9, 76320, Note_on_c, 6, 59, 64
9, 76500, Note_on_c, 6, 59, 0
9, 76560, Note_on_c, 6, 57, 64
9, 76675, Control_c, 6, 7, 72
9, 76695, Control_c, 6, 7, 71
9, 76715, Control_c, 6, 7, 70
9, 76740, Note_on_c, 6, 57, 0
9, 76806, Note_on_c, 6, 65, 64
9, 76960, Control_c, 6, 7, 71
9, 77000, Control_c, 6, 7, 72
9, 77020, Control_c, 6, 7, 73
9, 77120, Control_c, 6, 7, 74
9, 77140, Control_c, 6, 7, 75
9, 77180, Control_c, 6, 7, 76
9, 77240, Control_c, 6, 7, 77
9, 77300, Control_c, 6, 7, 78
9, 77380, Control_c, 6, 7, 80
9, 77400, Control_c, 6, 7, 81
9, 77440, Control_c, 6, 7, 82
9, 77480, Control_c, 6, 7, 83
9, 77522, Control_c, 6, 7, 84
9, 77542, Control_c, 6, 7, 85
9, 77602, Control_c, 6, 7, 86
9, 77642, Control_c, 6, 7, 87
9, 77720, Control_c, 6, 7, 89
9, 77780, Control_c, 6, 7, 90
9, 77860, Control_c, 6, 7, 91
9, 77940, Control_c, 6, 7, 92
9, 78040, Control_c, 6, 7, 93
9, 78100, Control_c, 6, 7, 94
9, 78174, Control_c, 6, 7, 95
9, 78242, Control_c, 6, 7, 96
9, 78322, Control_c, 6, 7, 97
9, 78362, Control_c, 6, 7, 98
9, 78440, Control_c, 6, 7, 99
9, 78565, Control_c, 6, 7, 96
9, 78585, Control_c, 6, 7, 86
9, 78625, Control_c, 6, 7, 78
9, 78645, Control_c, 6, 7, 76
9, 78660, Control_c, 6, 7, 74
9, 78680, Control_c, 6, 7, 73
9, 78707, Note_on_c, 6, 65, 0
9, 78707, Control_c, 6, 7, 72
9, 78712, Note_on_c, 6, 60, 64
9, 78727, Control_c, 6, 7, 71
9, 79047, Control_c, 6, 7, 70
9, 79080, Control_c, 6, 7, 69
9, 79140, Control_c, 6, 7, 68
9, 79180, Control_c, 6, 7, 67
9, 79280, Control_c, 6, 7, 65
9, 79360, Control_c, 6, 7, 64
9, 79420, Control_c, 6, 7, 63
9, 79460, Control_c, 6, 7, 62
9, 79540, Control_c, 6, 7, 61
9, 79600, Control_c, 6, 7, 60
9, 79640, Control_c, 6, 7, 59
9, 79660, Control_c, 6, 7, 58
9, 79707, Control_c, 6, 7, 56
9, 79747, Control_c, 6, 7, 55
9, 79807, Control_c, 6, 7, 54
9, 79827, Control_c, 6, 7, 53
9, 79860, Control_c, 6, 7, 52
9, 79920, Control_c, 6, 7, 51
9, 80000, Control_c, 6, 7, 50
9, 80060, Control_c, 6, 7, 49
9, 80120, Control_c, 6, 7, 47
9, 80180, Control_c, 6, 7, 46
9, 80260, Control_c, 6, 7, 45
9, 80300, Control_c, 6, 7, 44
9, 80360, Control_c, 6, 7, 43
9, 80400, Control_c, 6, 7, 42
9, 80460, Control_c, 6, 7, 41
9, 80507, Note_on_c, 6, 60, 0
9, 80507, Control_c, 6, 7, 40
9, 80760, Control_c, 6, 7, 38
9, 80840, Control_c, 6, 7, 37
9, 80900, Control_c, 6, 7, 36
9, 80920, Control_c, 6, 7, 35
9, 81020, Control_c, 6, 7, 34
9, 81100, Control_c, 6, 7, 33
9, 81160, Control_c, 6, 7, 32
9, 81180, Control_c, 6, 7, 31
9, 81280, Control_c, 6, 7, 30
9, 81360, Control_c, 6, 7, 29
9, 81420, Control_c, 6, 7, 28
9, 81460, Control_c, 6, 7, 27
9, 81520, Control_c, 6, 7, 26
9, 85620, Control_c, 6, 7, 85
9, 91540, Control_c, 6, 7, 59
9, 107503, Note_on_c, 6, 67, 64
9, 107528, Note_on_c, 6, 59, 64
9, 107627, Note_on_c, 6, 69, 64
9, 107650, Note_on_c, 6, 67, 0
9, 107773, Note_on_c, 6, 71, 64
9, 107788, Note_on_c, 6, 69, 0
9, 107788, Control_c, 6, 7, 60
9, 107857, Note_on_c, 6, 72, 64
9, 107877, Control_c, 6, 7, 62
9, 107879, Note_on_c, 6, 71, 0
9, 107940, Control_c, 6, 7, 63
9, 107973, Note_on_c, 6, 69, 64
9, 107979, Note_on_c, 6, 72, 0
9, 108020, Control_c, 6, 7, 64
9, 108060, Control_c, 6, 7, 65
9, 108113, Note_on_c, 6, 71, 64
9, 108160, Control_c, 6, 7, 66
9, 108197, Note_on_c, 6, 69, 0
9, 108197, Control_c, 6, 7, 67
9, 108239, Note_on_c, 6, 72, 64
9, 108256, Note_on_c, 6, 71, 0
9, 108316, Control_c, 6, 7, 68
9, 108363, Note_on_c, 6, 74, 64
9, 108366, Note_on_c, 6, 72, 0
9, 108406, Control_c, 6, 7, 69
9, 108450, Control_c, 6, 7, 71
9, 108463, Note_on_c, 6, 57, 64
9, 108467, Note_on_c, 6, 59, 0
9, 108476, Note_on_c, 6, 71, 64
9, 108491, Note_on_c, 6, 74, 0
9, 108511, Control_c, 6, 7, 72
9, 108570, Control_c, 6, 7, 73
9, 108583, Note_on_c, 6, 72, 64
9, 108622, Note_on_c, 6, 71, 0
9, 108622, Control_c, 6, 7, 74
9, 108662, Control_c, 6, 7, 75
9, 108688, Note_on_c, 6, 74, 64
9, 108698, Note_on_c, 6, 72, 0
9, 108698, Control_c, 6, 7, 76
9, 108740, Control_c, 6, 7, 77
9, 108780, Control_c, 6, 7, 78
9, 108806, Note_on_c, 6, 76, 64
9, 108820, Note_on_c, 6, 74, 0
9, 108840, Control_c, 6, 7, 80
9, 108860, Control_c, 6, 7, 81
9, 108920, Control_c, 6, 7, 82
9, 108924, Note_on_c, 6, 76, 0
9, 108940, Note_on_c, 6, 72, 64
9, 108962, Control_c, 6, 7, 83
9, 109042, Control_c, 6, 7, 84
9, 109052, Note_on_c, 6, 74, 64
9, 109079, Note_on_c, 6, 72, 0
9, 109082, Control_c, 6, 7, 85
9, 109140, Control_c, 6, 7, 86
9, 109169, Note_on_c, 6, 76, 64
9, 109178, Note_on_c, 6, 74, 0
9, 109178, Control_c, 6, 7, 87
9, 109245, Control_c, 6, 7, 89
9, 109265, Control_c, 6, 7, 90
9, 109313, Note_on_c, 6, 77, 64
9, 109320, Control_c, 6, 7, 91
9, 109335, Note_on_c, 6, 76, 0
9, 109355, Control_c, 6, 7, 64
9, 109405, Note_on_c, 6, 55, 64
9, 109419, Note_on_c, 6, 57, 0
9, 109440, Note_on_c, 6, 77, 0
9, 109440, Note_on_c, 6, 84, 43
9, 109451, Note_on_c, 6, 79, 43
9, 110396, Note_on_c, 6, 55, 0
9, 113212, Note_on_c, 6, 84, 0
9, 113258, Note_on_c, 6, 77, 43
9, 113262, Note_on_c, 6, 81, 43
9, 113291, Note_on_c, 6, 79, 0
9, 116121, Note_on_c, 6, 77, 0
9, 116128, Note_on_c, 6, 79, 43
9, 116142, Note_on_c, 6, 81, 0
9, 116145, Note_on_c, 6, 83, 43
9, 117116, Note_on_c, 6, 81, 43
9, 117125, Note_on_c, 6, 79, 0
9, 117126, Note_on_c, 6, 77, 43
9, 117135, Note_on_c, 6, 83, 0
9, 118063, Note_on_c, 6, 84, 43
9, 118064, Note_on_c, 6, 79, 43
9, 118069, Note_on_c, 6, 81, 0
9, 118074, Note_on_c, 6, 77, 0
9, 121898, Note_on_c, 6, 79, 0
9, 121907, Note_on_c, 6, 81, 43
9, 121909, Note_on_c, 6, 77, 43
9, 121918, Note_on_c, 6, 84, 0
9, 124796, Note_on_c, 6, 81, 0
9, 124800, Note_on_c, 6, 77, 0
9, 124800, Note_on_c, 6, 79, 43
9, 125268, Note_on_c, 6, 79, 0
9, 125285, Note_on_c, 6, 79, 43
9, 125735, Note_on_c, 6, 77, 43
9, 125751, Note_on_c, 6, 79, 0
9, 126206, Note_on_c, 6, 77, 0
9, 126240, Note_on_c, 6, 81, 43
9, 127649, Note_on_c, 6, 84, 43
9, 128163, Note_on_c, 6, 83, 43
9, 128185, Note_on_c, 6, 84, 0
9, 128623, Note_on_c, 6, 81, 0
9, 128661, Note_on_c, 6, 81, 43
9, 128672, Note_on_c, 6, 83, 0
9, 129122, Note_on_c, 6, 79, 43
9, 129136, Note_on_c, 6, 81, 0
9, 130198, Control_c, 6, 7, 84
9, 130560, Note_on_c, 6, 65, 64
9, 130561, Note_on_c, 6, 69, 64
9, 131802, Note_on_c, 6, 79, 0
9, 132462, Control_c, 6, 7, 81
9, 132825, Control_c, 6, 7, 80
9, 132885, Control_c, 6, 7, 79
9, 133242, Control_c, 6, 7, 78
9, 133322, Control_c, 6, 7, 77
9, 133600, Control_c, 6, 7, 76
9, 133660, Control_c, 6, 7, 74
9, 134315, Note_on_c, 6, 65, 0
9, 134341, Note_on_c, 6, 69, 0
9, 134380, Note_on_c, 6, 72, 64
9, 134394, Note_on_c, 6, 67, 64
9, 134436, Control_c, 6, 7, 73
9, 135080, Control_c, 6, 7, 72
9, 135108, Control_c, 6, 7, 71
9, 135122, Control_c, 6, 7, 70
9, 135242, Control_c, 6, 7, 69
9, 135302, Control_c, 6, 7, 68
9, 135377, Control_c, 6, 7, 67
9, 135437, Control_c, 6, 7, 65
9, 135560, Control_c, 6, 7, 64
9, 135600, Control_c, 6, 7, 63
9, 135680, Control_c, 6, 7, 62
9, 135982, Control_c, 6, 7, 61
9, 136085, Control_c, 6, 7, 60
9, 136180, Control_c, 6, 7, 59
9, 136263, Note_on_c, 6, 64, 64
9, 136705, Control_c, 6, 7, 58
9, 136725, Control_c, 6, 7, 56
9, 137162, Control_c, 6, 7, 55
9, 137605, Control_c, 6, 7, 54
9, 137665, Control_c, 6, 7, 53
9, 138118, Note_on_c, 6, 67, 0
9, 138152, Note_on_c, 6, 72, 0
9, 138196, Note_on_c, 6, 65, 64
9, 138204, Note_on_c, 6, 69, 64
9, 138208, Note_on_c, 6, 64, 0
9, 138227, Control_c, 6, 7, 55
9, 138249, Control_c, 6, 7, 56
9, 138269, Control_c, 6, 7, 59
9, 138289, Control_c, 6, 7, 60
9, 138309, Control_c, 6, 7, 62
9, 138349, Control_c, 6, 7, 63
9, 138360, Control_c, 6, 7, 64
9, 138420, Control_c, 6, 7, 65
9, 138440, Control_c, 6, 7, 66
9, 138500, Control_c, 6, 7, 67
9, 138520, Control_c, 6, 7, 68
9, 138580, Control_c, 6, 7, 69
9, 138620, Control_c, 6, 7, 71
9, 138700, Control_c, 6, 7, 72
9, 138760, Control_c, 6, 7, 73
9, 138820, Control_c, 6, 7, 74
9, 138926, Control_c, 6, 7, 75
9, 139042, Control_c, 6, 7, 76
9, 139082, Control_c, 6, 7, 77
9, 139142, Control_c, 6, 7, 78
9, 139237, Control_c, 6, 7, 80
9, 141975, Control_c, 6, 7, 79
9, 141995, Control_c, 6, 7, 78
9, 142028, Note_on_c, 6, 69, 0
9, 142028, Control_c, 6, 7, 76
9, 142044, Note_on_c, 6, 71, 64
9, 142045, Note_on_c, 6, 67, 64
9, 142048, Note_on_c, 6, 65, 0
9, 142059, Note_on_c, 6, 74, 64
9, 142080, Control_c, 6, 7, 74
9, 142117, Control_c, 6, 7, 73
9, 142137, Control_c, 6, 7, 71
9, 142177, Control_c, 6, 7, 70
9, 142220, Control_c, 6, 7, 69
9, 142260, Control_c, 6, 7, 68
9, 142300, Control_c, 6, 7, 67
9, 142380, Control_c, 6, 7, 65
9, 142420, Control_c, 6, 7, 64
9, 142500, Control_c, 6, 7, 63
9, 142542, Control_c, 6, 7, 62
9, 142600, Control_c, 6, 7, 61
9, 142680, Control_c, 6, 7, 60
9, 142882, Control_c, 6, 7, 59
9, 142980, Control_c, 6, 7, 58
9, 143320, Control_c, 6, 7, 56
9, 143475, Note_on_c, 6, 74, 0
9, 143580, Control_c, 6, 7, 62
9, 143940, Control_c, 6, 7, 63
9, 143976, Note_on_c, 6, 67, 64
9, 143987, Note_on_c, 6, 67, 0
9, 143991, Note_on_c, 6, 67, 64
9, 143994, Note_on_c, 6, 59, 64
9, 144000, Note_on_c, 6, 71, 0
9, 144000, Control_c, 6, 7, 64
9, 144040, Control_c, 6, 7, 65
9, 144090, Control_c, 6, 7, 66
9, 144121, Note_on_c, 6, 67, 0
9, 144128, Control_c, 6, 7, 67
9, 144128, Note_on_c, 6, 69, 64
9, 144154, Note_on_c, 6, 67, 0
9, 144154, Control_c, 6, 7, 68
9, 144180, Control_c, 6, 7, 69
9, 144230, Control_c, 6, 7, 71
9, 144248, Control_c, 6, 7, 72
9, 144248, Note_on_c, 6, 71, 64
9, 144280, Note_on_c, 6, 69, 0
9, 144330, Control_c, 6, 7, 73
9, 144363, Note_on_c, 6, 72, 64
9, 144364, Note_on_c, 6, 71, 0
9, 144450, Control_c, 6, 7, 74
9, 144467, Note_on_c, 6, 69, 64
9, 144505, Note_on_c, 6, 72, 0
9, 144552, Note_on_c, 6, 71, 64
9, 144590, Control_c, 6, 7, 75
9, 144615, Note_on_c, 6, 69, 0
9, 144635, Control_c, 6, 7, 76
9, 144672, Note_on_c, 6, 72, 64
9, 144679, Note_on_c, 6, 71, 0
9, 144690, Control_c, 6, 7, 77
9, 144762, Control_c, 6, 7, 78
9, 144805, Note_on_c, 6, 74, 64
9, 144820, Note_on_c, 6, 72, 0
9, 144840, Control_c, 6, 7, 80
9, 144882, Control_c, 6, 7, 81
9, 144930, Note_on_c, 6, 71, 64
9, 144935, Note_on_c, 6, 74, 0
9, 144935, Control_c, 6, 7, 82
9, 144953, Note_on_c, 6, 57, 64
9, 144957, Note_on_c, 6, 59, 0
9, 145020, Control_c, 6, 7, 83
9, 145043, Note_on_c, 6, 72, 64
9, 145075, Note_on_c, 6, 71, 0
9, 145080, Control_c, 6, 7, 84
9, 145158, Control_c, 6, 7, 85
9, 145158, Note_on_c, 6, 74, 64
9, 145177, Note_on_c, 6, 72, 0
9, 145220, Control_c, 6, 7, 86
9, 145283, Note_on_c, 6, 76, 64
9, 145295, Note_on_c, 6, 74, 0
9, 145340, Control_c, 6, 7, 87
9, 145405, Note_on_c, 6, 72, 64
9, 145415, Note_on_c, 6, 71, 64
9, 145424, Note_on_c, 6, 71, 0
9, 145431, Note_on_c, 6, 76, 0
9, 145462, Control_c, 6, 7, 89
9, 145506, Control_c, 6, 7, 90
9, 145506, Note_on_c, 6, 74, 64
9, 145538, Note_on_c, 6, 72, 0
9, 145582, Control_c, 6, 7, 91
9, 145610, Note_on_c, 6, 76, 64
9, 145633, Note_on_c, 6, 74, 0
9, 145685, Control_c, 6, 7, 92
9, 145771, Note_on_c, 6, 77, 64
9, 145793, Note_on_c, 6, 76, 0
9, 145825, Control_c, 6, 7, 93
9, 145896, Control_c, 6, 7, 63
9, 145896, Note_on_c, 6, 79, 64
9, 145905, Note_on_c, 6, 55, 64
9, 145909, Note_on_c, 6, 77, 0
9, 145914, Note_on_c, 6, 57, 0
9, 145918, Note_on_c, 6, 84, 43
9, 145931, Note_on_c, 6, 79, 43
9, 146662, Control_c, 6, 7, 64
9, 146682, Control_c, 6, 7, 65
9, 146702, Control_c, 6, 7, 66
9, 146722, Control_c, 6, 7, 67
9, 146840, Control_c, 6, 7, 68
9, 146851, Note_on_c, 6, 79, 0
9, 146865, Note_on_c, 6, 55, 0
9, 146960, Control_c, 6, 7, 69
9, 147300, Control_c, 6, 7, 71
9, 147360, Control_c, 6, 7, 72
9, 147763, Note_on_c, 6, 79, 0
9, 147780, Control_c, 6, 7, 71
9, 147920, Control_c, 6, 7, 70
9, 147956, Note_on_c, 6, 79, 43
9, 148520, Control_c, 6, 7, 69
9, 149706, Note_on_c, 6, 79, 0
9, 149738, Note_on_c, 6, 77, 43
9, 149742, Note_on_c, 6, 81, 43
9, 149760, Note_on_c, 6, 84, 0
9, 152601, Note_on_c, 6, 77, 0
9, 152608, Note_on_c, 6, 79, 43
9, 152622, Note_on_c, 6, 81, 0
9, 152625, Note_on_c, 6, 83, 43
9, 153596, Note_on_c, 6, 81, 43
9, 153605, Note_on_c, 6, 79, 0
9, 153606, Note_on_c, 6, 77, 43
9, 153615, Note_on_c, 6, 83, 0
9, 154543, Note_on_c, 6, 84, 43
9, 154544, Note_on_c, 6, 79, 43
9, 154549, Note_on_c, 6, 81, 0
9, 154554, Note_on_c, 6, 77, 0
9, 158378, Note_on_c, 6, 79, 0
9, 158387, Note_on_c, 6, 81, 43
9, 158389, Note_on_c, 6, 77, 43
9, 158398, Note_on_c, 6, 84, 0
9, 161276, Note_on_c, 6, 81, 0
9, 161280, Note_on_c, 6, 77, 0
9, 161280, Note_on_c, 6, 79, 43
9, 161748, Note_on_c, 6, 79, 0
9, 161765, Note_on_c, 6, 79, 43
9, 162215, Note_on_c, 6, 77, 43
9, 162231, Note_on_c, 6, 79, 0
9, 162686, Note_on_c, 6, 77, 0
9, 162720, Note_on_c, 6, 81, 43
9, 164129, Note_on_c, 6, 84, 43
9, 164643, Note_on_c, 6, 83, 43
9, 164665, Note_on_c, 6, 84, 0
9, 165103, Note_on_c, 6, 81, 0
9, 165141, Note_on_c, 6, 81, 43
9, 165152, Note_on_c, 6, 83, 0
9, 165602, Note_on_c, 6, 79, 43
9, 165616, Note_on_c, 6, 81, 0
9, 166698, Control_c, 6, 7, 67
9, 166718, Control_c, 6, 7, 64
9, 166758, Control_c, 6, 7, 63
9, 166818, Control_c, 6, 7, 62
9, 166838, Control_c, 6, 7, 61
9, 166878, Control_c, 6, 7, 60
9, 166918, Control_c, 6, 7, 59
9, 166938, Control_c, 6, 7, 58
9, 166980, Control_c, 6, 7, 56
9, 167000, Control_c, 6, 7, 55
9, 167020, Control_c, 6, 7, 54
9, 167040, Note_on_c, 6, 79, 43
9, 167508, Note_on_c, 6, 79, 0
9, 167525, Note_on_c, 6, 79, 43
9, 167975, Note_on_c, 6, 77, 43
9, 167991, Note_on_c, 6, 79, 0
9, 168282, Note_on_c, 6, 79, 0
9, 168446, Note_on_c, 6, 77, 0
9, 168480, Note_on_c, 6, 81, 43
9, 169889, Note_on_c, 6, 84, 43
9, 170403, Note_on_c, 6, 83, 43
9, 170425, Note_on_c, 6, 84, 0
9, 170863, Note_on_c, 6, 81, 0
9, 170901, Note_on_c, 6, 81, 43
9, 170912, Note_on_c, 6, 83, 0
9, 171362, Note_on_c, 6, 79, 43
9, 171376, Note_on_c, 6, 81, 0
9, 172458, Control_c, 6, 7, 67
9, 172478, Control_c, 6, 7, 64
9, 172518, Control_c, 6, 7, 63
9, 172578, Control_c, 6, 7, 62
9, 172598, Control_c, 6, 7, 61
9, 172638, Control_c, 6, 7, 60
9, 172678, Control_c, 6, 7, 59
9, 172698, Control_c, 6, 7, 58
9, 172740, Control_c, 6, 7, 56
9, 172760, Control_c, 6, 7, 55
9, 172780, Control_c, 6, 7, 54
9, 174042, Note_on_c, 6, 79, 0
9, 174042, End_track
10, 0, Start_track
10, 0, MIDI_port, 0
10, 0, Title_t, "Changes"
10, 0, End_track
11, 0, Start_track
11, 0, MIDI_port, 0
11, 0, Title_t, "by David Bowie"
11, 0, End_track
12, 0, Start_track
12, 0, MIDI_port, 0
12, 0, Title_t, "Piano, sax & organ sequenced by:"
12, 0, End_track
13, 0, Start_track
13, 0, MIDI_port, 0
13, 0, Title_t, "Mark Cataldo of Joejah"
13, 0, End_track
14, 0, Start_track
14, 0, MIDI_port, 0
14, 0, Title_t, "e-mail me at:"
14, 0, End_track
15, 0, Start_track
15, 0, MIDI_port, 0
15, 0, Title_t, "Soundtrek4@AOL.com"
15, 0, End_track
16, 0, Start_track
16, 0, MIDI_port, 0
16, 0, Title_t, "Other instrumentation and"
16, 0, End_track
17, 0, Start_track
17, 0, MIDI_port, 0
17, 0, Title_t, "remix by Anne Wallace"
17, 0, End_track
0, 0, End_of_file
