0, 0, Header, 1, 11, 192
1, 0, Start_track
1, 0, Tempo, 508475
1, 0, Time_signature, 4, 2, 24, 8
1, 0, Key_signature, 0, "major"
1, 74512, Tempo, 508475
1, 74544, Tempo, 512821
1, 74576, Tempo, 517241
1, 74600, Tempo, 521739
1, 74632, Tempo, 526316
1, 74664, Tempo, 530973
1, 74688, Tempo, 535714
1, 74720, Tempo, 540541
1, 74752, Tempo, 545455
1, 74776, Tempo, 550459
1, 74808, Tempo, 555556
1, 74840, Tempo, 560748
1, 74864, Tempo, 566038
1, 74896, Tempo, 571429
1, 74928, Tempo, 576923
1, 74952, Tempo, 582524
1, 74984, Tempo, 588235
1, 75008, Tempo, 594059
1, 75040, Tempo, 600000
1, 75072, Tempo, 606061
1, 75096, Tempo, 612245
1, 75128, Tempo, 618557
1, 75160, Tempo, 625000
1, 75184, Tempo, 631579
1, 75216, Tempo, 638298
1, 75248, Tempo, 645161
1, 75272, Tempo, 652174
1, 75304, Tempo, 659341
1, 75336, Tempo, 666667
1, 75360, Tempo, 674157
1, 75392, Tempo, 681818
1, 75424, Tempo, 689655
1, 75448, Tempo, 697674
1, 75480, Tempo, 705882
1, 75504, Tempo, 714286
1, 75536, Tempo, 722892
1, 75568, Tempo, 731707
1, 75592, Tempo, 740741
1, 75624, Tempo, 750000
1, 75656, Tempo, 759494
1, 75680, Tempo, 769231
1, 75712, Tempo, 779221
1, 75744, Tempo, 789474
1, 75768, Tempo, 800000
1, 75800, Tempo, 810811
1, 75832, Tempo, 821918
1, 75856, Tempo, 833333
1, 75888, Tempo, 845070
1, 75920, Tempo, 857143
1, 75944, Tempo, 869565
1, 75976, Tempo, 882353
1, 76000, Tempo, 895522
1, 76032, Tempo, 909091
1, 76064, Tempo, 923077
1, 76088, Tempo, 937500
1, 76120, Tempo, 952381
1, 76152, Tempo, 967742
1, 76176, Tempo, 983607
1, 76208, Tempo, 1000000
1, 76240, Tempo, 1016949
1, 76264, Tempo, 1034483
1, 76296, Tempo, 1052632
1, 76328, Tempo, 1071429
1, 76352, Tempo, 1090909
1, 76384, Tempo, 1111111
1, 76408, Tempo, 1132075
1, 76408, End_track
2, 0, Start_track
2, 0, Title_t, "untitled"
2, 0, End_track
3, 0, Start_track
3, 0, Title_t, "M.NATION"
3, 0, Channel_prefix, 0
3, 0, Control_c, 0, 7, 84
3, 0, Program_c, 0, 0
3, 191, Control_c, 0, 6, 64
3, 191, Control_c, 0, 38, 0
3, 191, Control_c, 0, 91, 80
3, 191, Control_c, 0, 93, 20
3, 191, Control_c, 0, 100, 1
3, 191, Control_c, 0, 100, 2
3, 191, Control_c, 0, 101, 0
3, 191, Control_c, 0, 101, 0
3, 191, Control_c, 0, 6, 64
3, 191, Control_c, 0, 7, 100
3, 191, Control_c, 0, 10, 64
3, 191, Control_c, 0, 38, 0
3, 191, Control_c, 0, 91, 10
3, 191, Control_c, 0, 93, 10
3, 191, Control_c, 0, 100, 1
3, 191, Control_c, 0, 100, 2
3, 191, Control_c, 0, 101, 0
3, 191, Control_c, 0, 101, 0
3, 191, Control_c, 0, 6, 64
3, 191, Control_c, 0, 7, 100
3, 191, Control_c, 0, 10, 64
3, 191, Control_c, 0, 38, 0
3, 191, Control_c, 0, 91, 100
3, 191, Control_c, 0, 93, 0
3, 191, Control_c, 0, 100, 1
3, 191, Control_c, 0, 100, 2
3, 191, Control_c, 0, 101, 0
3, 191, Control_c, 0, 101, 0
3, 191, Control_c, 0, 6, 64
3, 191, Control_c, 0, 7, 100
3, 191, Control_c, 0, 10, 64
3, 191, Control_c, 0, 38, 0
3, 191, Control_c, 0, 91, 50
3, 191, Control_c, 0, 93, 50
3, 191, Control_c, 0, 100, 1
3, 191, Control_c, 0, 100, 2
3, 191, Control_c, 0, 101, 0
3, 191, Control_c, 0, 101, 0
3, 191, Control_c, 0, 6, 64
3, 191, Control_c, 0, 7, 100
3, 191, Control_c, 0, 10, 64
3, 191, Control_c, 0, 38, 0
3, 191, Control_c, 0, 91, 100
3, 191, Control_c, 0, 93, 0
3, 191, Control_c, 0, 100, 1
3, 191, Control_c, 0, 100, 2
3, 191, Control_c, 0, 101, 0
3, 191, Control_c, 0, 101, 0
3, 191, Control_c, 0, 6, 64
3, 191, Control_c, 0, 7, 100
3, 191, Control_c, 0, 10, 64
3, 191, Control_c, 0, 38, 0
3, 191, Control_c, 0, 91, 100
3, 191, Control_c, 0, 93, 30
3, 191, Control_c, 0, 100, 1
3, 191, Control_c, 0, 100, 2
3, 191, Control_c, 0, 101, 0
3, 191, Control_c, 0, 101, 0
3, 191, Control_c, 0, 6, 64
3, 191, Control_c, 0, 7, 110
3, 191, Control_c, 0, 10, 60
3, 191, Control_c, 0, 38, 0
3, 191, Control_c, 0, 91, 100
3, 191, Control_c, 0, 93, 20
3, 191, Control_c, 0, 100, 1
3, 191, Control_c, 0, 100, 2
3, 191, Control_c, 0, 101, 0
3, 191, Control_c, 0, 101, 0
3, 191, Control_c, 0, 6, 64
3, 191, Control_c, 0, 7, 110
3, 191, Control_c, 0, 10, 70
3, 191, Control_c, 0, 38, 0
3, 191, Control_c, 0, 91, 100
3, 191, Control_c, 0, 93, 20
3, 191, Control_c, 0, 100, 1
3, 191, Control_c, 0, 100, 2
3, 191, Control_c, 0, 101, 0
3, 191, Control_c, 0, 101, 0
3, 191, Control_c, 0, 6, 64
3, 191, Control_c, 0, 7, 100
3, 191, Control_c, 0, 10, 64
3, 191, Control_c, 0, 38, 0
3, 191, Control_c, 0, 91, 100
3, 191, Control_c, 0, 93, 0
3, 191, Control_c, 0, 100, 1
3, 191, Control_c, 0, 100, 2
3, 191, Control_c, 0, 101, 0
3, 191, Control_c, 0, 101, 0
3, 191, Control_c, 0, 6, 64
3, 191, Control_c, 0, 7, 120
3, 191, Control_c, 0, 10, 64
3, 191, Control_c, 0, 38, 0
3, 191, Control_c, 0, 91, 70
3, 191, Control_c, 0, 93, 0
3, 191, Control_c, 0, 100, 1
3, 191, Control_c, 0, 100, 2
3, 191, Control_c, 0, 101, 0
3, 191, Control_c, 0, 101, 0
3, 191, Control_c, 0, 6, 64
3, 191, Control_c, 0, 7, 100
3, 191, Control_c, 0, 10, 64
3, 191, Control_c, 0, 38, 0
3, 191, Control_c, 0, 91, 100
3, 191, Control_c, 0, 93, 0
3, 191, Control_c, 0, 100, 1
3, 191, Control_c, 0, 100, 2
3, 191, Control_c, 0, 101, 0
3, 191, Control_c, 0, 101, 0
3, 191, Control_c, 0, 6, 64
3, 191, Control_c, 0, 7, 90
3, 191, Control_c, 0, 10, 64
3, 191, Control_c, 0, 38, 0
3, 191, Control_c, 0, 91, 100
3, 191, Control_c, 0, 93, 0
3, 191, Control_c, 0, 100, 1
3, 191, Control_c, 0, 100, 2
3, 191, Control_c, 0, 101, 0
3, 191, Control_c, 0, 101, 0
3, 191, Control_c, 0, 6, 64
3, 191, Control_c, 0, 7, 100
3, 191, Control_c, 0, 10, 64
3, 191, Control_c, 0, 38, 0
3, 191, Control_c, 0, 91, 100
3, 191, Control_c, 0, 93, 0
3, 191, Control_c, 0, 100, 1
3, 191, Control_c, 0, 100, 2
3, 191, Control_c, 0, 101, 0
3, 191, Control_c, 0, 101, 0
3, 191, Control_c, 0, 6, 64
3, 191, Control_c, 0, 7, 100
3, 191, Control_c, 0, 10, 64
3, 191, Control_c, 0, 38, 0
3, 191, Control_c, 0, 91, 100
3, 191, Control_c, 0, 93, 0
3, 191, Control_c, 0, 100, 1
3, 191, Control_c, 0, 100, 2
3, 191, Control_c, 0, 101, 0
3, 191, Control_c, 0, 101, 0
3, 191, Control_c, 0, 6, 64
3, 191, Control_c, 0, 7, 100
3, 191, Control_c, 0, 10, 64
3, 191, Control_c, 0, 38, 0
3, 191, Control_c, 0, 91, 100
3, 191, Control_c, 0, 93, 0
3, 191, Control_c, 0, 100, 1
3, 191, Control_c, 0, 100, 2
3, 191, Control_c, 0, 101, 0
3, 191, Control_c, 0, 101, 0
3, 191, Control_c, 0, 6, 64
3, 191, Control_c, 0, 7, 100
3, 191, Control_c, 0, 10, 64
3, 191, Control_c, 0, 38, 0
3, 191, Control_c, 0, 91, 100
3, 191, Control_c, 0, 93, 0
3, 191, Control_c, 0, 100, 1
3, 191, Control_c, 0, 100, 2
3, 191, Control_c, 0, 101, 0
3, 191, Control_c, 0, 101, 0
3, 446, Pitch_bend_c, 0, 8288
3, 455, Pitch_bend_c, 0, 8288
3, 464, Pitch_bend_c, 0, 8256
3, 473, Pitch_bend_c, 0, 8256
3, 482, Pitch_bend_c, 0, 8288
3, 491, Pitch_bend_c, 0, 8256
3, 522, Pitch_bend_c, 0, 8256
3, 561, Pitch_bend_c, 0, 8256
3, 579, Pitch_bend_c, 0, 8256
3, 588, Pitch_bend_c, 0, 8256
3, 609, Pitch_bend_c, 0, 8256
3, 7679, Note_on_c, 0, 69, 127
3, 7679, Note_on_c, 0, 73, 100
3, 7679, Note_on_c, 0, 76, 68
3, 7704, Note_off_c, 0, 73, 0
3, 7707, Note_off_c, 0, 69, 0
3, 7717, Note_off_c, 0, 76, 0
3, 7775, Note_on_c, 0, 69, 113
3, 7775, Note_on_c, 0, 73, 91
3, 7775, Note_on_c, 0, 76, 58
3, 7800, Note_off_c, 0, 69, 0
3, 7802, Note_off_c, 0, 73, 0
3, 7808, Note_off_c, 0, 76, 0
3, 7871, Note_on_c, 0, 69, 122
3, 7871, Note_on_c, 0, 73, 100
3, 7871, Note_on_c, 0, 76, 66
3, 7898, Note_off_c, 0, 73, 0
3, 7898, Note_off_c, 0, 69, 0
3, 7907, Note_off_c, 0, 76, 0
3, 7967, Note_on_c, 0, 69, 113
3, 7967, Note_on_c, 0, 73, 91
3, 7967, Note_on_c, 0, 76, 60
3, 7995, Note_off_c, 0, 73, 0
3, 7995, Note_off_c, 0, 69, 0
3, 8003, Note_off_c, 0, 76, 0
3, 8063, Note_on_c, 0, 68, 104
3, 8063, Note_on_c, 0, 73, 100
3, 8063, Note_on_c, 0, 76, 59
3, 8091, Note_off_c, 0, 73, 0
3, 8093, Note_off_c, 0, 68, 0
3, 8101, Note_off_c, 0, 76, 0
3, 8159, Note_on_c, 0, 68, 100
3, 8159, Note_on_c, 0, 73, 95
3, 8159, Note_on_c, 0, 76, 54
3, 8186, Note_off_c, 0, 68, 0
3, 8187, Note_off_c, 0, 73, 0
3, 8194, Note_off_c, 0, 76, 0
3, 8255, Note_on_c, 0, 68, 95
3, 8255, Note_on_c, 0, 73, 83
3, 8255, Note_on_c, 0, 76, 53
3, 8283, Note_off_c, 0, 73, 0
3, 8283, Note_off_c, 0, 68, 0
3, 8295, Note_off_c, 0, 76, 0
3, 8351, Note_on_c, 0, 66, 127
3, 8351, Note_on_c, 0, 73, 104
3, 8351, Note_on_c, 0, 76, 73
3, 8383, Note_off_c, 0, 76, 0
3, 8387, Note_off_c, 0, 66, 0
3, 8397, Note_off_c, 0, 73, 0
3, 8447, Note_on_c, 0, 66, 91
3, 8447, Note_on_c, 0, 73, 80
3, 8453, Note_on_c, 0, 70, 68
3, 8478, Note_off_c, 0, 70, 0
3, 8479, Note_off_c, 0, 73, 0
3, 8479, Note_off_c, 0, 66, 0
3, 8543, Note_on_c, 0, 66, 87
3, 8543, Note_on_c, 0, 73, 83
3, 8552, Note_on_c, 0, 70, 55
3, 8571, Note_off_c, 0, 66, 0
3, 8573, Note_off_c, 0, 73, 0
3, 8580, Note_off_c, 0, 70, 0
3, 8639, Note_on_c, 0, 66, 91
3, 8639, Note_on_c, 0, 73, 83
3, 8647, Note_on_c, 0, 70, 61
3, 8664, Note_off_c, 0, 73, 0
3, 8666, Note_off_c, 0, 66, 0
3, 8679, Note_off_c, 0, 70, 0
3, 8735, Note_on_c, 0, 66, 95
3, 8735, Note_on_c, 0, 73, 87
3, 8738, Note_on_c, 0, 70, 61
3, 8762, Note_off_c, 0, 66, 0
3, 8763, Note_off_c, 0, 73, 0
3, 8773, Note_off_c, 0, 70, 0
3, 8831, Note_on_c, 0, 66, 91
3, 8831, Note_on_c, 0, 73, 80
3, 8832, Note_on_c, 0, 70, 57
3, 8855, Note_off_c, 0, 66, 0
3, 8858, Note_off_c, 0, 73, 0
3, 8868, Note_off_c, 0, 70, 0
3, 8927, Note_on_c, 0, 66, 91
3, 8927, Note_on_c, 0, 73, 87
3, 8928, Note_on_c, 0, 70, 59
3, 8952, Note_off_c, 0, 66, 0
3, 8957, Note_off_c, 0, 73, 0
3, 8963, Note_off_c, 0, 70, 0
3, 9020, Note_on_c, 0, 70, 61
3, 9023, Note_on_c, 0, 66, 95
3, 9023, Note_on_c, 0, 73, 87
3, 9048, Note_off_c, 0, 66, 0
3, 9050, Note_off_c, 0, 73, 0
3, 9055, Note_off_c, 0, 70, 0
3, 9116, Note_on_c, 0, 70, 65
3, 9119, Note_on_c, 0, 66, 110
3, 9119, Note_on_c, 0, 73, 110
3, 9152, Note_off_c, 0, 70, 0
3, 9207, Note_off_c, 0, 66, 0
3, 9215, Note_on_c, 0, 69, 127
3, 9215, Note_on_c, 0, 73, 100
3, 9215, Note_on_c, 0, 76, 68
3, 9216, Note_off_c, 0, 73, 0
3, 9216, Note_off_c, 0, 73, 0
3, 9243, Note_off_c, 0, 69, 0
3, 9253, Note_off_c, 0, 76, 0
3, 9311, Note_on_c, 0, 69, 113
3, 9311, Note_on_c, 0, 73, 91
3, 9311, Note_on_c, 0, 76, 58
3, 9336, Note_off_c, 0, 69, 0
3, 9338, Note_off_c, 0, 73, 0
3, 9344, Note_off_c, 0, 76, 0
3, 9407, Note_on_c, 0, 69, 122
3, 9407, Note_on_c, 0, 73, 100
3, 9407, Note_on_c, 0, 76, 66
3, 9434, Note_off_c, 0, 73, 0
3, 9434, Note_off_c, 0, 69, 0
3, 9443, Note_off_c, 0, 76, 0
3, 9503, Note_on_c, 0, 69, 113
3, 9503, Note_on_c, 0, 73, 91
3, 9503, Note_on_c, 0, 76, 60
3, 9531, Note_off_c, 0, 73, 0
3, 9531, Note_off_c, 0, 69, 0
3, 9539, Note_off_c, 0, 76, 0
3, 9599, Note_on_c, 0, 68, 104
3, 9599, Note_on_c, 0, 73, 100
3, 9599, Note_on_c, 0, 76, 59
3, 9627, Note_off_c, 0, 73, 0
3, 9629, Note_off_c, 0, 68, 0
3, 9637, Note_off_c, 0, 76, 0
3, 9695, Note_on_c, 0, 68, 100
3, 9695, Note_on_c, 0, 73, 95
3, 9695, Note_on_c, 0, 76, 54
3, 9722, Note_off_c, 0, 68, 0
3, 9723, Note_off_c, 0, 73, 0
3, 9730, Note_off_c, 0, 76, 0
3, 9791, Note_on_c, 0, 68, 95
3, 9791, Note_on_c, 0, 73, 83
3, 9791, Note_on_c, 0, 76, 53
3, 9819, Note_off_c, 0, 73, 0
3, 9819, Note_off_c, 0, 68, 0
3, 9831, Note_off_c, 0, 76, 0
3, 9887, Note_on_c, 0, 66, 127
3, 9887, Note_on_c, 0, 73, 104
3, 9887, Note_on_c, 0, 76, 73
3, 9919, Note_off_c, 0, 76, 0
3, 9923, Note_off_c, 0, 66, 0
3, 9933, Note_off_c, 0, 73, 0
3, 9983, Note_on_c, 0, 66, 91
3, 9983, Note_on_c, 0, 73, 80
3, 9996, Note_on_c, 0, 70, 68
3, 10013, Note_off_c, 0, 70, 0
3, 10015, Note_off_c, 0, 73, 0
3, 10015, Note_off_c, 0, 66, 0
3, 10079, Note_on_c, 0, 66, 87
3, 10079, Note_on_c, 0, 73, 83
3, 10087, Note_on_c, 0, 70, 71
3, 10107, Note_off_c, 0, 66, 0
3, 10109, Note_off_c, 0, 73, 0
3, 10111, Note_off_c, 0, 70, 0
3, 10175, Note_on_c, 0, 66, 91
3, 10175, Note_on_c, 0, 73, 83
3, 10180, Note_on_c, 0, 70, 65
3, 10200, Note_off_c, 0, 73, 0
3, 10202, Note_off_c, 0, 66, 0
3, 10205, Note_off_c, 0, 70, 0
3, 10271, Note_on_c, 0, 66, 95
3, 10271, Note_on_c, 0, 73, 87
3, 10272, Note_on_c, 0, 70, 65
3, 10297, Note_off_c, 0, 70, 0
3, 10298, Note_off_c, 0, 66, 0
3, 10299, Note_off_c, 0, 73, 0
3, 10367, Note_on_c, 0, 66, 91
3, 10367, Note_on_c, 0, 70, 63
3, 10367, Note_on_c, 0, 73, 80
3, 10391, Note_off_c, 0, 66, 0
3, 10394, Note_off_c, 0, 70, 0
3, 10394, Note_off_c, 0, 73, 0
3, 10461, Note_on_c, 0, 70, 59
3, 10463, Note_on_c, 0, 66, 91
3, 10463, Note_on_c, 0, 73, 87
3, 10486, Note_off_c, 0, 70, 0
3, 10488, Note_off_c, 0, 66, 0
3, 10493, Note_off_c, 0, 73, 0
3, 10559, Note_on_c, 0, 66, 95
3, 10559, Note_on_c, 0, 70, 61
3, 10559, Note_on_c, 0, 73, 87
3, 10584, Note_off_c, 0, 66, 0
3, 10586, Note_off_c, 0, 73, 0
3, 10587, Note_off_c, 0, 70, 0
3, 10655, Note_on_c, 0, 66, 110
3, 10655, Note_on_c, 0, 73, 110
3, 10658, Note_on_c, 0, 70, 65
3, 10686, Note_off_c, 0, 70, 0
3, 10743, Note_off_c, 0, 66, 0
3, 10751, Note_on_c, 0, 66, 80
3, 10751, Note_on_c, 0, 71, 104
3, 10751, Note_on_c, 0, 74, 101
3, 10752, Note_off_c, 0, 73, 0
3, 10784, Note_off_c, 0, 74, 0
3, 10786, Note_off_c, 0, 71, 0
3, 10787, Note_off_c, 0, 66, 0
3, 10847, Note_on_c, 0, 66, 76
3, 10847, Note_on_c, 0, 71, 104
3, 10847, Note_on_c, 0, 74, 104
3, 10880, Note_off_c, 0, 74, 0
3, 10882, Note_off_c, 0, 71, 0
3, 10888, Note_off_c, 0, 66, 0
3, 10943, Note_on_c, 0, 66, 80
3, 10943, Note_on_c, 0, 71, 104
3, 10943, Note_on_c, 0, 74, 94
3, 10975, Note_off_c, 0, 74, 0
3, 10978, Note_off_c, 0, 71, 0
3, 10981, Note_off_c, 0, 66, 0
3, 11039, Note_on_c, 0, 66, 83
3, 11039, Note_on_c, 0, 71, 94
3, 11039, Note_on_c, 0, 74, 94
3, 11075, Note_off_c, 0, 71, 0
3, 11079, Note_off_c, 0, 74, 0
3, 11085, Note_off_c, 0, 66, 0
3, 11135, Note_on_c, 0, 65, 91
3, 11135, Note_on_c, 0, 68, 104
3, 11135, Note_on_c, 0, 73, 95
3, 11175, Note_off_c, 0, 73, 0
3, 11175, Note_off_c, 0, 65, 0
3, 11176, Note_off_c, 0, 68, 0
3, 11231, Note_on_c, 0, 65, 70
3, 11231, Note_on_c, 0, 68, 71
3, 11231, Note_on_c, 0, 73, 68
3, 11271, Note_off_c, 0, 68, 0
3, 11272, Note_off_c, 0, 65, 0
3, 11274, Note_off_c, 0, 73, 0
3, 11327, Note_on_c, 0, 65, 94
3, 11327, Note_on_c, 0, 68, 100
3, 11368, Note_off_c, 0, 68, 0
3, 11371, Note_off_c, 0, 65, 0
3, 11423, Note_on_c, 0, 62, 86
3, 11423, Note_on_c, 0, 66, 87
3, 11423, Note_on_c, 0, 69, 88
3, 11458, Note_off_c, 0, 69, 0
3, 11458, Note_off_c, 0, 66, 0
3, 11464, Note_off_c, 0, 62, 0
3, 11519, Note_on_c, 0, 62, 73
3, 11519, Note_on_c, 0, 66, 73
3, 11519, Note_on_c, 0, 69, 77
3, 11519, Note_on_c, 0, 74, 86
3, 11555, Note_off_c, 0, 74, 0
3, 11559, Note_off_c, 0, 66, 0
3, 11560, Note_off_c, 0, 69, 0
3, 11562, Note_off_c, 0, 62, 0
3, 11615, Note_on_c, 0, 62, 73
3, 11615, Note_on_c, 0, 66, 73
3, 11615, Note_on_c, 0, 69, 75
3, 11615, Note_on_c, 0, 74, 64
3, 11647, Note_off_c, 0, 74, 0
3, 11653, Note_off_c, 0, 66, 0
3, 11655, Note_off_c, 0, 69, 0
3, 11658, Note_off_c, 0, 62, 0
3, 11711, Note_on_c, 0, 62, 75
3, 11711, Note_on_c, 0, 66, 76
3, 11711, Note_on_c, 0, 69, 83
3, 11711, Note_on_c, 0, 74, 73
3, 11749, Note_off_c, 0, 74, 0
3, 11749, Note_off_c, 0, 66, 0
3, 11751, Note_off_c, 0, 62, 0
3, 11751, Note_off_c, 0, 69, 0
3, 11807, Note_on_c, 0, 62, 71
3, 11807, Note_on_c, 0, 66, 76
3, 11807, Note_on_c, 0, 69, 79
3, 11807, Note_on_c, 0, 74, 67
3, 11842, Note_off_c, 0, 74, 0
3, 11845, Note_off_c, 0, 69, 0
3, 11845, Note_off_c, 0, 66, 0
3, 11847, Note_off_c, 0, 62, 0
3, 11903, Note_on_c, 0, 62, 77
3, 11903, Note_on_c, 0, 66, 80
3, 11903, Note_on_c, 0, 69, 83
3, 11903, Note_on_c, 0, 74, 77
3, 11939, Note_off_c, 0, 74, 0
3, 11944, Note_off_c, 0, 69, 0
3, 11944, Note_off_c, 0, 66, 0
3, 11947, Note_off_c, 0, 62, 0
3, 11999, Note_on_c, 0, 62, 68
3, 11999, Note_on_c, 0, 66, 68
3, 11999, Note_on_c, 0, 69, 73
3, 11999, Note_on_c, 0, 74, 79
3, 12035, Note_off_c, 0, 74, 0
3, 12039, Note_off_c, 0, 69, 0
3, 12040, Note_off_c, 0, 66, 0
3, 12043, Note_off_c, 0, 62, 0
3, 12095, Note_on_c, 0, 62, 75
3, 12095, Note_on_c, 0, 66, 76
3, 12095, Note_on_c, 0, 69, 79
3, 12095, Note_on_c, 0, 74, 81
3, 12128, Note_off_c, 0, 74, 0
3, 12136, Note_off_c, 0, 69, 0
3, 12136, Note_off_c, 0, 66, 0
3, 12143, Note_off_c, 0, 62, 0
3, 12191, Note_on_c, 0, 62, 77
3, 12191, Note_on_c, 0, 66, 73
3, 12191, Note_on_c, 0, 69, 79
3, 12191, Note_on_c, 0, 74, 79
3, 12221, Note_off_c, 0, 74, 0
3, 12231, Note_off_c, 0, 62, 0
3, 12232, Note_off_c, 0, 66, 0
3, 12237, Note_off_c, 0, 69, 0
3, 12287, Note_on_c, 0, 69, 122
3, 12287, Note_on_c, 0, 73, 104
3, 12287, Note_on_c, 0, 76, 117
3, 12314, Note_off_c, 0, 76, 0
3, 12315, Note_off_c, 0, 69, 0
3, 12319, Note_off_c, 0, 73, 0
3, 12383, Note_on_c, 0, 69, 97
3, 12383, Note_on_c, 0, 73, 91
3, 12383, Note_on_c, 0, 76, 88
3, 12408, Note_off_c, 0, 76, 0
3, 12410, Note_off_c, 0, 73, 0
3, 12411, Note_off_c, 0, 69, 0
3, 12479, Note_on_c, 0, 69, 97
3, 12479, Note_on_c, 0, 73, 87
3, 12479, Note_on_c, 0, 76, 91
3, 12509, Note_off_c, 0, 76, 0
3, 12509, Note_off_c, 0, 73, 0
3, 12512, Note_off_c, 0, 69, 0
3, 12575, Note_on_c, 0, 69, 83
3, 12575, Note_on_c, 0, 73, 76
3, 12575, Note_on_c, 0, 76, 79
3, 12595, Note_off_c, 0, 76, 0
3, 12616, Note_off_c, 0, 69, 0
3, 12621, Note_off_c, 0, 73, 0
3, 12671, Note_on_c, 0, 66, 95
3, 12671, Note_on_c, 0, 69, 117
3, 12671, Note_on_c, 0, 74, 104
3, 12707, Note_off_c, 0, 74, 0
3, 12707, Note_off_c, 0, 66, 0
3, 12714, Note_off_c, 0, 69, 0
3, 12767, Note_on_c, 0, 66, 61
3, 12767, Note_on_c, 0, 69, 83
3, 12767, Note_on_c, 0, 74, 81
3, 12799, Note_off_c, 0, 74, 0
3, 12805, Note_off_c, 0, 69, 0
3, 12810, Note_off_c, 0, 66, 0
3, 12863, Note_on_c, 0, 66, 63
3, 12863, Note_on_c, 0, 69, 86
3, 12863, Note_on_c, 0, 74, 88
3, 12896, Note_off_c, 0, 74, 0
3, 12898, Note_off_c, 0, 69, 0
3, 12906, Note_off_c, 0, 66, 0
3, 12959, Note_on_c, 0, 69, 117
3, 12959, Note_on_c, 0, 73, 95
3, 12959, Note_on_c, 0, 76, 101
3, 12995, Note_off_c, 0, 73, 0
3, 12995, Note_off_c, 0, 69, 0
3, 12999, Note_off_c, 0, 76, 0
3, 13055, Note_on_c, 0, 69, 94
3, 13055, Note_on_c, 0, 73, 76
3, 13055, Note_on_c, 0, 76, 91
3, 13090, Note_off_c, 0, 73, 0
3, 13090, Note_off_c, 0, 69, 0
3, 13091, Note_off_c, 0, 76, 0
3, 13151, Note_on_c, 0, 69, 81
3, 13151, Note_on_c, 0, 73, 63
3, 13151, Note_on_c, 0, 76, 75
3, 13183, Note_off_c, 0, 73, 0
3, 13186, Note_off_c, 0, 76, 0
3, 13189, Note_off_c, 0, 69, 0
3, 13247, Note_on_c, 0, 69, 83
3, 13247, Note_on_c, 0, 73, 71
3, 13247, Note_on_c, 0, 76, 83
3, 13280, Note_off_c, 0, 76, 0
3, 13283, Note_off_c, 0, 69, 0
3, 13287, Note_off_c, 0, 73, 0
3, 13343, Note_on_c, 0, 69, 88
3, 13343, Note_on_c, 0, 73, 80
3, 13343, Note_on_c, 0, 76, 88
3, 13376, Note_off_c, 0, 76, 0
3, 13376, Note_off_c, 0, 73, 0
3, 13378, Note_off_c, 0, 69, 0
3, 13439, Note_on_c, 0, 69, 88
3, 13439, Note_on_c, 0, 73, 71
3, 13439, Note_on_c, 0, 76, 83
3, 13469, Note_off_c, 0, 73, 0
3, 13471, Note_off_c, 0, 76, 0
3, 13472, Note_off_c, 0, 69, 0
3, 13535, Note_on_c, 0, 69, 81
3, 13535, Note_on_c, 0, 73, 68
3, 13535, Note_on_c, 0, 76, 77
3, 13565, Note_off_c, 0, 73, 0
3, 13568, Note_off_c, 0, 76, 0
3, 13573, Note_off_c, 0, 69, 0
3, 13631, Note_on_c, 0, 69, 91
3, 13631, Note_on_c, 0, 73, 76
3, 13631, Note_on_c, 0, 76, 88
3, 13666, Note_off_c, 0, 76, 0
3, 13666, Note_off_c, 0, 73, 0
3, 13666, Note_off_c, 0, 69, 0
3, 13727, Note_on_c, 0, 69, 94
3, 13727, Note_on_c, 0, 73, 80
3, 13727, Note_on_c, 0, 76, 91
3, 13759, Note_off_c, 0, 73, 0
3, 13759, Note_off_c, 0, 69, 0
3, 13763, Note_off_c, 0, 76, 0
3, 19967, Note_on_c, 0, 64, 83
3, 19967, Note_on_c, 0, 69, 101
3, 19967, Note_on_c, 0, 73, 68
3, 20002, Note_off_c, 0, 73, 0
3, 20002, Note_off_c, 0, 64, 0
3, 20005, Note_off_c, 0, 69, 0
3, 20063, Note_on_c, 0, 64, 67
3, 20063, Note_on_c, 0, 69, 81
3, 20063, Note_on_c, 0, 73, 63
3, 20095, Note_off_c, 0, 73, 0
3, 20103, Note_off_c, 0, 64, 0
3, 20104, Note_off_c, 0, 69, 0
3, 20159, Note_on_c, 0, 64, 71
3, 20159, Note_on_c, 0, 69, 83
3, 20159, Note_on_c, 0, 73, 63
3, 20200, Note_off_c, 0, 73, 0
3, 20200, Note_off_c, 0, 64, 0
3, 20203, Note_off_c, 0, 69, 0
3, 20255, Note_on_c, 0, 64, 71
3, 20255, Note_on_c, 0, 69, 75
3, 20255, Note_on_c, 0, 73, 63
3, 20291, Note_off_c, 0, 73, 0
3, 20299, Note_off_c, 0, 69, 0
3, 20301, Note_off_c, 0, 64, 0
3, 20351, Note_on_c, 0, 64, 77
3, 20351, Note_on_c, 0, 68, 83
3, 20351, Note_on_c, 0, 71, 86
3, 20391, Note_off_c, 0, 68, 0
3, 20392, Note_off_c, 0, 64, 0
3, 20395, Note_off_c, 0, 71, 0
3, 20447, Note_on_c, 0, 64, 68
3, 20447, Note_on_c, 0, 68, 71
3, 20447, Note_on_c, 0, 71, 79
3, 20485, Note_off_c, 0, 71, 0
3, 20485, Note_off_c, 0, 64, 0
3, 20488, Note_off_c, 0, 68, 0
3, 20543, Note_on_c, 0, 64, 77
3, 20543, Note_on_c, 0, 68, 80
3, 20543, Note_on_c, 0, 71, 86
3, 20581, Note_off_c, 0, 71, 0
3, 20583, Note_off_c, 0, 64, 0
3, 20586, Note_off_c, 0, 68, 0
3, 20639, Note_on_c, 0, 61, 83
3, 20639, Note_on_c, 0, 66, 100
3, 20639, Note_on_c, 0, 70, 91
3, 20666, Note_off_c, 0, 66, 0
3, 20669, Note_off_c, 0, 61, 0
3, 20674, Note_off_c, 0, 70, 0
3, 20735, Note_on_c, 0, 61, 47
3, 20735, Note_on_c, 0, 66, 68
3, 20735, Note_on_c, 0, 70, 68
3, 20767, Note_off_c, 0, 66, 0
3, 20771, Note_off_c, 0, 70, 0
3, 20776, Note_off_c, 0, 61, 0
3, 20831, Note_on_c, 0, 61, 59
3, 20831, Note_on_c, 0, 66, 63
3, 20831, Note_on_c, 0, 70, 63
3, 20864, Note_off_c, 0, 70, 0
3, 20864, Note_off_c, 0, 66, 0
3, 20867, Note_off_c, 0, 61, 0
3, 20927, Note_on_c, 0, 61, 59
3, 20927, Note_on_c, 0, 66, 68
3, 20927, Note_on_c, 0, 70, 65
3, 20965, Note_off_c, 0, 66, 0
3, 20967, Note_off_c, 0, 61, 0
3, 20968, Note_off_c, 0, 70, 0
3, 21023, Note_on_c, 0, 61, 63
3, 21023, Note_on_c, 0, 66, 73
3, 21023, Note_on_c, 0, 70, 68
3, 21063, Note_off_c, 0, 70, 0
3, 21063, Note_off_c, 0, 66, 0
3, 21064, Note_off_c, 0, 61, 0
3, 21119, Note_on_c, 0, 61, 59
3, 21119, Note_on_c, 0, 66, 68
3, 21119, Note_on_c, 0, 70, 68
3, 21157, Note_off_c, 0, 66, 0
3, 21157, Note_off_c, 0, 61, 0
3, 21159, Note_off_c, 0, 70, 0
3, 21215, Note_on_c, 0, 61, 63
3, 21215, Note_on_c, 0, 66, 71
3, 21215, Note_on_c, 0, 70, 68
3, 21253, Note_off_c, 0, 66, 0
3, 21255, Note_off_c, 0, 61, 0
3, 21258, Note_off_c, 0, 70, 0
3, 21311, Note_on_c, 0, 61, 63
3, 21311, Note_on_c, 0, 66, 76
3, 21311, Note_on_c, 0, 70, 65
3, 21352, Note_off_c, 0, 66, 0
3, 21354, Note_off_c, 0, 61, 0
3, 21355, Note_off_c, 0, 70, 0
3, 21407, Note_on_c, 0, 61, 50
3, 21407, Note_on_c, 0, 66, 65
3, 21407, Note_on_c, 0, 70, 59
3, 21440, Note_off_c, 0, 66, 0
3, 21440, Note_off_c, 0, 61, 0
3, 21445, Note_off_c, 0, 70, 0
3, 21503, Note_on_c, 0, 64, 83
3, 21503, Note_on_c, 0, 69, 101
3, 21503, Note_on_c, 0, 73, 68
3, 21538, Note_off_c, 0, 73, 0
3, 21538, Note_off_c, 0, 64, 0
3, 21541, Note_off_c, 0, 69, 0
3, 21599, Note_on_c, 0, 64, 67
3, 21599, Note_on_c, 0, 69, 81
3, 21599, Note_on_c, 0, 73, 63
3, 21631, Note_off_c, 0, 73, 0
3, 21639, Note_off_c, 0, 64, 0
3, 21640, Note_off_c, 0, 69, 0
3, 21695, Note_on_c, 0, 64, 71
3, 21695, Note_on_c, 0, 69, 83
3, 21695, Note_on_c, 0, 73, 63
3, 21736, Note_off_c, 0, 73, 0
3, 21736, Note_off_c, 0, 64, 0
3, 21739, Note_off_c, 0, 69, 0
3, 21791, Note_on_c, 0, 64, 71
3, 21791, Note_on_c, 0, 69, 75
3, 21791, Note_on_c, 0, 73, 63
3, 21827, Note_off_c, 0, 73, 0
3, 21835, Note_off_c, 0, 69, 0
3, 21837, Note_off_c, 0, 64, 0
3, 21887, Note_on_c, 0, 64, 77
3, 21887, Note_on_c, 0, 68, 83
3, 21887, Note_on_c, 0, 71, 86
3, 21927, Note_off_c, 0, 68, 0
3, 21928, Note_off_c, 0, 64, 0
3, 21931, Note_off_c, 0, 71, 0
3, 21983, Note_on_c, 0, 64, 68
3, 21983, Note_on_c, 0, 68, 71
3, 21983, Note_on_c, 0, 71, 79
3, 22021, Note_off_c, 0, 71, 0
3, 22021, Note_off_c, 0, 64, 0
3, 22024, Note_off_c, 0, 68, 0
3, 22079, Note_on_c, 0, 64, 77
3, 22079, Note_on_c, 0, 68, 80
3, 22079, Note_on_c, 0, 71, 86
3, 22117, Note_off_c, 0, 71, 0
3, 22119, Note_off_c, 0, 64, 0
3, 22122, Note_off_c, 0, 68, 0
3, 22175, Note_on_c, 0, 61, 83
3, 22175, Note_on_c, 0, 66, 100
3, 22175, Note_on_c, 0, 70, 91
3, 22202, Note_off_c, 0, 66, 0
3, 22205, Note_off_c, 0, 61, 0
3, 22210, Note_off_c, 0, 70, 0
3, 22271, Note_on_c, 0, 61, 47
3, 22271, Note_on_c, 0, 66, 68
3, 22271, Note_on_c, 0, 70, 68
3, 22303, Note_off_c, 0, 66, 0
3, 22307, Note_off_c, 0, 70, 0
3, 22312, Note_off_c, 0, 61, 0
3, 22367, Note_on_c, 0, 61, 59
3, 22367, Note_on_c, 0, 66, 63
3, 22367, Note_on_c, 0, 70, 63
3, 22400, Note_off_c, 0, 70, 0
3, 22400, Note_off_c, 0, 66, 0
3, 22403, Note_off_c, 0, 61, 0
3, 22463, Note_on_c, 0, 61, 59
3, 22463, Note_on_c, 0, 66, 68
3, 22463, Note_on_c, 0, 70, 65
3, 22501, Note_off_c, 0, 66, 0
3, 22503, Note_off_c, 0, 61, 0
3, 22504, Note_off_c, 0, 70, 0
3, 22559, Note_on_c, 0, 61, 63
3, 22559, Note_on_c, 0, 66, 73
3, 22559, Note_on_c, 0, 70, 68
3, 22599, Note_off_c, 0, 70, 0
3, 22599, Note_off_c, 0, 66, 0
3, 22600, Note_off_c, 0, 61, 0
3, 22655, Note_on_c, 0, 61, 59
3, 22655, Note_on_c, 0, 66, 68
3, 22655, Note_on_c, 0, 70, 68
3, 22693, Note_off_c, 0, 66, 0
3, 22693, Note_off_c, 0, 61, 0
3, 22695, Note_off_c, 0, 70, 0
3, 22751, Note_on_c, 0, 61, 63
3, 22751, Note_on_c, 0, 66, 71
3, 22751, Note_on_c, 0, 70, 68
3, 22789, Note_off_c, 0, 66, 0
3, 22791, Note_off_c, 0, 61, 0
3, 22794, Note_off_c, 0, 70, 0
3, 22847, Note_on_c, 0, 61, 63
3, 22847, Note_on_c, 0, 66, 76
3, 22847, Note_on_c, 0, 70, 65
3, 22888, Note_off_c, 0, 66, 0
3, 22890, Note_off_c, 0, 61, 0
3, 22891, Note_off_c, 0, 70, 0
3, 22943, Note_on_c, 0, 61, 50
3, 22943, Note_on_c, 0, 66, 65
3, 22943, Note_on_c, 0, 70, 59
3, 22976, Note_off_c, 0, 66, 0
3, 22976, Note_off_c, 0, 61, 0
3, 22981, Note_off_c, 0, 70, 0
3, 32255, Note_on_c, 0, 64, 83
3, 32255, Note_on_c, 0, 69, 101
3, 32255, Note_on_c, 0, 73, 68
3, 32290, Note_off_c, 0, 73, 0
3, 32290, Note_off_c, 0, 64, 0
3, 32293, Note_off_c, 0, 69, 0
3, 32351, Note_on_c, 0, 64, 67
3, 32351, Note_on_c, 0, 69, 81
3, 32351, Note_on_c, 0, 73, 63
3, 32383, Note_off_c, 0, 73, 0
3, 32391, Note_off_c, 0, 64, 0
3, 32392, Note_off_c, 0, 69, 0
3, 32447, Note_on_c, 0, 64, 71
3, 32447, Note_on_c, 0, 69, 83
3, 32447, Note_on_c, 0, 73, 63
3, 32488, Note_off_c, 0, 73, 0
3, 32488, Note_off_c, 0, 64, 0
3, 32491, Note_off_c, 0, 69, 0
3, 32543, Note_on_c, 0, 64, 71
3, 32543, Note_on_c, 0, 69, 75
3, 32543, Note_on_c, 0, 73, 63
3, 32579, Note_off_c, 0, 73, 0
3, 32587, Note_off_c, 0, 69, 0
3, 32589, Note_off_c, 0, 64, 0
3, 32639, Note_on_c, 0, 64, 77
3, 32639, Note_on_c, 0, 68, 83
3, 32639, Note_on_c, 0, 71, 86
3, 32679, Note_off_c, 0, 68, 0
3, 32680, Note_off_c, 0, 64, 0
3, 32683, Note_off_c, 0, 71, 0
3, 32735, Note_on_c, 0, 64, 68
3, 32735, Note_on_c, 0, 68, 71
3, 32735, Note_on_c, 0, 71, 79
3, 32773, Note_off_c, 0, 71, 0
3, 32773, Note_off_c, 0, 64, 0
3, 32776, Note_off_c, 0, 68, 0
3, 32831, Note_on_c, 0, 64, 77
3, 32831, Note_on_c, 0, 68, 80
3, 32831, Note_on_c, 0, 71, 86
3, 32869, Note_off_c, 0, 71, 0
3, 32871, Note_off_c, 0, 64, 0
3, 32874, Note_off_c, 0, 68, 0
3, 32927, Note_on_c, 0, 61, 83
3, 32927, Note_on_c, 0, 66, 100
3, 32927, Note_on_c, 0, 70, 91
3, 32954, Note_off_c, 0, 66, 0
3, 32957, Note_off_c, 0, 61, 0
3, 32962, Note_off_c, 0, 70, 0
3, 33023, Note_on_c, 0, 61, 47
3, 33023, Note_on_c, 0, 66, 68
3, 33023, Note_on_c, 0, 70, 68
3, 33055, Note_off_c, 0, 66, 0
3, 33059, Note_off_c, 0, 70, 0
3, 33064, Note_off_c, 0, 61, 0
3, 33119, Note_on_c, 0, 61, 59
3, 33119, Note_on_c, 0, 66, 63
3, 33119, Note_on_c, 0, 70, 63
3, 33152, Note_off_c, 0, 70, 0
3, 33152, Note_off_c, 0, 66, 0
3, 33155, Note_off_c, 0, 61, 0
3, 33215, Note_on_c, 0, 61, 59
3, 33215, Note_on_c, 0, 66, 68
3, 33215, Note_on_c, 0, 70, 65
3, 33253, Note_off_c, 0, 66, 0
3, 33255, Note_off_c, 0, 61, 0
3, 33256, Note_off_c, 0, 70, 0
3, 33311, Note_on_c, 0, 61, 63
3, 33311, Note_on_c, 0, 66, 73
3, 33311, Note_on_c, 0, 70, 68
3, 33351, Note_off_c, 0, 70, 0
3, 33351, Note_off_c, 0, 66, 0
3, 33352, Note_off_c, 0, 61, 0
3, 33407, Note_on_c, 0, 61, 59
3, 33407, Note_on_c, 0, 66, 68
3, 33407, Note_on_c, 0, 70, 68
3, 33445, Note_off_c, 0, 66, 0
3, 33445, Note_off_c, 0, 61, 0
3, 33447, Note_off_c, 0, 70, 0
3, 33503, Note_on_c, 0, 61, 63
3, 33503, Note_on_c, 0, 66, 71
3, 33503, Note_on_c, 0, 70, 68
3, 33541, Note_off_c, 0, 66, 0
3, 33543, Note_off_c, 0, 61, 0
3, 33546, Note_off_c, 0, 70, 0
3, 33599, Note_on_c, 0, 61, 63
3, 33599, Note_on_c, 0, 66, 76
3, 33599, Note_on_c, 0, 70, 65
3, 33640, Note_off_c, 0, 66, 0
3, 33642, Note_off_c, 0, 61, 0
3, 33643, Note_off_c, 0, 70, 0
3, 33695, Note_on_c, 0, 61, 50
3, 33695, Note_on_c, 0, 66, 65
3, 33695, Note_on_c, 0, 70, 59
3, 33728, Note_off_c, 0, 66, 0
3, 33728, Note_off_c, 0, 61, 0
3, 33733, Note_off_c, 0, 70, 0
3, 33791, Note_on_c, 0, 64, 83
3, 33791, Note_on_c, 0, 69, 101
3, 33791, Note_on_c, 0, 73, 68
3, 33826, Note_off_c, 0, 73, 0
3, 33826, Note_off_c, 0, 64, 0
3, 33829, Note_off_c, 0, 69, 0
3, 33887, Note_on_c, 0, 64, 67
3, 33887, Note_on_c, 0, 69, 81
3, 33887, Note_on_c, 0, 73, 63
3, 33919, Note_off_c, 0, 73, 0
3, 33927, Note_off_c, 0, 64, 0
3, 33928, Note_off_c, 0, 69, 0
3, 33983, Note_on_c, 0, 64, 71
3, 33983, Note_on_c, 0, 69, 83
3, 33983, Note_on_c, 0, 73, 63
3, 34024, Note_off_c, 0, 73, 0
3, 34024, Note_off_c, 0, 64, 0
3, 34027, Note_off_c, 0, 69, 0
3, 34079, Note_on_c, 0, 64, 71
3, 34079, Note_on_c, 0, 69, 75
3, 34079, Note_on_c, 0, 73, 63
3, 34115, Note_off_c, 0, 73, 0
3, 34123, Note_off_c, 0, 69, 0
3, 34125, Note_off_c, 0, 64, 0
3, 34175, Note_on_c, 0, 64, 77
3, 34175, Note_on_c, 0, 68, 83
3, 34175, Note_on_c, 0, 71, 86
3, 34215, Note_off_c, 0, 68, 0
3, 34216, Note_off_c, 0, 64, 0
3, 34219, Note_off_c, 0, 71, 0
3, 34271, Note_on_c, 0, 64, 68
3, 34271, Note_on_c, 0, 68, 71
3, 34271, Note_on_c, 0, 71, 79
3, 34309, Note_off_c, 0, 71, 0
3, 34309, Note_off_c, 0, 64, 0
3, 34312, Note_off_c, 0, 68, 0
3, 34367, Note_on_c, 0, 64, 77
3, 34367, Note_on_c, 0, 68, 80
3, 34367, Note_on_c, 0, 71, 86
3, 34405, Note_off_c, 0, 71, 0
3, 34407, Note_off_c, 0, 64, 0
3, 34410, Note_off_c, 0, 68, 0
3, 34463, Note_on_c, 0, 61, 83
3, 34463, Note_on_c, 0, 66, 100
3, 34463, Note_on_c, 0, 70, 91
3, 34490, Note_off_c, 0, 66, 0
3, 34493, Note_off_c, 0, 61, 0
3, 34498, Note_off_c, 0, 70, 0
3, 34559, Note_on_c, 0, 61, 47
3, 34559, Note_on_c, 0, 66, 68
3, 34559, Note_on_c, 0, 70, 68
3, 34591, Note_off_c, 0, 66, 0
3, 34595, Note_off_c, 0, 70, 0
3, 34600, Note_off_c, 0, 61, 0
3, 34655, Note_on_c, 0, 61, 59
3, 34655, Note_on_c, 0, 66, 63
3, 34655, Note_on_c, 0, 70, 63
3, 34688, Note_off_c, 0, 70, 0
3, 34688, Note_off_c, 0, 66, 0
3, 34691, Note_off_c, 0, 61, 0
3, 34751, Note_on_c, 0, 61, 59
3, 34751, Note_on_c, 0, 66, 68
3, 34751, Note_on_c, 0, 70, 65
3, 34789, Note_off_c, 0, 66, 0
3, 34791, Note_off_c, 0, 61, 0
3, 34792, Note_off_c, 0, 70, 0
3, 34847, Note_on_c, 0, 61, 63
3, 34847, Note_on_c, 0, 66, 73
3, 34847, Note_on_c, 0, 70, 68
3, 34887, Note_off_c, 0, 70, 0
3, 34887, Note_off_c, 0, 66, 0
3, 34888, Note_off_c, 0, 61, 0
3, 34943, Note_on_c, 0, 61, 59
3, 34943, Note_on_c, 0, 66, 68
3, 34943, Note_on_c, 0, 70, 68
3, 34981, Note_off_c, 0, 66, 0
3, 34981, Note_off_c, 0, 61, 0
3, 34983, Note_off_c, 0, 70, 0
3, 35039, Note_on_c, 0, 61, 63
3, 35039, Note_on_c, 0, 66, 71
3, 35039, Note_on_c, 0, 70, 68
3, 35077, Note_off_c, 0, 66, 0
3, 35079, Note_off_c, 0, 61, 0
3, 35082, Note_off_c, 0, 70, 0
3, 35135, Note_on_c, 0, 61, 63
3, 35135, Note_on_c, 0, 66, 76
3, 35135, Note_on_c, 0, 70, 65
3, 35176, Note_off_c, 0, 66, 0
3, 35178, Note_off_c, 0, 61, 0
3, 35179, Note_off_c, 0, 70, 0
3, 35231, Note_on_c, 0, 61, 50
3, 35231, Note_on_c, 0, 66, 65
3, 35231, Note_on_c, 0, 70, 59
3, 35264, Note_off_c, 0, 66, 0
3, 35264, Note_off_c, 0, 61, 0
3, 35269, Note_off_c, 0, 70, 0
3, 41471, Note_on_c, 0, 64, 83
3, 41471, Note_on_c, 0, 69, 101
3, 41471, Note_on_c, 0, 73, 68
3, 41506, Note_off_c, 0, 73, 0
3, 41506, Note_off_c, 0, 64, 0
3, 41509, Note_off_c, 0, 69, 0
3, 41567, Note_on_c, 0, 64, 67
3, 41567, Note_on_c, 0, 69, 81
3, 41567, Note_on_c, 0, 73, 63
3, 41599, Note_off_c, 0, 73, 0
3, 41607, Note_off_c, 0, 64, 0
3, 41608, Note_off_c, 0, 69, 0
3, 41663, Note_on_c, 0, 64, 71
3, 41663, Note_on_c, 0, 69, 83
3, 41663, Note_on_c, 0, 73, 63
3, 41704, Note_off_c, 0, 73, 0
3, 41704, Note_off_c, 0, 64, 0
3, 41707, Note_off_c, 0, 69, 0
3, 41759, Note_on_c, 0, 64, 71
3, 41759, Note_on_c, 0, 69, 75
3, 41759, Note_on_c, 0, 73, 63
3, 41795, Note_off_c, 0, 73, 0
3, 41803, Note_off_c, 0, 69, 0
3, 41805, Note_off_c, 0, 64, 0
3, 41855, Note_on_c, 0, 64, 77
3, 41855, Note_on_c, 0, 68, 83
3, 41855, Note_on_c, 0, 71, 86
3, 41895, Note_off_c, 0, 68, 0
3, 41896, Note_off_c, 0, 64, 0
3, 41899, Note_off_c, 0, 71, 0
3, 41951, Note_on_c, 0, 64, 68
3, 41951, Note_on_c, 0, 68, 71
3, 41951, Note_on_c, 0, 71, 79
3, 41989, Note_off_c, 0, 71, 0
3, 41989, Note_off_c, 0, 64, 0
3, 41992, Note_off_c, 0, 68, 0
3, 42047, Note_on_c, 0, 64, 77
3, 42047, Note_on_c, 0, 68, 80
3, 42047, Note_on_c, 0, 71, 86
3, 42085, Note_off_c, 0, 71, 0
3, 42087, Note_off_c, 0, 64, 0
3, 42090, Note_off_c, 0, 68, 0
3, 42143, Note_on_c, 0, 61, 83
3, 42143, Note_on_c, 0, 66, 100
3, 42143, Note_on_c, 0, 70, 91
3, 42170, Note_off_c, 0, 66, 0
3, 42173, Note_off_c, 0, 61, 0
3, 42178, Note_off_c, 0, 70, 0
3, 42239, Note_on_c, 0, 61, 47
3, 42239, Note_on_c, 0, 66, 68
3, 42239, Note_on_c, 0, 70, 68
3, 42271, Note_off_c, 0, 66, 0
3, 42275, Note_off_c, 0, 70, 0
3, 42280, Note_off_c, 0, 61, 0
3, 42335, Note_on_c, 0, 61, 59
3, 42335, Note_on_c, 0, 66, 63
3, 42335, Note_on_c, 0, 70, 63
3, 42368, Note_off_c, 0, 70, 0
3, 42368, Note_off_c, 0, 66, 0
3, 42371, Note_off_c, 0, 61, 0
3, 42431, Note_on_c, 0, 61, 59
3, 42431, Note_on_c, 0, 66, 68
3, 42431, Note_on_c, 0, 70, 65
3, 42469, Note_off_c, 0, 66, 0
3, 42471, Note_off_c, 0, 61, 0
3, 42472, Note_off_c, 0, 70, 0
3, 42527, Note_on_c, 0, 61, 63
3, 42527, Note_on_c, 0, 66, 73
3, 42527, Note_on_c, 0, 70, 68
3, 42567, Note_off_c, 0, 70, 0
3, 42567, Note_off_c, 0, 66, 0
3, 42568, Note_off_c, 0, 61, 0
3, 42623, Note_on_c, 0, 61, 59
3, 42623, Note_on_c, 0, 66, 68
3, 42623, Note_on_c, 0, 70, 68
3, 42661, Note_off_c, 0, 66, 0
3, 42661, Note_off_c, 0, 61, 0
3, 42663, Note_off_c, 0, 70, 0
3, 42719, Note_on_c, 0, 61, 63
3, 42719, Note_on_c, 0, 66, 71
3, 42719, Note_on_c, 0, 70, 68
3, 42757, Note_off_c, 0, 66, 0
3, 42759, Note_off_c, 0, 61, 0
3, 42762, Note_off_c, 0, 70, 0
3, 42815, Note_on_c, 0, 61, 63
3, 42815, Note_on_c, 0, 66, 76
3, 42815, Note_on_c, 0, 70, 65
3, 42856, Note_off_c, 0, 66, 0
3, 42858, Note_off_c, 0, 61, 0
3, 42859, Note_off_c, 0, 70, 0
3, 42911, Note_on_c, 0, 61, 50
3, 42911, Note_on_c, 0, 66, 65
3, 42911, Note_on_c, 0, 70, 59
3, 42944, Note_off_c, 0, 66, 0
3, 42944, Note_off_c, 0, 61, 0
3, 42949, Note_off_c, 0, 70, 0
3, 43007, Note_on_c, 0, 64, 83
3, 43007, Note_on_c, 0, 69, 101
3, 43007, Note_on_c, 0, 73, 68
3, 43042, Note_off_c, 0, 73, 0
3, 43042, Note_off_c, 0, 64, 0
3, 43045, Note_off_c, 0, 69, 0
3, 43103, Note_on_c, 0, 64, 67
3, 43103, Note_on_c, 0, 69, 81
3, 43103, Note_on_c, 0, 73, 63
3, 43135, Note_off_c, 0, 73, 0
3, 43143, Note_off_c, 0, 64, 0
3, 43144, Note_off_c, 0, 69, 0
3, 43199, Note_on_c, 0, 64, 71
3, 43199, Note_on_c, 0, 69, 83
3, 43199, Note_on_c, 0, 73, 63
3, 43240, Note_off_c, 0, 73, 0
3, 43240, Note_off_c, 0, 64, 0
3, 43243, Note_off_c, 0, 69, 0
3, 43295, Note_on_c, 0, 64, 71
3, 43295, Note_on_c, 0, 69, 75
3, 43295, Note_on_c, 0, 73, 63
3, 43331, Note_off_c, 0, 73, 0
3, 43339, Note_off_c, 0, 69, 0
3, 43341, Note_off_c, 0, 64, 0
3, 43391, Note_on_c, 0, 64, 77
3, 43391, Note_on_c, 0, 68, 83
3, 43391, Note_on_c, 0, 71, 86
3, 43431, Note_off_c, 0, 68, 0
3, 43432, Note_off_c, 0, 64, 0
3, 43435, Note_off_c, 0, 71, 0
3, 43487, Note_on_c, 0, 64, 68
3, 43487, Note_on_c, 0, 68, 71
3, 43487, Note_on_c, 0, 71, 79
3, 43525, Note_off_c, 0, 71, 0
3, 43525, Note_off_c, 0, 64, 0
3, 43528, Note_off_c, 0, 68, 0
3, 43583, Note_on_c, 0, 64, 77
3, 43583, Note_on_c, 0, 68, 80
3, 43583, Note_on_c, 0, 71, 86
3, 43621, Note_off_c, 0, 71, 0
3, 43623, Note_off_c, 0, 64, 0
3, 43626, Note_off_c, 0, 68, 0
3, 43679, Note_on_c, 0, 61, 83
3, 43679, Note_on_c, 0, 66, 100
3, 43679, Note_on_c, 0, 70, 91
3, 43706, Note_off_c, 0, 66, 0
3, 43709, Note_off_c, 0, 61, 0
3, 43714, Note_off_c, 0, 70, 0
3, 43775, Note_on_c, 0, 61, 47
3, 43775, Note_on_c, 0, 66, 68
3, 43775, Note_on_c, 0, 70, 68
3, 43807, Note_off_c, 0, 66, 0
3, 43811, Note_off_c, 0, 70, 0
3, 43816, Note_off_c, 0, 61, 0
3, 43871, Note_on_c, 0, 61, 59
3, 43871, Note_on_c, 0, 66, 63
3, 43871, Note_on_c, 0, 70, 63
3, 43904, Note_off_c, 0, 70, 0
3, 43904, Note_off_c, 0, 66, 0
3, 43907, Note_off_c, 0, 61, 0
3, 43967, Note_on_c, 0, 61, 59
3, 43967, Note_on_c, 0, 66, 68
3, 43967, Note_on_c, 0, 70, 65
3, 44005, Note_off_c, 0, 66, 0
3, 44007, Note_off_c, 0, 61, 0
3, 44008, Note_off_c, 0, 70, 0
3, 44063, Note_on_c, 0, 61, 63
3, 44063, Note_on_c, 0, 66, 73
3, 44063, Note_on_c, 0, 70, 68
3, 44103, Note_off_c, 0, 70, 0
3, 44103, Note_off_c, 0, 66, 0
3, 44104, Note_off_c, 0, 61, 0
3, 44159, Note_on_c, 0, 61, 59
3, 44159, Note_on_c, 0, 66, 68
3, 44159, Note_on_c, 0, 70, 68
3, 44197, Note_off_c, 0, 66, 0
3, 44197, Note_off_c, 0, 61, 0
3, 44199, Note_off_c, 0, 70, 0
3, 44255, Note_on_c, 0, 61, 63
3, 44255, Note_on_c, 0, 66, 71
3, 44255, Note_on_c, 0, 70, 68
3, 44293, Note_off_c, 0, 66, 0
3, 44295, Note_off_c, 0, 61, 0
3, 44298, Note_off_c, 0, 70, 0
3, 44351, Note_on_c, 0, 61, 63
3, 44351, Note_on_c, 0, 66, 76
3, 44351, Note_on_c, 0, 70, 65
3, 44392, Note_off_c, 0, 66, 0
3, 44394, Note_off_c, 0, 61, 0
3, 44395, Note_off_c, 0, 70, 0
3, 44447, Note_on_c, 0, 61, 50
3, 44447, Note_on_c, 0, 66, 65
3, 44447, Note_on_c, 0, 70, 59
3, 44480, Note_off_c, 0, 66, 0
3, 44480, Note_off_c, 0, 61, 0
3, 44485, Note_off_c, 0, 70, 0
3, 53759, Note_on_c, 0, 64, 127
3, 53759, Note_on_c, 0, 69, 127
3, 53759, Note_on_c, 0, 73, 127
3, 53786, Note_off_c, 0, 73, 0
3, 53789, Note_off_c, 0, 69, 0
3, 53791, Note_off_c, 0, 64, 0
3, 53855, Note_on_c, 0, 64, 127
3, 53855, Note_on_c, 0, 69, 127
3, 53855, Note_on_c, 0, 73, 110
3, 53880, Note_off_c, 0, 73, 0
3, 53880, Note_off_c, 0, 69, 0
3, 53883, Note_off_c, 0, 64, 0
3, 53951, Note_on_c, 0, 64, 127
3, 53951, Note_on_c, 0, 69, 127
3, 53951, Note_on_c, 0, 73, 110
3, 53976, Note_off_c, 0, 73, 0
3, 53976, Note_off_c, 0, 69, 0
3, 53986, Note_off_c, 0, 64, 0
3, 54047, Note_on_c, 0, 64, 127
3, 54047, Note_on_c, 0, 69, 127
3, 54047, Note_on_c, 0, 73, 110
3, 54074, Note_off_c, 0, 73, 0
3, 54074, Note_off_c, 0, 69, 0
3, 54080, Note_off_c, 0, 64, 0
3, 54143, Note_on_c, 0, 64, 127
3, 54143, Note_on_c, 0, 68, 110
3, 54143, Note_on_c, 0, 71, 101
3, 54165, Note_off_c, 0, 71, 0
3, 54167, Note_off_c, 0, 68, 0
3, 54176, Note_off_c, 0, 64, 0
3, 54239, Note_on_c, 0, 64, 127
3, 54239, Note_on_c, 0, 68, 110
3, 54239, Note_on_c, 0, 71, 122
3, 54261, Note_off_c, 0, 68, 0
3, 54271, Note_off_c, 0, 64, 0
3, 54272, Note_off_c, 0, 71, 0
3, 54335, Note_on_c, 0, 64, 127
3, 54335, Note_on_c, 0, 68, 110
3, 54335, Note_on_c, 0, 71, 117
3, 54368, Note_off_c, 0, 71, 0
3, 54368, Note_off_c, 0, 68, 0
3, 54375, Note_off_c, 0, 64, 0
3, 54431, Note_on_c, 0, 61, 127
3, 54431, Note_on_c, 0, 66, 127
3, 54431, Note_on_c, 0, 70, 110
3, 54464, Note_off_c, 0, 66, 0
3, 54471, Note_off_c, 0, 70, 0
3, 54472, Note_off_c, 0, 61, 0
3, 54527, Note_on_c, 0, 61, 110
3, 54527, Note_on_c, 0, 66, 95
3, 54527, Note_on_c, 0, 70, 87
3, 54549, Note_off_c, 0, 70, 0
3, 54552, Note_off_c, 0, 66, 0
3, 54562, Note_off_c, 0, 61, 0
3, 54623, Note_on_c, 0, 61, 104
3, 54623, Note_on_c, 0, 66, 110
3, 54623, Note_on_c, 0, 70, 100
3, 54648, Note_off_c, 0, 70, 0
3, 54650, Note_off_c, 0, 66, 0
3, 54655, Note_off_c, 0, 61, 0
3, 54719, Note_on_c, 0, 61, 100
3, 54719, Note_on_c, 0, 66, 104
3, 54719, Note_on_c, 0, 70, 100
3, 54744, Note_off_c, 0, 66, 0
3, 54751, Note_off_c, 0, 70, 0
3, 54754, Note_off_c, 0, 61, 0
3, 54815, Note_on_c, 0, 61, 104
3, 54815, Note_on_c, 0, 66, 110
3, 54815, Note_on_c, 0, 70, 104
3, 54842, Note_off_c, 0, 66, 0
3, 54845, Note_off_c, 0, 70, 0
3, 54848, Note_off_c, 0, 61, 0
3, 54911, Note_on_c, 0, 61, 104
3, 54911, Note_on_c, 0, 66, 104
3, 54911, Note_on_c, 0, 70, 104
3, 54935, Note_off_c, 0, 66, 0
3, 54943, Note_off_c, 0, 70, 0
3, 54946, Note_off_c, 0, 61, 0
3, 55007, Note_on_c, 0, 61, 104
3, 55007, Note_on_c, 0, 66, 104
3, 55007, Note_on_c, 0, 70, 104
3, 55034, Note_off_c, 0, 66, 0
3, 55037, Note_off_c, 0, 70, 0
3, 55042, Note_off_c, 0, 61, 0
3, 55103, Note_on_c, 0, 61, 104
3, 55103, Note_on_c, 0, 66, 104
3, 55103, Note_on_c, 0, 70, 104
3, 55128, Note_off_c, 0, 66, 0
3, 55133, Note_off_c, 0, 70, 0
3, 55136, Note_off_c, 0, 61, 0
3, 55199, Note_on_c, 0, 61, 110
3, 55199, Note_on_c, 0, 66, 127
3, 55199, Note_on_c, 0, 70, 110
3, 55223, Note_off_c, 0, 66, 0
3, 55227, Note_off_c, 0, 70, 0
3, 55231, Note_off_c, 0, 61, 0
3, 55295, Note_on_c, 0, 64, 127
3, 55295, Note_on_c, 0, 69, 127
3, 55295, Note_on_c, 0, 73, 127
3, 55322, Note_off_c, 0, 73, 0
3, 55325, Note_off_c, 0, 69, 0
3, 55327, Note_off_c, 0, 64, 0
3, 55391, Note_on_c, 0, 64, 127
3, 55391, Note_on_c, 0, 69, 127
3, 55391, Note_on_c, 0, 73, 110
3, 55416, Note_off_c, 0, 73, 0
3, 55416, Note_off_c, 0, 69, 0
3, 55419, Note_off_c, 0, 64, 0
3, 55487, Note_on_c, 0, 64, 127
3, 55487, Note_on_c, 0, 69, 127
3, 55487, Note_on_c, 0, 73, 110
3, 55512, Note_off_c, 0, 73, 0
3, 55512, Note_off_c, 0, 69, 0
3, 55522, Note_off_c, 0, 64, 0
3, 55583, Note_on_c, 0, 64, 127
3, 55583, Note_on_c, 0, 69, 127
3, 55583, Note_on_c, 0, 73, 110
3, 55610, Note_off_c, 0, 73, 0
3, 55610, Note_off_c, 0, 69, 0
3, 55616, Note_off_c, 0, 64, 0
3, 55679, Note_on_c, 0, 64, 127
3, 55679, Note_on_c, 0, 68, 110
3, 55679, Note_on_c, 0, 71, 101
3, 55701, Note_off_c, 0, 71, 0
3, 55703, Note_off_c, 0, 68, 0
3, 55712, Note_off_c, 0, 64, 0
3, 55775, Note_on_c, 0, 64, 127
3, 55775, Note_on_c, 0, 68, 110
3, 55775, Note_on_c, 0, 71, 122
3, 55797, Note_off_c, 0, 68, 0
3, 55807, Note_off_c, 0, 64, 0
3, 55808, Note_off_c, 0, 71, 0
3, 55871, Note_on_c, 0, 64, 127
3, 55871, Note_on_c, 0, 68, 110
3, 55871, Note_on_c, 0, 71, 117
3, 55904, Note_off_c, 0, 71, 0
3, 55904, Note_off_c, 0, 68, 0
3, 55911, Note_off_c, 0, 64, 0
3, 55967, Note_on_c, 0, 61, 127
3, 55967, Note_on_c, 0, 66, 127
3, 55967, Note_on_c, 0, 70, 110
3, 56000, Note_off_c, 0, 66, 0
3, 56007, Note_off_c, 0, 70, 0
3, 56008, Note_off_c, 0, 61, 0
3, 56063, Note_on_c, 0, 61, 110
3, 56063, Note_on_c, 0, 66, 95
3, 56063, Note_on_c, 0, 70, 87
3, 56085, Note_off_c, 0, 70, 0
3, 56088, Note_off_c, 0, 66, 0
3, 56098, Note_off_c, 0, 61, 0
3, 56159, Note_on_c, 0, 61, 104
3, 56159, Note_on_c, 0, 66, 110
3, 56159, Note_on_c, 0, 70, 100
3, 56184, Note_off_c, 0, 70, 0
3, 56186, Note_off_c, 0, 66, 0
3, 56191, Note_off_c, 0, 61, 0
3, 56255, Note_on_c, 0, 61, 100
3, 56255, Note_on_c, 0, 66, 104
3, 56255, Note_on_c, 0, 70, 100
3, 56280, Note_off_c, 0, 66, 0
3, 56287, Note_off_c, 0, 70, 0
3, 56290, Note_off_c, 0, 61, 0
3, 56351, Note_on_c, 0, 61, 104
3, 56351, Note_on_c, 0, 66, 110
3, 56351, Note_on_c, 0, 70, 104
3, 56378, Note_off_c, 0, 66, 0
3, 56381, Note_off_c, 0, 70, 0
3, 56384, Note_off_c, 0, 61, 0
3, 56447, Note_on_c, 0, 61, 104
3, 56447, Note_on_c, 0, 66, 104
3, 56447, Note_on_c, 0, 70, 104
3, 56471, Note_off_c, 0, 66, 0
3, 56479, Note_off_c, 0, 70, 0
3, 56482, Note_off_c, 0, 61, 0
3, 56543, Note_on_c, 0, 61, 104
3, 56543, Note_on_c, 0, 66, 104
3, 56543, Note_on_c, 0, 70, 104
3, 56570, Note_off_c, 0, 66, 0
3, 56573, Note_off_c, 0, 70, 0
3, 56578, Note_off_c, 0, 61, 0
3, 56639, Note_on_c, 0, 61, 104
3, 56639, Note_on_c, 0, 66, 104
3, 56639, Note_on_c, 0, 70, 104
3, 56664, Note_off_c, 0, 66, 0
3, 56669, Note_off_c, 0, 70, 0
3, 56672, Note_off_c, 0, 61, 0
3, 56735, Note_on_c, 0, 61, 110
3, 56735, Note_on_c, 0, 66, 127
3, 56735, Note_on_c, 0, 70, 110
3, 56759, Note_off_c, 0, 66, 0
3, 56763, Note_off_c, 0, 70, 0
3, 56767, Note_off_c, 0, 61, 0
3, 69119, Note_on_c, 0, 64, 83
3, 69119, Note_on_c, 0, 69, 101
3, 69119, Note_on_c, 0, 73, 68
3, 69154, Note_off_c, 0, 73, 0
3, 69154, Note_off_c, 0, 64, 0
3, 69157, Note_off_c, 0, 69, 0
3, 69215, Note_on_c, 0, 64, 67
3, 69215, Note_on_c, 0, 69, 81
3, 69215, Note_on_c, 0, 73, 63
3, 69247, Note_off_c, 0, 73, 0
3, 69255, Note_off_c, 0, 64, 0
3, 69256, Note_off_c, 0, 69, 0
3, 69311, Note_on_c, 0, 64, 71
3, 69311, Note_on_c, 0, 69, 83
3, 69311, Note_on_c, 0, 73, 63
3, 69352, Note_off_c, 0, 73, 0
3, 69352, Note_off_c, 0, 64, 0
3, 69355, Note_off_c, 0, 69, 0
3, 69407, Note_on_c, 0, 64, 71
3, 69407, Note_on_c, 0, 69, 75
3, 69407, Note_on_c, 0, 73, 63
3, 69443, Note_off_c, 0, 73, 0
3, 69451, Note_off_c, 0, 69, 0
3, 69453, Note_off_c, 0, 64, 0
3, 69503, Note_on_c, 0, 64, 77
3, 69503, Note_on_c, 0, 68, 83
3, 69503, Note_on_c, 0, 71, 86
3, 69543, Note_off_c, 0, 68, 0
3, 69544, Note_off_c, 0, 64, 0
3, 69547, Note_off_c, 0, 71, 0
3, 69599, Note_on_c, 0, 64, 68
3, 69599, Note_on_c, 0, 68, 71
3, 69599, Note_on_c, 0, 71, 79
3, 69637, Note_off_c, 0, 71, 0
3, 69637, Note_off_c, 0, 64, 0
3, 69640, Note_off_c, 0, 68, 0
3, 69695, Note_on_c, 0, 64, 77
3, 69695, Note_on_c, 0, 68, 80
3, 69695, Note_on_c, 0, 71, 86
3, 69733, Note_off_c, 0, 71, 0
3, 69735, Note_off_c, 0, 64, 0
3, 69738, Note_off_c, 0, 68, 0
3, 69791, Note_on_c, 0, 61, 83
3, 69791, Note_on_c, 0, 66, 100
3, 69791, Note_on_c, 0, 70, 91
3, 69818, Note_off_c, 0, 66, 0
3, 69821, Note_off_c, 0, 61, 0
3, 69826, Note_off_c, 0, 70, 0
3, 69887, Note_on_c, 0, 61, 47
3, 69887, Note_on_c, 0, 66, 68
3, 69887, Note_on_c, 0, 70, 68
3, 69919, Note_off_c, 0, 66, 0
3, 69923, Note_off_c, 0, 70, 0
3, 69928, Note_off_c, 0, 61, 0
3, 69983, Note_on_c, 0, 61, 59
3, 69983, Note_on_c, 0, 66, 63
3, 69983, Note_on_c, 0, 70, 63
3, 70016, Note_off_c, 0, 70, 0
3, 70016, Note_off_c, 0, 66, 0
3, 70019, Note_off_c, 0, 61, 0
3, 70079, Note_on_c, 0, 61, 59
3, 70079, Note_on_c, 0, 66, 68
3, 70079, Note_on_c, 0, 70, 65
3, 70117, Note_off_c, 0, 66, 0
3, 70119, Note_off_c, 0, 61, 0
3, 70120, Note_off_c, 0, 70, 0
3, 70175, Note_on_c, 0, 61, 63
3, 70175, Note_on_c, 0, 66, 73
3, 70175, Note_on_c, 0, 70, 68
3, 70215, Note_off_c, 0, 70, 0
3, 70215, Note_off_c, 0, 66, 0
3, 70216, Note_off_c, 0, 61, 0
3, 70271, Note_on_c, 0, 61, 59
3, 70271, Note_on_c, 0, 66, 68
3, 70271, Note_on_c, 0, 70, 68
3, 70309, Note_off_c, 0, 66, 0
3, 70309, Note_off_c, 0, 61, 0
3, 70311, Note_off_c, 0, 70, 0
3, 70367, Note_on_c, 0, 61, 63
3, 70367, Note_on_c, 0, 66, 71
3, 70367, Note_on_c, 0, 70, 68
3, 70405, Note_off_c, 0, 66, 0
3, 70407, Note_off_c, 0, 61, 0
3, 70410, Note_off_c, 0, 70, 0
3, 70463, Note_on_c, 0, 61, 63
3, 70463, Note_on_c, 0, 66, 76
3, 70463, Note_on_c, 0, 70, 65
3, 70504, Note_off_c, 0, 66, 0
3, 70506, Note_off_c, 0, 61, 0
3, 70507, Note_off_c, 0, 70, 0
3, 70559, Note_on_c, 0, 61, 50
3, 70559, Note_on_c, 0, 66, 65
3, 70559, Note_on_c, 0, 70, 59
3, 70592, Note_off_c, 0, 66, 0
3, 70592, Note_off_c, 0, 61, 0
3, 70597, Note_off_c, 0, 70, 0
3, 70655, Note_on_c, 0, 64, 83
3, 70655, Note_on_c, 0, 69, 101
3, 70655, Note_on_c, 0, 73, 68
3, 70690, Note_off_c, 0, 73, 0
3, 70690, Note_off_c, 0, 64, 0
3, 70693, Note_off_c, 0, 69, 0
3, 70751, Note_on_c, 0, 64, 67
3, 70751, Note_on_c, 0, 69, 81
3, 70751, Note_on_c, 0, 73, 63
3, 70783, Note_off_c, 0, 73, 0
3, 70791, Note_off_c, 0, 64, 0
3, 70792, Note_off_c, 0, 69, 0
3, 70847, Note_on_c, 0, 64, 71
3, 70847, Note_on_c, 0, 69, 83
3, 70847, Note_on_c, 0, 73, 63
3, 70888, Note_off_c, 0, 73, 0
3, 70888, Note_off_c, 0, 64, 0
3, 70891, Note_off_c, 0, 69, 0
3, 70943, Note_on_c, 0, 64, 71
3, 70943, Note_on_c, 0, 69, 75
3, 70943, Note_on_c, 0, 73, 63
3, 70979, Note_off_c, 0, 73, 0
3, 70987, Note_off_c, 0, 69, 0
3, 70989, Note_off_c, 0, 64, 0
3, 71039, Note_on_c, 0, 64, 77
3, 71039, Note_on_c, 0, 68, 83
3, 71039, Note_on_c, 0, 71, 86
3, 71079, Note_off_c, 0, 68, 0
3, 71080, Note_off_c, 0, 64, 0
3, 71083, Note_off_c, 0, 71, 0
3, 71135, Note_on_c, 0, 64, 68
3, 71135, Note_on_c, 0, 68, 71
3, 71135, Note_on_c, 0, 71, 79
3, 71173, Note_off_c, 0, 71, 0
3, 71173, Note_off_c, 0, 64, 0
3, 71176, Note_off_c, 0, 68, 0
3, 71231, Note_on_c, 0, 64, 77
3, 71231, Note_on_c, 0, 68, 80
3, 71231, Note_on_c, 0, 71, 86
3, 71269, Note_off_c, 0, 71, 0
3, 71271, Note_off_c, 0, 64, 0
3, 71274, Note_off_c, 0, 68, 0
3, 71327, Note_on_c, 0, 61, 83
3, 71327, Note_on_c, 0, 66, 100
3, 71327, Note_on_c, 0, 70, 91
3, 71354, Note_off_c, 0, 66, 0
3, 71357, Note_off_c, 0, 61, 0
3, 71362, Note_off_c, 0, 70, 0
3, 71423, Note_on_c, 0, 61, 47
3, 71423, Note_on_c, 0, 66, 68
3, 71423, Note_on_c, 0, 70, 68
3, 71455, Note_off_c, 0, 66, 0
3, 71459, Note_off_c, 0, 70, 0
3, 71464, Note_off_c, 0, 61, 0
3, 71519, Note_on_c, 0, 61, 59
3, 71519, Note_on_c, 0, 66, 63
3, 71519, Note_on_c, 0, 70, 63
3, 71552, Note_off_c, 0, 70, 0
3, 71552, Note_off_c, 0, 66, 0
3, 71555, Note_off_c, 0, 61, 0
3, 71615, Note_on_c, 0, 61, 59
3, 71615, Note_on_c, 0, 66, 68
3, 71615, Note_on_c, 0, 70, 65
3, 71653, Note_off_c, 0, 66, 0
3, 71655, Note_off_c, 0, 61, 0
3, 71656, Note_off_c, 0, 70, 0
3, 71711, Note_on_c, 0, 61, 63
3, 71711, Note_on_c, 0, 66, 73
3, 71711, Note_on_c, 0, 70, 68
3, 71751, Note_off_c, 0, 70, 0
3, 71751, Note_off_c, 0, 66, 0
3, 71752, Note_off_c, 0, 61, 0
3, 71807, Note_on_c, 0, 61, 59
3, 71807, Note_on_c, 0, 66, 68
3, 71807, Note_on_c, 0, 70, 68
3, 71845, Note_off_c, 0, 66, 0
3, 71845, Note_off_c, 0, 61, 0
3, 71847, Note_off_c, 0, 70, 0
3, 71903, Note_on_c, 0, 61, 63
3, 71903, Note_on_c, 0, 66, 71
3, 71903, Note_on_c, 0, 70, 68
3, 71941, Note_off_c, 0, 66, 0
3, 71943, Note_off_c, 0, 61, 0
3, 71946, Note_off_c, 0, 70, 0
3, 71999, Note_on_c, 0, 61, 63
3, 71999, Note_on_c, 0, 66, 76
3, 71999, Note_on_c, 0, 70, 65
3, 72040, Note_off_c, 0, 66, 0
3, 72042, Note_off_c, 0, 61, 0
3, 72043, Note_off_c, 0, 70, 0
3, 72095, Note_on_c, 0, 61, 50
3, 72095, Note_on_c, 0, 66, 65
3, 72095, Note_on_c, 0, 70, 59
3, 72128, Note_off_c, 0, 66, 0
3, 72128, Note_off_c, 0, 61, 0
3, 72133, Note_off_c, 0, 70, 0
3, 72191, Note_on_c, 0, 64, 83
3, 72191, Note_on_c, 0, 69, 101
3, 72191, Note_on_c, 0, 73, 68
3, 72226, Note_off_c, 0, 73, 0
3, 72226, Note_off_c, 0, 64, 0
3, 72229, Note_off_c, 0, 69, 0
3, 72287, Note_on_c, 0, 64, 67
3, 72287, Note_on_c, 0, 69, 81
3, 72287, Note_on_c, 0, 73, 63
3, 72319, Note_off_c, 0, 73, 0
3, 72327, Note_off_c, 0, 64, 0
3, 72328, Note_off_c, 0, 69, 0
3, 72383, Note_on_c, 0, 64, 71
3, 72383, Note_on_c, 0, 69, 83
3, 72383, Note_on_c, 0, 73, 63
3, 72424, Note_off_c, 0, 73, 0
3, 72424, Note_off_c, 0, 64, 0
3, 72427, Note_off_c, 0, 69, 0
3, 72479, Note_on_c, 0, 64, 71
3, 72479, Note_on_c, 0, 69, 75
3, 72479, Note_on_c, 0, 73, 63
3, 72515, Note_off_c, 0, 73, 0
3, 72523, Note_off_c, 0, 69, 0
3, 72525, Note_off_c, 0, 64, 0
3, 72575, Note_on_c, 0, 64, 77
3, 72575, Note_on_c, 0, 68, 83
3, 72575, Note_on_c, 0, 71, 86
3, 72615, Note_off_c, 0, 68, 0
3, 72616, Note_off_c, 0, 64, 0
3, 72619, Note_off_c, 0, 71, 0
3, 72671, Note_on_c, 0, 64, 68
3, 72671, Note_on_c, 0, 68, 71
3, 72671, Note_on_c, 0, 71, 79
3, 72709, Note_off_c, 0, 71, 0
3, 72709, Note_off_c, 0, 64, 0
3, 72712, Note_off_c, 0, 68, 0
3, 72767, Note_on_c, 0, 64, 77
3, 72767, Note_on_c, 0, 68, 80
3, 72767, Note_on_c, 0, 71, 86
3, 72805, Note_off_c, 0, 71, 0
3, 72807, Note_off_c, 0, 64, 0
3, 72810, Note_off_c, 0, 68, 0
3, 72863, Note_on_c, 0, 61, 83
3, 72863, Note_on_c, 0, 66, 100
3, 72863, Note_on_c, 0, 70, 91
3, 72890, Note_off_c, 0, 66, 0
3, 72893, Note_off_c, 0, 61, 0
3, 72898, Note_off_c, 0, 70, 0
3, 72959, Note_on_c, 0, 61, 47
3, 72959, Note_on_c, 0, 66, 68
3, 72959, Note_on_c, 0, 70, 68
3, 72991, Note_off_c, 0, 66, 0
3, 72995, Note_off_c, 0, 70, 0
3, 73000, Note_off_c, 0, 61, 0
3, 73055, Note_on_c, 0, 61, 59
3, 73055, Note_on_c, 0, 66, 63
3, 73055, Note_on_c, 0, 70, 63
3, 73088, Note_off_c, 0, 70, 0
3, 73088, Note_off_c, 0, 66, 0
3, 73091, Note_off_c, 0, 61, 0
3, 73151, Note_on_c, 0, 61, 59
3, 73151, Note_on_c, 0, 66, 68
3, 73151, Note_on_c, 0, 70, 65
3, 73189, Note_off_c, 0, 66, 0
3, 73191, Note_off_c, 0, 61, 0
3, 73192, Note_off_c, 0, 70, 0
3, 73247, Note_on_c, 0, 61, 63
3, 73247, Note_on_c, 0, 66, 73
3, 73247, Note_on_c, 0, 70, 68
3, 73287, Note_off_c, 0, 70, 0
3, 73287, Note_off_c, 0, 66, 0
3, 73288, Note_off_c, 0, 61, 0
3, 73343, Note_on_c, 0, 61, 59
3, 73343, Note_on_c, 0, 66, 68
3, 73343, Note_on_c, 0, 70, 68
3, 73381, Note_off_c, 0, 66, 0
3, 73381, Note_off_c, 0, 61, 0
3, 73383, Note_off_c, 0, 70, 0
3, 73439, Note_on_c, 0, 61, 63
3, 73439, Note_on_c, 0, 66, 71
3, 73439, Note_on_c, 0, 70, 68
3, 73477, Note_off_c, 0, 66, 0
3, 73479, Note_off_c, 0, 61, 0
3, 73482, Note_off_c, 0, 70, 0
3, 73535, Note_on_c, 0, 61, 63
3, 73535, Note_on_c, 0, 66, 76
3, 73535, Note_on_c, 0, 70, 65
3, 73576, Note_off_c, 0, 66, 0
3, 73578, Note_off_c, 0, 61, 0
3, 73579, Note_off_c, 0, 70, 0
3, 73631, Note_on_c, 0, 61, 50
3, 73631, Note_on_c, 0, 66, 65
3, 73631, Note_on_c, 0, 70, 59
3, 73664, Note_off_c, 0, 66, 0
3, 73664, Note_off_c, 0, 61, 0
3, 73669, Note_off_c, 0, 70, 0
3, 73727, Note_on_c, 0, 64, 83
3, 73727, Note_on_c, 0, 69, 101
3, 73727, Note_on_c, 0, 73, 68
3, 73762, Note_off_c, 0, 73, 0
3, 73762, Note_off_c, 0, 64, 0
3, 73765, Note_off_c, 0, 69, 0
3, 73823, Note_on_c, 0, 64, 67
3, 73823, Note_on_c, 0, 69, 81
3, 73823, Note_on_c, 0, 73, 63
3, 73855, Note_off_c, 0, 73, 0
3, 73863, Note_off_c, 0, 64, 0
3, 73864, Note_off_c, 0, 69, 0
3, 73919, Note_on_c, 0, 64, 71
3, 73919, Note_on_c, 0, 69, 83
3, 73919, Note_on_c, 0, 73, 63
3, 73960, Note_off_c, 0, 73, 0
3, 73960, Note_off_c, 0, 64, 0
3, 73963, Note_off_c, 0, 69, 0
3, 74015, Note_on_c, 0, 64, 71
3, 74015, Note_on_c, 0, 69, 75
3, 74015, Note_on_c, 0, 73, 63
3, 74051, Note_off_c, 0, 73, 0
3, 74059, Note_off_c, 0, 69, 0
3, 74061, Note_off_c, 0, 64, 0
3, 74111, Note_on_c, 0, 64, 77
3, 74111, Note_on_c, 0, 68, 83
3, 74111, Note_on_c, 0, 71, 86
3, 74151, Note_off_c, 0, 68, 0
3, 74152, Note_off_c, 0, 64, 0
3, 74155, Note_off_c, 0, 71, 0
3, 74207, Note_on_c, 0, 64, 68
3, 74207, Note_on_c, 0, 68, 71
3, 74207, Note_on_c, 0, 71, 79
3, 74245, Note_off_c, 0, 71, 0
3, 74245, Note_off_c, 0, 64, 0
3, 74248, Note_off_c, 0, 68, 0
3, 74303, Note_on_c, 0, 71, 86
3, 74341, Note_off_c, 0, 71, 0
3, 76048, Note_on_c, 0, 45, 127
3, 76048, Note_on_c, 0, 52, 127
3, 76048, Note_on_c, 0, 57, 127
3, 76803, Note_off_c, 0, 57, 0
3, 76814, Note_off_c, 0, 45, 0
3, 76817, Note_off_c, 0, 52, 0
3, 76817, End_track
4, 0, Start_track
4, 0, Title_t, "BASS    "
4, 0, Channel_prefix, 1
4, 0, Control_c, 1, 7, 99
4, 0, Program_c, 1, 36
4, 2304, Note_on_c, 1, 33, 117
4, 2364, Note_off_c, 1, 33, 0
4, 2400, Note_on_c, 1, 33, 113
4, 2483, Note_off_c, 1, 33, 0
4, 2688, Note_on_c, 1, 33, 117
4, 2740, Note_off_c, 1, 33, 0
4, 2784, Note_on_c, 1, 33, 108
4, 2833, Note_off_c, 1, 33, 0
4, 2880, Note_on_c, 1, 40, 117
4, 3019, Note_off_c, 1, 40, 0
4, 3072, Note_on_c, 1, 33, 117
4, 3123, Note_off_c, 1, 33, 0
4, 3168, Note_on_c, 1, 33, 117
4, 3257, Note_off_c, 1, 33, 0
4, 3456, Note_on_c, 1, 33, 117
4, 3505, Note_off_c, 1, 33, 0
4, 3552, Note_on_c, 1, 33, 117
4, 3593, Note_off_c, 1, 33, 0
4, 3648, Note_on_c, 1, 40, 127
4, 3772, Note_off_c, 1, 40, 0
4, 3840, Note_on_c, 1, 33, 117
4, 3892, Note_off_c, 1, 33, 0
4, 3936, Note_on_c, 1, 33, 122
4, 4025, Note_off_c, 1, 33, 0
4, 4224, Note_on_c, 1, 37, 127
4, 4416, Note_off_c, 1, 37, 0
4, 4416, Note_on_c, 1, 33, 108
4, 4512, Note_on_c, 1, 35, 127
4, 4528, Note_off_c, 1, 33, 0
4, 4640, Note_off_c, 1, 35, 0
4, 4704, Note_on_c, 1, 30, 110
4, 4800, Note_on_c, 1, 33, 104
4, 4804, Note_off_c, 1, 30, 0
4, 4891, Note_off_c, 1, 33, 0
4, 4896, Note_on_c, 1, 35, 122
4, 4988, Note_off_c, 1, 35, 0
4, 4992, Note_on_c, 1, 37, 100
4, 5054, Note_off_c, 1, 37, 0
4, 5088, Note_on_c, 1, 37, 95
4, 5182, Note_off_c, 1, 37, 0
4, 5184, Note_on_c, 1, 33, 127
4, 5265, Note_off_c, 1, 33, 0
4, 5280, Note_on_c, 1, 35, 127
4, 5472, Note_on_c, 1, 30, 100
4, 5478, Note_off_c, 1, 35, 0
4, 5568, Note_on_c, 1, 33, 108
4, 5572, Note_off_c, 1, 30, 0
4, 5664, Note_on_c, 1, 35, 113
4, 5665, Note_off_c, 1, 33, 0
4, 5760, Note_off_c, 1, 35, 0
4, 5760, Note_on_c, 1, 38, 127
4, 5892, Note_off_c, 1, 38, 0
4, 5952, Note_on_c, 1, 38, 127
4, 6057, Note_off_c, 1, 38, 0
4, 6144, Note_on_c, 1, 28, 127
4, 6336, Note_off_c, 1, 28, 0
4, 6336, Note_on_c, 1, 40, 127
4, 6500, Note_off_c, 1, 40, 0
4, 6528, Note_on_c, 1, 28, 127
4, 6708, Note_off_c, 1, 28, 0
4, 6720, Note_on_c, 1, 40, 127
4, 6891, Note_off_c, 1, 40, 0
4, 6912, Note_on_c, 1, 38, 127
4, 7003, Note_off_c, 1, 38, 0
4, 7008, Note_on_c, 1, 45, 127
4, 7104, Note_on_c, 1, 48, 127
4, 7121, Note_off_c, 1, 45, 0
4, 7200, Note_on_c, 1, 45, 127
4, 7212, Note_off_c, 1, 48, 0
4, 7296, Note_on_c, 1, 38, 127
4, 7300, Note_off_c, 1, 45, 0
4, 7385, Note_off_c, 1, 38, 0
4, 7392, Note_on_c, 1, 45, 127
4, 7488, Note_on_c, 1, 48, 127
4, 7492, Note_off_c, 1, 45, 0
4, 7584, Note_on_c, 1, 45, 127
4, 7588, Note_off_c, 1, 48, 0
4, 7659, Note_off_c, 1, 45, 0
4, 7680, Note_on_c, 1, 33, 127
4, 7801, Note_off_c, 1, 33, 0
4, 13824, Note_on_c, 1, 45, 127
4, 13854, Note_off_c, 1, 45, 0
4, 13920, Note_on_c, 1, 45, 127
4, 14016, Note_off_c, 1, 45, 0
4, 14016, Note_on_c, 1, 40, 122
4, 14110, Note_off_c, 1, 40, 0
4, 14112, Note_on_c, 1, 45, 117
4, 14206, Note_off_c, 1, 45, 0
4, 14208, Note_on_c, 1, 44, 110
4, 14232, Note_off_c, 1, 44, 0
4, 14304, Note_on_c, 1, 44, 127
4, 14400, Note_on_c, 1, 40, 113
4, 14404, Note_off_c, 1, 44, 0
4, 14491, Note_off_c, 1, 40, 0
4, 14496, Note_on_c, 1, 44, 110
4, 14587, Note_off_c, 1, 44, 0
4, 14592, Note_on_c, 1, 42, 110
4, 14625, Note_off_c, 1, 42, 0
4, 14688, Note_on_c, 1, 42, 127
4, 14728, Note_off_c, 1, 42, 0
4, 14736, Note_on_c, 1, 40, 108
4, 14784, Note_on_c, 1, 42, 104
4, 14796, Note_off_c, 1, 40, 0
4, 14817, Note_off_c, 1, 42, 0
4, 14880, Note_on_c, 1, 42, 110
4, 14918, Note_off_c, 1, 42, 0
4, 14928, Note_on_c, 1, 40, 117
4, 14976, Note_on_c, 1, 42, 110
4, 14988, Note_off_c, 1, 40, 0
4, 15009, Note_off_c, 1, 42, 0
4, 15072, Note_on_c, 1, 42, 110
4, 15107, Note_off_c, 1, 42, 0
4, 15120, Note_on_c, 1, 40, 117
4, 15166, Note_off_c, 1, 40, 0
4, 15168, Note_on_c, 1, 42, 110
4, 15204, Note_off_c, 1, 42, 0
4, 15216, Note_on_c, 1, 40, 117
4, 15264, Note_off_c, 1, 40, 0
4, 15264, Note_on_c, 1, 42, 127
4, 15304, Note_off_c, 1, 42, 0
4, 15360, Note_on_c, 1, 45, 127
4, 15390, Note_off_c, 1, 45, 0
4, 15456, Note_on_c, 1, 45, 127
4, 15552, Note_off_c, 1, 45, 0
4, 15552, Note_on_c, 1, 40, 122
4, 15646, Note_off_c, 1, 40, 0
4, 15648, Note_on_c, 1, 45, 117
4, 15742, Note_off_c, 1, 45, 0
4, 15744, Note_on_c, 1, 44, 110
4, 15768, Note_off_c, 1, 44, 0
4, 15840, Note_on_c, 1, 44, 127
4, 15936, Note_on_c, 1, 40, 113
4, 15940, Note_off_c, 1, 44, 0
4, 16027, Note_off_c, 1, 40, 0
4, 16032, Note_on_c, 1, 44, 110
4, 16123, Note_off_c, 1, 44, 0
4, 16128, Note_on_c, 1, 42, 127
4, 16144, Note_off_c, 1, 42, 0
4, 16224, Note_on_c, 1, 42, 110
4, 16299, Note_off_c, 1, 42, 0
4, 16320, Note_on_c, 1, 42, 127
4, 16340, Note_off_c, 1, 42, 0
4, 16416, Note_on_c, 1, 42, 127
4, 16494, Note_off_c, 1, 42, 0
4, 16512, Note_on_c, 1, 37, 127
4, 16528, Note_off_c, 1, 37, 0
4, 16608, Note_on_c, 1, 37, 110
4, 16681, Note_off_c, 1, 37, 0
4, 16704, Note_on_c, 1, 40, 127
4, 16747, Note_off_c, 1, 40, 0
4, 16800, Note_on_c, 1, 40, 127
4, 16833, Note_off_c, 1, 40, 0
4, 16896, Note_on_c, 1, 35, 127
4, 16924, Note_off_c, 1, 35, 0
4, 16992, Note_on_c, 1, 35, 127
4, 17076, Note_off_c, 1, 35, 0
4, 17088, Note_on_c, 1, 30, 104
4, 17184, Note_on_c, 1, 35, 127
4, 17196, Note_off_c, 1, 30, 0
4, 17217, Note_off_c, 1, 35, 0
4, 17280, Note_on_c, 1, 37, 127
4, 17308, Note_off_c, 1, 37, 0
4, 17376, Note_on_c, 1, 37, 127
4, 17406, Note_off_c, 1, 37, 0
4, 17472, Note_on_c, 1, 32, 127
4, 17523, Note_off_c, 1, 32, 0
4, 17568, Note_on_c, 1, 32, 110
4, 17614, Note_off_c, 1, 32, 0
4, 17664, Note_on_c, 1, 38, 127
4, 17710, Note_off_c, 1, 38, 0
4, 17760, Note_on_c, 1, 38, 127
4, 17830, Note_off_c, 1, 38, 0
4, 17904, Note_on_c, 1, 35, 127
4, 17942, Note_off_c, 1, 35, 0
4, 17952, Note_on_c, 1, 38, 127
4, 18041, Note_off_c, 1, 38, 0
4, 18048, Note_on_c, 1, 40, 127
4, 18110, Note_off_c, 1, 40, 0
4, 18144, Note_on_c, 1, 40, 122
4, 18217, Note_off_c, 1, 40, 0
4, 18240, Note_on_c, 1, 37, 110
4, 18331, Note_off_c, 1, 37, 0
4, 18336, Note_on_c, 1, 40, 113
4, 18432, Note_on_c, 1, 33, 127
4, 18444, Note_off_c, 1, 40, 0
4, 18587, Note_off_c, 1, 33, 0
4, 18816, Note_on_c, 1, 38, 127
4, 18872, Note_off_c, 1, 38, 0
4, 18912, Note_on_c, 1, 38, 127
4, 18968, Note_off_c, 1, 38, 0
4, 19008, Note_on_c, 1, 38, 127
4, 19065, Note_off_c, 1, 38, 0
4, 19104, Note_on_c, 1, 38, 127
4, 19164, Note_off_c, 1, 38, 0
4, 19200, Note_on_c, 1, 33, 127
4, 19248, Note_off_c, 1, 33, 0
4, 19296, Note_on_c, 1, 33, 117
4, 19358, Note_off_c, 1, 33, 0
4, 19392, Note_on_c, 1, 37, 110
4, 19454, Note_off_c, 1, 37, 0
4, 19488, Note_on_c, 1, 40, 113
4, 19553, Note_off_c, 1, 40, 0
4, 19584, Note_on_c, 1, 45, 117
4, 19638, Note_off_c, 1, 45, 0
4, 19680, Note_on_c, 1, 45, 104
4, 19736, Note_off_c, 1, 45, 0
4, 19776, Note_on_c, 1, 45, 97
4, 19828, Note_off_c, 1, 45, 0
4, 19872, Note_on_c, 1, 45, 108
4, 19931, Note_off_c, 1, 45, 0
4, 19968, Note_on_c, 1, 33, 127
4, 19995, Note_off_c, 1, 33, 0
4, 20064, Note_on_c, 1, 33, 127
4, 20148, Note_off_c, 1, 33, 0
4, 20160, Note_on_c, 1, 28, 108
4, 20246, Note_off_c, 1, 28, 0
4, 20256, Note_on_c, 1, 33, 122
4, 20340, Note_off_c, 1, 33, 0
4, 20352, Note_on_c, 1, 32, 110
4, 20376, Note_off_c, 1, 32, 0
4, 20448, Note_on_c, 1, 32, 127
4, 20544, Note_on_c, 1, 40, 127
4, 20550, Note_off_c, 1, 32, 0
4, 20723, Note_off_c, 1, 40, 0
4, 20736, Note_on_c, 1, 30, 127
4, 20761, Note_off_c, 1, 30, 0
4, 20832, Note_on_c, 1, 30, 110
4, 20923, Note_off_c, 1, 30, 0
4, 20928, Note_on_c, 1, 28, 101
4, 21024, Note_on_c, 1, 30, 110
4, 21030, Note_off_c, 1, 28, 0
4, 21051, Note_off_c, 1, 30, 0
4, 21120, Note_on_c, 1, 30, 127
4, 21147, Note_off_c, 1, 30, 0
4, 21216, Note_on_c, 1, 30, 110
4, 21302, Note_off_c, 1, 30, 0
4, 21312, Note_on_c, 1, 28, 113
4, 21408, Note_on_c, 1, 30, 127
4, 21416, Note_off_c, 1, 28, 0
4, 21448, Note_off_c, 1, 30, 0
4, 21504, Note_on_c, 1, 33, 127
4, 21531, Note_off_c, 1, 33, 0
4, 21600, Note_on_c, 1, 33, 127
4, 21684, Note_off_c, 1, 33, 0
4, 21696, Note_on_c, 1, 28, 108
4, 21782, Note_off_c, 1, 28, 0
4, 21792, Note_on_c, 1, 33, 122
4, 21876, Note_off_c, 1, 33, 0
4, 21888, Note_on_c, 1, 32, 110
4, 21912, Note_off_c, 1, 32, 0
4, 21984, Note_on_c, 1, 32, 127
4, 22080, Note_on_c, 1, 40, 127
4, 22086, Note_off_c, 1, 32, 0
4, 22259, Note_off_c, 1, 40, 0
4, 22272, Note_on_c, 1, 30, 127
4, 22297, Note_off_c, 1, 30, 0
4, 22368, Note_on_c, 1, 30, 110
4, 22459, Note_off_c, 1, 30, 0
4, 22464, Note_on_c, 1, 28, 101
4, 22560, Note_on_c, 1, 30, 110
4, 22566, Note_off_c, 1, 28, 0
4, 22587, Note_off_c, 1, 30, 0
4, 22656, Note_on_c, 1, 30, 127
4, 22683, Note_off_c, 1, 30, 0
4, 22752, Note_on_c, 1, 30, 110
4, 22838, Note_off_c, 1, 30, 0
4, 22848, Note_on_c, 1, 28, 113
4, 22944, Note_on_c, 1, 30, 127
4, 22952, Note_off_c, 1, 28, 0
4, 22984, Note_off_c, 1, 30, 0
4, 23040, Note_on_c, 1, 33, 117
4, 23100, Note_off_c, 1, 33, 0
4, 23136, Note_on_c, 1, 33, 113
4, 23219, Note_off_c, 1, 33, 0
4, 23424, Note_on_c, 1, 33, 117
4, 23476, Note_off_c, 1, 33, 0
4, 23520, Note_on_c, 1, 33, 108
4, 23569, Note_off_c, 1, 33, 0
4, 23616, Note_on_c, 1, 40, 117
4, 23755, Note_off_c, 1, 40, 0
4, 23808, Note_on_c, 1, 33, 117
4, 23859, Note_off_c, 1, 33, 0
4, 23904, Note_on_c, 1, 33, 117
4, 23993, Note_off_c, 1, 33, 0
4, 24192, Note_on_c, 1, 33, 117
4, 24241, Note_off_c, 1, 33, 0
4, 24288, Note_on_c, 1, 33, 117
4, 24329, Note_off_c, 1, 33, 0
4, 24384, Note_on_c, 1, 40, 127
4, 24508, Note_off_c, 1, 40, 0
4, 24576, Note_on_c, 1, 33, 117
4, 24628, Note_off_c, 1, 33, 0
4, 24672, Note_on_c, 1, 33, 122
4, 24761, Note_off_c, 1, 33, 0
4, 24960, Note_on_c, 1, 37, 127
4, 25152, Note_off_c, 1, 37, 0
4, 25152, Note_on_c, 1, 33, 108
4, 25248, Note_on_c, 1, 35, 127
4, 25264, Note_off_c, 1, 33, 0
4, 25376, Note_off_c, 1, 35, 0
4, 25440, Note_on_c, 1, 30, 91
4, 25536, Note_off_c, 1, 30, 0
4, 25536, Note_on_c, 1, 33, 83
4, 25632, Note_off_c, 1, 33, 0
4, 25632, Note_on_c, 1, 35, 79
4, 25728, Note_off_c, 1, 35, 0
4, 25728, Note_on_c, 1, 37, 95
4, 25920, Note_off_c, 1, 37, 0
4, 25920, Note_on_c, 1, 33, 104
4, 26016, Note_off_c, 1, 33, 0
4, 26016, Note_on_c, 1, 35, 117
4, 26304, Note_off_c, 1, 35, 0
4, 26489, Note_on_c, 1, 38, 127
4, 26587, Pitch_bend_c, 1, 7398
4, 26598, Pitch_bend_c, 1, 6077
4, 26609, Pitch_bend_c, 1, 5284
4, 26620, Pitch_bend_c, 1, 4756
4, 26640, Pitch_bend_c, 1, 4491
4, 26662, Pitch_bend_c, 1, 5284
4, 26673, Pitch_bend_c, 1, 7134
4, 26686, Pitch_bend_c, 1, 8192
4, 26790, Pitch_bend_c, 1, 6605
4, 26801, Pitch_bend_c, 1, 5020
4, 26812, Pitch_bend_c, 1, 4491
4, 26824, Pitch_bend_c, 1, 4227
4, 26861, Note_off_c, 1, 38, 0
4, 26864, Pitch_bend_c, 1, 4756
4, 26875, Pitch_bend_c, 1, 6869
4, 26880, Note_on_c, 1, 33, 117
4, 26886, Pitch_bend_c, 1, 8192
4, 26940, Note_off_c, 1, 33, 0
4, 26976, Note_on_c, 1, 33, 113
4, 27059, Note_off_c, 1, 33, 0
4, 27264, Note_on_c, 1, 33, 117
4, 27316, Note_off_c, 1, 33, 0
4, 27360, Note_on_c, 1, 33, 108
4, 27409, Note_off_c, 1, 33, 0
4, 27456, Note_on_c, 1, 40, 117
4, 27595, Note_off_c, 1, 40, 0
4, 27648, Note_on_c, 1, 33, 117
4, 27699, Note_off_c, 1, 33, 0
4, 27744, Note_on_c, 1, 33, 117
4, 27833, Note_off_c, 1, 33, 0
4, 28032, Note_on_c, 1, 33, 117
4, 28081, Note_off_c, 1, 33, 0
4, 28128, Note_on_c, 1, 33, 117
4, 28169, Note_off_c, 1, 33, 0
4, 28224, Note_on_c, 1, 40, 127
4, 28348, Note_off_c, 1, 40, 0
4, 28416, Note_on_c, 1, 33, 117
4, 28468, Note_off_c, 1, 33, 0
4, 28512, Note_on_c, 1, 33, 122
4, 28601, Note_off_c, 1, 33, 0
4, 28800, Note_on_c, 1, 37, 127
4, 28992, Note_off_c, 1, 37, 0
4, 28992, Note_on_c, 1, 33, 108
4, 29088, Note_on_c, 1, 35, 127
4, 29104, Note_off_c, 1, 33, 0
4, 29216, Note_off_c, 1, 35, 0
4, 29280, Note_on_c, 1, 30, 110
4, 29376, Note_on_c, 1, 33, 104
4, 29380, Note_off_c, 1, 30, 0
4, 29467, Note_off_c, 1, 33, 0
4, 29472, Note_on_c, 1, 35, 122
4, 29564, Note_off_c, 1, 35, 0
4, 29568, Note_on_c, 1, 37, 100
4, 29630, Note_off_c, 1, 37, 0
4, 29664, Note_on_c, 1, 37, 95
4, 29758, Note_off_c, 1, 37, 0
4, 29760, Note_on_c, 1, 33, 127
4, 29841, Note_off_c, 1, 33, 0
4, 29856, Note_on_c, 1, 35, 127
4, 30048, Note_on_c, 1, 30, 100
4, 30054, Note_off_c, 1, 35, 0
4, 30144, Note_on_c, 1, 33, 108
4, 30148, Note_off_c, 1, 30, 0
4, 30240, Note_on_c, 1, 35, 113
4, 30241, Note_off_c, 1, 33, 0
4, 30336, Note_off_c, 1, 35, 0
4, 30336, Note_on_c, 1, 38, 127
4, 30468, Note_off_c, 1, 38, 0
4, 30528, Note_on_c, 1, 38, 127
4, 30633, Note_off_c, 1, 38, 0
4, 30720, Note_on_c, 1, 28, 127
4, 30912, Note_off_c, 1, 28, 0
4, 30912, Note_on_c, 1, 40, 127
4, 31076, Note_off_c, 1, 40, 0
4, 31104, Note_on_c, 1, 28, 127
4, 31284, Note_off_c, 1, 28, 0
4, 31296, Note_on_c, 1, 40, 127
4, 31467, Note_off_c, 1, 40, 0
4, 31488, Note_on_c, 1, 38, 127
4, 31579, Note_off_c, 1, 38, 0
4, 31584, Note_on_c, 1, 45, 127
4, 31680, Note_on_c, 1, 48, 127
4, 31697, Note_off_c, 1, 45, 0
4, 31776, Note_on_c, 1, 45, 127
4, 31788, Note_off_c, 1, 48, 0
4, 31872, Note_on_c, 1, 38, 127
4, 31876, Note_off_c, 1, 45, 0
4, 31961, Note_off_c, 1, 38, 0
4, 31968, Note_on_c, 1, 45, 127
4, 32064, Note_on_c, 1, 48, 127
4, 32068, Note_off_c, 1, 45, 0
4, 32160, Note_on_c, 1, 45, 127
4, 32164, Note_off_c, 1, 48, 0
4, 32235, Note_off_c, 1, 45, 0
4, 32256, Note_on_c, 1, 33, 127
4, 32283, Note_off_c, 1, 33, 0
4, 32352, Note_on_c, 1, 33, 127
4, 32436, Note_off_c, 1, 33, 0
4, 32448, Note_on_c, 1, 28, 108
4, 32534, Note_off_c, 1, 28, 0
4, 32544, Note_on_c, 1, 33, 122
4, 32628, Note_off_c, 1, 33, 0
4, 32640, Note_on_c, 1, 32, 110
4, 32664, Note_off_c, 1, 32, 0
4, 32736, Note_on_c, 1, 32, 127
4, 32832, Note_on_c, 1, 40, 127
4, 32838, Note_off_c, 1, 32, 0
4, 33011, Note_off_c, 1, 40, 0
4, 33024, Note_on_c, 1, 30, 127
4, 33049, Note_off_c, 1, 30, 0
4, 33120, Note_on_c, 1, 30, 110
4, 33211, Note_off_c, 1, 30, 0
4, 33216, Note_on_c, 1, 28, 101
4, 33312, Note_on_c, 1, 30, 110
4, 33318, Note_off_c, 1, 28, 0
4, 33339, Note_off_c, 1, 30, 0
4, 33408, Note_on_c, 1, 30, 127
4, 33435, Note_off_c, 1, 30, 0
4, 33504, Note_on_c, 1, 30, 110
4, 33590, Note_off_c, 1, 30, 0
4, 33600, Note_on_c, 1, 28, 113
4, 33696, Note_on_c, 1, 30, 127
4, 33704, Note_off_c, 1, 28, 0
4, 33736, Note_off_c, 1, 30, 0
4, 33792, Note_on_c, 1, 33, 127
4, 33819, Note_off_c, 1, 33, 0
4, 33888, Note_on_c, 1, 33, 127
4, 33972, Note_off_c, 1, 33, 0
4, 33984, Note_on_c, 1, 28, 108
4, 34070, Note_off_c, 1, 28, 0
4, 34080, Note_on_c, 1, 33, 122
4, 34164, Note_off_c, 1, 33, 0
4, 34176, Note_on_c, 1, 32, 110
4, 34200, Note_off_c, 1, 32, 0
4, 34272, Note_on_c, 1, 32, 127
4, 34368, Note_on_c, 1, 40, 127
4, 34374, Note_off_c, 1, 32, 0
4, 34547, Note_off_c, 1, 40, 0
4, 34560, Note_on_c, 1, 30, 127
4, 34585, Note_off_c, 1, 30, 0
4, 34656, Note_on_c, 1, 30, 110
4, 34747, Note_off_c, 1, 30, 0
4, 34752, Note_on_c, 1, 28, 101
4, 34848, Note_on_c, 1, 30, 110
4, 34854, Note_off_c, 1, 28, 0
4, 34875, Note_off_c, 1, 30, 0
4, 34944, Note_on_c, 1, 30, 127
4, 34971, Note_off_c, 1, 30, 0
4, 35040, Note_on_c, 1, 30, 110
4, 35126, Note_off_c, 1, 30, 0
4, 35136, Note_on_c, 1, 28, 113
4, 35232, Note_on_c, 1, 30, 127
4, 35240, Note_off_c, 1, 28, 0
4, 35272, Note_off_c, 1, 30, 0
4, 35328, Note_on_c, 1, 45, 127
4, 35358, Note_off_c, 1, 45, 0
4, 35424, Note_on_c, 1, 45, 127
4, 35520, Note_off_c, 1, 45, 0
4, 35520, Note_on_c, 1, 40, 122
4, 35614, Note_off_c, 1, 40, 0
4, 35616, Note_on_c, 1, 45, 117
4, 35710, Note_off_c, 1, 45, 0
4, 35712, Note_on_c, 1, 44, 110
4, 35736, Note_off_c, 1, 44, 0
4, 35808, Note_on_c, 1, 44, 127
4, 35904, Note_on_c, 1, 40, 113
4, 35908, Note_off_c, 1, 44, 0
4, 35995, Note_off_c, 1, 40, 0
4, 36000, Note_on_c, 1, 44, 110
4, 36091, Note_off_c, 1, 44, 0
4, 36096, Note_on_c, 1, 42, 110
4, 36129, Note_off_c, 1, 42, 0
4, 36192, Note_on_c, 1, 42, 127
4, 36232, Note_off_c, 1, 42, 0
4, 36240, Note_on_c, 1, 40, 108
4, 36288, Note_on_c, 1, 42, 104
4, 36300, Note_off_c, 1, 40, 0
4, 36321, Note_off_c, 1, 42, 0
4, 36384, Note_on_c, 1, 42, 110
4, 36422, Note_off_c, 1, 42, 0
4, 36432, Note_on_c, 1, 40, 117
4, 36480, Note_on_c, 1, 42, 110
4, 36492, Note_off_c, 1, 40, 0
4, 36513, Note_off_c, 1, 42, 0
4, 36576, Note_on_c, 1, 42, 110
4, 36611, Note_off_c, 1, 42, 0
4, 36624, Note_on_c, 1, 40, 117
4, 36670, Note_off_c, 1, 40, 0
4, 36672, Note_on_c, 1, 42, 110
4, 36708, Note_off_c, 1, 42, 0
4, 36720, Note_on_c, 1, 40, 117
4, 36768, Note_off_c, 1, 40, 0
4, 36768, Note_on_c, 1, 42, 127
4, 36808, Note_off_c, 1, 42, 0
4, 36864, Note_on_c, 1, 45, 127
4, 36894, Note_off_c, 1, 45, 0
4, 36960, Note_on_c, 1, 45, 127
4, 37056, Note_off_c, 1, 45, 0
4, 37056, Note_on_c, 1, 40, 122
4, 37150, Note_off_c, 1, 40, 0
4, 37152, Note_on_c, 1, 45, 117
4, 37246, Note_off_c, 1, 45, 0
4, 37248, Note_on_c, 1, 44, 110
4, 37272, Note_off_c, 1, 44, 0
4, 37344, Note_on_c, 1, 44, 127
4, 37440, Note_on_c, 1, 40, 113
4, 37444, Note_off_c, 1, 44, 0
4, 37531, Note_off_c, 1, 40, 0
4, 37536, Note_on_c, 1, 44, 110
4, 37627, Note_off_c, 1, 44, 0
4, 37632, Note_on_c, 1, 42, 127
4, 37648, Note_off_c, 1, 42, 0
4, 37728, Note_on_c, 1, 42, 110
4, 37803, Note_off_c, 1, 42, 0
4, 37824, Note_on_c, 1, 42, 127
4, 37844, Note_off_c, 1, 42, 0
4, 37920, Note_on_c, 1, 42, 127
4, 37998, Note_off_c, 1, 42, 0
4, 38016, Note_on_c, 1, 37, 127
4, 38032, Note_off_c, 1, 37, 0
4, 38112, Note_on_c, 1, 37, 110
4, 38185, Note_off_c, 1, 37, 0
4, 38208, Note_on_c, 1, 40, 127
4, 38251, Note_off_c, 1, 40, 0
4, 38304, Note_on_c, 1, 40, 127
4, 38337, Note_off_c, 1, 40, 0
4, 38400, Note_on_c, 1, 35, 127
4, 38428, Note_off_c, 1, 35, 0
4, 38496, Note_on_c, 1, 35, 127
4, 38580, Note_off_c, 1, 35, 0
4, 38592, Note_on_c, 1, 30, 104
4, 38688, Note_on_c, 1, 35, 127
4, 38700, Note_off_c, 1, 30, 0
4, 38721, Note_off_c, 1, 35, 0
4, 38784, Note_on_c, 1, 37, 127
4, 38812, Note_off_c, 1, 37, 0
4, 38880, Note_on_c, 1, 37, 127
4, 38910, Note_off_c, 1, 37, 0
4, 38976, Note_on_c, 1, 32, 127
4, 39027, Note_off_c, 1, 32, 0
4, 39072, Note_on_c, 1, 32, 110
4, 39118, Note_off_c, 1, 32, 0
4, 39168, Note_on_c, 1, 38, 127
4, 39214, Note_off_c, 1, 38, 0
4, 39264, Note_on_c, 1, 38, 127
4, 39334, Note_off_c, 1, 38, 0
4, 39408, Note_on_c, 1, 35, 127
4, 39446, Note_off_c, 1, 35, 0
4, 39456, Note_on_c, 1, 38, 127
4, 39545, Note_off_c, 1, 38, 0
4, 39552, Note_on_c, 1, 40, 127
4, 39614, Note_off_c, 1, 40, 0
4, 39648, Note_on_c, 1, 40, 122
4, 39721, Note_off_c, 1, 40, 0
4, 39744, Note_on_c, 1, 37, 110
4, 39835, Note_off_c, 1, 37, 0
4, 39840, Note_on_c, 1, 40, 113
4, 39936, Note_on_c, 1, 33, 127
4, 39948, Note_off_c, 1, 40, 0
4, 40091, Note_off_c, 1, 33, 0
4, 40320, Note_on_c, 1, 38, 127
4, 40376, Note_off_c, 1, 38, 0
4, 40416, Note_on_c, 1, 38, 127
4, 40472, Note_off_c, 1, 38, 0
4, 40512, Note_on_c, 1, 38, 127
4, 40569, Note_off_c, 1, 38, 0
4, 40608, Note_on_c, 1, 38, 127
4, 40668, Note_off_c, 1, 38, 0
4, 40704, Note_on_c, 1, 33, 127
4, 40752, Note_off_c, 1, 33, 0
4, 40800, Note_on_c, 1, 33, 117
4, 40862, Note_off_c, 1, 33, 0
4, 40896, Note_on_c, 1, 37, 110
4, 40958, Note_off_c, 1, 37, 0
4, 40992, Note_on_c, 1, 40, 113
4, 41057, Note_off_c, 1, 40, 0
4, 41088, Note_on_c, 1, 45, 117
4, 41142, Note_off_c, 1, 45, 0
4, 41184, Note_on_c, 1, 45, 104
4, 41240, Note_off_c, 1, 45, 0
4, 41280, Note_on_c, 1, 45, 97
4, 41332, Note_off_c, 1, 45, 0
4, 41376, Note_on_c, 1, 45, 108
4, 41435, Note_off_c, 1, 45, 0
4, 41472, Note_on_c, 1, 33, 127
4, 41499, Note_off_c, 1, 33, 0
4, 41568, Note_on_c, 1, 33, 127
4, 41652, Note_off_c, 1, 33, 0
4, 41664, Note_on_c, 1, 28, 108
4, 41750, Note_off_c, 1, 28, 0
4, 41760, Note_on_c, 1, 33, 122
4, 41844, Note_off_c, 1, 33, 0
4, 41856, Note_on_c, 1, 32, 110
4, 41880, Note_off_c, 1, 32, 0
4, 41952, Note_on_c, 1, 32, 127
4, 42048, Note_on_c, 1, 40, 127
4, 42054, Note_off_c, 1, 32, 0
4, 42227, Note_off_c, 1, 40, 0
4, 42240, Note_on_c, 1, 30, 127
4, 42265, Note_off_c, 1, 30, 0
4, 42336, Note_on_c, 1, 30, 110
4, 42427, Note_off_c, 1, 30, 0
4, 42432, Note_on_c, 1, 28, 101
4, 42528, Note_on_c, 1, 30, 110
4, 42534, Note_off_c, 1, 28, 0
4, 42555, Note_off_c, 1, 30, 0
4, 42624, Note_on_c, 1, 30, 127
4, 42651, Note_off_c, 1, 30, 0
4, 42720, Note_on_c, 1, 30, 110
4, 42806, Note_off_c, 1, 30, 0
4, 42816, Note_on_c, 1, 28, 113
4, 42912, Note_on_c, 1, 30, 127
4, 42920, Note_off_c, 1, 28, 0
4, 42952, Note_off_c, 1, 30, 0
4, 43008, Note_on_c, 1, 33, 127
4, 43035, Note_off_c, 1, 33, 0
4, 43104, Note_on_c, 1, 33, 127
4, 43188, Note_off_c, 1, 33, 0
4, 43200, Note_on_c, 1, 28, 108
4, 43286, Note_off_c, 1, 28, 0
4, 43296, Note_on_c, 1, 33, 122
4, 43380, Note_off_c, 1, 33, 0
4, 43392, Note_on_c, 1, 32, 110
4, 43416, Note_off_c, 1, 32, 0
4, 43488, Note_on_c, 1, 32, 127
4, 43584, Note_on_c, 1, 40, 127
4, 43590, Note_off_c, 1, 32, 0
4, 43763, Note_off_c, 1, 40, 0
4, 43776, Note_on_c, 1, 30, 127
4, 43801, Note_off_c, 1, 30, 0
4, 43872, Note_on_c, 1, 30, 110
4, 43963, Note_off_c, 1, 30, 0
4, 43968, Note_on_c, 1, 28, 101
4, 44064, Note_on_c, 1, 30, 110
4, 44070, Note_off_c, 1, 28, 0
4, 44091, Note_off_c, 1, 30, 0
4, 44160, Note_on_c, 1, 30, 127
4, 44187, Note_off_c, 1, 30, 0
4, 44256, Note_on_c, 1, 30, 110
4, 44342, Note_off_c, 1, 30, 0
4, 44352, Note_on_c, 1, 28, 113
4, 44448, Note_on_c, 1, 30, 127
4, 44456, Note_off_c, 1, 28, 0
4, 44488, Note_off_c, 1, 30, 0
4, 44544, Note_on_c, 1, 33, 117
4, 44604, Note_off_c, 1, 33, 0
4, 44640, Note_on_c, 1, 33, 113
4, 44723, Note_off_c, 1, 33, 0
4, 44928, Note_on_c, 1, 33, 117
4, 44980, Note_off_c, 1, 33, 0
4, 45024, Note_on_c, 1, 33, 108
4, 45073, Note_off_c, 1, 33, 0
4, 45120, Note_on_c, 1, 40, 117
4, 45259, Note_off_c, 1, 40, 0
4, 45312, Note_on_c, 1, 33, 117
4, 45363, Note_off_c, 1, 33, 0
4, 45408, Note_on_c, 1, 33, 117
4, 45497, Note_off_c, 1, 33, 0
4, 45696, Note_on_c, 1, 33, 117
4, 45745, Note_off_c, 1, 33, 0
4, 45792, Note_on_c, 1, 33, 117
4, 45833, Note_off_c, 1, 33, 0
4, 45888, Note_on_c, 1, 40, 127
4, 46012, Note_off_c, 1, 40, 0
4, 46080, Note_on_c, 1, 33, 117
4, 46132, Note_off_c, 1, 33, 0
4, 46176, Note_on_c, 1, 33, 122
4, 46265, Note_off_c, 1, 33, 0
4, 46464, Note_on_c, 1, 37, 127
4, 46656, Note_off_c, 1, 37, 0
4, 46656, Note_on_c, 1, 33, 108
4, 46752, Note_on_c, 1, 35, 127
4, 46768, Note_off_c, 1, 33, 0
4, 46880, Note_off_c, 1, 35, 0
4, 46944, Note_on_c, 1, 30, 91
4, 47040, Note_off_c, 1, 30, 0
4, 47040, Note_on_c, 1, 33, 83
4, 47136, Note_off_c, 1, 33, 0
4, 47136, Note_on_c, 1, 35, 79
4, 47232, Note_off_c, 1, 35, 0
4, 47232, Note_on_c, 1, 37, 95
4, 47424, Note_off_c, 1, 37, 0
4, 47424, Note_on_c, 1, 33, 104
4, 47520, Note_off_c, 1, 33, 0
4, 47520, Note_on_c, 1, 35, 117
4, 47808, Note_off_c, 1, 35, 0
4, 47993, Note_on_c, 1, 38, 127
4, 48091, Pitch_bend_c, 1, 7398
4, 48102, Pitch_bend_c, 1, 6077
4, 48113, Pitch_bend_c, 1, 5284
4, 48124, Pitch_bend_c, 1, 4756
4, 48144, Pitch_bend_c, 1, 4491
4, 48166, Pitch_bend_c, 1, 5284
4, 48177, Pitch_bend_c, 1, 7134
4, 48190, Pitch_bend_c, 1, 8192
4, 48294, Pitch_bend_c, 1, 6605
4, 48305, Pitch_bend_c, 1, 5020
4, 48316, Pitch_bend_c, 1, 4491
4, 48328, Pitch_bend_c, 1, 4227
4, 48365, Note_off_c, 1, 38, 0
4, 48368, Pitch_bend_c, 1, 4756
4, 48379, Pitch_bend_c, 1, 6869
4, 48384, Note_on_c, 1, 33, 117
4, 48390, Pitch_bend_c, 1, 8192
4, 48444, Note_off_c, 1, 33, 0
4, 48480, Note_on_c, 1, 33, 113
4, 48563, Note_off_c, 1, 33, 0
4, 48768, Note_on_c, 1, 33, 117
4, 48820, Note_off_c, 1, 33, 0
4, 48864, Note_on_c, 1, 33, 108
4, 48913, Note_off_c, 1, 33, 0
4, 48960, Note_on_c, 1, 40, 117
4, 49099, Note_off_c, 1, 40, 0
4, 49152, Note_on_c, 1, 33, 117
4, 49203, Note_off_c, 1, 33, 0
4, 49248, Note_on_c, 1, 33, 117
4, 49337, Note_off_c, 1, 33, 0
4, 49536, Note_on_c, 1, 33, 117
4, 49585, Note_off_c, 1, 33, 0
4, 49632, Note_on_c, 1, 33, 117
4, 49673, Note_off_c, 1, 33, 0
4, 49728, Note_on_c, 1, 40, 127
4, 49852, Note_off_c, 1, 40, 0
4, 49920, Note_on_c, 1, 33, 117
4, 49972, Note_off_c, 1, 33, 0
4, 50016, Note_on_c, 1, 33, 122
4, 50105, Note_off_c, 1, 33, 0
4, 50304, Note_on_c, 1, 37, 127
4, 50496, Note_off_c, 1, 37, 0
4, 50496, Note_on_c, 1, 33, 108
4, 50592, Note_on_c, 1, 35, 127
4, 50608, Note_off_c, 1, 33, 0
4, 50720, Note_off_c, 1, 35, 0
4, 50784, Note_on_c, 1, 30, 110
4, 50880, Note_on_c, 1, 33, 104
4, 50884, Note_off_c, 1, 30, 0
4, 50971, Note_off_c, 1, 33, 0
4, 50976, Note_on_c, 1, 35, 122
4, 51068, Note_off_c, 1, 35, 0
4, 51072, Note_on_c, 1, 37, 100
4, 51134, Note_off_c, 1, 37, 0
4, 51168, Note_on_c, 1, 37, 95
4, 51262, Note_off_c, 1, 37, 0
4, 51264, Note_on_c, 1, 33, 127
4, 51345, Note_off_c, 1, 33, 0
4, 51360, Note_on_c, 1, 35, 127
4, 51552, Note_on_c, 1, 30, 100
4, 51558, Note_off_c, 1, 35, 0
4, 51648, Note_on_c, 1, 33, 108
4, 51652, Note_off_c, 1, 30, 0
4, 51744, Note_on_c, 1, 35, 113
4, 51745, Note_off_c, 1, 33, 0
4, 51840, Note_off_c, 1, 35, 0
4, 51840, Note_on_c, 1, 38, 127
4, 51972, Note_off_c, 1, 38, 0
4, 52032, Note_on_c, 1, 38, 127
4, 52137, Note_off_c, 1, 38, 0
4, 52224, Note_on_c, 1, 28, 127
4, 52416, Note_off_c, 1, 28, 0
4, 52416, Note_on_c, 1, 40, 127
4, 52580, Note_off_c, 1, 40, 0
4, 52608, Note_on_c, 1, 28, 127
4, 52788, Note_off_c, 1, 28, 0
4, 52800, Note_on_c, 1, 40, 127
4, 52971, Note_off_c, 1, 40, 0
4, 52992, Note_on_c, 1, 38, 127
4, 53083, Note_off_c, 1, 38, 0
4, 53088, Note_on_c, 1, 45, 127
4, 53184, Note_on_c, 1, 48, 127
4, 53201, Note_off_c, 1, 45, 0
4, 53280, Note_on_c, 1, 45, 127
4, 53292, Note_off_c, 1, 48, 0
4, 53376, Note_on_c, 1, 38, 127
4, 53380, Note_off_c, 1, 45, 0
4, 53465, Note_off_c, 1, 38, 0
4, 53472, Note_on_c, 1, 45, 127
4, 53568, Note_on_c, 1, 48, 127
4, 53572, Note_off_c, 1, 45, 0
4, 53664, Note_on_c, 1, 45, 127
4, 53668, Note_off_c, 1, 48, 0
4, 53739, Note_off_c, 1, 45, 0
4, 53760, Note_on_c, 1, 45, 127
4, 53790, Note_off_c, 1, 45, 0
4, 53856, Note_on_c, 1, 45, 127
4, 53952, Note_off_c, 1, 45, 0
4, 53952, Note_on_c, 1, 40, 122
4, 54046, Note_off_c, 1, 40, 0
4, 54048, Note_on_c, 1, 45, 117
4, 54142, Note_off_c, 1, 45, 0
4, 54144, Note_on_c, 1, 44, 110
4, 54168, Note_off_c, 1, 44, 0
4, 54240, Note_on_c, 1, 44, 127
4, 54336, Note_on_c, 1, 40, 113
4, 54340, Note_off_c, 1, 44, 0
4, 54427, Note_off_c, 1, 40, 0
4, 54432, Note_on_c, 1, 44, 110
4, 54523, Note_off_c, 1, 44, 0
4, 54528, Note_on_c, 1, 42, 110
4, 54561, Note_off_c, 1, 42, 0
4, 54624, Note_on_c, 1, 42, 127
4, 54664, Note_off_c, 1, 42, 0
4, 54672, Note_on_c, 1, 40, 108
4, 54720, Note_on_c, 1, 42, 104
4, 54732, Note_off_c, 1, 40, 0
4, 54753, Note_off_c, 1, 42, 0
4, 54816, Note_on_c, 1, 42, 110
4, 54854, Note_off_c, 1, 42, 0
4, 54864, Note_on_c, 1, 40, 117
4, 54912, Note_on_c, 1, 42, 110
4, 54924, Note_off_c, 1, 40, 0
4, 54945, Note_off_c, 1, 42, 0
4, 55008, Note_on_c, 1, 42, 110
4, 55043, Note_off_c, 1, 42, 0
4, 55056, Note_on_c, 1, 40, 117
4, 55102, Note_off_c, 1, 40, 0
4, 55104, Note_on_c, 1, 42, 110
4, 55140, Note_off_c, 1, 42, 0
4, 55152, Note_on_c, 1, 40, 117
4, 55200, Note_off_c, 1, 40, 0
4, 55200, Note_on_c, 1, 42, 127
4, 55240, Note_off_c, 1, 42, 0
4, 55296, Note_on_c, 1, 45, 127
4, 55326, Note_off_c, 1, 45, 0
4, 55392, Note_on_c, 1, 45, 127
4, 55488, Note_off_c, 1, 45, 0
4, 55488, Note_on_c, 1, 40, 122
4, 55582, Note_off_c, 1, 40, 0
4, 55584, Note_on_c, 1, 45, 117
4, 55678, Note_off_c, 1, 45, 0
4, 55680, Note_on_c, 1, 44, 110
4, 55704, Note_off_c, 1, 44, 0
4, 55776, Note_on_c, 1, 44, 127
4, 55872, Note_on_c, 1, 40, 113
4, 55876, Note_off_c, 1, 44, 0
4, 55963, Note_off_c, 1, 40, 0
4, 55968, Note_on_c, 1, 44, 110
4, 56059, Note_off_c, 1, 44, 0
4, 56064, Note_on_c, 1, 42, 127
4, 56080, Note_off_c, 1, 42, 0
4, 56160, Note_on_c, 1, 42, 110
4, 56235, Note_off_c, 1, 42, 0
4, 56256, Note_on_c, 1, 42, 127
4, 56276, Note_off_c, 1, 42, 0
4, 56352, Note_on_c, 1, 42, 127
4, 56430, Note_off_c, 1, 42, 0
4, 56448, Note_on_c, 1, 37, 127
4, 56464, Note_off_c, 1, 37, 0
4, 56544, Note_on_c, 1, 37, 110
4, 56617, Note_off_c, 1, 37, 0
4, 56640, Note_on_c, 1, 40, 127
4, 56683, Note_off_c, 1, 40, 0
4, 56736, Note_on_c, 1, 40, 127
4, 56769, Note_off_c, 1, 40, 0
4, 56832, Note_on_c, 1, 35, 127
4, 56860, Note_off_c, 1, 35, 0
4, 56928, Note_on_c, 1, 35, 127
4, 57012, Note_off_c, 1, 35, 0
4, 57024, Note_on_c, 1, 30, 104
4, 57120, Note_on_c, 1, 35, 127
4, 57132, Note_off_c, 1, 30, 0
4, 57153, Note_off_c, 1, 35, 0
4, 57216, Note_on_c, 1, 37, 127
4, 57244, Note_off_c, 1, 37, 0
4, 57312, Note_on_c, 1, 37, 127
4, 57342, Note_off_c, 1, 37, 0
4, 57408, Note_on_c, 1, 32, 127
4, 57459, Note_off_c, 1, 32, 0
4, 57504, Note_on_c, 1, 32, 110
4, 57550, Note_off_c, 1, 32, 0
4, 57600, Note_on_c, 1, 38, 127
4, 57646, Note_off_c, 1, 38, 0
4, 57696, Note_on_c, 1, 38, 127
4, 57766, Note_off_c, 1, 38, 0
4, 57840, Note_on_c, 1, 35, 127
4, 57878, Note_off_c, 1, 35, 0
4, 57888, Note_on_c, 1, 38, 127
4, 57977, Note_off_c, 1, 38, 0
4, 57984, Note_on_c, 1, 40, 127
4, 58046, Note_off_c, 1, 40, 0
4, 58080, Note_on_c, 1, 40, 122
4, 58153, Note_off_c, 1, 40, 0
4, 58176, Note_on_c, 1, 37, 110
4, 58267, Note_off_c, 1, 37, 0
4, 58272, Note_on_c, 1, 40, 113
4, 58368, Note_on_c, 1, 33, 127
4, 58380, Note_off_c, 1, 40, 0
4, 58523, Note_off_c, 1, 33, 0
4, 58752, Note_on_c, 1, 38, 127
4, 58808, Note_off_c, 1, 38, 0
4, 58848, Note_on_c, 1, 38, 127
4, 58904, Note_off_c, 1, 38, 0
4, 58944, Note_on_c, 1, 38, 127
4, 59001, Note_off_c, 1, 38, 0
4, 59040, Note_on_c, 1, 38, 127
4, 59100, Note_off_c, 1, 38, 0
4, 59136, Note_on_c, 1, 33, 127
4, 59184, Note_off_c, 1, 33, 0
4, 59232, Note_on_c, 1, 33, 117
4, 59294, Note_off_c, 1, 33, 0
4, 59328, Note_on_c, 1, 37, 110
4, 59390, Note_off_c, 1, 37, 0
4, 59424, Note_on_c, 1, 40, 113
4, 59489, Note_off_c, 1, 40, 0
4, 59520, Note_on_c, 1, 45, 117
4, 59574, Note_off_c, 1, 45, 0
4, 59616, Note_on_c, 1, 45, 104
4, 59672, Note_off_c, 1, 45, 0
4, 59712, Note_on_c, 1, 45, 97
4, 59764, Note_off_c, 1, 45, 0
4, 59808, Note_on_c, 1, 45, 108
4, 59867, Note_off_c, 1, 45, 0
4, 59904, Note_on_c, 1, 33, 117
4, 59964, Note_off_c, 1, 33, 0
4, 60000, Note_on_c, 1, 33, 113
4, 60083, Note_off_c, 1, 33, 0
4, 60288, Note_on_c, 1, 33, 117
4, 60340, Note_off_c, 1, 33, 0
4, 60384, Note_on_c, 1, 33, 108
4, 60433, Note_off_c, 1, 33, 0
4, 60480, Note_on_c, 1, 40, 117
4, 60619, Note_off_c, 1, 40, 0
4, 60672, Note_on_c, 1, 33, 117
4, 60723, Note_off_c, 1, 33, 0
4, 60768, Note_on_c, 1, 33, 117
4, 60857, Note_off_c, 1, 33, 0
4, 61056, Note_on_c, 1, 33, 117
4, 61105, Note_off_c, 1, 33, 0
4, 61152, Note_on_c, 1, 33, 117
4, 61193, Note_off_c, 1, 33, 0
4, 61248, Note_on_c, 1, 40, 127
4, 61372, Note_off_c, 1, 40, 0
4, 61440, Note_on_c, 1, 33, 117
4, 61492, Note_off_c, 1, 33, 0
4, 61536, Note_on_c, 1, 33, 122
4, 61625, Note_off_c, 1, 33, 0
4, 61824, Note_on_c, 1, 37, 127
4, 62016, Note_off_c, 1, 37, 0
4, 62016, Note_on_c, 1, 33, 108
4, 62112, Note_on_c, 1, 35, 127
4, 62128, Note_off_c, 1, 33, 0
4, 62240, Note_off_c, 1, 35, 0
4, 62304, Note_on_c, 1, 30, 91
4, 62400, Note_off_c, 1, 30, 0
4, 62400, Note_on_c, 1, 33, 83
4, 62496, Note_off_c, 1, 33, 0
4, 62496, Note_on_c, 1, 35, 79
4, 62592, Note_off_c, 1, 35, 0
4, 62592, Note_on_c, 1, 37, 95
4, 62784, Note_off_c, 1, 37, 0
4, 62784, Note_on_c, 1, 33, 104
4, 62880, Note_off_c, 1, 33, 0
4, 62880, Note_on_c, 1, 35, 117
4, 63168, Note_off_c, 1, 35, 0
4, 63353, Note_on_c, 1, 38, 127
4, 63451, Pitch_bend_c, 1, 7398
4, 63462, Pitch_bend_c, 1, 6077
4, 63473, Pitch_bend_c, 1, 5284
4, 63484, Pitch_bend_c, 1, 4756
4, 63504, Pitch_bend_c, 1, 4491
4, 63526, Pitch_bend_c, 1, 5284
4, 63537, Pitch_bend_c, 1, 7134
4, 63550, Pitch_bend_c, 1, 8192
4, 63654, Pitch_bend_c, 1, 6605
4, 63665, Pitch_bend_c, 1, 5020
4, 63676, Pitch_bend_c, 1, 4491
4, 63688, Pitch_bend_c, 1, 4227
4, 63725, Note_off_c, 1, 38, 0
4, 63728, Pitch_bend_c, 1, 4756
4, 63739, Pitch_bend_c, 1, 6869
4, 63744, Note_on_c, 1, 33, 117
4, 63750, Pitch_bend_c, 1, 8192
4, 63804, Note_off_c, 1, 33, 0
4, 63840, Note_on_c, 1, 33, 113
4, 63923, Note_off_c, 1, 33, 0
4, 64128, Note_on_c, 1, 33, 117
4, 64180, Note_off_c, 1, 33, 0
4, 64224, Note_on_c, 1, 33, 108
4, 64273, Note_off_c, 1, 33, 0
4, 64320, Note_on_c, 1, 40, 117
4, 64459, Note_off_c, 1, 40, 0
4, 64512, Note_on_c, 1, 33, 117
4, 64563, Note_off_c, 1, 33, 0
4, 64608, Note_on_c, 1, 33, 117
4, 64697, Note_off_c, 1, 33, 0
4, 64896, Note_on_c, 1, 33, 117
4, 64945, Note_off_c, 1, 33, 0
4, 64992, Note_on_c, 1, 33, 117
4, 65033, Note_off_c, 1, 33, 0
4, 65088, Note_on_c, 1, 40, 127
4, 65212, Note_off_c, 1, 40, 0
4, 65280, Note_on_c, 1, 33, 117
4, 65332, Note_off_c, 1, 33, 0
4, 65376, Note_on_c, 1, 33, 122
4, 65465, Note_off_c, 1, 33, 0
4, 65664, Note_on_c, 1, 37, 127
4, 65856, Note_off_c, 1, 37, 0
4, 65856, Note_on_c, 1, 33, 108
4, 65952, Note_on_c, 1, 35, 127
4, 65968, Note_off_c, 1, 33, 0
4, 66080, Note_off_c, 1, 35, 0
4, 66144, Note_on_c, 1, 30, 110
4, 66240, Note_on_c, 1, 33, 104
4, 66244, Note_off_c, 1, 30, 0
4, 66331, Note_off_c, 1, 33, 0
4, 66336, Note_on_c, 1, 35, 122
4, 66428, Note_off_c, 1, 35, 0
4, 66432, Note_on_c, 1, 37, 100
4, 66494, Note_off_c, 1, 37, 0
4, 66528, Note_on_c, 1, 37, 95
4, 66622, Note_off_c, 1, 37, 0
4, 66624, Note_on_c, 1, 33, 127
4, 66705, Note_off_c, 1, 33, 0
4, 66720, Note_on_c, 1, 35, 127
4, 66912, Note_on_c, 1, 30, 100
4, 66918, Note_off_c, 1, 35, 0
4, 67008, Note_on_c, 1, 33, 108
4, 67012, Note_off_c, 1, 30, 0
4, 67104, Note_on_c, 1, 35, 113
4, 67105, Note_off_c, 1, 33, 0
4, 67200, Note_off_c, 1, 35, 0
4, 67200, Note_on_c, 1, 38, 127
4, 67332, Note_off_c, 1, 38, 0
4, 67392, Note_on_c, 1, 38, 127
4, 67497, Note_off_c, 1, 38, 0
4, 67584, Note_on_c, 1, 28, 127
4, 67776, Note_off_c, 1, 28, 0
4, 67776, Note_on_c, 1, 40, 127
4, 67940, Note_off_c, 1, 40, 0
4, 67968, Note_on_c, 1, 28, 127
4, 68148, Note_off_c, 1, 28, 0
4, 68160, Note_on_c, 1, 40, 127
4, 68331, Note_off_c, 1, 40, 0
4, 68352, Note_on_c, 1, 38, 127
4, 68443, Note_off_c, 1, 38, 0
4, 68448, Note_on_c, 1, 45, 127
4, 68544, Note_on_c, 1, 48, 127
4, 68561, Note_off_c, 1, 45, 0
4, 68640, Note_on_c, 1, 45, 127
4, 68652, Note_off_c, 1, 48, 0
4, 68736, Note_on_c, 1, 38, 127
4, 68740, Note_off_c, 1, 45, 0
4, 68825, Note_off_c, 1, 38, 0
4, 68832, Note_on_c, 1, 45, 127
4, 68928, Note_on_c, 1, 48, 127
4, 68932, Note_off_c, 1, 45, 0
4, 69024, Note_on_c, 1, 45, 127
4, 69028, Note_off_c, 1, 48, 0
4, 69099, Note_off_c, 1, 45, 0
4, 69120, Note_on_c, 1, 33, 127
4, 69147, Note_off_c, 1, 33, 0
4, 69216, Note_on_c, 1, 33, 127
4, 69300, Note_off_c, 1, 33, 0
4, 69312, Note_on_c, 1, 28, 108
4, 69398, Note_off_c, 1, 28, 0
4, 69408, Note_on_c, 1, 33, 122
4, 69492, Note_off_c, 1, 33, 0
4, 69504, Note_on_c, 1, 32, 110
4, 69528, Note_off_c, 1, 32, 0
4, 69600, Note_on_c, 1, 32, 127
4, 69696, Note_on_c, 1, 40, 127
4, 69702, Note_off_c, 1, 32, 0
4, 69875, Note_off_c, 1, 40, 0
4, 69888, Note_on_c, 1, 30, 127
4, 69913, Note_off_c, 1, 30, 0
4, 69984, Note_on_c, 1, 30, 110
4, 70075, Note_off_c, 1, 30, 0
4, 70080, Note_on_c, 1, 28, 101
4, 70176, Note_on_c, 1, 30, 110
4, 70182, Note_off_c, 1, 28, 0
4, 70203, Note_off_c, 1, 30, 0
4, 70272, Note_on_c, 1, 30, 127
4, 70299, Note_off_c, 1, 30, 0
4, 70368, Note_on_c, 1, 30, 110
4, 70454, Note_off_c, 1, 30, 0
4, 70464, Note_on_c, 1, 28, 113
4, 70560, Note_on_c, 1, 30, 127
4, 70568, Note_off_c, 1, 28, 0
4, 70600, Note_off_c, 1, 30, 0
4, 70656, Note_on_c, 1, 33, 127
4, 70683, Note_off_c, 1, 33, 0
4, 70752, Note_on_c, 1, 33, 127
4, 70836, Note_off_c, 1, 33, 0
4, 70848, Note_on_c, 1, 28, 108
4, 70934, Note_off_c, 1, 28, 0
4, 70944, Note_on_c, 1, 33, 122
4, 71028, Note_off_c, 1, 33, 0
4, 71040, Note_on_c, 1, 32, 110
4, 71064, Note_off_c, 1, 32, 0
4, 71136, Note_on_c, 1, 32, 127
4, 71232, Note_on_c, 1, 40, 127
4, 71238, Note_off_c, 1, 32, 0
4, 71411, Note_off_c, 1, 40, 0
4, 71424, Note_on_c, 1, 30, 127
4, 71449, Note_off_c, 1, 30, 0
4, 71520, Note_on_c, 1, 30, 110
4, 71611, Note_off_c, 1, 30, 0
4, 71616, Note_on_c, 1, 28, 101
4, 71712, Note_on_c, 1, 30, 110
4, 71718, Note_off_c, 1, 28, 0
4, 71739, Note_off_c, 1, 30, 0
4, 71808, Note_on_c, 1, 30, 127
4, 71835, Note_off_c, 1, 30, 0
4, 71904, Note_on_c, 1, 30, 110
4, 71990, Note_off_c, 1, 30, 0
4, 72000, Note_on_c, 1, 28, 113
4, 72096, Note_on_c, 1, 30, 127
4, 72104, Note_off_c, 1, 28, 0
4, 72136, Note_off_c, 1, 30, 0
4, 72192, Note_on_c, 1, 33, 127
4, 72219, Note_off_c, 1, 33, 0
4, 72288, Note_on_c, 1, 33, 127
4, 72372, Note_off_c, 1, 33, 0
4, 72384, Note_on_c, 1, 28, 108
4, 72470, Note_off_c, 1, 28, 0
4, 72480, Note_on_c, 1, 33, 122
4, 72564, Note_off_c, 1, 33, 0
4, 72576, Note_on_c, 1, 32, 110
4, 72600, Note_off_c, 1, 32, 0
4, 72672, Note_on_c, 1, 32, 127
4, 72768, Note_on_c, 1, 40, 127
4, 72774, Note_off_c, 1, 32, 0
4, 72947, Note_off_c, 1, 40, 0
4, 72960, Note_on_c, 1, 30, 127
4, 72985, Note_off_c, 1, 30, 0
4, 73056, Note_on_c, 1, 30, 110
4, 73147, Note_off_c, 1, 30, 0
4, 73152, Note_on_c, 1, 28, 101
4, 73248, Note_on_c, 1, 30, 110
4, 73254, Note_off_c, 1, 28, 0
4, 73275, Note_off_c, 1, 30, 0
4, 73344, Note_on_c, 1, 30, 127
4, 73371, Note_off_c, 1, 30, 0
4, 73440, Note_on_c, 1, 30, 110
4, 73526, Note_off_c, 1, 30, 0
4, 73536, Note_on_c, 1, 28, 113
4, 73632, Note_on_c, 1, 30, 127
4, 73640, Note_off_c, 1, 28, 0
4, 73672, Note_off_c, 1, 30, 0
4, 73728, Note_on_c, 1, 33, 127
4, 73755, Note_off_c, 1, 33, 0
4, 73824, Note_on_c, 1, 33, 127
4, 73908, Note_off_c, 1, 33, 0
4, 73920, Note_on_c, 1, 28, 108
4, 74006, Note_off_c, 1, 28, 0
4, 74016, Note_on_c, 1, 33, 122
4, 74100, Note_off_c, 1, 33, 0
4, 74112, Note_on_c, 1, 32, 110
4, 74136, Note_off_c, 1, 32, 0
4, 74208, Note_on_c, 1, 32, 127
4, 74304, Note_on_c, 1, 40, 127
4, 74310, Note_off_c, 1, 32, 0
4, 74483, Note_off_c, 1, 40, 0
4, 74496, Note_on_c, 1, 32, 110
4, 74547, Note_off_c, 1, 32, 0
4, 74592, Note_on_c, 1, 32, 110
4, 74720, Note_off_c, 1, 32, 0
4, 74880, Note_on_c, 1, 31, 127
4, 74932, Note_off_c, 1, 31, 0
4, 74976, Note_on_c, 1, 31, 127
4, 75116, Note_off_c, 1, 31, 0
4, 75264, Note_on_c, 1, 30, 127
4, 75315, Note_off_c, 1, 30, 0
4, 75360, Note_on_c, 1, 30, 127
4, 75486, Note_off_c, 1, 30, 0
4, 75648, Note_on_c, 1, 29, 127
4, 75713, Note_off_c, 1, 29, 0
4, 75744, Note_on_c, 1, 29, 122
4, 75801, Note_off_c, 1, 29, 0
4, 75888, Note_on_c, 1, 28, 127
4, 75996, Note_off_c, 1, 28, 0
4, 76145, Note_on_c, 1, 33, 127
4, 76692, Note_off_c, 1, 33, 0
4, 76692, End_track
5, 0, Start_track
5, 0, Title_t, "OOHS    "
5, 0, Channel_prefix, 3
5, 0, Control_c, 3, 7, 100
5, 0, Program_c, 3, 2
5, 3931, Note_on_c, 3, 73, 100
5, 3936, Note_on_c, 3, 69, 100
5, 4236, Note_on_c, 3, 68, 100
5, 4240, Note_off_c, 3, 69, 0
5, 4508, Note_on_c, 3, 66, 100
5, 4510, Note_on_c, 3, 71, 100
5, 4511, Note_off_c, 3, 68, 0
5, 4524, Note_off_c, 3, 73, 0
5, 4836, Note_off_c, 3, 71, 0
5, 4837, Note_off_c, 3, 66, 0
5, 4995, Note_on_c, 3, 68, 100
5, 5000, Note_on_c, 3, 73, 100
5, 5172, Note_on_c, 3, 71, 100
5, 5184, Note_off_c, 3, 73, 0
5, 5273, Note_off_c, 3, 68, 0
5, 5276, Note_on_c, 3, 69, 100
5, 5284, Note_off_c, 3, 71, 0
5, 5286, Note_on_c, 3, 64, 100
5, 5572, Note_off_c, 3, 69, 0
5, 5618, Note_off_c, 3, 64, 0
5, 18140, Note_on_c, 3, 61, 104
5, 18183, Note_off_c, 3, 61, 0
5, 18240, Note_on_c, 3, 62, 122
5, 18328, Note_off_c, 3, 62, 0
5, 18433, Note_on_c, 3, 64, 122
5, 18477, Note_off_c, 3, 64, 0
5, 18536, Note_on_c, 3, 64, 117
5, 18579, Note_off_c, 3, 64, 0
5, 18628, Note_on_c, 3, 62, 101
5, 18671, Note_off_c, 3, 62, 0
5, 18715, Note_on_c, 3, 61, 100
5, 18766, Note_off_c, 3, 61, 0
5, 18827, Note_on_c, 3, 62, 113
5, 18884, Note_off_c, 3, 62, 0
5, 18960, Note_on_c, 3, 62, 108
5, 19036, Note_off_c, 3, 62, 0
5, 19108, Note_on_c, 3, 61, 104
5, 19164, Note_off_c, 3, 61, 0
5, 19275, Note_on_c, 3, 61, 100
5, 19561, Note_off_c, 3, 61, 0
5, 19976, Note_on_c, 3, 73, 110
5, 20001, Note_off_c, 3, 73, 0
5, 20067, Note_on_c, 3, 73, 110
5, 20100, Note_off_c, 3, 73, 0
5, 20156, Note_on_c, 3, 71, 117
5, 20189, Note_off_c, 3, 71, 0
5, 20248, Note_on_c, 3, 69, 127
5, 20280, Note_off_c, 3, 69, 0
5, 20363, Note_on_c, 3, 71, 117
5, 20489, Note_off_c, 3, 71, 0
5, 20542, Note_on_c, 3, 69, 104
5, 20564, Note_off_c, 3, 69, 0
5, 20640, Note_on_c, 3, 69, 113
5, 20833, Note_on_c, 3, 66, 65
5, 20852, Note_off_c, 3, 69, 0
5, 20951, Note_off_c, 3, 66, 0
5, 21316, Note_on_c, 3, 69, 127
5, 21359, Note_off_c, 3, 69, 0
5, 21416, Note_on_c, 3, 71, 97
5, 21448, Note_off_c, 3, 71, 0
5, 21510, Note_on_c, 3, 73, 104
5, 21537, Note_off_c, 3, 73, 0
5, 21603, Note_on_c, 3, 73, 104
5, 21636, Note_off_c, 3, 73, 0
5, 21700, Note_on_c, 3, 71, 117
5, 21732, Note_off_c, 3, 71, 0
5, 21792, Note_on_c, 3, 69, 108
5, 21819, Note_off_c, 3, 69, 0
5, 21891, Note_on_c, 3, 71, 113
5, 22020, Note_off_c, 3, 71, 0
5, 22078, Note_on_c, 3, 69, 108
5, 22098, Note_off_c, 3, 69, 0
5, 22179, Note_on_c, 3, 69, 117
5, 22361, Note_on_c, 3, 66, 65
5, 22366, Note_off_c, 3, 69, 0
5, 22457, Note_off_c, 3, 66, 0
5, 24667, Note_on_c, 3, 73, 100
5, 24672, Note_on_c, 3, 69, 100
5, 24972, Note_on_c, 3, 68, 100
5, 24976, Note_off_c, 3, 69, 0
5, 25244, Note_on_c, 3, 66, 100
5, 25246, Note_on_c, 3, 71, 100
5, 25247, Note_off_c, 3, 68, 0
5, 25260, Note_off_c, 3, 73, 0
5, 25572, Note_off_c, 3, 71, 0
5, 25573, Note_off_c, 3, 66, 0
5, 25731, Note_on_c, 3, 68, 100
5, 25736, Note_on_c, 3, 73, 100
5, 25908, Note_on_c, 3, 71, 100
5, 25920, Note_off_c, 3, 73, 0
5, 26009, Note_off_c, 3, 68, 0
5, 26012, Note_on_c, 3, 69, 100
5, 26020, Note_off_c, 3, 71, 0
5, 26022, Note_on_c, 3, 64, 100
5, 26308, Note_off_c, 3, 69, 0
5, 26354, Note_off_c, 3, 64, 0
5, 26876, Note_on_c, 3, 69, 127
5, 27056, Pitch_bend_c, 3, 8191
5, 27072, Pitch_bend_c, 3, 7662
5, 27089, Pitch_bend_c, 3, 7134
5, 27100, Pitch_bend_c, 3, 6869
5, 27112, Pitch_bend_c, 3, 6605
5, 27131, Pitch_bend_c, 3, 6341
5, 27140, Pitch_bend_c, 3, 6077
5, 27158, Pitch_bend_c, 3, 5284
5, 27171, Pitch_bend_c, 3, 4756
5, 27180, Pitch_bend_c, 3, 4491
5, 27188, Pitch_bend_c, 3, 4227
5, 27197, Note_off_c, 3, 69, 0
5, 27200, Pitch_bend_c, 3, 3699
5, 27211, Pitch_bend_c, 3, 3963
5, 27224, Pitch_bend_c, 3, 5548
5, 27233, Pitch_bend_c, 3, 7662
5, 27244, Pitch_bend_c, 3, 8192
5, 27552, Note_on_c, 3, 69, 127
5, 27768, Pitch_bend_c, 3, 8191
5, 27785, Pitch_bend_c, 3, 7926
5, 27796, Pitch_bend_c, 3, 7662
5, 27809, Pitch_bend_c, 3, 7398
5, 27820, Pitch_bend_c, 3, 7134
5, 27836, Pitch_bend_c, 3, 6869
5, 27856, Pitch_bend_c, 3, 6341
5, 27873, Pitch_bend_c, 3, 6077
5, 27883, Pitch_bend_c, 3, 5548
5, 27894, Pitch_bend_c, 3, 4756
5, 27902, Pitch_bend_c, 3, 4491
5, 27912, Pitch_bend_c, 3, 3963
5, 27923, Pitch_bend_c, 3, 3434
5, 27940, Pitch_bend_c, 3, 2906
5, 27953, Pitch_bend_c, 3, 2642
5, 27964, Note_off_c, 3, 69, 0
5, 27976, Pitch_bend_c, 3, 2906
5, 27987, Pitch_bend_c, 3, 4491
5, 27998, Pitch_bend_c, 3, 7134
5, 28009, Pitch_bend_c, 3, 8192
5, 28328, Note_on_c, 3, 69, 127
5, 28507, Note_on_c, 3, 73, 100
5, 28512, Note_on_c, 3, 69, 100
5, 28518, Pitch_bend_c, 3, 8191
5, 28534, Pitch_bend_c, 3, 7926
5, 28553, Pitch_bend_c, 3, 7662
5, 28563, Pitch_bend_c, 3, 7398
5, 28576, Pitch_bend_c, 3, 7134
5, 28587, Pitch_bend_c, 3, 6869
5, 28600, Pitch_bend_c, 3, 6605
5, 28617, Pitch_bend_c, 3, 6077
5, 28628, Pitch_bend_c, 3, 5548
5, 28640, Pitch_bend_c, 3, 4756
5, 28651, Pitch_bend_c, 3, 4227
5, 28668, Pitch_bend_c, 3, 3963
5, 28684, Note_off_c, 3, 69, 0
5, 28684, Note_off_c, 3, 69, 0
5, 28686, Pitch_bend_c, 3, 3434
5, 28697, Pitch_bend_c, 3, 2906
5, 28715, Pitch_bend_c, 3, 3963
5, 28726, Pitch_bend_c, 3, 6605
5, 28736, Pitch_bend_c, 3, 8191
5, 28744, Pitch_bend_c, 3, 8192
5, 28812, Note_on_c, 3, 68, 100
5, 29084, Note_on_c, 3, 66, 100
5, 29086, Note_on_c, 3, 71, 100
5, 29087, Note_off_c, 3, 68, 0
5, 29100, Note_off_c, 3, 73, 0
5, 29412, Note_off_c, 3, 71, 0
5, 29413, Note_off_c, 3, 66, 0
5, 29571, Note_on_c, 3, 68, 100
5, 29576, Note_on_c, 3, 73, 100
5, 29748, Note_on_c, 3, 71, 100
5, 29760, Note_off_c, 3, 73, 0
5, 29849, Note_off_c, 3, 68, 0
5, 29852, Note_on_c, 3, 69, 100
5, 29860, Note_off_c, 3, 71, 0
5, 29862, Note_on_c, 3, 64, 100
5, 30148, Note_off_c, 3, 69, 0
5, 30194, Note_off_c, 3, 64, 0
5, 30724, Note_on_c, 3, 64, 117
5, 30764, Note_off_c, 3, 64, 0
5, 30811, Note_on_c, 3, 64, 113
5, 30851, Note_off_c, 3, 64, 0
5, 30900, Note_on_c, 3, 64, 117
5, 30943, Note_off_c, 3, 64, 0
5, 30992, Note_on_c, 3, 64, 122
5, 31035, Note_off_c, 3, 64, 0
5, 31091, Note_on_c, 3, 64, 122
5, 31132, Note_off_c, 3, 64, 0
5, 31188, Note_on_c, 3, 64, 122
5, 31229, Note_off_c, 3, 64, 0
5, 31281, Note_on_c, 3, 64, 122
5, 31324, Note_off_c, 3, 64, 0
5, 31380, Note_on_c, 3, 64, 122
5, 31424, Note_off_c, 3, 64, 0
5, 31478, Note_on_c, 3, 64, 127
5, 31522, Note_off_c, 3, 64, 0
5, 31576, Note_on_c, 3, 64, 122
5, 31619, Note_off_c, 3, 64, 0
5, 31668, Note_on_c, 3, 64, 122
5, 31709, Note_off_c, 3, 64, 0
5, 31769, Note_on_c, 3, 64, 122
5, 31804, Note_off_c, 3, 64, 0
5, 31867, Note_on_c, 3, 64, 127
5, 32030, Note_off_c, 3, 64, 0
5, 32057, Note_on_c, 3, 60, 113
5, 32111, Note_off_c, 3, 60, 0
5, 32156, Note_on_c, 3, 61, 104
5, 32264, Note_on_c, 3, 73, 110
5, 32289, Note_off_c, 3, 73, 0
5, 32295, Note_off_c, 3, 61, 0
5, 32355, Note_on_c, 3, 73, 110
5, 32388, Note_off_c, 3, 73, 0
5, 32444, Note_on_c, 3, 71, 117
5, 32477, Note_off_c, 3, 71, 0
5, 32536, Note_on_c, 3, 69, 127
5, 32568, Note_off_c, 3, 69, 0
5, 32651, Note_on_c, 3, 71, 117
5, 32777, Note_off_c, 3, 71, 0
5, 32830, Note_on_c, 3, 69, 104
5, 32852, Note_off_c, 3, 69, 0
5, 32928, Note_on_c, 3, 69, 113
5, 33121, Note_on_c, 3, 66, 65
5, 33140, Note_off_c, 3, 69, 0
5, 33239, Note_off_c, 3, 66, 0
5, 33604, Note_on_c, 3, 69, 127
5, 33647, Note_off_c, 3, 69, 0
5, 33704, Note_on_c, 3, 71, 97
5, 33736, Note_off_c, 3, 71, 0
5, 33798, Note_on_c, 3, 73, 104
5, 33825, Note_off_c, 3, 73, 0
5, 33891, Note_on_c, 3, 73, 104
5, 33924, Note_off_c, 3, 73, 0
5, 33988, Note_on_c, 3, 71, 117
5, 34020, Note_off_c, 3, 71, 0
5, 34080, Note_on_c, 3, 69, 108
5, 34107, Note_off_c, 3, 69, 0
5, 34179, Note_on_c, 3, 71, 113
5, 34308, Note_off_c, 3, 71, 0
5, 34366, Note_on_c, 3, 69, 108
5, 34386, Note_off_c, 3, 69, 0
5, 34467, Note_on_c, 3, 69, 117
5, 34649, Note_on_c, 3, 66, 65
5, 34654, Note_off_c, 3, 69, 0
5, 34745, Note_off_c, 3, 66, 0
5, 35336, Note_on_c, 3, 69, 113
5, 35512, Pitch_bend_c, 3, 7926
5, 35524, Pitch_bend_c, 3, 7134
5, 35534, Pitch_bend_c, 3, 6605
5, 35542, Pitch_bend_c, 3, 6341
5, 35553, Pitch_bend_c, 3, 5548
5, 35564, Pitch_bend_c, 3, 5020
5, 35568, Note_off_c, 3, 69, 0
5, 35576, Pitch_bend_c, 3, 4227
5, 35587, Pitch_bend_c, 3, 3699
5, 35604, Pitch_bend_c, 3, 3963
5, 35616, Pitch_bend_c, 3, 4756
5, 35628, Pitch_bend_c, 3, 5812
5, 35640, Pitch_bend_c, 3, 7398
5, 35651, Pitch_bend_c, 3, 8192
5, 35702, Note_on_c, 3, 68, 104
5, 35835, Pitch_bend_c, 3, 8191
5, 35846, Pitch_bend_c, 3, 7926
5, 35864, Pitch_bend_c, 3, 7134
5, 35875, Pitch_bend_c, 3, 6605
5, 35892, Pitch_bend_c, 3, 6077
5, 35905, Pitch_bend_c, 3, 5284
5, 35916, Pitch_bend_c, 3, 4756
5, 35924, Note_off_c, 3, 68, 0
5, 35926, Pitch_bend_c, 3, 4491
5, 35945, Pitch_bend_c, 3, 5020
5, 35956, Pitch_bend_c, 3, 5812
5, 35968, Pitch_bend_c, 3, 7398
5, 35979, Pitch_bend_c, 3, 8192
5, 36025, Note_on_c, 3, 66, 91
5, 36436, Note_off_c, 3, 66, 0
5, 36859, Note_on_c, 3, 69, 122
5, 36998, Pitch_bend_c, 3, 8191
5, 37009, Pitch_bend_c, 3, 7926
5, 37020, Pitch_bend_c, 3, 7398
5, 37033, Pitch_bend_c, 3, 6605
5, 37043, Pitch_bend_c, 3, 6077
5, 37054, Pitch_bend_c, 3, 5548
5, 37067, Pitch_bend_c, 3, 4491
5, 37078, Note_off_c, 3, 69, 0
5, 37080, Pitch_bend_c, 3, 3699
5, 37091, Pitch_bend_c, 3, 3170
5, 37120, Pitch_bend_c, 3, 3963
5, 37131, Pitch_bend_c, 3, 5020
5, 37142, Pitch_bend_c, 3, 6869
5, 37155, Pitch_bend_c, 3, 8192
5, 37232, Note_on_c, 3, 68, 104
5, 37371, Pitch_bend_c, 3, 8191
5, 37382, Pitch_bend_c, 3, 7926
5, 37393, Pitch_bend_c, 3, 7398
5, 37404, Pitch_bend_c, 3, 6605
5, 37416, Pitch_bend_c, 3, 6077
5, 37427, Pitch_bend_c, 3, 5284
5, 37440, Pitch_bend_c, 3, 4491
5, 37451, Pitch_bend_c, 3, 3699
5, 37457, Note_off_c, 3, 68, 0
5, 37473, Pitch_bend_c, 3, 4227
5, 37484, Pitch_bend_c, 3, 5548
5, 37497, Pitch_bend_c, 3, 7398
5, 37510, Pitch_bend_c, 3, 8192
5, 37523, Note_on_c, 3, 66, 104
5, 37926, Note_off_c, 3, 66, 0
5, 39644, Note_on_c, 3, 61, 104
5, 39687, Note_off_c, 3, 61, 0
5, 39744, Note_on_c, 3, 62, 122
5, 39832, Note_off_c, 3, 62, 0
5, 39937, Note_on_c, 3, 64, 122
5, 39981, Note_off_c, 3, 64, 0
5, 40040, Note_on_c, 3, 64, 117
5, 40083, Note_off_c, 3, 64, 0
5, 40132, Note_on_c, 3, 62, 101
5, 40175, Note_off_c, 3, 62, 0
5, 40219, Note_on_c, 3, 61, 100
5, 40270, Note_off_c, 3, 61, 0
5, 40331, Note_on_c, 3, 62, 113
5, 40388, Note_off_c, 3, 62, 0
5, 40464, Note_on_c, 3, 62, 108
5, 40540, Note_off_c, 3, 62, 0
5, 40612, Note_on_c, 3, 61, 104
5, 40668, Note_off_c, 3, 61, 0
5, 40779, Note_on_c, 3, 61, 100
5, 41065, Note_off_c, 3, 61, 0
5, 41480, Note_on_c, 3, 73, 110
5, 41505, Note_off_c, 3, 73, 0
5, 41571, Note_on_c, 3, 73, 110
5, 41604, Note_off_c, 3, 73, 0
5, 41660, Note_on_c, 3, 71, 117
5, 41693, Note_off_c, 3, 71, 0
5, 41752, Note_on_c, 3, 69, 127
5, 41784, Note_off_c, 3, 69, 0
5, 41867, Note_on_c, 3, 71, 117
5, 41993, Note_off_c, 3, 71, 0
5, 42046, Note_on_c, 3, 69, 104
5, 42068, Note_off_c, 3, 69, 0
5, 42144, Note_on_c, 3, 69, 113
5, 42337, Note_on_c, 3, 66, 65
5, 42356, Note_off_c, 3, 69, 0
5, 42455, Note_off_c, 3, 66, 0
5, 42820, Note_on_c, 3, 69, 127
5, 42863, Note_off_c, 3, 69, 0
5, 42920, Note_on_c, 3, 71, 97
5, 42952, Note_off_c, 3, 71, 0
5, 43014, Note_on_c, 3, 73, 104
5, 43041, Note_off_c, 3, 73, 0
5, 43107, Note_on_c, 3, 73, 104
5, 43140, Note_off_c, 3, 73, 0
5, 43204, Note_on_c, 3, 71, 117
5, 43236, Note_off_c, 3, 71, 0
5, 43296, Note_on_c, 3, 69, 108
5, 43323, Note_off_c, 3, 69, 0
5, 43395, Note_on_c, 3, 71, 113
5, 43524, Note_off_c, 3, 71, 0
5, 43582, Note_on_c, 3, 69, 108
5, 43602, Note_off_c, 3, 69, 0
5, 43683, Note_on_c, 3, 69, 117
5, 43865, Note_on_c, 3, 66, 65
5, 43870, Note_off_c, 3, 69, 0
5, 43961, Note_off_c, 3, 66, 0
5, 46171, Note_on_c, 3, 73, 100
5, 46176, Note_on_c, 3, 69, 100
5, 46476, Note_on_c, 3, 68, 100
5, 46480, Note_off_c, 3, 69, 0
5, 46748, Note_on_c, 3, 66, 100
5, 46750, Note_on_c, 3, 71, 100
5, 46751, Note_off_c, 3, 68, 0
5, 46764, Note_off_c, 3, 73, 0
5, 47076, Note_off_c, 3, 71, 0
5, 47077, Note_off_c, 3, 66, 0
5, 47235, Note_on_c, 3, 68, 100
5, 47240, Note_on_c, 3, 73, 100
5, 47412, Note_on_c, 3, 71, 100
5, 47424, Note_off_c, 3, 73, 0
5, 47513, Note_off_c, 3, 68, 0
5, 47516, Note_on_c, 3, 69, 100
5, 47524, Note_off_c, 3, 71, 0
5, 47526, Note_on_c, 3, 64, 100
5, 47812, Note_off_c, 3, 69, 0
5, 47858, Note_off_c, 3, 64, 0
5, 48380, Note_on_c, 3, 69, 127
5, 48560, Pitch_bend_c, 3, 8191
5, 48576, Pitch_bend_c, 3, 7662
5, 48593, Pitch_bend_c, 3, 7134
5, 48604, Pitch_bend_c, 3, 6869
5, 48616, Pitch_bend_c, 3, 6605
5, 48635, Pitch_bend_c, 3, 6341
5, 48644, Pitch_bend_c, 3, 6077
5, 48662, Pitch_bend_c, 3, 5284
5, 48675, Pitch_bend_c, 3, 4756
5, 48684, Pitch_bend_c, 3, 4491
5, 48692, Pitch_bend_c, 3, 4227
5, 48701, Note_off_c, 3, 69, 0
5, 48704, Pitch_bend_c, 3, 3699
5, 48715, Pitch_bend_c, 3, 3963
5, 48728, Pitch_bend_c, 3, 5548
5, 48737, Pitch_bend_c, 3, 7662
5, 48748, Pitch_bend_c, 3, 8192
5, 49056, Note_on_c, 3, 69, 127
5, 49272, Pitch_bend_c, 3, 8191
5, 49289, Pitch_bend_c, 3, 7926
5, 49300, Pitch_bend_c, 3, 7662
5, 49313, Pitch_bend_c, 3, 7398
5, 49324, Pitch_bend_c, 3, 7134
5, 49340, Pitch_bend_c, 3, 6869
5, 49360, Pitch_bend_c, 3, 6341
5, 49377, Pitch_bend_c, 3, 6077
5, 49387, Pitch_bend_c, 3, 5548
5, 49398, Pitch_bend_c, 3, 4756
5, 49406, Pitch_bend_c, 3, 4491
5, 49416, Pitch_bend_c, 3, 3963
5, 49427, Pitch_bend_c, 3, 3434
5, 49444, Pitch_bend_c, 3, 2906
5, 49457, Pitch_bend_c, 3, 2642
5, 49468, Note_off_c, 3, 69, 0
5, 49480, Pitch_bend_c, 3, 2906
5, 49491, Pitch_bend_c, 3, 4491
5, 49502, Pitch_bend_c, 3, 7134
5, 49513, Pitch_bend_c, 3, 8192
5, 49832, Note_on_c, 3, 69, 127
5, 50011, Note_on_c, 3, 73, 100
5, 50016, Note_on_c, 3, 69, 100
5, 50022, Pitch_bend_c, 3, 8191
5, 50038, Pitch_bend_c, 3, 7926
5, 50057, Pitch_bend_c, 3, 7662
5, 50067, Pitch_bend_c, 3, 7398
5, 50080, Pitch_bend_c, 3, 7134
5, 50091, Pitch_bend_c, 3, 6869
5, 50104, Pitch_bend_c, 3, 6605
5, 50121, Pitch_bend_c, 3, 6077
5, 50132, Pitch_bend_c, 3, 5548
5, 50144, Pitch_bend_c, 3, 4756
5, 50155, Pitch_bend_c, 3, 4227
5, 50172, Pitch_bend_c, 3, 3963
5, 50188, Note_off_c, 3, 69, 0
5, 50188, Note_off_c, 3, 69, 0
5, 50190, Pitch_bend_c, 3, 3434
5, 50201, Pitch_bend_c, 3, 2906
5, 50219, Pitch_bend_c, 3, 3963
5, 50230, Pitch_bend_c, 3, 6605
5, 50240, Pitch_bend_c, 3, 8191
5, 50248, Pitch_bend_c, 3, 8192
5, 50316, Note_on_c, 3, 68, 100
5, 50588, Note_on_c, 3, 66, 100
5, 50590, Note_on_c, 3, 71, 100
5, 50591, Note_off_c, 3, 68, 0
5, 50604, Note_off_c, 3, 73, 0
5, 50916, Note_off_c, 3, 71, 0
5, 50917, Note_off_c, 3, 66, 0
5, 51075, Note_on_c, 3, 68, 100
5, 51080, Note_on_c, 3, 73, 100
5, 51252, Note_on_c, 3, 71, 100
5, 51264, Note_off_c, 3, 73, 0
5, 51353, Note_off_c, 3, 68, 0
5, 51356, Note_on_c, 3, 69, 100
5, 51364, Note_off_c, 3, 71, 0
5, 51366, Note_on_c, 3, 64, 100
5, 51652, Note_off_c, 3, 69, 0
5, 51698, Note_off_c, 3, 64, 0
5, 61531, Note_on_c, 3, 73, 100
5, 61536, Note_on_c, 3, 69, 100
5, 61836, Note_on_c, 3, 68, 100
5, 61840, Note_off_c, 3, 69, 0
5, 62108, Note_on_c, 3, 66, 100
5, 62110, Note_on_c, 3, 71, 100
5, 62111, Note_off_c, 3, 68, 0
5, 62124, Note_off_c, 3, 73, 0
5, 62436, Note_off_c, 3, 71, 0
5, 62437, Note_off_c, 3, 66, 0
5, 62595, Note_on_c, 3, 68, 100
5, 62600, Note_on_c, 3, 73, 100
5, 62772, Note_on_c, 3, 71, 100
5, 62784, Note_off_c, 3, 73, 0
5, 62873, Note_off_c, 3, 68, 0
5, 62876, Note_on_c, 3, 69, 100
5, 62884, Note_off_c, 3, 71, 0
5, 62886, Note_on_c, 3, 64, 100
5, 63172, Note_off_c, 3, 69, 0
5, 63218, Note_off_c, 3, 64, 0
5, 63740, Note_on_c, 3, 69, 127
5, 63920, Pitch_bend_c, 3, 8191
5, 63936, Pitch_bend_c, 3, 7662
5, 63953, Pitch_bend_c, 3, 7134
5, 63964, Pitch_bend_c, 3, 6869
5, 63976, Pitch_bend_c, 3, 6605
5, 63995, Pitch_bend_c, 3, 6341
5, 64004, Pitch_bend_c, 3, 6077
5, 64022, Pitch_bend_c, 3, 5284
5, 64035, Pitch_bend_c, 3, 4756
5, 64044, Pitch_bend_c, 3, 4491
5, 64052, Pitch_bend_c, 3, 4227
5, 64061, Note_off_c, 3, 69, 0
5, 64064, Pitch_bend_c, 3, 3699
5, 64075, Pitch_bend_c, 3, 3963
5, 64088, Pitch_bend_c, 3, 5548
5, 64097, Pitch_bend_c, 3, 7662
5, 64108, Pitch_bend_c, 3, 8192
5, 64416, Note_on_c, 3, 69, 127
5, 64632, Pitch_bend_c, 3, 8191
5, 64649, Pitch_bend_c, 3, 7926
5, 64660, Pitch_bend_c, 3, 7662
5, 64673, Pitch_bend_c, 3, 7398
5, 64684, Pitch_bend_c, 3, 7134
5, 64700, Pitch_bend_c, 3, 6869
5, 64720, Pitch_bend_c, 3, 6341
5, 64737, Pitch_bend_c, 3, 6077
5, 64747, Pitch_bend_c, 3, 5548
5, 64758, Pitch_bend_c, 3, 4756
5, 64766, Pitch_bend_c, 3, 4491
5, 64776, Pitch_bend_c, 3, 3963
5, 64787, Pitch_bend_c, 3, 3434
5, 64804, Pitch_bend_c, 3, 2906
5, 64817, Pitch_bend_c, 3, 2642
5, 64828, Note_off_c, 3, 69, 0
5, 64840, Pitch_bend_c, 3, 2906
5, 64851, Pitch_bend_c, 3, 4491
5, 64862, Pitch_bend_c, 3, 7134
5, 64873, Pitch_bend_c, 3, 8192
5, 65192, Note_on_c, 3, 69, 127
5, 65371, Note_on_c, 3, 73, 100
5, 65376, Note_on_c, 3, 69, 100
5, 65382, Pitch_bend_c, 3, 8191
5, 65398, Pitch_bend_c, 3, 7926
5, 65417, Pitch_bend_c, 3, 7662
5, 65427, Pitch_bend_c, 3, 7398
5, 65440, Pitch_bend_c, 3, 7134
5, 65451, Pitch_bend_c, 3, 6869
5, 65464, Pitch_bend_c, 3, 6605
5, 65481, Pitch_bend_c, 3, 6077
5, 65492, Pitch_bend_c, 3, 5548
5, 65504, Pitch_bend_c, 3, 4756
5, 65515, Pitch_bend_c, 3, 4227
5, 65532, Pitch_bend_c, 3, 3963
5, 65548, Note_off_c, 3, 69, 0
5, 65548, Note_off_c, 3, 69, 0
5, 65550, Pitch_bend_c, 3, 3434
5, 65561, Pitch_bend_c, 3, 2906
5, 65579, Pitch_bend_c, 3, 3963
5, 65590, Pitch_bend_c, 3, 6605
5, 65600, Pitch_bend_c, 3, 8191
5, 65608, Pitch_bend_c, 3, 8192
5, 65676, Note_on_c, 3, 68, 100
5, 65948, Note_on_c, 3, 66, 100
5, 65950, Note_on_c, 3, 71, 100
5, 65951, Note_off_c, 3, 68, 0
5, 65964, Note_off_c, 3, 73, 0
5, 66276, Note_off_c, 3, 71, 0
5, 66277, Note_off_c, 3, 66, 0
5, 66435, Note_on_c, 3, 68, 100
5, 66440, Note_on_c, 3, 73, 100
5, 66612, Note_on_c, 3, 71, 100
5, 66624, Note_off_c, 3, 73, 0
5, 66713, Note_off_c, 3, 68, 0
5, 66716, Note_on_c, 3, 69, 100
5, 66724, Note_off_c, 3, 71, 0
5, 66726, Note_on_c, 3, 64, 100
5, 67012, Note_off_c, 3, 69, 0
5, 67058, Note_off_c, 3, 64, 0
5, 67588, Note_on_c, 3, 64, 117
5, 67628, Note_off_c, 3, 64, 0
5, 67675, Note_on_c, 3, 64, 113
5, 67715, Note_off_c, 3, 64, 0
5, 67764, Note_on_c, 3, 64, 117
5, 67807, Note_off_c, 3, 64, 0
5, 67856, Note_on_c, 3, 64, 122
5, 67899, Note_off_c, 3, 64, 0
5, 67955, Note_on_c, 3, 64, 122
5, 67996, Note_off_c, 3, 64, 0
5, 68052, Note_on_c, 3, 64, 122
5, 68093, Note_off_c, 3, 64, 0
5, 68145, Note_on_c, 3, 64, 122
5, 68188, Note_off_c, 3, 64, 0
5, 68244, Note_on_c, 3, 64, 122
5, 68288, Note_off_c, 3, 64, 0
5, 68342, Note_on_c, 3, 64, 127
5, 68386, Note_off_c, 3, 64, 0
5, 68440, Note_on_c, 3, 64, 122
5, 68483, Note_off_c, 3, 64, 0
5, 68532, Note_on_c, 3, 64, 122
5, 68573, Note_off_c, 3, 64, 0
5, 68633, Note_on_c, 3, 64, 122
5, 68668, Note_off_c, 3, 64, 0
5, 68731, Note_on_c, 3, 64, 127
5, 68894, Note_off_c, 3, 64, 0
5, 68921, Note_on_c, 3, 60, 113
5, 68975, Note_off_c, 3, 60, 0
5, 69020, Note_on_c, 3, 61, 104
5, 69128, Note_on_c, 3, 73, 110
5, 69153, Note_off_c, 3, 73, 0
5, 69159, Note_off_c, 3, 61, 0
5, 69219, Note_on_c, 3, 73, 110
5, 69252, Note_off_c, 3, 73, 0
5, 69308, Note_on_c, 3, 71, 117
5, 69341, Note_off_c, 3, 71, 0
5, 69400, Note_on_c, 3, 69, 127
5, 69432, Note_off_c, 3, 69, 0
5, 69515, Note_on_c, 3, 71, 117
5, 69641, Note_off_c, 3, 71, 0
5, 69694, Note_on_c, 3, 69, 104
5, 69716, Note_off_c, 3, 69, 0
5, 69792, Note_on_c, 3, 69, 113
5, 69985, Note_on_c, 3, 66, 65
5, 70004, Note_off_c, 3, 69, 0
5, 70103, Note_off_c, 3, 66, 0
5, 70468, Note_on_c, 3, 69, 127
5, 70511, Note_off_c, 3, 69, 0
5, 70568, Note_on_c, 3, 71, 97
5, 70600, Note_off_c, 3, 71, 0
5, 70662, Note_on_c, 3, 73, 104
5, 70689, Note_off_c, 3, 73, 0
5, 70755, Note_on_c, 3, 73, 104
5, 70788, Note_off_c, 3, 73, 0
5, 70852, Note_on_c, 3, 71, 117
5, 70884, Note_off_c, 3, 71, 0
5, 70944, Note_on_c, 3, 69, 108
5, 70971, Note_off_c, 3, 69, 0
5, 71043, Note_on_c, 3, 71, 113
5, 71172, Note_off_c, 3, 71, 0
5, 71230, Note_on_c, 3, 69, 108
5, 71250, Note_off_c, 3, 69, 0
5, 71331, Note_on_c, 3, 69, 117
5, 71513, Note_on_c, 3, 66, 65
5, 71518, Note_off_c, 3, 69, 0
5, 71609, Note_off_c, 3, 66, 0
5, 72200, Note_on_c, 3, 73, 110
5, 72225, Note_off_c, 3, 73, 0
5, 72291, Note_on_c, 3, 73, 110
5, 72324, Note_off_c, 3, 73, 0
5, 72380, Note_on_c, 3, 71, 117
5, 72413, Note_off_c, 3, 71, 0
5, 72472, Note_on_c, 3, 69, 127
5, 72504, Note_off_c, 3, 69, 0
5, 72587, Note_on_c, 3, 71, 117
5, 72713, Note_off_c, 3, 71, 0
5, 72766, Note_on_c, 3, 69, 104
5, 72788, Note_off_c, 3, 69, 0
5, 72864, Note_on_c, 3, 69, 113
5, 73057, Note_on_c, 3, 66, 65
5, 73076, Note_off_c, 3, 69, 0
5, 73175, Note_off_c, 3, 66, 0
5, 73540, Note_on_c, 3, 69, 127
5, 73583, Note_off_c, 3, 69, 0
5, 73640, Note_on_c, 3, 71, 97
5, 73672, Note_off_c, 3, 71, 0
5, 73820, Note_on_c, 3, 73, 110
5, 73858, Note_off_c, 3, 73, 0
5, 73916, Note_on_c, 3, 71, 127
5, 73954, Note_off_c, 3, 71, 0
5, 74006, Note_on_c, 3, 69, 108
5, 74052, Note_off_c, 3, 69, 0
5, 74110, Note_on_c, 3, 71, 127
5, 74236, Note_off_c, 3, 71, 0
5, 74304, Note_on_c, 3, 69, 117
5, 74368, Note_off_c, 3, 69, 0
5, 74396, Note_on_c, 3, 71, 91
5, 74432, Note_off_c, 3, 71, 0
5, 74488, Note_on_c, 3, 72, 122
5, 74534, Note_off_c, 3, 72, 0
5, 74580, Note_on_c, 3, 72, 117
5, 74629, Note_off_c, 3, 72, 0
5, 74683, Note_on_c, 3, 71, 127
5, 74732, Note_off_c, 3, 71, 0
5, 74774, Note_on_c, 3, 69, 108
5, 74825, Note_off_c, 3, 69, 0
5, 74875, Note_on_c, 3, 71, 127
5, 75007, Note_off_c, 3, 71, 0
5, 75067, Note_on_c, 3, 69, 127
5, 75139, Note_off_c, 3, 69, 0
5, 75262, Note_on_c, 3, 72, 127
5, 75310, Note_off_c, 3, 72, 0
5, 75356, Note_on_c, 3, 72, 122
5, 75407, Note_off_c, 3, 72, 0
5, 75452, Note_on_c, 3, 71, 127
5, 75501, Note_off_c, 3, 71, 0
5, 75544, Note_on_c, 3, 69, 117
5, 75595, Note_off_c, 3, 69, 0
5, 75644, Note_on_c, 3, 66, 110
5, 75788, Note_off_c, 3, 66, 0
5, 75849, Note_on_c, 3, 64, 122
5, 75973, Note_off_c, 3, 64, 0
5, 75973, End_track
6, 0, Start_track
6, 0, Title_t, "CLEAN   "
6, 0, Channel_prefix, 5
6, 0, Control_c, 5, 7, 103
6, 0, Program_c, 5, 27
6, 2304, Note_on_c, 5, 45, 127
6, 2355, Note_off_c, 5, 45, 0
6, 2400, Note_on_c, 5, 45, 117
6, 2460, Note_off_c, 5, 45, 0
6, 2496, Note_on_c, 5, 45, 117
6, 2552, Note_off_c, 5, 45, 0
6, 2592, Note_on_c, 5, 45, 108
6, 2654, Note_off_c, 5, 45, 0
6, 2688, Note_on_c, 5, 45, 122
6, 2745, Note_off_c, 5, 45, 0
6, 2784, Note_on_c, 5, 45, 104
6, 2848, Note_off_c, 5, 45, 0
6, 2880, Note_on_c, 5, 45, 117
6, 2944, Note_off_c, 5, 45, 0
6, 2976, Note_on_c, 5, 45, 113
6, 3032, Note_off_c, 5, 45, 0
6, 3072, Note_on_c, 5, 45, 117
6, 3136, Note_off_c, 5, 45, 0
6, 3168, Note_on_c, 5, 45, 117
6, 3224, Note_off_c, 5, 45, 0
6, 3264, Note_on_c, 5, 45, 117
6, 3321, Note_off_c, 5, 45, 0
6, 3360, Note_on_c, 5, 45, 117
6, 3411, Note_off_c, 5, 45, 0
6, 3456, Note_on_c, 5, 45, 127
6, 3507, Note_off_c, 5, 45, 0
6, 3552, Note_on_c, 5, 45, 117
6, 3609, Note_off_c, 5, 45, 0
6, 3648, Note_on_c, 5, 45, 113
6, 3704, Note_off_c, 5, 45, 0
6, 3744, Note_on_c, 5, 45, 108
6, 3792, Note_off_c, 5, 45, 0
6, 3840, Note_on_c, 5, 45, 127
6, 3892, Note_off_c, 5, 45, 0
6, 3936, Note_on_c, 5, 45, 117
6, 3985, Note_off_c, 5, 45, 0
6, 4032, Note_on_c, 5, 45, 127
6, 4080, Note_off_c, 5, 45, 0
6, 4132, Note_on_c, 5, 52, 122
6, 4164, Note_off_c, 5, 52, 0
6, 4176, Note_on_c, 5, 54, 104
6, 4201, Note_off_c, 5, 54, 0
6, 4225, Note_on_c, 5, 56, 110
6, 4265, Note_off_c, 5, 56, 0
6, 4320, Note_on_c, 5, 59, 127
6, 4377, Note_off_c, 5, 59, 0
6, 4510, Note_on_c, 5, 57, 127
6, 4862, Note_off_c, 5, 57, 0
6, 4995, Note_on_c, 5, 56, 127
6, 5033, Note_off_c, 5, 56, 0
6, 5092, Note_on_c, 5, 59, 117
6, 5149, Note_off_c, 5, 59, 0
6, 5275, Note_on_c, 5, 57, 127
6, 5612, Note_off_c, 5, 57, 0
6, 13824, Note_on_c, 5, 45, 127
6, 13860, Note_off_c, 5, 45, 0
6, 13920, Note_on_c, 5, 45, 127
6, 14004, Note_off_c, 5, 45, 0
6, 14016, Note_on_c, 5, 40, 117
6, 14097, Note_off_c, 5, 40, 0
6, 14112, Note_on_c, 5, 45, 117
6, 14206, Note_off_c, 5, 45, 0
6, 14208, Note_on_c, 5, 44, 104
6, 14238, Note_off_c, 5, 44, 0
6, 14304, Note_on_c, 5, 44, 110
6, 14400, Note_on_c, 5, 40, 122
6, 14401, Note_off_c, 5, 44, 0
6, 14496, Note_off_c, 5, 40, 0
6, 14496, Note_on_c, 5, 44, 110
6, 14572, Note_off_c, 5, 44, 0
6, 14592, Note_on_c, 5, 42, 127
6, 15164, Note_off_c, 5, 42, 0
6, 15360, Note_on_c, 5, 45, 127
6, 15390, Note_off_c, 5, 45, 0
6, 15456, Note_on_c, 5, 45, 127
6, 15548, Note_off_c, 5, 45, 0
6, 15552, Note_on_c, 5, 40, 117
6, 15636, Note_off_c, 5, 40, 0
6, 15648, Note_on_c, 5, 45, 122
6, 15744, Note_on_c, 5, 44, 104
6, 15753, Note_off_c, 5, 45, 0
6, 15772, Note_off_c, 5, 44, 0
6, 15840, Note_on_c, 5, 44, 110
6, 15936, Note_on_c, 5, 40, 122
6, 15942, Note_off_c, 5, 44, 0
6, 16028, Note_off_c, 5, 40, 0
6, 16032, Note_on_c, 5, 44, 110
6, 16121, Note_off_c, 5, 44, 0
6, 16128, Note_on_c, 5, 42, 127
6, 16414, Note_off_c, 5, 42, 0
6, 16416, Note_on_c, 5, 42, 83
6, 16486, Note_off_c, 5, 42, 0
6, 16512, Note_on_c, 5, 42, 100
6, 16705, Note_off_c, 5, 42, 0
6, 16896, Note_on_c, 5, 35, 127
6, 17214, Note_off_c, 5, 35, 0
6, 17280, Note_on_c, 5, 37, 127
6, 17616, Note_off_c, 5, 37, 0
6, 17664, Note_on_c, 5, 38, 127
6, 17971, Note_off_c, 5, 38, 0
6, 18048, Note_on_c, 5, 40, 127
6, 18324, Note_off_c, 5, 40, 0
6, 18432, Note_on_c, 5, 33, 127
6, 18494, Note_off_c, 5, 33, 0
6, 18528, Note_on_c, 5, 33, 122
6, 18601, Note_off_c, 5, 33, 0
6, 18816, Note_on_c, 5, 38, 127
6, 18868, Note_off_c, 5, 38, 0
6, 18912, Note_on_c, 5, 38, 127
6, 18979, Note_off_c, 5, 38, 0
6, 19200, Note_on_c, 5, 33, 127
6, 19256, Note_off_c, 5, 33, 0
6, 19296, Note_on_c, 5, 33, 127
6, 19360, Note_off_c, 5, 33, 0
6, 19584, Note_on_c, 5, 33, 117
6, 19681, Note_off_c, 5, 33, 0
6, 23040, Note_on_c, 5, 45, 127
6, 23091, Note_off_c, 5, 45, 0
6, 23136, Note_on_c, 5, 45, 117
6, 23196, Note_off_c, 5, 45, 0
6, 23232, Note_on_c, 5, 45, 117
6, 23288, Note_off_c, 5, 45, 0
6, 23328, Note_on_c, 5, 45, 108
6, 23390, Note_off_c, 5, 45, 0
6, 23424, Note_on_c, 5, 45, 122
6, 23481, Note_off_c, 5, 45, 0
6, 23520, Note_on_c, 5, 45, 104
6, 23584, Note_off_c, 5, 45, 0
6, 23616, Note_on_c, 5, 45, 117
6, 23680, Note_off_c, 5, 45, 0
6, 23712, Note_on_c, 5, 45, 113
6, 23768, Note_off_c, 5, 45, 0
6, 23808, Note_on_c, 5, 45, 117
6, 23872, Note_off_c, 5, 45, 0
6, 23904, Note_on_c, 5, 45, 117
6, 23960, Note_off_c, 5, 45, 0
6, 24000, Note_on_c, 5, 45, 117
6, 24057, Note_off_c, 5, 45, 0
6, 24096, Note_on_c, 5, 45, 117
6, 24147, Note_off_c, 5, 45, 0
6, 24192, Note_on_c, 5, 45, 127
6, 24243, Note_off_c, 5, 45, 0
6, 24288, Note_on_c, 5, 45, 117
6, 24345, Note_off_c, 5, 45, 0
6, 24384, Note_on_c, 5, 45, 113
6, 24440, Note_off_c, 5, 45, 0
6, 24480, Note_on_c, 5, 45, 108
6, 24528, Note_off_c, 5, 45, 0
6, 24576, Note_on_c, 5, 45, 127
6, 24628, Note_off_c, 5, 45, 0
6, 24672, Note_on_c, 5, 45, 117
6, 24721, Note_off_c, 5, 45, 0
6, 24768, Note_on_c, 5, 45, 127
6, 24816, Note_off_c, 5, 45, 0
6, 24868, Note_on_c, 5, 52, 122
6, 24900, Note_off_c, 5, 52, 0
6, 24912, Note_on_c, 5, 54, 104
6, 24937, Note_off_c, 5, 54, 0
6, 24961, Note_on_c, 5, 56, 110
6, 25001, Note_off_c, 5, 56, 0
6, 25056, Note_on_c, 5, 59, 127
6, 25113, Note_off_c, 5, 59, 0
6, 25246, Note_on_c, 5, 57, 127
6, 25598, Note_off_c, 5, 57, 0
6, 26880, Note_on_c, 5, 45, 127
6, 26931, Note_off_c, 5, 45, 0
6, 26976, Note_on_c, 5, 45, 117
6, 27036, Note_off_c, 5, 45, 0
6, 27072, Note_on_c, 5, 45, 117
6, 27128, Note_off_c, 5, 45, 0
6, 27168, Note_on_c, 5, 45, 108
6, 27230, Note_off_c, 5, 45, 0
6, 27264, Note_on_c, 5, 45, 122
6, 27321, Note_off_c, 5, 45, 0
6, 27360, Note_on_c, 5, 45, 104
6, 27424, Note_off_c, 5, 45, 0
6, 27456, Note_on_c, 5, 45, 117
6, 27520, Note_off_c, 5, 45, 0
6, 27552, Note_on_c, 5, 45, 113
6, 27608, Note_off_c, 5, 45, 0
6, 27648, Note_on_c, 5, 45, 117
6, 27712, Note_off_c, 5, 45, 0
6, 27744, Note_on_c, 5, 45, 117
6, 27800, Note_off_c, 5, 45, 0
6, 27840, Note_on_c, 5, 45, 117
6, 27897, Note_off_c, 5, 45, 0
6, 27936, Note_on_c, 5, 45, 117
6, 27987, Note_off_c, 5, 45, 0
6, 28032, Note_on_c, 5, 45, 127
6, 28083, Note_off_c, 5, 45, 0
6, 28128, Note_on_c, 5, 45, 117
6, 28185, Note_off_c, 5, 45, 0
6, 28224, Note_on_c, 5, 45, 113
6, 28280, Note_off_c, 5, 45, 0
6, 28320, Note_on_c, 5, 45, 108
6, 28368, Note_off_c, 5, 45, 0
6, 28416, Note_on_c, 5, 45, 127
6, 28468, Note_off_c, 5, 45, 0
6, 28512, Note_on_c, 5, 45, 117
6, 28561, Note_off_c, 5, 45, 0
6, 28608, Note_on_c, 5, 45, 127
6, 28656, Note_off_c, 5, 45, 0
6, 28708, Note_on_c, 5, 52, 122
6, 28740, Note_off_c, 5, 52, 0
6, 28752, Note_on_c, 5, 54, 104
6, 28777, Note_off_c, 5, 54, 0
6, 28801, Note_on_c, 5, 56, 110
6, 28841, Note_off_c, 5, 56, 0
6, 28896, Note_on_c, 5, 59, 127
6, 28953, Note_off_c, 5, 59, 0
6, 29086, Note_on_c, 5, 57, 127
6, 29438, Note_off_c, 5, 57, 0
6, 29571, Note_on_c, 5, 56, 127
6, 29609, Note_off_c, 5, 56, 0
6, 29668, Note_on_c, 5, 59, 117
6, 29725, Note_off_c, 5, 59, 0
6, 29851, Note_on_c, 5, 57, 127
6, 30188, Note_off_c, 5, 57, 0
6, 35328, Note_on_c, 5, 45, 127
6, 35364, Note_off_c, 5, 45, 0
6, 35424, Note_on_c, 5, 45, 127
6, 35508, Note_off_c, 5, 45, 0
6, 35520, Note_on_c, 5, 40, 117
6, 35601, Note_off_c, 5, 40, 0
6, 35616, Note_on_c, 5, 45, 117
6, 35710, Note_off_c, 5, 45, 0
6, 35712, Note_on_c, 5, 44, 104
6, 35742, Note_off_c, 5, 44, 0
6, 35808, Note_on_c, 5, 44, 110
6, 35904, Note_on_c, 5, 40, 122
6, 35905, Note_off_c, 5, 44, 0
6, 36000, Note_off_c, 5, 40, 0
6, 36000, Note_on_c, 5, 44, 110
6, 36076, Note_off_c, 5, 44, 0
6, 36096, Note_on_c, 5, 42, 127
6, 36668, Note_off_c, 5, 42, 0
6, 36864, Note_on_c, 5, 45, 127
6, 36894, Note_off_c, 5, 45, 0
6, 36960, Note_on_c, 5, 45, 127
6, 37052, Note_off_c, 5, 45, 0
6, 37056, Note_on_c, 5, 40, 117
6, 37140, Note_off_c, 5, 40, 0
6, 37152, Note_on_c, 5, 45, 122
6, 37248, Note_on_c, 5, 44, 104
6, 37257, Note_off_c, 5, 45, 0
6, 37276, Note_off_c, 5, 44, 0
6, 37344, Note_on_c, 5, 44, 110
6, 37440, Note_on_c, 5, 40, 122
6, 37446, Note_off_c, 5, 44, 0
6, 37532, Note_off_c, 5, 40, 0
6, 37536, Note_on_c, 5, 44, 110
6, 37625, Note_off_c, 5, 44, 0
6, 37632, Note_on_c, 5, 42, 127
6, 37918, Note_off_c, 5, 42, 0
6, 37920, Note_on_c, 5, 42, 83
6, 37990, Note_off_c, 5, 42, 0
6, 38016, Note_on_c, 5, 42, 100
6, 38209, Note_off_c, 5, 42, 0
6, 38400, Note_on_c, 5, 35, 127
6, 38718, Note_off_c, 5, 35, 0
6, 38784, Note_on_c, 5, 37, 127
6, 39120, Note_off_c, 5, 37, 0
6, 39168, Note_on_c, 5, 38, 127
6, 39475, Note_off_c, 5, 38, 0
6, 39552, Note_on_c, 5, 40, 127
6, 39828, Note_off_c, 5, 40, 0
6, 39936, Note_on_c, 5, 33, 127
6, 39998, Note_off_c, 5, 33, 0
6, 40032, Note_on_c, 5, 33, 122
6, 40105, Note_off_c, 5, 33, 0
6, 40320, Note_on_c, 5, 38, 127
6, 40372, Note_off_c, 5, 38, 0
6, 40416, Note_on_c, 5, 38, 127
6, 40483, Note_off_c, 5, 38, 0
6, 40704, Note_on_c, 5, 33, 127
6, 40760, Note_off_c, 5, 33, 0
6, 40800, Note_on_c, 5, 33, 127
6, 40864, Note_off_c, 5, 33, 0
6, 41088, Note_on_c, 5, 33, 117
6, 41185, Note_off_c, 5, 33, 0
6, 44544, Note_on_c, 5, 45, 127
6, 44595, Note_off_c, 5, 45, 0
6, 44640, Note_on_c, 5, 45, 117
6, 44700, Note_off_c, 5, 45, 0
6, 44736, Note_on_c, 5, 45, 117
6, 44792, Note_off_c, 5, 45, 0
6, 44832, Note_on_c, 5, 45, 108
6, 44894, Note_off_c, 5, 45, 0
6, 44928, Note_on_c, 5, 45, 122
6, 44985, Note_off_c, 5, 45, 0
6, 45024, Note_on_c, 5, 45, 104
6, 45088, Note_off_c, 5, 45, 0
6, 45120, Note_on_c, 5, 45, 117
6, 45184, Note_off_c, 5, 45, 0
6, 45216, Note_on_c, 5, 45, 113
6, 45272, Note_off_c, 5, 45, 0
6, 45312, Note_on_c, 5, 45, 117
6, 45376, Note_off_c, 5, 45, 0
6, 45408, Note_on_c, 5, 45, 117
6, 45464, Note_off_c, 5, 45, 0
6, 45504, Note_on_c, 5, 45, 117
6, 45561, Note_off_c, 5, 45, 0
6, 45600, Note_on_c, 5, 45, 117
6, 45651, Note_off_c, 5, 45, 0
6, 45696, Note_on_c, 5, 45, 127
6, 45747, Note_off_c, 5, 45, 0
6, 45792, Note_on_c, 5, 45, 117
6, 45849, Note_off_c, 5, 45, 0
6, 45888, Note_on_c, 5, 45, 113
6, 45944, Note_off_c, 5, 45, 0
6, 45984, Note_on_c, 5, 45, 108
6, 46032, Note_off_c, 5, 45, 0
6, 46080, Note_on_c, 5, 45, 127
6, 46132, Note_off_c, 5, 45, 0
6, 46176, Note_on_c, 5, 45, 117
6, 46225, Note_off_c, 5, 45, 0
6, 46272, Note_on_c, 5, 45, 127
6, 46320, Note_off_c, 5, 45, 0
6, 46372, Note_on_c, 5, 52, 122
6, 46404, Note_off_c, 5, 52, 0
6, 46416, Note_on_c, 5, 54, 104
6, 46441, Note_off_c, 5, 54, 0
6, 46465, Note_on_c, 5, 56, 110
6, 46505, Note_off_c, 5, 56, 0
6, 46560, Note_on_c, 5, 59, 127
6, 46617, Note_off_c, 5, 59, 0
6, 46750, Note_on_c, 5, 57, 127
6, 47102, Note_off_c, 5, 57, 0
6, 48384, Note_on_c, 5, 45, 127
6, 48435, Note_off_c, 5, 45, 0
6, 48480, Note_on_c, 5, 45, 117
6, 48540, Note_off_c, 5, 45, 0
6, 48576, Note_on_c, 5, 45, 117
6, 48632, Note_off_c, 5, 45, 0
6, 48672, Note_on_c, 5, 45, 108
6, 48734, Note_off_c, 5, 45, 0
6, 48768, Note_on_c, 5, 45, 122
6, 48825, Note_off_c, 5, 45, 0
6, 48864, Note_on_c, 5, 45, 104
6, 48928, Note_off_c, 5, 45, 0
6, 48960, Note_on_c, 5, 45, 117
6, 49024, Note_off_c, 5, 45, 0
6, 49056, Note_on_c, 5, 45, 113
6, 49112, Note_off_c, 5, 45, 0
6, 49152, Note_on_c, 5, 45, 117
6, 49216, Note_off_c, 5, 45, 0
6, 49248, Note_on_c, 5, 45, 117
6, 49304, Note_off_c, 5, 45, 0
6, 49344, Note_on_c, 5, 45, 117
6, 49401, Note_off_c, 5, 45, 0
6, 49440, Note_on_c, 5, 45, 117
6, 49491, Note_off_c, 5, 45, 0
6, 49536, Note_on_c, 5, 45, 127
6, 49587, Note_off_c, 5, 45, 0
6, 49632, Note_on_c, 5, 45, 117
6, 49689, Note_off_c, 5, 45, 0
6, 49728, Note_on_c, 5, 45, 113
6, 49784, Note_off_c, 5, 45, 0
6, 49824, Note_on_c, 5, 45, 108
6, 49872, Note_off_c, 5, 45, 0
6, 49920, Note_on_c, 5, 45, 127
6, 49972, Note_off_c, 5, 45, 0
6, 50016, Note_on_c, 5, 45, 117
6, 50065, Note_off_c, 5, 45, 0
6, 50112, Note_on_c, 5, 45, 127
6, 50160, Note_off_c, 5, 45, 0
6, 50212, Note_on_c, 5, 52, 122
6, 50244, Note_off_c, 5, 52, 0
6, 50256, Note_on_c, 5, 54, 104
6, 50281, Note_off_c, 5, 54, 0
6, 50305, Note_on_c, 5, 56, 110
6, 50345, Note_off_c, 5, 56, 0
6, 50400, Note_on_c, 5, 59, 127
6, 50457, Note_off_c, 5, 59, 0
6, 50590, Note_on_c, 5, 57, 127
6, 50942, Note_off_c, 5, 57, 0
6, 51075, Note_on_c, 5, 56, 127
6, 51113, Note_off_c, 5, 56, 0
6, 51172, Note_on_c, 5, 59, 117
6, 51229, Note_off_c, 5, 59, 0
6, 51355, Note_on_c, 5, 57, 127
6, 51692, Note_off_c, 5, 57, 0
6, 53760, Note_on_c, 5, 45, 127
6, 53796, Note_off_c, 5, 45, 0
6, 53856, Note_on_c, 5, 45, 127
6, 53940, Note_off_c, 5, 45, 0
6, 53952, Note_on_c, 5, 40, 117
6, 54033, Note_off_c, 5, 40, 0
6, 54048, Note_on_c, 5, 45, 117
6, 54142, Note_off_c, 5, 45, 0
6, 54144, Note_on_c, 5, 44, 104
6, 54174, Note_off_c, 5, 44, 0
6, 54240, Note_on_c, 5, 44, 110
6, 54336, Note_on_c, 5, 40, 122
6, 54337, Note_off_c, 5, 44, 0
6, 54432, Note_off_c, 5, 40, 0
6, 54432, Note_on_c, 5, 44, 110
6, 54508, Note_off_c, 5, 44, 0
6, 54528, Note_on_c, 5, 42, 127
6, 55100, Note_off_c, 5, 42, 0
6, 55296, Note_on_c, 5, 45, 127
6, 55326, Note_off_c, 5, 45, 0
6, 55392, Note_on_c, 5, 45, 127
6, 55484, Note_off_c, 5, 45, 0
6, 55488, Note_on_c, 5, 40, 117
6, 55572, Note_off_c, 5, 40, 0
6, 55584, Note_on_c, 5, 45, 122
6, 55680, Note_on_c, 5, 44, 104
6, 55689, Note_off_c, 5, 45, 0
6, 55708, Note_off_c, 5, 44, 0
6, 55776, Note_on_c, 5, 44, 110
6, 55872, Note_on_c, 5, 40, 122
6, 55878, Note_off_c, 5, 44, 0
6, 55964, Note_off_c, 5, 40, 0
6, 55968, Note_on_c, 5, 44, 110
6, 56057, Note_off_c, 5, 44, 0
6, 56064, Note_on_c, 5, 42, 127
6, 56350, Note_off_c, 5, 42, 0
6, 56352, Note_on_c, 5, 42, 83
6, 56422, Note_off_c, 5, 42, 0
6, 56448, Note_on_c, 5, 42, 100
6, 56641, Note_off_c, 5, 42, 0
6, 56832, Note_on_c, 5, 35, 127
6, 57150, Note_off_c, 5, 35, 0
6, 57216, Note_on_c, 5, 37, 127
6, 57552, Note_off_c, 5, 37, 0
6, 57600, Note_on_c, 5, 38, 127
6, 57907, Note_off_c, 5, 38, 0
6, 57984, Note_on_c, 5, 40, 127
6, 58260, Note_off_c, 5, 40, 0
6, 58369, Note_on_c, 5, 61, 127
6, 58371, Note_on_c, 5, 57, 127
6, 58371, Note_on_c, 5, 67, 122
6, 58410, Note_off_c, 5, 61, 0
6, 58412, Note_off_c, 5, 67, 0
6, 58415, Note_off_c, 5, 57, 0
6, 58468, Note_on_c, 5, 61, 110
6, 58470, Note_on_c, 5, 57, 117
6, 58472, Note_on_c, 5, 67, 113
6, 58506, Note_off_c, 5, 61, 0
6, 58507, Note_off_c, 5, 67, 0
6, 58510, Note_off_c, 5, 57, 0
6, 58564, Note_on_c, 5, 57, 113
6, 58564, Note_on_c, 5, 61, 110
6, 58566, Note_on_c, 5, 67, 113
6, 58597, Note_off_c, 5, 61, 0
6, 58600, Note_off_c, 5, 57, 0
6, 58602, Note_off_c, 5, 67, 0
6, 58656, Note_on_c, 5, 61, 104
6, 58657, Note_on_c, 5, 67, 104
6, 58659, Note_on_c, 5, 57, 117
6, 58692, Note_off_c, 5, 61, 0
6, 58693, Note_off_c, 5, 67, 0
6, 58699, Note_off_c, 5, 57, 0
6, 58753, Note_on_c, 5, 57, 113
6, 58753, Note_on_c, 5, 60, 127
6, 58753, Note_on_c, 5, 66, 100
6, 58755, Note_on_c, 5, 54, 104
6, 58788, Note_off_c, 5, 60, 0
6, 58790, Note_off_c, 5, 54, 0
6, 58796, Note_off_c, 5, 57, 0
6, 58796, Note_off_c, 5, 66, 0
6, 58854, Note_on_c, 5, 66, 100
6, 58856, Note_on_c, 5, 60, 127
6, 58857, Note_on_c, 5, 57, 113
6, 58859, Note_on_c, 5, 54, 110
6, 58920, Note_off_c, 5, 60, 0
6, 58923, Note_off_c, 5, 54, 0
6, 58924, Note_off_c, 5, 66, 0
6, 58933, Note_off_c, 5, 57, 0
6, 59036, Note_on_c, 5, 57, 122
6, 59036, Note_on_c, 5, 61, 110
6, 59041, Note_on_c, 5, 67, 122
6, 59661, Note_off_c, 5, 57, 0
6, 59666, Note_off_c, 5, 61, 0
6, 59666, Note_off_c, 5, 67, 0
6, 59904, Note_on_c, 5, 45, 127
6, 59955, Note_off_c, 5, 45, 0
6, 60000, Note_on_c, 5, 45, 117
6, 60060, Note_off_c, 5, 45, 0
6, 60096, Note_on_c, 5, 45, 117
6, 60152, Note_off_c, 5, 45, 0
6, 60192, Note_on_c, 5, 45, 108
6, 60254, Note_off_c, 5, 45, 0
6, 60288, Note_on_c, 5, 45, 122
6, 60345, Note_off_c, 5, 45, 0
6, 60384, Note_on_c, 5, 45, 104
6, 60448, Note_off_c, 5, 45, 0
6, 60480, Note_on_c, 5, 45, 117
6, 60544, Note_off_c, 5, 45, 0
6, 60576, Note_on_c, 5, 45, 113
6, 60632, Note_off_c, 5, 45, 0
6, 60672, Note_on_c, 5, 45, 117
6, 60736, Note_off_c, 5, 45, 0
6, 60768, Note_on_c, 5, 45, 117
6, 60824, Note_off_c, 5, 45, 0
6, 60864, Note_on_c, 5, 45, 117
6, 60921, Note_off_c, 5, 45, 0
6, 60960, Note_on_c, 5, 45, 117
6, 61011, Note_off_c, 5, 45, 0
6, 61056, Note_on_c, 5, 45, 127
6, 61107, Note_off_c, 5, 45, 0
6, 61152, Note_on_c, 5, 45, 117
6, 61209, Note_off_c, 5, 45, 0
6, 61248, Note_on_c, 5, 45, 113
6, 61304, Note_off_c, 5, 45, 0
6, 61344, Note_on_c, 5, 45, 108
6, 61392, Note_off_c, 5, 45, 0
6, 61440, Note_on_c, 5, 45, 127
6, 61492, Note_off_c, 5, 45, 0
6, 61536, Note_on_c, 5, 45, 117
6, 61585, Note_off_c, 5, 45, 0
6, 61632, Note_on_c, 5, 45, 127
6, 61680, Note_off_c, 5, 45, 0
6, 61732, Note_on_c, 5, 52, 122
6, 61764, Note_off_c, 5, 52, 0
6, 61776, Note_on_c, 5, 54, 104
6, 61801, Note_off_c, 5, 54, 0
6, 61825, Note_on_c, 5, 56, 110
6, 61865, Note_off_c, 5, 56, 0
6, 61920, Note_on_c, 5, 59, 127
6, 61977, Note_off_c, 5, 59, 0
6, 62110, Note_on_c, 5, 57, 127
6, 62462, Note_off_c, 5, 57, 0
6, 63744, Note_on_c, 5, 45, 127
6, 63795, Note_off_c, 5, 45, 0
6, 63840, Note_on_c, 5, 45, 117
6, 63900, Note_off_c, 5, 45, 0
6, 63936, Note_on_c, 5, 45, 117
6, 63992, Note_off_c, 5, 45, 0
6, 64032, Note_on_c, 5, 45, 108
6, 64094, Note_off_c, 5, 45, 0
6, 64128, Note_on_c, 5, 45, 122
6, 64185, Note_off_c, 5, 45, 0
6, 64224, Note_on_c, 5, 45, 104
6, 64288, Note_off_c, 5, 45, 0
6, 64320, Note_on_c, 5, 45, 117
6, 64384, Note_off_c, 5, 45, 0
6, 64416, Note_on_c, 5, 45, 113
6, 64472, Note_off_c, 5, 45, 0
6, 64512, Note_on_c, 5, 45, 117
6, 64576, Note_off_c, 5, 45, 0
6, 64608, Note_on_c, 5, 45, 117
6, 64664, Note_off_c, 5, 45, 0
6, 64704, Note_on_c, 5, 45, 117
6, 64761, Note_off_c, 5, 45, 0
6, 64800, Note_on_c, 5, 45, 117
6, 64851, Note_off_c, 5, 45, 0
6, 64896, Note_on_c, 5, 45, 127
6, 64947, Note_off_c, 5, 45, 0
6, 64992, Note_on_c, 5, 45, 117
6, 65049, Note_off_c, 5, 45, 0
6, 65088, Note_on_c, 5, 45, 113
6, 65144, Note_off_c, 5, 45, 0
6, 65184, Note_on_c, 5, 45, 108
6, 65232, Note_off_c, 5, 45, 0
6, 65280, Note_on_c, 5, 45, 127
6, 65332, Note_off_c, 5, 45, 0
6, 65376, Note_on_c, 5, 45, 117
6, 65425, Note_off_c, 5, 45, 0
6, 65472, Note_on_c, 5, 45, 127
6, 65520, Note_off_c, 5, 45, 0
6, 65572, Note_on_c, 5, 52, 122
6, 65604, Note_off_c, 5, 52, 0
6, 65616, Note_on_c, 5, 54, 104
6, 65641, Note_off_c, 5, 54, 0
6, 65665, Note_on_c, 5, 56, 110
6, 65705, Note_off_c, 5, 56, 0
6, 65760, Note_on_c, 5, 59, 127
6, 65817, Note_off_c, 5, 59, 0
6, 65950, Note_on_c, 5, 57, 127
6, 66302, Note_off_c, 5, 57, 0
6, 66435, Note_on_c, 5, 56, 127
6, 66473, Note_off_c, 5, 56, 0
6, 66532, Note_on_c, 5, 59, 117
6, 66589, Note_off_c, 5, 59, 0
6, 66715, Note_on_c, 5, 57, 127
6, 67052, Note_off_c, 5, 57, 0
6, 67052, End_track
7, 0, Start_track
7, 0, Title_t, "RIGHT GUI"
7, 0, Channel_prefix, 6
7, 0, Control_c, 6, 7, 95
7, 0, Program_c, 6, 26
7, 1596, Pitch_bend_c, 6, 7662
7, 1608, Pitch_bend_c, 6, 3699
7, 1619, Pitch_bend_c, 6, 0
7, 2400, Note_on_c, 6, 69, 127
7, 2435, Pitch_bend_c, 6, 1849
7, 2446, Pitch_bend_c, 6, 5020
7, 2457, Pitch_bend_c, 6, 7926
7, 2467, Pitch_bend_c, 6, 8192
7, 2516, Note_off_c, 6, 69, 0
7, 2627, Pitch_bend_c, 6, 7662
7, 2636, Pitch_bend_c, 6, 4756
7, 2649, Pitch_bend_c, 6, 0
7, 2688, Note_on_c, 6, 64, 127
7, 2700, Pitch_bend_c, 6, 3170
7, 2712, Pitch_bend_c, 6, 7134
7, 2724, Pitch_bend_c, 6, 8192
7, 2814, Note_off_c, 6, 64, 0
7, 2880, Note_on_c, 6, 52, 113
7, 2902, Note_off_c, 6, 52, 0
7, 2928, Note_on_c, 6, 51, 95
7, 2953, Note_off_c, 6, 51, 0
7, 2976, Note_on_c, 6, 50, 122
7, 3056, Note_off_c, 6, 50, 0
7, 3132, Pitch_bend_c, 6, 7662
7, 3144, Pitch_bend_c, 6, 3699
7, 3155, Pitch_bend_c, 6, 0
7, 3168, Note_on_c, 6, 69, 127
7, 3203, Pitch_bend_c, 6, 1849
7, 3214, Pitch_bend_c, 6, 5020
7, 3225, Pitch_bend_c, 6, 7926
7, 3235, Pitch_bend_c, 6, 8192
7, 3284, Note_off_c, 6, 69, 0
7, 3395, Pitch_bend_c, 6, 7662
7, 3404, Pitch_bend_c, 6, 4756
7, 3417, Pitch_bend_c, 6, 0
7, 3456, Note_on_c, 6, 64, 127
7, 3468, Pitch_bend_c, 6, 3170
7, 3480, Pitch_bend_c, 6, 7134
7, 3492, Pitch_bend_c, 6, 8192
7, 3582, Note_off_c, 6, 64, 0
7, 3648, Note_on_c, 6, 52, 101
7, 3668, Note_off_c, 6, 52, 0
7, 3696, Note_on_c, 6, 51, 100
7, 3720, Note_off_c, 6, 51, 0
7, 3744, Note_on_c, 6, 50, 122
7, 3822, Note_off_c, 6, 50, 0
7, 3854, Pitch_bend_c, 6, 7398
7, 3867, Pitch_bend_c, 6, 5020
7, 3878, Pitch_bend_c, 6, 3170
7, 3889, Pitch_bend_c, 6, 2113
7, 3902, Pitch_bend_c, 6, 1849
7, 3923, Pitch_bend_c, 6, 2906
7, 3931, Pitch_bend_c, 6, 3963
7, 3936, Note_on_c, 6, 69, 122
7, 3940, Pitch_bend_c, 6, 7398
7, 3953, Pitch_bend_c, 6, 8192
7, 4006, Pitch_bend_c, 6, 5548
7, 4017, Pitch_bend_c, 6, 5284
7, 4028, Pitch_bend_c, 6, 7398
7, 4040, Pitch_bend_c, 6, 8192
7, 4176, Note_off_c, 6, 69, 0
7, 6144, Note_on_c, 6, 52, 127
7, 6196, Note_off_c, 6, 52, 0
7, 6235, Note_on_c, 6, 52, 127
7, 6287, Note_off_c, 6, 52, 0
7, 6329, Note_on_c, 6, 52, 127
7, 6381, Note_off_c, 6, 52, 0
7, 6420, Note_on_c, 6, 52, 127
7, 6479, Note_off_c, 6, 52, 0
7, 6521, Note_on_c, 6, 52, 127
7, 6577, Note_off_c, 6, 52, 0
7, 6616, Note_on_c, 6, 52, 127
7, 6672, Note_off_c, 6, 52, 0
7, 6715, Note_on_c, 6, 52, 127
7, 6767, Note_off_c, 6, 52, 0
7, 6809, Note_on_c, 6, 52, 127
7, 6866, Note_off_c, 6, 52, 0
7, 6902, Note_on_c, 6, 50, 127
7, 6959, Note_off_c, 6, 50, 0
7, 7003, Note_on_c, 6, 50, 127
7, 7062, Note_off_c, 6, 50, 0
7, 7102, Note_on_c, 6, 50, 127
7, 7162, Note_off_c, 6, 50, 0
7, 7200, Note_on_c, 6, 50, 127
7, 7260, Note_off_c, 6, 50, 0
7, 7297, Note_on_c, 6, 50, 127
7, 7356, Note_off_c, 6, 50, 0
7, 7393, Note_on_c, 6, 50, 127
7, 7447, Note_off_c, 6, 50, 0
7, 7489, Note_on_c, 6, 50, 127
7, 7540, Note_off_c, 6, 50, 0
7, 7582, Note_on_c, 6, 50, 127
7, 7641, Note_off_c, 6, 50, 0
7, 13832, Note_on_c, 6, 45, 127
7, 13875, Note_off_c, 6, 45, 0
7, 13926, Note_on_c, 6, 45, 127
7, 14012, Note_off_c, 6, 45, 0
7, 14017, Note_on_c, 6, 40, 127
7, 14103, Note_off_c, 6, 40, 0
7, 14110, Note_on_c, 6, 45, 127
7, 14203, Note_on_c, 6, 44, 110
7, 14209, Note_off_c, 6, 45, 0
7, 14241, Note_off_c, 6, 44, 0
7, 14294, Note_on_c, 6, 44, 110
7, 14369, Note_off_c, 6, 44, 0
7, 14400, Note_on_c, 6, 57, 127
7, 14496, Note_on_c, 6, 58, 127
7, 14504, Note_off_c, 6, 57, 0
7, 14688, Note_on_c, 6, 65, 127
7, 14710, Note_off_c, 6, 58, 0
7, 14880, Note_on_c, 6, 66, 100
7, 14888, Note_off_c, 6, 65, 0
7, 14976, Note_on_c, 6, 69, 113
7, 14993, Note_off_c, 6, 66, 0
7, 15072, Note_on_c, 6, 61, 104
7, 15112, Note_off_c, 6, 69, 0
7, 15320, Note_off_c, 6, 61, 0
7, 15360, Note_on_c, 6, 45, 127
7, 15406, Note_off_c, 6, 45, 0
7, 15456, Note_on_c, 6, 45, 127
7, 15542, Note_off_c, 6, 45, 0
7, 15552, Note_on_c, 6, 40, 122
7, 15643, Note_off_c, 6, 40, 0
7, 15648, Note_on_c, 6, 45, 127
7, 15744, Note_on_c, 6, 44, 110
7, 15745, Note_off_c, 6, 45, 0
7, 15784, Note_off_c, 6, 44, 0
7, 15840, Note_on_c, 6, 44, 127
7, 15918, Note_off_c, 6, 44, 0
7, 15936, Note_on_c, 6, 57, 108
7, 16032, Note_on_c, 6, 58, 110
7, 16040, Note_off_c, 6, 57, 0
7, 16224, Note_on_c, 6, 65, 122
7, 16241, Note_off_c, 6, 58, 0
7, 16416, Note_on_c, 6, 66, 100
7, 16428, Note_off_c, 6, 65, 0
7, 16512, Note_on_c, 6, 69, 117
7, 16532, Note_off_c, 6, 66, 0
7, 16608, Note_on_c, 6, 61, 104
7, 16667, Note_off_c, 6, 69, 0
7, 16800, Note_on_c, 6, 50, 127
7, 16851, Note_off_c, 6, 61, 0
7, 16896, Note_on_c, 6, 54, 100
7, 16896, Note_on_c, 6, 59, 108
7, 16913, Note_off_c, 6, 50, 0
7, 17094, Note_off_c, 6, 54, 0
7, 17104, Note_off_c, 6, 59, 0
7, 17184, Note_on_c, 6, 52, 113
7, 17280, Note_on_c, 6, 56, 100
7, 17280, Note_on_c, 6, 61, 104
7, 17289, Note_off_c, 6, 52, 0
7, 17451, Note_off_c, 6, 61, 0
7, 17462, Note_off_c, 6, 56, 0
7, 17568, Note_on_c, 6, 54, 95
7, 17664, Note_on_c, 6, 57, 104
7, 17664, Note_on_c, 6, 62, 113
7, 17688, Note_off_c, 6, 54, 0
7, 17856, Note_off_c, 6, 57, 0
7, 17859, Note_off_c, 6, 62, 0
7, 17952, Note_on_c, 6, 56, 104
7, 18048, Note_on_c, 6, 59, 81
7, 18048, Note_on_c, 6, 64, 101
7, 18144, Note_off_c, 6, 56, 0
7, 18230, Note_off_c, 6, 64, 0
7, 18236, Note_off_c, 6, 59, 0
7, 18432, Note_on_c, 6, 45, 127
7, 18664, Note_off_c, 6, 45, 0
7, 18816, Note_on_c, 6, 50, 127
7, 19076, Note_off_c, 6, 50, 0
7, 19200, Note_on_c, 6, 45, 127
7, 19824, Note_off_c, 6, 45, 0
7, 20838, Note_on_c, 6, 58, 100
7, 20873, Note_off_c, 6, 58, 0
7, 20888, Note_on_c, 6, 59, 91
7, 20913, Note_on_c, 6, 58, 91
7, 20923, Note_off_c, 6, 59, 0
7, 21017, Note_on_c, 6, 49, 95
7, 21028, Note_off_c, 6, 58, 0
7, 21118, Note_on_c, 6, 58, 104
7, 21121, Note_off_c, 6, 49, 0
7, 21471, Note_off_c, 6, 58, 0
7, 22376, Note_on_c, 6, 58, 91
7, 22406, Note_off_c, 6, 58, 0
7, 22417, Note_on_c, 6, 59, 94
7, 22452, Note_on_c, 6, 58, 91
7, 22457, Note_off_c, 6, 59, 0
7, 22561, Note_on_c, 6, 49, 87
7, 22578, Note_off_c, 6, 58, 0
7, 22656, Note_on_c, 6, 58, 100
7, 22666, Note_off_c, 6, 49, 0
7, 22945, Note_off_c, 6, 58, 0
7, 23100, Pitch_bend_c, 6, 7662
7, 23112, Pitch_bend_c, 6, 3699
7, 23123, Pitch_bend_c, 6, 0
7, 23136, Note_on_c, 6, 69, 127
7, 23171, Pitch_bend_c, 6, 1849
7, 23182, Pitch_bend_c, 6, 5020
7, 23193, Pitch_bend_c, 6, 7926
7, 23203, Pitch_bend_c, 6, 8192
7, 23252, Note_off_c, 6, 69, 0
7, 23363, Pitch_bend_c, 6, 7662
7, 23372, Pitch_bend_c, 6, 4756
7, 23385, Pitch_bend_c, 6, 0
7, 23424, Note_on_c, 6, 64, 127
7, 23436, Pitch_bend_c, 6, 3170
7, 23448, Pitch_bend_c, 6, 7134
7, 23460, Pitch_bend_c, 6, 8192
7, 23550, Note_off_c, 6, 64, 0
7, 23616, Note_on_c, 6, 52, 113
7, 23638, Note_off_c, 6, 52, 0
7, 23664, Note_on_c, 6, 51, 95
7, 23689, Note_off_c, 6, 51, 0
7, 23712, Note_on_c, 6, 50, 122
7, 23792, Note_off_c, 6, 50, 0
7, 23868, Pitch_bend_c, 6, 7662
7, 23880, Pitch_bend_c, 6, 3699
7, 23891, Pitch_bend_c, 6, 0
7, 23904, Note_on_c, 6, 69, 127
7, 23939, Pitch_bend_c, 6, 1849
7, 23950, Pitch_bend_c, 6, 5020
7, 23961, Pitch_bend_c, 6, 7926
7, 23971, Pitch_bend_c, 6, 8192
7, 24020, Note_off_c, 6, 69, 0
7, 24131, Pitch_bend_c, 6, 7662
7, 24140, Pitch_bend_c, 6, 4756
7, 24153, Pitch_bend_c, 6, 0
7, 24192, Note_on_c, 6, 64, 127
7, 24204, Pitch_bend_c, 6, 3170
7, 24216, Pitch_bend_c, 6, 7134
7, 24228, Pitch_bend_c, 6, 8192
7, 24318, Note_off_c, 6, 64, 0
7, 24384, Note_on_c, 6, 52, 101
7, 24404, Note_off_c, 6, 52, 0
7, 24432, Note_on_c, 6, 51, 100
7, 24456, Note_off_c, 6, 51, 0
7, 24480, Note_on_c, 6, 50, 122
7, 24558, Note_off_c, 6, 50, 0
7, 24590, Pitch_bend_c, 6, 7398
7, 24603, Pitch_bend_c, 6, 5020
7, 24614, Pitch_bend_c, 6, 3170
7, 24625, Pitch_bend_c, 6, 2113
7, 24638, Pitch_bend_c, 6, 1849
7, 24659, Pitch_bend_c, 6, 2906
7, 24667, Pitch_bend_c, 6, 3963
7, 24672, Note_on_c, 6, 69, 122
7, 24676, Pitch_bend_c, 6, 7398
7, 24689, Pitch_bend_c, 6, 8192
7, 24742, Pitch_bend_c, 6, 5548
7, 24753, Pitch_bend_c, 6, 5284
7, 24764, Pitch_bend_c, 6, 7398
7, 24776, Pitch_bend_c, 6, 8192
7, 24912, Note_off_c, 6, 69, 0
7, 26940, Pitch_bend_c, 6, 7662
7, 26952, Pitch_bend_c, 6, 3699
7, 26963, Pitch_bend_c, 6, 0
7, 26976, Note_on_c, 6, 69, 127
7, 27011, Pitch_bend_c, 6, 1849
7, 27022, Pitch_bend_c, 6, 5020
7, 27033, Pitch_bend_c, 6, 7926
7, 27043, Pitch_bend_c, 6, 8192
7, 27092, Note_off_c, 6, 69, 0
7, 27203, Pitch_bend_c, 6, 7662
7, 27212, Pitch_bend_c, 6, 4756
7, 27225, Pitch_bend_c, 6, 0
7, 27264, Note_on_c, 6, 64, 127
7, 27276, Pitch_bend_c, 6, 3170
7, 27288, Pitch_bend_c, 6, 7134
7, 27300, Pitch_bend_c, 6, 8192
7, 27390, Note_off_c, 6, 64, 0
7, 27456, Note_on_c, 6, 52, 113
7, 27478, Note_off_c, 6, 52, 0
7, 27504, Note_on_c, 6, 51, 95
7, 27529, Note_off_c, 6, 51, 0
7, 27552, Note_on_c, 6, 50, 122
7, 27632, Note_off_c, 6, 50, 0
7, 27708, Pitch_bend_c, 6, 7662
7, 27720, Pitch_bend_c, 6, 3699
7, 27731, Pitch_bend_c, 6, 0
7, 27744, Note_on_c, 6, 69, 127
7, 27779, Pitch_bend_c, 6, 1849
7, 27790, Pitch_bend_c, 6, 5020
7, 27801, Pitch_bend_c, 6, 7926
7, 27811, Pitch_bend_c, 6, 8192
7, 27860, Note_off_c, 6, 69, 0
7, 27971, Pitch_bend_c, 6, 7662
7, 27980, Pitch_bend_c, 6, 4756
7, 27993, Pitch_bend_c, 6, 0
7, 28032, Note_on_c, 6, 64, 127
7, 28044, Pitch_bend_c, 6, 3170
7, 28056, Pitch_bend_c, 6, 7134
7, 28068, Pitch_bend_c, 6, 8192
7, 28158, Note_off_c, 6, 64, 0
7, 28224, Note_on_c, 6, 52, 101
7, 28244, Note_off_c, 6, 52, 0
7, 28272, Note_on_c, 6, 51, 100
7, 28296, Note_off_c, 6, 51, 0
7, 28320, Note_on_c, 6, 50, 122
7, 28398, Note_off_c, 6, 50, 0
7, 28430, Pitch_bend_c, 6, 7398
7, 28443, Pitch_bend_c, 6, 5020
7, 28454, Pitch_bend_c, 6, 3170
7, 28465, Pitch_bend_c, 6, 2113
7, 28478, Pitch_bend_c, 6, 1849
7, 28499, Pitch_bend_c, 6, 2906
7, 28507, Pitch_bend_c, 6, 3963
7, 28512, Note_on_c, 6, 69, 122
7, 28516, Pitch_bend_c, 6, 7398
7, 28529, Pitch_bend_c, 6, 8192
7, 28582, Pitch_bend_c, 6, 5548
7, 28593, Pitch_bend_c, 6, 5284
7, 28604, Pitch_bend_c, 6, 7398
7, 28616, Pitch_bend_c, 6, 8192
7, 28752, Note_off_c, 6, 69, 0
7, 30720, Note_on_c, 6, 52, 127
7, 30772, Note_off_c, 6, 52, 0
7, 30811, Note_on_c, 6, 52, 127
7, 30863, Note_off_c, 6, 52, 0
7, 30905, Note_on_c, 6, 52, 127
7, 30957, Note_off_c, 6, 52, 0
7, 30996, Note_on_c, 6, 52, 127
7, 31055, Note_off_c, 6, 52, 0
7, 31097, Note_on_c, 6, 52, 127
7, 31153, Note_off_c, 6, 52, 0
7, 31192, Note_on_c, 6, 52, 127
7, 31248, Note_off_c, 6, 52, 0
7, 31291, Note_on_c, 6, 52, 127
7, 31343, Note_off_c, 6, 52, 0
7, 31385, Note_on_c, 6, 52, 127
7, 31442, Note_off_c, 6, 52, 0
7, 31478, Note_on_c, 6, 50, 127
7, 31535, Note_off_c, 6, 50, 0
7, 31579, Note_on_c, 6, 50, 127
7, 31638, Note_off_c, 6, 50, 0
7, 31678, Note_on_c, 6, 50, 127
7, 31738, Note_off_c, 6, 50, 0
7, 31776, Note_on_c, 6, 50, 127
7, 31836, Note_off_c, 6, 50, 0
7, 31873, Note_on_c, 6, 50, 127
7, 31932, Note_off_c, 6, 50, 0
7, 31969, Note_on_c, 6, 50, 127
7, 32023, Note_off_c, 6, 50, 0
7, 32065, Note_on_c, 6, 50, 127
7, 32116, Note_off_c, 6, 50, 0
7, 32158, Note_on_c, 6, 50, 127
7, 32217, Note_off_c, 6, 50, 0
7, 33126, Note_on_c, 6, 58, 100
7, 33161, Note_off_c, 6, 58, 0
7, 33176, Note_on_c, 6, 59, 91
7, 33201, Note_on_c, 6, 58, 91
7, 33211, Note_off_c, 6, 59, 0
7, 33305, Note_on_c, 6, 49, 95
7, 33316, Note_off_c, 6, 58, 0
7, 33406, Note_on_c, 6, 58, 104
7, 33409, Note_off_c, 6, 49, 0
7, 33759, Note_off_c, 6, 58, 0
7, 34664, Note_on_c, 6, 58, 91
7, 34694, Note_off_c, 6, 58, 0
7, 34705, Note_on_c, 6, 59, 94
7, 34740, Note_on_c, 6, 58, 91
7, 34745, Note_off_c, 6, 59, 0
7, 34849, Note_on_c, 6, 49, 87
7, 34866, Note_off_c, 6, 58, 0
7, 34944, Note_on_c, 6, 58, 100
7, 34954, Note_off_c, 6, 49, 0
7, 35233, Note_off_c, 6, 58, 0
7, 35336, Note_on_c, 6, 45, 127
7, 35379, Note_off_c, 6, 45, 0
7, 35430, Note_on_c, 6, 45, 127
7, 35516, Note_off_c, 6, 45, 0
7, 35521, Note_on_c, 6, 40, 127
7, 35607, Note_off_c, 6, 40, 0
7, 35614, Note_on_c, 6, 45, 127
7, 35707, Note_on_c, 6, 44, 110
7, 35713, Note_off_c, 6, 45, 0
7, 35745, Note_off_c, 6, 44, 0
7, 35798, Note_on_c, 6, 44, 110
7, 35873, Note_off_c, 6, 44, 0
7, 35904, Note_on_c, 6, 57, 127
7, 36000, Note_on_c, 6, 58, 127
7, 36008, Note_off_c, 6, 57, 0
7, 36192, Note_on_c, 6, 65, 127
7, 36214, Note_off_c, 6, 58, 0
7, 36384, Note_on_c, 6, 66, 100
7, 36392, Note_off_c, 6, 65, 0
7, 36480, Note_on_c, 6, 69, 113
7, 36497, Note_off_c, 6, 66, 0
7, 36576, Note_on_c, 6, 61, 104
7, 36616, Note_off_c, 6, 69, 0
7, 36824, Note_off_c, 6, 61, 0
7, 36864, Note_on_c, 6, 45, 127
7, 36910, Note_off_c, 6, 45, 0
7, 36960, Note_on_c, 6, 45, 127
7, 37046, Note_off_c, 6, 45, 0
7, 37056, Note_on_c, 6, 40, 122
7, 37147, Note_off_c, 6, 40, 0
7, 37152, Note_on_c, 6, 45, 127
7, 37248, Note_on_c, 6, 44, 110
7, 37249, Note_off_c, 6, 45, 0
7, 37288, Note_off_c, 6, 44, 0
7, 37344, Note_on_c, 6, 44, 127
7, 37422, Note_off_c, 6, 44, 0
7, 37440, Note_on_c, 6, 57, 108
7, 37536, Note_on_c, 6, 58, 110
7, 37544, Note_off_c, 6, 57, 0
7, 37728, Note_on_c, 6, 65, 122
7, 37745, Note_off_c, 6, 58, 0
7, 37920, Note_on_c, 6, 66, 100
7, 37932, Note_off_c, 6, 65, 0
7, 38016, Note_on_c, 6, 69, 117
7, 38036, Note_off_c, 6, 66, 0
7, 38112, Note_on_c, 6, 61, 104
7, 38171, Note_off_c, 6, 69, 0
7, 38304, Note_on_c, 6, 50, 127
7, 38355, Note_off_c, 6, 61, 0
7, 38400, Note_on_c, 6, 54, 100
7, 38400, Note_on_c, 6, 59, 108
7, 38417, Note_off_c, 6, 50, 0
7, 38598, Note_off_c, 6, 54, 0
7, 38608, Note_off_c, 6, 59, 0
7, 38688, Note_on_c, 6, 52, 113
7, 38784, Note_on_c, 6, 56, 100
7, 38784, Note_on_c, 6, 61, 104
7, 38793, Note_off_c, 6, 52, 0
7, 38955, Note_off_c, 6, 61, 0
7, 38966, Note_off_c, 6, 56, 0
7, 39072, Note_on_c, 6, 54, 95
7, 39168, Note_on_c, 6, 57, 104
7, 39168, Note_on_c, 6, 62, 113
7, 39192, Note_off_c, 6, 54, 0
7, 39360, Note_off_c, 6, 57, 0
7, 39363, Note_off_c, 6, 62, 0
7, 39456, Note_on_c, 6, 56, 104
7, 39552, Note_on_c, 6, 59, 81
7, 39552, Note_on_c, 6, 64, 101
7, 39648, Note_off_c, 6, 56, 0
7, 39734, Note_off_c, 6, 64, 0
7, 39740, Note_off_c, 6, 59, 0
7, 39936, Note_on_c, 6, 45, 127
7, 40168, Note_off_c, 6, 45, 0
7, 40320, Note_on_c, 6, 50, 127
7, 40580, Note_off_c, 6, 50, 0
7, 40704, Note_on_c, 6, 45, 127
7, 41328, Note_off_c, 6, 45, 0
7, 42342, Note_on_c, 6, 58, 100
7, 42377, Note_off_c, 6, 58, 0
7, 42392, Note_on_c, 6, 59, 91
7, 42417, Note_on_c, 6, 58, 91
7, 42427, Note_off_c, 6, 59, 0
7, 42521, Note_on_c, 6, 49, 95
7, 42532, Note_off_c, 6, 58, 0
7, 42622, Note_on_c, 6, 58, 104
7, 42625, Note_off_c, 6, 49, 0
7, 42975, Note_off_c, 6, 58, 0
7, 43880, Note_on_c, 6, 58, 91
7, 43910, Note_off_c, 6, 58, 0
7, 43921, Note_on_c, 6, 59, 94
7, 43956, Note_on_c, 6, 58, 91
7, 43961, Note_off_c, 6, 59, 0
7, 44065, Note_on_c, 6, 49, 87
7, 44082, Note_off_c, 6, 58, 0
7, 44160, Note_on_c, 6, 58, 100
7, 44170, Note_off_c, 6, 49, 0
7, 44449, Note_off_c, 6, 58, 0
7, 44604, Pitch_bend_c, 6, 7662
7, 44616, Pitch_bend_c, 6, 3699
7, 44627, Pitch_bend_c, 6, 0
7, 44640, Note_on_c, 6, 69, 127
7, 44675, Pitch_bend_c, 6, 1849
7, 44686, Pitch_bend_c, 6, 5020
7, 44697, Pitch_bend_c, 6, 7926
7, 44707, Pitch_bend_c, 6, 8192
7, 44756, Note_off_c, 6, 69, 0
7, 44867, Pitch_bend_c, 6, 7662
7, 44876, Pitch_bend_c, 6, 4756
7, 44889, Pitch_bend_c, 6, 0
7, 44928, Note_on_c, 6, 64, 127
7, 44940, Pitch_bend_c, 6, 3170
7, 44952, Pitch_bend_c, 6, 7134
7, 44964, Pitch_bend_c, 6, 8192
7, 45054, Note_off_c, 6, 64, 0
7, 45120, Note_on_c, 6, 52, 113
7, 45142, Note_off_c, 6, 52, 0
7, 45168, Note_on_c, 6, 51, 95
7, 45193, Note_off_c, 6, 51, 0
7, 45216, Note_on_c, 6, 50, 122
7, 45296, Note_off_c, 6, 50, 0
7, 45372, Pitch_bend_c, 6, 7662
7, 45384, Pitch_bend_c, 6, 3699
7, 45395, Pitch_bend_c, 6, 0
7, 45408, Note_on_c, 6, 69, 127
7, 45443, Pitch_bend_c, 6, 1849
7, 45454, Pitch_bend_c, 6, 5020
7, 45465, Pitch_bend_c, 6, 7926
7, 45475, Pitch_bend_c, 6, 8192
7, 45524, Note_off_c, 6, 69, 0
7, 45635, Pitch_bend_c, 6, 7662
7, 45644, Pitch_bend_c, 6, 4756
7, 45657, Pitch_bend_c, 6, 0
7, 45696, Note_on_c, 6, 64, 127
7, 45708, Pitch_bend_c, 6, 3170
7, 45720, Pitch_bend_c, 6, 7134
7, 45732, Pitch_bend_c, 6, 8192
7, 45822, Note_off_c, 6, 64, 0
7, 45888, Note_on_c, 6, 52, 101
7, 45908, Note_off_c, 6, 52, 0
7, 45936, Note_on_c, 6, 51, 100
7, 45960, Note_off_c, 6, 51, 0
7, 45984, Note_on_c, 6, 50, 122
7, 46062, Note_off_c, 6, 50, 0
7, 46094, Pitch_bend_c, 6, 7398
7, 46107, Pitch_bend_c, 6, 5020
7, 46118, Pitch_bend_c, 6, 3170
7, 46129, Pitch_bend_c, 6, 2113
7, 46142, Pitch_bend_c, 6, 1849
7, 46163, Pitch_bend_c, 6, 2906
7, 46171, Pitch_bend_c, 6, 3963
7, 46176, Note_on_c, 6, 69, 122
7, 46180, Pitch_bend_c, 6, 7398
7, 46193, Pitch_bend_c, 6, 8192
7, 46246, Pitch_bend_c, 6, 5548
7, 46257, Pitch_bend_c, 6, 5284
7, 46268, Pitch_bend_c, 6, 7398
7, 46280, Pitch_bend_c, 6, 8192
7, 46416, Note_off_c, 6, 69, 0
7, 48444, Pitch_bend_c, 6, 7662
7, 48456, Pitch_bend_c, 6, 3699
7, 48467, Pitch_bend_c, 6, 0
7, 48480, Note_on_c, 6, 69, 127
7, 48515, Pitch_bend_c, 6, 1849
7, 48526, Pitch_bend_c, 6, 5020
7, 48537, Pitch_bend_c, 6, 7926
7, 48547, Pitch_bend_c, 6, 8192
7, 48596, Note_off_c, 6, 69, 0
7, 48707, Pitch_bend_c, 6, 7662
7, 48716, Pitch_bend_c, 6, 4756
7, 48729, Pitch_bend_c, 6, 0
7, 48768, Note_on_c, 6, 64, 127
7, 48780, Pitch_bend_c, 6, 3170
7, 48792, Pitch_bend_c, 6, 7134
7, 48804, Pitch_bend_c, 6, 8192
7, 48894, Note_off_c, 6, 64, 0
7, 48960, Note_on_c, 6, 52, 113
7, 48982, Note_off_c, 6, 52, 0
7, 49008, Note_on_c, 6, 51, 95
7, 49033, Note_off_c, 6, 51, 0
7, 49056, Note_on_c, 6, 50, 122
7, 49136, Note_off_c, 6, 50, 0
7, 49212, Pitch_bend_c, 6, 7662
7, 49224, Pitch_bend_c, 6, 3699
7, 49235, Pitch_bend_c, 6, 0
7, 49248, Note_on_c, 6, 69, 127
7, 49283, Pitch_bend_c, 6, 1849
7, 49294, Pitch_bend_c, 6, 5020
7, 49305, Pitch_bend_c, 6, 7926
7, 49315, Pitch_bend_c, 6, 8192
7, 49364, Note_off_c, 6, 69, 0
7, 49475, Pitch_bend_c, 6, 7662
7, 49484, Pitch_bend_c, 6, 4756
7, 49497, Pitch_bend_c, 6, 0
7, 49536, Note_on_c, 6, 64, 127
7, 49548, Pitch_bend_c, 6, 3170
7, 49560, Pitch_bend_c, 6, 7134
7, 49572, Pitch_bend_c, 6, 8192
7, 49662, Note_off_c, 6, 64, 0
7, 49728, Note_on_c, 6, 52, 101
7, 49748, Note_off_c, 6, 52, 0
7, 49776, Note_on_c, 6, 51, 100
7, 49800, Note_off_c, 6, 51, 0
7, 49824, Note_on_c, 6, 50, 122
7, 49902, Note_off_c, 6, 50, 0
7, 49934, Pitch_bend_c, 6, 7398
7, 49947, Pitch_bend_c, 6, 5020
7, 49958, Pitch_bend_c, 6, 3170
7, 49969, Pitch_bend_c, 6, 2113
7, 49982, Pitch_bend_c, 6, 1849
7, 50003, Pitch_bend_c, 6, 2906
7, 50011, Pitch_bend_c, 6, 3963
7, 50016, Note_on_c, 6, 69, 122
7, 50020, Pitch_bend_c, 6, 7398
7, 50033, Pitch_bend_c, 6, 8192
7, 50086, Pitch_bend_c, 6, 5548
7, 50097, Pitch_bend_c, 6, 5284
7, 50108, Pitch_bend_c, 6, 7398
7, 50120, Pitch_bend_c, 6, 8192
7, 50256, Note_off_c, 6, 69, 0
7, 52224, Note_on_c, 6, 52, 127
7, 52276, Note_off_c, 6, 52, 0
7, 52315, Note_on_c, 6, 52, 127
7, 52367, Note_off_c, 6, 52, 0
7, 52409, Note_on_c, 6, 52, 127
7, 52461, Note_off_c, 6, 52, 0
7, 52500, Note_on_c, 6, 52, 127
7, 52559, Note_off_c, 6, 52, 0
7, 52601, Note_on_c, 6, 52, 127
7, 52657, Note_off_c, 6, 52, 0
7, 52696, Note_on_c, 6, 52, 127
7, 52752, Note_off_c, 6, 52, 0
7, 52795, Note_on_c, 6, 52, 127
7, 52847, Note_off_c, 6, 52, 0
7, 52889, Note_on_c, 6, 52, 127
7, 52946, Note_off_c, 6, 52, 0
7, 52982, Note_on_c, 6, 50, 127
7, 53039, Note_off_c, 6, 50, 0
7, 53083, Note_on_c, 6, 50, 127
7, 53142, Note_off_c, 6, 50, 0
7, 53182, Note_on_c, 6, 50, 127
7, 53242, Note_off_c, 6, 50, 0
7, 53280, Note_on_c, 6, 50, 127
7, 53340, Note_off_c, 6, 50, 0
7, 53377, Note_on_c, 6, 50, 127
7, 53436, Note_off_c, 6, 50, 0
7, 53473, Note_on_c, 6, 50, 127
7, 53527, Note_off_c, 6, 50, 0
7, 53569, Note_on_c, 6, 50, 127
7, 53620, Note_off_c, 6, 50, 0
7, 53662, Note_on_c, 6, 50, 127
7, 53721, Note_off_c, 6, 50, 0
7, 53768, Note_on_c, 6, 45, 127
7, 53811, Note_off_c, 6, 45, 0
7, 53862, Note_on_c, 6, 45, 127
7, 53948, Note_off_c, 6, 45, 0
7, 53953, Note_on_c, 6, 40, 127
7, 54039, Note_off_c, 6, 40, 0
7, 54046, Note_on_c, 6, 45, 127
7, 54139, Note_on_c, 6, 44, 110
7, 54145, Note_off_c, 6, 45, 0
7, 54177, Note_off_c, 6, 44, 0
7, 54230, Note_on_c, 6, 44, 110
7, 54305, Note_off_c, 6, 44, 0
7, 54336, Note_on_c, 6, 57, 127
7, 54432, Note_on_c, 6, 58, 127
7, 54440, Note_off_c, 6, 57, 0
7, 54624, Note_on_c, 6, 65, 127
7, 54646, Note_off_c, 6, 58, 0
7, 54816, Note_on_c, 6, 66, 100
7, 54824, Note_off_c, 6, 65, 0
7, 54912, Note_on_c, 6, 69, 113
7, 54929, Note_off_c, 6, 66, 0
7, 55008, Note_on_c, 6, 61, 104
7, 55048, Note_off_c, 6, 69, 0
7, 55256, Note_off_c, 6, 61, 0
7, 55296, Note_on_c, 6, 45, 127
7, 55342, Note_off_c, 6, 45, 0
7, 55392, Note_on_c, 6, 45, 127
7, 55478, Note_off_c, 6, 45, 0
7, 55488, Note_on_c, 6, 40, 122
7, 55579, Note_off_c, 6, 40, 0
7, 55584, Note_on_c, 6, 45, 127
7, 55680, Note_on_c, 6, 44, 110
7, 55681, Note_off_c, 6, 45, 0
7, 55720, Note_off_c, 6, 44, 0
7, 55776, Note_on_c, 6, 44, 127
7, 55854, Note_off_c, 6, 44, 0
7, 55872, Note_on_c, 6, 57, 108
7, 55968, Note_on_c, 6, 58, 110
7, 55976, Note_off_c, 6, 57, 0
7, 56160, Note_on_c, 6, 65, 122
7, 56177, Note_off_c, 6, 58, 0
7, 56352, Note_on_c, 6, 66, 100
7, 56364, Note_off_c, 6, 65, 0
7, 56448, Note_on_c, 6, 69, 117
7, 56468, Note_off_c, 6, 66, 0
7, 56544, Note_on_c, 6, 61, 104
7, 56603, Note_off_c, 6, 69, 0
7, 56736, Note_on_c, 6, 50, 127
7, 56787, Note_off_c, 6, 61, 0
7, 56832, Note_on_c, 6, 54, 100
7, 56832, Note_on_c, 6, 59, 108
7, 56849, Note_off_c, 6, 50, 0
7, 57030, Note_off_c, 6, 54, 0
7, 57040, Note_off_c, 6, 59, 0
7, 57120, Note_on_c, 6, 52, 113
7, 57216, Note_on_c, 6, 56, 100
7, 57216, Note_on_c, 6, 61, 104
7, 57225, Note_off_c, 6, 52, 0
7, 57387, Note_off_c, 6, 61, 0
7, 57398, Note_off_c, 6, 56, 0
7, 57504, Note_on_c, 6, 54, 95
7, 57600, Note_on_c, 6, 57, 104
7, 57600, Note_on_c, 6, 62, 113
7, 57624, Note_off_c, 6, 54, 0
7, 57792, Note_off_c, 6, 57, 0
7, 57795, Note_off_c, 6, 62, 0
7, 57888, Note_on_c, 6, 56, 104
7, 57984, Note_on_c, 6, 59, 81
7, 57984, Note_on_c, 6, 64, 101
7, 58080, Note_off_c, 6, 56, 0
7, 58166, Note_off_c, 6, 64, 0
7, 58172, Note_off_c, 6, 59, 0
7, 58368, Note_on_c, 6, 45, 127
7, 58600, Note_off_c, 6, 45, 0
7, 58752, Note_on_c, 6, 50, 127
7, 59012, Note_off_c, 6, 50, 0
7, 59136, Note_on_c, 6, 45, 127
7, 59760, Note_off_c, 6, 45, 0
7, 59964, Pitch_bend_c, 6, 7662
7, 59976, Pitch_bend_c, 6, 3699
7, 59987, Pitch_bend_c, 6, 0
7, 60000, Note_on_c, 6, 69, 127
7, 60035, Pitch_bend_c, 6, 1849
7, 60046, Pitch_bend_c, 6, 5020
7, 60057, Pitch_bend_c, 6, 7926
7, 60067, Pitch_bend_c, 6, 8192
7, 60116, Note_off_c, 6, 69, 0
7, 60227, Pitch_bend_c, 6, 7662
7, 60236, Pitch_bend_c, 6, 4756
7, 60249, Pitch_bend_c, 6, 0
7, 60288, Note_on_c, 6, 64, 127
7, 60300, Pitch_bend_c, 6, 3170
7, 60312, Pitch_bend_c, 6, 7134
7, 60324, Pitch_bend_c, 6, 8192
7, 60414, Note_off_c, 6, 64, 0
7, 60480, Note_on_c, 6, 52, 113
7, 60502, Note_off_c, 6, 52, 0
7, 60528, Note_on_c, 6, 51, 95
7, 60553, Note_off_c, 6, 51, 0
7, 60576, Note_on_c, 6, 50, 122
7, 60656, Note_off_c, 6, 50, 0
7, 60732, Pitch_bend_c, 6, 7662
7, 60744, Pitch_bend_c, 6, 3699
7, 60755, Pitch_bend_c, 6, 0
7, 60768, Note_on_c, 6, 69, 127
7, 60803, Pitch_bend_c, 6, 1849
7, 60814, Pitch_bend_c, 6, 5020
7, 60825, Pitch_bend_c, 6, 7926
7, 60835, Pitch_bend_c, 6, 8192
7, 60884, Note_off_c, 6, 69, 0
7, 60995, Pitch_bend_c, 6, 7662
7, 61004, Pitch_bend_c, 6, 4756
7, 61017, Pitch_bend_c, 6, 0
7, 61056, Note_on_c, 6, 64, 127
7, 61068, Pitch_bend_c, 6, 3170
7, 61080, Pitch_bend_c, 6, 7134
7, 61092, Pitch_bend_c, 6, 8192
7, 61182, Note_off_c, 6, 64, 0
7, 61248, Note_on_c, 6, 52, 101
7, 61268, Note_off_c, 6, 52, 0
7, 61296, Note_on_c, 6, 51, 100
7, 61320, Note_off_c, 6, 51, 0
7, 61344, Note_on_c, 6, 50, 122
7, 61422, Note_off_c, 6, 50, 0
7, 61454, Pitch_bend_c, 6, 7398
7, 61467, Pitch_bend_c, 6, 5020
7, 61478, Pitch_bend_c, 6, 3170
7, 61489, Pitch_bend_c, 6, 2113
7, 61502, Pitch_bend_c, 6, 1849
7, 61523, Pitch_bend_c, 6, 2906
7, 61531, Pitch_bend_c, 6, 3963
7, 61536, Note_on_c, 6, 69, 122
7, 61540, Pitch_bend_c, 6, 7398
7, 61553, Pitch_bend_c, 6, 8192
7, 61606, Pitch_bend_c, 6, 5548
7, 61617, Pitch_bend_c, 6, 5284
7, 61628, Pitch_bend_c, 6, 7398
7, 61640, Pitch_bend_c, 6, 8192
7, 61776, Note_off_c, 6, 69, 0
7, 63804, Pitch_bend_c, 6, 7662
7, 63816, Pitch_bend_c, 6, 3699
7, 63827, Pitch_bend_c, 6, 0
7, 63840, Note_on_c, 6, 69, 127
7, 63875, Pitch_bend_c, 6, 1849
7, 63886, Pitch_bend_c, 6, 5020
7, 63897, Pitch_bend_c, 6, 7926
7, 63907, Pitch_bend_c, 6, 8192
7, 63956, Note_off_c, 6, 69, 0
7, 64067, Pitch_bend_c, 6, 7662
7, 64076, Pitch_bend_c, 6, 4756
7, 64089, Pitch_bend_c, 6, 0
7, 64128, Note_on_c, 6, 64, 127
7, 64140, Pitch_bend_c, 6, 3170
7, 64152, Pitch_bend_c, 6, 7134
7, 64164, Pitch_bend_c, 6, 8192
7, 64254, Note_off_c, 6, 64, 0
7, 64320, Note_on_c, 6, 52, 113
7, 64342, Note_off_c, 6, 52, 0
7, 64368, Note_on_c, 6, 51, 95
7, 64393, Note_off_c, 6, 51, 0
7, 64416, Note_on_c, 6, 50, 122
7, 64496, Note_off_c, 6, 50, 0
7, 64572, Pitch_bend_c, 6, 7662
7, 64584, Pitch_bend_c, 6, 3699
7, 64595, Pitch_bend_c, 6, 0
7, 64608, Note_on_c, 6, 69, 127
7, 64643, Pitch_bend_c, 6, 1849
7, 64654, Pitch_bend_c, 6, 5020
7, 64665, Pitch_bend_c, 6, 7926
7, 64675, Pitch_bend_c, 6, 8192
7, 64724, Note_off_c, 6, 69, 0
7, 64835, Pitch_bend_c, 6, 7662
7, 64844, Pitch_bend_c, 6, 4756
7, 64857, Pitch_bend_c, 6, 0
7, 64896, Note_on_c, 6, 64, 127
7, 64908, Pitch_bend_c, 6, 3170
7, 64920, Pitch_bend_c, 6, 7134
7, 64932, Pitch_bend_c, 6, 8192
7, 65022, Note_off_c, 6, 64, 0
7, 65088, Note_on_c, 6, 52, 101
7, 65108, Note_off_c, 6, 52, 0
7, 65136, Note_on_c, 6, 51, 100
7, 65160, Note_off_c, 6, 51, 0
7, 65184, Note_on_c, 6, 50, 122
7, 65262, Note_off_c, 6, 50, 0
7, 65294, Pitch_bend_c, 6, 7398
7, 65307, Pitch_bend_c, 6, 5020
7, 65318, Pitch_bend_c, 6, 3170
7, 65329, Pitch_bend_c, 6, 2113
7, 65342, Pitch_bend_c, 6, 1849
7, 65363, Pitch_bend_c, 6, 2906
7, 65371, Pitch_bend_c, 6, 3963
7, 65376, Note_on_c, 6, 69, 122
7, 65380, Pitch_bend_c, 6, 7398
7, 65393, Pitch_bend_c, 6, 8192
7, 65446, Pitch_bend_c, 6, 5548
7, 65457, Pitch_bend_c, 6, 5284
7, 65468, Pitch_bend_c, 6, 7398
7, 65480, Pitch_bend_c, 6, 8192
7, 65616, Note_off_c, 6, 69, 0
7, 67584, Note_on_c, 6, 52, 127
7, 67636, Note_off_c, 6, 52, 0
7, 67675, Note_on_c, 6, 52, 127
7, 67727, Note_off_c, 6, 52, 0
7, 67769, Note_on_c, 6, 52, 127
7, 67821, Note_off_c, 6, 52, 0
7, 67860, Note_on_c, 6, 52, 127
7, 67919, Note_off_c, 6, 52, 0
7, 67961, Note_on_c, 6, 52, 127
7, 68017, Note_off_c, 6, 52, 0
7, 68056, Note_on_c, 6, 52, 127
7, 68112, Note_off_c, 6, 52, 0
7, 68155, Note_on_c, 6, 52, 127
7, 68207, Note_off_c, 6, 52, 0
7, 68249, Note_on_c, 6, 52, 127
7, 68306, Note_off_c, 6, 52, 0
7, 68342, Note_on_c, 6, 50, 127
7, 68399, Note_off_c, 6, 50, 0
7, 68443, Note_on_c, 6, 50, 127
7, 68502, Note_off_c, 6, 50, 0
7, 68542, Note_on_c, 6, 50, 127
7, 68602, Note_off_c, 6, 50, 0
7, 68640, Note_on_c, 6, 50, 127
7, 68700, Note_off_c, 6, 50, 0
7, 68737, Note_on_c, 6, 50, 127
7, 68796, Note_off_c, 6, 50, 0
7, 68833, Note_on_c, 6, 50, 127
7, 68887, Note_off_c, 6, 50, 0
7, 68929, Note_on_c, 6, 50, 127
7, 68980, Note_off_c, 6, 50, 0
7, 69022, Note_on_c, 6, 50, 127
7, 69081, Note_off_c, 6, 50, 0
7, 69990, Note_on_c, 6, 58, 100
7, 70025, Note_off_c, 6, 58, 0
7, 70040, Note_on_c, 6, 59, 91
7, 70065, Note_on_c, 6, 58, 91
7, 70075, Note_off_c, 6, 59, 0
7, 70169, Note_on_c, 6, 49, 95
7, 70180, Note_off_c, 6, 58, 0
7, 70270, Note_on_c, 6, 58, 104
7, 70273, Note_off_c, 6, 49, 0
7, 70623, Note_off_c, 6, 58, 0
7, 71528, Note_on_c, 6, 58, 91
7, 71558, Note_off_c, 6, 58, 0
7, 71569, Note_on_c, 6, 59, 94
7, 71604, Note_on_c, 6, 58, 91
7, 71609, Note_off_c, 6, 59, 0
7, 71713, Note_on_c, 6, 49, 87
7, 71730, Note_off_c, 6, 58, 0
7, 71808, Note_on_c, 6, 58, 100
7, 71818, Note_off_c, 6, 49, 0
7, 72097, Note_off_c, 6, 58, 0
7, 73062, Note_on_c, 6, 58, 100
7, 73097, Note_off_c, 6, 58, 0
7, 73112, Note_on_c, 6, 59, 91
7, 73137, Note_on_c, 6, 58, 91
7, 73147, Note_off_c, 6, 59, 0
7, 73241, Note_on_c, 6, 49, 95
7, 73252, Note_off_c, 6, 58, 0
7, 73342, Note_on_c, 6, 58, 104
7, 73345, Note_off_c, 6, 49, 0
7, 73695, Note_off_c, 6, 58, 0
7, 75848, Note_on_c, 6, 59, 127
7, 75972, Note_off_c, 6, 59, 0
7, 76049, Note_on_c, 6, 52, 122
7, 76049, Note_on_c, 6, 57, 127
7, 76620, Note_off_c, 6, 52, 0
7, 76621, Note_off_c, 6, 57, 0
7, 76621, End_track
8, 0, Start_track
8, 0, Title_t, "LEFT GUITAR"
8, 0, Channel_prefix, 7
8, 0, Control_c, 7, 7, 84
8, 0, Program_c, 7, 29
8, 2304, Note_on_c, 7, 45, 127
8, 2371, Note_off_c, 7, 45, 0
8, 2400, Note_on_c, 7, 45, 113
8, 2459, Note_off_c, 7, 45, 0
8, 2496, Note_on_c, 7, 45, 117
8, 2550, Note_off_c, 7, 45, 0
8, 2592, Note_on_c, 7, 45, 108
8, 2649, Note_off_c, 7, 45, 0
8, 2688, Note_on_c, 7, 45, 113
8, 2742, Note_off_c, 7, 45, 0
8, 2784, Note_on_c, 7, 45, 113
8, 2836, Note_off_c, 7, 45, 0
8, 2880, Note_on_c, 7, 45, 117
8, 2936, Note_off_c, 7, 45, 0
8, 2976, Note_on_c, 7, 45, 108
8, 3027, Note_off_c, 7, 45, 0
8, 3072, Note_on_c, 7, 45, 127
8, 3124, Note_off_c, 7, 45, 0
8, 3168, Note_on_c, 7, 45, 113
8, 3217, Note_off_c, 7, 45, 0
8, 3264, Note_on_c, 7, 45, 117
8, 3313, Note_off_c, 7, 45, 0
8, 3360, Note_on_c, 7, 45, 117
8, 3409, Note_off_c, 7, 45, 0
8, 3456, Note_on_c, 7, 45, 113
8, 3508, Note_off_c, 7, 45, 0
8, 3552, Note_on_c, 7, 45, 117
8, 3600, Note_off_c, 7, 45, 0
8, 3648, Note_on_c, 7, 45, 117
8, 3696, Note_off_c, 7, 45, 0
8, 3744, Note_on_c, 7, 45, 117
8, 3792, Note_off_c, 7, 45, 0
8, 3849, Note_on_c, 7, 45, 127
8, 3881, Note_off_c, 7, 45, 0
8, 3937, Note_on_c, 7, 45, 127
8, 3978, Note_off_c, 7, 45, 0
8, 4030, Note_on_c, 7, 45, 127
8, 4073, Note_off_c, 7, 45, 0
8, 4129, Note_on_c, 7, 45, 127
8, 4156, Note_off_c, 7, 45, 0
8, 4174, Note_on_c, 7, 47, 113
8, 4176, Note_on_c, 7, 46, 65
8, 4193, Note_off_c, 7, 46, 0
8, 4201, Note_off_c, 7, 47, 0
8, 4224, Note_on_c, 7, 49, 110
8, 4243, Note_off_c, 7, 49, 0
8, 4268, Note_on_c, 7, 52, 117
8, 4296, Note_off_c, 7, 52, 0
8, 4315, Note_on_c, 7, 59, 127
8, 4331, Note_on_c, 7, 64, 127
8, 4364, Note_off_c, 7, 59, 0
8, 4419, Note_off_c, 7, 64, 0
8, 4508, Note_on_c, 7, 57, 127
8, 4521, Note_on_c, 7, 62, 127
8, 4710, Note_on_c, 7, 62, 117
8, 4724, Note_off_c, 7, 57, 0
8, 4727, Note_off_c, 7, 62, 0
8, 4727, Note_off_c, 7, 62, 0
8, 4745, Note_on_c, 7, 61, 110
8, 4789, Note_off_c, 7, 61, 0
8, 4793, Note_on_c, 7, 62, 122
8, 4833, Note_on_c, 7, 61, 104
8, 4837, Note_off_c, 7, 62, 0
8, 4891, Note_on_c, 7, 57, 127
8, 4898, Note_off_c, 7, 61, 0
8, 4993, Note_on_c, 7, 56, 110
8, 5030, Note_off_c, 7, 57, 0
8, 5084, Note_on_c, 7, 59, 117
8, 5097, Note_off_c, 7, 56, 0
8, 5170, Note_off_c, 7, 59, 0
8, 5280, Note_on_c, 7, 57, 122
8, 5465, Note_on_c, 7, 62, 127
8, 5504, Note_on_c, 7, 61, 110
8, 5506, Note_off_c, 7, 62, 0
8, 5545, Note_off_c, 7, 57, 0
8, 5552, Note_off_c, 7, 61, 0
8, 5553, Note_on_c, 7, 62, 122
8, 5593, Note_on_c, 7, 61, 104
8, 5596, Note_off_c, 7, 62, 0
8, 5660, Note_off_c, 7, 61, 0
8, 5660, Note_on_c, 7, 57, 127
8, 5769, Note_on_c, 7, 64, 127
8, 5780, Note_off_c, 7, 57, 0
8, 5869, Note_off_c, 7, 64, 0
8, 5956, Note_on_c, 7, 64, 127
8, 6052, Note_off_c, 7, 64, 0
8, 6144, Note_on_c, 7, 64, 127
8, 6145, Note_on_c, 7, 68, 110
8, 6148, Note_on_c, 7, 71, 122
8, 6196, Note_off_c, 7, 68, 0
8, 6199, Note_off_c, 7, 71, 0
8, 6206, Note_off_c, 7, 64, 0
8, 6236, Note_on_c, 7, 64, 117
8, 6236, Note_on_c, 7, 68, 100
8, 6238, Note_on_c, 7, 71, 113
8, 6287, Note_off_c, 7, 71, 0
8, 6290, Note_off_c, 7, 68, 0
8, 6290, Note_off_c, 7, 64, 0
8, 6329, Note_on_c, 7, 64, 122
8, 6329, Note_on_c, 7, 68, 104
8, 6331, Note_on_c, 7, 71, 113
8, 6380, Note_off_c, 7, 71, 0
8, 6385, Note_off_c, 7, 64, 0
8, 6386, Note_off_c, 7, 68, 0
8, 6425, Note_on_c, 7, 64, 122
8, 6425, Note_on_c, 7, 68, 100
8, 6427, Note_on_c, 7, 71, 117
8, 6483, Note_off_c, 7, 71, 0
8, 6485, Note_off_c, 7, 68, 0
8, 6487, Note_off_c, 7, 64, 0
8, 6523, Note_on_c, 7, 68, 104
8, 6524, Note_on_c, 7, 64, 127
8, 6524, Note_on_c, 7, 71, 122
8, 6578, Note_off_c, 7, 71, 0
8, 6582, Note_off_c, 7, 68, 0
8, 6583, Note_off_c, 7, 64, 0
8, 6616, Note_on_c, 7, 64, 122
8, 6617, Note_on_c, 7, 68, 104
8, 6617, Note_on_c, 7, 71, 117
8, 6671, Note_off_c, 7, 71, 0
8, 6677, Note_off_c, 7, 68, 0
8, 6680, Note_off_c, 7, 64, 0
8, 6715, Note_on_c, 7, 64, 117
8, 6715, Note_on_c, 7, 68, 100
8, 6715, Note_on_c, 7, 71, 113
8, 6766, Note_off_c, 7, 71, 0
8, 6769, Note_off_c, 7, 68, 0
8, 6771, Note_off_c, 7, 64, 0
8, 6808, Note_on_c, 7, 64, 117
8, 6808, Note_on_c, 7, 68, 100
8, 6809, Note_on_c, 7, 71, 117
8, 6860, Note_off_c, 7, 71, 0
8, 6867, Note_off_c, 7, 68, 0
8, 6868, Note_off_c, 7, 64, 0
8, 6904, Note_on_c, 7, 69, 117
8, 6905, Note_on_c, 7, 66, 110
8, 6907, Note_on_c, 7, 62, 108
8, 6970, Note_off_c, 7, 66, 0
8, 6974, Note_off_c, 7, 69, 0
8, 6975, Note_off_c, 7, 62, 0
8, 7003, Note_on_c, 7, 69, 113
8, 7004, Note_on_c, 7, 62, 104
8, 7006, Note_on_c, 7, 66, 100
8, 7063, Note_off_c, 7, 66, 0
8, 7065, Note_off_c, 7, 69, 0
8, 7068, Note_off_c, 7, 62, 0
8, 7100, Note_on_c, 7, 62, 108
8, 7100, Note_on_c, 7, 69, 113
8, 7102, Note_on_c, 7, 66, 104
8, 7159, Note_off_c, 7, 66, 0
8, 7159, Note_off_c, 7, 69, 0
8, 7162, Note_off_c, 7, 62, 0
8, 7193, Note_on_c, 7, 66, 100
8, 7195, Note_on_c, 7, 62, 108
8, 7196, Note_on_c, 7, 69, 113
8, 7252, Note_off_c, 7, 66, 0
8, 7253, Note_off_c, 7, 69, 0
8, 7259, Note_off_c, 7, 62, 0
8, 7289, Note_on_c, 7, 62, 104
8, 7289, Note_on_c, 7, 69, 108
8, 7291, Note_on_c, 7, 66, 104
8, 7348, Note_off_c, 7, 66, 0
8, 7348, Note_off_c, 7, 69, 0
8, 7351, Note_off_c, 7, 62, 0
8, 7385, Note_on_c, 7, 66, 100
8, 7387, Note_on_c, 7, 69, 113
8, 7388, Note_on_c, 7, 62, 108
8, 7445, Note_off_c, 7, 66, 0
8, 7447, Note_off_c, 7, 69, 0
8, 7450, Note_off_c, 7, 62, 0
8, 7481, Note_on_c, 7, 62, 101
8, 7483, Note_on_c, 7, 69, 104
8, 7484, Note_on_c, 7, 66, 100
8, 7540, Note_off_c, 7, 66, 0
8, 7542, Note_off_c, 7, 69, 0
8, 7545, Note_off_c, 7, 62, 0
8, 7579, Note_on_c, 7, 62, 113
8, 7579, Note_on_c, 7, 69, 113
8, 7580, Note_on_c, 7, 66, 110
8, 7637, Note_off_c, 7, 66, 0
8, 7641, Note_off_c, 7, 62, 0
8, 7643, Note_off_c, 7, 69, 0
8, 13824, Note_on_c, 7, 57, 101
8, 13824, Note_on_c, 7, 61, 80
8, 13825, Note_on_c, 7, 52, 93
8, 13827, Note_on_c, 7, 45, 101
8, 14204, Note_off_c, 7, 57, 0
8, 14206, Note_on_c, 7, 44, 88
8, 14206, Note_on_c, 7, 56, 83
8, 14214, Note_off_c, 7, 45, 0
8, 14450, Note_off_c, 7, 56, 0
8, 14462, Note_off_c, 7, 61, 0
8, 14463, Note_off_c, 7, 44, 0
8, 14469, Note_off_c, 7, 52, 0
8, 14484, Note_on_c, 7, 58, 83
8, 14484, Note_on_c, 7, 61, 76
8, 14488, Note_on_c, 7, 54, 88
8, 14489, Note_on_c, 7, 42, 101
8, 15263, Note_off_c, 7, 58, 0
8, 15266, Note_off_c, 7, 61, 0
8, 15288, Note_off_c, 7, 54, 0
8, 15297, Note_off_c, 7, 42, 0
8, 15353, Note_on_c, 7, 57, 97
8, 15353, Note_on_c, 7, 61, 76
8, 15355, Note_on_c, 7, 52, 86
8, 15360, Note_on_c, 7, 45, 101
8, 15724, Note_off_c, 7, 57, 0
8, 15740, Note_on_c, 7, 56, 83
8, 15742, Note_on_c, 7, 44, 83
8, 15752, Note_off_c, 7, 45, 0
8, 15983, Note_off_c, 7, 56, 0
8, 15998, Note_off_c, 7, 44, 0
8, 15999, Note_off_c, 7, 61, 0
8, 16001, Note_off_c, 7, 52, 0
8, 16024, Note_on_c, 7, 54, 88
8, 16024, Note_on_c, 7, 61, 66
8, 16027, Note_on_c, 7, 58, 83
8, 16028, Note_on_c, 7, 42, 101
8, 16701, Note_off_c, 7, 42, 0
8, 16704, Note_off_c, 7, 54, 0
8, 16711, Note_off_c, 7, 58, 0
8, 16715, Note_off_c, 7, 61, 0
8, 17089, Note_on_c, 7, 54, 72
8, 17089, Note_on_c, 7, 59, 93
8, 17091, Note_on_c, 7, 62, 86
8, 17198, Note_off_c, 7, 62, 0
8, 17205, Note_off_c, 7, 59, 0
8, 17218, Note_off_c, 7, 54, 0
8, 17473, Note_on_c, 7, 61, 83
8, 17475, Note_on_c, 7, 56, 76
8, 17476, Note_on_c, 7, 64, 90
8, 17588, Note_off_c, 7, 61, 0
8, 17599, Note_off_c, 7, 56, 0
8, 17604, Note_off_c, 7, 64, 0
8, 17859, Note_on_c, 7, 57, 75
8, 17860, Note_on_c, 7, 62, 93
8, 17860, Note_on_c, 7, 66, 80
8, 17980, Note_off_c, 7, 66, 0
8, 17984, Note_off_c, 7, 62, 0
8, 17996, Note_off_c, 7, 57, 0
8, 18238, Note_on_c, 7, 64, 90
8, 18241, Note_on_c, 7, 59, 77
8, 18241, Note_on_c, 7, 68, 72
8, 18362, Note_off_c, 7, 64, 0
8, 18365, Note_off_c, 7, 59, 0
8, 18365, Note_off_c, 7, 68, 0
8, 18432, Note_on_c, 7, 57, 97
8, 18576, Note_on_c, 7, 61, 80
8, 18590, Note_off_c, 7, 57, 0
8, 18720, Note_on_c, 7, 57, 90
8, 18726, Note_off_c, 7, 61, 0
8, 18816, Note_on_c, 7, 66, 80
8, 18825, Note_off_c, 7, 57, 0
8, 18960, Note_on_c, 7, 74, 97
8, 18964, Note_off_c, 7, 66, 0
8, 19099, Note_off_c, 7, 74, 0
8, 19104, Note_on_c, 7, 66, 80
8, 19140, Pitch_bend_c, 7, 5548
8, 19153, Pitch_bend_c, 7, 2906
8, 19164, Pitch_bend_c, 7, 1585
8, 19168, Note_off_c, 7, 66, 0
8, 19176, Pitch_bend_c, 7, 792
8, 19187, Control_c, 7, 1, 0
8, 19187, Pitch_bend_c, 7, 528
8, 19200, Note_on_c, 7, 64, 97
8, 19211, Pitch_bend_c, 7, 792
8, 19220, Pitch_bend_c, 7, 1056
8, 19233, Pitch_bend_c, 7, 1585
8, 19244, Pitch_bend_c, 7, 2378
8, 19256, Pitch_bend_c, 7, 3699
8, 19268, Pitch_bend_c, 7, 5284
8, 19278, Pitch_bend_c, 7, 6869
8, 19289, Pitch_bend_c, 7, 8191
8, 19297, Pitch_bend_c, 7, 8192
8, 19344, Note_on_c, 7, 73, 72
8, 19820, Note_off_c, 7, 64, 0
8, 19824, Note_off_c, 7, 73, 0
8, 19968, Note_on_c, 7, 45, 127
8, 20064, Note_on_c, 7, 52, 117
8, 20163, Note_on_c, 7, 57, 91
8, 20164, Note_on_c, 7, 61, 87
8, 20347, Note_off_c, 7, 45, 0
8, 20348, Note_on_c, 7, 44, 95
8, 20348, Note_on_c, 7, 56, 83
8, 20361, Note_off_c, 7, 57, 0
8, 20702, Note_on_c, 7, 58, 83
8, 20704, Note_on_c, 7, 42, 95
8, 20708, Note_on_c, 7, 54, 95
8, 20719, Note_off_c, 7, 44, 0
8, 20719, Note_off_c, 7, 56, 0
8, 20728, Note_off_c, 7, 52, 0
8, 21374, Note_off_c, 7, 42, 0
8, 21504, Note_on_c, 7, 45, 127
8, 21522, Note_off_c, 7, 54, 0
8, 21562, Note_off_c, 7, 58, 0
8, 21583, Note_off_c, 7, 61, 0
8, 21593, Note_on_c, 7, 52, 122
8, 21692, Note_on_c, 7, 57, 91
8, 21696, Note_on_c, 7, 61, 95
8, 21889, Note_on_c, 7, 56, 95
8, 21894, Note_on_c, 7, 44, 95
8, 21901, Note_off_c, 7, 57, 0
8, 21902, Note_off_c, 7, 45, 0
8, 22249, Note_on_c, 7, 58, 83
8, 22251, Note_on_c, 7, 42, 95
8, 22259, Note_on_c, 7, 54, 87
8, 22268, Note_off_c, 7, 44, 0
8, 22269, Note_off_c, 7, 52, 0
8, 22273, Note_off_c, 7, 56, 0
8, 22931, Note_off_c, 7, 54, 0
8, 22932, Note_off_c, 7, 58, 0
8, 22939, Note_off_c, 7, 42, 0
8, 22940, Note_off_c, 7, 61, 0
8, 23040, Note_on_c, 7, 45, 127
8, 23107, Note_off_c, 7, 45, 0
8, 23136, Note_on_c, 7, 45, 113
8, 23195, Note_off_c, 7, 45, 0
8, 23232, Note_on_c, 7, 45, 117
8, 23286, Note_off_c, 7, 45, 0
8, 23328, Note_on_c, 7, 45, 108
8, 23385, Note_off_c, 7, 45, 0
8, 23424, Note_on_c, 7, 45, 113
8, 23478, Note_off_c, 7, 45, 0
8, 23520, Note_on_c, 7, 45, 113
8, 23572, Note_off_c, 7, 45, 0
8, 23616, Note_on_c, 7, 45, 117
8, 23672, Note_off_c, 7, 45, 0
8, 23712, Note_on_c, 7, 45, 108
8, 23763, Note_off_c, 7, 45, 0
8, 23808, Note_on_c, 7, 45, 127
8, 23860, Note_off_c, 7, 45, 0
8, 23904, Note_on_c, 7, 45, 113
8, 23953, Note_off_c, 7, 45, 0
8, 24000, Note_on_c, 7, 45, 117
8, 24049, Note_off_c, 7, 45, 0
8, 24096, Note_on_c, 7, 45, 117
8, 24145, Note_off_c, 7, 45, 0
8, 24192, Note_on_c, 7, 45, 113
8, 24244, Note_off_c, 7, 45, 0
8, 24288, Note_on_c, 7, 45, 117
8, 24336, Note_off_c, 7, 45, 0
8, 24384, Note_on_c, 7, 45, 117
8, 24432, Note_off_c, 7, 45, 0
8, 24480, Note_on_c, 7, 45, 117
8, 24528, Note_off_c, 7, 45, 0
8, 24585, Note_on_c, 7, 45, 127
8, 24617, Note_off_c, 7, 45, 0
8, 24673, Note_on_c, 7, 45, 127
8, 24714, Note_off_c, 7, 45, 0
8, 24766, Note_on_c, 7, 45, 127
8, 24809, Note_off_c, 7, 45, 0
8, 24865, Note_on_c, 7, 45, 127
8, 24892, Note_off_c, 7, 45, 0
8, 24910, Note_on_c, 7, 47, 113
8, 24912, Note_on_c, 7, 46, 65
8, 24929, Note_off_c, 7, 46, 0
8, 24937, Note_off_c, 7, 47, 0
8, 24960, Note_on_c, 7, 49, 110
8, 24979, Note_off_c, 7, 49, 0
8, 25004, Note_on_c, 7, 52, 117
8, 25032, Note_off_c, 7, 52, 0
8, 25051, Note_on_c, 7, 59, 127
8, 25067, Note_on_c, 7, 64, 127
8, 25100, Note_off_c, 7, 59, 0
8, 25155, Note_off_c, 7, 64, 0
8, 25244, Note_on_c, 7, 57, 127
8, 25257, Note_on_c, 7, 62, 127
8, 25440, Note_on_c, 7, 62, 117
8, 25460, Note_off_c, 7, 57, 0
8, 25463, Note_off_c, 7, 62, 0
8, 25464, Note_off_c, 7, 62, 0
8, 25488, Note_on_c, 7, 61, 110
8, 25532, Note_off_c, 7, 61, 0
8, 25536, Note_on_c, 7, 62, 122
8, 25580, Note_off_c, 7, 62, 0
8, 25584, Note_on_c, 7, 61, 104
8, 25632, Note_on_c, 7, 57, 127
8, 25649, Note_off_c, 7, 61, 0
8, 25728, Note_on_c, 7, 56, 110
8, 25771, Note_off_c, 7, 57, 0
8, 25824, Note_on_c, 7, 59, 117
8, 25832, Note_off_c, 7, 56, 0
8, 25910, Note_off_c, 7, 59, 0
8, 26016, Note_on_c, 7, 57, 122
8, 26281, Note_off_c, 7, 57, 0
8, 26393, Note_on_c, 7, 50, 127
8, 26430, Note_on_c, 7, 49, 100
8, 26437, Note_off_c, 7, 50, 0
8, 26486, Note_off_c, 7, 49, 0
8, 26491, Note_on_c, 7, 45, 127
8, 26558, Note_off_c, 7, 45, 0
8, 26587, Note_on_c, 7, 40, 100
8, 26680, Note_on_c, 7, 44, 110
8, 26689, Note_off_c, 7, 40, 0
8, 26785, Note_on_c, 7, 40, 100
8, 26790, Note_off_c, 7, 44, 0
8, 26871, Note_off_c, 7, 40, 0
8, 26880, Note_on_c, 7, 45, 111
8, 26947, Note_off_c, 7, 45, 0
8, 26976, Note_on_c, 7, 45, 111
8, 27035, Note_off_c, 7, 45, 0
8, 27072, Note_on_c, 7, 45, 111
8, 27131, Note_off_c, 7, 45, 0
8, 27168, Note_on_c, 7, 45, 111
8, 27225, Note_off_c, 7, 45, 0
8, 27264, Note_on_c, 7, 45, 111
8, 27318, Note_off_c, 7, 45, 0
8, 27360, Note_on_c, 7, 45, 111
8, 27412, Note_off_c, 7, 45, 0
8, 27456, Note_on_c, 7, 45, 111
8, 27512, Note_off_c, 7, 45, 0
8, 27552, Note_on_c, 7, 45, 111
8, 27603, Note_off_c, 7, 45, 0
8, 27648, Note_on_c, 7, 45, 127
8, 27700, Note_off_c, 7, 45, 0
8, 27744, Note_on_c, 7, 45, 113
8, 27793, Note_off_c, 7, 45, 0
8, 27840, Note_on_c, 7, 45, 117
8, 27889, Note_off_c, 7, 45, 0
8, 27936, Note_on_c, 7, 45, 117
8, 27985, Note_off_c, 7, 45, 0
8, 28032, Note_on_c, 7, 45, 113
8, 28084, Note_off_c, 7, 45, 0
8, 28128, Note_on_c, 7, 45, 117
8, 28176, Note_off_c, 7, 45, 0
8, 28224, Note_on_c, 7, 45, 117
8, 28272, Note_off_c, 7, 45, 0
8, 28320, Note_on_c, 7, 45, 117
8, 28368, Note_off_c, 7, 45, 0
8, 28425, Note_on_c, 7, 45, 127
8, 28457, Note_off_c, 7, 45, 0
8, 28513, Note_on_c, 7, 45, 127
8, 28554, Note_off_c, 7, 45, 0
8, 28606, Note_on_c, 7, 45, 127
8, 28649, Note_off_c, 7, 45, 0
8, 28705, Note_on_c, 7, 45, 127
8, 28732, Note_off_c, 7, 45, 0
8, 28750, Note_on_c, 7, 47, 113
8, 28752, Note_on_c, 7, 46, 65
8, 28769, Note_off_c, 7, 46, 0
8, 28777, Note_off_c, 7, 47, 0
8, 28800, Note_on_c, 7, 49, 110
8, 28819, Note_off_c, 7, 49, 0
8, 28844, Note_on_c, 7, 52, 117
8, 28872, Note_off_c, 7, 52, 0
8, 28891, Note_on_c, 7, 59, 127
8, 28907, Note_on_c, 7, 64, 127
8, 28940, Note_off_c, 7, 59, 0
8, 28995, Note_off_c, 7, 64, 0
8, 29084, Note_on_c, 7, 57, 127
8, 29097, Note_on_c, 7, 62, 127
8, 29286, Note_on_c, 7, 62, 117
8, 29300, Note_off_c, 7, 57, 0
8, 29303, Note_off_c, 7, 62, 0
8, 29303, Note_off_c, 7, 62, 0
8, 29321, Note_on_c, 7, 61, 110
8, 29365, Note_off_c, 7, 61, 0
8, 29369, Note_on_c, 7, 62, 122
8, 29409, Note_on_c, 7, 61, 104
8, 29413, Note_off_c, 7, 62, 0
8, 29467, Note_on_c, 7, 57, 127
8, 29474, Note_off_c, 7, 61, 0
8, 29569, Note_on_c, 7, 56, 110
8, 29606, Note_off_c, 7, 57, 0
8, 29660, Note_on_c, 7, 59, 117
8, 29673, Note_off_c, 7, 56, 0
8, 29746, Note_off_c, 7, 59, 0
8, 29856, Note_on_c, 7, 57, 122
8, 30041, Note_on_c, 7, 62, 127
8, 30080, Note_on_c, 7, 61, 110
8, 30082, Note_off_c, 7, 62, 0
8, 30121, Note_off_c, 7, 57, 0
8, 30128, Note_off_c, 7, 61, 0
8, 30129, Note_on_c, 7, 62, 122
8, 30169, Note_on_c, 7, 61, 104
8, 30172, Note_off_c, 7, 62, 0
8, 30236, Note_off_c, 7, 61, 0
8, 30236, Note_on_c, 7, 57, 127
8, 30345, Note_on_c, 7, 64, 127
8, 30356, Note_off_c, 7, 57, 0
8, 30445, Note_off_c, 7, 64, 0
8, 30532, Note_on_c, 7, 64, 127
8, 30628, Note_off_c, 7, 64, 0
8, 30720, Note_on_c, 7, 64, 127
8, 30721, Note_on_c, 7, 68, 110
8, 30724, Note_on_c, 7, 71, 122
8, 30772, Note_off_c, 7, 68, 0
8, 30775, Note_off_c, 7, 71, 0
8, 30782, Note_off_c, 7, 64, 0
8, 30812, Note_on_c, 7, 64, 117
8, 30812, Note_on_c, 7, 68, 100
8, 30814, Note_on_c, 7, 71, 113
8, 30863, Note_off_c, 7, 71, 0
8, 30866, Note_off_c, 7, 68, 0
8, 30866, Note_off_c, 7, 64, 0
8, 30905, Note_on_c, 7, 64, 122
8, 30905, Note_on_c, 7, 68, 104
8, 30907, Note_on_c, 7, 71, 113
8, 30956, Note_off_c, 7, 71, 0
8, 30961, Note_off_c, 7, 64, 0
8, 30962, Note_off_c, 7, 68, 0
8, 31001, Note_on_c, 7, 64, 122
8, 31001, Note_on_c, 7, 68, 100
8, 31003, Note_on_c, 7, 71, 117
8, 31059, Note_off_c, 7, 71, 0
8, 31061, Note_off_c, 7, 68, 0
8, 31063, Note_off_c, 7, 64, 0
8, 31099, Note_on_c, 7, 68, 104
8, 31100, Note_on_c, 7, 64, 127
8, 31100, Note_on_c, 7, 71, 122
8, 31154, Note_off_c, 7, 71, 0
8, 31158, Note_off_c, 7, 68, 0
8, 31159, Note_off_c, 7, 64, 0
8, 31192, Note_on_c, 7, 64, 122
8, 31193, Note_on_c, 7, 68, 104
8, 31193, Note_on_c, 7, 71, 117
8, 31247, Note_off_c, 7, 71, 0
8, 31253, Note_off_c, 7, 68, 0
8, 31256, Note_off_c, 7, 64, 0
8, 31291, Note_on_c, 7, 64, 117
8, 31291, Note_on_c, 7, 68, 100
8, 31291, Note_on_c, 7, 71, 113
8, 31342, Note_off_c, 7, 71, 0
8, 31345, Note_off_c, 7, 68, 0
8, 31347, Note_off_c, 7, 64, 0
8, 31384, Note_on_c, 7, 64, 117
8, 31384, Note_on_c, 7, 68, 100
8, 31385, Note_on_c, 7, 71, 117
8, 31436, Note_off_c, 7, 71, 0
8, 31443, Note_off_c, 7, 68, 0
8, 31444, Note_off_c, 7, 64, 0
8, 31480, Note_on_c, 7, 69, 117
8, 31481, Note_on_c, 7, 66, 110
8, 31483, Note_on_c, 7, 62, 108
8, 31546, Note_off_c, 7, 66, 0
8, 31550, Note_off_c, 7, 69, 0
8, 31551, Note_off_c, 7, 62, 0
8, 31579, Note_on_c, 7, 69, 113
8, 31580, Note_on_c, 7, 62, 104
8, 31582, Note_on_c, 7, 66, 100
8, 31639, Note_off_c, 7, 66, 0
8, 31641, Note_off_c, 7, 69, 0
8, 31644, Note_off_c, 7, 62, 0
8, 31676, Note_on_c, 7, 62, 108
8, 31676, Note_on_c, 7, 69, 113
8, 31678, Note_on_c, 7, 66, 104
8, 31735, Note_off_c, 7, 66, 0
8, 31735, Note_off_c, 7, 69, 0
8, 31738, Note_off_c, 7, 62, 0
8, 31769, Note_on_c, 7, 66, 100
8, 31771, Note_on_c, 7, 62, 108
8, 31772, Note_on_c, 7, 69, 113
8, 31828, Note_off_c, 7, 66, 0
8, 31829, Note_off_c, 7, 69, 0
8, 31835, Note_off_c, 7, 62, 0
8, 31865, Note_on_c, 7, 62, 104
8, 31865, Note_on_c, 7, 69, 108
8, 31867, Note_on_c, 7, 66, 104
8, 31924, Note_off_c, 7, 66, 0
8, 31924, Note_off_c, 7, 69, 0
8, 31927, Note_off_c, 7, 62, 0
8, 31961, Note_on_c, 7, 66, 100
8, 31963, Note_on_c, 7, 69, 113
8, 31964, Note_on_c, 7, 62, 108
8, 32021, Note_off_c, 7, 66, 0
8, 32023, Note_off_c, 7, 69, 0
8, 32026, Note_off_c, 7, 62, 0
8, 32057, Note_on_c, 7, 62, 101
8, 32059, Note_on_c, 7, 69, 104
8, 32060, Note_on_c, 7, 66, 100
8, 32116, Note_off_c, 7, 66, 0
8, 32118, Note_off_c, 7, 69, 0
8, 32121, Note_off_c, 7, 62, 0
8, 32155, Note_on_c, 7, 62, 113
8, 32155, Note_on_c, 7, 69, 113
8, 32156, Note_on_c, 7, 66, 110
8, 32213, Note_off_c, 7, 66, 0
8, 32217, Note_off_c, 7, 62, 0
8, 32219, Note_off_c, 7, 69, 0
8, 32256, Note_on_c, 7, 45, 127
8, 32352, Note_on_c, 7, 52, 117
8, 32451, Note_on_c, 7, 57, 91
8, 32452, Note_on_c, 7, 61, 87
8, 32635, Note_off_c, 7, 45, 0
8, 32636, Note_on_c, 7, 44, 95
8, 32636, Note_on_c, 7, 56, 83
8, 32649, Note_off_c, 7, 57, 0
8, 32990, Note_on_c, 7, 58, 83
8, 32992, Note_on_c, 7, 42, 95
8, 32996, Note_on_c, 7, 54, 95
8, 33007, Note_off_c, 7, 44, 0
8, 33007, Note_off_c, 7, 56, 0
8, 33016, Note_off_c, 7, 52, 0
8, 33662, Note_off_c, 7, 42, 0
8, 33792, Note_on_c, 7, 45, 127
8, 33810, Note_off_c, 7, 54, 0
8, 33850, Note_off_c, 7, 58, 0
8, 33871, Note_off_c, 7, 61, 0
8, 33881, Note_on_c, 7, 52, 122
8, 33980, Note_on_c, 7, 57, 91
8, 33984, Note_on_c, 7, 61, 95
8, 34177, Note_on_c, 7, 56, 95
8, 34182, Note_on_c, 7, 44, 95
8, 34189, Note_off_c, 7, 57, 0
8, 34190, Note_off_c, 7, 45, 0
8, 34537, Note_on_c, 7, 58, 83
8, 34539, Note_on_c, 7, 42, 95
8, 34547, Note_on_c, 7, 54, 87
8, 34556, Note_off_c, 7, 44, 0
8, 34557, Note_off_c, 7, 52, 0
8, 34561, Note_off_c, 7, 56, 0
8, 35219, Note_off_c, 7, 54, 0
8, 35220, Note_off_c, 7, 58, 0
8, 35227, Note_off_c, 7, 42, 0
8, 35228, Note_off_c, 7, 61, 0
8, 35328, Note_on_c, 7, 57, 101
8, 35328, Note_on_c, 7, 61, 80
8, 35329, Note_on_c, 7, 52, 93
8, 35331, Note_on_c, 7, 45, 101
8, 35708, Note_off_c, 7, 57, 0
8, 35710, Note_on_c, 7, 44, 88
8, 35710, Note_on_c, 7, 56, 83
8, 35718, Note_off_c, 7, 45, 0
8, 35954, Note_off_c, 7, 56, 0
8, 35966, Note_off_c, 7, 61, 0
8, 35967, Note_off_c, 7, 44, 0
8, 35973, Note_off_c, 7, 52, 0
8, 35988, Note_on_c, 7, 58, 83
8, 35988, Note_on_c, 7, 61, 76
8, 35992, Note_on_c, 7, 54, 88
8, 35993, Note_on_c, 7, 42, 101
8, 36767, Note_off_c, 7, 58, 0
8, 36770, Note_off_c, 7, 61, 0
8, 36792, Note_off_c, 7, 54, 0
8, 36801, Note_off_c, 7, 42, 0
8, 36857, Note_on_c, 7, 57, 97
8, 36857, Note_on_c, 7, 61, 76
8, 36859, Note_on_c, 7, 52, 86
8, 36864, Note_on_c, 7, 45, 101
8, 37228, Note_off_c, 7, 57, 0
8, 37244, Note_on_c, 7, 56, 83
8, 37246, Note_on_c, 7, 44, 83
8, 37256, Note_off_c, 7, 45, 0
8, 37487, Note_off_c, 7, 56, 0
8, 37502, Note_off_c, 7, 44, 0
8, 37503, Note_off_c, 7, 61, 0
8, 37505, Note_off_c, 7, 52, 0
8, 37528, Note_on_c, 7, 54, 88
8, 37528, Note_on_c, 7, 61, 66
8, 37531, Note_on_c, 7, 58, 83
8, 37532, Note_on_c, 7, 42, 101
8, 38205, Note_off_c, 7, 42, 0
8, 38208, Note_off_c, 7, 54, 0
8, 38215, Note_off_c, 7, 58, 0
8, 38219, Note_off_c, 7, 61, 0
8, 38593, Note_on_c, 7, 54, 72
8, 38593, Note_on_c, 7, 59, 93
8, 38595, Note_on_c, 7, 62, 86
8, 38702, Note_off_c, 7, 62, 0
8, 38709, Note_off_c, 7, 59, 0
8, 38722, Note_off_c, 7, 54, 0
8, 38977, Note_on_c, 7, 61, 83
8, 38979, Note_on_c, 7, 56, 76
8, 38980, Note_on_c, 7, 64, 90
8, 39092, Note_off_c, 7, 61, 0
8, 39103, Note_off_c, 7, 56, 0
8, 39108, Note_off_c, 7, 64, 0
8, 39363, Note_on_c, 7, 57, 75
8, 39364, Note_on_c, 7, 62, 93
8, 39364, Note_on_c, 7, 66, 80
8, 39484, Note_off_c, 7, 66, 0
8, 39488, Note_off_c, 7, 62, 0
8, 39500, Note_off_c, 7, 57, 0
8, 39742, Note_on_c, 7, 64, 90
8, 39745, Note_on_c, 7, 59, 77
8, 39745, Note_on_c, 7, 68, 72
8, 39866, Note_off_c, 7, 64, 0
8, 39869, Note_off_c, 7, 59, 0
8, 39869, Note_off_c, 7, 68, 0
8, 39936, Note_on_c, 7, 57, 97
8, 40080, Note_on_c, 7, 61, 80
8, 40094, Note_off_c, 7, 57, 0
8, 40224, Note_on_c, 7, 57, 90
8, 40230, Note_off_c, 7, 61, 0
8, 40320, Note_on_c, 7, 66, 80
8, 40329, Note_off_c, 7, 57, 0
8, 40464, Note_on_c, 7, 74, 97
8, 40468, Note_off_c, 7, 66, 0
8, 40603, Note_off_c, 7, 74, 0
8, 40608, Note_on_c, 7, 66, 80
8, 40644, Pitch_bend_c, 7, 5548
8, 40657, Pitch_bend_c, 7, 2906
8, 40668, Pitch_bend_c, 7, 1585
8, 40672, Note_off_c, 7, 66, 0
8, 40680, Pitch_bend_c, 7, 792
8, 40691, Control_c, 7, 1, 0
8, 40691, Pitch_bend_c, 7, 528
8, 40704, Note_on_c, 7, 64, 97
8, 40715, Pitch_bend_c, 7, 792
8, 40724, Pitch_bend_c, 7, 1056
8, 40737, Pitch_bend_c, 7, 1585
8, 40748, Pitch_bend_c, 7, 2378
8, 40760, Pitch_bend_c, 7, 3699
8, 40772, Pitch_bend_c, 7, 5284
8, 40782, Pitch_bend_c, 7, 6869
8, 40793, Pitch_bend_c, 7, 8191
8, 40801, Pitch_bend_c, 7, 8192
8, 40848, Note_on_c, 7, 73, 72
8, 41324, Note_off_c, 7, 64, 0
8, 41328, Note_off_c, 7, 73, 0
8, 41472, Note_on_c, 7, 45, 127
8, 41568, Note_on_c, 7, 52, 117
8, 41667, Note_on_c, 7, 57, 91
8, 41668, Note_on_c, 7, 61, 87
8, 41851, Note_off_c, 7, 45, 0
8, 41852, Note_on_c, 7, 44, 95
8, 41852, Note_on_c, 7, 56, 83
8, 41865, Note_off_c, 7, 57, 0
8, 42206, Note_on_c, 7, 58, 83
8, 42208, Note_on_c, 7, 42, 95
8, 42212, Note_on_c, 7, 54, 95
8, 42223, Note_off_c, 7, 44, 0
8, 42223, Note_off_c, 7, 56, 0
8, 42232, Note_off_c, 7, 52, 0
8, 42878, Note_off_c, 7, 42, 0
8, 43008, Note_on_c, 7, 45, 127
8, 43026, Note_off_c, 7, 54, 0
8, 43066, Note_off_c, 7, 58, 0
8, 43087, Note_off_c, 7, 61, 0
8, 43097, Note_on_c, 7, 52, 122
8, 43196, Note_on_c, 7, 57, 91
8, 43200, Note_on_c, 7, 61, 95
8, 43393, Note_on_c, 7, 56, 95
8, 43398, Note_on_c, 7, 44, 95
8, 43405, Note_off_c, 7, 57, 0
8, 43406, Note_off_c, 7, 45, 0
8, 43753, Note_on_c, 7, 58, 83
8, 43755, Note_on_c, 7, 42, 95
8, 43763, Note_on_c, 7, 54, 87
8, 43772, Note_off_c, 7, 44, 0
8, 43773, Note_off_c, 7, 52, 0
8, 43777, Note_off_c, 7, 56, 0
8, 44435, Note_off_c, 7, 54, 0
8, 44436, Note_off_c, 7, 58, 0
8, 44443, Note_off_c, 7, 42, 0
8, 44444, Note_off_c, 7, 61, 0
8, 44544, Note_on_c, 7, 45, 127
8, 44611, Note_off_c, 7, 45, 0
8, 44640, Note_on_c, 7, 45, 113
8, 44699, Note_off_c, 7, 45, 0
8, 44736, Note_on_c, 7, 45, 117
8, 44790, Note_off_c, 7, 45, 0
8, 44832, Note_on_c, 7, 45, 108
8, 44889, Note_off_c, 7, 45, 0
8, 44928, Note_on_c, 7, 45, 113
8, 44982, Note_off_c, 7, 45, 0
8, 45024, Note_on_c, 7, 45, 113
8, 45076, Note_off_c, 7, 45, 0
8, 45120, Note_on_c, 7, 45, 117
8, 45176, Note_off_c, 7, 45, 0
8, 45216, Note_on_c, 7, 45, 108
8, 45267, Note_off_c, 7, 45, 0
8, 45312, Note_on_c, 7, 45, 127
8, 45364, Note_off_c, 7, 45, 0
8, 45408, Note_on_c, 7, 45, 113
8, 45457, Note_off_c, 7, 45, 0
8, 45504, Note_on_c, 7, 45, 117
8, 45553, Note_off_c, 7, 45, 0
8, 45600, Note_on_c, 7, 45, 117
8, 45649, Note_off_c, 7, 45, 0
8, 45696, Note_on_c, 7, 45, 113
8, 45748, Note_off_c, 7, 45, 0
8, 45792, Note_on_c, 7, 45, 117
8, 45840, Note_off_c, 7, 45, 0
8, 45888, Note_on_c, 7, 45, 117
8, 45936, Note_off_c, 7, 45, 0
8, 45984, Note_on_c, 7, 45, 117
8, 46032, Note_off_c, 7, 45, 0
8, 46089, Note_on_c, 7, 45, 127
8, 46121, Note_off_c, 7, 45, 0
8, 46177, Note_on_c, 7, 45, 127
8, 46218, Note_off_c, 7, 45, 0
8, 46270, Note_on_c, 7, 45, 127
8, 46313, Note_off_c, 7, 45, 0
8, 46369, Note_on_c, 7, 45, 127
8, 46396, Note_off_c, 7, 45, 0
8, 46414, Note_on_c, 7, 47, 113
8, 46416, Note_on_c, 7, 46, 65
8, 46433, Note_off_c, 7, 46, 0
8, 46441, Note_off_c, 7, 47, 0
8, 46464, Note_on_c, 7, 49, 110
8, 46483, Note_off_c, 7, 49, 0
8, 46508, Note_on_c, 7, 52, 117
8, 46536, Note_off_c, 7, 52, 0
8, 46555, Note_on_c, 7, 59, 127
8, 46571, Note_on_c, 7, 64, 127
8, 46604, Note_off_c, 7, 59, 0
8, 46659, Note_off_c, 7, 64, 0
8, 46748, Note_on_c, 7, 57, 127
8, 46761, Note_on_c, 7, 62, 127
8, 46944, Note_on_c, 7, 62, 117
8, 46964, Note_off_c, 7, 57, 0
8, 46967, Note_off_c, 7, 62, 0
8, 46968, Note_off_c, 7, 62, 0
8, 46992, Note_on_c, 7, 61, 110
8, 47036, Note_off_c, 7, 61, 0
8, 47040, Note_on_c, 7, 62, 122
8, 47084, Note_off_c, 7, 62, 0
8, 47088, Note_on_c, 7, 61, 104
8, 47136, Note_on_c, 7, 57, 127
8, 47153, Note_off_c, 7, 61, 0
8, 47232, Note_on_c, 7, 56, 110
8, 47275, Note_off_c, 7, 57, 0
8, 47328, Note_on_c, 7, 59, 117
8, 47336, Note_off_c, 7, 56, 0
8, 47414, Note_off_c, 7, 59, 0
8, 47520, Note_on_c, 7, 57, 122
8, 47785, Note_off_c, 7, 57, 0
8, 47897, Note_on_c, 7, 50, 127
8, 47934, Note_on_c, 7, 49, 100
8, 47941, Note_off_c, 7, 50, 0
8, 47990, Note_off_c, 7, 49, 0
8, 47995, Note_on_c, 7, 45, 127
8, 48062, Note_off_c, 7, 45, 0
8, 48091, Note_on_c, 7, 40, 100
8, 48184, Note_on_c, 7, 44, 110
8, 48193, Note_off_c, 7, 40, 0
8, 48289, Note_on_c, 7, 40, 100
8, 48294, Note_off_c, 7, 44, 0
8, 48375, Note_off_c, 7, 40, 0
8, 48384, Note_on_c, 7, 45, 111
8, 48451, Note_off_c, 7, 45, 0
8, 48480, Note_on_c, 7, 45, 111
8, 48539, Note_off_c, 7, 45, 0
8, 48576, Note_on_c, 7, 45, 111
8, 48635, Note_off_c, 7, 45, 0
8, 48672, Note_on_c, 7, 45, 111
8, 48729, Note_off_c, 7, 45, 0
8, 48768, Note_on_c, 7, 45, 111
8, 48822, Note_off_c, 7, 45, 0
8, 48864, Note_on_c, 7, 45, 111
8, 48916, Note_off_c, 7, 45, 0
8, 48960, Note_on_c, 7, 45, 111
8, 49016, Note_off_c, 7, 45, 0
8, 49056, Note_on_c, 7, 45, 111
8, 49107, Note_off_c, 7, 45, 0
8, 49152, Note_on_c, 7, 45, 127
8, 49204, Note_off_c, 7, 45, 0
8, 49248, Note_on_c, 7, 45, 113
8, 49297, Note_off_c, 7, 45, 0
8, 49344, Note_on_c, 7, 45, 117
8, 49393, Note_off_c, 7, 45, 0
8, 49440, Note_on_c, 7, 45, 117
8, 49489, Note_off_c, 7, 45, 0
8, 49536, Note_on_c, 7, 45, 113
8, 49588, Note_off_c, 7, 45, 0
8, 49632, Note_on_c, 7, 45, 117
8, 49680, Note_off_c, 7, 45, 0
8, 49728, Note_on_c, 7, 45, 117
8, 49776, Note_off_c, 7, 45, 0
8, 49824, Note_on_c, 7, 45, 117
8, 49872, Note_off_c, 7, 45, 0
8, 49929, Note_on_c, 7, 45, 127
8, 49961, Note_off_c, 7, 45, 0
8, 50017, Note_on_c, 7, 45, 127
8, 50058, Note_off_c, 7, 45, 0
8, 50110, Note_on_c, 7, 45, 127
8, 50153, Note_off_c, 7, 45, 0
8, 50209, Note_on_c, 7, 45, 127
8, 50236, Note_off_c, 7, 45, 0
8, 50254, Note_on_c, 7, 47, 113
8, 50256, Note_on_c, 7, 46, 65
8, 50273, Note_off_c, 7, 46, 0
8, 50281, Note_off_c, 7, 47, 0
8, 50304, Note_on_c, 7, 49, 110
8, 50323, Note_off_c, 7, 49, 0
8, 50348, Note_on_c, 7, 52, 117
8, 50376, Note_off_c, 7, 52, 0
8, 50395, Note_on_c, 7, 59, 127
8, 50411, Note_on_c, 7, 64, 127
8, 50444, Note_off_c, 7, 59, 0
8, 50499, Note_off_c, 7, 64, 0
8, 50588, Note_on_c, 7, 57, 127
8, 50601, Note_on_c, 7, 62, 127
8, 50790, Note_on_c, 7, 62, 117
8, 50804, Note_off_c, 7, 57, 0
8, 50807, Note_off_c, 7, 62, 0
8, 50807, Note_off_c, 7, 62, 0
8, 50825, Note_on_c, 7, 61, 110
8, 50869, Note_off_c, 7, 61, 0
8, 50873, Note_on_c, 7, 62, 122
8, 50913, Note_on_c, 7, 61, 104
8, 50917, Note_off_c, 7, 62, 0
8, 50971, Note_on_c, 7, 57, 127
8, 50978, Note_off_c, 7, 61, 0
8, 51073, Note_on_c, 7, 56, 110
8, 51110, Note_off_c, 7, 57, 0
8, 51164, Note_on_c, 7, 59, 117
8, 51177, Note_off_c, 7, 56, 0
8, 51250, Note_off_c, 7, 59, 0
8, 51360, Note_on_c, 7, 57, 122
8, 51545, Note_on_c, 7, 62, 127
8, 51584, Note_on_c, 7, 61, 110
8, 51586, Note_off_c, 7, 62, 0
8, 51625, Note_off_c, 7, 57, 0
8, 51632, Note_off_c, 7, 61, 0
8, 51633, Note_on_c, 7, 62, 122
8, 51673, Note_on_c, 7, 61, 104
8, 51676, Note_off_c, 7, 62, 0
8, 51740, Note_off_c, 7, 61, 0
8, 51740, Note_on_c, 7, 57, 127
8, 51849, Note_on_c, 7, 64, 127
8, 51860, Note_off_c, 7, 57, 0
8, 51949, Note_off_c, 7, 64, 0
8, 52036, Note_on_c, 7, 64, 127
8, 52132, Note_off_c, 7, 64, 0
8, 52224, Note_on_c, 7, 64, 127
8, 52225, Note_on_c, 7, 68, 110
8, 52228, Note_on_c, 7, 71, 122
8, 52276, Note_off_c, 7, 68, 0
8, 52279, Note_off_c, 7, 71, 0
8, 52286, Note_off_c, 7, 64, 0
8, 52316, Note_on_c, 7, 64, 117
8, 52316, Note_on_c, 7, 68, 100
8, 52318, Note_on_c, 7, 71, 113
8, 52367, Note_off_c, 7, 71, 0
8, 52370, Note_off_c, 7, 68, 0
8, 52370, Note_off_c, 7, 64, 0
8, 52409, Note_on_c, 7, 64, 122
8, 52409, Note_on_c, 7, 68, 104
8, 52411, Note_on_c, 7, 71, 113
8, 52460, Note_off_c, 7, 71, 0
8, 52465, Note_off_c, 7, 64, 0
8, 52466, Note_off_c, 7, 68, 0
8, 52505, Note_on_c, 7, 64, 122
8, 52505, Note_on_c, 7, 68, 100
8, 52507, Note_on_c, 7, 71, 117
8, 52563, Note_off_c, 7, 71, 0
8, 52565, Note_off_c, 7, 68, 0
8, 52567, Note_off_c, 7, 64, 0
8, 52603, Note_on_c, 7, 68, 104
8, 52604, Note_on_c, 7, 64, 127
8, 52604, Note_on_c, 7, 71, 122
8, 52658, Note_off_c, 7, 71, 0
8, 52662, Note_off_c, 7, 68, 0
8, 52663, Note_off_c, 7, 64, 0
8, 52696, Note_on_c, 7, 64, 122
8, 52697, Note_on_c, 7, 68, 104
8, 52697, Note_on_c, 7, 71, 117
8, 52751, Note_off_c, 7, 71, 0
8, 52757, Note_off_c, 7, 68, 0
8, 52760, Note_off_c, 7, 64, 0
8, 52795, Note_on_c, 7, 64, 117
8, 52795, Note_on_c, 7, 68, 100
8, 52795, Note_on_c, 7, 71, 113
8, 52846, Note_off_c, 7, 71, 0
8, 52849, Note_off_c, 7, 68, 0
8, 52851, Note_off_c, 7, 64, 0
8, 52888, Note_on_c, 7, 64, 117
8, 52888, Note_on_c, 7, 68, 100
8, 52889, Note_on_c, 7, 71, 117
8, 52940, Note_off_c, 7, 71, 0
8, 52947, Note_off_c, 7, 68, 0
8, 52948, Note_off_c, 7, 64, 0
8, 52984, Note_on_c, 7, 69, 117
8, 52985, Note_on_c, 7, 66, 110
8, 52987, Note_on_c, 7, 62, 108
8, 53050, Note_off_c, 7, 66, 0
8, 53054, Note_off_c, 7, 69, 0
8, 53055, Note_off_c, 7, 62, 0
8, 53083, Note_on_c, 7, 69, 113
8, 53084, Note_on_c, 7, 62, 104
8, 53086, Note_on_c, 7, 66, 100
8, 53143, Note_off_c, 7, 66, 0
8, 53145, Note_off_c, 7, 69, 0
8, 53148, Note_off_c, 7, 62, 0
8, 53180, Note_on_c, 7, 62, 108
8, 53180, Note_on_c, 7, 69, 113
8, 53182, Note_on_c, 7, 66, 104
8, 53239, Note_off_c, 7, 66, 0
8, 53239, Note_off_c, 7, 69, 0
8, 53242, Note_off_c, 7, 62, 0
8, 53273, Note_on_c, 7, 66, 100
8, 53275, Note_on_c, 7, 62, 108
8, 53276, Note_on_c, 7, 69, 113
8, 53332, Note_off_c, 7, 66, 0
8, 53333, Note_off_c, 7, 69, 0
8, 53339, Note_off_c, 7, 62, 0
8, 53369, Note_on_c, 7, 62, 104
8, 53369, Note_on_c, 7, 69, 108
8, 53371, Note_on_c, 7, 66, 104
8, 53428, Note_off_c, 7, 66, 0
8, 53428, Note_off_c, 7, 69, 0
8, 53431, Note_off_c, 7, 62, 0
8, 53465, Note_on_c, 7, 66, 100
8, 53467, Note_on_c, 7, 69, 113
8, 53468, Note_on_c, 7, 62, 108
8, 53525, Note_off_c, 7, 66, 0
8, 53527, Note_off_c, 7, 69, 0
8, 53530, Note_off_c, 7, 62, 0
8, 53561, Note_on_c, 7, 62, 101
8, 53563, Note_on_c, 7, 69, 104
8, 53564, Note_on_c, 7, 66, 100
8, 53620, Note_off_c, 7, 66, 0
8, 53622, Note_off_c, 7, 69, 0
8, 53625, Note_off_c, 7, 62, 0
8, 53659, Note_on_c, 7, 62, 113
8, 53659, Note_on_c, 7, 69, 113
8, 53660, Note_on_c, 7, 66, 110
8, 53717, Note_off_c, 7, 66, 0
8, 53721, Note_off_c, 7, 62, 0
8, 53723, Note_off_c, 7, 69, 0
8, 53760, Note_on_c, 7, 57, 101
8, 53760, Note_on_c, 7, 61, 80
8, 53761, Note_on_c, 7, 52, 93
8, 53763, Note_on_c, 7, 45, 101
8, 54140, Note_off_c, 7, 57, 0
8, 54142, Note_on_c, 7, 44, 88
8, 54142, Note_on_c, 7, 56, 83
8, 54150, Note_off_c, 7, 45, 0
8, 54386, Note_off_c, 7, 56, 0
8, 54398, Note_off_c, 7, 61, 0
8, 54399, Note_off_c, 7, 44, 0
8, 54405, Note_off_c, 7, 52, 0
8, 54420, Note_on_c, 7, 58, 83
8, 54420, Note_on_c, 7, 61, 76
8, 54424, Note_on_c, 7, 54, 88
8, 54425, Note_on_c, 7, 42, 101
8, 55199, Note_off_c, 7, 58, 0
8, 55202, Note_off_c, 7, 61, 0
8, 55224, Note_off_c, 7, 54, 0
8, 55233, Note_off_c, 7, 42, 0
8, 55289, Note_on_c, 7, 57, 97
8, 55289, Note_on_c, 7, 61, 76
8, 55291, Note_on_c, 7, 52, 86
8, 55296, Note_on_c, 7, 45, 101
8, 55660, Note_off_c, 7, 57, 0
8, 55676, Note_on_c, 7, 56, 83
8, 55678, Note_on_c, 7, 44, 83
8, 55688, Note_off_c, 7, 45, 0
8, 55919, Note_off_c, 7, 56, 0
8, 55934, Note_off_c, 7, 44, 0
8, 55935, Note_off_c, 7, 61, 0
8, 55937, Note_off_c, 7, 52, 0
8, 55960, Note_on_c, 7, 54, 88
8, 55960, Note_on_c, 7, 61, 66
8, 55963, Note_on_c, 7, 58, 83
8, 55964, Note_on_c, 7, 42, 101
8, 56637, Note_off_c, 7, 42, 0
8, 56640, Note_off_c, 7, 54, 0
8, 56647, Note_off_c, 7, 58, 0
8, 56651, Note_off_c, 7, 61, 0
8, 57025, Note_on_c, 7, 54, 72
8, 57025, Note_on_c, 7, 59, 93
8, 57027, Note_on_c, 7, 62, 86
8, 57134, Note_off_c, 7, 62, 0
8, 57141, Note_off_c, 7, 59, 0
8, 57154, Note_off_c, 7, 54, 0
8, 57409, Note_on_c, 7, 61, 83
8, 57411, Note_on_c, 7, 56, 76
8, 57412, Note_on_c, 7, 64, 90
8, 57524, Note_off_c, 7, 61, 0
8, 57535, Note_off_c, 7, 56, 0
8, 57540, Note_off_c, 7, 64, 0
8, 57795, Note_on_c, 7, 57, 75
8, 57796, Note_on_c, 7, 62, 93
8, 57796, Note_on_c, 7, 66, 80
8, 57916, Note_off_c, 7, 66, 0
8, 57920, Note_off_c, 7, 62, 0
8, 57932, Note_off_c, 7, 57, 0
8, 58174, Note_on_c, 7, 64, 90
8, 58177, Note_on_c, 7, 59, 77
8, 58177, Note_on_c, 7, 68, 72
8, 58298, Note_off_c, 7, 64, 0
8, 58301, Note_off_c, 7, 59, 0
8, 58301, Note_off_c, 7, 68, 0
8, 58368, Note_on_c, 7, 57, 97
8, 58512, Note_on_c, 7, 61, 80
8, 58526, Note_off_c, 7, 57, 0
8, 58656, Note_on_c, 7, 57, 90
8, 58662, Note_off_c, 7, 61, 0
8, 58752, Note_on_c, 7, 66, 80
8, 58761, Note_off_c, 7, 57, 0
8, 58896, Note_on_c, 7, 74, 97
8, 58900, Note_off_c, 7, 66, 0
8, 59035, Note_off_c, 7, 74, 0
8, 59040, Note_on_c, 7, 66, 80
8, 59076, Pitch_bend_c, 7, 5548
8, 59089, Pitch_bend_c, 7, 2906
8, 59100, Pitch_bend_c, 7, 1585
8, 59104, Note_off_c, 7, 66, 0
8, 59112, Pitch_bend_c, 7, 792
8, 59123, Control_c, 7, 1, 0
8, 59123, Pitch_bend_c, 7, 528
8, 59136, Note_on_c, 7, 64, 97
8, 59147, Pitch_bend_c, 7, 792
8, 59156, Pitch_bend_c, 7, 1056
8, 59169, Pitch_bend_c, 7, 1585
8, 59180, Pitch_bend_c, 7, 2378
8, 59192, Pitch_bend_c, 7, 3699
8, 59204, Pitch_bend_c, 7, 5284
8, 59214, Pitch_bend_c, 7, 6869
8, 59225, Pitch_bend_c, 7, 8191
8, 59233, Pitch_bend_c, 7, 8192
8, 59280, Note_on_c, 7, 73, 72
8, 59756, Note_off_c, 7, 64, 0
8, 59760, Note_off_c, 7, 73, 0
8, 59904, Note_on_c, 7, 45, 127
8, 59971, Note_off_c, 7, 45, 0
8, 60000, Note_on_c, 7, 45, 113
8, 60059, Note_off_c, 7, 45, 0
8, 60096, Note_on_c, 7, 45, 117
8, 60150, Note_off_c, 7, 45, 0
8, 60192, Note_on_c, 7, 45, 108
8, 60249, Note_off_c, 7, 45, 0
8, 60288, Note_on_c, 7, 45, 113
8, 60342, Note_off_c, 7, 45, 0
8, 60384, Note_on_c, 7, 45, 113
8, 60436, Note_off_c, 7, 45, 0
8, 60480, Note_on_c, 7, 45, 117
8, 60536, Note_off_c, 7, 45, 0
8, 60576, Note_on_c, 7, 45, 108
8, 60627, Note_off_c, 7, 45, 0
8, 60672, Note_on_c, 7, 45, 127
8, 60724, Note_off_c, 7, 45, 0
8, 60768, Note_on_c, 7, 45, 113
8, 60817, Note_off_c, 7, 45, 0
8, 60864, Note_on_c, 7, 45, 117
8, 60913, Note_off_c, 7, 45, 0
8, 60960, Note_on_c, 7, 45, 117
8, 61009, Note_off_c, 7, 45, 0
8, 61056, Note_on_c, 7, 45, 113
8, 61108, Note_off_c, 7, 45, 0
8, 61152, Note_on_c, 7, 45, 117
8, 61200, Note_off_c, 7, 45, 0
8, 61248, Note_on_c, 7, 45, 117
8, 61296, Note_off_c, 7, 45, 0
8, 61344, Note_on_c, 7, 45, 117
8, 61392, Note_off_c, 7, 45, 0
8, 61449, Note_on_c, 7, 45, 127
8, 61481, Note_off_c, 7, 45, 0
8, 61537, Note_on_c, 7, 45, 127
8, 61578, Note_off_c, 7, 45, 0
8, 61630, Note_on_c, 7, 45, 127
8, 61673, Note_off_c, 7, 45, 0
8, 61729, Note_on_c, 7, 45, 127
8, 61756, Note_off_c, 7, 45, 0
8, 61774, Note_on_c, 7, 47, 113
8, 61776, Note_on_c, 7, 46, 65
8, 61793, Note_off_c, 7, 46, 0
8, 61801, Note_off_c, 7, 47, 0
8, 61824, Note_on_c, 7, 49, 110
8, 61843, Note_off_c, 7, 49, 0
8, 61868, Note_on_c, 7, 52, 117
8, 61896, Note_off_c, 7, 52, 0
8, 61915, Note_on_c, 7, 59, 127
8, 61931, Note_on_c, 7, 64, 127
8, 61964, Note_off_c, 7, 59, 0
8, 62019, Note_off_c, 7, 64, 0
8, 62108, Note_on_c, 7, 57, 127
8, 62121, Note_on_c, 7, 62, 127
8, 62304, Note_on_c, 7, 62, 117
8, 62324, Note_off_c, 7, 57, 0
8, 62327, Note_off_c, 7, 62, 0
8, 62328, Note_off_c, 7, 62, 0
8, 62352, Note_on_c, 7, 61, 110
8, 62396, Note_off_c, 7, 61, 0
8, 62400, Note_on_c, 7, 62, 122
8, 62444, Note_off_c, 7, 62, 0
8, 62448, Note_on_c, 7, 61, 104
8, 62496, Note_on_c, 7, 57, 127
8, 62513, Note_off_c, 7, 61, 0
8, 62592, Note_on_c, 7, 56, 110
8, 62635, Note_off_c, 7, 57, 0
8, 62688, Note_on_c, 7, 59, 117
8, 62696, Note_off_c, 7, 56, 0
8, 62774, Note_off_c, 7, 59, 0
8, 62880, Note_on_c, 7, 57, 122
8, 63145, Note_off_c, 7, 57, 0
8, 63257, Note_on_c, 7, 50, 127
8, 63294, Note_on_c, 7, 49, 100
8, 63301, Note_off_c, 7, 50, 0
8, 63350, Note_off_c, 7, 49, 0
8, 63355, Note_on_c, 7, 45, 127
8, 63422, Note_off_c, 7, 45, 0
8, 63451, Note_on_c, 7, 40, 100
8, 63544, Note_on_c, 7, 44, 110
8, 63553, Note_off_c, 7, 40, 0
8, 63649, Note_on_c, 7, 40, 100
8, 63654, Note_off_c, 7, 44, 0
8, 63735, Note_off_c, 7, 40, 0
8, 63744, Note_on_c, 7, 45, 111
8, 63811, Note_off_c, 7, 45, 0
8, 63840, Note_on_c, 7, 45, 111
8, 63899, Note_off_c, 7, 45, 0
8, 63936, Note_on_c, 7, 45, 111
8, 63995, Note_off_c, 7, 45, 0
8, 64032, Note_on_c, 7, 45, 111
8, 64089, Note_off_c, 7, 45, 0
8, 64128, Note_on_c, 7, 45, 111
8, 64182, Note_off_c, 7, 45, 0
8, 64224, Note_on_c, 7, 45, 111
8, 64276, Note_off_c, 7, 45, 0
8, 64320, Note_on_c, 7, 45, 111
8, 64376, Note_off_c, 7, 45, 0
8, 64416, Note_on_c, 7, 45, 111
8, 64467, Note_off_c, 7, 45, 0
8, 64512, Note_on_c, 7, 45, 127
8, 64564, Note_off_c, 7, 45, 0
8, 64608, Note_on_c, 7, 45, 113
8, 64657, Note_off_c, 7, 45, 0
8, 64704, Note_on_c, 7, 45, 117
8, 64753, Note_off_c, 7, 45, 0
8, 64800, Note_on_c, 7, 45, 117
8, 64849, Note_off_c, 7, 45, 0
8, 64896, Note_on_c, 7, 45, 113
8, 64948, Note_off_c, 7, 45, 0
8, 64992, Note_on_c, 7, 45, 117
8, 65040, Note_off_c, 7, 45, 0
8, 65088, Note_on_c, 7, 45, 117
8, 65136, Note_off_c, 7, 45, 0
8, 65184, Note_on_c, 7, 45, 117
8, 65232, Note_off_c, 7, 45, 0
8, 65289, Note_on_c, 7, 45, 127
8, 65321, Note_off_c, 7, 45, 0
8, 65377, Note_on_c, 7, 45, 127
8, 65418, Note_off_c, 7, 45, 0
8, 65470, Note_on_c, 7, 45, 127
8, 65513, Note_off_c, 7, 45, 0
8, 65569, Note_on_c, 7, 45, 127
8, 65596, Note_off_c, 7, 45, 0
8, 65614, Note_on_c, 7, 47, 113
8, 65616, Note_on_c, 7, 46, 65
8, 65633, Note_off_c, 7, 46, 0
8, 65641, Note_off_c, 7, 47, 0
8, 65664, Note_on_c, 7, 49, 110
8, 65683, Note_off_c, 7, 49, 0
8, 65708, Note_on_c, 7, 52, 117
8, 65736, Note_off_c, 7, 52, 0
8, 65755, Note_on_c, 7, 59, 127
8, 65771, Note_on_c, 7, 64, 127
8, 65804, Note_off_c, 7, 59, 0
8, 65859, Note_off_c, 7, 64, 0
8, 65948, Note_on_c, 7, 57, 127
8, 65961, Note_on_c, 7, 62, 127
8, 66150, Note_on_c, 7, 62, 117
8, 66164, Note_off_c, 7, 57, 0
8, 66167, Note_off_c, 7, 62, 0
8, 66167, Note_off_c, 7, 62, 0
8, 66185, Note_on_c, 7, 61, 110
8, 66229, Note_off_c, 7, 61, 0
8, 66233, Note_on_c, 7, 62, 122
8, 66273, Note_on_c, 7, 61, 104
8, 66277, Note_off_c, 7, 62, 0
8, 66331, Note_on_c, 7, 57, 127
8, 66338, Note_off_c, 7, 61, 0
8, 66433, Note_on_c, 7, 56, 110
8, 66470, Note_off_c, 7, 57, 0
8, 66524, Note_on_c, 7, 59, 117
8, 66537, Note_off_c, 7, 56, 0
8, 66610, Note_off_c, 7, 59, 0
8, 66720, Note_on_c, 7, 57, 122
8, 66905, Note_on_c, 7, 62, 127
8, 66944, Note_on_c, 7, 61, 110
8, 66946, Note_off_c, 7, 62, 0
8, 66985, Note_off_c, 7, 57, 0
8, 66992, Note_off_c, 7, 61, 0
8, 66993, Note_on_c, 7, 62, 122
8, 67033, Note_on_c, 7, 61, 104
8, 67036, Note_off_c, 7, 62, 0
8, 67100, Note_off_c, 7, 61, 0
8, 67100, Note_on_c, 7, 57, 127
8, 67209, Note_on_c, 7, 64, 127
8, 67220, Note_off_c, 7, 57, 0
8, 67309, Note_off_c, 7, 64, 0
8, 67396, Note_on_c, 7, 64, 127
8, 67492, Note_off_c, 7, 64, 0
8, 67584, Note_on_c, 7, 64, 127
8, 67585, Note_on_c, 7, 68, 110
8, 67588, Note_on_c, 7, 71, 122
8, 67636, Note_off_c, 7, 68, 0
8, 67639, Note_off_c, 7, 71, 0
8, 67646, Note_off_c, 7, 64, 0
8, 67676, Note_on_c, 7, 64, 117
8, 67676, Note_on_c, 7, 68, 100
8, 67678, Note_on_c, 7, 71, 113
8, 67727, Note_off_c, 7, 71, 0
8, 67730, Note_off_c, 7, 68, 0
8, 67730, Note_off_c, 7, 64, 0
8, 67769, Note_on_c, 7, 64, 122
8, 67769, Note_on_c, 7, 68, 104
8, 67771, Note_on_c, 7, 71, 113
8, 67820, Note_off_c, 7, 71, 0
8, 67825, Note_off_c, 7, 64, 0
8, 67826, Note_off_c, 7, 68, 0
8, 67865, Note_on_c, 7, 64, 122
8, 67865, Note_on_c, 7, 68, 100
8, 67867, Note_on_c, 7, 71, 117
8, 67923, Note_off_c, 7, 71, 0
8, 67925, Note_off_c, 7, 68, 0
8, 67927, Note_off_c, 7, 64, 0
8, 67963, Note_on_c, 7, 68, 104
8, 67964, Note_on_c, 7, 64, 127
8, 67964, Note_on_c, 7, 71, 122
8, 68018, Note_off_c, 7, 71, 0
8, 68022, Note_off_c, 7, 68, 0
8, 68023, Note_off_c, 7, 64, 0
8, 68056, Note_on_c, 7, 64, 122
8, 68057, Note_on_c, 7, 68, 104
8, 68057, Note_on_c, 7, 71, 117
8, 68111, Note_off_c, 7, 71, 0
8, 68117, Note_off_c, 7, 68, 0
8, 68120, Note_off_c, 7, 64, 0
8, 68155, Note_on_c, 7, 64, 117
8, 68155, Note_on_c, 7, 68, 100
8, 68155, Note_on_c, 7, 71, 113
8, 68206, Note_off_c, 7, 71, 0
8, 68209, Note_off_c, 7, 68, 0
8, 68211, Note_off_c, 7, 64, 0
8, 68248, Note_on_c, 7, 64, 117
8, 68248, Note_on_c, 7, 68, 100
8, 68249, Note_on_c, 7, 71, 117
8, 68300, Note_off_c, 7, 71, 0
8, 68307, Note_off_c, 7, 68, 0
8, 68308, Note_off_c, 7, 64, 0
8, 68344, Note_on_c, 7, 69, 117
8, 68345, Note_on_c, 7, 66, 110
8, 68347, Note_on_c, 7, 62, 108
8, 68410, Note_off_c, 7, 66, 0
8, 68414, Note_off_c, 7, 69, 0
8, 68415, Note_off_c, 7, 62, 0
8, 68443, Note_on_c, 7, 69, 113
8, 68444, Note_on_c, 7, 62, 104
8, 68446, Note_on_c, 7, 66, 100
8, 68503, Note_off_c, 7, 66, 0
8, 68505, Note_off_c, 7, 69, 0
8, 68508, Note_off_c, 7, 62, 0
8, 68540, Note_on_c, 7, 62, 108
8, 68540, Note_on_c, 7, 69, 113
8, 68542, Note_on_c, 7, 66, 104
8, 68599, Note_off_c, 7, 66, 0
8, 68599, Note_off_c, 7, 69, 0
8, 68602, Note_off_c, 7, 62, 0
8, 68633, Note_on_c, 7, 66, 100
8, 68635, Note_on_c, 7, 62, 108
8, 68636, Note_on_c, 7, 69, 113
8, 68692, Note_off_c, 7, 66, 0
8, 68693, Note_off_c, 7, 69, 0
8, 68699, Note_off_c, 7, 62, 0
8, 68729, Note_on_c, 7, 62, 104
8, 68729, Note_on_c, 7, 69, 108
8, 68731, Note_on_c, 7, 66, 104
8, 68788, Note_off_c, 7, 66, 0
8, 68788, Note_off_c, 7, 69, 0
8, 68791, Note_off_c, 7, 62, 0
8, 68825, Note_on_c, 7, 66, 100
8, 68827, Note_on_c, 7, 69, 113
8, 68828, Note_on_c, 7, 62, 108
8, 68885, Note_off_c, 7, 66, 0
8, 68887, Note_off_c, 7, 69, 0
8, 68890, Note_off_c, 7, 62, 0
8, 68921, Note_on_c, 7, 62, 101
8, 68923, Note_on_c, 7, 69, 104
8, 68924, Note_on_c, 7, 66, 100
8, 68980, Note_off_c, 7, 66, 0
8, 68982, Note_off_c, 7, 69, 0
8, 68985, Note_off_c, 7, 62, 0
8, 69019, Note_on_c, 7, 62, 113
8, 69019, Note_on_c, 7, 69, 113
8, 69020, Note_on_c, 7, 66, 110
8, 69077, Note_off_c, 7, 66, 0
8, 69081, Note_off_c, 7, 62, 0
8, 69083, Note_off_c, 7, 69, 0
8, 69120, Note_on_c, 7, 45, 127
8, 69216, Note_on_c, 7, 52, 117
8, 69315, Note_on_c, 7, 57, 91
8, 69316, Note_on_c, 7, 61, 87
8, 69499, Note_off_c, 7, 45, 0
8, 69500, Note_on_c, 7, 44, 95
8, 69500, Note_on_c, 7, 56, 83
8, 69513, Note_off_c, 7, 57, 0
8, 69854, Note_on_c, 7, 58, 83
8, 69856, Note_on_c, 7, 42, 95
8, 69860, Note_on_c, 7, 54, 95
8, 69871, Note_off_c, 7, 44, 0
8, 69871, Note_off_c, 7, 56, 0
8, 69880, Note_off_c, 7, 52, 0
8, 70526, Note_off_c, 7, 42, 0
8, 70656, Note_on_c, 7, 45, 127
8, 70674, Note_off_c, 7, 54, 0
8, 70714, Note_off_c, 7, 58, 0
8, 70735, Note_off_c, 7, 61, 0
8, 70745, Note_on_c, 7, 52, 122
8, 70844, Note_on_c, 7, 57, 91
8, 70848, Note_on_c, 7, 61, 95
8, 71041, Note_on_c, 7, 56, 95
8, 71046, Note_on_c, 7, 44, 95
8, 71053, Note_off_c, 7, 57, 0
8, 71054, Note_off_c, 7, 45, 0
8, 71401, Note_on_c, 7, 58, 83
8, 71403, Note_on_c, 7, 42, 95
8, 71411, Note_on_c, 7, 54, 87
8, 71420, Note_off_c, 7, 44, 0
8, 71421, Note_off_c, 7, 52, 0
8, 71425, Note_off_c, 7, 56, 0
8, 72083, Note_off_c, 7, 54, 0
8, 72084, Note_off_c, 7, 58, 0
8, 72091, Note_off_c, 7, 42, 0
8, 72092, Note_off_c, 7, 61, 0
8, 72192, Note_on_c, 7, 45, 127
8, 72288, Note_on_c, 7, 52, 117
8, 72387, Note_on_c, 7, 57, 91
8, 72388, Note_on_c, 7, 61, 87
8, 72571, Note_off_c, 7, 45, 0
8, 72572, Note_on_c, 7, 44, 95
8, 72572, Note_on_c, 7, 56, 83
8, 72585, Note_off_c, 7, 57, 0
8, 72926, Note_on_c, 7, 58, 83
8, 72928, Note_on_c, 7, 42, 95
8, 72932, Note_on_c, 7, 54, 95
8, 72943, Note_off_c, 7, 44, 0
8, 72943, Note_off_c, 7, 56, 0
8, 72952, Note_off_c, 7, 52, 0
8, 73598, Note_off_c, 7, 42, 0
8, 73728, Note_on_c, 7, 45, 127
8, 73746, Note_off_c, 7, 54, 0
8, 73786, Note_off_c, 7, 58, 0
8, 73807, Note_off_c, 7, 61, 0
8, 74070, Note_off_c, 7, 45, 0
8, 74108, Note_on_c, 7, 44, 127
8, 74439, Note_off_c, 7, 44, 0
8, 74496, Note_on_c, 7, 43, 127
8, 74798, Note_off_c, 7, 43, 0
8, 74880, Note_on_c, 7, 42, 110
8, 75198, Note_off_c, 7, 42, 0
8, 75264, Note_on_c, 7, 41, 127
8, 75539, Note_off_c, 7, 41, 0
8, 75648, Note_on_c, 7, 40, 127
8, 75804, Note_off_c, 7, 40, 0
8, 75840, Note_on_c, 7, 40, 117
8, 75980, Note_off_c, 7, 40, 0
8, 76049, Note_on_c, 7, 45, 127
8, 76532, Note_off_c, 7, 45, 0
8, 76532, End_track
9, 0, Start_track
9, 0, Title_t, "BRASS   "
9, 0, Channel_prefix, 8
9, 0, Control_c, 8, 7, 100
9, 0, Program_c, 8, 57
9, 53574, Note_on_c, 8, 69, 127
9, 53576, Note_on_c, 8, 57, 127
9, 53606, Note_off_c, 8, 69, 0
9, 53614, Note_off_c, 8, 57, 0
9, 53662, Note_on_c, 8, 71, 127
9, 53665, Note_on_c, 8, 59, 127
9, 53692, Note_off_c, 8, 71, 0
9, 53700, Note_off_c, 8, 59, 0
9, 53760, Note_on_c, 8, 61, 127
9, 53761, Note_on_c, 8, 73, 127
9, 54070, Note_off_c, 8, 61, 0
9, 54071, Note_off_c, 8, 73, 0
9, 54137, Note_on_c, 8, 59, 127
9, 54137, Note_on_c, 8, 71, 127
9, 54306, Note_off_c, 8, 71, 0
9, 54311, Note_off_c, 8, 59, 0
9, 54329, Note_on_c, 8, 73, 100
9, 54336, Note_on_c, 8, 61, 104
9, 54361, Note_off_c, 8, 73, 0
9, 54364, Note_off_c, 8, 61, 0
9, 54427, Note_on_c, 8, 58, 127
9, 54428, Note_on_c, 8, 70, 127
9, 54467, Note_off_c, 8, 58, 0
9, 54468, Note_off_c, 8, 70, 0
9, 54620, Note_on_c, 8, 66, 127
9, 54622, Note_on_c, 8, 54, 127
9, 55095, Note_off_c, 8, 66, 0
9, 55097, Note_off_c, 8, 54, 0
9, 55286, Note_on_c, 8, 61, 127
9, 55289, Note_on_c, 8, 73, 127
9, 55623, Note_off_c, 8, 61, 0
9, 55625, Note_off_c, 8, 73, 0
9, 55683, Note_on_c, 8, 59, 127
9, 55684, Note_on_c, 8, 71, 127
9, 55858, Note_off_c, 8, 71, 0
9, 55870, Note_on_c, 8, 73, 95
9, 55871, Note_off_c, 8, 59, 0
9, 55873, Note_on_c, 8, 61, 100
9, 55961, Note_off_c, 8, 73, 0
9, 55964, Note_on_c, 8, 70, 127
9, 55968, Note_on_c, 8, 58, 110
9, 55970, Note_off_c, 8, 61, 0
9, 56037, Note_off_c, 8, 70, 0
9, 56038, Note_off_c, 8, 58, 0
9, 56155, Note_on_c, 8, 54, 127
9, 56155, Note_on_c, 8, 66, 127
9, 56191, Note_off_c, 8, 66, 0
9, 56193, Note_off_c, 8, 54, 0
9, 56352, Note_on_c, 8, 54, 127
9, 56353, Note_on_c, 8, 66, 127
9, 56701, Note_off_c, 8, 66, 0
9, 56712, Note_off_c, 8, 54, 0
9, 56825, Note_on_c, 8, 66, 110
9, 56828, Note_on_c, 8, 54, 127
9, 56857, Note_off_c, 8, 66, 0
9, 56860, Note_off_c, 8, 54, 0
9, 56926, Note_on_c, 8, 54, 110
9, 56926, Note_on_c, 8, 66, 127
9, 56953, Note_off_c, 8, 66, 0
9, 56953, Note_off_c, 8, 54, 0
9, 57014, Note_on_c, 8, 66, 127
9, 57016, Note_on_c, 8, 54, 110
9, 57046, Note_off_c, 8, 66, 0
9, 57049, Note_off_c, 8, 54, 0
9, 57054, Note_on_c, 8, 65, 88
9, 57059, Note_on_c, 8, 53, 101
9, 57095, Note_off_c, 8, 65, 0
9, 57097, Note_on_c, 8, 66, 110
9, 57099, Note_on_c, 8, 54, 127
9, 57107, Note_off_c, 8, 53, 0
9, 57135, Note_off_c, 8, 66, 0
9, 57139, Note_off_c, 8, 54, 0
9, 57204, Note_on_c, 8, 68, 127
9, 57208, Note_on_c, 8, 56, 110
9, 57231, Note_off_c, 8, 68, 0
9, 57236, Note_off_c, 8, 56, 0
9, 57294, Note_on_c, 8, 68, 127
9, 57299, Note_on_c, 8, 56, 127
9, 57332, Note_off_c, 8, 56, 0
9, 57332, Note_off_c, 8, 68, 0
9, 57398, Note_on_c, 8, 56, 127
9, 57398, Note_on_c, 8, 68, 127
9, 57431, Note_off_c, 8, 56, 0
9, 57436, Note_on_c, 8, 66, 104
9, 57441, Note_off_c, 8, 68, 0
9, 57441, Note_on_c, 8, 54, 104
9, 57469, Note_off_c, 8, 66, 0
9, 57485, Note_off_c, 8, 54, 0
9, 57496, Note_on_c, 8, 56, 127
9, 57496, Note_on_c, 8, 68, 127
9, 57532, Note_off_c, 8, 56, 0
9, 57540, Note_off_c, 8, 68, 0
9, 57596, Note_on_c, 8, 57, 127
9, 57600, Note_on_c, 8, 69, 127
9, 57813, Note_off_c, 8, 57, 0
9, 57816, Note_off_c, 8, 69, 0
9, 57875, Note_on_c, 8, 71, 127
9, 57876, Note_on_c, 8, 59, 127
9, 58073, Note_off_c, 8, 71, 0
9, 58082, Note_off_c, 8, 59, 0
9, 58174, Note_on_c, 8, 57, 127
9, 58177, Note_on_c, 8, 69, 101
9, 58209, Note_off_c, 8, 57, 0
9, 58210, Note_off_c, 8, 69, 0
9, 58267, Note_on_c, 8, 59, 127
9, 58268, Note_on_c, 8, 71, 127
9, 58293, Note_off_c, 8, 71, 0
9, 58295, Note_off_c, 8, 59, 0
9, 58366, Note_on_c, 8, 73, 127
9, 58368, Note_on_c, 8, 61, 127
9, 58585, Note_off_c, 8, 61, 0
9, 58586, Note_off_c, 8, 73, 0
9, 58648, Note_on_c, 8, 73, 110
9, 58649, Note_on_c, 8, 61, 110
9, 58675, Note_off_c, 8, 73, 0
9, 58681, Note_off_c, 8, 61, 0
9, 58739, Note_on_c, 8, 59, 127
9, 58739, Note_on_c, 8, 71, 127
9, 58777, Note_off_c, 8, 71, 0
9, 58779, Note_off_c, 8, 59, 0
9, 58843, Note_on_c, 8, 73, 127
9, 58844, Note_on_c, 8, 61, 110
9, 58897, Note_off_c, 8, 73, 0
9, 58908, Note_off_c, 8, 61, 0
9, 59040, Note_on_c, 8, 73, 127
9, 59041, Note_on_c, 8, 61, 127
9, 59355, Note_off_c, 8, 73, 0
9, 59362, Note_off_c, 8, 61, 0
9, 73723, Note_on_c, 8, 69, 127
9, 74044, Note_off_c, 8, 69, 0
9, 74105, Note_on_c, 8, 68, 110
9, 74429, Note_off_c, 8, 68, 0
9, 74500, Note_on_c, 8, 67, 127
9, 74810, Note_off_c, 8, 67, 0
9, 74867, Note_on_c, 8, 66, 127
9, 75195, Note_off_c, 8, 66, 0
9, 75257, Note_on_c, 8, 65, 127
9, 75588, Note_off_c, 8, 65, 0
9, 75646, Note_on_c, 8, 64, 127
9, 75796, Note_off_c, 8, 64, 0
9, 75849, Note_on_c, 8, 64, 127
9, 76009, Note_off_c, 8, 64, 0
9, 76049, Note_on_c, 8, 57, 127
9, 76713, Note_off_c, 8, 57, 0
9, 76713, End_track
10, 0, Start_track
10, 0, Title_t, "DRUMS   "
10, 0, Channel_prefix, 9
10, 0, Control_c, 9, 7, 99
10, 0, Program_c, 9, 0
10, 1536, Note_on_c, 9, 42, 93
10, 1598, Note_off_c, 9, 42, 0
10, 1728, Note_on_c, 9, 42, 101
10, 1795, Note_off_c, 9, 42, 0
10, 1920, Note_on_c, 9, 42, 101
10, 1980, Note_off_c, 9, 42, 0
10, 2112, Note_on_c, 9, 42, 93
10, 2153, Note_off_c, 9, 42, 0
10, 2304, Note_on_c, 9, 36, 127
10, 2304, Note_on_c, 9, 49, 71
10, 2304, Note_on_c, 9, 51, 110
10, 2336, Note_off_c, 9, 36, 0
10, 2342, Note_off_c, 9, 51, 0
10, 2345, Note_off_c, 9, 49, 0
10, 2400, Note_on_c, 9, 36, 127
10, 2435, Note_off_c, 9, 36, 0
10, 2496, Note_on_c, 9, 38, 127
10, 2496, Note_on_c, 9, 51, 104
10, 2531, Note_off_c, 9, 38, 0
10, 2540, Note_off_c, 9, 51, 0
10, 2688, Note_on_c, 9, 36, 127
10, 2688, Note_on_c, 9, 51, 104
10, 2720, Note_off_c, 9, 36, 0
10, 2731, Note_off_c, 9, 51, 0
10, 2784, Note_on_c, 9, 36, 127
10, 2820, Note_off_c, 9, 36, 0
10, 2880, Note_on_c, 9, 38, 127
10, 2900, Note_off_c, 9, 38, 0
10, 2928, Note_on_c, 9, 38, 127
10, 2953, Note_off_c, 9, 38, 0
10, 2976, Note_on_c, 9, 38, 127
10, 2995, Note_off_c, 9, 38, 0
10, 3072, Note_on_c, 9, 36, 127
10, 3072, Note_on_c, 9, 51, 104
10, 3104, Note_off_c, 9, 36, 0
10, 3108, Note_off_c, 9, 51, 0
10, 3168, Note_on_c, 9, 36, 127
10, 3203, Note_off_c, 9, 36, 0
10, 3264, Note_on_c, 9, 38, 127
10, 3264, Note_on_c, 9, 51, 104
10, 3299, Note_off_c, 9, 38, 0
10, 3300, Note_off_c, 9, 51, 0
10, 3456, Note_on_c, 9, 36, 127
10, 3456, Note_on_c, 9, 51, 110
10, 3488, Note_off_c, 9, 36, 0
10, 3491, Note_off_c, 9, 51, 0
10, 3552, Note_on_c, 9, 36, 127
10, 3588, Note_off_c, 9, 36, 0
10, 3648, Note_on_c, 9, 38, 127
10, 3668, Note_off_c, 9, 38, 0
10, 3696, Note_on_c, 9, 38, 127
10, 3721, Note_off_c, 9, 38, 0
10, 3744, Note_on_c, 9, 38, 127
10, 3763, Note_off_c, 9, 38, 0
10, 3840, Note_on_c, 9, 36, 122
10, 3840, Note_on_c, 9, 51, 76
10, 3875, Note_off_c, 9, 36, 0
10, 3888, Note_off_c, 9, 51, 0
10, 3936, Note_on_c, 9, 36, 108
10, 3966, Note_off_c, 9, 36, 0
10, 4032, Note_on_c, 9, 38, 127
10, 4032, Note_on_c, 9, 51, 71
10, 4068, Note_off_c, 9, 38, 0
10, 4092, Note_off_c, 9, 51, 0
10, 4224, Note_on_c, 9, 36, 108
10, 4224, Note_on_c, 9, 51, 80
10, 4256, Note_off_c, 9, 36, 0
10, 4264, Note_off_c, 9, 51, 0
10, 4320, Note_on_c, 9, 38, 122
10, 4350, Note_off_c, 9, 38, 0
10, 4416, Note_on_c, 9, 38, 113
10, 4443, Note_off_c, 9, 38, 0
10, 4512, Note_on_c, 9, 36, 127
10, 4512, Note_on_c, 9, 49, 80
10, 4536, Note_off_c, 9, 49, 0
10, 4545, Note_off_c, 9, 36, 0
10, 4608, Note_on_c, 9, 51, 43
10, 4640, Note_off_c, 9, 51, 0
10, 4704, Note_on_c, 9, 36, 83
10, 4744, Note_off_c, 9, 36, 0
10, 4800, Note_on_c, 9, 38, 113
10, 4800, Note_on_c, 9, 51, 83
10, 4840, Note_off_c, 9, 38, 0
10, 4849, Note_off_c, 9, 51, 0
10, 4992, Note_on_c, 9, 36, 122
10, 4992, Note_on_c, 9, 51, 71
10, 5016, Note_off_c, 9, 36, 0
10, 5036, Note_off_c, 9, 51, 0
10, 5088, Note_on_c, 9, 38, 127
10, 5121, Note_off_c, 9, 38, 0
10, 5184, Note_on_c, 9, 38, 127
10, 5184, Note_on_c, 9, 51, 80
10, 5208, Note_off_c, 9, 38, 0
10, 5219, Note_off_c, 9, 51, 0
10, 5280, Note_on_c, 9, 36, 127
10, 5280, Note_on_c, 9, 49, 95
10, 5308, Note_off_c, 9, 49, 0
10, 5308, Note_off_c, 9, 36, 0
10, 5472, Note_on_c, 9, 36, 127
10, 5502, Note_off_c, 9, 36, 0
10, 5568, Note_on_c, 9, 38, 127
10, 5600, Note_off_c, 9, 38, 0
10, 5760, Note_on_c, 9, 36, 97
10, 5760, Note_on_c, 9, 38, 117
10, 5760, Note_on_c, 9, 41, 81
10, 5760, Note_on_c, 9, 43, 94
10, 5788, Note_off_c, 9, 41, 0
10, 5796, Note_off_c, 9, 43, 0
10, 5804, Note_off_c, 9, 38, 0
10, 5809, Note_off_c, 9, 36, 0
10, 5952, Note_on_c, 9, 36, 88
10, 5952, Note_on_c, 9, 38, 104
10, 5952, Note_on_c, 9, 43, 113
10, 5987, Note_off_c, 9, 38, 0
10, 5988, Note_off_c, 9, 36, 0
10, 5990, Note_off_c, 9, 43, 0
10, 6144, Note_on_c, 9, 38, 127
10, 6144, Note_on_c, 9, 57, 63
10, 6185, Note_off_c, 9, 57, 0
10, 6187, Note_off_c, 9, 38, 0
10, 6240, Note_on_c, 9, 36, 108
10, 6272, Note_off_c, 9, 36, 0
10, 6336, Note_on_c, 9, 38, 127
10, 6336, Note_on_c, 9, 57, 66
10, 6380, Note_off_c, 9, 57, 0
10, 6380, Note_off_c, 9, 38, 0
10, 6432, Note_on_c, 9, 36, 108
10, 6467, Note_off_c, 9, 36, 0
10, 6528, Note_on_c, 9, 38, 127
10, 6528, Note_on_c, 9, 57, 60
10, 6572, Note_off_c, 9, 38, 0
10, 6576, Note_off_c, 9, 57, 0
10, 6624, Note_on_c, 9, 36, 113
10, 6656, Note_off_c, 9, 36, 0
10, 6720, Note_on_c, 9, 38, 127
10, 6720, Note_on_c, 9, 57, 59
10, 6753, Note_off_c, 9, 57, 0
10, 6764, Note_off_c, 9, 38, 0
10, 6816, Note_on_c, 9, 36, 122
10, 6846, Note_off_c, 9, 36, 0
10, 6912, Note_on_c, 9, 36, 101
10, 6912, Note_on_c, 9, 38, 127
10, 6912, Note_on_c, 9, 43, 79
10, 6939, Note_off_c, 9, 38, 0
10, 6950, Note_off_c, 9, 43, 0
10, 6955, Note_off_c, 9, 36, 0
10, 7008, Note_on_c, 9, 38, 88
10, 7008, Note_on_c, 9, 43, 71
10, 7036, Note_off_c, 9, 38, 0
10, 7049, Note_off_c, 9, 43, 0
10, 7104, Note_on_c, 9, 36, 108
10, 7104, Note_on_c, 9, 38, 83
10, 7104, Note_on_c, 9, 43, 68
10, 7134, Note_off_c, 9, 38, 0
10, 7147, Note_off_c, 9, 36, 0
10, 7150, Note_off_c, 9, 43, 0
10, 7200, Note_on_c, 9, 38, 97
10, 7200, Note_on_c, 9, 43, 73
10, 7228, Note_off_c, 9, 38, 0
10, 7252, Note_off_c, 9, 43, 0
10, 7296, Note_on_c, 9, 36, 108
10, 7296, Note_on_c, 9, 38, 108
10, 7296, Note_on_c, 9, 43, 71
10, 7326, Note_off_c, 9, 38, 0
10, 7340, Note_off_c, 9, 36, 0
10, 7342, Note_off_c, 9, 43, 0
10, 7392, Note_on_c, 9, 38, 122
10, 7392, Note_on_c, 9, 43, 81
10, 7420, Note_off_c, 9, 38, 0
10, 7433, Note_off_c, 9, 43, 0
10, 7488, Note_on_c, 9, 36, 117
10, 7488, Note_on_c, 9, 38, 117
10, 7488, Note_on_c, 9, 43, 86
10, 7515, Note_off_c, 9, 38, 0
10, 7524, Note_off_c, 9, 36, 0
10, 7528, Note_off_c, 9, 43, 0
10, 7584, Note_on_c, 9, 38, 127
10, 7584, Note_on_c, 9, 43, 81
10, 7612, Note_off_c, 9, 38, 0
10, 7616, Note_off_c, 9, 43, 0
10, 7680, Note_on_c, 9, 36, 117
10, 7680, Note_on_c, 9, 49, 76
10, 7713, Note_off_c, 9, 49, 0
10, 7713, Note_off_c, 9, 36, 0
10, 13824, Note_on_c, 9, 36, 110
10, 13824, Note_on_c, 9, 42, 110
10, 13824, Note_on_c, 9, 49, 65
10, 13852, Note_off_c, 9, 42, 0
10, 13854, Note_off_c, 9, 36, 0
10, 13883, Note_off_c, 9, 49, 0
10, 13920, Note_on_c, 9, 36, 108
10, 13920, Note_on_c, 9, 42, 95
10, 13942, Note_off_c, 9, 42, 0
10, 13950, Note_off_c, 9, 36, 0
10, 14016, Note_on_c, 9, 38, 127
10, 14016, Note_on_c, 9, 42, 110
10, 14049, Note_off_c, 9, 42, 0
10, 14054, Note_off_c, 9, 38, 0
10, 14112, Note_on_c, 9, 42, 100
10, 14132, Note_off_c, 9, 42, 0
10, 14208, Note_on_c, 9, 36, 110
10, 14208, Note_on_c, 9, 42, 110
10, 14236, Note_off_c, 9, 36, 0
10, 14243, Note_off_c, 9, 42, 0
10, 14304, Note_on_c, 9, 36, 105
10, 14304, Note_on_c, 9, 42, 100
10, 14329, Note_off_c, 9, 42, 0
10, 14329, Note_off_c, 9, 36, 0
10, 14400, Note_on_c, 9, 38, 127
10, 14400, Note_on_c, 9, 42, 110
10, 14432, Note_off_c, 9, 42, 0
10, 14438, Note_off_c, 9, 38, 0
10, 14496, Note_on_c, 9, 42, 100
10, 14520, Note_off_c, 9, 42, 0
10, 14592, Note_on_c, 9, 36, 110
10, 14592, Note_on_c, 9, 42, 110
10, 14620, Note_off_c, 9, 42, 0
10, 14622, Note_off_c, 9, 36, 0
10, 14688, Note_on_c, 9, 36, 108
10, 14688, Note_on_c, 9, 42, 95
10, 14710, Note_off_c, 9, 42, 0
10, 14718, Note_off_c, 9, 36, 0
10, 14784, Note_on_c, 9, 38, 127
10, 14784, Note_on_c, 9, 42, 110
10, 14817, Note_off_c, 9, 42, 0
10, 14822, Note_off_c, 9, 38, 0
10, 14880, Note_on_c, 9, 42, 100
10, 14900, Note_off_c, 9, 42, 0
10, 14976, Note_on_c, 9, 36, 110
10, 14976, Note_on_c, 9, 42, 110
10, 15004, Note_off_c, 9, 36, 0
10, 15011, Note_off_c, 9, 42, 0
10, 15072, Note_on_c, 9, 36, 105
10, 15072, Note_on_c, 9, 42, 100
10, 15097, Note_off_c, 9, 42, 0
10, 15097, Note_off_c, 9, 36, 0
10, 15168, Note_on_c, 9, 38, 127
10, 15168, Note_on_c, 9, 42, 110
10, 15200, Note_off_c, 9, 42, 0
10, 15206, Note_off_c, 9, 38, 0
10, 15264, Note_on_c, 9, 42, 100
10, 15288, Note_off_c, 9, 42, 0
10, 15360, Note_on_c, 9, 36, 110
10, 15360, Note_on_c, 9, 42, 110
10, 15388, Note_off_c, 9, 42, 0
10, 15390, Note_off_c, 9, 36, 0
10, 15456, Note_on_c, 9, 36, 108
10, 15456, Note_on_c, 9, 42, 95
10, 15478, Note_off_c, 9, 42, 0
10, 15486, Note_off_c, 9, 36, 0
10, 15552, Note_on_c, 9, 38, 127
10, 15552, Note_on_c, 9, 42, 110
10, 15585, Note_off_c, 9, 42, 0
10, 15590, Note_off_c, 9, 38, 0
10, 15648, Note_on_c, 9, 42, 100
10, 15668, Note_off_c, 9, 42, 0
10, 15744, Note_on_c, 9, 36, 110
10, 15744, Note_on_c, 9, 42, 110
10, 15772, Note_off_c, 9, 36, 0
10, 15779, Note_off_c, 9, 42, 0
10, 15840, Note_on_c, 9, 36, 105
10, 15840, Note_on_c, 9, 42, 100
10, 15865, Note_off_c, 9, 42, 0
10, 15865, Note_off_c, 9, 36, 0
10, 15936, Note_on_c, 9, 38, 127
10, 15936, Note_on_c, 9, 42, 110
10, 15968, Note_off_c, 9, 42, 0
10, 15974, Note_off_c, 9, 38, 0
10, 16032, Note_on_c, 9, 42, 100
10, 16056, Note_off_c, 9, 42, 0
10, 16128, Note_on_c, 9, 36, 110
10, 16128, Note_on_c, 9, 42, 110
10, 16156, Note_off_c, 9, 42, 0
10, 16158, Note_off_c, 9, 36, 0
10, 16224, Note_on_c, 9, 36, 108
10, 16224, Note_on_c, 9, 42, 95
10, 16246, Note_off_c, 9, 42, 0
10, 16254, Note_off_c, 9, 36, 0
10, 16320, Note_on_c, 9, 38, 127
10, 16320, Note_on_c, 9, 42, 110
10, 16353, Note_off_c, 9, 42, 0
10, 16358, Note_off_c, 9, 38, 0
10, 16416, Note_on_c, 9, 42, 100
10, 16436, Note_off_c, 9, 42, 0
10, 16512, Note_on_c, 9, 36, 110
10, 16512, Note_on_c, 9, 42, 110
10, 16540, Note_off_c, 9, 36, 0
10, 16547, Note_off_c, 9, 42, 0
10, 16608, Note_on_c, 9, 36, 105
10, 16608, Note_on_c, 9, 42, 100
10, 16633, Note_off_c, 9, 42, 0
10, 16633, Note_off_c, 9, 36, 0
10, 16704, Note_on_c, 9, 38, 127
10, 16704, Note_on_c, 9, 42, 110
10, 16736, Note_off_c, 9, 42, 0
10, 16742, Note_off_c, 9, 38, 0
10, 16800, Note_on_c, 9, 42, 100
10, 16824, Note_off_c, 9, 42, 0
10, 16896, Note_on_c, 9, 36, 110
10, 16896, Note_on_c, 9, 42, 110
10, 16924, Note_off_c, 9, 42, 0
10, 16926, Note_off_c, 9, 36, 0
10, 16992, Note_on_c, 9, 36, 108
10, 16992, Note_on_c, 9, 42, 95
10, 17014, Note_off_c, 9, 42, 0
10, 17022, Note_off_c, 9, 36, 0
10, 17088, Note_on_c, 9, 38, 127
10, 17088, Note_on_c, 9, 42, 110
10, 17121, Note_off_c, 9, 42, 0
10, 17126, Note_off_c, 9, 38, 0
10, 17184, Note_on_c, 9, 42, 100
10, 17204, Note_off_c, 9, 42, 0
10, 17280, Note_on_c, 9, 36, 110
10, 17280, Note_on_c, 9, 42, 110
10, 17308, Note_off_c, 9, 36, 0
10, 17315, Note_off_c, 9, 42, 0
10, 17376, Note_on_c, 9, 36, 105
10, 17376, Note_on_c, 9, 42, 100
10, 17401, Note_off_c, 9, 42, 0
10, 17401, Note_off_c, 9, 36, 0
10, 17472, Note_on_c, 9, 38, 127
10, 17472, Note_on_c, 9, 42, 110
10, 17504, Note_off_c, 9, 42, 0
10, 17510, Note_off_c, 9, 38, 0
10, 17568, Note_on_c, 9, 42, 100
10, 17592, Note_off_c, 9, 42, 0
10, 17664, Note_on_c, 9, 36, 110
10, 17664, Note_on_c, 9, 42, 110
10, 17692, Note_off_c, 9, 42, 0
10, 17694, Note_off_c, 9, 36, 0
10, 17760, Note_on_c, 9, 36, 108
10, 17760, Note_on_c, 9, 42, 95
10, 17782, Note_off_c, 9, 42, 0
10, 17790, Note_off_c, 9, 36, 0
10, 17856, Note_on_c, 9, 38, 127
10, 17856, Note_on_c, 9, 42, 110
10, 17889, Note_off_c, 9, 42, 0
10, 17894, Note_off_c, 9, 38, 0
10, 17952, Note_on_c, 9, 42, 100
10, 17972, Note_off_c, 9, 42, 0
10, 18048, Note_on_c, 9, 36, 110
10, 18048, Note_on_c, 9, 42, 110
10, 18076, Note_off_c, 9, 36, 0
10, 18083, Note_off_c, 9, 42, 0
10, 18144, Note_on_c, 9, 36, 105
10, 18144, Note_on_c, 9, 42, 100
10, 18169, Note_off_c, 9, 42, 0
10, 18169, Note_off_c, 9, 36, 0
10, 18240, Note_on_c, 9, 38, 127
10, 18240, Note_on_c, 9, 42, 110
10, 18272, Note_off_c, 9, 42, 0
10, 18278, Note_off_c, 9, 38, 0
10, 18336, Note_on_c, 9, 42, 100
10, 18360, Note_off_c, 9, 42, 0
10, 18432, Note_on_c, 9, 36, 110
10, 18432, Note_on_c, 9, 42, 110
10, 18460, Note_off_c, 9, 42, 0
10, 18462, Note_off_c, 9, 36, 0
10, 18528, Note_on_c, 9, 36, 108
10, 18528, Note_on_c, 9, 42, 95
10, 18550, Note_off_c, 9, 42, 0
10, 18558, Note_off_c, 9, 36, 0
10, 18624, Note_on_c, 9, 38, 127
10, 18624, Note_on_c, 9, 42, 110
10, 18657, Note_off_c, 9, 42, 0
10, 18662, Note_off_c, 9, 38, 0
10, 18720, Note_on_c, 9, 42, 100
10, 18740, Note_off_c, 9, 42, 0
10, 18816, Note_on_c, 9, 36, 110
10, 18816, Note_on_c, 9, 42, 110
10, 18844, Note_off_c, 9, 36, 0
10, 18851, Note_off_c, 9, 42, 0
10, 18912, Note_on_c, 9, 36, 105
10, 18912, Note_on_c, 9, 42, 100
10, 18937, Note_off_c, 9, 42, 0
10, 18937, Note_off_c, 9, 36, 0
10, 19008, Note_on_c, 9, 38, 127
10, 19008, Note_on_c, 9, 42, 110
10, 19040, Note_off_c, 9, 42, 0
10, 19046, Note_off_c, 9, 38, 0
10, 19104, Note_on_c, 9, 42, 100
10, 19128, Note_off_c, 9, 42, 0
10, 19200, Note_on_c, 9, 36, 127
10, 19200, Note_on_c, 9, 42, 110
10, 19228, Note_off_c, 9, 36, 0
10, 19230, Note_off_c, 9, 42, 0
10, 19296, Note_on_c, 9, 36, 127
10, 19296, Note_on_c, 9, 42, 100
10, 19323, Note_off_c, 9, 42, 0
10, 19328, Note_off_c, 9, 36, 0
10, 19392, Note_on_c, 9, 38, 127
10, 19392, Note_on_c, 9, 42, 104
10, 19419, Note_off_c, 9, 42, 0
10, 19428, Note_off_c, 9, 38, 0
10, 19488, Note_on_c, 9, 42, 104
10, 19518, Note_off_c, 9, 42, 0
10, 19536, Note_on_c, 9, 38, 127
10, 19556, Note_off_c, 9, 38, 0
10, 19584, Note_on_c, 9, 38, 127
10, 19584, Note_on_c, 9, 46, 104
10, 19598, Note_off_c, 9, 46, 0
10, 19611, Note_off_c, 9, 38, 0
10, 19680, Note_on_c, 9, 38, 127
10, 19707, Note_off_c, 9, 38, 0
10, 19776, Note_on_c, 9, 45, 117
10, 19811, Note_off_c, 9, 45, 0
10, 19824, Note_on_c, 9, 43, 117
10, 19860, Note_off_c, 9, 43, 0
10, 19872, Note_on_c, 9, 41, 122
10, 19904, Note_off_c, 9, 41, 0
10, 19968, Note_on_c, 9, 36, 110
10, 19968, Note_on_c, 9, 42, 110
10, 19971, Note_on_c, 9, 49, 80
10, 19996, Note_off_c, 9, 42, 0
10, 19998, Note_off_c, 9, 36, 0
10, 20004, Note_off_c, 9, 49, 0
10, 20064, Note_on_c, 9, 36, 108
10, 20064, Note_on_c, 9, 42, 95
10, 20086, Note_off_c, 9, 42, 0
10, 20094, Note_off_c, 9, 36, 0
10, 20153, Note_on_c, 9, 49, 50
10, 20160, Note_on_c, 9, 38, 127
10, 20160, Note_on_c, 9, 42, 110
10, 20193, Note_off_c, 9, 42, 0
10, 20198, Note_off_c, 9, 38, 0
10, 20205, Note_off_c, 9, 49, 0
10, 20256, Note_on_c, 9, 42, 100
10, 20276, Note_off_c, 9, 42, 0
10, 20352, Note_on_c, 9, 36, 110
10, 20352, Note_on_c, 9, 42, 110
10, 20380, Note_off_c, 9, 36, 0
10, 20387, Note_off_c, 9, 42, 0
10, 20448, Note_on_c, 9, 36, 105
10, 20448, Note_on_c, 9, 42, 100
10, 20473, Note_off_c, 9, 42, 0
10, 20473, Note_off_c, 9, 36, 0
10, 20542, Note_on_c, 9, 57, 63
10, 20544, Note_on_c, 9, 38, 127
10, 20544, Note_on_c, 9, 42, 110
10, 20576, Note_off_c, 9, 42, 0
10, 20582, Note_off_c, 9, 38, 0
10, 20610, Note_off_c, 9, 57, 0
10, 20640, Note_on_c, 9, 42, 100
10, 20664, Note_off_c, 9, 42, 0
10, 20736, Note_on_c, 9, 36, 110
10, 20736, Note_on_c, 9, 42, 110
10, 20764, Note_off_c, 9, 42, 0
10, 20766, Note_off_c, 9, 36, 0
10, 20832, Note_on_c, 9, 36, 108
10, 20832, Note_on_c, 9, 42, 95
10, 20854, Note_off_c, 9, 42, 0
10, 20862, Note_off_c, 9, 36, 0
10, 20921, Note_on_c, 9, 49, 50
10, 20928, Note_on_c, 9, 38, 127
10, 20928, Note_on_c, 9, 42, 110
10, 20961, Note_off_c, 9, 42, 0
10, 20966, Note_off_c, 9, 38, 0
10, 20973, Note_off_c, 9, 49, 0
10, 21024, Note_on_c, 9, 42, 100
10, 21044, Note_off_c, 9, 42, 0
10, 21120, Note_on_c, 9, 36, 110
10, 21120, Note_on_c, 9, 42, 110
10, 21148, Note_off_c, 9, 36, 0
10, 21155, Note_off_c, 9, 42, 0
10, 21216, Note_on_c, 9, 36, 105
10, 21216, Note_on_c, 9, 42, 100
10, 21241, Note_off_c, 9, 42, 0
10, 21241, Note_off_c, 9, 36, 0
10, 21310, Note_on_c, 9, 57, 63
10, 21312, Note_on_c, 9, 38, 127
10, 21312, Note_on_c, 9, 42, 110
10, 21344, Note_off_c, 9, 42, 0
10, 21350, Note_off_c, 9, 38, 0
10, 21378, Note_off_c, 9, 57, 0
10, 21408, Note_on_c, 9, 42, 100
10, 21432, Note_off_c, 9, 42, 0
10, 21504, Note_on_c, 9, 36, 110
10, 21504, Note_on_c, 9, 42, 110
10, 21532, Note_off_c, 9, 42, 0
10, 21534, Note_off_c, 9, 36, 0
10, 21600, Note_on_c, 9, 36, 108
10, 21600, Note_on_c, 9, 42, 95
10, 21622, Note_off_c, 9, 42, 0
10, 21630, Note_off_c, 9, 36, 0
10, 21689, Note_on_c, 9, 49, 50
10, 21696, Note_on_c, 9, 38, 127
10, 21696, Note_on_c, 9, 42, 110
10, 21729, Note_off_c, 9, 42, 0
10, 21734, Note_off_c, 9, 38, 0
10, 21741, Note_off_c, 9, 49, 0
10, 21792, Note_on_c, 9, 42, 100
10, 21812, Note_off_c, 9, 42, 0
10, 21888, Note_on_c, 9, 36, 110
10, 21888, Note_on_c, 9, 42, 110
10, 21916, Note_off_c, 9, 36, 0
10, 21923, Note_off_c, 9, 42, 0
10, 21984, Note_on_c, 9, 36, 105
10, 21984, Note_on_c, 9, 42, 100
10, 22009, Note_off_c, 9, 42, 0
10, 22009, Note_off_c, 9, 36, 0
10, 22078, Note_on_c, 9, 57, 63
10, 22080, Note_on_c, 9, 38, 127
10, 22080, Note_on_c, 9, 42, 110
10, 22112, Note_off_c, 9, 42, 0
10, 22118, Note_off_c, 9, 38, 0
10, 22146, Note_off_c, 9, 57, 0
10, 22176, Note_on_c, 9, 42, 100
10, 22200, Note_off_c, 9, 42, 0
10, 22272, Note_on_c, 9, 36, 110
10, 22272, Note_on_c, 9, 42, 110
10, 22300, Note_off_c, 9, 42, 0
10, 22302, Note_off_c, 9, 36, 0
10, 22368, Note_on_c, 9, 36, 108
10, 22368, Note_on_c, 9, 42, 95
10, 22390, Note_off_c, 9, 42, 0
10, 22398, Note_off_c, 9, 36, 0
10, 22457, Note_on_c, 9, 49, 50
10, 22464, Note_on_c, 9, 38, 127
10, 22464, Note_on_c, 9, 42, 110
10, 22497, Note_off_c, 9, 42, 0
10, 22502, Note_off_c, 9, 38, 0
10, 22509, Note_off_c, 9, 49, 0
10, 22560, Note_on_c, 9, 42, 100
10, 22580, Note_off_c, 9, 42, 0
10, 22656, Note_on_c, 9, 36, 110
10, 22656, Note_on_c, 9, 42, 110
10, 22684, Note_off_c, 9, 36, 0
10, 22691, Note_off_c, 9, 42, 0
10, 22752, Note_on_c, 9, 36, 105
10, 22752, Note_on_c, 9, 42, 100
10, 22777, Note_off_c, 9, 42, 0
10, 22777, Note_off_c, 9, 36, 0
10, 22846, Note_on_c, 9, 57, 63
10, 22848, Note_on_c, 9, 38, 127
10, 22848, Note_on_c, 9, 42, 110
10, 22880, Note_off_c, 9, 42, 0
10, 22886, Note_off_c, 9, 38, 0
10, 22914, Note_off_c, 9, 57, 0
10, 22944, Note_on_c, 9, 42, 100
10, 22968, Note_off_c, 9, 42, 0
10, 23040, Note_on_c, 9, 36, 127
10, 23040, Note_on_c, 9, 49, 71
10, 23040, Note_on_c, 9, 51, 110
10, 23072, Note_off_c, 9, 36, 0
10, 23078, Note_off_c, 9, 51, 0
10, 23081, Note_off_c, 9, 49, 0
10, 23136, Note_on_c, 9, 36, 127
10, 23171, Note_off_c, 9, 36, 0
10, 23232, Note_on_c, 9, 38, 127
10, 23232, Note_on_c, 9, 51, 104
10, 23267, Note_off_c, 9, 38, 0
10, 23276, Note_off_c, 9, 51, 0
10, 23424, Note_on_c, 9, 36, 127
10, 23424, Note_on_c, 9, 51, 104
10, 23456, Note_off_c, 9, 36, 0
10, 23467, Note_off_c, 9, 51, 0
10, 23520, Note_on_c, 9, 36, 127
10, 23556, Note_off_c, 9, 36, 0
10, 23616, Note_on_c, 9, 38, 127
10, 23636, Note_off_c, 9, 38, 0
10, 23664, Note_on_c, 9, 38, 127
10, 23689, Note_off_c, 9, 38, 0
10, 23712, Note_on_c, 9, 38, 127
10, 23731, Note_off_c, 9, 38, 0
10, 23808, Note_on_c, 9, 36, 127
10, 23808, Note_on_c, 9, 51, 104
10, 23840, Note_off_c, 9, 36, 0
10, 23844, Note_off_c, 9, 51, 0
10, 23904, Note_on_c, 9, 36, 127
10, 23939, Note_off_c, 9, 36, 0
10, 24000, Note_on_c, 9, 38, 127
10, 24000, Note_on_c, 9, 51, 104
10, 24035, Note_off_c, 9, 38, 0
10, 24036, Note_off_c, 9, 51, 0
10, 24192, Note_on_c, 9, 36, 127
10, 24192, Note_on_c, 9, 51, 110
10, 24224, Note_off_c, 9, 36, 0
10, 24227, Note_off_c, 9, 51, 0
10, 24288, Note_on_c, 9, 36, 127
10, 24324, Note_off_c, 9, 36, 0
10, 24384, Note_on_c, 9, 38, 127
10, 24404, Note_off_c, 9, 38, 0
10, 24432, Note_on_c, 9, 38, 127
10, 24457, Note_off_c, 9, 38, 0
10, 24480, Note_on_c, 9, 38, 127
10, 24499, Note_off_c, 9, 38, 0
10, 24576, Note_on_c, 9, 36, 122
10, 24576, Note_on_c, 9, 51, 76
10, 24622, Note_off_c, 9, 51, 0
10, 24622, Note_off_c, 9, 36, 0
10, 24672, Note_on_c, 9, 36, 108
10, 24718, Note_off_c, 9, 36, 0
10, 24768, Note_on_c, 9, 38, 127
10, 24768, Note_on_c, 9, 51, 71
10, 24814, Note_off_c, 9, 51, 0
10, 24814, Note_off_c, 9, 38, 0
10, 24960, Note_on_c, 9, 36, 108
10, 24960, Note_on_c, 9, 51, 80
10, 25006, Note_off_c, 9, 51, 0
10, 25006, Note_off_c, 9, 36, 0
10, 25056, Note_on_c, 9, 38, 122
10, 25102, Note_off_c, 9, 38, 0
10, 25152, Note_on_c, 9, 38, 113
10, 25198, Note_off_c, 9, 38, 0
10, 25248, Note_on_c, 9, 36, 127
10, 25248, Note_on_c, 9, 49, 80
10, 25294, Note_off_c, 9, 49, 0
10, 25294, Note_off_c, 9, 36, 0
10, 25344, Note_on_c, 9, 51, 43
10, 25390, Note_off_c, 9, 51, 0
10, 25440, Note_on_c, 9, 36, 83
10, 25486, Note_off_c, 9, 36, 0
10, 25536, Note_on_c, 9, 38, 113
10, 25536, Note_on_c, 9, 51, 83
10, 25582, Note_off_c, 9, 51, 0
10, 25582, Note_off_c, 9, 38, 0
10, 25728, Note_on_c, 9, 36, 122
10, 25728, Note_on_c, 9, 51, 71
10, 25774, Note_off_c, 9, 51, 0
10, 25774, Note_off_c, 9, 36, 0
10, 25824, Note_on_c, 9, 38, 127
10, 25870, Note_off_c, 9, 38, 0
10, 25920, Note_on_c, 9, 38, 127
10, 25920, Note_on_c, 9, 51, 80
10, 25966, Note_off_c, 9, 51, 0
10, 25966, Note_off_c, 9, 38, 0
10, 26016, Note_on_c, 9, 36, 127
10, 26016, Note_on_c, 9, 49, 95
10, 26062, Note_off_c, 9, 49, 0
10, 26062, Note_off_c, 9, 36, 0
10, 26304, Note_on_c, 9, 38, 127
10, 26350, Note_off_c, 9, 38, 0
10, 26400, Note_on_c, 9, 36, 122
10, 26446, Note_off_c, 9, 36, 0
10, 26496, Note_on_c, 9, 38, 127
10, 26542, Note_off_c, 9, 38, 0
10, 26592, Note_on_c, 9, 36, 117
10, 26638, Note_off_c, 9, 36, 0
10, 26688, Note_on_c, 9, 38, 127
10, 26734, Note_off_c, 9, 38, 0
10, 26784, Note_on_c, 9, 36, 104
10, 26830, Note_off_c, 9, 36, 0
10, 26880, Note_on_c, 9, 36, 127
10, 26880, Note_on_c, 9, 49, 71
10, 26880, Note_on_c, 9, 51, 110
10, 26912, Note_off_c, 9, 36, 0
10, 26918, Note_off_c, 9, 51, 0
10, 26921, Note_off_c, 9, 49, 0
10, 26976, Note_on_c, 9, 36, 127
10, 27011, Note_off_c, 9, 36, 0
10, 27072, Note_on_c, 9, 38, 127
10, 27072, Note_on_c, 9, 51, 104
10, 27107, Note_off_c, 9, 38, 0
10, 27116, Note_off_c, 9, 51, 0
10, 27264, Note_on_c, 9, 36, 127
10, 27264, Note_on_c, 9, 51, 104
10, 27296, Note_off_c, 9, 36, 0
10, 27307, Note_off_c, 9, 51, 0
10, 27360, Note_on_c, 9, 36, 127
10, 27396, Note_off_c, 9, 36, 0
10, 27456, Note_on_c, 9, 38, 127
10, 27476, Note_off_c, 9, 38, 0
10, 27504, Note_on_c, 9, 38, 127
10, 27529, Note_off_c, 9, 38, 0
10, 27552, Note_on_c, 9, 38, 127
10, 27571, Note_off_c, 9, 38, 0
10, 27648, Note_on_c, 9, 36, 127
10, 27648, Note_on_c, 9, 51, 104
10, 27680, Note_off_c, 9, 36, 0
10, 27684, Note_off_c, 9, 51, 0
10, 27744, Note_on_c, 9, 36, 127
10, 27779, Note_off_c, 9, 36, 0
10, 27840, Note_on_c, 9, 38, 127
10, 27840, Note_on_c, 9, 51, 104
10, 27875, Note_off_c, 9, 38, 0
10, 27876, Note_off_c, 9, 51, 0
10, 28032, Note_on_c, 9, 36, 127
10, 28032, Note_on_c, 9, 51, 110
10, 28064, Note_off_c, 9, 36, 0
10, 28067, Note_off_c, 9, 51, 0
10, 28128, Note_on_c, 9, 36, 127
10, 28164, Note_off_c, 9, 36, 0
10, 28224, Note_on_c, 9, 38, 127
10, 28244, Note_off_c, 9, 38, 0
10, 28272, Note_on_c, 9, 38, 127
10, 28297, Note_off_c, 9, 38, 0
10, 28320, Note_on_c, 9, 38, 127
10, 28339, Note_off_c, 9, 38, 0
10, 28416, Note_on_c, 9, 36, 122
10, 28416, Note_on_c, 9, 51, 76
10, 28451, Note_off_c, 9, 36, 0
10, 28464, Note_off_c, 9, 51, 0
10, 28512, Note_on_c, 9, 36, 108
10, 28542, Note_off_c, 9, 36, 0
10, 28608, Note_on_c, 9, 38, 127
10, 28608, Note_on_c, 9, 51, 71
10, 28644, Note_off_c, 9, 38, 0
10, 28668, Note_off_c, 9, 51, 0
10, 28800, Note_on_c, 9, 36, 108
10, 28800, Note_on_c, 9, 51, 80
10, 28832, Note_off_c, 9, 36, 0
10, 28840, Note_off_c, 9, 51, 0
10, 28896, Note_on_c, 9, 38, 122
10, 28926, Note_off_c, 9, 38, 0
10, 28992, Note_on_c, 9, 38, 113
10, 29019, Note_off_c, 9, 38, 0
10, 29088, Note_on_c, 9, 36, 127
10, 29088, Note_on_c, 9, 49, 80
10, 29112, Note_off_c, 9, 49, 0
10, 29121, Note_off_c, 9, 36, 0
10, 29184, Note_on_c, 9, 51, 43
10, 29216, Note_off_c, 9, 51, 0
10, 29280, Note_on_c, 9, 36, 83
10, 29320, Note_off_c, 9, 36, 0
10, 29376, Note_on_c, 9, 38, 113
10, 29376, Note_on_c, 9, 51, 83
10, 29416, Note_off_c, 9, 38, 0
10, 29425, Note_off_c, 9, 51, 0
10, 29568, Note_on_c, 9, 36, 122
10, 29568, Note_on_c, 9, 51, 71
10, 29592, Note_off_c, 9, 36, 0
10, 29612, Note_off_c, 9, 51, 0
10, 29664, Note_on_c, 9, 38, 127
10, 29697, Note_off_c, 9, 38, 0
10, 29760, Note_on_c, 9, 38, 127
10, 29760, Note_on_c, 9, 51, 80
10, 29784, Note_off_c, 9, 38, 0
10, 29795, Note_off_c, 9, 51, 0
10, 29856, Note_on_c, 9, 36, 127
10, 29856, Note_on_c, 9, 49, 95
10, 29884, Note_off_c, 9, 49, 0
10, 29884, Note_off_c, 9, 36, 0
10, 30048, Note_on_c, 9, 36, 127
10, 30078, Note_off_c, 9, 36, 0
10, 30144, Note_on_c, 9, 38, 127
10, 30176, Note_off_c, 9, 38, 0
10, 30336, Note_on_c, 9, 36, 97
10, 30336, Note_on_c, 9, 38, 117
10, 30336, Note_on_c, 9, 41, 81
10, 30336, Note_on_c, 9, 43, 94
10, 30364, Note_off_c, 9, 41, 0
10, 30372, Note_off_c, 9, 43, 0
10, 30380, Note_off_c, 9, 38, 0
10, 30385, Note_off_c, 9, 36, 0
10, 30528, Note_on_c, 9, 36, 88
10, 30528, Note_on_c, 9, 38, 104
10, 30528, Note_on_c, 9, 43, 113
10, 30563, Note_off_c, 9, 38, 0
10, 30564, Note_off_c, 9, 36, 0
10, 30566, Note_off_c, 9, 43, 0
10, 30720, Note_on_c, 9, 38, 127
10, 30720, Note_on_c, 9, 57, 63
10, 30761, Note_off_c, 9, 57, 0
10, 30763, Note_off_c, 9, 38, 0
10, 30816, Note_on_c, 9, 36, 108
10, 30848, Note_off_c, 9, 36, 0
10, 30912, Note_on_c, 9, 38, 127
10, 30912, Note_on_c, 9, 57, 66
10, 30956, Note_off_c, 9, 57, 0
10, 30956, Note_off_c, 9, 38, 0
10, 31008, Note_on_c, 9, 36, 108
10, 31043, Note_off_c, 9, 36, 0
10, 31104, Note_on_c, 9, 38, 127
10, 31104, Note_on_c, 9, 57, 60
10, 31148, Note_off_c, 9, 38, 0
10, 31152, Note_off_c, 9, 57, 0
10, 31200, Note_on_c, 9, 36, 113
10, 31232, Note_off_c, 9, 36, 0
10, 31296, Note_on_c, 9, 38, 127
10, 31296, Note_on_c, 9, 57, 59
10, 31329, Note_off_c, 9, 57, 0
10, 31340, Note_off_c, 9, 38, 0
10, 31392, Note_on_c, 9, 36, 122
10, 31422, Note_off_c, 9, 36, 0
10, 31488, Note_on_c, 9, 36, 101
10, 31488, Note_on_c, 9, 38, 127
10, 31488, Note_on_c, 9, 43, 79
10, 31515, Note_off_c, 9, 38, 0
10, 31526, Note_off_c, 9, 43, 0
10, 31531, Note_off_c, 9, 36, 0
10, 31584, Note_on_c, 9, 38, 88
10, 31584, Note_on_c, 9, 43, 71
10, 31612, Note_off_c, 9, 38, 0
10, 31625, Note_off_c, 9, 43, 0
10, 31680, Note_on_c, 9, 36, 108
10, 31680, Note_on_c, 9, 38, 83
10, 31680, Note_on_c, 9, 43, 68
10, 31710, Note_off_c, 9, 38, 0
10, 31723, Note_off_c, 9, 36, 0
10, 31726, Note_off_c, 9, 43, 0
10, 31776, Note_on_c, 9, 38, 97
10, 31776, Note_on_c, 9, 43, 73
10, 31804, Note_off_c, 9, 38, 0
10, 31828, Note_off_c, 9, 43, 0
10, 31872, Note_on_c, 9, 36, 108
10, 31872, Note_on_c, 9, 38, 108
10, 31872, Note_on_c, 9, 43, 71
10, 31902, Note_off_c, 9, 38, 0
10, 31916, Note_off_c, 9, 36, 0
10, 31918, Note_off_c, 9, 43, 0
10, 31968, Note_on_c, 9, 38, 122
10, 31968, Note_on_c, 9, 43, 81
10, 31996, Note_off_c, 9, 38, 0
10, 32009, Note_off_c, 9, 43, 0
10, 32064, Note_on_c, 9, 36, 117
10, 32064, Note_on_c, 9, 38, 117
10, 32064, Note_on_c, 9, 43, 86
10, 32091, Note_off_c, 9, 38, 0
10, 32100, Note_off_c, 9, 36, 0
10, 32104, Note_off_c, 9, 43, 0
10, 32160, Note_on_c, 9, 38, 127
10, 32160, Note_on_c, 9, 43, 81
10, 32188, Note_off_c, 9, 38, 0
10, 32192, Note_off_c, 9, 43, 0
10, 32256, Note_on_c, 9, 36, 110
10, 32256, Note_on_c, 9, 42, 110
10, 32259, Note_on_c, 9, 49, 80
10, 32284, Note_off_c, 9, 42, 0
10, 32286, Note_off_c, 9, 36, 0
10, 32292, Note_off_c, 9, 49, 0
10, 32352, Note_on_c, 9, 36, 108
10, 32352, Note_on_c, 9, 42, 95
10, 32374, Note_off_c, 9, 42, 0
10, 32382, Note_off_c, 9, 36, 0
10, 32441, Note_on_c, 9, 49, 50
10, 32448, Note_on_c, 9, 38, 127
10, 32448, Note_on_c, 9, 42, 110
10, 32481, Note_off_c, 9, 42, 0
10, 32486, Note_off_c, 9, 38, 0
10, 32493, Note_off_c, 9, 49, 0
10, 32544, Note_on_c, 9, 42, 100
10, 32564, Note_off_c, 9, 42, 0
10, 32640, Note_on_c, 9, 36, 110
10, 32640, Note_on_c, 9, 42, 110
10, 32668, Note_off_c, 9, 36, 0
10, 32675, Note_off_c, 9, 42, 0
10, 32736, Note_on_c, 9, 36, 105
10, 32736, Note_on_c, 9, 42, 100
10, 32761, Note_off_c, 9, 42, 0
10, 32761, Note_off_c, 9, 36, 0
10, 32830, Note_on_c, 9, 57, 63
10, 32832, Note_on_c, 9, 38, 127
10, 32832, Note_on_c, 9, 42, 110
10, 32864, Note_off_c, 9, 42, 0
10, 32870, Note_off_c, 9, 38, 0
10, 32898, Note_off_c, 9, 57, 0
10, 32928, Note_on_c, 9, 42, 100
10, 32952, Note_off_c, 9, 42, 0
10, 33024, Note_on_c, 9, 36, 110
10, 33024, Note_on_c, 9, 42, 110
10, 33052, Note_off_c, 9, 42, 0
10, 33054, Note_off_c, 9, 36, 0
10, 33120, Note_on_c, 9, 36, 108
10, 33120, Note_on_c, 9, 42, 95
10, 33142, Note_off_c, 9, 42, 0
10, 33150, Note_off_c, 9, 36, 0
10, 33209, Note_on_c, 9, 49, 50
10, 33216, Note_on_c, 9, 38, 127
10, 33216, Note_on_c, 9, 42, 110
10, 33249, Note_off_c, 9, 42, 0
10, 33254, Note_off_c, 9, 38, 0
10, 33261, Note_off_c, 9, 49, 0
10, 33312, Note_on_c, 9, 42, 100
10, 33332, Note_off_c, 9, 42, 0
10, 33408, Note_on_c, 9, 36, 110
10, 33408, Note_on_c, 9, 42, 110
10, 33436, Note_off_c, 9, 36, 0
10, 33443, Note_off_c, 9, 42, 0
10, 33504, Note_on_c, 9, 36, 105
10, 33504, Note_on_c, 9, 42, 100
10, 33529, Note_off_c, 9, 42, 0
10, 33529, Note_off_c, 9, 36, 0
10, 33598, Note_on_c, 9, 57, 63
10, 33600, Note_on_c, 9, 38, 127
10, 33600, Note_on_c, 9, 42, 110
10, 33632, Note_off_c, 9, 42, 0
10, 33638, Note_off_c, 9, 38, 0
10, 33666, Note_off_c, 9, 57, 0
10, 33696, Note_on_c, 9, 42, 100
10, 33720, Note_off_c, 9, 42, 0
10, 33792, Note_on_c, 9, 36, 110
10, 33792, Note_on_c, 9, 42, 110
10, 33820, Note_off_c, 9, 42, 0
10, 33822, Note_off_c, 9, 36, 0
10, 33888, Note_on_c, 9, 36, 108
10, 33888, Note_on_c, 9, 42, 95
10, 33910, Note_off_c, 9, 42, 0
10, 33918, Note_off_c, 9, 36, 0
10, 33977, Note_on_c, 9, 49, 50
10, 33984, Note_on_c, 9, 38, 127
10, 33984, Note_on_c, 9, 42, 110
10, 34017, Note_off_c, 9, 42, 0
10, 34022, Note_off_c, 9, 38, 0
10, 34029, Note_off_c, 9, 49, 0
10, 34080, Note_on_c, 9, 42, 100
10, 34100, Note_off_c, 9, 42, 0
10, 34176, Note_on_c, 9, 36, 110
10, 34176, Note_on_c, 9, 42, 110
10, 34204, Note_off_c, 9, 36, 0
10, 34211, Note_off_c, 9, 42, 0
10, 34272, Note_on_c, 9, 36, 105
10, 34272, Note_on_c, 9, 42, 100
10, 34297, Note_off_c, 9, 42, 0
10, 34297, Note_off_c, 9, 36, 0
10, 34366, Note_on_c, 9, 57, 63
10, 34368, Note_on_c, 9, 38, 127
10, 34368, Note_on_c, 9, 42, 110
10, 34400, Note_off_c, 9, 42, 0
10, 34406, Note_off_c, 9, 38, 0
10, 34434, Note_off_c, 9, 57, 0
10, 34464, Note_on_c, 9, 42, 100
10, 34488, Note_off_c, 9, 42, 0
10, 34560, Note_on_c, 9, 36, 110
10, 34560, Note_on_c, 9, 42, 110
10, 34588, Note_off_c, 9, 42, 0
10, 34590, Note_off_c, 9, 36, 0
10, 34656, Note_on_c, 9, 36, 108
10, 34656, Note_on_c, 9, 42, 95
10, 34678, Note_off_c, 9, 42, 0
10, 34686, Note_off_c, 9, 36, 0
10, 34745, Note_on_c, 9, 49, 50
10, 34752, Note_on_c, 9, 38, 127
10, 34752, Note_on_c, 9, 42, 110
10, 34785, Note_off_c, 9, 42, 0
10, 34790, Note_off_c, 9, 38, 0
10, 34797, Note_off_c, 9, 49, 0
10, 34848, Note_on_c, 9, 42, 100
10, 34868, Note_off_c, 9, 42, 0
10, 34944, Note_on_c, 9, 36, 110
10, 34944, Note_on_c, 9, 42, 110
10, 34972, Note_off_c, 9, 36, 0
10, 34979, Note_off_c, 9, 42, 0
10, 35040, Note_on_c, 9, 36, 105
10, 35040, Note_on_c, 9, 42, 100
10, 35065, Note_off_c, 9, 42, 0
10, 35065, Note_off_c, 9, 36, 0
10, 35134, Note_on_c, 9, 57, 63
10, 35136, Note_on_c, 9, 38, 127
10, 35136, Note_on_c, 9, 42, 110
10, 35168, Note_off_c, 9, 42, 0
10, 35174, Note_off_c, 9, 38, 0
10, 35202, Note_off_c, 9, 57, 0
10, 35232, Note_on_c, 9, 42, 100
10, 35256, Note_off_c, 9, 42, 0
10, 35328, Note_on_c, 9, 36, 110
10, 35328, Note_on_c, 9, 42, 110
10, 35328, Note_on_c, 9, 49, 65
10, 35356, Note_off_c, 9, 42, 0
10, 35358, Note_off_c, 9, 36, 0
10, 35387, Note_off_c, 9, 49, 0
10, 35424, Note_on_c, 9, 36, 108
10, 35424, Note_on_c, 9, 42, 95
10, 35446, Note_off_c, 9, 42, 0
10, 35454, Note_off_c, 9, 36, 0
10, 35520, Note_on_c, 9, 38, 127
10, 35520, Note_on_c, 9, 42, 110
10, 35553, Note_off_c, 9, 42, 0
10, 35558, Note_off_c, 9, 38, 0
10, 35616, Note_on_c, 9, 42, 100
10, 35636, Note_off_c, 9, 42, 0
10, 35712, Note_on_c, 9, 36, 110
10, 35712, Note_on_c, 9, 42, 110
10, 35740, Note_off_c, 9, 36, 0
10, 35747, Note_off_c, 9, 42, 0
10, 35808, Note_on_c, 9, 36, 105
10, 35808, Note_on_c, 9, 42, 100
10, 35833, Note_off_c, 9, 42, 0
10, 35833, Note_off_c, 9, 36, 0
10, 35904, Note_on_c, 9, 38, 127
10, 35904, Note_on_c, 9, 42, 110
10, 35936, Note_off_c, 9, 42, 0
10, 35942, Note_off_c, 9, 38, 0
10, 36000, Note_on_c, 9, 42, 100
10, 36024, Note_off_c, 9, 42, 0
10, 36096, Note_on_c, 9, 36, 110
10, 36096, Note_on_c, 9, 42, 110
10, 36124, Note_off_c, 9, 42, 0
10, 36126, Note_off_c, 9, 36, 0
10, 36192, Note_on_c, 9, 36, 108
10, 36192, Note_on_c, 9, 42, 95
10, 36214, Note_off_c, 9, 42, 0
10, 36222, Note_off_c, 9, 36, 0
10, 36288, Note_on_c, 9, 38, 127
10, 36288, Note_on_c, 9, 42, 110
10, 36321, Note_off_c, 9, 42, 0
10, 36326, Note_off_c, 9, 38, 0
10, 36384, Note_on_c, 9, 42, 100
10, 36404, Note_off_c, 9, 42, 0
10, 36480, Note_on_c, 9, 36, 110
10, 36480, Note_on_c, 9, 42, 110
10, 36508, Note_off_c, 9, 36, 0
10, 36515, Note_off_c, 9, 42, 0
10, 36576, Note_on_c, 9, 36, 105
10, 36576, Note_on_c, 9, 42, 100
10, 36601, Note_off_c, 9, 42, 0
10, 36601, Note_off_c, 9, 36, 0
10, 36672, Note_on_c, 9, 38, 127
10, 36672, Note_on_c, 9, 42, 110
10, 36704, Note_off_c, 9, 42, 0
10, 36710, Note_off_c, 9, 38, 0
10, 36768, Note_on_c, 9, 42, 100
10, 36792, Note_off_c, 9, 42, 0
10, 36864, Note_on_c, 9, 36, 110
10, 36864, Note_on_c, 9, 42, 110
10, 36892, Note_off_c, 9, 42, 0
10, 36894, Note_off_c, 9, 36, 0
10, 36960, Note_on_c, 9, 36, 108
10, 36960, Note_on_c, 9, 42, 95
10, 36982, Note_off_c, 9, 42, 0
10, 36990, Note_off_c, 9, 36, 0
10, 37056, Note_on_c, 9, 38, 127
10, 37056, Note_on_c, 9, 42, 110
10, 37089, Note_off_c, 9, 42, 0
10, 37094, Note_off_c, 9, 38, 0
10, 37152, Note_on_c, 9, 42, 100
10, 37172, Note_off_c, 9, 42, 0
10, 37248, Note_on_c, 9, 36, 110
10, 37248, Note_on_c, 9, 42, 110
10, 37276, Note_off_c, 9, 36, 0
10, 37283, Note_off_c, 9, 42, 0
10, 37344, Note_on_c, 9, 36, 105
10, 37344, Note_on_c, 9, 42, 100
10, 37369, Note_off_c, 9, 42, 0
10, 37369, Note_off_c, 9, 36, 0
10, 37440, Note_on_c, 9, 38, 127
10, 37440, Note_on_c, 9, 42, 110
10, 37472, Note_off_c, 9, 42, 0
10, 37478, Note_off_c, 9, 38, 0
10, 37536, Note_on_c, 9, 42, 100
10, 37560, Note_off_c, 9, 42, 0
10, 37632, Note_on_c, 9, 36, 110
10, 37632, Note_on_c, 9, 42, 110
10, 37660, Note_off_c, 9, 42, 0
10, 37662, Note_off_c, 9, 36, 0
10, 37728, Note_on_c, 9, 36, 108
10, 37728, Note_on_c, 9, 42, 95
10, 37750, Note_off_c, 9, 42, 0
10, 37758, Note_off_c, 9, 36, 0
10, 37824, Note_on_c, 9, 38, 127
10, 37824, Note_on_c, 9, 42, 110
10, 37857, Note_off_c, 9, 42, 0
10, 37862, Note_off_c, 9, 38, 0
10, 37920, Note_on_c, 9, 42, 100
10, 37940, Note_off_c, 9, 42, 0
10, 38016, Note_on_c, 9, 36, 110
10, 38016, Note_on_c, 9, 42, 110
10, 38044, Note_off_c, 9, 36, 0
10, 38051, Note_off_c, 9, 42, 0
10, 38112, Note_on_c, 9, 36, 105
10, 38112, Note_on_c, 9, 42, 100
10, 38137, Note_off_c, 9, 42, 0
10, 38137, Note_off_c, 9, 36, 0
10, 38208, Note_on_c, 9, 38, 127
10, 38208, Note_on_c, 9, 42, 110
10, 38240, Note_off_c, 9, 42, 0
10, 38246, Note_off_c, 9, 38, 0
10, 38304, Note_on_c, 9, 42, 100
10, 38328, Note_off_c, 9, 42, 0
10, 38400, Note_on_c, 9, 36, 110
10, 38400, Note_on_c, 9, 42, 110
10, 38428, Note_off_c, 9, 42, 0
10, 38430, Note_off_c, 9, 36, 0
10, 38496, Note_on_c, 9, 36, 108
10, 38496, Note_on_c, 9, 42, 95
10, 38518, Note_off_c, 9, 42, 0
10, 38526, Note_off_c, 9, 36, 0
10, 38592, Note_on_c, 9, 38, 127
10, 38592, Note_on_c, 9, 42, 110
10, 38625, Note_off_c, 9, 42, 0
10, 38630, Note_off_c, 9, 38, 0
10, 38688, Note_on_c, 9, 42, 100
10, 38708, Note_off_c, 9, 42, 0
10, 38784, Note_on_c, 9, 36, 110
10, 38784, Note_on_c, 9, 42, 110
10, 38812, Note_off_c, 9, 36, 0
10, 38819, Note_off_c, 9, 42, 0
10, 38880, Note_on_c, 9, 36, 105
10, 38880, Note_on_c, 9, 42, 100
10, 38905, Note_off_c, 9, 42, 0
10, 38905, Note_off_c, 9, 36, 0
10, 38976, Note_on_c, 9, 38, 127
10, 38976, Note_on_c, 9, 42, 110
10, 39008, Note_off_c, 9, 42, 0
10, 39014, Note_off_c, 9, 38, 0
10, 39072, Note_on_c, 9, 42, 100
10, 39096, Note_off_c, 9, 42, 0
10, 39168, Note_on_c, 9, 36, 110
10, 39168, Note_on_c, 9, 42, 110
10, 39196, Note_off_c, 9, 42, 0
10, 39198, Note_off_c, 9, 36, 0
10, 39264, Note_on_c, 9, 36, 108
10, 39264, Note_on_c, 9, 42, 95
10, 39286, Note_off_c, 9, 42, 0
10, 39294, Note_off_c, 9, 36, 0
10, 39360, Note_on_c, 9, 38, 127
10, 39360, Note_on_c, 9, 42, 110
10, 39393, Note_off_c, 9, 42, 0
10, 39398, Note_off_c, 9, 38, 0
10, 39456, Note_on_c, 9, 42, 100
10, 39476, Note_off_c, 9, 42, 0
10, 39552, Note_on_c, 9, 36, 110
10, 39552, Note_on_c, 9, 42, 110
10, 39580, Note_off_c, 9, 36, 0
10, 39587, Note_off_c, 9, 42, 0
10, 39648, Note_on_c, 9, 36, 105
10, 39648, Note_on_c, 9, 42, 100
10, 39673, Note_off_c, 9, 42, 0
10, 39673, Note_off_c, 9, 36, 0
10, 39744, Note_on_c, 9, 38, 127
10, 39744, Note_on_c, 9, 42, 110
10, 39776, Note_off_c, 9, 42, 0
10, 39782, Note_off_c, 9, 38, 0
10, 39840, Note_on_c, 9, 42, 100
10, 39864, Note_off_c, 9, 42, 0
10, 39936, Note_on_c, 9, 36, 110
10, 39936, Note_on_c, 9, 42, 110
10, 39964, Note_off_c, 9, 42, 0
10, 39966, Note_off_c, 9, 36, 0
10, 40032, Note_on_c, 9, 36, 108
10, 40032, Note_on_c, 9, 42, 95
10, 40054, Note_off_c, 9, 42, 0
10, 40062, Note_off_c, 9, 36, 0
10, 40128, Note_on_c, 9, 38, 127
10, 40128, Note_on_c, 9, 42, 110
10, 40161, Note_off_c, 9, 42, 0
10, 40166, Note_off_c, 9, 38, 0
10, 40224, Note_on_c, 9, 42, 100
10, 40244, Note_off_c, 9, 42, 0
10, 40320, Note_on_c, 9, 36, 110
10, 40320, Note_on_c, 9, 42, 110
10, 40348, Note_off_c, 9, 36, 0
10, 40355, Note_off_c, 9, 42, 0
10, 40416, Note_on_c, 9, 36, 105
10, 40416, Note_on_c, 9, 42, 100
10, 40441, Note_off_c, 9, 42, 0
10, 40441, Note_off_c, 9, 36, 0
10, 40512, Note_on_c, 9, 38, 127
10, 40512, Note_on_c, 9, 42, 110
10, 40544, Note_off_c, 9, 42, 0
10, 40550, Note_off_c, 9, 38, 0
10, 40608, Note_on_c, 9, 42, 100
10, 40632, Note_off_c, 9, 42, 0
10, 40704, Note_on_c, 9, 36, 127
10, 40704, Note_on_c, 9, 42, 110
10, 40732, Note_off_c, 9, 36, 0
10, 40734, Note_off_c, 9, 42, 0
10, 40800, Note_on_c, 9, 36, 127
10, 40800, Note_on_c, 9, 42, 100
10, 40827, Note_off_c, 9, 42, 0
10, 40832, Note_off_c, 9, 36, 0
10, 40896, Note_on_c, 9, 38, 127
10, 40896, Note_on_c, 9, 42, 104
10, 40923, Note_off_c, 9, 42, 0
10, 40932, Note_off_c, 9, 38, 0
10, 40992, Note_on_c, 9, 42, 104
10, 41022, Note_off_c, 9, 42, 0
10, 41040, Note_on_c, 9, 38, 127
10, 41060, Note_off_c, 9, 38, 0
10, 41088, Note_on_c, 9, 38, 127
10, 41088, Note_on_c, 9, 46, 104
10, 41102, Note_off_c, 9, 46, 0
10, 41115, Note_off_c, 9, 38, 0
10, 41184, Note_on_c, 9, 38, 127
10, 41211, Note_off_c, 9, 38, 0
10, 41280, Note_on_c, 9, 45, 117
10, 41315, Note_off_c, 9, 45, 0
10, 41328, Note_on_c, 9, 43, 117
10, 41364, Note_off_c, 9, 43, 0
10, 41376, Note_on_c, 9, 41, 122
10, 41408, Note_off_c, 9, 41, 0
10, 41472, Note_on_c, 9, 36, 110
10, 41472, Note_on_c, 9, 42, 110
10, 41475, Note_on_c, 9, 49, 80
10, 41500, Note_off_c, 9, 42, 0
10, 41502, Note_off_c, 9, 36, 0
10, 41508, Note_off_c, 9, 49, 0
10, 41568, Note_on_c, 9, 36, 108
10, 41568, Note_on_c, 9, 42, 95
10, 41590, Note_off_c, 9, 42, 0
10, 41598, Note_off_c, 9, 36, 0
10, 41657, Note_on_c, 9, 49, 50
10, 41664, Note_on_c, 9, 38, 127
10, 41664, Note_on_c, 9, 42, 110
10, 41697, Note_off_c, 9, 42, 0
10, 41702, Note_off_c, 9, 38, 0
10, 41709, Note_off_c, 9, 49, 0
10, 41760, Note_on_c, 9, 42, 100
10, 41780, Note_off_c, 9, 42, 0
10, 41856, Note_on_c, 9, 36, 110
10, 41856, Note_on_c, 9, 42, 110
10, 41884, Note_off_c, 9, 36, 0
10, 41891, Note_off_c, 9, 42, 0
10, 41952, Note_on_c, 9, 36, 105
10, 41952, Note_on_c, 9, 42, 100
10, 41977, Note_off_c, 9, 42, 0
10, 41977, Note_off_c, 9, 36, 0
10, 42046, Note_on_c, 9, 57, 63
10, 42048, Note_on_c, 9, 38, 127
10, 42048, Note_on_c, 9, 42, 110
10, 42080, Note_off_c, 9, 42, 0
10, 42086, Note_off_c, 9, 38, 0
10, 42114, Note_off_c, 9, 57, 0
10, 42144, Note_on_c, 9, 42, 100
10, 42168, Note_off_c, 9, 42, 0
10, 42240, Note_on_c, 9, 36, 110
10, 42240, Note_on_c, 9, 42, 110
10, 42268, Note_off_c, 9, 42, 0
10, 42270, Note_off_c, 9, 36, 0
10, 42336, Note_on_c, 9, 36, 108
10, 42336, Note_on_c, 9, 42, 95
10, 42358, Note_off_c, 9, 42, 0
10, 42366, Note_off_c, 9, 36, 0
10, 42425, Note_on_c, 9, 49, 50
10, 42432, Note_on_c, 9, 38, 127
10, 42432, Note_on_c, 9, 42, 110
10, 42465, Note_off_c, 9, 42, 0
10, 42470, Note_off_c, 9, 38, 0
10, 42477, Note_off_c, 9, 49, 0
10, 42528, Note_on_c, 9, 42, 100
10, 42548, Note_off_c, 9, 42, 0
10, 42624, Note_on_c, 9, 36, 110
10, 42624, Note_on_c, 9, 42, 110
10, 42652, Note_off_c, 9, 36, 0
10, 42659, Note_off_c, 9, 42, 0
10, 42720, Note_on_c, 9, 36, 105
10, 42720, Note_on_c, 9, 42, 100
10, 42745, Note_off_c, 9, 42, 0
10, 42745, Note_off_c, 9, 36, 0
10, 42814, Note_on_c, 9, 57, 63
10, 42816, Note_on_c, 9, 38, 127
10, 42816, Note_on_c, 9, 42, 110
10, 42848, Note_off_c, 9, 42, 0
10, 42854, Note_off_c, 9, 38, 0
10, 42882, Note_off_c, 9, 57, 0
10, 42912, Note_on_c, 9, 42, 100
10, 42936, Note_off_c, 9, 42, 0
10, 43008, Note_on_c, 9, 36, 110
10, 43008, Note_on_c, 9, 42, 110
10, 43036, Note_off_c, 9, 42, 0
10, 43038, Note_off_c, 9, 36, 0
10, 43104, Note_on_c, 9, 36, 108
10, 43104, Note_on_c, 9, 42, 95
10, 43126, Note_off_c, 9, 42, 0
10, 43134, Note_off_c, 9, 36, 0
10, 43193, Note_on_c, 9, 49, 50
10, 43200, Note_on_c, 9, 38, 127
10, 43200, Note_on_c, 9, 42, 110
10, 43233, Note_off_c, 9, 42, 0
10, 43238, Note_off_c, 9, 38, 0
10, 43245, Note_off_c, 9, 49, 0
10, 43296, Note_on_c, 9, 42, 100
10, 43316, Note_off_c, 9, 42, 0
10, 43392, Note_on_c, 9, 36, 110
10, 43392, Note_on_c, 9, 42, 110
10, 43420, Note_off_c, 9, 36, 0
10, 43427, Note_off_c, 9, 42, 0
10, 43488, Note_on_c, 9, 36, 105
10, 43488, Note_on_c, 9, 42, 100
10, 43513, Note_off_c, 9, 42, 0
10, 43513, Note_off_c, 9, 36, 0
10, 43582, Note_on_c, 9, 57, 63
10, 43584, Note_on_c, 9, 38, 127
10, 43584, Note_on_c, 9, 42, 110
10, 43616, Note_off_c, 9, 42, 0
10, 43622, Note_off_c, 9, 38, 0
10, 43650, Note_off_c, 9, 57, 0
10, 43680, Note_on_c, 9, 42, 100
10, 43704, Note_off_c, 9, 42, 0
10, 43776, Note_on_c, 9, 36, 110
10, 43776, Note_on_c, 9, 42, 110
10, 43804, Note_off_c, 9, 42, 0
10, 43806, Note_off_c, 9, 36, 0
10, 43872, Note_on_c, 9, 36, 108
10, 43872, Note_on_c, 9, 42, 95
10, 43894, Note_off_c, 9, 42, 0
10, 43902, Note_off_c, 9, 36, 0
10, 43961, Note_on_c, 9, 49, 50
10, 43968, Note_on_c, 9, 38, 127
10, 43968, Note_on_c, 9, 42, 110
10, 44001, Note_off_c, 9, 42, 0
10, 44006, Note_off_c, 9, 38, 0
10, 44013, Note_off_c, 9, 49, 0
10, 44064, Note_on_c, 9, 42, 100
10, 44084, Note_off_c, 9, 42, 0
10, 44160, Note_on_c, 9, 36, 110
10, 44160, Note_on_c, 9, 42, 110
10, 44188, Note_off_c, 9, 36, 0
10, 44195, Note_off_c, 9, 42, 0
10, 44256, Note_on_c, 9, 36, 105
10, 44256, Note_on_c, 9, 42, 100
10, 44281, Note_off_c, 9, 42, 0
10, 44281, Note_off_c, 9, 36, 0
10, 44350, Note_on_c, 9, 57, 63
10, 44352, Note_on_c, 9, 38, 127
10, 44352, Note_on_c, 9, 42, 110
10, 44384, Note_off_c, 9, 42, 0
10, 44390, Note_off_c, 9, 38, 0
10, 44418, Note_off_c, 9, 57, 0
10, 44448, Note_on_c, 9, 42, 100
10, 44472, Note_off_c, 9, 42, 0
10, 44544, Note_on_c, 9, 36, 127
10, 44544, Note_on_c, 9, 49, 71
10, 44544, Note_on_c, 9, 51, 110
10, 44576, Note_off_c, 9, 36, 0
10, 44582, Note_off_c, 9, 51, 0
10, 44585, Note_off_c, 9, 49, 0
10, 44640, Note_on_c, 9, 36, 127
10, 44675, Note_off_c, 9, 36, 0
10, 44736, Note_on_c, 9, 38, 127
10, 44736, Note_on_c, 9, 51, 104
10, 44771, Note_off_c, 9, 38, 0
10, 44780, Note_off_c, 9, 51, 0
10, 44928, Note_on_c, 9, 36, 127
10, 44928, Note_on_c, 9, 51, 104
10, 44960, Note_off_c, 9, 36, 0
10, 44971, Note_off_c, 9, 51, 0
10, 45024, Note_on_c, 9, 36, 127
10, 45060, Note_off_c, 9, 36, 0
10, 45120, Note_on_c, 9, 38, 127
10, 45140, Note_off_c, 9, 38, 0
10, 45168, Note_on_c, 9, 38, 127
10, 45193, Note_off_c, 9, 38, 0
10, 45216, Note_on_c, 9, 38, 127
10, 45235, Note_off_c, 9, 38, 0
10, 45312, Note_on_c, 9, 36, 127
10, 45312, Note_on_c, 9, 51, 104
10, 45344, Note_off_c, 9, 36, 0
10, 45348, Note_off_c, 9, 51, 0
10, 45408, Note_on_c, 9, 36, 127
10, 45443, Note_off_c, 9, 36, 0
10, 45504, Note_on_c, 9, 38, 127
10, 45504, Note_on_c, 9, 51, 104
10, 45539, Note_off_c, 9, 38, 0
10, 45540, Note_off_c, 9, 51, 0
10, 45696, Note_on_c, 9, 36, 127
10, 45696, Note_on_c, 9, 51, 110
10, 45728, Note_off_c, 9, 36, 0
10, 45731, Note_off_c, 9, 51, 0
10, 45792, Note_on_c, 9, 36, 127
10, 45828, Note_off_c, 9, 36, 0
10, 45888, Note_on_c, 9, 38, 127
10, 45908, Note_off_c, 9, 38, 0
10, 45936, Note_on_c, 9, 38, 127
10, 45961, Note_off_c, 9, 38, 0
10, 45984, Note_on_c, 9, 38, 127
10, 46003, Note_off_c, 9, 38, 0
10, 46080, Note_on_c, 9, 36, 122
10, 46080, Note_on_c, 9, 51, 76
10, 46126, Note_off_c, 9, 51, 0
10, 46126, Note_off_c, 9, 36, 0
10, 46176, Note_on_c, 9, 36, 108
10, 46222, Note_off_c, 9, 36, 0
10, 46272, Note_on_c, 9, 38, 127
10, 46272, Note_on_c, 9, 51, 71
10, 46318, Note_off_c, 9, 51, 0
10, 46318, Note_off_c, 9, 38, 0
10, 46464, Note_on_c, 9, 36, 108
10, 46464, Note_on_c, 9, 51, 80
10, 46510, Note_off_c, 9, 51, 0
10, 46510, Note_off_c, 9, 36, 0
10, 46560, Note_on_c, 9, 38, 122
10, 46606, Note_off_c, 9, 38, 0
10, 46656, Note_on_c, 9, 38, 113
10, 46702, Note_off_c, 9, 38, 0
10, 46752, Note_on_c, 9, 36, 127
10, 46752, Note_on_c, 9, 49, 80
10, 46798, Note_off_c, 9, 49, 0
10, 46798, Note_off_c, 9, 36, 0
10, 46848, Note_on_c, 9, 51, 43
10, 46894, Note_off_c, 9, 51, 0
10, 46944, Note_on_c, 9, 36, 83
10, 46990, Note_off_c, 9, 36, 0
10, 47040, Note_on_c, 9, 38, 113
10, 47040, Note_on_c, 9, 51, 83
10, 47086, Note_off_c, 9, 51, 0
10, 47086, Note_off_c, 9, 38, 0
10, 47232, Note_on_c, 9, 36, 122
10, 47232, Note_on_c, 9, 51, 71
10, 47278, Note_off_c, 9, 51, 0
10, 47278, Note_off_c, 9, 36, 0
10, 47328, Note_on_c, 9, 38, 127
10, 47374, Note_off_c, 9, 38, 0
10, 47424, Note_on_c, 9, 38, 127
10, 47424, Note_on_c, 9, 51, 80
10, 47470, Note_off_c, 9, 51, 0
10, 47470, Note_off_c, 9, 38, 0
10, 47520, Note_on_c, 9, 36, 127
10, 47520, Note_on_c, 9, 49, 95
10, 47566, Note_off_c, 9, 49, 0
10, 47566, Note_off_c, 9, 36, 0
10, 47808, Note_on_c, 9, 38, 127
10, 47854, Note_off_c, 9, 38, 0
10, 47904, Note_on_c, 9, 36, 122
10, 47950, Note_off_c, 9, 36, 0
10, 48000, Note_on_c, 9, 38, 127
10, 48046, Note_off_c, 9, 38, 0
10, 48096, Note_on_c, 9, 36, 117
10, 48142, Note_off_c, 9, 36, 0
10, 48192, Note_on_c, 9, 38, 127
10, 48238, Note_off_c, 9, 38, 0
10, 48288, Note_on_c, 9, 36, 104
10, 48334, Note_off_c, 9, 36, 0
10, 48384, Note_on_c, 9, 36, 127
10, 48384, Note_on_c, 9, 49, 71
10, 48384, Note_on_c, 9, 51, 110
10, 48416, Note_off_c, 9, 36, 0
10, 48422, Note_off_c, 9, 51, 0
10, 48425, Note_off_c, 9, 49, 0
10, 48480, Note_on_c, 9, 36, 127
10, 48515, Note_off_c, 9, 36, 0
10, 48576, Note_on_c, 9, 38, 127
10, 48576, Note_on_c, 9, 51, 104
10, 48611, Note_off_c, 9, 38, 0
10, 48620, Note_off_c, 9, 51, 0
10, 48768, Note_on_c, 9, 36, 127
10, 48768, Note_on_c, 9, 51, 104
10, 48800, Note_off_c, 9, 36, 0
10, 48811, Note_off_c, 9, 51, 0
10, 48864, Note_on_c, 9, 36, 127
10, 48900, Note_off_c, 9, 36, 0
10, 48960, Note_on_c, 9, 38, 127
10, 48980, Note_off_c, 9, 38, 0
10, 49008, Note_on_c, 9, 38, 127
10, 49033, Note_off_c, 9, 38, 0
10, 49056, Note_on_c, 9, 38, 127
10, 49075, Note_off_c, 9, 38, 0
10, 49152, Note_on_c, 9, 36, 127
10, 49152, Note_on_c, 9, 51, 104
10, 49184, Note_off_c, 9, 36, 0
10, 49188, Note_off_c, 9, 51, 0
10, 49248, Note_on_c, 9, 36, 127
10, 49283, Note_off_c, 9, 36, 0
10, 49344, Note_on_c, 9, 38, 127
10, 49344, Note_on_c, 9, 51, 104
10, 49379, Note_off_c, 9, 38, 0
10, 49380, Note_off_c, 9, 51, 0
10, 49536, Note_on_c, 9, 36, 127
10, 49536, Note_on_c, 9, 51, 110
10, 49568, Note_off_c, 9, 36, 0
10, 49571, Note_off_c, 9, 51, 0
10, 49632, Note_on_c, 9, 36, 127
10, 49668, Note_off_c, 9, 36, 0
10, 49728, Note_on_c, 9, 38, 127
10, 49748, Note_off_c, 9, 38, 0
10, 49776, Note_on_c, 9, 38, 127
10, 49801, Note_off_c, 9, 38, 0
10, 49824, Note_on_c, 9, 38, 127
10, 49843, Note_off_c, 9, 38, 0
10, 49920, Note_on_c, 9, 36, 122
10, 49920, Note_on_c, 9, 51, 76
10, 49955, Note_off_c, 9, 36, 0
10, 49968, Note_off_c, 9, 51, 0
10, 50016, Note_on_c, 9, 36, 108
10, 50046, Note_off_c, 9, 36, 0
10, 50112, Note_on_c, 9, 38, 127
10, 50112, Note_on_c, 9, 51, 71
10, 50148, Note_off_c, 9, 38, 0
10, 50172, Note_off_c, 9, 51, 0
10, 50304, Note_on_c, 9, 36, 108
10, 50304, Note_on_c, 9, 51, 80
10, 50336, Note_off_c, 9, 36, 0
10, 50344, Note_off_c, 9, 51, 0
10, 50400, Note_on_c, 9, 38, 122
10, 50430, Note_off_c, 9, 38, 0
10, 50496, Note_on_c, 9, 38, 113
10, 50523, Note_off_c, 9, 38, 0
10, 50592, Note_on_c, 9, 36, 127
10, 50592, Note_on_c, 9, 49, 80
10, 50616, Note_off_c, 9, 49, 0
10, 50625, Note_off_c, 9, 36, 0
10, 50688, Note_on_c, 9, 51, 43
10, 50720, Note_off_c, 9, 51, 0
10, 50784, Note_on_c, 9, 36, 83
10, 50824, Note_off_c, 9, 36, 0
10, 50880, Note_on_c, 9, 38, 113
10, 50880, Note_on_c, 9, 51, 83
10, 50920, Note_off_c, 9, 38, 0
10, 50929, Note_off_c, 9, 51, 0
10, 51072, Note_on_c, 9, 36, 122
10, 51072, Note_on_c, 9, 51, 71
10, 51096, Note_off_c, 9, 36, 0
10, 51116, Note_off_c, 9, 51, 0
10, 51168, Note_on_c, 9, 38, 127
10, 51201, Note_off_c, 9, 38, 0
10, 51264, Note_on_c, 9, 38, 127
10, 51264, Note_on_c, 9, 51, 80
10, 51288, Note_off_c, 9, 38, 0
10, 51299, Note_off_c, 9, 51, 0
10, 51360, Note_on_c, 9, 36, 127
10, 51360, Note_on_c, 9, 49, 95
10, 51388, Note_off_c, 9, 49, 0
10, 51388, Note_off_c, 9, 36, 0
10, 51552, Note_on_c, 9, 36, 127
10, 51582, Note_off_c, 9, 36, 0
10, 51648, Note_on_c, 9, 38, 127
10, 51680, Note_off_c, 9, 38, 0
10, 51840, Note_on_c, 9, 36, 97
10, 51840, Note_on_c, 9, 38, 117
10, 51840, Note_on_c, 9, 41, 81
10, 51840, Note_on_c, 9, 43, 94
10, 51868, Note_off_c, 9, 41, 0
10, 51876, Note_off_c, 9, 43, 0
10, 51884, Note_off_c, 9, 38, 0
10, 51889, Note_off_c, 9, 36, 0
10, 52032, Note_on_c, 9, 36, 88
10, 52032, Note_on_c, 9, 38, 104
10, 52032, Note_on_c, 9, 43, 113
10, 52067, Note_off_c, 9, 38, 0
10, 52068, Note_off_c, 9, 36, 0
10, 52070, Note_off_c, 9, 43, 0
10, 52224, Note_on_c, 9, 38, 127
10, 52224, Note_on_c, 9, 57, 63
10, 52265, Note_off_c, 9, 57, 0
10, 52267, Note_off_c, 9, 38, 0
10, 52320, Note_on_c, 9, 36, 108
10, 52352, Note_off_c, 9, 36, 0
10, 52416, Note_on_c, 9, 38, 127
10, 52416, Note_on_c, 9, 57, 66
10, 52460, Note_off_c, 9, 57, 0
10, 52460, Note_off_c, 9, 38, 0
10, 52512, Note_on_c, 9, 36, 108
10, 52547, Note_off_c, 9, 36, 0
10, 52608, Note_on_c, 9, 38, 127
10, 52608, Note_on_c, 9, 57, 60
10, 52652, Note_off_c, 9, 38, 0
10, 52656, Note_off_c, 9, 57, 0
10, 52704, Note_on_c, 9, 36, 113
10, 52736, Note_off_c, 9, 36, 0
10, 52800, Note_on_c, 9, 38, 127
10, 52800, Note_on_c, 9, 57, 59
10, 52833, Note_off_c, 9, 57, 0
10, 52844, Note_off_c, 9, 38, 0
10, 52896, Note_on_c, 9, 36, 122
10, 52926, Note_off_c, 9, 36, 0
10, 52992, Note_on_c, 9, 36, 101
10, 52992, Note_on_c, 9, 38, 127
10, 52992, Note_on_c, 9, 43, 79
10, 53019, Note_off_c, 9, 38, 0
10, 53030, Note_off_c, 9, 43, 0
10, 53035, Note_off_c, 9, 36, 0
10, 53088, Note_on_c, 9, 38, 88
10, 53088, Note_on_c, 9, 43, 71
10, 53116, Note_off_c, 9, 38, 0
10, 53129, Note_off_c, 9, 43, 0
10, 53184, Note_on_c, 9, 36, 108
10, 53184, Note_on_c, 9, 38, 83
10, 53184, Note_on_c, 9, 43, 68
10, 53214, Note_off_c, 9, 38, 0
10, 53227, Note_off_c, 9, 36, 0
10, 53230, Note_off_c, 9, 43, 0
10, 53280, Note_on_c, 9, 38, 97
10, 53280, Note_on_c, 9, 43, 73
10, 53308, Note_off_c, 9, 38, 0
10, 53332, Note_off_c, 9, 43, 0
10, 53376, Note_on_c, 9, 36, 108
10, 53376, Note_on_c, 9, 38, 108
10, 53376, Note_on_c, 9, 43, 71
10, 53406, Note_off_c, 9, 38, 0
10, 53420, Note_off_c, 9, 36, 0
10, 53422, Note_off_c, 9, 43, 0
10, 53472, Note_on_c, 9, 38, 122
10, 53472, Note_on_c, 9, 43, 81
10, 53500, Note_off_c, 9, 38, 0
10, 53513, Note_off_c, 9, 43, 0
10, 53568, Note_on_c, 9, 36, 117
10, 53568, Note_on_c, 9, 38, 117
10, 53568, Note_on_c, 9, 43, 86
10, 53595, Note_off_c, 9, 38, 0
10, 53604, Note_off_c, 9, 36, 0
10, 53608, Note_off_c, 9, 43, 0
10, 53664, Note_on_c, 9, 38, 127
10, 53664, Note_on_c, 9, 43, 81
10, 53692, Note_off_c, 9, 38, 0
10, 53696, Note_off_c, 9, 43, 0
10, 53760, Note_on_c, 9, 36, 110
10, 53760, Note_on_c, 9, 42, 110
10, 53760, Note_on_c, 9, 49, 65
10, 53788, Note_off_c, 9, 42, 0
10, 53790, Note_off_c, 9, 36, 0
10, 53819, Note_off_c, 9, 49, 0
10, 53856, Note_on_c, 9, 36, 108
10, 53856, Note_on_c, 9, 42, 95
10, 53878, Note_off_c, 9, 42, 0
10, 53886, Note_off_c, 9, 36, 0
10, 53952, Note_on_c, 9, 38, 127
10, 53952, Note_on_c, 9, 42, 110
10, 53985, Note_off_c, 9, 42, 0
10, 53990, Note_off_c, 9, 38, 0
10, 54048, Note_on_c, 9, 42, 100
10, 54068, Note_off_c, 9, 42, 0
10, 54144, Note_on_c, 9, 36, 110
10, 54144, Note_on_c, 9, 42, 110
10, 54172, Note_off_c, 9, 36, 0
10, 54179, Note_off_c, 9, 42, 0
10, 54240, Note_on_c, 9, 36, 105
10, 54240, Note_on_c, 9, 42, 100
10, 54265, Note_off_c, 9, 42, 0
10, 54265, Note_off_c, 9, 36, 0
10, 54336, Note_on_c, 9, 38, 127
10, 54336, Note_on_c, 9, 42, 110
10, 54368, Note_off_c, 9, 42, 0
10, 54374, Note_off_c, 9, 38, 0
10, 54432, Note_on_c, 9, 42, 100
10, 54456, Note_off_c, 9, 42, 0
10, 54528, Note_on_c, 9, 36, 110
10, 54528, Note_on_c, 9, 42, 110
10, 54556, Note_off_c, 9, 42, 0
10, 54558, Note_off_c, 9, 36, 0
10, 54624, Note_on_c, 9, 36, 108
10, 54624, Note_on_c, 9, 42, 95
10, 54646, Note_off_c, 9, 42, 0
10, 54654, Note_off_c, 9, 36, 0
10, 54720, Note_on_c, 9, 38, 127
10, 54720, Note_on_c, 9, 42, 110
10, 54753, Note_off_c, 9, 42, 0
10, 54758, Note_off_c, 9, 38, 0
10, 54816, Note_on_c, 9, 42, 100
10, 54836, Note_off_c, 9, 42, 0
10, 54912, Note_on_c, 9, 36, 110
10, 54912, Note_on_c, 9, 42, 110
10, 54940, Note_off_c, 9, 36, 0
10, 54947, Note_off_c, 9, 42, 0
10, 55008, Note_on_c, 9, 36, 105
10, 55008, Note_on_c, 9, 42, 100
10, 55033, Note_off_c, 9, 42, 0
10, 55033, Note_off_c, 9, 36, 0
10, 55104, Note_on_c, 9, 38, 127
10, 55104, Note_on_c, 9, 42, 110
10, 55136, Note_off_c, 9, 42, 0
10, 55142, Note_off_c, 9, 38, 0
10, 55200, Note_on_c, 9, 42, 100
10, 55224, Note_off_c, 9, 42, 0
10, 55296, Note_on_c, 9, 36, 110
10, 55296, Note_on_c, 9, 42, 110
10, 55324, Note_off_c, 9, 42, 0
10, 55326, Note_off_c, 9, 36, 0
10, 55392, Note_on_c, 9, 36, 108
10, 55392, Note_on_c, 9, 42, 95
10, 55414, Note_off_c, 9, 42, 0
10, 55422, Note_off_c, 9, 36, 0
10, 55488, Note_on_c, 9, 38, 127
10, 55488, Note_on_c, 9, 42, 110
10, 55521, Note_off_c, 9, 42, 0
10, 55526, Note_off_c, 9, 38, 0
10, 55584, Note_on_c, 9, 42, 100
10, 55604, Note_off_c, 9, 42, 0
10, 55680, Note_on_c, 9, 36, 110
10, 55680, Note_on_c, 9, 42, 110
10, 55708, Note_off_c, 9, 36, 0
10, 55715, Note_off_c, 9, 42, 0
10, 55776, Note_on_c, 9, 36, 105
10, 55776, Note_on_c, 9, 42, 100
10, 55801, Note_off_c, 9, 42, 0
10, 55801, Note_off_c, 9, 36, 0
10, 55872, Note_on_c, 9, 38, 127
10, 55872, Note_on_c, 9, 42, 110
10, 55904, Note_off_c, 9, 42, 0
10, 55910, Note_off_c, 9, 38, 0
10, 55968, Note_on_c, 9, 42, 100
10, 55992, Note_off_c, 9, 42, 0
10, 56064, Note_on_c, 9, 36, 110
10, 56064, Note_on_c, 9, 42, 110
10, 56092, Note_off_c, 9, 42, 0
10, 56094, Note_off_c, 9, 36, 0
10, 56160, Note_on_c, 9, 36, 108
10, 56160, Note_on_c, 9, 42, 95
10, 56182, Note_off_c, 9, 42, 0
10, 56190, Note_off_c, 9, 36, 0
10, 56256, Note_on_c, 9, 38, 127
10, 56256, Note_on_c, 9, 42, 110
10, 56289, Note_off_c, 9, 42, 0
10, 56294, Note_off_c, 9, 38, 0
10, 56352, Note_on_c, 9, 42, 100
10, 56372, Note_off_c, 9, 42, 0
10, 56448, Note_on_c, 9, 36, 110
10, 56448, Note_on_c, 9, 42, 110
10, 56476, Note_off_c, 9, 36, 0
10, 56483, Note_off_c, 9, 42, 0
10, 56544, Note_on_c, 9, 36, 105
10, 56544, Note_on_c, 9, 42, 100
10, 56569, Note_off_c, 9, 42, 0
10, 56569, Note_off_c, 9, 36, 0
10, 56640, Note_on_c, 9, 38, 127
10, 56640, Note_on_c, 9, 42, 110
10, 56672, Note_off_c, 9, 42, 0
10, 56678, Note_off_c, 9, 38, 0
10, 56736, Note_on_c, 9, 42, 100
10, 56760, Note_off_c, 9, 42, 0
10, 56832, Note_on_c, 9, 36, 110
10, 56832, Note_on_c, 9, 42, 110
10, 56860, Note_off_c, 9, 42, 0
10, 56862, Note_off_c, 9, 36, 0
10, 56928, Note_on_c, 9, 36, 108
10, 56928, Note_on_c, 9, 42, 95
10, 56950, Note_off_c, 9, 42, 0
10, 56958, Note_off_c, 9, 36, 0
10, 57024, Note_on_c, 9, 38, 127
10, 57024, Note_on_c, 9, 42, 110
10, 57057, Note_off_c, 9, 42, 0
10, 57062, Note_off_c, 9, 38, 0
10, 57120, Note_on_c, 9, 42, 100
10, 57140, Note_off_c, 9, 42, 0
10, 57216, Note_on_c, 9, 36, 110
10, 57216, Note_on_c, 9, 42, 110
10, 57244, Note_off_c, 9, 36, 0
10, 57251, Note_off_c, 9, 42, 0
10, 57312, Note_on_c, 9, 36, 105
10, 57312, Note_on_c, 9, 42, 100
10, 57337, Note_off_c, 9, 42, 0
10, 57337, Note_off_c, 9, 36, 0
10, 57408, Note_on_c, 9, 38, 127
10, 57408, Note_on_c, 9, 42, 110
10, 57440, Note_off_c, 9, 42, 0
10, 57446, Note_off_c, 9, 38, 0
10, 57504, Note_on_c, 9, 42, 100
10, 57528, Note_off_c, 9, 42, 0
10, 57600, Note_on_c, 9, 36, 110
10, 57600, Note_on_c, 9, 42, 110
10, 57628, Note_off_c, 9, 42, 0
10, 57630, Note_off_c, 9, 36, 0
10, 57696, Note_on_c, 9, 36, 108
10, 57696, Note_on_c, 9, 42, 95
10, 57718, Note_off_c, 9, 42, 0
10, 57726, Note_off_c, 9, 36, 0
10, 57792, Note_on_c, 9, 38, 127
10, 57792, Note_on_c, 9, 42, 110
10, 57825, Note_off_c, 9, 42, 0
10, 57830, Note_off_c, 9, 38, 0
10, 57888, Note_on_c, 9, 42, 100
10, 57908, Note_off_c, 9, 42, 0
10, 57984, Note_on_c, 9, 36, 110
10, 57984, Note_on_c, 9, 42, 110
10, 58012, Note_off_c, 9, 36, 0
10, 58019, Note_off_c, 9, 42, 0
10, 58080, Note_on_c, 9, 36, 105
10, 58080, Note_on_c, 9, 42, 100
10, 58105, Note_off_c, 9, 42, 0
10, 58105, Note_off_c, 9, 36, 0
10, 58176, Note_on_c, 9, 38, 127
10, 58176, Note_on_c, 9, 42, 110
10, 58208, Note_off_c, 9, 42, 0
10, 58214, Note_off_c, 9, 38, 0
10, 58272, Note_on_c, 9, 42, 100
10, 58296, Note_off_c, 9, 42, 0
10, 58368, Note_on_c, 9, 36, 110
10, 58368, Note_on_c, 9, 42, 110
10, 58396, Note_off_c, 9, 42, 0
10, 58398, Note_off_c, 9, 36, 0
10, 58464, Note_on_c, 9, 36, 108
10, 58464, Note_on_c, 9, 42, 95
10, 58486, Note_off_c, 9, 42, 0
10, 58494, Note_off_c, 9, 36, 0
10, 58560, Note_on_c, 9, 38, 127
10, 58560, Note_on_c, 9, 42, 110
10, 58593, Note_off_c, 9, 42, 0
10, 58598, Note_off_c, 9, 38, 0
10, 58656, Note_on_c, 9, 42, 100
10, 58676, Note_off_c, 9, 42, 0
10, 58752, Note_on_c, 9, 36, 110
10, 58752, Note_on_c, 9, 42, 110
10, 58780, Note_off_c, 9, 36, 0
10, 58787, Note_off_c, 9, 42, 0
10, 58848, Note_on_c, 9, 36, 105
10, 58848, Note_on_c, 9, 42, 100
10, 58873, Note_off_c, 9, 42, 0
10, 58873, Note_off_c, 9, 36, 0
10, 58944, Note_on_c, 9, 38, 127
10, 58944, Note_on_c, 9, 42, 110
10, 58976, Note_off_c, 9, 42, 0
10, 58982, Note_off_c, 9, 38, 0
10, 59040, Note_on_c, 9, 42, 100
10, 59064, Note_off_c, 9, 42, 0
10, 59136, Note_on_c, 9, 36, 127
10, 59136, Note_on_c, 9, 42, 110
10, 59164, Note_off_c, 9, 36, 0
10, 59166, Note_off_c, 9, 42, 0
10, 59232, Note_on_c, 9, 36, 127
10, 59232, Note_on_c, 9, 42, 100
10, 59259, Note_off_c, 9, 42, 0
10, 59264, Note_off_c, 9, 36, 0
10, 59328, Note_on_c, 9, 38, 127
10, 59328, Note_on_c, 9, 42, 104
10, 59355, Note_off_c, 9, 42, 0
10, 59364, Note_off_c, 9, 38, 0
10, 59424, Note_on_c, 9, 42, 104
10, 59454, Note_off_c, 9, 42, 0
10, 59472, Note_on_c, 9, 38, 127
10, 59492, Note_off_c, 9, 38, 0
10, 59520, Note_on_c, 9, 38, 127
10, 59520, Note_on_c, 9, 46, 104
10, 59534, Note_off_c, 9, 46, 0
10, 59547, Note_off_c, 9, 38, 0
10, 59616, Note_on_c, 9, 38, 127
10, 59643, Note_off_c, 9, 38, 0
10, 59712, Note_on_c, 9, 45, 117
10, 59747, Note_off_c, 9, 45, 0
10, 59760, Note_on_c, 9, 43, 117
10, 59796, Note_off_c, 9, 43, 0
10, 59808, Note_on_c, 9, 41, 122
10, 59840, Note_off_c, 9, 41, 0
10, 59904, Note_on_c, 9, 36, 127
10, 59904, Note_on_c, 9, 49, 71
10, 59904, Note_on_c, 9, 51, 110
10, 59936, Note_off_c, 9, 36, 0
10, 59942, Note_off_c, 9, 51, 0
10, 59945, Note_off_c, 9, 49, 0
10, 60000, Note_on_c, 9, 36, 127
10, 60035, Note_off_c, 9, 36, 0
10, 60096, Note_on_c, 9, 38, 127
10, 60096, Note_on_c, 9, 51, 104
10, 60131, Note_off_c, 9, 38, 0
10, 60140, Note_off_c, 9, 51, 0
10, 60288, Note_on_c, 9, 36, 127
10, 60288, Note_on_c, 9, 51, 104
10, 60320, Note_off_c, 9, 36, 0
10, 60331, Note_off_c, 9, 51, 0
10, 60384, Note_on_c, 9, 36, 127
10, 60420, Note_off_c, 9, 36, 0
10, 60480, Note_on_c, 9, 38, 127
10, 60500, Note_off_c, 9, 38, 0
10, 60528, Note_on_c, 9, 38, 127
10, 60553, Note_off_c, 9, 38, 0
10, 60576, Note_on_c, 9, 38, 127
10, 60595, Note_off_c, 9, 38, 0
10, 60672, Note_on_c, 9, 36, 127
10, 60672, Note_on_c, 9, 51, 104
10, 60704, Note_off_c, 9, 36, 0
10, 60708, Note_off_c, 9, 51, 0
10, 60768, Note_on_c, 9, 36, 127
10, 60803, Note_off_c, 9, 36, 0
10, 60864, Note_on_c, 9, 38, 127
10, 60864, Note_on_c, 9, 51, 104
10, 60899, Note_off_c, 9, 38, 0
10, 60900, Note_off_c, 9, 51, 0
10, 61056, Note_on_c, 9, 36, 127
10, 61056, Note_on_c, 9, 51, 110
10, 61088, Note_off_c, 9, 36, 0
10, 61091, Note_off_c, 9, 51, 0
10, 61152, Note_on_c, 9, 36, 127
10, 61188, Note_off_c, 9, 36, 0
10, 61248, Note_on_c, 9, 38, 127
10, 61268, Note_off_c, 9, 38, 0
10, 61296, Note_on_c, 9, 38, 127
10, 61321, Note_off_c, 9, 38, 0
10, 61344, Note_on_c, 9, 38, 127
10, 61363, Note_off_c, 9, 38, 0
10, 61440, Note_on_c, 9, 36, 122
10, 61440, Note_on_c, 9, 51, 76
10, 61486, Note_off_c, 9, 51, 0
10, 61486, Note_off_c, 9, 36, 0
10, 61536, Note_on_c, 9, 36, 108
10, 61582, Note_off_c, 9, 36, 0
10, 61632, Note_on_c, 9, 38, 127
10, 61632, Note_on_c, 9, 51, 71
10, 61678, Note_off_c, 9, 51, 0
10, 61678, Note_off_c, 9, 38, 0
10, 61824, Note_on_c, 9, 36, 108
10, 61824, Note_on_c, 9, 51, 80
10, 61870, Note_off_c, 9, 51, 0
10, 61870, Note_off_c, 9, 36, 0
10, 61920, Note_on_c, 9, 38, 122
10, 61966, Note_off_c, 9, 38, 0
10, 62016, Note_on_c, 9, 38, 113
10, 62062, Note_off_c, 9, 38, 0
10, 62112, Note_on_c, 9, 36, 127
10, 62112, Note_on_c, 9, 49, 80
10, 62158, Note_off_c, 9, 49, 0
10, 62158, Note_off_c, 9, 36, 0
10, 62208, Note_on_c, 9, 51, 43
10, 62254, Note_off_c, 9, 51, 0
10, 62304, Note_on_c, 9, 36, 83
10, 62350, Note_off_c, 9, 36, 0
10, 62400, Note_on_c, 9, 38, 113
10, 62400, Note_on_c, 9, 51, 83
10, 62446, Note_off_c, 9, 51, 0
10, 62446, Note_off_c, 9, 38, 0
10, 62592, Note_on_c, 9, 36, 122
10, 62592, Note_on_c, 9, 51, 71
10, 62638, Note_off_c, 9, 51, 0
10, 62638, Note_off_c, 9, 36, 0
10, 62688, Note_on_c, 9, 38, 127
10, 62734, Note_off_c, 9, 38, 0
10, 62784, Note_on_c, 9, 38, 127
10, 62784, Note_on_c, 9, 51, 80
10, 62830, Note_off_c, 9, 51, 0
10, 62830, Note_off_c, 9, 38, 0
10, 62880, Note_on_c, 9, 36, 127
10, 62880, Note_on_c, 9, 49, 95
10, 62926, Note_off_c, 9, 49, 0
10, 62926, Note_off_c, 9, 36, 0
10, 63168, Note_on_c, 9, 38, 127
10, 63214, Note_off_c, 9, 38, 0
10, 63264, Note_on_c, 9, 36, 122
10, 63310, Note_off_c, 9, 36, 0
10, 63360, Note_on_c, 9, 38, 127
10, 63406, Note_off_c, 9, 38, 0
10, 63456, Note_on_c, 9, 36, 117
10, 63502, Note_off_c, 9, 36, 0
10, 63552, Note_on_c, 9, 38, 127
10, 63598, Note_off_c, 9, 38, 0
10, 63648, Note_on_c, 9, 36, 104
10, 63694, Note_off_c, 9, 36, 0
10, 63744, Note_on_c, 9, 36, 127
10, 63744, Note_on_c, 9, 49, 71
10, 63744, Note_on_c, 9, 51, 110
10, 63776, Note_off_c, 9, 36, 0
10, 63782, Note_off_c, 9, 51, 0
10, 63785, Note_off_c, 9, 49, 0
10, 63840, Note_on_c, 9, 36, 127
10, 63875, Note_off_c, 9, 36, 0
10, 63936, Note_on_c, 9, 38, 127
10, 63936, Note_on_c, 9, 51, 104
10, 63971, Note_off_c, 9, 38, 0
10, 63980, Note_off_c, 9, 51, 0
10, 64128, Note_on_c, 9, 36, 127
10, 64128, Note_on_c, 9, 51, 104
10, 64160, Note_off_c, 9, 36, 0
10, 64171, Note_off_c, 9, 51, 0
10, 64224, Note_on_c, 9, 36, 127
10, 64260, Note_off_c, 9, 36, 0
10, 64320, Note_on_c, 9, 38, 127
10, 64340, Note_off_c, 9, 38, 0
10, 64368, Note_on_c, 9, 38, 127
10, 64393, Note_off_c, 9, 38, 0
10, 64416, Note_on_c, 9, 38, 127
10, 64435, Note_off_c, 9, 38, 0
10, 64512, Note_on_c, 9, 36, 127
10, 64512, Note_on_c, 9, 51, 104
10, 64544, Note_off_c, 9, 36, 0
10, 64548, Note_off_c, 9, 51, 0
10, 64608, Note_on_c, 9, 36, 127
10, 64643, Note_off_c, 9, 36, 0
10, 64704, Note_on_c, 9, 38, 127
10, 64704, Note_on_c, 9, 51, 104
10, 64739, Note_off_c, 9, 38, 0
10, 64740, Note_off_c, 9, 51, 0
10, 64896, Note_on_c, 9, 36, 127
10, 64896, Note_on_c, 9, 51, 110
10, 64928, Note_off_c, 9, 36, 0
10, 64931, Note_off_c, 9, 51, 0
10, 64992, Note_on_c, 9, 36, 127
10, 65028, Note_off_c, 9, 36, 0
10, 65088, Note_on_c, 9, 38, 127
10, 65108, Note_off_c, 9, 38, 0
10, 65136, Note_on_c, 9, 38, 127
10, 65161, Note_off_c, 9, 38, 0
10, 65184, Note_on_c, 9, 38, 127
10, 65203, Note_off_c, 9, 38, 0
10, 65280, Note_on_c, 9, 36, 122
10, 65280, Note_on_c, 9, 51, 76
10, 65315, Note_off_c, 9, 36, 0
10, 65328, Note_off_c, 9, 51, 0
10, 65376, Note_on_c, 9, 36, 108
10, 65406, Note_off_c, 9, 36, 0
10, 65472, Note_on_c, 9, 38, 127
10, 65472, Note_on_c, 9, 51, 71
10, 65508, Note_off_c, 9, 38, 0
10, 65532, Note_off_c, 9, 51, 0
10, 65664, Note_on_c, 9, 36, 108
10, 65664, Note_on_c, 9, 51, 80
10, 65696, Note_off_c, 9, 36, 0
10, 65704, Note_off_c, 9, 51, 0
10, 65760, Note_on_c, 9, 38, 122
10, 65790, Note_off_c, 9, 38, 0
10, 65856, Note_on_c, 9, 38, 113
10, 65883, Note_off_c, 9, 38, 0
10, 65952, Note_on_c, 9, 36, 127
10, 65952, Note_on_c, 9, 49, 80
10, 65976, Note_off_c, 9, 49, 0
10, 65985, Note_off_c, 9, 36, 0
10, 66048, Note_on_c, 9, 51, 43
10, 66080, Note_off_c, 9, 51, 0
10, 66144, Note_on_c, 9, 36, 83
10, 66184, Note_off_c, 9, 36, 0
10, 66240, Note_on_c, 9, 38, 113
10, 66240, Note_on_c, 9, 51, 83
10, 66280, Note_off_c, 9, 38, 0
10, 66289, Note_off_c, 9, 51, 0
10, 66432, Note_on_c, 9, 36, 122
10, 66432, Note_on_c, 9, 51, 71
10, 66456, Note_off_c, 9, 36, 0
10, 66476, Note_off_c, 9, 51, 0
10, 66528, Note_on_c, 9, 38, 127
10, 66561, Note_off_c, 9, 38, 0
10, 66624, Note_on_c, 9, 38, 127
10, 66624, Note_on_c, 9, 51, 80
10, 66648, Note_off_c, 9, 38, 0
10, 66659, Note_off_c, 9, 51, 0
10, 66720, Note_on_c, 9, 36, 127
10, 66720, Note_on_c, 9, 49, 95
10, 66748, Note_off_c, 9, 49, 0
10, 66748, Note_off_c, 9, 36, 0
10, 66912, Note_on_c, 9, 36, 127
10, 66942, Note_off_c, 9, 36, 0
10, 67008, Note_on_c, 9, 38, 127
10, 67040, Note_off_c, 9, 38, 0
10, 67200, Note_on_c, 9, 36, 97
10, 67200, Note_on_c, 9, 38, 117
10, 67200, Note_on_c, 9, 41, 81
10, 67200, Note_on_c, 9, 43, 94
10, 67228, Note_off_c, 9, 41, 0
10, 67236, Note_off_c, 9, 43, 0
10, 67244, Note_off_c, 9, 38, 0
10, 67249, Note_off_c, 9, 36, 0
10, 67392, Note_on_c, 9, 36, 88
10, 67392, Note_on_c, 9, 38, 104
10, 67392, Note_on_c, 9, 43, 113
10, 67427, Note_off_c, 9, 38, 0
10, 67428, Note_off_c, 9, 36, 0
10, 67430, Note_off_c, 9, 43, 0
10, 67584, Note_on_c, 9, 38, 127
10, 67584, Note_on_c, 9, 57, 63
10, 67625, Note_off_c, 9, 57, 0
10, 67627, Note_off_c, 9, 38, 0
10, 67680, Note_on_c, 9, 36, 108
10, 67712, Note_off_c, 9, 36, 0
10, 67776, Note_on_c, 9, 38, 127
10, 67776, Note_on_c, 9, 57, 66
10, 67820, Note_off_c, 9, 57, 0
10, 67820, Note_off_c, 9, 38, 0
10, 67872, Note_on_c, 9, 36, 108
10, 67907, Note_off_c, 9, 36, 0
10, 67968, Note_on_c, 9, 38, 127
10, 67968, Note_on_c, 9, 57, 60
10, 68012, Note_off_c, 9, 38, 0
10, 68016, Note_off_c, 9, 57, 0
10, 68064, Note_on_c, 9, 36, 113
10, 68096, Note_off_c, 9, 36, 0
10, 68160, Note_on_c, 9, 38, 127
10, 68160, Note_on_c, 9, 57, 59
10, 68193, Note_off_c, 9, 57, 0
10, 68204, Note_off_c, 9, 38, 0
10, 68256, Note_on_c, 9, 36, 122
10, 68286, Note_off_c, 9, 36, 0
10, 68352, Note_on_c, 9, 36, 101
10, 68352, Note_on_c, 9, 38, 127
10, 68352, Note_on_c, 9, 43, 79
10, 68379, Note_off_c, 9, 38, 0
10, 68390, Note_off_c, 9, 43, 0
10, 68395, Note_off_c, 9, 36, 0
10, 68448, Note_on_c, 9, 38, 88
10, 68448, Note_on_c, 9, 43, 71
10, 68476, Note_off_c, 9, 38, 0
10, 68489, Note_off_c, 9, 43, 0
10, 68544, Note_on_c, 9, 36, 108
10, 68544, Note_on_c, 9, 38, 83
10, 68544, Note_on_c, 9, 43, 68
10, 68574, Note_off_c, 9, 38, 0
10, 68587, Note_off_c, 9, 36, 0
10, 68590, Note_off_c, 9, 43, 0
10, 68640, Note_on_c, 9, 38, 97
10, 68640, Note_on_c, 9, 43, 73
10, 68668, Note_off_c, 9, 38, 0
10, 68692, Note_off_c, 9, 43, 0
10, 68736, Note_on_c, 9, 36, 108
10, 68736, Note_on_c, 9, 38, 108
10, 68736, Note_on_c, 9, 43, 71
10, 68766, Note_off_c, 9, 38, 0
10, 68780, Note_off_c, 9, 36, 0
10, 68782, Note_off_c, 9, 43, 0
10, 68832, Note_on_c, 9, 38, 122
10, 68832, Note_on_c, 9, 43, 81
10, 68860, Note_off_c, 9, 38, 0
10, 68873, Note_off_c, 9, 43, 0
10, 68928, Note_on_c, 9, 36, 117
10, 68928, Note_on_c, 9, 38, 117
10, 68928, Note_on_c, 9, 43, 86
10, 68955, Note_off_c, 9, 38, 0
10, 68964, Note_off_c, 9, 36, 0
10, 68968, Note_off_c, 9, 43, 0
10, 69024, Note_on_c, 9, 38, 127
10, 69024, Note_on_c, 9, 43, 81
10, 69052, Note_off_c, 9, 38, 0
10, 69056, Note_off_c, 9, 43, 0
10, 69120, Note_on_c, 9, 36, 110
10, 69120, Note_on_c, 9, 42, 110
10, 69123, Note_on_c, 9, 49, 80
10, 69148, Note_off_c, 9, 42, 0
10, 69150, Note_off_c, 9, 36, 0
10, 69156, Note_off_c, 9, 49, 0
10, 69216, Note_on_c, 9, 36, 108
10, 69216, Note_on_c, 9, 42, 95
10, 69238, Note_off_c, 9, 42, 0
10, 69246, Note_off_c, 9, 36, 0
10, 69305, Note_on_c, 9, 49, 50
10, 69312, Note_on_c, 9, 38, 127
10, 69312, Note_on_c, 9, 42, 110
10, 69345, Note_off_c, 9, 42, 0
10, 69350, Note_off_c, 9, 38, 0
10, 69357, Note_off_c, 9, 49, 0
10, 69408, Note_on_c, 9, 42, 100
10, 69428, Note_off_c, 9, 42, 0
10, 69504, Note_on_c, 9, 36, 110
10, 69504, Note_on_c, 9, 42, 110
10, 69532, Note_off_c, 9, 36, 0
10, 69539, Note_off_c, 9, 42, 0
10, 69600, Note_on_c, 9, 36, 105
10, 69600, Note_on_c, 9, 42, 100
10, 69625, Note_off_c, 9, 42, 0
10, 69625, Note_off_c, 9, 36, 0
10, 69694, Note_on_c, 9, 57, 63
10, 69696, Note_on_c, 9, 38, 127
10, 69696, Note_on_c, 9, 42, 110
10, 69728, Note_off_c, 9, 42, 0
10, 69734, Note_off_c, 9, 38, 0
10, 69762, Note_off_c, 9, 57, 0
10, 69792, Note_on_c, 9, 42, 100
10, 69816, Note_off_c, 9, 42, 0
10, 69888, Note_on_c, 9, 36, 110
10, 69888, Note_on_c, 9, 42, 110
10, 69916, Note_off_c, 9, 42, 0
10, 69918, Note_off_c, 9, 36, 0
10, 69984, Note_on_c, 9, 36, 108
10, 69984, Note_on_c, 9, 42, 95
10, 70006, Note_off_c, 9, 42, 0
10, 70014, Note_off_c, 9, 36, 0
10, 70073, Note_on_c, 9, 49, 50
10, 70080, Note_on_c, 9, 38, 127
10, 70080, Note_on_c, 9, 42, 110
10, 70113, Note_off_c, 9, 42, 0
10, 70118, Note_off_c, 9, 38, 0
10, 70125, Note_off_c, 9, 49, 0
10, 70176, Note_on_c, 9, 42, 100
10, 70196, Note_off_c, 9, 42, 0
10, 70272, Note_on_c, 9, 36, 110
10, 70272, Note_on_c, 9, 42, 110
10, 70300, Note_off_c, 9, 36, 0
10, 70307, Note_off_c, 9, 42, 0
10, 70368, Note_on_c, 9, 36, 105
10, 70368, Note_on_c, 9, 42, 100
10, 70393, Note_off_c, 9, 42, 0
10, 70393, Note_off_c, 9, 36, 0
10, 70462, Note_on_c, 9, 57, 63
10, 70464, Note_on_c, 9, 38, 127
10, 70464, Note_on_c, 9, 42, 110
10, 70496, Note_off_c, 9, 42, 0
10, 70502, Note_off_c, 9, 38, 0
10, 70530, Note_off_c, 9, 57, 0
10, 70560, Note_on_c, 9, 42, 100
10, 70584, Note_off_c, 9, 42, 0
10, 70656, Note_on_c, 9, 36, 110
10, 70656, Note_on_c, 9, 42, 110
10, 70684, Note_off_c, 9, 42, 0
10, 70686, Note_off_c, 9, 36, 0
10, 70752, Note_on_c, 9, 36, 108
10, 70752, Note_on_c, 9, 42, 95
10, 70774, Note_off_c, 9, 42, 0
10, 70782, Note_off_c, 9, 36, 0
10, 70841, Note_on_c, 9, 49, 50
10, 70848, Note_on_c, 9, 38, 127
10, 70848, Note_on_c, 9, 42, 110
10, 70881, Note_off_c, 9, 42, 0
10, 70886, Note_off_c, 9, 38, 0
10, 70893, Note_off_c, 9, 49, 0
10, 70944, Note_on_c, 9, 42, 100
10, 70964, Note_off_c, 9, 42, 0
10, 71040, Note_on_c, 9, 36, 110
10, 71040, Note_on_c, 9, 42, 110
10, 71068, Note_off_c, 9, 36, 0
10, 71075, Note_off_c, 9, 42, 0
10, 71136, Note_on_c, 9, 36, 105
10, 71136, Note_on_c, 9, 42, 100
10, 71161, Note_off_c, 9, 42, 0
10, 71161, Note_off_c, 9, 36, 0
10, 71230, Note_on_c, 9, 57, 63
10, 71232, Note_on_c, 9, 38, 127
10, 71232, Note_on_c, 9, 42, 110
10, 71264, Note_off_c, 9, 42, 0
10, 71270, Note_off_c, 9, 38, 0
10, 71298, Note_off_c, 9, 57, 0
10, 71328, Note_on_c, 9, 42, 100
10, 71352, Note_off_c, 9, 42, 0
10, 71424, Note_on_c, 9, 36, 110
10, 71424, Note_on_c, 9, 42, 110
10, 71452, Note_off_c, 9, 42, 0
10, 71454, Note_off_c, 9, 36, 0
10, 71520, Note_on_c, 9, 36, 108
10, 71520, Note_on_c, 9, 42, 95
10, 71542, Note_off_c, 9, 42, 0
10, 71550, Note_off_c, 9, 36, 0
10, 71609, Note_on_c, 9, 49, 50
10, 71616, Note_on_c, 9, 38, 127
10, 71616, Note_on_c, 9, 42, 110
10, 71649, Note_off_c, 9, 42, 0
10, 71654, Note_off_c, 9, 38, 0
10, 71661, Note_off_c, 9, 49, 0
10, 71712, Note_on_c, 9, 42, 100
10, 71732, Note_off_c, 9, 42, 0
10, 71808, Note_on_c, 9, 36, 110
10, 71808, Note_on_c, 9, 42, 110
10, 71836, Note_off_c, 9, 36, 0
10, 71843, Note_off_c, 9, 42, 0
10, 71904, Note_on_c, 9, 36, 105
10, 71904, Note_on_c, 9, 42, 100
10, 71929, Note_off_c, 9, 42, 0
10, 71929, Note_off_c, 9, 36, 0
10, 71998, Note_on_c, 9, 57, 63
10, 72000, Note_on_c, 9, 38, 127
10, 72000, Note_on_c, 9, 42, 110
10, 72032, Note_off_c, 9, 42, 0
10, 72038, Note_off_c, 9, 38, 0
10, 72066, Note_off_c, 9, 57, 0
10, 72096, Note_on_c, 9, 42, 100
10, 72120, Note_off_c, 9, 42, 0
10, 72192, Note_on_c, 9, 36, 110
10, 72192, Note_on_c, 9, 42, 110
10, 72195, Note_on_c, 9, 49, 80
10, 72220, Note_off_c, 9, 42, 0
10, 72222, Note_off_c, 9, 36, 0
10, 72228, Note_off_c, 9, 49, 0
10, 72288, Note_on_c, 9, 36, 108
10, 72288, Note_on_c, 9, 42, 95
10, 72310, Note_off_c, 9, 42, 0
10, 72318, Note_off_c, 9, 36, 0
10, 72377, Note_on_c, 9, 49, 50
10, 72384, Note_on_c, 9, 38, 127
10, 72384, Note_on_c, 9, 42, 110
10, 72417, Note_off_c, 9, 42, 0
10, 72422, Note_off_c, 9, 38, 0
10, 72429, Note_off_c, 9, 49, 0
10, 72480, Note_on_c, 9, 42, 100
10, 72500, Note_off_c, 9, 42, 0
10, 72576, Note_on_c, 9, 36, 110
10, 72576, Note_on_c, 9, 42, 110
10, 72604, Note_off_c, 9, 36, 0
10, 72611, Note_off_c, 9, 42, 0
10, 72672, Note_on_c, 9, 36, 105
10, 72672, Note_on_c, 9, 42, 100
10, 72697, Note_off_c, 9, 42, 0
10, 72697, Note_off_c, 9, 36, 0
10, 72766, Note_on_c, 9, 57, 63
10, 72768, Note_on_c, 9, 38, 127
10, 72768, Note_on_c, 9, 42, 110
10, 72800, Note_off_c, 9, 42, 0
10, 72806, Note_off_c, 9, 38, 0
10, 72834, Note_off_c, 9, 57, 0
10, 72864, Note_on_c, 9, 42, 100
10, 72888, Note_off_c, 9, 42, 0
10, 72960, Note_on_c, 9, 36, 110
10, 72960, Note_on_c, 9, 42, 110
10, 72988, Note_off_c, 9, 42, 0
10, 72990, Note_off_c, 9, 36, 0
10, 73056, Note_on_c, 9, 36, 108
10, 73056, Note_on_c, 9, 42, 95
10, 73078, Note_off_c, 9, 42, 0
10, 73086, Note_off_c, 9, 36, 0
10, 73145, Note_on_c, 9, 49, 50
10, 73152, Note_on_c, 9, 38, 127
10, 73152, Note_on_c, 9, 42, 110
10, 73185, Note_off_c, 9, 42, 0
10, 73190, Note_off_c, 9, 38, 0
10, 73197, Note_off_c, 9, 49, 0
10, 73248, Note_on_c, 9, 42, 100
10, 73268, Note_off_c, 9, 42, 0
10, 73344, Note_on_c, 9, 36, 110
10, 73344, Note_on_c, 9, 42, 110
10, 73372, Note_off_c, 9, 36, 0
10, 73379, Note_off_c, 9, 42, 0
10, 73440, Note_on_c, 9, 36, 105
10, 73440, Note_on_c, 9, 42, 100
10, 73465, Note_off_c, 9, 42, 0
10, 73465, Note_off_c, 9, 36, 0
10, 73534, Note_on_c, 9, 57, 63
10, 73536, Note_on_c, 9, 38, 127
10, 73536, Note_on_c, 9, 42, 110
10, 73568, Note_off_c, 9, 42, 0
10, 73574, Note_off_c, 9, 38, 0
10, 73602, Note_off_c, 9, 57, 0
10, 73632, Note_on_c, 9, 42, 100
10, 73656, Note_off_c, 9, 42, 0
10, 73728, Note_on_c, 9, 36, 110
10, 73728, Note_on_c, 9, 42, 110
10, 73756, Note_off_c, 9, 42, 0
10, 73758, Note_off_c, 9, 36, 0
10, 73824, Note_on_c, 9, 36, 108
10, 73824, Note_on_c, 9, 42, 95
10, 73846, Note_off_c, 9, 42, 0
10, 73854, Note_off_c, 9, 36, 0
10, 73913, Note_on_c, 9, 49, 50
10, 73920, Note_on_c, 9, 38, 127
10, 73920, Note_on_c, 9, 42, 110
10, 73953, Note_off_c, 9, 42, 0
10, 73958, Note_off_c, 9, 38, 0
10, 73965, Note_off_c, 9, 49, 0
10, 74016, Note_on_c, 9, 42, 100
10, 74036, Note_off_c, 9, 42, 0
10, 74112, Note_on_c, 9, 36, 110
10, 74112, Note_on_c, 9, 42, 110
10, 74140, Note_off_c, 9, 36, 0
10, 74147, Note_off_c, 9, 42, 0
10, 74208, Note_on_c, 9, 36, 105
10, 74208, Note_on_c, 9, 42, 100
10, 74233, Note_off_c, 9, 42, 0
10, 74233, Note_off_c, 9, 36, 0
10, 74302, Note_on_c, 9, 57, 63
10, 74304, Note_on_c, 9, 38, 127
10, 74304, Note_on_c, 9, 42, 110
10, 74336, Note_off_c, 9, 42, 0
10, 74342, Note_off_c, 9, 38, 0
10, 74370, Note_off_c, 9, 57, 0
10, 74400, Note_on_c, 9, 42, 100
10, 74424, Note_off_c, 9, 42, 0
10, 74496, Note_on_c, 9, 36, 110
10, 74496, Note_on_c, 9, 42, 110
10, 74524, Note_off_c, 9, 42, 0
10, 74526, Note_off_c, 9, 36, 0
10, 74592, Note_on_c, 9, 36, 108
10, 74592, Note_on_c, 9, 42, 95
10, 74614, Note_off_c, 9, 42, 0
10, 74622, Note_off_c, 9, 36, 0
10, 74681, Note_on_c, 9, 49, 50
10, 74688, Note_on_c, 9, 38, 127
10, 74688, Note_on_c, 9, 42, 110
10, 74721, Note_off_c, 9, 42, 0
10, 74726, Note_off_c, 9, 38, 0
10, 74733, Note_off_c, 9, 49, 0
10, 74784, Note_on_c, 9, 42, 100
10, 74804, Note_off_c, 9, 42, 0
10, 74880, Note_on_c, 9, 36, 110
10, 74880, Note_on_c, 9, 42, 110
10, 74908, Note_off_c, 9, 36, 0
10, 74915, Note_off_c, 9, 42, 0
10, 74976, Note_on_c, 9, 36, 105
10, 74976, Note_on_c, 9, 42, 100
10, 75001, Note_off_c, 9, 42, 0
10, 75001, Note_off_c, 9, 36, 0
10, 75070, Note_on_c, 9, 57, 63
10, 75072, Note_on_c, 9, 38, 127
10, 75072, Note_on_c, 9, 42, 110
10, 75104, Note_off_c, 9, 42, 0
10, 75110, Note_off_c, 9, 38, 0
10, 75138, Note_off_c, 9, 57, 0
10, 75168, Note_on_c, 9, 42, 100
10, 75192, Note_off_c, 9, 42, 0
10, 75264, Note_on_c, 9, 49, 40
10, 75265, Note_on_c, 9, 51, 110
10, 75273, Note_on_c, 9, 36, 113
10, 75303, Note_off_c, 9, 36, 0
10, 75311, Note_off_c, 9, 51, 0
10, 75329, Note_off_c, 9, 49, 0
10, 75369, Note_on_c, 9, 36, 108
10, 75401, Note_off_c, 9, 36, 0
10, 75465, Note_on_c, 9, 57, 67
10, 75467, Note_on_c, 9, 38, 127
10, 75470, Note_on_c, 9, 51, 110
10, 75500, Note_off_c, 9, 38, 0
10, 75518, Note_off_c, 9, 51, 0
10, 75527, Note_off_c, 9, 57, 0
10, 75563, Note_on_c, 9, 36, 113
10, 75593, Note_off_c, 9, 36, 0
10, 75656, Note_on_c, 9, 49, 57
10, 75660, Note_on_c, 9, 51, 110
10, 75665, Note_on_c, 9, 36, 122
10, 75703, Note_off_c, 9, 36, 0
10, 75703, Note_off_c, 9, 51, 0
10, 75712, Note_off_c, 9, 49, 0
10, 75760, Note_on_c, 9, 36, 117
10, 75795, Note_off_c, 9, 36, 0
10, 75851, Note_on_c, 9, 57, 63
10, 75857, Note_on_c, 9, 51, 110
10, 75864, Note_on_c, 9, 38, 127
10, 75895, Note_off_c, 9, 51, 0
10, 75905, Note_off_c, 9, 57, 0
10, 75905, Note_off_c, 9, 38, 0
10, 75958, Note_on_c, 9, 43, 127
10, 75978, Note_off_c, 9, 43, 0
10, 76049, Note_on_c, 9, 36, 127
10, 76049, Note_on_c, 9, 49, 71
10, 76084, Note_off_c, 9, 36, 0
10, 76095, Note_off_c, 9, 49, 0
10, 76095, End_track
11, 0, Start_track
11, 0, Title_t, "MELODY  "
11, 0, Channel_prefix, 11
11, 0, Control_c, 11, 7, 103
11, 0, Program_c, 11, 1
11, 7582, Note_on_c, 11, 69, 127
11, 7623, Note_off_c, 11, 69, 0
11, 7681, Note_on_c, 11, 73, 127
11, 7722, Note_off_c, 11, 73, 0
11, 7779, Note_on_c, 11, 73, 110
11, 7819, Note_off_c, 11, 73, 0
11, 7872, Note_on_c, 11, 71, 127
11, 7912, Note_off_c, 11, 71, 0
11, 7968, Note_on_c, 11, 69, 127
11, 8008, Note_off_c, 11, 69, 0
11, 8073, Note_on_c, 11, 71, 127
11, 8207, Note_off_c, 11, 71, 0
11, 8260, Note_on_c, 11, 71, 122
11, 8306, Note_off_c, 11, 71, 0
11, 8355, Note_on_c, 11, 69, 113
11, 8550, Note_on_c, 11, 66, 73
11, 8558, Note_off_c, 11, 69, 0
11, 8775, Note_off_c, 11, 66, 0
11, 8931, Note_on_c, 11, 66, 127
11, 8979, Note_off_c, 11, 66, 0
11, 9025, Note_on_c, 11, 69, 127
11, 9077, Note_off_c, 11, 69, 0
11, 9123, Note_on_c, 11, 71, 127
11, 9175, Note_off_c, 11, 71, 0
11, 9219, Note_on_c, 11, 73, 104
11, 9263, Note_off_c, 11, 73, 0
11, 9313, Note_on_c, 11, 73, 104
11, 9361, Note_off_c, 11, 73, 0
11, 9406, Note_on_c, 11, 71, 122
11, 9463, Note_off_c, 11, 71, 0
11, 9504, Note_on_c, 11, 69, 122
11, 9550, Note_off_c, 11, 69, 0
11, 9603, Note_on_c, 11, 71, 127
11, 9737, Note_off_c, 11, 71, 0
11, 9795, Note_on_c, 11, 71, 122
11, 9849, Note_off_c, 11, 71, 0
11, 9889, Note_on_c, 11, 69, 127
11, 10080, Note_on_c, 11, 66, 83
11, 10087, Note_off_c, 11, 69, 0
11, 10294, Note_off_c, 11, 66, 0
11, 10656, Note_on_c, 11, 62, 127
11, 10699, Note_off_c, 11, 62, 0
11, 10752, Note_on_c, 11, 62, 127
11, 10796, Note_off_c, 11, 62, 0
11, 10848, Note_on_c, 11, 62, 108
11, 10888, Note_off_c, 11, 62, 0
11, 10944, Note_on_c, 11, 62, 113
11, 11008, Note_off_c, 11, 62, 0
11, 11040, Note_on_c, 11, 62, 97
11, 11091, Note_off_c, 11, 62, 0
11, 11136, Note_on_c, 11, 73, 110
11, 11284, Note_off_c, 11, 73, 0
11, 11328, Note_on_c, 11, 68, 104
11, 11371, Note_off_c, 11, 68, 0
11, 11424, Note_on_c, 11, 68, 110
11, 11608, Note_off_c, 11, 68, 0
11, 11616, Note_on_c, 11, 69, 97
11, 11857, Note_off_c, 11, 69, 0
11, 12195, Note_on_c, 11, 69, 122
11, 12231, Note_off_c, 11, 69, 0
11, 12292, Note_on_c, 11, 73, 110
11, 12333, Note_off_c, 11, 73, 0
11, 12382, Note_on_c, 11, 73, 104
11, 12431, Note_off_c, 11, 73, 0
11, 12476, Note_on_c, 11, 71, 117
11, 12524, Note_off_c, 11, 71, 0
11, 12569, Note_on_c, 11, 69, 117
11, 12605, Note_off_c, 11, 69, 0
11, 12665, Note_on_c, 11, 71, 117
11, 12786, Note_off_c, 11, 71, 0
11, 12849, Note_on_c, 11, 69, 122
11, 12901, Note_off_c, 11, 69, 0
11, 12958, Note_on_c, 11, 69, 127
11, 13454, Note_off_c, 11, 69, 0
11, 13632, Note_on_c, 11, 69, 127
11, 13670, Note_off_c, 11, 69, 0
11, 13728, Note_on_c, 11, 71, 117
11, 13764, Note_off_c, 11, 71, 0
11, 13824, Note_on_c, 11, 73, 104
11, 13865, Note_off_c, 11, 73, 0
11, 13920, Note_on_c, 11, 73, 110
11, 13960, Note_off_c, 11, 73, 0
11, 14016, Note_on_c, 11, 71, 113
11, 14056, Note_off_c, 11, 71, 0
11, 14112, Note_on_c, 11, 69, 117
11, 14153, Note_off_c, 11, 69, 0
11, 14208, Note_on_c, 11, 71, 122
11, 14337, Note_off_c, 11, 71, 0
11, 14400, Note_on_c, 11, 71, 108
11, 14448, Note_off_c, 11, 71, 0
11, 14496, Note_on_c, 11, 69, 101
11, 14684, Note_off_c, 11, 69, 0
11, 14688, Note_on_c, 11, 66, 87
11, 14875, Note_off_c, 11, 66, 0
11, 15072, Note_on_c, 11, 69, 108
11, 15123, Note_off_c, 11, 69, 0
11, 15168, Note_on_c, 11, 69, 108
11, 15212, Note_off_c, 11, 69, 0
11, 15264, Note_on_c, 11, 71, 113
11, 15307, Note_off_c, 11, 71, 0
11, 15360, Note_on_c, 11, 73, 104
11, 15398, Note_off_c, 11, 73, 0
11, 15456, Note_on_c, 11, 73, 104
11, 15499, Note_off_c, 11, 73, 0
11, 15552, Note_on_c, 11, 71, 108
11, 15596, Note_off_c, 11, 71, 0
11, 15648, Note_on_c, 11, 69, 117
11, 15699, Note_off_c, 11, 69, 0
11, 15744, Note_on_c, 11, 71, 113
11, 15884, Note_off_c, 11, 71, 0
11, 15936, Note_on_c, 11, 71, 108
11, 15990, Note_off_c, 11, 71, 0
11, 16032, Note_on_c, 11, 69, 104
11, 16211, Note_off_c, 11, 69, 0
11, 16224, Note_on_c, 11, 66, 80
11, 16363, Note_off_c, 11, 66, 0
11, 16608, Note_on_c, 11, 61, 110
11, 16644, Note_off_c, 11, 61, 0
11, 16704, Note_on_c, 11, 61, 127
11, 16740, Note_off_c, 11, 61, 0
11, 16800, Note_on_c, 11, 61, 127
11, 16848, Note_off_c, 11, 61, 0
11, 16896, Note_on_c, 11, 62, 127
11, 16944, Note_off_c, 11, 62, 0
11, 16992, Note_on_c, 11, 62, 127
11, 17041, Note_off_c, 11, 62, 0
11, 17088, Note_on_c, 11, 62, 127
11, 17145, Note_off_c, 11, 62, 0
11, 17184, Note_on_c, 11, 62, 127
11, 17249, Note_off_c, 11, 62, 0
11, 17280, Note_on_c, 11, 73, 110
11, 17428, Note_off_c, 11, 73, 0
11, 17472, Note_on_c, 11, 68, 104
11, 17521, Note_off_c, 11, 68, 0
11, 17568, Note_on_c, 11, 68, 110
11, 17760, Note_on_c, 11, 69, 122
11, 17768, Note_off_c, 11, 68, 0
11, 17881, Note_off_c, 11, 69, 0
11, 18142, Note_on_c, 11, 69, 127
11, 18175, Note_off_c, 11, 69, 0
11, 18241, Note_on_c, 11, 71, 127
11, 18372, Note_off_c, 11, 71, 0
11, 18433, Note_on_c, 11, 73, 110
11, 18471, Note_off_c, 11, 73, 0
11, 18534, Note_on_c, 11, 73, 110
11, 18578, Note_off_c, 11, 73, 0
11, 18632, Note_on_c, 11, 71, 117
11, 18673, Note_off_c, 11, 71, 0
11, 18721, Note_on_c, 11, 69, 117
11, 18767, Note_off_c, 11, 69, 0
11, 18824, Note_on_c, 11, 71, 127
11, 18897, Note_off_c, 11, 71, 0
11, 18958, Note_on_c, 11, 69, 127
11, 19030, Note_off_c, 11, 69, 0
11, 19102, Note_on_c, 11, 69, 127
11, 19188, Note_off_c, 11, 69, 0
11, 19276, Note_on_c, 11, 69, 127
11, 19493, Note_off_c, 11, 69, 0
11, 19678, Note_on_c, 11, 73, 95
11, 19705, Note_off_c, 11, 73, 0
11, 19772, Note_on_c, 11, 73, 104
11, 19813, Note_off_c, 11, 73, 0
11, 19971, Note_on_c, 11, 73, 104
11, 19999, Note_off_c, 11, 73, 0
11, 20070, Note_on_c, 11, 73, 100
11, 20102, Note_off_c, 11, 73, 0
11, 20160, Note_on_c, 11, 71, 108
11, 20193, Note_off_c, 11, 71, 0
11, 20260, Note_on_c, 11, 69, 117
11, 20287, Note_off_c, 11, 69, 0
11, 20360, Note_on_c, 11, 71, 122
11, 20492, Note_off_c, 11, 71, 0
11, 20550, Note_on_c, 11, 69, 108
11, 20570, Note_off_c, 11, 69, 0
11, 20648, Note_on_c, 11, 69, 117
11, 20787, Note_off_c, 11, 69, 0
11, 20835, Note_on_c, 11, 66, 100
11, 20972, Note_off_c, 11, 66, 0
11, 21312, Note_on_c, 11, 69, 122
11, 21345, Note_off_c, 11, 69, 0
11, 21411, Note_on_c, 11, 71, 104
11, 21439, Note_off_c, 11, 71, 0
11, 21512, Note_on_c, 11, 73, 104
11, 21540, Note_off_c, 11, 73, 0
11, 21609, Note_on_c, 11, 73, 100
11, 21634, Note_off_c, 11, 73, 0
11, 21702, Note_on_c, 11, 71, 113
11, 21727, Note_off_c, 11, 71, 0
11, 21793, Note_on_c, 11, 69, 122
11, 21818, Note_off_c, 11, 69, 0
11, 21896, Note_on_c, 11, 71, 122
11, 22020, Note_off_c, 11, 71, 0
11, 22080, Note_on_c, 11, 69, 108
11, 22102, Note_off_c, 11, 69, 0
11, 22179, Note_on_c, 11, 69, 113
11, 22307, Note_off_c, 11, 69, 0
11, 22363, Note_on_c, 11, 66, 100
11, 22534, Note_off_c, 11, 66, 0
11, 22563, Note_on_c, 11, 64, 127
11, 22595, Note_off_c, 11, 64, 0
11, 22664, Note_on_c, 11, 64, 127
11, 22699, Note_off_c, 11, 64, 0
11, 22758, Note_on_c, 11, 64, 127
11, 22908, Note_off_c, 11, 64, 0
11, 22948, Note_on_c, 11, 81, 117
11, 23264, Note_off_c, 11, 81, 0
11, 23328, Note_on_c, 11, 73, 104
11, 23369, Note_off_c, 11, 73, 0
11, 23424, Note_on_c, 11, 72, 127
11, 23486, Note_off_c, 11, 72, 0
11, 23520, Note_on_c, 11, 73, 95
11, 23622, Note_off_c, 11, 73, 0
11, 23712, Note_on_c, 11, 81, 117
11, 24052, Note_off_c, 11, 81, 0
11, 24096, Note_on_c, 11, 73, 100
11, 24144, Note_off_c, 11, 73, 0
11, 24192, Note_on_c, 11, 72, 122
11, 24254, Note_off_c, 11, 72, 0
11, 24288, Note_on_c, 11, 73, 95
11, 24388, Note_off_c, 11, 73, 0
11, 24480, Note_on_c, 11, 81, 113
11, 24803, Note_off_c, 11, 81, 0
11, 24960, Note_on_c, 11, 73, 110
11, 25105, Note_off_c, 11, 73, 0
11, 25152, Note_on_c, 11, 76, 108
11, 25193, Note_off_c, 11, 76, 0
11, 25248, Note_on_c, 11, 73, 104
11, 25336, Note_off_c, 11, 73, 0
11, 25440, Note_on_c, 11, 71, 122
11, 25571, Note_off_c, 11, 71, 0
11, 25635, Note_on_c, 11, 73, 110
11, 25670, Note_off_c, 11, 73, 0
11, 25732, Note_on_c, 11, 73, 110
11, 25874, Note_off_c, 11, 73, 0
11, 25921, Note_on_c, 11, 76, 101
11, 25962, Note_off_c, 11, 76, 0
11, 26017, Note_on_c, 11, 73, 110
11, 26124, Note_off_c, 11, 73, 0
11, 26203, Note_on_c, 11, 71, 117
11, 26401, Note_off_c, 11, 71, 0
11, 26403, Note_on_c, 11, 71, 127
11, 26484, Note_off_c, 11, 71, 0
11, 26497, Note_on_c, 11, 64, 127
11, 26652, Note_off_c, 11, 64, 0
11, 26691, Note_on_c, 11, 64, 127
11, 26830, Note_off_c, 11, 64, 0
11, 26881, Note_on_c, 11, 76, 127
11, 27056, Pitch_bend_c, 11, 8191
11, 27067, Pitch_bend_c, 11, 7662
11, 27075, Pitch_bend_c, 11, 7398
11, 27084, Pitch_bend_c, 11, 6869
11, 27097, Pitch_bend_c, 11, 6341
11, 27113, Pitch_bend_c, 11, 5812
11, 27126, Pitch_bend_c, 11, 5548
11, 27144, Pitch_bend_c, 11, 4756
11, 27155, Pitch_bend_c, 11, 4227
11, 27166, Pitch_bend_c, 11, 3170
11, 27184, Pitch_bend_c, 11, 4227
11, 27195, Pitch_bend_c, 11, 6869
11, 27196, Note_off_c, 11, 76, 0
11, 27204, Pitch_bend_c, 11, 8191
11, 27212, Pitch_bend_c, 11, 8192
11, 27267, Note_on_c, 11, 72, 127
11, 27316, Note_off_c, 11, 72, 0
11, 27369, Note_on_c, 11, 73, 110
11, 27421, Note_off_c, 11, 73, 0
11, 27552, Note_on_c, 11, 76, 127
11, 27820, Pitch_bend_c, 11, 7926
11, 27832, Pitch_bend_c, 11, 7398
11, 27843, Pitch_bend_c, 11, 6341
11, 27854, Pitch_bend_c, 11, 4756
11, 27865, Pitch_bend_c, 11, 3699
11, 27876, Pitch_bend_c, 11, 5812
11, 27883, Note_off_c, 11, 76, 0
11, 27889, Pitch_bend_c, 11, 7926
11, 27900, Pitch_bend_c, 11, 8192
11, 27928, Note_on_c, 11, 73, 110
11, 27982, Note_off_c, 11, 73, 0
11, 28027, Note_on_c, 11, 72, 127
11, 28131, Note_off_c, 11, 72, 0
11, 28220, Note_on_c, 11, 73, 104
11, 28264, Note_off_c, 11, 73, 0
11, 28318, Note_on_c, 11, 76, 127
11, 28529, Pitch_bend_c, 11, 8191
11, 28540, Pitch_bend_c, 11, 7662
11, 28560, Pitch_bend_c, 11, 7398
11, 28571, Pitch_bend_c, 11, 7134
11, 28582, Pitch_bend_c, 11, 6869
11, 28593, Pitch_bend_c, 11, 6605
11, 28606, Pitch_bend_c, 11, 6341
11, 28617, Pitch_bend_c, 11, 5812
11, 28628, Pitch_bend_c, 11, 5284
11, 28640, Pitch_bend_c, 11, 4756
11, 28656, Pitch_bend_c, 11, 4227
11, 28668, Pitch_bend_c, 11, 3963
11, 28686, Pitch_bend_c, 11, 5284
11, 28697, Pitch_bend_c, 11, 7662
11, 28703, Note_off_c, 11, 76, 0
11, 28710, Pitch_bend_c, 11, 8192
11, 28824, Note_on_c, 11, 73, 110
11, 28873, Note_off_c, 11, 73, 0
11, 28915, Note_on_c, 11, 76, 127
11, 29011, Note_off_c, 11, 76, 0
11, 29084, Note_on_c, 11, 73, 110
11, 29204, Note_off_c, 11, 73, 0
11, 29281, Note_on_c, 11, 71, 127
11, 29423, Note_off_c, 11, 71, 0
11, 29472, Note_on_c, 11, 73, 110
11, 29510, Note_off_c, 11, 73, 0
11, 29569, Note_on_c, 11, 73, 127
11, 29685, Note_off_c, 11, 73, 0
11, 29756, Note_on_c, 11, 76, 127
11, 29821, Note_off_c, 11, 76, 0
11, 29872, Note_on_c, 11, 73, 127
11, 29980, Note_off_c, 11, 73, 0
11, 30051, Note_on_c, 11, 71, 127
11, 30169, Note_off_c, 11, 71, 0
11, 30246, Note_on_c, 11, 64, 127
11, 30385, Note_off_c, 11, 64, 0
11, 30440, Note_on_c, 11, 64, 127
11, 30481, Note_off_c, 11, 64, 0
11, 30526, Note_on_c, 11, 64, 127
11, 30569, Note_off_c, 11, 64, 0
11, 30622, Note_on_c, 11, 64, 127
11, 30666, Note_off_c, 11, 64, 0
11, 30721, Note_on_c, 11, 71, 127
11, 30770, Note_off_c, 11, 71, 0
11, 30817, Note_on_c, 11, 71, 127
11, 30863, Note_off_c, 11, 71, 0
11, 30910, Note_on_c, 11, 71, 127
11, 30958, Note_off_c, 11, 71, 0
11, 31001, Note_on_c, 11, 71, 127
11, 31047, Note_off_c, 11, 71, 0
11, 31092, Note_on_c, 11, 71, 127
11, 31138, Note_off_c, 11, 71, 0
11, 31188, Note_on_c, 11, 71, 127
11, 31237, Note_off_c, 11, 71, 0
11, 31286, Note_on_c, 11, 71, 127
11, 31337, Note_off_c, 11, 71, 0
11, 31384, Note_on_c, 11, 71, 127
11, 31433, Note_off_c, 11, 71, 0
11, 31486, Note_on_c, 11, 72, 127
11, 31529, Note_off_c, 11, 72, 0
11, 31572, Note_on_c, 11, 72, 127
11, 31615, Note_off_c, 11, 72, 0
11, 31665, Note_on_c, 11, 72, 127
11, 31706, Note_off_c, 11, 72, 0
11, 31769, Note_on_c, 11, 72, 127
11, 31809, Note_off_c, 11, 72, 0
11, 31867, Note_on_c, 11, 72, 127
11, 32009, Note_off_c, 11, 72, 0
11, 32059, Note_on_c, 11, 68, 110
11, 32118, Note_off_c, 11, 68, 0
11, 32164, Note_on_c, 11, 69, 127
11, 32259, Note_on_c, 11, 73, 104
11, 32287, Note_off_c, 11, 73, 0
11, 32288, Note_off_c, 11, 69, 0
11, 32358, Note_on_c, 11, 73, 100
11, 32390, Note_off_c, 11, 73, 0
11, 32448, Note_on_c, 11, 71, 108
11, 32481, Note_off_c, 11, 71, 0
11, 32548, Note_on_c, 11, 69, 117
11, 32575, Note_off_c, 11, 69, 0
11, 32648, Note_on_c, 11, 71, 122
11, 32780, Note_off_c, 11, 71, 0
11, 32838, Note_on_c, 11, 69, 108
11, 32858, Note_off_c, 11, 69, 0
11, 32936, Note_on_c, 11, 69, 117
11, 33075, Note_off_c, 11, 69, 0
11, 33123, Note_on_c, 11, 66, 100
11, 33260, Note_off_c, 11, 66, 0
11, 33600, Note_on_c, 11, 69, 122
11, 33633, Note_off_c, 11, 69, 0
11, 33699, Note_on_c, 11, 71, 104
11, 33727, Note_off_c, 11, 71, 0
11, 33800, Note_on_c, 11, 73, 104
11, 33828, Note_off_c, 11, 73, 0
11, 33897, Note_on_c, 11, 73, 100
11, 33922, Note_off_c, 11, 73, 0
11, 33990, Note_on_c, 11, 71, 113
11, 34015, Note_off_c, 11, 71, 0
11, 34081, Note_on_c, 11, 69, 122
11, 34106, Note_off_c, 11, 69, 0
11, 34184, Note_on_c, 11, 71, 122
11, 34308, Note_off_c, 11, 71, 0
11, 34368, Note_on_c, 11, 69, 108
11, 34390, Note_off_c, 11, 69, 0
11, 34467, Note_on_c, 11, 69, 113
11, 34595, Note_off_c, 11, 69, 0
11, 35035, Note_on_c, 11, 69, 127
11, 35070, Note_off_c, 11, 69, 0
11, 35123, Note_on_c, 11, 69, 127
11, 35169, Note_off_c, 11, 69, 0
11, 35227, Note_on_c, 11, 71, 127
11, 35265, Note_off_c, 11, 71, 0
11, 35328, Note_on_c, 11, 73, 127
11, 35371, Note_off_c, 11, 73, 0
11, 35427, Note_on_c, 11, 73, 127
11, 35473, Note_off_c, 11, 73, 0
11, 35521, Note_on_c, 11, 71, 127
11, 35564, Note_off_c, 11, 71, 0
11, 35611, Note_on_c, 11, 69, 127
11, 35652, Note_off_c, 11, 69, 0
11, 35713, Note_on_c, 11, 71, 127
11, 35821, Note_off_c, 11, 71, 0
11, 35892, Note_on_c, 11, 69, 127
11, 35933, Note_off_c, 11, 69, 0
11, 35993, Note_on_c, 11, 69, 127
11, 36162, Note_off_c, 11, 69, 0
11, 36188, Note_on_c, 11, 66, 104
11, 36327, Note_off_c, 11, 66, 0
11, 36572, Note_on_c, 11, 69, 127
11, 36608, Note_off_c, 11, 69, 0
11, 36667, Note_on_c, 11, 69, 127
11, 36713, Note_off_c, 11, 69, 0
11, 36760, Note_on_c, 11, 71, 127
11, 36798, Note_off_c, 11, 71, 0
11, 36856, Note_on_c, 11, 73, 127
11, 36902, Note_off_c, 11, 73, 0
11, 36956, Note_on_c, 11, 73, 110
11, 37000, Note_off_c, 11, 73, 0
11, 37052, Note_on_c, 11, 71, 127
11, 37095, Note_off_c, 11, 71, 0
11, 37145, Note_on_c, 11, 69, 127
11, 37188, Note_off_c, 11, 69, 0
11, 37248, Note_on_c, 11, 71, 127
11, 37360, Note_off_c, 11, 71, 0
11, 37430, Note_on_c, 11, 69, 127
11, 37474, Note_off_c, 11, 69, 0
11, 37534, Note_on_c, 11, 69, 127
11, 37703, Note_off_c, 11, 69, 0
11, 37723, Note_on_c, 11, 66, 110
11, 37894, Note_off_c, 11, 66, 0
11, 38196, Note_on_c, 11, 61, 127
11, 38234, Note_off_c, 11, 61, 0
11, 38291, Note_on_c, 11, 61, 110
11, 38345, Note_off_c, 11, 61, 0
11, 38385, Note_on_c, 11, 62, 127
11, 38433, Note_off_c, 11, 62, 0
11, 38488, Note_on_c, 11, 62, 127
11, 38531, Note_off_c, 11, 62, 0
11, 38592, Note_on_c, 11, 62, 127
11, 38638, Note_off_c, 11, 62, 0
11, 38691, Note_on_c, 11, 62, 127
11, 38731, Note_off_c, 11, 62, 0
11, 38790, Note_on_c, 11, 73, 110
11, 38876, Note_off_c, 11, 73, 0
11, 38929, Note_on_c, 11, 68, 110
11, 39007, Note_off_c, 11, 68, 0
11, 39068, Note_on_c, 11, 68, 127
11, 39149, Note_off_c, 11, 68, 0
11, 39212, Note_on_c, 11, 68, 127
11, 39344, Note_on_c, 11, 69, 104
11, 39348, Note_off_c, 11, 68, 0
11, 39507, Note_off_c, 11, 69, 0
11, 39649, Note_on_c, 11, 69, 127
11, 39687, Note_off_c, 11, 69, 0
11, 39737, Note_on_c, 11, 69, 127
11, 39789, Note_off_c, 11, 69, 0
11, 39836, Note_on_c, 11, 71, 127
11, 39879, Note_off_c, 11, 71, 0
11, 39934, Note_on_c, 11, 73, 127
11, 39975, Note_off_c, 11, 73, 0
11, 40032, Note_on_c, 11, 73, 104
11, 40080, Note_off_c, 11, 73, 0
11, 40126, Note_on_c, 11, 71, 122
11, 40174, Note_off_c, 11, 71, 0
11, 40220, Note_on_c, 11, 69, 127
11, 40276, Note_off_c, 11, 69, 0
11, 40329, Note_on_c, 11, 71, 127
11, 40391, Note_off_c, 11, 71, 0
11, 40464, Note_on_c, 11, 69, 127
11, 40531, Note_off_c, 11, 69, 0
11, 40616, Note_on_c, 11, 69, 127
11, 40700, Note_off_c, 11, 69, 0
11, 40873, Note_on_c, 11, 73, 110
11, 41362, Note_off_c, 11, 73, 0
11, 41475, Note_on_c, 11, 73, 104
11, 41503, Note_off_c, 11, 73, 0
11, 41574, Note_on_c, 11, 73, 100
11, 41606, Note_off_c, 11, 73, 0
11, 41664, Note_on_c, 11, 71, 108
11, 41697, Note_off_c, 11, 71, 0
11, 41764, Note_on_c, 11, 69, 117
11, 41791, Note_off_c, 11, 69, 0
11, 41864, Note_on_c, 11, 71, 122
11, 41996, Note_off_c, 11, 71, 0
11, 42054, Note_on_c, 11, 69, 108
11, 42074, Note_off_c, 11, 69, 0
11, 42152, Note_on_c, 11, 69, 117
11, 42291, Note_off_c, 11, 69, 0
11, 42339, Note_on_c, 11, 66, 100
11, 42476, Note_off_c, 11, 66, 0
11, 42816, Note_on_c, 11, 69, 122
11, 42849, Note_off_c, 11, 69, 0
11, 42915, Note_on_c, 11, 71, 104
11, 42943, Note_off_c, 11, 71, 0
11, 43016, Note_on_c, 11, 73, 104
11, 43044, Note_off_c, 11, 73, 0
11, 43113, Note_on_c, 11, 73, 100
11, 43138, Note_off_c, 11, 73, 0
11, 43206, Note_on_c, 11, 71, 113
11, 43231, Note_off_c, 11, 71, 0
11, 43297, Note_on_c, 11, 69, 122
11, 43322, Note_off_c, 11, 69, 0
11, 43400, Note_on_c, 11, 71, 122
11, 43524, Note_off_c, 11, 71, 0
11, 43584, Note_on_c, 11, 69, 108
11, 43606, Note_off_c, 11, 69, 0
11, 43683, Note_on_c, 11, 69, 113
11, 43811, Note_off_c, 11, 69, 0
11, 43867, Note_on_c, 11, 66, 100
11, 44038, Note_off_c, 11, 66, 0
11, 44067, Note_on_c, 11, 64, 127
11, 44099, Note_off_c, 11, 64, 0
11, 44168, Note_on_c, 11, 64, 127
11, 44203, Note_off_c, 11, 64, 0
11, 44262, Note_on_c, 11, 64, 127
11, 44412, Note_off_c, 11, 64, 0
11, 44452, Note_on_c, 11, 81, 117
11, 44768, Note_off_c, 11, 81, 0
11, 44833, Note_on_c, 11, 73, 127
11, 44884, Note_off_c, 11, 73, 0
11, 44923, Note_on_c, 11, 72, 127
11, 44982, Note_off_c, 11, 72, 0
11, 45027, Note_on_c, 11, 73, 104
11, 45140, Note_off_c, 11, 73, 0
11, 45204, Note_on_c, 11, 81, 104
11, 45437, Note_off_c, 11, 81, 0
11, 45603, Note_on_c, 11, 73, 104
11, 45647, Note_off_c, 11, 73, 0
11, 45699, Note_on_c, 11, 72, 127
11, 45756, Note_off_c, 11, 72, 0
11, 45803, Note_on_c, 11, 73, 104
11, 45878, Note_off_c, 11, 73, 0
11, 45972, Note_on_c, 11, 81, 122
11, 46172, Note_off_c, 11, 81, 0
11, 46278, Note_on_c, 11, 73, 127
11, 46314, Note_off_c, 11, 73, 0
11, 46379, Note_on_c, 11, 73, 127
11, 46603, Note_off_c, 11, 73, 0
11, 46649, Note_on_c, 11, 73, 104
11, 46706, Note_off_c, 11, 73, 0
11, 46755, Note_on_c, 11, 73, 110
11, 46894, Note_off_c, 11, 73, 0
11, 46947, Note_on_c, 11, 71, 127
11, 47094, Note_off_c, 11, 71, 0
11, 47238, Note_on_c, 11, 73, 110
11, 47377, Note_off_c, 11, 73, 0
11, 47424, Note_on_c, 11, 76, 113
11, 47478, Note_off_c, 11, 76, 0
11, 47524, Note_on_c, 11, 73, 110
11, 47666, Note_off_c, 11, 73, 0
11, 47712, Note_on_c, 11, 71, 127
11, 47859, Note_off_c, 11, 71, 0
11, 47998, Note_on_c, 11, 64, 127
11, 48047, Note_off_c, 11, 64, 0
11, 48097, Note_on_c, 11, 64, 127
11, 48234, Note_off_c, 11, 64, 0
11, 48291, Note_on_c, 11, 81, 127
11, 48582, Note_off_c, 11, 81, 0
11, 48673, Note_on_c, 11, 73, 104
11, 48717, Note_off_c, 11, 73, 0
11, 48766, Note_on_c, 11, 72, 127
11, 48911, Note_off_c, 11, 72, 0
11, 48958, Note_on_c, 11, 73, 100
11, 49022, Note_off_c, 11, 73, 0
11, 49059, Note_on_c, 11, 81, 113
11, 49315, Note_off_c, 11, 81, 0
11, 49441, Note_on_c, 11, 73, 104
11, 49487, Note_off_c, 11, 73, 0
11, 49536, Note_on_c, 11, 72, 127
11, 49641, Note_off_c, 11, 72, 0
11, 49716, Note_on_c, 11, 73, 100
11, 49778, Note_off_c, 11, 73, 0
11, 49825, Note_on_c, 11, 81, 108
11, 50013, Note_off_c, 11, 81, 0
11, 50108, Note_on_c, 11, 73, 110
11, 50165, Note_off_c, 11, 73, 0
11, 50216, Note_on_c, 11, 73, 110
11, 50427, Note_off_c, 11, 73, 0
11, 50484, Note_on_c, 11, 76, 113
11, 50535, Note_off_c, 11, 76, 0
11, 50595, Note_on_c, 11, 73, 104
11, 50694, Note_off_c, 11, 73, 0
11, 50771, Note_on_c, 11, 71, 122
11, 50873, Note_off_c, 11, 71, 0
11, 50952, Note_on_c, 11, 73, 100
11, 50992, Note_off_c, 11, 73, 0
11, 51062, Note_on_c, 11, 73, 110
11, 51124, Note_off_c, 11, 73, 0
11, 51177, Note_on_c, 11, 76, 117
11, 51268, Note_off_c, 11, 76, 0
11, 51356, Note_on_c, 11, 73, 110
11, 51450, Note_off_c, 11, 73, 0
11, 51544, Note_on_c, 11, 71, 127
11, 51657, Note_off_c, 11, 71, 0
11, 51744, Note_on_c, 11, 64, 110
11, 51870, Note_off_c, 11, 64, 0
11, 51944, Note_on_c, 11, 64, 127
11, 51985, Note_off_c, 11, 64, 0
11, 52030, Note_on_c, 11, 64, 127
11, 52073, Note_off_c, 11, 64, 0
11, 52126, Note_on_c, 11, 64, 127
11, 52170, Note_off_c, 11, 64, 0
11, 52225, Note_on_c, 11, 71, 127
11, 52274, Note_off_c, 11, 71, 0
11, 52321, Note_on_c, 11, 71, 127
11, 52367, Note_off_c, 11, 71, 0
11, 52414, Note_on_c, 11, 71, 127
11, 52462, Note_off_c, 11, 71, 0
11, 52505, Note_on_c, 11, 71, 127
11, 52551, Note_off_c, 11, 71, 0
11, 52596, Note_on_c, 11, 71, 127
11, 52642, Note_off_c, 11, 71, 0
11, 52692, Note_on_c, 11, 71, 127
11, 52741, Note_off_c, 11, 71, 0
11, 52790, Note_on_c, 11, 71, 127
11, 52841, Note_off_c, 11, 71, 0
11, 52888, Note_on_c, 11, 71, 127
11, 52937, Note_off_c, 11, 71, 0
11, 52990, Note_on_c, 11, 72, 127
11, 53033, Note_off_c, 11, 72, 0
11, 53076, Note_on_c, 11, 72, 127
11, 53119, Note_off_c, 11, 72, 0
11, 53169, Note_on_c, 11, 72, 127
11, 53210, Note_off_c, 11, 72, 0
11, 53273, Note_on_c, 11, 72, 127
11, 53313, Note_off_c, 11, 72, 0
11, 53371, Note_on_c, 11, 72, 127
11, 53513, Note_off_c, 11, 72, 0
11, 53563, Note_on_c, 11, 68, 110
11, 53622, Note_off_c, 11, 68, 0
11, 53668, Note_on_c, 11, 69, 127
11, 53792, Note_off_c, 11, 69, 0
11, 59416, Note_on_c, 11, 73, 110
11, 59460, Note_off_c, 11, 73, 0
11, 59512, Note_on_c, 11, 72, 127
11, 59566, Note_off_c, 11, 72, 0
11, 59619, Note_on_c, 11, 73, 110
11, 59743, Note_off_c, 11, 73, 0
11, 59795, Note_on_c, 11, 81, 127
11, 59974, Note_off_c, 11, 81, 0
11, 60192, Note_on_c, 11, 73, 104
11, 60233, Note_off_c, 11, 73, 0
11, 60288, Note_on_c, 11, 72, 127
11, 60350, Note_off_c, 11, 72, 0
11, 60384, Note_on_c, 11, 73, 95
11, 60486, Note_off_c, 11, 73, 0
11, 60576, Note_on_c, 11, 81, 117
11, 60916, Note_off_c, 11, 81, 0
11, 60960, Note_on_c, 11, 73, 100
11, 61008, Note_off_c, 11, 73, 0
11, 61056, Note_on_c, 11, 72, 122
11, 61118, Note_off_c, 11, 72, 0
11, 61152, Note_on_c, 11, 73, 95
11, 61252, Note_off_c, 11, 73, 0
11, 61344, Note_on_c, 11, 81, 113
11, 61667, Note_off_c, 11, 81, 0
11, 61824, Note_on_c, 11, 73, 110
11, 61969, Note_off_c, 11, 73, 0
11, 62016, Note_on_c, 11, 76, 108
11, 62057, Note_off_c, 11, 76, 0
11, 62112, Note_on_c, 11, 73, 104
11, 62200, Note_off_c, 11, 73, 0
11, 62304, Note_on_c, 11, 71, 122
11, 62435, Note_off_c, 11, 71, 0
11, 62499, Note_on_c, 11, 73, 110
11, 62534, Note_off_c, 11, 73, 0
11, 62596, Note_on_c, 11, 73, 110
11, 62738, Note_off_c, 11, 73, 0
11, 62785, Note_on_c, 11, 76, 101
11, 62826, Note_off_c, 11, 76, 0
11, 62881, Note_on_c, 11, 73, 110
11, 62988, Note_off_c, 11, 73, 0
11, 63067, Note_on_c, 11, 71, 117
11, 63265, Note_off_c, 11, 71, 0
11, 63358, Note_on_c, 11, 64, 127
11, 63407, Note_off_c, 11, 64, 0
11, 63457, Note_on_c, 11, 64, 127
11, 63594, Note_off_c, 11, 64, 0
11, 63651, Note_on_c, 11, 81, 127
11, 63942, Note_off_c, 11, 81, 0
11, 64033, Note_on_c, 11, 73, 104
11, 64077, Note_off_c, 11, 73, 0
11, 64126, Note_on_c, 11, 72, 127
11, 64271, Note_off_c, 11, 72, 0
11, 64318, Note_on_c, 11, 73, 100
11, 64382, Note_off_c, 11, 73, 0
11, 64419, Note_on_c, 11, 81, 113
11, 64675, Note_off_c, 11, 81, 0
11, 64801, Note_on_c, 11, 73, 104
11, 64847, Note_off_c, 11, 73, 0
11, 64896, Note_on_c, 11, 72, 127
11, 65001, Note_off_c, 11, 72, 0
11, 65076, Note_on_c, 11, 73, 100
11, 65138, Note_off_c, 11, 73, 0
11, 65185, Note_on_c, 11, 81, 108
11, 65373, Note_off_c, 11, 81, 0
11, 65468, Note_on_c, 11, 73, 110
11, 65525, Note_off_c, 11, 73, 0
11, 65576, Note_on_c, 11, 73, 110
11, 65787, Note_off_c, 11, 73, 0
11, 65844, Note_on_c, 11, 76, 113
11, 65895, Note_off_c, 11, 76, 0
11, 65955, Note_on_c, 11, 73, 104
11, 66054, Note_off_c, 11, 73, 0
11, 66131, Note_on_c, 11, 71, 122
11, 66233, Note_off_c, 11, 71, 0
11, 66312, Note_on_c, 11, 73, 100
11, 66352, Note_off_c, 11, 73, 0
11, 66422, Note_on_c, 11, 73, 110
11, 66484, Note_off_c, 11, 73, 0
11, 66537, Note_on_c, 11, 76, 117
11, 66628, Note_off_c, 11, 76, 0
11, 66716, Note_on_c, 11, 73, 110
11, 66810, Note_off_c, 11, 73, 0
11, 66904, Note_on_c, 11, 71, 127
11, 67017, Note_off_c, 11, 71, 0
11, 67104, Note_on_c, 11, 64, 110
11, 67230, Note_off_c, 11, 64, 0
11, 67304, Note_on_c, 11, 64, 127
11, 67345, Note_off_c, 11, 64, 0
11, 67390, Note_on_c, 11, 64, 127
11, 67433, Note_off_c, 11, 64, 0
11, 67486, Note_on_c, 11, 64, 127
11, 67530, Note_off_c, 11, 64, 0
11, 67585, Note_on_c, 11, 71, 127
11, 67634, Note_off_c, 11, 71, 0
11, 67681, Note_on_c, 11, 71, 127
11, 67727, Note_off_c, 11, 71, 0
11, 67774, Note_on_c, 11, 71, 127
11, 67822, Note_off_c, 11, 71, 0
11, 67865, Note_on_c, 11, 71, 127
11, 67911, Note_off_c, 11, 71, 0
11, 67956, Note_on_c, 11, 71, 127
11, 68002, Note_off_c, 11, 71, 0
11, 68052, Note_on_c, 11, 71, 127
11, 68101, Note_off_c, 11, 71, 0
11, 68150, Note_on_c, 11, 71, 127
11, 68201, Note_off_c, 11, 71, 0
11, 68248, Note_on_c, 11, 71, 127
11, 68297, Note_off_c, 11, 71, 0
11, 68350, Note_on_c, 11, 72, 127
11, 68393, Note_off_c, 11, 72, 0
11, 68436, Note_on_c, 11, 72, 127
11, 68479, Note_off_c, 11, 72, 0
11, 68529, Note_on_c, 11, 72, 127
11, 68570, Note_off_c, 11, 72, 0
11, 68633, Note_on_c, 11, 72, 127
11, 68673, Note_off_c, 11, 72, 0
11, 68731, Note_on_c, 11, 72, 127
11, 68873, Note_off_c, 11, 72, 0
11, 68923, Note_on_c, 11, 68, 110
11, 68982, Note_off_c, 11, 68, 0
11, 69028, Note_on_c, 11, 69, 127
11, 69123, Note_on_c, 11, 73, 104
11, 69151, Note_off_c, 11, 73, 0
11, 69152, Note_off_c, 11, 69, 0
11, 69222, Note_on_c, 11, 73, 100
11, 69254, Note_off_c, 11, 73, 0
11, 69312, Note_on_c, 11, 71, 108
11, 69345, Note_off_c, 11, 71, 0
11, 69412, Note_on_c, 11, 69, 117
11, 69439, Note_off_c, 11, 69, 0
11, 69512, Note_on_c, 11, 71, 122
11, 69644, Note_off_c, 11, 71, 0
11, 69702, Note_on_c, 11, 69, 108
11, 69722, Note_off_c, 11, 69, 0
11, 69800, Note_on_c, 11, 69, 117
11, 69939, Note_off_c, 11, 69, 0
11, 69987, Note_on_c, 11, 66, 100
11, 70124, Note_off_c, 11, 66, 0
11, 70464, Note_on_c, 11, 69, 122
11, 70497, Note_off_c, 11, 69, 0
11, 70563, Note_on_c, 11, 71, 104
11, 70591, Note_off_c, 11, 71, 0
11, 70664, Note_on_c, 11, 73, 104
11, 70692, Note_off_c, 11, 73, 0
11, 70761, Note_on_c, 11, 73, 100
11, 70786, Note_off_c, 11, 73, 0
11, 70854, Note_on_c, 11, 71, 113
11, 70879, Note_off_c, 11, 71, 0
11, 70945, Note_on_c, 11, 69, 122
11, 70970, Note_off_c, 11, 69, 0
11, 71048, Note_on_c, 11, 71, 122
11, 71172, Note_off_c, 11, 71, 0
11, 71232, Note_on_c, 11, 69, 108
11, 71254, Note_off_c, 11, 69, 0
11, 71331, Note_on_c, 11, 69, 113
11, 71459, Note_off_c, 11, 69, 0
11, 71515, Note_on_c, 11, 66, 100
11, 71686, Note_off_c, 11, 66, 0
11, 72195, Note_on_c, 11, 73, 104
11, 72223, Note_off_c, 11, 73, 0
11, 72294, Note_on_c, 11, 73, 100
11, 72326, Note_off_c, 11, 73, 0
11, 72384, Note_on_c, 11, 71, 108
11, 72417, Note_off_c, 11, 71, 0
11, 72484, Note_on_c, 11, 69, 117
11, 72511, Note_off_c, 11, 69, 0
11, 72584, Note_on_c, 11, 71, 122
11, 72716, Note_off_c, 11, 71, 0
11, 72774, Note_on_c, 11, 69, 108
11, 72794, Note_off_c, 11, 69, 0
11, 72872, Note_on_c, 11, 69, 117
11, 73011, Note_off_c, 11, 69, 0
11, 73059, Note_on_c, 11, 66, 100
11, 73196, Note_off_c, 11, 66, 0
11, 73536, Note_on_c, 11, 69, 122
11, 73569, Note_off_c, 11, 69, 0
11, 73635, Note_on_c, 11, 71, 104
11, 73663, Note_off_c, 11, 71, 0
11, 73721, Note_on_c, 11, 73, 110
11, 73754, Note_off_c, 11, 73, 0
11, 73820, Note_on_c, 11, 73, 110
11, 73858, Note_off_c, 11, 73, 0
11, 73916, Note_on_c, 11, 71, 127
11, 73954, Note_off_c, 11, 71, 0
11, 74006, Note_on_c, 11, 69, 108
11, 74052, Note_off_c, 11, 69, 0
11, 74110, Note_on_c, 11, 71, 127
11, 74236, Note_off_c, 11, 71, 0
11, 74304, Note_on_c, 11, 69, 117
11, 74368, Note_off_c, 11, 69, 0
11, 74396, Note_on_c, 11, 71, 91
11, 74432, Note_off_c, 11, 71, 0
11, 74488, Note_on_c, 11, 72, 122
11, 74534, Note_off_c, 11, 72, 0
11, 74580, Note_on_c, 11, 72, 117
11, 74629, Note_off_c, 11, 72, 0
11, 74683, Note_on_c, 11, 71, 127
11, 74732, Note_off_c, 11, 71, 0
11, 74774, Note_on_c, 11, 69, 108
11, 74825, Note_off_c, 11, 69, 0
11, 74875, Note_on_c, 11, 71, 127
11, 75007, Note_off_c, 11, 71, 0
11, 75067, Note_on_c, 11, 69, 127
11, 75139, Note_off_c, 11, 69, 0
11, 75262, Note_on_c, 11, 72, 127
11, 75310, Note_off_c, 11, 72, 0
11, 75356, Note_on_c, 11, 72, 122
11, 75407, Note_off_c, 11, 72, 0
11, 75452, Note_on_c, 11, 71, 127
11, 75501, Note_off_c, 11, 71, 0
11, 75544, Note_on_c, 11, 69, 117
11, 75595, Note_off_c, 11, 69, 0
11, 75644, Note_on_c, 11, 66, 110
11, 75788, Note_off_c, 11, 66, 0
11, 75849, Note_on_c, 11, 64, 122
11, 75973, Note_off_c, 11, 64, 0
11, 75973, End_track
0, 0, End_of_file
