0, 0, Header, 1, 4, 720
1, 0, Start_track
1, 0, Tempo, 357142
1, 11520, Tempo, 357142
1, 11520, End_track
2, 0, Start_track
2, 0, Control_c, 0, 7, 127
2, 0, Program_c, 0, 30
2, 0, Control_c, 0, 101, 0
2, 0, Control_c, 0, 100, 0
2, 0, Control_c, 0, 6, 24
2, 0, Control_c, 1, 7, 127
2, 0, Program_c, 1, 30
2, 0, Control_c, 1, 101, 0
2, 0, Control_c, 1, 100, 0
2, 0, Control_c, 1, 6, 24
2, 0, Note_on_c, 0, 45, 104
2, 0, Note_on_c, 0, 52, 104
2, 0, Note_on_c, 0, 57, 104
2, 0, Note_on_c, 0, 61, 104
2, 0, Note_on_c, 0, 64, 104
2, 720, Note_off_c, 0, 64, 0
2, 720, Note_off_c, 0, 61, 0
2, 720, Note_off_c, 0, 57, 0
2, 720, Note_off_c, 0, 52, 0
2, 720, Note_off_c, 0, 45, 0
2, 720, Note_on_c, 0, 45, 104
2, 720, Note_on_c, 0, 52, 104
2, 720, Note_on_c, 0, 57, 104
2, 720, Note_on_c, 0, 61, 104
2, 720, Note_on_c, 0, 64, 104
2, 1440, Note_off_c, 0, 64, 0
2, 1440, Note_off_c, 0, 61, 0
2, 1440, Note_off_c, 0, 57, 0
2, 1440, Note_off_c, 0, 52, 0
2, 1440, Note_off_c, 0, 45, 0
2, 1440, Note_on_c, 0, 45, 104
2, 1440, Note_on_c, 0, 52, 104
2, 1440, Note_on_c, 0, 57, 104
2, 1440, Note_on_c, 0, 61, 104
2, 1440, Note_on_c, 0, 64, 104
2, 2160, Note_off_c, 0, 64, 0
2, 2160, Note_off_c, 0, 61, 0
2, 2160, Note_off_c, 0, 57, 0
2, 2160, Note_off_c, 0, 52, 0
2, 2160, Note_off_c, 0, 45, 0
2, 2160, Note_on_c, 0, 45, 104
2, 2160, Note_on_c, 0, 52, 104
2, 2160, Note_on_c, 0, 57, 104
2, 2160, Note_on_c, 0, 61, 104
2, 2160, Note_on_c, 0, 64, 104
2, 2520, Note_off_c, 0, 64, 0
2, 2520, Note_off_c, 0, 61, 0
2, 2520, Note_off_c, 0, 57, 0
2, 2520, Note_off_c, 0, 52, 0
2, 2520, Note_off_c, 0, 45, 0
2, 2520, Note_on_c, 0, 44, 104
2, 2520, Note_on_c, 0, 45, 104
2, 2520, Note_on_c, 0, 52, 104
2, 2520, Note_on_c, 0, 57, 104
2, 2520, Note_on_c, 0, 61, 104
2, 3240, Note_off_c, 0, 61, 0
2, 3240, Note_off_c, 0, 57, 0
2, 3240, Note_off_c, 0, 52, 0
2, 3240, Note_off_c, 0, 45, 0
2, 3240, Note_off_c, 0, 44, 0
2, 3240, Note_on_c, 0, 44, 104
2, 3240, Note_on_c, 0, 45, 104
2, 3240, Note_on_c, 0, 52, 104
2, 3240, Note_on_c, 0, 57, 104
2, 3240, Note_on_c, 0, 61, 104
2, 3600, Note_off_c, 0, 61, 0
2, 3600, Note_off_c, 0, 57, 0
2, 3600, Note_off_c, 0, 52, 0
2, 3600, Note_off_c, 0, 45, 0
2, 3600, Note_off_c, 0, 44, 0
2, 3600, Note_on_c, 0, 44, 104
2, 3600, Note_on_c, 0, 45, 104
2, 3600, Note_on_c, 0, 52, 104
2, 3600, Note_on_c, 0, 57, 104
2, 3600, Note_on_c, 0, 61, 104
2, 3960, Note_off_c, 0, 61, 0
2, 3960, Note_off_c, 0, 57, 0
2, 3960, Note_off_c, 0, 52, 0
2, 3960, Note_off_c, 0, 45, 0
2, 3960, Note_off_c, 0, 44, 0
2, 3960, Note_on_c, 0, 44, 104
2, 3960, Note_on_c, 0, 45, 104
2, 3960, Note_on_c, 0, 52, 104
2, 3960, Note_on_c, 0, 57, 104
2, 3960, Note_on_c, 0, 61, 104
2, 4320, Note_off_c, 0, 61, 0
2, 4320, Note_off_c, 0, 57, 0
2, 4320, Note_off_c, 0, 52, 0
2, 4320, Note_off_c, 0, 45, 0
2, 4320, Note_off_c, 0, 44, 0
2, 4320, Note_on_c, 0, 44, 104
2, 4320, Note_on_c, 0, 45, 104
2, 4320, Note_on_c, 0, 52, 104
2, 4320, Note_on_c, 0, 57, 104
2, 4320, Note_on_c, 0, 61, 104
2, 4680, Note_off_c, 0, 61, 0
2, 4680, Note_off_c, 0, 57, 0
2, 4680, Note_off_c, 0, 52, 0
2, 4680, Note_off_c, 0, 45, 0
2, 4680, Note_off_c, 0, 44, 0
2, 5760, Note_on_c, 0, 50, 104
2, 5760, Note_on_c, 0, 57, 104
2, 5760, Note_on_c, 0, 62, 104
2, 5760, Note_on_c, 0, 66, 104
2, 6480, Note_off_c, 0, 66, 0
2, 6480, Note_off_c, 0, 62, 0
2, 6480, Note_off_c, 0, 57, 0
2, 6480, Note_off_c, 0, 50, 0
2, 6480, Note_on_c, 0, 50, 104
2, 6480, Note_on_c, 0, 57, 104
2, 6480, Note_on_c, 0, 62, 104
2, 6480, Note_on_c, 0, 66, 104
2, 7200, Note_off_c, 0, 66, 0
2, 7200, Note_off_c, 0, 62, 0
2, 7200, Note_off_c, 0, 57, 0
2, 7200, Note_off_c, 0, 50, 0
2, 7200, Note_on_c, 0, 50, 104
2, 7200, Note_on_c, 0, 57, 104
2, 7200, Note_on_c, 0, 62, 104
2, 7200, Note_on_c, 0, 66, 104
2, 7920, Note_off_c, 0, 66, 0
2, 7920, Note_off_c, 0, 62, 0
2, 7920, Note_off_c, 0, 57, 0
2, 7920, Note_off_c, 0, 50, 0
2, 7920, Note_on_c, 0, 50, 104
2, 7920, Note_on_c, 0, 57, 104
2, 7920, Note_on_c, 0, 62, 104
2, 7920, Note_on_c, 0, 66, 104
2, 8280, Note_off_c, 0, 66, 0
2, 8280, Note_off_c, 0, 62, 0
2, 8280, Note_off_c, 0, 57, 0
2, 8280, Note_off_c, 0, 50, 0
2, 8280, Note_on_c, 0, 50, 104
2, 8280, Note_on_c, 0, 57, 104
2, 8280, Note_on_c, 0, 62, 104
2, 8280, Note_on_c, 0, 66, 104
2, 9000, Note_off_c, 0, 66, 0
2, 9000, Note_off_c, 0, 62, 0
2, 9000, Note_off_c, 0, 57, 0
2, 9000, Note_off_c, 0, 50, 0
2, 9000, Note_on_c, 0, 57, 104
2, 9360, Note_off_c, 0, 57, 0
2, 9360, Note_on_c, 0, 59, 104
2, 9720, Note_off_c, 0, 59, 0
2, 9720, Note_on_c, 0, 57, 104
2, 10080, Note_off_c, 0, 57, 0
2, 10080, Note_on_c, 0, 59, 104
2, 10440, Note_off_c, 0, 59, 0
2, 10440, Note_on_c, 0, 57, 104
2, 10800, Note_off_c, 0, 57, 0
2, 10800, Note_on_c, 0, 55, 104
2, 11520, Note_off_c, 0, 55, 0
2, 11520, Note_on_c, 0, 45, 104
2, 11520, Note_on_c, 0, 52, 104
2, 11520, Note_on_c, 0, 57, 104
2, 11520, Note_on_c, 0, 61, 104
2, 11520, Note_on_c, 0, 64, 104
2, 12240, Note_off_c, 0, 64, 0
2, 12240, Note_off_c, 0, 61, 0
2, 12240, Note_off_c, 0, 57, 0
2, 12240, Note_off_c, 0, 52, 0
2, 12240, Note_off_c, 0, 45, 0
2, 12240, Note_on_c, 0, 45, 104
2, 12240, Note_on_c, 0, 52, 104
2, 12240, Note_on_c, 0, 57, 104
2, 12240, Note_on_c, 0, 61, 104
2, 12240, Note_on_c, 0, 64, 104
2, 12960, Note_off_c, 0, 64, 0
2, 12960, Note_off_c, 0, 61, 0
2, 12960, Note_off_c, 0, 57, 0
2, 12960, Note_off_c, 0, 52, 0
2, 12960, Note_off_c, 0, 45, 0
2, 12960, Note_on_c, 0, 45, 104
2, 12960, Note_on_c, 0, 52, 104
2, 12960, Note_on_c, 0, 57, 104
2, 12960, Note_on_c, 0, 61, 104
2, 12960, Note_on_c, 0, 64, 104
2, 13680, Note_off_c, 0, 64, 0
2, 13680, Note_off_c, 0, 61, 0
2, 13680, Note_off_c, 0, 57, 0
2, 13680, Note_off_c, 0, 52, 0
2, 13680, Note_off_c, 0, 45, 0
2, 13680, Note_on_c, 0, 45, 104
2, 13680, Note_on_c, 0, 52, 104
2, 13680, Note_on_c, 0, 57, 104
2, 13680, Note_on_c, 0, 61, 104
2, 13680, Note_on_c, 0, 64, 104
2, 14040, Note_off_c, 0, 64, 0
2, 14040, Note_off_c, 0, 61, 0
2, 14040, Note_off_c, 0, 57, 0
2, 14040, Note_off_c, 0, 52, 0
2, 14040, Note_off_c, 0, 45, 0
2, 14040, Note_on_c, 0, 44, 104
2, 14040, Note_on_c, 0, 45, 104
2, 14040, Note_on_c, 0, 52, 104
2, 14040, Note_on_c, 0, 57, 104
2, 14040, Note_on_c, 0, 61, 104
2, 14760, Note_off_c, 0, 61, 0
2, 14760, Note_off_c, 0, 57, 0
2, 14760, Note_off_c, 0, 52, 0
2, 14760, Note_off_c, 0, 45, 0
2, 14760, Note_off_c, 0, 44, 0
2, 14760, Note_on_c, 0, 44, 104
2, 14760, Note_on_c, 0, 45, 104
2, 14760, Note_on_c, 0, 52, 104
2, 14760, Note_on_c, 0, 57, 104
2, 14760, Note_on_c, 0, 61, 104
2, 15120, Note_off_c, 0, 61, 0
2, 15120, Note_off_c, 0, 57, 0
2, 15120, Note_off_c, 0, 52, 0
2, 15120, Note_off_c, 0, 45, 0
2, 15120, Note_off_c, 0, 44, 0
2, 15120, Note_on_c, 0, 44, 104
2, 15120, Note_on_c, 0, 45, 104
2, 15120, Note_on_c, 0, 52, 104
2, 15120, Note_on_c, 0, 57, 104
2, 15120, Note_on_c, 0, 61, 104
2, 15480, Note_off_c, 0, 61, 0
2, 15480, Note_off_c, 0, 57, 0
2, 15480, Note_off_c, 0, 52, 0
2, 15480, Note_off_c, 0, 45, 0
2, 15480, Note_off_c, 0, 44, 0
2, 15480, Note_on_c, 0, 44, 104
2, 15480, Note_on_c, 0, 45, 104
2, 15480, Note_on_c, 0, 52, 104
2, 15480, Note_on_c, 0, 57, 104
2, 15480, Note_on_c, 0, 61, 104
2, 15840, Note_off_c, 0, 61, 0
2, 15840, Note_off_c, 0, 57, 0
2, 15840, Note_off_c, 0, 52, 0
2, 15840, Note_off_c, 0, 45, 0
2, 15840, Note_off_c, 0, 44, 0
2, 15840, Note_on_c, 0, 44, 104
2, 15840, Note_on_c, 0, 45, 104
2, 15840, Note_on_c, 0, 52, 104
2, 15840, Note_on_c, 0, 57, 104
2, 15840, Note_on_c, 0, 61, 104
2, 16200, Note_off_c, 0, 61, 0
2, 16200, Note_off_c, 0, 57, 0
2, 16200, Note_off_c, 0, 52, 0
2, 16200, Note_off_c, 0, 45, 0
2, 16200, Note_off_c, 0, 44, 0
2, 17280, Note_on_c, 0, 50, 104
2, 17280, Note_on_c, 0, 57, 104
2, 17280, Note_on_c, 0, 62, 104
2, 17280, Note_on_c, 0, 66, 104
2, 18000, Note_off_c, 0, 66, 0
2, 18000, Note_off_c, 0, 62, 0
2, 18000, Note_off_c, 0, 57, 0
2, 18000, Note_off_c, 0, 50, 0
2, 18000, Note_on_c, 0, 50, 104
2, 18000, Note_on_c, 0, 57, 104
2, 18000, Note_on_c, 0, 62, 104
2, 18000, Note_on_c, 0, 66, 104
2, 18720, Note_off_c, 0, 66, 0
2, 18720, Note_off_c, 0, 62, 0
2, 18720, Note_off_c, 0, 57, 0
2, 18720, Note_off_c, 0, 50, 0
2, 18720, Note_on_c, 0, 50, 104
2, 18720, Note_on_c, 0, 57, 104
2, 18720, Note_on_c, 0, 62, 104
2, 18720, Note_on_c, 0, 66, 104
2, 19440, Note_off_c, 0, 66, 0
2, 19440, Note_off_c, 0, 62, 0
2, 19440, Note_off_c, 0, 57, 0
2, 19440, Note_off_c, 0, 50, 0
2, 19440, Note_on_c, 0, 50, 104
2, 19440, Note_on_c, 0, 57, 104
2, 19440, Note_on_c, 0, 62, 104
2, 19440, Note_on_c, 0, 66, 104
2, 19800, Note_off_c, 0, 66, 0
2, 19800, Note_off_c, 0, 62, 0
2, 19800, Note_off_c, 0, 57, 0
2, 19800, Note_off_c, 0, 50, 0
2, 19800, Note_on_c, 0, 50, 104
2, 19800, Note_on_c, 0, 57, 104
2, 19800, Note_on_c, 0, 62, 104
2, 19800, Note_on_c, 0, 66, 104
2, 20520, Note_off_c, 0, 66, 0
2, 20520, Note_off_c, 0, 62, 0
2, 20520, Note_off_c, 0, 57, 0
2, 20520, Note_off_c, 0, 50, 0
2, 20520, Note_on_c, 0, 57, 104
2, 20880, Note_off_c, 0, 57, 0
2, 20880, Note_on_c, 0, 59, 104
2, 21240, Note_off_c, 0, 59, 0
2, 21240, Note_on_c, 0, 57, 104
2, 21600, Note_off_c, 0, 57, 0
2, 21600, Note_on_c, 0, 59, 104
2, 21960, Note_off_c, 0, 59, 0
2, 21960, Note_on_c, 0, 57, 104
2, 22320, Note_off_c, 0, 57, 0
2, 22320, Note_on_c, 0, 55, 104
2, 23040, Note_off_c, 0, 55, 0
2, 92160, Note_on_c, 0, 57, 104
2, 92880, Note_off_c, 0, 57, 0
2, 92880, Note_on_c, 0, 61, 104
2, 93600, Note_off_c, 0, 61, 0
2, 93600, Note_on_c, 0, 64, 104
2, 94320, Note_off_c, 0, 64, 0
2, 94320, Note_on_c, 0, 61, 104
2, 94680, Note_off_c, 0, 61, 0
2, 94680, Note_on_c, 0, 56, 104
2, 95760, Note_off_c, 0, 56, 0
2, 95760, Note_on_c, 0, 61, 104
2, 96480, Note_off_c, 0, 61, 0
2, 96480, Note_on_c, 0, 52, 104
2, 97200, Note_off_c, 0, 52, 0
2, 97200, Note_on_c, 0, 61, 104
2, 97920, Note_off_c, 0, 61, 0
2, 97920, Note_on_c, 0, 64, 104
2, 98640, Note_off_c, 0, 64, 0
2, 98640, Note_on_c, 0, 61, 104
2, 99000, Note_off_c, 0, 61, 0
2, 99000, Note_on_c, 0, 59, 104
2, 99360, Note_off_c, 0, 59, 0
2, 99360, Note_on_c, 0, 57, 104
2, 100440, Note_off_c, 0, 57, 0
2, 100440, Note_on_c, 0, 57, 104
2, 100800, Note_off_c, 0, 57, 0
2, 100800, Note_on_c, 0, 56, 104
2, 101160, Note_off_c, 0, 56, 0
2, 101160, Note_on_c, 0, 57, 104
2, 101520, Note_off_c, 0, 57, 0
2, 101520, Note_on_c, 0, 64, 104
2, 102240, Note_off_c, 0, 64, 0
2, 102240, Note_on_c, 0, 56, 104
2, 102960, Note_off_c, 0, 56, 0
2, 102960, Note_on_c, 0, 59, 104
2, 104400, Note_off_c, 0, 59, 0
2, 104400, Note_on_c, 0, 54, 104
2, 106920, Note_off_c, 0, 54, 0
2, 106920, Note_on_c, 0, 57, 104
2, 107280, Note_off_c, 0, 57, 0
2, 107280, Note_on_c, 0, 59, 104
2, 107640, Note_off_c, 0, 59, 0
2, 107640, Note_on_c, 0, 57, 104
2, 108000, Note_off_c, 0, 57, 0
2, 108000, Note_on_c, 0, 59, 104
2, 108360, Note_off_c, 0, 59, 0
2, 108360, Note_on_c, 0, 57, 104
2, 108720, Note_off_c, 0, 57, 0
2, 108720, Note_on_c, 0, 55, 104
2, 109440, Note_off_c, 0, 55, 0
2, 109440, Note_on_c, 0, 57, 104
2, 110160, Note_off_c, 0, 57, 0
2, 110160, Note_on_c, 0, 61, 104
2, 110880, Note_off_c, 0, 61, 0
2, 110880, Note_on_c, 0, 64, 104
2, 111600, Note_off_c, 0, 64, 0
2, 111600, Note_on_c, 0, 61, 104
2, 111960, Note_off_c, 0, 61, 0
2, 111960, Note_on_c, 0, 56, 104
2, 113040, Note_off_c, 0, 56, 0
2, 113040, Note_on_c, 0, 61, 104
2, 113760, Note_off_c, 0, 61, 0
2, 113760, Note_on_c, 0, 52, 104
2, 114480, Note_off_c, 0, 52, 0
2, 114480, Note_on_c, 0, 61, 104
2, 115200, Note_off_c, 0, 61, 0
2, 115200, Note_on_c, 0, 64, 104
2, 115920, Note_off_c, 0, 64, 0
2, 115920, Note_on_c, 0, 61, 104
2, 116280, Note_off_c, 0, 61, 0
2, 116280, Note_on_c, 0, 59, 104
2, 116640, Note_off_c, 0, 59, 0
2, 116640, Note_on_c, 0, 57, 104
2, 117720, Note_off_c, 0, 57, 0
2, 117720, Note_on_c, 0, 57, 104
2, 118080, Note_off_c, 0, 57, 0
2, 118080, Note_on_c, 0, 56, 104
2, 118440, Note_off_c, 0, 56, 0
2, 118440, Note_on_c, 0, 57, 104
2, 118800, Note_off_c, 0, 57, 0
2, 118800, Note_on_c, 0, 64, 104
2, 119520, Note_off_c, 0, 64, 0
2, 119520, Note_on_c, 0, 56, 104
2, 120240, Note_off_c, 0, 56, 0
2, 120240, Note_on_c, 0, 59, 104
2, 121680, Note_off_c, 0, 59, 0
2, 121680, Note_on_c, 0, 54, 104
2, 124200, Note_off_c, 0, 54, 0
2, 124200, Note_on_c, 0, 57, 104
2, 124560, Note_off_c, 0, 57, 0
2, 124560, Note_on_c, 0, 59, 104
2, 124920, Note_off_c, 0, 59, 0
2, 124920, Note_on_c, 0, 57, 104
2, 125280, Note_off_c, 0, 57, 0
2, 125280, Note_on_c, 0, 59, 104
2, 125640, Note_off_c, 0, 59, 0
2, 125640, Note_on_c, 0, 57, 104
2, 126000, Note_off_c, 0, 57, 0
2, 126000, Note_on_c, 0, 55, 104
2, 126720, Note_off_c, 0, 55, 0
2, 126720, Note_on_c, 0, 57, 104
2, 129600, Note_off_c, 0, 57, 0
2, 178560, Note_on_c, 0, 57, 104
2, 179280, Note_off_c, 0, 57, 0
2, 179280, Note_on_c, 0, 61, 104
2, 180000, Note_off_c, 0, 61, 0
2, 180000, Note_on_c, 0, 64, 104
2, 180720, Note_off_c, 0, 64, 0
2, 180720, Note_on_c, 0, 61, 104
2, 181080, Note_off_c, 0, 61, 0
2, 181080, Note_on_c, 0, 56, 104
2, 182160, Note_off_c, 0, 56, 0
2, 182160, Note_on_c, 0, 61, 104
2, 182880, Note_off_c, 0, 61, 0
2, 182880, Note_on_c, 0, 52, 104
2, 183600, Note_off_c, 0, 52, 0
2, 183600, Note_on_c, 0, 61, 104
2, 184320, Note_off_c, 0, 61, 0
2, 184320, Note_on_c, 0, 64, 104
2, 185040, Note_off_c, 0, 64, 0
2, 185040, Note_on_c, 0, 61, 104
2, 185400, Note_off_c, 0, 61, 0
2, 185400, Note_on_c, 0, 59, 104
2, 185760, Note_off_c, 0, 59, 0
2, 185760, Note_on_c, 0, 57, 104
2, 186840, Note_off_c, 0, 57, 0
2, 186840, Note_on_c, 0, 57, 104
2, 187200, Note_off_c, 0, 57, 0
2, 187200, Note_on_c, 0, 56, 104
2, 187560, Note_off_c, 0, 56, 0
2, 187560, Note_on_c, 0, 57, 104
2, 187920, Note_off_c, 0, 57, 0
2, 187920, Note_on_c, 0, 64, 104
2, 188640, Note_off_c, 0, 64, 0
2, 188640, Note_on_c, 0, 56, 104
2, 189360, Note_off_c, 0, 56, 0
2, 189360, Note_on_c, 0, 59, 104
2, 190800, Note_off_c, 0, 59, 0
2, 190800, Note_on_c, 0, 54, 104
2, 193320, Note_off_c, 0, 54, 0
2, 193320, Note_on_c, 0, 57, 104
2, 193680, Note_off_c, 0, 57, 0
2, 193680, Note_on_c, 0, 59, 104
2, 194040, Note_off_c, 0, 59, 0
2, 194040, Note_on_c, 0, 57, 104
2, 194400, Note_off_c, 0, 57, 0
2, 194400, Note_on_c, 0, 59, 104
2, 194760, Note_off_c, 0, 59, 0
2, 194760, Note_on_c, 0, 57, 104
2, 195120, Note_off_c, 0, 57, 0
2, 195120, Note_on_c, 0, 55, 104
2, 195840, Note_off_c, 0, 55, 0
2, 195840, Note_on_c, 0, 57, 104
2, 196560, Note_off_c, 0, 57, 0
2, 196560, Note_on_c, 0, 61, 104
2, 197280, Note_off_c, 0, 61, 0
2, 197280, Note_on_c, 0, 64, 104
2, 198000, Note_off_c, 0, 64, 0
2, 198000, Note_on_c, 0, 61, 104
2, 198360, Note_off_c, 0, 61, 0
2, 198360, Note_on_c, 0, 56, 104
2, 199440, Note_off_c, 0, 56, 0
2, 199440, Note_on_c, 0, 61, 104
2, 200160, Note_off_c, 0, 61, 0
2, 200160, Note_on_c, 0, 52, 104
2, 200880, Note_off_c, 0, 52, 0
2, 200880, Note_on_c, 0, 61, 104
2, 201600, Note_off_c, 0, 61, 0
2, 201600, Note_on_c, 0, 64, 104
2, 202320, Note_off_c, 0, 64, 0
2, 202320, Note_on_c, 0, 61, 104
2, 202680, Note_off_c, 0, 61, 0
2, 202680, Note_on_c, 0, 59, 104
2, 203040, Note_off_c, 0, 59, 0
2, 203040, Note_on_c, 0, 57, 104
2, 204120, Note_off_c, 0, 57, 0
2, 204120, Note_on_c, 0, 57, 104
2, 204480, Note_off_c, 0, 57, 0
2, 204480, Note_on_c, 0, 56, 104
2, 204840, Note_off_c, 0, 56, 0
2, 204840, Note_on_c, 0, 57, 104
2, 205200, Note_off_c, 0, 57, 0
2, 205200, Note_on_c, 0, 64, 104
2, 205920, Note_off_c, 0, 64, 0
2, 205920, Note_on_c, 0, 56, 104
2, 206640, Note_off_c, 0, 56, 0
2, 206640, Note_on_c, 0, 59, 104
2, 208080, Note_off_c, 0, 59, 0
2, 208080, Note_on_c, 0, 54, 104
2, 210600, Note_off_c, 0, 54, 0
2, 210600, Note_on_c, 0, 57, 104
2, 210960, Note_off_c, 0, 57, 0
2, 210960, Note_on_c, 0, 59, 104
2, 211320, Note_off_c, 0, 59, 0
2, 211320, Note_on_c, 0, 57, 104
2, 211680, Note_off_c, 0, 57, 0
2, 211680, Note_on_c, 0, 59, 104
2, 212040, Note_off_c, 0, 59, 0
2, 212040, Note_on_c, 0, 57, 104
2, 212400, Note_off_c, 0, 57, 0
2, 212400, Note_on_c, 0, 55, 104
2, 213120, Note_off_c, 0, 55, 0
2, 213120, Note_on_c, 0, 57, 104
2, 218880, Note_off_c, 0, 57, 0
2, 218880, Note_on_c, 0, 45, 104
2, 218880, Note_on_c, 0, 52, 104
2, 218880, Note_on_c, 0, 57, 104
2, 218880, Note_on_c, 0, 61, 104
2, 218880, Note_on_c, 0, 64, 104
2, 219600, Note_off_c, 0, 64, 0
2, 219600, Note_off_c, 0, 61, 0
2, 219600, Note_off_c, 0, 57, 0
2, 219600, Note_off_c, 0, 52, 0
2, 219600, Note_off_c, 0, 45, 0
2, 219600, Note_on_c, 0, 45, 104
2, 219600, Note_on_c, 0, 52, 104
2, 219600, Note_on_c, 0, 57, 104
2, 219600, Note_on_c, 0, 61, 104
2, 219600, Note_on_c, 0, 64, 104
2, 220320, Note_off_c, 0, 64, 0
2, 220320, Note_off_c, 0, 61, 0
2, 220320, Note_off_c, 0, 57, 0
2, 220320, Note_off_c, 0, 52, 0
2, 220320, Note_off_c, 0, 45, 0
2, 220320, Note_on_c, 0, 45, 104
2, 220320, Note_on_c, 0, 52, 104
2, 220320, Note_on_c, 0, 57, 104
2, 220320, Note_on_c, 0, 61, 104
2, 220320, Note_on_c, 0, 64, 104
2, 221040, Note_off_c, 0, 64, 0
2, 221040, Note_off_c, 0, 61, 0
2, 221040, Note_off_c, 0, 57, 0
2, 221040, Note_off_c, 0, 52, 0
2, 221040, Note_off_c, 0, 45, 0
2, 221040, Note_on_c, 0, 45, 104
2, 221040, Note_on_c, 0, 52, 104
2, 221040, Note_on_c, 0, 57, 104
2, 221040, Note_on_c, 0, 61, 104
2, 221040, Note_on_c, 0, 64, 104
2, 221400, Note_off_c, 0, 64, 0
2, 221400, Note_off_c, 0, 61, 0
2, 221400, Note_off_c, 0, 57, 0
2, 221400, Note_off_c, 0, 52, 0
2, 221400, Note_off_c, 0, 45, 0
2, 221400, Note_on_c, 0, 44, 104
2, 221400, Note_on_c, 0, 45, 104
2, 221400, Note_on_c, 0, 52, 104
2, 221400, Note_on_c, 0, 57, 104
2, 221400, Note_on_c, 0, 61, 104
2, 222120, Note_off_c, 0, 61, 0
2, 222120, Note_off_c, 0, 57, 0
2, 222120, Note_off_c, 0, 52, 0
2, 222120, Note_off_c, 0, 45, 0
2, 222120, Note_off_c, 0, 44, 0
2, 222120, Note_on_c, 0, 44, 104
2, 222120, Note_on_c, 0, 45, 104
2, 222120, Note_on_c, 0, 52, 104
2, 222120, Note_on_c, 0, 57, 104
2, 222120, Note_on_c, 0, 61, 104
2, 222480, Note_off_c, 0, 61, 0
2, 222480, Note_off_c, 0, 57, 0
2, 222480, Note_off_c, 0, 52, 0
2, 222480, Note_off_c, 0, 45, 0
2, 222480, Note_off_c, 0, 44, 0
2, 222480, Note_on_c, 0, 44, 104
2, 222480, Note_on_c, 0, 45, 104
2, 222480, Note_on_c, 0, 52, 104
2, 222480, Note_on_c, 0, 57, 104
2, 222480, Note_on_c, 0, 61, 104
2, 222840, Note_off_c, 0, 61, 0
2, 222840, Note_off_c, 0, 57, 0
2, 222840, Note_off_c, 0, 52, 0
2, 222840, Note_off_c, 0, 45, 0
2, 222840, Note_off_c, 0, 44, 0
2, 222840, Note_on_c, 0, 44, 104
2, 222840, Note_on_c, 0, 45, 104
2, 222840, Note_on_c, 0, 52, 104
2, 222840, Note_on_c, 0, 57, 104
2, 222840, Note_on_c, 0, 61, 104
2, 223200, Note_off_c, 0, 61, 0
2, 223200, Note_off_c, 0, 57, 0
2, 223200, Note_off_c, 0, 52, 0
2, 223200, Note_off_c, 0, 45, 0
2, 223200, Note_off_c, 0, 44, 0
2, 223200, Note_on_c, 0, 44, 104
2, 223200, Note_on_c, 0, 45, 104
2, 223200, Note_on_c, 0, 52, 104
2, 223200, Note_on_c, 0, 57, 104
2, 223200, Note_on_c, 0, 61, 104
2, 223560, Note_off_c, 0, 61, 0
2, 223560, Note_off_c, 0, 57, 0
2, 223560, Note_off_c, 0, 52, 0
2, 223560, Note_off_c, 0, 45, 0
2, 223560, Note_off_c, 0, 44, 0
2, 224640, Note_on_c, 0, 50, 104
2, 224640, Note_on_c, 0, 57, 104
2, 224640, Note_on_c, 0, 62, 104
2, 224640, Note_on_c, 0, 66, 104
2, 225360, Note_off_c, 0, 66, 0
2, 225360, Note_off_c, 0, 62, 0
2, 225360, Note_off_c, 0, 57, 0
2, 225360, Note_off_c, 0, 50, 0
2, 225360, Note_on_c, 0, 50, 104
2, 225360, Note_on_c, 0, 57, 104
2, 225360, Note_on_c, 0, 62, 104
2, 225360, Note_on_c, 0, 66, 104
2, 226080, Note_off_c, 0, 66, 0
2, 226080, Note_off_c, 0, 62, 0
2, 226080, Note_off_c, 0, 57, 0
2, 226080, Note_off_c, 0, 50, 0
2, 226080, Note_on_c, 0, 50, 104
2, 226080, Note_on_c, 0, 57, 104
2, 226080, Note_on_c, 0, 62, 104
2, 226080, Note_on_c, 0, 66, 104
2, 226800, Note_off_c, 0, 66, 0
2, 226800, Note_off_c, 0, 62, 0
2, 226800, Note_off_c, 0, 57, 0
2, 226800, Note_off_c, 0, 50, 0
2, 226800, Note_on_c, 0, 50, 104
2, 226800, Note_on_c, 0, 57, 104
2, 226800, Note_on_c, 0, 62, 104
2, 226800, Note_on_c, 0, 66, 104
2, 227160, Note_off_c, 0, 66, 0
2, 227160, Note_off_c, 0, 62, 0
2, 227160, Note_off_c, 0, 57, 0
2, 227160, Note_off_c, 0, 50, 0
2, 227160, Note_on_c, 0, 50, 104
2, 227160, Note_on_c, 0, 57, 104
2, 227160, Note_on_c, 0, 62, 104
2, 227160, Note_on_c, 0, 66, 104
2, 227880, Note_off_c, 0, 66, 0
2, 227880, Note_off_c, 0, 62, 0
2, 227880, Note_off_c, 0, 57, 0
2, 227880, Note_off_c, 0, 50, 0
2, 227880, Note_on_c, 0, 57, 104
2, 228240, Note_off_c, 0, 57, 0
2, 228240, Note_on_c, 0, 59, 104
2, 228600, Note_off_c, 0, 59, 0
2, 228600, Note_on_c, 0, 57, 104
2, 228960, Note_off_c, 0, 57, 0
2, 228960, Note_on_c, 0, 59, 104
2, 229320, Note_off_c, 0, 59, 0
2, 229320, Note_on_c, 0, 57, 104
2, 229680, Note_off_c, 0, 57, 0
2, 229680, Note_on_c, 0, 55, 104
2, 230400, Note_off_c, 0, 55, 0
2, 230400, Note_on_c, 0, 45, 104
2, 230400, Note_on_c, 0, 52, 104
2, 230400, Note_on_c, 0, 57, 104
2, 230400, Note_on_c, 0, 61, 104
2, 230400, Note_on_c, 0, 64, 104
2, 231120, Note_off_c, 0, 64, 0
2, 231120, Note_off_c, 0, 61, 0
2, 231120, Note_off_c, 0, 57, 0
2, 231120, Note_off_c, 0, 52, 0
2, 231120, Note_off_c, 0, 45, 0
2, 231120, Note_on_c, 0, 45, 104
2, 231120, Note_on_c, 0, 52, 104
2, 231120, Note_on_c, 0, 57, 104
2, 231120, Note_on_c, 0, 61, 104
2, 231120, Note_on_c, 0, 64, 104
2, 231840, Note_off_c, 0, 64, 0
2, 231840, Note_off_c, 0, 61, 0
2, 231840, Note_off_c, 0, 57, 0
2, 231840, Note_off_c, 0, 52, 0
2, 231840, Note_off_c, 0, 45, 0
2, 231840, Note_on_c, 0, 45, 104
2, 231840, Note_on_c, 0, 52, 104
2, 231840, Note_on_c, 0, 57, 104
2, 231840, Note_on_c, 0, 61, 104
2, 231840, Note_on_c, 0, 64, 104
2, 232560, Note_off_c, 0, 64, 0
2, 232560, Note_off_c, 0, 61, 0
2, 232560, Note_off_c, 0, 57, 0
2, 232560, Note_off_c, 0, 52, 0
2, 232560, Note_off_c, 0, 45, 0
2, 232560, Note_on_c, 0, 45, 104
2, 232560, Note_on_c, 0, 52, 104
2, 232560, Note_on_c, 0, 57, 104
2, 232560, Note_on_c, 0, 61, 104
2, 232560, Note_on_c, 0, 64, 104
2, 232920, Note_off_c, 0, 64, 0
2, 232920, Note_off_c, 0, 61, 0
2, 232920, Note_off_c, 0, 57, 0
2, 232920, Note_off_c, 0, 52, 0
2, 232920, Note_off_c, 0, 45, 0
2, 232920, Note_on_c, 0, 44, 104
2, 232920, Note_on_c, 0, 45, 104
2, 232920, Note_on_c, 0, 52, 104
2, 232920, Note_on_c, 0, 57, 104
2, 232920, Note_on_c, 0, 61, 104
2, 233640, Note_off_c, 0, 61, 0
2, 233640, Note_off_c, 0, 57, 0
2, 233640, Note_off_c, 0, 52, 0
2, 233640, Note_off_c, 0, 45, 0
2, 233640, Note_off_c, 0, 44, 0
2, 233640, Note_on_c, 0, 44, 104
2, 233640, Note_on_c, 0, 45, 104
2, 233640, Note_on_c, 0, 52, 104
2, 233640, Note_on_c, 0, 57, 104
2, 233640, Note_on_c, 0, 61, 104
2, 234000, Note_off_c, 0, 61, 0
2, 234000, Note_off_c, 0, 57, 0
2, 234000, Note_off_c, 0, 52, 0
2, 234000, Note_off_c, 0, 45, 0
2, 234000, Note_off_c, 0, 44, 0
2, 234000, Note_on_c, 0, 44, 104
2, 234000, Note_on_c, 0, 45, 104
2, 234000, Note_on_c, 0, 52, 104
2, 234000, Note_on_c, 0, 57, 104
2, 234000, Note_on_c, 0, 61, 104
2, 234360, Note_off_c, 0, 61, 0
2, 234360, Note_off_c, 0, 57, 0
2, 234360, Note_off_c, 0, 52, 0
2, 234360, Note_off_c, 0, 45, 0
2, 234360, Note_off_c, 0, 44, 0
2, 234360, Note_on_c, 0, 44, 104
2, 234360, Note_on_c, 0, 45, 104
2, 234360, Note_on_c, 0, 52, 104
2, 234360, Note_on_c, 0, 57, 104
2, 234360, Note_on_c, 0, 61, 104
2, 234720, Note_off_c, 0, 61, 0
2, 234720, Note_off_c, 0, 57, 0
2, 234720, Note_off_c, 0, 52, 0
2, 234720, Note_off_c, 0, 45, 0
2, 234720, Note_off_c, 0, 44, 0
2, 234720, Note_on_c, 0, 44, 104
2, 234720, Note_on_c, 0, 45, 104
2, 234720, Note_on_c, 0, 52, 104
2, 234720, Note_on_c, 0, 57, 104
2, 234720, Note_on_c, 0, 61, 104
2, 235080, Note_off_c, 0, 61, 0
2, 235080, Note_off_c, 0, 57, 0
2, 235080, Note_off_c, 0, 52, 0
2, 235080, Note_off_c, 0, 45, 0
2, 235080, Note_off_c, 0, 44, 0
2, 236160, Note_on_c, 0, 50, 104
2, 236160, Note_on_c, 0, 57, 104
2, 236160, Note_on_c, 0, 62, 104
2, 236160, Note_on_c, 0, 66, 104
2, 236880, Note_off_c, 0, 66, 0
2, 236880, Note_off_c, 0, 62, 0
2, 236880, Note_off_c, 0, 57, 0
2, 236880, Note_off_c, 0, 50, 0
2, 236880, Note_on_c, 0, 50, 104
2, 236880, Note_on_c, 0, 57, 104
2, 236880, Note_on_c, 0, 62, 104
2, 236880, Note_on_c, 0, 66, 104
2, 237600, Note_off_c, 0, 66, 0
2, 237600, Note_off_c, 0, 62, 0
2, 237600, Note_off_c, 0, 57, 0
2, 237600, Note_off_c, 0, 50, 0
2, 237600, Note_on_c, 0, 50, 104
2, 237600, Note_on_c, 0, 57, 104
2, 237600, Note_on_c, 0, 62, 104
2, 237600, Note_on_c, 0, 66, 104
2, 238320, Note_off_c, 0, 66, 0
2, 238320, Note_off_c, 0, 62, 0
2, 238320, Note_off_c, 0, 57, 0
2, 238320, Note_off_c, 0, 50, 0
2, 238320, Note_on_c, 0, 50, 104
2, 238320, Note_on_c, 0, 57, 104
2, 238320, Note_on_c, 0, 62, 104
2, 238320, Note_on_c, 0, 66, 104
2, 238680, Note_off_c, 0, 66, 0
2, 238680, Note_off_c, 0, 62, 0
2, 238680, Note_off_c, 0, 57, 0
2, 238680, Note_off_c, 0, 50, 0
2, 238680, Note_on_c, 0, 50, 104
2, 238680, Note_on_c, 0, 57, 104
2, 238680, Note_on_c, 0, 62, 104
2, 238680, Note_on_c, 0, 66, 104
2, 239400, Note_off_c, 0, 66, 0
2, 239400, Note_off_c, 0, 62, 0
2, 239400, Note_off_c, 0, 57, 0
2, 239400, Note_off_c, 0, 50, 0
2, 239400, Note_on_c, 0, 57, 104
2, 239760, Note_off_c, 0, 57, 0
2, 239760, Note_on_c, 0, 59, 104
2, 240120, Note_off_c, 0, 59, 0
2, 240120, Note_on_c, 0, 57, 104
2, 240480, Note_off_c, 0, 57, 0
2, 240480, Note_on_c, 0, 59, 104
2, 240840, Note_off_c, 0, 59, 0
2, 240840, Note_on_c, 0, 57, 104
2, 241200, Note_off_c, 0, 57, 0
2, 241200, Note_on_c, 0, 55, 104
2, 241920, Note_off_c, 0, 55, 0
2, 241920, Note_on_c, 0, 45, 104
2, 241920, Note_on_c, 0, 52, 104
2, 241920, Note_on_c, 0, 57, 104
2, 241920, Note_on_c, 0, 61, 104
2, 241920, Note_on_c, 0, 64, 104
2, 242640, Note_off_c, 0, 64, 0
2, 242640, Note_off_c, 0, 61, 0
2, 242640, Note_off_c, 0, 57, 0
2, 242640, Note_off_c, 0, 52, 0
2, 242640, Note_off_c, 0, 45, 0
2, 242640, Note_on_c, 0, 45, 104
2, 242640, Note_on_c, 0, 52, 104
2, 242640, Note_on_c, 0, 57, 104
2, 242640, Note_on_c, 0, 61, 104
2, 242640, Note_on_c, 0, 64, 104
2, 243360, Note_off_c, 0, 64, 0
2, 243360, Note_off_c, 0, 61, 0
2, 243360, Note_off_c, 0, 57, 0
2, 243360, Note_off_c, 0, 52, 0
2, 243360, Note_off_c, 0, 45, 0
2, 243360, Note_on_c, 0, 45, 104
2, 243360, Note_on_c, 0, 52, 104
2, 243360, Note_on_c, 0, 57, 104
2, 243360, Note_on_c, 0, 61, 104
2, 243360, Note_on_c, 0, 64, 104
2, 244080, Note_off_c, 0, 64, 0
2, 244080, Note_off_c, 0, 61, 0
2, 244080, Note_off_c, 0, 57, 0
2, 244080, Note_off_c, 0, 52, 0
2, 244080, Note_off_c, 0, 45, 0
2, 244080, Note_on_c, 0, 45, 104
2, 244080, Note_on_c, 0, 52, 104
2, 244080, Note_on_c, 0, 57, 104
2, 244080, Note_on_c, 0, 61, 104
2, 244080, Note_on_c, 0, 64, 104
2, 244440, Note_off_c, 0, 64, 0
2, 244440, Note_off_c, 0, 61, 0
2, 244440, Note_off_c, 0, 57, 0
2, 244440, Note_off_c, 0, 52, 0
2, 244440, Note_off_c, 0, 45, 0
2, 244440, Note_on_c, 0, 44, 104
2, 244440, Note_on_c, 0, 45, 104
2, 244440, Note_on_c, 0, 52, 104
2, 244440, Note_on_c, 0, 57, 104
2, 244440, Note_on_c, 0, 61, 104
2, 245160, Note_off_c, 0, 61, 0
2, 245160, Note_off_c, 0, 57, 0
2, 245160, Note_off_c, 0, 52, 0
2, 245160, Note_off_c, 0, 45, 0
2, 245160, Note_off_c, 0, 44, 0
2, 245160, Note_on_c, 0, 44, 104
2, 245160, Note_on_c, 0, 45, 104
2, 245160, Note_on_c, 0, 52, 104
2, 245160, Note_on_c, 0, 57, 104
2, 245160, Note_on_c, 0, 61, 104
2, 245520, Note_off_c, 0, 61, 0
2, 245520, Note_off_c, 0, 57, 0
2, 245520, Note_off_c, 0, 52, 0
2, 245520, Note_off_c, 0, 45, 0
2, 245520, Note_off_c, 0, 44, 0
2, 245520, Note_on_c, 0, 44, 104
2, 245520, Note_on_c, 0, 45, 104
2, 245520, Note_on_c, 0, 52, 104
2, 245520, Note_on_c, 0, 57, 104
2, 245520, Note_on_c, 0, 61, 104
2, 245880, Note_off_c, 0, 61, 0
2, 245880, Note_off_c, 0, 57, 0
2, 245880, Note_off_c, 0, 52, 0
2, 245880, Note_off_c, 0, 45, 0
2, 245880, Note_off_c, 0, 44, 0
2, 245880, Note_on_c, 0, 44, 104
2, 245880, Note_on_c, 0, 45, 104
2, 245880, Note_on_c, 0, 52, 104
2, 245880, Note_on_c, 0, 57, 104
2, 245880, Note_on_c, 0, 61, 104
2, 246240, Note_off_c, 0, 61, 0
2, 246240, Note_off_c, 0, 57, 0
2, 246240, Note_off_c, 0, 52, 0
2, 246240, Note_off_c, 0, 45, 0
2, 246240, Note_off_c, 0, 44, 0
2, 246240, Note_on_c, 0, 44, 104
2, 246240, Note_on_c, 0, 45, 104
2, 246240, Note_on_c, 0, 52, 104
2, 246240, Note_on_c, 0, 57, 104
2, 246240, Note_on_c, 0, 61, 104
2, 246600, Note_off_c, 0, 61, 0
2, 246600, Note_off_c, 0, 57, 0
2, 246600, Note_off_c, 0, 52, 0
2, 246600, Note_off_c, 0, 45, 0
2, 246600, Note_off_c, 0, 44, 0
2, 247680, Note_on_c, 0, 50, 104
2, 247680, Note_on_c, 0, 57, 104
2, 247680, Note_on_c, 0, 62, 104
2, 247680, Note_on_c, 0, 66, 104
2, 248400, Note_off_c, 0, 66, 0
2, 248400, Note_off_c, 0, 62, 0
2, 248400, Note_off_c, 0, 57, 0
2, 248400, Note_off_c, 0, 50, 0
2, 248400, Note_on_c, 0, 50, 104
2, 248400, Note_on_c, 0, 57, 104
2, 248400, Note_on_c, 0, 62, 104
2, 248400, Note_on_c, 0, 66, 104
2, 249120, Note_off_c, 0, 66, 0
2, 249120, Note_off_c, 0, 62, 0
2, 249120, Note_off_c, 0, 57, 0
2, 249120, Note_off_c, 0, 50, 0
2, 249120, Note_on_c, 0, 50, 104
2, 249120, Note_on_c, 0, 57, 104
2, 249120, Note_on_c, 0, 62, 104
2, 249120, Note_on_c, 0, 66, 104
2, 249840, Note_off_c, 0, 66, 0
2, 249840, Note_off_c, 0, 62, 0
2, 249840, Note_off_c, 0, 57, 0
2, 249840, Note_off_c, 0, 50, 0
2, 249840, Note_on_c, 0, 50, 104
2, 249840, Note_on_c, 0, 57, 104
2, 249840, Note_on_c, 0, 62, 104
2, 249840, Note_on_c, 0, 66, 104
2, 250200, Note_off_c, 0, 66, 0
2, 250200, Note_off_c, 0, 62, 0
2, 250200, Note_off_c, 0, 57, 0
2, 250200, Note_off_c, 0, 50, 0
2, 250200, Note_on_c, 0, 50, 104
2, 250200, Note_on_c, 0, 57, 104
2, 250200, Note_on_c, 0, 62, 104
2, 250200, Note_on_c, 0, 66, 104
2, 250920, Note_off_c, 0, 66, 0
2, 250920, Note_off_c, 0, 62, 0
2, 250920, Note_off_c, 0, 57, 0
2, 250920, Note_off_c, 0, 50, 0
2, 250920, Note_on_c, 0, 57, 104
2, 251280, Note_off_c, 0, 57, 0
2, 251280, Note_on_c, 0, 59, 104
2, 251640, Note_off_c, 0, 59, 0
2, 251640, Note_on_c, 0, 57, 104
2, 252000, Note_off_c, 0, 57, 0
2, 252000, Note_on_c, 0, 59, 104
2, 252360, Note_off_c, 0, 59, 0
2, 252360, Note_on_c, 0, 57, 104
2, 252720, Note_off_c, 0, 57, 0
2, 252720, Note_on_c, 0, 55, 104
2, 253440, Note_off_c, 0, 55, 0
2, 253440, Note_on_c, 0, 45, 104
2, 253440, Note_on_c, 0, 52, 104
2, 253440, Note_on_c, 0, 57, 104
2, 253440, Note_on_c, 0, 61, 104
2, 253440, Note_on_c, 0, 64, 104
2, 254160, Note_off_c, 0, 64, 0
2, 254160, Note_off_c, 0, 61, 0
2, 254160, Note_off_c, 0, 57, 0
2, 254160, Note_off_c, 0, 52, 0
2, 254160, Note_off_c, 0, 45, 0
2, 254160, Note_on_c, 0, 45, 104
2, 254160, Note_on_c, 0, 52, 104
2, 254160, Note_on_c, 0, 57, 104
2, 254160, Note_on_c, 0, 61, 104
2, 254160, Note_on_c, 0, 64, 104
2, 254880, Note_off_c, 0, 64, 0
2, 254880, Note_off_c, 0, 61, 0
2, 254880, Note_off_c, 0, 57, 0
2, 254880, Note_off_c, 0, 52, 0
2, 254880, Note_off_c, 0, 45, 0
2, 254880, Note_on_c, 0, 45, 104
2, 254880, Note_on_c, 0, 52, 104
2, 254880, Note_on_c, 0, 57, 104
2, 254880, Note_on_c, 0, 61, 104
2, 254880, Note_on_c, 0, 64, 104
2, 255600, Note_off_c, 0, 64, 0
2, 255600, Note_off_c, 0, 61, 0
2, 255600, Note_off_c, 0, 57, 0
2, 255600, Note_off_c, 0, 52, 0
2, 255600, Note_off_c, 0, 45, 0
2, 255600, Note_on_c, 0, 45, 104
2, 255600, Note_on_c, 0, 52, 104
2, 255600, Note_on_c, 0, 57, 104
2, 255600, Note_on_c, 0, 61, 104
2, 255600, Note_on_c, 0, 64, 104
2, 255960, Note_off_c, 0, 64, 0
2, 255960, Note_off_c, 0, 61, 0
2, 255960, Note_off_c, 0, 57, 0
2, 255960, Note_off_c, 0, 52, 0
2, 255960, Note_off_c, 0, 45, 0
2, 255960, Note_on_c, 0, 44, 104
2, 255960, Note_on_c, 0, 45, 104
2, 255960, Note_on_c, 0, 52, 104
2, 255960, Note_on_c, 0, 57, 104
2, 255960, Note_on_c, 0, 61, 104
2, 256680, Note_off_c, 0, 61, 0
2, 256680, Note_off_c, 0, 57, 0
2, 256680, Note_off_c, 0, 52, 0
2, 256680, Note_off_c, 0, 45, 0
2, 256680, Note_off_c, 0, 44, 0
2, 256680, Note_on_c, 0, 44, 104
2, 256680, Note_on_c, 0, 45, 104
2, 256680, Note_on_c, 0, 52, 104
2, 256680, Note_on_c, 0, 57, 104
2, 256680, Note_on_c, 0, 61, 104
2, 257040, Note_off_c, 0, 61, 0
2, 257040, Note_off_c, 0, 57, 0
2, 257040, Note_off_c, 0, 52, 0
2, 257040, Note_off_c, 0, 45, 0
2, 257040, Note_off_c, 0, 44, 0
2, 257040, Note_on_c, 0, 44, 104
2, 257040, Note_on_c, 0, 45, 104
2, 257040, Note_on_c, 0, 52, 104
2, 257040, Note_on_c, 0, 57, 104
2, 257040, Note_on_c, 0, 61, 104
2, 257400, Note_off_c, 0, 61, 0
2, 257400, Note_off_c, 0, 57, 0
2, 257400, Note_off_c, 0, 52, 0
2, 257400, Note_off_c, 0, 45, 0
2, 257400, Note_off_c, 0, 44, 0
2, 257400, Note_on_c, 0, 44, 104
2, 257400, Note_on_c, 0, 45, 104
2, 257400, Note_on_c, 0, 52, 104
2, 257400, Note_on_c, 0, 57, 104
2, 257400, Note_on_c, 0, 61, 104
2, 257760, Note_off_c, 0, 61, 0
2, 257760, Note_off_c, 0, 57, 0
2, 257760, Note_off_c, 0, 52, 0
2, 257760, Note_off_c, 0, 45, 0
2, 257760, Note_off_c, 0, 44, 0
2, 257760, Note_on_c, 0, 44, 104
2, 257760, Note_on_c, 0, 45, 104
2, 257760, Note_on_c, 0, 52, 104
2, 257760, Note_on_c, 0, 57, 104
2, 257760, Note_on_c, 0, 61, 104
2, 258120, Note_off_c, 0, 61, 0
2, 258120, Note_off_c, 0, 57, 0
2, 258120, Note_off_c, 0, 52, 0
2, 258120, Note_off_c, 0, 45, 0
2, 258120, Note_off_c, 0, 44, 0
2, 259200, Note_on_c, 0, 50, 104
2, 259200, Note_on_c, 0, 57, 104
2, 259200, Note_on_c, 0, 62, 104
2, 259200, Note_on_c, 0, 66, 104
2, 259920, Note_off_c, 0, 66, 0
2, 259920, Note_off_c, 0, 62, 0
2, 259920, Note_off_c, 0, 57, 0
2, 259920, Note_off_c, 0, 50, 0
2, 259920, Note_on_c, 0, 50, 104
2, 259920, Note_on_c, 0, 57, 104
2, 259920, Note_on_c, 0, 62, 104
2, 259920, Note_on_c, 0, 66, 104
2, 260640, Note_off_c, 0, 66, 0
2, 260640, Note_off_c, 0, 62, 0
2, 260640, Note_off_c, 0, 57, 0
2, 260640, Note_off_c, 0, 50, 0
2, 260640, Note_on_c, 0, 50, 104
2, 260640, Note_on_c, 0, 57, 104
2, 260640, Note_on_c, 0, 62, 104
2, 260640, Note_on_c, 0, 66, 104
2, 261360, Note_off_c, 0, 66, 0
2, 261360, Note_off_c, 0, 62, 0
2, 261360, Note_off_c, 0, 57, 0
2, 261360, Note_off_c, 0, 50, 0
2, 261360, Note_on_c, 0, 50, 104
2, 261360, Note_on_c, 0, 57, 104
2, 261360, Note_on_c, 0, 62, 104
2, 261360, Note_on_c, 0, 66, 104
2, 261720, Note_off_c, 0, 66, 0
2, 261720, Note_off_c, 0, 62, 0
2, 261720, Note_off_c, 0, 57, 0
2, 261720, Note_off_c, 0, 50, 0
2, 261720, Note_on_c, 0, 50, 104
2, 261720, Note_on_c, 0, 57, 104
2, 261720, Note_on_c, 0, 62, 104
2, 261720, Note_on_c, 0, 66, 104
2, 262440, Note_off_c, 0, 66, 0
2, 262440, Note_off_c, 0, 62, 0
2, 262440, Note_off_c, 0, 57, 0
2, 262440, Note_off_c, 0, 50, 0
2, 262440, Note_on_c, 0, 57, 104
2, 262800, Note_off_c, 0, 57, 0
2, 262800, Note_on_c, 0, 59, 104
2, 263160, Note_off_c, 0, 59, 0
2, 263160, Note_on_c, 0, 57, 104
2, 263520, Note_off_c, 0, 57, 0
2, 263520, Note_on_c, 0, 59, 104
2, 263880, Note_off_c, 0, 59, 0
2, 263880, Note_on_c, 0, 57, 104
2, 264240, Note_off_c, 0, 57, 0
2, 264240, Note_on_c, 0, 55, 104
2, 264960, Note_off_c, 0, 55, 0
2, 264960, Note_on_c, 0, 57, 104
2, 270720, Note_off_c, 0, 57, 0
2, 293760, Note_on_c, 0, 57, 104
2, 294480, Note_off_c, 0, 57, 0
2, 294480, Note_on_c, 0, 61, 104
2, 295200, Note_off_c, 0, 61, 0
2, 295200, Note_on_c, 0, 64, 104
2, 295920, Note_off_c, 0, 64, 0
2, 295920, Note_on_c, 0, 61, 104
2, 296280, Note_off_c, 0, 61, 0
2, 296280, Note_on_c, 0, 56, 104
2, 297360, Note_off_c, 0, 56, 0
2, 297360, Note_on_c, 0, 61, 104
2, 298080, Note_off_c, 0, 61, 0
2, 298080, Note_on_c, 0, 52, 104
2, 298800, Note_off_c, 0, 52, 0
2, 298800, Note_on_c, 0, 61, 104
2, 299520, Note_off_c, 0, 61, 0
2, 299520, Note_on_c, 0, 64, 104
2, 300240, Note_off_c, 0, 64, 0
2, 300240, Note_on_c, 0, 61, 104
2, 300600, Note_off_c, 0, 61, 0
2, 300600, Note_on_c, 0, 59, 104
2, 300960, Note_off_c, 0, 59, 0
2, 300960, Note_on_c, 0, 57, 104
2, 302040, Note_off_c, 0, 57, 0
2, 302040, Note_on_c, 0, 57, 104
2, 302400, Note_off_c, 0, 57, 0
2, 302400, Note_on_c, 0, 56, 104
2, 302760, Note_off_c, 0, 56, 0
2, 302760, Note_on_c, 0, 57, 104
2, 303120, Note_off_c, 0, 57, 0
2, 303120, Note_on_c, 0, 64, 104
2, 303840, Note_off_c, 0, 64, 0
2, 303840, Note_on_c, 0, 56, 104
2, 304560, Note_off_c, 0, 56, 0
2, 304560, Note_on_c, 0, 59, 104
2, 306000, Note_off_c, 0, 59, 0
2, 306000, Note_on_c, 0, 54, 104
2, 308520, Note_off_c, 0, 54, 0
2, 308520, Note_on_c, 0, 57, 104
2, 308880, Note_off_c, 0, 57, 0
2, 308880, Note_on_c, 0, 59, 104
2, 309240, Note_off_c, 0, 59, 0
2, 309240, Note_on_c, 0, 57, 104
2, 309600, Note_off_c, 0, 57, 0
2, 309600, Note_on_c, 0, 59, 104
2, 309960, Note_off_c, 0, 59, 0
2, 309960, Note_on_c, 0, 57, 104
2, 310320, Note_off_c, 0, 57, 0
2, 310320, Note_on_c, 0, 55, 104
2, 311040, Note_off_c, 0, 55, 0
2, 311040, Note_on_c, 0, 57, 104
2, 311760, Note_off_c, 0, 57, 0
2, 311760, Note_on_c, 0, 61, 104
2, 312480, Note_off_c, 0, 61, 0
2, 312480, Note_on_c, 0, 64, 104
2, 313200, Note_off_c, 0, 64, 0
2, 313200, Note_on_c, 0, 61, 104
2, 313560, Note_off_c, 0, 61, 0
2, 313560, Note_on_c, 0, 56, 104
2, 314640, Note_off_c, 0, 56, 0
2, 314640, Note_on_c, 0, 61, 104
2, 315360, Note_off_c, 0, 61, 0
2, 315360, Note_on_c, 0, 52, 104
2, 316080, Note_off_c, 0, 52, 0
2, 316080, Note_on_c, 0, 61, 104
2, 316800, Note_off_c, 0, 61, 0
2, 316800, Note_on_c, 0, 64, 104
2, 317520, Note_off_c, 0, 64, 0
2, 317520, Note_on_c, 0, 61, 104
2, 317880, Note_off_c, 0, 61, 0
2, 317880, Note_on_c, 0, 59, 104
2, 318240, Note_off_c, 0, 59, 0
2, 318240, Note_on_c, 0, 57, 104
2, 319320, Note_off_c, 0, 57, 0
2, 319320, Note_on_c, 0, 57, 104
2, 319680, Note_off_c, 0, 57, 0
2, 319680, Note_on_c, 0, 56, 104
2, 320040, Note_off_c, 0, 56, 0
2, 320040, Note_on_c, 0, 57, 104
2, 320400, Note_off_c, 0, 57, 0
2, 320400, Note_on_c, 0, 64, 104
2, 321120, Note_off_c, 0, 64, 0
2, 321120, Note_on_c, 0, 56, 104
2, 321840, Note_off_c, 0, 56, 0
2, 321840, Note_on_c, 0, 59, 104
2, 323280, Note_off_c, 0, 59, 0
2, 323280, Note_on_c, 0, 54, 104
2, 325800, Note_off_c, 0, 54, 0
2, 325800, Note_on_c, 0, 57, 104
2, 326160, Note_off_c, 0, 57, 0
2, 326160, Note_on_c, 0, 59, 104
2, 326520, Note_off_c, 0, 59, 0
2, 326520, Note_on_c, 0, 57, 104
2, 326880, Note_off_c, 0, 57, 0
2, 326880, Note_on_c, 0, 59, 104
2, 327240, Note_off_c, 0, 59, 0
2, 327240, Note_on_c, 0, 57, 104
2, 327600, Note_off_c, 0, 57, 0
2, 327600, Note_on_c, 0, 55, 104
2, 328320, Note_off_c, 0, 55, 0
2, 328320, Note_on_c, 0, 57, 104
2, 329040, Note_off_c, 0, 57, 0
2, 329040, Note_on_c, 0, 61, 104
2, 329760, Note_off_c, 0, 61, 0
2, 329760, Note_on_c, 0, 64, 104
2, 330480, Note_off_c, 0, 64, 0
2, 330480, Note_on_c, 0, 61, 104
2, 330840, Note_off_c, 0, 61, 0
2, 330840, Note_on_c, 0, 56, 104
2, 331920, Note_off_c, 0, 56, 0
2, 331920, Note_on_c, 0, 61, 104
2, 332640, Note_off_c, 0, 61, 0
2, 332640, Note_on_c, 0, 52, 104
2, 333360, Note_off_c, 0, 52, 0
2, 333360, Note_on_c, 0, 61, 104
2, 334080, Note_off_c, 0, 61, 0
2, 334080, Note_on_c, 0, 64, 104
2, 334800, Note_off_c, 0, 64, 0
2, 334800, Note_on_c, 0, 61, 104
2, 335160, Note_off_c, 0, 61, 0
2, 335160, Note_on_c, 0, 59, 104
2, 335520, Note_off_c, 0, 59, 0
2, 335520, Note_on_c, 0, 57, 104
2, 336600, Note_off_c, 0, 57, 0
2, 336600, Note_on_c, 0, 57, 104
2, 336960, Note_off_c, 0, 57, 0
2, 336960, Note_on_c, 0, 56, 104
2, 337320, Note_off_c, 0, 56, 0
2, 337320, Note_on_c, 0, 57, 104
2, 337680, Note_off_c, 0, 57, 0
2, 337680, Note_on_c, 0, 64, 104
2, 338400, Note_off_c, 0, 64, 0
2, 338400, Note_on_c, 0, 56, 104
2, 339120, Note_off_c, 0, 56, 0
2, 339120, Note_on_c, 0, 59, 104
2, 340560, Note_off_c, 0, 59, 0
2, 340560, Note_on_c, 0, 54, 104
2, 343080, Note_off_c, 0, 54, 0
2, 343080, Note_on_c, 0, 57, 104
2, 343440, Note_off_c, 0, 57, 0
2, 343440, Note_on_c, 0, 59, 104
2, 343800, Note_off_c, 0, 59, 0
2, 343800, Note_on_c, 0, 57, 104
2, 344160, Note_off_c, 0, 57, 0
2, 344160, Note_on_c, 0, 59, 104
2, 344520, Note_off_c, 0, 59, 0
2, 344520, Note_on_c, 0, 57, 104
2, 344880, Note_off_c, 0, 57, 0
2, 344880, Note_on_c, 0, 55, 104
2, 345600, Note_off_c, 0, 55, 0
2, 345600, Note_on_c, 0, 57, 104
2, 346320, Note_off_c, 0, 57, 0
2, 346320, Note_on_c, 0, 61, 104
2, 347040, Note_off_c, 0, 61, 0
2, 347040, Note_on_c, 0, 64, 104
2, 347760, Note_off_c, 0, 64, 0
2, 347760, Note_on_c, 0, 61, 104
2, 348120, Note_off_c, 0, 61, 0
2, 348120, Note_on_c, 0, 56, 104
2, 349200, Note_off_c, 0, 56, 0
2, 349200, Note_on_c, 0, 61, 104
2, 349920, Note_off_c, 0, 61, 0
2, 349920, Note_on_c, 0, 52, 104
2, 350640, Note_off_c, 0, 52, 0
2, 350640, Note_on_c, 0, 61, 104
2, 351360, Note_off_c, 0, 61, 0
2, 351360, Note_on_c, 0, 64, 104
2, 352080, Note_off_c, 0, 64, 0
2, 352080, Note_on_c, 0, 61, 104
2, 352440, Note_off_c, 0, 61, 0
2, 352440, Note_on_c, 0, 59, 104
2, 352800, Note_off_c, 0, 59, 0
2, 352800, Note_on_c, 0, 57, 104
2, 353880, Note_off_c, 0, 57, 0
2, 353880, Note_on_c, 0, 57, 104
2, 354240, Note_off_c, 0, 57, 0
2, 354240, Note_on_c, 0, 56, 104
2, 354600, Note_off_c, 0, 56, 0
2, 354600, Note_on_c, 0, 57, 104
2, 354960, Note_off_c, 0, 57, 0
2, 354960, Note_on_c, 0, 64, 104
2, 355680, Note_off_c, 0, 64, 0
2, 355680, Note_on_c, 0, 56, 104
2, 356400, Note_off_c, 0, 56, 0
2, 356400, Note_on_c, 0, 59, 104
2, 357840, Note_off_c, 0, 59, 0
2, 357840, Note_on_c, 0, 54, 104
2, 360360, Note_off_c, 0, 54, 0
2, 360360, Note_on_c, 0, 57, 104
2, 360720, Note_off_c, 0, 57, 0
2, 360720, Note_on_c, 0, 59, 104
2, 361080, Note_off_c, 0, 59, 0
2, 361080, Note_on_c, 0, 57, 104
2, 361440, Note_off_c, 0, 57, 0
2, 361440, Note_on_c, 0, 59, 104
2, 361800, Note_off_c, 0, 59, 0
2, 361800, Note_on_c, 0, 57, 104
2, 362160, Note_off_c, 0, 57, 0
2, 362160, Note_on_c, 0, 55, 104
2, 362880, Note_off_c, 0, 55, 0
2, 362880, Note_on_c, 0, 57, 104
2, 363600, Note_off_c, 0, 57, 0
2, 363600, Note_on_c, 0, 61, 104
2, 364320, Note_off_c, 0, 61, 0
2, 364320, Note_on_c, 0, 64, 104
2, 365040, Note_off_c, 0, 64, 0
2, 365040, Note_on_c, 0, 61, 104
2, 365400, Note_off_c, 0, 61, 0
2, 365400, Note_on_c, 0, 56, 104
2, 366480, Note_off_c, 0, 56, 0
2, 366480, Note_on_c, 0, 61, 104
2, 367200, Note_off_c, 0, 61, 0
2, 367200, Note_on_c, 0, 52, 104
2, 367920, Note_off_c, 0, 52, 0
2, 367920, Note_on_c, 0, 61, 104
2, 368640, Note_off_c, 0, 61, 0
2, 368640, Note_on_c, 0, 64, 104
2, 369360, Note_off_c, 0, 64, 0
2, 369360, Note_on_c, 0, 61, 104
2, 369720, Note_off_c, 0, 61, 0
2, 369720, Note_on_c, 0, 59, 104
2, 370080, Note_off_c, 0, 59, 0
2, 370080, Note_on_c, 0, 57, 104
2, 371160, Note_off_c, 0, 57, 0
2, 371160, Note_on_c, 0, 57, 104
2, 371520, Note_off_c, 0, 57, 0
2, 371520, Note_on_c, 0, 56, 104
2, 371880, Note_off_c, 0, 56, 0
2, 371880, Note_on_c, 0, 57, 104
2, 372240, Note_off_c, 0, 57, 0
2, 372240, Note_on_c, 0, 64, 104
2, 372960, Note_off_c, 0, 64, 0
2, 372960, Note_on_c, 0, 56, 104
2, 373680, Note_off_c, 0, 56, 0
2, 373680, Note_on_c, 0, 59, 104
2, 375120, Note_off_c, 0, 59, 0
2, 375120, Note_on_c, 0, 54, 104
2, 377640, Note_off_c, 0, 54, 0
2, 377640, Note_on_c, 0, 57, 104
2, 378000, Note_off_c, 0, 57, 0
2, 378000, Note_on_c, 0, 59, 104
2, 378360, Note_off_c, 0, 59, 0
2, 378360, Note_on_c, 0, 57, 104
2, 378720, Note_off_c, 0, 57, 0
2, 378720, Note_on_c, 0, 59, 104
2, 379080, Note_off_c, 0, 59, 0
2, 379080, Note_on_c, 0, 57, 104
2, 379440, Note_off_c, 0, 57, 0
2, 379440, Note_on_c, 0, 55, 104
2, 380160, Note_off_c, 0, 55, 0
2, 380160, Note_on_c, 0, 57, 104
2, 380880, Note_off_c, 0, 57, 0
2, 380880, Note_on_c, 0, 61, 104
2, 381600, Note_off_c, 0, 61, 0
2, 381600, Note_on_c, 0, 64, 104
2, 382320, Note_off_c, 0, 64, 0
2, 382320, Note_on_c, 0, 61, 104
2, 382680, Note_off_c, 0, 61, 0
2, 382680, Note_on_c, 0, 56, 104
2, 383760, Note_off_c, 0, 56, 0
2, 383760, Note_on_c, 0, 61, 104
2, 384480, Note_off_c, 0, 61, 0
2, 384480, Note_on_c, 0, 52, 104
2, 385200, Note_off_c, 0, 52, 0
2, 385200, Note_on_c, 0, 61, 104
2, 385920, Note_off_c, 0, 61, 0
2, 385920, Note_on_c, 0, 64, 104
2, 386640, Note_off_c, 0, 64, 0
2, 386640, Note_on_c, 0, 61, 104
2, 387000, Note_off_c, 0, 61, 0
2, 387000, Note_on_c, 0, 59, 104
2, 387360, Note_off_c, 0, 59, 0
2, 387360, Note_on_c, 0, 57, 104
2, 388440, Note_off_c, 0, 57, 0
2, 388440, Note_on_c, 0, 57, 104
2, 388800, Note_off_c, 0, 57, 0
2, 388800, Note_on_c, 0, 56, 104
2, 389160, Note_off_c, 0, 56, 0
2, 389160, Note_on_c, 0, 57, 104
2, 389520, Note_off_c, 0, 57, 0
2, 389520, Note_on_c, 0, 64, 104
2, 390240, Note_off_c, 0, 64, 0
2, 390240, Note_on_c, 0, 56, 104
2, 390960, Note_off_c, 0, 56, 0
2, 390960, Note_on_c, 0, 59, 104
2, 392400, Note_off_c, 0, 59, 0
2, 392400, Note_on_c, 0, 54, 104
2, 394920, Note_off_c, 0, 54, 0
2, 394920, Note_on_c, 0, 57, 104
2, 395280, Note_off_c, 0, 57, 0
2, 395280, Note_on_c, 0, 59, 104
2, 395640, Note_off_c, 0, 59, 0
2, 395640, Note_on_c, 0, 57, 104
2, 396000, Note_off_c, 0, 57, 0
2, 396000, Note_on_c, 0, 59, 104
2, 396360, Note_off_c, 0, 59, 0
2, 396360, Note_on_c, 0, 57, 104
2, 396720, Note_off_c, 0, 57, 0
2, 396720, Note_on_c, 0, 55, 104
2, 397440, Note_off_c, 0, 55, 0
2, 397440, Note_on_c, 0, 57, 104
2, 398160, Note_off_c, 0, 57, 0
2, 398160, Note_on_c, 0, 61, 104
2, 398880, Note_off_c, 0, 61, 0
2, 398880, Note_on_c, 0, 64, 104
2, 399600, Note_off_c, 0, 64, 0
2, 399600, Note_on_c, 0, 61, 104
2, 399960, Note_off_c, 0, 61, 0
2, 399960, Note_on_c, 0, 56, 104
2, 401040, Note_off_c, 0, 56, 0
2, 401040, Note_on_c, 0, 61, 104
2, 401760, Note_off_c, 0, 61, 0
2, 401760, Note_on_c, 0, 52, 104
2, 402480, Note_off_c, 0, 52, 0
2, 402480, Note_on_c, 0, 61, 104
2, 403200, Note_off_c, 0, 61, 0
2, 403200, Note_on_c, 0, 64, 104
2, 403920, Note_off_c, 0, 64, 0
2, 403920, Note_on_c, 0, 61, 104
2, 404280, Note_off_c, 0, 61, 0
2, 404280, Note_on_c, 0, 59, 104
2, 404640, Note_off_c, 0, 59, 0
2, 404640, Note_on_c, 0, 57, 104
2, 405720, Note_off_c, 0, 57, 0
2, 405720, Note_on_c, 0, 57, 104
2, 406080, Note_off_c, 0, 57, 0
2, 406080, Note_on_c, 0, 56, 104
2, 406440, Note_off_c, 0, 56, 0
2, 406440, Note_on_c, 0, 57, 104
2, 406800, Note_off_c, 0, 57, 0
2, 406800, Note_on_c, 0, 64, 104
2, 407520, Note_off_c, 0, 64, 0
2, 407520, Note_on_c, 0, 56, 104
2, 408240, Note_off_c, 0, 56, 0
2, 408240, Note_on_c, 0, 59, 104
2, 409680, Note_off_c, 0, 59, 0
2, 409680, Note_on_c, 0, 54, 104
2, 412200, Note_off_c, 0, 54, 0
2, 412200, Note_on_c, 0, 57, 104
2, 412560, Note_off_c, 0, 57, 0
2, 412560, Note_on_c, 0, 59, 104
2, 412920, Note_off_c, 0, 59, 0
2, 412920, Note_on_c, 0, 57, 104
2, 413280, Note_off_c, 0, 57, 0
2, 413280, Note_on_c, 0, 59, 104
2, 413640, Note_off_c, 0, 59, 0
2, 413640, Note_on_c, 0, 57, 104
2, 414000, Note_off_c, 0, 57, 0
2, 414000, Note_on_c, 0, 55, 104
2, 414720, Note_off_c, 0, 55, 0
2, 414720, Note_on_c, 0, 57, 104
2, 415440, Note_off_c, 0, 57, 0
2, 415440, Note_on_c, 0, 61, 104
2, 416160, Note_off_c, 0, 61, 0
2, 416160, Note_on_c, 0, 64, 104
2, 416880, Note_off_c, 0, 64, 0
2, 416880, Note_on_c, 0, 61, 104
2, 417240, Note_off_c, 0, 61, 0
2, 417240, Note_on_c, 0, 56, 104
2, 418320, Note_off_c, 0, 56, 0
2, 418320, Note_on_c, 0, 61, 104
2, 419040, Note_off_c, 0, 61, 0
2, 419040, Note_on_c, 0, 52, 104
2, 419760, Note_off_c, 0, 52, 0
2, 419760, Note_on_c, 0, 61, 104
2, 420480, Note_off_c, 0, 61, 0
2, 420480, Note_on_c, 0, 64, 104
2, 421200, Note_off_c, 0, 64, 0
2, 421200, Note_on_c, 0, 61, 104
2, 421560, Note_off_c, 0, 61, 0
2, 421560, Note_on_c, 0, 59, 104
2, 421920, Note_off_c, 0, 59, 0
2, 421920, Note_on_c, 0, 57, 104
2, 423000, Note_off_c, 0, 57, 0
2, 423000, Note_on_c, 0, 57, 104
2, 423360, Note_off_c, 0, 57, 0
2, 423360, Note_on_c, 0, 56, 104
2, 423720, Note_off_c, 0, 56, 0
2, 423720, Note_on_c, 0, 57, 104
2, 424080, Note_off_c, 0, 57, 0
2, 424080, Note_on_c, 0, 64, 104
2, 424800, Note_off_c, 0, 64, 0
2, 424800, Note_on_c, 0, 56, 104
2, 425520, Note_off_c, 0, 56, 0
2, 425520, Note_on_c, 0, 59, 104
2, 426960, Note_off_c, 0, 59, 0
2, 426960, Note_on_c, 0, 54, 104
2, 429480, Note_off_c, 0, 54, 0
2, 429480, Note_on_c, 0, 57, 104
2, 429840, Note_off_c, 0, 57, 0
2, 429840, Note_on_c, 0, 59, 104
2, 430200, Note_off_c, 0, 59, 0
2, 430200, Note_on_c, 0, 57, 104
2, 430560, Note_off_c, 0, 57, 0
2, 430560, Note_on_c, 0, 59, 104
2, 430920, Note_off_c, 0, 59, 0
2, 430920, Note_on_c, 0, 57, 104
2, 431280, Note_off_c, 0, 57, 0
2, 431280, Note_on_c, 0, 55, 104
2, 432000, Note_off_c, 0, 55, 0
2, 432000, Note_on_c, 0, 57, 104
2, 432720, Note_off_c, 0, 57, 0
2, 432720, Note_on_c, 0, 61, 104
2, 433440, Note_off_c, 0, 61, 0
2, 433440, Note_on_c, 0, 64, 104
2, 434160, Note_off_c, 0, 64, 0
2, 434160, Note_on_c, 0, 61, 104
2, 434520, Note_off_c, 0, 61, 0
2, 434520, Note_on_c, 0, 56, 104
2, 435600, Note_off_c, 0, 56, 0
2, 435600, Note_on_c, 0, 61, 104
2, 436320, Note_off_c, 0, 61, 0
2, 436320, Note_on_c, 0, 52, 104
2, 437040, Note_off_c, 0, 52, 0
2, 437040, Note_on_c, 0, 61, 104
2, 437760, Note_off_c, 0, 61, 0
2, 437760, Note_on_c, 0, 64, 104
2, 438480, Note_off_c, 0, 64, 0
2, 438480, Note_on_c, 0, 61, 104
2, 438840, Note_off_c, 0, 61, 0
2, 438840, Note_on_c, 0, 59, 104
2, 439200, Note_off_c, 0, 59, 0
2, 439200, Note_on_c, 0, 57, 104
2, 440280, Note_off_c, 0, 57, 0
2, 440280, Note_on_c, 0, 57, 104
2, 440640, Note_off_c, 0, 57, 0
2, 440640, Note_on_c, 0, 56, 104
2, 441000, Note_off_c, 0, 56, 0
2, 441000, Note_on_c, 0, 57, 104
2, 441360, Note_off_c, 0, 57, 0
2, 441360, Note_on_c, 0, 64, 104
2, 442080, Note_off_c, 0, 64, 0
2, 442080, Note_on_c, 0, 56, 104
2, 442800, Note_off_c, 0, 56, 0
2, 442800, Note_on_c, 0, 59, 104
2, 444240, Note_off_c, 0, 59, 0
2, 444240, Note_on_c, 0, 54, 104
2, 446760, Note_off_c, 0, 54, 0
2, 446760, Note_on_c, 0, 57, 104
2, 447120, Note_off_c, 0, 57, 0
2, 447120, Note_on_c, 0, 59, 104
2, 447480, Note_off_c, 0, 59, 0
2, 447480, Note_on_c, 0, 57, 104
2, 447840, Note_off_c, 0, 57, 0
2, 447840, Note_on_c, 0, 59, 104
2, 448200, Note_off_c, 0, 59, 0
2, 448200, Note_on_c, 0, 57, 104
2, 448560, Note_off_c, 0, 57, 0
2, 448560, Note_on_c, 0, 55, 104
2, 449280, Note_off_c, 0, 55, 0
2, 449280, Note_on_c, 0, 57, 104
2, 450000, Note_off_c, 0, 57, 0
2, 450000, Note_on_c, 0, 61, 104
2, 450720, Note_off_c, 0, 61, 0
2, 450720, Note_on_c, 0, 64, 104
2, 451440, Note_off_c, 0, 64, 0
2, 451440, Note_on_c, 0, 61, 104
2, 451800, Note_off_c, 0, 61, 0
2, 451800, Note_on_c, 0, 56, 104
2, 452880, Note_off_c, 0, 56, 0
2, 452880, Note_on_c, 0, 61, 104
2, 453600, Note_off_c, 0, 61, 0
2, 453600, Note_on_c, 0, 52, 104
2, 454320, Note_off_c, 0, 52, 0
2, 454320, Note_on_c, 0, 61, 104
2, 455040, Note_off_c, 0, 61, 0
2, 455040, Note_on_c, 0, 64, 104
2, 455760, Note_off_c, 0, 64, 0
2, 455760, Note_on_c, 0, 61, 104
2, 456120, Note_off_c, 0, 61, 0
2, 456120, Note_on_c, 0, 59, 104
2, 456480, Note_off_c, 0, 59, 0
2, 456480, Note_on_c, 0, 57, 104
2, 457560, Note_off_c, 0, 57, 0
2, 457560, Note_on_c, 0, 57, 104
2, 457920, Note_off_c, 0, 57, 0
2, 457920, Note_on_c, 0, 56, 104
2, 458280, Note_off_c, 0, 56, 0
2, 458280, Note_on_c, 0, 57, 104
2, 458640, Note_off_c, 0, 57, 0
2, 458640, Note_on_c, 0, 64, 104
2, 459360, Note_off_c, 0, 64, 0
2, 459360, Note_on_c, 0, 56, 104
2, 460080, Note_off_c, 0, 56, 0
2, 460080, Note_on_c, 0, 59, 104
2, 461520, Note_off_c, 0, 59, 0
2, 461520, Note_on_c, 0, 54, 104
2, 464040, Note_off_c, 0, 54, 0
2, 464040, Note_on_c, 0, 57, 104
2, 464400, Note_off_c, 0, 57, 0
2, 464400, Note_on_c, 0, 59, 104
2, 464760, Note_off_c, 0, 59, 0
2, 464760, Note_on_c, 0, 57, 104
2, 465120, Note_off_c, 0, 57, 0
2, 465120, Note_on_c, 0, 59, 104
2, 465480, Note_off_c, 0, 59, 0
2, 465480, Note_on_c, 0, 57, 104
2, 465840, Note_off_c, 0, 57, 0
2, 465840, Note_on_c, 0, 55, 104
2, 466560, Note_off_c, 0, 55, 0
2, 466560, Note_on_c, 0, 57, 104
2, 467280, Note_off_c, 0, 57, 0
2, 467280, Note_on_c, 0, 61, 104
2, 468000, Note_off_c, 0, 61, 0
2, 468000, Note_on_c, 0, 64, 104
2, 468720, Note_off_c, 0, 64, 0
2, 468720, Note_on_c, 0, 61, 104
2, 469080, Note_off_c, 0, 61, 0
2, 469080, Note_on_c, 0, 56, 104
2, 470160, Note_off_c, 0, 56, 0
2, 470160, Note_on_c, 0, 61, 104
2, 470880, Note_off_c, 0, 61, 0
2, 470880, Note_on_c, 0, 52, 104
2, 471600, Note_off_c, 0, 52, 0
2, 471600, Note_on_c, 0, 61, 104
2, 472320, Note_off_c, 0, 61, 0
2, 472320, Note_on_c, 0, 64, 104
2, 473040, Note_off_c, 0, 64, 0
2, 473040, Note_on_c, 0, 61, 104
2, 473040, Control_c, 0, 11, 120
2, 473040, Control_c, 1, 11, 120
2, 473400, Note_off_c, 0, 61, 0
2, 473400, Note_on_c, 0, 59, 104
2, 473760, Note_off_c, 0, 59, 0
2, 473760, Note_on_c, 0, 57, 104
2, 473760, Control_c, 0, 11, 112
2, 473760, Control_c, 1, 11, 112
2, 474480, Control_c, 0, 11, 104
2, 474480, Control_c, 1, 11, 104
2, 474840, Note_off_c, 0, 57, 0
2, 474840, Note_on_c, 0, 57, 104
2, 475200, Note_off_c, 0, 57, 0
2, 475200, Note_on_c, 0, 56, 104
2, 475200, Control_c, 0, 11, 96
2, 475200, Control_c, 1, 11, 96
2, 475560, Note_off_c, 0, 56, 0
2, 475560, Note_on_c, 0, 57, 104
2, 475920, Note_off_c, 0, 57, 0
2, 475920, Note_on_c, 0, 64, 104
2, 475920, Control_c, 0, 11, 88
2, 475920, Control_c, 1, 11, 88
2, 476640, Note_off_c, 0, 64, 0
2, 476640, Note_on_c, 0, 56, 104
2, 476640, Control_c, 0, 11, 80
2, 476640, Control_c, 1, 11, 80
2, 477360, Note_off_c, 0, 56, 0
2, 477360, Note_on_c, 0, 59, 104
2, 477360, Control_c, 0, 11, 72
2, 477360, Control_c, 1, 11, 72
2, 478080, Control_c, 0, 11, 64
2, 478080, Control_c, 1, 11, 64
2, 478800, Note_off_c, 0, 59, 0
2, 478800, Note_on_c, 0, 54, 104
2, 478800, Control_c, 0, 11, 56
2, 478800, Control_c, 1, 11, 56
2, 479520, Control_c, 0, 11, 48
2, 479520, Control_c, 1, 11, 48
2, 480240, Control_c, 0, 11, 40
2, 480240, Control_c, 1, 11, 40
2, 480960, Control_c, 0, 11, 32
2, 480960, Control_c, 1, 11, 32
2, 481320, Note_off_c, 0, 54, 0
2, 481320, Note_on_c, 0, 57, 104
2, 481680, Note_off_c, 0, 57, 0
2, 481680, Note_on_c, 0, 59, 104
2, 481680, Control_c, 0, 11, 24
2, 481680, Control_c, 1, 11, 24
2, 482040, Note_off_c, 0, 59, 0
2, 482040, Note_on_c, 0, 57, 104
2, 482400, Note_off_c, 0, 57, 0
2, 482400, Note_on_c, 0, 59, 104
2, 482400, Control_c, 0, 11, 16
2, 482400, Control_c, 1, 11, 16
2, 482760, Note_off_c, 0, 59, 0
2, 482760, Note_on_c, 0, 57, 104
2, 483120, Note_off_c, 0, 57, 0
2, 483120, Note_on_c, 0, 55, 104
2, 483120, Control_c, 0, 11, 8
2, 483120, Control_c, 1, 11, 8
2, 483840, Note_off_c, 0, 55, 0
2, 483840, End_track
3, 0, Start_track
3, 0, Control_c, 2, 7, 127
3, 0, Program_c, 2, 26
3, 0, Control_c, 2, 101, 0
3, 0, Control_c, 2, 100, 0
3, 0, Control_c, 2, 6, 24
3, 0, Control_c, 3, 7, 127
3, 0, Program_c, 3, 26
3, 0, Control_c, 3, 101, 0
3, 0, Control_c, 3, 100, 0
3, 0, Control_c, 3, 6, 24
3, 23040, Note_on_c, 2, 57, 104
3, 23760, Note_off_c, 2, 57, 0
3, 23760, Note_on_c, 2, 69, 104
3, 24480, Note_off_c, 2, 69, 0
3, 24480, Note_on_c, 2, 73, 104
3, 25200, Note_off_c, 2, 73, 0
3, 25200, Note_on_c, 2, 69, 104
3, 25560, Note_off_c, 2, 69, 0
3, 25560, Note_on_c, 2, 56, 104
3, 26640, Note_off_c, 2, 56, 0
3, 26640, Note_on_c, 2, 69, 104
3, 27360, Note_off_c, 2, 69, 0
3, 27360, Note_on_c, 2, 73, 104
3, 27720, Note_off_c, 2, 73, 0
3, 27720, Note_on_c, 2, 74, 104
3, 28080, Note_off_c, 2, 74, 0
3, 28080, Note_on_c, 2, 73, 104
3, 28440, Note_off_c, 2, 73, 0
3, 28440, Note_on_c, 2, 69, 104
3, 28800, Note_off_c, 2, 69, 0
3, 28800, Note_on_c, 2, 56, 104
3, 29160, Note_off_c, 2, 56, 0
3, 29160, Note_on_c, 2, 57, 104
3, 29520, Note_off_c, 2, 57, 0
3, 29520, Note_on_c, 2, 50, 104
3, 30240, Note_off_c, 2, 50, 0
3, 30240, Note_on_c, 2, 62, 104
3, 31680, Note_off_c, 2, 62, 0
3, 31680, Note_on_c, 2, 59, 104
3, 32040, Note_off_c, 2, 59, 0
3, 32040, Note_on_c, 2, 60, 104
3, 32400, Note_off_c, 2, 60, 0
3, 32400, Note_on_c, 2, 59, 104
3, 32760, Note_off_c, 2, 59, 0
3, 32760, Note_on_c, 2, 57, 104
3, 33120, Note_off_c, 2, 57, 0
3, 33120, Note_on_c, 2, 59, 104
3, 33480, Note_off_c, 2, 59, 0
3, 33480, Note_on_c, 2, 57, 104
3, 33840, Note_off_c, 2, 57, 0
3, 33840, Note_on_c, 2, 54, 104
3, 34560, Note_off_c, 2, 54, 0
3, 34560, Note_on_c, 2, 57, 104
3, 35280, Note_off_c, 2, 57, 0
3, 35280, Note_on_c, 2, 69, 104
3, 36000, Note_off_c, 2, 69, 0
3, 36000, Note_on_c, 2, 73, 104
3, 36720, Note_off_c, 2, 73, 0
3, 36720, Note_on_c, 2, 69, 104
3, 37080, Note_off_c, 2, 69, 0
3, 37080, Note_on_c, 2, 56, 104
3, 38160, Note_off_c, 2, 56, 0
3, 38160, Note_on_c, 2, 69, 104
3, 38880, Note_off_c, 2, 69, 0
3, 38880, Note_on_c, 2, 73, 104
3, 39240, Note_off_c, 2, 73, 0
3, 39240, Note_on_c, 2, 74, 104
3, 39600, Note_off_c, 2, 74, 0
3, 39600, Note_on_c, 2, 73, 104
3, 39960, Note_off_c, 2, 73, 0
3, 39960, Note_on_c, 2, 69, 104
3, 40320, Note_off_c, 2, 69, 0
3, 40320, Note_on_c, 2, 56, 104
3, 40680, Note_off_c, 2, 56, 0
3, 40680, Note_on_c, 2, 57, 104
3, 41040, Note_off_c, 2, 57, 0
3, 41040, Note_on_c, 2, 50, 104
3, 41760, Note_off_c, 2, 50, 0
3, 41760, Note_on_c, 2, 62, 104
3, 43200, Note_off_c, 2, 62, 0
3, 43200, Note_on_c, 2, 59, 104
3, 43560, Note_off_c, 2, 59, 0
3, 43560, Note_on_c, 2, 60, 104
3, 43920, Note_off_c, 2, 60, 0
3, 43920, Note_on_c, 2, 59, 104
3, 44280, Note_off_c, 2, 59, 0
3, 44280, Note_on_c, 2, 57, 104
3, 44640, Note_off_c, 2, 57, 0
3, 44640, Note_on_c, 2, 59, 104
3, 45000, Note_off_c, 2, 59, 0
3, 45000, Note_on_c, 2, 57, 104
3, 45360, Note_off_c, 2, 57, 0
3, 45360, Note_on_c, 2, 54, 104
3, 46080, Note_off_c, 2, 54, 0
3, 46080, Note_on_c, 2, 57, 104
3, 46800, Note_off_c, 2, 57, 0
3, 46800, Note_on_c, 2, 69, 104
3, 47520, Note_off_c, 2, 69, 0
3, 47520, Note_on_c, 2, 73, 104
3, 48240, Note_off_c, 2, 73, 0
3, 48240, Note_on_c, 2, 69, 104
3, 48600, Note_off_c, 2, 69, 0
3, 48600, Note_on_c, 2, 56, 104
3, 49680, Note_off_c, 2, 56, 0
3, 49680, Note_on_c, 2, 69, 104
3, 50400, Note_off_c, 2, 69, 0
3, 50400, Note_on_c, 2, 73, 104
3, 50760, Note_off_c, 2, 73, 0
3, 50760, Note_on_c, 2, 74, 104
3, 51120, Note_off_c, 2, 74, 0
3, 51120, Note_on_c, 2, 73, 104
3, 51480, Note_off_c, 2, 73, 0
3, 51480, Note_on_c, 2, 69, 104
3, 51840, Note_off_c, 2, 69, 0
3, 51840, Note_on_c, 2, 56, 104
3, 52200, Note_off_c, 2, 56, 0
3, 52200, Note_on_c, 2, 57, 104
3, 52560, Note_off_c, 2, 57, 0
3, 52560, Note_on_c, 2, 50, 104
3, 53280, Note_off_c, 2, 50, 0
3, 53280, Note_on_c, 2, 62, 104
3, 54720, Note_off_c, 2, 62, 0
3, 54720, Note_on_c, 2, 59, 104
3, 55080, Note_off_c, 2, 59, 0
3, 55080, Note_on_c, 2, 60, 104
3, 55440, Note_off_c, 2, 60, 0
3, 55440, Note_on_c, 2, 59, 104
3, 55800, Note_off_c, 2, 59, 0
3, 55800, Note_on_c, 2, 57, 104
3, 56160, Note_off_c, 2, 57, 0
3, 56160, Note_on_c, 2, 59, 104
3, 56520, Note_off_c, 2, 59, 0
3, 56520, Note_on_c, 2, 57, 104
3, 56880, Note_off_c, 2, 57, 0
3, 56880, Note_on_c, 2, 54, 104
3, 57600, Note_off_c, 2, 54, 0
3, 57600, Note_on_c, 2, 57, 104
3, 58320, Note_off_c, 2, 57, 0
3, 58320, Note_on_c, 2, 69, 104
3, 59040, Note_off_c, 2, 69, 0
3, 59040, Note_on_c, 2, 73, 104
3, 59760, Note_off_c, 2, 73, 0
3, 59760, Note_on_c, 2, 69, 104
3, 60120, Note_off_c, 2, 69, 0
3, 60120, Note_on_c, 2, 56, 104
3, 61200, Note_off_c, 2, 56, 0
3, 61200, Note_on_c, 2, 69, 104
3, 61920, Note_off_c, 2, 69, 0
3, 61920, Note_on_c, 2, 73, 104
3, 62280, Note_off_c, 2, 73, 0
3, 62280, Note_on_c, 2, 74, 104
3, 62640, Note_off_c, 2, 74, 0
3, 62640, Note_on_c, 2, 73, 104
3, 63000, Note_off_c, 2, 73, 0
3, 63000, Note_on_c, 2, 69, 104
3, 63360, Note_off_c, 2, 69, 0
3, 63360, Note_on_c, 2, 56, 104
3, 63720, Note_off_c, 2, 56, 0
3, 63720, Note_on_c, 2, 57, 104
3, 64080, Note_off_c, 2, 57, 0
3, 64080, Note_on_c, 2, 50, 104
3, 64800, Note_off_c, 2, 50, 0
3, 64800, Note_on_c, 2, 62, 104
3, 66240, Note_off_c, 2, 62, 0
3, 66240, Note_on_c, 2, 59, 104
3, 66600, Note_off_c, 2, 59, 0
3, 66600, Note_on_c, 2, 60, 104
3, 66960, Note_off_c, 2, 60, 0
3, 66960, Note_on_c, 2, 59, 104
3, 67320, Note_off_c, 2, 59, 0
3, 67320, Note_on_c, 2, 57, 104
3, 67680, Note_off_c, 2, 57, 0
3, 67680, Note_on_c, 2, 59, 104
3, 68040, Note_off_c, 2, 59, 0
3, 68040, Note_on_c, 2, 57, 104
3, 68400, Note_off_c, 2, 57, 0
3, 68400, Note_on_c, 2, 54, 104
3, 69120, Note_off_c, 2, 54, 0
3, 69120, Note_on_c, 2, 57, 104
3, 69840, Note_off_c, 2, 57, 0
3, 69840, Note_on_c, 2, 69, 104
3, 70560, Note_off_c, 2, 69, 0
3, 70560, Note_on_c, 2, 73, 104
3, 71280, Note_off_c, 2, 73, 0
3, 71280, Note_on_c, 2, 69, 104
3, 71640, Note_off_c, 2, 69, 0
3, 71640, Note_on_c, 2, 56, 104
3, 72720, Note_off_c, 2, 56, 0
3, 72720, Note_on_c, 2, 69, 104
3, 73440, Note_off_c, 2, 69, 0
3, 73440, Note_on_c, 2, 73, 104
3, 73800, Note_off_c, 2, 73, 0
3, 73800, Note_on_c, 2, 74, 104
3, 74160, Note_off_c, 2, 74, 0
3, 74160, Note_on_c, 2, 73, 104
3, 74520, Note_off_c, 2, 73, 0
3, 74520, Note_on_c, 2, 69, 104
3, 74880, Note_off_c, 2, 69, 0
3, 74880, Note_on_c, 2, 56, 104
3, 75240, Note_off_c, 2, 56, 0
3, 75240, Note_on_c, 2, 57, 104
3, 75600, Note_off_c, 2, 57, 0
3, 75600, Note_on_c, 2, 50, 104
3, 76320, Note_off_c, 2, 50, 0
3, 76320, Note_on_c, 2, 62, 104
3, 77760, Note_off_c, 2, 62, 0
3, 77760, Note_on_c, 2, 59, 104
3, 78120, Note_off_c, 2, 59, 0
3, 78120, Note_on_c, 2, 60, 104
3, 78480, Note_off_c, 2, 60, 0
3, 78480, Note_on_c, 2, 59, 104
3, 78840, Note_off_c, 2, 59, 0
3, 78840, Note_on_c, 2, 57, 104
3, 79200, Note_off_c, 2, 57, 0
3, 79200, Note_on_c, 2, 59, 104
3, 79560, Note_off_c, 2, 59, 0
3, 79560, Note_on_c, 2, 57, 104
3, 79920, Note_off_c, 2, 57, 0
3, 79920, Note_on_c, 2, 54, 104
3, 80640, Note_off_c, 2, 54, 0
3, 80640, Note_on_c, 2, 57, 104
3, 81360, Note_off_c, 2, 57, 0
3, 81360, Note_on_c, 2, 69, 104
3, 82080, Note_off_c, 2, 69, 0
3, 82080, Note_on_c, 2, 73, 104
3, 82800, Note_off_c, 2, 73, 0
3, 82800, Note_on_c, 2, 69, 104
3, 83160, Note_off_c, 2, 69, 0
3, 83160, Note_on_c, 2, 56, 104
3, 84240, Note_off_c, 2, 56, 0
3, 84240, Note_on_c, 2, 69, 104
3, 84960, Note_off_c, 2, 69, 0
3, 84960, Note_on_c, 2, 73, 104
3, 85320, Note_off_c, 2, 73, 0
3, 85320, Note_on_c, 2, 74, 104
3, 85680, Note_off_c, 2, 74, 0
3, 85680, Note_on_c, 2, 73, 104
3, 86040, Note_off_c, 2, 73, 0
3, 86040, Note_on_c, 2, 69, 104
3, 86400, Note_off_c, 2, 69, 0
3, 86400, Note_on_c, 2, 56, 104
3, 86760, Note_off_c, 2, 56, 0
3, 86760, Note_on_c, 2, 57, 104
3, 87120, Note_off_c, 2, 57, 0
3, 87120, Note_on_c, 2, 50, 104
3, 87840, Note_off_c, 2, 50, 0
3, 87840, Note_on_c, 2, 62, 104
3, 89280, Note_off_c, 2, 62, 0
3, 89280, Note_on_c, 2, 59, 104
3, 89640, Note_off_c, 2, 59, 0
3, 89640, Note_on_c, 2, 60, 104
3, 90000, Note_off_c, 2, 60, 0
3, 90000, Note_on_c, 2, 59, 104
3, 90360, Note_off_c, 2, 59, 0
3, 90360, Note_on_c, 2, 57, 104
3, 90720, Note_off_c, 2, 57, 0
3, 90720, Note_on_c, 2, 59, 104
3, 91080, Note_off_c, 2, 59, 0
3, 91080, Note_on_c, 2, 57, 104
3, 91440, Note_off_c, 2, 57, 0
3, 91440, Note_on_c, 2, 54, 104
3, 92160, Note_off_c, 2, 54, 0
3, 129600, Pitch_bend_c, 3, 7285
3, 129600, Note_on_c, 3, 64, 104
3, 129600, Note_on_c, 3, 69, 104
3, 129600, Note_on_c, 3, 73, 104
3, 129620, Pitch_bend_c, 3, 7401
3, 129640, Pitch_bend_c, 3, 7514
3, 129660, Pitch_bend_c, 3, 7627
3, 129680, Pitch_bend_c, 3, 7740
3, 129700, Pitch_bend_c, 3, 7853
3, 129720, Pitch_bend_c, 3, 7966
3, 129740, Pitch_bend_c, 3, 8079
3, 129760, Pitch_bend_c, 3, 8192
3, 129960, Note_off_c, 3, 73, 0
3, 129960, Note_off_c, 3, 69, 0
3, 129960, Note_off_c, 3, 64, 0
3, 129960, Note_on_c, 2, 64, 104
3, 129960, Note_on_c, 2, 69, 104
3, 129960, Note_on_c, 2, 73, 104
3, 130320, Note_off_c, 2, 73, 0
3, 130320, Note_off_c, 2, 69, 0
3, 130320, Note_off_c, 2, 64, 0
3, 130320, Note_on_c, 2, 64, 104
3, 130320, Note_on_c, 2, 69, 104
3, 130320, Note_on_c, 2, 73, 104
3, 130680, Note_off_c, 2, 73, 0
3, 130680, Note_off_c, 2, 69, 0
3, 130680, Note_off_c, 2, 64, 0
3, 130680, Note_on_c, 2, 64, 104
3, 130680, Note_on_c, 2, 69, 104
3, 130680, Note_on_c, 2, 73, 104
3, 131040, Note_off_c, 2, 73, 0
3, 131040, Note_off_c, 2, 69, 0
3, 131040, Pitch_bend_c, 3, 7285
3, 131040, Note_off_c, 2, 64, 0
3, 131040, Note_on_c, 3, 64, 104
3, 131040, Note_on_c, 3, 69, 104
3, 131040, Note_on_c, 3, 73, 104
3, 131060, Pitch_bend_c, 3, 7401
3, 131080, Pitch_bend_c, 3, 7514
3, 131100, Pitch_bend_c, 3, 7627
3, 131120, Pitch_bend_c, 3, 7740
3, 131140, Pitch_bend_c, 3, 7853
3, 131160, Pitch_bend_c, 3, 7966
3, 131180, Pitch_bend_c, 3, 8079
3, 131200, Pitch_bend_c, 3, 8192
3, 131400, Note_off_c, 3, 73, 0
3, 131400, Note_off_c, 3, 69, 0
3, 131400, Note_off_c, 3, 64, 0
3, 131400, Note_on_c, 2, 64, 104
3, 131400, Note_on_c, 2, 69, 104
3, 131400, Note_on_c, 2, 73, 104
3, 131760, Note_off_c, 2, 73, 0
3, 131760, Note_off_c, 2, 69, 0
3, 131760, Note_off_c, 2, 64, 0
3, 131760, Note_on_c, 2, 64, 104
3, 131760, Note_on_c, 2, 69, 104
3, 131760, Note_on_c, 2, 73, 104
3, 132120, Note_off_c, 2, 73, 0
3, 132120, Note_off_c, 2, 69, 0
3, 132120, Note_off_c, 2, 64, 0
3, 132120, Note_on_c, 2, 64, 104
3, 132120, Note_on_c, 2, 69, 104
3, 132120, Note_on_c, 2, 73, 104
3, 132480, Note_off_c, 2, 73, 0
3, 132480, Note_off_c, 2, 69, 0
3, 132480, Note_off_c, 2, 64, 0
3, 132480, Note_on_c, 2, 57, 104
3, 133200, Note_off_c, 2, 57, 0
3, 133200, Note_on_c, 2, 69, 104
3, 133920, Note_off_c, 2, 69, 0
3, 133920, Note_on_c, 2, 73, 104
3, 134640, Note_off_c, 2, 73, 0
3, 134640, Note_on_c, 2, 69, 104
3, 135000, Note_off_c, 2, 69, 0
3, 135000, Note_on_c, 2, 56, 104
3, 136080, Note_off_c, 2, 56, 0
3, 136080, Note_on_c, 2, 69, 104
3, 136800, Note_off_c, 2, 69, 0
3, 136800, Note_on_c, 2, 73, 104
3, 137160, Note_off_c, 2, 73, 0
3, 137160, Note_on_c, 2, 74, 104
3, 137520, Note_off_c, 2, 74, 0
3, 137520, Note_on_c, 2, 73, 104
3, 137880, Note_off_c, 2, 73, 0
3, 137880, Note_on_c, 2, 69, 104
3, 138240, Note_off_c, 2, 69, 0
3, 138240, Note_on_c, 2, 56, 104
3, 138600, Note_off_c, 2, 56, 0
3, 138600, Note_on_c, 2, 57, 104
3, 138960, Note_off_c, 2, 57, 0
3, 138960, Note_on_c, 2, 50, 104
3, 139680, Note_off_c, 2, 50, 0
3, 139680, Note_on_c, 2, 62, 104
3, 141120, Note_off_c, 2, 62, 0
3, 141120, Note_on_c, 2, 59, 104
3, 141480, Note_off_c, 2, 59, 0
3, 141480, Note_on_c, 2, 60, 104
3, 141840, Note_off_c, 2, 60, 0
3, 141840, Note_on_c, 2, 59, 104
3, 142200, Note_off_c, 2, 59, 0
3, 142200, Note_on_c, 2, 57, 104
3, 142560, Note_off_c, 2, 57, 0
3, 142560, Note_on_c, 2, 59, 104
3, 142920, Note_off_c, 2, 59, 0
3, 142920, Note_on_c, 2, 57, 104
3, 143280, Note_off_c, 2, 57, 0
3, 143280, Note_on_c, 2, 54, 104
3, 144000, Note_off_c, 2, 54, 0
3, 144000, Note_on_c, 2, 57, 104
3, 144720, Note_off_c, 2, 57, 0
3, 144720, Note_on_c, 2, 69, 104
3, 145440, Note_off_c, 2, 69, 0
3, 145440, Note_on_c, 2, 73, 104
3, 146160, Note_off_c, 2, 73, 0
3, 146160, Note_on_c, 2, 69, 104
3, 146520, Note_off_c, 2, 69, 0
3, 146520, Note_on_c, 2, 56, 104
3, 147600, Note_off_c, 2, 56, 0
3, 147600, Note_on_c, 2, 69, 104
3, 148320, Note_off_c, 2, 69, 0
3, 148320, Note_on_c, 2, 73, 104
3, 148680, Note_off_c, 2, 73, 0
3, 148680, Note_on_c, 2, 74, 104
3, 149040, Note_off_c, 2, 74, 0
3, 149040, Note_on_c, 2, 73, 104
3, 149400, Note_off_c, 2, 73, 0
3, 149400, Note_on_c, 2, 69, 104
3, 149760, Note_off_c, 2, 69, 0
3, 149760, Note_on_c, 2, 56, 104
3, 150120, Note_off_c, 2, 56, 0
3, 150120, Note_on_c, 2, 57, 104
3, 150480, Note_off_c, 2, 57, 0
3, 150480, Note_on_c, 2, 50, 104
3, 151200, Note_off_c, 2, 50, 0
3, 151200, Note_on_c, 2, 62, 104
3, 152640, Note_off_c, 2, 62, 0
3, 152640, Note_on_c, 2, 59, 104
3, 153000, Note_off_c, 2, 59, 0
3, 153000, Note_on_c, 2, 60, 104
3, 153360, Note_off_c, 2, 60, 0
3, 153360, Note_on_c, 2, 59, 104
3, 153720, Note_off_c, 2, 59, 0
3, 153720, Note_on_c, 2, 57, 104
3, 154080, Note_off_c, 2, 57, 0
3, 154080, Note_on_c, 2, 59, 104
3, 154440, Note_off_c, 2, 59, 0
3, 154440, Note_on_c, 2, 57, 104
3, 154800, Note_off_c, 2, 57, 0
3, 154800, Note_on_c, 2, 54, 104
3, 155520, Note_off_c, 2, 54, 0
3, 155520, Note_on_c, 2, 57, 104
3, 156240, Note_off_c, 2, 57, 0
3, 156240, Note_on_c, 2, 69, 104
3, 156960, Note_off_c, 2, 69, 0
3, 156960, Note_on_c, 2, 73, 104
3, 157680, Note_off_c, 2, 73, 0
3, 157680, Note_on_c, 2, 69, 104
3, 158040, Note_off_c, 2, 69, 0
3, 158040, Note_on_c, 2, 56, 104
3, 159120, Note_off_c, 2, 56, 0
3, 159120, Note_on_c, 2, 69, 104
3, 159840, Note_off_c, 2, 69, 0
3, 159840, Note_on_c, 2, 73, 104
3, 160200, Note_off_c, 2, 73, 0
3, 160200, Note_on_c, 2, 74, 104
3, 160560, Note_off_c, 2, 74, 0
3, 160560, Note_on_c, 2, 73, 104
3, 160920, Note_off_c, 2, 73, 0
3, 160920, Note_on_c, 2, 69, 104
3, 161280, Note_off_c, 2, 69, 0
3, 161280, Note_on_c, 2, 56, 104
3, 161640, Note_off_c, 2, 56, 0
3, 161640, Note_on_c, 2, 57, 104
3, 162000, Note_off_c, 2, 57, 0
3, 162000, Note_on_c, 2, 50, 104
3, 162720, Note_off_c, 2, 50, 0
3, 162720, Note_on_c, 2, 62, 104
3, 164160, Note_off_c, 2, 62, 0
3, 164160, Note_on_c, 2, 59, 104
3, 164520, Note_off_c, 2, 59, 0
3, 164520, Note_on_c, 2, 60, 104
3, 164880, Note_off_c, 2, 60, 0
3, 164880, Note_on_c, 2, 59, 104
3, 165240, Note_off_c, 2, 59, 0
3, 165240, Note_on_c, 2, 57, 104
3, 165600, Note_off_c, 2, 57, 0
3, 165600, Note_on_c, 2, 59, 104
3, 165960, Note_off_c, 2, 59, 0
3, 165960, Note_on_c, 2, 57, 104
3, 166320, Note_off_c, 2, 57, 0
3, 166320, Note_on_c, 2, 54, 104
3, 167040, Note_off_c, 2, 54, 0
3, 167040, Note_on_c, 2, 57, 104
3, 167760, Note_off_c, 2, 57, 0
3, 167760, Note_on_c, 2, 69, 104
3, 168480, Note_off_c, 2, 69, 0
3, 168480, Note_on_c, 2, 73, 104
3, 169200, Note_off_c, 2, 73, 0
3, 169200, Note_on_c, 2, 69, 104
3, 169560, Note_off_c, 2, 69, 0
3, 169560, Note_on_c, 2, 56, 104
3, 170640, Note_off_c, 2, 56, 0
3, 170640, Note_on_c, 2, 69, 104
3, 171360, Note_off_c, 2, 69, 0
3, 171360, Note_on_c, 2, 73, 104
3, 171720, Note_off_c, 2, 73, 0
3, 171720, Note_on_c, 2, 74, 104
3, 172080, Note_off_c, 2, 74, 0
3, 172080, Note_on_c, 2, 73, 104
3, 172440, Note_off_c, 2, 73, 0
3, 172440, Note_on_c, 2, 69, 104
3, 172800, Note_off_c, 2, 69, 0
3, 172800, Note_on_c, 2, 56, 104
3, 173160, Note_off_c, 2, 56, 0
3, 173160, Note_on_c, 2, 57, 104
3, 173520, Note_off_c, 2, 57, 0
3, 173520, Note_on_c, 2, 50, 104
3, 174240, Note_off_c, 2, 50, 0
3, 174240, Note_on_c, 2, 62, 104
3, 175680, Note_off_c, 2, 62, 0
3, 175680, Note_on_c, 2, 59, 104
3, 176040, Note_off_c, 2, 59, 0
3, 176040, Note_on_c, 2, 60, 104
3, 176400, Note_off_c, 2, 60, 0
3, 176400, Note_on_c, 2, 59, 104
3, 176760, Note_off_c, 2, 59, 0
3, 176760, Note_on_c, 2, 57, 104
3, 177120, Note_off_c, 2, 57, 0
3, 177120, Note_on_c, 2, 59, 104
3, 177480, Note_off_c, 2, 59, 0
3, 177480, Note_on_c, 2, 57, 104
3, 177840, Note_off_c, 2, 57, 0
3, 177840, Note_on_c, 2, 54, 104
3, 178560, Note_off_c, 2, 54, 0
3, 270720, Note_on_c, 2, 57, 104
3, 271440, Note_off_c, 2, 57, 0
3, 271440, Note_on_c, 2, 69, 104
3, 272160, Note_off_c, 2, 69, 0
3, 272160, Note_on_c, 2, 73, 104
3, 272880, Note_off_c, 2, 73, 0
3, 272880, Note_on_c, 2, 69, 104
3, 273240, Note_off_c, 2, 69, 0
3, 273240, Note_on_c, 2, 56, 104
3, 274320, Note_off_c, 2, 56, 0
3, 274320, Note_on_c, 2, 69, 104
3, 275040, Note_off_c, 2, 69, 0
3, 275040, Note_on_c, 2, 73, 104
3, 275400, Note_off_c, 2, 73, 0
3, 275400, Note_on_c, 2, 74, 104
3, 275760, Note_off_c, 2, 74, 0
3, 275760, Note_on_c, 2, 73, 104
3, 276120, Note_off_c, 2, 73, 0
3, 276120, Note_on_c, 2, 69, 104
3, 276480, Note_off_c, 2, 69, 0
3, 276480, Note_on_c, 2, 56, 104
3, 276840, Note_off_c, 2, 56, 0
3, 276840, Note_on_c, 2, 57, 104
3, 277200, Note_off_c, 2, 57, 0
3, 277200, Note_on_c, 2, 50, 104
3, 277920, Note_off_c, 2, 50, 0
3, 277920, Note_on_c, 2, 62, 104
3, 279360, Note_off_c, 2, 62, 0
3, 279360, Note_on_c, 2, 59, 104
3, 279720, Note_off_c, 2, 59, 0
3, 279720, Note_on_c, 2, 60, 104
3, 280080, Note_off_c, 2, 60, 0
3, 280080, Note_on_c, 2, 59, 104
3, 280440, Note_off_c, 2, 59, 0
3, 280440, Note_on_c, 2, 57, 104
3, 280800, Note_off_c, 2, 57, 0
3, 280800, Note_on_c, 2, 59, 104
3, 281160, Note_off_c, 2, 59, 0
3, 281160, Note_on_c, 2, 57, 104
3, 281520, Note_off_c, 2, 57, 0
3, 281520, Note_on_c, 2, 54, 104
3, 282240, Note_off_c, 2, 54, 0
3, 282240, Note_on_c, 2, 57, 104
3, 282960, Note_off_c, 2, 57, 0
3, 282960, Note_on_c, 2, 69, 104
3, 283680, Note_off_c, 2, 69, 0
3, 283680, Note_on_c, 2, 73, 104
3, 284400, Note_off_c, 2, 73, 0
3, 284400, Note_on_c, 2, 69, 104
3, 284760, Note_off_c, 2, 69, 0
3, 284760, Note_on_c, 2, 56, 104
3, 285840, Note_off_c, 2, 56, 0
3, 285840, Note_on_c, 2, 69, 104
3, 286560, Note_off_c, 2, 69, 0
3, 286560, Note_on_c, 2, 73, 104
3, 286920, Note_off_c, 2, 73, 0
3, 286920, Note_on_c, 2, 74, 104
3, 287280, Note_off_c, 2, 74, 0
3, 287280, Note_on_c, 2, 73, 104
3, 287640, Note_off_c, 2, 73, 0
3, 287640, Note_on_c, 2, 69, 104
3, 288000, Note_off_c, 2, 69, 0
3, 288000, Note_on_c, 2, 56, 104
3, 288360, Note_off_c, 2, 56, 0
3, 288360, Note_on_c, 2, 57, 104
3, 288720, Note_off_c, 2, 57, 0
3, 288720, Note_on_c, 2, 50, 104
3, 289440, Note_off_c, 2, 50, 0
3, 289440, Note_on_c, 2, 62, 104
3, 290880, Note_off_c, 2, 62, 0
3, 290880, Note_on_c, 2, 59, 104
3, 291240, Note_off_c, 2, 59, 0
3, 291240, Note_on_c, 2, 60, 104
3, 291600, Note_off_c, 2, 60, 0
3, 291600, Note_on_c, 2, 59, 104
3, 291960, Note_off_c, 2, 59, 0
3, 291960, Note_on_c, 2, 57, 104
3, 292320, Note_off_c, 2, 57, 0
3, 292320, Note_on_c, 2, 59, 104
3, 292680, Note_off_c, 2, 59, 0
3, 292680, Note_on_c, 2, 57, 104
3, 293040, Note_off_c, 2, 57, 0
3, 293040, Note_on_c, 2, 54, 104
3, 293760, Note_off_c, 2, 54, 0
3, 473040, Control_c, 2, 11, 120
3, 473040, Control_c, 3, 11, 120
3, 473760, Control_c, 2, 11, 112
3, 473760, Control_c, 3, 11, 112
3, 474480, Control_c, 2, 11, 104
3, 474480, Control_c, 3, 11, 104
3, 475200, Control_c, 2, 11, 96
3, 475200, Control_c, 3, 11, 96
3, 475920, Control_c, 2, 11, 88
3, 475920, Control_c, 3, 11, 88
3, 476640, Control_c, 2, 11, 80
3, 476640, Control_c, 3, 11, 80
3, 477360, Control_c, 2, 11, 72
3, 477360, Control_c, 3, 11, 72
3, 478080, Control_c, 2, 11, 64
3, 478080, Control_c, 3, 11, 64
3, 478800, Control_c, 2, 11, 56
3, 478800, Control_c, 3, 11, 56
3, 479520, Control_c, 2, 11, 48
3, 479520, Control_c, 3, 11, 48
3, 480240, Control_c, 2, 11, 40
3, 480240, Control_c, 3, 11, 40
3, 480960, Control_c, 2, 11, 32
3, 480960, Control_c, 3, 11, 32
3, 481680, Control_c, 2, 11, 24
3, 481680, Control_c, 3, 11, 24
3, 482400, Control_c, 2, 11, 16
3, 482400, Control_c, 3, 11, 16
3, 483120, Control_c, 2, 11, 8
3, 483120, Control_c, 3, 11, 8
3, 483120, End_track
4, 0, Start_track
4, 0, Control_c, 4, 7, 127
4, 0, Program_c, 4, 33
4, 0, Control_c, 4, 101, 0
4, 0, Control_c, 4, 100, 0
4, 0, Control_c, 4, 6, 24
4, 0, Control_c, 5, 7, 127
4, 0, Program_c, 5, 33
4, 0, Control_c, 5, 101, 0
4, 0, Control_c, 5, 100, 0
4, 0, Control_c, 5, 6, 24
4, 473040, Control_c, 4, 11, 120
4, 473040, Control_c, 5, 11, 120
4, 473760, Control_c, 4, 11, 112
4, 473760, Control_c, 5, 11, 112
4, 474480, Control_c, 4, 11, 104
4, 474480, Control_c, 5, 11, 104
4, 475200, Control_c, 4, 11, 96
4, 475200, Control_c, 5, 11, 96
4, 475920, Control_c, 4, 11, 88
4, 475920, Control_c, 5, 11, 88
4, 476640, Control_c, 4, 11, 80
4, 476640, Control_c, 5, 11, 80
4, 477360, Control_c, 4, 11, 72
4, 477360, Control_c, 5, 11, 72
4, 478080, Control_c, 4, 11, 64
4, 478080, Control_c, 5, 11, 64
4, 478800, Control_c, 4, 11, 56
4, 478800, Control_c, 5, 11, 56
4, 479520, Control_c, 4, 11, 48
4, 479520, Control_c, 5, 11, 48
4, 480240, Control_c, 4, 11, 40
4, 480240, Control_c, 5, 11, 40
4, 480960, Control_c, 4, 11, 32
4, 480960, Control_c, 5, 11, 32
4, 481680, Control_c, 4, 11, 24
4, 481680, Control_c, 5, 11, 24
4, 482400, Control_c, 4, 11, 16
4, 482400, Control_c, 5, 11, 16
4, 483120, Control_c, 4, 11, 8
4, 483120, Control_c, 5, 11, 8
4, 483120, End_track
0, 0, End_of_file
