0, 0, Header, 1, 11, 192
1, 0, Start_track
1, 0, Title_t, "Coffee & Tv"
1, 0, Text_t, "By Blur"
1, 0, Copyright_t, "farsight007@home.com"
1, 0, Copyright_t, "Sequenced by Tyler Abbott (farsight007@home.com)"
1, 0, Text_t, "Generated by NoteWorthy Composer"
1, 0, Tempo, 491803
1, 4608, Time_signature, 5, 2, 24, 8
1, 5568, Time_signature, 4, 2, 24, 8
1, 126912, Tempo, 645161
1, 129984, Tempo, 645161
1, 133056, Tempo, 645161
1, 133056, End_track
2, 0, Start_track
2, 0, MIDI_port, 0
2, 0, Title_t, "Staff-1"
2, 0, Program_c, 1, 26
2, 0, Control_c, 1, 7, 127
2, 0, Control_c, 1, 10, 64
2, 0, Note_on_c, 1, 50, 110
2, 336, Note_on_c, 1, 50, 0
2, 384, Note_on_c, 1, 55, 110
2, 720, Note_on_c, 1, 55, 0
2, 768, Note_on_c, 1, 60, 110
2, 1104, Note_on_c, 1, 60, 0
2, 1152, Note_on_c, 1, 57, 110
2, 1440, Pitch_bend_c, 1, 8192
2, 1441, Pitch_bend_c, 1, 8256
2, 1442, Pitch_bend_c, 1, 8320
2, 1443, Pitch_bend_c, 1, 8352
2, 1444, Pitch_bend_c, 1, 8416
2, 1445, Pitch_bend_c, 1, 8480
2, 1446, Pitch_bend_c, 1, 8512
2, 1447, Pitch_bend_c, 1, 8576
2, 1448, Pitch_bend_c, 1, 8640
2, 1449, Pitch_bend_c, 1, 8672
2, 1450, Pitch_bend_c, 1, 8736
2, 1451, Pitch_bend_c, 1, 8800
2, 1452, Pitch_bend_c, 1, 8832
2, 1453, Pitch_bend_c, 1, 8896
2, 1454, Pitch_bend_c, 1, 8960
2, 1455, Pitch_bend_c, 1, 8992
2, 1456, Pitch_bend_c, 1, 9056
2, 1457, Pitch_bend_c, 1, 9120
2, 1458, Pitch_bend_c, 1, 9152
2, 1459, Pitch_bend_c, 1, 9216
2, 1460, Pitch_bend_c, 1, 9280
2, 1461, Pitch_bend_c, 1, 9312
2, 1462, Pitch_bend_c, 1, 9376
2, 1463, Pitch_bend_c, 1, 9440
2, 1464, Pitch_bend_c, 1, 9472
2, 1465, Pitch_bend_c, 1, 9536
2, 1466, Pitch_bend_c, 1, 9600
2, 1467, Pitch_bend_c, 1, 9632
2, 1468, Pitch_bend_c, 1, 9696
2, 1469, Pitch_bend_c, 1, 9760
2, 1470, Pitch_bend_c, 1, 9792
2, 1471, Pitch_bend_c, 1, 9856
2, 1472, Pitch_bend_c, 1, 9920
2, 1473, Pitch_bend_c, 1, 9952
2, 1474, Pitch_bend_c, 1, 10016
2, 1475, Pitch_bend_c, 1, 10080
2, 1476, Pitch_bend_c, 1, 10112
2, 1477, Pitch_bend_c, 1, 10176
2, 1478, Pitch_bend_c, 1, 10240
2, 1479, Pitch_bend_c, 1, 10272
2, 1480, Pitch_bend_c, 1, 10336
2, 1481, Pitch_bend_c, 1, 10400
2, 1482, Pitch_bend_c, 1, 10432
2, 1483, Pitch_bend_c, 1, 10496
2, 1484, Pitch_bend_c, 1, 10560
2, 1485, Pitch_bend_c, 1, 10592
2, 1486, Pitch_bend_c, 1, 10656
2, 1487, Pitch_bend_c, 1, 10720
2, 1488, Pitch_bend_c, 1, 10753
2, 1534, Note_on_c, 1, 57, 0
2, 1536, Pitch_bend_c, 1, 8192
2, 1536, Note_on_c, 1, 58, 110
2, 1536, Note_on_c, 1, 69, 110
2, 1696, Note_on_c, 1, 58, 0
2, 1792, Note_on_c, 1, 69, 0
2, 1824, Note_on_c, 1, 62, 110
2, 1918, Note_on_c, 1, 62, 0
2, 1920, Note_on_c, 1, 65, 110
2, 2080, Note_on_c, 1, 65, 0
2, 2112, Note_on_c, 1, 67, 110
2, 2272, Note_on_c, 1, 67, 0
2, 2304, Note_on_c, 1, 64, 110
2, 2304, Note_on_c, 1, 70, 110
2, 2464, Note_on_c, 1, 64, 0
2, 2464, Note_on_c, 1, 70, 0
2, 2496, Note_on_c, 1, 65, 110
2, 2656, Note_on_c, 1, 65, 0
2, 2688, Note_on_c, 1, 62, 110
2, 2782, Note_on_c, 1, 62, 0
2, 2784, Note_on_c, 1, 72, 110
2, 2878, Note_on_c, 1, 72, 0
2, 2880, Note_on_c, 1, 64, 110
2, 3040, Note_on_c, 1, 64, 0
2, 3072, Note_on_c, 1, 72, 110
2, 3072, Note_on_c, 1, 77, 110
2, 3232, Note_on_c, 1, 72, 0
2, 3232, Note_on_c, 1, 77, 0
2, 3264, Note_on_c, 1, 69, 110
2, 3424, Note_on_c, 1, 69, 0
2, 3456, Note_on_c, 1, 70, 110
2, 3616, Note_on_c, 1, 70, 0
2, 3648, Note_on_c, 1, 77, 110
2, 3808, Note_on_c, 1, 77, 0
2, 3840, Control_c, 1, 7, 64
2, 3840, Note_on_c, 1, 82, 110
2, 3886, Note_on_c, 1, 82, 0
2, 3888, Control_c, 1, 7, 63
2, 3888, Note_on_c, 1, 70, 110
2, 3936, Control_c, 1, 7, 62
2, 3984, Control_c, 1, 7, 61
2, 4032, Control_c, 1, 7, 60
2, 4048, Note_on_c, 1, 70, 0
2, 4080, Control_c, 1, 7, 59
2, 4128, Control_c, 1, 7, 58
2, 4176, Control_c, 1, 7, 57
2, 4224, Control_c, 1, 7, 56
2, 4272, Control_c, 1, 7, 55
2, 4320, Control_c, 1, 7, 54
2, 4320, Note_on_c, 1, 77, 110
2, 4368, Control_c, 1, 7, 53
2, 4414, Note_on_c, 1, 77, 0
2, 4416, Control_c, 1, 7, 52
2, 4416, Note_on_c, 1, 76, 110
2, 4464, Control_c, 1, 7, 51
2, 4510, Note_on_c, 1, 76, 0
2, 4512, Control_c, 1, 7, 50
2, 4512, Note_on_c, 1, 69, 110
2, 4512, Note_on_c, 1, 82, 110
2, 4560, Control_c, 1, 7, 49
2, 4606, Note_on_c, 1, 69, 0
2, 4606, Note_on_c, 1, 82, 0
2, 4608, Control_c, 1, 7, 48
2, 4608, Note_on_c, 1, 76, 110
2, 4702, Note_on_c, 1, 76, 0
2, 4704, Control_c, 1, 7, 48
2, 4704, Note_on_c, 1, 71, 110
2, 4704, Note_on_c, 1, 82, 110
2, 4763, Control_c, 1, 7, 47
2, 4822, Control_c, 1, 7, 46
2, 4881, Control_c, 1, 7, 45
2, 4894, Note_on_c, 1, 71, 0
2, 4894, Note_on_c, 1, 82, 0
2, 4940, Control_c, 1, 7, 44
2, 4992, Note_on_c, 1, 81, 110
2, 4999, Control_c, 1, 7, 43
2, 5058, Control_c, 1, 7, 42
2, 5086, Note_on_c, 1, 81, 0
2, 5088, Note_on_c, 1, 83, 110
2, 5117, Control_c, 1, 7, 41
2, 5176, Control_c, 1, 7, 40
2, 5182, Note_on_c, 1, 83, 0
2, 5184, Control_c, 1, 7, 64
2, 5232, Control_c, 1, 7, 64
2, 5235, Control_c, 1, 7, 39
2, 5294, Control_c, 1, 7, 38
2, 5353, Control_c, 1, 7, 37
2, 5412, Control_c, 1, 7, 36
2, 5472, Control_c, 1, 7, 35
2, 5568, Note_on_c, 1, 59, 110
2, 5568, Note_on_c, 1, 63, 110
2, 5568, Note_on_c, 1, 66, 110
2, 5662, Note_on_c, 1, 59, 0
2, 5662, Note_on_c, 1, 63, 0
2, 5662, Note_on_c, 1, 66, 0
2, 5664, Note_on_c, 1, 59, 110
2, 5664, Note_on_c, 1, 63, 110
2, 5664, Note_on_c, 1, 66, 110
2, 5758, Note_on_c, 1, 59, 0
2, 5758, Note_on_c, 1, 63, 0
2, 5758, Note_on_c, 1, 66, 0
2, 5856, Note_on_c, 1, 59, 110
2, 5856, Note_on_c, 1, 63, 110
2, 5856, Note_on_c, 1, 66, 110
2, 5950, Note_on_c, 1, 59, 0
2, 5950, Note_on_c, 1, 63, 0
2, 5950, Note_on_c, 1, 66, 0
2, 5952, Note_on_c, 1, 59, 110
2, 5952, Note_on_c, 1, 63, 110
2, 5952, Note_on_c, 1, 66, 110
2, 6046, Note_on_c, 1, 59, 0
2, 6046, Note_on_c, 1, 63, 0
2, 6046, Note_on_c, 1, 66, 0
2, 6048, Note_on_c, 1, 59, 110
2, 6048, Note_on_c, 1, 63, 110
2, 6048, Note_on_c, 1, 66, 110
2, 6142, Note_on_c, 1, 59, 0
2, 6142, Note_on_c, 1, 63, 0
2, 6142, Note_on_c, 1, 66, 0
2, 6240, Note_on_c, 1, 59, 110
2, 6240, Note_on_c, 1, 63, 110
2, 6240, Note_on_c, 1, 66, 110
2, 6334, Note_on_c, 1, 59, 0
2, 6334, Note_on_c, 1, 63, 0
2, 6334, Note_on_c, 1, 66, 0
2, 6336, Note_on_c, 1, 59, 110
2, 6336, Note_on_c, 1, 63, 110
2, 6336, Note_on_c, 1, 66, 110
2, 6430, Note_on_c, 1, 59, 0
2, 6430, Note_on_c, 1, 63, 0
2, 6430, Note_on_c, 1, 66, 0
2, 6432, Note_on_c, 1, 59, 110
2, 6432, Note_on_c, 1, 63, 110
2, 6432, Note_on_c, 1, 66, 110
2, 6526, Note_on_c, 1, 59, 0
2, 6526, Note_on_c, 1, 63, 0
2, 6526, Note_on_c, 1, 66, 0
2, 6624, Note_on_c, 1, 59, 110
2, 6624, Note_on_c, 1, 63, 110
2, 6624, Note_on_c, 1, 66, 110
2, 6718, Note_on_c, 1, 59, 0
2, 6718, Note_on_c, 1, 63, 0
2, 6718, Note_on_c, 1, 66, 0
2, 6720, Note_on_c, 1, 59, 110
2, 6720, Note_on_c, 1, 63, 110
2, 6720, Note_on_c, 1, 66, 110
2, 6814, Note_on_c, 1, 59, 0
2, 6814, Note_on_c, 1, 63, 0
2, 6814, Note_on_c, 1, 66, 0
2, 6816, Note_on_c, 1, 59, 110
2, 6816, Note_on_c, 1, 63, 110
2, 6816, Note_on_c, 1, 66, 110
2, 6910, Note_on_c, 1, 59, 0
2, 6910, Note_on_c, 1, 63, 0
2, 6910, Note_on_c, 1, 66, 0
2, 7104, Note_on_c, 1, 57, 110
2, 7104, Note_on_c, 1, 60, 110
2, 7104, Note_on_c, 1, 64, 110
2, 7198, Note_on_c, 1, 57, 0
2, 7198, Note_on_c, 1, 60, 0
2, 7198, Note_on_c, 1, 64, 0
2, 7200, Note_on_c, 1, 57, 110
2, 7200, Note_on_c, 1, 60, 110
2, 7200, Note_on_c, 1, 64, 110
2, 7294, Note_on_c, 1, 57, 0
2, 7294, Note_on_c, 1, 60, 0
2, 7294, Note_on_c, 1, 64, 0
2, 7392, Note_on_c, 1, 57, 110
2, 7392, Note_on_c, 1, 60, 110
2, 7392, Note_on_c, 1, 64, 110
2, 7486, Note_on_c, 1, 57, 0
2, 7486, Note_on_c, 1, 60, 0
2, 7486, Note_on_c, 1, 64, 0
2, 7488, Note_on_c, 1, 57, 110
2, 7488, Note_on_c, 1, 60, 110
2, 7488, Note_on_c, 1, 64, 110
2, 7582, Note_on_c, 1, 57, 0
2, 7582, Note_on_c, 1, 60, 0
2, 7582, Note_on_c, 1, 64, 0
2, 7584, Note_on_c, 1, 57, 110
2, 7584, Note_on_c, 1, 60, 110
2, 7584, Note_on_c, 1, 64, 110
2, 7678, Note_on_c, 1, 57, 0
2, 7678, Note_on_c, 1, 60, 0
2, 7678, Note_on_c, 1, 64, 0
2, 7872, Note_on_c, 1, 59, 110
2, 7872, Note_on_c, 1, 64, 110
2, 7872, Note_on_c, 1, 68, 110
2, 7966, Note_on_c, 1, 59, 0
2, 7966, Note_on_c, 1, 64, 0
2, 7966, Note_on_c, 1, 68, 0
2, 7968, Note_on_c, 1, 59, 110
2, 7968, Note_on_c, 1, 64, 110
2, 7968, Note_on_c, 1, 68, 110
2, 8062, Note_on_c, 1, 59, 0
2, 8062, Note_on_c, 1, 64, 0
2, 8062, Note_on_c, 1, 68, 0
2, 8160, Note_on_c, 1, 59, 110
2, 8160, Note_on_c, 1, 64, 110
2, 8160, Note_on_c, 1, 68, 110
2, 8254, Note_on_c, 1, 59, 0
2, 8254, Note_on_c, 1, 64, 0
2, 8254, Note_on_c, 1, 68, 0
2, 8256, Note_on_c, 1, 59, 110
2, 8256, Note_on_c, 1, 64, 110
2, 8256, Note_on_c, 1, 68, 110
2, 8350, Note_on_c, 1, 59, 0
2, 8350, Note_on_c, 1, 64, 0
2, 8350, Note_on_c, 1, 68, 0
2, 8352, Note_on_c, 1, 59, 110
2, 8352, Note_on_c, 1, 64, 110
2, 8352, Note_on_c, 1, 68, 110
2, 8446, Note_on_c, 1, 59, 0
2, 8446, Note_on_c, 1, 64, 0
2, 8446, Note_on_c, 1, 68, 0
2, 8640, Note_on_c, 1, 55, 110
2, 8640, Note_on_c, 1, 59, 110
2, 8640, Note_on_c, 1, 62, 110
2, 8734, Note_on_c, 1, 55, 0
2, 8734, Note_on_c, 1, 59, 0
2, 8734, Note_on_c, 1, 62, 0
2, 8736, Note_on_c, 1, 55, 110
2, 8736, Note_on_c, 1, 59, 110
2, 8736, Note_on_c, 1, 62, 110
2, 8830, Note_on_c, 1, 55, 0
2, 8830, Note_on_c, 1, 59, 0
2, 8830, Note_on_c, 1, 62, 0
2, 8928, Note_on_c, 1, 55, 110
2, 8928, Note_on_c, 1, 59, 110
2, 8928, Note_on_c, 1, 62, 110
2, 9022, Note_on_c, 1, 55, 0
2, 9022, Note_on_c, 1, 59, 0
2, 9022, Note_on_c, 1, 62, 0
2, 9024, Note_on_c, 1, 55, 110
2, 9024, Note_on_c, 1, 59, 110
2, 9024, Note_on_c, 1, 62, 110
2, 9118, Note_on_c, 1, 55, 0
2, 9118, Note_on_c, 1, 59, 0
2, 9118, Note_on_c, 1, 62, 0
2, 9120, Note_on_c, 1, 55, 110
2, 9120, Note_on_c, 1, 59, 110
2, 9120, Note_on_c, 1, 62, 110
2, 9214, Note_on_c, 1, 55, 0
2, 9214, Note_on_c, 1, 59, 0
2, 9214, Note_on_c, 1, 62, 0
2, 9408, Note_on_c, 1, 53, 110
2, 9408, Note_on_c, 1, 57, 110
2, 9408, Note_on_c, 1, 59, 110
2, 9408, Note_on_c, 1, 60, 110
2, 9502, Note_on_c, 1, 53, 0
2, 9502, Note_on_c, 1, 57, 0
2, 9502, Note_on_c, 1, 59, 0
2, 9502, Note_on_c, 1, 60, 0
2, 9504, Note_on_c, 1, 53, 110
2, 9504, Note_on_c, 1, 57, 110
2, 9504, Note_on_c, 1, 59, 110
2, 9504, Note_on_c, 1, 60, 110
2, 9598, Note_on_c, 1, 53, 0
2, 9598, Note_on_c, 1, 57, 0
2, 9598, Note_on_c, 1, 59, 0
2, 9598, Note_on_c, 1, 60, 0
2, 9696, Note_on_c, 1, 53, 110
2, 9696, Note_on_c, 1, 57, 110
2, 9696, Note_on_c, 1, 59, 110
2, 9696, Note_on_c, 1, 60, 110
2, 9790, Note_on_c, 1, 53, 0
2, 9790, Note_on_c, 1, 57, 0
2, 9790, Note_on_c, 1, 59, 0
2, 9790, Note_on_c, 1, 60, 0
2, 9792, Note_on_c, 1, 53, 110
2, 9792, Note_on_c, 1, 57, 110
2, 9792, Note_on_c, 1, 59, 110
2, 9792, Note_on_c, 1, 60, 110
2, 9886, Note_on_c, 1, 53, 0
2, 9886, Note_on_c, 1, 57, 0
2, 9886, Note_on_c, 1, 59, 0
2, 9886, Note_on_c, 1, 60, 0
2, 9888, Note_on_c, 1, 53, 110
2, 9888, Note_on_c, 1, 57, 110
2, 9888, Note_on_c, 1, 59, 110
2, 9888, Note_on_c, 1, 60, 110
2, 9982, Note_on_c, 1, 53, 0
2, 9982, Note_on_c, 1, 57, 0
2, 9982, Note_on_c, 1, 59, 0
2, 9982, Note_on_c, 1, 60, 0
2, 10176, Note_on_c, 1, 58, 110
2, 10176, Note_on_c, 1, 62, 110
2, 10176, Note_on_c, 1, 65, 110
2, 10270, Note_on_c, 1, 58, 0
2, 10270, Note_on_c, 1, 62, 0
2, 10270, Note_on_c, 1, 65, 0
2, 10272, Note_on_c, 1, 58, 110
2, 10272, Note_on_c, 1, 62, 110
2, 10272, Note_on_c, 1, 65, 110
2, 10366, Note_on_c, 1, 58, 0
2, 10366, Note_on_c, 1, 62, 0
2, 10366, Note_on_c, 1, 65, 0
2, 10464, Note_on_c, 1, 58, 110
2, 10464, Note_on_c, 1, 62, 110
2, 10464, Note_on_c, 1, 65, 110
2, 10558, Note_on_c, 1, 58, 0
2, 10558, Note_on_c, 1, 62, 0
2, 10558, Note_on_c, 1, 65, 0
2, 10560, Note_on_c, 1, 58, 110
2, 10560, Note_on_c, 1, 62, 110
2, 10560, Note_on_c, 1, 65, 110
2, 10654, Note_on_c, 1, 58, 0
2, 10654, Note_on_c, 1, 62, 0
2, 10654, Note_on_c, 1, 65, 0
2, 10656, Note_on_c, 1, 58, 110
2, 10656, Note_on_c, 1, 62, 110
2, 10656, Note_on_c, 1, 65, 110
2, 10750, Note_on_c, 1, 58, 0
2, 10750, Note_on_c, 1, 62, 0
2, 10750, Note_on_c, 1, 65, 0
2, 10944, Note_on_c, 1, 61, 110
2, 10944, Note_on_c, 1, 65, 110
2, 10944, Note_on_c, 1, 68, 110
2, 11038, Note_on_c, 1, 61, 0
2, 11038, Note_on_c, 1, 65, 0
2, 11038, Note_on_c, 1, 68, 0
2, 11040, Note_on_c, 1, 61, 110
2, 11040, Note_on_c, 1, 65, 110
2, 11040, Note_on_c, 1, 68, 110
2, 11134, Note_on_c, 1, 61, 0
2, 11134, Note_on_c, 1, 65, 0
2, 11134, Note_on_c, 1, 68, 0
2, 11232, Note_on_c, 1, 61, 110
2, 11232, Note_on_c, 1, 65, 110
2, 11232, Note_on_c, 1, 68, 110
2, 11326, Note_on_c, 1, 61, 0
2, 11326, Note_on_c, 1, 65, 0
2, 11326, Note_on_c, 1, 68, 0
2, 11328, Note_on_c, 1, 61, 110
2, 11328, Note_on_c, 1, 65, 110
2, 11328, Note_on_c, 1, 68, 110
2, 11422, Note_on_c, 1, 61, 0
2, 11422, Note_on_c, 1, 65, 0
2, 11422, Note_on_c, 1, 68, 0
2, 11424, Note_on_c, 1, 61, 110
2, 11424, Note_on_c, 1, 65, 110
2, 11424, Note_on_c, 1, 68, 110
2, 11518, Note_on_c, 1, 61, 0
2, 11518, Note_on_c, 1, 65, 0
2, 11518, Note_on_c, 1, 68, 0
2, 11712, Note_on_c, 1, 59, 110
2, 11712, Note_on_c, 1, 63, 110
2, 11712, Note_on_c, 1, 66, 110
2, 11806, Note_on_c, 1, 59, 0
2, 11806, Note_on_c, 1, 63, 0
2, 11806, Note_on_c, 1, 66, 0
2, 11808, Note_on_c, 1, 59, 110
2, 11808, Note_on_c, 1, 63, 110
2, 11808, Note_on_c, 1, 66, 110
2, 11902, Note_on_c, 1, 59, 0
2, 11902, Note_on_c, 1, 63, 0
2, 11902, Note_on_c, 1, 66, 0
2, 12000, Note_on_c, 1, 59, 110
2, 12000, Note_on_c, 1, 63, 110
2, 12000, Note_on_c, 1, 66, 110
2, 12094, Note_on_c, 1, 59, 0
2, 12094, Note_on_c, 1, 63, 0
2, 12094, Note_on_c, 1, 66, 0
2, 12096, Note_on_c, 1, 59, 110
2, 12096, Note_on_c, 1, 63, 110
2, 12096, Note_on_c, 1, 66, 110
2, 12190, Note_on_c, 1, 59, 0
2, 12190, Note_on_c, 1, 63, 0
2, 12190, Note_on_c, 1, 66, 0
2, 12192, Note_on_c, 1, 59, 110
2, 12192, Note_on_c, 1, 63, 110
2, 12192, Note_on_c, 1, 66, 110
2, 12286, Note_on_c, 1, 59, 0
2, 12286, Note_on_c, 1, 63, 0
2, 12286, Note_on_c, 1, 66, 0
2, 12384, Note_on_c, 1, 59, 110
2, 12384, Note_on_c, 1, 63, 110
2, 12384, Note_on_c, 1, 66, 110
2, 12478, Note_on_c, 1, 59, 0
2, 12478, Note_on_c, 1, 63, 0
2, 12478, Note_on_c, 1, 66, 0
2, 12480, Note_on_c, 1, 59, 110
2, 12480, Note_on_c, 1, 63, 110
2, 12480, Note_on_c, 1, 66, 110
2, 12574, Note_on_c, 1, 59, 0
2, 12574, Note_on_c, 1, 63, 0
2, 12574, Note_on_c, 1, 66, 0
2, 12576, Note_on_c, 1, 59, 110
2, 12576, Note_on_c, 1, 63, 110
2, 12576, Note_on_c, 1, 66, 110
2, 12670, Note_on_c, 1, 59, 0
2, 12670, Note_on_c, 1, 63, 0
2, 12670, Note_on_c, 1, 66, 0
2, 12768, Note_on_c, 1, 59, 110
2, 12768, Note_on_c, 1, 63, 110
2, 12768, Note_on_c, 1, 66, 110
2, 12862, Note_on_c, 1, 59, 0
2, 12862, Note_on_c, 1, 63, 0
2, 12862, Note_on_c, 1, 66, 0
2, 12864, Note_on_c, 1, 59, 110
2, 12864, Note_on_c, 1, 63, 110
2, 12864, Note_on_c, 1, 66, 110
2, 12958, Note_on_c, 1, 59, 0
2, 12958, Note_on_c, 1, 63, 0
2, 12958, Note_on_c, 1, 66, 0
2, 12960, Note_on_c, 1, 59, 110
2, 12960, Note_on_c, 1, 63, 110
2, 12960, Note_on_c, 1, 66, 110
2, 13054, Note_on_c, 1, 59, 0
2, 13054, Note_on_c, 1, 63, 0
2, 13054, Note_on_c, 1, 66, 0
2, 13248, Note_on_c, 1, 57, 110
2, 13248, Note_on_c, 1, 60, 110
2, 13248, Note_on_c, 1, 64, 110
2, 13342, Note_on_c, 1, 57, 0
2, 13342, Note_on_c, 1, 60, 0
2, 13342, Note_on_c, 1, 64, 0
2, 13344, Note_on_c, 1, 57, 110
2, 13344, Note_on_c, 1, 60, 110
2, 13344, Note_on_c, 1, 64, 110
2, 13438, Note_on_c, 1, 57, 0
2, 13438, Note_on_c, 1, 60, 0
2, 13438, Note_on_c, 1, 64, 0
2, 13536, Note_on_c, 1, 57, 110
2, 13536, Note_on_c, 1, 60, 110
2, 13536, Note_on_c, 1, 64, 110
2, 13630, Note_on_c, 1, 57, 0
2, 13630, Note_on_c, 1, 60, 0
2, 13630, Note_on_c, 1, 64, 0
2, 13632, Note_on_c, 1, 57, 110
2, 13632, Note_on_c, 1, 60, 110
2, 13632, Note_on_c, 1, 64, 110
2, 13726, Note_on_c, 1, 57, 0
2, 13726, Note_on_c, 1, 60, 0
2, 13726, Note_on_c, 1, 64, 0
2, 13728, Note_on_c, 1, 57, 110
2, 13728, Note_on_c, 1, 60, 110
2, 13728, Note_on_c, 1, 64, 110
2, 13822, Note_on_c, 1, 57, 0
2, 13822, Note_on_c, 1, 60, 0
2, 13822, Note_on_c, 1, 64, 0
2, 14016, Note_on_c, 1, 59, 110
2, 14016, Note_on_c, 1, 64, 110
2, 14016, Note_on_c, 1, 68, 110
2, 14110, Note_on_c, 1, 59, 0
2, 14110, Note_on_c, 1, 64, 0
2, 14110, Note_on_c, 1, 68, 0
2, 14112, Note_on_c, 1, 59, 110
2, 14112, Note_on_c, 1, 64, 110
2, 14112, Note_on_c, 1, 68, 110
2, 14206, Note_on_c, 1, 59, 0
2, 14206, Note_on_c, 1, 64, 0
2, 14206, Note_on_c, 1, 68, 0
2, 14304, Note_on_c, 1, 59, 110
2, 14304, Note_on_c, 1, 64, 110
2, 14304, Note_on_c, 1, 68, 110
2, 14398, Note_on_c, 1, 59, 0
2, 14398, Note_on_c, 1, 64, 0
2, 14398, Note_on_c, 1, 68, 0
2, 14400, Note_on_c, 1, 59, 110
2, 14400, Note_on_c, 1, 64, 110
2, 14400, Note_on_c, 1, 68, 110
2, 14494, Note_on_c, 1, 59, 0
2, 14494, Note_on_c, 1, 64, 0
2, 14494, Note_on_c, 1, 68, 0
2, 14496, Note_on_c, 1, 59, 110
2, 14496, Note_on_c, 1, 64, 110
2, 14496, Note_on_c, 1, 68, 110
2, 14590, Note_on_c, 1, 59, 0
2, 14590, Note_on_c, 1, 64, 0
2, 14590, Note_on_c, 1, 68, 0
2, 14784, Note_on_c, 1, 55, 110
2, 14784, Note_on_c, 1, 59, 110
2, 14784, Note_on_c, 1, 62, 110
2, 14878, Note_on_c, 1, 55, 0
2, 14878, Note_on_c, 1, 59, 0
2, 14878, Note_on_c, 1, 62, 0
2, 14880, Note_on_c, 1, 55, 110
2, 14880, Note_on_c, 1, 59, 110
2, 14880, Note_on_c, 1, 62, 110
2, 14974, Note_on_c, 1, 55, 0
2, 14974, Note_on_c, 1, 59, 0
2, 14974, Note_on_c, 1, 62, 0
2, 15072, Note_on_c, 1, 55, 110
2, 15072, Note_on_c, 1, 59, 110
2, 15072, Note_on_c, 1, 62, 110
2, 15166, Note_on_c, 1, 55, 0
2, 15166, Note_on_c, 1, 59, 0
2, 15166, Note_on_c, 1, 62, 0
2, 15168, Note_on_c, 1, 55, 110
2, 15168, Note_on_c, 1, 59, 110
2, 15168, Note_on_c, 1, 62, 110
2, 15262, Note_on_c, 1, 55, 0
2, 15262, Note_on_c, 1, 59, 0
2, 15262, Note_on_c, 1, 62, 0
2, 15264, Note_on_c, 1, 55, 110
2, 15264, Note_on_c, 1, 59, 110
2, 15264, Note_on_c, 1, 62, 110
2, 15358, Note_on_c, 1, 55, 0
2, 15358, Note_on_c, 1, 59, 0
2, 15358, Note_on_c, 1, 62, 0
2, 15552, Note_on_c, 1, 53, 110
2, 15552, Note_on_c, 1, 57, 110
2, 15552, Note_on_c, 1, 59, 110
2, 15552, Note_on_c, 1, 60, 110
2, 15646, Note_on_c, 1, 53, 0
2, 15646, Note_on_c, 1, 57, 0
2, 15646, Note_on_c, 1, 59, 0
2, 15646, Note_on_c, 1, 60, 0
2, 15648, Note_on_c, 1, 53, 110
2, 15648, Note_on_c, 1, 57, 110
2, 15648, Note_on_c, 1, 59, 110
2, 15648, Note_on_c, 1, 60, 110
2, 15742, Note_on_c, 1, 53, 0
2, 15742, Note_on_c, 1, 57, 0
2, 15742, Note_on_c, 1, 59, 0
2, 15742, Note_on_c, 1, 60, 0
2, 15840, Note_on_c, 1, 53, 110
2, 15840, Note_on_c, 1, 57, 110
2, 15840, Note_on_c, 1, 59, 110
2, 15840, Note_on_c, 1, 60, 110
2, 15934, Note_on_c, 1, 53, 0
2, 15934, Note_on_c, 1, 57, 0
2, 15934, Note_on_c, 1, 59, 0
2, 15934, Note_on_c, 1, 60, 0
2, 15936, Note_on_c, 1, 53, 110
2, 15936, Note_on_c, 1, 57, 110
2, 15936, Note_on_c, 1, 59, 110
2, 15936, Note_on_c, 1, 60, 110
2, 16030, Note_on_c, 1, 53, 0
2, 16030, Note_on_c, 1, 57, 0
2, 16030, Note_on_c, 1, 59, 0
2, 16030, Note_on_c, 1, 60, 0
2, 16032, Note_on_c, 1, 53, 110
2, 16032, Note_on_c, 1, 57, 110
2, 16032, Note_on_c, 1, 59, 110
2, 16032, Note_on_c, 1, 60, 110
2, 16126, Note_on_c, 1, 53, 0
2, 16126, Note_on_c, 1, 57, 0
2, 16126, Note_on_c, 1, 59, 0
2, 16126, Note_on_c, 1, 60, 0
2, 16320, Note_on_c, 1, 58, 110
2, 16320, Note_on_c, 1, 62, 110
2, 16320, Note_on_c, 1, 65, 110
2, 16414, Note_on_c, 1, 58, 0
2, 16414, Note_on_c, 1, 62, 0
2, 16414, Note_on_c, 1, 65, 0
2, 16416, Note_on_c, 1, 58, 110
2, 16416, Note_on_c, 1, 62, 110
2, 16416, Note_on_c, 1, 65, 110
2, 16510, Note_on_c, 1, 58, 0
2, 16510, Note_on_c, 1, 62, 0
2, 16510, Note_on_c, 1, 65, 0
2, 16608, Note_on_c, 1, 58, 110
2, 16608, Note_on_c, 1, 62, 110
2, 16608, Note_on_c, 1, 65, 110
2, 16702, Note_on_c, 1, 58, 0
2, 16702, Note_on_c, 1, 62, 0
2, 16702, Note_on_c, 1, 65, 0
2, 16704, Note_on_c, 1, 58, 110
2, 16704, Note_on_c, 1, 62, 110
2, 16704, Note_on_c, 1, 65, 110
2, 16798, Note_on_c, 1, 58, 0
2, 16798, Note_on_c, 1, 62, 0
2, 16798, Note_on_c, 1, 65, 0
2, 16800, Note_on_c, 1, 58, 110
2, 16800, Note_on_c, 1, 62, 110
2, 16800, Note_on_c, 1, 65, 110
2, 16894, Note_on_c, 1, 58, 0
2, 16894, Note_on_c, 1, 62, 0
2, 16894, Note_on_c, 1, 65, 0
2, 17088, Note_on_c, 1, 61, 110
2, 17088, Note_on_c, 1, 65, 110
2, 17088, Note_on_c, 1, 68, 110
2, 17182, Note_on_c, 1, 61, 0
2, 17182, Note_on_c, 1, 65, 0
2, 17182, Note_on_c, 1, 68, 0
2, 17184, Note_on_c, 1, 61, 110
2, 17184, Note_on_c, 1, 65, 110
2, 17184, Note_on_c, 1, 68, 110
2, 17278, Note_on_c, 1, 61, 0
2, 17278, Note_on_c, 1, 65, 0
2, 17278, Note_on_c, 1, 68, 0
2, 17376, Note_on_c, 1, 61, 110
2, 17376, Note_on_c, 1, 65, 110
2, 17376, Note_on_c, 1, 68, 110
2, 17470, Note_on_c, 1, 61, 0
2, 17470, Note_on_c, 1, 65, 0
2, 17470, Note_on_c, 1, 68, 0
2, 17472, Note_on_c, 1, 61, 110
2, 17472, Note_on_c, 1, 65, 110
2, 17472, Note_on_c, 1, 68, 110
2, 17566, Note_on_c, 1, 61, 0
2, 17566, Note_on_c, 1, 65, 0
2, 17566, Note_on_c, 1, 68, 0
2, 17568, Note_on_c, 1, 61, 110
2, 17568, Note_on_c, 1, 65, 110
2, 17568, Note_on_c, 1, 68, 110
2, 17662, Note_on_c, 1, 61, 0
2, 17662, Note_on_c, 1, 65, 0
2, 17662, Note_on_c, 1, 68, 0
2, 17856, Note_on_c, 1, 59, 110
2, 17856, Note_on_c, 1, 63, 110
2, 17856, Note_on_c, 1, 66, 110
2, 17950, Note_on_c, 1, 59, 0
2, 17950, Note_on_c, 1, 63, 0
2, 17950, Note_on_c, 1, 66, 0
2, 17952, Note_on_c, 1, 59, 110
2, 17952, Note_on_c, 1, 63, 110
2, 17952, Note_on_c, 1, 66, 110
2, 18046, Note_on_c, 1, 59, 0
2, 18046, Note_on_c, 1, 63, 0
2, 18046, Note_on_c, 1, 66, 0
2, 18144, Note_on_c, 1, 59, 110
2, 18144, Note_on_c, 1, 63, 110
2, 18144, Note_on_c, 1, 66, 110
2, 18238, Note_on_c, 1, 59, 0
2, 18238, Note_on_c, 1, 63, 0
2, 18238, Note_on_c, 1, 66, 0
2, 18240, Note_on_c, 1, 59, 110
2, 18240, Note_on_c, 1, 63, 110
2, 18240, Note_on_c, 1, 66, 110
2, 18334, Note_on_c, 1, 59, 0
2, 18334, Note_on_c, 1, 63, 0
2, 18334, Note_on_c, 1, 66, 0
2, 18336, Note_on_c, 1, 59, 110
2, 18336, Note_on_c, 1, 63, 110
2, 18336, Note_on_c, 1, 66, 110
2, 18430, Note_on_c, 1, 59, 0
2, 18430, Note_on_c, 1, 63, 0
2, 18430, Note_on_c, 1, 66, 0
2, 18528, Note_on_c, 1, 59, 110
2, 18528, Note_on_c, 1, 63, 110
2, 18528, Note_on_c, 1, 66, 110
2, 18622, Note_on_c, 1, 59, 0
2, 18622, Note_on_c, 1, 63, 0
2, 18622, Note_on_c, 1, 66, 0
2, 18624, Note_on_c, 1, 59, 110
2, 18624, Note_on_c, 1, 63, 110
2, 18624, Note_on_c, 1, 66, 110
2, 18718, Note_on_c, 1, 59, 0
2, 18718, Note_on_c, 1, 63, 0
2, 18718, Note_on_c, 1, 66, 0
2, 18720, Note_on_c, 1, 59, 110
2, 18720, Note_on_c, 1, 63, 110
2, 18720, Note_on_c, 1, 66, 110
2, 18814, Note_on_c, 1, 59, 0
2, 18814, Note_on_c, 1, 63, 0
2, 18814, Note_on_c, 1, 66, 0
2, 18912, Note_on_c, 1, 59, 110
2, 18912, Note_on_c, 1, 63, 110
2, 18912, Note_on_c, 1, 66, 110
2, 19006, Note_on_c, 1, 59, 0
2, 19006, Note_on_c, 1, 63, 0
2, 19006, Note_on_c, 1, 66, 0
2, 19008, Note_on_c, 1, 59, 110
2, 19008, Note_on_c, 1, 63, 110
2, 19008, Note_on_c, 1, 66, 110
2, 19102, Note_on_c, 1, 59, 0
2, 19102, Note_on_c, 1, 63, 0
2, 19102, Note_on_c, 1, 66, 0
2, 19104, Note_on_c, 1, 59, 110
2, 19104, Note_on_c, 1, 63, 110
2, 19104, Note_on_c, 1, 66, 110
2, 19198, Note_on_c, 1, 59, 0
2, 19198, Note_on_c, 1, 63, 0
2, 19198, Note_on_c, 1, 66, 0
2, 19392, Note_on_c, 1, 57, 110
2, 19392, Note_on_c, 1, 60, 110
2, 19392, Note_on_c, 1, 64, 110
2, 19486, Note_on_c, 1, 57, 0
2, 19486, Note_on_c, 1, 60, 0
2, 19486, Note_on_c, 1, 64, 0
2, 19488, Note_on_c, 1, 57, 110
2, 19488, Note_on_c, 1, 60, 110
2, 19488, Note_on_c, 1, 64, 110
2, 19582, Note_on_c, 1, 57, 0
2, 19582, Note_on_c, 1, 60, 0
2, 19582, Note_on_c, 1, 64, 0
2, 19680, Note_on_c, 1, 57, 110
2, 19680, Note_on_c, 1, 60, 110
2, 19680, Note_on_c, 1, 64, 110
2, 19774, Note_on_c, 1, 57, 0
2, 19774, Note_on_c, 1, 60, 0
2, 19774, Note_on_c, 1, 64, 0
2, 19776, Note_on_c, 1, 57, 110
2, 19776, Note_on_c, 1, 60, 110
2, 19776, Note_on_c, 1, 64, 110
2, 19870, Note_on_c, 1, 57, 0
2, 19870, Note_on_c, 1, 60, 0
2, 19870, Note_on_c, 1, 64, 0
2, 19872, Note_on_c, 1, 57, 110
2, 19872, Note_on_c, 1, 60, 110
2, 19872, Note_on_c, 1, 64, 110
2, 19966, Note_on_c, 1, 57, 0
2, 19966, Note_on_c, 1, 60, 0
2, 19966, Note_on_c, 1, 64, 0
2, 20160, Note_on_c, 1, 59, 110
2, 20160, Note_on_c, 1, 64, 110
2, 20160, Note_on_c, 1, 68, 110
2, 20254, Note_on_c, 1, 59, 0
2, 20254, Note_on_c, 1, 64, 0
2, 20254, Note_on_c, 1, 68, 0
2, 20256, Note_on_c, 1, 59, 110
2, 20256, Note_on_c, 1, 64, 110
2, 20256, Note_on_c, 1, 68, 110
2, 20350, Note_on_c, 1, 59, 0
2, 20350, Note_on_c, 1, 64, 0
2, 20350, Note_on_c, 1, 68, 0
2, 20448, Note_on_c, 1, 59, 110
2, 20448, Note_on_c, 1, 64, 110
2, 20448, Note_on_c, 1, 68, 110
2, 20542, Note_on_c, 1, 59, 0
2, 20542, Note_on_c, 1, 64, 0
2, 20542, Note_on_c, 1, 68, 0
2, 20544, Note_on_c, 1, 59, 110
2, 20544, Note_on_c, 1, 64, 110
2, 20544, Note_on_c, 1, 68, 110
2, 20638, Note_on_c, 1, 59, 0
2, 20638, Note_on_c, 1, 64, 0
2, 20638, Note_on_c, 1, 68, 0
2, 20640, Note_on_c, 1, 59, 110
2, 20640, Note_on_c, 1, 64, 110
2, 20640, Note_on_c, 1, 68, 110
2, 20734, Note_on_c, 1, 59, 0
2, 20734, Note_on_c, 1, 64, 0
2, 20734, Note_on_c, 1, 68, 0
2, 20928, Note_on_c, 1, 55, 110
2, 20928, Note_on_c, 1, 59, 110
2, 20928, Note_on_c, 1, 62, 110
2, 21022, Note_on_c, 1, 55, 0
2, 21022, Note_on_c, 1, 59, 0
2, 21022, Note_on_c, 1, 62, 0
2, 21024, Note_on_c, 1, 55, 110
2, 21024, Note_on_c, 1, 59, 110
2, 21024, Note_on_c, 1, 62, 110
2, 21118, Note_on_c, 1, 55, 0
2, 21118, Note_on_c, 1, 59, 0
2, 21118, Note_on_c, 1, 62, 0
2, 21216, Note_on_c, 1, 55, 110
2, 21216, Note_on_c, 1, 59, 110
2, 21216, Note_on_c, 1, 62, 110
2, 21310, Note_on_c, 1, 55, 0
2, 21310, Note_on_c, 1, 59, 0
2, 21310, Note_on_c, 1, 62, 0
2, 21312, Note_on_c, 1, 55, 110
2, 21312, Note_on_c, 1, 59, 110
2, 21312, Note_on_c, 1, 62, 110
2, 21406, Note_on_c, 1, 55, 0
2, 21406, Note_on_c, 1, 59, 0
2, 21406, Note_on_c, 1, 62, 0
2, 21408, Note_on_c, 1, 55, 110
2, 21408, Note_on_c, 1, 59, 110
2, 21408, Note_on_c, 1, 62, 110
2, 21502, Note_on_c, 1, 55, 0
2, 21502, Note_on_c, 1, 59, 0
2, 21502, Note_on_c, 1, 62, 0
2, 21696, Note_on_c, 1, 53, 110
2, 21696, Note_on_c, 1, 57, 110
2, 21696, Note_on_c, 1, 59, 110
2, 21696, Note_on_c, 1, 60, 110
2, 21790, Note_on_c, 1, 53, 0
2, 21790, Note_on_c, 1, 57, 0
2, 21790, Note_on_c, 1, 59, 0
2, 21790, Note_on_c, 1, 60, 0
2, 21792, Note_on_c, 1, 53, 110
2, 21792, Note_on_c, 1, 57, 110
2, 21792, Note_on_c, 1, 59, 110
2, 21792, Note_on_c, 1, 60, 110
2, 21886, Note_on_c, 1, 53, 0
2, 21886, Note_on_c, 1, 57, 0
2, 21886, Note_on_c, 1, 59, 0
2, 21886, Note_on_c, 1, 60, 0
2, 21984, Note_on_c, 1, 53, 110
2, 21984, Note_on_c, 1, 57, 110
2, 21984, Note_on_c, 1, 59, 110
2, 21984, Note_on_c, 1, 60, 110
2, 22078, Note_on_c, 1, 53, 0
2, 22078, Note_on_c, 1, 57, 0
2, 22078, Note_on_c, 1, 59, 0
2, 22078, Note_on_c, 1, 60, 0
2, 22080, Note_on_c, 1, 53, 110
2, 22080, Note_on_c, 1, 57, 110
2, 22080, Note_on_c, 1, 59, 110
2, 22080, Note_on_c, 1, 60, 110
2, 22174, Note_on_c, 1, 53, 0
2, 22174, Note_on_c, 1, 57, 0
2, 22174, Note_on_c, 1, 59, 0
2, 22174, Note_on_c, 1, 60, 0
2, 22176, Note_on_c, 1, 53, 110
2, 22176, Note_on_c, 1, 57, 110
2, 22176, Note_on_c, 1, 59, 110
2, 22176, Note_on_c, 1, 60, 110
2, 22270, Note_on_c, 1, 53, 0
2, 22270, Note_on_c, 1, 57, 0
2, 22270, Note_on_c, 1, 59, 0
2, 22270, Note_on_c, 1, 60, 0
2, 22464, Note_on_c, 1, 58, 110
2, 22464, Note_on_c, 1, 62, 110
2, 22464, Note_on_c, 1, 65, 110
2, 22558, Note_on_c, 1, 58, 0
2, 22558, Note_on_c, 1, 62, 0
2, 22558, Note_on_c, 1, 65, 0
2, 22560, Note_on_c, 1, 58, 110
2, 22560, Note_on_c, 1, 62, 110
2, 22560, Note_on_c, 1, 65, 110
2, 22654, Note_on_c, 1, 58, 0
2, 22654, Note_on_c, 1, 62, 0
2, 22654, Note_on_c, 1, 65, 0
2, 22752, Note_on_c, 1, 58, 110
2, 22752, Note_on_c, 1, 62, 110
2, 22752, Note_on_c, 1, 65, 110
2, 22846, Note_on_c, 1, 58, 0
2, 22846, Note_on_c, 1, 62, 0
2, 22846, Note_on_c, 1, 65, 0
2, 22848, Note_on_c, 1, 58, 110
2, 22848, Note_on_c, 1, 62, 110
2, 22848, Note_on_c, 1, 65, 110
2, 22942, Note_on_c, 1, 58, 0
2, 22942, Note_on_c, 1, 62, 0
2, 22942, Note_on_c, 1, 65, 0
2, 22944, Note_on_c, 1, 58, 110
2, 22944, Note_on_c, 1, 62, 110
2, 22944, Note_on_c, 1, 65, 110
2, 23038, Note_on_c, 1, 58, 0
2, 23038, Note_on_c, 1, 62, 0
2, 23038, Note_on_c, 1, 65, 0
2, 23232, Note_on_c, 1, 61, 110
2, 23232, Note_on_c, 1, 64, 110
2, 23232, Note_on_c, 1, 69, 110
2, 23326, Note_on_c, 1, 61, 0
2, 23326, Note_on_c, 1, 64, 0
2, 23326, Note_on_c, 1, 69, 0
2, 23328, Note_on_c, 1, 61, 110
2, 23328, Note_on_c, 1, 64, 110
2, 23328, Note_on_c, 1, 69, 110
2, 23422, Note_on_c, 1, 61, 0
2, 23422, Note_on_c, 1, 64, 0
2, 23422, Note_on_c, 1, 69, 0
2, 23520, Note_on_c, 1, 61, 110
2, 23520, Note_on_c, 1, 64, 110
2, 23520, Note_on_c, 1, 69, 110
2, 23614, Note_on_c, 1, 61, 0
2, 23614, Note_on_c, 1, 64, 0
2, 23614, Note_on_c, 1, 69, 0
2, 23616, Note_on_c, 1, 61, 110
2, 23616, Note_on_c, 1, 64, 110
2, 23616, Note_on_c, 1, 69, 110
2, 23710, Note_on_c, 1, 61, 0
2, 23710, Note_on_c, 1, 64, 0
2, 23710, Note_on_c, 1, 69, 0
2, 23712, Note_on_c, 1, 61, 110
2, 23712, Note_on_c, 1, 64, 110
2, 23712, Note_on_c, 1, 69, 110
2, 23806, Note_on_c, 1, 61, 0
2, 23806, Note_on_c, 1, 64, 0
2, 23806, Note_on_c, 1, 69, 0
2, 24000, Note_on_c, 1, 61, 110
2, 24000, Note_on_c, 1, 64, 110
2, 24000, Note_on_c, 1, 66, 110
2, 24000, Note_on_c, 1, 69, 110
2, 24000, Note_on_c, 1, 71, 110
2, 24094, Note_on_c, 1, 61, 0
2, 24094, Note_on_c, 1, 64, 0
2, 24094, Note_on_c, 1, 66, 0
2, 24094, Note_on_c, 1, 69, 0
2, 24094, Note_on_c, 1, 71, 0
2, 24096, Note_on_c, 1, 61, 110
2, 24096, Note_on_c, 1, 64, 110
2, 24096, Note_on_c, 1, 68, 110
2, 24096, Note_on_c, 1, 69, 110
2, 24096, Note_on_c, 1, 73, 110
2, 24190, Note_on_c, 1, 61, 0
2, 24190, Note_on_c, 1, 64, 0
2, 24190, Note_on_c, 1, 68, 0
2, 24190, Note_on_c, 1, 69, 0
2, 24190, Note_on_c, 1, 73, 0
2, 24288, Note_on_c, 1, 61, 110
2, 24288, Note_on_c, 1, 64, 110
2, 24288, Note_on_c, 1, 69, 110
2, 24448, Note_on_c, 1, 61, 0
2, 24448, Note_on_c, 1, 64, 0
2, 24448, Note_on_c, 1, 69, 0
2, 24480, Note_on_c, 1, 61, 110
2, 24480, Note_on_c, 1, 64, 110
2, 24480, Note_on_c, 1, 69, 110
2, 24574, Note_on_c, 1, 61, 0
2, 24574, Note_on_c, 1, 64, 0
2, 24574, Note_on_c, 1, 69, 0
2, 24576, Note_on_c, 1, 61, 110
2, 24576, Note_on_c, 1, 64, 110
2, 24576, Note_on_c, 1, 69, 110
2, 24670, Note_on_c, 1, 61, 0
2, 24670, Note_on_c, 1, 64, 0
2, 24670, Note_on_c, 1, 69, 0
2, 24768, Note_on_c, 1, 61, 110
2, 24768, Note_on_c, 1, 64, 110
2, 24768, Note_on_c, 1, 68, 110
2, 24862, Note_on_c, 1, 61, 0
2, 24862, Note_on_c, 1, 64, 0
2, 24862, Note_on_c, 1, 68, 0
2, 24864, Note_on_c, 1, 61, 110
2, 24864, Note_on_c, 1, 64, 110
2, 24864, Note_on_c, 1, 68, 110
2, 24958, Note_on_c, 1, 61, 0
2, 24958, Note_on_c, 1, 64, 0
2, 24958, Note_on_c, 1, 68, 0
2, 25056, Note_on_c, 1, 61, 110
2, 25056, Note_on_c, 1, 64, 110
2, 25056, Note_on_c, 1, 68, 110
2, 25150, Note_on_c, 1, 61, 0
2, 25150, Note_on_c, 1, 64, 0
2, 25150, Note_on_c, 1, 68, 0
2, 25152, Note_on_c, 1, 61, 110
2, 25152, Note_on_c, 1, 64, 110
2, 25152, Note_on_c, 1, 68, 110
2, 25246, Note_on_c, 1, 61, 0
2, 25246, Note_on_c, 1, 64, 0
2, 25246, Note_on_c, 1, 68, 0
2, 25248, Note_on_c, 1, 61, 110
2, 25248, Note_on_c, 1, 64, 110
2, 25248, Note_on_c, 1, 68, 110
2, 25342, Note_on_c, 1, 61, 0
2, 25342, Note_on_c, 1, 64, 0
2, 25342, Note_on_c, 1, 68, 0
2, 25440, Note_on_c, 1, 61, 110
2, 25440, Note_on_c, 1, 64, 110
2, 25440, Note_on_c, 1, 68, 110
2, 25534, Note_on_c, 1, 61, 0
2, 25534, Note_on_c, 1, 64, 0
2, 25534, Note_on_c, 1, 68, 0
2, 25536, Note_on_c, 1, 61, 110
2, 25536, Note_on_c, 1, 64, 110
2, 25536, Note_on_c, 1, 68, 110
2, 25630, Note_on_c, 1, 61, 0
2, 25630, Note_on_c, 1, 64, 0
2, 25630, Note_on_c, 1, 68, 0
2, 25632, Note_on_c, 1, 61, 110
2, 25632, Note_on_c, 1, 64, 110
2, 25632, Note_on_c, 1, 68, 110
2, 25726, Note_on_c, 1, 61, 0
2, 25726, Note_on_c, 1, 64, 0
2, 25726, Note_on_c, 1, 68, 0
2, 25824, Note_on_c, 1, 61, 110
2, 25824, Note_on_c, 1, 64, 110
2, 25824, Note_on_c, 1, 68, 110
2, 25918, Note_on_c, 1, 61, 0
2, 25918, Note_on_c, 1, 64, 0
2, 25918, Note_on_c, 1, 68, 0
2, 25920, Note_on_c, 1, 61, 110
2, 25920, Note_on_c, 1, 64, 110
2, 25920, Note_on_c, 1, 68, 110
2, 26014, Note_on_c, 1, 61, 0
2, 26014, Note_on_c, 1, 64, 0
2, 26014, Note_on_c, 1, 68, 0
2, 26016, Note_on_c, 1, 61, 110
2, 26016, Note_on_c, 1, 64, 110
2, 26016, Note_on_c, 1, 68, 110
2, 26110, Note_on_c, 1, 61, 0
2, 26110, Note_on_c, 1, 64, 0
2, 26110, Note_on_c, 1, 68, 0
2, 26304, Note_on_c, 1, 59, 110
2, 26304, Note_on_c, 1, 63, 110
2, 26304, Note_on_c, 1, 66, 110
2, 26398, Note_on_c, 1, 59, 0
2, 26398, Note_on_c, 1, 63, 0
2, 26398, Note_on_c, 1, 66, 0
2, 26400, Note_on_c, 1, 59, 110
2, 26400, Note_on_c, 1, 63, 110
2, 26400, Note_on_c, 1, 66, 110
2, 26494, Note_on_c, 1, 59, 0
2, 26494, Note_on_c, 1, 63, 0
2, 26494, Note_on_c, 1, 66, 0
2, 26592, Note_on_c, 1, 59, 110
2, 26592, Note_on_c, 1, 63, 110
2, 26592, Note_on_c, 1, 66, 110
2, 26686, Note_on_c, 1, 59, 0
2, 26686, Note_on_c, 1, 63, 0
2, 26686, Note_on_c, 1, 66, 0
2, 26688, Note_on_c, 1, 59, 110
2, 26688, Note_on_c, 1, 63, 110
2, 26688, Note_on_c, 1, 66, 110
2, 26782, Note_on_c, 1, 59, 0
2, 26782, Note_on_c, 1, 63, 0
2, 26782, Note_on_c, 1, 66, 0
2, 26784, Note_on_c, 1, 59, 110
2, 26784, Note_on_c, 1, 63, 110
2, 26784, Note_on_c, 1, 66, 110
2, 26878, Note_on_c, 1, 59, 0
2, 26878, Note_on_c, 1, 63, 0
2, 26878, Note_on_c, 1, 66, 0
2, 27072, Note_on_c, 1, 57, 110
2, 27072, Note_on_c, 1, 61, 110
2, 27072, Note_on_c, 1, 64, 110
2, 27166, Note_on_c, 1, 57, 0
2, 27166, Note_on_c, 1, 61, 0
2, 27166, Note_on_c, 1, 64, 0
2, 27168, Note_on_c, 1, 57, 110
2, 27168, Note_on_c, 1, 61, 110
2, 27168, Note_on_c, 1, 64, 110
2, 27262, Note_on_c, 1, 57, 0
2, 27262, Note_on_c, 1, 61, 0
2, 27262, Note_on_c, 1, 64, 0
2, 27360, Note_on_c, 1, 57, 110
2, 27360, Note_on_c, 1, 61, 110
2, 27360, Note_on_c, 1, 64, 110
2, 27454, Note_on_c, 1, 57, 0
2, 27454, Note_on_c, 1, 61, 0
2, 27454, Note_on_c, 1, 64, 0
2, 27456, Note_on_c, 1, 57, 110
2, 27456, Note_on_c, 1, 61, 110
2, 27456, Note_on_c, 1, 64, 110
2, 27550, Note_on_c, 1, 57, 0
2, 27550, Note_on_c, 1, 61, 0
2, 27550, Note_on_c, 1, 64, 0
2, 27552, Note_on_c, 1, 57, 110
2, 27552, Note_on_c, 1, 61, 110
2, 27552, Note_on_c, 1, 64, 110
2, 27646, Note_on_c, 1, 57, 0
2, 27646, Note_on_c, 1, 61, 0
2, 27646, Note_on_c, 1, 64, 0
2, 27840, Note_on_c, 1, 61, 110
2, 27840, Note_on_c, 1, 64, 110
2, 27840, Note_on_c, 1, 68, 110
2, 27934, Note_on_c, 1, 61, 0
2, 27934, Note_on_c, 1, 64, 0
2, 27934, Note_on_c, 1, 68, 0
2, 27936, Note_on_c, 1, 61, 110
2, 27936, Note_on_c, 1, 64, 110
2, 27936, Note_on_c, 1, 68, 110
2, 28030, Note_on_c, 1, 61, 0
2, 28030, Note_on_c, 1, 64, 0
2, 28030, Note_on_c, 1, 68, 0
2, 28128, Note_on_c, 1, 61, 110
2, 28128, Note_on_c, 1, 64, 110
2, 28128, Note_on_c, 1, 68, 110
2, 28222, Note_on_c, 1, 61, 0
2, 28222, Note_on_c, 1, 64, 0
2, 28222, Note_on_c, 1, 68, 0
2, 28224, Note_on_c, 1, 61, 110
2, 28224, Note_on_c, 1, 64, 110
2, 28224, Note_on_c, 1, 68, 110
2, 28318, Note_on_c, 1, 61, 0
2, 28318, Note_on_c, 1, 64, 0
2, 28318, Note_on_c, 1, 68, 0
2, 28320, Note_on_c, 1, 61, 110
2, 28320, Note_on_c, 1, 64, 110
2, 28320, Note_on_c, 1, 68, 110
2, 28414, Note_on_c, 1, 61, 0
2, 28414, Note_on_c, 1, 64, 0
2, 28414, Note_on_c, 1, 68, 0
2, 28608, Note_on_c, 1, 59, 110
2, 28608, Note_on_c, 1, 64, 110
2, 28608, Note_on_c, 1, 68, 110
2, 28702, Note_on_c, 1, 59, 0
2, 28702, Note_on_c, 1, 64, 0
2, 28702, Note_on_c, 1, 68, 0
2, 28704, Note_on_c, 1, 59, 110
2, 28704, Note_on_c, 1, 64, 110
2, 28704, Note_on_c, 1, 68, 110
2, 28798, Note_on_c, 1, 59, 0
2, 28798, Note_on_c, 1, 64, 0
2, 28798, Note_on_c, 1, 68, 0
2, 28896, Note_on_c, 1, 59, 110
2, 28896, Note_on_c, 1, 64, 110
2, 28896, Note_on_c, 1, 68, 110
2, 28990, Note_on_c, 1, 59, 0
2, 28990, Note_on_c, 1, 64, 0
2, 28990, Note_on_c, 1, 68, 0
2, 28992, Note_on_c, 1, 59, 110
2, 28992, Note_on_c, 1, 64, 110
2, 28992, Note_on_c, 1, 68, 110
2, 29086, Note_on_c, 1, 59, 0
2, 29086, Note_on_c, 1, 64, 0
2, 29086, Note_on_c, 1, 68, 0
2, 29088, Note_on_c, 1, 59, 110
2, 29088, Note_on_c, 1, 64, 110
2, 29088, Note_on_c, 1, 68, 110
2, 29182, Note_on_c, 1, 59, 0
2, 29182, Note_on_c, 1, 64, 0
2, 29182, Note_on_c, 1, 68, 0
2, 29376, Note_on_c, 1, 57, 110
2, 29376, Note_on_c, 1, 61, 110
2, 29376, Note_on_c, 1, 64, 110
2, 29470, Note_on_c, 1, 57, 0
2, 29470, Note_on_c, 1, 61, 0
2, 29470, Note_on_c, 1, 64, 0
2, 29472, Note_on_c, 1, 57, 110
2, 29472, Note_on_c, 1, 61, 110
2, 29472, Note_on_c, 1, 64, 110
2, 29566, Note_on_c, 1, 57, 0
2, 29566, Note_on_c, 1, 61, 0
2, 29566, Note_on_c, 1, 64, 0
2, 29664, Note_on_c, 1, 57, 110
2, 29664, Note_on_c, 1, 61, 110
2, 29664, Note_on_c, 1, 64, 110
2, 29758, Note_on_c, 1, 57, 0
2, 29758, Note_on_c, 1, 61, 0
2, 29758, Note_on_c, 1, 64, 0
2, 29760, Note_on_c, 1, 57, 110
2, 29760, Note_on_c, 1, 61, 110
2, 29760, Note_on_c, 1, 64, 110
2, 29854, Note_on_c, 1, 57, 0
2, 29854, Note_on_c, 1, 61, 0
2, 29854, Note_on_c, 1, 64, 0
2, 29856, Note_on_c, 1, 57, 110
2, 29856, Note_on_c, 1, 61, 110
2, 29856, Note_on_c, 1, 64, 110
2, 29950, Note_on_c, 1, 57, 0
2, 29950, Note_on_c, 1, 61, 0
2, 29950, Note_on_c, 1, 64, 0
2, 30144, Note_on_c, 1, 59, 110
2, 30144, Note_on_c, 1, 63, 110
2, 30144, Note_on_c, 1, 66, 110
2, 30238, Note_on_c, 1, 59, 0
2, 30238, Note_on_c, 1, 63, 0
2, 30238, Note_on_c, 1, 66, 0
2, 30240, Note_on_c, 1, 59, 110
2, 30240, Note_on_c, 1, 63, 110
2, 30240, Note_on_c, 1, 66, 110
2, 30334, Note_on_c, 1, 59, 0
2, 30334, Note_on_c, 1, 63, 0
2, 30334, Note_on_c, 1, 66, 0
2, 30432, Note_on_c, 1, 59, 110
2, 30432, Note_on_c, 1, 63, 110
2, 30432, Note_on_c, 1, 66, 110
2, 30526, Note_on_c, 1, 59, 0
2, 30526, Note_on_c, 1, 63, 0
2, 30526, Note_on_c, 1, 66, 0
2, 30528, Note_on_c, 1, 59, 110
2, 30528, Note_on_c, 1, 63, 110
2, 30528, Note_on_c, 1, 66, 110
2, 30622, Note_on_c, 1, 59, 0
2, 30622, Note_on_c, 1, 63, 0
2, 30622, Note_on_c, 1, 66, 0
2, 30624, Note_on_c, 1, 59, 110
2, 30624, Note_on_c, 1, 63, 110
2, 30624, Note_on_c, 1, 66, 110
2, 30718, Note_on_c, 1, 59, 0
2, 30718, Note_on_c, 1, 63, 0
2, 30718, Note_on_c, 1, 66, 0
2, 30912, Note_on_c, 1, 61, 110
2, 30912, Note_on_c, 1, 64, 110
2, 30912, Note_on_c, 1, 68, 110
2, 31006, Note_on_c, 1, 61, 0
2, 31006, Note_on_c, 1, 64, 0
2, 31006, Note_on_c, 1, 68, 0
2, 31008, Note_on_c, 1, 61, 110
2, 31008, Note_on_c, 1, 64, 110
2, 31008, Note_on_c, 1, 68, 110
2, 31102, Note_on_c, 1, 61, 0
2, 31102, Note_on_c, 1, 64, 0
2, 31102, Note_on_c, 1, 68, 0
2, 31200, Note_on_c, 1, 61, 110
2, 31200, Note_on_c, 1, 64, 110
2, 31200, Note_on_c, 1, 68, 110
2, 31294, Note_on_c, 1, 61, 0
2, 31294, Note_on_c, 1, 64, 0
2, 31294, Note_on_c, 1, 68, 0
2, 31296, Note_on_c, 1, 61, 110
2, 31296, Note_on_c, 1, 64, 110
2, 31296, Note_on_c, 1, 68, 110
2, 31390, Note_on_c, 1, 61, 0
2, 31390, Note_on_c, 1, 64, 0
2, 31390, Note_on_c, 1, 68, 0
2, 31392, Note_on_c, 1, 61, 110
2, 31392, Note_on_c, 1, 64, 110
2, 31392, Note_on_c, 1, 68, 110
2, 31486, Note_on_c, 1, 61, 0
2, 31486, Note_on_c, 1, 64, 0
2, 31486, Note_on_c, 1, 68, 0
2, 31584, Note_on_c, 1, 61, 110
2, 31584, Note_on_c, 1, 64, 110
2, 31584, Note_on_c, 1, 68, 110
2, 31678, Note_on_c, 1, 61, 0
2, 31678, Note_on_c, 1, 64, 0
2, 31678, Note_on_c, 1, 68, 0
2, 31680, Note_on_c, 1, 61, 110
2, 31680, Note_on_c, 1, 64, 110
2, 31680, Note_on_c, 1, 68, 110
2, 31774, Note_on_c, 1, 61, 0
2, 31774, Note_on_c, 1, 64, 0
2, 31774, Note_on_c, 1, 68, 0
2, 31776, Note_on_c, 1, 61, 110
2, 31776, Note_on_c, 1, 64, 110
2, 31776, Note_on_c, 1, 68, 110
2, 31870, Note_on_c, 1, 61, 0
2, 31870, Note_on_c, 1, 64, 0
2, 31870, Note_on_c, 1, 68, 0
2, 31968, Note_on_c, 1, 61, 110
2, 31968, Note_on_c, 1, 64, 110
2, 31968, Note_on_c, 1, 68, 110
2, 32062, Note_on_c, 1, 61, 0
2, 32062, Note_on_c, 1, 64, 0
2, 32062, Note_on_c, 1, 68, 0
2, 32064, Note_on_c, 1, 61, 110
2, 32064, Note_on_c, 1, 64, 110
2, 32064, Note_on_c, 1, 68, 110
2, 32158, Note_on_c, 1, 61, 0
2, 32158, Note_on_c, 1, 64, 0
2, 32158, Note_on_c, 1, 68, 0
2, 32160, Note_on_c, 1, 61, 110
2, 32160, Note_on_c, 1, 64, 110
2, 32160, Note_on_c, 1, 68, 110
2, 32254, Note_on_c, 1, 61, 0
2, 32254, Note_on_c, 1, 64, 0
2, 32254, Note_on_c, 1, 68, 0
2, 32448, Note_on_c, 1, 59, 110
2, 32448, Note_on_c, 1, 63, 110
2, 32448, Note_on_c, 1, 66, 110
2, 32542, Note_on_c, 1, 59, 0
2, 32542, Note_on_c, 1, 63, 0
2, 32542, Note_on_c, 1, 66, 0
2, 32544, Note_on_c, 1, 59, 110
2, 32544, Note_on_c, 1, 63, 110
2, 32544, Note_on_c, 1, 66, 110
2, 32638, Note_on_c, 1, 59, 0
2, 32638, Note_on_c, 1, 63, 0
2, 32638, Note_on_c, 1, 66, 0
2, 32736, Note_on_c, 1, 59, 110
2, 32736, Note_on_c, 1, 63, 110
2, 32736, Note_on_c, 1, 66, 110
2, 32830, Note_on_c, 1, 59, 0
2, 32830, Note_on_c, 1, 63, 0
2, 32830, Note_on_c, 1, 66, 0
2, 32832, Note_on_c, 1, 59, 110
2, 32832, Note_on_c, 1, 63, 110
2, 32832, Note_on_c, 1, 66, 110
2, 32926, Note_on_c, 1, 59, 0
2, 32926, Note_on_c, 1, 63, 0
2, 32926, Note_on_c, 1, 66, 0
2, 32928, Note_on_c, 1, 59, 110
2, 32928, Note_on_c, 1, 63, 110
2, 32928, Note_on_c, 1, 66, 110
2, 33022, Note_on_c, 1, 59, 0
2, 33022, Note_on_c, 1, 63, 0
2, 33022, Note_on_c, 1, 66, 0
2, 33216, Note_on_c, 1, 57, 110
2, 33216, Note_on_c, 1, 61, 110
2, 33216, Note_on_c, 1, 64, 110
2, 33310, Note_on_c, 1, 57, 0
2, 33310, Note_on_c, 1, 61, 0
2, 33310, Note_on_c, 1, 64, 0
2, 33312, Note_on_c, 1, 57, 110
2, 33312, Note_on_c, 1, 61, 110
2, 33312, Note_on_c, 1, 64, 110
2, 33406, Note_on_c, 1, 57, 0
2, 33406, Note_on_c, 1, 61, 0
2, 33406, Note_on_c, 1, 64, 0
2, 33504, Note_on_c, 1, 57, 110
2, 33504, Note_on_c, 1, 61, 110
2, 33504, Note_on_c, 1, 64, 110
2, 33598, Note_on_c, 1, 57, 0
2, 33598, Note_on_c, 1, 61, 0
2, 33598, Note_on_c, 1, 64, 0
2, 33600, Note_on_c, 1, 57, 110
2, 33600, Note_on_c, 1, 61, 110
2, 33600, Note_on_c, 1, 64, 110
2, 33694, Note_on_c, 1, 57, 0
2, 33694, Note_on_c, 1, 61, 0
2, 33694, Note_on_c, 1, 64, 0
2, 33696, Note_on_c, 1, 57, 110
2, 33696, Note_on_c, 1, 61, 110
2, 33696, Note_on_c, 1, 64, 110
2, 33790, Note_on_c, 1, 57, 0
2, 33790, Note_on_c, 1, 61, 0
2, 33790, Note_on_c, 1, 64, 0
2, 33984, Note_on_c, 1, 61, 110
2, 33984, Note_on_c, 1, 64, 110
2, 33984, Note_on_c, 1, 68, 110
2, 34078, Note_on_c, 1, 61, 0
2, 34078, Note_on_c, 1, 64, 0
2, 34078, Note_on_c, 1, 68, 0
2, 34080, Note_on_c, 1, 61, 110
2, 34080, Note_on_c, 1, 64, 110
2, 34080, Note_on_c, 1, 68, 110
2, 34174, Note_on_c, 1, 61, 0
2, 34174, Note_on_c, 1, 64, 0
2, 34174, Note_on_c, 1, 68, 0
2, 34272, Note_on_c, 1, 61, 110
2, 34272, Note_on_c, 1, 64, 110
2, 34272, Note_on_c, 1, 68, 110
2, 34366, Note_on_c, 1, 61, 0
2, 34366, Note_on_c, 1, 64, 0
2, 34366, Note_on_c, 1, 68, 0
2, 34368, Note_on_c, 1, 61, 110
2, 34368, Note_on_c, 1, 64, 110
2, 34368, Note_on_c, 1, 68, 110
2, 34462, Note_on_c, 1, 61, 0
2, 34462, Note_on_c, 1, 64, 0
2, 34462, Note_on_c, 1, 68, 0
2, 34464, Note_on_c, 1, 61, 110
2, 34464, Note_on_c, 1, 64, 110
2, 34464, Note_on_c, 1, 68, 110
2, 34558, Note_on_c, 1, 61, 0
2, 34558, Note_on_c, 1, 64, 0
2, 34558, Note_on_c, 1, 68, 0
2, 34752, Note_on_c, 1, 59, 110
2, 34752, Note_on_c, 1, 64, 110
2, 34752, Note_on_c, 1, 68, 110
2, 34846, Note_on_c, 1, 59, 0
2, 34846, Note_on_c, 1, 64, 0
2, 34846, Note_on_c, 1, 68, 0
2, 34848, Note_on_c, 1, 59, 110
2, 34848, Note_on_c, 1, 64, 110
2, 34848, Note_on_c, 1, 68, 110
2, 34942, Note_on_c, 1, 59, 0
2, 34942, Note_on_c, 1, 64, 0
2, 34942, Note_on_c, 1, 68, 0
2, 35040, Note_on_c, 1, 59, 110
2, 35040, Note_on_c, 1, 64, 110
2, 35040, Note_on_c, 1, 68, 110
2, 35134, Note_on_c, 1, 59, 0
2, 35134, Note_on_c, 1, 64, 0
2, 35134, Note_on_c, 1, 68, 0
2, 35136, Note_on_c, 1, 59, 110
2, 35136, Note_on_c, 1, 64, 110
2, 35136, Note_on_c, 1, 68, 110
2, 35230, Note_on_c, 1, 59, 0
2, 35230, Note_on_c, 1, 64, 0
2, 35230, Note_on_c, 1, 68, 0
2, 35232, Note_on_c, 1, 59, 110
2, 35232, Note_on_c, 1, 64, 110
2, 35232, Note_on_c, 1, 68, 110
2, 35326, Note_on_c, 1, 59, 0
2, 35326, Note_on_c, 1, 64, 0
2, 35326, Note_on_c, 1, 68, 0
2, 35520, Note_on_c, 1, 57, 110
2, 35520, Note_on_c, 1, 61, 110
2, 35520, Note_on_c, 1, 64, 110
2, 35614, Note_on_c, 1, 57, 0
2, 35614, Note_on_c, 1, 61, 0
2, 35614, Note_on_c, 1, 64, 0
2, 35616, Note_on_c, 1, 57, 110
2, 35616, Note_on_c, 1, 61, 110
2, 35616, Note_on_c, 1, 64, 110
2, 35710, Note_on_c, 1, 57, 0
2, 35710, Note_on_c, 1, 61, 0
2, 35710, Note_on_c, 1, 64, 0
2, 35808, Note_on_c, 1, 57, 110
2, 35808, Note_on_c, 1, 61, 110
2, 35808, Note_on_c, 1, 64, 110
2, 35902, Note_on_c, 1, 57, 0
2, 35902, Note_on_c, 1, 61, 0
2, 35902, Note_on_c, 1, 64, 0
2, 35904, Note_on_c, 1, 57, 110
2, 35904, Note_on_c, 1, 61, 110
2, 35904, Note_on_c, 1, 64, 110
2, 35998, Note_on_c, 1, 57, 0
2, 35998, Note_on_c, 1, 61, 0
2, 35998, Note_on_c, 1, 64, 0
2, 36000, Note_on_c, 1, 57, 110
2, 36000, Note_on_c, 1, 61, 110
2, 36000, Note_on_c, 1, 64, 110
2, 36094, Note_on_c, 1, 57, 0
2, 36094, Note_on_c, 1, 61, 0
2, 36094, Note_on_c, 1, 64, 0
2, 36288, Note_on_c, 1, 62, 110
2, 36288, Note_on_c, 1, 66, 110
2, 36288, Note_on_c, 1, 69, 110
2, 36382, Note_on_c, 1, 62, 0
2, 36382, Note_on_c, 1, 66, 0
2, 36382, Note_on_c, 1, 69, 0
2, 36384, Note_on_c, 1, 62, 110
2, 36384, Note_on_c, 1, 66, 110
2, 36384, Note_on_c, 1, 69, 110
2, 36478, Note_on_c, 1, 62, 0
2, 36478, Note_on_c, 1, 66, 0
2, 36478, Note_on_c, 1, 69, 0
2, 36576, Note_on_c, 1, 62, 110
2, 36576, Note_on_c, 1, 66, 110
2, 36576, Note_on_c, 1, 69, 110
2, 36670, Note_on_c, 1, 62, 0
2, 36670, Note_on_c, 1, 66, 0
2, 36670, Note_on_c, 1, 69, 0
2, 36672, Note_on_c, 1, 62, 110
2, 36672, Note_on_c, 1, 66, 110
2, 36672, Note_on_c, 1, 69, 110
2, 36766, Note_on_c, 1, 62, 0
2, 36766, Note_on_c, 1, 66, 0
2, 36766, Note_on_c, 1, 69, 0
2, 36768, Note_on_c, 1, 62, 110
2, 36768, Note_on_c, 1, 66, 110
2, 36768, Note_on_c, 1, 69, 110
2, 36862, Note_on_c, 1, 62, 0
2, 36862, Note_on_c, 1, 66, 0
2, 36862, Note_on_c, 1, 69, 0
2, 37056, Note_on_c, 1, 62, 110
2, 37056, Note_on_c, 1, 66, 110
2, 37056, Note_on_c, 1, 69, 110
2, 37150, Note_on_c, 1, 62, 0
2, 37150, Note_on_c, 1, 66, 0
2, 37150, Note_on_c, 1, 69, 0
2, 37152, Note_on_c, 1, 62, 110
2, 37152, Note_on_c, 1, 66, 110
2, 37152, Note_on_c, 1, 69, 110
2, 37246, Note_on_c, 1, 62, 0
2, 37246, Note_on_c, 1, 66, 0
2, 37246, Note_on_c, 1, 69, 0
2, 37344, Note_on_c, 1, 62, 110
2, 37344, Note_on_c, 1, 66, 110
2, 37344, Note_on_c, 1, 69, 110
2, 37438, Note_on_c, 1, 62, 0
2, 37438, Note_on_c, 1, 66, 0
2, 37438, Note_on_c, 1, 69, 0
2, 37440, Note_on_c, 1, 62, 110
2, 37440, Note_on_c, 1, 66, 110
2, 37440, Note_on_c, 1, 69, 110
2, 37534, Note_on_c, 1, 62, 0
2, 37534, Note_on_c, 1, 66, 0
2, 37534, Note_on_c, 1, 69, 0
2, 37536, Note_on_c, 1, 62, 110
2, 37536, Note_on_c, 1, 66, 110
2, 37536, Note_on_c, 1, 69, 110
2, 37630, Note_on_c, 1, 62, 0
2, 37630, Note_on_c, 1, 66, 0
2, 37630, Note_on_c, 1, 69, 0
2, 37632, Note_on_c, 1, 62, 110
2, 37632, Note_on_c, 1, 66, 110
2, 37632, Note_on_c, 1, 69, 110
2, 37726, Note_on_c, 1, 62, 0
2, 37726, Note_on_c, 1, 66, 0
2, 37726, Note_on_c, 1, 69, 0
2, 37824, Note_on_c, 1, 57, 110
2, 37824, Note_on_c, 1, 61, 110
2, 37824, Note_on_c, 1, 64, 110
2, 37918, Note_on_c, 1, 57, 0
2, 37918, Note_on_c, 1, 61, 0
2, 37918, Note_on_c, 1, 64, 0
2, 37920, Note_on_c, 1, 57, 110
2, 37920, Note_on_c, 1, 61, 110
2, 37920, Note_on_c, 1, 64, 110
2, 38014, Note_on_c, 1, 57, 0
2, 38014, Note_on_c, 1, 61, 0
2, 38014, Note_on_c, 1, 64, 0
2, 38112, Note_on_c, 1, 57, 110
2, 38112, Note_on_c, 1, 61, 110
2, 38112, Note_on_c, 1, 64, 110
2, 38206, Note_on_c, 1, 57, 0
2, 38206, Note_on_c, 1, 61, 0
2, 38206, Note_on_c, 1, 64, 0
2, 38208, Note_on_c, 1, 57, 110
2, 38208, Note_on_c, 1, 61, 110
2, 38208, Note_on_c, 1, 64, 110
2, 38302, Note_on_c, 1, 57, 0
2, 38302, Note_on_c, 1, 61, 0
2, 38302, Note_on_c, 1, 64, 0
2, 38304, Note_on_c, 1, 57, 110
2, 38304, Note_on_c, 1, 61, 110
2, 38304, Note_on_c, 1, 64, 110
2, 38398, Note_on_c, 1, 57, 0
2, 38398, Note_on_c, 1, 61, 0
2, 38398, Note_on_c, 1, 64, 0
2, 38496, Note_on_c, 1, 57, 110
2, 38496, Note_on_c, 1, 61, 110
2, 38496, Note_on_c, 1, 64, 110
2, 38590, Note_on_c, 1, 57, 0
2, 38590, Note_on_c, 1, 61, 0
2, 38590, Note_on_c, 1, 64, 0
2, 38592, Note_on_c, 1, 57, 110
2, 38592, Note_on_c, 1, 61, 110
2, 38592, Note_on_c, 1, 64, 110
2, 38686, Note_on_c, 1, 57, 0
2, 38686, Note_on_c, 1, 61, 0
2, 38686, Note_on_c, 1, 64, 0
2, 38688, Note_on_c, 1, 57, 110
2, 38688, Note_on_c, 1, 61, 110
2, 38688, Note_on_c, 1, 64, 110
2, 38782, Note_on_c, 1, 57, 0
2, 38782, Note_on_c, 1, 61, 0
2, 38782, Note_on_c, 1, 64, 0
2, 38880, Note_on_c, 1, 57, 110
2, 38880, Note_on_c, 1, 61, 110
2, 38880, Note_on_c, 1, 64, 110
2, 38974, Note_on_c, 1, 57, 0
2, 38974, Note_on_c, 1, 61, 0
2, 38974, Note_on_c, 1, 64, 0
2, 38976, Note_on_c, 1, 57, 110
2, 38976, Note_on_c, 1, 61, 110
2, 38976, Note_on_c, 1, 64, 110
2, 39070, Note_on_c, 1, 57, 0
2, 39070, Note_on_c, 1, 61, 0
2, 39070, Note_on_c, 1, 64, 0
2, 39360, Note_on_c, 1, 59, 110
2, 39360, Note_on_c, 1, 63, 110
2, 39360, Note_on_c, 1, 66, 110
2, 39454, Note_on_c, 1, 59, 0
2, 39454, Note_on_c, 1, 63, 0
2, 39454, Note_on_c, 1, 66, 0
2, 39456, Note_on_c, 1, 59, 110
2, 39456, Note_on_c, 1, 63, 110
2, 39456, Note_on_c, 1, 66, 110
2, 39550, Note_on_c, 1, 59, 0
2, 39550, Note_on_c, 1, 63, 0
2, 39550, Note_on_c, 1, 66, 0
2, 39648, Note_on_c, 1, 59, 110
2, 39648, Note_on_c, 1, 63, 110
2, 39648, Note_on_c, 1, 66, 110
2, 39742, Note_on_c, 1, 59, 0
2, 39742, Note_on_c, 1, 63, 0
2, 39742, Note_on_c, 1, 66, 0
2, 39744, Note_on_c, 1, 59, 110
2, 39744, Note_on_c, 1, 63, 110
2, 39744, Note_on_c, 1, 66, 110
2, 39838, Note_on_c, 1, 59, 0
2, 39838, Note_on_c, 1, 63, 0
2, 39838, Note_on_c, 1, 66, 0
2, 39840, Note_on_c, 1, 59, 110
2, 39840, Note_on_c, 1, 63, 110
2, 39840, Note_on_c, 1, 66, 110
2, 39934, Note_on_c, 1, 59, 0
2, 39934, Note_on_c, 1, 63, 0
2, 39934, Note_on_c, 1, 66, 0
2, 40032, Note_on_c, 1, 59, 110
2, 40032, Note_on_c, 1, 63, 110
2, 40032, Note_on_c, 1, 66, 110
2, 40126, Note_on_c, 1, 59, 0
2, 40126, Note_on_c, 1, 63, 0
2, 40126, Note_on_c, 1, 66, 0
2, 40128, Note_on_c, 1, 59, 110
2, 40128, Note_on_c, 1, 63, 110
2, 40128, Note_on_c, 1, 66, 110
2, 40222, Note_on_c, 1, 59, 0
2, 40222, Note_on_c, 1, 63, 0
2, 40222, Note_on_c, 1, 66, 0
2, 40224, Note_on_c, 1, 59, 110
2, 40224, Note_on_c, 1, 63, 110
2, 40224, Note_on_c, 1, 66, 110
2, 40318, Note_on_c, 1, 59, 0
2, 40318, Note_on_c, 1, 63, 0
2, 40318, Note_on_c, 1, 66, 0
2, 40416, Note_on_c, 1, 59, 110
2, 40416, Note_on_c, 1, 63, 110
2, 40416, Note_on_c, 1, 66, 110
2, 40510, Note_on_c, 1, 59, 0
2, 40510, Note_on_c, 1, 63, 0
2, 40510, Note_on_c, 1, 66, 0
2, 40512, Note_on_c, 1, 59, 110
2, 40512, Note_on_c, 1, 63, 110
2, 40512, Note_on_c, 1, 66, 110
2, 40606, Note_on_c, 1, 59, 0
2, 40606, Note_on_c, 1, 63, 0
2, 40606, Note_on_c, 1, 66, 0
2, 40608, Note_on_c, 1, 59, 110
2, 40608, Note_on_c, 1, 63, 110
2, 40608, Note_on_c, 1, 66, 110
2, 40702, Note_on_c, 1, 59, 0
2, 40702, Note_on_c, 1, 63, 0
2, 40702, Note_on_c, 1, 66, 0
2, 40896, Note_on_c, 1, 57, 110
2, 40896, Note_on_c, 1, 60, 110
2, 40896, Note_on_c, 1, 64, 110
2, 40990, Note_on_c, 1, 57, 0
2, 40990, Note_on_c, 1, 60, 0
2, 40990, Note_on_c, 1, 64, 0
2, 40992, Note_on_c, 1, 57, 110
2, 40992, Note_on_c, 1, 60, 110
2, 40992, Note_on_c, 1, 64, 110
2, 41086, Note_on_c, 1, 57, 0
2, 41086, Note_on_c, 1, 60, 0
2, 41086, Note_on_c, 1, 64, 0
2, 41184, Note_on_c, 1, 57, 110
2, 41184, Note_on_c, 1, 60, 110
2, 41184, Note_on_c, 1, 64, 110
2, 41278, Note_on_c, 1, 57, 0
2, 41278, Note_on_c, 1, 60, 0
2, 41278, Note_on_c, 1, 64, 0
2, 41280, Note_on_c, 1, 57, 110
2, 41280, Note_on_c, 1, 60, 110
2, 41280, Note_on_c, 1, 64, 110
2, 41374, Note_on_c, 1, 57, 0
2, 41374, Note_on_c, 1, 60, 0
2, 41374, Note_on_c, 1, 64, 0
2, 41376, Note_on_c, 1, 57, 110
2, 41376, Note_on_c, 1, 60, 110
2, 41376, Note_on_c, 1, 64, 110
2, 41470, Note_on_c, 1, 57, 0
2, 41470, Note_on_c, 1, 60, 0
2, 41470, Note_on_c, 1, 64, 0
2, 41664, Note_on_c, 1, 59, 110
2, 41664, Note_on_c, 1, 64, 110
2, 41664, Note_on_c, 1, 68, 110
2, 41758, Note_on_c, 1, 59, 0
2, 41758, Note_on_c, 1, 64, 0
2, 41758, Note_on_c, 1, 68, 0
2, 41760, Note_on_c, 1, 59, 110
2, 41760, Note_on_c, 1, 64, 110
2, 41760, Note_on_c, 1, 68, 110
2, 41854, Note_on_c, 1, 59, 0
2, 41854, Note_on_c, 1, 64, 0
2, 41854, Note_on_c, 1, 68, 0
2, 41952, Note_on_c, 1, 59, 110
2, 41952, Note_on_c, 1, 64, 110
2, 41952, Note_on_c, 1, 68, 110
2, 42046, Note_on_c, 1, 59, 0
2, 42046, Note_on_c, 1, 64, 0
2, 42046, Note_on_c, 1, 68, 0
2, 42048, Note_on_c, 1, 59, 110
2, 42048, Note_on_c, 1, 64, 110
2, 42048, Note_on_c, 1, 68, 110
2, 42142, Note_on_c, 1, 59, 0
2, 42142, Note_on_c, 1, 64, 0
2, 42142, Note_on_c, 1, 68, 0
2, 42144, Note_on_c, 1, 59, 110
2, 42144, Note_on_c, 1, 64, 110
2, 42144, Note_on_c, 1, 68, 110
2, 42238, Note_on_c, 1, 59, 0
2, 42238, Note_on_c, 1, 64, 0
2, 42238, Note_on_c, 1, 68, 0
2, 42432, Note_on_c, 1, 55, 110
2, 42432, Note_on_c, 1, 59, 110
2, 42432, Note_on_c, 1, 62, 110
2, 42526, Note_on_c, 1, 55, 0
2, 42526, Note_on_c, 1, 59, 0
2, 42526, Note_on_c, 1, 62, 0
2, 42528, Note_on_c, 1, 55, 110
2, 42528, Note_on_c, 1, 59, 110
2, 42528, Note_on_c, 1, 62, 110
2, 42622, Note_on_c, 1, 55, 0
2, 42622, Note_on_c, 1, 59, 0
2, 42622, Note_on_c, 1, 62, 0
2, 42720, Note_on_c, 1, 55, 110
2, 42720, Note_on_c, 1, 59, 110
2, 42720, Note_on_c, 1, 62, 110
2, 42814, Note_on_c, 1, 55, 0
2, 42814, Note_on_c, 1, 59, 0
2, 42814, Note_on_c, 1, 62, 0
2, 42816, Note_on_c, 1, 55, 110
2, 42816, Note_on_c, 1, 59, 110
2, 42816, Note_on_c, 1, 62, 110
2, 42910, Note_on_c, 1, 55, 0
2, 42910, Note_on_c, 1, 59, 0
2, 42910, Note_on_c, 1, 62, 0
2, 42912, Note_on_c, 1, 55, 110
2, 42912, Note_on_c, 1, 59, 110
2, 42912, Note_on_c, 1, 62, 110
2, 43006, Note_on_c, 1, 55, 0
2, 43006, Note_on_c, 1, 59, 0
2, 43006, Note_on_c, 1, 62, 0
2, 43200, Note_on_c, 1, 53, 110
2, 43200, Note_on_c, 1, 57, 110
2, 43200, Note_on_c, 1, 59, 110
2, 43200, Note_on_c, 1, 60, 110
2, 43294, Note_on_c, 1, 53, 0
2, 43294, Note_on_c, 1, 57, 0
2, 43294, Note_on_c, 1, 59, 0
2, 43294, Note_on_c, 1, 60, 0
2, 43296, Note_on_c, 1, 53, 110
2, 43296, Note_on_c, 1, 57, 110
2, 43296, Note_on_c, 1, 59, 110
2, 43296, Note_on_c, 1, 60, 110
2, 43390, Note_on_c, 1, 53, 0
2, 43390, Note_on_c, 1, 57, 0
2, 43390, Note_on_c, 1, 59, 0
2, 43390, Note_on_c, 1, 60, 0
2, 43488, Note_on_c, 1, 53, 110
2, 43488, Note_on_c, 1, 57, 110
2, 43488, Note_on_c, 1, 59, 110
2, 43488, Note_on_c, 1, 60, 110
2, 43582, Note_on_c, 1, 53, 0
2, 43582, Note_on_c, 1, 57, 0
2, 43582, Note_on_c, 1, 59, 0
2, 43582, Note_on_c, 1, 60, 0
2, 43584, Note_on_c, 1, 53, 110
2, 43584, Note_on_c, 1, 57, 110
2, 43584, Note_on_c, 1, 59, 110
2, 43584, Note_on_c, 1, 60, 110
2, 43678, Note_on_c, 1, 53, 0
2, 43678, Note_on_c, 1, 57, 0
2, 43678, Note_on_c, 1, 59, 0
2, 43678, Note_on_c, 1, 60, 0
2, 43680, Note_on_c, 1, 53, 110
2, 43680, Note_on_c, 1, 57, 110
2, 43680, Note_on_c, 1, 59, 110
2, 43680, Note_on_c, 1, 60, 110
2, 43774, Note_on_c, 1, 53, 0
2, 43774, Note_on_c, 1, 57, 0
2, 43774, Note_on_c, 1, 59, 0
2, 43774, Note_on_c, 1, 60, 0
2, 43968, Note_on_c, 1, 58, 110
2, 43968, Note_on_c, 1, 62, 110
2, 43968, Note_on_c, 1, 65, 110
2, 44062, Note_on_c, 1, 58, 0
2, 44062, Note_on_c, 1, 62, 0
2, 44062, Note_on_c, 1, 65, 0
2, 44064, Note_on_c, 1, 58, 110
2, 44064, Note_on_c, 1, 62, 110
2, 44064, Note_on_c, 1, 65, 110
2, 44158, Note_on_c, 1, 58, 0
2, 44158, Note_on_c, 1, 62, 0
2, 44158, Note_on_c, 1, 65, 0
2, 44256, Note_on_c, 1, 58, 110
2, 44256, Note_on_c, 1, 62, 110
2, 44256, Note_on_c, 1, 65, 110
2, 44350, Note_on_c, 1, 58, 0
2, 44350, Note_on_c, 1, 62, 0
2, 44350, Note_on_c, 1, 65, 0
2, 44352, Note_on_c, 1, 58, 110
2, 44352, Note_on_c, 1, 62, 110
2, 44352, Note_on_c, 1, 65, 110
2, 44446, Note_on_c, 1, 58, 0
2, 44446, Note_on_c, 1, 62, 0
2, 44446, Note_on_c, 1, 65, 0
2, 44448, Note_on_c, 1, 58, 110
2, 44448, Note_on_c, 1, 62, 110
2, 44448, Note_on_c, 1, 65, 110
2, 44542, Note_on_c, 1, 58, 0
2, 44542, Note_on_c, 1, 62, 0
2, 44542, Note_on_c, 1, 65, 0
2, 44736, Note_on_c, 1, 61, 110
2, 44736, Note_on_c, 1, 65, 110
2, 44736, Note_on_c, 1, 68, 110
2, 44830, Note_on_c, 1, 61, 0
2, 44830, Note_on_c, 1, 65, 0
2, 44830, Note_on_c, 1, 68, 0
2, 44832, Note_on_c, 1, 61, 110
2, 44832, Note_on_c, 1, 65, 110
2, 44832, Note_on_c, 1, 68, 110
2, 44926, Note_on_c, 1, 61, 0
2, 44926, Note_on_c, 1, 65, 0
2, 44926, Note_on_c, 1, 68, 0
2, 45024, Note_on_c, 1, 61, 110
2, 45024, Note_on_c, 1, 65, 110
2, 45024, Note_on_c, 1, 68, 110
2, 45118, Note_on_c, 1, 61, 0
2, 45118, Note_on_c, 1, 65, 0
2, 45118, Note_on_c, 1, 68, 0
2, 45120, Note_on_c, 1, 61, 110
2, 45120, Note_on_c, 1, 65, 110
2, 45120, Note_on_c, 1, 68, 110
2, 45214, Note_on_c, 1, 61, 0
2, 45214, Note_on_c, 1, 65, 0
2, 45214, Note_on_c, 1, 68, 0
2, 45216, Note_on_c, 1, 61, 110
2, 45216, Note_on_c, 1, 65, 110
2, 45216, Note_on_c, 1, 68, 110
2, 45310, Note_on_c, 1, 61, 0
2, 45310, Note_on_c, 1, 65, 0
2, 45310, Note_on_c, 1, 68, 0
2, 45504, Note_on_c, 1, 59, 110
2, 45504, Note_on_c, 1, 63, 110
2, 45504, Note_on_c, 1, 66, 110
2, 45598, Note_on_c, 1, 59, 0
2, 45598, Note_on_c, 1, 63, 0
2, 45598, Note_on_c, 1, 66, 0
2, 45600, Note_on_c, 1, 59, 110
2, 45600, Note_on_c, 1, 63, 110
2, 45600, Note_on_c, 1, 66, 110
2, 45694, Note_on_c, 1, 59, 0
2, 45694, Note_on_c, 1, 63, 0
2, 45694, Note_on_c, 1, 66, 0
2, 45792, Note_on_c, 1, 59, 110
2, 45792, Note_on_c, 1, 63, 110
2, 45792, Note_on_c, 1, 66, 110
2, 45886, Note_on_c, 1, 59, 0
2, 45886, Note_on_c, 1, 63, 0
2, 45886, Note_on_c, 1, 66, 0
2, 45888, Note_on_c, 1, 59, 110
2, 45888, Note_on_c, 1, 63, 110
2, 45888, Note_on_c, 1, 66, 110
2, 45982, Note_on_c, 1, 59, 0
2, 45982, Note_on_c, 1, 63, 0
2, 45982, Note_on_c, 1, 66, 0
2, 45984, Note_on_c, 1, 59, 110
2, 45984, Note_on_c, 1, 63, 110
2, 45984, Note_on_c, 1, 66, 110
2, 46078, Note_on_c, 1, 59, 0
2, 46078, Note_on_c, 1, 63, 0
2, 46078, Note_on_c, 1, 66, 0
2, 46176, Note_on_c, 1, 59, 110
2, 46176, Note_on_c, 1, 63, 110
2, 46176, Note_on_c, 1, 66, 110
2, 46270, Note_on_c, 1, 59, 0
2, 46270, Note_on_c, 1, 63, 0
2, 46270, Note_on_c, 1, 66, 0
2, 46272, Note_on_c, 1, 59, 110
2, 46272, Note_on_c, 1, 63, 110
2, 46272, Note_on_c, 1, 66, 110
2, 46366, Note_on_c, 1, 59, 0
2, 46366, Note_on_c, 1, 63, 0
2, 46366, Note_on_c, 1, 66, 0
2, 46368, Note_on_c, 1, 59, 110
2, 46368, Note_on_c, 1, 63, 110
2, 46368, Note_on_c, 1, 66, 110
2, 46462, Note_on_c, 1, 59, 0
2, 46462, Note_on_c, 1, 63, 0
2, 46462, Note_on_c, 1, 66, 0
2, 46560, Note_on_c, 1, 59, 110
2, 46560, Note_on_c, 1, 63, 110
2, 46560, Note_on_c, 1, 66, 110
2, 46654, Note_on_c, 1, 59, 0
2, 46654, Note_on_c, 1, 63, 0
2, 46654, Note_on_c, 1, 66, 0
2, 46656, Note_on_c, 1, 59, 110
2, 46656, Note_on_c, 1, 63, 110
2, 46656, Note_on_c, 1, 66, 110
2, 46750, Note_on_c, 1, 59, 0
2, 46750, Note_on_c, 1, 63, 0
2, 46750, Note_on_c, 1, 66, 0
2, 46752, Note_on_c, 1, 59, 110
2, 46752, Note_on_c, 1, 63, 110
2, 46752, Note_on_c, 1, 66, 110
2, 46846, Note_on_c, 1, 59, 0
2, 46846, Note_on_c, 1, 63, 0
2, 46846, Note_on_c, 1, 66, 0
2, 47040, Note_on_c, 1, 57, 110
2, 47040, Note_on_c, 1, 60, 110
2, 47040, Note_on_c, 1, 64, 110
2, 47134, Note_on_c, 1, 57, 0
2, 47134, Note_on_c, 1, 60, 0
2, 47134, Note_on_c, 1, 64, 0
2, 47136, Note_on_c, 1, 57, 110
2, 47136, Note_on_c, 1, 60, 110
2, 47136, Note_on_c, 1, 64, 110
2, 47230, Note_on_c, 1, 57, 0
2, 47230, Note_on_c, 1, 60, 0
2, 47230, Note_on_c, 1, 64, 0
2, 47328, Note_on_c, 1, 57, 110
2, 47328, Note_on_c, 1, 60, 110
2, 47328, Note_on_c, 1, 64, 110
2, 47422, Note_on_c, 1, 57, 0
2, 47422, Note_on_c, 1, 60, 0
2, 47422, Note_on_c, 1, 64, 0
2, 47424, Note_on_c, 1, 57, 110
2, 47424, Note_on_c, 1, 60, 110
2, 47424, Note_on_c, 1, 64, 110
2, 47518, Note_on_c, 1, 57, 0
2, 47518, Note_on_c, 1, 60, 0
2, 47518, Note_on_c, 1, 64, 0
2, 47520, Note_on_c, 1, 57, 110
2, 47520, Note_on_c, 1, 60, 110
2, 47520, Note_on_c, 1, 64, 110
2, 47614, Note_on_c, 1, 57, 0
2, 47614, Note_on_c, 1, 60, 0
2, 47614, Note_on_c, 1, 64, 0
2, 47808, Note_on_c, 1, 59, 110
2, 47808, Note_on_c, 1, 64, 110
2, 47808, Note_on_c, 1, 68, 110
2, 47902, Note_on_c, 1, 59, 0
2, 47902, Note_on_c, 1, 64, 0
2, 47902, Note_on_c, 1, 68, 0
2, 47904, Note_on_c, 1, 59, 110
2, 47904, Note_on_c, 1, 64, 110
2, 47904, Note_on_c, 1, 68, 110
2, 47998, Note_on_c, 1, 59, 0
2, 47998, Note_on_c, 1, 64, 0
2, 47998, Note_on_c, 1, 68, 0
2, 48096, Note_on_c, 1, 59, 110
2, 48096, Note_on_c, 1, 64, 110
2, 48096, Note_on_c, 1, 68, 110
2, 48190, Note_on_c, 1, 59, 0
2, 48190, Note_on_c, 1, 64, 0
2, 48190, Note_on_c, 1, 68, 0
2, 48192, Note_on_c, 1, 59, 110
2, 48192, Note_on_c, 1, 64, 110
2, 48192, Note_on_c, 1, 68, 110
2, 48286, Note_on_c, 1, 59, 0
2, 48286, Note_on_c, 1, 64, 0
2, 48286, Note_on_c, 1, 68, 0
2, 48288, Note_on_c, 1, 59, 110
2, 48288, Note_on_c, 1, 64, 110
2, 48288, Note_on_c, 1, 68, 110
2, 48382, Note_on_c, 1, 59, 0
2, 48382, Note_on_c, 1, 64, 0
2, 48382, Note_on_c, 1, 68, 0
2, 48576, Note_on_c, 1, 55, 110
2, 48576, Note_on_c, 1, 59, 110
2, 48576, Note_on_c, 1, 62, 110
2, 48670, Note_on_c, 1, 55, 0
2, 48670, Note_on_c, 1, 59, 0
2, 48670, Note_on_c, 1, 62, 0
2, 48672, Note_on_c, 1, 55, 110
2, 48672, Note_on_c, 1, 59, 110
2, 48672, Note_on_c, 1, 62, 110
2, 48766, Note_on_c, 1, 55, 0
2, 48766, Note_on_c, 1, 59, 0
2, 48766, Note_on_c, 1, 62, 0
2, 48864, Note_on_c, 1, 55, 110
2, 48864, Note_on_c, 1, 59, 110
2, 48864, Note_on_c, 1, 62, 110
2, 48958, Note_on_c, 1, 55, 0
2, 48958, Note_on_c, 1, 59, 0
2, 48958, Note_on_c, 1, 62, 0
2, 48960, Note_on_c, 1, 55, 110
2, 48960, Note_on_c, 1, 59, 110
2, 48960, Note_on_c, 1, 62, 110
2, 49054, Note_on_c, 1, 55, 0
2, 49054, Note_on_c, 1, 59, 0
2, 49054, Note_on_c, 1, 62, 0
2, 49056, Note_on_c, 1, 55, 110
2, 49056, Note_on_c, 1, 59, 110
2, 49056, Note_on_c, 1, 62, 110
2, 49150, Note_on_c, 1, 55, 0
2, 49150, Note_on_c, 1, 59, 0
2, 49150, Note_on_c, 1, 62, 0
2, 49344, Note_on_c, 1, 53, 110
2, 49344, Note_on_c, 1, 57, 110
2, 49344, Note_on_c, 1, 59, 110
2, 49344, Note_on_c, 1, 60, 110
2, 49438, Note_on_c, 1, 53, 0
2, 49438, Note_on_c, 1, 57, 0
2, 49438, Note_on_c, 1, 59, 0
2, 49438, Note_on_c, 1, 60, 0
2, 49440, Note_on_c, 1, 53, 110
2, 49440, Note_on_c, 1, 57, 110
2, 49440, Note_on_c, 1, 59, 110
2, 49440, Note_on_c, 1, 60, 110
2, 49534, Note_on_c, 1, 53, 0
2, 49534, Note_on_c, 1, 57, 0
2, 49534, Note_on_c, 1, 59, 0
2, 49534, Note_on_c, 1, 60, 0
2, 49632, Note_on_c, 1, 53, 110
2, 49632, Note_on_c, 1, 57, 110
2, 49632, Note_on_c, 1, 59, 110
2, 49632, Note_on_c, 1, 60, 110
2, 49726, Note_on_c, 1, 53, 0
2, 49726, Note_on_c, 1, 57, 0
2, 49726, Note_on_c, 1, 59, 0
2, 49726, Note_on_c, 1, 60, 0
2, 49728, Note_on_c, 1, 53, 110
2, 49728, Note_on_c, 1, 57, 110
2, 49728, Note_on_c, 1, 59, 110
2, 49728, Note_on_c, 1, 60, 110
2, 49822, Note_on_c, 1, 53, 0
2, 49822, Note_on_c, 1, 57, 0
2, 49822, Note_on_c, 1, 59, 0
2, 49822, Note_on_c, 1, 60, 0
2, 49824, Note_on_c, 1, 53, 110
2, 49824, Note_on_c, 1, 57, 110
2, 49824, Note_on_c, 1, 59, 110
2, 49824, Note_on_c, 1, 60, 110
2, 49918, Note_on_c, 1, 53, 0
2, 49918, Note_on_c, 1, 57, 0
2, 49918, Note_on_c, 1, 59, 0
2, 49918, Note_on_c, 1, 60, 0
2, 50112, Note_on_c, 1, 58, 110
2, 50112, Note_on_c, 1, 62, 110
2, 50112, Note_on_c, 1, 65, 110
2, 50206, Note_on_c, 1, 58, 0
2, 50206, Note_on_c, 1, 62, 0
2, 50206, Note_on_c, 1, 65, 0
2, 50208, Note_on_c, 1, 58, 110
2, 50208, Note_on_c, 1, 62, 110
2, 50208, Note_on_c, 1, 65, 110
2, 50302, Note_on_c, 1, 58, 0
2, 50302, Note_on_c, 1, 62, 0
2, 50302, Note_on_c, 1, 65, 0
2, 50400, Note_on_c, 1, 58, 110
2, 50400, Note_on_c, 1, 62, 110
2, 50400, Note_on_c, 1, 65, 110
2, 50494, Note_on_c, 1, 58, 0
2, 50494, Note_on_c, 1, 62, 0
2, 50494, Note_on_c, 1, 65, 0
2, 50496, Note_on_c, 1, 58, 110
2, 50496, Note_on_c, 1, 62, 110
2, 50496, Note_on_c, 1, 65, 110
2, 50590, Note_on_c, 1, 58, 0
2, 50590, Note_on_c, 1, 62, 0
2, 50590, Note_on_c, 1, 65, 0
2, 50592, Note_on_c, 1, 58, 110
2, 50592, Note_on_c, 1, 62, 110
2, 50592, Note_on_c, 1, 65, 110
2, 50686, Note_on_c, 1, 58, 0
2, 50686, Note_on_c, 1, 62, 0
2, 50686, Note_on_c, 1, 65, 0
2, 50880, Note_on_c, 1, 61, 110
2, 50880, Note_on_c, 1, 64, 110
2, 50880, Note_on_c, 1, 69, 110
2, 50974, Note_on_c, 1, 61, 0
2, 50974, Note_on_c, 1, 64, 0
2, 50974, Note_on_c, 1, 69, 0
2, 50976, Note_on_c, 1, 61, 110
2, 50976, Note_on_c, 1, 64, 110
2, 50976, Note_on_c, 1, 69, 110
2, 51070, Note_on_c, 1, 61, 0
2, 51070, Note_on_c, 1, 64, 0
2, 51070, Note_on_c, 1, 69, 0
2, 51168, Note_on_c, 1, 61, 110
2, 51168, Note_on_c, 1, 64, 110
2, 51168, Note_on_c, 1, 69, 110
2, 51262, Note_on_c, 1, 61, 0
2, 51262, Note_on_c, 1, 64, 0
2, 51262, Note_on_c, 1, 69, 0
2, 51264, Note_on_c, 1, 61, 110
2, 51264, Note_on_c, 1, 64, 110
2, 51264, Note_on_c, 1, 69, 110
2, 51358, Note_on_c, 1, 61, 0
2, 51358, Note_on_c, 1, 64, 0
2, 51358, Note_on_c, 1, 69, 0
2, 51360, Note_on_c, 1, 61, 110
2, 51360, Note_on_c, 1, 64, 110
2, 51360, Note_on_c, 1, 69, 110
2, 51454, Note_on_c, 1, 61, 0
2, 51454, Note_on_c, 1, 64, 0
2, 51454, Note_on_c, 1, 69, 0
2, 51648, Note_on_c, 1, 61, 110
2, 51648, Note_on_c, 1, 64, 110
2, 51648, Note_on_c, 1, 66, 110
2, 51648, Note_on_c, 1, 69, 110
2, 51648, Note_on_c, 1, 71, 110
2, 51742, Note_on_c, 1, 61, 0
2, 51742, Note_on_c, 1, 64, 0
2, 51742, Note_on_c, 1, 66, 0
2, 51742, Note_on_c, 1, 69, 0
2, 51742, Note_on_c, 1, 71, 0
2, 51744, Note_on_c, 1, 61, 110
2, 51744, Note_on_c, 1, 64, 110
2, 51744, Note_on_c, 1, 68, 110
2, 51744, Note_on_c, 1, 69, 110
2, 51744, Note_on_c, 1, 73, 110
2, 51838, Note_on_c, 1, 61, 0
2, 51838, Note_on_c, 1, 64, 0
2, 51838, Note_on_c, 1, 68, 0
2, 51838, Note_on_c, 1, 69, 0
2, 51838, Note_on_c, 1, 73, 0
2, 51936, Note_on_c, 1, 61, 110
2, 51936, Note_on_c, 1, 64, 110
2, 51936, Note_on_c, 1, 69, 110
2, 52096, Note_on_c, 1, 61, 0
2, 52096, Note_on_c, 1, 64, 0
2, 52096, Note_on_c, 1, 69, 0
2, 52128, Note_on_c, 1, 61, 110
2, 52128, Note_on_c, 1, 64, 110
2, 52128, Note_on_c, 1, 69, 110
2, 52222, Note_on_c, 1, 61, 0
2, 52222, Note_on_c, 1, 64, 0
2, 52222, Note_on_c, 1, 69, 0
2, 52224, Note_on_c, 1, 61, 110
2, 52224, Note_on_c, 1, 64, 110
2, 52224, Note_on_c, 1, 69, 110
2, 52318, Note_on_c, 1, 61, 0
2, 52318, Note_on_c, 1, 64, 0
2, 52318, Note_on_c, 1, 69, 0
2, 52416, Note_on_c, 1, 61, 110
2, 52416, Note_on_c, 1, 64, 110
2, 52416, Note_on_c, 1, 68, 110
2, 52510, Note_on_c, 1, 61, 0
2, 52510, Note_on_c, 1, 64, 0
2, 52510, Note_on_c, 1, 68, 0
2, 52512, Note_on_c, 1, 61, 110
2, 52512, Note_on_c, 1, 64, 110
2, 52512, Note_on_c, 1, 68, 110
2, 52606, Note_on_c, 1, 61, 0
2, 52606, Note_on_c, 1, 64, 0
2, 52606, Note_on_c, 1, 68, 0
2, 52704, Note_on_c, 1, 61, 110
2, 52704, Note_on_c, 1, 64, 110
2, 52704, Note_on_c, 1, 68, 110
2, 52798, Note_on_c, 1, 61, 0
2, 52798, Note_on_c, 1, 64, 0
2, 52798, Note_on_c, 1, 68, 0
2, 52800, Note_on_c, 1, 61, 110
2, 52800, Note_on_c, 1, 64, 110
2, 52800, Note_on_c, 1, 68, 110
2, 52894, Note_on_c, 1, 61, 0
2, 52894, Note_on_c, 1, 64, 0
2, 52894, Note_on_c, 1, 68, 0
2, 52896, Note_on_c, 1, 61, 110
2, 52896, Note_on_c, 1, 64, 110
2, 52896, Note_on_c, 1, 68, 110
2, 52990, Note_on_c, 1, 61, 0
2, 52990, Note_on_c, 1, 64, 0
2, 52990, Note_on_c, 1, 68, 0
2, 53088, Note_on_c, 1, 61, 110
2, 53088, Note_on_c, 1, 64, 110
2, 53088, Note_on_c, 1, 68, 110
2, 53182, Note_on_c, 1, 61, 0
2, 53182, Note_on_c, 1, 64, 0
2, 53182, Note_on_c, 1, 68, 0
2, 53184, Note_on_c, 1, 61, 110
2, 53184, Note_on_c, 1, 64, 110
2, 53184, Note_on_c, 1, 68, 110
2, 53278, Note_on_c, 1, 61, 0
2, 53278, Note_on_c, 1, 64, 0
2, 53278, Note_on_c, 1, 68, 0
2, 53280, Note_on_c, 1, 61, 110
2, 53280, Note_on_c, 1, 64, 110
2, 53280, Note_on_c, 1, 68, 110
2, 53374, Note_on_c, 1, 61, 0
2, 53374, Note_on_c, 1, 64, 0
2, 53374, Note_on_c, 1, 68, 0
2, 53472, Note_on_c, 1, 61, 110
2, 53472, Note_on_c, 1, 64, 110
2, 53472, Note_on_c, 1, 68, 110
2, 53566, Note_on_c, 1, 61, 0
2, 53566, Note_on_c, 1, 64, 0
2, 53566, Note_on_c, 1, 68, 0
2, 53568, Note_on_c, 1, 61, 110
2, 53568, Note_on_c, 1, 64, 110
2, 53568, Note_on_c, 1, 68, 110
2, 53662, Note_on_c, 1, 61, 0
2, 53662, Note_on_c, 1, 64, 0
2, 53662, Note_on_c, 1, 68, 0
2, 53664, Note_on_c, 1, 61, 110
2, 53664, Note_on_c, 1, 64, 110
2, 53664, Note_on_c, 1, 68, 110
2, 53758, Note_on_c, 1, 61, 0
2, 53758, Note_on_c, 1, 64, 0
2, 53758, Note_on_c, 1, 68, 0
2, 53952, Note_on_c, 1, 59, 110
2, 53952, Note_on_c, 1, 63, 110
2, 53952, Note_on_c, 1, 66, 110
2, 54046, Note_on_c, 1, 59, 0
2, 54046, Note_on_c, 1, 63, 0
2, 54046, Note_on_c, 1, 66, 0
2, 54048, Note_on_c, 1, 59, 110
2, 54048, Note_on_c, 1, 63, 110
2, 54048, Note_on_c, 1, 66, 110
2, 54142, Note_on_c, 1, 59, 0
2, 54142, Note_on_c, 1, 63, 0
2, 54142, Note_on_c, 1, 66, 0
2, 54240, Note_on_c, 1, 59, 110
2, 54240, Note_on_c, 1, 63, 110
2, 54240, Note_on_c, 1, 66, 110
2, 54334, Note_on_c, 1, 59, 0
2, 54334, Note_on_c, 1, 63, 0
2, 54334, Note_on_c, 1, 66, 0
2, 54336, Note_on_c, 1, 59, 110
2, 54336, Note_on_c, 1, 63, 110
2, 54336, Note_on_c, 1, 66, 110
2, 54430, Note_on_c, 1, 59, 0
2, 54430, Note_on_c, 1, 63, 0
2, 54430, Note_on_c, 1, 66, 0
2, 54432, Note_on_c, 1, 59, 110
2, 54432, Note_on_c, 1, 63, 110
2, 54432, Note_on_c, 1, 66, 110
2, 54526, Note_on_c, 1, 59, 0
2, 54526, Note_on_c, 1, 63, 0
2, 54526, Note_on_c, 1, 66, 0
2, 54720, Note_on_c, 1, 57, 110
2, 54720, Note_on_c, 1, 61, 110
2, 54720, Note_on_c, 1, 64, 110
2, 54814, Note_on_c, 1, 57, 0
2, 54814, Note_on_c, 1, 61, 0
2, 54814, Note_on_c, 1, 64, 0
2, 54816, Note_on_c, 1, 57, 110
2, 54816, Note_on_c, 1, 61, 110
2, 54816, Note_on_c, 1, 64, 110
2, 54910, Note_on_c, 1, 57, 0
2, 54910, Note_on_c, 1, 61, 0
2, 54910, Note_on_c, 1, 64, 0
2, 55008, Note_on_c, 1, 57, 110
2, 55008, Note_on_c, 1, 61, 110
2, 55008, Note_on_c, 1, 64, 110
2, 55102, Note_on_c, 1, 57, 0
2, 55102, Note_on_c, 1, 61, 0
2, 55102, Note_on_c, 1, 64, 0
2, 55104, Note_on_c, 1, 57, 110
2, 55104, Note_on_c, 1, 61, 110
2, 55104, Note_on_c, 1, 64, 110
2, 55198, Note_on_c, 1, 57, 0
2, 55198, Note_on_c, 1, 61, 0
2, 55198, Note_on_c, 1, 64, 0
2, 55200, Note_on_c, 1, 57, 110
2, 55200, Note_on_c, 1, 61, 110
2, 55200, Note_on_c, 1, 64, 110
2, 55294, Note_on_c, 1, 57, 0
2, 55294, Note_on_c, 1, 61, 0
2, 55294, Note_on_c, 1, 64, 0
2, 55488, Note_on_c, 1, 61, 110
2, 55488, Note_on_c, 1, 64, 110
2, 55488, Note_on_c, 1, 68, 110
2, 55582, Note_on_c, 1, 61, 0
2, 55582, Note_on_c, 1, 64, 0
2, 55582, Note_on_c, 1, 68, 0
2, 55584, Note_on_c, 1, 61, 110
2, 55584, Note_on_c, 1, 64, 110
2, 55584, Note_on_c, 1, 68, 110
2, 55678, Note_on_c, 1, 61, 0
2, 55678, Note_on_c, 1, 64, 0
2, 55678, Note_on_c, 1, 68, 0
2, 55776, Note_on_c, 1, 61, 110
2, 55776, Note_on_c, 1, 64, 110
2, 55776, Note_on_c, 1, 68, 110
2, 55870, Note_on_c, 1, 61, 0
2, 55870, Note_on_c, 1, 64, 0
2, 55870, Note_on_c, 1, 68, 0
2, 55872, Note_on_c, 1, 61, 110
2, 55872, Note_on_c, 1, 64, 110
2, 55872, Note_on_c, 1, 68, 110
2, 55966, Note_on_c, 1, 61, 0
2, 55966, Note_on_c, 1, 64, 0
2, 55966, Note_on_c, 1, 68, 0
2, 55968, Note_on_c, 1, 61, 110
2, 55968, Note_on_c, 1, 64, 110
2, 55968, Note_on_c, 1, 68, 110
2, 56062, Note_on_c, 1, 61, 0
2, 56062, Note_on_c, 1, 64, 0
2, 56062, Note_on_c, 1, 68, 0
2, 56256, Note_on_c, 1, 59, 110
2, 56256, Note_on_c, 1, 64, 110
2, 56256, Note_on_c, 1, 68, 110
2, 56350, Note_on_c, 1, 59, 0
2, 56350, Note_on_c, 1, 64, 0
2, 56350, Note_on_c, 1, 68, 0
2, 56352, Note_on_c, 1, 59, 110
2, 56352, Note_on_c, 1, 64, 110
2, 56352, Note_on_c, 1, 68, 110
2, 56446, Note_on_c, 1, 59, 0
2, 56446, Note_on_c, 1, 64, 0
2, 56446, Note_on_c, 1, 68, 0
2, 56544, Note_on_c, 1, 59, 110
2, 56544, Note_on_c, 1, 64, 110
2, 56544, Note_on_c, 1, 68, 110
2, 56638, Note_on_c, 1, 59, 0
2, 56638, Note_on_c, 1, 64, 0
2, 56638, Note_on_c, 1, 68, 0
2, 56640, Note_on_c, 1, 59, 110
2, 56640, Note_on_c, 1, 64, 110
2, 56640, Note_on_c, 1, 68, 110
2, 56734, Note_on_c, 1, 59, 0
2, 56734, Note_on_c, 1, 64, 0
2, 56734, Note_on_c, 1, 68, 0
2, 56736, Note_on_c, 1, 59, 110
2, 56736, Note_on_c, 1, 64, 110
2, 56736, Note_on_c, 1, 68, 110
2, 56830, Note_on_c, 1, 59, 0
2, 56830, Note_on_c, 1, 64, 0
2, 56830, Note_on_c, 1, 68, 0
2, 57024, Note_on_c, 1, 57, 110
2, 57024, Note_on_c, 1, 61, 110
2, 57024, Note_on_c, 1, 64, 110
2, 57118, Note_on_c, 1, 57, 0
2, 57118, Note_on_c, 1, 61, 0
2, 57118, Note_on_c, 1, 64, 0
2, 57120, Note_on_c, 1, 57, 110
2, 57120, Note_on_c, 1, 61, 110
2, 57120, Note_on_c, 1, 64, 110
2, 57214, Note_on_c, 1, 57, 0
2, 57214, Note_on_c, 1, 61, 0
2, 57214, Note_on_c, 1, 64, 0
2, 57312, Note_on_c, 1, 57, 110
2, 57312, Note_on_c, 1, 61, 110
2, 57312, Note_on_c, 1, 64, 110
2, 57406, Note_on_c, 1, 57, 0
2, 57406, Note_on_c, 1, 61, 0
2, 57406, Note_on_c, 1, 64, 0
2, 57408, Note_on_c, 1, 57, 110
2, 57408, Note_on_c, 1, 61, 110
2, 57408, Note_on_c, 1, 64, 110
2, 57502, Note_on_c, 1, 57, 0
2, 57502, Note_on_c, 1, 61, 0
2, 57502, Note_on_c, 1, 64, 0
2, 57504, Note_on_c, 1, 57, 110
2, 57504, Note_on_c, 1, 61, 110
2, 57504, Note_on_c, 1, 64, 110
2, 57598, Note_on_c, 1, 57, 0
2, 57598, Note_on_c, 1, 61, 0
2, 57598, Note_on_c, 1, 64, 0
2, 57792, Note_on_c, 1, 59, 110
2, 57792, Note_on_c, 1, 63, 110
2, 57792, Note_on_c, 1, 66, 110
2, 57886, Note_on_c, 1, 59, 0
2, 57886, Note_on_c, 1, 63, 0
2, 57886, Note_on_c, 1, 66, 0
2, 57888, Note_on_c, 1, 59, 110
2, 57888, Note_on_c, 1, 63, 110
2, 57888, Note_on_c, 1, 66, 110
2, 57982, Note_on_c, 1, 59, 0
2, 57982, Note_on_c, 1, 63, 0
2, 57982, Note_on_c, 1, 66, 0
2, 58080, Note_on_c, 1, 59, 110
2, 58080, Note_on_c, 1, 63, 110
2, 58080, Note_on_c, 1, 66, 110
2, 58174, Note_on_c, 1, 59, 0
2, 58174, Note_on_c, 1, 63, 0
2, 58174, Note_on_c, 1, 66, 0
2, 58176, Note_on_c, 1, 59, 110
2, 58176, Note_on_c, 1, 63, 110
2, 58176, Note_on_c, 1, 66, 110
2, 58270, Note_on_c, 1, 59, 0
2, 58270, Note_on_c, 1, 63, 0
2, 58270, Note_on_c, 1, 66, 0
2, 58272, Note_on_c, 1, 59, 110
2, 58272, Note_on_c, 1, 63, 110
2, 58272, Note_on_c, 1, 66, 110
2, 58366, Note_on_c, 1, 59, 0
2, 58366, Note_on_c, 1, 63, 0
2, 58366, Note_on_c, 1, 66, 0
2, 58560, Note_on_c, 1, 61, 110
2, 58560, Note_on_c, 1, 64, 110
2, 58560, Note_on_c, 1, 68, 110
2, 58654, Note_on_c, 1, 61, 0
2, 58654, Note_on_c, 1, 64, 0
2, 58654, Note_on_c, 1, 68, 0
2, 58656, Note_on_c, 1, 61, 110
2, 58656, Note_on_c, 1, 64, 110
2, 58656, Note_on_c, 1, 68, 110
2, 58750, Note_on_c, 1, 61, 0
2, 58750, Note_on_c, 1, 64, 0
2, 58750, Note_on_c, 1, 68, 0
2, 58848, Note_on_c, 1, 61, 110
2, 58848, Note_on_c, 1, 64, 110
2, 58848, Note_on_c, 1, 68, 110
2, 58942, Note_on_c, 1, 61, 0
2, 58942, Note_on_c, 1, 64, 0
2, 58942, Note_on_c, 1, 68, 0
2, 58944, Note_on_c, 1, 61, 110
2, 58944, Note_on_c, 1, 64, 110
2, 58944, Note_on_c, 1, 68, 110
2, 59038, Note_on_c, 1, 61, 0
2, 59038, Note_on_c, 1, 64, 0
2, 59038, Note_on_c, 1, 68, 0
2, 59040, Note_on_c, 1, 61, 110
2, 59040, Note_on_c, 1, 64, 110
2, 59040, Note_on_c, 1, 68, 110
2, 59134, Note_on_c, 1, 61, 0
2, 59134, Note_on_c, 1, 64, 0
2, 59134, Note_on_c, 1, 68, 0
2, 59232, Note_on_c, 1, 61, 110
2, 59232, Note_on_c, 1, 64, 110
2, 59232, Note_on_c, 1, 68, 110
2, 59326, Note_on_c, 1, 61, 0
2, 59326, Note_on_c, 1, 64, 0
2, 59326, Note_on_c, 1, 68, 0
2, 59328, Note_on_c, 1, 61, 110
2, 59328, Note_on_c, 1, 64, 110
2, 59328, Note_on_c, 1, 68, 110
2, 59422, Note_on_c, 1, 61, 0
2, 59422, Note_on_c, 1, 64, 0
2, 59422, Note_on_c, 1, 68, 0
2, 59424, Note_on_c, 1, 61, 110
2, 59424, Note_on_c, 1, 64, 110
2, 59424, Note_on_c, 1, 68, 110
2, 59518, Note_on_c, 1, 61, 0
2, 59518, Note_on_c, 1, 64, 0
2, 59518, Note_on_c, 1, 68, 0
2, 59616, Note_on_c, 1, 61, 110
2, 59616, Note_on_c, 1, 64, 110
2, 59616, Note_on_c, 1, 68, 110
2, 59710, Note_on_c, 1, 61, 0
2, 59710, Note_on_c, 1, 64, 0
2, 59710, Note_on_c, 1, 68, 0
2, 59712, Note_on_c, 1, 61, 110
2, 59712, Note_on_c, 1, 64, 110
2, 59712, Note_on_c, 1, 68, 110
2, 59806, Note_on_c, 1, 61, 0
2, 59806, Note_on_c, 1, 64, 0
2, 59806, Note_on_c, 1, 68, 0
2, 59808, Note_on_c, 1, 61, 110
2, 59808, Note_on_c, 1, 64, 110
2, 59808, Note_on_c, 1, 68, 110
2, 59902, Note_on_c, 1, 61, 0
2, 59902, Note_on_c, 1, 64, 0
2, 59902, Note_on_c, 1, 68, 0
2, 60096, Note_on_c, 1, 59, 110
2, 60096, Note_on_c, 1, 63, 110
2, 60096, Note_on_c, 1, 66, 110
2, 60190, Note_on_c, 1, 59, 0
2, 60190, Note_on_c, 1, 63, 0
2, 60190, Note_on_c, 1, 66, 0
2, 60192, Note_on_c, 1, 59, 110
2, 60192, Note_on_c, 1, 63, 110
2, 60192, Note_on_c, 1, 66, 110
2, 60286, Note_on_c, 1, 59, 0
2, 60286, Note_on_c, 1, 63, 0
2, 60286, Note_on_c, 1, 66, 0
2, 60384, Note_on_c, 1, 59, 110
2, 60384, Note_on_c, 1, 63, 110
2, 60384, Note_on_c, 1, 66, 110
2, 60478, Note_on_c, 1, 59, 0
2, 60478, Note_on_c, 1, 63, 0
2, 60478, Note_on_c, 1, 66, 0
2, 60480, Note_on_c, 1, 59, 110
2, 60480, Note_on_c, 1, 63, 110
2, 60480, Note_on_c, 1, 66, 110
2, 60574, Note_on_c, 1, 59, 0
2, 60574, Note_on_c, 1, 63, 0
2, 60574, Note_on_c, 1, 66, 0
2, 60576, Note_on_c, 1, 59, 110
2, 60576, Note_on_c, 1, 63, 110
2, 60576, Note_on_c, 1, 66, 110
2, 60670, Note_on_c, 1, 59, 0
2, 60670, Note_on_c, 1, 63, 0
2, 60670, Note_on_c, 1, 66, 0
2, 60864, Note_on_c, 1, 57, 110
2, 60864, Note_on_c, 1, 61, 110
2, 60864, Note_on_c, 1, 64, 110
2, 60958, Note_on_c, 1, 57, 0
2, 60958, Note_on_c, 1, 61, 0
2, 60958, Note_on_c, 1, 64, 0
2, 60960, Note_on_c, 1, 57, 110
2, 60960, Note_on_c, 1, 61, 110
2, 60960, Note_on_c, 1, 64, 110
2, 61054, Note_on_c, 1, 57, 0
2, 61054, Note_on_c, 1, 61, 0
2, 61054, Note_on_c, 1, 64, 0
2, 61152, Note_on_c, 1, 57, 110
2, 61152, Note_on_c, 1, 61, 110
2, 61152, Note_on_c, 1, 64, 110
2, 61246, Note_on_c, 1, 57, 0
2, 61246, Note_on_c, 1, 61, 0
2, 61246, Note_on_c, 1, 64, 0
2, 61248, Note_on_c, 1, 57, 110
2, 61248, Note_on_c, 1, 61, 110
2, 61248, Note_on_c, 1, 64, 110
2, 61342, Note_on_c, 1, 57, 0
2, 61342, Note_on_c, 1, 61, 0
2, 61342, Note_on_c, 1, 64, 0
2, 61344, Note_on_c, 1, 57, 110
2, 61344, Note_on_c, 1, 61, 110
2, 61344, Note_on_c, 1, 64, 110
2, 61438, Note_on_c, 1, 57, 0
2, 61438, Note_on_c, 1, 61, 0
2, 61438, Note_on_c, 1, 64, 0
2, 61632, Note_on_c, 1, 61, 110
2, 61632, Note_on_c, 1, 64, 110
2, 61632, Note_on_c, 1, 68, 110
2, 61726, Note_on_c, 1, 61, 0
2, 61726, Note_on_c, 1, 64, 0
2, 61726, Note_on_c, 1, 68, 0
2, 61728, Note_on_c, 1, 61, 110
2, 61728, Note_on_c, 1, 64, 110
2, 61728, Note_on_c, 1, 68, 110
2, 61822, Note_on_c, 1, 61, 0
2, 61822, Note_on_c, 1, 64, 0
2, 61822, Note_on_c, 1, 68, 0
2, 61920, Note_on_c, 1, 61, 110
2, 61920, Note_on_c, 1, 64, 110
2, 61920, Note_on_c, 1, 68, 110
2, 62014, Note_on_c, 1, 61, 0
2, 62014, Note_on_c, 1, 64, 0
2, 62014, Note_on_c, 1, 68, 0
2, 62016, Note_on_c, 1, 61, 110
2, 62016, Note_on_c, 1, 64, 110
2, 62016, Note_on_c, 1, 68, 110
2, 62110, Note_on_c, 1, 61, 0
2, 62110, Note_on_c, 1, 64, 0
2, 62110, Note_on_c, 1, 68, 0
2, 62112, Note_on_c, 1, 61, 110
2, 62112, Note_on_c, 1, 64, 110
2, 62112, Note_on_c, 1, 68, 110
2, 62206, Note_on_c, 1, 61, 0
2, 62206, Note_on_c, 1, 64, 0
2, 62206, Note_on_c, 1, 68, 0
2, 62400, Note_on_c, 1, 59, 110
2, 62400, Note_on_c, 1, 64, 110
2, 62400, Note_on_c, 1, 68, 110
2, 62494, Note_on_c, 1, 59, 0
2, 62494, Note_on_c, 1, 64, 0
2, 62494, Note_on_c, 1, 68, 0
2, 62496, Note_on_c, 1, 59, 110
2, 62496, Note_on_c, 1, 64, 110
2, 62496, Note_on_c, 1, 68, 110
2, 62590, Note_on_c, 1, 59, 0
2, 62590, Note_on_c, 1, 64, 0
2, 62590, Note_on_c, 1, 68, 0
2, 62688, Note_on_c, 1, 59, 110
2, 62688, Note_on_c, 1, 64, 110
2, 62688, Note_on_c, 1, 68, 110
2, 62782, Note_on_c, 1, 59, 0
2, 62782, Note_on_c, 1, 64, 0
2, 62782, Note_on_c, 1, 68, 0
2, 62784, Note_on_c, 1, 59, 110
2, 62784, Note_on_c, 1, 64, 110
2, 62784, Note_on_c, 1, 68, 110
2, 62878, Note_on_c, 1, 59, 0
2, 62878, Note_on_c, 1, 64, 0
2, 62878, Note_on_c, 1, 68, 0
2, 62880, Note_on_c, 1, 59, 110
2, 62880, Note_on_c, 1, 64, 110
2, 62880, Note_on_c, 1, 68, 110
2, 62974, Note_on_c, 1, 59, 0
2, 62974, Note_on_c, 1, 64, 0
2, 62974, Note_on_c, 1, 68, 0
2, 63168, Note_on_c, 1, 57, 110
2, 63168, Note_on_c, 1, 61, 110
2, 63168, Note_on_c, 1, 64, 110
2, 63262, Note_on_c, 1, 57, 0
2, 63262, Note_on_c, 1, 61, 0
2, 63262, Note_on_c, 1, 64, 0
2, 63264, Note_on_c, 1, 57, 110
2, 63264, Note_on_c, 1, 61, 110
2, 63264, Note_on_c, 1, 64, 110
2, 63358, Note_on_c, 1, 57, 0
2, 63358, Note_on_c, 1, 61, 0
2, 63358, Note_on_c, 1, 64, 0
2, 63456, Note_on_c, 1, 57, 110
2, 63456, Note_on_c, 1, 61, 110
2, 63456, Note_on_c, 1, 64, 110
2, 63550, Note_on_c, 1, 57, 0
2, 63550, Note_on_c, 1, 61, 0
2, 63550, Note_on_c, 1, 64, 0
2, 63552, Note_on_c, 1, 57, 110
2, 63552, Note_on_c, 1, 61, 110
2, 63552, Note_on_c, 1, 64, 110
2, 63646, Note_on_c, 1, 57, 0
2, 63646, Note_on_c, 1, 61, 0
2, 63646, Note_on_c, 1, 64, 0
2, 63648, Note_on_c, 1, 57, 110
2, 63648, Note_on_c, 1, 61, 110
2, 63648, Note_on_c, 1, 64, 110
2, 63742, Note_on_c, 1, 57, 0
2, 63742, Note_on_c, 1, 61, 0
2, 63742, Note_on_c, 1, 64, 0
2, 63936, Note_on_c, 1, 62, 110
2, 63936, Note_on_c, 1, 66, 110
2, 63936, Note_on_c, 1, 69, 110
2, 64030, Note_on_c, 1, 62, 0
2, 64030, Note_on_c, 1, 66, 0
2, 64030, Note_on_c, 1, 69, 0
2, 64032, Note_on_c, 1, 62, 110
2, 64032, Note_on_c, 1, 66, 110
2, 64032, Note_on_c, 1, 69, 110
2, 64126, Note_on_c, 1, 62, 0
2, 64126, Note_on_c, 1, 66, 0
2, 64126, Note_on_c, 1, 69, 0
2, 64224, Note_on_c, 1, 62, 110
2, 64224, Note_on_c, 1, 66, 110
2, 64224, Note_on_c, 1, 69, 110
2, 64318, Note_on_c, 1, 62, 0
2, 64318, Note_on_c, 1, 66, 0
2, 64318, Note_on_c, 1, 69, 0
2, 64320, Note_on_c, 1, 62, 110
2, 64320, Note_on_c, 1, 66, 110
2, 64320, Note_on_c, 1, 69, 110
2, 64414, Note_on_c, 1, 62, 0
2, 64414, Note_on_c, 1, 66, 0
2, 64414, Note_on_c, 1, 69, 0
2, 64416, Note_on_c, 1, 62, 110
2, 64416, Note_on_c, 1, 66, 110
2, 64416, Note_on_c, 1, 69, 110
2, 64510, Note_on_c, 1, 62, 0
2, 64510, Note_on_c, 1, 66, 0
2, 64510, Note_on_c, 1, 69, 0
2, 64704, Note_on_c, 1, 62, 110
2, 64704, Note_on_c, 1, 66, 110
2, 64704, Note_on_c, 1, 69, 110
2, 64798, Note_on_c, 1, 62, 0
2, 64798, Note_on_c, 1, 66, 0
2, 64798, Note_on_c, 1, 69, 0
2, 64800, Note_on_c, 1, 62, 110
2, 64800, Note_on_c, 1, 66, 110
2, 64800, Note_on_c, 1, 69, 110
2, 64894, Note_on_c, 1, 62, 0
2, 64894, Note_on_c, 1, 66, 0
2, 64894, Note_on_c, 1, 69, 0
2, 64992, Note_on_c, 1, 62, 110
2, 64992, Note_on_c, 1, 66, 110
2, 64992, Note_on_c, 1, 69, 110
2, 65086, Note_on_c, 1, 62, 0
2, 65086, Note_on_c, 1, 66, 0
2, 65086, Note_on_c, 1, 69, 0
2, 65088, Note_on_c, 1, 62, 110
2, 65088, Note_on_c, 1, 66, 110
2, 65088, Note_on_c, 1, 69, 110
2, 65182, Note_on_c, 1, 62, 0
2, 65182, Note_on_c, 1, 66, 0
2, 65182, Note_on_c, 1, 69, 0
2, 65184, Note_on_c, 1, 62, 110
2, 65184, Note_on_c, 1, 66, 110
2, 65184, Note_on_c, 1, 69, 110
2, 65278, Note_on_c, 1, 62, 0
2, 65278, Note_on_c, 1, 66, 0
2, 65278, Note_on_c, 1, 69, 0
2, 65280, Note_on_c, 1, 62, 110
2, 65280, Note_on_c, 1, 66, 110
2, 65280, Note_on_c, 1, 69, 110
2, 65374, Note_on_c, 1, 62, 0
2, 65374, Note_on_c, 1, 66, 0
2, 65374, Note_on_c, 1, 69, 0
2, 65472, Note_on_c, 1, 57, 110
2, 65472, Note_on_c, 1, 61, 110
2, 65472, Note_on_c, 1, 64, 110
2, 65566, Note_on_c, 1, 57, 0
2, 65566, Note_on_c, 1, 61, 0
2, 65566, Note_on_c, 1, 64, 0
2, 65568, Note_on_c, 1, 57, 110
2, 65568, Note_on_c, 1, 61, 110
2, 65568, Note_on_c, 1, 64, 110
2, 65662, Note_on_c, 1, 57, 0
2, 65662, Note_on_c, 1, 61, 0
2, 65662, Note_on_c, 1, 64, 0
2, 65760, Note_on_c, 1, 57, 110
2, 65760, Note_on_c, 1, 61, 110
2, 65760, Note_on_c, 1, 64, 110
2, 65854, Note_on_c, 1, 57, 0
2, 65854, Note_on_c, 1, 61, 0
2, 65854, Note_on_c, 1, 64, 0
2, 65856, Note_on_c, 1, 57, 110
2, 65856, Note_on_c, 1, 61, 110
2, 65856, Note_on_c, 1, 64, 110
2, 65950, Note_on_c, 1, 57, 0
2, 65950, Note_on_c, 1, 61, 0
2, 65950, Note_on_c, 1, 64, 0
2, 65952, Note_on_c, 1, 57, 110
2, 65952, Note_on_c, 1, 61, 110
2, 65952, Note_on_c, 1, 64, 110
2, 66046, Note_on_c, 1, 57, 0
2, 66046, Note_on_c, 1, 61, 0
2, 66046, Note_on_c, 1, 64, 0
2, 66144, Note_on_c, 1, 57, 110
2, 66144, Note_on_c, 1, 61, 110
2, 66144, Note_on_c, 1, 64, 110
2, 66238, Note_on_c, 1, 57, 0
2, 66238, Note_on_c, 1, 61, 0
2, 66238, Note_on_c, 1, 64, 0
2, 66240, Note_on_c, 1, 57, 110
2, 66240, Note_on_c, 1, 61, 110
2, 66240, Note_on_c, 1, 64, 110
2, 66334, Note_on_c, 1, 57, 0
2, 66334, Note_on_c, 1, 61, 0
2, 66334, Note_on_c, 1, 64, 0
2, 66336, Note_on_c, 1, 57, 110
2, 66336, Note_on_c, 1, 61, 110
2, 66336, Note_on_c, 1, 64, 110
2, 66430, Note_on_c, 1, 57, 0
2, 66430, Note_on_c, 1, 61, 0
2, 66430, Note_on_c, 1, 64, 0
2, 66528, Note_on_c, 1, 57, 110
2, 66528, Note_on_c, 1, 61, 110
2, 66528, Note_on_c, 1, 64, 110
2, 66622, Note_on_c, 1, 57, 0
2, 66622, Note_on_c, 1, 61, 0
2, 66622, Note_on_c, 1, 64, 0
2, 66624, Note_on_c, 1, 57, 110
2, 66624, Note_on_c, 1, 61, 110
2, 66624, Note_on_c, 1, 64, 110
2, 66718, Note_on_c, 1, 57, 0
2, 66718, Note_on_c, 1, 61, 0
2, 66718, Note_on_c, 1, 64, 0
2, 67008, Note_on_c, 1, 59, 110
2, 67008, Note_on_c, 1, 63, 110
2, 67008, Note_on_c, 1, 66, 110
2, 67102, Note_on_c, 1, 59, 0
2, 67102, Note_on_c, 1, 63, 0
2, 67102, Note_on_c, 1, 66, 0
2, 67104, Note_on_c, 1, 59, 110
2, 67104, Note_on_c, 1, 63, 110
2, 67104, Note_on_c, 1, 66, 110
2, 67198, Note_on_c, 1, 59, 0
2, 67198, Note_on_c, 1, 63, 0
2, 67198, Note_on_c, 1, 66, 0
2, 67296, Note_on_c, 1, 59, 110
2, 67296, Note_on_c, 1, 63, 110
2, 67296, Note_on_c, 1, 66, 110
2, 67390, Note_on_c, 1, 59, 0
2, 67390, Note_on_c, 1, 63, 0
2, 67390, Note_on_c, 1, 66, 0
2, 67392, Note_on_c, 1, 59, 110
2, 67392, Note_on_c, 1, 63, 110
2, 67392, Note_on_c, 1, 66, 110
2, 67486, Note_on_c, 1, 59, 0
2, 67486, Note_on_c, 1, 63, 0
2, 67486, Note_on_c, 1, 66, 0
2, 67488, Note_on_c, 1, 59, 110
2, 67488, Note_on_c, 1, 63, 110
2, 67488, Note_on_c, 1, 66, 110
2, 67582, Note_on_c, 1, 59, 0
2, 67582, Note_on_c, 1, 63, 0
2, 67582, Note_on_c, 1, 66, 0
2, 67680, Note_on_c, 1, 59, 110
2, 67680, Note_on_c, 1, 63, 110
2, 67680, Note_on_c, 1, 66, 110
2, 67774, Note_on_c, 1, 59, 0
2, 67774, Note_on_c, 1, 63, 0
2, 67774, Note_on_c, 1, 66, 0
2, 67776, Note_on_c, 1, 59, 110
2, 67776, Note_on_c, 1, 63, 110
2, 67776, Note_on_c, 1, 66, 110
2, 67870, Note_on_c, 1, 59, 0
2, 67870, Note_on_c, 1, 63, 0
2, 67870, Note_on_c, 1, 66, 0
2, 67872, Note_on_c, 1, 59, 110
2, 67872, Note_on_c, 1, 63, 110
2, 67872, Note_on_c, 1, 66, 110
2, 67966, Note_on_c, 1, 59, 0
2, 67966, Note_on_c, 1, 63, 0
2, 67966, Note_on_c, 1, 66, 0
2, 68064, Note_on_c, 1, 59, 110
2, 68064, Note_on_c, 1, 63, 110
2, 68064, Note_on_c, 1, 66, 110
2, 68158, Note_on_c, 1, 59, 0
2, 68158, Note_on_c, 1, 63, 0
2, 68158, Note_on_c, 1, 66, 0
2, 68160, Note_on_c, 1, 59, 110
2, 68160, Note_on_c, 1, 63, 110
2, 68160, Note_on_c, 1, 66, 110
2, 68254, Note_on_c, 1, 59, 0
2, 68254, Note_on_c, 1, 63, 0
2, 68254, Note_on_c, 1, 66, 0
2, 68256, Note_on_c, 1, 59, 110
2, 68256, Note_on_c, 1, 63, 110
2, 68256, Note_on_c, 1, 66, 110
2, 68350, Note_on_c, 1, 59, 0
2, 68350, Note_on_c, 1, 63, 0
2, 68350, Note_on_c, 1, 66, 0
2, 68544, Note_on_c, 1, 57, 110
2, 68544, Note_on_c, 1, 60, 110
2, 68544, Note_on_c, 1, 64, 110
2, 68638, Note_on_c, 1, 57, 0
2, 68638, Note_on_c, 1, 60, 0
2, 68638, Note_on_c, 1, 64, 0
2, 68640, Note_on_c, 1, 57, 110
2, 68640, Note_on_c, 1, 60, 110
2, 68640, Note_on_c, 1, 64, 110
2, 68734, Note_on_c, 1, 57, 0
2, 68734, Note_on_c, 1, 60, 0
2, 68734, Note_on_c, 1, 64, 0
2, 68832, Note_on_c, 1, 57, 110
2, 68832, Note_on_c, 1, 60, 110
2, 68832, Note_on_c, 1, 64, 110
2, 68926, Note_on_c, 1, 57, 0
2, 68926, Note_on_c, 1, 60, 0
2, 68926, Note_on_c, 1, 64, 0
2, 68928, Note_on_c, 1, 57, 110
2, 68928, Note_on_c, 1, 60, 110
2, 68928, Note_on_c, 1, 64, 110
2, 69022, Note_on_c, 1, 57, 0
2, 69022, Note_on_c, 1, 60, 0
2, 69022, Note_on_c, 1, 64, 0
2, 69024, Note_on_c, 1, 57, 110
2, 69024, Note_on_c, 1, 60, 110
2, 69024, Note_on_c, 1, 64, 110
2, 69118, Note_on_c, 1, 57, 0
2, 69118, Note_on_c, 1, 60, 0
2, 69118, Note_on_c, 1, 64, 0
2, 69312, Note_on_c, 1, 59, 110
2, 69312, Note_on_c, 1, 64, 110
2, 69312, Note_on_c, 1, 68, 110
2, 69406, Note_on_c, 1, 59, 0
2, 69406, Note_on_c, 1, 64, 0
2, 69406, Note_on_c, 1, 68, 0
2, 69408, Note_on_c, 1, 59, 110
2, 69408, Note_on_c, 1, 64, 110
2, 69408, Note_on_c, 1, 68, 110
2, 69502, Note_on_c, 1, 59, 0
2, 69502, Note_on_c, 1, 64, 0
2, 69502, Note_on_c, 1, 68, 0
2, 69600, Note_on_c, 1, 59, 110
2, 69600, Note_on_c, 1, 64, 110
2, 69600, Note_on_c, 1, 68, 110
2, 69694, Note_on_c, 1, 59, 0
2, 69694, Note_on_c, 1, 64, 0
2, 69694, Note_on_c, 1, 68, 0
2, 69696, Note_on_c, 1, 59, 110
2, 69696, Note_on_c, 1, 64, 110
2, 69696, Note_on_c, 1, 68, 110
2, 69790, Note_on_c, 1, 59, 0
2, 69790, Note_on_c, 1, 64, 0
2, 69790, Note_on_c, 1, 68, 0
2, 69792, Note_on_c, 1, 59, 110
2, 69792, Note_on_c, 1, 64, 110
2, 69792, Note_on_c, 1, 68, 110
2, 69886, Note_on_c, 1, 59, 0
2, 69886, Note_on_c, 1, 64, 0
2, 69886, Note_on_c, 1, 68, 0
2, 70080, Note_on_c, 1, 55, 110
2, 70080, Note_on_c, 1, 59, 110
2, 70080, Note_on_c, 1, 62, 110
2, 70174, Note_on_c, 1, 55, 0
2, 70174, Note_on_c, 1, 59, 0
2, 70174, Note_on_c, 1, 62, 0
2, 70176, Note_on_c, 1, 55, 110
2, 70176, Note_on_c, 1, 59, 110
2, 70176, Note_on_c, 1, 62, 110
2, 70270, Note_on_c, 1, 55, 0
2, 70270, Note_on_c, 1, 59, 0
2, 70270, Note_on_c, 1, 62, 0
2, 70368, Note_on_c, 1, 55, 110
2, 70368, Note_on_c, 1, 59, 110
2, 70368, Note_on_c, 1, 62, 110
2, 70462, Note_on_c, 1, 55, 0
2, 70462, Note_on_c, 1, 59, 0
2, 70462, Note_on_c, 1, 62, 0
2, 70464, Note_on_c, 1, 55, 110
2, 70464, Note_on_c, 1, 59, 110
2, 70464, Note_on_c, 1, 62, 110
2, 70558, Note_on_c, 1, 55, 0
2, 70558, Note_on_c, 1, 59, 0
2, 70558, Note_on_c, 1, 62, 0
2, 70560, Note_on_c, 1, 55, 110
2, 70560, Note_on_c, 1, 59, 110
2, 70560, Note_on_c, 1, 62, 110
2, 70654, Note_on_c, 1, 55, 0
2, 70654, Note_on_c, 1, 59, 0
2, 70654, Note_on_c, 1, 62, 0
2, 70848, Note_on_c, 1, 53, 110
2, 70848, Note_on_c, 1, 57, 110
2, 70848, Note_on_c, 1, 59, 110
2, 70848, Note_on_c, 1, 60, 110
2, 70942, Note_on_c, 1, 53, 0
2, 70942, Note_on_c, 1, 57, 0
2, 70942, Note_on_c, 1, 59, 0
2, 70942, Note_on_c, 1, 60, 0
2, 70944, Note_on_c, 1, 53, 110
2, 70944, Note_on_c, 1, 57, 110
2, 70944, Note_on_c, 1, 59, 110
2, 70944, Note_on_c, 1, 60, 110
2, 71038, Note_on_c, 1, 53, 0
2, 71038, Note_on_c, 1, 57, 0
2, 71038, Note_on_c, 1, 59, 0
2, 71038, Note_on_c, 1, 60, 0
2, 71136, Note_on_c, 1, 53, 110
2, 71136, Note_on_c, 1, 57, 110
2, 71136, Note_on_c, 1, 59, 110
2, 71136, Note_on_c, 1, 60, 110
2, 71230, Note_on_c, 1, 53, 0
2, 71230, Note_on_c, 1, 57, 0
2, 71230, Note_on_c, 1, 59, 0
2, 71230, Note_on_c, 1, 60, 0
2, 71232, Note_on_c, 1, 53, 110
2, 71232, Note_on_c, 1, 57, 110
2, 71232, Note_on_c, 1, 59, 110
2, 71232, Note_on_c, 1, 60, 110
2, 71326, Note_on_c, 1, 53, 0
2, 71326, Note_on_c, 1, 57, 0
2, 71326, Note_on_c, 1, 59, 0
2, 71326, Note_on_c, 1, 60, 0
2, 71328, Note_on_c, 1, 53, 110
2, 71328, Note_on_c, 1, 57, 110
2, 71328, Note_on_c, 1, 59, 110
2, 71328, Note_on_c, 1, 60, 110
2, 71422, Note_on_c, 1, 53, 0
2, 71422, Note_on_c, 1, 57, 0
2, 71422, Note_on_c, 1, 59, 0
2, 71422, Note_on_c, 1, 60, 0
2, 71616, Note_on_c, 1, 58, 110
2, 71616, Note_on_c, 1, 62, 110
2, 71616, Note_on_c, 1, 65, 110
2, 71710, Note_on_c, 1, 58, 0
2, 71710, Note_on_c, 1, 62, 0
2, 71710, Note_on_c, 1, 65, 0
2, 71712, Note_on_c, 1, 58, 110
2, 71712, Note_on_c, 1, 62, 110
2, 71712, Note_on_c, 1, 65, 110
2, 71806, Note_on_c, 1, 58, 0
2, 71806, Note_on_c, 1, 62, 0
2, 71806, Note_on_c, 1, 65, 0
2, 71904, Note_on_c, 1, 58, 110
2, 71904, Note_on_c, 1, 62, 110
2, 71904, Note_on_c, 1, 65, 110
2, 71998, Note_on_c, 1, 58, 0
2, 71998, Note_on_c, 1, 62, 0
2, 71998, Note_on_c, 1, 65, 0
2, 72000, Note_on_c, 1, 58, 110
2, 72000, Note_on_c, 1, 62, 110
2, 72000, Note_on_c, 1, 65, 110
2, 72094, Note_on_c, 1, 58, 0
2, 72094, Note_on_c, 1, 62, 0
2, 72094, Note_on_c, 1, 65, 0
2, 72096, Note_on_c, 1, 58, 110
2, 72096, Note_on_c, 1, 62, 110
2, 72096, Note_on_c, 1, 65, 110
2, 72190, Note_on_c, 1, 58, 0
2, 72190, Note_on_c, 1, 62, 0
2, 72190, Note_on_c, 1, 65, 0
2, 72384, Note_on_c, 1, 61, 110
2, 72384, Note_on_c, 1, 65, 110
2, 72384, Note_on_c, 1, 68, 110
2, 72478, Note_on_c, 1, 61, 0
2, 72478, Note_on_c, 1, 65, 0
2, 72478, Note_on_c, 1, 68, 0
2, 72480, Note_on_c, 1, 61, 110
2, 72480, Note_on_c, 1, 65, 110
2, 72480, Note_on_c, 1, 68, 110
2, 72574, Note_on_c, 1, 61, 0
2, 72574, Note_on_c, 1, 65, 0
2, 72574, Note_on_c, 1, 68, 0
2, 72672, Note_on_c, 1, 61, 110
2, 72672, Note_on_c, 1, 65, 110
2, 72672, Note_on_c, 1, 68, 110
2, 72766, Note_on_c, 1, 61, 0
2, 72766, Note_on_c, 1, 65, 0
2, 72766, Note_on_c, 1, 68, 0
2, 72768, Note_on_c, 1, 61, 110
2, 72768, Note_on_c, 1, 65, 110
2, 72768, Note_on_c, 1, 68, 110
2, 72862, Note_on_c, 1, 61, 0
2, 72862, Note_on_c, 1, 65, 0
2, 72862, Note_on_c, 1, 68, 0
2, 72864, Note_on_c, 1, 61, 110
2, 72864, Note_on_c, 1, 65, 110
2, 72864, Note_on_c, 1, 68, 110
2, 72958, Note_on_c, 1, 61, 0
2, 72958, Note_on_c, 1, 65, 0
2, 72958, Note_on_c, 1, 68, 0
2, 73152, Note_on_c, 1, 59, 110
2, 73152, Note_on_c, 1, 63, 110
2, 73152, Note_on_c, 1, 66, 110
2, 73246, Note_on_c, 1, 59, 0
2, 73246, Note_on_c, 1, 63, 0
2, 73246, Note_on_c, 1, 66, 0
2, 73248, Note_on_c, 1, 59, 110
2, 73248, Note_on_c, 1, 63, 110
2, 73248, Note_on_c, 1, 66, 110
2, 73342, Note_on_c, 1, 59, 0
2, 73342, Note_on_c, 1, 63, 0
2, 73342, Note_on_c, 1, 66, 0
2, 73440, Note_on_c, 1, 59, 110
2, 73440, Note_on_c, 1, 63, 110
2, 73440, Note_on_c, 1, 66, 110
2, 73534, Note_on_c, 1, 59, 0
2, 73534, Note_on_c, 1, 63, 0
2, 73534, Note_on_c, 1, 66, 0
2, 73536, Note_on_c, 1, 59, 110
2, 73536, Note_on_c, 1, 63, 110
2, 73536, Note_on_c, 1, 66, 110
2, 73630, Note_on_c, 1, 59, 0
2, 73630, Note_on_c, 1, 63, 0
2, 73630, Note_on_c, 1, 66, 0
2, 73632, Note_on_c, 1, 59, 110
2, 73632, Note_on_c, 1, 63, 110
2, 73632, Note_on_c, 1, 66, 110
2, 73726, Note_on_c, 1, 59, 0
2, 73726, Note_on_c, 1, 63, 0
2, 73726, Note_on_c, 1, 66, 0
2, 73824, Note_on_c, 1, 59, 110
2, 73824, Note_on_c, 1, 63, 110
2, 73824, Note_on_c, 1, 66, 110
2, 73918, Note_on_c, 1, 59, 0
2, 73918, Note_on_c, 1, 63, 0
2, 73918, Note_on_c, 1, 66, 0
2, 73920, Note_on_c, 1, 59, 110
2, 73920, Note_on_c, 1, 63, 110
2, 73920, Note_on_c, 1, 66, 110
2, 74014, Note_on_c, 1, 59, 0
2, 74014, Note_on_c, 1, 63, 0
2, 74014, Note_on_c, 1, 66, 0
2, 74016, Note_on_c, 1, 59, 110
2, 74016, Note_on_c, 1, 63, 110
2, 74016, Note_on_c, 1, 66, 110
2, 74110, Note_on_c, 1, 59, 0
2, 74110, Note_on_c, 1, 63, 0
2, 74110, Note_on_c, 1, 66, 0
2, 74208, Note_on_c, 1, 59, 110
2, 74208, Note_on_c, 1, 63, 110
2, 74208, Note_on_c, 1, 66, 110
2, 74302, Note_on_c, 1, 59, 0
2, 74302, Note_on_c, 1, 63, 0
2, 74302, Note_on_c, 1, 66, 0
2, 74304, Note_on_c, 1, 59, 110
2, 74304, Note_on_c, 1, 63, 110
2, 74304, Note_on_c, 1, 66, 110
2, 74398, Note_on_c, 1, 59, 0
2, 74398, Note_on_c, 1, 63, 0
2, 74398, Note_on_c, 1, 66, 0
2, 74400, Note_on_c, 1, 59, 110
2, 74400, Note_on_c, 1, 63, 110
2, 74400, Note_on_c, 1, 66, 110
2, 74494, Note_on_c, 1, 59, 0
2, 74494, Note_on_c, 1, 63, 0
2, 74494, Note_on_c, 1, 66, 0
2, 74688, Note_on_c, 1, 57, 110
2, 74688, Note_on_c, 1, 60, 110
2, 74688, Note_on_c, 1, 64, 110
2, 74782, Note_on_c, 1, 57, 0
2, 74782, Note_on_c, 1, 60, 0
2, 74782, Note_on_c, 1, 64, 0
2, 74784, Note_on_c, 1, 57, 110
2, 74784, Note_on_c, 1, 60, 110
2, 74784, Note_on_c, 1, 64, 110
2, 74878, Note_on_c, 1, 57, 0
2, 74878, Note_on_c, 1, 60, 0
2, 74878, Note_on_c, 1, 64, 0
2, 74976, Note_on_c, 1, 57, 110
2, 74976, Note_on_c, 1, 60, 110
2, 74976, Note_on_c, 1, 64, 110
2, 75070, Note_on_c, 1, 57, 0
2, 75070, Note_on_c, 1, 60, 0
2, 75070, Note_on_c, 1, 64, 0
2, 75072, Note_on_c, 1, 57, 110
2, 75072, Note_on_c, 1, 60, 110
2, 75072, Note_on_c, 1, 64, 110
2, 75166, Note_on_c, 1, 57, 0
2, 75166, Note_on_c, 1, 60, 0
2, 75166, Note_on_c, 1, 64, 0
2, 75168, Note_on_c, 1, 57, 110
2, 75168, Note_on_c, 1, 60, 110
2, 75168, Note_on_c, 1, 64, 110
2, 75262, Note_on_c, 1, 57, 0
2, 75262, Note_on_c, 1, 60, 0
2, 75262, Note_on_c, 1, 64, 0
2, 75456, Note_on_c, 1, 59, 110
2, 75456, Note_on_c, 1, 64, 110
2, 75456, Note_on_c, 1, 68, 110
2, 75550, Note_on_c, 1, 59, 0
2, 75550, Note_on_c, 1, 64, 0
2, 75550, Note_on_c, 1, 68, 0
2, 75552, Note_on_c, 1, 59, 110
2, 75552, Note_on_c, 1, 64, 110
2, 75552, Note_on_c, 1, 68, 110
2, 75646, Note_on_c, 1, 59, 0
2, 75646, Note_on_c, 1, 64, 0
2, 75646, Note_on_c, 1, 68, 0
2, 75744, Note_on_c, 1, 59, 110
2, 75744, Note_on_c, 1, 64, 110
2, 75744, Note_on_c, 1, 68, 110
2, 75838, Note_on_c, 1, 59, 0
2, 75838, Note_on_c, 1, 64, 0
2, 75838, Note_on_c, 1, 68, 0
2, 75840, Note_on_c, 1, 59, 110
2, 75840, Note_on_c, 1, 64, 110
2, 75840, Note_on_c, 1, 68, 110
2, 75934, Note_on_c, 1, 59, 0
2, 75934, Note_on_c, 1, 64, 0
2, 75934, Note_on_c, 1, 68, 0
2, 75936, Note_on_c, 1, 59, 110
2, 75936, Note_on_c, 1, 64, 110
2, 75936, Note_on_c, 1, 68, 110
2, 76030, Note_on_c, 1, 59, 0
2, 76030, Note_on_c, 1, 64, 0
2, 76030, Note_on_c, 1, 68, 0
2, 76224, Note_on_c, 1, 55, 110
2, 76224, Note_on_c, 1, 59, 110
2, 76224, Note_on_c, 1, 62, 110
2, 76318, Note_on_c, 1, 55, 0
2, 76318, Note_on_c, 1, 59, 0
2, 76318, Note_on_c, 1, 62, 0
2, 76320, Note_on_c, 1, 55, 110
2, 76320, Note_on_c, 1, 59, 110
2, 76320, Note_on_c, 1, 62, 110
2, 76414, Note_on_c, 1, 55, 0
2, 76414, Note_on_c, 1, 59, 0
2, 76414, Note_on_c, 1, 62, 0
2, 76512, Note_on_c, 1, 55, 110
2, 76512, Note_on_c, 1, 59, 110
2, 76512, Note_on_c, 1, 62, 110
2, 76606, Note_on_c, 1, 55, 0
2, 76606, Note_on_c, 1, 59, 0
2, 76606, Note_on_c, 1, 62, 0
2, 76608, Note_on_c, 1, 55, 110
2, 76608, Note_on_c, 1, 59, 110
2, 76608, Note_on_c, 1, 62, 110
2, 76702, Note_on_c, 1, 55, 0
2, 76702, Note_on_c, 1, 59, 0
2, 76702, Note_on_c, 1, 62, 0
2, 76704, Note_on_c, 1, 55, 110
2, 76704, Note_on_c, 1, 59, 110
2, 76704, Note_on_c, 1, 62, 110
2, 76798, Note_on_c, 1, 55, 0
2, 76798, Note_on_c, 1, 59, 0
2, 76798, Note_on_c, 1, 62, 0
2, 76992, Note_on_c, 1, 53, 110
2, 76992, Note_on_c, 1, 57, 110
2, 76992, Note_on_c, 1, 59, 110
2, 76992, Note_on_c, 1, 60, 110
2, 77086, Note_on_c, 1, 53, 0
2, 77086, Note_on_c, 1, 57, 0
2, 77086, Note_on_c, 1, 59, 0
2, 77086, Note_on_c, 1, 60, 0
2, 77088, Note_on_c, 1, 53, 110
2, 77088, Note_on_c, 1, 57, 110
2, 77088, Note_on_c, 1, 59, 110
2, 77088, Note_on_c, 1, 60, 110
2, 77182, Note_on_c, 1, 53, 0
2, 77182, Note_on_c, 1, 57, 0
2, 77182, Note_on_c, 1, 59, 0
2, 77182, Note_on_c, 1, 60, 0
2, 77280, Note_on_c, 1, 53, 110
2, 77280, Note_on_c, 1, 57, 110
2, 77280, Note_on_c, 1, 59, 110
2, 77280, Note_on_c, 1, 60, 110
2, 77374, Note_on_c, 1, 53, 0
2, 77374, Note_on_c, 1, 57, 0
2, 77374, Note_on_c, 1, 59, 0
2, 77374, Note_on_c, 1, 60, 0
2, 77376, Note_on_c, 1, 53, 110
2, 77376, Note_on_c, 1, 57, 110
2, 77376, Note_on_c, 1, 59, 110
2, 77376, Note_on_c, 1, 60, 110
2, 77470, Note_on_c, 1, 53, 0
2, 77470, Note_on_c, 1, 57, 0
2, 77470, Note_on_c, 1, 59, 0
2, 77470, Note_on_c, 1, 60, 0
2, 77472, Note_on_c, 1, 53, 110
2, 77472, Note_on_c, 1, 57, 110
2, 77472, Note_on_c, 1, 59, 110
2, 77472, Note_on_c, 1, 60, 110
2, 77566, Note_on_c, 1, 53, 0
2, 77566, Note_on_c, 1, 57, 0
2, 77566, Note_on_c, 1, 59, 0
2, 77566, Note_on_c, 1, 60, 0
2, 77760, Note_on_c, 1, 58, 110
2, 77760, Note_on_c, 1, 62, 110
2, 77760, Note_on_c, 1, 65, 110
2, 77854, Note_on_c, 1, 58, 0
2, 77854, Note_on_c, 1, 62, 0
2, 77854, Note_on_c, 1, 65, 0
2, 77856, Note_on_c, 1, 58, 110
2, 77856, Note_on_c, 1, 62, 110
2, 77856, Note_on_c, 1, 65, 110
2, 77950, Note_on_c, 1, 58, 0
2, 77950, Note_on_c, 1, 62, 0
2, 77950, Note_on_c, 1, 65, 0
2, 78048, Note_on_c, 1, 58, 110
2, 78048, Note_on_c, 1, 62, 110
2, 78048, Note_on_c, 1, 65, 110
2, 78142, Note_on_c, 1, 58, 0
2, 78142, Note_on_c, 1, 62, 0
2, 78142, Note_on_c, 1, 65, 0
2, 78144, Note_on_c, 1, 58, 110
2, 78144, Note_on_c, 1, 62, 110
2, 78144, Note_on_c, 1, 65, 110
2, 78238, Note_on_c, 1, 58, 0
2, 78238, Note_on_c, 1, 62, 0
2, 78238, Note_on_c, 1, 65, 0
2, 78240, Note_on_c, 1, 58, 110
2, 78240, Note_on_c, 1, 62, 110
2, 78240, Note_on_c, 1, 65, 110
2, 78334, Note_on_c, 1, 58, 0
2, 78334, Note_on_c, 1, 62, 0
2, 78334, Note_on_c, 1, 65, 0
2, 78528, Note_on_c, 1, 61, 110
2, 78528, Note_on_c, 1, 64, 110
2, 78528, Note_on_c, 1, 69, 110
2, 78622, Note_on_c, 1, 61, 0
2, 78622, Note_on_c, 1, 64, 0
2, 78622, Note_on_c, 1, 69, 0
2, 78624, Note_on_c, 1, 61, 110
2, 78624, Note_on_c, 1, 64, 110
2, 78624, Note_on_c, 1, 69, 110
2, 78718, Note_on_c, 1, 61, 0
2, 78718, Note_on_c, 1, 64, 0
2, 78718, Note_on_c, 1, 69, 0
2, 78816, Note_on_c, 1, 61, 110
2, 78816, Note_on_c, 1, 64, 110
2, 78816, Note_on_c, 1, 69, 110
2, 78910, Note_on_c, 1, 61, 0
2, 78910, Note_on_c, 1, 64, 0
2, 78910, Note_on_c, 1, 69, 0
2, 78912, Note_on_c, 1, 61, 110
2, 78912, Note_on_c, 1, 64, 110
2, 78912, Note_on_c, 1, 69, 110
2, 79006, Note_on_c, 1, 61, 0
2, 79006, Note_on_c, 1, 64, 0
2, 79006, Note_on_c, 1, 69, 0
2, 79008, Note_on_c, 1, 61, 110
2, 79008, Note_on_c, 1, 64, 110
2, 79008, Note_on_c, 1, 69, 110
2, 79102, Note_on_c, 1, 61, 0
2, 79102, Note_on_c, 1, 64, 0
2, 79102, Note_on_c, 1, 69, 0
2, 79296, Note_on_c, 1, 61, 110
2, 79296, Note_on_c, 1, 64, 110
2, 79296, Note_on_c, 1, 66, 110
2, 79296, Note_on_c, 1, 69, 110
2, 79296, Note_on_c, 1, 71, 110
2, 79390, Note_on_c, 1, 61, 0
2, 79390, Note_on_c, 1, 64, 0
2, 79390, Note_on_c, 1, 66, 0
2, 79390, Note_on_c, 1, 69, 0
2, 79390, Note_on_c, 1, 71, 0
2, 79392, Note_on_c, 1, 61, 110
2, 79392, Note_on_c, 1, 64, 110
2, 79392, Note_on_c, 1, 68, 110
2, 79392, Note_on_c, 1, 69, 110
2, 79392, Note_on_c, 1, 73, 110
2, 79486, Note_on_c, 1, 61, 0
2, 79486, Note_on_c, 1, 64, 0
2, 79486, Note_on_c, 1, 68, 0
2, 79486, Note_on_c, 1, 69, 0
2, 79486, Note_on_c, 1, 73, 0
2, 79584, Note_on_c, 1, 61, 110
2, 79584, Note_on_c, 1, 64, 110
2, 79584, Note_on_c, 1, 69, 110
2, 79744, Note_on_c, 1, 61, 0
2, 79744, Note_on_c, 1, 64, 0
2, 79744, Note_on_c, 1, 69, 0
2, 79776, Note_on_c, 1, 61, 110
2, 79776, Note_on_c, 1, 64, 110
2, 79776, Note_on_c, 1, 69, 110
2, 79870, Note_on_c, 1, 61, 0
2, 79870, Note_on_c, 1, 64, 0
2, 79870, Note_on_c, 1, 69, 0
2, 79872, Note_on_c, 1, 61, 110
2, 79872, Note_on_c, 1, 64, 110
2, 79872, Note_on_c, 1, 69, 110
2, 79966, Note_on_c, 1, 61, 0
2, 79966, Note_on_c, 1, 64, 0
2, 79966, Note_on_c, 1, 69, 0
2, 80064, Note_on_c, 1, 61, 110
2, 80064, Note_on_c, 1, 64, 110
2, 80064, Note_on_c, 1, 68, 110
2, 80158, Note_on_c, 1, 61, 0
2, 80158, Note_on_c, 1, 64, 0
2, 80158, Note_on_c, 1, 68, 0
2, 80160, Note_on_c, 1, 61, 110
2, 80160, Note_on_c, 1, 64, 110
2, 80160, Note_on_c, 1, 68, 110
2, 80254, Note_on_c, 1, 61, 0
2, 80254, Note_on_c, 1, 64, 0
2, 80254, Note_on_c, 1, 68, 0
2, 80352, Note_on_c, 1, 61, 110
2, 80352, Note_on_c, 1, 64, 110
2, 80352, Note_on_c, 1, 68, 110
2, 80446, Note_on_c, 1, 61, 0
2, 80446, Note_on_c, 1, 64, 0
2, 80446, Note_on_c, 1, 68, 0
2, 80448, Note_on_c, 1, 61, 110
2, 80448, Note_on_c, 1, 64, 110
2, 80448, Note_on_c, 1, 68, 110
2, 80542, Note_on_c, 1, 61, 0
2, 80542, Note_on_c, 1, 64, 0
2, 80542, Note_on_c, 1, 68, 0
2, 80544, Note_on_c, 1, 61, 110
2, 80544, Note_on_c, 1, 64, 110
2, 80544, Note_on_c, 1, 68, 110
2, 80638, Note_on_c, 1, 61, 0
2, 80638, Note_on_c, 1, 64, 0
2, 80638, Note_on_c, 1, 68, 0
2, 80736, Note_on_c, 1, 61, 110
2, 80736, Note_on_c, 1, 64, 110
2, 80736, Note_on_c, 1, 68, 110
2, 80830, Note_on_c, 1, 61, 0
2, 80830, Note_on_c, 1, 64, 0
2, 80830, Note_on_c, 1, 68, 0
2, 80832, Note_on_c, 1, 61, 110
2, 80832, Note_on_c, 1, 64, 110
2, 80832, Note_on_c, 1, 68, 110
2, 80926, Note_on_c, 1, 61, 0
2, 80926, Note_on_c, 1, 64, 0
2, 80926, Note_on_c, 1, 68, 0
2, 80928, Note_on_c, 1, 61, 110
2, 80928, Note_on_c, 1, 64, 110
2, 80928, Note_on_c, 1, 68, 110
2, 81022, Note_on_c, 1, 61, 0
2, 81022, Note_on_c, 1, 64, 0
2, 81022, Note_on_c, 1, 68, 0
2, 81120, Note_on_c, 1, 61, 110
2, 81120, Note_on_c, 1, 64, 110
2, 81120, Note_on_c, 1, 68, 110
2, 81214, Note_on_c, 1, 61, 0
2, 81214, Note_on_c, 1, 64, 0
2, 81214, Note_on_c, 1, 68, 0
2, 81216, Note_on_c, 1, 61, 110
2, 81216, Note_on_c, 1, 64, 110
2, 81216, Note_on_c, 1, 68, 110
2, 81310, Note_on_c, 1, 61, 0
2, 81310, Note_on_c, 1, 64, 0
2, 81310, Note_on_c, 1, 68, 0
2, 81312, Note_on_c, 1, 61, 110
2, 81312, Note_on_c, 1, 64, 110
2, 81312, Note_on_c, 1, 68, 110
2, 81406, Note_on_c, 1, 61, 0
2, 81406, Note_on_c, 1, 64, 0
2, 81406, Note_on_c, 1, 68, 0
2, 81600, Note_on_c, 1, 59, 110
2, 81600, Note_on_c, 1, 63, 110
2, 81600, Note_on_c, 1, 66, 110
2, 81694, Note_on_c, 1, 59, 0
2, 81694, Note_on_c, 1, 63, 0
2, 81694, Note_on_c, 1, 66, 0
2, 81696, Note_on_c, 1, 59, 110
2, 81696, Note_on_c, 1, 63, 110
2, 81696, Note_on_c, 1, 66, 110
2, 81790, Note_on_c, 1, 59, 0
2, 81790, Note_on_c, 1, 63, 0
2, 81790, Note_on_c, 1, 66, 0
2, 81888, Note_on_c, 1, 59, 110
2, 81888, Note_on_c, 1, 63, 110
2, 81888, Note_on_c, 1, 66, 110
2, 81982, Note_on_c, 1, 59, 0
2, 81982, Note_on_c, 1, 63, 0
2, 81982, Note_on_c, 1, 66, 0
2, 81984, Note_on_c, 1, 59, 110
2, 81984, Note_on_c, 1, 63, 110
2, 81984, Note_on_c, 1, 66, 110
2, 82078, Note_on_c, 1, 59, 0
2, 82078, Note_on_c, 1, 63, 0
2, 82078, Note_on_c, 1, 66, 0
2, 82080, Note_on_c, 1, 59, 110
2, 82080, Note_on_c, 1, 63, 110
2, 82080, Note_on_c, 1, 66, 110
2, 82174, Note_on_c, 1, 59, 0
2, 82174, Note_on_c, 1, 63, 0
2, 82174, Note_on_c, 1, 66, 0
2, 82368, Note_on_c, 1, 57, 110
2, 82368, Note_on_c, 1, 61, 110
2, 82368, Note_on_c, 1, 64, 110
2, 82462, Note_on_c, 1, 57, 0
2, 82462, Note_on_c, 1, 61, 0
2, 82462, Note_on_c, 1, 64, 0
2, 82464, Note_on_c, 1, 57, 110
2, 82464, Note_on_c, 1, 61, 110
2, 82464, Note_on_c, 1, 64, 110
2, 82558, Note_on_c, 1, 57, 0
2, 82558, Note_on_c, 1, 61, 0
2, 82558, Note_on_c, 1, 64, 0
2, 82656, Note_on_c, 1, 57, 110
2, 82656, Note_on_c, 1, 61, 110
2, 82656, Note_on_c, 1, 64, 110
2, 82750, Note_on_c, 1, 57, 0
2, 82750, Note_on_c, 1, 61, 0
2, 82750, Note_on_c, 1, 64, 0
2, 82752, Note_on_c, 1, 57, 110
2, 82752, Note_on_c, 1, 61, 110
2, 82752, Note_on_c, 1, 64, 110
2, 82846, Note_on_c, 1, 57, 0
2, 82846, Note_on_c, 1, 61, 0
2, 82846, Note_on_c, 1, 64, 0
2, 82848, Note_on_c, 1, 57, 110
2, 82848, Note_on_c, 1, 61, 110
2, 82848, Note_on_c, 1, 64, 110
2, 82942, Note_on_c, 1, 57, 0
2, 82942, Note_on_c, 1, 61, 0
2, 82942, Note_on_c, 1, 64, 0
2, 83136, Note_on_c, 1, 61, 110
2, 83136, Note_on_c, 1, 64, 110
2, 83136, Note_on_c, 1, 68, 110
2, 83230, Note_on_c, 1, 61, 0
2, 83230, Note_on_c, 1, 64, 0
2, 83230, Note_on_c, 1, 68, 0
2, 83232, Note_on_c, 1, 61, 110
2, 83232, Note_on_c, 1, 64, 110
2, 83232, Note_on_c, 1, 68, 110
2, 83326, Note_on_c, 1, 61, 0
2, 83326, Note_on_c, 1, 64, 0
2, 83326, Note_on_c, 1, 68, 0
2, 83424, Note_on_c, 1, 61, 110
2, 83424, Note_on_c, 1, 64, 110
2, 83424, Note_on_c, 1, 68, 110
2, 83518, Note_on_c, 1, 61, 0
2, 83518, Note_on_c, 1, 64, 0
2, 83518, Note_on_c, 1, 68, 0
2, 83520, Note_on_c, 1, 61, 110
2, 83520, Note_on_c, 1, 64, 110
2, 83520, Note_on_c, 1, 68, 110
2, 83614, Note_on_c, 1, 61, 0
2, 83614, Note_on_c, 1, 64, 0
2, 83614, Note_on_c, 1, 68, 0
2, 83616, Note_on_c, 1, 61, 110
2, 83616, Note_on_c, 1, 64, 110
2, 83616, Note_on_c, 1, 68, 110
2, 83710, Note_on_c, 1, 61, 0
2, 83710, Note_on_c, 1, 64, 0
2, 83710, Note_on_c, 1, 68, 0
2, 83904, Note_on_c, 1, 59, 110
2, 83904, Note_on_c, 1, 64, 110
2, 83904, Note_on_c, 1, 68, 110
2, 83998, Note_on_c, 1, 59, 0
2, 83998, Note_on_c, 1, 64, 0
2, 83998, Note_on_c, 1, 68, 0
2, 84000, Note_on_c, 1, 59, 110
2, 84000, Note_on_c, 1, 64, 110
2, 84000, Note_on_c, 1, 68, 110
2, 84094, Note_on_c, 1, 59, 0
2, 84094, Note_on_c, 1, 64, 0
2, 84094, Note_on_c, 1, 68, 0
2, 84192, Note_on_c, 1, 59, 110
2, 84192, Note_on_c, 1, 64, 110
2, 84192, Note_on_c, 1, 68, 110
2, 84286, Note_on_c, 1, 59, 0
2, 84286, Note_on_c, 1, 64, 0
2, 84286, Note_on_c, 1, 68, 0
2, 84288, Note_on_c, 1, 59, 110
2, 84288, Note_on_c, 1, 64, 110
2, 84288, Note_on_c, 1, 68, 110
2, 84382, Note_on_c, 1, 59, 0
2, 84382, Note_on_c, 1, 64, 0
2, 84382, Note_on_c, 1, 68, 0
2, 84384, Note_on_c, 1, 59, 110
2, 84384, Note_on_c, 1, 64, 110
2, 84384, Note_on_c, 1, 68, 110
2, 84478, Note_on_c, 1, 59, 0
2, 84478, Note_on_c, 1, 64, 0
2, 84478, Note_on_c, 1, 68, 0
2, 84672, Note_on_c, 1, 57, 110
2, 84672, Note_on_c, 1, 61, 110
2, 84672, Note_on_c, 1, 64, 110
2, 84766, Note_on_c, 1, 57, 0
2, 84766, Note_on_c, 1, 61, 0
2, 84766, Note_on_c, 1, 64, 0
2, 84768, Note_on_c, 1, 57, 110
2, 84768, Note_on_c, 1, 61, 110
2, 84768, Note_on_c, 1, 64, 110
2, 84862, Note_on_c, 1, 57, 0
2, 84862, Note_on_c, 1, 61, 0
2, 84862, Note_on_c, 1, 64, 0
2, 84960, Note_on_c, 1, 57, 110
2, 84960, Note_on_c, 1, 61, 110
2, 84960, Note_on_c, 1, 64, 110
2, 85054, Note_on_c, 1, 57, 0
2, 85054, Note_on_c, 1, 61, 0
2, 85054, Note_on_c, 1, 64, 0
2, 85056, Note_on_c, 1, 57, 110
2, 85056, Note_on_c, 1, 61, 110
2, 85056, Note_on_c, 1, 64, 110
2, 85150, Note_on_c, 1, 57, 0
2, 85150, Note_on_c, 1, 61, 0
2, 85150, Note_on_c, 1, 64, 0
2, 85152, Note_on_c, 1, 57, 110
2, 85152, Note_on_c, 1, 61, 110
2, 85152, Note_on_c, 1, 64, 110
2, 85246, Note_on_c, 1, 57, 0
2, 85246, Note_on_c, 1, 61, 0
2, 85246, Note_on_c, 1, 64, 0
2, 85440, Note_on_c, 1, 59, 110
2, 85440, Note_on_c, 1, 63, 110
2, 85440, Note_on_c, 1, 66, 110
2, 85534, Note_on_c, 1, 59, 0
2, 85534, Note_on_c, 1, 63, 0
2, 85534, Note_on_c, 1, 66, 0
2, 85536, Note_on_c, 1, 59, 110
2, 85536, Note_on_c, 1, 63, 110
2, 85536, Note_on_c, 1, 66, 110
2, 85630, Note_on_c, 1, 59, 0
2, 85630, Note_on_c, 1, 63, 0
2, 85630, Note_on_c, 1, 66, 0
2, 85728, Note_on_c, 1, 59, 110
2, 85728, Note_on_c, 1, 63, 110
2, 85728, Note_on_c, 1, 66, 110
2, 85822, Note_on_c, 1, 59, 0
2, 85822, Note_on_c, 1, 63, 0
2, 85822, Note_on_c, 1, 66, 0
2, 85824, Note_on_c, 1, 59, 110
2, 85824, Note_on_c, 1, 63, 110
2, 85824, Note_on_c, 1, 66, 110
2, 85918, Note_on_c, 1, 59, 0
2, 85918, Note_on_c, 1, 63, 0
2, 85918, Note_on_c, 1, 66, 0
2, 85920, Note_on_c, 1, 59, 110
2, 85920, Note_on_c, 1, 63, 110
2, 85920, Note_on_c, 1, 66, 110
2, 86014, Note_on_c, 1, 59, 0
2, 86014, Note_on_c, 1, 63, 0
2, 86014, Note_on_c, 1, 66, 0
2, 86208, Note_on_c, 1, 61, 110
2, 86208, Note_on_c, 1, 64, 110
2, 86208, Note_on_c, 1, 68, 110
2, 86302, Note_on_c, 1, 61, 0
2, 86302, Note_on_c, 1, 64, 0
2, 86302, Note_on_c, 1, 68, 0
2, 86304, Note_on_c, 1, 61, 110
2, 86304, Note_on_c, 1, 64, 110
2, 86304, Note_on_c, 1, 68, 110
2, 86398, Note_on_c, 1, 61, 0
2, 86398, Note_on_c, 1, 64, 0
2, 86398, Note_on_c, 1, 68, 0
2, 86496, Note_on_c, 1, 61, 110
2, 86496, Note_on_c, 1, 64, 110
2, 86496, Note_on_c, 1, 68, 110
2, 86590, Note_on_c, 1, 61, 0
2, 86590, Note_on_c, 1, 64, 0
2, 86590, Note_on_c, 1, 68, 0
2, 86592, Note_on_c, 1, 61, 110
2, 86592, Note_on_c, 1, 64, 110
2, 86592, Note_on_c, 1, 68, 110
2, 86686, Note_on_c, 1, 61, 0
2, 86686, Note_on_c, 1, 64, 0
2, 86686, Note_on_c, 1, 68, 0
2, 86688, Note_on_c, 1, 61, 110
2, 86688, Note_on_c, 1, 64, 110
2, 86688, Note_on_c, 1, 68, 110
2, 86782, Note_on_c, 1, 61, 0
2, 86782, Note_on_c, 1, 64, 0
2, 86782, Note_on_c, 1, 68, 0
2, 86880, Note_on_c, 1, 61, 110
2, 86880, Note_on_c, 1, 64, 110
2, 86880, Note_on_c, 1, 68, 110
2, 86974, Note_on_c, 1, 61, 0
2, 86974, Note_on_c, 1, 64, 0
2, 86974, Note_on_c, 1, 68, 0
2, 86976, Note_on_c, 1, 61, 110
2, 86976, Note_on_c, 1, 64, 110
2, 86976, Note_on_c, 1, 68, 110
2, 87070, Note_on_c, 1, 61, 0
2, 87070, Note_on_c, 1, 64, 0
2, 87070, Note_on_c, 1, 68, 0
2, 87072, Note_on_c, 1, 61, 110
2, 87072, Note_on_c, 1, 64, 110
2, 87072, Note_on_c, 1, 68, 110
2, 87166, Note_on_c, 1, 61, 0
2, 87166, Note_on_c, 1, 64, 0
2, 87166, Note_on_c, 1, 68, 0
2, 87264, Note_on_c, 1, 61, 110
2, 87264, Note_on_c, 1, 64, 110
2, 87264, Note_on_c, 1, 68, 110
2, 87358, Note_on_c, 1, 61, 0
2, 87358, Note_on_c, 1, 64, 0
2, 87358, Note_on_c, 1, 68, 0
2, 87360, Note_on_c, 1, 61, 110
2, 87360, Note_on_c, 1, 64, 110
2, 87360, Note_on_c, 1, 68, 110
2, 87454, Note_on_c, 1, 61, 0
2, 87454, Note_on_c, 1, 64, 0
2, 87454, Note_on_c, 1, 68, 0
2, 87456, Note_on_c, 1, 61, 110
2, 87456, Note_on_c, 1, 64, 110
2, 87456, Note_on_c, 1, 68, 110
2, 87550, Note_on_c, 1, 61, 0
2, 87550, Note_on_c, 1, 64, 0
2, 87550, Note_on_c, 1, 68, 0
2, 87744, Note_on_c, 1, 59, 110
2, 87744, Note_on_c, 1, 63, 110
2, 87744, Note_on_c, 1, 66, 110
2, 87838, Note_on_c, 1, 59, 0
2, 87838, Note_on_c, 1, 63, 0
2, 87838, Note_on_c, 1, 66, 0
2, 87840, Note_on_c, 1, 59, 110
2, 87840, Note_on_c, 1, 63, 110
2, 87840, Note_on_c, 1, 66, 110
2, 87934, Note_on_c, 1, 59, 0
2, 87934, Note_on_c, 1, 63, 0
2, 87934, Note_on_c, 1, 66, 0
2, 88032, Note_on_c, 1, 59, 110
2, 88032, Note_on_c, 1, 63, 110
2, 88032, Note_on_c, 1, 66, 110
2, 88126, Note_on_c, 1, 59, 0
2, 88126, Note_on_c, 1, 63, 0
2, 88126, Note_on_c, 1, 66, 0
2, 88128, Note_on_c, 1, 59, 110
2, 88128, Note_on_c, 1, 63, 110
2, 88128, Note_on_c, 1, 66, 110
2, 88222, Note_on_c, 1, 59, 0
2, 88222, Note_on_c, 1, 63, 0
2, 88222, Note_on_c, 1, 66, 0
2, 88224, Note_on_c, 1, 59, 110
2, 88224, Note_on_c, 1, 63, 110
2, 88224, Note_on_c, 1, 66, 110
2, 88318, Note_on_c, 1, 59, 0
2, 88318, Note_on_c, 1, 63, 0
2, 88318, Note_on_c, 1, 66, 0
2, 88512, Note_on_c, 1, 57, 110
2, 88512, Note_on_c, 1, 61, 110
2, 88512, Note_on_c, 1, 64, 110
2, 88606, Note_on_c, 1, 57, 0
2, 88606, Note_on_c, 1, 61, 0
2, 88606, Note_on_c, 1, 64, 0
2, 88608, Note_on_c, 1, 57, 110
2, 88608, Note_on_c, 1, 61, 110
2, 88608, Note_on_c, 1, 64, 110
2, 88702, Note_on_c, 1, 57, 0
2, 88702, Note_on_c, 1, 61, 0
2, 88702, Note_on_c, 1, 64, 0
2, 88800, Note_on_c, 1, 57, 110
2, 88800, Note_on_c, 1, 61, 110
2, 88800, Note_on_c, 1, 64, 110
2, 88894, Note_on_c, 1, 57, 0
2, 88894, Note_on_c, 1, 61, 0
2, 88894, Note_on_c, 1, 64, 0
2, 88896, Note_on_c, 1, 57, 110
2, 88896, Note_on_c, 1, 61, 110
2, 88896, Note_on_c, 1, 64, 110
2, 88990, Note_on_c, 1, 57, 0
2, 88990, Note_on_c, 1, 61, 0
2, 88990, Note_on_c, 1, 64, 0
2, 88992, Note_on_c, 1, 57, 110
2, 88992, Note_on_c, 1, 61, 110
2, 88992, Note_on_c, 1, 64, 110
2, 89086, Note_on_c, 1, 57, 0
2, 89086, Note_on_c, 1, 61, 0
2, 89086, Note_on_c, 1, 64, 0
2, 89280, Note_on_c, 1, 61, 110
2, 89280, Note_on_c, 1, 64, 110
2, 89280, Note_on_c, 1, 68, 110
2, 89374, Note_on_c, 1, 61, 0
2, 89374, Note_on_c, 1, 64, 0
2, 89374, Note_on_c, 1, 68, 0
2, 89376, Note_on_c, 1, 61, 110
2, 89376, Note_on_c, 1, 64, 110
2, 89376, Note_on_c, 1, 68, 110
2, 89470, Note_on_c, 1, 61, 0
2, 89470, Note_on_c, 1, 64, 0
2, 89470, Note_on_c, 1, 68, 0
2, 89568, Note_on_c, 1, 61, 110
2, 89568, Note_on_c, 1, 64, 110
2, 89568, Note_on_c, 1, 68, 110
2, 89662, Note_on_c, 1, 61, 0
2, 89662, Note_on_c, 1, 64, 0
2, 89662, Note_on_c, 1, 68, 0
2, 89664, Note_on_c, 1, 61, 110
2, 89664, Note_on_c, 1, 64, 110
2, 89664, Note_on_c, 1, 68, 110
2, 89758, Note_on_c, 1, 61, 0
2, 89758, Note_on_c, 1, 64, 0
2, 89758, Note_on_c, 1, 68, 0
2, 89760, Note_on_c, 1, 61, 110
2, 89760, Note_on_c, 1, 64, 110
2, 89760, Note_on_c, 1, 68, 110
2, 89854, Note_on_c, 1, 61, 0
2, 89854, Note_on_c, 1, 64, 0
2, 89854, Note_on_c, 1, 68, 0
2, 90048, Note_on_c, 1, 59, 110
2, 90048, Note_on_c, 1, 64, 110
2, 90048, Note_on_c, 1, 68, 110
2, 90142, Note_on_c, 1, 59, 0
2, 90142, Note_on_c, 1, 64, 0
2, 90142, Note_on_c, 1, 68, 0
2, 90144, Note_on_c, 1, 59, 110
2, 90144, Note_on_c, 1, 64, 110
2, 90144, Note_on_c, 1, 68, 110
2, 90238, Note_on_c, 1, 59, 0
2, 90238, Note_on_c, 1, 64, 0
2, 90238, Note_on_c, 1, 68, 0
2, 90336, Note_on_c, 1, 59, 110
2, 90336, Note_on_c, 1, 64, 110
2, 90336, Note_on_c, 1, 68, 110
2, 90430, Note_on_c, 1, 59, 0
2, 90430, Note_on_c, 1, 64, 0
2, 90430, Note_on_c, 1, 68, 0
2, 90432, Note_on_c, 1, 59, 110
2, 90432, Note_on_c, 1, 64, 110
2, 90432, Note_on_c, 1, 68, 110
2, 90526, Note_on_c, 1, 59, 0
2, 90526, Note_on_c, 1, 64, 0
2, 90526, Note_on_c, 1, 68, 0
2, 90528, Note_on_c, 1, 59, 110
2, 90528, Note_on_c, 1, 64, 110
2, 90528, Note_on_c, 1, 68, 110
2, 90622, Note_on_c, 1, 59, 0
2, 90622, Note_on_c, 1, 64, 0
2, 90622, Note_on_c, 1, 68, 0
2, 90816, Note_on_c, 1, 57, 110
2, 90816, Note_on_c, 1, 61, 110
2, 90816, Note_on_c, 1, 64, 110
2, 90910, Note_on_c, 1, 57, 0
2, 90910, Note_on_c, 1, 61, 0
2, 90910, Note_on_c, 1, 64, 0
2, 90912, Note_on_c, 1, 57, 110
2, 90912, Note_on_c, 1, 61, 110
2, 90912, Note_on_c, 1, 64, 110
2, 91006, Note_on_c, 1, 57, 0
2, 91006, Note_on_c, 1, 61, 0
2, 91006, Note_on_c, 1, 64, 0
2, 91104, Note_on_c, 1, 57, 110
2, 91104, Note_on_c, 1, 61, 110
2, 91104, Note_on_c, 1, 64, 110
2, 91198, Note_on_c, 1, 57, 0
2, 91198, Note_on_c, 1, 61, 0
2, 91198, Note_on_c, 1, 64, 0
2, 91200, Note_on_c, 1, 57, 110
2, 91200, Note_on_c, 1, 61, 110
2, 91200, Note_on_c, 1, 64, 110
2, 91294, Note_on_c, 1, 57, 0
2, 91294, Note_on_c, 1, 61, 0
2, 91294, Note_on_c, 1, 64, 0
2, 91296, Note_on_c, 1, 57, 110
2, 91296, Note_on_c, 1, 61, 110
2, 91296, Note_on_c, 1, 64, 110
2, 91390, Note_on_c, 1, 57, 0
2, 91390, Note_on_c, 1, 61, 0
2, 91390, Note_on_c, 1, 64, 0
2, 91584, Note_on_c, 1, 62, 110
2, 91584, Note_on_c, 1, 66, 110
2, 91584, Note_on_c, 1, 69, 110
2, 91678, Note_on_c, 1, 62, 0
2, 91678, Note_on_c, 1, 66, 0
2, 91678, Note_on_c, 1, 69, 0
2, 91680, Note_on_c, 1, 62, 110
2, 91680, Note_on_c, 1, 66, 110
2, 91680, Note_on_c, 1, 69, 110
2, 91774, Note_on_c, 1, 62, 0
2, 91774, Note_on_c, 1, 66, 0
2, 91774, Note_on_c, 1, 69, 0
2, 91872, Note_on_c, 1, 62, 110
2, 91872, Note_on_c, 1, 66, 110
2, 91872, Note_on_c, 1, 69, 110
2, 91966, Note_on_c, 1, 62, 0
2, 91966, Note_on_c, 1, 66, 0
2, 91966, Note_on_c, 1, 69, 0
2, 91968, Note_on_c, 1, 62, 110
2, 91968, Note_on_c, 1, 66, 110
2, 91968, Note_on_c, 1, 69, 110
2, 92062, Note_on_c, 1, 62, 0
2, 92062, Note_on_c, 1, 66, 0
2, 92062, Note_on_c, 1, 69, 0
2, 92064, Note_on_c, 1, 62, 110
2, 92064, Note_on_c, 1, 66, 110
2, 92064, Note_on_c, 1, 69, 110
2, 92158, Note_on_c, 1, 62, 0
2, 92158, Note_on_c, 1, 66, 0
2, 92158, Note_on_c, 1, 69, 0
2, 92352, Note_on_c, 1, 62, 110
2, 92352, Note_on_c, 1, 66, 110
2, 92352, Note_on_c, 1, 69, 110
2, 92446, Note_on_c, 1, 62, 0
2, 92446, Note_on_c, 1, 66, 0
2, 92446, Note_on_c, 1, 69, 0
2, 92448, Note_on_c, 1, 62, 110
2, 92448, Note_on_c, 1, 66, 110
2, 92448, Note_on_c, 1, 69, 110
2, 92542, Note_on_c, 1, 62, 0
2, 92542, Note_on_c, 1, 66, 0
2, 92542, Note_on_c, 1, 69, 0
2, 92640, Note_on_c, 1, 62, 110
2, 92640, Note_on_c, 1, 66, 110
2, 92640, Note_on_c, 1, 69, 110
2, 92734, Note_on_c, 1, 62, 0
2, 92734, Note_on_c, 1, 66, 0
2, 92734, Note_on_c, 1, 69, 0
2, 92736, Note_on_c, 1, 62, 110
2, 92736, Note_on_c, 1, 66, 110
2, 92736, Note_on_c, 1, 69, 110
2, 92830, Note_on_c, 1, 62, 0
2, 92830, Note_on_c, 1, 66, 0
2, 92830, Note_on_c, 1, 69, 0
2, 92832, Note_on_c, 1, 62, 110
2, 92832, Note_on_c, 1, 66, 110
2, 92832, Note_on_c, 1, 69, 110
2, 92926, Note_on_c, 1, 62, 0
2, 92926, Note_on_c, 1, 66, 0
2, 92926, Note_on_c, 1, 69, 0
2, 92928, Note_on_c, 1, 62, 110
2, 92928, Note_on_c, 1, 66, 110
2, 92928, Note_on_c, 1, 69, 110
2, 93022, Note_on_c, 1, 62, 0
2, 93022, Note_on_c, 1, 66, 0
2, 93022, Note_on_c, 1, 69, 0
2, 93120, Note_on_c, 1, 57, 110
2, 93120, Note_on_c, 1, 61, 110
2, 93120, Note_on_c, 1, 64, 110
2, 93214, Note_on_c, 1, 57, 0
2, 93214, Note_on_c, 1, 61, 0
2, 93214, Note_on_c, 1, 64, 0
2, 93216, Note_on_c, 1, 57, 110
2, 93216, Note_on_c, 1, 61, 110
2, 93216, Note_on_c, 1, 64, 110
2, 93310, Note_on_c, 1, 57, 0
2, 93310, Note_on_c, 1, 61, 0
2, 93310, Note_on_c, 1, 64, 0
2, 93408, Note_on_c, 1, 57, 110
2, 93408, Note_on_c, 1, 61, 110
2, 93408, Note_on_c, 1, 64, 110
2, 93502, Note_on_c, 1, 57, 0
2, 93502, Note_on_c, 1, 61, 0
2, 93502, Note_on_c, 1, 64, 0
2, 93504, Note_on_c, 1, 57, 110
2, 93504, Note_on_c, 1, 61, 110
2, 93504, Note_on_c, 1, 64, 110
2, 93598, Note_on_c, 1, 57, 0
2, 93598, Note_on_c, 1, 61, 0
2, 93598, Note_on_c, 1, 64, 0
2, 93600, Note_on_c, 1, 57, 110
2, 93600, Note_on_c, 1, 61, 110
2, 93600, Note_on_c, 1, 64, 110
2, 93694, Note_on_c, 1, 57, 0
2, 93694, Note_on_c, 1, 61, 0
2, 93694, Note_on_c, 1, 64, 0
2, 93792, Note_on_c, 1, 57, 110
2, 93792, Note_on_c, 1, 61, 110
2, 93792, Note_on_c, 1, 64, 110
2, 93886, Note_on_c, 1, 57, 0
2, 93886, Note_on_c, 1, 61, 0
2, 93886, Note_on_c, 1, 64, 0
2, 93888, Note_on_c, 1, 57, 110
2, 93888, Note_on_c, 1, 61, 110
2, 93888, Note_on_c, 1, 64, 110
2, 93982, Note_on_c, 1, 57, 0
2, 93982, Note_on_c, 1, 61, 0
2, 93982, Note_on_c, 1, 64, 0
2, 93984, Note_on_c, 1, 57, 110
2, 93984, Note_on_c, 1, 61, 110
2, 93984, Note_on_c, 1, 64, 110
2, 94078, Note_on_c, 1, 57, 0
2, 94078, Note_on_c, 1, 61, 0
2, 94078, Note_on_c, 1, 64, 0
2, 94176, Note_on_c, 1, 57, 110
2, 94176, Note_on_c, 1, 61, 110
2, 94176, Note_on_c, 1, 64, 110
2, 94270, Note_on_c, 1, 57, 0
2, 94270, Note_on_c, 1, 61, 0
2, 94270, Note_on_c, 1, 64, 0
2, 94272, Note_on_c, 1, 57, 110
2, 94272, Note_on_c, 1, 61, 110
2, 94272, Note_on_c, 1, 64, 110
2, 94366, Note_on_c, 1, 57, 0
2, 94366, Note_on_c, 1, 61, 0
2, 94366, Note_on_c, 1, 64, 0
2, 94464, Note_on_c, 1, 58, 110
2, 94464, Note_on_c, 1, 62, 110
2, 94464, Note_on_c, 1, 65, 110
2, 94558, Note_on_c, 1, 58, 0
2, 94558, Note_on_c, 1, 62, 0
2, 94558, Note_on_c, 1, 65, 0
2, 94656, Note_on_c, 1, 59, 110
2, 94656, Note_on_c, 1, 63, 110
2, 94656, Note_on_c, 1, 66, 110
2, 94750, Note_on_c, 1, 59, 0
2, 94750, Note_on_c, 1, 63, 0
2, 94750, Note_on_c, 1, 66, 0
2, 94752, Note_on_c, 1, 59, 110
2, 94752, Note_on_c, 1, 63, 110
2, 94752, Note_on_c, 1, 66, 110
2, 94846, Note_on_c, 1, 59, 0
2, 94846, Note_on_c, 1, 63, 0
2, 94846, Note_on_c, 1, 66, 0
2, 94944, Note_on_c, 1, 59, 110
2, 94944, Note_on_c, 1, 63, 110
2, 94944, Note_on_c, 1, 66, 110
2, 95038, Note_on_c, 1, 59, 0
2, 95038, Note_on_c, 1, 63, 0
2, 95038, Note_on_c, 1, 66, 0
2, 95040, Note_on_c, 1, 59, 110
2, 95040, Note_on_c, 1, 63, 110
2, 95040, Note_on_c, 1, 66, 110
2, 95134, Note_on_c, 1, 59, 0
2, 95134, Note_on_c, 1, 63, 0
2, 95134, Note_on_c, 1, 66, 0
2, 95136, Note_on_c, 1, 59, 110
2, 95136, Note_on_c, 1, 63, 110
2, 95136, Note_on_c, 1, 66, 110
2, 95230, Note_on_c, 1, 59, 0
2, 95230, Note_on_c, 1, 63, 0
2, 95230, Note_on_c, 1, 66, 0
2, 95328, Note_on_c, 1, 59, 110
2, 95328, Note_on_c, 1, 63, 110
2, 95328, Note_on_c, 1, 66, 110
2, 95422, Note_on_c, 1, 59, 0
2, 95422, Note_on_c, 1, 63, 0
2, 95422, Note_on_c, 1, 66, 0
2, 95424, Note_on_c, 1, 59, 110
2, 95424, Note_on_c, 1, 63, 110
2, 95424, Note_on_c, 1, 66, 110
2, 95518, Note_on_c, 1, 59, 0
2, 95518, Note_on_c, 1, 63, 0
2, 95518, Note_on_c, 1, 66, 0
2, 95520, Note_on_c, 1, 59, 110
2, 95520, Note_on_c, 1, 63, 110
2, 95520, Note_on_c, 1, 66, 110
2, 95614, Note_on_c, 1, 59, 0
2, 95614, Note_on_c, 1, 63, 0
2, 95614, Note_on_c, 1, 66, 0
2, 95712, Note_on_c, 1, 59, 110
2, 95712, Note_on_c, 1, 63, 110
2, 95712, Note_on_c, 1, 66, 110
2, 95806, Note_on_c, 1, 59, 0
2, 95806, Note_on_c, 1, 63, 0
2, 95806, Note_on_c, 1, 66, 0
2, 95808, Note_on_c, 1, 59, 110
2, 95808, Note_on_c, 1, 63, 110
2, 95808, Note_on_c, 1, 66, 110
2, 95902, Note_on_c, 1, 59, 0
2, 95902, Note_on_c, 1, 63, 0
2, 95902, Note_on_c, 1, 66, 0
2, 95904, Note_on_c, 1, 59, 110
2, 95904, Note_on_c, 1, 63, 110
2, 95904, Note_on_c, 1, 66, 110
2, 95998, Note_on_c, 1, 59, 0
2, 95998, Note_on_c, 1, 63, 0
2, 95998, Note_on_c, 1, 66, 0
2, 96000, Note_on_c, 1, 59, 110
2, 96000, Note_on_c, 1, 63, 110
2, 96000, Note_on_c, 1, 66, 110
2, 96094, Note_on_c, 1, 59, 0
2, 96094, Note_on_c, 1, 63, 0
2, 96094, Note_on_c, 1, 66, 0
2, 96192, Note_on_c, 1, 62, 110
2, 96192, Note_on_c, 1, 66, 110
2, 96192, Note_on_c, 1, 69, 110
2, 96286, Note_on_c, 1, 62, 0
2, 96286, Note_on_c, 1, 66, 0
2, 96286, Note_on_c, 1, 69, 0
2, 96288, Note_on_c, 1, 62, 110
2, 96288, Note_on_c, 1, 66, 110
2, 96288, Note_on_c, 1, 69, 110
2, 96382, Note_on_c, 1, 62, 0
2, 96382, Note_on_c, 1, 66, 0
2, 96382, Note_on_c, 1, 69, 0
2, 96480, Note_on_c, 1, 62, 110
2, 96480, Note_on_c, 1, 66, 110
2, 96480, Note_on_c, 1, 69, 110
2, 96574, Note_on_c, 1, 62, 0
2, 96574, Note_on_c, 1, 66, 0
2, 96574, Note_on_c, 1, 69, 0
2, 96576, Note_on_c, 1, 62, 110
2, 96576, Note_on_c, 1, 66, 110
2, 96576, Note_on_c, 1, 69, 110
2, 96670, Note_on_c, 1, 62, 0
2, 96670, Note_on_c, 1, 66, 0
2, 96670, Note_on_c, 1, 69, 0
2, 96672, Note_on_c, 1, 62, 110
2, 96672, Note_on_c, 1, 66, 110
2, 96672, Note_on_c, 1, 69, 110
2, 96766, Note_on_c, 1, 62, 0
2, 96766, Note_on_c, 1, 66, 0
2, 96766, Note_on_c, 1, 69, 0
2, 96864, Note_on_c, 1, 62, 110
2, 96864, Note_on_c, 1, 66, 110
2, 96864, Note_on_c, 1, 69, 110
2, 96958, Note_on_c, 1, 62, 0
2, 96958, Note_on_c, 1, 66, 0
2, 96958, Note_on_c, 1, 69, 0
2, 96960, Note_on_c, 1, 62, 110
2, 96960, Note_on_c, 1, 66, 110
2, 96960, Note_on_c, 1, 69, 110
2, 97054, Note_on_c, 1, 62, 0
2, 97054, Note_on_c, 1, 66, 0
2, 97054, Note_on_c, 1, 69, 0
2, 97056, Note_on_c, 1, 62, 110
2, 97056, Note_on_c, 1, 66, 110
2, 97056, Note_on_c, 1, 69, 110
2, 97150, Note_on_c, 1, 62, 0
2, 97150, Note_on_c, 1, 66, 0
2, 97150, Note_on_c, 1, 69, 0
2, 97248, Note_on_c, 1, 62, 110
2, 97248, Note_on_c, 1, 66, 110
2, 97248, Note_on_c, 1, 69, 110
2, 97342, Note_on_c, 1, 62, 0
2, 97342, Note_on_c, 1, 66, 0
2, 97342, Note_on_c, 1, 69, 0
2, 97344, Note_on_c, 1, 62, 110
2, 97344, Note_on_c, 1, 66, 110
2, 97344, Note_on_c, 1, 69, 110
2, 97438, Note_on_c, 1, 62, 0
2, 97438, Note_on_c, 1, 66, 0
2, 97438, Note_on_c, 1, 69, 0
2, 97440, Note_on_c, 1, 62, 110
2, 97440, Note_on_c, 1, 66, 110
2, 97440, Note_on_c, 1, 69, 110
2, 97534, Note_on_c, 1, 62, 0
2, 97534, Note_on_c, 1, 66, 0
2, 97534, Note_on_c, 1, 69, 0
2, 97536, Note_on_c, 1, 62, 110
2, 97536, Note_on_c, 1, 66, 110
2, 97536, Note_on_c, 1, 69, 110
2, 97630, Note_on_c, 1, 62, 0
2, 97630, Note_on_c, 1, 66, 0
2, 97630, Note_on_c, 1, 69, 0
2, 97728, Note_on_c, 1, 57, 110
2, 97728, Note_on_c, 1, 61, 110
2, 97728, Note_on_c, 1, 64, 110
2, 97822, Note_on_c, 1, 57, 0
2, 97822, Note_on_c, 1, 61, 0
2, 97822, Note_on_c, 1, 64, 0
2, 97824, Note_on_c, 1, 57, 110
2, 97824, Note_on_c, 1, 61, 110
2, 97824, Note_on_c, 1, 64, 110
2, 97918, Note_on_c, 1, 57, 0
2, 97918, Note_on_c, 1, 61, 0
2, 97918, Note_on_c, 1, 64, 0
2, 98016, Note_on_c, 1, 57, 110
2, 98016, Note_on_c, 1, 61, 110
2, 98016, Note_on_c, 1, 64, 110
2, 98110, Note_on_c, 1, 57, 0
2, 98110, Note_on_c, 1, 61, 0
2, 98110, Note_on_c, 1, 64, 0
2, 98112, Note_on_c, 1, 57, 110
2, 98112, Note_on_c, 1, 61, 110
2, 98112, Note_on_c, 1, 64, 110
2, 98206, Note_on_c, 1, 57, 0
2, 98206, Note_on_c, 1, 61, 0
2, 98206, Note_on_c, 1, 64, 0
2, 98208, Note_on_c, 1, 57, 110
2, 98208, Note_on_c, 1, 61, 110
2, 98208, Note_on_c, 1, 64, 110
2, 98302, Note_on_c, 1, 57, 0
2, 98302, Note_on_c, 1, 61, 0
2, 98302, Note_on_c, 1, 64, 0
2, 98400, Note_on_c, 1, 57, 110
2, 98400, Note_on_c, 1, 61, 110
2, 98400, Note_on_c, 1, 64, 110
2, 98494, Note_on_c, 1, 57, 0
2, 98494, Note_on_c, 1, 61, 0
2, 98494, Note_on_c, 1, 64, 0
2, 98496, Note_on_c, 1, 57, 110
2, 98496, Note_on_c, 1, 61, 110
2, 98496, Note_on_c, 1, 64, 110
2, 98590, Note_on_c, 1, 57, 0
2, 98590, Note_on_c, 1, 61, 0
2, 98590, Note_on_c, 1, 64, 0
2, 98592, Note_on_c, 1, 57, 110
2, 98592, Note_on_c, 1, 61, 110
2, 98592, Note_on_c, 1, 64, 110
2, 98686, Note_on_c, 1, 57, 0
2, 98686, Note_on_c, 1, 61, 0
2, 98686, Note_on_c, 1, 64, 0
2, 98784, Note_on_c, 1, 57, 110
2, 98784, Note_on_c, 1, 61, 110
2, 98784, Note_on_c, 1, 64, 110
2, 98878, Note_on_c, 1, 57, 0
2, 98878, Note_on_c, 1, 61, 0
2, 98878, Note_on_c, 1, 64, 0
2, 98880, Note_on_c, 1, 57, 110
2, 98880, Note_on_c, 1, 61, 110
2, 98880, Note_on_c, 1, 64, 110
2, 98974, Note_on_c, 1, 57, 0
2, 98974, Note_on_c, 1, 61, 0
2, 98974, Note_on_c, 1, 64, 0
2, 99072, Note_on_c, 1, 58, 110
2, 99072, Note_on_c, 1, 62, 110
2, 99072, Note_on_c, 1, 65, 110
2, 99166, Note_on_c, 1, 58, 0
2, 99166, Note_on_c, 1, 62, 0
2, 99166, Note_on_c, 1, 65, 0
2, 99264, Note_on_c, 1, 59, 110
2, 99264, Note_on_c, 1, 63, 110
2, 99264, Note_on_c, 1, 66, 110
2, 99358, Note_on_c, 1, 59, 0
2, 99358, Note_on_c, 1, 63, 0
2, 99358, Note_on_c, 1, 66, 0
2, 99360, Note_on_c, 1, 59, 110
2, 99360, Note_on_c, 1, 63, 110
2, 99360, Note_on_c, 1, 66, 110
2, 99454, Note_on_c, 1, 59, 0
2, 99454, Note_on_c, 1, 63, 0
2, 99454, Note_on_c, 1, 66, 0
2, 99552, Note_on_c, 1, 59, 110
2, 99552, Note_on_c, 1, 63, 110
2, 99552, Note_on_c, 1, 66, 110
2, 99646, Note_on_c, 1, 59, 0
2, 99646, Note_on_c, 1, 63, 0
2, 99646, Note_on_c, 1, 66, 0
2, 99648, Note_on_c, 1, 59, 110
2, 99648, Note_on_c, 1, 63, 110
2, 99648, Note_on_c, 1, 66, 110
2, 99742, Note_on_c, 1, 59, 0
2, 99742, Note_on_c, 1, 63, 0
2, 99742, Note_on_c, 1, 66, 0
2, 99744, Note_on_c, 1, 59, 110
2, 99744, Note_on_c, 1, 63, 110
2, 99744, Note_on_c, 1, 66, 110
2, 99838, Note_on_c, 1, 59, 0
2, 99838, Note_on_c, 1, 63, 0
2, 99838, Note_on_c, 1, 66, 0
2, 99936, Note_on_c, 1, 59, 110
2, 99936, Note_on_c, 1, 63, 110
2, 99936, Note_on_c, 1, 66, 110
2, 100030, Note_on_c, 1, 59, 0
2, 100030, Note_on_c, 1, 63, 0
2, 100030, Note_on_c, 1, 66, 0
2, 100032, Note_on_c, 1, 59, 110
2, 100032, Note_on_c, 1, 63, 110
2, 100032, Note_on_c, 1, 66, 110
2, 100126, Note_on_c, 1, 59, 0
2, 100126, Note_on_c, 1, 63, 0
2, 100126, Note_on_c, 1, 66, 0
2, 100128, Note_on_c, 1, 59, 110
2, 100128, Note_on_c, 1, 63, 110
2, 100128, Note_on_c, 1, 66, 110
2, 100222, Note_on_c, 1, 59, 0
2, 100222, Note_on_c, 1, 63, 0
2, 100222, Note_on_c, 1, 66, 0
2, 100320, Note_on_c, 1, 59, 110
2, 100320, Note_on_c, 1, 63, 110
2, 100320, Note_on_c, 1, 66, 110
2, 100414, Note_on_c, 1, 59, 0
2, 100414, Note_on_c, 1, 63, 0
2, 100414, Note_on_c, 1, 66, 0
2, 100416, Note_on_c, 1, 59, 110
2, 100416, Note_on_c, 1, 63, 110
2, 100416, Note_on_c, 1, 66, 110
2, 100510, Note_on_c, 1, 59, 0
2, 100510, Note_on_c, 1, 63, 0
2, 100510, Note_on_c, 1, 66, 0
2, 100512, Note_on_c, 1, 59, 110
2, 100512, Note_on_c, 1, 63, 110
2, 100512, Note_on_c, 1, 66, 110
2, 100606, Note_on_c, 1, 59, 0
2, 100606, Note_on_c, 1, 63, 0
2, 100606, Note_on_c, 1, 66, 0
2, 100608, Note_on_c, 1, 59, 110
2, 100608, Note_on_c, 1, 63, 110
2, 100608, Note_on_c, 1, 66, 110
2, 100702, Note_on_c, 1, 59, 0
2, 100702, Note_on_c, 1, 63, 0
2, 100702, Note_on_c, 1, 66, 0
2, 100800, Note_on_c, 1, 62, 110
2, 100800, Note_on_c, 1, 66, 110
2, 100800, Note_on_c, 1, 69, 110
2, 100894, Note_on_c, 1, 62, 0
2, 100894, Note_on_c, 1, 66, 0
2, 100894, Note_on_c, 1, 69, 0
2, 100896, Note_on_c, 1, 62, 110
2, 100896, Note_on_c, 1, 66, 110
2, 100896, Note_on_c, 1, 69, 110
2, 100990, Note_on_c, 1, 62, 0
2, 100990, Note_on_c, 1, 66, 0
2, 100990, Note_on_c, 1, 69, 0
2, 101088, Note_on_c, 1, 62, 110
2, 101088, Note_on_c, 1, 66, 110
2, 101088, Note_on_c, 1, 69, 110
2, 101182, Note_on_c, 1, 62, 0
2, 101182, Note_on_c, 1, 66, 0
2, 101182, Note_on_c, 1, 69, 0
2, 101184, Note_on_c, 1, 62, 110
2, 101184, Note_on_c, 1, 66, 110
2, 101184, Note_on_c, 1, 69, 110
2, 101278, Note_on_c, 1, 62, 0
2, 101278, Note_on_c, 1, 66, 0
2, 101278, Note_on_c, 1, 69, 0
2, 101280, Note_on_c, 1, 62, 110
2, 101280, Note_on_c, 1, 66, 110
2, 101280, Note_on_c, 1, 69, 110
2, 101374, Note_on_c, 1, 62, 0
2, 101374, Note_on_c, 1, 66, 0
2, 101374, Note_on_c, 1, 69, 0
2, 101472, Note_on_c, 1, 62, 110
2, 101472, Note_on_c, 1, 66, 110
2, 101472, Note_on_c, 1, 69, 110
2, 101566, Note_on_c, 1, 62, 0
2, 101566, Note_on_c, 1, 66, 0
2, 101566, Note_on_c, 1, 69, 0
2, 101568, Note_on_c, 1, 62, 110
2, 101568, Note_on_c, 1, 66, 110
2, 101568, Note_on_c, 1, 69, 110
2, 101662, Note_on_c, 1, 62, 0
2, 101662, Note_on_c, 1, 66, 0
2, 101662, Note_on_c, 1, 69, 0
2, 101664, Note_on_c, 1, 62, 110
2, 101664, Note_on_c, 1, 66, 110
2, 101664, Note_on_c, 1, 69, 110
2, 101758, Note_on_c, 1, 62, 0
2, 101758, Note_on_c, 1, 66, 0
2, 101758, Note_on_c, 1, 69, 0
2, 101856, Note_on_c, 1, 62, 110
2, 101856, Note_on_c, 1, 66, 110
2, 101856, Note_on_c, 1, 69, 110
2, 101950, Note_on_c, 1, 62, 0
2, 101950, Note_on_c, 1, 66, 0
2, 101950, Note_on_c, 1, 69, 0
2, 101952, Note_on_c, 1, 62, 110
2, 101952, Note_on_c, 1, 66, 110
2, 101952, Note_on_c, 1, 69, 110
2, 102046, Note_on_c, 1, 62, 0
2, 102046, Note_on_c, 1, 66, 0
2, 102046, Note_on_c, 1, 69, 0
2, 102048, Note_on_c, 1, 62, 110
2, 102048, Note_on_c, 1, 66, 110
2, 102048, Note_on_c, 1, 69, 110
2, 102142, Note_on_c, 1, 62, 0
2, 102142, Note_on_c, 1, 66, 0
2, 102142, Note_on_c, 1, 69, 0
2, 102144, Note_on_c, 1, 62, 110
2, 102144, Note_on_c, 1, 66, 110
2, 102144, Note_on_c, 1, 69, 110
2, 102238, Note_on_c, 1, 62, 0
2, 102238, Note_on_c, 1, 66, 0
2, 102238, Note_on_c, 1, 69, 0
2, 102336, Note_on_c, 1, 57, 110
2, 102336, Note_on_c, 1, 61, 110
2, 102336, Note_on_c, 1, 64, 110
2, 102430, Note_on_c, 1, 57, 0
2, 102430, Note_on_c, 1, 61, 0
2, 102430, Note_on_c, 1, 64, 0
2, 102432, Note_on_c, 1, 57, 110
2, 102432, Note_on_c, 1, 61, 110
2, 102432, Note_on_c, 1, 64, 110
2, 102526, Note_on_c, 1, 57, 0
2, 102526, Note_on_c, 1, 61, 0
2, 102526, Note_on_c, 1, 64, 0
2, 102624, Note_on_c, 1, 57, 110
2, 102624, Note_on_c, 1, 61, 110
2, 102624, Note_on_c, 1, 64, 110
2, 102718, Note_on_c, 1, 57, 0
2, 102718, Note_on_c, 1, 61, 0
2, 102718, Note_on_c, 1, 64, 0
2, 102720, Note_on_c, 1, 57, 110
2, 102720, Note_on_c, 1, 61, 110
2, 102720, Note_on_c, 1, 64, 110
2, 102814, Note_on_c, 1, 57, 0
2, 102814, Note_on_c, 1, 61, 0
2, 102814, Note_on_c, 1, 64, 0
2, 102816, Note_on_c, 1, 57, 110
2, 102816, Note_on_c, 1, 61, 110
2, 102816, Note_on_c, 1, 64, 110
2, 102910, Note_on_c, 1, 57, 0
2, 102910, Note_on_c, 1, 61, 0
2, 102910, Note_on_c, 1, 64, 0
2, 103008, Note_on_c, 1, 57, 110
2, 103008, Note_on_c, 1, 61, 110
2, 103008, Note_on_c, 1, 64, 110
2, 103102, Note_on_c, 1, 57, 0
2, 103102, Note_on_c, 1, 61, 0
2, 103102, Note_on_c, 1, 64, 0
2, 103104, Note_on_c, 1, 57, 110
2, 103104, Note_on_c, 1, 61, 110
2, 103104, Note_on_c, 1, 64, 110
2, 103198, Note_on_c, 1, 57, 0
2, 103198, Note_on_c, 1, 61, 0
2, 103198, Note_on_c, 1, 64, 0
2, 103200, Note_on_c, 1, 57, 110
2, 103200, Note_on_c, 1, 61, 110
2, 103200, Note_on_c, 1, 64, 110
2, 103294, Note_on_c, 1, 57, 0
2, 103294, Note_on_c, 1, 61, 0
2, 103294, Note_on_c, 1, 64, 0
2, 103392, Note_on_c, 1, 57, 110
2, 103392, Note_on_c, 1, 61, 110
2, 103392, Note_on_c, 1, 64, 110
2, 103486, Note_on_c, 1, 57, 0
2, 103486, Note_on_c, 1, 61, 0
2, 103486, Note_on_c, 1, 64, 0
2, 103488, Note_on_c, 1, 57, 110
2, 103488, Note_on_c, 1, 61, 110
2, 103488, Note_on_c, 1, 64, 110
2, 103582, Note_on_c, 1, 57, 0
2, 103582, Note_on_c, 1, 61, 0
2, 103582, Note_on_c, 1, 64, 0
2, 103680, Note_on_c, 1, 58, 110
2, 103680, Note_on_c, 1, 62, 110
2, 103680, Note_on_c, 1, 65, 110
2, 103774, Note_on_c, 1, 58, 0
2, 103774, Note_on_c, 1, 62, 0
2, 103774, Note_on_c, 1, 65, 0
2, 103872, Note_on_c, 1, 59, 110
2, 103872, Note_on_c, 1, 63, 110
2, 103872, Note_on_c, 1, 66, 110
2, 103966, Note_on_c, 1, 59, 0
2, 103966, Note_on_c, 1, 63, 0
2, 103966, Note_on_c, 1, 66, 0
2, 103968, Note_on_c, 1, 59, 110
2, 103968, Note_on_c, 1, 63, 110
2, 103968, Note_on_c, 1, 66, 110
2, 104062, Note_on_c, 1, 59, 0
2, 104062, Note_on_c, 1, 63, 0
2, 104062, Note_on_c, 1, 66, 0
2, 104160, Note_on_c, 1, 59, 110
2, 104160, Note_on_c, 1, 63, 110
2, 104160, Note_on_c, 1, 66, 110
2, 104254, Note_on_c, 1, 59, 0
2, 104254, Note_on_c, 1, 63, 0
2, 104254, Note_on_c, 1, 66, 0
2, 104256, Note_on_c, 1, 59, 110
2, 104256, Note_on_c, 1, 63, 110
2, 104256, Note_on_c, 1, 66, 110
2, 104350, Note_on_c, 1, 59, 0
2, 104350, Note_on_c, 1, 63, 0
2, 104350, Note_on_c, 1, 66, 0
2, 104352, Note_on_c, 1, 59, 110
2, 104352, Note_on_c, 1, 63, 110
2, 104352, Note_on_c, 1, 66, 110
2, 104446, Note_on_c, 1, 59, 0
2, 104446, Note_on_c, 1, 63, 0
2, 104446, Note_on_c, 1, 66, 0
2, 104544, Note_on_c, 1, 59, 110
2, 104544, Note_on_c, 1, 63, 110
2, 104544, Note_on_c, 1, 66, 110
2, 104638, Note_on_c, 1, 59, 0
2, 104638, Note_on_c, 1, 63, 0
2, 104638, Note_on_c, 1, 66, 0
2, 104640, Note_on_c, 1, 59, 110
2, 104640, Note_on_c, 1, 63, 110
2, 104640, Note_on_c, 1, 66, 110
2, 104734, Note_on_c, 1, 59, 0
2, 104734, Note_on_c, 1, 63, 0
2, 104734, Note_on_c, 1, 66, 0
2, 104736, Note_on_c, 1, 59, 110
2, 104736, Note_on_c, 1, 63, 110
2, 104736, Note_on_c, 1, 66, 110
2, 104830, Note_on_c, 1, 59, 0
2, 104830, Note_on_c, 1, 63, 0
2, 104830, Note_on_c, 1, 66, 0
2, 104928, Note_on_c, 1, 59, 110
2, 104928, Note_on_c, 1, 63, 110
2, 104928, Note_on_c, 1, 66, 110
2, 105022, Note_on_c, 1, 59, 0
2, 105022, Note_on_c, 1, 63, 0
2, 105022, Note_on_c, 1, 66, 0
2, 105024, Note_on_c, 1, 59, 110
2, 105024, Note_on_c, 1, 63, 110
2, 105024, Note_on_c, 1, 66, 110
2, 105118, Note_on_c, 1, 59, 0
2, 105118, Note_on_c, 1, 63, 0
2, 105118, Note_on_c, 1, 66, 0
2, 105120, Note_on_c, 1, 59, 110
2, 105120, Note_on_c, 1, 63, 110
2, 105120, Note_on_c, 1, 66, 110
2, 105214, Note_on_c, 1, 59, 0
2, 105214, Note_on_c, 1, 63, 0
2, 105214, Note_on_c, 1, 66, 0
2, 105216, Note_on_c, 1, 59, 110
2, 105216, Note_on_c, 1, 63, 110
2, 105216, Note_on_c, 1, 66, 110
2, 105310, Note_on_c, 1, 59, 0
2, 105310, Note_on_c, 1, 63, 0
2, 105310, Note_on_c, 1, 66, 0
2, 105408, Note_on_c, 1, 62, 110
2, 105408, Note_on_c, 1, 66, 110
2, 105408, Note_on_c, 1, 69, 110
2, 105502, Note_on_c, 1, 62, 0
2, 105502, Note_on_c, 1, 66, 0
2, 105502, Note_on_c, 1, 69, 0
2, 105504, Note_on_c, 1, 62, 110
2, 105504, Note_on_c, 1, 66, 110
2, 105504, Note_on_c, 1, 69, 110
2, 105598, Note_on_c, 1, 62, 0
2, 105598, Note_on_c, 1, 66, 0
2, 105598, Note_on_c, 1, 69, 0
2, 105696, Note_on_c, 1, 62, 110
2, 105696, Note_on_c, 1, 66, 110
2, 105696, Note_on_c, 1, 69, 110
2, 105790, Note_on_c, 1, 62, 0
2, 105790, Note_on_c, 1, 66, 0
2, 105790, Note_on_c, 1, 69, 0
2, 105792, Note_on_c, 1, 62, 110
2, 105792, Note_on_c, 1, 66, 110
2, 105792, Note_on_c, 1, 69, 110
2, 105886, Note_on_c, 1, 62, 0
2, 105886, Note_on_c, 1, 66, 0
2, 105886, Note_on_c, 1, 69, 0
2, 105888, Note_on_c, 1, 62, 110
2, 105888, Note_on_c, 1, 66, 110
2, 105888, Note_on_c, 1, 69, 110
2, 105982, Note_on_c, 1, 62, 0
2, 105982, Note_on_c, 1, 66, 0
2, 105982, Note_on_c, 1, 69, 0
2, 106080, Note_on_c, 1, 62, 110
2, 106080, Note_on_c, 1, 66, 110
2, 106080, Note_on_c, 1, 69, 110
2, 106174, Note_on_c, 1, 62, 0
2, 106174, Note_on_c, 1, 66, 0
2, 106174, Note_on_c, 1, 69, 0
2, 106176, Note_on_c, 1, 62, 110
2, 106176, Note_on_c, 1, 66, 110
2, 106176, Note_on_c, 1, 69, 110
2, 106270, Note_on_c, 1, 62, 0
2, 106270, Note_on_c, 1, 66, 0
2, 106270, Note_on_c, 1, 69, 0
2, 106272, Note_on_c, 1, 62, 110
2, 106272, Note_on_c, 1, 66, 110
2, 106272, Note_on_c, 1, 69, 110
2, 106366, Note_on_c, 1, 62, 0
2, 106366, Note_on_c, 1, 66, 0
2, 106366, Note_on_c, 1, 69, 0
2, 106464, Note_on_c, 1, 62, 110
2, 106464, Note_on_c, 1, 66, 110
2, 106464, Note_on_c, 1, 69, 110
2, 106558, Note_on_c, 1, 62, 0
2, 106558, Note_on_c, 1, 66, 0
2, 106558, Note_on_c, 1, 69, 0
2, 106560, Note_on_c, 1, 62, 110
2, 106560, Note_on_c, 1, 66, 110
2, 106560, Note_on_c, 1, 69, 110
2, 106654, Note_on_c, 1, 62, 0
2, 106654, Note_on_c, 1, 66, 0
2, 106654, Note_on_c, 1, 69, 0
2, 106656, Note_on_c, 1, 62, 110
2, 106656, Note_on_c, 1, 66, 110
2, 106656, Note_on_c, 1, 69, 110
2, 106750, Note_on_c, 1, 62, 0
2, 106750, Note_on_c, 1, 66, 0
2, 106750, Note_on_c, 1, 69, 0
2, 106752, Note_on_c, 1, 62, 110
2, 106752, Note_on_c, 1, 66, 110
2, 106752, Note_on_c, 1, 69, 110
2, 106846, Note_on_c, 1, 62, 0
2, 106846, Note_on_c, 1, 66, 0
2, 106846, Note_on_c, 1, 69, 0
2, 106944, Note_on_c, 1, 57, 110
2, 106944, Note_on_c, 1, 61, 110
2, 106944, Note_on_c, 1, 64, 110
2, 107038, Note_on_c, 1, 57, 0
2, 107038, Note_on_c, 1, 61, 0
2, 107038, Note_on_c, 1, 64, 0
2, 107040, Note_on_c, 1, 57, 110
2, 107040, Note_on_c, 1, 61, 110
2, 107040, Note_on_c, 1, 64, 110
2, 107134, Note_on_c, 1, 57, 0
2, 107134, Note_on_c, 1, 61, 0
2, 107134, Note_on_c, 1, 64, 0
2, 107232, Note_on_c, 1, 57, 110
2, 107232, Note_on_c, 1, 61, 110
2, 107232, Note_on_c, 1, 64, 110
2, 107326, Note_on_c, 1, 57, 0
2, 107326, Note_on_c, 1, 61, 0
2, 107326, Note_on_c, 1, 64, 0
2, 107328, Note_on_c, 1, 57, 110
2, 107328, Note_on_c, 1, 61, 110
2, 107328, Note_on_c, 1, 64, 110
2, 107422, Note_on_c, 1, 57, 0
2, 107422, Note_on_c, 1, 61, 0
2, 107422, Note_on_c, 1, 64, 0
2, 107424, Note_on_c, 1, 57, 110
2, 107424, Note_on_c, 1, 61, 110
2, 107424, Note_on_c, 1, 64, 110
2, 107518, Note_on_c, 1, 57, 0
2, 107518, Note_on_c, 1, 61, 0
2, 107518, Note_on_c, 1, 64, 0
2, 107616, Note_on_c, 1, 57, 110
2, 107616, Note_on_c, 1, 61, 110
2, 107616, Note_on_c, 1, 64, 110
2, 107710, Note_on_c, 1, 57, 0
2, 107710, Note_on_c, 1, 61, 0
2, 107710, Note_on_c, 1, 64, 0
2, 107712, Note_on_c, 1, 57, 110
2, 107712, Note_on_c, 1, 61, 110
2, 107712, Note_on_c, 1, 64, 110
2, 107806, Note_on_c, 1, 57, 0
2, 107806, Note_on_c, 1, 61, 0
2, 107806, Note_on_c, 1, 64, 0
2, 107808, Note_on_c, 1, 57, 110
2, 107808, Note_on_c, 1, 61, 110
2, 107808, Note_on_c, 1, 64, 110
2, 107902, Note_on_c, 1, 57, 0
2, 107902, Note_on_c, 1, 61, 0
2, 107902, Note_on_c, 1, 64, 0
2, 108000, Note_on_c, 1, 57, 110
2, 108000, Note_on_c, 1, 61, 110
2, 108000, Note_on_c, 1, 64, 110
2, 108094, Note_on_c, 1, 57, 0
2, 108094, Note_on_c, 1, 61, 0
2, 108094, Note_on_c, 1, 64, 0
2, 108096, Note_on_c, 1, 57, 110
2, 108096, Note_on_c, 1, 61, 110
2, 108096, Note_on_c, 1, 64, 110
2, 108190, Note_on_c, 1, 57, 0
2, 108190, Note_on_c, 1, 61, 0
2, 108190, Note_on_c, 1, 64, 0
2, 108288, Note_on_c, 1, 58, 110
2, 108288, Note_on_c, 1, 62, 110
2, 108288, Note_on_c, 1, 65, 110
2, 108382, Note_on_c, 1, 58, 0
2, 108382, Note_on_c, 1, 62, 0
2, 108382, Note_on_c, 1, 65, 0
2, 108480, Note_on_c, 1, 59, 110
2, 108480, Note_on_c, 1, 63, 110
2, 108480, Note_on_c, 1, 66, 110
2, 108574, Note_on_c, 1, 59, 0
2, 108574, Note_on_c, 1, 63, 0
2, 108574, Note_on_c, 1, 66, 0
2, 108576, Note_on_c, 1, 59, 110
2, 108576, Note_on_c, 1, 63, 110
2, 108576, Note_on_c, 1, 66, 110
2, 108670, Note_on_c, 1, 59, 0
2, 108670, Note_on_c, 1, 63, 0
2, 108670, Note_on_c, 1, 66, 0
2, 108768, Note_on_c, 1, 59, 110
2, 108768, Note_on_c, 1, 63, 110
2, 108768, Note_on_c, 1, 66, 110
2, 108862, Note_on_c, 1, 59, 0
2, 108862, Note_on_c, 1, 63, 0
2, 108862, Note_on_c, 1, 66, 0
2, 108864, Note_on_c, 1, 59, 110
2, 108864, Note_on_c, 1, 63, 110
2, 108864, Note_on_c, 1, 66, 110
2, 108958, Note_on_c, 1, 59, 0
2, 108958, Note_on_c, 1, 63, 0
2, 108958, Note_on_c, 1, 66, 0
2, 108960, Note_on_c, 1, 59, 110
2, 108960, Note_on_c, 1, 63, 110
2, 108960, Note_on_c, 1, 66, 110
2, 109054, Note_on_c, 1, 59, 0
2, 109054, Note_on_c, 1, 63, 0
2, 109054, Note_on_c, 1, 66, 0
2, 109152, Note_on_c, 1, 59, 110
2, 109152, Note_on_c, 1, 63, 110
2, 109152, Note_on_c, 1, 66, 110
2, 109246, Note_on_c, 1, 59, 0
2, 109246, Note_on_c, 1, 63, 0
2, 109246, Note_on_c, 1, 66, 0
2, 109248, Note_on_c, 1, 59, 110
2, 109248, Note_on_c, 1, 63, 110
2, 109248, Note_on_c, 1, 66, 110
2, 109342, Note_on_c, 1, 59, 0
2, 109342, Note_on_c, 1, 63, 0
2, 109342, Note_on_c, 1, 66, 0
2, 109344, Note_on_c, 1, 59, 110
2, 109344, Note_on_c, 1, 63, 110
2, 109344, Note_on_c, 1, 66, 110
2, 109438, Note_on_c, 1, 59, 0
2, 109438, Note_on_c, 1, 63, 0
2, 109438, Note_on_c, 1, 66, 0
2, 109536, Note_on_c, 1, 59, 110
2, 109536, Note_on_c, 1, 63, 110
2, 109536, Note_on_c, 1, 66, 110
2, 109630, Note_on_c, 1, 59, 0
2, 109630, Note_on_c, 1, 63, 0
2, 109630, Note_on_c, 1, 66, 0
2, 109632, Note_on_c, 1, 59, 110
2, 109632, Note_on_c, 1, 63, 110
2, 109632, Note_on_c, 1, 66, 110
2, 109726, Note_on_c, 1, 59, 0
2, 109726, Note_on_c, 1, 63, 0
2, 109726, Note_on_c, 1, 66, 0
2, 109728, Note_on_c, 1, 59, 110
2, 109728, Note_on_c, 1, 63, 110
2, 109728, Note_on_c, 1, 66, 110
2, 109822, Note_on_c, 1, 59, 0
2, 109822, Note_on_c, 1, 63, 0
2, 109822, Note_on_c, 1, 66, 0
2, 109824, Note_on_c, 1, 59, 110
2, 109824, Note_on_c, 1, 63, 110
2, 109824, Note_on_c, 1, 66, 110
2, 109918, Note_on_c, 1, 59, 0
2, 109918, Note_on_c, 1, 63, 0
2, 109918, Note_on_c, 1, 66, 0
2, 110016, Note_on_c, 1, 62, 110
2, 110016, Note_on_c, 1, 66, 110
2, 110016, Note_on_c, 1, 69, 110
2, 110110, Note_on_c, 1, 62, 0
2, 110110, Note_on_c, 1, 66, 0
2, 110110, Note_on_c, 1, 69, 0
2, 110112, Note_on_c, 1, 62, 110
2, 110112, Note_on_c, 1, 66, 110
2, 110112, Note_on_c, 1, 69, 110
2, 110206, Note_on_c, 1, 62, 0
2, 110206, Note_on_c, 1, 66, 0
2, 110206, Note_on_c, 1, 69, 0
2, 110304, Note_on_c, 1, 62, 110
2, 110304, Note_on_c, 1, 66, 110
2, 110304, Note_on_c, 1, 69, 110
2, 110398, Note_on_c, 1, 62, 0
2, 110398, Note_on_c, 1, 66, 0
2, 110398, Note_on_c, 1, 69, 0
2, 110400, Note_on_c, 1, 62, 110
2, 110400, Note_on_c, 1, 66, 110
2, 110400, Note_on_c, 1, 69, 110
2, 110494, Note_on_c, 1, 62, 0
2, 110494, Note_on_c, 1, 66, 0
2, 110494, Note_on_c, 1, 69, 0
2, 110496, Note_on_c, 1, 62, 110
2, 110496, Note_on_c, 1, 66, 110
2, 110496, Note_on_c, 1, 69, 110
2, 110590, Note_on_c, 1, 62, 0
2, 110590, Note_on_c, 1, 66, 0
2, 110590, Note_on_c, 1, 69, 0
2, 110688, Note_on_c, 1, 62, 110
2, 110688, Note_on_c, 1, 66, 110
2, 110688, Note_on_c, 1, 69, 110
2, 110782, Note_on_c, 1, 62, 0
2, 110782, Note_on_c, 1, 66, 0
2, 110782, Note_on_c, 1, 69, 0
2, 110784, Note_on_c, 1, 62, 110
2, 110784, Note_on_c, 1, 66, 110
2, 110784, Note_on_c, 1, 69, 110
2, 110878, Note_on_c, 1, 62, 0
2, 110878, Note_on_c, 1, 66, 0
2, 110878, Note_on_c, 1, 69, 0
2, 110880, Note_on_c, 1, 62, 110
2, 110880, Note_on_c, 1, 66, 110
2, 110880, Note_on_c, 1, 69, 110
2, 110974, Note_on_c, 1, 62, 0
2, 110974, Note_on_c, 1, 66, 0
2, 110974, Note_on_c, 1, 69, 0
2, 111072, Note_on_c, 1, 62, 110
2, 111072, Note_on_c, 1, 66, 110
2, 111072, Note_on_c, 1, 69, 110
2, 111166, Note_on_c, 1, 62, 0
2, 111166, Note_on_c, 1, 66, 0
2, 111166, Note_on_c, 1, 69, 0
2, 111168, Note_on_c, 1, 62, 110
2, 111168, Note_on_c, 1, 66, 110
2, 111168, Note_on_c, 1, 69, 110
2, 111262, Note_on_c, 1, 62, 0
2, 111262, Note_on_c, 1, 66, 0
2, 111262, Note_on_c, 1, 69, 0
2, 111264, Note_on_c, 1, 62, 110
2, 111264, Note_on_c, 1, 66, 110
2, 111264, Note_on_c, 1, 69, 110
2, 111358, Note_on_c, 1, 62, 0
2, 111358, Note_on_c, 1, 66, 0
2, 111358, Note_on_c, 1, 69, 0
2, 111360, Note_on_c, 1, 62, 110
2, 111360, Note_on_c, 1, 66, 110
2, 111360, Note_on_c, 1, 69, 110
2, 111454, Note_on_c, 1, 62, 0
2, 111454, Note_on_c, 1, 66, 0
2, 111454, Note_on_c, 1, 69, 0
2, 111552, Note_on_c, 1, 57, 110
2, 111552, Note_on_c, 1, 61, 110
2, 111552, Note_on_c, 1, 64, 110
2, 111646, Note_on_c, 1, 57, 0
2, 111646, Note_on_c, 1, 61, 0
2, 111646, Note_on_c, 1, 64, 0
2, 111648, Note_on_c, 1, 57, 110
2, 111648, Note_on_c, 1, 61, 110
2, 111648, Note_on_c, 1, 64, 110
2, 111742, Note_on_c, 1, 57, 0
2, 111742, Note_on_c, 1, 61, 0
2, 111742, Note_on_c, 1, 64, 0
2, 111840, Note_on_c, 1, 57, 110
2, 111840, Note_on_c, 1, 61, 110
2, 111840, Note_on_c, 1, 64, 110
2, 111934, Note_on_c, 1, 57, 0
2, 111934, Note_on_c, 1, 61, 0
2, 111934, Note_on_c, 1, 64, 0
2, 111936, Note_on_c, 1, 57, 110
2, 111936, Note_on_c, 1, 61, 110
2, 111936, Note_on_c, 1, 64, 110
2, 112030, Note_on_c, 1, 57, 0
2, 112030, Note_on_c, 1, 61, 0
2, 112030, Note_on_c, 1, 64, 0
2, 112032, Note_on_c, 1, 57, 110
2, 112032, Note_on_c, 1, 61, 110
2, 112032, Note_on_c, 1, 64, 110
2, 112126, Note_on_c, 1, 57, 0
2, 112126, Note_on_c, 1, 61, 0
2, 112126, Note_on_c, 1, 64, 0
2, 112224, Note_on_c, 1, 57, 110
2, 112224, Note_on_c, 1, 61, 110
2, 112224, Note_on_c, 1, 64, 110
2, 112318, Note_on_c, 1, 57, 0
2, 112318, Note_on_c, 1, 61, 0
2, 112318, Note_on_c, 1, 64, 0
2, 112320, Note_on_c, 1, 57, 110
2, 112320, Note_on_c, 1, 61, 110
2, 112320, Note_on_c, 1, 64, 110
2, 112414, Note_on_c, 1, 57, 0
2, 112414, Note_on_c, 1, 61, 0
2, 112414, Note_on_c, 1, 64, 0
2, 112416, Note_on_c, 1, 57, 110
2, 112416, Note_on_c, 1, 61, 110
2, 112416, Note_on_c, 1, 64, 110
2, 112510, Note_on_c, 1, 57, 0
2, 112510, Note_on_c, 1, 61, 0
2, 112510, Note_on_c, 1, 64, 0
2, 112608, Note_on_c, 1, 57, 110
2, 112608, Note_on_c, 1, 61, 110
2, 112608, Note_on_c, 1, 64, 110
2, 112702, Note_on_c, 1, 57, 0
2, 112702, Note_on_c, 1, 61, 0
2, 112702, Note_on_c, 1, 64, 0
2, 112704, Note_on_c, 1, 57, 110
2, 112704, Note_on_c, 1, 61, 110
2, 112704, Note_on_c, 1, 64, 110
2, 112798, Note_on_c, 1, 57, 0
2, 112798, Note_on_c, 1, 61, 0
2, 112798, Note_on_c, 1, 64, 0
2, 112896, Note_on_c, 1, 58, 110
2, 112896, Note_on_c, 1, 62, 110
2, 112896, Note_on_c, 1, 65, 110
2, 112990, Note_on_c, 1, 58, 0
2, 112990, Note_on_c, 1, 62, 0
2, 112990, Note_on_c, 1, 65, 0
2, 113088, Note_on_c, 1, 59, 110
2, 113088, Note_on_c, 1, 63, 110
2, 113088, Note_on_c, 1, 66, 110
2, 113182, Note_on_c, 1, 59, 0
2, 113182, Note_on_c, 1, 63, 0
2, 113182, Note_on_c, 1, 66, 0
2, 113184, Note_on_c, 1, 59, 110
2, 113184, Note_on_c, 1, 63, 110
2, 113184, Note_on_c, 1, 66, 110
2, 113278, Note_on_c, 1, 59, 0
2, 113278, Note_on_c, 1, 63, 0
2, 113278, Note_on_c, 1, 66, 0
2, 113376, Note_on_c, 1, 59, 110
2, 113376, Note_on_c, 1, 63, 110
2, 113376, Note_on_c, 1, 66, 110
2, 113470, Note_on_c, 1, 59, 0
2, 113470, Note_on_c, 1, 63, 0
2, 113470, Note_on_c, 1, 66, 0
2, 113472, Note_on_c, 1, 59, 110
2, 113472, Note_on_c, 1, 63, 110
2, 113472, Note_on_c, 1, 66, 110
2, 113566, Note_on_c, 1, 59, 0
2, 113566, Note_on_c, 1, 63, 0
2, 113566, Note_on_c, 1, 66, 0
2, 113568, Note_on_c, 1, 59, 110
2, 113568, Note_on_c, 1, 63, 110
2, 113568, Note_on_c, 1, 66, 110
2, 113662, Note_on_c, 1, 59, 0
2, 113662, Note_on_c, 1, 63, 0
2, 113662, Note_on_c, 1, 66, 0
2, 113760, Note_on_c, 1, 59, 110
2, 113760, Note_on_c, 1, 63, 110
2, 113760, Note_on_c, 1, 66, 110
2, 113854, Note_on_c, 1, 59, 0
2, 113854, Note_on_c, 1, 63, 0
2, 113854, Note_on_c, 1, 66, 0
2, 113856, Note_on_c, 1, 59, 110
2, 113856, Note_on_c, 1, 63, 110
2, 113856, Note_on_c, 1, 66, 110
2, 113950, Note_on_c, 1, 59, 0
2, 113950, Note_on_c, 1, 63, 0
2, 113950, Note_on_c, 1, 66, 0
2, 113952, Note_on_c, 1, 59, 110
2, 113952, Note_on_c, 1, 63, 110
2, 113952, Note_on_c, 1, 66, 110
2, 114046, Note_on_c, 1, 59, 0
2, 114046, Note_on_c, 1, 63, 0
2, 114046, Note_on_c, 1, 66, 0
2, 114144, Note_on_c, 1, 59, 110
2, 114144, Note_on_c, 1, 63, 110
2, 114144, Note_on_c, 1, 66, 110
2, 114238, Note_on_c, 1, 59, 0
2, 114238, Note_on_c, 1, 63, 0
2, 114238, Note_on_c, 1, 66, 0
2, 114240, Note_on_c, 1, 59, 110
2, 114240, Note_on_c, 1, 63, 110
2, 114240, Note_on_c, 1, 66, 110
2, 114334, Note_on_c, 1, 59, 0
2, 114334, Note_on_c, 1, 63, 0
2, 114334, Note_on_c, 1, 66, 0
2, 114336, Note_on_c, 1, 59, 110
2, 114336, Note_on_c, 1, 63, 110
2, 114336, Note_on_c, 1, 66, 110
2, 114430, Note_on_c, 1, 59, 0
2, 114430, Note_on_c, 1, 63, 0
2, 114430, Note_on_c, 1, 66, 0
2, 114432, Note_on_c, 1, 59, 110
2, 114432, Note_on_c, 1, 63, 110
2, 114432, Note_on_c, 1, 66, 110
2, 114526, Note_on_c, 1, 59, 0
2, 114526, Note_on_c, 1, 63, 0
2, 114526, Note_on_c, 1, 66, 0
2, 114624, Note_on_c, 1, 62, 110
2, 114624, Note_on_c, 1, 66, 110
2, 114624, Note_on_c, 1, 69, 110
2, 114718, Note_on_c, 1, 62, 0
2, 114718, Note_on_c, 1, 66, 0
2, 114718, Note_on_c, 1, 69, 0
2, 114720, Note_on_c, 1, 62, 110
2, 114720, Note_on_c, 1, 66, 110
2, 114720, Note_on_c, 1, 69, 110
2, 114814, Note_on_c, 1, 62, 0
2, 114814, Note_on_c, 1, 66, 0
2, 114814, Note_on_c, 1, 69, 0
2, 114912, Note_on_c, 1, 62, 110
2, 114912, Note_on_c, 1, 66, 110
2, 114912, Note_on_c, 1, 69, 110
2, 115006, Note_on_c, 1, 62, 0
2, 115006, Note_on_c, 1, 66, 0
2, 115006, Note_on_c, 1, 69, 0
2, 115008, Note_on_c, 1, 62, 110
2, 115008, Note_on_c, 1, 66, 110
2, 115008, Note_on_c, 1, 69, 110
2, 115102, Note_on_c, 1, 62, 0
2, 115102, Note_on_c, 1, 66, 0
2, 115102, Note_on_c, 1, 69, 0
2, 115104, Note_on_c, 1, 62, 110
2, 115104, Note_on_c, 1, 66, 110
2, 115104, Note_on_c, 1, 69, 110
2, 115198, Note_on_c, 1, 62, 0
2, 115198, Note_on_c, 1, 66, 0
2, 115198, Note_on_c, 1, 69, 0
2, 115296, Note_on_c, 1, 62, 110
2, 115296, Note_on_c, 1, 66, 110
2, 115296, Note_on_c, 1, 69, 110
2, 115390, Note_on_c, 1, 62, 0
2, 115390, Note_on_c, 1, 66, 0
2, 115390, Note_on_c, 1, 69, 0
2, 115392, Note_on_c, 1, 62, 110
2, 115392, Note_on_c, 1, 66, 110
2, 115392, Note_on_c, 1, 69, 110
2, 115486, Note_on_c, 1, 62, 0
2, 115486, Note_on_c, 1, 66, 0
2, 115486, Note_on_c, 1, 69, 0
2, 115488, Note_on_c, 1, 62, 110
2, 115488, Note_on_c, 1, 66, 110
2, 115488, Note_on_c, 1, 69, 110
2, 115582, Note_on_c, 1, 62, 0
2, 115582, Note_on_c, 1, 66, 0
2, 115582, Note_on_c, 1, 69, 0
2, 115680, Note_on_c, 1, 62, 110
2, 115680, Note_on_c, 1, 66, 110
2, 115680, Note_on_c, 1, 69, 110
2, 115774, Note_on_c, 1, 62, 0
2, 115774, Note_on_c, 1, 66, 0
2, 115774, Note_on_c, 1, 69, 0
2, 115776, Note_on_c, 1, 62, 110
2, 115776, Note_on_c, 1, 66, 110
2, 115776, Note_on_c, 1, 69, 110
2, 115870, Note_on_c, 1, 62, 0
2, 115870, Note_on_c, 1, 66, 0
2, 115870, Note_on_c, 1, 69, 0
2, 115872, Note_on_c, 1, 62, 110
2, 115872, Note_on_c, 1, 66, 110
2, 115872, Note_on_c, 1, 69, 110
2, 115966, Note_on_c, 1, 62, 0
2, 115966, Note_on_c, 1, 66, 0
2, 115966, Note_on_c, 1, 69, 0
2, 115968, Note_on_c, 1, 62, 110
2, 115968, Note_on_c, 1, 66, 110
2, 115968, Note_on_c, 1, 69, 110
2, 116062, Note_on_c, 1, 62, 0
2, 116062, Note_on_c, 1, 66, 0
2, 116062, Note_on_c, 1, 69, 0
2, 116160, Note_on_c, 1, 57, 110
2, 116160, Note_on_c, 1, 61, 110
2, 116160, Note_on_c, 1, 64, 110
2, 116254, Note_on_c, 1, 57, 0
2, 116254, Note_on_c, 1, 61, 0
2, 116254, Note_on_c, 1, 64, 0
2, 116256, Note_on_c, 1, 57, 110
2, 116256, Note_on_c, 1, 61, 110
2, 116256, Note_on_c, 1, 64, 110
2, 116350, Note_on_c, 1, 57, 0
2, 116350, Note_on_c, 1, 61, 0
2, 116350, Note_on_c, 1, 64, 0
2, 116448, Note_on_c, 1, 57, 110
2, 116448, Note_on_c, 1, 61, 110
2, 116448, Note_on_c, 1, 64, 110
2, 116542, Note_on_c, 1, 57, 0
2, 116542, Note_on_c, 1, 61, 0
2, 116542, Note_on_c, 1, 64, 0
2, 116544, Note_on_c, 1, 57, 110
2, 116544, Note_on_c, 1, 61, 110
2, 116544, Note_on_c, 1, 64, 110
2, 116638, Note_on_c, 1, 57, 0
2, 116638, Note_on_c, 1, 61, 0
2, 116638, Note_on_c, 1, 64, 0
2, 116640, Note_on_c, 1, 57, 110
2, 116640, Note_on_c, 1, 61, 110
2, 116640, Note_on_c, 1, 64, 110
2, 116734, Note_on_c, 1, 57, 0
2, 116734, Note_on_c, 1, 61, 0
2, 116734, Note_on_c, 1, 64, 0
2, 116832, Note_on_c, 1, 57, 110
2, 116832, Note_on_c, 1, 61, 110
2, 116832, Note_on_c, 1, 64, 110
2, 116926, Note_on_c, 1, 57, 0
2, 116926, Note_on_c, 1, 61, 0
2, 116926, Note_on_c, 1, 64, 0
2, 116928, Note_on_c, 1, 57, 110
2, 116928, Note_on_c, 1, 61, 110
2, 116928, Note_on_c, 1, 64, 110
2, 117022, Note_on_c, 1, 57, 0
2, 117022, Note_on_c, 1, 61, 0
2, 117022, Note_on_c, 1, 64, 0
2, 117024, Note_on_c, 1, 57, 110
2, 117024, Note_on_c, 1, 61, 110
2, 117024, Note_on_c, 1, 64, 110
2, 117118, Note_on_c, 1, 57, 0
2, 117118, Note_on_c, 1, 61, 0
2, 117118, Note_on_c, 1, 64, 0
2, 117216, Note_on_c, 1, 57, 110
2, 117216, Note_on_c, 1, 61, 110
2, 117216, Note_on_c, 1, 64, 110
2, 117310, Note_on_c, 1, 57, 0
2, 117310, Note_on_c, 1, 61, 0
2, 117310, Note_on_c, 1, 64, 0
2, 117312, Note_on_c, 1, 57, 110
2, 117312, Note_on_c, 1, 61, 110
2, 117312, Note_on_c, 1, 64, 110
2, 117406, Note_on_c, 1, 57, 0
2, 117406, Note_on_c, 1, 61, 0
2, 117406, Note_on_c, 1, 64, 0
2, 117504, Note_on_c, 1, 58, 110
2, 117504, Note_on_c, 1, 62, 110
2, 117504, Note_on_c, 1, 65, 110
2, 117598, Note_on_c, 1, 58, 0
2, 117598, Note_on_c, 1, 62, 0
2, 117598, Note_on_c, 1, 65, 0
2, 117696, Note_on_c, 1, 59, 110
2, 117696, Note_on_c, 1, 63, 110
2, 117696, Note_on_c, 1, 66, 110
2, 117790, Note_on_c, 1, 59, 0
2, 117790, Note_on_c, 1, 63, 0
2, 117790, Note_on_c, 1, 66, 0
2, 117792, Note_on_c, 1, 59, 110
2, 117792, Note_on_c, 1, 63, 110
2, 117792, Note_on_c, 1, 66, 110
2, 117886, Note_on_c, 1, 59, 0
2, 117886, Note_on_c, 1, 63, 0
2, 117886, Note_on_c, 1, 66, 0
2, 117984, Note_on_c, 1, 59, 110
2, 117984, Note_on_c, 1, 63, 110
2, 117984, Note_on_c, 1, 66, 110
2, 118078, Note_on_c, 1, 59, 0
2, 118078, Note_on_c, 1, 63, 0
2, 118078, Note_on_c, 1, 66, 0
2, 118080, Note_on_c, 1, 59, 110
2, 118080, Note_on_c, 1, 63, 110
2, 118080, Note_on_c, 1, 66, 110
2, 118174, Note_on_c, 1, 59, 0
2, 118174, Note_on_c, 1, 63, 0
2, 118174, Note_on_c, 1, 66, 0
2, 118176, Note_on_c, 1, 59, 110
2, 118176, Note_on_c, 1, 63, 110
2, 118176, Note_on_c, 1, 66, 110
2, 118270, Note_on_c, 1, 59, 0
2, 118270, Note_on_c, 1, 63, 0
2, 118270, Note_on_c, 1, 66, 0
2, 118368, Note_on_c, 1, 59, 110
2, 118368, Note_on_c, 1, 63, 110
2, 118368, Note_on_c, 1, 66, 110
2, 118462, Note_on_c, 1, 59, 0
2, 118462, Note_on_c, 1, 63, 0
2, 118462, Note_on_c, 1, 66, 0
2, 118464, Note_on_c, 1, 59, 110
2, 118464, Note_on_c, 1, 63, 110
2, 118464, Note_on_c, 1, 66, 110
2, 118558, Note_on_c, 1, 59, 0
2, 118558, Note_on_c, 1, 63, 0
2, 118558, Note_on_c, 1, 66, 0
2, 118560, Note_on_c, 1, 59, 110
2, 118560, Note_on_c, 1, 63, 110
2, 118560, Note_on_c, 1, 66, 110
2, 118654, Note_on_c, 1, 59, 0
2, 118654, Note_on_c, 1, 63, 0
2, 118654, Note_on_c, 1, 66, 0
2, 118752, Note_on_c, 1, 59, 110
2, 118752, Note_on_c, 1, 63, 110
2, 118752, Note_on_c, 1, 66, 110
2, 118846, Note_on_c, 1, 59, 0
2, 118846, Note_on_c, 1, 63, 0
2, 118846, Note_on_c, 1, 66, 0
2, 118848, Note_on_c, 1, 59, 110
2, 118848, Note_on_c, 1, 63, 110
2, 118848, Note_on_c, 1, 66, 110
2, 118942, Note_on_c, 1, 59, 0
2, 118942, Note_on_c, 1, 63, 0
2, 118942, Note_on_c, 1, 66, 0
2, 118944, Note_on_c, 1, 59, 110
2, 118944, Note_on_c, 1, 63, 110
2, 118944, Note_on_c, 1, 66, 110
2, 119038, Note_on_c, 1, 59, 0
2, 119038, Note_on_c, 1, 63, 0
2, 119038, Note_on_c, 1, 66, 0
2, 119040, Note_on_c, 1, 59, 110
2, 119040, Note_on_c, 1, 63, 110
2, 119040, Note_on_c, 1, 66, 110
2, 119134, Note_on_c, 1, 59, 0
2, 119134, Note_on_c, 1, 63, 0
2, 119134, Note_on_c, 1, 66, 0
2, 119232, Note_on_c, 1, 62, 110
2, 119232, Note_on_c, 1, 66, 110
2, 119232, Note_on_c, 1, 69, 110
2, 119326, Note_on_c, 1, 62, 0
2, 119326, Note_on_c, 1, 66, 0
2, 119326, Note_on_c, 1, 69, 0
2, 119328, Note_on_c, 1, 62, 110
2, 119328, Note_on_c, 1, 66, 110
2, 119328, Note_on_c, 1, 69, 110
2, 119422, Note_on_c, 1, 62, 0
2, 119422, Note_on_c, 1, 66, 0
2, 119422, Note_on_c, 1, 69, 0
2, 119520, Note_on_c, 1, 62, 110
2, 119520, Note_on_c, 1, 66, 110
2, 119520, Note_on_c, 1, 69, 110
2, 119614, Note_on_c, 1, 62, 0
2, 119614, Note_on_c, 1, 66, 0
2, 119614, Note_on_c, 1, 69, 0
2, 119616, Note_on_c, 1, 62, 110
2, 119616, Note_on_c, 1, 66, 110
2, 119616, Note_on_c, 1, 69, 110
2, 119710, Note_on_c, 1, 62, 0
2, 119710, Note_on_c, 1, 66, 0
2, 119710, Note_on_c, 1, 69, 0
2, 119712, Note_on_c, 1, 62, 110
2, 119712, Note_on_c, 1, 66, 110
2, 119712, Note_on_c, 1, 69, 110
2, 119806, Note_on_c, 1, 62, 0
2, 119806, Note_on_c, 1, 66, 0
2, 119806, Note_on_c, 1, 69, 0
2, 119904, Note_on_c, 1, 62, 110
2, 119904, Note_on_c, 1, 66, 110
2, 119904, Note_on_c, 1, 69, 110
2, 119998, Note_on_c, 1, 62, 0
2, 119998, Note_on_c, 1, 66, 0
2, 119998, Note_on_c, 1, 69, 0
2, 120000, Note_on_c, 1, 62, 110
2, 120000, Note_on_c, 1, 66, 110
2, 120000, Note_on_c, 1, 69, 110
2, 120094, Note_on_c, 1, 62, 0
2, 120094, Note_on_c, 1, 66, 0
2, 120094, Note_on_c, 1, 69, 0
2, 120096, Note_on_c, 1, 62, 110
2, 120096, Note_on_c, 1, 66, 110
2, 120096, Note_on_c, 1, 69, 110
2, 120190, Note_on_c, 1, 62, 0
2, 120190, Note_on_c, 1, 66, 0
2, 120190, Note_on_c, 1, 69, 0
2, 120288, Note_on_c, 1, 62, 110
2, 120288, Note_on_c, 1, 66, 110
2, 120288, Note_on_c, 1, 69, 110
2, 120382, Note_on_c, 1, 62, 0
2, 120382, Note_on_c, 1, 66, 0
2, 120382, Note_on_c, 1, 69, 0
2, 120384, Note_on_c, 1, 62, 110
2, 120384, Note_on_c, 1, 66, 110
2, 120384, Note_on_c, 1, 69, 110
2, 120478, Note_on_c, 1, 62, 0
2, 120478, Note_on_c, 1, 66, 0
2, 120478, Note_on_c, 1, 69, 0
2, 120480, Note_on_c, 1, 62, 110
2, 120480, Note_on_c, 1, 66, 110
2, 120480, Note_on_c, 1, 69, 110
2, 120574, Note_on_c, 1, 62, 0
2, 120574, Note_on_c, 1, 66, 0
2, 120574, Note_on_c, 1, 69, 0
2, 120576, Note_on_c, 1, 62, 110
2, 120576, Note_on_c, 1, 66, 110
2, 120576, Note_on_c, 1, 69, 110
2, 120670, Note_on_c, 1, 62, 0
2, 120670, Note_on_c, 1, 66, 0
2, 120670, Note_on_c, 1, 69, 0
2, 120768, Note_on_c, 1, 57, 110
2, 120768, Note_on_c, 1, 61, 110
2, 120768, Note_on_c, 1, 64, 110
2, 120862, Note_on_c, 1, 57, 0
2, 120862, Note_on_c, 1, 61, 0
2, 120862, Note_on_c, 1, 64, 0
2, 120864, Note_on_c, 1, 57, 110
2, 120864, Note_on_c, 1, 61, 110
2, 120864, Note_on_c, 1, 64, 110
2, 120958, Note_on_c, 1, 57, 0
2, 120958, Note_on_c, 1, 61, 0
2, 120958, Note_on_c, 1, 64, 0
2, 121056, Note_on_c, 1, 57, 110
2, 121056, Note_on_c, 1, 61, 110
2, 121056, Note_on_c, 1, 64, 110
2, 121150, Note_on_c, 1, 57, 0
2, 121150, Note_on_c, 1, 61, 0
2, 121150, Note_on_c, 1, 64, 0
2, 121152, Note_on_c, 1, 57, 110
2, 121152, Note_on_c, 1, 61, 110
2, 121152, Note_on_c, 1, 64, 110
2, 121246, Note_on_c, 1, 57, 0
2, 121246, Note_on_c, 1, 61, 0
2, 121246, Note_on_c, 1, 64, 0
2, 121248, Note_on_c, 1, 57, 110
2, 121248, Note_on_c, 1, 61, 110
2, 121248, Note_on_c, 1, 64, 110
2, 121342, Note_on_c, 1, 57, 0
2, 121342, Note_on_c, 1, 61, 0
2, 121342, Note_on_c, 1, 64, 0
2, 121440, Note_on_c, 1, 57, 110
2, 121440, Note_on_c, 1, 61, 110
2, 121440, Note_on_c, 1, 64, 110
2, 121534, Note_on_c, 1, 57, 0
2, 121534, Note_on_c, 1, 61, 0
2, 121534, Note_on_c, 1, 64, 0
2, 121536, Control_c, 1, 7, 127
2, 121536, Note_on_c, 1, 57, 110
2, 121536, Note_on_c, 1, 61, 110
2, 121536, Note_on_c, 1, 64, 110
2, 121559, Control_c, 1, 7, 126
2, 121582, Control_c, 1, 7, 125
2, 121605, Control_c, 1, 7, 124
2, 121629, Control_c, 1, 7, 123
2, 121630, Note_on_c, 1, 57, 0
2, 121630, Note_on_c, 1, 61, 0
2, 121630, Note_on_c, 1, 64, 0
2, 121632, Note_on_c, 1, 57, 110
2, 121632, Note_on_c, 1, 61, 110
2, 121632, Note_on_c, 1, 64, 110
2, 121652, Control_c, 1, 7, 122
2, 121675, Control_c, 1, 7, 121
2, 121698, Control_c, 1, 7, 120
2, 121722, Control_c, 1, 7, 119
2, 121726, Note_on_c, 1, 57, 0
2, 121726, Note_on_c, 1, 61, 0
2, 121726, Note_on_c, 1, 64, 0
2, 121745, Control_c, 1, 7, 118
2, 121768, Control_c, 1, 7, 117
2, 121792, Control_c, 1, 7, 116
2, 121815, Control_c, 1, 7, 115
2, 121824, Note_on_c, 1, 57, 110
2, 121824, Note_on_c, 1, 61, 110
2, 121824, Note_on_c, 1, 64, 110
2, 121838, Control_c, 1, 7, 114
2, 121861, Control_c, 1, 7, 113
2, 121885, Control_c, 1, 7, 112
2, 121908, Control_c, 1, 7, 111
2, 121918, Note_on_c, 1, 57, 0
2, 121918, Note_on_c, 1, 61, 0
2, 121918, Note_on_c, 1, 64, 0
2, 121920, Note_on_c, 1, 57, 110
2, 121920, Note_on_c, 1, 61, 110
2, 121920, Note_on_c, 1, 64, 110
2, 121931, Control_c, 1, 7, 110
2, 121954, Control_c, 1, 7, 109
2, 121978, Control_c, 1, 7, 108
2, 122001, Control_c, 1, 7, 107
2, 122014, Note_on_c, 1, 57, 0
2, 122014, Note_on_c, 1, 61, 0
2, 122014, Note_on_c, 1, 64, 0
2, 122024, Control_c, 1, 7, 106
2, 122048, Control_c, 1, 7, 105
2, 122071, Control_c, 1, 7, 104
2, 122094, Control_c, 1, 7, 103
2, 122112, Note_on_c, 1, 58, 110
2, 122112, Note_on_c, 1, 62, 110
2, 122112, Note_on_c, 1, 65, 110
2, 122117, Control_c, 1, 7, 102
2, 122141, Control_c, 1, 7, 101
2, 122164, Control_c, 1, 7, 100
2, 122187, Control_c, 1, 7, 99
2, 122206, Note_on_c, 1, 58, 0
2, 122206, Note_on_c, 1, 62, 0
2, 122206, Note_on_c, 1, 65, 0
2, 122210, Control_c, 1, 7, 98
2, 122234, Control_c, 1, 7, 97
2, 122257, Control_c, 1, 7, 96
2, 122280, Control_c, 1, 7, 95
2, 122304, Control_c, 1, 7, 94
2, 122304, Control_c, 1, 7, 94
2, 122304, Note_on_c, 1, 59, 110
2, 122304, Note_on_c, 1, 63, 110
2, 122304, Note_on_c, 1, 66, 110
2, 122358, Control_c, 1, 7, 93
2, 122398, Note_on_c, 1, 59, 0
2, 122398, Note_on_c, 1, 63, 0
2, 122398, Note_on_c, 1, 66, 0
2, 122400, Note_on_c, 1, 59, 110
2, 122400, Note_on_c, 1, 63, 110
2, 122400, Note_on_c, 1, 66, 110
2, 122413, Control_c, 1, 7, 92
2, 122468, Control_c, 1, 7, 91
2, 122494, Note_on_c, 1, 59, 0
2, 122494, Note_on_c, 1, 63, 0
2, 122494, Note_on_c, 1, 66, 0
2, 122523, Control_c, 1, 7, 90
2, 122578, Control_c, 1, 7, 89
2, 122592, Note_on_c, 1, 59, 110
2, 122592, Note_on_c, 1, 63, 110
2, 122592, Note_on_c, 1, 66, 110
2, 122633, Control_c, 1, 7, 88
2, 122686, Note_on_c, 1, 59, 0
2, 122686, Note_on_c, 1, 63, 0
2, 122686, Note_on_c, 1, 66, 0
2, 122688, Control_c, 1, 7, 87
2, 122688, Note_on_c, 1, 59, 110
2, 122688, Note_on_c, 1, 63, 110
2, 122688, Note_on_c, 1, 66, 110
2, 122742, Control_c, 1, 7, 86
2, 122782, Note_on_c, 1, 59, 0
2, 122782, Note_on_c, 1, 63, 0
2, 122782, Note_on_c, 1, 66, 0
2, 122784, Note_on_c, 1, 59, 110
2, 122784, Note_on_c, 1, 63, 110
2, 122784, Note_on_c, 1, 66, 110
2, 122797, Control_c, 1, 7, 85
2, 122852, Control_c, 1, 7, 84
2, 122878, Note_on_c, 1, 59, 0
2, 122878, Note_on_c, 1, 63, 0
2, 122878, Note_on_c, 1, 66, 0
2, 122907, Control_c, 1, 7, 83
2, 122962, Control_c, 1, 7, 82
2, 122976, Note_on_c, 1, 59, 110
2, 122976, Note_on_c, 1, 63, 110
2, 122976, Note_on_c, 1, 66, 110
2, 123017, Control_c, 1, 7, 81
2, 123070, Note_on_c, 1, 59, 0
2, 123070, Note_on_c, 1, 63, 0
2, 123070, Note_on_c, 1, 66, 0
2, 123072, Control_c, 1, 7, 80
2, 123072, Control_c, 1, 7, 80
2, 123072, Note_on_c, 1, 59, 110
2, 123072, Note_on_c, 1, 63, 110
2, 123072, Note_on_c, 1, 66, 110
2, 123097, Control_c, 1, 7, 79
2, 123123, Control_c, 1, 7, 78
2, 123148, Control_c, 1, 7, 77
2, 123166, Note_on_c, 1, 59, 0
2, 123166, Note_on_c, 1, 63, 0
2, 123166, Note_on_c, 1, 66, 0
2, 123168, Note_on_c, 1, 59, 110
2, 123168, Note_on_c, 1, 63, 110
2, 123168, Note_on_c, 1, 66, 110
2, 123174, Control_c, 1, 7, 76
2, 123200, Control_c, 1, 7, 75
2, 123225, Control_c, 1, 7, 74
2, 123251, Control_c, 1, 7, 73
2, 123262, Note_on_c, 1, 59, 0
2, 123262, Note_on_c, 1, 63, 0
2, 123262, Note_on_c, 1, 66, 0
2, 123276, Control_c, 1, 7, 72
2, 123302, Control_c, 1, 7, 71
2, 123328, Control_c, 1, 7, 70
2, 123353, Control_c, 1, 7, 69
2, 123360, Note_on_c, 1, 59, 110
2, 123360, Note_on_c, 1, 63, 110
2, 123360, Note_on_c, 1, 66, 110
2, 123379, Control_c, 1, 7, 68
2, 123404, Control_c, 1, 7, 67
2, 123430, Control_c, 1, 7, 66
2, 123454, Note_on_c, 1, 59, 0
2, 123454, Note_on_c, 1, 63, 0
2, 123454, Note_on_c, 1, 66, 0
2, 123456, Control_c, 1, 7, 65
2, 123456, Note_on_c, 1, 59, 110
2, 123456, Note_on_c, 1, 63, 110
2, 123456, Note_on_c, 1, 66, 110
2, 123481, Control_c, 1, 7, 64
2, 123507, Control_c, 1, 7, 63
2, 123532, Control_c, 1, 7, 62
2, 123550, Note_on_c, 1, 59, 0
2, 123550, Note_on_c, 1, 63, 0
2, 123550, Note_on_c, 1, 66, 0
2, 123552, Note_on_c, 1, 59, 110
2, 123552, Note_on_c, 1, 63, 110
2, 123552, Note_on_c, 1, 66, 110
2, 123558, Control_c, 1, 7, 61
2, 123584, Control_c, 1, 7, 60
2, 123609, Control_c, 1, 7, 59
2, 123635, Control_c, 1, 7, 58
2, 123646, Note_on_c, 1, 59, 0
2, 123646, Note_on_c, 1, 63, 0
2, 123646, Note_on_c, 1, 66, 0
2, 123648, Note_on_c, 1, 59, 110
2, 123648, Note_on_c, 1, 63, 110
2, 123648, Note_on_c, 1, 66, 110
2, 123660, Control_c, 1, 7, 57
2, 123686, Control_c, 1, 7, 56
2, 123712, Control_c, 1, 7, 55
2, 123737, Control_c, 1, 7, 54
2, 123742, Note_on_c, 1, 59, 0
2, 123742, Note_on_c, 1, 63, 0
2, 123742, Note_on_c, 1, 66, 0
2, 123763, Control_c, 1, 7, 53
2, 123788, Control_c, 1, 7, 52
2, 123814, Control_c, 1, 7, 51
2, 123840, Control_c, 1, 7, 50
2, 123840, Control_c, 1, 7, 50
2, 123840, Note_on_c, 1, 62, 110
2, 123840, Note_on_c, 1, 66, 110
2, 123840, Note_on_c, 1, 69, 110
2, 123878, Control_c, 1, 7, 49
2, 123916, Control_c, 1, 7, 48
2, 123934, Note_on_c, 1, 62, 0
2, 123934, Note_on_c, 1, 66, 0
2, 123934, Note_on_c, 1, 69, 0
2, 123936, Note_on_c, 1, 62, 110
2, 123936, Note_on_c, 1, 66, 110
2, 123936, Note_on_c, 1, 69, 110
2, 123955, Control_c, 1, 7, 47
2, 123993, Control_c, 1, 7, 46
2, 124030, Note_on_c, 1, 62, 0
2, 124030, Note_on_c, 1, 66, 0
2, 124030, Note_on_c, 1, 69, 0
2, 124032, Control_c, 1, 7, 45
2, 124070, Control_c, 1, 7, 44
2, 124108, Control_c, 1, 7, 43
2, 124128, Note_on_c, 1, 62, 110
2, 124128, Note_on_c, 1, 66, 110
2, 124128, Note_on_c, 1, 69, 110
2, 124147, Control_c, 1, 7, 42
2, 124185, Control_c, 1, 7, 41
2, 124222, Note_on_c, 1, 62, 0
2, 124222, Note_on_c, 1, 66, 0
2, 124222, Note_on_c, 1, 69, 0
2, 124224, Control_c, 1, 7, 40
2, 124224, Note_on_c, 1, 62, 110
2, 124224, Note_on_c, 1, 66, 110
2, 124224, Note_on_c, 1, 69, 110
2, 124262, Control_c, 1, 7, 39
2, 124300, Control_c, 1, 7, 38
2, 124318, Note_on_c, 1, 62, 0
2, 124318, Note_on_c, 1, 66, 0
2, 124318, Note_on_c, 1, 69, 0
2, 124320, Note_on_c, 1, 62, 110
2, 124320, Note_on_c, 1, 66, 110
2, 124320, Note_on_c, 1, 69, 110
2, 124339, Control_c, 1, 7, 37
2, 124377, Control_c, 1, 7, 36
2, 124414, Note_on_c, 1, 62, 0
2, 124414, Note_on_c, 1, 66, 0
2, 124414, Note_on_c, 1, 69, 0
2, 124416, Control_c, 1, 7, 35
2, 124454, Control_c, 1, 7, 34
2, 124492, Control_c, 1, 7, 33
2, 124512, Note_on_c, 1, 62, 110
2, 124512, Note_on_c, 1, 66, 110
2, 124512, Note_on_c, 1, 69, 110
2, 124531, Control_c, 1, 7, 32
2, 124569, Control_c, 1, 7, 31
2, 124606, Note_on_c, 1, 62, 0
2, 124606, Note_on_c, 1, 66, 0
2, 124606, Note_on_c, 1, 69, 0
2, 124608, Control_c, 1, 7, 30
2, 124608, Control_c, 1, 7, 30
2, 124608, Note_on_c, 1, 62, 110
2, 124608, Note_on_c, 1, 66, 110
2, 124608, Note_on_c, 1, 69, 110
2, 124650, Control_c, 1, 7, 29
2, 124693, Control_c, 1, 7, 28
2, 124702, Note_on_c, 1, 62, 0
2, 124702, Note_on_c, 1, 66, 0
2, 124702, Note_on_c, 1, 69, 0
2, 124704, Note_on_c, 1, 62, 110
2, 124704, Note_on_c, 1, 66, 110
2, 124704, Note_on_c, 1, 69, 110
2, 124736, Control_c, 1, 7, 27
2, 124778, Control_c, 1, 7, 26
2, 124798, Note_on_c, 1, 62, 0
2, 124798, Note_on_c, 1, 66, 0
2, 124798, Note_on_c, 1, 69, 0
2, 124821, Control_c, 1, 7, 25
2, 124864, Control_c, 1, 7, 24
2, 124896, Note_on_c, 1, 62, 110
2, 124896, Note_on_c, 1, 66, 110
2, 124896, Note_on_c, 1, 69, 110
2, 124906, Control_c, 1, 7, 23
2, 124949, Control_c, 1, 7, 22
2, 124990, Note_on_c, 1, 62, 0
2, 124990, Note_on_c, 1, 66, 0
2, 124990, Note_on_c, 1, 69, 0
2, 124992, Control_c, 1, 7, 21
2, 124992, Note_on_c, 1, 62, 110
2, 124992, Note_on_c, 1, 66, 110
2, 124992, Note_on_c, 1, 69, 110
2, 125034, Control_c, 1, 7, 20
2, 125077, Control_c, 1, 7, 19
2, 125086, Note_on_c, 1, 62, 0
2, 125086, Note_on_c, 1, 66, 0
2, 125086, Note_on_c, 1, 69, 0
2, 125088, Note_on_c, 1, 62, 110
2, 125088, Note_on_c, 1, 66, 110
2, 125088, Note_on_c, 1, 69, 110
2, 125120, Control_c, 1, 7, 18
2, 125162, Control_c, 1, 7, 17
2, 125182, Note_on_c, 1, 62, 0
2, 125182, Note_on_c, 1, 66, 0
2, 125182, Note_on_c, 1, 69, 0
2, 125184, Note_on_c, 1, 62, 110
2, 125184, Note_on_c, 1, 66, 110
2, 125184, Note_on_c, 1, 69, 110
2, 125205, Control_c, 1, 7, 16
2, 125248, Control_c, 1, 7, 15
2, 125278, Note_on_c, 1, 62, 0
2, 125278, Note_on_c, 1, 66, 0
2, 125278, Note_on_c, 1, 69, 0
2, 125290, Control_c, 1, 7, 14
2, 125333, Control_c, 1, 7, 13
2, 125376, Control_c, 1, 7, 12
2, 125376, Control_c, 1, 7, 12
2, 125376, Note_on_c, 1, 57, 110
2, 125376, Note_on_c, 1, 61, 110
2, 125376, Note_on_c, 1, 64, 110
2, 125440, Control_c, 1, 7, 11
2, 125470, Note_on_c, 1, 57, 0
2, 125470, Note_on_c, 1, 61, 0
2, 125470, Note_on_c, 1, 64, 0
2, 125472, Note_on_c, 1, 57, 110
2, 125472, Note_on_c, 1, 61, 110
2, 125472, Note_on_c, 1, 64, 110
2, 125504, Control_c, 1, 7, 10
2, 125566, Note_on_c, 1, 57, 0
2, 125566, Note_on_c, 1, 61, 0
2, 125566, Note_on_c, 1, 64, 0
2, 125568, Control_c, 1, 7, 9
2, 125632, Control_c, 1, 7, 8
2, 125664, Note_on_c, 1, 57, 110
2, 125664, Note_on_c, 1, 61, 110
2, 125664, Note_on_c, 1, 64, 110
2, 125696, Control_c, 1, 7, 7
2, 125758, Note_on_c, 1, 57, 0
2, 125758, Note_on_c, 1, 61, 0
2, 125758, Note_on_c, 1, 64, 0
2, 125760, Control_c, 1, 7, 6
2, 125760, Note_on_c, 1, 57, 110
2, 125760, Note_on_c, 1, 61, 110
2, 125760, Note_on_c, 1, 64, 110
2, 125824, Control_c, 1, 7, 5
2, 125854, Note_on_c, 1, 57, 0
2, 125854, Note_on_c, 1, 61, 0
2, 125854, Note_on_c, 1, 64, 0
2, 125856, Note_on_c, 1, 57, 110
2, 125856, Note_on_c, 1, 61, 110
2, 125856, Note_on_c, 1, 64, 110
2, 125888, Control_c, 1, 7, 4
2, 125950, Note_on_c, 1, 57, 0
2, 125950, Note_on_c, 1, 61, 0
2, 125950, Note_on_c, 1, 64, 0
2, 125952, Control_c, 1, 7, 3
2, 126016, Control_c, 1, 7, 2
2, 126048, Note_on_c, 1, 57, 110
2, 126048, Note_on_c, 1, 61, 110
2, 126048, Note_on_c, 1, 64, 110
2, 126080, Control_c, 1, 7, 1
2, 126142, Note_on_c, 1, 57, 0
2, 126142, Note_on_c, 1, 61, 0
2, 126142, Note_on_c, 1, 64, 0
2, 126144, Control_c, 1, 7, 0
2, 126144, Note_on_c, 1, 57, 110
2, 126144, Note_on_c, 1, 61, 110
2, 126144, Note_on_c, 1, 64, 110
2, 126238, Note_on_c, 1, 57, 0
2, 126238, Note_on_c, 1, 61, 0
2, 126238, Note_on_c, 1, 64, 0
2, 126240, Note_on_c, 1, 57, 110
2, 126240, Note_on_c, 1, 61, 110
2, 126240, Note_on_c, 1, 64, 110
2, 126334, Note_on_c, 1, 57, 0
2, 126334, Note_on_c, 1, 61, 0
2, 126334, Note_on_c, 1, 64, 0
2, 126432, Note_on_c, 1, 57, 110
2, 126432, Note_on_c, 1, 61, 110
2, 126432, Note_on_c, 1, 64, 110
2, 126526, Note_on_c, 1, 57, 0
2, 126526, Note_on_c, 1, 61, 0
2, 126526, Note_on_c, 1, 64, 0
2, 126528, Note_on_c, 1, 57, 110
2, 126528, Note_on_c, 1, 61, 110
2, 126528, Note_on_c, 1, 64, 110
2, 126622, Note_on_c, 1, 57, 0
2, 126622, Note_on_c, 1, 61, 0
2, 126622, Note_on_c, 1, 64, 0
2, 126720, Note_on_c, 1, 58, 110
2, 126720, Note_on_c, 1, 62, 110
2, 126720, Note_on_c, 1, 65, 110
2, 126814, Note_on_c, 1, 58, 0
2, 126814, Note_on_c, 1, 62, 0
2, 126814, Note_on_c, 1, 65, 0
2, 126814, End_track
3, 0, Start_track
3, 0, MIDI_port, 0
3, 0, Title_t, "Staff-2"
3, 0, Program_c, 9, 0
3, 0, Control_c, 9, 7, 127
3, 0, Control_c, 9, 10, 64
3, 5184, Note_on_c, 9, 45, 110
3, 5326, Note_on_c, 9, 45, 0
3, 5328, Note_on_c, 9, 38, 110
3, 5374, Note_on_c, 9, 38, 0
3, 5376, Note_on_c, 9, 38, 110
3, 5422, Note_on_c, 9, 38, 0
3, 5424, Note_on_c, 9, 38, 110
3, 5470, Note_on_c, 9, 38, 0
3, 5472, Note_on_c, 9, 45, 110
3, 5566, Note_on_c, 9, 45, 0
3, 5568, Note_on_c, 9, 35, 110
3, 5568, Note_on_c, 9, 42, 110
3, 5568, Note_on_c, 9, 57, 110
3, 5662, Note_on_c, 9, 35, 0
3, 5662, Note_on_c, 9, 42, 0
3, 5662, Note_on_c, 9, 57, 0
3, 5664, Note_on_c, 9, 35, 110
3, 5664, Note_on_c, 9, 42, 110
3, 5758, Note_on_c, 9, 35, 0
3, 5758, Note_on_c, 9, 42, 0
3, 5760, Note_on_c, 9, 38, 110
3, 5760, Note_on_c, 9, 42, 110
3, 5854, Note_on_c, 9, 38, 0
3, 5854, Note_on_c, 9, 42, 0
3, 5856, Note_on_c, 9, 42, 110
3, 5950, Note_on_c, 9, 42, 0
3, 5952, Note_on_c, 9, 35, 110
3, 5952, Note_on_c, 9, 42, 110
3, 6046, Note_on_c, 9, 35, 0
3, 6046, Note_on_c, 9, 42, 0
3, 6048, Note_on_c, 9, 35, 110
3, 6048, Note_on_c, 9, 42, 110
3, 6142, Note_on_c, 9, 35, 0
3, 6142, Note_on_c, 9, 42, 0
3, 6144, Note_on_c, 9, 38, 110
3, 6144, Note_on_c, 9, 42, 110
3, 6238, Note_on_c, 9, 38, 0
3, 6238, Note_on_c, 9, 42, 0
3, 6240, Note_on_c, 9, 42, 110
3, 6334, Note_on_c, 9, 42, 0
3, 6336, Note_on_c, 9, 35, 110
3, 6336, Note_on_c, 9, 42, 110
3, 6430, Note_on_c, 9, 35, 0
3, 6430, Note_on_c, 9, 42, 0
3, 6432, Note_on_c, 9, 35, 110
3, 6432, Note_on_c, 9, 42, 110
3, 6526, Note_on_c, 9, 35, 0
3, 6526, Note_on_c, 9, 42, 0
3, 6528, Note_on_c, 9, 38, 110
3, 6528, Note_on_c, 9, 42, 110
3, 6622, Note_on_c, 9, 38, 0
3, 6622, Note_on_c, 9, 42, 0
3, 6624, Note_on_c, 9, 42, 110
3, 6718, Note_on_c, 9, 42, 0
3, 6720, Note_on_c, 9, 35, 110
3, 6720, Note_on_c, 9, 42, 110
3, 6814, Note_on_c, 9, 35, 0
3, 6814, Note_on_c, 9, 42, 0
3, 6816, Note_on_c, 9, 35, 110
3, 6816, Note_on_c, 9, 42, 110
3, 6910, Note_on_c, 9, 35, 0
3, 6910, Note_on_c, 9, 42, 0
3, 6912, Note_on_c, 9, 38, 110
3, 6912, Note_on_c, 9, 42, 110
3, 7006, Note_on_c, 9, 38, 0
3, 7006, Note_on_c, 9, 42, 0
3, 7008, Note_on_c, 9, 37, 110
3, 7008, Note_on_c, 9, 42, 110
3, 7054, Note_on_c, 9, 37, 0
3, 7054, Note_on_c, 9, 42, 0
3, 7056, Note_on_c, 9, 37, 110
3, 7102, Note_on_c, 9, 37, 0
3, 7104, Note_on_c, 9, 35, 110
3, 7104, Note_on_c, 9, 42, 110
3, 7198, Note_on_c, 9, 35, 0
3, 7198, Note_on_c, 9, 42, 0
3, 7200, Note_on_c, 9, 35, 110
3, 7200, Note_on_c, 9, 42, 110
3, 7294, Note_on_c, 9, 35, 0
3, 7294, Note_on_c, 9, 42, 0
3, 7296, Note_on_c, 9, 38, 110
3, 7296, Note_on_c, 9, 42, 110
3, 7390, Note_on_c, 9, 38, 0
3, 7390, Note_on_c, 9, 42, 0
3, 7392, Note_on_c, 9, 42, 110
3, 7486, Note_on_c, 9, 42, 0
3, 7488, Note_on_c, 9, 35, 110
3, 7488, Note_on_c, 9, 42, 110
3, 7582, Note_on_c, 9, 35, 0
3, 7582, Note_on_c, 9, 42, 0
3, 7584, Note_on_c, 9, 35, 110
3, 7584, Note_on_c, 9, 42, 110
3, 7678, Note_on_c, 9, 35, 0
3, 7678, Note_on_c, 9, 42, 0
3, 7680, Note_on_c, 9, 38, 110
3, 7680, Note_on_c, 9, 42, 110
3, 7774, Note_on_c, 9, 38, 0
3, 7774, Note_on_c, 9, 42, 0
3, 7776, Note_on_c, 9, 37, 110
3, 7776, Note_on_c, 9, 42, 110
3, 7822, Note_on_c, 9, 37, 0
3, 7822, Note_on_c, 9, 42, 0
3, 7824, Note_on_c, 9, 37, 110
3, 7870, Note_on_c, 9, 37, 0
3, 7872, Note_on_c, 9, 35, 110
3, 7872, Note_on_c, 9, 42, 110
3, 7966, Note_on_c, 9, 35, 0
3, 7966, Note_on_c, 9, 42, 0
3, 7968, Note_on_c, 9, 35, 110
3, 7968, Note_on_c, 9, 42, 110
3, 8062, Note_on_c, 9, 35, 0
3, 8062, Note_on_c, 9, 42, 0
3, 8064, Note_on_c, 9, 38, 110
3, 8064, Note_on_c, 9, 42, 110
3, 8158, Note_on_c, 9, 38, 0
3, 8158, Note_on_c, 9, 42, 0
3, 8160, Note_on_c, 9, 42, 110
3, 8254, Note_on_c, 9, 42, 0
3, 8256, Note_on_c, 9, 35, 110
3, 8256, Note_on_c, 9, 42, 110
3, 8350, Note_on_c, 9, 35, 0
3, 8350, Note_on_c, 9, 42, 0
3, 8352, Note_on_c, 9, 35, 110
3, 8352, Note_on_c, 9, 42, 110
3, 8446, Note_on_c, 9, 35, 0
3, 8446, Note_on_c, 9, 42, 0
3, 8448, Note_on_c, 9, 38, 110
3, 8448, Note_on_c, 9, 42, 110
3, 8542, Note_on_c, 9, 38, 0
3, 8542, Note_on_c, 9, 42, 0
3, 8544, Note_on_c, 9, 42, 110
3, 8638, Note_on_c, 9, 42, 0
3, 8640, Note_on_c, 9, 35, 110
3, 8640, Note_on_c, 9, 42, 110
3, 8734, Note_on_c, 9, 35, 0
3, 8734, Note_on_c, 9, 42, 0
3, 8736, Note_on_c, 9, 35, 110
3, 8736, Note_on_c, 9, 42, 110
3, 8830, Note_on_c, 9, 35, 0
3, 8830, Note_on_c, 9, 42, 0
3, 8832, Note_on_c, 9, 38, 110
3, 8832, Note_on_c, 9, 42, 110
3, 8926, Note_on_c, 9, 38, 0
3, 8926, Note_on_c, 9, 42, 0
3, 8928, Note_on_c, 9, 42, 110
3, 9022, Note_on_c, 9, 42, 0
3, 9024, Note_on_c, 9, 35, 110
3, 9024, Note_on_c, 9, 42, 110
3, 9118, Note_on_c, 9, 35, 0
3, 9118, Note_on_c, 9, 42, 0
3, 9120, Note_on_c, 9, 35, 110
3, 9120, Note_on_c, 9, 42, 110
3, 9214, Note_on_c, 9, 35, 0
3, 9214, Note_on_c, 9, 42, 0
3, 9216, Note_on_c, 9, 38, 110
3, 9216, Note_on_c, 9, 42, 110
3, 9310, Note_on_c, 9, 38, 0
3, 9310, Note_on_c, 9, 42, 0
3, 9312, Note_on_c, 9, 42, 110
3, 9406, Note_on_c, 9, 42, 0
3, 9408, Note_on_c, 9, 35, 110
3, 9408, Note_on_c, 9, 42, 110
3, 9502, Note_on_c, 9, 35, 0
3, 9502, Note_on_c, 9, 42, 0
3, 9504, Note_on_c, 9, 35, 110
3, 9504, Note_on_c, 9, 42, 110
3, 9598, Note_on_c, 9, 35, 0
3, 9598, Note_on_c, 9, 42, 0
3, 9600, Note_on_c, 9, 38, 110
3, 9600, Note_on_c, 9, 42, 110
3, 9694, Note_on_c, 9, 38, 0
3, 9694, Note_on_c, 9, 42, 0
3, 9696, Note_on_c, 9, 42, 110
3, 9790, Note_on_c, 9, 42, 0
3, 9792, Note_on_c, 9, 35, 110
3, 9792, Note_on_c, 9, 42, 110
3, 9886, Note_on_c, 9, 35, 0
3, 9886, Note_on_c, 9, 42, 0
3, 9888, Note_on_c, 9, 35, 110
3, 9888, Note_on_c, 9, 42, 110
3, 9982, Note_on_c, 9, 35, 0
3, 9982, Note_on_c, 9, 42, 0
3, 9984, Note_on_c, 9, 38, 110
3, 9984, Note_on_c, 9, 42, 110
3, 10078, Note_on_c, 9, 38, 0
3, 10078, Note_on_c, 9, 42, 0
3, 10080, Note_on_c, 9, 42, 110
3, 10174, Note_on_c, 9, 42, 0
3, 10176, Note_on_c, 9, 35, 110
3, 10176, Note_on_c, 9, 42, 110
3, 10270, Note_on_c, 9, 35, 0
3, 10270, Note_on_c, 9, 42, 0
3, 10272, Note_on_c, 9, 35, 110
3, 10272, Note_on_c, 9, 42, 110
3, 10366, Note_on_c, 9, 35, 0
3, 10366, Note_on_c, 9, 42, 0
3, 10368, Note_on_c, 9, 38, 110
3, 10368, Note_on_c, 9, 42, 110
3, 10462, Note_on_c, 9, 38, 0
3, 10462, Note_on_c, 9, 42, 0
3, 10464, Note_on_c, 9, 42, 110
3, 10558, Note_on_c, 9, 42, 0
3, 10560, Note_on_c, 9, 35, 110
3, 10560, Note_on_c, 9, 42, 110
3, 10654, Note_on_c, 9, 35, 0
3, 10654, Note_on_c, 9, 42, 0
3, 10656, Note_on_c, 9, 35, 110
3, 10656, Note_on_c, 9, 42, 110
3, 10750, Note_on_c, 9, 35, 0
3, 10750, Note_on_c, 9, 42, 0
3, 10752, Note_on_c, 9, 38, 110
3, 10752, Note_on_c, 9, 42, 110
3, 10846, Note_on_c, 9, 38, 0
3, 10846, Note_on_c, 9, 42, 0
3, 10848, Note_on_c, 9, 42, 110
3, 10942, Note_on_c, 9, 42, 0
3, 10944, Note_on_c, 9, 35, 110
3, 10944, Note_on_c, 9, 42, 110
3, 11038, Note_on_c, 9, 35, 0
3, 11038, Note_on_c, 9, 42, 0
3, 11040, Note_on_c, 9, 35, 110
3, 11040, Note_on_c, 9, 42, 110
3, 11134, Note_on_c, 9, 35, 0
3, 11134, Note_on_c, 9, 42, 0
3, 11136, Note_on_c, 9, 38, 110
3, 11136, Note_on_c, 9, 42, 110
3, 11230, Note_on_c, 9, 38, 0
3, 11230, Note_on_c, 9, 42, 0
3, 11232, Note_on_c, 9, 42, 110
3, 11326, Note_on_c, 9, 42, 0
3, 11328, Note_on_c, 9, 35, 110
3, 11328, Note_on_c, 9, 42, 110
3, 11422, Note_on_c, 9, 35, 0
3, 11422, Note_on_c, 9, 42, 0
3, 11424, Note_on_c, 9, 35, 110
3, 11424, Note_on_c, 9, 42, 110
3, 11518, Note_on_c, 9, 35, 0
3, 11518, Note_on_c, 9, 42, 0
3, 11520, Note_on_c, 9, 38, 110
3, 11520, Note_on_c, 9, 42, 110
3, 11614, Note_on_c, 9, 38, 0
3, 11614, Note_on_c, 9, 42, 0
3, 11616, Note_on_c, 9, 42, 110
3, 11710, Note_on_c, 9, 42, 0
3, 11712, Note_on_c, 9, 35, 110
3, 11712, Note_on_c, 9, 42, 110
3, 11712, Note_on_c, 9, 57, 110
3, 11806, Note_on_c, 9, 35, 0
3, 11806, Note_on_c, 9, 42, 0
3, 11806, Note_on_c, 9, 57, 0
3, 11808, Note_on_c, 9, 35, 110
3, 11808, Note_on_c, 9, 42, 110
3, 11902, Note_on_c, 9, 35, 0
3, 11902, Note_on_c, 9, 42, 0
3, 11904, Note_on_c, 9, 38, 110
3, 11904, Note_on_c, 9, 42, 110
3, 11998, Note_on_c, 9, 38, 0
3, 11998, Note_on_c, 9, 42, 0
3, 12000, Note_on_c, 9, 42, 110
3, 12094, Note_on_c, 9, 42, 0
3, 12096, Note_on_c, 9, 35, 110
3, 12096, Note_on_c, 9, 42, 110
3, 12190, Note_on_c, 9, 35, 0
3, 12190, Note_on_c, 9, 42, 0
3, 12192, Note_on_c, 9, 35, 110
3, 12192, Note_on_c, 9, 42, 110
3, 12286, Note_on_c, 9, 35, 0
3, 12286, Note_on_c, 9, 42, 0
3, 12288, Note_on_c, 9, 38, 110
3, 12288, Note_on_c, 9, 42, 110
3, 12382, Note_on_c, 9, 38, 0
3, 12382, Note_on_c, 9, 42, 0
3, 12384, Note_on_c, 9, 42, 110
3, 12478, Note_on_c, 9, 42, 0
3, 12480, Note_on_c, 9, 35, 110
3, 12480, Note_on_c, 9, 42, 110
3, 12574, Note_on_c, 9, 35, 0
3, 12574, Note_on_c, 9, 42, 0
3, 12576, Note_on_c, 9, 35, 110
3, 12576, Note_on_c, 9, 42, 110
3, 12670, Note_on_c, 9, 35, 0
3, 12670, Note_on_c, 9, 42, 0
3, 12672, Note_on_c, 9, 38, 110
3, 12672, Note_on_c, 9, 42, 110
3, 12766, Note_on_c, 9, 38, 0
3, 12766, Note_on_c, 9, 42, 0
3, 12768, Note_on_c, 9, 42, 110
3, 12862, Note_on_c, 9, 42, 0
3, 12864, Note_on_c, 9, 35, 110
3, 12864, Note_on_c, 9, 42, 110
3, 12958, Note_on_c, 9, 35, 0
3, 12958, Note_on_c, 9, 42, 0
3, 12960, Note_on_c, 9, 35, 110
3, 12960, Note_on_c, 9, 42, 110
3, 13054, Note_on_c, 9, 35, 0
3, 13054, Note_on_c, 9, 42, 0
3, 13056, Note_on_c, 9, 38, 110
3, 13056, Note_on_c, 9, 42, 110
3, 13150, Note_on_c, 9, 38, 0
3, 13150, Note_on_c, 9, 42, 0
3, 13152, Note_on_c, 9, 37, 110
3, 13152, Note_on_c, 9, 42, 110
3, 13198, Note_on_c, 9, 37, 0
3, 13198, Note_on_c, 9, 42, 0
3, 13200, Note_on_c, 9, 37, 110
3, 13246, Note_on_c, 9, 37, 0
3, 13248, Note_on_c, 9, 35, 110
3, 13248, Note_on_c, 9, 42, 110
3, 13342, Note_on_c, 9, 35, 0
3, 13342, Note_on_c, 9, 42, 0
3, 13344, Note_on_c, 9, 35, 110
3, 13344, Note_on_c, 9, 42, 110
3, 13438, Note_on_c, 9, 35, 0
3, 13438, Note_on_c, 9, 42, 0
3, 13440, Note_on_c, 9, 38, 110
3, 13440, Note_on_c, 9, 42, 110
3, 13534, Note_on_c, 9, 38, 0
3, 13534, Note_on_c, 9, 42, 0
3, 13536, Note_on_c, 9, 42, 110
3, 13630, Note_on_c, 9, 42, 0
3, 13632, Note_on_c, 9, 35, 110
3, 13632, Note_on_c, 9, 42, 110
3, 13726, Note_on_c, 9, 35, 0
3, 13726, Note_on_c, 9, 42, 0
3, 13728, Note_on_c, 9, 35, 110
3, 13728, Note_on_c, 9, 42, 110
3, 13822, Note_on_c, 9, 35, 0
3, 13822, Note_on_c, 9, 42, 0
3, 13824, Note_on_c, 9, 38, 110
3, 13824, Note_on_c, 9, 42, 110
3, 13918, Note_on_c, 9, 38, 0
3, 13918, Note_on_c, 9, 42, 0
3, 13920, Note_on_c, 9, 37, 110
3, 13920, Note_on_c, 9, 42, 110
3, 13966, Note_on_c, 9, 37, 0
3, 13966, Note_on_c, 9, 42, 0
3, 13968, Note_on_c, 9, 37, 110
3, 14014, Note_on_c, 9, 37, 0
3, 14016, Note_on_c, 9, 35, 110
3, 14016, Note_on_c, 9, 42, 110
3, 14110, Note_on_c, 9, 35, 0
3, 14110, Note_on_c, 9, 42, 0
3, 14112, Note_on_c, 9, 35, 110
3, 14112, Note_on_c, 9, 42, 110
3, 14206, Note_on_c, 9, 35, 0
3, 14206, Note_on_c, 9, 42, 0
3, 14208, Note_on_c, 9, 38, 110
3, 14208, Note_on_c, 9, 42, 110
3, 14302, Note_on_c, 9, 38, 0
3, 14302, Note_on_c, 9, 42, 0
3, 14304, Note_on_c, 9, 42, 110
3, 14398, Note_on_c, 9, 42, 0
3, 14400, Note_on_c, 9, 35, 110
3, 14400, Note_on_c, 9, 42, 110
3, 14494, Note_on_c, 9, 35, 0
3, 14494, Note_on_c, 9, 42, 0
3, 14496, Note_on_c, 9, 35, 110
3, 14496, Note_on_c, 9, 42, 110
3, 14590, Note_on_c, 9, 35, 0
3, 14590, Note_on_c, 9, 42, 0
3, 14592, Note_on_c, 9, 38, 110
3, 14592, Note_on_c, 9, 42, 110
3, 14686, Note_on_c, 9, 38, 0
3, 14686, Note_on_c, 9, 42, 0
3, 14688, Note_on_c, 9, 42, 110
3, 14782, Note_on_c, 9, 42, 0
3, 14784, Note_on_c, 9, 35, 110
3, 14784, Note_on_c, 9, 42, 110
3, 14878, Note_on_c, 9, 35, 0
3, 14878, Note_on_c, 9, 42, 0
3, 14880, Note_on_c, 9, 35, 110
3, 14880, Note_on_c, 9, 42, 110
3, 14974, Note_on_c, 9, 35, 0
3, 14974, Note_on_c, 9, 42, 0
3, 14976, Note_on_c, 9, 38, 110
3, 14976, Note_on_c, 9, 42, 110
3, 15070, Note_on_c, 9, 38, 0
3, 15070, Note_on_c, 9, 42, 0
3, 15072, Note_on_c, 9, 42, 110
3, 15166, Note_on_c, 9, 42, 0
3, 15168, Note_on_c, 9, 35, 110
3, 15168, Note_on_c, 9, 42, 110
3, 15262, Note_on_c, 9, 35, 0
3, 15262, Note_on_c, 9, 42, 0
3, 15264, Note_on_c, 9, 35, 110
3, 15264, Note_on_c, 9, 42, 110
3, 15358, Note_on_c, 9, 35, 0
3, 15358, Note_on_c, 9, 42, 0
3, 15360, Note_on_c, 9, 38, 110
3, 15360, Note_on_c, 9, 42, 110
3, 15454, Note_on_c, 9, 38, 0
3, 15454, Note_on_c, 9, 42, 0
3, 15456, Note_on_c, 9, 42, 110
3, 15550, Note_on_c, 9, 42, 0
3, 15552, Note_on_c, 9, 35, 110
3, 15552, Note_on_c, 9, 42, 110
3, 15646, Note_on_c, 9, 35, 0
3, 15646, Note_on_c, 9, 42, 0
3, 15648, Note_on_c, 9, 35, 110
3, 15648, Note_on_c, 9, 42, 110
3, 15742, Note_on_c, 9, 35, 0
3, 15742, Note_on_c, 9, 42, 0
3, 15744, Note_on_c, 9, 38, 110
3, 15744, Note_on_c, 9, 42, 110
3, 15838, Note_on_c, 9, 38, 0
3, 15838, Note_on_c, 9, 42, 0
3, 15840, Note_on_c, 9, 42, 110
3, 15934, Note_on_c, 9, 42, 0
3, 15936, Note_on_c, 9, 35, 110
3, 15936, Note_on_c, 9, 42, 110
3, 16030, Note_on_c, 9, 35, 0
3, 16030, Note_on_c, 9, 42, 0
3, 16032, Note_on_c, 9, 35, 110
3, 16032, Note_on_c, 9, 42, 110
3, 16126, Note_on_c, 9, 35, 0
3, 16126, Note_on_c, 9, 42, 0
3, 16128, Note_on_c, 9, 38, 110
3, 16128, Note_on_c, 9, 42, 110
3, 16222, Note_on_c, 9, 38, 0
3, 16222, Note_on_c, 9, 42, 0
3, 16224, Note_on_c, 9, 42, 110
3, 16318, Note_on_c, 9, 42, 0
3, 16320, Note_on_c, 9, 35, 110
3, 16320, Note_on_c, 9, 42, 110
3, 16414, Note_on_c, 9, 35, 0
3, 16414, Note_on_c, 9, 42, 0
3, 16416, Note_on_c, 9, 35, 110
3, 16416, Note_on_c, 9, 42, 110
3, 16510, Note_on_c, 9, 35, 0
3, 16510, Note_on_c, 9, 42, 0
3, 16512, Note_on_c, 9, 38, 110
3, 16512, Note_on_c, 9, 42, 110
3, 16606, Note_on_c, 9, 38, 0
3, 16606, Note_on_c, 9, 42, 0
3, 16608, Note_on_c, 9, 42, 110
3, 16702, Note_on_c, 9, 42, 0
3, 16704, Note_on_c, 9, 35, 110
3, 16704, Note_on_c, 9, 42, 110
3, 16798, Note_on_c, 9, 35, 0
3, 16798, Note_on_c, 9, 42, 0
3, 16800, Note_on_c, 9, 35, 110
3, 16800, Note_on_c, 9, 42, 110
3, 16894, Note_on_c, 9, 35, 0
3, 16894, Note_on_c, 9, 42, 0
3, 16896, Note_on_c, 9, 38, 110
3, 16896, Note_on_c, 9, 42, 110
3, 16990, Note_on_c, 9, 38, 0
3, 16990, Note_on_c, 9, 42, 0
3, 16992, Note_on_c, 9, 42, 110
3, 17086, Note_on_c, 9, 42, 0
3, 17088, Note_on_c, 9, 35, 110
3, 17088, Note_on_c, 9, 42, 110
3, 17182, Note_on_c, 9, 35, 0
3, 17182, Note_on_c, 9, 42, 0
3, 17184, Note_on_c, 9, 35, 110
3, 17184, Note_on_c, 9, 42, 110
3, 17278, Note_on_c, 9, 35, 0
3, 17278, Note_on_c, 9, 42, 0
3, 17280, Note_on_c, 9, 38, 110
3, 17280, Note_on_c, 9, 42, 110
3, 17374, Note_on_c, 9, 38, 0
3, 17374, Note_on_c, 9, 42, 0
3, 17376, Note_on_c, 9, 42, 110
3, 17470, Note_on_c, 9, 42, 0
3, 17472, Note_on_c, 9, 35, 110
3, 17472, Note_on_c, 9, 42, 110
3, 17566, Note_on_c, 9, 35, 0
3, 17566, Note_on_c, 9, 42, 0
3, 17568, Note_on_c, 9, 35, 110
3, 17568, Note_on_c, 9, 42, 110
3, 17662, Note_on_c, 9, 35, 0
3, 17662, Note_on_c, 9, 42, 0
3, 17664, Note_on_c, 9, 38, 110
3, 17664, Note_on_c, 9, 42, 110
3, 17758, Note_on_c, 9, 38, 0
3, 17758, Note_on_c, 9, 42, 0
3, 17760, Note_on_c, 9, 42, 110
3, 17854, Note_on_c, 9, 42, 0
3, 17856, Note_on_c, 9, 35, 110
3, 17856, Note_on_c, 9, 42, 110
3, 17950, Note_on_c, 9, 35, 0
3, 17950, Note_on_c, 9, 42, 0
3, 17952, Note_on_c, 9, 35, 110
3, 17952, Note_on_c, 9, 42, 110
3, 18046, Note_on_c, 9, 35, 0
3, 18046, Note_on_c, 9, 42, 0
3, 18048, Note_on_c, 9, 38, 110
3, 18048, Note_on_c, 9, 42, 110
3, 18142, Note_on_c, 9, 38, 0
3, 18142, Note_on_c, 9, 42, 0
3, 18144, Note_on_c, 9, 42, 110
3, 18238, Note_on_c, 9, 42, 0
3, 18240, Note_on_c, 9, 35, 110
3, 18240, Note_on_c, 9, 42, 110
3, 18334, Note_on_c, 9, 35, 0
3, 18334, Note_on_c, 9, 42, 0
3, 18336, Note_on_c, 9, 35, 110
3, 18336, Note_on_c, 9, 42, 110
3, 18430, Note_on_c, 9, 35, 0
3, 18430, Note_on_c, 9, 42, 0
3, 18432, Note_on_c, 9, 38, 110
3, 18432, Note_on_c, 9, 42, 110
3, 18526, Note_on_c, 9, 38, 0
3, 18526, Note_on_c, 9, 42, 0
3, 18528, Note_on_c, 9, 42, 110
3, 18622, Note_on_c, 9, 42, 0
3, 18624, Note_on_c, 9, 35, 110
3, 18624, Note_on_c, 9, 42, 110
3, 18718, Note_on_c, 9, 35, 0
3, 18718, Note_on_c, 9, 42, 0
3, 18720, Note_on_c, 9, 35, 110
3, 18720, Note_on_c, 9, 42, 110
3, 18814, Note_on_c, 9, 35, 0
3, 18814, Note_on_c, 9, 42, 0
3, 18816, Note_on_c, 9, 38, 110
3, 18816, Note_on_c, 9, 42, 110
3, 18910, Note_on_c, 9, 38, 0
3, 18910, Note_on_c, 9, 42, 0
3, 18912, Note_on_c, 9, 42, 110
3, 19006, Note_on_c, 9, 42, 0
3, 19008, Note_on_c, 9, 35, 110
3, 19008, Note_on_c, 9, 42, 110
3, 19102, Note_on_c, 9, 35, 0
3, 19102, Note_on_c, 9, 42, 0
3, 19104, Note_on_c, 9, 35, 110
3, 19104, Note_on_c, 9, 42, 110
3, 19198, Note_on_c, 9, 35, 0
3, 19198, Note_on_c, 9, 42, 0
3, 19200, Note_on_c, 9, 38, 110
3, 19200, Note_on_c, 9, 42, 110
3, 19294, Note_on_c, 9, 38, 0
3, 19294, Note_on_c, 9, 42, 0
3, 19296, Note_on_c, 9, 37, 110
3, 19296, Note_on_c, 9, 42, 110
3, 19342, Note_on_c, 9, 37, 0
3, 19342, Note_on_c, 9, 42, 0
3, 19344, Note_on_c, 9, 37, 110
3, 19390, Note_on_c, 9, 37, 0
3, 19392, Note_on_c, 9, 35, 110
3, 19392, Note_on_c, 9, 42, 110
3, 19486, Note_on_c, 9, 35, 0
3, 19486, Note_on_c, 9, 42, 0
3, 19488, Note_on_c, 9, 35, 110
3, 19488, Note_on_c, 9, 42, 110
3, 19582, Note_on_c, 9, 35, 0
3, 19582, Note_on_c, 9, 42, 0
3, 19584, Note_on_c, 9, 38, 110
3, 19584, Note_on_c, 9, 42, 110
3, 19678, Note_on_c, 9, 38, 0
3, 19678, Note_on_c, 9, 42, 0
3, 19680, Note_on_c, 9, 42, 110
3, 19774, Note_on_c, 9, 42, 0
3, 19776, Note_on_c, 9, 35, 110
3, 19776, Note_on_c, 9, 42, 110
3, 19870, Note_on_c, 9, 35, 0
3, 19870, Note_on_c, 9, 42, 0
3, 19872, Note_on_c, 9, 35, 110
3, 19872, Note_on_c, 9, 42, 110
3, 19966, Note_on_c, 9, 35, 0
3, 19966, Note_on_c, 9, 42, 0
3, 19968, Note_on_c, 9, 38, 110
3, 19968, Note_on_c, 9, 42, 110
3, 20062, Note_on_c, 9, 38, 0
3, 20062, Note_on_c, 9, 42, 0
3, 20064, Note_on_c, 9, 37, 110
3, 20064, Note_on_c, 9, 42, 110
3, 20110, Note_on_c, 9, 37, 0
3, 20110, Note_on_c, 9, 42, 0
3, 20112, Note_on_c, 9, 37, 110
3, 20158, Note_on_c, 9, 37, 0
3, 20160, Note_on_c, 9, 35, 110
3, 20160, Note_on_c, 9, 42, 110
3, 20254, Note_on_c, 9, 35, 0
3, 20254, Note_on_c, 9, 42, 0
3, 20256, Note_on_c, 9, 35, 110
3, 20256, Note_on_c, 9, 42, 110
3, 20350, Note_on_c, 9, 35, 0
3, 20350, Note_on_c, 9, 42, 0
3, 20352, Note_on_c, 9, 38, 110
3, 20352, Note_on_c, 9, 42, 110
3, 20446, Note_on_c, 9, 38, 0
3, 20446, Note_on_c, 9, 42, 0
3, 20448, Note_on_c, 9, 42, 110
3, 20542, Note_on_c, 9, 42, 0
3, 20544, Note_on_c, 9, 35, 110
3, 20544, Note_on_c, 9, 42, 110
3, 20638, Note_on_c, 9, 35, 0
3, 20638, Note_on_c, 9, 42, 0
3, 20640, Note_on_c, 9, 35, 110
3, 20640, Note_on_c, 9, 42, 110
3, 20734, Note_on_c, 9, 35, 0
3, 20734, Note_on_c, 9, 42, 0
3, 20736, Note_on_c, 9, 38, 110
3, 20736, Note_on_c, 9, 42, 110
3, 20830, Note_on_c, 9, 38, 0
3, 20830, Note_on_c, 9, 42, 0
3, 20832, Note_on_c, 9, 42, 110
3, 20926, Note_on_c, 9, 42, 0
3, 20928, Note_on_c, 9, 35, 110
3, 20928, Note_on_c, 9, 42, 110
3, 21022, Note_on_c, 9, 35, 0
3, 21022, Note_on_c, 9, 42, 0
3, 21024, Note_on_c, 9, 35, 110
3, 21024, Note_on_c, 9, 42, 110
3, 21118, Note_on_c, 9, 35, 0
3, 21118, Note_on_c, 9, 42, 0
3, 21120, Note_on_c, 9, 38, 110
3, 21120, Note_on_c, 9, 42, 110
3, 21214, Note_on_c, 9, 38, 0
3, 21214, Note_on_c, 9, 42, 0
3, 21216, Note_on_c, 9, 42, 110
3, 21310, Note_on_c, 9, 42, 0
3, 21312, Note_on_c, 9, 35, 110
3, 21312, Note_on_c, 9, 42, 110
3, 21406, Note_on_c, 9, 35, 0
3, 21406, Note_on_c, 9, 42, 0
3, 21408, Note_on_c, 9, 35, 110
3, 21408, Note_on_c, 9, 42, 110
3, 21502, Note_on_c, 9, 35, 0
3, 21502, Note_on_c, 9, 42, 0
3, 21504, Note_on_c, 9, 38, 110
3, 21504, Note_on_c, 9, 42, 110
3, 21598, Note_on_c, 9, 38, 0
3, 21598, Note_on_c, 9, 42, 0
3, 21600, Note_on_c, 9, 42, 110
3, 21694, Note_on_c, 9, 42, 0
3, 21696, Note_on_c, 9, 35, 110
3, 21696, Note_on_c, 9, 42, 110
3, 21790, Note_on_c, 9, 35, 0
3, 21790, Note_on_c, 9, 42, 0
3, 21792, Note_on_c, 9, 35, 110
3, 21792, Note_on_c, 9, 42, 110
3, 21886, Note_on_c, 9, 35, 0
3, 21886, Note_on_c, 9, 42, 0
3, 21888, Note_on_c, 9, 38, 110
3, 21888, Note_on_c, 9, 42, 110
3, 21982, Note_on_c, 9, 38, 0
3, 21982, Note_on_c, 9, 42, 0
3, 21984, Note_on_c, 9, 42, 110
3, 22078, Note_on_c, 9, 42, 0
3, 22080, Note_on_c, 9, 35, 110
3, 22080, Note_on_c, 9, 42, 110
3, 22174, Note_on_c, 9, 35, 0
3, 22174, Note_on_c, 9, 42, 0
3, 22176, Note_on_c, 9, 35, 110
3, 22176, Note_on_c, 9, 42, 110
3, 22270, Note_on_c, 9, 35, 0
3, 22270, Note_on_c, 9, 42, 0
3, 22272, Note_on_c, 9, 38, 110
3, 22272, Note_on_c, 9, 42, 110
3, 22366, Note_on_c, 9, 38, 0
3, 22366, Note_on_c, 9, 42, 0
3, 22368, Note_on_c, 9, 42, 110
3, 22462, Note_on_c, 9, 42, 0
3, 22464, Note_on_c, 9, 35, 110
3, 22464, Note_on_c, 9, 42, 110
3, 22558, Note_on_c, 9, 35, 0
3, 22558, Note_on_c, 9, 42, 0
3, 22560, Note_on_c, 9, 35, 110
3, 22560, Note_on_c, 9, 42, 110
3, 22654, Note_on_c, 9, 35, 0
3, 22654, Note_on_c, 9, 42, 0
3, 22656, Note_on_c, 9, 38, 110
3, 22656, Note_on_c, 9, 42, 110
3, 22750, Note_on_c, 9, 38, 0
3, 22750, Note_on_c, 9, 42, 0
3, 22752, Note_on_c, 9, 42, 110
3, 22846, Note_on_c, 9, 42, 0
3, 22848, Note_on_c, 9, 35, 110
3, 22848, Note_on_c, 9, 42, 110
3, 22942, Note_on_c, 9, 35, 0
3, 22942, Note_on_c, 9, 42, 0
3, 22944, Note_on_c, 9, 35, 110
3, 22944, Note_on_c, 9, 42, 110
3, 23038, Note_on_c, 9, 35, 0
3, 23038, Note_on_c, 9, 42, 0
3, 23040, Note_on_c, 9, 38, 110
3, 23040, Note_on_c, 9, 42, 110
3, 23134, Note_on_c, 9, 38, 0
3, 23134, Note_on_c, 9, 42, 0
3, 23136, Note_on_c, 9, 42, 110
3, 23230, Note_on_c, 9, 42, 0
3, 23232, Note_on_c, 9, 35, 110
3, 23232, Note_on_c, 9, 42, 110
3, 23326, Note_on_c, 9, 35, 0
3, 23326, Note_on_c, 9, 42, 0
3, 23328, Note_on_c, 9, 35, 110
3, 23328, Note_on_c, 9, 42, 110
3, 23422, Note_on_c, 9, 35, 0
3, 23422, Note_on_c, 9, 42, 0
3, 23424, Note_on_c, 9, 38, 110
3, 23424, Note_on_c, 9, 42, 110
3, 23518, Note_on_c, 9, 38, 0
3, 23518, Note_on_c, 9, 42, 0
3, 23520, Note_on_c, 9, 42, 110
3, 23614, Note_on_c, 9, 42, 0
3, 23616, Note_on_c, 9, 35, 110
3, 23616, Note_on_c, 9, 42, 110
3, 23710, Note_on_c, 9, 35, 0
3, 23710, Note_on_c, 9, 42, 0
3, 23712, Note_on_c, 9, 35, 110
3, 23712, Note_on_c, 9, 42, 110
3, 23806, Note_on_c, 9, 35, 0
3, 23806, Note_on_c, 9, 42, 0
3, 23808, Note_on_c, 9, 38, 110
3, 23808, Note_on_c, 9, 42, 110
3, 23902, Note_on_c, 9, 38, 0
3, 23902, Note_on_c, 9, 42, 0
3, 23904, Note_on_c, 9, 42, 110
3, 23998, Note_on_c, 9, 42, 0
3, 24000, Note_on_c, 9, 35, 110
3, 24000, Note_on_c, 9, 42, 110
3, 24094, Note_on_c, 9, 35, 0
3, 24094, Note_on_c, 9, 42, 0
3, 24096, Note_on_c, 9, 35, 110
3, 24096, Note_on_c, 9, 42, 110
3, 24190, Note_on_c, 9, 35, 0
3, 24190, Note_on_c, 9, 42, 0
3, 24192, Note_on_c, 9, 38, 110
3, 24192, Note_on_c, 9, 42, 110
3, 24286, Note_on_c, 9, 38, 0
3, 24286, Note_on_c, 9, 42, 0
3, 24288, Note_on_c, 9, 42, 110
3, 24382, Note_on_c, 9, 42, 0
3, 24384, Note_on_c, 9, 35, 110
3, 24384, Note_on_c, 9, 42, 110
3, 24478, Note_on_c, 9, 35, 0
3, 24478, Note_on_c, 9, 42, 0
3, 24480, Note_on_c, 9, 35, 110
3, 24480, Note_on_c, 9, 42, 110
3, 24574, Note_on_c, 9, 35, 0
3, 24574, Note_on_c, 9, 42, 0
3, 24576, Note_on_c, 9, 38, 110
3, 24576, Note_on_c, 9, 42, 110
3, 24670, Note_on_c, 9, 38, 0
3, 24670, Note_on_c, 9, 42, 0
3, 24672, Note_on_c, 9, 42, 110
3, 24766, Note_on_c, 9, 42, 0
3, 24768, Note_on_c, 9, 35, 110
3, 24768, Note_on_c, 9, 42, 110
3, 24768, Note_on_c, 9, 57, 110
3, 24862, Note_on_c, 9, 35, 0
3, 24862, Note_on_c, 9, 42, 0
3, 24862, Note_on_c, 9, 57, 0
3, 24864, Note_on_c, 9, 35, 110
3, 24864, Note_on_c, 9, 42, 110
3, 24958, Note_on_c, 9, 35, 0
3, 24958, Note_on_c, 9, 42, 0
3, 24960, Note_on_c, 9, 38, 110
3, 24960, Note_on_c, 9, 42, 110
3, 25054, Note_on_c, 9, 38, 0
3, 25054, Note_on_c, 9, 42, 0
3, 25056, Note_on_c, 9, 42, 110
3, 25150, Note_on_c, 9, 42, 0
3, 25152, Note_on_c, 9, 35, 110
3, 25152, Note_on_c, 9, 42, 110
3, 25246, Note_on_c, 9, 35, 0
3, 25246, Note_on_c, 9, 42, 0
3, 25248, Note_on_c, 9, 35, 110
3, 25248, Note_on_c, 9, 42, 110
3, 25342, Note_on_c, 9, 35, 0
3, 25342, Note_on_c, 9, 42, 0
3, 25344, Note_on_c, 9, 38, 110
3, 25344, Note_on_c, 9, 42, 110
3, 25438, Note_on_c, 9, 38, 0
3, 25438, Note_on_c, 9, 42, 0
3, 25440, Note_on_c, 9, 42, 110
3, 25534, Note_on_c, 9, 42, 0
3, 25536, Note_on_c, 9, 35, 110
3, 25536, Note_on_c, 9, 42, 110
3, 25630, Note_on_c, 9, 35, 0
3, 25630, Note_on_c, 9, 42, 0
3, 25632, Note_on_c, 9, 35, 110
3, 25632, Note_on_c, 9, 42, 110
3, 25726, Note_on_c, 9, 35, 0
3, 25726, Note_on_c, 9, 42, 0
3, 25728, Note_on_c, 9, 38, 110
3, 25728, Note_on_c, 9, 42, 110
3, 25822, Note_on_c, 9, 38, 0
3, 25822, Note_on_c, 9, 42, 0
3, 25824, Note_on_c, 9, 42, 110
3, 25918, Note_on_c, 9, 42, 0
3, 25920, Note_on_c, 9, 35, 110
3, 25920, Note_on_c, 9, 42, 110
3, 26014, Note_on_c, 9, 35, 0
3, 26014, Note_on_c, 9, 42, 0
3, 26016, Note_on_c, 9, 35, 110
3, 26016, Note_on_c, 9, 42, 110
3, 26110, Note_on_c, 9, 35, 0
3, 26110, Note_on_c, 9, 42, 0
3, 26112, Note_on_c, 9, 38, 110
3, 26112, Note_on_c, 9, 42, 110
3, 26206, Note_on_c, 9, 38, 0
3, 26206, Note_on_c, 9, 42, 0
3, 26208, Note_on_c, 9, 37, 110
3, 26208, Note_on_c, 9, 42, 110
3, 26254, Note_on_c, 9, 37, 0
3, 26256, Note_on_c, 9, 37, 110
3, 26302, Note_on_c, 9, 42, 0
3, 26302, Note_on_c, 9, 37, 0
3, 26304, Note_on_c, 9, 35, 110
3, 26304, Note_on_c, 9, 42, 110
3, 26398, Note_on_c, 9, 35, 0
3, 26398, Note_on_c, 9, 42, 0
3, 26400, Note_on_c, 9, 35, 110
3, 26400, Note_on_c, 9, 42, 110
3, 26494, Note_on_c, 9, 35, 0
3, 26494, Note_on_c, 9, 42, 0
3, 26496, Note_on_c, 9, 38, 110
3, 26496, Note_on_c, 9, 42, 110
3, 26590, Note_on_c, 9, 38, 0
3, 26590, Note_on_c, 9, 42, 0
3, 26592, Note_on_c, 9, 42, 110
3, 26686, Note_on_c, 9, 42, 0
3, 26688, Note_on_c, 9, 35, 110
3, 26688, Note_on_c, 9, 42, 110
3, 26782, Note_on_c, 9, 35, 0
3, 26782, Note_on_c, 9, 42, 0
3, 26784, Note_on_c, 9, 35, 110
3, 26784, Note_on_c, 9, 42, 110
3, 26878, Note_on_c, 9, 35, 0
3, 26878, Note_on_c, 9, 42, 0
3, 26880, Note_on_c, 9, 38, 110
3, 26880, Note_on_c, 9, 42, 110
3, 26974, Note_on_c, 9, 38, 0
3, 26974, Note_on_c, 9, 42, 0
3, 26976, Note_on_c, 9, 37, 110
3, 26976, Note_on_c, 9, 42, 110
3, 27022, Note_on_c, 9, 37, 0
3, 27024, Note_on_c, 9, 37, 110
3, 27070, Note_on_c, 9, 42, 0
3, 27070, Note_on_c, 9, 37, 0
3, 27072, Note_on_c, 9, 35, 110
3, 27072, Note_on_c, 9, 42, 110
3, 27166, Note_on_c, 9, 35, 0
3, 27166, Note_on_c, 9, 42, 0
3, 27168, Note_on_c, 9, 35, 110
3, 27168, Note_on_c, 9, 42, 110
3, 27262, Note_on_c, 9, 35, 0
3, 27262, Note_on_c, 9, 42, 0
3, 27264, Note_on_c, 9, 38, 110
3, 27264, Note_on_c, 9, 42, 110
3, 27358, Note_on_c, 9, 38, 0
3, 27358, Note_on_c, 9, 42, 0
3, 27360, Note_on_c, 9, 42, 110
3, 27454, Note_on_c, 9, 42, 0
3, 27456, Note_on_c, 9, 35, 110
3, 27456, Note_on_c, 9, 42, 110
3, 27550, Note_on_c, 9, 35, 0
3, 27550, Note_on_c, 9, 42, 0
3, 27552, Note_on_c, 9, 35, 110
3, 27552, Note_on_c, 9, 42, 110
3, 27646, Note_on_c, 9, 35, 0
3, 27646, Note_on_c, 9, 42, 0
3, 27648, Note_on_c, 9, 38, 110
3, 27648, Note_on_c, 9, 42, 110
3, 27742, Note_on_c, 9, 38, 0
3, 27742, Note_on_c, 9, 42, 0
3, 27744, Note_on_c, 9, 42, 110
3, 27838, Note_on_c, 9, 42, 0
3, 27840, Note_on_c, 9, 35, 110
3, 27840, Note_on_c, 9, 42, 110
3, 27934, Note_on_c, 9, 35, 0
3, 27934, Note_on_c, 9, 42, 0
3, 27936, Note_on_c, 9, 35, 110
3, 27936, Note_on_c, 9, 42, 110
3, 28030, Note_on_c, 9, 35, 0
3, 28030, Note_on_c, 9, 42, 0
3, 28032, Note_on_c, 9, 38, 110
3, 28032, Note_on_c, 9, 42, 110
3, 28126, Note_on_c, 9, 38, 0
3, 28126, Note_on_c, 9, 42, 0
3, 28128, Note_on_c, 9, 42, 110
3, 28222, Note_on_c, 9, 42, 0
3, 28224, Note_on_c, 9, 35, 110
3, 28224, Note_on_c, 9, 42, 110
3, 28318, Note_on_c, 9, 35, 0
3, 28318, Note_on_c, 9, 42, 0
3, 28320, Note_on_c, 9, 35, 110
3, 28320, Note_on_c, 9, 42, 110
3, 28414, Note_on_c, 9, 35, 0
3, 28414, Note_on_c, 9, 42, 0
3, 28416, Note_on_c, 9, 38, 110
3, 28416, Note_on_c, 9, 42, 110
3, 28510, Note_on_c, 9, 38, 0
3, 28510, Note_on_c, 9, 42, 0
3, 28512, Note_on_c, 9, 42, 110
3, 28606, Note_on_c, 9, 42, 0
3, 28608, Note_on_c, 9, 35, 110
3, 28608, Note_on_c, 9, 42, 110
3, 28702, Note_on_c, 9, 35, 0
3, 28702, Note_on_c, 9, 42, 0
3, 28704, Note_on_c, 9, 35, 110
3, 28704, Note_on_c, 9, 42, 110
3, 28798, Note_on_c, 9, 35, 0
3, 28798, Note_on_c, 9, 42, 0
3, 28800, Note_on_c, 9, 38, 110
3, 28800, Note_on_c, 9, 42, 110
3, 28894, Note_on_c, 9, 38, 0
3, 28894, Note_on_c, 9, 42, 0
3, 28896, Note_on_c, 9, 42, 110
3, 28990, Note_on_c, 9, 42, 0
3, 28992, Note_on_c, 9, 35, 110
3, 28992, Note_on_c, 9, 42, 110
3, 29086, Note_on_c, 9, 35, 0
3, 29086, Note_on_c, 9, 42, 0
3, 29088, Note_on_c, 9, 35, 110
3, 29088, Note_on_c, 9, 42, 110
3, 29182, Note_on_c, 9, 35, 0
3, 29182, Note_on_c, 9, 42, 0
3, 29184, Note_on_c, 9, 38, 110
3, 29184, Note_on_c, 9, 42, 110
3, 29278, Note_on_c, 9, 38, 0
3, 29278, Note_on_c, 9, 42, 0
3, 29280, Note_on_c, 9, 42, 110
3, 29374, Note_on_c, 9, 42, 0
3, 29376, Note_on_c, 9, 35, 110
3, 29376, Note_on_c, 9, 42, 110
3, 29470, Note_on_c, 9, 35, 0
3, 29470, Note_on_c, 9, 42, 0
3, 29472, Note_on_c, 9, 35, 110
3, 29472, Note_on_c, 9, 42, 110
3, 29566, Note_on_c, 9, 35, 0
3, 29566, Note_on_c, 9, 42, 0
3, 29568, Note_on_c, 9, 38, 110
3, 29568, Note_on_c, 9, 42, 110
3, 29662, Note_on_c, 9, 38, 0
3, 29662, Note_on_c, 9, 42, 0
3, 29664, Note_on_c, 9, 42, 110
3, 29758, Note_on_c, 9, 42, 0
3, 29760, Note_on_c, 9, 35, 110
3, 29760, Note_on_c, 9, 42, 110
3, 29854, Note_on_c, 9, 35, 0
3, 29854, Note_on_c, 9, 42, 0
3, 29856, Note_on_c, 9, 35, 110
3, 29856, Note_on_c, 9, 42, 110
3, 29950, Note_on_c, 9, 35, 0
3, 29950, Note_on_c, 9, 42, 0
3, 29952, Note_on_c, 9, 38, 110
3, 29952, Note_on_c, 9, 42, 110
3, 30046, Note_on_c, 9, 38, 0
3, 30046, Note_on_c, 9, 42, 0
3, 30048, Note_on_c, 9, 42, 110
3, 30142, Note_on_c, 9, 42, 0
3, 30144, Note_on_c, 9, 35, 110
3, 30144, Note_on_c, 9, 42, 110
3, 30238, Note_on_c, 9, 35, 0
3, 30238, Note_on_c, 9, 42, 0
3, 30240, Note_on_c, 9, 35, 110
3, 30240, Note_on_c, 9, 42, 110
3, 30334, Note_on_c, 9, 35, 0
3, 30334, Note_on_c, 9, 42, 0
3, 30336, Note_on_c, 9, 38, 110
3, 30336, Note_on_c, 9, 42, 110
3, 30430, Note_on_c, 9, 38, 0
3, 30430, Note_on_c, 9, 42, 0
3, 30432, Note_on_c, 9, 42, 110
3, 30526, Note_on_c, 9, 42, 0
3, 30528, Note_on_c, 9, 35, 110
3, 30528, Note_on_c, 9, 42, 110
3, 30622, Note_on_c, 9, 35, 0
3, 30622, Note_on_c, 9, 42, 0
3, 30624, Note_on_c, 9, 35, 110
3, 30624, Note_on_c, 9, 42, 110
3, 30718, Note_on_c, 9, 35, 0
3, 30718, Note_on_c, 9, 42, 0
3, 30720, Note_on_c, 9, 38, 110
3, 30720, Note_on_c, 9, 42, 110
3, 30814, Note_on_c, 9, 38, 0
3, 30814, Note_on_c, 9, 42, 0
3, 30816, Note_on_c, 9, 42, 110
3, 30910, Note_on_c, 9, 42, 0
3, 30912, Note_on_c, 9, 35, 110
3, 30912, Note_on_c, 9, 42, 110
3, 31006, Note_on_c, 9, 35, 0
3, 31006, Note_on_c, 9, 42, 0
3, 31008, Note_on_c, 9, 35, 110
3, 31008, Note_on_c, 9, 42, 110
3, 31102, Note_on_c, 9, 35, 0
3, 31102, Note_on_c, 9, 42, 0
3, 31104, Note_on_c, 9, 38, 110
3, 31104, Note_on_c, 9, 42, 110
3, 31198, Note_on_c, 9, 38, 0
3, 31198, Note_on_c, 9, 42, 0
3, 31200, Note_on_c, 9, 42, 110
3, 31294, Note_on_c, 9, 42, 0
3, 31296, Note_on_c, 9, 35, 110
3, 31296, Note_on_c, 9, 42, 110
3, 31390, Note_on_c, 9, 35, 0
3, 31390, Note_on_c, 9, 42, 0
3, 31392, Note_on_c, 9, 35, 110
3, 31392, Note_on_c, 9, 42, 110
3, 31486, Note_on_c, 9, 35, 0
3, 31486, Note_on_c, 9, 42, 0
3, 31488, Note_on_c, 9, 38, 110
3, 31488, Note_on_c, 9, 42, 110
3, 31582, Note_on_c, 9, 38, 0
3, 31582, Note_on_c, 9, 42, 0
3, 31584, Note_on_c, 9, 42, 110
3, 31678, Note_on_c, 9, 42, 0
3, 31680, Note_on_c, 9, 35, 110
3, 31680, Note_on_c, 9, 42, 110
3, 31774, Note_on_c, 9, 35, 0
3, 31774, Note_on_c, 9, 42, 0
3, 31776, Note_on_c, 9, 35, 110
3, 31776, Note_on_c, 9, 42, 110
3, 31870, Note_on_c, 9, 35, 0
3, 31870, Note_on_c, 9, 42, 0
3, 31872, Note_on_c, 9, 38, 110
3, 31872, Note_on_c, 9, 42, 110
3, 31966, Note_on_c, 9, 38, 0
3, 31966, Note_on_c, 9, 42, 0
3, 31968, Note_on_c, 9, 42, 110
3, 32062, Note_on_c, 9, 42, 0
3, 32064, Note_on_c, 9, 35, 110
3, 32064, Note_on_c, 9, 42, 110
3, 32158, Note_on_c, 9, 35, 0
3, 32158, Note_on_c, 9, 42, 0
3, 32160, Note_on_c, 9, 35, 110
3, 32160, Note_on_c, 9, 42, 110
3, 32254, Note_on_c, 9, 35, 0
3, 32254, Note_on_c, 9, 42, 0
3, 32256, Note_on_c, 9, 38, 110
3, 32256, Note_on_c, 9, 42, 110
3, 32350, Note_on_c, 9, 38, 0
3, 32350, Note_on_c, 9, 42, 0
3, 32352, Note_on_c, 9, 37, 110
3, 32352, Note_on_c, 9, 42, 110
3, 32398, Note_on_c, 9, 37, 0
3, 32400, Note_on_c, 9, 37, 110
3, 32446, Note_on_c, 9, 42, 0
3, 32446, Note_on_c, 9, 37, 0
3, 32448, Note_on_c, 9, 35, 110
3, 32448, Note_on_c, 9, 42, 110
3, 32542, Note_on_c, 9, 35, 0
3, 32542, Note_on_c, 9, 42, 0
3, 32544, Note_on_c, 9, 35, 110
3, 32544, Note_on_c, 9, 42, 110
3, 32638, Note_on_c, 9, 35, 0
3, 32638, Note_on_c, 9, 42, 0
3, 32640, Note_on_c, 9, 38, 110
3, 32640, Note_on_c, 9, 42, 110
3, 32734, Note_on_c, 9, 38, 0
3, 32734, Note_on_c, 9, 42, 0
3, 32736, Note_on_c, 9, 42, 110
3, 32830, Note_on_c, 9, 42, 0
3, 32832, Note_on_c, 9, 35, 110
3, 32832, Note_on_c, 9, 42, 110
3, 32926, Note_on_c, 9, 35, 0
3, 32926, Note_on_c, 9, 42, 0
3, 32928, Note_on_c, 9, 35, 110
3, 32928, Note_on_c, 9, 42, 110
3, 33022, Note_on_c, 9, 35, 0
3, 33022, Note_on_c, 9, 42, 0
3, 33024, Note_on_c, 9, 38, 110
3, 33024, Note_on_c, 9, 42, 110
3, 33118, Note_on_c, 9, 38, 0
3, 33118, Note_on_c, 9, 42, 0
3, 33120, Note_on_c, 9, 37, 110
3, 33120, Note_on_c, 9, 42, 110
3, 33166, Note_on_c, 9, 37, 0
3, 33168, Note_on_c, 9, 37, 110
3, 33214, Note_on_c, 9, 42, 0
3, 33214, Note_on_c, 9, 37, 0
3, 33216, Note_on_c, 9, 35, 110
3, 33216, Note_on_c, 9, 42, 110
3, 33310, Note_on_c, 9, 35, 0
3, 33310, Note_on_c, 9, 42, 0
3, 33312, Note_on_c, 9, 35, 110
3, 33312, Note_on_c, 9, 42, 110
3, 33406, Note_on_c, 9, 35, 0
3, 33406, Note_on_c, 9, 42, 0
3, 33408, Note_on_c, 9, 38, 110
3, 33408, Note_on_c, 9, 42, 110
3, 33502, Note_on_c, 9, 38, 0
3, 33502, Note_on_c, 9, 42, 0
3, 33504, Note_on_c, 9, 42, 110
3, 33598, Note_on_c, 9, 42, 0
3, 33600, Note_on_c, 9, 35, 110
3, 33600, Note_on_c, 9, 42, 110
3, 33694, Note_on_c, 9, 35, 0
3, 33694, Note_on_c, 9, 42, 0
3, 33696, Note_on_c, 9, 35, 110
3, 33696, Note_on_c, 9, 42, 110
3, 33790, Note_on_c, 9, 35, 0
3, 33790, Note_on_c, 9, 42, 0
3, 33792, Note_on_c, 9, 38, 110
3, 33792, Note_on_c, 9, 42, 110
3, 33886, Note_on_c, 9, 38, 0
3, 33886, Note_on_c, 9, 42, 0
3, 33888, Note_on_c, 9, 42, 110
3, 33982, Note_on_c, 9, 42, 0
3, 33984, Note_on_c, 9, 35, 110
3, 33984, Note_on_c, 9, 42, 110
3, 34078, Note_on_c, 9, 35, 0
3, 34078, Note_on_c, 9, 42, 0
3, 34080, Note_on_c, 9, 35, 110
3, 34080, Note_on_c, 9, 42, 110
3, 34174, Note_on_c, 9, 35, 0
3, 34174, Note_on_c, 9, 42, 0
3, 34176, Note_on_c, 9, 38, 110
3, 34176, Note_on_c, 9, 42, 110
3, 34270, Note_on_c, 9, 38, 0
3, 34270, Note_on_c, 9, 42, 0
3, 34272, Note_on_c, 9, 42, 110
3, 34366, Note_on_c, 9, 42, 0
3, 34368, Note_on_c, 9, 35, 110
3, 34368, Note_on_c, 9, 42, 110
3, 34462, Note_on_c, 9, 35, 0
3, 34462, Note_on_c, 9, 42, 0
3, 34464, Note_on_c, 9, 35, 110
3, 34464, Note_on_c, 9, 42, 110
3, 34558, Note_on_c, 9, 35, 0
3, 34558, Note_on_c, 9, 42, 0
3, 34560, Note_on_c, 9, 38, 110
3, 34560, Note_on_c, 9, 42, 110
3, 34654, Note_on_c, 9, 38, 0
3, 34654, Note_on_c, 9, 42, 0
3, 34656, Note_on_c, 9, 42, 110
3, 34750, Note_on_c, 9, 42, 0
3, 34752, Note_on_c, 9, 35, 110
3, 34752, Note_on_c, 9, 42, 110
3, 34846, Note_on_c, 9, 35, 0
3, 34846, Note_on_c, 9, 42, 0
3, 34848, Note_on_c, 9, 35, 110
3, 34848, Note_on_c, 9, 42, 110
3, 34942, Note_on_c, 9, 35, 0
3, 34942, Note_on_c, 9, 42, 0
3, 34944, Note_on_c, 9, 38, 110
3, 34944, Note_on_c, 9, 42, 110
3, 35038, Note_on_c, 9, 38, 0
3, 35038, Note_on_c, 9, 42, 0
3, 35040, Note_on_c, 9, 42, 110
3, 35134, Note_on_c, 9, 42, 0
3, 35136, Note_on_c, 9, 35, 110
3, 35136, Note_on_c, 9, 42, 110
3, 35230, Note_on_c, 9, 35, 0
3, 35230, Note_on_c, 9, 42, 0
3, 35232, Note_on_c, 9, 35, 110
3, 35232, Note_on_c, 9, 42, 110
3, 35326, Note_on_c, 9, 35, 0
3, 35326, Note_on_c, 9, 42, 0
3, 35328, Note_on_c, 9, 38, 110
3, 35328, Note_on_c, 9, 42, 110
3, 35422, Note_on_c, 9, 38, 0
3, 35422, Note_on_c, 9, 42, 0
3, 35424, Note_on_c, 9, 42, 110
3, 35518, Note_on_c, 9, 42, 0
3, 35520, Note_on_c, 9, 35, 110
3, 35520, Note_on_c, 9, 42, 110
3, 35614, Note_on_c, 9, 35, 0
3, 35614, Note_on_c, 9, 42, 0
3, 35616, Note_on_c, 9, 35, 110
3, 35616, Note_on_c, 9, 42, 110
3, 35710, Note_on_c, 9, 35, 0
3, 35710, Note_on_c, 9, 42, 0
3, 35712, Note_on_c, 9, 38, 110
3, 35712, Note_on_c, 9, 42, 110
3, 35806, Note_on_c, 9, 38, 0
3, 35806, Note_on_c, 9, 42, 0
3, 35808, Note_on_c, 9, 42, 110
3, 35902, Note_on_c, 9, 42, 0
3, 35904, Note_on_c, 9, 35, 110
3, 35904, Note_on_c, 9, 42, 110
3, 35998, Note_on_c, 9, 35, 0
3, 35998, Note_on_c, 9, 42, 0
3, 36000, Note_on_c, 9, 35, 110
3, 36000, Note_on_c, 9, 42, 110
3, 36094, Note_on_c, 9, 35, 0
3, 36094, Note_on_c, 9, 42, 0
3, 36096, Note_on_c, 9, 38, 110
3, 36096, Note_on_c, 9, 42, 110
3, 36190, Note_on_c, 9, 38, 0
3, 36190, Note_on_c, 9, 42, 0
3, 36192, Note_on_c, 9, 42, 110
3, 36286, Note_on_c, 9, 42, 0
3, 36288, Note_on_c, 9, 35, 110
3, 36288, Note_on_c, 9, 42, 110
3, 36382, Note_on_c, 9, 35, 0
3, 36382, Note_on_c, 9, 42, 0
3, 36384, Note_on_c, 9, 35, 110
3, 36384, Note_on_c, 9, 42, 110
3, 36478, Note_on_c, 9, 35, 0
3, 36478, Note_on_c, 9, 42, 0
3, 36480, Note_on_c, 9, 38, 110
3, 36480, Note_on_c, 9, 42, 110
3, 36574, Note_on_c, 9, 38, 0
3, 36574, Note_on_c, 9, 42, 0
3, 36576, Note_on_c, 9, 42, 110
3, 36670, Note_on_c, 9, 42, 0
3, 36672, Note_on_c, 9, 35, 110
3, 36672, Note_on_c, 9, 42, 110
3, 36766, Note_on_c, 9, 35, 0
3, 36766, Note_on_c, 9, 42, 0
3, 36768, Note_on_c, 9, 35, 110
3, 36768, Note_on_c, 9, 42, 110
3, 36862, Note_on_c, 9, 35, 0
3, 36862, Note_on_c, 9, 42, 0
3, 36864, Note_on_c, 9, 38, 110
3, 36864, Note_on_c, 9, 42, 110
3, 36958, Note_on_c, 9, 38, 0
3, 36958, Note_on_c, 9, 42, 0
3, 36960, Note_on_c, 9, 42, 110
3, 37054, Note_on_c, 9, 42, 0
3, 37056, Note_on_c, 9, 35, 110
3, 37056, Note_on_c, 9, 42, 110
3, 37150, Note_on_c, 9, 35, 0
3, 37150, Note_on_c, 9, 42, 0
3, 37152, Note_on_c, 9, 35, 110
3, 37152, Note_on_c, 9, 42, 110
3, 37246, Note_on_c, 9, 35, 0
3, 37246, Note_on_c, 9, 42, 0
3, 37248, Note_on_c, 9, 38, 110
3, 37248, Note_on_c, 9, 42, 110
3, 37342, Note_on_c, 9, 38, 0
3, 37342, Note_on_c, 9, 42, 0
3, 37344, Note_on_c, 9, 42, 110
3, 37438, Note_on_c, 9, 42, 0
3, 37440, Note_on_c, 9, 35, 110
3, 37440, Note_on_c, 9, 42, 110
3, 37534, Note_on_c, 9, 35, 0
3, 37534, Note_on_c, 9, 42, 0
3, 37536, Note_on_c, 9, 35, 110
3, 37536, Note_on_c, 9, 42, 110
3, 37630, Note_on_c, 9, 35, 0
3, 37630, Note_on_c, 9, 42, 0
3, 37632, Note_on_c, 9, 38, 110
3, 37632, Note_on_c, 9, 42, 110
3, 37726, Note_on_c, 9, 38, 0
3, 37726, Note_on_c, 9, 42, 0
3, 37728, Note_on_c, 9, 42, 110
3, 37822, Note_on_c, 9, 42, 0
3, 37824, Note_on_c, 9, 35, 110
3, 37824, Note_on_c, 9, 42, 110
3, 37918, Note_on_c, 9, 35, 0
3, 37918, Note_on_c, 9, 42, 0
3, 37920, Note_on_c, 9, 35, 110
3, 37920, Note_on_c, 9, 42, 110
3, 38014, Note_on_c, 9, 35, 0
3, 38014, Note_on_c, 9, 42, 0
3, 38016, Note_on_c, 9, 38, 110
3, 38016, Note_on_c, 9, 42, 110
3, 38110, Note_on_c, 9, 38, 0
3, 38110, Note_on_c, 9, 42, 0
3, 38112, Note_on_c, 9, 42, 110
3, 38206, Note_on_c, 9, 42, 0
3, 38208, Note_on_c, 9, 35, 110
3, 38208, Note_on_c, 9, 42, 110
3, 38302, Note_on_c, 9, 35, 0
3, 38302, Note_on_c, 9, 42, 0
3, 38304, Note_on_c, 9, 35, 110
3, 38304, Note_on_c, 9, 42, 110
3, 38398, Note_on_c, 9, 35, 0
3, 38398, Note_on_c, 9, 42, 0
3, 38400, Note_on_c, 9, 38, 110
3, 38400, Note_on_c, 9, 42, 110
3, 38494, Note_on_c, 9, 38, 0
3, 38494, Note_on_c, 9, 42, 0
3, 38496, Note_on_c, 9, 42, 110
3, 38590, Note_on_c, 9, 42, 0
3, 38592, Note_on_c, 9, 35, 110
3, 38592, Note_on_c, 9, 42, 110
3, 38686, Note_on_c, 9, 35, 0
3, 38686, Note_on_c, 9, 42, 0
3, 38688, Note_on_c, 9, 35, 110
3, 38688, Note_on_c, 9, 42, 110
3, 38782, Note_on_c, 9, 35, 0
3, 38782, Note_on_c, 9, 42, 0
3, 38784, Note_on_c, 9, 38, 110
3, 38784, Note_on_c, 9, 42, 110
3, 38878, Note_on_c, 9, 38, 0
3, 38878, Note_on_c, 9, 42, 0
3, 38880, Note_on_c, 9, 42, 110
3, 38974, Note_on_c, 9, 42, 0
3, 38976, Note_on_c, 9, 38, 110
3, 39070, Note_on_c, 9, 38, 0
3, 39072, Note_on_c, 9, 45, 110
3, 39118, Note_on_c, 9, 45, 0
3, 39120, Note_on_c, 9, 45, 110
3, 39166, Note_on_c, 9, 45, 0
3, 39168, Note_on_c, 9, 38, 110
3, 39214, Note_on_c, 9, 38, 0
3, 39216, Note_on_c, 9, 38, 110
3, 39262, Note_on_c, 9, 38, 0
3, 39264, Note_on_c, 9, 45, 110
3, 39310, Note_on_c, 9, 45, 0
3, 39312, Note_on_c, 9, 45, 110
3, 39358, Note_on_c, 9, 45, 0
3, 39360, Note_on_c, 9, 35, 110
3, 39360, Note_on_c, 9, 42, 110
3, 39360, Note_on_c, 9, 57, 110
3, 39454, Note_on_c, 9, 35, 0
3, 39454, Note_on_c, 9, 42, 0
3, 39454, Note_on_c, 9, 57, 0
3, 39456, Note_on_c, 9, 35, 110
3, 39456, Note_on_c, 9, 42, 110
3, 39550, Note_on_c, 9, 35, 0
3, 39550, Note_on_c, 9, 42, 0
3, 39552, Note_on_c, 9, 38, 110
3, 39552, Note_on_c, 9, 42, 110
3, 39646, Note_on_c, 9, 38, 0
3, 39646, Note_on_c, 9, 42, 0
3, 39648, Note_on_c, 9, 42, 110
3, 39742, Note_on_c, 9, 42, 0
3, 39744, Note_on_c, 9, 35, 110
3, 39744, Note_on_c, 9, 42, 110
3, 39838, Note_on_c, 9, 35, 0
3, 39838, Note_on_c, 9, 42, 0
3, 39840, Note_on_c, 9, 35, 110
3, 39840, Note_on_c, 9, 42, 110
3, 39934, Note_on_c, 9, 35, 0
3, 39934, Note_on_c, 9, 42, 0
3, 39936, Note_on_c, 9, 38, 110
3, 39936, Note_on_c, 9, 42, 110
3, 40030, Note_on_c, 9, 38, 0
3, 40030, Note_on_c, 9, 42, 0
3, 40032, Note_on_c, 9, 42, 110
3, 40126, Note_on_c, 9, 42, 0
3, 40128, Note_on_c, 9, 35, 110
3, 40128, Note_on_c, 9, 42, 110
3, 40222, Note_on_c, 9, 35, 0
3, 40222, Note_on_c, 9, 42, 0
3, 40224, Note_on_c, 9, 35, 110
3, 40224, Note_on_c, 9, 42, 110
3, 40318, Note_on_c, 9, 35, 0
3, 40318, Note_on_c, 9, 42, 0
3, 40320, Note_on_c, 9, 38, 110
3, 40320, Note_on_c, 9, 42, 110
3, 40414, Note_on_c, 9, 38, 0
3, 40414, Note_on_c, 9, 42, 0
3, 40416, Note_on_c, 9, 42, 110
3, 40510, Note_on_c, 9, 42, 0
3, 40512, Note_on_c, 9, 35, 110
3, 40512, Note_on_c, 9, 42, 110
3, 40606, Note_on_c, 9, 35, 0
3, 40606, Note_on_c, 9, 42, 0
3, 40608, Note_on_c, 9, 35, 110
3, 40608, Note_on_c, 9, 42, 110
3, 40702, Note_on_c, 9, 35, 0
3, 40702, Note_on_c, 9, 42, 0
3, 40704, Note_on_c, 9, 38, 110
3, 40704, Note_on_c, 9, 42, 110
3, 40798, Note_on_c, 9, 38, 0
3, 40798, Note_on_c, 9, 42, 0
3, 40800, Note_on_c, 9, 37, 110
3, 40800, Note_on_c, 9, 42, 110
3, 40846, Note_on_c, 9, 37, 0
3, 40846, Note_on_c, 9, 42, 0
3, 40848, Note_on_c, 9, 37, 110
3, 40894, Note_on_c, 9, 37, 0
3, 40896, Note_on_c, 9, 35, 110
3, 40896, Note_on_c, 9, 42, 110
3, 40990, Note_on_c, 9, 35, 0
3, 40990, Note_on_c, 9, 42, 0
3, 40992, Note_on_c, 9, 35, 110
3, 40992, Note_on_c, 9, 42, 110
3, 41086, Note_on_c, 9, 35, 0
3, 41086, Note_on_c, 9, 42, 0
3, 41088, Note_on_c, 9, 38, 110
3, 41088, Note_on_c, 9, 42, 110
3, 41182, Note_on_c, 9, 38, 0
3, 41182, Note_on_c, 9, 42, 0
3, 41184, Note_on_c, 9, 42, 110
3, 41278, Note_on_c, 9, 42, 0
3, 41280, Note_on_c, 9, 35, 110
3, 41280, Note_on_c, 9, 42, 110
3, 41374, Note_on_c, 9, 35, 0
3, 41374, Note_on_c, 9, 42, 0
3, 41376, Note_on_c, 9, 35, 110
3, 41376, Note_on_c, 9, 42, 110
3, 41470, Note_on_c, 9, 35, 0
3, 41470, Note_on_c, 9, 42, 0
3, 41472, Note_on_c, 9, 38, 110
3, 41472, Note_on_c, 9, 42, 110
3, 41566, Note_on_c, 9, 38, 0
3, 41566, Note_on_c, 9, 42, 0
3, 41568, Note_on_c, 9, 37, 110
3, 41568, Note_on_c, 9, 42, 110
3, 41614, Note_on_c, 9, 37, 0
3, 41614, Note_on_c, 9, 42, 0
3, 41616, Note_on_c, 9, 37, 110
3, 41662, Note_on_c, 9, 37, 0
3, 41664, Note_on_c, 9, 35, 110
3, 41664, Note_on_c, 9, 42, 110
3, 41758, Note_on_c, 9, 35, 0
3, 41758, Note_on_c, 9, 42, 0
3, 41760, Note_on_c, 9, 35, 110
3, 41760, Note_on_c, 9, 42, 110
3, 41854, Note_on_c, 9, 35, 0
3, 41854, Note_on_c, 9, 42, 0
3, 41856, Note_on_c, 9, 38, 110
3, 41856, Note_on_c, 9, 42, 110
3, 41950, Note_on_c, 9, 38, 0
3, 41950, Note_on_c, 9, 42, 0
3, 41952, Note_on_c, 9, 42, 110
3, 42046, Note_on_c, 9, 42, 0
3, 42048, Note_on_c, 9, 35, 110
3, 42048, Note_on_c, 9, 42, 110
3, 42142, Note_on_c, 9, 35, 0
3, 42142, Note_on_c, 9, 42, 0
3, 42144, Note_on_c, 9, 35, 110
3, 42144, Note_on_c, 9, 42, 110
3, 42238, Note_on_c, 9, 35, 0
3, 42238, Note_on_c, 9, 42, 0
3, 42240, Note_on_c, 9, 38, 110
3, 42240, Note_on_c, 9, 42, 110
3, 42334, Note_on_c, 9, 38, 0
3, 42334, Note_on_c, 9, 42, 0
3, 42336, Note_on_c, 9, 42, 110
3, 42430, Note_on_c, 9, 42, 0
3, 42432, Note_on_c, 9, 35, 110
3, 42432, Note_on_c, 9, 42, 110
3, 42526, Note_on_c, 9, 35, 0
3, 42526, Note_on_c, 9, 42, 0
3, 42528, Note_on_c, 9, 35, 110
3, 42528, Note_on_c, 9, 42, 110
3, 42622, Note_on_c, 9, 35, 0
3, 42622, Note_on_c, 9, 42, 0
3, 42624, Note_on_c, 9, 38, 110
3, 42624, Note_on_c, 9, 42, 110
3, 42718, Note_on_c, 9, 38, 0
3, 42718, Note_on_c, 9, 42, 0
3, 42720, Note_on_c, 9, 42, 110
3, 42814, Note_on_c, 9, 42, 0
3, 42816, Note_on_c, 9, 35, 110
3, 42816, Note_on_c, 9, 42, 110
3, 42910, Note_on_c, 9, 35, 0
3, 42910, Note_on_c, 9, 42, 0
3, 42912, Note_on_c, 9, 35, 110
3, 42912, Note_on_c, 9, 42, 110
3, 43006, Note_on_c, 9, 35, 0
3, 43006, Note_on_c, 9, 42, 0
3, 43008, Note_on_c, 9, 38, 110
3, 43008, Note_on_c, 9, 42, 110
3, 43102, Note_on_c, 9, 38, 0
3, 43102, Note_on_c, 9, 42, 0
3, 43104, Note_on_c, 9, 42, 110
3, 43198, Note_on_c, 9, 42, 0
3, 43200, Note_on_c, 9, 35, 110
3, 43200, Note_on_c, 9, 42, 110
3, 43294, Note_on_c, 9, 35, 0
3, 43294, Note_on_c, 9, 42, 0
3, 43296, Note_on_c, 9, 35, 110
3, 43296, Note_on_c, 9, 42, 110
3, 43390, Note_on_c, 9, 35, 0
3, 43390, Note_on_c, 9, 42, 0
3, 43392, Note_on_c, 9, 38, 110
3, 43392, Note_on_c, 9, 42, 110
3, 43486, Note_on_c, 9, 38, 0
3, 43486, Note_on_c, 9, 42, 0
3, 43488, Note_on_c, 9, 42, 110
3, 43582, Note_on_c, 9, 42, 0
3, 43584, Note_on_c, 9, 35, 110
3, 43584, Note_on_c, 9, 42, 110
3, 43678, Note_on_c, 9, 35, 0
3, 43678, Note_on_c, 9, 42, 0
3, 43680, Note_on_c, 9, 35, 110
3, 43680, Note_on_c, 9, 42, 110
3, 43774, Note_on_c, 9, 35, 0
3, 43774, Note_on_c, 9, 42, 0
3, 43776, Note_on_c, 9, 38, 110
3, 43776, Note_on_c, 9, 42, 110
3, 43870, Note_on_c, 9, 38, 0
3, 43870, Note_on_c, 9, 42, 0
3, 43872, Note_on_c, 9, 42, 110
3, 43966, Note_on_c, 9, 42, 0
3, 43968, Note_on_c, 9, 35, 110
3, 43968, Note_on_c, 9, 42, 110
3, 44062, Note_on_c, 9, 35, 0
3, 44062, Note_on_c, 9, 42, 0
3, 44064, Note_on_c, 9, 35, 110
3, 44064, Note_on_c, 9, 42, 110
3, 44158, Note_on_c, 9, 35, 0
3, 44158, Note_on_c, 9, 42, 0
3, 44160, Note_on_c, 9, 38, 110
3, 44160, Note_on_c, 9, 42, 110
3, 44254, Note_on_c, 9, 38, 0
3, 44254, Note_on_c, 9, 42, 0
3, 44256, Note_on_c, 9, 42, 110
3, 44350, Note_on_c, 9, 42, 0
3, 44352, Note_on_c, 9, 35, 110
3, 44352, Note_on_c, 9, 42, 110
3, 44446, Note_on_c, 9, 35, 0
3, 44446, Note_on_c, 9, 42, 0
3, 44448, Note_on_c, 9, 35, 110
3, 44448, Note_on_c, 9, 42, 110
3, 44542, Note_on_c, 9, 35, 0
3, 44542, Note_on_c, 9, 42, 0
3, 44544, Note_on_c, 9, 38, 110
3, 44544, Note_on_c, 9, 42, 110
3, 44638, Note_on_c, 9, 38, 0
3, 44638, Note_on_c, 9, 42, 0
3, 44640, Note_on_c, 9, 42, 110
3, 44734, Note_on_c, 9, 42, 0
3, 44736, Note_on_c, 9, 35, 110
3, 44736, Note_on_c, 9, 42, 110
3, 44830, Note_on_c, 9, 35, 0
3, 44830, Note_on_c, 9, 42, 0
3, 44832, Note_on_c, 9, 35, 110
3, 44832, Note_on_c, 9, 42, 110
3, 44926, Note_on_c, 9, 35, 0
3, 44926, Note_on_c, 9, 42, 0
3, 44928, Note_on_c, 9, 38, 110
3, 44928, Note_on_c, 9, 42, 110
3, 45022, Note_on_c, 9, 38, 0
3, 45022, Note_on_c, 9, 42, 0
3, 45024, Note_on_c, 9, 42, 110
3, 45118, Note_on_c, 9, 42, 0
3, 45120, Note_on_c, 9, 35, 110
3, 45120, Note_on_c, 9, 42, 110
3, 45214, Note_on_c, 9, 35, 0
3, 45214, Note_on_c, 9, 42, 0
3, 45216, Note_on_c, 9, 35, 110
3, 45216, Note_on_c, 9, 42, 110
3, 45310, Note_on_c, 9, 35, 0
3, 45310, Note_on_c, 9, 42, 0
3, 45312, Note_on_c, 9, 38, 110
3, 45312, Note_on_c, 9, 42, 110
3, 45406, Note_on_c, 9, 38, 0
3, 45406, Note_on_c, 9, 42, 0
3, 45408, Note_on_c, 9, 42, 110
3, 45502, Note_on_c, 9, 42, 0
3, 45504, Note_on_c, 9, 35, 110
3, 45504, Note_on_c, 9, 42, 110
3, 45504, Note_on_c, 9, 57, 110
3, 45598, Note_on_c, 9, 35, 0
3, 45598, Note_on_c, 9, 42, 0
3, 45598, Note_on_c, 9, 57, 0
3, 45600, Note_on_c, 9, 35, 110
3, 45600, Note_on_c, 9, 42, 110
3, 45694, Note_on_c, 9, 35, 0
3, 45694, Note_on_c, 9, 42, 0
3, 45696, Note_on_c, 9, 38, 110
3, 45696, Note_on_c, 9, 42, 110
3, 45790, Note_on_c, 9, 38, 0
3, 45790, Note_on_c, 9, 42, 0
3, 45792, Note_on_c, 9, 42, 110
3, 45886, Note_on_c, 9, 42, 0
3, 45888, Note_on_c, 9, 35, 110
3, 45888, Note_on_c, 9, 42, 110
3, 45982, Note_on_c, 9, 35, 0
3, 45982, Note_on_c, 9, 42, 0
3, 45984, Note_on_c, 9, 35, 110
3, 45984, Note_on_c, 9, 42, 110
3, 46078, Note_on_c, 9, 35, 0
3, 46078, Note_on_c, 9, 42, 0
3, 46080, Note_on_c, 9, 38, 110
3, 46080, Note_on_c, 9, 42, 110
3, 46174, Note_on_c, 9, 38, 0
3, 46174, Note_on_c, 9, 42, 0
3, 46176, Note_on_c, 9, 42, 110
3, 46270, Note_on_c, 9, 42, 0
3, 46272, Note_on_c, 9, 35, 110
3, 46272, Note_on_c, 9, 42, 110
3, 46366, Note_on_c, 9, 35, 0
3, 46366, Note_on_c, 9, 42, 0
3, 46368, Note_on_c, 9, 35, 110
3, 46368, Note_on_c, 9, 42, 110
3, 46462, Note_on_c, 9, 35, 0
3, 46462, Note_on_c, 9, 42, 0
3, 46464, Note_on_c, 9, 38, 110
3, 46464, Note_on_c, 9, 42, 110
3, 46558, Note_on_c, 9, 38, 0
3, 46558, Note_on_c, 9, 42, 0
3, 46560, Note_on_c, 9, 42, 110
3, 46654, Note_on_c, 9, 42, 0
3, 46656, Note_on_c, 9, 35, 110
3, 46656, Note_on_c, 9, 42, 110
3, 46750, Note_on_c, 9, 35, 0
3, 46750, Note_on_c, 9, 42, 0
3, 46752, Note_on_c, 9, 35, 110
3, 46752, Note_on_c, 9, 42, 110
3, 46846, Note_on_c, 9, 35, 0
3, 46846, Note_on_c, 9, 42, 0
3, 46848, Note_on_c, 9, 38, 110
3, 46848, Note_on_c, 9, 42, 110
3, 46942, Note_on_c, 9, 38, 0
3, 46942, Note_on_c, 9, 42, 0
3, 46944, Note_on_c, 9, 37, 110
3, 46944, Note_on_c, 9, 42, 110
3, 46990, Note_on_c, 9, 37, 0
3, 46990, Note_on_c, 9, 42, 0
3, 46992, Note_on_c, 9, 37, 110
3, 47038, Note_on_c, 9, 37, 0
3, 47040, Note_on_c, 9, 35, 110
3, 47040, Note_on_c, 9, 42, 110
3, 47134, Note_on_c, 9, 35, 0
3, 47134, Note_on_c, 9, 42, 0
3, 47136, Note_on_c, 9, 35, 110
3, 47136, Note_on_c, 9, 42, 110
3, 47230, Note_on_c, 9, 35, 0
3, 47230, Note_on_c, 9, 42, 0
3, 47232, Note_on_c, 9, 38, 110
3, 47232, Note_on_c, 9, 42, 110
3, 47326, Note_on_c, 9, 38, 0
3, 47326, Note_on_c, 9, 42, 0
3, 47328, Note_on_c, 9, 42, 110
3, 47422, Note_on_c, 9, 42, 0
3, 47424, Note_on_c, 9, 35, 110
3, 47424, Note_on_c, 9, 42, 110
3, 47518, Note_on_c, 9, 35, 0
3, 47518, Note_on_c, 9, 42, 0
3, 47520, Note_on_c, 9, 35, 110
3, 47520, Note_on_c, 9, 42, 110
3, 47614, Note_on_c, 9, 35, 0
3, 47614, Note_on_c, 9, 42, 0
3, 47616, Note_on_c, 9, 38, 110
3, 47616, Note_on_c, 9, 42, 110
3, 47710, Note_on_c, 9, 38, 0
3, 47710, Note_on_c, 9, 42, 0
3, 47712, Note_on_c, 9, 37, 110
3, 47712, Note_on_c, 9, 42, 110
3, 47758, Note_on_c, 9, 37, 0
3, 47758, Note_on_c, 9, 42, 0
3, 47760, Note_on_c, 9, 37, 110
3, 47806, Note_on_c, 9, 37, 0
3, 47808, Note_on_c, 9, 35, 110
3, 47808, Note_on_c, 9, 42, 110
3, 47902, Note_on_c, 9, 35, 0
3, 47902, Note_on_c, 9, 42, 0
3, 47904, Note_on_c, 9, 35, 110
3, 47904, Note_on_c, 9, 42, 110
3, 47998, Note_on_c, 9, 35, 0
3, 47998, Note_on_c, 9, 42, 0
3, 48000, Note_on_c, 9, 38, 110
3, 48000, Note_on_c, 9, 42, 110
3, 48094, Note_on_c, 9, 38, 0
3, 48094, Note_on_c, 9, 42, 0
3, 48096, Note_on_c, 9, 42, 110
3, 48190, Note_on_c, 9, 42, 0
3, 48192, Note_on_c, 9, 35, 110
3, 48192, Note_on_c, 9, 42, 110
3, 48286, Note_on_c, 9, 35, 0
3, 48286, Note_on_c, 9, 42, 0
3, 48288, Note_on_c, 9, 35, 110
3, 48288, Note_on_c, 9, 42, 110
3, 48382, Note_on_c, 9, 35, 0
3, 48382, Note_on_c, 9, 42, 0
3, 48384, Note_on_c, 9, 38, 110
3, 48384, Note_on_c, 9, 42, 110
3, 48478, Note_on_c, 9, 38, 0
3, 48478, Note_on_c, 9, 42, 0
3, 48480, Note_on_c, 9, 42, 110
3, 48574, Note_on_c, 9, 42, 0
3, 48576, Note_on_c, 9, 35, 110
3, 48576, Note_on_c, 9, 42, 110
3, 48670, Note_on_c, 9, 35, 0
3, 48670, Note_on_c, 9, 42, 0
3, 48672, Note_on_c, 9, 35, 110
3, 48672, Note_on_c, 9, 42, 110
3, 48766, Note_on_c, 9, 35, 0
3, 48766, Note_on_c, 9, 42, 0
3, 48768, Note_on_c, 9, 38, 110
3, 48768, Note_on_c, 9, 42, 110
3, 48862, Note_on_c, 9, 38, 0
3, 48862, Note_on_c, 9, 42, 0
3, 48864, Note_on_c, 9, 42, 110
3, 48958, Note_on_c, 9, 42, 0
3, 48960, Note_on_c, 9, 35, 110
3, 48960, Note_on_c, 9, 42, 110
3, 49054, Note_on_c, 9, 35, 0
3, 49054, Note_on_c, 9, 42, 0
3, 49056, Note_on_c, 9, 35, 110
3, 49056, Note_on_c, 9, 42, 110
3, 49150, Note_on_c, 9, 35, 0
3, 49150, Note_on_c, 9, 42, 0
3, 49152, Note_on_c, 9, 38, 110
3, 49152, Note_on_c, 9, 42, 110
3, 49246, Note_on_c, 9, 38, 0
3, 49246, Note_on_c, 9, 42, 0
3, 49248, Note_on_c, 9, 42, 110
3, 49342, Note_on_c, 9, 42, 0
3, 49344, Note_on_c, 9, 35, 110
3, 49344, Note_on_c, 9, 42, 110
3, 49438, Note_on_c, 9, 35, 0
3, 49438, Note_on_c, 9, 42, 0
3, 49440, Note_on_c, 9, 35, 110
3, 49440, Note_on_c, 9, 42, 110
3, 49534, Note_on_c, 9, 35, 0
3, 49534, Note_on_c, 9, 42, 0
3, 49536, Note_on_c, 9, 38, 110
3, 49536, Note_on_c, 9, 42, 110
3, 49630, Note_on_c, 9, 38, 0
3, 49630, Note_on_c, 9, 42, 0
3, 49632, Note_on_c, 9, 42, 110
3, 49726, Note_on_c, 9, 42, 0
3, 49728, Note_on_c, 9, 35, 110
3, 49728, Note_on_c, 9, 42, 110
3, 49822, Note_on_c, 9, 35, 0
3, 49822, Note_on_c, 9, 42, 0
3, 49824, Note_on_c, 9, 35, 110
3, 49824, Note_on_c, 9, 42, 110
3, 49918, Note_on_c, 9, 35, 0
3, 49918, Note_on_c, 9, 42, 0
3, 49920, Note_on_c, 9, 38, 110
3, 49920, Note_on_c, 9, 42, 110
3, 50014, Note_on_c, 9, 38, 0
3, 50014, Note_on_c, 9, 42, 0
3, 50016, Note_on_c, 9, 42, 110
3, 50110, Note_on_c, 9, 42, 0
3, 50112, Note_on_c, 9, 35, 110
3, 50112, Note_on_c, 9, 42, 110
3, 50206, Note_on_c, 9, 35, 0
3, 50206, Note_on_c, 9, 42, 0
3, 50208, Note_on_c, 9, 35, 110
3, 50208, Note_on_c, 9, 42, 110
3, 50302, Note_on_c, 9, 35, 0
3, 50302, Note_on_c, 9, 42, 0
3, 50304, Note_on_c, 9, 38, 110
3, 50304, Note_on_c, 9, 42, 110
3, 50398, Note_on_c, 9, 38, 0
3, 50398, Note_on_c, 9, 42, 0
3, 50400, Note_on_c, 9, 42, 110
3, 50494, Note_on_c, 9, 42, 0
3, 50496, Note_on_c, 9, 35, 110
3, 50496, Note_on_c, 9, 42, 110
3, 50590, Note_on_c, 9, 35, 0
3, 50590, Note_on_c, 9, 42, 0
3, 50592, Note_on_c, 9, 35, 110
3, 50592, Note_on_c, 9, 42, 110
3, 50686, Note_on_c, 9, 35, 0
3, 50686, Note_on_c, 9, 42, 0
3, 50688, Note_on_c, 9, 38, 110
3, 50688, Note_on_c, 9, 42, 110
3, 50782, Note_on_c, 9, 38, 0
3, 50782, Note_on_c, 9, 42, 0
3, 50784, Note_on_c, 9, 42, 110
3, 50878, Note_on_c, 9, 42, 0
3, 50880, Note_on_c, 9, 35, 110
3, 50880, Note_on_c, 9, 42, 110
3, 50974, Note_on_c, 9, 35, 0
3, 50974, Note_on_c, 9, 42, 0
3, 50976, Note_on_c, 9, 35, 110
3, 50976, Note_on_c, 9, 42, 110
3, 51070, Note_on_c, 9, 35, 0
3, 51070, Note_on_c, 9, 42, 0
3, 51072, Note_on_c, 9, 38, 110
3, 51072, Note_on_c, 9, 42, 110
3, 51166, Note_on_c, 9, 38, 0
3, 51166, Note_on_c, 9, 42, 0
3, 51168, Note_on_c, 9, 42, 110
3, 51262, Note_on_c, 9, 42, 0
3, 51264, Note_on_c, 9, 35, 110
3, 51264, Note_on_c, 9, 42, 110
3, 51358, Note_on_c, 9, 35, 0
3, 51358, Note_on_c, 9, 42, 0
3, 51360, Note_on_c, 9, 35, 110
3, 51360, Note_on_c, 9, 42, 110
3, 51454, Note_on_c, 9, 35, 0
3, 51454, Note_on_c, 9, 42, 0
3, 51456, Note_on_c, 9, 38, 110
3, 51456, Note_on_c, 9, 42, 110
3, 51550, Note_on_c, 9, 38, 0
3, 51550, Note_on_c, 9, 42, 0
3, 51552, Note_on_c, 9, 42, 110
3, 51646, Note_on_c, 9, 42, 0
3, 51648, Note_on_c, 9, 38, 110
3, 51648, Note_on_c, 9, 42, 110
3, 51742, Note_on_c, 9, 38, 0
3, 51742, Note_on_c, 9, 42, 0
3, 51744, Note_on_c, 9, 38, 110
3, 51744, Note_on_c, 9, 42, 110
3, 51838, Note_on_c, 9, 38, 0
3, 51838, Note_on_c, 9, 42, 0
3, 51840, Note_on_c, 9, 38, 110
3, 51840, Note_on_c, 9, 42, 110
3, 51934, Note_on_c, 9, 38, 0
3, 51934, Note_on_c, 9, 42, 0
3, 51936, Note_on_c, 9, 38, 110
3, 51936, Note_on_c, 9, 42, 110
3, 52030, Note_on_c, 9, 38, 0
3, 52030, Note_on_c, 9, 42, 0
3, 52032, Note_on_c, 9, 38, 110
3, 52032, Note_on_c, 9, 42, 110
3, 52126, Note_on_c, 9, 38, 0
3, 52126, Note_on_c, 9, 42, 0
3, 52128, Note_on_c, 9, 35, 110
3, 52128, Note_on_c, 9, 42, 110
3, 52174, Note_on_c, 9, 35, 0
3, 52176, Note_on_c, 9, 38, 110
3, 52222, Note_on_c, 9, 42, 0
3, 52222, Note_on_c, 9, 38, 0
3, 52224, Note_on_c, 9, 38, 110
3, 52224, Note_on_c, 9, 42, 110
3, 52270, Note_on_c, 9, 38, 0
3, 52272, Note_on_c, 9, 38, 110
3, 52318, Note_on_c, 9, 42, 0
3, 52318, Note_on_c, 9, 38, 0
3, 52320, Note_on_c, 9, 35, 110
3, 52320, Note_on_c, 9, 42, 110
3, 52366, Note_on_c, 9, 35, 0
3, 52368, Note_on_c, 9, 35, 110
3, 52414, Note_on_c, 9, 42, 0
3, 52414, Note_on_c, 9, 35, 0
3, 52416, Note_on_c, 9, 35, 110
3, 52416, Note_on_c, 9, 42, 110
3, 52416, Note_on_c, 9, 57, 110
3, 52510, Note_on_c, 9, 35, 0
3, 52510, Note_on_c, 9, 42, 0
3, 52510, Note_on_c, 9, 57, 0
3, 52512, Note_on_c, 9, 35, 110
3, 52512, Note_on_c, 9, 42, 110
3, 52606, Note_on_c, 9, 35, 0
3, 52606, Note_on_c, 9, 42, 0
3, 52608, Note_on_c, 9, 38, 110
3, 52608, Note_on_c, 9, 42, 110
3, 52702, Note_on_c, 9, 38, 0
3, 52702, Note_on_c, 9, 42, 0
3, 52704, Note_on_c, 9, 42, 110
3, 52798, Note_on_c, 9, 42, 0
3, 52800, Note_on_c, 9, 35, 110
3, 52800, Note_on_c, 9, 42, 110
3, 52894, Note_on_c, 9, 35, 0
3, 52894, Note_on_c, 9, 42, 0
3, 52896, Note_on_c, 9, 35, 110
3, 52896, Note_on_c, 9, 42, 110
3, 52990, Note_on_c, 9, 35, 0
3, 52990, Note_on_c, 9, 42, 0
3, 52992, Note_on_c, 9, 38, 110
3, 52992, Note_on_c, 9, 42, 110
3, 53086, Note_on_c, 9, 38, 0
3, 53086, Note_on_c, 9, 42, 0
3, 53088, Note_on_c, 9, 42, 110
3, 53182, Note_on_c, 9, 42, 0
3, 53184, Note_on_c, 9, 35, 110
3, 53184, Note_on_c, 9, 42, 110
3, 53278, Note_on_c, 9, 35, 0
3, 53278, Note_on_c, 9, 42, 0
3, 53280, Note_on_c, 9, 35, 110
3, 53280, Note_on_c, 9, 42, 110
3, 53374, Note_on_c, 9, 35, 0
3, 53374, Note_on_c, 9, 42, 0
3, 53376, Note_on_c, 9, 38, 110
3, 53376, Note_on_c, 9, 42, 110
3, 53470, Note_on_c, 9, 38, 0
3, 53470, Note_on_c, 9, 42, 0
3, 53472, Note_on_c, 9, 42, 110
3, 53566, Note_on_c, 9, 42, 0
3, 53568, Note_on_c, 9, 35, 110
3, 53568, Note_on_c, 9, 42, 110
3, 53662, Note_on_c, 9, 35, 0
3, 53662, Note_on_c, 9, 42, 0
3, 53664, Note_on_c, 9, 35, 110
3, 53664, Note_on_c, 9, 42, 110
3, 53758, Note_on_c, 9, 35, 0
3, 53758, Note_on_c, 9, 42, 0
3, 53760, Note_on_c, 9, 38, 110
3, 53760, Note_on_c, 9, 42, 110
3, 53854, Note_on_c, 9, 38, 0
3, 53854, Note_on_c, 9, 42, 0
3, 53856, Note_on_c, 9, 37, 110
3, 53856, Note_on_c, 9, 42, 110
3, 53902, Note_on_c, 9, 37, 0
3, 53904, Note_on_c, 9, 37, 110
3, 53950, Note_on_c, 9, 42, 0
3, 53950, Note_on_c, 9, 37, 0
3, 53952, Note_on_c, 9, 35, 110
3, 53952, Note_on_c, 9, 42, 110
3, 54046, Note_on_c, 9, 35, 0
3, 54046, Note_on_c, 9, 42, 0
3, 54048, Note_on_c, 9, 35, 110
3, 54048, Note_on_c, 9, 42, 110
3, 54142, Note_on_c, 9, 35, 0
3, 54142, Note_on_c, 9, 42, 0
3, 54144, Note_on_c, 9, 38, 110
3, 54144, Note_on_c, 9, 42, 110
3, 54238, Note_on_c, 9, 38, 0
3, 54238, Note_on_c, 9, 42, 0
3, 54240, Note_on_c, 9, 42, 110
3, 54334, Note_on_c, 9, 42, 0
3, 54336, Note_on_c, 9, 35, 110
3, 54336, Note_on_c, 9, 42, 110
3, 54430, Note_on_c, 9, 35, 0
3, 54430, Note_on_c, 9, 42, 0
3, 54432, Note_on_c, 9, 35, 110
3, 54432, Note_on_c, 9, 42, 110
3, 54526, Note_on_c, 9, 35, 0
3, 54526, Note_on_c, 9, 42, 0
3, 54528, Note_on_c, 9, 38, 110
3, 54528, Note_on_c, 9, 42, 110
3, 54622, Note_on_c, 9, 38, 0
3, 54622, Note_on_c, 9, 42, 0
3, 54624, Note_on_c, 9, 37, 110
3, 54624, Note_on_c, 9, 42, 110
3, 54670, Note_on_c, 9, 37, 0
3, 54672, Note_on_c, 9, 37, 110
3, 54718, Note_on_c, 9, 42, 0
3, 54718, Note_on_c, 9, 37, 0
3, 54720, Note_on_c, 9, 35, 110
3, 54720, Note_on_c, 9, 42, 110
3, 54814, Note_on_c, 9, 35, 0
3, 54814, Note_on_c, 9, 42, 0
3, 54816, Note_on_c, 9, 35, 110
3, 54816, Note_on_c, 9, 42, 110
3, 54910, Note_on_c, 9, 35, 0
3, 54910, Note_on_c, 9, 42, 0
3, 54912, Note_on_c, 9, 38, 110
3, 54912, Note_on_c, 9, 42, 110
3, 55006, Note_on_c, 9, 38, 0
3, 55006, Note_on_c, 9, 42, 0
3, 55008, Note_on_c, 9, 42, 110
3, 55102, Note_on_c, 9, 42, 0
3, 55104, Note_on_c, 9, 35, 110
3, 55104, Note_on_c, 9, 42, 110
3, 55198, Note_on_c, 9, 35, 0
3, 55198, Note_on_c, 9, 42, 0
3, 55200, Note_on_c, 9, 35, 110
3, 55200, Note_on_c, 9, 42, 110
3, 55294, Note_on_c, 9, 35, 0
3, 55294, Note_on_c, 9, 42, 0
3, 55296, Note_on_c, 9, 38, 110
3, 55296, Note_on_c, 9, 42, 110
3, 55390, Note_on_c, 9, 38, 0
3, 55390, Note_on_c, 9, 42, 0
3, 55392, Note_on_c, 9, 42, 110
3, 55486, Note_on_c, 9, 42, 0
3, 55488, Note_on_c, 9, 35, 110
3, 55488, Note_on_c, 9, 42, 110
3, 55582, Note_on_c, 9, 35, 0
3, 55582, Note_on_c, 9, 42, 0
3, 55584, Note_on_c, 9, 35, 110
3, 55584, Note_on_c, 9, 42, 110
3, 55678, Note_on_c, 9, 35, 0
3, 55678, Note_on_c, 9, 42, 0
3, 55680, Note_on_c, 9, 38, 110
3, 55680, Note_on_c, 9, 42, 110
3, 55774, Note_on_c, 9, 38, 0
3, 55774, Note_on_c, 9, 42, 0
3, 55776, Note_on_c, 9, 42, 110
3, 55870, Note_on_c, 9, 42, 0
3, 55872, Note_on_c, 9, 35, 110
3, 55872, Note_on_c, 9, 42, 110
3, 55966, Note_on_c, 9, 35, 0
3, 55966, Note_on_c, 9, 42, 0
3, 55968, Note_on_c, 9, 35, 110
3, 55968, Note_on_c, 9, 42, 110
3, 56062, Note_on_c, 9, 35, 0
3, 56062, Note_on_c, 9, 42, 0
3, 56064, Note_on_c, 9, 38, 110
3, 56064, Note_on_c, 9, 42, 110
3, 56158, Note_on_c, 9, 38, 0
3, 56158, Note_on_c, 9, 42, 0
3, 56160, Note_on_c, 9, 42, 110
3, 56254, Note_on_c, 9, 42, 0
3, 56256, Note_on_c, 9, 35, 110
3, 56256, Note_on_c, 9, 42, 110
3, 56350, Note_on_c, 9, 35, 0
3, 56350, Note_on_c, 9, 42, 0
3, 56352, Note_on_c, 9, 35, 110
3, 56352, Note_on_c, 9, 42, 110
3, 56446, Note_on_c, 9, 35, 0
3, 56446, Note_on_c, 9, 42, 0
3, 56448, Note_on_c, 9, 38, 110
3, 56448, Note_on_c, 9, 42, 110
3, 56542, Note_on_c, 9, 38, 0
3, 56542, Note_on_c, 9, 42, 0
3, 56544, Note_on_c, 9, 42, 110
3, 56638, Note_on_c, 9, 42, 0
3, 56640, Note_on_c, 9, 35, 110
3, 56640, Note_on_c, 9, 42, 110
3, 56734, Note_on_c, 9, 35, 0
3, 56734, Note_on_c, 9, 42, 0
3, 56736, Note_on_c, 9, 35, 110
3, 56736, Note_on_c, 9, 42, 110
3, 56830, Note_on_c, 9, 35, 0
3, 56830, Note_on_c, 9, 42, 0
3, 56832, Note_on_c, 9, 38, 110
3, 56832, Note_on_c, 9, 42, 110
3, 56926, Note_on_c, 9, 38, 0
3, 56926, Note_on_c, 9, 42, 0
3, 56928, Note_on_c, 9, 42, 110
3, 57022, Note_on_c, 9, 42, 0
3, 57024, Note_on_c, 9, 35, 110
3, 57024, Note_on_c, 9, 42, 110
3, 57118, Note_on_c, 9, 35, 0
3, 57118, Note_on_c, 9, 42, 0
3, 57120, Note_on_c, 9, 35, 110
3, 57120, Note_on_c, 9, 42, 110
3, 57214, Note_on_c, 9, 35, 0
3, 57214, Note_on_c, 9, 42, 0
3, 57216, Note_on_c, 9, 38, 110
3, 57216, Note_on_c, 9, 42, 110
3, 57310, Note_on_c, 9, 38, 0
3, 57310, Note_on_c, 9, 42, 0
3, 57312, Note_on_c, 9, 42, 110
3, 57406, Note_on_c, 9, 42, 0
3, 57408, Note_on_c, 9, 35, 110
3, 57408, Note_on_c, 9, 42, 110
3, 57502, Note_on_c, 9, 35, 0
3, 57502, Note_on_c, 9, 42, 0
3, 57504, Note_on_c, 9, 35, 110
3, 57504, Note_on_c, 9, 42, 110
3, 57598, Note_on_c, 9, 35, 0
3, 57598, Note_on_c, 9, 42, 0
3, 57600, Note_on_c, 9, 38, 110
3, 57600, Note_on_c, 9, 42, 110
3, 57694, Note_on_c, 9, 38, 0
3, 57694, Note_on_c, 9, 42, 0
3, 57696, Note_on_c, 9, 42, 110
3, 57790, Note_on_c, 9, 42, 0
3, 57792, Note_on_c, 9, 35, 110
3, 57792, Note_on_c, 9, 42, 110
3, 57886, Note_on_c, 9, 35, 0
3, 57886, Note_on_c, 9, 42, 0
3, 57888, Note_on_c, 9, 35, 110
3, 57888, Note_on_c, 9, 42, 110
3, 57982, Note_on_c, 9, 35, 0
3, 57982, Note_on_c, 9, 42, 0
3, 57984, Note_on_c, 9, 38, 110
3, 57984, Note_on_c, 9, 42, 110
3, 58078, Note_on_c, 9, 38, 0
3, 58078, Note_on_c, 9, 42, 0
3, 58080, Note_on_c, 9, 42, 110
3, 58174, Note_on_c, 9, 42, 0
3, 58176, Note_on_c, 9, 35, 110
3, 58176, Note_on_c, 9, 42, 110
3, 58270, Note_on_c, 9, 35, 0
3, 58270, Note_on_c, 9, 42, 0
3, 58272, Note_on_c, 9, 35, 110
3, 58272, Note_on_c, 9, 42, 110
3, 58366, Note_on_c, 9, 35, 0
3, 58366, Note_on_c, 9, 42, 0
3, 58368, Note_on_c, 9, 38, 110
3, 58368, Note_on_c, 9, 42, 110
3, 58462, Note_on_c, 9, 38, 0
3, 58462, Note_on_c, 9, 42, 0
3, 58464, Note_on_c, 9, 42, 110
3, 58558, Note_on_c, 9, 42, 0
3, 58560, Note_on_c, 9, 35, 110
3, 58560, Note_on_c, 9, 42, 110
3, 58654, Note_on_c, 9, 35, 0
3, 58654, Note_on_c, 9, 42, 0
3, 58656, Note_on_c, 9, 35, 110
3, 58656, Note_on_c, 9, 42, 110
3, 58750, Note_on_c, 9, 35, 0
3, 58750, Note_on_c, 9, 42, 0
3, 58752, Note_on_c, 9, 38, 110
3, 58752, Note_on_c, 9, 42, 110
3, 58846, Note_on_c, 9, 38, 0
3, 58846, Note_on_c, 9, 42, 0
3, 58848, Note_on_c, 9, 42, 110
3, 58942, Note_on_c, 9, 42, 0
3, 58944, Note_on_c, 9, 35, 110
3, 58944, Note_on_c, 9, 42, 110
3, 59038, Note_on_c, 9, 35, 0
3, 59038, Note_on_c, 9, 42, 0
3, 59040, Note_on_c, 9, 35, 110
3, 59040, Note_on_c, 9, 42, 110
3, 59134, Note_on_c, 9, 35, 0
3, 59134, Note_on_c, 9, 42, 0
3, 59136, Note_on_c, 9, 38, 110
3, 59136, Note_on_c, 9, 42, 110
3, 59230, Note_on_c, 9, 38, 0
3, 59230, Note_on_c, 9, 42, 0
3, 59232, Note_on_c, 9, 42, 110
3, 59326, Note_on_c, 9, 42, 0
3, 59328, Note_on_c, 9, 35, 110
3, 59328, Note_on_c, 9, 42, 110
3, 59422, Note_on_c, 9, 35, 0
3, 59422, Note_on_c, 9, 42, 0
3, 59424, Note_on_c, 9, 35, 110
3, 59424, Note_on_c, 9, 42, 110
3, 59518, Note_on_c, 9, 35, 0
3, 59518, Note_on_c, 9, 42, 0
3, 59520, Note_on_c, 9, 38, 110
3, 59520, Note_on_c, 9, 42, 110
3, 59614, Note_on_c, 9, 38, 0
3, 59614, Note_on_c, 9, 42, 0
3, 59616, Note_on_c, 9, 42, 110
3, 59710, Note_on_c, 9, 42, 0
3, 59712, Note_on_c, 9, 35, 110
3, 59712, Note_on_c, 9, 42, 110
3, 59806, Note_on_c, 9, 35, 0
3, 59806, Note_on_c, 9, 42, 0
3, 59808, Note_on_c, 9, 35, 110
3, 59808, Note_on_c, 9, 42, 110
3, 59902, Note_on_c, 9, 35, 0
3, 59902, Note_on_c, 9, 42, 0
3, 59904, Note_on_c, 9, 38, 110
3, 59904, Note_on_c, 9, 42, 110
3, 59998, Note_on_c, 9, 38, 0
3, 59998, Note_on_c, 9, 42, 0
3, 60000, Note_on_c, 9, 37, 110
3, 60000, Note_on_c, 9, 42, 110
3, 60046, Note_on_c, 9, 37, 0
3, 60048, Note_on_c, 9, 37, 110
3, 60094, Note_on_c, 9, 42, 0
3, 60094, Note_on_c, 9, 37, 0
3, 60096, Note_on_c, 9, 35, 110
3, 60096, Note_on_c, 9, 42, 110
3, 60190, Note_on_c, 9, 35, 0
3, 60190, Note_on_c, 9, 42, 0
3, 60192, Note_on_c, 9, 35, 110
3, 60192, Note_on_c, 9, 42, 110
3, 60286, Note_on_c, 9, 35, 0
3, 60286, Note_on_c, 9, 42, 0
3, 60288, Note_on_c, 9, 38, 110
3, 60288, Note_on_c, 9, 42, 110
3, 60382, Note_on_c, 9, 38, 0
3, 60382, Note_on_c, 9, 42, 0
3, 60384, Note_on_c, 9, 42, 110
3, 60478, Note_on_c, 9, 42, 0
3, 60480, Note_on_c, 9, 35, 110
3, 60480, Note_on_c, 9, 42, 110
3, 60574, Note_on_c, 9, 35, 0
3, 60574, Note_on_c, 9, 42, 0
3, 60576, Note_on_c, 9, 35, 110
3, 60576, Note_on_c, 9, 42, 110
3, 60670, Note_on_c, 9, 35, 0
3, 60670, Note_on_c, 9, 42, 0
3, 60672, Note_on_c, 9, 38, 110
3, 60672, Note_on_c, 9, 42, 110
3, 60766, Note_on_c, 9, 38, 0
3, 60766, Note_on_c, 9, 42, 0
3, 60768, Note_on_c, 9, 37, 110
3, 60768, Note_on_c, 9, 42, 110
3, 60814, Note_on_c, 9, 37, 0
3, 60816, Note_on_c, 9, 37, 110
3, 60862, Note_on_c, 9, 42, 0
3, 60862, Note_on_c, 9, 37, 0
3, 60864, Note_on_c, 9, 35, 110
3, 60864, Note_on_c, 9, 42, 110
3, 60958, Note_on_c, 9, 35, 0
3, 60958, Note_on_c, 9, 42, 0
3, 60960, Note_on_c, 9, 35, 110
3, 60960, Note_on_c, 9, 42, 110
3, 61054, Note_on_c, 9, 35, 0
3, 61054, Note_on_c, 9, 42, 0
3, 61056, Note_on_c, 9, 38, 110
3, 61056, Note_on_c, 9, 42, 110
3, 61150, Note_on_c, 9, 38, 0
3, 61150, Note_on_c, 9, 42, 0
3, 61152, Note_on_c, 9, 42, 110
3, 61246, Note_on_c, 9, 42, 0
3, 61248, Note_on_c, 9, 35, 110
3, 61248, Note_on_c, 9, 42, 110
3, 61342, Note_on_c, 9, 35, 0
3, 61342, Note_on_c, 9, 42, 0
3, 61344, Note_on_c, 9, 35, 110
3, 61344, Note_on_c, 9, 42, 110
3, 61438, Note_on_c, 9, 35, 0
3, 61438, Note_on_c, 9, 42, 0
3, 61440, Note_on_c, 9, 38, 110
3, 61440, Note_on_c, 9, 42, 110
3, 61534, Note_on_c, 9, 38, 0
3, 61534, Note_on_c, 9, 42, 0
3, 61536, Note_on_c, 9, 42, 110
3, 61630, Note_on_c, 9, 42, 0
3, 61632, Note_on_c, 9, 35, 110
3, 61632, Note_on_c, 9, 42, 110
3, 61726, Note_on_c, 9, 35, 0
3, 61726, Note_on_c, 9, 42, 0
3, 61728, Note_on_c, 9, 35, 110
3, 61728, Note_on_c, 9, 42, 110
3, 61822, Note_on_c, 9, 35, 0
3, 61822, Note_on_c, 9, 42, 0
3, 61824, Note_on_c, 9, 38, 110
3, 61824, Note_on_c, 9, 42, 110
3, 61918, Note_on_c, 9, 38, 0
3, 61918, Note_on_c, 9, 42, 0
3, 61920, Note_on_c, 9, 42, 110
3, 62014, Note_on_c, 9, 42, 0
3, 62016, Note_on_c, 9, 35, 110
3, 62016, Note_on_c, 9, 42, 110
3, 62110, Note_on_c, 9, 35, 0
3, 62110, Note_on_c, 9, 42, 0
3, 62112, Note_on_c, 9, 35, 110
3, 62112, Note_on_c, 9, 42, 110
3, 62206, Note_on_c, 9, 35, 0
3, 62206, Note_on_c, 9, 42, 0
3, 62208, Note_on_c, 9, 38, 110
3, 62208, Note_on_c, 9, 42, 110
3, 62302, Note_on_c, 9, 38, 0
3, 62302, Note_on_c, 9, 42, 0
3, 62304, Note_on_c, 9, 42, 110
3, 62398, Note_on_c, 9, 42, 0
3, 62400, Note_on_c, 9, 35, 110
3, 62400, Note_on_c, 9, 42, 110
3, 62494, Note_on_c, 9, 35, 0
3, 62494, Note_on_c, 9, 42, 0
3, 62496, Note_on_c, 9, 35, 110
3, 62496, Note_on_c, 9, 42, 110
3, 62590, Note_on_c, 9, 35, 0
3, 62590, Note_on_c, 9, 42, 0
3, 62592, Note_on_c, 9, 38, 110
3, 62592, Note_on_c, 9, 42, 110
3, 62686, Note_on_c, 9, 38, 0
3, 62686, Note_on_c, 9, 42, 0
3, 62688, Note_on_c, 9, 42, 110
3, 62782, Note_on_c, 9, 42, 0
3, 62784, Note_on_c, 9, 35, 110
3, 62784, Note_on_c, 9, 42, 110
3, 62878, Note_on_c, 9, 35, 0
3, 62878, Note_on_c, 9, 42, 0
3, 62880, Note_on_c, 9, 35, 110
3, 62880, Note_on_c, 9, 42, 110
3, 62974, Note_on_c, 9, 35, 0
3, 62974, Note_on_c, 9, 42, 0
3, 62976, Note_on_c, 9, 38, 110
3, 62976, Note_on_c, 9, 42, 110
3, 63070, Note_on_c, 9, 38, 0
3, 63070, Note_on_c, 9, 42, 0
3, 63072, Note_on_c, 9, 42, 110
3, 63166, Note_on_c, 9, 42, 0
3, 63168, Note_on_c, 9, 35, 110
3, 63168, Note_on_c, 9, 42, 110
3, 63262, Note_on_c, 9, 35, 0
3, 63262, Note_on_c, 9, 42, 0
3, 63264, Note_on_c, 9, 35, 110
3, 63264, Note_on_c, 9, 42, 110
3, 63358, Note_on_c, 9, 35, 0
3, 63358, Note_on_c, 9, 42, 0
3, 63360, Note_on_c, 9, 38, 110
3, 63360, Note_on_c, 9, 42, 110
3, 63454, Note_on_c, 9, 38, 0
3, 63454, Note_on_c, 9, 42, 0
3, 63456, Note_on_c, 9, 42, 110
3, 63550, Note_on_c, 9, 42, 0
3, 63552, Note_on_c, 9, 35, 110
3, 63552, Note_on_c, 9, 42, 110
3, 63646, Note_on_c, 9, 35, 0
3, 63646, Note_on_c, 9, 42, 0
3, 63648, Note_on_c, 9, 35, 110
3, 63648, Note_on_c, 9, 42, 110
3, 63742, Note_on_c, 9, 35, 0
3, 63742, Note_on_c, 9, 42, 0
3, 63744, Note_on_c, 9, 38, 110
3, 63744, Note_on_c, 9, 42, 110
3, 63838, Note_on_c, 9, 38, 0
3, 63838, Note_on_c, 9, 42, 0
3, 63840, Note_on_c, 9, 42, 110
3, 63934, Note_on_c, 9, 42, 0
3, 63936, Note_on_c, 9, 35, 110
3, 63936, Note_on_c, 9, 42, 110
3, 64030, Note_on_c, 9, 35, 0
3, 64030, Note_on_c, 9, 42, 0
3, 64032, Note_on_c, 9, 35, 110
3, 64032, Note_on_c, 9, 42, 110
3, 64126, Note_on_c, 9, 35, 0
3, 64126, Note_on_c, 9, 42, 0
3, 64128, Note_on_c, 9, 38, 110
3, 64128, Note_on_c, 9, 42, 110
3, 64222, Note_on_c, 9, 38, 0
3, 64222, Note_on_c, 9, 42, 0
3, 64224, Note_on_c, 9, 42, 110
3, 64318, Note_on_c, 9, 42, 0
3, 64320, Note_on_c, 9, 35, 110
3, 64320, Note_on_c, 9, 42, 110
3, 64414, Note_on_c, 9, 35, 0
3, 64414, Note_on_c, 9, 42, 0
3, 64416, Note_on_c, 9, 35, 110
3, 64416, Note_on_c, 9, 42, 110
3, 64510, Note_on_c, 9, 35, 0
3, 64510, Note_on_c, 9, 42, 0
3, 64512, Note_on_c, 9, 38, 110
3, 64512, Note_on_c, 9, 42, 110
3, 64606, Note_on_c, 9, 38, 0
3, 64606, Note_on_c, 9, 42, 0
3, 64608, Note_on_c, 9, 42, 110
3, 64702, Note_on_c, 9, 42, 0
3, 64704, Note_on_c, 9, 35, 110
3, 64704, Note_on_c, 9, 42, 110
3, 64798, Note_on_c, 9, 35, 0
3, 64798, Note_on_c, 9, 42, 0
3, 64800, Note_on_c, 9, 35, 110
3, 64800, Note_on_c, 9, 42, 110
3, 64894, Note_on_c, 9, 35, 0
3, 64894, Note_on_c, 9, 42, 0
3, 64896, Note_on_c, 9, 38, 110
3, 64896, Note_on_c, 9, 42, 110
3, 64990, Note_on_c, 9, 38, 0
3, 64990, Note_on_c, 9, 42, 0
3, 64992, Note_on_c, 9, 42, 110
3, 65086, Note_on_c, 9, 42, 0
3, 65088, Note_on_c, 9, 35, 110
3, 65088, Note_on_c, 9, 42, 110
3, 65182, Note_on_c, 9, 35, 0
3, 65182, Note_on_c, 9, 42, 0
3, 65184, Note_on_c, 9, 35, 110
3, 65184, Note_on_c, 9, 42, 110
3, 65278, Note_on_c, 9, 35, 0
3, 65278, Note_on_c, 9, 42, 0
3, 65280, Note_on_c, 9, 38, 110
3, 65280, Note_on_c, 9, 42, 110
3, 65374, Note_on_c, 9, 38, 0
3, 65374, Note_on_c, 9, 42, 0
3, 65376, Note_on_c, 9, 42, 110
3, 65470, Note_on_c, 9, 42, 0
3, 65472, Note_on_c, 9, 35, 110
3, 65472, Note_on_c, 9, 42, 110
3, 65566, Note_on_c, 9, 35, 0
3, 65566, Note_on_c, 9, 42, 0
3, 65568, Note_on_c, 9, 35, 110
3, 65568, Note_on_c, 9, 42, 110
3, 65662, Note_on_c, 9, 35, 0
3, 65662, Note_on_c, 9, 42, 0
3, 65664, Note_on_c, 9, 38, 110
3, 65664, Note_on_c, 9, 42, 110
3, 65758, Note_on_c, 9, 38, 0
3, 65758, Note_on_c, 9, 42, 0
3, 65760, Note_on_c, 9, 42, 110
3, 65854, Note_on_c, 9, 42, 0
3, 65856, Note_on_c, 9, 35, 110
3, 65856, Note_on_c, 9, 42, 110
3, 65950, Note_on_c, 9, 35, 0
3, 65950, Note_on_c, 9, 42, 0
3, 65952, Note_on_c, 9, 35, 110
3, 65952, Note_on_c, 9, 42, 110
3, 66046, Note_on_c, 9, 35, 0
3, 66046, Note_on_c, 9, 42, 0
3, 66048, Note_on_c, 9, 38, 110
3, 66048, Note_on_c, 9, 42, 110
3, 66142, Note_on_c, 9, 38, 0
3, 66142, Note_on_c, 9, 42, 0
3, 66144, Note_on_c, 9, 42, 110
3, 66238, Note_on_c, 9, 42, 0
3, 66240, Note_on_c, 9, 35, 110
3, 66240, Note_on_c, 9, 42, 110
3, 66334, Note_on_c, 9, 35, 0
3, 66334, Note_on_c, 9, 42, 0
3, 66336, Note_on_c, 9, 35, 110
3, 66336, Note_on_c, 9, 42, 110
3, 66430, Note_on_c, 9, 35, 0
3, 66430, Note_on_c, 9, 42, 0
3, 66432, Note_on_c, 9, 38, 110
3, 66432, Note_on_c, 9, 42, 110
3, 66526, Note_on_c, 9, 38, 0
3, 66526, Note_on_c, 9, 42, 0
3, 66528, Note_on_c, 9, 42, 110
3, 66622, Note_on_c, 9, 42, 0
3, 66624, Note_on_c, 9, 38, 110
3, 66718, Note_on_c, 9, 38, 0
3, 66720, Note_on_c, 9, 45, 110
3, 66766, Note_on_c, 9, 45, 0
3, 66768, Note_on_c, 9, 45, 110
3, 66814, Note_on_c, 9, 45, 0
3, 66816, Note_on_c, 9, 38, 110
3, 66862, Note_on_c, 9, 38, 0
3, 66864, Note_on_c, 9, 38, 110
3, 66910, Note_on_c, 9, 38, 0
3, 66912, Note_on_c, 9, 45, 110
3, 66958, Note_on_c, 9, 45, 0
3, 66960, Note_on_c, 9, 45, 110
3, 67006, Note_on_c, 9, 45, 0
3, 67008, Note_on_c, 9, 35, 110
3, 67008, Note_on_c, 9, 42, 110
3, 67008, Note_on_c, 9, 57, 110
3, 67102, Note_on_c, 9, 35, 0
3, 67102, Note_on_c, 9, 42, 0
3, 67102, Note_on_c, 9, 57, 0
3, 67104, Note_on_c, 9, 35, 110
3, 67104, Note_on_c, 9, 42, 110
3, 67198, Note_on_c, 9, 35, 0
3, 67198, Note_on_c, 9, 42, 0
3, 67200, Note_on_c, 9, 38, 110
3, 67200, Note_on_c, 9, 42, 110
3, 67294, Note_on_c, 9, 38, 0
3, 67294, Note_on_c, 9, 42, 0
3, 67296, Note_on_c, 9, 42, 110
3, 67390, Note_on_c, 9, 42, 0
3, 67392, Note_on_c, 9, 35, 110
3, 67392, Note_on_c, 9, 42, 110
3, 67486, Note_on_c, 9, 35, 0
3, 67486, Note_on_c, 9, 42, 0
3, 67488, Note_on_c, 9, 35, 110
3, 67488, Note_on_c, 9, 42, 110
3, 67582, Note_on_c, 9, 35, 0
3, 67582, Note_on_c, 9, 42, 0
3, 67584, Note_on_c, 9, 38, 110
3, 67584, Note_on_c, 9, 42, 110
3, 67678, Note_on_c, 9, 38, 0
3, 67678, Note_on_c, 9, 42, 0
3, 67680, Note_on_c, 9, 42, 110
3, 67774, Note_on_c, 9, 42, 0
3, 67776, Note_on_c, 9, 35, 110
3, 67776, Note_on_c, 9, 42, 110
3, 67870, Note_on_c, 9, 35, 0
3, 67870, Note_on_c, 9, 42, 0
3, 67872, Note_on_c, 9, 35, 110
3, 67872, Note_on_c, 9, 42, 110
3, 67966, Note_on_c, 9, 35, 0
3, 67966, Note_on_c, 9, 42, 0
3, 67968, Note_on_c, 9, 38, 110
3, 67968, Note_on_c, 9, 42, 110
3, 68062, Note_on_c, 9, 38, 0
3, 68062, Note_on_c, 9, 42, 0
3, 68064, Note_on_c, 9, 42, 110
3, 68158, Note_on_c, 9, 42, 0
3, 68160, Note_on_c, 9, 35, 110
3, 68160, Note_on_c, 9, 42, 110
3, 68254, Note_on_c, 9, 35, 0
3, 68254, Note_on_c, 9, 42, 0
3, 68256, Note_on_c, 9, 35, 110
3, 68256, Note_on_c, 9, 42, 110
3, 68350, Note_on_c, 9, 35, 0
3, 68350, Note_on_c, 9, 42, 0
3, 68352, Note_on_c, 9, 38, 110
3, 68352, Note_on_c, 9, 42, 110
3, 68446, Note_on_c, 9, 38, 0
3, 68446, Note_on_c, 9, 42, 0
3, 68448, Note_on_c, 9, 37, 110
3, 68448, Note_on_c, 9, 42, 110
3, 68494, Note_on_c, 9, 37, 0
3, 68494, Note_on_c, 9, 42, 0
3, 68496, Note_on_c, 9, 37, 110
3, 68542, Note_on_c, 9, 37, 0
3, 68544, Note_on_c, 9, 35, 110
3, 68544, Note_on_c, 9, 42, 110
3, 68638, Note_on_c, 9, 35, 0
3, 68638, Note_on_c, 9, 42, 0
3, 68640, Note_on_c, 9, 35, 110
3, 68640, Note_on_c, 9, 42, 110
3, 68734, Note_on_c, 9, 35, 0
3, 68734, Note_on_c, 9, 42, 0
3, 68736, Note_on_c, 9, 38, 110
3, 68736, Note_on_c, 9, 42, 110
3, 68830, Note_on_c, 9, 38, 0
3, 68830, Note_on_c, 9, 42, 0
3, 68832, Note_on_c, 9, 42, 110
3, 68926, Note_on_c, 9, 42, 0
3, 68928, Note_on_c, 9, 35, 110
3, 68928, Note_on_c, 9, 42, 110
3, 69022, Note_on_c, 9, 35, 0
3, 69022, Note_on_c, 9, 42, 0
3, 69024, Note_on_c, 9, 35, 110
3, 69024, Note_on_c, 9, 42, 110
3, 69118, Note_on_c, 9, 35, 0
3, 69118, Note_on_c, 9, 42, 0
3, 69120, Note_on_c, 9, 38, 110
3, 69120, Note_on_c, 9, 42, 110
3, 69214, Note_on_c, 9, 38, 0
3, 69214, Note_on_c, 9, 42, 0
3, 69216, Note_on_c, 9, 37, 110
3, 69216, Note_on_c, 9, 42, 110
3, 69262, Note_on_c, 9, 37, 0
3, 69262, Note_on_c, 9, 42, 0
3, 69264, Note_on_c, 9, 37, 110
3, 69310, Note_on_c, 9, 37, 0
3, 69312, Note_on_c, 9, 35, 110
3, 69312, Note_on_c, 9, 42, 110
3, 69406, Note_on_c, 9, 35, 0
3, 69406, Note_on_c, 9, 42, 0
3, 69408, Note_on_c, 9, 35, 110
3, 69408, Note_on_c, 9, 42, 110
3, 69502, Note_on_c, 9, 35, 0
3, 69502, Note_on_c, 9, 42, 0
3, 69504, Note_on_c, 9, 38, 110
3, 69504, Note_on_c, 9, 42, 110
3, 69598, Note_on_c, 9, 38, 0
3, 69598, Note_on_c, 9, 42, 0
3, 69600, Note_on_c, 9, 42, 110
3, 69694, Note_on_c, 9, 42, 0
3, 69696, Note_on_c, 9, 35, 110
3, 69696, Note_on_c, 9, 42, 110
3, 69790, Note_on_c, 9, 35, 0
3, 69790, Note_on_c, 9, 42, 0
3, 69792, Note_on_c, 9, 35, 110
3, 69792, Note_on_c, 9, 42, 110
3, 69886, Note_on_c, 9, 35, 0
3, 69886, Note_on_c, 9, 42, 0
3, 69888, Note_on_c, 9, 38, 110
3, 69888, Note_on_c, 9, 42, 110
3, 69982, Note_on_c, 9, 38, 0
3, 69982, Note_on_c, 9, 42, 0
3, 69984, Note_on_c, 9, 42, 110
3, 70078, Note_on_c, 9, 42, 0
3, 70080, Note_on_c, 9, 35, 110
3, 70080, Note_on_c, 9, 42, 110
3, 70174, Note_on_c, 9, 35, 0
3, 70174, Note_on_c, 9, 42, 0
3, 70176, Note_on_c, 9, 35, 110
3, 70176, Note_on_c, 9, 42, 110
3, 70270, Note_on_c, 9, 35, 0
3, 70270, Note_on_c, 9, 42, 0
3, 70272, Note_on_c, 9, 38, 110
3, 70272, Note_on_c, 9, 42, 110
3, 70366, Note_on_c, 9, 38, 0
3, 70366, Note_on_c, 9, 42, 0
3, 70368, Note_on_c, 9, 42, 110
3, 70462, Note_on_c, 9, 42, 0
3, 70464, Note_on_c, 9, 35, 110
3, 70464, Note_on_c, 9, 42, 110
3, 70558, Note_on_c, 9, 35, 0
3, 70558, Note_on_c, 9, 42, 0
3, 70560, Note_on_c, 9, 35, 110
3, 70560, Note_on_c, 9, 42, 110
3, 70654, Note_on_c, 9, 35, 0
3, 70654, Note_on_c, 9, 42, 0
3, 70656, Note_on_c, 9, 38, 110
3, 70656, Note_on_c, 9, 42, 110
3, 70750, Note_on_c, 9, 38, 0
3, 70750, Note_on_c, 9, 42, 0
3, 70752, Note_on_c, 9, 42, 110
3, 70846, Note_on_c, 9, 42, 0
3, 70848, Note_on_c, 9, 35, 110
3, 70848, Note_on_c, 9, 42, 110
3, 70942, Note_on_c, 9, 35, 0
3, 70942, Note_on_c, 9, 42, 0
3, 70944, Note_on_c, 9, 35, 110
3, 70944, Note_on_c, 9, 42, 110
3, 71038, Note_on_c, 9, 35, 0
3, 71038, Note_on_c, 9, 42, 0
3, 71040, Note_on_c, 9, 38, 110
3, 71040, Note_on_c, 9, 42, 110
3, 71134, Note_on_c, 9, 38, 0
3, 71134, Note_on_c, 9, 42, 0
3, 71136, Note_on_c, 9, 42, 110
3, 71230, Note_on_c, 9, 42, 0
3, 71232, Note_on_c, 9, 35, 110
3, 71232, Note_on_c, 9, 42, 110
3, 71326, Note_on_c, 9, 35, 0
3, 71326, Note_on_c, 9, 42, 0
3, 71328, Note_on_c, 9, 35, 110
3, 71328, Note_on_c, 9, 42, 110
3, 71422, Note_on_c, 9, 35, 0
3, 71422, Note_on_c, 9, 42, 0
3, 71424, Note_on_c, 9, 38, 110
3, 71424, Note_on_c, 9, 42, 110
3, 71518, Note_on_c, 9, 38, 0
3, 71518, Note_on_c, 9, 42, 0
3, 71520, Note_on_c, 9, 42, 110
3, 71614, Note_on_c, 9, 42, 0
3, 71616, Note_on_c, 9, 35, 110
3, 71616, Note_on_c, 9, 42, 110
3, 71710, Note_on_c, 9, 35, 0
3, 71710, Note_on_c, 9, 42, 0
3, 71712, Note_on_c, 9, 35, 110
3, 71712, Note_on_c, 9, 42, 110
3, 71806, Note_on_c, 9, 35, 0
3, 71806, Note_on_c, 9, 42, 0
3, 71808, Note_on_c, 9, 38, 110
3, 71808, Note_on_c, 9, 42, 110
3, 71902, Note_on_c, 9, 38, 0
3, 71902, Note_on_c, 9, 42, 0
3, 71904, Note_on_c, 9, 42, 110
3, 71998, Note_on_c, 9, 42, 0
3, 72000, Note_on_c, 9, 35, 110
3, 72000, Note_on_c, 9, 42, 110
3, 72094, Note_on_c, 9, 35, 0
3, 72094, Note_on_c, 9, 42, 0
3, 72096, Note_on_c, 9, 35, 110
3, 72096, Note_on_c, 9, 42, 110
3, 72190, Note_on_c, 9, 35, 0
3, 72190, Note_on_c, 9, 42, 0
3, 72192, Note_on_c, 9, 38, 110
3, 72192, Note_on_c, 9, 42, 110
3, 72286, Note_on_c, 9, 38, 0
3, 72286, Note_on_c, 9, 42, 0
3, 72288, Note_on_c, 9, 42, 110
3, 72382, Note_on_c, 9, 42, 0
3, 72384, Note_on_c, 9, 35, 110
3, 72384, Note_on_c, 9, 42, 110
3, 72478, Note_on_c, 9, 35, 0
3, 72478, Note_on_c, 9, 42, 0
3, 72480, Note_on_c, 9, 35, 110
3, 72480, Note_on_c, 9, 42, 110
3, 72574, Note_on_c, 9, 35, 0
3, 72574, Note_on_c, 9, 42, 0
3, 72576, Note_on_c, 9, 38, 110
3, 72576, Note_on_c, 9, 42, 110
3, 72670, Note_on_c, 9, 38, 0
3, 72670, Note_on_c, 9, 42, 0
3, 72672, Note_on_c, 9, 42, 110
3, 72766, Note_on_c, 9, 42, 0
3, 72768, Note_on_c, 9, 35, 110
3, 72768, Note_on_c, 9, 42, 110
3, 72862, Note_on_c, 9, 35, 0
3, 72862, Note_on_c, 9, 42, 0
3, 72864, Note_on_c, 9, 35, 110
3, 72864, Note_on_c, 9, 42, 110
3, 72958, Note_on_c, 9, 35, 0
3, 72958, Note_on_c, 9, 42, 0
3, 72960, Note_on_c, 9, 38, 110
3, 72960, Note_on_c, 9, 42, 110
3, 73054, Note_on_c, 9, 38, 0
3, 73054, Note_on_c, 9, 42, 0
3, 73056, Note_on_c, 9, 42, 110
3, 73150, Note_on_c, 9, 42, 0
3, 73152, Note_on_c, 9, 35, 110
3, 73152, Note_on_c, 9, 42, 110
3, 73246, Note_on_c, 9, 35, 0
3, 73246, Note_on_c, 9, 42, 0
3, 73248, Note_on_c, 9, 35, 110
3, 73248, Note_on_c, 9, 42, 110
3, 73342, Note_on_c, 9, 35, 0
3, 73342, Note_on_c, 9, 42, 0
3, 73344, Note_on_c, 9, 38, 110
3, 73344, Note_on_c, 9, 42, 110
3, 73438, Note_on_c, 9, 38, 0
3, 73438, Note_on_c, 9, 42, 0
3, 73440, Note_on_c, 9, 42, 110
3, 73534, Note_on_c, 9, 42, 0
3, 73536, Note_on_c, 9, 35, 110
3, 73536, Note_on_c, 9, 42, 110
3, 73630, Note_on_c, 9, 35, 0
3, 73630, Note_on_c, 9, 42, 0
3, 73632, Note_on_c, 9, 35, 110
3, 73632, Note_on_c, 9, 42, 110
3, 73726, Note_on_c, 9, 35, 0
3, 73726, Note_on_c, 9, 42, 0
3, 73728, Note_on_c, 9, 38, 110
3, 73728, Note_on_c, 9, 42, 110
3, 73822, Note_on_c, 9, 38, 0
3, 73822, Note_on_c, 9, 42, 0
3, 73824, Note_on_c, 9, 42, 110
3, 73918, Note_on_c, 9, 42, 0
3, 73920, Note_on_c, 9, 35, 110
3, 73920, Note_on_c, 9, 42, 110
3, 74014, Note_on_c, 9, 35, 0
3, 74014, Note_on_c, 9, 42, 0
3, 74016, Note_on_c, 9, 35, 110
3, 74016, Note_on_c, 9, 42, 110
3, 74110, Note_on_c, 9, 35, 0
3, 74110, Note_on_c, 9, 42, 0
3, 74112, Note_on_c, 9, 38, 110
3, 74112, Note_on_c, 9, 42, 110
3, 74206, Note_on_c, 9, 38, 0
3, 74206, Note_on_c, 9, 42, 0
3, 74208, Note_on_c, 9, 42, 110
3, 74302, Note_on_c, 9, 42, 0
3, 74304, Note_on_c, 9, 35, 110
3, 74304, Note_on_c, 9, 42, 110
3, 74398, Note_on_c, 9, 35, 0
3, 74398, Note_on_c, 9, 42, 0
3, 74400, Note_on_c, 9, 35, 110
3, 74400, Note_on_c, 9, 42, 110
3, 74494, Note_on_c, 9, 35, 0
3, 74494, Note_on_c, 9, 42, 0
3, 74496, Note_on_c, 9, 38, 110
3, 74496, Note_on_c, 9, 42, 110
3, 74590, Note_on_c, 9, 38, 0
3, 74590, Note_on_c, 9, 42, 0
3, 74592, Note_on_c, 9, 37, 110
3, 74592, Note_on_c, 9, 42, 110
3, 74638, Note_on_c, 9, 37, 0
3, 74638, Note_on_c, 9, 42, 0
3, 74640, Note_on_c, 9, 37, 110
3, 74686, Note_on_c, 9, 37, 0
3, 74688, Note_on_c, 9, 35, 110
3, 74688, Note_on_c, 9, 42, 110
3, 74782, Note_on_c, 9, 35, 0
3, 74782, Note_on_c, 9, 42, 0
3, 74784, Note_on_c, 9, 35, 110
3, 74784, Note_on_c, 9, 42, 110
3, 74878, Note_on_c, 9, 35, 0
3, 74878, Note_on_c, 9, 42, 0
3, 74880, Note_on_c, 9, 38, 110
3, 74880, Note_on_c, 9, 42, 110
3, 74974, Note_on_c, 9, 38, 0
3, 74974, Note_on_c, 9, 42, 0
3, 74976, Note_on_c, 9, 42, 110
3, 75070, Note_on_c, 9, 42, 0
3, 75072, Note_on_c, 9, 35, 110
3, 75072, Note_on_c, 9, 42, 110
3, 75166, Note_on_c, 9, 35, 0
3, 75166, Note_on_c, 9, 42, 0
3, 75168, Note_on_c, 9, 35, 110
3, 75168, Note_on_c, 9, 42, 110
3, 75262, Note_on_c, 9, 35, 0
3, 75262, Note_on_c, 9, 42, 0
3, 75264, Note_on_c, 9, 38, 110
3, 75264, Note_on_c, 9, 42, 110
3, 75358, Note_on_c, 9, 38, 0
3, 75358, Note_on_c, 9, 42, 0
3, 75360, Note_on_c, 9, 37, 110
3, 75360, Note_on_c, 9, 42, 110
3, 75406, Note_on_c, 9, 37, 0
3, 75406, Note_on_c, 9, 42, 0
3, 75408, Note_on_c, 9, 37, 110
3, 75454, Note_on_c, 9, 37, 0
3, 75456, Note_on_c, 9, 35, 110
3, 75456, Note_on_c, 9, 42, 110
3, 75550, Note_on_c, 9, 35, 0
3, 75550, Note_on_c, 9, 42, 0
3, 75552, Note_on_c, 9, 35, 110
3, 75552, Note_on_c, 9, 42, 110
3, 75646, Note_on_c, 9, 35, 0
3, 75646, Note_on_c, 9, 42, 0
3, 75648, Note_on_c, 9, 38, 110
3, 75648, Note_on_c, 9, 42, 110
3, 75742, Note_on_c, 9, 38, 0
3, 75742, Note_on_c, 9, 42, 0
3, 75744, Note_on_c, 9, 42, 110
3, 75838, Note_on_c, 9, 42, 0
3, 75840, Note_on_c, 9, 35, 110
3, 75840, Note_on_c, 9, 42, 110
3, 75934, Note_on_c, 9, 35, 0
3, 75934, Note_on_c, 9, 42, 0
3, 75936, Note_on_c, 9, 35, 110
3, 75936, Note_on_c, 9, 42, 110
3, 76030, Note_on_c, 9, 35, 0
3, 76030, Note_on_c, 9, 42, 0
3, 76032, Note_on_c, 9, 38, 110
3, 76032, Note_on_c, 9, 42, 110
3, 76126, Note_on_c, 9, 38, 0
3, 76126, Note_on_c, 9, 42, 0
3, 76128, Note_on_c, 9, 42, 110
3, 76222, Note_on_c, 9, 42, 0
3, 76224, Note_on_c, 9, 35, 110
3, 76224, Note_on_c, 9, 42, 110
3, 76318, Note_on_c, 9, 35, 0
3, 76318, Note_on_c, 9, 42, 0
3, 76320, Note_on_c, 9, 35, 110
3, 76320, Note_on_c, 9, 42, 110
3, 76414, Note_on_c, 9, 35, 0
3, 76414, Note_on_c, 9, 42, 0
3, 76416, Note_on_c, 9, 38, 110
3, 76416, Note_on_c, 9, 42, 110
3, 76510, Note_on_c, 9, 38, 0
3, 76510, Note_on_c, 9, 42, 0
3, 76512, Note_on_c, 9, 42, 110
3, 76606, Note_on_c, 9, 42, 0
3, 76608, Note_on_c, 9, 35, 110
3, 76608, Note_on_c, 9, 42, 110
3, 76702, Note_on_c, 9, 35, 0
3, 76702, Note_on_c, 9, 42, 0
3, 76704, Note_on_c, 9, 35, 110
3, 76704, Note_on_c, 9, 42, 110
3, 76798, Note_on_c, 9, 35, 0
3, 76798, Note_on_c, 9, 42, 0
3, 76800, Note_on_c, 9, 38, 110
3, 76800, Note_on_c, 9, 42, 110
3, 76894, Note_on_c, 9, 38, 0
3, 76894, Note_on_c, 9, 42, 0
3, 76896, Note_on_c, 9, 42, 110
3, 76990, Note_on_c, 9, 42, 0
3, 76992, Note_on_c, 9, 35, 110
3, 76992, Note_on_c, 9, 42, 110
3, 77086, Note_on_c, 9, 35, 0
3, 77086, Note_on_c, 9, 42, 0
3, 77088, Note_on_c, 9, 35, 110
3, 77088, Note_on_c, 9, 42, 110
3, 77182, Note_on_c, 9, 35, 0
3, 77182, Note_on_c, 9, 42, 0
3, 77184, Note_on_c, 9, 38, 110
3, 77184, Note_on_c, 9, 42, 110
3, 77278, Note_on_c, 9, 38, 0
3, 77278, Note_on_c, 9, 42, 0
3, 77280, Note_on_c, 9, 42, 110
3, 77374, Note_on_c, 9, 42, 0
3, 77376, Note_on_c, 9, 35, 110
3, 77376, Note_on_c, 9, 42, 110
3, 77470, Note_on_c, 9, 35, 0
3, 77470, Note_on_c, 9, 42, 0
3, 77472, Note_on_c, 9, 35, 110
3, 77472, Note_on_c, 9, 42, 110
3, 77566, Note_on_c, 9, 35, 0
3, 77566, Note_on_c, 9, 42, 0
3, 77568, Note_on_c, 9, 38, 110
3, 77568, Note_on_c, 9, 42, 110
3, 77662, Note_on_c, 9, 38, 0
3, 77662, Note_on_c, 9, 42, 0
3, 77664, Note_on_c, 9, 42, 110
3, 77758, Note_on_c, 9, 42, 0
3, 77760, Note_on_c, 9, 35, 110
3, 77760, Note_on_c, 9, 42, 110
3, 77854, Note_on_c, 9, 35, 0
3, 77854, Note_on_c, 9, 42, 0
3, 77856, Note_on_c, 9, 35, 110
3, 77856, Note_on_c, 9, 42, 110
3, 77950, Note_on_c, 9, 35, 0
3, 77950, Note_on_c, 9, 42, 0
3, 77952, Note_on_c, 9, 38, 110
3, 77952, Note_on_c, 9, 42, 110
3, 78046, Note_on_c, 9, 38, 0
3, 78046, Note_on_c, 9, 42, 0
3, 78048, Note_on_c, 9, 42, 110
3, 78142, Note_on_c, 9, 42, 0
3, 78144, Note_on_c, 9, 35, 110
3, 78144, Note_on_c, 9, 42, 110
3, 78238, Note_on_c, 9, 35, 0
3, 78238, Note_on_c, 9, 42, 0
3, 78240, Note_on_c, 9, 35, 110
3, 78240, Note_on_c, 9, 42, 110
3, 78334, Note_on_c, 9, 35, 0
3, 78334, Note_on_c, 9, 42, 0
3, 78336, Note_on_c, 9, 38, 110
3, 78336, Note_on_c, 9, 42, 110
3, 78430, Note_on_c, 9, 38, 0
3, 78430, Note_on_c, 9, 42, 0
3, 78432, Note_on_c, 9, 42, 110
3, 78526, Note_on_c, 9, 42, 0
3, 78528, Note_on_c, 9, 35, 110
3, 78528, Note_on_c, 9, 42, 110
3, 78622, Note_on_c, 9, 35, 0
3, 78622, Note_on_c, 9, 42, 0
3, 78624, Note_on_c, 9, 35, 110
3, 78624, Note_on_c, 9, 42, 110
3, 78718, Note_on_c, 9, 35, 0
3, 78718, Note_on_c, 9, 42, 0
3, 78720, Note_on_c, 9, 38, 110
3, 78720, Note_on_c, 9, 42, 110
3, 78814, Note_on_c, 9, 38, 0
3, 78814, Note_on_c, 9, 42, 0
3, 78816, Note_on_c, 9, 42, 110
3, 78910, Note_on_c, 9, 42, 0
3, 78912, Note_on_c, 9, 35, 110
3, 78912, Note_on_c, 9, 42, 110
3, 79006, Note_on_c, 9, 35, 0
3, 79006, Note_on_c, 9, 42, 0
3, 79008, Note_on_c, 9, 35, 110
3, 79008, Note_on_c, 9, 42, 110
3, 79102, Note_on_c, 9, 35, 0
3, 79102, Note_on_c, 9, 42, 0
3, 79104, Note_on_c, 9, 38, 110
3, 79104, Note_on_c, 9, 42, 110
3, 79198, Note_on_c, 9, 38, 0
3, 79198, Note_on_c, 9, 42, 0
3, 79200, Note_on_c, 9, 37, 110
3, 79200, Note_on_c, 9, 42, 110
3, 79246, Note_on_c, 9, 37, 0
3, 79248, Note_on_c, 9, 37, 110
3, 79294, Note_on_c, 9, 42, 0
3, 79294, Note_on_c, 9, 37, 0
3, 79296, Note_on_c, 9, 35, 110
3, 79296, Note_on_c, 9, 42, 110
3, 79390, Note_on_c, 9, 35, 0
3, 79390, Note_on_c, 9, 42, 0
3, 79392, Note_on_c, 9, 35, 110
3, 79392, Note_on_c, 9, 42, 110
3, 79486, Note_on_c, 9, 35, 0
3, 79486, Note_on_c, 9, 42, 0
3, 79488, Note_on_c, 9, 38, 110
3, 79488, Note_on_c, 9, 42, 110
3, 79582, Note_on_c, 9, 38, 0
3, 79582, Note_on_c, 9, 42, 0
3, 79584, Note_on_c, 9, 42, 110
3, 79678, Note_on_c, 9, 42, 0
3, 79680, Note_on_c, 9, 35, 110
3, 79680, Note_on_c, 9, 42, 110
3, 79774, Note_on_c, 9, 35, 0
3, 79774, Note_on_c, 9, 42, 0
3, 79776, Note_on_c, 9, 35, 110
3, 79776, Note_on_c, 9, 42, 110
3, 79870, Note_on_c, 9, 35, 0
3, 79870, Note_on_c, 9, 42, 0
3, 79872, Note_on_c, 9, 38, 110
3, 79872, Note_on_c, 9, 42, 110
3, 79966, Note_on_c, 9, 38, 0
3, 79966, Note_on_c, 9, 42, 0
3, 79968, Note_on_c, 9, 42, 110
3, 80062, Note_on_c, 9, 42, 0
3, 80064, Note_on_c, 9, 35, 110
3, 80064, Note_on_c, 9, 42, 110
3, 80064, Note_on_c, 9, 57, 110
3, 80158, Note_on_c, 9, 35, 0
3, 80158, Note_on_c, 9, 42, 0
3, 80158, Note_on_c, 9, 57, 0
3, 80160, Note_on_c, 9, 35, 110
3, 80160, Note_on_c, 9, 42, 110
3, 80254, Note_on_c, 9, 35, 0
3, 80254, Note_on_c, 9, 42, 0
3, 80256, Note_on_c, 9, 38, 110
3, 80256, Note_on_c, 9, 42, 110
3, 80350, Note_on_c, 9, 38, 0
3, 80350, Note_on_c, 9, 42, 0
3, 80352, Note_on_c, 9, 42, 110
3, 80446, Note_on_c, 9, 42, 0
3, 80448, Note_on_c, 9, 35, 110
3, 80448, Note_on_c, 9, 42, 110
3, 80542, Note_on_c, 9, 35, 0
3, 80542, Note_on_c, 9, 42, 0
3, 80544, Note_on_c, 9, 35, 110
3, 80544, Note_on_c, 9, 42, 110
3, 80638, Note_on_c, 9, 35, 0
3, 80638, Note_on_c, 9, 42, 0
3, 80640, Note_on_c, 9, 38, 110
3, 80640, Note_on_c, 9, 42, 110
3, 80734, Note_on_c, 9, 38, 0
3, 80734, Note_on_c, 9, 42, 0
3, 80736, Note_on_c, 9, 42, 110
3, 80830, Note_on_c, 9, 42, 0
3, 80832, Note_on_c, 9, 35, 110
3, 80832, Note_on_c, 9, 42, 110
3, 80926, Note_on_c, 9, 35, 0
3, 80926, Note_on_c, 9, 42, 0
3, 80928, Note_on_c, 9, 35, 110
3, 80928, Note_on_c, 9, 42, 110
3, 81022, Note_on_c, 9, 35, 0
3, 81022, Note_on_c, 9, 42, 0
3, 81024, Note_on_c, 9, 38, 110
3, 81024, Note_on_c, 9, 42, 110
3, 81118, Note_on_c, 9, 38, 0
3, 81118, Note_on_c, 9, 42, 0
3, 81120, Note_on_c, 9, 42, 110
3, 81214, Note_on_c, 9, 42, 0
3, 81216, Note_on_c, 9, 35, 110
3, 81216, Note_on_c, 9, 42, 110
3, 81310, Note_on_c, 9, 35, 0
3, 81310, Note_on_c, 9, 42, 0
3, 81312, Note_on_c, 9, 35, 110
3, 81312, Note_on_c, 9, 42, 110
3, 81406, Note_on_c, 9, 35, 0
3, 81406, Note_on_c, 9, 42, 0
3, 81408, Note_on_c, 9, 38, 110
3, 81408, Note_on_c, 9, 42, 110
3, 81502, Note_on_c, 9, 38, 0
3, 81502, Note_on_c, 9, 42, 0
3, 81504, Note_on_c, 9, 37, 110
3, 81504, Note_on_c, 9, 42, 110
3, 81550, Note_on_c, 9, 37, 0
3, 81552, Note_on_c, 9, 37, 110
3, 81598, Note_on_c, 9, 42, 0
3, 81598, Note_on_c, 9, 37, 0
3, 81600, Note_on_c, 9, 35, 110
3, 81600, Note_on_c, 9, 42, 110
3, 81694, Note_on_c, 9, 35, 0
3, 81694, Note_on_c, 9, 42, 0
3, 81696, Note_on_c, 9, 35, 110
3, 81696, Note_on_c, 9, 42, 110
3, 81790, Note_on_c, 9, 35, 0
3, 81790, Note_on_c, 9, 42, 0
3, 81792, Note_on_c, 9, 38, 110
3, 81792, Note_on_c, 9, 42, 110
3, 81886, Note_on_c, 9, 38, 0
3, 81886, Note_on_c, 9, 42, 0
3, 81888, Note_on_c, 9, 42, 110
3, 81982, Note_on_c, 9, 42, 0
3, 81984, Note_on_c, 9, 35, 110
3, 81984, Note_on_c, 9, 42, 110
3, 82078, Note_on_c, 9, 35, 0
3, 82078, Note_on_c, 9, 42, 0
3, 82080, Note_on_c, 9, 35, 110
3, 82080, Note_on_c, 9, 42, 110
3, 82174, Note_on_c, 9, 35, 0
3, 82174, Note_on_c, 9, 42, 0
3, 82176, Note_on_c, 9, 38, 110
3, 82176, Note_on_c, 9, 42, 110
3, 82270, Note_on_c, 9, 38, 0
3, 82270, Note_on_c, 9, 42, 0
3, 82272, Note_on_c, 9, 37, 110
3, 82272, Note_on_c, 9, 42, 110
3, 82318, Note_on_c, 9, 37, 0
3, 82320, Note_on_c, 9, 37, 110
3, 82366, Note_on_c, 9, 42, 0
3, 82366, Note_on_c, 9, 37, 0
3, 82368, Note_on_c, 9, 35, 110
3, 82368, Note_on_c, 9, 42, 110
3, 82462, Note_on_c, 9, 35, 0
3, 82462, Note_on_c, 9, 42, 0
3, 82464, Note_on_c, 9, 35, 110
3, 82464, Note_on_c, 9, 42, 110
3, 82558, Note_on_c, 9, 35, 0
3, 82558, Note_on_c, 9, 42, 0
3, 82560, Note_on_c, 9, 38, 110
3, 82560, Note_on_c, 9, 42, 110
3, 82654, Note_on_c, 9, 38, 0
3, 82654, Note_on_c, 9, 42, 0
3, 82656, Note_on_c, 9, 42, 110
3, 82750, Note_on_c, 9, 42, 0
3, 82752, Note_on_c, 9, 35, 110
3, 82752, Note_on_c, 9, 42, 110
3, 82846, Note_on_c, 9, 35, 0
3, 82846, Note_on_c, 9, 42, 0
3, 82848, Note_on_c, 9, 35, 110
3, 82848, Note_on_c, 9, 42, 110
3, 82942, Note_on_c, 9, 35, 0
3, 82942, Note_on_c, 9, 42, 0
3, 82944, Note_on_c, 9, 38, 110
3, 82944, Note_on_c, 9, 42, 110
3, 83038, Note_on_c, 9, 38, 0
3, 83038, Note_on_c, 9, 42, 0
3, 83040, Note_on_c, 9, 42, 110
3, 83134, Note_on_c, 9, 42, 0
3, 83136, Note_on_c, 9, 35, 110
3, 83136, Note_on_c, 9, 42, 110
3, 83230, Note_on_c, 9, 35, 0
3, 83230, Note_on_c, 9, 42, 0
3, 83232, Note_on_c, 9, 35, 110
3, 83232, Note_on_c, 9, 42, 110
3, 83326, Note_on_c, 9, 35, 0
3, 83326, Note_on_c, 9, 42, 0
3, 83328, Note_on_c, 9, 38, 110
3, 83328, Note_on_c, 9, 42, 110
3, 83422, Note_on_c, 9, 38, 0
3, 83422, Note_on_c, 9, 42, 0
3, 83424, Note_on_c, 9, 42, 110
3, 83518, Note_on_c, 9, 42, 0
3, 83520, Note_on_c, 9, 35, 110
3, 83520, Note_on_c, 9, 42, 110
3, 83614, Note_on_c, 9, 35, 0
3, 83614, Note_on_c, 9, 42, 0
3, 83616, Note_on_c, 9, 35, 110
3, 83616, Note_on_c, 9, 42, 110
3, 83710, Note_on_c, 9, 35, 0
3, 83710, Note_on_c, 9, 42, 0
3, 83712, Note_on_c, 9, 38, 110
3, 83712, Note_on_c, 9, 42, 110
3, 83806, Note_on_c, 9, 38, 0
3, 83806, Note_on_c, 9, 42, 0
3, 83808, Note_on_c, 9, 42, 110
3, 83902, Note_on_c, 9, 42, 0
3, 83904, Note_on_c, 9, 35, 110
3, 83904, Note_on_c, 9, 42, 110
3, 83998, Note_on_c, 9, 35, 0
3, 83998, Note_on_c, 9, 42, 0
3, 84000, Note_on_c, 9, 35, 110
3, 84000, Note_on_c, 9, 42, 110
3, 84094, Note_on_c, 9, 35, 0
3, 84094, Note_on_c, 9, 42, 0
3, 84096, Note_on_c, 9, 38, 110
3, 84096, Note_on_c, 9, 42, 110
3, 84190, Note_on_c, 9, 38, 0
3, 84190, Note_on_c, 9, 42, 0
3, 84192, Note_on_c, 9, 42, 110
3, 84286, Note_on_c, 9, 42, 0
3, 84288, Note_on_c, 9, 35, 110
3, 84288, Note_on_c, 9, 42, 110
3, 84382, Note_on_c, 9, 35, 0
3, 84382, Note_on_c, 9, 42, 0
3, 84384, Note_on_c, 9, 35, 110
3, 84384, Note_on_c, 9, 42, 110
3, 84478, Note_on_c, 9, 35, 0
3, 84478, Note_on_c, 9, 42, 0
3, 84480, Note_on_c, 9, 38, 110
3, 84480, Note_on_c, 9, 42, 110
3, 84574, Note_on_c, 9, 38, 0
3, 84574, Note_on_c, 9, 42, 0
3, 84576, Note_on_c, 9, 42, 110
3, 84670, Note_on_c, 9, 42, 0
3, 84672, Note_on_c, 9, 35, 110
3, 84672, Note_on_c, 9, 42, 110
3, 84766, Note_on_c, 9, 35, 0
3, 84766, Note_on_c, 9, 42, 0
3, 84768, Note_on_c, 9, 35, 110
3, 84768, Note_on_c, 9, 42, 110
3, 84862, Note_on_c, 9, 35, 0
3, 84862, Note_on_c, 9, 42, 0
3, 84864, Note_on_c, 9, 38, 110
3, 84864, Note_on_c, 9, 42, 110
3, 84958, Note_on_c, 9, 38, 0
3, 84958, Note_on_c, 9, 42, 0
3, 84960, Note_on_c, 9, 42, 110
3, 85054, Note_on_c, 9, 42, 0
3, 85056, Note_on_c, 9, 35, 110
3, 85056, Note_on_c, 9, 42, 110
3, 85150, Note_on_c, 9, 35, 0
3, 85150, Note_on_c, 9, 42, 0
3, 85152, Note_on_c, 9, 35, 110
3, 85152, Note_on_c, 9, 42, 110
3, 85246, Note_on_c, 9, 35, 0
3, 85246, Note_on_c, 9, 42, 0
3, 85248, Note_on_c, 9, 38, 110
3, 85248, Note_on_c, 9, 42, 110
3, 85342, Note_on_c, 9, 38, 0
3, 85342, Note_on_c, 9, 42, 0
3, 85344, Note_on_c, 9, 42, 110
3, 85438, Note_on_c, 9, 42, 0
3, 85440, Note_on_c, 9, 35, 110
3, 85440, Note_on_c, 9, 42, 110
3, 85534, Note_on_c, 9, 35, 0
3, 85534, Note_on_c, 9, 42, 0
3, 85536, Note_on_c, 9, 35, 110
3, 85536, Note_on_c, 9, 42, 110
3, 85630, Note_on_c, 9, 35, 0
3, 85630, Note_on_c, 9, 42, 0
3, 85632, Note_on_c, 9, 38, 110
3, 85632, Note_on_c, 9, 42, 110
3, 85726, Note_on_c, 9, 38, 0
3, 85726, Note_on_c, 9, 42, 0
3, 85728, Note_on_c, 9, 42, 110
3, 85822, Note_on_c, 9, 42, 0
3, 85824, Note_on_c, 9, 35, 110
3, 85824, Note_on_c, 9, 42, 110
3, 85918, Note_on_c, 9, 35, 0
3, 85918, Note_on_c, 9, 42, 0
3, 85920, Note_on_c, 9, 35, 110
3, 85920, Note_on_c, 9, 42, 110
3, 86014, Note_on_c, 9, 35, 0
3, 86014, Note_on_c, 9, 42, 0
3, 86016, Note_on_c, 9, 38, 110
3, 86016, Note_on_c, 9, 42, 110
3, 86110, Note_on_c, 9, 38, 0
3, 86110, Note_on_c, 9, 42, 0
3, 86112, Note_on_c, 9, 42, 110
3, 86206, Note_on_c, 9, 42, 0
3, 86208, Note_on_c, 9, 35, 110
3, 86208, Note_on_c, 9, 42, 110
3, 86302, Note_on_c, 9, 35, 0
3, 86302, Note_on_c, 9, 42, 0
3, 86304, Note_on_c, 9, 35, 110
3, 86304, Note_on_c, 9, 42, 110
3, 86398, Note_on_c, 9, 35, 0
3, 86398, Note_on_c, 9, 42, 0
3, 86400, Note_on_c, 9, 38, 110
3, 86400, Note_on_c, 9, 42, 110
3, 86494, Note_on_c, 9, 38, 0
3, 86494, Note_on_c, 9, 42, 0
3, 86496, Note_on_c, 9, 42, 110
3, 86590, Note_on_c, 9, 42, 0
3, 86592, Note_on_c, 9, 35, 110
3, 86592, Note_on_c, 9, 42, 110
3, 86686, Note_on_c, 9, 35, 0
3, 86686, Note_on_c, 9, 42, 0
3, 86688, Note_on_c, 9, 35, 110
3, 86688, Note_on_c, 9, 42, 110
3, 86782, Note_on_c, 9, 35, 0
3, 86782, Note_on_c, 9, 42, 0
3, 86784, Note_on_c, 9, 38, 110
3, 86784, Note_on_c, 9, 42, 110
3, 86878, Note_on_c, 9, 38, 0
3, 86878, Note_on_c, 9, 42, 0
3, 86880, Note_on_c, 9, 42, 110
3, 86974, Note_on_c, 9, 42, 0
3, 86976, Note_on_c, 9, 35, 110
3, 86976, Note_on_c, 9, 42, 110
3, 87070, Note_on_c, 9, 35, 0
3, 87070, Note_on_c, 9, 42, 0
3, 87072, Note_on_c, 9, 35, 110
3, 87072, Note_on_c, 9, 42, 110
3, 87166, Note_on_c, 9, 35, 0
3, 87166, Note_on_c, 9, 42, 0
3, 87168, Note_on_c, 9, 38, 110
3, 87168, Note_on_c, 9, 42, 110
3, 87262, Note_on_c, 9, 38, 0
3, 87262, Note_on_c, 9, 42, 0
3, 87264, Note_on_c, 9, 42, 110
3, 87358, Note_on_c, 9, 42, 0
3, 87360, Note_on_c, 9, 35, 110
3, 87360, Note_on_c, 9, 42, 110
3, 87454, Note_on_c, 9, 35, 0
3, 87454, Note_on_c, 9, 42, 0
3, 87456, Note_on_c, 9, 35, 110
3, 87456, Note_on_c, 9, 42, 110
3, 87550, Note_on_c, 9, 35, 0
3, 87550, Note_on_c, 9, 42, 0
3, 87552, Note_on_c, 9, 38, 110
3, 87552, Note_on_c, 9, 42, 110
3, 87646, Note_on_c, 9, 38, 0
3, 87646, Note_on_c, 9, 42, 0
3, 87648, Note_on_c, 9, 37, 110
3, 87648, Note_on_c, 9, 42, 110
3, 87694, Note_on_c, 9, 37, 0
3, 87696, Note_on_c, 9, 37, 110
3, 87742, Note_on_c, 9, 42, 0
3, 87742, Note_on_c, 9, 37, 0
3, 87744, Note_on_c, 9, 35, 110
3, 87744, Note_on_c, 9, 42, 110
3, 87838, Note_on_c, 9, 35, 0
3, 87838, Note_on_c, 9, 42, 0
3, 87840, Note_on_c, 9, 35, 110
3, 87840, Note_on_c, 9, 42, 110
3, 87934, Note_on_c, 9, 35, 0
3, 87934, Note_on_c, 9, 42, 0
3, 87936, Note_on_c, 9, 38, 110
3, 87936, Note_on_c, 9, 42, 110
3, 88030, Note_on_c, 9, 38, 0
3, 88030, Note_on_c, 9, 42, 0
3, 88032, Note_on_c, 9, 42, 110
3, 88126, Note_on_c, 9, 42, 0
3, 88128, Note_on_c, 9, 35, 110
3, 88128, Note_on_c, 9, 42, 110
3, 88222, Note_on_c, 9, 35, 0
3, 88222, Note_on_c, 9, 42, 0
3, 88224, Note_on_c, 9, 35, 110
3, 88224, Note_on_c, 9, 42, 110
3, 88318, Note_on_c, 9, 35, 0
3, 88318, Note_on_c, 9, 42, 0
3, 88320, Note_on_c, 9, 38, 110
3, 88320, Note_on_c, 9, 42, 110
3, 88414, Note_on_c, 9, 38, 0
3, 88414, Note_on_c, 9, 42, 0
3, 88416, Note_on_c, 9, 37, 110
3, 88416, Note_on_c, 9, 42, 110
3, 88462, Note_on_c, 9, 37, 0
3, 88464, Note_on_c, 9, 37, 110
3, 88510, Note_on_c, 9, 42, 0
3, 88510, Note_on_c, 9, 37, 0
3, 88512, Note_on_c, 9, 35, 110
3, 88512, Note_on_c, 9, 42, 110
3, 88606, Note_on_c, 9, 35, 0
3, 88606, Note_on_c, 9, 42, 0
3, 88608, Note_on_c, 9, 35, 110
3, 88608, Note_on_c, 9, 42, 110
3, 88702, Note_on_c, 9, 35, 0
3, 88702, Note_on_c, 9, 42, 0
3, 88704, Note_on_c, 9, 38, 110
3, 88704, Note_on_c, 9, 42, 110
3, 88798, Note_on_c, 9, 38, 0
3, 88798, Note_on_c, 9, 42, 0
3, 88800, Note_on_c, 9, 42, 110
3, 88894, Note_on_c, 9, 42, 0
3, 88896, Note_on_c, 9, 35, 110
3, 88896, Note_on_c, 9, 42, 110
3, 88990, Note_on_c, 9, 35, 0
3, 88990, Note_on_c, 9, 42, 0
3, 88992, Note_on_c, 9, 35, 110
3, 88992, Note_on_c, 9, 42, 110
3, 89086, Note_on_c, 9, 35, 0
3, 89086, Note_on_c, 9, 42, 0
3, 89088, Note_on_c, 9, 38, 110
3, 89088, Note_on_c, 9, 42, 110
3, 89182, Note_on_c, 9, 38, 0
3, 89182, Note_on_c, 9, 42, 0
3, 89184, Note_on_c, 9, 42, 110
3, 89278, Note_on_c, 9, 42, 0
3, 89280, Note_on_c, 9, 35, 110
3, 89280, Note_on_c, 9, 42, 110
3, 89374, Note_on_c, 9, 35, 0
3, 89374, Note_on_c, 9, 42, 0
3, 89376, Note_on_c, 9, 35, 110
3, 89376, Note_on_c, 9, 42, 110
3, 89470, Note_on_c, 9, 35, 0
3, 89470, Note_on_c, 9, 42, 0
3, 89472, Note_on_c, 9, 38, 110
3, 89472, Note_on_c, 9, 42, 110
3, 89566, Note_on_c, 9, 38, 0
3, 89566, Note_on_c, 9, 42, 0
3, 89568, Note_on_c, 9, 42, 110
3, 89662, Note_on_c, 9, 42, 0
3, 89664, Note_on_c, 9, 35, 110
3, 89664, Note_on_c, 9, 42, 110
3, 89758, Note_on_c, 9, 35, 0
3, 89758, Note_on_c, 9, 42, 0
3, 89760, Note_on_c, 9, 35, 110
3, 89760, Note_on_c, 9, 42, 110
3, 89854, Note_on_c, 9, 35, 0
3, 89854, Note_on_c, 9, 42, 0
3, 89856, Note_on_c, 9, 38, 110
3, 89856, Note_on_c, 9, 42, 110
3, 89950, Note_on_c, 9, 38, 0
3, 89950, Note_on_c, 9, 42, 0
3, 89952, Note_on_c, 9, 42, 110
3, 90046, Note_on_c, 9, 42, 0
3, 90048, Note_on_c, 9, 35, 110
3, 90048, Note_on_c, 9, 42, 110
3, 90142, Note_on_c, 9, 35, 0
3, 90142, Note_on_c, 9, 42, 0
3, 90144, Note_on_c, 9, 35, 110
3, 90144, Note_on_c, 9, 42, 110
3, 90238, Note_on_c, 9, 35, 0
3, 90238, Note_on_c, 9, 42, 0
3, 90240, Note_on_c, 9, 38, 110
3, 90240, Note_on_c, 9, 42, 110
3, 90334, Note_on_c, 9, 38, 0
3, 90334, Note_on_c, 9, 42, 0
3, 90336, Note_on_c, 9, 42, 110
3, 90430, Note_on_c, 9, 42, 0
3, 90432, Note_on_c, 9, 35, 110
3, 90432, Note_on_c, 9, 42, 110
3, 90526, Note_on_c, 9, 35, 0
3, 90526, Note_on_c, 9, 42, 0
3, 90528, Note_on_c, 9, 35, 110
3, 90528, Note_on_c, 9, 42, 110
3, 90622, Note_on_c, 9, 35, 0
3, 90622, Note_on_c, 9, 42, 0
3, 90624, Note_on_c, 9, 38, 110
3, 90624, Note_on_c, 9, 42, 110
3, 90718, Note_on_c, 9, 38, 0
3, 90718, Note_on_c, 9, 42, 0
3, 90720, Note_on_c, 9, 42, 110
3, 90814, Note_on_c, 9, 42, 0
3, 90816, Note_on_c, 9, 35, 110
3, 90816, Note_on_c, 9, 42, 110
3, 90910, Note_on_c, 9, 35, 0
3, 90910, Note_on_c, 9, 42, 0
3, 90912, Note_on_c, 9, 35, 110
3, 90912, Note_on_c, 9, 42, 110
3, 91006, Note_on_c, 9, 35, 0
3, 91006, Note_on_c, 9, 42, 0
3, 91008, Note_on_c, 9, 38, 110
3, 91008, Note_on_c, 9, 42, 110
3, 91102, Note_on_c, 9, 38, 0
3, 91102, Note_on_c, 9, 42, 0
3, 91104, Note_on_c, 9, 42, 110
3, 91198, Note_on_c, 9, 42, 0
3, 91200, Note_on_c, 9, 35, 110
3, 91200, Note_on_c, 9, 42, 110
3, 91294, Note_on_c, 9, 35, 0
3, 91294, Note_on_c, 9, 42, 0
3, 91296, Note_on_c, 9, 35, 110
3, 91296, Note_on_c, 9, 42, 110
3, 91390, Note_on_c, 9, 35, 0
3, 91390, Note_on_c, 9, 42, 0
3, 91392, Note_on_c, 9, 38, 110
3, 91392, Note_on_c, 9, 42, 110
3, 91486, Note_on_c, 9, 38, 0
3, 91486, Note_on_c, 9, 42, 0
3, 91488, Note_on_c, 9, 42, 110
3, 91582, Note_on_c, 9, 42, 0
3, 91584, Note_on_c, 9, 35, 110
3, 91584, Note_on_c, 9, 42, 110
3, 91678, Note_on_c, 9, 35, 0
3, 91678, Note_on_c, 9, 42, 0
3, 91680, Note_on_c, 9, 35, 110
3, 91680, Note_on_c, 9, 42, 110
3, 91774, Note_on_c, 9, 35, 0
3, 91774, Note_on_c, 9, 42, 0
3, 91776, Note_on_c, 9, 38, 110
3, 91776, Note_on_c, 9, 42, 110
3, 91870, Note_on_c, 9, 38, 0
3, 91870, Note_on_c, 9, 42, 0
3, 91872, Note_on_c, 9, 42, 110
3, 91966, Note_on_c, 9, 42, 0
3, 91968, Note_on_c, 9, 35, 110
3, 91968, Note_on_c, 9, 42, 110
3, 92062, Note_on_c, 9, 35, 0
3, 92062, Note_on_c, 9, 42, 0
3, 92064, Note_on_c, 9, 35, 110
3, 92064, Note_on_c, 9, 42, 110
3, 92158, Note_on_c, 9, 35, 0
3, 92158, Note_on_c, 9, 42, 0
3, 92160, Note_on_c, 9, 38, 110
3, 92160, Note_on_c, 9, 42, 110
3, 92254, Note_on_c, 9, 38, 0
3, 92254, Note_on_c, 9, 42, 0
3, 92256, Note_on_c, 9, 42, 110
3, 92350, Note_on_c, 9, 42, 0
3, 92352, Note_on_c, 9, 35, 110
3, 92352, Note_on_c, 9, 42, 110
3, 92446, Note_on_c, 9, 35, 0
3, 92446, Note_on_c, 9, 42, 0
3, 92448, Note_on_c, 9, 35, 110
3, 92448, Note_on_c, 9, 42, 110
3, 92542, Note_on_c, 9, 35, 0
3, 92542, Note_on_c, 9, 42, 0
3, 92544, Note_on_c, 9, 38, 110
3, 92544, Note_on_c, 9, 42, 110
3, 92638, Note_on_c, 9, 38, 0
3, 92638, Note_on_c, 9, 42, 0
3, 92640, Note_on_c, 9, 42, 110
3, 92734, Note_on_c, 9, 42, 0
3, 92736, Note_on_c, 9, 35, 110
3, 92736, Note_on_c, 9, 42, 110
3, 92830, Note_on_c, 9, 35, 0
3, 92830, Note_on_c, 9, 42, 0
3, 92832, Note_on_c, 9, 35, 110
3, 92832, Note_on_c, 9, 42, 110
3, 92926, Note_on_c, 9, 35, 0
3, 92926, Note_on_c, 9, 42, 0
3, 92928, Note_on_c, 9, 38, 110
3, 92928, Note_on_c, 9, 42, 110
3, 93022, Note_on_c, 9, 38, 0
3, 93022, Note_on_c, 9, 42, 0
3, 93024, Note_on_c, 9, 42, 110
3, 93118, Note_on_c, 9, 42, 0
3, 93120, Note_on_c, 9, 35, 110
3, 93120, Note_on_c, 9, 42, 110
3, 93214, Note_on_c, 9, 35, 0
3, 93214, Note_on_c, 9, 42, 0
3, 93216, Note_on_c, 9, 35, 110
3, 93216, Note_on_c, 9, 42, 110
3, 93310, Note_on_c, 9, 35, 0
3, 93310, Note_on_c, 9, 42, 0
3, 93312, Note_on_c, 9, 38, 110
3, 93312, Note_on_c, 9, 42, 110
3, 93406, Note_on_c, 9, 38, 0
3, 93406, Note_on_c, 9, 42, 0
3, 93408, Note_on_c, 9, 42, 110
3, 93502, Note_on_c, 9, 42, 0
3, 93504, Note_on_c, 9, 35, 110
3, 93504, Note_on_c, 9, 42, 110
3, 93598, Note_on_c, 9, 35, 0
3, 93598, Note_on_c, 9, 42, 0
3, 93600, Note_on_c, 9, 35, 110
3, 93600, Note_on_c, 9, 42, 110
3, 93694, Note_on_c, 9, 35, 0
3, 93694, Note_on_c, 9, 42, 0
3, 93696, Note_on_c, 9, 38, 110
3, 93696, Note_on_c, 9, 42, 110
3, 93790, Note_on_c, 9, 38, 0
3, 93790, Note_on_c, 9, 42, 0
3, 93792, Note_on_c, 9, 42, 110
3, 93886, Note_on_c, 9, 42, 0
3, 93888, Note_on_c, 9, 35, 110
3, 93888, Note_on_c, 9, 42, 110
3, 93982, Note_on_c, 9, 35, 0
3, 93982, Note_on_c, 9, 42, 0
3, 93984, Note_on_c, 9, 35, 110
3, 93984, Note_on_c, 9, 42, 110
3, 94078, Note_on_c, 9, 35, 0
3, 94078, Note_on_c, 9, 42, 0
3, 94080, Note_on_c, 9, 38, 110
3, 94080, Note_on_c, 9, 42, 110
3, 94174, Note_on_c, 9, 38, 0
3, 94174, Note_on_c, 9, 42, 0
3, 94176, Note_on_c, 9, 42, 110
3, 94270, Note_on_c, 9, 42, 0
3, 94272, Note_on_c, 9, 38, 110
3, 94366, Note_on_c, 9, 38, 0
3, 94368, Note_on_c, 9, 45, 110
3, 94414, Note_on_c, 9, 45, 0
3, 94416, Note_on_c, 9, 45, 110
3, 94462, Note_on_c, 9, 45, 0
3, 94464, Note_on_c, 9, 38, 110
3, 94510, Note_on_c, 9, 38, 0
3, 94512, Note_on_c, 9, 38, 110
3, 94558, Note_on_c, 9, 38, 0
3, 94560, Note_on_c, 9, 45, 110
3, 94606, Note_on_c, 9, 45, 0
3, 94608, Note_on_c, 9, 45, 110
3, 94654, Note_on_c, 9, 45, 0
3, 94656, Note_on_c, 9, 35, 110
3, 94656, Note_on_c, 9, 42, 110
3, 94656, Note_on_c, 9, 57, 110
3, 94750, Note_on_c, 9, 35, 0
3, 94750, Note_on_c, 9, 42, 0
3, 94750, Note_on_c, 9, 57, 0
3, 94752, Note_on_c, 9, 35, 110
3, 94752, Note_on_c, 9, 42, 110
3, 94846, Note_on_c, 9, 35, 0
3, 94846, Note_on_c, 9, 42, 0
3, 94848, Note_on_c, 9, 38, 110
3, 94848, Note_on_c, 9, 42, 110
3, 94942, Note_on_c, 9, 38, 0
3, 94942, Note_on_c, 9, 42, 0
3, 94944, Note_on_c, 9, 42, 110
3, 95038, Note_on_c, 9, 42, 0
3, 95040, Note_on_c, 9, 35, 110
3, 95040, Note_on_c, 9, 42, 110
3, 95134, Note_on_c, 9, 35, 0
3, 95134, Note_on_c, 9, 42, 0
3, 95136, Note_on_c, 9, 35, 110
3, 95136, Note_on_c, 9, 42, 110
3, 95230, Note_on_c, 9, 35, 0
3, 95230, Note_on_c, 9, 42, 0
3, 95232, Note_on_c, 9, 38, 110
3, 95232, Note_on_c, 9, 42, 110
3, 95326, Note_on_c, 9, 38, 0
3, 95326, Note_on_c, 9, 42, 0
3, 95328, Note_on_c, 9, 42, 110
3, 95422, Note_on_c, 9, 42, 0
3, 95424, Note_on_c, 9, 35, 110
3, 95424, Note_on_c, 9, 42, 110
3, 95518, Note_on_c, 9, 35, 0
3, 95518, Note_on_c, 9, 42, 0
3, 95520, Note_on_c, 9, 35, 110
3, 95520, Note_on_c, 9, 42, 110
3, 95614, Note_on_c, 9, 35, 0
3, 95614, Note_on_c, 9, 42, 0
3, 95616, Note_on_c, 9, 38, 110
3, 95616, Note_on_c, 9, 42, 110
3, 95710, Note_on_c, 9, 38, 0
3, 95710, Note_on_c, 9, 42, 0
3, 95712, Note_on_c, 9, 42, 110
3, 95806, Note_on_c, 9, 42, 0
3, 95808, Note_on_c, 9, 35, 110
3, 95808, Note_on_c, 9, 42, 110
3, 95902, Note_on_c, 9, 35, 0
3, 95902, Note_on_c, 9, 42, 0
3, 95904, Note_on_c, 9, 35, 110
3, 95904, Note_on_c, 9, 42, 110
3, 95998, Note_on_c, 9, 35, 0
3, 95998, Note_on_c, 9, 42, 0
3, 96000, Note_on_c, 9, 38, 110
3, 96000, Note_on_c, 9, 42, 110
3, 96094, Note_on_c, 9, 38, 0
3, 96094, Note_on_c, 9, 42, 0
3, 96096, Note_on_c, 9, 42, 110
3, 96190, Note_on_c, 9, 42, 0
3, 96192, Note_on_c, 9, 35, 110
3, 96192, Note_on_c, 9, 42, 110
3, 96286, Note_on_c, 9, 35, 0
3, 96286, Note_on_c, 9, 42, 0
3, 96288, Note_on_c, 9, 35, 110
3, 96288, Note_on_c, 9, 42, 110
3, 96382, Note_on_c, 9, 35, 0
3, 96382, Note_on_c, 9, 42, 0
3, 96384, Note_on_c, 9, 38, 110
3, 96384, Note_on_c, 9, 42, 110
3, 96478, Note_on_c, 9, 38, 0
3, 96478, Note_on_c, 9, 42, 0
3, 96480, Note_on_c, 9, 42, 110
3, 96574, Note_on_c, 9, 42, 0
3, 96576, Note_on_c, 9, 35, 110
3, 96576, Note_on_c, 9, 42, 110
3, 96670, Note_on_c, 9, 35, 0
3, 96670, Note_on_c, 9, 42, 0
3, 96672, Note_on_c, 9, 35, 110
3, 96672, Note_on_c, 9, 42, 110
3, 96766, Note_on_c, 9, 35, 0
3, 96766, Note_on_c, 9, 42, 0
3, 96768, Note_on_c, 9, 38, 110
3, 96768, Note_on_c, 9, 42, 110
3, 96862, Note_on_c, 9, 38, 0
3, 96862, Note_on_c, 9, 42, 0
3, 96864, Note_on_c, 9, 42, 110
3, 96958, Note_on_c, 9, 42, 0
3, 96960, Note_on_c, 9, 35, 110
3, 96960, Note_on_c, 9, 42, 110
3, 97054, Note_on_c, 9, 35, 0
3, 97054, Note_on_c, 9, 42, 0
3, 97056, Note_on_c, 9, 35, 110
3, 97056, Note_on_c, 9, 42, 110
3, 97150, Note_on_c, 9, 35, 0
3, 97150, Note_on_c, 9, 42, 0
3, 97152, Note_on_c, 9, 38, 110
3, 97152, Note_on_c, 9, 42, 110
3, 97246, Note_on_c, 9, 38, 0
3, 97246, Note_on_c, 9, 42, 0
3, 97248, Note_on_c, 9, 42, 110
3, 97342, Note_on_c, 9, 42, 0
3, 97344, Note_on_c, 9, 35, 110
3, 97344, Note_on_c, 9, 42, 110
3, 97438, Note_on_c, 9, 35, 0
3, 97438, Note_on_c, 9, 42, 0
3, 97440, Note_on_c, 9, 35, 110
3, 97440, Note_on_c, 9, 42, 110
3, 97534, Note_on_c, 9, 35, 0
3, 97534, Note_on_c, 9, 42, 0
3, 97536, Note_on_c, 9, 38, 110
3, 97536, Note_on_c, 9, 42, 110
3, 97630, Note_on_c, 9, 38, 0
3, 97630, Note_on_c, 9, 42, 0
3, 97632, Note_on_c, 9, 42, 110
3, 97726, Note_on_c, 9, 42, 0
3, 97728, Note_on_c, 9, 35, 110
3, 97728, Note_on_c, 9, 42, 110
3, 97822, Note_on_c, 9, 35, 0
3, 97822, Note_on_c, 9, 42, 0
3, 97824, Note_on_c, 9, 35, 110
3, 97824, Note_on_c, 9, 42, 110
3, 97918, Note_on_c, 9, 35, 0
3, 97918, Note_on_c, 9, 42, 0
3, 97920, Note_on_c, 9, 38, 110
3, 97920, Note_on_c, 9, 42, 110
3, 98014, Note_on_c, 9, 38, 0
3, 98014, Note_on_c, 9, 42, 0
3, 98016, Note_on_c, 9, 42, 110
3, 98110, Note_on_c, 9, 42, 0
3, 98112, Note_on_c, 9, 35, 110
3, 98112, Note_on_c, 9, 42, 110
3, 98206, Note_on_c, 9, 35, 0
3, 98206, Note_on_c, 9, 42, 0
3, 98208, Note_on_c, 9, 35, 110
3, 98208, Note_on_c, 9, 42, 110
3, 98302, Note_on_c, 9, 35, 0
3, 98302, Note_on_c, 9, 42, 0
3, 98304, Note_on_c, 9, 38, 110
3, 98304, Note_on_c, 9, 42, 110
3, 98398, Note_on_c, 9, 38, 0
3, 98398, Note_on_c, 9, 42, 0
3, 98400, Note_on_c, 9, 42, 110
3, 98494, Note_on_c, 9, 42, 0
3, 98496, Note_on_c, 9, 35, 110
3, 98496, Note_on_c, 9, 42, 110
3, 98590, Note_on_c, 9, 35, 0
3, 98590, Note_on_c, 9, 42, 0
3, 98592, Note_on_c, 9, 35, 110
3, 98592, Note_on_c, 9, 42, 110
3, 98686, Note_on_c, 9, 35, 0
3, 98686, Note_on_c, 9, 42, 0
3, 98688, Note_on_c, 9, 38, 110
3, 98688, Note_on_c, 9, 42, 110
3, 98782, Note_on_c, 9, 38, 0
3, 98782, Note_on_c, 9, 42, 0
3, 98784, Note_on_c, 9, 42, 110
3, 98878, Note_on_c, 9, 42, 0
3, 98880, Note_on_c, 9, 38, 110
3, 98974, Note_on_c, 9, 38, 0
3, 98976, Note_on_c, 9, 45, 110
3, 99022, Note_on_c, 9, 45, 0
3, 99024, Note_on_c, 9, 45, 110
3, 99070, Note_on_c, 9, 45, 0
3, 99072, Note_on_c, 9, 38, 110
3, 99118, Note_on_c, 9, 38, 0
3, 99120, Note_on_c, 9, 38, 110
3, 99166, Note_on_c, 9, 38, 0
3, 99168, Note_on_c, 9, 45, 110
3, 99214, Note_on_c, 9, 45, 0
3, 99216, Note_on_c, 9, 45, 110
3, 99262, Note_on_c, 9, 45, 0
3, 99264, Note_on_c, 9, 35, 110
3, 99264, Note_on_c, 9, 42, 110
3, 99264, Note_on_c, 9, 57, 110
3, 99358, Note_on_c, 9, 35, 0
3, 99358, Note_on_c, 9, 42, 0
3, 99358, Note_on_c, 9, 57, 0
3, 99360, Note_on_c, 9, 35, 110
3, 99360, Note_on_c, 9, 42, 110
3, 99454, Note_on_c, 9, 35, 0
3, 99454, Note_on_c, 9, 42, 0
3, 99456, Note_on_c, 9, 38, 110
3, 99456, Note_on_c, 9, 42, 110
3, 99550, Note_on_c, 9, 38, 0
3, 99550, Note_on_c, 9, 42, 0
3, 99552, Note_on_c, 9, 42, 110
3, 99646, Note_on_c, 9, 42, 0
3, 99648, Note_on_c, 9, 35, 110
3, 99648, Note_on_c, 9, 42, 110
3, 99742, Note_on_c, 9, 35, 0
3, 99742, Note_on_c, 9, 42, 0
3, 99744, Note_on_c, 9, 35, 110
3, 99744, Note_on_c, 9, 42, 110
3, 99838, Note_on_c, 9, 35, 0
3, 99838, Note_on_c, 9, 42, 0
3, 99840, Note_on_c, 9, 38, 110
3, 99840, Note_on_c, 9, 42, 110
3, 99934, Note_on_c, 9, 38, 0
3, 99934, Note_on_c, 9, 42, 0
3, 99936, Note_on_c, 9, 42, 110
3, 100030, Note_on_c, 9, 42, 0
3, 100032, Note_on_c, 9, 35, 110
3, 100032, Note_on_c, 9, 42, 110
3, 100126, Note_on_c, 9, 35, 0
3, 100126, Note_on_c, 9, 42, 0
3, 100128, Note_on_c, 9, 35, 110
3, 100128, Note_on_c, 9, 42, 110
3, 100222, Note_on_c, 9, 35, 0
3, 100222, Note_on_c, 9, 42, 0
3, 100224, Note_on_c, 9, 38, 110
3, 100224, Note_on_c, 9, 42, 110
3, 100318, Note_on_c, 9, 38, 0
3, 100318, Note_on_c, 9, 42, 0
3, 100320, Note_on_c, 9, 42, 110
3, 100414, Note_on_c, 9, 42, 0
3, 100416, Note_on_c, 9, 35, 110
3, 100416, Note_on_c, 9, 42, 110
3, 100510, Note_on_c, 9, 35, 0
3, 100510, Note_on_c, 9, 42, 0
3, 100512, Note_on_c, 9, 35, 110
3, 100512, Note_on_c, 9, 42, 110
3, 100606, Note_on_c, 9, 35, 0
3, 100606, Note_on_c, 9, 42, 0
3, 100608, Note_on_c, 9, 38, 110
3, 100608, Note_on_c, 9, 42, 110
3, 100702, Note_on_c, 9, 38, 0
3, 100702, Note_on_c, 9, 42, 0
3, 100704, Note_on_c, 9, 42, 110
3, 100798, Note_on_c, 9, 42, 0
3, 100800, Note_on_c, 9, 35, 110
3, 100800, Note_on_c, 9, 42, 110
3, 100894, Note_on_c, 9, 35, 0
3, 100894, Note_on_c, 9, 42, 0
3, 100896, Note_on_c, 9, 35, 110
3, 100896, Note_on_c, 9, 42, 110
3, 100990, Note_on_c, 9, 35, 0
3, 100990, Note_on_c, 9, 42, 0
3, 100992, Note_on_c, 9, 38, 110
3, 100992, Note_on_c, 9, 42, 110
3, 101086, Note_on_c, 9, 38, 0
3, 101086, Note_on_c, 9, 42, 0
3, 101088, Note_on_c, 9, 42, 110
3, 101182, Note_on_c, 9, 42, 0
3, 101184, Note_on_c, 9, 35, 110
3, 101184, Note_on_c, 9, 42, 110
3, 101278, Note_on_c, 9, 35, 0
3, 101278, Note_on_c, 9, 42, 0
3, 101280, Note_on_c, 9, 35, 110
3, 101280, Note_on_c, 9, 42, 110
3, 101374, Note_on_c, 9, 35, 0
3, 101374, Note_on_c, 9, 42, 0
3, 101376, Note_on_c, 9, 38, 110
3, 101376, Note_on_c, 9, 42, 110
3, 101470, Note_on_c, 9, 38, 0
3, 101470, Note_on_c, 9, 42, 0
3, 101472, Note_on_c, 9, 42, 110
3, 101566, Note_on_c, 9, 42, 0
3, 101568, Note_on_c, 9, 35, 110
3, 101568, Note_on_c, 9, 42, 110
3, 101662, Note_on_c, 9, 35, 0
3, 101662, Note_on_c, 9, 42, 0
3, 101664, Note_on_c, 9, 35, 110
3, 101664, Note_on_c, 9, 42, 110
3, 101758, Note_on_c, 9, 35, 0
3, 101758, Note_on_c, 9, 42, 0
3, 101760, Note_on_c, 9, 38, 110
3, 101760, Note_on_c, 9, 42, 110
3, 101854, Note_on_c, 9, 38, 0
3, 101854, Note_on_c, 9, 42, 0
3, 101856, Note_on_c, 9, 42, 110
3, 101950, Note_on_c, 9, 42, 0
3, 101952, Note_on_c, 9, 35, 110
3, 101952, Note_on_c, 9, 42, 110
3, 102046, Note_on_c, 9, 35, 0
3, 102046, Note_on_c, 9, 42, 0
3, 102048, Note_on_c, 9, 35, 110
3, 102048, Note_on_c, 9, 42, 110
3, 102142, Note_on_c, 9, 35, 0
3, 102142, Note_on_c, 9, 42, 0
3, 102144, Note_on_c, 9, 38, 110
3, 102144, Note_on_c, 9, 42, 110
3, 102238, Note_on_c, 9, 38, 0
3, 102238, Note_on_c, 9, 42, 0
3, 102240, Note_on_c, 9, 42, 110
3, 102334, Note_on_c, 9, 42, 0
3, 102336, Note_on_c, 9, 35, 110
3, 102336, Note_on_c, 9, 42, 110
3, 102430, Note_on_c, 9, 35, 0
3, 102430, Note_on_c, 9, 42, 0
3, 102432, Note_on_c, 9, 35, 110
3, 102432, Note_on_c, 9, 42, 110
3, 102526, Note_on_c, 9, 35, 0
3, 102526, Note_on_c, 9, 42, 0
3, 102528, Note_on_c, 9, 38, 110
3, 102528, Note_on_c, 9, 42, 110
3, 102622, Note_on_c, 9, 38, 0
3, 102622, Note_on_c, 9, 42, 0
3, 102624, Note_on_c, 9, 42, 110
3, 102718, Note_on_c, 9, 42, 0
3, 102720, Note_on_c, 9, 35, 110
3, 102720, Note_on_c, 9, 42, 110
3, 102814, Note_on_c, 9, 35, 0
3, 102814, Note_on_c, 9, 42, 0
3, 102816, Note_on_c, 9, 35, 110
3, 102816, Note_on_c, 9, 42, 110
3, 102910, Note_on_c, 9, 35, 0
3, 102910, Note_on_c, 9, 42, 0
3, 102912, Note_on_c, 9, 38, 110
3, 102912, Note_on_c, 9, 42, 110
3, 103006, Note_on_c, 9, 38, 0
3, 103006, Note_on_c, 9, 42, 0
3, 103008, Note_on_c, 9, 42, 110
3, 103102, Note_on_c, 9, 42, 0
3, 103104, Note_on_c, 9, 35, 110
3, 103104, Note_on_c, 9, 42, 110
3, 103198, Note_on_c, 9, 35, 0
3, 103198, Note_on_c, 9, 42, 0
3, 103200, Note_on_c, 9, 35, 110
3, 103200, Note_on_c, 9, 42, 110
3, 103294, Note_on_c, 9, 35, 0
3, 103294, Note_on_c, 9, 42, 0
3, 103296, Note_on_c, 9, 38, 110
3, 103296, Note_on_c, 9, 42, 110
3, 103390, Note_on_c, 9, 38, 0
3, 103390, Note_on_c, 9, 42, 0
3, 103392, Note_on_c, 9, 42, 110
3, 103486, Note_on_c, 9, 42, 0
3, 103488, Note_on_c, 9, 38, 110
3, 103582, Note_on_c, 9, 38, 0
3, 103584, Note_on_c, 9, 45, 110
3, 103630, Note_on_c, 9, 45, 0
3, 103632, Note_on_c, 9, 45, 110
3, 103678, Note_on_c, 9, 45, 0
3, 103680, Note_on_c, 9, 38, 110
3, 103726, Note_on_c, 9, 38, 0
3, 103728, Note_on_c, 9, 38, 110
3, 103774, Note_on_c, 9, 38, 0
3, 103776, Note_on_c, 9, 45, 110
3, 103822, Note_on_c, 9, 45, 0
3, 103824, Note_on_c, 9, 45, 110
3, 103870, Note_on_c, 9, 45, 0
3, 103872, Note_on_c, 9, 35, 110
3, 103872, Note_on_c, 9, 42, 110
3, 103872, Note_on_c, 9, 57, 110
3, 103966, Note_on_c, 9, 35, 0
3, 103966, Note_on_c, 9, 42, 0
3, 103966, Note_on_c, 9, 57, 0
3, 103968, Note_on_c, 9, 35, 110
3, 103968, Note_on_c, 9, 42, 110
3, 104062, Note_on_c, 9, 35, 0
3, 104062, Note_on_c, 9, 42, 0
3, 104064, Note_on_c, 9, 38, 110
3, 104064, Note_on_c, 9, 42, 110
3, 104158, Note_on_c, 9, 38, 0
3, 104158, Note_on_c, 9, 42, 0
3, 104160, Note_on_c, 9, 42, 110
3, 104254, Note_on_c, 9, 42, 0
3, 104256, Note_on_c, 9, 35, 110
3, 104256, Note_on_c, 9, 42, 110
3, 104350, Note_on_c, 9, 35, 0
3, 104350, Note_on_c, 9, 42, 0
3, 104352, Note_on_c, 9, 35, 110
3, 104352, Note_on_c, 9, 42, 110
3, 104446, Note_on_c, 9, 35, 0
3, 104446, Note_on_c, 9, 42, 0
3, 104448, Note_on_c, 9, 38, 110
3, 104448, Note_on_c, 9, 42, 110
3, 104542, Note_on_c, 9, 38, 0
3, 104542, Note_on_c, 9, 42, 0
3, 104544, Note_on_c, 9, 42, 110
3, 104638, Note_on_c, 9, 42, 0
3, 104640, Note_on_c, 9, 35, 110
3, 104640, Note_on_c, 9, 42, 110
3, 104734, Note_on_c, 9, 35, 0
3, 104734, Note_on_c, 9, 42, 0
3, 104736, Note_on_c, 9, 35, 110
3, 104736, Note_on_c, 9, 42, 110
3, 104830, Note_on_c, 9, 35, 0
3, 104830, Note_on_c, 9, 42, 0
3, 104832, Note_on_c, 9, 38, 110
3, 104832, Note_on_c, 9, 42, 110
3, 104926, Note_on_c, 9, 38, 0
3, 104926, Note_on_c, 9, 42, 0
3, 104928, Note_on_c, 9, 42, 110
3, 105022, Note_on_c, 9, 42, 0
3, 105024, Note_on_c, 9, 35, 110
3, 105024, Note_on_c, 9, 42, 110
3, 105118, Note_on_c, 9, 35, 0
3, 105118, Note_on_c, 9, 42, 0
3, 105120, Note_on_c, 9, 35, 110
3, 105120, Note_on_c, 9, 42, 110
3, 105214, Note_on_c, 9, 35, 0
3, 105214, Note_on_c, 9, 42, 0
3, 105216, Note_on_c, 9, 38, 110
3, 105216, Note_on_c, 9, 42, 110
3, 105310, Note_on_c, 9, 38, 0
3, 105310, Note_on_c, 9, 42, 0
3, 105312, Note_on_c, 9, 42, 110
3, 105406, Note_on_c, 9, 42, 0
3, 105408, Note_on_c, 9, 35, 110
3, 105408, Note_on_c, 9, 42, 110
3, 105502, Note_on_c, 9, 35, 0
3, 105502, Note_on_c, 9, 42, 0
3, 105504, Note_on_c, 9, 35, 110
3, 105504, Note_on_c, 9, 42, 110
3, 105598, Note_on_c, 9, 35, 0
3, 105598, Note_on_c, 9, 42, 0
3, 105600, Note_on_c, 9, 38, 110
3, 105600, Note_on_c, 9, 42, 110
3, 105694, Note_on_c, 9, 38, 0
3, 105694, Note_on_c, 9, 42, 0
3, 105696, Note_on_c, 9, 42, 110
3, 105790, Note_on_c, 9, 42, 0
3, 105792, Note_on_c, 9, 35, 110
3, 105792, Note_on_c, 9, 42, 110
3, 105886, Note_on_c, 9, 35, 0
3, 105886, Note_on_c, 9, 42, 0
3, 105888, Note_on_c, 9, 35, 110
3, 105888, Note_on_c, 9, 42, 110
3, 105982, Note_on_c, 9, 35, 0
3, 105982, Note_on_c, 9, 42, 0
3, 105984, Note_on_c, 9, 38, 110
3, 105984, Note_on_c, 9, 42, 110
3, 106078, Note_on_c, 9, 38, 0
3, 106078, Note_on_c, 9, 42, 0
3, 106080, Note_on_c, 9, 42, 110
3, 106174, Note_on_c, 9, 42, 0
3, 106176, Note_on_c, 9, 35, 110
3, 106176, Note_on_c, 9, 42, 110
3, 106270, Note_on_c, 9, 35, 0
3, 106270, Note_on_c, 9, 42, 0
3, 106272, Note_on_c, 9, 35, 110
3, 106272, Note_on_c, 9, 42, 110
3, 106366, Note_on_c, 9, 35, 0
3, 106366, Note_on_c, 9, 42, 0
3, 106368, Note_on_c, 9, 38, 110
3, 106368, Note_on_c, 9, 42, 110
3, 106462, Note_on_c, 9, 38, 0
3, 106462, Note_on_c, 9, 42, 0
3, 106464, Note_on_c, 9, 42, 110
3, 106558, Note_on_c, 9, 42, 0
3, 106560, Note_on_c, 9, 35, 110
3, 106560, Note_on_c, 9, 42, 110
3, 106654, Note_on_c, 9, 35, 0
3, 106654, Note_on_c, 9, 42, 0
3, 106656, Note_on_c, 9, 35, 110
3, 106656, Note_on_c, 9, 42, 110
3, 106750, Note_on_c, 9, 35, 0
3, 106750, Note_on_c, 9, 42, 0
3, 106752, Note_on_c, 9, 38, 110
3, 106752, Note_on_c, 9, 42, 110
3, 106846, Note_on_c, 9, 38, 0
3, 106846, Note_on_c, 9, 42, 0
3, 106848, Note_on_c, 9, 42, 110
3, 106942, Note_on_c, 9, 42, 0
3, 106944, Note_on_c, 9, 35, 110
3, 106944, Note_on_c, 9, 42, 110
3, 107038, Note_on_c, 9, 35, 0
3, 107038, Note_on_c, 9, 42, 0
3, 107040, Note_on_c, 9, 35, 110
3, 107040, Note_on_c, 9, 42, 110
3, 107134, Note_on_c, 9, 35, 0
3, 107134, Note_on_c, 9, 42, 0
3, 107136, Note_on_c, 9, 38, 110
3, 107136, Note_on_c, 9, 42, 110
3, 107230, Note_on_c, 9, 38, 0
3, 107230, Note_on_c, 9, 42, 0
3, 107232, Note_on_c, 9, 42, 110
3, 107326, Note_on_c, 9, 42, 0
3, 107328, Note_on_c, 9, 35, 110
3, 107328, Note_on_c, 9, 42, 110
3, 107422, Note_on_c, 9, 35, 0
3, 107422, Note_on_c, 9, 42, 0
3, 107424, Note_on_c, 9, 35, 110
3, 107424, Note_on_c, 9, 42, 110
3, 107518, Note_on_c, 9, 35, 0
3, 107518, Note_on_c, 9, 42, 0
3, 107520, Note_on_c, 9, 38, 110
3, 107520, Note_on_c, 9, 42, 110
3, 107614, Note_on_c, 9, 38, 0
3, 107614, Note_on_c, 9, 42, 0
3, 107616, Note_on_c, 9, 42, 110
3, 107710, Note_on_c, 9, 42, 0
3, 107712, Note_on_c, 9, 35, 110
3, 107712, Note_on_c, 9, 42, 110
3, 107806, Note_on_c, 9, 35, 0
3, 107806, Note_on_c, 9, 42, 0
3, 107808, Note_on_c, 9, 35, 110
3, 107808, Note_on_c, 9, 42, 110
3, 107902, Note_on_c, 9, 35, 0
3, 107902, Note_on_c, 9, 42, 0
3, 107904, Note_on_c, 9, 38, 110
3, 107904, Note_on_c, 9, 42, 110
3, 107998, Note_on_c, 9, 38, 0
3, 107998, Note_on_c, 9, 42, 0
3, 108000, Note_on_c, 9, 42, 110
3, 108094, Note_on_c, 9, 42, 0
3, 108096, Note_on_c, 9, 38, 110
3, 108190, Note_on_c, 9, 38, 0
3, 108192, Note_on_c, 9, 45, 110
3, 108238, Note_on_c, 9, 45, 0
3, 108240, Note_on_c, 9, 45, 110
3, 108286, Note_on_c, 9, 45, 0
3, 108288, Note_on_c, 9, 38, 110
3, 108334, Note_on_c, 9, 38, 0
3, 108336, Note_on_c, 9, 38, 110
3, 108382, Note_on_c, 9, 38, 0
3, 108384, Note_on_c, 9, 45, 110
3, 108430, Note_on_c, 9, 45, 0
3, 108432, Note_on_c, 9, 45, 110
3, 108478, Note_on_c, 9, 45, 0
3, 108480, Note_on_c, 9, 35, 110
3, 108480, Note_on_c, 9, 42, 110
3, 108480, Note_on_c, 9, 57, 110
3, 108574, Note_on_c, 9, 35, 0
3, 108574, Note_on_c, 9, 42, 0
3, 108574, Note_on_c, 9, 57, 0
3, 108576, Note_on_c, 9, 35, 110
3, 108576, Note_on_c, 9, 42, 110
3, 108670, Note_on_c, 9, 35, 0
3, 108670, Note_on_c, 9, 42, 0
3, 108672, Note_on_c, 9, 38, 110
3, 108672, Note_on_c, 9, 42, 110
3, 108766, Note_on_c, 9, 38, 0
3, 108766, Note_on_c, 9, 42, 0
3, 108768, Note_on_c, 9, 42, 110
3, 108862, Note_on_c, 9, 42, 0
3, 108864, Note_on_c, 9, 35, 110
3, 108864, Note_on_c, 9, 42, 110
3, 108958, Note_on_c, 9, 35, 0
3, 108958, Note_on_c, 9, 42, 0
3, 108960, Note_on_c, 9, 35, 110
3, 108960, Note_on_c, 9, 42, 110
3, 109054, Note_on_c, 9, 35, 0
3, 109054, Note_on_c, 9, 42, 0
3, 109056, Note_on_c, 9, 38, 110
3, 109056, Note_on_c, 9, 42, 110
3, 109150, Note_on_c, 9, 38, 0
3, 109150, Note_on_c, 9, 42, 0
3, 109152, Note_on_c, 9, 42, 110
3, 109246, Note_on_c, 9, 42, 0
3, 109248, Note_on_c, 9, 35, 110
3, 109248, Note_on_c, 9, 42, 110
3, 109342, Note_on_c, 9, 35, 0
3, 109342, Note_on_c, 9, 42, 0
3, 109344, Note_on_c, 9, 35, 110
3, 109344, Note_on_c, 9, 42, 110
3, 109438, Note_on_c, 9, 35, 0
3, 109438, Note_on_c, 9, 42, 0
3, 109440, Note_on_c, 9, 38, 110
3, 109440, Note_on_c, 9, 42, 110
3, 109534, Note_on_c, 9, 38, 0
3, 109534, Note_on_c, 9, 42, 0
3, 109536, Note_on_c, 9, 42, 110
3, 109630, Note_on_c, 9, 42, 0
3, 109632, Note_on_c, 9, 35, 110
3, 109632, Note_on_c, 9, 42, 110
3, 109726, Note_on_c, 9, 35, 0
3, 109726, Note_on_c, 9, 42, 0
3, 109728, Note_on_c, 9, 35, 110
3, 109728, Note_on_c, 9, 42, 110
3, 109822, Note_on_c, 9, 35, 0
3, 109822, Note_on_c, 9, 42, 0
3, 109824, Note_on_c, 9, 38, 110
3, 109824, Note_on_c, 9, 42, 110
3, 109918, Note_on_c, 9, 38, 0
3, 109918, Note_on_c, 9, 42, 0
3, 109920, Note_on_c, 9, 42, 110
3, 110014, Note_on_c, 9, 42, 0
3, 110016, Note_on_c, 9, 35, 110
3, 110016, Note_on_c, 9, 42, 110
3, 110110, Note_on_c, 9, 35, 0
3, 110110, Note_on_c, 9, 42, 0
3, 110112, Note_on_c, 9, 35, 110
3, 110112, Note_on_c, 9, 42, 110
3, 110206, Note_on_c, 9, 35, 0
3, 110206, Note_on_c, 9, 42, 0
3, 110208, Note_on_c, 9, 38, 110
3, 110208, Note_on_c, 9, 42, 110
3, 110302, Note_on_c, 9, 38, 0
3, 110302, Note_on_c, 9, 42, 0
3, 110304, Note_on_c, 9, 42, 110
3, 110398, Note_on_c, 9, 42, 0
3, 110400, Note_on_c, 9, 35, 110
3, 110400, Note_on_c, 9, 42, 110
3, 110494, Note_on_c, 9, 35, 0
3, 110494, Note_on_c, 9, 42, 0
3, 110496, Note_on_c, 9, 35, 110
3, 110496, Note_on_c, 9, 42, 110
3, 110590, Note_on_c, 9, 35, 0
3, 110590, Note_on_c, 9, 42, 0
3, 110592, Note_on_c, 9, 38, 110
3, 110592, Note_on_c, 9, 42, 110
3, 110686, Note_on_c, 9, 38, 0
3, 110686, Note_on_c, 9, 42, 0
3, 110688, Note_on_c, 9, 42, 110
3, 110782, Note_on_c, 9, 42, 0
3, 110784, Note_on_c, 9, 35, 110
3, 110784, Note_on_c, 9, 42, 110
3, 110878, Note_on_c, 9, 35, 0
3, 110878, Note_on_c, 9, 42, 0
3, 110880, Note_on_c, 9, 35, 110
3, 110880, Note_on_c, 9, 42, 110
3, 110974, Note_on_c, 9, 35, 0
3, 110974, Note_on_c, 9, 42, 0
3, 110976, Note_on_c, 9, 38, 110
3, 110976, Note_on_c, 9, 42, 110
3, 111070, Note_on_c, 9, 38, 0
3, 111070, Note_on_c, 9, 42, 0
3, 111072, Note_on_c, 9, 42, 110
3, 111166, Note_on_c, 9, 42, 0
3, 111168, Note_on_c, 9, 35, 110
3, 111168, Note_on_c, 9, 42, 110
3, 111262, Note_on_c, 9, 35, 0
3, 111262, Note_on_c, 9, 42, 0
3, 111264, Note_on_c, 9, 35, 110
3, 111264, Note_on_c, 9, 42, 110
3, 111358, Note_on_c, 9, 35, 0
3, 111358, Note_on_c, 9, 42, 0
3, 111360, Note_on_c, 9, 38, 110
3, 111360, Note_on_c, 9, 42, 110
3, 111454, Note_on_c, 9, 38, 0
3, 111454, Note_on_c, 9, 42, 0
3, 111456, Note_on_c, 9, 42, 110
3, 111550, Note_on_c, 9, 42, 0
3, 111552, Note_on_c, 9, 35, 110
3, 111552, Note_on_c, 9, 42, 110
3, 111646, Note_on_c, 9, 35, 0
3, 111646, Note_on_c, 9, 42, 0
3, 111648, Note_on_c, 9, 35, 110
3, 111648, Note_on_c, 9, 42, 110
3, 111742, Note_on_c, 9, 35, 0
3, 111742, Note_on_c, 9, 42, 0
3, 111744, Note_on_c, 9, 38, 110
3, 111744, Note_on_c, 9, 42, 110
3, 111838, Note_on_c, 9, 38, 0
3, 111838, Note_on_c, 9, 42, 0
3, 111840, Note_on_c, 9, 42, 110
3, 111934, Note_on_c, 9, 42, 0
3, 111936, Note_on_c, 9, 35, 110
3, 111936, Note_on_c, 9, 42, 110
3, 112030, Note_on_c, 9, 35, 0
3, 112030, Note_on_c, 9, 42, 0
3, 112032, Note_on_c, 9, 35, 110
3, 112032, Note_on_c, 9, 42, 110
3, 112126, Note_on_c, 9, 35, 0
3, 112126, Note_on_c, 9, 42, 0
3, 112128, Note_on_c, 9, 38, 110
3, 112128, Note_on_c, 9, 42, 110
3, 112222, Note_on_c, 9, 38, 0
3, 112222, Note_on_c, 9, 42, 0
3, 112224, Note_on_c, 9, 42, 110
3, 112318, Note_on_c, 9, 42, 0
3, 112320, Note_on_c, 9, 35, 110
3, 112320, Note_on_c, 9, 42, 110
3, 112414, Note_on_c, 9, 35, 0
3, 112414, Note_on_c, 9, 42, 0
3, 112416, Note_on_c, 9, 35, 110
3, 112416, Note_on_c, 9, 42, 110
3, 112510, Note_on_c, 9, 35, 0
3, 112510, Note_on_c, 9, 42, 0
3, 112512, Note_on_c, 9, 38, 110
3, 112512, Note_on_c, 9, 42, 110
3, 112606, Note_on_c, 9, 38, 0
3, 112606, Note_on_c, 9, 42, 0
3, 112608, Note_on_c, 9, 42, 110
3, 112702, Note_on_c, 9, 42, 0
3, 112704, Note_on_c, 9, 38, 110
3, 112798, Note_on_c, 9, 38, 0
3, 112800, Note_on_c, 9, 45, 110
3, 112846, Note_on_c, 9, 45, 0
3, 112848, Note_on_c, 9, 45, 110
3, 112894, Note_on_c, 9, 45, 0
3, 112896, Note_on_c, 9, 38, 110
3, 112942, Note_on_c, 9, 38, 0
3, 112944, Note_on_c, 9, 38, 110
3, 112990, Note_on_c, 9, 38, 0
3, 112992, Note_on_c, 9, 45, 110
3, 113038, Note_on_c, 9, 45, 0
3, 113040, Note_on_c, 9, 45, 110
3, 113086, Note_on_c, 9, 45, 0
3, 113088, Note_on_c, 9, 35, 110
3, 113088, Note_on_c, 9, 42, 110
3, 113088, Note_on_c, 9, 57, 110
3, 113182, Note_on_c, 9, 35, 0
3, 113182, Note_on_c, 9, 42, 0
3, 113182, Note_on_c, 9, 57, 0
3, 113184, Note_on_c, 9, 35, 110
3, 113184, Note_on_c, 9, 42, 110
3, 113278, Note_on_c, 9, 35, 0
3, 113278, Note_on_c, 9, 42, 0
3, 113280, Note_on_c, 9, 38, 110
3, 113280, Note_on_c, 9, 42, 110
3, 113374, Note_on_c, 9, 38, 0
3, 113374, Note_on_c, 9, 42, 0
3, 113376, Note_on_c, 9, 42, 110
3, 113470, Note_on_c, 9, 42, 0
3, 113472, Note_on_c, 9, 35, 110
3, 113472, Note_on_c, 9, 42, 110
3, 113566, Note_on_c, 9, 35, 0
3, 113566, Note_on_c, 9, 42, 0
3, 113568, Note_on_c, 9, 35, 110
3, 113568, Note_on_c, 9, 42, 110
3, 113662, Note_on_c, 9, 35, 0
3, 113662, Note_on_c, 9, 42, 0
3, 113664, Note_on_c, 9, 38, 110
3, 113664, Note_on_c, 9, 42, 110
3, 113758, Note_on_c, 9, 38, 0
3, 113758, Note_on_c, 9, 42, 0
3, 113760, Note_on_c, 9, 42, 110
3, 113854, Note_on_c, 9, 42, 0
3, 113856, Note_on_c, 9, 35, 110
3, 113856, Note_on_c, 9, 42, 110
3, 113950, Note_on_c, 9, 35, 0
3, 113950, Note_on_c, 9, 42, 0
3, 113952, Note_on_c, 9, 35, 110
3, 113952, Note_on_c, 9, 42, 110
3, 114046, Note_on_c, 9, 35, 0
3, 114046, Note_on_c, 9, 42, 0
3, 114048, Note_on_c, 9, 38, 110
3, 114048, Note_on_c, 9, 42, 110
3, 114142, Note_on_c, 9, 38, 0
3, 114142, Note_on_c, 9, 42, 0
3, 114144, Note_on_c, 9, 42, 110
3, 114238, Note_on_c, 9, 42, 0
3, 114240, Note_on_c, 9, 35, 110
3, 114240, Note_on_c, 9, 42, 110
3, 114334, Note_on_c, 9, 35, 0
3, 114334, Note_on_c, 9, 42, 0
3, 114336, Note_on_c, 9, 35, 110
3, 114336, Note_on_c, 9, 42, 110
3, 114430, Note_on_c, 9, 35, 0
3, 114430, Note_on_c, 9, 42, 0
3, 114432, Note_on_c, 9, 38, 110
3, 114432, Note_on_c, 9, 42, 110
3, 114526, Note_on_c, 9, 38, 0
3, 114526, Note_on_c, 9, 42, 0
3, 114528, Note_on_c, 9, 42, 110
3, 114622, Note_on_c, 9, 42, 0
3, 114624, Note_on_c, 9, 35, 110
3, 114624, Note_on_c, 9, 42, 110
3, 114718, Note_on_c, 9, 35, 0
3, 114718, Note_on_c, 9, 42, 0
3, 114720, Note_on_c, 9, 35, 110
3, 114720, Note_on_c, 9, 42, 110
3, 114814, Note_on_c, 9, 35, 0
3, 114814, Note_on_c, 9, 42, 0
3, 114816, Note_on_c, 9, 38, 110
3, 114816, Note_on_c, 9, 42, 110
3, 114910, Note_on_c, 9, 38, 0
3, 114910, Note_on_c, 9, 42, 0
3, 114912, Note_on_c, 9, 42, 110
3, 115006, Note_on_c, 9, 42, 0
3, 115008, Note_on_c, 9, 35, 110
3, 115008, Note_on_c, 9, 42, 110
3, 115102, Note_on_c, 9, 35, 0
3, 115102, Note_on_c, 9, 42, 0
3, 115104, Note_on_c, 9, 35, 110
3, 115104, Note_on_c, 9, 42, 110
3, 115198, Note_on_c, 9, 35, 0
3, 115198, Note_on_c, 9, 42, 0
3, 115200, Note_on_c, 9, 38, 110
3, 115200, Note_on_c, 9, 42, 110
3, 115294, Note_on_c, 9, 38, 0
3, 115294, Note_on_c, 9, 42, 0
3, 115296, Note_on_c, 9, 42, 110
3, 115390, Note_on_c, 9, 42, 0
3, 115392, Note_on_c, 9, 35, 110
3, 115392, Note_on_c, 9, 42, 110
3, 115486, Note_on_c, 9, 35, 0
3, 115486, Note_on_c, 9, 42, 0
3, 115488, Note_on_c, 9, 35, 110
3, 115488, Note_on_c, 9, 42, 110
3, 115582, Note_on_c, 9, 35, 0
3, 115582, Note_on_c, 9, 42, 0
3, 115584, Note_on_c, 9, 38, 110
3, 115584, Note_on_c, 9, 42, 110
3, 115678, Note_on_c, 9, 38, 0
3, 115678, Note_on_c, 9, 42, 0
3, 115680, Note_on_c, 9, 42, 110
3, 115774, Note_on_c, 9, 42, 0
3, 115776, Note_on_c, 9, 35, 110
3, 115776, Note_on_c, 9, 42, 110
3, 115870, Note_on_c, 9, 35, 0
3, 115870, Note_on_c, 9, 42, 0
3, 115872, Note_on_c, 9, 35, 110
3, 115872, Note_on_c, 9, 42, 110
3, 115966, Note_on_c, 9, 35, 0
3, 115966, Note_on_c, 9, 42, 0
3, 115968, Note_on_c, 9, 38, 110
3, 115968, Note_on_c, 9, 42, 110
3, 116062, Note_on_c, 9, 38, 0
3, 116062, Note_on_c, 9, 42, 0
3, 116064, Note_on_c, 9, 42, 110
3, 116158, Note_on_c, 9, 42, 0
3, 116160, Note_on_c, 9, 35, 110
3, 116160, Note_on_c, 9, 42, 110
3, 116254, Note_on_c, 9, 35, 0
3, 116254, Note_on_c, 9, 42, 0
3, 116256, Note_on_c, 9, 35, 110
3, 116256, Note_on_c, 9, 42, 110
3, 116350, Note_on_c, 9, 35, 0
3, 116350, Note_on_c, 9, 42, 0
3, 116352, Note_on_c, 9, 38, 110
3, 116352, Note_on_c, 9, 42, 110
3, 116446, Note_on_c, 9, 38, 0
3, 116446, Note_on_c, 9, 42, 0
3, 116448, Note_on_c, 9, 42, 110
3, 116542, Note_on_c, 9, 42, 0
3, 116544, Note_on_c, 9, 35, 110
3, 116544, Note_on_c, 9, 42, 110
3, 116638, Note_on_c, 9, 35, 0
3, 116638, Note_on_c, 9, 42, 0
3, 116640, Note_on_c, 9, 35, 110
3, 116640, Note_on_c, 9, 42, 110
3, 116734, Note_on_c, 9, 35, 0
3, 116734, Note_on_c, 9, 42, 0
3, 116736, Note_on_c, 9, 38, 110
3, 116736, Note_on_c, 9, 42, 110
3, 116830, Note_on_c, 9, 38, 0
3, 116830, Note_on_c, 9, 42, 0
3, 116832, Note_on_c, 9, 42, 110
3, 116926, Note_on_c, 9, 42, 0
3, 116928, Note_on_c, 9, 35, 110
3, 116928, Note_on_c, 9, 42, 110
3, 117022, Note_on_c, 9, 35, 0
3, 117022, Note_on_c, 9, 42, 0
3, 117024, Note_on_c, 9, 35, 110
3, 117024, Note_on_c, 9, 42, 110
3, 117118, Note_on_c, 9, 35, 0
3, 117118, Note_on_c, 9, 42, 0
3, 117120, Note_on_c, 9, 38, 110
3, 117120, Note_on_c, 9, 42, 110
3, 117214, Note_on_c, 9, 38, 0
3, 117214, Note_on_c, 9, 42, 0
3, 117216, Note_on_c, 9, 42, 110
3, 117310, Note_on_c, 9, 42, 0
3, 117312, Note_on_c, 9, 38, 110
3, 117406, Note_on_c, 9, 38, 0
3, 117408, Note_on_c, 9, 45, 110
3, 117454, Note_on_c, 9, 45, 0
3, 117456, Note_on_c, 9, 45, 110
3, 117502, Note_on_c, 9, 45, 0
3, 117504, Note_on_c, 9, 38, 110
3, 117550, Note_on_c, 9, 38, 0
3, 117552, Note_on_c, 9, 38, 110
3, 117598, Note_on_c, 9, 38, 0
3, 117600, Note_on_c, 9, 45, 110
3, 117646, Note_on_c, 9, 45, 0
3, 117648, Note_on_c, 9, 45, 110
3, 117694, Note_on_c, 9, 45, 0
3, 117696, Note_on_c, 9, 35, 110
3, 117696, Note_on_c, 9, 42, 110
3, 117696, Note_on_c, 9, 57, 110
3, 117790, Note_on_c, 9, 35, 0
3, 117790, Note_on_c, 9, 42, 0
3, 117790, Note_on_c, 9, 57, 0
3, 117792, Note_on_c, 9, 35, 110
3, 117792, Note_on_c, 9, 42, 110
3, 117886, Note_on_c, 9, 35, 0
3, 117886, Note_on_c, 9, 42, 0
3, 117888, Note_on_c, 9, 38, 110
3, 117888, Note_on_c, 9, 42, 110
3, 117982, Note_on_c, 9, 38, 0
3, 117982, Note_on_c, 9, 42, 0
3, 117984, Note_on_c, 9, 42, 110
3, 118078, Note_on_c, 9, 42, 0
3, 118080, Note_on_c, 9, 35, 110
3, 118080, Note_on_c, 9, 42, 110
3, 118174, Note_on_c, 9, 35, 0
3, 118174, Note_on_c, 9, 42, 0
3, 118176, Note_on_c, 9, 35, 110
3, 118176, Note_on_c, 9, 42, 110
3, 118270, Note_on_c, 9, 35, 0
3, 118270, Note_on_c, 9, 42, 0
3, 118272, Note_on_c, 9, 38, 110
3, 118272, Note_on_c, 9, 42, 110
3, 118366, Note_on_c, 9, 38, 0
3, 118366, Note_on_c, 9, 42, 0
3, 118368, Note_on_c, 9, 42, 110
3, 118462, Note_on_c, 9, 42, 0
3, 118464, Note_on_c, 9, 35, 110
3, 118464, Note_on_c, 9, 42, 110
3, 118558, Note_on_c, 9, 35, 0
3, 118558, Note_on_c, 9, 42, 0
3, 118560, Note_on_c, 9, 35, 110
3, 118560, Note_on_c, 9, 42, 110
3, 118654, Note_on_c, 9, 35, 0
3, 118654, Note_on_c, 9, 42, 0
3, 118656, Note_on_c, 9, 38, 110
3, 118656, Note_on_c, 9, 42, 110
3, 118750, Note_on_c, 9, 38, 0
3, 118750, Note_on_c, 9, 42, 0
3, 118752, Note_on_c, 9, 42, 110
3, 118846, Note_on_c, 9, 42, 0
3, 118848, Note_on_c, 9, 35, 110
3, 118848, Note_on_c, 9, 42, 110
3, 118942, Note_on_c, 9, 35, 0
3, 118942, Note_on_c, 9, 42, 0
3, 118944, Note_on_c, 9, 35, 110
3, 118944, Note_on_c, 9, 42, 110
3, 119038, Note_on_c, 9, 35, 0
3, 119038, Note_on_c, 9, 42, 0
3, 119040, Note_on_c, 9, 38, 110
3, 119040, Note_on_c, 9, 42, 110
3, 119134, Note_on_c, 9, 38, 0
3, 119134, Note_on_c, 9, 42, 0
3, 119136, Note_on_c, 9, 42, 110
3, 119230, Note_on_c, 9, 42, 0
3, 119232, Note_on_c, 9, 35, 110
3, 119232, Note_on_c, 9, 42, 110
3, 119326, Note_on_c, 9, 35, 0
3, 119326, Note_on_c, 9, 42, 0
3, 119328, Note_on_c, 9, 35, 110
3, 119328, Note_on_c, 9, 42, 110
3, 119422, Note_on_c, 9, 35, 0
3, 119422, Note_on_c, 9, 42, 0
3, 119424, Note_on_c, 9, 38, 110
3, 119424, Note_on_c, 9, 42, 110
3, 119518, Note_on_c, 9, 38, 0
3, 119518, Note_on_c, 9, 42, 0
3, 119520, Note_on_c, 9, 42, 110
3, 119614, Note_on_c, 9, 42, 0
3, 119616, Note_on_c, 9, 35, 110
3, 119616, Note_on_c, 9, 42, 110
3, 119710, Note_on_c, 9, 35, 0
3, 119710, Note_on_c, 9, 42, 0
3, 119712, Note_on_c, 9, 35, 110
3, 119712, Note_on_c, 9, 42, 110
3, 119806, Note_on_c, 9, 35, 0
3, 119806, Note_on_c, 9, 42, 0
3, 119808, Note_on_c, 9, 38, 110
3, 119808, Note_on_c, 9, 42, 110
3, 119902, Note_on_c, 9, 38, 0
3, 119902, Note_on_c, 9, 42, 0
3, 119904, Note_on_c, 9, 42, 110
3, 119998, Note_on_c, 9, 42, 0
3, 120000, Note_on_c, 9, 35, 110
3, 120000, Note_on_c, 9, 42, 110
3, 120094, Note_on_c, 9, 35, 0
3, 120094, Note_on_c, 9, 42, 0
3, 120096, Note_on_c, 9, 35, 110
3, 120096, Note_on_c, 9, 42, 110
3, 120190, Note_on_c, 9, 35, 0
3, 120190, Note_on_c, 9, 42, 0
3, 120192, Note_on_c, 9, 38, 110
3, 120192, Note_on_c, 9, 42, 110
3, 120286, Note_on_c, 9, 38, 0
3, 120286, Note_on_c, 9, 42, 0
3, 120288, Note_on_c, 9, 42, 110
3, 120382, Note_on_c, 9, 42, 0
3, 120384, Note_on_c, 9, 35, 110
3, 120384, Note_on_c, 9, 42, 110
3, 120478, Note_on_c, 9, 35, 0
3, 120478, Note_on_c, 9, 42, 0
3, 120480, Note_on_c, 9, 35, 110
3, 120480, Note_on_c, 9, 42, 110
3, 120574, Note_on_c, 9, 35, 0
3, 120574, Note_on_c, 9, 42, 0
3, 120576, Note_on_c, 9, 38, 110
3, 120576, Note_on_c, 9, 42, 110
3, 120670, Note_on_c, 9, 38, 0
3, 120670, Note_on_c, 9, 42, 0
3, 120672, Note_on_c, 9, 42, 110
3, 120766, Note_on_c, 9, 42, 0
3, 120768, Note_on_c, 9, 35, 110
3, 120768, Note_on_c, 9, 42, 110
3, 120862, Note_on_c, 9, 35, 0
3, 120862, Note_on_c, 9, 42, 0
3, 120864, Note_on_c, 9, 35, 110
3, 120864, Note_on_c, 9, 42, 110
3, 120958, Note_on_c, 9, 35, 0
3, 120958, Note_on_c, 9, 42, 0
3, 120960, Note_on_c, 9, 38, 110
3, 120960, Note_on_c, 9, 42, 110
3, 121054, Note_on_c, 9, 38, 0
3, 121054, Note_on_c, 9, 42, 0
3, 121056, Note_on_c, 9, 42, 110
3, 121150, Note_on_c, 9, 42, 0
3, 121152, Note_on_c, 9, 35, 110
3, 121152, Note_on_c, 9, 42, 110
3, 121246, Note_on_c, 9, 35, 0
3, 121246, Note_on_c, 9, 42, 0
3, 121248, Note_on_c, 9, 35, 110
3, 121248, Note_on_c, 9, 42, 110
3, 121342, Note_on_c, 9, 35, 0
3, 121342, Note_on_c, 9, 42, 0
3, 121344, Note_on_c, 9, 38, 110
3, 121344, Note_on_c, 9, 42, 110
3, 121438, Note_on_c, 9, 38, 0
3, 121438, Note_on_c, 9, 42, 0
3, 121440, Note_on_c, 9, 42, 110
3, 121534, Note_on_c, 9, 42, 0
3, 121536, Control_c, 9, 7, 127
3, 121536, Note_on_c, 9, 35, 110
3, 121536, Note_on_c, 9, 42, 110
3, 121559, Control_c, 9, 7, 126
3, 121582, Control_c, 9, 7, 125
3, 121605, Control_c, 9, 7, 124
3, 121629, Control_c, 9, 7, 123
3, 121630, Note_on_c, 9, 35, 0
3, 121630, Note_on_c, 9, 42, 0
3, 121632, Note_on_c, 9, 35, 110
3, 121632, Note_on_c, 9, 42, 110
3, 121652, Control_c, 9, 7, 122
3, 121675, Control_c, 9, 7, 121
3, 121698, Control_c, 9, 7, 120
3, 121722, Control_c, 9, 7, 119
3, 121726, Note_on_c, 9, 35, 0
3, 121726, Note_on_c, 9, 42, 0
3, 121728, Note_on_c, 9, 38, 110
3, 121728, Note_on_c, 9, 42, 110
3, 121745, Control_c, 9, 7, 118
3, 121768, Control_c, 9, 7, 117
3, 121792, Control_c, 9, 7, 116
3, 121815, Control_c, 9, 7, 115
3, 121822, Note_on_c, 9, 38, 0
3, 121822, Note_on_c, 9, 42, 0
3, 121824, Note_on_c, 9, 42, 110
3, 121838, Control_c, 9, 7, 114
3, 121861, Control_c, 9, 7, 113
3, 121885, Control_c, 9, 7, 112
3, 121908, Control_c, 9, 7, 111
3, 121918, Note_on_c, 9, 42, 0
3, 121920, Note_on_c, 9, 38, 110
3, 121931, Control_c, 9, 7, 110
3, 121954, Control_c, 9, 7, 109
3, 121978, Control_c, 9, 7, 108
3, 122001, Control_c, 9, 7, 107
3, 122014, Note_on_c, 9, 38, 0
3, 122016, Note_on_c, 9, 45, 110
3, 122024, Control_c, 9, 7, 106
3, 122048, Control_c, 9, 7, 105
3, 122062, Note_on_c, 9, 45, 0
3, 122064, Note_on_c, 9, 45, 110
3, 122071, Control_c, 9, 7, 104
3, 122094, Control_c, 9, 7, 103
3, 122110, Note_on_c, 9, 45, 0
3, 122112, Note_on_c, 9, 38, 110
3, 122117, Control_c, 9, 7, 102
3, 122141, Control_c, 9, 7, 101
3, 122158, Note_on_c, 9, 38, 0
3, 122160, Note_on_c, 9, 38, 110
3, 122164, Control_c, 9, 7, 100
3, 122187, Control_c, 9, 7, 99
3, 122206, Note_on_c, 9, 38, 0
3, 122208, Note_on_c, 9, 45, 110
3, 122210, Control_c, 9, 7, 98
3, 122234, Control_c, 9, 7, 97
3, 122254, Note_on_c, 9, 45, 0
3, 122256, Note_on_c, 9, 45, 110
3, 122257, Control_c, 9, 7, 96
3, 122280, Control_c, 9, 7, 95
3, 122302, Note_on_c, 9, 45, 0
3, 122304, Control_c, 9, 7, 94
3, 122304, Control_c, 9, 7, 94
3, 122304, Note_on_c, 9, 35, 110
3, 122304, Note_on_c, 9, 42, 110
3, 122304, Note_on_c, 9, 57, 110
3, 122358, Control_c, 9, 7, 93
3, 122398, Note_on_c, 9, 35, 0
3, 122398, Note_on_c, 9, 42, 0
3, 122398, Note_on_c, 9, 57, 0
3, 122400, Note_on_c, 9, 35, 110
3, 122400, Note_on_c, 9, 42, 110
3, 122413, Control_c, 9, 7, 92
3, 122468, Control_c, 9, 7, 91
3, 122494, Note_on_c, 9, 35, 0
3, 122494, Note_on_c, 9, 42, 0
3, 122496, Note_on_c, 9, 38, 110
3, 122496, Note_on_c, 9, 42, 110
3, 122523, Control_c, 9, 7, 90
3, 122578, Control_c, 9, 7, 89
3, 122590, Note_on_c, 9, 38, 0
3, 122590, Note_on_c, 9, 42, 0
3, 122592, Note_on_c, 9, 42, 110
3, 122633, Control_c, 9, 7, 88
3, 122686, Note_on_c, 9, 42, 0
3, 122688, Control_c, 9, 7, 87
3, 122688, Note_on_c, 9, 35, 110
3, 122688, Note_on_c, 9, 42, 110
3, 122742, Control_c, 9, 7, 86
3, 122782, Note_on_c, 9, 35, 0
3, 122782, Note_on_c, 9, 42, 0
3, 122784, Note_on_c, 9, 35, 110
3, 122784, Note_on_c, 9, 42, 110
3, 122797, Control_c, 9, 7, 85
3, 122852, Control_c, 9, 7, 84
3, 122878, Note_on_c, 9, 35, 0
3, 122878, Note_on_c, 9, 42, 0
3, 122880, Note_on_c, 9, 38, 110
3, 122880, Note_on_c, 9, 42, 110
3, 122907, Control_c, 9, 7, 83
3, 122962, Control_c, 9, 7, 82
3, 122974, Note_on_c, 9, 38, 0
3, 122974, Note_on_c, 9, 42, 0
3, 122976, Note_on_c, 9, 42, 110
3, 123017, Control_c, 9, 7, 81
3, 123070, Note_on_c, 9, 42, 0
3, 123072, Control_c, 9, 7, 80
3, 123072, Control_c, 9, 7, 80
3, 123072, Note_on_c, 9, 35, 110
3, 123072, Note_on_c, 9, 42, 110
3, 123097, Control_c, 9, 7, 79
3, 123123, Control_c, 9, 7, 78
3, 123148, Control_c, 9, 7, 77
3, 123166, Note_on_c, 9, 35, 0
3, 123166, Note_on_c, 9, 42, 0
3, 123168, Note_on_c, 9, 35, 110
3, 123168, Note_on_c, 9, 42, 110
3, 123174, Control_c, 9, 7, 76
3, 123200, Control_c, 9, 7, 75
3, 123225, Control_c, 9, 7, 74
3, 123251, Control_c, 9, 7, 73
3, 123262, Note_on_c, 9, 35, 0
3, 123262, Note_on_c, 9, 42, 0
3, 123264, Note_on_c, 9, 38, 110
3, 123264, Note_on_c, 9, 42, 110
3, 123276, Control_c, 9, 7, 72
3, 123302, Control_c, 9, 7, 71
3, 123328, Control_c, 9, 7, 70
3, 123353, Control_c, 9, 7, 69
3, 123358, Note_on_c, 9, 38, 0
3, 123358, Note_on_c, 9, 42, 0
3, 123360, Note_on_c, 9, 42, 110
3, 123379, Control_c, 9, 7, 68
3, 123404, Control_c, 9, 7, 67
3, 123430, Control_c, 9, 7, 66
3, 123454, Note_on_c, 9, 42, 0
3, 123456, Control_c, 9, 7, 65
3, 123456, Note_on_c, 9, 35, 110
3, 123456, Note_on_c, 9, 42, 110
3, 123481, Control_c, 9, 7, 64
3, 123507, Control_c, 9, 7, 63
3, 123532, Control_c, 9, 7, 62
3, 123550, Note_on_c, 9, 35, 0
3, 123550, Note_on_c, 9, 42, 0
3, 123552, Note_on_c, 9, 35, 110
3, 123552, Note_on_c, 9, 42, 110
3, 123558, Control_c, 9, 7, 61
3, 123584, Control_c, 9, 7, 60
3, 123609, Control_c, 9, 7, 59
3, 123635, Control_c, 9, 7, 58
3, 123646, Note_on_c, 9, 35, 0
3, 123646, Note_on_c, 9, 42, 0
3, 123648, Note_on_c, 9, 38, 110
3, 123648, Note_on_c, 9, 42, 110
3, 123660, Control_c, 9, 7, 57
3, 123686, Control_c, 9, 7, 56
3, 123712, Control_c, 9, 7, 55
3, 123737, Control_c, 9, 7, 54
3, 123742, Note_on_c, 9, 38, 0
3, 123742, Note_on_c, 9, 42, 0
3, 123744, Note_on_c, 9, 42, 110
3, 123763, Control_c, 9, 7, 53
3, 123788, Control_c, 9, 7, 52
3, 123814, Control_c, 9, 7, 51
3, 123838, Note_on_c, 9, 42, 0
3, 123840, Control_c, 9, 7, 50
3, 123840, Control_c, 9, 7, 50
3, 123840, Note_on_c, 9, 35, 110
3, 123840, Note_on_c, 9, 42, 110
3, 123878, Control_c, 9, 7, 49
3, 123916, Control_c, 9, 7, 48
3, 123934, Note_on_c, 9, 35, 0
3, 123934, Note_on_c, 9, 42, 0
3, 123936, Note_on_c, 9, 35, 110
3, 123936, Note_on_c, 9, 42, 110
3, 123955, Control_c, 9, 7, 47
3, 123993, Control_c, 9, 7, 46
3, 124030, Note_on_c, 9, 35, 0
3, 124030, Note_on_c, 9, 42, 0
3, 124032, Control_c, 9, 7, 45
3, 124032, Note_on_c, 9, 38, 110
3, 124032, Note_on_c, 9, 42, 110
3, 124070, Control_c, 9, 7, 44
3, 124108, Control_c, 9, 7, 43
3, 124126, Note_on_c, 9, 38, 0
3, 124126, Note_on_c, 9, 42, 0
3, 124128, Note_on_c, 9, 42, 110
3, 124147, Control_c, 9, 7, 42
3, 124185, Control_c, 9, 7, 41
3, 124222, Note_on_c, 9, 42, 0
3, 124224, Control_c, 9, 7, 40
3, 124224, Note_on_c, 9, 35, 110
3, 124224, Note_on_c, 9, 42, 110
3, 124262, Control_c, 9, 7, 39
3, 124300, Control_c, 9, 7, 38
3, 124318, Note_on_c, 9, 35, 0
3, 124318, Note_on_c, 9, 42, 0
3, 124320, Note_on_c, 9, 35, 110
3, 124320, Note_on_c, 9, 42, 110
3, 124339, Control_c, 9, 7, 37
3, 124377, Control_c, 9, 7, 36
3, 124414, Note_on_c, 9, 35, 0
3, 124414, Note_on_c, 9, 42, 0
3, 124416, Control_c, 9, 7, 35
3, 124416, Note_on_c, 9, 38, 110
3, 124416, Note_on_c, 9, 42, 110
3, 124454, Control_c, 9, 7, 34
3, 124492, Control_c, 9, 7, 33
3, 124510, Note_on_c, 9, 38, 0
3, 124510, Note_on_c, 9, 42, 0
3, 124512, Note_on_c, 9, 42, 110
3, 124531, Control_c, 9, 7, 32
3, 124569, Control_c, 9, 7, 31
3, 124606, Note_on_c, 9, 42, 0
3, 124608, Control_c, 9, 7, 30
3, 124608, Control_c, 9, 7, 30
3, 124608, Note_on_c, 9, 35, 110
3, 124608, Note_on_c, 9, 42, 110
3, 124650, Control_c, 9, 7, 29
3, 124693, Control_c, 9, 7, 28
3, 124702, Note_on_c, 9, 35, 0
3, 124702, Note_on_c, 9, 42, 0
3, 124704, Note_on_c, 9, 35, 110
3, 124704, Note_on_c, 9, 42, 110
3, 124736, Control_c, 9, 7, 27
3, 124778, Control_c, 9, 7, 26
3, 124798, Note_on_c, 9, 35, 0
3, 124798, Note_on_c, 9, 42, 0
3, 124800, Note_on_c, 9, 38, 110
3, 124800, Note_on_c, 9, 42, 110
3, 124821, Control_c, 9, 7, 25
3, 124864, Control_c, 9, 7, 24
3, 124894, Note_on_c, 9, 38, 0
3, 124894, Note_on_c, 9, 42, 0
3, 124896, Note_on_c, 9, 42, 110
3, 124906, Control_c, 9, 7, 23
3, 124949, Control_c, 9, 7, 22
3, 124990, Note_on_c, 9, 42, 0
3, 124992, Control_c, 9, 7, 21
3, 124992, Note_on_c, 9, 35, 110
3, 124992, Note_on_c, 9, 42, 110
3, 125034, Control_c, 9, 7, 20
3, 125077, Control_c, 9, 7, 19
3, 125086, Note_on_c, 9, 35, 0
3, 125086, Note_on_c, 9, 42, 0
3, 125088, Note_on_c, 9, 35, 110
3, 125088, Note_on_c, 9, 42, 110
3, 125120, Control_c, 9, 7, 18
3, 125162, Control_c, 9, 7, 17
3, 125182, Note_on_c, 9, 35, 0
3, 125182, Note_on_c, 9, 42, 0
3, 125184, Note_on_c, 9, 38, 110
3, 125184, Note_on_c, 9, 42, 110
3, 125205, Control_c, 9, 7, 16
3, 125248, Control_c, 9, 7, 15
3, 125278, Note_on_c, 9, 38, 0
3, 125278, Note_on_c, 9, 42, 0
3, 125280, Note_on_c, 9, 42, 110
3, 125290, Control_c, 9, 7, 14
3, 125333, Control_c, 9, 7, 13
3, 125374, Note_on_c, 9, 42, 0
3, 125376, Control_c, 9, 7, 12
3, 125376, Control_c, 9, 7, 12
3, 125376, Note_on_c, 9, 35, 110
3, 125376, Note_on_c, 9, 42, 110
3, 125440, Control_c, 9, 7, 11
3, 125470, Note_on_c, 9, 35, 0
3, 125470, Note_on_c, 9, 42, 0
3, 125472, Note_on_c, 9, 35, 110
3, 125472, Note_on_c, 9, 42, 110
3, 125504, Control_c, 9, 7, 10
3, 125566, Note_on_c, 9, 35, 0
3, 125566, Note_on_c, 9, 42, 0
3, 125568, Control_c, 9, 7, 9
3, 125568, Note_on_c, 9, 38, 110
3, 125568, Note_on_c, 9, 42, 110
3, 125632, Control_c, 9, 7, 8
3, 125662, Note_on_c, 9, 38, 0
3, 125662, Note_on_c, 9, 42, 0
3, 125664, Note_on_c, 9, 42, 110
3, 125696, Control_c, 9, 7, 7
3, 125758, Note_on_c, 9, 42, 0
3, 125760, Control_c, 9, 7, 6
3, 125760, Note_on_c, 9, 35, 110
3, 125760, Note_on_c, 9, 42, 110
3, 125824, Control_c, 9, 7, 5
3, 125854, Note_on_c, 9, 35, 0
3, 125854, Note_on_c, 9, 42, 0
3, 125856, Note_on_c, 9, 35, 110
3, 125856, Note_on_c, 9, 42, 110
3, 125888, Control_c, 9, 7, 4
3, 125950, Note_on_c, 9, 35, 0
3, 125950, Note_on_c, 9, 42, 0
3, 125952, Control_c, 9, 7, 3
3, 125952, Note_on_c, 9, 38, 110
3, 125952, Note_on_c, 9, 42, 110
3, 126016, Control_c, 9, 7, 2
3, 126046, Note_on_c, 9, 38, 0
3, 126046, Note_on_c, 9, 42, 0
3, 126048, Note_on_c, 9, 42, 110
3, 126080, Control_c, 9, 7, 1
3, 126142, Note_on_c, 9, 42, 0
3, 126144, Control_c, 9, 7, 0
3, 126144, Note_on_c, 9, 35, 110
3, 126144, Note_on_c, 9, 42, 110
3, 126238, Note_on_c, 9, 35, 0
3, 126238, Note_on_c, 9, 42, 0
3, 126240, Note_on_c, 9, 35, 110
3, 126240, Note_on_c, 9, 42, 110
3, 126334, Note_on_c, 9, 35, 0
3, 126334, Note_on_c, 9, 42, 0
3, 126336, Note_on_c, 9, 38, 110
3, 126336, Note_on_c, 9, 42, 110
3, 126430, Note_on_c, 9, 38, 0
3, 126430, Note_on_c, 9, 42, 0
3, 126432, Note_on_c, 9, 42, 110
3, 126526, Note_on_c, 9, 42, 0
3, 126528, Note_on_c, 9, 38, 110
3, 126622, Note_on_c, 9, 38, 0
3, 126624, Note_on_c, 9, 45, 110
3, 126670, Note_on_c, 9, 45, 0
3, 126672, Note_on_c, 9, 45, 110
3, 126718, Note_on_c, 9, 45, 0
3, 126720, Note_on_c, 9, 38, 110
3, 126766, Note_on_c, 9, 38, 0
3, 126768, Note_on_c, 9, 38, 110
3, 126814, Note_on_c, 9, 38, 0
3, 126816, Note_on_c, 9, 45, 110
3, 126862, Note_on_c, 9, 45, 0
3, 126864, Note_on_c, 9, 45, 110
3, 126910, Note_on_c, 9, 45, 0
3, 126910, End_track
4, 0, Start_track
4, 0, MIDI_port, 0
4, 0, Title_t, "Staff-3"
4, 0, Program_c, 10, 25
4, 0, Control_c, 10, 7, 127
4, 0, Control_c, 10, 10, 64
4, 5568, Note_on_c, 10, 59, 110
4, 5568, Note_on_c, 10, 63, 110
4, 5568, Note_on_c, 10, 66, 110
4, 5662, Note_on_c, 10, 59, 0
4, 5662, Note_on_c, 10, 63, 0
4, 5662, Note_on_c, 10, 66, 0
4, 5664, Note_on_c, 10, 59, 110
4, 5664, Note_on_c, 10, 63, 110
4, 5664, Note_on_c, 10, 66, 110
4, 5758, Note_on_c, 10, 59, 0
4, 5758, Note_on_c, 10, 63, 0
4, 5758, Note_on_c, 10, 66, 0
4, 5856, Note_on_c, 10, 59, 110
4, 5856, Note_on_c, 10, 63, 110
4, 5856, Note_on_c, 10, 66, 110
4, 5950, Note_on_c, 10, 59, 0
4, 5950, Note_on_c, 10, 63, 0
4, 5950, Note_on_c, 10, 66, 0
4, 5952, Note_on_c, 10, 59, 110
4, 5952, Note_on_c, 10, 63, 110
4, 5952, Note_on_c, 10, 66, 110
4, 6046, Note_on_c, 10, 59, 0
4, 6046, Note_on_c, 10, 63, 0
4, 6046, Note_on_c, 10, 66, 0
4, 6048, Note_on_c, 10, 59, 110
4, 6048, Note_on_c, 10, 63, 110
4, 6048, Note_on_c, 10, 66, 110
4, 6142, Note_on_c, 10, 59, 0
4, 6142, Note_on_c, 10, 63, 0
4, 6142, Note_on_c, 10, 66, 0
4, 6240, Note_on_c, 10, 59, 110
4, 6240, Note_on_c, 10, 63, 110
4, 6240, Note_on_c, 10, 66, 110
4, 6334, Note_on_c, 10, 59, 0
4, 6334, Note_on_c, 10, 63, 0
4, 6334, Note_on_c, 10, 66, 0
4, 6336, Note_on_c, 10, 59, 110
4, 6336, Note_on_c, 10, 63, 110
4, 6336, Note_on_c, 10, 66, 110
4, 6430, Note_on_c, 10, 59, 0
4, 6430, Note_on_c, 10, 63, 0
4, 6430, Note_on_c, 10, 66, 0
4, 6432, Note_on_c, 10, 59, 110
4, 6432, Note_on_c, 10, 63, 110
4, 6432, Note_on_c, 10, 66, 110
4, 6526, Note_on_c, 10, 59, 0
4, 6526, Note_on_c, 10, 63, 0
4, 6526, Note_on_c, 10, 66, 0
4, 6624, Note_on_c, 10, 59, 110
4, 6624, Note_on_c, 10, 63, 110
4, 6624, Note_on_c, 10, 66, 110
4, 6718, Note_on_c, 10, 59, 0
4, 6718, Note_on_c, 10, 63, 0
4, 6718, Note_on_c, 10, 66, 0
4, 6720, Note_on_c, 10, 59, 110
4, 6720, Note_on_c, 10, 63, 110
4, 6720, Note_on_c, 10, 66, 110
4, 6814, Note_on_c, 10, 59, 0
4, 6814, Note_on_c, 10, 63, 0
4, 6814, Note_on_c, 10, 66, 0
4, 6816, Note_on_c, 10, 59, 110
4, 6816, Note_on_c, 10, 63, 110
4, 6816, Note_on_c, 10, 66, 110
4, 6910, Note_on_c, 10, 59, 0
4, 6910, Note_on_c, 10, 63, 0
4, 6910, Note_on_c, 10, 66, 0
4, 7104, Note_on_c, 10, 57, 110
4, 7104, Note_on_c, 10, 60, 110
4, 7104, Note_on_c, 10, 64, 110
4, 7198, Note_on_c, 10, 57, 0
4, 7198, Note_on_c, 10, 60, 0
4, 7198, Note_on_c, 10, 64, 0
4, 7200, Note_on_c, 10, 57, 110
4, 7200, Note_on_c, 10, 60, 110
4, 7200, Note_on_c, 10, 64, 110
4, 7294, Note_on_c, 10, 57, 0
4, 7294, Note_on_c, 10, 60, 0
4, 7294, Note_on_c, 10, 64, 0
4, 7392, Note_on_c, 10, 57, 110
4, 7392, Note_on_c, 10, 60, 110
4, 7392, Note_on_c, 10, 64, 110
4, 7486, Note_on_c, 10, 57, 0
4, 7486, Note_on_c, 10, 60, 0
4, 7486, Note_on_c, 10, 64, 0
4, 7488, Note_on_c, 10, 57, 110
4, 7488, Note_on_c, 10, 60, 110
4, 7488, Note_on_c, 10, 64, 110
4, 7582, Note_on_c, 10, 57, 0
4, 7582, Note_on_c, 10, 60, 0
4, 7582, Note_on_c, 10, 64, 0
4, 7584, Note_on_c, 10, 57, 110
4, 7584, Note_on_c, 10, 60, 110
4, 7584, Note_on_c, 10, 64, 110
4, 7678, Note_on_c, 10, 57, 0
4, 7678, Note_on_c, 10, 60, 0
4, 7678, Note_on_c, 10, 64, 0
4, 7872, Note_on_c, 10, 59, 110
4, 7872, Note_on_c, 10, 64, 110
4, 7872, Note_on_c, 10, 68, 110
4, 7966, Note_on_c, 10, 59, 0
4, 7966, Note_on_c, 10, 64, 0
4, 7966, Note_on_c, 10, 68, 0
4, 7968, Note_on_c, 10, 59, 110
4, 7968, Note_on_c, 10, 64, 110
4, 7968, Note_on_c, 10, 68, 110
4, 8062, Note_on_c, 10, 59, 0
4, 8062, Note_on_c, 10, 64, 0
4, 8062, Note_on_c, 10, 68, 0
4, 8160, Note_on_c, 10, 59, 110
4, 8160, Note_on_c, 10, 64, 110
4, 8160, Note_on_c, 10, 68, 110
4, 8254, Note_on_c, 10, 59, 0
4, 8254, Note_on_c, 10, 64, 0
4, 8254, Note_on_c, 10, 68, 0
4, 8256, Note_on_c, 10, 59, 110
4, 8256, Note_on_c, 10, 64, 110
4, 8256, Note_on_c, 10, 68, 110
4, 8350, Note_on_c, 10, 59, 0
4, 8350, Note_on_c, 10, 64, 0
4, 8350, Note_on_c, 10, 68, 0
4, 8352, Note_on_c, 10, 59, 110
4, 8352, Note_on_c, 10, 64, 110
4, 8352, Note_on_c, 10, 68, 110
4, 8446, Note_on_c, 10, 59, 0
4, 8446, Note_on_c, 10, 64, 0
4, 8446, Note_on_c, 10, 68, 0
4, 8640, Note_on_c, 10, 55, 110
4, 8640, Note_on_c, 10, 59, 110
4, 8640, Note_on_c, 10, 62, 110
4, 8734, Note_on_c, 10, 55, 0
4, 8734, Note_on_c, 10, 59, 0
4, 8734, Note_on_c, 10, 62, 0
4, 8736, Note_on_c, 10, 55, 110
4, 8736, Note_on_c, 10, 59, 110
4, 8736, Note_on_c, 10, 62, 110
4, 8830, Note_on_c, 10, 55, 0
4, 8830, Note_on_c, 10, 59, 0
4, 8830, Note_on_c, 10, 62, 0
4, 8928, Note_on_c, 10, 55, 110
4, 8928, Note_on_c, 10, 59, 110
4, 8928, Note_on_c, 10, 62, 110
4, 9022, Note_on_c, 10, 55, 0
4, 9022, Note_on_c, 10, 59, 0
4, 9022, Note_on_c, 10, 62, 0
4, 9024, Note_on_c, 10, 55, 110
4, 9024, Note_on_c, 10, 59, 110
4, 9024, Note_on_c, 10, 62, 110
4, 9118, Note_on_c, 10, 55, 0
4, 9118, Note_on_c, 10, 59, 0
4, 9118, Note_on_c, 10, 62, 0
4, 9120, Note_on_c, 10, 55, 110
4, 9120, Note_on_c, 10, 59, 110
4, 9120, Note_on_c, 10, 62, 110
4, 9214, Note_on_c, 10, 55, 0
4, 9214, Note_on_c, 10, 59, 0
4, 9214, Note_on_c, 10, 62, 0
4, 9408, Note_on_c, 10, 53, 110
4, 9408, Note_on_c, 10, 57, 110
4, 9408, Note_on_c, 10, 59, 110
4, 9408, Note_on_c, 10, 60, 110
4, 9502, Note_on_c, 10, 53, 0
4, 9502, Note_on_c, 10, 57, 0
4, 9502, Note_on_c, 10, 59, 0
4, 9502, Note_on_c, 10, 60, 0
4, 9504, Note_on_c, 10, 53, 110
4, 9504, Note_on_c, 10, 57, 110
4, 9504, Note_on_c, 10, 59, 110
4, 9504, Note_on_c, 10, 60, 110
4, 9598, Note_on_c, 10, 53, 0
4, 9598, Note_on_c, 10, 57, 0
4, 9598, Note_on_c, 10, 59, 0
4, 9598, Note_on_c, 10, 60, 0
4, 9696, Note_on_c, 10, 53, 110
4, 9696, Note_on_c, 10, 57, 110
4, 9696, Note_on_c, 10, 59, 110
4, 9696, Note_on_c, 10, 60, 110
4, 9790, Note_on_c, 10, 53, 0
4, 9790, Note_on_c, 10, 57, 0
4, 9790, Note_on_c, 10, 59, 0
4, 9790, Note_on_c, 10, 60, 0
4, 9792, Note_on_c, 10, 53, 110
4, 9792, Note_on_c, 10, 57, 110
4, 9792, Note_on_c, 10, 59, 110
4, 9792, Note_on_c, 10, 60, 110
4, 9886, Note_on_c, 10, 53, 0
4, 9886, Note_on_c, 10, 57, 0
4, 9886, Note_on_c, 10, 59, 0
4, 9886, Note_on_c, 10, 60, 0
4, 9888, Note_on_c, 10, 53, 110
4, 9888, Note_on_c, 10, 57, 110
4, 9888, Note_on_c, 10, 59, 110
4, 9888, Note_on_c, 10, 60, 110
4, 9982, Note_on_c, 10, 53, 0
4, 9982, Note_on_c, 10, 57, 0
4, 9982, Note_on_c, 10, 59, 0
4, 9982, Note_on_c, 10, 60, 0
4, 10176, Note_on_c, 10, 58, 110
4, 10176, Note_on_c, 10, 62, 110
4, 10176, Note_on_c, 10, 65, 110
4, 10270, Note_on_c, 10, 58, 0
4, 10270, Note_on_c, 10, 62, 0
4, 10270, Note_on_c, 10, 65, 0
4, 10272, Note_on_c, 10, 58, 110
4, 10272, Note_on_c, 10, 62, 110
4, 10272, Note_on_c, 10, 65, 110
4, 10366, Note_on_c, 10, 58, 0
4, 10366, Note_on_c, 10, 62, 0
4, 10366, Note_on_c, 10, 65, 0
4, 10464, Note_on_c, 10, 58, 110
4, 10464, Note_on_c, 10, 62, 110
4, 10464, Note_on_c, 10, 65, 110
4, 10558, Note_on_c, 10, 58, 0
4, 10558, Note_on_c, 10, 62, 0
4, 10558, Note_on_c, 10, 65, 0
4, 10560, Note_on_c, 10, 58, 110
4, 10560, Note_on_c, 10, 62, 110
4, 10560, Note_on_c, 10, 65, 110
4, 10654, Note_on_c, 10, 58, 0
4, 10654, Note_on_c, 10, 62, 0
4, 10654, Note_on_c, 10, 65, 0
4, 10656, Note_on_c, 10, 58, 110
4, 10656, Note_on_c, 10, 62, 110
4, 10656, Note_on_c, 10, 65, 110
4, 10750, Note_on_c, 10, 58, 0
4, 10750, Note_on_c, 10, 62, 0
4, 10750, Note_on_c, 10, 65, 0
4, 10944, Note_on_c, 10, 61, 110
4, 10944, Note_on_c, 10, 65, 110
4, 10944, Note_on_c, 10, 68, 110
4, 11038, Note_on_c, 10, 61, 0
4, 11038, Note_on_c, 10, 65, 0
4, 11038, Note_on_c, 10, 68, 0
4, 11040, Note_on_c, 10, 61, 110
4, 11040, Note_on_c, 10, 65, 110
4, 11040, Note_on_c, 10, 68, 110
4, 11134, Note_on_c, 10, 61, 0
4, 11134, Note_on_c, 10, 65, 0
4, 11134, Note_on_c, 10, 68, 0
4, 11232, Note_on_c, 10, 61, 110
4, 11232, Note_on_c, 10, 65, 110
4, 11232, Note_on_c, 10, 68, 110
4, 11326, Note_on_c, 10, 61, 0
4, 11326, Note_on_c, 10, 65, 0
4, 11326, Note_on_c, 10, 68, 0
4, 11328, Note_on_c, 10, 61, 110
4, 11328, Note_on_c, 10, 65, 110
4, 11328, Note_on_c, 10, 68, 110
4, 11422, Note_on_c, 10, 61, 0
4, 11422, Note_on_c, 10, 65, 0
4, 11422, Note_on_c, 10, 68, 0
4, 11424, Note_on_c, 10, 61, 110
4, 11424, Note_on_c, 10, 65, 110
4, 11424, Note_on_c, 10, 68, 110
4, 11518, Note_on_c, 10, 61, 0
4, 11518, Note_on_c, 10, 65, 0
4, 11518, Note_on_c, 10, 68, 0
4, 11712, Note_on_c, 10, 59, 110
4, 11712, Note_on_c, 10, 63, 110
4, 11712, Note_on_c, 10, 66, 110
4, 11806, Note_on_c, 10, 59, 0
4, 11806, Note_on_c, 10, 63, 0
4, 11806, Note_on_c, 10, 66, 0
4, 11808, Note_on_c, 10, 59, 110
4, 11808, Note_on_c, 10, 63, 110
4, 11808, Note_on_c, 10, 66, 110
4, 11902, Note_on_c, 10, 59, 0
4, 11902, Note_on_c, 10, 63, 0
4, 11902, Note_on_c, 10, 66, 0
4, 12000, Note_on_c, 10, 59, 110
4, 12000, Note_on_c, 10, 63, 110
4, 12000, Note_on_c, 10, 66, 110
4, 12094, Note_on_c, 10, 59, 0
4, 12094, Note_on_c, 10, 63, 0
4, 12094, Note_on_c, 10, 66, 0
4, 12096, Note_on_c, 10, 59, 110
4, 12096, Note_on_c, 10, 63, 110
4, 12096, Note_on_c, 10, 66, 110
4, 12190, Note_on_c, 10, 59, 0
4, 12190, Note_on_c, 10, 63, 0
4, 12190, Note_on_c, 10, 66, 0
4, 12192, Note_on_c, 10, 59, 110
4, 12192, Note_on_c, 10, 63, 110
4, 12192, Note_on_c, 10, 66, 110
4, 12286, Note_on_c, 10, 59, 0
4, 12286, Note_on_c, 10, 63, 0
4, 12286, Note_on_c, 10, 66, 0
4, 12384, Note_on_c, 10, 59, 110
4, 12384, Note_on_c, 10, 63, 110
4, 12384, Note_on_c, 10, 66, 110
4, 12478, Note_on_c, 10, 59, 0
4, 12478, Note_on_c, 10, 63, 0
4, 12478, Note_on_c, 10, 66, 0
4, 12480, Note_on_c, 10, 59, 110
4, 12480, Note_on_c, 10, 63, 110
4, 12480, Note_on_c, 10, 66, 110
4, 12574, Note_on_c, 10, 59, 0
4, 12574, Note_on_c, 10, 63, 0
4, 12574, Note_on_c, 10, 66, 0
4, 12576, Note_on_c, 10, 59, 110
4, 12576, Note_on_c, 10, 63, 110
4, 12576, Note_on_c, 10, 66, 110
4, 12670, Note_on_c, 10, 59, 0
4, 12670, Note_on_c, 10, 63, 0
4, 12670, Note_on_c, 10, 66, 0
4, 12768, Note_on_c, 10, 59, 110
4, 12768, Note_on_c, 10, 63, 110
4, 12768, Note_on_c, 10, 66, 110
4, 12862, Note_on_c, 10, 59, 0
4, 12862, Note_on_c, 10, 63, 0
4, 12862, Note_on_c, 10, 66, 0
4, 12864, Note_on_c, 10, 59, 110
4, 12864, Note_on_c, 10, 63, 110
4, 12864, Note_on_c, 10, 66, 110
4, 12958, Note_on_c, 10, 59, 0
4, 12958, Note_on_c, 10, 63, 0
4, 12958, Note_on_c, 10, 66, 0
4, 12960, Note_on_c, 10, 59, 110
4, 12960, Note_on_c, 10, 63, 110
4, 12960, Note_on_c, 10, 66, 110
4, 13054, Note_on_c, 10, 59, 0
4, 13054, Note_on_c, 10, 63, 0
4, 13054, Note_on_c, 10, 66, 0
4, 13248, Note_on_c, 10, 57, 110
4, 13248, Note_on_c, 10, 60, 110
4, 13248, Note_on_c, 10, 64, 110
4, 13342, Note_on_c, 10, 57, 0
4, 13342, Note_on_c, 10, 60, 0
4, 13342, Note_on_c, 10, 64, 0
4, 13344, Note_on_c, 10, 57, 110
4, 13344, Note_on_c, 10, 60, 110
4, 13344, Note_on_c, 10, 64, 110
4, 13438, Note_on_c, 10, 57, 0
4, 13438, Note_on_c, 10, 60, 0
4, 13438, Note_on_c, 10, 64, 0
4, 13536, Note_on_c, 10, 57, 110
4, 13536, Note_on_c, 10, 60, 110
4, 13536, Note_on_c, 10, 64, 110
4, 13630, Note_on_c, 10, 57, 0
4, 13630, Note_on_c, 10, 60, 0
4, 13630, Note_on_c, 10, 64, 0
4, 13632, Note_on_c, 10, 57, 110
4, 13632, Note_on_c, 10, 60, 110
4, 13632, Note_on_c, 10, 64, 110
4, 13726, Note_on_c, 10, 57, 0
4, 13726, Note_on_c, 10, 60, 0
4, 13726, Note_on_c, 10, 64, 0
4, 13728, Note_on_c, 10, 57, 110
4, 13728, Note_on_c, 10, 60, 110
4, 13728, Note_on_c, 10, 64, 110
4, 13822, Note_on_c, 10, 57, 0
4, 13822, Note_on_c, 10, 60, 0
4, 13822, Note_on_c, 10, 64, 0
4, 14016, Note_on_c, 10, 59, 110
4, 14016, Note_on_c, 10, 64, 110
4, 14016, Note_on_c, 10, 68, 110
4, 14110, Note_on_c, 10, 59, 0
4, 14110, Note_on_c, 10, 64, 0
4, 14110, Note_on_c, 10, 68, 0
4, 14112, Note_on_c, 10, 59, 110
4, 14112, Note_on_c, 10, 64, 110
4, 14112, Note_on_c, 10, 68, 110
4, 14206, Note_on_c, 10, 59, 0
4, 14206, Note_on_c, 10, 64, 0
4, 14206, Note_on_c, 10, 68, 0
4, 14304, Note_on_c, 10, 59, 110
4, 14304, Note_on_c, 10, 64, 110
4, 14304, Note_on_c, 10, 68, 110
4, 14398, Note_on_c, 10, 59, 0
4, 14398, Note_on_c, 10, 64, 0
4, 14398, Note_on_c, 10, 68, 0
4, 14400, Note_on_c, 10, 59, 110
4, 14400, Note_on_c, 10, 64, 110
4, 14400, Note_on_c, 10, 68, 110
4, 14494, Note_on_c, 10, 59, 0
4, 14494, Note_on_c, 10, 64, 0
4, 14494, Note_on_c, 10, 68, 0
4, 14496, Note_on_c, 10, 59, 110
4, 14496, Note_on_c, 10, 64, 110
4, 14496, Note_on_c, 10, 68, 110
4, 14590, Note_on_c, 10, 59, 0
4, 14590, Note_on_c, 10, 64, 0
4, 14590, Note_on_c, 10, 68, 0
4, 14784, Note_on_c, 10, 55, 110
4, 14784, Note_on_c, 10, 59, 110
4, 14784, Note_on_c, 10, 62, 110
4, 14878, Note_on_c, 10, 55, 0
4, 14878, Note_on_c, 10, 59, 0
4, 14878, Note_on_c, 10, 62, 0
4, 14880, Note_on_c, 10, 55, 110
4, 14880, Note_on_c, 10, 59, 110
4, 14880, Note_on_c, 10, 62, 110
4, 14974, Note_on_c, 10, 55, 0
4, 14974, Note_on_c, 10, 59, 0
4, 14974, Note_on_c, 10, 62, 0
4, 15072, Note_on_c, 10, 55, 110
4, 15072, Note_on_c, 10, 59, 110
4, 15072, Note_on_c, 10, 62, 110
4, 15166, Note_on_c, 10, 55, 0
4, 15166, Note_on_c, 10, 59, 0
4, 15166, Note_on_c, 10, 62, 0
4, 15168, Note_on_c, 10, 55, 110
4, 15168, Note_on_c, 10, 59, 110
4, 15168, Note_on_c, 10, 62, 110
4, 15262, Note_on_c, 10, 55, 0
4, 15262, Note_on_c, 10, 59, 0
4, 15262, Note_on_c, 10, 62, 0
4, 15264, Note_on_c, 10, 55, 110
4, 15264, Note_on_c, 10, 59, 110
4, 15264, Note_on_c, 10, 62, 110
4, 15358, Note_on_c, 10, 55, 0
4, 15358, Note_on_c, 10, 59, 0
4, 15358, Note_on_c, 10, 62, 0
4, 15552, Note_on_c, 10, 53, 110
4, 15552, Note_on_c, 10, 57, 110
4, 15552, Note_on_c, 10, 59, 110
4, 15552, Note_on_c, 10, 60, 110
4, 15646, Note_on_c, 10, 53, 0
4, 15646, Note_on_c, 10, 57, 0
4, 15646, Note_on_c, 10, 59, 0
4, 15646, Note_on_c, 10, 60, 0
4, 15648, Note_on_c, 10, 53, 110
4, 15648, Note_on_c, 10, 57, 110
4, 15648, Note_on_c, 10, 59, 110
4, 15648, Note_on_c, 10, 60, 110
4, 15742, Note_on_c, 10, 53, 0
4, 15742, Note_on_c, 10, 57, 0
4, 15742, Note_on_c, 10, 59, 0
4, 15742, Note_on_c, 10, 60, 0
4, 15840, Note_on_c, 10, 53, 110
4, 15840, Note_on_c, 10, 57, 110
4, 15840, Note_on_c, 10, 59, 110
4, 15840, Note_on_c, 10, 60, 110
4, 15934, Note_on_c, 10, 53, 0
4, 15934, Note_on_c, 10, 57, 0
4, 15934, Note_on_c, 10, 59, 0
4, 15934, Note_on_c, 10, 60, 0
4, 15936, Note_on_c, 10, 53, 110
4, 15936, Note_on_c, 10, 57, 110
4, 15936, Note_on_c, 10, 59, 110
4, 15936, Note_on_c, 10, 60, 110
4, 16030, Note_on_c, 10, 53, 0
4, 16030, Note_on_c, 10, 57, 0
4, 16030, Note_on_c, 10, 59, 0
4, 16030, Note_on_c, 10, 60, 0
4, 16032, Note_on_c, 10, 53, 110
4, 16032, Note_on_c, 10, 57, 110
4, 16032, Note_on_c, 10, 59, 110
4, 16032, Note_on_c, 10, 60, 110
4, 16126, Note_on_c, 10, 53, 0
4, 16126, Note_on_c, 10, 57, 0
4, 16126, Note_on_c, 10, 59, 0
4, 16126, Note_on_c, 10, 60, 0
4, 16320, Note_on_c, 10, 58, 110
4, 16320, Note_on_c, 10, 62, 110
4, 16320, Note_on_c, 10, 65, 110
4, 16414, Note_on_c, 10, 58, 0
4, 16414, Note_on_c, 10, 62, 0
4, 16414, Note_on_c, 10, 65, 0
4, 16416, Note_on_c, 10, 58, 110
4, 16416, Note_on_c, 10, 62, 110
4, 16416, Note_on_c, 10, 65, 110
4, 16510, Note_on_c, 10, 58, 0
4, 16510, Note_on_c, 10, 62, 0
4, 16510, Note_on_c, 10, 65, 0
4, 16608, Note_on_c, 10, 58, 110
4, 16608, Note_on_c, 10, 62, 110
4, 16608, Note_on_c, 10, 65, 110
4, 16702, Note_on_c, 10, 58, 0
4, 16702, Note_on_c, 10, 62, 0
4, 16702, Note_on_c, 10, 65, 0
4, 16704, Note_on_c, 10, 58, 110
4, 16704, Note_on_c, 10, 62, 110
4, 16704, Note_on_c, 10, 65, 110
4, 16798, Note_on_c, 10, 58, 0
4, 16798, Note_on_c, 10, 62, 0
4, 16798, Note_on_c, 10, 65, 0
4, 16800, Note_on_c, 10, 58, 110
4, 16800, Note_on_c, 10, 62, 110
4, 16800, Note_on_c, 10, 65, 110
4, 16894, Note_on_c, 10, 58, 0
4, 16894, Note_on_c, 10, 62, 0
4, 16894, Note_on_c, 10, 65, 0
4, 17088, Note_on_c, 10, 61, 110
4, 17088, Note_on_c, 10, 65, 110
4, 17088, Note_on_c, 10, 68, 110
4, 17182, Note_on_c, 10, 61, 0
4, 17182, Note_on_c, 10, 65, 0
4, 17182, Note_on_c, 10, 68, 0
4, 17184, Note_on_c, 10, 61, 110
4, 17184, Note_on_c, 10, 65, 110
4, 17184, Note_on_c, 10, 68, 110
4, 17278, Note_on_c, 10, 61, 0
4, 17278, Note_on_c, 10, 65, 0
4, 17278, Note_on_c, 10, 68, 0
4, 17376, Note_on_c, 10, 61, 110
4, 17376, Note_on_c, 10, 65, 110
4, 17376, Note_on_c, 10, 68, 110
4, 17470, Note_on_c, 10, 61, 0
4, 17470, Note_on_c, 10, 65, 0
4, 17470, Note_on_c, 10, 68, 0
4, 17472, Note_on_c, 10, 61, 110
4, 17472, Note_on_c, 10, 65, 110
4, 17472, Note_on_c, 10, 68, 110
4, 17566, Note_on_c, 10, 61, 0
4, 17566, Note_on_c, 10, 65, 0
4, 17566, Note_on_c, 10, 68, 0
4, 17568, Note_on_c, 10, 61, 110
4, 17568, Note_on_c, 10, 65, 110
4, 17568, Note_on_c, 10, 68, 110
4, 17662, Note_on_c, 10, 61, 0
4, 17662, Note_on_c, 10, 65, 0
4, 17662, Note_on_c, 10, 68, 0
4, 17856, Note_on_c, 10, 59, 110
4, 17856, Note_on_c, 10, 63, 110
4, 17856, Note_on_c, 10, 66, 110
4, 17950, Note_on_c, 10, 59, 0
4, 17950, Note_on_c, 10, 63, 0
4, 17950, Note_on_c, 10, 66, 0
4, 17952, Note_on_c, 10, 59, 110
4, 17952, Note_on_c, 10, 63, 110
4, 17952, Note_on_c, 10, 66, 110
4, 18046, Note_on_c, 10, 59, 0
4, 18046, Note_on_c, 10, 63, 0
4, 18046, Note_on_c, 10, 66, 0
4, 18144, Note_on_c, 10, 59, 110
4, 18144, Note_on_c, 10, 63, 110
4, 18144, Note_on_c, 10, 66, 110
4, 18238, Note_on_c, 10, 59, 0
4, 18238, Note_on_c, 10, 63, 0
4, 18238, Note_on_c, 10, 66, 0
4, 18240, Note_on_c, 10, 59, 110
4, 18240, Note_on_c, 10, 63, 110
4, 18240, Note_on_c, 10, 66, 110
4, 18334, Note_on_c, 10, 59, 0
4, 18334, Note_on_c, 10, 63, 0
4, 18334, Note_on_c, 10, 66, 0
4, 18336, Note_on_c, 10, 59, 110
4, 18336, Note_on_c, 10, 63, 110
4, 18336, Note_on_c, 10, 66, 110
4, 18430, Note_on_c, 10, 59, 0
4, 18430, Note_on_c, 10, 63, 0
4, 18430, Note_on_c, 10, 66, 0
4, 18528, Note_on_c, 10, 59, 110
4, 18528, Note_on_c, 10, 63, 110
4, 18528, Note_on_c, 10, 66, 110
4, 18622, Note_on_c, 10, 59, 0
4, 18622, Note_on_c, 10, 63, 0
4, 18622, Note_on_c, 10, 66, 0
4, 18624, Note_on_c, 10, 59, 110
4, 18624, Note_on_c, 10, 63, 110
4, 18624, Note_on_c, 10, 66, 110
4, 18718, Note_on_c, 10, 59, 0
4, 18718, Note_on_c, 10, 63, 0
4, 18718, Note_on_c, 10, 66, 0
4, 18720, Note_on_c, 10, 59, 110
4, 18720, Note_on_c, 10, 63, 110
4, 18720, Note_on_c, 10, 66, 110
4, 18814, Note_on_c, 10, 59, 0
4, 18814, Note_on_c, 10, 63, 0
4, 18814, Note_on_c, 10, 66, 0
4, 18912, Note_on_c, 10, 59, 110
4, 18912, Note_on_c, 10, 63, 110
4, 18912, Note_on_c, 10, 66, 110
4, 19006, Note_on_c, 10, 59, 0
4, 19006, Note_on_c, 10, 63, 0
4, 19006, Note_on_c, 10, 66, 0
4, 19008, Note_on_c, 10, 59, 110
4, 19008, Note_on_c, 10, 63, 110
4, 19008, Note_on_c, 10, 66, 110
4, 19102, Note_on_c, 10, 59, 0
4, 19102, Note_on_c, 10, 63, 0
4, 19102, Note_on_c, 10, 66, 0
4, 19104, Note_on_c, 10, 59, 110
4, 19104, Note_on_c, 10, 63, 110
4, 19104, Note_on_c, 10, 66, 110
4, 19198, Note_on_c, 10, 59, 0
4, 19198, Note_on_c, 10, 63, 0
4, 19198, Note_on_c, 10, 66, 0
4, 19392, Note_on_c, 10, 57, 110
4, 19392, Note_on_c, 10, 60, 110
4, 19392, Note_on_c, 10, 64, 110
4, 19486, Note_on_c, 10, 57, 0
4, 19486, Note_on_c, 10, 60, 0
4, 19486, Note_on_c, 10, 64, 0
4, 19488, Note_on_c, 10, 57, 110
4, 19488, Note_on_c, 10, 60, 110
4, 19488, Note_on_c, 10, 64, 110
4, 19582, Note_on_c, 10, 57, 0
4, 19582, Note_on_c, 10, 60, 0
4, 19582, Note_on_c, 10, 64, 0
4, 19680, Note_on_c, 10, 57, 110
4, 19680, Note_on_c, 10, 60, 110
4, 19680, Note_on_c, 10, 64, 110
4, 19774, Note_on_c, 10, 57, 0
4, 19774, Note_on_c, 10, 60, 0
4, 19774, Note_on_c, 10, 64, 0
4, 19776, Note_on_c, 10, 57, 110
4, 19776, Note_on_c, 10, 60, 110
4, 19776, Note_on_c, 10, 64, 110
4, 19870, Note_on_c, 10, 57, 0
4, 19870, Note_on_c, 10, 60, 0
4, 19870, Note_on_c, 10, 64, 0
4, 19872, Note_on_c, 10, 57, 110
4, 19872, Note_on_c, 10, 60, 110
4, 19872, Note_on_c, 10, 64, 110
4, 19966, Note_on_c, 10, 57, 0
4, 19966, Note_on_c, 10, 60, 0
4, 19966, Note_on_c, 10, 64, 0
4, 20160, Note_on_c, 10, 59, 110
4, 20160, Note_on_c, 10, 64, 110
4, 20160, Note_on_c, 10, 68, 110
4, 20254, Note_on_c, 10, 59, 0
4, 20254, Note_on_c, 10, 64, 0
4, 20254, Note_on_c, 10, 68, 0
4, 20256, Note_on_c, 10, 59, 110
4, 20256, Note_on_c, 10, 64, 110
4, 20256, Note_on_c, 10, 68, 110
4, 20350, Note_on_c, 10, 59, 0
4, 20350, Note_on_c, 10, 64, 0
4, 20350, Note_on_c, 10, 68, 0
4, 20448, Note_on_c, 10, 59, 110
4, 20448, Note_on_c, 10, 64, 110
4, 20448, Note_on_c, 10, 68, 110
4, 20542, Note_on_c, 10, 59, 0
4, 20542, Note_on_c, 10, 64, 0
4, 20542, Note_on_c, 10, 68, 0
4, 20544, Note_on_c, 10, 59, 110
4, 20544, Note_on_c, 10, 64, 110
4, 20544, Note_on_c, 10, 68, 110
4, 20638, Note_on_c, 10, 59, 0
4, 20638, Note_on_c, 10, 64, 0
4, 20638, Note_on_c, 10, 68, 0
4, 20640, Note_on_c, 10, 59, 110
4, 20640, Note_on_c, 10, 64, 110
4, 20640, Note_on_c, 10, 68, 110
4, 20734, Note_on_c, 10, 59, 0
4, 20734, Note_on_c, 10, 64, 0
4, 20734, Note_on_c, 10, 68, 0
4, 20928, Note_on_c, 10, 55, 110
4, 20928, Note_on_c, 10, 59, 110
4, 20928, Note_on_c, 10, 62, 110
4, 21022, Note_on_c, 10, 55, 0
4, 21022, Note_on_c, 10, 59, 0
4, 21022, Note_on_c, 10, 62, 0
4, 21024, Note_on_c, 10, 55, 110
4, 21024, Note_on_c, 10, 59, 110
4, 21024, Note_on_c, 10, 62, 110
4, 21118, Note_on_c, 10, 55, 0
4, 21118, Note_on_c, 10, 59, 0
4, 21118, Note_on_c, 10, 62, 0
4, 21216, Note_on_c, 10, 55, 110
4, 21216, Note_on_c, 10, 59, 110
4, 21216, Note_on_c, 10, 62, 110
4, 21310, Note_on_c, 10, 55, 0
4, 21310, Note_on_c, 10, 59, 0
4, 21310, Note_on_c, 10, 62, 0
4, 21312, Note_on_c, 10, 55, 110
4, 21312, Note_on_c, 10, 59, 110
4, 21312, Note_on_c, 10, 62, 110
4, 21406, Note_on_c, 10, 55, 0
4, 21406, Note_on_c, 10, 59, 0
4, 21406, Note_on_c, 10, 62, 0
4, 21408, Note_on_c, 10, 55, 110
4, 21408, Note_on_c, 10, 59, 110
4, 21408, Note_on_c, 10, 62, 110
4, 21502, Note_on_c, 10, 55, 0
4, 21502, Note_on_c, 10, 59, 0
4, 21502, Note_on_c, 10, 62, 0
4, 21696, Note_on_c, 10, 53, 110
4, 21696, Note_on_c, 10, 57, 110
4, 21696, Note_on_c, 10, 59, 110
4, 21696, Note_on_c, 10, 60, 110
4, 21790, Note_on_c, 10, 53, 0
4, 21790, Note_on_c, 10, 57, 0
4, 21790, Note_on_c, 10, 59, 0
4, 21790, Note_on_c, 10, 60, 0
4, 21792, Note_on_c, 10, 53, 110
4, 21792, Note_on_c, 10, 57, 110
4, 21792, Note_on_c, 10, 59, 110
4, 21792, Note_on_c, 10, 60, 110
4, 21886, Note_on_c, 10, 53, 0
4, 21886, Note_on_c, 10, 57, 0
4, 21886, Note_on_c, 10, 59, 0
4, 21886, Note_on_c, 10, 60, 0
4, 21984, Note_on_c, 10, 53, 110
4, 21984, Note_on_c, 10, 57, 110
4, 21984, Note_on_c, 10, 59, 110
4, 21984, Note_on_c, 10, 60, 110
4, 22078, Note_on_c, 10, 53, 0
4, 22078, Note_on_c, 10, 57, 0
4, 22078, Note_on_c, 10, 59, 0
4, 22078, Note_on_c, 10, 60, 0
4, 22080, Note_on_c, 10, 53, 110
4, 22080, Note_on_c, 10, 57, 110
4, 22080, Note_on_c, 10, 59, 110
4, 22080, Note_on_c, 10, 60, 110
4, 22174, Note_on_c, 10, 53, 0
4, 22174, Note_on_c, 10, 57, 0
4, 22174, Note_on_c, 10, 59, 0
4, 22174, Note_on_c, 10, 60, 0
4, 22176, Note_on_c, 10, 53, 110
4, 22176, Note_on_c, 10, 57, 110
4, 22176, Note_on_c, 10, 59, 110
4, 22176, Note_on_c, 10, 60, 110
4, 22270, Note_on_c, 10, 53, 0
4, 22270, Note_on_c, 10, 57, 0
4, 22270, Note_on_c, 10, 59, 0
4, 22270, Note_on_c, 10, 60, 0
4, 22464, Note_on_c, 10, 58, 110
4, 22464, Note_on_c, 10, 62, 110
4, 22464, Note_on_c, 10, 65, 110
4, 22558, Note_on_c, 10, 58, 0
4, 22558, Note_on_c, 10, 62, 0
4, 22558, Note_on_c, 10, 65, 0
4, 22560, Note_on_c, 10, 58, 110
4, 22560, Note_on_c, 10, 62, 110
4, 22560, Note_on_c, 10, 65, 110
4, 22654, Note_on_c, 10, 58, 0
4, 22654, Note_on_c, 10, 62, 0
4, 22654, Note_on_c, 10, 65, 0
4, 22752, Note_on_c, 10, 58, 110
4, 22752, Note_on_c, 10, 62, 110
4, 22752, Note_on_c, 10, 65, 110
4, 22846, Note_on_c, 10, 58, 0
4, 22846, Note_on_c, 10, 62, 0
4, 22846, Note_on_c, 10, 65, 0
4, 22848, Note_on_c, 10, 58, 110
4, 22848, Note_on_c, 10, 62, 110
4, 22848, Note_on_c, 10, 65, 110
4, 22942, Note_on_c, 10, 58, 0
4, 22942, Note_on_c, 10, 62, 0
4, 22942, Note_on_c, 10, 65, 0
4, 22944, Note_on_c, 10, 58, 110
4, 22944, Note_on_c, 10, 62, 110
4, 22944, Note_on_c, 10, 65, 110
4, 23038, Note_on_c, 10, 58, 0
4, 23038, Note_on_c, 10, 62, 0
4, 23038, Note_on_c, 10, 65, 0
4, 23232, Note_on_c, 10, 61, 110
4, 23232, Note_on_c, 10, 64, 110
4, 23232, Note_on_c, 10, 69, 110
4, 23326, Note_on_c, 10, 61, 0
4, 23326, Note_on_c, 10, 64, 0
4, 23326, Note_on_c, 10, 69, 0
4, 23328, Note_on_c, 10, 61, 110
4, 23328, Note_on_c, 10, 64, 110
4, 23328, Note_on_c, 10, 69, 110
4, 23422, Note_on_c, 10, 61, 0
4, 23422, Note_on_c, 10, 64, 0
4, 23422, Note_on_c, 10, 69, 0
4, 23520, Note_on_c, 10, 61, 110
4, 23520, Note_on_c, 10, 64, 110
4, 23520, Note_on_c, 10, 69, 110
4, 23614, Note_on_c, 10, 61, 0
4, 23614, Note_on_c, 10, 64, 0
4, 23614, Note_on_c, 10, 69, 0
4, 23616, Note_on_c, 10, 61, 110
4, 23616, Note_on_c, 10, 64, 110
4, 23616, Note_on_c, 10, 69, 110
4, 23710, Note_on_c, 10, 61, 0
4, 23710, Note_on_c, 10, 64, 0
4, 23710, Note_on_c, 10, 69, 0
4, 23712, Note_on_c, 10, 61, 110
4, 23712, Note_on_c, 10, 64, 110
4, 23712, Note_on_c, 10, 69, 110
4, 23806, Note_on_c, 10, 61, 0
4, 23806, Note_on_c, 10, 64, 0
4, 23806, Note_on_c, 10, 69, 0
4, 24000, Note_on_c, 10, 61, 110
4, 24000, Note_on_c, 10, 64, 110
4, 24000, Note_on_c, 10, 66, 110
4, 24000, Note_on_c, 10, 69, 110
4, 24000, Note_on_c, 10, 71, 110
4, 24094, Note_on_c, 10, 61, 0
4, 24094, Note_on_c, 10, 64, 0
4, 24094, Note_on_c, 10, 66, 0
4, 24094, Note_on_c, 10, 69, 0
4, 24094, Note_on_c, 10, 71, 0
4, 24096, Note_on_c, 10, 61, 110
4, 24096, Note_on_c, 10, 64, 110
4, 24096, Note_on_c, 10, 68, 110
4, 24096, Note_on_c, 10, 69, 110
4, 24096, Note_on_c, 10, 73, 110
4, 24190, Note_on_c, 10, 61, 0
4, 24190, Note_on_c, 10, 64, 0
4, 24190, Note_on_c, 10, 68, 0
4, 24190, Note_on_c, 10, 69, 0
4, 24190, Note_on_c, 10, 73, 0
4, 24288, Note_on_c, 10, 61, 110
4, 24288, Note_on_c, 10, 64, 110
4, 24288, Note_on_c, 10, 69, 110
4, 24448, Note_on_c, 10, 61, 0
4, 24448, Note_on_c, 10, 64, 0
4, 24448, Note_on_c, 10, 69, 0
4, 24480, Note_on_c, 10, 61, 110
4, 24480, Note_on_c, 10, 64, 110
4, 24480, Note_on_c, 10, 69, 110
4, 24574, Note_on_c, 10, 61, 0
4, 24574, Note_on_c, 10, 64, 0
4, 24574, Note_on_c, 10, 69, 0
4, 24576, Note_on_c, 10, 61, 110
4, 24576, Note_on_c, 10, 64, 110
4, 24576, Note_on_c, 10, 69, 110
4, 24670, Note_on_c, 10, 61, 0
4, 24670, Note_on_c, 10, 64, 0
4, 24670, Note_on_c, 10, 69, 0
4, 24768, Note_on_c, 10, 61, 110
4, 24768, Note_on_c, 10, 64, 110
4, 24768, Note_on_c, 10, 68, 110
4, 24862, Note_on_c, 10, 61, 0
4, 24862, Note_on_c, 10, 64, 0
4, 24862, Note_on_c, 10, 68, 0
4, 24864, Note_on_c, 10, 61, 110
4, 24864, Note_on_c, 10, 64, 110
4, 24864, Note_on_c, 10, 68, 110
4, 24958, Note_on_c, 10, 61, 0
4, 24958, Note_on_c, 10, 64, 0
4, 24958, Note_on_c, 10, 68, 0
4, 25056, Note_on_c, 10, 61, 110
4, 25056, Note_on_c, 10, 64, 110
4, 25056, Note_on_c, 10, 68, 110
4, 25150, Note_on_c, 10, 61, 0
4, 25150, Note_on_c, 10, 64, 0
4, 25150, Note_on_c, 10, 68, 0
4, 25152, Note_on_c, 10, 61, 110
4, 25152, Note_on_c, 10, 64, 110
4, 25152, Note_on_c, 10, 68, 110
4, 25246, Note_on_c, 10, 61, 0
4, 25246, Note_on_c, 10, 64, 0
4, 25246, Note_on_c, 10, 68, 0
4, 25248, Note_on_c, 10, 61, 110
4, 25248, Note_on_c, 10, 64, 110
4, 25248, Note_on_c, 10, 68, 110
4, 25342, Note_on_c, 10, 61, 0
4, 25342, Note_on_c, 10, 64, 0
4, 25342, Note_on_c, 10, 68, 0
4, 25440, Note_on_c, 10, 61, 110
4, 25440, Note_on_c, 10, 64, 110
4, 25440, Note_on_c, 10, 68, 110
4, 25534, Note_on_c, 10, 61, 0
4, 25534, Note_on_c, 10, 64, 0
4, 25534, Note_on_c, 10, 68, 0
4, 25536, Note_on_c, 10, 61, 110
4, 25536, Note_on_c, 10, 64, 110
4, 25536, Note_on_c, 10, 68, 110
4, 25630, Note_on_c, 10, 61, 0
4, 25630, Note_on_c, 10, 64, 0
4, 25630, Note_on_c, 10, 68, 0
4, 25632, Note_on_c, 10, 61, 110
4, 25632, Note_on_c, 10, 64, 110
4, 25632, Note_on_c, 10, 68, 110
4, 25726, Note_on_c, 10, 61, 0
4, 25726, Note_on_c, 10, 64, 0
4, 25726, Note_on_c, 10, 68, 0
4, 25824, Note_on_c, 10, 61, 110
4, 25824, Note_on_c, 10, 64, 110
4, 25824, Note_on_c, 10, 68, 110
4, 25918, Note_on_c, 10, 61, 0
4, 25918, Note_on_c, 10, 64, 0
4, 25918, Note_on_c, 10, 68, 0
4, 25920, Note_on_c, 10, 61, 110
4, 25920, Note_on_c, 10, 64, 110
4, 25920, Note_on_c, 10, 68, 110
4, 26014, Note_on_c, 10, 61, 0
4, 26014, Note_on_c, 10, 64, 0
4, 26014, Note_on_c, 10, 68, 0
4, 26016, Note_on_c, 10, 61, 110
4, 26016, Note_on_c, 10, 64, 110
4, 26016, Note_on_c, 10, 68, 110
4, 26110, Note_on_c, 10, 61, 0
4, 26110, Note_on_c, 10, 64, 0
4, 26110, Note_on_c, 10, 68, 0
4, 26304, Note_on_c, 10, 59, 110
4, 26304, Note_on_c, 10, 63, 110
4, 26304, Note_on_c, 10, 66, 110
4, 26398, Note_on_c, 10, 59, 0
4, 26398, Note_on_c, 10, 63, 0
4, 26398, Note_on_c, 10, 66, 0
4, 26400, Note_on_c, 10, 59, 110
4, 26400, Note_on_c, 10, 63, 110
4, 26400, Note_on_c, 10, 66, 110
4, 26494, Note_on_c, 10, 59, 0
4, 26494, Note_on_c, 10, 63, 0
4, 26494, Note_on_c, 10, 66, 0
4, 26592, Note_on_c, 10, 59, 110
4, 26592, Note_on_c, 10, 63, 110
4, 26592, Note_on_c, 10, 66, 110
4, 26686, Note_on_c, 10, 59, 0
4, 26686, Note_on_c, 10, 63, 0
4, 26686, Note_on_c, 10, 66, 0
4, 26688, Note_on_c, 10, 59, 110
4, 26688, Note_on_c, 10, 63, 110
4, 26688, Note_on_c, 10, 66, 110
4, 26782, Note_on_c, 10, 59, 0
4, 26782, Note_on_c, 10, 63, 0
4, 26782, Note_on_c, 10, 66, 0
4, 26784, Note_on_c, 10, 59, 110
4, 26784, Note_on_c, 10, 63, 110
4, 26784, Note_on_c, 10, 66, 110
4, 26878, Note_on_c, 10, 59, 0
4, 26878, Note_on_c, 10, 63, 0
4, 26878, Note_on_c, 10, 66, 0
4, 27072, Note_on_c, 10, 57, 110
4, 27072, Note_on_c, 10, 61, 110
4, 27072, Note_on_c, 10, 64, 110
4, 27166, Note_on_c, 10, 57, 0
4, 27166, Note_on_c, 10, 61, 0
4, 27166, Note_on_c, 10, 64, 0
4, 27168, Note_on_c, 10, 57, 110
4, 27168, Note_on_c, 10, 61, 110
4, 27168, Note_on_c, 10, 64, 110
4, 27262, Note_on_c, 10, 57, 0
4, 27262, Note_on_c, 10, 61, 0
4, 27262, Note_on_c, 10, 64, 0
4, 27360, Note_on_c, 10, 57, 110
4, 27360, Note_on_c, 10, 61, 110
4, 27360, Note_on_c, 10, 64, 110
4, 27454, Note_on_c, 10, 57, 0
4, 27454, Note_on_c, 10, 61, 0
4, 27454, Note_on_c, 10, 64, 0
4, 27456, Note_on_c, 10, 57, 110
4, 27456, Note_on_c, 10, 61, 110
4, 27456, Note_on_c, 10, 64, 110
4, 27550, Note_on_c, 10, 57, 0
4, 27550, Note_on_c, 10, 61, 0
4, 27550, Note_on_c, 10, 64, 0
4, 27552, Note_on_c, 10, 57, 110
4, 27552, Note_on_c, 10, 61, 110
4, 27552, Note_on_c, 10, 64, 110
4, 27646, Note_on_c, 10, 57, 0
4, 27646, Note_on_c, 10, 61, 0
4, 27646, Note_on_c, 10, 64, 0
4, 27840, Note_on_c, 10, 61, 110
4, 27840, Note_on_c, 10, 64, 110
4, 27840, Note_on_c, 10, 68, 110
4, 27934, Note_on_c, 10, 61, 0
4, 27934, Note_on_c, 10, 64, 0
4, 27934, Note_on_c, 10, 68, 0
4, 27936, Note_on_c, 10, 61, 110
4, 27936, Note_on_c, 10, 64, 110
4, 27936, Note_on_c, 10, 68, 110
4, 28030, Note_on_c, 10, 61, 0
4, 28030, Note_on_c, 10, 64, 0
4, 28030, Note_on_c, 10, 68, 0
4, 28128, Note_on_c, 10, 61, 110
4, 28128, Note_on_c, 10, 64, 110
4, 28128, Note_on_c, 10, 68, 110
4, 28222, Note_on_c, 10, 61, 0
4, 28222, Note_on_c, 10, 64, 0
4, 28222, Note_on_c, 10, 68, 0
4, 28224, Note_on_c, 10, 61, 110
4, 28224, Note_on_c, 10, 64, 110
4, 28224, Note_on_c, 10, 68, 110
4, 28318, Note_on_c, 10, 61, 0
4, 28318, Note_on_c, 10, 64, 0
4, 28318, Note_on_c, 10, 68, 0
4, 28320, Note_on_c, 10, 61, 110
4, 28320, Note_on_c, 10, 64, 110
4, 28320, Note_on_c, 10, 68, 110
4, 28414, Note_on_c, 10, 61, 0
4, 28414, Note_on_c, 10, 64, 0
4, 28414, Note_on_c, 10, 68, 0
4, 28608, Note_on_c, 10, 59, 110
4, 28608, Note_on_c, 10, 64, 110
4, 28608, Note_on_c, 10, 68, 110
4, 28702, Note_on_c, 10, 59, 0
4, 28702, Note_on_c, 10, 64, 0
4, 28702, Note_on_c, 10, 68, 0
4, 28704, Note_on_c, 10, 59, 110
4, 28704, Note_on_c, 10, 64, 110
4, 28704, Note_on_c, 10, 68, 110
4, 28798, Note_on_c, 10, 59, 0
4, 28798, Note_on_c, 10, 64, 0
4, 28798, Note_on_c, 10, 68, 0
4, 28896, Note_on_c, 10, 59, 110
4, 28896, Note_on_c, 10, 64, 110
4, 28896, Note_on_c, 10, 68, 110
4, 28990, Note_on_c, 10, 59, 0
4, 28990, Note_on_c, 10, 64, 0
4, 28990, Note_on_c, 10, 68, 0
4, 28992, Note_on_c, 10, 59, 110
4, 28992, Note_on_c, 10, 64, 110
4, 28992, Note_on_c, 10, 68, 110
4, 29086, Note_on_c, 10, 59, 0
4, 29086, Note_on_c, 10, 64, 0
4, 29086, Note_on_c, 10, 68, 0
4, 29088, Note_on_c, 10, 59, 110
4, 29088, Note_on_c, 10, 64, 110
4, 29088, Note_on_c, 10, 68, 110
4, 29182, Note_on_c, 10, 59, 0
4, 29182, Note_on_c, 10, 64, 0
4, 29182, Note_on_c, 10, 68, 0
4, 29376, Note_on_c, 10, 57, 110
4, 29376, Note_on_c, 10, 61, 110
4, 29376, Note_on_c, 10, 64, 110
4, 29470, Note_on_c, 10, 57, 0
4, 29470, Note_on_c, 10, 61, 0
4, 29470, Note_on_c, 10, 64, 0
4, 29472, Note_on_c, 10, 57, 110
4, 29472, Note_on_c, 10, 61, 110
4, 29472, Note_on_c, 10, 64, 110
4, 29566, Note_on_c, 10, 57, 0
4, 29566, Note_on_c, 10, 61, 0
4, 29566, Note_on_c, 10, 64, 0
4, 29664, Note_on_c, 10, 57, 110
4, 29664, Note_on_c, 10, 61, 110
4, 29664, Note_on_c, 10, 64, 110
4, 29758, Note_on_c, 10, 57, 0
4, 29758, Note_on_c, 10, 61, 0
4, 29758, Note_on_c, 10, 64, 0
4, 29760, Note_on_c, 10, 57, 110
4, 29760, Note_on_c, 10, 61, 110
4, 29760, Note_on_c, 10, 64, 110
4, 29854, Note_on_c, 10, 57, 0
4, 29854, Note_on_c, 10, 61, 0
4, 29854, Note_on_c, 10, 64, 0
4, 29856, Note_on_c, 10, 57, 110
4, 29856, Note_on_c, 10, 61, 110
4, 29856, Note_on_c, 10, 64, 110
4, 29950, Note_on_c, 10, 57, 0
4, 29950, Note_on_c, 10, 61, 0
4, 29950, Note_on_c, 10, 64, 0
4, 30144, Note_on_c, 10, 59, 110
4, 30144, Note_on_c, 10, 63, 110
4, 30144, Note_on_c, 10, 66, 110
4, 30238, Note_on_c, 10, 59, 0
4, 30238, Note_on_c, 10, 63, 0
4, 30238, Note_on_c, 10, 66, 0
4, 30240, Note_on_c, 10, 59, 110
4, 30240, Note_on_c, 10, 63, 110
4, 30240, Note_on_c, 10, 66, 110
4, 30334, Note_on_c, 10, 59, 0
4, 30334, Note_on_c, 10, 63, 0
4, 30334, Note_on_c, 10, 66, 0
4, 30432, Note_on_c, 10, 59, 110
4, 30432, Note_on_c, 10, 63, 110
4, 30432, Note_on_c, 10, 66, 110
4, 30526, Note_on_c, 10, 59, 0
4, 30526, Note_on_c, 10, 63, 0
4, 30526, Note_on_c, 10, 66, 0
4, 30528, Note_on_c, 10, 59, 110
4, 30528, Note_on_c, 10, 63, 110
4, 30528, Note_on_c, 10, 66, 110
4, 30622, Note_on_c, 10, 59, 0
4, 30622, Note_on_c, 10, 63, 0
4, 30622, Note_on_c, 10, 66, 0
4, 30624, Note_on_c, 10, 59, 110
4, 30624, Note_on_c, 10, 63, 110
4, 30624, Note_on_c, 10, 66, 110
4, 30718, Note_on_c, 10, 59, 0
4, 30718, Note_on_c, 10, 63, 0
4, 30718, Note_on_c, 10, 66, 0
4, 30912, Note_on_c, 10, 61, 110
4, 30912, Note_on_c, 10, 64, 110
4, 30912, Note_on_c, 10, 68, 110
4, 31006, Note_on_c, 10, 61, 0
4, 31006, Note_on_c, 10, 64, 0
4, 31006, Note_on_c, 10, 68, 0
4, 31008, Note_on_c, 10, 61, 110
4, 31008, Note_on_c, 10, 64, 110
4, 31008, Note_on_c, 10, 68, 110
4, 31102, Note_on_c, 10, 61, 0
4, 31102, Note_on_c, 10, 64, 0
4, 31102, Note_on_c, 10, 68, 0
4, 31200, Note_on_c, 10, 61, 110
4, 31200, Note_on_c, 10, 64, 110
4, 31200, Note_on_c, 10, 68, 110
4, 31294, Note_on_c, 10, 61, 0
4, 31294, Note_on_c, 10, 64, 0
4, 31294, Note_on_c, 10, 68, 0
4, 31296, Note_on_c, 10, 61, 110
4, 31296, Note_on_c, 10, 64, 110
4, 31296, Note_on_c, 10, 68, 110
4, 31390, Note_on_c, 10, 61, 0
4, 31390, Note_on_c, 10, 64, 0
4, 31390, Note_on_c, 10, 68, 0
4, 31392, Note_on_c, 10, 61, 110
4, 31392, Note_on_c, 10, 64, 110
4, 31392, Note_on_c, 10, 68, 110
4, 31486, Note_on_c, 10, 61, 0
4, 31486, Note_on_c, 10, 64, 0
4, 31486, Note_on_c, 10, 68, 0
4, 31584, Note_on_c, 10, 61, 110
4, 31584, Note_on_c, 10, 64, 110
4, 31584, Note_on_c, 10, 68, 110
4, 31678, Note_on_c, 10, 61, 0
4, 31678, Note_on_c, 10, 64, 0
4, 31678, Note_on_c, 10, 68, 0
4, 31680, Note_on_c, 10, 61, 110
4, 31680, Note_on_c, 10, 64, 110
4, 31680, Note_on_c, 10, 68, 110
4, 31774, Note_on_c, 10, 61, 0
4, 31774, Note_on_c, 10, 64, 0
4, 31774, Note_on_c, 10, 68, 0
4, 31776, Note_on_c, 10, 61, 110
4, 31776, Note_on_c, 10, 64, 110
4, 31776, Note_on_c, 10, 68, 110
4, 31870, Note_on_c, 10, 61, 0
4, 31870, Note_on_c, 10, 64, 0
4, 31870, Note_on_c, 10, 68, 0
4, 31968, Note_on_c, 10, 61, 110
4, 31968, Note_on_c, 10, 64, 110
4, 31968, Note_on_c, 10, 68, 110
4, 32062, Note_on_c, 10, 61, 0
4, 32062, Note_on_c, 10, 64, 0
4, 32062, Note_on_c, 10, 68, 0
4, 32064, Note_on_c, 10, 61, 110
4, 32064, Note_on_c, 10, 64, 110
4, 32064, Note_on_c, 10, 68, 110
4, 32158, Note_on_c, 10, 61, 0
4, 32158, Note_on_c, 10, 64, 0
4, 32158, Note_on_c, 10, 68, 0
4, 32160, Note_on_c, 10, 61, 110
4, 32160, Note_on_c, 10, 64, 110
4, 32160, Note_on_c, 10, 68, 110
4, 32254, Note_on_c, 10, 61, 0
4, 32254, Note_on_c, 10, 64, 0
4, 32254, Note_on_c, 10, 68, 0
4, 32448, Note_on_c, 10, 59, 110
4, 32448, Note_on_c, 10, 63, 110
4, 32448, Note_on_c, 10, 66, 110
4, 32542, Note_on_c, 10, 59, 0
4, 32542, Note_on_c, 10, 63, 0
4, 32542, Note_on_c, 10, 66, 0
4, 32544, Note_on_c, 10, 59, 110
4, 32544, Note_on_c, 10, 63, 110
4, 32544, Note_on_c, 10, 66, 110
4, 32638, Note_on_c, 10, 59, 0
4, 32638, Note_on_c, 10, 63, 0
4, 32638, Note_on_c, 10, 66, 0
4, 32736, Note_on_c, 10, 59, 110
4, 32736, Note_on_c, 10, 63, 110
4, 32736, Note_on_c, 10, 66, 110
4, 32830, Note_on_c, 10, 59, 0
4, 32830, Note_on_c, 10, 63, 0
4, 32830, Note_on_c, 10, 66, 0
4, 32832, Note_on_c, 10, 59, 110
4, 32832, Note_on_c, 10, 63, 110
4, 32832, Note_on_c, 10, 66, 110
4, 32926, Note_on_c, 10, 59, 0
4, 32926, Note_on_c, 10, 63, 0
4, 32926, Note_on_c, 10, 66, 0
4, 32928, Note_on_c, 10, 59, 110
4, 32928, Note_on_c, 10, 63, 110
4, 32928, Note_on_c, 10, 66, 110
4, 33022, Note_on_c, 10, 59, 0
4, 33022, Note_on_c, 10, 63, 0
4, 33022, Note_on_c, 10, 66, 0
4, 33216, Note_on_c, 10, 57, 110
4, 33216, Note_on_c, 10, 61, 110
4, 33216, Note_on_c, 10, 64, 110
4, 33310, Note_on_c, 10, 57, 0
4, 33310, Note_on_c, 10, 61, 0
4, 33310, Note_on_c, 10, 64, 0
4, 33312, Note_on_c, 10, 57, 110
4, 33312, Note_on_c, 10, 61, 110
4, 33312, Note_on_c, 10, 64, 110
4, 33406, Note_on_c, 10, 57, 0
4, 33406, Note_on_c, 10, 61, 0
4, 33406, Note_on_c, 10, 64, 0
4, 33504, Note_on_c, 10, 57, 110
4, 33504, Note_on_c, 10, 61, 110
4, 33504, Note_on_c, 10, 64, 110
4, 33598, Note_on_c, 10, 57, 0
4, 33598, Note_on_c, 10, 61, 0
4, 33598, Note_on_c, 10, 64, 0
4, 33600, Note_on_c, 10, 57, 110
4, 33600, Note_on_c, 10, 61, 110
4, 33600, Note_on_c, 10, 64, 110
4, 33694, Note_on_c, 10, 57, 0
4, 33694, Note_on_c, 10, 61, 0
4, 33694, Note_on_c, 10, 64, 0
4, 33696, Note_on_c, 10, 57, 110
4, 33696, Note_on_c, 10, 61, 110
4, 33696, Note_on_c, 10, 64, 110
4, 33790, Note_on_c, 10, 57, 0
4, 33790, Note_on_c, 10, 61, 0
4, 33790, Note_on_c, 10, 64, 0
4, 33984, Note_on_c, 10, 61, 110
4, 33984, Note_on_c, 10, 64, 110
4, 33984, Note_on_c, 10, 68, 110
4, 34078, Note_on_c, 10, 61, 0
4, 34078, Note_on_c, 10, 64, 0
4, 34078, Note_on_c, 10, 68, 0
4, 34080, Note_on_c, 10, 61, 110
4, 34080, Note_on_c, 10, 64, 110
4, 34080, Note_on_c, 10, 68, 110
4, 34174, Note_on_c, 10, 61, 0
4, 34174, Note_on_c, 10, 64, 0
4, 34174, Note_on_c, 10, 68, 0
4, 34272, Note_on_c, 10, 61, 110
4, 34272, Note_on_c, 10, 64, 110
4, 34272, Note_on_c, 10, 68, 110
4, 34366, Note_on_c, 10, 61, 0
4, 34366, Note_on_c, 10, 64, 0
4, 34366, Note_on_c, 10, 68, 0
4, 34368, Note_on_c, 10, 61, 110
4, 34368, Note_on_c, 10, 64, 110
4, 34368, Note_on_c, 10, 68, 110
4, 34462, Note_on_c, 10, 61, 0
4, 34462, Note_on_c, 10, 64, 0
4, 34462, Note_on_c, 10, 68, 0
4, 34464, Note_on_c, 10, 61, 110
4, 34464, Note_on_c, 10, 64, 110
4, 34464, Note_on_c, 10, 68, 110
4, 34558, Note_on_c, 10, 61, 0
4, 34558, Note_on_c, 10, 64, 0
4, 34558, Note_on_c, 10, 68, 0
4, 34752, Note_on_c, 10, 59, 110
4, 34752, Note_on_c, 10, 64, 110
4, 34752, Note_on_c, 10, 68, 110
4, 34846, Note_on_c, 10, 59, 0
4, 34846, Note_on_c, 10, 64, 0
4, 34846, Note_on_c, 10, 68, 0
4, 34848, Note_on_c, 10, 59, 110
4, 34848, Note_on_c, 10, 64, 110
4, 34848, Note_on_c, 10, 68, 110
4, 34942, Note_on_c, 10, 59, 0
4, 34942, Note_on_c, 10, 64, 0
4, 34942, Note_on_c, 10, 68, 0
4, 35040, Note_on_c, 10, 59, 110
4, 35040, Note_on_c, 10, 64, 110
4, 35040, Note_on_c, 10, 68, 110
4, 35134, Note_on_c, 10, 59, 0
4, 35134, Note_on_c, 10, 64, 0
4, 35134, Note_on_c, 10, 68, 0
4, 35136, Note_on_c, 10, 59, 110
4, 35136, Note_on_c, 10, 64, 110
4, 35136, Note_on_c, 10, 68, 110
4, 35230, Note_on_c, 10, 59, 0
4, 35230, Note_on_c, 10, 64, 0
4, 35230, Note_on_c, 10, 68, 0
4, 35232, Note_on_c, 10, 59, 110
4, 35232, Note_on_c, 10, 64, 110
4, 35232, Note_on_c, 10, 68, 110
4, 35326, Note_on_c, 10, 59, 0
4, 35326, Note_on_c, 10, 64, 0
4, 35326, Note_on_c, 10, 68, 0
4, 35520, Note_on_c, 10, 57, 110
4, 35520, Note_on_c, 10, 61, 110
4, 35520, Note_on_c, 10, 64, 110
4, 35614, Note_on_c, 10, 57, 0
4, 35614, Note_on_c, 10, 61, 0
4, 35614, Note_on_c, 10, 64, 0
4, 35616, Note_on_c, 10, 57, 110
4, 35616, Note_on_c, 10, 61, 110
4, 35616, Note_on_c, 10, 64, 110
4, 35710, Note_on_c, 10, 57, 0
4, 35710, Note_on_c, 10, 61, 0
4, 35710, Note_on_c, 10, 64, 0
4, 35808, Note_on_c, 10, 57, 110
4, 35808, Note_on_c, 10, 61, 110
4, 35808, Note_on_c, 10, 64, 110
4, 35902, Note_on_c, 10, 57, 0
4, 35902, Note_on_c, 10, 61, 0
4, 35902, Note_on_c, 10, 64, 0
4, 35904, Note_on_c, 10, 57, 110
4, 35904, Note_on_c, 10, 61, 110
4, 35904, Note_on_c, 10, 64, 110
4, 35998, Note_on_c, 10, 57, 0
4, 35998, Note_on_c, 10, 61, 0
4, 35998, Note_on_c, 10, 64, 0
4, 36000, Note_on_c, 10, 57, 110
4, 36000, Note_on_c, 10, 61, 110
4, 36000, Note_on_c, 10, 64, 110
4, 36094, Note_on_c, 10, 57, 0
4, 36094, Note_on_c, 10, 61, 0
4, 36094, Note_on_c, 10, 64, 0
4, 36288, Note_on_c, 10, 62, 110
4, 36288, Note_on_c, 10, 66, 110
4, 36288, Note_on_c, 10, 69, 110
4, 36382, Note_on_c, 10, 62, 0
4, 36382, Note_on_c, 10, 66, 0
4, 36382, Note_on_c, 10, 69, 0
4, 36384, Note_on_c, 10, 62, 110
4, 36384, Note_on_c, 10, 66, 110
4, 36384, Note_on_c, 10, 69, 110
4, 36478, Note_on_c, 10, 62, 0
4, 36478, Note_on_c, 10, 66, 0
4, 36478, Note_on_c, 10, 69, 0
4, 36576, Note_on_c, 10, 62, 110
4, 36576, Note_on_c, 10, 66, 110
4, 36576, Note_on_c, 10, 69, 110
4, 36670, Note_on_c, 10, 62, 0
4, 36670, Note_on_c, 10, 66, 0
4, 36670, Note_on_c, 10, 69, 0
4, 36672, Note_on_c, 10, 62, 110
4, 36672, Note_on_c, 10, 66, 110
4, 36672, Note_on_c, 10, 69, 110
4, 36766, Note_on_c, 10, 62, 0
4, 36766, Note_on_c, 10, 66, 0
4, 36766, Note_on_c, 10, 69, 0
4, 36768, Note_on_c, 10, 62, 110
4, 36768, Note_on_c, 10, 66, 110
4, 36768, Note_on_c, 10, 69, 110
4, 36862, Note_on_c, 10, 62, 0
4, 36862, Note_on_c, 10, 66, 0
4, 36862, Note_on_c, 10, 69, 0
4, 36960, Note_on_c, 10, 62, 110
4, 36960, Note_on_c, 10, 66, 110
4, 36960, Note_on_c, 10, 69, 110
4, 37054, Note_on_c, 10, 62, 0
4, 37054, Note_on_c, 10, 66, 0
4, 37054, Note_on_c, 10, 69, 0
4, 37056, Note_on_c, 10, 62, 110
4, 37056, Note_on_c, 10, 66, 110
4, 37056, Note_on_c, 10, 69, 110
4, 37150, Note_on_c, 10, 62, 0
4, 37150, Note_on_c, 10, 66, 0
4, 37150, Note_on_c, 10, 69, 0
4, 37152, Note_on_c, 10, 62, 110
4, 37152, Note_on_c, 10, 66, 110
4, 37152, Note_on_c, 10, 69, 110
4, 37246, Note_on_c, 10, 62, 0
4, 37246, Note_on_c, 10, 66, 0
4, 37246, Note_on_c, 10, 69, 0
4, 37344, Note_on_c, 10, 62, 110
4, 37344, Note_on_c, 10, 66, 110
4, 37344, Note_on_c, 10, 69, 110
4, 37438, Note_on_c, 10, 62, 0
4, 37438, Note_on_c, 10, 66, 0
4, 37438, Note_on_c, 10, 69, 0
4, 37440, Note_on_c, 10, 62, 110
4, 37440, Note_on_c, 10, 66, 110
4, 37440, Note_on_c, 10, 69, 110
4, 37534, Note_on_c, 10, 62, 0
4, 37534, Note_on_c, 10, 66, 0
4, 37534, Note_on_c, 10, 69, 0
4, 37536, Note_on_c, 10, 62, 110
4, 37536, Note_on_c, 10, 66, 110
4, 37536, Note_on_c, 10, 69, 110
4, 37630, Note_on_c, 10, 62, 0
4, 37630, Note_on_c, 10, 66, 0
4, 37630, Note_on_c, 10, 69, 0
4, 37632, Note_on_c, 10, 62, 110
4, 37632, Note_on_c, 10, 66, 110
4, 37632, Note_on_c, 10, 69, 110
4, 37726, Note_on_c, 10, 62, 0
4, 37726, Note_on_c, 10, 66, 0
4, 37726, Note_on_c, 10, 69, 0
4, 37824, Note_on_c, 10, 57, 110
4, 37824, Note_on_c, 10, 61, 110
4, 37824, Note_on_c, 10, 64, 110
4, 37918, Note_on_c, 10, 57, 0
4, 37918, Note_on_c, 10, 61, 0
4, 37918, Note_on_c, 10, 64, 0
4, 37920, Note_on_c, 10, 57, 110
4, 37920, Note_on_c, 10, 61, 110
4, 37920, Note_on_c, 10, 64, 110
4, 38014, Note_on_c, 10, 57, 0
4, 38014, Note_on_c, 10, 61, 0
4, 38014, Note_on_c, 10, 64, 0
4, 38112, Note_on_c, 10, 57, 110
4, 38112, Note_on_c, 10, 61, 110
4, 38112, Note_on_c, 10, 64, 110
4, 38206, Note_on_c, 10, 57, 0
4, 38206, Note_on_c, 10, 61, 0
4, 38206, Note_on_c, 10, 64, 0
4, 38208, Note_on_c, 10, 57, 110
4, 38208, Note_on_c, 10, 61, 110
4, 38208, Note_on_c, 10, 64, 110
4, 38302, Note_on_c, 10, 57, 0
4, 38302, Note_on_c, 10, 61, 0
4, 38302, Note_on_c, 10, 64, 0
4, 38304, Note_on_c, 10, 57, 110
4, 38304, Note_on_c, 10, 61, 110
4, 38304, Note_on_c, 10, 64, 110
4, 38398, Note_on_c, 10, 57, 0
4, 38398, Note_on_c, 10, 61, 0
4, 38398, Note_on_c, 10, 64, 0
4, 38496, Note_on_c, 10, 57, 110
4, 38496, Note_on_c, 10, 61, 110
4, 38496, Note_on_c, 10, 64, 110
4, 38590, Note_on_c, 10, 57, 0
4, 38590, Note_on_c, 10, 61, 0
4, 38590, Note_on_c, 10, 64, 0
4, 38592, Note_on_c, 10, 57, 110
4, 38592, Note_on_c, 10, 61, 110
4, 38592, Note_on_c, 10, 64, 110
4, 38686, Note_on_c, 10, 57, 0
4, 38686, Note_on_c, 10, 61, 0
4, 38686, Note_on_c, 10, 64, 0
4, 38688, Note_on_c, 10, 57, 110
4, 38688, Note_on_c, 10, 61, 110
4, 38688, Note_on_c, 10, 64, 110
4, 38782, Note_on_c, 10, 57, 0
4, 38782, Note_on_c, 10, 61, 0
4, 38782, Note_on_c, 10, 64, 0
4, 38880, Note_on_c, 10, 57, 110
4, 38880, Note_on_c, 10, 61, 110
4, 38880, Note_on_c, 10, 64, 110
4, 38974, Note_on_c, 10, 57, 0
4, 38974, Note_on_c, 10, 61, 0
4, 38974, Note_on_c, 10, 64, 0
4, 38976, Note_on_c, 10, 57, 110
4, 38976, Note_on_c, 10, 61, 110
4, 38976, Note_on_c, 10, 64, 110
4, 39070, Note_on_c, 10, 57, 0
4, 39070, Note_on_c, 10, 61, 0
4, 39070, Note_on_c, 10, 64, 0
4, 39360, Note_on_c, 10, 59, 110
4, 39360, Note_on_c, 10, 63, 110
4, 39360, Note_on_c, 10, 66, 110
4, 39454, Note_on_c, 10, 59, 0
4, 39454, Note_on_c, 10, 63, 0
4, 39454, Note_on_c, 10, 66, 0
4, 39456, Note_on_c, 10, 59, 110
4, 39456, Note_on_c, 10, 63, 110
4, 39456, Note_on_c, 10, 66, 110
4, 39550, Note_on_c, 10, 59, 0
4, 39550, Note_on_c, 10, 63, 0
4, 39550, Note_on_c, 10, 66, 0
4, 39648, Note_on_c, 10, 59, 110
4, 39648, Note_on_c, 10, 63, 110
4, 39648, Note_on_c, 10, 66, 110
4, 39742, Note_on_c, 10, 59, 0
4, 39742, Note_on_c, 10, 63, 0
4, 39742, Note_on_c, 10, 66, 0
4, 39744, Note_on_c, 10, 59, 110
4, 39744, Note_on_c, 10, 63, 110
4, 39744, Note_on_c, 10, 66, 110
4, 39838, Note_on_c, 10, 59, 0
4, 39838, Note_on_c, 10, 63, 0
4, 39838, Note_on_c, 10, 66, 0
4, 39840, Note_on_c, 10, 59, 110
4, 39840, Note_on_c, 10, 63, 110
4, 39840, Note_on_c, 10, 66, 110
4, 39934, Note_on_c, 10, 59, 0
4, 39934, Note_on_c, 10, 63, 0
4, 39934, Note_on_c, 10, 66, 0
4, 40032, Note_on_c, 10, 59, 110
4, 40032, Note_on_c, 10, 63, 110
4, 40032, Note_on_c, 10, 66, 110
4, 40126, Note_on_c, 10, 59, 0
4, 40126, Note_on_c, 10, 63, 0
4, 40126, Note_on_c, 10, 66, 0
4, 40128, Note_on_c, 10, 59, 110
4, 40128, Note_on_c, 10, 63, 110
4, 40128, Note_on_c, 10, 66, 110
4, 40222, Note_on_c, 10, 59, 0
4, 40222, Note_on_c, 10, 63, 0
4, 40222, Note_on_c, 10, 66, 0
4, 40224, Note_on_c, 10, 59, 110
4, 40224, Note_on_c, 10, 63, 110
4, 40224, Note_on_c, 10, 66, 110
4, 40318, Note_on_c, 10, 59, 0
4, 40318, Note_on_c, 10, 63, 0
4, 40318, Note_on_c, 10, 66, 0
4, 40416, Note_on_c, 10, 59, 110
4, 40416, Note_on_c, 10, 63, 110
4, 40416, Note_on_c, 10, 66, 110
4, 40510, Note_on_c, 10, 59, 0
4, 40510, Note_on_c, 10, 63, 0
4, 40510, Note_on_c, 10, 66, 0
4, 40512, Note_on_c, 10, 59, 110
4, 40512, Note_on_c, 10, 63, 110
4, 40512, Note_on_c, 10, 66, 110
4, 40606, Note_on_c, 10, 59, 0
4, 40606, Note_on_c, 10, 63, 0
4, 40606, Note_on_c, 10, 66, 0
4, 40608, Note_on_c, 10, 59, 110
4, 40608, Note_on_c, 10, 63, 110
4, 40608, Note_on_c, 10, 66, 110
4, 40702, Note_on_c, 10, 59, 0
4, 40702, Note_on_c, 10, 63, 0
4, 40702, Note_on_c, 10, 66, 0
4, 40896, Note_on_c, 10, 57, 110
4, 40896, Note_on_c, 10, 60, 110
4, 40896, Note_on_c, 10, 64, 110
4, 40990, Note_on_c, 10, 57, 0
4, 40990, Note_on_c, 10, 60, 0
4, 40990, Note_on_c, 10, 64, 0
4, 40992, Note_on_c, 10, 57, 110
4, 40992, Note_on_c, 10, 60, 110
4, 40992, Note_on_c, 10, 64, 110
4, 41086, Note_on_c, 10, 57, 0
4, 41086, Note_on_c, 10, 60, 0
4, 41086, Note_on_c, 10, 64, 0
4, 41184, Note_on_c, 10, 57, 110
4, 41184, Note_on_c, 10, 60, 110
4, 41184, Note_on_c, 10, 64, 110
4, 41278, Note_on_c, 10, 57, 0
4, 41278, Note_on_c, 10, 60, 0
4, 41278, Note_on_c, 10, 64, 0
4, 41280, Note_on_c, 10, 57, 110
4, 41280, Note_on_c, 10, 60, 110
4, 41280, Note_on_c, 10, 64, 110
4, 41374, Note_on_c, 10, 57, 0
4, 41374, Note_on_c, 10, 60, 0
4, 41374, Note_on_c, 10, 64, 0
4, 41376, Note_on_c, 10, 57, 110
4, 41376, Note_on_c, 10, 60, 110
4, 41376, Note_on_c, 10, 64, 110
4, 41470, Note_on_c, 10, 57, 0
4, 41470, Note_on_c, 10, 60, 0
4, 41470, Note_on_c, 10, 64, 0
4, 41664, Note_on_c, 10, 59, 110
4, 41664, Note_on_c, 10, 64, 110
4, 41664, Note_on_c, 10, 68, 110
4, 41758, Note_on_c, 10, 59, 0
4, 41758, Note_on_c, 10, 64, 0
4, 41758, Note_on_c, 10, 68, 0
4, 41760, Note_on_c, 10, 59, 110
4, 41760, Note_on_c, 10, 64, 110
4, 41760, Note_on_c, 10, 68, 110
4, 41854, Note_on_c, 10, 59, 0
4, 41854, Note_on_c, 10, 64, 0
4, 41854, Note_on_c, 10, 68, 0
4, 41952, Note_on_c, 10, 59, 110
4, 41952, Note_on_c, 10, 64, 110
4, 41952, Note_on_c, 10, 68, 110
4, 42046, Note_on_c, 10, 59, 0
4, 42046, Note_on_c, 10, 64, 0
4, 42046, Note_on_c, 10, 68, 0
4, 42048, Note_on_c, 10, 59, 110
4, 42048, Note_on_c, 10, 64, 110
4, 42048, Note_on_c, 10, 68, 110
4, 42142, Note_on_c, 10, 59, 0
4, 42142, Note_on_c, 10, 64, 0
4, 42142, Note_on_c, 10, 68, 0
4, 42144, Note_on_c, 10, 59, 110
4, 42144, Note_on_c, 10, 64, 110
4, 42144, Note_on_c, 10, 68, 110
4, 42238, Note_on_c, 10, 59, 0
4, 42238, Note_on_c, 10, 64, 0
4, 42238, Note_on_c, 10, 68, 0
4, 42432, Note_on_c, 10, 55, 110
4, 42432, Note_on_c, 10, 59, 110
4, 42432, Note_on_c, 10, 62, 110
4, 42526, Note_on_c, 10, 55, 0
4, 42526, Note_on_c, 10, 59, 0
4, 42526, Note_on_c, 10, 62, 0
4, 42528, Note_on_c, 10, 55, 110
4, 42528, Note_on_c, 10, 59, 110
4, 42528, Note_on_c, 10, 62, 110
4, 42622, Note_on_c, 10, 55, 0
4, 42622, Note_on_c, 10, 59, 0
4, 42622, Note_on_c, 10, 62, 0
4, 42720, Note_on_c, 10, 55, 110
4, 42720, Note_on_c, 10, 59, 110
4, 42720, Note_on_c, 10, 62, 110
4, 42814, Note_on_c, 10, 55, 0
4, 42814, Note_on_c, 10, 59, 0
4, 42814, Note_on_c, 10, 62, 0
4, 42816, Note_on_c, 10, 55, 110
4, 42816, Note_on_c, 10, 59, 110
4, 42816, Note_on_c, 10, 62, 110
4, 42910, Note_on_c, 10, 55, 0
4, 42910, Note_on_c, 10, 59, 0
4, 42910, Note_on_c, 10, 62, 0
4, 42912, Note_on_c, 10, 55, 110
4, 42912, Note_on_c, 10, 59, 110
4, 42912, Note_on_c, 10, 62, 110
4, 43006, Note_on_c, 10, 55, 0
4, 43006, Note_on_c, 10, 59, 0
4, 43006, Note_on_c, 10, 62, 0
4, 43200, Note_on_c, 10, 53, 110
4, 43200, Note_on_c, 10, 57, 110
4, 43200, Note_on_c, 10, 59, 110
4, 43200, Note_on_c, 10, 60, 110
4, 43294, Note_on_c, 10, 53, 0
4, 43294, Note_on_c, 10, 57, 0
4, 43294, Note_on_c, 10, 59, 0
4, 43294, Note_on_c, 10, 60, 0
4, 43296, Note_on_c, 10, 53, 110
4, 43296, Note_on_c, 10, 57, 110
4, 43296, Note_on_c, 10, 59, 110
4, 43296, Note_on_c, 10, 60, 110
4, 43390, Note_on_c, 10, 53, 0
4, 43390, Note_on_c, 10, 57, 0
4, 43390, Note_on_c, 10, 59, 0
4, 43390, Note_on_c, 10, 60, 0
4, 43488, Note_on_c, 10, 53, 110
4, 43488, Note_on_c, 10, 57, 110
4, 43488, Note_on_c, 10, 59, 110
4, 43488, Note_on_c, 10, 60, 110
4, 43582, Note_on_c, 10, 53, 0
4, 43582, Note_on_c, 10, 57, 0
4, 43582, Note_on_c, 10, 59, 0
4, 43582, Note_on_c, 10, 60, 0
4, 43584, Note_on_c, 10, 53, 110
4, 43584, Note_on_c, 10, 57, 110
4, 43584, Note_on_c, 10, 59, 110
4, 43584, Note_on_c, 10, 60, 110
4, 43678, Note_on_c, 10, 53, 0
4, 43678, Note_on_c, 10, 57, 0
4, 43678, Note_on_c, 10, 59, 0
4, 43678, Note_on_c, 10, 60, 0
4, 43680, Note_on_c, 10, 53, 110
4, 43680, Note_on_c, 10, 57, 110
4, 43680, Note_on_c, 10, 59, 110
4, 43680, Note_on_c, 10, 60, 110
4, 43774, Note_on_c, 10, 53, 0
4, 43774, Note_on_c, 10, 57, 0
4, 43774, Note_on_c, 10, 59, 0
4, 43774, Note_on_c, 10, 60, 0
4, 43968, Note_on_c, 10, 58, 110
4, 43968, Note_on_c, 10, 62, 110
4, 43968, Note_on_c, 10, 65, 110
4, 44062, Note_on_c, 10, 58, 0
4, 44062, Note_on_c, 10, 62, 0
4, 44062, Note_on_c, 10, 65, 0
4, 44064, Note_on_c, 10, 58, 110
4, 44064, Note_on_c, 10, 62, 110
4, 44064, Note_on_c, 10, 65, 110
4, 44158, Note_on_c, 10, 58, 0
4, 44158, Note_on_c, 10, 62, 0
4, 44158, Note_on_c, 10, 65, 0
4, 44256, Note_on_c, 10, 58, 110
4, 44256, Note_on_c, 10, 62, 110
4, 44256, Note_on_c, 10, 65, 110
4, 44350, Note_on_c, 10, 58, 0
4, 44350, Note_on_c, 10, 62, 0
4, 44350, Note_on_c, 10, 65, 0
4, 44352, Note_on_c, 10, 58, 110
4, 44352, Note_on_c, 10, 62, 110
4, 44352, Note_on_c, 10, 65, 110
4, 44446, Note_on_c, 10, 58, 0
4, 44446, Note_on_c, 10, 62, 0
4, 44446, Note_on_c, 10, 65, 0
4, 44448, Note_on_c, 10, 58, 110
4, 44448, Note_on_c, 10, 62, 110
4, 44448, Note_on_c, 10, 65, 110
4, 44542, Note_on_c, 10, 58, 0
4, 44542, Note_on_c, 10, 62, 0
4, 44542, Note_on_c, 10, 65, 0
4, 44736, Note_on_c, 10, 61, 110
4, 44736, Note_on_c, 10, 65, 110
4, 44736, Note_on_c, 10, 68, 110
4, 44830, Note_on_c, 10, 61, 0
4, 44830, Note_on_c, 10, 65, 0
4, 44830, Note_on_c, 10, 68, 0
4, 44832, Note_on_c, 10, 61, 110
4, 44832, Note_on_c, 10, 65, 110
4, 44832, Note_on_c, 10, 68, 110
4, 44926, Note_on_c, 10, 61, 0
4, 44926, Note_on_c, 10, 65, 0
4, 44926, Note_on_c, 10, 68, 0
4, 45024, Note_on_c, 10, 61, 110
4, 45024, Note_on_c, 10, 65, 110
4, 45024, Note_on_c, 10, 68, 110
4, 45118, Note_on_c, 10, 61, 0
4, 45118, Note_on_c, 10, 65, 0
4, 45118, Note_on_c, 10, 68, 0
4, 45120, Note_on_c, 10, 61, 110
4, 45120, Note_on_c, 10, 65, 110
4, 45120, Note_on_c, 10, 68, 110
4, 45214, Note_on_c, 10, 61, 0
4, 45214, Note_on_c, 10, 65, 0
4, 45214, Note_on_c, 10, 68, 0
4, 45216, Note_on_c, 10, 61, 110
4, 45216, Note_on_c, 10, 65, 110
4, 45216, Note_on_c, 10, 68, 110
4, 45310, Note_on_c, 10, 61, 0
4, 45310, Note_on_c, 10, 65, 0
4, 45310, Note_on_c, 10, 68, 0
4, 45504, Note_on_c, 10, 59, 110
4, 45504, Note_on_c, 10, 63, 110
4, 45504, Note_on_c, 10, 66, 110
4, 45598, Note_on_c, 10, 59, 0
4, 45598, Note_on_c, 10, 63, 0
4, 45598, Note_on_c, 10, 66, 0
4, 45600, Note_on_c, 10, 59, 110
4, 45600, Note_on_c, 10, 63, 110
4, 45600, Note_on_c, 10, 66, 110
4, 45694, Note_on_c, 10, 59, 0
4, 45694, Note_on_c, 10, 63, 0
4, 45694, Note_on_c, 10, 66, 0
4, 45792, Note_on_c, 10, 59, 110
4, 45792, Note_on_c, 10, 63, 110
4, 45792, Note_on_c, 10, 66, 110
4, 45886, Note_on_c, 10, 59, 0
4, 45886, Note_on_c, 10, 63, 0
4, 45886, Note_on_c, 10, 66, 0
4, 45888, Note_on_c, 10, 59, 110
4, 45888, Note_on_c, 10, 63, 110
4, 45888, Note_on_c, 10, 66, 110
4, 45982, Note_on_c, 10, 59, 0
4, 45982, Note_on_c, 10, 63, 0
4, 45982, Note_on_c, 10, 66, 0
4, 45984, Note_on_c, 10, 59, 110
4, 45984, Note_on_c, 10, 63, 110
4, 45984, Note_on_c, 10, 66, 110
4, 46078, Note_on_c, 10, 59, 0
4, 46078, Note_on_c, 10, 63, 0
4, 46078, Note_on_c, 10, 66, 0
4, 46176, Note_on_c, 10, 59, 110
4, 46176, Note_on_c, 10, 63, 110
4, 46176, Note_on_c, 10, 66, 110
4, 46270, Note_on_c, 10, 59, 0
4, 46270, Note_on_c, 10, 63, 0
4, 46270, Note_on_c, 10, 66, 0
4, 46272, Note_on_c, 10, 59, 110
4, 46272, Note_on_c, 10, 63, 110
4, 46272, Note_on_c, 10, 66, 110
4, 46366, Note_on_c, 10, 59, 0
4, 46366, Note_on_c, 10, 63, 0
4, 46366, Note_on_c, 10, 66, 0
4, 46368, Note_on_c, 10, 59, 110
4, 46368, Note_on_c, 10, 63, 110
4, 46368, Note_on_c, 10, 66, 110
4, 46462, Note_on_c, 10, 59, 0
4, 46462, Note_on_c, 10, 63, 0
4, 46462, Note_on_c, 10, 66, 0
4, 46560, Note_on_c, 10, 59, 110
4, 46560, Note_on_c, 10, 63, 110
4, 46560, Note_on_c, 10, 66, 110
4, 46654, Note_on_c, 10, 59, 0
4, 46654, Note_on_c, 10, 63, 0
4, 46654, Note_on_c, 10, 66, 0
4, 46656, Note_on_c, 10, 59, 110
4, 46656, Note_on_c, 10, 63, 110
4, 46656, Note_on_c, 10, 66, 110
4, 46750, Note_on_c, 10, 59, 0
4, 46750, Note_on_c, 10, 63, 0
4, 46750, Note_on_c, 10, 66, 0
4, 46752, Note_on_c, 10, 59, 110
4, 46752, Note_on_c, 10, 63, 110
4, 46752, Note_on_c, 10, 66, 110
4, 46846, Note_on_c, 10, 59, 0
4, 46846, Note_on_c, 10, 63, 0
4, 46846, Note_on_c, 10, 66, 0
4, 47040, Note_on_c, 10, 57, 110
4, 47040, Note_on_c, 10, 60, 110
4, 47040, Note_on_c, 10, 64, 110
4, 47134, Note_on_c, 10, 57, 0
4, 47134, Note_on_c, 10, 60, 0
4, 47134, Note_on_c, 10, 64, 0
4, 47136, Note_on_c, 10, 57, 110
4, 47136, Note_on_c, 10, 60, 110
4, 47136, Note_on_c, 10, 64, 110
4, 47230, Note_on_c, 10, 57, 0
4, 47230, Note_on_c, 10, 60, 0
4, 47230, Note_on_c, 10, 64, 0
4, 47328, Note_on_c, 10, 57, 110
4, 47328, Note_on_c, 10, 60, 110
4, 47328, Note_on_c, 10, 64, 110
4, 47422, Note_on_c, 10, 57, 0
4, 47422, Note_on_c, 10, 60, 0
4, 47422, Note_on_c, 10, 64, 0
4, 47424, Note_on_c, 10, 57, 110
4, 47424, Note_on_c, 10, 60, 110
4, 47424, Note_on_c, 10, 64, 110
4, 47518, Note_on_c, 10, 57, 0
4, 47518, Note_on_c, 10, 60, 0
4, 47518, Note_on_c, 10, 64, 0
4, 47520, Note_on_c, 10, 57, 110
4, 47520, Note_on_c, 10, 60, 110
4, 47520, Note_on_c, 10, 64, 110
4, 47614, Note_on_c, 10, 57, 0
4, 47614, Note_on_c, 10, 60, 0
4, 47614, Note_on_c, 10, 64, 0
4, 47808, Note_on_c, 10, 59, 110
4, 47808, Note_on_c, 10, 64, 110
4, 47808, Note_on_c, 10, 68, 110
4, 47902, Note_on_c, 10, 59, 0
4, 47902, Note_on_c, 10, 64, 0
4, 47902, Note_on_c, 10, 68, 0
4, 47904, Note_on_c, 10, 59, 110
4, 47904, Note_on_c, 10, 64, 110
4, 47904, Note_on_c, 10, 68, 110
4, 47998, Note_on_c, 10, 59, 0
4, 47998, Note_on_c, 10, 64, 0
4, 47998, Note_on_c, 10, 68, 0
4, 48096, Note_on_c, 10, 59, 110
4, 48096, Note_on_c, 10, 64, 110
4, 48096, Note_on_c, 10, 68, 110
4, 48190, Note_on_c, 10, 59, 0
4, 48190, Note_on_c, 10, 64, 0
4, 48190, Note_on_c, 10, 68, 0
4, 48192, Note_on_c, 10, 59, 110
4, 48192, Note_on_c, 10, 64, 110
4, 48192, Note_on_c, 10, 68, 110
4, 48286, Note_on_c, 10, 59, 0
4, 48286, Note_on_c, 10, 64, 0
4, 48286, Note_on_c, 10, 68, 0
4, 48288, Note_on_c, 10, 59, 110
4, 48288, Note_on_c, 10, 64, 110
4, 48288, Note_on_c, 10, 68, 110
4, 48382, Note_on_c, 10, 59, 0
4, 48382, Note_on_c, 10, 64, 0
4, 48382, Note_on_c, 10, 68, 0
4, 48576, Note_on_c, 10, 55, 110
4, 48576, Note_on_c, 10, 59, 110
4, 48576, Note_on_c, 10, 62, 110
4, 48670, Note_on_c, 10, 55, 0
4, 48670, Note_on_c, 10, 59, 0
4, 48670, Note_on_c, 10, 62, 0
4, 48672, Note_on_c, 10, 55, 110
4, 48672, Note_on_c, 10, 59, 110
4, 48672, Note_on_c, 10, 62, 110
4, 48766, Note_on_c, 10, 55, 0
4, 48766, Note_on_c, 10, 59, 0
4, 48766, Note_on_c, 10, 62, 0
4, 48864, Note_on_c, 10, 55, 110
4, 48864, Note_on_c, 10, 59, 110
4, 48864, Note_on_c, 10, 62, 110
4, 48958, Note_on_c, 10, 55, 0
4, 48958, Note_on_c, 10, 59, 0
4, 48958, Note_on_c, 10, 62, 0
4, 48960, Note_on_c, 10, 55, 110
4, 48960, Note_on_c, 10, 59, 110
4, 48960, Note_on_c, 10, 62, 110
4, 49054, Note_on_c, 10, 55, 0
4, 49054, Note_on_c, 10, 59, 0
4, 49054, Note_on_c, 10, 62, 0
4, 49056, Note_on_c, 10, 55, 110
4, 49056, Note_on_c, 10, 59, 110
4, 49056, Note_on_c, 10, 62, 110
4, 49150, Note_on_c, 10, 55, 0
4, 49150, Note_on_c, 10, 59, 0
4, 49150, Note_on_c, 10, 62, 0
4, 49344, Note_on_c, 10, 53, 110
4, 49344, Note_on_c, 10, 57, 110
4, 49344, Note_on_c, 10, 59, 110
4, 49344, Note_on_c, 10, 60, 110
4, 49438, Note_on_c, 10, 53, 0
4, 49438, Note_on_c, 10, 57, 0
4, 49438, Note_on_c, 10, 59, 0
4, 49438, Note_on_c, 10, 60, 0
4, 49440, Note_on_c, 10, 53, 110
4, 49440, Note_on_c, 10, 57, 110
4, 49440, Note_on_c, 10, 59, 110
4, 49440, Note_on_c, 10, 60, 110
4, 49534, Note_on_c, 10, 53, 0
4, 49534, Note_on_c, 10, 57, 0
4, 49534, Note_on_c, 10, 59, 0
4, 49534, Note_on_c, 10, 60, 0
4, 49632, Note_on_c, 10, 53, 110
4, 49632, Note_on_c, 10, 57, 110
4, 49632, Note_on_c, 10, 59, 110
4, 49632, Note_on_c, 10, 60, 110
4, 49726, Note_on_c, 10, 53, 0
4, 49726, Note_on_c, 10, 57, 0
4, 49726, Note_on_c, 10, 59, 0
4, 49726, Note_on_c, 10, 60, 0
4, 49728, Note_on_c, 10, 53, 110
4, 49728, Note_on_c, 10, 57, 110
4, 49728, Note_on_c, 10, 59, 110
4, 49728, Note_on_c, 10, 60, 110
4, 49822, Note_on_c, 10, 53, 0
4, 49822, Note_on_c, 10, 57, 0
4, 49822, Note_on_c, 10, 59, 0
4, 49822, Note_on_c, 10, 60, 0
4, 49824, Note_on_c, 10, 53, 110
4, 49824, Note_on_c, 10, 57, 110
4, 49824, Note_on_c, 10, 59, 110
4, 49824, Note_on_c, 10, 60, 110
4, 49918, Note_on_c, 10, 53, 0
4, 49918, Note_on_c, 10, 57, 0
4, 49918, Note_on_c, 10, 59, 0
4, 49918, Note_on_c, 10, 60, 0
4, 50112, Note_on_c, 10, 58, 110
4, 50112, Note_on_c, 10, 62, 110
4, 50112, Note_on_c, 10, 65, 110
4, 50206, Note_on_c, 10, 58, 0
4, 50206, Note_on_c, 10, 62, 0
4, 50206, Note_on_c, 10, 65, 0
4, 50208, Note_on_c, 10, 58, 110
4, 50208, Note_on_c, 10, 62, 110
4, 50208, Note_on_c, 10, 65, 110
4, 50302, Note_on_c, 10, 58, 0
4, 50302, Note_on_c, 10, 62, 0
4, 50302, Note_on_c, 10, 65, 0
4, 50400, Note_on_c, 10, 58, 110
4, 50400, Note_on_c, 10, 62, 110
4, 50400, Note_on_c, 10, 65, 110
4, 50494, Note_on_c, 10, 58, 0
4, 50494, Note_on_c, 10, 62, 0
4, 50494, Note_on_c, 10, 65, 0
4, 50496, Note_on_c, 10, 58, 110
4, 50496, Note_on_c, 10, 62, 110
4, 50496, Note_on_c, 10, 65, 110
4, 50590, Note_on_c, 10, 58, 0
4, 50590, Note_on_c, 10, 62, 0
4, 50590, Note_on_c, 10, 65, 0
4, 50592, Note_on_c, 10, 58, 110
4, 50592, Note_on_c, 10, 62, 110
4, 50592, Note_on_c, 10, 65, 110
4, 50686, Note_on_c, 10, 58, 0
4, 50686, Note_on_c, 10, 62, 0
4, 50686, Note_on_c, 10, 65, 0
4, 50880, Note_on_c, 10, 61, 110
4, 50880, Note_on_c, 10, 64, 110
4, 50880, Note_on_c, 10, 69, 110
4, 50974, Note_on_c, 10, 61, 0
4, 50974, Note_on_c, 10, 64, 0
4, 50974, Note_on_c, 10, 69, 0
4, 50976, Note_on_c, 10, 61, 110
4, 50976, Note_on_c, 10, 64, 110
4, 50976, Note_on_c, 10, 69, 110
4, 51070, Note_on_c, 10, 61, 0
4, 51070, Note_on_c, 10, 64, 0
4, 51070, Note_on_c, 10, 69, 0
4, 51168, Note_on_c, 10, 61, 110
4, 51168, Note_on_c, 10, 64, 110
4, 51168, Note_on_c, 10, 69, 110
4, 51262, Note_on_c, 10, 61, 0
4, 51262, Note_on_c, 10, 64, 0
4, 51262, Note_on_c, 10, 69, 0
4, 51264, Note_on_c, 10, 61, 110
4, 51264, Note_on_c, 10, 64, 110
4, 51264, Note_on_c, 10, 69, 110
4, 51358, Note_on_c, 10, 61, 0
4, 51358, Note_on_c, 10, 64, 0
4, 51358, Note_on_c, 10, 69, 0
4, 51360, Note_on_c, 10, 61, 110
4, 51360, Note_on_c, 10, 64, 110
4, 51360, Note_on_c, 10, 69, 110
4, 51454, Note_on_c, 10, 61, 0
4, 51454, Note_on_c, 10, 64, 0
4, 51454, Note_on_c, 10, 69, 0
4, 51648, Note_on_c, 10, 61, 110
4, 51648, Note_on_c, 10, 64, 110
4, 51648, Note_on_c, 10, 66, 110
4, 51648, Note_on_c, 10, 69, 110
4, 51648, Note_on_c, 10, 71, 110
4, 51742, Note_on_c, 10, 61, 0
4, 51742, Note_on_c, 10, 64, 0
4, 51742, Note_on_c, 10, 66, 0
4, 51742, Note_on_c, 10, 69, 0
4, 51742, Note_on_c, 10, 71, 0
4, 51744, Note_on_c, 10, 61, 110
4, 51744, Note_on_c, 10, 64, 110
4, 51744, Note_on_c, 10, 68, 110
4, 51744, Note_on_c, 10, 69, 110
4, 51744, Note_on_c, 10, 73, 110
4, 51838, Note_on_c, 10, 61, 0
4, 51838, Note_on_c, 10, 64, 0
4, 51838, Note_on_c, 10, 68, 0
4, 51838, Note_on_c, 10, 69, 0
4, 51838, Note_on_c, 10, 73, 0
4, 51936, Note_on_c, 10, 61, 110
4, 51936, Note_on_c, 10, 64, 110
4, 51936, Note_on_c, 10, 69, 110
4, 52096, Note_on_c, 10, 61, 0
4, 52096, Note_on_c, 10, 64, 0
4, 52096, Note_on_c, 10, 69, 0
4, 52128, Note_on_c, 10, 61, 110
4, 52128, Note_on_c, 10, 64, 110
4, 52128, Note_on_c, 10, 69, 110
4, 52222, Note_on_c, 10, 61, 0
4, 52222, Note_on_c, 10, 64, 0
4, 52222, Note_on_c, 10, 69, 0
4, 52224, Note_on_c, 10, 61, 110
4, 52224, Note_on_c, 10, 64, 110
4, 52224, Note_on_c, 10, 69, 110
4, 52318, Note_on_c, 10, 61, 0
4, 52318, Note_on_c, 10, 64, 0
4, 52318, Note_on_c, 10, 69, 0
4, 52416, Note_on_c, 10, 61, 110
4, 52416, Note_on_c, 10, 64, 110
4, 52416, Note_on_c, 10, 68, 110
4, 52510, Note_on_c, 10, 61, 0
4, 52510, Note_on_c, 10, 64, 0
4, 52510, Note_on_c, 10, 68, 0
4, 52512, Note_on_c, 10, 61, 110
4, 52512, Note_on_c, 10, 64, 110
4, 52512, Note_on_c, 10, 68, 110
4, 52606, Note_on_c, 10, 61, 0
4, 52606, Note_on_c, 10, 64, 0
4, 52606, Note_on_c, 10, 68, 0
4, 52704, Note_on_c, 10, 61, 110
4, 52704, Note_on_c, 10, 64, 110
4, 52704, Note_on_c, 10, 68, 110
4, 52798, Note_on_c, 10, 61, 0
4, 52798, Note_on_c, 10, 64, 0
4, 52798, Note_on_c, 10, 68, 0
4, 52800, Note_on_c, 10, 61, 110
4, 52800, Note_on_c, 10, 64, 110
4, 52800, Note_on_c, 10, 68, 110
4, 52894, Note_on_c, 10, 61, 0
4, 52894, Note_on_c, 10, 64, 0
4, 52894, Note_on_c, 10, 68, 0
4, 52896, Note_on_c, 10, 61, 110
4, 52896, Note_on_c, 10, 64, 110
4, 52896, Note_on_c, 10, 68, 110
4, 52990, Note_on_c, 10, 61, 0
4, 52990, Note_on_c, 10, 64, 0
4, 52990, Note_on_c, 10, 68, 0
4, 53088, Note_on_c, 10, 61, 110
4, 53088, Note_on_c, 10, 64, 110
4, 53088, Note_on_c, 10, 68, 110
4, 53182, Note_on_c, 10, 61, 0
4, 53182, Note_on_c, 10, 64, 0
4, 53182, Note_on_c, 10, 68, 0
4, 53184, Note_on_c, 10, 61, 110
4, 53184, Note_on_c, 10, 64, 110
4, 53184, Note_on_c, 10, 68, 110
4, 53278, Note_on_c, 10, 61, 0
4, 53278, Note_on_c, 10, 64, 0
4, 53278, Note_on_c, 10, 68, 0
4, 53280, Note_on_c, 10, 61, 110
4, 53280, Note_on_c, 10, 64, 110
4, 53280, Note_on_c, 10, 68, 110
4, 53374, Note_on_c, 10, 61, 0
4, 53374, Note_on_c, 10, 64, 0
4, 53374, Note_on_c, 10, 68, 0
4, 53472, Note_on_c, 10, 61, 110
4, 53472, Note_on_c, 10, 64, 110
4, 53472, Note_on_c, 10, 68, 110
4, 53566, Note_on_c, 10, 61, 0
4, 53566, Note_on_c, 10, 64, 0
4, 53566, Note_on_c, 10, 68, 0
4, 53568, Note_on_c, 10, 61, 110
4, 53568, Note_on_c, 10, 64, 110
4, 53568, Note_on_c, 10, 68, 110
4, 53662, Note_on_c, 10, 61, 0
4, 53662, Note_on_c, 10, 64, 0
4, 53662, Note_on_c, 10, 68, 0
4, 53664, Note_on_c, 10, 61, 110
4, 53664, Note_on_c, 10, 64, 110
4, 53664, Note_on_c, 10, 68, 110
4, 53758, Note_on_c, 10, 61, 0
4, 53758, Note_on_c, 10, 64, 0
4, 53758, Note_on_c, 10, 68, 0
4, 53952, Note_on_c, 10, 59, 110
4, 53952, Note_on_c, 10, 63, 110
4, 53952, Note_on_c, 10, 66, 110
4, 54046, Note_on_c, 10, 59, 0
4, 54046, Note_on_c, 10, 63, 0
4, 54046, Note_on_c, 10, 66, 0
4, 54048, Note_on_c, 10, 59, 110
4, 54048, Note_on_c, 10, 63, 110
4, 54048, Note_on_c, 10, 66, 110
4, 54142, Note_on_c, 10, 59, 0
4, 54142, Note_on_c, 10, 63, 0
4, 54142, Note_on_c, 10, 66, 0
4, 54240, Note_on_c, 10, 59, 110
4, 54240, Note_on_c, 10, 63, 110
4, 54240, Note_on_c, 10, 66, 110
4, 54334, Note_on_c, 10, 59, 0
4, 54334, Note_on_c, 10, 63, 0
4, 54334, Note_on_c, 10, 66, 0
4, 54336, Note_on_c, 10, 59, 110
4, 54336, Note_on_c, 10, 63, 110
4, 54336, Note_on_c, 10, 66, 110
4, 54430, Note_on_c, 10, 59, 0
4, 54430, Note_on_c, 10, 63, 0
4, 54430, Note_on_c, 10, 66, 0
4, 54432, Note_on_c, 10, 59, 110
4, 54432, Note_on_c, 10, 63, 110
4, 54432, Note_on_c, 10, 66, 110
4, 54526, Note_on_c, 10, 59, 0
4, 54526, Note_on_c, 10, 63, 0
4, 54526, Note_on_c, 10, 66, 0
4, 54720, Note_on_c, 10, 57, 110
4, 54720, Note_on_c, 10, 61, 110
4, 54720, Note_on_c, 10, 64, 110
4, 54814, Note_on_c, 10, 57, 0
4, 54814, Note_on_c, 10, 61, 0
4, 54814, Note_on_c, 10, 64, 0
4, 54816, Note_on_c, 10, 57, 110
4, 54816, Note_on_c, 10, 61, 110
4, 54816, Note_on_c, 10, 64, 110
4, 54910, Note_on_c, 10, 57, 0
4, 54910, Note_on_c, 10, 61, 0
4, 54910, Note_on_c, 10, 64, 0
4, 55008, Note_on_c, 10, 57, 110
4, 55008, Note_on_c, 10, 61, 110
4, 55008, Note_on_c, 10, 64, 110
4, 55102, Note_on_c, 10, 57, 0
4, 55102, Note_on_c, 10, 61, 0
4, 55102, Note_on_c, 10, 64, 0
4, 55104, Note_on_c, 10, 57, 110
4, 55104, Note_on_c, 10, 61, 110
4, 55104, Note_on_c, 10, 64, 110
4, 55198, Note_on_c, 10, 57, 0
4, 55198, Note_on_c, 10, 61, 0
4, 55198, Note_on_c, 10, 64, 0
4, 55200, Note_on_c, 10, 57, 110
4, 55200, Note_on_c, 10, 61, 110
4, 55200, Note_on_c, 10, 64, 110
4, 55294, Note_on_c, 10, 57, 0
4, 55294, Note_on_c, 10, 61, 0
4, 55294, Note_on_c, 10, 64, 0
4, 55488, Note_on_c, 10, 61, 110
4, 55488, Note_on_c, 10, 64, 110
4, 55488, Note_on_c, 10, 68, 110
4, 55582, Note_on_c, 10, 61, 0
4, 55582, Note_on_c, 10, 64, 0
4, 55582, Note_on_c, 10, 68, 0
4, 55584, Note_on_c, 10, 61, 110
4, 55584, Note_on_c, 10, 64, 110
4, 55584, Note_on_c, 10, 68, 110
4, 55678, Note_on_c, 10, 61, 0
4, 55678, Note_on_c, 10, 64, 0
4, 55678, Note_on_c, 10, 68, 0
4, 55776, Note_on_c, 10, 61, 110
4, 55776, Note_on_c, 10, 64, 110
4, 55776, Note_on_c, 10, 68, 110
4, 55870, Note_on_c, 10, 61, 0
4, 55870, Note_on_c, 10, 64, 0
4, 55870, Note_on_c, 10, 68, 0
4, 55872, Note_on_c, 10, 61, 110
4, 55872, Note_on_c, 10, 64, 110
4, 55872, Note_on_c, 10, 68, 110
4, 55966, Note_on_c, 10, 61, 0
4, 55966, Note_on_c, 10, 64, 0
4, 55966, Note_on_c, 10, 68, 0
4, 55968, Note_on_c, 10, 61, 110
4, 55968, Note_on_c, 10, 64, 110
4, 55968, Note_on_c, 10, 68, 110
4, 56062, Note_on_c, 10, 61, 0
4, 56062, Note_on_c, 10, 64, 0
4, 56062, Note_on_c, 10, 68, 0
4, 56256, Note_on_c, 10, 59, 110
4, 56256, Note_on_c, 10, 64, 110
4, 56256, Note_on_c, 10, 68, 110
4, 56350, Note_on_c, 10, 59, 0
4, 56350, Note_on_c, 10, 64, 0
4, 56350, Note_on_c, 10, 68, 0
4, 56352, Note_on_c, 10, 59, 110
4, 56352, Note_on_c, 10, 64, 110
4, 56352, Note_on_c, 10, 68, 110
4, 56446, Note_on_c, 10, 59, 0
4, 56446, Note_on_c, 10, 64, 0
4, 56446, Note_on_c, 10, 68, 0
4, 56544, Note_on_c, 10, 59, 110
4, 56544, Note_on_c, 10, 64, 110
4, 56544, Note_on_c, 10, 68, 110
4, 56638, Note_on_c, 10, 59, 0
4, 56638, Note_on_c, 10, 64, 0
4, 56638, Note_on_c, 10, 68, 0
4, 56640, Note_on_c, 10, 59, 110
4, 56640, Note_on_c, 10, 64, 110
4, 56640, Note_on_c, 10, 68, 110
4, 56734, Note_on_c, 10, 59, 0
4, 56734, Note_on_c, 10, 64, 0
4, 56734, Note_on_c, 10, 68, 0
4, 56736, Note_on_c, 10, 59, 110
4, 56736, Note_on_c, 10, 64, 110
4, 56736, Note_on_c, 10, 68, 110
4, 56830, Note_on_c, 10, 59, 0
4, 56830, Note_on_c, 10, 64, 0
4, 56830, Note_on_c, 10, 68, 0
4, 57024, Note_on_c, 10, 57, 110
4, 57024, Note_on_c, 10, 61, 110
4, 57024, Note_on_c, 10, 64, 110
4, 57118, Note_on_c, 10, 57, 0
4, 57118, Note_on_c, 10, 61, 0
4, 57118, Note_on_c, 10, 64, 0
4, 57120, Note_on_c, 10, 57, 110
4, 57120, Note_on_c, 10, 61, 110
4, 57120, Note_on_c, 10, 64, 110
4, 57214, Note_on_c, 10, 57, 0
4, 57214, Note_on_c, 10, 61, 0
4, 57214, Note_on_c, 10, 64, 0
4, 57312, Note_on_c, 10, 57, 110
4, 57312, Note_on_c, 10, 61, 110
4, 57312, Note_on_c, 10, 64, 110
4, 57406, Note_on_c, 10, 57, 0
4, 57406, Note_on_c, 10, 61, 0
4, 57406, Note_on_c, 10, 64, 0
4, 57408, Note_on_c, 10, 57, 110
4, 57408, Note_on_c, 10, 61, 110
4, 57408, Note_on_c, 10, 64, 110
4, 57502, Note_on_c, 10, 57, 0
4, 57502, Note_on_c, 10, 61, 0
4, 57502, Note_on_c, 10, 64, 0
4, 57504, Note_on_c, 10, 57, 110
4, 57504, Note_on_c, 10, 61, 110
4, 57504, Note_on_c, 10, 64, 110
4, 57598, Note_on_c, 10, 57, 0
4, 57598, Note_on_c, 10, 61, 0
4, 57598, Note_on_c, 10, 64, 0
4, 57792, Note_on_c, 10, 59, 110
4, 57792, Note_on_c, 10, 63, 110
4, 57792, Note_on_c, 10, 66, 110
4, 57886, Note_on_c, 10, 59, 0
4, 57886, Note_on_c, 10, 63, 0
4, 57886, Note_on_c, 10, 66, 0
4, 57888, Note_on_c, 10, 59, 110
4, 57888, Note_on_c, 10, 63, 110
4, 57888, Note_on_c, 10, 66, 110
4, 57982, Note_on_c, 10, 59, 0
4, 57982, Note_on_c, 10, 63, 0
4, 57982, Note_on_c, 10, 66, 0
4, 58080, Note_on_c, 10, 59, 110
4, 58080, Note_on_c, 10, 63, 110
4, 58080, Note_on_c, 10, 66, 110
4, 58174, Note_on_c, 10, 59, 0
4, 58174, Note_on_c, 10, 63, 0
4, 58174, Note_on_c, 10, 66, 0
4, 58176, Note_on_c, 10, 59, 110
4, 58176, Note_on_c, 10, 63, 110
4, 58176, Note_on_c, 10, 66, 110
4, 58270, Note_on_c, 10, 59, 0
4, 58270, Note_on_c, 10, 63, 0
4, 58270, Note_on_c, 10, 66, 0
4, 58272, Note_on_c, 10, 59, 110
4, 58272, Note_on_c, 10, 63, 110
4, 58272, Note_on_c, 10, 66, 110
4, 58366, Note_on_c, 10, 59, 0
4, 58366, Note_on_c, 10, 63, 0
4, 58366, Note_on_c, 10, 66, 0
4, 58560, Note_on_c, 10, 61, 110
4, 58560, Note_on_c, 10, 64, 110
4, 58560, Note_on_c, 10, 68, 110
4, 58654, Note_on_c, 10, 61, 0
4, 58654, Note_on_c, 10, 64, 0
4, 58654, Note_on_c, 10, 68, 0
4, 58656, Note_on_c, 10, 61, 110
4, 58656, Note_on_c, 10, 64, 110
4, 58656, Note_on_c, 10, 68, 110
4, 58750, Note_on_c, 10, 61, 0
4, 58750, Note_on_c, 10, 64, 0
4, 58750, Note_on_c, 10, 68, 0
4, 58848, Note_on_c, 10, 61, 110
4, 58848, Note_on_c, 10, 64, 110
4, 58848, Note_on_c, 10, 68, 110
4, 58942, Note_on_c, 10, 61, 0
4, 58942, Note_on_c, 10, 64, 0
4, 58942, Note_on_c, 10, 68, 0
4, 58944, Note_on_c, 10, 61, 110
4, 58944, Note_on_c, 10, 64, 110
4, 58944, Note_on_c, 10, 68, 110
4, 59038, Note_on_c, 10, 61, 0
4, 59038, Note_on_c, 10, 64, 0
4, 59038, Note_on_c, 10, 68, 0
4, 59040, Note_on_c, 10, 61, 110
4, 59040, Note_on_c, 10, 64, 110
4, 59040, Note_on_c, 10, 68, 110
4, 59134, Note_on_c, 10, 61, 0
4, 59134, Note_on_c, 10, 64, 0
4, 59134, Note_on_c, 10, 68, 0
4, 59232, Note_on_c, 10, 61, 110
4, 59232, Note_on_c, 10, 64, 110
4, 59232, Note_on_c, 10, 68, 110
4, 59326, Note_on_c, 10, 61, 0
4, 59326, Note_on_c, 10, 64, 0
4, 59326, Note_on_c, 10, 68, 0
4, 59328, Note_on_c, 10, 61, 110
4, 59328, Note_on_c, 10, 64, 110
4, 59328, Note_on_c, 10, 68, 110
4, 59422, Note_on_c, 10, 61, 0
4, 59422, Note_on_c, 10, 64, 0
4, 59422, Note_on_c, 10, 68, 0
4, 59424, Note_on_c, 10, 61, 110
4, 59424, Note_on_c, 10, 64, 110
4, 59424, Note_on_c, 10, 68, 110
4, 59518, Note_on_c, 10, 61, 0
4, 59518, Note_on_c, 10, 64, 0
4, 59518, Note_on_c, 10, 68, 0
4, 59616, Note_on_c, 10, 61, 110
4, 59616, Note_on_c, 10, 64, 110
4, 59616, Note_on_c, 10, 68, 110
4, 59710, Note_on_c, 10, 61, 0
4, 59710, Note_on_c, 10, 64, 0
4, 59710, Note_on_c, 10, 68, 0
4, 59712, Note_on_c, 10, 61, 110
4, 59712, Note_on_c, 10, 64, 110
4, 59712, Note_on_c, 10, 68, 110
4, 59806, Note_on_c, 10, 61, 0
4, 59806, Note_on_c, 10, 64, 0
4, 59806, Note_on_c, 10, 68, 0
4, 59808, Note_on_c, 10, 61, 110
4, 59808, Note_on_c, 10, 64, 110
4, 59808, Note_on_c, 10, 68, 110
4, 59902, Note_on_c, 10, 61, 0
4, 59902, Note_on_c, 10, 64, 0
4, 59902, Note_on_c, 10, 68, 0
4, 60096, Note_on_c, 10, 59, 110
4, 60096, Note_on_c, 10, 63, 110
4, 60096, Note_on_c, 10, 66, 110
4, 60190, Note_on_c, 10, 59, 0
4, 60190, Note_on_c, 10, 63, 0
4, 60190, Note_on_c, 10, 66, 0
4, 60192, Note_on_c, 10, 59, 110
4, 60192, Note_on_c, 10, 63, 110
4, 60192, Note_on_c, 10, 66, 110
4, 60286, Note_on_c, 10, 59, 0
4, 60286, Note_on_c, 10, 63, 0
4, 60286, Note_on_c, 10, 66, 0
4, 60384, Note_on_c, 10, 59, 110
4, 60384, Note_on_c, 10, 63, 110
4, 60384, Note_on_c, 10, 66, 110
4, 60478, Note_on_c, 10, 59, 0
4, 60478, Note_on_c, 10, 63, 0
4, 60478, Note_on_c, 10, 66, 0
4, 60480, Note_on_c, 10, 59, 110
4, 60480, Note_on_c, 10, 63, 110
4, 60480, Note_on_c, 10, 66, 110
4, 60574, Note_on_c, 10, 59, 0
4, 60574, Note_on_c, 10, 63, 0
4, 60574, Note_on_c, 10, 66, 0
4, 60576, Note_on_c, 10, 59, 110
4, 60576, Note_on_c, 10, 63, 110
4, 60576, Note_on_c, 10, 66, 110
4, 60670, Note_on_c, 10, 59, 0
4, 60670, Note_on_c, 10, 63, 0
4, 60670, Note_on_c, 10, 66, 0
4, 60864, Note_on_c, 10, 57, 110
4, 60864, Note_on_c, 10, 61, 110
4, 60864, Note_on_c, 10, 64, 110
4, 60958, Note_on_c, 10, 57, 0
4, 60958, Note_on_c, 10, 61, 0
4, 60958, Note_on_c, 10, 64, 0
4, 60960, Note_on_c, 10, 57, 110
4, 60960, Note_on_c, 10, 61, 110
4, 60960, Note_on_c, 10, 64, 110
4, 61054, Note_on_c, 10, 57, 0
4, 61054, Note_on_c, 10, 61, 0
4, 61054, Note_on_c, 10, 64, 0
4, 61152, Note_on_c, 10, 57, 110
4, 61152, Note_on_c, 10, 61, 110
4, 61152, Note_on_c, 10, 64, 110
4, 61246, Note_on_c, 10, 57, 0
4, 61246, Note_on_c, 10, 61, 0
4, 61246, Note_on_c, 10, 64, 0
4, 61248, Note_on_c, 10, 57, 110
4, 61248, Note_on_c, 10, 61, 110
4, 61248, Note_on_c, 10, 64, 110
4, 61342, Note_on_c, 10, 57, 0
4, 61342, Note_on_c, 10, 61, 0
4, 61342, Note_on_c, 10, 64, 0
4, 61344, Note_on_c, 10, 57, 110
4, 61344, Note_on_c, 10, 61, 110
4, 61344, Note_on_c, 10, 64, 110
4, 61438, Note_on_c, 10, 57, 0
4, 61438, Note_on_c, 10, 61, 0
4, 61438, Note_on_c, 10, 64, 0
4, 61632, Note_on_c, 10, 61, 110
4, 61632, Note_on_c, 10, 64, 110
4, 61632, Note_on_c, 10, 68, 110
4, 61726, Note_on_c, 10, 61, 0
4, 61726, Note_on_c, 10, 64, 0
4, 61726, Note_on_c, 10, 68, 0
4, 61728, Note_on_c, 10, 61, 110
4, 61728, Note_on_c, 10, 64, 110
4, 61728, Note_on_c, 10, 68, 110
4, 61822, Note_on_c, 10, 61, 0
4, 61822, Note_on_c, 10, 64, 0
4, 61822, Note_on_c, 10, 68, 0
4, 61920, Note_on_c, 10, 61, 110
4, 61920, Note_on_c, 10, 64, 110
4, 61920, Note_on_c, 10, 68, 110
4, 62014, Note_on_c, 10, 61, 0
4, 62014, Note_on_c, 10, 64, 0
4, 62014, Note_on_c, 10, 68, 0
4, 62016, Note_on_c, 10, 61, 110
4, 62016, Note_on_c, 10, 64, 110
4, 62016, Note_on_c, 10, 68, 110
4, 62110, Note_on_c, 10, 61, 0
4, 62110, Note_on_c, 10, 64, 0
4, 62110, Note_on_c, 10, 68, 0
4, 62112, Note_on_c, 10, 61, 110
4, 62112, Note_on_c, 10, 64, 110
4, 62112, Note_on_c, 10, 68, 110
4, 62206, Note_on_c, 10, 61, 0
4, 62206, Note_on_c, 10, 64, 0
4, 62206, Note_on_c, 10, 68, 0
4, 62400, Note_on_c, 10, 59, 110
4, 62400, Note_on_c, 10, 64, 110
4, 62400, Note_on_c, 10, 68, 110
4, 62494, Note_on_c, 10, 59, 0
4, 62494, Note_on_c, 10, 64, 0
4, 62494, Note_on_c, 10, 68, 0
4, 62496, Note_on_c, 10, 59, 110
4, 62496, Note_on_c, 10, 64, 110
4, 62496, Note_on_c, 10, 68, 110
4, 62590, Note_on_c, 10, 59, 0
4, 62590, Note_on_c, 10, 64, 0
4, 62590, Note_on_c, 10, 68, 0
4, 62688, Note_on_c, 10, 59, 110
4, 62688, Note_on_c, 10, 64, 110
4, 62688, Note_on_c, 10, 68, 110
4, 62782, Note_on_c, 10, 59, 0
4, 62782, Note_on_c, 10, 64, 0
4, 62782, Note_on_c, 10, 68, 0
4, 62784, Note_on_c, 10, 59, 110
4, 62784, Note_on_c, 10, 64, 110
4, 62784, Note_on_c, 10, 68, 110
4, 62878, Note_on_c, 10, 59, 0
4, 62878, Note_on_c, 10, 64, 0
4, 62878, Note_on_c, 10, 68, 0
4, 62880, Note_on_c, 10, 59, 110
4, 62880, Note_on_c, 10, 64, 110
4, 62880, Note_on_c, 10, 68, 110
4, 62974, Note_on_c, 10, 59, 0
4, 62974, Note_on_c, 10, 64, 0
4, 62974, Note_on_c, 10, 68, 0
4, 63168, Note_on_c, 10, 57, 110
4, 63168, Note_on_c, 10, 61, 110
4, 63168, Note_on_c, 10, 64, 110
4, 63262, Note_on_c, 10, 57, 0
4, 63262, Note_on_c, 10, 61, 0
4, 63262, Note_on_c, 10, 64, 0
4, 63264, Note_on_c, 10, 57, 110
4, 63264, Note_on_c, 10, 61, 110
4, 63264, Note_on_c, 10, 64, 110
4, 63358, Note_on_c, 10, 57, 0
4, 63358, Note_on_c, 10, 61, 0
4, 63358, Note_on_c, 10, 64, 0
4, 63456, Note_on_c, 10, 57, 110
4, 63456, Note_on_c, 10, 61, 110
4, 63456, Note_on_c, 10, 64, 110
4, 63550, Note_on_c, 10, 57, 0
4, 63550, Note_on_c, 10, 61, 0
4, 63550, Note_on_c, 10, 64, 0
4, 63552, Note_on_c, 10, 57, 110
4, 63552, Note_on_c, 10, 61, 110
4, 63552, Note_on_c, 10, 64, 110
4, 63646, Note_on_c, 10, 57, 0
4, 63646, Note_on_c, 10, 61, 0
4, 63646, Note_on_c, 10, 64, 0
4, 63648, Note_on_c, 10, 57, 110
4, 63648, Note_on_c, 10, 61, 110
4, 63648, Note_on_c, 10, 64, 110
4, 63742, Note_on_c, 10, 57, 0
4, 63742, Note_on_c, 10, 61, 0
4, 63742, Note_on_c, 10, 64, 0
4, 63936, Note_on_c, 10, 62, 110
4, 63936, Note_on_c, 10, 66, 110
4, 63936, Note_on_c, 10, 69, 110
4, 64030, Note_on_c, 10, 62, 0
4, 64030, Note_on_c, 10, 66, 0
4, 64030, Note_on_c, 10, 69, 0
4, 64032, Note_on_c, 10, 62, 110
4, 64032, Note_on_c, 10, 66, 110
4, 64032, Note_on_c, 10, 69, 110
4, 64126, Note_on_c, 10, 62, 0
4, 64126, Note_on_c, 10, 66, 0
4, 64126, Note_on_c, 10, 69, 0
4, 64224, Note_on_c, 10, 62, 110
4, 64224, Note_on_c, 10, 66, 110
4, 64224, Note_on_c, 10, 69, 110
4, 64318, Note_on_c, 10, 62, 0
4, 64318, Note_on_c, 10, 66, 0
4, 64318, Note_on_c, 10, 69, 0
4, 64320, Note_on_c, 10, 62, 110
4, 64320, Note_on_c, 10, 66, 110
4, 64320, Note_on_c, 10, 69, 110
4, 64414, Note_on_c, 10, 62, 0
4, 64414, Note_on_c, 10, 66, 0
4, 64414, Note_on_c, 10, 69, 0
4, 64416, Note_on_c, 10, 62, 110
4, 64416, Note_on_c, 10, 66, 110
4, 64416, Note_on_c, 10, 69, 110
4, 64510, Note_on_c, 10, 62, 0
4, 64510, Note_on_c, 10, 66, 0
4, 64510, Note_on_c, 10, 69, 0
4, 64608, Note_on_c, 10, 62, 110
4, 64608, Note_on_c, 10, 66, 110
4, 64608, Note_on_c, 10, 69, 110
4, 64702, Note_on_c, 10, 62, 0
4, 64702, Note_on_c, 10, 66, 0
4, 64702, Note_on_c, 10, 69, 0
4, 64704, Note_on_c, 10, 62, 110
4, 64704, Note_on_c, 10, 66, 110
4, 64704, Note_on_c, 10, 69, 110
4, 64798, Note_on_c, 10, 62, 0
4, 64798, Note_on_c, 10, 66, 0
4, 64798, Note_on_c, 10, 69, 0
4, 64800, Note_on_c, 10, 62, 110
4, 64800, Note_on_c, 10, 66, 110
4, 64800, Note_on_c, 10, 69, 110
4, 64894, Note_on_c, 10, 62, 0
4, 64894, Note_on_c, 10, 66, 0
4, 64894, Note_on_c, 10, 69, 0
4, 64992, Note_on_c, 10, 62, 110
4, 64992, Note_on_c, 10, 66, 110
4, 64992, Note_on_c, 10, 69, 110
4, 65086, Note_on_c, 10, 62, 0
4, 65086, Note_on_c, 10, 66, 0
4, 65086, Note_on_c, 10, 69, 0
4, 65088, Note_on_c, 10, 62, 110
4, 65088, Note_on_c, 10, 66, 110
4, 65088, Note_on_c, 10, 69, 110
4, 65182, Note_on_c, 10, 62, 0
4, 65182, Note_on_c, 10, 66, 0
4, 65182, Note_on_c, 10, 69, 0
4, 65184, Note_on_c, 10, 62, 110
4, 65184, Note_on_c, 10, 66, 110
4, 65184, Note_on_c, 10, 69, 110
4, 65278, Note_on_c, 10, 62, 0
4, 65278, Note_on_c, 10, 66, 0
4, 65278, Note_on_c, 10, 69, 0
4, 65280, Note_on_c, 10, 62, 110
4, 65280, Note_on_c, 10, 66, 110
4, 65280, Note_on_c, 10, 69, 110
4, 65374, Note_on_c, 10, 62, 0
4, 65374, Note_on_c, 10, 66, 0
4, 65374, Note_on_c, 10, 69, 0
4, 65472, Note_on_c, 10, 57, 110
4, 65472, Note_on_c, 10, 61, 110
4, 65472, Note_on_c, 10, 64, 110
4, 65566, Note_on_c, 10, 57, 0
4, 65566, Note_on_c, 10, 61, 0
4, 65566, Note_on_c, 10, 64, 0
4, 65568, Note_on_c, 10, 57, 110
4, 65568, Note_on_c, 10, 61, 110
4, 65568, Note_on_c, 10, 64, 110
4, 65662, Note_on_c, 10, 57, 0
4, 65662, Note_on_c, 10, 61, 0
4, 65662, Note_on_c, 10, 64, 0
4, 65760, Note_on_c, 10, 57, 110
4, 65760, Note_on_c, 10, 61, 110
4, 65760, Note_on_c, 10, 64, 110
4, 65854, Note_on_c, 10, 57, 0
4, 65854, Note_on_c, 10, 61, 0
4, 65854, Note_on_c, 10, 64, 0
4, 65856, Note_on_c, 10, 57, 110
4, 65856, Note_on_c, 10, 61, 110
4, 65856, Note_on_c, 10, 64, 110
4, 65950, Note_on_c, 10, 57, 0
4, 65950, Note_on_c, 10, 61, 0
4, 65950, Note_on_c, 10, 64, 0
4, 65952, Note_on_c, 10, 57, 110
4, 65952, Note_on_c, 10, 61, 110
4, 65952, Note_on_c, 10, 64, 110
4, 66046, Note_on_c, 10, 57, 0
4, 66046, Note_on_c, 10, 61, 0
4, 66046, Note_on_c, 10, 64, 0
4, 66144, Note_on_c, 10, 57, 110
4, 66144, Note_on_c, 10, 61, 110
4, 66144, Note_on_c, 10, 64, 110
4, 66238, Note_on_c, 10, 57, 0
4, 66238, Note_on_c, 10, 61, 0
4, 66238, Note_on_c, 10, 64, 0
4, 66240, Note_on_c, 10, 57, 110
4, 66240, Note_on_c, 10, 61, 110
4, 66240, Note_on_c, 10, 64, 110
4, 66334, Note_on_c, 10, 57, 0
4, 66334, Note_on_c, 10, 61, 0
4, 66334, Note_on_c, 10, 64, 0
4, 66336, Note_on_c, 10, 57, 110
4, 66336, Note_on_c, 10, 61, 110
4, 66336, Note_on_c, 10, 64, 110
4, 66430, Note_on_c, 10, 57, 0
4, 66430, Note_on_c, 10, 61, 0
4, 66430, Note_on_c, 10, 64, 0
4, 66528, Note_on_c, 10, 57, 110
4, 66528, Note_on_c, 10, 61, 110
4, 66528, Note_on_c, 10, 64, 110
4, 66622, Note_on_c, 10, 57, 0
4, 66622, Note_on_c, 10, 61, 0
4, 66622, Note_on_c, 10, 64, 0
4, 66624, Note_on_c, 10, 57, 110
4, 66624, Note_on_c, 10, 61, 110
4, 66624, Note_on_c, 10, 64, 110
4, 66718, Note_on_c, 10, 57, 0
4, 66718, Note_on_c, 10, 61, 0
4, 66718, Note_on_c, 10, 64, 0
4, 67008, Note_on_c, 10, 59, 110
4, 67008, Note_on_c, 10, 63, 110
4, 67008, Note_on_c, 10, 66, 110
4, 67102, Note_on_c, 10, 59, 0
4, 67102, Note_on_c, 10, 63, 0
4, 67102, Note_on_c, 10, 66, 0
4, 67104, Note_on_c, 10, 59, 110
4, 67104, Note_on_c, 10, 63, 110
4, 67104, Note_on_c, 10, 66, 110
4, 67198, Note_on_c, 10, 59, 0
4, 67198, Note_on_c, 10, 63, 0
4, 67198, Note_on_c, 10, 66, 0
4, 67296, Note_on_c, 10, 59, 110
4, 67296, Note_on_c, 10, 63, 110
4, 67296, Note_on_c, 10, 66, 110
4, 67390, Note_on_c, 10, 59, 0
4, 67390, Note_on_c, 10, 63, 0
4, 67390, Note_on_c, 10, 66, 0
4, 67392, Note_on_c, 10, 59, 110
4, 67392, Note_on_c, 10, 63, 110
4, 67392, Note_on_c, 10, 66, 110
4, 67486, Note_on_c, 10, 59, 0
4, 67486, Note_on_c, 10, 63, 0
4, 67486, Note_on_c, 10, 66, 0
4, 67488, Note_on_c, 10, 59, 110
4, 67488, Note_on_c, 10, 63, 110
4, 67488, Note_on_c, 10, 66, 110
4, 67582, Note_on_c, 10, 59, 0
4, 67582, Note_on_c, 10, 63, 0
4, 67582, Note_on_c, 10, 66, 0
4, 67680, Note_on_c, 10, 59, 110
4, 67680, Note_on_c, 10, 63, 110
4, 67680, Note_on_c, 10, 66, 110
4, 67774, Note_on_c, 10, 59, 0
4, 67774, Note_on_c, 10, 63, 0
4, 67774, Note_on_c, 10, 66, 0
4, 67776, Note_on_c, 10, 59, 110
4, 67776, Note_on_c, 10, 63, 110
4, 67776, Note_on_c, 10, 66, 110
4, 67870, Note_on_c, 10, 59, 0
4, 67870, Note_on_c, 10, 63, 0
4, 67870, Note_on_c, 10, 66, 0
4, 67872, Note_on_c, 10, 59, 110
4, 67872, Note_on_c, 10, 63, 110
4, 67872, Note_on_c, 10, 66, 110
4, 67966, Note_on_c, 10, 59, 0
4, 67966, Note_on_c, 10, 63, 0
4, 67966, Note_on_c, 10, 66, 0
4, 68064, Note_on_c, 10, 59, 110
4, 68064, Note_on_c, 10, 63, 110
4, 68064, Note_on_c, 10, 66, 110
4, 68158, Note_on_c, 10, 59, 0
4, 68158, Note_on_c, 10, 63, 0
4, 68158, Note_on_c, 10, 66, 0
4, 68160, Note_on_c, 10, 59, 110
4, 68160, Note_on_c, 10, 63, 110
4, 68160, Note_on_c, 10, 66, 110
4, 68254, Note_on_c, 10, 59, 0
4, 68254, Note_on_c, 10, 63, 0
4, 68254, Note_on_c, 10, 66, 0
4, 68256, Note_on_c, 10, 59, 110
4, 68256, Note_on_c, 10, 63, 110
4, 68256, Note_on_c, 10, 66, 110
4, 68350, Note_on_c, 10, 59, 0
4, 68350, Note_on_c, 10, 63, 0
4, 68350, Note_on_c, 10, 66, 0
4, 68544, Note_on_c, 10, 57, 110
4, 68544, Note_on_c, 10, 60, 110
4, 68544, Note_on_c, 10, 64, 110
4, 68638, Note_on_c, 10, 57, 0
4, 68638, Note_on_c, 10, 60, 0
4, 68638, Note_on_c, 10, 64, 0
4, 68640, Note_on_c, 10, 57, 110
4, 68640, Note_on_c, 10, 60, 110
4, 68640, Note_on_c, 10, 64, 110
4, 68734, Note_on_c, 10, 57, 0
4, 68734, Note_on_c, 10, 60, 0
4, 68734, Note_on_c, 10, 64, 0
4, 68832, Note_on_c, 10, 57, 110
4, 68832, Note_on_c, 10, 60, 110
4, 68832, Note_on_c, 10, 64, 110
4, 68926, Note_on_c, 10, 57, 0
4, 68926, Note_on_c, 10, 60, 0
4, 68926, Note_on_c, 10, 64, 0
4, 68928, Note_on_c, 10, 57, 110
4, 68928, Note_on_c, 10, 60, 110
4, 68928, Note_on_c, 10, 64, 110
4, 69022, Note_on_c, 10, 57, 0
4, 69022, Note_on_c, 10, 60, 0
4, 69022, Note_on_c, 10, 64, 0
4, 69024, Note_on_c, 10, 57, 110
4, 69024, Note_on_c, 10, 60, 110
4, 69024, Note_on_c, 10, 64, 110
4, 69118, Note_on_c, 10, 57, 0
4, 69118, Note_on_c, 10, 60, 0
4, 69118, Note_on_c, 10, 64, 0
4, 69312, Note_on_c, 10, 59, 110
4, 69312, Note_on_c, 10, 64, 110
4, 69312, Note_on_c, 10, 68, 110
4, 69406, Note_on_c, 10, 59, 0
4, 69406, Note_on_c, 10, 64, 0
4, 69406, Note_on_c, 10, 68, 0
4, 69408, Note_on_c, 10, 59, 110
4, 69408, Note_on_c, 10, 64, 110
4, 69408, Note_on_c, 10, 68, 110
4, 69502, Note_on_c, 10, 59, 0
4, 69502, Note_on_c, 10, 64, 0
4, 69502, Note_on_c, 10, 68, 0
4, 69600, Note_on_c, 10, 59, 110
4, 69600, Note_on_c, 10, 64, 110
4, 69600, Note_on_c, 10, 68, 110
4, 69694, Note_on_c, 10, 59, 0
4, 69694, Note_on_c, 10, 64, 0
4, 69694, Note_on_c, 10, 68, 0
4, 69696, Note_on_c, 10, 59, 110
4, 69696, Note_on_c, 10, 64, 110
4, 69696, Note_on_c, 10, 68, 110
4, 69790, Note_on_c, 10, 59, 0
4, 69790, Note_on_c, 10, 64, 0
4, 69790, Note_on_c, 10, 68, 0
4, 69792, Note_on_c, 10, 59, 110
4, 69792, Note_on_c, 10, 64, 110
4, 69792, Note_on_c, 10, 68, 110
4, 69886, Note_on_c, 10, 59, 0
4, 69886, Note_on_c, 10, 64, 0
4, 69886, Note_on_c, 10, 68, 0
4, 70080, Note_on_c, 10, 55, 110
4, 70080, Note_on_c, 10, 59, 110
4, 70080, Note_on_c, 10, 62, 110
4, 70174, Note_on_c, 10, 55, 0
4, 70174, Note_on_c, 10, 59, 0
4, 70174, Note_on_c, 10, 62, 0
4, 70176, Note_on_c, 10, 55, 110
4, 70176, Note_on_c, 10, 59, 110
4, 70176, Note_on_c, 10, 62, 110
4, 70270, Note_on_c, 10, 55, 0
4, 70270, Note_on_c, 10, 59, 0
4, 70270, Note_on_c, 10, 62, 0
4, 70368, Note_on_c, 10, 55, 110
4, 70368, Note_on_c, 10, 59, 110
4, 70368, Note_on_c, 10, 62, 110
4, 70462, Note_on_c, 10, 55, 0
4, 70462, Note_on_c, 10, 59, 0
4, 70462, Note_on_c, 10, 62, 0
4, 70464, Note_on_c, 10, 55, 110
4, 70464, Note_on_c, 10, 59, 110
4, 70464, Note_on_c, 10, 62, 110
4, 70558, Note_on_c, 10, 55, 0
4, 70558, Note_on_c, 10, 59, 0
4, 70558, Note_on_c, 10, 62, 0
4, 70560, Note_on_c, 10, 55, 110
4, 70560, Note_on_c, 10, 59, 110
4, 70560, Note_on_c, 10, 62, 110
4, 70654, Note_on_c, 10, 55, 0
4, 70654, Note_on_c, 10, 59, 0
4, 70654, Note_on_c, 10, 62, 0
4, 70848, Note_on_c, 10, 53, 110
4, 70848, Note_on_c, 10, 57, 110
4, 70848, Note_on_c, 10, 59, 110
4, 70848, Note_on_c, 10, 60, 110
4, 70942, Note_on_c, 10, 53, 0
4, 70942, Note_on_c, 10, 57, 0
4, 70942, Note_on_c, 10, 59, 0
4, 70942, Note_on_c, 10, 60, 0
4, 70944, Note_on_c, 10, 53, 110
4, 70944, Note_on_c, 10, 57, 110
4, 70944, Note_on_c, 10, 59, 110
4, 70944, Note_on_c, 10, 60, 110
4, 71038, Note_on_c, 10, 53, 0
4, 71038, Note_on_c, 10, 57, 0
4, 71038, Note_on_c, 10, 59, 0
4, 71038, Note_on_c, 10, 60, 0
4, 71136, Note_on_c, 10, 53, 110
4, 71136, Note_on_c, 10, 57, 110
4, 71136, Note_on_c, 10, 59, 110
4, 71136, Note_on_c, 10, 60, 110
4, 71230, Note_on_c, 10, 53, 0
4, 71230, Note_on_c, 10, 57, 0
4, 71230, Note_on_c, 10, 59, 0
4, 71230, Note_on_c, 10, 60, 0
4, 71232, Note_on_c, 10, 53, 110
4, 71232, Note_on_c, 10, 57, 110
4, 71232, Note_on_c, 10, 59, 110
4, 71232, Note_on_c, 10, 60, 110
4, 71326, Note_on_c, 10, 53, 0
4, 71326, Note_on_c, 10, 57, 0
4, 71326, Note_on_c, 10, 59, 0
4, 71326, Note_on_c, 10, 60, 0
4, 71328, Note_on_c, 10, 53, 110
4, 71328, Note_on_c, 10, 57, 110
4, 71328, Note_on_c, 10, 59, 110
4, 71328, Note_on_c, 10, 60, 110
4, 71422, Note_on_c, 10, 53, 0
4, 71422, Note_on_c, 10, 57, 0
4, 71422, Note_on_c, 10, 59, 0
4, 71422, Note_on_c, 10, 60, 0
4, 71616, Note_on_c, 10, 58, 110
4, 71616, Note_on_c, 10, 62, 110
4, 71616, Note_on_c, 10, 65, 110
4, 71710, Note_on_c, 10, 58, 0
4, 71710, Note_on_c, 10, 62, 0
4, 71710, Note_on_c, 10, 65, 0
4, 71712, Note_on_c, 10, 58, 110
4, 71712, Note_on_c, 10, 62, 110
4, 71712, Note_on_c, 10, 65, 110
4, 71806, Note_on_c, 10, 58, 0
4, 71806, Note_on_c, 10, 62, 0
4, 71806, Note_on_c, 10, 65, 0
4, 71904, Note_on_c, 10, 58, 110
4, 71904, Note_on_c, 10, 62, 110
4, 71904, Note_on_c, 10, 65, 110
4, 71998, Note_on_c, 10, 58, 0
4, 71998, Note_on_c, 10, 62, 0
4, 71998, Note_on_c, 10, 65, 0
4, 72000, Note_on_c, 10, 58, 110
4, 72000, Note_on_c, 10, 62, 110
4, 72000, Note_on_c, 10, 65, 110
4, 72094, Note_on_c, 10, 58, 0
4, 72094, Note_on_c, 10, 62, 0
4, 72094, Note_on_c, 10, 65, 0
4, 72096, Note_on_c, 10, 58, 110
4, 72096, Note_on_c, 10, 62, 110
4, 72096, Note_on_c, 10, 65, 110
4, 72190, Note_on_c, 10, 58, 0
4, 72190, Note_on_c, 10, 62, 0
4, 72190, Note_on_c, 10, 65, 0
4, 72384, Note_on_c, 10, 61, 110
4, 72384, Note_on_c, 10, 65, 110
4, 72384, Note_on_c, 10, 68, 110
4, 72478, Note_on_c, 10, 61, 0
4, 72478, Note_on_c, 10, 65, 0
4, 72478, Note_on_c, 10, 68, 0
4, 72480, Note_on_c, 10, 61, 110
4, 72480, Note_on_c, 10, 65, 110
4, 72480, Note_on_c, 10, 68, 110
4, 72574, Note_on_c, 10, 61, 0
4, 72574, Note_on_c, 10, 65, 0
4, 72574, Note_on_c, 10, 68, 0
4, 72672, Note_on_c, 10, 61, 110
4, 72672, Note_on_c, 10, 65, 110
4, 72672, Note_on_c, 10, 68, 110
4, 72766, Note_on_c, 10, 61, 0
4, 72766, Note_on_c, 10, 65, 0
4, 72766, Note_on_c, 10, 68, 0
4, 72768, Note_on_c, 10, 61, 110
4, 72768, Note_on_c, 10, 65, 110
4, 72768, Note_on_c, 10, 68, 110
4, 72862, Note_on_c, 10, 61, 0
4, 72862, Note_on_c, 10, 65, 0
4, 72862, Note_on_c, 10, 68, 0
4, 72864, Note_on_c, 10, 61, 110
4, 72864, Note_on_c, 10, 65, 110
4, 72864, Note_on_c, 10, 68, 110
4, 72958, Note_on_c, 10, 61, 0
4, 72958, Note_on_c, 10, 65, 0
4, 72958, Note_on_c, 10, 68, 0
4, 73152, Note_on_c, 10, 59, 110
4, 73152, Note_on_c, 10, 63, 110
4, 73152, Note_on_c, 10, 66, 110
4, 73246, Note_on_c, 10, 59, 0
4, 73246, Note_on_c, 10, 63, 0
4, 73246, Note_on_c, 10, 66, 0
4, 73248, Note_on_c, 10, 59, 110
4, 73248, Note_on_c, 10, 63, 110
4, 73248, Note_on_c, 10, 66, 110
4, 73342, Note_on_c, 10, 59, 0
4, 73342, Note_on_c, 10, 63, 0
4, 73342, Note_on_c, 10, 66, 0
4, 73440, Note_on_c, 10, 59, 110
4, 73440, Note_on_c, 10, 63, 110
4, 73440, Note_on_c, 10, 66, 110
4, 73534, Note_on_c, 10, 59, 0
4, 73534, Note_on_c, 10, 63, 0
4, 73534, Note_on_c, 10, 66, 0
4, 73536, Note_on_c, 10, 59, 110
4, 73536, Note_on_c, 10, 63, 110
4, 73536, Note_on_c, 10, 66, 110
4, 73630, Note_on_c, 10, 59, 0
4, 73630, Note_on_c, 10, 63, 0
4, 73630, Note_on_c, 10, 66, 0
4, 73632, Note_on_c, 10, 59, 110
4, 73632, Note_on_c, 10, 63, 110
4, 73632, Note_on_c, 10, 66, 110
4, 73726, Note_on_c, 10, 59, 0
4, 73726, Note_on_c, 10, 63, 0
4, 73726, Note_on_c, 10, 66, 0
4, 73824, Note_on_c, 10, 59, 110
4, 73824, Note_on_c, 10, 63, 110
4, 73824, Note_on_c, 10, 66, 110
4, 73918, Note_on_c, 10, 59, 0
4, 73918, Note_on_c, 10, 63, 0
4, 73918, Note_on_c, 10, 66, 0
4, 73920, Note_on_c, 10, 59, 110
4, 73920, Note_on_c, 10, 63, 110
4, 73920, Note_on_c, 10, 66, 110
4, 74014, Note_on_c, 10, 59, 0
4, 74014, Note_on_c, 10, 63, 0
4, 74014, Note_on_c, 10, 66, 0
4, 74016, Note_on_c, 10, 59, 110
4, 74016, Note_on_c, 10, 63, 110
4, 74016, Note_on_c, 10, 66, 110
4, 74110, Note_on_c, 10, 59, 0
4, 74110, Note_on_c, 10, 63, 0
4, 74110, Note_on_c, 10, 66, 0
4, 74208, Note_on_c, 10, 59, 110
4, 74208, Note_on_c, 10, 63, 110
4, 74208, Note_on_c, 10, 66, 110
4, 74302, Note_on_c, 10, 59, 0
4, 74302, Note_on_c, 10, 63, 0
4, 74302, Note_on_c, 10, 66, 0
4, 74304, Note_on_c, 10, 59, 110
4, 74304, Note_on_c, 10, 63, 110
4, 74304, Note_on_c, 10, 66, 110
4, 74398, Note_on_c, 10, 59, 0
4, 74398, Note_on_c, 10, 63, 0
4, 74398, Note_on_c, 10, 66, 0
4, 74400, Note_on_c, 10, 59, 110
4, 74400, Note_on_c, 10, 63, 110
4, 74400, Note_on_c, 10, 66, 110
4, 74494, Note_on_c, 10, 59, 0
4, 74494, Note_on_c, 10, 63, 0
4, 74494, Note_on_c, 10, 66, 0
4, 74688, Note_on_c, 10, 57, 110
4, 74688, Note_on_c, 10, 60, 110
4, 74688, Note_on_c, 10, 64, 110
4, 74782, Note_on_c, 10, 57, 0
4, 74782, Note_on_c, 10, 60, 0
4, 74782, Note_on_c, 10, 64, 0
4, 74784, Note_on_c, 10, 57, 110
4, 74784, Note_on_c, 10, 60, 110
4, 74784, Note_on_c, 10, 64, 110
4, 74878, Note_on_c, 10, 57, 0
4, 74878, Note_on_c, 10, 60, 0
4, 74878, Note_on_c, 10, 64, 0
4, 74976, Note_on_c, 10, 57, 110
4, 74976, Note_on_c, 10, 60, 110
4, 74976, Note_on_c, 10, 64, 110
4, 75070, Note_on_c, 10, 57, 0
4, 75070, Note_on_c, 10, 60, 0
4, 75070, Note_on_c, 10, 64, 0
4, 75072, Note_on_c, 10, 57, 110
4, 75072, Note_on_c, 10, 60, 110
4, 75072, Note_on_c, 10, 64, 110
4, 75166, Note_on_c, 10, 57, 0
4, 75166, Note_on_c, 10, 60, 0
4, 75166, Note_on_c, 10, 64, 0
4, 75168, Note_on_c, 10, 57, 110
4, 75168, Note_on_c, 10, 60, 110
4, 75168, Note_on_c, 10, 64, 110
4, 75262, Note_on_c, 10, 57, 0
4, 75262, Note_on_c, 10, 60, 0
4, 75262, Note_on_c, 10, 64, 0
4, 75456, Note_on_c, 10, 59, 110
4, 75456, Note_on_c, 10, 64, 110
4, 75456, Note_on_c, 10, 68, 110
4, 75550, Note_on_c, 10, 59, 0
4, 75550, Note_on_c, 10, 64, 0
4, 75550, Note_on_c, 10, 68, 0
4, 75552, Note_on_c, 10, 59, 110
4, 75552, Note_on_c, 10, 64, 110
4, 75552, Note_on_c, 10, 68, 110
4, 75646, Note_on_c, 10, 59, 0
4, 75646, Note_on_c, 10, 64, 0
4, 75646, Note_on_c, 10, 68, 0
4, 75744, Note_on_c, 10, 59, 110
4, 75744, Note_on_c, 10, 64, 110
4, 75744, Note_on_c, 10, 68, 110
4, 75838, Note_on_c, 10, 59, 0
4, 75838, Note_on_c, 10, 64, 0
4, 75838, Note_on_c, 10, 68, 0
4, 75840, Note_on_c, 10, 59, 110
4, 75840, Note_on_c, 10, 64, 110
4, 75840, Note_on_c, 10, 68, 110
4, 75934, Note_on_c, 10, 59, 0
4, 75934, Note_on_c, 10, 64, 0
4, 75934, Note_on_c, 10, 68, 0
4, 75936, Note_on_c, 10, 59, 110
4, 75936, Note_on_c, 10, 64, 110
4, 75936, Note_on_c, 10, 68, 110
4, 76030, Note_on_c, 10, 59, 0
4, 76030, Note_on_c, 10, 64, 0
4, 76030, Note_on_c, 10, 68, 0
4, 76224, Note_on_c, 10, 55, 110
4, 76224, Note_on_c, 10, 59, 110
4, 76224, Note_on_c, 10, 62, 110
4, 76318, Note_on_c, 10, 55, 0
4, 76318, Note_on_c, 10, 59, 0
4, 76318, Note_on_c, 10, 62, 0
4, 76320, Note_on_c, 10, 55, 110
4, 76320, Note_on_c, 10, 59, 110
4, 76320, Note_on_c, 10, 62, 110
4, 76414, Note_on_c, 10, 55, 0
4, 76414, Note_on_c, 10, 59, 0
4, 76414, Note_on_c, 10, 62, 0
4, 76512, Note_on_c, 10, 55, 110
4, 76512, Note_on_c, 10, 59, 110
4, 76512, Note_on_c, 10, 62, 110
4, 76606, Note_on_c, 10, 55, 0
4, 76606, Note_on_c, 10, 59, 0
4, 76606, Note_on_c, 10, 62, 0
4, 76608, Note_on_c, 10, 55, 110
4, 76608, Note_on_c, 10, 59, 110
4, 76608, Note_on_c, 10, 62, 110
4, 76702, Note_on_c, 10, 55, 0
4, 76702, Note_on_c, 10, 59, 0
4, 76702, Note_on_c, 10, 62, 0
4, 76704, Note_on_c, 10, 55, 110
4, 76704, Note_on_c, 10, 59, 110
4, 76704, Note_on_c, 10, 62, 110
4, 76798, Note_on_c, 10, 55, 0
4, 76798, Note_on_c, 10, 59, 0
4, 76798, Note_on_c, 10, 62, 0
4, 76992, Note_on_c, 10, 53, 110
4, 76992, Note_on_c, 10, 57, 110
4, 76992, Note_on_c, 10, 59, 110
4, 76992, Note_on_c, 10, 60, 110
4, 77086, Note_on_c, 10, 53, 0
4, 77086, Note_on_c, 10, 57, 0
4, 77086, Note_on_c, 10, 59, 0
4, 77086, Note_on_c, 10, 60, 0
4, 77088, Note_on_c, 10, 53, 110
4, 77088, Note_on_c, 10, 57, 110
4, 77088, Note_on_c, 10, 59, 110
4, 77088, Note_on_c, 10, 60, 110
4, 77182, Note_on_c, 10, 53, 0
4, 77182, Note_on_c, 10, 57, 0
4, 77182, Note_on_c, 10, 59, 0
4, 77182, Note_on_c, 10, 60, 0
4, 77280, Note_on_c, 10, 53, 110
4, 77280, Note_on_c, 10, 57, 110
4, 77280, Note_on_c, 10, 59, 110
4, 77280, Note_on_c, 10, 60, 110
4, 77374, Note_on_c, 10, 53, 0
4, 77374, Note_on_c, 10, 57, 0
4, 77374, Note_on_c, 10, 59, 0
4, 77374, Note_on_c, 10, 60, 0
4, 77376, Note_on_c, 10, 53, 110
4, 77376, Note_on_c, 10, 57, 110
4, 77376, Note_on_c, 10, 59, 110
4, 77376, Note_on_c, 10, 60, 110
4, 77470, Note_on_c, 10, 53, 0
4, 77470, Note_on_c, 10, 57, 0
4, 77470, Note_on_c, 10, 59, 0
4, 77470, Note_on_c, 10, 60, 0
4, 77472, Note_on_c, 10, 53, 110
4, 77472, Note_on_c, 10, 57, 110
4, 77472, Note_on_c, 10, 59, 110
4, 77472, Note_on_c, 10, 60, 110
4, 77566, Note_on_c, 10, 53, 0
4, 77566, Note_on_c, 10, 57, 0
4, 77566, Note_on_c, 10, 59, 0
4, 77566, Note_on_c, 10, 60, 0
4, 77760, Note_on_c, 10, 58, 110
4, 77760, Note_on_c, 10, 62, 110
4, 77760, Note_on_c, 10, 65, 110
4, 77854, Note_on_c, 10, 58, 0
4, 77854, Note_on_c, 10, 62, 0
4, 77854, Note_on_c, 10, 65, 0
4, 77856, Note_on_c, 10, 58, 110
4, 77856, Note_on_c, 10, 62, 110
4, 77856, Note_on_c, 10, 65, 110
4, 77950, Note_on_c, 10, 58, 0
4, 77950, Note_on_c, 10, 62, 0
4, 77950, Note_on_c, 10, 65, 0
4, 78048, Note_on_c, 10, 58, 110
4, 78048, Note_on_c, 10, 62, 110
4, 78048, Note_on_c, 10, 65, 110
4, 78142, Note_on_c, 10, 58, 0
4, 78142, Note_on_c, 10, 62, 0
4, 78142, Note_on_c, 10, 65, 0
4, 78144, Note_on_c, 10, 58, 110
4, 78144, Note_on_c, 10, 62, 110
4, 78144, Note_on_c, 10, 65, 110
4, 78238, Note_on_c, 10, 58, 0
4, 78238, Note_on_c, 10, 62, 0
4, 78238, Note_on_c, 10, 65, 0
4, 78240, Note_on_c, 10, 58, 110
4, 78240, Note_on_c, 10, 62, 110
4, 78240, Note_on_c, 10, 65, 110
4, 78334, Note_on_c, 10, 58, 0
4, 78334, Note_on_c, 10, 62, 0
4, 78334, Note_on_c, 10, 65, 0
4, 78528, Note_on_c, 10, 61, 110
4, 78528, Note_on_c, 10, 64, 110
4, 78528, Note_on_c, 10, 69, 110
4, 78622, Note_on_c, 10, 61, 0
4, 78622, Note_on_c, 10, 64, 0
4, 78622, Note_on_c, 10, 69, 0
4, 78624, Note_on_c, 10, 61, 110
4, 78624, Note_on_c, 10, 64, 110
4, 78624, Note_on_c, 10, 69, 110
4, 78718, Note_on_c, 10, 61, 0
4, 78718, Note_on_c, 10, 64, 0
4, 78718, Note_on_c, 10, 69, 0
4, 78816, Note_on_c, 10, 61, 110
4, 78816, Note_on_c, 10, 64, 110
4, 78816, Note_on_c, 10, 69, 110
4, 78910, Note_on_c, 10, 61, 0
4, 78910, Note_on_c, 10, 64, 0
4, 78910, Note_on_c, 10, 69, 0
4, 78912, Note_on_c, 10, 61, 110
4, 78912, Note_on_c, 10, 64, 110
4, 78912, Note_on_c, 10, 69, 110
4, 79006, Note_on_c, 10, 61, 0
4, 79006, Note_on_c, 10, 64, 0
4, 79006, Note_on_c, 10, 69, 0
4, 79008, Note_on_c, 10, 61, 110
4, 79008, Note_on_c, 10, 64, 110
4, 79008, Note_on_c, 10, 69, 110
4, 79102, Note_on_c, 10, 61, 0
4, 79102, Note_on_c, 10, 64, 0
4, 79102, Note_on_c, 10, 69, 0
4, 79296, Note_on_c, 10, 61, 110
4, 79296, Note_on_c, 10, 64, 110
4, 79296, Note_on_c, 10, 66, 110
4, 79296, Note_on_c, 10, 69, 110
4, 79296, Note_on_c, 10, 71, 110
4, 79390, Note_on_c, 10, 61, 0
4, 79390, Note_on_c, 10, 64, 0
4, 79390, Note_on_c, 10, 66, 0
4, 79390, Note_on_c, 10, 69, 0
4, 79390, Note_on_c, 10, 71, 0
4, 79392, Note_on_c, 10, 61, 110
4, 79392, Note_on_c, 10, 64, 110
4, 79392, Note_on_c, 10, 68, 110
4, 79392, Note_on_c, 10, 69, 110
4, 79392, Note_on_c, 10, 73, 110
4, 79486, Note_on_c, 10, 64, 0
4, 79486, Note_on_c, 10, 61, 0
4, 79486, Note_on_c, 10, 68, 0
4, 79486, Note_on_c, 10, 69, 0
4, 79486, Note_on_c, 10, 73, 0
4, 79584, Note_on_c, 10, 61, 110
4, 79584, Note_on_c, 10, 64, 110
4, 79584, Note_on_c, 10, 69, 110
4, 79744, Note_on_c, 10, 61, 0
4, 79744, Note_on_c, 10, 64, 0
4, 79744, Note_on_c, 10, 69, 0
4, 79776, Note_on_c, 10, 61, 110
4, 79776, Note_on_c, 10, 64, 110
4, 79776, Note_on_c, 10, 69, 110
4, 79870, Note_on_c, 10, 61, 0
4, 79870, Note_on_c, 10, 64, 0
4, 79870, Note_on_c, 10, 69, 0
4, 79872, Note_on_c, 10, 61, 110
4, 79872, Note_on_c, 10, 64, 110
4, 79872, Note_on_c, 10, 69, 110
4, 79966, Note_on_c, 10, 61, 0
4, 79966, Note_on_c, 10, 64, 0
4, 79966, Note_on_c, 10, 69, 0
4, 80064, Note_on_c, 10, 61, 110
4, 80064, Note_on_c, 10, 64, 110
4, 80064, Note_on_c, 10, 68, 110
4, 80158, Note_on_c, 10, 61, 0
4, 80158, Note_on_c, 10, 64, 0
4, 80158, Note_on_c, 10, 68, 0
4, 80160, Note_on_c, 10, 61, 110
4, 80160, Note_on_c, 10, 64, 110
4, 80160, Note_on_c, 10, 68, 110
4, 80254, Note_on_c, 10, 61, 0
4, 80254, Note_on_c, 10, 64, 0
4, 80254, Note_on_c, 10, 68, 0
4, 80352, Note_on_c, 10, 61, 110
4, 80352, Note_on_c, 10, 64, 110
4, 80352, Note_on_c, 10, 68, 110
4, 80446, Note_on_c, 10, 61, 0
4, 80446, Note_on_c, 10, 64, 0
4, 80446, Note_on_c, 10, 68, 0
4, 80448, Note_on_c, 10, 61, 110
4, 80448, Note_on_c, 10, 64, 110
4, 80448, Note_on_c, 10, 68, 110
4, 80542, Note_on_c, 10, 61, 0
4, 80542, Note_on_c, 10, 64, 0
4, 80542, Note_on_c, 10, 68, 0
4, 80544, Note_on_c, 10, 61, 110
4, 80544, Note_on_c, 10, 64, 110
4, 80544, Note_on_c, 10, 68, 110
4, 80638, Note_on_c, 10, 61, 0
4, 80638, Note_on_c, 10, 64, 0
4, 80638, Note_on_c, 10, 68, 0
4, 80736, Note_on_c, 10, 61, 110
4, 80736, Note_on_c, 10, 64, 110
4, 80736, Note_on_c, 10, 68, 110
4, 80830, Note_on_c, 10, 61, 0
4, 80830, Note_on_c, 10, 64, 0
4, 80830, Note_on_c, 10, 68, 0
4, 80832, Note_on_c, 10, 61, 110
4, 80832, Note_on_c, 10, 64, 110
4, 80832, Note_on_c, 10, 68, 110
4, 80926, Note_on_c, 10, 61, 0
4, 80926, Note_on_c, 10, 64, 0
4, 80926, Note_on_c, 10, 68, 0
4, 80928, Note_on_c, 10, 61, 110
4, 80928, Note_on_c, 10, 64, 110
4, 80928, Note_on_c, 10, 68, 110
4, 81022, Note_on_c, 10, 61, 0
4, 81022, Note_on_c, 10, 64, 0
4, 81022, Note_on_c, 10, 68, 0
4, 81120, Note_on_c, 10, 61, 110
4, 81120, Note_on_c, 10, 64, 110
4, 81120, Note_on_c, 10, 68, 110
4, 81214, Note_on_c, 10, 61, 0
4, 81214, Note_on_c, 10, 64, 0
4, 81214, Note_on_c, 10, 68, 0
4, 81216, Note_on_c, 10, 61, 110
4, 81216, Note_on_c, 10, 64, 110
4, 81216, Note_on_c, 10, 68, 110
4, 81310, Note_on_c, 10, 61, 0
4, 81310, Note_on_c, 10, 64, 0
4, 81310, Note_on_c, 10, 68, 0
4, 81312, Note_on_c, 10, 61, 110
4, 81312, Note_on_c, 10, 64, 110
4, 81312, Note_on_c, 10, 68, 110
4, 81406, Note_on_c, 10, 61, 0
4, 81406, Note_on_c, 10, 64, 0
4, 81406, Note_on_c, 10, 68, 0
4, 81600, Note_on_c, 10, 59, 110
4, 81600, Note_on_c, 10, 63, 110
4, 81600, Note_on_c, 10, 66, 110
4, 81694, Note_on_c, 10, 59, 0
4, 81694, Note_on_c, 10, 63, 0
4, 81694, Note_on_c, 10, 66, 0
4, 81696, Note_on_c, 10, 59, 110
4, 81696, Note_on_c, 10, 63, 110
4, 81696, Note_on_c, 10, 66, 110
4, 81790, Note_on_c, 10, 59, 0
4, 81790, Note_on_c, 10, 63, 0
4, 81790, Note_on_c, 10, 66, 0
4, 81888, Note_on_c, 10, 59, 110
4, 81888, Note_on_c, 10, 63, 110
4, 81888, Note_on_c, 10, 66, 110
4, 81982, Note_on_c, 10, 59, 0
4, 81982, Note_on_c, 10, 63, 0
4, 81982, Note_on_c, 10, 66, 0
4, 81984, Note_on_c, 10, 59, 110
4, 81984, Note_on_c, 10, 63, 110
4, 81984, Note_on_c, 10, 66, 110
4, 82078, Note_on_c, 10, 59, 0
4, 82078, Note_on_c, 10, 63, 0
4, 82078, Note_on_c, 10, 66, 0
4, 82080, Note_on_c, 10, 59, 110
4, 82080, Note_on_c, 10, 63, 110
4, 82080, Note_on_c, 10, 66, 110
4, 82174, Note_on_c, 10, 59, 0
4, 82174, Note_on_c, 10, 63, 0
4, 82174, Note_on_c, 10, 66, 0
4, 82368, Note_on_c, 10, 57, 110
4, 82368, Note_on_c, 10, 61, 110
4, 82368, Note_on_c, 10, 64, 110
4, 82462, Note_on_c, 10, 57, 0
4, 82462, Note_on_c, 10, 61, 0
4, 82462, Note_on_c, 10, 64, 0
4, 82464, Note_on_c, 10, 57, 110
4, 82464, Note_on_c, 10, 61, 110
4, 82464, Note_on_c, 10, 64, 110
4, 82558, Note_on_c, 10, 57, 0
4, 82558, Note_on_c, 10, 61, 0
4, 82558, Note_on_c, 10, 64, 0
4, 82656, Note_on_c, 10, 57, 110
4, 82656, Note_on_c, 10, 61, 110
4, 82656, Note_on_c, 10, 64, 110
4, 82750, Note_on_c, 10, 57, 0
4, 82750, Note_on_c, 10, 61, 0
4, 82750, Note_on_c, 10, 64, 0
4, 82752, Note_on_c, 10, 57, 110
4, 82752, Note_on_c, 10, 61, 110
4, 82752, Note_on_c, 10, 64, 110
4, 82846, Note_on_c, 10, 57, 0
4, 82846, Note_on_c, 10, 61, 0
4, 82846, Note_on_c, 10, 64, 0
4, 82848, Note_on_c, 10, 57, 110
4, 82848, Note_on_c, 10, 61, 110
4, 82848, Note_on_c, 10, 64, 110
4, 82942, Note_on_c, 10, 57, 0
4, 82942, Note_on_c, 10, 61, 0
4, 82942, Note_on_c, 10, 64, 0
4, 83136, Note_on_c, 10, 61, 110
4, 83136, Note_on_c, 10, 64, 110
4, 83136, Note_on_c, 10, 68, 110
4, 83230, Note_on_c, 10, 61, 0
4, 83230, Note_on_c, 10, 64, 0
4, 83230, Note_on_c, 10, 68, 0
4, 83232, Note_on_c, 10, 61, 110
4, 83232, Note_on_c, 10, 64, 110
4, 83232, Note_on_c, 10, 68, 110
4, 83326, Note_on_c, 10, 61, 0
4, 83326, Note_on_c, 10, 64, 0
4, 83326, Note_on_c, 10, 68, 0
4, 83424, Note_on_c, 10, 61, 110
4, 83424, Note_on_c, 10, 64, 110
4, 83424, Note_on_c, 10, 68, 110
4, 83518, Note_on_c, 10, 61, 0
4, 83518, Note_on_c, 10, 64, 0
4, 83518, Note_on_c, 10, 68, 0
4, 83520, Note_on_c, 10, 61, 110
4, 83520, Note_on_c, 10, 64, 110
4, 83520, Note_on_c, 10, 68, 110
4, 83614, Note_on_c, 10, 61, 0
4, 83614, Note_on_c, 10, 64, 0
4, 83614, Note_on_c, 10, 68, 0
4, 83616, Note_on_c, 10, 61, 110
4, 83616, Note_on_c, 10, 64, 110
4, 83616, Note_on_c, 10, 68, 110
4, 83710, Note_on_c, 10, 61, 0
4, 83710, Note_on_c, 10, 64, 0
4, 83710, Note_on_c, 10, 68, 0
4, 83904, Note_on_c, 10, 59, 110
4, 83904, Note_on_c, 10, 64, 110
4, 83904, Note_on_c, 10, 68, 110
4, 83998, Note_on_c, 10, 59, 0
4, 83998, Note_on_c, 10, 64, 0
4, 83998, Note_on_c, 10, 68, 0
4, 84000, Note_on_c, 10, 59, 110
4, 84000, Note_on_c, 10, 64, 110
4, 84000, Note_on_c, 10, 68, 110
4, 84094, Note_on_c, 10, 59, 0
4, 84094, Note_on_c, 10, 64, 0
4, 84094, Note_on_c, 10, 68, 0
4, 84192, Note_on_c, 10, 59, 110
4, 84192, Note_on_c, 10, 64, 110
4, 84192, Note_on_c, 10, 68, 110
4, 84286, Note_on_c, 10, 59, 0
4, 84286, Note_on_c, 10, 64, 0
4, 84286, Note_on_c, 10, 68, 0
4, 84288, Note_on_c, 10, 59, 110
4, 84288, Note_on_c, 10, 64, 110
4, 84288, Note_on_c, 10, 68, 110
4, 84382, Note_on_c, 10, 59, 0
4, 84382, Note_on_c, 10, 64, 0
4, 84382, Note_on_c, 10, 68, 0
4, 84384, Note_on_c, 10, 59, 110
4, 84384, Note_on_c, 10, 64, 110
4, 84384, Note_on_c, 10, 68, 110
4, 84478, Note_on_c, 10, 59, 0
4, 84478, Note_on_c, 10, 64, 0
4, 84478, Note_on_c, 10, 68, 0
4, 84672, Note_on_c, 10, 57, 110
4, 84672, Note_on_c, 10, 61, 110
4, 84672, Note_on_c, 10, 64, 110
4, 84766, Note_on_c, 10, 57, 0
4, 84766, Note_on_c, 10, 61, 0
4, 84766, Note_on_c, 10, 64, 0
4, 84768, Note_on_c, 10, 57, 110
4, 84768, Note_on_c, 10, 61, 110
4, 84768, Note_on_c, 10, 64, 110
4, 84862, Note_on_c, 10, 57, 0
4, 84862, Note_on_c, 10, 61, 0
4, 84862, Note_on_c, 10, 64, 0
4, 84960, Note_on_c, 10, 57, 110
4, 84960, Note_on_c, 10, 61, 110
4, 84960, Note_on_c, 10, 64, 110
4, 85054, Note_on_c, 10, 57, 0
4, 85054, Note_on_c, 10, 61, 0
4, 85054, Note_on_c, 10, 64, 0
4, 85056, Note_on_c, 10, 57, 110
4, 85056, Note_on_c, 10, 61, 110
4, 85056, Note_on_c, 10, 64, 110
4, 85150, Note_on_c, 10, 57, 0
4, 85150, Note_on_c, 10, 61, 0
4, 85150, Note_on_c, 10, 64, 0
4, 85152, Note_on_c, 10, 57, 110
4, 85152, Note_on_c, 10, 61, 110
4, 85152, Note_on_c, 10, 64, 110
4, 85246, Note_on_c, 10, 57, 0
4, 85246, Note_on_c, 10, 61, 0
4, 85246, Note_on_c, 10, 64, 0
4, 85440, Note_on_c, 10, 59, 110
4, 85440, Note_on_c, 10, 63, 110
4, 85440, Note_on_c, 10, 66, 110
4, 85534, Note_on_c, 10, 59, 0
4, 85534, Note_on_c, 10, 63, 0
4, 85534, Note_on_c, 10, 66, 0
4, 85536, Note_on_c, 10, 59, 110
4, 85536, Note_on_c, 10, 63, 110
4, 85536, Note_on_c, 10, 66, 110
4, 85630, Note_on_c, 10, 59, 0
4, 85630, Note_on_c, 10, 63, 0
4, 85630, Note_on_c, 10, 66, 0
4, 85728, Note_on_c, 10, 59, 110
4, 85728, Note_on_c, 10, 63, 110
4, 85728, Note_on_c, 10, 66, 110
4, 85822, Note_on_c, 10, 59, 0
4, 85822, Note_on_c, 10, 63, 0
4, 85822, Note_on_c, 10, 66, 0
4, 85824, Note_on_c, 10, 59, 110
4, 85824, Note_on_c, 10, 63, 110
4, 85824, Note_on_c, 10, 66, 110
4, 85918, Note_on_c, 10, 59, 0
4, 85918, Note_on_c, 10, 63, 0
4, 85918, Note_on_c, 10, 66, 0
4, 85920, Note_on_c, 10, 59, 110
4, 85920, Note_on_c, 10, 63, 110
4, 85920, Note_on_c, 10, 66, 110
4, 86014, Note_on_c, 10, 59, 0
4, 86014, Note_on_c, 10, 63, 0
4, 86014, Note_on_c, 10, 66, 0
4, 86208, Note_on_c, 10, 61, 110
4, 86208, Note_on_c, 10, 64, 110
4, 86208, Note_on_c, 10, 68, 110
4, 86302, Note_on_c, 10, 61, 0
4, 86302, Note_on_c, 10, 64, 0
4, 86302, Note_on_c, 10, 68, 0
4, 86304, Note_on_c, 10, 61, 110
4, 86304, Note_on_c, 10, 64, 110
4, 86304, Note_on_c, 10, 68, 110
4, 86398, Note_on_c, 10, 61, 0
4, 86398, Note_on_c, 10, 64, 0
4, 86398, Note_on_c, 10, 68, 0
4, 86496, Note_on_c, 10, 61, 110
4, 86496, Note_on_c, 10, 64, 110
4, 86496, Note_on_c, 10, 68, 110
4, 86590, Note_on_c, 10, 61, 0
4, 86590, Note_on_c, 10, 64, 0
4, 86590, Note_on_c, 10, 68, 0
4, 86592, Note_on_c, 10, 61, 110
4, 86592, Note_on_c, 10, 64, 110
4, 86592, Note_on_c, 10, 68, 110
4, 86686, Note_on_c, 10, 61, 0
4, 86686, Note_on_c, 10, 64, 0
4, 86686, Note_on_c, 10, 68, 0
4, 86688, Note_on_c, 10, 61, 110
4, 86688, Note_on_c, 10, 64, 110
4, 86688, Note_on_c, 10, 68, 110
4, 86782, Note_on_c, 10, 61, 0
4, 86782, Note_on_c, 10, 64, 0
4, 86782, Note_on_c, 10, 68, 0
4, 86880, Note_on_c, 10, 61, 110
4, 86880, Note_on_c, 10, 64, 110
4, 86880, Note_on_c, 10, 68, 110
4, 86974, Note_on_c, 10, 61, 0
4, 86974, Note_on_c, 10, 64, 0
4, 86974, Note_on_c, 10, 68, 0
4, 86976, Note_on_c, 10, 61, 110
4, 86976, Note_on_c, 10, 64, 110
4, 86976, Note_on_c, 10, 68, 110
4, 87070, Note_on_c, 10, 61, 0
4, 87070, Note_on_c, 10, 64, 0
4, 87070, Note_on_c, 10, 68, 0
4, 87072, Note_on_c, 10, 61, 110
4, 87072, Note_on_c, 10, 64, 110
4, 87072, Note_on_c, 10, 68, 110
4, 87166, Note_on_c, 10, 61, 0
4, 87166, Note_on_c, 10, 64, 0
4, 87166, Note_on_c, 10, 68, 0
4, 87264, Note_on_c, 10, 61, 110
4, 87264, Note_on_c, 10, 64, 110
4, 87264, Note_on_c, 10, 68, 110
4, 87358, Note_on_c, 10, 61, 0
4, 87358, Note_on_c, 10, 64, 0
4, 87358, Note_on_c, 10, 68, 0
4, 87360, Note_on_c, 10, 61, 110
4, 87360, Note_on_c, 10, 64, 110
4, 87360, Note_on_c, 10, 68, 110
4, 87454, Note_on_c, 10, 61, 0
4, 87454, Note_on_c, 10, 64, 0
4, 87454, Note_on_c, 10, 68, 0
4, 87456, Note_on_c, 10, 61, 110
4, 87456, Note_on_c, 10, 64, 110
4, 87456, Note_on_c, 10, 68, 110
4, 87550, Note_on_c, 10, 61, 0
4, 87550, Note_on_c, 10, 64, 0
4, 87550, Note_on_c, 10, 68, 0
4, 87744, Note_on_c, 10, 59, 110
4, 87744, Note_on_c, 10, 63, 110
4, 87744, Note_on_c, 10, 66, 110
4, 87838, Note_on_c, 10, 59, 0
4, 87838, Note_on_c, 10, 63, 0
4, 87838, Note_on_c, 10, 66, 0
4, 87840, Note_on_c, 10, 59, 110
4, 87840, Note_on_c, 10, 63, 110
4, 87840, Note_on_c, 10, 66, 110
4, 87934, Note_on_c, 10, 59, 0
4, 87934, Note_on_c, 10, 63, 0
4, 87934, Note_on_c, 10, 66, 0
4, 88032, Note_on_c, 10, 59, 110
4, 88032, Note_on_c, 10, 63, 110
4, 88032, Note_on_c, 10, 66, 110
4, 88126, Note_on_c, 10, 59, 0
4, 88126, Note_on_c, 10, 63, 0
4, 88126, Note_on_c, 10, 66, 0
4, 88128, Note_on_c, 10, 59, 110
4, 88128, Note_on_c, 10, 63, 110
4, 88128, Note_on_c, 10, 66, 110
4, 88222, Note_on_c, 10, 59, 0
4, 88222, Note_on_c, 10, 63, 0
4, 88222, Note_on_c, 10, 66, 0
4, 88224, Note_on_c, 10, 59, 110
4, 88224, Note_on_c, 10, 63, 110
4, 88224, Note_on_c, 10, 66, 110
4, 88318, Note_on_c, 10, 59, 0
4, 88318, Note_on_c, 10, 63, 0
4, 88318, Note_on_c, 10, 66, 0
4, 88512, Note_on_c, 10, 57, 110
4, 88512, Note_on_c, 10, 61, 110
4, 88512, Note_on_c, 10, 64, 110
4, 88606, Note_on_c, 10, 57, 0
4, 88606, Note_on_c, 10, 61, 0
4, 88606, Note_on_c, 10, 64, 0
4, 88608, Note_on_c, 10, 57, 110
4, 88608, Note_on_c, 10, 61, 110
4, 88608, Note_on_c, 10, 64, 110
4, 88702, Note_on_c, 10, 57, 0
4, 88702, Note_on_c, 10, 61, 0
4, 88702, Note_on_c, 10, 64, 0
4, 88800, Note_on_c, 10, 57, 110
4, 88800, Note_on_c, 10, 61, 110
4, 88800, Note_on_c, 10, 64, 110
4, 88894, Note_on_c, 10, 57, 0
4, 88894, Note_on_c, 10, 61, 0
4, 88894, Note_on_c, 10, 64, 0
4, 88896, Note_on_c, 10, 57, 110
4, 88896, Note_on_c, 10, 61, 110
4, 88896, Note_on_c, 10, 64, 110
4, 88990, Note_on_c, 10, 57, 0
4, 88990, Note_on_c, 10, 61, 0
4, 88990, Note_on_c, 10, 64, 0
4, 88992, Note_on_c, 10, 57, 110
4, 88992, Note_on_c, 10, 61, 110
4, 88992, Note_on_c, 10, 64, 110
4, 89086, Note_on_c, 10, 57, 0
4, 89086, Note_on_c, 10, 61, 0
4, 89086, Note_on_c, 10, 64, 0
4, 89280, Note_on_c, 10, 61, 110
4, 89280, Note_on_c, 10, 64, 110
4, 89280, Note_on_c, 10, 68, 110
4, 89374, Note_on_c, 10, 61, 0
4, 89374, Note_on_c, 10, 64, 0
4, 89374, Note_on_c, 10, 68, 0
4, 89376, Note_on_c, 10, 61, 110
4, 89376, Note_on_c, 10, 64, 110
4, 89376, Note_on_c, 10, 68, 110
4, 89470, Note_on_c, 10, 61, 0
4, 89470, Note_on_c, 10, 64, 0
4, 89470, Note_on_c, 10, 68, 0
4, 89568, Note_on_c, 10, 61, 110
4, 89568, Note_on_c, 10, 64, 110
4, 89568, Note_on_c, 10, 68, 110
4, 89662, Note_on_c, 10, 61, 0
4, 89662, Note_on_c, 10, 64, 0
4, 89662, Note_on_c, 10, 68, 0
4, 89664, Note_on_c, 10, 61, 110
4, 89664, Note_on_c, 10, 64, 110
4, 89664, Note_on_c, 10, 68, 110
4, 89758, Note_on_c, 10, 61, 0
4, 89758, Note_on_c, 10, 64, 0
4, 89758, Note_on_c, 10, 68, 0
4, 89760, Note_on_c, 10, 61, 110
4, 89760, Note_on_c, 10, 64, 110
4, 89760, Note_on_c, 10, 68, 110
4, 89854, Note_on_c, 10, 61, 0
4, 89854, Note_on_c, 10, 64, 0
4, 89854, Note_on_c, 10, 68, 0
4, 90048, Note_on_c, 10, 59, 110
4, 90048, Note_on_c, 10, 64, 110
4, 90048, Note_on_c, 10, 68, 110
4, 90142, Note_on_c, 10, 59, 0
4, 90142, Note_on_c, 10, 64, 0
4, 90142, Note_on_c, 10, 68, 0
4, 90144, Note_on_c, 10, 59, 110
4, 90144, Note_on_c, 10, 64, 110
4, 90144, Note_on_c, 10, 68, 110
4, 90238, Note_on_c, 10, 59, 0
4, 90238, Note_on_c, 10, 64, 0
4, 90238, Note_on_c, 10, 68, 0
4, 90336, Note_on_c, 10, 59, 110
4, 90336, Note_on_c, 10, 64, 110
4, 90336, Note_on_c, 10, 68, 110
4, 90430, Note_on_c, 10, 59, 0
4, 90430, Note_on_c, 10, 64, 0
4, 90430, Note_on_c, 10, 68, 0
4, 90432, Note_on_c, 10, 59, 110
4, 90432, Note_on_c, 10, 64, 110
4, 90432, Note_on_c, 10, 68, 110
4, 90526, Note_on_c, 10, 59, 0
4, 90526, Note_on_c, 10, 64, 0
4, 90526, Note_on_c, 10, 68, 0
4, 90528, Note_on_c, 10, 59, 110
4, 90528, Note_on_c, 10, 64, 110
4, 90528, Note_on_c, 10, 68, 110
4, 90622, Note_on_c, 10, 59, 0
4, 90622, Note_on_c, 10, 64, 0
4, 90622, Note_on_c, 10, 68, 0
4, 90816, Note_on_c, 10, 57, 110
4, 90816, Note_on_c, 10, 61, 110
4, 90816, Note_on_c, 10, 64, 110
4, 90910, Note_on_c, 10, 57, 0
4, 90910, Note_on_c, 10, 61, 0
4, 90910, Note_on_c, 10, 64, 0
4, 90912, Note_on_c, 10, 57, 110
4, 90912, Note_on_c, 10, 61, 110
4, 90912, Note_on_c, 10, 64, 110
4, 91006, Note_on_c, 10, 57, 0
4, 91006, Note_on_c, 10, 61, 0
4, 91006, Note_on_c, 10, 64, 0
4, 91104, Note_on_c, 10, 57, 110
4, 91104, Note_on_c, 10, 61, 110
4, 91104, Note_on_c, 10, 64, 110
4, 91198, Note_on_c, 10, 57, 0
4, 91198, Note_on_c, 10, 61, 0
4, 91198, Note_on_c, 10, 64, 0
4, 91200, Note_on_c, 10, 57, 110
4, 91200, Note_on_c, 10, 61, 110
4, 91200, Note_on_c, 10, 64, 110
4, 91294, Note_on_c, 10, 57, 0
4, 91294, Note_on_c, 10, 61, 0
4, 91294, Note_on_c, 10, 64, 0
4, 91296, Note_on_c, 10, 57, 110
4, 91296, Note_on_c, 10, 61, 110
4, 91296, Note_on_c, 10, 64, 110
4, 91390, Note_on_c, 10, 57, 0
4, 91390, Note_on_c, 10, 61, 0
4, 91390, Note_on_c, 10, 64, 0
4, 91584, Note_on_c, 10, 62, 110
4, 91584, Note_on_c, 10, 66, 110
4, 91584, Note_on_c, 10, 69, 110
4, 91678, Note_on_c, 10, 62, 0
4, 91678, Note_on_c, 10, 66, 0
4, 91678, Note_on_c, 10, 69, 0
4, 91680, Note_on_c, 10, 62, 110
4, 91680, Note_on_c, 10, 66, 110
4, 91680, Note_on_c, 10, 69, 110
4, 91774, Note_on_c, 10, 62, 0
4, 91774, Note_on_c, 10, 66, 0
4, 91774, Note_on_c, 10, 69, 0
4, 91872, Note_on_c, 10, 62, 110
4, 91872, Note_on_c, 10, 66, 110
4, 91872, Note_on_c, 10, 69, 110
4, 91966, Note_on_c, 10, 62, 0
4, 91966, Note_on_c, 10, 66, 0
4, 91966, Note_on_c, 10, 69, 0
4, 91968, Note_on_c, 10, 62, 110
4, 91968, Note_on_c, 10, 66, 110
4, 91968, Note_on_c, 10, 69, 110
4, 92062, Note_on_c, 10, 62, 0
4, 92062, Note_on_c, 10, 66, 0
4, 92062, Note_on_c, 10, 69, 0
4, 92064, Note_on_c, 10, 62, 110
4, 92064, Note_on_c, 10, 66, 110
4, 92064, Note_on_c, 10, 69, 110
4, 92158, Note_on_c, 10, 62, 0
4, 92158, Note_on_c, 10, 66, 0
4, 92158, Note_on_c, 10, 69, 0
4, 92256, Note_on_c, 10, 62, 110
4, 92256, Note_on_c, 10, 66, 110
4, 92256, Note_on_c, 10, 69, 110
4, 92350, Note_on_c, 10, 62, 0
4, 92350, Note_on_c, 10, 66, 0
4, 92350, Note_on_c, 10, 69, 0
4, 92352, Note_on_c, 10, 62, 110
4, 92352, Note_on_c, 10, 66, 110
4, 92352, Note_on_c, 10, 69, 110
4, 92446, Note_on_c, 10, 62, 0
4, 92446, Note_on_c, 10, 66, 0
4, 92446, Note_on_c, 10, 69, 0
4, 92448, Note_on_c, 10, 62, 110
4, 92448, Note_on_c, 10, 66, 110
4, 92448, Note_on_c, 10, 69, 110
4, 92542, Note_on_c, 10, 62, 0
4, 92542, Note_on_c, 10, 66, 0
4, 92542, Note_on_c, 10, 69, 0
4, 92640, Note_on_c, 10, 62, 110
4, 92640, Note_on_c, 10, 66, 110
4, 92640, Note_on_c, 10, 69, 110
4, 92734, Note_on_c, 10, 62, 0
4, 92734, Note_on_c, 10, 66, 0
4, 92734, Note_on_c, 10, 69, 0
4, 92736, Note_on_c, 10, 62, 110
4, 92736, Note_on_c, 10, 66, 110
4, 92736, Note_on_c, 10, 69, 110
4, 92830, Note_on_c, 10, 62, 0
4, 92830, Note_on_c, 10, 66, 0
4, 92830, Note_on_c, 10, 69, 0
4, 92832, Note_on_c, 10, 62, 110
4, 92832, Note_on_c, 10, 66, 110
4, 92832, Note_on_c, 10, 69, 110
4, 92926, Note_on_c, 10, 62, 0
4, 92926, Note_on_c, 10, 66, 0
4, 92926, Note_on_c, 10, 69, 0
4, 92928, Note_on_c, 10, 62, 110
4, 92928, Note_on_c, 10, 66, 110
4, 92928, Note_on_c, 10, 69, 110
4, 93022, Note_on_c, 10, 62, 0
4, 93022, Note_on_c, 10, 66, 0
4, 93022, Note_on_c, 10, 69, 0
4, 93120, Note_on_c, 10, 57, 110
4, 93120, Note_on_c, 10, 61, 110
4, 93120, Note_on_c, 10, 64, 110
4, 93214, Note_on_c, 10, 57, 0
4, 93214, Note_on_c, 10, 61, 0
4, 93214, Note_on_c, 10, 64, 0
4, 93216, Note_on_c, 10, 57, 110
4, 93216, Note_on_c, 10, 61, 110
4, 93216, Note_on_c, 10, 64, 110
4, 93310, Note_on_c, 10, 57, 0
4, 93310, Note_on_c, 10, 61, 0
4, 93310, Note_on_c, 10, 64, 0
4, 93408, Note_on_c, 10, 57, 110
4, 93408, Note_on_c, 10, 61, 110
4, 93408, Note_on_c, 10, 64, 110
4, 93502, Note_on_c, 10, 57, 0
4, 93502, Note_on_c, 10, 61, 0
4, 93502, Note_on_c, 10, 64, 0
4, 93504, Note_on_c, 10, 57, 110
4, 93504, Note_on_c, 10, 61, 110
4, 93504, Note_on_c, 10, 64, 110
4, 93598, Note_on_c, 10, 57, 0
4, 93598, Note_on_c, 10, 61, 0
4, 93598, Note_on_c, 10, 64, 0
4, 93600, Note_on_c, 10, 57, 110
4, 93600, Note_on_c, 10, 61, 110
4, 93600, Note_on_c, 10, 64, 110
4, 93694, Note_on_c, 10, 57, 0
4, 93694, Note_on_c, 10, 61, 0
4, 93694, Note_on_c, 10, 64, 0
4, 93792, Note_on_c, 10, 57, 110
4, 93792, Note_on_c, 10, 61, 110
4, 93792, Note_on_c, 10, 64, 110
4, 93886, Note_on_c, 10, 57, 0
4, 93886, Note_on_c, 10, 61, 0
4, 93886, Note_on_c, 10, 64, 0
4, 93888, Note_on_c, 10, 57, 110
4, 93888, Note_on_c, 10, 61, 110
4, 93888, Note_on_c, 10, 64, 110
4, 93982, Note_on_c, 10, 57, 0
4, 93982, Note_on_c, 10, 61, 0
4, 93982, Note_on_c, 10, 64, 0
4, 93984, Note_on_c, 10, 57, 110
4, 93984, Note_on_c, 10, 61, 110
4, 93984, Note_on_c, 10, 64, 110
4, 94078, Note_on_c, 10, 57, 0
4, 94078, Note_on_c, 10, 61, 0
4, 94078, Note_on_c, 10, 64, 0
4, 94176, Note_on_c, 10, 57, 110
4, 94176, Note_on_c, 10, 61, 110
4, 94176, Note_on_c, 10, 64, 110
4, 94270, Note_on_c, 10, 57, 0
4, 94270, Note_on_c, 10, 61, 0
4, 94270, Note_on_c, 10, 64, 0
4, 94272, Note_on_c, 10, 57, 110
4, 94272, Note_on_c, 10, 61, 110
4, 94272, Note_on_c, 10, 64, 110
4, 94366, Note_on_c, 10, 57, 0
4, 94366, Note_on_c, 10, 61, 0
4, 94366, Note_on_c, 10, 64, 0
4, 94464, Note_on_c, 10, 58, 110
4, 94464, Note_on_c, 10, 62, 110
4, 94464, Note_on_c, 10, 65, 110
4, 94558, Note_on_c, 10, 58, 0
4, 94558, Note_on_c, 10, 62, 0
4, 94558, Note_on_c, 10, 65, 0
4, 94656, Note_on_c, 10, 59, 110
4, 94656, Note_on_c, 10, 63, 110
4, 94656, Note_on_c, 10, 66, 110
4, 94750, Note_on_c, 10, 59, 0
4, 94750, Note_on_c, 10, 63, 0
4, 94750, Note_on_c, 10, 66, 0
4, 94752, Note_on_c, 10, 59, 110
4, 94752, Note_on_c, 10, 63, 110
4, 94752, Note_on_c, 10, 66, 110
4, 94846, Note_on_c, 10, 59, 0
4, 94846, Note_on_c, 10, 63, 0
4, 94846, Note_on_c, 10, 66, 0
4, 94944, Note_on_c, 10, 59, 110
4, 94944, Note_on_c, 10, 63, 110
4, 94944, Note_on_c, 10, 66, 110
4, 95038, Note_on_c, 10, 59, 0
4, 95038, Note_on_c, 10, 63, 0
4, 95038, Note_on_c, 10, 66, 0
4, 95040, Note_on_c, 10, 59, 110
4, 95040, Note_on_c, 10, 63, 110
4, 95040, Note_on_c, 10, 66, 110
4, 95134, Note_on_c, 10, 59, 0
4, 95134, Note_on_c, 10, 63, 0
4, 95134, Note_on_c, 10, 66, 0
4, 95136, Note_on_c, 10, 59, 110
4, 95136, Note_on_c, 10, 63, 110
4, 95136, Note_on_c, 10, 66, 110
4, 95230, Note_on_c, 10, 59, 0
4, 95230, Note_on_c, 10, 63, 0
4, 95230, Note_on_c, 10, 66, 0
4, 95328, Note_on_c, 10, 59, 110
4, 95328, Note_on_c, 10, 63, 110
4, 95328, Note_on_c, 10, 66, 110
4, 95422, Note_on_c, 10, 59, 0
4, 95422, Note_on_c, 10, 63, 0
4, 95422, Note_on_c, 10, 66, 0
4, 95424, Note_on_c, 10, 59, 110
4, 95424, Note_on_c, 10, 63, 110
4, 95424, Note_on_c, 10, 66, 110
4, 95518, Note_on_c, 10, 59, 0
4, 95518, Note_on_c, 10, 63, 0
4, 95518, Note_on_c, 10, 66, 0
4, 95520, Note_on_c, 10, 59, 110
4, 95520, Note_on_c, 10, 63, 110
4, 95520, Note_on_c, 10, 66, 110
4, 95614, Note_on_c, 10, 59, 0
4, 95614, Note_on_c, 10, 63, 0
4, 95614, Note_on_c, 10, 66, 0
4, 95712, Note_on_c, 10, 59, 110
4, 95712, Note_on_c, 10, 63, 110
4, 95712, Note_on_c, 10, 66, 110
4, 95806, Note_on_c, 10, 59, 0
4, 95806, Note_on_c, 10, 63, 0
4, 95806, Note_on_c, 10, 66, 0
4, 95808, Note_on_c, 10, 59, 110
4, 95808, Note_on_c, 10, 63, 110
4, 95808, Note_on_c, 10, 66, 110
4, 95902, Note_on_c, 10, 59, 0
4, 95902, Note_on_c, 10, 63, 0
4, 95902, Note_on_c, 10, 66, 0
4, 95904, Note_on_c, 10, 59, 110
4, 95904, Note_on_c, 10, 63, 110
4, 95904, Note_on_c, 10, 66, 110
4, 95998, Note_on_c, 10, 59, 0
4, 95998, Note_on_c, 10, 63, 0
4, 95998, Note_on_c, 10, 66, 0
4, 96000, Note_on_c, 10, 59, 110
4, 96000, Note_on_c, 10, 63, 110
4, 96000, Note_on_c, 10, 66, 110
4, 96094, Note_on_c, 10, 59, 0
4, 96094, Note_on_c, 10, 63, 0
4, 96094, Note_on_c, 10, 66, 0
4, 96192, Note_on_c, 10, 62, 110
4, 96192, Note_on_c, 10, 66, 110
4, 96192, Note_on_c, 10, 69, 110
4, 96286, Note_on_c, 10, 62, 0
4, 96286, Note_on_c, 10, 66, 0
4, 96286, Note_on_c, 10, 69, 0
4, 96288, Note_on_c, 10, 62, 110
4, 96288, Note_on_c, 10, 66, 110
4, 96288, Note_on_c, 10, 69, 110
4, 96382, Note_on_c, 10, 62, 0
4, 96382, Note_on_c, 10, 66, 0
4, 96382, Note_on_c, 10, 69, 0
4, 96480, Note_on_c, 10, 62, 110
4, 96480, Note_on_c, 10, 66, 110
4, 96480, Note_on_c, 10, 69, 110
4, 96574, Note_on_c, 10, 62, 0
4, 96574, Note_on_c, 10, 66, 0
4, 96574, Note_on_c, 10, 69, 0
4, 96576, Note_on_c, 10, 62, 110
4, 96576, Note_on_c, 10, 66, 110
4, 96576, Note_on_c, 10, 69, 110
4, 96670, Note_on_c, 10, 62, 0
4, 96670, Note_on_c, 10, 66, 0
4, 96670, Note_on_c, 10, 69, 0
4, 96672, Note_on_c, 10, 62, 110
4, 96672, Note_on_c, 10, 66, 110
4, 96672, Note_on_c, 10, 69, 110
4, 96766, Note_on_c, 10, 62, 0
4, 96766, Note_on_c, 10, 66, 0
4, 96766, Note_on_c, 10, 69, 0
4, 96864, Note_on_c, 10, 62, 110
4, 96864, Note_on_c, 10, 66, 110
4, 96864, Note_on_c, 10, 69, 110
4, 96958, Note_on_c, 10, 62, 0
4, 96958, Note_on_c, 10, 66, 0
4, 96958, Note_on_c, 10, 69, 0
4, 96960, Note_on_c, 10, 62, 110
4, 96960, Note_on_c, 10, 66, 110
4, 96960, Note_on_c, 10, 69, 110
4, 97054, Note_on_c, 10, 62, 0
4, 97054, Note_on_c, 10, 66, 0
4, 97054, Note_on_c, 10, 69, 0
4, 97056, Note_on_c, 10, 62, 110
4, 97056, Note_on_c, 10, 66, 110
4, 97056, Note_on_c, 10, 69, 110
4, 97150, Note_on_c, 10, 62, 0
4, 97150, Note_on_c, 10, 66, 0
4, 97150, Note_on_c, 10, 69, 0
4, 97248, Note_on_c, 10, 62, 110
4, 97248, Note_on_c, 10, 66, 110
4, 97248, Note_on_c, 10, 69, 110
4, 97342, Note_on_c, 10, 62, 0
4, 97342, Note_on_c, 10, 66, 0
4, 97342, Note_on_c, 10, 69, 0
4, 97344, Note_on_c, 10, 62, 110
4, 97344, Note_on_c, 10, 66, 110
4, 97344, Note_on_c, 10, 69, 110
4, 97438, Note_on_c, 10, 62, 0
4, 97438, Note_on_c, 10, 66, 0
4, 97438, Note_on_c, 10, 69, 0
4, 97440, Note_on_c, 10, 62, 110
4, 97440, Note_on_c, 10, 66, 110
4, 97440, Note_on_c, 10, 69, 110
4, 97534, Note_on_c, 10, 62, 0
4, 97534, Note_on_c, 10, 66, 0
4, 97534, Note_on_c, 10, 69, 0
4, 97536, Note_on_c, 10, 62, 110
4, 97536, Note_on_c, 10, 66, 110
4, 97536, Note_on_c, 10, 69, 110
4, 97630, Note_on_c, 10, 62, 0
4, 97630, Note_on_c, 10, 66, 0
4, 97630, Note_on_c, 10, 69, 0
4, 97728, Note_on_c, 10, 57, 110
4, 97728, Note_on_c, 10, 61, 110
4, 97728, Note_on_c, 10, 64, 110
4, 97822, Note_on_c, 10, 57, 0
4, 97822, Note_on_c, 10, 61, 0
4, 97822, Note_on_c, 10, 64, 0
4, 97824, Note_on_c, 10, 57, 110
4, 97824, Note_on_c, 10, 61, 110
4, 97824, Note_on_c, 10, 64, 110
4, 97918, Note_on_c, 10, 57, 0
4, 97918, Note_on_c, 10, 61, 0
4, 97918, Note_on_c, 10, 64, 0
4, 98016, Note_on_c, 10, 57, 110
4, 98016, Note_on_c, 10, 61, 110
4, 98016, Note_on_c, 10, 64, 110
4, 98110, Note_on_c, 10, 57, 0
4, 98110, Note_on_c, 10, 61, 0
4, 98110, Note_on_c, 10, 64, 0
4, 98112, Note_on_c, 10, 57, 110
4, 98112, Note_on_c, 10, 61, 110
4, 98112, Note_on_c, 10, 64, 110
4, 98206, Note_on_c, 10, 57, 0
4, 98206, Note_on_c, 10, 61, 0
4, 98206, Note_on_c, 10, 64, 0
4, 98208, Note_on_c, 10, 57, 110
4, 98208, Note_on_c, 10, 61, 110
4, 98208, Note_on_c, 10, 64, 110
4, 98302, Note_on_c, 10, 57, 0
4, 98302, Note_on_c, 10, 61, 0
4, 98302, Note_on_c, 10, 64, 0
4, 98400, Note_on_c, 10, 57, 110
4, 98400, Note_on_c, 10, 61, 110
4, 98400, Note_on_c, 10, 64, 110
4, 98494, Note_on_c, 10, 57, 0
4, 98494, Note_on_c, 10, 61, 0
4, 98494, Note_on_c, 10, 64, 0
4, 98496, Note_on_c, 10, 57, 110
4, 98496, Note_on_c, 10, 61, 110
4, 98496, Note_on_c, 10, 64, 110
4, 98590, Note_on_c, 10, 57, 0
4, 98590, Note_on_c, 10, 61, 0
4, 98590, Note_on_c, 10, 64, 0
4, 98592, Note_on_c, 10, 57, 110
4, 98592, Note_on_c, 10, 61, 110
4, 98592, Note_on_c, 10, 64, 110
4, 98686, Note_on_c, 10, 57, 0
4, 98686, Note_on_c, 10, 61, 0
4, 98686, Note_on_c, 10, 64, 0
4, 98784, Note_on_c, 10, 57, 110
4, 98784, Note_on_c, 10, 61, 110
4, 98784, Note_on_c, 10, 64, 110
4, 98878, Note_on_c, 10, 57, 0
4, 98878, Note_on_c, 10, 61, 0
4, 98878, Note_on_c, 10, 64, 0
4, 98880, Note_on_c, 10, 57, 110
4, 98880, Note_on_c, 10, 61, 110
4, 98880, Note_on_c, 10, 64, 110
4, 98974, Note_on_c, 10, 57, 0
4, 98974, Note_on_c, 10, 61, 0
4, 98974, Note_on_c, 10, 64, 0
4, 99072, Note_on_c, 10, 58, 110
4, 99072, Note_on_c, 10, 62, 110
4, 99072, Note_on_c, 10, 65, 110
4, 99166, Note_on_c, 10, 58, 0
4, 99166, Note_on_c, 10, 62, 0
4, 99166, Note_on_c, 10, 65, 0
4, 99264, Note_on_c, 10, 59, 110
4, 99264, Note_on_c, 10, 63, 110
4, 99264, Note_on_c, 10, 66, 110
4, 99358, Note_on_c, 10, 59, 0
4, 99358, Note_on_c, 10, 63, 0
4, 99358, Note_on_c, 10, 66, 0
4, 99360, Note_on_c, 10, 59, 110
4, 99360, Note_on_c, 10, 63, 110
4, 99360, Note_on_c, 10, 66, 110
4, 99454, Note_on_c, 10, 59, 0
4, 99454, Note_on_c, 10, 63, 0
4, 99454, Note_on_c, 10, 66, 0
4, 99552, Note_on_c, 10, 59, 110
4, 99552, Note_on_c, 10, 63, 110
4, 99552, Note_on_c, 10, 66, 110
4, 99646, Note_on_c, 10, 59, 0
4, 99646, Note_on_c, 10, 63, 0
4, 99646, Note_on_c, 10, 66, 0
4, 99648, Note_on_c, 10, 59, 110
4, 99648, Note_on_c, 10, 63, 110
4, 99648, Note_on_c, 10, 66, 110
4, 99742, Note_on_c, 10, 59, 0
4, 99742, Note_on_c, 10, 63, 0
4, 99742, Note_on_c, 10, 66, 0
4, 99744, Note_on_c, 10, 59, 110
4, 99744, Note_on_c, 10, 63, 110
4, 99744, Note_on_c, 10, 66, 110
4, 99838, Note_on_c, 10, 59, 0
4, 99838, Note_on_c, 10, 63, 0
4, 99838, Note_on_c, 10, 66, 0
4, 99936, Note_on_c, 10, 59, 110
4, 99936, Note_on_c, 10, 63, 110
4, 99936, Note_on_c, 10, 66, 110
4, 100030, Note_on_c, 10, 59, 0
4, 100030, Note_on_c, 10, 63, 0
4, 100030, Note_on_c, 10, 66, 0
4, 100032, Note_on_c, 10, 59, 110
4, 100032, Note_on_c, 10, 63, 110
4, 100032, Note_on_c, 10, 66, 110
4, 100126, Note_on_c, 10, 59, 0
4, 100126, Note_on_c, 10, 63, 0
4, 100126, Note_on_c, 10, 66, 0
4, 100128, Note_on_c, 10, 59, 110
4, 100128, Note_on_c, 10, 63, 110
4, 100128, Note_on_c, 10, 66, 110
4, 100222, Note_on_c, 10, 59, 0
4, 100222, Note_on_c, 10, 63, 0
4, 100222, Note_on_c, 10, 66, 0
4, 100320, Note_on_c, 10, 59, 110
4, 100320, Note_on_c, 10, 63, 110
4, 100320, Note_on_c, 10, 66, 110
4, 100414, Note_on_c, 10, 59, 0
4, 100414, Note_on_c, 10, 63, 0
4, 100414, Note_on_c, 10, 66, 0
4, 100416, Note_on_c, 10, 59, 110
4, 100416, Note_on_c, 10, 63, 110
4, 100416, Note_on_c, 10, 66, 110
4, 100510, Note_on_c, 10, 59, 0
4, 100510, Note_on_c, 10, 63, 0
4, 100510, Note_on_c, 10, 66, 0
4, 100512, Note_on_c, 10, 59, 110
4, 100512, Note_on_c, 10, 63, 110
4, 100512, Note_on_c, 10, 66, 110
4, 100606, Note_on_c, 10, 59, 0
4, 100606, Note_on_c, 10, 63, 0
4, 100606, Note_on_c, 10, 66, 0
4, 100608, Note_on_c, 10, 59, 110
4, 100608, Note_on_c, 10, 63, 110
4, 100608, Note_on_c, 10, 66, 110
4, 100702, Note_on_c, 10, 59, 0
4, 100702, Note_on_c, 10, 63, 0
4, 100702, Note_on_c, 10, 66, 0
4, 100800, Note_on_c, 10, 62, 110
4, 100800, Note_on_c, 10, 66, 110
4, 100800, Note_on_c, 10, 69, 110
4, 100894, Note_on_c, 10, 62, 0
4, 100894, Note_on_c, 10, 66, 0
4, 100894, Note_on_c, 10, 69, 0
4, 100896, Note_on_c, 10, 62, 110
4, 100896, Note_on_c, 10, 66, 110
4, 100896, Note_on_c, 10, 69, 110
4, 100990, Note_on_c, 10, 62, 0
4, 100990, Note_on_c, 10, 66, 0
4, 100990, Note_on_c, 10, 69, 0
4, 101088, Note_on_c, 10, 62, 110
4, 101088, Note_on_c, 10, 66, 110
4, 101088, Note_on_c, 10, 69, 110
4, 101182, Note_on_c, 10, 62, 0
4, 101182, Note_on_c, 10, 66, 0
4, 101182, Note_on_c, 10, 69, 0
4, 101184, Note_on_c, 10, 62, 110
4, 101184, Note_on_c, 10, 66, 110
4, 101184, Note_on_c, 10, 69, 110
4, 101278, Note_on_c, 10, 62, 0
4, 101278, Note_on_c, 10, 66, 0
4, 101278, Note_on_c, 10, 69, 0
4, 101280, Note_on_c, 10, 62, 110
4, 101280, Note_on_c, 10, 66, 110
4, 101280, Note_on_c, 10, 69, 110
4, 101374, Note_on_c, 10, 62, 0
4, 101374, Note_on_c, 10, 66, 0
4, 101374, Note_on_c, 10, 69, 0
4, 101472, Note_on_c, 10, 62, 110
4, 101472, Note_on_c, 10, 66, 110
4, 101472, Note_on_c, 10, 69, 110
4, 101566, Note_on_c, 10, 62, 0
4, 101566, Note_on_c, 10, 66, 0
4, 101566, Note_on_c, 10, 69, 0
4, 101568, Note_on_c, 10, 62, 110
4, 101568, Note_on_c, 10, 66, 110
4, 101568, Note_on_c, 10, 69, 110
4, 101662, Note_on_c, 10, 62, 0
4, 101662, Note_on_c, 10, 66, 0
4, 101662, Note_on_c, 10, 69, 0
4, 101664, Note_on_c, 10, 62, 110
4, 101664, Note_on_c, 10, 66, 110
4, 101664, Note_on_c, 10, 69, 110
4, 101758, Note_on_c, 10, 62, 0
4, 101758, Note_on_c, 10, 66, 0
4, 101758, Note_on_c, 10, 69, 0
4, 101856, Note_on_c, 10, 62, 110
4, 101856, Note_on_c, 10, 66, 110
4, 101856, Note_on_c, 10, 69, 110
4, 101950, Note_on_c, 10, 62, 0
4, 101950, Note_on_c, 10, 66, 0
4, 101950, Note_on_c, 10, 69, 0
4, 101952, Note_on_c, 10, 62, 110
4, 101952, Note_on_c, 10, 66, 110
4, 101952, Note_on_c, 10, 69, 110
4, 102046, Note_on_c, 10, 62, 0
4, 102046, Note_on_c, 10, 66, 0
4, 102046, Note_on_c, 10, 69, 0
4, 102048, Note_on_c, 10, 62, 110
4, 102048, Note_on_c, 10, 66, 110
4, 102048, Note_on_c, 10, 69, 110
4, 102142, Note_on_c, 10, 62, 0
4, 102142, Note_on_c, 10, 66, 0
4, 102142, Note_on_c, 10, 69, 0
4, 102144, Note_on_c, 10, 62, 110
4, 102144, Note_on_c, 10, 66, 110
4, 102144, Note_on_c, 10, 69, 110
4, 102238, Note_on_c, 10, 62, 0
4, 102238, Note_on_c, 10, 66, 0
4, 102238, Note_on_c, 10, 69, 0
4, 102336, Note_on_c, 10, 57, 110
4, 102336, Note_on_c, 10, 61, 110
4, 102336, Note_on_c, 10, 64, 110
4, 102430, Note_on_c, 10, 57, 0
4, 102430, Note_on_c, 10, 61, 0
4, 102430, Note_on_c, 10, 64, 0
4, 102432, Note_on_c, 10, 57, 110
4, 102432, Note_on_c, 10, 61, 110
4, 102432, Note_on_c, 10, 64, 110
4, 102526, Note_on_c, 10, 57, 0
4, 102526, Note_on_c, 10, 61, 0
4, 102526, Note_on_c, 10, 64, 0
4, 102624, Note_on_c, 10, 57, 110
4, 102624, Note_on_c, 10, 61, 110
4, 102624, Note_on_c, 10, 64, 110
4, 102718, Note_on_c, 10, 57, 0
4, 102718, Note_on_c, 10, 61, 0
4, 102718, Note_on_c, 10, 64, 0
4, 102720, Note_on_c, 10, 57, 110
4, 102720, Note_on_c, 10, 61, 110
4, 102720, Note_on_c, 10, 64, 110
4, 102814, Note_on_c, 10, 57, 0
4, 102814, Note_on_c, 10, 61, 0
4, 102814, Note_on_c, 10, 64, 0
4, 102816, Note_on_c, 10, 57, 110
4, 102816, Note_on_c, 10, 61, 110
4, 102816, Note_on_c, 10, 64, 110
4, 102910, Note_on_c, 10, 57, 0
4, 102910, Note_on_c, 10, 61, 0
4, 102910, Note_on_c, 10, 64, 0
4, 103008, Note_on_c, 10, 57, 110
4, 103008, Note_on_c, 10, 61, 110
4, 103008, Note_on_c, 10, 64, 110
4, 103102, Note_on_c, 10, 57, 0
4, 103102, Note_on_c, 10, 61, 0
4, 103102, Note_on_c, 10, 64, 0
4, 103104, Note_on_c, 10, 57, 110
4, 103104, Note_on_c, 10, 61, 110
4, 103104, Note_on_c, 10, 64, 110
4, 103198, Note_on_c, 10, 57, 0
4, 103198, Note_on_c, 10, 61, 0
4, 103198, Note_on_c, 10, 64, 0
4, 103200, Note_on_c, 10, 57, 110
4, 103200, Note_on_c, 10, 61, 110
4, 103200, Note_on_c, 10, 64, 110
4, 103294, Note_on_c, 10, 61, 0
4, 103294, Note_on_c, 10, 57, 0
4, 103294, Note_on_c, 10, 64, 0
4, 103392, Note_on_c, 10, 57, 110
4, 103392, Note_on_c, 10, 61, 110
4, 103392, Note_on_c, 10, 64, 110
4, 103486, Note_on_c, 10, 57, 0
4, 103486, Note_on_c, 10, 61, 0
4, 103486, Note_on_c, 10, 64, 0
4, 103488, Note_on_c, 10, 57, 110
4, 103488, Note_on_c, 10, 61, 110
4, 103488, Note_on_c, 10, 64, 110
4, 103582, Note_on_c, 10, 57, 0
4, 103582, Note_on_c, 10, 61, 0
4, 103582, Note_on_c, 10, 64, 0
4, 103680, Note_on_c, 10, 58, 110
4, 103680, Note_on_c, 10, 62, 110
4, 103680, Note_on_c, 10, 65, 110
4, 103774, Note_on_c, 10, 58, 0
4, 103774, Note_on_c, 10, 62, 0
4, 103774, Note_on_c, 10, 65, 0
4, 103872, Note_on_c, 10, 59, 110
4, 103872, Note_on_c, 10, 63, 110
4, 103872, Note_on_c, 10, 66, 110
4, 103966, Note_on_c, 10, 59, 0
4, 103966, Note_on_c, 10, 63, 0
4, 103966, Note_on_c, 10, 66, 0
4, 103968, Note_on_c, 10, 59, 110
4, 103968, Note_on_c, 10, 63, 110
4, 103968, Note_on_c, 10, 66, 110
4, 104062, Note_on_c, 10, 59, 0
4, 104062, Note_on_c, 10, 63, 0
4, 104062, Note_on_c, 10, 66, 0
4, 104160, Note_on_c, 10, 59, 110
4, 104160, Note_on_c, 10, 63, 110
4, 104160, Note_on_c, 10, 66, 110
4, 104254, Note_on_c, 10, 59, 0
4, 104254, Note_on_c, 10, 63, 0
4, 104254, Note_on_c, 10, 66, 0
4, 104256, Note_on_c, 10, 59, 110
4, 104256, Note_on_c, 10, 63, 110
4, 104256, Note_on_c, 10, 66, 110
4, 104350, Note_on_c, 10, 59, 0
4, 104350, Note_on_c, 10, 63, 0
4, 104350, Note_on_c, 10, 66, 0
4, 104352, Note_on_c, 10, 59, 110
4, 104352, Note_on_c, 10, 63, 110
4, 104352, Note_on_c, 10, 66, 110
4, 104446, Note_on_c, 10, 59, 0
4, 104446, Note_on_c, 10, 63, 0
4, 104446, Note_on_c, 10, 66, 0
4, 104544, Note_on_c, 10, 59, 110
4, 104544, Note_on_c, 10, 63, 110
4, 104544, Note_on_c, 10, 66, 110
4, 104638, Note_on_c, 10, 59, 0
4, 104638, Note_on_c, 10, 63, 0
4, 104638, Note_on_c, 10, 66, 0
4, 104640, Note_on_c, 10, 59, 110
4, 104640, Note_on_c, 10, 63, 110
4, 104640, Note_on_c, 10, 66, 110
4, 104734, Note_on_c, 10, 59, 0
4, 104734, Note_on_c, 10, 63, 0
4, 104734, Note_on_c, 10, 66, 0
4, 104736, Note_on_c, 10, 59, 110
4, 104736, Note_on_c, 10, 63, 110
4, 104736, Note_on_c, 10, 66, 110
4, 104830, Note_on_c, 10, 59, 0
4, 104830, Note_on_c, 10, 63, 0
4, 104830, Note_on_c, 10, 66, 0
4, 104928, Note_on_c, 10, 59, 110
4, 104928, Note_on_c, 10, 63, 110
4, 104928, Note_on_c, 10, 66, 110
4, 105022, Note_on_c, 10, 59, 0
4, 105022, Note_on_c, 10, 63, 0
4, 105022, Note_on_c, 10, 66, 0
4, 105024, Note_on_c, 10, 59, 110
4, 105024, Note_on_c, 10, 63, 110
4, 105024, Note_on_c, 10, 66, 110
4, 105118, Note_on_c, 10, 59, 0
4, 105118, Note_on_c, 10, 63, 0
4, 105118, Note_on_c, 10, 66, 0
4, 105120, Note_on_c, 10, 59, 110
4, 105120, Note_on_c, 10, 63, 110
4, 105120, Note_on_c, 10, 66, 110
4, 105214, Note_on_c, 10, 59, 0
4, 105214, Note_on_c, 10, 63, 0
4, 105214, Note_on_c, 10, 66, 0
4, 105216, Note_on_c, 10, 59, 110
4, 105216, Note_on_c, 10, 63, 110
4, 105216, Note_on_c, 10, 66, 110
4, 105310, Note_on_c, 10, 59, 0
4, 105310, Note_on_c, 10, 63, 0
4, 105310, Note_on_c, 10, 66, 0
4, 105408, Note_on_c, 10, 62, 110
4, 105408, Note_on_c, 10, 66, 110
4, 105408, Note_on_c, 10, 69, 110
4, 105502, Note_on_c, 10, 62, 0
4, 105502, Note_on_c, 10, 66, 0
4, 105502, Note_on_c, 10, 69, 0
4, 105504, Note_on_c, 10, 62, 110
4, 105504, Note_on_c, 10, 66, 110
4, 105504, Note_on_c, 10, 69, 110
4, 105598, Note_on_c, 10, 62, 0
4, 105598, Note_on_c, 10, 66, 0
4, 105598, Note_on_c, 10, 69, 0
4, 105696, Note_on_c, 10, 62, 110
4, 105696, Note_on_c, 10, 66, 110
4, 105696, Note_on_c, 10, 69, 110
4, 105790, Note_on_c, 10, 62, 0
4, 105790, Note_on_c, 10, 66, 0
4, 105790, Note_on_c, 10, 69, 0
4, 105792, Note_on_c, 10, 62, 110
4, 105792, Note_on_c, 10, 66, 110
4, 105792, Note_on_c, 10, 69, 110
4, 105886, Note_on_c, 10, 62, 0
4, 105886, Note_on_c, 10, 66, 0
4, 105886, Note_on_c, 10, 69, 0
4, 105888, Note_on_c, 10, 62, 110
4, 105888, Note_on_c, 10, 66, 110
4, 105888, Note_on_c, 10, 69, 110
4, 105982, Note_on_c, 10, 62, 0
4, 105982, Note_on_c, 10, 66, 0
4, 105982, Note_on_c, 10, 69, 0
4, 106080, Note_on_c, 10, 62, 110
4, 106080, Note_on_c, 10, 66, 110
4, 106080, Note_on_c, 10, 69, 110
4, 106174, Note_on_c, 10, 62, 0
4, 106174, Note_on_c, 10, 66, 0
4, 106174, Note_on_c, 10, 69, 0
4, 106176, Note_on_c, 10, 62, 110
4, 106176, Note_on_c, 10, 66, 110
4, 106176, Note_on_c, 10, 69, 110
4, 106270, Note_on_c, 10, 62, 0
4, 106270, Note_on_c, 10, 66, 0
4, 106270, Note_on_c, 10, 69, 0
4, 106272, Note_on_c, 10, 62, 110
4, 106272, Note_on_c, 10, 66, 110
4, 106272, Note_on_c, 10, 69, 110
4, 106366, Note_on_c, 10, 62, 0
4, 106366, Note_on_c, 10, 66, 0
4, 106366, Note_on_c, 10, 69, 0
4, 106464, Note_on_c, 10, 62, 110
4, 106464, Note_on_c, 10, 66, 110
4, 106464, Note_on_c, 10, 69, 110
4, 106558, Note_on_c, 10, 62, 0
4, 106558, Note_on_c, 10, 66, 0
4, 106558, Note_on_c, 10, 69, 0
4, 106560, Note_on_c, 10, 62, 110
4, 106560, Note_on_c, 10, 66, 110
4, 106560, Note_on_c, 10, 69, 110
4, 106654, Note_on_c, 10, 62, 0
4, 106654, Note_on_c, 10, 66, 0
4, 106654, Note_on_c, 10, 69, 0
4, 106656, Note_on_c, 10, 62, 110
4, 106656, Note_on_c, 10, 66, 110
4, 106656, Note_on_c, 10, 69, 110
4, 106750, Note_on_c, 10, 62, 0
4, 106750, Note_on_c, 10, 66, 0
4, 106750, Note_on_c, 10, 69, 0
4, 106752, Note_on_c, 10, 62, 110
4, 106752, Note_on_c, 10, 66, 110
4, 106752, Note_on_c, 10, 69, 110
4, 106846, Note_on_c, 10, 62, 0
4, 106846, Note_on_c, 10, 66, 0
4, 106846, Note_on_c, 10, 69, 0
4, 106944, Note_on_c, 10, 57, 110
4, 106944, Note_on_c, 10, 61, 110
4, 106944, Note_on_c, 10, 64, 110
4, 107038, Note_on_c, 10, 57, 0
4, 107038, Note_on_c, 10, 61, 0
4, 107038, Note_on_c, 10, 64, 0
4, 107040, Note_on_c, 10, 57, 110
4, 107040, Note_on_c, 10, 61, 110
4, 107040, Note_on_c, 10, 64, 110
4, 107134, Note_on_c, 10, 57, 0
4, 107134, Note_on_c, 10, 61, 0
4, 107134, Note_on_c, 10, 64, 0
4, 107232, Note_on_c, 10, 57, 110
4, 107232, Note_on_c, 10, 61, 110
4, 107232, Note_on_c, 10, 64, 110
4, 107326, Note_on_c, 10, 57, 0
4, 107326, Note_on_c, 10, 61, 0
4, 107326, Note_on_c, 10, 64, 0
4, 107328, Note_on_c, 10, 57, 110
4, 107328, Note_on_c, 10, 61, 110
4, 107328, Note_on_c, 10, 64, 110
4, 107422, Note_on_c, 10, 57, 0
4, 107422, Note_on_c, 10, 61, 0
4, 107422, Note_on_c, 10, 64, 0
4, 107424, Note_on_c, 10, 57, 110
4, 107424, Note_on_c, 10, 61, 110
4, 107424, Note_on_c, 10, 64, 110
4, 107518, Note_on_c, 10, 57, 0
4, 107518, Note_on_c, 10, 61, 0
4, 107518, Note_on_c, 10, 64, 0
4, 107616, Note_on_c, 10, 57, 110
4, 107616, Note_on_c, 10, 61, 110
4, 107616, Note_on_c, 10, 64, 110
4, 107710, Note_on_c, 10, 57, 0
4, 107710, Note_on_c, 10, 61, 0
4, 107710, Note_on_c, 10, 64, 0
4, 107712, Note_on_c, 10, 57, 110
4, 107712, Note_on_c, 10, 61, 110
4, 107712, Note_on_c, 10, 64, 110
4, 107806, Note_on_c, 10, 57, 0
4, 107806, Note_on_c, 10, 61, 0
4, 107806, Note_on_c, 10, 64, 0
4, 107808, Note_on_c, 10, 57, 110
4, 107808, Note_on_c, 10, 61, 110
4, 107808, Note_on_c, 10, 64, 110
4, 107902, Note_on_c, 10, 57, 0
4, 107902, Note_on_c, 10, 61, 0
4, 107902, Note_on_c, 10, 64, 0
4, 108000, Note_on_c, 10, 57, 110
4, 108000, Note_on_c, 10, 61, 110
4, 108000, Note_on_c, 10, 64, 110
4, 108094, Note_on_c, 10, 57, 0
4, 108094, Note_on_c, 10, 61, 0
4, 108094, Note_on_c, 10, 64, 0
4, 108096, Note_on_c, 10, 57, 110
4, 108096, Note_on_c, 10, 61, 110
4, 108096, Note_on_c, 10, 64, 110
4, 108190, Note_on_c, 10, 57, 0
4, 108190, Note_on_c, 10, 61, 0
4, 108190, Note_on_c, 10, 64, 0
4, 108288, Note_on_c, 10, 58, 110
4, 108288, Note_on_c, 10, 62, 110
4, 108288, Note_on_c, 10, 65, 110
4, 108382, Note_on_c, 10, 58, 0
4, 108382, Note_on_c, 10, 62, 0
4, 108382, Note_on_c, 10, 65, 0
4, 108480, Note_on_c, 10, 59, 110
4, 108480, Note_on_c, 10, 63, 110
4, 108480, Note_on_c, 10, 66, 110
4, 108574, Note_on_c, 10, 59, 0
4, 108574, Note_on_c, 10, 63, 0
4, 108574, Note_on_c, 10, 66, 0
4, 108576, Note_on_c, 10, 59, 110
4, 108576, Note_on_c, 10, 63, 110
4, 108576, Note_on_c, 10, 66, 110
4, 108670, Note_on_c, 10, 59, 0
4, 108670, Note_on_c, 10, 63, 0
4, 108670, Note_on_c, 10, 66, 0
4, 108768, Note_on_c, 10, 59, 110
4, 108768, Note_on_c, 10, 63, 110
4, 108768, Note_on_c, 10, 66, 110
4, 108862, Note_on_c, 10, 59, 0
4, 108862, Note_on_c, 10, 63, 0
4, 108862, Note_on_c, 10, 66, 0
4, 108864, Note_on_c, 10, 59, 110
4, 108864, Note_on_c, 10, 63, 110
4, 108864, Note_on_c, 10, 66, 110
4, 108958, Note_on_c, 10, 59, 0
4, 108958, Note_on_c, 10, 63, 0
4, 108958, Note_on_c, 10, 66, 0
4, 108960, Note_on_c, 10, 59, 110
4, 108960, Note_on_c, 10, 63, 110
4, 108960, Note_on_c, 10, 66, 110
4, 109054, Note_on_c, 10, 59, 0
4, 109054, Note_on_c, 10, 63, 0
4, 109054, Note_on_c, 10, 66, 0
4, 109152, Note_on_c, 10, 59, 110
4, 109152, Note_on_c, 10, 63, 110
4, 109152, Note_on_c, 10, 66, 110
4, 109246, Note_on_c, 10, 59, 0
4, 109246, Note_on_c, 10, 63, 0
4, 109246, Note_on_c, 10, 66, 0
4, 109248, Note_on_c, 10, 59, 110
4, 109248, Note_on_c, 10, 63, 110
4, 109248, Note_on_c, 10, 66, 110
4, 109342, Note_on_c, 10, 59, 0
4, 109342, Note_on_c, 10, 63, 0
4, 109342, Note_on_c, 10, 66, 0
4, 109344, Note_on_c, 10, 59, 110
4, 109344, Note_on_c, 10, 63, 110
4, 109344, Note_on_c, 10, 66, 110
4, 109438, Note_on_c, 10, 59, 0
4, 109438, Note_on_c, 10, 63, 0
4, 109438, Note_on_c, 10, 66, 0
4, 109536, Note_on_c, 10, 59, 110
4, 109536, Note_on_c, 10, 63, 110
4, 109536, Note_on_c, 10, 66, 110
4, 109630, Note_on_c, 10, 59, 0
4, 109630, Note_on_c, 10, 63, 0
4, 109630, Note_on_c, 10, 66, 0
4, 109632, Note_on_c, 10, 59, 110
4, 109632, Note_on_c, 10, 63, 110
4, 109632, Note_on_c, 10, 66, 110
4, 109726, Note_on_c, 10, 59, 0
4, 109726, Note_on_c, 10, 63, 0
4, 109726, Note_on_c, 10, 66, 0
4, 109728, Note_on_c, 10, 59, 110
4, 109728, Note_on_c, 10, 63, 110
4, 109728, Note_on_c, 10, 66, 110
4, 109822, Note_on_c, 10, 59, 0
4, 109822, Note_on_c, 10, 63, 0
4, 109822, Note_on_c, 10, 66, 0
4, 109824, Note_on_c, 10, 59, 110
4, 109824, Note_on_c, 10, 63, 110
4, 109824, Note_on_c, 10, 66, 110
4, 109918, Note_on_c, 10, 59, 0
4, 109918, Note_on_c, 10, 63, 0
4, 109918, Note_on_c, 10, 66, 0
4, 110016, Note_on_c, 10, 62, 110
4, 110016, Note_on_c, 10, 66, 110
4, 110016, Note_on_c, 10, 69, 110
4, 110110, Note_on_c, 10, 62, 0
4, 110110, Note_on_c, 10, 66, 0
4, 110110, Note_on_c, 10, 69, 0
4, 110112, Note_on_c, 10, 62, 110
4, 110112, Note_on_c, 10, 66, 110
4, 110112, Note_on_c, 10, 69, 110
4, 110206, Note_on_c, 10, 62, 0
4, 110206, Note_on_c, 10, 66, 0
4, 110206, Note_on_c, 10, 69, 0
4, 110304, Note_on_c, 10, 62, 110
4, 110304, Note_on_c, 10, 66, 110
4, 110304, Note_on_c, 10, 69, 110
4, 110398, Note_on_c, 10, 62, 0
4, 110398, Note_on_c, 10, 66, 0
4, 110398, Note_on_c, 10, 69, 0
4, 110400, Note_on_c, 10, 62, 110
4, 110400, Note_on_c, 10, 66, 110
4, 110400, Note_on_c, 10, 69, 110
4, 110494, Note_on_c, 10, 62, 0
4, 110494, Note_on_c, 10, 66, 0
4, 110494, Note_on_c, 10, 69, 0
4, 110496, Note_on_c, 10, 62, 110
4, 110496, Note_on_c, 10, 66, 110
4, 110496, Note_on_c, 10, 69, 110
4, 110590, Note_on_c, 10, 62, 0
4, 110590, Note_on_c, 10, 66, 0
4, 110590, Note_on_c, 10, 69, 0
4, 110688, Note_on_c, 10, 62, 110
4, 110688, Note_on_c, 10, 66, 110
4, 110688, Note_on_c, 10, 69, 110
4, 110782, Note_on_c, 10, 62, 0
4, 110782, Note_on_c, 10, 66, 0
4, 110782, Note_on_c, 10, 69, 0
4, 110784, Note_on_c, 10, 62, 110
4, 110784, Note_on_c, 10, 66, 110
4, 110784, Note_on_c, 10, 69, 110
4, 110878, Note_on_c, 10, 62, 0
4, 110878, Note_on_c, 10, 66, 0
4, 110878, Note_on_c, 10, 69, 0
4, 110880, Note_on_c, 10, 62, 110
4, 110880, Note_on_c, 10, 66, 110
4, 110880, Note_on_c, 10, 69, 110
4, 110974, Note_on_c, 10, 62, 0
4, 110974, Note_on_c, 10, 66, 0
4, 110974, Note_on_c, 10, 69, 0
4, 111072, Note_on_c, 10, 62, 110
4, 111072, Note_on_c, 10, 66, 110
4, 111072, Note_on_c, 10, 69, 110
4, 111166, Note_on_c, 10, 62, 0
4, 111166, Note_on_c, 10, 66, 0
4, 111166, Note_on_c, 10, 69, 0
4, 111168, Note_on_c, 10, 62, 110
4, 111168, Note_on_c, 10, 66, 110
4, 111168, Note_on_c, 10, 69, 110
4, 111262, Note_on_c, 10, 62, 0
4, 111262, Note_on_c, 10, 66, 0
4, 111262, Note_on_c, 10, 69, 0
4, 111264, Note_on_c, 10, 62, 110
4, 111264, Note_on_c, 10, 66, 110
4, 111264, Note_on_c, 10, 69, 110
4, 111358, Note_on_c, 10, 62, 0
4, 111358, Note_on_c, 10, 66, 0
4, 111358, Note_on_c, 10, 69, 0
4, 111360, Note_on_c, 10, 62, 110
4, 111360, Note_on_c, 10, 66, 110
4, 111360, Note_on_c, 10, 69, 110
4, 111454, Note_on_c, 10, 62, 0
4, 111454, Note_on_c, 10, 66, 0
4, 111454, Note_on_c, 10, 69, 0
4, 111552, Note_on_c, 10, 57, 110
4, 111552, Note_on_c, 10, 61, 110
4, 111552, Note_on_c, 10, 64, 110
4, 111646, Note_on_c, 10, 57, 0
4, 111646, Note_on_c, 10, 61, 0
4, 111646, Note_on_c, 10, 64, 0
4, 111648, Note_on_c, 10, 57, 110
4, 111648, Note_on_c, 10, 61, 110
4, 111648, Note_on_c, 10, 64, 110
4, 111742, Note_on_c, 10, 57, 0
4, 111742, Note_on_c, 10, 61, 0
4, 111742, Note_on_c, 10, 64, 0
4, 111840, Note_on_c, 10, 57, 110
4, 111840, Note_on_c, 10, 61, 110
4, 111840, Note_on_c, 10, 64, 110
4, 111934, Note_on_c, 10, 57, 0
4, 111934, Note_on_c, 10, 61, 0
4, 111934, Note_on_c, 10, 64, 0
4, 111936, Note_on_c, 10, 57, 110
4, 111936, Note_on_c, 10, 61, 110
4, 111936, Note_on_c, 10, 64, 110
4, 112030, Note_on_c, 10, 57, 0
4, 112030, Note_on_c, 10, 61, 0
4, 112030, Note_on_c, 10, 64, 0
4, 112032, Note_on_c, 10, 57, 110
4, 112032, Note_on_c, 10, 61, 110
4, 112032, Note_on_c, 10, 64, 110
4, 112126, Note_on_c, 10, 57, 0
4, 112126, Note_on_c, 10, 61, 0
4, 112126, Note_on_c, 10, 64, 0
4, 112224, Note_on_c, 10, 57, 110
4, 112224, Note_on_c, 10, 61, 110
4, 112224, Note_on_c, 10, 64, 110
4, 112318, Note_on_c, 10, 57, 0
4, 112318, Note_on_c, 10, 61, 0
4, 112318, Note_on_c, 10, 64, 0
4, 112320, Note_on_c, 10, 57, 110
4, 112320, Note_on_c, 10, 61, 110
4, 112320, Note_on_c, 10, 64, 110
4, 112414, Note_on_c, 10, 57, 0
4, 112414, Note_on_c, 10, 61, 0
4, 112414, Note_on_c, 10, 64, 0
4, 112416, Note_on_c, 10, 57, 110
4, 112416, Note_on_c, 10, 61, 110
4, 112416, Note_on_c, 10, 64, 110
4, 112510, Note_on_c, 10, 57, 0
4, 112510, Note_on_c, 10, 61, 0
4, 112510, Note_on_c, 10, 64, 0
4, 112608, Note_on_c, 10, 57, 110
4, 112608, Note_on_c, 10, 61, 110
4, 112608, Note_on_c, 10, 64, 110
4, 112702, Note_on_c, 10, 57, 0
4, 112702, Note_on_c, 10, 61, 0
4, 112702, Note_on_c, 10, 64, 0
4, 112704, Note_on_c, 10, 57, 110
4, 112704, Note_on_c, 10, 61, 110
4, 112704, Note_on_c, 10, 64, 110
4, 112798, Note_on_c, 10, 57, 0
4, 112798, Note_on_c, 10, 61, 0
4, 112798, Note_on_c, 10, 64, 0
4, 112896, Note_on_c, 10, 58, 110
4, 112896, Note_on_c, 10, 62, 110
4, 112896, Note_on_c, 10, 65, 110
4, 112990, Note_on_c, 10, 58, 0
4, 112990, Note_on_c, 10, 62, 0
4, 112990, Note_on_c, 10, 65, 0
4, 113088, Note_on_c, 10, 59, 110
4, 113088, Note_on_c, 10, 63, 110
4, 113088, Note_on_c, 10, 66, 110
4, 113182, Note_on_c, 10, 59, 0
4, 113182, Note_on_c, 10, 63, 0
4, 113182, Note_on_c, 10, 66, 0
4, 113184, Note_on_c, 10, 59, 110
4, 113184, Note_on_c, 10, 63, 110
4, 113184, Note_on_c, 10, 66, 110
4, 113278, Note_on_c, 10, 59, 0
4, 113278, Note_on_c, 10, 63, 0
4, 113278, Note_on_c, 10, 66, 0
4, 113376, Note_on_c, 10, 59, 110
4, 113376, Note_on_c, 10, 63, 110
4, 113376, Note_on_c, 10, 66, 110
4, 113470, Note_on_c, 10, 59, 0
4, 113470, Note_on_c, 10, 63, 0
4, 113470, Note_on_c, 10, 66, 0
4, 113472, Note_on_c, 10, 59, 110
4, 113472, Note_on_c, 10, 63, 110
4, 113472, Note_on_c, 10, 66, 110
4, 113566, Note_on_c, 10, 59, 0
4, 113566, Note_on_c, 10, 63, 0
4, 113566, Note_on_c, 10, 66, 0
4, 113568, Note_on_c, 10, 59, 110
4, 113568, Note_on_c, 10, 63, 110
4, 113568, Note_on_c, 10, 66, 110
4, 113662, Note_on_c, 10, 59, 0
4, 113662, Note_on_c, 10, 63, 0
4, 113662, Note_on_c, 10, 66, 0
4, 113760, Note_on_c, 10, 59, 110
4, 113760, Note_on_c, 10, 63, 110
4, 113760, Note_on_c, 10, 66, 110
4, 113854, Note_on_c, 10, 59, 0
4, 113854, Note_on_c, 10, 63, 0
4, 113854, Note_on_c, 10, 66, 0
4, 113856, Note_on_c, 10, 59, 110
4, 113856, Note_on_c, 10, 63, 110
4, 113856, Note_on_c, 10, 66, 110
4, 113950, Note_on_c, 10, 59, 0
4, 113950, Note_on_c, 10, 63, 0
4, 113950, Note_on_c, 10, 66, 0
4, 113952, Note_on_c, 10, 59, 110
4, 113952, Note_on_c, 10, 63, 110
4, 113952, Note_on_c, 10, 66, 110
4, 114046, Note_on_c, 10, 59, 0
4, 114046, Note_on_c, 10, 63, 0
4, 114046, Note_on_c, 10, 66, 0
4, 114144, Note_on_c, 10, 59, 110
4, 114144, Note_on_c, 10, 63, 110
4, 114144, Note_on_c, 10, 66, 110
4, 114238, Note_on_c, 10, 59, 0
4, 114238, Note_on_c, 10, 63, 0
4, 114238, Note_on_c, 10, 66, 0
4, 114240, Note_on_c, 10, 59, 110
4, 114240, Note_on_c, 10, 63, 110
4, 114240, Note_on_c, 10, 66, 110
4, 114334, Note_on_c, 10, 59, 0
4, 114334, Note_on_c, 10, 63, 0
4, 114334, Note_on_c, 10, 66, 0
4, 114336, Note_on_c, 10, 59, 110
4, 114336, Note_on_c, 10, 63, 110
4, 114336, Note_on_c, 10, 66, 110
4, 114430, Note_on_c, 10, 59, 0
4, 114430, Note_on_c, 10, 63, 0
4, 114430, Note_on_c, 10, 66, 0
4, 114432, Note_on_c, 10, 59, 110
4, 114432, Note_on_c, 10, 63, 110
4, 114432, Note_on_c, 10, 66, 110
4, 114526, Note_on_c, 10, 59, 0
4, 114526, Note_on_c, 10, 63, 0
4, 114526, Note_on_c, 10, 66, 0
4, 114624, Note_on_c, 10, 62, 110
4, 114624, Note_on_c, 10, 66, 110
4, 114624, Note_on_c, 10, 69, 110
4, 114718, Note_on_c, 10, 62, 0
4, 114718, Note_on_c, 10, 66, 0
4, 114718, Note_on_c, 10, 69, 0
4, 114720, Note_on_c, 10, 62, 110
4, 114720, Note_on_c, 10, 66, 110
4, 114720, Note_on_c, 10, 69, 110
4, 114814, Note_on_c, 10, 62, 0
4, 114814, Note_on_c, 10, 66, 0
4, 114814, Note_on_c, 10, 69, 0
4, 114912, Note_on_c, 10, 62, 110
4, 114912, Note_on_c, 10, 66, 110
4, 114912, Note_on_c, 10, 69, 110
4, 115006, Note_on_c, 10, 62, 0
4, 115006, Note_on_c, 10, 66, 0
4, 115006, Note_on_c, 10, 69, 0
4, 115008, Note_on_c, 10, 62, 110
4, 115008, Note_on_c, 10, 66, 110
4, 115008, Note_on_c, 10, 69, 110
4, 115102, Note_on_c, 10, 62, 0
4, 115102, Note_on_c, 10, 66, 0
4, 115102, Note_on_c, 10, 69, 0
4, 115104, Note_on_c, 10, 62, 110
4, 115104, Note_on_c, 10, 66, 110
4, 115104, Note_on_c, 10, 69, 110
4, 115198, Note_on_c, 10, 62, 0
4, 115198, Note_on_c, 10, 66, 0
4, 115198, Note_on_c, 10, 69, 0
4, 115296, Note_on_c, 10, 62, 110
4, 115296, Note_on_c, 10, 66, 110
4, 115296, Note_on_c, 10, 69, 110
4, 115390, Note_on_c, 10, 62, 0
4, 115390, Note_on_c, 10, 66, 0
4, 115390, Note_on_c, 10, 69, 0
4, 115392, Note_on_c, 10, 62, 110
4, 115392, Note_on_c, 10, 66, 110
4, 115392, Note_on_c, 10, 69, 110
4, 115486, Note_on_c, 10, 62, 0
4, 115486, Note_on_c, 10, 66, 0
4, 115486, Note_on_c, 10, 69, 0
4, 115488, Note_on_c, 10, 62, 110
4, 115488, Note_on_c, 10, 66, 110
4, 115488, Note_on_c, 10, 69, 110
4, 115582, Note_on_c, 10, 62, 0
4, 115582, Note_on_c, 10, 66, 0
4, 115582, Note_on_c, 10, 69, 0
4, 115680, Note_on_c, 10, 62, 110
4, 115680, Note_on_c, 10, 66, 110
4, 115680, Note_on_c, 10, 69, 110
4, 115774, Note_on_c, 10, 62, 0
4, 115774, Note_on_c, 10, 66, 0
4, 115774, Note_on_c, 10, 69, 0
4, 115776, Note_on_c, 10, 62, 110
4, 115776, Note_on_c, 10, 66, 110
4, 115776, Note_on_c, 10, 69, 110
4, 115870, Note_on_c, 10, 62, 0
4, 115870, Note_on_c, 10, 66, 0
4, 115870, Note_on_c, 10, 69, 0
4, 115872, Note_on_c, 10, 62, 110
4, 115872, Note_on_c, 10, 66, 110
4, 115872, Note_on_c, 10, 69, 110
4, 115966, Note_on_c, 10, 62, 0
4, 115966, Note_on_c, 10, 66, 0
4, 115966, Note_on_c, 10, 69, 0
4, 115968, Note_on_c, 10, 62, 110
4, 115968, Note_on_c, 10, 66, 110
4, 115968, Note_on_c, 10, 69, 110
4, 116062, Note_on_c, 10, 62, 0
4, 116062, Note_on_c, 10, 66, 0
4, 116062, Note_on_c, 10, 69, 0
4, 116160, Note_on_c, 10, 57, 110
4, 116160, Note_on_c, 10, 61, 110
4, 116160, Note_on_c, 10, 64, 110
4, 116254, Note_on_c, 10, 57, 0
4, 116254, Note_on_c, 10, 61, 0
4, 116254, Note_on_c, 10, 64, 0
4, 116256, Note_on_c, 10, 57, 110
4, 116256, Note_on_c, 10, 61, 110
4, 116256, Note_on_c, 10, 64, 110
4, 116350, Note_on_c, 10, 57, 0
4, 116350, Note_on_c, 10, 61, 0
4, 116350, Note_on_c, 10, 64, 0
4, 116448, Note_on_c, 10, 57, 110
4, 116448, Note_on_c, 10, 61, 110
4, 116448, Note_on_c, 10, 64, 110
4, 116542, Note_on_c, 10, 57, 0
4, 116542, Note_on_c, 10, 61, 0
4, 116542, Note_on_c, 10, 64, 0
4, 116544, Note_on_c, 10, 57, 110
4, 116544, Note_on_c, 10, 61, 110
4, 116544, Note_on_c, 10, 64, 110
4, 116638, Note_on_c, 10, 57, 0
4, 116638, Note_on_c, 10, 61, 0
4, 116638, Note_on_c, 10, 64, 0
4, 116640, Note_on_c, 10, 57, 110
4, 116640, Note_on_c, 10, 61, 110
4, 116640, Note_on_c, 10, 64, 110
4, 116734, Note_on_c, 10, 57, 0
4, 116734, Note_on_c, 10, 61, 0
4, 116734, Note_on_c, 10, 64, 0
4, 116832, Note_on_c, 10, 57, 110
4, 116832, Note_on_c, 10, 61, 110
4, 116832, Note_on_c, 10, 64, 110
4, 116926, Note_on_c, 10, 57, 0
4, 116926, Note_on_c, 10, 61, 0
4, 116926, Note_on_c, 10, 64, 0
4, 116928, Note_on_c, 10, 57, 110
4, 116928, Note_on_c, 10, 61, 110
4, 116928, Note_on_c, 10, 64, 110
4, 117022, Note_on_c, 10, 57, 0
4, 117022, Note_on_c, 10, 61, 0
4, 117022, Note_on_c, 10, 64, 0
4, 117024, Note_on_c, 10, 57, 110
4, 117024, Note_on_c, 10, 61, 110
4, 117024, Note_on_c, 10, 64, 110
4, 117118, Note_on_c, 10, 57, 0
4, 117118, Note_on_c, 10, 61, 0
4, 117118, Note_on_c, 10, 64, 0
4, 117216, Note_on_c, 10, 57, 110
4, 117216, Note_on_c, 10, 61, 110
4, 117216, Note_on_c, 10, 64, 110
4, 117310, Note_on_c, 10, 57, 0
4, 117310, Note_on_c, 10, 61, 0
4, 117310, Note_on_c, 10, 64, 0
4, 117312, Note_on_c, 10, 57, 110
4, 117312, Note_on_c, 10, 61, 110
4, 117312, Note_on_c, 10, 64, 110
4, 117406, Note_on_c, 10, 57, 0
4, 117406, Note_on_c, 10, 61, 0
4, 117406, Note_on_c, 10, 64, 0
4, 117504, Note_on_c, 10, 58, 110
4, 117504, Note_on_c, 10, 62, 110
4, 117504, Note_on_c, 10, 65, 110
4, 117598, Note_on_c, 10, 58, 0
4, 117598, Note_on_c, 10, 62, 0
4, 117598, Note_on_c, 10, 65, 0
4, 117696, Note_on_c, 10, 59, 110
4, 117696, Note_on_c, 10, 63, 110
4, 117696, Note_on_c, 10, 66, 110
4, 117790, Note_on_c, 10, 59, 0
4, 117790, Note_on_c, 10, 63, 0
4, 117790, Note_on_c, 10, 66, 0
4, 117792, Note_on_c, 10, 59, 110
4, 117792, Note_on_c, 10, 63, 110
4, 117792, Note_on_c, 10, 66, 110
4, 117886, Note_on_c, 10, 59, 0
4, 117886, Note_on_c, 10, 63, 0
4, 117886, Note_on_c, 10, 66, 0
4, 117984, Note_on_c, 10, 59, 110
4, 117984, Note_on_c, 10, 63, 110
4, 117984, Note_on_c, 10, 66, 110
4, 118078, Note_on_c, 10, 59, 0
4, 118078, Note_on_c, 10, 63, 0
4, 118078, Note_on_c, 10, 66, 0
4, 118080, Note_on_c, 10, 59, 110
4, 118080, Note_on_c, 10, 63, 110
4, 118080, Note_on_c, 10, 66, 110
4, 118174, Note_on_c, 10, 59, 0
4, 118174, Note_on_c, 10, 63, 0
4, 118174, Note_on_c, 10, 66, 0
4, 118176, Note_on_c, 10, 59, 110
4, 118176, Note_on_c, 10, 63, 110
4, 118176, Note_on_c, 10, 66, 110
4, 118270, Note_on_c, 10, 59, 0
4, 118270, Note_on_c, 10, 63, 0
4, 118270, Note_on_c, 10, 66, 0
4, 118368, Note_on_c, 10, 59, 110
4, 118368, Note_on_c, 10, 63, 110
4, 118368, Note_on_c, 10, 66, 110
4, 118462, Note_on_c, 10, 59, 0
4, 118462, Note_on_c, 10, 63, 0
4, 118462, Note_on_c, 10, 66, 0
4, 118464, Note_on_c, 10, 59, 110
4, 118464, Note_on_c, 10, 63, 110
4, 118464, Note_on_c, 10, 66, 110
4, 118558, Note_on_c, 10, 59, 0
4, 118558, Note_on_c, 10, 63, 0
4, 118558, Note_on_c, 10, 66, 0
4, 118560, Note_on_c, 10, 59, 110
4, 118560, Note_on_c, 10, 63, 110
4, 118560, Note_on_c, 10, 66, 110
4, 118654, Note_on_c, 10, 59, 0
4, 118654, Note_on_c, 10, 63, 0
4, 118654, Note_on_c, 10, 66, 0
4, 118752, Note_on_c, 10, 59, 110
4, 118752, Note_on_c, 10, 63, 110
4, 118752, Note_on_c, 10, 66, 110
4, 118846, Note_on_c, 10, 59, 0
4, 118846, Note_on_c, 10, 63, 0
4, 118846, Note_on_c, 10, 66, 0
4, 118848, Note_on_c, 10, 59, 110
4, 118848, Note_on_c, 10, 63, 110
4, 118848, Note_on_c, 10, 66, 110
4, 118942, Note_on_c, 10, 59, 0
4, 118942, Note_on_c, 10, 63, 0
4, 118942, Note_on_c, 10, 66, 0
4, 118944, Note_on_c, 10, 59, 110
4, 118944, Note_on_c, 10, 63, 110
4, 118944, Note_on_c, 10, 66, 110
4, 119038, Note_on_c, 10, 59, 0
4, 119038, Note_on_c, 10, 63, 0
4, 119038, Note_on_c, 10, 66, 0
4, 119040, Note_on_c, 10, 59, 110
4, 119040, Note_on_c, 10, 63, 110
4, 119040, Note_on_c, 10, 66, 110
4, 119134, Note_on_c, 10, 59, 0
4, 119134, Note_on_c, 10, 63, 0
4, 119134, Note_on_c, 10, 66, 0
4, 119232, Note_on_c, 10, 62, 110
4, 119232, Note_on_c, 10, 66, 110
4, 119232, Note_on_c, 10, 69, 110
4, 119326, Note_on_c, 10, 62, 0
4, 119326, Note_on_c, 10, 66, 0
4, 119326, Note_on_c, 10, 69, 0
4, 119328, Note_on_c, 10, 62, 110
4, 119328, Note_on_c, 10, 66, 110
4, 119328, Note_on_c, 10, 69, 110
4, 119422, Note_on_c, 10, 62, 0
4, 119422, Note_on_c, 10, 66, 0
4, 119422, Note_on_c, 10, 69, 0
4, 119520, Note_on_c, 10, 62, 110
4, 119520, Note_on_c, 10, 66, 110
4, 119520, Note_on_c, 10, 69, 110
4, 119614, Note_on_c, 10, 62, 0
4, 119614, Note_on_c, 10, 66, 0
4, 119614, Note_on_c, 10, 69, 0
4, 119616, Note_on_c, 10, 62, 110
4, 119616, Note_on_c, 10, 66, 110
4, 119616, Note_on_c, 10, 69, 110
4, 119710, Note_on_c, 10, 62, 0
4, 119710, Note_on_c, 10, 66, 0
4, 119710, Note_on_c, 10, 69, 0
4, 119712, Note_on_c, 10, 62, 110
4, 119712, Note_on_c, 10, 66, 110
4, 119712, Note_on_c, 10, 69, 110
4, 119806, Note_on_c, 10, 62, 0
4, 119806, Note_on_c, 10, 66, 0
4, 119806, Note_on_c, 10, 69, 0
4, 119904, Note_on_c, 10, 62, 110
4, 119904, Note_on_c, 10, 66, 110
4, 119904, Note_on_c, 10, 69, 110
4, 119998, Note_on_c, 10, 62, 0
4, 119998, Note_on_c, 10, 66, 0
4, 119998, Note_on_c, 10, 69, 0
4, 120000, Note_on_c, 10, 62, 110
4, 120000, Note_on_c, 10, 66, 110
4, 120000, Note_on_c, 10, 69, 110
4, 120094, Note_on_c, 10, 62, 0
4, 120094, Note_on_c, 10, 66, 0
4, 120094, Note_on_c, 10, 69, 0
4, 120096, Note_on_c, 10, 62, 110
4, 120096, Note_on_c, 10, 66, 110
4, 120096, Note_on_c, 10, 69, 110
4, 120190, Note_on_c, 10, 62, 0
4, 120190, Note_on_c, 10, 66, 0
4, 120190, Note_on_c, 10, 69, 0
4, 120288, Note_on_c, 10, 62, 110
4, 120288, Note_on_c, 10, 66, 110
4, 120288, Note_on_c, 10, 69, 110
4, 120382, Note_on_c, 10, 62, 0
4, 120382, Note_on_c, 10, 66, 0
4, 120382, Note_on_c, 10, 69, 0
4, 120384, Note_on_c, 10, 62, 110
4, 120384, Note_on_c, 10, 66, 110
4, 120384, Note_on_c, 10, 69, 110
4, 120478, Note_on_c, 10, 62, 0
4, 120478, Note_on_c, 10, 66, 0
4, 120478, Note_on_c, 10, 69, 0
4, 120480, Note_on_c, 10, 62, 110
4, 120480, Note_on_c, 10, 66, 110
4, 120480, Note_on_c, 10, 69, 110
4, 120574, Note_on_c, 10, 62, 0
4, 120574, Note_on_c, 10, 66, 0
4, 120574, Note_on_c, 10, 69, 0
4, 120576, Note_on_c, 10, 62, 110
4, 120576, Note_on_c, 10, 66, 110
4, 120576, Note_on_c, 10, 69, 110
4, 120670, Note_on_c, 10, 62, 0
4, 120670, Note_on_c, 10, 66, 0
4, 120670, Note_on_c, 10, 69, 0
4, 120768, Note_on_c, 10, 57, 110
4, 120768, Note_on_c, 10, 61, 110
4, 120768, Note_on_c, 10, 64, 110
4, 120862, Note_on_c, 10, 57, 0
4, 120862, Note_on_c, 10, 61, 0
4, 120862, Note_on_c, 10, 64, 0
4, 120864, Note_on_c, 10, 57, 110
4, 120864, Note_on_c, 10, 61, 110
4, 120864, Note_on_c, 10, 64, 110
4, 120958, Note_on_c, 10, 57, 0
4, 120958, Note_on_c, 10, 61, 0
4, 120958, Note_on_c, 10, 64, 0
4, 121056, Note_on_c, 10, 57, 110
4, 121056, Note_on_c, 10, 61, 110
4, 121056, Note_on_c, 10, 64, 110
4, 121150, Note_on_c, 10, 57, 0
4, 121150, Note_on_c, 10, 61, 0
4, 121150, Note_on_c, 10, 64, 0
4, 121152, Note_on_c, 10, 57, 110
4, 121152, Note_on_c, 10, 61, 110
4, 121152, Note_on_c, 10, 64, 110
4, 121246, Note_on_c, 10, 57, 0
4, 121246, Note_on_c, 10, 61, 0
4, 121246, Note_on_c, 10, 64, 0
4, 121248, Note_on_c, 10, 57, 110
4, 121248, Note_on_c, 10, 61, 110
4, 121248, Note_on_c, 10, 64, 110
4, 121342, Note_on_c, 10, 57, 0
4, 121342, Note_on_c, 10, 61, 0
4, 121342, Note_on_c, 10, 64, 0
4, 121440, Note_on_c, 10, 57, 110
4, 121440, Note_on_c, 10, 61, 110
4, 121440, Note_on_c, 10, 64, 110
4, 121534, Note_on_c, 10, 57, 0
4, 121534, Note_on_c, 10, 61, 0
4, 121534, Note_on_c, 10, 64, 0
4, 121536, Control_c, 10, 7, 127
4, 121536, Note_on_c, 10, 57, 110
4, 121536, Note_on_c, 10, 61, 110
4, 121536, Note_on_c, 10, 64, 110
4, 121559, Control_c, 10, 7, 126
4, 121582, Control_c, 10, 7, 125
4, 121605, Control_c, 10, 7, 124
4, 121629, Control_c, 10, 7, 123
4, 121630, Note_on_c, 10, 57, 0
4, 121630, Note_on_c, 10, 61, 0
4, 121630, Note_on_c, 10, 64, 0
4, 121632, Note_on_c, 10, 57, 110
4, 121632, Note_on_c, 10, 61, 110
4, 121632, Note_on_c, 10, 64, 110
4, 121652, Control_c, 10, 7, 122
4, 121675, Control_c, 10, 7, 121
4, 121698, Control_c, 10, 7, 120
4, 121722, Control_c, 10, 7, 119
4, 121726, Note_on_c, 10, 57, 0
4, 121726, Note_on_c, 10, 61, 0
4, 121726, Note_on_c, 10, 64, 0
4, 121745, Control_c, 10, 7, 118
4, 121768, Control_c, 10, 7, 117
4, 121792, Control_c, 10, 7, 116
4, 121815, Control_c, 10, 7, 115
4, 121824, Note_on_c, 10, 57, 110
4, 121824, Note_on_c, 10, 61, 110
4, 121824, Note_on_c, 10, 64, 110
4, 121838, Control_c, 10, 7, 114
4, 121861, Control_c, 10, 7, 113
4, 121885, Control_c, 10, 7, 112
4, 121908, Control_c, 10, 7, 111
4, 121918, Note_on_c, 10, 57, 0
4, 121918, Note_on_c, 10, 61, 0
4, 121918, Note_on_c, 10, 64, 0
4, 121920, Note_on_c, 10, 57, 110
4, 121920, Note_on_c, 10, 61, 110
4, 121920, Note_on_c, 10, 64, 110
4, 121931, Control_c, 10, 7, 110
4, 121954, Control_c, 10, 7, 109
4, 121978, Control_c, 10, 7, 108
4, 122001, Control_c, 10, 7, 107
4, 122014, Note_on_c, 10, 57, 0
4, 122014, Note_on_c, 10, 61, 0
4, 122014, Note_on_c, 10, 64, 0
4, 122024, Control_c, 10, 7, 106
4, 122048, Control_c, 10, 7, 105
4, 122071, Control_c, 10, 7, 104
4, 122094, Control_c, 10, 7, 103
4, 122112, Note_on_c, 10, 58, 110
4, 122112, Note_on_c, 10, 62, 110
4, 122112, Note_on_c, 10, 65, 110
4, 122117, Control_c, 10, 7, 102
4, 122141, Control_c, 10, 7, 101
4, 122164, Control_c, 10, 7, 100
4, 122187, Control_c, 10, 7, 99
4, 122206, Note_on_c, 10, 58, 0
4, 122206, Note_on_c, 10, 62, 0
4, 122206, Note_on_c, 10, 65, 0
4, 122210, Control_c, 10, 7, 98
4, 122234, Control_c, 10, 7, 97
4, 122257, Control_c, 10, 7, 96
4, 122280, Control_c, 10, 7, 95
4, 122304, Control_c, 10, 7, 94
4, 122304, Control_c, 10, 7, 94
4, 122304, Note_on_c, 10, 59, 110
4, 122304, Note_on_c, 10, 63, 110
4, 122304, Note_on_c, 10, 66, 110
4, 122358, Control_c, 10, 7, 93
4, 122398, Note_on_c, 10, 59, 0
4, 122398, Note_on_c, 10, 63, 0
4, 122398, Note_on_c, 10, 66, 0
4, 122400, Note_on_c, 10, 59, 110
4, 122400, Note_on_c, 10, 63, 110
4, 122400, Note_on_c, 10, 66, 110
4, 122413, Control_c, 10, 7, 92
4, 122468, Control_c, 10, 7, 91
4, 122494, Note_on_c, 10, 59, 0
4, 122494, Note_on_c, 10, 63, 0
4, 122494, Note_on_c, 10, 66, 0
4, 122523, Control_c, 10, 7, 90
4, 122578, Control_c, 10, 7, 89
4, 122592, Note_on_c, 10, 59, 110
4, 122592, Note_on_c, 10, 63, 110
4, 122592, Note_on_c, 10, 66, 110
4, 122633, Control_c, 10, 7, 88
4, 122686, Note_on_c, 10, 59, 0
4, 122686, Note_on_c, 10, 63, 0
4, 122686, Note_on_c, 10, 66, 0
4, 122688, Control_c, 10, 7, 87
4, 122688, Note_on_c, 10, 59, 110
4, 122688, Note_on_c, 10, 63, 110
4, 122688, Note_on_c, 10, 66, 110
4, 122742, Control_c, 10, 7, 86
4, 122782, Note_on_c, 10, 59, 0
4, 122782, Note_on_c, 10, 63, 0
4, 122782, Note_on_c, 10, 66, 0
4, 122784, Note_on_c, 10, 59, 110
4, 122784, Note_on_c, 10, 63, 110
4, 122784, Note_on_c, 10, 66, 110
4, 122797, Control_c, 10, 7, 85
4, 122852, Control_c, 10, 7, 84
4, 122878, Note_on_c, 10, 59, 0
4, 122878, Note_on_c, 10, 63, 0
4, 122878, Note_on_c, 10, 66, 0
4, 122907, Control_c, 10, 7, 83
4, 122962, Control_c, 10, 7, 82
4, 122976, Note_on_c, 10, 59, 110
4, 122976, Note_on_c, 10, 63, 110
4, 122976, Note_on_c, 10, 66, 110
4, 123017, Control_c, 10, 7, 81
4, 123070, Note_on_c, 10, 59, 0
4, 123070, Note_on_c, 10, 63, 0
4, 123070, Note_on_c, 10, 66, 0
4, 123072, Control_c, 10, 7, 80
4, 123072, Control_c, 10, 7, 80
4, 123072, Note_on_c, 10, 59, 110
4, 123072, Note_on_c, 10, 63, 110
4, 123072, Note_on_c, 10, 66, 110
4, 123097, Control_c, 10, 7, 79
4, 123123, Control_c, 10, 7, 78
4, 123148, Control_c, 10, 7, 77
4, 123166, Note_on_c, 10, 59, 0
4, 123166, Note_on_c, 10, 63, 0
4, 123166, Note_on_c, 10, 66, 0
4, 123168, Note_on_c, 10, 59, 110
4, 123168, Note_on_c, 10, 63, 110
4, 123168, Note_on_c, 10, 66, 110
4, 123174, Control_c, 10, 7, 76
4, 123200, Control_c, 10, 7, 75
4, 123225, Control_c, 10, 7, 74
4, 123251, Control_c, 10, 7, 73
4, 123262, Note_on_c, 10, 59, 0
4, 123262, Note_on_c, 10, 63, 0
4, 123262, Note_on_c, 10, 66, 0
4, 123276, Control_c, 10, 7, 72
4, 123302, Control_c, 10, 7, 71
4, 123328, Control_c, 10, 7, 70
4, 123353, Control_c, 10, 7, 69
4, 123360, Note_on_c, 10, 59, 110
4, 123360, Note_on_c, 10, 63, 110
4, 123360, Note_on_c, 10, 66, 110
4, 123379, Control_c, 10, 7, 68
4, 123404, Control_c, 10, 7, 67
4, 123430, Control_c, 10, 7, 66
4, 123454, Note_on_c, 10, 59, 0
4, 123454, Note_on_c, 10, 63, 0
4, 123454, Note_on_c, 10, 66, 0
4, 123456, Control_c, 10, 7, 65
4, 123456, Note_on_c, 10, 59, 110
4, 123456, Note_on_c, 10, 63, 110
4, 123456, Note_on_c, 10, 66, 110
4, 123481, Control_c, 10, 7, 64
4, 123507, Control_c, 10, 7, 63
4, 123532, Control_c, 10, 7, 62
4, 123550, Note_on_c, 10, 59, 0
4, 123550, Note_on_c, 10, 63, 0
4, 123550, Note_on_c, 10, 66, 0
4, 123552, Note_on_c, 10, 59, 110
4, 123552, Note_on_c, 10, 63, 110
4, 123552, Note_on_c, 10, 66, 110
4, 123558, Control_c, 10, 7, 61
4, 123584, Control_c, 10, 7, 60
4, 123609, Control_c, 10, 7, 59
4, 123635, Control_c, 10, 7, 58
4, 123646, Note_on_c, 10, 59, 0
4, 123646, Note_on_c, 10, 63, 0
4, 123646, Note_on_c, 10, 66, 0
4, 123648, Note_on_c, 10, 59, 110
4, 123648, Note_on_c, 10, 63, 110
4, 123648, Note_on_c, 10, 66, 110
4, 123660, Control_c, 10, 7, 57
4, 123686, Control_c, 10, 7, 56
4, 123712, Control_c, 10, 7, 55
4, 123737, Control_c, 10, 7, 54
4, 123742, Note_on_c, 10, 59, 0
4, 123742, Note_on_c, 10, 63, 0
4, 123742, Note_on_c, 10, 66, 0
4, 123763, Control_c, 10, 7, 53
4, 123788, Control_c, 10, 7, 52
4, 123814, Control_c, 10, 7, 51
4, 123840, Control_c, 10, 7, 50
4, 123840, Control_c, 10, 7, 50
4, 123840, Note_on_c, 10, 62, 110
4, 123840, Note_on_c, 10, 66, 110
4, 123840, Note_on_c, 10, 69, 110
4, 123878, Control_c, 10, 7, 49
4, 123916, Control_c, 10, 7, 48
4, 123934, Note_on_c, 10, 62, 0
4, 123934, Note_on_c, 10, 66, 0
4, 123934, Note_on_c, 10, 69, 0
4, 123936, Note_on_c, 10, 62, 110
4, 123936, Note_on_c, 10, 66, 110
4, 123936, Note_on_c, 10, 69, 110
4, 123955, Control_c, 10, 7, 47
4, 123993, Control_c, 10, 7, 46
4, 124030, Note_on_c, 10, 62, 0
4, 124030, Note_on_c, 10, 66, 0
4, 124030, Note_on_c, 10, 69, 0
4, 124032, Control_c, 10, 7, 45
4, 124070, Control_c, 10, 7, 44
4, 124108, Control_c, 10, 7, 43
4, 124128, Note_on_c, 10, 62, 110
4, 124128, Note_on_c, 10, 66, 110
4, 124128, Note_on_c, 10, 69, 110
4, 124147, Control_c, 10, 7, 42
4, 124185, Control_c, 10, 7, 41
4, 124222, Note_on_c, 10, 62, 0
4, 124222, Note_on_c, 10, 66, 0
4, 124222, Note_on_c, 10, 69, 0
4, 124224, Control_c, 10, 7, 40
4, 124224, Note_on_c, 10, 62, 110
4, 124224, Note_on_c, 10, 66, 110
4, 124224, Note_on_c, 10, 69, 110
4, 124262, Control_c, 10, 7, 39
4, 124300, Control_c, 10, 7, 38
4, 124318, Note_on_c, 10, 62, 0
4, 124318, Note_on_c, 10, 66, 0
4, 124318, Note_on_c, 10, 69, 0
4, 124320, Note_on_c, 10, 62, 110
4, 124320, Note_on_c, 10, 66, 110
4, 124320, Note_on_c, 10, 69, 110
4, 124339, Control_c, 10, 7, 37
4, 124377, Control_c, 10, 7, 36
4, 124414, Note_on_c, 10, 62, 0
4, 124414, Note_on_c, 10, 66, 0
4, 124414, Note_on_c, 10, 69, 0
4, 124416, Control_c, 10, 7, 35
4, 124454, Control_c, 10, 7, 34
4, 124492, Control_c, 10, 7, 33
4, 124512, Note_on_c, 10, 62, 110
4, 124512, Note_on_c, 10, 66, 110
4, 124512, Note_on_c, 10, 69, 110
4, 124531, Control_c, 10, 7, 32
4, 124569, Control_c, 10, 7, 31
4, 124606, Note_on_c, 10, 62, 0
4, 124606, Note_on_c, 10, 66, 0
4, 124606, Note_on_c, 10, 69, 0
4, 124608, Control_c, 10, 7, 30
4, 124608, Control_c, 10, 7, 30
4, 124608, Note_on_c, 10, 62, 110
4, 124608, Note_on_c, 10, 66, 110
4, 124608, Note_on_c, 10, 69, 110
4, 124650, Control_c, 10, 7, 29
4, 124693, Control_c, 10, 7, 28
4, 124702, Note_on_c, 10, 62, 0
4, 124702, Note_on_c, 10, 66, 0
4, 124702, Note_on_c, 10, 69, 0
4, 124704, Note_on_c, 10, 62, 110
4, 124704, Note_on_c, 10, 66, 110
4, 124704, Note_on_c, 10, 69, 110
4, 124736, Control_c, 10, 7, 27
4, 124778, Control_c, 10, 7, 26
4, 124798, Note_on_c, 10, 62, 0
4, 124798, Note_on_c, 10, 66, 0
4, 124798, Note_on_c, 10, 69, 0
4, 124821, Control_c, 10, 7, 25
4, 124864, Control_c, 10, 7, 24
4, 124896, Note_on_c, 10, 62, 110
4, 124896, Note_on_c, 10, 66, 110
4, 124896, Note_on_c, 10, 69, 110
4, 124906, Control_c, 10, 7, 23
4, 124949, Control_c, 10, 7, 22
4, 124990, Note_on_c, 10, 62, 0
4, 124990, Note_on_c, 10, 66, 0
4, 124990, Note_on_c, 10, 69, 0
4, 124992, Control_c, 10, 7, 21
4, 124992, Note_on_c, 10, 62, 110
4, 124992, Note_on_c, 10, 66, 110
4, 124992, Note_on_c, 10, 69, 110
4, 125034, Control_c, 10, 7, 20
4, 125077, Control_c, 10, 7, 19
4, 125086, Note_on_c, 10, 62, 0
4, 125086, Note_on_c, 10, 66, 0
4, 125086, Note_on_c, 10, 69, 0
4, 125088, Note_on_c, 10, 62, 110
4, 125088, Note_on_c, 10, 66, 110
4, 125088, Note_on_c, 10, 69, 110
4, 125120, Control_c, 10, 7, 18
4, 125162, Control_c, 10, 7, 17
4, 125182, Note_on_c, 10, 62, 0
4, 125182, Note_on_c, 10, 66, 0
4, 125182, Note_on_c, 10, 69, 0
4, 125184, Note_on_c, 10, 62, 110
4, 125184, Note_on_c, 10, 66, 110
4, 125184, Note_on_c, 10, 69, 110
4, 125205, Control_c, 10, 7, 16
4, 125248, Control_c, 10, 7, 15
4, 125278, Note_on_c, 10, 62, 0
4, 125278, Note_on_c, 10, 66, 0
4, 125278, Note_on_c, 10, 69, 0
4, 125290, Control_c, 10, 7, 14
4, 125333, Control_c, 10, 7, 13
4, 125376, Control_c, 10, 7, 12
4, 125376, Control_c, 10, 7, 12
4, 125376, Note_on_c, 10, 57, 110
4, 125376, Note_on_c, 10, 61, 110
4, 125376, Note_on_c, 10, 64, 110
4, 125440, Control_c, 10, 7, 11
4, 125470, Note_on_c, 10, 57, 0
4, 125470, Note_on_c, 10, 61, 0
4, 125470, Note_on_c, 10, 64, 0
4, 125472, Note_on_c, 10, 57, 110
4, 125472, Note_on_c, 10, 61, 110
4, 125472, Note_on_c, 10, 64, 110
4, 125504, Control_c, 10, 7, 10
4, 125566, Note_on_c, 10, 57, 0
4, 125566, Note_on_c, 10, 61, 0
4, 125566, Note_on_c, 10, 64, 0
4, 125568, Control_c, 10, 7, 9
4, 125632, Control_c, 10, 7, 8
4, 125664, Note_on_c, 10, 57, 110
4, 125664, Note_on_c, 10, 61, 110
4, 125664, Note_on_c, 10, 64, 110
4, 125696, Control_c, 10, 7, 7
4, 125758, Note_on_c, 10, 57, 0
4, 125758, Note_on_c, 10, 61, 0
4, 125758, Note_on_c, 10, 64, 0
4, 125760, Control_c, 10, 7, 6
4, 125760, Note_on_c, 10, 57, 110
4, 125760, Note_on_c, 10, 61, 110
4, 125760, Note_on_c, 10, 64, 110
4, 125824, Control_c, 10, 7, 5
4, 125854, Note_on_c, 10, 57, 0
4, 125854, Note_on_c, 10, 61, 0
4, 125854, Note_on_c, 10, 64, 0
4, 125856, Note_on_c, 10, 57, 110
4, 125856, Note_on_c, 10, 61, 110
4, 125856, Note_on_c, 10, 64, 110
4, 125888, Control_c, 10, 7, 4
4, 125950, Note_on_c, 10, 57, 0
4, 125950, Note_on_c, 10, 61, 0
4, 125950, Note_on_c, 10, 64, 0
4, 125952, Control_c, 10, 7, 3
4, 126016, Control_c, 10, 7, 2
4, 126048, Note_on_c, 10, 57, 110
4, 126048, Note_on_c, 10, 61, 110
4, 126048, Note_on_c, 10, 64, 110
4, 126080, Control_c, 10, 7, 1
4, 126142, Note_on_c, 10, 57, 0
4, 126142, Note_on_c, 10, 61, 0
4, 126142, Note_on_c, 10, 64, 0
4, 126144, Control_c, 10, 7, 0
4, 126144, Note_on_c, 10, 57, 110
4, 126144, Note_on_c, 10, 61, 110
4, 126144, Note_on_c, 10, 64, 110
4, 126238, Note_on_c, 10, 57, 0
4, 126238, Note_on_c, 10, 61, 0
4, 126238, Note_on_c, 10, 64, 0
4, 126240, Note_on_c, 10, 57, 110
4, 126240, Note_on_c, 10, 61, 110
4, 126240, Note_on_c, 10, 64, 110
4, 126334, Note_on_c, 10, 57, 0
4, 126334, Note_on_c, 10, 61, 0
4, 126334, Note_on_c, 10, 64, 0
4, 126432, Note_on_c, 10, 57, 110
4, 126432, Note_on_c, 10, 61, 110
4, 126432, Note_on_c, 10, 64, 110
4, 126526, Note_on_c, 10, 57, 0
4, 126526, Note_on_c, 10, 61, 0
4, 126526, Note_on_c, 10, 64, 0
4, 126528, Note_on_c, 10, 57, 110
4, 126528, Note_on_c, 10, 61, 110
4, 126528, Note_on_c, 10, 64, 110
4, 126622, Note_on_c, 10, 57, 0
4, 126622, Note_on_c, 10, 61, 0
4, 126622, Note_on_c, 10, 64, 0
4, 126720, Note_on_c, 10, 58, 110
4, 126720, Note_on_c, 10, 62, 110
4, 126720, Note_on_c, 10, 65, 110
4, 126814, Note_on_c, 10, 58, 0
4, 126814, Note_on_c, 10, 62, 0
4, 126814, Note_on_c, 10, 65, 0
4, 126814, End_track
5, 0, Start_track
5, 0, MIDI_port, 0
5, 0, Title_t, "Staff-4"
5, 0, Program_c, 11, 34
5, 0, Control_c, 11, 7, 127
5, 0, Control_c, 11, 10, 64
5, 5568, Note_on_c, 11, 47, 110
5, 5662, Note_on_c, 11, 47, 0
5, 5664, Note_on_c, 11, 47, 110
5, 5758, Note_on_c, 11, 47, 0
5, 5856, Note_on_c, 11, 45, 110
5, 5950, Note_on_c, 11, 45, 0
5, 5952, Note_on_c, 11, 47, 110
5, 6046, Note_on_c, 11, 47, 0
5, 6048, Note_on_c, 11, 47, 110
5, 6142, Note_on_c, 11, 47, 0
5, 6240, Note_on_c, 11, 42, 110
5, 6334, Note_on_c, 11, 42, 0
5, 6336, Note_on_c, 11, 47, 110
5, 6430, Note_on_c, 11, 47, 0
5, 6432, Note_on_c, 11, 47, 110
5, 6526, Note_on_c, 11, 47, 0
5, 6624, Note_on_c, 11, 47, 110
5, 6718, Note_on_c, 11, 47, 0
5, 6720, Note_on_c, 11, 47, 110
5, 6814, Note_on_c, 11, 47, 0
5, 6816, Note_on_c, 11, 42, 110
5, 6910, Note_on_c, 11, 42, 0
5, 6912, Note_on_c, 11, 47, 110
5, 7072, Note_on_c, 11, 47, 0
5, 7104, Note_on_c, 11, 45, 110
5, 7198, Note_on_c, 11, 45, 0
5, 7200, Note_on_c, 11, 45, 110
5, 7294, Note_on_c, 11, 45, 0
5, 7392, Note_on_c, 11, 45, 110
5, 7486, Note_on_c, 11, 45, 0
5, 7488, Note_on_c, 11, 45, 110
5, 7582, Note_on_c, 11, 45, 0
5, 7584, Note_on_c, 11, 40, 110
5, 7678, Note_on_c, 11, 40, 0
5, 7680, Note_on_c, 11, 43, 110
5, 7774, Note_on_c, 11, 43, 0
5, 7776, Note_on_c, 11, 45, 110
5, 7870, Note_on_c, 11, 45, 0
5, 7872, Note_on_c, 11, 40, 110
5, 7966, Note_on_c, 11, 40, 0
5, 7968, Note_on_c, 11, 40, 110
5, 8062, Note_on_c, 11, 40, 0
5, 8160, Note_on_c, 11, 40, 110
5, 8254, Note_on_c, 11, 40, 0
5, 8256, Note_on_c, 11, 40, 110
5, 8350, Note_on_c, 11, 40, 0
5, 8352, Note_on_c, 11, 35, 110
5, 8446, Note_on_c, 11, 35, 0
5, 8448, Note_on_c, 11, 38, 110
5, 8542, Note_on_c, 11, 38, 0
5, 8544, Note_on_c, 11, 40, 110
5, 8638, Note_on_c, 11, 40, 0
5, 8640, Note_on_c, 11, 43, 110
5, 8734, Note_on_c, 11, 43, 0
5, 8736, Note_on_c, 11, 43, 110
5, 8830, Note_on_c, 11, 43, 0
5, 8928, Note_on_c, 11, 43, 110
5, 9022, Note_on_c, 11, 43, 0
5, 9024, Note_on_c, 11, 43, 110
5, 9118, Note_on_c, 11, 43, 0
5, 9120, Note_on_c, 11, 38, 110
5, 9214, Note_on_c, 11, 38, 0
5, 9216, Note_on_c, 11, 41, 110
5, 9310, Note_on_c, 11, 41, 0
5, 9312, Note_on_c, 11, 43, 110
5, 9406, Note_on_c, 11, 43, 0
5, 9408, Note_on_c, 11, 41, 110
5, 9568, Note_on_c, 11, 41, 0
5, 9600, Note_on_c, 11, 40, 110
5, 9760, Note_on_c, 11, 40, 0
5, 9792, Note_on_c, 11, 38, 110
5, 9952, Note_on_c, 11, 38, 0
5, 9984, Note_on_c, 11, 36, 110
5, 10144, Note_on_c, 11, 36, 0
5, 10176, Note_on_c, 11, 34, 110
5, 10270, Note_on_c, 11, 34, 0
5, 10272, Note_on_c, 11, 34, 110
5, 10366, Note_on_c, 11, 34, 0
5, 10464, Note_on_c, 11, 34, 110
5, 10558, Note_on_c, 11, 34, 0
5, 10560, Note_on_c, 11, 34, 110
5, 10654, Note_on_c, 11, 34, 0
5, 10656, Note_on_c, 11, 34, 110
5, 10750, Note_on_c, 11, 34, 0
5, 10944, Note_on_c, 11, 37, 110
5, 11038, Note_on_c, 11, 37, 0
5, 11040, Note_on_c, 11, 37, 110
5, 11134, Note_on_c, 11, 37, 0
5, 11232, Note_on_c, 11, 37, 110
5, 11326, Note_on_c, 11, 37, 0
5, 11328, Note_on_c, 11, 37, 110
5, 11422, Note_on_c, 11, 37, 0
5, 11424, Note_on_c, 11, 32, 110
5, 11518, Note_on_c, 11, 32, 0
5, 11520, Note_on_c, 11, 35, 110
5, 11614, Note_on_c, 11, 35, 0
5, 11616, Note_on_c, 11, 42, 110
5, 11710, Note_on_c, 11, 42, 0
5, 11712, Note_on_c, 11, 47, 110
5, 11806, Note_on_c, 11, 47, 0
5, 11808, Note_on_c, 11, 47, 110
5, 11902, Note_on_c, 11, 47, 0
5, 12000, Note_on_c, 11, 45, 110
5, 12094, Note_on_c, 11, 45, 0
5, 12096, Note_on_c, 11, 47, 110
5, 12190, Note_on_c, 11, 47, 0
5, 12192, Note_on_c, 11, 47, 110
5, 12286, Note_on_c, 11, 47, 0
5, 12384, Note_on_c, 11, 42, 110
5, 12478, Note_on_c, 11, 42, 0
5, 12480, Note_on_c, 11, 47, 110
5, 12574, Note_on_c, 11, 47, 0
5, 12576, Note_on_c, 11, 47, 110
5, 12670, Note_on_c, 11, 47, 0
5, 12768, Note_on_c, 11, 47, 110
5, 12862, Note_on_c, 11, 47, 0
5, 12864, Note_on_c, 11, 47, 110
5, 12958, Note_on_c, 11, 47, 0
5, 12960, Note_on_c, 11, 42, 110
5, 13054, Note_on_c, 11, 42, 0
5, 13056, Note_on_c, 11, 47, 110
5, 13216, Note_on_c, 11, 47, 0
5, 13248, Note_on_c, 11, 45, 110
5, 13342, Note_on_c, 11, 45, 0
5, 13344, Note_on_c, 11, 45, 110
5, 13438, Note_on_c, 11, 45, 0
5, 13536, Note_on_c, 11, 45, 110
5, 13630, Note_on_c, 11, 45, 0
5, 13632, Note_on_c, 11, 45, 110
5, 13726, Note_on_c, 11, 45, 0
5, 13728, Note_on_c, 11, 40, 110
5, 13822, Note_on_c, 11, 40, 0
5, 13824, Note_on_c, 11, 43, 110
5, 13918, Note_on_c, 11, 43, 0
5, 13920, Note_on_c, 11, 45, 110
5, 14014, Note_on_c, 11, 45, 0
5, 14016, Note_on_c, 11, 40, 110
5, 14110, Note_on_c, 11, 40, 0
5, 14112, Note_on_c, 11, 40, 110
5, 14206, Note_on_c, 11, 40, 0
5, 14304, Note_on_c, 11, 40, 110
5, 14398, Note_on_c, 11, 40, 0
5, 14400, Note_on_c, 11, 40, 110
5, 14494, Note_on_c, 11, 40, 0
5, 14496, Note_on_c, 11, 35, 110
5, 14590, Note_on_c, 11, 35, 0
5, 14592, Note_on_c, 11, 38, 110
5, 14686, Note_on_c, 11, 38, 0
5, 14688, Note_on_c, 11, 40, 110
5, 14782, Note_on_c, 11, 40, 0
5, 14784, Note_on_c, 11, 43, 110
5, 14878, Note_on_c, 11, 43, 0
5, 14880, Note_on_c, 11, 43, 110
5, 14974, Note_on_c, 11, 43, 0
5, 15072, Note_on_c, 11, 43, 110
5, 15166, Note_on_c, 11, 43, 0
5, 15168, Note_on_c, 11, 43, 110
5, 15262, Note_on_c, 11, 43, 0
5, 15264, Note_on_c, 11, 38, 110
5, 15358, Note_on_c, 11, 38, 0
5, 15360, Note_on_c, 11, 41, 110
5, 15454, Note_on_c, 11, 41, 0
5, 15456, Note_on_c, 11, 43, 110
5, 15550, Note_on_c, 11, 43, 0
5, 15552, Note_on_c, 11, 41, 110
5, 15646, Note_on_c, 11, 41, 0
5, 15648, Note_on_c, 11, 41, 110
5, 15742, Note_on_c, 11, 41, 0
5, 15840, Note_on_c, 11, 41, 110
5, 15934, Note_on_c, 11, 41, 0
5, 15936, Note_on_c, 11, 41, 110
5, 16030, Note_on_c, 11, 41, 0
5, 16032, Note_on_c, 11, 41, 110
5, 16126, Note_on_c, 11, 41, 0
5, 16320, Note_on_c, 11, 34, 110
5, 16414, Note_on_c, 11, 34, 0
5, 16416, Note_on_c, 11, 34, 110
5, 16510, Note_on_c, 11, 34, 0
5, 16608, Note_on_c, 11, 34, 110
5, 16702, Note_on_c, 11, 34, 0
5, 16704, Note_on_c, 11, 34, 110
5, 16798, Note_on_c, 11, 34, 0
5, 16800, Note_on_c, 11, 34, 110
5, 16894, Note_on_c, 11, 34, 0
5, 17088, Note_on_c, 11, 37, 110
5, 17182, Note_on_c, 11, 37, 0
5, 17184, Note_on_c, 11, 37, 110
5, 17278, Note_on_c, 11, 37, 0
5, 17376, Note_on_c, 11, 37, 110
5, 17470, Note_on_c, 11, 37, 0
5, 17472, Note_on_c, 11, 37, 110
5, 17566, Note_on_c, 11, 37, 0
5, 17568, Note_on_c, 11, 32, 110
5, 17662, Note_on_c, 11, 32, 0
5, 17664, Note_on_c, 11, 35, 110
5, 17758, Note_on_c, 11, 35, 0
5, 17760, Note_on_c, 11, 42, 110
5, 17854, Note_on_c, 11, 42, 0
5, 17856, Note_on_c, 11, 47, 110
5, 17950, Note_on_c, 11, 47, 0
5, 17952, Note_on_c, 11, 47, 110
5, 18046, Note_on_c, 11, 47, 0
5, 18144, Note_on_c, 11, 45, 110
5, 18238, Note_on_c, 11, 45, 0
5, 18240, Note_on_c, 11, 47, 110
5, 18334, Note_on_c, 11, 47, 0
5, 18336, Note_on_c, 11, 47, 110
5, 18430, Note_on_c, 11, 47, 0
5, 18528, Note_on_c, 11, 42, 110
5, 18622, Note_on_c, 11, 42, 0
5, 18624, Note_on_c, 11, 47, 110
5, 18718, Note_on_c, 11, 47, 0
5, 18720, Note_on_c, 11, 47, 110
5, 18814, Note_on_c, 11, 47, 0
5, 18912, Note_on_c, 11, 47, 110
5, 19006, Note_on_c, 11, 47, 0
5, 19008, Note_on_c, 11, 47, 110
5, 19102, Note_on_c, 11, 47, 0
5, 19104, Note_on_c, 11, 42, 110
5, 19198, Note_on_c, 11, 42, 0
5, 19200, Note_on_c, 11, 47, 110
5, 19360, Note_on_c, 11, 47, 0
5, 19392, Note_on_c, 11, 45, 110
5, 19486, Note_on_c, 11, 45, 0
5, 19488, Note_on_c, 11, 45, 110
5, 19582, Note_on_c, 11, 45, 0
5, 19680, Note_on_c, 11, 45, 110
5, 19774, Note_on_c, 11, 45, 0
5, 19776, Note_on_c, 11, 45, 110
5, 19870, Note_on_c, 11, 45, 0
5, 19872, Note_on_c, 11, 40, 110
5, 19966, Note_on_c, 11, 40, 0
5, 19968, Note_on_c, 11, 43, 110
5, 20062, Note_on_c, 11, 43, 0
5, 20064, Note_on_c, 11, 45, 110
5, 20158, Note_on_c, 11, 45, 0
5, 20160, Note_on_c, 11, 40, 110
5, 20254, Note_on_c, 11, 40, 0
5, 20256, Note_on_c, 11, 40, 110
5, 20350, Note_on_c, 11, 40, 0
5, 20448, Note_on_c, 11, 40, 110
5, 20542, Note_on_c, 11, 40, 0
5, 20544, Note_on_c, 11, 40, 110
5, 20638, Note_on_c, 11, 40, 0
5, 20640, Note_on_c, 11, 35, 110
5, 20734, Note_on_c, 11, 35, 0
5, 20736, Note_on_c, 11, 38, 110
5, 20830, Note_on_c, 11, 38, 0
5, 20832, Note_on_c, 11, 40, 110
5, 20926, Note_on_c, 11, 40, 0
5, 20928, Note_on_c, 11, 43, 110
5, 21022, Note_on_c, 11, 43, 0
5, 21024, Note_on_c, 11, 43, 110
5, 21118, Note_on_c, 11, 43, 0
5, 21216, Note_on_c, 11, 43, 110
5, 21310, Note_on_c, 11, 43, 0
5, 21312, Note_on_c, 11, 43, 110
5, 21406, Note_on_c, 11, 43, 0
5, 21408, Note_on_c, 11, 38, 110
5, 21502, Note_on_c, 11, 38, 0
5, 21504, Note_on_c, 11, 41, 110
5, 21598, Note_on_c, 11, 41, 0
5, 21600, Note_on_c, 11, 43, 110
5, 21694, Note_on_c, 11, 43, 0
5, 21696, Note_on_c, 11, 41, 110
5, 21790, Note_on_c, 11, 41, 0
5, 21792, Note_on_c, 11, 41, 110
5, 21886, Note_on_c, 11, 41, 0
5, 21984, Note_on_c, 11, 41, 110
5, 22078, Note_on_c, 11, 41, 0
5, 22080, Note_on_c, 11, 41, 110
5, 22174, Note_on_c, 11, 41, 0
5, 22176, Note_on_c, 11, 41, 110
5, 22270, Note_on_c, 11, 41, 0
5, 22464, Note_on_c, 11, 34, 110
5, 22558, Note_on_c, 11, 34, 0
5, 22560, Note_on_c, 11, 34, 110
5, 22654, Note_on_c, 11, 34, 0
5, 22752, Note_on_c, 11, 34, 110
5, 22846, Note_on_c, 11, 34, 0
5, 22848, Note_on_c, 11, 34, 110
5, 22942, Note_on_c, 11, 34, 0
5, 22944, Note_on_c, 11, 34, 110
5, 23038, Note_on_c, 11, 34, 0
5, 23232, Note_on_c, 11, 33, 110
5, 23326, Note_on_c, 11, 33, 0
5, 23328, Note_on_c, 11, 33, 110
5, 23422, Note_on_c, 11, 33, 0
5, 23424, Note_on_c, 11, 45, 110
5, 23518, Note_on_c, 11, 45, 0
5, 23520, Note_on_c, 11, 33, 110
5, 23614, Note_on_c, 11, 33, 0
5, 23616, Note_on_c, 11, 33, 110
5, 23710, Note_on_c, 11, 33, 0
5, 23712, Note_on_c, 11, 33, 110
5, 23806, Note_on_c, 11, 33, 0
5, 24000, Note_on_c, 11, 33, 110
5, 24094, Note_on_c, 11, 33, 0
5, 24096, Note_on_c, 11, 33, 110
5, 24190, Note_on_c, 11, 33, 0
5, 24192, Note_on_c, 11, 45, 110
5, 24352, Note_on_c, 11, 45, 0
5, 24384, Note_on_c, 11, 45, 110
5, 24478, Note_on_c, 11, 45, 0
5, 24480, Note_on_c, 11, 37, 110
5, 24574, Note_on_c, 11, 37, 0
5, 24576, Note_on_c, 11, 40, 110
5, 24670, Note_on_c, 11, 40, 0
5, 24672, Note_on_c, 11, 42, 110
5, 24766, Note_on_c, 11, 42, 0
5, 24768, Note_on_c, 11, 37, 110
5, 24862, Note_on_c, 11, 37, 0
5, 24864, Note_on_c, 11, 37, 110
5, 24958, Note_on_c, 11, 37, 0
5, 25056, Note_on_c, 11, 35, 110
5, 25150, Note_on_c, 11, 35, 0
5, 25152, Note_on_c, 11, 37, 110
5, 25246, Note_on_c, 11, 37, 0
5, 25248, Note_on_c, 11, 37, 110
5, 25342, Note_on_c, 11, 37, 0
5, 25440, Note_on_c, 11, 32, 110
5, 25534, Note_on_c, 11, 32, 0
5, 25536, Note_on_c, 11, 37, 110
5, 25630, Note_on_c, 11, 37, 0
5, 25632, Note_on_c, 11, 37, 110
5, 25726, Note_on_c, 11, 37, 0
5, 25824, Note_on_c, 11, 35, 110
5, 25918, Note_on_c, 11, 35, 0
5, 25920, Note_on_c, 11, 37, 110
5, 26014, Note_on_c, 11, 37, 0
5, 26016, Note_on_c, 11, 37, 110
5, 26110, Note_on_c, 11, 37, 0
5, 26112, Note_on_c, 11, 35, 110
5, 26272, Note_on_c, 11, 35, 0
5, 26304, Note_on_c, 11, 35, 110
5, 26398, Note_on_c, 11, 35, 0
5, 26400, Note_on_c, 11, 35, 110
5, 26494, Note_on_c, 11, 35, 0
5, 26592, Note_on_c, 11, 35, 110
5, 26686, Note_on_c, 11, 35, 0
5, 26688, Note_on_c, 11, 35, 110
5, 26782, Note_on_c, 11, 35, 0
5, 26784, Note_on_c, 11, 35, 110
5, 26878, Note_on_c, 11, 35, 0
5, 26880, Note_on_c, 11, 33, 110
5, 27040, Note_on_c, 11, 33, 0
5, 27072, Note_on_c, 11, 33, 110
5, 27166, Note_on_c, 11, 33, 0
5, 27168, Note_on_c, 11, 33, 110
5, 27262, Note_on_c, 11, 33, 0
5, 27360, Note_on_c, 11, 33, 110
5, 27454, Note_on_c, 11, 33, 0
5, 27456, Note_on_c, 11, 45, 110
5, 27550, Note_on_c, 11, 45, 0
5, 27552, Note_on_c, 11, 33, 110
5, 27646, Note_on_c, 11, 33, 0
5, 27648, Note_on_c, 11, 35, 110
5, 27808, Note_on_c, 11, 35, 0
5, 27840, Note_on_c, 11, 37, 110
5, 27934, Note_on_c, 11, 37, 0
5, 27936, Note_on_c, 11, 37, 110
5, 28030, Note_on_c, 11, 37, 0
5, 28128, Note_on_c, 11, 35, 110
5, 28222, Note_on_c, 11, 35, 0
5, 28224, Note_on_c, 11, 37, 110
5, 28318, Note_on_c, 11, 37, 0
5, 28320, Note_on_c, 11, 37, 110
5, 28414, Note_on_c, 11, 37, 0
5, 28512, Note_on_c, 11, 37, 110
5, 28606, Note_on_c, 11, 37, 0
5, 28608, Note_on_c, 11, 40, 110
5, 28702, Note_on_c, 11, 40, 0
5, 28704, Note_on_c, 11, 40, 110
5, 28798, Note_on_c, 11, 40, 0
5, 28896, Note_on_c, 11, 40, 110
5, 28990, Note_on_c, 11, 40, 0
5, 28992, Note_on_c, 11, 40, 110
5, 29086, Note_on_c, 11, 40, 0
5, 29088, Note_on_c, 11, 40, 110
5, 29182, Note_on_c, 11, 40, 0
5, 29280, Note_on_c, 11, 40, 110
5, 29374, Note_on_c, 11, 40, 0
5, 29376, Note_on_c, 11, 33, 110
5, 29470, Note_on_c, 11, 33, 0
5, 29472, Note_on_c, 11, 33, 110
5, 29566, Note_on_c, 11, 33, 0
5, 29664, Note_on_c, 11, 33, 110
5, 29758, Note_on_c, 11, 33, 0
5, 29760, Note_on_c, 11, 33, 110
5, 29854, Note_on_c, 11, 33, 0
5, 29856, Note_on_c, 11, 33, 110
5, 29950, Note_on_c, 11, 33, 0
5, 29952, Note_on_c, 11, 33, 110
5, 30046, Note_on_c, 11, 33, 0
5, 30048, Note_on_c, 11, 34, 110
5, 30142, Note_on_c, 11, 34, 0
5, 30144, Note_on_c, 11, 35, 110
5, 30238, Note_on_c, 11, 35, 0
5, 30240, Note_on_c, 11, 35, 110
5, 30334, Note_on_c, 11, 35, 0
5, 30432, Note_on_c, 11, 35, 110
5, 30526, Note_on_c, 11, 35, 0
5, 30528, Note_on_c, 11, 35, 110
5, 30622, Note_on_c, 11, 35, 0
5, 30624, Note_on_c, 11, 39, 110
5, 30718, Note_on_c, 11, 39, 0
5, 30720, Note_on_c, 11, 42, 110
5, 30880, Note_on_c, 11, 42, 0
5, 30912, Note_on_c, 11, 37, 110
5, 31006, Note_on_c, 11, 37, 0
5, 31008, Note_on_c, 11, 37, 110
5, 31102, Note_on_c, 11, 37, 0
5, 31200, Note_on_c, 11, 35, 110
5, 31294, Note_on_c, 11, 35, 0
5, 31296, Note_on_c, 11, 37, 110
5, 31390, Note_on_c, 11, 37, 0
5, 31392, Note_on_c, 11, 37, 110
5, 31486, Note_on_c, 11, 37, 0
5, 31584, Note_on_c, 11, 32, 110
5, 31678, Note_on_c, 11, 32, 0
5, 31680, Note_on_c, 11, 37, 110
5, 31774, Note_on_c, 11, 37, 0
5, 31776, Note_on_c, 11, 37, 110
5, 31870, Note_on_c, 11, 37, 0
5, 31968, Note_on_c, 11, 35, 110
5, 32062, Note_on_c, 11, 35, 0
5, 32064, Note_on_c, 11, 37, 110
5, 32158, Note_on_c, 11, 37, 0
5, 32160, Note_on_c, 11, 37, 110
5, 32254, Note_on_c, 11, 37, 0
5, 32256, Note_on_c, 11, 35, 110
5, 32416, Note_on_c, 11, 35, 0
5, 32448, Note_on_c, 11, 35, 110
5, 32542, Note_on_c, 11, 35, 0
5, 32544, Note_on_c, 11, 35, 110
5, 32638, Note_on_c, 11, 35, 0
5, 32736, Note_on_c, 11, 35, 110
5, 32830, Note_on_c, 11, 35, 0
5, 32832, Note_on_c, 11, 35, 110
5, 32926, Note_on_c, 11, 35, 0
5, 32928, Note_on_c, 11, 35, 110
5, 33022, Note_on_c, 11, 35, 0
5, 33024, Note_on_c, 11, 33, 110
5, 33184, Note_on_c, 11, 33, 0
5, 33216, Note_on_c, 11, 33, 110
5, 33310, Note_on_c, 11, 33, 0
5, 33312, Note_on_c, 11, 33, 110
5, 33406, Note_on_c, 11, 33, 0
5, 33504, Note_on_c, 11, 33, 110
5, 33598, Note_on_c, 11, 33, 0
5, 33600, Note_on_c, 11, 45, 110
5, 33694, Note_on_c, 11, 45, 0
5, 33696, Note_on_c, 11, 33, 110
5, 33790, Note_on_c, 11, 33, 0
5, 33792, Note_on_c, 11, 35, 110
5, 33952, Note_on_c, 11, 35, 0
5, 33984, Note_on_c, 11, 37, 110
5, 34078, Note_on_c, 11, 37, 0
5, 34080, Note_on_c, 11, 37, 110
5, 34174, Note_on_c, 11, 37, 0
5, 34272, Note_on_c, 11, 35, 110
5, 34366, Note_on_c, 11, 35, 0
5, 34368, Note_on_c, 11, 37, 110
5, 34462, Note_on_c, 11, 37, 0
5, 34464, Note_on_c, 11, 37, 110
5, 34558, Note_on_c, 11, 37, 0
5, 34656, Note_on_c, 11, 37, 110
5, 34750, Note_on_c, 11, 37, 0
5, 34752, Note_on_c, 11, 40, 110
5, 34846, Note_on_c, 11, 40, 0
5, 34848, Note_on_c, 11, 40, 110
5, 34942, Note_on_c, 11, 40, 0
5, 35040, Note_on_c, 11, 40, 110
5, 35134, Note_on_c, 11, 40, 0
5, 35136, Note_on_c, 11, 40, 110
5, 35230, Note_on_c, 11, 40, 0
5, 35232, Note_on_c, 11, 40, 110
5, 35326, Note_on_c, 11, 40, 0
5, 35424, Note_on_c, 11, 40, 110
5, 35518, Note_on_c, 11, 40, 0
5, 35520, Note_on_c, 11, 33, 110
5, 35614, Note_on_c, 11, 33, 0
5, 35616, Note_on_c, 11, 33, 110
5, 35710, Note_on_c, 11, 33, 0
5, 35808, Note_on_c, 11, 33, 110
5, 35902, Note_on_c, 11, 33, 0
5, 35904, Note_on_c, 11, 33, 110
5, 35998, Note_on_c, 11, 33, 0
5, 36000, Note_on_c, 11, 33, 110
5, 36094, Note_on_c, 11, 33, 0
5, 36096, Note_on_c, 11, 33, 110
5, 36190, Note_on_c, 11, 33, 0
5, 36192, Note_on_c, 11, 34, 110
5, 36286, Note_on_c, 11, 34, 0
5, 36288, Note_on_c, 11, 38, 110
5, 36382, Note_on_c, 11, 38, 0
5, 36384, Note_on_c, 11, 38, 110
5, 36478, Note_on_c, 11, 38, 0
5, 36576, Note_on_c, 11, 38, 110
5, 36670, Note_on_c, 11, 38, 0
5, 36672, Note_on_c, 11, 38, 110
5, 36766, Note_on_c, 11, 38, 0
5, 36768, Note_on_c, 11, 38, 110
5, 36862, Note_on_c, 11, 38, 0
5, 36960, Note_on_c, 11, 38, 110
5, 37054, Note_on_c, 11, 38, 0
5, 37056, Note_on_c, 11, 38, 110
5, 37150, Note_on_c, 11, 38, 0
5, 37152, Note_on_c, 11, 38, 110
5, 37246, Note_on_c, 11, 38, 0
5, 37344, Note_on_c, 11, 38, 110
5, 37438, Note_on_c, 11, 38, 0
5, 37440, Note_on_c, 11, 38, 110
5, 37534, Note_on_c, 11, 38, 0
5, 37536, Note_on_c, 11, 43, 110
5, 37630, Note_on_c, 11, 43, 0
5, 37632, Note_on_c, 11, 44, 110
5, 37792, Note_on_c, 11, 44, 0
5, 37824, Note_on_c, 11, 45, 110
5, 37918, Note_on_c, 11, 45, 0
5, 37920, Note_on_c, 11, 45, 110
5, 38014, Note_on_c, 11, 45, 0
5, 38112, Note_on_c, 11, 45, 110
5, 38206, Note_on_c, 11, 45, 0
5, 38208, Note_on_c, 11, 45, 110
5, 38302, Note_on_c, 11, 45, 0
5, 38304, Note_on_c, 11, 45, 110
5, 38398, Note_on_c, 11, 45, 0
5, 38496, Note_on_c, 11, 45, 110
5, 38590, Note_on_c, 11, 45, 0
5, 38592, Note_on_c, 11, 45, 110
5, 38686, Note_on_c, 11, 45, 0
5, 38688, Note_on_c, 11, 45, 110
5, 38782, Note_on_c, 11, 45, 0
5, 38880, Note_on_c, 11, 45, 110
5, 38974, Note_on_c, 11, 45, 0
5, 38976, Note_on_c, 11, 45, 110
5, 39070, Note_on_c, 11, 45, 0
5, 39072, Note_on_c, 11, 40, 110
5, 39166, Note_on_c, 11, 40, 0
5, 39168, Note_on_c, 11, 45, 110
5, 39262, Note_on_c, 11, 45, 0
5, 39264, Note_on_c, 11, 46, 110
5, 39358, Note_on_c, 11, 46, 0
5, 39360, Note_on_c, 11, 47, 110
5, 39454, Note_on_c, 11, 47, 0
5, 39456, Note_on_c, 11, 47, 110
5, 39550, Note_on_c, 11, 47, 0
5, 39648, Note_on_c, 11, 45, 110
5, 39742, Note_on_c, 11, 45, 0
5, 39744, Note_on_c, 11, 47, 110
5, 39838, Note_on_c, 11, 47, 0
5, 39840, Note_on_c, 11, 47, 110
5, 39934, Note_on_c, 11, 47, 0
5, 40032, Note_on_c, 11, 42, 110
5, 40126, Note_on_c, 11, 42, 0
5, 40128, Note_on_c, 11, 47, 110
5, 40222, Note_on_c, 11, 47, 0
5, 40224, Note_on_c, 11, 47, 110
5, 40318, Note_on_c, 11, 47, 0
5, 40416, Note_on_c, 11, 47, 110
5, 40510, Note_on_c, 11, 47, 0
5, 40512, Note_on_c, 11, 47, 110
5, 40606, Note_on_c, 11, 47, 0
5, 40608, Note_on_c, 11, 42, 110
5, 40702, Note_on_c, 11, 42, 0
5, 40704, Note_on_c, 11, 47, 110
5, 40864, Note_on_c, 11, 47, 0
5, 40896, Note_on_c, 11, 45, 110
5, 40990, Note_on_c, 11, 45, 0
5, 40992, Note_on_c, 11, 45, 110
5, 41086, Note_on_c, 11, 45, 0
5, 41184, Note_on_c, 11, 45, 110
5, 41278, Note_on_c, 11, 45, 0
5, 41280, Note_on_c, 11, 45, 110
5, 41374, Note_on_c, 11, 45, 0
5, 41376, Note_on_c, 11, 40, 110
5, 41470, Note_on_c, 11, 40, 0
5, 41472, Note_on_c, 11, 43, 110
5, 41566, Note_on_c, 11, 43, 0
5, 41568, Note_on_c, 11, 45, 110
5, 41662, Note_on_c, 11, 45, 0
5, 41664, Note_on_c, 11, 40, 110
5, 41758, Note_on_c, 11, 40, 0
5, 41760, Note_on_c, 11, 40, 110
5, 41854, Note_on_c, 11, 40, 0
5, 41952, Note_on_c, 11, 40, 110
5, 42046, Note_on_c, 11, 40, 0
5, 42048, Note_on_c, 11, 40, 110
5, 42142, Note_on_c, 11, 40, 0
5, 42144, Note_on_c, 11, 35, 110
5, 42238, Note_on_c, 11, 35, 0
5, 42240, Note_on_c, 11, 38, 110
5, 42334, Note_on_c, 11, 38, 0
5, 42336, Note_on_c, 11, 40, 110
5, 42430, Note_on_c, 11, 40, 0
5, 42432, Note_on_c, 11, 43, 110
5, 42526, Note_on_c, 11, 43, 0
5, 42528, Note_on_c, 11, 43, 110
5, 42622, Note_on_c, 11, 43, 0
5, 42720, Note_on_c, 11, 43, 110
5, 42814, Note_on_c, 11, 43, 0
5, 42816, Note_on_c, 11, 43, 110
5, 42910, Note_on_c, 11, 43, 0
5, 42912, Note_on_c, 11, 38, 110
5, 43006, Note_on_c, 11, 38, 0
5, 43008, Note_on_c, 11, 41, 110
5, 43102, Note_on_c, 11, 41, 0
5, 43104, Note_on_c, 11, 43, 110
5, 43198, Note_on_c, 11, 43, 0
5, 43200, Note_on_c, 11, 41, 110
5, 43294, Note_on_c, 11, 41, 0
5, 43296, Note_on_c, 11, 41, 110
5, 43390, Note_on_c, 11, 41, 0
5, 43488, Note_on_c, 11, 41, 110
5, 43582, Note_on_c, 11, 41, 0
5, 43584, Note_on_c, 11, 41, 110
5, 43678, Note_on_c, 11, 41, 0
5, 43680, Note_on_c, 11, 41, 110
5, 43774, Note_on_c, 11, 41, 0
5, 43968, Note_on_c, 11, 34, 110
5, 44062, Note_on_c, 11, 34, 0
5, 44064, Note_on_c, 11, 34, 110
5, 44158, Note_on_c, 11, 34, 0
5, 44256, Note_on_c, 11, 34, 110
5, 44350, Note_on_c, 11, 34, 0
5, 44352, Note_on_c, 11, 34, 110
5, 44446, Note_on_c, 11, 34, 0
5, 44448, Note_on_c, 11, 34, 110
5, 44542, Note_on_c, 11, 34, 0
5, 44736, Note_on_c, 11, 37, 110
5, 44830, Note_on_c, 11, 37, 0
5, 44832, Note_on_c, 11, 37, 110
5, 44926, Note_on_c, 11, 37, 0
5, 45024, Note_on_c, 11, 37, 110
5, 45118, Note_on_c, 11, 37, 0
5, 45120, Note_on_c, 11, 37, 110
5, 45214, Note_on_c, 11, 37, 0
5, 45216, Note_on_c, 11, 32, 110
5, 45310, Note_on_c, 11, 32, 0
5, 45312, Note_on_c, 11, 35, 110
5, 45406, Note_on_c, 11, 35, 0
5, 45408, Note_on_c, 11, 42, 110
5, 45502, Note_on_c, 11, 42, 0
5, 45504, Note_on_c, 11, 47, 110
5, 45598, Note_on_c, 11, 47, 0
5, 45600, Note_on_c, 11, 47, 110
5, 45694, Note_on_c, 11, 47, 0
5, 45792, Note_on_c, 11, 45, 110
5, 45886, Note_on_c, 11, 45, 0
5, 45888, Note_on_c, 11, 47, 110
5, 45982, Note_on_c, 11, 47, 0
5, 45984, Note_on_c, 11, 47, 110
5, 46078, Note_on_c, 11, 47, 0
5, 46176, Note_on_c, 11, 42, 110
5, 46270, Note_on_c, 11, 42, 0
5, 46272, Note_on_c, 11, 47, 110
5, 46366, Note_on_c, 11, 47, 0
5, 46368, Note_on_c, 11, 47, 110
5, 46462, Note_on_c, 11, 47, 0
5, 46560, Note_on_c, 11, 47, 110
5, 46654, Note_on_c, 11, 47, 0
5, 46656, Note_on_c, 11, 47, 110
5, 46750, Note_on_c, 11, 47, 0
5, 46752, Note_on_c, 11, 42, 110
5, 46846, Note_on_c, 11, 42, 0
5, 46848, Note_on_c, 11, 47, 110
5, 47008, Note_on_c, 11, 47, 0
5, 47040, Note_on_c, 11, 45, 110
5, 47134, Note_on_c, 11, 45, 0
5, 47136, Note_on_c, 11, 45, 110
5, 47230, Note_on_c, 11, 45, 0
5, 47328, Note_on_c, 11, 45, 110
5, 47422, Note_on_c, 11, 45, 0
5, 47424, Note_on_c, 11, 45, 110
5, 47518, Note_on_c, 11, 45, 0
5, 47520, Note_on_c, 11, 40, 110
5, 47614, Note_on_c, 11, 40, 0
5, 47616, Note_on_c, 11, 43, 110
5, 47710, Note_on_c, 11, 43, 0
5, 47712, Note_on_c, 11, 45, 110
5, 47806, Note_on_c, 11, 45, 0
5, 47808, Note_on_c, 11, 40, 110
5, 47902, Note_on_c, 11, 40, 0
5, 47904, Note_on_c, 11, 40, 110
5, 47998, Note_on_c, 11, 40, 0
5, 48096, Note_on_c, 11, 40, 110
5, 48190, Note_on_c, 11, 40, 0
5, 48192, Note_on_c, 11, 40, 110
5, 48286, Note_on_c, 11, 40, 0
5, 48288, Note_on_c, 11, 35, 110
5, 48382, Note_on_c, 11, 35, 0
5, 48384, Note_on_c, 11, 38, 110
5, 48478, Note_on_c, 11, 38, 0
5, 48480, Note_on_c, 11, 40, 110
5, 48574, Note_on_c, 11, 40, 0
5, 48576, Note_on_c, 11, 43, 110
5, 48670, Note_on_c, 11, 43, 0
5, 48672, Note_on_c, 11, 43, 110
5, 48766, Note_on_c, 11, 43, 0
5, 48864, Note_on_c, 11, 43, 110
5, 48958, Note_on_c, 11, 43, 0
5, 48960, Note_on_c, 11, 43, 110
5, 49054, Note_on_c, 11, 43, 0
5, 49056, Note_on_c, 11, 38, 110
5, 49150, Note_on_c, 11, 38, 0
5, 49152, Note_on_c, 11, 41, 110
5, 49246, Note_on_c, 11, 41, 0
5, 49248, Note_on_c, 11, 43, 110
5, 49342, Note_on_c, 11, 43, 0
5, 49344, Note_on_c, 11, 41, 110
5, 49438, Note_on_c, 11, 41, 0
5, 49440, Note_on_c, 11, 41, 110
5, 49534, Note_on_c, 11, 41, 0
5, 49632, Note_on_c, 11, 41, 110
5, 49726, Note_on_c, 11, 41, 0
5, 49728, Note_on_c, 11, 41, 110
5, 49822, Note_on_c, 11, 41, 0
5, 49824, Note_on_c, 11, 41, 110
5, 49918, Note_on_c, 11, 41, 0
5, 50112, Note_on_c, 11, 34, 110
5, 50206, Note_on_c, 11, 34, 0
5, 50208, Note_on_c, 11, 34, 110
5, 50302, Note_on_c, 11, 34, 0
5, 50400, Note_on_c, 11, 34, 110
5, 50494, Note_on_c, 11, 34, 0
5, 50496, Note_on_c, 11, 34, 110
5, 50590, Note_on_c, 11, 34, 0
5, 50592, Note_on_c, 11, 34, 110
5, 50686, Note_on_c, 11, 34, 0
5, 50880, Note_on_c, 11, 33, 110
5, 50974, Note_on_c, 11, 33, 0
5, 50976, Note_on_c, 11, 33, 110
5, 51070, Note_on_c, 11, 33, 0
5, 51072, Note_on_c, 11, 45, 110
5, 51166, Note_on_c, 11, 45, 0
5, 51168, Note_on_c, 11, 33, 110
5, 51262, Note_on_c, 11, 33, 0
5, 51264, Note_on_c, 11, 33, 110
5, 51358, Note_on_c, 11, 33, 0
5, 51360, Note_on_c, 11, 33, 110
5, 51454, Note_on_c, 11, 33, 0
5, 51648, Note_on_c, 11, 33, 110
5, 51742, Note_on_c, 11, 33, 0
5, 51744, Note_on_c, 11, 33, 110
5, 51838, Note_on_c, 11, 33, 0
5, 51840, Note_on_c, 11, 45, 110
5, 52000, Note_on_c, 11, 45, 0
5, 52032, Note_on_c, 11, 45, 110
5, 52126, Note_on_c, 11, 45, 0
5, 52128, Note_on_c, 11, 37, 110
5, 52222, Note_on_c, 11, 37, 0
5, 52224, Note_on_c, 11, 40, 110
5, 52318, Note_on_c, 11, 40, 0
5, 52320, Note_on_c, 11, 42, 110
5, 52414, Note_on_c, 11, 42, 0
5, 52416, Note_on_c, 11, 37, 110
5, 52510, Note_on_c, 11, 37, 0
5, 52512, Note_on_c, 11, 37, 110
5, 52606, Note_on_c, 11, 37, 0
5, 52704, Note_on_c, 11, 35, 110
5, 52798, Note_on_c, 11, 35, 0
5, 52800, Note_on_c, 11, 37, 110
5, 52894, Note_on_c, 11, 37, 0
5, 52896, Note_on_c, 11, 37, 110
5, 52990, Note_on_c, 11, 37, 0
5, 53088, Note_on_c, 11, 32, 110
5, 53182, Note_on_c, 11, 32, 0
5, 53184, Note_on_c, 11, 37, 110
5, 53278, Note_on_c, 11, 37, 0
5, 53280, Note_on_c, 11, 37, 110
5, 53374, Note_on_c, 11, 37, 0
5, 53472, Note_on_c, 11, 35, 110
5, 53566, Note_on_c, 11, 35, 0
5, 53568, Note_on_c, 11, 37, 110
5, 53662, Note_on_c, 11, 37, 0
5, 53664, Note_on_c, 11, 37, 110
5, 53758, Note_on_c, 11, 37, 0
5, 53760, Note_on_c, 11, 35, 110
5, 53920, Note_on_c, 11, 35, 0
5, 53952, Note_on_c, 11, 35, 110
5, 54046, Note_on_c, 11, 35, 0
5, 54048, Note_on_c, 11, 35, 110
5, 54142, Note_on_c, 11, 35, 0
5, 54240, Note_on_c, 11, 35, 110
5, 54334, Note_on_c, 11, 35, 0
5, 54336, Note_on_c, 11, 35, 110
5, 54430, Note_on_c, 11, 35, 0
5, 54432, Note_on_c, 11, 35, 110
5, 54526, Note_on_c, 11, 35, 0
5, 54528, Note_on_c, 11, 33, 110
5, 54688, Note_on_c, 11, 33, 0
5, 54720, Note_on_c, 11, 33, 110
5, 54814, Note_on_c, 11, 33, 0
5, 54816, Note_on_c, 11, 33, 110
5, 54910, Note_on_c, 11, 33, 0
5, 55008, Note_on_c, 11, 33, 110
5, 55102, Note_on_c, 11, 33, 0
5, 55104, Note_on_c, 11, 45, 110
5, 55198, Note_on_c, 11, 45, 0
5, 55200, Note_on_c, 11, 33, 110
5, 55294, Note_on_c, 11, 33, 0
5, 55296, Note_on_c, 11, 35, 110
5, 55456, Note_on_c, 11, 35, 0
5, 55488, Note_on_c, 11, 37, 110
5, 55582, Note_on_c, 11, 37, 0
5, 55584, Note_on_c, 11, 37, 110
5, 55678, Note_on_c, 11, 37, 0
5, 55776, Note_on_c, 11, 35, 110
5, 55870, Note_on_c, 11, 35, 0
5, 55872, Note_on_c, 11, 37, 110
5, 55966, Note_on_c, 11, 37, 0
5, 55968, Note_on_c, 11, 37, 110
5, 56062, Note_on_c, 11, 37, 0
5, 56160, Note_on_c, 11, 37, 110
5, 56254, Note_on_c, 11, 37, 0
5, 56256, Note_on_c, 11, 40, 110
5, 56350, Note_on_c, 11, 40, 0
5, 56352, Note_on_c, 11, 40, 110
5, 56446, Note_on_c, 11, 40, 0
5, 56544, Note_on_c, 11, 40, 110
5, 56638, Note_on_c, 11, 40, 0
5, 56640, Note_on_c, 11, 40, 110
5, 56734, Note_on_c, 11, 40, 0
5, 56736, Note_on_c, 11, 40, 110
5, 56830, Note_on_c, 11, 40, 0
5, 56928, Note_on_c, 11, 40, 110
5, 57022, Note_on_c, 11, 40, 0
5, 57024, Note_on_c, 11, 33, 110
5, 57118, Note_on_c, 11, 33, 0
5, 57120, Note_on_c, 11, 33, 110
5, 57214, Note_on_c, 11, 33, 0
5, 57312, Note_on_c, 11, 33, 110
5, 57406, Note_on_c, 11, 33, 0
5, 57408, Note_on_c, 11, 33, 110
5, 57502, Note_on_c, 11, 33, 0
5, 57504, Note_on_c, 11, 33, 110
5, 57598, Note_on_c, 11, 33, 0
5, 57600, Note_on_c, 11, 33, 110
5, 57694, Note_on_c, 11, 33, 0
5, 57696, Note_on_c, 11, 34, 110
5, 57790, Note_on_c, 11, 34, 0
5, 57792, Note_on_c, 11, 35, 110
5, 57886, Note_on_c, 11, 35, 0
5, 57888, Note_on_c, 11, 35, 110
5, 57982, Note_on_c, 11, 35, 0
5, 58080, Note_on_c, 11, 35, 110
5, 58174, Note_on_c, 11, 35, 0
5, 58176, Note_on_c, 11, 35, 110
5, 58270, Note_on_c, 11, 35, 0
5, 58272, Note_on_c, 11, 39, 110
5, 58366, Note_on_c, 11, 39, 0
5, 58368, Note_on_c, 11, 42, 110
5, 58528, Note_on_c, 11, 42, 0
5, 58560, Note_on_c, 11, 37, 110
5, 58654, Note_on_c, 11, 37, 0
5, 58656, Note_on_c, 11, 37, 110
5, 58750, Note_on_c, 11, 37, 0
5, 58848, Note_on_c, 11, 35, 110
5, 58942, Note_on_c, 11, 35, 0
5, 58944, Note_on_c, 11, 37, 110
5, 59038, Note_on_c, 11, 37, 0
5, 59040, Note_on_c, 11, 37, 110
5, 59134, Note_on_c, 11, 37, 0
5, 59232, Note_on_c, 11, 32, 110
5, 59326, Note_on_c, 11, 32, 0
5, 59328, Note_on_c, 11, 37, 110
5, 59422, Note_on_c, 11, 37, 0
5, 59424, Note_on_c, 11, 37, 110
5, 59518, Note_on_c, 11, 37, 0
5, 59616, Note_on_c, 11, 35, 110
5, 59710, Note_on_c, 11, 35, 0
5, 59712, Note_on_c, 11, 37, 110
5, 59806, Note_on_c, 11, 37, 0
5, 59808, Note_on_c, 11, 37, 110
5, 59902, Note_on_c, 11, 37, 0
5, 59904, Note_on_c, 11, 35, 110
5, 60064, Note_on_c, 11, 35, 0
5, 60096, Note_on_c, 11, 35, 110
5, 60190, Note_on_c, 11, 35, 0
5, 60192, Note_on_c, 11, 35, 110
5, 60286, Note_on_c, 11, 35, 0
5, 60384, Note_on_c, 11, 35, 110
5, 60478, Note_on_c, 11, 35, 0
5, 60480, Note_on_c, 11, 35, 110
5, 60574, Note_on_c, 11, 35, 0
5, 60576, Note_on_c, 11, 35, 110
5, 60670, Note_on_c, 11, 35, 0
5, 60672, Note_on_c, 11, 33, 110
5, 60832, Note_on_c, 11, 33, 0
5, 60864, Note_on_c, 11, 33, 110
5, 60958, Note_on_c, 11, 33, 0
5, 60960, Note_on_c, 11, 33, 110
5, 61054, Note_on_c, 11, 33, 0
5, 61152, Note_on_c, 11, 33, 110
5, 61246, Note_on_c, 11, 33, 0
5, 61248, Note_on_c, 11, 45, 110
5, 61342, Note_on_c, 11, 45, 0
5, 61344, Note_on_c, 11, 33, 110
5, 61438, Note_on_c, 11, 33, 0
5, 61440, Note_on_c, 11, 35, 110
5, 61600, Note_on_c, 11, 35, 0
5, 61632, Note_on_c, 11, 37, 110
5, 61726, Note_on_c, 11, 37, 0
5, 61728, Note_on_c, 11, 37, 110
5, 61822, Note_on_c, 11, 37, 0
5, 61920, Note_on_c, 11, 35, 110
5, 62014, Note_on_c, 11, 35, 0
5, 62016, Note_on_c, 11, 37, 110
5, 62110, Note_on_c, 11, 37, 0
5, 62112, Note_on_c, 11, 37, 110
5, 62206, Note_on_c, 11, 37, 0
5, 62304, Note_on_c, 11, 37, 110
5, 62398, Note_on_c, 11, 37, 0
5, 62400, Note_on_c, 11, 40, 110
5, 62494, Note_on_c, 11, 40, 0
5, 62496, Note_on_c, 11, 40, 110
5, 62590, Note_on_c, 11, 40, 0
5, 62688, Note_on_c, 11, 40, 110
5, 62782, Note_on_c, 11, 40, 0
5, 62784, Note_on_c, 11, 40, 110
5, 62878, Note_on_c, 11, 40, 0
5, 62880, Note_on_c, 11, 40, 110
5, 62974, Note_on_c, 11, 40, 0
5, 63072, Note_on_c, 11, 40, 110
5, 63166, Note_on_c, 11, 40, 0
5, 63168, Note_on_c, 11, 33, 110
5, 63262, Note_on_c, 11, 33, 0
5, 63264, Note_on_c, 11, 33, 110
5, 63358, Note_on_c, 11, 33, 0
5, 63456, Note_on_c, 11, 33, 110
5, 63550, Note_on_c, 11, 33, 0
5, 63552, Note_on_c, 11, 33, 110
5, 63646, Note_on_c, 11, 33, 0
5, 63648, Note_on_c, 11, 33, 110
5, 63742, Note_on_c, 11, 33, 0
5, 63744, Note_on_c, 11, 33, 110
5, 63838, Note_on_c, 11, 33, 0
5, 63840, Note_on_c, 11, 34, 110
5, 63934, Note_on_c, 11, 34, 0
5, 63936, Note_on_c, 11, 38, 110
5, 64030, Note_on_c, 11, 38, 0
5, 64032, Note_on_c, 11, 38, 110
5, 64126, Note_on_c, 11, 38, 0
5, 64224, Note_on_c, 11, 38, 110
5, 64318, Note_on_c, 11, 38, 0
5, 64320, Note_on_c, 11, 38, 110
5, 64414, Note_on_c, 11, 38, 0
5, 64416, Note_on_c, 11, 38, 110
5, 64510, Note_on_c, 11, 38, 0
5, 64608, Note_on_c, 11, 38, 110
5, 64702, Note_on_c, 11, 38, 0
5, 64704, Note_on_c, 11, 38, 110
5, 64798, Note_on_c, 11, 38, 0
5, 64800, Note_on_c, 11, 38, 110
5, 64894, Note_on_c, 11, 38, 0
5, 64992, Note_on_c, 11, 38, 110
5, 65086, Note_on_c, 11, 38, 0
5, 65088, Note_on_c, 11, 38, 110
5, 65182, Note_on_c, 11, 38, 0
5, 65184, Note_on_c, 11, 43, 110
5, 65278, Note_on_c, 11, 43, 0
5, 65280, Note_on_c, 11, 44, 110
5, 65440, Note_on_c, 11, 44, 0
5, 65472, Note_on_c, 11, 45, 110
5, 65566, Note_on_c, 11, 45, 0
5, 65568, Note_on_c, 11, 45, 110
5, 65662, Note_on_c, 11, 45, 0
5, 65760, Note_on_c, 11, 45, 110
5, 65854, Note_on_c, 11, 45, 0
5, 65856, Note_on_c, 11, 45, 110
5, 65950, Note_on_c, 11, 45, 0
5, 65952, Note_on_c, 11, 45, 110
5, 66046, Note_on_c, 11, 45, 0
5, 66144, Note_on_c, 11, 45, 110
5, 66238, Note_on_c, 11, 45, 0
5, 66240, Note_on_c, 11, 45, 110
5, 66334, Note_on_c, 11, 45, 0
5, 66336, Note_on_c, 11, 45, 110
5, 66430, Note_on_c, 11, 45, 0
5, 66528, Note_on_c, 11, 45, 110
5, 66622, Note_on_c, 11, 45, 0
5, 66624, Note_on_c, 11, 45, 110
5, 66718, Note_on_c, 11, 45, 0
5, 66720, Note_on_c, 11, 40, 110
5, 66814, Note_on_c, 11, 40, 0
5, 66816, Note_on_c, 11, 45, 110
5, 66910, Note_on_c, 11, 45, 0
5, 66912, Note_on_c, 11, 46, 110
5, 67006, Note_on_c, 11, 46, 0
5, 67008, Note_on_c, 11, 47, 110
5, 67102, Note_on_c, 11, 47, 0
5, 67104, Note_on_c, 11, 47, 110
5, 67198, Note_on_c, 11, 47, 0
5, 67296, Note_on_c, 11, 45, 110
5, 67390, Note_on_c, 11, 45, 0
5, 67392, Note_on_c, 11, 47, 110
5, 67486, Note_on_c, 11, 47, 0
5, 67488, Note_on_c, 11, 47, 110
5, 67582, Note_on_c, 11, 47, 0
5, 67680, Note_on_c, 11, 42, 110
5, 67774, Note_on_c, 11, 42, 0
5, 67776, Note_on_c, 11, 47, 110
5, 67870, Note_on_c, 11, 47, 0
5, 67872, Note_on_c, 11, 47, 110
5, 67966, Note_on_c, 11, 47, 0
5, 68064, Note_on_c, 11, 47, 110
5, 68158, Note_on_c, 11, 47, 0
5, 68160, Note_on_c, 11, 47, 110
5, 68254, Note_on_c, 11, 47, 0
5, 68256, Note_on_c, 11, 42, 110
5, 68350, Note_on_c, 11, 42, 0
5, 68352, Note_on_c, 11, 47, 110
5, 68512, Note_on_c, 11, 47, 0
5, 68544, Note_on_c, 11, 45, 110
5, 68638, Note_on_c, 11, 45, 0
5, 68640, Note_on_c, 11, 45, 110
5, 68734, Note_on_c, 11, 45, 0
5, 68832, Note_on_c, 11, 45, 110
5, 68926, Note_on_c, 11, 45, 0
5, 68928, Note_on_c, 11, 45, 110
5, 69022, Note_on_c, 11, 45, 0
5, 69024, Note_on_c, 11, 40, 110
5, 69118, Note_on_c, 11, 40, 0
5, 69120, Note_on_c, 11, 43, 110
5, 69214, Note_on_c, 11, 43, 0
5, 69216, Note_on_c, 11, 45, 110
5, 69310, Note_on_c, 11, 45, 0
5, 69312, Note_on_c, 11, 40, 110
5, 69406, Note_on_c, 11, 40, 0
5, 69408, Note_on_c, 11, 40, 110
5, 69502, Note_on_c, 11, 40, 0
5, 69600, Note_on_c, 11, 40, 110
5, 69694, Note_on_c, 11, 40, 0
5, 69696, Note_on_c, 11, 40, 110
5, 69790, Note_on_c, 11, 40, 0
5, 69792, Note_on_c, 11, 35, 110
5, 69886, Note_on_c, 11, 35, 0
5, 69888, Note_on_c, 11, 38, 110
5, 69982, Note_on_c, 11, 38, 0
5, 69984, Note_on_c, 11, 40, 110
5, 70078, Note_on_c, 11, 40, 0
5, 70080, Note_on_c, 11, 43, 110
5, 70174, Note_on_c, 11, 43, 0
5, 70176, Note_on_c, 11, 43, 110
5, 70270, Note_on_c, 11, 43, 0
5, 70368, Note_on_c, 11, 43, 110
5, 70462, Note_on_c, 11, 43, 0
5, 70464, Note_on_c, 11, 43, 110
5, 70558, Note_on_c, 11, 43, 0
5, 70560, Note_on_c, 11, 38, 110
5, 70654, Note_on_c, 11, 38, 0
5, 70656, Note_on_c, 11, 41, 110
5, 70750, Note_on_c, 11, 41, 0
5, 70752, Note_on_c, 11, 43, 110
5, 70846, Note_on_c, 11, 43, 0
5, 70848, Note_on_c, 11, 41, 110
5, 71008, Note_on_c, 11, 41, 0
5, 71040, Note_on_c, 11, 40, 110
5, 71200, Note_on_c, 11, 40, 0
5, 71232, Note_on_c, 11, 38, 110
5, 71392, Note_on_c, 11, 38, 0
5, 71424, Note_on_c, 11, 36, 110
5, 71584, Note_on_c, 11, 36, 0
5, 71616, Note_on_c, 11, 34, 110
5, 71710, Note_on_c, 11, 34, 0
5, 71712, Note_on_c, 11, 34, 110
5, 71806, Note_on_c, 11, 34, 0
5, 71904, Note_on_c, 11, 34, 110
5, 71998, Note_on_c, 11, 34, 0
5, 72000, Note_on_c, 11, 34, 110
5, 72094, Note_on_c, 11, 34, 0
5, 72096, Note_on_c, 11, 34, 110
5, 72190, Note_on_c, 11, 34, 0
5, 72384, Note_on_c, 11, 37, 110
5, 72478, Note_on_c, 11, 37, 0
5, 72480, Note_on_c, 11, 37, 110
5, 72574, Note_on_c, 11, 37, 0
5, 72672, Note_on_c, 11, 37, 110
5, 72766, Note_on_c, 11, 37, 0
5, 72768, Note_on_c, 11, 37, 110
5, 72862, Note_on_c, 11, 37, 0
5, 72864, Note_on_c, 11, 32, 110
5, 72958, Note_on_c, 11, 32, 0
5, 72960, Note_on_c, 11, 35, 110
5, 73054, Note_on_c, 11, 35, 0
5, 73056, Note_on_c, 11, 42, 110
5, 73150, Note_on_c, 11, 42, 0
5, 73152, Note_on_c, 11, 47, 110
5, 73246, Note_on_c, 11, 47, 0
5, 73248, Note_on_c, 11, 47, 110
5, 73342, Note_on_c, 11, 47, 0
5, 73440, Note_on_c, 11, 45, 110
5, 73534, Note_on_c, 11, 45, 0
5, 73536, Note_on_c, 11, 47, 110
5, 73630, Note_on_c, 11, 47, 0
5, 73632, Note_on_c, 11, 47, 110
5, 73726, Note_on_c, 11, 47, 0
5, 73824, Note_on_c, 11, 42, 110
5, 73918, Note_on_c, 11, 42, 0
5, 73920, Note_on_c, 11, 47, 110
5, 74014, Note_on_c, 11, 47, 0
5, 74016, Note_on_c, 11, 47, 110
5, 74110, Note_on_c, 11, 47, 0
5, 74208, Note_on_c, 11, 47, 110
5, 74302, Note_on_c, 11, 47, 0
5, 74304, Note_on_c, 11, 47, 110
5, 74398, Note_on_c, 11, 47, 0
5, 74400, Note_on_c, 11, 42, 110
5, 74494, Note_on_c, 11, 42, 0
5, 74496, Note_on_c, 11, 47, 110
5, 74656, Note_on_c, 11, 47, 0
5, 74688, Note_on_c, 11, 45, 110
5, 74782, Note_on_c, 11, 45, 0
5, 74784, Note_on_c, 11, 45, 110
5, 74878, Note_on_c, 11, 45, 0
5, 74976, Note_on_c, 11, 45, 110
5, 75070, Note_on_c, 11, 45, 0
5, 75072, Note_on_c, 11, 45, 110
5, 75166, Note_on_c, 11, 45, 0
5, 75168, Note_on_c, 11, 40, 110
5, 75262, Note_on_c, 11, 40, 0
5, 75264, Note_on_c, 11, 43, 110
5, 75358, Note_on_c, 11, 43, 0
5, 75360, Note_on_c, 11, 45, 110
5, 75454, Note_on_c, 11, 45, 0
5, 75456, Note_on_c, 11, 40, 110
5, 75550, Note_on_c, 11, 40, 0
5, 75552, Note_on_c, 11, 40, 110
5, 75646, Note_on_c, 11, 40, 0
5, 75744, Note_on_c, 11, 40, 110
5, 75838, Note_on_c, 11, 40, 0
5, 75840, Note_on_c, 11, 40, 110
5, 75934, Note_on_c, 11, 40, 0
5, 75936, Note_on_c, 11, 35, 110
5, 76030, Note_on_c, 11, 35, 0
5, 76032, Note_on_c, 11, 38, 110
5, 76126, Note_on_c, 11, 38, 0
5, 76128, Note_on_c, 11, 40, 110
5, 76222, Note_on_c, 11, 40, 0
5, 76224, Note_on_c, 11, 43, 110
5, 76318, Note_on_c, 11, 43, 0
5, 76320, Note_on_c, 11, 43, 110
5, 76414, Note_on_c, 11, 43, 0
5, 76512, Note_on_c, 11, 43, 110
5, 76606, Note_on_c, 11, 43, 0
5, 76608, Note_on_c, 11, 43, 110
5, 76702, Note_on_c, 11, 43, 0
5, 76704, Note_on_c, 11, 38, 110
5, 76798, Note_on_c, 11, 38, 0
5, 76800, Note_on_c, 11, 41, 110
5, 76894, Note_on_c, 11, 41, 0
5, 76896, Note_on_c, 11, 43, 110
5, 76990, Note_on_c, 11, 43, 0
5, 76992, Note_on_c, 11, 41, 110
5, 77086, Note_on_c, 11, 41, 0
5, 77088, Note_on_c, 11, 41, 110
5, 77182, Note_on_c, 11, 41, 0
5, 77280, Note_on_c, 11, 41, 110
5, 77374, Note_on_c, 11, 41, 0
5, 77376, Note_on_c, 11, 41, 110
5, 77470, Note_on_c, 11, 41, 0
5, 77472, Note_on_c, 11, 41, 110
5, 77566, Note_on_c, 11, 41, 0
5, 77760, Note_on_c, 11, 34, 110
5, 77854, Note_on_c, 11, 34, 0
5, 77856, Note_on_c, 11, 34, 110
5, 77950, Note_on_c, 11, 34, 0
5, 78048, Note_on_c, 11, 34, 110
5, 78142, Note_on_c, 11, 34, 0
5, 78144, Note_on_c, 11, 34, 110
5, 78238, Note_on_c, 11, 34, 0
5, 78240, Note_on_c, 11, 34, 110
5, 78334, Note_on_c, 11, 34, 0
5, 78528, Note_on_c, 11, 33, 110
5, 78622, Note_on_c, 11, 33, 0
5, 78624, Note_on_c, 11, 33, 110
5, 78718, Note_on_c, 11, 33, 0
5, 78720, Note_on_c, 11, 45, 110
5, 78814, Note_on_c, 11, 45, 0
5, 78816, Note_on_c, 11, 33, 110
5, 78910, Note_on_c, 11, 33, 0
5, 78912, Note_on_c, 11, 33, 110
5, 79006, Note_on_c, 11, 33, 0
5, 79008, Note_on_c, 11, 33, 110
5, 79102, Note_on_c, 11, 33, 0
5, 79296, Note_on_c, 11, 33, 110
5, 79390, Note_on_c, 11, 33, 0
5, 79392, Note_on_c, 11, 33, 110
5, 79486, Note_on_c, 11, 33, 0
5, 79488, Note_on_c, 11, 45, 110
5, 79648, Note_on_c, 11, 45, 0
5, 79680, Note_on_c, 11, 45, 110
5, 79774, Note_on_c, 11, 45, 0
5, 79776, Note_on_c, 11, 37, 110
5, 79870, Note_on_c, 11, 37, 0
5, 79872, Note_on_c, 11, 40, 110
5, 79966, Note_on_c, 11, 40, 0
5, 79968, Note_on_c, 11, 42, 110
5, 80062, Note_on_c, 11, 42, 0
5, 80064, Note_on_c, 11, 37, 110
5, 80158, Note_on_c, 11, 37, 0
5, 80160, Note_on_c, 11, 37, 110
5, 80254, Note_on_c, 11, 37, 0
5, 80352, Note_on_c, 11, 35, 110
5, 80446, Note_on_c, 11, 35, 0
5, 80448, Note_on_c, 11, 37, 110
5, 80542, Note_on_c, 11, 37, 0
5, 80544, Note_on_c, 11, 37, 110
5, 80638, Note_on_c, 11, 37, 0
5, 80736, Note_on_c, 11, 32, 110
5, 80830, Note_on_c, 11, 32, 0
5, 80832, Note_on_c, 11, 37, 110
5, 80926, Note_on_c, 11, 37, 0
5, 80928, Note_on_c, 11, 37, 110
5, 81022, Note_on_c, 11, 37, 0
5, 81120, Note_on_c, 11, 35, 110
5, 81214, Note_on_c, 11, 35, 0
5, 81216, Note_on_c, 11, 37, 110
5, 81310, Note_on_c, 11, 37, 0
5, 81312, Note_on_c, 11, 37, 110
5, 81406, Note_on_c, 11, 37, 0
5, 81408, Note_on_c, 11, 35, 110
5, 81568, Note_on_c, 11, 35, 0
5, 81600, Note_on_c, 11, 35, 110
5, 81694, Note_on_c, 11, 35, 0
5, 81696, Note_on_c, 11, 35, 110
5, 81790, Note_on_c, 11, 35, 0
5, 81888, Note_on_c, 11, 35, 110
5, 81982, Note_on_c, 11, 35, 0
5, 81984, Note_on_c, 11, 35, 110
5, 82078, Note_on_c, 11, 35, 0
5, 82080, Note_on_c, 11, 35, 110
5, 82174, Note_on_c, 11, 35, 0
5, 82176, Note_on_c, 11, 33, 110
5, 82336, Note_on_c, 11, 33, 0
5, 82368, Note_on_c, 11, 33, 110
5, 82462, Note_on_c, 11, 33, 0
5, 82464, Note_on_c, 11, 33, 110
5, 82558, Note_on_c, 11, 33, 0
5, 82656, Note_on_c, 11, 33, 110
5, 82750, Note_on_c, 11, 33, 0
5, 82752, Note_on_c, 11, 45, 110
5, 82846, Note_on_c, 11, 45, 0
5, 82848, Note_on_c, 11, 33, 110
5, 82942, Note_on_c, 11, 33, 0
5, 82944, Note_on_c, 11, 35, 110
5, 83104, Note_on_c, 11, 35, 0
5, 83136, Note_on_c, 11, 37, 110
5, 83230, Note_on_c, 11, 37, 0
5, 83232, Note_on_c, 11, 37, 110
5, 83326, Note_on_c, 11, 37, 0
5, 83424, Note_on_c, 11, 35, 110
5, 83518, Note_on_c, 11, 35, 0
5, 83520, Note_on_c, 11, 37, 110
5, 83614, Note_on_c, 11, 37, 0
5, 83616, Note_on_c, 11, 37, 110
5, 83710, Note_on_c, 11, 37, 0
5, 83808, Note_on_c, 11, 37, 110
5, 83902, Note_on_c, 11, 37, 0
5, 83904, Note_on_c, 11, 40, 110
5, 83998, Note_on_c, 11, 40, 0
5, 84000, Note_on_c, 11, 40, 110
5, 84094, Note_on_c, 11, 40, 0
5, 84192, Note_on_c, 11, 40, 110
5, 84286, Note_on_c, 11, 40, 0
5, 84288, Note_on_c, 11, 40, 110
5, 84382, Note_on_c, 11, 40, 0
5, 84384, Note_on_c, 11, 40, 110
5, 84478, Note_on_c, 11, 40, 0
5, 84576, Note_on_c, 11, 40, 110
5, 84670, Note_on_c, 11, 40, 0
5, 84672, Note_on_c, 11, 33, 110
5, 84766, Note_on_c, 11, 33, 0
5, 84768, Note_on_c, 11, 33, 110
5, 84862, Note_on_c, 11, 33, 0
5, 84960, Note_on_c, 11, 33, 110
5, 85054, Note_on_c, 11, 33, 0
5, 85056, Note_on_c, 11, 33, 110
5, 85150, Note_on_c, 11, 33, 0
5, 85152, Note_on_c, 11, 33, 110
5, 85246, Note_on_c, 11, 33, 0
5, 85248, Note_on_c, 11, 33, 110
5, 85342, Note_on_c, 11, 33, 0
5, 85344, Note_on_c, 11, 34, 110
5, 85438, Note_on_c, 11, 34, 0
5, 85440, Note_on_c, 11, 35, 110
5, 85534, Note_on_c, 11, 35, 0
5, 85536, Note_on_c, 11, 35, 110
5, 85630, Note_on_c, 11, 35, 0
5, 85728, Note_on_c, 11, 35, 110
5, 85822, Note_on_c, 11, 35, 0
5, 85824, Note_on_c, 11, 35, 110
5, 85918, Note_on_c, 11, 35, 0
5, 85920, Note_on_c, 11, 39, 110
5, 86014, Note_on_c, 11, 39, 0
5, 86016, Note_on_c, 11, 42, 110
5, 86176, Note_on_c, 11, 42, 0
5, 86208, Note_on_c, 11, 37, 110
5, 86302, Note_on_c, 11, 37, 0
5, 86304, Note_on_c, 11, 37, 110
5, 86398, Note_on_c, 11, 37, 0
5, 86496, Note_on_c, 11, 35, 110
5, 86590, Note_on_c, 11, 35, 0
5, 86592, Note_on_c, 11, 37, 110
5, 86686, Note_on_c, 11, 37, 0
5, 86688, Note_on_c, 11, 37, 110
5, 86782, Note_on_c, 11, 37, 0
5, 86880, Note_on_c, 11, 32, 110
5, 86974, Note_on_c, 11, 32, 0
5, 86976, Note_on_c, 11, 37, 110
5, 87070, Note_on_c, 11, 37, 0
5, 87072, Note_on_c, 11, 37, 110
5, 87166, Note_on_c, 11, 37, 0
5, 87264, Note_on_c, 11, 35, 110
5, 87358, Note_on_c, 11, 35, 0
5, 87360, Note_on_c, 11, 37, 110
5, 87454, Note_on_c, 11, 37, 0
5, 87456, Note_on_c, 11, 37, 110
5, 87550, Note_on_c, 11, 37, 0
5, 87552, Note_on_c, 11, 35, 110
5, 87712, Note_on_c, 11, 35, 0
5, 87744, Note_on_c, 11, 35, 110
5, 87838, Note_on_c, 11, 35, 0
5, 87840, Note_on_c, 11, 35, 110
5, 87934, Note_on_c, 11, 35, 0
5, 88032, Note_on_c, 11, 35, 110
5, 88126, Note_on_c, 11, 35, 0
5, 88128, Note_on_c, 11, 35, 110
5, 88222, Note_on_c, 11, 35, 0
5, 88224, Note_on_c, 11, 35, 110
5, 88318, Note_on_c, 11, 35, 0
5, 88320, Note_on_c, 11, 33, 110
5, 88480, Note_on_c, 11, 33, 0
5, 88512, Note_on_c, 11, 33, 110
5, 88606, Note_on_c, 11, 33, 0
5, 88608, Note_on_c, 11, 33, 110
5, 88702, Note_on_c, 11, 33, 0
5, 88800, Note_on_c, 11, 33, 110
5, 88894, Note_on_c, 11, 33, 0
5, 88896, Note_on_c, 11, 45, 110
5, 88990, Note_on_c, 11, 45, 0
5, 88992, Note_on_c, 11, 33, 110
5, 89086, Note_on_c, 11, 33, 0
5, 89088, Note_on_c, 11, 35, 110
5, 89248, Note_on_c, 11, 35, 0
5, 89280, Note_on_c, 11, 37, 110
5, 89374, Note_on_c, 11, 37, 0
5, 89376, Note_on_c, 11, 37, 110
5, 89470, Note_on_c, 11, 37, 0
5, 89568, Note_on_c, 11, 35, 110
5, 89662, Note_on_c, 11, 35, 0
5, 89664, Note_on_c, 11, 37, 110
5, 89758, Note_on_c, 11, 37, 0
5, 89760, Note_on_c, 11, 37, 110
5, 89854, Note_on_c, 11, 37, 0
5, 89952, Note_on_c, 11, 37, 110
5, 90046, Note_on_c, 11, 37, 0
5, 90048, Note_on_c, 11, 40, 110
5, 90142, Note_on_c, 11, 40, 0
5, 90144, Note_on_c, 11, 40, 110
5, 90238, Note_on_c, 11, 40, 0
5, 90336, Note_on_c, 11, 40, 110
5, 90430, Note_on_c, 11, 40, 0
5, 90432, Note_on_c, 11, 40, 110
5, 90526, Note_on_c, 11, 40, 0
5, 90528, Note_on_c, 11, 40, 110
5, 90622, Note_on_c, 11, 40, 0
5, 90720, Note_on_c, 11, 40, 110
5, 90814, Note_on_c, 11, 40, 0
5, 90816, Note_on_c, 11, 33, 110
5, 90910, Note_on_c, 11, 33, 0
5, 90912, Note_on_c, 11, 33, 110
5, 91006, Note_on_c, 11, 33, 0
5, 91104, Note_on_c, 11, 33, 110
5, 91198, Note_on_c, 11, 33, 0
5, 91200, Note_on_c, 11, 33, 110
5, 91294, Note_on_c, 11, 33, 0
5, 91296, Note_on_c, 11, 33, 110
5, 91390, Note_on_c, 11, 33, 0
5, 91392, Note_on_c, 11, 33, 110
5, 91486, Note_on_c, 11, 33, 0
5, 91488, Note_on_c, 11, 34, 110
5, 91582, Note_on_c, 11, 34, 0
5, 91584, Note_on_c, 11, 38, 110
5, 91678, Note_on_c, 11, 38, 0
5, 91680, Note_on_c, 11, 38, 110
5, 91774, Note_on_c, 11, 38, 0
5, 91872, Note_on_c, 11, 38, 110
5, 91966, Note_on_c, 11, 38, 0
5, 91968, Note_on_c, 11, 38, 110
5, 92062, Note_on_c, 11, 38, 0
5, 92064, Note_on_c, 11, 38, 110
5, 92158, Note_on_c, 11, 38, 0
5, 92256, Note_on_c, 11, 38, 110
5, 92350, Note_on_c, 11, 38, 0
5, 92352, Note_on_c, 11, 38, 110
5, 92446, Note_on_c, 11, 38, 0
5, 92448, Note_on_c, 11, 38, 110
5, 92542, Note_on_c, 11, 38, 0
5, 92640, Note_on_c, 11, 38, 110
5, 92734, Note_on_c, 11, 38, 0
5, 92736, Note_on_c, 11, 38, 110
5, 92830, Note_on_c, 11, 38, 0
5, 92832, Note_on_c, 11, 43, 110
5, 92926, Note_on_c, 11, 43, 0
5, 92928, Note_on_c, 11, 44, 110
5, 93088, Note_on_c, 11, 44, 0
5, 93120, Note_on_c, 11, 45, 110
5, 93214, Note_on_c, 11, 45, 0
5, 93216, Note_on_c, 11, 45, 110
5, 93310, Note_on_c, 11, 45, 0
5, 93408, Note_on_c, 11, 45, 110
5, 93502, Note_on_c, 11, 45, 0
5, 93504, Note_on_c, 11, 45, 110
5, 93598, Note_on_c, 11, 45, 0
5, 93600, Note_on_c, 11, 45, 110
5, 93694, Note_on_c, 11, 45, 0
5, 93792, Note_on_c, 11, 45, 110
5, 93886, Note_on_c, 11, 45, 0
5, 93888, Note_on_c, 11, 45, 110
5, 93982, Note_on_c, 11, 45, 0
5, 93984, Note_on_c, 11, 45, 110
5, 94078, Note_on_c, 11, 45, 0
5, 94176, Note_on_c, 11, 45, 110
5, 94270, Note_on_c, 11, 45, 0
5, 94272, Note_on_c, 11, 45, 110
5, 94366, Note_on_c, 11, 45, 0
5, 94368, Note_on_c, 11, 40, 110
5, 94462, Note_on_c, 11, 40, 0
5, 94464, Note_on_c, 11, 45, 110
5, 94558, Note_on_c, 11, 45, 0
5, 94560, Note_on_c, 11, 46, 110
5, 94654, Note_on_c, 11, 46, 0
5, 94656, Note_on_c, 11, 47, 110
5, 94816, Note_on_c, 11, 47, 0
5, 94848, Note_on_c, 11, 47, 110
5, 94848, Note_on_c, 11, 52, 110
5, 94942, Note_on_c, 11, 47, 0
5, 94942, Note_on_c, 11, 52, 0
5, 94944, Note_on_c, 11, 47, 110
5, 94944, Note_on_c, 11, 51, 110
5, 95038, Note_on_c, 11, 47, 0
5, 95038, Note_on_c, 11, 51, 0
5, 95040, Note_on_c, 11, 47, 110
5, 95040, Note_on_c, 11, 52, 110
5, 95134, Note_on_c, 11, 47, 0
5, 95134, Note_on_c, 11, 52, 0
5, 95136, Note_on_c, 11, 47, 110
5, 95136, Note_on_c, 11, 54, 110
5, 95230, Note_on_c, 11, 47, 0
5, 95230, Note_on_c, 11, 54, 0
5, 95232, Note_on_c, 11, 47, 110
5, 95232, Note_on_c, 11, 52, 110
5, 95326, Note_on_c, 11, 47, 0
5, 95326, Note_on_c, 11, 52, 0
5, 95328, Note_on_c, 11, 47, 110
5, 95328, Note_on_c, 11, 51, 110
5, 95584, Note_on_c, 11, 47, 0
5, 95584, Note_on_c, 11, 51, 0
5, 95616, Note_on_c, 11, 47, 110
5, 95616, Note_on_c, 11, 52, 110
5, 95710, Note_on_c, 11, 47, 0
5, 95710, Note_on_c, 11, 52, 0
5, 95712, Note_on_c, 11, 47, 110
5, 95712, Note_on_c, 11, 51, 110
5, 95806, Note_on_c, 11, 47, 0
5, 95806, Note_on_c, 11, 51, 0
5, 95808, Note_on_c, 11, 47, 110
5, 95808, Note_on_c, 11, 52, 110
5, 95902, Note_on_c, 11, 47, 0
5, 95902, Note_on_c, 11, 52, 0
5, 95904, Note_on_c, 11, 47, 110
5, 95904, Note_on_c, 11, 54, 110
5, 95998, Note_on_c, 11, 47, 0
5, 95998, Note_on_c, 11, 54, 0
5, 96000, Note_on_c, 11, 47, 110
5, 96000, Note_on_c, 11, 52, 110
5, 96160, Note_on_c, 11, 47, 0
5, 96160, Note_on_c, 11, 52, 0
5, 96192, Note_on_c, 11, 38, 110
5, 96286, Note_on_c, 11, 38, 0
5, 96288, Note_on_c, 11, 38, 110
5, 96382, Note_on_c, 11, 38, 0
5, 96480, Note_on_c, 11, 38, 110
5, 96574, Note_on_c, 11, 38, 0
5, 96576, Note_on_c, 11, 38, 110
5, 96670, Note_on_c, 11, 38, 0
5, 96672, Note_on_c, 11, 38, 110
5, 96766, Note_on_c, 11, 38, 0
5, 96864, Note_on_c, 11, 38, 110
5, 96958, Note_on_c, 11, 38, 0
5, 96960, Note_on_c, 11, 38, 110
5, 97054, Note_on_c, 11, 38, 0
5, 97056, Note_on_c, 11, 38, 110
5, 97150, Note_on_c, 11, 38, 0
5, 97248, Note_on_c, 11, 38, 110
5, 97342, Note_on_c, 11, 38, 0
5, 97344, Note_on_c, 11, 38, 110
5, 97438, Note_on_c, 11, 38, 0
5, 97440, Note_on_c, 11, 43, 110
5, 97534, Note_on_c, 11, 43, 0
5, 97536, Note_on_c, 11, 44, 110
5, 97696, Note_on_c, 11, 44, 0
5, 97728, Note_on_c, 11, 45, 110
5, 97822, Note_on_c, 11, 45, 0
5, 97824, Note_on_c, 11, 45, 110
5, 97918, Note_on_c, 11, 45, 0
5, 98016, Note_on_c, 11, 45, 110
5, 98110, Note_on_c, 11, 45, 0
5, 98112, Note_on_c, 11, 45, 110
5, 98206, Note_on_c, 11, 45, 0
5, 98208, Note_on_c, 11, 45, 110
5, 98302, Note_on_c, 11, 45, 0
5, 98400, Note_on_c, 11, 45, 110
5, 98494, Note_on_c, 11, 45, 0
5, 98496, Note_on_c, 11, 45, 110
5, 98590, Note_on_c, 11, 45, 0
5, 98592, Note_on_c, 11, 45, 110
5, 98686, Note_on_c, 11, 45, 0
5, 98784, Note_on_c, 11, 45, 110
5, 98878, Note_on_c, 11, 45, 0
5, 98880, Note_on_c, 11, 45, 110
5, 98974, Note_on_c, 11, 45, 0
5, 98976, Note_on_c, 11, 40, 110
5, 99070, Note_on_c, 11, 40, 0
5, 99072, Note_on_c, 11, 45, 110
5, 99166, Note_on_c, 11, 45, 0
5, 99168, Note_on_c, 11, 46, 110
5, 99262, Note_on_c, 11, 46, 0
5, 99264, Note_on_c, 11, 47, 110
5, 99424, Note_on_c, 11, 47, 0
5, 99456, Note_on_c, 11, 47, 110
5, 99456, Note_on_c, 11, 52, 110
5, 99550, Note_on_c, 11, 47, 0
5, 99550, Note_on_c, 11, 52, 0
5, 99552, Note_on_c, 11, 47, 110
5, 99552, Note_on_c, 11, 51, 110
5, 99646, Note_on_c, 11, 47, 0
5, 99646, Note_on_c, 11, 51, 0
5, 99648, Note_on_c, 11, 47, 110
5, 99648, Note_on_c, 11, 52, 110
5, 99742, Note_on_c, 11, 47, 0
5, 99742, Note_on_c, 11, 52, 0
5, 99744, Note_on_c, 11, 47, 110
5, 99744, Note_on_c, 11, 54, 110
5, 99838, Note_on_c, 11, 47, 0
5, 99838, Note_on_c, 11, 54, 0
5, 99840, Note_on_c, 11, 47, 110
5, 99840, Note_on_c, 11, 52, 110
5, 99934, Note_on_c, 11, 47, 0
5, 99934, Note_on_c, 11, 52, 0
5, 99936, Note_on_c, 11, 47, 110
5, 99936, Note_on_c, 11, 51, 110
5, 100192, Note_on_c, 11, 47, 0
5, 100192, Note_on_c, 11, 51, 0
5, 100224, Note_on_c, 11, 47, 110
5, 100224, Note_on_c, 11, 52, 110
5, 100318, Note_on_c, 11, 47, 0
5, 100318, Note_on_c, 11, 52, 0
5, 100320, Note_on_c, 11, 47, 110
5, 100320, Note_on_c, 11, 51, 110
5, 100414, Note_on_c, 11, 47, 0
5, 100414, Note_on_c, 11, 51, 0
5, 100416, Note_on_c, 11, 47, 110
5, 100416, Note_on_c, 11, 52, 110
5, 100510, Note_on_c, 11, 47, 0
5, 100510, Note_on_c, 11, 52, 0
5, 100512, Note_on_c, 11, 47, 110
5, 100512, Note_on_c, 11, 54, 110
5, 100606, Note_on_c, 11, 47, 0
5, 100606, Note_on_c, 11, 54, 0
5, 100608, Note_on_c, 11, 47, 110
5, 100608, Note_on_c, 11, 52, 110
5, 100768, Note_on_c, 11, 47, 0
5, 100768, Note_on_c, 11, 52, 0
5, 100800, Note_on_c, 11, 38, 110
5, 100894, Note_on_c, 11, 38, 0
5, 100896, Note_on_c, 11, 38, 110
5, 100990, Note_on_c, 11, 38, 0
5, 101088, Note_on_c, 11, 38, 110
5, 101182, Note_on_c, 11, 38, 0
5, 101184, Note_on_c, 11, 38, 110
5, 101278, Note_on_c, 11, 38, 0
5, 101280, Note_on_c, 11, 38, 110
5, 101374, Note_on_c, 11, 38, 0
5, 101472, Note_on_c, 11, 38, 110
5, 101566, Note_on_c, 11, 38, 0
5, 101568, Note_on_c, 11, 38, 110
5, 101662, Note_on_c, 11, 38, 0
5, 101664, Note_on_c, 11, 38, 110
5, 101758, Note_on_c, 11, 38, 0
5, 101856, Note_on_c, 11, 38, 110
5, 101950, Note_on_c, 11, 38, 0
5, 101952, Note_on_c, 11, 38, 110
5, 102046, Note_on_c, 11, 38, 0
5, 102048, Note_on_c, 11, 43, 110
5, 102142, Note_on_c, 11, 43, 0
5, 102144, Note_on_c, 11, 44, 110
5, 102304, Note_on_c, 11, 44, 0
5, 102336, Note_on_c, 11, 45, 110
5, 102430, Note_on_c, 11, 45, 0
5, 102432, Note_on_c, 11, 45, 110
5, 102526, Note_on_c, 11, 45, 0
5, 102624, Note_on_c, 11, 45, 110
5, 102718, Note_on_c, 11, 45, 0
5, 102720, Note_on_c, 11, 45, 110
5, 102814, Note_on_c, 11, 45, 0
5, 102816, Note_on_c, 11, 45, 110
5, 102910, Note_on_c, 11, 45, 0
5, 103008, Note_on_c, 11, 45, 110
5, 103102, Note_on_c, 11, 45, 0
5, 103104, Note_on_c, 11, 45, 110
5, 103198, Note_on_c, 11, 45, 0
5, 103200, Note_on_c, 11, 45, 110
5, 103294, Note_on_c, 11, 45, 0
5, 103392, Note_on_c, 11, 45, 110
5, 103486, Note_on_c, 11, 45, 0
5, 103488, Note_on_c, 11, 45, 110
5, 103582, Note_on_c, 11, 45, 0
5, 103584, Note_on_c, 11, 40, 110
5, 103678, Note_on_c, 11, 40, 0
5, 103680, Note_on_c, 11, 45, 110
5, 103774, Note_on_c, 11, 45, 0
5, 103776, Note_on_c, 11, 46, 110
5, 103870, Note_on_c, 11, 46, 0
5, 103872, Note_on_c, 11, 47, 110
5, 104032, Note_on_c, 11, 47, 0
5, 104064, Note_on_c, 11, 47, 110
5, 104064, Note_on_c, 11, 52, 110
5, 104158, Note_on_c, 11, 47, 0
5, 104158, Note_on_c, 11, 52, 0
5, 104160, Note_on_c, 11, 47, 110
5, 104160, Note_on_c, 11, 51, 110
5, 104254, Note_on_c, 11, 47, 0
5, 104254, Note_on_c, 11, 51, 0
5, 104256, Note_on_c, 11, 47, 110
5, 104256, Note_on_c, 11, 52, 110
5, 104350, Note_on_c, 11, 47, 0
5, 104350, Note_on_c, 11, 52, 0
5, 104352, Note_on_c, 11, 47, 110
5, 104352, Note_on_c, 11, 54, 110
5, 104446, Note_on_c, 11, 47, 0
5, 104446, Note_on_c, 11, 54, 0
5, 104448, Note_on_c, 11, 47, 110
5, 104448, Note_on_c, 11, 52, 110
5, 104542, Note_on_c, 11, 47, 0
5, 104542, Note_on_c, 11, 52, 0
5, 104544, Note_on_c, 11, 47, 110
5, 104544, Note_on_c, 11, 51, 110
5, 104800, Note_on_c, 11, 47, 0
5, 104800, Note_on_c, 11, 51, 0
5, 104832, Note_on_c, 11, 47, 110
5, 104832, Note_on_c, 11, 52, 110
5, 104926, Note_on_c, 11, 47, 0
5, 104926, Note_on_c, 11, 52, 0
5, 104928, Note_on_c, 11, 47, 110
5, 104928, Note_on_c, 11, 51, 110
5, 105022, Note_on_c, 11, 47, 0
5, 105022, Note_on_c, 11, 51, 0
5, 105024, Note_on_c, 11, 47, 110
5, 105024, Note_on_c, 11, 52, 110
5, 105118, Note_on_c, 11, 47, 0
5, 105118, Note_on_c, 11, 52, 0
5, 105120, Note_on_c, 11, 47, 110
5, 105120, Note_on_c, 11, 54, 110
5, 105214, Note_on_c, 11, 47, 0
5, 105214, Note_on_c, 11, 54, 0
5, 105216, Note_on_c, 11, 47, 110
5, 105216, Note_on_c, 11, 52, 110
5, 105376, Note_on_c, 11, 47, 0
5, 105376, Note_on_c, 11, 52, 0
5, 105408, Note_on_c, 11, 38, 110
5, 105502, Note_on_c, 11, 38, 0
5, 105504, Note_on_c, 11, 38, 110
5, 105598, Note_on_c, 11, 38, 0
5, 105696, Note_on_c, 11, 38, 110
5, 105790, Note_on_c, 11, 38, 0
5, 105792, Note_on_c, 11, 38, 110
5, 105886, Note_on_c, 11, 38, 0
5, 105888, Note_on_c, 11, 38, 110
5, 105982, Note_on_c, 11, 38, 0
5, 106080, Note_on_c, 11, 38, 110
5, 106174, Note_on_c, 11, 38, 0
5, 106176, Note_on_c, 11, 38, 110
5, 106270, Note_on_c, 11, 38, 0
5, 106272, Note_on_c, 11, 38, 110
5, 106366, Note_on_c, 11, 38, 0
5, 106464, Note_on_c, 11, 38, 110
5, 106558, Note_on_c, 11, 38, 0
5, 106560, Note_on_c, 11, 38, 110
5, 106654, Note_on_c, 11, 38, 0
5, 106656, Note_on_c, 11, 43, 110
5, 106750, Note_on_c, 11, 43, 0
5, 106752, Note_on_c, 11, 44, 110
5, 106912, Note_on_c, 11, 44, 0
5, 106944, Note_on_c, 11, 45, 110
5, 107038, Note_on_c, 11, 45, 0
5, 107040, Note_on_c, 11, 45, 110
5, 107134, Note_on_c, 11, 45, 0
5, 107232, Note_on_c, 11, 45, 110
5, 107326, Note_on_c, 11, 45, 0
5, 107328, Note_on_c, 11, 45, 110
5, 107422, Note_on_c, 11, 45, 0
5, 107424, Note_on_c, 11, 45, 110
5, 107518, Note_on_c, 11, 45, 0
5, 107616, Note_on_c, 11, 45, 110
5, 107710, Note_on_c, 11, 45, 0
5, 107712, Note_on_c, 11, 45, 110
5, 107806, Note_on_c, 11, 45, 0
5, 107808, Note_on_c, 11, 45, 110
5, 107902, Note_on_c, 11, 45, 0
5, 108000, Note_on_c, 11, 45, 110
5, 108094, Note_on_c, 11, 45, 0
5, 108096, Note_on_c, 11, 45, 110
5, 108190, Note_on_c, 11, 45, 0
5, 108192, Note_on_c, 11, 40, 110
5, 108286, Note_on_c, 11, 40, 0
5, 108288, Note_on_c, 11, 45, 110
5, 108382, Note_on_c, 11, 45, 0
5, 108384, Note_on_c, 11, 46, 110
5, 108478, Note_on_c, 11, 46, 0
5, 108480, Note_on_c, 11, 47, 110
5, 108640, Note_on_c, 11, 47, 0
5, 108672, Note_on_c, 11, 47, 110
5, 108672, Note_on_c, 11, 52, 110
5, 108766, Note_on_c, 11, 47, 0
5, 108766, Note_on_c, 11, 52, 0
5, 108768, Note_on_c, 11, 47, 110
5, 108768, Note_on_c, 11, 51, 110
5, 108862, Note_on_c, 11, 47, 0
5, 108862, Note_on_c, 11, 51, 0
5, 108864, Note_on_c, 11, 47, 110
5, 108864, Note_on_c, 11, 52, 110
5, 108958, Note_on_c, 11, 47, 0
5, 108958, Note_on_c, 11, 52, 0
5, 108960, Note_on_c, 11, 47, 110
5, 108960, Note_on_c, 11, 54, 110
5, 109054, Note_on_c, 11, 47, 0
5, 109054, Note_on_c, 11, 54, 0
5, 109056, Note_on_c, 11, 47, 110
5, 109056, Note_on_c, 11, 52, 110
5, 109150, Note_on_c, 11, 47, 0
5, 109150, Note_on_c, 11, 52, 0
5, 109152, Note_on_c, 11, 47, 110
5, 109152, Note_on_c, 11, 51, 110
5, 109408, Note_on_c, 11, 47, 0
5, 109408, Note_on_c, 11, 51, 0
5, 109440, Note_on_c, 11, 47, 110
5, 109440, Note_on_c, 11, 52, 110
5, 109534, Note_on_c, 11, 47, 0
5, 109534, Note_on_c, 11, 52, 0
5, 109536, Note_on_c, 11, 47, 110
5, 109536, Note_on_c, 11, 51, 110
5, 109630, Note_on_c, 11, 47, 0
5, 109630, Note_on_c, 11, 51, 0
5, 109632, Note_on_c, 11, 47, 110
5, 109632, Note_on_c, 11, 52, 110
5, 109726, Note_on_c, 11, 47, 0
5, 109726, Note_on_c, 11, 52, 0
5, 109728, Note_on_c, 11, 47, 110
5, 109728, Note_on_c, 11, 54, 110
5, 109822, Note_on_c, 11, 47, 0
5, 109822, Note_on_c, 11, 54, 0
5, 109824, Note_on_c, 11, 47, 110
5, 109824, Note_on_c, 11, 52, 110
5, 109984, Note_on_c, 11, 47, 0
5, 109984, Note_on_c, 11, 52, 0
5, 110016, Note_on_c, 11, 38, 110
5, 110110, Note_on_c, 11, 38, 0
5, 110112, Note_on_c, 11, 38, 110
5, 110206, Note_on_c, 11, 38, 0
5, 110304, Note_on_c, 11, 38, 110
5, 110398, Note_on_c, 11, 38, 0
5, 110400, Note_on_c, 11, 38, 110
5, 110494, Note_on_c, 11, 38, 0
5, 110496, Note_on_c, 11, 38, 110
5, 110590, Note_on_c, 11, 38, 0
5, 110688, Note_on_c, 11, 38, 110
5, 110782, Note_on_c, 11, 38, 0
5, 110784, Note_on_c, 11, 38, 110
5, 110878, Note_on_c, 11, 38, 0
5, 110880, Note_on_c, 11, 38, 110
5, 110974, Note_on_c, 11, 38, 0
5, 111072, Note_on_c, 11, 38, 110
5, 111166, Note_on_c, 11, 38, 0
5, 111168, Note_on_c, 11, 38, 110
5, 111262, Note_on_c, 11, 38, 0
5, 111264, Note_on_c, 11, 43, 110
5, 111358, Note_on_c, 11, 43, 0
5, 111360, Note_on_c, 11, 44, 110
5, 111520, Note_on_c, 11, 44, 0
5, 111552, Note_on_c, 11, 45, 110
5, 111646, Note_on_c, 11, 45, 0
5, 111648, Note_on_c, 11, 45, 110
5, 111742, Note_on_c, 11, 45, 0
5, 111840, Note_on_c, 11, 45, 110
5, 111934, Note_on_c, 11, 45, 0
5, 111936, Note_on_c, 11, 45, 110
5, 112030, Note_on_c, 11, 45, 0
5, 112032, Note_on_c, 11, 45, 110
5, 112126, Note_on_c, 11, 45, 0
5, 112224, Note_on_c, 11, 45, 110
5, 112318, Note_on_c, 11, 45, 0
5, 112320, Note_on_c, 11, 45, 110
5, 112414, Note_on_c, 11, 45, 0
5, 112416, Note_on_c, 11, 45, 110
5, 112510, Note_on_c, 11, 45, 0
5, 112608, Note_on_c, 11, 45, 110
5, 112702, Note_on_c, 11, 45, 0
5, 112704, Note_on_c, 11, 45, 110
5, 112798, Note_on_c, 11, 45, 0
5, 112800, Note_on_c, 11, 40, 110
5, 112894, Note_on_c, 11, 40, 0
5, 112896, Note_on_c, 11, 45, 110
5, 112990, Note_on_c, 11, 45, 0
5, 112992, Note_on_c, 11, 46, 110
5, 113086, Note_on_c, 11, 46, 0
5, 113088, Note_on_c, 11, 47, 110
5, 113248, Note_on_c, 11, 47, 0
5, 113280, Note_on_c, 11, 47, 110
5, 113280, Note_on_c, 11, 52, 110
5, 113374, Note_on_c, 11, 47, 0
5, 113374, Note_on_c, 11, 52, 0
5, 113376, Note_on_c, 11, 47, 110
5, 113376, Note_on_c, 11, 51, 110
5, 113470, Note_on_c, 11, 47, 0
5, 113470, Note_on_c, 11, 51, 0
5, 113472, Note_on_c, 11, 47, 110
5, 113472, Note_on_c, 11, 52, 110
5, 113566, Note_on_c, 11, 47, 0
5, 113566, Note_on_c, 11, 52, 0
5, 113568, Note_on_c, 11, 47, 110
5, 113568, Note_on_c, 11, 54, 110
5, 113662, Note_on_c, 11, 47, 0
5, 113662, Note_on_c, 11, 54, 0
5, 113664, Note_on_c, 11, 47, 110
5, 113664, Note_on_c, 11, 52, 110
5, 113758, Note_on_c, 11, 47, 0
5, 113758, Note_on_c, 11, 52, 0
5, 113760, Note_on_c, 11, 47, 110
5, 113760, Note_on_c, 11, 51, 110
5, 114016, Note_on_c, 11, 47, 0
5, 114016, Note_on_c, 11, 51, 0
5, 114048, Note_on_c, 11, 47, 110
5, 114048, Note_on_c, 11, 52, 110
5, 114142, Note_on_c, 11, 47, 0
5, 114142, Note_on_c, 11, 52, 0
5, 114144, Note_on_c, 11, 47, 110
5, 114144, Note_on_c, 11, 51, 110
5, 114238, Note_on_c, 11, 47, 0
5, 114238, Note_on_c, 11, 51, 0
5, 114240, Note_on_c, 11, 47, 110
5, 114240, Note_on_c, 11, 52, 110
5, 114334, Note_on_c, 11, 47, 0
5, 114334, Note_on_c, 11, 52, 0
5, 114336, Note_on_c, 11, 47, 110
5, 114336, Note_on_c, 11, 54, 110
5, 114430, Note_on_c, 11, 47, 0
5, 114430, Note_on_c, 11, 54, 0
5, 114432, Note_on_c, 11, 47, 110
5, 114432, Note_on_c, 11, 52, 110
5, 114592, Note_on_c, 11, 47, 0
5, 114592, Note_on_c, 11, 52, 0
5, 114624, Note_on_c, 11, 38, 110
5, 114718, Note_on_c, 11, 38, 0
5, 114720, Note_on_c, 11, 38, 110
5, 114814, Note_on_c, 11, 38, 0
5, 114912, Note_on_c, 11, 38, 110
5, 115006, Note_on_c, 11, 38, 0
5, 115008, Note_on_c, 11, 38, 110
5, 115102, Note_on_c, 11, 38, 0
5, 115104, Note_on_c, 11, 38, 110
5, 115198, Note_on_c, 11, 38, 0
5, 115296, Note_on_c, 11, 38, 110
5, 115390, Note_on_c, 11, 38, 0
5, 115392, Note_on_c, 11, 38, 110
5, 115486, Note_on_c, 11, 38, 0
5, 115488, Note_on_c, 11, 38, 110
5, 115582, Note_on_c, 11, 38, 0
5, 115680, Note_on_c, 11, 38, 110
5, 115774, Note_on_c, 11, 38, 0
5, 115776, Note_on_c, 11, 38, 110
5, 115870, Note_on_c, 11, 38, 0
5, 115872, Note_on_c, 11, 43, 110
5, 115966, Note_on_c, 11, 43, 0
5, 115968, Note_on_c, 11, 44, 110
5, 116128, Note_on_c, 11, 44, 0
5, 116160, Note_on_c, 11, 45, 110
5, 116254, Note_on_c, 11, 45, 0
5, 116256, Note_on_c, 11, 45, 110
5, 116350, Note_on_c, 11, 45, 0
5, 116448, Note_on_c, 11, 45, 110
5, 116542, Note_on_c, 11, 45, 0
5, 116544, Note_on_c, 11, 45, 110
5, 116638, Note_on_c, 11, 45, 0
5, 116640, Note_on_c, 11, 45, 110
5, 116734, Note_on_c, 11, 45, 0
5, 116832, Note_on_c, 11, 45, 110
5, 116926, Note_on_c, 11, 45, 0
5, 116928, Note_on_c, 11, 45, 110
5, 117022, Note_on_c, 11, 45, 0
5, 117024, Note_on_c, 11, 45, 110
5, 117118, Note_on_c, 11, 45, 0
5, 117216, Note_on_c, 11, 45, 110
5, 117310, Note_on_c, 11, 45, 0
5, 117312, Note_on_c, 11, 45, 110
5, 117406, Note_on_c, 11, 45, 0
5, 117408, Note_on_c, 11, 40, 110
5, 117502, Note_on_c, 11, 40, 0
5, 117504, Note_on_c, 11, 45, 110
5, 117598, Note_on_c, 11, 45, 0
5, 117600, Note_on_c, 11, 46, 110
5, 117694, Note_on_c, 11, 46, 0
5, 117696, Note_on_c, 11, 47, 110
5, 117856, Note_on_c, 11, 47, 0
5, 117888, Note_on_c, 11, 47, 110
5, 117888, Note_on_c, 11, 52, 110
5, 117982, Note_on_c, 11, 47, 0
5, 117982, Note_on_c, 11, 52, 0
5, 117984, Note_on_c, 11, 47, 110
5, 117984, Note_on_c, 11, 51, 110
5, 118078, Note_on_c, 11, 47, 0
5, 118078, Note_on_c, 11, 51, 0
5, 118080, Note_on_c, 11, 47, 110
5, 118080, Note_on_c, 11, 52, 110
5, 118174, Note_on_c, 11, 47, 0
5, 118174, Note_on_c, 11, 52, 0
5, 118176, Note_on_c, 11, 47, 110
5, 118176, Note_on_c, 11, 54, 110
5, 118270, Note_on_c, 11, 47, 0
5, 118270, Note_on_c, 11, 54, 0
5, 118272, Note_on_c, 11, 47, 110
5, 118272, Note_on_c, 11, 52, 110
5, 118366, Note_on_c, 11, 47, 0
5, 118366, Note_on_c, 11, 52, 0
5, 118368, Note_on_c, 11, 47, 110
5, 118368, Note_on_c, 11, 51, 110
5, 118624, Note_on_c, 11, 47, 0
5, 118624, Note_on_c, 11, 51, 0
5, 118656, Note_on_c, 11, 47, 110
5, 118656, Note_on_c, 11, 52, 110
5, 118750, Note_on_c, 11, 47, 0
5, 118750, Note_on_c, 11, 52, 0
5, 118752, Note_on_c, 11, 47, 110
5, 118752, Note_on_c, 11, 51, 110
5, 118846, Note_on_c, 11, 47, 0
5, 118846, Note_on_c, 11, 51, 0
5, 118848, Note_on_c, 11, 47, 110
5, 118848, Note_on_c, 11, 52, 110
5, 118942, Note_on_c, 11, 47, 0
5, 118942, Note_on_c, 11, 52, 0
5, 118944, Note_on_c, 11, 47, 110
5, 118944, Note_on_c, 11, 54, 110
5, 119038, Note_on_c, 11, 47, 0
5, 119038, Note_on_c, 11, 54, 0
5, 119040, Note_on_c, 11, 47, 110
5, 119040, Note_on_c, 11, 52, 110
5, 119200, Note_on_c, 11, 47, 0
5, 119200, Note_on_c, 11, 52, 0
5, 119232, Note_on_c, 11, 38, 110
5, 119326, Note_on_c, 11, 38, 0
5, 119328, Note_on_c, 11, 38, 110
5, 119422, Note_on_c, 11, 38, 0
5, 119520, Note_on_c, 11, 38, 110
5, 119614, Note_on_c, 11, 38, 0
5, 119616, Note_on_c, 11, 38, 110
5, 119710, Note_on_c, 11, 38, 0
5, 119712, Note_on_c, 11, 38, 110
5, 119806, Note_on_c, 11, 38, 0
5, 119904, Note_on_c, 11, 38, 110
5, 119998, Note_on_c, 11, 38, 0
5, 120000, Note_on_c, 11, 38, 110
5, 120094, Note_on_c, 11, 38, 0
5, 120096, Note_on_c, 11, 38, 110
5, 120190, Note_on_c, 11, 38, 0
5, 120288, Note_on_c, 11, 38, 110
5, 120382, Note_on_c, 11, 38, 0
5, 120384, Note_on_c, 11, 38, 110
5, 120478, Note_on_c, 11, 38, 0
5, 120480, Note_on_c, 11, 43, 110
5, 120574, Note_on_c, 11, 43, 0
5, 120576, Note_on_c, 11, 44, 110
5, 120736, Note_on_c, 11, 44, 0
5, 120768, Note_on_c, 11, 45, 110
5, 120862, Note_on_c, 11, 45, 0
5, 120864, Note_on_c, 11, 45, 110
5, 120958, Note_on_c, 11, 45, 0
5, 121056, Note_on_c, 11, 45, 110
5, 121150, Note_on_c, 11, 45, 0
5, 121152, Note_on_c, 11, 45, 110
5, 121246, Note_on_c, 11, 45, 0
5, 121248, Note_on_c, 11, 45, 110
5, 121342, Note_on_c, 11, 45, 0
5, 121440, Note_on_c, 11, 45, 110
5, 121534, Note_on_c, 11, 45, 0
5, 121536, Control_c, 11, 7, 127
5, 121536, Note_on_c, 11, 45, 110
5, 121559, Control_c, 11, 7, 126
5, 121582, Control_c, 11, 7, 125
5, 121605, Control_c, 11, 7, 124
5, 121629, Control_c, 11, 7, 123
5, 121630, Note_on_c, 11, 45, 0
5, 121632, Note_on_c, 11, 45, 110
5, 121652, Control_c, 11, 7, 122
5, 121675, Control_c, 11, 7, 121
5, 121698, Control_c, 11, 7, 120
5, 121722, Control_c, 11, 7, 119
5, 121726, Note_on_c, 11, 45, 0
5, 121745, Control_c, 11, 7, 118
5, 121768, Control_c, 11, 7, 117
5, 121792, Control_c, 11, 7, 116
5, 121815, Control_c, 11, 7, 115
5, 121824, Note_on_c, 11, 45, 110
5, 121838, Control_c, 11, 7, 114
5, 121861, Control_c, 11, 7, 113
5, 121885, Control_c, 11, 7, 112
5, 121908, Control_c, 11, 7, 111
5, 121918, Note_on_c, 11, 45, 0
5, 121920, Note_on_c, 11, 45, 110
5, 121931, Control_c, 11, 7, 110
5, 121954, Control_c, 11, 7, 109
5, 121978, Control_c, 11, 7, 108
5, 122001, Control_c, 11, 7, 107
5, 122014, Note_on_c, 11, 45, 0
5, 122016, Note_on_c, 11, 40, 110
5, 122024, Control_c, 11, 7, 106
5, 122048, Control_c, 11, 7, 105
5, 122071, Control_c, 11, 7, 104
5, 122094, Control_c, 11, 7, 103
5, 122110, Note_on_c, 11, 40, 0
5, 122112, Note_on_c, 11, 45, 110
5, 122117, Control_c, 11, 7, 102
5, 122141, Control_c, 11, 7, 101
5, 122164, Control_c, 11, 7, 100
5, 122187, Control_c, 11, 7, 99
5, 122206, Note_on_c, 11, 45, 0
5, 122208, Note_on_c, 11, 46, 110
5, 122210, Control_c, 11, 7, 98
5, 122234, Control_c, 11, 7, 97
5, 122257, Control_c, 11, 7, 96
5, 122280, Control_c, 11, 7, 95
5, 122302, Note_on_c, 11, 46, 0
5, 122304, Control_c, 11, 7, 94
5, 122304, Control_c, 11, 7, 94
5, 122304, Note_on_c, 11, 47, 110
5, 122358, Control_c, 11, 7, 93
5, 122413, Control_c, 11, 7, 92
5, 122464, Note_on_c, 11, 47, 0
5, 122468, Control_c, 11, 7, 91
5, 122496, Note_on_c, 11, 47, 110
5, 122496, Note_on_c, 11, 52, 110
5, 122523, Control_c, 11, 7, 90
5, 122578, Control_c, 11, 7, 89
5, 122590, Note_on_c, 11, 47, 0
5, 122590, Note_on_c, 11, 52, 0
5, 122592, Note_on_c, 11, 47, 110
5, 122592, Note_on_c, 11, 51, 110
5, 122633, Control_c, 11, 7, 88
5, 122686, Note_on_c, 11, 47, 0
5, 122686, Note_on_c, 11, 51, 0
5, 122688, Control_c, 11, 7, 87
5, 122688, Note_on_c, 11, 47, 110
5, 122688, Note_on_c, 11, 52, 110
5, 122742, Control_c, 11, 7, 86
5, 122782, Note_on_c, 11, 47, 0
5, 122782, Note_on_c, 11, 52, 0
5, 122784, Note_on_c, 11, 47, 110
5, 122784, Note_on_c, 11, 54, 110
5, 122797, Control_c, 11, 7, 85
5, 122852, Control_c, 11, 7, 84
5, 122878, Note_on_c, 11, 47, 0
5, 122878, Note_on_c, 11, 54, 0
5, 122880, Note_on_c, 11, 47, 110
5, 122880, Note_on_c, 11, 52, 110
5, 122907, Control_c, 11, 7, 83
5, 122962, Control_c, 11, 7, 82
5, 122974, Note_on_c, 11, 47, 0
5, 122974, Note_on_c, 11, 52, 0
5, 122976, Note_on_c, 11, 47, 110
5, 122976, Note_on_c, 11, 51, 110
5, 123017, Control_c, 11, 7, 81
5, 123072, Control_c, 11, 7, 80
5, 123072, Control_c, 11, 7, 80
5, 123097, Control_c, 11, 7, 79
5, 123123, Control_c, 11, 7, 78
5, 123148, Control_c, 11, 7, 77
5, 123174, Control_c, 11, 7, 76
5, 123200, Control_c, 11, 7, 75
5, 123225, Control_c, 11, 7, 74
5, 123232, Note_on_c, 11, 47, 0
5, 123232, Note_on_c, 11, 51, 0
5, 123251, Control_c, 11, 7, 73
5, 123264, Note_on_c, 11, 47, 110
5, 123264, Note_on_c, 11, 52, 110
5, 123276, Control_c, 11, 7, 72
5, 123302, Control_c, 11, 7, 71
5, 123328, Control_c, 11, 7, 70
5, 123353, Control_c, 11, 7, 69
5, 123358, Note_on_c, 11, 47, 0
5, 123358, Note_on_c, 11, 52, 0
5, 123360, Note_on_c, 11, 47, 110
5, 123360, Note_on_c, 11, 51, 110
5, 123379, Control_c, 11, 7, 68
5, 123404, Control_c, 11, 7, 67
5, 123430, Control_c, 11, 7, 66
5, 123454, Note_on_c, 11, 47, 0
5, 123454, Note_on_c, 11, 51, 0
5, 123456, Control_c, 11, 7, 65
5, 123456, Note_on_c, 11, 47, 110
5, 123456, Note_on_c, 11, 52, 110
5, 123481, Control_c, 11, 7, 64
5, 123507, Control_c, 11, 7, 63
5, 123532, Control_c, 11, 7, 62
5, 123550, Note_on_c, 11, 47, 0
5, 123550, Note_on_c, 11, 52, 0
5, 123552, Note_on_c, 11, 47, 110
5, 123552, Note_on_c, 11, 54, 110
5, 123558, Control_c, 11, 7, 61
5, 123584, Control_c, 11, 7, 60
5, 123609, Control_c, 11, 7, 59
5, 123635, Control_c, 11, 7, 58
5, 123646, Note_on_c, 11, 47, 0
5, 123646, Note_on_c, 11, 54, 0
5, 123648, Note_on_c, 11, 47, 110
5, 123648, Note_on_c, 11, 52, 110
5, 123660, Control_c, 11, 7, 57
5, 123686, Control_c, 11, 7, 56
5, 123712, Control_c, 11, 7, 55
5, 123737, Control_c, 11, 7, 54
5, 123763, Control_c, 11, 7, 53
5, 123788, Control_c, 11, 7, 52
5, 123808, Note_on_c, 11, 47, 0
5, 123808, Note_on_c, 11, 52, 0
5, 123814, Control_c, 11, 7, 51
5, 123840, Control_c, 11, 7, 50
5, 123840, Control_c, 11, 7, 50
5, 123840, Note_on_c, 11, 38, 110
5, 123878, Control_c, 11, 7, 49
5, 123916, Control_c, 11, 7, 48
5, 123934, Note_on_c, 11, 38, 0
5, 123936, Note_on_c, 11, 38, 110
5, 123955, Control_c, 11, 7, 47
5, 123993, Control_c, 11, 7, 46
5, 124030, Note_on_c, 11, 38, 0
5, 124032, Control_c, 11, 7, 45
5, 124070, Control_c, 11, 7, 44
5, 124108, Control_c, 11, 7, 43
5, 124128, Note_on_c, 11, 38, 110
5, 124147, Control_c, 11, 7, 42
5, 124185, Control_c, 11, 7, 41
5, 124222, Note_on_c, 11, 38, 0
5, 124224, Control_c, 11, 7, 40
5, 124224, Note_on_c, 11, 38, 110
5, 124262, Control_c, 11, 7, 39
5, 124300, Control_c, 11, 7, 38
5, 124318, Note_on_c, 11, 38, 0
5, 124320, Note_on_c, 11, 38, 110
5, 124339, Control_c, 11, 7, 37
5, 124377, Control_c, 11, 7, 36
5, 124414, Note_on_c, 11, 38, 0
5, 124416, Control_c, 11, 7, 35
5, 124454, Control_c, 11, 7, 34
5, 124492, Control_c, 11, 7, 33
5, 124512, Note_on_c, 11, 38, 110
5, 124531, Control_c, 11, 7, 32
5, 124569, Control_c, 11, 7, 31
5, 124606, Note_on_c, 11, 38, 0
5, 124608, Control_c, 11, 7, 30
5, 124608, Control_c, 11, 7, 30
5, 124608, Note_on_c, 11, 38, 110
5, 124650, Control_c, 11, 7, 29
5, 124693, Control_c, 11, 7, 28
5, 124702, Note_on_c, 11, 38, 0
5, 124704, Note_on_c, 11, 38, 110
5, 124736, Control_c, 11, 7, 27
5, 124778, Control_c, 11, 7, 26
5, 124798, Note_on_c, 11, 38, 0
5, 124821, Control_c, 11, 7, 25
5, 124864, Control_c, 11, 7, 24
5, 124896, Note_on_c, 11, 38, 110
5, 124906, Control_c, 11, 7, 23
5, 124949, Control_c, 11, 7, 22
5, 124990, Note_on_c, 11, 38, 0
5, 124992, Control_c, 11, 7, 21
5, 124992, Note_on_c, 11, 38, 110
5, 125034, Control_c, 11, 7, 20
5, 125077, Control_c, 11, 7, 19
5, 125086, Note_on_c, 11, 38, 0
5, 125088, Note_on_c, 11, 43, 110
5, 125120, Control_c, 11, 7, 18
5, 125162, Control_c, 11, 7, 17
5, 125182, Note_on_c, 11, 43, 0
5, 125184, Note_on_c, 11, 44, 110
5, 125205, Control_c, 11, 7, 16
5, 125248, Control_c, 11, 7, 15
5, 125290, Control_c, 11, 7, 14
5, 125333, Control_c, 11, 7, 13
5, 125344, Note_on_c, 11, 44, 0
5, 125376, Control_c, 11, 7, 12
5, 125376, Control_c, 11, 7, 12
5, 125376, Note_on_c, 11, 45, 110
5, 125440, Control_c, 11, 7, 11
5, 125470, Note_on_c, 11, 45, 0
5, 125472, Note_on_c, 11, 45, 110
5, 125504, Control_c, 11, 7, 10
5, 125566, Note_on_c, 11, 45, 0
5, 125568, Control_c, 11, 7, 9
5, 125632, Control_c, 11, 7, 8
5, 125664, Note_on_c, 11, 45, 110
5, 125696, Control_c, 11, 7, 7
5, 125758, Note_on_c, 11, 45, 0
5, 125760, Control_c, 11, 7, 6
5, 125760, Note_on_c, 11, 45, 110
5, 125824, Control_c, 11, 7, 5
5, 125854, Note_on_c, 11, 45, 0
5, 125856, Note_on_c, 11, 45, 110
5, 125888, Control_c, 11, 7, 4
5, 125950, Note_on_c, 11, 45, 0
5, 125952, Control_c, 11, 7, 3
5, 126016, Control_c, 11, 7, 2
5, 126048, Note_on_c, 11, 45, 110
5, 126080, Control_c, 11, 7, 1
5, 126142, Note_on_c, 11, 45, 0
5, 126144, Control_c, 11, 7, 0
5, 126144, Note_on_c, 11, 45, 110
5, 126238, Note_on_c, 11, 45, 0
5, 126240, Note_on_c, 11, 45, 110
5, 126334, Note_on_c, 11, 45, 0
5, 126432, Note_on_c, 11, 45, 110
5, 126526, Note_on_c, 11, 45, 0
5, 126528, Note_on_c, 11, 45, 110
5, 126622, Note_on_c, 11, 45, 0
5, 126624, Note_on_c, 11, 40, 110
5, 126718, Note_on_c, 11, 40, 0
5, 126720, Note_on_c, 11, 45, 110
5, 126814, Note_on_c, 11, 45, 0
5, 126816, Note_on_c, 11, 46, 110
5, 126910, Note_on_c, 11, 46, 0
5, 126910, End_track
6, 0, Start_track
6, 0, MIDI_port, 0
6, 0, Title_t, "Staff-5"
6, 0, Program_c, 12, 87
6, 0, Control_c, 12, 7, 127
6, 0, Control_c, 12, 10, 64
6, 11904, Note_on_c, 12, 54, 110
6, 11998, Note_on_c, 12, 54, 0
6, 12000, Note_on_c, 12, 54, 110
6, 12094, Note_on_c, 12, 54, 0
6, 12096, Note_on_c, 12, 54, 110
6, 12190, Note_on_c, 12, 54, 0
6, 12192, Note_on_c, 12, 54, 110
6, 12286, Note_on_c, 12, 54, 0
6, 12288, Note_on_c, 12, 54, 110
6, 12382, Note_on_c, 12, 54, 0
6, 12384, Note_on_c, 12, 56, 110
6, 12574, Note_on_c, 12, 56, 0
6, 12576, Note_on_c, 12, 54, 110
6, 12912, Note_on_c, 12, 54, 0
6, 13248, Note_on_c, 12, 59, 110
6, 13504, Note_on_c, 12, 59, 0
6, 13536, Note_on_c, 12, 57, 110
6, 13630, Note_on_c, 12, 57, 0
6, 13632, Note_on_c, 12, 56, 110
6, 13726, Note_on_c, 12, 56, 0
6, 13728, Note_on_c, 12, 47, 110
6, 13888, Note_on_c, 12, 47, 0
6, 13920, Note_on_c, 12, 47, 110
6, 14352, Note_on_c, 12, 47, 0
6, 14976, Note_on_c, 12, 50, 110
6, 15070, Note_on_c, 12, 50, 0
6, 15072, Note_on_c, 12, 47, 110
6, 15166, Note_on_c, 12, 47, 0
6, 15168, Note_on_c, 12, 50, 110
6, 15262, Note_on_c, 12, 50, 0
6, 15264, Note_on_c, 12, 47, 110
6, 15424, Note_on_c, 12, 47, 0
6, 15456, Note_on_c, 12, 52, 110
6, 15646, Note_on_c, 12, 52, 0
6, 15648, Note_on_c, 12, 50, 110
6, 15984, Note_on_c, 12, 50, 0
6, 16512, Note_on_c, 12, 46, 110
6, 16606, Note_on_c, 12, 46, 0
6, 16608, Note_on_c, 12, 41, 110
6, 16702, Note_on_c, 12, 41, 0
6, 16704, Note_on_c, 12, 46, 110
6, 16798, Note_on_c, 12, 46, 0
6, 16800, Note_on_c, 12, 48, 110
6, 16960, Note_on_c, 12, 48, 0
6, 16992, Note_on_c, 12, 44, 110
6, 17424, Note_on_c, 12, 44, 0
6, 17952, Note_on_c, 12, 54, 110
6, 18046, Note_on_c, 12, 54, 0
6, 18048, Note_on_c, 12, 54, 110
6, 18142, Note_on_c, 12, 54, 0
6, 18144, Note_on_c, 12, 54, 110
6, 18238, Note_on_c, 12, 54, 0
6, 18240, Note_on_c, 12, 54, 110
6, 18334, Note_on_c, 12, 54, 0
6, 18336, Note_on_c, 12, 54, 110
6, 18430, Note_on_c, 12, 54, 0
6, 18432, Note_on_c, 12, 54, 110
6, 18526, Note_on_c, 12, 54, 0
6, 18528, Note_on_c, 12, 56, 110
6, 18718, Note_on_c, 12, 56, 0
6, 18720, Note_on_c, 12, 54, 110
6, 19056, Note_on_c, 12, 54, 0
6, 19392, Note_on_c, 12, 59, 110
6, 19648, Note_on_c, 12, 59, 0
6, 19680, Note_on_c, 12, 57, 110
6, 19774, Note_on_c, 12, 57, 0
6, 19776, Note_on_c, 12, 56, 110
6, 19870, Note_on_c, 12, 56, 0
6, 19872, Note_on_c, 12, 47, 110
6, 20032, Note_on_c, 12, 47, 0
6, 20064, Note_on_c, 12, 47, 110
6, 20496, Note_on_c, 12, 47, 0
6, 21024, Note_on_c, 12, 50, 110
6, 21118, Note_on_c, 12, 50, 0
6, 21120, Note_on_c, 12, 50, 110
6, 21214, Note_on_c, 12, 50, 0
6, 21216, Note_on_c, 12, 47, 110
6, 21310, Note_on_c, 12, 47, 0
6, 21312, Note_on_c, 12, 47, 110
6, 21406, Note_on_c, 12, 47, 0
6, 21408, Note_on_c, 12, 50, 110
6, 21502, Note_on_c, 12, 50, 0
6, 21504, Note_on_c, 12, 47, 110
6, 21598, Note_on_c, 12, 47, 0
6, 21600, Note_on_c, 12, 52, 110
6, 21790, Note_on_c, 12, 52, 0
6, 21792, Note_on_c, 12, 50, 110
6, 22128, Note_on_c, 12, 50, 0
6, 22656, Note_on_c, 12, 46, 110
6, 22816, Note_on_c, 12, 46, 0
6, 22848, Note_on_c, 12, 46, 110
6, 22942, Note_on_c, 12, 46, 0
6, 22944, Note_on_c, 12, 46, 110
6, 23038, Note_on_c, 12, 46, 0
6, 23040, Note_on_c, 12, 48, 110
6, 23134, Note_on_c, 12, 48, 0
6, 23136, Note_on_c, 12, 45, 110
6, 23568, Note_on_c, 12, 45, 0
6, 24480, Note_on_c, 12, 57, 110
6, 24574, Note_on_c, 12, 57, 0
6, 24576, Note_on_c, 12, 59, 110
6, 24670, Note_on_c, 12, 59, 0
6, 24672, Note_on_c, 12, 57, 110
6, 24766, Note_on_c, 12, 57, 0
6, 24768, Note_on_c, 12, 68, 110
6, 24928, Note_on_c, 12, 68, 0
6, 24960, Note_on_c, 12, 61, 110
6, 25054, Note_on_c, 12, 61, 0
6, 25056, Note_on_c, 12, 64, 110
6, 25216, Note_on_c, 12, 64, 0
6, 25248, Note_on_c, 12, 66, 110
6, 25408, Note_on_c, 12, 66, 0
6, 25440, Note_on_c, 12, 61, 110
6, 26206, Note_on_c, 12, 61, 0
6, 26208, Pitch_bend_c, 12, 4680
6, 26208, Note_on_c, 12, 59, 110
6, 26208, Note_on_c, 12, 63, 110
6, 26209, Pitch_bend_c, 12, 4712
6, 26211, Pitch_bend_c, 12, 4744
6, 26213, Pitch_bend_c, 12, 4776
6, 26215, Pitch_bend_c, 12, 4808
6, 26216, Pitch_bend_c, 12, 4840
6, 26218, Pitch_bend_c, 12, 4872
6, 26220, Pitch_bend_c, 12, 4904
6, 26222, Pitch_bend_c, 12, 4936
6, 26223, Pitch_bend_c, 12, 4968
6, 26225, Pitch_bend_c, 12, 5000
6, 26227, Pitch_bend_c, 12, 5032
6, 26229, Pitch_bend_c, 12, 5064
6, 26230, Pitch_bend_c, 12, 5096
6, 26232, Pitch_bend_c, 12, 5128
6, 26234, Pitch_bend_c, 12, 5160
6, 26236, Pitch_bend_c, 12, 5192
6, 26237, Pitch_bend_c, 12, 5224
6, 26239, Pitch_bend_c, 12, 5256
6, 26241, Pitch_bend_c, 12, 5288
6, 26243, Pitch_bend_c, 12, 5320
6, 26244, Pitch_bend_c, 12, 5352
6, 26246, Pitch_bend_c, 12, 5384
6, 26248, Pitch_bend_c, 12, 5416
6, 26250, Pitch_bend_c, 12, 5448
6, 26252, Pitch_bend_c, 12, 5480
6, 26253, Pitch_bend_c, 12, 5512
6, 26255, Pitch_bend_c, 12, 5544
6, 26257, Pitch_bend_c, 12, 5576
6, 26259, Pitch_bend_c, 12, 5608
6, 26260, Pitch_bend_c, 12, 5640
6, 26262, Pitch_bend_c, 12, 5672
6, 26264, Pitch_bend_c, 12, 5704
6, 26266, Pitch_bend_c, 12, 5736
6, 26267, Pitch_bend_c, 12, 5768
6, 26269, Pitch_bend_c, 12, 5800
6, 26271, Pitch_bend_c, 12, 5832
6, 26273, Pitch_bend_c, 12, 5864
6, 26274, Pitch_bend_c, 12, 5896
6, 26276, Pitch_bend_c, 12, 5928
6, 26278, Pitch_bend_c, 12, 5960
6, 26280, Pitch_bend_c, 12, 5992
6, 26281, Pitch_bend_c, 12, 6024
6, 26283, Pitch_bend_c, 12, 6056
6, 26285, Pitch_bend_c, 12, 6088
6, 26287, Pitch_bend_c, 12, 6120
6, 26289, Pitch_bend_c, 12, 6152
6, 26290, Pitch_bend_c, 12, 6184
6, 26292, Pitch_bend_c, 12, 6216
6, 26294, Pitch_bend_c, 12, 6248
6, 26296, Pitch_bend_c, 12, 6280
6, 26297, Pitch_bend_c, 12, 6312
6, 26299, Pitch_bend_c, 12, 6344
6, 26301, Pitch_bend_c, 12, 6376
6, 26303, Pitch_bend_c, 12, 6408
6, 26304, Pitch_bend_c, 12, 6440
6, 26306, Pitch_bend_c, 12, 6472
6, 26308, Pitch_bend_c, 12, 6504
6, 26310, Pitch_bend_c, 12, 6536
6, 26311, Pitch_bend_c, 12, 6568
6, 26313, Pitch_bend_c, 12, 6600
6, 26315, Pitch_bend_c, 12, 6632
6, 26317, Pitch_bend_c, 12, 6664
6, 26318, Pitch_bend_c, 12, 6696
6, 26320, Pitch_bend_c, 12, 6728
6, 26322, Pitch_bend_c, 12, 6760
6, 26324, Pitch_bend_c, 12, 6792
6, 26326, Pitch_bend_c, 12, 6824
6, 26327, Pitch_bend_c, 12, 6856
6, 26329, Pitch_bend_c, 12, 6888
6, 26331, Pitch_bend_c, 12, 6920
6, 26333, Pitch_bend_c, 12, 6952
6, 26334, Pitch_bend_c, 12, 6984
6, 26336, Pitch_bend_c, 12, 7016
6, 26338, Pitch_bend_c, 12, 7048
6, 26340, Pitch_bend_c, 12, 7080
6, 26341, Pitch_bend_c, 12, 7112
6, 26343, Pitch_bend_c, 12, 7144
6, 26345, Pitch_bend_c, 12, 7176
6, 26347, Pitch_bend_c, 12, 7208
6, 26348, Pitch_bend_c, 12, 7240
6, 26350, Pitch_bend_c, 12, 7272
6, 26352, Pitch_bend_c, 12, 7304
6, 26354, Pitch_bend_c, 12, 7336
6, 26355, Pitch_bend_c, 12, 7368
6, 26357, Pitch_bend_c, 12, 7400
6, 26359, Pitch_bend_c, 12, 7432
6, 26361, Pitch_bend_c, 12, 7464
6, 26363, Pitch_bend_c, 12, 7496
6, 26364, Pitch_bend_c, 12, 7528
6, 26366, Pitch_bend_c, 12, 7560
6, 26368, Pitch_bend_c, 12, 7592
6, 26370, Pitch_bend_c, 12, 7624
6, 26371, Pitch_bend_c, 12, 7656
6, 26373, Pitch_bend_c, 12, 7688
6, 26375, Pitch_bend_c, 12, 7720
6, 26377, Pitch_bend_c, 12, 7752
6, 26378, Pitch_bend_c, 12, 7784
6, 26380, Pitch_bend_c, 12, 7816
6, 26382, Pitch_bend_c, 12, 7848
6, 26384, Pitch_bend_c, 12, 7880
6, 26385, Pitch_bend_c, 12, 7912
6, 26387, Pitch_bend_c, 12, 7944
6, 26389, Pitch_bend_c, 12, 7976
6, 26391, Pitch_bend_c, 12, 8008
6, 26392, Pitch_bend_c, 12, 8040
6, 26394, Pitch_bend_c, 12, 8072
6, 26396, Pitch_bend_c, 12, 8104
6, 26398, Pitch_bend_c, 12, 8136
6, 26400, Pitch_bend_c, 12, 8192
6, 26782, Note_on_c, 12, 59, 0
6, 26782, Note_on_c, 12, 63, 0
6, 26784, Note_on_c, 12, 61, 110
6, 26784, Note_on_c, 12, 64, 110
6, 26944, Note_on_c, 12, 61, 0
6, 26944, Note_on_c, 12, 64, 0
6, 26976, Note_on_c, 12, 57, 110
6, 26976, Note_on_c, 12, 61, 110
6, 27600, Note_on_c, 12, 57, 0
6, 27600, Note_on_c, 12, 61, 0
6, 27744, Note_on_c, 12, 56, 110
6, 27744, Note_on_c, 12, 68, 110
6, 27934, Note_on_c, 12, 56, 0
6, 27934, Note_on_c, 12, 68, 0
6, 27936, Note_on_c, 12, 49, 110
6, 27936, Note_on_c, 12, 68, 110
6, 28096, Note_on_c, 12, 49, 0
6, 28096, Note_on_c, 12, 68, 0
6, 28128, Note_on_c, 12, 52, 110
6, 28128, Note_on_c, 12, 68, 110
6, 28288, Note_on_c, 12, 52, 0
6, 28288, Note_on_c, 12, 68, 0
6, 28320, Note_on_c, 12, 54, 110
6, 28320, Note_on_c, 12, 68, 110
6, 28480, Note_on_c, 12, 54, 0
6, 28480, Note_on_c, 12, 68, 0
6, 28512, Note_on_c, 12, 56, 110
6, 28512, Note_on_c, 12, 68, 110
6, 28702, Note_on_c, 12, 56, 0
6, 28702, Note_on_c, 12, 68, 0
6, 28704, Note_on_c, 12, 54, 110
6, 28704, Note_on_c, 12, 68, 110
6, 28864, Note_on_c, 12, 54, 0
6, 28864, Note_on_c, 12, 68, 0
6, 28896, Note_on_c, 12, 52, 110
6, 28896, Note_on_c, 12, 68, 110
6, 29056, Note_on_c, 12, 52, 0
6, 29056, Note_on_c, 12, 68, 0
6, 29088, Note_on_c, 12, 49, 110
6, 29088, Note_on_c, 12, 68, 110
6, 29182, Note_on_c, 12, 49, 0
6, 29182, Note_on_c, 12, 68, 0
6, 29184, Note_on_c, 12, 52, 110
6, 29184, Note_on_c, 12, 68, 110
6, 29278, Note_on_c, 12, 52, 0
6, 29278, Note_on_c, 12, 68, 0
6, 29280, Note_on_c, 12, 54, 110
6, 29280, Note_on_c, 12, 68, 110
6, 29470, Note_on_c, 12, 54, 0
6, 29470, Note_on_c, 12, 68, 0
6, 29472, Note_on_c, 12, 52, 110
6, 29472, Note_on_c, 12, 64, 110
6, 29632, Note_on_c, 12, 52, 0
6, 29632, Note_on_c, 12, 64, 0
6, 29664, Note_on_c, 12, 49, 110
6, 29664, Note_on_c, 12, 64, 110
6, 29824, Note_on_c, 12, 49, 0
6, 29824, Note_on_c, 12, 64, 0
6, 29856, Note_on_c, 12, 52, 110
6, 29856, Note_on_c, 12, 64, 110
6, 30016, Note_on_c, 12, 52, 0
6, 30016, Note_on_c, 12, 64, 0
6, 30048, Note_on_c, 12, 54, 110
6, 30048, Note_on_c, 12, 66, 110
6, 30864, Note_on_c, 12, 54, 0
6, 30864, Note_on_c, 12, 66, 0
6, 30912, Note_on_c, 12, 68, 110
6, 31072, Note_on_c, 12, 68, 0
6, 31104, Note_on_c, 12, 61, 110
6, 31198, Note_on_c, 12, 61, 0
6, 31200, Note_on_c, 12, 64, 110
6, 31360, Note_on_c, 12, 64, 0
6, 31392, Note_on_c, 12, 66, 110
6, 31552, Note_on_c, 12, 66, 0
6, 31584, Note_on_c, 12, 61, 110
6, 32208, Note_on_c, 12, 61, 0
6, 32256, Note_on_c, 12, 54, 110
6, 32350, Note_on_c, 12, 54, 0
6, 32352, Pitch_bend_c, 12, 4680
6, 32352, Note_on_c, 12, 59, 110
6, 32352, Note_on_c, 12, 63, 110
6, 32353, Pitch_bend_c, 12, 4712
6, 32355, Pitch_bend_c, 12, 4744
6, 32357, Pitch_bend_c, 12, 4776
6, 32359, Pitch_bend_c, 12, 4808
6, 32360, Pitch_bend_c, 12, 4840
6, 32362, Pitch_bend_c, 12, 4872
6, 32364, Pitch_bend_c, 12, 4904
6, 32366, Pitch_bend_c, 12, 4936
6, 32367, Pitch_bend_c, 12, 4968
6, 32369, Pitch_bend_c, 12, 5000
6, 32371, Pitch_bend_c, 12, 5032
6, 32373, Pitch_bend_c, 12, 5064
6, 32374, Pitch_bend_c, 12, 5096
6, 32376, Pitch_bend_c, 12, 5128
6, 32378, Pitch_bend_c, 12, 5160
6, 32380, Pitch_bend_c, 12, 5192
6, 32381, Pitch_bend_c, 12, 5224
6, 32383, Pitch_bend_c, 12, 5256
6, 32385, Pitch_bend_c, 12, 5288
6, 32387, Pitch_bend_c, 12, 5320
6, 32388, Pitch_bend_c, 12, 5352
6, 32390, Pitch_bend_c, 12, 5384
6, 32392, Pitch_bend_c, 12, 5416
6, 32394, Pitch_bend_c, 12, 5448
6, 32396, Pitch_bend_c, 12, 5480
6, 32397, Pitch_bend_c, 12, 5512
6, 32399, Pitch_bend_c, 12, 5544
6, 32401, Pitch_bend_c, 12, 5576
6, 32403, Pitch_bend_c, 12, 5608
6, 32404, Pitch_bend_c, 12, 5640
6, 32406, Pitch_bend_c, 12, 5672
6, 32408, Pitch_bend_c, 12, 5704
6, 32410, Pitch_bend_c, 12, 5736
6, 32411, Pitch_bend_c, 12, 5768
6, 32413, Pitch_bend_c, 12, 5800
6, 32415, Pitch_bend_c, 12, 5832
6, 32417, Pitch_bend_c, 12, 5864
6, 32418, Pitch_bend_c, 12, 5896
6, 32420, Pitch_bend_c, 12, 5928
6, 32422, Pitch_bend_c, 12, 5960
6, 32424, Pitch_bend_c, 12, 5992
6, 32425, Pitch_bend_c, 12, 6024
6, 32427, Pitch_bend_c, 12, 6056
6, 32429, Pitch_bend_c, 12, 6088
6, 32431, Pitch_bend_c, 12, 6120
6, 32433, Pitch_bend_c, 12, 6152
6, 32434, Pitch_bend_c, 12, 6184
6, 32436, Pitch_bend_c, 12, 6216
6, 32438, Pitch_bend_c, 12, 6248
6, 32440, Pitch_bend_c, 12, 6280
6, 32441, Pitch_bend_c, 12, 6312
6, 32443, Pitch_bend_c, 12, 6344
6, 32445, Pitch_bend_c, 12, 6376
6, 32447, Pitch_bend_c, 12, 6408
6, 32448, Pitch_bend_c, 12, 6440
6, 32450, Pitch_bend_c, 12, 6472
6, 32452, Pitch_bend_c, 12, 6504
6, 32454, Pitch_bend_c, 12, 6536
6, 32455, Pitch_bend_c, 12, 6568
6, 32457, Pitch_bend_c, 12, 6600
6, 32459, Pitch_bend_c, 12, 6632
6, 32461, Pitch_bend_c, 12, 6664
6, 32462, Pitch_bend_c, 12, 6696
6, 32464, Pitch_bend_c, 12, 6728
6, 32466, Pitch_bend_c, 12, 6760
6, 32468, Pitch_bend_c, 12, 6792
6, 32470, Pitch_bend_c, 12, 6824
6, 32471, Pitch_bend_c, 12, 6856
6, 32473, Pitch_bend_c, 12, 6888
6, 32475, Pitch_bend_c, 12, 6920
6, 32477, Pitch_bend_c, 12, 6952
6, 32478, Pitch_bend_c, 12, 6984
6, 32480, Pitch_bend_c, 12, 7016
6, 32482, Pitch_bend_c, 12, 7048
6, 32484, Pitch_bend_c, 12, 7080
6, 32485, Pitch_bend_c, 12, 7112
6, 32487, Pitch_bend_c, 12, 7144
6, 32489, Pitch_bend_c, 12, 7176
6, 32491, Pitch_bend_c, 12, 7208
6, 32492, Pitch_bend_c, 12, 7240
6, 32494, Pitch_bend_c, 12, 7272
6, 32496, Pitch_bend_c, 12, 7304
6, 32498, Pitch_bend_c, 12, 7336
6, 32499, Pitch_bend_c, 12, 7368
6, 32501, Pitch_bend_c, 12, 7400
6, 32503, Pitch_bend_c, 12, 7432
6, 32505, Pitch_bend_c, 12, 7464
6, 32507, Pitch_bend_c, 12, 7496
6, 32508, Pitch_bend_c, 12, 7528
6, 32510, Pitch_bend_c, 12, 7560
6, 32512, Pitch_bend_c, 12, 7592
6, 32514, Pitch_bend_c, 12, 7624
6, 32515, Pitch_bend_c, 12, 7656
6, 32517, Pitch_bend_c, 12, 7688
6, 32519, Pitch_bend_c, 12, 7720
6, 32521, Pitch_bend_c, 12, 7752
6, 32522, Pitch_bend_c, 12, 7784
6, 32524, Pitch_bend_c, 12, 7816
6, 32526, Pitch_bend_c, 12, 7848
6, 32528, Pitch_bend_c, 12, 7880
6, 32529, Pitch_bend_c, 12, 7912
6, 32531, Pitch_bend_c, 12, 7944
6, 32533, Pitch_bend_c, 12, 7976
6, 32535, Pitch_bend_c, 12, 8008
6, 32536, Pitch_bend_c, 12, 8040
6, 32538, Pitch_bend_c, 12, 8072
6, 32540, Pitch_bend_c, 12, 8104
6, 32542, Pitch_bend_c, 12, 8136
6, 32544, Pitch_bend_c, 12, 8192
6, 32608, Note_on_c, 12, 59, 0
6, 32608, Note_on_c, 12, 63, 0
6, 32640, Note_on_c, 12, 59, 110
6, 32640, Note_on_c, 12, 63, 110
6, 32734, Note_on_c, 12, 59, 0
6, 32734, Note_on_c, 12, 63, 0
6, 32736, Note_on_c, 12, 59, 110
6, 32736, Note_on_c, 12, 63, 110
6, 32896, Note_on_c, 12, 59, 0
6, 32896, Note_on_c, 12, 63, 0
6, 32928, Note_on_c, 12, 61, 110
6, 32928, Note_on_c, 12, 64, 110
6, 33088, Note_on_c, 12, 61, 0
6, 33088, Note_on_c, 12, 64, 0
6, 33120, Note_on_c, 12, 57, 110
6, 33120, Note_on_c, 12, 61, 110
6, 33744, Note_on_c, 12, 57, 0
6, 33744, Note_on_c, 12, 61, 0
6, 33888, Note_on_c, 12, 56, 110
6, 33888, Note_on_c, 12, 68, 110
6, 34078, Note_on_c, 12, 56, 0
6, 34078, Note_on_c, 12, 68, 0
6, 34080, Note_on_c, 12, 49, 110
6, 34080, Note_on_c, 12, 68, 110
6, 34174, Note_on_c, 12, 49, 0
6, 34174, Note_on_c, 12, 68, 0
6, 34176, Note_on_c, 12, 49, 110
6, 34176, Note_on_c, 12, 68, 110
6, 34270, Note_on_c, 12, 49, 0
6, 34270, Note_on_c, 12, 68, 0
6, 34272, Note_on_c, 12, 52, 110
6, 34272, Note_on_c, 12, 68, 110
6, 34432, Note_on_c, 12, 52, 0
6, 34432, Note_on_c, 12, 68, 0
6, 34464, Note_on_c, 12, 54, 110
6, 34464, Note_on_c, 12, 68, 110
6, 34558, Note_on_c, 12, 54, 0
6, 34558, Note_on_c, 12, 68, 0
6, 34560, Note_on_c, 12, 54, 110
6, 34560, Note_on_c, 12, 68, 110
6, 34654, Note_on_c, 12, 54, 0
6, 34654, Note_on_c, 12, 68, 0
6, 34656, Note_on_c, 12, 56, 110
6, 34656, Note_on_c, 12, 68, 110
6, 34846, Note_on_c, 12, 56, 0
6, 34846, Note_on_c, 12, 68, 0
6, 34848, Note_on_c, 12, 54, 110
6, 34848, Note_on_c, 12, 68, 110
6, 35008, Note_on_c, 12, 54, 0
6, 35008, Note_on_c, 12, 68, 0
6, 35040, Note_on_c, 12, 52, 110
6, 35040, Note_on_c, 12, 68, 110
6, 35200, Note_on_c, 12, 52, 0
6, 35200, Note_on_c, 12, 68, 0
6, 35232, Note_on_c, 12, 49, 110
6, 35232, Note_on_c, 12, 68, 110
6, 35326, Note_on_c, 12, 49, 0
6, 35326, Note_on_c, 12, 68, 0
6, 35328, Note_on_c, 12, 52, 110
6, 35328, Note_on_c, 12, 68, 110
6, 35422, Note_on_c, 12, 52, 0
6, 35422, Note_on_c, 12, 68, 0
6, 35424, Note_on_c, 12, 54, 110
6, 35424, Note_on_c, 12, 68, 110
6, 35614, Note_on_c, 12, 54, 0
6, 35614, Note_on_c, 12, 68, 0
6, 35616, Note_on_c, 12, 52, 110
6, 35616, Note_on_c, 12, 64, 110
6, 35776, Note_on_c, 12, 52, 0
6, 35776, Note_on_c, 12, 64, 0
6, 35808, Note_on_c, 12, 49, 110
6, 35808, Note_on_c, 12, 64, 110
6, 35968, Note_on_c, 12, 49, 0
6, 35968, Note_on_c, 12, 64, 0
6, 36000, Note_on_c, 12, 52, 110
6, 36000, Note_on_c, 12, 64, 110
6, 36160, Note_on_c, 12, 52, 0
6, 36160, Note_on_c, 12, 64, 0
6, 36192, Note_on_c, 12, 54, 110
6, 36192, Note_on_c, 12, 62, 110
6, 36192, Note_on_c, 12, 66, 110
6, 37008, Note_on_c, 12, 54, 0
6, 37008, Note_on_c, 12, 62, 0
6, 37008, Note_on_c, 12, 66, 0
6, 37248, Note_on_c, 12, 54, 110
6, 37342, Note_on_c, 12, 54, 0
6, 37344, Note_on_c, 12, 56, 110
6, 37504, Note_on_c, 12, 56, 0
6, 37536, Note_on_c, 12, 52, 110
6, 37630, Note_on_c, 12, 52, 0
6, 37632, Note_on_c, 12, 52, 110
6, 37726, Note_on_c, 12, 52, 0
6, 37728, Note_on_c, 12, 54, 110
6, 37918, Note_on_c, 12, 54, 0
6, 37920, Note_on_c, 12, 54, 110
6, 38014, Note_on_c, 12, 54, 0
6, 38016, Note_on_c, 12, 56, 110
6, 38110, Note_on_c, 12, 56, 0
6, 38112, Note_on_c, 12, 52, 110
6, 38206, Note_on_c, 12, 52, 0
6, 38208, Note_on_c, 12, 49, 110
6, 38544, Note_on_c, 12, 49, 0
6, 39552, Note_on_c, 12, 54, 110
6, 39646, Note_on_c, 12, 54, 0
6, 39648, Note_on_c, 12, 54, 110
6, 39742, Note_on_c, 12, 54, 0
6, 39744, Note_on_c, 12, 54, 110
6, 39838, Note_on_c, 12, 54, 0
6, 39840, Note_on_c, 12, 54, 110
6, 39934, Note_on_c, 12, 54, 0
6, 39936, Note_on_c, 12, 54, 110
6, 40030, Note_on_c, 12, 54, 0
6, 40032, Note_on_c, 12, 56, 110
6, 40222, Note_on_c, 12, 56, 0
6, 40224, Note_on_c, 12, 54, 110
6, 40560, Note_on_c, 12, 54, 0
6, 40800, Note_on_c, 12, 47, 110
6, 40894, Note_on_c, 12, 47, 0
6, 40896, Note_on_c, 12, 59, 110
6, 41152, Note_on_c, 12, 59, 0
6, 41184, Note_on_c, 12, 57, 110
6, 41278, Note_on_c, 12, 57, 0
6, 41280, Note_on_c, 12, 56, 110
6, 41374, Note_on_c, 12, 56, 0
6, 41376, Note_on_c, 12, 47, 110
6, 41536, Note_on_c, 12, 47, 0
6, 41568, Note_on_c, 12, 47, 110
6, 42000, Note_on_c, 12, 47, 0
6, 42528, Note_on_c, 12, 50, 110
6, 42622, Note_on_c, 12, 50, 0
6, 42624, Note_on_c, 12, 50, 110
6, 42718, Note_on_c, 12, 50, 0
6, 42720, Note_on_c, 12, 47, 110
6, 42814, Note_on_c, 12, 47, 0
6, 42816, Note_on_c, 12, 50, 110
6, 42910, Note_on_c, 12, 50, 0
6, 42912, Note_on_c, 12, 50, 110
6, 43006, Note_on_c, 12, 50, 0
6, 43008, Note_on_c, 12, 50, 110
6, 43102, Note_on_c, 12, 50, 0
6, 43104, Note_on_c, 12, 52, 110
6, 43294, Note_on_c, 12, 52, 0
6, 43296, Note_on_c, 12, 50, 110
6, 43632, Note_on_c, 12, 50, 0
6, 44160, Note_on_c, 12, 46, 110
6, 44254, Note_on_c, 12, 46, 0
6, 44256, Note_on_c, 12, 41, 110
6, 44350, Note_on_c, 12, 41, 0
6, 44352, Note_on_c, 12, 46, 110
6, 44446, Note_on_c, 12, 46, 0
6, 44448, Note_on_c, 12, 48, 110
6, 44608, Note_on_c, 12, 48, 0
6, 44640, Note_on_c, 12, 44, 110
6, 45072, Note_on_c, 12, 44, 0
6, 45600, Note_on_c, 12, 54, 110
6, 45694, Note_on_c, 12, 54, 0
6, 45696, Note_on_c, 12, 54, 110
6, 45790, Note_on_c, 12, 54, 0
6, 45792, Note_on_c, 12, 54, 110
6, 45886, Note_on_c, 12, 54, 0
6, 45888, Note_on_c, 12, 54, 110
6, 45982, Note_on_c, 12, 54, 0
6, 45984, Note_on_c, 12, 54, 110
6, 46078, Note_on_c, 12, 54, 0
6, 46080, Note_on_c, 12, 54, 110
6, 46174, Note_on_c, 12, 54, 0
6, 46176, Note_on_c, 12, 56, 110
6, 46366, Note_on_c, 12, 56, 0
6, 46368, Note_on_c, 12, 54, 110
6, 46704, Note_on_c, 12, 54, 0
6, 46944, Note_on_c, 12, 47, 110
6, 47038, Note_on_c, 12, 47, 0
6, 47040, Note_on_c, 12, 59, 110
6, 47296, Note_on_c, 12, 59, 0
6, 47328, Note_on_c, 12, 57, 110
6, 47422, Note_on_c, 12, 57, 0
6, 47424, Note_on_c, 12, 56, 110
6, 47518, Note_on_c, 12, 56, 0
6, 47520, Note_on_c, 12, 47, 110
6, 47680, Note_on_c, 12, 47, 0
6, 47712, Note_on_c, 12, 47, 110
6, 48144, Note_on_c, 12, 47, 0
6, 48768, Note_on_c, 12, 50, 110
6, 48862, Note_on_c, 12, 50, 0
6, 48864, Note_on_c, 12, 47, 110
6, 48958, Note_on_c, 12, 47, 0
6, 48960, Note_on_c, 12, 50, 110
6, 49054, Note_on_c, 12, 50, 0
6, 49056, Note_on_c, 12, 50, 110
6, 49216, Note_on_c, 12, 50, 0
6, 49248, Note_on_c, 12, 52, 110
6, 49438, Note_on_c, 12, 52, 0
6, 49440, Note_on_c, 12, 50, 110
6, 49776, Note_on_c, 12, 50, 0
6, 50304, Note_on_c, 12, 46, 110
6, 50398, Note_on_c, 12, 46, 0
6, 50400, Note_on_c, 12, 46, 110
6, 50494, Note_on_c, 12, 46, 0
6, 50496, Note_on_c, 12, 46, 110
6, 50590, Note_on_c, 12, 46, 0
6, 50592, Note_on_c, 12, 46, 110
6, 50686, Note_on_c, 12, 46, 0
6, 50688, Note_on_c, 12, 48, 110
6, 50782, Note_on_c, 12, 48, 0
6, 50784, Note_on_c, 12, 45, 110
6, 51216, Note_on_c, 12, 45, 0
6, 52128, Note_on_c, 12, 57, 110
6, 52222, Note_on_c, 12, 57, 0
6, 52224, Note_on_c, 12, 59, 110
6, 52318, Note_on_c, 12, 59, 0
6, 52320, Note_on_c, 12, 57, 110
6, 52414, Note_on_c, 12, 57, 0
6, 52416, Note_on_c, 12, 68, 110
6, 52576, Note_on_c, 12, 68, 0
6, 52608, Note_on_c, 12, 61, 110
6, 52702, Note_on_c, 12, 61, 0
6, 52704, Note_on_c, 12, 64, 110
6, 52864, Note_on_c, 12, 64, 0
6, 52896, Note_on_c, 12, 66, 110
6, 53056, Note_on_c, 12, 66, 0
6, 53088, Note_on_c, 12, 61, 110
6, 53854, Note_on_c, 12, 61, 0
6, 53856, Pitch_bend_c, 12, 4680
6, 53856, Note_on_c, 12, 59, 110
6, 53856, Note_on_c, 12, 63, 110
6, 53857, Pitch_bend_c, 12, 4712
6, 53859, Pitch_bend_c, 12, 4744
6, 53861, Pitch_bend_c, 12, 4776
6, 53863, Pitch_bend_c, 12, 4808
6, 53864, Pitch_bend_c, 12, 4840
6, 53866, Pitch_bend_c, 12, 4872
6, 53868, Pitch_bend_c, 12, 4904
6, 53870, Pitch_bend_c, 12, 4936
6, 53871, Pitch_bend_c, 12, 4968
6, 53873, Pitch_bend_c, 12, 5000
6, 53875, Pitch_bend_c, 12, 5032
6, 53877, Pitch_bend_c, 12, 5064
6, 53878, Pitch_bend_c, 12, 5096
6, 53880, Pitch_bend_c, 12, 5128
6, 53882, Pitch_bend_c, 12, 5160
6, 53884, Pitch_bend_c, 12, 5192
6, 53885, Pitch_bend_c, 12, 5224
6, 53887, Pitch_bend_c, 12, 5256
6, 53889, Pitch_bend_c, 12, 5288
6, 53891, Pitch_bend_c, 12, 5320
6, 53892, Pitch_bend_c, 12, 5352
6, 53894, Pitch_bend_c, 12, 5384
6, 53896, Pitch_bend_c, 12, 5416
6, 53898, Pitch_bend_c, 12, 5448
6, 53900, Pitch_bend_c, 12, 5480
6, 53901, Pitch_bend_c, 12, 5512
6, 53903, Pitch_bend_c, 12, 5544
6, 53905, Pitch_bend_c, 12, 5576
6, 53907, Pitch_bend_c, 12, 5608
6, 53908, Pitch_bend_c, 12, 5640
6, 53910, Pitch_bend_c, 12, 5672
6, 53912, Pitch_bend_c, 12, 5704
6, 53914, Pitch_bend_c, 12, 5736
6, 53915, Pitch_bend_c, 12, 5768
6, 53917, Pitch_bend_c, 12, 5800
6, 53919, Pitch_bend_c, 12, 5832
6, 53921, Pitch_bend_c, 12, 5864
6, 53922, Pitch_bend_c, 12, 5896
6, 53924, Pitch_bend_c, 12, 5928
6, 53926, Pitch_bend_c, 12, 5960
6, 53928, Pitch_bend_c, 12, 5992
6, 53929, Pitch_bend_c, 12, 6024
6, 53931, Pitch_bend_c, 12, 6056
6, 53933, Pitch_bend_c, 12, 6088
6, 53935, Pitch_bend_c, 12, 6120
6, 53937, Pitch_bend_c, 12, 6152
6, 53938, Pitch_bend_c, 12, 6184
6, 53940, Pitch_bend_c, 12, 6216
6, 53942, Pitch_bend_c, 12, 6248
6, 53944, Pitch_bend_c, 12, 6280
6, 53945, Pitch_bend_c, 12, 6312
6, 53947, Pitch_bend_c, 12, 6344
6, 53949, Pitch_bend_c, 12, 6376
6, 53951, Pitch_bend_c, 12, 6408
6, 53952, Pitch_bend_c, 12, 6440
6, 53954, Pitch_bend_c, 12, 6472
6, 53956, Pitch_bend_c, 12, 6504
6, 53958, Pitch_bend_c, 12, 6536
6, 53959, Pitch_bend_c, 12, 6568
6, 53961, Pitch_bend_c, 12, 6600
6, 53963, Pitch_bend_c, 12, 6632
6, 53965, Pitch_bend_c, 12, 6664
6, 53966, Pitch_bend_c, 12, 6696
6, 53968, Pitch_bend_c, 12, 6728
6, 53970, Pitch_bend_c, 12, 6760
6, 53972, Pitch_bend_c, 12, 6792
6, 53974, Pitch_bend_c, 12, 6824
6, 53975, Pitch_bend_c, 12, 6856
6, 53977, Pitch_bend_c, 12, 6888
6, 53979, Pitch_bend_c, 12, 6920
6, 53981, Pitch_bend_c, 12, 6952
6, 53982, Pitch_bend_c, 12, 6984
6, 53984, Pitch_bend_c, 12, 7016
6, 53986, Pitch_bend_c, 12, 7048
6, 53988, Pitch_bend_c, 12, 7080
6, 53989, Pitch_bend_c, 12, 7112
6, 53991, Pitch_bend_c, 12, 7144
6, 53993, Pitch_bend_c, 12, 7176
6, 53995, Pitch_bend_c, 12, 7208
6, 53996, Pitch_bend_c, 12, 7240
6, 53998, Pitch_bend_c, 12, 7272
6, 54000, Pitch_bend_c, 12, 7304
6, 54002, Pitch_bend_c, 12, 7336
6, 54003, Pitch_bend_c, 12, 7368
6, 54005, Pitch_bend_c, 12, 7400
6, 54007, Pitch_bend_c, 12, 7432
6, 54009, Pitch_bend_c, 12, 7464
6, 54011, Pitch_bend_c, 12, 7496
6, 54012, Pitch_bend_c, 12, 7528
6, 54014, Pitch_bend_c, 12, 7560
6, 54016, Pitch_bend_c, 12, 7592
6, 54018, Pitch_bend_c, 12, 7624
6, 54019, Pitch_bend_c, 12, 7656
6, 54021, Pitch_bend_c, 12, 7688
6, 54023, Pitch_bend_c, 12, 7720
6, 54025, Pitch_bend_c, 12, 7752
6, 54026, Pitch_bend_c, 12, 7784
6, 54028, Pitch_bend_c, 12, 7816
6, 54030, Pitch_bend_c, 12, 7848
6, 54032, Pitch_bend_c, 12, 7880
6, 54033, Pitch_bend_c, 12, 7912
6, 54035, Pitch_bend_c, 12, 7944
6, 54037, Pitch_bend_c, 12, 7976
6, 54039, Pitch_bend_c, 12, 8008
6, 54040, Pitch_bend_c, 12, 8040
6, 54042, Pitch_bend_c, 12, 8072
6, 54044, Pitch_bend_c, 12, 8104
6, 54046, Pitch_bend_c, 12, 8136
6, 54048, Pitch_bend_c, 12, 8192
6, 54430, Note_on_c, 12, 59, 0
6, 54430, Note_on_c, 12, 63, 0
6, 54432, Note_on_c, 12, 61, 110
6, 54432, Note_on_c, 12, 64, 110
6, 54592, Note_on_c, 12, 61, 0
6, 54592, Note_on_c, 12, 64, 0
6, 54624, Note_on_c, 12, 57, 110
6, 54624, Note_on_c, 12, 61, 110
6, 55248, Note_on_c, 12, 57, 0
6, 55248, Note_on_c, 12, 61, 0
6, 55392, Note_on_c, 12, 56, 110
6, 55392, Note_on_c, 12, 68, 110
6, 55582, Note_on_c, 12, 56, 0
6, 55582, Note_on_c, 12, 68, 0
6, 55584, Note_on_c, 12, 49, 110
6, 55584, Note_on_c, 12, 68, 110
6, 55744, Note_on_c, 12, 49, 0
6, 55744, Note_on_c, 12, 68, 0
6, 55776, Note_on_c, 12, 52, 110
6, 55776, Note_on_c, 12, 68, 110
6, 55936, Note_on_c, 12, 52, 0
6, 55936, Note_on_c, 12, 68, 0
6, 55968, Note_on_c, 12, 54, 110
6, 55968, Note_on_c, 12, 68, 110
6, 56128, Note_on_c, 12, 54, 0
6, 56128, Note_on_c, 12, 68, 0
6, 56160, Note_on_c, 12, 56, 110
6, 56160, Note_on_c, 12, 68, 110
6, 56350, Note_on_c, 12, 56, 0
6, 56350, Note_on_c, 12, 68, 0
6, 56352, Note_on_c, 12, 54, 110
6, 56352, Note_on_c, 12, 68, 110
6, 56512, Note_on_c, 12, 54, 0
6, 56512, Note_on_c, 12, 68, 0
6, 56544, Note_on_c, 12, 52, 110
6, 56544, Note_on_c, 12, 68, 110
6, 56704, Note_on_c, 12, 52, 0
6, 56704, Note_on_c, 12, 68, 0
6, 56736, Note_on_c, 12, 49, 110
6, 56736, Note_on_c, 12, 68, 110
6, 56830, Note_on_c, 12, 49, 0
6, 56830, Note_on_c, 12, 68, 0
6, 56832, Note_on_c, 12, 52, 110
6, 56832, Note_on_c, 12, 68, 110
6, 56926, Note_on_c, 12, 52, 0
6, 56926, Note_on_c, 12, 68, 0
6, 56928, Note_on_c, 12, 54, 110
6, 56928, Note_on_c, 12, 68, 110
6, 57118, Note_on_c, 12, 54, 0
6, 57118, Note_on_c, 12, 68, 0
6, 57120, Note_on_c, 12, 52, 110
6, 57120, Note_on_c, 12, 64, 110
6, 57280, Note_on_c, 12, 52, 0
6, 57280, Note_on_c, 12, 64, 0
6, 57312, Note_on_c, 12, 49, 110
6, 57312, Note_on_c, 12, 64, 110
6, 57472, Note_on_c, 12, 49, 0
6, 57472, Note_on_c, 12, 64, 0
6, 57504, Note_on_c, 12, 52, 110
6, 57504, Note_on_c, 12, 64, 110
6, 57664, Note_on_c, 12, 52, 0
6, 57664, Note_on_c, 12, 64, 0
6, 57696, Note_on_c, 12, 54, 110
6, 57696, Note_on_c, 12, 66, 110
6, 58512, Note_on_c, 12, 54, 0
6, 58512, Note_on_c, 12, 66, 0
6, 58560, Note_on_c, 12, 68, 110
6, 58720, Note_on_c, 12, 68, 0
6, 58752, Note_on_c, 12, 61, 110
6, 58846, Note_on_c, 12, 61, 0
6, 58848, Note_on_c, 12, 64, 110
6, 59008, Note_on_c, 12, 64, 0
6, 59040, Note_on_c, 12, 66, 110
6, 59200, Note_on_c, 12, 66, 0
6, 59232, Note_on_c, 12, 61, 110
6, 59856, Note_on_c, 12, 61, 0
6, 59904, Note_on_c, 12, 54, 110
6, 59998, Note_on_c, 12, 54, 0
6, 60000, Pitch_bend_c, 12, 4680
6, 60000, Note_on_c, 12, 59, 110
6, 60000, Note_on_c, 12, 63, 110
6, 60001, Pitch_bend_c, 12, 4712
6, 60003, Pitch_bend_c, 12, 4744
6, 60005, Pitch_bend_c, 12, 4776
6, 60007, Pitch_bend_c, 12, 4808
6, 60008, Pitch_bend_c, 12, 4840
6, 60010, Pitch_bend_c, 12, 4872
6, 60012, Pitch_bend_c, 12, 4904
6, 60014, Pitch_bend_c, 12, 4936
6, 60015, Pitch_bend_c, 12, 4968
6, 60017, Pitch_bend_c, 12, 5000
6, 60019, Pitch_bend_c, 12, 5032
6, 60021, Pitch_bend_c, 12, 5064
6, 60022, Pitch_bend_c, 12, 5096
6, 60024, Pitch_bend_c, 12, 5128
6, 60026, Pitch_bend_c, 12, 5160
6, 60028, Pitch_bend_c, 12, 5192
6, 60029, Pitch_bend_c, 12, 5224
6, 60031, Pitch_bend_c, 12, 5256
6, 60033, Pitch_bend_c, 12, 5288
6, 60035, Pitch_bend_c, 12, 5320
6, 60036, Pitch_bend_c, 12, 5352
6, 60038, Pitch_bend_c, 12, 5384
6, 60040, Pitch_bend_c, 12, 5416
6, 60042, Pitch_bend_c, 12, 5448
6, 60044, Pitch_bend_c, 12, 5480
6, 60045, Pitch_bend_c, 12, 5512
6, 60047, Pitch_bend_c, 12, 5544
6, 60049, Pitch_bend_c, 12, 5576
6, 60051, Pitch_bend_c, 12, 5608
6, 60052, Pitch_bend_c, 12, 5640
6, 60054, Pitch_bend_c, 12, 5672
6, 60056, Pitch_bend_c, 12, 5704
6, 60058, Pitch_bend_c, 12, 5736
6, 60059, Pitch_bend_c, 12, 5768
6, 60061, Pitch_bend_c, 12, 5800
6, 60063, Pitch_bend_c, 12, 5832
6, 60065, Pitch_bend_c, 12, 5864
6, 60066, Pitch_bend_c, 12, 5896
6, 60068, Pitch_bend_c, 12, 5928
6, 60070, Pitch_bend_c, 12, 5960
6, 60072, Pitch_bend_c, 12, 5992
6, 60073, Pitch_bend_c, 12, 6024
6, 60075, Pitch_bend_c, 12, 6056
6, 60077, Pitch_bend_c, 12, 6088
6, 60079, Pitch_bend_c, 12, 6120
6, 60081, Pitch_bend_c, 12, 6152
6, 60082, Pitch_bend_c, 12, 6184
6, 60084, Pitch_bend_c, 12, 6216
6, 60086, Pitch_bend_c, 12, 6248
6, 60088, Pitch_bend_c, 12, 6280
6, 60089, Pitch_bend_c, 12, 6312
6, 60091, Pitch_bend_c, 12, 6344
6, 60093, Pitch_bend_c, 12, 6376
6, 60095, Pitch_bend_c, 12, 6408
6, 60096, Pitch_bend_c, 12, 6440
6, 60098, Pitch_bend_c, 12, 6472
6, 60100, Pitch_bend_c, 12, 6504
6, 60102, Pitch_bend_c, 12, 6536
6, 60103, Pitch_bend_c, 12, 6568
6, 60105, Pitch_bend_c, 12, 6600
6, 60107, Pitch_bend_c, 12, 6632
6, 60109, Pitch_bend_c, 12, 6664
6, 60110, Pitch_bend_c, 12, 6696
6, 60112, Pitch_bend_c, 12, 6728
6, 60114, Pitch_bend_c, 12, 6760
6, 60116, Pitch_bend_c, 12, 6792
6, 60118, Pitch_bend_c, 12, 6824
6, 60119, Pitch_bend_c, 12, 6856
6, 60121, Pitch_bend_c, 12, 6888
6, 60123, Pitch_bend_c, 12, 6920
6, 60125, Pitch_bend_c, 12, 6952
6, 60126, Pitch_bend_c, 12, 6984
6, 60128, Pitch_bend_c, 12, 7016
6, 60130, Pitch_bend_c, 12, 7048
6, 60132, Pitch_bend_c, 12, 7080
6, 60133, Pitch_bend_c, 12, 7112
6, 60135, Pitch_bend_c, 12, 7144
6, 60137, Pitch_bend_c, 12, 7176
6, 60139, Pitch_bend_c, 12, 7208
6, 60140, Pitch_bend_c, 12, 7240
6, 60142, Pitch_bend_c, 12, 7272
6, 60144, Pitch_bend_c, 12, 7304
6, 60146, Pitch_bend_c, 12, 7336
6, 60147, Pitch_bend_c, 12, 7368
6, 60149, Pitch_bend_c, 12, 7400
6, 60151, Pitch_bend_c, 12, 7432
6, 60153, Pitch_bend_c, 12, 7464
6, 60155, Pitch_bend_c, 12, 7496
6, 60156, Pitch_bend_c, 12, 7528
6, 60158, Pitch_bend_c, 12, 7560
6, 60160, Pitch_bend_c, 12, 7592
6, 60162, Pitch_bend_c, 12, 7624
6, 60163, Pitch_bend_c, 12, 7656
6, 60165, Pitch_bend_c, 12, 7688
6, 60167, Pitch_bend_c, 12, 7720
6, 60169, Pitch_bend_c, 12, 7752
6, 60170, Pitch_bend_c, 12, 7784
6, 60172, Pitch_bend_c, 12, 7816
6, 60174, Pitch_bend_c, 12, 7848
6, 60176, Pitch_bend_c, 12, 7880
6, 60177, Pitch_bend_c, 12, 7912
6, 60179, Pitch_bend_c, 12, 7944
6, 60181, Pitch_bend_c, 12, 7976
6, 60183, Pitch_bend_c, 12, 8008
6, 60184, Pitch_bend_c, 12, 8040
6, 60186, Pitch_bend_c, 12, 8072
6, 60188, Pitch_bend_c, 12, 8104
6, 60190, Pitch_bend_c, 12, 8136
6, 60192, Pitch_bend_c, 12, 8192
6, 60256, Note_on_c, 12, 59, 0
6, 60256, Note_on_c, 12, 63, 0
6, 60288, Note_on_c, 12, 59, 110
6, 60288, Note_on_c, 12, 63, 110
6, 60382, Note_on_c, 12, 59, 0
6, 60382, Note_on_c, 12, 63, 0
6, 60384, Note_on_c, 12, 59, 110
6, 60384, Note_on_c, 12, 63, 110
6, 60544, Note_on_c, 12, 59, 0
6, 60544, Note_on_c, 12, 63, 0
6, 60576, Note_on_c, 12, 61, 110
6, 60576, Note_on_c, 12, 64, 110
6, 60736, Note_on_c, 12, 61, 0
6, 60736, Note_on_c, 12, 64, 0
6, 60768, Note_on_c, 12, 57, 110
6, 60768, Note_on_c, 12, 61, 110
6, 61392, Note_on_c, 12, 57, 0
6, 61392, Note_on_c, 12, 61, 0
6, 61536, Note_on_c, 12, 56, 110
6, 61536, Note_on_c, 12, 68, 110
6, 61726, Note_on_c, 12, 56, 0
6, 61726, Note_on_c, 12, 68, 0
6, 61728, Note_on_c, 12, 49, 110
6, 61728, Note_on_c, 12, 68, 110
6, 61822, Note_on_c, 12, 49, 0
6, 61822, Note_on_c, 12, 68, 0
6, 61824, Note_on_c, 12, 49, 110
6, 61824, Note_on_c, 12, 68, 110
6, 61918, Note_on_c, 12, 49, 0
6, 61918, Note_on_c, 12, 68, 0
6, 61920, Note_on_c, 12, 52, 110
6, 61920, Note_on_c, 12, 68, 110
6, 62080, Note_on_c, 12, 52, 0
6, 62080, Note_on_c, 12, 68, 0
6, 62112, Note_on_c, 12, 54, 110
6, 62112, Note_on_c, 12, 68, 110
6, 62206, Note_on_c, 12, 54, 0
6, 62206, Note_on_c, 12, 68, 0
6, 62208, Note_on_c, 12, 54, 110
6, 62208, Note_on_c, 12, 68, 110
6, 62302, Note_on_c, 12, 54, 0
6, 62302, Note_on_c, 12, 68, 0
6, 62304, Note_on_c, 12, 56, 110
6, 62304, Note_on_c, 12, 68, 110
6, 62494, Note_on_c, 12, 56, 0
6, 62494, Note_on_c, 12, 68, 0
6, 62496, Note_on_c, 12, 54, 110
6, 62496, Note_on_c, 12, 68, 110
6, 62656, Note_on_c, 12, 54, 0
6, 62656, Note_on_c, 12, 68, 0
6, 62688, Note_on_c, 12, 52, 110
6, 62688, Note_on_c, 12, 68, 110
6, 62848, Note_on_c, 12, 52, 0
6, 62848, Note_on_c, 12, 68, 0
6, 62880, Note_on_c, 12, 49, 110
6, 62880, Note_on_c, 12, 68, 110
6, 62974, Note_on_c, 12, 49, 0
6, 62974, Note_on_c, 12, 68, 0
6, 62976, Note_on_c, 12, 52, 110
6, 62976, Note_on_c, 12, 68, 110
6, 63070, Note_on_c, 12, 52, 0
6, 63070, Note_on_c, 12, 68, 0
6, 63072, Note_on_c, 12, 54, 110
6, 63072, Note_on_c, 12, 68, 110
6, 63262, Note_on_c, 12, 54, 0
6, 63262, Note_on_c, 12, 68, 0
6, 63264, Note_on_c, 12, 52, 110
6, 63264, Note_on_c, 12, 64, 110
6, 63424, Note_on_c, 12, 52, 0
6, 63424, Note_on_c, 12, 64, 0
6, 63456, Note_on_c, 12, 49, 110
6, 63456, Note_on_c, 12, 64, 110
6, 63616, Note_on_c, 12, 49, 0
6, 63616, Note_on_c, 12, 64, 0
6, 63648, Note_on_c, 12, 52, 110
6, 63648, Note_on_c, 12, 64, 110
6, 63808, Note_on_c, 12, 52, 0
6, 63808, Note_on_c, 12, 64, 0
6, 63840, Note_on_c, 12, 54, 110
6, 63840, Note_on_c, 12, 62, 110
6, 63840, Note_on_c, 12, 66, 110
6, 64656, Note_on_c, 12, 54, 0
6, 64656, Note_on_c, 12, 62, 0
6, 64656, Note_on_c, 12, 66, 0
6, 64896, Note_on_c, 12, 54, 110
6, 64990, Note_on_c, 12, 54, 0
6, 64992, Note_on_c, 12, 56, 110
6, 65152, Note_on_c, 12, 56, 0
6, 65184, Note_on_c, 12, 52, 110
6, 65278, Note_on_c, 12, 52, 0
6, 65280, Note_on_c, 12, 52, 110
6, 65374, Note_on_c, 12, 52, 0
6, 65376, Note_on_c, 12, 54, 110
6, 65566, Note_on_c, 12, 54, 0
6, 65568, Note_on_c, 12, 54, 110
6, 65662, Note_on_c, 12, 54, 0
6, 65664, Note_on_c, 12, 56, 110
6, 65758, Note_on_c, 12, 56, 0
6, 65760, Note_on_c, 12, 52, 110
6, 65854, Note_on_c, 12, 52, 0
6, 65856, Note_on_c, 12, 49, 110
6, 66192, Note_on_c, 12, 49, 0
6, 79776, Note_on_c, 12, 57, 110
6, 79870, Note_on_c, 12, 57, 0
6, 79872, Note_on_c, 12, 59, 110
6, 79966, Note_on_c, 12, 59, 0
6, 79968, Note_on_c, 12, 57, 110
6, 80062, Note_on_c, 12, 57, 0
6, 80064, Note_on_c, 12, 68, 110
6, 80224, Note_on_c, 12, 68, 0
6, 80256, Note_on_c, 12, 61, 110
6, 80350, Note_on_c, 12, 61, 0
6, 80352, Note_on_c, 12, 64, 110
6, 80512, Note_on_c, 12, 64, 0
6, 80544, Note_on_c, 12, 66, 110
6, 80704, Note_on_c, 12, 66, 0
6, 80736, Note_on_c, 12, 61, 110
6, 81502, Note_on_c, 12, 61, 0
6, 81504, Pitch_bend_c, 12, 4680
6, 81504, Note_on_c, 12, 59, 110
6, 81504, Note_on_c, 12, 63, 110
6, 81505, Pitch_bend_c, 12, 4712
6, 81507, Pitch_bend_c, 12, 4744
6, 81509, Pitch_bend_c, 12, 4776
6, 81511, Pitch_bend_c, 12, 4808
6, 81512, Pitch_bend_c, 12, 4840
6, 81514, Pitch_bend_c, 12, 4872
6, 81516, Pitch_bend_c, 12, 4904
6, 81518, Pitch_bend_c, 12, 4936
6, 81519, Pitch_bend_c, 12, 4968
6, 81521, Pitch_bend_c, 12, 5000
6, 81523, Pitch_bend_c, 12, 5032
6, 81525, Pitch_bend_c, 12, 5064
6, 81526, Pitch_bend_c, 12, 5096
6, 81528, Pitch_bend_c, 12, 5128
6, 81530, Pitch_bend_c, 12, 5160
6, 81532, Pitch_bend_c, 12, 5192
6, 81533, Pitch_bend_c, 12, 5224
6, 81535, Pitch_bend_c, 12, 5256
6, 81537, Pitch_bend_c, 12, 5288
6, 81539, Pitch_bend_c, 12, 5320
6, 81540, Pitch_bend_c, 12, 5352
6, 81542, Pitch_bend_c, 12, 5384
6, 81544, Pitch_bend_c, 12, 5416
6, 81546, Pitch_bend_c, 12, 5448
6, 81548, Pitch_bend_c, 12, 5480
6, 81549, Pitch_bend_c, 12, 5512
6, 81551, Pitch_bend_c, 12, 5544
6, 81553, Pitch_bend_c, 12, 5576
6, 81555, Pitch_bend_c, 12, 5608
6, 81556, Pitch_bend_c, 12, 5640
6, 81558, Pitch_bend_c, 12, 5672
6, 81560, Pitch_bend_c, 12, 5704
6, 81562, Pitch_bend_c, 12, 5736
6, 81563, Pitch_bend_c, 12, 5768
6, 81565, Pitch_bend_c, 12, 5800
6, 81567, Pitch_bend_c, 12, 5832
6, 81569, Pitch_bend_c, 12, 5864
6, 81570, Pitch_bend_c, 12, 5896
6, 81572, Pitch_bend_c, 12, 5928
6, 81574, Pitch_bend_c, 12, 5960
6, 81576, Pitch_bend_c, 12, 5992
6, 81577, Pitch_bend_c, 12, 6024
6, 81579, Pitch_bend_c, 12, 6056
6, 81581, Pitch_bend_c, 12, 6088
6, 81583, Pitch_bend_c, 12, 6120
6, 81585, Pitch_bend_c, 12, 6152
6, 81586, Pitch_bend_c, 12, 6184
6, 81588, Pitch_bend_c, 12, 6216
6, 81590, Pitch_bend_c, 12, 6248
6, 81592, Pitch_bend_c, 12, 6280
6, 81593, Pitch_bend_c, 12, 6312
6, 81595, Pitch_bend_c, 12, 6344
6, 81597, Pitch_bend_c, 12, 6376
6, 81599, Pitch_bend_c, 12, 6408
6, 81600, Pitch_bend_c, 12, 6440
6, 81602, Pitch_bend_c, 12, 6472
6, 81604, Pitch_bend_c, 12, 6504
6, 81606, Pitch_bend_c, 12, 6536
6, 81607, Pitch_bend_c, 12, 6568
6, 81609, Pitch_bend_c, 12, 6600
6, 81611, Pitch_bend_c, 12, 6632
6, 81613, Pitch_bend_c, 12, 6664
6, 81614, Pitch_bend_c, 12, 6696
6, 81616, Pitch_bend_c, 12, 6728
6, 81618, Pitch_bend_c, 12, 6760
6, 81620, Pitch_bend_c, 12, 6792
6, 81622, Pitch_bend_c, 12, 6824
6, 81623, Pitch_bend_c, 12, 6856
6, 81625, Pitch_bend_c, 12, 6888
6, 81627, Pitch_bend_c, 12, 6920
6, 81629, Pitch_bend_c, 12, 6952
6, 81630, Pitch_bend_c, 12, 6984
6, 81632, Pitch_bend_c, 12, 7016
6, 81634, Pitch_bend_c, 12, 7048
6, 81636, Pitch_bend_c, 12, 7080
6, 81637, Pitch_bend_c, 12, 7112
6, 81639, Pitch_bend_c, 12, 7144
6, 81641, Pitch_bend_c, 12, 7176
6, 81643, Pitch_bend_c, 12, 7208
6, 81644, Pitch_bend_c, 12, 7240
6, 81646, Pitch_bend_c, 12, 7272
6, 81648, Pitch_bend_c, 12, 7304
6, 81650, Pitch_bend_c, 12, 7336
6, 81651, Pitch_bend_c, 12, 7368
6, 81653, Pitch_bend_c, 12, 7400
6, 81655, Pitch_bend_c, 12, 7432
6, 81657, Pitch_bend_c, 12, 7464
6, 81659, Pitch_bend_c, 12, 7496
6, 81660, Pitch_bend_c, 12, 7528
6, 81662, Pitch_bend_c, 12, 7560
6, 81664, Pitch_bend_c, 12, 7592
6, 81666, Pitch_bend_c, 12, 7624
6, 81667, Pitch_bend_c, 12, 7656
6, 81669, Pitch_bend_c, 12, 7688
6, 81671, Pitch_bend_c, 12, 7720
6, 81673, Pitch_bend_c, 12, 7752
6, 81674, Pitch_bend_c, 12, 7784
6, 81676, Pitch_bend_c, 12, 7816
6, 81678, Pitch_bend_c, 12, 7848
6, 81680, Pitch_bend_c, 12, 7880
6, 81681, Pitch_bend_c, 12, 7912
6, 81683, Pitch_bend_c, 12, 7944
6, 81685, Pitch_bend_c, 12, 7976
6, 81687, Pitch_bend_c, 12, 8008
6, 81688, Pitch_bend_c, 12, 8040
6, 81690, Pitch_bend_c, 12, 8072
6, 81692, Pitch_bend_c, 12, 8104
6, 81694, Pitch_bend_c, 12, 8136
6, 81696, Pitch_bend_c, 12, 8192
6, 82078, Note_on_c, 12, 59, 0
6, 82078, Note_on_c, 12, 63, 0
6, 82080, Note_on_c, 12, 61, 110
6, 82080, Note_on_c, 12, 64, 110
6, 82240, Note_on_c, 12, 61, 0
6, 82240, Note_on_c, 12, 64, 0
6, 82272, Note_on_c, 12, 57, 110
6, 82272, Note_on_c, 12, 61, 110
6, 82896, Note_on_c, 12, 57, 0
6, 82896, Note_on_c, 12, 61, 0
6, 83040, Note_on_c, 12, 56, 110
6, 83040, Note_on_c, 12, 68, 110
6, 83230, Note_on_c, 12, 56, 0
6, 83230, Note_on_c, 12, 68, 0
6, 83232, Note_on_c, 12, 49, 110
6, 83232, Note_on_c, 12, 68, 110
6, 83392, Note_on_c, 12, 49, 0
6, 83392, Note_on_c, 12, 68, 0
6, 83424, Note_on_c, 12, 52, 110
6, 83424, Note_on_c, 12, 68, 110
6, 83584, Note_on_c, 12, 52, 0
6, 83584, Note_on_c, 12, 68, 0
6, 83616, Note_on_c, 12, 54, 110
6, 83616, Note_on_c, 12, 68, 110
6, 83776, Note_on_c, 12, 54, 0
6, 83776, Note_on_c, 12, 68, 0
6, 83808, Note_on_c, 12, 56, 110
6, 83808, Note_on_c, 12, 68, 110
6, 83998, Note_on_c, 12, 56, 0
6, 83998, Note_on_c, 12, 68, 0
6, 84000, Note_on_c, 12, 54, 110
6, 84000, Note_on_c, 12, 68, 110
6, 84160, Note_on_c, 12, 54, 0
6, 84160, Note_on_c, 12, 68, 0
6, 84192, Note_on_c, 12, 52, 110
6, 84192, Note_on_c, 12, 68, 110
6, 84352, Note_on_c, 12, 52, 0
6, 84352, Note_on_c, 12, 68, 0
6, 84384, Note_on_c, 12, 49, 110
6, 84384, Note_on_c, 12, 68, 110
6, 84478, Note_on_c, 12, 49, 0
6, 84478, Note_on_c, 12, 68, 0
6, 84480, Note_on_c, 12, 52, 110
6, 84480, Note_on_c, 12, 68, 110
6, 84574, Note_on_c, 12, 52, 0
6, 84574, Note_on_c, 12, 68, 0
6, 84576, Note_on_c, 12, 54, 110
6, 84576, Note_on_c, 12, 68, 110
6, 84766, Note_on_c, 12, 54, 0
6, 84766, Note_on_c, 12, 68, 0
6, 84768, Note_on_c, 12, 52, 110
6, 84768, Note_on_c, 12, 64, 110
6, 84928, Note_on_c, 12, 52, 0
6, 84928, Note_on_c, 12, 64, 0
6, 84960, Note_on_c, 12, 49, 110
6, 84960, Note_on_c, 12, 64, 110
6, 85120, Note_on_c, 12, 49, 0
6, 85120, Note_on_c, 12, 64, 0
6, 85152, Note_on_c, 12, 52, 110
6, 85152, Note_on_c, 12, 64, 110
6, 85312, Note_on_c, 12, 52, 0
6, 85312, Note_on_c, 12, 64, 0
6, 85344, Note_on_c, 12, 54, 110
6, 85344, Note_on_c, 12, 66, 110
6, 86160, Note_on_c, 12, 54, 0
6, 86160, Note_on_c, 12, 66, 0
6, 86208, Note_on_c, 12, 68, 110
6, 86368, Note_on_c, 12, 68, 0
6, 86400, Note_on_c, 12, 61, 110
6, 86494, Note_on_c, 12, 61, 0
6, 86496, Note_on_c, 12, 64, 110
6, 86656, Note_on_c, 12, 64, 0
6, 86688, Note_on_c, 12, 66, 110
6, 86848, Note_on_c, 12, 66, 0
6, 86880, Note_on_c, 12, 61, 110
6, 87504, Note_on_c, 12, 61, 0
6, 87552, Note_on_c, 12, 54, 110
6, 87646, Note_on_c, 12, 54, 0
6, 87648, Pitch_bend_c, 12, 4680
6, 87648, Note_on_c, 12, 59, 110
6, 87648, Note_on_c, 12, 63, 110
6, 87649, Pitch_bend_c, 12, 4712
6, 87651, Pitch_bend_c, 12, 4744
6, 87653, Pitch_bend_c, 12, 4776
6, 87655, Pitch_bend_c, 12, 4808
6, 87656, Pitch_bend_c, 12, 4840
6, 87658, Pitch_bend_c, 12, 4872
6, 87660, Pitch_bend_c, 12, 4904
6, 87662, Pitch_bend_c, 12, 4936
6, 87663, Pitch_bend_c, 12, 4968
6, 87665, Pitch_bend_c, 12, 5000
6, 87667, Pitch_bend_c, 12, 5032
6, 87669, Pitch_bend_c, 12, 5064
6, 87670, Pitch_bend_c, 12, 5096
6, 87672, Pitch_bend_c, 12, 5128
6, 87674, Pitch_bend_c, 12, 5160
6, 87676, Pitch_bend_c, 12, 5192
6, 87677, Pitch_bend_c, 12, 5224
6, 87679, Pitch_bend_c, 12, 5256
6, 87681, Pitch_bend_c, 12, 5288
6, 87683, Pitch_bend_c, 12, 5320
6, 87684, Pitch_bend_c, 12, 5352
6, 87686, Pitch_bend_c, 12, 5384
6, 87688, Pitch_bend_c, 12, 5416
6, 87690, Pitch_bend_c, 12, 5448
6, 87692, Pitch_bend_c, 12, 5480
6, 87693, Pitch_bend_c, 12, 5512
6, 87695, Pitch_bend_c, 12, 5544
6, 87697, Pitch_bend_c, 12, 5576
6, 87699, Pitch_bend_c, 12, 5608
6, 87700, Pitch_bend_c, 12, 5640
6, 87702, Pitch_bend_c, 12, 5672
6, 87704, Pitch_bend_c, 12, 5704
6, 87706, Pitch_bend_c, 12, 5736
6, 87707, Pitch_bend_c, 12, 5768
6, 87709, Pitch_bend_c, 12, 5800
6, 87711, Pitch_bend_c, 12, 5832
6, 87713, Pitch_bend_c, 12, 5864
6, 87714, Pitch_bend_c, 12, 5896
6, 87716, Pitch_bend_c, 12, 5928
6, 87718, Pitch_bend_c, 12, 5960
6, 87720, Pitch_bend_c, 12, 5992
6, 87721, Pitch_bend_c, 12, 6024
6, 87723, Pitch_bend_c, 12, 6056
6, 87725, Pitch_bend_c, 12, 6088
6, 87727, Pitch_bend_c, 12, 6120
6, 87729, Pitch_bend_c, 12, 6152
6, 87730, Pitch_bend_c, 12, 6184
6, 87732, Pitch_bend_c, 12, 6216
6, 87734, Pitch_bend_c, 12, 6248
6, 87736, Pitch_bend_c, 12, 6280
6, 87737, Pitch_bend_c, 12, 6312
6, 87739, Pitch_bend_c, 12, 6344
6, 87741, Pitch_bend_c, 12, 6376
6, 87743, Pitch_bend_c, 12, 6408
6, 87744, Pitch_bend_c, 12, 6440
6, 87746, Pitch_bend_c, 12, 6472
6, 87748, Pitch_bend_c, 12, 6504
6, 87750, Pitch_bend_c, 12, 6536
6, 87751, Pitch_bend_c, 12, 6568
6, 87753, Pitch_bend_c, 12, 6600
6, 87755, Pitch_bend_c, 12, 6632
6, 87757, Pitch_bend_c, 12, 6664
6, 87758, Pitch_bend_c, 12, 6696
6, 87760, Pitch_bend_c, 12, 6728
6, 87762, Pitch_bend_c, 12, 6760
6, 87764, Pitch_bend_c, 12, 6792
6, 87766, Pitch_bend_c, 12, 6824
6, 87767, Pitch_bend_c, 12, 6856
6, 87769, Pitch_bend_c, 12, 6888
6, 87771, Pitch_bend_c, 12, 6920
6, 87773, Pitch_bend_c, 12, 6952
6, 87774, Pitch_bend_c, 12, 6984
6, 87776, Pitch_bend_c, 12, 7016
6, 87778, Pitch_bend_c, 12, 7048
6, 87780, Pitch_bend_c, 12, 7080
6, 87781, Pitch_bend_c, 12, 7112
6, 87783, Pitch_bend_c, 12, 7144
6, 87785, Pitch_bend_c, 12, 7176
6, 87787, Pitch_bend_c, 12, 7208
6, 87788, Pitch_bend_c, 12, 7240
6, 87790, Pitch_bend_c, 12, 7272
6, 87792, Pitch_bend_c, 12, 7304
6, 87794, Pitch_bend_c, 12, 7336
6, 87795, Pitch_bend_c, 12, 7368
6, 87797, Pitch_bend_c, 12, 7400
6, 87799, Pitch_bend_c, 12, 7432
6, 87801, Pitch_bend_c, 12, 7464
6, 87803, Pitch_bend_c, 12, 7496
6, 87804, Pitch_bend_c, 12, 7528
6, 87806, Pitch_bend_c, 12, 7560
6, 87808, Pitch_bend_c, 12, 7592
6, 87810, Pitch_bend_c, 12, 7624
6, 87811, Pitch_bend_c, 12, 7656
6, 87813, Pitch_bend_c, 12, 7688
6, 87815, Pitch_bend_c, 12, 7720
6, 87817, Pitch_bend_c, 12, 7752
6, 87818, Pitch_bend_c, 12, 7784
6, 87820, Pitch_bend_c, 12, 7816
6, 87822, Pitch_bend_c, 12, 7848
6, 87824, Pitch_bend_c, 12, 7880
6, 87825, Pitch_bend_c, 12, 7912
6, 87827, Pitch_bend_c, 12, 7944
6, 87829, Pitch_bend_c, 12, 7976
6, 87831, Pitch_bend_c, 12, 8008
6, 87832, Pitch_bend_c, 12, 8040
6, 87834, Pitch_bend_c, 12, 8072
6, 87836, Pitch_bend_c, 12, 8104
6, 87838, Pitch_bend_c, 12, 8136
6, 87840, Pitch_bend_c, 12, 8192
6, 87904, Note_on_c, 12, 59, 0
6, 87904, Note_on_c, 12, 63, 0
6, 87936, Note_on_c, 12, 59, 110
6, 87936, Note_on_c, 12, 63, 110
6, 88030, Note_on_c, 12, 59, 0
6, 88030, Note_on_c, 12, 63, 0
6, 88032, Note_on_c, 12, 59, 110
6, 88032, Note_on_c, 12, 63, 110
6, 88192, Note_on_c, 12, 59, 0
6, 88192, Note_on_c, 12, 63, 0
6, 88224, Note_on_c, 12, 61, 110
6, 88224, Note_on_c, 12, 64, 110
6, 88384, Note_on_c, 12, 61, 0
6, 88384, Note_on_c, 12, 64, 0
6, 88416, Note_on_c, 12, 57, 110
6, 88416, Note_on_c, 12, 61, 110
6, 89040, Note_on_c, 12, 57, 0
6, 89040, Note_on_c, 12, 61, 0
6, 89184, Note_on_c, 12, 56, 110
6, 89184, Note_on_c, 12, 68, 110
6, 89374, Note_on_c, 12, 56, 0
6, 89374, Note_on_c, 12, 68, 0
6, 89376, Note_on_c, 12, 49, 110
6, 89376, Note_on_c, 12, 68, 110
6, 89470, Note_on_c, 12, 49, 0
6, 89470, Note_on_c, 12, 68, 0
6, 89472, Note_on_c, 12, 49, 110
6, 89472, Note_on_c, 12, 68, 110
6, 89566, Note_on_c, 12, 49, 0
6, 89566, Note_on_c, 12, 68, 0
6, 89568, Note_on_c, 12, 52, 110
6, 89568, Note_on_c, 12, 68, 110
6, 89728, Note_on_c, 12, 52, 0
6, 89728, Note_on_c, 12, 68, 0
6, 89760, Note_on_c, 12, 54, 110
6, 89760, Note_on_c, 12, 68, 110
6, 89854, Note_on_c, 12, 54, 0
6, 89854, Note_on_c, 12, 68, 0
6, 89856, Note_on_c, 12, 54, 110
6, 89856, Note_on_c, 12, 68, 110
6, 89950, Note_on_c, 12, 54, 0
6, 89950, Note_on_c, 12, 68, 0
6, 89952, Note_on_c, 12, 56, 110
6, 89952, Note_on_c, 12, 68, 110
6, 90142, Note_on_c, 12, 56, 0
6, 90142, Note_on_c, 12, 68, 0
6, 90144, Note_on_c, 12, 54, 110
6, 90144, Note_on_c, 12, 68, 110
6, 90304, Note_on_c, 12, 54, 0
6, 90304, Note_on_c, 12, 68, 0
6, 90336, Note_on_c, 12, 52, 110
6, 90336, Note_on_c, 12, 68, 110
6, 90496, Note_on_c, 12, 52, 0
6, 90496, Note_on_c, 12, 68, 0
6, 90528, Note_on_c, 12, 49, 110
6, 90528, Note_on_c, 12, 68, 110
6, 90622, Note_on_c, 12, 49, 0
6, 90622, Note_on_c, 12, 68, 0
6, 90624, Note_on_c, 12, 52, 110
6, 90624, Note_on_c, 12, 68, 110
6, 90718, Note_on_c, 12, 52, 0
6, 90718, Note_on_c, 12, 68, 0
6, 90720, Note_on_c, 12, 54, 110
6, 90720, Note_on_c, 12, 68, 110
6, 90910, Note_on_c, 12, 54, 0
6, 90910, Note_on_c, 12, 68, 0
6, 90912, Note_on_c, 12, 52, 110
6, 90912, Note_on_c, 12, 64, 110
6, 91072, Note_on_c, 12, 52, 0
6, 91072, Note_on_c, 12, 64, 0
6, 91104, Note_on_c, 12, 49, 110
6, 91104, Note_on_c, 12, 64, 110
6, 91264, Note_on_c, 12, 49, 0
6, 91264, Note_on_c, 12, 64, 0
6, 91296, Note_on_c, 12, 52, 110
6, 91296, Note_on_c, 12, 64, 110
6, 91456, Note_on_c, 12, 52, 0
6, 91456, Note_on_c, 12, 64, 0
6, 91488, Note_on_c, 12, 54, 110
6, 91488, Note_on_c, 12, 62, 110
6, 91488, Note_on_c, 12, 66, 110
6, 92304, Note_on_c, 12, 54, 0
6, 92304, Note_on_c, 12, 62, 0
6, 92304, Note_on_c, 12, 66, 0
6, 92544, Note_on_c, 12, 54, 110
6, 92638, Note_on_c, 12, 54, 0
6, 92640, Note_on_c, 12, 56, 110
6, 92800, Note_on_c, 12, 56, 0
6, 92832, Note_on_c, 12, 52, 110
6, 92926, Note_on_c, 12, 52, 0
6, 92928, Note_on_c, 12, 52, 110
6, 93022, Note_on_c, 12, 52, 0
6, 93024, Note_on_c, 12, 54, 110
6, 93214, Note_on_c, 12, 54, 0
6, 93216, Note_on_c, 12, 54, 110
6, 93310, Note_on_c, 12, 54, 0
6, 93312, Note_on_c, 12, 56, 110
6, 93406, Note_on_c, 12, 56, 0
6, 93408, Note_on_c, 12, 52, 110
6, 93502, Note_on_c, 12, 52, 0
6, 93504, Note_on_c, 12, 49, 110
6, 93840, Note_on_c, 12, 49, 0
6, 96096, Pitch_bend_c, 12, 0
6, 96096, Note_on_c, 12, 54, 110
6, 96096, Note_on_c, 12, 57, 110
6, 96097, Pitch_bend_c, 12, 64
6, 96098, Pitch_bend_c, 12, 96
6, 96099, Pitch_bend_c, 12, 128
6, 96100, Pitch_bend_c, 12, 192
6, 96101, Pitch_bend_c, 12, 224
6, 96102, Pitch_bend_c, 12, 256
6, 96103, Pitch_bend_c, 12, 320
6, 96104, Pitch_bend_c, 12, 352
6, 96105, Pitch_bend_c, 12, 384
6, 96106, Pitch_bend_c, 12, 448
6, 96107, Pitch_bend_c, 12, 480
6, 96108, Pitch_bend_c, 12, 512
6, 96109, Pitch_bend_c, 12, 576
6, 96110, Pitch_bend_c, 12, 608
6, 96111, Pitch_bend_c, 12, 640
6, 96112, Pitch_bend_c, 12, 704
6, 96113, Pitch_bend_c, 12, 736
6, 96114, Pitch_bend_c, 12, 768
6, 96115, Pitch_bend_c, 12, 832
6, 96116, Pitch_bend_c, 12, 864
6, 96117, Pitch_bend_c, 12, 896
6, 96118, Pitch_bend_c, 12, 960
6, 96119, Pitch_bend_c, 12, 992
6, 96120, Pitch_bend_c, 12, 1024
6, 96121, Pitch_bend_c, 12, 1088
6, 96122, Pitch_bend_c, 12, 1120
6, 96123, Pitch_bend_c, 12, 1152
6, 96124, Pitch_bend_c, 12, 1216
6, 96125, Pitch_bend_c, 12, 1248
6, 96126, Pitch_bend_c, 12, 1280
6, 96127, Pitch_bend_c, 12, 1344
6, 96128, Pitch_bend_c, 12, 1376
6, 96129, Pitch_bend_c, 12, 1408
6, 96130, Pitch_bend_c, 12, 1472
6, 96131, Pitch_bend_c, 12, 1504
6, 96132, Pitch_bend_c, 12, 1536
6, 96133, Pitch_bend_c, 12, 1600
6, 96134, Pitch_bend_c, 12, 1632
6, 96135, Pitch_bend_c, 12, 1664
6, 96136, Pitch_bend_c, 12, 1728
6, 96137, Pitch_bend_c, 12, 1760
6, 96138, Pitch_bend_c, 12, 1792
6, 96139, Pitch_bend_c, 12, 1856
6, 96140, Pitch_bend_c, 12, 1888
6, 96141, Pitch_bend_c, 12, 1920
6, 96142, Pitch_bend_c, 12, 1984
6, 96143, Pitch_bend_c, 12, 2016
6, 96144, Pitch_bend_c, 12, 2048
6, 96145, Pitch_bend_c, 12, 2112
6, 96146, Pitch_bend_c, 12, 2144
6, 96147, Pitch_bend_c, 12, 2176
6, 96148, Pitch_bend_c, 12, 2240
6, 96149, Pitch_bend_c, 12, 2272
6, 96150, Pitch_bend_c, 12, 2304
6, 96151, Pitch_bend_c, 12, 2368
6, 96152, Pitch_bend_c, 12, 2400
6, 96153, Pitch_bend_c, 12, 2432
6, 96154, Pitch_bend_c, 12, 2496
6, 96155, Pitch_bend_c, 12, 2528
6, 96156, Pitch_bend_c, 12, 2560
6, 96157, Pitch_bend_c, 12, 2624
6, 96158, Pitch_bend_c, 12, 2656
6, 96159, Pitch_bend_c, 12, 2688
6, 96160, Pitch_bend_c, 12, 2752
6, 96161, Pitch_bend_c, 12, 2784
6, 96162, Pitch_bend_c, 12, 2816
6, 96163, Pitch_bend_c, 12, 2880
6, 96164, Pitch_bend_c, 12, 2912
6, 96165, Pitch_bend_c, 12, 2944
6, 96166, Pitch_bend_c, 12, 3008
6, 96167, Pitch_bend_c, 12, 3040
6, 96168, Pitch_bend_c, 12, 3072
6, 96169, Pitch_bend_c, 12, 3136
6, 96170, Pitch_bend_c, 12, 3168
6, 96171, Pitch_bend_c, 12, 3200
6, 96172, Pitch_bend_c, 12, 3264
6, 96173, Pitch_bend_c, 12, 3296
6, 96174, Pitch_bend_c, 12, 3328
6, 96175, Pitch_bend_c, 12, 3392
6, 96176, Pitch_bend_c, 12, 3424
6, 96177, Pitch_bend_c, 12, 3456
6, 96178, Pitch_bend_c, 12, 3520
6, 96179, Pitch_bend_c, 12, 3552
6, 96180, Pitch_bend_c, 12, 3584
6, 96181, Pitch_bend_c, 12, 3648
6, 96182, Pitch_bend_c, 12, 3680
6, 96183, Pitch_bend_c, 12, 3712
6, 96184, Pitch_bend_c, 12, 3776
6, 96185, Pitch_bend_c, 12, 3808
6, 96186, Pitch_bend_c, 12, 3840
6, 96187, Pitch_bend_c, 12, 3904
6, 96188, Pitch_bend_c, 12, 3936
6, 96189, Pitch_bend_c, 12, 3968
6, 96190, Note_on_c, 12, 57, 0
6, 96190, Pitch_bend_c, 12, 4032
6, 96191, Pitch_bend_c, 12, 4064
6, 96192, Pitch_bend_c, 12, 4096
6, 96192, Note_on_c, 12, 57, 110
6, 96193, Pitch_bend_c, 12, 4160
6, 96194, Pitch_bend_c, 12, 4192
6, 96195, Pitch_bend_c, 12, 4224
6, 96196, Pitch_bend_c, 12, 4288
6, 96197, Pitch_bend_c, 12, 4320
6, 96198, Pitch_bend_c, 12, 4352
6, 96199, Pitch_bend_c, 12, 4416
6, 96200, Pitch_bend_c, 12, 4448
6, 96201, Pitch_bend_c, 12, 4480
6, 96202, Pitch_bend_c, 12, 4544
6, 96203, Pitch_bend_c, 12, 4576
6, 96204, Pitch_bend_c, 12, 4608
6, 96205, Pitch_bend_c, 12, 4672
6, 96206, Pitch_bend_c, 12, 4704
6, 96207, Pitch_bend_c, 12, 4736
6, 96208, Pitch_bend_c, 12, 4800
6, 96209, Pitch_bend_c, 12, 4832
6, 96210, Pitch_bend_c, 12, 4864
6, 96211, Pitch_bend_c, 12, 4928
6, 96212, Pitch_bend_c, 12, 4960
6, 96213, Pitch_bend_c, 12, 4992
6, 96214, Pitch_bend_c, 12, 5056
6, 96215, Pitch_bend_c, 12, 5088
6, 96216, Pitch_bend_c, 12, 5120
6, 96217, Pitch_bend_c, 12, 5184
6, 96218, Pitch_bend_c, 12, 5216
6, 96219, Pitch_bend_c, 12, 5248
6, 96220, Pitch_bend_c, 12, 5312
6, 96221, Pitch_bend_c, 12, 5344
6, 96222, Pitch_bend_c, 12, 5376
6, 96223, Pitch_bend_c, 12, 5440
6, 96224, Pitch_bend_c, 12, 5472
6, 96225, Pitch_bend_c, 12, 5504
6, 96226, Pitch_bend_c, 12, 5568
6, 96227, Pitch_bend_c, 12, 5600
6, 96228, Pitch_bend_c, 12, 5632
6, 96229, Pitch_bend_c, 12, 5696
6, 96230, Pitch_bend_c, 12, 5728
6, 96231, Pitch_bend_c, 12, 5760
6, 96232, Pitch_bend_c, 12, 5824
6, 96233, Pitch_bend_c, 12, 5856
6, 96234, Pitch_bend_c, 12, 5888
6, 96235, Pitch_bend_c, 12, 5952
6, 96236, Pitch_bend_c, 12, 5984
6, 96237, Pitch_bend_c, 12, 6016
6, 96238, Pitch_bend_c, 12, 6080
6, 96239, Pitch_bend_c, 12, 6112
6, 96240, Pitch_bend_c, 12, 6144
6, 96241, Pitch_bend_c, 12, 6208
6, 96242, Pitch_bend_c, 12, 6240
6, 96243, Pitch_bend_c, 12, 6272
6, 96244, Pitch_bend_c, 12, 6336
6, 96245, Pitch_bend_c, 12, 6368
6, 96246, Pitch_bend_c, 12, 6400
6, 96247, Pitch_bend_c, 12, 6464
6, 96248, Pitch_bend_c, 12, 6496
6, 96249, Pitch_bend_c, 12, 6528
6, 96250, Pitch_bend_c, 12, 6592
6, 96251, Pitch_bend_c, 12, 6624
6, 96252, Pitch_bend_c, 12, 6656
6, 96253, Pitch_bend_c, 12, 6720
6, 96254, Pitch_bend_c, 12, 6752
6, 96255, Pitch_bend_c, 12, 6784
6, 96256, Pitch_bend_c, 12, 6848
6, 96257, Pitch_bend_c, 12, 6880
6, 96258, Pitch_bend_c, 12, 6912
6, 96259, Pitch_bend_c, 12, 6976
6, 96260, Pitch_bend_c, 12, 7008
6, 96261, Pitch_bend_c, 12, 7040
6, 96262, Pitch_bend_c, 12, 7104
6, 96263, Pitch_bend_c, 12, 7136
6, 96264, Pitch_bend_c, 12, 7168
6, 96265, Pitch_bend_c, 12, 7232
6, 96266, Pitch_bend_c, 12, 7264
6, 96267, Pitch_bend_c, 12, 7296
6, 96268, Pitch_bend_c, 12, 7360
6, 96269, Pitch_bend_c, 12, 7392
6, 96270, Pitch_bend_c, 12, 7424
6, 96271, Pitch_bend_c, 12, 7488
6, 96272, Pitch_bend_c, 12, 7520
6, 96273, Pitch_bend_c, 12, 7552
6, 96274, Pitch_bend_c, 12, 7616
6, 96275, Pitch_bend_c, 12, 7648
6, 96276, Pitch_bend_c, 12, 7680
6, 96277, Pitch_bend_c, 12, 7744
6, 96278, Pitch_bend_c, 12, 7776
6, 96279, Pitch_bend_c, 12, 7808
6, 96280, Pitch_bend_c, 12, 7872
6, 96281, Pitch_bend_c, 12, 7904
6, 96282, Pitch_bend_c, 12, 7936
6, 96283, Pitch_bend_c, 12, 8000
6, 96284, Pitch_bend_c, 12, 8032
6, 96285, Pitch_bend_c, 12, 8064
6, 96286, Pitch_bend_c, 12, 8128
6, 96287, Pitch_bend_c, 12, 8160
6, 96288, Pitch_bend_c, 12, 8192
6, 97120, Note_on_c, 12, 54, 0
6, 97120, Note_on_c, 12, 57, 0
6, 97344, Note_on_c, 12, 56, 110
6, 97344, Note_on_c, 12, 61, 110
6, 97438, Note_on_c, 12, 56, 0
6, 97438, Note_on_c, 12, 61, 0
6, 97440, Note_on_c, 12, 52, 110
6, 97440, Note_on_c, 12, 59, 110
6, 97534, Note_on_c, 12, 52, 0
6, 97534, Note_on_c, 12, 59, 0
6, 97536, Note_on_c, 12, 52, 110
6, 97536, Note_on_c, 12, 57, 110
6, 97630, Note_on_c, 12, 52, 0
6, 97630, Note_on_c, 12, 57, 0
6, 97632, Note_on_c, 12, 54, 110
6, 97632, Note_on_c, 12, 59, 110
6, 97822, Note_on_c, 12, 54, 0
6, 97822, Note_on_c, 12, 59, 0
6, 97824, Note_on_c, 12, 54, 110
6, 97824, Note_on_c, 12, 59, 110
6, 97918, Note_on_c, 12, 54, 0
6, 97918, Note_on_c, 12, 59, 0
6, 97920, Note_on_c, 12, 56, 110
6, 97920, Note_on_c, 12, 61, 110
6, 98014, Note_on_c, 12, 56, 0
6, 98014, Note_on_c, 12, 61, 0
6, 98016, Note_on_c, 12, 52, 110
6, 98016, Note_on_c, 12, 57, 110
6, 98176, Note_on_c, 12, 52, 0
6, 98176, Note_on_c, 12, 57, 0
6, 100704, Pitch_bend_c, 12, 0
6, 100704, Note_on_c, 12, 54, 110
6, 100704, Note_on_c, 12, 57, 110
6, 100705, Pitch_bend_c, 12, 64
6, 100706, Pitch_bend_c, 12, 96
6, 100707, Pitch_bend_c, 12, 128
6, 100708, Pitch_bend_c, 12, 192
6, 100709, Pitch_bend_c, 12, 224
6, 100710, Pitch_bend_c, 12, 256
6, 100711, Pitch_bend_c, 12, 320
6, 100712, Pitch_bend_c, 12, 352
6, 100713, Pitch_bend_c, 12, 384
6, 100714, Pitch_bend_c, 12, 448
6, 100715, Pitch_bend_c, 12, 480
6, 100716, Pitch_bend_c, 12, 512
6, 100717, Pitch_bend_c, 12, 576
6, 100718, Pitch_bend_c, 12, 608
6, 100719, Pitch_bend_c, 12, 640
6, 100720, Pitch_bend_c, 12, 704
6, 100721, Pitch_bend_c, 12, 736
6, 100722, Pitch_bend_c, 12, 768
6, 100723, Pitch_bend_c, 12, 832
6, 100724, Pitch_bend_c, 12, 864
6, 100725, Pitch_bend_c, 12, 896
6, 100726, Pitch_bend_c, 12, 960
6, 100727, Pitch_bend_c, 12, 992
6, 100728, Pitch_bend_c, 12, 1024
6, 100729, Pitch_bend_c, 12, 1088
6, 100730, Pitch_bend_c, 12, 1120
6, 100731, Pitch_bend_c, 12, 1152
6, 100732, Pitch_bend_c, 12, 1216
6, 100733, Pitch_bend_c, 12, 1248
6, 100734, Pitch_bend_c, 12, 1280
6, 100735, Pitch_bend_c, 12, 1344
6, 100736, Pitch_bend_c, 12, 1376
6, 100737, Pitch_bend_c, 12, 1408
6, 100738, Pitch_bend_c, 12, 1472
6, 100739, Pitch_bend_c, 12, 1504
6, 100740, Pitch_bend_c, 12, 1536
6, 100741, Pitch_bend_c, 12, 1600
6, 100742, Pitch_bend_c, 12, 1632
6, 100743, Pitch_bend_c, 12, 1664
6, 100744, Pitch_bend_c, 12, 1728
6, 100745, Pitch_bend_c, 12, 1760
6, 100746, Pitch_bend_c, 12, 1792
6, 100747, Pitch_bend_c, 12, 1856
6, 100748, Pitch_bend_c, 12, 1888
6, 100749, Pitch_bend_c, 12, 1920
6, 100750, Pitch_bend_c, 12, 1984
6, 100751, Pitch_bend_c, 12, 2016
6, 100752, Pitch_bend_c, 12, 2048
6, 100753, Pitch_bend_c, 12, 2112
6, 100754, Pitch_bend_c, 12, 2144
6, 100755, Pitch_bend_c, 12, 2176
6, 100756, Pitch_bend_c, 12, 2240
6, 100757, Pitch_bend_c, 12, 2272
6, 100758, Pitch_bend_c, 12, 2304
6, 100759, Pitch_bend_c, 12, 2368
6, 100760, Pitch_bend_c, 12, 2400
6, 100761, Pitch_bend_c, 12, 2432
6, 100762, Pitch_bend_c, 12, 2496
6, 100763, Pitch_bend_c, 12, 2528
6, 100764, Pitch_bend_c, 12, 2560
6, 100765, Pitch_bend_c, 12, 2624
6, 100766, Pitch_bend_c, 12, 2656
6, 100767, Pitch_bend_c, 12, 2688
6, 100768, Pitch_bend_c, 12, 2752
6, 100769, Pitch_bend_c, 12, 2784
6, 100770, Pitch_bend_c, 12, 2816
6, 100771, Pitch_bend_c, 12, 2880
6, 100772, Pitch_bend_c, 12, 2912
6, 100773, Pitch_bend_c, 12, 2944
6, 100774, Pitch_bend_c, 12, 3008
6, 100775, Pitch_bend_c, 12, 3040
6, 100776, Pitch_bend_c, 12, 3072
6, 100777, Pitch_bend_c, 12, 3136
6, 100778, Pitch_bend_c, 12, 3168
6, 100779, Pitch_bend_c, 12, 3200
6, 100780, Pitch_bend_c, 12, 3264
6, 100781, Pitch_bend_c, 12, 3296
6, 100782, Pitch_bend_c, 12, 3328
6, 100783, Pitch_bend_c, 12, 3392
6, 100784, Pitch_bend_c, 12, 3424
6, 100785, Pitch_bend_c, 12, 3456
6, 100786, Pitch_bend_c, 12, 3520
6, 100787, Pitch_bend_c, 12, 3552
6, 100788, Pitch_bend_c, 12, 3584
6, 100789, Pitch_bend_c, 12, 3648
6, 100790, Pitch_bend_c, 12, 3680
6, 100791, Pitch_bend_c, 12, 3712
6, 100792, Pitch_bend_c, 12, 3776
6, 100793, Pitch_bend_c, 12, 3808
6, 100794, Pitch_bend_c, 12, 3840
6, 100795, Pitch_bend_c, 12, 3904
6, 100796, Pitch_bend_c, 12, 3936
6, 100797, Pitch_bend_c, 12, 3968
6, 100798, Note_on_c, 12, 57, 0
6, 100798, Pitch_bend_c, 12, 4032
6, 100799, Pitch_bend_c, 12, 4064
6, 100800, Pitch_bend_c, 12, 4096
6, 100800, Note_on_c, 12, 57, 110
6, 100801, Pitch_bend_c, 12, 4160
6, 100802, Pitch_bend_c, 12, 4192
6, 100803, Pitch_bend_c, 12, 4224
6, 100804, Pitch_bend_c, 12, 4288
6, 100805, Pitch_bend_c, 12, 4320
6, 100806, Pitch_bend_c, 12, 4352
6, 100807, Pitch_bend_c, 12, 4416
6, 100808, Pitch_bend_c, 12, 4448
6, 100809, Pitch_bend_c, 12, 4480
6, 100810, Pitch_bend_c, 12, 4544
6, 100811, Pitch_bend_c, 12, 4576
6, 100812, Pitch_bend_c, 12, 4608
6, 100813, Pitch_bend_c, 12, 4672
6, 100814, Pitch_bend_c, 12, 4704
6, 100815, Pitch_bend_c, 12, 4736
6, 100816, Pitch_bend_c, 12, 4800
6, 100817, Pitch_bend_c, 12, 4832
6, 100818, Pitch_bend_c, 12, 4864
6, 100819, Pitch_bend_c, 12, 4928
6, 100820, Pitch_bend_c, 12, 4960
6, 100821, Pitch_bend_c, 12, 4992
6, 100822, Pitch_bend_c, 12, 5056
6, 100823, Pitch_bend_c, 12, 5088
6, 100824, Pitch_bend_c, 12, 5120
6, 100825, Pitch_bend_c, 12, 5184
6, 100826, Pitch_bend_c, 12, 5216
6, 100827, Pitch_bend_c, 12, 5248
6, 100828, Pitch_bend_c, 12, 5312
6, 100829, Pitch_bend_c, 12, 5344
6, 100830, Pitch_bend_c, 12, 5376
6, 100831, Pitch_bend_c, 12, 5440
6, 100832, Pitch_bend_c, 12, 5472
6, 100833, Pitch_bend_c, 12, 5504
6, 100834, Pitch_bend_c, 12, 5568
6, 100835, Pitch_bend_c, 12, 5600
6, 100836, Pitch_bend_c, 12, 5632
6, 100837, Pitch_bend_c, 12, 5696
6, 100838, Pitch_bend_c, 12, 5728
6, 100839, Pitch_bend_c, 12, 5760
6, 100840, Pitch_bend_c, 12, 5824
6, 100841, Pitch_bend_c, 12, 5856
6, 100842, Pitch_bend_c, 12, 5888
6, 100843, Pitch_bend_c, 12, 5952
6, 100844, Pitch_bend_c, 12, 5984
6, 100845, Pitch_bend_c, 12, 6016
6, 100846, Pitch_bend_c, 12, 6080
6, 100847, Pitch_bend_c, 12, 6112
6, 100848, Pitch_bend_c, 12, 6144
6, 100849, Pitch_bend_c, 12, 6208
6, 100850, Pitch_bend_c, 12, 6240
6, 100851, Pitch_bend_c, 12, 6272
6, 100852, Pitch_bend_c, 12, 6336
6, 100853, Pitch_bend_c, 12, 6368
6, 100854, Pitch_bend_c, 12, 6400
6, 100855, Pitch_bend_c, 12, 6464
6, 100856, Pitch_bend_c, 12, 6496
6, 100857, Pitch_bend_c, 12, 6528
6, 100858, Pitch_bend_c, 12, 6592
6, 100859, Pitch_bend_c, 12, 6624
6, 100860, Pitch_bend_c, 12, 6656
6, 100861, Pitch_bend_c, 12, 6720
6, 100862, Pitch_bend_c, 12, 6752
6, 100863, Pitch_bend_c, 12, 6784
6, 100864, Pitch_bend_c, 12, 6848
6, 100865, Pitch_bend_c, 12, 6880
6, 100866, Pitch_bend_c, 12, 6912
6, 100867, Pitch_bend_c, 12, 6976
6, 100868, Pitch_bend_c, 12, 7008
6, 100869, Pitch_bend_c, 12, 7040
6, 100870, Pitch_bend_c, 12, 7104
6, 100871, Pitch_bend_c, 12, 7136
6, 100872, Pitch_bend_c, 12, 7168
6, 100873, Pitch_bend_c, 12, 7232
6, 100874, Pitch_bend_c, 12, 7264
6, 100875, Pitch_bend_c, 12, 7296
6, 100876, Pitch_bend_c, 12, 7360
6, 100877, Pitch_bend_c, 12, 7392
6, 100878, Pitch_bend_c, 12, 7424
6, 100879, Pitch_bend_c, 12, 7488
6, 100880, Pitch_bend_c, 12, 7520
6, 100881, Pitch_bend_c, 12, 7552
6, 100882, Pitch_bend_c, 12, 7616
6, 100883, Pitch_bend_c, 12, 7648
6, 100884, Pitch_bend_c, 12, 7680
6, 100885, Pitch_bend_c, 12, 7744
6, 100886, Pitch_bend_c, 12, 7776
6, 100887, Pitch_bend_c, 12, 7808
6, 100888, Pitch_bend_c, 12, 7872
6, 100889, Pitch_bend_c, 12, 7904
6, 100890, Pitch_bend_c, 12, 7936
6, 100891, Pitch_bend_c, 12, 8000
6, 100892, Pitch_bend_c, 12, 8032
6, 100893, Pitch_bend_c, 12, 8064
6, 100894, Pitch_bend_c, 12, 8128
6, 100895, Pitch_bend_c, 12, 8160
6, 100896, Pitch_bend_c, 12, 8192
6, 101728, Note_on_c, 12, 54, 0
6, 101728, Note_on_c, 12, 57, 0
6, 101952, Note_on_c, 12, 56, 110
6, 101952, Note_on_c, 12, 61, 110
6, 102046, Note_on_c, 12, 56, 0
6, 102046, Note_on_c, 12, 61, 0
6, 102048, Note_on_c, 12, 52, 110
6, 102048, Note_on_c, 12, 59, 110
6, 102142, Note_on_c, 12, 52, 0
6, 102142, Note_on_c, 12, 59, 0
6, 102144, Note_on_c, 12, 52, 110
6, 102144, Note_on_c, 12, 57, 110
6, 102238, Note_on_c, 12, 52, 0
6, 102238, Note_on_c, 12, 57, 0
6, 102240, Note_on_c, 12, 54, 110
6, 102240, Note_on_c, 12, 59, 110
6, 102430, Note_on_c, 12, 54, 0
6, 102430, Note_on_c, 12, 59, 0
6, 102432, Note_on_c, 12, 54, 110
6, 102432, Note_on_c, 12, 59, 110
6, 102526, Note_on_c, 12, 54, 0
6, 102526, Note_on_c, 12, 59, 0
6, 102528, Note_on_c, 12, 56, 110
6, 102528, Note_on_c, 12, 61, 110
6, 102622, Note_on_c, 12, 56, 0
6, 102622, Note_on_c, 12, 61, 0
6, 102624, Note_on_c, 12, 52, 110
6, 102624, Note_on_c, 12, 57, 110
6, 102784, Note_on_c, 12, 52, 0
6, 102784, Note_on_c, 12, 57, 0
6, 105312, Pitch_bend_c, 12, 0
6, 105312, Note_on_c, 12, 54, 110
6, 105312, Note_on_c, 12, 57, 110
6, 105313, Pitch_bend_c, 12, 64
6, 105314, Pitch_bend_c, 12, 96
6, 105315, Pitch_bend_c, 12, 128
6, 105316, Pitch_bend_c, 12, 192
6, 105317, Pitch_bend_c, 12, 224
6, 105318, Pitch_bend_c, 12, 256
6, 105319, Pitch_bend_c, 12, 320
6, 105320, Pitch_bend_c, 12, 352
6, 105321, Pitch_bend_c, 12, 384
6, 105322, Pitch_bend_c, 12, 448
6, 105323, Pitch_bend_c, 12, 480
6, 105324, Pitch_bend_c, 12, 512
6, 105325, Pitch_bend_c, 12, 576
6, 105326, Pitch_bend_c, 12, 608
6, 105327, Pitch_bend_c, 12, 640
6, 105328, Pitch_bend_c, 12, 704
6, 105329, Pitch_bend_c, 12, 736
6, 105330, Pitch_bend_c, 12, 768
6, 105331, Pitch_bend_c, 12, 832
6, 105332, Pitch_bend_c, 12, 864
6, 105333, Pitch_bend_c, 12, 896
6, 105334, Pitch_bend_c, 12, 960
6, 105335, Pitch_bend_c, 12, 992
6, 105336, Pitch_bend_c, 12, 1024
6, 105337, Pitch_bend_c, 12, 1088
6, 105338, Pitch_bend_c, 12, 1120
6, 105339, Pitch_bend_c, 12, 1152
6, 105340, Pitch_bend_c, 12, 1216
6, 105341, Pitch_bend_c, 12, 1248
6, 105342, Pitch_bend_c, 12, 1280
6, 105343, Pitch_bend_c, 12, 1344
6, 105344, Pitch_bend_c, 12, 1376
6, 105345, Pitch_bend_c, 12, 1408
6, 105346, Pitch_bend_c, 12, 1472
6, 105347, Pitch_bend_c, 12, 1504
6, 105348, Pitch_bend_c, 12, 1536
6, 105349, Pitch_bend_c, 12, 1600
6, 105350, Pitch_bend_c, 12, 1632
6, 105351, Pitch_bend_c, 12, 1664
6, 105352, Pitch_bend_c, 12, 1728
6, 105353, Pitch_bend_c, 12, 1760
6, 105354, Pitch_bend_c, 12, 1792
6, 105355, Pitch_bend_c, 12, 1856
6, 105356, Pitch_bend_c, 12, 1888
6, 105357, Pitch_bend_c, 12, 1920
6, 105358, Pitch_bend_c, 12, 1984
6, 105359, Pitch_bend_c, 12, 2016
6, 105360, Pitch_bend_c, 12, 2048
6, 105361, Pitch_bend_c, 12, 2112
6, 105362, Pitch_bend_c, 12, 2144
6, 105363, Pitch_bend_c, 12, 2176
6, 105364, Pitch_bend_c, 12, 2240
6, 105365, Pitch_bend_c, 12, 2272
6, 105366, Pitch_bend_c, 12, 2304
6, 105367, Pitch_bend_c, 12, 2368
6, 105368, Pitch_bend_c, 12, 2400
6, 105369, Pitch_bend_c, 12, 2432
6, 105370, Pitch_bend_c, 12, 2496
6, 105371, Pitch_bend_c, 12, 2528
6, 105372, Pitch_bend_c, 12, 2560
6, 105373, Pitch_bend_c, 12, 2624
6, 105374, Pitch_bend_c, 12, 2656
6, 105375, Pitch_bend_c, 12, 2688
6, 105376, Pitch_bend_c, 12, 2752
6, 105377, Pitch_bend_c, 12, 2784
6, 105378, Pitch_bend_c, 12, 2816
6, 105379, Pitch_bend_c, 12, 2880
6, 105380, Pitch_bend_c, 12, 2912
6, 105381, Pitch_bend_c, 12, 2944
6, 105382, Pitch_bend_c, 12, 3008
6, 105383, Pitch_bend_c, 12, 3040
6, 105384, Pitch_bend_c, 12, 3072
6, 105385, Pitch_bend_c, 12, 3136
6, 105386, Pitch_bend_c, 12, 3168
6, 105387, Pitch_bend_c, 12, 3200
6, 105388, Pitch_bend_c, 12, 3264
6, 105389, Pitch_bend_c, 12, 3296
6, 105390, Pitch_bend_c, 12, 3328
6, 105391, Pitch_bend_c, 12, 3392
6, 105392, Pitch_bend_c, 12, 3424
6, 105393, Pitch_bend_c, 12, 3456
6, 105394, Pitch_bend_c, 12, 3520
6, 105395, Pitch_bend_c, 12, 3552
6, 105396, Pitch_bend_c, 12, 3584
6, 105397, Pitch_bend_c, 12, 3648
6, 105398, Pitch_bend_c, 12, 3680
6, 105399, Pitch_bend_c, 12, 3712
6, 105400, Pitch_bend_c, 12, 3776
6, 105401, Pitch_bend_c, 12, 3808
6, 105402, Pitch_bend_c, 12, 3840
6, 105403, Pitch_bend_c, 12, 3904
6, 105404, Pitch_bend_c, 12, 3936
6, 105405, Pitch_bend_c, 12, 3968
6, 105406, Note_on_c, 12, 57, 0
6, 105406, Pitch_bend_c, 12, 4032
6, 105407, Pitch_bend_c, 12, 4064
6, 105408, Pitch_bend_c, 12, 4096
6, 105408, Note_on_c, 12, 57, 110
6, 105409, Pitch_bend_c, 12, 4160
6, 105410, Pitch_bend_c, 12, 4192
6, 105411, Pitch_bend_c, 12, 4224
6, 105412, Pitch_bend_c, 12, 4288
6, 105413, Pitch_bend_c, 12, 4320
6, 105414, Pitch_bend_c, 12, 4352
6, 105415, Pitch_bend_c, 12, 4416
6, 105416, Pitch_bend_c, 12, 4448
6, 105417, Pitch_bend_c, 12, 4480
6, 105418, Pitch_bend_c, 12, 4544
6, 105419, Pitch_bend_c, 12, 4576
6, 105420, Pitch_bend_c, 12, 4608
6, 105421, Pitch_bend_c, 12, 4672
6, 105422, Pitch_bend_c, 12, 4704
6, 105423, Pitch_bend_c, 12, 4736
6, 105424, Pitch_bend_c, 12, 4800
6, 105425, Pitch_bend_c, 12, 4832
6, 105426, Pitch_bend_c, 12, 4864
6, 105427, Pitch_bend_c, 12, 4928
6, 105428, Pitch_bend_c, 12, 4960
6, 105429, Pitch_bend_c, 12, 4992
6, 105430, Pitch_bend_c, 12, 5056
6, 105431, Pitch_bend_c, 12, 5088
6, 105432, Pitch_bend_c, 12, 5120
6, 105433, Pitch_bend_c, 12, 5184
6, 105434, Pitch_bend_c, 12, 5216
6, 105435, Pitch_bend_c, 12, 5248
6, 105436, Pitch_bend_c, 12, 5312
6, 105437, Pitch_bend_c, 12, 5344
6, 105438, Pitch_bend_c, 12, 5376
6, 105439, Pitch_bend_c, 12, 5440
6, 105440, Pitch_bend_c, 12, 5472
6, 105441, Pitch_bend_c, 12, 5504
6, 105442, Pitch_bend_c, 12, 5568
6, 105443, Pitch_bend_c, 12, 5600
6, 105444, Pitch_bend_c, 12, 5632
6, 105445, Pitch_bend_c, 12, 5696
6, 105446, Pitch_bend_c, 12, 5728
6, 105447, Pitch_bend_c, 12, 5760
6, 105448, Pitch_bend_c, 12, 5824
6, 105449, Pitch_bend_c, 12, 5856
6, 105450, Pitch_bend_c, 12, 5888
6, 105451, Pitch_bend_c, 12, 5952
6, 105452, Pitch_bend_c, 12, 5984
6, 105453, Pitch_bend_c, 12, 6016
6, 105454, Pitch_bend_c, 12, 6080
6, 105455, Pitch_bend_c, 12, 6112
6, 105456, Pitch_bend_c, 12, 6144
6, 105457, Pitch_bend_c, 12, 6208
6, 105458, Pitch_bend_c, 12, 6240
6, 105459, Pitch_bend_c, 12, 6272
6, 105460, Pitch_bend_c, 12, 6336
6, 105461, Pitch_bend_c, 12, 6368
6, 105462, Pitch_bend_c, 12, 6400
6, 105463, Pitch_bend_c, 12, 6464
6, 105464, Pitch_bend_c, 12, 6496
6, 105465, Pitch_bend_c, 12, 6528
6, 105466, Pitch_bend_c, 12, 6592
6, 105467, Pitch_bend_c, 12, 6624
6, 105468, Pitch_bend_c, 12, 6656
6, 105469, Pitch_bend_c, 12, 6720
6, 105470, Pitch_bend_c, 12, 6752
6, 105471, Pitch_bend_c, 12, 6784
6, 105472, Pitch_bend_c, 12, 6848
6, 105473, Pitch_bend_c, 12, 6880
6, 105474, Pitch_bend_c, 12, 6912
6, 105475, Pitch_bend_c, 12, 6976
6, 105476, Pitch_bend_c, 12, 7008
6, 105477, Pitch_bend_c, 12, 7040
6, 105478, Pitch_bend_c, 12, 7104
6, 105479, Pitch_bend_c, 12, 7136
6, 105480, Pitch_bend_c, 12, 7168
6, 105481, Pitch_bend_c, 12, 7232
6, 105482, Pitch_bend_c, 12, 7264
6, 105483, Pitch_bend_c, 12, 7296
6, 105484, Pitch_bend_c, 12, 7360
6, 105485, Pitch_bend_c, 12, 7392
6, 105486, Pitch_bend_c, 12, 7424
6, 105487, Pitch_bend_c, 12, 7488
6, 105488, Pitch_bend_c, 12, 7520
6, 105489, Pitch_bend_c, 12, 7552
6, 105490, Pitch_bend_c, 12, 7616
6, 105491, Pitch_bend_c, 12, 7648
6, 105492, Pitch_bend_c, 12, 7680
6, 105493, Pitch_bend_c, 12, 7744
6, 105494, Pitch_bend_c, 12, 7776
6, 105495, Pitch_bend_c, 12, 7808
6, 105496, Pitch_bend_c, 12, 7872
6, 105497, Pitch_bend_c, 12, 7904
6, 105498, Pitch_bend_c, 12, 7936
6, 105499, Pitch_bend_c, 12, 8000
6, 105500, Pitch_bend_c, 12, 8032
6, 105501, Pitch_bend_c, 12, 8064
6, 105502, Pitch_bend_c, 12, 8128
6, 105503, Pitch_bend_c, 12, 8160
6, 105504, Pitch_bend_c, 12, 8192
6, 106336, Note_on_c, 12, 54, 0
6, 106336, Note_on_c, 12, 57, 0
6, 106560, Note_on_c, 12, 56, 110
6, 106560, Note_on_c, 12, 61, 110
6, 106654, Note_on_c, 12, 56, 0
6, 106654, Note_on_c, 12, 61, 0
6, 106656, Note_on_c, 12, 52, 110
6, 106656, Note_on_c, 12, 59, 110
6, 106750, Note_on_c, 12, 52, 0
6, 106750, Note_on_c, 12, 59, 0
6, 106752, Note_on_c, 12, 52, 110
6, 106752, Note_on_c, 12, 57, 110
6, 106846, Note_on_c, 12, 52, 0
6, 106846, Note_on_c, 12, 57, 0
6, 106848, Note_on_c, 12, 54, 110
6, 106848, Note_on_c, 12, 59, 110
6, 107038, Note_on_c, 12, 54, 0
6, 107038, Note_on_c, 12, 59, 0
6, 107040, Note_on_c, 12, 54, 110
6, 107040, Note_on_c, 12, 59, 110
6, 107134, Note_on_c, 12, 54, 0
6, 107134, Note_on_c, 12, 59, 0
6, 107136, Note_on_c, 12, 56, 110
6, 107136, Note_on_c, 12, 61, 110
6, 107230, Note_on_c, 12, 56, 0
6, 107230, Note_on_c, 12, 61, 0
6, 107232, Note_on_c, 12, 52, 110
6, 107232, Note_on_c, 12, 57, 110
6, 107392, Note_on_c, 12, 52, 0
6, 107392, Note_on_c, 12, 57, 0
6, 109920, Pitch_bend_c, 12, 0
6, 109920, Note_on_c, 12, 54, 110
6, 109920, Note_on_c, 12, 57, 110
6, 109921, Pitch_bend_c, 12, 64
6, 109922, Pitch_bend_c, 12, 96
6, 109923, Pitch_bend_c, 12, 128
6, 109924, Pitch_bend_c, 12, 192
6, 109925, Pitch_bend_c, 12, 224
6, 109926, Pitch_bend_c, 12, 256
6, 109927, Pitch_bend_c, 12, 320
6, 109928, Pitch_bend_c, 12, 352
6, 109929, Pitch_bend_c, 12, 384
6, 109930, Pitch_bend_c, 12, 448
6, 109931, Pitch_bend_c, 12, 480
6, 109932, Pitch_bend_c, 12, 512
6, 109933, Pitch_bend_c, 12, 576
6, 109934, Pitch_bend_c, 12, 608
6, 109935, Pitch_bend_c, 12, 640
6, 109936, Pitch_bend_c, 12, 704
6, 109937, Pitch_bend_c, 12, 736
6, 109938, Pitch_bend_c, 12, 768
6, 109939, Pitch_bend_c, 12, 832
6, 109940, Pitch_bend_c, 12, 864
6, 109941, Pitch_bend_c, 12, 896
6, 109942, Pitch_bend_c, 12, 960
6, 109943, Pitch_bend_c, 12, 992
6, 109944, Pitch_bend_c, 12, 1024
6, 109945, Pitch_bend_c, 12, 1088
6, 109946, Pitch_bend_c, 12, 1120
6, 109947, Pitch_bend_c, 12, 1152
6, 109948, Pitch_bend_c, 12, 1216
6, 109949, Pitch_bend_c, 12, 1248
6, 109950, Pitch_bend_c, 12, 1280
6, 109951, Pitch_bend_c, 12, 1344
6, 109952, Pitch_bend_c, 12, 1376
6, 109953, Pitch_bend_c, 12, 1408
6, 109954, Pitch_bend_c, 12, 1472
6, 109955, Pitch_bend_c, 12, 1504
6, 109956, Pitch_bend_c, 12, 1536
6, 109957, Pitch_bend_c, 12, 1600
6, 109958, Pitch_bend_c, 12, 1632
6, 109959, Pitch_bend_c, 12, 1664
6, 109960, Pitch_bend_c, 12, 1728
6, 109961, Pitch_bend_c, 12, 1760
6, 109962, Pitch_bend_c, 12, 1792
6, 109963, Pitch_bend_c, 12, 1856
6, 109964, Pitch_bend_c, 12, 1888
6, 109965, Pitch_bend_c, 12, 1920
6, 109966, Pitch_bend_c, 12, 1984
6, 109967, Pitch_bend_c, 12, 2016
6, 109968, Pitch_bend_c, 12, 2048
6, 109969, Pitch_bend_c, 12, 2112
6, 109970, Pitch_bend_c, 12, 2144
6, 109971, Pitch_bend_c, 12, 2176
6, 109972, Pitch_bend_c, 12, 2240
6, 109973, Pitch_bend_c, 12, 2272
6, 109974, Pitch_bend_c, 12, 2304
6, 109975, Pitch_bend_c, 12, 2368
6, 109976, Pitch_bend_c, 12, 2400
6, 109977, Pitch_bend_c, 12, 2432
6, 109978, Pitch_bend_c, 12, 2496
6, 109979, Pitch_bend_c, 12, 2528
6, 109980, Pitch_bend_c, 12, 2560
6, 109981, Pitch_bend_c, 12, 2624
6, 109982, Pitch_bend_c, 12, 2656
6, 109983, Pitch_bend_c, 12, 2688
6, 109984, Pitch_bend_c, 12, 2752
6, 109985, Pitch_bend_c, 12, 2784
6, 109986, Pitch_bend_c, 12, 2816
6, 109987, Pitch_bend_c, 12, 2880
6, 109988, Pitch_bend_c, 12, 2912
6, 109989, Pitch_bend_c, 12, 2944
6, 109990, Pitch_bend_c, 12, 3008
6, 109991, Pitch_bend_c, 12, 3040
6, 109992, Pitch_bend_c, 12, 3072
6, 109993, Pitch_bend_c, 12, 3136
6, 109994, Pitch_bend_c, 12, 3168
6, 109995, Pitch_bend_c, 12, 3200
6, 109996, Pitch_bend_c, 12, 3264
6, 109997, Pitch_bend_c, 12, 3296
6, 109998, Pitch_bend_c, 12, 3328
6, 109999, Pitch_bend_c, 12, 3392
6, 110000, Pitch_bend_c, 12, 3424
6, 110001, Pitch_bend_c, 12, 3456
6, 110002, Pitch_bend_c, 12, 3520
6, 110003, Pitch_bend_c, 12, 3552
6, 110004, Pitch_bend_c, 12, 3584
6, 110005, Pitch_bend_c, 12, 3648
6, 110006, Pitch_bend_c, 12, 3680
6, 110007, Pitch_bend_c, 12, 3712
6, 110008, Pitch_bend_c, 12, 3776
6, 110009, Pitch_bend_c, 12, 3808
6, 110010, Pitch_bend_c, 12, 3840
6, 110011, Pitch_bend_c, 12, 3904
6, 110012, Pitch_bend_c, 12, 3936
6, 110013, Pitch_bend_c, 12, 3968
6, 110014, Note_on_c, 12, 57, 0
6, 110014, Pitch_bend_c, 12, 4032
6, 110015, Pitch_bend_c, 12, 4064
6, 110016, Pitch_bend_c, 12, 4096
6, 110016, Note_on_c, 12, 57, 110
6, 110017, Pitch_bend_c, 12, 4160
6, 110018, Pitch_bend_c, 12, 4192
6, 110019, Pitch_bend_c, 12, 4224
6, 110020, Pitch_bend_c, 12, 4288
6, 110021, Pitch_bend_c, 12, 4320
6, 110022, Pitch_bend_c, 12, 4352
6, 110023, Pitch_bend_c, 12, 4416
6, 110024, Pitch_bend_c, 12, 4448
6, 110025, Pitch_bend_c, 12, 4480
6, 110026, Pitch_bend_c, 12, 4544
6, 110027, Pitch_bend_c, 12, 4576
6, 110028, Pitch_bend_c, 12, 4608
6, 110029, Pitch_bend_c, 12, 4672
6, 110030, Pitch_bend_c, 12, 4704
6, 110031, Pitch_bend_c, 12, 4736
6, 110032, Pitch_bend_c, 12, 4800
6, 110033, Pitch_bend_c, 12, 4832
6, 110034, Pitch_bend_c, 12, 4864
6, 110035, Pitch_bend_c, 12, 4928
6, 110036, Pitch_bend_c, 12, 4960
6, 110037, Pitch_bend_c, 12, 4992
6, 110038, Pitch_bend_c, 12, 5056
6, 110039, Pitch_bend_c, 12, 5088
6, 110040, Pitch_bend_c, 12, 5120
6, 110041, Pitch_bend_c, 12, 5184
6, 110042, Pitch_bend_c, 12, 5216
6, 110043, Pitch_bend_c, 12, 5248
6, 110044, Pitch_bend_c, 12, 5312
6, 110045, Pitch_bend_c, 12, 5344
6, 110046, Pitch_bend_c, 12, 5376
6, 110047, Pitch_bend_c, 12, 5440
6, 110048, Pitch_bend_c, 12, 5472
6, 110049, Pitch_bend_c, 12, 5504
6, 110050, Pitch_bend_c, 12, 5568
6, 110051, Pitch_bend_c, 12, 5600
6, 110052, Pitch_bend_c, 12, 5632
6, 110053, Pitch_bend_c, 12, 5696
6, 110054, Pitch_bend_c, 12, 5728
6, 110055, Pitch_bend_c, 12, 5760
6, 110056, Pitch_bend_c, 12, 5824
6, 110057, Pitch_bend_c, 12, 5856
6, 110058, Pitch_bend_c, 12, 5888
6, 110059, Pitch_bend_c, 12, 5952
6, 110060, Pitch_bend_c, 12, 5984
6, 110061, Pitch_bend_c, 12, 6016
6, 110062, Pitch_bend_c, 12, 6080
6, 110063, Pitch_bend_c, 12, 6112
6, 110064, Pitch_bend_c, 12, 6144
6, 110065, Pitch_bend_c, 12, 6208
6, 110066, Pitch_bend_c, 12, 6240
6, 110067, Pitch_bend_c, 12, 6272
6, 110068, Pitch_bend_c, 12, 6336
6, 110069, Pitch_bend_c, 12, 6368
6, 110070, Pitch_bend_c, 12, 6400
6, 110071, Pitch_bend_c, 12, 6464
6, 110072, Pitch_bend_c, 12, 6496
6, 110073, Pitch_bend_c, 12, 6528
6, 110074, Pitch_bend_c, 12, 6592
6, 110075, Pitch_bend_c, 12, 6624
6, 110076, Pitch_bend_c, 12, 6656
6, 110077, Pitch_bend_c, 12, 6720
6, 110078, Pitch_bend_c, 12, 6752
6, 110079, Pitch_bend_c, 12, 6784
6, 110080, Pitch_bend_c, 12, 6848
6, 110081, Pitch_bend_c, 12, 6880
6, 110082, Pitch_bend_c, 12, 6912
6, 110083, Pitch_bend_c, 12, 6976
6, 110084, Pitch_bend_c, 12, 7008
6, 110085, Pitch_bend_c, 12, 7040
6, 110086, Pitch_bend_c, 12, 7104
6, 110087, Pitch_bend_c, 12, 7136
6, 110088, Pitch_bend_c, 12, 7168
6, 110089, Pitch_bend_c, 12, 7232
6, 110090, Pitch_bend_c, 12, 7264
6, 110091, Pitch_bend_c, 12, 7296
6, 110092, Pitch_bend_c, 12, 7360
6, 110093, Pitch_bend_c, 12, 7392
6, 110094, Pitch_bend_c, 12, 7424
6, 110095, Pitch_bend_c, 12, 7488
6, 110096, Pitch_bend_c, 12, 7520
6, 110097, Pitch_bend_c, 12, 7552
6, 110098, Pitch_bend_c, 12, 7616
6, 110099, Pitch_bend_c, 12, 7648
6, 110100, Pitch_bend_c, 12, 7680
6, 110101, Pitch_bend_c, 12, 7744
6, 110102, Pitch_bend_c, 12, 7776
6, 110103, Pitch_bend_c, 12, 7808
6, 110104, Pitch_bend_c, 12, 7872
6, 110105, Pitch_bend_c, 12, 7904
6, 110106, Pitch_bend_c, 12, 7936
6, 110107, Pitch_bend_c, 12, 8000
6, 110108, Pitch_bend_c, 12, 8032
6, 110109, Pitch_bend_c, 12, 8064
6, 110110, Pitch_bend_c, 12, 8128
6, 110111, Pitch_bend_c, 12, 8160
6, 110112, Pitch_bend_c, 12, 8192
6, 110944, Note_on_c, 12, 54, 0
6, 110944, Note_on_c, 12, 57, 0
6, 111168, Note_on_c, 12, 56, 110
6, 111168, Note_on_c, 12, 61, 110
6, 111262, Note_on_c, 12, 56, 0
6, 111262, Note_on_c, 12, 61, 0
6, 111264, Note_on_c, 12, 52, 110
6, 111264, Note_on_c, 12, 59, 110
6, 111358, Note_on_c, 12, 52, 0
6, 111358, Note_on_c, 12, 59, 0
6, 111360, Note_on_c, 12, 52, 110
6, 111360, Note_on_c, 12, 57, 110
6, 111454, Note_on_c, 12, 52, 0
6, 111454, Note_on_c, 12, 57, 0
6, 111456, Note_on_c, 12, 54, 110
6, 111456, Note_on_c, 12, 59, 110
6, 111646, Note_on_c, 12, 54, 0
6, 111646, Note_on_c, 12, 59, 0
6, 111648, Note_on_c, 12, 54, 110
6, 111648, Note_on_c, 12, 59, 110
6, 111742, Note_on_c, 12, 54, 0
6, 111742, Note_on_c, 12, 59, 0
6, 111744, Note_on_c, 12, 56, 110
6, 111744, Note_on_c, 12, 61, 110
6, 111838, Note_on_c, 12, 56, 0
6, 111838, Note_on_c, 12, 61, 0
6, 111840, Note_on_c, 12, 52, 110
6, 111840, Note_on_c, 12, 57, 110
6, 112000, Note_on_c, 12, 52, 0
6, 112000, Note_on_c, 12, 57, 0
6, 114528, Pitch_bend_c, 12, 0
6, 114528, Note_on_c, 12, 54, 110
6, 114528, Note_on_c, 12, 57, 110
6, 114529, Pitch_bend_c, 12, 64
6, 114530, Pitch_bend_c, 12, 96
6, 114531, Pitch_bend_c, 12, 128
6, 114532, Pitch_bend_c, 12, 192
6, 114533, Pitch_bend_c, 12, 224
6, 114534, Pitch_bend_c, 12, 256
6, 114535, Pitch_bend_c, 12, 320
6, 114536, Pitch_bend_c, 12, 352
6, 114537, Pitch_bend_c, 12, 384
6, 114538, Pitch_bend_c, 12, 448
6, 114539, Pitch_bend_c, 12, 480
6, 114540, Pitch_bend_c, 12, 512
6, 114541, Pitch_bend_c, 12, 576
6, 114542, Pitch_bend_c, 12, 608
6, 114543, Pitch_bend_c, 12, 640
6, 114544, Pitch_bend_c, 12, 704
6, 114545, Pitch_bend_c, 12, 736
6, 114546, Pitch_bend_c, 12, 768
6, 114547, Pitch_bend_c, 12, 832
6, 114548, Pitch_bend_c, 12, 864
6, 114549, Pitch_bend_c, 12, 896
6, 114550, Pitch_bend_c, 12, 960
6, 114551, Pitch_bend_c, 12, 992
6, 114552, Pitch_bend_c, 12, 1024
6, 114553, Pitch_bend_c, 12, 1088
6, 114554, Pitch_bend_c, 12, 1120
6, 114555, Pitch_bend_c, 12, 1152
6, 114556, Pitch_bend_c, 12, 1216
6, 114557, Pitch_bend_c, 12, 1248
6, 114558, Pitch_bend_c, 12, 1280
6, 114559, Pitch_bend_c, 12, 1344
6, 114560, Pitch_bend_c, 12, 1376
6, 114561, Pitch_bend_c, 12, 1408
6, 114562, Pitch_bend_c, 12, 1472
6, 114563, Pitch_bend_c, 12, 1504
6, 114564, Pitch_bend_c, 12, 1536
6, 114565, Pitch_bend_c, 12, 1600
6, 114566, Pitch_bend_c, 12, 1632
6, 114567, Pitch_bend_c, 12, 1664
6, 114568, Pitch_bend_c, 12, 1728
6, 114569, Pitch_bend_c, 12, 1760
6, 114570, Pitch_bend_c, 12, 1792
6, 114571, Pitch_bend_c, 12, 1856
6, 114572, Pitch_bend_c, 12, 1888
6, 114573, Pitch_bend_c, 12, 1920
6, 114574, Pitch_bend_c, 12, 1984
6, 114575, Pitch_bend_c, 12, 2016
6, 114576, Pitch_bend_c, 12, 2048
6, 114577, Pitch_bend_c, 12, 2112
6, 114578, Pitch_bend_c, 12, 2144
6, 114579, Pitch_bend_c, 12, 2176
6, 114580, Pitch_bend_c, 12, 2240
6, 114581, Pitch_bend_c, 12, 2272
6, 114582, Pitch_bend_c, 12, 2304
6, 114583, Pitch_bend_c, 12, 2368
6, 114584, Pitch_bend_c, 12, 2400
6, 114585, Pitch_bend_c, 12, 2432
6, 114586, Pitch_bend_c, 12, 2496
6, 114587, Pitch_bend_c, 12, 2528
6, 114588, Pitch_bend_c, 12, 2560
6, 114589, Pitch_bend_c, 12, 2624
6, 114590, Pitch_bend_c, 12, 2656
6, 114591, Pitch_bend_c, 12, 2688
6, 114592, Pitch_bend_c, 12, 2752
6, 114593, Pitch_bend_c, 12, 2784
6, 114594, Pitch_bend_c, 12, 2816
6, 114595, Pitch_bend_c, 12, 2880
6, 114596, Pitch_bend_c, 12, 2912
6, 114597, Pitch_bend_c, 12, 2944
6, 114598, Pitch_bend_c, 12, 3008
6, 114599, Pitch_bend_c, 12, 3040
6, 114600, Pitch_bend_c, 12, 3072
6, 114601, Pitch_bend_c, 12, 3136
6, 114602, Pitch_bend_c, 12, 3168
6, 114603, Pitch_bend_c, 12, 3200
6, 114604, Pitch_bend_c, 12, 3264
6, 114605, Pitch_bend_c, 12, 3296
6, 114606, Pitch_bend_c, 12, 3328
6, 114607, Pitch_bend_c, 12, 3392
6, 114608, Pitch_bend_c, 12, 3424
6, 114609, Pitch_bend_c, 12, 3456
6, 114610, Pitch_bend_c, 12, 3520
6, 114611, Pitch_bend_c, 12, 3552
6, 114612, Pitch_bend_c, 12, 3584
6, 114613, Pitch_bend_c, 12, 3648
6, 114614, Pitch_bend_c, 12, 3680
6, 114615, Pitch_bend_c, 12, 3712
6, 114616, Pitch_bend_c, 12, 3776
6, 114617, Pitch_bend_c, 12, 3808
6, 114618, Pitch_bend_c, 12, 3840
6, 114619, Pitch_bend_c, 12, 3904
6, 114620, Pitch_bend_c, 12, 3936
6, 114621, Pitch_bend_c, 12, 3968
6, 114622, Note_on_c, 12, 57, 0
6, 114622, Pitch_bend_c, 12, 4032
6, 114623, Pitch_bend_c, 12, 4064
6, 114624, Pitch_bend_c, 12, 4096
6, 114624, Note_on_c, 12, 57, 110
6, 114625, Pitch_bend_c, 12, 4160
6, 114626, Pitch_bend_c, 12, 4192
6, 114627, Pitch_bend_c, 12, 4224
6, 114628, Pitch_bend_c, 12, 4288
6, 114629, Pitch_bend_c, 12, 4320
6, 114630, Pitch_bend_c, 12, 4352
6, 114631, Pitch_bend_c, 12, 4416
6, 114632, Pitch_bend_c, 12, 4448
6, 114633, Pitch_bend_c, 12, 4480
6, 114634, Pitch_bend_c, 12, 4544
6, 114635, Pitch_bend_c, 12, 4576
6, 114636, Pitch_bend_c, 12, 4608
6, 114637, Pitch_bend_c, 12, 4672
6, 114638, Pitch_bend_c, 12, 4704
6, 114639, Pitch_bend_c, 12, 4736
6, 114640, Pitch_bend_c, 12, 4800
6, 114641, Pitch_bend_c, 12, 4832
6, 114642, Pitch_bend_c, 12, 4864
6, 114643, Pitch_bend_c, 12, 4928
6, 114644, Pitch_bend_c, 12, 4960
6, 114645, Pitch_bend_c, 12, 4992
6, 114646, Pitch_bend_c, 12, 5056
6, 114647, Pitch_bend_c, 12, 5088
6, 114648, Pitch_bend_c, 12, 5120
6, 114649, Pitch_bend_c, 12, 5184
6, 114650, Pitch_bend_c, 12, 5216
6, 114651, Pitch_bend_c, 12, 5248
6, 114652, Pitch_bend_c, 12, 5312
6, 114653, Pitch_bend_c, 12, 5344
6, 114654, Pitch_bend_c, 12, 5376
6, 114655, Pitch_bend_c, 12, 5440
6, 114656, Pitch_bend_c, 12, 5472
6, 114657, Pitch_bend_c, 12, 5504
6, 114658, Pitch_bend_c, 12, 5568
6, 114659, Pitch_bend_c, 12, 5600
6, 114660, Pitch_bend_c, 12, 5632
6, 114661, Pitch_bend_c, 12, 5696
6, 114662, Pitch_bend_c, 12, 5728
6, 114663, Pitch_bend_c, 12, 5760
6, 114664, Pitch_bend_c, 12, 5824
6, 114665, Pitch_bend_c, 12, 5856
6, 114666, Pitch_bend_c, 12, 5888
6, 114667, Pitch_bend_c, 12, 5952
6, 114668, Pitch_bend_c, 12, 5984
6, 114669, Pitch_bend_c, 12, 6016
6, 114670, Pitch_bend_c, 12, 6080
6, 114671, Pitch_bend_c, 12, 6112
6, 114672, Pitch_bend_c, 12, 6144
6, 114673, Pitch_bend_c, 12, 6208
6, 114674, Pitch_bend_c, 12, 6240
6, 114675, Pitch_bend_c, 12, 6272
6, 114676, Pitch_bend_c, 12, 6336
6, 114677, Pitch_bend_c, 12, 6368
6, 114678, Pitch_bend_c, 12, 6400
6, 114679, Pitch_bend_c, 12, 6464
6, 114680, Pitch_bend_c, 12, 6496
6, 114681, Pitch_bend_c, 12, 6528
6, 114682, Pitch_bend_c, 12, 6592
6, 114683, Pitch_bend_c, 12, 6624
6, 114684, Pitch_bend_c, 12, 6656
6, 114685, Pitch_bend_c, 12, 6720
6, 114686, Pitch_bend_c, 12, 6752
6, 114687, Pitch_bend_c, 12, 6784
6, 114688, Pitch_bend_c, 12, 6848
6, 114689, Pitch_bend_c, 12, 6880
6, 114690, Pitch_bend_c, 12, 6912
6, 114691, Pitch_bend_c, 12, 6976
6, 114692, Pitch_bend_c, 12, 7008
6, 114693, Pitch_bend_c, 12, 7040
6, 114694, Pitch_bend_c, 12, 7104
6, 114695, Pitch_bend_c, 12, 7136
6, 114696, Pitch_bend_c, 12, 7168
6, 114697, Pitch_bend_c, 12, 7232
6, 114698, Pitch_bend_c, 12, 7264
6, 114699, Pitch_bend_c, 12, 7296
6, 114700, Pitch_bend_c, 12, 7360
6, 114701, Pitch_bend_c, 12, 7392
6, 114702, Pitch_bend_c, 12, 7424
6, 114703, Pitch_bend_c, 12, 7488
6, 114704, Pitch_bend_c, 12, 7520
6, 114705, Pitch_bend_c, 12, 7552
6, 114706, Pitch_bend_c, 12, 7616
6, 114707, Pitch_bend_c, 12, 7648
6, 114708, Pitch_bend_c, 12, 7680
6, 114709, Pitch_bend_c, 12, 7744
6, 114710, Pitch_bend_c, 12, 7776
6, 114711, Pitch_bend_c, 12, 7808
6, 114712, Pitch_bend_c, 12, 7872
6, 114713, Pitch_bend_c, 12, 7904
6, 114714, Pitch_bend_c, 12, 7936
6, 114715, Pitch_bend_c, 12, 8000
6, 114716, Pitch_bend_c, 12, 8032
6, 114717, Pitch_bend_c, 12, 8064
6, 114718, Pitch_bend_c, 12, 8128
6, 114719, Pitch_bend_c, 12, 8160
6, 114720, Pitch_bend_c, 12, 8192
6, 115552, Note_on_c, 12, 54, 0
6, 115552, Note_on_c, 12, 57, 0
6, 115776, Note_on_c, 12, 56, 110
6, 115776, Note_on_c, 12, 61, 110
6, 115870, Note_on_c, 12, 56, 0
6, 115870, Note_on_c, 12, 61, 0
6, 115872, Note_on_c, 12, 52, 110
6, 115872, Note_on_c, 12, 59, 110
6, 115966, Note_on_c, 12, 52, 0
6, 115966, Note_on_c, 12, 59, 0
6, 115968, Note_on_c, 12, 52, 110
6, 115968, Note_on_c, 12, 57, 110
6, 116062, Note_on_c, 12, 52, 0
6, 116062, Note_on_c, 12, 57, 0
6, 116064, Note_on_c, 12, 54, 110
6, 116064, Note_on_c, 12, 59, 110
6, 116254, Note_on_c, 12, 54, 0
6, 116254, Note_on_c, 12, 59, 0
6, 116256, Note_on_c, 12, 54, 110
6, 116256, Note_on_c, 12, 59, 110
6, 116350, Note_on_c, 12, 54, 0
6, 116350, Note_on_c, 12, 59, 0
6, 116352, Note_on_c, 12, 56, 110
6, 116352, Note_on_c, 12, 61, 110
6, 116446, Note_on_c, 12, 56, 0
6, 116446, Note_on_c, 12, 61, 0
6, 116448, Note_on_c, 12, 52, 110
6, 116448, Note_on_c, 12, 57, 110
6, 116608, Note_on_c, 12, 52, 0
6, 116608, Note_on_c, 12, 57, 0
6, 119136, Pitch_bend_c, 12, 0
6, 119136, Note_on_c, 12, 54, 110
6, 119136, Note_on_c, 12, 57, 110
6, 119137, Pitch_bend_c, 12, 64
6, 119138, Pitch_bend_c, 12, 96
6, 119139, Pitch_bend_c, 12, 128
6, 119140, Pitch_bend_c, 12, 192
6, 119141, Pitch_bend_c, 12, 224
6, 119142, Pitch_bend_c, 12, 256
6, 119143, Pitch_bend_c, 12, 320
6, 119144, Pitch_bend_c, 12, 352
6, 119145, Pitch_bend_c, 12, 384
6, 119146, Pitch_bend_c, 12, 448
6, 119147, Pitch_bend_c, 12, 480
6, 119148, Pitch_bend_c, 12, 512
6, 119149, Pitch_bend_c, 12, 576
6, 119150, Pitch_bend_c, 12, 608
6, 119151, Pitch_bend_c, 12, 640
6, 119152, Pitch_bend_c, 12, 704
6, 119153, Pitch_bend_c, 12, 736
6, 119154, Pitch_bend_c, 12, 768
6, 119155, Pitch_bend_c, 12, 832
6, 119156, Pitch_bend_c, 12, 864
6, 119157, Pitch_bend_c, 12, 896
6, 119158, Pitch_bend_c, 12, 960
6, 119159, Pitch_bend_c, 12, 992
6, 119160, Pitch_bend_c, 12, 1024
6, 119161, Pitch_bend_c, 12, 1088
6, 119162, Pitch_bend_c, 12, 1120
6, 119163, Pitch_bend_c, 12, 1152
6, 119164, Pitch_bend_c, 12, 1216
6, 119165, Pitch_bend_c, 12, 1248
6, 119166, Pitch_bend_c, 12, 1280
6, 119167, Pitch_bend_c, 12, 1344
6, 119168, Pitch_bend_c, 12, 1376
6, 119169, Pitch_bend_c, 12, 1408
6, 119170, Pitch_bend_c, 12, 1472
6, 119171, Pitch_bend_c, 12, 1504
6, 119172, Pitch_bend_c, 12, 1536
6, 119173, Pitch_bend_c, 12, 1600
6, 119174, Pitch_bend_c, 12, 1632
6, 119175, Pitch_bend_c, 12, 1664
6, 119176, Pitch_bend_c, 12, 1728
6, 119177, Pitch_bend_c, 12, 1760
6, 119178, Pitch_bend_c, 12, 1792
6, 119179, Pitch_bend_c, 12, 1856
6, 119180, Pitch_bend_c, 12, 1888
6, 119181, Pitch_bend_c, 12, 1920
6, 119182, Pitch_bend_c, 12, 1984
6, 119183, Pitch_bend_c, 12, 2016
6, 119184, Pitch_bend_c, 12, 2048
6, 119185, Pitch_bend_c, 12, 2112
6, 119186, Pitch_bend_c, 12, 2144
6, 119187, Pitch_bend_c, 12, 2176
6, 119188, Pitch_bend_c, 12, 2240
6, 119189, Pitch_bend_c, 12, 2272
6, 119190, Pitch_bend_c, 12, 2304
6, 119191, Pitch_bend_c, 12, 2368
6, 119192, Pitch_bend_c, 12, 2400
6, 119193, Pitch_bend_c, 12, 2432
6, 119194, Pitch_bend_c, 12, 2496
6, 119195, Pitch_bend_c, 12, 2528
6, 119196, Pitch_bend_c, 12, 2560
6, 119197, Pitch_bend_c, 12, 2624
6, 119198, Pitch_bend_c, 12, 2656
6, 119199, Pitch_bend_c, 12, 2688
6, 119200, Pitch_bend_c, 12, 2752
6, 119201, Pitch_bend_c, 12, 2784
6, 119202, Pitch_bend_c, 12, 2816
6, 119203, Pitch_bend_c, 12, 2880
6, 119204, Pitch_bend_c, 12, 2912
6, 119205, Pitch_bend_c, 12, 2944
6, 119206, Pitch_bend_c, 12, 3008
6, 119207, Pitch_bend_c, 12, 3040
6, 119208, Pitch_bend_c, 12, 3072
6, 119209, Pitch_bend_c, 12, 3136
6, 119210, Pitch_bend_c, 12, 3168
6, 119211, Pitch_bend_c, 12, 3200
6, 119212, Pitch_bend_c, 12, 3264
6, 119213, Pitch_bend_c, 12, 3296
6, 119214, Pitch_bend_c, 12, 3328
6, 119215, Pitch_bend_c, 12, 3392
6, 119216, Pitch_bend_c, 12, 3424
6, 119217, Pitch_bend_c, 12, 3456
6, 119218, Pitch_bend_c, 12, 3520
6, 119219, Pitch_bend_c, 12, 3552
6, 119220, Pitch_bend_c, 12, 3584
6, 119221, Pitch_bend_c, 12, 3648
6, 119222, Pitch_bend_c, 12, 3680
6, 119223, Pitch_bend_c, 12, 3712
6, 119224, Pitch_bend_c, 12, 3776
6, 119225, Pitch_bend_c, 12, 3808
6, 119226, Pitch_bend_c, 12, 3840
6, 119227, Pitch_bend_c, 12, 3904
6, 119228, Pitch_bend_c, 12, 3936
6, 119229, Pitch_bend_c, 12, 3968
6, 119230, Note_on_c, 12, 57, 0
6, 119230, Pitch_bend_c, 12, 4032
6, 119231, Pitch_bend_c, 12, 4064
6, 119232, Pitch_bend_c, 12, 4096
6, 119232, Note_on_c, 12, 57, 110
6, 119233, Pitch_bend_c, 12, 4160
6, 119234, Pitch_bend_c, 12, 4192
6, 119235, Pitch_bend_c, 12, 4224
6, 119236, Pitch_bend_c, 12, 4288
6, 119237, Pitch_bend_c, 12, 4320
6, 119238, Pitch_bend_c, 12, 4352
6, 119239, Pitch_bend_c, 12, 4416
6, 119240, Pitch_bend_c, 12, 4448
6, 119241, Pitch_bend_c, 12, 4480
6, 119242, Pitch_bend_c, 12, 4544
6, 119243, Pitch_bend_c, 12, 4576
6, 119244, Pitch_bend_c, 12, 4608
6, 119245, Pitch_bend_c, 12, 4672
6, 119246, Pitch_bend_c, 12, 4704
6, 119247, Pitch_bend_c, 12, 4736
6, 119248, Pitch_bend_c, 12, 4800
6, 119249, Pitch_bend_c, 12, 4832
6, 119250, Pitch_bend_c, 12, 4864
6, 119251, Pitch_bend_c, 12, 4928
6, 119252, Pitch_bend_c, 12, 4960
6, 119253, Pitch_bend_c, 12, 4992
6, 119254, Pitch_bend_c, 12, 5056
6, 119255, Pitch_bend_c, 12, 5088
6, 119256, Pitch_bend_c, 12, 5120
6, 119257, Pitch_bend_c, 12, 5184
6, 119258, Pitch_bend_c, 12, 5216
6, 119259, Pitch_bend_c, 12, 5248
6, 119260, Pitch_bend_c, 12, 5312
6, 119261, Pitch_bend_c, 12, 5344
6, 119262, Pitch_bend_c, 12, 5376
6, 119263, Pitch_bend_c, 12, 5440
6, 119264, Pitch_bend_c, 12, 5472
6, 119265, Pitch_bend_c, 12, 5504
6, 119266, Pitch_bend_c, 12, 5568
6, 119267, Pitch_bend_c, 12, 5600
6, 119268, Pitch_bend_c, 12, 5632
6, 119269, Pitch_bend_c, 12, 5696
6, 119270, Pitch_bend_c, 12, 5728
6, 119271, Pitch_bend_c, 12, 5760
6, 119272, Pitch_bend_c, 12, 5824
6, 119273, Pitch_bend_c, 12, 5856
6, 119274, Pitch_bend_c, 12, 5888
6, 119275, Pitch_bend_c, 12, 5952
6, 119276, Pitch_bend_c, 12, 5984
6, 119277, Pitch_bend_c, 12, 6016
6, 119278, Pitch_bend_c, 12, 6080
6, 119279, Pitch_bend_c, 12, 6112
6, 119280, Pitch_bend_c, 12, 6144
6, 119281, Pitch_bend_c, 12, 6208
6, 119282, Pitch_bend_c, 12, 6240
6, 119283, Pitch_bend_c, 12, 6272
6, 119284, Pitch_bend_c, 12, 6336
6, 119285, Pitch_bend_c, 12, 6368
6, 119286, Pitch_bend_c, 12, 6400
6, 119287, Pitch_bend_c, 12, 6464
6, 119288, Pitch_bend_c, 12, 6496
6, 119289, Pitch_bend_c, 12, 6528
6, 119290, Pitch_bend_c, 12, 6592
6, 119291, Pitch_bend_c, 12, 6624
6, 119292, Pitch_bend_c, 12, 6656
6, 119293, Pitch_bend_c, 12, 6720
6, 119294, Pitch_bend_c, 12, 6752
6, 119295, Pitch_bend_c, 12, 6784
6, 119296, Pitch_bend_c, 12, 6848
6, 119297, Pitch_bend_c, 12, 6880
6, 119298, Pitch_bend_c, 12, 6912
6, 119299, Pitch_bend_c, 12, 6976
6, 119300, Pitch_bend_c, 12, 7008
6, 119301, Pitch_bend_c, 12, 7040
6, 119302, Pitch_bend_c, 12, 7104
6, 119303, Pitch_bend_c, 12, 7136
6, 119304, Pitch_bend_c, 12, 7168
6, 119305, Pitch_bend_c, 12, 7232
6, 119306, Pitch_bend_c, 12, 7264
6, 119307, Pitch_bend_c, 12, 7296
6, 119308, Pitch_bend_c, 12, 7360
6, 119309, Pitch_bend_c, 12, 7392
6, 119310, Pitch_bend_c, 12, 7424
6, 119311, Pitch_bend_c, 12, 7488
6, 119312, Pitch_bend_c, 12, 7520
6, 119313, Pitch_bend_c, 12, 7552
6, 119314, Pitch_bend_c, 12, 7616
6, 119315, Pitch_bend_c, 12, 7648
6, 119316, Pitch_bend_c, 12, 7680
6, 119317, Pitch_bend_c, 12, 7744
6, 119318, Pitch_bend_c, 12, 7776
6, 119319, Pitch_bend_c, 12, 7808
6, 119320, Pitch_bend_c, 12, 7872
6, 119321, Pitch_bend_c, 12, 7904
6, 119322, Pitch_bend_c, 12, 7936
6, 119323, Pitch_bend_c, 12, 8000
6, 119324, Pitch_bend_c, 12, 8032
6, 119325, Pitch_bend_c, 12, 8064
6, 119326, Pitch_bend_c, 12, 8128
6, 119327, Pitch_bend_c, 12, 8160
6, 119328, Pitch_bend_c, 12, 8192
6, 120160, Note_on_c, 12, 54, 0
6, 120160, Note_on_c, 12, 57, 0
6, 120384, Note_on_c, 12, 56, 110
6, 120384, Note_on_c, 12, 61, 110
6, 120478, Note_on_c, 12, 56, 0
6, 120478, Note_on_c, 12, 61, 0
6, 120480, Note_on_c, 12, 52, 110
6, 120480, Note_on_c, 12, 59, 110
6, 120574, Note_on_c, 12, 52, 0
6, 120574, Note_on_c, 12, 59, 0
6, 120576, Note_on_c, 12, 52, 110
6, 120576, Note_on_c, 12, 57, 110
6, 120670, Note_on_c, 12, 52, 0
6, 120670, Note_on_c, 12, 57, 0
6, 120672, Note_on_c, 12, 54, 110
6, 120672, Note_on_c, 12, 59, 110
6, 120862, Note_on_c, 12, 54, 0
6, 120862, Note_on_c, 12, 59, 0
6, 120864, Note_on_c, 12, 54, 110
6, 120864, Note_on_c, 12, 59, 110
6, 120958, Note_on_c, 12, 54, 0
6, 120958, Note_on_c, 12, 59, 0
6, 120960, Note_on_c, 12, 56, 110
6, 120960, Note_on_c, 12, 61, 110
6, 121054, Note_on_c, 12, 56, 0
6, 121054, Note_on_c, 12, 61, 0
6, 121056, Note_on_c, 12, 52, 110
6, 121056, Note_on_c, 12, 57, 110
6, 121216, Note_on_c, 12, 52, 0
6, 121216, Note_on_c, 12, 57, 0
6, 121536, Control_c, 12, 7, 127
6, 121559, Control_c, 12, 7, 126
6, 121582, Control_c, 12, 7, 125
6, 121605, Control_c, 12, 7, 124
6, 121629, Control_c, 12, 7, 123
6, 121652, Control_c, 12, 7, 122
6, 121675, Control_c, 12, 7, 121
6, 121698, Control_c, 12, 7, 120
6, 121722, Control_c, 12, 7, 119
6, 121745, Control_c, 12, 7, 118
6, 121768, Control_c, 12, 7, 117
6, 121792, Control_c, 12, 7, 116
6, 121815, Control_c, 12, 7, 115
6, 121838, Control_c, 12, 7, 114
6, 121861, Control_c, 12, 7, 113
6, 121885, Control_c, 12, 7, 112
6, 121908, Control_c, 12, 7, 111
6, 121931, Control_c, 12, 7, 110
6, 121954, Control_c, 12, 7, 109
6, 121978, Control_c, 12, 7, 108
6, 122001, Control_c, 12, 7, 107
6, 122024, Control_c, 12, 7, 106
6, 122048, Control_c, 12, 7, 105
6, 122071, Control_c, 12, 7, 104
6, 122094, Control_c, 12, 7, 103
6, 122117, Control_c, 12, 7, 102
6, 122141, Control_c, 12, 7, 101
6, 122164, Control_c, 12, 7, 100
6, 122187, Control_c, 12, 7, 99
6, 122210, Control_c, 12, 7, 98
6, 122234, Control_c, 12, 7, 97
6, 122257, Control_c, 12, 7, 96
6, 122280, Control_c, 12, 7, 95
6, 122304, Control_c, 12, 7, 94
6, 122304, Control_c, 12, 7, 94
6, 122358, Control_c, 12, 7, 93
6, 122413, Control_c, 12, 7, 92
6, 122468, Control_c, 12, 7, 91
6, 122523, Control_c, 12, 7, 90
6, 122578, Control_c, 12, 7, 89
6, 122633, Control_c, 12, 7, 88
6, 122688, Control_c, 12, 7, 87
6, 122742, Control_c, 12, 7, 86
6, 122797, Control_c, 12, 7, 85
6, 122852, Control_c, 12, 7, 84
6, 122907, Control_c, 12, 7, 83
6, 122962, Control_c, 12, 7, 82
6, 123017, Control_c, 12, 7, 81
6, 123072, Control_c, 12, 7, 80
6, 123072, Control_c, 12, 7, 80
6, 123097, Control_c, 12, 7, 79
6, 123123, Control_c, 12, 7, 78
6, 123148, Control_c, 12, 7, 77
6, 123174, Control_c, 12, 7, 76
6, 123200, Control_c, 12, 7, 75
6, 123225, Control_c, 12, 7, 74
6, 123251, Control_c, 12, 7, 73
6, 123276, Control_c, 12, 7, 72
6, 123302, Control_c, 12, 7, 71
6, 123328, Control_c, 12, 7, 70
6, 123353, Control_c, 12, 7, 69
6, 123379, Control_c, 12, 7, 68
6, 123404, Control_c, 12, 7, 67
6, 123430, Control_c, 12, 7, 66
6, 123456, Control_c, 12, 7, 65
6, 123481, Control_c, 12, 7, 64
6, 123507, Control_c, 12, 7, 63
6, 123532, Control_c, 12, 7, 62
6, 123558, Control_c, 12, 7, 61
6, 123584, Control_c, 12, 7, 60
6, 123609, Control_c, 12, 7, 59
6, 123635, Control_c, 12, 7, 58
6, 123660, Control_c, 12, 7, 57
6, 123686, Control_c, 12, 7, 56
6, 123712, Control_c, 12, 7, 55
6, 123737, Control_c, 12, 7, 54
6, 123744, Pitch_bend_c, 12, 0
6, 123744, Note_on_c, 12, 54, 110
6, 123744, Note_on_c, 12, 57, 110
6, 123745, Pitch_bend_c, 12, 64
6, 123746, Pitch_bend_c, 12, 96
6, 123747, Pitch_bend_c, 12, 128
6, 123748, Pitch_bend_c, 12, 192
6, 123749, Pitch_bend_c, 12, 224
6, 123750, Pitch_bend_c, 12, 256
6, 123751, Pitch_bend_c, 12, 320
6, 123752, Pitch_bend_c, 12, 352
6, 123753, Pitch_bend_c, 12, 384
6, 123754, Pitch_bend_c, 12, 448
6, 123755, Pitch_bend_c, 12, 480
6, 123756, Pitch_bend_c, 12, 512
6, 123757, Pitch_bend_c, 12, 576
6, 123758, Pitch_bend_c, 12, 608
6, 123759, Pitch_bend_c, 12, 640
6, 123760, Pitch_bend_c, 12, 704
6, 123761, Pitch_bend_c, 12, 736
6, 123762, Pitch_bend_c, 12, 768
6, 123763, Control_c, 12, 7, 53
6, 123763, Pitch_bend_c, 12, 832
6, 123764, Pitch_bend_c, 12, 864
6, 123765, Pitch_bend_c, 12, 896
6, 123766, Pitch_bend_c, 12, 960
6, 123767, Pitch_bend_c, 12, 992
6, 123768, Pitch_bend_c, 12, 1024
6, 123769, Pitch_bend_c, 12, 1088
6, 123770, Pitch_bend_c, 12, 1120
6, 123771, Pitch_bend_c, 12, 1152
6, 123772, Pitch_bend_c, 12, 1216
6, 123773, Pitch_bend_c, 12, 1248
6, 123774, Pitch_bend_c, 12, 1280
6, 123775, Pitch_bend_c, 12, 1344
6, 123776, Pitch_bend_c, 12, 1376
6, 123777, Pitch_bend_c, 12, 1408
6, 123778, Pitch_bend_c, 12, 1472
6, 123779, Pitch_bend_c, 12, 1504
6, 123780, Pitch_bend_c, 12, 1536
6, 123781, Pitch_bend_c, 12, 1600
6, 123782, Pitch_bend_c, 12, 1632
6, 123783, Pitch_bend_c, 12, 1664
6, 123784, Pitch_bend_c, 12, 1728
6, 123785, Pitch_bend_c, 12, 1760
6, 123786, Pitch_bend_c, 12, 1792
6, 123787, Pitch_bend_c, 12, 1856
6, 123788, Control_c, 12, 7, 52
6, 123788, Pitch_bend_c, 12, 1888
6, 123789, Pitch_bend_c, 12, 1920
6, 123790, Pitch_bend_c, 12, 1984
6, 123791, Pitch_bend_c, 12, 2016
6, 123792, Pitch_bend_c, 12, 2048
6, 123793, Pitch_bend_c, 12, 2112
6, 123794, Pitch_bend_c, 12, 2144
6, 123795, Pitch_bend_c, 12, 2176
6, 123796, Pitch_bend_c, 12, 2240
6, 123797, Pitch_bend_c, 12, 2272
6, 123798, Pitch_bend_c, 12, 2304
6, 123799, Pitch_bend_c, 12, 2368
6, 123800, Pitch_bend_c, 12, 2400
6, 123801, Pitch_bend_c, 12, 2432
6, 123802, Pitch_bend_c, 12, 2496
6, 123803, Pitch_bend_c, 12, 2528
6, 123804, Pitch_bend_c, 12, 2560
6, 123805, Pitch_bend_c, 12, 2624
6, 123806, Pitch_bend_c, 12, 2656
6, 123807, Pitch_bend_c, 12, 2688
6, 123808, Pitch_bend_c, 12, 2752
6, 123809, Pitch_bend_c, 12, 2784
6, 123810, Pitch_bend_c, 12, 2816
6, 123811, Pitch_bend_c, 12, 2880
6, 123812, Pitch_bend_c, 12, 2912
6, 123813, Pitch_bend_c, 12, 2944
6, 123814, Control_c, 12, 7, 51
6, 123814, Pitch_bend_c, 12, 3008
6, 123815, Pitch_bend_c, 12, 3040
6, 123816, Pitch_bend_c, 12, 3072
6, 123817, Pitch_bend_c, 12, 3136
6, 123818, Pitch_bend_c, 12, 3168
6, 123819, Pitch_bend_c, 12, 3200
6, 123820, Pitch_bend_c, 12, 3264
6, 123821, Pitch_bend_c, 12, 3296
6, 123822, Pitch_bend_c, 12, 3328
6, 123823, Pitch_bend_c, 12, 3392
6, 123824, Pitch_bend_c, 12, 3424
6, 123825, Pitch_bend_c, 12, 3456
6, 123826, Pitch_bend_c, 12, 3520
6, 123827, Pitch_bend_c, 12, 3552
6, 123828, Pitch_bend_c, 12, 3584
6, 123829, Pitch_bend_c, 12, 3648
6, 123830, Pitch_bend_c, 12, 3680
6, 123831, Pitch_bend_c, 12, 3712
6, 123832, Pitch_bend_c, 12, 3776
6, 123833, Pitch_bend_c, 12, 3808
6, 123834, Pitch_bend_c, 12, 3840
6, 123835, Pitch_bend_c, 12, 3904
6, 123836, Pitch_bend_c, 12, 3936
6, 123837, Pitch_bend_c, 12, 3968
6, 123838, Note_on_c, 12, 57, 0
6, 123838, Pitch_bend_c, 12, 4032
6, 123839, Pitch_bend_c, 12, 4064
6, 123840, Control_c, 12, 7, 50
6, 123840, Pitch_bend_c, 12, 4096
6, 123840, Control_c, 12, 7, 50
6, 123840, Note_on_c, 12, 57, 110
6, 123841, Pitch_bend_c, 12, 4160
6, 123842, Pitch_bend_c, 12, 4192
6, 123843, Pitch_bend_c, 12, 4224
6, 123844, Pitch_bend_c, 12, 4288
6, 123845, Pitch_bend_c, 12, 4320
6, 123846, Pitch_bend_c, 12, 4352
6, 123847, Pitch_bend_c, 12, 4416
6, 123848, Pitch_bend_c, 12, 4448
6, 123849, Pitch_bend_c, 12, 4480
6, 123850, Pitch_bend_c, 12, 4544
6, 123851, Pitch_bend_c, 12, 4576
6, 123852, Pitch_bend_c, 12, 4608
6, 123853, Pitch_bend_c, 12, 4672
6, 123854, Pitch_bend_c, 12, 4704
6, 123855, Pitch_bend_c, 12, 4736
6, 123856, Pitch_bend_c, 12, 4800
6, 123857, Pitch_bend_c, 12, 4832
6, 123858, Pitch_bend_c, 12, 4864
6, 123859, Pitch_bend_c, 12, 4928
6, 123860, Pitch_bend_c, 12, 4960
6, 123861, Pitch_bend_c, 12, 4992
6, 123862, Pitch_bend_c, 12, 5056
6, 123863, Pitch_bend_c, 12, 5088
6, 123864, Pitch_bend_c, 12, 5120
6, 123865, Pitch_bend_c, 12, 5184
6, 123866, Pitch_bend_c, 12, 5216
6, 123867, Pitch_bend_c, 12, 5248
6, 123868, Pitch_bend_c, 12, 5312
6, 123869, Pitch_bend_c, 12, 5344
6, 123870, Pitch_bend_c, 12, 5376
6, 123871, Pitch_bend_c, 12, 5440
6, 123872, Pitch_bend_c, 12, 5472
6, 123873, Pitch_bend_c, 12, 5504
6, 123874, Pitch_bend_c, 12, 5568
6, 123875, Pitch_bend_c, 12, 5600
6, 123876, Pitch_bend_c, 12, 5632
6, 123877, Pitch_bend_c, 12, 5696
6, 123878, Pitch_bend_c, 12, 5728
6, 123878, Control_c, 12, 7, 49
6, 123879, Pitch_bend_c, 12, 5760
6, 123880, Pitch_bend_c, 12, 5824
6, 123881, Pitch_bend_c, 12, 5856
6, 123882, Pitch_bend_c, 12, 5888
6, 123883, Pitch_bend_c, 12, 5952
6, 123884, Pitch_bend_c, 12, 5984
6, 123885, Pitch_bend_c, 12, 6016
6, 123886, Pitch_bend_c, 12, 6080
6, 123887, Pitch_bend_c, 12, 6112
6, 123888, Pitch_bend_c, 12, 6144
6, 123889, Pitch_bend_c, 12, 6208
6, 123890, Pitch_bend_c, 12, 6240
6, 123891, Pitch_bend_c, 12, 6272
6, 123892, Pitch_bend_c, 12, 6336
6, 123893, Pitch_bend_c, 12, 6368
6, 123894, Pitch_bend_c, 12, 6400
6, 123895, Pitch_bend_c, 12, 6464
6, 123896, Pitch_bend_c, 12, 6496
6, 123897, Pitch_bend_c, 12, 6528
6, 123898, Pitch_bend_c, 12, 6592
6, 123899, Pitch_bend_c, 12, 6624
6, 123900, Pitch_bend_c, 12, 6656
6, 123901, Pitch_bend_c, 12, 6720
6, 123902, Pitch_bend_c, 12, 6752
6, 123903, Pitch_bend_c, 12, 6784
6, 123904, Pitch_bend_c, 12, 6848
6, 123905, Pitch_bend_c, 12, 6880
6, 123906, Pitch_bend_c, 12, 6912
6, 123907, Pitch_bend_c, 12, 6976
6, 123908, Pitch_bend_c, 12, 7008
6, 123909, Pitch_bend_c, 12, 7040
6, 123910, Pitch_bend_c, 12, 7104
6, 123911, Pitch_bend_c, 12, 7136
6, 123912, Pitch_bend_c, 12, 7168
6, 123913, Pitch_bend_c, 12, 7232
6, 123914, Pitch_bend_c, 12, 7264
6, 123915, Pitch_bend_c, 12, 7296
6, 123916, Pitch_bend_c, 12, 7360
6, 123916, Control_c, 12, 7, 48
6, 123917, Pitch_bend_c, 12, 7392
6, 123918, Pitch_bend_c, 12, 7424
6, 123919, Pitch_bend_c, 12, 7488
6, 123920, Pitch_bend_c, 12, 7520
6, 123921, Pitch_bend_c, 12, 7552
6, 123922, Pitch_bend_c, 12, 7616
6, 123923, Pitch_bend_c, 12, 7648
6, 123924, Pitch_bend_c, 12, 7680
6, 123925, Pitch_bend_c, 12, 7744
6, 123926, Pitch_bend_c, 12, 7776
6, 123927, Pitch_bend_c, 12, 7808
6, 123928, Pitch_bend_c, 12, 7872
6, 123929, Pitch_bend_c, 12, 7904
6, 123930, Pitch_bend_c, 12, 7936
6, 123931, Pitch_bend_c, 12, 8000
6, 123932, Pitch_bend_c, 12, 8032
6, 123933, Pitch_bend_c, 12, 8064
6, 123934, Pitch_bend_c, 12, 8128
6, 123935, Pitch_bend_c, 12, 8160
6, 123936, Pitch_bend_c, 12, 8192
6, 123955, Control_c, 12, 7, 47
6, 123993, Control_c, 12, 7, 46
6, 124032, Control_c, 12, 7, 45
6, 124070, Control_c, 12, 7, 44
6, 124108, Control_c, 12, 7, 43
6, 124147, Control_c, 12, 7, 42
6, 124185, Control_c, 12, 7, 41
6, 124224, Control_c, 12, 7, 40
6, 124262, Control_c, 12, 7, 39
6, 124300, Control_c, 12, 7, 38
6, 124339, Control_c, 12, 7, 37
6, 124377, Control_c, 12, 7, 36
6, 124416, Control_c, 12, 7, 35
6, 124454, Control_c, 12, 7, 34
6, 124492, Control_c, 12, 7, 33
6, 124531, Control_c, 12, 7, 32
6, 124569, Control_c, 12, 7, 31
6, 124608, Control_c, 12, 7, 30
6, 124608, Control_c, 12, 7, 30
6, 124650, Control_c, 12, 7, 29
6, 124693, Control_c, 12, 7, 28
6, 124736, Control_c, 12, 7, 27
6, 124768, Note_on_c, 12, 54, 0
6, 124768, Note_on_c, 12, 57, 0
6, 124778, Control_c, 12, 7, 26
6, 124821, Control_c, 12, 7, 25
6, 124864, Control_c, 12, 7, 24
6, 124906, Control_c, 12, 7, 23
6, 124949, Control_c, 12, 7, 22
6, 124992, Control_c, 12, 7, 21
6, 124992, Note_on_c, 12, 56, 110
6, 124992, Note_on_c, 12, 61, 110
6, 125034, Control_c, 12, 7, 20
6, 125077, Control_c, 12, 7, 19
6, 125086, Note_on_c, 12, 56, 0
6, 125086, Note_on_c, 12, 61, 0
6, 125088, Note_on_c, 12, 52, 110
6, 125088, Note_on_c, 12, 59, 110
6, 125120, Control_c, 12, 7, 18
6, 125162, Control_c, 12, 7, 17
6, 125182, Note_on_c, 12, 52, 0
6, 125182, Note_on_c, 12, 59, 0
6, 125184, Note_on_c, 12, 52, 110
6, 125184, Note_on_c, 12, 57, 110
6, 125205, Control_c, 12, 7, 16
6, 125248, Control_c, 12, 7, 15
6, 125278, Note_on_c, 12, 52, 0
6, 125278, Note_on_c, 12, 57, 0
6, 125280, Note_on_c, 12, 54, 110
6, 125280, Note_on_c, 12, 59, 110
6, 125290, Control_c, 12, 7, 14
6, 125333, Control_c, 12, 7, 13
6, 125376, Control_c, 12, 7, 12
6, 125376, Control_c, 12, 7, 12
6, 125440, Control_c, 12, 7, 11
6, 125470, Note_on_c, 12, 54, 0
6, 125470, Note_on_c, 12, 59, 0
6, 125472, Note_on_c, 12, 54, 110
6, 125472, Note_on_c, 12, 59, 110
6, 125504, Control_c, 12, 7, 10
6, 125566, Note_on_c, 12, 54, 0
6, 125566, Note_on_c, 12, 59, 0
6, 125568, Control_c, 12, 7, 9
6, 125568, Note_on_c, 12, 56, 110
6, 125568, Note_on_c, 12, 61, 110
6, 125632, Control_c, 12, 7, 8
6, 125662, Note_on_c, 12, 56, 0
6, 125662, Note_on_c, 12, 61, 0
6, 125664, Note_on_c, 12, 52, 110
6, 125664, Note_on_c, 12, 57, 110
6, 125696, Control_c, 12, 7, 7
6, 125760, Control_c, 12, 7, 6
6, 125824, Note_on_c, 12, 52, 0
6, 125824, Note_on_c, 12, 57, 0
6, 125824, Control_c, 12, 7, 5
6, 125888, Control_c, 12, 7, 4
6, 125952, Control_c, 12, 7, 3
6, 126016, Control_c, 12, 7, 2
6, 126080, Control_c, 12, 7, 1
6, 126144, Control_c, 12, 7, 0
6, 126144, End_track
7, 0, Start_track
7, 0, MIDI_port, 0
7, 0, Title_t, "Staff-6"
7, 0, Program_c, 13, 30
7, 0, Control_c, 13, 7, 127
7, 0, Control_c, 13, 10, 64
7, 5568, Note_on_c, 13, 59, 110
7, 5568, Note_on_c, 13, 63, 110
7, 5568, Note_on_c, 13, 66, 110
7, 5662, Note_on_c, 13, 59, 0
7, 5662, Note_on_c, 13, 63, 0
7, 5662, Note_on_c, 13, 66, 0
7, 5664, Note_on_c, 13, 59, 110
7, 5664, Note_on_c, 13, 63, 110
7, 5664, Note_on_c, 13, 66, 110
7, 5758, Note_on_c, 13, 59, 0
7, 5758, Note_on_c, 13, 63, 0
7, 5758, Note_on_c, 13, 66, 0
7, 5856, Note_on_c, 13, 59, 110
7, 5856, Note_on_c, 13, 63, 110
7, 5856, Note_on_c, 13, 66, 110
7, 5950, Note_on_c, 13, 59, 0
7, 5950, Note_on_c, 13, 63, 0
7, 5950, Note_on_c, 13, 66, 0
7, 5952, Note_on_c, 13, 59, 110
7, 5952, Note_on_c, 13, 63, 110
7, 5952, Note_on_c, 13, 66, 110
7, 6046, Note_on_c, 13, 59, 0
7, 6046, Note_on_c, 13, 63, 0
7, 6046, Note_on_c, 13, 66, 0
7, 6048, Note_on_c, 13, 59, 110
7, 6048, Note_on_c, 13, 63, 110
7, 6048, Note_on_c, 13, 66, 110
7, 6142, Note_on_c, 13, 59, 0
7, 6142, Note_on_c, 13, 63, 0
7, 6142, Note_on_c, 13, 66, 0
7, 6240, Note_on_c, 13, 59, 110
7, 6240, Note_on_c, 13, 63, 110
7, 6240, Note_on_c, 13, 66, 110
7, 6334, Note_on_c, 13, 59, 0
7, 6334, Note_on_c, 13, 63, 0
7, 6334, Note_on_c, 13, 66, 0
7, 6336, Note_on_c, 13, 59, 110
7, 6336, Note_on_c, 13, 64, 110
7, 6336, Note_on_c, 13, 66, 110
7, 6430, Note_on_c, 13, 59, 0
7, 6430, Note_on_c, 13, 64, 0
7, 6430, Note_on_c, 13, 66, 0
7, 6432, Note_on_c, 13, 59, 110
7, 6432, Note_on_c, 13, 63, 110
7, 6432, Note_on_c, 13, 66, 110
7, 6526, Note_on_c, 13, 59, 0
7, 6526, Note_on_c, 13, 63, 0
7, 6526, Note_on_c, 13, 66, 0
7, 6624, Note_on_c, 13, 59, 110
7, 6624, Note_on_c, 13, 63, 110
7, 6624, Note_on_c, 13, 66, 110
7, 6718, Note_on_c, 13, 59, 0
7, 6718, Note_on_c, 13, 63, 0
7, 6718, Note_on_c, 13, 66, 0
7, 6720, Note_on_c, 13, 59, 110
7, 6720, Note_on_c, 13, 64, 110
7, 6720, Note_on_c, 13, 66, 110
7, 6814, Note_on_c, 13, 59, 0
7, 6814, Note_on_c, 13, 64, 0
7, 6814, Note_on_c, 13, 66, 0
7, 6816, Note_on_c, 13, 59, 110
7, 6816, Note_on_c, 13, 63, 110
7, 6816, Note_on_c, 13, 66, 110
7, 6910, Note_on_c, 13, 59, 0
7, 6910, Note_on_c, 13, 63, 0
7, 6910, Note_on_c, 13, 66, 0
7, 6912, Note_on_c, 13, 59, 110
7, 6912, Note_on_c, 13, 63, 110
7, 6912, Note_on_c, 13, 66, 110
7, 7006, Note_on_c, 13, 59, 0
7, 7006, Note_on_c, 13, 63, 0
7, 7006, Note_on_c, 13, 66, 0
7, 7104, Note_on_c, 13, 57, 110
7, 7104, Note_on_c, 13, 60, 110
7, 7104, Note_on_c, 13, 64, 110
7, 7198, Note_on_c, 13, 57, 0
7, 7198, Note_on_c, 13, 60, 0
7, 7198, Note_on_c, 13, 64, 0
7, 7200, Note_on_c, 13, 57, 110
7, 7200, Note_on_c, 13, 60, 110
7, 7200, Note_on_c, 13, 64, 110
7, 7294, Note_on_c, 13, 57, 0
7, 7294, Note_on_c, 13, 60, 0
7, 7294, Note_on_c, 13, 64, 0
7, 7392, Note_on_c, 13, 57, 110
7, 7392, Note_on_c, 13, 60, 110
7, 7392, Note_on_c, 13, 64, 110
7, 7486, Note_on_c, 13, 57, 0
7, 7486, Note_on_c, 13, 60, 0
7, 7486, Note_on_c, 13, 64, 0
7, 7488, Note_on_c, 13, 57, 110
7, 7488, Note_on_c, 13, 60, 110
7, 7488, Note_on_c, 13, 64, 110
7, 7582, Note_on_c, 13, 57, 0
7, 7582, Note_on_c, 13, 60, 0
7, 7582, Note_on_c, 13, 64, 0
7, 7584, Note_on_c, 13, 57, 110
7, 7584, Note_on_c, 13, 60, 110
7, 7584, Note_on_c, 13, 64, 110
7, 7678, Note_on_c, 13, 57, 0
7, 7678, Note_on_c, 13, 60, 0
7, 7678, Note_on_c, 13, 64, 0
7, 7776, Note_on_c, 13, 66, 110
7, 7872, Note_on_c, 13, 59, 110
7, 7872, Note_on_c, 13, 64, 110
7, 7872, Note_on_c, 13, 68, 110
7, 7966, Note_on_c, 13, 59, 0
7, 7966, Note_on_c, 13, 64, 0
7, 7966, Note_on_c, 13, 66, 0
7, 7966, Note_on_c, 13, 68, 0
7, 7968, Note_on_c, 13, 59, 110
7, 7968, Note_on_c, 13, 64, 110
7, 7968, Note_on_c, 13, 66, 110
7, 7968, Note_on_c, 13, 68, 110
7, 8062, Note_on_c, 13, 59, 0
7, 8062, Note_on_c, 13, 64, 0
7, 8062, Note_on_c, 13, 66, 0
7, 8062, Note_on_c, 13, 68, 0
7, 8160, Note_on_c, 13, 59, 110
7, 8160, Note_on_c, 13, 64, 110
7, 8160, Note_on_c, 13, 68, 110
7, 8254, Note_on_c, 13, 59, 0
7, 8254, Note_on_c, 13, 64, 0
7, 8254, Note_on_c, 13, 68, 0
7, 8256, Note_on_c, 13, 59, 110
7, 8256, Note_on_c, 13, 68, 110
7, 8350, Note_on_c, 13, 59, 0
7, 8350, Note_on_c, 13, 68, 0
7, 8352, Note_on_c, 13, 59, 110
7, 8352, Note_on_c, 13, 64, 110
7, 8352, Note_on_c, 13, 68, 110
7, 8446, Note_on_c, 13, 59, 0
7, 8446, Note_on_c, 13, 64, 0
7, 8446, Note_on_c, 13, 68, 0
7, 8448, Note_on_c, 13, 64, 110
7, 8542, Note_on_c, 13, 64, 0
7, 8640, Note_on_c, 13, 55, 110
7, 8640, Note_on_c, 13, 59, 110
7, 8640, Note_on_c, 13, 62, 110
7, 8734, Note_on_c, 13, 55, 0
7, 8734, Note_on_c, 13, 59, 0
7, 8734, Note_on_c, 13, 62, 0
7, 8736, Note_on_c, 13, 55, 110
7, 8736, Note_on_c, 13, 59, 110
7, 8736, Note_on_c, 13, 62, 110
7, 8830, Note_on_c, 13, 55, 0
7, 8830, Note_on_c, 13, 59, 0
7, 8830, Note_on_c, 13, 62, 0
7, 8928, Note_on_c, 13, 55, 110
7, 8928, Note_on_c, 13, 59, 110
7, 8928, Note_on_c, 13, 62, 110
7, 9022, Note_on_c, 13, 55, 0
7, 9022, Note_on_c, 13, 59, 0
7, 9022, Note_on_c, 13, 62, 0
7, 9024, Note_on_c, 13, 55, 110
7, 9024, Note_on_c, 13, 59, 110
7, 9024, Note_on_c, 13, 62, 110
7, 9118, Note_on_c, 13, 55, 0
7, 9118, Note_on_c, 13, 59, 0
7, 9118, Note_on_c, 13, 62, 0
7, 9120, Note_on_c, 13, 55, 110
7, 9120, Note_on_c, 13, 59, 110
7, 9120, Note_on_c, 13, 62, 110
7, 9214, Note_on_c, 13, 55, 0
7, 9214, Note_on_c, 13, 59, 0
7, 9214, Note_on_c, 13, 62, 0
7, 9408, Note_on_c, 13, 53, 110
7, 9408, Note_on_c, 13, 57, 110
7, 9408, Note_on_c, 13, 60, 110
7, 9502, Note_on_c, 13, 53, 0
7, 9502, Note_on_c, 13, 57, 0
7, 9502, Note_on_c, 13, 60, 0
7, 9504, Note_on_c, 13, 53, 110
7, 9504, Note_on_c, 13, 57, 110
7, 9504, Note_on_c, 13, 60, 110
7, 9598, Note_on_c, 13, 53, 0
7, 9598, Note_on_c, 13, 57, 0
7, 9598, Note_on_c, 13, 60, 0
7, 9696, Note_on_c, 13, 53, 110
7, 9696, Note_on_c, 13, 57, 110
7, 9696, Note_on_c, 13, 60, 110
7, 9790, Note_on_c, 13, 53, 0
7, 9790, Note_on_c, 13, 57, 0
7, 9790, Note_on_c, 13, 60, 0
7, 9792, Note_on_c, 13, 53, 110
7, 9792, Note_on_c, 13, 57, 110
7, 9792, Note_on_c, 13, 60, 110
7, 9886, Note_on_c, 13, 53, 0
7, 9886, Note_on_c, 13, 57, 0
7, 9886, Note_on_c, 13, 60, 0
7, 9888, Note_on_c, 13, 53, 110
7, 9888, Note_on_c, 13, 57, 110
7, 9888, Note_on_c, 13, 60, 110
7, 9982, Note_on_c, 13, 53, 0
7, 9982, Note_on_c, 13, 57, 0
7, 9982, Note_on_c, 13, 60, 0
7, 10176, Note_on_c, 13, 58, 110
7, 10176, Note_on_c, 13, 62, 110
7, 10176, Note_on_c, 13, 65, 110
7, 10270, Note_on_c, 13, 58, 0
7, 10270, Note_on_c, 13, 62, 0
7, 10270, Note_on_c, 13, 65, 0
7, 10272, Note_on_c, 13, 58, 110
7, 10272, Note_on_c, 13, 62, 110
7, 10272, Note_on_c, 13, 65, 110
7, 10366, Note_on_c, 13, 58, 0
7, 10366, Note_on_c, 13, 62, 0
7, 10366, Note_on_c, 13, 65, 0
7, 10368, Note_on_c, 13, 67, 110
7, 10462, Note_on_c, 13, 67, 0
7, 10464, Note_on_c, 13, 58, 110
7, 10464, Note_on_c, 13, 62, 110
7, 10464, Note_on_c, 13, 65, 110
7, 10558, Note_on_c, 13, 58, 0
7, 10558, Note_on_c, 13, 62, 0
7, 10558, Note_on_c, 13, 65, 0
7, 10560, Note_on_c, 13, 58, 110
7, 10560, Note_on_c, 13, 62, 110
7, 10560, Note_on_c, 13, 65, 110
7, 10654, Note_on_c, 13, 58, 0
7, 10654, Note_on_c, 13, 62, 0
7, 10654, Note_on_c, 13, 65, 0
7, 10656, Note_on_c, 13, 58, 110
7, 10656, Note_on_c, 13, 62, 110
7, 10656, Note_on_c, 13, 65, 110
7, 10750, Note_on_c, 13, 58, 0
7, 10750, Note_on_c, 13, 62, 0
7, 10750, Note_on_c, 13, 65, 0
7, 10752, Note_on_c, 13, 67, 110
7, 10846, Note_on_c, 13, 67, 0
7, 10848, Note_on_c, 13, 65, 110
7, 10942, Note_on_c, 13, 65, 0
7, 10944, Note_on_c, 13, 61, 110
7, 10944, Note_on_c, 13, 65, 110
7, 10944, Note_on_c, 13, 68, 110
7, 11038, Note_on_c, 13, 61, 0
7, 11038, Note_on_c, 13, 65, 0
7, 11038, Note_on_c, 13, 68, 0
7, 11040, Note_on_c, 13, 61, 110
7, 11040, Note_on_c, 13, 65, 110
7, 11040, Note_on_c, 13, 68, 110
7, 11134, Note_on_c, 13, 61, 0
7, 11134, Note_on_c, 13, 65, 0
7, 11134, Note_on_c, 13, 68, 0
7, 11232, Note_on_c, 13, 61, 110
7, 11232, Note_on_c, 13, 65, 110
7, 11232, Note_on_c, 13, 68, 110
7, 11326, Note_on_c, 13, 61, 0
7, 11326, Note_on_c, 13, 65, 0
7, 11326, Note_on_c, 13, 68, 0
7, 11328, Note_on_c, 13, 61, 110
7, 11328, Note_on_c, 13, 65, 110
7, 11328, Note_on_c, 13, 68, 110
7, 11422, Note_on_c, 13, 61, 0
7, 11422, Note_on_c, 13, 65, 0
7, 11422, Note_on_c, 13, 68, 0
7, 11424, Note_on_c, 13, 61, 110
7, 11424, Note_on_c, 13, 65, 110
7, 11424, Note_on_c, 13, 68, 110
7, 11518, Note_on_c, 13, 61, 0
7, 11518, Note_on_c, 13, 65, 0
7, 11518, Note_on_c, 13, 68, 0
7, 11712, Note_on_c, 13, 59, 110
7, 11712, Note_on_c, 13, 63, 110
7, 11712, Note_on_c, 13, 66, 110
7, 11806, Note_on_c, 13, 59, 0
7, 11806, Note_on_c, 13, 63, 0
7, 11806, Note_on_c, 13, 66, 0
7, 11808, Note_on_c, 13, 59, 110
7, 11808, Note_on_c, 13, 63, 110
7, 11808, Note_on_c, 13, 66, 110
7, 11902, Note_on_c, 13, 59, 0
7, 11902, Note_on_c, 13, 63, 0
7, 11902, Note_on_c, 13, 66, 0
7, 12000, Note_on_c, 13, 59, 110
7, 12000, Note_on_c, 13, 63, 110
7, 12000, Note_on_c, 13, 66, 110
7, 12094, Note_on_c, 13, 59, 0
7, 12094, Note_on_c, 13, 63, 0
7, 12094, Note_on_c, 13, 66, 0
7, 12096, Note_on_c, 13, 59, 110
7, 12096, Note_on_c, 13, 63, 110
7, 12096, Note_on_c, 13, 66, 110
7, 12190, Note_on_c, 13, 59, 0
7, 12190, Note_on_c, 13, 63, 0
7, 12190, Note_on_c, 13, 66, 0
7, 12192, Note_on_c, 13, 59, 110
7, 12192, Note_on_c, 13, 63, 110
7, 12192, Note_on_c, 13, 66, 110
7, 12286, Note_on_c, 13, 59, 0
7, 12286, Note_on_c, 13, 63, 0
7, 12286, Note_on_c, 13, 66, 0
7, 12384, Note_on_c, 13, 59, 110
7, 12384, Note_on_c, 13, 63, 110
7, 12384, Note_on_c, 13, 66, 110
7, 12478, Note_on_c, 13, 59, 0
7, 12478, Note_on_c, 13, 63, 0
7, 12478, Note_on_c, 13, 66, 0
7, 12480, Note_on_c, 13, 59, 110
7, 12480, Note_on_c, 13, 64, 110
7, 12480, Note_on_c, 13, 66, 110
7, 12574, Note_on_c, 13, 59, 0
7, 12574, Note_on_c, 13, 64, 0
7, 12574, Note_on_c, 13, 66, 0
7, 12576, Note_on_c, 13, 59, 110
7, 12576, Note_on_c, 13, 63, 110
7, 12576, Note_on_c, 13, 66, 110
7, 12670, Note_on_c, 13, 59, 0
7, 12670, Note_on_c, 13, 63, 0
7, 12670, Note_on_c, 13, 66, 0
7, 12768, Note_on_c, 13, 59, 110
7, 12768, Note_on_c, 13, 63, 110
7, 12768, Note_on_c, 13, 66, 110
7, 12862, Note_on_c, 13, 59, 0
7, 12862, Note_on_c, 13, 63, 0
7, 12862, Note_on_c, 13, 66, 0
7, 12864, Note_on_c, 13, 59, 110
7, 12864, Note_on_c, 13, 64, 110
7, 12864, Note_on_c, 13, 66, 110
7, 12958, Note_on_c, 13, 59, 0
7, 12958, Note_on_c, 13, 64, 0
7, 12958, Note_on_c, 13, 66, 0
7, 12960, Note_on_c, 13, 59, 110
7, 12960, Note_on_c, 13, 63, 110
7, 12960, Note_on_c, 13, 66, 110
7, 13054, Note_on_c, 13, 59, 0
7, 13054, Note_on_c, 13, 63, 0
7, 13054, Note_on_c, 13, 66, 0
7, 13056, Note_on_c, 13, 59, 110
7, 13056, Note_on_c, 13, 63, 110
7, 13056, Note_on_c, 13, 66, 110
7, 13150, Note_on_c, 13, 59, 0
7, 13150, Note_on_c, 13, 63, 0
7, 13150, Note_on_c, 13, 66, 0
7, 13248, Note_on_c, 13, 57, 110
7, 13248, Note_on_c, 13, 60, 110
7, 13248, Note_on_c, 13, 64, 110
7, 13342, Note_on_c, 13, 57, 0
7, 13342, Note_on_c, 13, 60, 0
7, 13342, Note_on_c, 13, 64, 0
7, 13344, Note_on_c, 13, 57, 110
7, 13344, Note_on_c, 13, 60, 110
7, 13344, Note_on_c, 13, 64, 110
7, 13438, Note_on_c, 13, 57, 0
7, 13438, Note_on_c, 13, 60, 0
7, 13438, Note_on_c, 13, 64, 0
7, 13536, Note_on_c, 13, 57, 110
7, 13536, Note_on_c, 13, 60, 110
7, 13536, Note_on_c, 13, 64, 110
7, 13630, Note_on_c, 13, 57, 0
7, 13630, Note_on_c, 13, 60, 0
7, 13630, Note_on_c, 13, 64, 0
7, 13632, Note_on_c, 13, 57, 110
7, 13632, Note_on_c, 13, 60, 110
7, 13632, Note_on_c, 13, 64, 110
7, 13726, Note_on_c, 13, 57, 0
7, 13726, Note_on_c, 13, 60, 0
7, 13726, Note_on_c, 13, 64, 0
7, 13728, Note_on_c, 13, 57, 110
7, 13728, Note_on_c, 13, 60, 110
7, 13728, Note_on_c, 13, 64, 110
7, 13822, Note_on_c, 13, 57, 0
7, 13822, Note_on_c, 13, 60, 0
7, 13822, Note_on_c, 13, 64, 0
7, 13920, Note_on_c, 13, 66, 110
7, 14016, Note_on_c, 13, 59, 110
7, 14016, Note_on_c, 13, 64, 110
7, 14016, Note_on_c, 13, 68, 110
7, 14110, Note_on_c, 13, 59, 0
7, 14110, Note_on_c, 13, 64, 0
7, 14110, Note_on_c, 13, 66, 0
7, 14110, Note_on_c, 13, 68, 0
7, 14112, Note_on_c, 13, 59, 110
7, 14112, Note_on_c, 13, 64, 110
7, 14112, Note_on_c, 13, 66, 110
7, 14112, Note_on_c, 13, 68, 110
7, 14206, Note_on_c, 13, 59, 0
7, 14206, Note_on_c, 13, 64, 0
7, 14206, Note_on_c, 13, 66, 0
7, 14206, Note_on_c, 13, 68, 0
7, 14304, Note_on_c, 13, 59, 110
7, 14304, Note_on_c, 13, 64, 110
7, 14304, Note_on_c, 13, 68, 110
7, 14398, Note_on_c, 13, 59, 0
7, 14398, Note_on_c, 13, 64, 0
7, 14398, Note_on_c, 13, 68, 0
7, 14400, Note_on_c, 13, 59, 110
7, 14400, Note_on_c, 13, 68, 110
7, 14494, Note_on_c, 13, 59, 0
7, 14494, Note_on_c, 13, 68, 0
7, 14496, Note_on_c, 13, 59, 110
7, 14496, Note_on_c, 13, 64, 110
7, 14496, Note_on_c, 13, 68, 110
7, 14590, Note_on_c, 13, 59, 0
7, 14590, Note_on_c, 13, 64, 0
7, 14590, Note_on_c, 13, 68, 0
7, 14592, Note_on_c, 13, 64, 110
7, 14686, Note_on_c, 13, 64, 0
7, 14784, Note_on_c, 13, 55, 110
7, 14784, Note_on_c, 13, 59, 110
7, 14784, Note_on_c, 13, 62, 110
7, 14878, Note_on_c, 13, 55, 0
7, 14878, Note_on_c, 13, 59, 0
7, 14878, Note_on_c, 13, 62, 0
7, 14880, Note_on_c, 13, 55, 110
7, 14880, Note_on_c, 13, 59, 110
7, 14880, Note_on_c, 13, 62, 110
7, 14974, Note_on_c, 13, 55, 0
7, 14974, Note_on_c, 13, 59, 0
7, 14974, Note_on_c, 13, 62, 0
7, 15072, Note_on_c, 13, 55, 110
7, 15072, Note_on_c, 13, 59, 110
7, 15072, Note_on_c, 13, 62, 110
7, 15166, Note_on_c, 13, 55, 0
7, 15166, Note_on_c, 13, 59, 0
7, 15166, Note_on_c, 13, 62, 0
7, 15168, Note_on_c, 13, 55, 110
7, 15168, Note_on_c, 13, 59, 110
7, 15168, Note_on_c, 13, 62, 110
7, 15262, Note_on_c, 13, 55, 0
7, 15262, Note_on_c, 13, 59, 0
7, 15262, Note_on_c, 13, 62, 0
7, 15264, Note_on_c, 13, 55, 110
7, 15264, Note_on_c, 13, 59, 110
7, 15264, Note_on_c, 13, 62, 110
7, 15358, Note_on_c, 13, 55, 0
7, 15358, Note_on_c, 13, 59, 0
7, 15358, Note_on_c, 13, 62, 0
7, 15552, Note_on_c, 13, 53, 110
7, 15552, Note_on_c, 13, 57, 110
7, 15552, Note_on_c, 13, 60, 110
7, 15646, Note_on_c, 13, 53, 0
7, 15646, Note_on_c, 13, 57, 0
7, 15646, Note_on_c, 13, 60, 0
7, 15648, Note_on_c, 13, 53, 110
7, 15648, Note_on_c, 13, 57, 110
7, 15648, Note_on_c, 13, 60, 110
7, 15742, Note_on_c, 13, 53, 0
7, 15742, Note_on_c, 13, 57, 0
7, 15742, Note_on_c, 13, 60, 0
7, 15840, Note_on_c, 13, 53, 110
7, 15840, Note_on_c, 13, 57, 110
7, 15840, Note_on_c, 13, 60, 110
7, 15934, Note_on_c, 13, 53, 0
7, 15934, Note_on_c, 13, 57, 0
7, 15934, Note_on_c, 13, 60, 0
7, 15936, Note_on_c, 13, 53, 110
7, 15936, Note_on_c, 13, 57, 110
7, 15936, Note_on_c, 13, 60, 110
7, 16030, Note_on_c, 13, 53, 0
7, 16030, Note_on_c, 13, 57, 0
7, 16030, Note_on_c, 13, 60, 0
7, 16032, Note_on_c, 13, 53, 110
7, 16032, Note_on_c, 13, 57, 110
7, 16032, Note_on_c, 13, 60, 110
7, 16126, Note_on_c, 13, 53, 0
7, 16126, Note_on_c, 13, 57, 0
7, 16126, Note_on_c, 13, 60, 0
7, 16320, Note_on_c, 13, 58, 110
7, 16320, Note_on_c, 13, 62, 110
7, 16320, Note_on_c, 13, 65, 110
7, 16414, Note_on_c, 13, 58, 0
7, 16414, Note_on_c, 13, 62, 0
7, 16414, Note_on_c, 13, 65, 0
7, 16416, Note_on_c, 13, 58, 110
7, 16416, Note_on_c, 13, 62, 110
7, 16416, Note_on_c, 13, 65, 110
7, 16510, Note_on_c, 13, 58, 0
7, 16510, Note_on_c, 13, 62, 0
7, 16510, Note_on_c, 13, 65, 0
7, 16512, Note_on_c, 13, 67, 110
7, 16606, Note_on_c, 13, 67, 0
7, 16608, Note_on_c, 13, 58, 110
7, 16608, Note_on_c, 13, 62, 110
7, 16608, Note_on_c, 13, 65, 110
7, 16702, Note_on_c, 13, 58, 0
7, 16702, Note_on_c, 13, 62, 0
7, 16702, Note_on_c, 13, 65, 0
7, 16704, Note_on_c, 13, 58, 110
7, 16704, Note_on_c, 13, 62, 110
7, 16704, Note_on_c, 13, 65, 110
7, 16798, Note_on_c, 13, 58, 0
7, 16798, Note_on_c, 13, 62, 0
7, 16798, Note_on_c, 13, 65, 0
7, 16800, Note_on_c, 13, 58, 110
7, 16800, Note_on_c, 13, 62, 110
7, 16800, Note_on_c, 13, 65, 110
7, 16894, Note_on_c, 13, 58, 0
7, 16894, Note_on_c, 13, 62, 0
7, 16894, Note_on_c, 13, 65, 0
7, 16896, Note_on_c, 13, 67, 110
7, 16990, Note_on_c, 13, 67, 0
7, 17088, Note_on_c, 13, 61, 110
7, 17088, Note_on_c, 13, 65, 110
7, 17088, Note_on_c, 13, 68, 110
7, 17182, Note_on_c, 13, 61, 0
7, 17182, Note_on_c, 13, 65, 0
7, 17182, Note_on_c, 13, 68, 0
7, 17184, Note_on_c, 13, 61, 110
7, 17184, Note_on_c, 13, 65, 110
7, 17184, Note_on_c, 13, 68, 110
7, 17278, Note_on_c, 13, 61, 0
7, 17278, Note_on_c, 13, 65, 0
7, 17278, Note_on_c, 13, 68, 0
7, 17376, Note_on_c, 13, 61, 110
7, 17376, Note_on_c, 13, 65, 110
7, 17376, Note_on_c, 13, 68, 110
7, 17470, Note_on_c, 13, 61, 0
7, 17470, Note_on_c, 13, 65, 0
7, 17470, Note_on_c, 13, 68, 0
7, 17472, Note_on_c, 13, 61, 110
7, 17472, Note_on_c, 13, 65, 110
7, 17472, Note_on_c, 13, 68, 110
7, 17566, Note_on_c, 13, 61, 0
7, 17566, Note_on_c, 13, 65, 0
7, 17566, Note_on_c, 13, 68, 0
7, 17568, Note_on_c, 13, 61, 110
7, 17568, Note_on_c, 13, 65, 110
7, 17568, Note_on_c, 13, 68, 110
7, 17662, Note_on_c, 13, 61, 0
7, 17662, Note_on_c, 13, 65, 0
7, 17662, Note_on_c, 13, 68, 0
7, 17856, Note_on_c, 13, 59, 110
7, 17856, Note_on_c, 13, 63, 110
7, 17856, Note_on_c, 13, 66, 110
7, 17950, Note_on_c, 13, 59, 0
7, 17950, Note_on_c, 13, 63, 0
7, 17950, Note_on_c, 13, 66, 0
7, 17952, Note_on_c, 13, 59, 110
7, 17952, Note_on_c, 13, 63, 110
7, 17952, Note_on_c, 13, 66, 110
7, 18046, Note_on_c, 13, 59, 0
7, 18046, Note_on_c, 13, 63, 0
7, 18046, Note_on_c, 13, 66, 0
7, 18144, Note_on_c, 13, 59, 110
7, 18144, Note_on_c, 13, 63, 110
7, 18144, Note_on_c, 13, 66, 110
7, 18238, Note_on_c, 13, 59, 0
7, 18238, Note_on_c, 13, 63, 0
7, 18238, Note_on_c, 13, 66, 0
7, 18240, Note_on_c, 13, 59, 110
7, 18240, Note_on_c, 13, 63, 110
7, 18240, Note_on_c, 13, 66, 110
7, 18334, Note_on_c, 13, 59, 0
7, 18334, Note_on_c, 13, 63, 0
7, 18334, Note_on_c, 13, 66, 0
7, 18336, Note_on_c, 13, 59, 110
7, 18336, Note_on_c, 13, 63, 110
7, 18336, Note_on_c, 13, 66, 110
7, 18430, Note_on_c, 13, 59, 0
7, 18430, Note_on_c, 13, 63, 0
7, 18430, Note_on_c, 13, 66, 0
7, 18528, Note_on_c, 13, 59, 110
7, 18528, Note_on_c, 13, 63, 110
7, 18528, Note_on_c, 13, 66, 110
7, 18622, Note_on_c, 13, 59, 0
7, 18622, Note_on_c, 13, 63, 0
7, 18622, Note_on_c, 13, 66, 0
7, 18624, Note_on_c, 13, 59, 110
7, 18624, Note_on_c, 13, 64, 110
7, 18624, Note_on_c, 13, 66, 110
7, 18718, Note_on_c, 13, 59, 0
7, 18718, Note_on_c, 13, 64, 0
7, 18718, Note_on_c, 13, 66, 0
7, 18720, Note_on_c, 13, 59, 110
7, 18720, Note_on_c, 13, 63, 110
7, 18720, Note_on_c, 13, 66, 110
7, 18814, Note_on_c, 13, 59, 0
7, 18814, Note_on_c, 13, 63, 0
7, 18814, Note_on_c, 13, 66, 0
7, 18912, Note_on_c, 13, 59, 110
7, 18912, Note_on_c, 13, 63, 110
7, 18912, Note_on_c, 13, 66, 110
7, 19006, Note_on_c, 13, 59, 0
7, 19006, Note_on_c, 13, 63, 0
7, 19006, Note_on_c, 13, 66, 0
7, 19008, Note_on_c, 13, 59, 110
7, 19008, Note_on_c, 13, 64, 110
7, 19008, Note_on_c, 13, 66, 110
7, 19102, Note_on_c, 13, 59, 0
7, 19102, Note_on_c, 13, 64, 0
7, 19102, Note_on_c, 13, 66, 0
7, 19104, Note_on_c, 13, 59, 110
7, 19104, Note_on_c, 13, 63, 110
7, 19104, Note_on_c, 13, 66, 110
7, 19198, Note_on_c, 13, 59, 0
7, 19198, Note_on_c, 13, 63, 0
7, 19198, Note_on_c, 13, 66, 0
7, 19200, Note_on_c, 13, 59, 110
7, 19200, Note_on_c, 13, 63, 110
7, 19200, Note_on_c, 13, 66, 110
7, 19294, Note_on_c, 13, 59, 0
7, 19294, Note_on_c, 13, 63, 0
7, 19294, Note_on_c, 13, 66, 0
7, 19392, Note_on_c, 13, 57, 110
7, 19392, Note_on_c, 13, 60, 110
7, 19392, Note_on_c, 13, 64, 110
7, 19486, Note_on_c, 13, 57, 0
7, 19486, Note_on_c, 13, 60, 0
7, 19486, Note_on_c, 13, 64, 0
7, 19488, Note_on_c, 13, 57, 110
7, 19488, Note_on_c, 13, 60, 110
7, 19488, Note_on_c, 13, 64, 110
7, 19582, Note_on_c, 13, 57, 0
7, 19582, Note_on_c, 13, 60, 0
7, 19582, Note_on_c, 13, 64, 0
7, 19680, Note_on_c, 13, 57, 110
7, 19680, Note_on_c, 13, 60, 110
7, 19680, Note_on_c, 13, 64, 110
7, 19774, Note_on_c, 13, 57, 0
7, 19774, Note_on_c, 13, 60, 0
7, 19774, Note_on_c, 13, 64, 0
7, 19776, Note_on_c, 13, 57, 110
7, 19776, Note_on_c, 13, 60, 110
7, 19776, Note_on_c, 13, 64, 110
7, 19870, Note_on_c, 13, 57, 0
7, 19870, Note_on_c, 13, 60, 0
7, 19870, Note_on_c, 13, 64, 0
7, 19872, Note_on_c, 13, 57, 110
7, 19872, Note_on_c, 13, 60, 110
7, 19872, Note_on_c, 13, 64, 110
7, 19966, Note_on_c, 13, 57, 0
7, 19966, Note_on_c, 13, 60, 0
7, 19966, Note_on_c, 13, 64, 0
7, 20064, Note_on_c, 13, 66, 110
7, 20160, Note_on_c, 13, 59, 110
7, 20160, Note_on_c, 13, 64, 110
7, 20160, Note_on_c, 13, 68, 110
7, 20254, Note_on_c, 13, 59, 0
7, 20254, Note_on_c, 13, 64, 0
7, 20254, Note_on_c, 13, 66, 0
7, 20254, Note_on_c, 13, 68, 0
7, 20256, Note_on_c, 13, 59, 110
7, 20256, Note_on_c, 13, 64, 110
7, 20256, Note_on_c, 13, 66, 110
7, 20256, Note_on_c, 13, 68, 110
7, 20350, Note_on_c, 13, 59, 0
7, 20350, Note_on_c, 13, 64, 0
7, 20350, Note_on_c, 13, 66, 0
7, 20350, Note_on_c, 13, 68, 0
7, 20448, Note_on_c, 13, 59, 110
7, 20448, Note_on_c, 13, 64, 110
7, 20448, Note_on_c, 13, 68, 110
7, 20542, Note_on_c, 13, 59, 0
7, 20542, Note_on_c, 13, 64, 0
7, 20542, Note_on_c, 13, 68, 0
7, 20544, Note_on_c, 13, 59, 110
7, 20544, Note_on_c, 13, 68, 110
7, 20638, Note_on_c, 13, 59, 0
7, 20638, Note_on_c, 13, 68, 0
7, 20640, Note_on_c, 13, 59, 110
7, 20640, Note_on_c, 13, 64, 110
7, 20640, Note_on_c, 13, 68, 110
7, 20734, Note_on_c, 13, 59, 0
7, 20734, Note_on_c, 13, 64, 0
7, 20734, Note_on_c, 13, 68, 0
7, 20736, Note_on_c, 13, 64, 110
7, 20830, Note_on_c, 13, 64, 0
7, 20928, Note_on_c, 13, 55, 110
7, 20928, Note_on_c, 13, 59, 110
7, 20928, Note_on_c, 13, 62, 110
7, 21022, Note_on_c, 13, 55, 0
7, 21022, Note_on_c, 13, 59, 0
7, 21022, Note_on_c, 13, 62, 0
7, 21024, Note_on_c, 13, 55, 110
7, 21024, Note_on_c, 13, 59, 110
7, 21024, Note_on_c, 13, 62, 110
7, 21118, Note_on_c, 13, 55, 0
7, 21118, Note_on_c, 13, 59, 0
7, 21118, Note_on_c, 13, 62, 0
7, 21216, Note_on_c, 13, 55, 110
7, 21216, Note_on_c, 13, 59, 110
7, 21216, Note_on_c, 13, 62, 110
7, 21310, Note_on_c, 13, 55, 0
7, 21310, Note_on_c, 13, 59, 0
7, 21310, Note_on_c, 13, 62, 0
7, 21312, Note_on_c, 13, 55, 110
7, 21312, Note_on_c, 13, 59, 110
7, 21312, Note_on_c, 13, 62, 110
7, 21406, Note_on_c, 13, 55, 0
7, 21406, Note_on_c, 13, 59, 0
7, 21406, Note_on_c, 13, 62, 0
7, 21408, Note_on_c, 13, 55, 110
7, 21408, Note_on_c, 13, 59, 110
7, 21408, Note_on_c, 13, 62, 110
7, 21502, Note_on_c, 13, 55, 0
7, 21502, Note_on_c, 13, 59, 0
7, 21502, Note_on_c, 13, 62, 0
7, 21696, Note_on_c, 13, 53, 110
7, 21696, Note_on_c, 13, 57, 110
7, 21696, Note_on_c, 13, 60, 110
7, 21790, Note_on_c, 13, 53, 0
7, 21790, Note_on_c, 13, 57, 0
7, 21790, Note_on_c, 13, 60, 0
7, 21792, Note_on_c, 13, 53, 110
7, 21792, Note_on_c, 13, 57, 110
7, 21792, Note_on_c, 13, 60, 110
7, 21886, Note_on_c, 13, 53, 0
7, 21886, Note_on_c, 13, 57, 0
7, 21886, Note_on_c, 13, 60, 0
7, 21984, Note_on_c, 13, 53, 110
7, 21984, Note_on_c, 13, 57, 110
7, 21984, Note_on_c, 13, 60, 110
7, 22078, Note_on_c, 13, 53, 0
7, 22078, Note_on_c, 13, 57, 0
7, 22078, Note_on_c, 13, 60, 0
7, 22080, Note_on_c, 13, 53, 110
7, 22080, Note_on_c, 13, 57, 110
7, 22080, Note_on_c, 13, 60, 110
7, 22174, Note_on_c, 13, 53, 0
7, 22174, Note_on_c, 13, 57, 0
7, 22174, Note_on_c, 13, 60, 0
7, 22176, Note_on_c, 13, 53, 110
7, 22176, Note_on_c, 13, 57, 110
7, 22176, Note_on_c, 13, 60, 110
7, 22270, Note_on_c, 13, 53, 0
7, 22270, Note_on_c, 13, 57, 0
7, 22270, Note_on_c, 13, 60, 0
7, 22464, Note_on_c, 13, 58, 110
7, 22464, Note_on_c, 13, 62, 110
7, 22464, Note_on_c, 13, 65, 110
7, 22558, Note_on_c, 13, 58, 0
7, 22558, Note_on_c, 13, 62, 0
7, 22558, Note_on_c, 13, 65, 0
7, 22560, Note_on_c, 13, 58, 110
7, 22560, Note_on_c, 13, 62, 110
7, 22560, Note_on_c, 13, 65, 110
7, 22654, Note_on_c, 13, 58, 0
7, 22654, Note_on_c, 13, 62, 0
7, 22654, Note_on_c, 13, 65, 0
7, 22656, Note_on_c, 13, 67, 110
7, 22750, Note_on_c, 13, 67, 0
7, 22752, Note_on_c, 13, 58, 110
7, 22752, Note_on_c, 13, 62, 110
7, 22752, Note_on_c, 13, 65, 110
7, 22846, Note_on_c, 13, 58, 0
7, 22846, Note_on_c, 13, 62, 0
7, 22846, Note_on_c, 13, 65, 0
7, 22848, Note_on_c, 13, 58, 110
7, 22848, Note_on_c, 13, 62, 110
7, 22848, Note_on_c, 13, 65, 110
7, 22942, Note_on_c, 13, 58, 0
7, 22942, Note_on_c, 13, 62, 0
7, 22942, Note_on_c, 13, 65, 0
7, 22944, Note_on_c, 13, 58, 110
7, 22944, Note_on_c, 13, 62, 110
7, 22944, Note_on_c, 13, 65, 110
7, 23038, Note_on_c, 13, 58, 0
7, 23038, Note_on_c, 13, 62, 0
7, 23038, Note_on_c, 13, 65, 0
7, 23040, Note_on_c, 13, 67, 110
7, 23134, Note_on_c, 13, 67, 0
7, 23232, Note_on_c, 13, 61, 110
7, 23232, Note_on_c, 13, 64, 110
7, 23232, Note_on_c, 13, 69, 110
7, 23326, Note_on_c, 13, 61, 0
7, 23326, Note_on_c, 13, 64, 0
7, 23326, Note_on_c, 13, 69, 0
7, 23328, Note_on_c, 13, 61, 110
7, 23328, Note_on_c, 13, 64, 110
7, 23328, Note_on_c, 13, 69, 110
7, 23422, Note_on_c, 13, 61, 0
7, 23422, Note_on_c, 13, 64, 0
7, 23422, Note_on_c, 13, 69, 0
7, 23520, Note_on_c, 13, 61, 110
7, 23520, Note_on_c, 13, 64, 110
7, 23520, Note_on_c, 13, 69, 110
7, 23614, Note_on_c, 13, 61, 0
7, 23614, Note_on_c, 13, 64, 0
7, 23614, Note_on_c, 13, 69, 0
7, 23616, Note_on_c, 13, 61, 110
7, 23616, Note_on_c, 13, 64, 110
7, 23616, Note_on_c, 13, 69, 110
7, 23710, Note_on_c, 13, 61, 0
7, 23710, Note_on_c, 13, 64, 0
7, 23710, Note_on_c, 13, 69, 0
7, 23712, Note_on_c, 13, 61, 110
7, 23712, Note_on_c, 13, 64, 110
7, 23712, Note_on_c, 13, 69, 110
7, 23806, Note_on_c, 13, 61, 0
7, 23806, Note_on_c, 13, 64, 0
7, 23806, Note_on_c, 13, 69, 0
7, 24000, Note_on_c, 13, 61, 110
7, 24000, Note_on_c, 13, 64, 110
7, 24000, Note_on_c, 13, 66, 110
7, 24000, Note_on_c, 13, 69, 110
7, 24000, Note_on_c, 13, 71, 110
7, 24094, Note_on_c, 13, 61, 0
7, 24094, Note_on_c, 13, 64, 0
7, 24094, Note_on_c, 13, 66, 0
7, 24094, Note_on_c, 13, 69, 0
7, 24094, Note_on_c, 13, 71, 0
7, 24096, Note_on_c, 13, 61, 110
7, 24096, Note_on_c, 13, 64, 110
7, 24096, Note_on_c, 13, 68, 110
7, 24096, Note_on_c, 13, 69, 110
7, 24096, Note_on_c, 13, 73, 110
7, 24190, Note_on_c, 13, 61, 0
7, 24190, Note_on_c, 13, 64, 0
7, 24190, Note_on_c, 13, 68, 0
7, 24190, Note_on_c, 13, 69, 0
7, 24190, Note_on_c, 13, 73, 0
7, 24288, Note_on_c, 13, 61, 110
7, 24288, Note_on_c, 13, 64, 110
7, 24288, Note_on_c, 13, 69, 110
7, 24448, Note_on_c, 13, 61, 0
7, 24448, Note_on_c, 13, 64, 0
7, 24448, Note_on_c, 13, 69, 0
7, 24480, Note_on_c, 13, 61, 110
7, 24480, Note_on_c, 13, 64, 110
7, 24480, Note_on_c, 13, 69, 110
7, 24574, Note_on_c, 13, 61, 0
7, 24574, Note_on_c, 13, 64, 0
7, 24574, Note_on_c, 13, 69, 0
7, 24576, Note_on_c, 13, 61, 110
7, 24576, Note_on_c, 13, 64, 110
7, 24576, Note_on_c, 13, 69, 110
7, 24670, Note_on_c, 13, 61, 0
7, 24670, Note_on_c, 13, 64, 0
7, 24670, Note_on_c, 13, 69, 0
7, 24768, Note_on_c, 13, 61, 110
7, 24768, Note_on_c, 13, 64, 110
7, 24768, Note_on_c, 13, 68, 110
7, 24862, Note_on_c, 13, 61, 0
7, 24862, Note_on_c, 13, 64, 0
7, 24862, Note_on_c, 13, 68, 0
7, 24864, Note_on_c, 13, 61, 110
7, 24864, Note_on_c, 13, 64, 110
7, 24864, Note_on_c, 13, 68, 110
7, 24958, Note_on_c, 13, 61, 0
7, 24958, Note_on_c, 13, 64, 0
7, 24958, Note_on_c, 13, 68, 0
7, 25056, Note_on_c, 13, 61, 110
7, 25056, Note_on_c, 13, 64, 110
7, 25056, Note_on_c, 13, 68, 110
7, 25150, Note_on_c, 13, 61, 0
7, 25150, Note_on_c, 13, 64, 0
7, 25150, Note_on_c, 13, 68, 0
7, 25152, Note_on_c, 13, 61, 110
7, 25152, Note_on_c, 13, 64, 110
7, 25152, Note_on_c, 13, 68, 110
7, 25246, Note_on_c, 13, 61, 0
7, 25246, Note_on_c, 13, 64, 0
7, 25246, Note_on_c, 13, 68, 0
7, 25248, Note_on_c, 13, 61, 110
7, 25248, Note_on_c, 13, 64, 110
7, 25248, Note_on_c, 13, 68, 110
7, 25342, Note_on_c, 13, 61, 0
7, 25342, Note_on_c, 13, 64, 0
7, 25342, Note_on_c, 13, 68, 0
7, 25440, Note_on_c, 13, 61, 110
7, 25440, Note_on_c, 13, 64, 110
7, 25440, Note_on_c, 13, 68, 110
7, 25534, Note_on_c, 13, 61, 0
7, 25534, Note_on_c, 13, 64, 0
7, 25534, Note_on_c, 13, 68, 0
7, 25536, Note_on_c, 13, 61, 110
7, 25536, Note_on_c, 13, 64, 110
7, 25536, Note_on_c, 13, 68, 110
7, 25630, Note_on_c, 13, 61, 0
7, 25630, Note_on_c, 13, 64, 0
7, 25630, Note_on_c, 13, 68, 0
7, 25632, Note_on_c, 13, 61, 110
7, 25632, Note_on_c, 13, 64, 110
7, 25632, Note_on_c, 13, 68, 110
7, 25726, Note_on_c, 13, 61, 0
7, 25726, Note_on_c, 13, 64, 0
7, 25726, Note_on_c, 13, 68, 0
7, 25824, Note_on_c, 13, 61, 110
7, 25824, Note_on_c, 13, 64, 110
7, 25824, Note_on_c, 13, 68, 110
7, 25918, Note_on_c, 13, 61, 0
7, 25918, Note_on_c, 13, 64, 0
7, 25918, Note_on_c, 13, 68, 0
7, 25920, Note_on_c, 13, 61, 110
7, 25920, Note_on_c, 13, 64, 110
7, 25920, Note_on_c, 13, 68, 110
7, 26014, Note_on_c, 13, 61, 0
7, 26014, Note_on_c, 13, 64, 0
7, 26014, Note_on_c, 13, 68, 0
7, 26016, Note_on_c, 13, 61, 110
7, 26016, Note_on_c, 13, 64, 110
7, 26016, Note_on_c, 13, 68, 110
7, 26110, Note_on_c, 13, 61, 0
7, 26110, Note_on_c, 13, 64, 0
7, 26110, Note_on_c, 13, 68, 0
7, 26304, Note_on_c, 13, 59, 110
7, 26304, Note_on_c, 13, 63, 110
7, 26304, Note_on_c, 13, 66, 110
7, 26398, Note_on_c, 13, 59, 0
7, 26398, Note_on_c, 13, 63, 0
7, 26398, Note_on_c, 13, 66, 0
7, 26400, Note_on_c, 13, 59, 110
7, 26400, Note_on_c, 13, 63, 110
7, 26400, Note_on_c, 13, 66, 110
7, 26494, Note_on_c, 13, 59, 0
7, 26494, Note_on_c, 13, 63, 0
7, 26494, Note_on_c, 13, 66, 0
7, 26592, Note_on_c, 13, 59, 110
7, 26592, Note_on_c, 13, 63, 110
7, 26592, Note_on_c, 13, 66, 110
7, 26686, Note_on_c, 13, 59, 0
7, 26686, Note_on_c, 13, 63, 0
7, 26686, Note_on_c, 13, 66, 0
7, 26688, Note_on_c, 13, 59, 110
7, 26688, Note_on_c, 13, 63, 110
7, 26688, Note_on_c, 13, 66, 110
7, 26782, Note_on_c, 13, 59, 0
7, 26782, Note_on_c, 13, 63, 0
7, 26782, Note_on_c, 13, 66, 0
7, 26784, Note_on_c, 13, 59, 110
7, 26784, Note_on_c, 13, 63, 110
7, 26784, Note_on_c, 13, 66, 110
7, 26878, Note_on_c, 13, 59, 0
7, 26878, Note_on_c, 13, 63, 0
7, 26878, Note_on_c, 13, 66, 0
7, 26976, Note_on_c, 13, 71, 110
7, 27072, Note_on_c, 13, 57, 110
7, 27072, Note_on_c, 13, 61, 110
7, 27072, Note_on_c, 13, 64, 110
7, 27166, Note_on_c, 13, 57, 0
7, 27166, Note_on_c, 13, 61, 0
7, 27166, Note_on_c, 13, 64, 0
7, 27166, Note_on_c, 13, 71, 0
7, 27168, Note_on_c, 13, 57, 110
7, 27168, Note_on_c, 13, 61, 110
7, 27168, Note_on_c, 13, 64, 110
7, 27168, Note_on_c, 13, 69, 110
7, 27262, Note_on_c, 13, 57, 0
7, 27262, Note_on_c, 13, 61, 0
7, 27262, Note_on_c, 13, 64, 0
7, 27328, Note_on_c, 13, 69, 0
7, 27360, Note_on_c, 13, 57, 110
7, 27360, Note_on_c, 13, 61, 110
7, 27360, Note_on_c, 13, 64, 110
7, 27360, Note_on_c, 13, 68, 110
7, 27454, Note_on_c, 13, 57, 0
7, 27454, Note_on_c, 13, 61, 0
7, 27454, Note_on_c, 13, 64, 0
7, 27456, Note_on_c, 13, 57, 110
7, 27456, Note_on_c, 13, 61, 110
7, 27456, Note_on_c, 13, 64, 110
7, 27520, Note_on_c, 13, 68, 0
7, 27550, Note_on_c, 13, 57, 0
7, 27550, Note_on_c, 13, 61, 0
7, 27550, Note_on_c, 13, 64, 0
7, 27552, Note_on_c, 13, 57, 110
7, 27552, Note_on_c, 13, 61, 110
7, 27552, Note_on_c, 13, 64, 110
7, 27646, Note_on_c, 13, 57, 0
7, 27646, Note_on_c, 13, 61, 0
7, 27808, Note_on_c, 13, 64, 0
7, 27840, Note_on_c, 13, 61, 110
7, 27840, Note_on_c, 13, 64, 110
7, 27840, Note_on_c, 13, 66, 110
7, 27840, Note_on_c, 13, 68, 110
7, 27934, Note_on_c, 13, 61, 0
7, 27934, Note_on_c, 13, 64, 0
7, 27934, Note_on_c, 13, 66, 0
7, 27934, Note_on_c, 13, 68, 0
7, 27936, Note_on_c, 13, 61, 110
7, 27936, Note_on_c, 13, 64, 110
7, 27936, Note_on_c, 13, 66, 110
7, 27936, Note_on_c, 13, 68, 110
7, 28030, Note_on_c, 13, 61, 0
7, 28030, Note_on_c, 13, 64, 0
7, 28030, Note_on_c, 13, 66, 0
7, 28030, Note_on_c, 13, 68, 0
7, 28128, Note_on_c, 13, 61, 110
7, 28128, Note_on_c, 13, 64, 110
7, 28128, Note_on_c, 13, 66, 110
7, 28128, Note_on_c, 13, 68, 110
7, 28222, Note_on_c, 13, 61, 0
7, 28222, Note_on_c, 13, 64, 0
7, 28222, Note_on_c, 13, 66, 0
7, 28222, Note_on_c, 13, 68, 0
7, 28224, Note_on_c, 13, 61, 110
7, 28224, Note_on_c, 13, 64, 110
7, 28224, Note_on_c, 13, 66, 110
7, 28224, Note_on_c, 13, 68, 110
7, 28318, Note_on_c, 13, 61, 0
7, 28318, Note_on_c, 13, 64, 0
7, 28318, Note_on_c, 13, 66, 0
7, 28318, Note_on_c, 13, 68, 0
7, 28320, Note_on_c, 13, 61, 110
7, 28320, Note_on_c, 13, 64, 110
7, 28320, Note_on_c, 13, 66, 110
7, 28320, Note_on_c, 13, 68, 110
7, 28414, Note_on_c, 13, 61, 0
7, 28414, Note_on_c, 13, 64, 0
7, 28414, Note_on_c, 13, 66, 0
7, 28414, Note_on_c, 13, 68, 0
7, 28608, Note_on_c, 13, 59, 110
7, 28608, Note_on_c, 13, 64, 110
7, 28608, Note_on_c, 13, 68, 110
7, 28702, Note_on_c, 13, 59, 0
7, 28702, Note_on_c, 13, 64, 0
7, 28702, Note_on_c, 13, 68, 0
7, 28704, Note_on_c, 13, 59, 110
7, 28704, Note_on_c, 13, 64, 110
7, 28704, Note_on_c, 13, 68, 110
7, 28798, Note_on_c, 13, 59, 0
7, 28798, Note_on_c, 13, 64, 0
7, 28798, Note_on_c, 13, 68, 0
7, 28896, Note_on_c, 13, 59, 110
7, 28896, Note_on_c, 13, 64, 110
7, 28896, Note_on_c, 13, 66, 110
7, 28896, Note_on_c, 13, 68, 110
7, 28990, Note_on_c, 13, 59, 0
7, 28990, Note_on_c, 13, 64, 0
7, 28990, Note_on_c, 13, 66, 0
7, 28990, Note_on_c, 13, 68, 0
7, 28992, Note_on_c, 13, 59, 110
7, 28992, Note_on_c, 13, 64, 110
7, 28992, Note_on_c, 13, 68, 110
7, 29086, Note_on_c, 13, 59, 0
7, 29086, Note_on_c, 13, 64, 0
7, 29086, Note_on_c, 13, 68, 0
7, 29088, Note_on_c, 13, 59, 110
7, 29088, Note_on_c, 13, 64, 110
7, 29088, Note_on_c, 13, 66, 110
7, 29088, Note_on_c, 13, 68, 110
7, 29182, Note_on_c, 13, 64, 0
7, 29182, Note_on_c, 13, 59, 0
7, 29182, Note_on_c, 13, 66, 0
7, 29182, Note_on_c, 13, 68, 0
7, 29280, Note_on_c, 13, 71, 110
7, 29376, Note_on_c, 13, 57, 110
7, 29376, Note_on_c, 13, 61, 110
7, 29376, Note_on_c, 13, 64, 110
7, 29470, Note_on_c, 13, 57, 0
7, 29470, Note_on_c, 13, 61, 0
7, 29470, Note_on_c, 13, 64, 0
7, 29470, Note_on_c, 13, 71, 0
7, 29472, Note_on_c, 13, 57, 110
7, 29472, Note_on_c, 13, 61, 110
7, 29472, Note_on_c, 13, 64, 110
7, 29472, Note_on_c, 13, 71, 110
7, 29566, Note_on_c, 13, 57, 0
7, 29566, Note_on_c, 13, 61, 0
7, 29566, Note_on_c, 13, 64, 0
7, 29566, Note_on_c, 13, 71, 0
7, 29664, Note_on_c, 13, 57, 110
7, 29664, Note_on_c, 13, 61, 110
7, 29664, Note_on_c, 13, 64, 110
7, 29664, Note_on_c, 13, 67, 110
7, 29758, Note_on_c, 13, 57, 0
7, 29758, Note_on_c, 13, 61, 0
7, 29758, Note_on_c, 13, 64, 0
7, 29760, Note_on_c, 13, 57, 110
7, 29760, Note_on_c, 13, 61, 110
7, 29760, Note_on_c, 13, 64, 110
7, 29854, Note_on_c, 13, 57, 0
7, 29854, Note_on_c, 13, 61, 0
7, 29854, Note_on_c, 13, 64, 0
7, 29856, Note_on_c, 13, 57, 110
7, 29856, Note_on_c, 13, 61, 110
7, 29856, Note_on_c, 13, 64, 110
7, 29950, Note_on_c, 13, 57, 0
7, 29950, Note_on_c, 13, 61, 0
7, 29950, Note_on_c, 13, 64, 0
7, 30000, Note_on_c, 13, 67, 0
7, 30144, Note_on_c, 13, 59, 110
7, 30144, Note_on_c, 13, 63, 110
7, 30144, Note_on_c, 13, 66, 110
7, 30238, Note_on_c, 13, 59, 0
7, 30238, Note_on_c, 13, 63, 0
7, 30238, Note_on_c, 13, 66, 0
7, 30240, Note_on_c, 13, 59, 110
7, 30240, Note_on_c, 13, 63, 110
7, 30240, Note_on_c, 13, 66, 110
7, 30334, Note_on_c, 13, 59, 0
7, 30334, Note_on_c, 13, 63, 0
7, 30334, Note_on_c, 13, 66, 0
7, 30432, Note_on_c, 13, 59, 110
7, 30432, Note_on_c, 13, 63, 110
7, 30432, Note_on_c, 13, 66, 110
7, 30526, Note_on_c, 13, 59, 0
7, 30526, Note_on_c, 13, 63, 0
7, 30526, Note_on_c, 13, 66, 0
7, 30528, Note_on_c, 13, 59, 110
7, 30528, Note_on_c, 13, 63, 110
7, 30528, Note_on_c, 13, 66, 110
7, 30622, Note_on_c, 13, 59, 0
7, 30622, Note_on_c, 13, 63, 0
7, 30622, Note_on_c, 13, 66, 0
7, 30624, Note_on_c, 13, 59, 110
7, 30624, Note_on_c, 13, 63, 110
7, 30624, Note_on_c, 13, 66, 110
7, 30718, Note_on_c, 13, 59, 0
7, 30718, Note_on_c, 13, 63, 0
7, 30718, Note_on_c, 13, 66, 0
7, 30912, Note_on_c, 13, 61, 110
7, 30912, Note_on_c, 13, 64, 110
7, 30912, Note_on_c, 13, 66, 110
7, 30912, Note_on_c, 13, 68, 110
7, 31006, Note_on_c, 13, 61, 0
7, 31006, Note_on_c, 13, 64, 0
7, 31006, Note_on_c, 13, 66, 0
7, 31006, Note_on_c, 13, 68, 0
7, 31008, Note_on_c, 13, 61, 110
7, 31008, Note_on_c, 13, 64, 110
7, 31008, Note_on_c, 13, 66, 110
7, 31008, Note_on_c, 13, 68, 110
7, 31102, Note_on_c, 13, 61, 0
7, 31102, Note_on_c, 13, 64, 0
7, 31102, Note_on_c, 13, 66, 0
7, 31102, Note_on_c, 13, 68, 0
7, 31200, Note_on_c, 13, 61, 110
7, 31200, Note_on_c, 13, 64, 110
7, 31200, Note_on_c, 13, 66, 110
7, 31200, Note_on_c, 13, 68, 110
7, 31294, Note_on_c, 13, 61, 0
7, 31294, Note_on_c, 13, 64, 0
7, 31294, Note_on_c, 13, 66, 0
7, 31294, Note_on_c, 13, 68, 0
7, 31296, Note_on_c, 13, 61, 110
7, 31296, Note_on_c, 13, 64, 110
7, 31296, Note_on_c, 13, 66, 110
7, 31296, Note_on_c, 13, 68, 110
7, 31390, Note_on_c, 13, 61, 0
7, 31390, Note_on_c, 13, 64, 0
7, 31390, Note_on_c, 13, 66, 0
7, 31390, Note_on_c, 13, 68, 0
7, 31392, Note_on_c, 13, 61, 110
7, 31392, Note_on_c, 13, 64, 110
7, 31392, Note_on_c, 13, 66, 110
7, 31392, Note_on_c, 13, 68, 110
7, 31486, Note_on_c, 13, 61, 0
7, 31486, Note_on_c, 13, 64, 0
7, 31486, Note_on_c, 13, 66, 0
7, 31486, Note_on_c, 13, 68, 0
7, 31584, Note_on_c, 13, 61, 110
7, 31584, Note_on_c, 13, 64, 110
7, 31584, Note_on_c, 13, 66, 110
7, 31584, Note_on_c, 13, 68, 110
7, 31678, Note_on_c, 13, 61, 0
7, 31678, Note_on_c, 13, 64, 0
7, 31678, Note_on_c, 13, 66, 0
7, 31678, Note_on_c, 13, 68, 0
7, 31680, Note_on_c, 13, 61, 110
7, 31680, Note_on_c, 13, 64, 110
7, 31680, Note_on_c, 13, 66, 110
7, 31680, Note_on_c, 13, 68, 110
7, 31774, Note_on_c, 13, 61, 0
7, 31774, Note_on_c, 13, 64, 0
7, 31774, Note_on_c, 13, 66, 0
7, 31774, Note_on_c, 13, 68, 0
7, 31776, Note_on_c, 13, 61, 110
7, 31776, Note_on_c, 13, 64, 110
7, 31776, Note_on_c, 13, 66, 110
7, 31776, Note_on_c, 13, 68, 110
7, 31870, Note_on_c, 13, 61, 0
7, 31870, Note_on_c, 13, 64, 0
7, 31870, Note_on_c, 13, 66, 0
7, 31870, Note_on_c, 13, 68, 0
7, 31968, Note_on_c, 13, 61, 110
7, 31968, Note_on_c, 13, 64, 110
7, 31968, Note_on_c, 13, 66, 110
7, 31968, Note_on_c, 13, 68, 110
7, 32062, Note_on_c, 13, 61, 0
7, 32062, Note_on_c, 13, 64, 0
7, 32062, Note_on_c, 13, 66, 0
7, 32062, Note_on_c, 13, 68, 0
7, 32064, Note_on_c, 13, 61, 110
7, 32064, Note_on_c, 13, 64, 110
7, 32064, Note_on_c, 13, 66, 110
7, 32064, Note_on_c, 13, 68, 110
7, 32158, Note_on_c, 13, 61, 0
7, 32158, Note_on_c, 13, 64, 0
7, 32158, Note_on_c, 13, 66, 0
7, 32158, Note_on_c, 13, 68, 0
7, 32160, Note_on_c, 13, 61, 110
7, 32160, Note_on_c, 13, 64, 110
7, 32160, Note_on_c, 13, 66, 110
7, 32160, Note_on_c, 13, 68, 110
7, 32254, Note_on_c, 13, 61, 0
7, 32254, Note_on_c, 13, 64, 0
7, 32254, Note_on_c, 13, 66, 0
7, 32254, Note_on_c, 13, 68, 0
7, 32448, Note_on_c, 13, 59, 110
7, 32448, Note_on_c, 13, 63, 110
7, 32448, Note_on_c, 13, 66, 110
7, 32542, Note_on_c, 13, 59, 0
7, 32542, Note_on_c, 13, 63, 0
7, 32542, Note_on_c, 13, 66, 0
7, 32544, Note_on_c, 13, 59, 110
7, 32544, Note_on_c, 13, 63, 110
7, 32544, Note_on_c, 13, 66, 110
7, 32638, Note_on_c, 13, 59, 0
7, 32638, Note_on_c, 13, 63, 0
7, 32638, Note_on_c, 13, 66, 0
7, 32736, Note_on_c, 13, 59, 110
7, 32736, Note_on_c, 13, 63, 110
7, 32736, Note_on_c, 13, 66, 110
7, 32830, Note_on_c, 13, 59, 0
7, 32830, Note_on_c, 13, 63, 0
7, 32830, Note_on_c, 13, 66, 0
7, 32832, Note_on_c, 13, 59, 110
7, 32832, Note_on_c, 13, 63, 110
7, 32832, Note_on_c, 13, 66, 110
7, 32926, Note_on_c, 13, 59, 0
7, 32926, Note_on_c, 13, 63, 0
7, 32926, Note_on_c, 13, 66, 0
7, 32928, Note_on_c, 13, 59, 110
7, 32928, Note_on_c, 13, 63, 110
7, 32928, Note_on_c, 13, 66, 110
7, 33022, Note_on_c, 13, 59, 0
7, 33022, Note_on_c, 13, 63, 0
7, 33022, Note_on_c, 13, 66, 0
7, 33120, Note_on_c, 13, 71, 110
7, 33216, Note_on_c, 13, 57, 110
7, 33216, Note_on_c, 13, 61, 110
7, 33216, Note_on_c, 13, 64, 110
7, 33310, Note_on_c, 13, 57, 0
7, 33310, Note_on_c, 13, 61, 0
7, 33310, Note_on_c, 13, 64, 0
7, 33310, Note_on_c, 13, 71, 0
7, 33312, Note_on_c, 13, 57, 110
7, 33312, Note_on_c, 13, 61, 110
7, 33312, Note_on_c, 13, 64, 110
7, 33312, Note_on_c, 13, 69, 110
7, 33406, Note_on_c, 13, 57, 0
7, 33406, Note_on_c, 13, 61, 0
7, 33406, Note_on_c, 13, 64, 0
7, 33472, Note_on_c, 13, 69, 0
7, 33504, Note_on_c, 13, 57, 110
7, 33504, Note_on_c, 13, 61, 110
7, 33504, Note_on_c, 13, 64, 110
7, 33504, Note_on_c, 13, 68, 110
7, 33598, Note_on_c, 13, 57, 0
7, 33598, Note_on_c, 13, 61, 0
7, 33598, Note_on_c, 13, 64, 0
7, 33600, Note_on_c, 13, 57, 110
7, 33600, Note_on_c, 13, 61, 110
7, 33600, Note_on_c, 13, 64, 110
7, 33664, Note_on_c, 13, 68, 0
7, 33694, Note_on_c, 13, 57, 0
7, 33694, Note_on_c, 13, 61, 0
7, 33694, Note_on_c, 13, 64, 0
7, 33696, Note_on_c, 13, 57, 110
7, 33696, Note_on_c, 13, 61, 110
7, 33696, Note_on_c, 13, 64, 110
7, 33790, Note_on_c, 13, 57, 0
7, 33790, Note_on_c, 13, 61, 0
7, 33952, Note_on_c, 13, 64, 0
7, 33984, Note_on_c, 13, 61, 110
7, 33984, Note_on_c, 13, 64, 110
7, 33984, Note_on_c, 13, 66, 110
7, 33984, Note_on_c, 13, 68, 110
7, 34078, Note_on_c, 13, 61, 0
7, 34078, Note_on_c, 13, 64, 0
7, 34078, Note_on_c, 13, 66, 0
7, 34078, Note_on_c, 13, 68, 0
7, 34080, Note_on_c, 13, 61, 110
7, 34080, Note_on_c, 13, 64, 110
7, 34080, Note_on_c, 13, 66, 110
7, 34080, Note_on_c, 13, 68, 110
7, 34174, Note_on_c, 13, 61, 0
7, 34174, Note_on_c, 13, 64, 0
7, 34174, Note_on_c, 13, 66, 0
7, 34174, Note_on_c, 13, 68, 0
7, 34272, Note_on_c, 13, 61, 110
7, 34272, Note_on_c, 13, 64, 110
7, 34272, Note_on_c, 13, 66, 110
7, 34272, Note_on_c, 13, 68, 110
7, 34366, Note_on_c, 13, 61, 0
7, 34366, Note_on_c, 13, 64, 0
7, 34366, Note_on_c, 13, 66, 0
7, 34366, Note_on_c, 13, 68, 0
7, 34368, Note_on_c, 13, 61, 110
7, 34368, Note_on_c, 13, 64, 110
7, 34368, Note_on_c, 13, 66, 110
7, 34368, Note_on_c, 13, 68, 110
7, 34462, Note_on_c, 13, 61, 0
7, 34462, Note_on_c, 13, 64, 0
7, 34462, Note_on_c, 13, 66, 0
7, 34462, Note_on_c, 13, 68, 0
7, 34464, Note_on_c, 13, 61, 110
7, 34464, Note_on_c, 13, 64, 110
7, 34464, Note_on_c, 13, 66, 110
7, 34464, Note_on_c, 13, 68, 110
7, 34558, Note_on_c, 13, 61, 0
7, 34558, Note_on_c, 13, 64, 0
7, 34558, Note_on_c, 13, 66, 0
7, 34558, Note_on_c, 13, 68, 0
7, 34752, Note_on_c, 13, 59, 110
7, 34752, Note_on_c, 13, 64, 110
7, 34752, Note_on_c, 13, 68, 110
7, 34846, Note_on_c, 13, 59, 0
7, 34846, Note_on_c, 13, 64, 0
7, 34846, Note_on_c, 13, 68, 0
7, 34848, Note_on_c, 13, 59, 110
7, 34848, Note_on_c, 13, 64, 110
7, 34848, Note_on_c, 13, 68, 110
7, 34942, Note_on_c, 13, 59, 0
7, 34942, Note_on_c, 13, 64, 0
7, 34942, Note_on_c, 13, 68, 0
7, 35040, Note_on_c, 13, 59, 110
7, 35040, Note_on_c, 13, 64, 110
7, 35040, Note_on_c, 13, 66, 110
7, 35040, Note_on_c, 13, 68, 110
7, 35134, Note_on_c, 13, 59, 0
7, 35134, Note_on_c, 13, 64, 0
7, 35134, Note_on_c, 13, 66, 0
7, 35134, Note_on_c, 13, 68, 0
7, 35136, Note_on_c, 13, 59, 110
7, 35136, Note_on_c, 13, 64, 110
7, 35136, Note_on_c, 13, 68, 110
7, 35230, Note_on_c, 13, 59, 0
7, 35230, Note_on_c, 13, 64, 0
7, 35230, Note_on_c, 13, 68, 0
7, 35232, Note_on_c, 13, 59, 110
7, 35232, Note_on_c, 13, 64, 110
7, 35232, Note_on_c, 13, 66, 110
7, 35232, Note_on_c, 13, 68, 110
7, 35326, Note_on_c, 13, 59, 0
7, 35326, Note_on_c, 13, 64, 0
7, 35326, Note_on_c, 13, 66, 0
7, 35326, Note_on_c, 13, 68, 0
7, 35424, Note_on_c, 13, 71, 110
7, 35520, Note_on_c, 13, 57, 110
7, 35520, Note_on_c, 13, 61, 110
7, 35520, Note_on_c, 13, 64, 110
7, 35614, Note_on_c, 13, 57, 0
7, 35614, Note_on_c, 13, 61, 0
7, 35614, Note_on_c, 13, 64, 0
7, 35614, Note_on_c, 13, 71, 0
7, 35616, Note_on_c, 13, 57, 110
7, 35616, Note_on_c, 13, 61, 110
7, 35616, Note_on_c, 13, 64, 110
7, 35616, Note_on_c, 13, 71, 110
7, 35710, Note_on_c, 13, 57, 0
7, 35710, Note_on_c, 13, 61, 0
7, 35710, Note_on_c, 13, 64, 0
7, 35710, Note_on_c, 13, 71, 0
7, 35808, Note_on_c, 13, 57, 110
7, 35808, Note_on_c, 13, 61, 110
7, 35808, Note_on_c, 13, 64, 110
7, 35808, Note_on_c, 13, 67, 110
7, 35902, Note_on_c, 13, 57, 0
7, 35902, Note_on_c, 13, 61, 0
7, 35902, Note_on_c, 13, 64, 0
7, 35904, Note_on_c, 13, 57, 110
7, 35904, Note_on_c, 13, 61, 110
7, 35904, Note_on_c, 13, 64, 110
7, 35968, Note_on_c, 13, 67, 0
7, 35998, Note_on_c, 13, 57, 0
7, 35998, Note_on_c, 13, 61, 0
7, 35998, Note_on_c, 13, 64, 0
7, 36000, Note_on_c, 13, 57, 110
7, 36000, Note_on_c, 13, 61, 110
7, 36000, Note_on_c, 13, 64, 110
7, 36000, Note_on_c, 13, 67, 110
7, 36094, Note_on_c, 13, 57, 0
7, 36094, Note_on_c, 13, 61, 0
7, 36094, Note_on_c, 13, 64, 0
7, 36094, Note_on_c, 13, 67, 0
7, 36288, Note_on_c, 13, 66, 110
7, 36448, Note_on_c, 13, 66, 0
7, 36480, Note_on_c, 13, 62, 110
7, 36480, Note_on_c, 13, 66, 110
7, 36480, Note_on_c, 13, 69, 110
7, 36574, Note_on_c, 13, 62, 0
7, 36574, Note_on_c, 13, 66, 0
7, 36574, Note_on_c, 13, 69, 0
7, 36864, Note_on_c, 13, 62, 110
7, 36864, Note_on_c, 13, 66, 110
7, 36864, Note_on_c, 13, 69, 110
7, 36958, Note_on_c, 13, 62, 0
7, 36958, Note_on_c, 13, 66, 0
7, 36958, Note_on_c, 13, 69, 0
7, 37248, Note_on_c, 13, 62, 110
7, 37248, Note_on_c, 13, 66, 110
7, 37248, Note_on_c, 13, 69, 110
7, 37342, Note_on_c, 13, 62, 0
7, 37342, Note_on_c, 13, 66, 0
7, 37342, Note_on_c, 13, 69, 0
7, 37632, Note_on_c, 13, 62, 110
7, 37632, Note_on_c, 13, 66, 110
7, 37632, Note_on_c, 13, 69, 110
7, 37726, Note_on_c, 13, 62, 0
7, 37726, Note_on_c, 13, 66, 0
7, 37726, Note_on_c, 13, 69, 0
7, 38016, Note_on_c, 13, 57, 110
7, 38016, Note_on_c, 13, 61, 110
7, 38016, Note_on_c, 13, 64, 110
7, 38110, Note_on_c, 13, 57, 0
7, 38110, Note_on_c, 13, 61, 0
7, 38110, Note_on_c, 13, 64, 0
7, 38400, Note_on_c, 13, 57, 110
7, 38400, Note_on_c, 13, 61, 110
7, 38400, Note_on_c, 13, 64, 110
7, 38494, Note_on_c, 13, 57, 0
7, 38494, Note_on_c, 13, 61, 0
7, 38494, Note_on_c, 13, 64, 0
7, 38784, Note_on_c, 13, 57, 110
7, 38784, Note_on_c, 13, 61, 110
7, 38784, Note_on_c, 13, 64, 110
7, 38878, Note_on_c, 13, 57, 0
7, 38878, Note_on_c, 13, 61, 0
7, 38878, Note_on_c, 13, 64, 0
7, 39360, Note_on_c, 13, 59, 110
7, 39360, Note_on_c, 13, 63, 110
7, 39360, Note_on_c, 13, 66, 110
7, 39454, Note_on_c, 13, 59, 0
7, 39454, Note_on_c, 13, 63, 0
7, 39454, Note_on_c, 13, 66, 0
7, 39456, Note_on_c, 13, 59, 110
7, 39456, Note_on_c, 13, 63, 110
7, 39456, Note_on_c, 13, 66, 110
7, 39550, Note_on_c, 13, 59, 0
7, 39550, Note_on_c, 13, 63, 0
7, 39550, Note_on_c, 13, 66, 0
7, 39648, Note_on_c, 13, 59, 110
7, 39648, Note_on_c, 13, 63, 110
7, 39648, Note_on_c, 13, 66, 110
7, 39742, Note_on_c, 13, 59, 0
7, 39742, Note_on_c, 13, 63, 0
7, 39742, Note_on_c, 13, 66, 0
7, 39744, Note_on_c, 13, 59, 110
7, 39744, Note_on_c, 13, 63, 110
7, 39744, Note_on_c, 13, 66, 110
7, 39838, Note_on_c, 13, 59, 0
7, 39838, Note_on_c, 13, 63, 0
7, 39838, Note_on_c, 13, 66, 0
7, 39840, Note_on_c, 13, 59, 110
7, 39840, Note_on_c, 13, 63, 110
7, 39840, Note_on_c, 13, 66, 110
7, 39934, Note_on_c, 13, 59, 0
7, 39934, Note_on_c, 13, 63, 0
7, 39934, Note_on_c, 13, 66, 0
7, 40032, Note_on_c, 13, 59, 110
7, 40032, Note_on_c, 13, 63, 110
7, 40032, Note_on_c, 13, 66, 110
7, 40126, Note_on_c, 13, 59, 0
7, 40126, Note_on_c, 13, 63, 0
7, 40126, Note_on_c, 13, 66, 0
7, 40128, Note_on_c, 13, 59, 110
7, 40128, Note_on_c, 13, 64, 110
7, 40128, Note_on_c, 13, 66, 110
7, 40222, Note_on_c, 13, 59, 0
7, 40222, Note_on_c, 13, 64, 0
7, 40222, Note_on_c, 13, 66, 0
7, 40224, Note_on_c, 13, 59, 110
7, 40224, Note_on_c, 13, 63, 110
7, 40224, Note_on_c, 13, 66, 110
7, 40318, Note_on_c, 13, 59, 0
7, 40318, Note_on_c, 13, 63, 0
7, 40318, Note_on_c, 13, 66, 0
7, 40416, Note_on_c, 13, 59, 110
7, 40416, Note_on_c, 13, 63, 110
7, 40416, Note_on_c, 13, 66, 110
7, 40510, Note_on_c, 13, 59, 0
7, 40510, Note_on_c, 13, 63, 0
7, 40510, Note_on_c, 13, 66, 0
7, 40512, Note_on_c, 13, 59, 110
7, 40512, Note_on_c, 13, 64, 110
7, 40512, Note_on_c, 13, 66, 110
7, 40606, Note_on_c, 13, 59, 0
7, 40606, Note_on_c, 13, 64, 0
7, 40606, Note_on_c, 13, 66, 0
7, 40608, Note_on_c, 13, 59, 110
7, 40608, Note_on_c, 13, 63, 110
7, 40608, Note_on_c, 13, 66, 110
7, 40702, Note_on_c, 13, 59, 0
7, 40702, Note_on_c, 13, 63, 0
7, 40702, Note_on_c, 13, 66, 0
7, 40704, Note_on_c, 13, 59, 110
7, 40704, Note_on_c, 13, 63, 110
7, 40704, Note_on_c, 13, 66, 110
7, 40798, Note_on_c, 13, 59, 0
7, 40798, Note_on_c, 13, 63, 0
7, 40798, Note_on_c, 13, 66, 0
7, 40896, Note_on_c, 13, 57, 110
7, 40896, Note_on_c, 13, 60, 110
7, 40896, Note_on_c, 13, 64, 110
7, 40990, Note_on_c, 13, 57, 0
7, 40990, Note_on_c, 13, 60, 0
7, 40990, Note_on_c, 13, 64, 0
7, 40992, Note_on_c, 13, 57, 110
7, 40992, Note_on_c, 13, 60, 110
7, 40992, Note_on_c, 13, 64, 110
7, 41086, Note_on_c, 13, 57, 0
7, 41086, Note_on_c, 13, 60, 0
7, 41086, Note_on_c, 13, 64, 0
7, 41184, Note_on_c, 13, 57, 110
7, 41184, Note_on_c, 13, 60, 110
7, 41184, Note_on_c, 13, 64, 110
7, 41278, Note_on_c, 13, 57, 0
7, 41278, Note_on_c, 13, 60, 0
7, 41278, Note_on_c, 13, 64, 0
7, 41280, Note_on_c, 13, 57, 110
7, 41280, Note_on_c, 13, 60, 110
7, 41280, Note_on_c, 13, 64, 110
7, 41374, Note_on_c, 13, 57, 0
7, 41374, Note_on_c, 13, 60, 0
7, 41374, Note_on_c, 13, 64, 0
7, 41376, Note_on_c, 13, 57, 110
7, 41376, Note_on_c, 13, 60, 110
7, 41376, Note_on_c, 13, 64, 110
7, 41470, Note_on_c, 13, 57, 0
7, 41470, Note_on_c, 13, 60, 0
7, 41470, Note_on_c, 13, 64, 0
7, 41568, Note_on_c, 13, 66, 110
7, 41664, Note_on_c, 13, 59, 110
7, 41664, Note_on_c, 13, 64, 110
7, 41664, Note_on_c, 13, 68, 110
7, 41758, Note_on_c, 13, 59, 0
7, 41758, Note_on_c, 13, 64, 0
7, 41758, Note_on_c, 13, 66, 0
7, 41758, Note_on_c, 13, 68, 0
7, 41760, Note_on_c, 13, 59, 110
7, 41760, Note_on_c, 13, 64, 110
7, 41760, Note_on_c, 13, 66, 110
7, 41760, Note_on_c, 13, 68, 110
7, 41854, Note_on_c, 13, 59, 0
7, 41854, Note_on_c, 13, 64, 0
7, 41854, Note_on_c, 13, 66, 0
7, 41854, Note_on_c, 13, 68, 0
7, 41952, Note_on_c, 13, 59, 110
7, 41952, Note_on_c, 13, 64, 110
7, 41952, Note_on_c, 13, 68, 110
7, 42046, Note_on_c, 13, 59, 0
7, 42046, Note_on_c, 13, 64, 0
7, 42046, Note_on_c, 13, 68, 0
7, 42048, Note_on_c, 13, 59, 110
7, 42048, Note_on_c, 13, 68, 110
7, 42142, Note_on_c, 13, 59, 0
7, 42142, Note_on_c, 13, 68, 0
7, 42144, Note_on_c, 13, 59, 110
7, 42144, Note_on_c, 13, 64, 110
7, 42144, Note_on_c, 13, 68, 110
7, 42238, Note_on_c, 13, 59, 0
7, 42238, Note_on_c, 13, 64, 0
7, 42238, Note_on_c, 13, 68, 0
7, 42240, Note_on_c, 13, 64, 110
7, 42334, Note_on_c, 13, 64, 0
7, 42432, Note_on_c, 13, 55, 110
7, 42432, Note_on_c, 13, 59, 110
7, 42432, Note_on_c, 13, 62, 110
7, 42526, Note_on_c, 13, 55, 0
7, 42526, Note_on_c, 13, 59, 0
7, 42526, Note_on_c, 13, 62, 0
7, 42528, Note_on_c, 13, 55, 110
7, 42528, Note_on_c, 13, 59, 110
7, 42528, Note_on_c, 13, 62, 110
7, 42622, Note_on_c, 13, 55, 0
7, 42622, Note_on_c, 13, 59, 0
7, 42622, Note_on_c, 13, 62, 0
7, 42720, Note_on_c, 13, 55, 110
7, 42720, Note_on_c, 13, 59, 110
7, 42720, Note_on_c, 13, 62, 110
7, 42814, Note_on_c, 13, 55, 0
7, 42814, Note_on_c, 13, 59, 0
7, 42814, Note_on_c, 13, 62, 0
7, 42816, Note_on_c, 13, 55, 110
7, 42816, Note_on_c, 13, 59, 110
7, 42816, Note_on_c, 13, 62, 110
7, 42910, Note_on_c, 13, 55, 0
7, 42910, Note_on_c, 13, 59, 0
7, 42910, Note_on_c, 13, 62, 0
7, 42912, Note_on_c, 13, 55, 110
7, 42912, Note_on_c, 13, 59, 110
7, 42912, Note_on_c, 13, 62, 110
7, 43006, Note_on_c, 13, 55, 0
7, 43006, Note_on_c, 13, 59, 0
7, 43006, Note_on_c, 13, 62, 0
7, 43200, Note_on_c, 13, 53, 110
7, 43200, Note_on_c, 13, 57, 110
7, 43200, Note_on_c, 13, 60, 110
7, 43294, Note_on_c, 13, 53, 0
7, 43294, Note_on_c, 13, 57, 0
7, 43294, Note_on_c, 13, 60, 0
7, 43296, Note_on_c, 13, 53, 110
7, 43296, Note_on_c, 13, 57, 110
7, 43296, Note_on_c, 13, 60, 110
7, 43390, Note_on_c, 13, 53, 0
7, 43390, Note_on_c, 13, 57, 0
7, 43390, Note_on_c, 13, 60, 0
7, 43488, Note_on_c, 13, 53, 110
7, 43488, Note_on_c, 13, 57, 110
7, 43488, Note_on_c, 13, 60, 110
7, 43582, Note_on_c, 13, 53, 0
7, 43582, Note_on_c, 13, 57, 0
7, 43582, Note_on_c, 13, 60, 0
7, 43584, Note_on_c, 13, 53, 110
7, 43584, Note_on_c, 13, 57, 110
7, 43584, Note_on_c, 13, 60, 110
7, 43678, Note_on_c, 13, 53, 0
7, 43678, Note_on_c, 13, 57, 0
7, 43678, Note_on_c, 13, 60, 0
7, 43680, Note_on_c, 13, 53, 110
7, 43680, Note_on_c, 13, 57, 110
7, 43680, Note_on_c, 13, 60, 110
7, 43774, Note_on_c, 13, 53, 0
7, 43774, Note_on_c, 13, 57, 0
7, 43774, Note_on_c, 13, 60, 0
7, 43968, Note_on_c, 13, 58, 110
7, 43968, Note_on_c, 13, 62, 110
7, 43968, Note_on_c, 13, 65, 110
7, 44062, Note_on_c, 13, 58, 0
7, 44062, Note_on_c, 13, 62, 0
7, 44062, Note_on_c, 13, 65, 0
7, 44064, Note_on_c, 13, 58, 110
7, 44064, Note_on_c, 13, 62, 110
7, 44064, Note_on_c, 13, 65, 110
7, 44158, Note_on_c, 13, 58, 0
7, 44158, Note_on_c, 13, 62, 0
7, 44158, Note_on_c, 13, 65, 0
7, 44160, Note_on_c, 13, 67, 110
7, 44254, Note_on_c, 13, 67, 0
7, 44256, Note_on_c, 13, 58, 110
7, 44256, Note_on_c, 13, 62, 110
7, 44256, Note_on_c, 13, 65, 110
7, 44350, Note_on_c, 13, 58, 0
7, 44350, Note_on_c, 13, 62, 0
7, 44350, Note_on_c, 13, 65, 0
7, 44352, Note_on_c, 13, 58, 110
7, 44352, Note_on_c, 13, 62, 110
7, 44352, Note_on_c, 13, 65, 110
7, 44446, Note_on_c, 13, 58, 0
7, 44446, Note_on_c, 13, 62, 0
7, 44446, Note_on_c, 13, 65, 0
7, 44448, Note_on_c, 13, 58, 110
7, 44448, Note_on_c, 13, 62, 110
7, 44448, Note_on_c, 13, 65, 110
7, 44542, Note_on_c, 13, 58, 0
7, 44542, Note_on_c, 13, 62, 0
7, 44542, Note_on_c, 13, 65, 0
7, 44544, Note_on_c, 13, 67, 110
7, 44638, Note_on_c, 13, 67, 0
7, 44736, Note_on_c, 13, 61, 110
7, 44736, Note_on_c, 13, 65, 110
7, 44736, Note_on_c, 13, 68, 110
7, 44830, Note_on_c, 13, 61, 0
7, 44830, Note_on_c, 13, 65, 0
7, 44830, Note_on_c, 13, 68, 0
7, 44832, Note_on_c, 13, 61, 110
7, 44832, Note_on_c, 13, 65, 110
7, 44832, Note_on_c, 13, 68, 110
7, 44926, Note_on_c, 13, 61, 0
7, 44926, Note_on_c, 13, 65, 0
7, 44926, Note_on_c, 13, 68, 0
7, 45024, Note_on_c, 13, 61, 110
7, 45024, Note_on_c, 13, 65, 110
7, 45024, Note_on_c, 13, 68, 110
7, 45118, Note_on_c, 13, 61, 0
7, 45118, Note_on_c, 13, 65, 0
7, 45118, Note_on_c, 13, 68, 0
7, 45120, Note_on_c, 13, 61, 110
7, 45120, Note_on_c, 13, 65, 110
7, 45120, Note_on_c, 13, 68, 110
7, 45214, Note_on_c, 13, 61, 0
7, 45214, Note_on_c, 13, 65, 0
7, 45214, Note_on_c, 13, 68, 0
7, 45216, Note_on_c, 13, 61, 110
7, 45216, Note_on_c, 13, 65, 110
7, 45216, Note_on_c, 13, 68, 110
7, 45310, Note_on_c, 13, 61, 0
7, 45310, Note_on_c, 13, 65, 0
7, 45310, Note_on_c, 13, 68, 0
7, 45504, Note_on_c, 13, 59, 110
7, 45504, Note_on_c, 13, 63, 110
7, 45504, Note_on_c, 13, 66, 110
7, 45598, Note_on_c, 13, 59, 0
7, 45598, Note_on_c, 13, 63, 0
7, 45598, Note_on_c, 13, 66, 0
7, 45600, Note_on_c, 13, 59, 110
7, 45600, Note_on_c, 13, 63, 110
7, 45600, Note_on_c, 13, 66, 110
7, 45694, Note_on_c, 13, 59, 0
7, 45694, Note_on_c, 13, 63, 0
7, 45694, Note_on_c, 13, 66, 0
7, 45792, Note_on_c, 13, 59, 110
7, 45792, Note_on_c, 13, 63, 110
7, 45792, Note_on_c, 13, 66, 110
7, 45886, Note_on_c, 13, 59, 0
7, 45886, Note_on_c, 13, 63, 0
7, 45886, Note_on_c, 13, 66, 0
7, 45888, Note_on_c, 13, 59, 110
7, 45888, Note_on_c, 13, 63, 110
7, 45888, Note_on_c, 13, 66, 110
7, 45982, Note_on_c, 13, 59, 0
7, 45982, Note_on_c, 13, 63, 0
7, 45982, Note_on_c, 13, 66, 0
7, 45984, Note_on_c, 13, 59, 110
7, 45984, Note_on_c, 13, 63, 110
7, 45984, Note_on_c, 13, 66, 110
7, 46078, Note_on_c, 13, 59, 0
7, 46078, Note_on_c, 13, 63, 0
7, 46078, Note_on_c, 13, 66, 0
7, 46176, Note_on_c, 13, 59, 110
7, 46176, Note_on_c, 13, 63, 110
7, 46176, Note_on_c, 13, 66, 110
7, 46270, Note_on_c, 13, 59, 0
7, 46270, Note_on_c, 13, 63, 0
7, 46270, Note_on_c, 13, 66, 0
7, 46272, Note_on_c, 13, 59, 110
7, 46272, Note_on_c, 13, 64, 110
7, 46272, Note_on_c, 13, 66, 110
7, 46366, Note_on_c, 13, 59, 0
7, 46366, Note_on_c, 13, 64, 0
7, 46366, Note_on_c, 13, 66, 0
7, 46368, Note_on_c, 13, 59, 110
7, 46368, Note_on_c, 13, 63, 110
7, 46368, Note_on_c, 13, 66, 110
7, 46462, Note_on_c, 13, 59, 0
7, 46462, Note_on_c, 13, 63, 0
7, 46462, Note_on_c, 13, 66, 0
7, 46560, Note_on_c, 13, 59, 110
7, 46560, Note_on_c, 13, 63, 110
7, 46560, Note_on_c, 13, 66, 110
7, 46654, Note_on_c, 13, 59, 0
7, 46654, Note_on_c, 13, 63, 0
7, 46654, Note_on_c, 13, 66, 0
7, 46656, Note_on_c, 13, 59, 110
7, 46656, Note_on_c, 13, 64, 110
7, 46656, Note_on_c, 13, 66, 110
7, 46750, Note_on_c, 13, 59, 0
7, 46750, Note_on_c, 13, 64, 0
7, 46750, Note_on_c, 13, 66, 0
7, 46752, Note_on_c, 13, 59, 110
7, 46752, Note_on_c, 13, 63, 110
7, 46752, Note_on_c, 13, 66, 110
7, 46846, Note_on_c, 13, 59, 0
7, 46846, Note_on_c, 13, 63, 0
7, 46846, Note_on_c, 13, 66, 0
7, 46848, Note_on_c, 13, 59, 110
7, 46848, Note_on_c, 13, 63, 110
7, 46848, Note_on_c, 13, 66, 110
7, 46942, Note_on_c, 13, 59, 0
7, 46942, Note_on_c, 13, 63, 0
7, 46942, Note_on_c, 13, 66, 0
7, 47040, Note_on_c, 13, 57, 110
7, 47040, Note_on_c, 13, 60, 110
7, 47040, Note_on_c, 13, 64, 110
7, 47134, Note_on_c, 13, 57, 0
7, 47134, Note_on_c, 13, 60, 0
7, 47134, Note_on_c, 13, 64, 0
7, 47136, Note_on_c, 13, 57, 110
7, 47136, Note_on_c, 13, 60, 110
7, 47136, Note_on_c, 13, 64, 110
7, 47230, Note_on_c, 13, 57, 0
7, 47230, Note_on_c, 13, 60, 0
7, 47230, Note_on_c, 13, 64, 0
7, 47328, Note_on_c, 13, 57, 110
7, 47328, Note_on_c, 13, 60, 110
7, 47328, Note_on_c, 13, 64, 110
7, 47422, Note_on_c, 13, 57, 0
7, 47422, Note_on_c, 13, 60, 0
7, 47422, Note_on_c, 13, 64, 0
7, 47424, Note_on_c, 13, 57, 110
7, 47424, Note_on_c, 13, 60, 110
7, 47424, Note_on_c, 13, 64, 110
7, 47518, Note_on_c, 13, 57, 0
7, 47518, Note_on_c, 13, 60, 0
7, 47518, Note_on_c, 13, 64, 0
7, 47520, Note_on_c, 13, 57, 110
7, 47520, Note_on_c, 13, 60, 110
7, 47520, Note_on_c, 13, 64, 110
7, 47614, Note_on_c, 13, 57, 0
7, 47614, Note_on_c, 13, 60, 0
7, 47614, Note_on_c, 13, 64, 0
7, 47712, Note_on_c, 13, 66, 110
7, 47808, Note_on_c, 13, 59, 110
7, 47808, Note_on_c, 13, 64, 110
7, 47808, Note_on_c, 13, 68, 110
7, 47902, Note_on_c, 13, 59, 0
7, 47902, Note_on_c, 13, 64, 0
7, 47902, Note_on_c, 13, 66, 0
7, 47902, Note_on_c, 13, 68, 0
7, 47904, Note_on_c, 13, 59, 110
7, 47904, Note_on_c, 13, 64, 110
7, 47904, Note_on_c, 13, 66, 110
7, 47904, Note_on_c, 13, 68, 110
7, 47998, Note_on_c, 13, 59, 0
7, 47998, Note_on_c, 13, 64, 0
7, 47998, Note_on_c, 13, 66, 0
7, 47998, Note_on_c, 13, 68, 0
7, 48096, Note_on_c, 13, 59, 110
7, 48096, Note_on_c, 13, 64, 110
7, 48096, Note_on_c, 13, 68, 110
7, 48190, Note_on_c, 13, 59, 0
7, 48190, Note_on_c, 13, 64, 0
7, 48190, Note_on_c, 13, 68, 0
7, 48192, Note_on_c, 13, 59, 110
7, 48192, Note_on_c, 13, 68, 110
7, 48286, Note_on_c, 13, 59, 0
7, 48286, Note_on_c, 13, 68, 0
7, 48288, Note_on_c, 13, 59, 110
7, 48288, Note_on_c, 13, 64, 110
7, 48288, Note_on_c, 13, 68, 110
7, 48382, Note_on_c, 13, 59, 0
7, 48382, Note_on_c, 13, 64, 0
7, 48382, Note_on_c, 13, 68, 0
7, 48384, Note_on_c, 13, 64, 110
7, 48478, Note_on_c, 13, 64, 0
7, 48576, Note_on_c, 13, 55, 110
7, 48576, Note_on_c, 13, 59, 110
7, 48576, Note_on_c, 13, 62, 110
7, 48670, Note_on_c, 13, 55, 0
7, 48670, Note_on_c, 13, 59, 0
7, 48670, Note_on_c, 13, 62, 0
7, 48672, Note_on_c, 13, 55, 110
7, 48672, Note_on_c, 13, 59, 110
7, 48672, Note_on_c, 13, 62, 110
7, 48766, Note_on_c, 13, 55, 0
7, 48766, Note_on_c, 13, 59, 0
7, 48766, Note_on_c, 13, 62, 0
7, 48864, Note_on_c, 13, 55, 110
7, 48864, Note_on_c, 13, 59, 110
7, 48864, Note_on_c, 13, 62, 110
7, 48958, Note_on_c, 13, 55, 0
7, 48958, Note_on_c, 13, 59, 0
7, 48958, Note_on_c, 13, 62, 0
7, 48960, Note_on_c, 13, 55, 110
7, 48960, Note_on_c, 13, 59, 110
7, 48960, Note_on_c, 13, 62, 110
7, 49054, Note_on_c, 13, 55, 0
7, 49054, Note_on_c, 13, 59, 0
7, 49054, Note_on_c, 13, 62, 0
7, 49056, Note_on_c, 13, 55, 110
7, 49056, Note_on_c, 13, 59, 110
7, 49056, Note_on_c, 13, 62, 110
7, 49150, Note_on_c, 13, 55, 0
7, 49150, Note_on_c, 13, 59, 0
7, 49150, Note_on_c, 13, 62, 0
7, 49344, Note_on_c, 13, 53, 110
7, 49344, Note_on_c, 13, 57, 110
7, 49344, Note_on_c, 13, 60, 110
7, 49438, Note_on_c, 13, 53, 0
7, 49438, Note_on_c, 13, 57, 0
7, 49438, Note_on_c, 13, 60, 0
7, 49440, Note_on_c, 13, 53, 110
7, 49440, Note_on_c, 13, 57, 110
7, 49440, Note_on_c, 13, 60, 110
7, 49534, Note_on_c, 13, 53, 0
7, 49534, Note_on_c, 13, 57, 0
7, 49534, Note_on_c, 13, 60, 0
7, 49632, Note_on_c, 13, 53, 110
7, 49632, Note_on_c, 13, 57, 110
7, 49632, Note_on_c, 13, 60, 110
7, 49726, Note_on_c, 13, 53, 0
7, 49726, Note_on_c, 13, 57, 0
7, 49726, Note_on_c, 13, 60, 0
7, 49728, Note_on_c, 13, 53, 110
7, 49728, Note_on_c, 13, 57, 110
7, 49728, Note_on_c, 13, 60, 110
7, 49822, Note_on_c, 13, 53, 0
7, 49822, Note_on_c, 13, 57, 0
7, 49822, Note_on_c, 13, 60, 0
7, 49824, Note_on_c, 13, 53, 110
7, 49824, Note_on_c, 13, 57, 110
7, 49824, Note_on_c, 13, 60, 110
7, 49918, Note_on_c, 13, 53, 0
7, 49918, Note_on_c, 13, 57, 0
7, 49918, Note_on_c, 13, 60, 0
7, 50112, Note_on_c, 13, 58, 110
7, 50112, Note_on_c, 13, 62, 110
7, 50112, Note_on_c, 13, 65, 110
7, 50206, Note_on_c, 13, 58, 0
7, 50206, Note_on_c, 13, 62, 0
7, 50206, Note_on_c, 13, 65, 0
7, 50208, Note_on_c, 13, 58, 110
7, 50208, Note_on_c, 13, 62, 110
7, 50208, Note_on_c, 13, 65, 110
7, 50302, Note_on_c, 13, 58, 0
7, 50302, Note_on_c, 13, 62, 0
7, 50302, Note_on_c, 13, 65, 0
7, 50304, Note_on_c, 13, 67, 110
7, 50398, Note_on_c, 13, 67, 0
7, 50400, Note_on_c, 13, 58, 110
7, 50400, Note_on_c, 13, 62, 110
7, 50400, Note_on_c, 13, 65, 110
7, 50494, Note_on_c, 13, 58, 0
7, 50494, Note_on_c, 13, 62, 0
7, 50494, Note_on_c, 13, 65, 0
7, 50496, Note_on_c, 13, 58, 110
7, 50496, Note_on_c, 13, 62, 110
7, 50496, Note_on_c, 13, 65, 110
7, 50590, Note_on_c, 13, 58, 0
7, 50590, Note_on_c, 13, 62, 0
7, 50590, Note_on_c, 13, 65, 0
7, 50592, Note_on_c, 13, 58, 110
7, 50592, Note_on_c, 13, 62, 110
7, 50592, Note_on_c, 13, 65, 110
7, 50686, Note_on_c, 13, 58, 0
7, 50686, Note_on_c, 13, 62, 0
7, 50686, Note_on_c, 13, 65, 0
7, 50688, Note_on_c, 13, 67, 110
7, 50782, Note_on_c, 13, 67, 0
7, 50880, Note_on_c, 13, 61, 110
7, 50880, Note_on_c, 13, 64, 110
7, 50880, Note_on_c, 13, 69, 110
7, 50974, Note_on_c, 13, 61, 0
7, 50974, Note_on_c, 13, 64, 0
7, 50974, Note_on_c, 13, 69, 0
7, 50976, Note_on_c, 13, 61, 110
7, 50976, Note_on_c, 13, 64, 110
7, 50976, Note_on_c, 13, 69, 110
7, 51070, Note_on_c, 13, 61, 0
7, 51070, Note_on_c, 13, 64, 0
7, 51070, Note_on_c, 13, 69, 0
7, 51168, Note_on_c, 13, 61, 110
7, 51168, Note_on_c, 13, 64, 110
7, 51168, Note_on_c, 13, 69, 110
7, 51262, Note_on_c, 13, 61, 0
7, 51262, Note_on_c, 13, 64, 0
7, 51262, Note_on_c, 13, 69, 0
7, 51264, Note_on_c, 13, 61, 110
7, 51264, Note_on_c, 13, 64, 110
7, 51264, Note_on_c, 13, 69, 110
7, 51358, Note_on_c, 13, 61, 0
7, 51358, Note_on_c, 13, 64, 0
7, 51358, Note_on_c, 13, 69, 0
7, 51360, Note_on_c, 13, 61, 110
7, 51360, Note_on_c, 13, 64, 110
7, 51360, Note_on_c, 13, 69, 110
7, 51454, Note_on_c, 13, 61, 0
7, 51454, Note_on_c, 13, 64, 0
7, 51454, Note_on_c, 13, 69, 0
7, 51648, Note_on_c, 13, 61, 110
7, 51648, Note_on_c, 13, 64, 110
7, 51648, Note_on_c, 13, 66, 110
7, 51648, Note_on_c, 13, 69, 110
7, 51648, Note_on_c, 13, 71, 110
7, 51742, Note_on_c, 13, 61, 0
7, 51742, Note_on_c, 13, 64, 0
7, 51742, Note_on_c, 13, 66, 0
7, 51742, Note_on_c, 13, 69, 0
7, 51742, Note_on_c, 13, 71, 0
7, 51744, Note_on_c, 13, 61, 110
7, 51744, Note_on_c, 13, 64, 110
7, 51744, Note_on_c, 13, 68, 110
7, 51744, Note_on_c, 13, 69, 110
7, 51744, Note_on_c, 13, 73, 110
7, 51838, Note_on_c, 13, 61, 0
7, 51838, Note_on_c, 13, 64, 0
7, 51838, Note_on_c, 13, 68, 0
7, 51838, Note_on_c, 13, 69, 0
7, 51838, Note_on_c, 13, 73, 0
7, 51936, Note_on_c, 13, 61, 110
7, 51936, Note_on_c, 13, 64, 110
7, 51936, Note_on_c, 13, 69, 110
7, 52096, Note_on_c, 13, 61, 0
7, 52096, Note_on_c, 13, 64, 0
7, 52096, Note_on_c, 13, 69, 0
7, 52128, Note_on_c, 13, 61, 110
7, 52128, Note_on_c, 13, 64, 110
7, 52128, Note_on_c, 13, 69, 110
7, 52222, Note_on_c, 13, 61, 0
7, 52222, Note_on_c, 13, 64, 0
7, 52222, Note_on_c, 13, 69, 0
7, 52224, Note_on_c, 13, 61, 110
7, 52224, Note_on_c, 13, 64, 110
7, 52224, Note_on_c, 13, 69, 110
7, 52318, Note_on_c, 13, 61, 0
7, 52318, Note_on_c, 13, 64, 0
7, 52318, Note_on_c, 13, 69, 0
7, 52416, Note_on_c, 13, 61, 110
7, 52416, Note_on_c, 13, 64, 110
7, 52416, Note_on_c, 13, 68, 110
7, 52510, Note_on_c, 13, 61, 0
7, 52510, Note_on_c, 13, 64, 0
7, 52510, Note_on_c, 13, 68, 0
7, 52512, Note_on_c, 13, 61, 110
7, 52512, Note_on_c, 13, 64, 110
7, 52512, Note_on_c, 13, 68, 110
7, 52606, Note_on_c, 13, 61, 0
7, 52606, Note_on_c, 13, 64, 0
7, 52606, Note_on_c, 13, 68, 0
7, 52704, Note_on_c, 13, 61, 110
7, 52704, Note_on_c, 13, 64, 110
7, 52704, Note_on_c, 13, 68, 110
7, 52798, Note_on_c, 13, 61, 0
7, 52798, Note_on_c, 13, 64, 0
7, 52798, Note_on_c, 13, 68, 0
7, 52800, Note_on_c, 13, 61, 110
7, 52800, Note_on_c, 13, 64, 110
7, 52800, Note_on_c, 13, 68, 110
7, 52894, Note_on_c, 13, 61, 0
7, 52894, Note_on_c, 13, 64, 0
7, 52894, Note_on_c, 13, 68, 0
7, 52896, Note_on_c, 13, 61, 110
7, 52896, Note_on_c, 13, 64, 110
7, 52896, Note_on_c, 13, 68, 110
7, 52990, Note_on_c, 13, 61, 0
7, 52990, Note_on_c, 13, 64, 0
7, 52990, Note_on_c, 13, 68, 0
7, 53088, Note_on_c, 13, 61, 110
7, 53088, Note_on_c, 13, 64, 110
7, 53088, Note_on_c, 13, 68, 110
7, 53182, Note_on_c, 13, 61, 0
7, 53182, Note_on_c, 13, 64, 0
7, 53182, Note_on_c, 13, 68, 0
7, 53184, Note_on_c, 13, 61, 110
7, 53184, Note_on_c, 13, 64, 110
7, 53184, Note_on_c, 13, 68, 110
7, 53278, Note_on_c, 13, 61, 0
7, 53278, Note_on_c, 13, 64, 0
7, 53278, Note_on_c, 13, 68, 0
7, 53280, Note_on_c, 13, 61, 110
7, 53280, Note_on_c, 13, 64, 110
7, 53280, Note_on_c, 13, 68, 110
7, 53374, Note_on_c, 13, 61, 0
7, 53374, Note_on_c, 13, 64, 0
7, 53374, Note_on_c, 13, 68, 0
7, 53472, Note_on_c, 13, 61, 110
7, 53472, Note_on_c, 13, 64, 110
7, 53472, Note_on_c, 13, 68, 110
7, 53566, Note_on_c, 13, 61, 0
7, 53566, Note_on_c, 13, 64, 0
7, 53566, Note_on_c, 13, 68, 0
7, 53568, Note_on_c, 13, 61, 110
7, 53568, Note_on_c, 13, 64, 110
7, 53568, Note_on_c, 13, 68, 110
7, 53662, Note_on_c, 13, 61, 0
7, 53662, Note_on_c, 13, 64, 0
7, 53662, Note_on_c, 13, 68, 0
7, 53664, Note_on_c, 13, 61, 110
7, 53664, Note_on_c, 13, 64, 110
7, 53664, Note_on_c, 13, 68, 110
7, 53758, Note_on_c, 13, 61, 0
7, 53758, Note_on_c, 13, 64, 0
7, 53758, Note_on_c, 13, 68, 0
7, 53952, Note_on_c, 13, 59, 110
7, 53952, Note_on_c, 13, 63, 110
7, 53952, Note_on_c, 13, 66, 110
7, 54046, Note_on_c, 13, 59, 0
7, 54046, Note_on_c, 13, 63, 0
7, 54046, Note_on_c, 13, 66, 0
7, 54048, Note_on_c, 13, 59, 110
7, 54048, Note_on_c, 13, 63, 110
7, 54048, Note_on_c, 13, 66, 110
7, 54142, Note_on_c, 13, 59, 0
7, 54142, Note_on_c, 13, 63, 0
7, 54142, Note_on_c, 13, 66, 0
7, 54240, Note_on_c, 13, 59, 110
7, 54240, Note_on_c, 13, 63, 110
7, 54240, Note_on_c, 13, 66, 110
7, 54334, Note_on_c, 13, 59, 0
7, 54334, Note_on_c, 13, 63, 0
7, 54334, Note_on_c, 13, 66, 0
7, 54336, Note_on_c, 13, 59, 110
7, 54336, Note_on_c, 13, 63, 110
7, 54336, Note_on_c, 13, 66, 110
7, 54430, Note_on_c, 13, 59, 0
7, 54430, Note_on_c, 13, 63, 0
7, 54430, Note_on_c, 13, 66, 0
7, 54432, Note_on_c, 13, 59, 110
7, 54432, Note_on_c, 13, 63, 110
7, 54432, Note_on_c, 13, 66, 110
7, 54526, Note_on_c, 13, 59, 0
7, 54526, Note_on_c, 13, 63, 0
7, 54526, Note_on_c, 13, 66, 0
7, 54624, Note_on_c, 13, 71, 110
7, 54720, Note_on_c, 13, 57, 110
7, 54720, Note_on_c, 13, 61, 110
7, 54720, Note_on_c, 13, 64, 110
7, 54814, Note_on_c, 13, 57, 0
7, 54814, Note_on_c, 13, 61, 0
7, 54814, Note_on_c, 13, 64, 0
7, 54814, Note_on_c, 13, 71, 0
7, 54816, Note_on_c, 13, 57, 110
7, 54816, Note_on_c, 13, 61, 110
7, 54816, Note_on_c, 13, 64, 110
7, 54816, Note_on_c, 13, 69, 110
7, 54910, Note_on_c, 13, 57, 0
7, 54910, Note_on_c, 13, 61, 0
7, 54910, Note_on_c, 13, 64, 0
7, 54976, Note_on_c, 13, 69, 0
7, 55008, Note_on_c, 13, 57, 110
7, 55008, Note_on_c, 13, 61, 110
7, 55008, Note_on_c, 13, 64, 110
7, 55008, Note_on_c, 13, 68, 110
7, 55102, Note_on_c, 13, 57, 0
7, 55102, Note_on_c, 13, 61, 0
7, 55102, Note_on_c, 13, 64, 0
7, 55104, Note_on_c, 13, 57, 110
7, 55104, Note_on_c, 13, 61, 110
7, 55104, Note_on_c, 13, 64, 110
7, 55168, Note_on_c, 13, 68, 0
7, 55198, Note_on_c, 13, 57, 0
7, 55198, Note_on_c, 13, 61, 0
7, 55198, Note_on_c, 13, 64, 0
7, 55200, Note_on_c, 13, 57, 110
7, 55200, Note_on_c, 13, 61, 110
7, 55200, Note_on_c, 13, 64, 110
7, 55294, Note_on_c, 13, 57, 0
7, 55294, Note_on_c, 13, 61, 0
7, 55456, Note_on_c, 13, 64, 0
7, 55488, Note_on_c, 13, 61, 110
7, 55488, Note_on_c, 13, 64, 110
7, 55488, Note_on_c, 13, 66, 110
7, 55488, Note_on_c, 13, 68, 110
7, 55582, Note_on_c, 13, 61, 0
7, 55582, Note_on_c, 13, 64, 0
7, 55582, Note_on_c, 13, 66, 0
7, 55582, Note_on_c, 13, 68, 0
7, 55584, Note_on_c, 13, 61, 110
7, 55584, Note_on_c, 13, 64, 110
7, 55584, Note_on_c, 13, 66, 110
7, 55584, Note_on_c, 13, 68, 110
7, 55678, Note_on_c, 13, 61, 0
7, 55678, Note_on_c, 13, 64, 0
7, 55678, Note_on_c, 13, 66, 0
7, 55678, Note_on_c, 13, 68, 0
7, 55776, Note_on_c, 13, 61, 110
7, 55776, Note_on_c, 13, 64, 110
7, 55776, Note_on_c, 13, 66, 110
7, 55776, Note_on_c, 13, 68, 110
7, 55870, Note_on_c, 13, 61, 0
7, 55870, Note_on_c, 13, 64, 0
7, 55870, Note_on_c, 13, 66, 0
7, 55870, Note_on_c, 13, 68, 0
7, 55872, Note_on_c, 13, 61, 110
7, 55872, Note_on_c, 13, 64, 110
7, 55872, Note_on_c, 13, 66, 110
7, 55872, Note_on_c, 13, 68, 110
7, 55966, Note_on_c, 13, 61, 0
7, 55966, Note_on_c, 13, 64, 0
7, 55966, Note_on_c, 13, 66, 0
7, 55966, Note_on_c, 13, 68, 0
7, 55968, Note_on_c, 13, 61, 110
7, 55968, Note_on_c, 13, 64, 110
7, 55968, Note_on_c, 13, 66, 110
7, 55968, Note_on_c, 13, 68, 110
7, 56062, Note_on_c, 13, 61, 0
7, 56062, Note_on_c, 13, 64, 0
7, 56062, Note_on_c, 13, 66, 0
7, 56062, Note_on_c, 13, 68, 0
7, 56256, Note_on_c, 13, 59, 110
7, 56256, Note_on_c, 13, 64, 110
7, 56256, Note_on_c, 13, 68, 110
7, 56350, Note_on_c, 13, 59, 0
7, 56350, Note_on_c, 13, 64, 0
7, 56350, Note_on_c, 13, 68, 0
7, 56352, Note_on_c, 13, 59, 110
7, 56352, Note_on_c, 13, 64, 110
7, 56352, Note_on_c, 13, 68, 110
7, 56446, Note_on_c, 13, 59, 0
7, 56446, Note_on_c, 13, 64, 0
7, 56446, Note_on_c, 13, 68, 0
7, 56544, Note_on_c, 13, 59, 110
7, 56544, Note_on_c, 13, 64, 110
7, 56544, Note_on_c, 13, 66, 110
7, 56544, Note_on_c, 13, 68, 110
7, 56638, Note_on_c, 13, 59, 0
7, 56638, Note_on_c, 13, 64, 0
7, 56638, Note_on_c, 13, 66, 0
7, 56638, Note_on_c, 13, 68, 0
7, 56640, Note_on_c, 13, 59, 110
7, 56640, Note_on_c, 13, 64, 110
7, 56640, Note_on_c, 13, 68, 110
7, 56734, Note_on_c, 13, 59, 0
7, 56734, Note_on_c, 13, 64, 0
7, 56734, Note_on_c, 13, 68, 0
7, 56736, Note_on_c, 13, 59, 110
7, 56736, Note_on_c, 13, 64, 110
7, 56736, Note_on_c, 13, 66, 110
7, 56736, Note_on_c, 13, 68, 110
7, 56830, Note_on_c, 13, 59, 0
7, 56830, Note_on_c, 13, 64, 0
7, 56830, Note_on_c, 13, 66, 0
7, 56830, Note_on_c, 13, 68, 0
7, 56928, Note_on_c, 13, 71, 110
7, 57024, Note_on_c, 13, 57, 110
7, 57024, Note_on_c, 13, 61, 110
7, 57024, Note_on_c, 13, 64, 110
7, 57118, Note_on_c, 13, 57, 0
7, 57118, Note_on_c, 13, 61, 0
7, 57118, Note_on_c, 13, 64, 0
7, 57118, Note_on_c, 13, 71, 0
7, 57120, Note_on_c, 13, 57, 110
7, 57120, Note_on_c, 13, 61, 110
7, 57120, Note_on_c, 13, 64, 110
7, 57120, Note_on_c, 13, 71, 110
7, 57214, Note_on_c, 13, 57, 0
7, 57214, Note_on_c, 13, 61, 0
7, 57214, Note_on_c, 13, 64, 0
7, 57214, Note_on_c, 13, 71, 0
7, 57312, Note_on_c, 13, 57, 110
7, 57312, Note_on_c, 13, 61, 110
7, 57312, Note_on_c, 13, 64, 110
7, 57312, Note_on_c, 13, 67, 110
7, 57406, Note_on_c, 13, 57, 0
7, 57406, Note_on_c, 13, 61, 0
7, 57406, Note_on_c, 13, 64, 0
7, 57408, Note_on_c, 13, 57, 110
7, 57408, Note_on_c, 13, 61, 110
7, 57408, Note_on_c, 13, 64, 110
7, 57502, Note_on_c, 13, 57, 0
7, 57502, Note_on_c, 13, 61, 0
7, 57502, Note_on_c, 13, 64, 0
7, 57504, Note_on_c, 13, 57, 110
7, 57504, Note_on_c, 13, 61, 110
7, 57504, Note_on_c, 13, 64, 110
7, 57598, Note_on_c, 13, 57, 0
7, 57598, Note_on_c, 13, 61, 0
7, 57598, Note_on_c, 13, 64, 0
7, 57648, Note_on_c, 13, 67, 0
7, 57792, Note_on_c, 13, 59, 110
7, 57792, Note_on_c, 13, 63, 110
7, 57792, Note_on_c, 13, 66, 110
7, 57886, Note_on_c, 13, 59, 0
7, 57886, Note_on_c, 13, 63, 0
7, 57886, Note_on_c, 13, 66, 0
7, 57888, Note_on_c, 13, 59, 110
7, 57888, Note_on_c, 13, 63, 110
7, 57888, Note_on_c, 13, 66, 110
7, 57982, Note_on_c, 13, 59, 0
7, 57982, Note_on_c, 13, 63, 0
7, 57982, Note_on_c, 13, 66, 0
7, 58080, Note_on_c, 13, 59, 110
7, 58080, Note_on_c, 13, 63, 110
7, 58080, Note_on_c, 13, 66, 110
7, 58174, Note_on_c, 13, 59, 0
7, 58174, Note_on_c, 13, 63, 0
7, 58174, Note_on_c, 13, 66, 0
7, 58176, Note_on_c, 13, 59, 110
7, 58176, Note_on_c, 13, 63, 110
7, 58176, Note_on_c, 13, 66, 110
7, 58270, Note_on_c, 13, 59, 0
7, 58270, Note_on_c, 13, 63, 0
7, 58270, Note_on_c, 13, 66, 0
7, 58272, Note_on_c, 13, 59, 110
7, 58272, Note_on_c, 13, 63, 110
7, 58272, Note_on_c, 13, 66, 110
7, 58366, Note_on_c, 13, 59, 0
7, 58366, Note_on_c, 13, 63, 0
7, 58366, Note_on_c, 13, 66, 0
7, 58560, Note_on_c, 13, 61, 110
7, 58560, Note_on_c, 13, 64, 110
7, 58560, Note_on_c, 13, 66, 110
7, 58560, Note_on_c, 13, 68, 110
7, 58654, Note_on_c, 13, 61, 0
7, 58654, Note_on_c, 13, 64, 0
7, 58654, Note_on_c, 13, 66, 0
7, 58654, Note_on_c, 13, 68, 0
7, 58656, Note_on_c, 13, 61, 110
7, 58656, Note_on_c, 13, 64, 110
7, 58656, Note_on_c, 13, 66, 110
7, 58656, Note_on_c, 13, 68, 110
7, 58750, Note_on_c, 13, 61, 0
7, 58750, Note_on_c, 13, 64, 0
7, 58750, Note_on_c, 13, 66, 0
7, 58750, Note_on_c, 13, 68, 0
7, 58848, Note_on_c, 13, 61, 110
7, 58848, Note_on_c, 13, 64, 110
7, 58848, Note_on_c, 13, 66, 110
7, 58848, Note_on_c, 13, 68, 110
7, 58942, Note_on_c, 13, 61, 0
7, 58942, Note_on_c, 13, 64, 0
7, 58942, Note_on_c, 13, 66, 0
7, 58942, Note_on_c, 13, 68, 0
7, 58944, Note_on_c, 13, 61, 110
7, 58944, Note_on_c, 13, 64, 110
7, 58944, Note_on_c, 13, 66, 110
7, 58944, Note_on_c, 13, 68, 110
7, 59038, Note_on_c, 13, 61, 0
7, 59038, Note_on_c, 13, 64, 0
7, 59038, Note_on_c, 13, 66, 0
7, 59038, Note_on_c, 13, 68, 0
7, 59040, Note_on_c, 13, 61, 110
7, 59040, Note_on_c, 13, 64, 110
7, 59040, Note_on_c, 13, 66, 110
7, 59040, Note_on_c, 13, 68, 110
7, 59134, Note_on_c, 13, 61, 0
7, 59134, Note_on_c, 13, 64, 0
7, 59134, Note_on_c, 13, 66, 0
7, 59134, Note_on_c, 13, 68, 0
7, 59232, Note_on_c, 13, 61, 110
7, 59232, Note_on_c, 13, 64, 110
7, 59232, Note_on_c, 13, 66, 110
7, 59232, Note_on_c, 13, 68, 110
7, 59326, Note_on_c, 13, 61, 0
7, 59326, Note_on_c, 13, 64, 0
7, 59326, Note_on_c, 13, 66, 0
7, 59326, Note_on_c, 13, 68, 0
7, 59328, Note_on_c, 13, 61, 110
7, 59328, Note_on_c, 13, 64, 110
7, 59328, Note_on_c, 13, 66, 110
7, 59328, Note_on_c, 13, 68, 110
7, 59422, Note_on_c, 13, 61, 0
7, 59422, Note_on_c, 13, 64, 0
7, 59422, Note_on_c, 13, 66, 0
7, 59422, Note_on_c, 13, 68, 0
7, 59424, Note_on_c, 13, 61, 110
7, 59424, Note_on_c, 13, 64, 110
7, 59424, Note_on_c, 13, 66, 110
7, 59424, Note_on_c, 13, 68, 110
7, 59518, Note_on_c, 13, 61, 0
7, 59518, Note_on_c, 13, 64, 0
7, 59518, Note_on_c, 13, 66, 0
7, 59518, Note_on_c, 13, 68, 0
7, 59616, Note_on_c, 13, 61, 110
7, 59616, Note_on_c, 13, 64, 110
7, 59616, Note_on_c, 13, 66, 110
7, 59616, Note_on_c, 13, 68, 110
7, 59710, Note_on_c, 13, 61, 0
7, 59710, Note_on_c, 13, 64, 0
7, 59710, Note_on_c, 13, 66, 0
7, 59710, Note_on_c, 13, 68, 0
7, 59712, Note_on_c, 13, 61, 110
7, 59712, Note_on_c, 13, 64, 110
7, 59712, Note_on_c, 13, 66, 110
7, 59712, Note_on_c, 13, 68, 110
7, 59806, Note_on_c, 13, 61, 0
7, 59806, Note_on_c, 13, 64, 0
7, 59806, Note_on_c, 13, 66, 0
7, 59806, Note_on_c, 13, 68, 0
7, 59808, Note_on_c, 13, 61, 110
7, 59808, Note_on_c, 13, 64, 110
7, 59808, Note_on_c, 13, 66, 110
7, 59808, Note_on_c, 13, 68, 110
7, 59902, Note_on_c, 13, 61, 0
7, 59902, Note_on_c, 13, 64, 0
7, 59902, Note_on_c, 13, 66, 0
7, 59902, Note_on_c, 13, 68, 0
7, 60096, Note_on_c, 13, 59, 110
7, 60096, Note_on_c, 13, 63, 110
7, 60096, Note_on_c, 13, 66, 110
7, 60190, Note_on_c, 13, 59, 0
7, 60190, Note_on_c, 13, 63, 0
7, 60190, Note_on_c, 13, 66, 0
7, 60192, Note_on_c, 13, 59, 110
7, 60192, Note_on_c, 13, 63, 110
7, 60192, Note_on_c, 13, 66, 110
7, 60286, Note_on_c, 13, 59, 0
7, 60286, Note_on_c, 13, 63, 0
7, 60286, Note_on_c, 13, 66, 0
7, 60384, Note_on_c, 13, 59, 110
7, 60384, Note_on_c, 13, 63, 110
7, 60384, Note_on_c, 13, 66, 110
7, 60478, Note_on_c, 13, 59, 0
7, 60478, Note_on_c, 13, 63, 0
7, 60478, Note_on_c, 13, 66, 0
7, 60480, Note_on_c, 13, 59, 110
7, 60480, Note_on_c, 13, 63, 110
7, 60480, Note_on_c, 13, 66, 110
7, 60574, Note_on_c, 13, 59, 0
7, 60574, Note_on_c, 13, 63, 0
7, 60574, Note_on_c, 13, 66, 0
7, 60576, Note_on_c, 13, 59, 110
7, 60576, Note_on_c, 13, 63, 110
7, 60576, Note_on_c, 13, 66, 110
7, 60670, Note_on_c, 13, 59, 0
7, 60670, Note_on_c, 13, 63, 0
7, 60670, Note_on_c, 13, 66, 0
7, 60768, Note_on_c, 13, 71, 110
7, 60864, Note_on_c, 13, 57, 110
7, 60864, Note_on_c, 13, 61, 110
7, 60864, Note_on_c, 13, 64, 110
7, 60958, Note_on_c, 13, 57, 0
7, 60958, Note_on_c, 13, 61, 0
7, 60958, Note_on_c, 13, 64, 0
7, 60958, Note_on_c, 13, 71, 0
7, 60960, Note_on_c, 13, 57, 110
7, 60960, Note_on_c, 13, 61, 110
7, 60960, Note_on_c, 13, 64, 110
7, 60960, Note_on_c, 13, 69, 110
7, 61054, Note_on_c, 13, 57, 0
7, 61054, Note_on_c, 13, 61, 0
7, 61054, Note_on_c, 13, 64, 0
7, 61120, Note_on_c, 13, 69, 0
7, 61152, Note_on_c, 13, 57, 110
7, 61152, Note_on_c, 13, 61, 110
7, 61152, Note_on_c, 13, 64, 110
7, 61152, Note_on_c, 13, 68, 110
7, 61246, Note_on_c, 13, 57, 0
7, 61246, Note_on_c, 13, 61, 0
7, 61246, Note_on_c, 13, 64, 0
7, 61248, Note_on_c, 13, 57, 110
7, 61248, Note_on_c, 13, 61, 110
7, 61248, Note_on_c, 13, 64, 110
7, 61312, Note_on_c, 13, 68, 0
7, 61342, Note_on_c, 13, 57, 0
7, 61342, Note_on_c, 13, 61, 0
7, 61342, Note_on_c, 13, 64, 0
7, 61344, Note_on_c, 13, 57, 110
7, 61344, Note_on_c, 13, 61, 110
7, 61344, Note_on_c, 13, 64, 110
7, 61438, Note_on_c, 13, 57, 0
7, 61438, Note_on_c, 13, 61, 0
7, 61600, Note_on_c, 13, 64, 0
7, 61632, Note_on_c, 13, 61, 110
7, 61632, Note_on_c, 13, 64, 110
7, 61632, Note_on_c, 13, 66, 110
7, 61632, Note_on_c, 13, 68, 110
7, 61726, Note_on_c, 13, 61, 0
7, 61726, Note_on_c, 13, 64, 0
7, 61726, Note_on_c, 13, 66, 0
7, 61726, Note_on_c, 13, 68, 0
7, 61728, Note_on_c, 13, 61, 110
7, 61728, Note_on_c, 13, 64, 110
7, 61728, Note_on_c, 13, 66, 110
7, 61728, Note_on_c, 13, 68, 110
7, 61822, Note_on_c, 13, 61, 0
7, 61822, Note_on_c, 13, 64, 0
7, 61822, Note_on_c, 13, 66, 0
7, 61822, Note_on_c, 13, 68, 0
7, 61920, Note_on_c, 13, 61, 110
7, 61920, Note_on_c, 13, 64, 110
7, 61920, Note_on_c, 13, 66, 110
7, 61920, Note_on_c, 13, 68, 110
7, 62014, Note_on_c, 13, 61, 0
7, 62014, Note_on_c, 13, 64, 0
7, 62014, Note_on_c, 13, 66, 0
7, 62014, Note_on_c, 13, 68, 0
7, 62016, Note_on_c, 13, 61, 110
7, 62016, Note_on_c, 13, 64, 110
7, 62016, Note_on_c, 13, 66, 110
7, 62016, Note_on_c, 13, 68, 110
7, 62110, Note_on_c, 13, 61, 0
7, 62110, Note_on_c, 13, 64, 0
7, 62110, Note_on_c, 13, 66, 0
7, 62110, Note_on_c, 13, 68, 0
7, 62112, Note_on_c, 13, 61, 110
7, 62112, Note_on_c, 13, 64, 110
7, 62112, Note_on_c, 13, 66, 110
7, 62112, Note_on_c, 13, 68, 110
7, 62206, Note_on_c, 13, 61, 0
7, 62206, Note_on_c, 13, 64, 0
7, 62206, Note_on_c, 13, 66, 0
7, 62206, Note_on_c, 13, 68, 0
7, 62400, Note_on_c, 13, 59, 110
7, 62400, Note_on_c, 13, 64, 110
7, 62400, Note_on_c, 13, 68, 110
7, 62494, Note_on_c, 13, 59, 0
7, 62494, Note_on_c, 13, 64, 0
7, 62494, Note_on_c, 13, 68, 0
7, 62496, Note_on_c, 13, 59, 110
7, 62496, Note_on_c, 13, 64, 110
7, 62496, Note_on_c, 13, 68, 110
7, 62590, Note_on_c, 13, 59, 0
7, 62590, Note_on_c, 13, 64, 0
7, 62590, Note_on_c, 13, 68, 0
7, 62688, Note_on_c, 13, 59, 110
7, 62688, Note_on_c, 13, 64, 110
7, 62688, Note_on_c, 13, 66, 110
7, 62688, Note_on_c, 13, 68, 110
7, 62782, Note_on_c, 13, 59, 0
7, 62782, Note_on_c, 13, 64, 0
7, 62782, Note_on_c, 13, 66, 0
7, 62782, Note_on_c, 13, 68, 0
7, 62784, Note_on_c, 13, 59, 110
7, 62784, Note_on_c, 13, 64, 110
7, 62784, Note_on_c, 13, 68, 110
7, 62878, Note_on_c, 13, 59, 0
7, 62878, Note_on_c, 13, 64, 0
7, 62878, Note_on_c, 13, 68, 0
7, 62880, Note_on_c, 13, 59, 110
7, 62880, Note_on_c, 13, 64, 110
7, 62880, Note_on_c, 13, 66, 110
7, 62880, Note_on_c, 13, 68, 110
7, 62974, Note_on_c, 13, 59, 0
7, 62974, Note_on_c, 13, 64, 0
7, 62974, Note_on_c, 13, 66, 0
7, 62974, Note_on_c, 13, 68, 0
7, 63072, Note_on_c, 13, 71, 110
7, 63168, Note_on_c, 13, 57, 110
7, 63168, Note_on_c, 13, 61, 110
7, 63168, Note_on_c, 13, 64, 110
7, 63262, Note_on_c, 13, 57, 0
7, 63262, Note_on_c, 13, 61, 0
7, 63262, Note_on_c, 13, 64, 0
7, 63262, Note_on_c, 13, 71, 0
7, 63264, Note_on_c, 13, 57, 110
7, 63264, Note_on_c, 13, 61, 110
7, 63264, Note_on_c, 13, 64, 110
7, 63264, Note_on_c, 13, 71, 110
7, 63358, Note_on_c, 13, 57, 0
7, 63358, Note_on_c, 13, 61, 0
7, 63358, Note_on_c, 13, 64, 0
7, 63358, Note_on_c, 13, 71, 0
7, 63456, Note_on_c, 13, 57, 110
7, 63456, Note_on_c, 13, 61, 110
7, 63456, Note_on_c, 13, 64, 110
7, 63456, Note_on_c, 13, 67, 110
7, 63550, Note_on_c, 13, 57, 0
7, 63550, Note_on_c, 13, 61, 0
7, 63550, Note_on_c, 13, 64, 0
7, 63552, Note_on_c, 13, 57, 110
7, 63552, Note_on_c, 13, 61, 110
7, 63552, Note_on_c, 13, 64, 110
7, 63616, Note_on_c, 13, 67, 0
7, 63646, Note_on_c, 13, 57, 0
7, 63646, Note_on_c, 13, 61, 0
7, 63646, Note_on_c, 13, 64, 0
7, 63648, Note_on_c, 13, 57, 110
7, 63648, Note_on_c, 13, 61, 110
7, 63648, Note_on_c, 13, 64, 110
7, 63648, Note_on_c, 13, 67, 110
7, 63742, Note_on_c, 13, 57, 0
7, 63742, Note_on_c, 13, 61, 0
7, 63742, Note_on_c, 13, 64, 0
7, 63742, Note_on_c, 13, 67, 0
7, 63936, Note_on_c, 13, 66, 110
7, 64096, Note_on_c, 13, 66, 0
7, 64128, Note_on_c, 13, 62, 110
7, 64128, Note_on_c, 13, 66, 110
7, 64128, Note_on_c, 13, 69, 110
7, 64222, Note_on_c, 13, 62, 0
7, 64222, Note_on_c, 13, 66, 0
7, 64222, Note_on_c, 13, 69, 0
7, 64512, Note_on_c, 13, 62, 110
7, 64512, Note_on_c, 13, 66, 110
7, 64512, Note_on_c, 13, 69, 110
7, 64606, Note_on_c, 13, 62, 0
7, 64606, Note_on_c, 13, 66, 0
7, 64606, Note_on_c, 13, 69, 0
7, 64896, Note_on_c, 13, 62, 110
7, 64896, Note_on_c, 13, 66, 110
7, 64896, Note_on_c, 13, 69, 110
7, 64990, Note_on_c, 13, 62, 0
7, 64990, Note_on_c, 13, 66, 0
7, 64990, Note_on_c, 13, 69, 0
7, 65280, Note_on_c, 13, 62, 110
7, 65280, Note_on_c, 13, 66, 110
7, 65280, Note_on_c, 13, 69, 110
7, 65374, Note_on_c, 13, 62, 0
7, 65374, Note_on_c, 13, 66, 0
7, 65374, Note_on_c, 13, 69, 0
7, 65664, Note_on_c, 13, 57, 110
7, 65664, Note_on_c, 13, 61, 110
7, 65664, Note_on_c, 13, 64, 110
7, 65758, Note_on_c, 13, 57, 0
7, 65758, Note_on_c, 13, 61, 0
7, 65758, Note_on_c, 13, 64, 0
7, 66048, Note_on_c, 13, 57, 110
7, 66048, Note_on_c, 13, 61, 110
7, 66048, Note_on_c, 13, 64, 110
7, 66142, Note_on_c, 13, 57, 0
7, 66142, Note_on_c, 13, 61, 0
7, 66142, Note_on_c, 13, 64, 0
7, 66432, Note_on_c, 13, 57, 110
7, 66432, Note_on_c, 13, 61, 110
7, 66432, Note_on_c, 13, 64, 110
7, 66526, Note_on_c, 13, 57, 0
7, 66526, Note_on_c, 13, 61, 0
7, 66526, Note_on_c, 13, 64, 0
7, 67008, Note_on_c, 13, 59, 110
7, 67008, Note_on_c, 13, 63, 110
7, 67008, Note_on_c, 13, 66, 110
7, 67102, Note_on_c, 13, 59, 0
7, 67102, Note_on_c, 13, 63, 0
7, 67102, Note_on_c, 13, 66, 0
7, 67104, Note_on_c, 13, 59, 110
7, 67104, Note_on_c, 13, 63, 110
7, 67104, Note_on_c, 13, 66, 110
7, 67198, Note_on_c, 13, 59, 0
7, 67198, Note_on_c, 13, 63, 0
7, 67198, Note_on_c, 13, 66, 0
7, 67296, Note_on_c, 13, 59, 110
7, 67296, Note_on_c, 13, 63, 110
7, 67296, Note_on_c, 13, 66, 110
7, 67390, Note_on_c, 13, 59, 0
7, 67390, Note_on_c, 13, 63, 0
7, 67390, Note_on_c, 13, 66, 0
7, 67392, Note_on_c, 13, 59, 110
7, 67392, Note_on_c, 13, 63, 110
7, 67392, Note_on_c, 13, 66, 110
7, 67486, Note_on_c, 13, 59, 0
7, 67486, Note_on_c, 13, 63, 0
7, 67486, Note_on_c, 13, 66, 0
7, 67488, Note_on_c, 13, 59, 110
7, 67488, Note_on_c, 13, 63, 110
7, 67488, Note_on_c, 13, 66, 110
7, 67582, Note_on_c, 13, 59, 0
7, 67582, Note_on_c, 13, 63, 0
7, 67582, Note_on_c, 13, 66, 0
7, 67680, Note_on_c, 13, 59, 110
7, 67680, Note_on_c, 13, 63, 110
7, 67680, Note_on_c, 13, 66, 110
7, 67774, Note_on_c, 13, 59, 0
7, 67774, Note_on_c, 13, 63, 0
7, 67774, Note_on_c, 13, 66, 0
7, 67776, Note_on_c, 13, 59, 110
7, 67776, Note_on_c, 13, 64, 110
7, 67776, Note_on_c, 13, 66, 110
7, 67870, Note_on_c, 13, 59, 0
7, 67870, Note_on_c, 13, 64, 0
7, 67870, Note_on_c, 13, 66, 0
7, 67872, Note_on_c, 13, 59, 110
7, 67872, Note_on_c, 13, 63, 110
7, 67872, Note_on_c, 13, 66, 110
7, 67966, Note_on_c, 13, 59, 0
7, 67966, Note_on_c, 13, 63, 0
7, 67966, Note_on_c, 13, 66, 0
7, 68064, Note_on_c, 13, 59, 110
7, 68064, Note_on_c, 13, 63, 110
7, 68064, Note_on_c, 13, 66, 110
7, 68158, Note_on_c, 13, 59, 0
7, 68158, Note_on_c, 13, 63, 0
7, 68158, Note_on_c, 13, 66, 0
7, 68160, Note_on_c, 13, 59, 110
7, 68160, Note_on_c, 13, 64, 110
7, 68160, Note_on_c, 13, 66, 110
7, 68254, Note_on_c, 13, 59, 0
7, 68254, Note_on_c, 13, 64, 0
7, 68254, Note_on_c, 13, 66, 0
7, 68256, Note_on_c, 13, 59, 110
7, 68256, Note_on_c, 13, 63, 110
7, 68256, Note_on_c, 13, 66, 110
7, 68350, Note_on_c, 13, 59, 0
7, 68350, Note_on_c, 13, 63, 0
7, 68350, Note_on_c, 13, 66, 0
7, 68352, Note_on_c, 13, 59, 110
7, 68352, Note_on_c, 13, 63, 110
7, 68352, Note_on_c, 13, 66, 110
7, 68446, Note_on_c, 13, 59, 0
7, 68446, Note_on_c, 13, 63, 0
7, 68446, Note_on_c, 13, 66, 0
7, 68544, Note_on_c, 13, 57, 110
7, 68544, Note_on_c, 13, 60, 110
7, 68544, Note_on_c, 13, 64, 110
7, 68638, Note_on_c, 13, 57, 0
7, 68638, Note_on_c, 13, 60, 0
7, 68638, Note_on_c, 13, 64, 0
7, 68640, Note_on_c, 13, 57, 110
7, 68640, Note_on_c, 13, 60, 110
7, 68640, Note_on_c, 13, 64, 110
7, 68734, Note_on_c, 13, 57, 0
7, 68734, Note_on_c, 13, 60, 0
7, 68734, Note_on_c, 13, 64, 0
7, 68832, Note_on_c, 13, 57, 110
7, 68832, Note_on_c, 13, 60, 110
7, 68832, Note_on_c, 13, 64, 110
7, 68926, Note_on_c, 13, 57, 0
7, 68926, Note_on_c, 13, 60, 0
7, 68926, Note_on_c, 13, 64, 0
7, 68928, Note_on_c, 13, 57, 110
7, 68928, Note_on_c, 13, 60, 110
7, 68928, Note_on_c, 13, 64, 110
7, 69022, Note_on_c, 13, 57, 0
7, 69022, Note_on_c, 13, 60, 0
7, 69022, Note_on_c, 13, 64, 0
7, 69024, Note_on_c, 13, 57, 110
7, 69024, Note_on_c, 13, 60, 110
7, 69024, Note_on_c, 13, 64, 110
7, 69118, Note_on_c, 13, 57, 0
7, 69118, Note_on_c, 13, 60, 0
7, 69118, Note_on_c, 13, 64, 0
7, 69216, Note_on_c, 13, 66, 110
7, 69312, Note_on_c, 13, 59, 110
7, 69312, Note_on_c, 13, 64, 110
7, 69312, Note_on_c, 13, 68, 110
7, 69406, Note_on_c, 13, 59, 0
7, 69406, Note_on_c, 13, 64, 0
7, 69406, Note_on_c, 13, 66, 0
7, 69406, Note_on_c, 13, 68, 0
7, 69408, Note_on_c, 13, 59, 110
7, 69408, Note_on_c, 13, 64, 110
7, 69408, Note_on_c, 13, 66, 110
7, 69408, Note_on_c, 13, 68, 110
7, 69502, Note_on_c, 13, 59, 0
7, 69502, Note_on_c, 13, 64, 0
7, 69502, Note_on_c, 13, 66, 0
7, 69502, Note_on_c, 13, 68, 0
7, 69600, Note_on_c, 13, 59, 110
7, 69600, Note_on_c, 13, 64, 110
7, 69600, Note_on_c, 13, 68, 110
7, 69694, Note_on_c, 13, 59, 0
7, 69694, Note_on_c, 13, 64, 0
7, 69694, Note_on_c, 13, 68, 0
7, 69696, Note_on_c, 13, 59, 110
7, 69696, Note_on_c, 13, 68, 110
7, 69790, Note_on_c, 13, 59, 0
7, 69790, Note_on_c, 13, 68, 0
7, 69792, Note_on_c, 13, 59, 110
7, 69792, Note_on_c, 13, 64, 110
7, 69792, Note_on_c, 13, 68, 110
7, 69886, Note_on_c, 13, 59, 0
7, 69886, Note_on_c, 13, 64, 0
7, 69886, Note_on_c, 13, 68, 0
7, 69888, Note_on_c, 13, 64, 110
7, 69982, Note_on_c, 13, 64, 0
7, 70080, Note_on_c, 13, 55, 110
7, 70080, Note_on_c, 13, 59, 110
7, 70080, Note_on_c, 13, 62, 110
7, 70174, Note_on_c, 13, 55, 0
7, 70174, Note_on_c, 13, 59, 0
7, 70174, Note_on_c, 13, 62, 0
7, 70176, Note_on_c, 13, 55, 110
7, 70176, Note_on_c, 13, 59, 110
7, 70176, Note_on_c, 13, 62, 110
7, 70270, Note_on_c, 13, 55, 0
7, 70270, Note_on_c, 13, 59, 0
7, 70270, Note_on_c, 13, 62, 0
7, 70368, Note_on_c, 13, 55, 110
7, 70368, Note_on_c, 13, 59, 110
7, 70368, Note_on_c, 13, 62, 110
7, 70462, Note_on_c, 13, 55, 0
7, 70462, Note_on_c, 13, 59, 0
7, 70462, Note_on_c, 13, 62, 0
7, 70464, Note_on_c, 13, 55, 110
7, 70464, Note_on_c, 13, 59, 110
7, 70464, Note_on_c, 13, 62, 110
7, 70558, Note_on_c, 13, 55, 0
7, 70558, Note_on_c, 13, 59, 0
7, 70558, Note_on_c, 13, 62, 0
7, 70560, Note_on_c, 13, 55, 110
7, 70560, Note_on_c, 13, 59, 110
7, 70560, Note_on_c, 13, 62, 110
7, 70654, Note_on_c, 13, 55, 0
7, 70654, Note_on_c, 13, 59, 0
7, 70654, Note_on_c, 13, 62, 0
7, 70848, Note_on_c, 13, 53, 110
7, 70848, Note_on_c, 13, 57, 110
7, 70848, Note_on_c, 13, 60, 110
7, 70942, Note_on_c, 13, 53, 0
7, 70942, Note_on_c, 13, 57, 0
7, 70942, Note_on_c, 13, 60, 0
7, 70944, Note_on_c, 13, 53, 110
7, 70944, Note_on_c, 13, 57, 110
7, 70944, Note_on_c, 13, 60, 110
7, 71038, Note_on_c, 13, 53, 0
7, 71038, Note_on_c, 13, 57, 0
7, 71038, Note_on_c, 13, 60, 0
7, 71136, Note_on_c, 13, 53, 110
7, 71136, Note_on_c, 13, 57, 110
7, 71136, Note_on_c, 13, 60, 110
7, 71230, Note_on_c, 13, 53, 0
7, 71230, Note_on_c, 13, 57, 0
7, 71230, Note_on_c, 13, 60, 0
7, 71232, Note_on_c, 13, 53, 110
7, 71232, Note_on_c, 13, 57, 110
7, 71232, Note_on_c, 13, 60, 110
7, 71326, Note_on_c, 13, 53, 0
7, 71326, Note_on_c, 13, 57, 0
7, 71326, Note_on_c, 13, 60, 0
7, 71328, Note_on_c, 13, 53, 110
7, 71328, Note_on_c, 13, 57, 110
7, 71328, Note_on_c, 13, 60, 110
7, 71422, Note_on_c, 13, 53, 0
7, 71422, Note_on_c, 13, 57, 0
7, 71422, Note_on_c, 13, 60, 0
7, 71616, Note_on_c, 13, 58, 110
7, 71616, Note_on_c, 13, 62, 110
7, 71616, Note_on_c, 13, 65, 110
7, 71710, Note_on_c, 13, 58, 0
7, 71710, Note_on_c, 13, 62, 0
7, 71710, Note_on_c, 13, 65, 0
7, 71712, Note_on_c, 13, 58, 110
7, 71712, Note_on_c, 13, 62, 110
7, 71712, Note_on_c, 13, 65, 110
7, 71806, Note_on_c, 13, 58, 0
7, 71806, Note_on_c, 13, 62, 0
7, 71806, Note_on_c, 13, 65, 0
7, 71808, Note_on_c, 13, 67, 110
7, 71902, Note_on_c, 13, 67, 0
7, 71904, Note_on_c, 13, 58, 110
7, 71904, Note_on_c, 13, 62, 110
7, 71904, Note_on_c, 13, 65, 110
7, 71998, Note_on_c, 13, 58, 0
7, 71998, Note_on_c, 13, 62, 0
7, 71998, Note_on_c, 13, 65, 0
7, 72000, Note_on_c, 13, 58, 110
7, 72000, Note_on_c, 13, 62, 110
7, 72000, Note_on_c, 13, 65, 110
7, 72094, Note_on_c, 13, 58, 0
7, 72094, Note_on_c, 13, 62, 0
7, 72094, Note_on_c, 13, 65, 0
7, 72096, Note_on_c, 13, 58, 110
7, 72096, Note_on_c, 13, 62, 110
7, 72096, Note_on_c, 13, 65, 110
7, 72190, Note_on_c, 13, 58, 0
7, 72190, Note_on_c, 13, 62, 0
7, 72190, Note_on_c, 13, 65, 0
7, 72192, Note_on_c, 13, 67, 110
7, 72286, Note_on_c, 13, 67, 0
7, 72288, Note_on_c, 13, 65, 110
7, 72382, Note_on_c, 13, 65, 0
7, 72384, Note_on_c, 13, 61, 110
7, 72384, Note_on_c, 13, 65, 110
7, 72384, Note_on_c, 13, 68, 110
7, 72478, Note_on_c, 13, 61, 0
7, 72478, Note_on_c, 13, 65, 0
7, 72478, Note_on_c, 13, 68, 0
7, 72480, Note_on_c, 13, 61, 110
7, 72480, Note_on_c, 13, 65, 110
7, 72480, Note_on_c, 13, 68, 110
7, 72574, Note_on_c, 13, 61, 0
7, 72574, Note_on_c, 13, 65, 0
7, 72574, Note_on_c, 13, 68, 0
7, 72672, Note_on_c, 13, 61, 110
7, 72672, Note_on_c, 13, 65, 110
7, 72672, Note_on_c, 13, 68, 110
7, 72766, Note_on_c, 13, 61, 0
7, 72766, Note_on_c, 13, 65, 0
7, 72766, Note_on_c, 13, 68, 0
7, 72768, Note_on_c, 13, 61, 110
7, 72768, Note_on_c, 13, 65, 110
7, 72768, Note_on_c, 13, 68, 110
7, 72862, Note_on_c, 13, 61, 0
7, 72862, Note_on_c, 13, 65, 0
7, 72862, Note_on_c, 13, 68, 0
7, 72864, Note_on_c, 13, 61, 110
7, 72864, Note_on_c, 13, 65, 110
7, 72864, Note_on_c, 13, 68, 110
7, 72958, Note_on_c, 13, 61, 0
7, 72958, Note_on_c, 13, 65, 0
7, 72958, Note_on_c, 13, 68, 0
7, 73152, Note_on_c, 13, 59, 110
7, 73152, Note_on_c, 13, 63, 110
7, 73152, Note_on_c, 13, 66, 110
7, 73246, Note_on_c, 13, 59, 0
7, 73246, Note_on_c, 13, 63, 0
7, 73246, Note_on_c, 13, 66, 0
7, 73248, Note_on_c, 13, 59, 110
7, 73248, Note_on_c, 13, 63, 110
7, 73248, Note_on_c, 13, 66, 110
7, 73342, Note_on_c, 13, 59, 0
7, 73342, Note_on_c, 13, 63, 0
7, 73342, Note_on_c, 13, 66, 0
7, 73440, Note_on_c, 13, 59, 110
7, 73440, Note_on_c, 13, 63, 110
7, 73440, Note_on_c, 13, 66, 110
7, 73534, Note_on_c, 13, 59, 0
7, 73534, Note_on_c, 13, 63, 0
7, 73534, Note_on_c, 13, 66, 0
7, 73536, Note_on_c, 13, 59, 110
7, 73536, Note_on_c, 13, 63, 110
7, 73536, Note_on_c, 13, 66, 110
7, 73630, Note_on_c, 13, 59, 0
7, 73630, Note_on_c, 13, 63, 0
7, 73630, Note_on_c, 13, 66, 0
7, 73632, Note_on_c, 13, 59, 110
7, 73632, Note_on_c, 13, 63, 110
7, 73632, Note_on_c, 13, 66, 110
7, 73726, Note_on_c, 13, 59, 0
7, 73726, Note_on_c, 13, 63, 0
7, 73726, Note_on_c, 13, 66, 0
7, 73824, Note_on_c, 13, 59, 110
7, 73824, Note_on_c, 13, 63, 110
7, 73824, Note_on_c, 13, 66, 110
7, 73918, Note_on_c, 13, 59, 0
7, 73918, Note_on_c, 13, 63, 0
7, 73918, Note_on_c, 13, 66, 0
7, 73920, Note_on_c, 13, 59, 110
7, 73920, Note_on_c, 13, 64, 110
7, 73920, Note_on_c, 13, 66, 110
7, 74014, Note_on_c, 13, 59, 0
7, 74014, Note_on_c, 13, 64, 0
7, 74014, Note_on_c, 13, 66, 0
7, 74016, Note_on_c, 13, 59, 110
7, 74016, Note_on_c, 13, 63, 110
7, 74016, Note_on_c, 13, 66, 110
7, 74110, Note_on_c, 13, 59, 0
7, 74110, Note_on_c, 13, 63, 0
7, 74110, Note_on_c, 13, 66, 0
7, 74208, Note_on_c, 13, 59, 110
7, 74208, Note_on_c, 13, 63, 110
7, 74208, Note_on_c, 13, 66, 110
7, 74302, Note_on_c, 13, 59, 0
7, 74302, Note_on_c, 13, 63, 0
7, 74302, Note_on_c, 13, 66, 0
7, 74304, Note_on_c, 13, 59, 110
7, 74304, Note_on_c, 13, 64, 110
7, 74304, Note_on_c, 13, 66, 110
7, 74398, Note_on_c, 13, 59, 0
7, 74398, Note_on_c, 13, 64, 0
7, 74398, Note_on_c, 13, 66, 0
7, 74400, Note_on_c, 13, 59, 110
7, 74400, Note_on_c, 13, 63, 110
7, 74400, Note_on_c, 13, 66, 110
7, 74494, Note_on_c, 13, 59, 0
7, 74494, Note_on_c, 13, 63, 0
7, 74494, Note_on_c, 13, 66, 0
7, 74496, Note_on_c, 13, 59, 110
7, 74496, Note_on_c, 13, 63, 110
7, 74496, Note_on_c, 13, 66, 110
7, 74590, Note_on_c, 13, 59, 0
7, 74590, Note_on_c, 13, 63, 0
7, 74590, Note_on_c, 13, 66, 0
7, 74688, Note_on_c, 13, 57, 110
7, 74688, Note_on_c, 13, 60, 110
7, 74688, Note_on_c, 13, 64, 110
7, 74782, Note_on_c, 13, 57, 0
7, 74782, Note_on_c, 13, 60, 0
7, 74782, Note_on_c, 13, 64, 0
7, 74784, Note_on_c, 13, 57, 110
7, 74784, Note_on_c, 13, 60, 110
7, 74784, Note_on_c, 13, 64, 110
7, 74878, Note_on_c, 13, 57, 0
7, 74878, Note_on_c, 13, 60, 0
7, 74878, Note_on_c, 13, 64, 0
7, 74976, Note_on_c, 13, 57, 110
7, 74976, Note_on_c, 13, 60, 110
7, 74976, Note_on_c, 13, 64, 110
7, 75070, Note_on_c, 13, 57, 0
7, 75070, Note_on_c, 13, 60, 0
7, 75070, Note_on_c, 13, 64, 0
7, 75072, Note_on_c, 13, 57, 110
7, 75072, Note_on_c, 13, 60, 110
7, 75072, Note_on_c, 13, 64, 110
7, 75166, Note_on_c, 13, 57, 0
7, 75166, Note_on_c, 13, 60, 0
7, 75166, Note_on_c, 13, 64, 0
7, 75168, Note_on_c, 13, 57, 110
7, 75168, Note_on_c, 13, 60, 110
7, 75168, Note_on_c, 13, 64, 110
7, 75262, Note_on_c, 13, 57, 0
7, 75262, Note_on_c, 13, 60, 0
7, 75262, Note_on_c, 13, 64, 0
7, 75456, Note_on_c, 13, 59, 110
7, 75456, Note_on_c, 13, 64, 110
7, 75456, Note_on_c, 13, 68, 110
7, 75550, Note_on_c, 13, 59, 0
7, 75550, Note_on_c, 13, 64, 0
7, 75550, Note_on_c, 13, 68, 0
7, 75552, Note_on_c, 13, 59, 110
7, 75552, Note_on_c, 13, 64, 110
7, 75552, Note_on_c, 13, 66, 110
7, 75552, Note_on_c, 13, 68, 110
7, 75646, Note_on_c, 13, 59, 0
7, 75646, Note_on_c, 13, 64, 0
7, 75646, Note_on_c, 13, 66, 0
7, 75646, Note_on_c, 13, 68, 0
7, 75744, Note_on_c, 13, 59, 110
7, 75744, Note_on_c, 13, 64, 110
7, 75744, Note_on_c, 13, 68, 110
7, 75838, Note_on_c, 13, 59, 0
7, 75838, Note_on_c, 13, 64, 0
7, 75838, Note_on_c, 13, 68, 0
7, 75840, Note_on_c, 13, 59, 110
7, 75840, Note_on_c, 13, 68, 110
7, 75934, Note_on_c, 13, 59, 0
7, 75934, Note_on_c, 13, 68, 0
7, 75936, Note_on_c, 13, 59, 110
7, 75936, Note_on_c, 13, 64, 110
7, 75936, Note_on_c, 13, 68, 110
7, 76030, Note_on_c, 13, 59, 0
7, 76030, Note_on_c, 13, 64, 0
7, 76030, Note_on_c, 13, 68, 0
7, 76032, Note_on_c, 13, 64, 110
7, 76126, Note_on_c, 13, 64, 0
7, 76224, Note_on_c, 13, 55, 110
7, 76224, Note_on_c, 13, 59, 110
7, 76224, Note_on_c, 13, 62, 110
7, 76318, Note_on_c, 13, 55, 0
7, 76318, Note_on_c, 13, 59, 0
7, 76318, Note_on_c, 13, 62, 0
7, 76320, Note_on_c, 13, 55, 110
7, 76320, Note_on_c, 13, 59, 110
7, 76320, Note_on_c, 13, 62, 110
7, 76414, Note_on_c, 13, 55, 0
7, 76414, Note_on_c, 13, 59, 0
7, 76414, Note_on_c, 13, 62, 0
7, 76512, Note_on_c, 13, 55, 110
7, 76512, Note_on_c, 13, 59, 110
7, 76512, Note_on_c, 13, 62, 110
7, 76606, Note_on_c, 13, 55, 0
7, 76606, Note_on_c, 13, 59, 0
7, 76606, Note_on_c, 13, 62, 0
7, 76608, Note_on_c, 13, 55, 110
7, 76608, Note_on_c, 13, 59, 110
7, 76608, Note_on_c, 13, 62, 110
7, 76702, Note_on_c, 13, 55, 0
7, 76702, Note_on_c, 13, 59, 0
7, 76702, Note_on_c, 13, 62, 0
7, 76704, Note_on_c, 13, 55, 110
7, 76704, Note_on_c, 13, 59, 110
7, 76704, Note_on_c, 13, 62, 110
7, 76798, Note_on_c, 13, 55, 0
7, 76798, Note_on_c, 13, 59, 0
7, 76798, Note_on_c, 13, 62, 0
7, 76992, Note_on_c, 13, 53, 110
7, 76992, Note_on_c, 13, 57, 110
7, 76992, Note_on_c, 13, 60, 110
7, 77086, Note_on_c, 13, 53, 0
7, 77086, Note_on_c, 13, 57, 0
7, 77086, Note_on_c, 13, 60, 0
7, 77088, Note_on_c, 13, 53, 110
7, 77088, Note_on_c, 13, 57, 110
7, 77088, Note_on_c, 13, 60, 110
7, 77182, Note_on_c, 13, 53, 0
7, 77182, Note_on_c, 13, 57, 0
7, 77182, Note_on_c, 13, 60, 0
7, 77280, Note_on_c, 13, 53, 110
7, 77280, Note_on_c, 13, 57, 110
7, 77280, Note_on_c, 13, 60, 110
7, 77374, Note_on_c, 13, 53, 0
7, 77374, Note_on_c, 13, 57, 0
7, 77374, Note_on_c, 13, 60, 0
7, 77376, Note_on_c, 13, 53, 110
7, 77376, Note_on_c, 13, 57, 110
7, 77376, Note_on_c, 13, 60, 110
7, 77470, Note_on_c, 13, 53, 0
7, 77470, Note_on_c, 13, 57, 0
7, 77470, Note_on_c, 13, 60, 0
7, 77472, Note_on_c, 13, 53, 110
7, 77472, Note_on_c, 13, 57, 110
7, 77472, Note_on_c, 13, 60, 110
7, 77566, Note_on_c, 13, 53, 0
7, 77566, Note_on_c, 13, 57, 0
7, 77566, Note_on_c, 13, 60, 0
7, 77760, Note_on_c, 13, 58, 110
7, 77760, Note_on_c, 13, 62, 110
7, 77760, Note_on_c, 13, 65, 110
7, 77854, Note_on_c, 13, 58, 0
7, 77854, Note_on_c, 13, 62, 0
7, 77854, Note_on_c, 13, 65, 0
7, 77856, Note_on_c, 13, 58, 110
7, 77856, Note_on_c, 13, 62, 110
7, 77856, Note_on_c, 13, 65, 110
7, 77950, Note_on_c, 13, 58, 0
7, 77950, Note_on_c, 13, 62, 0
7, 77950, Note_on_c, 13, 65, 0
7, 77952, Note_on_c, 13, 67, 110
7, 78046, Note_on_c, 13, 67, 0
7, 78048, Note_on_c, 13, 58, 110
7, 78048, Note_on_c, 13, 62, 110
7, 78048, Note_on_c, 13, 65, 110
7, 78142, Note_on_c, 13, 58, 0
7, 78142, Note_on_c, 13, 62, 0
7, 78142, Note_on_c, 13, 65, 0
7, 78144, Note_on_c, 13, 58, 110
7, 78144, Note_on_c, 13, 62, 110
7, 78144, Note_on_c, 13, 65, 110
7, 78238, Note_on_c, 13, 58, 0
7, 78238, Note_on_c, 13, 62, 0
7, 78238, Note_on_c, 13, 65, 0
7, 78240, Note_on_c, 13, 58, 110
7, 78240, Note_on_c, 13, 62, 110
7, 78240, Note_on_c, 13, 65, 110
7, 78334, Note_on_c, 13, 58, 0
7, 78334, Note_on_c, 13, 62, 0
7, 78334, Note_on_c, 13, 65, 0
7, 78336, Note_on_c, 13, 67, 110
7, 78496, Note_on_c, 13, 67, 0
7, 78528, Note_on_c, 13, 61, 110
7, 78528, Note_on_c, 13, 64, 110
7, 78528, Note_on_c, 13, 69, 110
7, 78622, Note_on_c, 13, 61, 0
7, 78622, Note_on_c, 13, 64, 0
7, 78622, Note_on_c, 13, 69, 0
7, 78624, Note_on_c, 13, 61, 110
7, 78624, Note_on_c, 13, 64, 110
7, 78624, Note_on_c, 13, 69, 110
7, 78718, Note_on_c, 13, 61, 0
7, 78718, Note_on_c, 13, 64, 0
7, 78718, Note_on_c, 13, 69, 0
7, 78816, Note_on_c, 13, 61, 110
7, 78816, Note_on_c, 13, 64, 110
7, 78816, Note_on_c, 13, 69, 110
7, 78910, Note_on_c, 13, 61, 0
7, 78910, Note_on_c, 13, 64, 0
7, 78910, Note_on_c, 13, 69, 0
7, 78912, Note_on_c, 13, 61, 110
7, 78912, Note_on_c, 13, 64, 110
7, 78912, Note_on_c, 13, 69, 110
7, 79006, Note_on_c, 13, 61, 0
7, 79006, Note_on_c, 13, 64, 0
7, 79006, Note_on_c, 13, 69, 0
7, 79008, Note_on_c, 13, 61, 110
7, 79008, Note_on_c, 13, 64, 110
7, 79008, Note_on_c, 13, 69, 110
7, 79102, Note_on_c, 13, 61, 0
7, 79102, Note_on_c, 13, 64, 0
7, 79102, Note_on_c, 13, 69, 0
7, 79296, Note_on_c, 13, 61, 110
7, 79296, Note_on_c, 13, 64, 110
7, 79296, Note_on_c, 13, 66, 110
7, 79296, Note_on_c, 13, 69, 110
7, 79296, Note_on_c, 13, 71, 110
7, 79390, Note_on_c, 13, 61, 0
7, 79390, Note_on_c, 13, 64, 0
7, 79390, Note_on_c, 13, 69, 0
7, 79390, Note_on_c, 13, 66, 0
7, 79390, Note_on_c, 13, 71, 0
7, 79392, Note_on_c, 13, 61, 110
7, 79392, Note_on_c, 13, 64, 110
7, 79392, Note_on_c, 13, 68, 110
7, 79392, Note_on_c, 13, 69, 110
7, 79392, Note_on_c, 13, 73, 110
7, 79486, Note_on_c, 13, 61, 0
7, 79486, Note_on_c, 13, 64, 0
7, 79486, Note_on_c, 13, 68, 0
7, 79486, Note_on_c, 13, 69, 0
7, 79486, Note_on_c, 13, 73, 0
7, 79584, Note_on_c, 13, 61, 110
7, 79584, Note_on_c, 13, 64, 110
7, 79584, Note_on_c, 13, 69, 110
7, 79744, Note_on_c, 13, 61, 0
7, 79744, Note_on_c, 13, 64, 0
7, 79744, Note_on_c, 13, 69, 0
7, 79776, Note_on_c, 13, 61, 110
7, 79776, Note_on_c, 13, 64, 110
7, 79776, Note_on_c, 13, 69, 110
7, 79870, Note_on_c, 13, 61, 0
7, 79870, Note_on_c, 13, 64, 0
7, 79870, Note_on_c, 13, 69, 0
7, 79872, Note_on_c, 13, 61, 110
7, 79872, Note_on_c, 13, 64, 110
7, 79872, Note_on_c, 13, 69, 110
7, 79966, Note_on_c, 13, 61, 0
7, 79966, Note_on_c, 13, 64, 0
7, 79966, Note_on_c, 13, 69, 0
7, 80064, Note_on_c, 13, 61, 110
7, 80064, Note_on_c, 13, 64, 110
7, 80064, Note_on_c, 13, 68, 110
7, 80158, Note_on_c, 13, 61, 0
7, 80158, Note_on_c, 13, 64, 0
7, 80158, Note_on_c, 13, 68, 0
7, 80160, Note_on_c, 13, 61, 110
7, 80160, Note_on_c, 13, 64, 110
7, 80160, Note_on_c, 13, 68, 110
7, 80254, Note_on_c, 13, 61, 0
7, 80254, Note_on_c, 13, 64, 0
7, 80254, Note_on_c, 13, 68, 0
7, 80352, Note_on_c, 13, 61, 110
7, 80352, Note_on_c, 13, 64, 110
7, 80352, Note_on_c, 13, 68, 110
7, 80446, Note_on_c, 13, 61, 0
7, 80446, Note_on_c, 13, 64, 0
7, 80446, Note_on_c, 13, 68, 0
7, 80448, Note_on_c, 13, 61, 110
7, 80448, Note_on_c, 13, 64, 110
7, 80448, Note_on_c, 13, 68, 110
7, 80542, Note_on_c, 13, 61, 0
7, 80542, Note_on_c, 13, 64, 0
7, 80542, Note_on_c, 13, 68, 0
7, 80544, Note_on_c, 13, 61, 110
7, 80544, Note_on_c, 13, 64, 110
7, 80544, Note_on_c, 13, 68, 110
7, 80638, Note_on_c, 13, 61, 0
7, 80638, Note_on_c, 13, 64, 0
7, 80638, Note_on_c, 13, 68, 0
7, 80736, Note_on_c, 13, 61, 110
7, 80736, Note_on_c, 13, 64, 110
7, 80736, Note_on_c, 13, 68, 110
7, 80830, Note_on_c, 13, 61, 0
7, 80830, Note_on_c, 13, 64, 0
7, 80830, Note_on_c, 13, 68, 0
7, 80832, Note_on_c, 13, 61, 110
7, 80832, Note_on_c, 13, 64, 110
7, 80832, Note_on_c, 13, 68, 110
7, 80926, Note_on_c, 13, 61, 0
7, 80926, Note_on_c, 13, 64, 0
7, 80926, Note_on_c, 13, 68, 0
7, 80928, Note_on_c, 13, 61, 110
7, 80928, Note_on_c, 13, 64, 110
7, 80928, Note_on_c, 13, 68, 110
7, 81022, Note_on_c, 13, 61, 0
7, 81022, Note_on_c, 13, 64, 0
7, 81022, Note_on_c, 13, 68, 0
7, 81120, Note_on_c, 13, 61, 110
7, 81120, Note_on_c, 13, 64, 110
7, 81120, Note_on_c, 13, 68, 110
7, 81214, Note_on_c, 13, 61, 0
7, 81214, Note_on_c, 13, 64, 0
7, 81214, Note_on_c, 13, 68, 0
7, 81216, Note_on_c, 13, 61, 110
7, 81216, Note_on_c, 13, 64, 110
7, 81216, Note_on_c, 13, 68, 110
7, 81310, Note_on_c, 13, 61, 0
7, 81310, Note_on_c, 13, 64, 0
7, 81310, Note_on_c, 13, 68, 0
7, 81312, Note_on_c, 13, 61, 110
7, 81312, Note_on_c, 13, 64, 110
7, 81312, Note_on_c, 13, 68, 110
7, 81406, Note_on_c, 13, 61, 0
7, 81406, Note_on_c, 13, 64, 0
7, 81406, Note_on_c, 13, 68, 0
7, 81600, Note_on_c, 13, 59, 110
7, 81600, Note_on_c, 13, 63, 110
7, 81600, Note_on_c, 13, 66, 110
7, 81694, Note_on_c, 13, 59, 0
7, 81694, Note_on_c, 13, 63, 0
7, 81694, Note_on_c, 13, 66, 0
7, 81696, Note_on_c, 13, 59, 110
7, 81696, Note_on_c, 13, 63, 110
7, 81696, Note_on_c, 13, 66, 110
7, 81790, Note_on_c, 13, 59, 0
7, 81790, Note_on_c, 13, 63, 0
7, 81790, Note_on_c, 13, 66, 0
7, 81888, Note_on_c, 13, 59, 110
7, 81888, Note_on_c, 13, 63, 110
7, 81888, Note_on_c, 13, 66, 110
7, 81982, Note_on_c, 13, 59, 0
7, 81982, Note_on_c, 13, 63, 0
7, 81982, Note_on_c, 13, 66, 0
7, 81984, Note_on_c, 13, 59, 110
7, 81984, Note_on_c, 13, 63, 110
7, 81984, Note_on_c, 13, 66, 110
7, 82078, Note_on_c, 13, 59, 0
7, 82078, Note_on_c, 13, 63, 0
7, 82078, Note_on_c, 13, 66, 0
7, 82080, Note_on_c, 13, 59, 110
7, 82080, Note_on_c, 13, 63, 110
7, 82080, Note_on_c, 13, 66, 110
7, 82174, Note_on_c, 13, 59, 0
7, 82174, Note_on_c, 13, 63, 0
7, 82174, Note_on_c, 13, 66, 0
7, 82272, Note_on_c, 13, 71, 110
7, 82368, Note_on_c, 13, 57, 110
7, 82368, Note_on_c, 13, 61, 110
7, 82368, Note_on_c, 13, 64, 110
7, 82462, Note_on_c, 13, 57, 0
7, 82462, Note_on_c, 13, 61, 0
7, 82462, Note_on_c, 13, 64, 0
7, 82462, Note_on_c, 13, 71, 0
7, 82464, Note_on_c, 13, 57, 110
7, 82464, Note_on_c, 13, 61, 110
7, 82464, Note_on_c, 13, 64, 110
7, 82464, Note_on_c, 13, 69, 110
7, 82558, Note_on_c, 13, 57, 0
7, 82558, Note_on_c, 13, 61, 0
7, 82558, Note_on_c, 13, 64, 0
7, 82624, Note_on_c, 13, 69, 0
7, 82656, Note_on_c, 13, 57, 110
7, 82656, Note_on_c, 13, 61, 110
7, 82656, Note_on_c, 13, 64, 110
7, 82656, Note_on_c, 13, 68, 110
7, 82750, Note_on_c, 13, 57, 0
7, 82750, Note_on_c, 13, 61, 0
7, 82750, Note_on_c, 13, 64, 0
7, 82752, Note_on_c, 13, 57, 110
7, 82752, Note_on_c, 13, 61, 110
7, 82752, Note_on_c, 13, 64, 110
7, 82816, Note_on_c, 13, 68, 0
7, 82846, Note_on_c, 13, 57, 0
7, 82846, Note_on_c, 13, 61, 0
7, 82846, Note_on_c, 13, 64, 0
7, 82848, Note_on_c, 13, 57, 110
7, 82848, Note_on_c, 13, 61, 110
7, 82848, Note_on_c, 13, 64, 110
7, 82942, Note_on_c, 13, 57, 0
7, 82942, Note_on_c, 13, 61, 0
7, 83104, Note_on_c, 13, 64, 0
7, 83136, Note_on_c, 13, 61, 110
7, 83136, Note_on_c, 13, 64, 110
7, 83136, Note_on_c, 13, 66, 110
7, 83136, Note_on_c, 13, 68, 110
7, 83230, Note_on_c, 13, 61, 0
7, 83230, Note_on_c, 13, 64, 0
7, 83230, Note_on_c, 13, 66, 0
7, 83230, Note_on_c, 13, 68, 0
7, 83232, Note_on_c, 13, 61, 110
7, 83232, Note_on_c, 13, 64, 110
7, 83232, Note_on_c, 13, 66, 110
7, 83232, Note_on_c, 13, 68, 110
7, 83326, Note_on_c, 13, 61, 0
7, 83326, Note_on_c, 13, 64, 0
7, 83326, Note_on_c, 13, 66, 0
7, 83326, Note_on_c, 13, 68, 0
7, 83424, Note_on_c, 13, 61, 110
7, 83424, Note_on_c, 13, 64, 110
7, 83424, Note_on_c, 13, 66, 110
7, 83424, Note_on_c, 13, 68, 110
7, 83518, Note_on_c, 13, 61, 0
7, 83518, Note_on_c, 13, 64, 0
7, 83518, Note_on_c, 13, 66, 0
7, 83518, Note_on_c, 13, 68, 0
7, 83520, Note_on_c, 13, 61, 110
7, 83520, Note_on_c, 13, 64, 110
7, 83520, Note_on_c, 13, 66, 110
7, 83520, Note_on_c, 13, 68, 110
7, 83614, Note_on_c, 13, 61, 0
7, 83614, Note_on_c, 13, 64, 0
7, 83614, Note_on_c, 13, 66, 0
7, 83614, Note_on_c, 13, 68, 0
7, 83616, Note_on_c, 13, 61, 110
7, 83616, Note_on_c, 13, 64, 110
7, 83616, Note_on_c, 13, 66, 110
7, 83616, Note_on_c, 13, 68, 110
7, 83710, Note_on_c, 13, 61, 0
7, 83710, Note_on_c, 13, 64, 0
7, 83710, Note_on_c, 13, 66, 0
7, 83710, Note_on_c, 13, 68, 0
7, 83904, Note_on_c, 13, 59, 110
7, 83904, Note_on_c, 13, 64, 110
7, 83904, Note_on_c, 13, 68, 110
7, 83998, Note_on_c, 13, 59, 0
7, 83998, Note_on_c, 13, 64, 0
7, 83998, Note_on_c, 13, 68, 0
7, 84000, Note_on_c, 13, 59, 110
7, 84000, Note_on_c, 13, 64, 110
7, 84000, Note_on_c, 13, 68, 110
7, 84094, Note_on_c, 13, 59, 0
7, 84094, Note_on_c, 13, 64, 0
7, 84094, Note_on_c, 13, 68, 0
7, 84192, Note_on_c, 13, 59, 110
7, 84192, Note_on_c, 13, 64, 110
7, 84192, Note_on_c, 13, 66, 110
7, 84192, Note_on_c, 13, 68, 110
7, 84286, Note_on_c, 13, 59, 0
7, 84286, Note_on_c, 13, 64, 0
7, 84286, Note_on_c, 13, 66, 0
7, 84286, Note_on_c, 13, 68, 0
7, 84288, Note_on_c, 13, 59, 110
7, 84288, Note_on_c, 13, 64, 110
7, 84288, Note_on_c, 13, 68, 110
7, 84382, Note_on_c, 13, 59, 0
7, 84382, Note_on_c, 13, 64, 0
7, 84382, Note_on_c, 13, 68, 0
7, 84384, Note_on_c, 13, 59, 110
7, 84384, Note_on_c, 13, 64, 110
7, 84384, Note_on_c, 13, 66, 110
7, 84384, Note_on_c, 13, 68, 110
7, 84478, Note_on_c, 13, 59, 0
7, 84478, Note_on_c, 13, 64, 0
7, 84478, Note_on_c, 13, 66, 0
7, 84478, Note_on_c, 13, 68, 0
7, 84576, Note_on_c, 13, 71, 110
7, 84672, Note_on_c, 13, 57, 110
7, 84672, Note_on_c, 13, 61, 110
7, 84672, Note_on_c, 13, 64, 110
7, 84766, Note_on_c, 13, 57, 0
7, 84766, Note_on_c, 13, 61, 0
7, 84766, Note_on_c, 13, 64, 0
7, 84766, Note_on_c, 13, 71, 0
7, 84768, Note_on_c, 13, 57, 110
7, 84768, Note_on_c, 13, 61, 110
7, 84768, Note_on_c, 13, 64, 110
7, 84768, Note_on_c, 13, 71, 110
7, 84862, Note_on_c, 13, 57, 0
7, 84862, Note_on_c, 13, 61, 0
7, 84862, Note_on_c, 13, 64, 0
7, 84862, Note_on_c, 13, 71, 0
7, 84960, Note_on_c, 13, 57, 110
7, 84960, Note_on_c, 13, 61, 110
7, 84960, Note_on_c, 13, 64, 110
7, 84960, Note_on_c, 13, 67, 110
7, 85054, Note_on_c, 13, 57, 0
7, 85054, Note_on_c, 13, 61, 0
7, 85054, Note_on_c, 13, 64, 0
7, 85056, Note_on_c, 13, 57, 110
7, 85056, Note_on_c, 13, 61, 110
7, 85056, Note_on_c, 13, 64, 110
7, 85150, Note_on_c, 13, 57, 0
7, 85150, Note_on_c, 13, 61, 0
7, 85150, Note_on_c, 13, 64, 0
7, 85152, Note_on_c, 13, 57, 110
7, 85152, Note_on_c, 13, 61, 110
7, 85152, Note_on_c, 13, 64, 110
7, 85246, Note_on_c, 13, 57, 0
7, 85246, Note_on_c, 13, 61, 0
7, 85246, Note_on_c, 13, 64, 0
7, 85296, Note_on_c, 13, 67, 0
7, 85440, Note_on_c, 13, 59, 110
7, 85440, Note_on_c, 13, 63, 110
7, 85440, Note_on_c, 13, 66, 110
7, 85534, Note_on_c, 13, 59, 0
7, 85534, Note_on_c, 13, 63, 0
7, 85534, Note_on_c, 13, 66, 0
7, 85536, Note_on_c, 13, 59, 110
7, 85536, Note_on_c, 13, 63, 110
7, 85536, Note_on_c, 13, 66, 110
7, 85630, Note_on_c, 13, 59, 0
7, 85630, Note_on_c, 13, 63, 0
7, 85630, Note_on_c, 13, 66, 0
7, 85728, Note_on_c, 13, 59, 110
7, 85728, Note_on_c, 13, 63, 110
7, 85728, Note_on_c, 13, 66, 110
7, 85822, Note_on_c, 13, 59, 0
7, 85822, Note_on_c, 13, 63, 0
7, 85822, Note_on_c, 13, 66, 0
7, 85824, Note_on_c, 13, 59, 110
7, 85824, Note_on_c, 13, 63, 110
7, 85824, Note_on_c, 13, 66, 110
7, 85918, Note_on_c, 13, 59, 0
7, 85918, Note_on_c, 13, 63, 0
7, 85918, Note_on_c, 13, 66, 0
7, 85920, Note_on_c, 13, 59, 110
7, 85920, Note_on_c, 13, 63, 110
7, 85920, Note_on_c, 13, 66, 110
7, 86014, Note_on_c, 13, 59, 0
7, 86014, Note_on_c, 13, 63, 0
7, 86014, Note_on_c, 13, 66, 0
7, 86208, Note_on_c, 13, 61, 110
7, 86208, Note_on_c, 13, 64, 110
7, 86208, Note_on_c, 13, 66, 110
7, 86208, Note_on_c, 13, 68, 110
7, 86302, Note_on_c, 13, 61, 0
7, 86302, Note_on_c, 13, 64, 0
7, 86302, Note_on_c, 13, 66, 0
7, 86302, Note_on_c, 13, 68, 0
7, 86304, Note_on_c, 13, 61, 110
7, 86304, Note_on_c, 13, 64, 110
7, 86304, Note_on_c, 13, 66, 110
7, 86304, Note_on_c, 13, 68, 110
7, 86398, Note_on_c, 13, 61, 0
7, 86398, Note_on_c, 13, 64, 0
7, 86398, Note_on_c, 13, 66, 0
7, 86398, Note_on_c, 13, 68, 0
7, 86496, Note_on_c, 13, 61, 110
7, 86496, Note_on_c, 13, 64, 110
7, 86496, Note_on_c, 13, 66, 110
7, 86496, Note_on_c, 13, 68, 110
7, 86590, Note_on_c, 13, 61, 0
7, 86590, Note_on_c, 13, 64, 0
7, 86590, Note_on_c, 13, 66, 0
7, 86590, Note_on_c, 13, 68, 0
7, 86592, Note_on_c, 13, 61, 110
7, 86592, Note_on_c, 13, 64, 110
7, 86592, Note_on_c, 13, 66, 110
7, 86592, Note_on_c, 13, 68, 110
7, 86686, Note_on_c, 13, 61, 0
7, 86686, Note_on_c, 13, 64, 0
7, 86686, Note_on_c, 13, 66, 0
7, 86686, Note_on_c, 13, 68, 0
7, 86688, Note_on_c, 13, 61, 110
7, 86688, Note_on_c, 13, 64, 110
7, 86688, Note_on_c, 13, 66, 110
7, 86688, Note_on_c, 13, 68, 110
7, 86782, Note_on_c, 13, 61, 0
7, 86782, Note_on_c, 13, 64, 0
7, 86782, Note_on_c, 13, 66, 0
7, 86782, Note_on_c, 13, 68, 0
7, 86880, Note_on_c, 13, 61, 110
7, 86880, Note_on_c, 13, 64, 110
7, 86880, Note_on_c, 13, 66, 110
7, 86880, Note_on_c, 13, 68, 110
7, 86974, Note_on_c, 13, 61, 0
7, 86974, Note_on_c, 13, 64, 0
7, 86974, Note_on_c, 13, 66, 0
7, 86974, Note_on_c, 13, 68, 0
7, 86976, Note_on_c, 13, 61, 110
7, 86976, Note_on_c, 13, 64, 110
7, 86976, Note_on_c, 13, 66, 110
7, 86976, Note_on_c, 13, 68, 110
7, 87070, Note_on_c, 13, 61, 0
7, 87070, Note_on_c, 13, 64, 0
7, 87070, Note_on_c, 13, 66, 0
7, 87070, Note_on_c, 13, 68, 0
7, 87072, Note_on_c, 13, 61, 110
7, 87072, Note_on_c, 13, 64, 110
7, 87072, Note_on_c, 13, 66, 110
7, 87072, Note_on_c, 13, 68, 110
7, 87166, Note_on_c, 13, 61, 0
7, 87166, Note_on_c, 13, 64, 0
7, 87166, Note_on_c, 13, 66, 0
7, 87166, Note_on_c, 13, 68, 0
7, 87264, Note_on_c, 13, 61, 110
7, 87264, Note_on_c, 13, 64, 110
7, 87264, Note_on_c, 13, 66, 110
7, 87264, Note_on_c, 13, 68, 110
7, 87358, Note_on_c, 13, 61, 0
7, 87358, Note_on_c, 13, 64, 0
7, 87358, Note_on_c, 13, 66, 0
7, 87358, Note_on_c, 13, 68, 0
7, 87360, Note_on_c, 13, 61, 110
7, 87360, Note_on_c, 13, 64, 110
7, 87360, Note_on_c, 13, 66, 110
7, 87360, Note_on_c, 13, 68, 110
7, 87454, Note_on_c, 13, 61, 0
7, 87454, Note_on_c, 13, 64, 0
7, 87454, Note_on_c, 13, 66, 0
7, 87454, Note_on_c, 13, 68, 0
7, 87456, Note_on_c, 13, 61, 110
7, 87456, Note_on_c, 13, 64, 110
7, 87456, Note_on_c, 13, 66, 110
7, 87456, Note_on_c, 13, 68, 110
7, 87550, Note_on_c, 13, 61, 0
7, 87550, Note_on_c, 13, 64, 0
7, 87550, Note_on_c, 13, 66, 0
7, 87550, Note_on_c, 13, 68, 0
7, 87744, Note_on_c, 13, 59, 110
7, 87744, Note_on_c, 13, 63, 110
7, 87744, Note_on_c, 13, 66, 110
7, 87838, Note_on_c, 13, 59, 0
7, 87838, Note_on_c, 13, 63, 0
7, 87838, Note_on_c, 13, 66, 0
7, 87840, Note_on_c, 13, 59, 110
7, 87840, Note_on_c, 13, 63, 110
7, 87840, Note_on_c, 13, 66, 110
7, 87934, Note_on_c, 13, 59, 0
7, 87934, Note_on_c, 13, 63, 0
7, 87934, Note_on_c, 13, 66, 0
7, 88032, Note_on_c, 13, 59, 110
7, 88032, Note_on_c, 13, 63, 110
7, 88032, Note_on_c, 13, 66, 110
7, 88126, Note_on_c, 13, 59, 0
7, 88126, Note_on_c, 13, 63, 0
7, 88126, Note_on_c, 13, 66, 0
7, 88128, Note_on_c, 13, 59, 110
7, 88128, Note_on_c, 13, 63, 110
7, 88128, Note_on_c, 13, 66, 110
7, 88222, Note_on_c, 13, 59, 0
7, 88222, Note_on_c, 13, 63, 0
7, 88222, Note_on_c, 13, 66, 0
7, 88224, Note_on_c, 13, 59, 110
7, 88224, Note_on_c, 13, 63, 110
7, 88224, Note_on_c, 13, 66, 110
7, 88318, Note_on_c, 13, 59, 0
7, 88318, Note_on_c, 13, 63, 0
7, 88318, Note_on_c, 13, 66, 0
7, 88416, Note_on_c, 13, 71, 110
7, 88512, Note_on_c, 13, 57, 110
7, 88512, Note_on_c, 13, 61, 110
7, 88512, Note_on_c, 13, 64, 110
7, 88606, Note_on_c, 13, 57, 0
7, 88606, Note_on_c, 13, 61, 0
7, 88606, Note_on_c, 13, 64, 0
7, 88606, Note_on_c, 13, 71, 0
7, 88608, Note_on_c, 13, 57, 110
7, 88608, Note_on_c, 13, 61, 110
7, 88608, Note_on_c, 13, 64, 110
7, 88608, Note_on_c, 13, 69, 110
7, 88702, Note_on_c, 13, 57, 0
7, 88702, Note_on_c, 13, 61, 0
7, 88702, Note_on_c, 13, 64, 0
7, 88768, Note_on_c, 13, 69, 0
7, 88800, Note_on_c, 13, 57, 110
7, 88800, Note_on_c, 13, 61, 110
7, 88800, Note_on_c, 13, 64, 110
7, 88800, Note_on_c, 13, 68, 110
7, 88894, Note_on_c, 13, 57, 0
7, 88894, Note_on_c, 13, 61, 0
7, 88894, Note_on_c, 13, 64, 0
7, 88896, Note_on_c, 13, 57, 110
7, 88896, Note_on_c, 13, 61, 110
7, 88896, Note_on_c, 13, 64, 110
7, 88960, Note_on_c, 13, 68, 0
7, 88990, Note_on_c, 13, 57, 0
7, 88990, Note_on_c, 13, 61, 0
7, 88990, Note_on_c, 13, 64, 0
7, 88992, Note_on_c, 13, 57, 110
7, 88992, Note_on_c, 13, 61, 110
7, 88992, Note_on_c, 13, 64, 110
7, 89086, Note_on_c, 13, 57, 0
7, 89086, Note_on_c, 13, 61, 0
7, 89248, Note_on_c, 13, 64, 0
7, 89280, Note_on_c, 13, 61, 110
7, 89280, Note_on_c, 13, 64, 110
7, 89280, Note_on_c, 13, 66, 110
7, 89280, Note_on_c, 13, 68, 110
7, 89374, Note_on_c, 13, 61, 0
7, 89374, Note_on_c, 13, 64, 0
7, 89374, Note_on_c, 13, 66, 0
7, 89374, Note_on_c, 13, 68, 0
7, 89376, Note_on_c, 13, 61, 110
7, 89376, Note_on_c, 13, 64, 110
7, 89376, Note_on_c, 13, 66, 110
7, 89376, Note_on_c, 13, 68, 110
7, 89470, Note_on_c, 13, 61, 0
7, 89470, Note_on_c, 13, 64, 0
7, 89470, Note_on_c, 13, 66, 0
7, 89470, Note_on_c, 13, 68, 0
7, 89568, Note_on_c, 13, 61, 110
7, 89568, Note_on_c, 13, 64, 110
7, 89568, Note_on_c, 13, 66, 110
7, 89568, Note_on_c, 13, 68, 110
7, 89662, Note_on_c, 13, 61, 0
7, 89662, Note_on_c, 13, 64, 0
7, 89662, Note_on_c, 13, 66, 0
7, 89662, Note_on_c, 13, 68, 0
7, 89664, Note_on_c, 13, 61, 110
7, 89664, Note_on_c, 13, 64, 110
7, 89664, Note_on_c, 13, 66, 110
7, 89664, Note_on_c, 13, 68, 110
7, 89758, Note_on_c, 13, 61, 0
7, 89758, Note_on_c, 13, 64, 0
7, 89758, Note_on_c, 13, 66, 0
7, 89758, Note_on_c, 13, 68, 0
7, 89760, Note_on_c, 13, 61, 110
7, 89760, Note_on_c, 13, 64, 110
7, 89760, Note_on_c, 13, 66, 110
7, 89760, Note_on_c, 13, 68, 110
7, 89854, Note_on_c, 13, 61, 0
7, 89854, Note_on_c, 13, 64, 0
7, 89854, Note_on_c, 13, 66, 0
7, 89854, Note_on_c, 13, 68, 0
7, 90048, Note_on_c, 13, 59, 110
7, 90048, Note_on_c, 13, 64, 110
7, 90048, Note_on_c, 13, 68, 110
7, 90142, Note_on_c, 13, 59, 0
7, 90142, Note_on_c, 13, 64, 0
7, 90142, Note_on_c, 13, 68, 0
7, 90144, Note_on_c, 13, 59, 110
7, 90144, Note_on_c, 13, 64, 110
7, 90144, Note_on_c, 13, 68, 110
7, 90238, Note_on_c, 13, 59, 0
7, 90238, Note_on_c, 13, 64, 0
7, 90238, Note_on_c, 13, 68, 0
7, 90336, Note_on_c, 13, 59, 110
7, 90336, Note_on_c, 13, 64, 110
7, 90336, Note_on_c, 13, 66, 110
7, 90336, Note_on_c, 13, 68, 110
7, 90430, Note_on_c, 13, 59, 0
7, 90430, Note_on_c, 13, 64, 0
7, 90430, Note_on_c, 13, 66, 0
7, 90430, Note_on_c, 13, 68, 0
7, 90432, Note_on_c, 13, 59, 110
7, 90432, Note_on_c, 13, 64, 110
7, 90432, Note_on_c, 13, 68, 110
7, 90526, Note_on_c, 13, 59, 0
7, 90526, Note_on_c, 13, 64, 0
7, 90526, Note_on_c, 13, 68, 0
7, 90528, Note_on_c, 13, 59, 110
7, 90528, Note_on_c, 13, 64, 110
7, 90528, Note_on_c, 13, 66, 110
7, 90528, Note_on_c, 13, 68, 110
7, 90622, Note_on_c, 13, 59, 0
7, 90622, Note_on_c, 13, 64, 0
7, 90622, Note_on_c, 13, 66, 0
7, 90622, Note_on_c, 13, 68, 0
7, 90720, Note_on_c, 13, 71, 110
7, 90816, Note_on_c, 13, 57, 110
7, 90816, Note_on_c, 13, 61, 110
7, 90816, Note_on_c, 13, 64, 110
7, 90910, Note_on_c, 13, 57, 0
7, 90910, Note_on_c, 13, 61, 0
7, 90910, Note_on_c, 13, 64, 0
7, 90910, Note_on_c, 13, 71, 0
7, 90912, Note_on_c, 13, 57, 110
7, 90912, Note_on_c, 13, 61, 110
7, 90912, Note_on_c, 13, 64, 110
7, 90912, Note_on_c, 13, 71, 110
7, 91006, Note_on_c, 13, 57, 0
7, 91006, Note_on_c, 13, 61, 0
7, 91006, Note_on_c, 13, 64, 0
7, 91006, Note_on_c, 13, 71, 0
7, 91104, Note_on_c, 13, 57, 110
7, 91104, Note_on_c, 13, 61, 110
7, 91104, Note_on_c, 13, 64, 110
7, 91104, Note_on_c, 13, 67, 110
7, 91198, Note_on_c, 13, 57, 0
7, 91198, Note_on_c, 13, 61, 0
7, 91198, Note_on_c, 13, 64, 0
7, 91200, Note_on_c, 13, 57, 110
7, 91200, Note_on_c, 13, 61, 110
7, 91200, Note_on_c, 13, 64, 110
7, 91264, Note_on_c, 13, 67, 0
7, 91294, Note_on_c, 13, 57, 0
7, 91294, Note_on_c, 13, 61, 0
7, 91294, Note_on_c, 13, 64, 0
7, 91296, Note_on_c, 13, 57, 110
7, 91296, Note_on_c, 13, 61, 110
7, 91296, Note_on_c, 13, 64, 110
7, 91296, Note_on_c, 13, 67, 110
7, 91390, Note_on_c, 13, 57, 0
7, 91390, Note_on_c, 13, 61, 0
7, 91390, Note_on_c, 13, 64, 0
7, 91390, Note_on_c, 13, 67, 0
7, 91584, Note_on_c, 13, 66, 110
7, 91744, Note_on_c, 13, 66, 0
7, 91776, Note_on_c, 13, 62, 110
7, 91776, Note_on_c, 13, 66, 110
7, 91776, Note_on_c, 13, 69, 110
7, 91870, Note_on_c, 13, 62, 0
7, 91870, Note_on_c, 13, 66, 0
7, 91870, Note_on_c, 13, 69, 0
7, 92160, Note_on_c, 13, 62, 110
7, 92160, Note_on_c, 13, 66, 110
7, 92160, Note_on_c, 13, 69, 110
7, 92254, Note_on_c, 13, 62, 0
7, 92254, Note_on_c, 13, 66, 0
7, 92254, Note_on_c, 13, 69, 0
7, 92544, Note_on_c, 13, 62, 110
7, 92544, Note_on_c, 13, 66, 110
7, 92544, Note_on_c, 13, 69, 110
7, 92638, Note_on_c, 13, 62, 0
7, 92638, Note_on_c, 13, 66, 0
7, 92638, Note_on_c, 13, 69, 0
7, 92928, Note_on_c, 13, 62, 110
7, 92928, Note_on_c, 13, 66, 110
7, 92928, Note_on_c, 13, 69, 110
7, 93022, Note_on_c, 13, 62, 0
7, 93022, Note_on_c, 13, 66, 0
7, 93022, Note_on_c, 13, 69, 0
7, 93312, Note_on_c, 13, 57, 110
7, 93312, Note_on_c, 13, 61, 110
7, 93312, Note_on_c, 13, 64, 110
7, 93406, Note_on_c, 13, 57, 0
7, 93406, Note_on_c, 13, 61, 0
7, 93406, Note_on_c, 13, 64, 0
7, 93696, Note_on_c, 13, 57, 110
7, 93696, Note_on_c, 13, 61, 110
7, 93696, Note_on_c, 13, 64, 110
7, 93790, Note_on_c, 13, 57, 0
7, 93790, Note_on_c, 13, 61, 0
7, 93790, Note_on_c, 13, 64, 0
7, 94080, Note_on_c, 13, 57, 110
7, 94080, Note_on_c, 13, 61, 110
7, 94080, Note_on_c, 13, 64, 110
7, 94174, Note_on_c, 13, 57, 0
7, 94174, Note_on_c, 13, 61, 0
7, 94174, Note_on_c, 13, 64, 0
7, 94656, Note_on_c, 13, 59, 110
7, 94656, Note_on_c, 13, 63, 110
7, 94656, Note_on_c, 13, 66, 110
7, 94750, Note_on_c, 13, 59, 0
7, 94750, Note_on_c, 13, 63, 0
7, 94750, Note_on_c, 13, 66, 0
7, 94752, Note_on_c, 13, 59, 110
7, 94752, Note_on_c, 13, 63, 110
7, 94752, Note_on_c, 13, 66, 110
7, 94846, Note_on_c, 13, 59, 0
7, 94846, Note_on_c, 13, 63, 0
7, 94846, Note_on_c, 13, 66, 0
7, 94944, Note_on_c, 13, 59, 110
7, 94944, Note_on_c, 13, 63, 110
7, 94944, Note_on_c, 13, 66, 110
7, 95038, Note_on_c, 13, 59, 0
7, 95038, Note_on_c, 13, 63, 0
7, 95038, Note_on_c, 13, 66, 0
7, 95040, Note_on_c, 13, 59, 110
7, 95040, Note_on_c, 13, 63, 110
7, 95040, Note_on_c, 13, 66, 110
7, 95134, Note_on_c, 13, 59, 0
7, 95134, Note_on_c, 13, 63, 0
7, 95134, Note_on_c, 13, 66, 0
7, 95136, Note_on_c, 13, 59, 110
7, 95136, Note_on_c, 13, 63, 110
7, 95136, Note_on_c, 13, 66, 110
7, 95230, Note_on_c, 13, 59, 0
7, 95230, Note_on_c, 13, 63, 0
7, 95230, Note_on_c, 13, 66, 0
7, 95328, Note_on_c, 13, 59, 110
7, 95328, Note_on_c, 13, 63, 110
7, 95328, Note_on_c, 13, 66, 110
7, 95422, Note_on_c, 13, 59, 0
7, 95422, Note_on_c, 13, 63, 0
7, 95422, Note_on_c, 13, 66, 0
7, 95424, Note_on_c, 13, 59, 110
7, 95424, Note_on_c, 13, 63, 110
7, 95424, Note_on_c, 13, 66, 110
7, 95518, Note_on_c, 13, 59, 0
7, 95518, Note_on_c, 13, 63, 0
7, 95518, Note_on_c, 13, 66, 0
7, 95520, Note_on_c, 13, 59, 110
7, 95520, Note_on_c, 13, 63, 110
7, 95520, Note_on_c, 13, 66, 110
7, 95614, Note_on_c, 13, 59, 0
7, 95614, Note_on_c, 13, 63, 0
7, 95614, Note_on_c, 13, 66, 0
7, 95712, Note_on_c, 13, 59, 110
7, 95712, Note_on_c, 13, 63, 110
7, 95712, Note_on_c, 13, 66, 110
7, 95806, Note_on_c, 13, 59, 0
7, 95806, Note_on_c, 13, 63, 0
7, 95806, Note_on_c, 13, 66, 0
7, 95808, Note_on_c, 13, 59, 110
7, 95808, Note_on_c, 13, 63, 110
7, 95808, Note_on_c, 13, 66, 110
7, 95902, Note_on_c, 13, 59, 0
7, 95902, Note_on_c, 13, 63, 0
7, 95902, Note_on_c, 13, 66, 0
7, 95904, Note_on_c, 13, 59, 110
7, 95904, Note_on_c, 13, 63, 110
7, 95904, Note_on_c, 13, 66, 110
7, 95998, Note_on_c, 13, 59, 0
7, 95998, Note_on_c, 13, 63, 0
7, 95998, Note_on_c, 13, 66, 0
7, 96000, Note_on_c, 13, 59, 110
7, 96000, Note_on_c, 13, 63, 110
7, 96000, Note_on_c, 13, 66, 110
7, 96094, Note_on_c, 13, 59, 0
7, 96094, Note_on_c, 13, 63, 0
7, 96094, Note_on_c, 13, 66, 0
7, 96192, Note_on_c, 13, 62, 110
7, 96192, Note_on_c, 13, 66, 110
7, 96192, Note_on_c, 13, 69, 110
7, 96286, Note_on_c, 13, 62, 0
7, 96286, Note_on_c, 13, 66, 0
7, 96286, Note_on_c, 13, 69, 0
7, 96288, Note_on_c, 13, 62, 110
7, 96288, Note_on_c, 13, 66, 110
7, 96288, Note_on_c, 13, 69, 110
7, 96382, Note_on_c, 13, 62, 0
7, 96382, Note_on_c, 13, 66, 0
7, 96382, Note_on_c, 13, 69, 0
7, 96480, Note_on_c, 13, 62, 110
7, 96480, Note_on_c, 13, 66, 110
7, 96480, Note_on_c, 13, 69, 110
7, 96574, Note_on_c, 13, 62, 0
7, 96574, Note_on_c, 13, 66, 0
7, 96574, Note_on_c, 13, 69, 0
7, 96576, Note_on_c, 13, 62, 110
7, 96576, Note_on_c, 13, 66, 110
7, 96576, Note_on_c, 13, 69, 110
7, 96670, Note_on_c, 13, 62, 0
7, 96670, Note_on_c, 13, 66, 0
7, 96670, Note_on_c, 13, 69, 0
7, 96672, Note_on_c, 13, 62, 110
7, 96672, Note_on_c, 13, 66, 110
7, 96672, Note_on_c, 13, 69, 110
7, 96766, Note_on_c, 13, 62, 0
7, 96766, Note_on_c, 13, 66, 0
7, 96766, Note_on_c, 13, 69, 0
7, 96864, Note_on_c, 13, 62, 110
7, 96864, Note_on_c, 13, 66, 110
7, 96864, Note_on_c, 13, 69, 110
7, 96958, Note_on_c, 13, 62, 0
7, 96958, Note_on_c, 13, 66, 0
7, 96958, Note_on_c, 13, 69, 0
7, 96960, Note_on_c, 13, 62, 110
7, 96960, Note_on_c, 13, 66, 110
7, 96960, Note_on_c, 13, 69, 110
7, 97054, Note_on_c, 13, 62, 0
7, 97054, Note_on_c, 13, 66, 0
7, 97054, Note_on_c, 13, 69, 0
7, 97056, Note_on_c, 13, 62, 110
7, 97056, Note_on_c, 13, 66, 110
7, 97056, Note_on_c, 13, 69, 110
7, 97150, Note_on_c, 13, 62, 0
7, 97150, Note_on_c, 13, 66, 0
7, 97150, Note_on_c, 13, 69, 0
7, 97248, Note_on_c, 13, 62, 110
7, 97248, Note_on_c, 13, 66, 110
7, 97248, Note_on_c, 13, 69, 110
7, 97342, Note_on_c, 13, 62, 0
7, 97342, Note_on_c, 13, 66, 0
7, 97342, Note_on_c, 13, 69, 0
7, 97344, Note_on_c, 13, 62, 110
7, 97344, Note_on_c, 13, 66, 110
7, 97344, Note_on_c, 13, 69, 110
7, 97438, Note_on_c, 13, 62, 0
7, 97438, Note_on_c, 13, 66, 0
7, 97438, Note_on_c, 13, 69, 0
7, 97440, Note_on_c, 13, 62, 110
7, 97440, Note_on_c, 13, 66, 110
7, 97440, Note_on_c, 13, 69, 110
7, 97534, Note_on_c, 13, 62, 0
7, 97534, Note_on_c, 13, 66, 0
7, 97534, Note_on_c, 13, 69, 0
7, 97536, Note_on_c, 13, 62, 110
7, 97536, Note_on_c, 13, 66, 110
7, 97536, Note_on_c, 13, 69, 110
7, 97630, Note_on_c, 13, 62, 0
7, 97630, Note_on_c, 13, 66, 0
7, 97630, Note_on_c, 13, 69, 0
7, 97728, Note_on_c, 13, 57, 110
7, 97728, Note_on_c, 13, 61, 110
7, 97728, Note_on_c, 13, 64, 110
7, 97822, Note_on_c, 13, 57, 0
7, 97822, Note_on_c, 13, 61, 0
7, 97822, Note_on_c, 13, 64, 0
7, 97824, Note_on_c, 13, 57, 110
7, 97824, Note_on_c, 13, 61, 110
7, 97824, Note_on_c, 13, 64, 110
7, 97918, Note_on_c, 13, 57, 0
7, 97918, Note_on_c, 13, 61, 0
7, 97918, Note_on_c, 13, 64, 0
7, 98016, Note_on_c, 13, 57, 110
7, 98016, Note_on_c, 13, 61, 110
7, 98016, Note_on_c, 13, 64, 110
7, 98110, Note_on_c, 13, 57, 0
7, 98110, Note_on_c, 13, 61, 0
7, 98110, Note_on_c, 13, 64, 0
7, 98112, Note_on_c, 13, 57, 110
7, 98112, Note_on_c, 13, 61, 110
7, 98112, Note_on_c, 13, 64, 110
7, 98206, Note_on_c, 13, 57, 0
7, 98206, Note_on_c, 13, 61, 0
7, 98206, Note_on_c, 13, 64, 0
7, 98208, Note_on_c, 13, 57, 110
7, 98208, Note_on_c, 13, 61, 110
7, 98208, Note_on_c, 13, 64, 110
7, 98302, Note_on_c, 13, 57, 0
7, 98302, Note_on_c, 13, 61, 0
7, 98302, Note_on_c, 13, 64, 0
7, 98400, Note_on_c, 13, 57, 110
7, 98400, Note_on_c, 13, 61, 110
7, 98400, Note_on_c, 13, 64, 110
7, 98494, Note_on_c, 13, 57, 0
7, 98494, Note_on_c, 13, 61, 0
7, 98494, Note_on_c, 13, 64, 0
7, 98496, Note_on_c, 13, 57, 110
7, 98496, Note_on_c, 13, 61, 110
7, 98496, Note_on_c, 13, 64, 110
7, 98590, Note_on_c, 13, 57, 0
7, 98590, Note_on_c, 13, 61, 0
7, 98590, Note_on_c, 13, 64, 0
7, 98592, Note_on_c, 13, 57, 110
7, 98592, Note_on_c, 13, 61, 110
7, 98592, Note_on_c, 13, 64, 110
7, 98686, Note_on_c, 13, 57, 0
7, 98686, Note_on_c, 13, 61, 0
7, 98686, Note_on_c, 13, 64, 0
7, 98784, Note_on_c, 13, 57, 110
7, 98784, Note_on_c, 13, 61, 110
7, 98784, Note_on_c, 13, 64, 110
7, 98878, Note_on_c, 13, 57, 0
7, 98878, Note_on_c, 13, 61, 0
7, 98878, Note_on_c, 13, 64, 0
7, 98880, Note_on_c, 13, 57, 110
7, 98880, Note_on_c, 13, 61, 110
7, 98880, Note_on_c, 13, 64, 110
7, 98974, Note_on_c, 13, 57, 0
7, 98974, Note_on_c, 13, 61, 0
7, 98974, Note_on_c, 13, 64, 0
7, 99072, Note_on_c, 13, 58, 110
7, 99072, Note_on_c, 13, 62, 110
7, 99072, Note_on_c, 13, 65, 110
7, 99166, Note_on_c, 13, 58, 0
7, 99166, Note_on_c, 13, 62, 0
7, 99166, Note_on_c, 13, 65, 0
7, 99264, Note_on_c, 13, 59, 110
7, 99264, Note_on_c, 13, 63, 110
7, 99264, Note_on_c, 13, 66, 110
7, 99358, Note_on_c, 13, 59, 0
7, 99358, Note_on_c, 13, 63, 0
7, 99358, Note_on_c, 13, 66, 0
7, 99360, Note_on_c, 13, 59, 110
7, 99360, Note_on_c, 13, 63, 110
7, 99360, Note_on_c, 13, 66, 110
7, 99454, Note_on_c, 13, 59, 0
7, 99454, Note_on_c, 13, 63, 0
7, 99454, Note_on_c, 13, 66, 0
7, 99552, Note_on_c, 13, 59, 110
7, 99552, Note_on_c, 13, 63, 110
7, 99552, Note_on_c, 13, 66, 110
7, 99646, Note_on_c, 13, 59, 0
7, 99646, Note_on_c, 13, 63, 0
7, 99646, Note_on_c, 13, 66, 0
7, 99648, Note_on_c, 13, 59, 110
7, 99648, Note_on_c, 13, 63, 110
7, 99648, Note_on_c, 13, 66, 110
7, 99742, Note_on_c, 13, 59, 0
7, 99742, Note_on_c, 13, 63, 0
7, 99742, Note_on_c, 13, 66, 0
7, 99744, Note_on_c, 13, 59, 110
7, 99744, Note_on_c, 13, 63, 110
7, 99744, Note_on_c, 13, 66, 110
7, 99838, Note_on_c, 13, 59, 0
7, 99838, Note_on_c, 13, 63, 0
7, 99838, Note_on_c, 13, 66, 0
7, 99936, Note_on_c, 13, 59, 110
7, 99936, Note_on_c, 13, 63, 110
7, 99936, Note_on_c, 13, 66, 110
7, 100030, Note_on_c, 13, 59, 0
7, 100030, Note_on_c, 13, 63, 0
7, 100030, Note_on_c, 13, 66, 0
7, 100032, Note_on_c, 13, 59, 110
7, 100032, Note_on_c, 13, 63, 110
7, 100032, Note_on_c, 13, 66, 110
7, 100126, Note_on_c, 13, 59, 0
7, 100126, Note_on_c, 13, 63, 0
7, 100126, Note_on_c, 13, 66, 0
7, 100128, Note_on_c, 13, 59, 110
7, 100128, Note_on_c, 13, 63, 110
7, 100128, Note_on_c, 13, 66, 110
7, 100222, Note_on_c, 13, 59, 0
7, 100222, Note_on_c, 13, 63, 0
7, 100222, Note_on_c, 13, 66, 0
7, 100320, Note_on_c, 13, 59, 110
7, 100320, Note_on_c, 13, 63, 110
7, 100320, Note_on_c, 13, 66, 110
7, 100414, Note_on_c, 13, 59, 0
7, 100414, Note_on_c, 13, 63, 0
7, 100414, Note_on_c, 13, 66, 0
7, 100416, Note_on_c, 13, 59, 110
7, 100416, Note_on_c, 13, 63, 110
7, 100416, Note_on_c, 13, 66, 110
7, 100510, Note_on_c, 13, 59, 0
7, 100510, Note_on_c, 13, 63, 0
7, 100510, Note_on_c, 13, 66, 0
7, 100512, Note_on_c, 13, 59, 110
7, 100512, Note_on_c, 13, 63, 110
7, 100512, Note_on_c, 13, 66, 110
7, 100606, Note_on_c, 13, 59, 0
7, 100606, Note_on_c, 13, 63, 0
7, 100606, Note_on_c, 13, 66, 0
7, 100608, Note_on_c, 13, 59, 110
7, 100608, Note_on_c, 13, 63, 110
7, 100608, Note_on_c, 13, 66, 110
7, 100702, Note_on_c, 13, 59, 0
7, 100702, Note_on_c, 13, 63, 0
7, 100702, Note_on_c, 13, 66, 0
7, 100800, Note_on_c, 13, 62, 110
7, 100800, Note_on_c, 13, 66, 110
7, 100800, Note_on_c, 13, 69, 110
7, 100894, Note_on_c, 13, 62, 0
7, 100894, Note_on_c, 13, 66, 0
7, 100894, Note_on_c, 13, 69, 0
7, 100896, Note_on_c, 13, 62, 110
7, 100896, Note_on_c, 13, 66, 110
7, 100896, Note_on_c, 13, 69, 110
7, 100990, Note_on_c, 13, 62, 0
7, 100990, Note_on_c, 13, 66, 0
7, 100990, Note_on_c, 13, 69, 0
7, 101088, Note_on_c, 13, 62, 110
7, 101088, Note_on_c, 13, 66, 110
7, 101088, Note_on_c, 13, 69, 110
7, 101182, Note_on_c, 13, 62, 0
7, 101182, Note_on_c, 13, 66, 0
7, 101182, Note_on_c, 13, 69, 0
7, 101184, Note_on_c, 13, 62, 110
7, 101184, Note_on_c, 13, 66, 110
7, 101184, Note_on_c, 13, 69, 110
7, 101278, Note_on_c, 13, 62, 0
7, 101278, Note_on_c, 13, 66, 0
7, 101278, Note_on_c, 13, 69, 0
7, 101280, Note_on_c, 13, 62, 110
7, 101280, Note_on_c, 13, 66, 110
7, 101280, Note_on_c, 13, 69, 110
7, 101374, Note_on_c, 13, 62, 0
7, 101374, Note_on_c, 13, 66, 0
7, 101374, Note_on_c, 13, 69, 0
7, 101472, Note_on_c, 13, 62, 110
7, 101472, Note_on_c, 13, 66, 110
7, 101472, Note_on_c, 13, 69, 110
7, 101566, Note_on_c, 13, 62, 0
7, 101566, Note_on_c, 13, 66, 0
7, 101566, Note_on_c, 13, 69, 0
7, 101568, Note_on_c, 13, 62, 110
7, 101568, Note_on_c, 13, 66, 110
7, 101568, Note_on_c, 13, 69, 110
7, 101662, Note_on_c, 13, 62, 0
7, 101662, Note_on_c, 13, 66, 0
7, 101662, Note_on_c, 13, 69, 0
7, 101664, Note_on_c, 13, 62, 110
7, 101664, Note_on_c, 13, 66, 110
7, 101664, Note_on_c, 13, 69, 110
7, 101758, Note_on_c, 13, 62, 0
7, 101758, Note_on_c, 13, 66, 0
7, 101758, Note_on_c, 13, 69, 0
7, 101856, Note_on_c, 13, 62, 110
7, 101856, Note_on_c, 13, 66, 110
7, 101856, Note_on_c, 13, 69, 110
7, 101950, Note_on_c, 13, 62, 0
7, 101950, Note_on_c, 13, 66, 0
7, 101950, Note_on_c, 13, 69, 0
7, 101952, Note_on_c, 13, 62, 110
7, 101952, Note_on_c, 13, 66, 110
7, 101952, Note_on_c, 13, 69, 110
7, 102046, Note_on_c, 13, 62, 0
7, 102046, Note_on_c, 13, 66, 0
7, 102046, Note_on_c, 13, 69, 0
7, 102048, Note_on_c, 13, 62, 110
7, 102048, Note_on_c, 13, 66, 110
7, 102048, Note_on_c, 13, 69, 110
7, 102142, Note_on_c, 13, 62, 0
7, 102142, Note_on_c, 13, 66, 0
7, 102142, Note_on_c, 13, 69, 0
7, 102144, Note_on_c, 13, 62, 110
7, 102144, Note_on_c, 13, 66, 110
7, 102144, Note_on_c, 13, 69, 110
7, 102238, Note_on_c, 13, 62, 0
7, 102238, Note_on_c, 13, 66, 0
7, 102238, Note_on_c, 13, 69, 0
7, 102336, Note_on_c, 13, 57, 110
7, 102336, Note_on_c, 13, 61, 110
7, 102336, Note_on_c, 13, 64, 110
7, 102430, Note_on_c, 13, 57, 0
7, 102430, Note_on_c, 13, 61, 0
7, 102430, Note_on_c, 13, 64, 0
7, 102432, Note_on_c, 13, 57, 110
7, 102432, Note_on_c, 13, 61, 110
7, 102432, Note_on_c, 13, 64, 110
7, 102526, Note_on_c, 13, 57, 0
7, 102526, Note_on_c, 13, 61, 0
7, 102526, Note_on_c, 13, 64, 0
7, 102624, Note_on_c, 13, 57, 110
7, 102624, Note_on_c, 13, 61, 110
7, 102624, Note_on_c, 13, 64, 110
7, 102718, Note_on_c, 13, 57, 0
7, 102718, Note_on_c, 13, 61, 0
7, 102718, Note_on_c, 13, 64, 0
7, 102720, Note_on_c, 13, 57, 110
7, 102720, Note_on_c, 13, 61, 110
7, 102720, Note_on_c, 13, 64, 110
7, 102814, Note_on_c, 13, 57, 0
7, 102814, Note_on_c, 13, 61, 0
7, 102814, Note_on_c, 13, 64, 0
7, 102816, Note_on_c, 13, 57, 110
7, 102816, Note_on_c, 13, 61, 110
7, 102816, Note_on_c, 13, 64, 110
7, 102910, Note_on_c, 13, 57, 0
7, 102910, Note_on_c, 13, 61, 0
7, 102910, Note_on_c, 13, 64, 0
7, 103008, Note_on_c, 13, 57, 110
7, 103008, Note_on_c, 13, 61, 110
7, 103008, Note_on_c, 13, 64, 110
7, 103102, Note_on_c, 13, 57, 0
7, 103102, Note_on_c, 13, 61, 0
7, 103102, Note_on_c, 13, 64, 0
7, 103104, Note_on_c, 13, 57, 110
7, 103104, Note_on_c, 13, 61, 110
7, 103104, Note_on_c, 13, 64, 110
7, 103198, Note_on_c, 13, 57, 0
7, 103198, Note_on_c, 13, 61, 0
7, 103198, Note_on_c, 13, 64, 0
7, 103200, Note_on_c, 13, 57, 110
7, 103200, Note_on_c, 13, 61, 110
7, 103200, Note_on_c, 13, 64, 110
7, 103294, Note_on_c, 13, 57, 0
7, 103294, Note_on_c, 13, 61, 0
7, 103294, Note_on_c, 13, 64, 0
7, 103392, Note_on_c, 13, 57, 110
7, 103392, Note_on_c, 13, 61, 110
7, 103392, Note_on_c, 13, 64, 110
7, 103486, Note_on_c, 13, 57, 0
7, 103486, Note_on_c, 13, 61, 0
7, 103486, Note_on_c, 13, 64, 0
7, 103488, Note_on_c, 13, 57, 110
7, 103488, Note_on_c, 13, 61, 110
7, 103488, Note_on_c, 13, 64, 110
7, 103582, Note_on_c, 13, 61, 0
7, 103582, Note_on_c, 13, 57, 0
7, 103582, Note_on_c, 13, 64, 0
7, 103680, Note_on_c, 13, 58, 110
7, 103680, Note_on_c, 13, 62, 110
7, 103680, Note_on_c, 13, 65, 110
7, 103774, Note_on_c, 13, 58, 0
7, 103774, Note_on_c, 13, 62, 0
7, 103774, Note_on_c, 13, 65, 0
7, 103872, Note_on_c, 13, 59, 110
7, 103872, Note_on_c, 13, 63, 110
7, 103872, Note_on_c, 13, 66, 110
7, 103966, Note_on_c, 13, 59, 0
7, 103966, Note_on_c, 13, 63, 0
7, 103966, Note_on_c, 13, 66, 0
7, 103968, Note_on_c, 13, 59, 110
7, 103968, Note_on_c, 13, 63, 110
7, 103968, Note_on_c, 13, 66, 110
7, 104062, Note_on_c, 13, 59, 0
7, 104062, Note_on_c, 13, 63, 0
7, 104062, Note_on_c, 13, 66, 0
7, 104160, Note_on_c, 13, 59, 110
7, 104160, Note_on_c, 13, 63, 110
7, 104160, Note_on_c, 13, 66, 110
7, 104254, Note_on_c, 13, 59, 0
7, 104254, Note_on_c, 13, 63, 0
7, 104254, Note_on_c, 13, 66, 0
7, 104256, Note_on_c, 13, 59, 110
7, 104256, Note_on_c, 13, 63, 110
7, 104256, Note_on_c, 13, 66, 110
7, 104350, Note_on_c, 13, 59, 0
7, 104350, Note_on_c, 13, 63, 0
7, 104350, Note_on_c, 13, 66, 0
7, 104352, Note_on_c, 13, 59, 110
7, 104352, Note_on_c, 13, 63, 110
7, 104352, Note_on_c, 13, 66, 110
7, 104446, Note_on_c, 13, 59, 0
7, 104446, Note_on_c, 13, 63, 0
7, 104446, Note_on_c, 13, 66, 0
7, 104544, Note_on_c, 13, 59, 110
7, 104544, Note_on_c, 13, 63, 110
7, 104544, Note_on_c, 13, 66, 110
7, 104638, Note_on_c, 13, 59, 0
7, 104638, Note_on_c, 13, 63, 0
7, 104638, Note_on_c, 13, 66, 0
7, 104640, Note_on_c, 13, 59, 110
7, 104640, Note_on_c, 13, 63, 110
7, 104640, Note_on_c, 13, 66, 110
7, 104734, Note_on_c, 13, 59, 0
7, 104734, Note_on_c, 13, 63, 0
7, 104734, Note_on_c, 13, 66, 0
7, 104736, Note_on_c, 13, 59, 110
7, 104736, Note_on_c, 13, 63, 110
7, 104736, Note_on_c, 13, 66, 110
7, 104830, Note_on_c, 13, 59, 0
7, 104830, Note_on_c, 13, 63, 0
7, 104830, Note_on_c, 13, 66, 0
7, 104928, Note_on_c, 13, 59, 110
7, 104928, Note_on_c, 13, 63, 110
7, 104928, Note_on_c, 13, 66, 110
7, 105022, Note_on_c, 13, 59, 0
7, 105022, Note_on_c, 13, 63, 0
7, 105022, Note_on_c, 13, 66, 0
7, 105024, Note_on_c, 13, 59, 110
7, 105024, Note_on_c, 13, 63, 110
7, 105024, Note_on_c, 13, 66, 110
7, 105118, Note_on_c, 13, 59, 0
7, 105118, Note_on_c, 13, 63, 0
7, 105118, Note_on_c, 13, 66, 0
7, 105120, Note_on_c, 13, 59, 110
7, 105120, Note_on_c, 13, 63, 110
7, 105120, Note_on_c, 13, 66, 110
7, 105214, Note_on_c, 13, 59, 0
7, 105214, Note_on_c, 13, 63, 0
7, 105214, Note_on_c, 13, 66, 0
7, 105216, Note_on_c, 13, 59, 110
7, 105216, Note_on_c, 13, 63, 110
7, 105216, Note_on_c, 13, 66, 110
7, 105310, Note_on_c, 13, 59, 0
7, 105310, Note_on_c, 13, 63, 0
7, 105310, Note_on_c, 13, 66, 0
7, 105408, Note_on_c, 13, 62, 110
7, 105408, Note_on_c, 13, 66, 110
7, 105408, Note_on_c, 13, 69, 110
7, 105502, Note_on_c, 13, 62, 0
7, 105502, Note_on_c, 13, 66, 0
7, 105502, Note_on_c, 13, 69, 0
7, 105504, Note_on_c, 13, 62, 110
7, 105504, Note_on_c, 13, 66, 110
7, 105504, Note_on_c, 13, 69, 110
7, 105598, Note_on_c, 13, 62, 0
7, 105598, Note_on_c, 13, 66, 0
7, 105598, Note_on_c, 13, 69, 0
7, 105696, Note_on_c, 13, 62, 110
7, 105696, Note_on_c, 13, 66, 110
7, 105696, Note_on_c, 13, 69, 110
7, 105790, Note_on_c, 13, 62, 0
7, 105790, Note_on_c, 13, 66, 0
7, 105790, Note_on_c, 13, 69, 0
7, 105792, Note_on_c, 13, 62, 110
7, 105792, Note_on_c, 13, 66, 110
7, 105792, Note_on_c, 13, 69, 110
7, 105886, Note_on_c, 13, 62, 0
7, 105886, Note_on_c, 13, 66, 0
7, 105886, Note_on_c, 13, 69, 0
7, 105888, Note_on_c, 13, 62, 110
7, 105888, Note_on_c, 13, 66, 110
7, 105888, Note_on_c, 13, 69, 110
7, 105982, Note_on_c, 13, 62, 0
7, 105982, Note_on_c, 13, 66, 0
7, 105982, Note_on_c, 13, 69, 0
7, 106080, Note_on_c, 13, 62, 110
7, 106080, Note_on_c, 13, 66, 110
7, 106080, Note_on_c, 13, 69, 110
7, 106174, Note_on_c, 13, 62, 0
7, 106174, Note_on_c, 13, 66, 0
7, 106174, Note_on_c, 13, 69, 0
7, 106176, Note_on_c, 13, 62, 110
7, 106176, Note_on_c, 13, 66, 110
7, 106176, Note_on_c, 13, 69, 110
7, 106270, Note_on_c, 13, 62, 0
7, 106270, Note_on_c, 13, 66, 0
7, 106270, Note_on_c, 13, 69, 0
7, 106272, Note_on_c, 13, 62, 110
7, 106272, Note_on_c, 13, 66, 110
7, 106272, Note_on_c, 13, 69, 110
7, 106366, Note_on_c, 13, 62, 0
7, 106366, Note_on_c, 13, 66, 0
7, 106366, Note_on_c, 13, 69, 0
7, 106464, Note_on_c, 13, 62, 110
7, 106464, Note_on_c, 13, 66, 110
7, 106464, Note_on_c, 13, 69, 110
7, 106558, Note_on_c, 13, 62, 0
7, 106558, Note_on_c, 13, 66, 0
7, 106558, Note_on_c, 13, 69, 0
7, 106560, Note_on_c, 13, 62, 110
7, 106560, Note_on_c, 13, 66, 110
7, 106560, Note_on_c, 13, 69, 110
7, 106654, Note_on_c, 13, 62, 0
7, 106654, Note_on_c, 13, 66, 0
7, 106654, Note_on_c, 13, 69, 0
7, 106656, Note_on_c, 13, 62, 110
7, 106656, Note_on_c, 13, 66, 110
7, 106656, Note_on_c, 13, 69, 110
7, 106750, Note_on_c, 13, 62, 0
7, 106750, Note_on_c, 13, 66, 0
7, 106750, Note_on_c, 13, 69, 0
7, 106752, Note_on_c, 13, 62, 110
7, 106752, Note_on_c, 13, 66, 110
7, 106752, Note_on_c, 13, 69, 110
7, 106846, Note_on_c, 13, 62, 0
7, 106846, Note_on_c, 13, 66, 0
7, 106846, Note_on_c, 13, 69, 0
7, 106944, Note_on_c, 13, 57, 110
7, 106944, Note_on_c, 13, 61, 110
7, 106944, Note_on_c, 13, 64, 110
7, 107038, Note_on_c, 13, 57, 0
7, 107038, Note_on_c, 13, 61, 0
7, 107038, Note_on_c, 13, 64, 0
7, 107040, Note_on_c, 13, 57, 110
7, 107040, Note_on_c, 13, 61, 110
7, 107040, Note_on_c, 13, 64, 110
7, 107134, Note_on_c, 13, 57, 0
7, 107134, Note_on_c, 13, 61, 0
7, 107134, Note_on_c, 13, 64, 0
7, 107232, Note_on_c, 13, 57, 110
7, 107232, Note_on_c, 13, 61, 110
7, 107232, Note_on_c, 13, 64, 110
7, 107326, Note_on_c, 13, 57, 0
7, 107326, Note_on_c, 13, 61, 0
7, 107326, Note_on_c, 13, 64, 0
7, 107328, Note_on_c, 13, 57, 110
7, 107328, Note_on_c, 13, 61, 110
7, 107328, Note_on_c, 13, 64, 110
7, 107422, Note_on_c, 13, 57, 0
7, 107422, Note_on_c, 13, 61, 0
7, 107422, Note_on_c, 13, 64, 0
7, 107424, Note_on_c, 13, 57, 110
7, 107424, Note_on_c, 13, 61, 110
7, 107424, Note_on_c, 13, 64, 110
7, 107518, Note_on_c, 13, 57, 0
7, 107518, Note_on_c, 13, 61, 0
7, 107518, Note_on_c, 13, 64, 0
7, 107616, Note_on_c, 13, 57, 110
7, 107616, Note_on_c, 13, 61, 110
7, 107616, Note_on_c, 13, 64, 110
7, 107710, Note_on_c, 13, 57, 0
7, 107710, Note_on_c, 13, 61, 0
7, 107710, Note_on_c, 13, 64, 0
7, 107712, Note_on_c, 13, 57, 110
7, 107712, Note_on_c, 13, 61, 110
7, 107712, Note_on_c, 13, 64, 110
7, 107806, Note_on_c, 13, 57, 0
7, 107806, Note_on_c, 13, 61, 0
7, 107806, Note_on_c, 13, 64, 0
7, 107808, Note_on_c, 13, 57, 110
7, 107808, Note_on_c, 13, 61, 110
7, 107808, Note_on_c, 13, 64, 110
7, 107902, Note_on_c, 13, 57, 0
7, 107902, Note_on_c, 13, 61, 0
7, 107902, Note_on_c, 13, 64, 0
7, 108000, Note_on_c, 13, 57, 110
7, 108000, Note_on_c, 13, 61, 110
7, 108000, Note_on_c, 13, 64, 110
7, 108094, Note_on_c, 13, 57, 0
7, 108094, Note_on_c, 13, 61, 0
7, 108094, Note_on_c, 13, 64, 0
7, 108096, Note_on_c, 13, 57, 110
7, 108096, Note_on_c, 13, 61, 110
7, 108096, Note_on_c, 13, 64, 110
7, 108190, Note_on_c, 13, 57, 0
7, 108190, Note_on_c, 13, 61, 0
7, 108190, Note_on_c, 13, 64, 0
7, 108288, Note_on_c, 13, 58, 110
7, 108288, Note_on_c, 13, 62, 110
7, 108288, Note_on_c, 13, 65, 110
7, 108382, Note_on_c, 13, 58, 0
7, 108382, Note_on_c, 13, 62, 0
7, 108382, Note_on_c, 13, 65, 0
7, 108480, Note_on_c, 13, 59, 110
7, 108480, Note_on_c, 13, 63, 110
7, 108480, Note_on_c, 13, 66, 110
7, 108574, Note_on_c, 13, 59, 0
7, 108574, Note_on_c, 13, 63, 0
7, 108574, Note_on_c, 13, 66, 0
7, 108576, Note_on_c, 13, 59, 110
7, 108576, Note_on_c, 13, 63, 110
7, 108576, Note_on_c, 13, 66, 110
7, 108670, Note_on_c, 13, 59, 0
7, 108670, Note_on_c, 13, 63, 0
7, 108670, Note_on_c, 13, 66, 0
7, 108768, Note_on_c, 13, 59, 110
7, 108768, Note_on_c, 13, 63, 110
7, 108768, Note_on_c, 13, 66, 110
7, 108862, Note_on_c, 13, 59, 0
7, 108862, Note_on_c, 13, 63, 0
7, 108862, Note_on_c, 13, 66, 0
7, 108864, Note_on_c, 13, 59, 110
7, 108864, Note_on_c, 13, 63, 110
7, 108864, Note_on_c, 13, 66, 110
7, 108958, Note_on_c, 13, 59, 0
7, 108958, Note_on_c, 13, 63, 0
7, 108958, Note_on_c, 13, 66, 0
7, 108960, Note_on_c, 13, 59, 110
7, 108960, Note_on_c, 13, 63, 110
7, 108960, Note_on_c, 13, 66, 110
7, 109054, Note_on_c, 13, 59, 0
7, 109054, Note_on_c, 13, 63, 0
7, 109054, Note_on_c, 13, 66, 0
7, 109152, Note_on_c, 13, 59, 110
7, 109152, Note_on_c, 13, 63, 110
7, 109152, Note_on_c, 13, 66, 110
7, 109246, Note_on_c, 13, 59, 0
7, 109246, Note_on_c, 13, 63, 0
7, 109246, Note_on_c, 13, 66, 0
7, 109248, Note_on_c, 13, 59, 110
7, 109248, Note_on_c, 13, 63, 110
7, 109248, Note_on_c, 13, 66, 110
7, 109342, Note_on_c, 13, 59, 0
7, 109342, Note_on_c, 13, 63, 0
7, 109342, Note_on_c, 13, 66, 0
7, 109344, Note_on_c, 13, 59, 110
7, 109344, Note_on_c, 13, 63, 110
7, 109344, Note_on_c, 13, 66, 110
7, 109438, Note_on_c, 13, 59, 0
7, 109438, Note_on_c, 13, 63, 0
7, 109438, Note_on_c, 13, 66, 0
7, 109536, Note_on_c, 13, 59, 110
7, 109536, Note_on_c, 13, 63, 110
7, 109536, Note_on_c, 13, 66, 110
7, 109630, Note_on_c, 13, 59, 0
7, 109630, Note_on_c, 13, 63, 0
7, 109630, Note_on_c, 13, 66, 0
7, 109632, Note_on_c, 13, 59, 110
7, 109632, Note_on_c, 13, 63, 110
7, 109632, Note_on_c, 13, 66, 110
7, 109726, Note_on_c, 13, 59, 0
7, 109726, Note_on_c, 13, 63, 0
7, 109726, Note_on_c, 13, 66, 0
7, 109728, Note_on_c, 13, 59, 110
7, 109728, Note_on_c, 13, 63, 110
7, 109728, Note_on_c, 13, 66, 110
7, 109822, Note_on_c, 13, 59, 0
7, 109822, Note_on_c, 13, 63, 0
7, 109822, Note_on_c, 13, 66, 0
7, 109824, Note_on_c, 13, 59, 110
7, 109824, Note_on_c, 13, 63, 110
7, 109824, Note_on_c, 13, 66, 110
7, 109918, Note_on_c, 13, 59, 0
7, 109918, Note_on_c, 13, 63, 0
7, 109918, Note_on_c, 13, 66, 0
7, 110016, Note_on_c, 13, 62, 110
7, 110016, Note_on_c, 13, 66, 110
7, 110016, Note_on_c, 13, 69, 110
7, 110110, Note_on_c, 13, 62, 0
7, 110110, Note_on_c, 13, 66, 0
7, 110110, Note_on_c, 13, 69, 0
7, 110112, Note_on_c, 13, 62, 110
7, 110112, Note_on_c, 13, 66, 110
7, 110112, Note_on_c, 13, 69, 110
7, 110206, Note_on_c, 13, 62, 0
7, 110206, Note_on_c, 13, 66, 0
7, 110206, Note_on_c, 13, 69, 0
7, 110304, Note_on_c, 13, 62, 110
7, 110304, Note_on_c, 13, 66, 110
7, 110304, Note_on_c, 13, 69, 110
7, 110398, Note_on_c, 13, 62, 0
7, 110398, Note_on_c, 13, 66, 0
7, 110398, Note_on_c, 13, 69, 0
7, 110400, Note_on_c, 13, 62, 110
7, 110400, Note_on_c, 13, 66, 110
7, 110400, Note_on_c, 13, 69, 110
7, 110494, Note_on_c, 13, 62, 0
7, 110494, Note_on_c, 13, 66, 0
7, 110494, Note_on_c, 13, 69, 0
7, 110496, Note_on_c, 13, 62, 110
7, 110496, Note_on_c, 13, 66, 110
7, 110496, Note_on_c, 13, 69, 110
7, 110590, Note_on_c, 13, 62, 0
7, 110590, Note_on_c, 13, 66, 0
7, 110590, Note_on_c, 13, 69, 0
7, 110688, Note_on_c, 13, 62, 110
7, 110688, Note_on_c, 13, 66, 110
7, 110688, Note_on_c, 13, 69, 110
7, 110782, Note_on_c, 13, 62, 0
7, 110782, Note_on_c, 13, 66, 0
7, 110782, Note_on_c, 13, 69, 0
7, 110784, Note_on_c, 13, 62, 110
7, 110784, Note_on_c, 13, 66, 110
7, 110784, Note_on_c, 13, 69, 110
7, 110878, Note_on_c, 13, 62, 0
7, 110878, Note_on_c, 13, 66, 0
7, 110878, Note_on_c, 13, 69, 0
7, 110880, Note_on_c, 13, 62, 110
7, 110880, Note_on_c, 13, 66, 110
7, 110880, Note_on_c, 13, 69, 110
7, 110974, Note_on_c, 13, 62, 0
7, 110974, Note_on_c, 13, 66, 0
7, 110974, Note_on_c, 13, 69, 0
7, 111072, Note_on_c, 13, 62, 110
7, 111072, Note_on_c, 13, 66, 110
7, 111072, Note_on_c, 13, 69, 110
7, 111166, Note_on_c, 13, 62, 0
7, 111166, Note_on_c, 13, 66, 0
7, 111166, Note_on_c, 13, 69, 0
7, 111168, Note_on_c, 13, 62, 110
7, 111168, Note_on_c, 13, 66, 110
7, 111168, Note_on_c, 13, 69, 110
7, 111262, Note_on_c, 13, 62, 0
7, 111262, Note_on_c, 13, 66, 0
7, 111262, Note_on_c, 13, 69, 0
7, 111264, Note_on_c, 13, 62, 110
7, 111264, Note_on_c, 13, 66, 110
7, 111264, Note_on_c, 13, 69, 110
7, 111358, Note_on_c, 13, 62, 0
7, 111358, Note_on_c, 13, 66, 0
7, 111358, Note_on_c, 13, 69, 0
7, 111360, Note_on_c, 13, 62, 110
7, 111360, Note_on_c, 13, 66, 110
7, 111360, Note_on_c, 13, 69, 110
7, 111454, Note_on_c, 13, 62, 0
7, 111454, Note_on_c, 13, 66, 0
7, 111454, Note_on_c, 13, 69, 0
7, 111552, Note_on_c, 13, 57, 110
7, 111552, Note_on_c, 13, 61, 110
7, 111552, Note_on_c, 13, 64, 110
7, 111646, Note_on_c, 13, 57, 0
7, 111646, Note_on_c, 13, 61, 0
7, 111646, Note_on_c, 13, 64, 0
7, 111648, Note_on_c, 13, 57, 110
7, 111648, Note_on_c, 13, 61, 110
7, 111648, Note_on_c, 13, 64, 110
7, 111742, Note_on_c, 13, 57, 0
7, 111742, Note_on_c, 13, 61, 0
7, 111742, Note_on_c, 13, 64, 0
7, 111840, Note_on_c, 13, 57, 110
7, 111840, Note_on_c, 13, 61, 110
7, 111840, Note_on_c, 13, 64, 110
7, 111934, Note_on_c, 13, 57, 0
7, 111934, Note_on_c, 13, 61, 0
7, 111934, Note_on_c, 13, 64, 0
7, 111936, Note_on_c, 13, 57, 110
7, 111936, Note_on_c, 13, 61, 110
7, 111936, Note_on_c, 13, 64, 110
7, 112030, Note_on_c, 13, 57, 0
7, 112030, Note_on_c, 13, 61, 0
7, 112030, Note_on_c, 13, 64, 0
7, 112032, Note_on_c, 13, 57, 110
7, 112032, Note_on_c, 13, 61, 110
7, 112032, Note_on_c, 13, 64, 110
7, 112126, Note_on_c, 13, 57, 0
7, 112126, Note_on_c, 13, 61, 0
7, 112126, Note_on_c, 13, 64, 0
7, 112224, Note_on_c, 13, 57, 110
7, 112224, Note_on_c, 13, 61, 110
7, 112224, Note_on_c, 13, 64, 110
7, 112318, Note_on_c, 13, 57, 0
7, 112318, Note_on_c, 13, 61, 0
7, 112318, Note_on_c, 13, 64, 0
7, 112320, Note_on_c, 13, 57, 110
7, 112320, Note_on_c, 13, 61, 110
7, 112320, Note_on_c, 13, 64, 110
7, 112414, Note_on_c, 13, 57, 0
7, 112414, Note_on_c, 13, 61, 0
7, 112414, Note_on_c, 13, 64, 0
7, 112416, Note_on_c, 13, 57, 110
7, 112416, Note_on_c, 13, 61, 110
7, 112416, Note_on_c, 13, 64, 110
7, 112510, Note_on_c, 13, 57, 0
7, 112510, Note_on_c, 13, 61, 0
7, 112510, Note_on_c, 13, 64, 0
7, 112608, Note_on_c, 13, 57, 110
7, 112608, Note_on_c, 13, 61, 110
7, 112608, Note_on_c, 13, 64, 110
7, 112702, Note_on_c, 13, 57, 0
7, 112702, Note_on_c, 13, 61, 0
7, 112702, Note_on_c, 13, 64, 0
7, 112704, Note_on_c, 13, 57, 110
7, 112704, Note_on_c, 13, 61, 110
7, 112704, Note_on_c, 13, 64, 110
7, 112798, Note_on_c, 13, 57, 0
7, 112798, Note_on_c, 13, 61, 0
7, 112798, Note_on_c, 13, 64, 0
7, 112896, Note_on_c, 13, 58, 110
7, 112896, Note_on_c, 13, 62, 110
7, 112896, Note_on_c, 13, 65, 110
7, 112990, Note_on_c, 13, 58, 0
7, 112990, Note_on_c, 13, 62, 0
7, 112990, Note_on_c, 13, 65, 0
7, 113088, Note_on_c, 13, 59, 110
7, 113088, Note_on_c, 13, 63, 110
7, 113088, Note_on_c, 13, 66, 110
7, 113182, Note_on_c, 13, 59, 0
7, 113182, Note_on_c, 13, 63, 0
7, 113182, Note_on_c, 13, 66, 0
7, 113184, Note_on_c, 13, 59, 110
7, 113184, Note_on_c, 13, 63, 110
7, 113184, Note_on_c, 13, 66, 110
7, 113278, Note_on_c, 13, 59, 0
7, 113278, Note_on_c, 13, 63, 0
7, 113278, Note_on_c, 13, 66, 0
7, 113376, Note_on_c, 13, 59, 110
7, 113376, Note_on_c, 13, 63, 110
7, 113376, Note_on_c, 13, 66, 110
7, 113470, Note_on_c, 13, 59, 0
7, 113470, Note_on_c, 13, 63, 0
7, 113470, Note_on_c, 13, 66, 0
7, 113472, Note_on_c, 13, 59, 110
7, 113472, Note_on_c, 13, 63, 110
7, 113472, Note_on_c, 13, 66, 110
7, 113566, Note_on_c, 13, 59, 0
7, 113566, Note_on_c, 13, 63, 0
7, 113566, Note_on_c, 13, 66, 0
7, 113568, Note_on_c, 13, 59, 110
7, 113568, Note_on_c, 13, 63, 110
7, 113568, Note_on_c, 13, 66, 110
7, 113662, Note_on_c, 13, 59, 0
7, 113662, Note_on_c, 13, 63, 0
7, 113662, Note_on_c, 13, 66, 0
7, 113760, Note_on_c, 13, 59, 110
7, 113760, Note_on_c, 13, 63, 110
7, 113760, Note_on_c, 13, 66, 110
7, 113854, Note_on_c, 13, 59, 0
7, 113854, Note_on_c, 13, 63, 0
7, 113854, Note_on_c, 13, 66, 0
7, 113856, Note_on_c, 13, 59, 110
7, 113856, Note_on_c, 13, 63, 110
7, 113856, Note_on_c, 13, 66, 110
7, 113950, Note_on_c, 13, 59, 0
7, 113950, Note_on_c, 13, 63, 0
7, 113950, Note_on_c, 13, 66, 0
7, 113952, Note_on_c, 13, 59, 110
7, 113952, Note_on_c, 13, 63, 110
7, 113952, Note_on_c, 13, 66, 110
7, 114046, Note_on_c, 13, 59, 0
7, 114046, Note_on_c, 13, 63, 0
7, 114046, Note_on_c, 13, 66, 0
7, 114144, Note_on_c, 13, 59, 110
7, 114144, Note_on_c, 13, 63, 110
7, 114144, Note_on_c, 13, 66, 110
7, 114238, Note_on_c, 13, 59, 0
7, 114238, Note_on_c, 13, 63, 0
7, 114238, Note_on_c, 13, 66, 0
7, 114240, Note_on_c, 13, 59, 110
7, 114240, Note_on_c, 13, 63, 110
7, 114240, Note_on_c, 13, 66, 110
7, 114334, Note_on_c, 13, 59, 0
7, 114334, Note_on_c, 13, 63, 0
7, 114334, Note_on_c, 13, 66, 0
7, 114336, Note_on_c, 13, 59, 110
7, 114336, Note_on_c, 13, 63, 110
7, 114336, Note_on_c, 13, 66, 110
7, 114430, Note_on_c, 13, 59, 0
7, 114430, Note_on_c, 13, 63, 0
7, 114430, Note_on_c, 13, 66, 0
7, 114432, Note_on_c, 13, 59, 110
7, 114432, Note_on_c, 13, 63, 110
7, 114432, Note_on_c, 13, 66, 110
7, 114526, Note_on_c, 13, 59, 0
7, 114526, Note_on_c, 13, 63, 0
7, 114526, Note_on_c, 13, 66, 0
7, 114624, Note_on_c, 13, 62, 110
7, 114624, Note_on_c, 13, 66, 110
7, 114624, Note_on_c, 13, 69, 110
7, 114718, Note_on_c, 13, 62, 0
7, 114718, Note_on_c, 13, 66, 0
7, 114718, Note_on_c, 13, 69, 0
7, 114720, Note_on_c, 13, 62, 110
7, 114720, Note_on_c, 13, 66, 110
7, 114720, Note_on_c, 13, 69, 110
7, 114814, Note_on_c, 13, 62, 0
7, 114814, Note_on_c, 13, 66, 0
7, 114814, Note_on_c, 13, 69, 0
7, 114912, Note_on_c, 13, 62, 110
7, 114912, Note_on_c, 13, 66, 110
7, 114912, Note_on_c, 13, 69, 110
7, 115006, Note_on_c, 13, 62, 0
7, 115006, Note_on_c, 13, 66, 0
7, 115006, Note_on_c, 13, 69, 0
7, 115008, Note_on_c, 13, 62, 110
7, 115008, Note_on_c, 13, 66, 110
7, 115008, Note_on_c, 13, 69, 110
7, 115102, Note_on_c, 13, 62, 0
7, 115102, Note_on_c, 13, 66, 0
7, 115102, Note_on_c, 13, 69, 0
7, 115104, Note_on_c, 13, 62, 110
7, 115104, Note_on_c, 13, 66, 110
7, 115104, Note_on_c, 13, 69, 110
7, 115198, Note_on_c, 13, 62, 0
7, 115198, Note_on_c, 13, 66, 0
7, 115198, Note_on_c, 13, 69, 0
7, 115296, Note_on_c, 13, 62, 110
7, 115296, Note_on_c, 13, 66, 110
7, 115296, Note_on_c, 13, 69, 110
7, 115390, Note_on_c, 13, 62, 0
7, 115390, Note_on_c, 13, 66, 0
7, 115390, Note_on_c, 13, 69, 0
7, 115392, Note_on_c, 13, 62, 110
7, 115392, Note_on_c, 13, 66, 110
7, 115392, Note_on_c, 13, 69, 110
7, 115486, Note_on_c, 13, 62, 0
7, 115486, Note_on_c, 13, 66, 0
7, 115486, Note_on_c, 13, 69, 0
7, 115488, Note_on_c, 13, 62, 110
7, 115488, Note_on_c, 13, 66, 110
7, 115488, Note_on_c, 13, 69, 110
7, 115582, Note_on_c, 13, 62, 0
7, 115582, Note_on_c, 13, 66, 0
7, 115582, Note_on_c, 13, 69, 0
7, 115680, Note_on_c, 13, 62, 110
7, 115680, Note_on_c, 13, 66, 110
7, 115680, Note_on_c, 13, 69, 110
7, 115774, Note_on_c, 13, 62, 0
7, 115774, Note_on_c, 13, 66, 0
7, 115774, Note_on_c, 13, 69, 0
7, 115776, Note_on_c, 13, 62, 110
7, 115776, Note_on_c, 13, 66, 110
7, 115776, Note_on_c, 13, 69, 110
7, 115870, Note_on_c, 13, 62, 0
7, 115870, Note_on_c, 13, 66, 0
7, 115870, Note_on_c, 13, 69, 0
7, 115872, Note_on_c, 13, 62, 110
7, 115872, Note_on_c, 13, 66, 110
7, 115872, Note_on_c, 13, 69, 110
7, 115966, Note_on_c, 13, 62, 0
7, 115966, Note_on_c, 13, 66, 0
7, 115966, Note_on_c, 13, 69, 0
7, 115968, Note_on_c, 13, 62, 110
7, 115968, Note_on_c, 13, 66, 110
7, 115968, Note_on_c, 13, 69, 110
7, 116062, Note_on_c, 13, 62, 0
7, 116062, Note_on_c, 13, 66, 0
7, 116062, Note_on_c, 13, 69, 0
7, 116160, Note_on_c, 13, 57, 110
7, 116160, Note_on_c, 13, 61, 110
7, 116160, Note_on_c, 13, 64, 110
7, 116254, Note_on_c, 13, 57, 0
7, 116254, Note_on_c, 13, 61, 0
7, 116254, Note_on_c, 13, 64, 0
7, 116256, Note_on_c, 13, 57, 110
7, 116256, Note_on_c, 13, 61, 110
7, 116256, Note_on_c, 13, 64, 110
7, 116350, Note_on_c, 13, 57, 0
7, 116350, Note_on_c, 13, 61, 0
7, 116350, Note_on_c, 13, 64, 0
7, 116448, Note_on_c, 13, 57, 110
7, 116448, Note_on_c, 13, 61, 110
7, 116448, Note_on_c, 13, 64, 110
7, 116542, Note_on_c, 13, 57, 0
7, 116542, Note_on_c, 13, 61, 0
7, 116542, Note_on_c, 13, 64, 0
7, 116544, Note_on_c, 13, 57, 110
7, 116544, Note_on_c, 13, 61, 110
7, 116544, Note_on_c, 13, 64, 110
7, 116638, Note_on_c, 13, 57, 0
7, 116638, Note_on_c, 13, 61, 0
7, 116638, Note_on_c, 13, 64, 0
7, 116640, Note_on_c, 13, 57, 110
7, 116640, Note_on_c, 13, 61, 110
7, 116640, Note_on_c, 13, 64, 110
7, 116734, Note_on_c, 13, 57, 0
7, 116734, Note_on_c, 13, 61, 0
7, 116734, Note_on_c, 13, 64, 0
7, 116832, Note_on_c, 13, 57, 110
7, 116832, Note_on_c, 13, 61, 110
7, 116832, Note_on_c, 13, 64, 110
7, 116926, Note_on_c, 13, 57, 0
7, 116926, Note_on_c, 13, 61, 0
7, 116926, Note_on_c, 13, 64, 0
7, 116928, Note_on_c, 13, 57, 110
7, 116928, Note_on_c, 13, 61, 110
7, 116928, Note_on_c, 13, 64, 110
7, 117022, Note_on_c, 13, 57, 0
7, 117022, Note_on_c, 13, 61, 0
7, 117022, Note_on_c, 13, 64, 0
7, 117024, Note_on_c, 13, 57, 110
7, 117024, Note_on_c, 13, 61, 110
7, 117024, Note_on_c, 13, 64, 110
7, 117118, Note_on_c, 13, 57, 0
7, 117118, Note_on_c, 13, 61, 0
7, 117118, Note_on_c, 13, 64, 0
7, 117216, Note_on_c, 13, 57, 110
7, 117216, Note_on_c, 13, 61, 110
7, 117216, Note_on_c, 13, 64, 110
7, 117310, Note_on_c, 13, 57, 0
7, 117310, Note_on_c, 13, 61, 0
7, 117310, Note_on_c, 13, 64, 0
7, 117312, Note_on_c, 13, 57, 110
7, 117312, Note_on_c, 13, 61, 110
7, 117312, Note_on_c, 13, 64, 110
7, 117406, Note_on_c, 13, 57, 0
7, 117406, Note_on_c, 13, 61, 0
7, 117406, Note_on_c, 13, 64, 0
7, 117504, Note_on_c, 13, 58, 110
7, 117504, Note_on_c, 13, 62, 110
7, 117504, Note_on_c, 13, 65, 110
7, 117598, Note_on_c, 13, 58, 0
7, 117598, Note_on_c, 13, 62, 0
7, 117598, Note_on_c, 13, 65, 0
7, 117696, Note_on_c, 13, 59, 110
7, 117696, Note_on_c, 13, 63, 110
7, 117696, Note_on_c, 13, 66, 110
7, 117790, Note_on_c, 13, 59, 0
7, 117790, Note_on_c, 13, 63, 0
7, 117790, Note_on_c, 13, 66, 0
7, 117792, Note_on_c, 13, 59, 110
7, 117792, Note_on_c, 13, 63, 110
7, 117792, Note_on_c, 13, 66, 110
7, 117886, Note_on_c, 13, 59, 0
7, 117886, Note_on_c, 13, 63, 0
7, 117886, Note_on_c, 13, 66, 0
7, 117984, Note_on_c, 13, 59, 110
7, 117984, Note_on_c, 13, 63, 110
7, 117984, Note_on_c, 13, 66, 110
7, 118078, Note_on_c, 13, 59, 0
7, 118078, Note_on_c, 13, 63, 0
7, 118078, Note_on_c, 13, 66, 0
7, 118080, Note_on_c, 13, 59, 110
7, 118080, Note_on_c, 13, 63, 110
7, 118080, Note_on_c, 13, 66, 110
7, 118174, Note_on_c, 13, 59, 0
7, 118174, Note_on_c, 13, 63, 0
7, 118174, Note_on_c, 13, 66, 0
7, 118176, Note_on_c, 13, 59, 110
7, 118176, Note_on_c, 13, 63, 110
7, 118176, Note_on_c, 13, 66, 110
7, 118270, Note_on_c, 13, 59, 0
7, 118270, Note_on_c, 13, 63, 0
7, 118270, Note_on_c, 13, 66, 0
7, 118368, Note_on_c, 13, 59, 110
7, 118368, Note_on_c, 13, 63, 110
7, 118368, Note_on_c, 13, 66, 110
7, 118462, Note_on_c, 13, 59, 0
7, 118462, Note_on_c, 13, 63, 0
7, 118462, Note_on_c, 13, 66, 0
7, 118464, Note_on_c, 13, 59, 110
7, 118464, Note_on_c, 13, 63, 110
7, 118464, Note_on_c, 13, 66, 110
7, 118558, Note_on_c, 13, 59, 0
7, 118558, Note_on_c, 13, 63, 0
7, 118558, Note_on_c, 13, 66, 0
7, 118560, Note_on_c, 13, 59, 110
7, 118560, Note_on_c, 13, 63, 110
7, 118560, Note_on_c, 13, 66, 110
7, 118654, Note_on_c, 13, 59, 0
7, 118654, Note_on_c, 13, 63, 0
7, 118654, Note_on_c, 13, 66, 0
7, 118752, Note_on_c, 13, 59, 110
7, 118752, Note_on_c, 13, 63, 110
7, 118752, Note_on_c, 13, 66, 110
7, 118846, Note_on_c, 13, 59, 0
7, 118846, Note_on_c, 13, 63, 0
7, 118846, Note_on_c, 13, 66, 0
7, 118848, Note_on_c, 13, 59, 110
7, 118848, Note_on_c, 13, 63, 110
7, 118848, Note_on_c, 13, 66, 110
7, 118942, Note_on_c, 13, 59, 0
7, 118942, Note_on_c, 13, 63, 0
7, 118942, Note_on_c, 13, 66, 0
7, 118944, Note_on_c, 13, 59, 110
7, 118944, Note_on_c, 13, 63, 110
7, 118944, Note_on_c, 13, 66, 110
7, 119038, Note_on_c, 13, 59, 0
7, 119038, Note_on_c, 13, 63, 0
7, 119038, Note_on_c, 13, 66, 0
7, 119040, Note_on_c, 13, 59, 110
7, 119040, Note_on_c, 13, 63, 110
7, 119040, Note_on_c, 13, 66, 110
7, 119134, Note_on_c, 13, 59, 0
7, 119134, Note_on_c, 13, 63, 0
7, 119134, Note_on_c, 13, 66, 0
7, 119232, Note_on_c, 13, 62, 110
7, 119232, Note_on_c, 13, 66, 110
7, 119232, Note_on_c, 13, 69, 110
7, 119326, Note_on_c, 13, 62, 0
7, 119326, Note_on_c, 13, 66, 0
7, 119326, Note_on_c, 13, 69, 0
7, 119328, Note_on_c, 13, 62, 110
7, 119328, Note_on_c, 13, 66, 110
7, 119328, Note_on_c, 13, 69, 110
7, 119422, Note_on_c, 13, 62, 0
7, 119422, Note_on_c, 13, 66, 0
7, 119422, Note_on_c, 13, 69, 0
7, 119520, Note_on_c, 13, 62, 110
7, 119520, Note_on_c, 13, 66, 110
7, 119520, Note_on_c, 13, 69, 110
7, 119614, Note_on_c, 13, 62, 0
7, 119614, Note_on_c, 13, 66, 0
7, 119614, Note_on_c, 13, 69, 0
7, 119616, Note_on_c, 13, 62, 110
7, 119616, Note_on_c, 13, 66, 110
7, 119616, Note_on_c, 13, 69, 110
7, 119710, Note_on_c, 13, 62, 0
7, 119710, Note_on_c, 13, 66, 0
7, 119710, Note_on_c, 13, 69, 0
7, 119712, Note_on_c, 13, 62, 110
7, 119712, Note_on_c, 13, 66, 110
7, 119712, Note_on_c, 13, 69, 110
7, 119806, Note_on_c, 13, 62, 0
7, 119806, Note_on_c, 13, 66, 0
7, 119806, Note_on_c, 13, 69, 0
7, 119904, Note_on_c, 13, 62, 110
7, 119904, Note_on_c, 13, 66, 110
7, 119904, Note_on_c, 13, 69, 110
7, 119998, Note_on_c, 13, 62, 0
7, 119998, Note_on_c, 13, 66, 0
7, 119998, Note_on_c, 13, 69, 0
7, 120000, Note_on_c, 13, 62, 110
7, 120000, Note_on_c, 13, 66, 110
7, 120000, Note_on_c, 13, 69, 110
7, 120094, Note_on_c, 13, 62, 0
7, 120094, Note_on_c, 13, 66, 0
7, 120094, Note_on_c, 13, 69, 0
7, 120096, Note_on_c, 13, 62, 110
7, 120096, Note_on_c, 13, 66, 110
7, 120096, Note_on_c, 13, 69, 110
7, 120190, Note_on_c, 13, 62, 0
7, 120190, Note_on_c, 13, 66, 0
7, 120190, Note_on_c, 13, 69, 0
7, 120288, Note_on_c, 13, 62, 110
7, 120288, Note_on_c, 13, 66, 110
7, 120288, Note_on_c, 13, 69, 110
7, 120382, Note_on_c, 13, 62, 0
7, 120382, Note_on_c, 13, 66, 0
7, 120382, Note_on_c, 13, 69, 0
7, 120384, Note_on_c, 13, 62, 110
7, 120384, Note_on_c, 13, 66, 110
7, 120384, Note_on_c, 13, 69, 110
7, 120478, Note_on_c, 13, 62, 0
7, 120478, Note_on_c, 13, 66, 0
7, 120478, Note_on_c, 13, 69, 0
7, 120480, Note_on_c, 13, 62, 110
7, 120480, Note_on_c, 13, 66, 110
7, 120480, Note_on_c, 13, 69, 110
7, 120574, Note_on_c, 13, 62, 0
7, 120574, Note_on_c, 13, 66, 0
7, 120574, Note_on_c, 13, 69, 0
7, 120576, Note_on_c, 13, 62, 110
7, 120576, Note_on_c, 13, 66, 110
7, 120576, Note_on_c, 13, 69, 110
7, 120670, Note_on_c, 13, 62, 0
7, 120670, Note_on_c, 13, 66, 0
7, 120670, Note_on_c, 13, 69, 0
7, 120768, Note_on_c, 13, 57, 110
7, 120768, Note_on_c, 13, 61, 110
7, 120768, Note_on_c, 13, 64, 110
7, 120862, Note_on_c, 13, 57, 0
7, 120862, Note_on_c, 13, 61, 0
7, 120862, Note_on_c, 13, 64, 0
7, 120864, Note_on_c, 13, 57, 110
7, 120864, Note_on_c, 13, 61, 110
7, 120864, Note_on_c, 13, 64, 110
7, 120958, Note_on_c, 13, 57, 0
7, 120958, Note_on_c, 13, 61, 0
7, 120958, Note_on_c, 13, 64, 0
7, 121056, Note_on_c, 13, 57, 110
7, 121056, Note_on_c, 13, 61, 110
7, 121056, Note_on_c, 13, 64, 110
7, 121150, Note_on_c, 13, 57, 0
7, 121150, Note_on_c, 13, 61, 0
7, 121150, Note_on_c, 13, 64, 0
7, 121152, Note_on_c, 13, 57, 110
7, 121152, Note_on_c, 13, 61, 110
7, 121152, Note_on_c, 13, 64, 110
7, 121246, Note_on_c, 13, 57, 0
7, 121246, Note_on_c, 13, 61, 0
7, 121246, Note_on_c, 13, 64, 0
7, 121248, Note_on_c, 13, 57, 110
7, 121248, Note_on_c, 13, 61, 110
7, 121248, Note_on_c, 13, 64, 110
7, 121342, Note_on_c, 13, 57, 0
7, 121342, Note_on_c, 13, 61, 0
7, 121342, Note_on_c, 13, 64, 0
7, 121440, Note_on_c, 13, 57, 110
7, 121440, Note_on_c, 13, 61, 110
7, 121440, Note_on_c, 13, 64, 110
7, 121534, Note_on_c, 13, 57, 0
7, 121534, Note_on_c, 13, 61, 0
7, 121534, Note_on_c, 13, 64, 0
7, 121536, Control_c, 13, 7, 127
7, 121536, Note_on_c, 13, 57, 110
7, 121536, Note_on_c, 13, 61, 110
7, 121536, Note_on_c, 13, 64, 110
7, 121559, Control_c, 13, 7, 126
7, 121582, Control_c, 13, 7, 125
7, 121605, Control_c, 13, 7, 124
7, 121629, Control_c, 13, 7, 123
7, 121630, Note_on_c, 13, 57, 0
7, 121630, Note_on_c, 13, 61, 0
7, 121630, Note_on_c, 13, 64, 0
7, 121632, Note_on_c, 13, 57, 110
7, 121632, Note_on_c, 13, 61, 110
7, 121632, Note_on_c, 13, 64, 110
7, 121652, Control_c, 13, 7, 122
7, 121675, Control_c, 13, 7, 121
7, 121698, Control_c, 13, 7, 120
7, 121722, Control_c, 13, 7, 119
7, 121726, Note_on_c, 13, 57, 0
7, 121726, Note_on_c, 13, 61, 0
7, 121726, Note_on_c, 13, 64, 0
7, 121745, Control_c, 13, 7, 118
7, 121768, Control_c, 13, 7, 117
7, 121792, Control_c, 13, 7, 116
7, 121815, Control_c, 13, 7, 115
7, 121824, Note_on_c, 13, 57, 110
7, 121824, Note_on_c, 13, 61, 110
7, 121824, Note_on_c, 13, 64, 110
7, 121838, Control_c, 13, 7, 114
7, 121861, Control_c, 13, 7, 113
7, 121885, Control_c, 13, 7, 112
7, 121908, Control_c, 13, 7, 111
7, 121918, Note_on_c, 13, 57, 0
7, 121918, Note_on_c, 13, 61, 0
7, 121918, Note_on_c, 13, 64, 0
7, 121920, Note_on_c, 13, 57, 110
7, 121920, Note_on_c, 13, 61, 110
7, 121920, Note_on_c, 13, 64, 110
7, 121931, Control_c, 13, 7, 110
7, 121954, Control_c, 13, 7, 109
7, 121978, Control_c, 13, 7, 108
7, 122001, Control_c, 13, 7, 107
7, 122014, Note_on_c, 13, 57, 0
7, 122014, Note_on_c, 13, 61, 0
7, 122014, Note_on_c, 13, 64, 0
7, 122024, Control_c, 13, 7, 106
7, 122048, Control_c, 13, 7, 105
7, 122071, Control_c, 13, 7, 104
7, 122094, Control_c, 13, 7, 103
7, 122112, Note_on_c, 13, 58, 110
7, 122112, Note_on_c, 13, 62, 110
7, 122112, Note_on_c, 13, 65, 110
7, 122117, Control_c, 13, 7, 102
7, 122141, Control_c, 13, 7, 101
7, 122164, Control_c, 13, 7, 100
7, 122187, Control_c, 13, 7, 99
7, 122206, Note_on_c, 13, 58, 0
7, 122206, Note_on_c, 13, 62, 0
7, 122206, Note_on_c, 13, 65, 0
7, 122210, Control_c, 13, 7, 98
7, 122234, Control_c, 13, 7, 97
7, 122257, Control_c, 13, 7, 96
7, 122280, Control_c, 13, 7, 95
7, 122304, Control_c, 13, 7, 94
7, 122304, Control_c, 13, 7, 94
7, 122304, Note_on_c, 13, 59, 110
7, 122304, Note_on_c, 13, 63, 110
7, 122304, Note_on_c, 13, 66, 110
7, 122358, Control_c, 13, 7, 93
7, 122398, Note_on_c, 13, 59, 0
7, 122398, Note_on_c, 13, 63, 0
7, 122398, Note_on_c, 13, 66, 0
7, 122400, Note_on_c, 13, 59, 110
7, 122400, Note_on_c, 13, 63, 110
7, 122400, Note_on_c, 13, 66, 110
7, 122413, Control_c, 13, 7, 92
7, 122468, Control_c, 13, 7, 91
7, 122494, Note_on_c, 13, 59, 0
7, 122494, Note_on_c, 13, 63, 0
7, 122494, Note_on_c, 13, 66, 0
7, 122523, Control_c, 13, 7, 90
7, 122578, Control_c, 13, 7, 89
7, 122592, Note_on_c, 13, 59, 110
7, 122592, Note_on_c, 13, 63, 110
7, 122592, Note_on_c, 13, 66, 110
7, 122633, Control_c, 13, 7, 88
7, 122686, Note_on_c, 13, 59, 0
7, 122686, Note_on_c, 13, 63, 0
7, 122686, Note_on_c, 13, 66, 0
7, 122688, Control_c, 13, 7, 87
7, 122688, Note_on_c, 13, 59, 110
7, 122688, Note_on_c, 13, 63, 110
7, 122688, Note_on_c, 13, 66, 110
7, 122742, Control_c, 13, 7, 86
7, 122782, Note_on_c, 13, 59, 0
7, 122782, Note_on_c, 13, 63, 0
7, 122782, Note_on_c, 13, 66, 0
7, 122784, Note_on_c, 13, 59, 110
7, 122784, Note_on_c, 13, 63, 110
7, 122784, Note_on_c, 13, 66, 110
7, 122797, Control_c, 13, 7, 85
7, 122852, Control_c, 13, 7, 84
7, 122878, Note_on_c, 13, 59, 0
7, 122878, Note_on_c, 13, 63, 0
7, 122878, Note_on_c, 13, 66, 0
7, 122907, Control_c, 13, 7, 83
7, 122962, Control_c, 13, 7, 82
7, 122976, Note_on_c, 13, 59, 110
7, 122976, Note_on_c, 13, 63, 110
7, 122976, Note_on_c, 13, 66, 110
7, 123017, Control_c, 13, 7, 81
7, 123070, Note_on_c, 13, 59, 0
7, 123070, Note_on_c, 13, 63, 0
7, 123070, Note_on_c, 13, 66, 0
7, 123072, Control_c, 13, 7, 80
7, 123072, Control_c, 13, 7, 80
7, 123072, Note_on_c, 13, 59, 110
7, 123072, Note_on_c, 13, 63, 110
7, 123072, Note_on_c, 13, 66, 110
7, 123097, Control_c, 13, 7, 79
7, 123123, Control_c, 13, 7, 78
7, 123148, Control_c, 13, 7, 77
7, 123166, Note_on_c, 13, 59, 0
7, 123166, Note_on_c, 13, 63, 0
7, 123166, Note_on_c, 13, 66, 0
7, 123168, Note_on_c, 13, 59, 110
7, 123168, Note_on_c, 13, 63, 110
7, 123168, Note_on_c, 13, 66, 110
7, 123174, Control_c, 13, 7, 76
7, 123200, Control_c, 13, 7, 75
7, 123225, Control_c, 13, 7, 74
7, 123251, Control_c, 13, 7, 73
7, 123262, Note_on_c, 13, 59, 0
7, 123262, Note_on_c, 13, 63, 0
7, 123262, Note_on_c, 13, 66, 0
7, 123276, Control_c, 13, 7, 72
7, 123302, Control_c, 13, 7, 71
7, 123328, Control_c, 13, 7, 70
7, 123353, Control_c, 13, 7, 69
7, 123360, Note_on_c, 13, 59, 110
7, 123360, Note_on_c, 13, 63, 110
7, 123360, Note_on_c, 13, 66, 110
7, 123379, Control_c, 13, 7, 68
7, 123404, Control_c, 13, 7, 67
7, 123430, Control_c, 13, 7, 66
7, 123454, Note_on_c, 13, 59, 0
7, 123454, Note_on_c, 13, 63, 0
7, 123454, Note_on_c, 13, 66, 0
7, 123456, Control_c, 13, 7, 65
7, 123456, Note_on_c, 13, 59, 110
7, 123456, Note_on_c, 13, 63, 110
7, 123456, Note_on_c, 13, 66, 110
7, 123481, Control_c, 13, 7, 64
7, 123507, Control_c, 13, 7, 63
7, 123532, Control_c, 13, 7, 62
7, 123550, Note_on_c, 13, 59, 0
7, 123550, Note_on_c, 13, 63, 0
7, 123550, Note_on_c, 13, 66, 0
7, 123552, Note_on_c, 13, 59, 110
7, 123552, Note_on_c, 13, 63, 110
7, 123552, Note_on_c, 13, 66, 110
7, 123558, Control_c, 13, 7, 61
7, 123584, Control_c, 13, 7, 60
7, 123609, Control_c, 13, 7, 59
7, 123635, Control_c, 13, 7, 58
7, 123646, Note_on_c, 13, 59, 0
7, 123646, Note_on_c, 13, 63, 0
7, 123646, Note_on_c, 13, 66, 0
7, 123648, Note_on_c, 13, 59, 110
7, 123648, Note_on_c, 13, 63, 110
7, 123648, Note_on_c, 13, 66, 110
7, 123660, Control_c, 13, 7, 57
7, 123686, Control_c, 13, 7, 56
7, 123712, Control_c, 13, 7, 55
7, 123737, Control_c, 13, 7, 54
7, 123742, Note_on_c, 13, 59, 0
7, 123742, Note_on_c, 13, 63, 0
7, 123742, Note_on_c, 13, 66, 0
7, 123763, Control_c, 13, 7, 53
7, 123788, Control_c, 13, 7, 52
7, 123814, Control_c, 13, 7, 51
7, 123840, Control_c, 13, 7, 50
7, 123840, Control_c, 13, 7, 50
7, 123840, Note_on_c, 13, 62, 110
7, 123840, Note_on_c, 13, 66, 110
7, 123840, Note_on_c, 13, 69, 110
7, 123878, Control_c, 13, 7, 49
7, 123916, Control_c, 13, 7, 48
7, 123934, Note_on_c, 13, 62, 0
7, 123934, Note_on_c, 13, 66, 0
7, 123934, Note_on_c, 13, 69, 0
7, 123936, Note_on_c, 13, 62, 110
7, 123936, Note_on_c, 13, 66, 110
7, 123936, Note_on_c, 13, 69, 110
7, 123955, Control_c, 13, 7, 47
7, 123993, Control_c, 13, 7, 46
7, 124030, Note_on_c, 13, 62, 0
7, 124030, Note_on_c, 13, 66, 0
7, 124030, Note_on_c, 13, 69, 0
7, 124032, Control_c, 13, 7, 45
7, 124070, Control_c, 13, 7, 44
7, 124108, Control_c, 13, 7, 43
7, 124128, Note_on_c, 13, 62, 110
7, 124128, Note_on_c, 13, 66, 110
7, 124128, Note_on_c, 13, 69, 110
7, 124147, Control_c, 13, 7, 42
7, 124185, Control_c, 13, 7, 41
7, 124222, Note_on_c, 13, 62, 0
7, 124222, Note_on_c, 13, 66, 0
7, 124222, Note_on_c, 13, 69, 0
7, 124224, Control_c, 13, 7, 40
7, 124224, Note_on_c, 13, 62, 110
7, 124224, Note_on_c, 13, 66, 110
7, 124224, Note_on_c, 13, 69, 110
7, 124262, Control_c, 13, 7, 39
7, 124300, Control_c, 13, 7, 38
7, 124318, Note_on_c, 13, 62, 0
7, 124318, Note_on_c, 13, 66, 0
7, 124318, Note_on_c, 13, 69, 0
7, 124320, Note_on_c, 13, 62, 110
7, 124320, Note_on_c, 13, 66, 110
7, 124320, Note_on_c, 13, 69, 110
7, 124339, Control_c, 13, 7, 37
7, 124377, Control_c, 13, 7, 36
7, 124414, Note_on_c, 13, 62, 0
7, 124414, Note_on_c, 13, 66, 0
7, 124414, Note_on_c, 13, 69, 0
7, 124416, Control_c, 13, 7, 35
7, 124454, Control_c, 13, 7, 34
7, 124492, Control_c, 13, 7, 33
7, 124512, Note_on_c, 13, 62, 110
7, 124512, Note_on_c, 13, 66, 110
7, 124512, Note_on_c, 13, 69, 110
7, 124531, Control_c, 13, 7, 32
7, 124569, Control_c, 13, 7, 31
7, 124606, Note_on_c, 13, 62, 0
7, 124606, Note_on_c, 13, 66, 0
7, 124606, Note_on_c, 13, 69, 0
7, 124608, Control_c, 13, 7, 30
7, 124608, Control_c, 13, 7, 30
7, 124608, Note_on_c, 13, 62, 110
7, 124608, Note_on_c, 13, 66, 110
7, 124608, Note_on_c, 13, 69, 110
7, 124650, Control_c, 13, 7, 29
7, 124693, Control_c, 13, 7, 28
7, 124702, Note_on_c, 13, 62, 0
7, 124702, Note_on_c, 13, 66, 0
7, 124702, Note_on_c, 13, 69, 0
7, 124704, Note_on_c, 13, 62, 110
7, 124704, Note_on_c, 13, 66, 110
7, 124704, Note_on_c, 13, 69, 110
7, 124736, Control_c, 13, 7, 27
7, 124778, Control_c, 13, 7, 26
7, 124798, Note_on_c, 13, 62, 0
7, 124798, Note_on_c, 13, 66, 0
7, 124798, Note_on_c, 13, 69, 0
7, 124821, Control_c, 13, 7, 25
7, 124864, Control_c, 13, 7, 24
7, 124896, Note_on_c, 13, 62, 110
7, 124896, Note_on_c, 13, 66, 110
7, 124896, Note_on_c, 13, 69, 110
7, 124906, Control_c, 13, 7, 23
7, 124949, Control_c, 13, 7, 22
7, 124990, Note_on_c, 13, 62, 0
7, 124990, Note_on_c, 13, 66, 0
7, 124990, Note_on_c, 13, 69, 0
7, 124992, Control_c, 13, 7, 21
7, 124992, Note_on_c, 13, 62, 110
7, 124992, Note_on_c, 13, 66, 110
7, 124992, Note_on_c, 13, 69, 110
7, 125034, Control_c, 13, 7, 20
7, 125077, Control_c, 13, 7, 19
7, 125086, Note_on_c, 13, 62, 0
7, 125086, Note_on_c, 13, 66, 0
7, 125086, Note_on_c, 13, 69, 0
7, 125088, Note_on_c, 13, 62, 110
7, 125088, Note_on_c, 13, 66, 110
7, 125088, Note_on_c, 13, 69, 110
7, 125120, Control_c, 13, 7, 18
7, 125162, Control_c, 13, 7, 17
7, 125182, Note_on_c, 13, 62, 0
7, 125182, Note_on_c, 13, 66, 0
7, 125182, Note_on_c, 13, 69, 0
7, 125184, Note_on_c, 13, 62, 110
7, 125184, Note_on_c, 13, 66, 110
7, 125184, Note_on_c, 13, 69, 110
7, 125205, Control_c, 13, 7, 16
7, 125248, Control_c, 13, 7, 15
7, 125278, Note_on_c, 13, 62, 0
7, 125278, Note_on_c, 13, 66, 0
7, 125278, Note_on_c, 13, 69, 0
7, 125290, Control_c, 13, 7, 14
7, 125333, Control_c, 13, 7, 13
7, 125376, Control_c, 13, 7, 12
7, 125376, Control_c, 13, 7, 12
7, 125376, Note_on_c, 13, 57, 110
7, 125376, Note_on_c, 13, 61, 110
7, 125376, Note_on_c, 13, 64, 110
7, 125440, Control_c, 13, 7, 11
7, 125470, Note_on_c, 13, 57, 0
7, 125470, Note_on_c, 13, 61, 0
7, 125470, Note_on_c, 13, 64, 0
7, 125472, Note_on_c, 13, 57, 110
7, 125472, Note_on_c, 13, 61, 110
7, 125472, Note_on_c, 13, 64, 110
7, 125504, Control_c, 13, 7, 10
7, 125566, Note_on_c, 13, 57, 0
7, 125566, Note_on_c, 13, 61, 0
7, 125566, Note_on_c, 13, 64, 0
7, 125568, Control_c, 13, 7, 9
7, 125632, Control_c, 13, 7, 8
7, 125664, Note_on_c, 13, 57, 110
7, 125664, Note_on_c, 13, 61, 110
7, 125664, Note_on_c, 13, 64, 110
7, 125696, Control_c, 13, 7, 7
7, 125758, Note_on_c, 13, 57, 0
7, 125758, Note_on_c, 13, 61, 0
7, 125758, Note_on_c, 13, 64, 0
7, 125760, Control_c, 13, 7, 6
7, 125760, Note_on_c, 13, 57, 110
7, 125760, Note_on_c, 13, 61, 110
7, 125760, Note_on_c, 13, 64, 110
7, 125824, Control_c, 13, 7, 5
7, 125854, Note_on_c, 13, 57, 0
7, 125854, Note_on_c, 13, 61, 0
7, 125854, Note_on_c, 13, 64, 0
7, 125856, Note_on_c, 13, 57, 110
7, 125856, Note_on_c, 13, 61, 110
7, 125856, Note_on_c, 13, 64, 110
7, 125888, Control_c, 13, 7, 4
7, 125950, Note_on_c, 13, 57, 0
7, 125950, Note_on_c, 13, 61, 0
7, 125950, Note_on_c, 13, 64, 0
7, 125952, Control_c, 13, 7, 3
7, 126016, Control_c, 13, 7, 2
7, 126048, Note_on_c, 13, 57, 110
7, 126048, Note_on_c, 13, 61, 110
7, 126048, Note_on_c, 13, 64, 110
7, 126080, Control_c, 13, 7, 1
7, 126142, Note_on_c, 13, 57, 0
7, 126142, Note_on_c, 13, 61, 0
7, 126142, Note_on_c, 13, 64, 0
7, 126144, Control_c, 13, 7, 0
7, 126144, Note_on_c, 13, 57, 110
7, 126144, Note_on_c, 13, 61, 110
7, 126144, Note_on_c, 13, 64, 110
7, 126238, Note_on_c, 13, 57, 0
7, 126238, Note_on_c, 13, 61, 0
7, 126238, Note_on_c, 13, 64, 0
7, 126240, Note_on_c, 13, 57, 110
7, 126240, Note_on_c, 13, 61, 110
7, 126240, Note_on_c, 13, 64, 110
7, 126334, Note_on_c, 13, 57, 0
7, 126334, Note_on_c, 13, 61, 0
7, 126334, Note_on_c, 13, 64, 0
7, 126432, Note_on_c, 13, 57, 110
7, 126432, Note_on_c, 13, 61, 110
7, 126432, Note_on_c, 13, 64, 110
7, 126526, Note_on_c, 13, 57, 0
7, 126526, Note_on_c, 13, 61, 0
7, 126526, Note_on_c, 13, 64, 0
7, 126528, Note_on_c, 13, 57, 110
7, 126528, Note_on_c, 13, 61, 110
7, 126528, Note_on_c, 13, 64, 110
7, 126622, Note_on_c, 13, 57, 0
7, 126622, Note_on_c, 13, 61, 0
7, 126622, Note_on_c, 13, 64, 0
7, 126720, Note_on_c, 13, 58, 110
7, 126720, Note_on_c, 13, 62, 110
7, 126720, Note_on_c, 13, 65, 110
7, 126814, Note_on_c, 13, 58, 0
7, 126814, Note_on_c, 13, 62, 0
7, 126814, Note_on_c, 13, 65, 0
7, 126814, End_track
8, 0, Start_track
8, 0, MIDI_port, 0
8, 0, Title_t, "Staff-7"
8, 0, Program_c, 14, 30
8, 0, Control_c, 14, 7, 127
8, 0, Control_c, 14, 10, 64
8, 67008, Note_on_c, 14, 71, 110
8, 67536, Note_on_c, 14, 71, 0
8, 67584, Note_on_c, 14, 68, 110
8, 67678, Note_on_c, 14, 68, 0
8, 67680, Note_on_c, 14, 69, 110
8, 68446, Note_on_c, 14, 69, 0
8, 68448, Note_on_c, 14, 64, 110
8, 69790, Note_on_c, 14, 64, 0
8, 69792, Note_on_c, 14, 70, 110
8, 69952, Note_on_c, 14, 70, 0
8, 69984, Note_on_c, 14, 71, 110
8, 70176, Note_on_c, 14, 76, 110
8, 70270, Note_on_c, 14, 71, 0
8, 70272, Note_on_c, 14, 67, 110
8, 70704, Note_on_c, 14, 76, 0
8, 70750, Note_on_c, 14, 67, 0
8, 70752, Note_on_c, 14, 70, 110
8, 70848, Note_on_c, 14, 74, 110
8, 71104, Note_on_c, 14, 70, 0
8, 71136, Note_on_c, 14, 69, 110
8, 71184, Note_on_c, 14, 74, 0
8, 71472, Note_on_c, 14, 69, 0
8, 71520, Note_on_c, 14, 68, 110
8, 71614, Note_on_c, 14, 68, 0
8, 71712, Note_on_c, 14, 69, 110
8, 72190, Note_on_c, 14, 69, 0
8, 72192, Note_on_c, 14, 65, 110
8, 72384, Pitch_bend_c, 14, 8192
8, 72390, Pitch_bend_c, 14, 8224
8, 72396, Pitch_bend_c, 14, 8256
8, 72403, Pitch_bend_c, 14, 8288
8, 72409, Pitch_bend_c, 14, 8320
8, 72415, Pitch_bend_c, 14, 8352
8, 72422, Pitch_bend_c, 14, 8384
8, 72428, Pitch_bend_c, 14, 8416
8, 72434, Pitch_bend_c, 14, 8448
8, 72441, Pitch_bend_c, 14, 8480
8, 72447, Pitch_bend_c, 14, 8512
8, 72453, Pitch_bend_c, 14, 8544
8, 72460, Pitch_bend_c, 14, 8576
8, 72466, Pitch_bend_c, 14, 8608
8, 72472, Pitch_bend_c, 14, 8640
8, 72479, Pitch_bend_c, 14, 8672
8, 72485, Pitch_bend_c, 14, 8704
8, 72491, Pitch_bend_c, 14, 8736
8, 72498, Pitch_bend_c, 14, 8768
8, 72504, Pitch_bend_c, 14, 8800
8, 72510, Pitch_bend_c, 14, 8832
8, 72517, Pitch_bend_c, 14, 8864
8, 72523, Pitch_bend_c, 14, 8896
8, 72529, Pitch_bend_c, 14, 8928
8, 72536, Pitch_bend_c, 14, 8960
8, 72542, Pitch_bend_c, 14, 8992
8, 72549, Pitch_bend_c, 14, 9024
8, 72555, Pitch_bend_c, 14, 9056
8, 72561, Pitch_bend_c, 14, 9088
8, 72568, Pitch_bend_c, 14, 9120
8, 72574, Pitch_bend_c, 14, 9152
8, 72580, Pitch_bend_c, 14, 9184
8, 72587, Pitch_bend_c, 14, 9216
8, 72593, Pitch_bend_c, 14, 9248
8, 72599, Pitch_bend_c, 14, 9280
8, 72606, Pitch_bend_c, 14, 9312
8, 72612, Pitch_bend_c, 14, 9344
8, 72618, Pitch_bend_c, 14, 9376
8, 72625, Pitch_bend_c, 14, 9408
8, 72631, Pitch_bend_c, 14, 9440
8, 72637, Pitch_bend_c, 14, 9472
8, 72644, Pitch_bend_c, 14, 9504
8, 72650, Pitch_bend_c, 14, 9536
8, 72656, Pitch_bend_c, 14, 9568
8, 72663, Pitch_bend_c, 14, 9600
8, 72669, Pitch_bend_c, 14, 9632
8, 72675, Pitch_bend_c, 14, 9664
8, 72682, Pitch_bend_c, 14, 9696
8, 72688, Pitch_bend_c, 14, 9728
8, 72695, Pitch_bend_c, 14, 9760
8, 72701, Pitch_bend_c, 14, 9792
8, 72707, Pitch_bend_c, 14, 9824
8, 72714, Pitch_bend_c, 14, 9856
8, 72720, Pitch_bend_c, 14, 9888
8, 72726, Pitch_bend_c, 14, 9920
8, 72733, Pitch_bend_c, 14, 9952
8, 72739, Pitch_bend_c, 14, 9984
8, 72745, Pitch_bend_c, 14, 10016
8, 72752, Pitch_bend_c, 14, 10048
8, 72758, Pitch_bend_c, 14, 10080
8, 72764, Pitch_bend_c, 14, 10112
8, 72771, Pitch_bend_c, 14, 10144
8, 72777, Pitch_bend_c, 14, 10176
8, 72783, Pitch_bend_c, 14, 10208
8, 72790, Pitch_bend_c, 14, 10240
8, 72796, Pitch_bend_c, 14, 10272
8, 72802, Pitch_bend_c, 14, 10304
8, 72809, Pitch_bend_c, 14, 10336
8, 72815, Pitch_bend_c, 14, 10368
8, 72821, Pitch_bend_c, 14, 10400
8, 72828, Pitch_bend_c, 14, 10432
8, 72834, Pitch_bend_c, 14, 10464
8, 72840, Pitch_bend_c, 14, 10496
8, 72847, Pitch_bend_c, 14, 10528
8, 72853, Pitch_bend_c, 14, 10560
8, 72860, Pitch_bend_c, 14, 10592
8, 72866, Pitch_bend_c, 14, 10624
8, 72872, Pitch_bend_c, 14, 10656
8, 72879, Pitch_bend_c, 14, 10688
8, 72885, Pitch_bend_c, 14, 10720
8, 72891, Pitch_bend_c, 14, 10752
8, 72898, Pitch_bend_c, 14, 10784
8, 72904, Pitch_bend_c, 14, 10816
8, 72910, Pitch_bend_c, 14, 10848
8, 72917, Pitch_bend_c, 14, 10880
8, 72923, Pitch_bend_c, 14, 10912
8, 72929, Pitch_bend_c, 14, 10944
8, 72936, Pitch_bend_c, 14, 10976
8, 72942, Pitch_bend_c, 14, 11008
8, 72948, Pitch_bend_c, 14, 11040
8, 72955, Pitch_bend_c, 14, 11072
8, 72961, Pitch_bend_c, 14, 11104
8, 72967, Pitch_bend_c, 14, 11136
8, 72974, Pitch_bend_c, 14, 11168
8, 72980, Pitch_bend_c, 14, 11200
8, 72986, Pitch_bend_c, 14, 11232
8, 72993, Pitch_bend_c, 14, 11264
8, 72999, Pitch_bend_c, 14, 11296
8, 73006, Pitch_bend_c, 14, 11328
8, 73012, Pitch_bend_c, 14, 11360
8, 73018, Pitch_bend_c, 14, 11392
8, 73025, Pitch_bend_c, 14, 11424
8, 73031, Pitch_bend_c, 14, 11456
8, 73037, Pitch_bend_c, 14, 11488
8, 73044, Pitch_bend_c, 14, 11520
8, 73050, Pitch_bend_c, 14, 11552
8, 73056, Pitch_bend_c, 14, 11584
8, 73063, Pitch_bend_c, 14, 11616
8, 73069, Pitch_bend_c, 14, 11648
8, 73075, Pitch_bend_c, 14, 11680
8, 73082, Pitch_bend_c, 14, 11712
8, 73088, Pitch_bend_c, 14, 11744
8, 73094, Pitch_bend_c, 14, 11776
8, 73101, Pitch_bend_c, 14, 11808
8, 73104, Note_on_c, 14, 65, 0
8, 73107, Pitch_bend_c, 14, 11840
8, 73113, Pitch_bend_c, 14, 11872
8, 73120, Pitch_bend_c, 14, 11904
8, 73126, Pitch_bend_c, 14, 11936
8, 73132, Pitch_bend_c, 14, 11968
8, 73139, Pitch_bend_c, 14, 12000
8, 73145, Pitch_bend_c, 14, 12032
8, 73152, Pitch_bend_c, 14, 12092
8, 73152, Pitch_bend_c, 14, 8192
8, 73152, Pitch_bend_c, 14, 8192
8, 73152, Note_on_c, 14, 57, 110
8, 73155, Pitch_bend_c, 14, 8224
8, 73158, Pitch_bend_c, 14, 8256
8, 73161, Pitch_bend_c, 14, 8288
8, 73164, Pitch_bend_c, 14, 8192
8, 73164, Pitch_bend_c, 14, 8320
8, 73167, Pitch_bend_c, 14, 8352
8, 73170, Pitch_bend_c, 14, 8384
8, 73173, Pitch_bend_c, 14, 8416
8, 73176, Pitch_bend_c, 14, 8448
8, 73179, Pitch_bend_c, 14, 8480
8, 73182, Pitch_bend_c, 14, 8512
8, 73185, Pitch_bend_c, 14, 8544
8, 73188, Pitch_bend_c, 14, 8576
8, 73191, Pitch_bend_c, 14, 8608
8, 73194, Pitch_bend_c, 14, 8640
8, 73197, Pitch_bend_c, 14, 8672
8, 73200, Pitch_bend_c, 14, 8704
8, 73203, Pitch_bend_c, 14, 8736
8, 73206, Pitch_bend_c, 14, 8768
8, 73209, Pitch_bend_c, 14, 8800
8, 73212, Pitch_bend_c, 14, 8832
8, 73215, Pitch_bend_c, 14, 8864
8, 73218, Pitch_bend_c, 14, 8896
8, 73221, Pitch_bend_c, 14, 8928
8, 73224, Pitch_bend_c, 14, 8960
8, 73227, Pitch_bend_c, 14, 8992
8, 73230, Pitch_bend_c, 14, 9024
8, 73233, Pitch_bend_c, 14, 9056
8, 73236, Pitch_bend_c, 14, 9088
8, 73239, Pitch_bend_c, 14, 9120
8, 73242, Pitch_bend_c, 14, 9152
8, 73245, Pitch_bend_c, 14, 9184
8, 73248, Pitch_bend_c, 14, 9216
8, 73251, Pitch_bend_c, 14, 9248
8, 73254, Pitch_bend_c, 14, 9280
8, 73257, Pitch_bend_c, 14, 9312
8, 73260, Pitch_bend_c, 14, 9344
8, 73263, Pitch_bend_c, 14, 9376
8, 73266, Pitch_bend_c, 14, 9408
8, 73269, Pitch_bend_c, 14, 9440
8, 73272, Pitch_bend_c, 14, 9472
8, 73275, Pitch_bend_c, 14, 9504
8, 73278, Pitch_bend_c, 14, 9536
8, 73281, Pitch_bend_c, 14, 9568
8, 73284, Pitch_bend_c, 14, 9600
8, 73287, Pitch_bend_c, 14, 9632
8, 73290, Pitch_bend_c, 14, 9664
8, 73293, Pitch_bend_c, 14, 9696
8, 73296, Pitch_bend_c, 14, 9728
8, 73299, Pitch_bend_c, 14, 9760
8, 73302, Pitch_bend_c, 14, 9792
8, 73305, Pitch_bend_c, 14, 9824
8, 73308, Pitch_bend_c, 14, 9856
8, 73311, Pitch_bend_c, 14, 9888
8, 73314, Pitch_bend_c, 14, 9920
8, 73317, Pitch_bend_c, 14, 9952
8, 73320, Pitch_bend_c, 14, 9984
8, 73323, Pitch_bend_c, 14, 10016
8, 73326, Pitch_bend_c, 14, 10048
8, 73329, Pitch_bend_c, 14, 10080
8, 73332, Pitch_bend_c, 14, 10112
8, 73335, Pitch_bend_c, 14, 10144
8, 73338, Pitch_bend_c, 14, 10176
8, 73341, Pitch_bend_c, 14, 10208
8, 73344, Pitch_bend_c, 14, 10240
8, 73347, Pitch_bend_c, 14, 10272
8, 73350, Pitch_bend_c, 14, 10304
8, 73353, Pitch_bend_c, 14, 10336
8, 73356, Pitch_bend_c, 14, 10368
8, 73359, Pitch_bend_c, 14, 10400
8, 73362, Pitch_bend_c, 14, 10432
8, 73365, Pitch_bend_c, 14, 10464
8, 73368, Pitch_bend_c, 14, 10496
8, 73371, Pitch_bend_c, 14, 10528
8, 73374, Pitch_bend_c, 14, 10560
8, 73377, Pitch_bend_c, 14, 10592
8, 73380, Pitch_bend_c, 14, 10624
8, 73383, Pitch_bend_c, 14, 10656
8, 73386, Pitch_bend_c, 14, 10688
8, 73389, Pitch_bend_c, 14, 10720
8, 73392, Pitch_bend_c, 14, 10752
8, 73395, Pitch_bend_c, 14, 10784
8, 73398, Pitch_bend_c, 14, 10816
8, 73401, Pitch_bend_c, 14, 10848
8, 73404, Pitch_bend_c, 14, 10880
8, 73408, Pitch_bend_c, 14, 10912
8, 73411, Pitch_bend_c, 14, 10944
8, 73414, Pitch_bend_c, 14, 10976
8, 73417, Pitch_bend_c, 14, 11008
8, 73420, Pitch_bend_c, 14, 11040
8, 73423, Pitch_bend_c, 14, 11072
8, 73426, Pitch_bend_c, 14, 11104
8, 73429, Pitch_bend_c, 14, 11136
8, 73432, Pitch_bend_c, 14, 11168
8, 73435, Pitch_bend_c, 14, 11200
8, 73438, Pitch_bend_c, 14, 11232
8, 73441, Pitch_bend_c, 14, 11264
8, 73444, Pitch_bend_c, 14, 11296
8, 73447, Pitch_bend_c, 14, 11328
8, 73450, Pitch_bend_c, 14, 11360
8, 73453, Pitch_bend_c, 14, 11392
8, 73456, Pitch_bend_c, 14, 11424
8, 73459, Pitch_bend_c, 14, 11456
8, 73462, Pitch_bend_c, 14, 11488
8, 73465, Pitch_bend_c, 14, 11520
8, 73468, Pitch_bend_c, 14, 11552
8, 73471, Pitch_bend_c, 14, 11584
8, 73474, Pitch_bend_c, 14, 11616
8, 73477, Pitch_bend_c, 14, 11648
8, 73480, Pitch_bend_c, 14, 11680
8, 73483, Pitch_bend_c, 14, 11712
8, 73486, Pitch_bend_c, 14, 11744
8, 73489, Pitch_bend_c, 14, 11776
8, 73492, Pitch_bend_c, 14, 11808
8, 73495, Pitch_bend_c, 14, 11840
8, 73498, Pitch_bend_c, 14, 11872
8, 73501, Pitch_bend_c, 14, 11904
8, 73504, Pitch_bend_c, 14, 11936
8, 73507, Pitch_bend_c, 14, 11968
8, 73510, Pitch_bend_c, 14, 12000
8, 73513, Pitch_bend_c, 14, 12032
8, 73516, Pitch_bend_c, 14, 12064
8, 73519, Pitch_bend_c, 14, 12096
8, 73522, Pitch_bend_c, 14, 12128
8, 73525, Pitch_bend_c, 14, 12160
8, 73528, Pitch_bend_c, 14, 12192
8, 73531, Pitch_bend_c, 14, 12224
8, 73534, Pitch_bend_c, 14, 12256
8, 73537, Pitch_bend_c, 14, 12288
8, 73540, Pitch_bend_c, 14, 12320
8, 73543, Pitch_bend_c, 14, 12352
8, 73546, Pitch_bend_c, 14, 12384
8, 73549, Pitch_bend_c, 14, 12416
8, 73552, Pitch_bend_c, 14, 12448
8, 73555, Pitch_bend_c, 14, 12480
8, 73558, Pitch_bend_c, 14, 12512
8, 73561, Pitch_bend_c, 14, 12544
8, 73564, Pitch_bend_c, 14, 12576
8, 73567, Pitch_bend_c, 14, 12608
8, 73570, Pitch_bend_c, 14, 12640
8, 73573, Pitch_bend_c, 14, 12672
8, 73576, Pitch_bend_c, 14, 12704
8, 73579, Pitch_bend_c, 14, 12736
8, 73582, Pitch_bend_c, 14, 12768
8, 73585, Pitch_bend_c, 14, 12800
8, 73588, Pitch_bend_c, 14, 12832
8, 73591, Pitch_bend_c, 14, 12864
8, 73594, Pitch_bend_c, 14, 12896
8, 73597, Pitch_bend_c, 14, 12928
8, 73600, Pitch_bend_c, 14, 12960
8, 73603, Pitch_bend_c, 14, 12992
8, 73606, Pitch_bend_c, 14, 13024
8, 73609, Pitch_bend_c, 14, 13056
8, 73612, Pitch_bend_c, 14, 13088
8, 73615, Pitch_bend_c, 14, 13120
8, 73618, Pitch_bend_c, 14, 13152
8, 73621, Pitch_bend_c, 14, 13184
8, 73624, Pitch_bend_c, 14, 13216
8, 73627, Pitch_bend_c, 14, 13248
8, 73630, Pitch_bend_c, 14, 13280
8, 73633, Pitch_bend_c, 14, 13312
8, 73636, Pitch_bend_c, 14, 13344
8, 73639, Pitch_bend_c, 14, 13376
8, 73642, Pitch_bend_c, 14, 13408
8, 73645, Pitch_bend_c, 14, 13440
8, 73648, Pitch_bend_c, 14, 13472
8, 73651, Pitch_bend_c, 14, 13504
8, 73654, Pitch_bend_c, 14, 13536
8, 73657, Pitch_bend_c, 14, 13568
8, 73660, Pitch_bend_c, 14, 13600
8, 73664, Pitch_bend_c, 14, 13632
8, 73667, Pitch_bend_c, 14, 13664
8, 73670, Pitch_bend_c, 14, 13696
8, 73673, Pitch_bend_c, 14, 13728
8, 73676, Pitch_bend_c, 14, 13760
8, 73679, Pitch_bend_c, 14, 13792
8, 73682, Pitch_bend_c, 14, 13824
8, 73685, Pitch_bend_c, 14, 13856
8, 73688, Pitch_bend_c, 14, 13888
8, 73691, Pitch_bend_c, 14, 13920
8, 73694, Pitch_bend_c, 14, 13952
8, 73697, Pitch_bend_c, 14, 13984
8, 73700, Pitch_bend_c, 14, 14016
8, 73703, Pitch_bend_c, 14, 14048
8, 73706, Pitch_bend_c, 14, 14080
8, 73709, Pitch_bend_c, 14, 14112
8, 73712, Pitch_bend_c, 14, 14144
8, 73715, Pitch_bend_c, 14, 14176
8, 73718, Pitch_bend_c, 14, 14208
8, 73721, Pitch_bend_c, 14, 14240
8, 73724, Pitch_bend_c, 14, 14272
8, 73727, Pitch_bend_c, 14, 14304
8, 73730, Pitch_bend_c, 14, 14336
8, 73733, Pitch_bend_c, 14, 14368
8, 73736, Pitch_bend_c, 14, 14400
8, 73739, Pitch_bend_c, 14, 14432
8, 73742, Pitch_bend_c, 14, 14464
8, 73745, Pitch_bend_c, 14, 14496
8, 73748, Pitch_bend_c, 14, 14528
8, 73751, Pitch_bend_c, 14, 14560
8, 73754, Pitch_bend_c, 14, 14592
8, 73757, Pitch_bend_c, 14, 14624
8, 73760, Pitch_bend_c, 14, 14656
8, 73763, Pitch_bend_c, 14, 14688
8, 73766, Pitch_bend_c, 14, 14720
8, 73769, Pitch_bend_c, 14, 14752
8, 73772, Pitch_bend_c, 14, 14784
8, 73775, Pitch_bend_c, 14, 14816
8, 73778, Pitch_bend_c, 14, 14848
8, 73781, Pitch_bend_c, 14, 14880
8, 73784, Pitch_bend_c, 14, 14912
8, 73787, Pitch_bend_c, 14, 14944
8, 73790, Pitch_bend_c, 14, 14976
8, 73793, Pitch_bend_c, 14, 15008
8, 73796, Pitch_bend_c, 14, 15040
8, 73799, Pitch_bend_c, 14, 15072
8, 73802, Pitch_bend_c, 14, 15104
8, 73805, Pitch_bend_c, 14, 15136
8, 73808, Pitch_bend_c, 14, 15168
8, 73811, Pitch_bend_c, 14, 15200
8, 73814, Pitch_bend_c, 14, 15232
8, 73817, Pitch_bend_c, 14, 15264
8, 73820, Pitch_bend_c, 14, 15296
8, 73823, Pitch_bend_c, 14, 15328
8, 73826, Pitch_bend_c, 14, 15360
8, 73829, Pitch_bend_c, 14, 15392
8, 73832, Pitch_bend_c, 14, 15424
8, 73835, Pitch_bend_c, 14, 15456
8, 73838, Pitch_bend_c, 14, 15488
8, 73841, Pitch_bend_c, 14, 15520
8, 73844, Pitch_bend_c, 14, 15552
8, 73847, Pitch_bend_c, 14, 15584
8, 73850, Pitch_bend_c, 14, 15616
8, 73853, Pitch_bend_c, 14, 15648
8, 73856, Pitch_bend_c, 14, 15680
8, 73859, Pitch_bend_c, 14, 15712
8, 73862, Pitch_bend_c, 14, 15744
8, 73865, Pitch_bend_c, 14, 15776
8, 73868, Pitch_bend_c, 14, 15808
8, 73871, Pitch_bend_c, 14, 15840
8, 73874, Pitch_bend_c, 14, 15872
8, 73877, Pitch_bend_c, 14, 15904
8, 73880, Pitch_bend_c, 14, 15936
8, 73883, Pitch_bend_c, 14, 15968
8, 73886, Pitch_bend_c, 14, 16000
8, 73889, Pitch_bend_c, 14, 16032
8, 73892, Pitch_bend_c, 14, 16064
8, 73895, Pitch_bend_c, 14, 16096
8, 73898, Pitch_bend_c, 14, 16128
8, 73901, Pitch_bend_c, 14, 16160
8, 73904, Pitch_bend_c, 14, 16192
8, 73907, Pitch_bend_c, 14, 16224
8, 73910, Pitch_bend_c, 14, 16256
8, 73913, Pitch_bend_c, 14, 16288
8, 73916, Pitch_bend_c, 14, 16320
8, 73920, Pitch_bend_c, 14, 16383
8, 74640, Note_on_c, 14, 57, 0
8, 74688, Pitch_bend_c, 14, 8192
8, 74688, Note_on_c, 14, 64, 110
8, 74700, Pitch_bend_c, 14, 8192
8, 75024, Note_on_c, 14, 64, 0
8, 75168, Note_on_c, 14, 67, 110
8, 75550, Note_on_c, 14, 67, 0
8, 75552, Note_on_c, 14, 66, 110
8, 75712, Note_on_c, 14, 66, 0
8, 75744, Note_on_c, 14, 64, 110
8, 76222, Note_on_c, 14, 64, 0
8, 76224, Pitch_bend_c, 14, 8192
8, 76224, Note_on_c, 14, 59, 110
8, 76226, Pitch_bend_c, 14, 8224
8, 76229, Pitch_bend_c, 14, 8256
8, 76232, Pitch_bend_c, 14, 8288
8, 76234, Pitch_bend_c, 14, 8320
8, 76237, Pitch_bend_c, 14, 8352
8, 76240, Pitch_bend_c, 14, 8384
8, 76242, Pitch_bend_c, 14, 8416
8, 76245, Pitch_bend_c, 14, 8448
8, 76248, Pitch_bend_c, 14, 8480
8, 76250, Pitch_bend_c, 14, 8512
8, 76253, Pitch_bend_c, 14, 8544
8, 76256, Pitch_bend_c, 14, 8576
8, 76258, Pitch_bend_c, 14, 8608
8, 76261, Pitch_bend_c, 14, 8640
8, 76264, Pitch_bend_c, 14, 8672
8, 76266, Pitch_bend_c, 14, 8704
8, 76269, Pitch_bend_c, 14, 8736
8, 76272, Pitch_bend_c, 14, 8768
8, 76275, Pitch_bend_c, 14, 8800
8, 76277, Pitch_bend_c, 14, 8832
8, 76280, Pitch_bend_c, 14, 8864
8, 76283, Pitch_bend_c, 14, 8896
8, 76285, Pitch_bend_c, 14, 8928
8, 76288, Pitch_bend_c, 14, 8960
8, 76291, Pitch_bend_c, 14, 8992
8, 76293, Pitch_bend_c, 14, 9024
8, 76296, Pitch_bend_c, 14, 9056
8, 76299, Pitch_bend_c, 14, 9088
8, 76301, Pitch_bend_c, 14, 9120
8, 76304, Pitch_bend_c, 14, 9152
8, 76307, Pitch_bend_c, 14, 9184
8, 76309, Pitch_bend_c, 14, 9216
8, 76312, Pitch_bend_c, 14, 9248
8, 76315, Pitch_bend_c, 14, 9280
8, 76317, Pitch_bend_c, 14, 9312
8, 76320, Pitch_bend_c, 14, 9344
8, 76323, Pitch_bend_c, 14, 9376
8, 76326, Pitch_bend_c, 14, 9408
8, 76328, Pitch_bend_c, 14, 9440
8, 76331, Pitch_bend_c, 14, 9472
8, 76334, Pitch_bend_c, 14, 9504
8, 76336, Pitch_bend_c, 14, 9536
8, 76339, Pitch_bend_c, 14, 9568
8, 76342, Pitch_bend_c, 14, 9600
8, 76344, Pitch_bend_c, 14, 9632
8, 76347, Pitch_bend_c, 14, 9664
8, 76350, Pitch_bend_c, 14, 9696
8, 76352, Pitch_bend_c, 14, 9728
8, 76355, Pitch_bend_c, 14, 9760
8, 76358, Pitch_bend_c, 14, 9792
8, 76360, Pitch_bend_c, 14, 9824
8, 76363, Pitch_bend_c, 14, 9856
8, 76366, Pitch_bend_c, 14, 9888
8, 76369, Pitch_bend_c, 14, 9920
8, 76371, Pitch_bend_c, 14, 9952
8, 76374, Pitch_bend_c, 14, 9984
8, 76377, Pitch_bend_c, 14, 10016
8, 76379, Pitch_bend_c, 14, 10048
8, 76382, Pitch_bend_c, 14, 10080
8, 76385, Pitch_bend_c, 14, 10112
8, 76387, Pitch_bend_c, 14, 10144
8, 76390, Pitch_bend_c, 14, 10176
8, 76393, Pitch_bend_c, 14, 10208
8, 76395, Pitch_bend_c, 14, 10240
8, 76398, Pitch_bend_c, 14, 10272
8, 76401, Pitch_bend_c, 14, 10304
8, 76403, Pitch_bend_c, 14, 10336
8, 76406, Pitch_bend_c, 14, 10368
8, 76409, Pitch_bend_c, 14, 10400
8, 76411, Pitch_bend_c, 14, 10432
8, 76414, Pitch_bend_c, 14, 10464
8, 76417, Pitch_bend_c, 14, 10496
8, 76420, Pitch_bend_c, 14, 10528
8, 76422, Pitch_bend_c, 14, 10560
8, 76425, Pitch_bend_c, 14, 10592
8, 76428, Pitch_bend_c, 14, 10624
8, 76430, Pitch_bend_c, 14, 10656
8, 76433, Pitch_bend_c, 14, 10688
8, 76436, Pitch_bend_c, 14, 10720
8, 76438, Pitch_bend_c, 14, 10752
8, 76441, Pitch_bend_c, 14, 10784
8, 76444, Pitch_bend_c, 14, 10816
8, 76446, Pitch_bend_c, 14, 10848
8, 76449, Pitch_bend_c, 14, 10880
8, 76452, Pitch_bend_c, 14, 10912
8, 76454, Pitch_bend_c, 14, 10944
8, 76457, Pitch_bend_c, 14, 10976
8, 76460, Pitch_bend_c, 14, 11008
8, 76462, Pitch_bend_c, 14, 11040
8, 76465, Pitch_bend_c, 14, 11072
8, 76468, Pitch_bend_c, 14, 11104
8, 76471, Pitch_bend_c, 14, 11136
8, 76473, Pitch_bend_c, 14, 11168
8, 76476, Pitch_bend_c, 14, 11200
8, 76479, Pitch_bend_c, 14, 11232
8, 76481, Pitch_bend_c, 14, 11264
8, 76484, Pitch_bend_c, 14, 11296
8, 76487, Pitch_bend_c, 14, 11328
8, 76489, Pitch_bend_c, 14, 11360
8, 76492, Pitch_bend_c, 14, 11392
8, 76495, Pitch_bend_c, 14, 11424
8, 76497, Pitch_bend_c, 14, 11456
8, 76500, Pitch_bend_c, 14, 11488
8, 76503, Pitch_bend_c, 14, 11520
8, 76505, Pitch_bend_c, 14, 11552
8, 76508, Pitch_bend_c, 14, 11584
8, 76511, Pitch_bend_c, 14, 11616
8, 76514, Pitch_bend_c, 14, 11648
8, 76516, Pitch_bend_c, 14, 11680
8, 76519, Pitch_bend_c, 14, 11712
8, 76522, Pitch_bend_c, 14, 11744
8, 76524, Pitch_bend_c, 14, 11776
8, 76527, Pitch_bend_c, 14, 11808
8, 76530, Pitch_bend_c, 14, 11840
8, 76532, Pitch_bend_c, 14, 11872
8, 76535, Pitch_bend_c, 14, 11904
8, 76538, Pitch_bend_c, 14, 11936
8, 76540, Pitch_bend_c, 14, 11968
8, 76543, Pitch_bend_c, 14, 12000
8, 76546, Pitch_bend_c, 14, 12032
8, 76548, Pitch_bend_c, 14, 12064
8, 76551, Pitch_bend_c, 14, 12096
8, 76554, Pitch_bend_c, 14, 12128
8, 76556, Pitch_bend_c, 14, 12160
8, 76559, Pitch_bend_c, 14, 12192
8, 76562, Pitch_bend_c, 14, 12224
8, 76565, Pitch_bend_c, 14, 12256
8, 76567, Pitch_bend_c, 14, 12288
8, 76570, Pitch_bend_c, 14, 12320
8, 76573, Pitch_bend_c, 14, 12352
8, 76575, Pitch_bend_c, 14, 12384
8, 76578, Pitch_bend_c, 14, 12416
8, 76581, Pitch_bend_c, 14, 12448
8, 76583, Pitch_bend_c, 14, 12480
8, 76586, Pitch_bend_c, 14, 12512
8, 76589, Pitch_bend_c, 14, 12544
8, 76591, Pitch_bend_c, 14, 12576
8, 76594, Pitch_bend_c, 14, 12608
8, 76597, Pitch_bend_c, 14, 12640
8, 76599, Pitch_bend_c, 14, 12672
8, 76602, Pitch_bend_c, 14, 12704
8, 76605, Pitch_bend_c, 14, 12736
8, 76608, Pitch_bend_c, 14, 12774
8, 76610, Pitch_bend_c, 14, 12742
8, 76613, Pitch_bend_c, 14, 12710
8, 76616, Pitch_bend_c, 14, 12678
8, 76618, Pitch_bend_c, 14, 12646
8, 76621, Pitch_bend_c, 14, 12614
8, 76624, Pitch_bend_c, 14, 12582
8, 76626, Pitch_bend_c, 14, 12550
8, 76629, Pitch_bend_c, 14, 12518
8, 76632, Pitch_bend_c, 14, 12486
8, 76634, Pitch_bend_c, 14, 12454
8, 76637, Pitch_bend_c, 14, 12422
8, 76640, Pitch_bend_c, 14, 12390
8, 76642, Pitch_bend_c, 14, 12358
8, 76645, Pitch_bend_c, 14, 12326
8, 76648, Pitch_bend_c, 14, 12294
8, 76650, Pitch_bend_c, 14, 12262
8, 76653, Pitch_bend_c, 14, 12230
8, 76656, Pitch_bend_c, 14, 12198
8, 76659, Pitch_bend_c, 14, 12166
8, 76661, Pitch_bend_c, 14, 12134
8, 76664, Pitch_bend_c, 14, 12102
8, 76667, Pitch_bend_c, 14, 12070
8, 76669, Pitch_bend_c, 14, 12038
8, 76672, Pitch_bend_c, 14, 12006
8, 76675, Pitch_bend_c, 14, 11974
8, 76677, Pitch_bend_c, 14, 11942
8, 76680, Pitch_bend_c, 14, 11910
8, 76683, Pitch_bend_c, 14, 11878
8, 76685, Pitch_bend_c, 14, 11846
8, 76688, Pitch_bend_c, 14, 11814
8, 76691, Pitch_bend_c, 14, 11782
8, 76693, Pitch_bend_c, 14, 11750
8, 76696, Pitch_bend_c, 14, 11718
8, 76699, Pitch_bend_c, 14, 11686
8, 76701, Pitch_bend_c, 14, 11654
8, 76704, Pitch_bend_c, 14, 11622
8, 76707, Pitch_bend_c, 14, 11590
8, 76710, Pitch_bend_c, 14, 11558
8, 76712, Pitch_bend_c, 14, 11526
8, 76715, Pitch_bend_c, 14, 11494
8, 76718, Pitch_bend_c, 14, 11462
8, 76720, Pitch_bend_c, 14, 11430
8, 76723, Pitch_bend_c, 14, 11398
8, 76726, Pitch_bend_c, 14, 11366
8, 76728, Pitch_bend_c, 14, 11334
8, 76731, Pitch_bend_c, 14, 11302
8, 76734, Pitch_bend_c, 14, 11270
8, 76736, Pitch_bend_c, 14, 11238
8, 76739, Pitch_bend_c, 14, 11206
8, 76742, Pitch_bend_c, 14, 11174
8, 76744, Pitch_bend_c, 14, 11142
8, 76747, Pitch_bend_c, 14, 11110
8, 76750, Pitch_bend_c, 14, 11078
8, 76753, Pitch_bend_c, 14, 11046
8, 76755, Pitch_bend_c, 14, 11014
8, 76758, Pitch_bend_c, 14, 10982
8, 76761, Pitch_bend_c, 14, 10950
8, 76763, Pitch_bend_c, 14, 10918
8, 76766, Pitch_bend_c, 14, 10886
8, 76769, Pitch_bend_c, 14, 10854
8, 76771, Pitch_bend_c, 14, 10822
8, 76774, Pitch_bend_c, 14, 10790
8, 76777, Pitch_bend_c, 14, 10758
8, 76779, Pitch_bend_c, 14, 10726
8, 76782, Pitch_bend_c, 14, 10694
8, 76785, Pitch_bend_c, 14, 10662
8, 76787, Pitch_bend_c, 14, 10630
8, 76790, Pitch_bend_c, 14, 10598
8, 76793, Pitch_bend_c, 14, 10566
8, 76795, Pitch_bend_c, 14, 10534
8, 76798, Pitch_bend_c, 14, 10502
8, 76801, Pitch_bend_c, 14, 10470
8, 76804, Pitch_bend_c, 14, 10438
8, 76806, Pitch_bend_c, 14, 10406
8, 76809, Pitch_bend_c, 14, 10374
8, 76812, Pitch_bend_c, 14, 10342
8, 76814, Pitch_bend_c, 14, 10310
8, 76817, Pitch_bend_c, 14, 10278
8, 76820, Pitch_bend_c, 14, 10246
8, 76822, Pitch_bend_c, 14, 10214
8, 76825, Pitch_bend_c, 14, 10182
8, 76828, Pitch_bend_c, 14, 10150
8, 76830, Pitch_bend_c, 14, 10118
8, 76833, Pitch_bend_c, 14, 10086
8, 76836, Pitch_bend_c, 14, 10054
8, 76838, Pitch_bend_c, 14, 10022
8, 76841, Pitch_bend_c, 14, 9990
8, 76844, Pitch_bend_c, 14, 9958
8, 76846, Pitch_bend_c, 14, 9926
8, 76849, Pitch_bend_c, 14, 9894
8, 76852, Pitch_bend_c, 14, 9862
8, 76855, Pitch_bend_c, 14, 9830
8, 76857, Pitch_bend_c, 14, 9798
8, 76860, Pitch_bend_c, 14, 9766
8, 76863, Pitch_bend_c, 14, 9734
8, 76865, Pitch_bend_c, 14, 9702
8, 76868, Pitch_bend_c, 14, 9670
8, 76871, Pitch_bend_c, 14, 9638
8, 76873, Pitch_bend_c, 14, 9606
8, 76876, Pitch_bend_c, 14, 9574
8, 76879, Pitch_bend_c, 14, 9542
8, 76881, Pitch_bend_c, 14, 9510
8, 76884, Pitch_bend_c, 14, 9478
8, 76887, Pitch_bend_c, 14, 9446
8, 76889, Pitch_bend_c, 14, 9414
8, 76892, Pitch_bend_c, 14, 9382
8, 76895, Pitch_bend_c, 14, 9350
8, 76898, Pitch_bend_c, 14, 9318
8, 76900, Pitch_bend_c, 14, 9286
8, 76903, Pitch_bend_c, 14, 9254
8, 76906, Pitch_bend_c, 14, 9222
8, 76908, Pitch_bend_c, 14, 9190
8, 76911, Pitch_bend_c, 14, 9158
8, 76914, Pitch_bend_c, 14, 9126
8, 76916, Pitch_bend_c, 14, 9094
8, 76919, Pitch_bend_c, 14, 9062
8, 76922, Pitch_bend_c, 14, 9030
8, 76924, Pitch_bend_c, 14, 8998
8, 76927, Pitch_bend_c, 14, 8966
8, 76930, Pitch_bend_c, 14, 8934
8, 76932, Pitch_bend_c, 14, 8902
8, 76935, Pitch_bend_c, 14, 8870
8, 76938, Pitch_bend_c, 14, 8838
8, 76940, Pitch_bend_c, 14, 8806
8, 76943, Pitch_bend_c, 14, 8774
8, 76944, Note_on_c, 14, 59, 0
8, 76946, Pitch_bend_c, 14, 8742
8, 76949, Pitch_bend_c, 14, 8710
8, 76951, Pitch_bend_c, 14, 8678
8, 76954, Pitch_bend_c, 14, 8646
8, 76957, Pitch_bend_c, 14, 8614
8, 76959, Pitch_bend_c, 14, 8582
8, 76962, Pitch_bend_c, 14, 8550
8, 76965, Pitch_bend_c, 14, 8518
8, 76967, Pitch_bend_c, 14, 8486
8, 76970, Pitch_bend_c, 14, 8454
8, 76973, Pitch_bend_c, 14, 8422
8, 76975, Pitch_bend_c, 14, 8390
8, 76978, Pitch_bend_c, 14, 8358
8, 76981, Pitch_bend_c, 14, 8326
8, 76983, Pitch_bend_c, 14, 8294
8, 76986, Pitch_bend_c, 14, 8262
8, 76989, Pitch_bend_c, 14, 8230
8, 76992, Pitch_bend_c, 14, 8192
8, 76992, Pitch_bend_c, 14, 8192
8, 76992, Note_on_c, 14, 59, 110
8, 76995, Pitch_bend_c, 14, 8224
8, 76998, Pitch_bend_c, 14, 8256
8, 77001, Pitch_bend_c, 14, 8288
8, 77004, Pitch_bend_c, 14, 8320
8, 77007, Pitch_bend_c, 14, 8352
8, 77010, Pitch_bend_c, 14, 8384
8, 77013, Pitch_bend_c, 14, 8416
8, 77016, Pitch_bend_c, 14, 8448
8, 77019, Pitch_bend_c, 14, 8480
8, 77022, Pitch_bend_c, 14, 8512
8, 77025, Pitch_bend_c, 14, 8544
8, 77028, Pitch_bend_c, 14, 8576
8, 77031, Pitch_bend_c, 14, 8608
8, 77034, Pitch_bend_c, 14, 8640
8, 77037, Pitch_bend_c, 14, 8672
8, 77040, Pitch_bend_c, 14, 8704
8, 77043, Pitch_bend_c, 14, 8736
8, 77046, Pitch_bend_c, 14, 8768
8, 77049, Pitch_bend_c, 14, 8800
8, 77052, Pitch_bend_c, 14, 8832
8, 77055, Pitch_bend_c, 14, 8864
8, 77058, Pitch_bend_c, 14, 8896
8, 77061, Pitch_bend_c, 14, 8928
8, 77064, Pitch_bend_c, 14, 8960
8, 77067, Pitch_bend_c, 14, 8992
8, 77070, Pitch_bend_c, 14, 9024
8, 77073, Pitch_bend_c, 14, 9056
8, 77076, Pitch_bend_c, 14, 9088
8, 77079, Pitch_bend_c, 14, 9120
8, 77082, Pitch_bend_c, 14, 9152
8, 77085, Pitch_bend_c, 14, 9184
8, 77088, Pitch_bend_c, 14, 9216
8, 77091, Pitch_bend_c, 14, 9248
8, 77094, Pitch_bend_c, 14, 9280
8, 77097, Pitch_bend_c, 14, 9312
8, 77100, Pitch_bend_c, 14, 9344
8, 77103, Pitch_bend_c, 14, 9376
8, 77106, Pitch_bend_c, 14, 9408
8, 77109, Pitch_bend_c, 14, 9440
8, 77112, Pitch_bend_c, 14, 9472
8, 77115, Pitch_bend_c, 14, 9504
8, 77118, Pitch_bend_c, 14, 9536
8, 77122, Pitch_bend_c, 14, 9568
8, 77125, Pitch_bend_c, 14, 9600
8, 77128, Pitch_bend_c, 14, 9632
8, 77131, Pitch_bend_c, 14, 9664
8, 77134, Pitch_bend_c, 14, 9696
8, 77137, Pitch_bend_c, 14, 9728
8, 77140, Pitch_bend_c, 14, 9760
8, 77143, Pitch_bend_c, 14, 9792
8, 77146, Pitch_bend_c, 14, 9824
8, 77149, Pitch_bend_c, 14, 9856
8, 77152, Pitch_bend_c, 14, 9888
8, 77155, Pitch_bend_c, 14, 9920
8, 77158, Pitch_bend_c, 14, 9952
8, 77161, Pitch_bend_c, 14, 9984
8, 77164, Pitch_bend_c, 14, 10016
8, 77167, Pitch_bend_c, 14, 10048
8, 77170, Pitch_bend_c, 14, 10080
8, 77173, Pitch_bend_c, 14, 10112
8, 77176, Pitch_bend_c, 14, 10144
8, 77179, Pitch_bend_c, 14, 10176
8, 77182, Pitch_bend_c, 14, 10208
8, 77185, Pitch_bend_c, 14, 10240
8, 77188, Pitch_bend_c, 14, 10272
8, 77191, Pitch_bend_c, 14, 10304
8, 77194, Pitch_bend_c, 14, 10336
8, 77197, Pitch_bend_c, 14, 10368
8, 77200, Pitch_bend_c, 14, 10400
8, 77203, Pitch_bend_c, 14, 10432
8, 77206, Pitch_bend_c, 14, 10464
8, 77209, Pitch_bend_c, 14, 10496
8, 77212, Pitch_bend_c, 14, 10528
8, 77215, Pitch_bend_c, 14, 10560
8, 77218, Pitch_bend_c, 14, 10592
8, 77221, Pitch_bend_c, 14, 10624
8, 77224, Pitch_bend_c, 14, 10656
8, 77227, Pitch_bend_c, 14, 10688
8, 77230, Pitch_bend_c, 14, 10720
8, 77233, Pitch_bend_c, 14, 10752
8, 77236, Pitch_bend_c, 14, 10784
8, 77239, Pitch_bend_c, 14, 10816
8, 77242, Pitch_bend_c, 14, 10848
8, 77245, Pitch_bend_c, 14, 10880
8, 77249, Pitch_bend_c, 14, 10912
8, 77252, Pitch_bend_c, 14, 10944
8, 77255, Pitch_bend_c, 14, 10976
8, 77258, Pitch_bend_c, 14, 11008
8, 77261, Pitch_bend_c, 14, 11040
8, 77264, Pitch_bend_c, 14, 11072
8, 77267, Pitch_bend_c, 14, 11104
8, 77270, Pitch_bend_c, 14, 11136
8, 77273, Pitch_bend_c, 14, 11168
8, 77276, Pitch_bend_c, 14, 11200
8, 77279, Pitch_bend_c, 14, 11232
8, 77282, Pitch_bend_c, 14, 11264
8, 77285, Pitch_bend_c, 14, 11296
8, 77288, Pitch_bend_c, 14, 11328
8, 77291, Pitch_bend_c, 14, 11360
8, 77294, Pitch_bend_c, 14, 11392
8, 77297, Pitch_bend_c, 14, 11424
8, 77300, Pitch_bend_c, 14, 11456
8, 77303, Pitch_bend_c, 14, 11488
8, 77306, Pitch_bend_c, 14, 11520
8, 77309, Pitch_bend_c, 14, 11552
8, 77312, Pitch_bend_c, 14, 11584
8, 77315, Pitch_bend_c, 14, 11616
8, 77318, Pitch_bend_c, 14, 11648
8, 77321, Pitch_bend_c, 14, 11680
8, 77324, Pitch_bend_c, 14, 11712
8, 77327, Pitch_bend_c, 14, 11744
8, 77330, Pitch_bend_c, 14, 11776
8, 77333, Pitch_bend_c, 14, 11808
8, 77336, Pitch_bend_c, 14, 11840
8, 77339, Pitch_bend_c, 14, 11872
8, 77342, Pitch_bend_c, 14, 11904
8, 77345, Pitch_bend_c, 14, 11936
8, 77348, Pitch_bend_c, 14, 11968
8, 77351, Pitch_bend_c, 14, 12000
8, 77354, Pitch_bend_c, 14, 12032
8, 77357, Pitch_bend_c, 14, 12064
8, 77360, Pitch_bend_c, 14, 12096
8, 77363, Pitch_bend_c, 14, 12128
8, 77366, Pitch_bend_c, 14, 12160
8, 77369, Pitch_bend_c, 14, 12192
8, 77372, Pitch_bend_c, 14, 12224
8, 77376, Pitch_bend_c, 14, 12287
8, 77712, Note_on_c, 14, 59, 0
8, 77760, Pitch_bend_c, 14, 12287
8, 77760, Pitch_bend_c, 14, 8192
8, 77760, Note_on_c, 14, 62, 110
8, 77763, Pitch_bend_c, 14, 8224
8, 77766, Pitch_bend_c, 14, 8256
8, 77769, Pitch_bend_c, 14, 8288
8, 77772, Pitch_bend_c, 14, 8320
8, 77775, Pitch_bend_c, 14, 8352
8, 77778, Pitch_bend_c, 14, 8384
8, 77781, Pitch_bend_c, 14, 8416
8, 77784, Pitch_bend_c, 14, 8448
8, 77787, Pitch_bend_c, 14, 8480
8, 77790, Pitch_bend_c, 14, 8512
8, 77793, Pitch_bend_c, 14, 8544
8, 77796, Pitch_bend_c, 14, 8576
8, 77799, Pitch_bend_c, 14, 8608
8, 77802, Pitch_bend_c, 14, 8640
8, 77805, Pitch_bend_c, 14, 8672
8, 77808, Pitch_bend_c, 14, 8704
8, 77811, Pitch_bend_c, 14, 8736
8, 77814, Pitch_bend_c, 14, 8768
8, 77817, Pitch_bend_c, 14, 8800
8, 77820, Pitch_bend_c, 14, 8832
8, 77823, Pitch_bend_c, 14, 8864
8, 77826, Pitch_bend_c, 14, 8896
8, 77829, Pitch_bend_c, 14, 8928
8, 77832, Pitch_bend_c, 14, 8960
8, 77835, Pitch_bend_c, 14, 8992
8, 77838, Pitch_bend_c, 14, 9024
8, 77841, Pitch_bend_c, 14, 9056
8, 77844, Pitch_bend_c, 14, 9088
8, 77847, Pitch_bend_c, 14, 9120
8, 77850, Pitch_bend_c, 14, 9152
8, 77853, Pitch_bend_c, 14, 9184
8, 77856, Pitch_bend_c, 14, 9216
8, 77859, Pitch_bend_c, 14, 9248
8, 77862, Pitch_bend_c, 14, 9280
8, 77865, Pitch_bend_c, 14, 9312
8, 77868, Pitch_bend_c, 14, 9344
8, 77871, Pitch_bend_c, 14, 9376
8, 77874, Pitch_bend_c, 14, 9408
8, 77877, Pitch_bend_c, 14, 9440
8, 77880, Pitch_bend_c, 14, 9472
8, 77883, Pitch_bend_c, 14, 9504
8, 77886, Pitch_bend_c, 14, 9536
8, 77889, Pitch_bend_c, 14, 9568
8, 77892, Pitch_bend_c, 14, 9600
8, 77895, Pitch_bend_c, 14, 9632
8, 77898, Pitch_bend_c, 14, 9664
8, 77901, Pitch_bend_c, 14, 9696
8, 77904, Pitch_bend_c, 14, 9728
8, 77907, Pitch_bend_c, 14, 9760
8, 77910, Pitch_bend_c, 14, 9792
8, 77913, Pitch_bend_c, 14, 9824
8, 77916, Pitch_bend_c, 14, 9856
8, 77919, Pitch_bend_c, 14, 9888
8, 77922, Pitch_bend_c, 14, 9920
8, 77925, Pitch_bend_c, 14, 9952
8, 77928, Pitch_bend_c, 14, 9984
8, 77931, Pitch_bend_c, 14, 10016
8, 77934, Pitch_bend_c, 14, 10048
8, 77937, Pitch_bend_c, 14, 10080
8, 77940, Pitch_bend_c, 14, 10112
8, 77943, Pitch_bend_c, 14, 10144
8, 77946, Pitch_bend_c, 14, 10176
8, 77949, Pitch_bend_c, 14, 10208
8, 77952, Pitch_bend_c, 14, 10240
8, 77955, Pitch_bend_c, 14, 10272
8, 77958, Pitch_bend_c, 14, 10304
8, 77961, Pitch_bend_c, 14, 10336
8, 77964, Pitch_bend_c, 14, 10368
8, 77967, Pitch_bend_c, 14, 10400
8, 77970, Pitch_bend_c, 14, 10432
8, 77973, Pitch_bend_c, 14, 10464
8, 77976, Pitch_bend_c, 14, 10496
8, 77979, Pitch_bend_c, 14, 10528
8, 77982, Pitch_bend_c, 14, 10560
8, 77985, Pitch_bend_c, 14, 10592
8, 77988, Pitch_bend_c, 14, 10624
8, 77991, Pitch_bend_c, 14, 10656
8, 77994, Pitch_bend_c, 14, 10688
8, 77997, Pitch_bend_c, 14, 10720
8, 78000, Pitch_bend_c, 14, 10752
8, 78003, Pitch_bend_c, 14, 10784
8, 78006, Pitch_bend_c, 14, 10816
8, 78009, Pitch_bend_c, 14, 10848
8, 78012, Pitch_bend_c, 14, 10880
8, 78016, Pitch_bend_c, 14, 10912
8, 78019, Pitch_bend_c, 14, 10944
8, 78022, Pitch_bend_c, 14, 10976
8, 78025, Pitch_bend_c, 14, 11008
8, 78028, Pitch_bend_c, 14, 11040
8, 78031, Pitch_bend_c, 14, 11072
8, 78034, Pitch_bend_c, 14, 11104
8, 78037, Pitch_bend_c, 14, 11136
8, 78040, Pitch_bend_c, 14, 11168
8, 78043, Pitch_bend_c, 14, 11200
8, 78046, Pitch_bend_c, 14, 11232
8, 78049, Pitch_bend_c, 14, 11264
8, 78052, Pitch_bend_c, 14, 11296
8, 78055, Pitch_bend_c, 14, 11328
8, 78058, Pitch_bend_c, 14, 11360
8, 78061, Pitch_bend_c, 14, 11392
8, 78064, Pitch_bend_c, 14, 11424
8, 78067, Pitch_bend_c, 14, 11456
8, 78070, Pitch_bend_c, 14, 11488
8, 78073, Pitch_bend_c, 14, 11520
8, 78076, Pitch_bend_c, 14, 11552
8, 78079, Pitch_bend_c, 14, 11584
8, 78082, Pitch_bend_c, 14, 11616
8, 78085, Pitch_bend_c, 14, 11648
8, 78088, Pitch_bend_c, 14, 11680
8, 78091, Pitch_bend_c, 14, 11712
8, 78094, Pitch_bend_c, 14, 11744
8, 78097, Pitch_bend_c, 14, 11776
8, 78100, Pitch_bend_c, 14, 11808
8, 78103, Pitch_bend_c, 14, 11840
8, 78106, Pitch_bend_c, 14, 11872
8, 78109, Pitch_bend_c, 14, 11904
8, 78112, Pitch_bend_c, 14, 11936
8, 78115, Pitch_bend_c, 14, 11968
8, 78118, Pitch_bend_c, 14, 12000
8, 78121, Pitch_bend_c, 14, 12032
8, 78124, Pitch_bend_c, 14, 12064
8, 78127, Pitch_bend_c, 14, 12096
8, 78130, Pitch_bend_c, 14, 12128
8, 78133, Pitch_bend_c, 14, 12160
8, 78136, Pitch_bend_c, 14, 12192
8, 78139, Pitch_bend_c, 14, 12224
8, 78142, Pitch_bend_c, 14, 12256
8, 78145, Pitch_bend_c, 14, 12288
8, 78148, Pitch_bend_c, 14, 12320
8, 78151, Pitch_bend_c, 14, 12352
8, 78154, Pitch_bend_c, 14, 12384
8, 78157, Pitch_bend_c, 14, 12416
8, 78160, Pitch_bend_c, 14, 12448
8, 78163, Pitch_bend_c, 14, 12480
8, 78166, Pitch_bend_c, 14, 12512
8, 78169, Pitch_bend_c, 14, 12544
8, 78172, Pitch_bend_c, 14, 12576
8, 78175, Pitch_bend_c, 14, 12608
8, 78178, Pitch_bend_c, 14, 12640
8, 78181, Pitch_bend_c, 14, 12672
8, 78184, Pitch_bend_c, 14, 12704
8, 78187, Pitch_bend_c, 14, 12736
8, 78190, Pitch_bend_c, 14, 12768
8, 78193, Pitch_bend_c, 14, 12800
8, 78196, Pitch_bend_c, 14, 12832
8, 78199, Pitch_bend_c, 14, 12864
8, 78202, Pitch_bend_c, 14, 12896
8, 78205, Pitch_bend_c, 14, 12928
8, 78208, Pitch_bend_c, 14, 12960
8, 78211, Pitch_bend_c, 14, 12992
8, 78214, Pitch_bend_c, 14, 13024
8, 78217, Pitch_bend_c, 14, 13056
8, 78220, Pitch_bend_c, 14, 13088
8, 78223, Pitch_bend_c, 14, 13120
8, 78226, Pitch_bend_c, 14, 13152
8, 78229, Pitch_bend_c, 14, 13184
8, 78232, Pitch_bend_c, 14, 13216
8, 78235, Pitch_bend_c, 14, 13248
8, 78238, Pitch_bend_c, 14, 13280
8, 78241, Pitch_bend_c, 14, 13312
8, 78244, Pitch_bend_c, 14, 13344
8, 78247, Pitch_bend_c, 14, 13376
8, 78250, Pitch_bend_c, 14, 13408
8, 78253, Pitch_bend_c, 14, 13440
8, 78256, Pitch_bend_c, 14, 13472
8, 78259, Pitch_bend_c, 14, 13504
8, 78262, Pitch_bend_c, 14, 13536
8, 78265, Pitch_bend_c, 14, 13568
8, 78268, Pitch_bend_c, 14, 13600
8, 78272, Pitch_bend_c, 14, 13632
8, 78275, Pitch_bend_c, 14, 13664
8, 78278, Pitch_bend_c, 14, 13696
8, 78281, Pitch_bend_c, 14, 13728
8, 78284, Pitch_bend_c, 14, 13760
8, 78287, Pitch_bend_c, 14, 13792
8, 78290, Pitch_bend_c, 14, 13824
8, 78293, Pitch_bend_c, 14, 13856
8, 78296, Pitch_bend_c, 14, 13888
8, 78299, Pitch_bend_c, 14, 13920
8, 78302, Pitch_bend_c, 14, 13952
8, 78305, Pitch_bend_c, 14, 13984
8, 78308, Pitch_bend_c, 14, 14016
8, 78311, Pitch_bend_c, 14, 14048
8, 78314, Pitch_bend_c, 14, 14080
8, 78317, Pitch_bend_c, 14, 14112
8, 78320, Pitch_bend_c, 14, 14144
8, 78323, Pitch_bend_c, 14, 14176
8, 78326, Pitch_bend_c, 14, 14208
8, 78329, Pitch_bend_c, 14, 14240
8, 78332, Pitch_bend_c, 14, 14272
8, 78335, Pitch_bend_c, 14, 14304
8, 78338, Pitch_bend_c, 14, 14336
8, 78341, Pitch_bend_c, 14, 14368
8, 78344, Pitch_bend_c, 14, 14400
8, 78347, Pitch_bend_c, 14, 14432
8, 78350, Pitch_bend_c, 14, 14464
8, 78353, Pitch_bend_c, 14, 14496
8, 78356, Pitch_bend_c, 14, 14528
8, 78359, Pitch_bend_c, 14, 14560
8, 78362, Pitch_bend_c, 14, 14592
8, 78365, Pitch_bend_c, 14, 14624
8, 78368, Pitch_bend_c, 14, 14656
8, 78371, Pitch_bend_c, 14, 14688
8, 78374, Pitch_bend_c, 14, 14720
8, 78377, Pitch_bend_c, 14, 14752
8, 78380, Pitch_bend_c, 14, 14784
8, 78383, Pitch_bend_c, 14, 14816
8, 78386, Pitch_bend_c, 14, 14848
8, 78389, Pitch_bend_c, 14, 14880
8, 78392, Pitch_bend_c, 14, 14912
8, 78395, Pitch_bend_c, 14, 14944
8, 78398, Pitch_bend_c, 14, 14976
8, 78401, Pitch_bend_c, 14, 15008
8, 78404, Pitch_bend_c, 14, 15040
8, 78407, Pitch_bend_c, 14, 15072
8, 78410, Pitch_bend_c, 14, 15104
8, 78413, Pitch_bend_c, 14, 15136
8, 78416, Pitch_bend_c, 14, 15168
8, 78419, Pitch_bend_c, 14, 15200
8, 78422, Pitch_bend_c, 14, 15232
8, 78425, Pitch_bend_c, 14, 15264
8, 78428, Pitch_bend_c, 14, 15296
8, 78431, Pitch_bend_c, 14, 15328
8, 78434, Pitch_bend_c, 14, 15360
8, 78437, Pitch_bend_c, 14, 15392
8, 78440, Pitch_bend_c, 14, 15424
8, 78443, Pitch_bend_c, 14, 15456
8, 78446, Pitch_bend_c, 14, 15488
8, 78449, Pitch_bend_c, 14, 15520
8, 78452, Pitch_bend_c, 14, 15552
8, 78455, Pitch_bend_c, 14, 15584
8, 78458, Pitch_bend_c, 14, 15616
8, 78461, Pitch_bend_c, 14, 15648
8, 78464, Pitch_bend_c, 14, 15680
8, 78467, Pitch_bend_c, 14, 15712
8, 78470, Pitch_bend_c, 14, 15744
8, 78473, Pitch_bend_c, 14, 15776
8, 78476, Pitch_bend_c, 14, 15808
8, 78479, Pitch_bend_c, 14, 15840
8, 78480, Note_on_c, 14, 62, 0
8, 78482, Pitch_bend_c, 14, 15872
8, 78485, Pitch_bend_c, 14, 15904
8, 78488, Pitch_bend_c, 14, 15936
8, 78491, Pitch_bend_c, 14, 15968
8, 78494, Pitch_bend_c, 14, 16000
8, 78497, Pitch_bend_c, 14, 16032
8, 78500, Pitch_bend_c, 14, 16064
8, 78503, Pitch_bend_c, 14, 16096
8, 78506, Pitch_bend_c, 14, 16128
8, 78509, Pitch_bend_c, 14, 16160
8, 78512, Pitch_bend_c, 14, 16192
8, 78515, Pitch_bend_c, 14, 16224
8, 78518, Pitch_bend_c, 14, 16256
8, 78521, Pitch_bend_c, 14, 16288
8, 78524, Pitch_bend_c, 14, 16320
8, 78528, Pitch_bend_c, 14, 16383
8, 78528, Pitch_bend_c, 14, 8192
8, 78528, Note_on_c, 14, 64, 110
8, 78531, Pitch_bend_c, 14, 8224
8, 78534, Pitch_bend_c, 14, 8256
8, 78537, Pitch_bend_c, 14, 8288
8, 78540, Pitch_bend_c, 14, 8320
8, 78543, Pitch_bend_c, 14, 8352
8, 78546, Pitch_bend_c, 14, 8384
8, 78549, Pitch_bend_c, 14, 8416
8, 78552, Pitch_bend_c, 14, 8448
8, 78555, Pitch_bend_c, 14, 8480
8, 78558, Pitch_bend_c, 14, 8512
8, 78561, Pitch_bend_c, 14, 8544
8, 78564, Pitch_bend_c, 14, 8576
8, 78567, Pitch_bend_c, 14, 8608
8, 78570, Pitch_bend_c, 14, 8640
8, 78573, Pitch_bend_c, 14, 8672
8, 78576, Pitch_bend_c, 14, 8704
8, 78579, Pitch_bend_c, 14, 8736
8, 78582, Pitch_bend_c, 14, 8768
8, 78585, Pitch_bend_c, 14, 8800
8, 78588, Pitch_bend_c, 14, 8832
8, 78591, Pitch_bend_c, 14, 8864
8, 78594, Pitch_bend_c, 14, 8896
8, 78597, Pitch_bend_c, 14, 8928
8, 78600, Pitch_bend_c, 14, 8960
8, 78603, Pitch_bend_c, 14, 8992
8, 78606, Pitch_bend_c, 14, 9024
8, 78609, Pitch_bend_c, 14, 9056
8, 78612, Pitch_bend_c, 14, 9088
8, 78615, Pitch_bend_c, 14, 9120
8, 78618, Pitch_bend_c, 14, 9152
8, 78621, Pitch_bend_c, 14, 9184
8, 78624, Pitch_bend_c, 14, 9216
8, 78627, Pitch_bend_c, 14, 9248
8, 78630, Pitch_bend_c, 14, 9280
8, 78633, Pitch_bend_c, 14, 9312
8, 78636, Pitch_bend_c, 14, 9344
8, 78639, Pitch_bend_c, 14, 9376
8, 78642, Pitch_bend_c, 14, 9408
8, 78645, Pitch_bend_c, 14, 9440
8, 78648, Pitch_bend_c, 14, 9472
8, 78651, Pitch_bend_c, 14, 9504
8, 78654, Pitch_bend_c, 14, 9536
8, 78657, Pitch_bend_c, 14, 9568
8, 78660, Pitch_bend_c, 14, 9600
8, 78663, Pitch_bend_c, 14, 9632
8, 78666, Pitch_bend_c, 14, 9664
8, 78669, Pitch_bend_c, 14, 9696
8, 78672, Pitch_bend_c, 14, 9728
8, 78675, Pitch_bend_c, 14, 9760
8, 78678, Pitch_bend_c, 14, 9792
8, 78681, Pitch_bend_c, 14, 9824
8, 78684, Pitch_bend_c, 14, 9856
8, 78687, Pitch_bend_c, 14, 9888
8, 78690, Pitch_bend_c, 14, 9920
8, 78693, Pitch_bend_c, 14, 9952
8, 78696, Pitch_bend_c, 14, 9984
8, 78699, Pitch_bend_c, 14, 10016
8, 78702, Pitch_bend_c, 14, 10048
8, 78705, Pitch_bend_c, 14, 10080
8, 78708, Pitch_bend_c, 14, 10112
8, 78711, Pitch_bend_c, 14, 10144
8, 78714, Pitch_bend_c, 14, 10176
8, 78717, Pitch_bend_c, 14, 10208
8, 78720, Pitch_bend_c, 14, 10240
8, 78723, Pitch_bend_c, 14, 10272
8, 78726, Pitch_bend_c, 14, 10304
8, 78729, Pitch_bend_c, 14, 10336
8, 78732, Pitch_bend_c, 14, 10368
8, 78735, Pitch_bend_c, 14, 10400
8, 78738, Pitch_bend_c, 14, 10432
8, 78741, Pitch_bend_c, 14, 10464
8, 78744, Pitch_bend_c, 14, 10496
8, 78747, Pitch_bend_c, 14, 10528
8, 78750, Pitch_bend_c, 14, 10560
8, 78753, Pitch_bend_c, 14, 10592
8, 78756, Pitch_bend_c, 14, 10624
8, 78759, Pitch_bend_c, 14, 10656
8, 78762, Pitch_bend_c, 14, 10688
8, 78765, Pitch_bend_c, 14, 10720
8, 78768, Pitch_bend_c, 14, 10752
8, 78771, Pitch_bend_c, 14, 10784
8, 78774, Pitch_bend_c, 14, 10816
8, 78777, Pitch_bend_c, 14, 10848
8, 78780, Pitch_bend_c, 14, 10880
8, 78784, Pitch_bend_c, 14, 10912
8, 78787, Pitch_bend_c, 14, 10944
8, 78790, Pitch_bend_c, 14, 10976
8, 78793, Pitch_bend_c, 14, 11008
8, 78796, Pitch_bend_c, 14, 11040
8, 78799, Pitch_bend_c, 14, 11072
8, 78802, Pitch_bend_c, 14, 11104
8, 78805, Pitch_bend_c, 14, 11136
8, 78808, Pitch_bend_c, 14, 11168
8, 78811, Pitch_bend_c, 14, 11200
8, 78814, Pitch_bend_c, 14, 11232
8, 78817, Pitch_bend_c, 14, 11264
8, 78820, Pitch_bend_c, 14, 11296
8, 78823, Pitch_bend_c, 14, 11328
8, 78826, Pitch_bend_c, 14, 11360
8, 78829, Pitch_bend_c, 14, 11392
8, 78832, Pitch_bend_c, 14, 11424
8, 78835, Pitch_bend_c, 14, 11456
8, 78838, Pitch_bend_c, 14, 11488
8, 78841, Pitch_bend_c, 14, 11520
8, 78844, Pitch_bend_c, 14, 11552
8, 78847, Pitch_bend_c, 14, 11584
8, 78850, Pitch_bend_c, 14, 11616
8, 78853, Pitch_bend_c, 14, 11648
8, 78856, Pitch_bend_c, 14, 11680
8, 78859, Pitch_bend_c, 14, 11712
8, 78862, Pitch_bend_c, 14, 11744
8, 78865, Pitch_bend_c, 14, 11776
8, 78868, Pitch_bend_c, 14, 11808
8, 78871, Pitch_bend_c, 14, 11840
8, 78874, Pitch_bend_c, 14, 11872
8, 78877, Pitch_bend_c, 14, 11904
8, 78880, Pitch_bend_c, 14, 11936
8, 78883, Pitch_bend_c, 14, 11968
8, 78886, Pitch_bend_c, 14, 12000
8, 78889, Pitch_bend_c, 14, 12032
8, 78892, Pitch_bend_c, 14, 12064
8, 78895, Pitch_bend_c, 14, 12096
8, 78898, Pitch_bend_c, 14, 12128
8, 78901, Pitch_bend_c, 14, 12160
8, 78904, Pitch_bend_c, 14, 12192
8, 78907, Pitch_bend_c, 14, 12224
8, 78910, Pitch_bend_c, 14, 12256
8, 78913, Pitch_bend_c, 14, 12288
8, 78916, Pitch_bend_c, 14, 12320
8, 78919, Pitch_bend_c, 14, 12352
8, 78922, Pitch_bend_c, 14, 12384
8, 78925, Pitch_bend_c, 14, 12416
8, 78928, Pitch_bend_c, 14, 12448
8, 78931, Pitch_bend_c, 14, 12480
8, 78934, Pitch_bend_c, 14, 12512
8, 78937, Pitch_bend_c, 14, 12544
8, 78940, Pitch_bend_c, 14, 12576
8, 78943, Pitch_bend_c, 14, 12608
8, 78946, Pitch_bend_c, 14, 12640
8, 78949, Pitch_bend_c, 14, 12672
8, 78952, Pitch_bend_c, 14, 12704
8, 78955, Pitch_bend_c, 14, 12736
8, 78958, Pitch_bend_c, 14, 12768
8, 78961, Pitch_bend_c, 14, 12800
8, 78964, Pitch_bend_c, 14, 12832
8, 78967, Pitch_bend_c, 14, 12864
8, 78970, Pitch_bend_c, 14, 12896
8, 78973, Pitch_bend_c, 14, 12928
8, 78976, Pitch_bend_c, 14, 12960
8, 78979, Pitch_bend_c, 14, 12992
8, 78982, Pitch_bend_c, 14, 13024
8, 78985, Pitch_bend_c, 14, 13056
8, 78988, Pitch_bend_c, 14, 13088
8, 78991, Pitch_bend_c, 14, 13120
8, 78994, Pitch_bend_c, 14, 13152
8, 78997, Pitch_bend_c, 14, 13184
8, 79000, Pitch_bend_c, 14, 13216
8, 79003, Pitch_bend_c, 14, 13248
8, 79006, Pitch_bend_c, 14, 13280
8, 79009, Pitch_bend_c, 14, 13312
8, 79012, Pitch_bend_c, 14, 13344
8, 79015, Pitch_bend_c, 14, 13376
8, 79018, Pitch_bend_c, 14, 13408
8, 79021, Pitch_bend_c, 14, 13440
8, 79024, Pitch_bend_c, 14, 13472
8, 79027, Pitch_bend_c, 14, 13504
8, 79030, Pitch_bend_c, 14, 13536
8, 79033, Pitch_bend_c, 14, 13568
8, 79036, Pitch_bend_c, 14, 13600
8, 79040, Pitch_bend_c, 14, 13632
8, 79043, Pitch_bend_c, 14, 13664
8, 79046, Pitch_bend_c, 14, 13696
8, 79049, Pitch_bend_c, 14, 13728
8, 79052, Pitch_bend_c, 14, 13760
8, 79055, Pitch_bend_c, 14, 13792
8, 79058, Pitch_bend_c, 14, 13824
8, 79061, Pitch_bend_c, 14, 13856
8, 79064, Pitch_bend_c, 14, 13888
8, 79067, Pitch_bend_c, 14, 13920
8, 79070, Pitch_bend_c, 14, 13952
8, 79073, Pitch_bend_c, 14, 13984
8, 79076, Pitch_bend_c, 14, 14016
8, 79079, Pitch_bend_c, 14, 14048
8, 79082, Pitch_bend_c, 14, 14080
8, 79085, Pitch_bend_c, 14, 14112
8, 79088, Pitch_bend_c, 14, 14144
8, 79091, Pitch_bend_c, 14, 14176
8, 79094, Pitch_bend_c, 14, 14208
8, 79097, Pitch_bend_c, 14, 14240
8, 79100, Pitch_bend_c, 14, 14272
8, 79103, Pitch_bend_c, 14, 14304
8, 79106, Pitch_bend_c, 14, 14336
8, 79109, Pitch_bend_c, 14, 14368
8, 79112, Pitch_bend_c, 14, 14400
8, 79115, Pitch_bend_c, 14, 14432
8, 79118, Pitch_bend_c, 14, 14464
8, 79121, Pitch_bend_c, 14, 14496
8, 79124, Pitch_bend_c, 14, 14528
8, 79127, Pitch_bend_c, 14, 14560
8, 79130, Pitch_bend_c, 14, 14592
8, 79133, Pitch_bend_c, 14, 14624
8, 79136, Pitch_bend_c, 14, 14656
8, 79139, Pitch_bend_c, 14, 14688
8, 79142, Pitch_bend_c, 14, 14720
8, 79145, Pitch_bend_c, 14, 14752
8, 79148, Pitch_bend_c, 14, 14784
8, 79151, Pitch_bend_c, 14, 14816
8, 79154, Pitch_bend_c, 14, 14848
8, 79157, Pitch_bend_c, 14, 14880
8, 79160, Pitch_bend_c, 14, 14912
8, 79163, Pitch_bend_c, 14, 14944
8, 79166, Pitch_bend_c, 14, 14976
8, 79169, Pitch_bend_c, 14, 15008
8, 79172, Pitch_bend_c, 14, 15040
8, 79175, Pitch_bend_c, 14, 15072
8, 79178, Pitch_bend_c, 14, 15104
8, 79181, Pitch_bend_c, 14, 15136
8, 79184, Pitch_bend_c, 14, 15168
8, 79187, Pitch_bend_c, 14, 15200
8, 79190, Pitch_bend_c, 14, 15232
8, 79193, Pitch_bend_c, 14, 15264
8, 79196, Pitch_bend_c, 14, 15296
8, 79199, Pitch_bend_c, 14, 15328
8, 79202, Pitch_bend_c, 14, 15360
8, 79205, Pitch_bend_c, 14, 15392
8, 79208, Pitch_bend_c, 14, 15424
8, 79211, Pitch_bend_c, 14, 15456
8, 79214, Pitch_bend_c, 14, 15488
8, 79217, Pitch_bend_c, 14, 15520
8, 79220, Pitch_bend_c, 14, 15552
8, 79223, Pitch_bend_c, 14, 15584
8, 79226, Pitch_bend_c, 14, 15616
8, 79229, Pitch_bend_c, 14, 15648
8, 79232, Pitch_bend_c, 14, 15680
8, 79235, Pitch_bend_c, 14, 15712
8, 79238, Pitch_bend_c, 14, 15744
8, 79241, Pitch_bend_c, 14, 15776
8, 79244, Pitch_bend_c, 14, 15808
8, 79247, Pitch_bend_c, 14, 15840
8, 79250, Pitch_bend_c, 14, 15872
8, 79253, Pitch_bend_c, 14, 15904
8, 79256, Pitch_bend_c, 14, 15936
8, 79259, Pitch_bend_c, 14, 15968
8, 79262, Pitch_bend_c, 14, 16000
8, 79265, Pitch_bend_c, 14, 16032
8, 79268, Pitch_bend_c, 14, 16064
8, 79271, Pitch_bend_c, 14, 16096
8, 79274, Pitch_bend_c, 14, 16128
8, 79277, Pitch_bend_c, 14, 16160
8, 79280, Pitch_bend_c, 14, 16192
8, 79283, Pitch_bend_c, 14, 16224
8, 79286, Pitch_bend_c, 14, 16256
8, 79289, Pitch_bend_c, 14, 16288
8, 79292, Pitch_bend_c, 14, 16320
8, 79296, Pitch_bend_c, 14, 16383
8, 79632, Note_on_c, 14, 64, 0
8, 79680, Pitch_bend_c, 14, 8192
8, 79680, Note_on_c, 14, 76, 110
8, 79692, Pitch_bend_c, 14, 8192
8, 80016, Note_on_c, 14, 76, 0
8, 80016, End_track
9, 0, Start_track
9, 0, MIDI_port, 0
9, 0, Title_t, "Staff-8"
9, 0, Program_c, 15, 20
9, 0, Control_c, 15, 7, 127
9, 0, Control_c, 15, 10, 64
9, 98976, Note_on_c, 15, 58, 110
9, 98976, Note_on_c, 15, 62, 110
9, 98976, Note_on_c, 15, 65, 110
9, 99232, Note_on_c, 15, 58, 0
9, 99232, Note_on_c, 15, 62, 0
9, 99232, Note_on_c, 15, 65, 0
9, 100992, Note_on_c, 15, 66, 110
9, 101086, Note_on_c, 15, 66, 0
9, 101088, Note_on_c, 15, 69, 110
9, 101248, Note_on_c, 15, 69, 0
9, 101280, Note_on_c, 15, 66, 110
9, 101374, Note_on_c, 15, 66, 0
9, 101376, Note_on_c, 15, 69, 110
9, 101470, Note_on_c, 15, 69, 0
9, 101472, Note_on_c, 15, 66, 110
9, 101662, Note_on_c, 15, 66, 0
9, 101664, Note_on_c, 15, 69, 110
9, 101824, Note_on_c, 15, 69, 0
9, 101856, Note_on_c, 15, 69, 110
9, 101950, Note_on_c, 15, 69, 0
9, 101952, Note_on_c, 15, 74, 110
9, 102112, Note_on_c, 15, 74, 0
9, 102144, Note_on_c, 15, 74, 110
9, 102304, Note_on_c, 15, 74, 0
9, 102336, Note_on_c, 15, 76, 110
9, 102382, Note_on_c, 15, 76, 0
9, 102384, Note_on_c, 15, 74, 110
9, 102430, Note_on_c, 15, 74, 0
9, 102432, Note_on_c, 15, 73, 110
9, 102526, Note_on_c, 15, 73, 0
9, 102528, Note_on_c, 15, 74, 110
9, 102622, Note_on_c, 15, 74, 0
9, 102624, Note_on_c, 15, 73, 110
9, 102784, Note_on_c, 15, 73, 0
9, 102816, Note_on_c, 15, 74, 110
9, 102910, Note_on_c, 15, 74, 0
9, 102912, Note_on_c, 15, 73, 110
9, 103006, Note_on_c, 15, 73, 0
9, 103008, Note_on_c, 15, 76, 110
9, 103198, Note_on_c, 15, 76, 0
9, 103200, Note_on_c, 15, 74, 110
9, 103294, Note_on_c, 15, 74, 0
9, 103296, Note_on_c, 15, 73, 110
9, 103390, Note_on_c, 15, 73, 0
9, 103392, Note_on_c, 15, 74, 110
9, 103552, Note_on_c, 15, 74, 0
9, 103584, Note_on_c, 15, 73, 110
9, 103678, Note_on_c, 15, 73, 0
9, 103776, Note_on_c, 15, 72, 110
9, 103870, Note_on_c, 15, 72, 0
9, 103872, Note_on_c, 15, 75, 110
9, 103918, Note_on_c, 15, 75, 0
9, 103920, Note_on_c, 15, 73, 110
9, 103966, Note_on_c, 15, 73, 0
9, 103968, Note_on_c, 15, 71, 110
9, 104062, Note_on_c, 15, 71, 0
9, 104064, Note_on_c, 15, 71, 110
9, 104158, Note_on_c, 15, 71, 0
9, 104160, Note_on_c, 15, 73, 110
9, 104320, Note_on_c, 15, 73, 0
9, 104352, Note_on_c, 15, 71, 110
9, 104446, Note_on_c, 15, 71, 0
9, 104448, Note_on_c, 15, 73, 110
9, 104542, Note_on_c, 15, 73, 0
9, 104544, Note_on_c, 15, 75, 110
9, 104734, Note_on_c, 15, 75, 0
9, 104736, Note_on_c, 15, 73, 110
9, 104830, Note_on_c, 15, 73, 0
9, 104832, Note_on_c, 15, 71, 110
9, 104926, Note_on_c, 15, 71, 0
9, 104928, Note_on_c, 15, 73, 110
9, 105184, Note_on_c, 15, 73, 0
9, 105216, Note_on_c, 15, 71, 110
9, 105376, Note_on_c, 15, 71, 0
9, 105408, Note_on_c, 15, 78, 110
9, 105454, Note_on_c, 15, 78, 0
9, 105456, Note_on_c, 15, 76, 110
9, 105502, Note_on_c, 15, 76, 0
9, 105504, Note_on_c, 15, 74, 110
9, 105598, Note_on_c, 15, 74, 0
9, 105600, Note_on_c, 15, 74, 110
9, 105694, Note_on_c, 15, 74, 0
9, 105696, Note_on_c, 15, 74, 110
9, 105856, Note_on_c, 15, 74, 0
9, 105888, Note_on_c, 15, 69, 110
9, 105982, Note_on_c, 15, 69, 0
9, 105984, Note_on_c, 15, 71, 110
9, 106078, Note_on_c, 15, 71, 0
9, 106080, Note_on_c, 15, 74, 110
9, 106336, Note_on_c, 15, 74, 0
9, 106368, Note_on_c, 15, 74, 110
9, 106624, Note_on_c, 15, 74, 0
9, 106944, Note_on_c, 15, 76, 110
9, 106990, Note_on_c, 15, 76, 0
9, 106992, Note_on_c, 15, 74, 110
9, 107038, Note_on_c, 15, 74, 0
9, 107040, Note_on_c, 15, 73, 110
9, 107134, Note_on_c, 15, 73, 0
9, 107136, Note_on_c, 15, 74, 110
9, 107230, Note_on_c, 15, 74, 0
9, 107232, Note_on_c, 15, 74, 110
9, 107392, Note_on_c, 15, 74, 0
9, 107424, Note_on_c, 15, 73, 110
9, 107584, Note_on_c, 15, 73, 0
9, 107616, Note_on_c, 15, 73, 110
9, 107806, Note_on_c, 15, 73, 0
9, 108000, Note_on_c, 15, 69, 110
9, 108160, Note_on_c, 15, 69, 0
9, 108192, Note_on_c, 15, 71, 110
9, 108448, Note_on_c, 15, 71, 0
9, 108480, Note_on_c, 15, 75, 110
9, 108526, Note_on_c, 15, 75, 0
9, 108528, Note_on_c, 15, 73, 110
9, 108574, Note_on_c, 15, 73, 0
9, 108576, Note_on_c, 15, 71, 110
9, 108670, Note_on_c, 15, 71, 0
9, 108672, Note_on_c, 15, 73, 110
9, 108766, Note_on_c, 15, 73, 0
9, 108768, Note_on_c, 15, 73, 110
9, 108928, Note_on_c, 15, 73, 0
9, 108960, Note_on_c, 15, 71, 110
9, 109584, Note_on_c, 15, 71, 0
9, 109728, Note_on_c, 15, 71, 110
9, 109822, Note_on_c, 15, 71, 0
9, 109824, Note_on_c, 15, 73, 110
9, 109918, Note_on_c, 15, 73, 0
9, 109920, Note_on_c, 15, 76, 110
9, 109942, Note_on_c, 15, 76, 0
9, 109944, Note_on_c, 15, 78, 110
9, 110110, Note_on_c, 15, 78, 0
9, 110112, Note_on_c, 15, 76, 110
9, 110206, Note_on_c, 15, 76, 0
9, 110208, Note_on_c, 15, 74, 110
9, 110302, Note_on_c, 15, 74, 0
9, 110304, Note_on_c, 15, 66, 110
9, 110304, Note_on_c, 15, 76, 110
9, 110398, Note_on_c, 15, 66, 0
9, 110400, Note_on_c, 15, 66, 110
9, 110494, Note_on_c, 15, 66, 0
9, 110496, Note_on_c, 15, 66, 110
9, 110590, Note_on_c, 15, 66, 0
9, 110592, Note_on_c, 15, 69, 110
9, 110686, Note_on_c, 15, 69, 0
9, 110688, Note_on_c, 15, 66, 110
9, 110736, Note_on_c, 15, 76, 0
9, 110782, Note_on_c, 15, 66, 0
9, 110784, Note_on_c, 15, 66, 110
9, 110878, Note_on_c, 15, 66, 0
9, 110880, Note_on_c, 15, 66, 110
9, 110880, Note_on_c, 15, 76, 110
9, 110974, Note_on_c, 15, 66, 0
9, 110974, Note_on_c, 15, 76, 0
9, 111072, Note_on_c, 15, 81, 110
9, 111232, Note_on_c, 15, 81, 0
9, 111264, Note_on_c, 15, 74, 110
9, 111358, Note_on_c, 15, 74, 0
9, 111360, Note_on_c, 15, 74, 110
9, 111454, Note_on_c, 15, 74, 0
9, 111456, Note_on_c, 15, 74, 110
9, 111550, Note_on_c, 15, 74, 0
9, 111552, Note_on_c, 15, 74, 110
9, 111646, Note_on_c, 15, 74, 0
9, 111648, Note_on_c, 15, 74, 110
9, 111742, Note_on_c, 15, 74, 0
9, 111744, Note_on_c, 15, 73, 110
9, 111838, Note_on_c, 15, 73, 0
9, 111840, Note_on_c, 15, 73, 110
9, 112000, Note_on_c, 15, 73, 0
9, 112032, Note_on_c, 15, 71, 110
9, 112192, Note_on_c, 15, 71, 0
9, 112224, Note_on_c, 15, 74, 110
9, 112414, Note_on_c, 15, 74, 0
9, 112416, Note_on_c, 15, 73, 110
9, 112510, Note_on_c, 15, 73, 0
9, 112512, Note_on_c, 15, 73, 110
9, 112606, Note_on_c, 15, 73, 0
9, 112608, Note_on_c, 15, 73, 110
9, 112768, Note_on_c, 15, 73, 0
9, 112800, Note_on_c, 15, 69, 110
9, 112894, Note_on_c, 15, 69, 0
9, 112896, Note_on_c, 15, 70, 110
9, 113056, Note_on_c, 15, 70, 0
9, 113088, Note_on_c, 15, 76, 110
9, 113248, Note_on_c, 15, 76, 0
9, 113280, Note_on_c, 15, 78, 110
9, 113728, Note_on_c, 15, 78, 0
9, 113760, Note_on_c, 15, 78, 110
9, 114046, Note_on_c, 15, 78, 0
9, 114048, Note_on_c, 15, 81, 110
9, 114070, Note_on_c, 15, 81, 0
9, 114072, Note_on_c, 15, 83, 110
9, 114142, Note_on_c, 15, 83, 0
9, 114144, Note_on_c, 15, 83, 110
9, 114304, Note_on_c, 15, 83, 0
9, 114336, Note_on_c, 15, 71, 110
9, 114430, Note_on_c, 15, 71, 0
9, 114432, Note_on_c, 15, 71, 110
9, 114526, Note_on_c, 15, 71, 0
9, 114528, Note_on_c, 15, 71, 110
9, 114622, Note_on_c, 15, 71, 0
9, 114624, Note_on_c, 15, 81, 110
9, 114670, Note_on_c, 15, 81, 0
9, 114672, Note_on_c, 15, 79, 110
9, 114718, Note_on_c, 15, 79, 0
9, 114720, Note_on_c, 15, 78, 110
9, 114814, Note_on_c, 15, 78, 0
9, 114816, Note_on_c, 15, 78, 110
9, 114910, Note_on_c, 15, 78, 0
9, 114912, Note_on_c, 15, 74, 110
9, 115168, Note_on_c, 15, 74, 0
9, 115200, Note_on_c, 15, 69, 110
9, 115294, Note_on_c, 15, 69, 0
9, 115296, Note_on_c, 15, 76, 110
9, 115486, Note_on_c, 15, 76, 0
9, 115488, Note_on_c, 15, 74, 110
9, 115648, Note_on_c, 15, 74, 0
9, 115680, Note_on_c, 15, 74, 110
9, 115840, Note_on_c, 15, 74, 0
9, 115872, Note_on_c, 15, 67, 110
9, 115966, Note_on_c, 15, 67, 0
9, 115968, Note_on_c, 15, 68, 110
9, 116062, Note_on_c, 15, 68, 0
9, 116064, Note_on_c, 15, 69, 110
9, 116158, Note_on_c, 15, 69, 0
9, 116160, Note_on_c, 15, 69, 110
9, 116254, Note_on_c, 15, 69, 0
9, 116256, Note_on_c, 15, 69, 110
9, 116350, Note_on_c, 15, 69, 0
9, 116352, Note_on_c, 15, 73, 110
9, 116446, Note_on_c, 15, 73, 0
9, 116448, Note_on_c, 15, 69, 110
9, 116542, Note_on_c, 15, 69, 0
9, 116544, Note_on_c, 15, 73, 110
9, 116638, Note_on_c, 15, 73, 0
9, 116640, Note_on_c, 15, 74, 110
9, 116800, Note_on_c, 15, 74, 0
9, 116832, Note_on_c, 15, 74, 110
9, 117022, Note_on_c, 15, 74, 0
9, 117024, Note_on_c, 15, 73, 110
9, 117184, Note_on_c, 15, 73, 0
9, 117216, Note_on_c, 15, 73, 110
9, 117376, Note_on_c, 15, 73, 0
9, 117408, Note_on_c, 15, 71, 110
9, 117502, Note_on_c, 15, 71, 0
9, 117504, Note_on_c, 15, 75, 110
9, 117598, Note_on_c, 15, 75, 0
9, 117600, Note_on_c, 15, 71, 110
9, 117694, Note_on_c, 15, 71, 0
9, 117696, Note_on_c, 15, 75, 110
9, 117790, Note_on_c, 15, 75, 0
9, 117792, Note_on_c, 15, 76, 110
9, 117886, Note_on_c, 15, 76, 0
9, 117888, Note_on_c, 15, 76, 110
9, 117982, Note_on_c, 15, 76, 0
9, 117984, Note_on_c, 15, 76, 110
9, 118144, Note_on_c, 15, 76, 0
9, 118176, Note_on_c, 15, 78, 110
9, 118336, Note_on_c, 15, 78, 0
9, 119232, Note_on_c, 15, 81, 110
9, 119278, Note_on_c, 15, 81, 0
9, 119280, Note_on_c, 15, 79, 110
9, 119326, Note_on_c, 15, 79, 0
9, 119328, Note_on_c, 15, 78, 110
9, 119422, Note_on_c, 15, 78, 0
9, 119424, Note_on_c, 15, 78, 110
9, 119518, Note_on_c, 15, 78, 0
9, 119520, Note_on_c, 15, 78, 110
9, 119680, Note_on_c, 15, 78, 0
9, 119712, Note_on_c, 15, 79, 110
9, 119806, Note_on_c, 15, 79, 0
9, 119808, Note_on_c, 15, 78, 110
9, 119902, Note_on_c, 15, 78, 0
9, 119904, Note_on_c, 15, 78, 110
9, 120064, Note_on_c, 15, 78, 0
9, 120096, Note_on_c, 15, 76, 110
9, 120190, Note_on_c, 15, 76, 0
9, 120288, Note_on_c, 15, 76, 110
9, 120448, Note_on_c, 15, 76, 0
9, 120480, Note_on_c, 15, 74, 110
9, 120640, Note_on_c, 15, 74, 0
9, 120768, Note_on_c, 15, 73, 110
9, 120790, Note_on_c, 15, 73, 0
9, 120792, Note_on_c, 15, 74, 110
9, 120958, Note_on_c, 15, 74, 0
9, 120960, Note_on_c, 15, 73, 110
9, 121054, Note_on_c, 15, 73, 0
9, 121056, Note_on_c, 15, 73, 110
9, 121392, Note_on_c, 15, 73, 0
9, 121536, Control_c, 15, 7, 127
9, 121559, Control_c, 15, 7, 126
9, 121582, Control_c, 15, 7, 125
9, 121605, Control_c, 15, 7, 124
9, 121629, Control_c, 15, 7, 123
9, 121652, Control_c, 15, 7, 122
9, 121675, Control_c, 15, 7, 121
9, 121698, Control_c, 15, 7, 120
9, 121722, Control_c, 15, 7, 119
9, 121745, Control_c, 15, 7, 118
9, 121768, Control_c, 15, 7, 117
9, 121792, Control_c, 15, 7, 116
9, 121815, Control_c, 15, 7, 115
9, 121838, Control_c, 15, 7, 114
9, 121861, Control_c, 15, 7, 113
9, 121885, Control_c, 15, 7, 112
9, 121908, Control_c, 15, 7, 111
9, 121931, Control_c, 15, 7, 110
9, 121954, Control_c, 15, 7, 109
9, 121978, Control_c, 15, 7, 108
9, 122001, Control_c, 15, 7, 107
9, 122016, Note_on_c, 15, 71, 110
9, 122024, Control_c, 15, 7, 106
9, 122048, Control_c, 15, 7, 105
9, 122071, Control_c, 15, 7, 104
9, 122094, Control_c, 15, 7, 103
9, 122110, Note_on_c, 15, 71, 0
9, 122112, Note_on_c, 15, 75, 110
9, 122117, Control_c, 15, 7, 102
9, 122141, Control_c, 15, 7, 101
9, 122164, Control_c, 15, 7, 100
9, 122187, Control_c, 15, 7, 99
9, 122206, Note_on_c, 15, 75, 0
9, 122208, Note_on_c, 15, 71, 110
9, 122210, Control_c, 15, 7, 98
9, 122234, Control_c, 15, 7, 97
9, 122257, Control_c, 15, 7, 96
9, 122280, Control_c, 15, 7, 95
9, 122302, Note_on_c, 15, 71, 0
9, 122304, Control_c, 15, 7, 94
9, 122304, Control_c, 15, 7, 94
9, 122304, Note_on_c, 15, 75, 110
9, 122358, Control_c, 15, 7, 93
9, 122398, Note_on_c, 15, 75, 0
9, 122400, Note_on_c, 15, 76, 110
9, 122413, Control_c, 15, 7, 92
9, 122468, Control_c, 15, 7, 91
9, 122494, Note_on_c, 15, 76, 0
9, 122496, Note_on_c, 15, 76, 110
9, 122523, Control_c, 15, 7, 90
9, 122578, Control_c, 15, 7, 89
9, 122590, Note_on_c, 15, 76, 0
9, 122592, Note_on_c, 15, 76, 110
9, 122633, Control_c, 15, 7, 88
9, 122688, Control_c, 15, 7, 87
9, 122742, Control_c, 15, 7, 86
9, 122752, Note_on_c, 15, 76, 0
9, 122784, Note_on_c, 15, 78, 110
9, 122797, Control_c, 15, 7, 85
9, 122852, Control_c, 15, 7, 84
9, 122907, Control_c, 15, 7, 83
9, 122944, Note_on_c, 15, 78, 0
9, 122962, Control_c, 15, 7, 82
9, 123017, Control_c, 15, 7, 81
9, 123072, Control_c, 15, 7, 80
9, 123072, Control_c, 15, 7, 80
9, 123097, Control_c, 15, 7, 79
9, 123123, Control_c, 15, 7, 78
9, 123148, Control_c, 15, 7, 77
9, 123174, Control_c, 15, 7, 76
9, 123200, Control_c, 15, 7, 75
9, 123225, Control_c, 15, 7, 74
9, 123251, Control_c, 15, 7, 73
9, 123276, Control_c, 15, 7, 72
9, 123302, Control_c, 15, 7, 71
9, 123328, Control_c, 15, 7, 70
9, 123353, Control_c, 15, 7, 69
9, 123379, Control_c, 15, 7, 68
9, 123404, Control_c, 15, 7, 67
9, 123430, Control_c, 15, 7, 66
9, 123456, Control_c, 15, 7, 65
9, 123481, Control_c, 15, 7, 64
9, 123507, Control_c, 15, 7, 63
9, 123532, Control_c, 15, 7, 62
9, 123558, Control_c, 15, 7, 61
9, 123584, Control_c, 15, 7, 60
9, 123609, Control_c, 15, 7, 59
9, 123635, Control_c, 15, 7, 58
9, 123660, Control_c, 15, 7, 57
9, 123686, Control_c, 15, 7, 56
9, 123712, Control_c, 15, 7, 55
9, 123737, Control_c, 15, 7, 54
9, 123763, Control_c, 15, 7, 53
9, 123788, Control_c, 15, 7, 52
9, 123814, Control_c, 15, 7, 51
9, 123840, Control_c, 15, 7, 50
9, 123840, Control_c, 15, 7, 50
9, 123840, Note_on_c, 15, 81, 110
9, 123878, Control_c, 15, 7, 49
9, 123886, Note_on_c, 15, 81, 0
9, 123888, Note_on_c, 15, 79, 110
9, 123916, Control_c, 15, 7, 48
9, 123934, Note_on_c, 15, 79, 0
9, 123936, Note_on_c, 15, 78, 110
9, 123955, Control_c, 15, 7, 47
9, 123993, Control_c, 15, 7, 46
9, 124030, Note_on_c, 15, 78, 0
9, 124032, Control_c, 15, 7, 45
9, 124032, Note_on_c, 15, 78, 110
9, 124070, Control_c, 15, 7, 44
9, 124108, Control_c, 15, 7, 43
9, 124126, Note_on_c, 15, 78, 0
9, 124128, Note_on_c, 15, 78, 110
9, 124147, Control_c, 15, 7, 42
9, 124185, Control_c, 15, 7, 41
9, 124224, Control_c, 15, 7, 40
9, 124262, Control_c, 15, 7, 39
9, 124288, Note_on_c, 15, 78, 0
9, 124300, Control_c, 15, 7, 38
9, 124320, Note_on_c, 15, 79, 110
9, 124339, Control_c, 15, 7, 37
9, 124377, Control_c, 15, 7, 36
9, 124414, Note_on_c, 15, 79, 0
9, 124416, Control_c, 15, 7, 35
9, 124416, Note_on_c, 15, 78, 110
9, 124454, Control_c, 15, 7, 34
9, 124492, Control_c, 15, 7, 33
9, 124510, Note_on_c, 15, 78, 0
9, 124512, Note_on_c, 15, 78, 110
9, 124531, Control_c, 15, 7, 32
9, 124569, Control_c, 15, 7, 31
9, 124608, Control_c, 15, 7, 30
9, 124608, Control_c, 15, 7, 30
9, 124650, Control_c, 15, 7, 29
9, 124693, Control_c, 15, 7, 28
9, 124702, Note_on_c, 15, 78, 0
9, 124704, Note_on_c, 15, 76, 110
9, 124736, Control_c, 15, 7, 27
9, 124778, Control_c, 15, 7, 26
9, 124798, Note_on_c, 15, 76, 0
9, 124821, Control_c, 15, 7, 25
9, 124864, Control_c, 15, 7, 24
9, 124896, Note_on_c, 15, 76, 110
9, 124906, Control_c, 15, 7, 23
9, 124949, Control_c, 15, 7, 22
9, 124992, Control_c, 15, 7, 21
9, 125034, Control_c, 15, 7, 20
9, 125056, Note_on_c, 15, 76, 0
9, 125077, Control_c, 15, 7, 19
9, 125088, Note_on_c, 15, 74, 110
9, 125120, Control_c, 15, 7, 18
9, 125162, Control_c, 15, 7, 17
9, 125205, Control_c, 15, 7, 16
9, 125248, Note_on_c, 15, 74, 0
9, 125248, Control_c, 15, 7, 15
9, 125290, Control_c, 15, 7, 14
9, 125333, Control_c, 15, 7, 13
9, 125376, Control_c, 15, 7, 12
9, 125376, Control_c, 15, 7, 12
9, 125376, Note_on_c, 15, 73, 110
9, 125398, Note_on_c, 15, 73, 0
9, 125400, Note_on_c, 15, 74, 110
9, 125440, Control_c, 15, 7, 11
9, 125504, Control_c, 15, 7, 10
9, 125566, Note_on_c, 15, 74, 0
9, 125568, Control_c, 15, 7, 9
9, 125568, Note_on_c, 15, 73, 110
9, 125632, Control_c, 15, 7, 8
9, 125662, Note_on_c, 15, 73, 0
9, 125664, Note_on_c, 15, 73, 110
9, 125696, Control_c, 15, 7, 7
9, 125760, Control_c, 15, 7, 6
9, 125824, Control_c, 15, 7, 5
9, 125888, Control_c, 15, 7, 4
9, 125952, Control_c, 15, 7, 3
9, 126000, Note_on_c, 15, 73, 0
9, 126016, Control_c, 15, 7, 2
9, 126080, Control_c, 15, 7, 1
9, 126144, Control_c, 15, 7, 0
9, 126144, End_track
10, 0, Start_track
10, 0, MIDI_port, 0
10, 0, Title_t, "Staff-9"
10, 0, Program_c, 0, 20
10, 0, Control_c, 0, 7, 127
10, 0, Control_c, 0, 10, 64
10, 126912, Note_on_c, 0, 69, 110
10, 127072, Note_on_c, 0, 69, 0
10, 127104, Note_on_c, 0, 71, 110
10, 127198, Note_on_c, 0, 71, 0
10, 127200, Note_on_c, 0, 65, 110
10, 127200, Note_on_c, 0, 72, 110
10, 127294, Note_on_c, 0, 65, 0
10, 127294, Note_on_c, 0, 72, 0
10, 127296, Note_on_c, 0, 74, 110
10, 127456, Note_on_c, 0, 74, 0
10, 127488, Note_on_c, 0, 67, 110
10, 127488, Note_on_c, 0, 72, 110
10, 127582, Note_on_c, 0, 67, 0
10, 127582, Note_on_c, 0, 72, 0
10, 127584, Note_on_c, 0, 62, 110
10, 127584, Note_on_c, 0, 74, 110
10, 127678, Note_on_c, 0, 62, 0
10, 127678, Note_on_c, 0, 74, 0
10, 127680, Note_on_c, 0, 77, 110
10, 127774, Note_on_c, 0, 77, 0
10, 127776, Note_on_c, 0, 76, 110
10, 127870, Note_on_c, 0, 76, 0
10, 127872, Note_on_c, 0, 60, 110
10, 127872, Note_on_c, 0, 74, 110
10, 127966, Note_on_c, 0, 60, 0
10, 127966, Note_on_c, 0, 74, 0
10, 127968, Note_on_c, 0, 72, 110
10, 128062, Note_on_c, 0, 72, 0
10, 128064, Note_on_c, 0, 60, 110
10, 128064, Note_on_c, 0, 72, 110
10, 128224, Note_on_c, 0, 60, 0
10, 128224, Note_on_c, 0, 72, 0
10, 128256, Note_on_c, 0, 69, 110
10, 128350, Note_on_c, 0, 69, 0
10, 128352, Note_on_c, 0, 71, 110
10, 128446, Note_on_c, 0, 71, 0
10, 128448, Note_on_c, 0, 72, 110
10, 128608, Note_on_c, 0, 72, 0
10, 128640, Note_on_c, 0, 71, 110
10, 128800, Note_on_c, 0, 71, 0
10, 128832, Note_on_c, 0, 64, 110
10, 128832, Note_on_c, 0, 67, 110
10, 128992, Note_on_c, 0, 64, 0
10, 128992, Note_on_c, 0, 67, 0
10, 129024, Note_on_c, 0, 64, 110
10, 129190, Note_on_c, 0, 64, 0
10, 129192, Note_on_c, 0, 67, 110
10, 129214, Note_on_c, 0, 67, 0
10, 129216, Note_on_c, 0, 69, 110
10, 129504, Note_on_c, 0, 65, 110
10, 129982, Note_on_c, 0, 65, 0
10, 129982, Note_on_c, 0, 69, 0
10, 129984, Note_on_c, 0, 69, 110
10, 130144, Note_on_c, 0, 69, 0
10, 130176, Note_on_c, 0, 71, 110
10, 130270, Note_on_c, 0, 71, 0
10, 130272, Note_on_c, 0, 65, 110
10, 130272, Note_on_c, 0, 72, 110
10, 130366, Note_on_c, 0, 65, 0
10, 130366, Note_on_c, 0, 72, 0
10, 130368, Note_on_c, 0, 74, 110
10, 130510, Note_on_c, 0, 74, 0
10, 130512, Note_on_c, 0, 62, 110
10, 130558, Note_on_c, 0, 62, 0
10, 130560, Note_on_c, 0, 67, 110
10, 130560, Note_on_c, 0, 72, 110
10, 130654, Note_on_c, 0, 67, 0
10, 130654, Note_on_c, 0, 72, 0
10, 130656, Note_on_c, 0, 62, 110
10, 130656, Note_on_c, 0, 74, 110
10, 130750, Note_on_c, 0, 62, 0
10, 130750, Note_on_c, 0, 74, 0
10, 130752, Note_on_c, 0, 77, 110
10, 130846, Note_on_c, 0, 77, 0
10, 130848, Note_on_c, 0, 76, 110
10, 130942, Note_on_c, 0, 76, 0
10, 130944, Note_on_c, 0, 60, 110
10, 130944, Note_on_c, 0, 74, 110
10, 131038, Note_on_c, 0, 60, 0
10, 131038, Note_on_c, 0, 74, 0
10, 131040, Note_on_c, 0, 72, 110
10, 131134, Note_on_c, 0, 72, 0
10, 131136, Note_on_c, 0, 60, 110
10, 131136, Note_on_c, 0, 72, 110
10, 131296, Note_on_c, 0, 60, 0
10, 131296, Note_on_c, 0, 72, 0
10, 131328, Note_on_c, 0, 69, 110
10, 131422, Note_on_c, 0, 69, 0
10, 131424, Note_on_c, 0, 71, 110
10, 131518, Note_on_c, 0, 71, 0
10, 131520, Note_on_c, 0, 71, 110
10, 131680, Note_on_c, 0, 71, 0
10, 131712, Note_on_c, 0, 64, 110
10, 131712, Note_on_c, 0, 72, 110
10, 131806, Note_on_c, 0, 64, 0
10, 131806, Note_on_c, 0, 72, 0
10, 131808, Note_on_c, 0, 71, 110
10, 131902, Note_on_c, 0, 71, 0
10, 131904, Note_on_c, 0, 64, 110
10, 131904, Note_on_c, 0, 67, 110
10, 132064, Note_on_c, 0, 64, 0
10, 132064, Note_on_c, 0, 67, 0
10, 132096, Note_on_c, 0, 64, 110
10, 132190, Note_on_c, 0, 64, 0
10, 132192, Note_on_c, 0, 67, 110
10, 132214, Note_on_c, 0, 67, 0
10, 132216, Note_on_c, 0, 69, 110
10, 132480, Note_on_c, 0, 65, 110
10, 132574, Note_on_c, 0, 65, 0
10, 132576, Note_on_c, 0, 65, 110
10, 132670, Note_on_c, 0, 65, 0
10, 132768, Note_on_c, 0, 65, 110
10, 132768, Note_on_c, 0, 71, 110
10, 132816, Note_on_c, 0, 69, 0
10, 132862, Note_on_c, 0, 65, 0
10, 132960, Note_on_c, 0, 67, 110
10, 133024, Note_on_c, 0, 71, 0
10, 133054, Note_on_c, 0, 67, 0
10, 133056, Note_on_c, 0, 69, 110
10, 133216, Note_on_c, 0, 69, 0
10, 133248, Note_on_c, 0, 71, 110
10, 133342, Note_on_c, 0, 71, 0
10, 133344, Note_on_c, 0, 65, 110
10, 133344, Note_on_c, 0, 72, 110
10, 133438, Note_on_c, 0, 65, 0
10, 133438, Note_on_c, 0, 72, 0
10, 133440, Note_on_c, 0, 74, 110
10, 133600, Note_on_c, 0, 74, 0
10, 133632, Note_on_c, 0, 67, 110
10, 133632, Note_on_c, 0, 72, 110
10, 133726, Note_on_c, 0, 67, 0
10, 133726, Note_on_c, 0, 72, 0
10, 133728, Note_on_c, 0, 62, 110
10, 133728, Note_on_c, 0, 74, 110
10, 133822, Note_on_c, 0, 62, 0
10, 133822, Note_on_c, 0, 74, 0
10, 133824, Note_on_c, 0, 77, 110
10, 133918, Note_on_c, 0, 77, 0
10, 133920, Note_on_c, 0, 76, 110
10, 134014, Note_on_c, 0, 76, 0
10, 134016, Note_on_c, 0, 60, 110
10, 134016, Note_on_c, 0, 74, 110
10, 134110, Note_on_c, 0, 60, 0
10, 134110, Note_on_c, 0, 74, 0
10, 134112, Note_on_c, 0, 72, 110
10, 134206, Note_on_c, 0, 72, 0
10, 134208, Note_on_c, 0, 60, 110
10, 134208, Note_on_c, 0, 72, 110
10, 134368, Note_on_c, 0, 60, 0
10, 134368, Note_on_c, 0, 72, 0
10, 134400, Note_on_c, 0, 69, 110
10, 134494, Note_on_c, 0, 69, 0
10, 134496, Note_on_c, 0, 71, 110
10, 134590, Note_on_c, 0, 71, 0
10, 134592, Note_on_c, 0, 71, 110
10, 134752, Note_on_c, 0, 71, 0
10, 134784, Note_on_c, 0, 64, 110
10, 134784, Note_on_c, 0, 69, 110
10, 134944, Note_on_c, 0, 64, 0
10, 134944, Note_on_c, 0, 69, 0
10, 134976, Note_on_c, 0, 64, 110
10, 134976, Note_on_c, 0, 67, 110
10, 135136, Note_on_c, 0, 64, 0
10, 135136, Note_on_c, 0, 67, 0
10, 135168, Note_on_c, 0, 64, 110
10, 135334, Note_on_c, 0, 64, 0
10, 135336, Note_on_c, 0, 67, 110
10, 135358, Note_on_c, 0, 67, 0
10, 135360, Note_on_c, 0, 69, 110
10, 135552, Note_on_c, 0, 65, 110
10, 135646, Note_on_c, 0, 65, 0
10, 135648, Note_on_c, 0, 65, 110
10, 135712, Note_on_c, 0, 69, 0
10, 135742, Note_on_c, 0, 65, 0
10, 135744, Note_on_c, 0, 67, 110
10, 135936, Note_on_c, 0, 64, 110
10, 136096, Note_on_c, 0, 64, 0
10, 136096, Note_on_c, 0, 67, 0
10, 136128, Note_on_c, 0, 65, 110
10, 137616, Note_on_c, 0, 65, 0
10, 137664, Note_on_c, 0, 65, 110
10, 137758, Note_on_c, 0, 65, 0
10, 137760, Note_on_c, 0, 64, 110
10, 138430, Note_on_c, 0, 64, 0
10, 138430, End_track
11, 0, Start_track
11, 0, MIDI_port, 0
11, 0, Title_t, "Staff-10"
11, 0, Program_c, 2, 20
11, 0, Control_c, 2, 7, 127
11, 0, Control_c, 2, 10, 64
11, 126912, Note_on_c, 2, 53, 110
11, 127104, Note_on_c, 2, 60, 110
11, 127198, Note_on_c, 2, 60, 0
11, 127264, Note_on_c, 2, 53, 0
11, 127296, Note_on_c, 2, 55, 110
11, 127632, Note_on_c, 2, 55, 0
11, 127680, Note_on_c, 2, 48, 110
11, 127776, Note_on_c, 2, 55, 110
11, 127870, Note_on_c, 2, 55, 0
11, 128446, Note_on_c, 2, 48, 0
11, 128448, Note_on_c, 2, 52, 110
11, 128640, Note_on_c, 2, 59, 110
11, 128800, Note_on_c, 2, 59, 0
11, 129168, Note_on_c, 2, 52, 0
11, 129216, Note_on_c, 2, 53, 110
11, 129408, Note_on_c, 2, 60, 110
11, 129568, Note_on_c, 2, 60, 0
11, 129936, Note_on_c, 2, 53, 0
11, 129984, Note_on_c, 2, 53, 110
11, 130176, Note_on_c, 2, 60, 110
11, 130270, Note_on_c, 2, 60, 0
11, 130336, Note_on_c, 2, 53, 0
11, 130368, Note_on_c, 2, 55, 110
11, 130704, Note_on_c, 2, 55, 0
11, 130752, Note_on_c, 2, 48, 110
11, 130848, Note_on_c, 2, 55, 110
11, 130942, Note_on_c, 2, 55, 0
11, 131518, Note_on_c, 2, 48, 0
11, 131520, Note_on_c, 2, 52, 110
11, 131616, Note_on_c, 2, 59, 110
11, 131710, Note_on_c, 2, 59, 0
11, 132256, Note_on_c, 2, 52, 0
11, 132288, Note_on_c, 2, 53, 110
11, 132384, Note_on_c, 2, 60, 110
11, 132478, Note_on_c, 2, 60, 0
11, 132640, Note_on_c, 2, 53, 0
11, 132672, Note_on_c, 2, 53, 110
11, 132766, Note_on_c, 2, 53, 0
11, 132864, Note_on_c, 2, 55, 110
11, 132958, Note_on_c, 2, 55, 0
11, 133056, Note_on_c, 2, 53, 110
11, 133248, Note_on_c, 2, 60, 110
11, 133342, Note_on_c, 2, 60, 0
11, 133408, Note_on_c, 2, 53, 0
11, 133440, Note_on_c, 2, 55, 110
11, 133776, Note_on_c, 2, 55, 0
11, 133824, Note_on_c, 2, 48, 110
11, 133920, Note_on_c, 2, 55, 110
11, 134014, Note_on_c, 2, 55, 0
11, 134590, Note_on_c, 2, 48, 0
11, 134592, Note_on_c, 2, 52, 110
11, 135312, Note_on_c, 2, 52, 0
11, 135360, Note_on_c, 2, 53, 110
11, 135456, Note_on_c, 2, 60, 110
11, 135550, Note_on_c, 2, 60, 0
11, 135742, Note_on_c, 2, 53, 0
11, 135744, Note_on_c, 2, 52, 110
11, 135840, Note_on_c, 2, 59, 110
11, 136000, Note_on_c, 2, 59, 0
11, 136096, Note_on_c, 2, 52, 0
11, 136128, Note_on_c, 2, 50, 110
11, 136224, Note_on_c, 2, 57, 110
11, 136318, Note_on_c, 2, 57, 0
11, 136320, Note_on_c, 2, 62, 110
11, 136414, Note_on_c, 2, 62, 0
11, 136416, Note_on_c, 2, 57, 110
11, 136510, Note_on_c, 2, 57, 0
11, 136512, Note_on_c, 2, 62, 110
11, 136606, Note_on_c, 2, 62, 0
11, 136608, Note_on_c, 2, 62, 110
11, 136702, Note_on_c, 2, 62, 0
11, 136704, Note_on_c, 2, 62, 110
11, 136798, Note_on_c, 2, 62, 0
11, 136800, Note_on_c, 2, 57, 110
11, 136894, Note_on_c, 2, 50, 0
11, 136894, Note_on_c, 2, 57, 0
11, 136896, Note_on_c, 2, 50, 110
11, 136992, Note_on_c, 2, 57, 110
11, 137086, Note_on_c, 2, 57, 0
11, 137088, Note_on_c, 2, 62, 110
11, 137182, Note_on_c, 2, 62, 0
11, 137184, Note_on_c, 2, 57, 110
11, 137278, Note_on_c, 2, 57, 0
11, 137280, Note_on_c, 2, 62, 110
11, 137374, Note_on_c, 2, 62, 0
11, 137376, Note_on_c, 2, 57, 110
11, 137470, Note_on_c, 2, 57, 0
11, 137472, Note_on_c, 2, 62, 110
11, 137566, Note_on_c, 2, 62, 0
11, 137568, Note_on_c, 2, 57, 110
11, 137662, Note_on_c, 2, 50, 0
11, 137662, Note_on_c, 2, 57, 0
11, 137664, Note_on_c, 2, 50, 110
11, 137686, Note_on_c, 2, 50, 0
11, 137688, Note_on_c, 2, 48, 110
11, 137760, Note_on_c, 2, 55, 110
11, 137854, Note_on_c, 2, 55, 0
11, 137856, Note_on_c, 2, 60, 110
11, 137950, Note_on_c, 2, 60, 0
11, 137952, Note_on_c, 2, 55, 110
11, 138046, Note_on_c, 2, 55, 0
11, 138048, Note_on_c, 2, 60, 110
11, 138142, Note_on_c, 2, 60, 0
11, 138144, Note_on_c, 2, 55, 110
11, 138238, Note_on_c, 2, 55, 0
11, 138240, Note_on_c, 2, 60, 110
11, 138334, Note_on_c, 2, 60, 0
11, 138336, Note_on_c, 2, 60, 110
11, 138430, Note_on_c, 2, 48, 0
11, 138430, Note_on_c, 2, 60, 0
11, 138430, End_track
0, 0, End_of_file
