0, 0, Header, 1, 7, 480
1, 0, Start_track
1, 0, Tempo, 461538
1, 0, Time_signature, 4, 2, 24, 8
1, 0, Key_signature, 0, "major"
1, 0, End_track
2, 0, Start_track
2, 0, Title_t, "tk1"
2, 0, MIDI_port, 0
2, 0, Channel_prefix, 0
2, 0, Control_c, 0, 7, 127
2, 0, Control_c, 0, 10, 66
2, 0, Program_c, 0, 53
2, 0, Note_on_c, 0, 65, 120
2, 228, Note_off_c, 0, 65, 0
2, 240, Note_on_c, 0, 68, 120
2, 468, Note_off_c, 0, 68, 0
2, 480, Note_on_c, 0, 65, 120
2, 708, Note_off_c, 0, 65, 0
2, 720, Note_on_c, 0, 61, 120
2, 1440, Note_on_c, 0, 59, 120
2, 1447, Note_off_c, 0, 61, 0
2, 2153, Note_off_c, 0, 59, 0
2, 2160, Note_on_c, 0, 58, 120
2, 2880, Note_on_c, 0, 57, 120
2, 2887, Note_off_c, 0, 58, 0
2, 3360, Note_off_c, 0, 57, 0
2, 3360, Note_on_c, 0, 56, 120
2, 3840, Note_off_c, 0, 56, 0
2, 3840, Note_on_c, 0, 65, 120
2, 4068, Note_off_c, 0, 65, 0
2, 4080, Note_on_c, 0, 68, 120
2, 4308, Note_off_c, 0, 68, 0
2, 4320, Note_on_c, 0, 65, 120
2, 4548, Note_off_c, 0, 65, 0
2, 4560, Note_on_c, 0, 61, 120
2, 5280, Note_on_c, 0, 59, 120
2, 5287, Note_off_c, 0, 61, 0
2, 5993, Note_off_c, 0, 59, 0
2, 6000, Note_on_c, 0, 58, 120
2, 6720, Note_on_c, 0, 57, 120
2, 6727, Note_off_c, 0, 58, 0
2, 7200, Note_off_c, 0, 57, 0
2, 7200, Note_on_c, 0, 56, 120
2, 7680, Note_off_c, 0, 56, 0
2, 7680, Note_on_c, 0, 65, 120
2, 7908, Note_off_c, 0, 65, 0
2, 7920, Note_on_c, 0, 68, 120
2, 8148, Note_off_c, 0, 68, 0
2, 8160, Note_on_c, 0, 65, 120
2, 8388, Note_off_c, 0, 65, 0
2, 8400, Note_on_c, 0, 61, 120
2, 9120, Note_on_c, 0, 59, 120
2, 9127, Note_off_c, 0, 61, 0
2, 9833, Note_off_c, 0, 59, 0
2, 9840, Note_on_c, 0, 58, 120
2, 10560, Note_on_c, 0, 57, 120
2, 10567, Note_off_c, 0, 58, 0
2, 11040, Note_off_c, 0, 57, 0
2, 11040, Note_on_c, 0, 56, 120
2, 11520, Note_off_c, 0, 56, 0
2, 11520, Note_on_c, 0, 65, 120
2, 11748, Note_off_c, 0, 65, 0
2, 11760, Note_on_c, 0, 68, 120
2, 11988, Note_off_c, 0, 68, 0
2, 12000, Note_on_c, 0, 65, 120
2, 12228, Note_off_c, 0, 65, 0
2, 12240, Note_on_c, 0, 61, 120
2, 12960, Note_on_c, 0, 59, 120
2, 12967, Note_off_c, 0, 61, 0
2, 13673, Note_off_c, 0, 59, 0
2, 13680, Note_on_c, 0, 58, 120
2, 14400, Note_on_c, 0, 57, 120
2, 14407, Note_off_c, 0, 58, 0
2, 14880, Note_off_c, 0, 57, 0
2, 14880, Note_on_c, 0, 56, 120
2, 15360, Note_off_c, 0, 56, 0
2, 34560, Note_on_c, 0, 65, 120
2, 34788, Note_off_c, 0, 65, 0
2, 34800, Note_on_c, 0, 68, 120
2, 35028, Note_off_c, 0, 68, 0
2, 35040, Note_on_c, 0, 65, 120
2, 35268, Note_off_c, 0, 65, 0
2, 35280, Note_on_c, 0, 61, 120
2, 35527, Note_off_c, 0, 61, 0
2, 42240, Note_on_c, 0, 65, 120
2, 42468, Note_off_c, 0, 65, 0
2, 42480, Note_on_c, 0, 68, 120
2, 42708, Note_off_c, 0, 68, 0
2, 42720, Note_on_c, 0, 65, 120
2, 42948, Note_off_c, 0, 65, 0
2, 42960, Note_on_c, 0, 61, 120
2, 43207, Note_off_c, 0, 61, 0
2, 46080, Note_on_c, 0, 65, 120
2, 46308, Note_off_c, 0, 65, 0
2, 46320, Note_on_c, 0, 68, 120
2, 46548, Note_off_c, 0, 68, 0
2, 46560, Note_on_c, 0, 65, 120
2, 46788, Note_off_c, 0, 65, 0
2, 46800, Note_on_c, 0, 61, 120
2, 47520, Note_on_c, 0, 59, 120
2, 47527, Note_off_c, 0, 61, 0
2, 48233, Note_off_c, 0, 59, 0
2, 48240, Note_on_c, 0, 58, 120
2, 48960, Note_on_c, 0, 57, 120
2, 48967, Note_off_c, 0, 58, 0
2, 49440, Note_off_c, 0, 57, 0
2, 49440, Note_on_c, 0, 56, 120
2, 49920, Note_off_c, 0, 56, 0
2, 49920, Note_on_c, 0, 65, 120
2, 50148, Note_off_c, 0, 65, 0
2, 50160, Note_on_c, 0, 68, 120
2, 50388, Note_off_c, 0, 68, 0
2, 50400, Note_on_c, 0, 65, 120
2, 50628, Note_off_c, 0, 65, 0
2, 50640, Note_on_c, 0, 61, 120
2, 51360, Note_on_c, 0, 59, 120
2, 51367, Note_off_c, 0, 61, 0
2, 52073, Note_off_c, 0, 59, 0
2, 52080, Note_on_c, 0, 58, 120
2, 52800, Note_on_c, 0, 57, 120
2, 52807, Note_off_c, 0, 58, 0
2, 53280, Note_off_c, 0, 57, 0
2, 53280, Note_on_c, 0, 56, 120
2, 53760, Note_off_c, 0, 56, 0
2, 53760, Note_on_c, 0, 65, 120
2, 53988, Note_off_c, 0, 65, 0
2, 54000, Note_on_c, 0, 68, 120
2, 54228, Note_off_c, 0, 68, 0
2, 54240, Note_on_c, 0, 65, 120
2, 54468, Note_off_c, 0, 65, 0
2, 54480, Note_on_c, 0, 61, 120
2, 55200, Note_on_c, 0, 59, 120
2, 55207, Note_off_c, 0, 61, 0
2, 55913, Note_off_c, 0, 59, 0
2, 55920, Note_on_c, 0, 58, 120
2, 56640, Note_on_c, 0, 57, 120
2, 56647, Note_off_c, 0, 58, 0
2, 57120, Note_off_c, 0, 57, 0
2, 57120, Note_on_c, 0, 56, 120
2, 57600, Note_off_c, 0, 56, 0
2, 57600, Note_on_c, 0, 65, 120
2, 57828, Note_off_c, 0, 65, 0
2, 57840, Note_on_c, 0, 68, 120
2, 58068, Note_off_c, 0, 68, 0
2, 58080, Note_on_c, 0, 65, 120
2, 58308, Note_off_c, 0, 65, 0
2, 58320, Note_on_c, 0, 61, 120
2, 59040, Note_on_c, 0, 59, 120
2, 59047, Note_off_c, 0, 61, 0
2, 59753, Note_off_c, 0, 59, 0
2, 59760, Note_on_c, 0, 58, 120
2, 60480, Note_on_c, 0, 57, 120
2, 60487, Note_off_c, 0, 58, 0
2, 60960, Note_off_c, 0, 57, 0
2, 60960, Note_on_c, 0, 56, 120
2, 61440, Note_off_c, 0, 56, 0
2, 61440, Note_on_c, 0, 65, 120
2, 61668, Note_off_c, 0, 65, 0
2, 61680, Note_on_c, 0, 68, 120
2, 61908, Note_off_c, 0, 68, 0
2, 61920, Note_on_c, 0, 65, 120
2, 62148, Note_off_c, 0, 65, 0
2, 62160, Note_on_c, 0, 61, 120
2, 62880, Note_on_c, 0, 59, 120
2, 62887, Note_off_c, 0, 61, 0
2, 63593, Note_off_c, 0, 59, 0
2, 63600, Note_on_c, 0, 58, 120
2, 64320, Note_on_c, 0, 57, 120
2, 64327, Note_off_c, 0, 58, 0
2, 64800, Note_off_c, 0, 57, 0
2, 64800, Note_on_c, 0, 56, 120
2, 65280, Note_off_c, 0, 56, 0
2, 65280, Note_on_c, 0, 65, 120
2, 65508, Note_off_c, 0, 65, 0
2, 65520, Note_on_c, 0, 68, 120
2, 65748, Note_off_c, 0, 68, 0
2, 65760, Note_on_c, 0, 65, 120
2, 65988, Note_off_c, 0, 65, 0
2, 66000, Note_on_c, 0, 61, 120
2, 66720, Note_on_c, 0, 59, 120
2, 66727, Note_off_c, 0, 61, 0
2, 67433, Note_off_c, 0, 59, 0
2, 67440, Note_on_c, 0, 58, 120
2, 68160, Note_on_c, 0, 57, 120
2, 68167, Note_off_c, 0, 58, 0
2, 68640, Note_off_c, 0, 57, 0
2, 68640, Note_on_c, 0, 56, 120
2, 69120, Note_off_c, 0, 56, 0
2, 69120, Note_on_c, 0, 65, 120
2, 69348, Note_off_c, 0, 65, 0
2, 69360, Note_on_c, 0, 68, 120
2, 69588, Note_off_c, 0, 68, 0
2, 69600, Note_on_c, 0, 65, 120
2, 69828, Note_off_c, 0, 65, 0
2, 69840, Note_on_c, 0, 61, 120
2, 70560, Note_on_c, 0, 59, 120
2, 70567, Note_off_c, 0, 61, 0
2, 71273, Note_off_c, 0, 59, 0
2, 71280, Note_on_c, 0, 58, 120
2, 72000, Note_on_c, 0, 57, 120
2, 72007, Note_off_c, 0, 58, 0
2, 72480, Note_off_c, 0, 57, 0
2, 72480, Note_on_c, 0, 56, 120
2, 72960, Note_off_c, 0, 56, 0
2, 72960, Note_on_c, 0, 65, 120
2, 73188, Note_off_c, 0, 65, 0
2, 73200, Note_on_c, 0, 68, 120
2, 73428, Note_off_c, 0, 68, 0
2, 73440, Note_on_c, 0, 65, 120
2, 73668, Note_off_c, 0, 65, 0
2, 73680, Note_on_c, 0, 61, 120
2, 73920, Note_on_c, 0, 65, 120
2, 73927, Note_off_c, 0, 61, 0
2, 74148, Note_off_c, 0, 65, 0
2, 74160, Note_on_c, 0, 68, 120
2, 74388, Note_off_c, 0, 68, 0
2, 74400, Note_on_c, 0, 65, 120
2, 74628, Note_off_c, 0, 65, 0
2, 74640, Note_on_c, 0, 61, 120
2, 74880, Note_on_c, 0, 65, 120
2, 74887, Note_off_c, 0, 61, 0
2, 75108, Note_off_c, 0, 65, 0
2, 75120, Note_on_c, 0, 68, 120
2, 75348, Note_off_c, 0, 68, 0
2, 75360, Note_on_c, 0, 65, 120
2, 75588, Note_off_c, 0, 65, 0
2, 75600, Note_on_c, 0, 68, 120
2, 75828, Note_off_c, 0, 68, 0
2, 75840, Note_on_c, 0, 65, 120
2, 76068, Note_off_c, 0, 65, 0
2, 76080, Note_on_c, 0, 65, 120
2, 76308, Note_off_c, 0, 65, 0
2, 76320, Note_on_c, 0, 65, 120
2, 76434, Note_off_c, 0, 65, 0
2, 76436, Note_on_c, 0, 65, 120
2, 76556, Note_off_c, 0, 65, 0
2, 76560, Note_on_c, 0, 65, 120
2, 76674, Note_off_c, 0, 65, 0
2, 76683, Note_on_c, 0, 65, 120
2, 76803, Note_off_c, 0, 65, 0
2, 107520, Note_on_c, 0, 65, 120
2, 107748, Note_off_c, 0, 65, 0
2, 107760, Note_on_c, 0, 68, 120
2, 107988, Note_off_c, 0, 68, 0
2, 108000, Note_on_c, 0, 65, 120
2, 108228, Note_off_c, 0, 65, 0
2, 108240, Note_on_c, 0, 61, 120
2, 108967, Note_off_c, 0, 61, 0
2, 111360, Note_on_c, 0, 65, 120
2, 111588, Note_off_c, 0, 65, 0
2, 111600, Note_on_c, 0, 68, 120
2, 111828, Note_off_c, 0, 68, 0
2, 111840, Note_on_c, 0, 65, 120
2, 112068, Note_off_c, 0, 65, 0
2, 112080, Note_on_c, 0, 61, 120
2, 112807, Note_off_c, 0, 61, 0
2, 115200, Note_on_c, 0, 65, 120
2, 115428, Note_off_c, 0, 65, 0
2, 115440, Note_on_c, 0, 68, 120
2, 115668, Note_off_c, 0, 68, 0
2, 115680, Note_on_c, 0, 65, 120
2, 115908, Note_off_c, 0, 65, 0
2, 115920, Note_on_c, 0, 61, 120
2, 116647, Note_off_c, 0, 61, 0
2, 119040, Note_on_c, 0, 65, 120
2, 119268, Note_off_c, 0, 65, 0
2, 119280, Note_on_c, 0, 68, 120
2, 119508, Note_off_c, 0, 68, 0
2, 119520, Note_on_c, 0, 65, 120
2, 119748, Note_off_c, 0, 65, 0
2, 119760, Note_on_c, 0, 61, 120
2, 120487, Note_off_c, 0, 61, 0
2, 138240, Note_on_c, 0, 65, 120
2, 138468, Note_off_c, 0, 65, 0
2, 138480, Note_on_c, 0, 68, 120
2, 138708, Note_off_c, 0, 68, 0
2, 138720, Note_on_c, 0, 65, 120
2, 138948, Note_off_c, 0, 65, 0
2, 138960, Note_on_c, 0, 61, 120
2, 139680, Note_on_c, 0, 59, 120
2, 139687, Note_off_c, 0, 61, 0
2, 140393, Note_off_c, 0, 59, 0
2, 140400, Note_on_c, 0, 58, 120
2, 141120, Note_on_c, 0, 57, 120
2, 141127, Note_off_c, 0, 58, 0
2, 141600, Note_off_c, 0, 57, 0
2, 141600, Note_on_c, 0, 56, 120
2, 142080, Note_off_c, 0, 56, 0
2, 142080, Note_on_c, 0, 65, 120
2, 142308, Note_off_c, 0, 65, 0
2, 142320, Note_on_c, 0, 68, 120
2, 142548, Note_off_c, 0, 68, 0
2, 142560, Note_on_c, 0, 65, 120
2, 142788, Note_off_c, 0, 65, 0
2, 142800, Note_on_c, 0, 61, 120
2, 143520, Note_on_c, 0, 59, 120
2, 143527, Note_off_c, 0, 61, 0
2, 144233, Note_off_c, 0, 59, 0
2, 144240, Note_on_c, 0, 58, 120
2, 144960, Note_on_c, 0, 57, 120
2, 144967, Note_off_c, 0, 58, 0
2, 145440, Note_off_c, 0, 57, 0
2, 145440, Note_on_c, 0, 56, 120
2, 145920, Note_off_c, 0, 56, 0
2, 145920, Note_on_c, 0, 65, 120
2, 146148, Note_off_c, 0, 65, 0
2, 146160, Note_on_c, 0, 68, 120
2, 146388, Note_off_c, 0, 68, 0
2, 146400, Note_on_c, 0, 65, 120
2, 146628, Note_off_c, 0, 65, 0
2, 146640, Note_on_c, 0, 61, 120
2, 147360, Note_on_c, 0, 59, 120
2, 147367, Note_off_c, 0, 61, 0
2, 148073, Note_off_c, 0, 59, 0
2, 148080, Note_on_c, 0, 58, 120
2, 148800, Note_on_c, 0, 57, 120
2, 148807, Note_off_c, 0, 58, 0
2, 149280, Note_off_c, 0, 57, 0
2, 149280, Note_on_c, 0, 56, 120
2, 149760, Note_off_c, 0, 56, 0
2, 149760, Note_on_c, 0, 65, 120
2, 149988, Note_off_c, 0, 65, 0
2, 150000, Note_on_c, 0, 68, 120
2, 150228, Note_off_c, 0, 68, 0
2, 150240, Note_on_c, 0, 65, 120
2, 150468, Note_off_c, 0, 65, 0
2, 150480, Note_on_c, 0, 61, 120
2, 151200, Note_on_c, 0, 59, 120
2, 151207, Note_off_c, 0, 61, 0
2, 151913, Note_off_c, 0, 59, 0
2, 151920, Note_on_c, 0, 58, 120
2, 152640, Note_on_c, 0, 57, 120
2, 152647, Note_off_c, 0, 58, 0
2, 153120, Note_off_c, 0, 57, 0
2, 153120, Note_on_c, 0, 56, 120
2, 153600, Note_off_c, 0, 56, 0
2, 153600, Note_on_c, 0, 65, 120
2, 153828, Note_off_c, 0, 65, 0
2, 153840, Note_on_c, 0, 68, 120
2, 154068, Note_off_c, 0, 68, 0
2, 154080, Note_on_c, 0, 65, 120
2, 154308, Note_off_c, 0, 65, 0
2, 154320, Note_on_c, 0, 61, 120
2, 155040, Note_on_c, 0, 59, 120
2, 155047, Note_off_c, 0, 61, 0
2, 155753, Note_off_c, 0, 59, 0
2, 155760, Note_on_c, 0, 58, 120
2, 156480, Note_on_c, 0, 57, 120
2, 156487, Note_off_c, 0, 58, 0
2, 156960, Note_off_c, 0, 57, 0
2, 156960, Note_on_c, 0, 56, 120
2, 157440, Note_off_c, 0, 56, 0
2, 157440, Note_on_c, 0, 65, 120
2, 157668, Note_off_c, 0, 65, 0
2, 157680, Note_on_c, 0, 68, 120
2, 157908, Note_off_c, 0, 68, 0
2, 157920, Note_on_c, 0, 65, 120
2, 158148, Note_off_c, 0, 65, 0
2, 158160, Note_on_c, 0, 61, 120
2, 158880, Note_on_c, 0, 59, 120
2, 158887, Note_off_c, 0, 61, 0
2, 159593, Note_off_c, 0, 59, 0
2, 159600, Note_on_c, 0, 58, 120
2, 160320, Note_on_c, 0, 57, 120
2, 160327, Note_off_c, 0, 58, 0
2, 160800, Note_off_c, 0, 57, 0
2, 160800, Note_on_c, 0, 56, 120
2, 161280, Note_off_c, 0, 56, 0
2, 161280, Note_on_c, 0, 65, 120
2, 161508, Note_off_c, 0, 65, 0
2, 161520, Note_on_c, 0, 68, 120
2, 161748, Note_off_c, 0, 68, 0
2, 161760, Note_on_c, 0, 65, 120
2, 161988, Note_off_c, 0, 65, 0
2, 162000, Note_on_c, 0, 61, 120
2, 162720, Note_on_c, 0, 59, 120
2, 162727, Note_off_c, 0, 61, 0
2, 163433, Note_off_c, 0, 59, 0
2, 163440, Note_on_c, 0, 58, 120
2, 164160, Note_on_c, 0, 57, 120
2, 164167, Note_off_c, 0, 58, 0
2, 164640, Note_off_c, 0, 57, 0
2, 164640, Note_on_c, 0, 56, 120
2, 165120, Note_off_c, 0, 56, 0
2, 165120, Note_on_c, 0, 65, 120
2, 165348, Note_off_c, 0, 65, 0
2, 165360, Note_on_c, 0, 68, 120
2, 165588, Note_off_c, 0, 68, 0
2, 165600, Note_on_c, 0, 65, 120
2, 165828, Note_off_c, 0, 65, 0
2, 165840, Note_on_c, 0, 61, 120
2, 166560, Note_on_c, 0, 59, 120
2, 166567, Note_off_c, 0, 61, 0
2, 167273, Note_off_c, 0, 59, 0
2, 167280, Note_on_c, 0, 58, 120
2, 168000, Note_on_c, 0, 57, 120
2, 168007, Note_off_c, 0, 58, 0
2, 168480, Note_off_c, 0, 57, 0
2, 168480, Note_on_c, 0, 56, 120
2, 168960, Note_off_c, 0, 56, 0
2, 168960, End_track
3, 0, Start_track
3, 0, Title_t, "tk2"
3, 0, MIDI_port, 0
3, 0, Channel_prefix, 1
3, 0, Control_c, 1, 7, 127
3, 0, Control_c, 1, 10, 65
3, 0, Program_c, 1, 32
3, 0, Note_on_c, 1, 37, 120
3, 713, Note_off_c, 1, 37, 0
3, 720, Note_on_c, 1, 44, 120
3, 1440, Note_on_c, 1, 47, 120
3, 1447, Note_off_c, 1, 44, 0
3, 2153, Note_off_c, 1, 47, 0
3, 2160, Note_on_c, 1, 42, 120
3, 2880, Note_on_c, 1, 45, 120
3, 2887, Note_off_c, 1, 42, 0
3, 3840, Note_off_c, 1, 45, 0
3, 3840, Note_on_c, 1, 37, 120
3, 4553, Note_off_c, 1, 37, 0
3, 4560, Note_on_c, 1, 44, 120
3, 5280, Note_on_c, 1, 47, 120
3, 5287, Note_off_c, 1, 44, 0
3, 5993, Note_off_c, 1, 47, 0
3, 6000, Note_on_c, 1, 42, 120
3, 6720, Note_on_c, 1, 45, 120
3, 6727, Note_off_c, 1, 42, 0
3, 7680, Note_off_c, 1, 45, 0
3, 7680, Note_on_c, 1, 37, 120
3, 8393, Note_off_c, 1, 37, 0
3, 8400, Note_on_c, 1, 44, 120
3, 9120, Note_on_c, 1, 47, 120
3, 9127, Note_off_c, 1, 44, 0
3, 9833, Note_off_c, 1, 47, 0
3, 9840, Note_on_c, 1, 42, 120
3, 10560, Note_on_c, 1, 45, 120
3, 10567, Note_off_c, 1, 42, 0
3, 11520, Note_off_c, 1, 45, 0
3, 11520, Note_on_c, 1, 37, 120
3, 12233, Note_off_c, 1, 37, 0
3, 12240, Note_on_c, 1, 44, 120
3, 12960, Note_on_c, 1, 47, 120
3, 12967, Note_off_c, 1, 44, 0
3, 13673, Note_off_c, 1, 47, 0
3, 13680, Note_on_c, 1, 42, 120
3, 14400, Note_on_c, 1, 45, 120
3, 14407, Note_off_c, 1, 42, 0
3, 15360, Note_off_c, 1, 45, 0
3, 15360, Note_on_c, 1, 37, 120
3, 16073, Note_off_c, 1, 37, 0
3, 16080, Note_on_c, 1, 44, 120
3, 16800, Note_on_c, 1, 47, 120
3, 16807, Note_off_c, 1, 44, 0
3, 17513, Note_off_c, 1, 47, 0
3, 17520, Note_on_c, 1, 42, 120
3, 18240, Note_on_c, 1, 45, 120
3, 18247, Note_off_c, 1, 42, 0
3, 19200, Note_off_c, 1, 45, 0
3, 19200, Note_on_c, 1, 37, 120
3, 19913, Note_off_c, 1, 37, 0
3, 19920, Note_on_c, 1, 44, 120
3, 20640, Note_on_c, 1, 47, 120
3, 20647, Note_off_c, 1, 44, 0
3, 21353, Note_off_c, 1, 47, 0
3, 21360, Note_on_c, 1, 42, 120
3, 22080, Note_on_c, 1, 45, 120
3, 22087, Note_off_c, 1, 42, 0
3, 23040, Note_off_c, 1, 45, 0
3, 23040, Note_on_c, 1, 37, 120
3, 23753, Note_off_c, 1, 37, 0
3, 23760, Note_on_c, 1, 44, 120
3, 24480, Note_on_c, 1, 47, 120
3, 24487, Note_off_c, 1, 44, 0
3, 25193, Note_off_c, 1, 47, 0
3, 25200, Note_on_c, 1, 42, 120
3, 25920, Note_on_c, 1, 45, 120
3, 25927, Note_off_c, 1, 42, 0
3, 26880, Note_off_c, 1, 45, 0
3, 26880, Note_on_c, 1, 37, 120
3, 27593, Note_off_c, 1, 37, 0
3, 27600, Note_on_c, 1, 44, 120
3, 28320, Note_on_c, 1, 47, 120
3, 28327, Note_off_c, 1, 44, 0
3, 29033, Note_off_c, 1, 47, 0
3, 29040, Note_on_c, 1, 42, 120
3, 29760, Note_on_c, 1, 45, 120
3, 29767, Note_off_c, 1, 42, 0
3, 30720, Note_off_c, 1, 45, 0
3, 30720, Note_on_c, 1, 37, 120
3, 31200, Note_off_c, 1, 37, 0
3, 38400, Note_on_c, 1, 37, 120
3, 38880, Note_off_c, 1, 37, 0
3, 46080, Note_on_c, 1, 37, 120
3, 46793, Note_off_c, 1, 37, 0
3, 46800, Note_on_c, 1, 44, 120
3, 47520, Note_on_c, 1, 47, 120
3, 47527, Note_off_c, 1, 44, 0
3, 48233, Note_off_c, 1, 47, 0
3, 48240, Note_on_c, 1, 42, 120
3, 48960, Note_on_c, 1, 45, 120
3, 48967, Note_off_c, 1, 42, 0
3, 49920, Note_off_c, 1, 45, 0
3, 49920, Note_on_c, 1, 37, 120
3, 50633, Note_off_c, 1, 37, 0
3, 50640, Note_on_c, 1, 44, 120
3, 51360, Note_on_c, 1, 47, 120
3, 51367, Note_off_c, 1, 44, 0
3, 52073, Note_off_c, 1, 47, 0
3, 52080, Note_on_c, 1, 42, 120
3, 52800, Note_on_c, 1, 45, 120
3, 52807, Note_off_c, 1, 42, 0
3, 53760, Note_off_c, 1, 45, 0
3, 53760, Note_on_c, 1, 37, 120
3, 54473, Note_off_c, 1, 37, 0
3, 54480, Note_on_c, 1, 44, 120
3, 55200, Note_on_c, 1, 47, 120
3, 55207, Note_off_c, 1, 44, 0
3, 55913, Note_off_c, 1, 47, 0
3, 55920, Note_on_c, 1, 42, 120
3, 56640, Note_on_c, 1, 45, 120
3, 56647, Note_off_c, 1, 42, 0
3, 57600, Note_off_c, 1, 45, 0
3, 57600, Note_on_c, 1, 37, 120
3, 58313, Note_off_c, 1, 37, 0
3, 58320, Note_on_c, 1, 44, 120
3, 59040, Note_on_c, 1, 47, 120
3, 59047, Note_off_c, 1, 44, 0
3, 59753, Note_off_c, 1, 47, 0
3, 59760, Note_on_c, 1, 42, 120
3, 60480, Note_on_c, 1, 45, 120
3, 60487, Note_off_c, 1, 42, 0
3, 61440, Note_off_c, 1, 45, 0
3, 61440, Note_on_c, 1, 37, 120
3, 62153, Note_off_c, 1, 37, 0
3, 62160, Note_on_c, 1, 44, 120
3, 62880, Note_on_c, 1, 47, 120
3, 62887, Note_off_c, 1, 44, 0
3, 63593, Note_off_c, 1, 47, 0
3, 63600, Note_on_c, 1, 42, 120
3, 64320, Note_on_c, 1, 45, 120
3, 64327, Note_off_c, 1, 42, 0
3, 65280, Note_off_c, 1, 45, 0
3, 65280, Note_on_c, 1, 37, 120
3, 65993, Note_off_c, 1, 37, 0
3, 66000, Note_on_c, 1, 44, 120
3, 66720, Note_on_c, 1, 47, 120
3, 66727, Note_off_c, 1, 44, 0
3, 67433, Note_off_c, 1, 47, 0
3, 67440, Note_on_c, 1, 42, 120
3, 68160, Note_on_c, 1, 45, 120
3, 68167, Note_off_c, 1, 42, 0
3, 69120, Note_off_c, 1, 45, 0
3, 69120, Note_on_c, 1, 37, 120
3, 69833, Note_off_c, 1, 37, 0
3, 69840, Note_on_c, 1, 44, 120
3, 70560, Note_on_c, 1, 47, 120
3, 70567, Note_off_c, 1, 44, 0
3, 71273, Note_off_c, 1, 47, 0
3, 71280, Note_on_c, 1, 42, 120
3, 72000, Note_on_c, 1, 45, 120
3, 72007, Note_off_c, 1, 42, 0
3, 72960, Note_off_c, 1, 45, 0
3, 72960, Note_on_c, 1, 37, 120
3, 73920, Note_off_c, 1, 37, 0
3, 73920, Note_on_c, 1, 37, 120
3, 74880, Note_off_c, 1, 37, 0
3, 74880, Note_on_c, 1, 37, 120
3, 75360, Note_off_c, 1, 37, 0
3, 75360, Note_on_c, 1, 37, 120
3, 75840, Note_off_c, 1, 37, 0
3, 75840, Note_on_c, 1, 37, 120
3, 76080, Note_off_c, 1, 37, 0
3, 76080, Note_on_c, 1, 37, 120
3, 76320, Note_off_c, 1, 37, 0
3, 76320, Note_on_c, 1, 37, 120
3, 76434, Note_off_c, 1, 37, 0
3, 76436, Note_on_c, 1, 37, 120
3, 76556, Note_off_c, 1, 37, 0
3, 76560, Note_on_c, 1, 37, 120
3, 76674, Note_off_c, 1, 37, 0
3, 76683, Note_on_c, 1, 37, 120
3, 76797, Note_off_c, 1, 37, 0
3, 76800, Note_on_c, 1, 37, 120
3, 77513, Note_off_c, 1, 37, 0
3, 77520, Note_on_c, 1, 44, 120
3, 78240, Note_on_c, 1, 47, 120
3, 78247, Note_off_c, 1, 44, 0
3, 78953, Note_off_c, 1, 47, 0
3, 78960, Note_on_c, 1, 42, 120
3, 79680, Note_on_c, 1, 45, 120
3, 79687, Note_off_c, 1, 42, 0
3, 80640, Note_off_c, 1, 45, 0
3, 80640, Note_on_c, 1, 37, 120
3, 81353, Note_off_c, 1, 37, 0
3, 81360, Note_on_c, 1, 44, 120
3, 82080, Note_on_c, 1, 47, 120
3, 82087, Note_off_c, 1, 44, 0
3, 82793, Note_off_c, 1, 47, 0
3, 82800, Note_on_c, 1, 42, 120
3, 83520, Note_on_c, 1, 45, 120
3, 83527, Note_off_c, 1, 42, 0
3, 84480, Note_off_c, 1, 45, 0
3, 84480, Note_on_c, 1, 37, 120
3, 85193, Note_off_c, 1, 37, 0
3, 85200, Note_on_c, 1, 44, 120
3, 85920, Note_on_c, 1, 47, 120
3, 85927, Note_off_c, 1, 44, 0
3, 86633, Note_off_c, 1, 47, 0
3, 86640, Note_on_c, 1, 42, 120
3, 87360, Note_on_c, 1, 45, 120
3, 87367, Note_off_c, 1, 42, 0
3, 88320, Note_off_c, 1, 45, 0
3, 88320, Note_on_c, 1, 37, 120
3, 89033, Note_off_c, 1, 37, 0
3, 89040, Note_on_c, 1, 44, 120
3, 89760, Note_on_c, 1, 47, 120
3, 89767, Note_off_c, 1, 44, 0
3, 90473, Note_off_c, 1, 47, 0
3, 90480, Note_on_c, 1, 42, 120
3, 91200, Note_on_c, 1, 45, 120
3, 91207, Note_off_c, 1, 42, 0
3, 92160, Note_off_c, 1, 45, 0
3, 92160, Note_on_c, 1, 37, 120
3, 92873, Note_off_c, 1, 37, 0
3, 92880, Note_on_c, 1, 44, 120
3, 93600, Note_on_c, 1, 47, 120
3, 93607, Note_off_c, 1, 44, 0
3, 94313, Note_off_c, 1, 47, 0
3, 94320, Note_on_c, 1, 42, 120
3, 95040, Note_on_c, 1, 45, 120
3, 95047, Note_off_c, 1, 42, 0
3, 96000, Note_off_c, 1, 45, 0
3, 96000, Note_on_c, 1, 37, 120
3, 96713, Note_off_c, 1, 37, 0
3, 96720, Note_on_c, 1, 44, 120
3, 97440, Note_on_c, 1, 47, 120
3, 97447, Note_off_c, 1, 44, 0
3, 98153, Note_off_c, 1, 47, 0
3, 98160, Note_on_c, 1, 42, 120
3, 98880, Note_on_c, 1, 45, 120
3, 98887, Note_off_c, 1, 42, 0
3, 99840, Note_off_c, 1, 45, 0
3, 99840, Note_on_c, 1, 37, 120
3, 100553, Note_off_c, 1, 37, 0
3, 100560, Note_on_c, 1, 44, 120
3, 101280, Note_on_c, 1, 47, 120
3, 101287, Note_off_c, 1, 44, 0
3, 101993, Note_off_c, 1, 47, 0
3, 102000, Note_on_c, 1, 42, 120
3, 102720, Note_on_c, 1, 45, 120
3, 102727, Note_off_c, 1, 42, 0
3, 103680, Note_off_c, 1, 45, 0
3, 103680, Note_on_c, 1, 37, 120
3, 104393, Note_off_c, 1, 37, 0
3, 104400, Note_on_c, 1, 44, 120
3, 105120, Note_on_c, 1, 47, 120
3, 105127, Note_off_c, 1, 44, 0
3, 105833, Note_off_c, 1, 47, 0
3, 105840, Note_on_c, 1, 42, 120
3, 106560, Note_on_c, 1, 45, 120
3, 106567, Note_off_c, 1, 42, 0
3, 107520, Note_off_c, 1, 45, 0
3, 107520, Note_on_c, 1, 37, 120
3, 108233, Note_off_c, 1, 37, 0
3, 108240, Note_on_c, 1, 44, 120
3, 108960, Note_on_c, 1, 47, 120
3, 108967, Note_off_c, 1, 44, 0
3, 109673, Note_off_c, 1, 47, 0
3, 109680, Note_on_c, 1, 42, 120
3, 110400, Note_on_c, 1, 45, 120
3, 110407, Note_off_c, 1, 42, 0
3, 111360, Note_off_c, 1, 45, 0
3, 111360, Note_on_c, 1, 37, 120
3, 112073, Note_off_c, 1, 37, 0
3, 112080, Note_on_c, 1, 44, 120
3, 112800, Note_on_c, 1, 47, 120
3, 112807, Note_off_c, 1, 44, 0
3, 113513, Note_off_c, 1, 47, 0
3, 113520, Note_on_c, 1, 42, 120
3, 114240, Note_on_c, 1, 45, 120
3, 114247, Note_off_c, 1, 42, 0
3, 115200, Note_off_c, 1, 45, 0
3, 115200, Note_on_c, 1, 37, 120
3, 115913, Note_off_c, 1, 37, 0
3, 115920, Note_on_c, 1, 44, 120
3, 116640, Note_on_c, 1, 47, 120
3, 116647, Note_off_c, 1, 44, 0
3, 117353, Note_off_c, 1, 47, 0
3, 117360, Note_on_c, 1, 42, 120
3, 118080, Note_on_c, 1, 45, 120
3, 118087, Note_off_c, 1, 42, 0
3, 119040, Note_off_c, 1, 45, 0
3, 119040, Note_on_c, 1, 37, 120
3, 119753, Note_off_c, 1, 37, 0
3, 119760, Note_on_c, 1, 44, 120
3, 120480, Note_on_c, 1, 47, 120
3, 120487, Note_off_c, 1, 44, 0
3, 121193, Note_off_c, 1, 47, 0
3, 121200, Note_on_c, 1, 42, 120
3, 121920, Note_on_c, 1, 45, 120
3, 121927, Note_off_c, 1, 42, 0
3, 122880, Note_off_c, 1, 45, 0
3, 138240, Note_on_c, 1, 37, 120
3, 138953, Note_off_c, 1, 37, 0
3, 138960, Note_on_c, 1, 44, 120
3, 139680, Note_on_c, 1, 47, 120
3, 139687, Note_off_c, 1, 44, 0
3, 140393, Note_off_c, 1, 47, 0
3, 140400, Note_on_c, 1, 42, 120
3, 141120, Note_on_c, 1, 45, 120
3, 141127, Note_off_c, 1, 42, 0
3, 142080, Note_off_c, 1, 45, 0
3, 142080, Note_on_c, 1, 37, 120
3, 142793, Note_off_c, 1, 37, 0
3, 142800, Note_on_c, 1, 44, 120
3, 143520, Note_on_c, 1, 47, 120
3, 143527, Note_off_c, 1, 44, 0
3, 144233, Note_off_c, 1, 47, 0
3, 144240, Note_on_c, 1, 42, 120
3, 144960, Note_on_c, 1, 45, 120
3, 144967, Note_off_c, 1, 42, 0
3, 145920, Note_off_c, 1, 45, 0
3, 145920, Note_on_c, 1, 37, 120
3, 146633, Note_off_c, 1, 37, 0
3, 146640, Note_on_c, 1, 44, 120
3, 147360, Note_on_c, 1, 47, 120
3, 147367, Note_off_c, 1, 44, 0
3, 148073, Note_off_c, 1, 47, 0
3, 148080, Note_on_c, 1, 42, 120
3, 148800, Note_on_c, 1, 45, 120
3, 148807, Note_off_c, 1, 42, 0
3, 149760, Note_off_c, 1, 45, 0
3, 149760, Note_on_c, 1, 37, 120
3, 150473, Note_off_c, 1, 37, 0
3, 150480, Note_on_c, 1, 44, 120
3, 151200, Note_on_c, 1, 47, 120
3, 151207, Note_off_c, 1, 44, 0
3, 151913, Note_off_c, 1, 47, 0
3, 151920, Note_on_c, 1, 42, 120
3, 152640, Note_on_c, 1, 45, 120
3, 152647, Note_off_c, 1, 42, 0
3, 153600, Note_off_c, 1, 45, 0
3, 153600, Note_on_c, 1, 37, 120
3, 154313, Note_off_c, 1, 37, 0
3, 154320, Note_on_c, 1, 44, 120
3, 155040, Note_on_c, 1, 47, 120
3, 155047, Note_off_c, 1, 44, 0
3, 155753, Note_off_c, 1, 47, 0
3, 155760, Note_on_c, 1, 42, 120
3, 156480, Note_on_c, 1, 45, 120
3, 156487, Note_off_c, 1, 42, 0
3, 157440, Note_off_c, 1, 45, 0
3, 157440, Note_on_c, 1, 37, 120
3, 158153, Note_off_c, 1, 37, 0
3, 158160, Note_on_c, 1, 44, 120
3, 158880, Note_on_c, 1, 47, 120
3, 158887, Note_off_c, 1, 44, 0
3, 159593, Note_off_c, 1, 47, 0
3, 159600, Note_on_c, 1, 42, 120
3, 160320, Note_on_c, 1, 45, 120
3, 160327, Note_off_c, 1, 42, 0
3, 161280, Note_off_c, 1, 45, 0
3, 161280, Note_on_c, 1, 37, 120
3, 161993, Note_off_c, 1, 37, 0
3, 162000, Note_on_c, 1, 44, 120
3, 162720, Note_on_c, 1, 47, 120
3, 162727, Note_off_c, 1, 44, 0
3, 163433, Note_off_c, 1, 47, 0
3, 163440, Note_on_c, 1, 42, 120
3, 164160, Note_on_c, 1, 45, 120
3, 164167, Note_off_c, 1, 42, 0
3, 165120, Note_off_c, 1, 45, 0
3, 165120, Note_on_c, 1, 37, 120
3, 165833, Note_off_c, 1, 37, 0
3, 165840, Note_on_c, 1, 44, 120
3, 166560, Note_on_c, 1, 47, 120
3, 166567, Note_off_c, 1, 44, 0
3, 167273, Note_off_c, 1, 47, 0
3, 167280, Note_on_c, 1, 42, 120
3, 168000, Note_on_c, 1, 45, 120
3, 168007, Note_off_c, 1, 42, 0
3, 168960, Note_off_c, 1, 45, 0
3, 168960, Note_on_c, 1, 37, 120
3, 169673, Note_off_c, 1, 37, 0
3, 169680, Note_on_c, 1, 44, 120
3, 170400, Note_on_c, 1, 47, 120
3, 170407, Note_off_c, 1, 44, 0
3, 171113, Note_off_c, 1, 47, 0
3, 171120, Note_on_c, 1, 42, 120
3, 171840, Note_on_c, 1, 45, 120
3, 171847, Note_off_c, 1, 42, 0
3, 172800, Note_off_c, 1, 45, 0
3, 172800, Note_on_c, 1, 37, 120
3, 173513, Note_off_c, 1, 37, 0
3, 173520, Note_on_c, 1, 44, 120
3, 174240, Note_on_c, 1, 47, 120
3, 174247, Note_off_c, 1, 44, 0
3, 174953, Note_off_c, 1, 47, 0
3, 174960, Note_on_c, 1, 42, 120
3, 175680, Note_on_c, 1, 45, 120
3, 175687, Note_off_c, 1, 42, 0
3, 176640, Note_off_c, 1, 45, 0
3, 176640, Note_on_c, 1, 37, 120
3, 177353, Note_off_c, 1, 37, 0
3, 177360, Note_on_c, 1, 44, 120
3, 178080, Note_on_c, 1, 47, 120
3, 178087, Note_off_c, 1, 44, 0
3, 178793, Note_off_c, 1, 47, 0
3, 178800, Note_on_c, 1, 42, 120
3, 179520, Note_on_c, 1, 45, 120
3, 179527, Note_off_c, 1, 42, 0
3, 180480, Note_off_c, 1, 45, 0
3, 180480, Note_on_c, 1, 37, 120
3, 181193, Note_off_c, 1, 37, 0
3, 181200, Note_on_c, 1, 44, 120
3, 181920, Note_on_c, 1, 47, 120
3, 181927, Note_off_c, 1, 44, 0
3, 182633, Note_off_c, 1, 47, 0
3, 182640, Note_on_c, 1, 42, 120
3, 183360, Note_on_c, 1, 45, 120
3, 183367, Note_off_c, 1, 42, 0
3, 184320, Note_off_c, 1, 45, 0
3, 184320, Note_on_c, 1, 37, 120
3, 185033, Note_off_c, 1, 37, 0
3, 185040, Note_on_c, 1, 44, 120
3, 185760, Note_on_c, 1, 47, 120
3, 185767, Note_off_c, 1, 44, 0
3, 186473, Note_off_c, 1, 47, 0
3, 186480, Note_on_c, 1, 42, 120
3, 187200, Note_on_c, 1, 45, 120
3, 187207, Note_off_c, 1, 42, 0
3, 188160, Note_off_c, 1, 45, 0
3, 188160, Note_on_c, 1, 37, 120
3, 188873, Note_off_c, 1, 37, 0
3, 188880, Note_on_c, 1, 44, 120
3, 189600, Note_on_c, 1, 47, 120
3, 189607, Note_off_c, 1, 44, 0
3, 190313, Note_off_c, 1, 47, 0
3, 190320, Note_on_c, 1, 42, 120
3, 191040, Note_on_c, 1, 45, 120
3, 191047, Note_off_c, 1, 42, 0
3, 192000, Note_off_c, 1, 45, 0
3, 192000, Note_on_c, 1, 37, 120
3, 192713, Note_off_c, 1, 37, 0
3, 192720, Note_on_c, 1, 44, 120
3, 193440, Note_on_c, 1, 47, 120
3, 193447, Note_off_c, 1, 44, 0
3, 194153, Note_off_c, 1, 47, 0
3, 194160, Note_on_c, 1, 42, 120
3, 194880, Note_on_c, 1, 45, 120
3, 194887, Note_off_c, 1, 42, 0
3, 195840, Note_off_c, 1, 45, 0
3, 195840, Note_on_c, 1, 37, 120
3, 196553, Note_off_c, 1, 37, 0
3, 196560, Note_on_c, 1, 44, 120
3, 197280, Note_on_c, 1, 47, 120
3, 197287, Note_off_c, 1, 44, 0
3, 197993, Note_off_c, 1, 47, 0
3, 198000, Note_on_c, 1, 42, 120
3, 198720, Note_on_c, 1, 45, 120
3, 198727, Note_off_c, 1, 42, 0
3, 199680, Note_off_c, 1, 45, 0
3, 199680, End_track
4, 0, Start_track
4, 0, Title_t, "tk3"
4, 0, MIDI_port, 0
4, 0, Channel_prefix, 2
4, 0, Control_c, 2, 7, 97
4, 0, Control_c, 2, 10, 65
4, 0, Program_c, 2, 35
4, 0, Note_on_c, 2, 44, 120
4, 713, Note_off_c, 2, 44, 0
4, 720, Note_on_c, 2, 44, 120
4, 1200, Note_off_c, 2, 44, 0
4, 1440, Note_on_c, 2, 44, 120
4, 1920, Note_off_c, 2, 44, 0
4, 2160, Note_on_c, 2, 42, 120
4, 2640, Note_off_c, 2, 42, 0
4, 2880, Note_on_c, 2, 45, 120
4, 3360, Note_off_c, 2, 45, 0
4, 3360, Note_on_c, 2, 42, 120
4, 3588, Note_off_c, 2, 42, 0
4, 3840, Note_on_c, 2, 44, 120
4, 4553, Note_off_c, 2, 44, 0
4, 4560, Note_on_c, 2, 44, 120
4, 5040, Note_off_c, 2, 44, 0
4, 5280, Note_on_c, 2, 44, 120
4, 5760, Note_off_c, 2, 44, 0
4, 6000, Note_on_c, 2, 42, 120
4, 6480, Note_off_c, 2, 42, 0
4, 6720, Note_on_c, 2, 45, 120
4, 7200, Note_off_c, 2, 45, 0
4, 7200, Note_on_c, 2, 42, 120
4, 7428, Note_off_c, 2, 42, 0
4, 7680, Note_on_c, 2, 44, 120
4, 8393, Note_off_c, 2, 44, 0
4, 8400, Note_on_c, 2, 44, 120
4, 8880, Note_off_c, 2, 44, 0
4, 9120, Note_on_c, 2, 44, 120
4, 9600, Note_off_c, 2, 44, 0
4, 9840, Note_on_c, 2, 42, 120
4, 10320, Note_off_c, 2, 42, 0
4, 10560, Note_on_c, 2, 45, 120
4, 11040, Note_off_c, 2, 45, 0
4, 11040, Note_on_c, 2, 42, 120
4, 11268, Note_off_c, 2, 42, 0
4, 11520, Note_on_c, 2, 44, 120
4, 12233, Note_off_c, 2, 44, 0
4, 12240, Note_on_c, 2, 44, 120
4, 12720, Note_off_c, 2, 44, 0
4, 12960, Note_on_c, 2, 44, 120
4, 13440, Note_off_c, 2, 44, 0
4, 13680, Note_on_c, 2, 42, 120
4, 14160, Note_off_c, 2, 42, 0
4, 14400, Note_on_c, 2, 45, 120
4, 14880, Note_off_c, 2, 45, 0
4, 14880, Note_on_c, 2, 42, 120
4, 15108, Note_off_c, 2, 42, 0
4, 15360, Note_on_c, 2, 44, 120
4, 16073, Note_off_c, 2, 44, 0
4, 16080, Note_on_c, 2, 44, 120
4, 16560, Note_off_c, 2, 44, 0
4, 16800, Note_on_c, 2, 44, 120
4, 17280, Note_off_c, 2, 44, 0
4, 17520, Note_on_c, 2, 42, 120
4, 18000, Note_off_c, 2, 42, 0
4, 18240, Note_on_c, 2, 45, 120
4, 18720, Note_off_c, 2, 45, 0
4, 18720, Note_on_c, 2, 42, 120
4, 18948, Note_off_c, 2, 42, 0
4, 19200, Note_on_c, 2, 44, 120
4, 19913, Note_off_c, 2, 44, 0
4, 19920, Note_on_c, 2, 44, 120
4, 20400, Note_off_c, 2, 44, 0
4, 20640, Note_on_c, 2, 44, 120
4, 21120, Note_off_c, 2, 44, 0
4, 21360, Note_on_c, 2, 42, 120
4, 21840, Note_off_c, 2, 42, 0
4, 22080, Note_on_c, 2, 45, 120
4, 22560, Note_off_c, 2, 45, 0
4, 22560, Note_on_c, 2, 42, 120
4, 22788, Note_off_c, 2, 42, 0
4, 23040, Note_on_c, 2, 44, 120
4, 23753, Note_off_c, 2, 44, 0
4, 23760, Note_on_c, 2, 44, 120
4, 24240, Note_off_c, 2, 44, 0
4, 24480, Note_on_c, 2, 44, 120
4, 24960, Note_off_c, 2, 44, 0
4, 25200, Note_on_c, 2, 42, 120
4, 25680, Note_off_c, 2, 42, 0
4, 25920, Note_on_c, 2, 45, 120
4, 26400, Note_off_c, 2, 45, 0
4, 26400, Note_on_c, 2, 42, 120
4, 26628, Note_off_c, 2, 42, 0
4, 26880, Note_on_c, 2, 44, 120
4, 27593, Note_off_c, 2, 44, 0
4, 27600, Note_on_c, 2, 44, 120
4, 28080, Note_off_c, 2, 44, 0
4, 28320, Note_on_c, 2, 44, 120
4, 28800, Note_off_c, 2, 44, 0
4, 29040, Note_on_c, 2, 42, 120
4, 29520, Note_off_c, 2, 42, 0
4, 29760, Note_on_c, 2, 45, 120
4, 30240, Note_off_c, 2, 45, 0
4, 30240, Note_on_c, 2, 42, 120
4, 30468, Note_off_c, 2, 42, 0
4, 30720, Note_on_c, 2, 44, 120
4, 31200, Note_off_c, 2, 44, 0
4, 38400, Note_on_c, 2, 44, 120
4, 38880, Note_off_c, 2, 44, 0
4, 46080, Note_on_c, 2, 44, 120
4, 46793, Note_off_c, 2, 44, 0
4, 46800, Note_on_c, 2, 44, 120
4, 47280, Note_off_c, 2, 44, 0
4, 47520, Note_on_c, 2, 44, 120
4, 48000, Note_off_c, 2, 44, 0
4, 48240, Note_on_c, 2, 42, 120
4, 48720, Note_off_c, 2, 42, 0
4, 48960, Note_on_c, 2, 45, 120
4, 49440, Note_off_c, 2, 45, 0
4, 49440, Note_on_c, 2, 42, 120
4, 49668, Note_off_c, 2, 42, 0
4, 49920, Note_on_c, 2, 44, 120
4, 50633, Note_off_c, 2, 44, 0
4, 50640, Note_on_c, 2, 44, 120
4, 51120, Note_off_c, 2, 44, 0
4, 51360, Note_on_c, 2, 44, 120
4, 51840, Note_off_c, 2, 44, 0
4, 52080, Note_on_c, 2, 42, 120
4, 52560, Note_off_c, 2, 42, 0
4, 52800, Note_on_c, 2, 45, 120
4, 53280, Note_off_c, 2, 45, 0
4, 53280, Note_on_c, 2, 42, 120
4, 53508, Note_off_c, 2, 42, 0
4, 53760, Note_on_c, 2, 44, 120
4, 54473, Note_off_c, 2, 44, 0
4, 54480, Note_on_c, 2, 44, 120
4, 54960, Note_off_c, 2, 44, 0
4, 55200, Note_on_c, 2, 44, 120
4, 55680, Note_off_c, 2, 44, 0
4, 55920, Note_on_c, 2, 42, 120
4, 56400, Note_off_c, 2, 42, 0
4, 56640, Note_on_c, 2, 45, 120
4, 57120, Note_off_c, 2, 45, 0
4, 57120, Note_on_c, 2, 42, 120
4, 57348, Note_off_c, 2, 42, 0
4, 57600, Note_on_c, 2, 44, 120
4, 58313, Note_off_c, 2, 44, 0
4, 58320, Note_on_c, 2, 44, 120
4, 58800, Note_off_c, 2, 44, 0
4, 59040, Note_on_c, 2, 44, 120
4, 59520, Note_off_c, 2, 44, 0
4, 59760, Note_on_c, 2, 42, 120
4, 60240, Note_off_c, 2, 42, 0
4, 60480, Note_on_c, 2, 45, 120
4, 60960, Note_off_c, 2, 45, 0
4, 60960, Note_on_c, 2, 42, 120
4, 61188, Note_off_c, 2, 42, 0
4, 61440, Note_on_c, 2, 44, 120
4, 62153, Note_off_c, 2, 44, 0
4, 62160, Note_on_c, 2, 44, 120
4, 62640, Note_off_c, 2, 44, 0
4, 62880, Note_on_c, 2, 44, 120
4, 63360, Note_off_c, 2, 44, 0
4, 63600, Note_on_c, 2, 42, 120
4, 64080, Note_off_c, 2, 42, 0
4, 64320, Note_on_c, 2, 45, 120
4, 64800, Note_off_c, 2, 45, 0
4, 64800, Note_on_c, 2, 42, 120
4, 65028, Note_off_c, 2, 42, 0
4, 65280, Note_on_c, 2, 44, 120
4, 65993, Note_off_c, 2, 44, 0
4, 66000, Note_on_c, 2, 44, 120
4, 66480, Note_off_c, 2, 44, 0
4, 66720, Note_on_c, 2, 44, 120
4, 67200, Note_off_c, 2, 44, 0
4, 67440, Note_on_c, 2, 42, 120
4, 67920, Note_off_c, 2, 42, 0
4, 68160, Note_on_c, 2, 45, 120
4, 68640, Note_off_c, 2, 45, 0
4, 68640, Note_on_c, 2, 42, 120
4, 68868, Note_off_c, 2, 42, 0
4, 69120, Note_on_c, 2, 44, 120
4, 69833, Note_off_c, 2, 44, 0
4, 69840, Note_on_c, 2, 44, 120
4, 70320, Note_off_c, 2, 44, 0
4, 70560, Note_on_c, 2, 44, 120
4, 71040, Note_off_c, 2, 44, 0
4, 71280, Note_on_c, 2, 42, 120
4, 71760, Note_off_c, 2, 42, 0
4, 72000, Note_on_c, 2, 45, 120
4, 72480, Note_off_c, 2, 45, 0
4, 72480, Note_on_c, 2, 42, 120
4, 72708, Note_off_c, 2, 42, 0
4, 72960, Note_on_c, 2, 44, 120
4, 73920, Note_off_c, 2, 44, 0
4, 73920, Note_on_c, 2, 44, 120
4, 74880, Note_off_c, 2, 44, 0
4, 74880, Note_on_c, 2, 44, 120
4, 75360, Note_off_c, 2, 44, 0
4, 75360, Note_on_c, 2, 44, 120
4, 75840, Note_off_c, 2, 44, 0
4, 75840, Note_on_c, 2, 44, 120
4, 76080, Note_off_c, 2, 44, 0
4, 76080, Note_on_c, 2, 44, 120
4, 76320, Note_off_c, 2, 44, 0
4, 76320, Note_on_c, 2, 44, 120
4, 76434, Note_off_c, 2, 44, 0
4, 76436, Note_on_c, 2, 44, 120
4, 76556, Note_off_c, 2, 44, 0
4, 76560, Note_on_c, 2, 44, 120
4, 76674, Note_off_c, 2, 44, 0
4, 76683, Note_on_c, 2, 44, 120
4, 76797, Note_off_c, 2, 44, 0
4, 76800, Note_on_c, 2, 44, 120
4, 77513, Note_off_c, 2, 44, 0
4, 77520, Note_on_c, 2, 44, 120
4, 78000, Note_off_c, 2, 44, 0
4, 78240, Note_on_c, 2, 44, 120
4, 78720, Note_off_c, 2, 44, 0
4, 78960, Note_on_c, 2, 42, 120
4, 79440, Note_off_c, 2, 42, 0
4, 79680, Note_on_c, 2, 45, 120
4, 80160, Note_off_c, 2, 45, 0
4, 80160, Note_on_c, 2, 42, 120
4, 80388, Note_off_c, 2, 42, 0
4, 80640, Note_on_c, 2, 44, 120
4, 81353, Note_off_c, 2, 44, 0
4, 81360, Note_on_c, 2, 44, 120
4, 81840, Note_off_c, 2, 44, 0
4, 82080, Note_on_c, 2, 44, 120
4, 82560, Note_off_c, 2, 44, 0
4, 82800, Note_on_c, 2, 42, 120
4, 83280, Note_off_c, 2, 42, 0
4, 83520, Note_on_c, 2, 45, 120
4, 84000, Note_off_c, 2, 45, 0
4, 84000, Note_on_c, 2, 42, 120
4, 84228, Note_off_c, 2, 42, 0
4, 84480, Note_on_c, 2, 44, 120
4, 85193, Note_off_c, 2, 44, 0
4, 85200, Note_on_c, 2, 44, 120
4, 85680, Note_off_c, 2, 44, 0
4, 85920, Note_on_c, 2, 44, 120
4, 86400, Note_off_c, 2, 44, 0
4, 86640, Note_on_c, 2, 42, 120
4, 87120, Note_off_c, 2, 42, 0
4, 87360, Note_on_c, 2, 45, 120
4, 87840, Note_off_c, 2, 45, 0
4, 87840, Note_on_c, 2, 42, 120
4, 88068, Note_off_c, 2, 42, 0
4, 88320, Note_on_c, 2, 44, 120
4, 89033, Note_off_c, 2, 44, 0
4, 89040, Note_on_c, 2, 44, 120
4, 89520, Note_off_c, 2, 44, 0
4, 89760, Note_on_c, 2, 44, 120
4, 90240, Note_off_c, 2, 44, 0
4, 90480, Note_on_c, 2, 42, 120
4, 90960, Note_off_c, 2, 42, 0
4, 91200, Note_on_c, 2, 45, 120
4, 91680, Note_off_c, 2, 45, 0
4, 91680, Note_on_c, 2, 42, 120
4, 91908, Note_off_c, 2, 42, 0
4, 92160, Note_on_c, 2, 44, 120
4, 92873, Note_off_c, 2, 44, 0
4, 92880, Note_on_c, 2, 44, 120
4, 93360, Note_off_c, 2, 44, 0
4, 93600, Note_on_c, 2, 44, 120
4, 94080, Note_off_c, 2, 44, 0
4, 94320, Note_on_c, 2, 42, 120
4, 94800, Note_off_c, 2, 42, 0
4, 95040, Note_on_c, 2, 45, 120
4, 95520, Note_off_c, 2, 45, 0
4, 95520, Note_on_c, 2, 42, 120
4, 95748, Note_off_c, 2, 42, 0
4, 96000, Note_on_c, 2, 44, 120
4, 96713, Note_off_c, 2, 44, 0
4, 96720, Note_on_c, 2, 44, 120
4, 97200, Note_off_c, 2, 44, 0
4, 97440, Note_on_c, 2, 44, 120
4, 97920, Note_off_c, 2, 44, 0
4, 98160, Note_on_c, 2, 42, 120
4, 98640, Note_off_c, 2, 42, 0
4, 98880, Note_on_c, 2, 45, 120
4, 99360, Note_off_c, 2, 45, 0
4, 99360, Note_on_c, 2, 42, 120
4, 99588, Note_off_c, 2, 42, 0
4, 99840, Note_on_c, 2, 44, 120
4, 100553, Note_off_c, 2, 44, 0
4, 100560, Note_on_c, 2, 44, 120
4, 101040, Note_off_c, 2, 44, 0
4, 101280, Note_on_c, 2, 44, 120
4, 101760, Note_off_c, 2, 44, 0
4, 102000, Note_on_c, 2, 42, 120
4, 102480, Note_off_c, 2, 42, 0
4, 102720, Note_on_c, 2, 45, 120
4, 103200, Note_off_c, 2, 45, 0
4, 103200, Note_on_c, 2, 42, 120
4, 103428, Note_off_c, 2, 42, 0
4, 103680, Note_on_c, 2, 44, 120
4, 104393, Note_off_c, 2, 44, 0
4, 104400, Note_on_c, 2, 44, 120
4, 104880, Note_off_c, 2, 44, 0
4, 105120, Note_on_c, 2, 44, 120
4, 105600, Note_off_c, 2, 44, 0
4, 105840, Note_on_c, 2, 42, 120
4, 106320, Note_off_c, 2, 42, 0
4, 106560, Note_on_c, 2, 45, 120
4, 107040, Note_off_c, 2, 45, 0
4, 107040, Note_on_c, 2, 42, 120
4, 107268, Note_off_c, 2, 42, 0
4, 107520, Note_on_c, 2, 44, 120
4, 108233, Note_off_c, 2, 44, 0
4, 108240, Note_on_c, 2, 44, 120
4, 108720, Note_off_c, 2, 44, 0
4, 108960, Note_on_c, 2, 44, 120
4, 109440, Note_off_c, 2, 44, 0
4, 109680, Note_on_c, 2, 42, 120
4, 110160, Note_off_c, 2, 42, 0
4, 110400, Note_on_c, 2, 45, 120
4, 110880, Note_off_c, 2, 45, 0
4, 110880, Note_on_c, 2, 42, 120
4, 111108, Note_off_c, 2, 42, 0
4, 111360, Note_on_c, 2, 44, 120
4, 112073, Note_off_c, 2, 44, 0
4, 112080, Note_on_c, 2, 44, 120
4, 112560, Note_off_c, 2, 44, 0
4, 112800, Note_on_c, 2, 44, 120
4, 113280, Note_off_c, 2, 44, 0
4, 113520, Note_on_c, 2, 42, 120
4, 114000, Note_off_c, 2, 42, 0
4, 114240, Note_on_c, 2, 45, 120
4, 114720, Note_off_c, 2, 45, 0
4, 114720, Note_on_c, 2, 42, 120
4, 114948, Note_off_c, 2, 42, 0
4, 115200, Note_on_c, 2, 44, 120
4, 115913, Note_off_c, 2, 44, 0
4, 115920, Note_on_c, 2, 44, 120
4, 116400, Note_off_c, 2, 44, 0
4, 116640, Note_on_c, 2, 44, 120
4, 117120, Note_off_c, 2, 44, 0
4, 117360, Note_on_c, 2, 42, 120
4, 117840, Note_off_c, 2, 42, 0
4, 118080, Note_on_c, 2, 45, 120
4, 118560, Note_off_c, 2, 45, 0
4, 118560, Note_on_c, 2, 42, 120
4, 118788, Note_off_c, 2, 42, 0
4, 119040, Note_on_c, 2, 44, 120
4, 119753, Note_off_c, 2, 44, 0
4, 119760, Note_on_c, 2, 44, 120
4, 120240, Note_off_c, 2, 44, 0
4, 120480, Note_on_c, 2, 44, 120
4, 120960, Note_off_c, 2, 44, 0
4, 121200, Note_on_c, 2, 42, 120
4, 121680, Note_off_c, 2, 42, 0
4, 121920, Note_on_c, 2, 45, 120
4, 122400, Note_off_c, 2, 45, 0
4, 122400, Note_on_c, 2, 42, 120
4, 122628, Note_off_c, 2, 42, 0
4, 138240, Note_on_c, 2, 44, 120
4, 138953, Note_off_c, 2, 44, 0
4, 138960, Note_on_c, 2, 44, 120
4, 139440, Note_off_c, 2, 44, 0
4, 139680, Note_on_c, 2, 44, 120
4, 140160, Note_off_c, 2, 44, 0
4, 140400, Note_on_c, 2, 42, 120
4, 140880, Note_off_c, 2, 42, 0
4, 141120, Note_on_c, 2, 45, 120
4, 141600, Note_off_c, 2, 45, 0
4, 141600, Note_on_c, 2, 42, 120
4, 141828, Note_off_c, 2, 42, 0
4, 142080, Note_on_c, 2, 44, 120
4, 142793, Note_off_c, 2, 44, 0
4, 142800, Note_on_c, 2, 44, 120
4, 143280, Note_off_c, 2, 44, 0
4, 143520, Note_on_c, 2, 44, 120
4, 144000, Note_off_c, 2, 44, 0
4, 144240, Note_on_c, 2, 42, 120
4, 144720, Note_off_c, 2, 42, 0
4, 144960, Note_on_c, 2, 45, 120
4, 145440, Note_off_c, 2, 45, 0
4, 145440, Note_on_c, 2, 42, 120
4, 145668, Note_off_c, 2, 42, 0
4, 145920, Note_on_c, 2, 44, 120
4, 146633, Note_off_c, 2, 44, 0
4, 146640, Note_on_c, 2, 44, 120
4, 147120, Note_off_c, 2, 44, 0
4, 147360, Note_on_c, 2, 44, 120
4, 147840, Note_off_c, 2, 44, 0
4, 148080, Note_on_c, 2, 42, 120
4, 148560, Note_off_c, 2, 42, 0
4, 148800, Note_on_c, 2, 45, 120
4, 149280, Note_off_c, 2, 45, 0
4, 149280, Note_on_c, 2, 42, 120
4, 149508, Note_off_c, 2, 42, 0
4, 149760, Note_on_c, 2, 44, 120
4, 150473, Note_off_c, 2, 44, 0
4, 150480, Note_on_c, 2, 44, 120
4, 150960, Note_off_c, 2, 44, 0
4, 151200, Note_on_c, 2, 44, 120
4, 151680, Note_off_c, 2, 44, 0
4, 151920, Note_on_c, 2, 42, 120
4, 152400, Note_off_c, 2, 42, 0
4, 152640, Note_on_c, 2, 45, 120
4, 153120, Note_off_c, 2, 45, 0
4, 153120, Note_on_c, 2, 42, 120
4, 153348, Note_off_c, 2, 42, 0
4, 153600, Note_on_c, 2, 44, 120
4, 154313, Note_off_c, 2, 44, 0
4, 154320, Note_on_c, 2, 44, 120
4, 154800, Note_off_c, 2, 44, 0
4, 155040, Note_on_c, 2, 44, 120
4, 155520, Note_off_c, 2, 44, 0
4, 155760, Note_on_c, 2, 42, 120
4, 156240, Note_off_c, 2, 42, 0
4, 156480, Note_on_c, 2, 45, 120
4, 156960, Note_off_c, 2, 45, 0
4, 156960, Note_on_c, 2, 42, 120
4, 157188, Note_off_c, 2, 42, 0
4, 157440, Note_on_c, 2, 44, 120
4, 158153, Note_off_c, 2, 44, 0
4, 158160, Note_on_c, 2, 44, 120
4, 158640, Note_off_c, 2, 44, 0
4, 158880, Note_on_c, 2, 44, 120
4, 159360, Note_off_c, 2, 44, 0
4, 159600, Note_on_c, 2, 42, 120
4, 160080, Note_off_c, 2, 42, 0
4, 160320, Note_on_c, 2, 45, 120
4, 160800, Note_off_c, 2, 45, 0
4, 160800, Note_on_c, 2, 42, 120
4, 161028, Note_off_c, 2, 42, 0
4, 161280, Note_on_c, 2, 44, 120
4, 161993, Note_off_c, 2, 44, 0
4, 162000, Note_on_c, 2, 44, 120
4, 162480, Note_off_c, 2, 44, 0
4, 162720, Note_on_c, 2, 44, 120
4, 163200, Note_off_c, 2, 44, 0
4, 163440, Note_on_c, 2, 42, 120
4, 163920, Note_off_c, 2, 42, 0
4, 164160, Note_on_c, 2, 45, 120
4, 164640, Note_off_c, 2, 45, 0
4, 164640, Note_on_c, 2, 42, 120
4, 164868, Note_off_c, 2, 42, 0
4, 165120, Note_on_c, 2, 44, 120
4, 165833, Note_off_c, 2, 44, 0
4, 165840, Note_on_c, 2, 44, 120
4, 166320, Note_off_c, 2, 44, 0
4, 166560, Note_on_c, 2, 44, 120
4, 167040, Note_off_c, 2, 44, 0
4, 167280, Note_on_c, 2, 42, 120
4, 167760, Note_off_c, 2, 42, 0
4, 168000, Note_on_c, 2, 45, 120
4, 168480, Note_off_c, 2, 45, 0
4, 168480, Note_on_c, 2, 42, 120
4, 168708, Note_off_c, 2, 42, 0
4, 168960, Note_on_c, 2, 44, 120
4, 169673, Note_off_c, 2, 44, 0
4, 169680, Note_on_c, 2, 44, 120
4, 170160, Note_off_c, 2, 44, 0
4, 170400, Note_on_c, 2, 44, 120
4, 170880, Note_off_c, 2, 44, 0
4, 171120, Note_on_c, 2, 42, 120
4, 171600, Note_off_c, 2, 42, 0
4, 171840, Note_on_c, 2, 45, 120
4, 172320, Note_off_c, 2, 45, 0
4, 172320, Note_on_c, 2, 42, 120
4, 172548, Note_off_c, 2, 42, 0
4, 172800, Note_on_c, 2, 44, 120
4, 173513, Note_off_c, 2, 44, 0
4, 173520, Note_on_c, 2, 44, 120
4, 174000, Note_off_c, 2, 44, 0
4, 174240, Note_on_c, 2, 44, 120
4, 174720, Note_off_c, 2, 44, 0
4, 174960, Note_on_c, 2, 42, 120
4, 175440, Note_off_c, 2, 42, 0
4, 175680, Note_on_c, 2, 45, 120
4, 176160, Note_off_c, 2, 45, 0
4, 176160, Note_on_c, 2, 42, 120
4, 176388, Note_off_c, 2, 42, 0
4, 176640, Note_on_c, 2, 44, 120
4, 177353, Note_off_c, 2, 44, 0
4, 177360, Note_on_c, 2, 44, 120
4, 177840, Note_off_c, 2, 44, 0
4, 178080, Note_on_c, 2, 44, 120
4, 178560, Note_off_c, 2, 44, 0
4, 178800, Note_on_c, 2, 42, 120
4, 179280, Note_off_c, 2, 42, 0
4, 179520, Note_on_c, 2, 45, 120
4, 180000, Note_off_c, 2, 45, 0
4, 180000, Note_on_c, 2, 42, 120
4, 180228, Note_off_c, 2, 42, 0
4, 180480, Note_on_c, 2, 44, 120
4, 181193, Note_off_c, 2, 44, 0
4, 181200, Note_on_c, 2, 44, 120
4, 181680, Note_off_c, 2, 44, 0
4, 181920, Note_on_c, 2, 44, 120
4, 182400, Note_off_c, 2, 44, 0
4, 182640, Note_on_c, 2, 42, 120
4, 183120, Note_off_c, 2, 42, 0
4, 183360, Note_on_c, 2, 45, 120
4, 183840, Note_off_c, 2, 45, 0
4, 183840, Note_on_c, 2, 42, 120
4, 184068, Note_off_c, 2, 42, 0
4, 184320, Note_on_c, 2, 44, 120
4, 185033, Note_off_c, 2, 44, 0
4, 185040, Note_on_c, 2, 44, 120
4, 185520, Note_off_c, 2, 44, 0
4, 185760, Note_on_c, 2, 44, 120
4, 186240, Note_off_c, 2, 44, 0
4, 186480, Note_on_c, 2, 42, 120
4, 186960, Note_off_c, 2, 42, 0
4, 187200, Note_on_c, 2, 45, 120
4, 187680, Note_off_c, 2, 45, 0
4, 187680, Note_on_c, 2, 42, 120
4, 187908, Note_off_c, 2, 42, 0
4, 188160, Note_on_c, 2, 44, 120
4, 188873, Note_off_c, 2, 44, 0
4, 188880, Note_on_c, 2, 44, 120
4, 189360, Note_off_c, 2, 44, 0
4, 189600, Note_on_c, 2, 44, 120
4, 190080, Note_off_c, 2, 44, 0
4, 190320, Note_on_c, 2, 42, 120
4, 190800, Note_off_c, 2, 42, 0
4, 191040, Note_on_c, 2, 45, 120
4, 191520, Note_off_c, 2, 45, 0
4, 191520, Note_on_c, 2, 42, 120
4, 191748, Note_off_c, 2, 42, 0
4, 192000, Note_on_c, 2, 44, 120
4, 192713, Note_off_c, 2, 44, 0
4, 192720, Note_on_c, 2, 44, 120
4, 193200, Note_off_c, 2, 44, 0
4, 193440, Note_on_c, 2, 44, 120
4, 193920, Note_off_c, 2, 44, 0
4, 194160, Note_on_c, 2, 42, 120
4, 194640, Note_off_c, 2, 42, 0
4, 194880, Note_on_c, 2, 45, 120
4, 195360, Note_off_c, 2, 45, 0
4, 195360, Note_on_c, 2, 42, 120
4, 195588, Note_off_c, 2, 42, 0
4, 195840, Note_on_c, 2, 44, 120
4, 196553, Note_off_c, 2, 44, 0
4, 196560, Note_on_c, 2, 44, 120
4, 197040, Note_off_c, 2, 44, 0
4, 197280, Note_on_c, 2, 44, 120
4, 197760, Note_off_c, 2, 44, 0
4, 198000, Note_on_c, 2, 42, 120
4, 198480, Note_off_c, 2, 42, 0
4, 198720, Note_on_c, 2, 45, 120
4, 199200, Note_off_c, 2, 45, 0
4, 199200, Note_on_c, 2, 42, 120
4, 199440, Note_off_c, 2, 42, 0
4, 199440, End_track
5, 0, Start_track
5, 0, Title_t, "tk4"
5, 0, MIDI_port, 0
5, 0, Channel_prefix, 3
5, 0, Control_c, 3, 7, 127
5, 0, Control_c, 3, 10, 65
5, 0, Program_c, 3, 54
5, 0, Note_on_c, 3, 65, 120
5, 228, Note_off_c, 3, 65, 0
5, 240, Note_on_c, 3, 68, 120
5, 468, Note_off_c, 3, 68, 0
5, 480, Note_on_c, 3, 65, 120
5, 708, Note_off_c, 3, 65, 0
5, 720, Note_on_c, 3, 61, 120
5, 1440, Note_on_c, 3, 59, 120
5, 1447, Note_off_c, 3, 61, 0
5, 2153, Note_off_c, 3, 59, 0
5, 2160, Note_on_c, 3, 58, 120
5, 2880, Note_on_c, 3, 57, 120
5, 2887, Note_off_c, 3, 58, 0
5, 3360, Note_off_c, 3, 57, 0
5, 3360, Note_on_c, 3, 56, 120
5, 3840, Note_off_c, 3, 56, 0
5, 3840, Note_on_c, 3, 65, 120
5, 4068, Note_off_c, 3, 65, 0
5, 4080, Note_on_c, 3, 68, 120
5, 4308, Note_off_c, 3, 68, 0
5, 4320, Note_on_c, 3, 65, 120
5, 4548, Note_off_c, 3, 65, 0
5, 4560, Note_on_c, 3, 61, 120
5, 5280, Note_on_c, 3, 59, 120
5, 5287, Note_off_c, 3, 61, 0
5, 5993, Note_off_c, 3, 59, 0
5, 6000, Note_on_c, 3, 58, 120
5, 6720, Note_on_c, 3, 57, 120
5, 6727, Note_off_c, 3, 58, 0
5, 7200, Note_off_c, 3, 57, 0
5, 7200, Note_on_c, 3, 56, 120
5, 7680, Note_off_c, 3, 56, 0
5, 7680, Note_on_c, 3, 65, 120
5, 7908, Note_off_c, 3, 65, 0
5, 7920, Note_on_c, 3, 68, 120
5, 8148, Note_off_c, 3, 68, 0
5, 8160, Note_on_c, 3, 65, 120
5, 8388, Note_off_c, 3, 65, 0
5, 8400, Note_on_c, 3, 61, 120
5, 9120, Note_on_c, 3, 59, 120
5, 9127, Note_off_c, 3, 61, 0
5, 9833, Note_off_c, 3, 59, 0
5, 9840, Note_on_c, 3, 58, 120
5, 10560, Note_on_c, 3, 57, 120
5, 10567, Note_off_c, 3, 58, 0
5, 11040, Note_off_c, 3, 57, 0
5, 11040, Note_on_c, 3, 56, 120
5, 11520, Note_off_c, 3, 56, 0
5, 11520, Note_on_c, 3, 65, 120
5, 11748, Note_off_c, 3, 65, 0
5, 11760, Note_on_c, 3, 68, 120
5, 11988, Note_off_c, 3, 68, 0
5, 12000, Note_on_c, 3, 65, 120
5, 12228, Note_off_c, 3, 65, 0
5, 12240, Note_on_c, 3, 61, 120
5, 12960, Note_on_c, 3, 59, 120
5, 12967, Note_off_c, 3, 61, 0
5, 13673, Note_off_c, 3, 59, 0
5, 13680, Note_on_c, 3, 58, 120
5, 14400, Note_on_c, 3, 57, 120
5, 14407, Note_off_c, 3, 58, 0
5, 14880, Note_off_c, 3, 57, 0
5, 14880, Note_on_c, 3, 56, 120
5, 15360, Note_off_c, 3, 56, 0
5, 15360, Note_on_c, 3, 65, 120
5, 15588, Note_off_c, 3, 65, 0
5, 15600, Note_on_c, 3, 68, 120
5, 15828, Note_off_c, 3, 68, 0
5, 15840, Note_on_c, 3, 65, 120
5, 16068, Note_off_c, 3, 65, 0
5, 16080, Note_on_c, 3, 61, 120
5, 16800, Note_on_c, 3, 59, 120
5, 16807, Note_off_c, 3, 61, 0
5, 17513, Note_off_c, 3, 59, 0
5, 17520, Note_on_c, 3, 58, 120
5, 18240, Note_on_c, 3, 57, 120
5, 18247, Note_off_c, 3, 58, 0
5, 18720, Note_off_c, 3, 57, 0
5, 18720, Note_on_c, 3, 56, 120
5, 19200, Note_off_c, 3, 56, 0
5, 19200, Note_on_c, 3, 65, 120
5, 19428, Note_off_c, 3, 65, 0
5, 19440, Note_on_c, 3, 68, 120
5, 19668, Note_off_c, 3, 68, 0
5, 19680, Note_on_c, 3, 65, 120
5, 19908, Note_off_c, 3, 65, 0
5, 19920, Note_on_c, 3, 61, 120
5, 20640, Note_on_c, 3, 59, 120
5, 20647, Note_off_c, 3, 61, 0
5, 21353, Note_off_c, 3, 59, 0
5, 21360, Note_on_c, 3, 58, 120
5, 22080, Note_on_c, 3, 57, 120
5, 22087, Note_off_c, 3, 58, 0
5, 22560, Note_off_c, 3, 57, 0
5, 22560, Note_on_c, 3, 56, 120
5, 23040, Note_off_c, 3, 56, 0
5, 23040, Note_on_c, 3, 65, 120
5, 23268, Note_off_c, 3, 65, 0
5, 23280, Note_on_c, 3, 68, 120
5, 23508, Note_off_c, 3, 68, 0
5, 23520, Note_on_c, 3, 65, 120
5, 23748, Note_off_c, 3, 65, 0
5, 23760, Note_on_c, 3, 61, 120
5, 24480, Note_on_c, 3, 59, 120
5, 24487, Note_off_c, 3, 61, 0
5, 25193, Note_off_c, 3, 59, 0
5, 25200, Note_on_c, 3, 58, 120
5, 25920, Note_on_c, 3, 57, 120
5, 25927, Note_off_c, 3, 58, 0
5, 26400, Note_off_c, 3, 57, 0
5, 26400, Note_on_c, 3, 56, 120
5, 26880, Note_off_c, 3, 56, 0
5, 26880, Note_on_c, 3, 65, 120
5, 27108, Note_off_c, 3, 65, 0
5, 27120, Note_on_c, 3, 68, 120
5, 27348, Note_off_c, 3, 68, 0
5, 27360, Note_on_c, 3, 65, 120
5, 27588, Note_off_c, 3, 65, 0
5, 27600, Note_on_c, 3, 61, 120
5, 28320, Note_on_c, 3, 59, 120
5, 28327, Note_off_c, 3, 61, 0
5, 29033, Note_off_c, 3, 59, 0
5, 29040, Note_on_c, 3, 58, 120
5, 29760, Note_on_c, 3, 57, 120
5, 29767, Note_off_c, 3, 58, 0
5, 30240, Note_off_c, 3, 57, 0
5, 30240, Note_on_c, 3, 56, 120
5, 30720, Note_off_c, 3, 56, 0
5, 34560, Note_on_c, 3, 65, 120
5, 34788, Note_off_c, 3, 65, 0
5, 34800, Note_on_c, 3, 68, 120
5, 35028, Note_off_c, 3, 68, 0
5, 35040, Note_on_c, 3, 65, 120
5, 35268, Note_off_c, 3, 65, 0
5, 35280, Note_on_c, 3, 61, 120
5, 35527, Note_off_c, 3, 61, 0
5, 42240, Note_on_c, 3, 65, 120
5, 42468, Note_off_c, 3, 65, 0
5, 42480, Note_on_c, 3, 68, 120
5, 42708, Note_off_c, 3, 68, 0
5, 42720, Note_on_c, 3, 65, 120
5, 42948, Note_off_c, 3, 65, 0
5, 42960, Note_on_c, 3, 61, 120
5, 43207, Note_off_c, 3, 61, 0
5, 46080, Note_on_c, 3, 65, 120
5, 46308, Note_off_c, 3, 65, 0
5, 46320, Note_on_c, 3, 68, 120
5, 46548, Note_off_c, 3, 68, 0
5, 46560, Note_on_c, 3, 65, 120
5, 46788, Note_off_c, 3, 65, 0
5, 46800, Note_on_c, 3, 61, 120
5, 47520, Note_on_c, 3, 59, 120
5, 47527, Note_off_c, 3, 61, 0
5, 48233, Note_off_c, 3, 59, 0
5, 48240, Note_on_c, 3, 58, 120
5, 48960, Note_on_c, 3, 57, 120
5, 48967, Note_off_c, 3, 58, 0
5, 49440, Note_off_c, 3, 57, 0
5, 49440, Note_on_c, 3, 56, 120
5, 49920, Note_off_c, 3, 56, 0
5, 49920, Note_on_c, 3, 65, 120
5, 50148, Note_off_c, 3, 65, 0
5, 50160, Note_on_c, 3, 68, 120
5, 50388, Note_off_c, 3, 68, 0
5, 50400, Note_on_c, 3, 65, 120
5, 50628, Note_off_c, 3, 65, 0
5, 50640, Note_on_c, 3, 61, 120
5, 51360, Note_on_c, 3, 59, 120
5, 51367, Note_off_c, 3, 61, 0
5, 52073, Note_off_c, 3, 59, 0
5, 52080, Note_on_c, 3, 58, 120
5, 52800, Note_on_c, 3, 57, 120
5, 52807, Note_off_c, 3, 58, 0
5, 53280, Note_off_c, 3, 57, 0
5, 53280, Note_on_c, 3, 56, 120
5, 53760, Note_off_c, 3, 56, 0
5, 53760, Note_on_c, 3, 65, 120
5, 53988, Note_off_c, 3, 65, 0
5, 54000, Note_on_c, 3, 68, 120
5, 54228, Note_off_c, 3, 68, 0
5, 54240, Note_on_c, 3, 65, 120
5, 54468, Note_off_c, 3, 65, 0
5, 54480, Note_on_c, 3, 61, 120
5, 55200, Note_on_c, 3, 59, 120
5, 55207, Note_off_c, 3, 61, 0
5, 55913, Note_off_c, 3, 59, 0
5, 55920, Note_on_c, 3, 58, 120
5, 56640, Note_on_c, 3, 57, 120
5, 56647, Note_off_c, 3, 58, 0
5, 57120, Note_off_c, 3, 57, 0
5, 57120, Note_on_c, 3, 56, 120
5, 57600, Note_off_c, 3, 56, 0
5, 57600, Note_on_c, 3, 65, 120
5, 57828, Note_off_c, 3, 65, 0
5, 57840, Note_on_c, 3, 68, 120
5, 58068, Note_off_c, 3, 68, 0
5, 58080, Note_on_c, 3, 65, 120
5, 58308, Note_off_c, 3, 65, 0
5, 58320, Note_on_c, 3, 61, 120
5, 59040, Note_on_c, 3, 59, 120
5, 59047, Note_off_c, 3, 61, 0
5, 59753, Note_off_c, 3, 59, 0
5, 59760, Note_on_c, 3, 58, 120
5, 60480, Note_on_c, 3, 57, 120
5, 60487, Note_off_c, 3, 58, 0
5, 60960, Note_off_c, 3, 57, 0
5, 60960, Note_on_c, 3, 56, 120
5, 61440, Note_off_c, 3, 56, 0
5, 61440, Note_on_c, 3, 65, 120
5, 61668, Note_off_c, 3, 65, 0
5, 61680, Note_on_c, 3, 68, 120
5, 61908, Note_off_c, 3, 68, 0
5, 61920, Note_on_c, 3, 65, 120
5, 62148, Note_off_c, 3, 65, 0
5, 62160, Note_on_c, 3, 61, 120
5, 62880, Note_on_c, 3, 59, 120
5, 62887, Note_off_c, 3, 61, 0
5, 63593, Note_off_c, 3, 59, 0
5, 63600, Note_on_c, 3, 58, 120
5, 64320, Note_on_c, 3, 57, 120
5, 64327, Note_off_c, 3, 58, 0
5, 64800, Note_off_c, 3, 57, 0
5, 64800, Note_on_c, 3, 56, 120
5, 65280, Note_off_c, 3, 56, 0
5, 65280, Note_on_c, 3, 65, 120
5, 65508, Note_off_c, 3, 65, 0
5, 65520, Note_on_c, 3, 68, 120
5, 65748, Note_off_c, 3, 68, 0
5, 65760, Note_on_c, 3, 65, 120
5, 65988, Note_off_c, 3, 65, 0
5, 66000, Note_on_c, 3, 61, 120
5, 66720, Note_on_c, 3, 59, 120
5, 66727, Note_off_c, 3, 61, 0
5, 67433, Note_off_c, 3, 59, 0
5, 67440, Note_on_c, 3, 58, 120
5, 68160, Note_on_c, 3, 57, 120
5, 68167, Note_off_c, 3, 58, 0
5, 68640, Note_off_c, 3, 57, 0
5, 68640, Note_on_c, 3, 56, 120
5, 69120, Note_off_c, 3, 56, 0
5, 69120, Note_on_c, 3, 65, 120
5, 69348, Note_off_c, 3, 65, 0
5, 69360, Note_on_c, 3, 68, 120
5, 69588, Note_off_c, 3, 68, 0
5, 69600, Note_on_c, 3, 65, 120
5, 69828, Note_off_c, 3, 65, 0
5, 69840, Note_on_c, 3, 61, 120
5, 70560, Note_on_c, 3, 59, 120
5, 70567, Note_off_c, 3, 61, 0
5, 71273, Note_off_c, 3, 59, 0
5, 71280, Note_on_c, 3, 58, 120
5, 72000, Note_on_c, 3, 57, 120
5, 72007, Note_off_c, 3, 58, 0
5, 72480, Note_off_c, 3, 57, 0
5, 72480, Note_on_c, 3, 56, 120
5, 72960, Note_off_c, 3, 56, 0
5, 72960, Note_on_c, 3, 65, 120
5, 73188, Note_off_c, 3, 65, 0
5, 73200, Note_on_c, 3, 68, 120
5, 73428, Note_off_c, 3, 68, 0
5, 73440, Note_on_c, 3, 65, 120
5, 73668, Note_off_c, 3, 65, 0
5, 73680, Note_on_c, 3, 61, 120
5, 73920, Note_on_c, 3, 65, 120
5, 73927, Note_off_c, 3, 61, 0
5, 74148, Note_off_c, 3, 65, 0
5, 74160, Note_on_c, 3, 68, 120
5, 74388, Note_off_c, 3, 68, 0
5, 74400, Note_on_c, 3, 65, 120
5, 74628, Note_off_c, 3, 65, 0
5, 74640, Note_on_c, 3, 61, 120
5, 74880, Note_on_c, 3, 65, 120
5, 74887, Note_off_c, 3, 61, 0
5, 75108, Note_off_c, 3, 65, 0
5, 75120, Note_on_c, 3, 68, 120
5, 75348, Note_off_c, 3, 68, 0
5, 75360, Note_on_c, 3, 65, 120
5, 75588, Note_off_c, 3, 65, 0
5, 75600, Note_on_c, 3, 68, 120
5, 75828, Note_off_c, 3, 68, 0
5, 75840, Note_on_c, 3, 65, 120
5, 76068, Note_off_c, 3, 65, 0
5, 76080, Note_on_c, 3, 65, 120
5, 76308, Note_off_c, 3, 65, 0
5, 76320, Note_on_c, 3, 65, 120
5, 76434, Note_off_c, 3, 65, 0
5, 76436, Note_on_c, 3, 65, 120
5, 76556, Note_off_c, 3, 65, 0
5, 76560, Note_on_c, 3, 65, 120
5, 76674, Note_off_c, 3, 65, 0
5, 76683, Note_on_c, 3, 65, 120
5, 76803, Note_off_c, 3, 65, 0
5, 107520, Note_on_c, 3, 65, 120
5, 107748, Note_off_c, 3, 65, 0
5, 107760, Note_on_c, 3, 68, 120
5, 107988, Note_off_c, 3, 68, 0
5, 108000, Note_on_c, 3, 65, 120
5, 108228, Note_off_c, 3, 65, 0
5, 108240, Note_on_c, 3, 61, 120
5, 108960, Note_on_c, 3, 59, 120
5, 108967, Note_off_c, 3, 61, 0
5, 109673, Note_off_c, 3, 59, 0
5, 109680, Note_on_c, 3, 58, 120
5, 110400, Note_on_c, 3, 57, 120
5, 110407, Note_off_c, 3, 58, 0
5, 110880, Note_off_c, 3, 57, 0
5, 110880, Note_on_c, 3, 56, 120
5, 111360, Note_off_c, 3, 56, 0
5, 111360, Note_on_c, 3, 65, 120
5, 111588, Note_off_c, 3, 65, 0
5, 111600, Note_on_c, 3, 68, 120
5, 111828, Note_off_c, 3, 68, 0
5, 111840, Note_on_c, 3, 65, 120
5, 112068, Note_off_c, 3, 65, 0
5, 112080, Note_on_c, 3, 61, 120
5, 112800, Note_on_c, 3, 59, 120
5, 112807, Note_off_c, 3, 61, 0
5, 113513, Note_off_c, 3, 59, 0
5, 113520, Note_on_c, 3, 58, 120
5, 114240, Note_on_c, 3, 57, 120
5, 114247, Note_off_c, 3, 58, 0
5, 114720, Note_off_c, 3, 57, 0
5, 114720, Note_on_c, 3, 56, 120
5, 115200, Note_off_c, 3, 56, 0
5, 115200, Note_on_c, 3, 65, 120
5, 115428, Note_off_c, 3, 65, 0
5, 115440, Note_on_c, 3, 68, 120
5, 115668, Note_off_c, 3, 68, 0
5, 115680, Note_on_c, 3, 65, 120
5, 115908, Note_off_c, 3, 65, 0
5, 115920, Note_on_c, 3, 61, 120
5, 116640, Note_on_c, 3, 59, 120
5, 116647, Note_off_c, 3, 61, 0
5, 117353, Note_off_c, 3, 59, 0
5, 117360, Note_on_c, 3, 58, 120
5, 118080, Note_on_c, 3, 57, 120
5, 118087, Note_off_c, 3, 58, 0
5, 118560, Note_off_c, 3, 57, 0
5, 118560, Note_on_c, 3, 56, 120
5, 119040, Note_off_c, 3, 56, 0
5, 119040, Note_on_c, 3, 65, 120
5, 119268, Note_off_c, 3, 65, 0
5, 119280, Note_on_c, 3, 68, 120
5, 119508, Note_off_c, 3, 68, 0
5, 119520, Note_on_c, 3, 65, 120
5, 119748, Note_off_c, 3, 65, 0
5, 119760, Note_on_c, 3, 61, 120
5, 120480, Note_on_c, 3, 59, 120
5, 120487, Note_off_c, 3, 61, 0
5, 121193, Note_off_c, 3, 59, 0
5, 121200, Note_on_c, 3, 58, 120
5, 121920, Note_on_c, 3, 57, 120
5, 121927, Note_off_c, 3, 58, 0
5, 122400, Note_off_c, 3, 57, 0
5, 122400, Note_on_c, 3, 56, 120
5, 122880, Note_off_c, 3, 56, 0
5, 138240, Note_on_c, 3, 65, 120
5, 138468, Note_off_c, 3, 65, 0
5, 138480, Note_on_c, 3, 68, 120
5, 138708, Note_off_c, 3, 68, 0
5, 138720, Note_on_c, 3, 65, 120
5, 138948, Note_off_c, 3, 65, 0
5, 138960, Note_on_c, 3, 61, 120
5, 139680, Note_on_c, 3, 59, 120
5, 139687, Note_off_c, 3, 61, 0
5, 140393, Note_off_c, 3, 59, 0
5, 140400, Note_on_c, 3, 58, 120
5, 141120, Note_on_c, 3, 57, 120
5, 141127, Note_off_c, 3, 58, 0
5, 141600, Note_off_c, 3, 57, 0
5, 141600, Note_on_c, 3, 56, 120
5, 142080, Note_off_c, 3, 56, 0
5, 142080, Note_on_c, 3, 65, 120
5, 142308, Note_off_c, 3, 65, 0
5, 142320, Note_on_c, 3, 68, 120
5, 142548, Note_off_c, 3, 68, 0
5, 142560, Note_on_c, 3, 65, 120
5, 142788, Note_off_c, 3, 65, 0
5, 142800, Note_on_c, 3, 61, 120
5, 143520, Note_on_c, 3, 59, 120
5, 143527, Note_off_c, 3, 61, 0
5, 144233, Note_off_c, 3, 59, 0
5, 144240, Note_on_c, 3, 58, 120
5, 144960, Note_on_c, 3, 57, 120
5, 144967, Note_off_c, 3, 58, 0
5, 145440, Note_off_c, 3, 57, 0
5, 145440, Note_on_c, 3, 56, 120
5, 145920, Note_off_c, 3, 56, 0
5, 145920, Note_on_c, 3, 65, 120
5, 146148, Note_off_c, 3, 65, 0
5, 146160, Note_on_c, 3, 68, 120
5, 146388, Note_off_c, 3, 68, 0
5, 146400, Note_on_c, 3, 65, 120
5, 146628, Note_off_c, 3, 65, 0
5, 146640, Note_on_c, 3, 61, 120
5, 147360, Note_on_c, 3, 59, 120
5, 147367, Note_off_c, 3, 61, 0
5, 148073, Note_off_c, 3, 59, 0
5, 148080, Note_on_c, 3, 58, 120
5, 148800, Note_on_c, 3, 57, 120
5, 148807, Note_off_c, 3, 58, 0
5, 149280, Note_off_c, 3, 57, 0
5, 149280, Note_on_c, 3, 56, 120
5, 149760, Note_off_c, 3, 56, 0
5, 149760, Note_on_c, 3, 65, 120
5, 149988, Note_off_c, 3, 65, 0
5, 150000, Note_on_c, 3, 68, 120
5, 150228, Note_off_c, 3, 68, 0
5, 150240, Note_on_c, 3, 65, 120
5, 150468, Note_off_c, 3, 65, 0
5, 150480, Note_on_c, 3, 61, 120
5, 151200, Note_on_c, 3, 59, 120
5, 151207, Note_off_c, 3, 61, 0
5, 151913, Note_off_c, 3, 59, 0
5, 151920, Note_on_c, 3, 58, 120
5, 152640, Note_on_c, 3, 57, 120
5, 152647, Note_off_c, 3, 58, 0
5, 153120, Note_off_c, 3, 57, 0
5, 153120, Note_on_c, 3, 56, 120
5, 153600, Note_off_c, 3, 56, 0
5, 153600, Note_on_c, 3, 65, 120
5, 153828, Note_off_c, 3, 65, 0
5, 153840, Note_on_c, 3, 68, 120
5, 154068, Note_off_c, 3, 68, 0
5, 154080, Note_on_c, 3, 65, 120
5, 154308, Note_off_c, 3, 65, 0
5, 154320, Note_on_c, 3, 61, 120
5, 155040, Note_on_c, 3, 59, 120
5, 155047, Note_off_c, 3, 61, 0
5, 155753, Note_off_c, 3, 59, 0
5, 155760, Note_on_c, 3, 58, 120
5, 156480, Note_on_c, 3, 57, 120
5, 156487, Note_off_c, 3, 58, 0
5, 156960, Note_off_c, 3, 57, 0
5, 156960, Note_on_c, 3, 56, 120
5, 157440, Note_off_c, 3, 56, 0
5, 157440, Note_on_c, 3, 65, 120
5, 157668, Note_off_c, 3, 65, 0
5, 157680, Note_on_c, 3, 68, 120
5, 157908, Note_off_c, 3, 68, 0
5, 157920, Note_on_c, 3, 65, 120
5, 158148, Note_off_c, 3, 65, 0
5, 158160, Note_on_c, 3, 61, 120
5, 158880, Note_on_c, 3, 59, 120
5, 158887, Note_off_c, 3, 61, 0
5, 159593, Note_off_c, 3, 59, 0
5, 159600, Note_on_c, 3, 58, 120
5, 160320, Note_on_c, 3, 57, 120
5, 160327, Note_off_c, 3, 58, 0
5, 160800, Note_off_c, 3, 57, 0
5, 160800, Note_on_c, 3, 56, 120
5, 161280, Note_off_c, 3, 56, 0
5, 161280, Note_on_c, 3, 65, 120
5, 161508, Note_off_c, 3, 65, 0
5, 161520, Note_on_c, 3, 68, 120
5, 161748, Note_off_c, 3, 68, 0
5, 161760, Note_on_c, 3, 65, 120
5, 161988, Note_off_c, 3, 65, 0
5, 162000, Note_on_c, 3, 61, 120
5, 162720, Note_on_c, 3, 59, 120
5, 162727, Note_off_c, 3, 61, 0
5, 163433, Note_off_c, 3, 59, 0
5, 163440, Note_on_c, 3, 58, 120
5, 164160, Note_on_c, 3, 57, 120
5, 164167, Note_off_c, 3, 58, 0
5, 164640, Note_off_c, 3, 57, 0
5, 164640, Note_on_c, 3, 56, 120
5, 165120, Note_off_c, 3, 56, 0
5, 165120, Note_on_c, 3, 65, 120
5, 165348, Note_off_c, 3, 65, 0
5, 165360, Note_on_c, 3, 68, 120
5, 165588, Note_off_c, 3, 68, 0
5, 165600, Note_on_c, 3, 65, 120
5, 165828, Note_off_c, 3, 65, 0
5, 165840, Note_on_c, 3, 61, 120
5, 166560, Note_on_c, 3, 59, 120
5, 166567, Note_off_c, 3, 61, 0
5, 167273, Note_off_c, 3, 59, 0
5, 167280, Note_on_c, 3, 58, 120
5, 168000, Note_on_c, 3, 57, 120
5, 168007, Note_off_c, 3, 58, 0
5, 168480, Note_off_c, 3, 57, 0
5, 168480, Note_on_c, 3, 56, 120
5, 168960, Note_off_c, 3, 56, 0
5, 168960, Note_on_c, 3, 65, 120
5, 169188, Note_off_c, 3, 65, 0
5, 169200, Note_on_c, 3, 68, 120
5, 169428, Note_off_c, 3, 68, 0
5, 169440, Note_on_c, 3, 65, 120
5, 169668, Note_off_c, 3, 65, 0
5, 169680, Note_on_c, 3, 61, 120
5, 170400, Note_on_c, 3, 59, 120
5, 170407, Note_off_c, 3, 61, 0
5, 171113, Note_off_c, 3, 59, 0
5, 171120, Note_on_c, 3, 58, 120
5, 171840, Note_on_c, 3, 57, 120
5, 171847, Note_off_c, 3, 58, 0
5, 172320, Note_off_c, 3, 57, 0
5, 172320, Note_on_c, 3, 56, 120
5, 172800, Note_off_c, 3, 56, 0
5, 172800, Note_on_c, 3, 65, 120
5, 173028, Note_off_c, 3, 65, 0
5, 173040, Note_on_c, 3, 68, 120
5, 173268, Note_off_c, 3, 68, 0
5, 173280, Note_on_c, 3, 65, 120
5, 173508, Note_off_c, 3, 65, 0
5, 173520, Note_on_c, 3, 61, 120
5, 174240, Note_on_c, 3, 59, 120
5, 174247, Note_off_c, 3, 61, 0
5, 174953, Note_off_c, 3, 59, 0
5, 174960, Note_on_c, 3, 58, 120
5, 175680, Note_on_c, 3, 57, 120
5, 175687, Note_off_c, 3, 58, 0
5, 176160, Note_off_c, 3, 57, 0
5, 176160, Note_on_c, 3, 56, 120
5, 176640, Note_off_c, 3, 56, 0
5, 176640, Note_on_c, 3, 65, 120
5, 176868, Note_off_c, 3, 65, 0
5, 176880, Note_on_c, 3, 68, 120
5, 177108, Note_off_c, 3, 68, 0
5, 177120, Note_on_c, 3, 65, 120
5, 177348, Note_off_c, 3, 65, 0
5, 177360, Note_on_c, 3, 61, 120
5, 178080, Note_on_c, 3, 59, 120
5, 178087, Note_off_c, 3, 61, 0
5, 178793, Note_off_c, 3, 59, 0
5, 178800, Note_on_c, 3, 58, 120
5, 179520, Note_on_c, 3, 57, 120
5, 179527, Note_off_c, 3, 58, 0
5, 180000, Note_off_c, 3, 57, 0
5, 180000, Note_on_c, 3, 56, 120
5, 180480, Note_off_c, 3, 56, 0
5, 180480, Note_on_c, 3, 65, 120
5, 180708, Note_off_c, 3, 65, 0
5, 180720, Note_on_c, 3, 68, 120
5, 180948, Note_off_c, 3, 68, 0
5, 180960, Note_on_c, 3, 65, 120
5, 181188, Note_off_c, 3, 65, 0
5, 181200, Note_on_c, 3, 61, 120
5, 181920, Note_on_c, 3, 59, 120
5, 181927, Note_off_c, 3, 61, 0
5, 182633, Note_off_c, 3, 59, 0
5, 182640, Note_on_c, 3, 58, 120
5, 183360, Note_on_c, 3, 57, 120
5, 183367, Note_off_c, 3, 58, 0
5, 183840, Note_off_c, 3, 57, 0
5, 183840, Note_on_c, 3, 56, 120
5, 184320, Note_off_c, 3, 56, 0
5, 184320, Note_on_c, 3, 65, 120
5, 184548, Note_off_c, 3, 65, 0
5, 184560, Note_on_c, 3, 68, 120
5, 184788, Note_off_c, 3, 68, 0
5, 184800, Note_on_c, 3, 65, 120
5, 185028, Note_off_c, 3, 65, 0
5, 185040, Note_on_c, 3, 61, 120
5, 185760, Note_on_c, 3, 59, 120
5, 185767, Note_off_c, 3, 61, 0
5, 186473, Note_off_c, 3, 59, 0
5, 186480, Note_on_c, 3, 58, 120
5, 187200, Note_on_c, 3, 57, 120
5, 187207, Note_off_c, 3, 58, 0
5, 187680, Note_off_c, 3, 57, 0
5, 187680, Note_on_c, 3, 56, 120
5, 188160, Note_off_c, 3, 56, 0
5, 188160, Note_on_c, 3, 65, 120
5, 188388, Note_off_c, 3, 65, 0
5, 188400, Note_on_c, 3, 68, 120
5, 188628, Note_off_c, 3, 68, 0
5, 188640, Note_on_c, 3, 65, 120
5, 188868, Note_off_c, 3, 65, 0
5, 188880, Note_on_c, 3, 61, 120
5, 189600, Note_on_c, 3, 59, 120
5, 189607, Note_off_c, 3, 61, 0
5, 190313, Note_off_c, 3, 59, 0
5, 190320, Note_on_c, 3, 58, 120
5, 191040, Note_on_c, 3, 57, 120
5, 191047, Note_off_c, 3, 58, 0
5, 191520, Note_off_c, 3, 57, 0
5, 191520, Note_on_c, 3, 56, 120
5, 192000, Note_off_c, 3, 56, 0
5, 192000, Note_on_c, 3, 65, 120
5, 192228, Note_off_c, 3, 65, 0
5, 192240, Note_on_c, 3, 68, 120
5, 192468, Note_off_c, 3, 68, 0
5, 192480, Note_on_c, 3, 65, 120
5, 192708, Note_off_c, 3, 65, 0
5, 192720, Note_on_c, 3, 61, 120
5, 193440, Note_on_c, 3, 59, 120
5, 193447, Note_off_c, 3, 61, 0
5, 194153, Note_off_c, 3, 59, 0
5, 194160, Note_on_c, 3, 58, 120
5, 194880, Note_on_c, 3, 57, 120
5, 194887, Note_off_c, 3, 58, 0
5, 195360, Note_off_c, 3, 57, 0
5, 195360, Note_on_c, 3, 56, 120
5, 195840, Note_off_c, 3, 56, 0
5, 195840, Note_on_c, 3, 65, 120
5, 196068, Note_off_c, 3, 65, 0
5, 196080, Note_on_c, 3, 68, 120
5, 196308, Note_off_c, 3, 68, 0
5, 196320, Note_on_c, 3, 65, 120
5, 196548, Note_off_c, 3, 65, 0
5, 196560, Note_on_c, 3, 61, 120
5, 197280, Note_on_c, 3, 59, 120
5, 197287, Note_off_c, 3, 61, 0
5, 197993, Note_off_c, 3, 59, 0
5, 198000, Note_on_c, 3, 58, 120
5, 198720, Note_on_c, 3, 57, 120
5, 198727, Note_off_c, 3, 58, 0
5, 199200, Note_off_c, 3, 57, 0
5, 199200, Note_on_c, 3, 56, 120
5, 199680, Note_off_c, 3, 56, 0
5, 199680, End_track
6, 0, Start_track
6, 0, Title_t, "tk5"
6, 0, MIDI_port, 0
6, 0, Channel_prefix, 4
6, 0, Control_c, 4, 7, 117
6, 0, Control_c, 4, 10, 66
6, 0, Program_c, 4, 24
6, 15840, Note_on_c, 4, 64, 120
6, 15840, Note_on_c, 4, 61, 120
6, 16068, Note_off_c, 4, 61, 0
6, 16068, Note_off_c, 4, 64, 0
6, 16080, Note_on_c, 4, 64, 120
6, 16080, Note_on_c, 4, 61, 120
6, 16308, Note_off_c, 4, 61, 0
6, 16308, Note_off_c, 4, 64, 0
6, 16320, Note_on_c, 4, 64, 120
6, 16320, Note_on_c, 4, 61, 120
6, 16548, Note_off_c, 4, 61, 0
6, 16548, Note_off_c, 4, 64, 0
6, 16560, Note_on_c, 4, 64, 120
6, 16560, Note_on_c, 4, 61, 120
6, 16788, Note_off_c, 4, 61, 0
6, 16807, Note_off_c, 4, 64, 0
6, 17040, Note_on_c, 4, 64, 120
6, 17040, Note_on_c, 4, 60, 120
6, 17268, Note_off_c, 4, 60, 0
6, 17268, Note_off_c, 4, 64, 0
6, 17520, Note_on_c, 4, 63, 120
6, 17520, Note_on_c, 4, 54, 120
6, 17748, Note_off_c, 4, 54, 0
6, 17767, Note_off_c, 4, 63, 0
6, 18000, Note_on_c, 4, 63, 120
6, 18000, Note_on_c, 4, 54, 120
6, 18228, Note_off_c, 4, 54, 0
6, 18228, Note_off_c, 4, 63, 0
6, 18480, Note_on_c, 4, 62, 120
6, 18480, Note_on_c, 4, 57, 120
6, 19207, Note_off_c, 4, 57, 0
6, 19207, Note_off_c, 4, 62, 0
6, 19680, Note_on_c, 4, 64, 120
6, 19680, Note_on_c, 4, 61, 120
6, 19908, Note_off_c, 4, 61, 0
6, 19908, Note_off_c, 4, 64, 0
6, 19920, Note_on_c, 4, 64, 120
6, 19920, Note_on_c, 4, 61, 120
6, 20148, Note_off_c, 4, 61, 0
6, 20148, Note_off_c, 4, 64, 0
6, 20160, Note_on_c, 4, 64, 120
6, 20160, Note_on_c, 4, 61, 120
6, 20388, Note_off_c, 4, 61, 0
6, 20388, Note_off_c, 4, 64, 0
6, 20400, Note_on_c, 4, 64, 120
6, 20400, Note_on_c, 4, 61, 120
6, 20628, Note_off_c, 4, 61, 0
6, 20647, Note_off_c, 4, 64, 0
6, 20880, Note_on_c, 4, 64, 120
6, 20880, Note_on_c, 4, 60, 120
6, 21108, Note_off_c, 4, 60, 0
6, 21108, Note_off_c, 4, 64, 0
6, 21360, Note_on_c, 4, 63, 120
6, 21360, Note_on_c, 4, 54, 120
6, 21588, Note_off_c, 4, 54, 0
6, 21607, Note_off_c, 4, 63, 0
6, 21840, Note_on_c, 4, 63, 120
6, 21840, Note_on_c, 4, 54, 120
6, 22068, Note_off_c, 4, 54, 0
6, 22068, Note_off_c, 4, 63, 0
6, 22320, Note_on_c, 4, 62, 120
6, 22320, Note_on_c, 4, 57, 120
6, 23047, Note_off_c, 4, 57, 0
6, 23047, Note_off_c, 4, 62, 0
6, 23520, Note_on_c, 4, 64, 120
6, 23520, Note_on_c, 4, 61, 120
6, 23748, Note_off_c, 4, 61, 0
6, 23748, Note_off_c, 4, 64, 0
6, 23760, Note_on_c, 4, 64, 120
6, 23760, Note_on_c, 4, 61, 120
6, 23988, Note_off_c, 4, 61, 0
6, 23988, Note_off_c, 4, 64, 0
6, 24000, Note_on_c, 4, 64, 120
6, 24000, Note_on_c, 4, 61, 120
6, 24228, Note_off_c, 4, 61, 0
6, 24228, Note_off_c, 4, 64, 0
6, 24240, Note_on_c, 4, 64, 120
6, 24240, Note_on_c, 4, 61, 120
6, 24468, Note_off_c, 4, 61, 0
6, 24487, Note_off_c, 4, 64, 0
6, 24720, Note_on_c, 4, 64, 120
6, 24720, Note_on_c, 4, 60, 120
6, 24948, Note_off_c, 4, 60, 0
6, 24948, Note_off_c, 4, 64, 0
6, 25200, Note_on_c, 4, 63, 120
6, 25200, Note_on_c, 4, 54, 120
6, 25428, Note_off_c, 4, 54, 0
6, 25447, Note_off_c, 4, 63, 0
6, 25680, Note_on_c, 4, 63, 120
6, 25680, Note_on_c, 4, 54, 120
6, 25908, Note_off_c, 4, 54, 0
6, 25908, Note_off_c, 4, 63, 0
6, 26160, Note_on_c, 4, 62, 120
6, 26160, Note_on_c, 4, 57, 120
6, 26887, Note_off_c, 4, 57, 0
6, 26887, Note_off_c, 4, 62, 0
6, 27360, Note_on_c, 4, 64, 120
6, 27360, Note_on_c, 4, 61, 120
6, 27588, Note_off_c, 4, 61, 0
6, 27588, Note_off_c, 4, 64, 0
6, 27600, Note_on_c, 4, 64, 120
6, 27600, Note_on_c, 4, 61, 120
6, 27828, Note_off_c, 4, 61, 0
6, 27828, Note_off_c, 4, 64, 0
6, 27840, Note_on_c, 4, 64, 120
6, 27840, Note_on_c, 4, 61, 120
6, 28068, Note_off_c, 4, 61, 0
6, 28068, Note_off_c, 4, 64, 0
6, 28080, Note_on_c, 4, 64, 120
6, 28080, Note_on_c, 4, 61, 120
6, 28308, Note_off_c, 4, 61, 0
6, 28327, Note_off_c, 4, 64, 0
6, 28560, Note_on_c, 4, 64, 120
6, 28560, Note_on_c, 4, 60, 120
6, 28788, Note_off_c, 4, 60, 0
6, 28788, Note_off_c, 4, 64, 0
6, 29040, Note_on_c, 4, 63, 120
6, 29040, Note_on_c, 4, 54, 120
6, 29268, Note_off_c, 4, 54, 0
6, 29287, Note_off_c, 4, 63, 0
6, 29520, Note_on_c, 4, 63, 120
6, 29520, Note_on_c, 4, 54, 120
6, 29748, Note_off_c, 4, 54, 0
6, 29748, Note_off_c, 4, 63, 0
6, 30000, Note_on_c, 4, 62, 120
6, 30000, Note_on_c, 4, 57, 120
6, 30727, Note_off_c, 4, 57, 0
6, 30727, Note_off_c, 4, 62, 0
6, 54240, Note_on_c, 4, 64, 120
6, 54240, Note_on_c, 4, 61, 120
6, 54468, Note_off_c, 4, 61, 0
6, 54468, Note_off_c, 4, 64, 0
6, 54480, Note_on_c, 4, 64, 120
6, 54480, Note_on_c, 4, 61, 120
6, 54708, Note_off_c, 4, 61, 0
6, 54708, Note_off_c, 4, 64, 0
6, 54720, Note_on_c, 4, 64, 120
6, 54720, Note_on_c, 4, 61, 120
6, 54948, Note_off_c, 4, 61, 0
6, 54948, Note_off_c, 4, 64, 0
6, 54960, Note_on_c, 4, 64, 120
6, 54960, Note_on_c, 4, 61, 120
6, 55188, Note_off_c, 4, 61, 0
6, 55207, Note_off_c, 4, 64, 0
6, 55440, Note_on_c, 4, 64, 120
6, 55440, Note_on_c, 4, 60, 120
6, 55668, Note_off_c, 4, 60, 0
6, 55668, Note_off_c, 4, 64, 0
6, 55920, Note_on_c, 4, 63, 120
6, 55920, Note_on_c, 4, 54, 120
6, 56148, Note_off_c, 4, 54, 0
6, 56167, Note_off_c, 4, 63, 0
6, 56400, Note_on_c, 4, 63, 120
6, 56400, Note_on_c, 4, 54, 120
6, 56628, Note_off_c, 4, 54, 0
6, 56628, Note_off_c, 4, 63, 0
6, 56880, Note_on_c, 4, 62, 120
6, 56880, Note_on_c, 4, 57, 120
6, 57607, Note_off_c, 4, 57, 0
6, 57607, Note_off_c, 4, 62, 0
6, 58080, Note_on_c, 4, 64, 120
6, 58080, Note_on_c, 4, 61, 120
6, 58308, Note_off_c, 4, 61, 0
6, 58308, Note_off_c, 4, 64, 0
6, 58320, Note_on_c, 4, 64, 120
6, 58320, Note_on_c, 4, 61, 120
6, 58548, Note_off_c, 4, 61, 0
6, 58548, Note_off_c, 4, 64, 0
6, 58560, Note_on_c, 4, 64, 120
6, 58560, Note_on_c, 4, 61, 120
6, 58788, Note_off_c, 4, 61, 0
6, 58788, Note_off_c, 4, 64, 0
6, 58800, Note_on_c, 4, 64, 120
6, 58800, Note_on_c, 4, 61, 120
6, 59028, Note_off_c, 4, 61, 0
6, 59047, Note_off_c, 4, 64, 0
6, 59280, Note_on_c, 4, 64, 120
6, 59280, Note_on_c, 4, 60, 120
6, 59508, Note_off_c, 4, 60, 0
6, 59508, Note_off_c, 4, 64, 0
6, 59760, Note_on_c, 4, 63, 120
6, 59760, Note_on_c, 4, 54, 120
6, 59988, Note_off_c, 4, 54, 0
6, 60007, Note_off_c, 4, 63, 0
6, 60240, Note_on_c, 4, 63, 120
6, 60240, Note_on_c, 4, 54, 120
6, 60468, Note_off_c, 4, 54, 0
6, 60468, Note_off_c, 4, 63, 0
6, 60720, Note_on_c, 4, 62, 120
6, 60720, Note_on_c, 4, 57, 120
6, 61447, Note_off_c, 4, 57, 0
6, 61447, Note_off_c, 4, 62, 0
6, 61920, Note_on_c, 4, 64, 120
6, 61920, Note_on_c, 4, 61, 120
6, 62148, Note_off_c, 4, 61, 0
6, 62148, Note_off_c, 4, 64, 0
6, 62160, Note_on_c, 4, 64, 120
6, 62160, Note_on_c, 4, 61, 120
6, 62388, Note_off_c, 4, 61, 0
6, 62388, Note_off_c, 4, 64, 0
6, 62400, Note_on_c, 4, 64, 120
6, 62400, Note_on_c, 4, 61, 120
6, 62628, Note_off_c, 4, 61, 0
6, 62628, Note_off_c, 4, 64, 0
6, 62640, Note_on_c, 4, 64, 120
6, 62640, Note_on_c, 4, 61, 120
6, 62868, Note_off_c, 4, 61, 0
6, 62887, Note_off_c, 4, 64, 0
6, 63120, Note_on_c, 4, 64, 120
6, 63120, Note_on_c, 4, 60, 120
6, 63348, Note_off_c, 4, 60, 0
6, 63348, Note_off_c, 4, 64, 0
6, 63600, Note_on_c, 4, 63, 120
6, 63600, Note_on_c, 4, 54, 120
6, 63828, Note_off_c, 4, 54, 0
6, 63847, Note_off_c, 4, 63, 0
6, 64080, Note_on_c, 4, 63, 120
6, 64080, Note_on_c, 4, 54, 120
6, 64308, Note_off_c, 4, 54, 0
6, 64308, Note_off_c, 4, 63, 0
6, 64560, Note_on_c, 4, 62, 120
6, 64560, Note_on_c, 4, 57, 120
6, 65287, Note_off_c, 4, 57, 0
6, 65287, Note_off_c, 4, 62, 0
6, 65760, Note_on_c, 4, 64, 120
6, 65760, Note_on_c, 4, 61, 120
6, 65988, Note_off_c, 4, 61, 0
6, 65988, Note_off_c, 4, 64, 0
6, 66000, Note_on_c, 4, 64, 120
6, 66000, Note_on_c, 4, 61, 120
6, 66228, Note_off_c, 4, 61, 0
6, 66228, Note_off_c, 4, 64, 0
6, 66240, Note_on_c, 4, 64, 120
6, 66240, Note_on_c, 4, 61, 120
6, 66468, Note_off_c, 4, 61, 0
6, 66468, Note_off_c, 4, 64, 0
6, 66480, Note_on_c, 4, 64, 120
6, 66480, Note_on_c, 4, 61, 120
6, 66708, Note_off_c, 4, 61, 0
6, 66727, Note_off_c, 4, 64, 0
6, 66960, Note_on_c, 4, 64, 120
6, 66960, Note_on_c, 4, 60, 120
6, 67188, Note_off_c, 4, 60, 0
6, 67188, Note_off_c, 4, 64, 0
6, 67440, Note_on_c, 4, 63, 120
6, 67440, Note_on_c, 4, 54, 120
6, 67668, Note_off_c, 4, 54, 0
6, 67687, Note_off_c, 4, 63, 0
6, 67920, Note_on_c, 4, 63, 120
6, 67920, Note_on_c, 4, 54, 120
6, 68148, Note_off_c, 4, 54, 0
6, 68148, Note_off_c, 4, 63, 0
6, 68400, Note_on_c, 4, 62, 120
6, 68400, Note_on_c, 4, 57, 120
6, 69127, Note_off_c, 4, 57, 0
6, 69127, Note_off_c, 4, 62, 0
6, 69600, Note_on_c, 4, 64, 120
6, 69600, Note_on_c, 4, 61, 120
6, 69828, Note_off_c, 4, 61, 0
6, 69828, Note_off_c, 4, 64, 0
6, 69840, Note_on_c, 4, 64, 120
6, 69840, Note_on_c, 4, 61, 120
6, 70068, Note_off_c, 4, 61, 0
6, 70068, Note_off_c, 4, 64, 0
6, 70080, Note_on_c, 4, 64, 120
6, 70080, Note_on_c, 4, 61, 120
6, 70308, Note_off_c, 4, 61, 0
6, 70308, Note_off_c, 4, 64, 0
6, 70320, Note_on_c, 4, 64, 120
6, 70320, Note_on_c, 4, 61, 120
6, 70548, Note_off_c, 4, 61, 0
6, 70567, Note_off_c, 4, 64, 0
6, 70800, Note_on_c, 4, 64, 120
6, 70800, Note_on_c, 4, 60, 120
6, 71028, Note_off_c, 4, 60, 0
6, 71028, Note_off_c, 4, 64, 0
6, 71280, Note_on_c, 4, 63, 120
6, 71280, Note_on_c, 4, 54, 120
6, 71508, Note_off_c, 4, 54, 0
6, 71527, Note_off_c, 4, 63, 0
6, 71760, Note_on_c, 4, 63, 120
6, 71760, Note_on_c, 4, 54, 120
6, 71988, Note_off_c, 4, 54, 0
6, 71988, Note_off_c, 4, 63, 0
6, 72240, Note_on_c, 4, 62, 120
6, 72240, Note_on_c, 4, 57, 120
6, 72967, Note_off_c, 4, 57, 0
6, 72967, Note_off_c, 4, 62, 0
6, 92640, Note_on_c, 4, 64, 120
6, 92640, Note_on_c, 4, 61, 120
6, 92868, Note_off_c, 4, 61, 0
6, 92868, Note_off_c, 4, 64, 0
6, 92880, Note_on_c, 4, 64, 120
6, 92880, Note_on_c, 4, 61, 120
6, 93108, Note_off_c, 4, 61, 0
6, 93108, Note_off_c, 4, 64, 0
6, 93120, Note_on_c, 4, 64, 120
6, 93120, Note_on_c, 4, 61, 120
6, 93348, Note_off_c, 4, 61, 0
6, 93348, Note_off_c, 4, 64, 0
6, 93360, Note_on_c, 4, 64, 120
6, 93360, Note_on_c, 4, 61, 120
6, 93588, Note_off_c, 4, 61, 0
6, 93607, Note_off_c, 4, 64, 0
6, 96480, Note_on_c, 4, 64, 120
6, 96480, Note_on_c, 4, 61, 120
6, 96708, Note_off_c, 4, 61, 0
6, 96708, Note_off_c, 4, 64, 0
6, 96720, Note_on_c, 4, 64, 120
6, 96720, Note_on_c, 4, 61, 120
6, 96948, Note_off_c, 4, 61, 0
6, 96948, Note_off_c, 4, 64, 0
6, 96960, Note_on_c, 4, 64, 120
6, 96960, Note_on_c, 4, 61, 120
6, 97188, Note_off_c, 4, 61, 0
6, 97188, Note_off_c, 4, 64, 0
6, 97200, Note_on_c, 4, 64, 120
6, 97200, Note_on_c, 4, 61, 120
6, 97428, Note_off_c, 4, 61, 0
6, 97447, Note_off_c, 4, 64, 0
6, 100320, Note_on_c, 4, 64, 120
6, 100320, Note_on_c, 4, 61, 120
6, 100548, Note_off_c, 4, 61, 0
6, 100548, Note_off_c, 4, 64, 0
6, 100560, Note_on_c, 4, 64, 120
6, 100560, Note_on_c, 4, 61, 120
6, 100788, Note_off_c, 4, 61, 0
6, 100788, Note_off_c, 4, 64, 0
6, 100800, Note_on_c, 4, 64, 120
6, 100800, Note_on_c, 4, 61, 120
6, 101028, Note_off_c, 4, 61, 0
6, 101028, Note_off_c, 4, 64, 0
6, 101040, Note_on_c, 4, 64, 120
6, 101040, Note_on_c, 4, 61, 120
6, 101268, Note_off_c, 4, 61, 0
6, 101287, Note_off_c, 4, 64, 0
6, 101520, Note_on_c, 4, 64, 120
6, 101520, Note_on_c, 4, 60, 120
6, 101748, Note_off_c, 4, 60, 0
6, 101748, Note_off_c, 4, 64, 0
6, 102000, Note_on_c, 4, 63, 120
6, 102000, Note_on_c, 4, 54, 120
6, 102228, Note_off_c, 4, 54, 0
6, 102247, Note_off_c, 4, 63, 0
6, 102480, Note_on_c, 4, 63, 120
6, 102480, Note_on_c, 4, 54, 120
6, 102708, Note_off_c, 4, 54, 0
6, 102708, Note_off_c, 4, 63, 0
6, 102960, Note_on_c, 4, 62, 120
6, 102960, Note_on_c, 4, 57, 120
6, 103687, Note_off_c, 4, 57, 0
6, 103687, Note_off_c, 4, 62, 0
6, 108000, Note_on_c, 4, 64, 120
6, 108000, Note_on_c, 4, 61, 120
6, 108228, Note_off_c, 4, 61, 0
6, 108228, Note_off_c, 4, 64, 0
6, 108240, Note_on_c, 4, 64, 120
6, 108240, Note_on_c, 4, 61, 120
6, 108468, Note_off_c, 4, 61, 0
6, 108468, Note_off_c, 4, 64, 0
6, 108480, Note_on_c, 4, 64, 120
6, 108480, Note_on_c, 4, 61, 120
6, 108708, Note_off_c, 4, 61, 0
6, 108708, Note_off_c, 4, 64, 0
6, 108720, Note_on_c, 4, 64, 120
6, 108720, Note_on_c, 4, 61, 120
6, 108948, Note_off_c, 4, 61, 0
6, 108967, Note_off_c, 4, 64, 0
6, 109200, Note_on_c, 4, 64, 120
6, 109200, Note_on_c, 4, 60, 120
6, 109428, Note_off_c, 4, 60, 0
6, 109428, Note_off_c, 4, 64, 0
6, 109680, Note_on_c, 4, 63, 120
6, 109680, Note_on_c, 4, 54, 120
6, 109908, Note_off_c, 4, 54, 0
6, 109927, Note_off_c, 4, 63, 0
6, 110160, Note_on_c, 4, 63, 120
6, 110160, Note_on_c, 4, 54, 120
6, 110388, Note_off_c, 4, 54, 0
6, 110388, Note_off_c, 4, 63, 0
6, 110640, Note_on_c, 4, 62, 120
6, 110640, Note_on_c, 4, 57, 120
6, 111367, Note_off_c, 4, 57, 0
6, 111367, Note_off_c, 4, 62, 0
6, 111840, Note_on_c, 4, 64, 120
6, 111840, Note_on_c, 4, 61, 120
6, 112068, Note_off_c, 4, 61, 0
6, 112068, Note_off_c, 4, 64, 0
6, 112080, Note_on_c, 4, 64, 120
6, 112080, Note_on_c, 4, 61, 120
6, 112308, Note_off_c, 4, 61, 0
6, 112308, Note_off_c, 4, 64, 0
6, 112320, Note_on_c, 4, 64, 120
6, 112320, Note_on_c, 4, 61, 120
6, 112548, Note_off_c, 4, 61, 0
6, 112548, Note_off_c, 4, 64, 0
6, 112560, Note_on_c, 4, 64, 120
6, 112560, Note_on_c, 4, 61, 120
6, 112788, Note_off_c, 4, 61, 0
6, 112807, Note_off_c, 4, 64, 0
6, 113040, Note_on_c, 4, 64, 120
6, 113040, Note_on_c, 4, 60, 120
6, 113268, Note_off_c, 4, 60, 0
6, 113268, Note_off_c, 4, 64, 0
6, 113520, Note_on_c, 4, 63, 120
6, 113520, Note_on_c, 4, 54, 120
6, 113748, Note_off_c, 4, 54, 0
6, 113767, Note_off_c, 4, 63, 0
6, 114000, Note_on_c, 4, 63, 120
6, 114000, Note_on_c, 4, 54, 120
6, 114228, Note_off_c, 4, 54, 0
6, 114228, Note_off_c, 4, 63, 0
6, 114480, Note_on_c, 4, 62, 120
6, 114480, Note_on_c, 4, 57, 120
6, 115207, Note_off_c, 4, 57, 0
6, 115207, Note_off_c, 4, 62, 0
6, 115680, Note_on_c, 4, 64, 120
6, 115680, Note_on_c, 4, 61, 120
6, 115908, Note_off_c, 4, 61, 0
6, 115908, Note_off_c, 4, 64, 0
6, 115920, Note_on_c, 4, 64, 120
6, 115920, Note_on_c, 4, 61, 120
6, 116148, Note_off_c, 4, 61, 0
6, 116148, Note_off_c, 4, 64, 0
6, 116160, Note_on_c, 4, 64, 120
6, 116160, Note_on_c, 4, 61, 120
6, 116388, Note_off_c, 4, 61, 0
6, 116388, Note_off_c, 4, 64, 0
6, 116400, Note_on_c, 4, 64, 120
6, 116400, Note_on_c, 4, 61, 120
6, 116628, Note_off_c, 4, 61, 0
6, 116647, Note_off_c, 4, 64, 0
6, 116880, Note_on_c, 4, 64, 120
6, 116880, Note_on_c, 4, 60, 120
6, 117108, Note_off_c, 4, 60, 0
6, 117108, Note_off_c, 4, 64, 0
6, 117360, Note_on_c, 4, 63, 120
6, 117360, Note_on_c, 4, 54, 120
6, 117588, Note_off_c, 4, 54, 0
6, 117607, Note_off_c, 4, 63, 0
6, 117840, Note_on_c, 4, 63, 120
6, 117840, Note_on_c, 4, 54, 120
6, 118068, Note_off_c, 4, 54, 0
6, 118068, Note_off_c, 4, 63, 0
6, 118320, Note_on_c, 4, 62, 120
6, 118320, Note_on_c, 4, 57, 120
6, 119047, Note_off_c, 4, 57, 0
6, 119047, Note_off_c, 4, 62, 0
6, 119520, Note_on_c, 4, 64, 120
6, 119520, Note_on_c, 4, 61, 120
6, 119748, Note_off_c, 4, 61, 0
6, 119748, Note_off_c, 4, 64, 0
6, 119760, Note_on_c, 4, 64, 120
6, 119760, Note_on_c, 4, 61, 120
6, 119988, Note_off_c, 4, 61, 0
6, 119988, Note_off_c, 4, 64, 0
6, 120000, Note_on_c, 4, 64, 120
6, 120000, Note_on_c, 4, 61, 120
6, 120228, Note_off_c, 4, 61, 0
6, 120228, Note_off_c, 4, 64, 0
6, 120240, Note_on_c, 4, 64, 120
6, 120240, Note_on_c, 4, 61, 120
6, 120468, Note_off_c, 4, 61, 0
6, 120487, Note_off_c, 4, 64, 0
6, 120720, Note_on_c, 4, 64, 120
6, 120720, Note_on_c, 4, 60, 120
6, 120948, Note_off_c, 4, 60, 0
6, 120948, Note_off_c, 4, 64, 0
6, 121200, Note_on_c, 4, 63, 120
6, 121200, Note_on_c, 4, 54, 120
6, 121428, Note_off_c, 4, 54, 0
6, 121447, Note_off_c, 4, 63, 0
6, 121680, Note_on_c, 4, 63, 120
6, 121680, Note_on_c, 4, 54, 120
6, 121908, Note_off_c, 4, 54, 0
6, 121908, Note_off_c, 4, 63, 0
6, 122160, Note_on_c, 4, 62, 120
6, 122160, Note_on_c, 4, 57, 120
6, 122887, Note_off_c, 4, 57, 0
6, 122887, Note_off_c, 4, 62, 0
6, 131040, Note_on_c, 4, 64, 120
6, 131040, Note_on_c, 4, 61, 120
6, 131280, Note_off_c, 4, 61, 0
6, 131280, Note_off_c, 4, 64, 0
6, 131280, Note_on_c, 4, 61, 120
6, 131280, Note_on_c, 4, 64, 120
6, 131520, Note_off_c, 4, 64, 0
6, 131520, Note_off_c, 4, 61, 0
6, 131520, Note_on_c, 4, 61, 120
6, 131520, Note_on_c, 4, 64, 120
6, 131760, Note_off_c, 4, 64, 0
6, 131760, Note_off_c, 4, 61, 0
6, 131760, Note_on_c, 4, 64, 120
6, 131760, Note_on_c, 4, 61, 120
6, 132240, Note_off_c, 4, 61, 0
6, 132240, Note_off_c, 4, 64, 0
6, 132240, Note_on_c, 4, 64, 120
6, 132240, Note_on_c, 4, 60, 120
6, 132720, Note_off_c, 4, 60, 0
6, 132720, Note_off_c, 4, 64, 0
6, 132720, Note_on_c, 4, 54, 120
6, 132720, Note_on_c, 4, 63, 120
6, 133200, Note_off_c, 4, 63, 0
6, 133200, Note_off_c, 4, 54, 0
6, 133200, Note_on_c, 4, 63, 120
6, 133200, Note_on_c, 4, 54, 120
6, 133680, Note_off_c, 4, 54, 0
6, 133680, Note_off_c, 4, 63, 0
6, 133680, Note_on_c, 4, 62, 120
6, 133680, Note_on_c, 4, 57, 120
6, 134400, Note_on_c, 4, 61, 120
6, 134407, Note_off_c, 4, 57, 0
6, 134407, Note_off_c, 4, 62, 0
6, 134640, Note_off_c, 4, 61, 0
6, 134640, Note_on_c, 4, 61, 120
6, 134880, Note_off_c, 4, 61, 0
6, 134880, Note_on_c, 4, 64, 120
6, 134880, Note_on_c, 4, 61, 120
6, 135120, Note_off_c, 4, 61, 0
6, 135120, Note_off_c, 4, 64, 0
6, 135120, Note_on_c, 4, 64, 120
6, 135120, Note_on_c, 4, 61, 120
6, 135360, Note_off_c, 4, 61, 0
6, 135360, Note_off_c, 4, 64, 0
6, 135360, Note_on_c, 4, 64, 120
6, 135360, Note_on_c, 4, 61, 120
6, 135600, Note_off_c, 4, 61, 0
6, 135600, Note_off_c, 4, 64, 0
6, 135600, Note_on_c, 4, 64, 120
6, 135600, Note_on_c, 4, 61, 120
6, 136327, Note_off_c, 4, 61, 0
6, 136327, Note_off_c, 4, 64, 0
6, 154080, Note_on_c, 4, 64, 120
6, 154080, Note_on_c, 4, 61, 120
6, 154308, Note_off_c, 4, 61, 0
6, 154308, Note_off_c, 4, 64, 0
6, 154320, Note_on_c, 4, 64, 120
6, 154320, Note_on_c, 4, 61, 120
6, 154548, Note_off_c, 4, 61, 0
6, 154548, Note_off_c, 4, 64, 0
6, 154560, Note_on_c, 4, 64, 120
6, 154560, Note_on_c, 4, 61, 120
6, 154788, Note_off_c, 4, 61, 0
6, 154788, Note_off_c, 4, 64, 0
6, 154800, Note_on_c, 4, 64, 120
6, 154800, Note_on_c, 4, 61, 120
6, 155028, Note_off_c, 4, 61, 0
6, 155047, Note_off_c, 4, 64, 0
6, 155280, Note_on_c, 4, 64, 120
6, 155280, Note_on_c, 4, 60, 120
6, 155508, Note_off_c, 4, 60, 0
6, 155508, Note_off_c, 4, 64, 0
6, 155760, Note_on_c, 4, 63, 120
6, 155760, Note_on_c, 4, 54, 120
6, 155988, Note_off_c, 4, 54, 0
6, 156007, Note_off_c, 4, 63, 0
6, 156240, Note_on_c, 4, 63, 120
6, 156240, Note_on_c, 4, 54, 120
6, 156468, Note_off_c, 4, 54, 0
6, 156468, Note_off_c, 4, 63, 0
6, 156720, Note_on_c, 4, 62, 120
6, 156720, Note_on_c, 4, 57, 120
6, 157447, Note_off_c, 4, 57, 0
6, 157447, Note_off_c, 4, 62, 0
6, 157920, Note_on_c, 4, 64, 120
6, 157920, Note_on_c, 4, 61, 120
6, 158148, Note_off_c, 4, 61, 0
6, 158148, Note_off_c, 4, 64, 0
6, 158160, Note_on_c, 4, 64, 120
6, 158160, Note_on_c, 4, 61, 120
6, 158388, Note_off_c, 4, 61, 0
6, 158388, Note_off_c, 4, 64, 0
6, 158400, Note_on_c, 4, 64, 120
6, 158400, Note_on_c, 4, 61, 120
6, 158628, Note_off_c, 4, 61, 0
6, 158628, Note_off_c, 4, 64, 0
6, 158640, Note_on_c, 4, 64, 120
6, 158640, Note_on_c, 4, 61, 120
6, 158868, Note_off_c, 4, 61, 0
6, 158887, Note_off_c, 4, 64, 0
6, 159120, Note_on_c, 4, 64, 120
6, 159120, Note_on_c, 4, 60, 120
6, 159348, Note_off_c, 4, 60, 0
6, 159348, Note_off_c, 4, 64, 0
6, 159600, Note_on_c, 4, 63, 120
6, 159600, Note_on_c, 4, 54, 120
6, 159828, Note_off_c, 4, 54, 0
6, 159847, Note_off_c, 4, 63, 0
6, 160080, Note_on_c, 4, 63, 120
6, 160080, Note_on_c, 4, 54, 120
6, 160308, Note_off_c, 4, 54, 0
6, 160308, Note_off_c, 4, 63, 0
6, 160560, Note_on_c, 4, 62, 120
6, 160560, Note_on_c, 4, 57, 120
6, 161287, Note_off_c, 4, 57, 0
6, 161287, Note_off_c, 4, 62, 0
6, 161760, Note_on_c, 4, 64, 120
6, 161760, Note_on_c, 4, 61, 120
6, 161988, Note_off_c, 4, 61, 0
6, 161988, Note_off_c, 4, 64, 0
6, 162000, Note_on_c, 4, 64, 120
6, 162000, Note_on_c, 4, 61, 120
6, 162228, Note_off_c, 4, 61, 0
6, 162228, Note_off_c, 4, 64, 0
6, 162240, Note_on_c, 4, 64, 120
6, 162240, Note_on_c, 4, 61, 120
6, 162468, Note_off_c, 4, 61, 0
6, 162468, Note_off_c, 4, 64, 0
6, 162480, Note_on_c, 4, 64, 120
6, 162480, Note_on_c, 4, 61, 120
6, 162708, Note_off_c, 4, 61, 0
6, 162727, Note_off_c, 4, 64, 0
6, 162960, Note_on_c, 4, 64, 120
6, 162960, Note_on_c, 4, 60, 120
6, 163188, Note_off_c, 4, 60, 0
6, 163188, Note_off_c, 4, 64, 0
6, 163440, Note_on_c, 4, 63, 120
6, 163440, Note_on_c, 4, 54, 120
6, 163668, Note_off_c, 4, 54, 0
6, 163687, Note_off_c, 4, 63, 0
6, 163920, Note_on_c, 4, 63, 120
6, 163920, Note_on_c, 4, 54, 120
6, 164148, Note_off_c, 4, 54, 0
6, 164148, Note_off_c, 4, 63, 0
6, 164400, Note_on_c, 4, 62, 120
6, 164400, Note_on_c, 4, 57, 120
6, 165127, Note_off_c, 4, 57, 0
6, 165127, Note_off_c, 4, 62, 0
6, 165600, Note_on_c, 4, 64, 120
6, 165600, Note_on_c, 4, 61, 120
6, 165828, Note_off_c, 4, 61, 0
6, 165828, Note_off_c, 4, 64, 0
6, 165840, Note_on_c, 4, 64, 120
6, 165840, Note_on_c, 4, 61, 120
6, 166068, Note_off_c, 4, 61, 0
6, 166068, Note_off_c, 4, 64, 0
6, 166080, Note_on_c, 4, 64, 120
6, 166080, Note_on_c, 4, 61, 120
6, 166308, Note_off_c, 4, 61, 0
6, 166308, Note_off_c, 4, 64, 0
6, 166320, Note_on_c, 4, 64, 120
6, 166320, Note_on_c, 4, 61, 120
6, 166548, Note_off_c, 4, 61, 0
6, 166567, Note_off_c, 4, 64, 0
6, 166800, Note_on_c, 4, 64, 120
6, 166800, Note_on_c, 4, 60, 120
6, 167028, Note_off_c, 4, 60, 0
6, 167028, Note_off_c, 4, 64, 0
6, 167280, Note_on_c, 4, 63, 120
6, 167280, Note_on_c, 4, 54, 120
6, 167508, Note_off_c, 4, 54, 0
6, 167527, Note_off_c, 4, 63, 0
6, 167760, Note_on_c, 4, 63, 120
6, 167760, Note_on_c, 4, 54, 120
6, 167988, Note_off_c, 4, 54, 0
6, 167988, Note_off_c, 4, 63, 0
6, 168240, Note_on_c, 4, 62, 120
6, 168240, Note_on_c, 4, 57, 120
6, 168967, Note_off_c, 4, 57, 0
6, 168967, Note_off_c, 4, 62, 0
6, 169440, Note_on_c, 4, 64, 120
6, 169440, Note_on_c, 4, 61, 120
6, 169668, Note_off_c, 4, 61, 0
6, 169668, Note_off_c, 4, 64, 0
6, 169680, Note_on_c, 4, 64, 120
6, 169680, Note_on_c, 4, 61, 120
6, 169908, Note_off_c, 4, 61, 0
6, 169908, Note_off_c, 4, 64, 0
6, 169920, Note_on_c, 4, 64, 120
6, 169920, Note_on_c, 4, 61, 120
6, 170148, Note_off_c, 4, 61, 0
6, 170148, Note_off_c, 4, 64, 0
6, 170160, Note_on_c, 4, 64, 120
6, 170160, Note_on_c, 4, 61, 120
6, 170388, Note_off_c, 4, 61, 0
6, 170407, Note_off_c, 4, 64, 0
6, 170640, Note_on_c, 4, 64, 120
6, 170640, Note_on_c, 4, 60, 120
6, 170868, Note_off_c, 4, 60, 0
6, 170868, Note_off_c, 4, 64, 0
6, 171120, Note_on_c, 4, 63, 120
6, 171120, Note_on_c, 4, 54, 120
6, 171348, Note_off_c, 4, 54, 0
6, 171367, Note_off_c, 4, 63, 0
6, 171600, Note_on_c, 4, 63, 120
6, 171600, Note_on_c, 4, 54, 120
6, 171828, Note_off_c, 4, 54, 0
6, 171828, Note_off_c, 4, 63, 0
6, 172080, Note_on_c, 4, 62, 120
6, 172080, Note_on_c, 4, 57, 120
6, 172807, Note_off_c, 4, 57, 0
6, 172807, Note_off_c, 4, 62, 0
6, 173280, Note_on_c, 4, 64, 120
6, 173280, Note_on_c, 4, 61, 120
6, 173508, Note_off_c, 4, 61, 0
6, 173508, Note_off_c, 4, 64, 0
6, 173520, Note_on_c, 4, 64, 120
6, 173520, Note_on_c, 4, 61, 120
6, 173748, Note_off_c, 4, 61, 0
6, 173748, Note_off_c, 4, 64, 0
6, 173760, Note_on_c, 4, 64, 120
6, 173760, Note_on_c, 4, 61, 120
6, 173988, Note_off_c, 4, 61, 0
6, 173988, Note_off_c, 4, 64, 0
6, 174000, Note_on_c, 4, 64, 120
6, 174000, Note_on_c, 4, 61, 120
6, 174228, Note_off_c, 4, 61, 0
6, 174247, Note_off_c, 4, 64, 0
6, 174480, Note_on_c, 4, 64, 120
6, 174480, Note_on_c, 4, 60, 120
6, 174708, Note_off_c, 4, 60, 0
6, 174708, Note_off_c, 4, 64, 0
6, 174960, Note_on_c, 4, 63, 120
6, 174960, Note_on_c, 4, 54, 120
6, 175188, Note_off_c, 4, 54, 0
6, 175207, Note_off_c, 4, 63, 0
6, 175440, Note_on_c, 4, 63, 120
6, 175440, Note_on_c, 4, 54, 120
6, 175668, Note_off_c, 4, 54, 0
6, 175668, Note_off_c, 4, 63, 0
6, 175920, Note_on_c, 4, 62, 120
6, 175920, Note_on_c, 4, 57, 120
6, 176647, Note_off_c, 4, 57, 0
6, 176647, Note_off_c, 4, 62, 0
6, 177120, Note_on_c, 4, 64, 120
6, 177120, Note_on_c, 4, 61, 120
6, 177348, Note_off_c, 4, 61, 0
6, 177348, Note_off_c, 4, 64, 0
6, 177360, Note_on_c, 4, 64, 120
6, 177360, Note_on_c, 4, 61, 120
6, 177588, Note_off_c, 4, 61, 0
6, 177588, Note_off_c, 4, 64, 0
6, 177600, Note_on_c, 4, 64, 120
6, 177600, Note_on_c, 4, 61, 120
6, 177828, Note_off_c, 4, 61, 0
6, 177828, Note_off_c, 4, 64, 0
6, 177840, Note_on_c, 4, 64, 120
6, 177840, Note_on_c, 4, 61, 120
6, 178068, Note_off_c, 4, 61, 0
6, 178087, Note_off_c, 4, 64, 0
6, 178320, Note_on_c, 4, 64, 120
6, 178320, Note_on_c, 4, 60, 120
6, 178548, Note_off_c, 4, 60, 0
6, 178548, Note_off_c, 4, 64, 0
6, 178800, Note_on_c, 4, 63, 120
6, 178800, Note_on_c, 4, 54, 120
6, 179028, Note_off_c, 4, 54, 0
6, 179047, Note_off_c, 4, 63, 0
6, 179280, Note_on_c, 4, 63, 120
6, 179280, Note_on_c, 4, 54, 120
6, 179508, Note_off_c, 4, 54, 0
6, 179508, Note_off_c, 4, 63, 0
6, 179760, Note_on_c, 4, 62, 120
6, 179760, Note_on_c, 4, 57, 120
6, 180487, Note_off_c, 4, 57, 0
6, 180487, Note_off_c, 4, 62, 0
6, 180960, Note_on_c, 4, 64, 120
6, 180960, Note_on_c, 4, 61, 120
6, 181188, Note_off_c, 4, 61, 0
6, 181188, Note_off_c, 4, 64, 0
6, 181200, Note_on_c, 4, 64, 120
6, 181200, Note_on_c, 4, 61, 120
6, 181428, Note_off_c, 4, 61, 0
6, 181428, Note_off_c, 4, 64, 0
6, 181440, Note_on_c, 4, 64, 120
6, 181440, Note_on_c, 4, 61, 120
6, 181668, Note_off_c, 4, 61, 0
6, 181668, Note_off_c, 4, 64, 0
6, 181680, Note_on_c, 4, 64, 120
6, 181680, Note_on_c, 4, 61, 120
6, 181908, Note_off_c, 4, 61, 0
6, 181927, Note_off_c, 4, 64, 0
6, 182160, Note_on_c, 4, 64, 120
6, 182160, Note_on_c, 4, 60, 120
6, 182388, Note_off_c, 4, 60, 0
6, 182388, Note_off_c, 4, 64, 0
6, 182640, Note_on_c, 4, 63, 120
6, 182640, Note_on_c, 4, 54, 120
6, 182868, Note_off_c, 4, 54, 0
6, 182887, Note_off_c, 4, 63, 0
6, 183120, Note_on_c, 4, 63, 120
6, 183120, Note_on_c, 4, 54, 120
6, 183348, Note_off_c, 4, 54, 0
6, 183348, Note_off_c, 4, 63, 0
6, 183600, Note_on_c, 4, 62, 120
6, 183600, Note_on_c, 4, 57, 120
6, 184327, Note_off_c, 4, 57, 0
6, 184327, Note_off_c, 4, 62, 0
6, 184800, Note_on_c, 4, 64, 120
6, 184800, Note_on_c, 4, 61, 120
6, 185028, Note_off_c, 4, 61, 0
6, 185028, Note_off_c, 4, 64, 0
6, 185040, Note_on_c, 4, 64, 120
6, 185040, Note_on_c, 4, 61, 120
6, 185268, Note_off_c, 4, 61, 0
6, 185268, Note_off_c, 4, 64, 0
6, 185280, Note_on_c, 4, 64, 120
6, 185280, Note_on_c, 4, 61, 120
6, 185508, Note_off_c, 4, 61, 0
6, 185508, Note_off_c, 4, 64, 0
6, 185520, Note_on_c, 4, 64, 120
6, 185520, Note_on_c, 4, 61, 120
6, 185748, Note_off_c, 4, 61, 0
6, 185767, Note_off_c, 4, 64, 0
6, 186000, Note_on_c, 4, 64, 120
6, 186000, Note_on_c, 4, 60, 120
6, 186228, Note_off_c, 4, 60, 0
6, 186228, Note_off_c, 4, 64, 0
6, 186480, Note_on_c, 4, 63, 120
6, 186480, Note_on_c, 4, 54, 120
6, 186708, Note_off_c, 4, 54, 0
6, 186727, Note_off_c, 4, 63, 0
6, 186960, Note_on_c, 4, 63, 120
6, 186960, Note_on_c, 4, 54, 120
6, 187188, Note_off_c, 4, 54, 0
6, 187188, Note_off_c, 4, 63, 0
6, 187440, Note_on_c, 4, 62, 120
6, 187440, Note_on_c, 4, 57, 120
6, 188167, Note_off_c, 4, 57, 0
6, 188167, Note_off_c, 4, 62, 0
6, 188640, Note_on_c, 4, 64, 120
6, 188640, Note_on_c, 4, 61, 120
6, 188868, Note_off_c, 4, 61, 0
6, 188868, Note_off_c, 4, 64, 0
6, 188880, Note_on_c, 4, 64, 120
6, 188880, Note_on_c, 4, 61, 120
6, 189108, Note_off_c, 4, 61, 0
6, 189108, Note_off_c, 4, 64, 0
6, 189120, Note_on_c, 4, 64, 120
6, 189120, Note_on_c, 4, 61, 120
6, 189348, Note_off_c, 4, 61, 0
6, 189348, Note_off_c, 4, 64, 0
6, 189360, Note_on_c, 4, 64, 120
6, 189360, Note_on_c, 4, 61, 120
6, 189588, Note_off_c, 4, 61, 0
6, 189607, Note_off_c, 4, 64, 0
6, 189840, Note_on_c, 4, 64, 120
6, 189840, Note_on_c, 4, 60, 120
6, 190068, Note_off_c, 4, 60, 0
6, 190068, Note_off_c, 4, 64, 0
6, 190320, Note_on_c, 4, 63, 120
6, 190320, Note_on_c, 4, 54, 120
6, 190548, Note_off_c, 4, 54, 0
6, 190567, Note_off_c, 4, 63, 0
6, 190800, Note_on_c, 4, 63, 120
6, 190800, Note_on_c, 4, 54, 120
6, 191028, Note_off_c, 4, 54, 0
6, 191028, Note_off_c, 4, 63, 0
6, 191280, Note_on_c, 4, 62, 120
6, 191280, Note_on_c, 4, 57, 120
6, 192007, Note_off_c, 4, 57, 0
6, 192007, Note_off_c, 4, 62, 0
6, 192480, Note_on_c, 4, 64, 120
6, 192480, Note_on_c, 4, 61, 120
6, 192708, Note_off_c, 4, 61, 0
6, 192708, Note_off_c, 4, 64, 0
6, 192720, Note_on_c, 4, 64, 120
6, 192720, Note_on_c, 4, 61, 120
6, 192948, Note_off_c, 4, 61, 0
6, 192948, Note_off_c, 4, 64, 0
6, 192960, Note_on_c, 4, 64, 120
6, 192960, Note_on_c, 4, 61, 120
6, 193188, Note_off_c, 4, 61, 0
6, 193188, Note_off_c, 4, 64, 0
6, 193200, Note_on_c, 4, 64, 120
6, 193200, Note_on_c, 4, 61, 120
6, 193428, Note_off_c, 4, 61, 0
6, 193447, Note_off_c, 4, 64, 0
6, 193680, Note_on_c, 4, 64, 120
6, 193680, Note_on_c, 4, 60, 120
6, 193908, Note_off_c, 4, 60, 0
6, 193908, Note_off_c, 4, 64, 0
6, 194160, Note_on_c, 4, 63, 120
6, 194160, Note_on_c, 4, 54, 120
6, 194388, Note_off_c, 4, 54, 0
6, 194407, Note_off_c, 4, 63, 0
6, 194640, Note_on_c, 4, 63, 120
6, 194640, Note_on_c, 4, 54, 120
6, 194868, Note_off_c, 4, 54, 0
6, 194868, Note_off_c, 4, 63, 0
6, 195120, Note_on_c, 4, 62, 120
6, 195120, Note_on_c, 4, 57, 120
6, 195847, Note_off_c, 4, 57, 0
6, 195847, Note_off_c, 4, 62, 0
6, 196320, Note_on_c, 4, 64, 120
6, 196320, Note_on_c, 4, 61, 120
6, 196548, Note_off_c, 4, 61, 0
6, 196548, Note_off_c, 4, 64, 0
6, 196560, Note_on_c, 4, 64, 120
6, 196560, Note_on_c, 4, 61, 120
6, 196788, Note_off_c, 4, 61, 0
6, 196788, Note_off_c, 4, 64, 0
6, 196800, Note_on_c, 4, 64, 120
6, 196800, Note_on_c, 4, 61, 120
6, 197028, Note_off_c, 4, 61, 0
6, 197028, Note_off_c, 4, 64, 0
6, 197040, Note_on_c, 4, 64, 120
6, 197040, Note_on_c, 4, 61, 120
6, 197268, Note_off_c, 4, 61, 0
6, 197287, Note_off_c, 4, 64, 0
6, 197520, Note_on_c, 4, 64, 120
6, 197520, Note_on_c, 4, 60, 120
6, 197748, Note_off_c, 4, 60, 0
6, 197748, Note_off_c, 4, 64, 0
6, 198000, Note_on_c, 4, 63, 120
6, 198000, Note_on_c, 4, 54, 120
6, 198228, Note_off_c, 4, 54, 0
6, 198247, Note_off_c, 4, 63, 0
6, 198480, Note_on_c, 4, 63, 120
6, 198480, Note_on_c, 4, 54, 120
6, 198708, Note_off_c, 4, 54, 0
6, 198708, Note_off_c, 4, 63, 0
6, 198960, Note_on_c, 4, 57, 120
6, 198960, Note_on_c, 4, 62, 120
6, 199200, Note_off_c, 4, 62, 0
6, 199200, Note_off_c, 4, 57, 0
6, 199200, Note_on_c, 4, 57, 100
6, 199200, Note_on_c, 4, 62, 100
6, 199440, Note_off_c, 4, 62, 0
6, 199440, Note_off_c, 4, 57, 0
6, 199440, Note_on_c, 4, 62, 80
6, 199440, Note_on_c, 4, 57, 80
6, 199680, Note_off_c, 4, 57, 0
6, 199680, Note_off_c, 4, 62, 0
6, 199680, Note_on_c, 4, 62, 60
6, 199680, Note_on_c, 4, 57, 60
6, 199920, Note_off_c, 4, 57, 0
6, 199920, Note_off_c, 4, 62, 0
6, 199920, Note_on_c, 4, 62, 40
6, 199920, Note_on_c, 4, 57, 40
6, 200160, Note_off_c, 4, 57, 0
6, 200160, Note_off_c, 4, 62, 0
6, 200160, Note_on_c, 4, 62, 20
6, 200160, Note_on_c, 4, 57, 20
6, 200400, Note_off_c, 4, 57, 0
6, 200400, Note_off_c, 4, 62, 0
6, 200400, Note_on_c, 4, 62, 10
6, 200400, Note_on_c, 4, 57, 10
6, 200640, Note_off_c, 4, 57, 0
6, 200640, Note_off_c, 4, 62, 0
6, 200640, Note_on_c, 4, 57, 1
6, 200640, Note_on_c, 4, 62, 1
6, 200880, Note_off_c, 4, 62, 0
6, 200880, Note_off_c, 4, 57, 0
6, 200880, End_track
7, 0, Start_track
7, 0, Title_t, "tk10"
7, 0, MIDI_port, 0
7, 0, Channel_prefix, 9
7, 0, Control_c, 9, 7, 127
7, 0, Control_c, 9, 10, 66
7, 0, Program_c, 9, 0
7, 0, Note_on_c, 9, 35, 120
7, 0, Note_on_c, 9, 36, 120
7, 0, Note_on_c, 9, 74, 120
7, 0, Note_on_c, 9, 76, 120
7, 0, Note_on_c, 9, 75, 120
7, 0, Note_on_c, 9, 28, 120
7, 0, Note_on_c, 9, 62, 120
7, 0, Note_on_c, 9, 37, 120
7, 0, Note_on_c, 9, 49, 30
7, 0, Note_on_c, 9, 51, 30
7, 57, Note_off_c, 9, 51, 0
7, 57, Note_off_c, 9, 49, 0
7, 57, Note_off_c, 9, 37, 0
7, 57, Note_off_c, 9, 62, 0
7, 57, Note_off_c, 9, 28, 0
7, 57, Note_off_c, 9, 76, 0
7, 57, Note_off_c, 9, 36, 0
7, 57, Note_off_c, 9, 35, 0
7, 240, Note_on_c, 9, 62, 120
7, 240, Note_on_c, 9, 49, 30
7, 240, Note_on_c, 9, 51, 30
7, 297, Note_off_c, 9, 51, 0
7, 297, Note_off_c, 9, 49, 0
7, 297, Note_off_c, 9, 62, 0
7, 456, Note_off_c, 9, 74, 0
7, 456, Note_off_c, 9, 75, 0
7, 480, Note_on_c, 9, 28, 120
7, 480, Note_on_c, 9, 63, 120
7, 480, Note_on_c, 9, 37, 120
7, 480, Note_on_c, 9, 49, 30
7, 480, Note_on_c, 9, 51, 30
7, 480, Note_on_c, 9, 42, 120
7, 537, Note_off_c, 9, 42, 0
7, 537, Note_off_c, 9, 51, 0
7, 537, Note_off_c, 9, 49, 0
7, 537, Note_off_c, 9, 37, 0
7, 537, Note_off_c, 9, 63, 0
7, 537, Note_off_c, 9, 28, 0
7, 720, Note_on_c, 9, 36, 120
7, 720, Note_on_c, 9, 35, 120
7, 720, Note_on_c, 9, 74, 120
7, 720, Note_on_c, 9, 76, 120
7, 720, Note_on_c, 9, 62, 120
7, 720, Note_on_c, 9, 49, 30
7, 720, Note_on_c, 9, 51, 30
7, 777, Note_off_c, 9, 51, 0
7, 777, Note_off_c, 9, 49, 0
7, 777, Note_off_c, 9, 62, 0
7, 777, Note_off_c, 9, 76, 0
7, 777, Note_off_c, 9, 35, 0
7, 777, Note_off_c, 9, 36, 0
7, 948, Note_off_c, 9, 74, 0
7, 960, Note_on_c, 9, 36, 120
7, 960, Note_on_c, 9, 35, 120
7, 960, Note_on_c, 9, 74, 120
7, 960, Note_on_c, 9, 75, 120
7, 960, Note_on_c, 9, 28, 120
7, 960, Note_on_c, 9, 62, 120
7, 960, Note_on_c, 9, 63, 120
7, 960, Note_on_c, 9, 37, 120
7, 960, Note_on_c, 9, 49, 30
7, 960, Note_on_c, 9, 51, 30
7, 1017, Note_off_c, 9, 51, 0
7, 1017, Note_off_c, 9, 49, 0
7, 1017, Note_off_c, 9, 37, 0
7, 1017, Note_off_c, 9, 63, 0
7, 1017, Note_off_c, 9, 62, 0
7, 1017, Note_off_c, 9, 28, 0
7, 1017, Note_off_c, 9, 35, 0
7, 1017, Note_off_c, 9, 36, 0
7, 1200, Note_on_c, 9, 62, 120
7, 1200, Note_on_c, 9, 49, 30
7, 1200, Note_on_c, 9, 51, 30
7, 1257, Note_off_c, 9, 51, 0
7, 1257, Note_off_c, 9, 49, 0
7, 1257, Note_off_c, 9, 62, 0
7, 1416, Note_off_c, 9, 74, 0
7, 1416, Note_off_c, 9, 75, 0
7, 1440, Note_on_c, 9, 76, 120
7, 1440, Note_on_c, 9, 28, 120
7, 1440, Note_on_c, 9, 62, 120
7, 1440, Note_on_c, 9, 63, 120
7, 1440, Note_on_c, 9, 37, 120
7, 1440, Note_on_c, 9, 49, 30
7, 1440, Note_on_c, 9, 51, 30
7, 1440, Note_on_c, 9, 42, 120
7, 1497, Note_off_c, 9, 42, 0
7, 1497, Note_off_c, 9, 51, 0
7, 1497, Note_off_c, 9, 49, 0
7, 1497, Note_off_c, 9, 37, 0
7, 1497, Note_off_c, 9, 63, 0
7, 1497, Note_off_c, 9, 62, 0
7, 1497, Note_off_c, 9, 28, 0
7, 1497, Note_off_c, 9, 76, 0
7, 1680, Note_on_c, 9, 36, 120
7, 1680, Note_on_c, 9, 35, 120
7, 1680, Note_on_c, 9, 74, 120
7, 1680, Note_on_c, 9, 62, 120
7, 1680, Note_on_c, 9, 49, 30
7, 1680, Note_on_c, 9, 51, 30
7, 1737, Note_off_c, 9, 51, 0
7, 1737, Note_off_c, 9, 49, 0
7, 1737, Note_off_c, 9, 62, 0
7, 1737, Note_off_c, 9, 35, 0
7, 1737, Note_off_c, 9, 36, 0
7, 1908, Note_off_c, 9, 74, 0
7, 1920, Note_on_c, 9, 36, 120
7, 1920, Note_on_c, 9, 35, 120
7, 1920, Note_on_c, 9, 74, 120
7, 1920, Note_on_c, 9, 75, 120
7, 1920, Note_on_c, 9, 62, 120
7, 1920, Note_on_c, 9, 28, 120
7, 1920, Note_on_c, 9, 37, 120
7, 1920, Note_on_c, 9, 51, 30
7, 1920, Note_on_c, 9, 49, 30
7, 1977, Note_off_c, 9, 49, 0
7, 1977, Note_off_c, 9, 51, 0
7, 1977, Note_off_c, 9, 37, 0
7, 1977, Note_off_c, 9, 28, 0
7, 1977, Note_off_c, 9, 62, 0
7, 1977, Note_off_c, 9, 35, 0
7, 1977, Note_off_c, 9, 36, 0
7, 2160, Note_on_c, 9, 62, 120
7, 2160, Note_on_c, 9, 49, 30
7, 2160, Note_on_c, 9, 51, 30
7, 2217, Note_off_c, 9, 51, 0
7, 2217, Note_off_c, 9, 49, 0
7, 2217, Note_off_c, 9, 62, 0
7, 2376, Note_off_c, 9, 74, 0
7, 2376, Note_off_c, 9, 75, 0
7, 2400, Note_on_c, 9, 76, 120
7, 2400, Note_on_c, 9, 62, 120
7, 2400, Note_on_c, 9, 63, 120
7, 2400, Note_on_c, 9, 28, 120
7, 2400, Note_on_c, 9, 37, 120
7, 2400, Note_on_c, 9, 49, 30
7, 2400, Note_on_c, 9, 51, 30
7, 2400, Note_on_c, 9, 42, 120
7, 2457, Note_off_c, 9, 42, 0
7, 2457, Note_off_c, 9, 51, 0
7, 2457, Note_off_c, 9, 49, 0
7, 2457, Note_off_c, 9, 37, 0
7, 2457, Note_off_c, 9, 28, 0
7, 2457, Note_off_c, 9, 63, 0
7, 2457, Note_off_c, 9, 62, 0
7, 2457, Note_off_c, 9, 76, 0
7, 2640, Note_on_c, 9, 36, 120
7, 2640, Note_on_c, 9, 35, 120
7, 2640, Note_on_c, 9, 74, 120
7, 2640, Note_on_c, 9, 62, 120
7, 2640, Note_on_c, 9, 49, 30
7, 2640, Note_on_c, 9, 51, 30
7, 2697, Note_off_c, 9, 51, 0
7, 2697, Note_off_c, 9, 49, 0
7, 2697, Note_off_c, 9, 62, 0
7, 2697, Note_off_c, 9, 35, 0
7, 2697, Note_off_c, 9, 36, 0
7, 2868, Note_off_c, 9, 74, 0
7, 2880, Note_on_c, 9, 35, 120
7, 2880, Note_on_c, 9, 36, 120
7, 2880, Note_on_c, 9, 74, 120
7, 2880, Note_on_c, 9, 75, 120
7, 2880, Note_on_c, 9, 62, 120
7, 2880, Note_on_c, 9, 63, 120
7, 2880, Note_on_c, 9, 28, 120
7, 2880, Note_on_c, 9, 37, 120
7, 2880, Note_on_c, 9, 49, 30
7, 2880, Note_on_c, 9, 51, 30
7, 2937, Note_off_c, 9, 51, 0
7, 2937, Note_off_c, 9, 49, 0
7, 2937, Note_off_c, 9, 37, 0
7, 2937, Note_off_c, 9, 28, 0
7, 2937, Note_off_c, 9, 63, 0
7, 2937, Note_off_c, 9, 62, 0
7, 2937, Note_off_c, 9, 36, 0
7, 2937, Note_off_c, 9, 35, 0
7, 3120, Note_on_c, 9, 76, 120
7, 3120, Note_on_c, 9, 62, 120
7, 3120, Note_on_c, 9, 49, 30
7, 3120, Note_on_c, 9, 51, 30
7, 3177, Note_off_c, 9, 51, 0
7, 3177, Note_off_c, 9, 49, 0
7, 3177, Note_off_c, 9, 62, 0
7, 3177, Note_off_c, 9, 76, 0
7, 3336, Note_off_c, 9, 74, 0
7, 3336, Note_off_c, 9, 75, 0
7, 3360, Note_on_c, 9, 62, 120
7, 3360, Note_on_c, 9, 63, 120
7, 3360, Note_on_c, 9, 28, 120
7, 3360, Note_on_c, 9, 37, 120
7, 3360, Note_on_c, 9, 49, 30
7, 3360, Note_on_c, 9, 51, 30
7, 3360, Note_on_c, 9, 42, 120
7, 3417, Note_off_c, 9, 42, 0
7, 3417, Note_off_c, 9, 51, 0
7, 3417, Note_off_c, 9, 49, 0
7, 3417, Note_off_c, 9, 37, 0
7, 3417, Note_off_c, 9, 28, 0
7, 3417, Note_off_c, 9, 63, 0
7, 3417, Note_off_c, 9, 62, 0
7, 3476, Note_on_c, 9, 62, 120
7, 3533, Note_off_c, 9, 62, 0
7, 3600, Note_on_c, 9, 36, 120
7, 3600, Note_on_c, 9, 35, 120
7, 3600, Note_on_c, 9, 74, 120
7, 3600, Note_on_c, 9, 61, 120
7, 3600, Note_on_c, 9, 62, 120
7, 3600, Note_on_c, 9, 49, 30
7, 3600, Note_on_c, 9, 51, 30
7, 3657, Note_off_c, 9, 51, 0
7, 3657, Note_off_c, 9, 49, 0
7, 3657, Note_off_c, 9, 62, 0
7, 3657, Note_off_c, 9, 61, 0
7, 3657, Note_off_c, 9, 35, 0
7, 3657, Note_off_c, 9, 36, 0
7, 3723, Note_on_c, 9, 60, 120
7, 3723, Note_on_c, 9, 61, 120
7, 3780, Note_off_c, 9, 61, 0
7, 3780, Note_off_c, 9, 60, 0
7, 3828, Note_off_c, 9, 74, 0
7, 3840, Note_on_c, 9, 74, 120
7, 3840, Note_on_c, 9, 76, 120
7, 3840, Note_on_c, 9, 75, 120
7, 3840, Note_on_c, 9, 62, 120
7, 3840, Note_on_c, 9, 37, 120
7, 3840, Note_on_c, 9, 28, 120
7, 3840, Note_on_c, 9, 36, 120
7, 3840, Note_on_c, 9, 35, 120
7, 3840, Note_on_c, 9, 51, 30
7, 3840, Note_on_c, 9, 49, 30
7, 3897, Note_off_c, 9, 49, 0
7, 3897, Note_off_c, 9, 51, 0
7, 3897, Note_off_c, 9, 35, 0
7, 3897, Note_off_c, 9, 36, 0
7, 3897, Note_off_c, 9, 28, 0
7, 3897, Note_off_c, 9, 37, 0
7, 3897, Note_off_c, 9, 62, 0
7, 3897, Note_off_c, 9, 76, 0
7, 4080, Note_on_c, 9, 62, 120
7, 4080, Note_on_c, 9, 49, 30
7, 4080, Note_on_c, 9, 51, 30
7, 4137, Note_off_c, 9, 51, 0
7, 4137, Note_off_c, 9, 49, 0
7, 4137, Note_off_c, 9, 62, 0
7, 4296, Note_off_c, 9, 74, 0
7, 4296, Note_off_c, 9, 75, 0
7, 4320, Note_on_c, 9, 63, 120
7, 4320, Note_on_c, 9, 28, 120
7, 4320, Note_on_c, 9, 37, 120
7, 4320, Note_on_c, 9, 49, 30
7, 4320, Note_on_c, 9, 51, 30
7, 4320, Note_on_c, 9, 42, 120
7, 4377, Note_off_c, 9, 42, 0
7, 4377, Note_off_c, 9, 51, 0
7, 4377, Note_off_c, 9, 49, 0
7, 4377, Note_off_c, 9, 37, 0
7, 4377, Note_off_c, 9, 28, 0
7, 4377, Note_off_c, 9, 63, 0
7, 4560, Note_on_c, 9, 74, 120
7, 4560, Note_on_c, 9, 76, 120
7, 4560, Note_on_c, 9, 62, 120
7, 4560, Note_on_c, 9, 36, 120
7, 4560, Note_on_c, 9, 35, 120
7, 4560, Note_on_c, 9, 49, 30
7, 4560, Note_on_c, 9, 51, 30
7, 4617, Note_off_c, 9, 51, 0
7, 4617, Note_off_c, 9, 49, 0
7, 4617, Note_off_c, 9, 35, 0
7, 4617, Note_off_c, 9, 36, 0
7, 4617, Note_off_c, 9, 62, 0
7, 4617, Note_off_c, 9, 76, 0
7, 4788, Note_off_c, 9, 74, 0
7, 4800, Note_on_c, 9, 74, 120
7, 4800, Note_on_c, 9, 75, 120
7, 4800, Note_on_c, 9, 62, 120
7, 4800, Note_on_c, 9, 63, 120
7, 4800, Note_on_c, 9, 36, 120
7, 4800, Note_on_c, 9, 35, 120
7, 4800, Note_on_c, 9, 28, 120
7, 4800, Note_on_c, 9, 37, 120
7, 4800, Note_on_c, 9, 49, 30
7, 4800, Note_on_c, 9, 51, 30
7, 4857, Note_off_c, 9, 51, 0
7, 4857, Note_off_c, 9, 49, 0
7, 4857, Note_off_c, 9, 37, 0
7, 4857, Note_off_c, 9, 28, 0
7, 4857, Note_off_c, 9, 35, 0
7, 4857, Note_off_c, 9, 36, 0
7, 4857, Note_off_c, 9, 63, 0
7, 4857, Note_off_c, 9, 62, 0
7, 5040, Note_on_c, 9, 62, 120
7, 5040, Note_on_c, 9, 49, 30
7, 5040, Note_on_c, 9, 51, 30
7, 5097, Note_off_c, 9, 51, 0
7, 5097, Note_off_c, 9, 49, 0
7, 5097, Note_off_c, 9, 62, 0
7, 5256, Note_off_c, 9, 75, 0
7, 5256, Note_off_c, 9, 74, 0
7, 5280, Note_on_c, 9, 76, 120
7, 5280, Note_on_c, 9, 62, 120
7, 5280, Note_on_c, 9, 63, 120
7, 5280, Note_on_c, 9, 28, 120
7, 5280, Note_on_c, 9, 37, 120
7, 5280, Note_on_c, 9, 49, 30
7, 5280, Note_on_c, 9, 51, 30
7, 5280, Note_on_c, 9, 42, 120
7, 5337, Note_off_c, 9, 42, 0
7, 5337, Note_off_c, 9, 51, 0
7, 5337, Note_off_c, 9, 49, 0
7, 5337, Note_off_c, 9, 37, 0
7, 5337, Note_off_c, 9, 28, 0
7, 5337, Note_off_c, 9, 63, 0
7, 5337, Note_off_c, 9, 62, 0
7, 5337, Note_off_c, 9, 76, 0
7, 5520, Note_on_c, 9, 74, 120
7, 5520, Note_on_c, 9, 62, 120
7, 5520, Note_on_c, 9, 36, 120
7, 5520, Note_on_c, 9, 35, 120
7, 5520, Note_on_c, 9, 49, 30
7, 5520, Note_on_c, 9, 51, 30
7, 5577, Note_off_c, 9, 51, 0
7, 5577, Note_off_c, 9, 49, 0
7, 5577, Note_off_c, 9, 35, 0
7, 5577, Note_off_c, 9, 36, 0
7, 5577, Note_off_c, 9, 62, 0
7, 5748, Note_off_c, 9, 74, 0
7, 5760, Note_on_c, 9, 74, 120
7, 5760, Note_on_c, 9, 75, 120
7, 5760, Note_on_c, 9, 62, 120
7, 5760, Note_on_c, 9, 36, 120
7, 5760, Note_on_c, 9, 35, 120
7, 5760, Note_on_c, 9, 28, 120
7, 5760, Note_on_c, 9, 37, 120
7, 5760, Note_on_c, 9, 51, 30
7, 5760, Note_on_c, 9, 49, 30
7, 5817, Note_off_c, 9, 49, 0
7, 5817, Note_off_c, 9, 51, 0
7, 5817, Note_off_c, 9, 37, 0
7, 5817, Note_off_c, 9, 28, 0
7, 5817, Note_off_c, 9, 35, 0
7, 5817, Note_off_c, 9, 36, 0
7, 5817, Note_off_c, 9, 62, 0
7, 6000, Note_on_c, 9, 62, 120
7, 6000, Note_on_c, 9, 49, 30
7, 6000, Note_on_c, 9, 51, 30
7, 6057, Note_off_c, 9, 51, 0
7, 6057, Note_off_c, 9, 49, 0
7, 6057, Note_off_c, 9, 62, 0
7, 6216, Note_off_c, 9, 75, 0
7, 6216, Note_off_c, 9, 74, 0
7, 6240, Note_on_c, 9, 76, 120
7, 6240, Note_on_c, 9, 62, 120
7, 6240, Note_on_c, 9, 63, 120
7, 6240, Note_on_c, 9, 28, 120
7, 6240, Note_on_c, 9, 37, 120
7, 6240, Note_on_c, 9, 49, 30
7, 6240, Note_on_c, 9, 51, 30
7, 6240, Note_on_c, 9, 42, 120
7, 6297, Note_off_c, 9, 42, 0
7, 6297, Note_off_c, 9, 51, 0
7, 6297, Note_off_c, 9, 49, 0
7, 6297, Note_off_c, 9, 37, 0
7, 6297, Note_off_c, 9, 28, 0
7, 6297, Note_off_c, 9, 63, 0
7, 6297, Note_off_c, 9, 62, 0
7, 6297, Note_off_c, 9, 76, 0
7, 6480, Note_on_c, 9, 74, 120
7, 6480, Note_on_c, 9, 62, 120
7, 6480, Note_on_c, 9, 36, 120
7, 6480, Note_on_c, 9, 35, 120
7, 6480, Note_on_c, 9, 49, 30
7, 6480, Note_on_c, 9, 51, 30
7, 6537, Note_off_c, 9, 51, 0
7, 6537, Note_off_c, 9, 49, 0
7, 6537, Note_off_c, 9, 35, 0
7, 6537, Note_off_c, 9, 36, 0
7, 6537, Note_off_c, 9, 62, 0
7, 6708, Note_off_c, 9, 74, 0
7, 6720, Note_on_c, 9, 74, 120
7, 6720, Note_on_c, 9, 75, 120
7, 6720, Note_on_c, 9, 62, 120
7, 6720, Note_on_c, 9, 63, 120
7, 6720, Note_on_c, 9, 35, 120
7, 6720, Note_on_c, 9, 36, 120
7, 6720, Note_on_c, 9, 28, 120
7, 6720, Note_on_c, 9, 37, 120
7, 6720, Note_on_c, 9, 49, 30
7, 6720, Note_on_c, 9, 51, 30
7, 6777, Note_off_c, 9, 51, 0
7, 6777, Note_off_c, 9, 49, 0
7, 6777, Note_off_c, 9, 37, 0
7, 6777, Note_off_c, 9, 28, 0
7, 6777, Note_off_c, 9, 36, 0
7, 6777, Note_off_c, 9, 35, 0
7, 6777, Note_off_c, 9, 63, 0
7, 6777, Note_off_c, 9, 62, 0
7, 6960, Note_on_c, 9, 76, 120
7, 6960, Note_on_c, 9, 62, 120
7, 6960, Note_on_c, 9, 49, 30
7, 6960, Note_on_c, 9, 51, 30
7, 7017, Note_off_c, 9, 51, 0
7, 7017, Note_off_c, 9, 49, 0
7, 7017, Note_off_c, 9, 62, 0
7, 7017, Note_off_c, 9, 76, 0
7, 7176, Note_off_c, 9, 75, 0
7, 7176, Note_off_c, 9, 74, 0
7, 7200, Note_on_c, 9, 62, 120
7, 7200, Note_on_c, 9, 63, 120
7, 7200, Note_on_c, 9, 28, 120
7, 7200, Note_on_c, 9, 37, 120
7, 7200, Note_on_c, 9, 49, 30
7, 7200, Note_on_c, 9, 51, 30
7, 7200, Note_on_c, 9, 42, 120
7, 7257, Note_off_c, 9, 42, 0
7, 7257, Note_off_c, 9, 51, 0
7, 7257, Note_off_c, 9, 49, 0
7, 7257, Note_off_c, 9, 37, 0
7, 7257, Note_off_c, 9, 28, 0
7, 7257, Note_off_c, 9, 63, 0
7, 7257, Note_off_c, 9, 62, 0
7, 7316, Note_on_c, 9, 62, 120
7, 7373, Note_off_c, 9, 62, 0
7, 7440, Note_on_c, 9, 74, 120
7, 7440, Note_on_c, 9, 61, 120
7, 7440, Note_on_c, 9, 62, 120
7, 7440, Note_on_c, 9, 36, 120
7, 7440, Note_on_c, 9, 35, 120
7, 7440, Note_on_c, 9, 49, 30
7, 7440, Note_on_c, 9, 51, 30
7, 7497, Note_off_c, 9, 51, 0
7, 7497, Note_off_c, 9, 49, 0
7, 7497, Note_off_c, 9, 35, 0
7, 7497, Note_off_c, 9, 36, 0
7, 7497, Note_off_c, 9, 62, 0
7, 7497, Note_off_c, 9, 61, 0
7, 7563, Note_on_c, 9, 60, 120
7, 7563, Note_on_c, 9, 61, 120
7, 7620, Note_off_c, 9, 61, 0
7, 7620, Note_off_c, 9, 60, 0
7, 7668, Note_off_c, 9, 74, 0
7, 7680, Note_on_c, 9, 51, 30
7, 7680, Note_on_c, 9, 49, 30
7, 7680, Note_on_c, 9, 37, 120
7, 7680, Note_on_c, 9, 62, 120
7, 7680, Note_on_c, 9, 28, 120
7, 7680, Note_on_c, 9, 75, 120
7, 7680, Note_on_c, 9, 76, 120
7, 7680, Note_on_c, 9, 74, 120
7, 7680, Note_on_c, 9, 36, 120
7, 7680, Note_on_c, 9, 35, 120
7, 7737, Note_off_c, 9, 35, 0
7, 7737, Note_off_c, 9, 36, 0
7, 7737, Note_off_c, 9, 76, 0
7, 7737, Note_off_c, 9, 28, 0
7, 7737, Note_off_c, 9, 62, 0
7, 7737, Note_off_c, 9, 37, 0
7, 7737, Note_off_c, 9, 49, 0
7, 7737, Note_off_c, 9, 51, 0
7, 7920, Note_on_c, 9, 62, 120
7, 7920, Note_on_c, 9, 49, 30
7, 7920, Note_on_c, 9, 51, 30
7, 7977, Note_off_c, 9, 51, 0
7, 7977, Note_off_c, 9, 49, 0
7, 7977, Note_off_c, 9, 62, 0
7, 8136, Note_off_c, 9, 75, 0
7, 8136, Note_off_c, 9, 74, 0
7, 8160, Note_on_c, 9, 28, 120
7, 8160, Note_on_c, 9, 63, 120
7, 8160, Note_on_c, 9, 37, 120
7, 8160, Note_on_c, 9, 49, 30
7, 8160, Note_on_c, 9, 51, 30
7, 8160, Note_on_c, 9, 42, 120
7, 8217, Note_off_c, 9, 42, 0
7, 8217, Note_off_c, 9, 51, 0
7, 8217, Note_off_c, 9, 49, 0
7, 8217, Note_off_c, 9, 37, 0
7, 8217, Note_off_c, 9, 63, 0
7, 8217, Note_off_c, 9, 28, 0
7, 8400, Note_on_c, 9, 36, 120
7, 8400, Note_on_c, 9, 35, 120
7, 8400, Note_on_c, 9, 74, 120
7, 8400, Note_on_c, 9, 76, 120
7, 8400, Note_on_c, 9, 62, 120
7, 8400, Note_on_c, 9, 49, 30
7, 8400, Note_on_c, 9, 51, 30
7, 8457, Note_off_c, 9, 51, 0
7, 8457, Note_off_c, 9, 49, 0
7, 8457, Note_off_c, 9, 62, 0
7, 8457, Note_off_c, 9, 76, 0
7, 8457, Note_off_c, 9, 35, 0
7, 8457, Note_off_c, 9, 36, 0
7, 8628, Note_off_c, 9, 74, 0
7, 8640, Note_on_c, 9, 36, 120
7, 8640, Note_on_c, 9, 35, 120
7, 8640, Note_on_c, 9, 74, 120
7, 8640, Note_on_c, 9, 75, 120
7, 8640, Note_on_c, 9, 28, 120
7, 8640, Note_on_c, 9, 62, 120
7, 8640, Note_on_c, 9, 63, 120
7, 8640, Note_on_c, 9, 37, 120
7, 8640, Note_on_c, 9, 49, 30
7, 8640, Note_on_c, 9, 51, 30
7, 8697, Note_off_c, 9, 51, 0
7, 8697, Note_off_c, 9, 49, 0
7, 8697, Note_off_c, 9, 37, 0
7, 8697, Note_off_c, 9, 63, 0
7, 8697, Note_off_c, 9, 62, 0
7, 8697, Note_off_c, 9, 28, 0
7, 8697, Note_off_c, 9, 35, 0
7, 8697, Note_off_c, 9, 36, 0
7, 8880, Note_on_c, 9, 62, 120
7, 8880, Note_on_c, 9, 49, 30
7, 8880, Note_on_c, 9, 51, 30
7, 8937, Note_off_c, 9, 51, 0
7, 8937, Note_off_c, 9, 49, 0
7, 8937, Note_off_c, 9, 62, 0
7, 9096, Note_off_c, 9, 74, 0
7, 9096, Note_off_c, 9, 75, 0
7, 9120, Note_on_c, 9, 76, 120
7, 9120, Note_on_c, 9, 28, 120
7, 9120, Note_on_c, 9, 62, 120
7, 9120, Note_on_c, 9, 63, 120
7, 9120, Note_on_c, 9, 37, 120
7, 9120, Note_on_c, 9, 49, 30
7, 9120, Note_on_c, 9, 51, 30
7, 9120, Note_on_c, 9, 42, 120
7, 9177, Note_off_c, 9, 42, 0
7, 9177, Note_off_c, 9, 51, 0
7, 9177, Note_off_c, 9, 49, 0
7, 9177, Note_off_c, 9, 37, 0
7, 9177, Note_off_c, 9, 63, 0
7, 9177, Note_off_c, 9, 62, 0
7, 9177, Note_off_c, 9, 28, 0
7, 9177, Note_off_c, 9, 76, 0
7, 9360, Note_on_c, 9, 36, 120
7, 9360, Note_on_c, 9, 35, 120
7, 9360, Note_on_c, 9, 74, 120
7, 9360, Note_on_c, 9, 62, 120
7, 9360, Note_on_c, 9, 49, 30
7, 9360, Note_on_c, 9, 51, 30
7, 9417, Note_off_c, 9, 51, 0
7, 9417, Note_off_c, 9, 49, 0
7, 9417, Note_off_c, 9, 62, 0
7, 9417, Note_off_c, 9, 35, 0
7, 9417, Note_off_c, 9, 36, 0
7, 9588, Note_off_c, 9, 74, 0
7, 9600, Note_on_c, 9, 36, 120
7, 9600, Note_on_c, 9, 35, 120
7, 9600, Note_on_c, 9, 74, 120
7, 9600, Note_on_c, 9, 75, 120
7, 9600, Note_on_c, 9, 62, 120
7, 9600, Note_on_c, 9, 28, 120
7, 9600, Note_on_c, 9, 37, 120
7, 9600, Note_on_c, 9, 51, 30
7, 9600, Note_on_c, 9, 49, 30
7, 9657, Note_off_c, 9, 49, 0
7, 9657, Note_off_c, 9, 51, 0
7, 9657, Note_off_c, 9, 37, 0
7, 9657, Note_off_c, 9, 28, 0
7, 9657, Note_off_c, 9, 62, 0
7, 9657, Note_off_c, 9, 35, 0
7, 9657, Note_off_c, 9, 36, 0
7, 9840, Note_on_c, 9, 62, 120
7, 9840, Note_on_c, 9, 49, 30
7, 9840, Note_on_c, 9, 51, 30
7, 9897, Note_off_c, 9, 51, 0
7, 9897, Note_off_c, 9, 49, 0
7, 9897, Note_off_c, 9, 62, 0
7, 10056, Note_off_c, 9, 74, 0
7, 10056, Note_off_c, 9, 75, 0
7, 10080, Note_on_c, 9, 76, 120
7, 10080, Note_on_c, 9, 62, 120
7, 10080, Note_on_c, 9, 63, 120
7, 10080, Note_on_c, 9, 28, 120
7, 10080, Note_on_c, 9, 37, 120
7, 10080, Note_on_c, 9, 49, 30
7, 10080, Note_on_c, 9, 51, 30
7, 10080, Note_on_c, 9, 42, 120
7, 10137, Note_off_c, 9, 42, 0
7, 10137, Note_off_c, 9, 51, 0
7, 10137, Note_off_c, 9, 49, 0
7, 10137, Note_off_c, 9, 37, 0
7, 10137, Note_off_c, 9, 28, 0
7, 10137, Note_off_c, 9, 63, 0
7, 10137, Note_off_c, 9, 62, 0
7, 10137, Note_off_c, 9, 76, 0
7, 10320, Note_on_c, 9, 36, 120
7, 10320, Note_on_c, 9, 35, 120
7, 10320, Note_on_c, 9, 74, 120
7, 10320, Note_on_c, 9, 62, 120
7, 10320, Note_on_c, 9, 49, 30
7, 10320, Note_on_c, 9, 51, 30
7, 10377, Note_off_c, 9, 51, 0
7, 10377, Note_off_c, 9, 49, 0
7, 10377, Note_off_c, 9, 62, 0
7, 10377, Note_off_c, 9, 35, 0
7, 10377, Note_off_c, 9, 36, 0
7, 10548, Note_off_c, 9, 74, 0
7, 10560, Note_on_c, 9, 35, 120
7, 10560, Note_on_c, 9, 36, 120
7, 10560, Note_on_c, 9, 74, 120
7, 10560, Note_on_c, 9, 75, 120
7, 10560, Note_on_c, 9, 62, 120
7, 10560, Note_on_c, 9, 63, 120
7, 10560, Note_on_c, 9, 28, 120
7, 10560, Note_on_c, 9, 37, 120
7, 10560, Note_on_c, 9, 49, 30
7, 10560, Note_on_c, 9, 51, 30
7, 10617, Note_off_c, 9, 51, 0
7, 10617, Note_off_c, 9, 49, 0
7, 10617, Note_off_c, 9, 37, 0
7, 10617, Note_off_c, 9, 28, 0
7, 10617, Note_off_c, 9, 63, 0
7, 10617, Note_off_c, 9, 62, 0
7, 10617, Note_off_c, 9, 36, 0
7, 10617, Note_off_c, 9, 35, 0
7, 10800, Note_on_c, 9, 76, 120
7, 10800, Note_on_c, 9, 62, 120
7, 10800, Note_on_c, 9, 49, 30
7, 10800, Note_on_c, 9, 51, 30
7, 10857, Note_off_c, 9, 51, 0
7, 10857, Note_off_c, 9, 49, 0
7, 10857, Note_off_c, 9, 62, 0
7, 10857, Note_off_c, 9, 76, 0
7, 11016, Note_off_c, 9, 74, 0
7, 11016, Note_off_c, 9, 75, 0
7, 11040, Note_on_c, 9, 62, 120
7, 11040, Note_on_c, 9, 63, 120
7, 11040, Note_on_c, 9, 28, 120
7, 11040, Note_on_c, 9, 37, 120
7, 11040, Note_on_c, 9, 49, 30
7, 11040, Note_on_c, 9, 51, 30
7, 11040, Note_on_c, 9, 42, 120
7, 11097, Note_off_c, 9, 42, 0
7, 11097, Note_off_c, 9, 51, 0
7, 11097, Note_off_c, 9, 49, 0
7, 11097, Note_off_c, 9, 37, 0
7, 11097, Note_off_c, 9, 28, 0
7, 11097, Note_off_c, 9, 63, 0
7, 11097, Note_off_c, 9, 62, 0
7, 11156, Note_on_c, 9, 62, 120
7, 11213, Note_off_c, 9, 62, 0
7, 11280, Note_on_c, 9, 36, 120
7, 11280, Note_on_c, 9, 35, 120
7, 11280, Note_on_c, 9, 74, 120
7, 11280, Note_on_c, 9, 61, 120
7, 11280, Note_on_c, 9, 62, 120
7, 11280, Note_on_c, 9, 49, 30
7, 11280, Note_on_c, 9, 51, 30
7, 11337, Note_off_c, 9, 51, 0
7, 11337, Note_off_c, 9, 49, 0
7, 11337, Note_off_c, 9, 62, 0
7, 11337, Note_off_c, 9, 61, 0
7, 11337, Note_off_c, 9, 35, 0
7, 11337, Note_off_c, 9, 36, 0
7, 11403, Note_on_c, 9, 60, 120
7, 11403, Note_on_c, 9, 61, 120
7, 11460, Note_off_c, 9, 61, 0
7, 11460, Note_off_c, 9, 60, 0
7, 11508, Note_off_c, 9, 74, 0
7, 11520, Note_on_c, 9, 74, 120
7, 11520, Note_on_c, 9, 76, 120
7, 11520, Note_on_c, 9, 75, 120
7, 11520, Note_on_c, 9, 62, 120
7, 11520, Note_on_c, 9, 37, 120
7, 11520, Note_on_c, 9, 28, 120
7, 11520, Note_on_c, 9, 36, 120
7, 11520, Note_on_c, 9, 35, 120
7, 11520, Note_on_c, 9, 51, 30
7, 11520, Note_on_c, 9, 49, 30
7, 11577, Note_off_c, 9, 49, 0
7, 11577, Note_off_c, 9, 51, 0
7, 11577, Note_off_c, 9, 35, 0
7, 11577, Note_off_c, 9, 36, 0
7, 11577, Note_off_c, 9, 28, 0
7, 11577, Note_off_c, 9, 37, 0
7, 11577, Note_off_c, 9, 62, 0
7, 11577, Note_off_c, 9, 76, 0
7, 11760, Note_on_c, 9, 62, 120
7, 11760, Note_on_c, 9, 49, 30
7, 11760, Note_on_c, 9, 51, 30
7, 11817, Note_off_c, 9, 51, 0
7, 11817, Note_off_c, 9, 49, 0
7, 11817, Note_off_c, 9, 62, 0
7, 11976, Note_off_c, 9, 74, 0
7, 11976, Note_off_c, 9, 75, 0
7, 12000, Note_on_c, 9, 63, 120
7, 12000, Note_on_c, 9, 28, 120
7, 12000, Note_on_c, 9, 37, 120
7, 12000, Note_on_c, 9, 49, 30
7, 12000, Note_on_c, 9, 51, 30
7, 12000, Note_on_c, 9, 42, 120
7, 12057, Note_off_c, 9, 42, 0
7, 12057, Note_off_c, 9, 51, 0
7, 12057, Note_off_c, 9, 49, 0
7, 12057, Note_off_c, 9, 37, 0
7, 12057, Note_off_c, 9, 28, 0
7, 12057, Note_off_c, 9, 63, 0
7, 12240, Note_on_c, 9, 74, 120
7, 12240, Note_on_c, 9, 76, 120
7, 12240, Note_on_c, 9, 62, 120
7, 12240, Note_on_c, 9, 36, 120
7, 12240, Note_on_c, 9, 35, 120
7, 12240, Note_on_c, 9, 49, 30
7, 12240, Note_on_c, 9, 51, 30
7, 12297, Note_off_c, 9, 51, 0
7, 12297, Note_off_c, 9, 49, 0
7, 12297, Note_off_c, 9, 35, 0
7, 12297, Note_off_c, 9, 36, 0
7, 12297, Note_off_c, 9, 62, 0
7, 12297, Note_off_c, 9, 76, 0
7, 12468, Note_off_c, 9, 74, 0
7, 12480, Note_on_c, 9, 74, 120
7, 12480, Note_on_c, 9, 75, 120
7, 12480, Note_on_c, 9, 62, 120
7, 12480, Note_on_c, 9, 63, 120
7, 12480, Note_on_c, 9, 36, 120
7, 12480, Note_on_c, 9, 35, 120
7, 12480, Note_on_c, 9, 28, 120
7, 12480, Note_on_c, 9, 37, 120
7, 12480, Note_on_c, 9, 49, 30
7, 12480, Note_on_c, 9, 51, 30
7, 12537, Note_off_c, 9, 51, 0
7, 12537, Note_off_c, 9, 49, 0
7, 12537, Note_off_c, 9, 37, 0
7, 12537, Note_off_c, 9, 28, 0
7, 12537, Note_off_c, 9, 35, 0
7, 12537, Note_off_c, 9, 36, 0
7, 12537, Note_off_c, 9, 63, 0
7, 12537, Note_off_c, 9, 62, 0
7, 12720, Note_on_c, 9, 62, 120
7, 12720, Note_on_c, 9, 49, 30
7, 12720, Note_on_c, 9, 51, 30
7, 12777, Note_off_c, 9, 51, 0
7, 12777, Note_off_c, 9, 49, 0
7, 12777, Note_off_c, 9, 62, 0
7, 12936, Note_off_c, 9, 75, 0
7, 12936, Note_off_c, 9, 74, 0
7, 12960, Note_on_c, 9, 76, 120
7, 12960, Note_on_c, 9, 62, 120
7, 12960, Note_on_c, 9, 63, 120
7, 12960, Note_on_c, 9, 28, 120
7, 12960, Note_on_c, 9, 37, 120
7, 12960, Note_on_c, 9, 49, 30
7, 12960, Note_on_c, 9, 51, 30
7, 12960, Note_on_c, 9, 42, 120
7, 13017, Note_off_c, 9, 42, 0
7, 13017, Note_off_c, 9, 51, 0
7, 13017, Note_off_c, 9, 49, 0
7, 13017, Note_off_c, 9, 37, 0
7, 13017, Note_off_c, 9, 28, 0
7, 13017, Note_off_c, 9, 63, 0
7, 13017, Note_off_c, 9, 62, 0
7, 13017, Note_off_c, 9, 76, 0
7, 13200, Note_on_c, 9, 74, 120
7, 13200, Note_on_c, 9, 62, 120
7, 13200, Note_on_c, 9, 36, 120
7, 13200, Note_on_c, 9, 35, 120
7, 13200, Note_on_c, 9, 49, 30
7, 13200, Note_on_c, 9, 51, 30
7, 13257, Note_off_c, 9, 51, 0
7, 13257, Note_off_c, 9, 49, 0
7, 13257, Note_off_c, 9, 35, 0
7, 13257, Note_off_c, 9, 36, 0
7, 13257, Note_off_c, 9, 62, 0
7, 13428, Note_off_c, 9, 74, 0
7, 13440, Note_on_c, 9, 74, 120
7, 13440, Note_on_c, 9, 75, 120
7, 13440, Note_on_c, 9, 62, 120
7, 13440, Note_on_c, 9, 36, 120
7, 13440, Note_on_c, 9, 35, 120
7, 13440, Note_on_c, 9, 28, 120
7, 13440, Note_on_c, 9, 37, 120
7, 13440, Note_on_c, 9, 51, 30
7, 13440, Note_on_c, 9, 49, 30
7, 13497, Note_off_c, 9, 49, 0
7, 13497, Note_off_c, 9, 51, 0
7, 13497, Note_off_c, 9, 37, 0
7, 13497, Note_off_c, 9, 28, 0
7, 13497, Note_off_c, 9, 35, 0
7, 13497, Note_off_c, 9, 36, 0
7, 13497, Note_off_c, 9, 62, 0
7, 13680, Note_on_c, 9, 62, 120
7, 13680, Note_on_c, 9, 49, 30
7, 13680, Note_on_c, 9, 51, 30
7, 13737, Note_off_c, 9, 51, 0
7, 13737, Note_off_c, 9, 49, 0
7, 13737, Note_off_c, 9, 62, 0
7, 13896, Note_off_c, 9, 75, 0
7, 13896, Note_off_c, 9, 74, 0
7, 13920, Note_on_c, 9, 76, 120
7, 13920, Note_on_c, 9, 62, 120
7, 13920, Note_on_c, 9, 63, 120
7, 13920, Note_on_c, 9, 28, 120
7, 13920, Note_on_c, 9, 37, 120
7, 13920, Note_on_c, 9, 49, 30
7, 13920, Note_on_c, 9, 51, 30
7, 13920, Note_on_c, 9, 42, 120
7, 13977, Note_off_c, 9, 42, 0
7, 13977, Note_off_c, 9, 51, 0
7, 13977, Note_off_c, 9, 49, 0
7, 13977, Note_off_c, 9, 37, 0
7, 13977, Note_off_c, 9, 28, 0
7, 13977, Note_off_c, 9, 63, 0
7, 13977, Note_off_c, 9, 62, 0
7, 13977, Note_off_c, 9, 76, 0
7, 14160, Note_on_c, 9, 74, 120
7, 14160, Note_on_c, 9, 62, 120
7, 14160, Note_on_c, 9, 36, 120
7, 14160, Note_on_c, 9, 35, 120
7, 14160, Note_on_c, 9, 49, 30
7, 14160, Note_on_c, 9, 51, 30
7, 14217, Note_off_c, 9, 51, 0
7, 14217, Note_off_c, 9, 49, 0
7, 14217, Note_off_c, 9, 35, 0
7, 14217, Note_off_c, 9, 36, 0
7, 14217, Note_off_c, 9, 62, 0
7, 14388, Note_off_c, 9, 74, 0
7, 14400, Note_on_c, 9, 74, 120
7, 14400, Note_on_c, 9, 75, 120
7, 14400, Note_on_c, 9, 62, 120
7, 14400, Note_on_c, 9, 63, 120
7, 14400, Note_on_c, 9, 35, 120
7, 14400, Note_on_c, 9, 36, 120
7, 14400, Note_on_c, 9, 28, 120
7, 14400, Note_on_c, 9, 37, 120
7, 14400, Note_on_c, 9, 49, 30
7, 14400, Note_on_c, 9, 51, 30
7, 14457, Note_off_c, 9, 51, 0
7, 14457, Note_off_c, 9, 49, 0
7, 14457, Note_off_c, 9, 37, 0
7, 14457, Note_off_c, 9, 28, 0
7, 14457, Note_off_c, 9, 36, 0
7, 14457, Note_off_c, 9, 35, 0
7, 14457, Note_off_c, 9, 63, 0
7, 14457, Note_off_c, 9, 62, 0
7, 14640, Note_on_c, 9, 76, 120
7, 14640, Note_on_c, 9, 62, 120
7, 14640, Note_on_c, 9, 49, 30
7, 14640, Note_on_c, 9, 51, 30
7, 14697, Note_off_c, 9, 51, 0
7, 14697, Note_off_c, 9, 49, 0
7, 14697, Note_off_c, 9, 62, 0
7, 14697, Note_off_c, 9, 76, 0
7, 14856, Note_off_c, 9, 75, 0
7, 14856, Note_off_c, 9, 74, 0
7, 14880, Note_on_c, 9, 62, 120
7, 14880, Note_on_c, 9, 63, 120
7, 14880, Note_on_c, 9, 28, 120
7, 14880, Note_on_c, 9, 37, 120
7, 14880, Note_on_c, 9, 49, 30
7, 14880, Note_on_c, 9, 51, 30
7, 14880, Note_on_c, 9, 42, 120
7, 14937, Note_off_c, 9, 42, 0
7, 14937, Note_off_c, 9, 51, 0
7, 14937, Note_off_c, 9, 49, 0
7, 14937, Note_off_c, 9, 37, 0
7, 14937, Note_off_c, 9, 28, 0
7, 14937, Note_off_c, 9, 63, 0
7, 14937, Note_off_c, 9, 62, 0
7, 14996, Note_on_c, 9, 62, 120
7, 15053, Note_off_c, 9, 62, 0
7, 15120, Note_on_c, 9, 74, 120
7, 15120, Note_on_c, 9, 61, 120
7, 15120, Note_on_c, 9, 62, 120
7, 15120, Note_on_c, 9, 36, 120
7, 15120, Note_on_c, 9, 35, 120
7, 15120, Note_on_c, 9, 49, 30
7, 15120, Note_on_c, 9, 51, 30
7, 15177, Note_off_c, 9, 51, 0
7, 15177, Note_off_c, 9, 49, 0
7, 15177, Note_off_c, 9, 35, 0
7, 15177, Note_off_c, 9, 36, 0
7, 15177, Note_off_c, 9, 62, 0
7, 15177, Note_off_c, 9, 61, 0
7, 15243, Note_on_c, 9, 60, 120
7, 15243, Note_on_c, 9, 61, 120
7, 15300, Note_off_c, 9, 61, 0
7, 15300, Note_off_c, 9, 60, 0
7, 15348, Note_off_c, 9, 74, 0
7, 15360, Note_on_c, 9, 51, 30
7, 15360, Note_on_c, 9, 49, 30
7, 15360, Note_on_c, 9, 37, 120
7, 15360, Note_on_c, 9, 62, 120
7, 15360, Note_on_c, 9, 28, 120
7, 15360, Note_on_c, 9, 75, 120
7, 15360, Note_on_c, 9, 76, 120
7, 15360, Note_on_c, 9, 74, 120
7, 15360, Note_on_c, 9, 36, 120
7, 15360, Note_on_c, 9, 35, 120
7, 15417, Note_off_c, 9, 35, 0
7, 15417, Note_off_c, 9, 36, 0
7, 15417, Note_off_c, 9, 76, 0
7, 15417, Note_off_c, 9, 28, 0
7, 15417, Note_off_c, 9, 62, 0
7, 15417, Note_off_c, 9, 37, 0
7, 15417, Note_off_c, 9, 49, 0
7, 15417, Note_off_c, 9, 51, 0
7, 15600, Note_on_c, 9, 62, 120
7, 15600, Note_on_c, 9, 49, 30
7, 15600, Note_on_c, 9, 51, 30
7, 15657, Note_off_c, 9, 51, 0
7, 15657, Note_off_c, 9, 49, 0
7, 15657, Note_off_c, 9, 62, 0
7, 15816, Note_off_c, 9, 75, 0
7, 15816, Note_off_c, 9, 74, 0
7, 15840, Note_on_c, 9, 28, 120
7, 15840, Note_on_c, 9, 63, 120
7, 15840, Note_on_c, 9, 37, 120
7, 15840, Note_on_c, 9, 49, 30
7, 15840, Note_on_c, 9, 51, 30
7, 15840, Note_on_c, 9, 42, 120
7, 15897, Note_off_c, 9, 42, 0
7, 15897, Note_off_c, 9, 51, 0
7, 15897, Note_off_c, 9, 49, 0
7, 15897, Note_off_c, 9, 37, 0
7, 15897, Note_off_c, 9, 63, 0
7, 15897, Note_off_c, 9, 28, 0
7, 16080, Note_on_c, 9, 36, 120
7, 16080, Note_on_c, 9, 35, 120
7, 16080, Note_on_c, 9, 74, 120
7, 16080, Note_on_c, 9, 76, 120
7, 16080, Note_on_c, 9, 62, 120
7, 16080, Note_on_c, 9, 49, 30
7, 16080, Note_on_c, 9, 51, 30
7, 16137, Note_off_c, 9, 51, 0
7, 16137, Note_off_c, 9, 49, 0
7, 16137, Note_off_c, 9, 62, 0
7, 16137, Note_off_c, 9, 76, 0
7, 16137, Note_off_c, 9, 35, 0
7, 16137, Note_off_c, 9, 36, 0
7, 16308, Note_off_c, 9, 74, 0
7, 16320, Note_on_c, 9, 36, 120
7, 16320, Note_on_c, 9, 35, 120
7, 16320, Note_on_c, 9, 74, 120
7, 16320, Note_on_c, 9, 75, 120
7, 16320, Note_on_c, 9, 28, 120
7, 16320, Note_on_c, 9, 62, 120
7, 16320, Note_on_c, 9, 63, 120
7, 16320, Note_on_c, 9, 37, 120
7, 16320, Note_on_c, 9, 49, 30
7, 16320, Note_on_c, 9, 51, 30
7, 16377, Note_off_c, 9, 51, 0
7, 16377, Note_off_c, 9, 49, 0
7, 16377, Note_off_c, 9, 37, 0
7, 16377, Note_off_c, 9, 63, 0
7, 16377, Note_off_c, 9, 62, 0
7, 16377, Note_off_c, 9, 28, 0
7, 16377, Note_off_c, 9, 35, 0
7, 16377, Note_off_c, 9, 36, 0
7, 16560, Note_on_c, 9, 62, 120
7, 16560, Note_on_c, 9, 49, 30
7, 16560, Note_on_c, 9, 51, 30
7, 16617, Note_off_c, 9, 51, 0
7, 16617, Note_off_c, 9, 49, 0
7, 16617, Note_off_c, 9, 62, 0
7, 16776, Note_off_c, 9, 74, 0
7, 16776, Note_off_c, 9, 75, 0
7, 16800, Note_on_c, 9, 76, 120
7, 16800, Note_on_c, 9, 28, 120
7, 16800, Note_on_c, 9, 62, 120
7, 16800, Note_on_c, 9, 63, 120
7, 16800, Note_on_c, 9, 37, 120
7, 16800, Note_on_c, 9, 49, 30
7, 16800, Note_on_c, 9, 51, 30
7, 16800, Note_on_c, 9, 42, 120
7, 16857, Note_off_c, 9, 42, 0
7, 16857, Note_off_c, 9, 51, 0
7, 16857, Note_off_c, 9, 49, 0
7, 16857, Note_off_c, 9, 37, 0
7, 16857, Note_off_c, 9, 63, 0
7, 16857, Note_off_c, 9, 62, 0
7, 16857, Note_off_c, 9, 28, 0
7, 16857, Note_off_c, 9, 76, 0
7, 17040, Note_on_c, 9, 36, 120
7, 17040, Note_on_c, 9, 35, 120
7, 17040, Note_on_c, 9, 74, 120
7, 17040, Note_on_c, 9, 62, 120
7, 17040, Note_on_c, 9, 49, 30
7, 17040, Note_on_c, 9, 51, 30
7, 17097, Note_off_c, 9, 51, 0
7, 17097, Note_off_c, 9, 49, 0
7, 17097, Note_off_c, 9, 62, 0
7, 17097, Note_off_c, 9, 35, 0
7, 17097, Note_off_c, 9, 36, 0
7, 17268, Note_off_c, 9, 74, 0
7, 17280, Note_on_c, 9, 36, 120
7, 17280, Note_on_c, 9, 35, 120
7, 17280, Note_on_c, 9, 74, 120
7, 17280, Note_on_c, 9, 75, 120
7, 17280, Note_on_c, 9, 62, 120
7, 17280, Note_on_c, 9, 28, 120
7, 17280, Note_on_c, 9, 37, 120
7, 17280, Note_on_c, 9, 51, 30
7, 17280, Note_on_c, 9, 49, 30
7, 17337, Note_off_c, 9, 49, 0
7, 17337, Note_off_c, 9, 51, 0
7, 17337, Note_off_c, 9, 37, 0
7, 17337, Note_off_c, 9, 28, 0
7, 17337, Note_off_c, 9, 62, 0
7, 17337, Note_off_c, 9, 35, 0
7, 17337, Note_off_c, 9, 36, 0
7, 17520, Note_on_c, 9, 62, 120
7, 17520, Note_on_c, 9, 49, 30
7, 17520, Note_on_c, 9, 51, 30
7, 17577, Note_off_c, 9, 51, 0
7, 17577, Note_off_c, 9, 49, 0
7, 17577, Note_off_c, 9, 62, 0
7, 17736, Note_off_c, 9, 74, 0
7, 17736, Note_off_c, 9, 75, 0
7, 17760, Note_on_c, 9, 76, 120
7, 17760, Note_on_c, 9, 62, 120
7, 17760, Note_on_c, 9, 63, 120
7, 17760, Note_on_c, 9, 28, 120
7, 17760, Note_on_c, 9, 37, 120
7, 17760, Note_on_c, 9, 49, 30
7, 17760, Note_on_c, 9, 51, 30
7, 17760, Note_on_c, 9, 42, 120
7, 17817, Note_off_c, 9, 42, 0
7, 17817, Note_off_c, 9, 51, 0
7, 17817, Note_off_c, 9, 49, 0
7, 17817, Note_off_c, 9, 37, 0
7, 17817, Note_off_c, 9, 28, 0
7, 17817, Note_off_c, 9, 63, 0
7, 17817, Note_off_c, 9, 62, 0
7, 17817, Note_off_c, 9, 76, 0
7, 18000, Note_on_c, 9, 36, 120
7, 18000, Note_on_c, 9, 35, 120
7, 18000, Note_on_c, 9, 74, 120
7, 18000, Note_on_c, 9, 62, 120
7, 18000, Note_on_c, 9, 49, 30
7, 18000, Note_on_c, 9, 51, 30
7, 18057, Note_off_c, 9, 51, 0
7, 18057, Note_off_c, 9, 49, 0
7, 18057, Note_off_c, 9, 62, 0
7, 18057, Note_off_c, 9, 35, 0
7, 18057, Note_off_c, 9, 36, 0
7, 18228, Note_off_c, 9, 74, 0
7, 18240, Note_on_c, 9, 35, 120
7, 18240, Note_on_c, 9, 36, 120
7, 18240, Note_on_c, 9, 74, 120
7, 18240, Note_on_c, 9, 75, 120
7, 18240, Note_on_c, 9, 62, 120
7, 18240, Note_on_c, 9, 63, 120
7, 18240, Note_on_c, 9, 28, 120
7, 18240, Note_on_c, 9, 37, 120
7, 18240, Note_on_c, 9, 49, 30
7, 18240, Note_on_c, 9, 51, 30
7, 18297, Note_off_c, 9, 51, 0
7, 18297, Note_off_c, 9, 49, 0
7, 18297, Note_off_c, 9, 37, 0
7, 18297, Note_off_c, 9, 28, 0
7, 18297, Note_off_c, 9, 63, 0
7, 18297, Note_off_c, 9, 62, 0
7, 18297, Note_off_c, 9, 36, 0
7, 18297, Note_off_c, 9, 35, 0
7, 18480, Note_on_c, 9, 76, 120
7, 18480, Note_on_c, 9, 62, 120
7, 18480, Note_on_c, 9, 49, 30
7, 18480, Note_on_c, 9, 51, 30
7, 18537, Note_off_c, 9, 51, 0
7, 18537, Note_off_c, 9, 49, 0
7, 18537, Note_off_c, 9, 62, 0
7, 18537, Note_off_c, 9, 76, 0
7, 18696, Note_off_c, 9, 74, 0
7, 18696, Note_off_c, 9, 75, 0
7, 18720, Note_on_c, 9, 62, 120
7, 18720, Note_on_c, 9, 63, 120
7, 18720, Note_on_c, 9, 28, 120
7, 18720, Note_on_c, 9, 37, 120
7, 18720, Note_on_c, 9, 49, 30
7, 18720, Note_on_c, 9, 51, 30
7, 18720, Note_on_c, 9, 42, 120
7, 18777, Note_off_c, 9, 42, 0
7, 18777, Note_off_c, 9, 51, 0
7, 18777, Note_off_c, 9, 49, 0
7, 18777, Note_off_c, 9, 37, 0
7, 18777, Note_off_c, 9, 28, 0
7, 18777, Note_off_c, 9, 63, 0
7, 18777, Note_off_c, 9, 62, 0
7, 18836, Note_on_c, 9, 62, 120
7, 18893, Note_off_c, 9, 62, 0
7, 18960, Note_on_c, 9, 36, 120
7, 18960, Note_on_c, 9, 35, 120
7, 18960, Note_on_c, 9, 74, 120
7, 18960, Note_on_c, 9, 61, 120
7, 18960, Note_on_c, 9, 62, 120
7, 18960, Note_on_c, 9, 49, 30
7, 18960, Note_on_c, 9, 51, 30
7, 19017, Note_off_c, 9, 51, 0
7, 19017, Note_off_c, 9, 49, 0
7, 19017, Note_off_c, 9, 62, 0
7, 19017, Note_off_c, 9, 61, 0
7, 19017, Note_off_c, 9, 35, 0
7, 19017, Note_off_c, 9, 36, 0
7, 19083, Note_on_c, 9, 60, 120
7, 19083, Note_on_c, 9, 61, 120
7, 19140, Note_off_c, 9, 61, 0
7, 19140, Note_off_c, 9, 60, 0
7, 19188, Note_off_c, 9, 74, 0
7, 19200, Note_on_c, 9, 74, 120
7, 19200, Note_on_c, 9, 76, 120
7, 19200, Note_on_c, 9, 75, 120
7, 19200, Note_on_c, 9, 62, 120
7, 19200, Note_on_c, 9, 37, 120
7, 19200, Note_on_c, 9, 28, 120
7, 19200, Note_on_c, 9, 36, 120
7, 19200, Note_on_c, 9, 35, 120
7, 19200, Note_on_c, 9, 51, 30
7, 19200, Note_on_c, 9, 49, 30
7, 19257, Note_off_c, 9, 49, 0
7, 19257, Note_off_c, 9, 51, 0
7, 19257, Note_off_c, 9, 35, 0
7, 19257, Note_off_c, 9, 36, 0
7, 19257, Note_off_c, 9, 28, 0
7, 19257, Note_off_c, 9, 37, 0
7, 19257, Note_off_c, 9, 62, 0
7, 19257, Note_off_c, 9, 76, 0
7, 19440, Note_on_c, 9, 62, 120
7, 19440, Note_on_c, 9, 49, 30
7, 19440, Note_on_c, 9, 51, 30
7, 19497, Note_off_c, 9, 51, 0
7, 19497, Note_off_c, 9, 49, 0
7, 19497, Note_off_c, 9, 62, 0
7, 19656, Note_off_c, 9, 74, 0
7, 19656, Note_off_c, 9, 75, 0
7, 19680, Note_on_c, 9, 63, 120
7, 19680, Note_on_c, 9, 28, 120
7, 19680, Note_on_c, 9, 37, 120
7, 19680, Note_on_c, 9, 49, 30
7, 19680, Note_on_c, 9, 51, 30
7, 19680, Note_on_c, 9, 42, 120
7, 19737, Note_off_c, 9, 42, 0
7, 19737, Note_off_c, 9, 51, 0
7, 19737, Note_off_c, 9, 49, 0
7, 19737, Note_off_c, 9, 37, 0
7, 19737, Note_off_c, 9, 28, 0
7, 19737, Note_off_c, 9, 63, 0
7, 19920, Note_on_c, 9, 74, 120
7, 19920, Note_on_c, 9, 76, 120
7, 19920, Note_on_c, 9, 62, 120
7, 19920, Note_on_c, 9, 36, 120
7, 19920, Note_on_c, 9, 35, 120
7, 19920, Note_on_c, 9, 49, 30
7, 19920, Note_on_c, 9, 51, 30
7, 19977, Note_off_c, 9, 51, 0
7, 19977, Note_off_c, 9, 49, 0
7, 19977, Note_off_c, 9, 35, 0
7, 19977, Note_off_c, 9, 36, 0
7, 19977, Note_off_c, 9, 62, 0
7, 19977, Note_off_c, 9, 76, 0
7, 20148, Note_off_c, 9, 74, 0
7, 20160, Note_on_c, 9, 74, 120
7, 20160, Note_on_c, 9, 75, 120
7, 20160, Note_on_c, 9, 62, 120
7, 20160, Note_on_c, 9, 63, 120
7, 20160, Note_on_c, 9, 36, 120
7, 20160, Note_on_c, 9, 35, 120
7, 20160, Note_on_c, 9, 28, 120
7, 20160, Note_on_c, 9, 37, 120
7, 20160, Note_on_c, 9, 49, 30
7, 20160, Note_on_c, 9, 51, 30
7, 20217, Note_off_c, 9, 51, 0
7, 20217, Note_off_c, 9, 49, 0
7, 20217, Note_off_c, 9, 37, 0
7, 20217, Note_off_c, 9, 28, 0
7, 20217, Note_off_c, 9, 35, 0
7, 20217, Note_off_c, 9, 36, 0
7, 20217, Note_off_c, 9, 63, 0
7, 20217, Note_off_c, 9, 62, 0
7, 20400, Note_on_c, 9, 62, 120
7, 20400, Note_on_c, 9, 49, 30
7, 20400, Note_on_c, 9, 51, 30
7, 20457, Note_off_c, 9, 51, 0
7, 20457, Note_off_c, 9, 49, 0
7, 20457, Note_off_c, 9, 62, 0
7, 20616, Note_off_c, 9, 75, 0
7, 20616, Note_off_c, 9, 74, 0
7, 20640, Note_on_c, 9, 76, 120
7, 20640, Note_on_c, 9, 62, 120
7, 20640, Note_on_c, 9, 63, 120
7, 20640, Note_on_c, 9, 28, 120
7, 20640, Note_on_c, 9, 37, 120
7, 20640, Note_on_c, 9, 49, 30
7, 20640, Note_on_c, 9, 51, 30
7, 20640, Note_on_c, 9, 42, 120
7, 20697, Note_off_c, 9, 42, 0
7, 20697, Note_off_c, 9, 51, 0
7, 20697, Note_off_c, 9, 49, 0
7, 20697, Note_off_c, 9, 37, 0
7, 20697, Note_off_c, 9, 28, 0
7, 20697, Note_off_c, 9, 63, 0
7, 20697, Note_off_c, 9, 62, 0
7, 20697, Note_off_c, 9, 76, 0
7, 20880, Note_on_c, 9, 74, 120
7, 20880, Note_on_c, 9, 62, 120
7, 20880, Note_on_c, 9, 36, 120
7, 20880, Note_on_c, 9, 35, 120
7, 20880, Note_on_c, 9, 49, 30
7, 20880, Note_on_c, 9, 51, 30
7, 20937, Note_off_c, 9, 51, 0
7, 20937, Note_off_c, 9, 49, 0
7, 20937, Note_off_c, 9, 35, 0
7, 20937, Note_off_c, 9, 36, 0
7, 20937, Note_off_c, 9, 62, 0
7, 21108, Note_off_c, 9, 74, 0
7, 21120, Note_on_c, 9, 74, 120
7, 21120, Note_on_c, 9, 75, 120
7, 21120, Note_on_c, 9, 62, 120
7, 21120, Note_on_c, 9, 36, 120
7, 21120, Note_on_c, 9, 35, 120
7, 21120, Note_on_c, 9, 28, 120
7, 21120, Note_on_c, 9, 37, 120
7, 21120, Note_on_c, 9, 51, 30
7, 21120, Note_on_c, 9, 49, 30
7, 21177, Note_off_c, 9, 49, 0
7, 21177, Note_off_c, 9, 51, 0
7, 21177, Note_off_c, 9, 37, 0
7, 21177, Note_off_c, 9, 28, 0
7, 21177, Note_off_c, 9, 35, 0
7, 21177, Note_off_c, 9, 36, 0
7, 21177, Note_off_c, 9, 62, 0
7, 21360, Note_on_c, 9, 62, 120
7, 21360, Note_on_c, 9, 49, 30
7, 21360, Note_on_c, 9, 51, 30
7, 21417, Note_off_c, 9, 51, 0
7, 21417, Note_off_c, 9, 49, 0
7, 21417, Note_off_c, 9, 62, 0
7, 21576, Note_off_c, 9, 75, 0
7, 21576, Note_off_c, 9, 74, 0
7, 21600, Note_on_c, 9, 76, 120
7, 21600, Note_on_c, 9, 62, 120
7, 21600, Note_on_c, 9, 63, 120
7, 21600, Note_on_c, 9, 28, 120
7, 21600, Note_on_c, 9, 37, 120
7, 21600, Note_on_c, 9, 49, 30
7, 21600, Note_on_c, 9, 51, 30
7, 21600, Note_on_c, 9, 42, 120
7, 21657, Note_off_c, 9, 42, 0
7, 21657, Note_off_c, 9, 51, 0
7, 21657, Note_off_c, 9, 49, 0
7, 21657, Note_off_c, 9, 37, 0
7, 21657, Note_off_c, 9, 28, 0
7, 21657, Note_off_c, 9, 63, 0
7, 21657, Note_off_c, 9, 62, 0
7, 21657, Note_off_c, 9, 76, 0
7, 21840, Note_on_c, 9, 74, 120
7, 21840, Note_on_c, 9, 62, 120
7, 21840, Note_on_c, 9, 36, 120
7, 21840, Note_on_c, 9, 35, 120
7, 21840, Note_on_c, 9, 49, 30
7, 21840, Note_on_c, 9, 51, 30
7, 21897, Note_off_c, 9, 51, 0
7, 21897, Note_off_c, 9, 49, 0
7, 21897, Note_off_c, 9, 35, 0
7, 21897, Note_off_c, 9, 36, 0
7, 21897, Note_off_c, 9, 62, 0
7, 22068, Note_off_c, 9, 74, 0
7, 22080, Note_on_c, 9, 74, 120
7, 22080, Note_on_c, 9, 75, 120
7, 22080, Note_on_c, 9, 62, 120
7, 22080, Note_on_c, 9, 63, 120
7, 22080, Note_on_c, 9, 35, 120
7, 22080, Note_on_c, 9, 36, 120
7, 22080, Note_on_c, 9, 28, 120
7, 22080, Note_on_c, 9, 37, 120
7, 22080, Note_on_c, 9, 49, 30
7, 22080, Note_on_c, 9, 51, 30
7, 22137, Note_off_c, 9, 51, 0
7, 22137, Note_off_c, 9, 49, 0
7, 22137, Note_off_c, 9, 37, 0
7, 22137, Note_off_c, 9, 28, 0
7, 22137, Note_off_c, 9, 36, 0
7, 22137, Note_off_c, 9, 35, 0
7, 22137, Note_off_c, 9, 63, 0
7, 22137, Note_off_c, 9, 62, 0
7, 22320, Note_on_c, 9, 76, 120
7, 22320, Note_on_c, 9, 62, 120
7, 22320, Note_on_c, 9, 49, 30
7, 22320, Note_on_c, 9, 51, 30
7, 22377, Note_off_c, 9, 51, 0
7, 22377, Note_off_c, 9, 49, 0
7, 22377, Note_off_c, 9, 62, 0
7, 22377, Note_off_c, 9, 76, 0
7, 22536, Note_off_c, 9, 75, 0
7, 22536, Note_off_c, 9, 74, 0
7, 22560, Note_on_c, 9, 62, 120
7, 22560, Note_on_c, 9, 63, 120
7, 22560, Note_on_c, 9, 28, 120
7, 22560, Note_on_c, 9, 37, 120
7, 22560, Note_on_c, 9, 49, 30
7, 22560, Note_on_c, 9, 51, 30
7, 22560, Note_on_c, 9, 42, 120
7, 22617, Note_off_c, 9, 42, 0
7, 22617, Note_off_c, 9, 51, 0
7, 22617, Note_off_c, 9, 49, 0
7, 22617, Note_off_c, 9, 37, 0
7, 22617, Note_off_c, 9, 28, 0
7, 22617, Note_off_c, 9, 63, 0
7, 22617, Note_off_c, 9, 62, 0
7, 22676, Note_on_c, 9, 62, 120
7, 22733, Note_off_c, 9, 62, 0
7, 22800, Note_on_c, 9, 74, 120
7, 22800, Note_on_c, 9, 61, 120
7, 22800, Note_on_c, 9, 62, 120
7, 22800, Note_on_c, 9, 36, 120
7, 22800, Note_on_c, 9, 35, 120
7, 22800, Note_on_c, 9, 49, 30
7, 22800, Note_on_c, 9, 51, 30
7, 22857, Note_off_c, 9, 51, 0
7, 22857, Note_off_c, 9, 49, 0
7, 22857, Note_off_c, 9, 35, 0
7, 22857, Note_off_c, 9, 36, 0
7, 22857, Note_off_c, 9, 62, 0
7, 22857, Note_off_c, 9, 61, 0
7, 22923, Note_on_c, 9, 60, 120
7, 22923, Note_on_c, 9, 61, 120
7, 22980, Note_off_c, 9, 61, 0
7, 22980, Note_off_c, 9, 60, 0
7, 23028, Note_off_c, 9, 74, 0
7, 23040, Note_on_c, 9, 51, 30
7, 23040, Note_on_c, 9, 49, 30
7, 23040, Note_on_c, 9, 37, 120
7, 23040, Note_on_c, 9, 62, 120
7, 23040, Note_on_c, 9, 28, 120
7, 23040, Note_on_c, 9, 75, 120
7, 23040, Note_on_c, 9, 76, 120
7, 23040, Note_on_c, 9, 74, 120
7, 23040, Note_on_c, 9, 36, 120
7, 23040, Note_on_c, 9, 35, 120
7, 23097, Note_off_c, 9, 35, 0
7, 23097, Note_off_c, 9, 36, 0
7, 23097, Note_off_c, 9, 76, 0
7, 23097, Note_off_c, 9, 28, 0
7, 23097, Note_off_c, 9, 62, 0
7, 23097, Note_off_c, 9, 37, 0
7, 23097, Note_off_c, 9, 49, 0
7, 23097, Note_off_c, 9, 51, 0
7, 23280, Note_on_c, 9, 62, 120
7, 23280, Note_on_c, 9, 49, 30
7, 23280, Note_on_c, 9, 51, 30
7, 23337, Note_off_c, 9, 51, 0
7, 23337, Note_off_c, 9, 49, 0
7, 23337, Note_off_c, 9, 62, 0
7, 23496, Note_off_c, 9, 75, 0
7, 23496, Note_off_c, 9, 74, 0
7, 23520, Note_on_c, 9, 28, 120
7, 23520, Note_on_c, 9, 63, 120
7, 23520, Note_on_c, 9, 37, 120
7, 23520, Note_on_c, 9, 49, 30
7, 23520, Note_on_c, 9, 51, 30
7, 23520, Note_on_c, 9, 42, 120
7, 23577, Note_off_c, 9, 42, 0
7, 23577, Note_off_c, 9, 51, 0
7, 23577, Note_off_c, 9, 49, 0
7, 23577, Note_off_c, 9, 37, 0
7, 23577, Note_off_c, 9, 63, 0
7, 23577, Note_off_c, 9, 28, 0
7, 23760, Note_on_c, 9, 36, 120
7, 23760, Note_on_c, 9, 35, 120
7, 23760, Note_on_c, 9, 74, 120
7, 23760, Note_on_c, 9, 76, 120
7, 23760, Note_on_c, 9, 62, 120
7, 23760, Note_on_c, 9, 49, 30
7, 23760, Note_on_c, 9, 51, 30
7, 23817, Note_off_c, 9, 51, 0
7, 23817, Note_off_c, 9, 49, 0
7, 23817, Note_off_c, 9, 62, 0
7, 23817, Note_off_c, 9, 76, 0
7, 23817, Note_off_c, 9, 35, 0
7, 23817, Note_off_c, 9, 36, 0
7, 23988, Note_off_c, 9, 74, 0
7, 24000, Note_on_c, 9, 36, 120
7, 24000, Note_on_c, 9, 35, 120
7, 24000, Note_on_c, 9, 74, 120
7, 24000, Note_on_c, 9, 75, 120
7, 24000, Note_on_c, 9, 28, 120
7, 24000, Note_on_c, 9, 62, 120
7, 24000, Note_on_c, 9, 63, 120
7, 24000, Note_on_c, 9, 37, 120
7, 24000, Note_on_c, 9, 49, 30
7, 24000, Note_on_c, 9, 51, 30
7, 24057, Note_off_c, 9, 51, 0
7, 24057, Note_off_c, 9, 49, 0
7, 24057, Note_off_c, 9, 37, 0
7, 24057, Note_off_c, 9, 63, 0
7, 24057, Note_off_c, 9, 62, 0
7, 24057, Note_off_c, 9, 28, 0
7, 24057, Note_off_c, 9, 35, 0
7, 24057, Note_off_c, 9, 36, 0
7, 24240, Note_on_c, 9, 62, 120
7, 24240, Note_on_c, 9, 49, 30
7, 24240, Note_on_c, 9, 51, 30
7, 24297, Note_off_c, 9, 51, 0
7, 24297, Note_off_c, 9, 49, 0
7, 24297, Note_off_c, 9, 62, 0
7, 24456, Note_off_c, 9, 74, 0
7, 24456, Note_off_c, 9, 75, 0
7, 24480, Note_on_c, 9, 76, 120
7, 24480, Note_on_c, 9, 28, 120
7, 24480, Note_on_c, 9, 62, 120
7, 24480, Note_on_c, 9, 63, 120
7, 24480, Note_on_c, 9, 37, 120
7, 24480, Note_on_c, 9, 49, 30
7, 24480, Note_on_c, 9, 51, 30
7, 24480, Note_on_c, 9, 42, 120
7, 24537, Note_off_c, 9, 42, 0
7, 24537, Note_off_c, 9, 51, 0
7, 24537, Note_off_c, 9, 49, 0
7, 24537, Note_off_c, 9, 37, 0
7, 24537, Note_off_c, 9, 63, 0
7, 24537, Note_off_c, 9, 62, 0
7, 24537, Note_off_c, 9, 28, 0
7, 24537, Note_off_c, 9, 76, 0
7, 24720, Note_on_c, 9, 36, 120
7, 24720, Note_on_c, 9, 35, 120
7, 24720, Note_on_c, 9, 74, 120
7, 24720, Note_on_c, 9, 62, 120
7, 24720, Note_on_c, 9, 49, 30
7, 24720, Note_on_c, 9, 51, 30
7, 24777, Note_off_c, 9, 51, 0
7, 24777, Note_off_c, 9, 49, 0
7, 24777, Note_off_c, 9, 62, 0
7, 24777, Note_off_c, 9, 35, 0
7, 24777, Note_off_c, 9, 36, 0
7, 24948, Note_off_c, 9, 74, 0
7, 24960, Note_on_c, 9, 36, 120
7, 24960, Note_on_c, 9, 35, 120
7, 24960, Note_on_c, 9, 74, 120
7, 24960, Note_on_c, 9, 75, 120
7, 24960, Note_on_c, 9, 62, 120
7, 24960, Note_on_c, 9, 28, 120
7, 24960, Note_on_c, 9, 37, 120
7, 24960, Note_on_c, 9, 51, 30
7, 24960, Note_on_c, 9, 49, 30
7, 25017, Note_off_c, 9, 49, 0
7, 25017, Note_off_c, 9, 51, 0
7, 25017, Note_off_c, 9, 37, 0
7, 25017, Note_off_c, 9, 28, 0
7, 25017, Note_off_c, 9, 62, 0
7, 25017, Note_off_c, 9, 35, 0
7, 25017, Note_off_c, 9, 36, 0
7, 25200, Note_on_c, 9, 62, 120
7, 25200, Note_on_c, 9, 49, 30
7, 25200, Note_on_c, 9, 51, 30
7, 25257, Note_off_c, 9, 51, 0
7, 25257, Note_off_c, 9, 49, 0
7, 25257, Note_off_c, 9, 62, 0
7, 25416, Note_off_c, 9, 74, 0
7, 25416, Note_off_c, 9, 75, 0
7, 25440, Note_on_c, 9, 76, 120
7, 25440, Note_on_c, 9, 62, 120
7, 25440, Note_on_c, 9, 63, 120
7, 25440, Note_on_c, 9, 28, 120
7, 25440, Note_on_c, 9, 37, 120
7, 25440, Note_on_c, 9, 49, 30
7, 25440, Note_on_c, 9, 51, 30
7, 25440, Note_on_c, 9, 42, 120
7, 25497, Note_off_c, 9, 42, 0
7, 25497, Note_off_c, 9, 51, 0
7, 25497, Note_off_c, 9, 49, 0
7, 25497, Note_off_c, 9, 37, 0
7, 25497, Note_off_c, 9, 28, 0
7, 25497, Note_off_c, 9, 63, 0
7, 25497, Note_off_c, 9, 62, 0
7, 25497, Note_off_c, 9, 76, 0
7, 25680, Note_on_c, 9, 36, 120
7, 25680, Note_on_c, 9, 35, 120
7, 25680, Note_on_c, 9, 74, 120
7, 25680, Note_on_c, 9, 62, 120
7, 25680, Note_on_c, 9, 49, 30
7, 25680, Note_on_c, 9, 51, 30
7, 25737, Note_off_c, 9, 51, 0
7, 25737, Note_off_c, 9, 49, 0
7, 25737, Note_off_c, 9, 62, 0
7, 25737, Note_off_c, 9, 35, 0
7, 25737, Note_off_c, 9, 36, 0
7, 25908, Note_off_c, 9, 74, 0
7, 25920, Note_on_c, 9, 35, 120
7, 25920, Note_on_c, 9, 36, 120
7, 25920, Note_on_c, 9, 74, 120
7, 25920, Note_on_c, 9, 75, 120
7, 25920, Note_on_c, 9, 62, 120
7, 25920, Note_on_c, 9, 63, 120
7, 25920, Note_on_c, 9, 28, 120
7, 25920, Note_on_c, 9, 37, 120
7, 25920, Note_on_c, 9, 49, 30
7, 25920, Note_on_c, 9, 51, 30
7, 25977, Note_off_c, 9, 51, 0
7, 25977, Note_off_c, 9, 49, 0
7, 25977, Note_off_c, 9, 37, 0
7, 25977, Note_off_c, 9, 28, 0
7, 25977, Note_off_c, 9, 63, 0
7, 25977, Note_off_c, 9, 62, 0
7, 25977, Note_off_c, 9, 36, 0
7, 25977, Note_off_c, 9, 35, 0
7, 26160, Note_on_c, 9, 76, 120
7, 26160, Note_on_c, 9, 62, 120
7, 26160, Note_on_c, 9, 49, 30
7, 26160, Note_on_c, 9, 51, 30
7, 26217, Note_off_c, 9, 51, 0
7, 26217, Note_off_c, 9, 49, 0
7, 26217, Note_off_c, 9, 62, 0
7, 26217, Note_off_c, 9, 76, 0
7, 26376, Note_off_c, 9, 74, 0
7, 26376, Note_off_c, 9, 75, 0
7, 26400, Note_on_c, 9, 62, 120
7, 26400, Note_on_c, 9, 63, 120
7, 26400, Note_on_c, 9, 28, 120
7, 26400, Note_on_c, 9, 37, 120
7, 26400, Note_on_c, 9, 49, 30
7, 26400, Note_on_c, 9, 51, 30
7, 26400, Note_on_c, 9, 42, 120
7, 26457, Note_off_c, 9, 42, 0
7, 26457, Note_off_c, 9, 51, 0
7, 26457, Note_off_c, 9, 49, 0
7, 26457, Note_off_c, 9, 37, 0
7, 26457, Note_off_c, 9, 28, 0
7, 26457, Note_off_c, 9, 63, 0
7, 26457, Note_off_c, 9, 62, 0
7, 26516, Note_on_c, 9, 62, 120
7, 26573, Note_off_c, 9, 62, 0
7, 26640, Note_on_c, 9, 36, 120
7, 26640, Note_on_c, 9, 35, 120
7, 26640, Note_on_c, 9, 74, 120
7, 26640, Note_on_c, 9, 61, 120
7, 26640, Note_on_c, 9, 62, 120
7, 26640, Note_on_c, 9, 49, 30
7, 26640, Note_on_c, 9, 51, 30
7, 26697, Note_off_c, 9, 51, 0
7, 26697, Note_off_c, 9, 49, 0
7, 26697, Note_off_c, 9, 62, 0
7, 26697, Note_off_c, 9, 61, 0
7, 26697, Note_off_c, 9, 35, 0
7, 26697, Note_off_c, 9, 36, 0
7, 26763, Note_on_c, 9, 60, 120
7, 26763, Note_on_c, 9, 61, 120
7, 26820, Note_off_c, 9, 61, 0
7, 26820, Note_off_c, 9, 60, 0
7, 26868, Note_off_c, 9, 74, 0
7, 26880, Note_on_c, 9, 74, 120
7, 26880, Note_on_c, 9, 76, 120
7, 26880, Note_on_c, 9, 75, 120
7, 26880, Note_on_c, 9, 62, 120
7, 26880, Note_on_c, 9, 37, 120
7, 26880, Note_on_c, 9, 28, 120
7, 26880, Note_on_c, 9, 36, 120
7, 26880, Note_on_c, 9, 35, 120
7, 26880, Note_on_c, 9, 51, 30
7, 26880, Note_on_c, 9, 49, 30
7, 26937, Note_off_c, 9, 49, 0
7, 26937, Note_off_c, 9, 51, 0
7, 26937, Note_off_c, 9, 35, 0
7, 26937, Note_off_c, 9, 36, 0
7, 26937, Note_off_c, 9, 28, 0
7, 26937, Note_off_c, 9, 37, 0
7, 26937, Note_off_c, 9, 62, 0
7, 26937, Note_off_c, 9, 76, 0
7, 27120, Note_on_c, 9, 62, 120
7, 27120, Note_on_c, 9, 49, 30
7, 27120, Note_on_c, 9, 51, 30
7, 27177, Note_off_c, 9, 51, 0
7, 27177, Note_off_c, 9, 49, 0
7, 27177, Note_off_c, 9, 62, 0
7, 27336, Note_off_c, 9, 74, 0
7, 27336, Note_off_c, 9, 75, 0
7, 27360, Note_on_c, 9, 63, 120
7, 27360, Note_on_c, 9, 28, 120
7, 27360, Note_on_c, 9, 37, 120
7, 27360, Note_on_c, 9, 49, 30
7, 27360, Note_on_c, 9, 51, 30
7, 27360, Note_on_c, 9, 42, 120
7, 27417, Note_off_c, 9, 42, 0
7, 27417, Note_off_c, 9, 51, 0
7, 27417, Note_off_c, 9, 49, 0
7, 27417, Note_off_c, 9, 37, 0
7, 27417, Note_off_c, 9, 28, 0
7, 27417, Note_off_c, 9, 63, 0
7, 27600, Note_on_c, 9, 74, 120
7, 27600, Note_on_c, 9, 76, 120
7, 27600, Note_on_c, 9, 62, 120
7, 27600, Note_on_c, 9, 36, 120
7, 27600, Note_on_c, 9, 35, 120
7, 27600, Note_on_c, 9, 49, 30
7, 27600, Note_on_c, 9, 51, 30
7, 27657, Note_off_c, 9, 51, 0
7, 27657, Note_off_c, 9, 49, 0
7, 27657, Note_off_c, 9, 35, 0
7, 27657, Note_off_c, 9, 36, 0
7, 27657, Note_off_c, 9, 62, 0
7, 27657, Note_off_c, 9, 76, 0
7, 27828, Note_off_c, 9, 74, 0
7, 27840, Note_on_c, 9, 74, 120
7, 27840, Note_on_c, 9, 75, 120
7, 27840, Note_on_c, 9, 62, 120
7, 27840, Note_on_c, 9, 63, 120
7, 27840, Note_on_c, 9, 36, 120
7, 27840, Note_on_c, 9, 35, 120
7, 27840, Note_on_c, 9, 28, 120
7, 27840, Note_on_c, 9, 37, 120
7, 27840, Note_on_c, 9, 49, 30
7, 27840, Note_on_c, 9, 51, 30
7, 27897, Note_off_c, 9, 51, 0
7, 27897, Note_off_c, 9, 49, 0
7, 27897, Note_off_c, 9, 37, 0
7, 27897, Note_off_c, 9, 28, 0
7, 27897, Note_off_c, 9, 35, 0
7, 27897, Note_off_c, 9, 36, 0
7, 27897, Note_off_c, 9, 63, 0
7, 27897, Note_off_c, 9, 62, 0
7, 28080, Note_on_c, 9, 62, 120
7, 28080, Note_on_c, 9, 49, 30
7, 28080, Note_on_c, 9, 51, 30
7, 28137, Note_off_c, 9, 51, 0
7, 28137, Note_off_c, 9, 49, 0
7, 28137, Note_off_c, 9, 62, 0
7, 28296, Note_off_c, 9, 75, 0
7, 28296, Note_off_c, 9, 74, 0
7, 28320, Note_on_c, 9, 76, 120
7, 28320, Note_on_c, 9, 62, 120
7, 28320, Note_on_c, 9, 63, 120
7, 28320, Note_on_c, 9, 28, 120
7, 28320, Note_on_c, 9, 37, 120
7, 28320, Note_on_c, 9, 49, 30
7, 28320, Note_on_c, 9, 51, 30
7, 28320, Note_on_c, 9, 42, 120
7, 28377, Note_off_c, 9, 42, 0
7, 28377, Note_off_c, 9, 51, 0
7, 28377, Note_off_c, 9, 49, 0
7, 28377, Note_off_c, 9, 37, 0
7, 28377, Note_off_c, 9, 28, 0
7, 28377, Note_off_c, 9, 63, 0
7, 28377, Note_off_c, 9, 62, 0
7, 28377, Note_off_c, 9, 76, 0
7, 28560, Note_on_c, 9, 74, 120
7, 28560, Note_on_c, 9, 62, 120
7, 28560, Note_on_c, 9, 36, 120
7, 28560, Note_on_c, 9, 35, 120
7, 28560, Note_on_c, 9, 49, 30
7, 28560, Note_on_c, 9, 51, 30
7, 28617, Note_off_c, 9, 51, 0
7, 28617, Note_off_c, 9, 49, 0
7, 28617, Note_off_c, 9, 35, 0
7, 28617, Note_off_c, 9, 36, 0
7, 28617, Note_off_c, 9, 62, 0
7, 28788, Note_off_c, 9, 74, 0
7, 28800, Note_on_c, 9, 74, 120
7, 28800, Note_on_c, 9, 75, 120
7, 28800, Note_on_c, 9, 62, 120
7, 28800, Note_on_c, 9, 36, 120
7, 28800, Note_on_c, 9, 35, 120
7, 28800, Note_on_c, 9, 28, 120
7, 28800, Note_on_c, 9, 37, 120
7, 28800, Note_on_c, 9, 51, 30
7, 28800, Note_on_c, 9, 49, 30
7, 28857, Note_off_c, 9, 49, 0
7, 28857, Note_off_c, 9, 51, 0
7, 28857, Note_off_c, 9, 37, 0
7, 28857, Note_off_c, 9, 28, 0
7, 28857, Note_off_c, 9, 35, 0
7, 28857, Note_off_c, 9, 36, 0
7, 28857, Note_off_c, 9, 62, 0
7, 29040, Note_on_c, 9, 62, 120
7, 29040, Note_on_c, 9, 49, 30
7, 29040, Note_on_c, 9, 51, 30
7, 29097, Note_off_c, 9, 51, 0
7, 29097, Note_off_c, 9, 49, 0
7, 29097, Note_off_c, 9, 62, 0
7, 29256, Note_off_c, 9, 75, 0
7, 29256, Note_off_c, 9, 74, 0
7, 29280, Note_on_c, 9, 76, 120
7, 29280, Note_on_c, 9, 62, 120
7, 29280, Note_on_c, 9, 63, 120
7, 29280, Note_on_c, 9, 28, 120
7, 29280, Note_on_c, 9, 37, 120
7, 29280, Note_on_c, 9, 49, 30
7, 29280, Note_on_c, 9, 51, 30
7, 29280, Note_on_c, 9, 42, 120
7, 29337, Note_off_c, 9, 42, 0
7, 29337, Note_off_c, 9, 51, 0
7, 29337, Note_off_c, 9, 49, 0
7, 29337, Note_off_c, 9, 37, 0
7, 29337, Note_off_c, 9, 28, 0
7, 29337, Note_off_c, 9, 63, 0
7, 29337, Note_off_c, 9, 62, 0
7, 29337, Note_off_c, 9, 76, 0
7, 29520, Note_on_c, 9, 74, 120
7, 29520, Note_on_c, 9, 62, 120
7, 29520, Note_on_c, 9, 36, 120
7, 29520, Note_on_c, 9, 35, 120
7, 29520, Note_on_c, 9, 49, 30
7, 29520, Note_on_c, 9, 51, 30
7, 29577, Note_off_c, 9, 51, 0
7, 29577, Note_off_c, 9, 49, 0
7, 29577, Note_off_c, 9, 35, 0
7, 29577, Note_off_c, 9, 36, 0
7, 29577, Note_off_c, 9, 62, 0
7, 29748, Note_off_c, 9, 74, 0
7, 29760, Note_on_c, 9, 74, 120
7, 29760, Note_on_c, 9, 75, 120
7, 29760, Note_on_c, 9, 62, 120
7, 29760, Note_on_c, 9, 63, 120
7, 29760, Note_on_c, 9, 35, 120
7, 29760, Note_on_c, 9, 36, 120
7, 29760, Note_on_c, 9, 28, 120
7, 29760, Note_on_c, 9, 37, 120
7, 29760, Note_on_c, 9, 49, 30
7, 29760, Note_on_c, 9, 51, 30
7, 29817, Note_off_c, 9, 51, 0
7, 29817, Note_off_c, 9, 49, 0
7, 29817, Note_off_c, 9, 37, 0
7, 29817, Note_off_c, 9, 28, 0
7, 29817, Note_off_c, 9, 36, 0
7, 29817, Note_off_c, 9, 35, 0
7, 29817, Note_off_c, 9, 63, 0
7, 29817, Note_off_c, 9, 62, 0
7, 30000, Note_on_c, 9, 76, 120
7, 30000, Note_on_c, 9, 62, 120
7, 30000, Note_on_c, 9, 49, 30
7, 30000, Note_on_c, 9, 51, 30
7, 30057, Note_off_c, 9, 51, 0
7, 30057, Note_off_c, 9, 49, 0
7, 30057, Note_off_c, 9, 62, 0
7, 30057, Note_off_c, 9, 76, 0
7, 30216, Note_off_c, 9, 75, 0
7, 30216, Note_off_c, 9, 74, 0
7, 30240, Note_on_c, 9, 62, 120
7, 30240, Note_on_c, 9, 63, 120
7, 30240, Note_on_c, 9, 28, 120
7, 30240, Note_on_c, 9, 37, 120
7, 30240, Note_on_c, 9, 49, 30
7, 30240, Note_on_c, 9, 51, 30
7, 30240, Note_on_c, 9, 42, 120
7, 30297, Note_off_c, 9, 42, 0
7, 30297, Note_off_c, 9, 51, 0
7, 30297, Note_off_c, 9, 49, 0
7, 30297, Note_off_c, 9, 37, 0
7, 30297, Note_off_c, 9, 28, 0
7, 30297, Note_off_c, 9, 63, 0
7, 30297, Note_off_c, 9, 62, 0
7, 30356, Note_on_c, 9, 62, 120
7, 30413, Note_off_c, 9, 62, 0
7, 30480, Note_on_c, 9, 74, 120
7, 30480, Note_on_c, 9, 61, 120
7, 30480, Note_on_c, 9, 62, 120
7, 30480, Note_on_c, 9, 36, 120
7, 30480, Note_on_c, 9, 35, 120
7, 30480, Note_on_c, 9, 49, 30
7, 30480, Note_on_c, 9, 51, 30
7, 30537, Note_off_c, 9, 51, 0
7, 30537, Note_off_c, 9, 49, 0
7, 30537, Note_off_c, 9, 35, 0
7, 30537, Note_off_c, 9, 36, 0
7, 30537, Note_off_c, 9, 62, 0
7, 30537, Note_off_c, 9, 61, 0
7, 30603, Note_on_c, 9, 60, 120
7, 30603, Note_on_c, 9, 61, 120
7, 30660, Note_off_c, 9, 61, 0
7, 30660, Note_off_c, 9, 60, 0
7, 30708, Note_off_c, 9, 74, 0
7, 30720, Note_on_c, 9, 51, 30
7, 30720, Note_on_c, 9, 49, 30
7, 30720, Note_on_c, 9, 37, 120
7, 30720, Note_on_c, 9, 62, 120
7, 30720, Note_on_c, 9, 28, 120
7, 30720, Note_on_c, 9, 75, 120
7, 30720, Note_on_c, 9, 76, 120
7, 30720, Note_on_c, 9, 74, 120
7, 30720, Note_on_c, 9, 36, 120
7, 30720, Note_on_c, 9, 35, 120
7, 30777, Note_off_c, 9, 35, 0
7, 30777, Note_off_c, 9, 36, 0
7, 30777, Note_off_c, 9, 76, 0
7, 30777, Note_off_c, 9, 28, 0
7, 30777, Note_off_c, 9, 62, 0
7, 30777, Note_off_c, 9, 37, 0
7, 30777, Note_off_c, 9, 49, 0
7, 30777, Note_off_c, 9, 51, 0
7, 30960, Note_on_c, 9, 62, 120
7, 30960, Note_on_c, 9, 49, 30
7, 30960, Note_on_c, 9, 51, 30
7, 31017, Note_off_c, 9, 51, 0
7, 31017, Note_off_c, 9, 49, 0
7, 31017, Note_off_c, 9, 62, 0
7, 31176, Note_off_c, 9, 75, 0
7, 31176, Note_off_c, 9, 74, 0
7, 31200, Note_on_c, 9, 28, 120
7, 31200, Note_on_c, 9, 63, 120
7, 31200, Note_on_c, 9, 37, 120
7, 31200, Note_on_c, 9, 49, 30
7, 31200, Note_on_c, 9, 51, 30
7, 31200, Note_on_c, 9, 42, 120
7, 31257, Note_off_c, 9, 42, 0
7, 31257, Note_off_c, 9, 51, 0
7, 31257, Note_off_c, 9, 49, 0
7, 31257, Note_off_c, 9, 37, 0
7, 31257, Note_off_c, 9, 63, 0
7, 31257, Note_off_c, 9, 28, 0
7, 31440, Note_on_c, 9, 36, 120
7, 31440, Note_on_c, 9, 35, 120
7, 31440, Note_on_c, 9, 74, 120
7, 31440, Note_on_c, 9, 76, 120
7, 31440, Note_on_c, 9, 62, 120
7, 31440, Note_on_c, 9, 49, 30
7, 31440, Note_on_c, 9, 51, 30
7, 31497, Note_off_c, 9, 51, 0
7, 31497, Note_off_c, 9, 49, 0
7, 31497, Note_off_c, 9, 62, 0
7, 31497, Note_off_c, 9, 76, 0
7, 31497, Note_off_c, 9, 35, 0
7, 31497, Note_off_c, 9, 36, 0
7, 31668, Note_off_c, 9, 74, 0
7, 31680, Note_on_c, 9, 36, 120
7, 31680, Note_on_c, 9, 35, 120
7, 31680, Note_on_c, 9, 74, 120
7, 31680, Note_on_c, 9, 75, 120
7, 31680, Note_on_c, 9, 28, 120
7, 31680, Note_on_c, 9, 62, 120
7, 31680, Note_on_c, 9, 63, 120
7, 31680, Note_on_c, 9, 37, 120
7, 31680, Note_on_c, 9, 49, 30
7, 31680, Note_on_c, 9, 51, 30
7, 31737, Note_off_c, 9, 51, 0
7, 31737, Note_off_c, 9, 49, 0
7, 31737, Note_off_c, 9, 37, 0
7, 31737, Note_off_c, 9, 63, 0
7, 31737, Note_off_c, 9, 62, 0
7, 31737, Note_off_c, 9, 28, 0
7, 31737, Note_off_c, 9, 35, 0
7, 31737, Note_off_c, 9, 36, 0
7, 31920, Note_on_c, 9, 62, 120
7, 31920, Note_on_c, 9, 49, 30
7, 31920, Note_on_c, 9, 51, 30
7, 31977, Note_off_c, 9, 51, 0
7, 31977, Note_off_c, 9, 49, 0
7, 31977, Note_off_c, 9, 62, 0
7, 32136, Note_off_c, 9, 74, 0
7, 32136, Note_off_c, 9, 75, 0
7, 32160, Note_on_c, 9, 76, 120
7, 32160, Note_on_c, 9, 28, 120
7, 32160, Note_on_c, 9, 62, 120
7, 32160, Note_on_c, 9, 63, 120
7, 32160, Note_on_c, 9, 37, 120
7, 32160, Note_on_c, 9, 49, 30
7, 32160, Note_on_c, 9, 51, 30
7, 32160, Note_on_c, 9, 42, 120
7, 32217, Note_off_c, 9, 42, 0
7, 32217, Note_off_c, 9, 51, 0
7, 32217, Note_off_c, 9, 49, 0
7, 32217, Note_off_c, 9, 37, 0
7, 32217, Note_off_c, 9, 63, 0
7, 32217, Note_off_c, 9, 62, 0
7, 32217, Note_off_c, 9, 28, 0
7, 32217, Note_off_c, 9, 76, 0
7, 32400, Note_on_c, 9, 36, 120
7, 32400, Note_on_c, 9, 35, 120
7, 32400, Note_on_c, 9, 74, 120
7, 32400, Note_on_c, 9, 62, 120
7, 32400, Note_on_c, 9, 49, 30
7, 32400, Note_on_c, 9, 51, 30
7, 32457, Note_off_c, 9, 51, 0
7, 32457, Note_off_c, 9, 49, 0
7, 32457, Note_off_c, 9, 62, 0
7, 32457, Note_off_c, 9, 35, 0
7, 32457, Note_off_c, 9, 36, 0
7, 32628, Note_off_c, 9, 74, 0
7, 32640, Note_on_c, 9, 36, 120
7, 32640, Note_on_c, 9, 35, 120
7, 32640, Note_on_c, 9, 74, 120
7, 32640, Note_on_c, 9, 75, 120
7, 32640, Note_on_c, 9, 62, 120
7, 32640, Note_on_c, 9, 28, 120
7, 32640, Note_on_c, 9, 37, 120
7, 32640, Note_on_c, 9, 51, 30
7, 32640, Note_on_c, 9, 49, 30
7, 32697, Note_off_c, 9, 49, 0
7, 32697, Note_off_c, 9, 51, 0
7, 32697, Note_off_c, 9, 37, 0
7, 32697, Note_off_c, 9, 28, 0
7, 32697, Note_off_c, 9, 62, 0
7, 32697, Note_off_c, 9, 35, 0
7, 32697, Note_off_c, 9, 36, 0
7, 32880, Note_on_c, 9, 62, 120
7, 32880, Note_on_c, 9, 49, 30
7, 32880, Note_on_c, 9, 51, 30
7, 32937, Note_off_c, 9, 51, 0
7, 32937, Note_off_c, 9, 49, 0
7, 32937, Note_off_c, 9, 62, 0
7, 33096, Note_off_c, 9, 74, 0
7, 33096, Note_off_c, 9, 75, 0
7, 33120, Note_on_c, 9, 76, 120
7, 33120, Note_on_c, 9, 62, 120
7, 33120, Note_on_c, 9, 63, 120
7, 33120, Note_on_c, 9, 28, 120
7, 33120, Note_on_c, 9, 37, 120
7, 33120, Note_on_c, 9, 49, 30
7, 33120, Note_on_c, 9, 51, 30
7, 33120, Note_on_c, 9, 42, 120
7, 33177, Note_off_c, 9, 42, 0
7, 33177, Note_off_c, 9, 51, 0
7, 33177, Note_off_c, 9, 49, 0
7, 33177, Note_off_c, 9, 37, 0
7, 33177, Note_off_c, 9, 28, 0
7, 33177, Note_off_c, 9, 63, 0
7, 33177, Note_off_c, 9, 62, 0
7, 33177, Note_off_c, 9, 76, 0
7, 33360, Note_on_c, 9, 36, 120
7, 33360, Note_on_c, 9, 35, 120
7, 33360, Note_on_c, 9, 74, 120
7, 33360, Note_on_c, 9, 62, 120
7, 33360, Note_on_c, 9, 49, 30
7, 33360, Note_on_c, 9, 51, 30
7, 33417, Note_off_c, 9, 51, 0
7, 33417, Note_off_c, 9, 49, 0
7, 33417, Note_off_c, 9, 62, 0
7, 33417, Note_off_c, 9, 35, 0
7, 33417, Note_off_c, 9, 36, 0
7, 33588, Note_off_c, 9, 74, 0
7, 33600, Note_on_c, 9, 35, 120
7, 33600, Note_on_c, 9, 36, 120
7, 33600, Note_on_c, 9, 74, 120
7, 33600, Note_on_c, 9, 75, 120
7, 33600, Note_on_c, 9, 62, 120
7, 33600, Note_on_c, 9, 63, 120
7, 33600, Note_on_c, 9, 28, 120
7, 33600, Note_on_c, 9, 37, 120
7, 33600, Note_on_c, 9, 49, 30
7, 33600, Note_on_c, 9, 51, 30
7, 33657, Note_off_c, 9, 51, 0
7, 33657, Note_off_c, 9, 49, 0
7, 33657, Note_off_c, 9, 37, 0
7, 33657, Note_off_c, 9, 28, 0
7, 33657, Note_off_c, 9, 63, 0
7, 33657, Note_off_c, 9, 62, 0
7, 33657, Note_off_c, 9, 36, 0
7, 33657, Note_off_c, 9, 35, 0
7, 33840, Note_on_c, 9, 76, 120
7, 33840, Note_on_c, 9, 62, 120
7, 33840, Note_on_c, 9, 49, 30
7, 33840, Note_on_c, 9, 51, 30
7, 33897, Note_off_c, 9, 51, 0
7, 33897, Note_off_c, 9, 49, 0
7, 33897, Note_off_c, 9, 62, 0
7, 33897, Note_off_c, 9, 76, 0
7, 34056, Note_off_c, 9, 74, 0
7, 34056, Note_off_c, 9, 75, 0
7, 34080, Note_on_c, 9, 62, 120
7, 34080, Note_on_c, 9, 63, 120
7, 34080, Note_on_c, 9, 28, 120
7, 34080, Note_on_c, 9, 37, 120
7, 34080, Note_on_c, 9, 49, 30
7, 34080, Note_on_c, 9, 51, 30
7, 34080, Note_on_c, 9, 42, 120
7, 34137, Note_off_c, 9, 42, 0
7, 34137, Note_off_c, 9, 51, 0
7, 34137, Note_off_c, 9, 49, 0
7, 34137, Note_off_c, 9, 37, 0
7, 34137, Note_off_c, 9, 28, 0
7, 34137, Note_off_c, 9, 63, 0
7, 34137, Note_off_c, 9, 62, 0
7, 34196, Note_on_c, 9, 62, 120
7, 34253, Note_off_c, 9, 62, 0
7, 34320, Note_on_c, 9, 36, 120
7, 34320, Note_on_c, 9, 35, 120
7, 34320, Note_on_c, 9, 74, 120
7, 34320, Note_on_c, 9, 61, 120
7, 34320, Note_on_c, 9, 62, 120
7, 34320, Note_on_c, 9, 49, 30
7, 34320, Note_on_c, 9, 51, 30
7, 34377, Note_off_c, 9, 51, 0
7, 34377, Note_off_c, 9, 49, 0
7, 34377, Note_off_c, 9, 62, 0
7, 34377, Note_off_c, 9, 61, 0
7, 34377, Note_off_c, 9, 35, 0
7, 34377, Note_off_c, 9, 36, 0
7, 34443, Note_on_c, 9, 60, 120
7, 34443, Note_on_c, 9, 61, 120
7, 34500, Note_off_c, 9, 61, 0
7, 34500, Note_off_c, 9, 60, 0
7, 34548, Note_off_c, 9, 74, 0
7, 34560, Note_on_c, 9, 74, 120
7, 34560, Note_on_c, 9, 76, 120
7, 34560, Note_on_c, 9, 75, 120
7, 34560, Note_on_c, 9, 62, 120
7, 34560, Note_on_c, 9, 37, 120
7, 34560, Note_on_c, 9, 28, 120
7, 34560, Note_on_c, 9, 36, 120
7, 34560, Note_on_c, 9, 35, 120
7, 34560, Note_on_c, 9, 51, 30
7, 34560, Note_on_c, 9, 49, 30
7, 34617, Note_off_c, 9, 49, 0
7, 34617, Note_off_c, 9, 51, 0
7, 34617, Note_off_c, 9, 35, 0
7, 34617, Note_off_c, 9, 36, 0
7, 34617, Note_off_c, 9, 28, 0
7, 34617, Note_off_c, 9, 37, 0
7, 34617, Note_off_c, 9, 62, 0
7, 34617, Note_off_c, 9, 76, 0
7, 34800, Note_on_c, 9, 62, 120
7, 34800, Note_on_c, 9, 49, 30
7, 34800, Note_on_c, 9, 51, 30
7, 34857, Note_off_c, 9, 51, 0
7, 34857, Note_off_c, 9, 49, 0
7, 34857, Note_off_c, 9, 62, 0
7, 35016, Note_off_c, 9, 74, 0
7, 35016, Note_off_c, 9, 75, 0
7, 35040, Note_on_c, 9, 63, 120
7, 35040, Note_on_c, 9, 28, 120
7, 35040, Note_on_c, 9, 37, 120
7, 35040, Note_on_c, 9, 49, 30
7, 35040, Note_on_c, 9, 51, 30
7, 35040, Note_on_c, 9, 42, 120
7, 35097, Note_off_c, 9, 42, 0
7, 35097, Note_off_c, 9, 51, 0
7, 35097, Note_off_c, 9, 49, 0
7, 35097, Note_off_c, 9, 37, 0
7, 35097, Note_off_c, 9, 28, 0
7, 35097, Note_off_c, 9, 63, 0
7, 35280, Note_on_c, 9, 74, 120
7, 35280, Note_on_c, 9, 76, 120
7, 35280, Note_on_c, 9, 62, 120
7, 35280, Note_on_c, 9, 36, 120
7, 35280, Note_on_c, 9, 35, 120
7, 35280, Note_on_c, 9, 49, 30
7, 35280, Note_on_c, 9, 51, 30
7, 35337, Note_off_c, 9, 51, 0
7, 35337, Note_off_c, 9, 49, 0
7, 35337, Note_off_c, 9, 35, 0
7, 35337, Note_off_c, 9, 36, 0
7, 35337, Note_off_c, 9, 62, 0
7, 35337, Note_off_c, 9, 76, 0
7, 35508, Note_off_c, 9, 74, 0
7, 35520, Note_on_c, 9, 74, 120
7, 35520, Note_on_c, 9, 75, 120
7, 35520, Note_on_c, 9, 62, 120
7, 35520, Note_on_c, 9, 63, 120
7, 35520, Note_on_c, 9, 36, 120
7, 35520, Note_on_c, 9, 35, 120
7, 35520, Note_on_c, 9, 28, 120
7, 35520, Note_on_c, 9, 37, 120
7, 35520, Note_on_c, 9, 49, 30
7, 35520, Note_on_c, 9, 51, 30
7, 35577, Note_off_c, 9, 51, 0
7, 35577, Note_off_c, 9, 49, 0
7, 35577, Note_off_c, 9, 37, 0
7, 35577, Note_off_c, 9, 28, 0
7, 35577, Note_off_c, 9, 35, 0
7, 35577, Note_off_c, 9, 36, 0
7, 35577, Note_off_c, 9, 63, 0
7, 35577, Note_off_c, 9, 62, 0
7, 35760, Note_on_c, 9, 62, 120
7, 35760, Note_on_c, 9, 49, 30
7, 35760, Note_on_c, 9, 51, 30
7, 35817, Note_off_c, 9, 51, 0
7, 35817, Note_off_c, 9, 49, 0
7, 35817, Note_off_c, 9, 62, 0
7, 35976, Note_off_c, 9, 75, 0
7, 35976, Note_off_c, 9, 74, 0
7, 36000, Note_on_c, 9, 76, 120
7, 36000, Note_on_c, 9, 62, 120
7, 36000, Note_on_c, 9, 63, 120
7, 36000, Note_on_c, 9, 28, 120
7, 36000, Note_on_c, 9, 37, 120
7, 36000, Note_on_c, 9, 49, 30
7, 36000, Note_on_c, 9, 51, 30
7, 36000, Note_on_c, 9, 42, 120
7, 36057, Note_off_c, 9, 42, 0
7, 36057, Note_off_c, 9, 51, 0
7, 36057, Note_off_c, 9, 49, 0
7, 36057, Note_off_c, 9, 37, 0
7, 36057, Note_off_c, 9, 28, 0
7, 36057, Note_off_c, 9, 63, 0
7, 36057, Note_off_c, 9, 62, 0
7, 36057, Note_off_c, 9, 76, 0
7, 36240, Note_on_c, 9, 74, 120
7, 36240, Note_on_c, 9, 62, 120
7, 36240, Note_on_c, 9, 36, 120
7, 36240, Note_on_c, 9, 35, 120
7, 36240, Note_on_c, 9, 49, 30
7, 36240, Note_on_c, 9, 51, 30
7, 36297, Note_off_c, 9, 51, 0
7, 36297, Note_off_c, 9, 49, 0
7, 36297, Note_off_c, 9, 35, 0
7, 36297, Note_off_c, 9, 36, 0
7, 36297, Note_off_c, 9, 62, 0
7, 36468, Note_off_c, 9, 74, 0
7, 36480, Note_on_c, 9, 74, 120
7, 36480, Note_on_c, 9, 75, 120
7, 36480, Note_on_c, 9, 62, 120
7, 36480, Note_on_c, 9, 36, 120
7, 36480, Note_on_c, 9, 35, 120
7, 36480, Note_on_c, 9, 28, 120
7, 36480, Note_on_c, 9, 37, 120
7, 36480, Note_on_c, 9, 51, 30
7, 36480, Note_on_c, 9, 49, 30
7, 36537, Note_off_c, 9, 49, 0
7, 36537, Note_off_c, 9, 51, 0
7, 36537, Note_off_c, 9, 37, 0
7, 36537, Note_off_c, 9, 28, 0
7, 36537, Note_off_c, 9, 35, 0
7, 36537, Note_off_c, 9, 36, 0
7, 36537, Note_off_c, 9, 62, 0
7, 36720, Note_on_c, 9, 62, 120
7, 36720, Note_on_c, 9, 49, 30
7, 36720, Note_on_c, 9, 51, 30
7, 36777, Note_off_c, 9, 51, 0
7, 36777, Note_off_c, 9, 49, 0
7, 36777, Note_off_c, 9, 62, 0
7, 36936, Note_off_c, 9, 75, 0
7, 36936, Note_off_c, 9, 74, 0
7, 36960, Note_on_c, 9, 76, 120
7, 36960, Note_on_c, 9, 62, 120
7, 36960, Note_on_c, 9, 63, 120
7, 36960, Note_on_c, 9, 28, 120
7, 36960, Note_on_c, 9, 37, 120
7, 36960, Note_on_c, 9, 49, 30
7, 36960, Note_on_c, 9, 51, 30
7, 36960, Note_on_c, 9, 42, 120
7, 37017, Note_off_c, 9, 42, 0
7, 37017, Note_off_c, 9, 51, 0
7, 37017, Note_off_c, 9, 49, 0
7, 37017, Note_off_c, 9, 37, 0
7, 37017, Note_off_c, 9, 28, 0
7, 37017, Note_off_c, 9, 63, 0
7, 37017, Note_off_c, 9, 62, 0
7, 37017, Note_off_c, 9, 76, 0
7, 37200, Note_on_c, 9, 74, 120
7, 37200, Note_on_c, 9, 62, 120
7, 37200, Note_on_c, 9, 36, 120
7, 37200, Note_on_c, 9, 35, 120
7, 37200, Note_on_c, 9, 49, 30
7, 37200, Note_on_c, 9, 51, 30
7, 37257, Note_off_c, 9, 51, 0
7, 37257, Note_off_c, 9, 49, 0
7, 37257, Note_off_c, 9, 35, 0
7, 37257, Note_off_c, 9, 36, 0
7, 37257, Note_off_c, 9, 62, 0
7, 37428, Note_off_c, 9, 74, 0
7, 37440, Note_on_c, 9, 74, 120
7, 37440, Note_on_c, 9, 75, 120
7, 37440, Note_on_c, 9, 62, 120
7, 37440, Note_on_c, 9, 63, 120
7, 37440, Note_on_c, 9, 35, 120
7, 37440, Note_on_c, 9, 36, 120
7, 37440, Note_on_c, 9, 28, 120
7, 37440, Note_on_c, 9, 37, 120
7, 37440, Note_on_c, 9, 49, 30
7, 37440, Note_on_c, 9, 51, 30
7, 37497, Note_off_c, 9, 51, 0
7, 37497, Note_off_c, 9, 49, 0
7, 37497, Note_off_c, 9, 37, 0
7, 37497, Note_off_c, 9, 28, 0
7, 37497, Note_off_c, 9, 36, 0
7, 37497, Note_off_c, 9, 35, 0
7, 37497, Note_off_c, 9, 63, 0
7, 37497, Note_off_c, 9, 62, 0
7, 37680, Note_on_c, 9, 76, 120
7, 37680, Note_on_c, 9, 62, 120
7, 37680, Note_on_c, 9, 49, 30
7, 37680, Note_on_c, 9, 51, 30
7, 37737, Note_off_c, 9, 51, 0
7, 37737, Note_off_c, 9, 49, 0
7, 37737, Note_off_c, 9, 62, 0
7, 37737, Note_off_c, 9, 76, 0
7, 37896, Note_off_c, 9, 75, 0
7, 37896, Note_off_c, 9, 74, 0
7, 37920, Note_on_c, 9, 62, 120
7, 37920, Note_on_c, 9, 63, 120
7, 37920, Note_on_c, 9, 28, 120
7, 37920, Note_on_c, 9, 37, 120
7, 37920, Note_on_c, 9, 49, 30
7, 37920, Note_on_c, 9, 51, 30
7, 37920, Note_on_c, 9, 42, 120
7, 37977, Note_off_c, 9, 42, 0
7, 37977, Note_off_c, 9, 51, 0
7, 37977, Note_off_c, 9, 49, 0
7, 37977, Note_off_c, 9, 37, 0
7, 37977, Note_off_c, 9, 28, 0
7, 37977, Note_off_c, 9, 63, 0
7, 37977, Note_off_c, 9, 62, 0
7, 38036, Note_on_c, 9, 62, 120
7, 38093, Note_off_c, 9, 62, 0
7, 38160, Note_on_c, 9, 74, 120
7, 38160, Note_on_c, 9, 61, 120
7, 38160, Note_on_c, 9, 62, 120
7, 38160, Note_on_c, 9, 36, 120
7, 38160, Note_on_c, 9, 35, 120
7, 38160, Note_on_c, 9, 49, 30
7, 38160, Note_on_c, 9, 51, 30
7, 38217, Note_off_c, 9, 51, 0
7, 38217, Note_off_c, 9, 49, 0
7, 38217, Note_off_c, 9, 35, 0
7, 38217, Note_off_c, 9, 36, 0
7, 38217, Note_off_c, 9, 62, 0
7, 38217, Note_off_c, 9, 61, 0
7, 38283, Note_on_c, 9, 60, 120
7, 38283, Note_on_c, 9, 61, 120
7, 38340, Note_off_c, 9, 61, 0
7, 38340, Note_off_c, 9, 60, 0
7, 38388, Note_off_c, 9, 74, 0
7, 38400, Note_on_c, 9, 51, 30
7, 38400, Note_on_c, 9, 49, 30
7, 38400, Note_on_c, 9, 37, 120
7, 38400, Note_on_c, 9, 62, 120
7, 38400, Note_on_c, 9, 28, 120
7, 38400, Note_on_c, 9, 75, 120
7, 38400, Note_on_c, 9, 76, 120
7, 38400, Note_on_c, 9, 74, 120
7, 38400, Note_on_c, 9, 36, 120
7, 38400, Note_on_c, 9, 35, 120
7, 38457, Note_off_c, 9, 35, 0
7, 38457, Note_off_c, 9, 36, 0
7, 38457, Note_off_c, 9, 76, 0
7, 38457, Note_off_c, 9, 28, 0
7, 38457, Note_off_c, 9, 62, 0
7, 38457, Note_off_c, 9, 37, 0
7, 38457, Note_off_c, 9, 49, 0
7, 38457, Note_off_c, 9, 51, 0
7, 38640, Note_on_c, 9, 62, 120
7, 38640, Note_on_c, 9, 49, 30
7, 38640, Note_on_c, 9, 51, 30
7, 38697, Note_off_c, 9, 51, 0
7, 38697, Note_off_c, 9, 49, 0
7, 38697, Note_off_c, 9, 62, 0
7, 38856, Note_off_c, 9, 75, 0
7, 38856, Note_off_c, 9, 74, 0
7, 38880, Note_on_c, 9, 28, 120
7, 38880, Note_on_c, 9, 63, 120
7, 38880, Note_on_c, 9, 37, 120
7, 38880, Note_on_c, 9, 49, 30
7, 38880, Note_on_c, 9, 51, 30
7, 38880, Note_on_c, 9, 42, 120
7, 38937, Note_off_c, 9, 42, 0
7, 38937, Note_off_c, 9, 51, 0
7, 38937, Note_off_c, 9, 49, 0
7, 38937, Note_off_c, 9, 37, 0
7, 38937, Note_off_c, 9, 63, 0
7, 38937, Note_off_c, 9, 28, 0
7, 39120, Note_on_c, 9, 36, 120
7, 39120, Note_on_c, 9, 35, 120
7, 39120, Note_on_c, 9, 74, 120
7, 39120, Note_on_c, 9, 76, 120
7, 39120, Note_on_c, 9, 62, 120
7, 39120, Note_on_c, 9, 49, 30
7, 39120, Note_on_c, 9, 51, 30
7, 39177, Note_off_c, 9, 51, 0
7, 39177, Note_off_c, 9, 49, 0
7, 39177, Note_off_c, 9, 62, 0
7, 39177, Note_off_c, 9, 76, 0
7, 39177, Note_off_c, 9, 35, 0
7, 39177, Note_off_c, 9, 36, 0
7, 39348, Note_off_c, 9, 74, 0
7, 39360, Note_on_c, 9, 36, 120
7, 39360, Note_on_c, 9, 35, 120
7, 39360, Note_on_c, 9, 74, 120
7, 39360, Note_on_c, 9, 75, 120
7, 39360, Note_on_c, 9, 28, 120
7, 39360, Note_on_c, 9, 62, 120
7, 39360, Note_on_c, 9, 63, 120
7, 39360, Note_on_c, 9, 37, 120
7, 39360, Note_on_c, 9, 49, 30
7, 39360, Note_on_c, 9, 51, 30
7, 39417, Note_off_c, 9, 51, 0
7, 39417, Note_off_c, 9, 49, 0
7, 39417, Note_off_c, 9, 37, 0
7, 39417, Note_off_c, 9, 63, 0
7, 39417, Note_off_c, 9, 62, 0
7, 39417, Note_off_c, 9, 28, 0
7, 39417, Note_off_c, 9, 35, 0
7, 39417, Note_off_c, 9, 36, 0
7, 39600, Note_on_c, 9, 62, 120
7, 39600, Note_on_c, 9, 49, 30
7, 39600, Note_on_c, 9, 51, 30
7, 39657, Note_off_c, 9, 51, 0
7, 39657, Note_off_c, 9, 49, 0
7, 39657, Note_off_c, 9, 62, 0
7, 39816, Note_off_c, 9, 74, 0
7, 39816, Note_off_c, 9, 75, 0
7, 39840, Note_on_c, 9, 76, 120
7, 39840, Note_on_c, 9, 28, 120
7, 39840, Note_on_c, 9, 62, 120
7, 39840, Note_on_c, 9, 63, 120
7, 39840, Note_on_c, 9, 37, 120
7, 39840, Note_on_c, 9, 49, 30
7, 39840, Note_on_c, 9, 51, 30
7, 39840, Note_on_c, 9, 42, 120
7, 39897, Note_off_c, 9, 42, 0
7, 39897, Note_off_c, 9, 51, 0
7, 39897, Note_off_c, 9, 49, 0
7, 39897, Note_off_c, 9, 37, 0
7, 39897, Note_off_c, 9, 63, 0
7, 39897, Note_off_c, 9, 62, 0
7, 39897, Note_off_c, 9, 28, 0
7, 39897, Note_off_c, 9, 76, 0
7, 40080, Note_on_c, 9, 36, 120
7, 40080, Note_on_c, 9, 35, 120
7, 40080, Note_on_c, 9, 74, 120
7, 40080, Note_on_c, 9, 62, 120
7, 40080, Note_on_c, 9, 49, 30
7, 40080, Note_on_c, 9, 51, 30
7, 40137, Note_off_c, 9, 51, 0
7, 40137, Note_off_c, 9, 49, 0
7, 40137, Note_off_c, 9, 62, 0
7, 40137, Note_off_c, 9, 35, 0
7, 40137, Note_off_c, 9, 36, 0
7, 40308, Note_off_c, 9, 74, 0
7, 40320, Note_on_c, 9, 36, 120
7, 40320, Note_on_c, 9, 35, 120
7, 40320, Note_on_c, 9, 74, 120
7, 40320, Note_on_c, 9, 75, 120
7, 40320, Note_on_c, 9, 62, 120
7, 40320, Note_on_c, 9, 28, 120
7, 40320, Note_on_c, 9, 37, 120
7, 40320, Note_on_c, 9, 51, 30
7, 40320, Note_on_c, 9, 49, 30
7, 40377, Note_off_c, 9, 49, 0
7, 40377, Note_off_c, 9, 51, 0
7, 40377, Note_off_c, 9, 37, 0
7, 40377, Note_off_c, 9, 28, 0
7, 40377, Note_off_c, 9, 62, 0
7, 40377, Note_off_c, 9, 35, 0
7, 40377, Note_off_c, 9, 36, 0
7, 40560, Note_on_c, 9, 62, 120
7, 40560, Note_on_c, 9, 49, 30
7, 40560, Note_on_c, 9, 51, 30
7, 40617, Note_off_c, 9, 51, 0
7, 40617, Note_off_c, 9, 49, 0
7, 40617, Note_off_c, 9, 62, 0
7, 40776, Note_off_c, 9, 74, 0
7, 40776, Note_off_c, 9, 75, 0
7, 40800, Note_on_c, 9, 76, 120
7, 40800, Note_on_c, 9, 62, 120
7, 40800, Note_on_c, 9, 63, 120
7, 40800, Note_on_c, 9, 28, 120
7, 40800, Note_on_c, 9, 37, 120
7, 40800, Note_on_c, 9, 49, 30
7, 40800, Note_on_c, 9, 51, 30
7, 40800, Note_on_c, 9, 42, 120
7, 40857, Note_off_c, 9, 42, 0
7, 40857, Note_off_c, 9, 51, 0
7, 40857, Note_off_c, 9, 49, 0
7, 40857, Note_off_c, 9, 37, 0
7, 40857, Note_off_c, 9, 28, 0
7, 40857, Note_off_c, 9, 63, 0
7, 40857, Note_off_c, 9, 62, 0
7, 40857, Note_off_c, 9, 76, 0
7, 41040, Note_on_c, 9, 36, 120
7, 41040, Note_on_c, 9, 35, 120
7, 41040, Note_on_c, 9, 74, 120
7, 41040, Note_on_c, 9, 62, 120
7, 41040, Note_on_c, 9, 49, 30
7, 41040, Note_on_c, 9, 51, 30
7, 41097, Note_off_c, 9, 51, 0
7, 41097, Note_off_c, 9, 49, 0
7, 41097, Note_off_c, 9, 62, 0
7, 41097, Note_off_c, 9, 35, 0
7, 41097, Note_off_c, 9, 36, 0
7, 41268, Note_off_c, 9, 74, 0
7, 41280, Note_on_c, 9, 35, 120
7, 41280, Note_on_c, 9, 36, 120
7, 41280, Note_on_c, 9, 74, 120
7, 41280, Note_on_c, 9, 75, 120
7, 41280, Note_on_c, 9, 62, 120
7, 41280, Note_on_c, 9, 63, 120
7, 41280, Note_on_c, 9, 28, 120
7, 41280, Note_on_c, 9, 37, 120
7, 41280, Note_on_c, 9, 49, 30
7, 41280, Note_on_c, 9, 51, 30
7, 41337, Note_off_c, 9, 51, 0
7, 41337, Note_off_c, 9, 49, 0
7, 41337, Note_off_c, 9, 37, 0
7, 41337, Note_off_c, 9, 28, 0
7, 41337, Note_off_c, 9, 63, 0
7, 41337, Note_off_c, 9, 62, 0
7, 41337, Note_off_c, 9, 36, 0
7, 41337, Note_off_c, 9, 35, 0
7, 41520, Note_on_c, 9, 76, 120
7, 41520, Note_on_c, 9, 62, 120
7, 41520, Note_on_c, 9, 49, 30
7, 41520, Note_on_c, 9, 51, 30
7, 41577, Note_off_c, 9, 51, 0
7, 41577, Note_off_c, 9, 49, 0
7, 41577, Note_off_c, 9, 62, 0
7, 41577, Note_off_c, 9, 76, 0
7, 41736, Note_off_c, 9, 74, 0
7, 41736, Note_off_c, 9, 75, 0
7, 41760, Note_on_c, 9, 62, 120
7, 41760, Note_on_c, 9, 63, 120
7, 41760, Note_on_c, 9, 28, 120
7, 41760, Note_on_c, 9, 37, 120
7, 41760, Note_on_c, 9, 49, 30
7, 41760, Note_on_c, 9, 51, 30
7, 41760, Note_on_c, 9, 42, 120
7, 41817, Note_off_c, 9, 42, 0
7, 41817, Note_off_c, 9, 51, 0
7, 41817, Note_off_c, 9, 49, 0
7, 41817, Note_off_c, 9, 37, 0
7, 41817, Note_off_c, 9, 28, 0
7, 41817, Note_off_c, 9, 63, 0
7, 41817, Note_off_c, 9, 62, 0
7, 41876, Note_on_c, 9, 62, 120
7, 41933, Note_off_c, 9, 62, 0
7, 42000, Note_on_c, 9, 36, 120
7, 42000, Note_on_c, 9, 35, 120
7, 42000, Note_on_c, 9, 74, 120
7, 42000, Note_on_c, 9, 61, 120
7, 42000, Note_on_c, 9, 62, 120
7, 42000, Note_on_c, 9, 49, 30
7, 42000, Note_on_c, 9, 51, 30
7, 42057, Note_off_c, 9, 51, 0
7, 42057, Note_off_c, 9, 49, 0
7, 42057, Note_off_c, 9, 62, 0
7, 42057, Note_off_c, 9, 61, 0
7, 42057, Note_off_c, 9, 35, 0
7, 42057, Note_off_c, 9, 36, 0
7, 42123, Note_on_c, 9, 60, 120
7, 42123, Note_on_c, 9, 61, 120
7, 42180, Note_off_c, 9, 61, 0
7, 42180, Note_off_c, 9, 60, 0
7, 42228, Note_off_c, 9, 74, 0
7, 42240, Note_on_c, 9, 74, 120
7, 42240, Note_on_c, 9, 76, 120
7, 42240, Note_on_c, 9, 75, 120
7, 42240, Note_on_c, 9, 62, 120
7, 42240, Note_on_c, 9, 37, 120
7, 42240, Note_on_c, 9, 28, 120
7, 42240, Note_on_c, 9, 36, 120
7, 42240, Note_on_c, 9, 35, 120
7, 42240, Note_on_c, 9, 49, 30
7, 42240, Note_on_c, 9, 51, 30
7, 42297, Note_off_c, 9, 51, 0
7, 42297, Note_off_c, 9, 49, 0
7, 42297, Note_off_c, 9, 35, 0
7, 42297, Note_off_c, 9, 36, 0
7, 42297, Note_off_c, 9, 28, 0
7, 42297, Note_off_c, 9, 37, 0
7, 42297, Note_off_c, 9, 62, 0
7, 42297, Note_off_c, 9, 76, 0
7, 42480, Note_on_c, 9, 62, 120
7, 42480, Note_on_c, 9, 49, 30
7, 42480, Note_on_c, 9, 51, 30
7, 42537, Note_off_c, 9, 51, 0
7, 42537, Note_off_c, 9, 49, 0
7, 42537, Note_off_c, 9, 62, 0
7, 42696, Note_off_c, 9, 74, 0
7, 42696, Note_off_c, 9, 75, 0
7, 42720, Note_on_c, 9, 63, 120
7, 42720, Note_on_c, 9, 28, 120
7, 42720, Note_on_c, 9, 37, 120
7, 42720, Note_on_c, 9, 49, 30
7, 42720, Note_on_c, 9, 51, 30
7, 42720, Note_on_c, 9, 42, 120
7, 42777, Note_off_c, 9, 42, 0
7, 42777, Note_off_c, 9, 51, 0
7, 42777, Note_off_c, 9, 49, 0
7, 42777, Note_off_c, 9, 37, 0
7, 42777, Note_off_c, 9, 28, 0
7, 42777, Note_off_c, 9, 63, 0
7, 42960, Note_on_c, 9, 74, 120
7, 42960, Note_on_c, 9, 76, 120
7, 42960, Note_on_c, 9, 62, 120
7, 42960, Note_on_c, 9, 36, 120
7, 42960, Note_on_c, 9, 35, 120
7, 42960, Note_on_c, 9, 49, 30
7, 42960, Note_on_c, 9, 51, 30
7, 43017, Note_off_c, 9, 51, 0
7, 43017, Note_off_c, 9, 49, 0
7, 43017, Note_off_c, 9, 35, 0
7, 43017, Note_off_c, 9, 36, 0
7, 43017, Note_off_c, 9, 62, 0
7, 43017, Note_off_c, 9, 76, 0
7, 43188, Note_off_c, 9, 74, 0
7, 43200, Note_on_c, 9, 74, 120
7, 43200, Note_on_c, 9, 75, 120
7, 43200, Note_on_c, 9, 62, 120
7, 43200, Note_on_c, 9, 63, 120
7, 43200, Note_on_c, 9, 36, 120
7, 43200, Note_on_c, 9, 35, 120
7, 43200, Note_on_c, 9, 28, 120
7, 43200, Note_on_c, 9, 37, 120
7, 43200, Note_on_c, 9, 49, 30
7, 43200, Note_on_c, 9, 51, 30
7, 43257, Note_off_c, 9, 51, 0
7, 43257, Note_off_c, 9, 49, 0
7, 43257, Note_off_c, 9, 37, 0
7, 43257, Note_off_c, 9, 28, 0
7, 43257, Note_off_c, 9, 35, 0
7, 43257, Note_off_c, 9, 36, 0
7, 43257, Note_off_c, 9, 63, 0
7, 43257, Note_off_c, 9, 62, 0
7, 43440, Note_on_c, 9, 62, 120
7, 43440, Note_on_c, 9, 49, 30
7, 43440, Note_on_c, 9, 51, 30
7, 43497, Note_off_c, 9, 51, 0
7, 43497, Note_off_c, 9, 49, 0
7, 43497, Note_off_c, 9, 62, 0
7, 43656, Note_off_c, 9, 75, 0
7, 43656, Note_off_c, 9, 74, 0
7, 43680, Note_on_c, 9, 76, 120
7, 43680, Note_on_c, 9, 62, 120
7, 43680, Note_on_c, 9, 63, 120
7, 43680, Note_on_c, 9, 28, 120
7, 43680, Note_on_c, 9, 37, 120
7, 43680, Note_on_c, 9, 49, 30
7, 43680, Note_on_c, 9, 51, 30
7, 43680, Note_on_c, 9, 42, 120
7, 43737, Note_off_c, 9, 42, 0
7, 43737, Note_off_c, 9, 51, 0
7, 43737, Note_off_c, 9, 49, 0
7, 43737, Note_off_c, 9, 37, 0
7, 43737, Note_off_c, 9, 28, 0
7, 43737, Note_off_c, 9, 63, 0
7, 43737, Note_off_c, 9, 62, 0
7, 43737, Note_off_c, 9, 76, 0
7, 43920, Note_on_c, 9, 74, 120
7, 43920, Note_on_c, 9, 62, 120
7, 43920, Note_on_c, 9, 36, 120
7, 43920, Note_on_c, 9, 35, 120
7, 43920, Note_on_c, 9, 49, 30
7, 43920, Note_on_c, 9, 51, 30
7, 43977, Note_off_c, 9, 51, 0
7, 43977, Note_off_c, 9, 49, 0
7, 43977, Note_off_c, 9, 35, 0
7, 43977, Note_off_c, 9, 36, 0
7, 43977, Note_off_c, 9, 62, 0
7, 44148, Note_off_c, 9, 74, 0
7, 44160, Note_on_c, 9, 74, 120
7, 44160, Note_on_c, 9, 75, 120
7, 44160, Note_on_c, 9, 62, 120
7, 44160, Note_on_c, 9, 36, 120
7, 44160, Note_on_c, 9, 35, 120
7, 44160, Note_on_c, 9, 28, 120
7, 44160, Note_on_c, 9, 37, 120
7, 44160, Note_on_c, 9, 51, 30
7, 44160, Note_on_c, 9, 49, 30
7, 44217, Note_off_c, 9, 49, 0
7, 44217, Note_off_c, 9, 51, 0
7, 44217, Note_off_c, 9, 37, 0
7, 44217, Note_off_c, 9, 28, 0
7, 44217, Note_off_c, 9, 35, 0
7, 44217, Note_off_c, 9, 36, 0
7, 44217, Note_off_c, 9, 62, 0
7, 44400, Note_on_c, 9, 62, 120
7, 44400, Note_on_c, 9, 49, 30
7, 44400, Note_on_c, 9, 51, 30
7, 44457, Note_off_c, 9, 51, 0
7, 44457, Note_off_c, 9, 49, 0
7, 44457, Note_off_c, 9, 62, 0
7, 44616, Note_off_c, 9, 75, 0
7, 44616, Note_off_c, 9, 74, 0
7, 44640, Note_on_c, 9, 76, 120
7, 44640, Note_on_c, 9, 62, 120
7, 44640, Note_on_c, 9, 63, 120
7, 44640, Note_on_c, 9, 28, 120
7, 44640, Note_on_c, 9, 37, 120
7, 44640, Note_on_c, 9, 49, 30
7, 44640, Note_on_c, 9, 51, 30
7, 44640, Note_on_c, 9, 42, 120
7, 44697, Note_off_c, 9, 42, 0
7, 44697, Note_off_c, 9, 51, 0
7, 44697, Note_off_c, 9, 49, 0
7, 44697, Note_off_c, 9, 37, 0
7, 44697, Note_off_c, 9, 28, 0
7, 44697, Note_off_c, 9, 63, 0
7, 44697, Note_off_c, 9, 62, 0
7, 44697, Note_off_c, 9, 76, 0
7, 44880, Note_on_c, 9, 62, 120
7, 44880, Note_on_c, 9, 36, 120
7, 44880, Note_on_c, 9, 35, 120
7, 44880, Note_on_c, 9, 49, 30
7, 44880, Note_on_c, 9, 51, 30
7, 44880, Note_on_c, 9, 74, 120
7, 44937, Note_off_c, 9, 51, 0
7, 44937, Note_off_c, 9, 49, 0
7, 44937, Note_off_c, 9, 35, 0
7, 44937, Note_off_c, 9, 36, 0
7, 44937, Note_off_c, 9, 62, 0
7, 45120, Note_on_c, 9, 62, 120
7, 45120, Note_on_c, 9, 63, 120
7, 45120, Note_on_c, 9, 35, 120
7, 45120, Note_on_c, 9, 36, 120
7, 45120, Note_on_c, 9, 28, 120
7, 45120, Note_on_c, 9, 37, 120
7, 45120, Note_on_c, 9, 49, 30
7, 45120, Note_on_c, 9, 51, 30
7, 45120, Note_on_c, 9, 74, 120
7, 45120, Note_on_c, 9, 76, 120
7, 45127, Note_off_c, 9, 74, 0
7, 45177, Note_off_c, 9, 62, 0
7, 45177, Note_off_c, 9, 63, 0
7, 45177, Note_off_c, 9, 35, 0
7, 45177, Note_off_c, 9, 36, 0
7, 45177, Note_off_c, 9, 28, 0
7, 45177, Note_off_c, 9, 37, 0
7, 45177, Note_off_c, 9, 49, 0
7, 45177, Note_off_c, 9, 51, 0
7, 45180, Note_off_c, 9, 74, 0
7, 45180, Note_off_c, 9, 76, 0
7, 45360, Note_on_c, 9, 76, 120
7, 45360, Note_on_c, 9, 74, 120
7, 45360, Note_on_c, 9, 51, 30
7, 45360, Note_on_c, 9, 49, 30
7, 45360, Note_on_c, 9, 37, 120
7, 45360, Note_on_c, 9, 28, 120
7, 45360, Note_on_c, 9, 36, 120
7, 45360, Note_on_c, 9, 35, 120
7, 45360, Note_on_c, 9, 63, 120
7, 45360, Note_on_c, 9, 62, 120
7, 45417, Note_off_c, 9, 62, 0
7, 45417, Note_off_c, 9, 63, 0
7, 45417, Note_off_c, 9, 35, 0
7, 45417, Note_off_c, 9, 36, 0
7, 45417, Note_off_c, 9, 28, 0
7, 45417, Note_off_c, 9, 37, 0
7, 45417, Note_off_c, 9, 49, 0
7, 45417, Note_off_c, 9, 51, 0
7, 45420, Note_off_c, 9, 74, 0
7, 45420, Note_off_c, 9, 76, 0
7, 45600, Note_on_c, 9, 76, 120
7, 45600, Note_on_c, 9, 74, 120
7, 45600, Note_on_c, 9, 37, 120
7, 45600, Note_on_c, 9, 28, 120
7, 45600, Note_on_c, 9, 36, 120
7, 45600, Note_on_c, 9, 35, 120
7, 45600, Note_on_c, 9, 63, 120
7, 45600, Note_on_c, 9, 62, 120
7, 45657, Note_off_c, 9, 62, 0
7, 45657, Note_off_c, 9, 63, 0
7, 45657, Note_off_c, 9, 35, 0
7, 45657, Note_off_c, 9, 36, 0
7, 45657, Note_off_c, 9, 28, 0
7, 45657, Note_off_c, 9, 37, 0
7, 45660, Note_off_c, 9, 74, 0
7, 45660, Note_off_c, 9, 76, 0
7, 45716, Note_on_c, 9, 62, 120
7, 45716, Note_on_c, 9, 63, 120
7, 45716, Note_on_c, 9, 35, 120
7, 45716, Note_on_c, 9, 36, 120
7, 45716, Note_on_c, 9, 28, 120
7, 45716, Note_on_c, 9, 37, 120
7, 45716, Note_on_c, 9, 74, 120
7, 45716, Note_on_c, 9, 76, 120
7, 45773, Note_off_c, 9, 37, 0
7, 45773, Note_off_c, 9, 28, 0
7, 45773, Note_off_c, 9, 36, 0
7, 45773, Note_off_c, 9, 35, 0
7, 45773, Note_off_c, 9, 63, 0
7, 45773, Note_off_c, 9, 62, 0
7, 45776, Note_off_c, 9, 74, 0
7, 45776, Note_off_c, 9, 76, 0
7, 45840, Note_on_c, 9, 62, 120
7, 45840, Note_on_c, 9, 63, 120
7, 45840, Note_on_c, 9, 35, 120
7, 45840, Note_on_c, 9, 36, 120
7, 45840, Note_on_c, 9, 28, 120
7, 45840, Note_on_c, 9, 37, 120
7, 45840, Note_on_c, 9, 74, 120
7, 45840, Note_on_c, 9, 76, 120
7, 45897, Note_off_c, 9, 37, 0
7, 45897, Note_off_c, 9, 28, 0
7, 45897, Note_off_c, 9, 36, 0
7, 45897, Note_off_c, 9, 35, 0
7, 45897, Note_off_c, 9, 63, 0
7, 45897, Note_off_c, 9, 62, 0
7, 45900, Note_off_c, 9, 74, 0
7, 45900, Note_off_c, 9, 76, 0
7, 45956, Note_on_c, 9, 62, 120
7, 45956, Note_on_c, 9, 63, 120
7, 45956, Note_on_c, 9, 35, 120
7, 45956, Note_on_c, 9, 36, 120
7, 45956, Note_on_c, 9, 28, 120
7, 45956, Note_on_c, 9, 37, 120
7, 45956, Note_on_c, 9, 74, 120
7, 45956, Note_on_c, 9, 76, 120
7, 46013, Note_off_c, 9, 37, 0
7, 46013, Note_off_c, 9, 28, 0
7, 46013, Note_off_c, 9, 36, 0
7, 46013, Note_off_c, 9, 35, 0
7, 46013, Note_off_c, 9, 63, 0
7, 46013, Note_off_c, 9, 62, 0
7, 46016, Note_off_c, 9, 74, 0
7, 46016, Note_off_c, 9, 76, 0
7, 46080, Note_on_c, 9, 74, 120
7, 46080, Note_on_c, 9, 76, 120
7, 46080, Note_on_c, 9, 28, 120
7, 46080, Note_on_c, 9, 62, 120
7, 46080, Note_on_c, 9, 49, 120
7, 46080, Note_on_c, 9, 51, 120
7, 46080, Note_on_c, 9, 46, 120
7, 46080, Note_on_c, 9, 36, 120
7, 46080, Note_on_c, 9, 35, 120
7, 46080, Note_on_c, 9, 37, 120
7, 46080, Note_on_c, 9, 75, 120
7, 46137, Note_off_c, 9, 62, 0
7, 46137, Note_off_c, 9, 28, 0
7, 46137, Note_off_c, 9, 76, 0
7, 46140, Note_off_c, 9, 49, 0
7, 46140, Note_off_c, 9, 51, 0
7, 46140, Note_off_c, 9, 46, 0
7, 46140, Note_off_c, 9, 36, 0
7, 46140, Note_off_c, 9, 35, 0
7, 46140, Note_off_c, 9, 37, 0
7, 46320, Note_on_c, 9, 62, 120
7, 46320, Note_on_c, 9, 46, 120
7, 46320, Note_on_c, 9, 35, 120
7, 46320, Note_on_c, 9, 36, 120
7, 46377, Note_off_c, 9, 62, 0
7, 46380, Note_off_c, 9, 46, 0
7, 46380, Note_off_c, 9, 35, 0
7, 46380, Note_off_c, 9, 36, 0
7, 46536, Note_off_c, 9, 74, 0
7, 46536, Note_off_c, 9, 75, 0
7, 46560, Note_on_c, 9, 28, 120
7, 46560, Note_on_c, 9, 63, 120
7, 46560, Note_on_c, 9, 37, 120
7, 46560, Note_on_c, 9, 42, 120
7, 46560, Note_on_c, 9, 40, 120
7, 46560, Note_on_c, 9, 38, 120
7, 46560, Note_on_c, 9, 35, 120
7, 46560, Note_on_c, 9, 36, 120
7, 46560, Note_on_c, 9, 46, 120
7, 46617, Note_off_c, 9, 42, 0
7, 46617, Note_off_c, 9, 37, 0
7, 46617, Note_off_c, 9, 63, 0
7, 46617, Note_off_c, 9, 28, 0
7, 46620, Note_off_c, 9, 40, 0
7, 46620, Note_off_c, 9, 38, 0
7, 46620, Note_off_c, 9, 35, 0
7, 46620, Note_off_c, 9, 36, 0
7, 46620, Note_off_c, 9, 46, 0
7, 46800, Note_on_c, 9, 36, 120
7, 46800, Note_on_c, 9, 35, 120
7, 46800, Note_on_c, 9, 74, 120
7, 46800, Note_on_c, 9, 76, 120
7, 46800, Note_on_c, 9, 62, 120
7, 46800, Note_on_c, 9, 46, 120
7, 46857, Note_off_c, 9, 62, 0
7, 46857, Note_off_c, 9, 76, 0
7, 46857, Note_off_c, 9, 35, 0
7, 46857, Note_off_c, 9, 36, 0
7, 46860, Note_off_c, 9, 46, 0
7, 47028, Note_off_c, 9, 74, 0
7, 47040, Note_on_c, 9, 36, 120
7, 47040, Note_on_c, 9, 74, 120
7, 47040, Note_on_c, 9, 75, 120
7, 47040, Note_on_c, 9, 28, 120
7, 47040, Note_on_c, 9, 62, 120
7, 47040, Note_on_c, 9, 63, 120
7, 47040, Note_on_c, 9, 46, 120
7, 47097, Note_off_c, 9, 63, 0
7, 47097, Note_off_c, 9, 62, 0
7, 47097, Note_off_c, 9, 28, 0
7, 47097, Note_off_c, 9, 36, 0
7, 47100, Note_off_c, 9, 46, 0
7, 47280, Note_on_c, 9, 62, 120
7, 47280, Note_on_c, 9, 46, 120
7, 47280, Note_on_c, 9, 36, 120
7, 47280, Note_on_c, 9, 35, 120
7, 47337, Note_off_c, 9, 62, 0
7, 47340, Note_off_c, 9, 46, 0
7, 47340, Note_off_c, 9, 36, 0
7, 47340, Note_off_c, 9, 35, 0
7, 47496, Note_off_c, 9, 74, 0
7, 47496, Note_off_c, 9, 75, 0
7, 47520, Note_on_c, 9, 76, 120
7, 47520, Note_on_c, 9, 28, 120
7, 47520, Note_on_c, 9, 62, 120
7, 47520, Note_on_c, 9, 63, 120
7, 47520, Note_on_c, 9, 37, 120
7, 47520, Note_on_c, 9, 42, 120
7, 47520, Note_on_c, 9, 36, 120
7, 47520, Note_on_c, 9, 40, 120
7, 47520, Note_on_c, 9, 46, 120
7, 47520, Note_on_c, 9, 35, 120
7, 47520, Note_on_c, 9, 38, 120
7, 47577, Note_off_c, 9, 42, 0
7, 47577, Note_off_c, 9, 37, 0
7, 47577, Note_off_c, 9, 63, 0
7, 47577, Note_off_c, 9, 62, 0
7, 47577, Note_off_c, 9, 28, 0
7, 47577, Note_off_c, 9, 76, 0
7, 47580, Note_off_c, 9, 36, 0
7, 47580, Note_off_c, 9, 40, 0
7, 47580, Note_off_c, 9, 46, 0
7, 47580, Note_off_c, 9, 35, 0
7, 47580, Note_off_c, 9, 38, 0
7, 47760, Note_on_c, 9, 36, 120
7, 47760, Note_on_c, 9, 35, 120
7, 47760, Note_on_c, 9, 74, 120
7, 47760, Note_on_c, 9, 62, 120
7, 47760, Note_on_c, 9, 46, 120
7, 47817, Note_off_c, 9, 62, 0
7, 47817, Note_off_c, 9, 35, 0
7, 47817, Note_off_c, 9, 36, 0
7, 47820, Note_off_c, 9, 46, 0
7, 47988, Note_off_c, 9, 74, 0
7, 48000, Note_on_c, 9, 74, 120
7, 48000, Note_on_c, 9, 75, 120
7, 48000, Note_on_c, 9, 62, 120
7, 48000, Note_on_c, 9, 37, 120
7, 48000, Note_on_c, 9, 35, 120
7, 48000, Note_on_c, 9, 36, 120
7, 48000, Note_on_c, 9, 46, 120
7, 48000, Note_on_c, 9, 28, 120
7, 48057, Note_off_c, 9, 28, 0
7, 48057, Note_off_c, 9, 62, 0
7, 48060, Note_off_c, 9, 37, 0
7, 48060, Note_off_c, 9, 35, 0
7, 48060, Note_off_c, 9, 36, 0
7, 48060, Note_off_c, 9, 46, 0
7, 48240, Note_on_c, 9, 62, 120
7, 48240, Note_on_c, 9, 46, 120
7, 48240, Note_on_c, 9, 35, 120
7, 48240, Note_on_c, 9, 36, 120
7, 48297, Note_off_c, 9, 62, 0
7, 48300, Note_off_c, 9, 46, 0
7, 48300, Note_off_c, 9, 35, 0
7, 48300, Note_off_c, 9, 36, 0
7, 48456, Note_off_c, 9, 75, 0
7, 48456, Note_off_c, 9, 74, 0
7, 48480, Note_on_c, 9, 76, 120
7, 48480, Note_on_c, 9, 62, 120
7, 48480, Note_on_c, 9, 63, 120
7, 48480, Note_on_c, 9, 28, 120
7, 48480, Note_on_c, 9, 37, 120
7, 48480, Note_on_c, 9, 42, 120
7, 48480, Note_on_c, 9, 40, 120
7, 48480, Note_on_c, 9, 38, 120
7, 48480, Note_on_c, 9, 35, 120
7, 48480, Note_on_c, 9, 36, 120
7, 48480, Note_on_c, 9, 46, 120
7, 48537, Note_off_c, 9, 42, 0
7, 48537, Note_off_c, 9, 37, 0
7, 48537, Note_off_c, 9, 28, 0
7, 48537, Note_off_c, 9, 63, 0
7, 48537, Note_off_c, 9, 62, 0
7, 48537, Note_off_c, 9, 76, 0
7, 48540, Note_off_c, 9, 40, 0
7, 48540, Note_off_c, 9, 38, 0
7, 48540, Note_off_c, 9, 35, 0
7, 48540, Note_off_c, 9, 36, 0
7, 48540, Note_off_c, 9, 46, 0
7, 48720, Note_on_c, 9, 74, 120
7, 48720, Note_on_c, 9, 62, 120
7, 48720, Note_on_c, 9, 36, 120
7, 48720, Note_on_c, 9, 35, 120
7, 48720, Note_on_c, 9, 46, 120
7, 48777, Note_off_c, 9, 35, 0
7, 48777, Note_off_c, 9, 36, 0
7, 48777, Note_off_c, 9, 62, 0
7, 48780, Note_off_c, 9, 46, 0
7, 48948, Note_off_c, 9, 74, 0
7, 48960, Note_on_c, 9, 74, 120
7, 48960, Note_on_c, 9, 75, 120
7, 48960, Note_on_c, 9, 62, 120
7, 48960, Note_on_c, 9, 63, 120
7, 48960, Note_on_c, 9, 36, 120
7, 48960, Note_on_c, 9, 28, 120
7, 48960, Note_on_c, 9, 46, 120
7, 49017, Note_off_c, 9, 28, 0
7, 49017, Note_off_c, 9, 36, 0
7, 49017, Note_off_c, 9, 63, 0
7, 49017, Note_off_c, 9, 62, 0
7, 49020, Note_off_c, 9, 46, 0
7, 49200, Note_on_c, 9, 76, 120
7, 49200, Note_on_c, 9, 62, 120
7, 49200, Note_on_c, 9, 46, 120
7, 49200, Note_on_c, 9, 36, 120
7, 49200, Note_on_c, 9, 35, 120
7, 49257, Note_off_c, 9, 62, 0
7, 49257, Note_off_c, 9, 76, 0
7, 49260, Note_off_c, 9, 46, 0
7, 49260, Note_off_c, 9, 36, 0
7, 49260, Note_off_c, 9, 35, 0
7, 49416, Note_off_c, 9, 75, 0
7, 49416, Note_off_c, 9, 74, 0
7, 49440, Note_on_c, 9, 62, 120
7, 49440, Note_on_c, 9, 63, 120
7, 49440, Note_on_c, 9, 28, 120
7, 49440, Note_on_c, 9, 37, 120
7, 49440, Note_on_c, 9, 42, 120
7, 49440, Note_on_c, 9, 36, 120
7, 49440, Note_on_c, 9, 40, 120
7, 49440, Note_on_c, 9, 46, 120
7, 49440, Note_on_c, 9, 35, 120
7, 49440, Note_on_c, 9, 38, 120
7, 49497, Note_off_c, 9, 42, 0
7, 49497, Note_off_c, 9, 37, 0
7, 49497, Note_off_c, 9, 28, 0
7, 49497, Note_off_c, 9, 63, 0
7, 49497, Note_off_c, 9, 62, 0
7, 49500, Note_off_c, 9, 36, 0
7, 49500, Note_off_c, 9, 40, 0
7, 49500, Note_off_c, 9, 46, 0
7, 49500, Note_off_c, 9, 35, 0
7, 49500, Note_off_c, 9, 38, 0
7, 49556, Note_on_c, 9, 62, 120
7, 49613, Note_off_c, 9, 62, 0
7, 49680, Note_on_c, 9, 74, 120
7, 49680, Note_on_c, 9, 61, 120
7, 49680, Note_on_c, 9, 62, 120
7, 49680, Note_on_c, 9, 36, 120
7, 49680, Note_on_c, 9, 35, 120
7, 49680, Note_on_c, 9, 46, 120
7, 49737, Note_off_c, 9, 35, 0
7, 49737, Note_off_c, 9, 36, 0
7, 49737, Note_off_c, 9, 62, 0
7, 49737, Note_off_c, 9, 61, 0
7, 49740, Note_off_c, 9, 46, 0
7, 49803, Note_on_c, 9, 60, 120
7, 49803, Note_on_c, 9, 61, 120
7, 49860, Note_off_c, 9, 61, 0
7, 49860, Note_off_c, 9, 60, 0
7, 49908, Note_off_c, 9, 74, 0
7, 49920, Note_on_c, 9, 74, 120
7, 49920, Note_on_c, 9, 76, 120
7, 49920, Note_on_c, 9, 75, 120
7, 49920, Note_on_c, 9, 62, 120
7, 49920, Note_on_c, 9, 37, 120
7, 49920, Note_on_c, 9, 35, 120
7, 49920, Note_on_c, 9, 36, 120
7, 49920, Note_on_c, 9, 46, 120
7, 49920, Note_on_c, 9, 28, 120
7, 49977, Note_off_c, 9, 28, 0
7, 49977, Note_off_c, 9, 62, 0
7, 49977, Note_off_c, 9, 76, 0
7, 49980, Note_off_c, 9, 37, 0
7, 49980, Note_off_c, 9, 35, 0
7, 49980, Note_off_c, 9, 36, 0
7, 49980, Note_off_c, 9, 46, 0
7, 50160, Note_on_c, 9, 62, 120
7, 50160, Note_on_c, 9, 46, 120
7, 50160, Note_on_c, 9, 35, 120
7, 50160, Note_on_c, 9, 36, 120
7, 50217, Note_off_c, 9, 62, 0
7, 50220, Note_off_c, 9, 46, 0
7, 50220, Note_off_c, 9, 35, 0
7, 50220, Note_off_c, 9, 36, 0
7, 50376, Note_off_c, 9, 74, 0
7, 50376, Note_off_c, 9, 75, 0
7, 50400, Note_on_c, 9, 63, 120
7, 50400, Note_on_c, 9, 28, 120
7, 50400, Note_on_c, 9, 37, 120
7, 50400, Note_on_c, 9, 42, 120
7, 50400, Note_on_c, 9, 40, 120
7, 50400, Note_on_c, 9, 38, 120
7, 50400, Note_on_c, 9, 35, 120
7, 50400, Note_on_c, 9, 36, 120
7, 50400, Note_on_c, 9, 46, 120
7, 50457, Note_off_c, 9, 42, 0
7, 50457, Note_off_c, 9, 37, 0
7, 50457, Note_off_c, 9, 28, 0
7, 50457, Note_off_c, 9, 63, 0
7, 50460, Note_off_c, 9, 40, 0
7, 50460, Note_off_c, 9, 38, 0
7, 50460, Note_off_c, 9, 35, 0
7, 50460, Note_off_c, 9, 36, 0
7, 50460, Note_off_c, 9, 46, 0
7, 50640, Note_on_c, 9, 74, 120
7, 50640, Note_on_c, 9, 76, 120
7, 50640, Note_on_c, 9, 62, 120
7, 50640, Note_on_c, 9, 36, 120
7, 50640, Note_on_c, 9, 35, 120
7, 50640, Note_on_c, 9, 46, 120
7, 50697, Note_off_c, 9, 35, 0
7, 50697, Note_off_c, 9, 36, 0
7, 50697, Note_off_c, 9, 62, 0
7, 50697, Note_off_c, 9, 76, 0
7, 50700, Note_off_c, 9, 46, 0
7, 50868, Note_off_c, 9, 74, 0
7, 50880, Note_on_c, 9, 74, 120
7, 50880, Note_on_c, 9, 75, 120
7, 50880, Note_on_c, 9, 62, 120
7, 50880, Note_on_c, 9, 63, 120
7, 50880, Note_on_c, 9, 36, 120
7, 50880, Note_on_c, 9, 28, 120
7, 50880, Note_on_c, 9, 46, 120
7, 50937, Note_off_c, 9, 28, 0
7, 50937, Note_off_c, 9, 36, 0
7, 50937, Note_off_c, 9, 63, 0
7, 50937, Note_off_c, 9, 62, 0
7, 50940, Note_off_c, 9, 46, 0
7, 51120, Note_on_c, 9, 62, 120
7, 51120, Note_on_c, 9, 46, 120
7, 51120, Note_on_c, 9, 36, 120
7, 51120, Note_on_c, 9, 35, 120
7, 51177, Note_off_c, 9, 62, 0
7, 51180, Note_off_c, 9, 46, 0
7, 51180, Note_off_c, 9, 36, 0
7, 51180, Note_off_c, 9, 35, 0
7, 51336, Note_off_c, 9, 75, 0
7, 51336, Note_off_c, 9, 74, 0
7, 51360, Note_on_c, 9, 76, 120
7, 51360, Note_on_c, 9, 62, 120
7, 51360, Note_on_c, 9, 63, 120
7, 51360, Note_on_c, 9, 28, 120
7, 51360, Note_on_c, 9, 37, 120
7, 51360, Note_on_c, 9, 42, 120
7, 51360, Note_on_c, 9, 36, 120
7, 51360, Note_on_c, 9, 40, 120
7, 51360, Note_on_c, 9, 46, 120
7, 51360, Note_on_c, 9, 35, 120
7, 51360, Note_on_c, 9, 38, 120
7, 51417, Note_off_c, 9, 42, 0
7, 51417, Note_off_c, 9, 37, 0
7, 51417, Note_off_c, 9, 28, 0
7, 51417, Note_off_c, 9, 63, 0
7, 51417, Note_off_c, 9, 62, 0
7, 51417, Note_off_c, 9, 76, 0
7, 51420, Note_off_c, 9, 36, 0
7, 51420, Note_off_c, 9, 40, 0
7, 51420, Note_off_c, 9, 46, 0
7, 51420, Note_off_c, 9, 35, 0
7, 51420, Note_off_c, 9, 38, 0
7, 51600, Note_on_c, 9, 74, 120
7, 51600, Note_on_c, 9, 62, 120
7, 51600, Note_on_c, 9, 36, 120
7, 51600, Note_on_c, 9, 35, 120
7, 51600, Note_on_c, 9, 46, 120
7, 51657, Note_off_c, 9, 35, 0
7, 51657, Note_off_c, 9, 36, 0
7, 51657, Note_off_c, 9, 62, 0
7, 51660, Note_off_c, 9, 46, 0
7, 51828, Note_off_c, 9, 74, 0
7, 51840, Note_on_c, 9, 74, 120
7, 51840, Note_on_c, 9, 75, 120
7, 51840, Note_on_c, 9, 62, 120
7, 51840, Note_on_c, 9, 37, 120
7, 51840, Note_on_c, 9, 35, 120
7, 51840, Note_on_c, 9, 36, 120
7, 51840, Note_on_c, 9, 46, 120
7, 51840, Note_on_c, 9, 28, 120
7, 51897, Note_off_c, 9, 28, 0
7, 51897, Note_off_c, 9, 62, 0
7, 51900, Note_off_c, 9, 37, 0
7, 51900, Note_off_c, 9, 35, 0
7, 51900, Note_off_c, 9, 36, 0
7, 51900, Note_off_c, 9, 46, 0
7, 52080, Note_on_c, 9, 62, 120
7, 52080, Note_on_c, 9, 46, 120
7, 52080, Note_on_c, 9, 35, 120
7, 52080, Note_on_c, 9, 36, 120
7, 52137, Note_off_c, 9, 62, 0
7, 52140, Note_off_c, 9, 46, 0
7, 52140, Note_off_c, 9, 35, 0
7, 52140, Note_off_c, 9, 36, 0
7, 52296, Note_off_c, 9, 75, 0
7, 52296, Note_off_c, 9, 74, 0
7, 52320, Note_on_c, 9, 76, 120
7, 52320, Note_on_c, 9, 62, 120
7, 52320, Note_on_c, 9, 63, 120
7, 52320, Note_on_c, 9, 28, 120
7, 52320, Note_on_c, 9, 37, 120
7, 52320, Note_on_c, 9, 42, 120
7, 52320, Note_on_c, 9, 40, 120
7, 52320, Note_on_c, 9, 38, 120
7, 52320, Note_on_c, 9, 35, 120
7, 52320, Note_on_c, 9, 36, 120
7, 52320, Note_on_c, 9, 46, 120
7, 52377, Note_off_c, 9, 42, 0
7, 52377, Note_off_c, 9, 37, 0
7, 52377, Note_off_c, 9, 28, 0
7, 52377, Note_off_c, 9, 63, 0
7, 52377, Note_off_c, 9, 62, 0
7, 52377, Note_off_c, 9, 76, 0
7, 52380, Note_off_c, 9, 40, 0
7, 52380, Note_off_c, 9, 38, 0
7, 52380, Note_off_c, 9, 35, 0
7, 52380, Note_off_c, 9, 36, 0
7, 52380, Note_off_c, 9, 46, 0
7, 52560, Note_on_c, 9, 74, 120
7, 52560, Note_on_c, 9, 62, 120
7, 52560, Note_on_c, 9, 36, 120
7, 52560, Note_on_c, 9, 35, 120
7, 52560, Note_on_c, 9, 46, 120
7, 52617, Note_off_c, 9, 35, 0
7, 52617, Note_off_c, 9, 36, 0
7, 52617, Note_off_c, 9, 62, 0
7, 52620, Note_off_c, 9, 46, 0
7, 52788, Note_off_c, 9, 74, 0
7, 52800, Note_on_c, 9, 74, 120
7, 52800, Note_on_c, 9, 75, 120
7, 52800, Note_on_c, 9, 62, 120
7, 52800, Note_on_c, 9, 63, 120
7, 52800, Note_on_c, 9, 36, 120
7, 52800, Note_on_c, 9, 28, 120
7, 52800, Note_on_c, 9, 46, 120
7, 52857, Note_off_c, 9, 28, 0
7, 52857, Note_off_c, 9, 36, 0
7, 52857, Note_off_c, 9, 63, 0
7, 52857, Note_off_c, 9, 62, 0
7, 52860, Note_off_c, 9, 46, 0
7, 53040, Note_on_c, 9, 76, 120
7, 53040, Note_on_c, 9, 62, 120
7, 53040, Note_on_c, 9, 46, 120
7, 53040, Note_on_c, 9, 36, 120
7, 53040, Note_on_c, 9, 35, 120
7, 53097, Note_off_c, 9, 62, 0
7, 53097, Note_off_c, 9, 76, 0
7, 53100, Note_off_c, 9, 46, 0
7, 53100, Note_off_c, 9, 36, 0
7, 53100, Note_off_c, 9, 35, 0
7, 53256, Note_off_c, 9, 75, 0
7, 53256, Note_off_c, 9, 74, 0
7, 53280, Note_on_c, 9, 62, 120
7, 53280, Note_on_c, 9, 63, 120
7, 53280, Note_on_c, 9, 28, 120
7, 53280, Note_on_c, 9, 37, 120
7, 53280, Note_on_c, 9, 42, 120
7, 53280, Note_on_c, 9, 36, 120
7, 53280, Note_on_c, 9, 40, 120
7, 53280, Note_on_c, 9, 46, 120
7, 53280, Note_on_c, 9, 35, 120
7, 53280, Note_on_c, 9, 38, 120
7, 53337, Note_off_c, 9, 42, 0
7, 53337, Note_off_c, 9, 37, 0
7, 53337, Note_off_c, 9, 28, 0
7, 53337, Note_off_c, 9, 63, 0
7, 53337, Note_off_c, 9, 62, 0
7, 53340, Note_off_c, 9, 36, 0
7, 53340, Note_off_c, 9, 40, 0
7, 53340, Note_off_c, 9, 46, 0
7, 53340, Note_off_c, 9, 35, 0
7, 53340, Note_off_c, 9, 38, 0
7, 53396, Note_on_c, 9, 62, 120
7, 53453, Note_off_c, 9, 62, 0
7, 53520, Note_on_c, 9, 74, 120
7, 53520, Note_on_c, 9, 61, 120
7, 53520, Note_on_c, 9, 62, 120
7, 53520, Note_on_c, 9, 36, 120
7, 53520, Note_on_c, 9, 35, 120
7, 53520, Note_on_c, 9, 46, 120
7, 53577, Note_off_c, 9, 35, 0
7, 53577, Note_off_c, 9, 36, 0
7, 53577, Note_off_c, 9, 62, 0
7, 53577, Note_off_c, 9, 61, 0
7, 53580, Note_off_c, 9, 46, 0
7, 53643, Note_on_c, 9, 60, 120
7, 53643, Note_on_c, 9, 61, 120
7, 53700, Note_off_c, 9, 61, 0
7, 53700, Note_off_c, 9, 60, 0
7, 53748, Note_off_c, 9, 74, 0
7, 53760, Note_on_c, 9, 62, 120
7, 53760, Note_on_c, 9, 75, 120
7, 53760, Note_on_c, 9, 76, 120
7, 53760, Note_on_c, 9, 74, 120
7, 53760, Note_on_c, 9, 37, 120
7, 53760, Note_on_c, 9, 35, 120
7, 53760, Note_on_c, 9, 36, 120
7, 53760, Note_on_c, 9, 46, 120
7, 53760, Note_on_c, 9, 28, 120
7, 53817, Note_off_c, 9, 28, 0
7, 53817, Note_off_c, 9, 76, 0
7, 53817, Note_off_c, 9, 62, 0
7, 53820, Note_off_c, 9, 37, 0
7, 53820, Note_off_c, 9, 35, 0
7, 53820, Note_off_c, 9, 36, 0
7, 53820, Note_off_c, 9, 46, 0
7, 54000, Note_on_c, 9, 62, 120
7, 54000, Note_on_c, 9, 46, 120
7, 54000, Note_on_c, 9, 35, 120
7, 54000, Note_on_c, 9, 36, 120
7, 54057, Note_off_c, 9, 62, 0
7, 54060, Note_off_c, 9, 46, 0
7, 54060, Note_off_c, 9, 35, 0
7, 54060, Note_off_c, 9, 36, 0
7, 54216, Note_off_c, 9, 75, 0
7, 54216, Note_off_c, 9, 74, 0
7, 54240, Note_on_c, 9, 63, 120
7, 54240, Note_on_c, 9, 28, 120
7, 54240, Note_on_c, 9, 37, 120
7, 54240, Note_on_c, 9, 42, 120
7, 54240, Note_on_c, 9, 40, 120
7, 54240, Note_on_c, 9, 38, 120
7, 54240, Note_on_c, 9, 35, 120
7, 54240, Note_on_c, 9, 36, 120
7, 54240, Note_on_c, 9, 46, 120
7, 54297, Note_off_c, 9, 42, 0
7, 54297, Note_off_c, 9, 37, 0
7, 54297, Note_off_c, 9, 28, 0
7, 54297, Note_off_c, 9, 63, 0
7, 54300, Note_off_c, 9, 40, 0
7, 54300, Note_off_c, 9, 38, 0
7, 54300, Note_off_c, 9, 35, 0
7, 54300, Note_off_c, 9, 36, 0
7, 54300, Note_off_c, 9, 46, 0
7, 54480, Note_on_c, 9, 74, 120
7, 54480, Note_on_c, 9, 76, 120
7, 54480, Note_on_c, 9, 62, 120
7, 54480, Note_on_c, 9, 36, 120
7, 54480, Note_on_c, 9, 35, 120
7, 54480, Note_on_c, 9, 46, 120
7, 54537, Note_off_c, 9, 35, 0
7, 54537, Note_off_c, 9, 36, 0
7, 54537, Note_off_c, 9, 62, 0
7, 54537, Note_off_c, 9, 76, 0
7, 54540, Note_off_c, 9, 46, 0
7, 54708, Note_off_c, 9, 74, 0
7, 54720, Note_on_c, 9, 74, 120
7, 54720, Note_on_c, 9, 75, 120
7, 54720, Note_on_c, 9, 62, 120
7, 54720, Note_on_c, 9, 63, 120
7, 54720, Note_on_c, 9, 36, 120
7, 54720, Note_on_c, 9, 28, 120
7, 54720, Note_on_c, 9, 46, 120
7, 54777, Note_off_c, 9, 28, 0
7, 54777, Note_off_c, 9, 36, 0
7, 54777, Note_off_c, 9, 63, 0
7, 54777, Note_off_c, 9, 62, 0
7, 54780, Note_off_c, 9, 46, 0
7, 54960, Note_on_c, 9, 62, 120
7, 54960, Note_on_c, 9, 46, 120
7, 54960, Note_on_c, 9, 36, 120
7, 54960, Note_on_c, 9, 35, 120
7, 55017, Note_off_c, 9, 62, 0
7, 55020, Note_off_c, 9, 46, 0
7, 55020, Note_off_c, 9, 36, 0
7, 55020, Note_off_c, 9, 35, 0
7, 55176, Note_off_c, 9, 75, 0
7, 55176, Note_off_c, 9, 74, 0
7, 55200, Note_on_c, 9, 76, 120
7, 55200, Note_on_c, 9, 62, 120
7, 55200, Note_on_c, 9, 63, 120
7, 55200, Note_on_c, 9, 28, 120
7, 55200, Note_on_c, 9, 37, 120
7, 55200, Note_on_c, 9, 42, 120
7, 55200, Note_on_c, 9, 36, 120
7, 55200, Note_on_c, 9, 40, 120
7, 55200, Note_on_c, 9, 46, 120
7, 55200, Note_on_c, 9, 35, 120
7, 55200, Note_on_c, 9, 38, 120
7, 55257, Note_off_c, 9, 42, 0
7, 55257, Note_off_c, 9, 37, 0
7, 55257, Note_off_c, 9, 28, 0
7, 55257, Note_off_c, 9, 63, 0
7, 55257, Note_off_c, 9, 62, 0
7, 55257, Note_off_c, 9, 76, 0
7, 55260, Note_off_c, 9, 36, 0
7, 55260, Note_off_c, 9, 40, 0
7, 55260, Note_off_c, 9, 46, 0
7, 55260, Note_off_c, 9, 35, 0
7, 55260, Note_off_c, 9, 38, 0
7, 55440, Note_on_c, 9, 74, 120
7, 55440, Note_on_c, 9, 62, 120
7, 55440, Note_on_c, 9, 36, 120
7, 55440, Note_on_c, 9, 35, 120
7, 55440, Note_on_c, 9, 46, 120
7, 55497, Note_off_c, 9, 35, 0
7, 55497, Note_off_c, 9, 36, 0
7, 55497, Note_off_c, 9, 62, 0
7, 55500, Note_off_c, 9, 46, 0
7, 55668, Note_off_c, 9, 74, 0
7, 55680, Note_on_c, 9, 74, 120
7, 55680, Note_on_c, 9, 75, 120
7, 55680, Note_on_c, 9, 62, 120
7, 55680, Note_on_c, 9, 37, 120
7, 55680, Note_on_c, 9, 35, 120
7, 55680, Note_on_c, 9, 36, 120
7, 55680, Note_on_c, 9, 46, 120
7, 55680, Note_on_c, 9, 28, 120
7, 55737, Note_off_c, 9, 28, 0
7, 55737, Note_off_c, 9, 62, 0
7, 55740, Note_off_c, 9, 37, 0
7, 55740, Note_off_c, 9, 35, 0
7, 55740, Note_off_c, 9, 36, 0
7, 55740, Note_off_c, 9, 46, 0
7, 55920, Note_on_c, 9, 62, 120
7, 55920, Note_on_c, 9, 46, 120
7, 55920, Note_on_c, 9, 35, 120
7, 55920, Note_on_c, 9, 36, 120
7, 55977, Note_off_c, 9, 62, 0
7, 55980, Note_off_c, 9, 46, 0
7, 55980, Note_off_c, 9, 35, 0
7, 55980, Note_off_c, 9, 36, 0
7, 56136, Note_off_c, 9, 75, 0
7, 56136, Note_off_c, 9, 74, 0
7, 56160, Note_on_c, 9, 76, 120
7, 56160, Note_on_c, 9, 62, 120
7, 56160, Note_on_c, 9, 63, 120
7, 56160, Note_on_c, 9, 28, 120
7, 56160, Note_on_c, 9, 37, 120
7, 56160, Note_on_c, 9, 42, 120
7, 56160, Note_on_c, 9, 40, 120
7, 56160, Note_on_c, 9, 38, 120
7, 56160, Note_on_c, 9, 35, 120
7, 56160, Note_on_c, 9, 36, 120
7, 56160, Note_on_c, 9, 46, 120
7, 56217, Note_off_c, 9, 42, 0
7, 56217, Note_off_c, 9, 37, 0
7, 56217, Note_off_c, 9, 28, 0
7, 56217, Note_off_c, 9, 63, 0
7, 56217, Note_off_c, 9, 62, 0
7, 56217, Note_off_c, 9, 76, 0
7, 56220, Note_off_c, 9, 40, 0
7, 56220, Note_off_c, 9, 38, 0
7, 56220, Note_off_c, 9, 35, 0
7, 56220, Note_off_c, 9, 36, 0
7, 56220, Note_off_c, 9, 46, 0
7, 56400, Note_on_c, 9, 74, 120
7, 56400, Note_on_c, 9, 62, 120
7, 56400, Note_on_c, 9, 36, 120
7, 56400, Note_on_c, 9, 35, 120
7, 56400, Note_on_c, 9, 46, 120
7, 56457, Note_off_c, 9, 35, 0
7, 56457, Note_off_c, 9, 36, 0
7, 56457, Note_off_c, 9, 62, 0
7, 56460, Note_off_c, 9, 46, 0
7, 56628, Note_off_c, 9, 74, 0
7, 56640, Note_on_c, 9, 74, 120
7, 56640, Note_on_c, 9, 75, 120
7, 56640, Note_on_c, 9, 62, 120
7, 56640, Note_on_c, 9, 63, 120
7, 56640, Note_on_c, 9, 36, 120
7, 56640, Note_on_c, 9, 28, 120
7, 56640, Note_on_c, 9, 46, 120
7, 56697, Note_off_c, 9, 28, 0
7, 56697, Note_off_c, 9, 36, 0
7, 56697, Note_off_c, 9, 63, 0
7, 56697, Note_off_c, 9, 62, 0
7, 56700, Note_off_c, 9, 46, 0
7, 56880, Note_on_c, 9, 76, 120
7, 56880, Note_on_c, 9, 62, 120
7, 56880, Note_on_c, 9, 46, 120
7, 56880, Note_on_c, 9, 36, 120
7, 56880, Note_on_c, 9, 35, 120
7, 56937, Note_off_c, 9, 62, 0
7, 56937, Note_off_c, 9, 76, 0
7, 56940, Note_off_c, 9, 46, 0
7, 56940, Note_off_c, 9, 36, 0
7, 56940, Note_off_c, 9, 35, 0
7, 57096, Note_off_c, 9, 75, 0
7, 57096, Note_off_c, 9, 74, 0
7, 57120, Note_on_c, 9, 62, 120
7, 57120, Note_on_c, 9, 63, 120
7, 57120, Note_on_c, 9, 28, 120
7, 57120, Note_on_c, 9, 37, 120
7, 57120, Note_on_c, 9, 42, 120
7, 57120, Note_on_c, 9, 36, 120
7, 57120, Note_on_c, 9, 40, 120
7, 57120, Note_on_c, 9, 46, 120
7, 57120, Note_on_c, 9, 35, 120
7, 57120, Note_on_c, 9, 38, 120
7, 57177, Note_off_c, 9, 42, 0
7, 57177, Note_off_c, 9, 37, 0
7, 57177, Note_off_c, 9, 28, 0
7, 57177, Note_off_c, 9, 63, 0
7, 57177, Note_off_c, 9, 62, 0
7, 57180, Note_off_c, 9, 36, 0
7, 57180, Note_off_c, 9, 40, 0
7, 57180, Note_off_c, 9, 46, 0
7, 57180, Note_off_c, 9, 35, 0
7, 57180, Note_off_c, 9, 38, 0
7, 57236, Note_on_c, 9, 62, 120
7, 57293, Note_off_c, 9, 62, 0
7, 57360, Note_on_c, 9, 74, 120
7, 57360, Note_on_c, 9, 61, 120
7, 57360, Note_on_c, 9, 62, 120
7, 57360, Note_on_c, 9, 36, 120
7, 57360, Note_on_c, 9, 35, 120
7, 57360, Note_on_c, 9, 46, 120
7, 57417, Note_off_c, 9, 35, 0
7, 57417, Note_off_c, 9, 36, 0
7, 57417, Note_off_c, 9, 62, 0
7, 57417, Note_off_c, 9, 61, 0
7, 57420, Note_off_c, 9, 46, 0
7, 57483, Note_on_c, 9, 60, 120
7, 57483, Note_on_c, 9, 61, 120
7, 57540, Note_off_c, 9, 61, 0
7, 57540, Note_off_c, 9, 60, 0
7, 57588, Note_off_c, 9, 74, 0
7, 57600, Note_on_c, 9, 74, 120
7, 57600, Note_on_c, 9, 76, 120
7, 57600, Note_on_c, 9, 75, 120
7, 57600, Note_on_c, 9, 62, 120
7, 57600, Note_on_c, 9, 37, 120
7, 57600, Note_on_c, 9, 35, 120
7, 57600, Note_on_c, 9, 36, 120
7, 57600, Note_on_c, 9, 46, 120
7, 57600, Note_on_c, 9, 28, 120
7, 57657, Note_off_c, 9, 28, 0
7, 57657, Note_off_c, 9, 62, 0
7, 57657, Note_off_c, 9, 76, 0
7, 57660, Note_off_c, 9, 37, 0
7, 57660, Note_off_c, 9, 35, 0
7, 57660, Note_off_c, 9, 36, 0
7, 57660, Note_off_c, 9, 46, 0
7, 57840, Note_on_c, 9, 62, 120
7, 57840, Note_on_c, 9, 46, 120
7, 57840, Note_on_c, 9, 35, 120
7, 57840, Note_on_c, 9, 36, 120
7, 57897, Note_off_c, 9, 62, 0
7, 57900, Note_off_c, 9, 46, 0
7, 57900, Note_off_c, 9, 35, 0
7, 57900, Note_off_c, 9, 36, 0
7, 58056, Note_off_c, 9, 74, 0
7, 58056, Note_off_c, 9, 75, 0
7, 58080, Note_on_c, 9, 63, 120
7, 58080, Note_on_c, 9, 28, 120
7, 58080, Note_on_c, 9, 37, 120
7, 58080, Note_on_c, 9, 42, 120
7, 58080, Note_on_c, 9, 40, 120
7, 58080, Note_on_c, 9, 38, 120
7, 58080, Note_on_c, 9, 35, 120
7, 58080, Note_on_c, 9, 36, 120
7, 58080, Note_on_c, 9, 46, 120
7, 58137, Note_off_c, 9, 42, 0
7, 58137, Note_off_c, 9, 37, 0
7, 58137, Note_off_c, 9, 28, 0
7, 58137, Note_off_c, 9, 63, 0
7, 58140, Note_off_c, 9, 40, 0
7, 58140, Note_off_c, 9, 38, 0
7, 58140, Note_off_c, 9, 35, 0
7, 58140, Note_off_c, 9, 36, 0
7, 58140, Note_off_c, 9, 46, 0
7, 58320, Note_on_c, 9, 74, 120
7, 58320, Note_on_c, 9, 76, 120
7, 58320, Note_on_c, 9, 62, 120
7, 58320, Note_on_c, 9, 36, 120
7, 58320, Note_on_c, 9, 35, 120
7, 58320, Note_on_c, 9, 46, 120
7, 58377, Note_off_c, 9, 35, 0
7, 58377, Note_off_c, 9, 36, 0
7, 58377, Note_off_c, 9, 62, 0
7, 58377, Note_off_c, 9, 76, 0
7, 58380, Note_off_c, 9, 46, 0
7, 58548, Note_off_c, 9, 74, 0
7, 58560, Note_on_c, 9, 74, 120
7, 58560, Note_on_c, 9, 75, 120
7, 58560, Note_on_c, 9, 62, 120
7, 58560, Note_on_c, 9, 63, 120
7, 58560, Note_on_c, 9, 36, 120
7, 58560, Note_on_c, 9, 28, 120
7, 58560, Note_on_c, 9, 46, 120
7, 58617, Note_off_c, 9, 28, 0
7, 58617, Note_off_c, 9, 36, 0
7, 58617, Note_off_c, 9, 63, 0
7, 58617, Note_off_c, 9, 62, 0
7, 58620, Note_off_c, 9, 46, 0
7, 58800, Note_on_c, 9, 62, 120
7, 58800, Note_on_c, 9, 46, 120
7, 58800, Note_on_c, 9, 36, 120
7, 58800, Note_on_c, 9, 35, 120
7, 58857, Note_off_c, 9, 62, 0
7, 58860, Note_off_c, 9, 46, 0
7, 58860, Note_off_c, 9, 36, 0
7, 58860, Note_off_c, 9, 35, 0
7, 59016, Note_off_c, 9, 75, 0
7, 59016, Note_off_c, 9, 74, 0
7, 59040, Note_on_c, 9, 76, 120
7, 59040, Note_on_c, 9, 62, 120
7, 59040, Note_on_c, 9, 63, 120
7, 59040, Note_on_c, 9, 28, 120
7, 59040, Note_on_c, 9, 37, 120
7, 59040, Note_on_c, 9, 42, 120
7, 59040, Note_on_c, 9, 36, 120
7, 59040, Note_on_c, 9, 40, 120
7, 59040, Note_on_c, 9, 46, 120
7, 59040, Note_on_c, 9, 35, 120
7, 59040, Note_on_c, 9, 38, 120
7, 59097, Note_off_c, 9, 42, 0
7, 59097, Note_off_c, 9, 37, 0
7, 59097, Note_off_c, 9, 28, 0
7, 59097, Note_off_c, 9, 63, 0
7, 59097, Note_off_c, 9, 62, 0
7, 59097, Note_off_c, 9, 76, 0
7, 59100, Note_off_c, 9, 36, 0
7, 59100, Note_off_c, 9, 40, 0
7, 59100, Note_off_c, 9, 46, 0
7, 59100, Note_off_c, 9, 35, 0
7, 59100, Note_off_c, 9, 38, 0
7, 59280, Note_on_c, 9, 74, 120
7, 59280, Note_on_c, 9, 62, 120
7, 59280, Note_on_c, 9, 36, 120
7, 59280, Note_on_c, 9, 35, 120
7, 59280, Note_on_c, 9, 46, 120
7, 59337, Note_off_c, 9, 35, 0
7, 59337, Note_off_c, 9, 36, 0
7, 59337, Note_off_c, 9, 62, 0
7, 59340, Note_off_c, 9, 46, 0
7, 59508, Note_off_c, 9, 74, 0
7, 59520, Note_on_c, 9, 74, 120
7, 59520, Note_on_c, 9, 75, 120
7, 59520, Note_on_c, 9, 62, 120
7, 59520, Note_on_c, 9, 37, 120
7, 59520, Note_on_c, 9, 35, 120
7, 59520, Note_on_c, 9, 36, 120
7, 59520, Note_on_c, 9, 46, 120
7, 59520, Note_on_c, 9, 28, 120
7, 59577, Note_off_c, 9, 28, 0
7, 59577, Note_off_c, 9, 62, 0
7, 59580, Note_off_c, 9, 37, 0
7, 59580, Note_off_c, 9, 35, 0
7, 59580, Note_off_c, 9, 36, 0
7, 59580, Note_off_c, 9, 46, 0
7, 59760, Note_on_c, 9, 62, 120
7, 59760, Note_on_c, 9, 46, 120
7, 59760, Note_on_c, 9, 35, 120
7, 59760, Note_on_c, 9, 36, 120
7, 59817, Note_off_c, 9, 62, 0
7, 59820, Note_off_c, 9, 46, 0
7, 59820, Note_off_c, 9, 35, 0
7, 59820, Note_off_c, 9, 36, 0
7, 59976, Note_off_c, 9, 75, 0
7, 59976, Note_off_c, 9, 74, 0
7, 60000, Note_on_c, 9, 76, 120
7, 60000, Note_on_c, 9, 62, 120
7, 60000, Note_on_c, 9, 63, 120
7, 60000, Note_on_c, 9, 28, 120
7, 60000, Note_on_c, 9, 37, 120
7, 60000, Note_on_c, 9, 42, 120
7, 60000, Note_on_c, 9, 40, 120
7, 60000, Note_on_c, 9, 38, 120
7, 60000, Note_on_c, 9, 35, 120
7, 60000, Note_on_c, 9, 36, 120
7, 60000, Note_on_c, 9, 46, 120
7, 60057, Note_off_c, 9, 42, 0
7, 60057, Note_off_c, 9, 37, 0
7, 60057, Note_off_c, 9, 28, 0
7, 60057, Note_off_c, 9, 63, 0
7, 60057, Note_off_c, 9, 62, 0
7, 60057, Note_off_c, 9, 76, 0
7, 60060, Note_off_c, 9, 40, 0
7, 60060, Note_off_c, 9, 38, 0
7, 60060, Note_off_c, 9, 35, 0
7, 60060, Note_off_c, 9, 36, 0
7, 60060, Note_off_c, 9, 46, 0
7, 60240, Note_on_c, 9, 74, 120
7, 60240, Note_on_c, 9, 62, 120
7, 60240, Note_on_c, 9, 36, 120
7, 60240, Note_on_c, 9, 35, 120
7, 60240, Note_on_c, 9, 46, 120
7, 60297, Note_off_c, 9, 35, 0
7, 60297, Note_off_c, 9, 36, 0
7, 60297, Note_off_c, 9, 62, 0
7, 60300, Note_off_c, 9, 46, 0
7, 60468, Note_off_c, 9, 74, 0
7, 60480, Note_on_c, 9, 74, 120
7, 60480, Note_on_c, 9, 75, 120
7, 60480, Note_on_c, 9, 62, 120
7, 60480, Note_on_c, 9, 63, 120
7, 60480, Note_on_c, 9, 36, 120
7, 60480, Note_on_c, 9, 28, 120
7, 60480, Note_on_c, 9, 46, 120
7, 60537, Note_off_c, 9, 28, 0
7, 60537, Note_off_c, 9, 36, 0
7, 60537, Note_off_c, 9, 63, 0
7, 60537, Note_off_c, 9, 62, 0
7, 60540, Note_off_c, 9, 46, 0
7, 60720, Note_on_c, 9, 76, 120
7, 60720, Note_on_c, 9, 62, 120
7, 60720, Note_on_c, 9, 46, 120
7, 60720, Note_on_c, 9, 36, 120
7, 60720, Note_on_c, 9, 35, 120
7, 60777, Note_off_c, 9, 62, 0
7, 60777, Note_off_c, 9, 76, 0
7, 60780, Note_off_c, 9, 46, 0
7, 60780, Note_off_c, 9, 36, 0
7, 60780, Note_off_c, 9, 35, 0
7, 60936, Note_off_c, 9, 75, 0
7, 60936, Note_off_c, 9, 74, 0
7, 60960, Note_on_c, 9, 62, 120
7, 60960, Note_on_c, 9, 63, 120
7, 60960, Note_on_c, 9, 28, 120
7, 60960, Note_on_c, 9, 37, 120
7, 60960, Note_on_c, 9, 42, 120
7, 60960, Note_on_c, 9, 36, 120
7, 60960, Note_on_c, 9, 40, 120
7, 60960, Note_on_c, 9, 46, 120
7, 60960, Note_on_c, 9, 35, 120
7, 60960, Note_on_c, 9, 38, 120
7, 61017, Note_off_c, 9, 42, 0
7, 61017, Note_off_c, 9, 37, 0
7, 61017, Note_off_c, 9, 28, 0
7, 61017, Note_off_c, 9, 63, 0
7, 61017, Note_off_c, 9, 62, 0
7, 61020, Note_off_c, 9, 36, 0
7, 61020, Note_off_c, 9, 40, 0
7, 61020, Note_off_c, 9, 46, 0
7, 61020, Note_off_c, 9, 35, 0
7, 61020, Note_off_c, 9, 38, 0
7, 61076, Note_on_c, 9, 62, 120
7, 61133, Note_off_c, 9, 62, 0
7, 61200, Note_on_c, 9, 74, 120
7, 61200, Note_on_c, 9, 61, 120
7, 61200, Note_on_c, 9, 62, 120
7, 61200, Note_on_c, 9, 35, 120
7, 61200, Note_on_c, 9, 46, 120
7, 61200, Note_on_c, 9, 40, 120
7, 61200, Note_on_c, 9, 38, 120
7, 61257, Note_off_c, 9, 35, 0
7, 61257, Note_off_c, 9, 62, 0
7, 61257, Note_off_c, 9, 61, 0
7, 61260, Note_off_c, 9, 46, 0
7, 61260, Note_off_c, 9, 40, 0
7, 61260, Note_off_c, 9, 38, 0
7, 61323, Note_on_c, 9, 60, 120
7, 61323, Note_on_c, 9, 61, 120
7, 61323, Note_on_c, 9, 40, 120
7, 61323, Note_on_c, 9, 38, 120
7, 61323, Note_on_c, 9, 35, 120
7, 61380, Note_off_c, 9, 61, 0
7, 61380, Note_off_c, 9, 60, 0
7, 61383, Note_off_c, 9, 40, 0
7, 61383, Note_off_c, 9, 38, 0
7, 61383, Note_off_c, 9, 35, 0
7, 61428, Note_off_c, 9, 74, 0
7, 61440, Note_on_c, 9, 62, 120
7, 61440, Note_on_c, 9, 37, 120
7, 61440, Note_on_c, 9, 35, 120
7, 61440, Note_on_c, 9, 36, 120
7, 61440, Note_on_c, 9, 46, 120
7, 61440, Note_on_c, 9, 28, 120
7, 61440, Note_on_c, 9, 49, 120
7, 61497, Note_off_c, 9, 28, 0
7, 61497, Note_off_c, 9, 62, 0
7, 61500, Note_off_c, 9, 37, 0
7, 61500, Note_off_c, 9, 35, 0
7, 61500, Note_off_c, 9, 36, 0
7, 61500, Note_off_c, 9, 46, 0
7, 61500, Note_off_c, 9, 49, 0
7, 61680, Note_on_c, 9, 62, 120
7, 61680, Note_on_c, 9, 35, 120
7, 61680, Note_on_c, 9, 36, 120
7, 61680, Note_on_c, 9, 51, 120
7, 61737, Note_off_c, 9, 62, 0
7, 61740, Note_off_c, 9, 35, 0
7, 61740, Note_off_c, 9, 36, 0
7, 61740, Note_off_c, 9, 51, 0
7, 61920, Note_on_c, 9, 63, 120
7, 61920, Note_on_c, 9, 28, 120
7, 61920, Note_on_c, 9, 37, 120
7, 61920, Note_on_c, 9, 42, 120
7, 61920, Note_on_c, 9, 40, 120
7, 61920, Note_on_c, 9, 38, 120
7, 61920, Note_on_c, 9, 35, 120
7, 61920, Note_on_c, 9, 36, 120
7, 61920, Note_on_c, 9, 51, 120
7, 61977, Note_off_c, 9, 42, 0
7, 61977, Note_off_c, 9, 37, 0
7, 61977, Note_off_c, 9, 28, 0
7, 61977, Note_off_c, 9, 63, 0
7, 61980, Note_off_c, 9, 40, 0
7, 61980, Note_off_c, 9, 38, 0
7, 61980, Note_off_c, 9, 35, 0
7, 61980, Note_off_c, 9, 36, 0
7, 61980, Note_off_c, 9, 51, 0
7, 62160, Note_on_c, 9, 62, 120
7, 62160, Note_on_c, 9, 36, 120
7, 62160, Note_on_c, 9, 35, 120
7, 62160, Note_on_c, 9, 51, 120
7, 62217, Note_off_c, 9, 35, 0
7, 62217, Note_off_c, 9, 36, 0
7, 62217, Note_off_c, 9, 62, 0
7, 62220, Note_off_c, 9, 51, 0
7, 62400, Note_on_c, 9, 62, 120
7, 62400, Note_on_c, 9, 63, 120
7, 62400, Note_on_c, 9, 36, 120
7, 62400, Note_on_c, 9, 28, 120
7, 62400, Note_on_c, 9, 51, 120
7, 62457, Note_off_c, 9, 28, 0
7, 62457, Note_off_c, 9, 36, 0
7, 62457, Note_off_c, 9, 63, 0
7, 62457, Note_off_c, 9, 62, 0
7, 62460, Note_off_c, 9, 51, 0
7, 62640, Note_on_c, 9, 62, 120
7, 62640, Note_on_c, 9, 36, 120
7, 62640, Note_on_c, 9, 35, 120
7, 62640, Note_on_c, 9, 51, 120
7, 62697, Note_off_c, 9, 62, 0
7, 62700, Note_off_c, 9, 36, 0
7, 62700, Note_off_c, 9, 35, 0
7, 62700, Note_off_c, 9, 51, 0
7, 62880, Note_on_c, 9, 62, 120
7, 62880, Note_on_c, 9, 63, 120
7, 62880, Note_on_c, 9, 28, 120
7, 62880, Note_on_c, 9, 37, 120
7, 62880, Note_on_c, 9, 42, 120
7, 62880, Note_on_c, 9, 36, 120
7, 62880, Note_on_c, 9, 40, 120
7, 62880, Note_on_c, 9, 35, 120
7, 62880, Note_on_c, 9, 38, 120
7, 62880, Note_on_c, 9, 51, 120
7, 62937, Note_off_c, 9, 42, 0
7, 62937, Note_off_c, 9, 37, 0
7, 62937, Note_off_c, 9, 28, 0
7, 62937, Note_off_c, 9, 63, 0
7, 62937, Note_off_c, 9, 62, 0
7, 62940, Note_off_c, 9, 36, 0
7, 62940, Note_off_c, 9, 40, 0
7, 62940, Note_off_c, 9, 35, 0
7, 62940, Note_off_c, 9, 38, 0
7, 62940, Note_off_c, 9, 51, 0
7, 63120, Note_on_c, 9, 62, 120
7, 63120, Note_on_c, 9, 36, 120
7, 63120, Note_on_c, 9, 35, 120
7, 63120, Note_on_c, 9, 51, 120
7, 63177, Note_off_c, 9, 35, 0
7, 63177, Note_off_c, 9, 36, 0
7, 63177, Note_off_c, 9, 62, 0
7, 63180, Note_off_c, 9, 51, 0
7, 63360, Note_on_c, 9, 62, 120
7, 63360, Note_on_c, 9, 37, 120
7, 63360, Note_on_c, 9, 35, 120
7, 63360, Note_on_c, 9, 36, 120
7, 63360, Note_on_c, 9, 28, 120
7, 63360, Note_on_c, 9, 51, 120
7, 63417, Note_off_c, 9, 28, 0
7, 63417, Note_off_c, 9, 62, 0
7, 63420, Note_off_c, 9, 37, 0
7, 63420, Note_off_c, 9, 35, 0
7, 63420, Note_off_c, 9, 36, 0
7, 63420, Note_off_c, 9, 51, 0
7, 63600, Note_on_c, 9, 62, 120
7, 63600, Note_on_c, 9, 35, 120
7, 63600, Note_on_c, 9, 36, 120
7, 63600, Note_on_c, 9, 51, 120
7, 63657, Note_off_c, 9, 62, 0
7, 63660, Note_off_c, 9, 35, 0
7, 63660, Note_off_c, 9, 36, 0
7, 63660, Note_off_c, 9, 51, 0
7, 63840, Note_on_c, 9, 62, 120
7, 63840, Note_on_c, 9, 63, 120
7, 63840, Note_on_c, 9, 28, 120
7, 63840, Note_on_c, 9, 37, 120
7, 63840, Note_on_c, 9, 42, 120
7, 63840, Note_on_c, 9, 40, 120
7, 63840, Note_on_c, 9, 38, 120
7, 63840, Note_on_c, 9, 35, 120
7, 63840, Note_on_c, 9, 36, 120
7, 63840, Note_on_c, 9, 51, 120
7, 63897, Note_off_c, 9, 42, 0
7, 63897, Note_off_c, 9, 37, 0
7, 63897, Note_off_c, 9, 28, 0
7, 63897, Note_off_c, 9, 63, 0
7, 63897, Note_off_c, 9, 62, 0
7, 63900, Note_off_c, 9, 40, 0
7, 63900, Note_off_c, 9, 38, 0
7, 63900, Note_off_c, 9, 35, 0
7, 63900, Note_off_c, 9, 36, 0
7, 63900, Note_off_c, 9, 51, 0
7, 64080, Note_on_c, 9, 62, 120
7, 64080, Note_on_c, 9, 36, 120
7, 64080, Note_on_c, 9, 35, 120
7, 64080, Note_on_c, 9, 51, 120
7, 64137, Note_off_c, 9, 35, 0
7, 64137, Note_off_c, 9, 36, 0
7, 64137, Note_off_c, 9, 62, 0
7, 64140, Note_off_c, 9, 51, 0
7, 64320, Note_on_c, 9, 62, 120
7, 64320, Note_on_c, 9, 63, 120
7, 64320, Note_on_c, 9, 36, 120
7, 64320, Note_on_c, 9, 28, 120
7, 64320, Note_on_c, 9, 51, 120
7, 64377, Note_off_c, 9, 28, 0
7, 64377, Note_off_c, 9, 36, 0
7, 64377, Note_off_c, 9, 63, 0
7, 64377, Note_off_c, 9, 62, 0
7, 64380, Note_off_c, 9, 51, 0
7, 64560, Note_on_c, 9, 62, 120
7, 64560, Note_on_c, 9, 36, 120
7, 64560, Note_on_c, 9, 35, 120
7, 64560, Note_on_c, 9, 51, 120
7, 64617, Note_off_c, 9, 62, 0
7, 64620, Note_off_c, 9, 36, 0
7, 64620, Note_off_c, 9, 35, 0
7, 64620, Note_off_c, 9, 51, 0
7, 64800, Note_on_c, 9, 62, 120
7, 64800, Note_on_c, 9, 63, 120
7, 64800, Note_on_c, 9, 28, 120
7, 64800, Note_on_c, 9, 37, 120
7, 64800, Note_on_c, 9, 42, 120
7, 64800, Note_on_c, 9, 36, 120
7, 64800, Note_on_c, 9, 40, 120
7, 64800, Note_on_c, 9, 35, 120
7, 64800, Note_on_c, 9, 38, 120
7, 64800, Note_on_c, 9, 51, 120
7, 64857, Note_off_c, 9, 42, 0
7, 64857, Note_off_c, 9, 37, 0
7, 64857, Note_off_c, 9, 28, 0
7, 64857, Note_off_c, 9, 63, 0
7, 64857, Note_off_c, 9, 62, 0
7, 64860, Note_off_c, 9, 36, 0
7, 64860, Note_off_c, 9, 40, 0
7, 64860, Note_off_c, 9, 35, 0
7, 64860, Note_off_c, 9, 38, 0
7, 64860, Note_off_c, 9, 51, 0
7, 64916, Note_on_c, 9, 62, 120
7, 64973, Note_off_c, 9, 62, 0
7, 65040, Note_on_c, 9, 61, 120
7, 65040, Note_on_c, 9, 62, 120
7, 65040, Note_on_c, 9, 36, 120
7, 65040, Note_on_c, 9, 35, 120
7, 65040, Note_on_c, 9, 51, 120
7, 65097, Note_off_c, 9, 35, 0
7, 65097, Note_off_c, 9, 36, 0
7, 65097, Note_off_c, 9, 62, 0
7, 65097, Note_off_c, 9, 61, 0
7, 65100, Note_off_c, 9, 51, 0
7, 65163, Note_on_c, 9, 60, 120
7, 65163, Note_on_c, 9, 61, 120
7, 65220, Note_off_c, 9, 61, 0
7, 65220, Note_off_c, 9, 60, 0
7, 65280, Note_on_c, 9, 62, 120
7, 65280, Note_on_c, 9, 37, 120
7, 65280, Note_on_c, 9, 35, 120
7, 65280, Note_on_c, 9, 36, 120
7, 65280, Note_on_c, 9, 28, 120
7, 65280, Note_on_c, 9, 51, 120
7, 65337, Note_off_c, 9, 28, 0
7, 65337, Note_off_c, 9, 62, 0
7, 65340, Note_off_c, 9, 37, 0
7, 65340, Note_off_c, 9, 35, 0
7, 65340, Note_off_c, 9, 36, 0
7, 65340, Note_off_c, 9, 51, 0
7, 65520, Note_on_c, 9, 62, 120
7, 65520, Note_on_c, 9, 35, 120
7, 65520, Note_on_c, 9, 36, 120
7, 65520, Note_on_c, 9, 51, 120
7, 65577, Note_off_c, 9, 62, 0
7, 65580, Note_off_c, 9, 35, 0
7, 65580, Note_off_c, 9, 36, 0
7, 65580, Note_off_c, 9, 51, 0
7, 65760, Note_on_c, 9, 63, 120
7, 65760, Note_on_c, 9, 28, 120
7, 65760, Note_on_c, 9, 37, 120
7, 65760, Note_on_c, 9, 42, 120
7, 65760, Note_on_c, 9, 40, 120
7, 65760, Note_on_c, 9, 38, 120
7, 65760, Note_on_c, 9, 35, 120
7, 65760, Note_on_c, 9, 36, 120
7, 65760, Note_on_c, 9, 51, 120
7, 65817, Note_off_c, 9, 42, 0
7, 65817, Note_off_c, 9, 37, 0
7, 65817, Note_off_c, 9, 28, 0
7, 65817, Note_off_c, 9, 63, 0
7, 65820, Note_off_c, 9, 40, 0
7, 65820, Note_off_c, 9, 38, 0
7, 65820, Note_off_c, 9, 35, 0
7, 65820, Note_off_c, 9, 36, 0
7, 65820, Note_off_c, 9, 51, 0
7, 66000, Note_on_c, 9, 62, 120
7, 66000, Note_on_c, 9, 36, 120
7, 66000, Note_on_c, 9, 35, 120
7, 66000, Note_on_c, 9, 51, 120
7, 66057, Note_off_c, 9, 35, 0
7, 66057, Note_off_c, 9, 36, 0
7, 66057, Note_off_c, 9, 62, 0
7, 66060, Note_off_c, 9, 51, 0
7, 66240, Note_on_c, 9, 62, 120
7, 66240, Note_on_c, 9, 63, 120
7, 66240, Note_on_c, 9, 36, 120
7, 66240, Note_on_c, 9, 28, 120
7, 66240, Note_on_c, 9, 51, 120
7, 66297, Note_off_c, 9, 28, 0
7, 66297, Note_off_c, 9, 36, 0
7, 66297, Note_off_c, 9, 63, 0
7, 66297, Note_off_c, 9, 62, 0
7, 66300, Note_off_c, 9, 51, 0
7, 66480, Note_on_c, 9, 62, 120
7, 66480, Note_on_c, 9, 36, 120
7, 66480, Note_on_c, 9, 35, 120
7, 66480, Note_on_c, 9, 51, 120
7, 66537, Note_off_c, 9, 62, 0
7, 66540, Note_off_c, 9, 36, 0
7, 66540, Note_off_c, 9, 35, 0
7, 66540, Note_off_c, 9, 51, 0
7, 66720, Note_on_c, 9, 62, 120
7, 66720, Note_on_c, 9, 63, 120
7, 66720, Note_on_c, 9, 28, 120
7, 66720, Note_on_c, 9, 37, 120
7, 66720, Note_on_c, 9, 42, 120
7, 66720, Note_on_c, 9, 36, 120
7, 66720, Note_on_c, 9, 40, 120
7, 66720, Note_on_c, 9, 35, 120
7, 66720, Note_on_c, 9, 38, 120
7, 66720, Note_on_c, 9, 51, 120
7, 66777, Note_off_c, 9, 42, 0
7, 66777, Note_off_c, 9, 37, 0
7, 66777, Note_off_c, 9, 28, 0
7, 66777, Note_off_c, 9, 63, 0
7, 66777, Note_off_c, 9, 62, 0
7, 66780, Note_off_c, 9, 36, 0
7, 66780, Note_off_c, 9, 40, 0
7, 66780, Note_off_c, 9, 35, 0
7, 66780, Note_off_c, 9, 38, 0
7, 66780, Note_off_c, 9, 51, 0
7, 66960, Note_on_c, 9, 62, 120
7, 66960, Note_on_c, 9, 36, 120
7, 66960, Note_on_c, 9, 35, 120
7, 66960, Note_on_c, 9, 51, 120
7, 67017, Note_off_c, 9, 35, 0
7, 67017, Note_off_c, 9, 36, 0
7, 67017, Note_off_c, 9, 62, 0
7, 67020, Note_off_c, 9, 51, 0
7, 67200, Note_on_c, 9, 62, 120
7, 67200, Note_on_c, 9, 37, 120
7, 67200, Note_on_c, 9, 35, 120
7, 67200, Note_on_c, 9, 36, 120
7, 67200, Note_on_c, 9, 28, 120
7, 67200, Note_on_c, 9, 51, 120
7, 67257, Note_off_c, 9, 28, 0
7, 67257, Note_off_c, 9, 62, 0
7, 67260, Note_off_c, 9, 37, 0
7, 67260, Note_off_c, 9, 35, 0
7, 67260, Note_off_c, 9, 36, 0
7, 67260, Note_off_c, 9, 51, 0
7, 67440, Note_on_c, 9, 62, 120
7, 67440, Note_on_c, 9, 35, 120
7, 67440, Note_on_c, 9, 36, 120
7, 67440, Note_on_c, 9, 51, 120
7, 67497, Note_off_c, 9, 62, 0
7, 67500, Note_off_c, 9, 35, 0
7, 67500, Note_off_c, 9, 36, 0
7, 67500, Note_off_c, 9, 51, 0
7, 67680, Note_on_c, 9, 62, 120
7, 67680, Note_on_c, 9, 63, 120
7, 67680, Note_on_c, 9, 28, 120
7, 67680, Note_on_c, 9, 37, 120
7, 67680, Note_on_c, 9, 42, 120
7, 67680, Note_on_c, 9, 40, 120
7, 67680, Note_on_c, 9, 38, 120
7, 67680, Note_on_c, 9, 35, 120
7, 67680, Note_on_c, 9, 36, 120
7, 67680, Note_on_c, 9, 51, 120
7, 67737, Note_off_c, 9, 42, 0
7, 67737, Note_off_c, 9, 37, 0
7, 67737, Note_off_c, 9, 28, 0
7, 67737, Note_off_c, 9, 63, 0
7, 67737, Note_off_c, 9, 62, 0
7, 67740, Note_off_c, 9, 40, 0
7, 67740, Note_off_c, 9, 38, 0
7, 67740, Note_off_c, 9, 35, 0
7, 67740, Note_off_c, 9, 36, 0
7, 67740, Note_off_c, 9, 51, 0
7, 67920, Note_on_c, 9, 62, 120
7, 67920, Note_on_c, 9, 36, 120
7, 67920, Note_on_c, 9, 35, 120
7, 67920, Note_on_c, 9, 51, 120
7, 67977, Note_off_c, 9, 35, 0
7, 67977, Note_off_c, 9, 36, 0
7, 67977, Note_off_c, 9, 62, 0
7, 67980, Note_off_c, 9, 51, 0
7, 68160, Note_on_c, 9, 62, 120
7, 68160, Note_on_c, 9, 63, 120
7, 68160, Note_on_c, 9, 36, 120
7, 68160, Note_on_c, 9, 28, 120
7, 68160, Note_on_c, 9, 51, 120
7, 68217, Note_off_c, 9, 28, 0
7, 68217, Note_off_c, 9, 36, 0
7, 68217, Note_off_c, 9, 63, 0
7, 68217, Note_off_c, 9, 62, 0
7, 68220, Note_off_c, 9, 51, 0
7, 68400, Note_on_c, 9, 62, 120
7, 68400, Note_on_c, 9, 36, 120
7, 68400, Note_on_c, 9, 35, 120
7, 68400, Note_on_c, 9, 51, 120
7, 68457, Note_off_c, 9, 62, 0
7, 68460, Note_off_c, 9, 36, 0
7, 68460, Note_off_c, 9, 35, 0
7, 68460, Note_off_c, 9, 51, 0
7, 68640, Note_on_c, 9, 62, 120
7, 68640, Note_on_c, 9, 63, 120
7, 68640, Note_on_c, 9, 28, 120
7, 68640, Note_on_c, 9, 37, 120
7, 68640, Note_on_c, 9, 42, 120
7, 68640, Note_on_c, 9, 36, 120
7, 68640, Note_on_c, 9, 40, 120
7, 68640, Note_on_c, 9, 35, 120
7, 68640, Note_on_c, 9, 38, 120
7, 68640, Note_on_c, 9, 51, 120
7, 68697, Note_off_c, 9, 42, 0
7, 68697, Note_off_c, 9, 37, 0
7, 68697, Note_off_c, 9, 28, 0
7, 68697, Note_off_c, 9, 63, 0
7, 68697, Note_off_c, 9, 62, 0
7, 68700, Note_off_c, 9, 36, 0
7, 68700, Note_off_c, 9, 40, 0
7, 68700, Note_off_c, 9, 35, 0
7, 68700, Note_off_c, 9, 38, 0
7, 68700, Note_off_c, 9, 51, 0
7, 68756, Note_on_c, 9, 62, 120
7, 68813, Note_off_c, 9, 62, 0
7, 68880, Note_on_c, 9, 61, 120
7, 68880, Note_on_c, 9, 62, 120
7, 68880, Note_on_c, 9, 36, 120
7, 68880, Note_on_c, 9, 35, 120
7, 68880, Note_on_c, 9, 51, 120
7, 68937, Note_off_c, 9, 35, 0
7, 68937, Note_off_c, 9, 36, 0
7, 68937, Note_off_c, 9, 62, 0
7, 68937, Note_off_c, 9, 61, 0
7, 68940, Note_off_c, 9, 51, 0
7, 69003, Note_on_c, 9, 60, 120
7, 69003, Note_on_c, 9, 61, 120
7, 69060, Note_off_c, 9, 61, 0
7, 69060, Note_off_c, 9, 60, 0
7, 69120, Note_on_c, 9, 62, 120
7, 69120, Note_on_c, 9, 37, 120
7, 69120, Note_on_c, 9, 35, 120
7, 69120, Note_on_c, 9, 36, 120
7, 69120, Note_on_c, 9, 28, 120
7, 69120, Note_on_c, 9, 51, 120
7, 69177, Note_off_c, 9, 28, 0
7, 69177, Note_off_c, 9, 62, 0
7, 69180, Note_off_c, 9, 37, 0
7, 69180, Note_off_c, 9, 35, 0
7, 69180, Note_off_c, 9, 36, 0
7, 69180, Note_off_c, 9, 51, 0
7, 69360, Note_on_c, 9, 62, 120
7, 69360, Note_on_c, 9, 35, 120
7, 69360, Note_on_c, 9, 36, 120
7, 69360, Note_on_c, 9, 51, 120
7, 69417, Note_off_c, 9, 62, 0
7, 69420, Note_off_c, 9, 35, 0
7, 69420, Note_off_c, 9, 36, 0
7, 69420, Note_off_c, 9, 51, 0
7, 69600, Note_on_c, 9, 63, 120
7, 69600, Note_on_c, 9, 28, 120
7, 69600, Note_on_c, 9, 37, 120
7, 69600, Note_on_c, 9, 42, 120
7, 69600, Note_on_c, 9, 40, 120
7, 69600, Note_on_c, 9, 38, 120
7, 69600, Note_on_c, 9, 35, 120
7, 69600, Note_on_c, 9, 36, 120
7, 69600, Note_on_c, 9, 51, 120
7, 69657, Note_off_c, 9, 42, 0
7, 69657, Note_off_c, 9, 37, 0
7, 69657, Note_off_c, 9, 28, 0
7, 69657, Note_off_c, 9, 63, 0
7, 69660, Note_off_c, 9, 40, 0
7, 69660, Note_off_c, 9, 38, 0
7, 69660, Note_off_c, 9, 35, 0
7, 69660, Note_off_c, 9, 36, 0
7, 69660, Note_off_c, 9, 51, 0
7, 69840, Note_on_c, 9, 62, 120
7, 69840, Note_on_c, 9, 36, 120
7, 69840, Note_on_c, 9, 35, 120
7, 69840, Note_on_c, 9, 51, 120
7, 69897, Note_off_c, 9, 35, 0
7, 69897, Note_off_c, 9, 36, 0
7, 69897, Note_off_c, 9, 62, 0
7, 69900, Note_off_c, 9, 51, 0
7, 70080, Note_on_c, 9, 62, 120
7, 70080, Note_on_c, 9, 63, 120
7, 70080, Note_on_c, 9, 36, 120
7, 70080, Note_on_c, 9, 28, 120
7, 70080, Note_on_c, 9, 51, 120
7, 70137, Note_off_c, 9, 28, 0
7, 70137, Note_off_c, 9, 36, 0
7, 70137, Note_off_c, 9, 63, 0
7, 70137, Note_off_c, 9, 62, 0
7, 70140, Note_off_c, 9, 51, 0
7, 70320, Note_on_c, 9, 62, 120
7, 70320, Note_on_c, 9, 36, 120
7, 70320, Note_on_c, 9, 35, 120
7, 70320, Note_on_c, 9, 51, 120
7, 70377, Note_off_c, 9, 62, 0
7, 70380, Note_off_c, 9, 36, 0
7, 70380, Note_off_c, 9, 35, 0
7, 70380, Note_off_c, 9, 51, 0
7, 70560, Note_on_c, 9, 62, 120
7, 70560, Note_on_c, 9, 63, 120
7, 70560, Note_on_c, 9, 28, 120
7, 70560, Note_on_c, 9, 37, 120
7, 70560, Note_on_c, 9, 42, 120
7, 70560, Note_on_c, 9, 36, 120
7, 70560, Note_on_c, 9, 40, 120
7, 70560, Note_on_c, 9, 35, 120
7, 70560, Note_on_c, 9, 38, 120
7, 70560, Note_on_c, 9, 51, 120
7, 70617, Note_off_c, 9, 42, 0
7, 70617, Note_off_c, 9, 37, 0
7, 70617, Note_off_c, 9, 28, 0
7, 70617, Note_off_c, 9, 63, 0
7, 70617, Note_off_c, 9, 62, 0
7, 70620, Note_off_c, 9, 36, 0
7, 70620, Note_off_c, 9, 40, 0
7, 70620, Note_off_c, 9, 35, 0
7, 70620, Note_off_c, 9, 38, 0
7, 70620, Note_off_c, 9, 51, 0
7, 70800, Note_on_c, 9, 62, 120
7, 70800, Note_on_c, 9, 36, 120
7, 70800, Note_on_c, 9, 35, 120
7, 70800, Note_on_c, 9, 51, 120
7, 70857, Note_off_c, 9, 35, 0
7, 70857, Note_off_c, 9, 36, 0
7, 70857, Note_off_c, 9, 62, 0
7, 70860, Note_off_c, 9, 51, 0
7, 71040, Note_on_c, 9, 62, 120
7, 71040, Note_on_c, 9, 37, 120
7, 71040, Note_on_c, 9, 35, 120
7, 71040, Note_on_c, 9, 36, 120
7, 71040, Note_on_c, 9, 28, 120
7, 71040, Note_on_c, 9, 51, 120
7, 71097, Note_off_c, 9, 28, 0
7, 71097, Note_off_c, 9, 62, 0
7, 71100, Note_off_c, 9, 37, 0
7, 71100, Note_off_c, 9, 35, 0
7, 71100, Note_off_c, 9, 36, 0
7, 71100, Note_off_c, 9, 51, 0
7, 71280, Note_on_c, 9, 62, 120
7, 71280, Note_on_c, 9, 35, 120
7, 71280, Note_on_c, 9, 36, 120
7, 71280, Note_on_c, 9, 51, 120
7, 71337, Note_off_c, 9, 62, 0
7, 71340, Note_off_c, 9, 35, 0
7, 71340, Note_off_c, 9, 36, 0
7, 71340, Note_off_c, 9, 51, 0
7, 71520, Note_on_c, 9, 62, 120
7, 71520, Note_on_c, 9, 63, 120
7, 71520, Note_on_c, 9, 28, 120
7, 71520, Note_on_c, 9, 37, 120
7, 71520, Note_on_c, 9, 42, 120
7, 71520, Note_on_c, 9, 40, 120
7, 71520, Note_on_c, 9, 38, 120
7, 71520, Note_on_c, 9, 35, 120
7, 71520, Note_on_c, 9, 36, 120
7, 71520, Note_on_c, 9, 51, 120
7, 71577, Note_off_c, 9, 42, 0
7, 71577, Note_off_c, 9, 37, 0
7, 71577, Note_off_c, 9, 28, 0
7, 71577, Note_off_c, 9, 63, 0
7, 71577, Note_off_c, 9, 62, 0
7, 71580, Note_off_c, 9, 40, 0
7, 71580, Note_off_c, 9, 38, 0
7, 71580, Note_off_c, 9, 35, 0
7, 71580, Note_off_c, 9, 36, 0
7, 71580, Note_off_c, 9, 51, 0
7, 71760, Note_on_c, 9, 62, 120
7, 71760, Note_on_c, 9, 36, 120
7, 71760, Note_on_c, 9, 35, 120
7, 71760, Note_on_c, 9, 51, 120
7, 71817, Note_off_c, 9, 35, 0
7, 71817, Note_off_c, 9, 36, 0
7, 71817, Note_off_c, 9, 62, 0
7, 71820, Note_off_c, 9, 51, 0
7, 72000, Note_on_c, 9, 62, 120
7, 72000, Note_on_c, 9, 63, 120
7, 72000, Note_on_c, 9, 36, 120
7, 72000, Note_on_c, 9, 28, 120
7, 72000, Note_on_c, 9, 51, 120
7, 72057, Note_off_c, 9, 28, 0
7, 72057, Note_off_c, 9, 36, 0
7, 72057, Note_off_c, 9, 63, 0
7, 72057, Note_off_c, 9, 62, 0
7, 72060, Note_off_c, 9, 51, 0
7, 72240, Note_on_c, 9, 62, 120
7, 72240, Note_on_c, 9, 36, 120
7, 72240, Note_on_c, 9, 35, 120
7, 72240, Note_on_c, 9, 51, 120
7, 72297, Note_off_c, 9, 62, 0
7, 72300, Note_off_c, 9, 36, 0
7, 72300, Note_off_c, 9, 35, 0
7, 72300, Note_off_c, 9, 51, 0
7, 72480, Note_on_c, 9, 62, 120
7, 72480, Note_on_c, 9, 63, 120
7, 72480, Note_on_c, 9, 28, 120
7, 72480, Note_on_c, 9, 37, 120
7, 72480, Note_on_c, 9, 42, 120
7, 72480, Note_on_c, 9, 36, 120
7, 72480, Note_on_c, 9, 40, 120
7, 72480, Note_on_c, 9, 35, 120
7, 72480, Note_on_c, 9, 38, 120
7, 72480, Note_on_c, 9, 51, 120
7, 72537, Note_off_c, 9, 42, 0
7, 72537, Note_off_c, 9, 37, 0
7, 72537, Note_off_c, 9, 28, 0
7, 72537, Note_off_c, 9, 63, 0
7, 72537, Note_off_c, 9, 62, 0
7, 72540, Note_off_c, 9, 36, 0
7, 72540, Note_off_c, 9, 40, 0
7, 72540, Note_off_c, 9, 35, 0
7, 72540, Note_off_c, 9, 38, 0
7, 72540, Note_off_c, 9, 51, 0
7, 72596, Note_on_c, 9, 62, 120
7, 72653, Note_off_c, 9, 62, 0
7, 72720, Note_on_c, 9, 61, 120
7, 72720, Note_on_c, 9, 62, 120
7, 72720, Note_on_c, 9, 36, 120
7, 72720, Note_on_c, 9, 35, 120
7, 72720, Note_on_c, 9, 51, 120
7, 72777, Note_off_c, 9, 35, 0
7, 72777, Note_off_c, 9, 36, 0
7, 72777, Note_off_c, 9, 62, 0
7, 72777, Note_off_c, 9, 61, 0
7, 72780, Note_off_c, 9, 51, 0
7, 72843, Note_on_c, 9, 60, 120
7, 72843, Note_on_c, 9, 61, 120
7, 72900, Note_off_c, 9, 61, 0
7, 72900, Note_off_c, 9, 60, 0
7, 72960, Note_on_c, 9, 62, 120
7, 72960, Note_on_c, 9, 37, 120
7, 72960, Note_on_c, 9, 35, 120
7, 72960, Note_on_c, 9, 36, 120
7, 72960, Note_on_c, 9, 28, 120
7, 72960, Note_on_c, 9, 51, 120
7, 73017, Note_off_c, 9, 28, 0
7, 73017, Note_off_c, 9, 62, 0
7, 73020, Note_off_c, 9, 37, 0
7, 73020, Note_off_c, 9, 35, 0
7, 73020, Note_off_c, 9, 36, 0
7, 73020, Note_off_c, 9, 51, 0
7, 73200, Note_on_c, 9, 62, 120
7, 73200, Note_on_c, 9, 35, 120
7, 73200, Note_on_c, 9, 36, 120
7, 73200, Note_on_c, 9, 51, 120
7, 73257, Note_off_c, 9, 62, 0
7, 73260, Note_off_c, 9, 35, 0
7, 73260, Note_off_c, 9, 36, 0
7, 73260, Note_off_c, 9, 51, 0
7, 73440, Note_on_c, 9, 63, 120
7, 73440, Note_on_c, 9, 28, 120
7, 73440, Note_on_c, 9, 37, 120
7, 73440, Note_on_c, 9, 42, 120
7, 73440, Note_on_c, 9, 40, 120
7, 73440, Note_on_c, 9, 38, 120
7, 73440, Note_on_c, 9, 35, 120
7, 73440, Note_on_c, 9, 36, 120
7, 73440, Note_on_c, 9, 51, 120
7, 73497, Note_off_c, 9, 42, 0
7, 73497, Note_off_c, 9, 37, 0
7, 73497, Note_off_c, 9, 28, 0
7, 73497, Note_off_c, 9, 63, 0
7, 73500, Note_off_c, 9, 40, 0
7, 73500, Note_off_c, 9, 38, 0
7, 73500, Note_off_c, 9, 35, 0
7, 73500, Note_off_c, 9, 36, 0
7, 73500, Note_off_c, 9, 51, 0
7, 73680, Note_on_c, 9, 62, 120
7, 73680, Note_on_c, 9, 36, 120
7, 73680, Note_on_c, 9, 35, 120
7, 73680, Note_on_c, 9, 51, 120
7, 73737, Note_off_c, 9, 35, 0
7, 73737, Note_off_c, 9, 36, 0
7, 73737, Note_off_c, 9, 62, 0
7, 73740, Note_off_c, 9, 51, 0
7, 73920, Note_on_c, 9, 51, 120
7, 73920, Note_on_c, 9, 28, 120
7, 73920, Note_on_c, 9, 36, 120
7, 73920, Note_on_c, 9, 35, 120
7, 73920, Note_on_c, 9, 37, 120
7, 73920, Note_on_c, 9, 62, 120
7, 73977, Note_off_c, 9, 62, 0
7, 73977, Note_off_c, 9, 28, 0
7, 73980, Note_off_c, 9, 51, 0
7, 73980, Note_off_c, 9, 36, 0
7, 73980, Note_off_c, 9, 35, 0
7, 73980, Note_off_c, 9, 37, 0
7, 74160, Note_on_c, 9, 62, 120
7, 74160, Note_on_c, 9, 35, 120
7, 74160, Note_on_c, 9, 36, 120
7, 74160, Note_on_c, 9, 51, 120
7, 74217, Note_off_c, 9, 62, 0
7, 74220, Note_off_c, 9, 35, 0
7, 74220, Note_off_c, 9, 36, 0
7, 74220, Note_off_c, 9, 51, 0
7, 74400, Note_on_c, 9, 63, 120
7, 74400, Note_on_c, 9, 28, 120
7, 74400, Note_on_c, 9, 37, 120
7, 74400, Note_on_c, 9, 42, 120
7, 74400, Note_on_c, 9, 40, 120
7, 74400, Note_on_c, 9, 38, 120
7, 74400, Note_on_c, 9, 35, 120
7, 74400, Note_on_c, 9, 36, 120
7, 74400, Note_on_c, 9, 51, 120
7, 74457, Note_off_c, 9, 42, 0
7, 74457, Note_off_c, 9, 37, 0
7, 74457, Note_off_c, 9, 28, 0
7, 74457, Note_off_c, 9, 63, 0
7, 74460, Note_off_c, 9, 40, 0
7, 74460, Note_off_c, 9, 38, 0
7, 74460, Note_off_c, 9, 35, 0
7, 74460, Note_off_c, 9, 36, 0
7, 74460, Note_off_c, 9, 51, 0
7, 74640, Note_on_c, 9, 62, 120
7, 74640, Note_on_c, 9, 36, 120
7, 74640, Note_on_c, 9, 35, 120
7, 74640, Note_on_c, 9, 51, 120
7, 74697, Note_off_c, 9, 35, 0
7, 74697, Note_off_c, 9, 36, 0
7, 74697, Note_off_c, 9, 62, 0
7, 74700, Note_off_c, 9, 51, 0
7, 74880, Note_on_c, 9, 51, 120
7, 74880, Note_on_c, 9, 28, 120
7, 74880, Note_on_c, 9, 36, 120
7, 74880, Note_on_c, 9, 35, 120
7, 74880, Note_on_c, 9, 37, 120
7, 74880, Note_on_c, 9, 62, 120
7, 74937, Note_off_c, 9, 62, 0
7, 74937, Note_off_c, 9, 28, 0
7, 74940, Note_off_c, 9, 51, 0
7, 74940, Note_off_c, 9, 36, 0
7, 74940, Note_off_c, 9, 35, 0
7, 74940, Note_off_c, 9, 37, 0
7, 75120, Note_on_c, 9, 62, 120
7, 75120, Note_on_c, 9, 35, 120
7, 75120, Note_on_c, 9, 36, 120
7, 75120, Note_on_c, 9, 51, 120
7, 75177, Note_off_c, 9, 62, 0
7, 75180, Note_off_c, 9, 35, 0
7, 75180, Note_off_c, 9, 36, 0
7, 75180, Note_off_c, 9, 51, 0
7, 75360, Note_on_c, 9, 62, 120
7, 75360, Note_on_c, 9, 37, 120
7, 75360, Note_on_c, 9, 35, 120
7, 75360, Note_on_c, 9, 36, 120
7, 75360, Note_on_c, 9, 28, 120
7, 75360, Note_on_c, 9, 51, 120
7, 75417, Note_off_c, 9, 28, 0
7, 75417, Note_off_c, 9, 62, 0
7, 75420, Note_off_c, 9, 37, 0
7, 75420, Note_off_c, 9, 35, 0
7, 75420, Note_off_c, 9, 36, 0
7, 75420, Note_off_c, 9, 51, 0
7, 75600, Note_on_c, 9, 62, 120
7, 75600, Note_on_c, 9, 35, 120
7, 75600, Note_on_c, 9, 36, 120
7, 75600, Note_on_c, 9, 51, 120
7, 75657, Note_off_c, 9, 62, 0
7, 75660, Note_off_c, 9, 35, 0
7, 75660, Note_off_c, 9, 36, 0
7, 75660, Note_off_c, 9, 51, 0
7, 75840, Note_on_c, 9, 62, 120
7, 75840, Note_on_c, 9, 37, 120
7, 75840, Note_on_c, 9, 35, 120
7, 75840, Note_on_c, 9, 36, 120
7, 75840, Note_on_c, 9, 28, 120
7, 75840, Note_on_c, 9, 51, 120
7, 75897, Note_off_c, 9, 28, 0
7, 75897, Note_off_c, 9, 62, 0
7, 75900, Note_off_c, 9, 37, 0
7, 75900, Note_off_c, 9, 35, 0
7, 75900, Note_off_c, 9, 36, 0
7, 75900, Note_off_c, 9, 51, 0
7, 76080, Note_on_c, 9, 51, 120
7, 76080, Note_on_c, 9, 28, 120
7, 76080, Note_on_c, 9, 36, 120
7, 76080, Note_on_c, 9, 35, 120
7, 76080, Note_on_c, 9, 37, 120
7, 76080, Note_on_c, 9, 62, 120
7, 76137, Note_off_c, 9, 62, 0
7, 76137, Note_off_c, 9, 28, 0
7, 76140, Note_off_c, 9, 51, 0
7, 76140, Note_off_c, 9, 36, 0
7, 76140, Note_off_c, 9, 35, 0
7, 76140, Note_off_c, 9, 37, 0
7, 76320, Note_on_c, 9, 51, 120
7, 76320, Note_on_c, 9, 28, 120
7, 76320, Note_on_c, 9, 36, 120
7, 76320, Note_on_c, 9, 35, 120
7, 76320, Note_on_c, 9, 37, 120
7, 76320, Note_on_c, 9, 62, 120
7, 76377, Note_off_c, 9, 62, 0
7, 76377, Note_off_c, 9, 28, 0
7, 76380, Note_off_c, 9, 51, 0
7, 76380, Note_off_c, 9, 36, 0
7, 76380, Note_off_c, 9, 35, 0
7, 76380, Note_off_c, 9, 37, 0
7, 76436, Note_on_c, 9, 62, 120
7, 76436, Note_on_c, 9, 37, 120
7, 76436, Note_on_c, 9, 35, 120
7, 76436, Note_on_c, 9, 36, 120
7, 76436, Note_on_c, 9, 28, 120
7, 76436, Note_on_c, 9, 51, 120
7, 76493, Note_off_c, 9, 28, 0
7, 76493, Note_off_c, 9, 62, 0
7, 76496, Note_off_c, 9, 37, 0
7, 76496, Note_off_c, 9, 35, 0
7, 76496, Note_off_c, 9, 36, 0
7, 76496, Note_off_c, 9, 51, 0
7, 76560, Note_on_c, 9, 62, 120
7, 76560, Note_on_c, 9, 37, 120
7, 76560, Note_on_c, 9, 35, 120
7, 76560, Note_on_c, 9, 36, 120
7, 76560, Note_on_c, 9, 28, 120
7, 76560, Note_on_c, 9, 51, 120
7, 76617, Note_off_c, 9, 28, 0
7, 76617, Note_off_c, 9, 62, 0
7, 76620, Note_off_c, 9, 37, 0
7, 76620, Note_off_c, 9, 35, 0
7, 76620, Note_off_c, 9, 36, 0
7, 76620, Note_off_c, 9, 51, 0
7, 76676, Note_on_c, 9, 62, 120
7, 76676, Note_on_c, 9, 37, 120
7, 76676, Note_on_c, 9, 35, 120
7, 76676, Note_on_c, 9, 36, 120
7, 76676, Note_on_c, 9, 28, 120
7, 76676, Note_on_c, 9, 51, 120
7, 76733, Note_off_c, 9, 28, 0
7, 76733, Note_off_c, 9, 62, 0
7, 76736, Note_off_c, 9, 37, 0
7, 76736, Note_off_c, 9, 35, 0
7, 76736, Note_off_c, 9, 36, 0
7, 76736, Note_off_c, 9, 51, 0
7, 76800, Note_on_c, 9, 74, 120
7, 76800, Note_on_c, 9, 76, 120
7, 76800, Note_on_c, 9, 28, 120
7, 76800, Note_on_c, 9, 62, 120
7, 76800, Note_on_c, 9, 49, 120
7, 76800, Note_on_c, 9, 51, 120
7, 76800, Note_on_c, 9, 46, 120
7, 76800, Note_on_c, 9, 36, 120
7, 76800, Note_on_c, 9, 35, 120
7, 76800, Note_on_c, 9, 37, 120
7, 76800, Note_on_c, 9, 75, 120
7, 76857, Note_off_c, 9, 62, 0
7, 76857, Note_off_c, 9, 28, 0
7, 76857, Note_off_c, 9, 76, 0
7, 76860, Note_off_c, 9, 49, 0
7, 76860, Note_off_c, 9, 51, 0
7, 76860, Note_off_c, 9, 46, 0
7, 76860, Note_off_c, 9, 36, 0
7, 76860, Note_off_c, 9, 35, 0
7, 76860, Note_off_c, 9, 37, 0
7, 77040, Note_on_c, 9, 62, 120
7, 77040, Note_on_c, 9, 46, 120
7, 77040, Note_on_c, 9, 35, 120
7, 77040, Note_on_c, 9, 36, 120
7, 77097, Note_off_c, 9, 62, 0
7, 77100, Note_off_c, 9, 46, 0
7, 77100, Note_off_c, 9, 35, 0
7, 77100, Note_off_c, 9, 36, 0
7, 77256, Note_off_c, 9, 74, 0
7, 77256, Note_off_c, 9, 75, 0
7, 77280, Note_on_c, 9, 28, 120
7, 77280, Note_on_c, 9, 63, 120
7, 77280, Note_on_c, 9, 37, 120
7, 77280, Note_on_c, 9, 42, 120
7, 77280, Note_on_c, 9, 40, 120
7, 77280, Note_on_c, 9, 38, 120
7, 77280, Note_on_c, 9, 35, 120
7, 77280, Note_on_c, 9, 36, 120
7, 77280, Note_on_c, 9, 46, 120
7, 77337, Note_off_c, 9, 42, 0
7, 77337, Note_off_c, 9, 37, 0
7, 77337, Note_off_c, 9, 63, 0
7, 77337, Note_off_c, 9, 28, 0
7, 77340, Note_off_c, 9, 40, 0
7, 77340, Note_off_c, 9, 38, 0
7, 77340, Note_off_c, 9, 35, 0
7, 77340, Note_off_c, 9, 36, 0
7, 77340, Note_off_c, 9, 46, 0
7, 77520, Note_on_c, 9, 36, 120
7, 77520, Note_on_c, 9, 35, 120
7, 77520, Note_on_c, 9, 74, 120
7, 77520, Note_on_c, 9, 76, 120
7, 77520, Note_on_c, 9, 62, 120
7, 77520, Note_on_c, 9, 46, 120
7, 77577, Note_off_c, 9, 62, 0
7, 77577, Note_off_c, 9, 76, 0
7, 77577, Note_off_c, 9, 35, 0
7, 77577, Note_off_c, 9, 36, 0
7, 77580, Note_off_c, 9, 46, 0
7, 77748, Note_off_c, 9, 74, 0
7, 77760, Note_on_c, 9, 36, 120
7, 77760, Note_on_c, 9, 74, 120
7, 77760, Note_on_c, 9, 75, 120
7, 77760, Note_on_c, 9, 28, 120
7, 77760, Note_on_c, 9, 62, 120
7, 77760, Note_on_c, 9, 63, 120
7, 77760, Note_on_c, 9, 46, 120
7, 77817, Note_off_c, 9, 63, 0
7, 77817, Note_off_c, 9, 62, 0
7, 77817, Note_off_c, 9, 28, 0
7, 77817, Note_off_c, 9, 36, 0
7, 77820, Note_off_c, 9, 46, 0
7, 78000, Note_on_c, 9, 62, 120
7, 78000, Note_on_c, 9, 46, 120
7, 78000, Note_on_c, 9, 36, 120
7, 78000, Note_on_c, 9, 35, 120
7, 78057, Note_off_c, 9, 62, 0
7, 78060, Note_off_c, 9, 46, 0
7, 78060, Note_off_c, 9, 36, 0
7, 78060, Note_off_c, 9, 35, 0
7, 78216, Note_off_c, 9, 74, 0
7, 78216, Note_off_c, 9, 75, 0
7, 78240, Note_on_c, 9, 76, 120
7, 78240, Note_on_c, 9, 28, 120
7, 78240, Note_on_c, 9, 62, 120
7, 78240, Note_on_c, 9, 63, 120
7, 78240, Note_on_c, 9, 37, 120
7, 78240, Note_on_c, 9, 42, 120
7, 78240, Note_on_c, 9, 36, 120
7, 78240, Note_on_c, 9, 40, 120
7, 78240, Note_on_c, 9, 46, 120
7, 78240, Note_on_c, 9, 35, 120
7, 78240, Note_on_c, 9, 38, 120
7, 78297, Note_off_c, 9, 42, 0
7, 78297, Note_off_c, 9, 37, 0
7, 78297, Note_off_c, 9, 63, 0
7, 78297, Note_off_c, 9, 62, 0
7, 78297, Note_off_c, 9, 28, 0
7, 78297, Note_off_c, 9, 76, 0
7, 78300, Note_off_c, 9, 36, 0
7, 78300, Note_off_c, 9, 40, 0
7, 78300, Note_off_c, 9, 46, 0
7, 78300, Note_off_c, 9, 35, 0
7, 78300, Note_off_c, 9, 38, 0
7, 78480, Note_on_c, 9, 36, 120
7, 78480, Note_on_c, 9, 35, 120
7, 78480, Note_on_c, 9, 74, 120
7, 78480, Note_on_c, 9, 62, 120
7, 78480, Note_on_c, 9, 46, 120
7, 78537, Note_off_c, 9, 62, 0
7, 78537, Note_off_c, 9, 35, 0
7, 78537, Note_off_c, 9, 36, 0
7, 78540, Note_off_c, 9, 46, 0
7, 78708, Note_off_c, 9, 74, 0
7, 78720, Note_on_c, 9, 74, 120
7, 78720, Note_on_c, 9, 75, 120
7, 78720, Note_on_c, 9, 62, 120
7, 78720, Note_on_c, 9, 37, 120
7, 78720, Note_on_c, 9, 35, 120
7, 78720, Note_on_c, 9, 36, 120
7, 78720, Note_on_c, 9, 46, 120
7, 78720, Note_on_c, 9, 28, 120
7, 78777, Note_off_c, 9, 28, 0
7, 78777, Note_off_c, 9, 62, 0
7, 78780, Note_off_c, 9, 37, 0
7, 78780, Note_off_c, 9, 35, 0
7, 78780, Note_off_c, 9, 36, 0
7, 78780, Note_off_c, 9, 46, 0
7, 78960, Note_on_c, 9, 62, 120
7, 78960, Note_on_c, 9, 46, 120
7, 78960, Note_on_c, 9, 35, 120
7, 78960, Note_on_c, 9, 36, 120
7, 79017, Note_off_c, 9, 62, 0
7, 79020, Note_off_c, 9, 46, 0
7, 79020, Note_off_c, 9, 35, 0
7, 79020, Note_off_c, 9, 36, 0
7, 79176, Note_off_c, 9, 75, 0
7, 79176, Note_off_c, 9, 74, 0
7, 79200, Note_on_c, 9, 76, 120
7, 79200, Note_on_c, 9, 62, 120
7, 79200, Note_on_c, 9, 63, 120
7, 79200, Note_on_c, 9, 28, 120
7, 79200, Note_on_c, 9, 37, 120
7, 79200, Note_on_c, 9, 42, 120
7, 79200, Note_on_c, 9, 40, 120
7, 79200, Note_on_c, 9, 38, 120
7, 79200, Note_on_c, 9, 35, 120
7, 79200, Note_on_c, 9, 36, 120
7, 79200, Note_on_c, 9, 46, 120
7, 79257, Note_off_c, 9, 42, 0
7, 79257, Note_off_c, 9, 37, 0
7, 79257, Note_off_c, 9, 28, 0
7, 79257, Note_off_c, 9, 63, 0
7, 79257, Note_off_c, 9, 62, 0
7, 79257, Note_off_c, 9, 76, 0
7, 79260, Note_off_c, 9, 40, 0
7, 79260, Note_off_c, 9, 38, 0
7, 79260, Note_off_c, 9, 35, 0
7, 79260, Note_off_c, 9, 36, 0
7, 79260, Note_off_c, 9, 46, 0
7, 79440, Note_on_c, 9, 74, 120
7, 79440, Note_on_c, 9, 62, 120
7, 79440, Note_on_c, 9, 36, 120
7, 79440, Note_on_c, 9, 35, 120
7, 79440, Note_on_c, 9, 46, 120
7, 79497, Note_off_c, 9, 35, 0
7, 79497, Note_off_c, 9, 36, 0
7, 79497, Note_off_c, 9, 62, 0
7, 79500, Note_off_c, 9, 46, 0
7, 79668, Note_off_c, 9, 74, 0
7, 79680, Note_on_c, 9, 74, 120
7, 79680, Note_on_c, 9, 75, 120
7, 79680, Note_on_c, 9, 62, 120
7, 79680, Note_on_c, 9, 63, 120
7, 79680, Note_on_c, 9, 36, 120
7, 79680, Note_on_c, 9, 28, 120
7, 79680, Note_on_c, 9, 46, 120
7, 79737, Note_off_c, 9, 28, 0
7, 79737, Note_off_c, 9, 36, 0
7, 79737, Note_off_c, 9, 63, 0
7, 79737, Note_off_c, 9, 62, 0
7, 79740, Note_off_c, 9, 46, 0
7, 79920, Note_on_c, 9, 76, 120
7, 79920, Note_on_c, 9, 62, 120
7, 79920, Note_on_c, 9, 46, 120
7, 79920, Note_on_c, 9, 36, 120
7, 79920, Note_on_c, 9, 35, 120
7, 79977, Note_off_c, 9, 62, 0
7, 79977, Note_off_c, 9, 76, 0
7, 79980, Note_off_c, 9, 46, 0
7, 79980, Note_off_c, 9, 36, 0
7, 79980, Note_off_c, 9, 35, 0
7, 80136, Note_off_c, 9, 75, 0
7, 80136, Note_off_c, 9, 74, 0
7, 80160, Note_on_c, 9, 62, 120
7, 80160, Note_on_c, 9, 63, 120
7, 80160, Note_on_c, 9, 28, 120
7, 80160, Note_on_c, 9, 37, 120
7, 80160, Note_on_c, 9, 42, 120
7, 80160, Note_on_c, 9, 36, 120
7, 80160, Note_on_c, 9, 40, 120
7, 80160, Note_on_c, 9, 46, 120
7, 80160, Note_on_c, 9, 35, 120
7, 80160, Note_on_c, 9, 38, 120
7, 80217, Note_off_c, 9, 42, 0
7, 80217, Note_off_c, 9, 37, 0
7, 80217, Note_off_c, 9, 28, 0
7, 80217, Note_off_c, 9, 63, 0
7, 80217, Note_off_c, 9, 62, 0
7, 80220, Note_off_c, 9, 36, 0
7, 80220, Note_off_c, 9, 40, 0
7, 80220, Note_off_c, 9, 46, 0
7, 80220, Note_off_c, 9, 35, 0
7, 80220, Note_off_c, 9, 38, 0
7, 80276, Note_on_c, 9, 62, 120
7, 80333, Note_off_c, 9, 62, 0
7, 80400, Note_on_c, 9, 74, 120
7, 80400, Note_on_c, 9, 61, 120
7, 80400, Note_on_c, 9, 62, 120
7, 80400, Note_on_c, 9, 36, 120
7, 80400, Note_on_c, 9, 35, 120
7, 80400, Note_on_c, 9, 46, 120
7, 80457, Note_off_c, 9, 35, 0
7, 80457, Note_off_c, 9, 36, 0
7, 80457, Note_off_c, 9, 62, 0
7, 80457, Note_off_c, 9, 61, 0
7, 80460, Note_off_c, 9, 46, 0
7, 80523, Note_on_c, 9, 60, 120
7, 80523, Note_on_c, 9, 61, 120
7, 80580, Note_off_c, 9, 61, 0
7, 80580, Note_off_c, 9, 60, 0
7, 80628, Note_off_c, 9, 74, 0
7, 80640, Note_on_c, 9, 74, 120
7, 80640, Note_on_c, 9, 76, 120
7, 80640, Note_on_c, 9, 75, 120
7, 80640, Note_on_c, 9, 62, 120
7, 80640, Note_on_c, 9, 37, 120
7, 80640, Note_on_c, 9, 35, 120
7, 80640, Note_on_c, 9, 36, 120
7, 80640, Note_on_c, 9, 46, 120
7, 80640, Note_on_c, 9, 28, 120
7, 80697, Note_off_c, 9, 28, 0
7, 80697, Note_off_c, 9, 62, 0
7, 80697, Note_off_c, 9, 76, 0
7, 80700, Note_off_c, 9, 37, 0
7, 80700, Note_off_c, 9, 35, 0
7, 80700, Note_off_c, 9, 36, 0
7, 80700, Note_off_c, 9, 46, 0
7, 80880, Note_on_c, 9, 62, 120
7, 80880, Note_on_c, 9, 46, 120
7, 80880, Note_on_c, 9, 35, 120
7, 80880, Note_on_c, 9, 36, 120
7, 80937, Note_off_c, 9, 62, 0
7, 80940, Note_off_c, 9, 46, 0
7, 80940, Note_off_c, 9, 35, 0
7, 80940, Note_off_c, 9, 36, 0
7, 81096, Note_off_c, 9, 74, 0
7, 81096, Note_off_c, 9, 75, 0
7, 81120, Note_on_c, 9, 63, 120
7, 81120, Note_on_c, 9, 28, 120
7, 81120, Note_on_c, 9, 37, 120
7, 81120, Note_on_c, 9, 42, 120
7, 81120, Note_on_c, 9, 40, 120
7, 81120, Note_on_c, 9, 38, 120
7, 81120, Note_on_c, 9, 35, 120
7, 81120, Note_on_c, 9, 36, 120
7, 81120, Note_on_c, 9, 46, 120
7, 81177, Note_off_c, 9, 42, 0
7, 81177, Note_off_c, 9, 37, 0
7, 81177, Note_off_c, 9, 28, 0
7, 81177, Note_off_c, 9, 63, 0
7, 81180, Note_off_c, 9, 40, 0
7, 81180, Note_off_c, 9, 38, 0
7, 81180, Note_off_c, 9, 35, 0
7, 81180, Note_off_c, 9, 36, 0
7, 81180, Note_off_c, 9, 46, 0
7, 81360, Note_on_c, 9, 74, 120
7, 81360, Note_on_c, 9, 76, 120
7, 81360, Note_on_c, 9, 62, 120
7, 81360, Note_on_c, 9, 36, 120
7, 81360, Note_on_c, 9, 35, 120
7, 81360, Note_on_c, 9, 46, 120
7, 81417, Note_off_c, 9, 35, 0
7, 81417, Note_off_c, 9, 36, 0
7, 81417, Note_off_c, 9, 62, 0
7, 81417, Note_off_c, 9, 76, 0
7, 81420, Note_off_c, 9, 46, 0
7, 81588, Note_off_c, 9, 74, 0
7, 81600, Note_on_c, 9, 74, 120
7, 81600, Note_on_c, 9, 75, 120
7, 81600, Note_on_c, 9, 62, 120
7, 81600, Note_on_c, 9, 63, 120
7, 81600, Note_on_c, 9, 36, 120
7, 81600, Note_on_c, 9, 28, 120
7, 81600, Note_on_c, 9, 46, 120
7, 81657, Note_off_c, 9, 28, 0
7, 81657, Note_off_c, 9, 36, 0
7, 81657, Note_off_c, 9, 63, 0
7, 81657, Note_off_c, 9, 62, 0
7, 81660, Note_off_c, 9, 46, 0
7, 81840, Note_on_c, 9, 62, 120
7, 81840, Note_on_c, 9, 46, 120
7, 81840, Note_on_c, 9, 36, 120
7, 81840, Note_on_c, 9, 35, 120
7, 81897, Note_off_c, 9, 62, 0
7, 81900, Note_off_c, 9, 46, 0
7, 81900, Note_off_c, 9, 36, 0
7, 81900, Note_off_c, 9, 35, 0
7, 82056, Note_off_c, 9, 75, 0
7, 82056, Note_off_c, 9, 74, 0
7, 82080, Note_on_c, 9, 76, 120
7, 82080, Note_on_c, 9, 62, 120
7, 82080, Note_on_c, 9, 63, 120
7, 82080, Note_on_c, 9, 28, 120
7, 82080, Note_on_c, 9, 37, 120
7, 82080, Note_on_c, 9, 42, 120
7, 82080, Note_on_c, 9, 36, 120
7, 82080, Note_on_c, 9, 40, 120
7, 82080, Note_on_c, 9, 46, 120
7, 82080, Note_on_c, 9, 35, 120
7, 82080, Note_on_c, 9, 38, 120
7, 82137, Note_off_c, 9, 42, 0
7, 82137, Note_off_c, 9, 37, 0
7, 82137, Note_off_c, 9, 28, 0
7, 82137, Note_off_c, 9, 63, 0
7, 82137, Note_off_c, 9, 62, 0
7, 82137, Note_off_c, 9, 76, 0
7, 82140, Note_off_c, 9, 36, 0
7, 82140, Note_off_c, 9, 40, 0
7, 82140, Note_off_c, 9, 46, 0
7, 82140, Note_off_c, 9, 35, 0
7, 82140, Note_off_c, 9, 38, 0
7, 82320, Note_on_c, 9, 74, 120
7, 82320, Note_on_c, 9, 62, 120
7, 82320, Note_on_c, 9, 36, 120
7, 82320, Note_on_c, 9, 35, 120
7, 82320, Note_on_c, 9, 46, 120
7, 82377, Note_off_c, 9, 35, 0
7, 82377, Note_off_c, 9, 36, 0
7, 82377, Note_off_c, 9, 62, 0
7, 82380, Note_off_c, 9, 46, 0
7, 82548, Note_off_c, 9, 74, 0
7, 82560, Note_on_c, 9, 74, 120
7, 82560, Note_on_c, 9, 75, 120
7, 82560, Note_on_c, 9, 62, 120
7, 82560, Note_on_c, 9, 37, 120
7, 82560, Note_on_c, 9, 35, 120
7, 82560, Note_on_c, 9, 36, 120
7, 82560, Note_on_c, 9, 46, 120
7, 82560, Note_on_c, 9, 28, 120
7, 82617, Note_off_c, 9, 28, 0
7, 82617, Note_off_c, 9, 62, 0
7, 82620, Note_off_c, 9, 37, 0
7, 82620, Note_off_c, 9, 35, 0
7, 82620, Note_off_c, 9, 36, 0
7, 82620, Note_off_c, 9, 46, 0
7, 82800, Note_on_c, 9, 62, 120
7, 82800, Note_on_c, 9, 46, 120
7, 82800, Note_on_c, 9, 35, 120
7, 82800, Note_on_c, 9, 36, 120
7, 82857, Note_off_c, 9, 62, 0
7, 82860, Note_off_c, 9, 46, 0
7, 82860, Note_off_c, 9, 35, 0
7, 82860, Note_off_c, 9, 36, 0
7, 83016, Note_off_c, 9, 75, 0
7, 83016, Note_off_c, 9, 74, 0
7, 83040, Note_on_c, 9, 76, 120
7, 83040, Note_on_c, 9, 62, 120
7, 83040, Note_on_c, 9, 63, 120
7, 83040, Note_on_c, 9, 28, 120
7, 83040, Note_on_c, 9, 37, 120
7, 83040, Note_on_c, 9, 42, 120
7, 83040, Note_on_c, 9, 40, 120
7, 83040, Note_on_c, 9, 38, 120
7, 83040, Note_on_c, 9, 35, 120
7, 83040, Note_on_c, 9, 36, 120
7, 83040, Note_on_c, 9, 46, 120
7, 83097, Note_off_c, 9, 42, 0
7, 83097, Note_off_c, 9, 37, 0
7, 83097, Note_off_c, 9, 28, 0
7, 83097, Note_off_c, 9, 63, 0
7, 83097, Note_off_c, 9, 62, 0
7, 83097, Note_off_c, 9, 76, 0
7, 83100, Note_off_c, 9, 40, 0
7, 83100, Note_off_c, 9, 38, 0
7, 83100, Note_off_c, 9, 35, 0
7, 83100, Note_off_c, 9, 36, 0
7, 83100, Note_off_c, 9, 46, 0
7, 83280, Note_on_c, 9, 74, 120
7, 83280, Note_on_c, 9, 62, 120
7, 83280, Note_on_c, 9, 36, 120
7, 83280, Note_on_c, 9, 35, 120
7, 83280, Note_on_c, 9, 46, 120
7, 83337, Note_off_c, 9, 35, 0
7, 83337, Note_off_c, 9, 36, 0
7, 83337, Note_off_c, 9, 62, 0
7, 83340, Note_off_c, 9, 46, 0
7, 83508, Note_off_c, 9, 74, 0
7, 83520, Note_on_c, 9, 74, 120
7, 83520, Note_on_c, 9, 75, 120
7, 83520, Note_on_c, 9, 62, 120
7, 83520, Note_on_c, 9, 63, 120
7, 83520, Note_on_c, 9, 36, 120
7, 83520, Note_on_c, 9, 28, 120
7, 83520, Note_on_c, 9, 46, 120
7, 83577, Note_off_c, 9, 28, 0
7, 83577, Note_off_c, 9, 36, 0
7, 83577, Note_off_c, 9, 63, 0
7, 83577, Note_off_c, 9, 62, 0
7, 83580, Note_off_c, 9, 46, 0
7, 83760, Note_on_c, 9, 76, 120
7, 83760, Note_on_c, 9, 62, 120
7, 83760, Note_on_c, 9, 46, 120
7, 83760, Note_on_c, 9, 36, 120
7, 83760, Note_on_c, 9, 35, 120
7, 83817, Note_off_c, 9, 62, 0
7, 83817, Note_off_c, 9, 76, 0
7, 83820, Note_off_c, 9, 46, 0
7, 83820, Note_off_c, 9, 36, 0
7, 83820, Note_off_c, 9, 35, 0
7, 83976, Note_off_c, 9, 75, 0
7, 83976, Note_off_c, 9, 74, 0
7, 84000, Note_on_c, 9, 62, 120
7, 84000, Note_on_c, 9, 63, 120
7, 84000, Note_on_c, 9, 28, 120
7, 84000, Note_on_c, 9, 37, 120
7, 84000, Note_on_c, 9, 42, 120
7, 84000, Note_on_c, 9, 36, 120
7, 84000, Note_on_c, 9, 40, 120
7, 84000, Note_on_c, 9, 46, 120
7, 84000, Note_on_c, 9, 35, 120
7, 84000, Note_on_c, 9, 38, 120
7, 84057, Note_off_c, 9, 42, 0
7, 84057, Note_off_c, 9, 37, 0
7, 84057, Note_off_c, 9, 28, 0
7, 84057, Note_off_c, 9, 63, 0
7, 84057, Note_off_c, 9, 62, 0
7, 84060, Note_off_c, 9, 36, 0
7, 84060, Note_off_c, 9, 40, 0
7, 84060, Note_off_c, 9, 46, 0
7, 84060, Note_off_c, 9, 35, 0
7, 84060, Note_off_c, 9, 38, 0
7, 84116, Note_on_c, 9, 62, 120
7, 84173, Note_off_c, 9, 62, 0
7, 84240, Note_on_c, 9, 74, 120
7, 84240, Note_on_c, 9, 61, 120
7, 84240, Note_on_c, 9, 62, 120
7, 84240, Note_on_c, 9, 36, 120
7, 84240, Note_on_c, 9, 35, 120
7, 84240, Note_on_c, 9, 46, 120
7, 84297, Note_off_c, 9, 35, 0
7, 84297, Note_off_c, 9, 36, 0
7, 84297, Note_off_c, 9, 62, 0
7, 84297, Note_off_c, 9, 61, 0
7, 84300, Note_off_c, 9, 46, 0
7, 84363, Note_on_c, 9, 60, 120
7, 84363, Note_on_c, 9, 61, 120
7, 84420, Note_off_c, 9, 61, 0
7, 84420, Note_off_c, 9, 60, 0
7, 84468, Note_off_c, 9, 74, 0
7, 84480, Note_on_c, 9, 62, 120
7, 84480, Note_on_c, 9, 75, 120
7, 84480, Note_on_c, 9, 76, 120
7, 84480, Note_on_c, 9, 74, 120
7, 84480, Note_on_c, 9, 37, 120
7, 84480, Note_on_c, 9, 35, 120
7, 84480, Note_on_c, 9, 36, 120
7, 84480, Note_on_c, 9, 46, 120
7, 84480, Note_on_c, 9, 28, 120
7, 84537, Note_off_c, 9, 28, 0
7, 84537, Note_off_c, 9, 76, 0
7, 84537, Note_off_c, 9, 62, 0
7, 84540, Note_off_c, 9, 37, 0
7, 84540, Note_off_c, 9, 35, 0
7, 84540, Note_off_c, 9, 36, 0
7, 84540, Note_off_c, 9, 46, 0
7, 84720, Note_on_c, 9, 62, 120
7, 84720, Note_on_c, 9, 46, 120
7, 84720, Note_on_c, 9, 35, 120
7, 84720, Note_on_c, 9, 36, 120
7, 84777, Note_off_c, 9, 62, 0
7, 84780, Note_off_c, 9, 46, 0
7, 84780, Note_off_c, 9, 35, 0
7, 84780, Note_off_c, 9, 36, 0
7, 84936, Note_off_c, 9, 75, 0
7, 84936, Note_off_c, 9, 74, 0
7, 84960, Note_on_c, 9, 63, 120
7, 84960, Note_on_c, 9, 28, 120
7, 84960, Note_on_c, 9, 37, 120
7, 84960, Note_on_c, 9, 42, 120
7, 84960, Note_on_c, 9, 40, 120
7, 84960, Note_on_c, 9, 38, 120
7, 84960, Note_on_c, 9, 35, 120
7, 84960, Note_on_c, 9, 36, 120
7, 84960, Note_on_c, 9, 46, 120
7, 85017, Note_off_c, 9, 42, 0
7, 85017, Note_off_c, 9, 37, 0
7, 85017, Note_off_c, 9, 28, 0
7, 85017, Note_off_c, 9, 63, 0
7, 85020, Note_off_c, 9, 40, 0
7, 85020, Note_off_c, 9, 38, 0
7, 85020, Note_off_c, 9, 35, 0
7, 85020, Note_off_c, 9, 36, 0
7, 85020, Note_off_c, 9, 46, 0
7, 85200, Note_on_c, 9, 74, 120
7, 85200, Note_on_c, 9, 76, 120
7, 85200, Note_on_c, 9, 62, 120
7, 85200, Note_on_c, 9, 36, 120
7, 85200, Note_on_c, 9, 35, 120
7, 85200, Note_on_c, 9, 46, 120
7, 85257, Note_off_c, 9, 35, 0
7, 85257, Note_off_c, 9, 36, 0
7, 85257, Note_off_c, 9, 62, 0
7, 85257, Note_off_c, 9, 76, 0
7, 85260, Note_off_c, 9, 46, 0
7, 85428, Note_off_c, 9, 74, 0
7, 85440, Note_on_c, 9, 74, 120
7, 85440, Note_on_c, 9, 75, 120
7, 85440, Note_on_c, 9, 62, 120
7, 85440, Note_on_c, 9, 63, 120
7, 85440, Note_on_c, 9, 36, 120
7, 85440, Note_on_c, 9, 28, 120
7, 85440, Note_on_c, 9, 46, 120
7, 85497, Note_off_c, 9, 28, 0
7, 85497, Note_off_c, 9, 36, 0
7, 85497, Note_off_c, 9, 63, 0
7, 85497, Note_off_c, 9, 62, 0
7, 85500, Note_off_c, 9, 46, 0
7, 85680, Note_on_c, 9, 62, 120
7, 85680, Note_on_c, 9, 46, 120
7, 85680, Note_on_c, 9, 36, 120
7, 85680, Note_on_c, 9, 35, 120
7, 85737, Note_off_c, 9, 62, 0
7, 85740, Note_off_c, 9, 46, 0
7, 85740, Note_off_c, 9, 36, 0
7, 85740, Note_off_c, 9, 35, 0
7, 85896, Note_off_c, 9, 75, 0
7, 85896, Note_off_c, 9, 74, 0
7, 85920, Note_on_c, 9, 76, 120
7, 85920, Note_on_c, 9, 62, 120
7, 85920, Note_on_c, 9, 63, 120
7, 85920, Note_on_c, 9, 28, 120
7, 85920, Note_on_c, 9, 37, 120
7, 85920, Note_on_c, 9, 42, 120
7, 85920, Note_on_c, 9, 36, 120
7, 85920, Note_on_c, 9, 40, 120
7, 85920, Note_on_c, 9, 46, 120
7, 85920, Note_on_c, 9, 35, 120
7, 85920, Note_on_c, 9, 38, 120
7, 85977, Note_off_c, 9, 42, 0
7, 85977, Note_off_c, 9, 37, 0
7, 85977, Note_off_c, 9, 28, 0
7, 85977, Note_off_c, 9, 63, 0
7, 85977, Note_off_c, 9, 62, 0
7, 85977, Note_off_c, 9, 76, 0
7, 85980, Note_off_c, 9, 36, 0
7, 85980, Note_off_c, 9, 40, 0
7, 85980, Note_off_c, 9, 46, 0
7, 85980, Note_off_c, 9, 35, 0
7, 85980, Note_off_c, 9, 38, 0
7, 86160, Note_on_c, 9, 74, 120
7, 86160, Note_on_c, 9, 62, 120
7, 86160, Note_on_c, 9, 36, 120
7, 86160, Note_on_c, 9, 35, 120
7, 86160, Note_on_c, 9, 46, 120
7, 86217, Note_off_c, 9, 35, 0
7, 86217, Note_off_c, 9, 36, 0
7, 86217, Note_off_c, 9, 62, 0
7, 86220, Note_off_c, 9, 46, 0
7, 86388, Note_off_c, 9, 74, 0
7, 86400, Note_on_c, 9, 74, 120
7, 86400, Note_on_c, 9, 75, 120
7, 86400, Note_on_c, 9, 62, 120
7, 86400, Note_on_c, 9, 37, 120
7, 86400, Note_on_c, 9, 35, 120
7, 86400, Note_on_c, 9, 36, 120
7, 86400, Note_on_c, 9, 46, 120
7, 86400, Note_on_c, 9, 28, 120
7, 86457, Note_off_c, 9, 28, 0
7, 86457, Note_off_c, 9, 62, 0
7, 86460, Note_off_c, 9, 37, 0
7, 86460, Note_off_c, 9, 35, 0
7, 86460, Note_off_c, 9, 36, 0
7, 86460, Note_off_c, 9, 46, 0
7, 86640, Note_on_c, 9, 62, 120
7, 86640, Note_on_c, 9, 46, 120
7, 86640, Note_on_c, 9, 35, 120
7, 86640, Note_on_c, 9, 36, 120
7, 86697, Note_off_c, 9, 62, 0
7, 86700, Note_off_c, 9, 46, 0
7, 86700, Note_off_c, 9, 35, 0
7, 86700, Note_off_c, 9, 36, 0
7, 86856, Note_off_c, 9, 75, 0
7, 86856, Note_off_c, 9, 74, 0
7, 86880, Note_on_c, 9, 76, 120
7, 86880, Note_on_c, 9, 62, 120
7, 86880, Note_on_c, 9, 63, 120
7, 86880, Note_on_c, 9, 28, 120
7, 86880, Note_on_c, 9, 37, 120
7, 86880, Note_on_c, 9, 42, 120
7, 86880, Note_on_c, 9, 40, 120
7, 86880, Note_on_c, 9, 38, 120
7, 86880, Note_on_c, 9, 35, 120
7, 86880, Note_on_c, 9, 36, 120
7, 86880, Note_on_c, 9, 46, 120
7, 86937, Note_off_c, 9, 42, 0
7, 86937, Note_off_c, 9, 37, 0
7, 86937, Note_off_c, 9, 28, 0
7, 86937, Note_off_c, 9, 63, 0
7, 86937, Note_off_c, 9, 62, 0
7, 86937, Note_off_c, 9, 76, 0
7, 86940, Note_off_c, 9, 40, 0
7, 86940, Note_off_c, 9, 38, 0
7, 86940, Note_off_c, 9, 35, 0
7, 86940, Note_off_c, 9, 36, 0
7, 86940, Note_off_c, 9, 46, 0
7, 87120, Note_on_c, 9, 74, 120
7, 87120, Note_on_c, 9, 62, 120
7, 87120, Note_on_c, 9, 36, 120
7, 87120, Note_on_c, 9, 35, 120
7, 87120, Note_on_c, 9, 46, 120
7, 87177, Note_off_c, 9, 35, 0
7, 87177, Note_off_c, 9, 36, 0
7, 87177, Note_off_c, 9, 62, 0
7, 87180, Note_off_c, 9, 46, 0
7, 87348, Note_off_c, 9, 74, 0
7, 87360, Note_on_c, 9, 74, 120
7, 87360, Note_on_c, 9, 75, 120
7, 87360, Note_on_c, 9, 62, 120
7, 87360, Note_on_c, 9, 63, 120
7, 87360, Note_on_c, 9, 36, 120
7, 87360, Note_on_c, 9, 28, 120
7, 87360, Note_on_c, 9, 46, 120
7, 87417, Note_off_c, 9, 28, 0
7, 87417, Note_off_c, 9, 36, 0
7, 87417, Note_off_c, 9, 63, 0
7, 87417, Note_off_c, 9, 62, 0
7, 87420, Note_off_c, 9, 46, 0
7, 87600, Note_on_c, 9, 76, 120
7, 87600, Note_on_c, 9, 62, 120
7, 87600, Note_on_c, 9, 46, 120
7, 87600, Note_on_c, 9, 36, 120
7, 87600, Note_on_c, 9, 35, 120
7, 87657, Note_off_c, 9, 62, 0
7, 87657, Note_off_c, 9, 76, 0
7, 87660, Note_off_c, 9, 46, 0
7, 87660, Note_off_c, 9, 36, 0
7, 87660, Note_off_c, 9, 35, 0
7, 87816, Note_off_c, 9, 75, 0
7, 87816, Note_off_c, 9, 74, 0
7, 87840, Note_on_c, 9, 62, 120
7, 87840, Note_on_c, 9, 63, 120
7, 87840, Note_on_c, 9, 28, 120
7, 87840, Note_on_c, 9, 37, 120
7, 87840, Note_on_c, 9, 42, 120
7, 87840, Note_on_c, 9, 36, 120
7, 87840, Note_on_c, 9, 40, 120
7, 87840, Note_on_c, 9, 46, 120
7, 87840, Note_on_c, 9, 35, 120
7, 87840, Note_on_c, 9, 38, 120
7, 87897, Note_off_c, 9, 42, 0
7, 87897, Note_off_c, 9, 37, 0
7, 87897, Note_off_c, 9, 28, 0
7, 87897, Note_off_c, 9, 63, 0
7, 87897, Note_off_c, 9, 62, 0
7, 87900, Note_off_c, 9, 36, 0
7, 87900, Note_off_c, 9, 40, 0
7, 87900, Note_off_c, 9, 46, 0
7, 87900, Note_off_c, 9, 35, 0
7, 87900, Note_off_c, 9, 38, 0
7, 87956, Note_on_c, 9, 62, 120
7, 88013, Note_off_c, 9, 62, 0
7, 88080, Note_on_c, 9, 74, 120
7, 88080, Note_on_c, 9, 61, 120
7, 88080, Note_on_c, 9, 62, 120
7, 88080, Note_on_c, 9, 36, 120
7, 88080, Note_on_c, 9, 35, 120
7, 88080, Note_on_c, 9, 46, 120
7, 88137, Note_off_c, 9, 35, 0
7, 88137, Note_off_c, 9, 36, 0
7, 88137, Note_off_c, 9, 62, 0
7, 88137, Note_off_c, 9, 61, 0
7, 88140, Note_off_c, 9, 46, 0
7, 88203, Note_on_c, 9, 60, 120
7, 88203, Note_on_c, 9, 61, 120
7, 88260, Note_off_c, 9, 61, 0
7, 88260, Note_off_c, 9, 60, 0
7, 88308, Note_off_c, 9, 74, 0
7, 88320, Note_on_c, 9, 74, 120
7, 88320, Note_on_c, 9, 76, 120
7, 88320, Note_on_c, 9, 75, 120
7, 88320, Note_on_c, 9, 62, 120
7, 88320, Note_on_c, 9, 37, 120
7, 88320, Note_on_c, 9, 35, 120
7, 88320, Note_on_c, 9, 36, 120
7, 88320, Note_on_c, 9, 46, 120
7, 88320, Note_on_c, 9, 28, 120
7, 88377, Note_off_c, 9, 28, 0
7, 88377, Note_off_c, 9, 62, 0
7, 88377, Note_off_c, 9, 76, 0
7, 88380, Note_off_c, 9, 37, 0
7, 88380, Note_off_c, 9, 35, 0
7, 88380, Note_off_c, 9, 36, 0
7, 88380, Note_off_c, 9, 46, 0
7, 88560, Note_on_c, 9, 62, 120
7, 88560, Note_on_c, 9, 46, 120
7, 88560, Note_on_c, 9, 35, 120
7, 88560, Note_on_c, 9, 36, 120
7, 88617, Note_off_c, 9, 62, 0
7, 88620, Note_off_c, 9, 46, 0
7, 88620, Note_off_c, 9, 35, 0
7, 88620, Note_off_c, 9, 36, 0
7, 88776, Note_off_c, 9, 74, 0
7, 88776, Note_off_c, 9, 75, 0
7, 88800, Note_on_c, 9, 63, 120
7, 88800, Note_on_c, 9, 28, 120
7, 88800, Note_on_c, 9, 37, 120
7, 88800, Note_on_c, 9, 42, 120
7, 88800, Note_on_c, 9, 40, 120
7, 88800, Note_on_c, 9, 38, 120
7, 88800, Note_on_c, 9, 35, 120
7, 88800, Note_on_c, 9, 36, 120
7, 88800, Note_on_c, 9, 46, 120
7, 88857, Note_off_c, 9, 42, 0
7, 88857, Note_off_c, 9, 37, 0
7, 88857, Note_off_c, 9, 28, 0
7, 88857, Note_off_c, 9, 63, 0
7, 88860, Note_off_c, 9, 40, 0
7, 88860, Note_off_c, 9, 38, 0
7, 88860, Note_off_c, 9, 35, 0
7, 88860, Note_off_c, 9, 36, 0
7, 88860, Note_off_c, 9, 46, 0
7, 89040, Note_on_c, 9, 74, 120
7, 89040, Note_on_c, 9, 76, 120
7, 89040, Note_on_c, 9, 62, 120
7, 89040, Note_on_c, 9, 36, 120
7, 89040, Note_on_c, 9, 35, 120
7, 89040, Note_on_c, 9, 46, 120
7, 89097, Note_off_c, 9, 35, 0
7, 89097, Note_off_c, 9, 36, 0
7, 89097, Note_off_c, 9, 62, 0
7, 89097, Note_off_c, 9, 76, 0
7, 89100, Note_off_c, 9, 46, 0
7, 89268, Note_off_c, 9, 74, 0
7, 89280, Note_on_c, 9, 74, 120
7, 89280, Note_on_c, 9, 75, 120
7, 89280, Note_on_c, 9, 62, 120
7, 89280, Note_on_c, 9, 63, 120
7, 89280, Note_on_c, 9, 36, 120
7, 89280, Note_on_c, 9, 28, 120
7, 89280, Note_on_c, 9, 46, 120
7, 89337, Note_off_c, 9, 28, 0
7, 89337, Note_off_c, 9, 36, 0
7, 89337, Note_off_c, 9, 63, 0
7, 89337, Note_off_c, 9, 62, 0
7, 89340, Note_off_c, 9, 46, 0
7, 89520, Note_on_c, 9, 62, 120
7, 89520, Note_on_c, 9, 46, 120
7, 89520, Note_on_c, 9, 36, 120
7, 89520, Note_on_c, 9, 35, 120
7, 89577, Note_off_c, 9, 62, 0
7, 89580, Note_off_c, 9, 46, 0
7, 89580, Note_off_c, 9, 36, 0
7, 89580, Note_off_c, 9, 35, 0
7, 89736, Note_off_c, 9, 75, 0
7, 89736, Note_off_c, 9, 74, 0
7, 89760, Note_on_c, 9, 76, 120
7, 89760, Note_on_c, 9, 62, 120
7, 89760, Note_on_c, 9, 63, 120
7, 89760, Note_on_c, 9, 28, 120
7, 89760, Note_on_c, 9, 37, 120
7, 89760, Note_on_c, 9, 42, 120
7, 89760, Note_on_c, 9, 36, 120
7, 89760, Note_on_c, 9, 40, 120
7, 89760, Note_on_c, 9, 46, 120
7, 89760, Note_on_c, 9, 35, 120
7, 89760, Note_on_c, 9, 38, 120
7, 89817, Note_off_c, 9, 42, 0
7, 89817, Note_off_c, 9, 37, 0
7, 89817, Note_off_c, 9, 28, 0
7, 89817, Note_off_c, 9, 63, 0
7, 89817, Note_off_c, 9, 62, 0
7, 89817, Note_off_c, 9, 76, 0
7, 89820, Note_off_c, 9, 36, 0
7, 89820, Note_off_c, 9, 40, 0
7, 89820, Note_off_c, 9, 46, 0
7, 89820, Note_off_c, 9, 35, 0
7, 89820, Note_off_c, 9, 38, 0
7, 90000, Note_on_c, 9, 74, 120
7, 90000, Note_on_c, 9, 62, 120
7, 90000, Note_on_c, 9, 36, 120
7, 90000, Note_on_c, 9, 35, 120
7, 90000, Note_on_c, 9, 46, 120
7, 90057, Note_off_c, 9, 35, 0
7, 90057, Note_off_c, 9, 36, 0
7, 90057, Note_off_c, 9, 62, 0
7, 90060, Note_off_c, 9, 46, 0
7, 90228, Note_off_c, 9, 74, 0
7, 90240, Note_on_c, 9, 74, 120
7, 90240, Note_on_c, 9, 75, 120
7, 90240, Note_on_c, 9, 62, 120
7, 90240, Note_on_c, 9, 37, 120
7, 90240, Note_on_c, 9, 35, 120
7, 90240, Note_on_c, 9, 36, 120
7, 90240, Note_on_c, 9, 46, 120
7, 90240, Note_on_c, 9, 28, 120
7, 90297, Note_off_c, 9, 28, 0
7, 90297, Note_off_c, 9, 62, 0
7, 90300, Note_off_c, 9, 37, 0
7, 90300, Note_off_c, 9, 35, 0
7, 90300, Note_off_c, 9, 36, 0
7, 90300, Note_off_c, 9, 46, 0
7, 90480, Note_on_c, 9, 62, 120
7, 90480, Note_on_c, 9, 46, 120
7, 90480, Note_on_c, 9, 35, 120
7, 90480, Note_on_c, 9, 36, 120
7, 90537, Note_off_c, 9, 62, 0
7, 90540, Note_off_c, 9, 46, 0
7, 90540, Note_off_c, 9, 35, 0
7, 90540, Note_off_c, 9, 36, 0
7, 90696, Note_off_c, 9, 75, 0
7, 90696, Note_off_c, 9, 74, 0
7, 90720, Note_on_c, 9, 76, 120
7, 90720, Note_on_c, 9, 62, 120
7, 90720, Note_on_c, 9, 63, 120
7, 90720, Note_on_c, 9, 28, 120
7, 90720, Note_on_c, 9, 37, 120
7, 90720, Note_on_c, 9, 42, 120
7, 90720, Note_on_c, 9, 40, 120
7, 90720, Note_on_c, 9, 38, 120
7, 90720, Note_on_c, 9, 35, 120
7, 90720, Note_on_c, 9, 36, 120
7, 90720, Note_on_c, 9, 46, 120
7, 90777, Note_off_c, 9, 42, 0
7, 90777, Note_off_c, 9, 37, 0
7, 90777, Note_off_c, 9, 28, 0
7, 90777, Note_off_c, 9, 63, 0
7, 90777, Note_off_c, 9, 62, 0
7, 90777, Note_off_c, 9, 76, 0
7, 90780, Note_off_c, 9, 40, 0
7, 90780, Note_off_c, 9, 38, 0
7, 90780, Note_off_c, 9, 35, 0
7, 90780, Note_off_c, 9, 36, 0
7, 90780, Note_off_c, 9, 46, 0
7, 90960, Note_on_c, 9, 74, 120
7, 90960, Note_on_c, 9, 62, 120
7, 90960, Note_on_c, 9, 36, 120
7, 90960, Note_on_c, 9, 35, 120
7, 90960, Note_on_c, 9, 46, 120
7, 91017, Note_off_c, 9, 35, 0
7, 91017, Note_off_c, 9, 36, 0
7, 91017, Note_off_c, 9, 62, 0
7, 91020, Note_off_c, 9, 46, 0
7, 91188, Note_off_c, 9, 74, 0
7, 91200, Note_on_c, 9, 74, 120
7, 91200, Note_on_c, 9, 75, 120
7, 91200, Note_on_c, 9, 62, 120
7, 91200, Note_on_c, 9, 63, 120
7, 91200, Note_on_c, 9, 36, 120
7, 91200, Note_on_c, 9, 28, 120
7, 91200, Note_on_c, 9, 46, 120
7, 91257, Note_off_c, 9, 28, 0
7, 91257, Note_off_c, 9, 36, 0
7, 91257, Note_off_c, 9, 63, 0
7, 91257, Note_off_c, 9, 62, 0
7, 91260, Note_off_c, 9, 46, 0
7, 91440, Note_on_c, 9, 76, 120
7, 91440, Note_on_c, 9, 62, 120
7, 91440, Note_on_c, 9, 46, 120
7, 91440, Note_on_c, 9, 36, 120
7, 91440, Note_on_c, 9, 35, 120
7, 91497, Note_off_c, 9, 62, 0
7, 91497, Note_off_c, 9, 76, 0
7, 91500, Note_off_c, 9, 46, 0
7, 91500, Note_off_c, 9, 36, 0
7, 91500, Note_off_c, 9, 35, 0
7, 91656, Note_off_c, 9, 75, 0
7, 91656, Note_off_c, 9, 74, 0
7, 91680, Note_on_c, 9, 62, 120
7, 91680, Note_on_c, 9, 63, 120
7, 91680, Note_on_c, 9, 28, 120
7, 91680, Note_on_c, 9, 37, 120
7, 91680, Note_on_c, 9, 42, 120
7, 91680, Note_on_c, 9, 36, 120
7, 91680, Note_on_c, 9, 40, 120
7, 91680, Note_on_c, 9, 46, 120
7, 91680, Note_on_c, 9, 35, 120
7, 91680, Note_on_c, 9, 38, 120
7, 91737, Note_off_c, 9, 42, 0
7, 91737, Note_off_c, 9, 37, 0
7, 91737, Note_off_c, 9, 28, 0
7, 91737, Note_off_c, 9, 63, 0
7, 91737, Note_off_c, 9, 62, 0
7, 91740, Note_off_c, 9, 36, 0
7, 91740, Note_off_c, 9, 40, 0
7, 91740, Note_off_c, 9, 46, 0
7, 91740, Note_off_c, 9, 35, 0
7, 91740, Note_off_c, 9, 38, 0
7, 91796, Note_on_c, 9, 62, 120
7, 91853, Note_off_c, 9, 62, 0
7, 91920, Note_on_c, 9, 74, 120
7, 91920, Note_on_c, 9, 61, 120
7, 91920, Note_on_c, 9, 62, 120
7, 91920, Note_on_c, 9, 35, 120
7, 91920, Note_on_c, 9, 46, 120
7, 91920, Note_on_c, 9, 40, 120
7, 91920, Note_on_c, 9, 38, 120
7, 91977, Note_off_c, 9, 35, 0
7, 91977, Note_off_c, 9, 62, 0
7, 91977, Note_off_c, 9, 61, 0
7, 91980, Note_off_c, 9, 46, 0
7, 91980, Note_off_c, 9, 40, 0
7, 91980, Note_off_c, 9, 38, 0
7, 92043, Note_on_c, 9, 60, 120
7, 92043, Note_on_c, 9, 61, 120
7, 92043, Note_on_c, 9, 40, 120
7, 92043, Note_on_c, 9, 38, 120
7, 92043, Note_on_c, 9, 35, 120
7, 92100, Note_off_c, 9, 61, 0
7, 92100, Note_off_c, 9, 60, 0
7, 92103, Note_off_c, 9, 40, 0
7, 92103, Note_off_c, 9, 38, 0
7, 92103, Note_off_c, 9, 35, 0
7, 92148, Note_off_c, 9, 74, 0
7, 92160, Note_on_c, 9, 74, 120
7, 92160, Note_on_c, 9, 76, 120
7, 92160, Note_on_c, 9, 28, 120
7, 92160, Note_on_c, 9, 62, 120
7, 92160, Note_on_c, 9, 49, 120
7, 92160, Note_on_c, 9, 51, 120
7, 92160, Note_on_c, 9, 46, 120
7, 92160, Note_on_c, 9, 36, 120
7, 92160, Note_on_c, 9, 35, 120
7, 92160, Note_on_c, 9, 37, 120
7, 92160, Note_on_c, 9, 75, 120
7, 92217, Note_off_c, 9, 62, 0
7, 92217, Note_off_c, 9, 28, 0
7, 92217, Note_off_c, 9, 76, 0
7, 92220, Note_off_c, 9, 49, 0
7, 92220, Note_off_c, 9, 51, 0
7, 92220, Note_off_c, 9, 46, 0
7, 92220, Note_off_c, 9, 36, 0
7, 92220, Note_off_c, 9, 35, 0
7, 92220, Note_off_c, 9, 37, 0
7, 92400, Note_on_c, 9, 62, 120
7, 92400, Note_on_c, 9, 46, 120
7, 92400, Note_on_c, 9, 35, 120
7, 92400, Note_on_c, 9, 36, 120
7, 92457, Note_off_c, 9, 62, 0
7, 92460, Note_off_c, 9, 46, 0
7, 92460, Note_off_c, 9, 35, 0
7, 92460, Note_off_c, 9, 36, 0
7, 92616, Note_off_c, 9, 74, 0
7, 92616, Note_off_c, 9, 75, 0
7, 92640, Note_on_c, 9, 28, 120
7, 92640, Note_on_c, 9, 63, 120
7, 92640, Note_on_c, 9, 37, 120
7, 92640, Note_on_c, 9, 42, 120
7, 92640, Note_on_c, 9, 40, 120
7, 92640, Note_on_c, 9, 38, 120
7, 92640, Note_on_c, 9, 35, 120
7, 92640, Note_on_c, 9, 36, 120
7, 92640, Note_on_c, 9, 46, 120
7, 92697, Note_off_c, 9, 42, 0
7, 92697, Note_off_c, 9, 37, 0
7, 92697, Note_off_c, 9, 63, 0
7, 92697, Note_off_c, 9, 28, 0
7, 92700, Note_off_c, 9, 40, 0
7, 92700, Note_off_c, 9, 38, 0
7, 92700, Note_off_c, 9, 35, 0
7, 92700, Note_off_c, 9, 36, 0
7, 92700, Note_off_c, 9, 46, 0
7, 92880, Note_on_c, 9, 36, 120
7, 92880, Note_on_c, 9, 35, 120
7, 92880, Note_on_c, 9, 74, 120
7, 92880, Note_on_c, 9, 76, 120
7, 92880, Note_on_c, 9, 62, 120
7, 92880, Note_on_c, 9, 46, 120
7, 92937, Note_off_c, 9, 62, 0
7, 92937, Note_off_c, 9, 76, 0
7, 92937, Note_off_c, 9, 35, 0
7, 92937, Note_off_c, 9, 36, 0
7, 92940, Note_off_c, 9, 46, 0
7, 93108, Note_off_c, 9, 74, 0
7, 93120, Note_on_c, 9, 36, 120
7, 93120, Note_on_c, 9, 74, 120
7, 93120, Note_on_c, 9, 75, 120
7, 93120, Note_on_c, 9, 28, 120
7, 93120, Note_on_c, 9, 62, 120
7, 93120, Note_on_c, 9, 63, 120
7, 93120, Note_on_c, 9, 46, 120
7, 93177, Note_off_c, 9, 63, 0
7, 93177, Note_off_c, 9, 62, 0
7, 93177, Note_off_c, 9, 28, 0
7, 93177, Note_off_c, 9, 36, 0
7, 93180, Note_off_c, 9, 46, 0
7, 93360, Note_on_c, 9, 62, 120
7, 93360, Note_on_c, 9, 46, 120
7, 93360, Note_on_c, 9, 36, 120
7, 93360, Note_on_c, 9, 35, 120
7, 93417, Note_off_c, 9, 62, 0
7, 93420, Note_off_c, 9, 46, 0
7, 93420, Note_off_c, 9, 36, 0
7, 93420, Note_off_c, 9, 35, 0
7, 93576, Note_off_c, 9, 74, 0
7, 93576, Note_off_c, 9, 75, 0
7, 93600, Note_on_c, 9, 76, 120
7, 93600, Note_on_c, 9, 28, 120
7, 93600, Note_on_c, 9, 62, 120
7, 93600, Note_on_c, 9, 63, 120
7, 93600, Note_on_c, 9, 37, 120
7, 93600, Note_on_c, 9, 42, 120
7, 93600, Note_on_c, 9, 36, 120
7, 93600, Note_on_c, 9, 40, 120
7, 93600, Note_on_c, 9, 46, 120
7, 93600, Note_on_c, 9, 35, 120
7, 93600, Note_on_c, 9, 38, 120
7, 93657, Note_off_c, 9, 42, 0
7, 93657, Note_off_c, 9, 37, 0
7, 93657, Note_off_c, 9, 63, 0
7, 93657, Note_off_c, 9, 62, 0
7, 93657, Note_off_c, 9, 28, 0
7, 93657, Note_off_c, 9, 76, 0
7, 93660, Note_off_c, 9, 36, 0
7, 93660, Note_off_c, 9, 40, 0
7, 93660, Note_off_c, 9, 46, 0
7, 93660, Note_off_c, 9, 35, 0
7, 93660, Note_off_c, 9, 38, 0
7, 93840, Note_on_c, 9, 36, 120
7, 93840, Note_on_c, 9, 35, 120
7, 93840, Note_on_c, 9, 74, 120
7, 93840, Note_on_c, 9, 62, 120
7, 93840, Note_on_c, 9, 46, 120
7, 93897, Note_off_c, 9, 62, 0
7, 93897, Note_off_c, 9, 35, 0
7, 93897, Note_off_c, 9, 36, 0
7, 93900, Note_off_c, 9, 46, 0
7, 94068, Note_off_c, 9, 74, 0
7, 94080, Note_on_c, 9, 74, 120
7, 94080, Note_on_c, 9, 75, 120
7, 94080, Note_on_c, 9, 62, 120
7, 94080, Note_on_c, 9, 37, 120
7, 94080, Note_on_c, 9, 35, 120
7, 94080, Note_on_c, 9, 36, 120
7, 94080, Note_on_c, 9, 46, 120
7, 94080, Note_on_c, 9, 28, 120
7, 94137, Note_off_c, 9, 28, 0
7, 94137, Note_off_c, 9, 62, 0
7, 94140, Note_off_c, 9, 37, 0
7, 94140, Note_off_c, 9, 35, 0
7, 94140, Note_off_c, 9, 36, 0
7, 94140, Note_off_c, 9, 46, 0
7, 94320, Note_on_c, 9, 62, 120
7, 94320, Note_on_c, 9, 46, 120
7, 94320, Note_on_c, 9, 35, 120
7, 94320, Note_on_c, 9, 36, 120
7, 94377, Note_off_c, 9, 62, 0
7, 94380, Note_off_c, 9, 46, 0
7, 94380, Note_off_c, 9, 35, 0
7, 94380, Note_off_c, 9, 36, 0
7, 94536, Note_off_c, 9, 75, 0
7, 94536, Note_off_c, 9, 74, 0
7, 94560, Note_on_c, 9, 76, 120
7, 94560, Note_on_c, 9, 62, 120
7, 94560, Note_on_c, 9, 63, 120
7, 94560, Note_on_c, 9, 28, 120
7, 94560, Note_on_c, 9, 37, 120
7, 94560, Note_on_c, 9, 42, 120
7, 94560, Note_on_c, 9, 40, 120
7, 94560, Note_on_c, 9, 38, 120
7, 94560, Note_on_c, 9, 35, 120
7, 94560, Note_on_c, 9, 36, 120
7, 94560, Note_on_c, 9, 46, 120
7, 94617, Note_off_c, 9, 42, 0
7, 94617, Note_off_c, 9, 37, 0
7, 94617, Note_off_c, 9, 28, 0
7, 94617, Note_off_c, 9, 63, 0
7, 94617, Note_off_c, 9, 62, 0
7, 94617, Note_off_c, 9, 76, 0
7, 94620, Note_off_c, 9, 40, 0
7, 94620, Note_off_c, 9, 38, 0
7, 94620, Note_off_c, 9, 35, 0
7, 94620, Note_off_c, 9, 36, 0
7, 94620, Note_off_c, 9, 46, 0
7, 94800, Note_on_c, 9, 74, 120
7, 94800, Note_on_c, 9, 62, 120
7, 94800, Note_on_c, 9, 36, 120
7, 94800, Note_on_c, 9, 35, 120
7, 94800, Note_on_c, 9, 46, 120
7, 94857, Note_off_c, 9, 35, 0
7, 94857, Note_off_c, 9, 36, 0
7, 94857, Note_off_c, 9, 62, 0
7, 94860, Note_off_c, 9, 46, 0
7, 95028, Note_off_c, 9, 74, 0
7, 95040, Note_on_c, 9, 74, 120
7, 95040, Note_on_c, 9, 75, 120
7, 95040, Note_on_c, 9, 62, 120
7, 95040, Note_on_c, 9, 63, 120
7, 95040, Note_on_c, 9, 36, 120
7, 95040, Note_on_c, 9, 28, 120
7, 95040, Note_on_c, 9, 46, 120
7, 95097, Note_off_c, 9, 28, 0
7, 95097, Note_off_c, 9, 36, 0
7, 95097, Note_off_c, 9, 63, 0
7, 95097, Note_off_c, 9, 62, 0
7, 95100, Note_off_c, 9, 46, 0
7, 95280, Note_on_c, 9, 76, 120
7, 95280, Note_on_c, 9, 62, 120
7, 95280, Note_on_c, 9, 46, 120
7, 95280, Note_on_c, 9, 36, 120
7, 95280, Note_on_c, 9, 35, 120
7, 95337, Note_off_c, 9, 62, 0
7, 95337, Note_off_c, 9, 76, 0
7, 95340, Note_off_c, 9, 46, 0
7, 95340, Note_off_c, 9, 36, 0
7, 95340, Note_off_c, 9, 35, 0
7, 95496, Note_off_c, 9, 75, 0
7, 95496, Note_off_c, 9, 74, 0
7, 95520, Note_on_c, 9, 62, 120
7, 95520, Note_on_c, 9, 63, 120
7, 95520, Note_on_c, 9, 28, 120
7, 95520, Note_on_c, 9, 37, 120
7, 95520, Note_on_c, 9, 42, 120
7, 95520, Note_on_c, 9, 36, 120
7, 95520, Note_on_c, 9, 40, 120
7, 95520, Note_on_c, 9, 46, 120
7, 95520, Note_on_c, 9, 35, 120
7, 95520, Note_on_c, 9, 38, 120
7, 95577, Note_off_c, 9, 42, 0
7, 95577, Note_off_c, 9, 37, 0
7, 95577, Note_off_c, 9, 28, 0
7, 95577, Note_off_c, 9, 63, 0
7, 95577, Note_off_c, 9, 62, 0
7, 95580, Note_off_c, 9, 36, 0
7, 95580, Note_off_c, 9, 40, 0
7, 95580, Note_off_c, 9, 46, 0
7, 95580, Note_off_c, 9, 35, 0
7, 95580, Note_off_c, 9, 38, 0
7, 95636, Note_on_c, 9, 62, 120
7, 95693, Note_off_c, 9, 62, 0
7, 95760, Note_on_c, 9, 74, 120
7, 95760, Note_on_c, 9, 61, 120
7, 95760, Note_on_c, 9, 62, 120
7, 95760, Note_on_c, 9, 36, 120
7, 95760, Note_on_c, 9, 35, 120
7, 95760, Note_on_c, 9, 46, 120
7, 95817, Note_off_c, 9, 35, 0
7, 95817, Note_off_c, 9, 36, 0
7, 95817, Note_off_c, 9, 62, 0
7, 95817, Note_off_c, 9, 61, 0
7, 95820, Note_off_c, 9, 46, 0
7, 95883, Note_on_c, 9, 60, 120
7, 95883, Note_on_c, 9, 61, 120
7, 95940, Note_off_c, 9, 61, 0
7, 95940, Note_off_c, 9, 60, 0
7, 95988, Note_off_c, 9, 74, 0
7, 96000, Note_on_c, 9, 74, 120
7, 96000, Note_on_c, 9, 76, 120
7, 96000, Note_on_c, 9, 75, 120
7, 96000, Note_on_c, 9, 62, 120
7, 96000, Note_on_c, 9, 37, 120
7, 96000, Note_on_c, 9, 35, 120
7, 96000, Note_on_c, 9, 36, 120
7, 96000, Note_on_c, 9, 46, 120
7, 96000, Note_on_c, 9, 28, 120
7, 96057, Note_off_c, 9, 28, 0
7, 96057, Note_off_c, 9, 62, 0
7, 96057, Note_off_c, 9, 76, 0
7, 96060, Note_off_c, 9, 37, 0
7, 96060, Note_off_c, 9, 35, 0
7, 96060, Note_off_c, 9, 36, 0
7, 96060, Note_off_c, 9, 46, 0
7, 96240, Note_on_c, 9, 62, 120
7, 96240, Note_on_c, 9, 46, 120
7, 96240, Note_on_c, 9, 35, 120
7, 96240, Note_on_c, 9, 36, 120
7, 96297, Note_off_c, 9, 62, 0
7, 96300, Note_off_c, 9, 46, 0
7, 96300, Note_off_c, 9, 35, 0
7, 96300, Note_off_c, 9, 36, 0
7, 96456, Note_off_c, 9, 74, 0
7, 96456, Note_off_c, 9, 75, 0
7, 96480, Note_on_c, 9, 63, 120
7, 96480, Note_on_c, 9, 28, 120
7, 96480, Note_on_c, 9, 37, 120
7, 96480, Note_on_c, 9, 42, 120
7, 96480, Note_on_c, 9, 40, 120
7, 96480, Note_on_c, 9, 38, 120
7, 96480, Note_on_c, 9, 35, 120
7, 96480, Note_on_c, 9, 36, 120
7, 96480, Note_on_c, 9, 46, 120
7, 96537, Note_off_c, 9, 42, 0
7, 96537, Note_off_c, 9, 37, 0
7, 96537, Note_off_c, 9, 28, 0
7, 96537, Note_off_c, 9, 63, 0
7, 96540, Note_off_c, 9, 40, 0
7, 96540, Note_off_c, 9, 38, 0
7, 96540, Note_off_c, 9, 35, 0
7, 96540, Note_off_c, 9, 36, 0
7, 96540, Note_off_c, 9, 46, 0
7, 96720, Note_on_c, 9, 74, 120
7, 96720, Note_on_c, 9, 76, 120
7, 96720, Note_on_c, 9, 62, 120
7, 96720, Note_on_c, 9, 36, 120
7, 96720, Note_on_c, 9, 35, 120
7, 96720, Note_on_c, 9, 46, 120
7, 96777, Note_off_c, 9, 35, 0
7, 96777, Note_off_c, 9, 36, 0
7, 96777, Note_off_c, 9, 62, 0
7, 96777, Note_off_c, 9, 76, 0
7, 96780, Note_off_c, 9, 46, 0
7, 96948, Note_off_c, 9, 74, 0
7, 96960, Note_on_c, 9, 74, 120
7, 96960, Note_on_c, 9, 75, 120
7, 96960, Note_on_c, 9, 62, 120
7, 96960, Note_on_c, 9, 63, 120
7, 96960, Note_on_c, 9, 36, 120
7, 96960, Note_on_c, 9, 28, 120
7, 96960, Note_on_c, 9, 46, 120
7, 97017, Note_off_c, 9, 28, 0
7, 97017, Note_off_c, 9, 36, 0
7, 97017, Note_off_c, 9, 63, 0
7, 97017, Note_off_c, 9, 62, 0
7, 97020, Note_off_c, 9, 46, 0
7, 97200, Note_on_c, 9, 62, 120
7, 97200, Note_on_c, 9, 46, 120
7, 97200, Note_on_c, 9, 36, 120
7, 97200, Note_on_c, 9, 35, 120
7, 97257, Note_off_c, 9, 62, 0
7, 97260, Note_off_c, 9, 46, 0
7, 97260, Note_off_c, 9, 36, 0
7, 97260, Note_off_c, 9, 35, 0
7, 97416, Note_off_c, 9, 75, 0
7, 97416, Note_off_c, 9, 74, 0
7, 97440, Note_on_c, 9, 76, 120
7, 97440, Note_on_c, 9, 62, 120
7, 97440, Note_on_c, 9, 63, 120
7, 97440, Note_on_c, 9, 28, 120
7, 97440, Note_on_c, 9, 37, 120
7, 97440, Note_on_c, 9, 42, 120
7, 97440, Note_on_c, 9, 36, 120
7, 97440, Note_on_c, 9, 40, 120
7, 97440, Note_on_c, 9, 46, 120
7, 97440, Note_on_c, 9, 35, 120
7, 97440, Note_on_c, 9, 38, 120
7, 97497, Note_off_c, 9, 42, 0
7, 97497, Note_off_c, 9, 37, 0
7, 97497, Note_off_c, 9, 28, 0
7, 97497, Note_off_c, 9, 63, 0
7, 97497, Note_off_c, 9, 62, 0
7, 97497, Note_off_c, 9, 76, 0
7, 97500, Note_off_c, 9, 36, 0
7, 97500, Note_off_c, 9, 40, 0
7, 97500, Note_off_c, 9, 46, 0
7, 97500, Note_off_c, 9, 35, 0
7, 97500, Note_off_c, 9, 38, 0
7, 97680, Note_on_c, 9, 74, 120
7, 97680, Note_on_c, 9, 62, 120
7, 97680, Note_on_c, 9, 36, 120
7, 97680, Note_on_c, 9, 35, 120
7, 97680, Note_on_c, 9, 46, 120
7, 97737, Note_off_c, 9, 35, 0
7, 97737, Note_off_c, 9, 36, 0
7, 97737, Note_off_c, 9, 62, 0
7, 97740, Note_off_c, 9, 46, 0
7, 97908, Note_off_c, 9, 74, 0
7, 97920, Note_on_c, 9, 74, 120
7, 97920, Note_on_c, 9, 75, 120
7, 97920, Note_on_c, 9, 62, 120
7, 97920, Note_on_c, 9, 37, 120
7, 97920, Note_on_c, 9, 35, 120
7, 97920, Note_on_c, 9, 36, 120
7, 97920, Note_on_c, 9, 46, 120
7, 97920, Note_on_c, 9, 28, 120
7, 97977, Note_off_c, 9, 28, 0
7, 97977, Note_off_c, 9, 62, 0
7, 97980, Note_off_c, 9, 37, 0
7, 97980, Note_off_c, 9, 35, 0
7, 97980, Note_off_c, 9, 36, 0
7, 97980, Note_off_c, 9, 46, 0
7, 98160, Note_on_c, 9, 62, 120
7, 98160, Note_on_c, 9, 46, 120
7, 98160, Note_on_c, 9, 35, 120
7, 98160, Note_on_c, 9, 36, 120
7, 98217, Note_off_c, 9, 62, 0
7, 98220, Note_off_c, 9, 46, 0
7, 98220, Note_off_c, 9, 35, 0
7, 98220, Note_off_c, 9, 36, 0
7, 98376, Note_off_c, 9, 75, 0
7, 98376, Note_off_c, 9, 74, 0
7, 98400, Note_on_c, 9, 76, 120
7, 98400, Note_on_c, 9, 62, 120
7, 98400, Note_on_c, 9, 63, 120
7, 98400, Note_on_c, 9, 28, 120
7, 98400, Note_on_c, 9, 37, 120
7, 98400, Note_on_c, 9, 42, 120
7, 98400, Note_on_c, 9, 40, 120
7, 98400, Note_on_c, 9, 38, 120
7, 98400, Note_on_c, 9, 35, 120
7, 98400, Note_on_c, 9, 36, 120
7, 98400, Note_on_c, 9, 46, 120
7, 98457, Note_off_c, 9, 42, 0
7, 98457, Note_off_c, 9, 37, 0
7, 98457, Note_off_c, 9, 28, 0
7, 98457, Note_off_c, 9, 63, 0
7, 98457, Note_off_c, 9, 62, 0
7, 98457, Note_off_c, 9, 76, 0
7, 98460, Note_off_c, 9, 40, 0
7, 98460, Note_off_c, 9, 38, 0
7, 98460, Note_off_c, 9, 35, 0
7, 98460, Note_off_c, 9, 36, 0
7, 98460, Note_off_c, 9, 46, 0
7, 98640, Note_on_c, 9, 74, 120
7, 98640, Note_on_c, 9, 62, 120
7, 98640, Note_on_c, 9, 36, 120
7, 98640, Note_on_c, 9, 35, 120
7, 98640, Note_on_c, 9, 46, 120
7, 98697, Note_off_c, 9, 35, 0
7, 98697, Note_off_c, 9, 36, 0
7, 98697, Note_off_c, 9, 62, 0
7, 98700, Note_off_c, 9, 46, 0
7, 98868, Note_off_c, 9, 74, 0
7, 98880, Note_on_c, 9, 74, 120
7, 98880, Note_on_c, 9, 75, 120
7, 98880, Note_on_c, 9, 62, 120
7, 98880, Note_on_c, 9, 63, 120
7, 98880, Note_on_c, 9, 36, 120
7, 98880, Note_on_c, 9, 28, 120
7, 98880, Note_on_c, 9, 46, 120
7, 98937, Note_off_c, 9, 28, 0
7, 98937, Note_off_c, 9, 36, 0
7, 98937, Note_off_c, 9, 63, 0
7, 98937, Note_off_c, 9, 62, 0
7, 98940, Note_off_c, 9, 46, 0
7, 99120, Note_on_c, 9, 76, 120
7, 99120, Note_on_c, 9, 62, 120
7, 99120, Note_on_c, 9, 46, 120
7, 99120, Note_on_c, 9, 36, 120
7, 99120, Note_on_c, 9, 35, 120
7, 99177, Note_off_c, 9, 62, 0
7, 99177, Note_off_c, 9, 76, 0
7, 99180, Note_off_c, 9, 46, 0
7, 99180, Note_off_c, 9, 36, 0
7, 99180, Note_off_c, 9, 35, 0
7, 99336, Note_off_c, 9, 75, 0
7, 99336, Note_off_c, 9, 74, 0
7, 99360, Note_on_c, 9, 62, 120
7, 99360, Note_on_c, 9, 63, 120
7, 99360, Note_on_c, 9, 28, 120
7, 99360, Note_on_c, 9, 37, 120
7, 99360, Note_on_c, 9, 42, 120
7, 99360, Note_on_c, 9, 36, 120
7, 99360, Note_on_c, 9, 40, 120
7, 99360, Note_on_c, 9, 46, 120
7, 99360, Note_on_c, 9, 35, 120
7, 99360, Note_on_c, 9, 38, 120
7, 99417, Note_off_c, 9, 42, 0
7, 99417, Note_off_c, 9, 37, 0
7, 99417, Note_off_c, 9, 28, 0
7, 99417, Note_off_c, 9, 63, 0
7, 99417, Note_off_c, 9, 62, 0
7, 99420, Note_off_c, 9, 36, 0
7, 99420, Note_off_c, 9, 40, 0
7, 99420, Note_off_c, 9, 46, 0
7, 99420, Note_off_c, 9, 35, 0
7, 99420, Note_off_c, 9, 38, 0
7, 99476, Note_on_c, 9, 62, 120
7, 99533, Note_off_c, 9, 62, 0
7, 99600, Note_on_c, 9, 74, 120
7, 99600, Note_on_c, 9, 61, 120
7, 99600, Note_on_c, 9, 62, 120
7, 99600, Note_on_c, 9, 36, 120
7, 99600, Note_on_c, 9, 35, 120
7, 99600, Note_on_c, 9, 46, 120
7, 99657, Note_off_c, 9, 35, 0
7, 99657, Note_off_c, 9, 36, 0
7, 99657, Note_off_c, 9, 62, 0
7, 99657, Note_off_c, 9, 61, 0
7, 99660, Note_off_c, 9, 46, 0
7, 99723, Note_on_c, 9, 60, 120
7, 99723, Note_on_c, 9, 61, 120
7, 99780, Note_off_c, 9, 61, 0
7, 99780, Note_off_c, 9, 60, 0
7, 99828, Note_off_c, 9, 74, 0
7, 99840, Note_on_c, 9, 62, 120
7, 99840, Note_on_c, 9, 75, 120
7, 99840, Note_on_c, 9, 76, 120
7, 99840, Note_on_c, 9, 74, 120
7, 99840, Note_on_c, 9, 37, 120
7, 99840, Note_on_c, 9, 35, 120
7, 99840, Note_on_c, 9, 36, 120
7, 99840, Note_on_c, 9, 46, 120
7, 99840, Note_on_c, 9, 28, 120
7, 99897, Note_off_c, 9, 28, 0
7, 99897, Note_off_c, 9, 76, 0
7, 99897, Note_off_c, 9, 62, 0
7, 99900, Note_off_c, 9, 37, 0
7, 99900, Note_off_c, 9, 35, 0
7, 99900, Note_off_c, 9, 36, 0
7, 99900, Note_off_c, 9, 46, 0
7, 100080, Note_on_c, 9, 62, 120
7, 100080, Note_on_c, 9, 46, 120
7, 100080, Note_on_c, 9, 35, 120
7, 100080, Note_on_c, 9, 36, 120
7, 100137, Note_off_c, 9, 62, 0
7, 100140, Note_off_c, 9, 46, 0
7, 100140, Note_off_c, 9, 35, 0
7, 100140, Note_off_c, 9, 36, 0
7, 100296, Note_off_c, 9, 75, 0
7, 100296, Note_off_c, 9, 74, 0
7, 100320, Note_on_c, 9, 63, 120
7, 100320, Note_on_c, 9, 28, 120
7, 100320, Note_on_c, 9, 37, 120
7, 100320, Note_on_c, 9, 42, 120
7, 100320, Note_on_c, 9, 40, 120
7, 100320, Note_on_c, 9, 38, 120
7, 100320, Note_on_c, 9, 35, 120
7, 100320, Note_on_c, 9, 36, 120
7, 100320, Note_on_c, 9, 46, 120
7, 100377, Note_off_c, 9, 42, 0
7, 100377, Note_off_c, 9, 37, 0
7, 100377, Note_off_c, 9, 28, 0
7, 100377, Note_off_c, 9, 63, 0
7, 100380, Note_off_c, 9, 40, 0
7, 100380, Note_off_c, 9, 38, 0
7, 100380, Note_off_c, 9, 35, 0
7, 100380, Note_off_c, 9, 36, 0
7, 100380, Note_off_c, 9, 46, 0
7, 100560, Note_on_c, 9, 74, 120
7, 100560, Note_on_c, 9, 76, 120
7, 100560, Note_on_c, 9, 62, 120
7, 100560, Note_on_c, 9, 36, 120
7, 100560, Note_on_c, 9, 35, 120
7, 100560, Note_on_c, 9, 46, 120
7, 100617, Note_off_c, 9, 35, 0
7, 100617, Note_off_c, 9, 36, 0
7, 100617, Note_off_c, 9, 62, 0
7, 100617, Note_off_c, 9, 76, 0
7, 100620, Note_off_c, 9, 46, 0
7, 100788, Note_off_c, 9, 74, 0
7, 100800, Note_on_c, 9, 74, 120
7, 100800, Note_on_c, 9, 75, 120
7, 100800, Note_on_c, 9, 62, 120
7, 100800, Note_on_c, 9, 63, 120
7, 100800, Note_on_c, 9, 36, 120
7, 100800, Note_on_c, 9, 28, 120
7, 100800, Note_on_c, 9, 46, 120
7, 100857, Note_off_c, 9, 28, 0
7, 100857, Note_off_c, 9, 36, 0
7, 100857, Note_off_c, 9, 63, 0
7, 100857, Note_off_c, 9, 62, 0
7, 100860, Note_off_c, 9, 46, 0
7, 101040, Note_on_c, 9, 62, 120
7, 101040, Note_on_c, 9, 46, 120
7, 101040, Note_on_c, 9, 36, 120
7, 101040, Note_on_c, 9, 35, 120
7, 101097, Note_off_c, 9, 62, 0
7, 101100, Note_off_c, 9, 46, 0
7, 101100, Note_off_c, 9, 36, 0
7, 101100, Note_off_c, 9, 35, 0
7, 101256, Note_off_c, 9, 75, 0
7, 101256, Note_off_c, 9, 74, 0
7, 101280, Note_on_c, 9, 76, 120
7, 101280, Note_on_c, 9, 62, 120
7, 101280, Note_on_c, 9, 63, 120
7, 101280, Note_on_c, 9, 28, 120
7, 101280, Note_on_c, 9, 37, 120
7, 101280, Note_on_c, 9, 42, 120
7, 101280, Note_on_c, 9, 36, 120
7, 101280, Note_on_c, 9, 40, 120
7, 101280, Note_on_c, 9, 46, 120
7, 101280, Note_on_c, 9, 35, 120
7, 101280, Note_on_c, 9, 38, 120
7, 101337, Note_off_c, 9, 42, 0
7, 101337, Note_off_c, 9, 37, 0
7, 101337, Note_off_c, 9, 28, 0
7, 101337, Note_off_c, 9, 63, 0
7, 101337, Note_off_c, 9, 62, 0
7, 101337, Note_off_c, 9, 76, 0
7, 101340, Note_off_c, 9, 36, 0
7, 101340, Note_off_c, 9, 40, 0
7, 101340, Note_off_c, 9, 46, 0
7, 101340, Note_off_c, 9, 35, 0
7, 101340, Note_off_c, 9, 38, 0
7, 101520, Note_on_c, 9, 74, 120
7, 101520, Note_on_c, 9, 62, 120
7, 101520, Note_on_c, 9, 36, 120
7, 101520, Note_on_c, 9, 35, 120
7, 101520, Note_on_c, 9, 46, 120
7, 101577, Note_off_c, 9, 35, 0
7, 101577, Note_off_c, 9, 36, 0
7, 101577, Note_off_c, 9, 62, 0
7, 101580, Note_off_c, 9, 46, 0
7, 101748, Note_off_c, 9, 74, 0
7, 101760, Note_on_c, 9, 74, 120
7, 101760, Note_on_c, 9, 75, 120
7, 101760, Note_on_c, 9, 62, 120
7, 101760, Note_on_c, 9, 37, 120
7, 101760, Note_on_c, 9, 35, 120
7, 101760, Note_on_c, 9, 36, 120
7, 101760, Note_on_c, 9, 46, 120
7, 101760, Note_on_c, 9, 28, 120
7, 101817, Note_off_c, 9, 28, 0
7, 101817, Note_off_c, 9, 62, 0
7, 101820, Note_off_c, 9, 37, 0
7, 101820, Note_off_c, 9, 35, 0
7, 101820, Note_off_c, 9, 36, 0
7, 101820, Note_off_c, 9, 46, 0
7, 102000, Note_on_c, 9, 62, 120
7, 102000, Note_on_c, 9, 46, 120
7, 102000, Note_on_c, 9, 35, 120
7, 102000, Note_on_c, 9, 36, 120
7, 102057, Note_off_c, 9, 62, 0
7, 102060, Note_off_c, 9, 46, 0
7, 102060, Note_off_c, 9, 35, 0
7, 102060, Note_off_c, 9, 36, 0
7, 102216, Note_off_c, 9, 75, 0
7, 102216, Note_off_c, 9, 74, 0
7, 102240, Note_on_c, 9, 76, 120
7, 102240, Note_on_c, 9, 62, 120
7, 102240, Note_on_c, 9, 63, 120
7, 102240, Note_on_c, 9, 28, 120
7, 102240, Note_on_c, 9, 37, 120
7, 102240, Note_on_c, 9, 42, 120
7, 102240, Note_on_c, 9, 40, 120
7, 102240, Note_on_c, 9, 38, 120
7, 102240, Note_on_c, 9, 35, 120
7, 102240, Note_on_c, 9, 36, 120
7, 102240, Note_on_c, 9, 46, 120
7, 102297, Note_off_c, 9, 42, 0
7, 102297, Note_off_c, 9, 37, 0
7, 102297, Note_off_c, 9, 28, 0
7, 102297, Note_off_c, 9, 63, 0
7, 102297, Note_off_c, 9, 62, 0
7, 102297, Note_off_c, 9, 76, 0
7, 102300, Note_off_c, 9, 40, 0
7, 102300, Note_off_c, 9, 38, 0
7, 102300, Note_off_c, 9, 35, 0
7, 102300, Note_off_c, 9, 36, 0
7, 102300, Note_off_c, 9, 46, 0
7, 102480, Note_on_c, 9, 74, 120
7, 102480, Note_on_c, 9, 62, 120
7, 102480, Note_on_c, 9, 36, 120
7, 102480, Note_on_c, 9, 35, 120
7, 102480, Note_on_c, 9, 46, 120
7, 102537, Note_off_c, 9, 35, 0
7, 102537, Note_off_c, 9, 36, 0
7, 102537, Note_off_c, 9, 62, 0
7, 102540, Note_off_c, 9, 46, 0
7, 102708, Note_off_c, 9, 74, 0
7, 102720, Note_on_c, 9, 74, 120
7, 102720, Note_on_c, 9, 75, 120
7, 102720, Note_on_c, 9, 62, 120
7, 102720, Note_on_c, 9, 63, 120
7, 102720, Note_on_c, 9, 36, 120
7, 102720, Note_on_c, 9, 28, 120
7, 102720, Note_on_c, 9, 46, 120
7, 102777, Note_off_c, 9, 28, 0
7, 102777, Note_off_c, 9, 36, 0
7, 102777, Note_off_c, 9, 63, 0
7, 102777, Note_off_c, 9, 62, 0
7, 102780, Note_off_c, 9, 46, 0
7, 102960, Note_on_c, 9, 76, 120
7, 102960, Note_on_c, 9, 62, 120
7, 102960, Note_on_c, 9, 46, 120
7, 102960, Note_on_c, 9, 36, 120
7, 102960, Note_on_c, 9, 35, 120
7, 103017, Note_off_c, 9, 62, 0
7, 103017, Note_off_c, 9, 76, 0
7, 103020, Note_off_c, 9, 46, 0
7, 103020, Note_off_c, 9, 36, 0
7, 103020, Note_off_c, 9, 35, 0
7, 103176, Note_off_c, 9, 75, 0
7, 103176, Note_off_c, 9, 74, 0
7, 103200, Note_on_c, 9, 62, 120
7, 103200, Note_on_c, 9, 63, 120
7, 103200, Note_on_c, 9, 28, 120
7, 103200, Note_on_c, 9, 37, 120
7, 103200, Note_on_c, 9, 42, 120
7, 103200, Note_on_c, 9, 36, 120
7, 103200, Note_on_c, 9, 40, 120
7, 103200, Note_on_c, 9, 46, 120
7, 103200, Note_on_c, 9, 35, 120
7, 103200, Note_on_c, 9, 38, 120
7, 103257, Note_off_c, 9, 42, 0
7, 103257, Note_off_c, 9, 37, 0
7, 103257, Note_off_c, 9, 28, 0
7, 103257, Note_off_c, 9, 63, 0
7, 103257, Note_off_c, 9, 62, 0
7, 103260, Note_off_c, 9, 36, 0
7, 103260, Note_off_c, 9, 40, 0
7, 103260, Note_off_c, 9, 46, 0
7, 103260, Note_off_c, 9, 35, 0
7, 103260, Note_off_c, 9, 38, 0
7, 103316, Note_on_c, 9, 62, 120
7, 103373, Note_off_c, 9, 62, 0
7, 103440, Note_on_c, 9, 74, 120
7, 103440, Note_on_c, 9, 61, 120
7, 103440, Note_on_c, 9, 62, 120
7, 103440, Note_on_c, 9, 36, 120
7, 103440, Note_on_c, 9, 35, 120
7, 103440, Note_on_c, 9, 46, 120
7, 103497, Note_off_c, 9, 35, 0
7, 103497, Note_off_c, 9, 36, 0
7, 103497, Note_off_c, 9, 62, 0
7, 103497, Note_off_c, 9, 61, 0
7, 103500, Note_off_c, 9, 46, 0
7, 103563, Note_on_c, 9, 60, 120
7, 103563, Note_on_c, 9, 61, 120
7, 103620, Note_off_c, 9, 61, 0
7, 103620, Note_off_c, 9, 60, 0
7, 103668, Note_off_c, 9, 74, 0
7, 103680, Note_on_c, 9, 74, 120
7, 103680, Note_on_c, 9, 76, 120
7, 103680, Note_on_c, 9, 75, 120
7, 103680, Note_on_c, 9, 62, 120
7, 103680, Note_on_c, 9, 37, 120
7, 103680, Note_on_c, 9, 35, 120
7, 103680, Note_on_c, 9, 36, 120
7, 103680, Note_on_c, 9, 46, 120
7, 103680, Note_on_c, 9, 28, 120
7, 103737, Note_off_c, 9, 28, 0
7, 103737, Note_off_c, 9, 62, 0
7, 103737, Note_off_c, 9, 76, 0
7, 103740, Note_off_c, 9, 37, 0
7, 103740, Note_off_c, 9, 35, 0
7, 103740, Note_off_c, 9, 36, 0
7, 103740, Note_off_c, 9, 46, 0
7, 103920, Note_on_c, 9, 62, 120
7, 103920, Note_on_c, 9, 46, 120
7, 103920, Note_on_c, 9, 35, 120
7, 103920, Note_on_c, 9, 36, 120
7, 103977, Note_off_c, 9, 62, 0
7, 103980, Note_off_c, 9, 46, 0
7, 103980, Note_off_c, 9, 35, 0
7, 103980, Note_off_c, 9, 36, 0
7, 104136, Note_off_c, 9, 74, 0
7, 104136, Note_off_c, 9, 75, 0
7, 104160, Note_on_c, 9, 63, 120
7, 104160, Note_on_c, 9, 28, 120
7, 104160, Note_on_c, 9, 37, 120
7, 104160, Note_on_c, 9, 42, 120
7, 104160, Note_on_c, 9, 40, 120
7, 104160, Note_on_c, 9, 38, 120
7, 104160, Note_on_c, 9, 35, 120
7, 104160, Note_on_c, 9, 36, 120
7, 104160, Note_on_c, 9, 46, 120
7, 104217, Note_off_c, 9, 42, 0
7, 104217, Note_off_c, 9, 37, 0
7, 104217, Note_off_c, 9, 28, 0
7, 104217, Note_off_c, 9, 63, 0
7, 104220, Note_off_c, 9, 40, 0
7, 104220, Note_off_c, 9, 38, 0
7, 104220, Note_off_c, 9, 35, 0
7, 104220, Note_off_c, 9, 36, 0
7, 104220, Note_off_c, 9, 46, 0
7, 104400, Note_on_c, 9, 74, 120
7, 104400, Note_on_c, 9, 76, 120
7, 104400, Note_on_c, 9, 62, 120
7, 104400, Note_on_c, 9, 36, 120
7, 104400, Note_on_c, 9, 35, 120
7, 104400, Note_on_c, 9, 46, 120
7, 104457, Note_off_c, 9, 35, 0
7, 104457, Note_off_c, 9, 36, 0
7, 104457, Note_off_c, 9, 62, 0
7, 104457, Note_off_c, 9, 76, 0
7, 104460, Note_off_c, 9, 46, 0
7, 104628, Note_off_c, 9, 74, 0
7, 104640, Note_on_c, 9, 74, 120
7, 104640, Note_on_c, 9, 75, 120
7, 104640, Note_on_c, 9, 62, 120
7, 104640, Note_on_c, 9, 63, 120
7, 104640, Note_on_c, 9, 36, 120
7, 104640, Note_on_c, 9, 28, 120
7, 104640, Note_on_c, 9, 46, 120
7, 104697, Note_off_c, 9, 28, 0
7, 104697, Note_off_c, 9, 36, 0
7, 104697, Note_off_c, 9, 63, 0
7, 104697, Note_off_c, 9, 62, 0
7, 104700, Note_off_c, 9, 46, 0
7, 104880, Note_on_c, 9, 62, 120
7, 104880, Note_on_c, 9, 46, 120
7, 104880, Note_on_c, 9, 36, 120
7, 104880, Note_on_c, 9, 35, 120
7, 104937, Note_off_c, 9, 62, 0
7, 104940, Note_off_c, 9, 46, 0
7, 104940, Note_off_c, 9, 36, 0
7, 104940, Note_off_c, 9, 35, 0
7, 105096, Note_off_c, 9, 75, 0
7, 105096, Note_off_c, 9, 74, 0
7, 105120, Note_on_c, 9, 76, 120
7, 105120, Note_on_c, 9, 62, 120
7, 105120, Note_on_c, 9, 63, 120
7, 105120, Note_on_c, 9, 28, 120
7, 105120, Note_on_c, 9, 37, 120
7, 105120, Note_on_c, 9, 42, 120
7, 105120, Note_on_c, 9, 36, 120
7, 105120, Note_on_c, 9, 40, 120
7, 105120, Note_on_c, 9, 46, 120
7, 105120, Note_on_c, 9, 35, 120
7, 105120, Note_on_c, 9, 38, 120
7, 105177, Note_off_c, 9, 42, 0
7, 105177, Note_off_c, 9, 37, 0
7, 105177, Note_off_c, 9, 28, 0
7, 105177, Note_off_c, 9, 63, 0
7, 105177, Note_off_c, 9, 62, 0
7, 105177, Note_off_c, 9, 76, 0
7, 105180, Note_off_c, 9, 36, 0
7, 105180, Note_off_c, 9, 40, 0
7, 105180, Note_off_c, 9, 46, 0
7, 105180, Note_off_c, 9, 35, 0
7, 105180, Note_off_c, 9, 38, 0
7, 105360, Note_on_c, 9, 74, 120
7, 105360, Note_on_c, 9, 62, 120
7, 105360, Note_on_c, 9, 36, 120
7, 105360, Note_on_c, 9, 35, 120
7, 105360, Note_on_c, 9, 46, 120
7, 105417, Note_off_c, 9, 35, 0
7, 105417, Note_off_c, 9, 36, 0
7, 105417, Note_off_c, 9, 62, 0
7, 105420, Note_off_c, 9, 46, 0
7, 105588, Note_off_c, 9, 74, 0
7, 105600, Note_on_c, 9, 74, 120
7, 105600, Note_on_c, 9, 75, 120
7, 105600, Note_on_c, 9, 62, 120
7, 105600, Note_on_c, 9, 37, 120
7, 105600, Note_on_c, 9, 35, 120
7, 105600, Note_on_c, 9, 36, 120
7, 105600, Note_on_c, 9, 46, 120
7, 105600, Note_on_c, 9, 28, 120
7, 105657, Note_off_c, 9, 28, 0
7, 105657, Note_off_c, 9, 62, 0
7, 105660, Note_off_c, 9, 37, 0
7, 105660, Note_off_c, 9, 35, 0
7, 105660, Note_off_c, 9, 36, 0
7, 105660, Note_off_c, 9, 46, 0
7, 105840, Note_on_c, 9, 62, 120
7, 105840, Note_on_c, 9, 46, 120
7, 105840, Note_on_c, 9, 35, 120
7, 105840, Note_on_c, 9, 36, 120
7, 105897, Note_off_c, 9, 62, 0
7, 105900, Note_off_c, 9, 46, 0
7, 105900, Note_off_c, 9, 35, 0
7, 105900, Note_off_c, 9, 36, 0
7, 106056, Note_off_c, 9, 75, 0
7, 106056, Note_off_c, 9, 74, 0
7, 106080, Note_on_c, 9, 76, 120
7, 106080, Note_on_c, 9, 62, 120
7, 106080, Note_on_c, 9, 63, 120
7, 106080, Note_on_c, 9, 28, 120
7, 106080, Note_on_c, 9, 37, 120
7, 106080, Note_on_c, 9, 42, 120
7, 106080, Note_on_c, 9, 40, 120
7, 106080, Note_on_c, 9, 38, 120
7, 106080, Note_on_c, 9, 35, 120
7, 106080, Note_on_c, 9, 36, 120
7, 106080, Note_on_c, 9, 46, 120
7, 106137, Note_off_c, 9, 42, 0
7, 106137, Note_off_c, 9, 37, 0
7, 106137, Note_off_c, 9, 28, 0
7, 106137, Note_off_c, 9, 63, 0
7, 106137, Note_off_c, 9, 62, 0
7, 106137, Note_off_c, 9, 76, 0
7, 106140, Note_off_c, 9, 40, 0
7, 106140, Note_off_c, 9, 38, 0
7, 106140, Note_off_c, 9, 35, 0
7, 106140, Note_off_c, 9, 36, 0
7, 106140, Note_off_c, 9, 46, 0
7, 106320, Note_on_c, 9, 74, 120
7, 106320, Note_on_c, 9, 62, 120
7, 106320, Note_on_c, 9, 36, 120
7, 106320, Note_on_c, 9, 35, 120
7, 106320, Note_on_c, 9, 46, 120
7, 106377, Note_off_c, 9, 35, 0
7, 106377, Note_off_c, 9, 36, 0
7, 106377, Note_off_c, 9, 62, 0
7, 106380, Note_off_c, 9, 46, 0
7, 106548, Note_off_c, 9, 74, 0
7, 106560, Note_on_c, 9, 74, 120
7, 106560, Note_on_c, 9, 75, 120
7, 106560, Note_on_c, 9, 62, 120
7, 106560, Note_on_c, 9, 63, 120
7, 106560, Note_on_c, 9, 36, 120
7, 106560, Note_on_c, 9, 28, 120
7, 106560, Note_on_c, 9, 46, 120
7, 106617, Note_off_c, 9, 28, 0
7, 106617, Note_off_c, 9, 36, 0
7, 106617, Note_off_c, 9, 63, 0
7, 106617, Note_off_c, 9, 62, 0
7, 106620, Note_off_c, 9, 46, 0
7, 106800, Note_on_c, 9, 76, 120
7, 106800, Note_on_c, 9, 62, 120
7, 106800, Note_on_c, 9, 46, 120
7, 106800, Note_on_c, 9, 36, 120
7, 106800, Note_on_c, 9, 35, 120
7, 106857, Note_off_c, 9, 62, 0
7, 106857, Note_off_c, 9, 76, 0
7, 106860, Note_off_c, 9, 46, 0
7, 106860, Note_off_c, 9, 36, 0
7, 106860, Note_off_c, 9, 35, 0
7, 107016, Note_off_c, 9, 75, 0
7, 107016, Note_off_c, 9, 74, 0
7, 107040, Note_on_c, 9, 62, 120
7, 107040, Note_on_c, 9, 63, 120
7, 107040, Note_on_c, 9, 28, 120
7, 107040, Note_on_c, 9, 37, 120
7, 107040, Note_on_c, 9, 42, 120
7, 107040, Note_on_c, 9, 36, 120
7, 107040, Note_on_c, 9, 40, 120
7, 107040, Note_on_c, 9, 46, 120
7, 107040, Note_on_c, 9, 35, 120
7, 107040, Note_on_c, 9, 38, 120
7, 107097, Note_off_c, 9, 42, 0
7, 107097, Note_off_c, 9, 37, 0
7, 107097, Note_off_c, 9, 28, 0
7, 107097, Note_off_c, 9, 63, 0
7, 107097, Note_off_c, 9, 62, 0
7, 107100, Note_off_c, 9, 36, 0
7, 107100, Note_off_c, 9, 40, 0
7, 107100, Note_off_c, 9, 46, 0
7, 107100, Note_off_c, 9, 35, 0
7, 107100, Note_off_c, 9, 38, 0
7, 107156, Note_on_c, 9, 62, 120
7, 107213, Note_off_c, 9, 62, 0
7, 107280, Note_on_c, 9, 74, 120
7, 107280, Note_on_c, 9, 61, 120
7, 107280, Note_on_c, 9, 62, 120
7, 107280, Note_on_c, 9, 35, 120
7, 107280, Note_on_c, 9, 46, 120
7, 107280, Note_on_c, 9, 40, 120
7, 107280, Note_on_c, 9, 38, 120
7, 107337, Note_off_c, 9, 35, 0
7, 107337, Note_off_c, 9, 62, 0
7, 107337, Note_off_c, 9, 61, 0
7, 107340, Note_off_c, 9, 46, 0
7, 107340, Note_off_c, 9, 40, 0
7, 107340, Note_off_c, 9, 38, 0
7, 107403, Note_on_c, 9, 60, 120
7, 107403, Note_on_c, 9, 61, 120
7, 107403, Note_on_c, 9, 40, 120
7, 107403, Note_on_c, 9, 38, 120
7, 107403, Note_on_c, 9, 35, 120
7, 107460, Note_off_c, 9, 61, 0
7, 107460, Note_off_c, 9, 60, 0
7, 107463, Note_off_c, 9, 40, 0
7, 107463, Note_off_c, 9, 38, 0
7, 107463, Note_off_c, 9, 35, 0
7, 107508, Note_off_c, 9, 74, 0
7, 107520, Note_on_c, 9, 74, 120
7, 107520, Note_on_c, 9, 76, 120
7, 107520, Note_on_c, 9, 28, 120
7, 107520, Note_on_c, 9, 62, 120
7, 107520, Note_on_c, 9, 49, 120
7, 107520, Note_on_c, 9, 51, 120
7, 107520, Note_on_c, 9, 46, 120
7, 107520, Note_on_c, 9, 36, 120
7, 107520, Note_on_c, 9, 35, 120
7, 107520, Note_on_c, 9, 37, 120
7, 107520, Note_on_c, 9, 75, 120
7, 107577, Note_off_c, 9, 62, 0
7, 107577, Note_off_c, 9, 28, 0
7, 107577, Note_off_c, 9, 76, 0
7, 107580, Note_off_c, 9, 49, 0
7, 107580, Note_off_c, 9, 51, 0
7, 107580, Note_off_c, 9, 46, 0
7, 107580, Note_off_c, 9, 36, 0
7, 107580, Note_off_c, 9, 35, 0
7, 107580, Note_off_c, 9, 37, 0
7, 107760, Note_on_c, 9, 62, 120
7, 107760, Note_on_c, 9, 46, 120
7, 107760, Note_on_c, 9, 35, 120
7, 107760, Note_on_c, 9, 36, 120
7, 107817, Note_off_c, 9, 62, 0
7, 107820, Note_off_c, 9, 46, 0
7, 107820, Note_off_c, 9, 35, 0
7, 107820, Note_off_c, 9, 36, 0
7, 107976, Note_off_c, 9, 74, 0
7, 107976, Note_off_c, 9, 75, 0
7, 108000, Note_on_c, 9, 28, 120
7, 108000, Note_on_c, 9, 63, 120
7, 108000, Note_on_c, 9, 37, 120
7, 108000, Note_on_c, 9, 42, 120
7, 108000, Note_on_c, 9, 40, 120
7, 108000, Note_on_c, 9, 38, 120
7, 108000, Note_on_c, 9, 35, 120
7, 108000, Note_on_c, 9, 36, 120
7, 108000, Note_on_c, 9, 46, 120
7, 108057, Note_off_c, 9, 42, 0
7, 108057, Note_off_c, 9, 37, 0
7, 108057, Note_off_c, 9, 63, 0
7, 108057, Note_off_c, 9, 28, 0
7, 108060, Note_off_c, 9, 40, 0
7, 108060, Note_off_c, 9, 38, 0
7, 108060, Note_off_c, 9, 35, 0
7, 108060, Note_off_c, 9, 36, 0
7, 108060, Note_off_c, 9, 46, 0
7, 108240, Note_on_c, 9, 36, 120
7, 108240, Note_on_c, 9, 35, 120
7, 108240, Note_on_c, 9, 74, 120
7, 108240, Note_on_c, 9, 76, 120
7, 108240, Note_on_c, 9, 62, 120
7, 108240, Note_on_c, 9, 46, 120
7, 108297, Note_off_c, 9, 62, 0
7, 108297, Note_off_c, 9, 76, 0
7, 108297, Note_off_c, 9, 35, 0
7, 108297, Note_off_c, 9, 36, 0
7, 108300, Note_off_c, 9, 46, 0
7, 108468, Note_off_c, 9, 74, 0
7, 108480, Note_on_c, 9, 36, 120
7, 108480, Note_on_c, 9, 74, 120
7, 108480, Note_on_c, 9, 75, 120
7, 108480, Note_on_c, 9, 28, 120
7, 108480, Note_on_c, 9, 62, 120
7, 108480, Note_on_c, 9, 63, 120
7, 108480, Note_on_c, 9, 46, 120
7, 108537, Note_off_c, 9, 63, 0
7, 108537, Note_off_c, 9, 62, 0
7, 108537, Note_off_c, 9, 28, 0
7, 108537, Note_off_c, 9, 36, 0
7, 108540, Note_off_c, 9, 46, 0
7, 108720, Note_on_c, 9, 62, 120
7, 108720, Note_on_c, 9, 46, 120
7, 108720, Note_on_c, 9, 36, 120
7, 108720, Note_on_c, 9, 35, 120
7, 108777, Note_off_c, 9, 62, 0
7, 108780, Note_off_c, 9, 46, 0
7, 108780, Note_off_c, 9, 36, 0
7, 108780, Note_off_c, 9, 35, 0
7, 108936, Note_off_c, 9, 74, 0
7, 108936, Note_off_c, 9, 75, 0
7, 108960, Note_on_c, 9, 76, 120
7, 108960, Note_on_c, 9, 28, 120
7, 108960, Note_on_c, 9, 62, 120
7, 108960, Note_on_c, 9, 63, 120
7, 108960, Note_on_c, 9, 37, 120
7, 108960, Note_on_c, 9, 42, 120
7, 108960, Note_on_c, 9, 36, 120
7, 108960, Note_on_c, 9, 40, 120
7, 108960, Note_on_c, 9, 46, 120
7, 108960, Note_on_c, 9, 35, 120
7, 108960, Note_on_c, 9, 38, 120
7, 109017, Note_off_c, 9, 42, 0
7, 109017, Note_off_c, 9, 37, 0
7, 109017, Note_off_c, 9, 63, 0
7, 109017, Note_off_c, 9, 62, 0
7, 109017, Note_off_c, 9, 28, 0
7, 109017, Note_off_c, 9, 76, 0
7, 109020, Note_off_c, 9, 36, 0
7, 109020, Note_off_c, 9, 40, 0
7, 109020, Note_off_c, 9, 46, 0
7, 109020, Note_off_c, 9, 35, 0
7, 109020, Note_off_c, 9, 38, 0
7, 109200, Note_on_c, 9, 36, 120
7, 109200, Note_on_c, 9, 35, 120
7, 109200, Note_on_c, 9, 74, 120
7, 109200, Note_on_c, 9, 62, 120
7, 109200, Note_on_c, 9, 46, 120
7, 109257, Note_off_c, 9, 62, 0
7, 109257, Note_off_c, 9, 35, 0
7, 109257, Note_off_c, 9, 36, 0
7, 109260, Note_off_c, 9, 46, 0
7, 109428, Note_off_c, 9, 74, 0
7, 109440, Note_on_c, 9, 74, 120
7, 109440, Note_on_c, 9, 75, 120
7, 109440, Note_on_c, 9, 62, 120
7, 109440, Note_on_c, 9, 37, 120
7, 109440, Note_on_c, 9, 35, 120
7, 109440, Note_on_c, 9, 36, 120
7, 109440, Note_on_c, 9, 46, 120
7, 109440, Note_on_c, 9, 28, 120
7, 109497, Note_off_c, 9, 28, 0
7, 109497, Note_off_c, 9, 62, 0
7, 109500, Note_off_c, 9, 37, 0
7, 109500, Note_off_c, 9, 35, 0
7, 109500, Note_off_c, 9, 36, 0
7, 109500, Note_off_c, 9, 46, 0
7, 109680, Note_on_c, 9, 62, 120
7, 109680, Note_on_c, 9, 46, 120
7, 109680, Note_on_c, 9, 35, 120
7, 109680, Note_on_c, 9, 36, 120
7, 109737, Note_off_c, 9, 62, 0
7, 109740, Note_off_c, 9, 46, 0
7, 109740, Note_off_c, 9, 35, 0
7, 109740, Note_off_c, 9, 36, 0
7, 109896, Note_off_c, 9, 75, 0
7, 109896, Note_off_c, 9, 74, 0
7, 109920, Note_on_c, 9, 76, 120
7, 109920, Note_on_c, 9, 62, 120
7, 109920, Note_on_c, 9, 63, 120
7, 109920, Note_on_c, 9, 28, 120
7, 109920, Note_on_c, 9, 37, 120
7, 109920, Note_on_c, 9, 42, 120
7, 109920, Note_on_c, 9, 40, 120
7, 109920, Note_on_c, 9, 38, 120
7, 109920, Note_on_c, 9, 35, 120
7, 109920, Note_on_c, 9, 36, 120
7, 109920, Note_on_c, 9, 46, 120
7, 109977, Note_off_c, 9, 42, 0
7, 109977, Note_off_c, 9, 37, 0
7, 109977, Note_off_c, 9, 28, 0
7, 109977, Note_off_c, 9, 63, 0
7, 109977, Note_off_c, 9, 62, 0
7, 109977, Note_off_c, 9, 76, 0
7, 109980, Note_off_c, 9, 40, 0
7, 109980, Note_off_c, 9, 38, 0
7, 109980, Note_off_c, 9, 35, 0
7, 109980, Note_off_c, 9, 36, 0
7, 109980, Note_off_c, 9, 46, 0
7, 110160, Note_on_c, 9, 74, 120
7, 110160, Note_on_c, 9, 62, 120
7, 110160, Note_on_c, 9, 36, 120
7, 110160, Note_on_c, 9, 35, 120
7, 110160, Note_on_c, 9, 46, 120
7, 110217, Note_off_c, 9, 35, 0
7, 110217, Note_off_c, 9, 36, 0
7, 110217, Note_off_c, 9, 62, 0
7, 110220, Note_off_c, 9, 46, 0
7, 110388, Note_off_c, 9, 74, 0
7, 110400, Note_on_c, 9, 74, 120
7, 110400, Note_on_c, 9, 75, 120
7, 110400, Note_on_c, 9, 62, 120
7, 110400, Note_on_c, 9, 63, 120
7, 110400, Note_on_c, 9, 36, 120
7, 110400, Note_on_c, 9, 28, 120
7, 110400, Note_on_c, 9, 46, 120
7, 110457, Note_off_c, 9, 28, 0
7, 110457, Note_off_c, 9, 36, 0
7, 110457, Note_off_c, 9, 63, 0
7, 110457, Note_off_c, 9, 62, 0
7, 110460, Note_off_c, 9, 46, 0
7, 110640, Note_on_c, 9, 76, 120
7, 110640, Note_on_c, 9, 62, 120
7, 110640, Note_on_c, 9, 46, 120
7, 110640, Note_on_c, 9, 36, 120
7, 110640, Note_on_c, 9, 35, 120
7, 110697, Note_off_c, 9, 62, 0
7, 110697, Note_off_c, 9, 76, 0
7, 110700, Note_off_c, 9, 46, 0
7, 110700, Note_off_c, 9, 36, 0
7, 110700, Note_off_c, 9, 35, 0
7, 110856, Note_off_c, 9, 75, 0
7, 110856, Note_off_c, 9, 74, 0
7, 110880, Note_on_c, 9, 62, 120
7, 110880, Note_on_c, 9, 63, 120
7, 110880, Note_on_c, 9, 28, 120
7, 110880, Note_on_c, 9, 37, 120
7, 110880, Note_on_c, 9, 42, 120
7, 110880, Note_on_c, 9, 36, 120
7, 110880, Note_on_c, 9, 40, 120
7, 110880, Note_on_c, 9, 46, 120
7, 110880, Note_on_c, 9, 35, 120
7, 110880, Note_on_c, 9, 38, 120
7, 110937, Note_off_c, 9, 42, 0
7, 110937, Note_off_c, 9, 37, 0
7, 110937, Note_off_c, 9, 28, 0
7, 110937, Note_off_c, 9, 63, 0
7, 110937, Note_off_c, 9, 62, 0
7, 110940, Note_off_c, 9, 36, 0
7, 110940, Note_off_c, 9, 40, 0
7, 110940, Note_off_c, 9, 46, 0
7, 110940, Note_off_c, 9, 35, 0
7, 110940, Note_off_c, 9, 38, 0
7, 110996, Note_on_c, 9, 62, 120
7, 111053, Note_off_c, 9, 62, 0
7, 111120, Note_on_c, 9, 74, 120
7, 111120, Note_on_c, 9, 61, 120
7, 111120, Note_on_c, 9, 62, 120
7, 111120, Note_on_c, 9, 36, 120
7, 111120, Note_on_c, 9, 35, 120
7, 111120, Note_on_c, 9, 46, 120
7, 111177, Note_off_c, 9, 35, 0
7, 111177, Note_off_c, 9, 36, 0
7, 111177, Note_off_c, 9, 62, 0
7, 111177, Note_off_c, 9, 61, 0
7, 111180, Note_off_c, 9, 46, 0
7, 111243, Note_on_c, 9, 60, 120
7, 111243, Note_on_c, 9, 61, 120
7, 111300, Note_off_c, 9, 61, 0
7, 111300, Note_off_c, 9, 60, 0
7, 111348, Note_off_c, 9, 74, 0
7, 111360, Note_on_c, 9, 74, 120
7, 111360, Note_on_c, 9, 76, 120
7, 111360, Note_on_c, 9, 75, 120
7, 111360, Note_on_c, 9, 62, 120
7, 111360, Note_on_c, 9, 37, 120
7, 111360, Note_on_c, 9, 35, 120
7, 111360, Note_on_c, 9, 36, 120
7, 111360, Note_on_c, 9, 46, 120
7, 111360, Note_on_c, 9, 28, 120
7, 111417, Note_off_c, 9, 28, 0
7, 111417, Note_off_c, 9, 62, 0
7, 111417, Note_off_c, 9, 76, 0
7, 111420, Note_off_c, 9, 37, 0
7, 111420, Note_off_c, 9, 35, 0
7, 111420, Note_off_c, 9, 36, 0
7, 111420, Note_off_c, 9, 46, 0
7, 111600, Note_on_c, 9, 62, 120
7, 111600, Note_on_c, 9, 46, 120
7, 111600, Note_on_c, 9, 35, 120
7, 111600, Note_on_c, 9, 36, 120
7, 111657, Note_off_c, 9, 62, 0
7, 111660, Note_off_c, 9, 46, 0
7, 111660, Note_off_c, 9, 35, 0
7, 111660, Note_off_c, 9, 36, 0
7, 111816, Note_off_c, 9, 74, 0
7, 111816, Note_off_c, 9, 75, 0
7, 111840, Note_on_c, 9, 63, 120
7, 111840, Note_on_c, 9, 28, 120
7, 111840, Note_on_c, 9, 37, 120
7, 111840, Note_on_c, 9, 42, 120
7, 111840, Note_on_c, 9, 40, 120
7, 111840, Note_on_c, 9, 38, 120
7, 111840, Note_on_c, 9, 35, 120
7, 111840, Note_on_c, 9, 36, 120
7, 111840, Note_on_c, 9, 46, 120
7, 111897, Note_off_c, 9, 42, 0
7, 111897, Note_off_c, 9, 37, 0
7, 111897, Note_off_c, 9, 28, 0
7, 111897, Note_off_c, 9, 63, 0
7, 111900, Note_off_c, 9, 40, 0
7, 111900, Note_off_c, 9, 38, 0
7, 111900, Note_off_c, 9, 35, 0
7, 111900, Note_off_c, 9, 36, 0
7, 111900, Note_off_c, 9, 46, 0
7, 112080, Note_on_c, 9, 74, 120
7, 112080, Note_on_c, 9, 76, 120
7, 112080, Note_on_c, 9, 62, 120
7, 112080, Note_on_c, 9, 36, 120
7, 112080, Note_on_c, 9, 35, 120
7, 112080, Note_on_c, 9, 46, 120
7, 112137, Note_off_c, 9, 35, 0
7, 112137, Note_off_c, 9, 36, 0
7, 112137, Note_off_c, 9, 62, 0
7, 112137, Note_off_c, 9, 76, 0
7, 112140, Note_off_c, 9, 46, 0
7, 112308, Note_off_c, 9, 74, 0
7, 112320, Note_on_c, 9, 74, 120
7, 112320, Note_on_c, 9, 75, 120
7, 112320, Note_on_c, 9, 62, 120
7, 112320, Note_on_c, 9, 63, 120
7, 112320, Note_on_c, 9, 36, 120
7, 112320, Note_on_c, 9, 28, 120
7, 112320, Note_on_c, 9, 46, 120
7, 112377, Note_off_c, 9, 28, 0
7, 112377, Note_off_c, 9, 36, 0
7, 112377, Note_off_c, 9, 63, 0
7, 112377, Note_off_c, 9, 62, 0
7, 112380, Note_off_c, 9, 46, 0
7, 112560, Note_on_c, 9, 62, 120
7, 112560, Note_on_c, 9, 46, 120
7, 112560, Note_on_c, 9, 36, 120
7, 112560, Note_on_c, 9, 35, 120
7, 112617, Note_off_c, 9, 62, 0
7, 112620, Note_off_c, 9, 46, 0
7, 112620, Note_off_c, 9, 36, 0
7, 112620, Note_off_c, 9, 35, 0
7, 112776, Note_off_c, 9, 75, 0
7, 112776, Note_off_c, 9, 74, 0
7, 112800, Note_on_c, 9, 76, 120
7, 112800, Note_on_c, 9, 62, 120
7, 112800, Note_on_c, 9, 63, 120
7, 112800, Note_on_c, 9, 28, 120
7, 112800, Note_on_c, 9, 37, 120
7, 112800, Note_on_c, 9, 42, 120
7, 112800, Note_on_c, 9, 36, 120
7, 112800, Note_on_c, 9, 40, 120
7, 112800, Note_on_c, 9, 46, 120
7, 112800, Note_on_c, 9, 35, 120
7, 112800, Note_on_c, 9, 38, 120
7, 112857, Note_off_c, 9, 42, 0
7, 112857, Note_off_c, 9, 37, 0
7, 112857, Note_off_c, 9, 28, 0
7, 112857, Note_off_c, 9, 63, 0
7, 112857, Note_off_c, 9, 62, 0
7, 112857, Note_off_c, 9, 76, 0
7, 112860, Note_off_c, 9, 36, 0
7, 112860, Note_off_c, 9, 40, 0
7, 112860, Note_off_c, 9, 46, 0
7, 112860, Note_off_c, 9, 35, 0
7, 112860, Note_off_c, 9, 38, 0
7, 113040, Note_on_c, 9, 74, 120
7, 113040, Note_on_c, 9, 62, 120
7, 113040, Note_on_c, 9, 36, 120
7, 113040, Note_on_c, 9, 35, 120
7, 113040, Note_on_c, 9, 46, 120
7, 113097, Note_off_c, 9, 35, 0
7, 113097, Note_off_c, 9, 36, 0
7, 113097, Note_off_c, 9, 62, 0
7, 113100, Note_off_c, 9, 46, 0
7, 113268, Note_off_c, 9, 74, 0
7, 113280, Note_on_c, 9, 74, 120
7, 113280, Note_on_c, 9, 75, 120
7, 113280, Note_on_c, 9, 62, 120
7, 113280, Note_on_c, 9, 37, 120
7, 113280, Note_on_c, 9, 35, 120
7, 113280, Note_on_c, 9, 36, 120
7, 113280, Note_on_c, 9, 46, 120
7, 113280, Note_on_c, 9, 28, 120
7, 113337, Note_off_c, 9, 28, 0
7, 113337, Note_off_c, 9, 62, 0
7, 113340, Note_off_c, 9, 37, 0
7, 113340, Note_off_c, 9, 35, 0
7, 113340, Note_off_c, 9, 36, 0
7, 113340, Note_off_c, 9, 46, 0
7, 113520, Note_on_c, 9, 62, 120
7, 113520, Note_on_c, 9, 46, 120
7, 113520, Note_on_c, 9, 35, 120
7, 113520, Note_on_c, 9, 36, 120
7, 113577, Note_off_c, 9, 62, 0
7, 113580, Note_off_c, 9, 46, 0
7, 113580, Note_off_c, 9, 35, 0
7, 113580, Note_off_c, 9, 36, 0
7, 113736, Note_off_c, 9, 75, 0
7, 113736, Note_off_c, 9, 74, 0
7, 113760, Note_on_c, 9, 76, 120
7, 113760, Note_on_c, 9, 62, 120
7, 113760, Note_on_c, 9, 63, 120
7, 113760, Note_on_c, 9, 28, 120
7, 113760, Note_on_c, 9, 37, 120
7, 113760, Note_on_c, 9, 42, 120
7, 113760, Note_on_c, 9, 40, 120
7, 113760, Note_on_c, 9, 38, 120
7, 113760, Note_on_c, 9, 35, 120
7, 113760, Note_on_c, 9, 36, 120
7, 113760, Note_on_c, 9, 46, 120
7, 113817, Note_off_c, 9, 42, 0
7, 113817, Note_off_c, 9, 37, 0
7, 113817, Note_off_c, 9, 28, 0
7, 113817, Note_off_c, 9, 63, 0
7, 113817, Note_off_c, 9, 62, 0
7, 113817, Note_off_c, 9, 76, 0
7, 113820, Note_off_c, 9, 40, 0
7, 113820, Note_off_c, 9, 38, 0
7, 113820, Note_off_c, 9, 35, 0
7, 113820, Note_off_c, 9, 36, 0
7, 113820, Note_off_c, 9, 46, 0
7, 114000, Note_on_c, 9, 74, 120
7, 114000, Note_on_c, 9, 62, 120
7, 114000, Note_on_c, 9, 36, 120
7, 114000, Note_on_c, 9, 35, 120
7, 114000, Note_on_c, 9, 46, 120
7, 114057, Note_off_c, 9, 35, 0
7, 114057, Note_off_c, 9, 36, 0
7, 114057, Note_off_c, 9, 62, 0
7, 114060, Note_off_c, 9, 46, 0
7, 114228, Note_off_c, 9, 74, 0
7, 114240, Note_on_c, 9, 74, 120
7, 114240, Note_on_c, 9, 75, 120
7, 114240, Note_on_c, 9, 62, 120
7, 114240, Note_on_c, 9, 63, 120
7, 114240, Note_on_c, 9, 36, 120
7, 114240, Note_on_c, 9, 28, 120
7, 114240, Note_on_c, 9, 46, 120
7, 114297, Note_off_c, 9, 28, 0
7, 114297, Note_off_c, 9, 36, 0
7, 114297, Note_off_c, 9, 63, 0
7, 114297, Note_off_c, 9, 62, 0
7, 114300, Note_off_c, 9, 46, 0
7, 114480, Note_on_c, 9, 76, 120
7, 114480, Note_on_c, 9, 62, 120
7, 114480, Note_on_c, 9, 46, 120
7, 114480, Note_on_c, 9, 36, 120
7, 114480, Note_on_c, 9, 35, 120
7, 114537, Note_off_c, 9, 62, 0
7, 114537, Note_off_c, 9, 76, 0
7, 114540, Note_off_c, 9, 46, 0
7, 114540, Note_off_c, 9, 36, 0
7, 114540, Note_off_c, 9, 35, 0
7, 114696, Note_off_c, 9, 75, 0
7, 114696, Note_off_c, 9, 74, 0
7, 114720, Note_on_c, 9, 62, 120
7, 114720, Note_on_c, 9, 63, 120
7, 114720, Note_on_c, 9, 28, 120
7, 114720, Note_on_c, 9, 37, 120
7, 114720, Note_on_c, 9, 42, 120
7, 114720, Note_on_c, 9, 36, 120
7, 114720, Note_on_c, 9, 40, 120
7, 114720, Note_on_c, 9, 46, 120
7, 114720, Note_on_c, 9, 35, 120
7, 114720, Note_on_c, 9, 38, 120
7, 114777, Note_off_c, 9, 42, 0
7, 114777, Note_off_c, 9, 37, 0
7, 114777, Note_off_c, 9, 28, 0
7, 114777, Note_off_c, 9, 63, 0
7, 114777, Note_off_c, 9, 62, 0
7, 114780, Note_off_c, 9, 36, 0
7, 114780, Note_off_c, 9, 40, 0
7, 114780, Note_off_c, 9, 46, 0
7, 114780, Note_off_c, 9, 35, 0
7, 114780, Note_off_c, 9, 38, 0
7, 114836, Note_on_c, 9, 62, 120
7, 114893, Note_off_c, 9, 62, 0
7, 114960, Note_on_c, 9, 74, 120
7, 114960, Note_on_c, 9, 61, 120
7, 114960, Note_on_c, 9, 62, 120
7, 114960, Note_on_c, 9, 36, 120
7, 114960, Note_on_c, 9, 35, 120
7, 114960, Note_on_c, 9, 46, 120
7, 115017, Note_off_c, 9, 35, 0
7, 115017, Note_off_c, 9, 36, 0
7, 115017, Note_off_c, 9, 62, 0
7, 115017, Note_off_c, 9, 61, 0
7, 115020, Note_off_c, 9, 46, 0
7, 115083, Note_on_c, 9, 60, 120
7, 115083, Note_on_c, 9, 61, 120
7, 115140, Note_off_c, 9, 61, 0
7, 115140, Note_off_c, 9, 60, 0
7, 115188, Note_off_c, 9, 74, 0
7, 115200, Note_on_c, 9, 62, 120
7, 115200, Note_on_c, 9, 75, 120
7, 115200, Note_on_c, 9, 76, 120
7, 115200, Note_on_c, 9, 74, 120
7, 115200, Note_on_c, 9, 37, 120
7, 115200, Note_on_c, 9, 35, 120
7, 115200, Note_on_c, 9, 36, 120
7, 115200, Note_on_c, 9, 46, 120
7, 115200, Note_on_c, 9, 28, 120
7, 115257, Note_off_c, 9, 28, 0
7, 115257, Note_off_c, 9, 76, 0
7, 115257, Note_off_c, 9, 62, 0
7, 115260, Note_off_c, 9, 37, 0
7, 115260, Note_off_c, 9, 35, 0
7, 115260, Note_off_c, 9, 36, 0
7, 115260, Note_off_c, 9, 46, 0
7, 115440, Note_on_c, 9, 62, 120
7, 115440, Note_on_c, 9, 46, 120
7, 115440, Note_on_c, 9, 35, 120
7, 115440, Note_on_c, 9, 36, 120
7, 115497, Note_off_c, 9, 62, 0
7, 115500, Note_off_c, 9, 46, 0
7, 115500, Note_off_c, 9, 35, 0
7, 115500, Note_off_c, 9, 36, 0
7, 115656, Note_off_c, 9, 75, 0
7, 115656, Note_off_c, 9, 74, 0
7, 115680, Note_on_c, 9, 63, 120
7, 115680, Note_on_c, 9, 28, 120
7, 115680, Note_on_c, 9, 37, 120
7, 115680, Note_on_c, 9, 42, 120
7, 115680, Note_on_c, 9, 40, 120
7, 115680, Note_on_c, 9, 38, 120
7, 115680, Note_on_c, 9, 35, 120
7, 115680, Note_on_c, 9, 36, 120
7, 115680, Note_on_c, 9, 46, 120
7, 115737, Note_off_c, 9, 42, 0
7, 115737, Note_off_c, 9, 37, 0
7, 115737, Note_off_c, 9, 28, 0
7, 115737, Note_off_c, 9, 63, 0
7, 115740, Note_off_c, 9, 40, 0
7, 115740, Note_off_c, 9, 38, 0
7, 115740, Note_off_c, 9, 35, 0
7, 115740, Note_off_c, 9, 36, 0
7, 115740, Note_off_c, 9, 46, 0
7, 115920, Note_on_c, 9, 74, 120
7, 115920, Note_on_c, 9, 76, 120
7, 115920, Note_on_c, 9, 62, 120
7, 115920, Note_on_c, 9, 36, 120
7, 115920, Note_on_c, 9, 35, 120
7, 115920, Note_on_c, 9, 46, 120
7, 115977, Note_off_c, 9, 35, 0
7, 115977, Note_off_c, 9, 36, 0
7, 115977, Note_off_c, 9, 62, 0
7, 115977, Note_off_c, 9, 76, 0
7, 115980, Note_off_c, 9, 46, 0
7, 116148, Note_off_c, 9, 74, 0
7, 116160, Note_on_c, 9, 74, 120
7, 116160, Note_on_c, 9, 75, 120
7, 116160, Note_on_c, 9, 62, 120
7, 116160, Note_on_c, 9, 63, 120
7, 116160, Note_on_c, 9, 36, 120
7, 116160, Note_on_c, 9, 28, 120
7, 116160, Note_on_c, 9, 46, 120
7, 116217, Note_off_c, 9, 28, 0
7, 116217, Note_off_c, 9, 36, 0
7, 116217, Note_off_c, 9, 63, 0
7, 116217, Note_off_c, 9, 62, 0
7, 116220, Note_off_c, 9, 46, 0
7, 116400, Note_on_c, 9, 62, 120
7, 116400, Note_on_c, 9, 46, 120
7, 116400, Note_on_c, 9, 36, 120
7, 116400, Note_on_c, 9, 35, 120
7, 116457, Note_off_c, 9, 62, 0
7, 116460, Note_off_c, 9, 46, 0
7, 116460, Note_off_c, 9, 36, 0
7, 116460, Note_off_c, 9, 35, 0
7, 116616, Note_off_c, 9, 75, 0
7, 116616, Note_off_c, 9, 74, 0
7, 116640, Note_on_c, 9, 76, 120
7, 116640, Note_on_c, 9, 62, 120
7, 116640, Note_on_c, 9, 63, 120
7, 116640, Note_on_c, 9, 28, 120
7, 116640, Note_on_c, 9, 37, 120
7, 116640, Note_on_c, 9, 42, 120
7, 116640, Note_on_c, 9, 36, 120
7, 116640, Note_on_c, 9, 40, 120
7, 116640, Note_on_c, 9, 46, 120
7, 116640, Note_on_c, 9, 35, 120
7, 116640, Note_on_c, 9, 38, 120
7, 116697, Note_off_c, 9, 42, 0
7, 116697, Note_off_c, 9, 37, 0
7, 116697, Note_off_c, 9, 28, 0
7, 116697, Note_off_c, 9, 63, 0
7, 116697, Note_off_c, 9, 62, 0
7, 116697, Note_off_c, 9, 76, 0
7, 116700, Note_off_c, 9, 36, 0
7, 116700, Note_off_c, 9, 40, 0
7, 116700, Note_off_c, 9, 46, 0
7, 116700, Note_off_c, 9, 35, 0
7, 116700, Note_off_c, 9, 38, 0
7, 116880, Note_on_c, 9, 74, 120
7, 116880, Note_on_c, 9, 62, 120
7, 116880, Note_on_c, 9, 36, 120
7, 116880, Note_on_c, 9, 35, 120
7, 116880, Note_on_c, 9, 46, 120
7, 116937, Note_off_c, 9, 35, 0
7, 116937, Note_off_c, 9, 36, 0
7, 116937, Note_off_c, 9, 62, 0
7, 116940, Note_off_c, 9, 46, 0
7, 117108, Note_off_c, 9, 74, 0
7, 117120, Note_on_c, 9, 74, 120
7, 117120, Note_on_c, 9, 75, 120
7, 117120, Note_on_c, 9, 62, 120
7, 117120, Note_on_c, 9, 37, 120
7, 117120, Note_on_c, 9, 35, 120
7, 117120, Note_on_c, 9, 36, 120
7, 117120, Note_on_c, 9, 46, 120
7, 117120, Note_on_c, 9, 28, 120
7, 117177, Note_off_c, 9, 28, 0
7, 117177, Note_off_c, 9, 62, 0
7, 117180, Note_off_c, 9, 37, 0
7, 117180, Note_off_c, 9, 35, 0
7, 117180, Note_off_c, 9, 36, 0
7, 117180, Note_off_c, 9, 46, 0
7, 117360, Note_on_c, 9, 62, 120
7, 117360, Note_on_c, 9, 46, 120
7, 117360, Note_on_c, 9, 35, 120
7, 117360, Note_on_c, 9, 36, 120
7, 117417, Note_off_c, 9, 62, 0
7, 117420, Note_off_c, 9, 46, 0
7, 117420, Note_off_c, 9, 35, 0
7, 117420, Note_off_c, 9, 36, 0
7, 117576, Note_off_c, 9, 75, 0
7, 117576, Note_off_c, 9, 74, 0
7, 117600, Note_on_c, 9, 76, 120
7, 117600, Note_on_c, 9, 62, 120
7, 117600, Note_on_c, 9, 63, 120
7, 117600, Note_on_c, 9, 28, 120
7, 117600, Note_on_c, 9, 37, 120
7, 117600, Note_on_c, 9, 42, 120
7, 117600, Note_on_c, 9, 40, 120
7, 117600, Note_on_c, 9, 38, 120
7, 117600, Note_on_c, 9, 35, 120
7, 117600, Note_on_c, 9, 36, 120
7, 117600, Note_on_c, 9, 46, 120
7, 117657, Note_off_c, 9, 42, 0
7, 117657, Note_off_c, 9, 37, 0
7, 117657, Note_off_c, 9, 28, 0
7, 117657, Note_off_c, 9, 63, 0
7, 117657, Note_off_c, 9, 62, 0
7, 117657, Note_off_c, 9, 76, 0
7, 117660, Note_off_c, 9, 40, 0
7, 117660, Note_off_c, 9, 38, 0
7, 117660, Note_off_c, 9, 35, 0
7, 117660, Note_off_c, 9, 36, 0
7, 117660, Note_off_c, 9, 46, 0
7, 117840, Note_on_c, 9, 74, 120
7, 117840, Note_on_c, 9, 62, 120
7, 117840, Note_on_c, 9, 36, 120
7, 117840, Note_on_c, 9, 35, 120
7, 117840, Note_on_c, 9, 46, 120
7, 117897, Note_off_c, 9, 35, 0
7, 117897, Note_off_c, 9, 36, 0
7, 117897, Note_off_c, 9, 62, 0
7, 117900, Note_off_c, 9, 46, 0
7, 118068, Note_off_c, 9, 74, 0
7, 118080, Note_on_c, 9, 74, 120
7, 118080, Note_on_c, 9, 75, 120
7, 118080, Note_on_c, 9, 62, 120
7, 118080, Note_on_c, 9, 63, 120
7, 118080, Note_on_c, 9, 36, 120
7, 118080, Note_on_c, 9, 28, 120
7, 118080, Note_on_c, 9, 46, 120
7, 118137, Note_off_c, 9, 28, 0
7, 118137, Note_off_c, 9, 36, 0
7, 118137, Note_off_c, 9, 63, 0
7, 118137, Note_off_c, 9, 62, 0
7, 118140, Note_off_c, 9, 46, 0
7, 118320, Note_on_c, 9, 76, 120
7, 118320, Note_on_c, 9, 62, 120
7, 118320, Note_on_c, 9, 46, 120
7, 118320, Note_on_c, 9, 36, 120
7, 118320, Note_on_c, 9, 35, 120
7, 118377, Note_off_c, 9, 62, 0
7, 118377, Note_off_c, 9, 76, 0
7, 118380, Note_off_c, 9, 46, 0
7, 118380, Note_off_c, 9, 36, 0
7, 118380, Note_off_c, 9, 35, 0
7, 118536, Note_off_c, 9, 75, 0
7, 118536, Note_off_c, 9, 74, 0
7, 118560, Note_on_c, 9, 62, 120
7, 118560, Note_on_c, 9, 63, 120
7, 118560, Note_on_c, 9, 28, 120
7, 118560, Note_on_c, 9, 37, 120
7, 118560, Note_on_c, 9, 42, 120
7, 118560, Note_on_c, 9, 36, 120
7, 118560, Note_on_c, 9, 40, 120
7, 118560, Note_on_c, 9, 46, 120
7, 118560, Note_on_c, 9, 35, 120
7, 118560, Note_on_c, 9, 38, 120
7, 118617, Note_off_c, 9, 42, 0
7, 118617, Note_off_c, 9, 37, 0
7, 118617, Note_off_c, 9, 28, 0
7, 118617, Note_off_c, 9, 63, 0
7, 118617, Note_off_c, 9, 62, 0
7, 118620, Note_off_c, 9, 36, 0
7, 118620, Note_off_c, 9, 40, 0
7, 118620, Note_off_c, 9, 46, 0
7, 118620, Note_off_c, 9, 35, 0
7, 118620, Note_off_c, 9, 38, 0
7, 118676, Note_on_c, 9, 62, 120
7, 118733, Note_off_c, 9, 62, 0
7, 118800, Note_on_c, 9, 74, 120
7, 118800, Note_on_c, 9, 61, 120
7, 118800, Note_on_c, 9, 62, 120
7, 118800, Note_on_c, 9, 36, 120
7, 118800, Note_on_c, 9, 35, 120
7, 118800, Note_on_c, 9, 46, 120
7, 118857, Note_off_c, 9, 35, 0
7, 118857, Note_off_c, 9, 36, 0
7, 118857, Note_off_c, 9, 62, 0
7, 118857, Note_off_c, 9, 61, 0
7, 118860, Note_off_c, 9, 46, 0
7, 118923, Note_on_c, 9, 60, 120
7, 118923, Note_on_c, 9, 61, 120
7, 118980, Note_off_c, 9, 61, 0
7, 118980, Note_off_c, 9, 60, 0
7, 119028, Note_off_c, 9, 74, 0
7, 119040, Note_on_c, 9, 74, 120
7, 119040, Note_on_c, 9, 76, 120
7, 119040, Note_on_c, 9, 75, 120
7, 119040, Note_on_c, 9, 62, 120
7, 119040, Note_on_c, 9, 37, 120
7, 119040, Note_on_c, 9, 35, 120
7, 119040, Note_on_c, 9, 36, 120
7, 119040, Note_on_c, 9, 46, 120
7, 119040, Note_on_c, 9, 28, 120
7, 119097, Note_off_c, 9, 28, 0
7, 119097, Note_off_c, 9, 62, 0
7, 119097, Note_off_c, 9, 76, 0
7, 119100, Note_off_c, 9, 37, 0
7, 119100, Note_off_c, 9, 35, 0
7, 119100, Note_off_c, 9, 36, 0
7, 119100, Note_off_c, 9, 46, 0
7, 119280, Note_on_c, 9, 62, 120
7, 119280, Note_on_c, 9, 46, 120
7, 119280, Note_on_c, 9, 35, 120
7, 119280, Note_on_c, 9, 36, 120
7, 119337, Note_off_c, 9, 62, 0
7, 119340, Note_off_c, 9, 46, 0
7, 119340, Note_off_c, 9, 35, 0
7, 119340, Note_off_c, 9, 36, 0
7, 119496, Note_off_c, 9, 74, 0
7, 119496, Note_off_c, 9, 75, 0
7, 119520, Note_on_c, 9, 63, 120
7, 119520, Note_on_c, 9, 28, 120
7, 119520, Note_on_c, 9, 37, 120
7, 119520, Note_on_c, 9, 42, 120
7, 119520, Note_on_c, 9, 40, 120
7, 119520, Note_on_c, 9, 38, 120
7, 119520, Note_on_c, 9, 35, 120
7, 119520, Note_on_c, 9, 36, 120
7, 119520, Note_on_c, 9, 46, 120
7, 119577, Note_off_c, 9, 42, 0
7, 119577, Note_off_c, 9, 37, 0
7, 119577, Note_off_c, 9, 28, 0
7, 119577, Note_off_c, 9, 63, 0
7, 119580, Note_off_c, 9, 40, 0
7, 119580, Note_off_c, 9, 38, 0
7, 119580, Note_off_c, 9, 35, 0
7, 119580, Note_off_c, 9, 36, 0
7, 119580, Note_off_c, 9, 46, 0
7, 119760, Note_on_c, 9, 74, 120
7, 119760, Note_on_c, 9, 76, 120
7, 119760, Note_on_c, 9, 62, 120
7, 119760, Note_on_c, 9, 36, 120
7, 119760, Note_on_c, 9, 35, 120
7, 119760, Note_on_c, 9, 46, 120
7, 119817, Note_off_c, 9, 35, 0
7, 119817, Note_off_c, 9, 36, 0
7, 119817, Note_off_c, 9, 62, 0
7, 119817, Note_off_c, 9, 76, 0
7, 119820, Note_off_c, 9, 46, 0
7, 119988, Note_off_c, 9, 74, 0
7, 120000, Note_on_c, 9, 74, 120
7, 120000, Note_on_c, 9, 75, 120
7, 120000, Note_on_c, 9, 62, 120
7, 120000, Note_on_c, 9, 63, 120
7, 120000, Note_on_c, 9, 36, 120
7, 120000, Note_on_c, 9, 28, 120
7, 120000, Note_on_c, 9, 46, 120
7, 120057, Note_off_c, 9, 28, 0
7, 120057, Note_off_c, 9, 36, 0
7, 120057, Note_off_c, 9, 63, 0
7, 120057, Note_off_c, 9, 62, 0
7, 120060, Note_off_c, 9, 46, 0
7, 120240, Note_on_c, 9, 62, 120
7, 120240, Note_on_c, 9, 46, 120
7, 120240, Note_on_c, 9, 36, 120
7, 120240, Note_on_c, 9, 35, 120
7, 120297, Note_off_c, 9, 62, 0
7, 120300, Note_off_c, 9, 46, 0
7, 120300, Note_off_c, 9, 36, 0
7, 120300, Note_off_c, 9, 35, 0
7, 120456, Note_off_c, 9, 75, 0
7, 120456, Note_off_c, 9, 74, 0
7, 120480, Note_on_c, 9, 76, 120
7, 120480, Note_on_c, 9, 62, 120
7, 120480, Note_on_c, 9, 63, 120
7, 120480, Note_on_c, 9, 28, 120
7, 120480, Note_on_c, 9, 37, 120
7, 120480, Note_on_c, 9, 42, 120
7, 120480, Note_on_c, 9, 36, 120
7, 120480, Note_on_c, 9, 40, 120
7, 120480, Note_on_c, 9, 46, 120
7, 120480, Note_on_c, 9, 35, 120
7, 120480, Note_on_c, 9, 38, 120
7, 120537, Note_off_c, 9, 42, 0
7, 120537, Note_off_c, 9, 37, 0
7, 120537, Note_off_c, 9, 28, 0
7, 120537, Note_off_c, 9, 63, 0
7, 120537, Note_off_c, 9, 62, 0
7, 120537, Note_off_c, 9, 76, 0
7, 120540, Note_off_c, 9, 36, 0
7, 120540, Note_off_c, 9, 40, 0
7, 120540, Note_off_c, 9, 46, 0
7, 120540, Note_off_c, 9, 35, 0
7, 120540, Note_off_c, 9, 38, 0
7, 120720, Note_on_c, 9, 74, 120
7, 120720, Note_on_c, 9, 62, 120
7, 120720, Note_on_c, 9, 36, 120
7, 120720, Note_on_c, 9, 35, 120
7, 120720, Note_on_c, 9, 46, 120
7, 120777, Note_off_c, 9, 35, 0
7, 120777, Note_off_c, 9, 36, 0
7, 120777, Note_off_c, 9, 62, 0
7, 120780, Note_off_c, 9, 46, 0
7, 120948, Note_off_c, 9, 74, 0
7, 120960, Note_on_c, 9, 74, 120
7, 120960, Note_on_c, 9, 75, 120
7, 120960, Note_on_c, 9, 62, 120
7, 120960, Note_on_c, 9, 37, 120
7, 120960, Note_on_c, 9, 35, 120
7, 120960, Note_on_c, 9, 36, 120
7, 120960, Note_on_c, 9, 46, 120
7, 120960, Note_on_c, 9, 28, 120
7, 121017, Note_off_c, 9, 28, 0
7, 121017, Note_off_c, 9, 62, 0
7, 121020, Note_off_c, 9, 37, 0
7, 121020, Note_off_c, 9, 35, 0
7, 121020, Note_off_c, 9, 36, 0
7, 121020, Note_off_c, 9, 46, 0
7, 121200, Note_on_c, 9, 62, 120
7, 121200, Note_on_c, 9, 46, 120
7, 121200, Note_on_c, 9, 35, 120
7, 121200, Note_on_c, 9, 36, 120
7, 121257, Note_off_c, 9, 62, 0
7, 121260, Note_off_c, 9, 46, 0
7, 121260, Note_off_c, 9, 35, 0
7, 121260, Note_off_c, 9, 36, 0
7, 121416, Note_off_c, 9, 75, 0
7, 121416, Note_off_c, 9, 74, 0
7, 121440, Note_on_c, 9, 76, 120
7, 121440, Note_on_c, 9, 62, 120
7, 121440, Note_on_c, 9, 63, 120
7, 121440, Note_on_c, 9, 28, 120
7, 121440, Note_on_c, 9, 37, 120
7, 121440, Note_on_c, 9, 42, 120
7, 121440, Note_on_c, 9, 40, 120
7, 121440, Note_on_c, 9, 38, 120
7, 121440, Note_on_c, 9, 35, 120
7, 121440, Note_on_c, 9, 36, 120
7, 121440, Note_on_c, 9, 46, 120
7, 121497, Note_off_c, 9, 42, 0
7, 121497, Note_off_c, 9, 37, 0
7, 121497, Note_off_c, 9, 28, 0
7, 121497, Note_off_c, 9, 63, 0
7, 121497, Note_off_c, 9, 62, 0
7, 121497, Note_off_c, 9, 76, 0
7, 121500, Note_off_c, 9, 40, 0
7, 121500, Note_off_c, 9, 38, 0
7, 121500, Note_off_c, 9, 35, 0
7, 121500, Note_off_c, 9, 36, 0
7, 121500, Note_off_c, 9, 46, 0
7, 121680, Note_on_c, 9, 74, 120
7, 121680, Note_on_c, 9, 62, 120
7, 121680, Note_on_c, 9, 36, 120
7, 121680, Note_on_c, 9, 35, 120
7, 121680, Note_on_c, 9, 46, 120
7, 121737, Note_off_c, 9, 35, 0
7, 121737, Note_off_c, 9, 36, 0
7, 121737, Note_off_c, 9, 62, 0
7, 121740, Note_off_c, 9, 46, 0
7, 121908, Note_off_c, 9, 74, 0
7, 121920, Note_on_c, 9, 74, 120
7, 121920, Note_on_c, 9, 75, 120
7, 121920, Note_on_c, 9, 62, 120
7, 121920, Note_on_c, 9, 63, 120
7, 121920, Note_on_c, 9, 36, 120
7, 121920, Note_on_c, 9, 28, 120
7, 121920, Note_on_c, 9, 46, 120
7, 121920, Note_on_c, 9, 38, 120
7, 121920, Note_on_c, 9, 40, 120
7, 121920, Note_on_c, 9, 37, 120
7, 121920, Note_on_c, 9, 35, 120
7, 121920, Note_on_c, 9, 42, 120
7, 121977, Note_off_c, 9, 28, 0
7, 121977, Note_off_c, 9, 36, 0
7, 121977, Note_off_c, 9, 63, 0
7, 121977, Note_off_c, 9, 62, 0
7, 121980, Note_off_c, 9, 46, 0
7, 121980, Note_off_c, 9, 38, 0
7, 121980, Note_off_c, 9, 40, 0
7, 121980, Note_off_c, 9, 37, 0
7, 121980, Note_off_c, 9, 35, 0
7, 121980, Note_off_c, 9, 42, 0
7, 122160, Note_on_c, 9, 76, 120
7, 122160, Note_on_c, 9, 62, 120
7, 122160, Note_on_c, 9, 46, 120
7, 122160, Note_on_c, 9, 36, 120
7, 122160, Note_on_c, 9, 35, 120
7, 122160, Note_on_c, 9, 37, 120
7, 122160, Note_on_c, 9, 38, 120
7, 122160, Note_on_c, 9, 40, 120
7, 122160, Note_on_c, 9, 42, 120
7, 122160, Note_on_c, 9, 28, 120
7, 122217, Note_off_c, 9, 62, 0
7, 122217, Note_off_c, 9, 76, 0
7, 122220, Note_off_c, 9, 46, 0
7, 122220, Note_off_c, 9, 36, 0
7, 122220, Note_off_c, 9, 35, 0
7, 122220, Note_off_c, 9, 37, 0
7, 122220, Note_off_c, 9, 38, 0
7, 122220, Note_off_c, 9, 40, 0
7, 122220, Note_off_c, 9, 42, 0
7, 122220, Note_off_c, 9, 28, 0
7, 122376, Note_off_c, 9, 75, 0
7, 122376, Note_off_c, 9, 74, 0
7, 122400, Note_on_c, 9, 28, 120
7, 122400, Note_on_c, 9, 36, 120
7, 122400, Note_on_c, 9, 35, 120
7, 122400, Note_on_c, 9, 62, 120
7, 122457, Note_off_c, 9, 28, 0
7, 122460, Note_off_c, 9, 36, 0
7, 122460, Note_off_c, 9, 35, 0
7, 122460, Note_off_c, 9, 62, 0
7, 122516, Note_on_c, 9, 36, 120
7, 122516, Note_on_c, 9, 35, 120
7, 122516, Note_on_c, 9, 62, 120
7, 122576, Note_off_c, 9, 62, 0
7, 122576, Note_off_c, 9, 35, 0
7, 122576, Note_off_c, 9, 36, 0
7, 122640, Note_on_c, 9, 74, 120
7, 122640, Note_on_c, 9, 36, 120
7, 122640, Note_on_c, 9, 35, 120
7, 122640, Note_on_c, 9, 62, 120
7, 122700, Note_off_c, 9, 62, 0
7, 122700, Note_off_c, 9, 35, 0
7, 122700, Note_off_c, 9, 36, 0
7, 122763, Note_on_c, 9, 36, 120
7, 122763, Note_on_c, 9, 35, 120
7, 122763, Note_on_c, 9, 62, 120
7, 122823, Note_off_c, 9, 62, 0
7, 122823, Note_off_c, 9, 35, 0
7, 122823, Note_off_c, 9, 36, 0
7, 122868, Note_off_c, 9, 74, 0
7, 122880, Note_on_c, 9, 74, 120
7, 122880, Note_on_c, 9, 76, 120
7, 122880, Note_on_c, 9, 28, 120
7, 122880, Note_on_c, 9, 62, 120
7, 122880, Note_on_c, 9, 75, 120
7, 122937, Note_off_c, 9, 62, 0
7, 122937, Note_off_c, 9, 28, 0
7, 122937, Note_off_c, 9, 76, 0
7, 123120, Note_on_c, 9, 62, 120
7, 123177, Note_off_c, 9, 62, 0
7, 123336, Note_off_c, 9, 74, 0
7, 123336, Note_off_c, 9, 75, 0
7, 123360, Note_on_c, 9, 28, 120
7, 123360, Note_on_c, 9, 63, 120
7, 123417, Note_off_c, 9, 63, 0
7, 123417, Note_off_c, 9, 28, 0
7, 123600, Note_on_c, 9, 74, 120
7, 123600, Note_on_c, 9, 76, 120
7, 123600, Note_on_c, 9, 62, 120
7, 123657, Note_off_c, 9, 62, 0
7, 123657, Note_off_c, 9, 76, 0
7, 123828, Note_off_c, 9, 74, 0
7, 123840, Note_on_c, 9, 74, 120
7, 123840, Note_on_c, 9, 75, 120
7, 123840, Note_on_c, 9, 28, 120
7, 123840, Note_on_c, 9, 62, 120
7, 123840, Note_on_c, 9, 63, 120
7, 123897, Note_off_c, 9, 63, 0
7, 123897, Note_off_c, 9, 62, 0
7, 123897, Note_off_c, 9, 28, 0
7, 124080, Note_on_c, 9, 62, 120
7, 124137, Note_off_c, 9, 62, 0
7, 124296, Note_off_c, 9, 75, 0
7, 124296, Note_off_c, 9, 74, 0
7, 124320, Note_on_c, 9, 76, 120
7, 124320, Note_on_c, 9, 28, 120
7, 124320, Note_on_c, 9, 62, 120
7, 124320, Note_on_c, 9, 63, 120
7, 124377, Note_off_c, 9, 63, 0
7, 124377, Note_off_c, 9, 62, 0
7, 124377, Note_off_c, 9, 28, 0
7, 124377, Note_off_c, 9, 76, 0
7, 124560, Note_on_c, 9, 74, 120
7, 124560, Note_on_c, 9, 62, 120
7, 124617, Note_off_c, 9, 62, 0
7, 124788, Note_off_c, 9, 74, 0
7, 124800, Note_on_c, 9, 74, 120
7, 124800, Note_on_c, 9, 75, 120
7, 124800, Note_on_c, 9, 62, 120
7, 124800, Note_on_c, 9, 28, 120
7, 124857, Note_off_c, 9, 28, 0
7, 124857, Note_off_c, 9, 62, 0
7, 125040, Note_on_c, 9, 62, 120
7, 125097, Note_off_c, 9, 62, 0
7, 125256, Note_off_c, 9, 75, 0
7, 125256, Note_off_c, 9, 74, 0
7, 125280, Note_on_c, 9, 76, 120
7, 125280, Note_on_c, 9, 62, 120
7, 125280, Note_on_c, 9, 63, 120
7, 125280, Note_on_c, 9, 28, 120
7, 125337, Note_off_c, 9, 28, 0
7, 125337, Note_off_c, 9, 63, 0
7, 125337, Note_off_c, 9, 62, 0
7, 125337, Note_off_c, 9, 76, 0
7, 125520, Note_on_c, 9, 74, 120
7, 125520, Note_on_c, 9, 62, 120
7, 125577, Note_off_c, 9, 62, 0
7, 125748, Note_off_c, 9, 74, 0
7, 125760, Note_on_c, 9, 74, 120
7, 125760, Note_on_c, 9, 75, 120
7, 125760, Note_on_c, 9, 62, 120
7, 125760, Note_on_c, 9, 63, 120
7, 125760, Note_on_c, 9, 28, 120
7, 125817, Note_off_c, 9, 28, 0
7, 125817, Note_off_c, 9, 63, 0
7, 125817, Note_off_c, 9, 62, 0
7, 126000, Note_on_c, 9, 76, 120
7, 126000, Note_on_c, 9, 62, 120
7, 126057, Note_off_c, 9, 62, 0
7, 126057, Note_off_c, 9, 76, 0
7, 126216, Note_off_c, 9, 75, 0
7, 126216, Note_off_c, 9, 74, 0
7, 126240, Note_on_c, 9, 62, 120
7, 126240, Note_on_c, 9, 63, 120
7, 126240, Note_on_c, 9, 28, 120
7, 126297, Note_off_c, 9, 28, 0
7, 126297, Note_off_c, 9, 63, 0
7, 126297, Note_off_c, 9, 62, 0
7, 126356, Note_on_c, 9, 62, 120
7, 126413, Note_off_c, 9, 62, 0
7, 126480, Note_on_c, 9, 74, 120
7, 126480, Note_on_c, 9, 61, 120
7, 126480, Note_on_c, 9, 62, 120
7, 126537, Note_off_c, 9, 62, 0
7, 126537, Note_off_c, 9, 61, 0
7, 126603, Note_on_c, 9, 60, 120
7, 126603, Note_on_c, 9, 61, 120
7, 126660, Note_off_c, 9, 61, 0
7, 126660, Note_off_c, 9, 60, 0
7, 126708, Note_off_c, 9, 74, 0
7, 126720, Note_on_c, 9, 74, 120
7, 126720, Note_on_c, 9, 76, 120
7, 126720, Note_on_c, 9, 75, 120
7, 126720, Note_on_c, 9, 62, 120
7, 126720, Note_on_c, 9, 28, 120
7, 126777, Note_off_c, 9, 28, 0
7, 126777, Note_off_c, 9, 62, 0
7, 126777, Note_off_c, 9, 76, 0
7, 126960, Note_on_c, 9, 62, 120
7, 127017, Note_off_c, 9, 62, 0
7, 127176, Note_off_c, 9, 74, 0
7, 127176, Note_off_c, 9, 75, 0
7, 127200, Note_on_c, 9, 63, 120
7, 127200, Note_on_c, 9, 28, 120
7, 127257, Note_off_c, 9, 28, 0
7, 127257, Note_off_c, 9, 63, 0
7, 127440, Note_on_c, 9, 74, 120
7, 127440, Note_on_c, 9, 76, 120
7, 127440, Note_on_c, 9, 62, 120
7, 127497, Note_off_c, 9, 62, 0
7, 127497, Note_off_c, 9, 76, 0
7, 127668, Note_off_c, 9, 74, 0
7, 127680, Note_on_c, 9, 74, 120
7, 127680, Note_on_c, 9, 75, 120
7, 127680, Note_on_c, 9, 62, 120
7, 127680, Note_on_c, 9, 63, 120
7, 127680, Note_on_c, 9, 28, 120
7, 127737, Note_off_c, 9, 28, 0
7, 127737, Note_off_c, 9, 63, 0
7, 127737, Note_off_c, 9, 62, 0
7, 127920, Note_on_c, 9, 62, 120
7, 127977, Note_off_c, 9, 62, 0
7, 128136, Note_off_c, 9, 75, 0
7, 128136, Note_off_c, 9, 74, 0
7, 128160, Note_on_c, 9, 76, 120
7, 128160, Note_on_c, 9, 62, 120
7, 128160, Note_on_c, 9, 63, 120
7, 128160, Note_on_c, 9, 28, 120
7, 128217, Note_off_c, 9, 28, 0
7, 128217, Note_off_c, 9, 63, 0
7, 128217, Note_off_c, 9, 62, 0
7, 128217, Note_off_c, 9, 76, 0
7, 128400, Note_on_c, 9, 74, 120
7, 128400, Note_on_c, 9, 62, 120
7, 128457, Note_off_c, 9, 62, 0
7, 128628, Note_off_c, 9, 74, 0
7, 128640, Note_on_c, 9, 74, 120
7, 128640, Note_on_c, 9, 75, 120
7, 128640, Note_on_c, 9, 62, 120
7, 128640, Note_on_c, 9, 28, 120
7, 128697, Note_off_c, 9, 28, 0
7, 128697, Note_off_c, 9, 62, 0
7, 128880, Note_on_c, 9, 62, 120
7, 128937, Note_off_c, 9, 62, 0
7, 129096, Note_off_c, 9, 75, 0
7, 129096, Note_off_c, 9, 74, 0
7, 129120, Note_on_c, 9, 76, 120
7, 129120, Note_on_c, 9, 62, 120
7, 129120, Note_on_c, 9, 63, 120
7, 129120, Note_on_c, 9, 28, 120
7, 129177, Note_off_c, 9, 28, 0
7, 129177, Note_off_c, 9, 63, 0
7, 129177, Note_off_c, 9, 62, 0
7, 129177, Note_off_c, 9, 76, 0
7, 129360, Note_on_c, 9, 74, 120
7, 129360, Note_on_c, 9, 62, 120
7, 129417, Note_off_c, 9, 62, 0
7, 129588, Note_off_c, 9, 74, 0
7, 129600, Note_on_c, 9, 74, 120
7, 129600, Note_on_c, 9, 75, 120
7, 129600, Note_on_c, 9, 62, 120
7, 129600, Note_on_c, 9, 63, 120
7, 129600, Note_on_c, 9, 28, 120
7, 129657, Note_off_c, 9, 28, 0
7, 129657, Note_off_c, 9, 63, 0
7, 129657, Note_off_c, 9, 62, 0
7, 129840, Note_on_c, 9, 76, 120
7, 129840, Note_on_c, 9, 62, 120
7, 129897, Note_off_c, 9, 62, 0
7, 129897, Note_off_c, 9, 76, 0
7, 130056, Note_off_c, 9, 75, 0
7, 130056, Note_off_c, 9, 74, 0
7, 130080, Note_on_c, 9, 62, 120
7, 130080, Note_on_c, 9, 63, 120
7, 130080, Note_on_c, 9, 28, 120
7, 130137, Note_off_c, 9, 28, 0
7, 130137, Note_off_c, 9, 63, 0
7, 130137, Note_off_c, 9, 62, 0
7, 130196, Note_on_c, 9, 62, 120
7, 130253, Note_off_c, 9, 62, 0
7, 130320, Note_on_c, 9, 74, 120
7, 130320, Note_on_c, 9, 61, 120
7, 130320, Note_on_c, 9, 62, 120
7, 130377, Note_off_c, 9, 62, 0
7, 130377, Note_off_c, 9, 61, 0
7, 130443, Note_on_c, 9, 60, 120
7, 130443, Note_on_c, 9, 61, 120
7, 130500, Note_off_c, 9, 61, 0
7, 130500, Note_off_c, 9, 60, 0
7, 130548, Note_off_c, 9, 74, 0
7, 130560, Note_on_c, 9, 62, 120
7, 130560, Note_on_c, 9, 75, 120
7, 130560, Note_on_c, 9, 76, 120
7, 130560, Note_on_c, 9, 74, 120
7, 130560, Note_on_c, 9, 28, 120
7, 130617, Note_off_c, 9, 28, 0
7, 130617, Note_off_c, 9, 76, 0
7, 130617, Note_off_c, 9, 62, 0
7, 130800, Note_on_c, 9, 62, 120
7, 130857, Note_off_c, 9, 62, 0
7, 131016, Note_off_c, 9, 75, 0
7, 131016, Note_off_c, 9, 74, 0
7, 131040, Note_on_c, 9, 63, 120
7, 131040, Note_on_c, 9, 28, 120
7, 131097, Note_off_c, 9, 28, 0
7, 131097, Note_off_c, 9, 63, 0
7, 131280, Note_on_c, 9, 74, 120
7, 131280, Note_on_c, 9, 76, 120
7, 131280, Note_on_c, 9, 62, 120
7, 131337, Note_off_c, 9, 62, 0
7, 131337, Note_off_c, 9, 76, 0
7, 131508, Note_off_c, 9, 74, 0
7, 131520, Note_on_c, 9, 74, 120
7, 131520, Note_on_c, 9, 75, 120
7, 131520, Note_on_c, 9, 62, 120
7, 131520, Note_on_c, 9, 63, 120
7, 131520, Note_on_c, 9, 28, 120
7, 131577, Note_off_c, 9, 28, 0
7, 131577, Note_off_c, 9, 63, 0
7, 131577, Note_off_c, 9, 62, 0
7, 131760, Note_on_c, 9, 62, 120
7, 131817, Note_off_c, 9, 62, 0
7, 131976, Note_off_c, 9, 75, 0
7, 131976, Note_off_c, 9, 74, 0
7, 132000, Note_on_c, 9, 76, 120
7, 132000, Note_on_c, 9, 62, 120
7, 132000, Note_on_c, 9, 63, 120
7, 132000, Note_on_c, 9, 28, 120
7, 132057, Note_off_c, 9, 28, 0
7, 132057, Note_off_c, 9, 63, 0
7, 132057, Note_off_c, 9, 62, 0
7, 132057, Note_off_c, 9, 76, 0
7, 132240, Note_on_c, 9, 74, 120
7, 132240, Note_on_c, 9, 62, 120
7, 132297, Note_off_c, 9, 62, 0
7, 132468, Note_off_c, 9, 74, 0
7, 132480, Note_on_c, 9, 74, 120
7, 132480, Note_on_c, 9, 75, 120
7, 132480, Note_on_c, 9, 62, 120
7, 132480, Note_on_c, 9, 28, 120
7, 132537, Note_off_c, 9, 28, 0
7, 132537, Note_off_c, 9, 62, 0
7, 132720, Note_on_c, 9, 62, 120
7, 132777, Note_off_c, 9, 62, 0
7, 132936, Note_off_c, 9, 75, 0
7, 132936, Note_off_c, 9, 74, 0
7, 132960, Note_on_c, 9, 76, 120
7, 132960, Note_on_c, 9, 62, 120
7, 132960, Note_on_c, 9, 63, 120
7, 132960, Note_on_c, 9, 28, 120
7, 133017, Note_off_c, 9, 28, 0
7, 133017, Note_off_c, 9, 63, 0
7, 133017, Note_off_c, 9, 62, 0
7, 133017, Note_off_c, 9, 76, 0
7, 133200, Note_on_c, 9, 74, 120
7, 133200, Note_on_c, 9, 62, 120
7, 133257, Note_off_c, 9, 62, 0
7, 133428, Note_off_c, 9, 74, 0
7, 133440, Note_on_c, 9, 74, 120
7, 133440, Note_on_c, 9, 75, 120
7, 133440, Note_on_c, 9, 62, 120
7, 133440, Note_on_c, 9, 63, 120
7, 133440, Note_on_c, 9, 28, 120
7, 133497, Note_off_c, 9, 28, 0
7, 133497, Note_off_c, 9, 63, 0
7, 133497, Note_off_c, 9, 62, 0
7, 133680, Note_on_c, 9, 76, 120
7, 133680, Note_on_c, 9, 62, 120
7, 133737, Note_off_c, 9, 62, 0
7, 133737, Note_off_c, 9, 76, 0
7, 133896, Note_off_c, 9, 75, 0
7, 133896, Note_off_c, 9, 74, 0
7, 133920, Note_on_c, 9, 62, 120
7, 133920, Note_on_c, 9, 63, 120
7, 133920, Note_on_c, 9, 28, 120
7, 133977, Note_off_c, 9, 28, 0
7, 133977, Note_off_c, 9, 63, 0
7, 133977, Note_off_c, 9, 62, 0
7, 134036, Note_on_c, 9, 62, 120
7, 134093, Note_off_c, 9, 62, 0
7, 134160, Note_on_c, 9, 74, 120
7, 134160, Note_on_c, 9, 61, 120
7, 134160, Note_on_c, 9, 62, 120
7, 134217, Note_off_c, 9, 62, 0
7, 134217, Note_off_c, 9, 61, 0
7, 134283, Note_on_c, 9, 60, 120
7, 134283, Note_on_c, 9, 61, 120
7, 134340, Note_off_c, 9, 61, 0
7, 134340, Note_off_c, 9, 60, 0
7, 134388, Note_off_c, 9, 74, 0
7, 134400, Note_on_c, 9, 74, 120
7, 134400, Note_on_c, 9, 76, 120
7, 134400, Note_on_c, 9, 75, 120
7, 134400, Note_on_c, 9, 62, 120
7, 134400, Note_on_c, 9, 28, 120
7, 134457, Note_off_c, 9, 28, 0
7, 134457, Note_off_c, 9, 62, 0
7, 134457, Note_off_c, 9, 76, 0
7, 134640, Note_on_c, 9, 62, 120
7, 134697, Note_off_c, 9, 62, 0
7, 134856, Note_off_c, 9, 74, 0
7, 134856, Note_off_c, 9, 75, 0
7, 134880, Note_on_c, 9, 63, 120
7, 134880, Note_on_c, 9, 28, 120
7, 134937, Note_off_c, 9, 28, 0
7, 134937, Note_off_c, 9, 63, 0
7, 135120, Note_on_c, 9, 74, 120
7, 135120, Note_on_c, 9, 76, 120
7, 135120, Note_on_c, 9, 62, 120
7, 135177, Note_off_c, 9, 62, 0
7, 135177, Note_off_c, 9, 76, 0
7, 135348, Note_off_c, 9, 74, 0
7, 135360, Note_on_c, 9, 74, 120
7, 135360, Note_on_c, 9, 75, 120
7, 135360, Note_on_c, 9, 62, 120
7, 135360, Note_on_c, 9, 63, 120
7, 135360, Note_on_c, 9, 28, 120
7, 135417, Note_off_c, 9, 28, 0
7, 135417, Note_off_c, 9, 63, 0
7, 135417, Note_off_c, 9, 62, 0
7, 135600, Note_on_c, 9, 62, 120
7, 135657, Note_off_c, 9, 62, 0
7, 135816, Note_off_c, 9, 75, 0
7, 135816, Note_off_c, 9, 74, 0
7, 135840, Note_on_c, 9, 76, 120
7, 135840, Note_on_c, 9, 62, 120
7, 135840, Note_on_c, 9, 63, 120
7, 135840, Note_on_c, 9, 28, 120
7, 135897, Note_off_c, 9, 28, 0
7, 135897, Note_off_c, 9, 63, 0
7, 135897, Note_off_c, 9, 62, 0
7, 135897, Note_off_c, 9, 76, 0
7, 136080, Note_on_c, 9, 74, 120
7, 136080, Note_on_c, 9, 62, 120
7, 136137, Note_off_c, 9, 62, 0
7, 136308, Note_off_c, 9, 74, 0
7, 136320, Note_on_c, 9, 75, 120
7, 136320, Note_on_c, 9, 74, 120
7, 136320, Note_on_c, 9, 30, 120
7, 136320, Note_on_c, 9, 27, 120
7, 136320, Note_on_c, 9, 32, 120
7, 136320, Note_on_c, 9, 44, 120
7, 136380, Note_off_c, 9, 44, 0
7, 136380, Note_off_c, 9, 32, 0
7, 136380, Note_off_c, 9, 27, 0
7, 136380, Note_off_c, 9, 30, 0
7, 136560, Note_on_c, 9, 30, 120
7, 136560, Note_on_c, 9, 27, 120
7, 136560, Note_on_c, 9, 32, 120
7, 136560, Note_on_c, 9, 44, 120
7, 136620, Note_off_c, 9, 44, 0
7, 136620, Note_off_c, 9, 32, 0
7, 136620, Note_off_c, 9, 27, 0
7, 136620, Note_off_c, 9, 30, 0
7, 136776, Note_off_c, 9, 74, 0
7, 136776, Note_off_c, 9, 75, 0
7, 136800, Note_on_c, 9, 76, 120
7, 136800, Note_on_c, 9, 27, 120
7, 136800, Note_on_c, 9, 29, 120
7, 136857, Note_off_c, 9, 76, 0
7, 136860, Note_off_c, 9, 27, 0
7, 136860, Note_off_c, 9, 29, 0
7, 136916, Note_on_c, 9, 27, 120
7, 136916, Note_on_c, 9, 29, 120
7, 136976, Note_off_c, 9, 29, 0
7, 136976, Note_off_c, 9, 27, 0
7, 137040, Note_on_c, 9, 74, 120
7, 137040, Note_on_c, 9, 27, 120
7, 137040, Note_on_c, 9, 29, 120
7, 137100, Note_off_c, 9, 29, 0
7, 137100, Note_off_c, 9, 27, 0
7, 137163, Note_on_c, 9, 27, 120
7, 137163, Note_on_c, 9, 29, 120
7, 137223, Note_off_c, 9, 29, 0
7, 137223, Note_off_c, 9, 27, 0
7, 137268, Note_off_c, 9, 74, 0
7, 137280, Note_on_c, 9, 74, 120
7, 137280, Note_on_c, 9, 75, 120
7, 137280, Note_on_c, 9, 27, 120
7, 137280, Note_on_c, 9, 30, 120
7, 137340, Note_off_c, 9, 30, 0
7, 137340, Note_off_c, 9, 27, 0
7, 137520, Note_on_c, 9, 76, 120
7, 137520, Note_on_c, 9, 27, 120
7, 137520, Note_on_c, 9, 29, 120
7, 137577, Note_off_c, 9, 76, 0
7, 137580, Note_off_c, 9, 27, 0
7, 137580, Note_off_c, 9, 29, 0
7, 137736, Note_off_c, 9, 75, 0
7, 137736, Note_off_c, 9, 74, 0
7, 137760, Note_on_c, 9, 27, 120
7, 137760, Note_on_c, 9, 29, 120
7, 137760, Note_on_c, 9, 46, 120
7, 137820, Note_off_c, 9, 27, 0
7, 138000, Note_on_c, 9, 74, 120
7, 138228, Note_off_c, 9, 74, 0
7, 138240, Note_off_c, 9, 29, 0
7, 138240, Note_off_c, 9, 46, 0
7, 138240, Note_on_c, 9, 74, 120
7, 138240, Note_on_c, 9, 76, 120
7, 138240, Note_on_c, 9, 28, 120
7, 138240, Note_on_c, 9, 62, 120
7, 138240, Note_on_c, 9, 49, 120
7, 138240, Note_on_c, 9, 51, 120
7, 138240, Note_on_c, 9, 46, 120
7, 138240, Note_on_c, 9, 36, 120
7, 138240, Note_on_c, 9, 35, 120
7, 138240, Note_on_c, 9, 37, 120
7, 138240, Note_on_c, 9, 75, 120
7, 138297, Note_off_c, 9, 62, 0
7, 138297, Note_off_c, 9, 28, 0
7, 138297, Note_off_c, 9, 76, 0
7, 138300, Note_off_c, 9, 49, 0
7, 138300, Note_off_c, 9, 51, 0
7, 138300, Note_off_c, 9, 46, 0
7, 138300, Note_off_c, 9, 36, 0
7, 138300, Note_off_c, 9, 35, 0
7, 138300, Note_off_c, 9, 37, 0
7, 138480, Note_on_c, 9, 62, 120
7, 138480, Note_on_c, 9, 46, 120
7, 138480, Note_on_c, 9, 35, 120
7, 138480, Note_on_c, 9, 36, 120
7, 138537, Note_off_c, 9, 62, 0
7, 138540, Note_off_c, 9, 46, 0
7, 138540, Note_off_c, 9, 35, 0
7, 138540, Note_off_c, 9, 36, 0
7, 138696, Note_off_c, 9, 74, 0
7, 138696, Note_off_c, 9, 75, 0
7, 138720, Note_on_c, 9, 28, 120
7, 138720, Note_on_c, 9, 63, 120
7, 138720, Note_on_c, 9, 37, 120
7, 138720, Note_on_c, 9, 42, 120
7, 138720, Note_on_c, 9, 40, 120
7, 138720, Note_on_c, 9, 38, 120
7, 138720, Note_on_c, 9, 35, 120
7, 138720, Note_on_c, 9, 36, 120
7, 138720, Note_on_c, 9, 46, 120
7, 138777, Note_off_c, 9, 42, 0
7, 138777, Note_off_c, 9, 37, 0
7, 138777, Note_off_c, 9, 63, 0
7, 138777, Note_off_c, 9, 28, 0
7, 138780, Note_off_c, 9, 40, 0
7, 138780, Note_off_c, 9, 38, 0
7, 138780, Note_off_c, 9, 35, 0
7, 138780, Note_off_c, 9, 36, 0
7, 138780, Note_off_c, 9, 46, 0
7, 138960, Note_on_c, 9, 36, 120
7, 138960, Note_on_c, 9, 35, 120
7, 138960, Note_on_c, 9, 74, 120
7, 138960, Note_on_c, 9, 76, 120
7, 138960, Note_on_c, 9, 62, 120
7, 138960, Note_on_c, 9, 46, 120
7, 139017, Note_off_c, 9, 62, 0
7, 139017, Note_off_c, 9, 76, 0
7, 139017, Note_off_c, 9, 35, 0
7, 139017, Note_off_c, 9, 36, 0
7, 139020, Note_off_c, 9, 46, 0
7, 139188, Note_off_c, 9, 74, 0
7, 139200, Note_on_c, 9, 36, 120
7, 139200, Note_on_c, 9, 74, 120
7, 139200, Note_on_c, 9, 75, 120
7, 139200, Note_on_c, 9, 28, 120
7, 139200, Note_on_c, 9, 62, 120
7, 139200, Note_on_c, 9, 63, 120
7, 139200, Note_on_c, 9, 46, 120
7, 139257, Note_off_c, 9, 63, 0
7, 139257, Note_off_c, 9, 62, 0
7, 139257, Note_off_c, 9, 28, 0
7, 139257, Note_off_c, 9, 36, 0
7, 139260, Note_off_c, 9, 46, 0
7, 139440, Note_on_c, 9, 62, 120
7, 139440, Note_on_c, 9, 46, 120
7, 139440, Note_on_c, 9, 36, 120
7, 139440, Note_on_c, 9, 35, 120
7, 139497, Note_off_c, 9, 62, 0
7, 139500, Note_off_c, 9, 46, 0
7, 139500, Note_off_c, 9, 36, 0
7, 139500, Note_off_c, 9, 35, 0
7, 139656, Note_off_c, 9, 74, 0
7, 139656, Note_off_c, 9, 75, 0
7, 139680, Note_on_c, 9, 76, 120
7, 139680, Note_on_c, 9, 28, 120
7, 139680, Note_on_c, 9, 62, 120
7, 139680, Note_on_c, 9, 63, 120
7, 139680, Note_on_c, 9, 37, 120
7, 139680, Note_on_c, 9, 42, 120
7, 139680, Note_on_c, 9, 36, 120
7, 139680, Note_on_c, 9, 40, 120
7, 139680, Note_on_c, 9, 46, 120
7, 139680, Note_on_c, 9, 35, 120
7, 139680, Note_on_c, 9, 38, 120
7, 139737, Note_off_c, 9, 42, 0
7, 139737, Note_off_c, 9, 37, 0
7, 139737, Note_off_c, 9, 63, 0
7, 139737, Note_off_c, 9, 62, 0
7, 139737, Note_off_c, 9, 28, 0
7, 139737, Note_off_c, 9, 76, 0
7, 139740, Note_off_c, 9, 36, 0
7, 139740, Note_off_c, 9, 40, 0
7, 139740, Note_off_c, 9, 46, 0
7, 139740, Note_off_c, 9, 35, 0
7, 139740, Note_off_c, 9, 38, 0
7, 139920, Note_on_c, 9, 36, 120
7, 139920, Note_on_c, 9, 35, 120
7, 139920, Note_on_c, 9, 74, 120
7, 139920, Note_on_c, 9, 62, 120
7, 139920, Note_on_c, 9, 46, 120
7, 139977, Note_off_c, 9, 62, 0
7, 139977, Note_off_c, 9, 35, 0
7, 139977, Note_off_c, 9, 36, 0
7, 139980, Note_off_c, 9, 46, 0
7, 140148, Note_off_c, 9, 74, 0
7, 140160, Note_on_c, 9, 74, 120
7, 140160, Note_on_c, 9, 75, 120
7, 140160, Note_on_c, 9, 62, 120
7, 140160, Note_on_c, 9, 37, 120
7, 140160, Note_on_c, 9, 35, 120
7, 140160, Note_on_c, 9, 36, 120
7, 140160, Note_on_c, 9, 46, 120
7, 140160, Note_on_c, 9, 28, 120
7, 140217, Note_off_c, 9, 28, 0
7, 140217, Note_off_c, 9, 62, 0
7, 140220, Note_off_c, 9, 37, 0
7, 140220, Note_off_c, 9, 35, 0
7, 140220, Note_off_c, 9, 36, 0
7, 140220, Note_off_c, 9, 46, 0
7, 140400, Note_on_c, 9, 62, 120
7, 140400, Note_on_c, 9, 46, 120
7, 140400, Note_on_c, 9, 35, 120
7, 140400, Note_on_c, 9, 36, 120
7, 140457, Note_off_c, 9, 62, 0
7, 140460, Note_off_c, 9, 46, 0
7, 140460, Note_off_c, 9, 35, 0
7, 140460, Note_off_c, 9, 36, 0
7, 140616, Note_off_c, 9, 75, 0
7, 140616, Note_off_c, 9, 74, 0
7, 140640, Note_on_c, 9, 76, 120
7, 140640, Note_on_c, 9, 62, 120
7, 140640, Note_on_c, 9, 63, 120
7, 140640, Note_on_c, 9, 28, 120
7, 140640, Note_on_c, 9, 37, 120
7, 140640, Note_on_c, 9, 42, 120
7, 140640, Note_on_c, 9, 40, 120
7, 140640, Note_on_c, 9, 38, 120
7, 140640, Note_on_c, 9, 35, 120
7, 140640, Note_on_c, 9, 36, 120
7, 140640, Note_on_c, 9, 46, 120
7, 140697, Note_off_c, 9, 42, 0
7, 140697, Note_off_c, 9, 37, 0
7, 140697, Note_off_c, 9, 28, 0
7, 140697, Note_off_c, 9, 63, 0
7, 140697, Note_off_c, 9, 62, 0
7, 140697, Note_off_c, 9, 76, 0
7, 140700, Note_off_c, 9, 40, 0
7, 140700, Note_off_c, 9, 38, 0
7, 140700, Note_off_c, 9, 35, 0
7, 140700, Note_off_c, 9, 36, 0
7, 140700, Note_off_c, 9, 46, 0
7, 140880, Note_on_c, 9, 74, 120
7, 140880, Note_on_c, 9, 62, 120
7, 140880, Note_on_c, 9, 36, 120
7, 140880, Note_on_c, 9, 35, 120
7, 140880, Note_on_c, 9, 46, 120
7, 140937, Note_off_c, 9, 35, 0
7, 140937, Note_off_c, 9, 36, 0
7, 140937, Note_off_c, 9, 62, 0
7, 140940, Note_off_c, 9, 46, 0
7, 141108, Note_off_c, 9, 74, 0
7, 141120, Note_on_c, 9, 74, 120
7, 141120, Note_on_c, 9, 75, 120
7, 141120, Note_on_c, 9, 62, 120
7, 141120, Note_on_c, 9, 63, 120
7, 141120, Note_on_c, 9, 36, 120
7, 141120, Note_on_c, 9, 28, 120
7, 141120, Note_on_c, 9, 46, 120
7, 141177, Note_off_c, 9, 28, 0
7, 141177, Note_off_c, 9, 36, 0
7, 141177, Note_off_c, 9, 63, 0
7, 141177, Note_off_c, 9, 62, 0
7, 141180, Note_off_c, 9, 46, 0
7, 141360, Note_on_c, 9, 76, 120
7, 141360, Note_on_c, 9, 62, 120
7, 141360, Note_on_c, 9, 46, 120
7, 141360, Note_on_c, 9, 36, 120
7, 141360, Note_on_c, 9, 35, 120
7, 141417, Note_off_c, 9, 62, 0
7, 141417, Note_off_c, 9, 76, 0
7, 141420, Note_off_c, 9, 46, 0
7, 141420, Note_off_c, 9, 36, 0
7, 141420, Note_off_c, 9, 35, 0
7, 141576, Note_off_c, 9, 75, 0
7, 141576, Note_off_c, 9, 74, 0
7, 141600, Note_on_c, 9, 62, 120
7, 141600, Note_on_c, 9, 63, 120
7, 141600, Note_on_c, 9, 28, 120
7, 141600, Note_on_c, 9, 37, 120
7, 141600, Note_on_c, 9, 42, 120
7, 141600, Note_on_c, 9, 36, 120
7, 141600, Note_on_c, 9, 40, 120
7, 141600, Note_on_c, 9, 46, 120
7, 141600, Note_on_c, 9, 35, 120
7, 141600, Note_on_c, 9, 38, 120
7, 141657, Note_off_c, 9, 42, 0
7, 141657, Note_off_c, 9, 37, 0
7, 141657, Note_off_c, 9, 28, 0
7, 141657, Note_off_c, 9, 63, 0
7, 141657, Note_off_c, 9, 62, 0
7, 141660, Note_off_c, 9, 36, 0
7, 141660, Note_off_c, 9, 40, 0
7, 141660, Note_off_c, 9, 46, 0
7, 141660, Note_off_c, 9, 35, 0
7, 141660, Note_off_c, 9, 38, 0
7, 141716, Note_on_c, 9, 62, 120
7, 141773, Note_off_c, 9, 62, 0
7, 141840, Note_on_c, 9, 74, 120
7, 141840, Note_on_c, 9, 61, 120
7, 141840, Note_on_c, 9, 62, 120
7, 141840, Note_on_c, 9, 36, 120
7, 141840, Note_on_c, 9, 35, 120
7, 141840, Note_on_c, 9, 46, 120
7, 141897, Note_off_c, 9, 35, 0
7, 141897, Note_off_c, 9, 36, 0
7, 141897, Note_off_c, 9, 62, 0
7, 141897, Note_off_c, 9, 61, 0
7, 141900, Note_off_c, 9, 46, 0
7, 141963, Note_on_c, 9, 60, 120
7, 141963, Note_on_c, 9, 61, 120
7, 142020, Note_off_c, 9, 61, 0
7, 142020, Note_off_c, 9, 60, 0
7, 142068, Note_off_c, 9, 74, 0
7, 142080, Note_on_c, 9, 74, 120
7, 142080, Note_on_c, 9, 76, 120
7, 142080, Note_on_c, 9, 75, 120
7, 142080, Note_on_c, 9, 62, 120
7, 142080, Note_on_c, 9, 37, 120
7, 142080, Note_on_c, 9, 35, 120
7, 142080, Note_on_c, 9, 36, 120
7, 142080, Note_on_c, 9, 46, 120
7, 142080, Note_on_c, 9, 28, 120
7, 142137, Note_off_c, 9, 28, 0
7, 142137, Note_off_c, 9, 62, 0
7, 142137, Note_off_c, 9, 76, 0
7, 142140, Note_off_c, 9, 37, 0
7, 142140, Note_off_c, 9, 35, 0
7, 142140, Note_off_c, 9, 36, 0
7, 142140, Note_off_c, 9, 46, 0
7, 142320, Note_on_c, 9, 62, 120
7, 142320, Note_on_c, 9, 46, 120
7, 142320, Note_on_c, 9, 35, 120
7, 142320, Note_on_c, 9, 36, 120
7, 142377, Note_off_c, 9, 62, 0
7, 142380, Note_off_c, 9, 46, 0
7, 142380, Note_off_c, 9, 35, 0
7, 142380, Note_off_c, 9, 36, 0
7, 142536, Note_off_c, 9, 74, 0
7, 142536, Note_off_c, 9, 75, 0
7, 142560, Note_on_c, 9, 63, 120
7, 142560, Note_on_c, 9, 28, 120
7, 142560, Note_on_c, 9, 37, 120
7, 142560, Note_on_c, 9, 42, 120
7, 142560, Note_on_c, 9, 40, 120
7, 142560, Note_on_c, 9, 38, 120
7, 142560, Note_on_c, 9, 35, 120
7, 142560, Note_on_c, 9, 36, 120
7, 142560, Note_on_c, 9, 46, 120
7, 142617, Note_off_c, 9, 42, 0
7, 142617, Note_off_c, 9, 37, 0
7, 142617, Note_off_c, 9, 28, 0
7, 142617, Note_off_c, 9, 63, 0
7, 142620, Note_off_c, 9, 40, 0
7, 142620, Note_off_c, 9, 38, 0
7, 142620, Note_off_c, 9, 35, 0
7, 142620, Note_off_c, 9, 36, 0
7, 142620, Note_off_c, 9, 46, 0
7, 142800, Note_on_c, 9, 74, 120
7, 142800, Note_on_c, 9, 76, 120
7, 142800, Note_on_c, 9, 62, 120
7, 142800, Note_on_c, 9, 36, 120
7, 142800, Note_on_c, 9, 35, 120
7, 142800, Note_on_c, 9, 46, 120
7, 142857, Note_off_c, 9, 35, 0
7, 142857, Note_off_c, 9, 36, 0
7, 142857, Note_off_c, 9, 62, 0
7, 142857, Note_off_c, 9, 76, 0
7, 142860, Note_off_c, 9, 46, 0
7, 143028, Note_off_c, 9, 74, 0
7, 143040, Note_on_c, 9, 74, 120
7, 143040, Note_on_c, 9, 75, 120
7, 143040, Note_on_c, 9, 62, 120
7, 143040, Note_on_c, 9, 63, 120
7, 143040, Note_on_c, 9, 36, 120
7, 143040, Note_on_c, 9, 28, 120
7, 143040, Note_on_c, 9, 46, 120
7, 143097, Note_off_c, 9, 28, 0
7, 143097, Note_off_c, 9, 36, 0
7, 143097, Note_off_c, 9, 63, 0
7, 143097, Note_off_c, 9, 62, 0
7, 143100, Note_off_c, 9, 46, 0
7, 143280, Note_on_c, 9, 62, 120
7, 143280, Note_on_c, 9, 46, 120
7, 143280, Note_on_c, 9, 36, 120
7, 143280, Note_on_c, 9, 35, 120
7, 143337, Note_off_c, 9, 62, 0
7, 143340, Note_off_c, 9, 46, 0
7, 143340, Note_off_c, 9, 36, 0
7, 143340, Note_off_c, 9, 35, 0
7, 143496, Note_off_c, 9, 75, 0
7, 143496, Note_off_c, 9, 74, 0
7, 143520, Note_on_c, 9, 76, 120
7, 143520, Note_on_c, 9, 62, 120
7, 143520, Note_on_c, 9, 63, 120
7, 143520, Note_on_c, 9, 28, 120
7, 143520, Note_on_c, 9, 37, 120
7, 143520, Note_on_c, 9, 42, 120
7, 143520, Note_on_c, 9, 36, 120
7, 143520, Note_on_c, 9, 40, 120
7, 143520, Note_on_c, 9, 46, 120
7, 143520, Note_on_c, 9, 35, 120
7, 143520, Note_on_c, 9, 38, 120
7, 143577, Note_off_c, 9, 42, 0
7, 143577, Note_off_c, 9, 37, 0
7, 143577, Note_off_c, 9, 28, 0
7, 143577, Note_off_c, 9, 63, 0
7, 143577, Note_off_c, 9, 62, 0
7, 143577, Note_off_c, 9, 76, 0
7, 143580, Note_off_c, 9, 36, 0
7, 143580, Note_off_c, 9, 40, 0
7, 143580, Note_off_c, 9, 46, 0
7, 143580, Note_off_c, 9, 35, 0
7, 143580, Note_off_c, 9, 38, 0
7, 143760, Note_on_c, 9, 74, 120
7, 143760, Note_on_c, 9, 62, 120
7, 143760, Note_on_c, 9, 36, 120
7, 143760, Note_on_c, 9, 35, 120
7, 143760, Note_on_c, 9, 46, 120
7, 143817, Note_off_c, 9, 35, 0
7, 143817, Note_off_c, 9, 36, 0
7, 143817, Note_off_c, 9, 62, 0
7, 143820, Note_off_c, 9, 46, 0
7, 143988, Note_off_c, 9, 74, 0
7, 144000, Note_on_c, 9, 74, 120
7, 144000, Note_on_c, 9, 75, 120
7, 144000, Note_on_c, 9, 62, 120
7, 144000, Note_on_c, 9, 37, 120
7, 144000, Note_on_c, 9, 35, 120
7, 144000, Note_on_c, 9, 36, 120
7, 144000, Note_on_c, 9, 46, 120
7, 144000, Note_on_c, 9, 28, 120
7, 144057, Note_off_c, 9, 28, 0
7, 144057, Note_off_c, 9, 62, 0
7, 144060, Note_off_c, 9, 37, 0
7, 144060, Note_off_c, 9, 35, 0
7, 144060, Note_off_c, 9, 36, 0
7, 144060, Note_off_c, 9, 46, 0
7, 144240, Note_on_c, 9, 62, 120
7, 144240, Note_on_c, 9, 46, 120
7, 144240, Note_on_c, 9, 35, 120
7, 144240, Note_on_c, 9, 36, 120
7, 144297, Note_off_c, 9, 62, 0
7, 144300, Note_off_c, 9, 46, 0
7, 144300, Note_off_c, 9, 35, 0
7, 144300, Note_off_c, 9, 36, 0
7, 144456, Note_off_c, 9, 75, 0
7, 144456, Note_off_c, 9, 74, 0
7, 144480, Note_on_c, 9, 76, 120
7, 144480, Note_on_c, 9, 62, 120
7, 144480, Note_on_c, 9, 63, 120
7, 144480, Note_on_c, 9, 28, 120
7, 144480, Note_on_c, 9, 37, 120
7, 144480, Note_on_c, 9, 42, 120
7, 144480, Note_on_c, 9, 40, 120
7, 144480, Note_on_c, 9, 38, 120
7, 144480, Note_on_c, 9, 35, 120
7, 144480, Note_on_c, 9, 36, 120
7, 144480, Note_on_c, 9, 46, 120
7, 144537, Note_off_c, 9, 42, 0
7, 144537, Note_off_c, 9, 37, 0
7, 144537, Note_off_c, 9, 28, 0
7, 144537, Note_off_c, 9, 63, 0
7, 144537, Note_off_c, 9, 62, 0
7, 144537, Note_off_c, 9, 76, 0
7, 144540, Note_off_c, 9, 40, 0
7, 144540, Note_off_c, 9, 38, 0
7, 144540, Note_off_c, 9, 35, 0
7, 144540, Note_off_c, 9, 36, 0
7, 144540, Note_off_c, 9, 46, 0
7, 144720, Note_on_c, 9, 74, 120
7, 144720, Note_on_c, 9, 62, 120
7, 144720, Note_on_c, 9, 36, 120
7, 144720, Note_on_c, 9, 35, 120
7, 144720, Note_on_c, 9, 46, 120
7, 144777, Note_off_c, 9, 35, 0
7, 144777, Note_off_c, 9, 36, 0
7, 144777, Note_off_c, 9, 62, 0
7, 144780, Note_off_c, 9, 46, 0
7, 144948, Note_off_c, 9, 74, 0
7, 144960, Note_on_c, 9, 74, 120
7, 144960, Note_on_c, 9, 75, 120
7, 144960, Note_on_c, 9, 62, 120
7, 144960, Note_on_c, 9, 63, 120
7, 144960, Note_on_c, 9, 36, 120
7, 144960, Note_on_c, 9, 28, 120
7, 144960, Note_on_c, 9, 46, 120
7, 145017, Note_off_c, 9, 28, 0
7, 145017, Note_off_c, 9, 36, 0
7, 145017, Note_off_c, 9, 63, 0
7, 145017, Note_off_c, 9, 62, 0
7, 145020, Note_off_c, 9, 46, 0
7, 145200, Note_on_c, 9, 76, 120
7, 145200, Note_on_c, 9, 62, 120
7, 145200, Note_on_c, 9, 46, 120
7, 145200, Note_on_c, 9, 36, 120
7, 145200, Note_on_c, 9, 35, 120
7, 145257, Note_off_c, 9, 62, 0
7, 145257, Note_off_c, 9, 76, 0
7, 145260, Note_off_c, 9, 46, 0
7, 145260, Note_off_c, 9, 36, 0
7, 145260, Note_off_c, 9, 35, 0
7, 145416, Note_off_c, 9, 75, 0
7, 145416, Note_off_c, 9, 74, 0
7, 145440, Note_on_c, 9, 62, 120
7, 145440, Note_on_c, 9, 63, 120
7, 145440, Note_on_c, 9, 28, 120
7, 145440, Note_on_c, 9, 37, 120
7, 145440, Note_on_c, 9, 42, 120
7, 145440, Note_on_c, 9, 36, 120
7, 145440, Note_on_c, 9, 40, 120
7, 145440, Note_on_c, 9, 46, 120
7, 145440, Note_on_c, 9, 35, 120
7, 145440, Note_on_c, 9, 38, 120
7, 145497, Note_off_c, 9, 42, 0
7, 145497, Note_off_c, 9, 37, 0
7, 145497, Note_off_c, 9, 28, 0
7, 145497, Note_off_c, 9, 63, 0
7, 145497, Note_off_c, 9, 62, 0
7, 145500, Note_off_c, 9, 36, 0
7, 145500, Note_off_c, 9, 40, 0
7, 145500, Note_off_c, 9, 46, 0
7, 145500, Note_off_c, 9, 35, 0
7, 145500, Note_off_c, 9, 38, 0
7, 145556, Note_on_c, 9, 62, 120
7, 145613, Note_off_c, 9, 62, 0
7, 145680, Note_on_c, 9, 74, 120
7, 145680, Note_on_c, 9, 61, 120
7, 145680, Note_on_c, 9, 62, 120
7, 145680, Note_on_c, 9, 36, 120
7, 145680, Note_on_c, 9, 35, 120
7, 145680, Note_on_c, 9, 46, 120
7, 145737, Note_off_c, 9, 35, 0
7, 145737, Note_off_c, 9, 36, 0
7, 145737, Note_off_c, 9, 62, 0
7, 145737, Note_off_c, 9, 61, 0
7, 145740, Note_off_c, 9, 46, 0
7, 145803, Note_on_c, 9, 60, 120
7, 145803, Note_on_c, 9, 61, 120
7, 145860, Note_off_c, 9, 61, 0
7, 145860, Note_off_c, 9, 60, 0
7, 145908, Note_off_c, 9, 74, 0
7, 145920, Note_on_c, 9, 74, 120
7, 145920, Note_on_c, 9, 76, 120
7, 145920, Note_on_c, 9, 75, 120
7, 145920, Note_on_c, 9, 62, 120
7, 145920, Note_on_c, 9, 37, 120
7, 145920, Note_on_c, 9, 35, 120
7, 145920, Note_on_c, 9, 36, 120
7, 145920, Note_on_c, 9, 46, 120
7, 145920, Note_on_c, 9, 28, 120
7, 145977, Note_off_c, 9, 28, 0
7, 145977, Note_off_c, 9, 62, 0
7, 145977, Note_off_c, 9, 76, 0
7, 145980, Note_off_c, 9, 37, 0
7, 145980, Note_off_c, 9, 35, 0
7, 145980, Note_off_c, 9, 36, 0
7, 145980, Note_off_c, 9, 46, 0
7, 146160, Note_on_c, 9, 62, 120
7, 146160, Note_on_c, 9, 46, 120
7, 146160, Note_on_c, 9, 35, 120
7, 146160, Note_on_c, 9, 36, 120
7, 146217, Note_off_c, 9, 62, 0
7, 146220, Note_off_c, 9, 46, 0
7, 146220, Note_off_c, 9, 35, 0
7, 146220, Note_off_c, 9, 36, 0
7, 146376, Note_off_c, 9, 74, 0
7, 146376, Note_off_c, 9, 75, 0
7, 146400, Note_on_c, 9, 63, 120
7, 146400, Note_on_c, 9, 28, 120
7, 146400, Note_on_c, 9, 37, 120
7, 146400, Note_on_c, 9, 42, 120
7, 146400, Note_on_c, 9, 40, 120
7, 146400, Note_on_c, 9, 38, 120
7, 146400, Note_on_c, 9, 35, 120
7, 146400, Note_on_c, 9, 36, 120
7, 146400, Note_on_c, 9, 46, 120
7, 146457, Note_off_c, 9, 42, 0
7, 146457, Note_off_c, 9, 37, 0
7, 146457, Note_off_c, 9, 28, 0
7, 146457, Note_off_c, 9, 63, 0
7, 146460, Note_off_c, 9, 40, 0
7, 146460, Note_off_c, 9, 38, 0
7, 146460, Note_off_c, 9, 35, 0
7, 146460, Note_off_c, 9, 36, 0
7, 146460, Note_off_c, 9, 46, 0
7, 146640, Note_on_c, 9, 74, 120
7, 146640, Note_on_c, 9, 76, 120
7, 146640, Note_on_c, 9, 62, 120
7, 146640, Note_on_c, 9, 36, 120
7, 146640, Note_on_c, 9, 35, 120
7, 146640, Note_on_c, 9, 46, 120
7, 146697, Note_off_c, 9, 35, 0
7, 146697, Note_off_c, 9, 36, 0
7, 146697, Note_off_c, 9, 62, 0
7, 146697, Note_off_c, 9, 76, 0
7, 146700, Note_off_c, 9, 46, 0
7, 146868, Note_off_c, 9, 74, 0
7, 146880, Note_on_c, 9, 74, 120
7, 146880, Note_on_c, 9, 75, 120
7, 146880, Note_on_c, 9, 62, 120
7, 146880, Note_on_c, 9, 63, 120
7, 146880, Note_on_c, 9, 36, 120
7, 146880, Note_on_c, 9, 28, 120
7, 146880, Note_on_c, 9, 46, 120
7, 146937, Note_off_c, 9, 28, 0
7, 146937, Note_off_c, 9, 36, 0
7, 146937, Note_off_c, 9, 63, 0
7, 146937, Note_off_c, 9, 62, 0
7, 146940, Note_off_c, 9, 46, 0
7, 147120, Note_on_c, 9, 62, 120
7, 147120, Note_on_c, 9, 46, 120
7, 147120, Note_on_c, 9, 36, 120
7, 147120, Note_on_c, 9, 35, 120
7, 147177, Note_off_c, 9, 62, 0
7, 147180, Note_off_c, 9, 46, 0
7, 147180, Note_off_c, 9, 36, 0
7, 147180, Note_off_c, 9, 35, 0
7, 147336, Note_off_c, 9, 75, 0
7, 147336, Note_off_c, 9, 74, 0
7, 147360, Note_on_c, 9, 76, 120
7, 147360, Note_on_c, 9, 62, 120
7, 147360, Note_on_c, 9, 63, 120
7, 147360, Note_on_c, 9, 28, 120
7, 147360, Note_on_c, 9, 37, 120
7, 147360, Note_on_c, 9, 42, 120
7, 147360, Note_on_c, 9, 36, 120
7, 147360, Note_on_c, 9, 40, 120
7, 147360, Note_on_c, 9, 46, 120
7, 147360, Note_on_c, 9, 35, 120
7, 147360, Note_on_c, 9, 38, 120
7, 147417, Note_off_c, 9, 42, 0
7, 147417, Note_off_c, 9, 37, 0
7, 147417, Note_off_c, 9, 28, 0
7, 147417, Note_off_c, 9, 63, 0
7, 147417, Note_off_c, 9, 62, 0
7, 147417, Note_off_c, 9, 76, 0
7, 147420, Note_off_c, 9, 36, 0
7, 147420, Note_off_c, 9, 40, 0
7, 147420, Note_off_c, 9, 46, 0
7, 147420, Note_off_c, 9, 35, 0
7, 147420, Note_off_c, 9, 38, 0
7, 147600, Note_on_c, 9, 74, 120
7, 147600, Note_on_c, 9, 62, 120
7, 147600, Note_on_c, 9, 36, 120
7, 147600, Note_on_c, 9, 35, 120
7, 147600, Note_on_c, 9, 46, 120
7, 147657, Note_off_c, 9, 35, 0
7, 147657, Note_off_c, 9, 36, 0
7, 147657, Note_off_c, 9, 62, 0
7, 147660, Note_off_c, 9, 46, 0
7, 147828, Note_off_c, 9, 74, 0
7, 147840, Note_on_c, 9, 74, 120
7, 147840, Note_on_c, 9, 75, 120
7, 147840, Note_on_c, 9, 62, 120
7, 147840, Note_on_c, 9, 37, 120
7, 147840, Note_on_c, 9, 35, 120
7, 147840, Note_on_c, 9, 36, 120
7, 147840, Note_on_c, 9, 46, 120
7, 147840, Note_on_c, 9, 28, 120
7, 147897, Note_off_c, 9, 28, 0
7, 147897, Note_off_c, 9, 62, 0
7, 147900, Note_off_c, 9, 37, 0
7, 147900, Note_off_c, 9, 35, 0
7, 147900, Note_off_c, 9, 36, 0
7, 147900, Note_off_c, 9, 46, 0
7, 148080, Note_on_c, 9, 62, 120
7, 148080, Note_on_c, 9, 46, 120
7, 148080, Note_on_c, 9, 35, 120
7, 148080, Note_on_c, 9, 36, 120
7, 148137, Note_off_c, 9, 62, 0
7, 148140, Note_off_c, 9, 46, 0
7, 148140, Note_off_c, 9, 35, 0
7, 148140, Note_off_c, 9, 36, 0
7, 148296, Note_off_c, 9, 75, 0
7, 148296, Note_off_c, 9, 74, 0
7, 148320, Note_on_c, 9, 76, 120
7, 148320, Note_on_c, 9, 62, 120
7, 148320, Note_on_c, 9, 63, 120
7, 148320, Note_on_c, 9, 28, 120
7, 148320, Note_on_c, 9, 37, 120
7, 148320, Note_on_c, 9, 42, 120
7, 148320, Note_on_c, 9, 40, 120
7, 148320, Note_on_c, 9, 38, 120
7, 148320, Note_on_c, 9, 35, 120
7, 148320, Note_on_c, 9, 36, 120
7, 148320, Note_on_c, 9, 46, 120
7, 148377, Note_off_c, 9, 42, 0
7, 148377, Note_off_c, 9, 37, 0
7, 148377, Note_off_c, 9, 28, 0
7, 148377, Note_off_c, 9, 63, 0
7, 148377, Note_off_c, 9, 62, 0
7, 148377, Note_off_c, 9, 76, 0
7, 148380, Note_off_c, 9, 40, 0
7, 148380, Note_off_c, 9, 38, 0
7, 148380, Note_off_c, 9, 35, 0
7, 148380, Note_off_c, 9, 36, 0
7, 148380, Note_off_c, 9, 46, 0
7, 148560, Note_on_c, 9, 74, 120
7, 148560, Note_on_c, 9, 62, 120
7, 148560, Note_on_c, 9, 36, 120
7, 148560, Note_on_c, 9, 35, 120
7, 148560, Note_on_c, 9, 46, 120
7, 148617, Note_off_c, 9, 35, 0
7, 148617, Note_off_c, 9, 36, 0
7, 148617, Note_off_c, 9, 62, 0
7, 148620, Note_off_c, 9, 46, 0
7, 148788, Note_off_c, 9, 74, 0
7, 148800, Note_on_c, 9, 74, 120
7, 148800, Note_on_c, 9, 75, 120
7, 148800, Note_on_c, 9, 62, 120
7, 148800, Note_on_c, 9, 63, 120
7, 148800, Note_on_c, 9, 36, 120
7, 148800, Note_on_c, 9, 28, 120
7, 148800, Note_on_c, 9, 46, 120
7, 148857, Note_off_c, 9, 28, 0
7, 148857, Note_off_c, 9, 36, 0
7, 148857, Note_off_c, 9, 63, 0
7, 148857, Note_off_c, 9, 62, 0
7, 148860, Note_off_c, 9, 46, 0
7, 149040, Note_on_c, 9, 76, 120
7, 149040, Note_on_c, 9, 62, 120
7, 149040, Note_on_c, 9, 46, 120
7, 149040, Note_on_c, 9, 36, 120
7, 149040, Note_on_c, 9, 35, 120
7, 149097, Note_off_c, 9, 62, 0
7, 149097, Note_off_c, 9, 76, 0
7, 149100, Note_off_c, 9, 46, 0
7, 149100, Note_off_c, 9, 36, 0
7, 149100, Note_off_c, 9, 35, 0
7, 149256, Note_off_c, 9, 75, 0
7, 149256, Note_off_c, 9, 74, 0
7, 149280, Note_on_c, 9, 62, 120
7, 149280, Note_on_c, 9, 63, 120
7, 149280, Note_on_c, 9, 28, 120
7, 149280, Note_on_c, 9, 37, 120
7, 149280, Note_on_c, 9, 42, 120
7, 149280, Note_on_c, 9, 36, 120
7, 149280, Note_on_c, 9, 40, 120
7, 149280, Note_on_c, 9, 46, 120
7, 149280, Note_on_c, 9, 35, 120
7, 149280, Note_on_c, 9, 38, 120
7, 149337, Note_off_c, 9, 42, 0
7, 149337, Note_off_c, 9, 37, 0
7, 149337, Note_off_c, 9, 28, 0
7, 149337, Note_off_c, 9, 63, 0
7, 149337, Note_off_c, 9, 62, 0
7, 149340, Note_off_c, 9, 36, 0
7, 149340, Note_off_c, 9, 40, 0
7, 149340, Note_off_c, 9, 46, 0
7, 149340, Note_off_c, 9, 35, 0
7, 149340, Note_off_c, 9, 38, 0
7, 149396, Note_on_c, 9, 62, 120
7, 149453, Note_off_c, 9, 62, 0
7, 149520, Note_on_c, 9, 74, 120
7, 149520, Note_on_c, 9, 61, 120
7, 149520, Note_on_c, 9, 62, 120
7, 149520, Note_on_c, 9, 36, 120
7, 149520, Note_on_c, 9, 35, 120
7, 149520, Note_on_c, 9, 46, 120
7, 149577, Note_off_c, 9, 35, 0
7, 149577, Note_off_c, 9, 36, 0
7, 149577, Note_off_c, 9, 62, 0
7, 149577, Note_off_c, 9, 61, 0
7, 149580, Note_off_c, 9, 46, 0
7, 149643, Note_on_c, 9, 60, 120
7, 149643, Note_on_c, 9, 61, 120
7, 149700, Note_off_c, 9, 61, 0
7, 149700, Note_off_c, 9, 60, 0
7, 149748, Note_off_c, 9, 74, 0
7, 149760, Note_on_c, 9, 74, 120
7, 149760, Note_on_c, 9, 76, 120
7, 149760, Note_on_c, 9, 75, 120
7, 149760, Note_on_c, 9, 62, 120
7, 149760, Note_on_c, 9, 37, 120
7, 149760, Note_on_c, 9, 35, 120
7, 149760, Note_on_c, 9, 36, 120
7, 149760, Note_on_c, 9, 46, 120
7, 149760, Note_on_c, 9, 28, 120
7, 149817, Note_off_c, 9, 28, 0
7, 149817, Note_off_c, 9, 62, 0
7, 149817, Note_off_c, 9, 76, 0
7, 149820, Note_off_c, 9, 37, 0
7, 149820, Note_off_c, 9, 35, 0
7, 149820, Note_off_c, 9, 36, 0
7, 149820, Note_off_c, 9, 46, 0
7, 150000, Note_on_c, 9, 62, 120
7, 150000, Note_on_c, 9, 46, 120
7, 150000, Note_on_c, 9, 35, 120
7, 150000, Note_on_c, 9, 36, 120
7, 150057, Note_off_c, 9, 62, 0
7, 150060, Note_off_c, 9, 46, 0
7, 150060, Note_off_c, 9, 35, 0
7, 150060, Note_off_c, 9, 36, 0
7, 150216, Note_off_c, 9, 74, 0
7, 150216, Note_off_c, 9, 75, 0
7, 150240, Note_on_c, 9, 63, 120
7, 150240, Note_on_c, 9, 28, 120
7, 150240, Note_on_c, 9, 37, 120
7, 150240, Note_on_c, 9, 42, 120
7, 150240, Note_on_c, 9, 40, 120
7, 150240, Note_on_c, 9, 38, 120
7, 150240, Note_on_c, 9, 35, 120
7, 150240, Note_on_c, 9, 36, 120
7, 150240, Note_on_c, 9, 46, 120
7, 150297, Note_off_c, 9, 42, 0
7, 150297, Note_off_c, 9, 37, 0
7, 150297, Note_off_c, 9, 28, 0
7, 150297, Note_off_c, 9, 63, 0
7, 150300, Note_off_c, 9, 40, 0
7, 150300, Note_off_c, 9, 38, 0
7, 150300, Note_off_c, 9, 35, 0
7, 150300, Note_off_c, 9, 36, 0
7, 150300, Note_off_c, 9, 46, 0
7, 150480, Note_on_c, 9, 74, 120
7, 150480, Note_on_c, 9, 76, 120
7, 150480, Note_on_c, 9, 62, 120
7, 150480, Note_on_c, 9, 36, 120
7, 150480, Note_on_c, 9, 35, 120
7, 150480, Note_on_c, 9, 46, 120
7, 150537, Note_off_c, 9, 35, 0
7, 150537, Note_off_c, 9, 36, 0
7, 150537, Note_off_c, 9, 62, 0
7, 150537, Note_off_c, 9, 76, 0
7, 150540, Note_off_c, 9, 46, 0
7, 150708, Note_off_c, 9, 74, 0
7, 150720, Note_on_c, 9, 74, 120
7, 150720, Note_on_c, 9, 75, 120
7, 150720, Note_on_c, 9, 62, 120
7, 150720, Note_on_c, 9, 63, 120
7, 150720, Note_on_c, 9, 36, 120
7, 150720, Note_on_c, 9, 28, 120
7, 150720, Note_on_c, 9, 46, 120
7, 150777, Note_off_c, 9, 28, 0
7, 150777, Note_off_c, 9, 36, 0
7, 150777, Note_off_c, 9, 63, 0
7, 150777, Note_off_c, 9, 62, 0
7, 150780, Note_off_c, 9, 46, 0
7, 150960, Note_on_c, 9, 62, 120
7, 150960, Note_on_c, 9, 46, 120
7, 150960, Note_on_c, 9, 36, 120
7, 150960, Note_on_c, 9, 35, 120
7, 151017, Note_off_c, 9, 62, 0
7, 151020, Note_off_c, 9, 46, 0
7, 151020, Note_off_c, 9, 36, 0
7, 151020, Note_off_c, 9, 35, 0
7, 151176, Note_off_c, 9, 75, 0
7, 151176, Note_off_c, 9, 74, 0
7, 151200, Note_on_c, 9, 76, 120
7, 151200, Note_on_c, 9, 62, 120
7, 151200, Note_on_c, 9, 63, 120
7, 151200, Note_on_c, 9, 28, 120
7, 151200, Note_on_c, 9, 37, 120
7, 151200, Note_on_c, 9, 42, 120
7, 151200, Note_on_c, 9, 36, 120
7, 151200, Note_on_c, 9, 40, 120
7, 151200, Note_on_c, 9, 46, 120
7, 151200, Note_on_c, 9, 35, 120
7, 151200, Note_on_c, 9, 38, 120
7, 151257, Note_off_c, 9, 42, 0
7, 151257, Note_off_c, 9, 37, 0
7, 151257, Note_off_c, 9, 28, 0
7, 151257, Note_off_c, 9, 63, 0
7, 151257, Note_off_c, 9, 62, 0
7, 151257, Note_off_c, 9, 76, 0
7, 151260, Note_off_c, 9, 36, 0
7, 151260, Note_off_c, 9, 40, 0
7, 151260, Note_off_c, 9, 46, 0
7, 151260, Note_off_c, 9, 35, 0
7, 151260, Note_off_c, 9, 38, 0
7, 151440, Note_on_c, 9, 74, 120
7, 151440, Note_on_c, 9, 62, 120
7, 151440, Note_on_c, 9, 36, 120
7, 151440, Note_on_c, 9, 35, 120
7, 151440, Note_on_c, 9, 46, 120
7, 151497, Note_off_c, 9, 35, 0
7, 151497, Note_off_c, 9, 36, 0
7, 151497, Note_off_c, 9, 62, 0
7, 151500, Note_off_c, 9, 46, 0
7, 151668, Note_off_c, 9, 74, 0
7, 151680, Note_on_c, 9, 74, 120
7, 151680, Note_on_c, 9, 75, 120
7, 151680, Note_on_c, 9, 62, 120
7, 151680, Note_on_c, 9, 37, 120
7, 151680, Note_on_c, 9, 35, 120
7, 151680, Note_on_c, 9, 36, 120
7, 151680, Note_on_c, 9, 46, 120
7, 151680, Note_on_c, 9, 28, 120
7, 151737, Note_off_c, 9, 28, 0
7, 151737, Note_off_c, 9, 62, 0
7, 151740, Note_off_c, 9, 37, 0
7, 151740, Note_off_c, 9, 35, 0
7, 151740, Note_off_c, 9, 36, 0
7, 151740, Note_off_c, 9, 46, 0
7, 151920, Note_on_c, 9, 62, 120
7, 151920, Note_on_c, 9, 46, 120
7, 151920, Note_on_c, 9, 35, 120
7, 151920, Note_on_c, 9, 36, 120
7, 151977, Note_off_c, 9, 62, 0
7, 151980, Note_off_c, 9, 46, 0
7, 151980, Note_off_c, 9, 35, 0
7, 151980, Note_off_c, 9, 36, 0
7, 152136, Note_off_c, 9, 75, 0
7, 152136, Note_off_c, 9, 74, 0
7, 152160, Note_on_c, 9, 76, 120
7, 152160, Note_on_c, 9, 62, 120
7, 152160, Note_on_c, 9, 63, 120
7, 152160, Note_on_c, 9, 28, 120
7, 152160, Note_on_c, 9, 37, 120
7, 152160, Note_on_c, 9, 42, 120
7, 152160, Note_on_c, 9, 40, 120
7, 152160, Note_on_c, 9, 38, 120
7, 152160, Note_on_c, 9, 35, 120
7, 152160, Note_on_c, 9, 36, 120
7, 152160, Note_on_c, 9, 46, 120
7, 152217, Note_off_c, 9, 42, 0
7, 152217, Note_off_c, 9, 37, 0
7, 152217, Note_off_c, 9, 28, 0
7, 152217, Note_off_c, 9, 63, 0
7, 152217, Note_off_c, 9, 62, 0
7, 152217, Note_off_c, 9, 76, 0
7, 152220, Note_off_c, 9, 40, 0
7, 152220, Note_off_c, 9, 38, 0
7, 152220, Note_off_c, 9, 35, 0
7, 152220, Note_off_c, 9, 36, 0
7, 152220, Note_off_c, 9, 46, 0
7, 152400, Note_on_c, 9, 74, 120
7, 152400, Note_on_c, 9, 62, 120
7, 152400, Note_on_c, 9, 36, 120
7, 152400, Note_on_c, 9, 35, 120
7, 152400, Note_on_c, 9, 46, 120
7, 152457, Note_off_c, 9, 35, 0
7, 152457, Note_off_c, 9, 36, 0
7, 152457, Note_off_c, 9, 62, 0
7, 152460, Note_off_c, 9, 46, 0
7, 152628, Note_off_c, 9, 74, 0
7, 152640, Note_on_c, 9, 74, 120
7, 152640, Note_on_c, 9, 75, 120
7, 152640, Note_on_c, 9, 62, 120
7, 152640, Note_on_c, 9, 63, 120
7, 152640, Note_on_c, 9, 36, 120
7, 152640, Note_on_c, 9, 28, 120
7, 152640, Note_on_c, 9, 46, 120
7, 152697, Note_off_c, 9, 28, 0
7, 152697, Note_off_c, 9, 36, 0
7, 152697, Note_off_c, 9, 63, 0
7, 152697, Note_off_c, 9, 62, 0
7, 152700, Note_off_c, 9, 46, 0
7, 152880, Note_on_c, 9, 76, 120
7, 152880, Note_on_c, 9, 62, 120
7, 152880, Note_on_c, 9, 46, 120
7, 152880, Note_on_c, 9, 36, 120
7, 152880, Note_on_c, 9, 35, 120
7, 152937, Note_off_c, 9, 62, 0
7, 152937, Note_off_c, 9, 76, 0
7, 152940, Note_off_c, 9, 46, 0
7, 152940, Note_off_c, 9, 36, 0
7, 152940, Note_off_c, 9, 35, 0
7, 153096, Note_off_c, 9, 75, 0
7, 153096, Note_off_c, 9, 74, 0
7, 153120, Note_on_c, 9, 62, 120
7, 153120, Note_on_c, 9, 63, 120
7, 153120, Note_on_c, 9, 28, 120
7, 153120, Note_on_c, 9, 37, 120
7, 153120, Note_on_c, 9, 42, 120
7, 153120, Note_on_c, 9, 36, 120
7, 153120, Note_on_c, 9, 40, 120
7, 153120, Note_on_c, 9, 46, 120
7, 153120, Note_on_c, 9, 35, 120
7, 153120, Note_on_c, 9, 38, 120
7, 153177, Note_off_c, 9, 42, 0
7, 153177, Note_off_c, 9, 37, 0
7, 153177, Note_off_c, 9, 28, 0
7, 153177, Note_off_c, 9, 63, 0
7, 153177, Note_off_c, 9, 62, 0
7, 153180, Note_off_c, 9, 36, 0
7, 153180, Note_off_c, 9, 40, 0
7, 153180, Note_off_c, 9, 46, 0
7, 153180, Note_off_c, 9, 35, 0
7, 153180, Note_off_c, 9, 38, 0
7, 153236, Note_on_c, 9, 62, 120
7, 153293, Note_off_c, 9, 62, 0
7, 153360, Note_on_c, 9, 74, 120
7, 153360, Note_on_c, 9, 61, 120
7, 153360, Note_on_c, 9, 62, 120
7, 153360, Note_on_c, 9, 36, 120
7, 153360, Note_on_c, 9, 35, 120
7, 153360, Note_on_c, 9, 46, 120
7, 153417, Note_off_c, 9, 35, 0
7, 153417, Note_off_c, 9, 36, 0
7, 153417, Note_off_c, 9, 62, 0
7, 153417, Note_off_c, 9, 61, 0
7, 153420, Note_off_c, 9, 46, 0
7, 153483, Note_on_c, 9, 60, 120
7, 153483, Note_on_c, 9, 61, 120
7, 153540, Note_off_c, 9, 61, 0
7, 153540, Note_off_c, 9, 60, 0
7, 153588, Note_off_c, 9, 74, 0
7, 153600, Note_on_c, 9, 74, 120
7, 153600, Note_on_c, 9, 76, 120
7, 153600, Note_on_c, 9, 28, 120
7, 153600, Note_on_c, 9, 62, 120
7, 153600, Note_on_c, 9, 49, 120
7, 153600, Note_on_c, 9, 51, 120
7, 153600, Note_on_c, 9, 46, 120
7, 153600, Note_on_c, 9, 36, 120
7, 153600, Note_on_c, 9, 35, 120
7, 153600, Note_on_c, 9, 37, 120
7, 153600, Note_on_c, 9, 75, 120
7, 153657, Note_off_c, 9, 62, 0
7, 153657, Note_off_c, 9, 28, 0
7, 153657, Note_off_c, 9, 76, 0
7, 153660, Note_off_c, 9, 49, 0
7, 153660, Note_off_c, 9, 51, 0
7, 153660, Note_off_c, 9, 46, 0
7, 153660, Note_off_c, 9, 36, 0
7, 153660, Note_off_c, 9, 35, 0
7, 153660, Note_off_c, 9, 37, 0
7, 153840, Note_on_c, 9, 62, 120
7, 153840, Note_on_c, 9, 46, 120
7, 153840, Note_on_c, 9, 35, 120
7, 153840, Note_on_c, 9, 36, 120
7, 153897, Note_off_c, 9, 62, 0
7, 153900, Note_off_c, 9, 46, 0
7, 153900, Note_off_c, 9, 35, 0
7, 153900, Note_off_c, 9, 36, 0
7, 154056, Note_off_c, 9, 74, 0
7, 154056, Note_off_c, 9, 75, 0
7, 154080, Note_on_c, 9, 28, 120
7, 154080, Note_on_c, 9, 63, 120
7, 154080, Note_on_c, 9, 37, 120
7, 154080, Note_on_c, 9, 42, 120
7, 154080, Note_on_c, 9, 40, 120
7, 154080, Note_on_c, 9, 38, 120
7, 154080, Note_on_c, 9, 35, 120
7, 154080, Note_on_c, 9, 36, 120
7, 154080, Note_on_c, 9, 46, 120
7, 154137, Note_off_c, 9, 42, 0
7, 154137, Note_off_c, 9, 37, 0
7, 154137, Note_off_c, 9, 63, 0
7, 154137, Note_off_c, 9, 28, 0
7, 154140, Note_off_c, 9, 40, 0
7, 154140, Note_off_c, 9, 38, 0
7, 154140, Note_off_c, 9, 35, 0
7, 154140, Note_off_c, 9, 36, 0
7, 154140, Note_off_c, 9, 46, 0
7, 154320, Note_on_c, 9, 36, 120
7, 154320, Note_on_c, 9, 35, 120
7, 154320, Note_on_c, 9, 74, 120
7, 154320, Note_on_c, 9, 76, 120
7, 154320, Note_on_c, 9, 62, 120
7, 154320, Note_on_c, 9, 46, 120
7, 154377, Note_off_c, 9, 62, 0
7, 154377, Note_off_c, 9, 76, 0
7, 154377, Note_off_c, 9, 35, 0
7, 154377, Note_off_c, 9, 36, 0
7, 154380, Note_off_c, 9, 46, 0
7, 154548, Note_off_c, 9, 74, 0
7, 154560, Note_on_c, 9, 36, 120
7, 154560, Note_on_c, 9, 74, 120
7, 154560, Note_on_c, 9, 75, 120
7, 154560, Note_on_c, 9, 28, 120
7, 154560, Note_on_c, 9, 62, 120
7, 154560, Note_on_c, 9, 63, 120
7, 154560, Note_on_c, 9, 46, 120
7, 154617, Note_off_c, 9, 63, 0
7, 154617, Note_off_c, 9, 62, 0
7, 154617, Note_off_c, 9, 28, 0
7, 154617, Note_off_c, 9, 36, 0
7, 154620, Note_off_c, 9, 46, 0
7, 154800, Note_on_c, 9, 62, 120
7, 154800, Note_on_c, 9, 46, 120
7, 154800, Note_on_c, 9, 36, 120
7, 154800, Note_on_c, 9, 35, 120
7, 154857, Note_off_c, 9, 62, 0
7, 154860, Note_off_c, 9, 46, 0
7, 154860, Note_off_c, 9, 36, 0
7, 154860, Note_off_c, 9, 35, 0
7, 155016, Note_off_c, 9, 74, 0
7, 155016, Note_off_c, 9, 75, 0
7, 155040, Note_on_c, 9, 76, 120
7, 155040, Note_on_c, 9, 28, 120
7, 155040, Note_on_c, 9, 62, 120
7, 155040, Note_on_c, 9, 63, 120
7, 155040, Note_on_c, 9, 37, 120
7, 155040, Note_on_c, 9, 42, 120
7, 155040, Note_on_c, 9, 36, 120
7, 155040, Note_on_c, 9, 40, 120
7, 155040, Note_on_c, 9, 46, 120
7, 155040, Note_on_c, 9, 35, 120
7, 155040, Note_on_c, 9, 38, 120
7, 155097, Note_off_c, 9, 42, 0
7, 155097, Note_off_c, 9, 37, 0
7, 155097, Note_off_c, 9, 63, 0
7, 155097, Note_off_c, 9, 62, 0
7, 155097, Note_off_c, 9, 28, 0
7, 155097, Note_off_c, 9, 76, 0
7, 155100, Note_off_c, 9, 36, 0
7, 155100, Note_off_c, 9, 40, 0
7, 155100, Note_off_c, 9, 46, 0
7, 155100, Note_off_c, 9, 35, 0
7, 155100, Note_off_c, 9, 38, 0
7, 155280, Note_on_c, 9, 36, 120
7, 155280, Note_on_c, 9, 35, 120
7, 155280, Note_on_c, 9, 74, 120
7, 155280, Note_on_c, 9, 62, 120
7, 155280, Note_on_c, 9, 46, 120
7, 155337, Note_off_c, 9, 62, 0
7, 155337, Note_off_c, 9, 35, 0
7, 155337, Note_off_c, 9, 36, 0
7, 155340, Note_off_c, 9, 46, 0
7, 155508, Note_off_c, 9, 74, 0
7, 155520, Note_on_c, 9, 74, 120
7, 155520, Note_on_c, 9, 75, 120
7, 155520, Note_on_c, 9, 62, 120
7, 155520, Note_on_c, 9, 37, 120
7, 155520, Note_on_c, 9, 35, 120
7, 155520, Note_on_c, 9, 36, 120
7, 155520, Note_on_c, 9, 46, 120
7, 155520, Note_on_c, 9, 28, 120
7, 155577, Note_off_c, 9, 28, 0
7, 155577, Note_off_c, 9, 62, 0
7, 155580, Note_off_c, 9, 37, 0
7, 155580, Note_off_c, 9, 35, 0
7, 155580, Note_off_c, 9, 36, 0
7, 155580, Note_off_c, 9, 46, 0
7, 155760, Note_on_c, 9, 62, 120
7, 155760, Note_on_c, 9, 46, 120
7, 155760, Note_on_c, 9, 35, 120
7, 155760, Note_on_c, 9, 36, 120
7, 155817, Note_off_c, 9, 62, 0
7, 155820, Note_off_c, 9, 46, 0
7, 155820, Note_off_c, 9, 35, 0
7, 155820, Note_off_c, 9, 36, 0
7, 155976, Note_off_c, 9, 75, 0
7, 155976, Note_off_c, 9, 74, 0
7, 156000, Note_on_c, 9, 76, 120
7, 156000, Note_on_c, 9, 62, 120
7, 156000, Note_on_c, 9, 63, 120
7, 156000, Note_on_c, 9, 28, 120
7, 156000, Note_on_c, 9, 37, 120
7, 156000, Note_on_c, 9, 42, 120
7, 156000, Note_on_c, 9, 40, 120
7, 156000, Note_on_c, 9, 38, 120
7, 156000, Note_on_c, 9, 35, 120
7, 156000, Note_on_c, 9, 36, 120
7, 156000, Note_on_c, 9, 46, 120
7, 156057, Note_off_c, 9, 42, 0
7, 156057, Note_off_c, 9, 37, 0
7, 156057, Note_off_c, 9, 28, 0
7, 156057, Note_off_c, 9, 63, 0
7, 156057, Note_off_c, 9, 62, 0
7, 156057, Note_off_c, 9, 76, 0
7, 156060, Note_off_c, 9, 40, 0
7, 156060, Note_off_c, 9, 38, 0
7, 156060, Note_off_c, 9, 35, 0
7, 156060, Note_off_c, 9, 36, 0
7, 156060, Note_off_c, 9, 46, 0
7, 156240, Note_on_c, 9, 74, 120
7, 156240, Note_on_c, 9, 62, 120
7, 156240, Note_on_c, 9, 36, 120
7, 156240, Note_on_c, 9, 35, 120
7, 156240, Note_on_c, 9, 46, 120
7, 156297, Note_off_c, 9, 35, 0
7, 156297, Note_off_c, 9, 36, 0
7, 156297, Note_off_c, 9, 62, 0
7, 156300, Note_off_c, 9, 46, 0
7, 156468, Note_off_c, 9, 74, 0
7, 156480, Note_on_c, 9, 74, 120
7, 156480, Note_on_c, 9, 75, 120
7, 156480, Note_on_c, 9, 62, 120
7, 156480, Note_on_c, 9, 63, 120
7, 156480, Note_on_c, 9, 36, 120
7, 156480, Note_on_c, 9, 28, 120
7, 156480, Note_on_c, 9, 46, 120
7, 156537, Note_off_c, 9, 28, 0
7, 156537, Note_off_c, 9, 36, 0
7, 156537, Note_off_c, 9, 63, 0
7, 156537, Note_off_c, 9, 62, 0
7, 156540, Note_off_c, 9, 46, 0
7, 156720, Note_on_c, 9, 76, 120
7, 156720, Note_on_c, 9, 62, 120
7, 156720, Note_on_c, 9, 46, 120
7, 156720, Note_on_c, 9, 36, 120
7, 156720, Note_on_c, 9, 35, 120
7, 156777, Note_off_c, 9, 62, 0
7, 156777, Note_off_c, 9, 76, 0
7, 156780, Note_off_c, 9, 46, 0
7, 156780, Note_off_c, 9, 36, 0
7, 156780, Note_off_c, 9, 35, 0
7, 156936, Note_off_c, 9, 75, 0
7, 156936, Note_off_c, 9, 74, 0
7, 156960, Note_on_c, 9, 62, 120
7, 156960, Note_on_c, 9, 63, 120
7, 156960, Note_on_c, 9, 28, 120
7, 156960, Note_on_c, 9, 37, 120
7, 156960, Note_on_c, 9, 42, 120
7, 156960, Note_on_c, 9, 36, 120
7, 156960, Note_on_c, 9, 40, 120
7, 156960, Note_on_c, 9, 46, 120
7, 156960, Note_on_c, 9, 35, 120
7, 156960, Note_on_c, 9, 38, 120
7, 157017, Note_off_c, 9, 42, 0
7, 157017, Note_off_c, 9, 37, 0
7, 157017, Note_off_c, 9, 28, 0
7, 157017, Note_off_c, 9, 63, 0
7, 157017, Note_off_c, 9, 62, 0
7, 157020, Note_off_c, 9, 36, 0
7, 157020, Note_off_c, 9, 40, 0
7, 157020, Note_off_c, 9, 46, 0
7, 157020, Note_off_c, 9, 35, 0
7, 157020, Note_off_c, 9, 38, 0
7, 157076, Note_on_c, 9, 62, 120
7, 157133, Note_off_c, 9, 62, 0
7, 157200, Note_on_c, 9, 74, 120
7, 157200, Note_on_c, 9, 61, 120
7, 157200, Note_on_c, 9, 62, 120
7, 157200, Note_on_c, 9, 36, 120
7, 157200, Note_on_c, 9, 35, 120
7, 157200, Note_on_c, 9, 46, 120
7, 157257, Note_off_c, 9, 35, 0
7, 157257, Note_off_c, 9, 36, 0
7, 157257, Note_off_c, 9, 62, 0
7, 157257, Note_off_c, 9, 61, 0
7, 157260, Note_off_c, 9, 46, 0
7, 157323, Note_on_c, 9, 60, 120
7, 157323, Note_on_c, 9, 61, 120
7, 157380, Note_off_c, 9, 61, 0
7, 157380, Note_off_c, 9, 60, 0
7, 157428, Note_off_c, 9, 74, 0
7, 157440, Note_on_c, 9, 74, 120
7, 157440, Note_on_c, 9, 76, 120
7, 157440, Note_on_c, 9, 75, 120
7, 157440, Note_on_c, 9, 62, 120
7, 157440, Note_on_c, 9, 37, 120
7, 157440, Note_on_c, 9, 35, 120
7, 157440, Note_on_c, 9, 36, 120
7, 157440, Note_on_c, 9, 46, 120
7, 157440, Note_on_c, 9, 28, 120
7, 157497, Note_off_c, 9, 28, 0
7, 157497, Note_off_c, 9, 62, 0
7, 157497, Note_off_c, 9, 76, 0
7, 157500, Note_off_c, 9, 37, 0
7, 157500, Note_off_c, 9, 35, 0
7, 157500, Note_off_c, 9, 36, 0
7, 157500, Note_off_c, 9, 46, 0
7, 157680, Note_on_c, 9, 62, 120
7, 157680, Note_on_c, 9, 46, 120
7, 157680, Note_on_c, 9, 35, 120
7, 157680, Note_on_c, 9, 36, 120
7, 157737, Note_off_c, 9, 62, 0
7, 157740, Note_off_c, 9, 46, 0
7, 157740, Note_off_c, 9, 35, 0
7, 157740, Note_off_c, 9, 36, 0
7, 157896, Note_off_c, 9, 74, 0
7, 157896, Note_off_c, 9, 75, 0
7, 157920, Note_on_c, 9, 63, 120
7, 157920, Note_on_c, 9, 28, 120
7, 157920, Note_on_c, 9, 37, 120
7, 157920, Note_on_c, 9, 42, 120
7, 157920, Note_on_c, 9, 40, 120
7, 157920, Note_on_c, 9, 38, 120
7, 157920, Note_on_c, 9, 35, 120
7, 157920, Note_on_c, 9, 36, 120
7, 157920, Note_on_c, 9, 46, 120
7, 157977, Note_off_c, 9, 42, 0
7, 157977, Note_off_c, 9, 37, 0
7, 157977, Note_off_c, 9, 28, 0
7, 157977, Note_off_c, 9, 63, 0
7, 157980, Note_off_c, 9, 40, 0
7, 157980, Note_off_c, 9, 38, 0
7, 157980, Note_off_c, 9, 35, 0
7, 157980, Note_off_c, 9, 36, 0
7, 157980, Note_off_c, 9, 46, 0
7, 158160, Note_on_c, 9, 74, 120
7, 158160, Note_on_c, 9, 76, 120
7, 158160, Note_on_c, 9, 62, 120
7, 158160, Note_on_c, 9, 36, 120
7, 158160, Note_on_c, 9, 35, 120
7, 158160, Note_on_c, 9, 46, 120
7, 158217, Note_off_c, 9, 35, 0
7, 158217, Note_off_c, 9, 36, 0
7, 158217, Note_off_c, 9, 62, 0
7, 158217, Note_off_c, 9, 76, 0
7, 158220, Note_off_c, 9, 46, 0
7, 158388, Note_off_c, 9, 74, 0
7, 158400, Note_on_c, 9, 74, 120
7, 158400, Note_on_c, 9, 75, 120
7, 158400, Note_on_c, 9, 62, 120
7, 158400, Note_on_c, 9, 63, 120
7, 158400, Note_on_c, 9, 36, 120
7, 158400, Note_on_c, 9, 28, 120
7, 158400, Note_on_c, 9, 46, 120
7, 158457, Note_off_c, 9, 28, 0
7, 158457, Note_off_c, 9, 36, 0
7, 158457, Note_off_c, 9, 63, 0
7, 158457, Note_off_c, 9, 62, 0
7, 158460, Note_off_c, 9, 46, 0
7, 158640, Note_on_c, 9, 62, 120
7, 158640, Note_on_c, 9, 46, 120
7, 158640, Note_on_c, 9, 36, 120
7, 158640, Note_on_c, 9, 35, 120
7, 158697, Note_off_c, 9, 62, 0
7, 158700, Note_off_c, 9, 46, 0
7, 158700, Note_off_c, 9, 36, 0
7, 158700, Note_off_c, 9, 35, 0
7, 158856, Note_off_c, 9, 75, 0
7, 158856, Note_off_c, 9, 74, 0
7, 158880, Note_on_c, 9, 76, 120
7, 158880, Note_on_c, 9, 62, 120
7, 158880, Note_on_c, 9, 63, 120
7, 158880, Note_on_c, 9, 28, 120
7, 158880, Note_on_c, 9, 37, 120
7, 158880, Note_on_c, 9, 42, 120
7, 158880, Note_on_c, 9, 36, 120
7, 158880, Note_on_c, 9, 40, 120
7, 158880, Note_on_c, 9, 46, 120
7, 158880, Note_on_c, 9, 35, 120
7, 158880, Note_on_c, 9, 38, 120
7, 158937, Note_off_c, 9, 42, 0
7, 158937, Note_off_c, 9, 37, 0
7, 158937, Note_off_c, 9, 28, 0
7, 158937, Note_off_c, 9, 63, 0
7, 158937, Note_off_c, 9, 62, 0
7, 158937, Note_off_c, 9, 76, 0
7, 158940, Note_off_c, 9, 36, 0
7, 158940, Note_off_c, 9, 40, 0
7, 158940, Note_off_c, 9, 46, 0
7, 158940, Note_off_c, 9, 35, 0
7, 158940, Note_off_c, 9, 38, 0
7, 159120, Note_on_c, 9, 74, 120
7, 159120, Note_on_c, 9, 62, 120
7, 159120, Note_on_c, 9, 36, 120
7, 159120, Note_on_c, 9, 35, 120
7, 159120, Note_on_c, 9, 46, 120
7, 159177, Note_off_c, 9, 35, 0
7, 159177, Note_off_c, 9, 36, 0
7, 159177, Note_off_c, 9, 62, 0
7, 159180, Note_off_c, 9, 46, 0
7, 159348, Note_off_c, 9, 74, 0
7, 159360, Note_on_c, 9, 74, 120
7, 159360, Note_on_c, 9, 75, 120
7, 159360, Note_on_c, 9, 62, 120
7, 159360, Note_on_c, 9, 37, 120
7, 159360, Note_on_c, 9, 35, 120
7, 159360, Note_on_c, 9, 36, 120
7, 159360, Note_on_c, 9, 46, 120
7, 159360, Note_on_c, 9, 28, 120
7, 159417, Note_off_c, 9, 28, 0
7, 159417, Note_off_c, 9, 62, 0
7, 159420, Note_off_c, 9, 37, 0
7, 159420, Note_off_c, 9, 35, 0
7, 159420, Note_off_c, 9, 36, 0
7, 159420, Note_off_c, 9, 46, 0
7, 159600, Note_on_c, 9, 62, 120
7, 159600, Note_on_c, 9, 46, 120
7, 159600, Note_on_c, 9, 35, 120
7, 159600, Note_on_c, 9, 36, 120
7, 159657, Note_off_c, 9, 62, 0
7, 159660, Note_off_c, 9, 46, 0
7, 159660, Note_off_c, 9, 35, 0
7, 159660, Note_off_c, 9, 36, 0
7, 159816, Note_off_c, 9, 75, 0
7, 159816, Note_off_c, 9, 74, 0
7, 159840, Note_on_c, 9, 76, 120
7, 159840, Note_on_c, 9, 62, 120
7, 159840, Note_on_c, 9, 63, 120
7, 159840, Note_on_c, 9, 28, 120
7, 159840, Note_on_c, 9, 37, 120
7, 159840, Note_on_c, 9, 42, 120
7, 159840, Note_on_c, 9, 40, 120
7, 159840, Note_on_c, 9, 38, 120
7, 159840, Note_on_c, 9, 35, 120
7, 159840, Note_on_c, 9, 36, 120
7, 159840, Note_on_c, 9, 46, 120
7, 159897, Note_off_c, 9, 42, 0
7, 159897, Note_off_c, 9, 37, 0
7, 159897, Note_off_c, 9, 28, 0
7, 159897, Note_off_c, 9, 63, 0
7, 159897, Note_off_c, 9, 62, 0
7, 159897, Note_off_c, 9, 76, 0
7, 159900, Note_off_c, 9, 40, 0
7, 159900, Note_off_c, 9, 38, 0
7, 159900, Note_off_c, 9, 35, 0
7, 159900, Note_off_c, 9, 36, 0
7, 159900, Note_off_c, 9, 46, 0
7, 160080, Note_on_c, 9, 74, 120
7, 160080, Note_on_c, 9, 62, 120
7, 160080, Note_on_c, 9, 36, 120
7, 160080, Note_on_c, 9, 35, 120
7, 160080, Note_on_c, 9, 46, 120
7, 160137, Note_off_c, 9, 35, 0
7, 160137, Note_off_c, 9, 36, 0
7, 160137, Note_off_c, 9, 62, 0
7, 160140, Note_off_c, 9, 46, 0
7, 160308, Note_off_c, 9, 74, 0
7, 160320, Note_on_c, 9, 74, 120
7, 160320, Note_on_c, 9, 75, 120
7, 160320, Note_on_c, 9, 62, 120
7, 160320, Note_on_c, 9, 63, 120
7, 160320, Note_on_c, 9, 36, 120
7, 160320, Note_on_c, 9, 28, 120
7, 160320, Note_on_c, 9, 46, 120
7, 160377, Note_off_c, 9, 28, 0
7, 160377, Note_off_c, 9, 36, 0
7, 160377, Note_off_c, 9, 63, 0
7, 160377, Note_off_c, 9, 62, 0
7, 160380, Note_off_c, 9, 46, 0
7, 160560, Note_on_c, 9, 76, 120
7, 160560, Note_on_c, 9, 62, 120
7, 160560, Note_on_c, 9, 46, 120
7, 160560, Note_on_c, 9, 36, 120
7, 160560, Note_on_c, 9, 35, 120
7, 160617, Note_off_c, 9, 62, 0
7, 160617, Note_off_c, 9, 76, 0
7, 160620, Note_off_c, 9, 46, 0
7, 160620, Note_off_c, 9, 36, 0
7, 160620, Note_off_c, 9, 35, 0
7, 160776, Note_off_c, 9, 75, 0
7, 160776, Note_off_c, 9, 74, 0
7, 160800, Note_on_c, 9, 62, 120
7, 160800, Note_on_c, 9, 63, 120
7, 160800, Note_on_c, 9, 28, 120
7, 160800, Note_on_c, 9, 37, 120
7, 160800, Note_on_c, 9, 42, 120
7, 160800, Note_on_c, 9, 36, 120
7, 160800, Note_on_c, 9, 40, 120
7, 160800, Note_on_c, 9, 46, 120
7, 160800, Note_on_c, 9, 35, 120
7, 160800, Note_on_c, 9, 38, 120
7, 160857, Note_off_c, 9, 42, 0
7, 160857, Note_off_c, 9, 37, 0
7, 160857, Note_off_c, 9, 28, 0
7, 160857, Note_off_c, 9, 63, 0
7, 160857, Note_off_c, 9, 62, 0
7, 160860, Note_off_c, 9, 36, 0
7, 160860, Note_off_c, 9, 40, 0
7, 160860, Note_off_c, 9, 46, 0
7, 160860, Note_off_c, 9, 35, 0
7, 160860, Note_off_c, 9, 38, 0
7, 160916, Note_on_c, 9, 62, 120
7, 160973, Note_off_c, 9, 62, 0
7, 161040, Note_on_c, 9, 74, 120
7, 161040, Note_on_c, 9, 61, 120
7, 161040, Note_on_c, 9, 62, 120
7, 161040, Note_on_c, 9, 36, 120
7, 161040, Note_on_c, 9, 35, 120
7, 161040, Note_on_c, 9, 46, 120
7, 161097, Note_off_c, 9, 35, 0
7, 161097, Note_off_c, 9, 36, 0
7, 161097, Note_off_c, 9, 62, 0
7, 161097, Note_off_c, 9, 61, 0
7, 161100, Note_off_c, 9, 46, 0
7, 161163, Note_on_c, 9, 60, 120
7, 161163, Note_on_c, 9, 61, 120
7, 161220, Note_off_c, 9, 61, 0
7, 161220, Note_off_c, 9, 60, 0
7, 161268, Note_off_c, 9, 74, 0
7, 161280, Note_on_c, 9, 74, 120
7, 161280, Note_on_c, 9, 76, 120
7, 161280, Note_on_c, 9, 75, 120
7, 161280, Note_on_c, 9, 62, 120
7, 161280, Note_on_c, 9, 37, 120
7, 161280, Note_on_c, 9, 35, 120
7, 161280, Note_on_c, 9, 36, 120
7, 161280, Note_on_c, 9, 46, 120
7, 161280, Note_on_c, 9, 28, 120
7, 161337, Note_off_c, 9, 28, 0
7, 161337, Note_off_c, 9, 62, 0
7, 161337, Note_off_c, 9, 76, 0
7, 161340, Note_off_c, 9, 37, 0
7, 161340, Note_off_c, 9, 35, 0
7, 161340, Note_off_c, 9, 36, 0
7, 161340, Note_off_c, 9, 46, 0
7, 161520, Note_on_c, 9, 62, 120
7, 161520, Note_on_c, 9, 46, 120
7, 161520, Note_on_c, 9, 35, 120
7, 161520, Note_on_c, 9, 36, 120
7, 161577, Note_off_c, 9, 62, 0
7, 161580, Note_off_c, 9, 46, 0
7, 161580, Note_off_c, 9, 35, 0
7, 161580, Note_off_c, 9, 36, 0
7, 161736, Note_off_c, 9, 74, 0
7, 161736, Note_off_c, 9, 75, 0
7, 161760, Note_on_c, 9, 63, 120
7, 161760, Note_on_c, 9, 28, 120
7, 161760, Note_on_c, 9, 37, 120
7, 161760, Note_on_c, 9, 42, 120
7, 161760, Note_on_c, 9, 40, 120
7, 161760, Note_on_c, 9, 38, 120
7, 161760, Note_on_c, 9, 35, 120
7, 161760, Note_on_c, 9, 36, 120
7, 161760, Note_on_c, 9, 46, 120
7, 161817, Note_off_c, 9, 42, 0
7, 161817, Note_off_c, 9, 37, 0
7, 161817, Note_off_c, 9, 28, 0
7, 161817, Note_off_c, 9, 63, 0
7, 161820, Note_off_c, 9, 40, 0
7, 161820, Note_off_c, 9, 38, 0
7, 161820, Note_off_c, 9, 35, 0
7, 161820, Note_off_c, 9, 36, 0
7, 161820, Note_off_c, 9, 46, 0
7, 162000, Note_on_c, 9, 74, 120
7, 162000, Note_on_c, 9, 76, 120
7, 162000, Note_on_c, 9, 62, 120
7, 162000, Note_on_c, 9, 36, 120
7, 162000, Note_on_c, 9, 35, 120
7, 162000, Note_on_c, 9, 46, 120
7, 162057, Note_off_c, 9, 35, 0
7, 162057, Note_off_c, 9, 36, 0
7, 162057, Note_off_c, 9, 62, 0
7, 162057, Note_off_c, 9, 76, 0
7, 162060, Note_off_c, 9, 46, 0
7, 162228, Note_off_c, 9, 74, 0
7, 162240, Note_on_c, 9, 74, 120
7, 162240, Note_on_c, 9, 75, 120
7, 162240, Note_on_c, 9, 62, 120
7, 162240, Note_on_c, 9, 63, 120
7, 162240, Note_on_c, 9, 36, 120
7, 162240, Note_on_c, 9, 28, 120
7, 162240, Note_on_c, 9, 46, 120
7, 162297, Note_off_c, 9, 28, 0
7, 162297, Note_off_c, 9, 36, 0
7, 162297, Note_off_c, 9, 63, 0
7, 162297, Note_off_c, 9, 62, 0
7, 162300, Note_off_c, 9, 46, 0
7, 162480, Note_on_c, 9, 62, 120
7, 162480, Note_on_c, 9, 46, 120
7, 162480, Note_on_c, 9, 36, 120
7, 162480, Note_on_c, 9, 35, 120
7, 162537, Note_off_c, 9, 62, 0
7, 162540, Note_off_c, 9, 46, 0
7, 162540, Note_off_c, 9, 36, 0
7, 162540, Note_off_c, 9, 35, 0
7, 162696, Note_off_c, 9, 75, 0
7, 162696, Note_off_c, 9, 74, 0
7, 162720, Note_on_c, 9, 76, 120
7, 162720, Note_on_c, 9, 62, 120
7, 162720, Note_on_c, 9, 63, 120
7, 162720, Note_on_c, 9, 28, 120
7, 162720, Note_on_c, 9, 37, 120
7, 162720, Note_on_c, 9, 42, 120
7, 162720, Note_on_c, 9, 36, 120
7, 162720, Note_on_c, 9, 40, 120
7, 162720, Note_on_c, 9, 46, 120
7, 162720, Note_on_c, 9, 35, 120
7, 162720, Note_on_c, 9, 38, 120
7, 162777, Note_off_c, 9, 42, 0
7, 162777, Note_off_c, 9, 37, 0
7, 162777, Note_off_c, 9, 28, 0
7, 162777, Note_off_c, 9, 63, 0
7, 162777, Note_off_c, 9, 62, 0
7, 162777, Note_off_c, 9, 76, 0
7, 162780, Note_off_c, 9, 36, 0
7, 162780, Note_off_c, 9, 40, 0
7, 162780, Note_off_c, 9, 46, 0
7, 162780, Note_off_c, 9, 35, 0
7, 162780, Note_off_c, 9, 38, 0
7, 162960, Note_on_c, 9, 74, 120
7, 162960, Note_on_c, 9, 62, 120
7, 162960, Note_on_c, 9, 36, 120
7, 162960, Note_on_c, 9, 35, 120
7, 162960, Note_on_c, 9, 46, 120
7, 163017, Note_off_c, 9, 35, 0
7, 163017, Note_off_c, 9, 36, 0
7, 163017, Note_off_c, 9, 62, 0
7, 163020, Note_off_c, 9, 46, 0
7, 163188, Note_off_c, 9, 74, 0
7, 163200, Note_on_c, 9, 74, 120
7, 163200, Note_on_c, 9, 75, 120
7, 163200, Note_on_c, 9, 62, 120
7, 163200, Note_on_c, 9, 37, 120
7, 163200, Note_on_c, 9, 35, 120
7, 163200, Note_on_c, 9, 36, 120
7, 163200, Note_on_c, 9, 46, 120
7, 163200, Note_on_c, 9, 28, 120
7, 163257, Note_off_c, 9, 28, 0
7, 163257, Note_off_c, 9, 62, 0
7, 163260, Note_off_c, 9, 37, 0
7, 163260, Note_off_c, 9, 35, 0
7, 163260, Note_off_c, 9, 36, 0
7, 163260, Note_off_c, 9, 46, 0
7, 163440, Note_on_c, 9, 62, 120
7, 163440, Note_on_c, 9, 46, 120
7, 163440, Note_on_c, 9, 35, 120
7, 163440, Note_on_c, 9, 36, 120
7, 163497, Note_off_c, 9, 62, 0
7, 163500, Note_off_c, 9, 46, 0
7, 163500, Note_off_c, 9, 35, 0
7, 163500, Note_off_c, 9, 36, 0
7, 163656, Note_off_c, 9, 75, 0
7, 163656, Note_off_c, 9, 74, 0
7, 163680, Note_on_c, 9, 76, 120
7, 163680, Note_on_c, 9, 62, 120
7, 163680, Note_on_c, 9, 63, 120
7, 163680, Note_on_c, 9, 28, 120
7, 163680, Note_on_c, 9, 37, 120
7, 163680, Note_on_c, 9, 42, 120
7, 163680, Note_on_c, 9, 40, 120
7, 163680, Note_on_c, 9, 38, 120
7, 163680, Note_on_c, 9, 35, 120
7, 163680, Note_on_c, 9, 36, 120
7, 163680, Note_on_c, 9, 46, 120
7, 163737, Note_off_c, 9, 42, 0
7, 163737, Note_off_c, 9, 37, 0
7, 163737, Note_off_c, 9, 28, 0
7, 163737, Note_off_c, 9, 63, 0
7, 163737, Note_off_c, 9, 62, 0
7, 163737, Note_off_c, 9, 76, 0
7, 163740, Note_off_c, 9, 40, 0
7, 163740, Note_off_c, 9, 38, 0
7, 163740, Note_off_c, 9, 35, 0
7, 163740, Note_off_c, 9, 36, 0
7, 163740, Note_off_c, 9, 46, 0
7, 163920, Note_on_c, 9, 74, 120
7, 163920, Note_on_c, 9, 62, 120
7, 163920, Note_on_c, 9, 36, 120
7, 163920, Note_on_c, 9, 35, 120
7, 163920, Note_on_c, 9, 46, 120
7, 163977, Note_off_c, 9, 35, 0
7, 163977, Note_off_c, 9, 36, 0
7, 163977, Note_off_c, 9, 62, 0
7, 163980, Note_off_c, 9, 46, 0
7, 164148, Note_off_c, 9, 74, 0
7, 164160, Note_on_c, 9, 74, 120
7, 164160, Note_on_c, 9, 75, 120
7, 164160, Note_on_c, 9, 62, 120
7, 164160, Note_on_c, 9, 63, 120
7, 164160, Note_on_c, 9, 36, 120
7, 164160, Note_on_c, 9, 28, 120
7, 164160, Note_on_c, 9, 46, 120
7, 164217, Note_off_c, 9, 28, 0
7, 164217, Note_off_c, 9, 36, 0
7, 164217, Note_off_c, 9, 63, 0
7, 164217, Note_off_c, 9, 62, 0
7, 164220, Note_off_c, 9, 46, 0
7, 164400, Note_on_c, 9, 76, 120
7, 164400, Note_on_c, 9, 62, 120
7, 164400, Note_on_c, 9, 46, 120
7, 164400, Note_on_c, 9, 36, 120
7, 164400, Note_on_c, 9, 35, 120
7, 164457, Note_off_c, 9, 62, 0
7, 164457, Note_off_c, 9, 76, 0
7, 164460, Note_off_c, 9, 46, 0
7, 164460, Note_off_c, 9, 36, 0
7, 164460, Note_off_c, 9, 35, 0
7, 164616, Note_off_c, 9, 75, 0
7, 164616, Note_off_c, 9, 74, 0
7, 164640, Note_on_c, 9, 62, 120
7, 164640, Note_on_c, 9, 63, 120
7, 164640, Note_on_c, 9, 28, 120
7, 164640, Note_on_c, 9, 37, 120
7, 164640, Note_on_c, 9, 42, 120
7, 164640, Note_on_c, 9, 36, 120
7, 164640, Note_on_c, 9, 40, 120
7, 164640, Note_on_c, 9, 46, 120
7, 164640, Note_on_c, 9, 35, 120
7, 164640, Note_on_c, 9, 38, 120
7, 164697, Note_off_c, 9, 42, 0
7, 164697, Note_off_c, 9, 37, 0
7, 164697, Note_off_c, 9, 28, 0
7, 164697, Note_off_c, 9, 63, 0
7, 164697, Note_off_c, 9, 62, 0
7, 164700, Note_off_c, 9, 36, 0
7, 164700, Note_off_c, 9, 40, 0
7, 164700, Note_off_c, 9, 46, 0
7, 164700, Note_off_c, 9, 35, 0
7, 164700, Note_off_c, 9, 38, 0
7, 164756, Note_on_c, 9, 62, 120
7, 164813, Note_off_c, 9, 62, 0
7, 164880, Note_on_c, 9, 74, 120
7, 164880, Note_on_c, 9, 61, 120
7, 164880, Note_on_c, 9, 62, 120
7, 164880, Note_on_c, 9, 36, 120
7, 164880, Note_on_c, 9, 35, 120
7, 164880, Note_on_c, 9, 46, 120
7, 164937, Note_off_c, 9, 35, 0
7, 164937, Note_off_c, 9, 36, 0
7, 164937, Note_off_c, 9, 62, 0
7, 164937, Note_off_c, 9, 61, 0
7, 164940, Note_off_c, 9, 46, 0
7, 165003, Note_on_c, 9, 60, 120
7, 165003, Note_on_c, 9, 61, 120
7, 165060, Note_off_c, 9, 61, 0
7, 165060, Note_off_c, 9, 60, 0
7, 165108, Note_off_c, 9, 74, 0
7, 165120, Note_on_c, 9, 74, 120
7, 165120, Note_on_c, 9, 76, 120
7, 165120, Note_on_c, 9, 75, 120
7, 165120, Note_on_c, 9, 62, 120
7, 165120, Note_on_c, 9, 37, 120
7, 165120, Note_on_c, 9, 35, 120
7, 165120, Note_on_c, 9, 36, 120
7, 165120, Note_on_c, 9, 46, 120
7, 165120, Note_on_c, 9, 28, 120
7, 165177, Note_off_c, 9, 28, 0
7, 165177, Note_off_c, 9, 62, 0
7, 165177, Note_off_c, 9, 76, 0
7, 165180, Note_off_c, 9, 37, 0
7, 165180, Note_off_c, 9, 35, 0
7, 165180, Note_off_c, 9, 36, 0
7, 165180, Note_off_c, 9, 46, 0
7, 165360, Note_on_c, 9, 62, 120
7, 165360, Note_on_c, 9, 46, 120
7, 165360, Note_on_c, 9, 35, 120
7, 165360, Note_on_c, 9, 36, 120
7, 165417, Note_off_c, 9, 62, 0
7, 165420, Note_off_c, 9, 46, 0
7, 165420, Note_off_c, 9, 35, 0
7, 165420, Note_off_c, 9, 36, 0
7, 165576, Note_off_c, 9, 74, 0
7, 165576, Note_off_c, 9, 75, 0
7, 165600, Note_on_c, 9, 63, 120
7, 165600, Note_on_c, 9, 28, 120
7, 165600, Note_on_c, 9, 37, 120
7, 165600, Note_on_c, 9, 42, 120
7, 165600, Note_on_c, 9, 40, 120
7, 165600, Note_on_c, 9, 38, 120
7, 165600, Note_on_c, 9, 35, 120
7, 165600, Note_on_c, 9, 36, 120
7, 165600, Note_on_c, 9, 46, 120
7, 165657, Note_off_c, 9, 42, 0
7, 165657, Note_off_c, 9, 37, 0
7, 165657, Note_off_c, 9, 28, 0
7, 165657, Note_off_c, 9, 63, 0
7, 165660, Note_off_c, 9, 40, 0
7, 165660, Note_off_c, 9, 38, 0
7, 165660, Note_off_c, 9, 35, 0
7, 165660, Note_off_c, 9, 36, 0
7, 165660, Note_off_c, 9, 46, 0
7, 165840, Note_on_c, 9, 74, 120
7, 165840, Note_on_c, 9, 76, 120
7, 165840, Note_on_c, 9, 62, 120
7, 165840, Note_on_c, 9, 36, 120
7, 165840, Note_on_c, 9, 35, 120
7, 165840, Note_on_c, 9, 46, 120
7, 165897, Note_off_c, 9, 35, 0
7, 165897, Note_off_c, 9, 36, 0
7, 165897, Note_off_c, 9, 62, 0
7, 165897, Note_off_c, 9, 76, 0
7, 165900, Note_off_c, 9, 46, 0
7, 166068, Note_off_c, 9, 74, 0
7, 166080, Note_on_c, 9, 74, 120
7, 166080, Note_on_c, 9, 75, 120
7, 166080, Note_on_c, 9, 62, 120
7, 166080, Note_on_c, 9, 63, 120
7, 166080, Note_on_c, 9, 36, 120
7, 166080, Note_on_c, 9, 28, 120
7, 166080, Note_on_c, 9, 46, 120
7, 166137, Note_off_c, 9, 28, 0
7, 166137, Note_off_c, 9, 36, 0
7, 166137, Note_off_c, 9, 63, 0
7, 166137, Note_off_c, 9, 62, 0
7, 166140, Note_off_c, 9, 46, 0
7, 166320, Note_on_c, 9, 62, 120
7, 166320, Note_on_c, 9, 46, 120
7, 166320, Note_on_c, 9, 36, 120
7, 166320, Note_on_c, 9, 35, 120
7, 166377, Note_off_c, 9, 62, 0
7, 166380, Note_off_c, 9, 46, 0
7, 166380, Note_off_c, 9, 36, 0
7, 166380, Note_off_c, 9, 35, 0
7, 166536, Note_off_c, 9, 75, 0
7, 166536, Note_off_c, 9, 74, 0
7, 166560, Note_on_c, 9, 76, 120
7, 166560, Note_on_c, 9, 62, 120
7, 166560, Note_on_c, 9, 63, 120
7, 166560, Note_on_c, 9, 28, 120
7, 166560, Note_on_c, 9, 37, 120
7, 166560, Note_on_c, 9, 42, 120
7, 166560, Note_on_c, 9, 36, 120
7, 166560, Note_on_c, 9, 40, 120
7, 166560, Note_on_c, 9, 46, 120
7, 166560, Note_on_c, 9, 35, 120
7, 166560, Note_on_c, 9, 38, 120
7, 166617, Note_off_c, 9, 42, 0
7, 166617, Note_off_c, 9, 37, 0
7, 166617, Note_off_c, 9, 28, 0
7, 166617, Note_off_c, 9, 63, 0
7, 166617, Note_off_c, 9, 62, 0
7, 166617, Note_off_c, 9, 76, 0
7, 166620, Note_off_c, 9, 36, 0
7, 166620, Note_off_c, 9, 40, 0
7, 166620, Note_off_c, 9, 46, 0
7, 166620, Note_off_c, 9, 35, 0
7, 166620, Note_off_c, 9, 38, 0
7, 166800, Note_on_c, 9, 74, 120
7, 166800, Note_on_c, 9, 62, 120
7, 166800, Note_on_c, 9, 36, 120
7, 166800, Note_on_c, 9, 35, 120
7, 166800, Note_on_c, 9, 46, 120
7, 166857, Note_off_c, 9, 35, 0
7, 166857, Note_off_c, 9, 36, 0
7, 166857, Note_off_c, 9, 62, 0
7, 166860, Note_off_c, 9, 46, 0
7, 167028, Note_off_c, 9, 74, 0
7, 167040, Note_on_c, 9, 74, 120
7, 167040, Note_on_c, 9, 75, 120
7, 167040, Note_on_c, 9, 62, 120
7, 167040, Note_on_c, 9, 37, 120
7, 167040, Note_on_c, 9, 35, 120
7, 167040, Note_on_c, 9, 36, 120
7, 167040, Note_on_c, 9, 46, 120
7, 167040, Note_on_c, 9, 28, 120
7, 167097, Note_off_c, 9, 28, 0
7, 167097, Note_off_c, 9, 62, 0
7, 167100, Note_off_c, 9, 37, 0
7, 167100, Note_off_c, 9, 35, 0
7, 167100, Note_off_c, 9, 36, 0
7, 167100, Note_off_c, 9, 46, 0
7, 167280, Note_on_c, 9, 62, 120
7, 167280, Note_on_c, 9, 46, 120
7, 167280, Note_on_c, 9, 35, 120
7, 167280, Note_on_c, 9, 36, 120
7, 167337, Note_off_c, 9, 62, 0
7, 167340, Note_off_c, 9, 46, 0
7, 167340, Note_off_c, 9, 35, 0
7, 167340, Note_off_c, 9, 36, 0
7, 167496, Note_off_c, 9, 75, 0
7, 167496, Note_off_c, 9, 74, 0
7, 167520, Note_on_c, 9, 76, 120
7, 167520, Note_on_c, 9, 62, 120
7, 167520, Note_on_c, 9, 63, 120
7, 167520, Note_on_c, 9, 28, 120
7, 167520, Note_on_c, 9, 37, 120
7, 167520, Note_on_c, 9, 42, 120
7, 167520, Note_on_c, 9, 40, 120
7, 167520, Note_on_c, 9, 38, 120
7, 167520, Note_on_c, 9, 35, 120
7, 167520, Note_on_c, 9, 36, 120
7, 167520, Note_on_c, 9, 46, 120
7, 167577, Note_off_c, 9, 42, 0
7, 167577, Note_off_c, 9, 37, 0
7, 167577, Note_off_c, 9, 28, 0
7, 167577, Note_off_c, 9, 63, 0
7, 167577, Note_off_c, 9, 62, 0
7, 167577, Note_off_c, 9, 76, 0
7, 167580, Note_off_c, 9, 40, 0
7, 167580, Note_off_c, 9, 38, 0
7, 167580, Note_off_c, 9, 35, 0
7, 167580, Note_off_c, 9, 36, 0
7, 167580, Note_off_c, 9, 46, 0
7, 167760, Note_on_c, 9, 74, 120
7, 167760, Note_on_c, 9, 62, 120
7, 167760, Note_on_c, 9, 36, 120
7, 167760, Note_on_c, 9, 35, 120
7, 167760, Note_on_c, 9, 46, 120
7, 167817, Note_off_c, 9, 35, 0
7, 167817, Note_off_c, 9, 36, 0
7, 167817, Note_off_c, 9, 62, 0
7, 167820, Note_off_c, 9, 46, 0
7, 167988, Note_off_c, 9, 74, 0
7, 168000, Note_on_c, 9, 74, 120
7, 168000, Note_on_c, 9, 75, 120
7, 168000, Note_on_c, 9, 62, 120
7, 168000, Note_on_c, 9, 63, 120
7, 168000, Note_on_c, 9, 36, 120
7, 168000, Note_on_c, 9, 28, 120
7, 168000, Note_on_c, 9, 46, 120
7, 168000, Note_on_c, 9, 38, 120
7, 168000, Note_on_c, 9, 40, 120
7, 168000, Note_on_c, 9, 37, 120
7, 168000, Note_on_c, 9, 35, 120
7, 168000, Note_on_c, 9, 42, 120
7, 168057, Note_off_c, 9, 28, 0
7, 168057, Note_off_c, 9, 36, 0
7, 168057, Note_off_c, 9, 63, 0
7, 168057, Note_off_c, 9, 62, 0
7, 168060, Note_off_c, 9, 46, 0
7, 168060, Note_off_c, 9, 38, 0
7, 168060, Note_off_c, 9, 40, 0
7, 168060, Note_off_c, 9, 37, 0
7, 168060, Note_off_c, 9, 35, 0
7, 168060, Note_off_c, 9, 42, 0
7, 168240, Note_on_c, 9, 76, 120
7, 168240, Note_on_c, 9, 62, 120
7, 168240, Note_on_c, 9, 46, 120
7, 168240, Note_on_c, 9, 36, 120
7, 168240, Note_on_c, 9, 35, 120
7, 168240, Note_on_c, 9, 37, 120
7, 168240, Note_on_c, 9, 38, 120
7, 168240, Note_on_c, 9, 40, 120
7, 168240, Note_on_c, 9, 42, 120
7, 168240, Note_on_c, 9, 28, 120
7, 168297, Note_off_c, 9, 62, 0
7, 168297, Note_off_c, 9, 76, 0
7, 168300, Note_off_c, 9, 46, 0
7, 168300, Note_off_c, 9, 36, 0
7, 168300, Note_off_c, 9, 35, 0
7, 168300, Note_off_c, 9, 37, 0
7, 168300, Note_off_c, 9, 38, 0
7, 168300, Note_off_c, 9, 40, 0
7, 168300, Note_off_c, 9, 42, 0
7, 168300, Note_off_c, 9, 28, 0
7, 168456, Note_off_c, 9, 75, 0
7, 168456, Note_off_c, 9, 74, 0
7, 168480, Note_on_c, 9, 28, 120
7, 168480, Note_on_c, 9, 36, 120
7, 168480, Note_on_c, 9, 35, 120
7, 168480, Note_on_c, 9, 62, 120
7, 168537, Note_off_c, 9, 28, 0
7, 168540, Note_off_c, 9, 36, 0
7, 168540, Note_off_c, 9, 35, 0
7, 168540, Note_off_c, 9, 62, 0
7, 168596, Note_on_c, 9, 36, 120
7, 168596, Note_on_c, 9, 35, 120
7, 168596, Note_on_c, 9, 62, 120
7, 168656, Note_off_c, 9, 62, 0
7, 168656, Note_off_c, 9, 35, 0
7, 168656, Note_off_c, 9, 36, 0
7, 168720, Note_on_c, 9, 74, 120
7, 168720, Note_on_c, 9, 36, 120
7, 168720, Note_on_c, 9, 35, 120
7, 168720, Note_on_c, 9, 62, 120
7, 168780, Note_off_c, 9, 62, 0
7, 168780, Note_off_c, 9, 35, 0
7, 168780, Note_off_c, 9, 36, 0
7, 168843, Note_on_c, 9, 36, 120
7, 168843, Note_on_c, 9, 35, 120
7, 168843, Note_on_c, 9, 62, 120
7, 168903, Note_off_c, 9, 62, 0
7, 168903, Note_off_c, 9, 35, 0
7, 168903, Note_off_c, 9, 36, 0
7, 168948, Note_off_c, 9, 74, 0
7, 168960, Note_on_c, 9, 74, 120
7, 168960, Note_on_c, 9, 76, 120
7, 168960, Note_on_c, 9, 28, 120
7, 168960, Note_on_c, 9, 62, 120
7, 168960, Note_on_c, 9, 49, 120
7, 168960, Note_on_c, 9, 51, 120
7, 168960, Note_on_c, 9, 46, 120
7, 168960, Note_on_c, 9, 36, 120
7, 168960, Note_on_c, 9, 35, 120
7, 168960, Note_on_c, 9, 37, 120
7, 168960, Note_on_c, 9, 75, 120
7, 169017, Note_off_c, 9, 62, 0
7, 169017, Note_off_c, 9, 28, 0
7, 169017, Note_off_c, 9, 76, 0
7, 169020, Note_off_c, 9, 49, 0
7, 169020, Note_off_c, 9, 51, 0
7, 169020, Note_off_c, 9, 46, 0
7, 169020, Note_off_c, 9, 36, 0
7, 169020, Note_off_c, 9, 35, 0
7, 169020, Note_off_c, 9, 37, 0
7, 169200, Note_on_c, 9, 62, 120
7, 169200, Note_on_c, 9, 46, 120
7, 169200, Note_on_c, 9, 35, 120
7, 169200, Note_on_c, 9, 36, 120
7, 169257, Note_off_c, 9, 62, 0
7, 169260, Note_off_c, 9, 46, 0
7, 169260, Note_off_c, 9, 35, 0
7, 169260, Note_off_c, 9, 36, 0
7, 169416, Note_off_c, 9, 74, 0
7, 169416, Note_off_c, 9, 75, 0
7, 169440, Note_on_c, 9, 28, 120
7, 169440, Note_on_c, 9, 63, 120
7, 169440, Note_on_c, 9, 37, 120
7, 169440, Note_on_c, 9, 42, 120
7, 169440, Note_on_c, 9, 40, 120
7, 169440, Note_on_c, 9, 38, 120
7, 169440, Note_on_c, 9, 35, 120
7, 169440, Note_on_c, 9, 36, 120
7, 169440, Note_on_c, 9, 46, 120
7, 169497, Note_off_c, 9, 42, 0
7, 169497, Note_off_c, 9, 37, 0
7, 169497, Note_off_c, 9, 63, 0
7, 169497, Note_off_c, 9, 28, 0
7, 169500, Note_off_c, 9, 40, 0
7, 169500, Note_off_c, 9, 38, 0
7, 169500, Note_off_c, 9, 35, 0
7, 169500, Note_off_c, 9, 36, 0
7, 169500, Note_off_c, 9, 46, 0
7, 169680, Note_on_c, 9, 36, 120
7, 169680, Note_on_c, 9, 35, 120
7, 169680, Note_on_c, 9, 74, 120
7, 169680, Note_on_c, 9, 76, 120
7, 169680, Note_on_c, 9, 62, 120
7, 169680, Note_on_c, 9, 46, 120
7, 169737, Note_off_c, 9, 62, 0
7, 169737, Note_off_c, 9, 76, 0
7, 169737, Note_off_c, 9, 35, 0
7, 169737, Note_off_c, 9, 36, 0
7, 169740, Note_off_c, 9, 46, 0
7, 169908, Note_off_c, 9, 74, 0
7, 169920, Note_on_c, 9, 36, 120
7, 169920, Note_on_c, 9, 74, 120
7, 169920, Note_on_c, 9, 75, 120
7, 169920, Note_on_c, 9, 28, 120
7, 169920, Note_on_c, 9, 62, 120
7, 169920, Note_on_c, 9, 63, 120
7, 169920, Note_on_c, 9, 46, 120
7, 169977, Note_off_c, 9, 63, 0
7, 169977, Note_off_c, 9, 62, 0
7, 169977, Note_off_c, 9, 28, 0
7, 169977, Note_off_c, 9, 36, 0
7, 169980, Note_off_c, 9, 46, 0
7, 170160, Note_on_c, 9, 62, 120
7, 170160, Note_on_c, 9, 46, 120
7, 170160, Note_on_c, 9, 36, 120
7, 170160, Note_on_c, 9, 35, 120
7, 170217, Note_off_c, 9, 62, 0
7, 170220, Note_off_c, 9, 46, 0
7, 170220, Note_off_c, 9, 36, 0
7, 170220, Note_off_c, 9, 35, 0
7, 170376, Note_off_c, 9, 74, 0
7, 170376, Note_off_c, 9, 75, 0
7, 170400, Note_on_c, 9, 76, 120
7, 170400, Note_on_c, 9, 28, 120
7, 170400, Note_on_c, 9, 62, 120
7, 170400, Note_on_c, 9, 63, 120
7, 170400, Note_on_c, 9, 37, 120
7, 170400, Note_on_c, 9, 42, 120
7, 170400, Note_on_c, 9, 36, 120
7, 170400, Note_on_c, 9, 40, 120
7, 170400, Note_on_c, 9, 46, 120
7, 170400, Note_on_c, 9, 35, 120
7, 170400, Note_on_c, 9, 38, 120
7, 170457, Note_off_c, 9, 42, 0
7, 170457, Note_off_c, 9, 37, 0
7, 170457, Note_off_c, 9, 63, 0
7, 170457, Note_off_c, 9, 62, 0
7, 170457, Note_off_c, 9, 28, 0
7, 170457, Note_off_c, 9, 76, 0
7, 170460, Note_off_c, 9, 36, 0
7, 170460, Note_off_c, 9, 40, 0
7, 170460, Note_off_c, 9, 46, 0
7, 170460, Note_off_c, 9, 35, 0
7, 170460, Note_off_c, 9, 38, 0
7, 170640, Note_on_c, 9, 36, 120
7, 170640, Note_on_c, 9, 35, 120
7, 170640, Note_on_c, 9, 74, 120
7, 170640, Note_on_c, 9, 62, 120
7, 170640, Note_on_c, 9, 46, 120
7, 170697, Note_off_c, 9, 62, 0
7, 170697, Note_off_c, 9, 35, 0
7, 170697, Note_off_c, 9, 36, 0
7, 170700, Note_off_c, 9, 46, 0
7, 170868, Note_off_c, 9, 74, 0
7, 170880, Note_on_c, 9, 74, 120
7, 170880, Note_on_c, 9, 75, 120
7, 170880, Note_on_c, 9, 62, 120
7, 170880, Note_on_c, 9, 37, 120
7, 170880, Note_on_c, 9, 35, 120
7, 170880, Note_on_c, 9, 36, 120
7, 170880, Note_on_c, 9, 46, 120
7, 170880, Note_on_c, 9, 28, 120
7, 170937, Note_off_c, 9, 28, 0
7, 170937, Note_off_c, 9, 62, 0
7, 170940, Note_off_c, 9, 37, 0
7, 170940, Note_off_c, 9, 35, 0
7, 170940, Note_off_c, 9, 36, 0
7, 170940, Note_off_c, 9, 46, 0
7, 171120, Note_on_c, 9, 62, 120
7, 171120, Note_on_c, 9, 46, 120
7, 171120, Note_on_c, 9, 35, 120
7, 171120, Note_on_c, 9, 36, 120
7, 171177, Note_off_c, 9, 62, 0
7, 171180, Note_off_c, 9, 46, 0
7, 171180, Note_off_c, 9, 35, 0
7, 171180, Note_off_c, 9, 36, 0
7, 171336, Note_off_c, 9, 75, 0
7, 171336, Note_off_c, 9, 74, 0
7, 171360, Note_on_c, 9, 76, 120
7, 171360, Note_on_c, 9, 62, 120
7, 171360, Note_on_c, 9, 63, 120
7, 171360, Note_on_c, 9, 28, 120
7, 171360, Note_on_c, 9, 37, 120
7, 171360, Note_on_c, 9, 42, 120
7, 171360, Note_on_c, 9, 40, 120
7, 171360, Note_on_c, 9, 38, 120
7, 171360, Note_on_c, 9, 35, 120
7, 171360, Note_on_c, 9, 36, 120
7, 171360, Note_on_c, 9, 46, 120
7, 171417, Note_off_c, 9, 42, 0
7, 171417, Note_off_c, 9, 37, 0
7, 171417, Note_off_c, 9, 28, 0
7, 171417, Note_off_c, 9, 63, 0
7, 171417, Note_off_c, 9, 62, 0
7, 171417, Note_off_c, 9, 76, 0
7, 171420, Note_off_c, 9, 40, 0
7, 171420, Note_off_c, 9, 38, 0
7, 171420, Note_off_c, 9, 35, 0
7, 171420, Note_off_c, 9, 36, 0
7, 171420, Note_off_c, 9, 46, 0
7, 171600, Note_on_c, 9, 74, 120
7, 171600, Note_on_c, 9, 62, 120
7, 171600, Note_on_c, 9, 36, 120
7, 171600, Note_on_c, 9, 35, 120
7, 171600, Note_on_c, 9, 46, 120
7, 171657, Note_off_c, 9, 35, 0
7, 171657, Note_off_c, 9, 36, 0
7, 171657, Note_off_c, 9, 62, 0
7, 171660, Note_off_c, 9, 46, 0
7, 171828, Note_off_c, 9, 74, 0
7, 171840, Note_on_c, 9, 74, 120
7, 171840, Note_on_c, 9, 75, 120
7, 171840, Note_on_c, 9, 62, 120
7, 171840, Note_on_c, 9, 63, 120
7, 171840, Note_on_c, 9, 36, 120
7, 171840, Note_on_c, 9, 28, 120
7, 171840, Note_on_c, 9, 46, 120
7, 171897, Note_off_c, 9, 28, 0
7, 171897, Note_off_c, 9, 36, 0
7, 171897, Note_off_c, 9, 63, 0
7, 171897, Note_off_c, 9, 62, 0
7, 171900, Note_off_c, 9, 46, 0
7, 172080, Note_on_c, 9, 76, 120
7, 172080, Note_on_c, 9, 62, 120
7, 172080, Note_on_c, 9, 46, 120
7, 172080, Note_on_c, 9, 36, 120
7, 172080, Note_on_c, 9, 35, 120
7, 172137, Note_off_c, 9, 62, 0
7, 172137, Note_off_c, 9, 76, 0
7, 172140, Note_off_c, 9, 46, 0
7, 172140, Note_off_c, 9, 36, 0
7, 172140, Note_off_c, 9, 35, 0
7, 172296, Note_off_c, 9, 75, 0
7, 172296, Note_off_c, 9, 74, 0
7, 172320, Note_on_c, 9, 62, 120
7, 172320, Note_on_c, 9, 63, 120
7, 172320, Note_on_c, 9, 28, 120
7, 172320, Note_on_c, 9, 37, 120
7, 172320, Note_on_c, 9, 42, 120
7, 172320, Note_on_c, 9, 36, 120
7, 172320, Note_on_c, 9, 40, 120
7, 172320, Note_on_c, 9, 46, 120
7, 172320, Note_on_c, 9, 35, 120
7, 172320, Note_on_c, 9, 38, 120
7, 172377, Note_off_c, 9, 42, 0
7, 172377, Note_off_c, 9, 37, 0
7, 172377, Note_off_c, 9, 28, 0
7, 172377, Note_off_c, 9, 63, 0
7, 172377, Note_off_c, 9, 62, 0
7, 172380, Note_off_c, 9, 36, 0
7, 172380, Note_off_c, 9, 40, 0
7, 172380, Note_off_c, 9, 46, 0
7, 172380, Note_off_c, 9, 35, 0
7, 172380, Note_off_c, 9, 38, 0
7, 172436, Note_on_c, 9, 62, 120
7, 172493, Note_off_c, 9, 62, 0
7, 172560, Note_on_c, 9, 74, 120
7, 172560, Note_on_c, 9, 61, 120
7, 172560, Note_on_c, 9, 62, 120
7, 172560, Note_on_c, 9, 36, 120
7, 172560, Note_on_c, 9, 35, 120
7, 172560, Note_on_c, 9, 46, 120
7, 172617, Note_off_c, 9, 35, 0
7, 172617, Note_off_c, 9, 36, 0
7, 172617, Note_off_c, 9, 62, 0
7, 172617, Note_off_c, 9, 61, 0
7, 172620, Note_off_c, 9, 46, 0
7, 172683, Note_on_c, 9, 60, 120
7, 172683, Note_on_c, 9, 61, 120
7, 172740, Note_off_c, 9, 61, 0
7, 172740, Note_off_c, 9, 60, 0
7, 172788, Note_off_c, 9, 74, 0
7, 172800, Note_on_c, 9, 74, 120
7, 172800, Note_on_c, 9, 76, 120
7, 172800, Note_on_c, 9, 75, 120
7, 172800, Note_on_c, 9, 62, 120
7, 172800, Note_on_c, 9, 37, 120
7, 172800, Note_on_c, 9, 35, 120
7, 172800, Note_on_c, 9, 36, 120
7, 172800, Note_on_c, 9, 46, 120
7, 172800, Note_on_c, 9, 28, 120
7, 172857, Note_off_c, 9, 28, 0
7, 172857, Note_off_c, 9, 62, 0
7, 172857, Note_off_c, 9, 76, 0
7, 172860, Note_off_c, 9, 37, 0
7, 172860, Note_off_c, 9, 35, 0
7, 172860, Note_off_c, 9, 36, 0
7, 172860, Note_off_c, 9, 46, 0
7, 173040, Note_on_c, 9, 62, 120
7, 173040, Note_on_c, 9, 46, 120
7, 173040, Note_on_c, 9, 35, 120
7, 173040, Note_on_c, 9, 36, 120
7, 173097, Note_off_c, 9, 62, 0
7, 173100, Note_off_c, 9, 46, 0
7, 173100, Note_off_c, 9, 35, 0
7, 173100, Note_off_c, 9, 36, 0
7, 173256, Note_off_c, 9, 74, 0
7, 173256, Note_off_c, 9, 75, 0
7, 173280, Note_on_c, 9, 63, 120
7, 173280, Note_on_c, 9, 28, 120
7, 173280, Note_on_c, 9, 37, 120
7, 173280, Note_on_c, 9, 42, 120
7, 173280, Note_on_c, 9, 40, 120
7, 173280, Note_on_c, 9, 38, 120
7, 173280, Note_on_c, 9, 35, 120
7, 173280, Note_on_c, 9, 36, 120
7, 173280, Note_on_c, 9, 46, 120
7, 173337, Note_off_c, 9, 42, 0
7, 173337, Note_off_c, 9, 37, 0
7, 173337, Note_off_c, 9, 28, 0
7, 173337, Note_off_c, 9, 63, 0
7, 173340, Note_off_c, 9, 40, 0
7, 173340, Note_off_c, 9, 38, 0
7, 173340, Note_off_c, 9, 35, 0
7, 173340, Note_off_c, 9, 36, 0
7, 173340, Note_off_c, 9, 46, 0
7, 173520, Note_on_c, 9, 74, 120
7, 173520, Note_on_c, 9, 76, 120
7, 173520, Note_on_c, 9, 62, 120
7, 173520, Note_on_c, 9, 36, 120
7, 173520, Note_on_c, 9, 35, 120
7, 173520, Note_on_c, 9, 46, 120
7, 173577, Note_off_c, 9, 35, 0
7, 173577, Note_off_c, 9, 36, 0
7, 173577, Note_off_c, 9, 62, 0
7, 173577, Note_off_c, 9, 76, 0
7, 173580, Note_off_c, 9, 46, 0
7, 173748, Note_off_c, 9, 74, 0
7, 173760, Note_on_c, 9, 74, 120
7, 173760, Note_on_c, 9, 75, 120
7, 173760, Note_on_c, 9, 62, 120
7, 173760, Note_on_c, 9, 63, 120
7, 173760, Note_on_c, 9, 36, 120
7, 173760, Note_on_c, 9, 28, 120
7, 173760, Note_on_c, 9, 46, 120
7, 173817, Note_off_c, 9, 28, 0
7, 173817, Note_off_c, 9, 36, 0
7, 173817, Note_off_c, 9, 63, 0
7, 173817, Note_off_c, 9, 62, 0
7, 173820, Note_off_c, 9, 46, 0
7, 174000, Note_on_c, 9, 62, 120
7, 174000, Note_on_c, 9, 46, 120
7, 174000, Note_on_c, 9, 36, 120
7, 174000, Note_on_c, 9, 35, 120
7, 174057, Note_off_c, 9, 62, 0
7, 174060, Note_off_c, 9, 46, 0
7, 174060, Note_off_c, 9, 36, 0
7, 174060, Note_off_c, 9, 35, 0
7, 174216, Note_off_c, 9, 75, 0
7, 174216, Note_off_c, 9, 74, 0
7, 174240, Note_on_c, 9, 76, 120
7, 174240, Note_on_c, 9, 62, 120
7, 174240, Note_on_c, 9, 63, 120
7, 174240, Note_on_c, 9, 28, 120
7, 174240, Note_on_c, 9, 37, 120
7, 174240, Note_on_c, 9, 42, 120
7, 174240, Note_on_c, 9, 36, 120
7, 174240, Note_on_c, 9, 40, 120
7, 174240, Note_on_c, 9, 46, 120
7, 174240, Note_on_c, 9, 35, 120
7, 174240, Note_on_c, 9, 38, 120
7, 174297, Note_off_c, 9, 42, 0
7, 174297, Note_off_c, 9, 37, 0
7, 174297, Note_off_c, 9, 28, 0
7, 174297, Note_off_c, 9, 63, 0
7, 174297, Note_off_c, 9, 62, 0
7, 174297, Note_off_c, 9, 76, 0
7, 174300, Note_off_c, 9, 36, 0
7, 174300, Note_off_c, 9, 40, 0
7, 174300, Note_off_c, 9, 46, 0
7, 174300, Note_off_c, 9, 35, 0
7, 174300, Note_off_c, 9, 38, 0
7, 174480, Note_on_c, 9, 74, 120
7, 174480, Note_on_c, 9, 62, 120
7, 174480, Note_on_c, 9, 36, 120
7, 174480, Note_on_c, 9, 35, 120
7, 174480, Note_on_c, 9, 46, 120
7, 174537, Note_off_c, 9, 35, 0
7, 174537, Note_off_c, 9, 36, 0
7, 174537, Note_off_c, 9, 62, 0
7, 174540, Note_off_c, 9, 46, 0
7, 174708, Note_off_c, 9, 74, 0
7, 174720, Note_on_c, 9, 74, 120
7, 174720, Note_on_c, 9, 75, 120
7, 174720, Note_on_c, 9, 62, 120
7, 174720, Note_on_c, 9, 37, 120
7, 174720, Note_on_c, 9, 35, 120
7, 174720, Note_on_c, 9, 36, 120
7, 174720, Note_on_c, 9, 46, 120
7, 174720, Note_on_c, 9, 28, 120
7, 174777, Note_off_c, 9, 28, 0
7, 174777, Note_off_c, 9, 62, 0
7, 174780, Note_off_c, 9, 37, 0
7, 174780, Note_off_c, 9, 35, 0
7, 174780, Note_off_c, 9, 36, 0
7, 174780, Note_off_c, 9, 46, 0
7, 174960, Note_on_c, 9, 62, 120
7, 174960, Note_on_c, 9, 46, 120
7, 174960, Note_on_c, 9, 35, 120
7, 174960, Note_on_c, 9, 36, 120
7, 175017, Note_off_c, 9, 62, 0
7, 175020, Note_off_c, 9, 46, 0
7, 175020, Note_off_c, 9, 35, 0
7, 175020, Note_off_c, 9, 36, 0
7, 175176, Note_off_c, 9, 75, 0
7, 175176, Note_off_c, 9, 74, 0
7, 175200, Note_on_c, 9, 76, 120
7, 175200, Note_on_c, 9, 62, 120
7, 175200, Note_on_c, 9, 63, 120
7, 175200, Note_on_c, 9, 28, 120
7, 175200, Note_on_c, 9, 37, 120
7, 175200, Note_on_c, 9, 42, 120
7, 175200, Note_on_c, 9, 40, 120
7, 175200, Note_on_c, 9, 38, 120
7, 175200, Note_on_c, 9, 35, 120
7, 175200, Note_on_c, 9, 36, 120
7, 175200, Note_on_c, 9, 46, 120
7, 175257, Note_off_c, 9, 42, 0
7, 175257, Note_off_c, 9, 37, 0
7, 175257, Note_off_c, 9, 28, 0
7, 175257, Note_off_c, 9, 63, 0
7, 175257, Note_off_c, 9, 62, 0
7, 175257, Note_off_c, 9, 76, 0
7, 175260, Note_off_c, 9, 40, 0
7, 175260, Note_off_c, 9, 38, 0
7, 175260, Note_off_c, 9, 35, 0
7, 175260, Note_off_c, 9, 36, 0
7, 175260, Note_off_c, 9, 46, 0
7, 175440, Note_on_c, 9, 74, 120
7, 175440, Note_on_c, 9, 62, 120
7, 175440, Note_on_c, 9, 36, 120
7, 175440, Note_on_c, 9, 35, 120
7, 175440, Note_on_c, 9, 46, 120
7, 175497, Note_off_c, 9, 35, 0
7, 175497, Note_off_c, 9, 36, 0
7, 175497, Note_off_c, 9, 62, 0
7, 175500, Note_off_c, 9, 46, 0
7, 175668, Note_off_c, 9, 74, 0
7, 175680, Note_on_c, 9, 74, 120
7, 175680, Note_on_c, 9, 75, 120
7, 175680, Note_on_c, 9, 62, 120
7, 175680, Note_on_c, 9, 63, 120
7, 175680, Note_on_c, 9, 36, 120
7, 175680, Note_on_c, 9, 28, 120
7, 175680, Note_on_c, 9, 46, 120
7, 175737, Note_off_c, 9, 28, 0
7, 175737, Note_off_c, 9, 36, 0
7, 175737, Note_off_c, 9, 63, 0
7, 175737, Note_off_c, 9, 62, 0
7, 175740, Note_off_c, 9, 46, 0
7, 175920, Note_on_c, 9, 76, 120
7, 175920, Note_on_c, 9, 62, 120
7, 175920, Note_on_c, 9, 46, 120
7, 175920, Note_on_c, 9, 36, 120
7, 175920, Note_on_c, 9, 35, 120
7, 175977, Note_off_c, 9, 62, 0
7, 175977, Note_off_c, 9, 76, 0
7, 175980, Note_off_c, 9, 46, 0
7, 175980, Note_off_c, 9, 36, 0
7, 175980, Note_off_c, 9, 35, 0
7, 176136, Note_off_c, 9, 75, 0
7, 176136, Note_off_c, 9, 74, 0
7, 176160, Note_on_c, 9, 62, 120
7, 176160, Note_on_c, 9, 63, 120
7, 176160, Note_on_c, 9, 28, 120
7, 176160, Note_on_c, 9, 37, 120
7, 176160, Note_on_c, 9, 42, 120
7, 176160, Note_on_c, 9, 36, 120
7, 176160, Note_on_c, 9, 40, 120
7, 176160, Note_on_c, 9, 46, 120
7, 176160, Note_on_c, 9, 35, 120
7, 176160, Note_on_c, 9, 38, 120
7, 176217, Note_off_c, 9, 42, 0
7, 176217, Note_off_c, 9, 37, 0
7, 176217, Note_off_c, 9, 28, 0
7, 176217, Note_off_c, 9, 63, 0
7, 176217, Note_off_c, 9, 62, 0
7, 176220, Note_off_c, 9, 36, 0
7, 176220, Note_off_c, 9, 40, 0
7, 176220, Note_off_c, 9, 46, 0
7, 176220, Note_off_c, 9, 35, 0
7, 176220, Note_off_c, 9, 38, 0
7, 176276, Note_on_c, 9, 62, 120
7, 176333, Note_off_c, 9, 62, 0
7, 176400, Note_on_c, 9, 74, 120
7, 176400, Note_on_c, 9, 61, 120
7, 176400, Note_on_c, 9, 62, 120
7, 176400, Note_on_c, 9, 36, 120
7, 176400, Note_on_c, 9, 35, 120
7, 176400, Note_on_c, 9, 46, 120
7, 176457, Note_off_c, 9, 35, 0
7, 176457, Note_off_c, 9, 36, 0
7, 176457, Note_off_c, 9, 62, 0
7, 176457, Note_off_c, 9, 61, 0
7, 176460, Note_off_c, 9, 46, 0
7, 176523, Note_on_c, 9, 60, 120
7, 176523, Note_on_c, 9, 61, 120
7, 176580, Note_off_c, 9, 61, 0
7, 176580, Note_off_c, 9, 60, 0
7, 176628, Note_off_c, 9, 74, 0
7, 176640, Note_on_c, 9, 74, 120
7, 176640, Note_on_c, 9, 76, 120
7, 176640, Note_on_c, 9, 75, 120
7, 176640, Note_on_c, 9, 62, 120
7, 176640, Note_on_c, 9, 37, 120
7, 176640, Note_on_c, 9, 35, 120
7, 176640, Note_on_c, 9, 36, 120
7, 176640, Note_on_c, 9, 46, 120
7, 176640, Note_on_c, 9, 28, 120
7, 176697, Note_off_c, 9, 28, 0
7, 176697, Note_off_c, 9, 62, 0
7, 176697, Note_off_c, 9, 76, 0
7, 176700, Note_off_c, 9, 37, 0
7, 176700, Note_off_c, 9, 35, 0
7, 176700, Note_off_c, 9, 36, 0
7, 176700, Note_off_c, 9, 46, 0
7, 176880, Note_on_c, 9, 62, 120
7, 176880, Note_on_c, 9, 46, 120
7, 176880, Note_on_c, 9, 35, 120
7, 176880, Note_on_c, 9, 36, 120
7, 176937, Note_off_c, 9, 62, 0
7, 176940, Note_off_c, 9, 46, 0
7, 176940, Note_off_c, 9, 35, 0
7, 176940, Note_off_c, 9, 36, 0
7, 177096, Note_off_c, 9, 74, 0
7, 177096, Note_off_c, 9, 75, 0
7, 177120, Note_on_c, 9, 63, 120
7, 177120, Note_on_c, 9, 28, 120
7, 177120, Note_on_c, 9, 37, 120
7, 177120, Note_on_c, 9, 42, 120
7, 177120, Note_on_c, 9, 40, 120
7, 177120, Note_on_c, 9, 38, 120
7, 177120, Note_on_c, 9, 35, 120
7, 177120, Note_on_c, 9, 36, 120
7, 177120, Note_on_c, 9, 46, 120
7, 177177, Note_off_c, 9, 42, 0
7, 177177, Note_off_c, 9, 37, 0
7, 177177, Note_off_c, 9, 28, 0
7, 177177, Note_off_c, 9, 63, 0
7, 177180, Note_off_c, 9, 40, 0
7, 177180, Note_off_c, 9, 38, 0
7, 177180, Note_off_c, 9, 35, 0
7, 177180, Note_off_c, 9, 36, 0
7, 177180, Note_off_c, 9, 46, 0
7, 177360, Note_on_c, 9, 74, 120
7, 177360, Note_on_c, 9, 76, 120
7, 177360, Note_on_c, 9, 62, 120
7, 177360, Note_on_c, 9, 36, 120
7, 177360, Note_on_c, 9, 35, 120
7, 177360, Note_on_c, 9, 46, 120
7, 177417, Note_off_c, 9, 35, 0
7, 177417, Note_off_c, 9, 36, 0
7, 177417, Note_off_c, 9, 62, 0
7, 177417, Note_off_c, 9, 76, 0
7, 177420, Note_off_c, 9, 46, 0
7, 177588, Note_off_c, 9, 74, 0
7, 177600, Note_on_c, 9, 74, 120
7, 177600, Note_on_c, 9, 75, 120
7, 177600, Note_on_c, 9, 62, 120
7, 177600, Note_on_c, 9, 63, 120
7, 177600, Note_on_c, 9, 36, 120
7, 177600, Note_on_c, 9, 28, 120
7, 177600, Note_on_c, 9, 46, 120
7, 177657, Note_off_c, 9, 28, 0
7, 177657, Note_off_c, 9, 36, 0
7, 177657, Note_off_c, 9, 63, 0
7, 177657, Note_off_c, 9, 62, 0
7, 177660, Note_off_c, 9, 46, 0
7, 177840, Note_on_c, 9, 62, 120
7, 177840, Note_on_c, 9, 46, 120
7, 177840, Note_on_c, 9, 36, 120
7, 177840, Note_on_c, 9, 35, 120
7, 177897, Note_off_c, 9, 62, 0
7, 177900, Note_off_c, 9, 46, 0
7, 177900, Note_off_c, 9, 36, 0
7, 177900, Note_off_c, 9, 35, 0
7, 178056, Note_off_c, 9, 75, 0
7, 178056, Note_off_c, 9, 74, 0
7, 178080, Note_on_c, 9, 76, 120
7, 178080, Note_on_c, 9, 62, 120
7, 178080, Note_on_c, 9, 63, 120
7, 178080, Note_on_c, 9, 28, 120
7, 178080, Note_on_c, 9, 37, 120
7, 178080, Note_on_c, 9, 42, 120
7, 178080, Note_on_c, 9, 36, 120
7, 178080, Note_on_c, 9, 40, 120
7, 178080, Note_on_c, 9, 46, 120
7, 178080, Note_on_c, 9, 35, 120
7, 178080, Note_on_c, 9, 38, 120
7, 178137, Note_off_c, 9, 42, 0
7, 178137, Note_off_c, 9, 37, 0
7, 178137, Note_off_c, 9, 28, 0
7, 178137, Note_off_c, 9, 63, 0
7, 178137, Note_off_c, 9, 62, 0
7, 178137, Note_off_c, 9, 76, 0
7, 178140, Note_off_c, 9, 36, 0
7, 178140, Note_off_c, 9, 40, 0
7, 178140, Note_off_c, 9, 46, 0
7, 178140, Note_off_c, 9, 35, 0
7, 178140, Note_off_c, 9, 38, 0
7, 178320, Note_on_c, 9, 74, 120
7, 178320, Note_on_c, 9, 62, 120
7, 178320, Note_on_c, 9, 36, 120
7, 178320, Note_on_c, 9, 35, 120
7, 178320, Note_on_c, 9, 46, 120
7, 178377, Note_off_c, 9, 35, 0
7, 178377, Note_off_c, 9, 36, 0
7, 178377, Note_off_c, 9, 62, 0
7, 178380, Note_off_c, 9, 46, 0
7, 178548, Note_off_c, 9, 74, 0
7, 178560, Note_on_c, 9, 74, 120
7, 178560, Note_on_c, 9, 75, 120
7, 178560, Note_on_c, 9, 62, 120
7, 178560, Note_on_c, 9, 37, 120
7, 178560, Note_on_c, 9, 35, 120
7, 178560, Note_on_c, 9, 36, 120
7, 178560, Note_on_c, 9, 46, 120
7, 178560, Note_on_c, 9, 28, 120
7, 178617, Note_off_c, 9, 28, 0
7, 178617, Note_off_c, 9, 62, 0
7, 178620, Note_off_c, 9, 37, 0
7, 178620, Note_off_c, 9, 35, 0
7, 178620, Note_off_c, 9, 36, 0
7, 178620, Note_off_c, 9, 46, 0
7, 178800, Note_on_c, 9, 62, 120
7, 178800, Note_on_c, 9, 46, 120
7, 178800, Note_on_c, 9, 35, 120
7, 178800, Note_on_c, 9, 36, 120
7, 178857, Note_off_c, 9, 62, 0
7, 178860, Note_off_c, 9, 46, 0
7, 178860, Note_off_c, 9, 35, 0
7, 178860, Note_off_c, 9, 36, 0
7, 179016, Note_off_c, 9, 75, 0
7, 179016, Note_off_c, 9, 74, 0
7, 179040, Note_on_c, 9, 76, 120
7, 179040, Note_on_c, 9, 62, 120
7, 179040, Note_on_c, 9, 63, 120
7, 179040, Note_on_c, 9, 28, 120
7, 179040, Note_on_c, 9, 37, 120
7, 179040, Note_on_c, 9, 42, 120
7, 179040, Note_on_c, 9, 40, 120
7, 179040, Note_on_c, 9, 38, 120
7, 179040, Note_on_c, 9, 35, 120
7, 179040, Note_on_c, 9, 36, 120
7, 179040, Note_on_c, 9, 46, 120
7, 179097, Note_off_c, 9, 42, 0
7, 179097, Note_off_c, 9, 37, 0
7, 179097, Note_off_c, 9, 28, 0
7, 179097, Note_off_c, 9, 63, 0
7, 179097, Note_off_c, 9, 62, 0
7, 179097, Note_off_c, 9, 76, 0
7, 179100, Note_off_c, 9, 40, 0
7, 179100, Note_off_c, 9, 38, 0
7, 179100, Note_off_c, 9, 35, 0
7, 179100, Note_off_c, 9, 36, 0
7, 179100, Note_off_c, 9, 46, 0
7, 179280, Note_on_c, 9, 74, 120
7, 179280, Note_on_c, 9, 62, 120
7, 179280, Note_on_c, 9, 36, 120
7, 179280, Note_on_c, 9, 35, 120
7, 179280, Note_on_c, 9, 46, 120
7, 179337, Note_off_c, 9, 35, 0
7, 179337, Note_off_c, 9, 36, 0
7, 179337, Note_off_c, 9, 62, 0
7, 179340, Note_off_c, 9, 46, 0
7, 179508, Note_off_c, 9, 74, 0
7, 179520, Note_on_c, 9, 74, 120
7, 179520, Note_on_c, 9, 75, 120
7, 179520, Note_on_c, 9, 62, 120
7, 179520, Note_on_c, 9, 63, 120
7, 179520, Note_on_c, 9, 36, 120
7, 179520, Note_on_c, 9, 28, 120
7, 179520, Note_on_c, 9, 46, 120
7, 179577, Note_off_c, 9, 28, 0
7, 179577, Note_off_c, 9, 36, 0
7, 179577, Note_off_c, 9, 63, 0
7, 179577, Note_off_c, 9, 62, 0
7, 179580, Note_off_c, 9, 46, 0
7, 179760, Note_on_c, 9, 76, 120
7, 179760, Note_on_c, 9, 62, 120
7, 179760, Note_on_c, 9, 46, 120
7, 179760, Note_on_c, 9, 36, 120
7, 179760, Note_on_c, 9, 35, 120
7, 179817, Note_off_c, 9, 62, 0
7, 179817, Note_off_c, 9, 76, 0
7, 179820, Note_off_c, 9, 46, 0
7, 179820, Note_off_c, 9, 36, 0
7, 179820, Note_off_c, 9, 35, 0
7, 179976, Note_off_c, 9, 75, 0
7, 179976, Note_off_c, 9, 74, 0
7, 180000, Note_on_c, 9, 62, 120
7, 180000, Note_on_c, 9, 63, 120
7, 180000, Note_on_c, 9, 28, 120
7, 180000, Note_on_c, 9, 37, 120
7, 180000, Note_on_c, 9, 42, 120
7, 180000, Note_on_c, 9, 36, 120
7, 180000, Note_on_c, 9, 40, 120
7, 180000, Note_on_c, 9, 46, 120
7, 180000, Note_on_c, 9, 35, 120
7, 180000, Note_on_c, 9, 38, 120
7, 180057, Note_off_c, 9, 42, 0
7, 180057, Note_off_c, 9, 37, 0
7, 180057, Note_off_c, 9, 28, 0
7, 180057, Note_off_c, 9, 63, 0
7, 180057, Note_off_c, 9, 62, 0
7, 180060, Note_off_c, 9, 36, 0
7, 180060, Note_off_c, 9, 40, 0
7, 180060, Note_off_c, 9, 46, 0
7, 180060, Note_off_c, 9, 35, 0
7, 180060, Note_off_c, 9, 38, 0
7, 180116, Note_on_c, 9, 62, 120
7, 180173, Note_off_c, 9, 62, 0
7, 180240, Note_on_c, 9, 74, 120
7, 180240, Note_on_c, 9, 61, 120
7, 180240, Note_on_c, 9, 62, 120
7, 180240, Note_on_c, 9, 36, 120
7, 180240, Note_on_c, 9, 35, 120
7, 180240, Note_on_c, 9, 46, 120
7, 180297, Note_off_c, 9, 35, 0
7, 180297, Note_off_c, 9, 36, 0
7, 180297, Note_off_c, 9, 62, 0
7, 180297, Note_off_c, 9, 61, 0
7, 180300, Note_off_c, 9, 46, 0
7, 180363, Note_on_c, 9, 60, 120
7, 180363, Note_on_c, 9, 61, 120
7, 180420, Note_off_c, 9, 61, 0
7, 180420, Note_off_c, 9, 60, 0
7, 180468, Note_off_c, 9, 74, 0
7, 180480, Note_on_c, 9, 74, 120
7, 180480, Note_on_c, 9, 76, 120
7, 180480, Note_on_c, 9, 75, 120
7, 180480, Note_on_c, 9, 62, 120
7, 180480, Note_on_c, 9, 37, 120
7, 180480, Note_on_c, 9, 35, 120
7, 180480, Note_on_c, 9, 36, 120
7, 180480, Note_on_c, 9, 46, 120
7, 180480, Note_on_c, 9, 28, 120
7, 180537, Note_off_c, 9, 28, 0
7, 180537, Note_off_c, 9, 62, 0
7, 180537, Note_off_c, 9, 76, 0
7, 180540, Note_off_c, 9, 37, 0
7, 180540, Note_off_c, 9, 35, 0
7, 180540, Note_off_c, 9, 36, 0
7, 180540, Note_off_c, 9, 46, 0
7, 180720, Note_on_c, 9, 62, 120
7, 180720, Note_on_c, 9, 46, 120
7, 180720, Note_on_c, 9, 35, 120
7, 180720, Note_on_c, 9, 36, 120
7, 180777, Note_off_c, 9, 62, 0
7, 180780, Note_off_c, 9, 46, 0
7, 180780, Note_off_c, 9, 35, 0
7, 180780, Note_off_c, 9, 36, 0
7, 180936, Note_off_c, 9, 74, 0
7, 180936, Note_off_c, 9, 75, 0
7, 180960, Note_on_c, 9, 63, 120
7, 180960, Note_on_c, 9, 28, 120
7, 180960, Note_on_c, 9, 37, 120
7, 180960, Note_on_c, 9, 42, 120
7, 180960, Note_on_c, 9, 40, 120
7, 180960, Note_on_c, 9, 38, 120
7, 180960, Note_on_c, 9, 35, 120
7, 180960, Note_on_c, 9, 36, 120
7, 180960, Note_on_c, 9, 46, 120
7, 181017, Note_off_c, 9, 42, 0
7, 181017, Note_off_c, 9, 37, 0
7, 181017, Note_off_c, 9, 28, 0
7, 181017, Note_off_c, 9, 63, 0
7, 181020, Note_off_c, 9, 40, 0
7, 181020, Note_off_c, 9, 38, 0
7, 181020, Note_off_c, 9, 35, 0
7, 181020, Note_off_c, 9, 36, 0
7, 181020, Note_off_c, 9, 46, 0
7, 181200, Note_on_c, 9, 74, 120
7, 181200, Note_on_c, 9, 76, 120
7, 181200, Note_on_c, 9, 62, 120
7, 181200, Note_on_c, 9, 36, 120
7, 181200, Note_on_c, 9, 35, 120
7, 181200, Note_on_c, 9, 46, 120
7, 181257, Note_off_c, 9, 35, 0
7, 181257, Note_off_c, 9, 36, 0
7, 181257, Note_off_c, 9, 62, 0
7, 181257, Note_off_c, 9, 76, 0
7, 181260, Note_off_c, 9, 46, 0
7, 181428, Note_off_c, 9, 74, 0
7, 181440, Note_on_c, 9, 74, 120
7, 181440, Note_on_c, 9, 75, 120
7, 181440, Note_on_c, 9, 62, 120
7, 181440, Note_on_c, 9, 63, 120
7, 181440, Note_on_c, 9, 36, 120
7, 181440, Note_on_c, 9, 28, 120
7, 181440, Note_on_c, 9, 46, 120
7, 181497, Note_off_c, 9, 28, 0
7, 181497, Note_off_c, 9, 36, 0
7, 181497, Note_off_c, 9, 63, 0
7, 181497, Note_off_c, 9, 62, 0
7, 181500, Note_off_c, 9, 46, 0
7, 181680, Note_on_c, 9, 62, 120
7, 181680, Note_on_c, 9, 46, 120
7, 181680, Note_on_c, 9, 36, 120
7, 181680, Note_on_c, 9, 35, 120
7, 181737, Note_off_c, 9, 62, 0
7, 181740, Note_off_c, 9, 46, 0
7, 181740, Note_off_c, 9, 36, 0
7, 181740, Note_off_c, 9, 35, 0
7, 181896, Note_off_c, 9, 75, 0
7, 181896, Note_off_c, 9, 74, 0
7, 181920, Note_on_c, 9, 76, 120
7, 181920, Note_on_c, 9, 62, 120
7, 181920, Note_on_c, 9, 63, 120
7, 181920, Note_on_c, 9, 28, 120
7, 181920, Note_on_c, 9, 37, 120
7, 181920, Note_on_c, 9, 42, 120
7, 181920, Note_on_c, 9, 36, 120
7, 181920, Note_on_c, 9, 40, 120
7, 181920, Note_on_c, 9, 46, 120
7, 181920, Note_on_c, 9, 35, 120
7, 181920, Note_on_c, 9, 38, 120
7, 181977, Note_off_c, 9, 42, 0
7, 181977, Note_off_c, 9, 37, 0
7, 181977, Note_off_c, 9, 28, 0
7, 181977, Note_off_c, 9, 63, 0
7, 181977, Note_off_c, 9, 62, 0
7, 181977, Note_off_c, 9, 76, 0
7, 181980, Note_off_c, 9, 36, 0
7, 181980, Note_off_c, 9, 40, 0
7, 181980, Note_off_c, 9, 46, 0
7, 181980, Note_off_c, 9, 35, 0
7, 181980, Note_off_c, 9, 38, 0
7, 182160, Note_on_c, 9, 74, 120
7, 182160, Note_on_c, 9, 62, 120
7, 182160, Note_on_c, 9, 36, 120
7, 182160, Note_on_c, 9, 35, 120
7, 182160, Note_on_c, 9, 46, 120
7, 182217, Note_off_c, 9, 35, 0
7, 182217, Note_off_c, 9, 36, 0
7, 182217, Note_off_c, 9, 62, 0
7, 182220, Note_off_c, 9, 46, 0
7, 182388, Note_off_c, 9, 74, 0
7, 182400, Note_on_c, 9, 74, 120
7, 182400, Note_on_c, 9, 75, 120
7, 182400, Note_on_c, 9, 62, 120
7, 182400, Note_on_c, 9, 37, 120
7, 182400, Note_on_c, 9, 35, 120
7, 182400, Note_on_c, 9, 36, 120
7, 182400, Note_on_c, 9, 46, 120
7, 182400, Note_on_c, 9, 28, 120
7, 182457, Note_off_c, 9, 28, 0
7, 182457, Note_off_c, 9, 62, 0
7, 182460, Note_off_c, 9, 37, 0
7, 182460, Note_off_c, 9, 35, 0
7, 182460, Note_off_c, 9, 36, 0
7, 182460, Note_off_c, 9, 46, 0
7, 182640, Note_on_c, 9, 62, 120
7, 182640, Note_on_c, 9, 46, 120
7, 182640, Note_on_c, 9, 35, 120
7, 182640, Note_on_c, 9, 36, 120
7, 182697, Note_off_c, 9, 62, 0
7, 182700, Note_off_c, 9, 46, 0
7, 182700, Note_off_c, 9, 35, 0
7, 182700, Note_off_c, 9, 36, 0
7, 182856, Note_off_c, 9, 75, 0
7, 182856, Note_off_c, 9, 74, 0
7, 182880, Note_on_c, 9, 76, 120
7, 182880, Note_on_c, 9, 62, 120
7, 182880, Note_on_c, 9, 63, 120
7, 182880, Note_on_c, 9, 28, 120
7, 182880, Note_on_c, 9, 37, 120
7, 182880, Note_on_c, 9, 42, 120
7, 182880, Note_on_c, 9, 40, 120
7, 182880, Note_on_c, 9, 38, 120
7, 182880, Note_on_c, 9, 35, 120
7, 182880, Note_on_c, 9, 36, 120
7, 182880, Note_on_c, 9, 46, 120
7, 182937, Note_off_c, 9, 42, 0
7, 182937, Note_off_c, 9, 37, 0
7, 182937, Note_off_c, 9, 28, 0
7, 182937, Note_off_c, 9, 63, 0
7, 182937, Note_off_c, 9, 62, 0
7, 182937, Note_off_c, 9, 76, 0
7, 182940, Note_off_c, 9, 40, 0
7, 182940, Note_off_c, 9, 38, 0
7, 182940, Note_off_c, 9, 35, 0
7, 182940, Note_off_c, 9, 36, 0
7, 182940, Note_off_c, 9, 46, 0
7, 183120, Note_on_c, 9, 74, 120
7, 183120, Note_on_c, 9, 62, 120
7, 183120, Note_on_c, 9, 36, 120
7, 183120, Note_on_c, 9, 35, 120
7, 183120, Note_on_c, 9, 46, 120
7, 183177, Note_off_c, 9, 35, 0
7, 183177, Note_off_c, 9, 36, 0
7, 183177, Note_off_c, 9, 62, 0
7, 183180, Note_off_c, 9, 46, 0
7, 183348, Note_off_c, 9, 74, 0
7, 183360, Note_on_c, 9, 74, 120
7, 183360, Note_on_c, 9, 75, 120
7, 183360, Note_on_c, 9, 62, 120
7, 183360, Note_on_c, 9, 63, 120
7, 183360, Note_on_c, 9, 36, 120
7, 183360, Note_on_c, 9, 28, 120
7, 183360, Note_on_c, 9, 46, 120
7, 183417, Note_off_c, 9, 28, 0
7, 183417, Note_off_c, 9, 36, 0
7, 183417, Note_off_c, 9, 63, 0
7, 183417, Note_off_c, 9, 62, 0
7, 183420, Note_off_c, 9, 46, 0
7, 183600, Note_on_c, 9, 76, 120
7, 183600, Note_on_c, 9, 62, 120
7, 183600, Note_on_c, 9, 46, 120
7, 183600, Note_on_c, 9, 36, 120
7, 183600, Note_on_c, 9, 35, 120
7, 183657, Note_off_c, 9, 62, 0
7, 183657, Note_off_c, 9, 76, 0
7, 183660, Note_off_c, 9, 46, 0
7, 183660, Note_off_c, 9, 36, 0
7, 183660, Note_off_c, 9, 35, 0
7, 183816, Note_off_c, 9, 75, 0
7, 183816, Note_off_c, 9, 74, 0
7, 183840, Note_on_c, 9, 62, 120
7, 183840, Note_on_c, 9, 63, 120
7, 183840, Note_on_c, 9, 28, 120
7, 183840, Note_on_c, 9, 37, 120
7, 183840, Note_on_c, 9, 42, 120
7, 183840, Note_on_c, 9, 36, 120
7, 183840, Note_on_c, 9, 40, 120
7, 183840, Note_on_c, 9, 46, 120
7, 183840, Note_on_c, 9, 35, 120
7, 183840, Note_on_c, 9, 38, 120
7, 183897, Note_off_c, 9, 42, 0
7, 183897, Note_off_c, 9, 37, 0
7, 183897, Note_off_c, 9, 28, 0
7, 183897, Note_off_c, 9, 63, 0
7, 183897, Note_off_c, 9, 62, 0
7, 183900, Note_off_c, 9, 36, 0
7, 183900, Note_off_c, 9, 40, 0
7, 183900, Note_off_c, 9, 46, 0
7, 183900, Note_off_c, 9, 35, 0
7, 183900, Note_off_c, 9, 38, 0
7, 183956, Note_on_c, 9, 62, 120
7, 184013, Note_off_c, 9, 62, 0
7, 184080, Note_on_c, 9, 74, 120
7, 184080, Note_on_c, 9, 61, 120
7, 184080, Note_on_c, 9, 62, 120
7, 184080, Note_on_c, 9, 36, 120
7, 184080, Note_on_c, 9, 35, 120
7, 184080, Note_on_c, 9, 46, 120
7, 184137, Note_off_c, 9, 35, 0
7, 184137, Note_off_c, 9, 36, 0
7, 184137, Note_off_c, 9, 62, 0
7, 184137, Note_off_c, 9, 61, 0
7, 184140, Note_off_c, 9, 46, 0
7, 184203, Note_on_c, 9, 60, 120
7, 184203, Note_on_c, 9, 61, 120
7, 184260, Note_off_c, 9, 61, 0
7, 184260, Note_off_c, 9, 60, 0
7, 184308, Note_off_c, 9, 74, 0
7, 184320, Note_on_c, 9, 74, 120
7, 184320, Note_on_c, 9, 76, 120
7, 184320, Note_on_c, 9, 28, 120
7, 184320, Note_on_c, 9, 62, 120
7, 184320, Note_on_c, 9, 49, 120
7, 184320, Note_on_c, 9, 51, 120
7, 184320, Note_on_c, 9, 46, 120
7, 184320, Note_on_c, 9, 36, 120
7, 184320, Note_on_c, 9, 35, 120
7, 184320, Note_on_c, 9, 37, 120
7, 184320, Note_on_c, 9, 75, 120
7, 184377, Note_off_c, 9, 62, 0
7, 184377, Note_off_c, 9, 28, 0
7, 184377, Note_off_c, 9, 76, 0
7, 184380, Note_off_c, 9, 49, 0
7, 184380, Note_off_c, 9, 51, 0
7, 184380, Note_off_c, 9, 46, 0
7, 184380, Note_off_c, 9, 36, 0
7, 184380, Note_off_c, 9, 35, 0
7, 184380, Note_off_c, 9, 37, 0
7, 184560, Note_on_c, 9, 62, 120
7, 184560, Note_on_c, 9, 46, 120
7, 184560, Note_on_c, 9, 35, 120
7, 184560, Note_on_c, 9, 36, 120
7, 184617, Note_off_c, 9, 62, 0
7, 184620, Note_off_c, 9, 46, 0
7, 184620, Note_off_c, 9, 35, 0
7, 184620, Note_off_c, 9, 36, 0
7, 184776, Note_off_c, 9, 74, 0
7, 184776, Note_off_c, 9, 75, 0
7, 184800, Note_on_c, 9, 28, 120
7, 184800, Note_on_c, 9, 63, 120
7, 184800, Note_on_c, 9, 37, 120
7, 184800, Note_on_c, 9, 42, 120
7, 184800, Note_on_c, 9, 40, 120
7, 184800, Note_on_c, 9, 38, 120
7, 184800, Note_on_c, 9, 35, 120
7, 184800, Note_on_c, 9, 36, 120
7, 184800, Note_on_c, 9, 46, 120
7, 184857, Note_off_c, 9, 42, 0
7, 184857, Note_off_c, 9, 37, 0
7, 184857, Note_off_c, 9, 63, 0
7, 184857, Note_off_c, 9, 28, 0
7, 184860, Note_off_c, 9, 40, 0
7, 184860, Note_off_c, 9, 38, 0
7, 184860, Note_off_c, 9, 35, 0
7, 184860, Note_off_c, 9, 36, 0
7, 184860, Note_off_c, 9, 46, 0
7, 185040, Note_on_c, 9, 36, 120
7, 185040, Note_on_c, 9, 35, 120
7, 185040, Note_on_c, 9, 74, 120
7, 185040, Note_on_c, 9, 76, 120
7, 185040, Note_on_c, 9, 62, 120
7, 185040, Note_on_c, 9, 46, 120
7, 185097, Note_off_c, 9, 62, 0
7, 185097, Note_off_c, 9, 76, 0
7, 185097, Note_off_c, 9, 35, 0
7, 185097, Note_off_c, 9, 36, 0
7, 185100, Note_off_c, 9, 46, 0
7, 185268, Note_off_c, 9, 74, 0
7, 185280, Note_on_c, 9, 36, 120
7, 185280, Note_on_c, 9, 74, 120
7, 185280, Note_on_c, 9, 75, 120
7, 185280, Note_on_c, 9, 28, 120
7, 185280, Note_on_c, 9, 62, 120
7, 185280, Note_on_c, 9, 63, 120
7, 185280, Note_on_c, 9, 46, 120
7, 185337, Note_off_c, 9, 63, 0
7, 185337, Note_off_c, 9, 62, 0
7, 185337, Note_off_c, 9, 28, 0
7, 185337, Note_off_c, 9, 36, 0
7, 185340, Note_off_c, 9, 46, 0
7, 185520, Note_on_c, 9, 62, 120
7, 185520, Note_on_c, 9, 46, 120
7, 185520, Note_on_c, 9, 36, 120
7, 185520, Note_on_c, 9, 35, 120
7, 185577, Note_off_c, 9, 62, 0
7, 185580, Note_off_c, 9, 46, 0
7, 185580, Note_off_c, 9, 36, 0
7, 185580, Note_off_c, 9, 35, 0
7, 185736, Note_off_c, 9, 74, 0
7, 185736, Note_off_c, 9, 75, 0
7, 185760, Note_on_c, 9, 76, 120
7, 185760, Note_on_c, 9, 28, 120
7, 185760, Note_on_c, 9, 62, 120
7, 185760, Note_on_c, 9, 63, 120
7, 185760, Note_on_c, 9, 37, 120
7, 185760, Note_on_c, 9, 42, 120
7, 185760, Note_on_c, 9, 36, 120
7, 185760, Note_on_c, 9, 40, 120
7, 185760, Note_on_c, 9, 46, 120
7, 185760, Note_on_c, 9, 35, 120
7, 185760, Note_on_c, 9, 38, 120
7, 185817, Note_off_c, 9, 42, 0
7, 185817, Note_off_c, 9, 37, 0
7, 185817, Note_off_c, 9, 63, 0
7, 185817, Note_off_c, 9, 62, 0
7, 185817, Note_off_c, 9, 28, 0
7, 185817, Note_off_c, 9, 76, 0
7, 185820, Note_off_c, 9, 36, 0
7, 185820, Note_off_c, 9, 40, 0
7, 185820, Note_off_c, 9, 46, 0
7, 185820, Note_off_c, 9, 35, 0
7, 185820, Note_off_c, 9, 38, 0
7, 186000, Note_on_c, 9, 36, 120
7, 186000, Note_on_c, 9, 35, 120
7, 186000, Note_on_c, 9, 74, 120
7, 186000, Note_on_c, 9, 62, 120
7, 186000, Note_on_c, 9, 46, 120
7, 186057, Note_off_c, 9, 62, 0
7, 186057, Note_off_c, 9, 35, 0
7, 186057, Note_off_c, 9, 36, 0
7, 186060, Note_off_c, 9, 46, 0
7, 186228, Note_off_c, 9, 74, 0
7, 186240, Note_on_c, 9, 74, 120
7, 186240, Note_on_c, 9, 75, 120
7, 186240, Note_on_c, 9, 62, 120
7, 186240, Note_on_c, 9, 37, 120
7, 186240, Note_on_c, 9, 35, 120
7, 186240, Note_on_c, 9, 36, 120
7, 186240, Note_on_c, 9, 46, 120
7, 186240, Note_on_c, 9, 28, 120
7, 186297, Note_off_c, 9, 28, 0
7, 186297, Note_off_c, 9, 62, 0
7, 186300, Note_off_c, 9, 37, 0
7, 186300, Note_off_c, 9, 35, 0
7, 186300, Note_off_c, 9, 36, 0
7, 186300, Note_off_c, 9, 46, 0
7, 186480, Note_on_c, 9, 62, 120
7, 186480, Note_on_c, 9, 46, 120
7, 186480, Note_on_c, 9, 35, 120
7, 186480, Note_on_c, 9, 36, 120
7, 186537, Note_off_c, 9, 62, 0
7, 186540, Note_off_c, 9, 46, 0
7, 186540, Note_off_c, 9, 35, 0
7, 186540, Note_off_c, 9, 36, 0
7, 186696, Note_off_c, 9, 75, 0
7, 186696, Note_off_c, 9, 74, 0
7, 186720, Note_on_c, 9, 76, 120
7, 186720, Note_on_c, 9, 62, 120
7, 186720, Note_on_c, 9, 63, 120
7, 186720, Note_on_c, 9, 28, 120
7, 186720, Note_on_c, 9, 37, 120
7, 186720, Note_on_c, 9, 42, 120
7, 186720, Note_on_c, 9, 40, 120
7, 186720, Note_on_c, 9, 38, 120
7, 186720, Note_on_c, 9, 35, 120
7, 186720, Note_on_c, 9, 36, 120
7, 186720, Note_on_c, 9, 46, 120
7, 186777, Note_off_c, 9, 42, 0
7, 186777, Note_off_c, 9, 37, 0
7, 186777, Note_off_c, 9, 28, 0
7, 186777, Note_off_c, 9, 63, 0
7, 186777, Note_off_c, 9, 62, 0
7, 186777, Note_off_c, 9, 76, 0
7, 186780, Note_off_c, 9, 40, 0
7, 186780, Note_off_c, 9, 38, 0
7, 186780, Note_off_c, 9, 35, 0
7, 186780, Note_off_c, 9, 36, 0
7, 186780, Note_off_c, 9, 46, 0
7, 186960, Note_on_c, 9, 74, 120
7, 186960, Note_on_c, 9, 62, 120
7, 186960, Note_on_c, 9, 36, 120
7, 186960, Note_on_c, 9, 35, 120
7, 186960, Note_on_c, 9, 46, 120
7, 187017, Note_off_c, 9, 35, 0
7, 187017, Note_off_c, 9, 36, 0
7, 187017, Note_off_c, 9, 62, 0
7, 187020, Note_off_c, 9, 46, 0
7, 187188, Note_off_c, 9, 74, 0
7, 187200, Note_on_c, 9, 74, 120
7, 187200, Note_on_c, 9, 75, 120
7, 187200, Note_on_c, 9, 62, 120
7, 187200, Note_on_c, 9, 63, 120
7, 187200, Note_on_c, 9, 36, 120
7, 187200, Note_on_c, 9, 28, 120
7, 187200, Note_on_c, 9, 46, 120
7, 187257, Note_off_c, 9, 28, 0
7, 187257, Note_off_c, 9, 36, 0
7, 187257, Note_off_c, 9, 63, 0
7, 187257, Note_off_c, 9, 62, 0
7, 187260, Note_off_c, 9, 46, 0
7, 187440, Note_on_c, 9, 76, 120
7, 187440, Note_on_c, 9, 62, 120
7, 187440, Note_on_c, 9, 46, 120
7, 187440, Note_on_c, 9, 36, 120
7, 187440, Note_on_c, 9, 35, 120
7, 187497, Note_off_c, 9, 62, 0
7, 187497, Note_off_c, 9, 76, 0
7, 187500, Note_off_c, 9, 46, 0
7, 187500, Note_off_c, 9, 36, 0
7, 187500, Note_off_c, 9, 35, 0
7, 187656, Note_off_c, 9, 75, 0
7, 187656, Note_off_c, 9, 74, 0
7, 187680, Note_on_c, 9, 62, 120
7, 187680, Note_on_c, 9, 63, 120
7, 187680, Note_on_c, 9, 28, 120
7, 187680, Note_on_c, 9, 37, 120
7, 187680, Note_on_c, 9, 42, 120
7, 187680, Note_on_c, 9, 36, 120
7, 187680, Note_on_c, 9, 40, 120
7, 187680, Note_on_c, 9, 46, 120
7, 187680, Note_on_c, 9, 35, 120
7, 187680, Note_on_c, 9, 38, 120
7, 187737, Note_off_c, 9, 42, 0
7, 187737, Note_off_c, 9, 37, 0
7, 187737, Note_off_c, 9, 28, 0
7, 187737, Note_off_c, 9, 63, 0
7, 187737, Note_off_c, 9, 62, 0
7, 187740, Note_off_c, 9, 36, 0
7, 187740, Note_off_c, 9, 40, 0
7, 187740, Note_off_c, 9, 46, 0
7, 187740, Note_off_c, 9, 35, 0
7, 187740, Note_off_c, 9, 38, 0
7, 187796, Note_on_c, 9, 62, 120
7, 187853, Note_off_c, 9, 62, 0
7, 187920, Note_on_c, 9, 74, 120
7, 187920, Note_on_c, 9, 61, 120
7, 187920, Note_on_c, 9, 62, 120
7, 187920, Note_on_c, 9, 36, 120
7, 187920, Note_on_c, 9, 35, 120
7, 187920, Note_on_c, 9, 46, 120
7, 187977, Note_off_c, 9, 35, 0
7, 187977, Note_off_c, 9, 36, 0
7, 187977, Note_off_c, 9, 62, 0
7, 187977, Note_off_c, 9, 61, 0
7, 187980, Note_off_c, 9, 46, 0
7, 188043, Note_on_c, 9, 60, 120
7, 188043, Note_on_c, 9, 61, 120
7, 188100, Note_off_c, 9, 61, 0
7, 188100, Note_off_c, 9, 60, 0
7, 188148, Note_off_c, 9, 74, 0
7, 188160, Note_on_c, 9, 74, 120
7, 188160, Note_on_c, 9, 76, 120
7, 188160, Note_on_c, 9, 75, 120
7, 188160, Note_on_c, 9, 62, 120
7, 188160, Note_on_c, 9, 37, 120
7, 188160, Note_on_c, 9, 35, 120
7, 188160, Note_on_c, 9, 36, 120
7, 188160, Note_on_c, 9, 46, 120
7, 188160, Note_on_c, 9, 28, 120
7, 188217, Note_off_c, 9, 28, 0
7, 188217, Note_off_c, 9, 62, 0
7, 188217, Note_off_c, 9, 76, 0
7, 188220, Note_off_c, 9, 37, 0
7, 188220, Note_off_c, 9, 35, 0
7, 188220, Note_off_c, 9, 36, 0
7, 188220, Note_off_c, 9, 46, 0
7, 188400, Note_on_c, 9, 62, 120
7, 188400, Note_on_c, 9, 46, 120
7, 188400, Note_on_c, 9, 35, 120
7, 188400, Note_on_c, 9, 36, 120
7, 188457, Note_off_c, 9, 62, 0
7, 188460, Note_off_c, 9, 46, 0
7, 188460, Note_off_c, 9, 35, 0
7, 188460, Note_off_c, 9, 36, 0
7, 188616, Note_off_c, 9, 74, 0
7, 188616, Note_off_c, 9, 75, 0
7, 188640, Note_on_c, 9, 63, 120
7, 188640, Note_on_c, 9, 28, 120
7, 188640, Note_on_c, 9, 37, 120
7, 188640, Note_on_c, 9, 42, 120
7, 188640, Note_on_c, 9, 40, 120
7, 188640, Note_on_c, 9, 38, 120
7, 188640, Note_on_c, 9, 35, 120
7, 188640, Note_on_c, 9, 36, 120
7, 188640, Note_on_c, 9, 46, 120
7, 188697, Note_off_c, 9, 42, 0
7, 188697, Note_off_c, 9, 37, 0
7, 188697, Note_off_c, 9, 28, 0
7, 188697, Note_off_c, 9, 63, 0
7, 188700, Note_off_c, 9, 40, 0
7, 188700, Note_off_c, 9, 38, 0
7, 188700, Note_off_c, 9, 35, 0
7, 188700, Note_off_c, 9, 36, 0
7, 188700, Note_off_c, 9, 46, 0
7, 188880, Note_on_c, 9, 74, 120
7, 188880, Note_on_c, 9, 76, 120
7, 188880, Note_on_c, 9, 62, 120
7, 188880, Note_on_c, 9, 36, 120
7, 188880, Note_on_c, 9, 35, 120
7, 188880, Note_on_c, 9, 46, 120
7, 188937, Note_off_c, 9, 35, 0
7, 188937, Note_off_c, 9, 36, 0
7, 188937, Note_off_c, 9, 62, 0
7, 188937, Note_off_c, 9, 76, 0
7, 188940, Note_off_c, 9, 46, 0
7, 189108, Note_off_c, 9, 74, 0
7, 189120, Note_on_c, 9, 74, 120
7, 189120, Note_on_c, 9, 75, 120
7, 189120, Note_on_c, 9, 62, 120
7, 189120, Note_on_c, 9, 63, 120
7, 189120, Note_on_c, 9, 36, 120
7, 189120, Note_on_c, 9, 28, 120
7, 189120, Note_on_c, 9, 46, 120
7, 189177, Note_off_c, 9, 28, 0
7, 189177, Note_off_c, 9, 36, 0
7, 189177, Note_off_c, 9, 63, 0
7, 189177, Note_off_c, 9, 62, 0
7, 189180, Note_off_c, 9, 46, 0
7, 189360, Note_on_c, 9, 62, 120
7, 189360, Note_on_c, 9, 46, 120
7, 189360, Note_on_c, 9, 36, 120
7, 189360, Note_on_c, 9, 35, 120
7, 189417, Note_off_c, 9, 62, 0
7, 189420, Note_off_c, 9, 46, 0
7, 189420, Note_off_c, 9, 36, 0
7, 189420, Note_off_c, 9, 35, 0
7, 189576, Note_off_c, 9, 75, 0
7, 189576, Note_off_c, 9, 74, 0
7, 189600, Note_on_c, 9, 76, 120
7, 189600, Note_on_c, 9, 62, 120
7, 189600, Note_on_c, 9, 63, 120
7, 189600, Note_on_c, 9, 28, 120
7, 189600, Note_on_c, 9, 37, 120
7, 189600, Note_on_c, 9, 42, 120
7, 189600, Note_on_c, 9, 36, 120
7, 189600, Note_on_c, 9, 40, 120
7, 189600, Note_on_c, 9, 46, 120
7, 189600, Note_on_c, 9, 35, 120
7, 189600, Note_on_c, 9, 38, 120
7, 189657, Note_off_c, 9, 42, 0
7, 189657, Note_off_c, 9, 37, 0
7, 189657, Note_off_c, 9, 28, 0
7, 189657, Note_off_c, 9, 63, 0
7, 189657, Note_off_c, 9, 62, 0
7, 189657, Note_off_c, 9, 76, 0
7, 189660, Note_off_c, 9, 36, 0
7, 189660, Note_off_c, 9, 40, 0
7, 189660, Note_off_c, 9, 46, 0
7, 189660, Note_off_c, 9, 35, 0
7, 189660, Note_off_c, 9, 38, 0
7, 189840, Note_on_c, 9, 74, 120
7, 189840, Note_on_c, 9, 62, 120
7, 189840, Note_on_c, 9, 36, 120
7, 189840, Note_on_c, 9, 35, 120
7, 189840, Note_on_c, 9, 46, 120
7, 189897, Note_off_c, 9, 35, 0
7, 189897, Note_off_c, 9, 36, 0
7, 189897, Note_off_c, 9, 62, 0
7, 189900, Note_off_c, 9, 46, 0
7, 190068, Note_off_c, 9, 74, 0
7, 190080, Note_on_c, 9, 74, 120
7, 190080, Note_on_c, 9, 75, 120
7, 190080, Note_on_c, 9, 62, 120
7, 190080, Note_on_c, 9, 37, 120
7, 190080, Note_on_c, 9, 35, 120
7, 190080, Note_on_c, 9, 36, 120
7, 190080, Note_on_c, 9, 46, 120
7, 190080, Note_on_c, 9, 28, 120
7, 190137, Note_off_c, 9, 28, 0
7, 190137, Note_off_c, 9, 62, 0
7, 190140, Note_off_c, 9, 37, 0
7, 190140, Note_off_c, 9, 35, 0
7, 190140, Note_off_c, 9, 36, 0
7, 190140, Note_off_c, 9, 46, 0
7, 190320, Note_on_c, 9, 62, 120
7, 190320, Note_on_c, 9, 46, 120
7, 190320, Note_on_c, 9, 35, 120
7, 190320, Note_on_c, 9, 36, 120
7, 190377, Note_off_c, 9, 62, 0
7, 190380, Note_off_c, 9, 46, 0
7, 190380, Note_off_c, 9, 35, 0
7, 190380, Note_off_c, 9, 36, 0
7, 190536, Note_off_c, 9, 75, 0
7, 190536, Note_off_c, 9, 74, 0
7, 190560, Note_on_c, 9, 76, 120
7, 190560, Note_on_c, 9, 62, 120
7, 190560, Note_on_c, 9, 63, 120
7, 190560, Note_on_c, 9, 28, 120
7, 190560, Note_on_c, 9, 37, 120
7, 190560, Note_on_c, 9, 42, 120
7, 190560, Note_on_c, 9, 40, 120
7, 190560, Note_on_c, 9, 38, 120
7, 190560, Note_on_c, 9, 35, 120
7, 190560, Note_on_c, 9, 36, 120
7, 190560, Note_on_c, 9, 46, 120
7, 190617, Note_off_c, 9, 42, 0
7, 190617, Note_off_c, 9, 37, 0
7, 190617, Note_off_c, 9, 28, 0
7, 190617, Note_off_c, 9, 63, 0
7, 190617, Note_off_c, 9, 62, 0
7, 190617, Note_off_c, 9, 76, 0
7, 190620, Note_off_c, 9, 40, 0
7, 190620, Note_off_c, 9, 38, 0
7, 190620, Note_off_c, 9, 35, 0
7, 190620, Note_off_c, 9, 36, 0
7, 190620, Note_off_c, 9, 46, 0
7, 190800, Note_on_c, 9, 74, 120
7, 190800, Note_on_c, 9, 62, 120
7, 190800, Note_on_c, 9, 36, 120
7, 190800, Note_on_c, 9, 35, 120
7, 190800, Note_on_c, 9, 46, 120
7, 190857, Note_off_c, 9, 35, 0
7, 190857, Note_off_c, 9, 36, 0
7, 190857, Note_off_c, 9, 62, 0
7, 190860, Note_off_c, 9, 46, 0
7, 191028, Note_off_c, 9, 74, 0
7, 191040, Note_on_c, 9, 74, 120
7, 191040, Note_on_c, 9, 75, 120
7, 191040, Note_on_c, 9, 62, 120
7, 191040, Note_on_c, 9, 63, 120
7, 191040, Note_on_c, 9, 36, 120
7, 191040, Note_on_c, 9, 28, 120
7, 191040, Note_on_c, 9, 46, 120
7, 191097, Note_off_c, 9, 28, 0
7, 191097, Note_off_c, 9, 36, 0
7, 191097, Note_off_c, 9, 63, 0
7, 191097, Note_off_c, 9, 62, 0
7, 191100, Note_off_c, 9, 46, 0
7, 191280, Note_on_c, 9, 76, 120
7, 191280, Note_on_c, 9, 62, 120
7, 191280, Note_on_c, 9, 46, 120
7, 191280, Note_on_c, 9, 36, 120
7, 191280, Note_on_c, 9, 35, 120
7, 191337, Note_off_c, 9, 62, 0
7, 191337, Note_off_c, 9, 76, 0
7, 191340, Note_off_c, 9, 46, 0
7, 191340, Note_off_c, 9, 36, 0
7, 191340, Note_off_c, 9, 35, 0
7, 191496, Note_off_c, 9, 75, 0
7, 191496, Note_off_c, 9, 74, 0
7, 191520, Note_on_c, 9, 62, 120
7, 191520, Note_on_c, 9, 63, 120
7, 191520, Note_on_c, 9, 28, 120
7, 191520, Note_on_c, 9, 37, 120
7, 191520, Note_on_c, 9, 42, 120
7, 191520, Note_on_c, 9, 36, 120
7, 191520, Note_on_c, 9, 40, 120
7, 191520, Note_on_c, 9, 46, 120
7, 191520, Note_on_c, 9, 35, 120
7, 191520, Note_on_c, 9, 38, 120
7, 191577, Note_off_c, 9, 42, 0
7, 191577, Note_off_c, 9, 37, 0
7, 191577, Note_off_c, 9, 28, 0
7, 191577, Note_off_c, 9, 63, 0
7, 191577, Note_off_c, 9, 62, 0
7, 191580, Note_off_c, 9, 36, 0
7, 191580, Note_off_c, 9, 40, 0
7, 191580, Note_off_c, 9, 46, 0
7, 191580, Note_off_c, 9, 35, 0
7, 191580, Note_off_c, 9, 38, 0
7, 191636, Note_on_c, 9, 62, 120
7, 191693, Note_off_c, 9, 62, 0
7, 191760, Note_on_c, 9, 74, 120
7, 191760, Note_on_c, 9, 61, 120
7, 191760, Note_on_c, 9, 62, 120
7, 191760, Note_on_c, 9, 36, 120
7, 191760, Note_on_c, 9, 35, 120
7, 191760, Note_on_c, 9, 46, 120
7, 191817, Note_off_c, 9, 35, 0
7, 191817, Note_off_c, 9, 36, 0
7, 191817, Note_off_c, 9, 62, 0
7, 191817, Note_off_c, 9, 61, 0
7, 191820, Note_off_c, 9, 46, 0
7, 191883, Note_on_c, 9, 60, 120
7, 191883, Note_on_c, 9, 61, 120
7, 191940, Note_off_c, 9, 61, 0
7, 191940, Note_off_c, 9, 60, 0
7, 191988, Note_off_c, 9, 74, 0
7, 192000, Note_on_c, 9, 74, 120
7, 192000, Note_on_c, 9, 76, 120
7, 192000, Note_on_c, 9, 75, 120
7, 192000, Note_on_c, 9, 62, 120
7, 192000, Note_on_c, 9, 37, 120
7, 192000, Note_on_c, 9, 35, 120
7, 192000, Note_on_c, 9, 36, 120
7, 192000, Note_on_c, 9, 46, 120
7, 192000, Note_on_c, 9, 28, 120
7, 192057, Note_off_c, 9, 28, 0
7, 192057, Note_off_c, 9, 62, 0
7, 192057, Note_off_c, 9, 76, 0
7, 192060, Note_off_c, 9, 37, 0
7, 192060, Note_off_c, 9, 35, 0
7, 192060, Note_off_c, 9, 36, 0
7, 192060, Note_off_c, 9, 46, 0
7, 192240, Note_on_c, 9, 62, 120
7, 192240, Note_on_c, 9, 46, 120
7, 192240, Note_on_c, 9, 35, 120
7, 192240, Note_on_c, 9, 36, 120
7, 192297, Note_off_c, 9, 62, 0
7, 192300, Note_off_c, 9, 46, 0
7, 192300, Note_off_c, 9, 35, 0
7, 192300, Note_off_c, 9, 36, 0
7, 192456, Note_off_c, 9, 74, 0
7, 192456, Note_off_c, 9, 75, 0
7, 192480, Note_on_c, 9, 63, 120
7, 192480, Note_on_c, 9, 28, 120
7, 192480, Note_on_c, 9, 37, 120
7, 192480, Note_on_c, 9, 42, 120
7, 192480, Note_on_c, 9, 40, 120
7, 192480, Note_on_c, 9, 38, 120
7, 192480, Note_on_c, 9, 35, 120
7, 192480, Note_on_c, 9, 36, 120
7, 192480, Note_on_c, 9, 46, 120
7, 192537, Note_off_c, 9, 42, 0
7, 192537, Note_off_c, 9, 37, 0
7, 192537, Note_off_c, 9, 28, 0
7, 192537, Note_off_c, 9, 63, 0
7, 192540, Note_off_c, 9, 40, 0
7, 192540, Note_off_c, 9, 38, 0
7, 192540, Note_off_c, 9, 35, 0
7, 192540, Note_off_c, 9, 36, 0
7, 192540, Note_off_c, 9, 46, 0
7, 192720, Note_on_c, 9, 74, 120
7, 192720, Note_on_c, 9, 76, 120
7, 192720, Note_on_c, 9, 62, 120
7, 192720, Note_on_c, 9, 36, 120
7, 192720, Note_on_c, 9, 35, 120
7, 192720, Note_on_c, 9, 46, 120
7, 192777, Note_off_c, 9, 35, 0
7, 192777, Note_off_c, 9, 36, 0
7, 192777, Note_off_c, 9, 62, 0
7, 192777, Note_off_c, 9, 76, 0
7, 192780, Note_off_c, 9, 46, 0
7, 192948, Note_off_c, 9, 74, 0
7, 192960, Note_on_c, 9, 74, 120
7, 192960, Note_on_c, 9, 75, 120
7, 192960, Note_on_c, 9, 62, 120
7, 192960, Note_on_c, 9, 63, 120
7, 192960, Note_on_c, 9, 36, 120
7, 192960, Note_on_c, 9, 28, 120
7, 192960, Note_on_c, 9, 46, 120
7, 193017, Note_off_c, 9, 28, 0
7, 193017, Note_off_c, 9, 36, 0
7, 193017, Note_off_c, 9, 63, 0
7, 193017, Note_off_c, 9, 62, 0
7, 193020, Note_off_c, 9, 46, 0
7, 193200, Note_on_c, 9, 62, 120
7, 193200, Note_on_c, 9, 46, 120
7, 193200, Note_on_c, 9, 36, 120
7, 193200, Note_on_c, 9, 35, 120
7, 193257, Note_off_c, 9, 62, 0
7, 193260, Note_off_c, 9, 46, 0
7, 193260, Note_off_c, 9, 36, 0
7, 193260, Note_off_c, 9, 35, 0
7, 193416, Note_off_c, 9, 75, 0
7, 193416, Note_off_c, 9, 74, 0
7, 193440, Note_on_c, 9, 76, 120
7, 193440, Note_on_c, 9, 62, 120
7, 193440, Note_on_c, 9, 63, 120
7, 193440, Note_on_c, 9, 28, 120
7, 193440, Note_on_c, 9, 37, 120
7, 193440, Note_on_c, 9, 42, 120
7, 193440, Note_on_c, 9, 36, 120
7, 193440, Note_on_c, 9, 40, 120
7, 193440, Note_on_c, 9, 46, 120
7, 193440, Note_on_c, 9, 35, 120
7, 193440, Note_on_c, 9, 38, 120
7, 193497, Note_off_c, 9, 42, 0
7, 193497, Note_off_c, 9, 37, 0
7, 193497, Note_off_c, 9, 28, 0
7, 193497, Note_off_c, 9, 63, 0
7, 193497, Note_off_c, 9, 62, 0
7, 193497, Note_off_c, 9, 76, 0
7, 193500, Note_off_c, 9, 36, 0
7, 193500, Note_off_c, 9, 40, 0
7, 193500, Note_off_c, 9, 46, 0
7, 193500, Note_off_c, 9, 35, 0
7, 193500, Note_off_c, 9, 38, 0
7, 193680, Note_on_c, 9, 74, 120
7, 193680, Note_on_c, 9, 62, 120
7, 193680, Note_on_c, 9, 36, 120
7, 193680, Note_on_c, 9, 35, 120
7, 193680, Note_on_c, 9, 46, 120
7, 193737, Note_off_c, 9, 35, 0
7, 193737, Note_off_c, 9, 36, 0
7, 193737, Note_off_c, 9, 62, 0
7, 193740, Note_off_c, 9, 46, 0
7, 193908, Note_off_c, 9, 74, 0
7, 193920, Note_on_c, 9, 74, 120
7, 193920, Note_on_c, 9, 75, 120
7, 193920, Note_on_c, 9, 62, 120
7, 193920, Note_on_c, 9, 37, 120
7, 193920, Note_on_c, 9, 35, 120
7, 193920, Note_on_c, 9, 36, 120
7, 193920, Note_on_c, 9, 46, 120
7, 193920, Note_on_c, 9, 28, 120
7, 193977, Note_off_c, 9, 28, 0
7, 193977, Note_off_c, 9, 62, 0
7, 193980, Note_off_c, 9, 37, 0
7, 193980, Note_off_c, 9, 35, 0
7, 193980, Note_off_c, 9, 36, 0
7, 193980, Note_off_c, 9, 46, 0
7, 194160, Note_on_c, 9, 62, 120
7, 194160, Note_on_c, 9, 46, 120
7, 194160, Note_on_c, 9, 35, 120
7, 194160, Note_on_c, 9, 36, 120
7, 194217, Note_off_c, 9, 62, 0
7, 194220, Note_off_c, 9, 46, 0
7, 194220, Note_off_c, 9, 35, 0
7, 194220, Note_off_c, 9, 36, 0
7, 194376, Note_off_c, 9, 75, 0
7, 194376, Note_off_c, 9, 74, 0
7, 194400, Note_on_c, 9, 76, 120
7, 194400, Note_on_c, 9, 62, 120
7, 194400, Note_on_c, 9, 63, 120
7, 194400, Note_on_c, 9, 28, 120
7, 194400, Note_on_c, 9, 37, 120
7, 194400, Note_on_c, 9, 42, 120
7, 194400, Note_on_c, 9, 40, 120
7, 194400, Note_on_c, 9, 38, 120
7, 194400, Note_on_c, 9, 35, 120
7, 194400, Note_on_c, 9, 36, 120
7, 194400, Note_on_c, 9, 46, 120
7, 194457, Note_off_c, 9, 42, 0
7, 194457, Note_off_c, 9, 37, 0
7, 194457, Note_off_c, 9, 28, 0
7, 194457, Note_off_c, 9, 63, 0
7, 194457, Note_off_c, 9, 62, 0
7, 194457, Note_off_c, 9, 76, 0
7, 194460, Note_off_c, 9, 40, 0
7, 194460, Note_off_c, 9, 38, 0
7, 194460, Note_off_c, 9, 35, 0
7, 194460, Note_off_c, 9, 36, 0
7, 194460, Note_off_c, 9, 46, 0
7, 194640, Note_on_c, 9, 74, 120
7, 194640, Note_on_c, 9, 62, 120
7, 194640, Note_on_c, 9, 36, 120
7, 194640, Note_on_c, 9, 35, 120
7, 194640, Note_on_c, 9, 46, 120
7, 194697, Note_off_c, 9, 35, 0
7, 194697, Note_off_c, 9, 36, 0
7, 194697, Note_off_c, 9, 62, 0
7, 194700, Note_off_c, 9, 46, 0
7, 194868, Note_off_c, 9, 74, 0
7, 194880, Note_on_c, 9, 74, 120
7, 194880, Note_on_c, 9, 75, 120
7, 194880, Note_on_c, 9, 62, 120
7, 194880, Note_on_c, 9, 63, 120
7, 194880, Note_on_c, 9, 36, 120
7, 194880, Note_on_c, 9, 28, 120
7, 194880, Note_on_c, 9, 46, 120
7, 194937, Note_off_c, 9, 28, 0
7, 194937, Note_off_c, 9, 36, 0
7, 194937, Note_off_c, 9, 63, 0
7, 194937, Note_off_c, 9, 62, 0
7, 194940, Note_off_c, 9, 46, 0
7, 195120, Note_on_c, 9, 76, 120
7, 195120, Note_on_c, 9, 62, 120
7, 195120, Note_on_c, 9, 46, 120
7, 195120, Note_on_c, 9, 36, 120
7, 195120, Note_on_c, 9, 35, 120
7, 195177, Note_off_c, 9, 62, 0
7, 195177, Note_off_c, 9, 76, 0
7, 195180, Note_off_c, 9, 46, 0
7, 195180, Note_off_c, 9, 36, 0
7, 195180, Note_off_c, 9, 35, 0
7, 195336, Note_off_c, 9, 75, 0
7, 195336, Note_off_c, 9, 74, 0
7, 195360, Note_on_c, 9, 62, 120
7, 195360, Note_on_c, 9, 63, 120
7, 195360, Note_on_c, 9, 28, 120
7, 195360, Note_on_c, 9, 37, 120
7, 195360, Note_on_c, 9, 42, 120
7, 195360, Note_on_c, 9, 36, 120
7, 195360, Note_on_c, 9, 40, 120
7, 195360, Note_on_c, 9, 46, 120
7, 195360, Note_on_c, 9, 35, 120
7, 195360, Note_on_c, 9, 38, 120
7, 195417, Note_off_c, 9, 42, 0
7, 195417, Note_off_c, 9, 37, 0
7, 195417, Note_off_c, 9, 28, 0
7, 195417, Note_off_c, 9, 63, 0
7, 195417, Note_off_c, 9, 62, 0
7, 195420, Note_off_c, 9, 36, 0
7, 195420, Note_off_c, 9, 40, 0
7, 195420, Note_off_c, 9, 46, 0
7, 195420, Note_off_c, 9, 35, 0
7, 195420, Note_off_c, 9, 38, 0
7, 195476, Note_on_c, 9, 62, 120
7, 195533, Note_off_c, 9, 62, 0
7, 195600, Note_on_c, 9, 74, 120
7, 195600, Note_on_c, 9, 61, 120
7, 195600, Note_on_c, 9, 62, 120
7, 195600, Note_on_c, 9, 36, 120
7, 195600, Note_on_c, 9, 35, 120
7, 195600, Note_on_c, 9, 46, 120
7, 195657, Note_off_c, 9, 35, 0
7, 195657, Note_off_c, 9, 36, 0
7, 195657, Note_off_c, 9, 62, 0
7, 195657, Note_off_c, 9, 61, 0
7, 195660, Note_off_c, 9, 46, 0
7, 195723, Note_on_c, 9, 60, 120
7, 195723, Note_on_c, 9, 61, 120
7, 195780, Note_off_c, 9, 61, 0
7, 195780, Note_off_c, 9, 60, 0
7, 195828, Note_off_c, 9, 74, 0
7, 195840, Note_on_c, 9, 74, 120
7, 195840, Note_on_c, 9, 76, 120
7, 195840, Note_on_c, 9, 75, 120
7, 195840, Note_on_c, 9, 37, 120
7, 195840, Note_on_c, 9, 35, 120
7, 195840, Note_on_c, 9, 36, 120
7, 195840, Note_on_c, 9, 46, 120
7, 195897, Note_off_c, 9, 76, 0
7, 195900, Note_off_c, 9, 37, 0
7, 195900, Note_off_c, 9, 35, 0
7, 195900, Note_off_c, 9, 36, 0
7, 195900, Note_off_c, 9, 46, 0
7, 196080, Note_on_c, 9, 46, 120
7, 196080, Note_on_c, 9, 35, 120
7, 196080, Note_on_c, 9, 36, 120
7, 196140, Note_off_c, 9, 36, 0
7, 196140, Note_off_c, 9, 35, 0
7, 196140, Note_off_c, 9, 46, 0
7, 196296, Note_off_c, 9, 74, 0
7, 196296, Note_off_c, 9, 75, 0
7, 196320, Note_on_c, 9, 37, 120
7, 196320, Note_on_c, 9, 42, 120
7, 196320, Note_on_c, 9, 40, 120
7, 196320, Note_on_c, 9, 38, 120
7, 196320, Note_on_c, 9, 35, 120
7, 196320, Note_on_c, 9, 36, 120
7, 196320, Note_on_c, 9, 46, 120
7, 196377, Note_off_c, 9, 42, 0
7, 196377, Note_off_c, 9, 37, 0
7, 196380, Note_off_c, 9, 40, 0
7, 196380, Note_off_c, 9, 38, 0
7, 196380, Note_off_c, 9, 35, 0
7, 196380, Note_off_c, 9, 36, 0
7, 196380, Note_off_c, 9, 46, 0
7, 196560, Note_on_c, 9, 74, 120
7, 196560, Note_on_c, 9, 76, 120
7, 196560, Note_on_c, 9, 36, 120
7, 196560, Note_on_c, 9, 35, 120
7, 196560, Note_on_c, 9, 46, 120
7, 196617, Note_off_c, 9, 35, 0
7, 196617, Note_off_c, 9, 36, 0
7, 196617, Note_off_c, 9, 76, 0
7, 196620, Note_off_c, 9, 46, 0
7, 196788, Note_off_c, 9, 74, 0
7, 196800, Note_on_c, 9, 74, 120
7, 196800, Note_on_c, 9, 75, 120
7, 196800, Note_on_c, 9, 36, 120
7, 196800, Note_on_c, 9, 46, 120
7, 196857, Note_off_c, 9, 36, 0
7, 196860, Note_off_c, 9, 46, 0
7, 197040, Note_on_c, 9, 46, 120
7, 197040, Note_on_c, 9, 36, 120
7, 197040, Note_on_c, 9, 35, 120
7, 197100, Note_off_c, 9, 35, 0
7, 197100, Note_off_c, 9, 36, 0
7, 197100, Note_off_c, 9, 46, 0
7, 197256, Note_off_c, 9, 75, 0
7, 197256, Note_off_c, 9, 74, 0
7, 197280, Note_on_c, 9, 76, 120
7, 197280, Note_on_c, 9, 37, 120
7, 197280, Note_on_c, 9, 42, 120
7, 197280, Note_on_c, 9, 36, 120
7, 197280, Note_on_c, 9, 40, 120
7, 197280, Note_on_c, 9, 35, 120
7, 197280, Note_on_c, 9, 38, 120
7, 197337, Note_off_c, 9, 42, 0
7, 197337, Note_off_c, 9, 37, 0
7, 197337, Note_off_c, 9, 76, 0
7, 197340, Note_off_c, 9, 36, 0
7, 197340, Note_off_c, 9, 40, 0
7, 197340, Note_off_c, 9, 35, 0
7, 197340, Note_off_c, 9, 38, 0
7, 197520, Note_on_c, 9, 74, 120
7, 197520, Note_on_c, 9, 36, 120
7, 197520, Note_on_c, 9, 35, 120
7, 197577, Note_off_c, 9, 35, 0
7, 197577, Note_off_c, 9, 36, 0
7, 197748, Note_off_c, 9, 74, 0
7, 197760, Note_on_c, 9, 74, 120
7, 197760, Note_on_c, 9, 75, 120
7, 197760, Note_on_c, 9, 37, 120
7, 197760, Note_on_c, 9, 35, 120
7, 197760, Note_on_c, 9, 36, 120
7, 197820, Note_off_c, 9, 36, 0
7, 197820, Note_off_c, 9, 35, 0
7, 197820, Note_off_c, 9, 37, 0
7, 198000, Note_on_c, 9, 36, 120
7, 198060, Note_off_c, 9, 36, 0
7, 198216, Note_off_c, 9, 75, 0
7, 198216, Note_off_c, 9, 74, 0
7, 198240, Note_on_c, 9, 37, 120
7, 198240, Note_on_c, 9, 42, 120
7, 198240, Note_on_c, 9, 40, 120
7, 198240, Note_on_c, 9, 38, 120
7, 198240, Note_on_c, 9, 36, 120
7, 198297, Note_off_c, 9, 42, 0
7, 198297, Note_off_c, 9, 37, 0
7, 198300, Note_off_c, 9, 40, 0
7, 198300, Note_off_c, 9, 38, 0
7, 198300, Note_off_c, 9, 36, 0
7, 198480, Note_on_c, 9, 74, 120
7, 198480, Note_on_c, 9, 36, 120
7, 198537, Note_off_c, 9, 36, 0
7, 198708, Note_off_c, 9, 74, 0
7, 198720, Note_on_c, 9, 74, 120
7, 198720, Note_on_c, 9, 36, 120
7, 198777, Note_off_c, 9, 36, 0
7, 199176, Note_off_c, 9, 74, 0
7, 199200, Note_on_c, 9, 36, 120
7, 199200, Note_on_c, 9, 38, 120
7, 199260, Note_off_c, 9, 38, 0
7, 199260, Note_off_c, 9, 36, 0
7, 199260, End_track
0, 0, End_of_file
