0, 0, Header, 1, 22, 480
1, 0, Start_track
1, 0, Title_t, "Death Of A Party"
1, 0, Copyright_t, "(c) 1997 EMI Records Ltd."
1, 0, Text_t, " Blur (Albarn-Coxon-James-Rowntree)"
1, 0, Text_t, "by Blur (Albarn-Coxon-James-Rowntree)\012"
1, 0, Text_t, "Available on the album ""Blur"".\012"
1, 0, Text_t, "Tracks 16 & 17 are extra-tracks from the remixes of Death Of A Party by William Orbit (available on the album ""Bustin'+Dronin'""). They include a drums & percussion part and a synth bass riff. \012"
1, 0, Text_t, "To hear them, just increase their volume and set the remix drums track to channel 10. (I suggest to mute the standard drums track whilst listening to the other one.)\012"
1, 0, Text_t, "Sequenced by Colin Zeal (2001). \012"
1, 0, Text_t, "E-mail: \012"
1, 0, Text_t, "colin.zeal@caramail.com\012"
1, 0, Time_signature, 4, 2, 24, 8
1, 0, Key_signature, 0, "major"
1, 0, Tempo, 705882
1, 0, Marker_t, "Intro"
1, 3840, Marker_t, "Instru"
1, 19200, Marker_t, "Verse 1"
1, 32640, Tempo, 705882
1, 34560, Tempo, 705882
1, 34560, Marker_t, "Chorus 1"
1, 42240, Tempo, 705882
1, 49920, Marker_t, "Break"
1, 53760, Marker_t, "Instru"
1, 61440, Marker_t, "Verse 2"
1, 76800, Marker_t, "Chorus 2"
1, 96000, Marker_t, "Solo 1"
1, 111360, Marker_t, "Chorus 3"
1, 126720, Marker_t, "Instru"
1, 142080, Marker_t, "End"
1, 142080, End_track
2, 0, Start_track
2, 0, MIDI_port, 0
2, 0, Title_t, "Bass - Alex James"
2, 0, Program_c, 1, 34
2, 0, Control_c, 1, 7, 75
2, 0, Control_c, 1, 10, 64
2, 0, Control_c, 1, 101, 0
2, 0, Control_c, 1, 100, 0
2, 0, Control_c, 1, 6, 4
2, 0, Control_c, 1, 38, 0
2, 0, Program_c, 1, 34
2, 3840, Note_on_c, 1, 30, 127
2, 4080, Note_on_c, 1, 30, 0
2, 4080, Note_on_c, 1, 30, 127
2, 4320, Note_on_c, 1, 30, 0
2, 4320, Note_on_c, 1, 30, 127
2, 4560, Note_on_c, 1, 30, 0
2, 4800, Note_on_c, 1, 30, 127
2, 4920, Note_on_c, 1, 30, 0
2, 4920, Note_on_c, 1, 30, 127
2, 5040, Note_on_c, 1, 30, 0
2, 5040, Note_on_c, 1, 30, 127
2, 5280, Note_on_c, 1, 30, 0
2, 5280, Note_on_c, 1, 33, 127
2, 5400, Note_on_c, 1, 33, 0
2, 5400, Note_on_c, 1, 33, 127
2, 5520, Note_on_c, 1, 33, 0
2, 5520, Note_on_c, 1, 33, 127
2, 5760, Note_on_c, 1, 33, 0
2, 5760, Note_on_c, 1, 35, 127
2, 5880, Note_on_c, 1, 35, 0
2, 6000, Note_on_c, 1, 35, 127
2, 6240, Note_on_c, 1, 35, 0
2, 6240, Note_on_c, 1, 35, 127
2, 6360, Note_on_c, 1, 35, 0
2, 6480, Note_on_c, 1, 33, 127
2, 6720, Note_on_c, 1, 33, 0
2, 6720, Note_on_c, 1, 35, 127
2, 6840, Note_on_c, 1, 35, 0
2, 6840, Note_on_c, 1, 35, 127
2, 6960, Note_on_c, 1, 35, 0
2, 6960, Note_on_c, 1, 35, 127
2, 7200, Note_on_c, 1, 35, 0
2, 7200, Note_on_c, 1, 42, 127
2, 7440, Note_on_c, 1, 42, 0
2, 7440, Note_on_c, 1, 35, 127
2, 7620, Note_on_c, 1, 35, 0
2, 7620, Note_on_c, 1, 28, 127
2, 7680, Note_on_c, 1, 28, 0
2, 7680, Note_on_c, 1, 30, 127
2, 7920, Note_on_c, 1, 30, 0
2, 7920, Note_on_c, 1, 30, 127
2, 8160, Note_on_c, 1, 30, 0
2, 8160, Note_on_c, 1, 30, 127
2, 8400, Note_on_c, 1, 30, 0
2, 8640, Note_on_c, 1, 30, 127
2, 8760, Note_on_c, 1, 30, 0
2, 8880, Note_on_c, 1, 30, 127
2, 9120, Note_on_c, 1, 30, 0
2, 9120, Note_on_c, 1, 33, 127
2, 9240, Note_on_c, 1, 33, 0
2, 9360, Note_on_c, 1, 33, 127
2, 9600, Note_on_c, 1, 33, 0
2, 9600, Note_on_c, 1, 35, 127
2, 9720, Note_on_c, 1, 35, 0
2, 9840, Note_on_c, 1, 35, 127
2, 10080, Note_on_c, 1, 35, 0
2, 10080, Note_on_c, 1, 35, 127
2, 10320, Note_on_c, 1, 35, 0
2, 10320, Note_on_c, 1, 33, 127
2, 10560, Note_on_c, 1, 33, 0
2, 10560, Note_on_c, 1, 35, 127
2, 10680, Note_on_c, 1, 35, 0
2, 10680, Note_on_c, 1, 35, 127
2, 10800, Note_on_c, 1, 35, 0
2, 10800, Note_on_c, 1, 35, 127
2, 11040, Note_on_c, 1, 35, 0
2, 11040, Note_on_c, 1, 35, 127
2, 11160, Note_on_c, 1, 35, 0
2, 11160, Note_on_c, 1, 33, 127
2, 11280, Note_on_c, 1, 33, 0
2, 11280, Note_on_c, 1, 37, 127
2, 11520, Note_on_c, 1, 37, 0
2, 11520, Note_on_c, 1, 30, 127
2, 11640, Note_on_c, 1, 30, 0
2, 11760, Note_on_c, 1, 30, 127
2, 12000, Note_on_c, 1, 30, 0
2, 12000, Note_on_c, 1, 30, 127
2, 12120, Note_on_c, 1, 30, 0
2, 12240, Note_on_c, 1, 28, 127
2, 12480, Note_on_c, 1, 28, 0
2, 12480, Note_on_c, 1, 30, 127
2, 12600, Note_on_c, 1, 30, 0
2, 12600, Note_on_c, 1, 30, 127
2, 12720, Note_on_c, 1, 30, 0
2, 12720, Note_on_c, 1, 30, 127
2, 12960, Note_on_c, 1, 30, 0
2, 12960, Note_on_c, 1, 33, 127
2, 13080, Note_on_c, 1, 33, 0
2, 13200, Note_on_c, 1, 33, 127
2, 13440, Note_on_c, 1, 33, 0
2, 13440, Note_on_c, 1, 35, 127
2, 13560, Note_on_c, 1, 35, 0
2, 13680, Note_on_c, 1, 35, 127
2, 13920, Note_on_c, 1, 35, 0
2, 13920, Note_on_c, 1, 35, 127
2, 14160, Note_on_c, 1, 35, 0
2, 14160, Note_on_c, 1, 37, 127
2, 14280, Note_on_c, 1, 37, 0
2, 14280, Note_on_c, 1, 38, 127
2, 14400, Note_on_c, 1, 38, 0
2, 14400, Note_on_c, 1, 35, 127
2, 14520, Note_on_c, 1, 35, 0
2, 14520, Note_on_c, 1, 33, 127
2, 14640, Note_on_c, 1, 33, 0
2, 14640, Note_on_c, 1, 35, 127
2, 15120, Note_on_c, 1, 35, 0
2, 15120, Note_on_c, 1, 37, 127
2, 15360, Note_on_c, 1, 37, 0
2, 15360, Note_on_c, 1, 30, 127
2, 15480, Note_on_c, 1, 30, 0
2, 15600, Note_on_c, 1, 30, 127
2, 16080, Note_on_c, 1, 30, 0
2, 16080, Note_on_c, 1, 30, 127
2, 16320, Note_on_c, 1, 30, 0
2, 16320, Note_on_c, 1, 37, 127
2, 16440, Note_on_c, 1, 37, 0
2, 16440, Note_on_c, 1, 37, 127
2, 16560, Note_on_c, 1, 37, 0
2, 16560, Note_on_c, 1, 37, 127
2, 16800, Note_on_c, 1, 37, 0
2, 16800, Note_on_c, 1, 37, 127
2, 16920, Note_on_c, 1, 37, 0
2, 17040, Note_on_c, 1, 38, 127
2, 17280, Note_on_c, 1, 38, 0
2, 17280, Note_on_c, 1, 35, 127
2, 17760, Note_on_c, 1, 35, 0
2, 17760, Note_on_c, 1, 47, 127
2, 18000, Note_on_c, 1, 47, 0
2, 18000, Note_on_c, 1, 42, 127
2, 18240, Note_on_c, 1, 42, 0
2, 18240, Note_on_c, 1, 47, 127
2, 18720, Note_on_c, 1, 47, 0
2, 18720, Note_on_c, 1, 42, 127
2, 18941, Pitch_bend_c, 1, 8192
2, 18945, Pitch_bend_c, 1, 8064
2, 18950, Pitch_bend_c, 1, 7936
2, 18955, Pitch_bend_c, 1, 7808
2, 18960, Pitch_bend_c, 1, 7552
2, 18965, Pitch_bend_c, 1, 7424
2, 18969, Pitch_bend_c, 1, 7296
2, 18974, Pitch_bend_c, 1, 7168
2, 18979, Pitch_bend_c, 1, 6912
2, 18984, Pitch_bend_c, 1, 6784
2, 18989, Pitch_bend_c, 1, 6656
2, 18993, Pitch_bend_c, 1, 6528
2, 18998, Pitch_bend_c, 1, 6272
2, 19003, Pitch_bend_c, 1, 6144
2, 19008, Pitch_bend_c, 1, 6016
2, 19013, Pitch_bend_c, 1, 5888
2, 19017, Pitch_bend_c, 1, 5632
2, 19022, Pitch_bend_c, 1, 5504
2, 19027, Pitch_bend_c, 1, 5376
2, 19032, Pitch_bend_c, 1, 5248
2, 19037, Pitch_bend_c, 1, 4992
2, 19041, Pitch_bend_c, 1, 4864
2, 19046, Pitch_bend_c, 1, 4736
2, 19051, Pitch_bend_c, 1, 4608
2, 19056, Pitch_bend_c, 1, 4352
2, 19061, Pitch_bend_c, 1, 4224
2, 19065, Pitch_bend_c, 1, 4096
2, 19070, Pitch_bend_c, 1, 3840
2, 19075, Pitch_bend_c, 1, 3712
2, 19080, Pitch_bend_c, 1, 3584
2, 19085, Pitch_bend_c, 1, 3456
2, 19089, Pitch_bend_c, 1, 3200
2, 19094, Pitch_bend_c, 1, 3072
2, 19099, Pitch_bend_c, 1, 2944
2, 19104, Pitch_bend_c, 1, 2816
2, 19109, Pitch_bend_c, 1, 2560
2, 19113, Pitch_bend_c, 1, 2432
2, 19118, Pitch_bend_c, 1, 2304
2, 19123, Pitch_bend_c, 1, 2176
2, 19128, Pitch_bend_c, 1, 1920
2, 19133, Pitch_bend_c, 1, 1792
2, 19137, Pitch_bend_c, 1, 1664
2, 19142, Pitch_bend_c, 1, 1536
2, 19147, Pitch_bend_c, 1, 1280
2, 19152, Pitch_bend_c, 1, 1152
2, 19157, Pitch_bend_c, 1, 1024
2, 19161, Pitch_bend_c, 1, 896
2, 19166, Pitch_bend_c, 1, 640
2, 19171, Pitch_bend_c, 1, 512
2, 19176, Pitch_bend_c, 1, 384
2, 19181, Pitch_bend_c, 1, 128
2, 19195, Pitch_bend_c, 1, 8192
2, 19200, Note_on_c, 1, 42, 0
2, 19200, Note_on_c, 1, 30, 127
2, 19440, Note_on_c, 1, 30, 0
2, 19440, Note_on_c, 1, 30, 127
2, 19680, Note_on_c, 1, 30, 0
2, 19680, Note_on_c, 1, 30, 127
2, 19920, Note_on_c, 1, 30, 0
2, 20160, Note_on_c, 1, 30, 127
2, 20280, Note_on_c, 1, 30, 0
2, 20280, Note_on_c, 1, 30, 127
2, 20400, Note_on_c, 1, 30, 0
2, 20400, Note_on_c, 1, 30, 127
2, 20640, Note_on_c, 1, 30, 0
2, 20640, Note_on_c, 1, 33, 127
2, 20760, Note_on_c, 1, 33, 0
2, 20760, Note_on_c, 1, 33, 127
2, 20880, Note_on_c, 1, 33, 0
2, 20880, Note_on_c, 1, 33, 127
2, 21120, Note_on_c, 1, 33, 0
2, 21120, Note_on_c, 1, 35, 127
2, 21240, Note_on_c, 1, 35, 0
2, 21360, Note_on_c, 1, 35, 127
2, 21600, Note_on_c, 1, 35, 0
2, 21600, Note_on_c, 1, 35, 127
2, 21720, Note_on_c, 1, 35, 0
2, 21840, Note_on_c, 1, 33, 127
2, 22080, Note_on_c, 1, 33, 0
2, 22080, Note_on_c, 1, 35, 127
2, 22200, Note_on_c, 1, 35, 0
2, 22200, Note_on_c, 1, 35, 127
2, 22320, Note_on_c, 1, 35, 0
2, 22320, Note_on_c, 1, 35, 127
2, 22560, Note_on_c, 1, 35, 0
2, 22560, Note_on_c, 1, 42, 127
2, 22800, Note_on_c, 1, 42, 0
2, 22800, Note_on_c, 1, 35, 127
2, 22980, Note_on_c, 1, 35, 0
2, 22980, Note_on_c, 1, 28, 127
2, 23040, Note_on_c, 1, 28, 0
2, 23040, Note_on_c, 1, 30, 127
2, 23280, Note_on_c, 1, 30, 0
2, 23280, Note_on_c, 1, 30, 127
2, 23520, Note_on_c, 1, 30, 0
2, 23520, Note_on_c, 1, 30, 127
2, 23760, Note_on_c, 1, 30, 0
2, 24000, Note_on_c, 1, 30, 127
2, 24120, Note_on_c, 1, 30, 0
2, 24240, Note_on_c, 1, 30, 127
2, 24480, Note_on_c, 1, 30, 0
2, 24480, Note_on_c, 1, 33, 127
2, 24600, Note_on_c, 1, 33, 0
2, 24720, Note_on_c, 1, 33, 127
2, 24960, Note_on_c, 1, 33, 0
2, 24960, Note_on_c, 1, 35, 127
2, 25080, Note_on_c, 1, 35, 0
2, 25200, Note_on_c, 1, 35, 127
2, 25440, Note_on_c, 1, 35, 0
2, 25440, Note_on_c, 1, 35, 127
2, 25680, Note_on_c, 1, 35, 0
2, 25680, Note_on_c, 1, 33, 127
2, 25920, Note_on_c, 1, 33, 0
2, 25920, Note_on_c, 1, 35, 127
2, 26040, Note_on_c, 1, 35, 0
2, 26040, Note_on_c, 1, 35, 127
2, 26160, Note_on_c, 1, 35, 0
2, 26160, Note_on_c, 1, 35, 127
2, 26400, Note_on_c, 1, 35, 0
2, 26400, Note_on_c, 1, 35, 127
2, 26520, Note_on_c, 1, 35, 0
2, 26520, Note_on_c, 1, 33, 127
2, 26640, Note_on_c, 1, 33, 0
2, 26640, Note_on_c, 1, 37, 127
2, 26880, Note_on_c, 1, 37, 0
2, 26880, Note_on_c, 1, 30, 127
2, 27000, Note_on_c, 1, 30, 0
2, 27120, Note_on_c, 1, 30, 127
2, 27360, Note_on_c, 1, 30, 0
2, 27360, Note_on_c, 1, 30, 127
2, 27480, Note_on_c, 1, 30, 0
2, 27600, Note_on_c, 1, 28, 127
2, 27840, Note_on_c, 1, 28, 0
2, 27840, Note_on_c, 1, 30, 127
2, 27960, Note_on_c, 1, 30, 0
2, 27960, Note_on_c, 1, 30, 127
2, 28080, Note_on_c, 1, 30, 0
2, 28080, Note_on_c, 1, 30, 127
2, 28320, Note_on_c, 1, 30, 0
2, 28320, Note_on_c, 1, 33, 127
2, 28440, Note_on_c, 1, 33, 0
2, 28560, Note_on_c, 1, 33, 127
2, 28800, Note_on_c, 1, 33, 0
2, 28800, Note_on_c, 1, 35, 127
2, 28920, Note_on_c, 1, 35, 0
2, 29040, Note_on_c, 1, 35, 127
2, 29280, Note_on_c, 1, 35, 0
2, 29280, Note_on_c, 1, 35, 127
2, 29520, Note_on_c, 1, 35, 0
2, 29520, Note_on_c, 1, 37, 127
2, 29640, Note_on_c, 1, 37, 0
2, 29640, Note_on_c, 1, 38, 127
2, 29760, Note_on_c, 1, 38, 0
2, 29760, Note_on_c, 1, 35, 127
2, 29880, Note_on_c, 1, 35, 0
2, 29880, Note_on_c, 1, 33, 127
2, 30000, Note_on_c, 1, 33, 0
2, 30000, Note_on_c, 1, 35, 127
2, 30480, Note_on_c, 1, 35, 0
2, 30480, Note_on_c, 1, 37, 127
2, 30720, Note_on_c, 1, 37, 0
2, 30720, Note_on_c, 1, 30, 127
2, 30840, Note_on_c, 1, 30, 0
2, 30960, Note_on_c, 1, 30, 127
2, 31440, Note_on_c, 1, 30, 0
2, 31440, Note_on_c, 1, 30, 127
2, 31680, Note_on_c, 1, 30, 0
2, 31680, Note_on_c, 1, 37, 127
2, 31800, Note_on_c, 1, 37, 0
2, 31800, Note_on_c, 1, 37, 127
2, 31920, Note_on_c, 1, 37, 0
2, 31920, Note_on_c, 1, 37, 127
2, 32160, Note_on_c, 1, 37, 0
2, 32160, Note_on_c, 1, 37, 127
2, 32280, Note_on_c, 1, 37, 0
2, 32400, Note_on_c, 1, 38, 127
2, 32640, Note_on_c, 1, 38, 0
2, 32640, Note_on_c, 1, 35, 127
2, 33120, Note_on_c, 1, 35, 0
2, 33120, Note_on_c, 1, 47, 127
2, 33360, Note_on_c, 1, 47, 0
2, 33360, Note_on_c, 1, 42, 127
2, 33600, Note_on_c, 1, 42, 0
2, 33600, Note_on_c, 1, 47, 127
2, 34080, Note_on_c, 1, 47, 0
2, 34080, Note_on_c, 1, 42, 127
2, 34320, Pitch_bend_c, 1, 7936
2, 34400, Pitch_bend_c, 1, 7680
2, 34480, Pitch_bend_c, 1, 7424
2, 34560, Note_on_c, 1, 42, 0
2, 34560, Note_on_c, 1, 38, 127
2, 34560, Pitch_bend_c, 1, 8192
2, 34560, Pitch_bend_c, 1, 8192
2, 34800, Note_on_c, 1, 38, 0
2, 34800, Note_on_c, 1, 38, 127
2, 35040, Note_on_c, 1, 38, 0
2, 35040, Note_on_c, 1, 38, 127
2, 35280, Note_on_c, 1, 38, 0
2, 35280, Note_on_c, 1, 42, 127
2, 35295, Pitch_bend_c, 1, 8320
2, 35310, Pitch_bend_c, 1, 8448
2, 35325, Pitch_bend_c, 1, 8576
2, 35340, Pitch_bend_c, 1, 8704
2, 35355, Pitch_bend_c, 1, 8832
2, 35370, Pitch_bend_c, 1, 8960
2, 35385, Pitch_bend_c, 1, 9088
2, 35400, Pitch_bend_c, 1, 9216
2, 35520, Note_on_c, 1, 42, 0
2, 35520, Note_on_c, 1, 38, 127
2, 35520, Pitch_bend_c, 1, 8192
2, 35520, Pitch_bend_c, 1, 8192
2, 35760, Note_on_c, 1, 38, 0
2, 35760, Note_on_c, 1, 38, 127
2, 36000, Note_on_c, 1, 38, 0
2, 36000, Note_on_c, 1, 42, 127
2, 36015, Pitch_bend_c, 1, 8320
2, 36030, Pitch_bend_c, 1, 8448
2, 36045, Pitch_bend_c, 1, 8576
2, 36060, Pitch_bend_c, 1, 8704
2, 36075, Pitch_bend_c, 1, 8832
2, 36090, Pitch_bend_c, 1, 8960
2, 36105, Pitch_bend_c, 1, 9088
2, 36120, Pitch_bend_c, 1, 9216
2, 36240, Note_on_c, 1, 42, 0
2, 36240, Note_on_c, 1, 38, 127
2, 36240, Pitch_bend_c, 1, 8192
2, 36240, Pitch_bend_c, 1, 8192
2, 36480, Note_on_c, 1, 38, 0
2, 36480, Note_on_c, 1, 38, 127
2, 36660, Note_on_c, 1, 38, 0
2, 36660, Note_on_c, 1, 33, 127
2, 36720, Note_on_c, 1, 33, 0
2, 36720, Note_on_c, 1, 38, 127
2, 36960, Note_on_c, 1, 38, 0
2, 36960, Note_on_c, 1, 42, 127
2, 36975, Pitch_bend_c, 1, 8320
2, 36990, Pitch_bend_c, 1, 8448
2, 37005, Pitch_bend_c, 1, 8576
2, 37020, Pitch_bend_c, 1, 8704
2, 37035, Pitch_bend_c, 1, 8832
2, 37050, Pitch_bend_c, 1, 8960
2, 37065, Pitch_bend_c, 1, 9088
2, 37080, Pitch_bend_c, 1, 9216
2, 37200, Note_on_c, 1, 42, 0
2, 37200, Pitch_bend_c, 1, 8192
2, 37200, Note_on_c, 1, 38, 127
2, 37200, Pitch_bend_c, 1, 8192
2, 37440, Note_on_c, 1, 38, 0
2, 37440, Note_on_c, 1, 38, 127
2, 37620, Note_on_c, 1, 38, 0
2, 37620, Note_on_c, 1, 33, 127
2, 37680, Note_on_c, 1, 33, 0
2, 37680, Note_on_c, 1, 38, 127
2, 37881, Pitch_bend_c, 1, 8192
2, 37920, Note_on_c, 1, 38, 0
2, 37920, Pitch_bend_c, 1, 8192
2, 37920, Note_on_c, 1, 42, 127
2, 37934, Pitch_bend_c, 1, 8320
2, 37948, Pitch_bend_c, 1, 8448
2, 37958, Pitch_bend_c, 1, 8576
2, 37972, Pitch_bend_c, 1, 8704
2, 37987, Pitch_bend_c, 1, 8832
2, 37996, Pitch_bend_c, 1, 8960
2, 38011, Pitch_bend_c, 1, 9088
2, 38020, Pitch_bend_c, 1, 9216
2, 38160, Note_on_c, 1, 42, 0
2, 38160, Note_on_c, 1, 38, 127
2, 38160, Pitch_bend_c, 1, 8192
2, 38400, Note_on_c, 1, 38, 0
2, 38400, Note_on_c, 1, 35, 127
2, 38520, Note_on_c, 1, 35, 0
2, 38640, Note_on_c, 1, 35, 127
2, 38880, Note_on_c, 1, 35, 0
2, 38880, Note_on_c, 1, 33, 127
2, 39000, Note_on_c, 1, 33, 0
2, 39120, Note_on_c, 1, 35, 127
2, 39360, Note_on_c, 1, 35, 0
2, 39360, Note_on_c, 1, 35, 127
2, 39480, Note_on_c, 1, 35, 0
2, 39600, Note_on_c, 1, 35, 127
2, 39840, Note_on_c, 1, 35, 0
2, 39840, Note_on_c, 1, 30, 127
2, 39855, Pitch_bend_c, 1, 8320
2, 39870, Pitch_bend_c, 1, 8448
2, 39885, Pitch_bend_c, 1, 8576
2, 39900, Pitch_bend_c, 1, 8704
2, 39915, Pitch_bend_c, 1, 8832
2, 39930, Pitch_bend_c, 1, 8960
2, 39945, Pitch_bend_c, 1, 9088
2, 39960, Pitch_bend_c, 1, 9216
2, 40080, Note_on_c, 1, 30, 0
2, 40080, Pitch_bend_c, 1, 8192
2, 40080, Note_on_c, 1, 35, 127
2, 40080, Pitch_bend_c, 1, 8192
2, 40320, Note_on_c, 1, 35, 0
2, 40320, Note_on_c, 1, 35, 127
2, 40500, Note_on_c, 1, 35, 0
2, 40500, Note_on_c, 1, 30, 127
2, 40560, Note_on_c, 1, 30, 0
2, 40560, Note_on_c, 1, 35, 127
2, 40800, Note_on_c, 1, 35, 0
2, 40800, Note_on_c, 1, 33, 127
2, 40920, Note_on_c, 1, 33, 0
2, 41040, Note_on_c, 1, 35, 127
2, 41280, Note_on_c, 1, 35, 0
2, 41280, Note_on_c, 1, 35, 127
2, 41460, Note_on_c, 1, 35, 0
2, 41460, Note_on_c, 1, 30, 127
2, 41520, Note_on_c, 1, 30, 0
2, 41520, Note_on_c, 1, 35, 127
2, 41760, Note_on_c, 1, 35, 0
2, 41760, Note_on_c, 1, 42, 127
2, 42000, Note_on_c, 1, 42, 0
2, 42000, Note_on_c, 1, 35, 127
2, 42240, Note_on_c, 1, 35, 0
2, 42240, Note_on_c, 1, 38, 127
2, 42240, Pitch_bend_c, 1, 8192
2, 42240, Pitch_bend_c, 1, 8192
2, 42480, Note_on_c, 1, 38, 0
2, 42480, Note_on_c, 1, 38, 127
2, 42720, Note_on_c, 1, 38, 0
2, 42720, Note_on_c, 1, 33, 127
2, 42960, Note_on_c, 1, 33, 0
2, 42960, Note_on_c, 1, 35, 127
2, 43200, Note_on_c, 1, 35, 0
2, 43200, Note_on_c, 1, 38, 127
2, 43380, Note_on_c, 1, 38, 0
2, 43380, Note_on_c, 1, 33, 127
2, 43440, Note_on_c, 1, 33, 0
2, 43440, Note_on_c, 1, 38, 127
2, 43680, Note_on_c, 1, 38, 0
2, 43680, Note_on_c, 1, 42, 127
2, 43695, Pitch_bend_c, 1, 8320
2, 43710, Pitch_bend_c, 1, 8448
2, 43725, Pitch_bend_c, 1, 8576
2, 43740, Pitch_bend_c, 1, 8704
2, 43755, Pitch_bend_c, 1, 8832
2, 43770, Pitch_bend_c, 1, 8960
2, 43785, Pitch_bend_c, 1, 9088
2, 43800, Pitch_bend_c, 1, 9216
2, 43920, Note_on_c, 1, 42, 0
2, 43920, Pitch_bend_c, 1, 8192
2, 43920, Note_on_c, 1, 38, 127
2, 43920, Pitch_bend_c, 1, 8192
2, 44160, Note_on_c, 1, 38, 0
2, 44160, Note_on_c, 1, 38, 127
2, 44340, Note_on_c, 1, 38, 0
2, 44340, Note_on_c, 1, 33, 127
2, 44400, Note_on_c, 1, 33, 0
2, 44400, Note_on_c, 1, 38, 127
2, 44640, Note_on_c, 1, 38, 0
2, 44640, Note_on_c, 1, 42, 127
2, 44655, Pitch_bend_c, 1, 8320
2, 44670, Pitch_bend_c, 1, 8448
2, 44685, Pitch_bend_c, 1, 8576
2, 44700, Pitch_bend_c, 1, 8704
2, 44715, Pitch_bend_c, 1, 8832
2, 44730, Pitch_bend_c, 1, 8960
2, 44745, Pitch_bend_c, 1, 9088
2, 44760, Pitch_bend_c, 1, 9216
2, 44880, Note_on_c, 1, 42, 0
2, 44880, Note_on_c, 1, 38, 127
2, 44880, Pitch_bend_c, 1, 8192
2, 44880, Pitch_bend_c, 1, 8192
2, 45120, Note_on_c, 1, 38, 0
2, 45120, Note_on_c, 1, 38, 127
2, 45300, Note_on_c, 1, 38, 0
2, 45300, Note_on_c, 1, 33, 127
2, 45360, Note_on_c, 1, 33, 0
2, 45360, Note_on_c, 1, 38, 127
2, 45600, Note_on_c, 1, 38, 0
2, 45600, Note_on_c, 1, 40, 127
2, 45840, Note_on_c, 1, 40, 0
2, 45840, Note_on_c, 1, 38, 127
2, 46080, Note_on_c, 1, 38, 0
2, 46080, Note_on_c, 1, 35, 127
2, 46560, Note_on_c, 1, 35, 0
2, 46560, Note_on_c, 1, 30, 127
2, 46680, Note_on_c, 1, 30, 0
2, 46800, Note_on_c, 1, 33, 127
2, 47040, Note_on_c, 1, 33, 0
2, 47040, Note_on_c, 1, 35, 127
2, 47520, Note_on_c, 1, 35, 0
2, 47520, Note_on_c, 1, 42, 127
2, 47535, Pitch_bend_c, 1, 8320
2, 47550, Pitch_bend_c, 1, 8448
2, 47565, Pitch_bend_c, 1, 8576
2, 47580, Pitch_bend_c, 1, 8704
2, 47595, Pitch_bend_c, 1, 8832
2, 47610, Pitch_bend_c, 1, 8960
2, 47625, Pitch_bend_c, 1, 9088
2, 47640, Pitch_bend_c, 1, 9216
2, 47760, Note_on_c, 1, 42, 0
2, 47760, Note_on_c, 1, 33, 127
2, 47760, Pitch_bend_c, 1, 8192
2, 47760, Pitch_bend_c, 1, 8192
2, 48000, Note_on_c, 1, 33, 0
2, 48000, Note_on_c, 1, 35, 127
2, 48480, Note_on_c, 1, 35, 0
2, 48480, Note_on_c, 1, 30, 127
2, 48600, Note_on_c, 1, 30, 0
2, 48720, Note_on_c, 1, 33, 127
2, 48960, Note_on_c, 1, 33, 0
2, 48960, Note_on_c, 1, 35, 127
2, 49440, Note_on_c, 1, 35, 0
2, 49440, Note_on_c, 1, 38, 100
2, 49920, Note_on_c, 1, 38, 0
2, 49920, Note_on_c, 1, 30, 100
2, 50400, Note_on_c, 1, 30, 0
2, 53760, Note_on_c, 1, 30, 127
2, 54000, Note_on_c, 1, 30, 0
2, 54000, Note_on_c, 1, 30, 127
2, 54240, Note_on_c, 1, 30, 0
2, 54240, Note_on_c, 1, 30, 127
2, 54480, Note_on_c, 1, 30, 0
2, 54720, Note_on_c, 1, 30, 127
2, 54840, Note_on_c, 1, 30, 0
2, 54840, Note_on_c, 1, 30, 127
2, 54960, Note_on_c, 1, 30, 0
2, 54960, Note_on_c, 1, 30, 127
2, 55200, Note_on_c, 1, 30, 0
2, 55200, Note_on_c, 1, 33, 127
2, 55320, Note_on_c, 1, 33, 0
2, 55320, Note_on_c, 1, 33, 127
2, 55440, Note_on_c, 1, 33, 0
2, 55440, Note_on_c, 1, 33, 127
2, 55680, Note_on_c, 1, 33, 0
2, 55680, Note_on_c, 1, 35, 127
2, 55800, Note_on_c, 1, 35, 0
2, 55920, Note_on_c, 1, 35, 127
2, 56160, Note_on_c, 1, 35, 0
2, 56160, Note_on_c, 1, 35, 127
2, 56280, Note_on_c, 1, 35, 0
2, 56400, Note_on_c, 1, 33, 127
2, 56640, Note_on_c, 1, 33, 0
2, 56640, Note_on_c, 1, 35, 127
2, 56760, Note_on_c, 1, 35, 0
2, 56760, Note_on_c, 1, 35, 127
2, 56880, Note_on_c, 1, 35, 0
2, 56880, Note_on_c, 1, 35, 127
2, 57120, Note_on_c, 1, 35, 0
2, 57120, Note_on_c, 1, 42, 127
2, 57360, Note_on_c, 1, 42, 0
2, 57360, Note_on_c, 1, 35, 127
2, 57540, Note_on_c, 1, 35, 0
2, 57540, Note_on_c, 1, 28, 127
2, 57600, Note_on_c, 1, 28, 0
2, 57600, Note_on_c, 1, 30, 127
2, 57840, Note_on_c, 1, 30, 0
2, 57840, Note_on_c, 1, 30, 127
2, 58080, Note_on_c, 1, 30, 0
2, 58080, Note_on_c, 1, 30, 127
2, 58320, Note_on_c, 1, 30, 0
2, 58560, Note_on_c, 1, 30, 127
2, 58680, Note_on_c, 1, 30, 0
2, 58800, Note_on_c, 1, 30, 127
2, 59040, Note_on_c, 1, 30, 0
2, 59040, Note_on_c, 1, 33, 127
2, 59160, Note_on_c, 1, 33, 0
2, 59280, Note_on_c, 1, 33, 127
2, 59520, Note_on_c, 1, 33, 0
2, 59520, Note_on_c, 1, 35, 127
2, 59640, Note_on_c, 1, 35, 0
2, 59760, Note_on_c, 1, 35, 127
2, 60000, Note_on_c, 1, 35, 0
2, 60000, Note_on_c, 1, 35, 127
2, 60240, Note_on_c, 1, 35, 0
2, 60240, Note_on_c, 1, 33, 127
2, 60480, Note_on_c, 1, 33, 0
2, 60480, Note_on_c, 1, 35, 127
2, 60600, Note_on_c, 1, 35, 0
2, 60600, Note_on_c, 1, 35, 127
2, 60720, Note_on_c, 1, 35, 0
2, 60720, Note_on_c, 1, 35, 127
2, 60960, Note_on_c, 1, 35, 0
2, 60960, Note_on_c, 1, 35, 127
2, 61080, Note_on_c, 1, 35, 0
2, 61080, Note_on_c, 1, 33, 127
2, 61200, Note_on_c, 1, 33, 0
2, 61200, Note_on_c, 1, 37, 127
2, 61440, Note_on_c, 1, 37, 0
2, 61440, Note_on_c, 1, 30, 127
2, 61680, Note_on_c, 1, 30, 0
2, 61680, Note_on_c, 1, 30, 127
2, 61920, Note_on_c, 1, 30, 0
2, 61920, Note_on_c, 1, 30, 127
2, 62160, Note_on_c, 1, 30, 0
2, 62400, Note_on_c, 1, 30, 127
2, 62520, Note_on_c, 1, 30, 0
2, 62520, Note_on_c, 1, 30, 127
2, 62640, Note_on_c, 1, 30, 0
2, 62640, Note_on_c, 1, 30, 127
2, 62880, Note_on_c, 1, 30, 0
2, 62880, Note_on_c, 1, 33, 127
2, 63000, Note_on_c, 1, 33, 0
2, 63000, Note_on_c, 1, 33, 127
2, 63120, Note_on_c, 1, 33, 0
2, 63120, Note_on_c, 1, 33, 127
2, 63360, Note_on_c, 1, 33, 0
2, 63360, Note_on_c, 1, 35, 127
2, 63480, Note_on_c, 1, 35, 0
2, 63600, Note_on_c, 1, 35, 127
2, 63840, Note_on_c, 1, 35, 0
2, 63840, Note_on_c, 1, 35, 127
2, 63960, Note_on_c, 1, 35, 0
2, 64080, Note_on_c, 1, 33, 127
2, 64320, Note_on_c, 1, 33, 0
2, 64320, Note_on_c, 1, 35, 127
2, 64440, Note_on_c, 1, 35, 0
2, 64440, Note_on_c, 1, 35, 127
2, 64560, Note_on_c, 1, 35, 0
2, 64560, Note_on_c, 1, 35, 127
2, 64800, Note_on_c, 1, 35, 0
2, 64800, Note_on_c, 1, 42, 127
2, 65040, Note_on_c, 1, 42, 0
2, 65040, Note_on_c, 1, 35, 127
2, 65220, Note_on_c, 1, 35, 0
2, 65220, Note_on_c, 1, 28, 127
2, 65280, Note_on_c, 1, 28, 0
2, 65280, Note_on_c, 1, 30, 127
2, 65520, Note_on_c, 1, 30, 0
2, 65520, Note_on_c, 1, 30, 127
2, 65760, Note_on_c, 1, 30, 0
2, 65760, Note_on_c, 1, 30, 127
2, 66000, Note_on_c, 1, 30, 0
2, 66240, Note_on_c, 1, 30, 127
2, 66360, Note_on_c, 1, 30, 0
2, 66480, Note_on_c, 1, 30, 127
2, 66720, Note_on_c, 1, 30, 0
2, 66720, Note_on_c, 1, 33, 127
2, 66840, Note_on_c, 1, 33, 0
2, 66960, Note_on_c, 1, 33, 127
2, 67200, Note_on_c, 1, 33, 0
2, 67200, Note_on_c, 1, 35, 127
2, 67320, Note_on_c, 1, 35, 0
2, 67440, Note_on_c, 1, 35, 127
2, 67680, Note_on_c, 1, 35, 0
2, 67680, Note_on_c, 1, 35, 127
2, 67920, Note_on_c, 1, 35, 0
2, 67920, Note_on_c, 1, 33, 127
2, 68160, Note_on_c, 1, 33, 0
2, 68160, Note_on_c, 1, 35, 127
2, 68280, Note_on_c, 1, 35, 0
2, 68280, Note_on_c, 1, 35, 127
2, 68400, Note_on_c, 1, 35, 0
2, 68400, Note_on_c, 1, 35, 127
2, 68640, Note_on_c, 1, 35, 0
2, 68640, Note_on_c, 1, 35, 127
2, 68760, Note_on_c, 1, 35, 0
2, 68760, Note_on_c, 1, 33, 127
2, 68880, Note_on_c, 1, 33, 0
2, 68880, Note_on_c, 1, 37, 127
2, 69120, Note_on_c, 1, 37, 0
2, 69120, Note_on_c, 1, 30, 127
2, 69240, Note_on_c, 1, 30, 0
2, 69360, Note_on_c, 1, 30, 127
2, 69600, Note_on_c, 1, 30, 0
2, 69600, Note_on_c, 1, 30, 127
2, 69720, Note_on_c, 1, 30, 0
2, 69840, Note_on_c, 1, 28, 127
2, 70080, Note_on_c, 1, 28, 0
2, 70080, Note_on_c, 1, 30, 127
2, 70200, Note_on_c, 1, 30, 0
2, 70200, Note_on_c, 1, 30, 127
2, 70320, Note_on_c, 1, 30, 0
2, 70320, Note_on_c, 1, 30, 127
2, 70560, Note_on_c, 1, 30, 0
2, 70560, Note_on_c, 1, 33, 127
2, 70680, Note_on_c, 1, 33, 0
2, 70800, Note_on_c, 1, 33, 127
2, 71040, Note_on_c, 1, 33, 0
2, 71040, Note_on_c, 1, 35, 127
2, 71160, Note_on_c, 1, 35, 0
2, 71280, Note_on_c, 1, 35, 127
2, 71520, Note_on_c, 1, 35, 0
2, 71520, Note_on_c, 1, 35, 127
2, 71760, Note_on_c, 1, 35, 0
2, 71760, Note_on_c, 1, 37, 127
2, 71880, Note_on_c, 1, 37, 0
2, 71880, Note_on_c, 1, 38, 127
2, 72000, Note_on_c, 1, 38, 0
2, 72000, Note_on_c, 1, 35, 127
2, 72120, Note_on_c, 1, 35, 0
2, 72120, Note_on_c, 1, 33, 127
2, 72240, Note_on_c, 1, 33, 0
2, 72240, Note_on_c, 1, 35, 127
2, 72720, Note_on_c, 1, 35, 0
2, 72720, Note_on_c, 1, 37, 127
2, 72960, Note_on_c, 1, 37, 0
2, 72960, Note_on_c, 1, 30, 127
2, 73080, Note_on_c, 1, 30, 0
2, 73200, Note_on_c, 1, 30, 127
2, 73680, Note_on_c, 1, 30, 0
2, 73680, Note_on_c, 1, 30, 127
2, 73920, Note_on_c, 1, 30, 0
2, 73920, Note_on_c, 1, 37, 127
2, 74040, Note_on_c, 1, 37, 0
2, 74040, Note_on_c, 1, 37, 127
2, 74160, Note_on_c, 1, 37, 0
2, 74160, Note_on_c, 1, 37, 127
2, 74400, Note_on_c, 1, 37, 0
2, 74400, Note_on_c, 1, 37, 127
2, 74520, Note_on_c, 1, 37, 0
2, 74640, Note_on_c, 1, 38, 127
2, 74880, Note_on_c, 1, 38, 0
2, 74880, Note_on_c, 1, 35, 127
2, 75360, Note_on_c, 1, 35, 0
2, 75360, Note_on_c, 1, 47, 127
2, 75600, Note_on_c, 1, 47, 0
2, 75600, Note_on_c, 1, 42, 127
2, 75840, Note_on_c, 1, 42, 0
2, 75840, Note_on_c, 1, 47, 127
2, 76320, Note_on_c, 1, 47, 0
2, 76320, Note_on_c, 1, 42, 127
2, 76560, Pitch_bend_c, 1, 7936
2, 76640, Pitch_bend_c, 1, 7680
2, 76720, Pitch_bend_c, 1, 7424
2, 76800, Note_on_c, 1, 42, 0
2, 76800, Note_on_c, 1, 38, 127
2, 76800, Pitch_bend_c, 1, 8192
2, 76800, Pitch_bend_c, 1, 8192
2, 77040, Note_on_c, 1, 38, 0
2, 77040, Note_on_c, 1, 38, 127
2, 77280, Note_on_c, 1, 38, 0
2, 77280, Note_on_c, 1, 38, 127
2, 77520, Note_on_c, 1, 38, 0
2, 77520, Note_on_c, 1, 42, 127
2, 77535, Pitch_bend_c, 1, 8320
2, 77550, Pitch_bend_c, 1, 8448
2, 77565, Pitch_bend_c, 1, 8576
2, 77580, Pitch_bend_c, 1, 8704
2, 77595, Pitch_bend_c, 1, 8832
2, 77610, Pitch_bend_c, 1, 8960
2, 77625, Pitch_bend_c, 1, 9088
2, 77640, Pitch_bend_c, 1, 9216
2, 77760, Note_on_c, 1, 42, 0
2, 77760, Pitch_bend_c, 1, 8192
2, 77760, Pitch_bend_c, 1, 8192
2, 77760, Note_on_c, 1, 38, 127
2, 78000, Note_on_c, 1, 38, 0
2, 78000, Note_on_c, 1, 38, 127
2, 78180, Note_on_c, 1, 38, 0
2, 78180, Note_on_c, 1, 33, 127
2, 78240, Note_on_c, 1, 33, 0
2, 78240, Note_on_c, 1, 42, 127
2, 78255, Pitch_bend_c, 1, 8320
2, 78270, Pitch_bend_c, 1, 8448
2, 78285, Pitch_bend_c, 1, 8576
2, 78300, Pitch_bend_c, 1, 8704
2, 78315, Pitch_bend_c, 1, 8832
2, 78330, Pitch_bend_c, 1, 8960
2, 78345, Pitch_bend_c, 1, 9088
2, 78360, Pitch_bend_c, 1, 9216
2, 78480, Note_on_c, 1, 42, 0
2, 78480, Pitch_bend_c, 1, 8192
2, 78480, Pitch_bend_c, 1, 8192
2, 78480, Note_on_c, 1, 38, 127
2, 78720, Note_on_c, 1, 38, 0
2, 78720, Note_on_c, 1, 38, 127
2, 78900, Note_on_c, 1, 38, 0
2, 78900, Note_on_c, 1, 33, 127
2, 78960, Note_on_c, 1, 33, 0
2, 78960, Note_on_c, 1, 38, 127
2, 79200, Note_on_c, 1, 38, 0
2, 79200, Note_on_c, 1, 42, 127
2, 79215, Pitch_bend_c, 1, 8320
2, 79230, Pitch_bend_c, 1, 8448
2, 79245, Pitch_bend_c, 1, 8576
2, 79260, Pitch_bend_c, 1, 8704
2, 79275, Pitch_bend_c, 1, 8832
2, 79290, Pitch_bend_c, 1, 8960
2, 79305, Pitch_bend_c, 1, 9088
2, 79320, Pitch_bend_c, 1, 9216
2, 79440, Note_on_c, 1, 42, 0
2, 79440, Note_on_c, 1, 38, 127
2, 79440, Pitch_bend_c, 1, 8192
2, 79440, Pitch_bend_c, 1, 8192
2, 79680, Note_on_c, 1, 38, 0
2, 79680, Note_on_c, 1, 38, 127
2, 79860, Note_on_c, 1, 38, 0
2, 79860, Note_on_c, 1, 33, 127
2, 79920, Note_on_c, 1, 33, 0
2, 79920, Note_on_c, 1, 38, 127
2, 80100, Note_on_c, 1, 38, 0
2, 80100, Note_on_c, 1, 38, 127
2, 80130, Pitch_bend_c, 1, 8448
2, 80160, Note_on_c, 1, 38, 0
2, 80160, Note_on_c, 1, 40, 127
2, 80160, Pitch_bend_c, 1, 8192
2, 80160, Pitch_bend_c, 1, 8192
2, 80400, Note_on_c, 1, 40, 0
2, 80400, Note_on_c, 1, 38, 127
2, 80640, Note_on_c, 1, 38, 0
2, 80640, Note_on_c, 1, 35, 127
2, 80880, Note_on_c, 1, 35, 0
2, 80880, Note_on_c, 1, 35, 127
2, 81120, Note_on_c, 1, 35, 0
2, 81120, Note_on_c, 1, 30, 127
2, 81240, Note_on_c, 1, 30, 0
2, 81360, Note_on_c, 1, 33, 127
2, 81600, Note_on_c, 1, 33, 0
2, 81600, Note_on_c, 1, 35, 127
2, 81840, Note_on_c, 1, 35, 0
2, 81840, Note_on_c, 1, 35, 127
2, 82080, Note_on_c, 1, 35, 0
2, 82080, Note_on_c, 1, 42, 127
2, 82095, Pitch_bend_c, 1, 8320
2, 82110, Pitch_bend_c, 1, 8448
2, 82125, Pitch_bend_c, 1, 8576
2, 82140, Pitch_bend_c, 1, 8704
2, 82155, Pitch_bend_c, 1, 8832
2, 82170, Pitch_bend_c, 1, 8960
2, 82185, Pitch_bend_c, 1, 9088
2, 82200, Pitch_bend_c, 1, 9216
2, 82320, Note_on_c, 1, 42, 0
2, 82320, Pitch_bend_c, 1, 8192
2, 82320, Pitch_bend_c, 1, 8192
2, 82320, Note_on_c, 1, 33, 127
2, 82560, Note_on_c, 1, 33, 0
2, 82560, Note_on_c, 1, 35, 127
2, 82740, Note_on_c, 1, 35, 0
2, 82740, Note_on_c, 1, 30, 127
2, 82800, Note_on_c, 1, 30, 0
2, 82800, Note_on_c, 1, 35, 127
2, 83040, Note_on_c, 1, 35, 0
2, 83040, Note_on_c, 1, 30, 127
2, 83160, Note_on_c, 1, 30, 0
2, 83280, Note_on_c, 1, 33, 127
2, 83520, Note_on_c, 1, 33, 0
2, 83520, Note_on_c, 1, 35, 127
2, 83700, Note_on_c, 1, 35, 0
2, 83700, Note_on_c, 1, 30, 127
2, 83760, Note_on_c, 1, 30, 0
2, 83760, Note_on_c, 1, 35, 127
2, 84000, Note_on_c, 1, 35, 0
2, 84000, Pitch_bend_c, 1, 8192
2, 84000, Note_on_c, 1, 42, 127
2, 84014, Pitch_bend_c, 1, 8320
2, 84028, Pitch_bend_c, 1, 8448
2, 84038, Pitch_bend_c, 1, 8576
2, 84052, Pitch_bend_c, 1, 8704
2, 84062, Pitch_bend_c, 1, 8832
2, 84076, Pitch_bend_c, 1, 8960
2, 84091, Pitch_bend_c, 1, 9088
2, 84100, Pitch_bend_c, 1, 9216
2, 84115, Pitch_bend_c, 1, 9344
2, 84124, Pitch_bend_c, 1, 9472
2, 84220, Pitch_bend_c, 1, 8192
2, 84240, Note_on_c, 1, 42, 0
2, 84240, Note_on_c, 1, 35, 127
2, 84480, Note_on_c, 1, 35, 0
2, 84480, Pitch_bend_c, 1, 8192
2, 84480, Note_on_c, 1, 38, 127
2, 84480, Pitch_bend_c, 1, 8192
2, 84720, Note_on_c, 1, 38, 0
2, 84720, Note_on_c, 1, 38, 127
2, 84960, Note_on_c, 1, 38, 0
2, 84960, Note_on_c, 1, 33, 127
2, 85200, Note_on_c, 1, 33, 0
2, 85200, Note_on_c, 1, 35, 127
2, 85440, Note_on_c, 1, 35, 0
2, 85440, Note_on_c, 1, 38, 127
2, 85620, Note_on_c, 1, 38, 0
2, 85620, Note_on_c, 1, 33, 127
2, 85680, Note_on_c, 1, 33, 0
2, 85680, Note_on_c, 1, 38, 127
2, 85920, Note_on_c, 1, 38, 0
2, 85920, Note_on_c, 1, 42, 127
2, 85935, Pitch_bend_c, 1, 8320
2, 85950, Pitch_bend_c, 1, 8448
2, 85965, Pitch_bend_c, 1, 8576
2, 85980, Pitch_bend_c, 1, 8704
2, 85995, Pitch_bend_c, 1, 8832
2, 86010, Pitch_bend_c, 1, 8960
2, 86025, Pitch_bend_c, 1, 9088
2, 86040, Pitch_bend_c, 1, 9216
2, 86160, Note_on_c, 1, 42, 0
2, 86160, Pitch_bend_c, 1, 8192
2, 86160, Note_on_c, 1, 38, 127
2, 86160, Pitch_bend_c, 1, 8192
2, 86400, Note_on_c, 1, 38, 0
2, 86400, Note_on_c, 1, 38, 127
2, 86580, Note_on_c, 1, 38, 0
2, 86580, Note_on_c, 1, 33, 127
2, 86640, Note_on_c, 1, 33, 0
2, 86640, Note_on_c, 1, 38, 127
2, 86880, Note_on_c, 1, 38, 0
2, 86880, Note_on_c, 1, 42, 127
2, 86895, Pitch_bend_c, 1, 8320
2, 86910, Pitch_bend_c, 1, 8448
2, 86925, Pitch_bend_c, 1, 8576
2, 86940, Pitch_bend_c, 1, 8704
2, 86955, Pitch_bend_c, 1, 8832
2, 86970, Pitch_bend_c, 1, 8960
2, 86985, Pitch_bend_c, 1, 9088
2, 87000, Pitch_bend_c, 1, 9216
2, 87120, Note_on_c, 1, 42, 0
2, 87120, Pitch_bend_c, 1, 8192
2, 87120, Note_on_c, 1, 38, 127
2, 87120, Pitch_bend_c, 1, 8192
2, 87360, Note_on_c, 1, 38, 0
2, 87360, Note_on_c, 1, 38, 127
2, 87600, Note_on_c, 1, 38, 0
2, 87600, Note_on_c, 1, 42, 127
2, 87810, Pitch_bend_c, 1, 8448
2, 87840, Note_on_c, 1, 42, 0
2, 87840, Note_on_c, 1, 38, 127
2, 87840, Pitch_bend_c, 1, 8192
2, 87840, Pitch_bend_c, 1, 8192
2, 88080, Note_on_c, 1, 38, 0
2, 88080, Note_on_c, 1, 40, 127
2, 88320, Note_on_c, 1, 40, 0
2, 88320, Note_on_c, 1, 35, 127
2, 88560, Note_on_c, 1, 35, 0
2, 88560, Note_on_c, 1, 35, 127
2, 88800, Note_on_c, 1, 35, 0
2, 88800, Note_on_c, 1, 35, 127
2, 88920, Note_on_c, 1, 35, 0
2, 88920, Note_on_c, 1, 33, 127
2, 89040, Note_on_c, 1, 33, 0
2, 89040, Note_on_c, 1, 33, 127
2, 89280, Note_on_c, 1, 33, 0
2, 89280, Note_on_c, 1, 35, 127
2, 89760, Note_on_c, 1, 35, 0
2, 89760, Note_on_c, 1, 42, 127
2, 89775, Pitch_bend_c, 1, 8320
2, 89790, Pitch_bend_c, 1, 8448
2, 89805, Pitch_bend_c, 1, 8576
2, 89820, Pitch_bend_c, 1, 8704
2, 89835, Pitch_bend_c, 1, 8832
2, 89850, Pitch_bend_c, 1, 8960
2, 89865, Pitch_bend_c, 1, 9088
2, 89880, Pitch_bend_c, 1, 9216
2, 90000, Note_on_c, 1, 42, 0
2, 90000, Pitch_bend_c, 1, 8192
2, 90000, Pitch_bend_c, 1, 8192
2, 90000, Note_on_c, 1, 33, 127
2, 90240, Note_on_c, 1, 33, 0
2, 90240, Note_on_c, 1, 35, 100
2, 90720, Note_on_c, 1, 35, 0
2, 90720, Note_on_c, 1, 30, 100
2, 90960, Note_on_c, 1, 30, 0
2, 90960, Note_on_c, 1, 33, 100
2, 91200, Note_on_c, 1, 33, 0
2, 91200, Note_on_c, 1, 35, 100
2, 91680, Note_on_c, 1, 35, 0
2, 91680, Note_on_c, 1, 35, 100
2, 91920, Note_on_c, 1, 35, 0
2, 91920, Note_on_c, 1, 38, 100
2, 92160, Note_on_c, 1, 38, 0
2, 92160, Note_on_c, 1, 30, 100
2, 92640, Note_on_c, 1, 30, 0
2, 96000, Note_on_c, 1, 30, 127
2, 96240, Note_on_c, 1, 30, 0
2, 96240, Note_on_c, 1, 30, 127
2, 96480, Note_on_c, 1, 30, 0
2, 96480, Note_on_c, 1, 30, 127
2, 96720, Note_on_c, 1, 30, 0
2, 96960, Note_on_c, 1, 30, 127
2, 97080, Note_on_c, 1, 30, 0
2, 97080, Note_on_c, 1, 30, 127
2, 97200, Note_on_c, 1, 30, 0
2, 97200, Note_on_c, 1, 30, 127
2, 97440, Note_on_c, 1, 30, 0
2, 97440, Note_on_c, 1, 33, 127
2, 97560, Note_on_c, 1, 33, 0
2, 97560, Note_on_c, 1, 33, 127
2, 97680, Note_on_c, 1, 33, 0
2, 97680, Note_on_c, 1, 33, 127
2, 97920, Note_on_c, 1, 33, 0
2, 97920, Note_on_c, 1, 35, 127
2, 98040, Note_on_c, 1, 35, 0
2, 98160, Note_on_c, 1, 35, 127
2, 98400, Note_on_c, 1, 35, 0
2, 98400, Note_on_c, 1, 35, 127
2, 98520, Note_on_c, 1, 35, 0
2, 98640, Note_on_c, 1, 33, 127
2, 98880, Note_on_c, 1, 33, 0
2, 98880, Note_on_c, 1, 35, 127
2, 99000, Note_on_c, 1, 35, 0
2, 99000, Note_on_c, 1, 35, 127
2, 99120, Note_on_c, 1, 35, 0
2, 99120, Note_on_c, 1, 35, 127
2, 99360, Note_on_c, 1, 35, 0
2, 99360, Note_on_c, 1, 42, 127
2, 99600, Note_on_c, 1, 42, 0
2, 99600, Note_on_c, 1, 35, 127
2, 99780, Note_on_c, 1, 35, 0
2, 99780, Note_on_c, 1, 28, 127
2, 99840, Note_on_c, 1, 28, 0
2, 99840, Note_on_c, 1, 30, 127
2, 100080, Note_on_c, 1, 30, 0
2, 100080, Note_on_c, 1, 30, 127
2, 100320, Note_on_c, 1, 30, 0
2, 100320, Note_on_c, 1, 30, 127
2, 100560, Note_on_c, 1, 30, 0
2, 100800, Note_on_c, 1, 30, 127
2, 100920, Note_on_c, 1, 30, 0
2, 101040, Note_on_c, 1, 30, 127
2, 101280, Note_on_c, 1, 30, 0
2, 101280, Note_on_c, 1, 33, 127
2, 101400, Note_on_c, 1, 33, 0
2, 101520, Note_on_c, 1, 33, 127
2, 101760, Note_on_c, 1, 33, 0
2, 101760, Note_on_c, 1, 35, 127
2, 101880, Note_on_c, 1, 35, 0
2, 102000, Note_on_c, 1, 35, 127
2, 102240, Note_on_c, 1, 35, 0
2, 102240, Note_on_c, 1, 35, 127
2, 102480, Note_on_c, 1, 35, 0
2, 102480, Note_on_c, 1, 33, 127
2, 102720, Note_on_c, 1, 33, 0
2, 102720, Note_on_c, 1, 35, 127
2, 102840, Note_on_c, 1, 35, 0
2, 102840, Note_on_c, 1, 35, 127
2, 102960, Note_on_c, 1, 35, 0
2, 102960, Note_on_c, 1, 35, 127
2, 103200, Note_on_c, 1, 35, 0
2, 103200, Note_on_c, 1, 35, 127
2, 103320, Note_on_c, 1, 35, 0
2, 103320, Note_on_c, 1, 33, 127
2, 103440, Note_on_c, 1, 33, 0
2, 103440, Note_on_c, 1, 37, 127
2, 103680, Note_on_c, 1, 37, 0
2, 103680, Note_on_c, 1, 30, 127
2, 103800, Note_on_c, 1, 30, 0
2, 103920, Note_on_c, 1, 30, 127
2, 104160, Note_on_c, 1, 30, 0
2, 104160, Note_on_c, 1, 30, 127
2, 104280, Note_on_c, 1, 30, 0
2, 104400, Note_on_c, 1, 28, 127
2, 104640, Note_on_c, 1, 28, 0
2, 104640, Note_on_c, 1, 30, 127
2, 104760, Note_on_c, 1, 30, 0
2, 104760, Note_on_c, 1, 30, 127
2, 104880, Note_on_c, 1, 30, 0
2, 104880, Note_on_c, 1, 30, 127
2, 105120, Note_on_c, 1, 30, 0
2, 105120, Note_on_c, 1, 33, 127
2, 105240, Note_on_c, 1, 33, 0
2, 105360, Note_on_c, 1, 33, 127
2, 105600, Note_on_c, 1, 33, 0
2, 105600, Note_on_c, 1, 35, 127
2, 105720, Note_on_c, 1, 35, 0
2, 105840, Note_on_c, 1, 35, 127
2, 106080, Note_on_c, 1, 35, 0
2, 106080, Note_on_c, 1, 35, 127
2, 106320, Note_on_c, 1, 35, 0
2, 106320, Note_on_c, 1, 37, 127
2, 106440, Note_on_c, 1, 37, 0
2, 106440, Note_on_c, 1, 38, 127
2, 106560, Note_on_c, 1, 38, 0
2, 106560, Note_on_c, 1, 35, 127
2, 106680, Note_on_c, 1, 35, 0
2, 106680, Note_on_c, 1, 33, 127
2, 106800, Note_on_c, 1, 33, 0
2, 106800, Note_on_c, 1, 35, 127
2, 107280, Note_on_c, 1, 35, 0
2, 107280, Note_on_c, 1, 37, 127
2, 107520, Note_on_c, 1, 37, 0
2, 107520, Note_on_c, 1, 30, 127
2, 107640, Note_on_c, 1, 30, 0
2, 107760, Note_on_c, 1, 30, 127
2, 108240, Note_on_c, 1, 30, 0
2, 108240, Note_on_c, 1, 30, 127
2, 108480, Note_on_c, 1, 30, 0
2, 108480, Note_on_c, 1, 37, 127
2, 108600, Note_on_c, 1, 37, 0
2, 108600, Note_on_c, 1, 37, 127
2, 108720, Note_on_c, 1, 37, 0
2, 108720, Note_on_c, 1, 37, 127
2, 108960, Note_on_c, 1, 37, 0
2, 108960, Note_on_c, 1, 37, 127
2, 109080, Note_on_c, 1, 37, 0
2, 109200, Note_on_c, 1, 38, 127
2, 109440, Note_on_c, 1, 38, 0
2, 109440, Note_on_c, 1, 35, 127
2, 109920, Note_on_c, 1, 35, 0
2, 109920, Note_on_c, 1, 47, 127
2, 110160, Note_on_c, 1, 47, 0
2, 110160, Note_on_c, 1, 42, 127
2, 110400, Note_on_c, 1, 42, 0
2, 110400, Note_on_c, 1, 47, 127
2, 110880, Note_on_c, 1, 47, 0
2, 110880, Note_on_c, 1, 42, 127
2, 111101, Pitch_bend_c, 1, 8192
2, 111105, Pitch_bend_c, 1, 8064
2, 111110, Pitch_bend_c, 1, 7936
2, 111115, Pitch_bend_c, 1, 7808
2, 111120, Pitch_bend_c, 1, 7552
2, 111125, Pitch_bend_c, 1, 7424
2, 111129, Pitch_bend_c, 1, 7296
2, 111134, Pitch_bend_c, 1, 7168
2, 111139, Pitch_bend_c, 1, 6912
2, 111144, Pitch_bend_c, 1, 6784
2, 111149, Pitch_bend_c, 1, 6656
2, 111153, Pitch_bend_c, 1, 6528
2, 111158, Pitch_bend_c, 1, 6272
2, 111163, Pitch_bend_c, 1, 6144
2, 111168, Pitch_bend_c, 1, 6016
2, 111173, Pitch_bend_c, 1, 5888
2, 111177, Pitch_bend_c, 1, 5632
2, 111182, Pitch_bend_c, 1, 5504
2, 111187, Pitch_bend_c, 1, 5376
2, 111192, Pitch_bend_c, 1, 5248
2, 111197, Pitch_bend_c, 1, 4992
2, 111201, Pitch_bend_c, 1, 4864
2, 111206, Pitch_bend_c, 1, 4736
2, 111211, Pitch_bend_c, 1, 4608
2, 111216, Pitch_bend_c, 1, 4352
2, 111221, Pitch_bend_c, 1, 4224
2, 111225, Pitch_bend_c, 1, 4096
2, 111230, Pitch_bend_c, 1, 3840
2, 111235, Pitch_bend_c, 1, 3712
2, 111240, Pitch_bend_c, 1, 3584
2, 111245, Pitch_bend_c, 1, 3456
2, 111249, Pitch_bend_c, 1, 3200
2, 111254, Pitch_bend_c, 1, 3072
2, 111259, Pitch_bend_c, 1, 2944
2, 111264, Pitch_bend_c, 1, 2816
2, 111269, Pitch_bend_c, 1, 2560
2, 111273, Pitch_bend_c, 1, 2432
2, 111278, Pitch_bend_c, 1, 2304
2, 111283, Pitch_bend_c, 1, 2176
2, 111288, Pitch_bend_c, 1, 1920
2, 111293, Pitch_bend_c, 1, 1792
2, 111297, Pitch_bend_c, 1, 1664
2, 111302, Pitch_bend_c, 1, 1536
2, 111307, Pitch_bend_c, 1, 1280
2, 111312, Pitch_bend_c, 1, 1152
2, 111317, Pitch_bend_c, 1, 1024
2, 111321, Pitch_bend_c, 1, 896
2, 111326, Pitch_bend_c, 1, 640
2, 111331, Pitch_bend_c, 1, 512
2, 111336, Pitch_bend_c, 1, 384
2, 111341, Pitch_bend_c, 1, 128
2, 111355, Pitch_bend_c, 1, 8192
2, 111360, Note_on_c, 1, 42, 0
2, 111360, Pitch_bend_c, 1, 8192
2, 111360, Pitch_bend_c, 1, 8192
2, 111360, Note_on_c, 1, 38, 127
2, 111600, Note_on_c, 1, 38, 0
2, 111600, Note_on_c, 1, 38, 127
2, 111840, Note_on_c, 1, 38, 0
2, 111840, Note_on_c, 1, 38, 127
2, 112080, Note_on_c, 1, 38, 0
2, 112080, Note_on_c, 1, 42, 127
2, 112095, Pitch_bend_c, 1, 8320
2, 112110, Pitch_bend_c, 1, 8448
2, 112125, Pitch_bend_c, 1, 8576
2, 112140, Pitch_bend_c, 1, 8704
2, 112155, Pitch_bend_c, 1, 8832
2, 112170, Pitch_bend_c, 1, 8960
2, 112185, Pitch_bend_c, 1, 9088
2, 112200, Pitch_bend_c, 1, 9216
2, 112320, Note_on_c, 1, 42, 0
2, 112320, Pitch_bend_c, 1, 8192
2, 112320, Pitch_bend_c, 1, 8192
2, 112320, Note_on_c, 1, 38, 127
2, 112560, Note_on_c, 1, 38, 0
2, 112560, Note_on_c, 1, 38, 127
2, 112740, Note_on_c, 1, 38, 0
2, 112740, Note_on_c, 1, 33, 127
2, 112800, Note_on_c, 1, 33, 0
2, 112800, Note_on_c, 1, 42, 127
2, 112815, Pitch_bend_c, 1, 8320
2, 112830, Pitch_bend_c, 1, 8448
2, 112845, Pitch_bend_c, 1, 8576
2, 112860, Pitch_bend_c, 1, 8704
2, 112875, Pitch_bend_c, 1, 8832
2, 112890, Pitch_bend_c, 1, 8960
2, 112905, Pitch_bend_c, 1, 9088
2, 112920, Pitch_bend_c, 1, 9216
2, 113040, Note_on_c, 1, 42, 0
2, 113040, Pitch_bend_c, 1, 8192
2, 113040, Note_on_c, 1, 38, 127
2, 113040, Pitch_bend_c, 1, 8192
2, 113280, Note_on_c, 1, 38, 0
2, 113280, Note_on_c, 1, 38, 127
2, 113460, Note_on_c, 1, 38, 0
2, 113460, Note_on_c, 1, 33, 127
2, 113520, Note_on_c, 1, 33, 0
2, 113520, Note_on_c, 1, 38, 127
2, 113760, Note_on_c, 1, 38, 0
2, 113760, Note_on_c, 1, 42, 127
2, 113775, Pitch_bend_c, 1, 8320
2, 113790, Pitch_bend_c, 1, 8448
2, 113805, Pitch_bend_c, 1, 8576
2, 113820, Pitch_bend_c, 1, 8704
2, 113835, Pitch_bend_c, 1, 8832
2, 113850, Pitch_bend_c, 1, 8960
2, 113865, Pitch_bend_c, 1, 9088
2, 113880, Pitch_bend_c, 1, 9216
2, 114000, Note_on_c, 1, 42, 0
2, 114000, Note_on_c, 1, 38, 127
2, 114000, Pitch_bend_c, 1, 8192
2, 114000, Pitch_bend_c, 1, 8192
2, 114240, Note_on_c, 1, 38, 0
2, 114240, Note_on_c, 1, 38, 127
2, 114420, Note_on_c, 1, 38, 0
2, 114420, Note_on_c, 1, 33, 127
2, 114480, Note_on_c, 1, 33, 0
2, 114480, Note_on_c, 1, 38, 127
2, 114660, Note_on_c, 1, 38, 0
2, 114660, Note_on_c, 1, 38, 127
2, 114690, Pitch_bend_c, 1, 8448
2, 114720, Note_on_c, 1, 38, 0
2, 114720, Pitch_bend_c, 1, 8192
2, 114720, Pitch_bend_c, 1, 8192
2, 114720, Note_on_c, 1, 40, 127
2, 114960, Note_on_c, 1, 40, 0
2, 114960, Note_on_c, 1, 38, 127
2, 115200, Note_on_c, 1, 38, 0
2, 115200, Note_on_c, 1, 35, 127
2, 115680, Note_on_c, 1, 35, 0
2, 115680, Note_on_c, 1, 30, 127
2, 115800, Note_on_c, 1, 30, 0
2, 115920, Note_on_c, 1, 33, 127
2, 116160, Note_on_c, 1, 33, 0
2, 116160, Note_on_c, 1, 35, 127
2, 116640, Note_on_c, 1, 35, 0
2, 116640, Note_on_c, 1, 42, 127
2, 116655, Pitch_bend_c, 1, 8320
2, 116670, Pitch_bend_c, 1, 8448
2, 116685, Pitch_bend_c, 1, 8576
2, 116700, Pitch_bend_c, 1, 8704
2, 116715, Pitch_bend_c, 1, 8832
2, 116730, Pitch_bend_c, 1, 8960
2, 116745, Pitch_bend_c, 1, 9088
2, 116760, Pitch_bend_c, 1, 9216
2, 116880, Note_on_c, 1, 42, 0
2, 116880, Pitch_bend_c, 1, 8192
2, 116880, Note_on_c, 1, 33, 127
2, 116880, Pitch_bend_c, 1, 8192
2, 117120, Note_on_c, 1, 33, 0
2, 117120, Note_on_c, 1, 35, 127
2, 117600, Note_on_c, 1, 35, 0
2, 117600, Note_on_c, 1, 30, 127
2, 117720, Note_on_c, 1, 30, 0
2, 117840, Note_on_c, 1, 33, 127
2, 118080, Note_on_c, 1, 33, 0
2, 118080, Note_on_c, 1, 35, 127
2, 118560, Note_on_c, 1, 35, 0
2, 118560, Note_on_c, 1, 38, 127
2, 118800, Note_on_c, 1, 38, 0
2, 118800, Note_on_c, 1, 35, 127
2, 119040, Note_on_c, 1, 35, 0
2, 119040, Pitch_bend_c, 1, 8192
2, 119040, Note_on_c, 1, 38, 127
2, 119040, Pitch_bend_c, 1, 8192
2, 119280, Note_on_c, 1, 38, 0
2, 119280, Note_on_c, 1, 38, 127
2, 119520, Note_on_c, 1, 38, 0
2, 119520, Note_on_c, 1, 38, 127
2, 119760, Note_on_c, 1, 38, 0
2, 119760, Note_on_c, 1, 42, 127
2, 119775, Pitch_bend_c, 1, 8320
2, 119790, Pitch_bend_c, 1, 8448
2, 119805, Pitch_bend_c, 1, 8576
2, 119820, Pitch_bend_c, 1, 8704
2, 119835, Pitch_bend_c, 1, 8832
2, 119850, Pitch_bend_c, 1, 8960
2, 119865, Pitch_bend_c, 1, 9088
2, 119880, Pitch_bend_c, 1, 9216
2, 120000, Note_on_c, 1, 42, 0
2, 120000, Pitch_bend_c, 1, 8192
2, 120000, Pitch_bend_c, 1, 8192
2, 120000, Note_on_c, 1, 38, 127
2, 120240, Note_on_c, 1, 38, 0
2, 120240, Note_on_c, 1, 38, 127
2, 120420, Note_on_c, 1, 38, 0
2, 120420, Note_on_c, 1, 33, 127
2, 120480, Note_on_c, 1, 33, 0
2, 120480, Note_on_c, 1, 42, 127
2, 120495, Pitch_bend_c, 1, 8320
2, 120510, Pitch_bend_c, 1, 8448
2, 120525, Pitch_bend_c, 1, 8576
2, 120540, Pitch_bend_c, 1, 8704
2, 120555, Pitch_bend_c, 1, 8832
2, 120570, Pitch_bend_c, 1, 8960
2, 120585, Pitch_bend_c, 1, 9088
2, 120600, Pitch_bend_c, 1, 9216
2, 120720, Note_on_c, 1, 42, 0
2, 120720, Pitch_bend_c, 1, 8192
2, 120720, Note_on_c, 1, 38, 127
2, 120720, Pitch_bend_c, 1, 8192
2, 120960, Note_on_c, 1, 38, 0
2, 120960, Note_on_c, 1, 38, 127
2, 121140, Note_on_c, 1, 38, 0
2, 121140, Note_on_c, 1, 33, 127
2, 121200, Note_on_c, 1, 33, 0
2, 121200, Note_on_c, 1, 38, 127
2, 121440, Note_on_c, 1, 38, 0
2, 121440, Note_on_c, 1, 42, 127
2, 121455, Pitch_bend_c, 1, 8320
2, 121470, Pitch_bend_c, 1, 8448
2, 121485, Pitch_bend_c, 1, 8576
2, 121500, Pitch_bend_c, 1, 8704
2, 121515, Pitch_bend_c, 1, 8832
2, 121530, Pitch_bend_c, 1, 8960
2, 121545, Pitch_bend_c, 1, 9088
2, 121560, Pitch_bend_c, 1, 9216
2, 121680, Note_on_c, 1, 42, 0
2, 121680, Note_on_c, 1, 38, 127
2, 121680, Pitch_bend_c, 1, 8192
2, 121680, Pitch_bend_c, 1, 8192
2, 121920, Note_on_c, 1, 38, 0
2, 121920, Note_on_c, 1, 38, 127
2, 122100, Note_on_c, 1, 38, 0
2, 122100, Note_on_c, 1, 33, 127
2, 122160, Note_on_c, 1, 33, 0
2, 122160, Note_on_c, 1, 38, 127
2, 122340, Note_on_c, 1, 38, 0
2, 122340, Note_on_c, 1, 38, 127
2, 122370, Pitch_bend_c, 1, 8448
2, 122400, Note_on_c, 1, 38, 0
2, 122400, Note_on_c, 1, 40, 127
2, 122400, Pitch_bend_c, 1, 8192
2, 122400, Pitch_bend_c, 1, 8192
2, 122640, Note_on_c, 1, 40, 0
2, 122640, Note_on_c, 1, 38, 127
2, 122880, Note_on_c, 1, 38, 0
2, 122880, Note_on_c, 1, 35, 127
2, 123360, Note_on_c, 1, 35, 0
2, 123360, Note_on_c, 1, 30, 127
2, 123480, Note_on_c, 1, 30, 0
2, 123600, Note_on_c, 1, 33, 127
2, 123840, Note_on_c, 1, 33, 0
2, 123840, Note_on_c, 1, 35, 127
2, 124320, Note_on_c, 1, 35, 0
2, 124320, Note_on_c, 1, 42, 127
2, 124335, Pitch_bend_c, 1, 8320
2, 124350, Pitch_bend_c, 1, 8448
2, 124365, Pitch_bend_c, 1, 8576
2, 124380, Pitch_bend_c, 1, 8704
2, 124395, Pitch_bend_c, 1, 8832
2, 124410, Pitch_bend_c, 1, 8960
2, 124425, Pitch_bend_c, 1, 9088
2, 124440, Pitch_bend_c, 1, 9216
2, 124560, Note_on_c, 1, 42, 0
2, 124560, Note_on_c, 1, 33, 127
2, 124560, Pitch_bend_c, 1, 8192
2, 124560, Pitch_bend_c, 1, 8192
2, 124800, Note_on_c, 1, 33, 0
2, 124800, Note_on_c, 1, 35, 100
2, 125280, Note_on_c, 1, 35, 0
2, 125280, Note_on_c, 1, 30, 100
2, 125520, Note_on_c, 1, 30, 0
2, 125520, Note_on_c, 1, 33, 100
2, 125760, Note_on_c, 1, 33, 0
2, 125760, Note_on_c, 1, 35, 100
2, 126000, Note_on_c, 1, 35, 0
2, 126000, Note_on_c, 1, 35, 100
2, 126240, Note_on_c, 1, 35, 0
2, 126240, Note_on_c, 1, 35, 100
2, 126480, Note_on_c, 1, 35, 0
2, 126480, Note_on_c, 1, 38, 100
2, 126720, Note_on_c, 1, 38, 0
2, 126720, Note_on_c, 1, 30, 127
2, 126960, Note_on_c, 1, 30, 0
2, 126960, Note_on_c, 1, 30, 127
2, 127200, Note_on_c, 1, 30, 0
2, 127200, Note_on_c, 1, 30, 127
2, 127440, Note_on_c, 1, 30, 0
2, 127680, Note_on_c, 1, 30, 127
2, 127800, Note_on_c, 1, 30, 0
2, 127800, Note_on_c, 1, 30, 127
2, 127920, Note_on_c, 1, 30, 0
2, 127920, Note_on_c, 1, 30, 127
2, 128160, Note_on_c, 1, 30, 0
2, 128160, Note_on_c, 1, 33, 127
2, 128280, Note_on_c, 1, 33, 0
2, 128280, Note_on_c, 1, 33, 127
2, 128400, Note_on_c, 1, 33, 0
2, 128400, Note_on_c, 1, 33, 127
2, 128640, Note_on_c, 1, 33, 0
2, 128640, Note_on_c, 1, 35, 127
2, 128760, Note_on_c, 1, 35, 0
2, 128880, Note_on_c, 1, 35, 127
2, 129120, Note_on_c, 1, 35, 0
2, 129120, Note_on_c, 1, 35, 127
2, 129240, Note_on_c, 1, 35, 0
2, 129360, Note_on_c, 1, 33, 127
2, 129600, Note_on_c, 1, 33, 0
2, 129600, Note_on_c, 1, 35, 127
2, 129720, Note_on_c, 1, 35, 0
2, 129720, Note_on_c, 1, 35, 127
2, 129840, Note_on_c, 1, 35, 0
2, 129840, Note_on_c, 1, 35, 127
2, 130080, Note_on_c, 1, 35, 0
2, 130080, Note_on_c, 1, 42, 127
2, 130320, Note_on_c, 1, 42, 0
2, 130320, Note_on_c, 1, 35, 127
2, 130500, Note_on_c, 1, 35, 0
2, 130500, Note_on_c, 1, 28, 127
2, 130560, Note_on_c, 1, 28, 0
2, 130560, Note_on_c, 1, 30, 127
2, 130800, Note_on_c, 1, 30, 0
2, 130800, Note_on_c, 1, 30, 127
2, 131040, Note_on_c, 1, 30, 0
2, 131040, Note_on_c, 1, 30, 127
2, 131280, Note_on_c, 1, 30, 0
2, 131520, Note_on_c, 1, 30, 127
2, 131640, Note_on_c, 1, 30, 0
2, 131760, Note_on_c, 1, 30, 127
2, 132000, Note_on_c, 1, 30, 0
2, 132000, Note_on_c, 1, 33, 127
2, 132120, Note_on_c, 1, 33, 0
2, 132240, Note_on_c, 1, 33, 127
2, 132480, Note_on_c, 1, 33, 0
2, 132480, Note_on_c, 1, 35, 127
2, 132600, Note_on_c, 1, 35, 0
2, 132720, Note_on_c, 1, 35, 127
2, 132960, Note_on_c, 1, 35, 0
2, 132960, Note_on_c, 1, 35, 127
2, 133200, Note_on_c, 1, 35, 0
2, 133200, Note_on_c, 1, 33, 127
2, 133440, Note_on_c, 1, 33, 0
2, 133440, Note_on_c, 1, 35, 127
2, 133560, Note_on_c, 1, 35, 0
2, 133560, Note_on_c, 1, 35, 127
2, 133680, Note_on_c, 1, 35, 0
2, 133680, Note_on_c, 1, 35, 127
2, 133920, Note_on_c, 1, 35, 0
2, 133920, Note_on_c, 1, 35, 127
2, 134040, Note_on_c, 1, 35, 0
2, 134040, Note_on_c, 1, 33, 127
2, 134160, Note_on_c, 1, 33, 0
2, 134160, Note_on_c, 1, 37, 127
2, 134400, Note_on_c, 1, 37, 0
2, 134400, Note_on_c, 1, 30, 127
2, 134520, Note_on_c, 1, 30, 0
2, 134640, Note_on_c, 1, 30, 127
2, 134880, Note_on_c, 1, 30, 0
2, 134880, Note_on_c, 1, 30, 127
2, 135000, Note_on_c, 1, 30, 0
2, 135120, Note_on_c, 1, 28, 127
2, 135360, Note_on_c, 1, 28, 0
2, 135360, Note_on_c, 1, 30, 127
2, 135480, Note_on_c, 1, 30, 0
2, 135480, Note_on_c, 1, 30, 127
2, 135600, Note_on_c, 1, 30, 0
2, 135600, Note_on_c, 1, 30, 127
2, 135840, Note_on_c, 1, 30, 0
2, 135840, Note_on_c, 1, 33, 127
2, 135960, Note_on_c, 1, 33, 0
2, 136080, Note_on_c, 1, 33, 127
2, 136320, Note_on_c, 1, 33, 0
2, 136320, Note_on_c, 1, 35, 127
2, 136440, Note_on_c, 1, 35, 0
2, 136560, Note_on_c, 1, 35, 127
2, 136800, Note_on_c, 1, 35, 0
2, 136800, Note_on_c, 1, 35, 127
2, 137040, Note_on_c, 1, 35, 0
2, 137040, Note_on_c, 1, 37, 127
2, 137160, Note_on_c, 1, 37, 0
2, 137160, Note_on_c, 1, 38, 127
2, 137280, Note_on_c, 1, 38, 0
2, 137280, Note_on_c, 1, 35, 127
2, 137400, Note_on_c, 1, 35, 0
2, 137400, Note_on_c, 1, 33, 127
2, 137520, Note_on_c, 1, 33, 0
2, 137520, Note_on_c, 1, 35, 127
2, 138000, Note_on_c, 1, 35, 0
2, 138000, Note_on_c, 1, 37, 127
2, 138240, Note_on_c, 1, 37, 0
2, 138240, Note_on_c, 1, 30, 127
2, 138360, Note_on_c, 1, 30, 0
2, 138480, Note_on_c, 1, 30, 127
2, 138960, Note_on_c, 1, 30, 0
2, 138960, Note_on_c, 1, 30, 127
2, 139200, Note_on_c, 1, 30, 0
2, 139200, Note_on_c, 1, 37, 127
2, 139320, Note_on_c, 1, 37, 0
2, 139320, Note_on_c, 1, 37, 127
2, 139440, Note_on_c, 1, 37, 0
2, 139440, Note_on_c, 1, 37, 127
2, 139680, Note_on_c, 1, 37, 0
2, 139680, Note_on_c, 1, 37, 127
2, 139800, Note_on_c, 1, 37, 0
2, 139920, Note_on_c, 1, 38, 127
2, 140160, Note_on_c, 1, 38, 0
2, 140160, Note_on_c, 1, 35, 127
2, 140640, Note_on_c, 1, 35, 0
2, 140640, Note_on_c, 1, 47, 127
2, 140880, Note_on_c, 1, 47, 0
2, 140880, Note_on_c, 1, 42, 127
2, 141120, Note_on_c, 1, 42, 0
2, 141120, Note_on_c, 1, 47, 127
2, 141600, Note_on_c, 1, 47, 0
2, 141600, Note_on_c, 1, 42, 127
2, 141600, Control_c, 1, 101, 0
2, 141600, Control_c, 1, 100, 0
2, 141600, Control_c, 1, 6, 32
2, 141600, Control_c, 1, 38, 0
2, 141840, Pitch_bend_c, 1, 7936
2, 141920, Pitch_bend_c, 1, 7680
2, 142000, Pitch_bend_c, 1, 7424
2, 142079, Pitch_bend_c, 1, 8192
2, 142080, Note_on_c, 1, 42, 0
2, 142080, Note_on_c, 1, 30, 127
2, 142200, Note_on_c, 1, 30, 0
2, 142320, Note_on_c, 1, 30, 127
2, 142800, Note_on_c, 1, 30, 0
2, 142800, Note_on_c, 1, 30, 127
2, 143040, Note_on_c, 1, 30, 0
2, 143040, Note_on_c, 1, 37, 127
2, 143160, Note_on_c, 1, 37, 0
2, 143160, Note_on_c, 1, 37, 127
2, 143280, Note_on_c, 1, 37, 0
2, 143280, Note_on_c, 1, 37, 127
2, 143520, Note_on_c, 1, 37, 0
2, 143520, Note_on_c, 1, 37, 127
2, 143640, Note_on_c, 1, 37, 0
2, 143760, Note_on_c, 1, 38, 127
2, 144000, Note_on_c, 1, 38, 0
2, 144000, Note_on_c, 1, 35, 127
2, 144480, Note_on_c, 1, 35, 0
2, 144480, Note_on_c, 1, 47, 127
2, 144720, Note_on_c, 1, 47, 0
2, 144720, Note_on_c, 1, 42, 127
2, 144960, Note_on_c, 1, 42, 0
2, 144960, Note_on_c, 1, 47, 127
2, 145440, Note_on_c, 1, 47, 0
2, 145440, Control_c, 1, 101, 0
2, 145440, Control_c, 1, 100, 0
2, 145440, Control_c, 1, 6, 32
2, 145440, Control_c, 1, 38, 0
2, 145440, Note_on_c, 1, 42, 127
2, 145680, Pitch_bend_c, 1, 8192
2, 145710, Pitch_bend_c, 1, 7511
2, 145740, Pitch_bend_c, 1, 6830
2, 145770, Pitch_bend_c, 1, 6149
2, 145800, Pitch_bend_c, 1, 5468
2, 145830, Pitch_bend_c, 1, 4787
2, 145860, Pitch_bend_c, 1, 4106
2, 145890, Pitch_bend_c, 1, 3425
2, 145919, Pitch_bend_c, 1, 2744
2, 145920, Note_on_c, 1, 42, 0
2, 145920, Pitch_bend_c, 1, 8192
2, 145920, Note_on_c, 1, 30, 127
2, 146040, Note_on_c, 1, 30, 0
2, 146160, Note_on_c, 1, 30, 127
2, 146640, Note_on_c, 1, 30, 0
2, 146640, Note_on_c, 1, 30, 127
2, 146880, Note_on_c, 1, 30, 0
2, 146880, Note_on_c, 1, 37, 127
2, 147000, Note_on_c, 1, 37, 0
2, 147000, Note_on_c, 1, 37, 127
2, 147120, Note_on_c, 1, 37, 0
2, 147120, Note_on_c, 1, 37, 127
2, 147360, Note_on_c, 1, 37, 0
2, 147360, Note_on_c, 1, 37, 127
2, 147480, Note_on_c, 1, 37, 0
2, 147600, Note_on_c, 1, 38, 127
2, 147840, Note_on_c, 1, 38, 0
2, 147840, Note_on_c, 1, 35, 127
2, 148320, Note_on_c, 1, 35, 0
2, 148320, Note_on_c, 1, 42, 127
2, 148560, Note_on_c, 1, 42, 0
2, 148560, Note_on_c, 1, 45, 127
2, 148708, Pitch_bend_c, 1, 8832
2, 148800, Note_on_c, 1, 45, 0
2, 148800, Note_on_c, 1, 47, 127
2, 148800, Pitch_bend_c, 1, 8192
2, 149040, Note_on_c, 1, 47, 0
2, 149040, Note_on_c, 1, 42, 127
2, 149280, Note_on_c, 1, 42, 0
2, 149280, Control_c, 1, 101, 0
2, 149280, Control_c, 1, 100, 0
2, 149280, Control_c, 1, 6, 32
2, 149280, Control_c, 1, 38, 0
2, 149280, Note_on_c, 1, 47, 127
2, 149520, Pitch_bend_c, 1, 8192
2, 149550, Pitch_bend_c, 1, 7511
2, 149580, Pitch_bend_c, 1, 6830
2, 149610, Pitch_bend_c, 1, 6149
2, 149640, Pitch_bend_c, 1, 5468
2, 149670, Pitch_bend_c, 1, 4787
2, 149700, Pitch_bend_c, 1, 4106
2, 149730, Pitch_bend_c, 1, 3425
2, 149759, Pitch_bend_c, 1, 2744
2, 149760, Note_on_c, 1, 47, 0
2, 149760, Pitch_bend_c, 1, 8192
2, 149760, Note_on_c, 1, 30, 100
2, 149880, Note_on_c, 1, 30, 0
2, 150000, Note_on_c, 1, 30, 127
2, 150240, Note_on_c, 1, 30, 0
2, 150240, Note_on_c, 1, 30, 127
2, 150360, Note_on_c, 1, 30, 0
2, 150480, Note_on_c, 1, 28, 127
2, 150720, Note_on_c, 1, 28, 0
2, 150720, Note_on_c, 1, 30, 127
2, 150840, Note_on_c, 1, 30, 0
2, 150840, Note_on_c, 1, 30, 127
2, 150960, Note_on_c, 1, 30, 0
2, 150960, Note_on_c, 1, 30, 127
2, 151200, Note_on_c, 1, 30, 0
2, 151200, Note_on_c, 1, 33, 127
2, 151320, Note_on_c, 1, 33, 0
2, 151440, Note_on_c, 1, 33, 127
2, 151680, Note_on_c, 1, 33, 0
2, 151680, Note_on_c, 1, 35, 127
2, 151800, Note_on_c, 1, 35, 0
2, 151920, Note_on_c, 1, 35, 127
2, 152160, Note_on_c, 1, 35, 0
2, 152160, Note_on_c, 1, 35, 127
2, 152400, Note_on_c, 1, 35, 0
2, 152400, Note_on_c, 1, 37, 127
2, 152520, Note_on_c, 1, 37, 0
2, 152520, Note_on_c, 1, 38, 127
2, 152640, Note_on_c, 1, 38, 0
2, 152640, Note_on_c, 1, 35, 127
2, 152760, Note_on_c, 1, 35, 0
2, 152760, Note_on_c, 1, 33, 127
2, 152880, Note_on_c, 1, 33, 0
2, 152880, Note_on_c, 1, 35, 127
2, 153360, Note_on_c, 1, 35, 0
2, 153360, Note_on_c, 1, 37, 127
2, 153600, Note_on_c, 1, 37, 0
2, 153600, Note_on_c, 1, 30, 127
2, 153720, Note_on_c, 1, 30, 0
2, 153840, Note_on_c, 1, 30, 127
2, 154320, Note_on_c, 1, 30, 0
2, 154320, Note_on_c, 1, 30, 127
2, 154560, Note_on_c, 1, 30, 0
2, 154560, Note_on_c, 1, 37, 127
2, 154680, Note_on_c, 1, 37, 0
2, 154680, Note_on_c, 1, 37, 127
2, 154800, Note_on_c, 1, 37, 0
2, 154800, Note_on_c, 1, 37, 127
2, 155040, Note_on_c, 1, 37, 0
2, 155040, Note_on_c, 1, 37, 127
2, 155160, Note_on_c, 1, 37, 0
2, 155280, Note_on_c, 1, 38, 127
2, 155520, Note_on_c, 1, 38, 0
2, 155520, Note_on_c, 1, 35, 127
2, 156000, Note_on_c, 1, 35, 0
2, 156000, Note_on_c, 1, 47, 127
2, 156240, Note_on_c, 1, 47, 0
2, 156240, Note_on_c, 1, 42, 127
2, 156480, Note_on_c, 1, 42, 0
2, 156480, Note_on_c, 1, 47, 127
2, 156960, Note_on_c, 1, 47, 0
2, 156960, Note_on_c, 1, 42, 127
2, 156960, Control_c, 1, 101, 0
2, 156960, Control_c, 1, 100, 0
2, 156960, Control_c, 1, 6, 32
2, 156960, Control_c, 1, 38, 0
2, 157200, Pitch_bend_c, 1, 8192
2, 157230, Pitch_bend_c, 1, 7511
2, 157260, Pitch_bend_c, 1, 6830
2, 157290, Pitch_bend_c, 1, 6149
2, 157320, Pitch_bend_c, 1, 5468
2, 157350, Pitch_bend_c, 1, 4787
2, 157380, Pitch_bend_c, 1, 4106
2, 157410, Pitch_bend_c, 1, 3425
2, 157439, Pitch_bend_c, 1, 2744
2, 157440, Note_on_c, 1, 42, 0
2, 157440, Note_on_c, 1, 30, 100
2, 157440, Pitch_bend_c, 1, 8192
2, 157680, Note_on_c, 1, 30, 0
2, 157680, Note_on_c, 1, 30, 127
2, 157920, Note_on_c, 1, 30, 0
2, 157920, Note_on_c, 1, 30, 127
2, 158040, Note_on_c, 1, 30, 0
2, 158160, Note_on_c, 1, 28, 127
2, 158400, Note_on_c, 1, 28, 0
2, 158400, Note_on_c, 1, 30, 127
2, 158520, Note_on_c, 1, 30, 0
2, 158520, Note_on_c, 1, 30, 127
2, 158640, Note_on_c, 1, 30, 0
2, 158640, Note_on_c, 1, 30, 127
2, 158880, Note_on_c, 1, 30, 0
2, 158880, Note_on_c, 1, 33, 127
2, 159000, Note_on_c, 1, 33, 0
2, 159120, Note_on_c, 1, 33, 127
2, 159360, Note_on_c, 1, 33, 0
2, 159360, Note_on_c, 1, 35, 127
2, 159480, Note_on_c, 1, 35, 0
2, 159600, Note_on_c, 1, 35, 127
2, 159840, Note_on_c, 1, 35, 0
2, 159840, Note_on_c, 1, 35, 127
2, 160080, Note_on_c, 1, 35, 0
2, 160080, Note_on_c, 1, 37, 127
2, 160200, Note_on_c, 1, 37, 0
2, 160200, Note_on_c, 1, 38, 127
2, 160320, Note_on_c, 1, 38, 0
2, 160320, Note_on_c, 1, 35, 127
2, 160440, Note_on_c, 1, 35, 0
2, 160440, Note_on_c, 1, 33, 127
2, 160560, Note_on_c, 1, 33, 0
2, 160560, Note_on_c, 1, 35, 127
2, 161040, Note_on_c, 1, 35, 0
2, 161040, Note_on_c, 1, 37, 127
2, 161280, Note_on_c, 1, 37, 0
2, 161280, Note_on_c, 1, 30, 100
2, 161520, Note_on_c, 1, 30, 0
2, 161520, Note_on_c, 1, 30, 127
2, 161760, Note_on_c, 1, 30, 0
2, 161760, Note_on_c, 1, 30, 127
2, 161880, Note_on_c, 1, 30, 0
2, 162000, Note_on_c, 1, 28, 127
2, 162240, Note_on_c, 1, 28, 0
2, 162240, Note_on_c, 1, 30, 127
2, 162360, Note_on_c, 1, 30, 0
2, 162360, Note_on_c, 1, 30, 127
2, 162480, Note_on_c, 1, 30, 0
2, 162480, Note_on_c, 1, 30, 127
2, 162720, Note_on_c, 1, 30, 0
2, 162720, Note_on_c, 1, 33, 127
2, 162840, Note_on_c, 1, 33, 0
2, 162960, Note_on_c, 1, 33, 127
2, 163200, Note_on_c, 1, 33, 0
2, 163200, Note_on_c, 1, 35, 127
2, 163320, Note_on_c, 1, 35, 0
2, 163440, Note_on_c, 1, 35, 127
2, 163680, Note_on_c, 1, 35, 0
2, 163680, Note_on_c, 1, 35, 127
2, 163920, Note_on_c, 1, 35, 0
2, 163920, Note_on_c, 1, 37, 127
2, 164040, Note_on_c, 1, 37, 0
2, 164040, Note_on_c, 1, 38, 127
2, 164160, Note_on_c, 1, 38, 0
2, 164160, Note_on_c, 1, 35, 127
2, 164280, Note_on_c, 1, 35, 0
2, 164280, Note_on_c, 1, 33, 127
2, 164400, Note_on_c, 1, 33, 0
2, 164400, Note_on_c, 1, 35, 127
2, 164880, Note_on_c, 1, 35, 0
2, 164880, Note_on_c, 1, 37, 127
2, 165120, Note_on_c, 1, 37, 0
2, 165120, Note_on_c, 1, 30, 100
2, 165360, Note_on_c, 1, 30, 0
2, 165360, Note_on_c, 1, 30, 127
2, 165600, Note_on_c, 1, 30, 0
2, 165600, Note_on_c, 1, 30, 127
2, 165720, Note_on_c, 1, 30, 0
2, 165840, Note_on_c, 1, 28, 127
2, 166080, Note_on_c, 1, 28, 0
2, 166080, Note_on_c, 1, 30, 127
2, 166200, Note_on_c, 1, 30, 0
2, 166200, Note_on_c, 1, 30, 127
2, 166320, Note_on_c, 1, 30, 0
2, 166320, Note_on_c, 1, 30, 127
2, 166560, Note_on_c, 1, 30, 0
2, 166560, Note_on_c, 1, 33, 127
2, 166680, Note_on_c, 1, 33, 0
2, 166800, Note_on_c, 1, 33, 127
2, 167040, Note_on_c, 1, 33, 0
2, 167040, Note_on_c, 1, 35, 127
2, 167160, Note_on_c, 1, 35, 0
2, 167280, Note_on_c, 1, 35, 127
2, 167520, Note_on_c, 1, 35, 0
2, 167520, Note_on_c, 1, 35, 127
2, 167760, Note_on_c, 1, 35, 0
2, 167760, Note_on_c, 1, 37, 127
2, 167880, Note_on_c, 1, 37, 0
2, 167880, Note_on_c, 1, 38, 127
2, 168000, Note_on_c, 1, 38, 0
2, 168000, Note_on_c, 1, 35, 127
2, 168120, Note_on_c, 1, 35, 0
2, 168120, Note_on_c, 1, 33, 127
2, 168240, Note_on_c, 1, 33, 0
2, 168240, Note_on_c, 1, 35, 127
2, 168720, Note_on_c, 1, 35, 0
2, 168720, Note_on_c, 1, 37, 127
2, 168960, Note_on_c, 1, 37, 0
2, 168960, Note_on_c, 1, 30, 100
2, 169200, Note_on_c, 1, 30, 0
2, 169200, Note_on_c, 1, 30, 127
2, 169440, Note_on_c, 1, 30, 0
2, 169440, Note_on_c, 1, 30, 127
2, 169560, Note_on_c, 1, 30, 0
2, 169680, Note_on_c, 1, 28, 127
2, 169920, Note_on_c, 1, 28, 0
2, 169920, Note_on_c, 1, 30, 127
2, 170040, Note_on_c, 1, 30, 0
2, 170040, Note_on_c, 1, 30, 127
2, 170160, Note_on_c, 1, 30, 0
2, 170160, Note_on_c, 1, 30, 127
2, 170400, Note_on_c, 1, 30, 0
2, 170400, Note_on_c, 1, 33, 127
2, 170520, Note_on_c, 1, 33, 0
2, 170640, Note_on_c, 1, 33, 127
2, 170880, Note_on_c, 1, 33, 0
2, 170880, Note_on_c, 1, 35, 127
2, 171000, Note_on_c, 1, 35, 0
2, 171120, Note_on_c, 1, 35, 127
2, 171360, Note_on_c, 1, 35, 0
2, 171360, Note_on_c, 1, 35, 127
2, 171600, Note_on_c, 1, 35, 0
2, 171600, Note_on_c, 1, 37, 127
2, 171720, Note_on_c, 1, 37, 0
2, 171720, Note_on_c, 1, 38, 127
2, 171840, Note_on_c, 1, 38, 0
2, 171840, Note_on_c, 1, 35, 127
2, 171960, Note_on_c, 1, 35, 0
2, 171960, Note_on_c, 1, 33, 127
2, 172080, Note_on_c, 1, 33, 0
2, 172080, Note_on_c, 1, 35, 127
2, 172560, Note_on_c, 1, 35, 0
2, 172560, Note_on_c, 1, 37, 127
2, 172800, Note_on_c, 1, 37, 0
2, 172800, Note_on_c, 1, 30, 127
2, 172920, Note_on_c, 1, 30, 0
2, 173040, Note_on_c, 1, 30, 127
2, 173520, Note_on_c, 1, 30, 0
2, 173520, Note_on_c, 1, 30, 127
2, 173760, Note_on_c, 1, 30, 0
2, 173760, Note_on_c, 1, 37, 127
2, 173880, Note_on_c, 1, 37, 0
2, 173880, Note_on_c, 1, 37, 127
2, 174000, Note_on_c, 1, 37, 0
2, 174000, Note_on_c, 1, 37, 127
2, 174240, Note_on_c, 1, 37, 0
2, 174240, Note_on_c, 1, 37, 127
2, 174360, Note_on_c, 1, 37, 0
2, 174480, Note_on_c, 1, 38, 127
2, 174720, Note_on_c, 1, 38, 0
2, 174720, Note_on_c, 1, 35, 127
2, 175200, Note_on_c, 1, 35, 0
2, 175200, Note_on_c, 1, 42, 127
2, 175440, Note_on_c, 1, 42, 0
2, 175440, Note_on_c, 1, 45, 127
2, 175579, Pitch_bend_c, 1, 8832
2, 175680, Note_on_c, 1, 45, 0
2, 175680, Pitch_bend_c, 1, 8192
2, 175680, Note_on_c, 1, 47, 127
2, 175920, Note_on_c, 1, 47, 0
2, 175920, Note_on_c, 1, 42, 127
2, 176160, Note_on_c, 1, 42, 0
2, 176160, Note_on_c, 1, 47, 127
2, 176160, Control_c, 1, 101, 0
2, 176160, Control_c, 1, 100, 0
2, 176160, Control_c, 1, 6, 32
2, 176160, Control_c, 1, 38, 0
2, 176400, Pitch_bend_c, 1, 8192
2, 176430, Pitch_bend_c, 1, 7511
2, 176460, Pitch_bend_c, 1, 6830
2, 176490, Pitch_bend_c, 1, 6149
2, 176520, Pitch_bend_c, 1, 5468
2, 176550, Pitch_bend_c, 1, 4787
2, 176580, Pitch_bend_c, 1, 4106
2, 176610, Pitch_bend_c, 1, 3425
2, 176639, Pitch_bend_c, 1, 2744
2, 176640, Note_on_c, 1, 47, 0
2, 176640, Pitch_bend_c, 1, 8192
2, 176640, Note_on_c, 1, 30, 127
2, 176760, Note_on_c, 1, 30, 0
2, 176880, Note_on_c, 1, 30, 127
2, 177360, Note_on_c, 1, 30, 0
2, 177360, Note_on_c, 1, 30, 127
2, 177600, Note_on_c, 1, 30, 0
2, 177600, Note_on_c, 1, 37, 127
2, 177720, Note_on_c, 1, 37, 0
2, 177720, Note_on_c, 1, 37, 127
2, 177840, Note_on_c, 1, 37, 0
2, 177840, Note_on_c, 1, 37, 127
2, 178080, Note_on_c, 1, 37, 0
2, 178080, Note_on_c, 1, 37, 127
2, 178200, Note_on_c, 1, 37, 0
2, 178320, Note_on_c, 1, 38, 127
2, 178560, Note_on_c, 1, 38, 0
2, 178560, Note_on_c, 1, 35, 127
2, 179040, Note_on_c, 1, 35, 0
2, 179040, Note_on_c, 1, 42, 127
2, 179280, Note_on_c, 1, 42, 0
2, 179280, Note_on_c, 1, 45, 127
2, 179409, Pitch_bend_c, 1, 8832
2, 179515, Pitch_bend_c, 1, 8192
2, 179520, Note_on_c, 1, 45, 0
2, 179520, Note_on_c, 1, 47, 127
2, 179760, Note_on_c, 1, 47, 0
2, 179760, Note_on_c, 1, 42, 127
2, 180000, Note_on_c, 1, 42, 0
2, 180000, Note_on_c, 1, 47, 127
2, 180000, Control_c, 1, 101, 0
2, 180000, Control_c, 1, 100, 0
2, 180000, Control_c, 1, 6, 32
2, 180000, Control_c, 1, 38, 0
2, 180240, Pitch_bend_c, 1, 8192
2, 180270, Pitch_bend_c, 1, 7511
2, 180300, Pitch_bend_c, 1, 6830
2, 180330, Pitch_bend_c, 1, 6149
2, 180360, Pitch_bend_c, 1, 5468
2, 180390, Pitch_bend_c, 1, 4787
2, 180420, Pitch_bend_c, 1, 4106
2, 180450, Pitch_bend_c, 1, 3425
2, 180479, Pitch_bend_c, 1, 2744
2, 180480, Note_on_c, 1, 47, 0
2, 180480, Pitch_bend_c, 1, 8192
2, 180480, Pitch_bend_c, 1, 8192
2, 180480, Note_on_c, 1, 30, 100
2, 180720, Note_on_c, 1, 30, 0
2, 180720, Note_on_c, 1, 30, 127
2, 180960, Note_on_c, 1, 30, 0
2, 180960, Note_on_c, 1, 30, 127
2, 181080, Note_on_c, 1, 30, 0
2, 181200, Note_on_c, 1, 28, 127
2, 181440, Note_on_c, 1, 28, 0
2, 181440, Note_on_c, 1, 30, 127
2, 181560, Note_on_c, 1, 30, 0
2, 181560, Note_on_c, 1, 30, 127
2, 181680, Note_on_c, 1, 30, 0
2, 181680, Note_on_c, 1, 30, 127
2, 181920, Note_on_c, 1, 30, 0
2, 181920, Note_on_c, 1, 33, 127
2, 182040, Note_on_c, 1, 33, 0
2, 182160, Note_on_c, 1, 33, 127
2, 182400, Note_on_c, 1, 33, 0
2, 182400, Note_on_c, 1, 35, 127
2, 182520, Note_on_c, 1, 35, 0
2, 182640, Note_on_c, 1, 35, 127
2, 182880, Note_on_c, 1, 35, 0
2, 182880, Note_on_c, 1, 35, 127
2, 183120, Note_on_c, 1, 35, 0
2, 183600, Note_on_c, 1, 38, 100
2, 183840, Note_on_c, 1, 38, 0
2, 183840, Note_on_c, 1, 40, 127
2, 184080, Pitch_bend_c, 1, 8192
2, 184110, Pitch_bend_c, 1, 7511
2, 184140, Pitch_bend_c, 1, 6830
2, 184170, Pitch_bend_c, 1, 6149
2, 184200, Pitch_bend_c, 1, 5468
2, 184230, Pitch_bend_c, 1, 4787
2, 184260, Pitch_bend_c, 1, 4106
2, 184290, Pitch_bend_c, 1, 3425
2, 184319, Pitch_bend_c, 1, 2744
2, 184320, Note_on_c, 1, 40, 0
2, 184320, End_track
3, 0, Start_track
3, 0, MIDI_port, 0
3, 0, Title_t, "Drums - Dave Rowntree"
3, 0, Program_c, 9, 16
3, 0, Control_c, 9, 7, 90
3, 0, Control_c, 9, 10, 64
3, 0, Note_on_c, 9, 36, 127
3, 0, Note_on_c, 9, 54, 127
3, 240, Note_on_c, 9, 54, 0
3, 240, Note_on_c, 9, 36, 0
3, 240, Note_on_c, 9, 54, 127
3, 480, Note_on_c, 9, 54, 0
3, 480, Note_on_c, 9, 38, 127
3, 480, Note_on_c, 9, 54, 127
3, 720, Note_on_c, 9, 54, 0
3, 720, Note_on_c, 9, 38, 0
3, 720, Note_on_c, 9, 54, 127
3, 840, Note_on_c, 9, 54, 0
3, 840, Note_on_c, 9, 36, 127
3, 960, Note_on_c, 9, 36, 0
3, 960, Note_on_c, 9, 36, 127
3, 960, Note_on_c, 9, 54, 127
3, 1200, Note_on_c, 9, 54, 0
3, 1200, Note_on_c, 9, 36, 0
3, 1200, Note_on_c, 9, 54, 127
3, 1300, Program_c, 9, 45
3, 1440, Note_on_c, 9, 54, 0
3, 1440, Note_on_c, 9, 42, 127
3, 1441, Program_c, 9, 16
3, 1442, Note_on_c, 9, 54, 127
3, 1680, Note_on_c, 9, 42, 0
3, 1680, Note_on_c, 9, 54, 127
3, 1682, Note_on_c, 9, 54, 0
3, 1800, Note_on_c, 9, 54, 0
3, 1800, Note_on_c, 9, 36, 127
3, 1860, Note_on_c, 9, 36, 0
3, 1920, Note_on_c, 9, 36, 127
3, 1920, Note_on_c, 9, 54, 127
3, 2160, Note_on_c, 9, 54, 0
3, 2160, Note_on_c, 9, 36, 0
3, 2160, Note_on_c, 9, 54, 127
3, 2400, Note_on_c, 9, 54, 0
3, 2400, Note_on_c, 9, 54, 127
3, 2400, Note_on_c, 9, 38, 127
3, 2640, Note_on_c, 9, 38, 0
3, 2640, Note_on_c, 9, 54, 0
3, 2640, Note_on_c, 9, 54, 127
3, 2760, Note_on_c, 9, 54, 0
3, 2760, Note_on_c, 9, 36, 127
3, 2880, Note_on_c, 9, 36, 0
3, 2880, Note_on_c, 9, 54, 127
3, 3000, Note_on_c, 9, 54, 0
3, 3120, Note_on_c, 9, 36, 127
3, 3120, Note_on_c, 9, 54, 127
3, 3240, Note_on_c, 9, 36, 0
3, 3360, Note_on_c, 9, 54, 0
3, 3360, Note_on_c, 9, 54, 127
3, 3360, Note_on_c, 9, 38, 127
3, 3480, Note_on_c, 9, 38, 0
3, 3480, Note_on_c, 9, 54, 0
3, 3600, Note_on_c, 9, 54, 127
3, 3600, Note_on_c, 9, 36, 127
3, 3720, Note_on_c, 9, 36, 0
3, 3720, Note_on_c, 9, 54, 0
3, 3810, Note_on_c, 9, 43, 100
3, 3840, Note_on_c, 9, 43, 0
3, 3840, Note_on_c, 9, 54, 127
3, 3840, Note_on_c, 9, 41, 127
3, 3840, Note_on_c, 9, 36, 127
3, 4080, Note_on_c, 9, 36, 0
3, 4080, Note_on_c, 9, 41, 0
3, 4080, Note_on_c, 9, 54, 0
3, 4080, Note_on_c, 9, 54, 127
3, 4320, Note_on_c, 9, 54, 0
3, 4320, Note_on_c, 9, 54, 127
3, 4320, Note_on_c, 9, 38, 127
3, 4560, Note_on_c, 9, 38, 0
3, 4560, Note_on_c, 9, 54, 0
3, 4560, Note_on_c, 9, 54, 127
3, 4680, Note_on_c, 9, 54, 0
3, 4680, Note_on_c, 9, 36, 127
3, 4800, Note_on_c, 9, 36, 0
3, 4800, Note_on_c, 9, 36, 127
3, 4800, Note_on_c, 9, 54, 127
3, 5040, Note_on_c, 9, 54, 0
3, 5040, Note_on_c, 9, 36, 0
3, 5040, Note_on_c, 9, 54, 127
3, 5280, Note_on_c, 9, 54, 0
3, 5280, Note_on_c, 9, 38, 127
3, 5280, Note_on_c, 9, 54, 127
3, 5520, Note_on_c, 9, 54, 0
3, 5520, Note_on_c, 9, 38, 0
3, 5520, Note_on_c, 9, 54, 127
3, 5640, Note_on_c, 9, 54, 0
3, 5640, Note_on_c, 9, 36, 127
3, 5700, Note_on_c, 9, 36, 0
3, 5730, Note_on_c, 9, 43, 127
3, 5760, Note_on_c, 9, 43, 0
3, 5760, Note_on_c, 9, 36, 127
3, 5760, Note_on_c, 9, 54, 127
3, 5760, Note_on_c, 9, 41, 127
3, 6000, Note_on_c, 9, 41, 0
3, 6000, Note_on_c, 9, 54, 0
3, 6000, Note_on_c, 9, 36, 0
3, 6000, Note_on_c, 9, 54, 127
3, 6240, Note_on_c, 9, 54, 0
3, 6240, Note_on_c, 9, 54, 127
3, 6240, Note_on_c, 9, 38, 127
3, 6480, Note_on_c, 9, 38, 0
3, 6480, Note_on_c, 9, 54, 0
3, 6480, Note_on_c, 9, 54, 127
3, 6600, Note_on_c, 9, 54, 0
3, 6600, Note_on_c, 9, 36, 127
3, 6720, Note_on_c, 9, 36, 0
3, 6720, Note_on_c, 9, 54, 127
3, 6840, Note_on_c, 9, 54, 0
3, 6960, Note_on_c, 9, 54, 127
3, 6960, Note_on_c, 9, 36, 127
3, 7080, Note_on_c, 9, 36, 0
3, 7200, Note_on_c, 9, 54, 0
3, 7200, Note_on_c, 9, 54, 127
3, 7200, Note_on_c, 9, 38, 127
3, 7320, Note_on_c, 9, 38, 0
3, 7320, Note_on_c, 9, 54, 0
3, 7320, Control_c, 9, 10, 0
3, 7320, Note_on_c, 9, 54, 100
3, 7400, Control_c, 9, 10, 64
3, 7440, Note_on_c, 9, 54, 0
3, 7440, Note_on_c, 9, 54, 127
3, 7440, Note_on_c, 9, 36, 127
3, 7500, Control_c, 9, 10, 0
3, 7560, Note_on_c, 9, 36, 0
3, 7560, Note_on_c, 9, 54, 0
3, 7560, Note_on_c, 9, 54, 100
3, 7600, Control_c, 9, 10, 64
3, 7650, Note_on_c, 9, 43, 100
3, 7680, Note_on_c, 9, 43, 0
3, 7680, Note_on_c, 9, 54, 0
3, 7680, Note_on_c, 9, 54, 127
3, 7680, Note_on_c, 9, 36, 127
3, 7680, Note_on_c, 9, 41, 127
3, 7920, Note_on_c, 9, 41, 0
3, 7920, Note_on_c, 9, 36, 0
3, 7920, Note_on_c, 9, 54, 0
3, 7920, Note_on_c, 9, 54, 127
3, 8160, Note_on_c, 9, 54, 0
3, 8160, Note_on_c, 9, 54, 127
3, 8160, Note_on_c, 9, 38, 127
3, 8400, Note_on_c, 9, 38, 0
3, 8400, Note_on_c, 9, 54, 0
3, 8400, Note_on_c, 9, 54, 127
3, 8520, Note_on_c, 9, 54, 0
3, 8520, Note_on_c, 9, 36, 127
3, 8640, Note_on_c, 9, 36, 0
3, 8640, Note_on_c, 9, 36, 127
3, 8640, Note_on_c, 9, 54, 127
3, 8880, Note_on_c, 9, 54, 0
3, 8880, Note_on_c, 9, 36, 0
3, 8880, Note_on_c, 9, 54, 127
3, 9120, Note_on_c, 9, 54, 0
3, 9120, Note_on_c, 9, 38, 127
3, 9120, Note_on_c, 9, 54, 127
3, 9360, Note_on_c, 9, 54, 0
3, 9360, Note_on_c, 9, 38, 0
3, 9360, Note_on_c, 9, 54, 127
3, 9480, Note_on_c, 9, 54, 0
3, 9480, Note_on_c, 9, 36, 127
3, 9540, Note_on_c, 9, 36, 0
3, 9570, Note_on_c, 9, 43, 127
3, 9600, Note_on_c, 9, 43, 0
3, 9600, Note_on_c, 9, 54, 127
3, 9600, Note_on_c, 9, 36, 127
3, 9600, Note_on_c, 9, 41, 127
3, 9840, Note_on_c, 9, 41, 0
3, 9840, Note_on_c, 9, 36, 0
3, 9840, Note_on_c, 9, 54, 0
3, 9840, Note_on_c, 9, 54, 127
3, 10080, Note_on_c, 9, 54, 0
3, 10080, Note_on_c, 9, 38, 127
3, 10080, Note_on_c, 9, 54, 127
3, 10320, Note_on_c, 9, 54, 0
3, 10320, Note_on_c, 9, 38, 0
3, 10320, Note_on_c, 9, 54, 127
3, 10440, Note_on_c, 9, 54, 0
3, 10440, Note_on_c, 9, 36, 127
3, 10560, Note_on_c, 9, 36, 0
3, 10560, Note_on_c, 9, 54, 127
3, 10680, Note_on_c, 9, 54, 0
3, 10800, Note_on_c, 9, 36, 127
3, 10800, Note_on_c, 9, 54, 127
3, 10920, Note_on_c, 9, 36, 0
3, 11040, Note_on_c, 9, 54, 0
3, 11040, Note_on_c, 9, 38, 127
3, 11040, Note_on_c, 9, 54, 127
3, 11159, Control_c, 9, 10, 0
3, 11160, Note_on_c, 9, 54, 0
3, 11160, Note_on_c, 9, 38, 0
3, 11160, Note_on_c, 9, 54, 100
3, 11240, Control_c, 9, 10, 64
3, 11280, Note_on_c, 9, 54, 0
3, 11280, Note_on_c, 9, 36, 127
3, 11280, Note_on_c, 9, 54, 127
3, 11340, Control_c, 9, 10, 0
3, 11400, Note_on_c, 9, 54, 0
3, 11400, Note_on_c, 9, 36, 0
3, 11400, Note_on_c, 9, 54, 100
3, 11440, Control_c, 9, 10, 64
3, 11490, Note_on_c, 9, 43, 100
3, 11520, Note_on_c, 9, 43, 0
3, 11520, Note_on_c, 9, 54, 0
3, 11520, Note_on_c, 9, 36, 127
3, 11520, Note_on_c, 9, 54, 127
3, 11520, Note_on_c, 9, 41, 127
3, 11760, Note_on_c, 9, 41, 0
3, 11760, Note_on_c, 9, 54, 0
3, 11760, Note_on_c, 9, 36, 0
3, 11760, Note_on_c, 9, 54, 127
3, 12000, Note_on_c, 9, 54, 0
3, 12000, Note_on_c, 9, 38, 127
3, 12000, Note_on_c, 9, 54, 127
3, 12240, Note_on_c, 9, 54, 0
3, 12240, Note_on_c, 9, 38, 0
3, 12240, Note_on_c, 9, 54, 127
3, 12360, Note_on_c, 9, 54, 0
3, 12360, Note_on_c, 9, 36, 127
3, 12480, Note_on_c, 9, 36, 0
3, 12480, Note_on_c, 9, 36, 127
3, 12480, Note_on_c, 9, 54, 127
3, 12720, Note_on_c, 9, 54, 0
3, 12720, Note_on_c, 9, 36, 0
3, 12720, Note_on_c, 9, 54, 127
3, 12960, Note_on_c, 9, 54, 0
3, 12960, Note_on_c, 9, 54, 127
3, 12960, Note_on_c, 9, 38, 127
3, 13200, Note_on_c, 9, 38, 0
3, 13200, Note_on_c, 9, 54, 0
3, 13200, Note_on_c, 9, 54, 127
3, 13320, Note_on_c, 9, 54, 0
3, 13320, Note_on_c, 9, 36, 127
3, 13380, Note_on_c, 9, 36, 0
3, 13410, Note_on_c, 9, 43, 127
3, 13440, Note_on_c, 9, 43, 0
3, 13440, Note_on_c, 9, 54, 127
3, 13440, Note_on_c, 9, 36, 127
3, 13440, Note_on_c, 9, 41, 127
3, 13680, Note_on_c, 9, 41, 0
3, 13680, Note_on_c, 9, 36, 0
3, 13680, Note_on_c, 9, 54, 0
3, 13680, Note_on_c, 9, 54, 127
3, 13920, Note_on_c, 9, 54, 0
3, 13920, Note_on_c, 9, 38, 127
3, 13920, Note_on_c, 9, 54, 127
3, 14160, Note_on_c, 9, 54, 0
3, 14160, Note_on_c, 9, 38, 0
3, 14160, Note_on_c, 9, 54, 127
3, 14280, Note_on_c, 9, 54, 0
3, 14280, Note_on_c, 9, 36, 127
3, 14400, Note_on_c, 9, 36, 0
3, 14400, Note_on_c, 9, 54, 127
3, 14520, Note_on_c, 9, 54, 0
3, 14640, Note_on_c, 9, 54, 127
3, 14640, Note_on_c, 9, 36, 127
3, 14760, Note_on_c, 9, 36, 0
3, 14880, Note_on_c, 9, 54, 0
3, 14880, Note_on_c, 9, 38, 127
3, 14880, Note_on_c, 9, 54, 127
3, 14999, Control_c, 9, 10, 0
3, 15000, Note_on_c, 9, 54, 0
3, 15000, Note_on_c, 9, 38, 0
3, 15000, Note_on_c, 9, 54, 100
3, 15080, Control_c, 9, 10, 64
3, 15120, Note_on_c, 9, 54, 0
3, 15120, Note_on_c, 9, 36, 127
3, 15120, Note_on_c, 9, 54, 127
3, 15180, Control_c, 9, 10, 0
3, 15240, Note_on_c, 9, 54, 0
3, 15240, Note_on_c, 9, 36, 0
3, 15240, Note_on_c, 9, 54, 100
3, 15280, Control_c, 9, 10, 64
3, 15330, Note_on_c, 9, 43, 100
3, 15360, Note_on_c, 9, 43, 0
3, 15360, Note_on_c, 9, 54, 0
3, 15360, Note_on_c, 9, 41, 127
3, 15360, Note_on_c, 9, 36, 127
3, 15360, Note_on_c, 9, 54, 127
3, 15600, Note_on_c, 9, 54, 0
3, 15600, Note_on_c, 9, 36, 0
3, 15600, Note_on_c, 9, 41, 0
3, 15600, Note_on_c, 9, 54, 127
3, 15840, Note_on_c, 9, 54, 0
3, 15840, Note_on_c, 9, 38, 127
3, 15840, Note_on_c, 9, 54, 127
3, 16080, Note_on_c, 9, 54, 0
3, 16080, Note_on_c, 9, 38, 0
3, 16080, Note_on_c, 9, 54, 127
3, 16200, Note_on_c, 9, 54, 0
3, 16200, Note_on_c, 9, 36, 127
3, 16320, Note_on_c, 9, 36, 0
3, 16320, Note_on_c, 9, 36, 127
3, 16320, Note_on_c, 9, 54, 127
3, 16560, Note_on_c, 9, 54, 0
3, 16560, Note_on_c, 9, 36, 0
3, 16560, Note_on_c, 9, 54, 127
3, 16800, Note_on_c, 9, 54, 0
3, 16800, Note_on_c, 9, 38, 127
3, 16800, Note_on_c, 9, 54, 127
3, 17040, Note_on_c, 9, 54, 0
3, 17040, Note_on_c, 9, 38, 0
3, 17040, Note_on_c, 9, 54, 127
3, 17160, Note_on_c, 9, 54, 0
3, 17160, Note_on_c, 9, 36, 127
3, 17220, Note_on_c, 9, 36, 0
3, 17250, Note_on_c, 9, 43, 127
3, 17280, Note_on_c, 9, 43, 0
3, 17280, Note_on_c, 9, 54, 127
3, 17280, Note_on_c, 9, 36, 127
3, 17280, Note_on_c, 9, 41, 127
3, 17520, Note_on_c, 9, 41, 0
3, 17520, Note_on_c, 9, 36, 0
3, 17520, Note_on_c, 9, 54, 0
3, 17520, Note_on_c, 9, 54, 127
3, 17760, Note_on_c, 9, 54, 0
3, 17760, Note_on_c, 9, 38, 127
3, 17760, Note_on_c, 9, 54, 127
3, 18000, Note_on_c, 9, 54, 0
3, 18000, Note_on_c, 9, 38, 0
3, 18000, Note_on_c, 9, 54, 127
3, 18120, Note_on_c, 9, 54, 0
3, 18120, Note_on_c, 9, 36, 127
3, 18240, Note_on_c, 9, 36, 0
3, 18240, Note_on_c, 9, 54, 127
3, 18360, Note_on_c, 9, 54, 0
3, 18480, Note_on_c, 9, 54, 127
3, 18480, Note_on_c, 9, 36, 127
3, 18600, Note_on_c, 9, 36, 0
3, 18720, Note_on_c, 9, 54, 0
3, 18720, Note_on_c, 9, 38, 127
3, 18720, Note_on_c, 9, 54, 127
3, 18840, Note_on_c, 9, 54, 0
3, 18840, Note_on_c, 9, 38, 0
3, 18840, Control_c, 9, 10, 0
3, 18840, Note_on_c, 9, 54, 100
3, 18920, Control_c, 9, 10, 64
3, 18960, Note_on_c, 9, 54, 0
3, 18960, Note_on_c, 9, 54, 127
3, 18960, Note_on_c, 9, 36, 127
3, 19020, Control_c, 9, 10, 0
3, 19080, Note_on_c, 9, 36, 0
3, 19080, Note_on_c, 9, 54, 0
3, 19080, Note_on_c, 9, 54, 100
3, 19120, Control_c, 9, 10, 64
3, 19170, Note_on_c, 9, 43, 100
3, 19200, Note_on_c, 9, 43, 0
3, 19200, Note_on_c, 9, 54, 0
3, 19200, Note_on_c, 9, 54, 127
3, 19200, Note_on_c, 9, 36, 127
3, 19200, Note_on_c, 9, 41, 127
3, 19440, Note_on_c, 9, 41, 0
3, 19440, Note_on_c, 9, 36, 0
3, 19440, Note_on_c, 9, 54, 0
3, 19440, Note_on_c, 9, 54, 127
3, 19680, Note_on_c, 9, 54, 0
3, 19680, Note_on_c, 9, 54, 127
3, 19680, Note_on_c, 9, 38, 127
3, 19920, Note_on_c, 9, 38, 0
3, 19920, Note_on_c, 9, 54, 0
3, 19920, Note_on_c, 9, 54, 127
3, 20040, Note_on_c, 9, 54, 0
3, 20040, Note_on_c, 9, 36, 127
3, 20160, Note_on_c, 9, 36, 0
3, 20160, Note_on_c, 9, 54, 127
3, 20160, Note_on_c, 9, 36, 127
3, 20400, Note_on_c, 9, 36, 0
3, 20400, Note_on_c, 9, 54, 0
3, 20400, Note_on_c, 9, 54, 127
3, 20640, Note_on_c, 9, 54, 0
3, 20640, Note_on_c, 9, 54, 127
3, 20640, Note_on_c, 9, 38, 127
3, 20880, Note_on_c, 9, 38, 0
3, 20880, Note_on_c, 9, 54, 0
3, 20880, Note_on_c, 9, 54, 127
3, 21000, Note_on_c, 9, 54, 0
3, 21000, Note_on_c, 9, 36, 127
3, 21060, Note_on_c, 9, 36, 0
3, 21090, Note_on_c, 9, 43, 127
3, 21120, Note_on_c, 9, 43, 0
3, 21120, Note_on_c, 9, 54, 127
3, 21120, Note_on_c, 9, 41, 127
3, 21120, Note_on_c, 9, 36, 127
3, 21360, Note_on_c, 9, 36, 0
3, 21360, Note_on_c, 9, 41, 0
3, 21360, Note_on_c, 9, 54, 0
3, 21360, Note_on_c, 9, 54, 127
3, 21600, Note_on_c, 9, 54, 0
3, 21600, Note_on_c, 9, 54, 127
3, 21600, Note_on_c, 9, 38, 127
3, 21840, Note_on_c, 9, 38, 0
3, 21840, Note_on_c, 9, 54, 0
3, 21840, Note_on_c, 9, 54, 127
3, 21960, Note_on_c, 9, 54, 0
3, 21960, Note_on_c, 9, 36, 127
3, 22080, Note_on_c, 9, 36, 0
3, 22080, Note_on_c, 9, 54, 127
3, 22200, Note_on_c, 9, 54, 0
3, 22320, Note_on_c, 9, 54, 127
3, 22320, Note_on_c, 9, 36, 127
3, 22440, Note_on_c, 9, 36, 0
3, 22560, Note_on_c, 9, 54, 0
3, 22560, Note_on_c, 9, 38, 127
3, 22560, Note_on_c, 9, 54, 127
3, 22680, Note_on_c, 9, 54, 0
3, 22680, Note_on_c, 9, 38, 0
3, 22800, Note_on_c, 9, 54, 127
3, 22800, Note_on_c, 9, 36, 127
3, 22920, Note_on_c, 9, 36, 0
3, 22920, Note_on_c, 9, 54, 0
3, 23010, Note_on_c, 9, 43, 100
3, 23040, Note_on_c, 9, 43, 0
3, 23040, Note_on_c, 9, 41, 127
3, 23040, Note_on_c, 9, 36, 127
3, 23040, Note_on_c, 9, 54, 127
3, 23280, Note_on_c, 9, 54, 0
3, 23280, Note_on_c, 9, 36, 0
3, 23280, Note_on_c, 9, 41, 0
3, 23280, Note_on_c, 9, 54, 127
3, 23520, Note_on_c, 9, 54, 0
3, 23520, Note_on_c, 9, 54, 127
3, 23520, Note_on_c, 9, 38, 127
3, 23760, Note_on_c, 9, 38, 0
3, 23760, Note_on_c, 9, 54, 0
3, 23760, Note_on_c, 9, 54, 127
3, 23880, Note_on_c, 9, 54, 0
3, 23880, Note_on_c, 9, 36, 127
3, 24000, Note_on_c, 9, 36, 0
3, 24000, Note_on_c, 9, 36, 127
3, 24000, Note_on_c, 9, 54, 127
3, 24240, Note_on_c, 9, 54, 0
3, 24240, Note_on_c, 9, 36, 0
3, 24240, Note_on_c, 9, 54, 127
3, 24480, Note_on_c, 9, 54, 0
3, 24480, Note_on_c, 9, 54, 127
3, 24480, Note_on_c, 9, 38, 127
3, 24720, Note_on_c, 9, 38, 0
3, 24720, Note_on_c, 9, 54, 0
3, 24720, Note_on_c, 9, 54, 127
3, 24840, Note_on_c, 9, 54, 0
3, 24840, Note_on_c, 9, 36, 127
3, 24900, Note_on_c, 9, 36, 0
3, 24930, Note_on_c, 9, 43, 127
3, 24960, Note_on_c, 9, 43, 0
3, 24960, Note_on_c, 9, 36, 127
3, 24960, Note_on_c, 9, 41, 127
3, 24960, Note_on_c, 9, 54, 127
3, 25200, Note_on_c, 9, 54, 0
3, 25200, Note_on_c, 9, 41, 0
3, 25200, Note_on_c, 9, 36, 0
3, 25200, Note_on_c, 9, 54, 127
3, 25440, Note_on_c, 9, 54, 0
3, 25440, Note_on_c, 9, 54, 127
3, 25440, Note_on_c, 9, 38, 127
3, 25680, Note_on_c, 9, 38, 0
3, 25680, Note_on_c, 9, 54, 0
3, 25680, Note_on_c, 9, 54, 127
3, 25800, Note_on_c, 9, 54, 0
3, 25800, Note_on_c, 9, 36, 127
3, 25920, Note_on_c, 9, 36, 0
3, 25920, Note_on_c, 9, 54, 127
3, 26040, Note_on_c, 9, 54, 0
3, 26160, Note_on_c, 9, 54, 127
3, 26160, Note_on_c, 9, 36, 127
3, 26280, Note_on_c, 9, 36, 0
3, 26400, Note_on_c, 9, 54, 0
3, 26400, Note_on_c, 9, 54, 127
3, 26400, Note_on_c, 9, 38, 127
3, 26520, Note_on_c, 9, 38, 0
3, 26520, Note_on_c, 9, 54, 0
3, 26640, Note_on_c, 9, 36, 127
3, 26640, Note_on_c, 9, 54, 127
3, 26760, Note_on_c, 9, 54, 0
3, 26760, Note_on_c, 9, 36, 0
3, 26850, Note_on_c, 9, 43, 100
3, 26880, Note_on_c, 9, 43, 0
3, 26880, Note_on_c, 9, 36, 127
3, 26880, Note_on_c, 9, 41, 127
3, 26880, Note_on_c, 9, 54, 127
3, 27120, Note_on_c, 9, 54, 0
3, 27120, Note_on_c, 9, 41, 0
3, 27120, Note_on_c, 9, 36, 0
3, 27120, Note_on_c, 9, 54, 127
3, 27360, Note_on_c, 9, 54, 0
3, 27360, Note_on_c, 9, 54, 127
3, 27360, Note_on_c, 9, 38, 127
3, 27600, Note_on_c, 9, 38, 0
3, 27600, Note_on_c, 9, 54, 0
3, 27600, Note_on_c, 9, 54, 127
3, 27720, Note_on_c, 9, 54, 0
3, 27720, Note_on_c, 9, 36, 127
3, 27840, Note_on_c, 9, 36, 0
3, 27840, Note_on_c, 9, 54, 127
3, 27840, Note_on_c, 9, 36, 127
3, 28080, Note_on_c, 9, 36, 0
3, 28080, Note_on_c, 9, 54, 0
3, 28080, Note_on_c, 9, 54, 127
3, 28320, Note_on_c, 9, 54, 0
3, 28320, Note_on_c, 9, 54, 127
3, 28320, Note_on_c, 9, 38, 127
3, 28560, Note_on_c, 9, 38, 0
3, 28560, Note_on_c, 9, 54, 0
3, 28560, Note_on_c, 9, 54, 127
3, 28680, Note_on_c, 9, 54, 0
3, 28680, Note_on_c, 9, 36, 127
3, 28740, Note_on_c, 9, 36, 0
3, 28770, Note_on_c, 9, 43, 127
3, 28800, Note_on_c, 9, 43, 0
3, 28800, Note_on_c, 9, 36, 127
3, 28800, Note_on_c, 9, 54, 127
3, 28800, Note_on_c, 9, 41, 127
3, 29040, Note_on_c, 9, 41, 0
3, 29040, Note_on_c, 9, 54, 0
3, 29040, Note_on_c, 9, 36, 0
3, 29040, Note_on_c, 9, 54, 127
3, 29280, Note_on_c, 9, 54, 0
3, 29280, Note_on_c, 9, 54, 127
3, 29280, Note_on_c, 9, 38, 127
3, 29520, Note_on_c, 9, 38, 0
3, 29520, Note_on_c, 9, 54, 0
3, 29520, Note_on_c, 9, 54, 127
3, 29640, Note_on_c, 9, 54, 0
3, 29640, Note_on_c, 9, 36, 127
3, 29760, Note_on_c, 9, 36, 0
3, 29760, Note_on_c, 9, 54, 127
3, 29880, Note_on_c, 9, 54, 0
3, 30000, Note_on_c, 9, 36, 127
3, 30000, Note_on_c, 9, 54, 127
3, 30120, Note_on_c, 9, 36, 0
3, 30240, Note_on_c, 9, 54, 0
3, 30240, Note_on_c, 9, 54, 127
3, 30240, Note_on_c, 9, 38, 127
3, 30360, Note_on_c, 9, 38, 0
3, 30360, Note_on_c, 9, 54, 0
3, 30480, Note_on_c, 9, 54, 127
3, 30480, Note_on_c, 9, 36, 127
3, 30600, Note_on_c, 9, 36, 0
3, 30600, Note_on_c, 9, 54, 0
3, 30690, Note_on_c, 9, 43, 100
3, 30720, Note_on_c, 9, 43, 0
3, 30720, Note_on_c, 9, 41, 127
3, 30720, Note_on_c, 9, 36, 127
3, 30720, Note_on_c, 9, 54, 127
3, 30960, Note_on_c, 9, 54, 0
3, 30960, Note_on_c, 9, 36, 0
3, 30960, Note_on_c, 9, 41, 0
3, 30960, Note_on_c, 9, 54, 127
3, 31200, Note_on_c, 9, 54, 0
3, 31200, Note_on_c, 9, 38, 127
3, 31200, Note_on_c, 9, 54, 127
3, 31440, Note_on_c, 9, 54, 0
3, 31440, Note_on_c, 9, 38, 0
3, 31440, Note_on_c, 9, 54, 127
3, 31560, Note_on_c, 9, 54, 0
3, 31560, Note_on_c, 9, 36, 127
3, 31680, Note_on_c, 9, 36, 0
3, 31680, Note_on_c, 9, 54, 127
3, 31680, Note_on_c, 9, 36, 127
3, 31920, Note_on_c, 9, 36, 0
3, 31920, Note_on_c, 9, 54, 0
3, 31920, Note_on_c, 9, 54, 127
3, 32160, Note_on_c, 9, 54, 0
3, 32160, Note_on_c, 9, 54, 127
3, 32160, Note_on_c, 9, 38, 127
3, 32400, Note_on_c, 9, 38, 0
3, 32400, Note_on_c, 9, 54, 0
3, 32400, Note_on_c, 9, 54, 127
3, 32520, Note_on_c, 9, 54, 0
3, 32520, Note_on_c, 9, 36, 127
3, 32580, Note_on_c, 9, 36, 0
3, 32610, Note_on_c, 9, 43, 127
3, 32640, Note_on_c, 9, 43, 0
3, 32640, Note_on_c, 9, 36, 127
3, 32640, Note_on_c, 9, 41, 127
3, 32640, Note_on_c, 9, 54, 127
3, 32880, Note_on_c, 9, 54, 0
3, 32880, Note_on_c, 9, 41, 0
3, 32880, Note_on_c, 9, 36, 0
3, 32880, Note_on_c, 9, 54, 127
3, 33120, Note_on_c, 9, 54, 0
3, 33120, Note_on_c, 9, 38, 127
3, 33120, Note_on_c, 9, 54, 127
3, 33360, Note_on_c, 9, 54, 0
3, 33360, Note_on_c, 9, 38, 0
3, 33360, Note_on_c, 9, 54, 127
3, 33480, Note_on_c, 9, 54, 0
3, 33480, Note_on_c, 9, 36, 127
3, 33600, Note_on_c, 9, 36, 0
3, 33600, Note_on_c, 9, 54, 127
3, 33720, Note_on_c, 9, 54, 0
3, 33840, Note_on_c, 9, 54, 127
3, 33840, Note_on_c, 9, 36, 127
3, 33960, Note_on_c, 9, 36, 0
3, 34080, Note_on_c, 9, 54, 0
3, 34080, Note_on_c, 9, 54, 127
3, 34080, Note_on_c, 9, 38, 127
3, 34200, Note_on_c, 9, 38, 0
3, 34200, Note_on_c, 9, 54, 0
3, 34320, Note_on_c, 9, 54, 127
3, 34320, Note_on_c, 9, 36, 127
3, 34440, Note_on_c, 9, 36, 0
3, 34440, Note_on_c, 9, 54, 0
3, 34530, Note_on_c, 9, 43, 100
3, 34560, Note_on_c, 9, 43, 0
3, 34560, Note_on_c, 9, 59, 127
3, 34560, Note_on_c, 9, 41, 127
3, 34560, Note_on_c, 9, 36, 127
3, 34800, Note_on_c, 9, 36, 0
3, 34800, Note_on_c, 9, 41, 0
3, 34800, Note_on_c, 9, 59, 0
3, 34800, Note_on_c, 9, 54, 127
3, 35040, Note_on_c, 9, 54, 0
3, 35040, Note_on_c, 9, 38, 127
3, 35040, Note_on_c, 9, 59, 127
3, 35280, Note_on_c, 9, 59, 0
3, 35280, Note_on_c, 9, 38, 0
3, 35280, Note_on_c, 9, 54, 127
3, 35400, Note_on_c, 9, 54, 0
3, 35400, Note_on_c, 9, 36, 127
3, 35520, Note_on_c, 9, 36, 0
3, 35520, Note_on_c, 9, 59, 127
3, 35520, Note_on_c, 9, 36, 127
3, 35760, Note_on_c, 9, 36, 0
3, 35760, Note_on_c, 9, 59, 0
3, 35760, Note_on_c, 9, 54, 127
3, 36000, Note_on_c, 9, 54, 0
3, 36000, Note_on_c, 9, 38, 127
3, 36000, Note_on_c, 9, 59, 127
3, 36240, Note_on_c, 9, 59, 0
3, 36240, Note_on_c, 9, 38, 0
3, 36240, Note_on_c, 9, 54, 127
3, 36360, Note_on_c, 9, 54, 0
3, 36360, Note_on_c, 9, 36, 127
3, 36420, Note_on_c, 9, 36, 0
3, 36450, Note_on_c, 9, 43, 127
3, 36480, Note_on_c, 9, 43, 0
3, 36480, Note_on_c, 9, 59, 127
3, 36480, Note_on_c, 9, 36, 127
3, 36480, Note_on_c, 9, 41, 127
3, 36720, Note_on_c, 9, 41, 0
3, 36720, Note_on_c, 9, 36, 0
3, 36720, Note_on_c, 9, 59, 0
3, 36720, Note_on_c, 9, 54, 127
3, 36960, Note_on_c, 9, 54, 0
3, 36960, Note_on_c, 9, 59, 127
3, 36960, Note_on_c, 9, 38, 127
3, 37200, Note_on_c, 9, 38, 0
3, 37200, Note_on_c, 9, 59, 0
3, 37200, Note_on_c, 9, 54, 127
3, 37320, Note_on_c, 9, 54, 0
3, 37320, Note_on_c, 9, 36, 127
3, 37440, Note_on_c, 9, 36, 0
3, 37440, Note_on_c, 9, 59, 127
3, 37560, Note_on_c, 9, 59, 0
3, 37680, Note_on_c, 9, 54, 127
3, 37680, Note_on_c, 9, 36, 127
3, 37800, Note_on_c, 9, 36, 0
3, 37920, Note_on_c, 9, 54, 0
3, 37920, Note_on_c, 9, 38, 127
3, 37920, Note_on_c, 9, 59, 127
3, 38040, Note_on_c, 9, 59, 0
3, 38040, Note_on_c, 9, 38, 0
3, 38160, Note_on_c, 9, 36, 127
3, 38160, Note_on_c, 9, 54, 127
3, 38280, Note_on_c, 9, 54, 0
3, 38280, Note_on_c, 9, 36, 0
3, 38370, Note_on_c, 9, 43, 100
3, 38400, Note_on_c, 9, 43, 0
3, 38400, Note_on_c, 9, 36, 127
3, 38400, Note_on_c, 9, 59, 127
3, 38400, Note_on_c, 9, 41, 127
3, 38640, Note_on_c, 9, 41, 0
3, 38640, Note_on_c, 9, 59, 0
3, 38640, Note_on_c, 9, 36, 0
3, 38640, Note_on_c, 9, 54, 127
3, 38880, Note_on_c, 9, 54, 0
3, 38880, Note_on_c, 9, 59, 127
3, 38880, Note_on_c, 9, 38, 127
3, 39120, Note_on_c, 9, 38, 0
3, 39120, Note_on_c, 9, 59, 0
3, 39120, Note_on_c, 9, 54, 127
3, 39240, Note_on_c, 9, 54, 0
3, 39240, Note_on_c, 9, 36, 127
3, 39360, Note_on_c, 9, 36, 0
3, 39360, Note_on_c, 9, 36, 127
3, 39360, Note_on_c, 9, 59, 127
3, 39600, Note_on_c, 9, 59, 0
3, 39600, Note_on_c, 9, 36, 0
3, 39600, Note_on_c, 9, 54, 127
3, 39840, Note_on_c, 9, 54, 0
3, 39840, Note_on_c, 9, 38, 127
3, 39840, Note_on_c, 9, 59, 127
3, 40080, Note_on_c, 9, 59, 0
3, 40080, Note_on_c, 9, 38, 0
3, 40080, Note_on_c, 9, 54, 127
3, 40200, Note_on_c, 9, 54, 0
3, 40200, Note_on_c, 9, 36, 127
3, 40260, Note_on_c, 9, 36, 0
3, 40290, Note_on_c, 9, 43, 127
3, 40320, Note_on_c, 9, 43, 0
3, 40320, Note_on_c, 9, 59, 127
3, 40320, Note_on_c, 9, 36, 127
3, 40320, Note_on_c, 9, 41, 127
3, 40560, Note_on_c, 9, 41, 0
3, 40560, Note_on_c, 9, 36, 0
3, 40560, Note_on_c, 9, 59, 0
3, 40560, Note_on_c, 9, 54, 127
3, 40800, Note_on_c, 9, 54, 0
3, 40800, Note_on_c, 9, 59, 127
3, 40800, Note_on_c, 9, 38, 127
3, 41040, Note_on_c, 9, 38, 0
3, 41040, Note_on_c, 9, 59, 0
3, 41040, Note_on_c, 9, 54, 127
3, 41160, Note_on_c, 9, 54, 0
3, 41160, Note_on_c, 9, 36, 127
3, 41280, Note_on_c, 9, 36, 0
3, 41280, Note_on_c, 9, 59, 127
3, 41400, Note_on_c, 9, 59, 0
3, 41520, Note_on_c, 9, 36, 127
3, 41520, Note_on_c, 9, 54, 127
3, 41640, Note_on_c, 9, 36, 0
3, 41760, Note_on_c, 9, 54, 0
3, 41760, Note_on_c, 9, 38, 127
3, 41760, Note_on_c, 9, 59, 127
3, 41880, Note_on_c, 9, 59, 0
3, 41880, Note_on_c, 9, 38, 0
3, 42000, Note_on_c, 9, 54, 127
3, 42000, Note_on_c, 9, 36, 127
3, 42120, Note_on_c, 9, 36, 0
3, 42120, Note_on_c, 9, 54, 0
3, 42210, Note_on_c, 9, 43, 100
3, 42240, Note_on_c, 9, 43, 0
3, 42240, Note_on_c, 9, 59, 127
3, 42240, Note_on_c, 9, 36, 127
3, 42240, Note_on_c, 9, 41, 127
3, 42480, Note_on_c, 9, 41, 0
3, 42480, Note_on_c, 9, 36, 0
3, 42480, Note_on_c, 9, 59, 0
3, 42480, Note_on_c, 9, 54, 127
3, 42720, Note_on_c, 9, 54, 0
3, 42720, Note_on_c, 9, 59, 127
3, 42720, Note_on_c, 9, 38, 127
3, 42960, Note_on_c, 9, 38, 0
3, 42960, Note_on_c, 9, 59, 0
3, 42960, Note_on_c, 9, 54, 127
3, 43080, Note_on_c, 9, 54, 0
3, 43080, Note_on_c, 9, 36, 127
3, 43200, Note_on_c, 9, 36, 0
3, 43200, Note_on_c, 9, 36, 127
3, 43200, Note_on_c, 9, 59, 127
3, 43440, Note_on_c, 9, 59, 0
3, 43440, Note_on_c, 9, 36, 0
3, 43440, Note_on_c, 9, 54, 127
3, 43680, Note_on_c, 9, 54, 0
3, 43680, Note_on_c, 9, 59, 127
3, 43680, Note_on_c, 9, 38, 127
3, 43920, Note_on_c, 9, 38, 0
3, 43920, Note_on_c, 9, 59, 0
3, 43920, Note_on_c, 9, 54, 127
3, 44040, Note_on_c, 9, 54, 0
3, 44040, Note_on_c, 9, 36, 127
3, 44100, Note_on_c, 9, 36, 0
3, 44130, Note_on_c, 9, 43, 127
3, 44160, Note_on_c, 9, 43, 0
3, 44160, Note_on_c, 9, 41, 127
3, 44160, Note_on_c, 9, 59, 127
3, 44160, Note_on_c, 9, 36, 127
3, 44400, Note_on_c, 9, 36, 0
3, 44400, Note_on_c, 9, 59, 0
3, 44400, Note_on_c, 9, 41, 0
3, 44400, Note_on_c, 9, 54, 127
3, 44640, Note_on_c, 9, 54, 0
3, 44640, Note_on_c, 9, 59, 127
3, 44640, Note_on_c, 9, 38, 127
3, 44880, Note_on_c, 9, 38, 0
3, 44880, Note_on_c, 9, 59, 0
3, 44880, Note_on_c, 9, 54, 127
3, 45000, Note_on_c, 9, 54, 0
3, 45000, Note_on_c, 9, 36, 127
3, 45120, Note_on_c, 9, 36, 0
3, 45120, Note_on_c, 9, 59, 127
3, 45240, Note_on_c, 9, 59, 0
3, 45360, Note_on_c, 9, 36, 127
3, 45360, Note_on_c, 9, 54, 127
3, 45480, Note_on_c, 9, 36, 0
3, 45600, Note_on_c, 9, 54, 0
3, 45600, Note_on_c, 9, 59, 127
3, 45600, Note_on_c, 9, 38, 127
3, 45720, Note_on_c, 9, 38, 0
3, 45720, Note_on_c, 9, 59, 0
3, 45840, Note_on_c, 9, 36, 127
3, 45840, Note_on_c, 9, 54, 127
3, 45960, Note_on_c, 9, 54, 0
3, 45960, Note_on_c, 9, 36, 0
3, 46050, Note_on_c, 9, 43, 100
3, 46080, Note_on_c, 9, 43, 0
3, 46080, Note_on_c, 9, 59, 127
3, 46080, Note_on_c, 9, 36, 127
3, 46080, Note_on_c, 9, 41, 127
3, 46320, Note_on_c, 9, 41, 0
3, 46320, Note_on_c, 9, 36, 0
3, 46320, Note_on_c, 9, 59, 0
3, 46320, Note_on_c, 9, 54, 127
3, 46560, Note_on_c, 9, 54, 0
3, 46560, Note_on_c, 9, 59, 127
3, 46560, Note_on_c, 9, 38, 127
3, 46800, Note_on_c, 9, 38, 0
3, 46800, Note_on_c, 9, 59, 0
3, 46800, Note_on_c, 9, 54, 127
3, 46920, Note_on_c, 9, 54, 0
3, 46920, Note_on_c, 9, 36, 127
3, 47040, Note_on_c, 9, 36, 0
3, 47040, Note_on_c, 9, 59, 127
3, 47040, Note_on_c, 9, 36, 127
3, 47280, Note_on_c, 9, 36, 0
3, 47280, Note_on_c, 9, 59, 0
3, 47280, Note_on_c, 9, 54, 127
3, 47520, Note_on_c, 9, 54, 0
3, 47520, Note_on_c, 9, 59, 127
3, 47520, Note_on_c, 9, 38, 127
3, 47760, Note_on_c, 9, 38, 0
3, 47760, Note_on_c, 9, 59, 0
3, 47760, Note_on_c, 9, 54, 127
3, 47880, Note_on_c, 9, 54, 0
3, 47880, Note_on_c, 9, 36, 127
3, 47940, Note_on_c, 9, 36, 0
3, 47970, Note_on_c, 9, 43, 127
3, 48000, Note_on_c, 9, 43, 0
3, 48000, Note_on_c, 9, 41, 127
3, 48000, Note_on_c, 9, 36, 127
3, 48000, Note_on_c, 9, 59, 127
3, 48240, Note_on_c, 9, 59, 0
3, 48240, Note_on_c, 9, 36, 0
3, 48240, Note_on_c, 9, 41, 0
3, 48240, Note_on_c, 9, 54, 127
3, 48480, Note_on_c, 9, 54, 0
3, 48480, Note_on_c, 9, 59, 127
3, 48480, Note_on_c, 9, 38, 127
3, 48720, Note_on_c, 9, 38, 0
3, 48720, Note_on_c, 9, 59, 0
3, 48720, Note_on_c, 9, 54, 127
3, 48840, Note_on_c, 9, 54, 0
3, 48840, Note_on_c, 9, 36, 127
3, 48960, Note_on_c, 9, 36, 0
3, 48960, Note_on_c, 9, 59, 127
3, 49080, Note_on_c, 9, 59, 0
3, 49200, Note_on_c, 9, 36, 127
3, 49200, Note_on_c, 9, 54, 127
3, 49320, Note_on_c, 9, 36, 0
3, 49440, Note_on_c, 9, 54, 0
3, 49440, Note_on_c, 9, 38, 127
3, 49440, Note_on_c, 9, 59, 127
3, 49560, Note_on_c, 9, 59, 0
3, 49560, Note_on_c, 9, 38, 0
3, 49680, Note_on_c, 9, 36, 127
3, 49680, Note_on_c, 9, 54, 127
3, 49800, Note_on_c, 9, 54, 0
3, 49800, Note_on_c, 9, 36, 0
3, 49920, Note_on_c, 9, 49, 100
3, 49920, Note_on_c, 9, 36, 100
3, 50400, Note_on_c, 9, 36, 0
3, 50400, Note_on_c, 9, 38, 127
3, 50640, Note_on_c, 9, 38, 0
3, 50760, Note_on_c, 9, 36, 127
3, 50880, Note_on_c, 9, 36, 0
3, 50880, Note_on_c, 9, 36, 127
3, 51120, Note_on_c, 9, 36, 0
3, 51360, Note_on_c, 9, 38, 127
3, 51600, Note_on_c, 9, 38, 0
3, 51720, Note_on_c, 9, 36, 127
3, 51780, Note_on_c, 9, 36, 0
3, 51840, Note_on_c, 9, 49, 0
3, 51840, Note_on_c, 9, 36, 127
3, 52080, Note_on_c, 9, 36, 0
3, 52320, Note_on_c, 9, 38, 127
3, 52560, Note_on_c, 9, 38, 0
3, 52680, Note_on_c, 9, 36, 127
3, 52800, Note_on_c, 9, 36, 0
3, 53040, Note_on_c, 9, 36, 127
3, 53160, Note_on_c, 9, 36, 0
3, 53280, Note_on_c, 9, 38, 127
3, 53400, Note_on_c, 9, 38, 0
3, 53520, Note_on_c, 9, 36, 127
3, 53640, Note_on_c, 9, 36, 0
3, 53730, Note_on_c, 9, 43, 100
3, 53760, Note_on_c, 9, 43, 0
3, 53760, Note_on_c, 9, 36, 127
3, 53760, Note_on_c, 9, 54, 127
3, 53760, Note_on_c, 9, 41, 127
3, 54000, Note_on_c, 9, 41, 0
3, 54000, Note_on_c, 9, 54, 0
3, 54000, Note_on_c, 9, 36, 0
3, 54000, Note_on_c, 9, 54, 127
3, 54240, Note_on_c, 9, 54, 0
3, 54240, Note_on_c, 9, 38, 127
3, 54240, Note_on_c, 9, 54, 127
3, 54480, Note_on_c, 9, 54, 0
3, 54480, Note_on_c, 9, 38, 0
3, 54480, Note_on_c, 9, 54, 127
3, 54600, Note_on_c, 9, 54, 0
3, 54600, Note_on_c, 9, 36, 127
3, 54720, Note_on_c, 9, 36, 0
3, 54720, Note_on_c, 9, 54, 127
3, 54720, Note_on_c, 9, 36, 127
3, 54960, Note_on_c, 9, 36, 0
3, 54960, Note_on_c, 9, 54, 0
3, 54960, Note_on_c, 9, 54, 127
3, 55200, Note_on_c, 9, 54, 0
3, 55200, Note_on_c, 9, 38, 127
3, 55200, Note_on_c, 9, 54, 127
3, 55319, Control_c, 9, 10, 0
3, 55320, Note_on_c, 9, 54, 0
3, 55320, Note_on_c, 9, 38, 0
3, 55320, Note_on_c, 9, 54, 100
3, 55400, Control_c, 9, 10, 64
3, 55440, Note_on_c, 9, 54, 0
3, 55440, Note_on_c, 9, 36, 127
3, 55440, Note_on_c, 9, 54, 127
3, 55500, Control_c, 9, 10, 0
3, 55560, Note_on_c, 9, 54, 0
3, 55560, Note_on_c, 9, 36, 0
3, 55560, Note_on_c, 9, 54, 100
3, 55600, Control_c, 9, 10, 64
3, 55650, Note_on_c, 9, 43, 100
3, 55680, Note_on_c, 9, 43, 0
3, 55680, Note_on_c, 9, 54, 0
3, 55680, Note_on_c, 9, 41, 100
3, 55680, Note_on_c, 9, 54, 100
3, 55680, Note_on_c, 9, 36, 100
3, 55920, Note_on_c, 9, 36, 0
3, 55920, Note_on_c, 9, 54, 0
3, 55920, Note_on_c, 9, 41, 0
3, 55920, Note_on_c, 9, 54, 127
3, 56160, Note_on_c, 9, 54, 0
3, 56160, Note_on_c, 9, 38, 127
3, 56160, Note_on_c, 9, 54, 127
3, 56400, Note_on_c, 9, 54, 0
3, 56400, Note_on_c, 9, 38, 0
3, 56400, Note_on_c, 9, 54, 127
3, 56520, Note_on_c, 9, 54, 0
3, 56520, Note_on_c, 9, 36, 127
3, 56640, Note_on_c, 9, 36, 0
3, 56640, Note_on_c, 9, 54, 127
3, 56760, Note_on_c, 9, 54, 0
3, 56880, Note_on_c, 9, 54, 127
3, 56880, Note_on_c, 9, 36, 127
3, 57000, Note_on_c, 9, 36, 0
3, 57120, Note_on_c, 9, 54, 0
3, 57120, Note_on_c, 9, 54, 127
3, 57120, Note_on_c, 9, 38, 127
3, 57239, Control_c, 9, 10, 0
3, 57240, Note_on_c, 9, 38, 0
3, 57240, Note_on_c, 9, 54, 0
3, 57240, Note_on_c, 9, 54, 100
3, 57320, Control_c, 9, 10, 64
3, 57360, Note_on_c, 9, 54, 0
3, 57360, Note_on_c, 9, 54, 127
3, 57360, Note_on_c, 9, 36, 127
3, 57420, Control_c, 9, 10, 0
3, 57480, Note_on_c, 9, 36, 0
3, 57480, Note_on_c, 9, 54, 0
3, 57480, Note_on_c, 9, 54, 100
3, 57520, Control_c, 9, 10, 64
3, 57570, Note_on_c, 9, 43, 100
3, 57600, Note_on_c, 9, 43, 0
3, 57600, Note_on_c, 9, 54, 0
3, 57600, Note_on_c, 9, 36, 127
3, 57600, Note_on_c, 9, 54, 127
3, 57600, Note_on_c, 9, 41, 127
3, 57840, Note_on_c, 9, 41, 0
3, 57840, Note_on_c, 9, 54, 0
3, 57840, Note_on_c, 9, 36, 0
3, 57840, Note_on_c, 9, 54, 127
3, 58080, Note_on_c, 9, 54, 0
3, 58080, Note_on_c, 9, 54, 127
3, 58080, Note_on_c, 9, 38, 127
3, 58320, Note_on_c, 9, 38, 0
3, 58320, Note_on_c, 9, 54, 0
3, 58320, Note_on_c, 9, 54, 127
3, 58440, Note_on_c, 9, 54, 0
3, 58440, Note_on_c, 9, 36, 127
3, 58560, Note_on_c, 9, 36, 0
3, 58560, Note_on_c, 9, 36, 127
3, 58560, Note_on_c, 9, 54, 127
3, 58800, Note_on_c, 9, 54, 0
3, 58800, Note_on_c, 9, 36, 0
3, 58800, Note_on_c, 9, 54, 127
3, 59040, Note_on_c, 9, 54, 0
3, 59040, Note_on_c, 9, 38, 127
3, 59040, Note_on_c, 9, 54, 127
3, 59159, Control_c, 9, 10, 0
3, 59160, Note_on_c, 9, 54, 0
3, 59160, Note_on_c, 9, 38, 0
3, 59160, Note_on_c, 9, 54, 100
3, 59240, Control_c, 9, 10, 64
3, 59280, Note_on_c, 9, 54, 0
3, 59280, Note_on_c, 9, 36, 127
3, 59280, Note_on_c, 9, 54, 127
3, 59340, Control_c, 9, 10, 0
3, 59400, Note_on_c, 9, 54, 0
3, 59400, Note_on_c, 9, 36, 0
3, 59400, Note_on_c, 9, 54, 100
3, 59440, Control_c, 9, 10, 64
3, 59490, Note_on_c, 9, 43, 100
3, 59520, Note_on_c, 9, 43, 0
3, 59520, Note_on_c, 9, 54, 0
3, 59520, Note_on_c, 9, 36, 100
3, 59520, Note_on_c, 9, 54, 100
3, 59520, Note_on_c, 9, 41, 100
3, 59760, Note_on_c, 9, 41, 0
3, 59760, Note_on_c, 9, 54, 0
3, 59760, Note_on_c, 9, 36, 0
3, 59760, Note_on_c, 9, 54, 127
3, 60000, Note_on_c, 9, 54, 0
3, 60000, Note_on_c, 9, 54, 100
3, 60000, Note_on_c, 9, 38, 100
3, 60240, Note_on_c, 9, 38, 0
3, 60240, Note_on_c, 9, 54, 0
3, 60240, Note_on_c, 9, 54, 127
3, 60360, Note_on_c, 9, 54, 0
3, 60360, Note_on_c, 9, 36, 127
3, 60480, Note_on_c, 9, 36, 0
3, 60480, Note_on_c, 9, 54, 127
3, 60600, Note_on_c, 9, 54, 0
3, 60720, Note_on_c, 9, 54, 127
3, 60720, Note_on_c, 9, 36, 127
3, 60840, Note_on_c, 9, 36, 0
3, 60960, Note_on_c, 9, 54, 0
3, 60960, Note_on_c, 9, 38, 127
3, 60960, Note_on_c, 9, 54, 127
3, 61079, Control_c, 9, 10, 0
3, 61080, Note_on_c, 9, 54, 0
3, 61080, Note_on_c, 9, 38, 0
3, 61080, Note_on_c, 9, 54, 100
3, 61160, Control_c, 9, 10, 64
3, 61200, Note_on_c, 9, 54, 0
3, 61200, Note_on_c, 9, 36, 127
3, 61200, Note_on_c, 9, 54, 127
3, 61260, Control_c, 9, 10, 0
3, 61320, Note_on_c, 9, 54, 0
3, 61320, Note_on_c, 9, 36, 0
3, 61320, Note_on_c, 9, 54, 100
3, 61360, Control_c, 9, 10, 64
3, 61410, Note_on_c, 9, 43, 100
3, 61440, Note_on_c, 9, 43, 0
3, 61440, Note_on_c, 9, 54, 0
3, 61440, Note_on_c, 9, 36, 127
3, 61440, Note_on_c, 9, 41, 127
3, 61440, Note_on_c, 9, 54, 127
3, 61680, Note_on_c, 9, 54, 0
3, 61680, Note_on_c, 9, 41, 0
3, 61680, Note_on_c, 9, 36, 0
3, 61680, Note_on_c, 9, 54, 127
3, 61920, Note_on_c, 9, 54, 0
3, 61920, Note_on_c, 9, 38, 127
3, 61920, Note_on_c, 9, 54, 127
3, 62160, Note_on_c, 9, 54, 0
3, 62160, Note_on_c, 9, 38, 0
3, 62160, Note_on_c, 9, 54, 127
3, 62280, Note_on_c, 9, 54, 0
3, 62280, Note_on_c, 9, 36, 127
3, 62400, Note_on_c, 9, 36, 0
3, 62400, Note_on_c, 9, 54, 127
3, 62400, Note_on_c, 9, 36, 127
3, 62640, Note_on_c, 9, 36, 0
3, 62640, Note_on_c, 9, 54, 0
3, 62640, Note_on_c, 9, 54, 127
3, 62880, Note_on_c, 9, 54, 0
3, 62880, Note_on_c, 9, 54, 127
3, 62880, Note_on_c, 9, 38, 127
3, 63120, Note_on_c, 9, 38, 0
3, 63120, Note_on_c, 9, 54, 0
3, 63120, Note_on_c, 9, 54, 127
3, 63240, Note_on_c, 9, 54, 0
3, 63240, Note_on_c, 9, 36, 127
3, 63300, Note_on_c, 9, 36, 0
3, 63330, Note_on_c, 9, 43, 127
3, 63360, Note_on_c, 9, 43, 0
3, 63360, Note_on_c, 9, 54, 127
3, 63360, Note_on_c, 9, 36, 127
3, 63360, Note_on_c, 9, 41, 127
3, 63600, Note_on_c, 9, 41, 0
3, 63600, Note_on_c, 9, 36, 0
3, 63600, Note_on_c, 9, 54, 0
3, 63600, Note_on_c, 9, 54, 127
3, 63840, Note_on_c, 9, 54, 0
3, 63840, Note_on_c, 9, 38, 127
3, 63840, Note_on_c, 9, 54, 127
3, 64080, Note_on_c, 9, 54, 0
3, 64080, Note_on_c, 9, 38, 0
3, 64080, Note_on_c, 9, 54, 127
3, 64200, Note_on_c, 9, 54, 0
3, 64200, Note_on_c, 9, 36, 127
3, 64320, Note_on_c, 9, 36, 0
3, 64320, Note_on_c, 9, 54, 127
3, 64440, Note_on_c, 9, 54, 0
3, 64560, Note_on_c, 9, 36, 127
3, 64560, Note_on_c, 9, 54, 127
3, 64680, Note_on_c, 9, 36, 0
3, 64800, Note_on_c, 9, 54, 0
3, 64800, Note_on_c, 9, 38, 127
3, 64800, Note_on_c, 9, 54, 127
3, 64920, Note_on_c, 9, 54, 0
3, 64920, Note_on_c, 9, 38, 0
3, 65040, Note_on_c, 9, 54, 127
3, 65040, Note_on_c, 9, 36, 127
3, 65160, Note_on_c, 9, 36, 0
3, 65160, Note_on_c, 9, 54, 0
3, 65250, Note_on_c, 9, 43, 100
3, 65280, Note_on_c, 9, 43, 0
3, 65280, Note_on_c, 9, 36, 127
3, 65280, Note_on_c, 9, 54, 127
3, 65280, Note_on_c, 9, 41, 127
3, 65520, Note_on_c, 9, 41, 0
3, 65520, Note_on_c, 9, 54, 0
3, 65520, Note_on_c, 9, 36, 0
3, 65520, Note_on_c, 9, 54, 127
3, 65760, Note_on_c, 9, 54, 0
3, 65760, Note_on_c, 9, 54, 127
3, 65760, Note_on_c, 9, 38, 127
3, 66000, Note_on_c, 9, 38, 0
3, 66000, Note_on_c, 9, 54, 0
3, 66000, Note_on_c, 9, 54, 127
3, 66120, Note_on_c, 9, 54, 0
3, 66120, Note_on_c, 9, 36, 127
3, 66240, Note_on_c, 9, 36, 0
3, 66240, Note_on_c, 9, 36, 127
3, 66240, Note_on_c, 9, 54, 127
3, 66480, Note_on_c, 9, 54, 0
3, 66480, Note_on_c, 9, 36, 0
3, 66480, Note_on_c, 9, 54, 127
3, 66720, Note_on_c, 9, 54, 0
3, 66720, Note_on_c, 9, 54, 127
3, 66720, Note_on_c, 9, 38, 127
3, 66960, Note_on_c, 9, 38, 0
3, 66960, Note_on_c, 9, 54, 0
3, 66960, Note_on_c, 9, 54, 127
3, 67080, Note_on_c, 9, 54, 0
3, 67080, Note_on_c, 9, 36, 127
3, 67140, Note_on_c, 9, 36, 0
3, 67170, Note_on_c, 9, 43, 127
3, 67200, Note_on_c, 9, 43, 0
3, 67200, Note_on_c, 9, 36, 127
3, 67200, Note_on_c, 9, 41, 127
3, 67200, Note_on_c, 9, 54, 127
3, 67440, Note_on_c, 9, 54, 0
3, 67440, Note_on_c, 9, 41, 0
3, 67440, Note_on_c, 9, 36, 0
3, 67440, Note_on_c, 9, 54, 127
3, 67680, Note_on_c, 9, 54, 0
3, 67680, Note_on_c, 9, 38, 127
3, 67680, Note_on_c, 9, 54, 127
3, 67920, Note_on_c, 9, 54, 0
3, 67920, Note_on_c, 9, 38, 0
3, 67920, Note_on_c, 9, 54, 127
3, 68040, Note_on_c, 9, 54, 0
3, 68040, Note_on_c, 9, 36, 127
3, 68160, Note_on_c, 9, 36, 0
3, 68160, Note_on_c, 9, 54, 127
3, 68280, Note_on_c, 9, 54, 0
3, 68400, Note_on_c, 9, 36, 127
3, 68400, Note_on_c, 9, 54, 127
3, 68520, Note_on_c, 9, 36, 0
3, 68640, Note_on_c, 9, 54, 0
3, 68640, Note_on_c, 9, 38, 127
3, 68640, Note_on_c, 9, 54, 127
3, 68760, Note_on_c, 9, 54, 0
3, 68760, Note_on_c, 9, 38, 0
3, 68880, Note_on_c, 9, 36, 127
3, 68880, Note_on_c, 9, 54, 127
3, 69000, Note_on_c, 9, 54, 0
3, 69000, Note_on_c, 9, 36, 0
3, 69090, Note_on_c, 9, 43, 100
3, 69120, Note_on_c, 9, 43, 0
3, 69120, Note_on_c, 9, 36, 127
3, 69120, Note_on_c, 9, 41, 127
3, 69120, Note_on_c, 9, 54, 127
3, 69360, Note_on_c, 9, 54, 0
3, 69360, Note_on_c, 9, 41, 0
3, 69360, Note_on_c, 9, 36, 0
3, 69360, Note_on_c, 9, 54, 127
3, 69600, Note_on_c, 9, 54, 0
3, 69600, Note_on_c, 9, 54, 127
3, 69600, Note_on_c, 9, 38, 127
3, 69840, Note_on_c, 9, 38, 0
3, 69840, Note_on_c, 9, 54, 0
3, 69840, Note_on_c, 9, 54, 127
3, 69960, Note_on_c, 9, 54, 0
3, 69960, Note_on_c, 9, 36, 127
3, 70080, Note_on_c, 9, 36, 0
3, 70080, Note_on_c, 9, 36, 127
3, 70080, Note_on_c, 9, 54, 127
3, 70320, Note_on_c, 9, 54, 0
3, 70320, Note_on_c, 9, 36, 0
3, 70320, Note_on_c, 9, 54, 127
3, 70560, Note_on_c, 9, 54, 0
3, 70560, Note_on_c, 9, 38, 127
3, 70560, Note_on_c, 9, 54, 127
3, 70800, Note_on_c, 9, 54, 0
3, 70800, Note_on_c, 9, 38, 0
3, 70800, Note_on_c, 9, 54, 127
3, 70920, Note_on_c, 9, 54, 0
3, 70920, Note_on_c, 9, 36, 127
3, 70980, Note_on_c, 9, 36, 0
3, 71010, Note_on_c, 9, 43, 127
3, 71040, Note_on_c, 9, 43, 0
3, 71040, Note_on_c, 9, 41, 127
3, 71040, Note_on_c, 9, 36, 127
3, 71040, Note_on_c, 9, 54, 127
3, 71280, Note_on_c, 9, 54, 0
3, 71280, Note_on_c, 9, 36, 0
3, 71280, Note_on_c, 9, 41, 0
3, 71280, Note_on_c, 9, 54, 127
3, 71520, Note_on_c, 9, 54, 0
3, 71520, Note_on_c, 9, 54, 127
3, 71520, Note_on_c, 9, 38, 127
3, 71760, Note_on_c, 9, 38, 0
3, 71760, Note_on_c, 9, 54, 0
3, 71760, Note_on_c, 9, 54, 127
3, 71880, Note_on_c, 9, 54, 0
3, 71880, Note_on_c, 9, 36, 127
3, 72000, Note_on_c, 9, 36, 0
3, 72000, Note_on_c, 9, 54, 127
3, 72120, Note_on_c, 9, 54, 0
3, 72240, Note_on_c, 9, 36, 127
3, 72240, Note_on_c, 9, 54, 127
3, 72360, Note_on_c, 9, 36, 0
3, 72480, Note_on_c, 9, 54, 0
3, 72480, Note_on_c, 9, 54, 127
3, 72480, Note_on_c, 9, 38, 127
3, 72600, Note_on_c, 9, 38, 0
3, 72600, Note_on_c, 9, 54, 0
3, 72720, Note_on_c, 9, 36, 127
3, 72720, Note_on_c, 9, 54, 127
3, 72840, Note_on_c, 9, 54, 0
3, 72840, Note_on_c, 9, 36, 0
3, 72930, Note_on_c, 9, 43, 100
3, 72960, Note_on_c, 9, 43, 0
3, 72960, Note_on_c, 9, 41, 127
3, 72960, Note_on_c, 9, 36, 127
3, 72960, Note_on_c, 9, 54, 127
3, 73200, Note_on_c, 9, 54, 0
3, 73200, Note_on_c, 9, 36, 0
3, 73200, Note_on_c, 9, 41, 0
3, 73200, Note_on_c, 9, 54, 127
3, 73440, Note_on_c, 9, 54, 0
3, 73440, Note_on_c, 9, 54, 127
3, 73440, Note_on_c, 9, 38, 127
3, 73680, Note_on_c, 9, 38, 0
3, 73680, Note_on_c, 9, 54, 0
3, 73680, Note_on_c, 9, 54, 127
3, 73800, Note_on_c, 9, 54, 0
3, 73800, Note_on_c, 9, 36, 127
3, 73920, Note_on_c, 9, 36, 0
3, 73920, Note_on_c, 9, 54, 127
3, 73920, Note_on_c, 9, 36, 127
3, 74160, Note_on_c, 9, 36, 0
3, 74160, Note_on_c, 9, 54, 0
3, 74160, Note_on_c, 9, 54, 127
3, 74400, Note_on_c, 9, 54, 0
3, 74400, Note_on_c, 9, 54, 127
3, 74400, Note_on_c, 9, 38, 127
3, 74640, Note_on_c, 9, 38, 0
3, 74640, Note_on_c, 9, 54, 0
3, 74640, Note_on_c, 9, 54, 127
3, 74760, Note_on_c, 9, 54, 0
3, 74760, Note_on_c, 9, 36, 127
3, 74820, Note_on_c, 9, 36, 0
3, 74850, Note_on_c, 9, 43, 127
3, 74880, Note_on_c, 9, 43, 0
3, 74880, Note_on_c, 9, 54, 127
3, 74880, Note_on_c, 9, 41, 127
3, 74880, Note_on_c, 9, 36, 127
3, 75120, Note_on_c, 9, 36, 0
3, 75120, Note_on_c, 9, 41, 0
3, 75120, Note_on_c, 9, 54, 0
3, 75120, Note_on_c, 9, 54, 127
3, 75360, Note_on_c, 9, 54, 0
3, 75360, Note_on_c, 9, 54, 127
3, 75360, Note_on_c, 9, 38, 127
3, 75600, Note_on_c, 9, 38, 0
3, 75600, Note_on_c, 9, 54, 0
3, 75600, Note_on_c, 9, 54, 127
3, 75720, Note_on_c, 9, 54, 0
3, 75720, Note_on_c, 9, 36, 127
3, 75840, Note_on_c, 9, 36, 0
3, 75840, Note_on_c, 9, 54, 127
3, 75960, Note_on_c, 9, 54, 0
3, 76080, Note_on_c, 9, 54, 127
3, 76080, Note_on_c, 9, 36, 127
3, 76200, Note_on_c, 9, 36, 0
3, 76320, Note_on_c, 9, 54, 0
3, 76320, Note_on_c, 9, 54, 127
3, 76320, Note_on_c, 9, 38, 127
3, 76440, Note_on_c, 9, 38, 0
3, 76440, Note_on_c, 9, 54, 0
3, 76560, Note_on_c, 9, 36, 127
3, 76560, Note_on_c, 9, 54, 127
3, 76680, Note_on_c, 9, 54, 0
3, 76680, Note_on_c, 9, 36, 0
3, 76770, Note_on_c, 9, 43, 100
3, 76800, Note_on_c, 9, 43, 0
3, 76800, Note_on_c, 9, 59, 127
3, 76800, Note_on_c, 9, 36, 127
3, 76800, Note_on_c, 9, 41, 127
3, 77040, Note_on_c, 9, 41, 0
3, 77040, Note_on_c, 9, 36, 0
3, 77040, Note_on_c, 9, 59, 0
3, 77040, Note_on_c, 9, 54, 127
3, 77280, Note_on_c, 9, 54, 0
3, 77280, Note_on_c, 9, 59, 127
3, 77280, Note_on_c, 9, 38, 127
3, 77520, Note_on_c, 9, 38, 0
3, 77520, Note_on_c, 9, 59, 0
3, 77520, Note_on_c, 9, 54, 127
3, 77640, Note_on_c, 9, 54, 0
3, 77640, Note_on_c, 9, 36, 127
3, 77760, Note_on_c, 9, 36, 0
3, 77760, Note_on_c, 9, 59, 127
3, 77760, Note_on_c, 9, 36, 127
3, 78000, Note_on_c, 9, 36, 0
3, 78000, Note_on_c, 9, 59, 0
3, 78000, Note_on_c, 9, 54, 127
3, 78240, Note_on_c, 9, 54, 0
3, 78240, Note_on_c, 9, 38, 127
3, 78240, Note_on_c, 9, 59, 127
3, 78480, Note_on_c, 9, 59, 0
3, 78480, Note_on_c, 9, 38, 0
3, 78480, Note_on_c, 9, 54, 127
3, 78600, Note_on_c, 9, 54, 0
3, 78600, Note_on_c, 9, 36, 127
3, 78660, Note_on_c, 9, 36, 0
3, 78690, Note_on_c, 9, 43, 127
3, 78720, Note_on_c, 9, 43, 0
3, 78720, Note_on_c, 9, 59, 127
3, 78720, Note_on_c, 9, 36, 127
3, 78720, Note_on_c, 9, 41, 127
3, 78960, Note_on_c, 9, 41, 0
3, 78960, Note_on_c, 9, 36, 0
3, 78960, Note_on_c, 9, 59, 0
3, 78960, Note_on_c, 9, 54, 127
3, 79200, Note_on_c, 9, 54, 0
3, 79200, Note_on_c, 9, 38, 127
3, 79200, Note_on_c, 9, 59, 127
3, 79440, Note_on_c, 9, 59, 0
3, 79440, Note_on_c, 9, 38, 0
3, 79440, Note_on_c, 9, 54, 127
3, 79560, Note_on_c, 9, 54, 0
3, 79560, Note_on_c, 9, 36, 127
3, 79680, Note_on_c, 9, 36, 0
3, 79680, Note_on_c, 9, 59, 127
3, 79800, Note_on_c, 9, 59, 0
3, 79920, Note_on_c, 9, 54, 127
3, 79920, Note_on_c, 9, 36, 127
3, 80040, Note_on_c, 9, 36, 0
3, 80160, Note_on_c, 9, 54, 0
3, 80160, Note_on_c, 9, 59, 127
3, 80160, Note_on_c, 9, 38, 127
3, 80280, Note_on_c, 9, 38, 0
3, 80280, Note_on_c, 9, 59, 0
3, 80400, Note_on_c, 9, 54, 127
3, 80400, Note_on_c, 9, 36, 127
3, 80520, Note_on_c, 9, 36, 0
3, 80520, Note_on_c, 9, 54, 0
3, 80610, Note_on_c, 9, 43, 100
3, 80640, Note_on_c, 9, 43, 0
3, 80640, Note_on_c, 9, 36, 127
3, 80640, Note_on_c, 9, 59, 127
3, 80640, Note_on_c, 9, 41, 127
3, 80880, Note_on_c, 9, 41, 0
3, 80880, Note_on_c, 9, 59, 0
3, 80880, Note_on_c, 9, 36, 0
3, 80880, Note_on_c, 9, 54, 127
3, 81120, Note_on_c, 9, 54, 0
3, 81120, Note_on_c, 9, 59, 127
3, 81120, Note_on_c, 9, 38, 127
3, 81360, Note_on_c, 9, 38, 0
3, 81360, Note_on_c, 9, 59, 0
3, 81360, Note_on_c, 9, 54, 127
3, 81480, Note_on_c, 9, 54, 0
3, 81480, Note_on_c, 9, 36, 127
3, 81600, Note_on_c, 9, 36, 0
3, 81600, Note_on_c, 9, 59, 127
3, 81600, Note_on_c, 9, 36, 127
3, 81840, Note_on_c, 9, 36, 0
3, 81840, Note_on_c, 9, 59, 0
3, 81840, Note_on_c, 9, 54, 127
3, 82080, Note_on_c, 9, 54, 0
3, 82080, Note_on_c, 9, 38, 127
3, 82080, Note_on_c, 9, 59, 127
3, 82320, Note_on_c, 9, 59, 0
3, 82320, Note_on_c, 9, 38, 0
3, 82320, Note_on_c, 9, 54, 127
3, 82440, Note_on_c, 9, 54, 0
3, 82440, Note_on_c, 9, 36, 127
3, 82500, Note_on_c, 9, 36, 0
3, 82530, Note_on_c, 9, 43, 127
3, 82560, Note_on_c, 9, 43, 0
3, 82560, Note_on_c, 9, 59, 127
3, 82560, Note_on_c, 9, 36, 127
3, 82560, Note_on_c, 9, 41, 127
3, 82800, Note_on_c, 9, 41, 0
3, 82800, Note_on_c, 9, 36, 0
3, 82800, Note_on_c, 9, 59, 0
3, 82800, Note_on_c, 9, 54, 127
3, 83040, Note_on_c, 9, 54, 0
3, 83040, Note_on_c, 9, 38, 127
3, 83040, Note_on_c, 9, 59, 127
3, 83280, Note_on_c, 9, 59, 0
3, 83280, Note_on_c, 9, 38, 0
3, 83280, Note_on_c, 9, 54, 127
3, 83400, Note_on_c, 9, 54, 0
3, 83400, Note_on_c, 9, 36, 127
3, 83520, Note_on_c, 9, 36, 0
3, 83520, Note_on_c, 9, 59, 127
3, 83640, Note_on_c, 9, 59, 0
3, 83760, Note_on_c, 9, 36, 127
3, 83760, Note_on_c, 9, 54, 127
3, 83880, Note_on_c, 9, 36, 0
3, 84000, Note_on_c, 9, 54, 0
3, 84000, Note_on_c, 9, 59, 127
3, 84000, Note_on_c, 9, 38, 127
3, 84120, Note_on_c, 9, 38, 0
3, 84120, Note_on_c, 9, 59, 0
3, 84240, Note_on_c, 9, 36, 127
3, 84240, Note_on_c, 9, 54, 127
3, 84360, Note_on_c, 9, 54, 0
3, 84360, Note_on_c, 9, 36, 0
3, 84450, Note_on_c, 9, 43, 100
3, 84480, Note_on_c, 9, 43, 0
3, 84480, Note_on_c, 9, 36, 127
3, 84480, Note_on_c, 9, 41, 127
3, 84480, Note_on_c, 9, 59, 127
3, 84720, Note_on_c, 9, 59, 0
3, 84720, Note_on_c, 9, 41, 0
3, 84720, Note_on_c, 9, 36, 0
3, 84720, Note_on_c, 9, 54, 127
3, 84960, Note_on_c, 9, 54, 0
3, 84960, Note_on_c, 9, 38, 127
3, 84960, Note_on_c, 9, 59, 127
3, 85200, Note_on_c, 9, 59, 0
3, 85200, Note_on_c, 9, 38, 0
3, 85200, Note_on_c, 9, 54, 127
3, 85320, Note_on_c, 9, 54, 0
3, 85320, Note_on_c, 9, 36, 127
3, 85440, Note_on_c, 9, 36, 0
3, 85440, Note_on_c, 9, 59, 127
3, 85440, Note_on_c, 9, 36, 127
3, 85680, Note_on_c, 9, 36, 0
3, 85680, Note_on_c, 9, 59, 0
3, 85680, Note_on_c, 9, 54, 127
3, 85920, Note_on_c, 9, 54, 0
3, 85920, Note_on_c, 9, 59, 127
3, 85920, Note_on_c, 9, 38, 127
3, 86160, Note_on_c, 9, 38, 0
3, 86160, Note_on_c, 9, 59, 0
3, 86160, Note_on_c, 9, 54, 127
3, 86280, Note_on_c, 9, 54, 0
3, 86280, Note_on_c, 9, 36, 127
3, 86340, Note_on_c, 9, 36, 0
3, 86370, Note_on_c, 9, 43, 127
3, 86400, Note_on_c, 9, 43, 0
3, 86400, Note_on_c, 9, 41, 127
3, 86400, Note_on_c, 9, 36, 127
3, 86400, Note_on_c, 9, 59, 127
3, 86640, Note_on_c, 9, 59, 0
3, 86640, Note_on_c, 9, 36, 0
3, 86640, Note_on_c, 9, 41, 0
3, 86640, Note_on_c, 9, 54, 127
3, 86880, Note_on_c, 9, 54, 0
3, 86880, Note_on_c, 9, 38, 127
3, 86880, Note_on_c, 9, 59, 127
3, 87120, Note_on_c, 9, 59, 0
3, 87120, Note_on_c, 9, 38, 0
3, 87120, Note_on_c, 9, 54, 127
3, 87240, Note_on_c, 9, 54, 0
3, 87240, Note_on_c, 9, 36, 127
3, 87360, Note_on_c, 9, 36, 0
3, 87360, Note_on_c, 9, 59, 127
3, 87480, Note_on_c, 9, 59, 0
3, 87600, Note_on_c, 9, 36, 127
3, 87600, Note_on_c, 9, 54, 127
3, 87720, Note_on_c, 9, 36, 0
3, 87840, Note_on_c, 9, 54, 0
3, 87840, Note_on_c, 9, 38, 127
3, 87840, Note_on_c, 9, 59, 127
3, 87960, Note_on_c, 9, 59, 0
3, 87960, Note_on_c, 9, 38, 0
3, 88080, Note_on_c, 9, 36, 127
3, 88080, Note_on_c, 9, 54, 127
3, 88200, Note_on_c, 9, 54, 0
3, 88200, Note_on_c, 9, 36, 0
3, 88290, Note_on_c, 9, 43, 100
3, 88320, Note_on_c, 9, 43, 0
3, 88320, Note_on_c, 9, 59, 127
3, 88320, Note_on_c, 9, 41, 127
3, 88320, Note_on_c, 9, 36, 127
3, 88560, Note_on_c, 9, 36, 0
3, 88560, Note_on_c, 9, 41, 0
3, 88560, Note_on_c, 9, 59, 0
3, 88560, Note_on_c, 9, 54, 127
3, 88800, Note_on_c, 9, 54, 0
3, 88800, Note_on_c, 9, 59, 127
3, 88800, Note_on_c, 9, 38, 127
3, 89040, Note_on_c, 9, 38, 0
3, 89040, Note_on_c, 9, 59, 0
3, 89040, Note_on_c, 9, 54, 127
3, 89160, Note_on_c, 9, 54, 0
3, 89160, Note_on_c, 9, 36, 127
3, 89280, Note_on_c, 9, 36, 0
3, 89280, Note_on_c, 9, 59, 127
3, 89280, Note_on_c, 9, 36, 127
3, 89520, Note_on_c, 9, 36, 0
3, 89520, Note_on_c, 9, 59, 0
3, 89520, Note_on_c, 9, 54, 127
3, 89760, Note_on_c, 9, 54, 0
3, 89760, Note_on_c, 9, 38, 127
3, 89760, Note_on_c, 9, 59, 127
3, 90000, Note_on_c, 9, 59, 0
3, 90000, Note_on_c, 9, 38, 0
3, 90000, Note_on_c, 9, 54, 127
3, 90120, Note_on_c, 9, 54, 0
3, 90120, Note_on_c, 9, 36, 127
3, 90180, Note_on_c, 9, 36, 0
3, 90210, Note_on_c, 9, 43, 127
3, 90240, Note_on_c, 9, 43, 0
3, 90240, Note_on_c, 9, 59, 127
3, 90240, Note_on_c, 9, 41, 127
3, 90240, Note_on_c, 9, 36, 127
3, 90480, Note_on_c, 9, 36, 0
3, 90480, Note_on_c, 9, 41, 0
3, 90480, Note_on_c, 9, 59, 0
3, 90480, Note_on_c, 9, 54, 127
3, 90720, Note_on_c, 9, 54, 0
3, 90720, Note_on_c, 9, 38, 127
3, 90720, Note_on_c, 9, 59, 127
3, 90960, Note_on_c, 9, 59, 0
3, 90960, Note_on_c, 9, 38, 0
3, 90960, Note_on_c, 9, 54, 127
3, 91080, Note_on_c, 9, 54, 0
3, 91080, Note_on_c, 9, 36, 127
3, 91200, Note_on_c, 9, 36, 0
3, 91200, Note_on_c, 9, 59, 127
3, 91320, Note_on_c, 9, 59, 0
3, 91440, Note_on_c, 9, 36, 127
3, 91440, Note_on_c, 9, 54, 127
3, 91560, Note_on_c, 9, 36, 0
3, 91680, Note_on_c, 9, 54, 0
3, 91680, Note_on_c, 9, 38, 127
3, 91680, Note_on_c, 9, 59, 127
3, 91800, Note_on_c, 9, 59, 0
3, 91800, Note_on_c, 9, 38, 0
3, 91920, Note_on_c, 9, 54, 127
3, 91920, Note_on_c, 9, 36, 127
3, 92040, Note_on_c, 9, 36, 0
3, 92040, Note_on_c, 9, 54, 0
3, 92160, Note_on_c, 9, 36, 100
3, 92640, Note_on_c, 9, 36, 0
3, 92640, Note_on_c, 9, 38, 100
3, 93000, Note_on_c, 9, 38, 0
3, 93000, Note_on_c, 9, 36, 100
3, 93120, Note_on_c, 9, 36, 0
3, 93120, Note_on_c, 9, 36, 100
3, 93600, Note_on_c, 9, 36, 0
3, 93600, Note_on_c, 9, 38, 100
3, 93960, Note_on_c, 9, 38, 0
3, 93960, Note_on_c, 9, 36, 100
3, 93960, Note_on_c, 9, 38, 100
3, 94080, Note_on_c, 9, 38, 0
3, 94080, Note_on_c, 9, 36, 0
3, 94080, Note_on_c, 9, 36, 100
3, 94200, Note_on_c, 9, 36, 0
3, 94560, Note_on_c, 9, 38, 100
3, 94680, Note_on_c, 9, 38, 0
3, 94920, Note_on_c, 9, 36, 100
3, 95040, Note_on_c, 9, 36, 0
3, 95280, Note_on_c, 9, 36, 100
3, 95400, Note_on_c, 9, 36, 0
3, 95520, Note_on_c, 9, 38, 100
3, 95640, Note_on_c, 9, 38, 0
3, 95760, Note_on_c, 9, 36, 100
3, 95880, Note_on_c, 9, 36, 0
3, 96000, Note_on_c, 9, 36, 127
3, 96000, Note_on_c, 9, 41, 127
3, 96000, Note_on_c, 9, 54, 127
3, 96240, Note_on_c, 9, 54, 0
3, 96240, Note_on_c, 9, 41, 0
3, 96240, Note_on_c, 9, 36, 0
3, 96240, Note_on_c, 9, 54, 127
3, 96480, Note_on_c, 9, 54, 0
3, 96480, Note_on_c, 9, 54, 127
3, 96480, Note_on_c, 9, 38, 127
3, 96720, Note_on_c, 9, 38, 0
3, 96720, Note_on_c, 9, 54, 0
3, 96720, Note_on_c, 9, 54, 127
3, 96840, Note_on_c, 9, 54, 0
3, 96840, Note_on_c, 9, 36, 127
3, 96960, Note_on_c, 9, 36, 0
3, 96960, Note_on_c, 9, 54, 127
3, 96960, Note_on_c, 9, 36, 127
3, 97200, Note_on_c, 9, 36, 0
3, 97200, Note_on_c, 9, 54, 0
3, 97200, Note_on_c, 9, 54, 127
3, 97440, Note_on_c, 9, 54, 0
3, 97440, Note_on_c, 9, 38, 127
3, 97440, Note_on_c, 9, 54, 127
3, 97680, Note_on_c, 9, 54, 0
3, 97680, Note_on_c, 9, 38, 0
3, 97680, Note_on_c, 9, 54, 127
3, 97800, Note_on_c, 9, 54, 0
3, 97800, Note_on_c, 9, 36, 127
3, 97860, Note_on_c, 9, 36, 0
3, 97890, Note_on_c, 9, 43, 127
3, 97920, Note_on_c, 9, 43, 0
3, 97920, Note_on_c, 9, 54, 127
3, 97920, Note_on_c, 9, 41, 127
3, 97920, Note_on_c, 9, 36, 127
3, 98160, Note_on_c, 9, 36, 0
3, 98160, Note_on_c, 9, 41, 0
3, 98160, Note_on_c, 9, 54, 0
3, 98160, Note_on_c, 9, 54, 127
3, 98400, Note_on_c, 9, 54, 0
3, 98400, Note_on_c, 9, 38, 127
3, 98400, Note_on_c, 9, 54, 127
3, 98640, Note_on_c, 9, 54, 0
3, 98640, Note_on_c, 9, 38, 0
3, 98640, Note_on_c, 9, 54, 127
3, 98760, Note_on_c, 9, 54, 0
3, 98760, Note_on_c, 9, 36, 127
3, 98880, Note_on_c, 9, 36, 0
3, 98880, Note_on_c, 9, 54, 127
3, 99000, Note_on_c, 9, 54, 0
3, 99120, Note_on_c, 9, 36, 127
3, 99120, Note_on_c, 9, 54, 127
3, 99240, Note_on_c, 9, 36, 0
3, 99360, Note_on_c, 9, 54, 0
3, 99360, Note_on_c, 9, 38, 127
3, 99360, Note_on_c, 9, 54, 127
3, 99480, Note_on_c, 9, 54, 0
3, 99480, Note_on_c, 9, 38, 0
3, 99600, Note_on_c, 9, 36, 127
3, 99600, Note_on_c, 9, 54, 127
3, 99720, Note_on_c, 9, 54, 0
3, 99720, Note_on_c, 9, 36, 0
3, 99810, Note_on_c, 9, 43, 100
3, 99840, Note_on_c, 9, 43, 0
3, 99840, Note_on_c, 9, 36, 127
3, 99840, Note_on_c, 9, 54, 127
3, 99840, Note_on_c, 9, 41, 127
3, 100080, Note_on_c, 9, 41, 0
3, 100080, Note_on_c, 9, 54, 0
3, 100080, Note_on_c, 9, 36, 0
3, 100080, Note_on_c, 9, 54, 127
3, 100320, Note_on_c, 9, 54, 0
3, 100320, Note_on_c, 9, 38, 127
3, 100320, Note_on_c, 9, 54, 127
3, 100560, Note_on_c, 9, 54, 0
3, 100560, Note_on_c, 9, 38, 0
3, 100560, Note_on_c, 9, 54, 127
3, 100680, Note_on_c, 9, 54, 0
3, 100680, Note_on_c, 9, 36, 127
3, 100800, Note_on_c, 9, 36, 0
3, 100800, Note_on_c, 9, 54, 127
3, 100800, Note_on_c, 9, 36, 127
3, 101040, Note_on_c, 9, 36, 0
3, 101040, Note_on_c, 9, 54, 0
3, 101040, Note_on_c, 9, 54, 127
3, 101280, Note_on_c, 9, 54, 0
3, 101280, Note_on_c, 9, 38, 127
3, 101280, Note_on_c, 9, 54, 127
3, 101520, Note_on_c, 9, 54, 0
3, 101520, Note_on_c, 9, 38, 0
3, 101520, Note_on_c, 9, 54, 127
3, 101640, Note_on_c, 9, 54, 0
3, 101640, Note_on_c, 9, 36, 127
3, 101700, Note_on_c, 9, 36, 0
3, 101730, Note_on_c, 9, 43, 127
3, 101760, Note_on_c, 9, 43, 0
3, 101760, Note_on_c, 9, 41, 127
3, 101760, Note_on_c, 9, 36, 127
3, 101760, Note_on_c, 9, 54, 127
3, 102000, Note_on_c, 9, 54, 0
3, 102000, Note_on_c, 9, 36, 0
3, 102000, Note_on_c, 9, 41, 0
3, 102000, Note_on_c, 9, 54, 127
3, 102240, Note_on_c, 9, 54, 0
3, 102240, Note_on_c, 9, 38, 127
3, 102240, Note_on_c, 9, 54, 127
3, 102480, Note_on_c, 9, 54, 0
3, 102480, Note_on_c, 9, 38, 0
3, 102480, Note_on_c, 9, 54, 127
3, 102600, Note_on_c, 9, 54, 0
3, 102600, Note_on_c, 9, 36, 127
3, 102720, Note_on_c, 9, 36, 0
3, 102720, Note_on_c, 9, 54, 127
3, 102840, Note_on_c, 9, 54, 0
3, 102960, Note_on_c, 9, 54, 127
3, 102960, Note_on_c, 9, 36, 127
3, 103080, Note_on_c, 9, 36, 0
3, 103200, Note_on_c, 9, 54, 0
3, 103200, Note_on_c, 9, 38, 127
3, 103200, Note_on_c, 9, 54, 127
3, 103320, Note_on_c, 9, 54, 0
3, 103320, Note_on_c, 9, 38, 0
3, 103440, Note_on_c, 9, 36, 127
3, 103440, Note_on_c, 9, 54, 127
3, 103560, Note_on_c, 9, 54, 0
3, 103560, Note_on_c, 9, 36, 0
3, 103650, Note_on_c, 9, 43, 100
3, 103680, Note_on_c, 9, 43, 0
3, 103680, Note_on_c, 9, 36, 127
3, 103680, Note_on_c, 9, 54, 127
3, 103680, Note_on_c, 9, 41, 127
3, 103920, Note_on_c, 9, 41, 0
3, 103920, Note_on_c, 9, 54, 0
3, 103920, Note_on_c, 9, 36, 0
3, 103920, Note_on_c, 9, 54, 127
3, 104160, Note_on_c, 9, 54, 0
3, 104160, Note_on_c, 9, 54, 127
3, 104160, Note_on_c, 9, 38, 127
3, 104400, Note_on_c, 9, 38, 0
3, 104400, Note_on_c, 9, 54, 0
3, 104400, Note_on_c, 9, 54, 127
3, 104520, Note_on_c, 9, 54, 0
3, 104520, Note_on_c, 9, 36, 127
3, 104640, Note_on_c, 9, 36, 0
3, 104640, Note_on_c, 9, 36, 127
3, 104640, Note_on_c, 9, 54, 127
3, 104880, Note_on_c, 9, 54, 0
3, 104880, Note_on_c, 9, 36, 0
3, 104880, Note_on_c, 9, 54, 127
3, 105120, Note_on_c, 9, 54, 0
3, 105120, Note_on_c, 9, 38, 127
3, 105120, Note_on_c, 9, 54, 127
3, 105239, Control_c, 9, 10, 0
3, 105240, Note_on_c, 9, 54, 0
3, 105240, Note_on_c, 9, 38, 0
3, 105240, Note_on_c, 9, 54, 100
3, 105320, Control_c, 9, 10, 64
3, 105360, Note_on_c, 9, 54, 0
3, 105360, Note_on_c, 9, 54, 127
3, 105420, Control_c, 9, 10, 0
3, 105480, Note_on_c, 9, 54, 0
3, 105480, Note_on_c, 9, 54, 100
3, 105480, Note_on_c, 9, 36, 100
3, 105520, Control_c, 9, 10, 64
3, 105570, Note_on_c, 9, 43, 100
3, 105600, Note_on_c, 9, 43, 0
3, 105600, Note_on_c, 9, 36, 0
3, 105600, Note_on_c, 9, 54, 0
3, 105600, Note_on_c, 9, 54, 100
3, 105600, Note_on_c, 9, 36, 100
3, 105840, Note_on_c, 9, 36, 0
3, 105840, Note_on_c, 9, 54, 0
3, 105840, Note_on_c, 9, 54, 127
3, 106080, Note_on_c, 9, 54, 0
3, 106080, Note_on_c, 9, 54, 127
3, 106080, Note_on_c, 9, 38, 127
3, 106320, Note_on_c, 9, 38, 0
3, 106320, Note_on_c, 9, 54, 0
3, 106320, Note_on_c, 9, 54, 127
3, 106440, Note_on_c, 9, 54, 0
3, 106440, Note_on_c, 9, 36, 127
3, 106560, Note_on_c, 9, 36, 0
3, 106560, Note_on_c, 9, 54, 127
3, 106680, Note_on_c, 9, 54, 0
3, 106800, Note_on_c, 9, 54, 127
3, 106800, Note_on_c, 9, 36, 127
3, 106920, Note_on_c, 9, 36, 0
3, 107040, Note_on_c, 9, 54, 0
3, 107040, Note_on_c, 9, 54, 127
3, 107040, Note_on_c, 9, 38, 127
3, 107160, Note_on_c, 9, 38, 0
3, 107160, Note_on_c, 9, 54, 0
3, 107280, Note_on_c, 9, 54, 127
3, 107280, Note_on_c, 9, 36, 127
3, 107400, Note_on_c, 9, 36, 0
3, 107400, Note_on_c, 9, 54, 0
3, 107490, Note_on_c, 9, 43, 100
3, 107520, Note_on_c, 9, 43, 0
3, 107520, Note_on_c, 9, 41, 127
3, 107520, Note_on_c, 9, 36, 127
3, 107520, Note_on_c, 9, 54, 127
3, 107760, Note_on_c, 9, 54, 0
3, 107760, Note_on_c, 9, 36, 0
3, 107760, Note_on_c, 9, 41, 0
3, 107760, Note_on_c, 9, 54, 127
3, 108000, Note_on_c, 9, 54, 0
3, 108000, Note_on_c, 9, 38, 127
3, 108000, Note_on_c, 9, 54, 127
3, 108240, Note_on_c, 9, 54, 0
3, 108240, Note_on_c, 9, 38, 0
3, 108240, Note_on_c, 9, 54, 127
3, 108360, Note_on_c, 9, 54, 0
3, 108360, Note_on_c, 9, 36, 127
3, 108480, Note_on_c, 9, 36, 0
3, 108480, Note_on_c, 9, 54, 127
3, 108480, Note_on_c, 9, 36, 127
3, 108720, Note_on_c, 9, 36, 0
3, 108720, Note_on_c, 9, 54, 0
3, 108720, Note_on_c, 9, 54, 127
3, 108960, Note_on_c, 9, 54, 0
3, 108960, Note_on_c, 9, 54, 127
3, 108960, Note_on_c, 9, 38, 127
3, 109079, Control_c, 9, 10, 0
3, 109080, Note_on_c, 9, 38, 0
3, 109080, Note_on_c, 9, 54, 0
3, 109080, Note_on_c, 9, 54, 100
3, 109160, Control_c, 9, 10, 64
3, 109200, Note_on_c, 9, 54, 0
3, 109200, Note_on_c, 9, 54, 127
3, 109260, Control_c, 9, 10, 0
3, 109320, Note_on_c, 9, 54, 0
3, 109320, Note_on_c, 9, 54, 100
3, 109320, Note_on_c, 9, 36, 127
3, 109360, Control_c, 9, 10, 64
3, 109410, Note_on_c, 9, 43, 100
3, 109440, Note_on_c, 9, 43, 0
3, 109440, Note_on_c, 9, 36, 0
3, 109440, Note_on_c, 9, 54, 0
3, 109440, Note_on_c, 9, 54, 127
3, 109440, Note_on_c, 9, 36, 100
3, 109560, Note_on_c, 9, 36, 0
3, 109560, Note_on_c, 9, 54, 0
3, 109680, Note_on_c, 9, 54, 127
3, 109920, Note_on_c, 9, 54, 0
3, 109920, Note_on_c, 9, 38, 127
3, 109920, Note_on_c, 9, 54, 127
3, 110160, Note_on_c, 9, 54, 0
3, 110160, Note_on_c, 9, 38, 0
3, 110160, Note_on_c, 9, 54, 127
3, 110280, Note_on_c, 9, 54, 0
3, 110280, Note_on_c, 9, 36, 127
3, 110400, Note_on_c, 9, 36, 0
3, 110400, Note_on_c, 9, 54, 127
3, 110520, Note_on_c, 9, 54, 0
3, 110640, Note_on_c, 9, 54, 127
3, 110640, Note_on_c, 9, 36, 127
3, 110760, Note_on_c, 9, 36, 0
3, 110880, Note_on_c, 9, 54, 0
3, 110880, Note_on_c, 9, 54, 127
3, 110880, Note_on_c, 9, 38, 127
3, 111000, Note_on_c, 9, 38, 0
3, 111000, Note_on_c, 9, 54, 0
3, 111120, Note_on_c, 9, 36, 127
3, 111120, Note_on_c, 9, 54, 127
3, 111240, Note_on_c, 9, 54, 0
3, 111240, Note_on_c, 9, 36, 0
3, 111330, Note_on_c, 9, 43, 100
3, 111360, Note_on_c, 9, 43, 0
3, 111360, Note_on_c, 9, 36, 127
3, 111360, Note_on_c, 9, 41, 127
3, 111360, Note_on_c, 9, 59, 127
3, 111600, Note_on_c, 9, 59, 0
3, 111600, Note_on_c, 9, 41, 0
3, 111600, Note_on_c, 9, 36, 0
3, 111600, Note_on_c, 9, 54, 127
3, 111840, Note_on_c, 9, 54, 0
3, 111840, Note_on_c, 9, 38, 127
3, 111840, Note_on_c, 9, 59, 127
3, 112080, Note_on_c, 9, 59, 0
3, 112080, Note_on_c, 9, 38, 0
3, 112080, Note_on_c, 9, 54, 127
3, 112200, Note_on_c, 9, 54, 0
3, 112200, Note_on_c, 9, 36, 127
3, 112320, Note_on_c, 9, 36, 0
3, 112320, Note_on_c, 9, 59, 127
3, 112320, Note_on_c, 9, 36, 127
3, 112560, Note_on_c, 9, 36, 0
3, 112560, Note_on_c, 9, 59, 0
3, 112560, Note_on_c, 9, 54, 127
3, 112800, Note_on_c, 9, 54, 0
3, 112800, Note_on_c, 9, 59, 127
3, 112800, Note_on_c, 9, 38, 127
3, 113040, Note_on_c, 9, 38, 0
3, 113040, Note_on_c, 9, 59, 0
3, 113040, Note_on_c, 9, 54, 127
3, 113160, Note_on_c, 9, 54, 0
3, 113160, Note_on_c, 9, 36, 127
3, 113220, Note_on_c, 9, 36, 0
3, 113250, Note_on_c, 9, 43, 127
3, 113280, Note_on_c, 9, 43, 0
3, 113280, Note_on_c, 9, 41, 127
3, 113280, Note_on_c, 9, 59, 127
3, 113280, Note_on_c, 9, 36, 127
3, 113520, Note_on_c, 9, 36, 0
3, 113520, Note_on_c, 9, 59, 0
3, 113520, Note_on_c, 9, 41, 0
3, 113520, Note_on_c, 9, 54, 127
3, 113760, Note_on_c, 9, 54, 0
3, 113760, Note_on_c, 9, 38, 127
3, 113760, Note_on_c, 9, 59, 127
3, 114000, Note_on_c, 9, 59, 0
3, 114000, Note_on_c, 9, 38, 0
3, 114000, Note_on_c, 9, 54, 127
3, 114120, Note_on_c, 9, 54, 0
3, 114120, Note_on_c, 9, 36, 127
3, 114240, Note_on_c, 9, 36, 0
3, 114240, Note_on_c, 9, 59, 127
3, 114360, Note_on_c, 9, 59, 0
3, 114480, Note_on_c, 9, 36, 127
3, 114480, Note_on_c, 9, 54, 127
3, 114600, Note_on_c, 9, 36, 0
3, 114720, Note_on_c, 9, 54, 0
3, 114720, Note_on_c, 9, 59, 127
3, 114720, Note_on_c, 9, 38, 127
3, 114840, Note_on_c, 9, 38, 0
3, 114840, Note_on_c, 9, 59, 0
3, 114960, Note_on_c, 9, 36, 127
3, 114960, Note_on_c, 9, 54, 127
3, 115080, Note_on_c, 9, 54, 0
3, 115080, Note_on_c, 9, 36, 0
3, 115170, Note_on_c, 9, 43, 100
3, 115200, Note_on_c, 9, 43, 0
3, 115200, Note_on_c, 9, 41, 127
3, 115200, Note_on_c, 9, 59, 127
3, 115200, Note_on_c, 9, 36, 127
3, 115440, Note_on_c, 9, 36, 0
3, 115440, Note_on_c, 9, 59, 0
3, 115440, Note_on_c, 9, 41, 0
3, 115440, Note_on_c, 9, 54, 127
3, 115680, Note_on_c, 9, 54, 0
3, 115680, Note_on_c, 9, 59, 127
3, 115680, Note_on_c, 9, 38, 127
3, 115920, Note_on_c, 9, 38, 0
3, 115920, Note_on_c, 9, 59, 0
3, 115920, Note_on_c, 9, 54, 127
3, 116040, Note_on_c, 9, 54, 0
3, 116040, Note_on_c, 9, 36, 127
3, 116160, Note_on_c, 9, 36, 0
3, 116160, Note_on_c, 9, 59, 127
3, 116160, Note_on_c, 9, 36, 127
3, 116400, Note_on_c, 9, 36, 0
3, 116400, Note_on_c, 9, 59, 0
3, 116400, Note_on_c, 9, 54, 127
3, 116640, Note_on_c, 9, 54, 0
3, 116640, Note_on_c, 9, 59, 127
3, 116640, Note_on_c, 9, 38, 127
3, 116880, Note_on_c, 9, 38, 0
3, 116880, Note_on_c, 9, 59, 0
3, 116880, Note_on_c, 9, 54, 127
3, 117000, Note_on_c, 9, 54, 0
3, 117000, Note_on_c, 9, 36, 127
3, 117060, Note_on_c, 9, 36, 0
3, 117090, Note_on_c, 9, 43, 127
3, 117120, Note_on_c, 9, 43, 0
3, 117120, Note_on_c, 9, 41, 127
3, 117120, Note_on_c, 9, 59, 127
3, 117120, Note_on_c, 9, 36, 127
3, 117360, Note_on_c, 9, 36, 0
3, 117360, Note_on_c, 9, 59, 0
3, 117360, Note_on_c, 9, 41, 0
3, 117360, Note_on_c, 9, 54, 127
3, 117600, Note_on_c, 9, 54, 0
3, 117600, Note_on_c, 9, 38, 127
3, 117600, Note_on_c, 9, 59, 127
3, 117840, Note_on_c, 9, 59, 0
3, 117840, Note_on_c, 9, 38, 0
3, 117840, Note_on_c, 9, 54, 127
3, 117960, Note_on_c, 9, 54, 0
3, 117960, Note_on_c, 9, 36, 127
3, 118080, Note_on_c, 9, 36, 0
3, 118080, Note_on_c, 9, 59, 127
3, 118200, Note_on_c, 9, 59, 0
3, 118320, Note_on_c, 9, 36, 127
3, 118320, Note_on_c, 9, 54, 127
3, 118440, Note_on_c, 9, 36, 0
3, 118560, Note_on_c, 9, 54, 0
3, 118560, Note_on_c, 9, 59, 127
3, 118560, Note_on_c, 9, 38, 127
3, 118680, Note_on_c, 9, 38, 0
3, 118680, Note_on_c, 9, 59, 0
3, 118800, Note_on_c, 9, 54, 127
3, 118800, Note_on_c, 9, 36, 127
3, 118920, Note_on_c, 9, 36, 0
3, 118920, Note_on_c, 9, 54, 0
3, 119010, Note_on_c, 9, 43, 100
3, 119040, Note_on_c, 9, 43, 0
3, 119040, Note_on_c, 9, 41, 127
3, 119040, Note_on_c, 9, 59, 127
3, 119040, Note_on_c, 9, 36, 127
3, 119280, Note_on_c, 9, 36, 0
3, 119280, Note_on_c, 9, 59, 0
3, 119280, Note_on_c, 9, 41, 0
3, 119280, Note_on_c, 9, 54, 127
3, 119520, Note_on_c, 9, 54, 0
3, 119520, Note_on_c, 9, 59, 127
3, 119520, Note_on_c, 9, 38, 127
3, 119760, Note_on_c, 9, 38, 0
3, 119760, Note_on_c, 9, 59, 0
3, 119760, Note_on_c, 9, 54, 127
3, 119880, Note_on_c, 9, 54, 0
3, 119880, Note_on_c, 9, 36, 127
3, 120000, Note_on_c, 9, 36, 0
3, 120000, Note_on_c, 9, 36, 127
3, 120000, Note_on_c, 9, 59, 127
3, 120240, Note_on_c, 9, 59, 0
3, 120240, Note_on_c, 9, 36, 0
3, 120240, Note_on_c, 9, 54, 127
3, 120480, Note_on_c, 9, 54, 0
3, 120480, Note_on_c, 9, 59, 127
3, 120480, Note_on_c, 9, 38, 127
3, 120720, Note_on_c, 9, 38, 0
3, 120720, Note_on_c, 9, 59, 0
3, 120720, Note_on_c, 9, 54, 127
3, 120840, Note_on_c, 9, 54, 0
3, 120840, Note_on_c, 9, 36, 127
3, 120900, Note_on_c, 9, 36, 0
3, 120930, Note_on_c, 9, 43, 127
3, 120960, Note_on_c, 9, 43, 0
3, 120960, Note_on_c, 9, 59, 127
3, 120960, Note_on_c, 9, 41, 127
3, 120960, Note_on_c, 9, 36, 127
3, 121200, Note_on_c, 9, 36, 0
3, 121200, Note_on_c, 9, 41, 0
3, 121200, Note_on_c, 9, 59, 0
3, 121200, Note_on_c, 9, 54, 127
3, 121440, Note_on_c, 9, 54, 0
3, 121440, Note_on_c, 9, 59, 127
3, 121440, Note_on_c, 9, 38, 127
3, 121680, Note_on_c, 9, 38, 0
3, 121680, Note_on_c, 9, 59, 0
3, 121680, Note_on_c, 9, 54, 127
3, 121800, Note_on_c, 9, 54, 0
3, 121800, Note_on_c, 9, 36, 127
3, 121920, Note_on_c, 9, 36, 0
3, 121920, Note_on_c, 9, 59, 127
3, 122040, Note_on_c, 9, 59, 0
3, 122160, Note_on_c, 9, 36, 127
3, 122160, Note_on_c, 9, 54, 127
3, 122280, Note_on_c, 9, 36, 0
3, 122400, Note_on_c, 9, 54, 0
3, 122400, Note_on_c, 9, 38, 127
3, 122400, Note_on_c, 9, 59, 127
3, 122520, Note_on_c, 9, 59, 0
3, 122520, Note_on_c, 9, 38, 0
3, 122640, Note_on_c, 9, 54, 127
3, 122640, Note_on_c, 9, 36, 127
3, 122760, Note_on_c, 9, 36, 0
3, 122760, Note_on_c, 9, 54, 0
3, 122850, Note_on_c, 9, 43, 100
3, 122880, Note_on_c, 9, 43, 0
3, 122880, Note_on_c, 9, 36, 127
3, 122880, Note_on_c, 9, 59, 127
3, 122880, Note_on_c, 9, 41, 127
3, 123120, Note_on_c, 9, 41, 0
3, 123120, Note_on_c, 9, 59, 0
3, 123120, Note_on_c, 9, 36, 0
3, 123120, Note_on_c, 9, 54, 127
3, 123360, Note_on_c, 9, 54, 0
3, 123360, Note_on_c, 9, 38, 127
3, 123360, Note_on_c, 9, 59, 127
3, 123600, Note_on_c, 9, 59, 0
3, 123600, Note_on_c, 9, 38, 0
3, 123600, Note_on_c, 9, 54, 127
3, 123720, Note_on_c, 9, 54, 0
3, 123720, Note_on_c, 9, 36, 127
3, 123840, Note_on_c, 9, 36, 0
3, 123840, Note_on_c, 9, 36, 127
3, 123840, Note_on_c, 9, 59, 127
3, 124080, Note_on_c, 9, 59, 0
3, 124080, Note_on_c, 9, 36, 0
3, 124080, Note_on_c, 9, 54, 127
3, 124320, Note_on_c, 9, 54, 0
3, 124320, Note_on_c, 9, 38, 127
3, 124320, Note_on_c, 9, 59, 127
3, 124560, Note_on_c, 9, 59, 0
3, 124560, Note_on_c, 9, 38, 0
3, 124560, Note_on_c, 9, 54, 127
3, 124680, Note_on_c, 9, 54, 0
3, 124680, Note_on_c, 9, 36, 127
3, 124740, Note_on_c, 9, 36, 0
3, 124770, Note_on_c, 9, 43, 127
3, 124800, Note_on_c, 9, 43, 0
3, 124800, Note_on_c, 9, 41, 127
3, 124800, Note_on_c, 9, 59, 127
3, 124800, Note_on_c, 9, 36, 127
3, 125040, Note_on_c, 9, 36, 0
3, 125040, Note_on_c, 9, 59, 0
3, 125040, Note_on_c, 9, 41, 0
3, 125040, Note_on_c, 9, 54, 127
3, 125280, Note_on_c, 9, 54, 0
3, 125280, Note_on_c, 9, 38, 127
3, 125280, Note_on_c, 9, 59, 127
3, 125520, Note_on_c, 9, 59, 0
3, 125520, Note_on_c, 9, 38, 0
3, 125520, Note_on_c, 9, 54, 127
3, 125640, Note_on_c, 9, 54, 0
3, 125640, Note_on_c, 9, 36, 127
3, 125760, Note_on_c, 9, 36, 0
3, 125760, Note_on_c, 9, 59, 127
3, 125880, Note_on_c, 9, 59, 0
3, 126000, Note_on_c, 9, 54, 127
3, 126000, Note_on_c, 9, 36, 127
3, 126120, Note_on_c, 9, 36, 0
3, 126240, Note_on_c, 9, 54, 0
3, 126240, Note_on_c, 9, 59, 127
3, 126240, Note_on_c, 9, 38, 127
3, 126360, Note_on_c, 9, 38, 0
3, 126360, Note_on_c, 9, 59, 0
3, 126480, Note_on_c, 9, 54, 127
3, 126480, Note_on_c, 9, 36, 127
3, 126600, Note_on_c, 9, 36, 0
3, 126600, Note_on_c, 9, 54, 0
3, 126690, Note_on_c, 9, 43, 100
3, 126720, Note_on_c, 9, 43, 0
3, 126720, Note_on_c, 9, 36, 127
3, 126720, Note_on_c, 9, 41, 127
3, 126720, Note_on_c, 9, 54, 127
3, 126960, Note_on_c, 9, 54, 0
3, 126960, Note_on_c, 9, 41, 0
3, 126960, Note_on_c, 9, 36, 0
3, 126960, Note_on_c, 9, 54, 127
3, 127200, Note_on_c, 9, 54, 0
3, 127200, Note_on_c, 9, 54, 127
3, 127200, Note_on_c, 9, 38, 127
3, 127440, Note_on_c, 9, 38, 0
3, 127440, Note_on_c, 9, 54, 0
3, 127440, Note_on_c, 9, 54, 127
3, 127560, Note_on_c, 9, 54, 0
3, 127560, Note_on_c, 9, 36, 127
3, 127680, Note_on_c, 9, 36, 0
3, 127680, Note_on_c, 9, 36, 127
3, 127680, Note_on_c, 9, 54, 127
3, 127920, Note_on_c, 9, 54, 0
3, 127920, Note_on_c, 9, 36, 0
3, 127920, Note_on_c, 9, 54, 127
3, 128160, Note_on_c, 9, 54, 0
3, 128160, Note_on_c, 9, 54, 127
3, 128160, Note_on_c, 9, 38, 127
3, 128279, Control_c, 9, 10, 0
3, 128280, Note_on_c, 9, 38, 0
3, 128280, Note_on_c, 9, 54, 0
3, 128280, Note_on_c, 9, 54, 100
3, 128360, Control_c, 9, 10, 64
3, 128400, Note_on_c, 9, 54, 0
3, 128400, Note_on_c, 9, 54, 127
3, 128460, Control_c, 9, 10, 0
3, 128520, Note_on_c, 9, 54, 0
3, 128520, Note_on_c, 9, 54, 100
3, 128520, Note_on_c, 9, 36, 127
3, 128560, Control_c, 9, 10, 64
3, 128610, Note_on_c, 9, 43, 100
3, 128640, Note_on_c, 9, 43, 0
3, 128640, Note_on_c, 9, 36, 0
3, 128640, Note_on_c, 9, 54, 0
3, 128640, Note_on_c, 9, 41, 127
3, 128640, Note_on_c, 9, 36, 127
3, 128640, Note_on_c, 9, 54, 127
3, 128880, Note_on_c, 9, 54, 0
3, 128880, Note_on_c, 9, 36, 0
3, 128880, Note_on_c, 9, 41, 0
3, 128880, Note_on_c, 9, 54, 127
3, 129120, Note_on_c, 9, 54, 0
3, 129120, Note_on_c, 9, 38, 127
3, 129120, Note_on_c, 9, 54, 127
3, 129360, Note_on_c, 9, 54, 0
3, 129360, Note_on_c, 9, 38, 0
3, 129360, Note_on_c, 9, 54, 127
3, 129480, Note_on_c, 9, 54, 0
3, 129480, Note_on_c, 9, 36, 127
3, 129600, Note_on_c, 9, 36, 0
3, 129600, Note_on_c, 9, 54, 127
3, 129720, Note_on_c, 9, 54, 0
3, 129840, Note_on_c, 9, 36, 127
3, 129840, Note_on_c, 9, 54, 127
3, 129960, Note_on_c, 9, 36, 0
3, 130080, Note_on_c, 9, 54, 0
3, 130080, Note_on_c, 9, 54, 127
3, 130080, Note_on_c, 9, 38, 127
3, 130199, Control_c, 9, 10, 0
3, 130200, Note_on_c, 9, 38, 0
3, 130200, Note_on_c, 9, 54, 0
3, 130200, Note_on_c, 9, 54, 100
3, 130280, Control_c, 9, 10, 64
3, 130320, Note_on_c, 9, 54, 0
3, 130320, Note_on_c, 9, 54, 127
3, 130320, Note_on_c, 9, 36, 127
3, 130380, Control_c, 9, 10, 0
3, 130440, Note_on_c, 9, 36, 0
3, 130440, Note_on_c, 9, 54, 0
3, 130440, Note_on_c, 9, 54, 100
3, 130480, Control_c, 9, 10, 64
3, 130530, Note_on_c, 9, 43, 100
3, 130560, Note_on_c, 9, 43, 0
3, 130560, Note_on_c, 9, 54, 0
3, 130560, Note_on_c, 9, 36, 127
3, 130560, Note_on_c, 9, 54, 127
3, 130560, Note_on_c, 9, 41, 127
3, 130800, Note_on_c, 9, 41, 0
3, 130800, Note_on_c, 9, 54, 0
3, 130800, Note_on_c, 9, 36, 0
3, 130800, Note_on_c, 9, 54, 127
3, 131040, Note_on_c, 9, 54, 0
3, 131040, Note_on_c, 9, 38, 127
3, 131040, Note_on_c, 9, 54, 127
3, 131280, Note_on_c, 9, 54, 0
3, 131280, Note_on_c, 9, 38, 0
3, 131280, Note_on_c, 9, 54, 127
3, 131400, Note_on_c, 9, 54, 0
3, 131400, Note_on_c, 9, 36, 127
3, 131520, Note_on_c, 9, 36, 0
3, 131520, Note_on_c, 9, 54, 127
3, 131520, Note_on_c, 9, 36, 127
3, 131760, Note_on_c, 9, 36, 0
3, 131760, Note_on_c, 9, 54, 0
3, 131760, Note_on_c, 9, 54, 127
3, 132000, Note_on_c, 9, 54, 0
3, 132000, Note_on_c, 9, 54, 127
3, 132000, Note_on_c, 9, 38, 127
3, 132119, Control_c, 9, 10, 0
3, 132120, Note_on_c, 9, 38, 0
3, 132120, Note_on_c, 9, 54, 0
3, 132120, Note_on_c, 9, 54, 100
3, 132200, Control_c, 9, 10, 64
3, 132240, Note_on_c, 9, 54, 0
3, 132240, Note_on_c, 9, 54, 127
3, 132300, Control_c, 9, 10, 0
3, 132360, Note_on_c, 9, 54, 0
3, 132360, Note_on_c, 9, 54, 100
3, 132360, Note_on_c, 9, 36, 127
3, 132400, Control_c, 9, 10, 64
3, 132450, Note_on_c, 9, 43, 100
3, 132480, Note_on_c, 9, 43, 0
3, 132480, Note_on_c, 9, 36, 0
3, 132480, Note_on_c, 9, 54, 0
3, 132480, Note_on_c, 9, 41, 127
3, 132480, Note_on_c, 9, 36, 127
3, 132480, Note_on_c, 9, 54, 127
3, 132720, Note_on_c, 9, 54, 0
3, 132720, Note_on_c, 9, 36, 0
3, 132720, Note_on_c, 9, 41, 0
3, 132720, Note_on_c, 9, 54, 127
3, 132960, Note_on_c, 9, 54, 0
3, 132960, Note_on_c, 9, 54, 127
3, 132960, Note_on_c, 9, 38, 127
3, 133200, Note_on_c, 9, 38, 0
3, 133200, Note_on_c, 9, 54, 0
3, 133200, Note_on_c, 9, 54, 127
3, 133320, Note_on_c, 9, 54, 0
3, 133320, Note_on_c, 9, 36, 127
3, 133440, Note_on_c, 9, 36, 0
3, 133440, Note_on_c, 9, 54, 127
3, 133560, Note_on_c, 9, 54, 0
3, 133680, Note_on_c, 9, 36, 127
3, 133680, Note_on_c, 9, 54, 127
3, 133800, Note_on_c, 9, 36, 0
3, 133920, Note_on_c, 9, 54, 0
3, 133920, Note_on_c, 9, 38, 127
3, 133920, Note_on_c, 9, 54, 127
3, 134039, Control_c, 9, 10, 0
3, 134040, Note_on_c, 9, 54, 0
3, 134040, Note_on_c, 9, 38, 0
3, 134040, Note_on_c, 9, 54, 100
3, 134120, Control_c, 9, 10, 64
3, 134160, Note_on_c, 9, 54, 0
3, 134160, Note_on_c, 9, 36, 127
3, 134160, Note_on_c, 9, 54, 127
3, 134220, Control_c, 9, 10, 0
3, 134280, Note_on_c, 9, 54, 0
3, 134280, Note_on_c, 9, 36, 0
3, 134280, Note_on_c, 9, 54, 100
3, 134320, Control_c, 9, 10, 64
3, 134370, Note_on_c, 9, 43, 100
3, 134400, Note_on_c, 9, 43, 0
3, 134400, Note_on_c, 9, 54, 0
3, 134400, Note_on_c, 9, 54, 127
3, 134400, Note_on_c, 9, 41, 127
3, 134400, Note_on_c, 9, 36, 127
3, 134640, Note_on_c, 9, 36, 0
3, 134640, Note_on_c, 9, 41, 0
3, 134640, Note_on_c, 9, 54, 0
3, 134640, Note_on_c, 9, 54, 127
3, 134880, Note_on_c, 9, 54, 0
3, 134880, Note_on_c, 9, 38, 127
3, 134880, Note_on_c, 9, 54, 127
3, 135120, Note_on_c, 9, 54, 0
3, 135120, Note_on_c, 9, 38, 0
3, 135120, Note_on_c, 9, 54, 127
3, 135240, Note_on_c, 9, 54, 0
3, 135240, Note_on_c, 9, 36, 127
3, 135360, Note_on_c, 9, 36, 0
3, 135360, Note_on_c, 9, 36, 127
3, 135360, Note_on_c, 9, 54, 127
3, 135600, Note_on_c, 9, 54, 0
3, 135600, Note_on_c, 9, 36, 0
3, 135600, Note_on_c, 9, 54, 127
3, 135840, Note_on_c, 9, 54, 0
3, 135840, Note_on_c, 9, 38, 127
3, 135840, Note_on_c, 9, 54, 127
3, 135959, Control_c, 9, 10, 0
3, 135960, Note_on_c, 9, 54, 0
3, 135960, Note_on_c, 9, 38, 0
3, 135960, Note_on_c, 9, 54, 100
3, 136040, Control_c, 9, 10, 64
3, 136080, Note_on_c, 9, 54, 0
3, 136080, Note_on_c, 9, 54, 127
3, 136140, Control_c, 9, 10, 0
3, 136200, Note_on_c, 9, 54, 0
3, 136200, Note_on_c, 9, 36, 127
3, 136200, Note_on_c, 9, 54, 100
3, 136240, Control_c, 9, 10, 64
3, 136290, Note_on_c, 9, 43, 100
3, 136320, Note_on_c, 9, 43, 0
3, 136320, Note_on_c, 9, 54, 0
3, 136320, Note_on_c, 9, 36, 0
3, 136320, Note_on_c, 9, 36, 127
3, 136320, Note_on_c, 9, 41, 127
3, 136320, Note_on_c, 9, 54, 127
3, 136560, Note_on_c, 9, 54, 0
3, 136560, Note_on_c, 9, 41, 0
3, 136560, Note_on_c, 9, 36, 0
3, 136560, Note_on_c, 9, 54, 127
3, 136800, Note_on_c, 9, 54, 0
3, 136800, Note_on_c, 9, 38, 127
3, 136800, Note_on_c, 9, 54, 127
3, 137040, Note_on_c, 9, 54, 0
3, 137040, Note_on_c, 9, 38, 0
3, 137040, Note_on_c, 9, 54, 127
3, 137160, Note_on_c, 9, 54, 0
3, 137160, Note_on_c, 9, 36, 127
3, 137280, Note_on_c, 9, 36, 0
3, 137280, Note_on_c, 9, 54, 127
3, 137400, Note_on_c, 9, 54, 0
3, 137520, Note_on_c, 9, 36, 127
3, 137520, Note_on_c, 9, 54, 127
3, 137640, Note_on_c, 9, 36, 0
3, 137760, Note_on_c, 9, 54, 0
3, 137760, Note_on_c, 9, 54, 127
3, 137760, Note_on_c, 9, 38, 127
3, 137879, Control_c, 9, 10, 0
3, 137880, Note_on_c, 9, 38, 0
3, 137880, Note_on_c, 9, 54, 0
3, 137880, Note_on_c, 9, 54, 100
3, 137960, Control_c, 9, 10, 64
3, 138000, Note_on_c, 9, 54, 0
3, 138000, Note_on_c, 9, 54, 127
3, 138000, Note_on_c, 9, 36, 127
3, 138060, Control_c, 9, 10, 0
3, 138120, Note_on_c, 9, 36, 0
3, 138120, Note_on_c, 9, 54, 0
3, 138120, Note_on_c, 9, 54, 100
3, 138160, Control_c, 9, 10, 64
3, 138210, Note_on_c, 9, 43, 100
3, 138240, Note_on_c, 9, 43, 0
3, 138240, Note_on_c, 9, 54, 0
3, 138240, Note_on_c, 9, 54, 127
3, 138240, Note_on_c, 9, 41, 127
3, 138240, Note_on_c, 9, 36, 127
3, 138480, Note_on_c, 9, 36, 0
3, 138480, Note_on_c, 9, 41, 0
3, 138480, Note_on_c, 9, 54, 0
3, 138480, Note_on_c, 9, 54, 127
3, 138720, Note_on_c, 9, 54, 0
3, 138720, Note_on_c, 9, 54, 127
3, 138720, Note_on_c, 9, 38, 127
3, 138960, Note_on_c, 9, 38, 0
3, 138960, Note_on_c, 9, 54, 0
3, 138960, Note_on_c, 9, 54, 127
3, 139080, Note_on_c, 9, 54, 0
3, 139080, Note_on_c, 9, 36, 127
3, 139200, Note_on_c, 9, 36, 0
3, 139200, Note_on_c, 9, 54, 127
3, 139200, Note_on_c, 9, 36, 127
3, 139440, Note_on_c, 9, 36, 0
3, 139440, Note_on_c, 9, 54, 0
3, 139440, Note_on_c, 9, 54, 127
3, 139680, Note_on_c, 9, 54, 0
3, 139680, Note_on_c, 9, 38, 127
3, 139680, Note_on_c, 9, 54, 127
3, 139799, Control_c, 9, 10, 0
3, 139800, Note_on_c, 9, 54, 0
3, 139800, Note_on_c, 9, 38, 0
3, 139800, Note_on_c, 9, 54, 100
3, 139880, Control_c, 9, 10, 64
3, 139920, Note_on_c, 9, 54, 0
3, 139920, Note_on_c, 9, 54, 127
3, 139980, Control_c, 9, 10, 0
3, 140040, Note_on_c, 9, 54, 0
3, 140040, Note_on_c, 9, 36, 127
3, 140040, Note_on_c, 9, 54, 100
3, 140080, Control_c, 9, 10, 64
3, 140130, Note_on_c, 9, 43, 100
3, 140160, Note_on_c, 9, 43, 0
3, 140160, Note_on_c, 9, 54, 0
3, 140160, Note_on_c, 9, 36, 0
3, 140160, Note_on_c, 9, 36, 127
3, 140160, Note_on_c, 9, 41, 127
3, 140160, Note_on_c, 9, 54, 127
3, 140400, Note_on_c, 9, 54, 0
3, 140400, Note_on_c, 9, 41, 0
3, 140400, Note_on_c, 9, 36, 0
3, 140400, Note_on_c, 9, 54, 127
3, 140640, Note_on_c, 9, 54, 0
3, 140640, Note_on_c, 9, 38, 127
3, 140640, Note_on_c, 9, 54, 127
3, 140880, Note_on_c, 9, 54, 0
3, 140880, Note_on_c, 9, 38, 0
3, 140880, Note_on_c, 9, 54, 127
3, 141000, Note_on_c, 9, 54, 0
3, 141000, Note_on_c, 9, 36, 127
3, 141120, Note_on_c, 9, 36, 0
3, 141120, Note_on_c, 9, 54, 127
3, 141240, Note_on_c, 9, 54, 0
3, 141360, Note_on_c, 9, 54, 127
3, 141360, Note_on_c, 9, 36, 127
3, 141480, Note_on_c, 9, 36, 0
3, 141600, Note_on_c, 9, 54, 0
3, 141600, Note_on_c, 9, 54, 127
3, 141600, Note_on_c, 9, 38, 127
3, 141719, Control_c, 9, 10, 0
3, 141720, Note_on_c, 9, 38, 0
3, 141720, Note_on_c, 9, 54, 0
3, 141720, Note_on_c, 9, 54, 100
3, 141800, Control_c, 9, 10, 64
3, 141840, Note_on_c, 9, 54, 0
3, 141840, Note_on_c, 9, 36, 127
3, 141840, Note_on_c, 9, 54, 127
3, 141900, Control_c, 9, 10, 0
3, 141960, Note_on_c, 9, 54, 0
3, 141960, Note_on_c, 9, 36, 0
3, 141960, Note_on_c, 9, 54, 100
3, 142000, Control_c, 9, 10, 64
3, 142050, Note_on_c, 9, 43, 100
3, 142080, Note_on_c, 9, 43, 0
3, 142080, Note_on_c, 9, 54, 0
3, 142080, Note_on_c, 9, 54, 127
3, 142080, Note_on_c, 9, 41, 127
3, 142080, Note_on_c, 9, 36, 127
3, 142320, Note_on_c, 9, 36, 0
3, 142320, Note_on_c, 9, 41, 0
3, 142320, Note_on_c, 9, 54, 0
3, 142320, Note_on_c, 9, 54, 127
3, 142560, Note_on_c, 9, 54, 0
3, 142560, Note_on_c, 9, 38, 127
3, 142560, Note_on_c, 9, 54, 127
3, 142800, Note_on_c, 9, 54, 0
3, 142800, Note_on_c, 9, 38, 0
3, 142800, Note_on_c, 9, 54, 127
3, 142920, Note_on_c, 9, 54, 0
3, 142920, Note_on_c, 9, 36, 127
3, 143040, Note_on_c, 9, 36, 0
3, 143040, Note_on_c, 9, 36, 127
3, 143040, Note_on_c, 9, 54, 127
3, 143280, Note_on_c, 9, 54, 0
3, 143280, Note_on_c, 9, 36, 0
3, 143280, Note_on_c, 9, 54, 127
3, 143380, Program_c, 9, 45
3, 143520, Note_on_c, 9, 54, 0
3, 143520, Note_on_c, 9, 42, 127
3, 143521, Program_c, 9, 16
3, 143522, Note_on_c, 9, 54, 127
3, 143760, Note_on_c, 9, 42, 0
3, 143760, Note_on_c, 9, 54, 127
3, 143762, Note_on_c, 9, 54, 0
3, 143880, Note_on_c, 9, 54, 0
3, 143880, Note_on_c, 9, 36, 127
3, 143940, Note_on_c, 9, 36, 0
3, 143970, Note_on_c, 9, 43, 127
3, 144000, Note_on_c, 9, 43, 0
3, 144000, Note_on_c, 9, 41, 127
3, 144000, Note_on_c, 9, 54, 127
3, 144000, Note_on_c, 9, 36, 127
3, 144240, Note_on_c, 9, 36, 0
3, 144240, Note_on_c, 9, 54, 0
3, 144240, Note_on_c, 9, 41, 0
3, 144240, Note_on_c, 9, 54, 127
3, 144480, Note_on_c, 9, 54, 0
3, 144480, Note_on_c, 9, 54, 127
3, 144480, Note_on_c, 9, 38, 127
3, 144720, Note_on_c, 9, 38, 0
3, 144720, Note_on_c, 9, 54, 0
3, 144720, Note_on_c, 9, 54, 127
3, 144840, Note_on_c, 9, 54, 0
3, 144840, Note_on_c, 9, 36, 127
3, 144960, Note_on_c, 9, 36, 0
3, 144960, Note_on_c, 9, 54, 127
3, 145080, Note_on_c, 9, 54, 0
3, 145200, Note_on_c, 9, 36, 127
3, 145200, Note_on_c, 9, 54, 127
3, 145320, Note_on_c, 9, 36, 0
3, 145440, Note_on_c, 9, 54, 0
3, 145440, Note_on_c, 9, 54, 127
3, 145440, Note_on_c, 9, 38, 127
3, 145559, Control_c, 9, 10, 0
3, 145560, Note_on_c, 9, 38, 0
3, 145560, Note_on_c, 9, 54, 0
3, 145560, Note_on_c, 9, 54, 100
3, 145640, Control_c, 9, 10, 64
3, 145680, Note_on_c, 9, 54, 0
3, 145680, Note_on_c, 9, 36, 127
3, 145680, Note_on_c, 9, 54, 127
3, 145740, Control_c, 9, 10, 0
3, 145800, Note_on_c, 9, 54, 0
3, 145800, Note_on_c, 9, 36, 0
3, 145800, Note_on_c, 9, 54, 100
3, 145840, Control_c, 9, 10, 64
3, 145890, Note_on_c, 9, 43, 100
3, 145920, Note_on_c, 9, 43, 0
3, 145920, Note_on_c, 9, 54, 0
3, 145920, Note_on_c, 9, 36, 127
3, 145920, Note_on_c, 9, 54, 127
3, 145920, Note_on_c, 9, 41, 127
3, 146160, Note_on_c, 9, 41, 0
3, 146160, Note_on_c, 9, 54, 0
3, 146160, Note_on_c, 9, 36, 0
3, 146160, Note_on_c, 9, 54, 127
3, 146400, Note_on_c, 9, 54, 0
3, 146400, Note_on_c, 9, 38, 127
3, 146400, Note_on_c, 9, 54, 127
3, 146640, Note_on_c, 9, 54, 0
3, 146640, Note_on_c, 9, 38, 0
3, 146640, Note_on_c, 9, 54, 127
3, 146760, Note_on_c, 9, 54, 0
3, 146760, Note_on_c, 9, 36, 127
3, 146880, Note_on_c, 9, 36, 0
3, 146880, Note_on_c, 9, 36, 127
3, 146880, Note_on_c, 9, 54, 127
3, 147120, Note_on_c, 9, 54, 0
3, 147120, Note_on_c, 9, 36, 0
3, 147120, Note_on_c, 9, 54, 127
3, 147220, Program_c, 9, 45
3, 147360, Note_on_c, 9, 54, 0
3, 147360, Note_on_c, 9, 42, 127
3, 147361, Program_c, 9, 16
3, 147362, Note_on_c, 9, 54, 127
3, 147600, Note_on_c, 9, 42, 0
3, 147600, Note_on_c, 9, 54, 127
3, 147602, Note_on_c, 9, 54, 0
3, 147720, Note_on_c, 9, 54, 0
3, 147720, Note_on_c, 9, 36, 127
3, 147780, Note_on_c, 9, 36, 0
3, 147810, Note_on_c, 9, 43, 127
3, 147840, Note_on_c, 9, 43, 0
3, 147840, Note_on_c, 9, 36, 127
3, 147840, Note_on_c, 9, 54, 127
3, 147840, Note_on_c, 9, 41, 127
3, 148080, Note_on_c, 9, 41, 0
3, 148080, Note_on_c, 9, 54, 0
3, 148080, Note_on_c, 9, 36, 0
3, 148080, Note_on_c, 9, 54, 127
3, 148320, Note_on_c, 9, 54, 0
3, 148320, Note_on_c, 9, 38, 127
3, 148320, Note_on_c, 9, 54, 127
3, 148560, Note_on_c, 9, 54, 0
3, 148560, Note_on_c, 9, 38, 0
3, 148560, Note_on_c, 9, 54, 127
3, 148680, Note_on_c, 9, 54, 0
3, 148680, Note_on_c, 9, 36, 127
3, 148800, Note_on_c, 9, 36, 0
3, 148800, Note_on_c, 9, 54, 127
3, 148920, Note_on_c, 9, 54, 0
3, 149040, Note_on_c, 9, 36, 127
3, 149040, Note_on_c, 9, 54, 127
3, 149160, Note_on_c, 9, 36, 0
3, 149280, Note_on_c, 9, 54, 0
3, 149280, Note_on_c, 9, 54, 127
3, 149280, Note_on_c, 9, 38, 127
3, 149399, Control_c, 9, 10, 0
3, 149400, Note_on_c, 9, 38, 0
3, 149400, Note_on_c, 9, 54, 0
3, 149400, Note_on_c, 9, 54, 100
3, 149480, Control_c, 9, 10, 64
3, 149520, Note_on_c, 9, 54, 0
3, 149520, Note_on_c, 9, 54, 127
3, 149520, Note_on_c, 9, 36, 127
3, 149580, Control_c, 9, 10, 0
3, 149640, Note_on_c, 9, 36, 0
3, 149640, Note_on_c, 9, 54, 0
3, 149640, Note_on_c, 9, 54, 100
3, 149680, Control_c, 9, 10, 64
3, 149730, Note_on_c, 9, 43, 100
3, 149760, Note_on_c, 9, 43, 0
3, 149760, Note_on_c, 9, 54, 0
3, 149760, Note_on_c, 9, 36, 127
3, 149760, Note_on_c, 9, 41, 127
3, 149760, Note_on_c, 9, 54, 127
3, 150000, Note_on_c, 9, 54, 0
3, 150000, Note_on_c, 9, 41, 0
3, 150000, Note_on_c, 9, 36, 0
3, 150000, Note_on_c, 9, 54, 127
3, 150240, Note_on_c, 9, 54, 0
3, 150240, Note_on_c, 9, 54, 127
3, 150240, Note_on_c, 9, 38, 127
3, 150480, Note_on_c, 9, 38, 0
3, 150480, Note_on_c, 9, 54, 0
3, 150480, Note_on_c, 9, 54, 127
3, 150600, Note_on_c, 9, 54, 0
3, 150600, Note_on_c, 9, 36, 127
3, 150720, Note_on_c, 9, 36, 0
3, 150720, Note_on_c, 9, 54, 127
3, 150720, Note_on_c, 9, 36, 127
3, 150960, Note_on_c, 9, 36, 0
3, 150960, Note_on_c, 9, 54, 0
3, 150960, Note_on_c, 9, 54, 127
3, 151060, Program_c, 9, 45
3, 151200, Note_on_c, 9, 54, 0
3, 151200, Note_on_c, 9, 42, 127
3, 151201, Program_c, 9, 16
3, 151202, Note_on_c, 9, 54, 127
3, 151440, Note_on_c, 9, 42, 0
3, 151440, Note_on_c, 9, 54, 127
3, 151442, Note_on_c, 9, 54, 0
3, 151560, Note_on_c, 9, 54, 0
3, 151560, Note_on_c, 9, 36, 127
3, 151620, Note_on_c, 9, 36, 0
3, 151650, Note_on_c, 9, 43, 127
3, 151680, Note_on_c, 9, 43, 0
3, 151680, Note_on_c, 9, 41, 127
3, 151680, Note_on_c, 9, 54, 127
3, 151680, Note_on_c, 9, 36, 127
3, 151920, Note_on_c, 9, 36, 0
3, 151920, Note_on_c, 9, 54, 0
3, 151920, Note_on_c, 9, 41, 0
3, 151920, Note_on_c, 9, 54, 127
3, 152160, Note_on_c, 9, 54, 0
3, 152160, Note_on_c, 9, 38, 127
3, 152160, Note_on_c, 9, 54, 127
3, 152400, Note_on_c, 9, 54, 0
3, 152400, Note_on_c, 9, 38, 0
3, 152400, Note_on_c, 9, 54, 127
3, 152520, Note_on_c, 9, 54, 0
3, 152520, Note_on_c, 9, 36, 127
3, 152640, Note_on_c, 9, 36, 0
3, 152640, Note_on_c, 9, 54, 127
3, 152760, Note_on_c, 9, 54, 0
3, 152880, Note_on_c, 9, 54, 127
3, 152880, Note_on_c, 9, 36, 127
3, 153000, Note_on_c, 9, 36, 0
3, 153120, Note_on_c, 9, 54, 0
3, 153120, Note_on_c, 9, 54, 127
3, 153120, Note_on_c, 9, 38, 127
3, 153239, Control_c, 9, 10, 0
3, 153240, Note_on_c, 9, 38, 0
3, 153240, Note_on_c, 9, 54, 0
3, 153240, Note_on_c, 9, 54, 100
3, 153320, Control_c, 9, 10, 64
3, 153360, Note_on_c, 9, 54, 0
3, 153360, Note_on_c, 9, 54, 127
3, 153360, Note_on_c, 9, 36, 127
3, 153420, Control_c, 9, 10, 0
3, 153480, Note_on_c, 9, 36, 0
3, 153480, Note_on_c, 9, 54, 0
3, 153480, Note_on_c, 9, 54, 100
3, 153520, Control_c, 9, 10, 64
3, 153570, Note_on_c, 9, 43, 100
3, 153600, Note_on_c, 9, 43, 0
3, 153600, Note_on_c, 9, 54, 0
3, 153600, Note_on_c, 9, 36, 127
3, 153600, Note_on_c, 9, 41, 127
3, 153600, Note_on_c, 9, 54, 127
3, 153840, Note_on_c, 9, 54, 0
3, 153840, Note_on_c, 9, 41, 0
3, 153840, Note_on_c, 9, 36, 0
3, 153840, Note_on_c, 9, 54, 127
3, 154080, Note_on_c, 9, 54, 0
3, 154080, Note_on_c, 9, 38, 127
3, 154080, Note_on_c, 9, 54, 127
3, 154320, Note_on_c, 9, 54, 0
3, 154320, Note_on_c, 9, 38, 0
3, 154320, Note_on_c, 9, 54, 127
3, 154440, Note_on_c, 9, 54, 0
3, 154440, Note_on_c, 9, 36, 127
3, 154560, Note_on_c, 9, 36, 0
3, 154560, Note_on_c, 9, 36, 127
3, 154560, Note_on_c, 9, 54, 127
3, 154800, Note_on_c, 9, 54, 0
3, 154800, Note_on_c, 9, 36, 0
3, 154800, Note_on_c, 9, 54, 127
3, 154900, Program_c, 9, 45
3, 155040, Note_on_c, 9, 54, 0
3, 155040, Note_on_c, 9, 42, 127
3, 155041, Program_c, 9, 16
3, 155042, Note_on_c, 9, 54, 127
3, 155280, Note_on_c, 9, 42, 0
3, 155280, Note_on_c, 9, 54, 127
3, 155282, Note_on_c, 9, 54, 0
3, 155400, Note_on_c, 9, 54, 0
3, 155400, Note_on_c, 9, 36, 127
3, 155460, Note_on_c, 9, 36, 0
3, 155490, Note_on_c, 9, 43, 127
3, 155520, Note_on_c, 9, 43, 0
3, 155520, Note_on_c, 9, 54, 127
3, 155520, Note_on_c, 9, 36, 127
3, 155520, Note_on_c, 9, 41, 127
3, 155760, Note_on_c, 9, 41, 0
3, 155760, Note_on_c, 9, 36, 0
3, 155760, Note_on_c, 9, 54, 0
3, 155760, Note_on_c, 9, 54, 127
3, 156000, Note_on_c, 9, 54, 0
3, 156000, Note_on_c, 9, 38, 127
3, 156000, Note_on_c, 9, 54, 127
3, 156240, Note_on_c, 9, 54, 0
3, 156240, Note_on_c, 9, 38, 0
3, 156240, Note_on_c, 9, 54, 127
3, 156360, Note_on_c, 9, 54, 0
3, 156360, Note_on_c, 9, 36, 127
3, 156480, Note_on_c, 9, 36, 0
3, 156480, Note_on_c, 9, 54, 127
3, 156600, Note_on_c, 9, 54, 0
3, 156720, Note_on_c, 9, 36, 127
3, 156720, Note_on_c, 9, 54, 127
3, 156840, Note_on_c, 9, 36, 0
3, 156960, Note_on_c, 9, 54, 0
3, 156960, Note_on_c, 9, 38, 127
3, 156960, Note_on_c, 9, 54, 127
3, 157079, Control_c, 9, 10, 0
3, 157080, Note_on_c, 9, 54, 0
3, 157080, Note_on_c, 9, 38, 0
3, 157080, Note_on_c, 9, 54, 100
3, 157160, Control_c, 9, 10, 64
3, 157200, Note_on_c, 9, 54, 0
3, 157200, Note_on_c, 9, 54, 127
3, 157200, Note_on_c, 9, 36, 127
3, 157260, Control_c, 9, 10, 0
3, 157320, Note_on_c, 9, 36, 0
3, 157320, Note_on_c, 9, 54, 0
3, 157320, Note_on_c, 9, 54, 100
3, 157360, Control_c, 9, 10, 64
3, 157410, Note_on_c, 9, 43, 100
3, 157440, Note_on_c, 9, 43, 0
3, 157440, Note_on_c, 9, 54, 0
3, 157440, Note_on_c, 9, 54, 100
3, 157440, Program_c, 9, 38
3, 157440, Control_c, 9, 7, 90
3, 157488, Control_c, 9, 7, 88
3, 157536, Control_c, 9, 7, 86
3, 157584, Control_c, 9, 7, 83
3, 157632, Control_c, 9, 7, 81
3, 157680, Note_on_c, 9, 54, 0
3, 157680, Control_c, 9, 7, 78
3, 157680, Note_on_c, 9, 54, 100
3, 157728, Control_c, 9, 7, 76
3, 157776, Control_c, 9, 7, 73
3, 157824, Control_c, 9, 7, 71
3, 157872, Control_c, 9, 7, 69
3, 157920, Note_on_c, 9, 54, 0
3, 157920, Control_c, 9, 7, 66
3, 157920, Note_on_c, 9, 54, 100
3, 157920, Note_on_c, 9, 62, 100
3, 157968, Control_c, 9, 7, 64
3, 158016, Control_c, 9, 7, 61
3, 158064, Control_c, 9, 7, 59
3, 158112, Control_c, 9, 7, 56
3, 158160, Note_on_c, 9, 62, 0
3, 158160, Note_on_c, 9, 54, 0
3, 158160, Note_on_c, 9, 54, 100
3, 158160, Control_c, 9, 7, 54
3, 158208, Control_c, 9, 7, 52
3, 158256, Control_c, 9, 7, 49
3, 158280, Note_on_c, 9, 54, 0
3, 158280, Note_on_c, 9, 54, 100
3, 158304, Control_c, 9, 7, 47
3, 158352, Control_c, 9, 7, 44
3, 158400, Note_on_c, 9, 54, 0
3, 158400, Control_c, 9, 7, 42
3, 158400, Note_on_c, 9, 54, 100
3, 158448, Control_c, 9, 7, 39
3, 158496, Control_c, 9, 7, 37
3, 158520, Note_on_c, 9, 54, 0
3, 158520, Note_on_c, 9, 62, 100
3, 158520, Note_on_c, 9, 54, 100
3, 158544, Control_c, 9, 7, 35
3, 158592, Control_c, 9, 7, 32
3, 158640, Note_on_c, 9, 54, 0
3, 158640, Note_on_c, 9, 62, 0
3, 158640, Control_c, 9, 7, 30
3, 158688, Control_c, 9, 7, 27
3, 158736, Control_c, 9, 7, 25
3, 158784, Control_c, 9, 7, 22
3, 158832, Control_c, 9, 7, 20
3, 158852, Program_c, 9, 45
3, 158852, Control_c, 9, 7, 90
3, 158880, Note_on_c, 9, 42, 127
3, 158881, Program_c, 9, 16
3, 158882, Note_on_c, 9, 54, 127
3, 159120, Note_on_c, 9, 42, 0
3, 159120, Note_on_c, 9, 54, 127
3, 159122, Note_on_c, 9, 54, 0
3, 159240, Note_on_c, 9, 54, 0
3, 159240, Note_on_c, 9, 36, 127
3, 159300, Note_on_c, 9, 36, 0
3, 159330, Note_on_c, 9, 43, 127
3, 159360, Note_on_c, 9, 43, 0
3, 159360, Note_on_c, 9, 36, 127
3, 159360, Note_on_c, 9, 41, 127
3, 159360, Note_on_c, 9, 54, 127
3, 159600, Note_on_c, 9, 54, 0
3, 159600, Note_on_c, 9, 41, 0
3, 159600, Note_on_c, 9, 36, 0
3, 159600, Note_on_c, 9, 54, 127
3, 159840, Note_on_c, 9, 54, 0
3, 159840, Note_on_c, 9, 38, 127
3, 159840, Note_on_c, 9, 54, 127
3, 160080, Note_on_c, 9, 54, 0
3, 160080, Note_on_c, 9, 38, 0
3, 160080, Note_on_c, 9, 54, 127
3, 160200, Note_on_c, 9, 54, 0
3, 160200, Note_on_c, 9, 36, 127
3, 160320, Note_on_c, 9, 36, 0
3, 160320, Note_on_c, 9, 54, 127
3, 160440, Note_on_c, 9, 54, 0
3, 160560, Note_on_c, 9, 54, 127
3, 160560, Note_on_c, 9, 36, 127
3, 160680, Note_on_c, 9, 36, 0
3, 160800, Note_on_c, 9, 54, 0
3, 160800, Note_on_c, 9, 38, 127
3, 160800, Note_on_c, 9, 54, 127
3, 160920, Note_on_c, 9, 54, 0
3, 160920, Note_on_c, 9, 38, 0
3, 160920, Note_on_c, 9, 54, 100
3, 160920, Control_c, 9, 10, 0
3, 161000, Control_c, 9, 10, 64
3, 161040, Note_on_c, 9, 54, 0
3, 161040, Note_on_c, 9, 54, 127
3, 161040, Note_on_c, 9, 36, 127
3, 161100, Control_c, 9, 10, 0
3, 161160, Note_on_c, 9, 36, 0
3, 161160, Note_on_c, 9, 54, 0
3, 161160, Note_on_c, 9, 54, 100
3, 161200, Control_c, 9, 10, 64
3, 161250, Note_on_c, 9, 43, 100
3, 161280, Note_on_c, 9, 43, 0
3, 161280, Note_on_c, 9, 54, 0
3, 161280, Note_on_c, 9, 41, 100
3, 161760, Note_on_c, 9, 41, 0
3, 162480, Control_c, 9, 7, 30
3, 162528, Control_c, 9, 7, 27
3, 162576, Control_c, 9, 7, 25
3, 162624, Control_c, 9, 7, 22
3, 162672, Control_c, 9, 7, 20
3, 162692, Control_c, 9, 7, 90
3, 162692, Program_c, 9, 45
3, 162720, Note_on_c, 9, 42, 127
3, 162721, Program_c, 9, 16
3, 162722, Note_on_c, 9, 54, 127
3, 162960, Note_on_c, 9, 42, 0
3, 162960, Note_on_c, 9, 54, 127
3, 162962, Note_on_c, 9, 54, 0
3, 163080, Note_on_c, 9, 54, 0
3, 163080, Note_on_c, 9, 36, 127
3, 163140, Note_on_c, 9, 36, 0
3, 163170, Note_on_c, 9, 43, 127
3, 163200, Note_on_c, 9, 43, 0
3, 163200, Note_on_c, 9, 36, 127
3, 163200, Note_on_c, 9, 54, 127
3, 163200, Note_on_c, 9, 41, 127
3, 163440, Note_on_c, 9, 41, 0
3, 163440, Note_on_c, 9, 54, 0
3, 163440, Note_on_c, 9, 36, 0
3, 163440, Note_on_c, 9, 54, 127
3, 163680, Note_on_c, 9, 54, 0
3, 163680, Note_on_c, 9, 38, 127
3, 163680, Note_on_c, 9, 54, 127
3, 163920, Note_on_c, 9, 54, 0
3, 163920, Note_on_c, 9, 38, 0
3, 163920, Note_on_c, 9, 54, 127
3, 164040, Note_on_c, 9, 54, 0
3, 164040, Note_on_c, 9, 36, 127
3, 164160, Note_on_c, 9, 36, 0
3, 164160, Note_on_c, 9, 54, 127
3, 164280, Note_on_c, 9, 54, 0
3, 164400, Note_on_c, 9, 36, 127
3, 164400, Note_on_c, 9, 54, 127
3, 164520, Note_on_c, 9, 36, 0
3, 164640, Note_on_c, 9, 54, 0
3, 164640, Note_on_c, 9, 54, 127
3, 164640, Note_on_c, 9, 38, 127
3, 164759, Control_c, 9, 10, 0
3, 164760, Note_on_c, 9, 38, 0
3, 164760, Note_on_c, 9, 54, 0
3, 164760, Note_on_c, 9, 54, 100
3, 164840, Control_c, 9, 10, 64
3, 164880, Note_on_c, 9, 54, 0
3, 164880, Note_on_c, 9, 54, 127
3, 164880, Note_on_c, 9, 36, 127
3, 164940, Control_c, 9, 10, 0
3, 165000, Note_on_c, 9, 36, 0
3, 165000, Note_on_c, 9, 54, 0
3, 165000, Note_on_c, 9, 54, 100
3, 165040, Control_c, 9, 10, 64
3, 165090, Note_on_c, 9, 43, 100
3, 165120, Note_on_c, 9, 43, 0
3, 165120, Note_on_c, 9, 54, 0
3, 165120, Note_on_c, 9, 54, 127
3, 165120, Note_on_c, 9, 41, 127
3, 165120, Note_on_c, 9, 36, 127
3, 165360, Note_on_c, 9, 36, 0
3, 165360, Note_on_c, 9, 41, 0
3, 165360, Note_on_c, 9, 54, 0
3, 165360, Note_on_c, 9, 54, 127
3, 165600, Note_on_c, 9, 54, 0
3, 165600, Note_on_c, 9, 38, 127
3, 165600, Note_on_c, 9, 54, 127
3, 165840, Note_on_c, 9, 54, 0
3, 165840, Note_on_c, 9, 38, 0
3, 165840, Note_on_c, 9, 54, 127
3, 165960, Note_on_c, 9, 54, 0
3, 165960, Note_on_c, 9, 36, 127
3, 166080, Note_on_c, 9, 36, 0
3, 166080, Note_on_c, 9, 36, 127
3, 166080, Note_on_c, 9, 54, 127
3, 166320, Note_on_c, 9, 54, 0
3, 166320, Note_on_c, 9, 36, 0
3, 166320, Note_on_c, 9, 54, 127
3, 166420, Program_c, 9, 45
3, 166560, Note_on_c, 9, 54, 0
3, 166560, Note_on_c, 9, 42, 127
3, 166561, Program_c, 9, 16
3, 166562, Note_on_c, 9, 54, 127
3, 166800, Note_on_c, 9, 42, 0
3, 166800, Note_on_c, 9, 54, 127
3, 166802, Note_on_c, 9, 54, 0
3, 166920, Note_on_c, 9, 54, 0
3, 166920, Note_on_c, 9, 36, 127
3, 166980, Note_on_c, 9, 36, 0
3, 167010, Note_on_c, 9, 43, 127
3, 167040, Note_on_c, 9, 43, 0
3, 167040, Note_on_c, 9, 36, 127
3, 167040, Note_on_c, 9, 41, 127
3, 167040, Note_on_c, 9, 54, 127
3, 167280, Note_on_c, 9, 54, 0
3, 167280, Note_on_c, 9, 41, 0
3, 167280, Note_on_c, 9, 36, 0
3, 167280, Note_on_c, 9, 54, 127
3, 167520, Note_on_c, 9, 54, 0
3, 167520, Note_on_c, 9, 38, 127
3, 167520, Note_on_c, 9, 54, 127
3, 167760, Note_on_c, 9, 54, 0
3, 167760, Note_on_c, 9, 38, 0
3, 167760, Note_on_c, 9, 54, 127
3, 167880, Note_on_c, 9, 54, 0
3, 167880, Note_on_c, 9, 36, 127
3, 168000, Note_on_c, 9, 36, 0
3, 168000, Note_on_c, 9, 54, 127
3, 168120, Note_on_c, 9, 54, 0
3, 168240, Note_on_c, 9, 36, 127
3, 168240, Note_on_c, 9, 54, 127
3, 168360, Note_on_c, 9, 36, 0
3, 168480, Note_on_c, 9, 54, 0
3, 168480, Note_on_c, 9, 54, 127
3, 168480, Note_on_c, 9, 38, 127
3, 168599, Control_c, 9, 10, 0
3, 168600, Note_on_c, 9, 38, 0
3, 168600, Note_on_c, 9, 54, 0
3, 168600, Note_on_c, 9, 54, 100
3, 168680, Control_c, 9, 10, 64
3, 168720, Note_on_c, 9, 54, 0
3, 168720, Note_on_c, 9, 36, 127
3, 168720, Note_on_c, 9, 54, 127
3, 168780, Control_c, 9, 10, 0
3, 168840, Note_on_c, 9, 54, 0
3, 168840, Note_on_c, 9, 36, 0
3, 168840, Note_on_c, 9, 54, 100
3, 168880, Control_c, 9, 10, 64
3, 168930, Note_on_c, 9, 43, 100
3, 168960, Note_on_c, 9, 43, 0
3, 168960, Note_on_c, 9, 54, 0
3, 168960, Note_on_c, 9, 54, 127
3, 168960, Note_on_c, 9, 41, 127
3, 168960, Note_on_c, 9, 36, 127
3, 169200, Note_on_c, 9, 36, 0
3, 169200, Note_on_c, 9, 41, 0
3, 169200, Note_on_c, 9, 54, 0
3, 169200, Note_on_c, 9, 54, 127
3, 169440, Note_on_c, 9, 54, 0
3, 169440, Note_on_c, 9, 54, 127
3, 169440, Note_on_c, 9, 38, 127
3, 169680, Note_on_c, 9, 38, 0
3, 169680, Note_on_c, 9, 54, 0
3, 169680, Note_on_c, 9, 54, 127
3, 169800, Note_on_c, 9, 54, 0
3, 169800, Note_on_c, 9, 36, 127
3, 169920, Note_on_c, 9, 36, 0
3, 169920, Note_on_c, 9, 36, 127
3, 169920, Note_on_c, 9, 54, 127
3, 170160, Note_on_c, 9, 54, 0
3, 170160, Note_on_c, 9, 36, 0
3, 170160, Note_on_c, 9, 54, 127
3, 170260, Program_c, 9, 45
3, 170400, Note_on_c, 9, 54, 0
3, 170400, Note_on_c, 9, 42, 127
3, 170401, Program_c, 9, 16
3, 170402, Note_on_c, 9, 54, 127
3, 170640, Note_on_c, 9, 42, 0
3, 170640, Note_on_c, 9, 54, 127
3, 170642, Note_on_c, 9, 54, 0
3, 170760, Note_on_c, 9, 54, 0
3, 170760, Note_on_c, 9, 36, 127
3, 170820, Note_on_c, 9, 36, 0
3, 170850, Note_on_c, 9, 43, 127
3, 170880, Note_on_c, 9, 43, 0
3, 170880, Note_on_c, 9, 54, 127
3, 170880, Note_on_c, 9, 41, 127
3, 170880, Note_on_c, 9, 36, 127
3, 171120, Note_on_c, 9, 36, 0
3, 171120, Note_on_c, 9, 41, 0
3, 171120, Note_on_c, 9, 54, 0
3, 171120, Note_on_c, 9, 54, 127
3, 171360, Note_on_c, 9, 54, 0
3, 171360, Note_on_c, 9, 54, 127
3, 171360, Note_on_c, 9, 38, 127
3, 171600, Note_on_c, 9, 38, 0
3, 171600, Note_on_c, 9, 54, 0
3, 171600, Note_on_c, 9, 54, 127
3, 171720, Note_on_c, 9, 54, 0
3, 171720, Note_on_c, 9, 36, 127
3, 171840, Note_on_c, 9, 36, 0
3, 171840, Note_on_c, 9, 54, 127
3, 171960, Note_on_c, 9, 54, 0
3, 172080, Note_on_c, 9, 54, 127
3, 172080, Note_on_c, 9, 36, 127
3, 172200, Note_on_c, 9, 36, 0
3, 172320, Note_on_c, 9, 54, 0
3, 172320, Note_on_c, 9, 54, 127
3, 172320, Note_on_c, 9, 38, 127
3, 172439, Control_c, 9, 10, 0
3, 172440, Note_on_c, 9, 38, 0
3, 172440, Note_on_c, 9, 54, 0
3, 172440, Note_on_c, 9, 54, 100
3, 172520, Control_c, 9, 10, 64
3, 172560, Note_on_c, 9, 54, 0
3, 172560, Note_on_c, 9, 54, 127
3, 172560, Note_on_c, 9, 36, 127
3, 172620, Control_c, 9, 10, 0
3, 172680, Note_on_c, 9, 36, 0
3, 172680, Note_on_c, 9, 54, 0
3, 172680, Note_on_c, 9, 54, 100
3, 172720, Control_c, 9, 10, 64
3, 172770, Note_on_c, 9, 43, 100
3, 172800, Note_on_c, 9, 43, 0
3, 172800, Note_on_c, 9, 54, 0
3, 172800, Note_on_c, 9, 41, 127
3, 172800, Note_on_c, 9, 36, 127
3, 172800, Note_on_c, 9, 54, 127
3, 173040, Note_on_c, 9, 54, 0
3, 173040, Note_on_c, 9, 36, 0
3, 173040, Note_on_c, 9, 41, 0
3, 173040, Note_on_c, 9, 54, 127
3, 173280, Note_on_c, 9, 54, 0
3, 173280, Note_on_c, 9, 38, 127
3, 173280, Note_on_c, 9, 54, 127
3, 173520, Note_on_c, 9, 54, 0
3, 173520, Note_on_c, 9, 38, 0
3, 173520, Note_on_c, 9, 54, 127
3, 173640, Note_on_c, 9, 54, 0
3, 173640, Note_on_c, 9, 36, 127
3, 173760, Note_on_c, 9, 36, 0
3, 173760, Note_on_c, 9, 36, 127
3, 173760, Note_on_c, 9, 54, 127
3, 174000, Note_on_c, 9, 54, 0
3, 174000, Note_on_c, 9, 36, 0
3, 174000, Note_on_c, 9, 54, 127
3, 174100, Program_c, 9, 45
3, 174240, Note_on_c, 9, 54, 0
3, 174240, Note_on_c, 9, 42, 127
3, 174241, Program_c, 9, 16
3, 174242, Note_on_c, 9, 54, 127
3, 174480, Note_on_c, 9, 42, 0
3, 174480, Note_on_c, 9, 54, 127
3, 174482, Note_on_c, 9, 54, 0
3, 174600, Note_on_c, 9, 54, 0
3, 174600, Note_on_c, 9, 36, 127
3, 174660, Note_on_c, 9, 36, 0
3, 174690, Note_on_c, 9, 43, 127
3, 174720, Note_on_c, 9, 43, 0
3, 174720, Note_on_c, 9, 54, 127
3, 174720, Note_on_c, 9, 36, 127
3, 174720, Note_on_c, 9, 41, 127
3, 174960, Note_on_c, 9, 41, 0
3, 174960, Note_on_c, 9, 36, 0
3, 174960, Note_on_c, 9, 54, 0
3, 174960, Note_on_c, 9, 54, 127
3, 175200, Note_on_c, 9, 54, 0
3, 175200, Note_on_c, 9, 38, 127
3, 175200, Note_on_c, 9, 54, 127
3, 175440, Note_on_c, 9, 54, 0
3, 175440, Note_on_c, 9, 38, 0
3, 175440, Note_on_c, 9, 54, 127
3, 175560, Note_on_c, 9, 54, 0
3, 175560, Note_on_c, 9, 36, 127
3, 175680, Note_on_c, 9, 36, 0
3, 175680, Note_on_c, 9, 54, 127
3, 175800, Note_on_c, 9, 54, 0
3, 175920, Note_on_c, 9, 36, 127
3, 175920, Note_on_c, 9, 54, 127
3, 176040, Note_on_c, 9, 36, 0
3, 176160, Note_on_c, 9, 54, 0
3, 176160, Note_on_c, 9, 54, 127
3, 176160, Note_on_c, 9, 38, 127
3, 176279, Control_c, 9, 10, 0
3, 176280, Note_on_c, 9, 38, 0
3, 176280, Note_on_c, 9, 54, 0
3, 176280, Note_on_c, 9, 54, 100
3, 176360, Control_c, 9, 10, 64
3, 176400, Note_on_c, 9, 54, 0
3, 176400, Note_on_c, 9, 54, 127
3, 176400, Note_on_c, 9, 36, 127
3, 176460, Control_c, 9, 10, 0
3, 176520, Note_on_c, 9, 36, 0
3, 176520, Note_on_c, 9, 54, 0
3, 176520, Note_on_c, 9, 54, 100
3, 176560, Control_c, 9, 10, 64
3, 176610, Note_on_c, 9, 43, 100
3, 176640, Note_on_c, 9, 43, 0
3, 176640, Note_on_c, 9, 54, 0
3, 176640, Note_on_c, 9, 41, 127
3, 176640, Note_on_c, 9, 36, 127
3, 176640, Note_on_c, 9, 54, 127
3, 176880, Note_on_c, 9, 54, 0
3, 176880, Note_on_c, 9, 36, 0
3, 176880, Note_on_c, 9, 41, 0
3, 176880, Note_on_c, 9, 54, 127
3, 177120, Note_on_c, 9, 54, 0
3, 177120, Note_on_c, 9, 54, 127
3, 177120, Note_on_c, 9, 38, 127
3, 177360, Note_on_c, 9, 38, 0
3, 177360, Note_on_c, 9, 54, 0
3, 177360, Note_on_c, 9, 54, 127
3, 177480, Note_on_c, 9, 54, 0
3, 177480, Note_on_c, 9, 36, 127
3, 177600, Note_on_c, 9, 36, 0
3, 177600, Note_on_c, 9, 54, 127
3, 177600, Note_on_c, 9, 36, 127
3, 177840, Note_on_c, 9, 36, 0
3, 177840, Note_on_c, 9, 54, 0
3, 177840, Note_on_c, 9, 54, 127
3, 177940, Program_c, 9, 45
3, 178080, Note_on_c, 9, 54, 0
3, 178080, Note_on_c, 9, 42, 127
3, 178081, Program_c, 9, 16
3, 178082, Note_on_c, 9, 54, 127
3, 178320, Note_on_c, 9, 42, 0
3, 178320, Note_on_c, 9, 54, 127
3, 178322, Note_on_c, 9, 54, 0
3, 178440, Note_on_c, 9, 54, 0
3, 178440, Note_on_c, 9, 36, 127
3, 178500, Note_on_c, 9, 36, 0
3, 178530, Note_on_c, 9, 43, 127
3, 178560, Note_on_c, 9, 43, 0
3, 178560, Note_on_c, 9, 41, 127
3, 178560, Note_on_c, 9, 36, 127
3, 178560, Note_on_c, 9, 54, 127
3, 178800, Note_on_c, 9, 54, 0
3, 178800, Note_on_c, 9, 36, 0
3, 178800, Note_on_c, 9, 41, 0
3, 178800, Note_on_c, 9, 54, 127
3, 179040, Note_on_c, 9, 54, 0
3, 179040, Note_on_c, 9, 38, 127
3, 179040, Note_on_c, 9, 54, 127
3, 179280, Note_on_c, 9, 54, 0
3, 179280, Note_on_c, 9, 38, 0
3, 179280, Note_on_c, 9, 54, 127
3, 179400, Note_on_c, 9, 54, 0
3, 179400, Note_on_c, 9, 36, 127
3, 179520, Note_on_c, 9, 36, 0
3, 179520, Note_on_c, 9, 54, 127
3, 179640, Note_on_c, 9, 54, 0
3, 179760, Note_on_c, 9, 36, 127
3, 179760, Note_on_c, 9, 54, 127
3, 179880, Note_on_c, 9, 36, 0
3, 180000, Note_on_c, 9, 54, 0
3, 180000, Note_on_c, 9, 38, 127
3, 180000, Note_on_c, 9, 54, 127
3, 180119, Control_c, 9, 10, 0
3, 180120, Note_on_c, 9, 54, 0
3, 180120, Note_on_c, 9, 38, 0
3, 180120, Note_on_c, 9, 54, 100
3, 180200, Control_c, 9, 10, 64
3, 180240, Note_on_c, 9, 54, 0
3, 180240, Note_on_c, 9, 54, 127
3, 180240, Note_on_c, 9, 36, 127
3, 180300, Control_c, 9, 10, 0
3, 180360, Note_on_c, 9, 36, 0
3, 180360, Note_on_c, 9, 54, 0
3, 180360, Note_on_c, 9, 54, 100
3, 180400, Control_c, 9, 10, 64
3, 180450, Note_on_c, 9, 43, 100
3, 180480, Note_on_c, 9, 43, 0
3, 180480, Note_on_c, 9, 54, 0
3, 180480, Note_on_c, 9, 54, 127
3, 180480, Note_on_c, 9, 41, 127
3, 180480, Note_on_c, 9, 36, 127
3, 180720, Note_on_c, 9, 36, 0
3, 180720, Note_on_c, 9, 41, 0
3, 180720, Note_on_c, 9, 54, 0
3, 180720, Note_on_c, 9, 54, 127
3, 180960, Note_on_c, 9, 54, 0
3, 180960, Note_on_c, 9, 54, 127
3, 180960, Note_on_c, 9, 38, 127
3, 181200, Note_on_c, 9, 38, 0
3, 181200, Note_on_c, 9, 54, 0
3, 181200, Note_on_c, 9, 54, 127
3, 181320, Note_on_c, 9, 54, 0
3, 181320, Note_on_c, 9, 36, 127
3, 181440, Note_on_c, 9, 36, 0
3, 181440, Note_on_c, 9, 36, 127
3, 181440, Note_on_c, 9, 54, 127
3, 181680, Note_on_c, 9, 54, 0
3, 181680, Note_on_c, 9, 36, 0
3, 181680, Note_on_c, 9, 54, 127
3, 181780, Program_c, 9, 45
3, 181920, Note_on_c, 9, 54, 0
3, 181920, Note_on_c, 9, 42, 127
3, 181921, Program_c, 9, 16
3, 181922, Note_on_c, 9, 54, 127
3, 182160, Note_on_c, 9, 42, 0
3, 182160, Note_on_c, 9, 54, 127
3, 182162, Note_on_c, 9, 54, 0
3, 182280, Note_on_c, 9, 54, 0
3, 182280, Note_on_c, 9, 36, 127
3, 182340, Note_on_c, 9, 36, 0
3, 182370, Note_on_c, 9, 43, 127
3, 182400, Note_on_c, 9, 43, 0
3, 182400, Note_on_c, 9, 36, 127
3, 182400, Note_on_c, 9, 41, 127
3, 182400, Note_on_c, 9, 54, 127
3, 182640, Note_on_c, 9, 54, 0
3, 182640, Note_on_c, 9, 41, 0
3, 182640, Note_on_c, 9, 36, 0
3, 182640, Note_on_c, 9, 54, 127
3, 182880, Note_on_c, 9, 54, 0
3, 182880, Note_on_c, 9, 54, 127
3, 182880, Note_on_c, 9, 38, 127
3, 183120, Note_on_c, 9, 38, 0
3, 183120, Note_on_c, 9, 54, 0
3, 183240, Note_on_c, 9, 36, 127
3, 183360, Note_on_c, 9, 36, 0
3, 183600, Note_on_c, 9, 36, 127
3, 183720, Note_on_c, 9, 36, 0
3, 183840, Note_on_c, 9, 38, 127
3, 183951, Control_c, 9, 7, 63
3, 183960, Note_on_c, 9, 38, 0
3, 183975, Control_c, 9, 7, 62
3, 183994, Control_c, 9, 7, 61
3, 184013, Control_c, 9, 7, 60
3, 184032, Control_c, 9, 7, 59
3, 184056, Control_c, 9, 7, 58
3, 184076, Control_c, 9, 7, 57
3, 184095, Control_c, 9, 7, 56
3, 184114, Control_c, 9, 7, 55
3, 184133, Control_c, 9, 7, 54
3, 184157, Control_c, 9, 7, 53
3, 184176, Control_c, 9, 7, 52
3, 184196, Control_c, 9, 7, 51
3, 184200, Note_on_c, 9, 38, 127
3, 184215, Control_c, 9, 7, 50
3, 184239, Control_c, 9, 7, 49
3, 184258, Control_c, 9, 7, 48
3, 184277, Control_c, 9, 7, 47
3, 184296, Control_c, 9, 7, 46
3, 184316, Control_c, 9, 7, 45
3, 184320, Note_on_c, 9, 38, 0
3, 184340, Control_c, 9, 7, 44
3, 184359, Control_c, 9, 7, 43
3, 184378, Control_c, 9, 7, 42
3, 184397, Control_c, 9, 7, 41
3, 184421, Control_c, 9, 7, 40
3, 184440, Control_c, 9, 7, 39
3, 184460, Control_c, 9, 7, 38
3, 184479, Control_c, 9, 7, 37
3, 184498, Control_c, 9, 7, 36
3, 184522, Control_c, 9, 7, 35
3, 184541, Control_c, 9, 7, 34
3, 184560, Control_c, 9, 7, 33
3, 184560, Note_on_c, 9, 38, 127
3, 184580, Control_c, 9, 7, 32
3, 184604, Control_c, 9, 7, 31
3, 184623, Control_c, 9, 7, 30
3, 184642, Control_c, 9, 7, 29
3, 184661, Control_c, 9, 7, 28
3, 184680, Note_on_c, 9, 38, 0
3, 184680, Control_c, 9, 7, 27
3, 184704, Control_c, 9, 7, 26
3, 184724, Control_c, 9, 7, 25
3, 184743, Control_c, 9, 7, 24
3, 184762, Control_c, 9, 7, 23
3, 184786, Control_c, 9, 7, 22
3, 184805, Control_c, 9, 7, 21
3, 184824, Control_c, 9, 7, 20
3, 184844, Control_c, 9, 7, 19
3, 184863, Control_c, 9, 7, 18
3, 184887, Control_c, 9, 7, 17
3, 184906, Control_c, 9, 7, 16
3, 184920, Note_on_c, 9, 38, 127
3, 184925, Control_c, 9, 7, 15
3, 184944, Control_c, 9, 7, 14
3, 184968, Control_c, 9, 7, 13
3, 184988, Control_c, 9, 7, 12
3, 185007, Control_c, 9, 7, 11
3, 185026, Control_c, 9, 7, 10
3, 185040, Note_on_c, 9, 38, 0
3, 185045, Control_c, 9, 7, 9
3, 185069, Control_c, 9, 7, 8
3, 185088, Control_c, 9, 7, 7
3, 185108, Control_c, 9, 7, 6
3, 185127, Control_c, 9, 7, 5
3, 185151, Control_c, 9, 7, 4
3, 185170, Control_c, 9, 7, 3
3, 185189, Control_c, 9, 7, 2
3, 185208, Control_c, 9, 7, 1
3, 185228, Control_c, 9, 7, 0
3, 185280, Note_on_c, 9, 38, 127
3, 185400, Note_on_c, 9, 38, 0
3, 185400, End_track
4, 0, Start_track
4, 0, MIDI_port, 0
4, 0, Title_t, "Drums effects"
4, 0, Program_c, 12, 127
4, 0, Control_c, 12, 7, 60
4, 0, Control_c, 12, 10, 64
4, 161270, Note_on_c, 12, 65, 100
4, 161750, Note_on_c, 12, 65, 0
4, 161750, Note_on_c, 12, 52, 100
4, 162110, Note_on_c, 12, 52, 0
4, 162110, Note_on_c, 12, 52, 100
4, 162230, Note_on_c, 12, 52, 0
4, 162230, Note_on_c, 12, 65, 100
4, 162710, Note_on_c, 12, 65, 0
4, 165110, Note_on_c, 12, 65, 100
4, 165590, Note_on_c, 12, 65, 0
4, 165590, Note_on_c, 12, 52, 100
4, 165950, Note_on_c, 12, 52, 0
4, 165950, Note_on_c, 12, 52, 100
4, 166070, Note_on_c, 12, 52, 0
4, 166070, Note_on_c, 12, 65, 100
4, 166550, Note_on_c, 12, 65, 0
4, 166550, End_track
5, 0, Start_track
5, 0, MIDI_port, 0
5, 0, Title_t, "Vocals - Damon Albarn"
5, 0, Program_c, 6, 53
5, 0, Control_c, 6, 7, 120
5, 0, Control_c, 6, 10, 64
5, 19080, Note_on_c, 6, 64, 100
5, 19080, Lyric_t, "The "
5, 19200, Note_on_c, 6, 64, 0
5, 19200, Note_on_c, 6, 66, 100
5, 19200, Lyric_t, "death "
5, 19440, Note_on_c, 6, 66, 0
5, 19440, Note_on_c, 6, 66, 100
5, 19440, Lyric_t, "of "
5, 19680, Note_on_c, 6, 66, 0
5, 19680, Note_on_c, 6, 66, 100
5, 19680, Lyric_t, "the "
5, 19920, Note_on_c, 6, 66, 0
5, 19920, Note_on_c, 6, 69, 100
5, 19920, Lyric_t, "par"
5, 20400, Note_on_c, 6, 69, 0
5, 20400, Note_on_c, 6, 66, 100
5, 20400, Lyric_t, "ty "
5, 21120, Note_on_c, 6, 66, 0
5, 23040, Note_on_c, 6, 66, 100
5, 23040, Lyric_t, "came "
5, 23280, Note_on_c, 6, 66, 0
5, 23280, Note_on_c, 6, 64, 100
5, 23280, Lyric_t, "as "
5, 23400, Note_on_c, 6, 64, 0
5, 23400, Note_on_c, 6, 66, 100
5, 23400, Lyric_t, "no "
5, 23640, Note_on_c, 6, 66, 0
5, 23640, Note_on_c, 6, 64, 100
5, 23640, Lyric_t, "sur"
5, 23760, Note_on_c, 6, 64, 0
5, 23760, Note_on_c, 6, 66, 100
5, 23760, Lyric_t, "prise "
5, 24600, Note_on_c, 6, 66, 0
5, 26880, Note_on_c, 6, 61, 100
5, 26880, Lyric_t, "Why "
5, 27120, Note_on_c, 6, 61, 0
5, 27120, Note_on_c, 6, 61, 100
5, 27120, Lyric_t, "did "
5, 27360, Note_on_c, 6, 61, 0
5, 27360, Note_on_c, 6, 61, 100
5, 27360, Lyric_t, "we "
5, 27600, Note_on_c, 6, 61, 0
5, 27600, Note_on_c, 6, 61, 100
5, 27600, Lyric_t, "bo"
5, 28080, Note_on_c, 6, 61, 0
5, 28080, Note_on_c, 6, 71, 100
5, 28080, Lyric_t, "ther "
5, 28560, Note_on_c, 6, 71, 0
5, 28560, Note_on_c, 6, 66, 100
5, 28560, Lyric_t, "? "
5, 29760, Note_on_c, 6, 66, 0
5, 30960, Note_on_c, 6, 66, 100
5, 30960, Lyric_t, "Should "
5, 31080, Note_on_c, 6, 66, 0
5, 31080, Note_on_c, 6, 64, 100
5, 31080, Lyric_t, "have "
5, 31200, Note_on_c, 6, 64, 0
5, 31200, Note_on_c, 6, 66, 100
5, 31200, Lyric_t, "stayed "
5, 31440, Note_on_c, 6, 66, 0
5, 31440, Note_on_c, 6, 64, 100
5, 31440, Lyric_t, "a"
5, 31560, Note_on_c, 6, 64, 0
5, 31560, Note_on_c, 6, 66, 100
5, 31560, Lyric_t, "way "
5, 32640, Note_on_c, 6, 66, 0
5, 33840, Note_on_c, 6, 62, 100
5, 33840, Lyric_t, "A"
5, 34080, Note_on_c, 6, 62, 0
5, 34080, Note_on_c, 6, 62, 100
5, 34080, Lyric_t, "no"
5, 34320, Note_on_c, 6, 62, 0
5, 34320, Note_on_c, 6, 64, 100
5, 34320, Lyric_t, "ther "
5, 34800, Note_on_c, 6, 64, 0
5, 34800, Note_on_c, 6, 66, 100
5, 34800, Lyric_t, "night "
5, 36960, Note_on_c, 6, 66, 0
5, 36960, Note_on_c, 6, 66, 100
5, 36960, Lyric_t, "and "
5, 37200, Note_on_c, 6, 66, 0
5, 37200, Note_on_c, 6, 66, 100
5, 37200, Lyric_t, "I "
5, 37440, Note_on_c, 6, 66, 0
5, 37440, Note_on_c, 6, 66, 100
5, 37440, Lyric_t, "thought "
5, 37920, Note_on_c, 6, 66, 0
5, 37920, Note_on_c, 6, 67, 100
5, 37920, Lyric_t, "Well "
5, 38640, Note_on_c, 6, 67, 0
5, 38640, Note_on_c, 6, 62, 100
5, 38640, Lyric_t, "well "
5, 40320, Note_on_c, 6, 62, 0
5, 41520, Note_on_c, 6, 59, 100
5, 41520, Lyric_t, "Go "
5, 41760, Note_on_c, 6, 59, 0
5, 41760, Note_on_c, 6, 62, 100
5, 41760, Lyric_t, "to "
5, 42000, Note_on_c, 6, 62, 0
5, 42000, Note_on_c, 6, 59, 100
5, 42000, Lyric_t, "a"
5, 42240, Note_on_c, 6, 59, 0
5, 42240, Note_on_c, 6, 66, 100
5, 42240, Lyric_t, "no"
5, 42480, Note_on_c, 6, 66, 0
5, 42480, Note_on_c, 6, 66, 100
5, 42480, Lyric_t, "ther "
5, 42960, Note_on_c, 6, 66, 0
5, 42960, Note_on_c, 6, 67, 100
5, 42960, Lyric_t, "par"
5, 43440, Note_on_c, 6, 67, 0
5, 43440, Note_on_c, 6, 66, 100
5, 43440, Lyric_t, "ty "
5, 44160, Note_on_c, 6, 66, 0
5, 44880, Note_on_c, 6, 66, 100
5, 44880, Lyric_t, "and "
5, 45120, Note_on_c, 6, 66, 0
5, 45120, Note_on_c, 6, 64, 100
5, 45120, Lyric_t, "hang "
5, 45360, Note_on_c, 6, 64, 0
5, 45360, Note_on_c, 6, 66, 100
5, 45360, Lyric_t, "my"
5, 45840, Note_on_c, 6, 66, 0
5, 45840, Note_on_c, 6, 62, 100
5, 45840, Lyric_t, "self "
5, 47520, Note_on_c, 6, 62, 0
5, 48000, Note_on_c, 6, 66, 100
5, 48000, Lyric_t, "gen"
5, 48480, Note_on_c, 6, 66, 0
5, 48480, Note_on_c, 6, 66, 100
5, 48480, Lyric_t, "tly "
5, 48720, Note_on_c, 6, 66, 0
5, 48720, Note_on_c, 6, 66, 100
5, 48720, Lyric_t, "on "
5, 49200, Note_on_c, 6, 66, 0
5, 49200, Note_on_c, 6, 69, 100
5, 49200, Lyric_t, "the "
5, 49680, Note_on_c, 6, 69, 0
5, 49680, Note_on_c, 6, 69, 100
5, 49680, Lyric_t, "shelf "
5, 50880, Note_on_c, 6, 69, 0
5, 61320, Note_on_c, 6, 64, 100
5, 61320, Lyric_t, "The "
5, 61440, Note_on_c, 6, 64, 0
5, 61440, Note_on_c, 6, 66, 100
5, 61440, Lyric_t, "death "
5, 61680, Note_on_c, 6, 66, 0
5, 61680, Note_on_c, 6, 66, 100
5, 61680, Lyric_t, "of "
5, 61920, Note_on_c, 6, 66, 0
5, 61920, Note_on_c, 6, 66, 100
5, 61920, Lyric_t, "a "
5, 62160, Note_on_c, 6, 66, 0
5, 62160, Note_on_c, 6, 69, 100
5, 62160, Lyric_t, "teen"
5, 62640, Note_on_c, 6, 69, 0
5, 62640, Note_on_c, 6, 66, 100
5, 62640, Lyric_t, "a"
5, 63120, Note_on_c, 6, 66, 0
5, 63120, Note_on_c, 6, 66, 100
5, 63120, Lyric_t, "ger "
5, 64320, Note_on_c, 6, 66, 0
5, 65280, Note_on_c, 6, 66, 100
5, 65280, Lyric_t, "stan"
5, 65520, Note_on_c, 6, 66, 0
5, 65520, Note_on_c, 6, 64, 100
5, 65520, Lyric_t, "ding "
5, 65640, Note_on_c, 6, 64, 0
5, 65640, Note_on_c, 6, 66, 100
5, 65640, Lyric_t, "on "
5, 65880, Note_on_c, 6, 66, 0
5, 65880, Note_on_c, 6, 64, 100
5, 65880, Lyric_t, "his "
5, 66000, Note_on_c, 6, 64, 0
5, 66000, Note_on_c, 6, 66, 100
5, 66000, Lyric_t, "own "
5, 66840, Note_on_c, 6, 66, 0
5, 69120, Note_on_c, 6, 61, 100
5, 69120, Lyric_t, "Why "
5, 69360, Note_on_c, 6, 61, 0
5, 69360, Note_on_c, 6, 61, 100
5, 69360, Lyric_t, "did "
5, 69600, Note_on_c, 6, 61, 0
5, 69600, Note_on_c, 6, 61, 100
5, 69600, Lyric_t, "he "
5, 69840, Note_on_c, 6, 61, 0
5, 69840, Note_on_c, 6, 61, 100
5, 69840, Lyric_t, "bo"
5, 70320, Note_on_c, 6, 61, 0
5, 70320, Note_on_c, 6, 71, 100
5, 70320, Lyric_t, "ther "
5, 70800, Note_on_c, 6, 71, 0
5, 70800, Note_on_c, 6, 66, 100
5, 70800, Lyric_t, "? "
5, 72000, Note_on_c, 6, 66, 0
5, 73200, Note_on_c, 6, 66, 100
5, 73200, Lyric_t, "Should "
5, 73320, Note_on_c, 6, 66, 0
5, 73320, Note_on_c, 6, 64, 100
5, 73320, Lyric_t, "have "
5, 73440, Note_on_c, 6, 64, 0
5, 73440, Note_on_c, 6, 66, 100
5, 73440, Lyric_t, "slept "
5, 73680, Note_on_c, 6, 66, 0
5, 73680, Note_on_c, 6, 64, 100
5, 73680, Lyric_t, "a"
5, 73800, Note_on_c, 6, 64, 0
5, 73800, Note_on_c, 6, 66, 100
5, 73800, Lyric_t, "lone "
5, 74880, Note_on_c, 6, 66, 0
5, 76080, Note_on_c, 6, 62, 100
5, 76080, Lyric_t, "A"
5, 76320, Note_on_c, 6, 62, 0
5, 76320, Note_on_c, 6, 62, 100
5, 76320, Lyric_t, "no"
5, 76560, Note_on_c, 6, 62, 0
5, 76560, Note_on_c, 6, 64, 100
5, 76560, Lyric_t, "ther "
5, 77040, Note_on_c, 6, 64, 0
5, 77040, Note_on_c, 6, 66, 100
5, 77040, Lyric_t, "night "
5, 79200, Note_on_c, 6, 66, 0
5, 79200, Note_on_c, 6, 66, 100
5, 79200, Lyric_t, "and "
5, 79440, Note_on_c, 6, 66, 0
5, 79440, Note_on_c, 6, 66, 100
5, 79440, Lyric_t, "I "
5, 79680, Note_on_c, 6, 66, 0
5, 79680, Note_on_c, 6, 66, 100
5, 79680, Lyric_t, "thought "
5, 80160, Note_on_c, 6, 66, 0
5, 80160, Note_on_c, 6, 67, 100
5, 80160, Lyric_t, "Well "
5, 80880, Note_on_c, 6, 67, 0
5, 80880, Note_on_c, 6, 62, 100
5, 80880, Lyric_t, "well "
5, 82560, Note_on_c, 6, 62, 0
5, 83760, Note_on_c, 6, 59, 100
5, 83760, Lyric_t, "Go "
5, 84000, Note_on_c, 6, 59, 0
5, 84000, Note_on_c, 6, 62, 100
5, 84000, Lyric_t, "to "
5, 84240, Note_on_c, 6, 62, 0
5, 84240, Note_on_c, 6, 59, 100
5, 84240, Lyric_t, "a"
5, 84480, Note_on_c, 6, 59, 0
5, 84480, Note_on_c, 6, 66, 100
5, 84480, Lyric_t, "no"
5, 84720, Note_on_c, 6, 66, 0
5, 84720, Note_on_c, 6, 66, 100
5, 84720, Lyric_t, "ther "
5, 85200, Note_on_c, 6, 66, 0
5, 85200, Note_on_c, 6, 67, 100
5, 85200, Lyric_t, "par"
5, 85680, Note_on_c, 6, 67, 0
5, 85680, Note_on_c, 6, 66, 100
5, 85680, Lyric_t, "ty "
5, 86400, Note_on_c, 6, 66, 0
5, 87120, Note_on_c, 6, 66, 100
5, 87120, Lyric_t, "and "
5, 87360, Note_on_c, 6, 66, 0
5, 87360, Note_on_c, 6, 64, 100
5, 87360, Lyric_t, "hang "
5, 87600, Note_on_c, 6, 64, 0
5, 87600, Note_on_c, 6, 66, 100
5, 87600, Lyric_t, "my"
5, 88080, Note_on_c, 6, 66, 0
5, 88080, Note_on_c, 6, 62, 100
5, 88080, Lyric_t, "self "
5, 89760, Note_on_c, 6, 62, 0
5, 90240, Note_on_c, 6, 66, 100
5, 90240, Lyric_t, "gen"
5, 90720, Note_on_c, 6, 66, 0
5, 90720, Note_on_c, 6, 66, 100
5, 90720, Lyric_t, "tly "
5, 90960, Note_on_c, 6, 66, 0
5, 90960, Note_on_c, 6, 66, 100
5, 90960, Lyric_t, "on "
5, 91440, Note_on_c, 6, 66, 0
5, 91440, Note_on_c, 6, 69, 100
5, 91440, Lyric_t, "the "
5, 91920, Note_on_c, 6, 69, 0
5, 91920, Note_on_c, 6, 69, 100
5, 91920, Lyric_t, "shelf "
5, 93120, Note_on_c, 6, 69, 0
5, 110640, Note_on_c, 6, 62, 100
5, 110640, Lyric_t, "A"
5, 110880, Note_on_c, 6, 62, 0
5, 110880, Note_on_c, 6, 62, 100
5, 110880, Lyric_t, "no"
5, 111120, Note_on_c, 6, 62, 0
5, 111120, Note_on_c, 6, 64, 100
5, 111120, Lyric_t, "ther "
5, 111600, Note_on_c, 6, 64, 0
5, 111600, Note_on_c, 6, 66, 100
5, 111600, Lyric_t, "night "
5, 113760, Note_on_c, 6, 66, 0
5, 113760, Note_on_c, 6, 66, 100
5, 113760, Lyric_t, "and "
5, 114000, Note_on_c, 6, 66, 0
5, 114000, Note_on_c, 6, 66, 100
5, 114000, Lyric_t, "I "
5, 114240, Note_on_c, 6, 66, 0
5, 114240, Note_on_c, 6, 66, 100
5, 114240, Lyric_t, "thought "
5, 114720, Note_on_c, 6, 66, 0
5, 114720, Note_on_c, 6, 67, 100
5, 114720, Lyric_t, "Well "
5, 115440, Note_on_c, 6, 67, 0
5, 115440, Note_on_c, 6, 62, 100
5, 115440, Lyric_t, "well "
5, 117120, Note_on_c, 6, 62, 0
5, 118320, Note_on_c, 6, 59, 100
5, 118320, Lyric_t, "Go "
5, 118560, Note_on_c, 6, 59, 0
5, 118560, Note_on_c, 6, 62, 100
5, 118560, Lyric_t, "to "
5, 118800, Note_on_c, 6, 62, 0
5, 118800, Note_on_c, 6, 59, 100
5, 118800, Lyric_t, "a"
5, 119040, Note_on_c, 6, 59, 0
5, 119040, Note_on_c, 6, 66, 100
5, 119040, Lyric_t, "no"
5, 119280, Note_on_c, 6, 66, 0
5, 119280, Note_on_c, 6, 66, 100
5, 119280, Lyric_t, "ther "
5, 119760, Note_on_c, 6, 66, 0
5, 119760, Note_on_c, 6, 67, 100
5, 119760, Lyric_t, "par"
5, 120240, Note_on_c, 6, 67, 0
5, 120240, Note_on_c, 6, 66, 100
5, 120240, Lyric_t, "ty "
5, 120960, Note_on_c, 6, 66, 0
5, 121680, Note_on_c, 6, 66, 100
5, 121680, Lyric_t, "and "
5, 121920, Note_on_c, 6, 66, 0
5, 121920, Note_on_c, 6, 64, 100
5, 121920, Lyric_t, "hang "
5, 122160, Note_on_c, 6, 64, 0
5, 122160, Note_on_c, 6, 66, 100
5, 122160, Lyric_t, "my"
5, 122640, Note_on_c, 6, 66, 0
5, 122640, Note_on_c, 6, 62, 100
5, 122640, Lyric_t, "self "
5, 124320, Note_on_c, 6, 62, 0
5, 124800, Note_on_c, 6, 66, 100
5, 124800, Lyric_t, "gen"
5, 125280, Note_on_c, 6, 66, 0
5, 125280, Note_on_c, 6, 66, 100
5, 125280, Lyric_t, "tly "
5, 125520, Note_on_c, 6, 66, 0
5, 125520, Note_on_c, 6, 66, 100
5, 125520, Lyric_t, "on "
5, 126000, Note_on_c, 6, 66, 0
5, 126000, Note_on_c, 6, 69, 100
5, 126000, Lyric_t, "the "
5, 126480, Note_on_c, 6, 69, 0
5, 126480, Note_on_c, 6, 69, 100
5, 126480, Lyric_t, "shelf "
5, 127680, Note_on_c, 6, 69, 0
5, 127680, End_track
6, 0, Start_track
6, 0, MIDI_port, 0
6, 0, Title_t, "Vocals - backing (chorus)"
6, 0, Program_c, 7, 53
6, 0, Control_c, 7, 7, 80
6, 0, Control_c, 7, 10, 64
6, 33840, Note_on_c, 7, 69, 100
6, 33840, Lyric_t, "A"
6, 34080, Note_on_c, 7, 69, 0
6, 34080, Note_on_c, 7, 69, 100
6, 34080, Lyric_t, "no"
6, 34320, Note_on_c, 7, 69, 0
6, 34320, Note_on_c, 7, 69, 100
6, 34320, Lyric_t, "ther "
6, 34800, Note_on_c, 7, 69, 0
6, 34800, Note_on_c, 7, 69, 100
6, 34800, Lyric_t, "night "
6, 36960, Note_on_c, 7, 69, 0
6, 36960, Note_on_c, 7, 69, 100
6, 36960, Lyric_t, "and "
6, 37200, Note_on_c, 7, 69, 0
6, 37200, Note_on_c, 7, 69, 100
6, 37200, Lyric_t, "I "
6, 37440, Note_on_c, 7, 69, 0
6, 37440, Note_on_c, 7, 69, 100
6, 37440, Lyric_t, "thought "
6, 37920, Note_on_c, 7, 69, 0
6, 37920, Note_on_c, 7, 69, 100
6, 37920, Lyric_t, "Well "
6, 38160, Note_on_c, 7, 69, 0
6, 38160, Note_on_c, 7, 71, 100
6, 38640, Note_on_c, 7, 71, 0
6, 38640, Note_on_c, 7, 71, 100
6, 38640, Lyric_t, "well "
6, 40320, Note_on_c, 7, 71, 0
6, 41520, Note_on_c, 7, 71, 100
6, 41520, Lyric_t, "Go "
6, 41760, Note_on_c, 7, 71, 0
6, 41760, Note_on_c, 7, 71, 100
6, 41760, Lyric_t, "to "
6, 42000, Note_on_c, 7, 71, 0
6, 42000, Note_on_c, 7, 69, 100
6, 42000, Lyric_t, "a"
6, 42240, Note_on_c, 7, 69, 0
6, 42240, Note_on_c, 7, 71, 100
6, 42240, Lyric_t, "no"
6, 42480, Note_on_c, 7, 71, 0
6, 42480, Note_on_c, 7, 69, 100
6, 42480, Lyric_t, "ther "
6, 42960, Note_on_c, 7, 69, 0
6, 42960, Note_on_c, 7, 71, 100
6, 42960, Lyric_t, "par"
6, 43440, Note_on_c, 7, 71, 0
6, 43440, Note_on_c, 7, 69, 100
6, 43440, Lyric_t, "ty "
6, 44160, Note_on_c, 7, 69, 0
6, 44880, Note_on_c, 7, 69, 100
6, 44880, Lyric_t, "and "
6, 45120, Note_on_c, 7, 69, 0
6, 45120, Note_on_c, 7, 69, 100
6, 45120, Lyric_t, "hang "
6, 45360, Note_on_c, 7, 69, 0
6, 45360, Note_on_c, 7, 70, 100
6, 45360, Lyric_t, "my"
6, 45840, Note_on_c, 7, 70, 0
6, 45840, Note_on_c, 7, 71, 100
6, 45840, Lyric_t, "self "
6, 47520, Note_on_c, 7, 71, 0
6, 48000, Note_on_c, 7, 71, 100
6, 48000, Lyric_t, "gen"
6, 48480, Note_on_c, 7, 71, 0
6, 48480, Note_on_c, 7, 71, 100
6, 48480, Lyric_t, "tly "
6, 48720, Note_on_c, 7, 71, 0
6, 48720, Note_on_c, 7, 71, 100
6, 48720, Lyric_t, "on "
6, 49200, Note_on_c, 7, 71, 0
6, 49200, Note_on_c, 7, 74, 100
6, 49200, Lyric_t, "the "
6, 49680, Note_on_c, 7, 74, 0
6, 49680, Note_on_c, 7, 74, 100
6, 49680, Lyric_t, "shelf "
6, 49920, Note_on_c, 7, 74, 0
6, 49920, Note_on_c, 7, 73, 100
6, 50880, Note_on_c, 7, 73, 0
6, 76080, Note_on_c, 7, 69, 100
6, 76080, Lyric_t, "A"
6, 76320, Note_on_c, 7, 69, 0
6, 76320, Note_on_c, 7, 69, 100
6, 76320, Lyric_t, "no"
6, 76560, Note_on_c, 7, 69, 0
6, 76560, Note_on_c, 7, 69, 100
6, 76560, Lyric_t, "ther "
6, 77040, Note_on_c, 7, 69, 0
6, 77040, Note_on_c, 7, 69, 100
6, 77040, Lyric_t, "night "
6, 79200, Note_on_c, 7, 69, 0
6, 79200, Note_on_c, 7, 69, 100
6, 79200, Lyric_t, "and "
6, 79440, Note_on_c, 7, 69, 0
6, 79440, Note_on_c, 7, 69, 100
6, 79440, Lyric_t, "I "
6, 79680, Note_on_c, 7, 69, 0
6, 79680, Note_on_c, 7, 69, 100
6, 79680, Lyric_t, "thought "
6, 80160, Note_on_c, 7, 69, 0
6, 80160, Note_on_c, 7, 69, 100
6, 80160, Lyric_t, "Well "
6, 80400, Note_on_c, 7, 69, 0
6, 80400, Note_on_c, 7, 71, 100
6, 80400, Lyric_t, "well "
6, 80880, Note_on_c, 7, 71, 0
6, 80880, Note_on_c, 7, 71, 100
6, 80880, Lyric_t, "Go "
6, 82560, Note_on_c, 7, 71, 0
6, 83760, Note_on_c, 7, 71, 100
6, 83760, Lyric_t, "to "
6, 84000, Note_on_c, 7, 71, 0
6, 84000, Note_on_c, 7, 71, 100
6, 84000, Lyric_t, "a"
6, 84240, Note_on_c, 7, 71, 0
6, 84240, Note_on_c, 7, 69, 100
6, 84240, Lyric_t, "no"
6, 84480, Note_on_c, 7, 69, 0
6, 84480, Note_on_c, 7, 71, 100
6, 84480, Lyric_t, "ther "
6, 84720, Note_on_c, 7, 71, 0
6, 84720, Note_on_c, 7, 69, 100
6, 84720, Lyric_t, "par"
6, 85200, Note_on_c, 7, 69, 0
6, 85200, Note_on_c, 7, 71, 100
6, 85200, Lyric_t, "ty "
6, 85680, Note_on_c, 7, 71, 0
6, 85680, Note_on_c, 7, 69, 100
6, 85680, Lyric_t, "and "
6, 86400, Note_on_c, 7, 69, 0
6, 87120, Note_on_c, 7, 69, 100
6, 87120, Lyric_t, "hang "
6, 87360, Note_on_c, 7, 69, 0
6, 87360, Note_on_c, 7, 69, 100
6, 87360, Lyric_t, "my"
6, 87600, Note_on_c, 7, 69, 0
6, 87600, Note_on_c, 7, 70, 100
6, 87600, Lyric_t, "self "
6, 88080, Note_on_c, 7, 70, 0
6, 88080, Note_on_c, 7, 71, 100
6, 88080, Lyric_t, "gen"
6, 89760, Note_on_c, 7, 71, 0
6, 90240, Note_on_c, 7, 71, 100
6, 90240, Lyric_t, "tly "
6, 90720, Note_on_c, 7, 71, 0
6, 90720, Note_on_c, 7, 71, 100
6, 90720, Lyric_t, "on "
6, 90960, Note_on_c, 7, 71, 0
6, 90960, Note_on_c, 7, 71, 100
6, 90960, Lyric_t, "the "
6, 91440, Note_on_c, 7, 71, 0
6, 91440, Note_on_c, 7, 74, 100
6, 91440, Lyric_t, "shelf "
6, 91920, Note_on_c, 7, 74, 0
6, 91920, Note_on_c, 7, 74, 100
6, 92160, Note_on_c, 7, 74, 0
6, 110640, Note_on_c, 7, 69, 100
6, 110640, Lyric_t, "A"
6, 110880, Note_on_c, 7, 69, 0
6, 110880, Note_on_c, 7, 69, 100
6, 110880, Lyric_t, "no"
6, 111120, Note_on_c, 7, 69, 0
6, 111120, Note_on_c, 7, 69, 100
6, 111120, Lyric_t, "ther "
6, 111600, Note_on_c, 7, 69, 0
6, 111600, Note_on_c, 7, 69, 100
6, 111600, Lyric_t, "night "
6, 113760, Note_on_c, 7, 69, 0
6, 113760, Note_on_c, 7, 69, 100
6, 113760, Lyric_t, "and "
6, 114000, Note_on_c, 7, 69, 0
6, 114000, Note_on_c, 7, 69, 100
6, 114000, Lyric_t, "I "
6, 114240, Note_on_c, 7, 69, 0
6, 114240, Note_on_c, 7, 69, 100
6, 114240, Lyric_t, "thought "
6, 114720, Note_on_c, 7, 69, 0
6, 114720, Note_on_c, 7, 69, 100
6, 114720, Lyric_t, "Well "
6, 114960, Note_on_c, 7, 69, 0
6, 114960, Note_on_c, 7, 71, 100
6, 115440, Note_on_c, 7, 71, 0
6, 115440, Note_on_c, 7, 71, 100
6, 115440, Lyric_t, "well "
6, 117120, Note_on_c, 7, 71, 0
6, 118320, Note_on_c, 7, 71, 100
6, 118320, Lyric_t, "Go "
6, 118560, Note_on_c, 7, 71, 0
6, 118560, Note_on_c, 7, 71, 100
6, 118560, Lyric_t, "to "
6, 118800, Note_on_c, 7, 71, 0
6, 118800, Note_on_c, 7, 69, 100
6, 118800, Lyric_t, "a"
6, 119040, Note_on_c, 7, 69, 0
6, 119040, Note_on_c, 7, 71, 100
6, 119040, Lyric_t, "no"
6, 119280, Note_on_c, 7, 71, 0
6, 119280, Note_on_c, 7, 69, 100
6, 119280, Lyric_t, "ther "
6, 119760, Note_on_c, 7, 69, 0
6, 119760, Note_on_c, 7, 71, 100
6, 119760, Lyric_t, "par"
6, 120240, Note_on_c, 7, 71, 0
6, 120240, Note_on_c, 7, 69, 100
6, 120240, Lyric_t, "ty "
6, 120960, Note_on_c, 7, 69, 0
6, 121680, Note_on_c, 7, 69, 100
6, 121680, Lyric_t, "and "
6, 121920, Note_on_c, 7, 69, 0
6, 121920, Note_on_c, 7, 69, 100
6, 121920, Lyric_t, "hang "
6, 122160, Note_on_c, 7, 69, 0
6, 122160, Note_on_c, 7, 70, 100
6, 122160, Lyric_t, "my"
6, 122640, Note_on_c, 7, 70, 0
6, 122640, Note_on_c, 7, 71, 100
6, 122640, Lyric_t, "self "
6, 124320, Note_on_c, 7, 71, 0
6, 124800, Note_on_c, 7, 71, 100
6, 124800, Lyric_t, "gen"
6, 125280, Note_on_c, 7, 71, 0
6, 125280, Note_on_c, 7, 71, 100
6, 125280, Lyric_t, "tly "
6, 125520, Note_on_c, 7, 71, 0
6, 125520, Note_on_c, 7, 71, 100
6, 125520, Lyric_t, "on "
6, 126000, Note_on_c, 7, 71, 0
6, 126000, Note_on_c, 7, 74, 100
6, 126000, Lyric_t, "the "
6, 126480, Note_on_c, 7, 74, 0
6, 126480, Note_on_c, 7, 74, 100
6, 126480, Lyric_t, "shelf "
6, 126720, Note_on_c, 7, 74, 0
6, 126720, End_track
7, 0, Start_track
7, 0, MIDI_port, 0
7, 0, Title_t, "Guitar 1 - disto & effects - Graham Coxon"
7, 0, Program_c, 0, 29
7, 0, Control_c, 0, 7, 70
7, 0, Control_c, 0, 10, 64
7, 0, Program_c, 0, 29
7, 0, Note_on_c, 0, 41, 127
7, 0, Control_c, 0, 101, 0
7, 0, Control_c, 0, 100, 0
7, 0, Control_c, 0, 6, 127
7, 0, Control_c, 0, 38, 127
7, 240, Note_on_c, 0, 41, 0
7, 240, Note_on_c, 0, 41, 127
7, 480, Note_on_c, 0, 41, 0
7, 480, Note_on_c, 0, 59, 127
7, 480, Note_on_c, 0, 55, 127
7, 480, Note_on_c, 0, 50, 127
7, 480, Note_on_c, 0, 64, 127
7, 480, Note_on_c, 0, 40, 127
7, 480, Note_on_c, 0, 45, 127
7, 495, Note_on_c, 0, 45, 0
7, 495, Note_on_c, 0, 55, 0
7, 495, Note_on_c, 0, 50, 0
7, 495, Note_on_c, 0, 59, 0
7, 495, Note_on_c, 0, 40, 0
7, 495, Note_on_c, 0, 64, 0
7, 720, Note_on_c, 0, 40, 127
7, 960, Note_on_c, 0, 40, 0
7, 960, Note_on_c, 0, 41, 127
7, 1200, Note_on_c, 0, 41, 0
7, 1200, Note_on_c, 0, 41, 127
7, 1440, Note_on_c, 0, 41, 0
7, 1440, Note_on_c, 0, 45, 127
7, 1440, Note_on_c, 0, 59, 127
7, 1440, Note_on_c, 0, 64, 127
7, 1440, Note_on_c, 0, 50, 127
7, 1440, Note_on_c, 0, 55, 127
7, 1440, Note_on_c, 0, 40, 127
7, 1920, Note_on_c, 0, 40, 0
7, 1920, Note_on_c, 0, 59, 0
7, 1920, Note_on_c, 0, 64, 0
7, 1920, Note_on_c, 0, 45, 0
7, 1920, Note_on_c, 0, 55, 0
7, 1920, Note_on_c, 0, 50, 0
7, 1920, Note_on_c, 0, 41, 127
7, 2160, Note_on_c, 0, 41, 0
7, 2160, Note_on_c, 0, 41, 127
7, 2400, Note_on_c, 0, 41, 0
7, 2400, Note_on_c, 0, 50, 127
7, 2400, Note_on_c, 0, 55, 127
7, 2400, Note_on_c, 0, 40, 127
7, 2400, Note_on_c, 0, 59, 127
7, 2400, Note_on_c, 0, 45, 127
7, 2400, Note_on_c, 0, 64, 127
7, 2880, Note_on_c, 0, 64, 0
7, 2880, Note_on_c, 0, 55, 0
7, 2880, Note_on_c, 0, 40, 0
7, 2880, Note_on_c, 0, 50, 0
7, 2880, Note_on_c, 0, 45, 0
7, 2880, Note_on_c, 0, 59, 0
7, 2880, Note_on_c, 0, 41, 127
7, 3120, Note_on_c, 0, 41, 0
7, 3120, Note_on_c, 0, 41, 127
7, 3360, Note_on_c, 0, 41, 0
7, 3360, Note_on_c, 0, 55, 127
7, 3360, Note_on_c, 0, 59, 127
7, 3360, Note_on_c, 0, 64, 127
7, 3360, Note_on_c, 0, 50, 127
7, 3360, Note_on_c, 0, 45, 127
7, 3360, Note_on_c, 0, 40, 127
7, 3840, Note_on_c, 0, 40, 0
7, 3840, Note_on_c, 0, 59, 0
7, 3840, Note_on_c, 0, 64, 0
7, 3840, Note_on_c, 0, 55, 0
7, 3840, Note_on_c, 0, 45, 0
7, 3840, Note_on_c, 0, 50, 0
7, 3840, Note_on_c, 0, 41, 100
7, 4080, Note_on_c, 0, 41, 0
7, 4080, Note_on_c, 0, 41, 100
7, 4320, Note_on_c, 0, 41, 0
7, 4320, Note_on_c, 0, 59, 100
7, 4320, Pitch_bend_c, 0, 4096
7, 4320, Note_on_c, 0, 64, 100
7, 4320, Note_on_c, 0, 45, 100
7, 4320, Note_on_c, 0, 40, 100
7, 4320, Note_on_c, 0, 55, 100
7, 4320, Note_on_c, 0, 50, 100
7, 4324, Pitch_bend_c, 0, 4480
7, 4329, Pitch_bend_c, 0, 4864
7, 4334, Pitch_bend_c, 0, 5248
7, 4339, Pitch_bend_c, 0, 5632
7, 4344, Pitch_bend_c, 0, 6144
7, 4349, Pitch_bend_c, 0, 6528
7, 4354, Pitch_bend_c, 0, 6912
7, 4359, Pitch_bend_c, 0, 7296
7, 4364, Pitch_bend_c, 0, 7680
7, 4368, Pitch_bend_c, 0, 8192
7, 4373, Pitch_bend_c, 0, 8576
7, 4378, Pitch_bend_c, 0, 8960
7, 4383, Pitch_bend_c, 0, 9344
7, 4388, Pitch_bend_c, 0, 9728
7, 4393, Pitch_bend_c, 0, 10240
7, 4398, Pitch_bend_c, 0, 10624
7, 4403, Pitch_bend_c, 0, 11008
7, 4408, Pitch_bend_c, 0, 11392
7, 4413, Pitch_bend_c, 0, 11776
7, 4417, Pitch_bend_c, 0, 12288
7, 4555, Pitch_bend_c, 0, 8192
7, 4560, Note_on_c, 0, 50, 0
7, 4560, Note_on_c, 0, 64, 0
7, 4560, Note_on_c, 0, 45, 0
7, 4560, Note_on_c, 0, 59, 0
7, 4560, Note_on_c, 0, 55, 0
7, 4560, Note_on_c, 0, 40, 0
7, 4560, Note_on_c, 0, 59, 100
7, 4560, Note_on_c, 0, 45, 100
7, 4560, Note_on_c, 0, 55, 100
7, 4560, Note_on_c, 0, 40, 100
7, 4560, Note_on_c, 0, 64, 100
7, 4560, Pitch_bend_c, 0, 4096
7, 4560, Note_on_c, 0, 50, 100
7, 4564, Pitch_bend_c, 0, 4480
7, 4569, Pitch_bend_c, 0, 4864
7, 4574, Pitch_bend_c, 0, 5248
7, 4579, Pitch_bend_c, 0, 5632
7, 4584, Pitch_bend_c, 0, 6144
7, 4589, Pitch_bend_c, 0, 6528
7, 4594, Pitch_bend_c, 0, 6912
7, 4599, Pitch_bend_c, 0, 7296
7, 4604, Pitch_bend_c, 0, 7680
7, 4608, Pitch_bend_c, 0, 8192
7, 4613, Pitch_bend_c, 0, 8576
7, 4618, Pitch_bend_c, 0, 8960
7, 4623, Pitch_bend_c, 0, 9344
7, 4628, Pitch_bend_c, 0, 9728
7, 4633, Pitch_bend_c, 0, 10240
7, 4638, Pitch_bend_c, 0, 10624
7, 4643, Pitch_bend_c, 0, 11008
7, 4648, Pitch_bend_c, 0, 11392
7, 4653, Pitch_bend_c, 0, 11776
7, 4657, Pitch_bend_c, 0, 12288
7, 4795, Pitch_bend_c, 0, 8192
7, 4800, Note_on_c, 0, 50, 0
7, 4800, Note_on_c, 0, 45, 0
7, 4800, Note_on_c, 0, 55, 0
7, 4800, Note_on_c, 0, 59, 0
7, 4800, Note_on_c, 0, 64, 0
7, 4800, Note_on_c, 0, 40, 0
7, 4800, Note_on_c, 0, 41, 100
7, 5040, Note_on_c, 0, 41, 0
7, 5040, Note_on_c, 0, 41, 100
7, 5256, Pitch_bend_c, 0, 8192
7, 5275, Pitch_bend_c, 0, 16256
7, 5280, Note_on_c, 0, 41, 0
7, 5280, Note_on_c, 0, 55, 100
7, 5280, Pitch_bend_c, 0, 16383
7, 5280, Note_on_c, 0, 45, 100
7, 5280, Note_on_c, 0, 64, 100
7, 5280, Note_on_c, 0, 50, 100
7, 5280, Note_on_c, 0, 59, 100
7, 5280, Note_on_c, 0, 40, 100
7, 5289, Pitch_bend_c, 0, 16256
7, 5299, Pitch_bend_c, 0, 16128
7, 5308, Pitch_bend_c, 0, 16000
7, 5318, Pitch_bend_c, 0, 15872
7, 5328, Pitch_bend_c, 0, 15744
7, 5337, Pitch_bend_c, 0, 15872
7, 5347, Pitch_bend_c, 0, 16000
7, 5352, Pitch_bend_c, 0, 16128
7, 5361, Pitch_bend_c, 0, 16256
7, 5366, Pitch_bend_c, 0, 16383
7, 5515, Pitch_bend_c, 0, 8192
7, 5520, Note_on_c, 0, 40, 0
7, 5520, Note_on_c, 0, 45, 0
7, 5520, Note_on_c, 0, 64, 0
7, 5520, Note_on_c, 0, 55, 0
7, 5520, Note_on_c, 0, 59, 0
7, 5520, Note_on_c, 0, 50, 0
7, 5520, Note_on_c, 0, 40, 100
7, 5520, Note_on_c, 0, 50, 100
7, 5520, Note_on_c, 0, 55, 100
7, 5520, Note_on_c, 0, 45, 100
7, 5520, Note_on_c, 0, 59, 100
7, 5520, Note_on_c, 0, 64, 100
7, 5520, Pitch_bend_c, 0, 16383
7, 5529, Pitch_bend_c, 0, 16256
7, 5534, Pitch_bend_c, 0, 16128
7, 5539, Pitch_bend_c, 0, 16000
7, 5548, Pitch_bend_c, 0, 15872
7, 5553, Pitch_bend_c, 0, 15744
7, 5558, Pitch_bend_c, 0, 15616
7, 5568, Pitch_bend_c, 0, 15744
7, 5572, Pitch_bend_c, 0, 15872
7, 5577, Pitch_bend_c, 0, 16000
7, 5587, Pitch_bend_c, 0, 16128
7, 5592, Pitch_bend_c, 0, 16256
7, 5596, Pitch_bend_c, 0, 16383
7, 5755, Pitch_bend_c, 0, 8192
7, 5760, Note_on_c, 0, 64, 0
7, 5760, Note_on_c, 0, 50, 0
7, 5760, Note_on_c, 0, 55, 0
7, 5760, Note_on_c, 0, 40, 0
7, 5760, Note_on_c, 0, 59, 0
7, 5760, Note_on_c, 0, 45, 0
7, 5760, Note_on_c, 0, 41, 100
7, 6000, Note_on_c, 0, 41, 0
7, 6000, Note_on_c, 0, 41, 100
7, 6240, Note_on_c, 0, 41, 0
7, 6240, Note_on_c, 0, 55, 100
7, 6240, Note_on_c, 0, 40, 100
7, 6240, Note_on_c, 0, 45, 100
7, 6240, Note_on_c, 0, 64, 100
7, 6240, Note_on_c, 0, 59, 100
7, 6240, Note_on_c, 0, 50, 100
7, 6480, Note_on_c, 0, 50, 0
7, 6480, Note_on_c, 0, 40, 0
7, 6480, Note_on_c, 0, 45, 0
7, 6480, Note_on_c, 0, 55, 0
7, 6480, Note_on_c, 0, 59, 0
7, 6480, Note_on_c, 0, 64, 0
7, 6480, Note_on_c, 0, 64, 100
7, 6480, Note_on_c, 0, 55, 100
7, 6480, Note_on_c, 0, 45, 100
7, 6480, Note_on_c, 0, 50, 100
7, 6480, Note_on_c, 0, 40, 100
7, 6480, Note_on_c, 0, 59, 100
7, 6720, Note_on_c, 0, 59, 0
7, 6720, Note_on_c, 0, 55, 0
7, 6720, Note_on_c, 0, 45, 0
7, 6720, Note_on_c, 0, 64, 0
7, 6720, Note_on_c, 0, 40, 0
7, 6720, Note_on_c, 0, 50, 0
7, 6720, Note_on_c, 0, 41, 100
7, 6960, Note_on_c, 0, 41, 0
7, 6960, Note_on_c, 0, 41, 100
7, 7200, Note_on_c, 0, 41, 0
7, 7200, Note_on_c, 0, 40, 100
7, 7200, Note_on_c, 0, 50, 100
7, 7200, Note_on_c, 0, 64, 100
7, 7200, Note_on_c, 0, 59, 100
7, 7200, Note_on_c, 0, 45, 100
7, 7200, Note_on_c, 0, 55, 100
7, 7440, Note_on_c, 0, 55, 0
7, 7440, Note_on_c, 0, 50, 0
7, 7440, Note_on_c, 0, 64, 0
7, 7440, Note_on_c, 0, 40, 0
7, 7440, Note_on_c, 0, 45, 0
7, 7440, Note_on_c, 0, 59, 0
7, 7440, Note_on_c, 0, 59, 100
7, 7440, Note_on_c, 0, 45, 100
7, 7440, Note_on_c, 0, 40, 100
7, 7440, Note_on_c, 0, 64, 100
7, 7440, Note_on_c, 0, 50, 100
7, 7440, Note_on_c, 0, 55, 100
7, 7680, Note_on_c, 0, 55, 0
7, 7680, Note_on_c, 0, 45, 0
7, 7680, Note_on_c, 0, 40, 0
7, 7680, Note_on_c, 0, 59, 0
7, 7680, Note_on_c, 0, 50, 0
7, 7680, Note_on_c, 0, 64, 0
7, 7680, Note_on_c, 0, 41, 100
7, 7920, Note_on_c, 0, 41, 0
7, 7920, Note_on_c, 0, 41, 100
7, 8160, Note_on_c, 0, 41, 0
7, 8160, Note_on_c, 0, 55, 100
7, 8160, Note_on_c, 0, 50, 100
7, 8160, Pitch_bend_c, 0, 16383
7, 8160, Note_on_c, 0, 59, 100
7, 8160, Note_on_c, 0, 64, 100
7, 8160, Note_on_c, 0, 45, 100
7, 8160, Note_on_c, 0, 40, 100
7, 8164, Pitch_bend_c, 0, 16128
7, 8169, Pitch_bend_c, 0, 15744
7, 8174, Pitch_bend_c, 0, 15360
7, 8179, Pitch_bend_c, 0, 15104
7, 8184, Pitch_bend_c, 0, 14720
7, 8188, Pitch_bend_c, 0, 14336
7, 8193, Pitch_bend_c, 0, 13952
7, 8198, Pitch_bend_c, 0, 13696
7, 8203, Pitch_bend_c, 0, 13312
7, 8208, Pitch_bend_c, 0, 12928
7, 8212, Pitch_bend_c, 0, 12544
7, 8217, Pitch_bend_c, 0, 12288
7, 8222, Pitch_bend_c, 0, 11904
7, 8227, Pitch_bend_c, 0, 11520
7, 8232, Pitch_bend_c, 0, 11136
7, 8236, Pitch_bend_c, 0, 10880
7, 8241, Pitch_bend_c, 0, 10496
7, 8246, Pitch_bend_c, 0, 10112
7, 8251, Pitch_bend_c, 0, 9728
7, 8256, Pitch_bend_c, 0, 9472
7, 8260, Pitch_bend_c, 0, 9088
7, 8265, Pitch_bend_c, 0, 8704
7, 8270, Pitch_bend_c, 0, 8320
7, 8395, Pitch_bend_c, 0, 8192
7, 8400, Note_on_c, 0, 40, 0
7, 8400, Note_on_c, 0, 50, 0
7, 8400, Note_on_c, 0, 59, 0
7, 8400, Note_on_c, 0, 55, 0
7, 8400, Note_on_c, 0, 45, 0
7, 8400, Note_on_c, 0, 64, 0
7, 8400, Note_on_c, 0, 40, 100
7, 8400, Pitch_bend_c, 0, 16383
7, 8400, Note_on_c, 0, 59, 100
7, 8400, Note_on_c, 0, 55, 100
7, 8400, Note_on_c, 0, 64, 100
7, 8400, Note_on_c, 0, 50, 100
7, 8400, Note_on_c, 0, 45, 100
7, 8404, Pitch_bend_c, 0, 16128
7, 8409, Pitch_bend_c, 0, 15744
7, 8414, Pitch_bend_c, 0, 15360
7, 8419, Pitch_bend_c, 0, 15104
7, 8424, Pitch_bend_c, 0, 14720
7, 8428, Pitch_bend_c, 0, 14336
7, 8433, Pitch_bend_c, 0, 13952
7, 8438, Pitch_bend_c, 0, 13696
7, 8443, Pitch_bend_c, 0, 13312
7, 8448, Pitch_bend_c, 0, 12928
7, 8452, Pitch_bend_c, 0, 12544
7, 8457, Pitch_bend_c, 0, 12288
7, 8462, Pitch_bend_c, 0, 11904
7, 8467, Pitch_bend_c, 0, 11520
7, 8472, Pitch_bend_c, 0, 11136
7, 8476, Pitch_bend_c, 0, 10880
7, 8481, Pitch_bend_c, 0, 10496
7, 8486, Pitch_bend_c, 0, 10112
7, 8491, Pitch_bend_c, 0, 9728
7, 8496, Pitch_bend_c, 0, 9472
7, 8500, Pitch_bend_c, 0, 9088
7, 8505, Pitch_bend_c, 0, 8704
7, 8510, Pitch_bend_c, 0, 8320
7, 8635, Pitch_bend_c, 0, 8192
7, 8640, Note_on_c, 0, 45, 0
7, 8640, Note_on_c, 0, 59, 0
7, 8640, Note_on_c, 0, 55, 0
7, 8640, Note_on_c, 0, 40, 0
7, 8640, Note_on_c, 0, 50, 0
7, 8640, Note_on_c, 0, 64, 0
7, 8640, Note_on_c, 0, 41, 100
7, 8880, Note_on_c, 0, 41, 0
7, 8880, Note_on_c, 0, 41, 100
7, 9096, Pitch_bend_c, 0, 8192
7, 9120, Note_on_c, 0, 41, 0
7, 9120, Note_on_c, 0, 59, 100
7, 9120, Note_on_c, 0, 55, 100
7, 9120, Note_on_c, 0, 64, 100
7, 9120, Note_on_c, 0, 50, 100
7, 9120, Pitch_bend_c, 0, 0
7, 9120, Note_on_c, 0, 45, 100
7, 9120, Note_on_c, 0, 40, 100
7, 9124, Pitch_bend_c, 0, 1152
7, 9129, Pitch_bend_c, 0, 2304
7, 9134, Pitch_bend_c, 0, 3456
7, 9139, Pitch_bend_c, 0, 4608
7, 9144, Pitch_bend_c, 0, 5760
7, 9148, Pitch_bend_c, 0, 6912
7, 9153, Pitch_bend_c, 0, 8192
7, 9158, Pitch_bend_c, 0, 9344
7, 9163, Pitch_bend_c, 0, 10496
7, 9168, Pitch_bend_c, 0, 11648
7, 9172, Pitch_bend_c, 0, 12800
7, 9177, Pitch_bend_c, 0, 13952
7, 9182, Pitch_bend_c, 0, 15104
7, 9187, Pitch_bend_c, 0, 16383
7, 9355, Pitch_bend_c, 0, 8192
7, 9360, Note_on_c, 0, 40, 0
7, 9360, Note_on_c, 0, 55, 0
7, 9360, Note_on_c, 0, 64, 0
7, 9360, Note_on_c, 0, 59, 0
7, 9360, Note_on_c, 0, 45, 0
7, 9360, Note_on_c, 0, 50, 0
7, 9360, Pitch_bend_c, 0, 0
7, 9360, Note_on_c, 0, 50, 100
7, 9360, Note_on_c, 0, 40, 100
7, 9360, Note_on_c, 0, 45, 100
7, 9360, Note_on_c, 0, 55, 100
7, 9360, Note_on_c, 0, 59, 100
7, 9360, Note_on_c, 0, 64, 100
7, 9364, Pitch_bend_c, 0, 1152
7, 9369, Pitch_bend_c, 0, 2432
7, 9374, Pitch_bend_c, 0, 3712
7, 9379, Pitch_bend_c, 0, 4992
7, 9384, Pitch_bend_c, 0, 6272
7, 9388, Pitch_bend_c, 0, 7552
7, 9393, Pitch_bend_c, 0, 8704
7, 9398, Pitch_bend_c, 0, 9984
7, 9403, Pitch_bend_c, 0, 11264
7, 9408, Pitch_bend_c, 0, 12544
7, 9412, Pitch_bend_c, 0, 13824
7, 9417, Pitch_bend_c, 0, 15104
7, 9422, Pitch_bend_c, 0, 16383
7, 9595, Pitch_bend_c, 0, 8192
7, 9600, Note_on_c, 0, 64, 0
7, 9600, Note_on_c, 0, 40, 0
7, 9600, Note_on_c, 0, 45, 0
7, 9600, Note_on_c, 0, 50, 0
7, 9600, Note_on_c, 0, 59, 0
7, 9600, Note_on_c, 0, 55, 0
7, 9600, Note_on_c, 0, 41, 100
7, 9840, Note_on_c, 0, 41, 0
7, 9840, Note_on_c, 0, 41, 100
7, 10080, Note_on_c, 0, 41, 0
7, 10080, Note_on_c, 0, 59, 100
7, 10080, Note_on_c, 0, 50, 100
7, 10080, Note_on_c, 0, 64, 100
7, 10080, Note_on_c, 0, 40, 100
7, 10080, Pitch_bend_c, 0, 8192
7, 10080, Note_on_c, 0, 45, 100
7, 10080, Note_on_c, 0, 55, 100
7, 10104, Pitch_bend_c, 0, 0
7, 10108, Pitch_bend_c, 0, 1152
7, 10113, Pitch_bend_c, 0, 2304
7, 10118, Pitch_bend_c, 0, 3456
7, 10123, Pitch_bend_c, 0, 4608
7, 10128, Pitch_bend_c, 0, 5760
7, 10132, Pitch_bend_c, 0, 6912
7, 10137, Pitch_bend_c, 0, 8192
7, 10142, Pitch_bend_c, 0, 9344
7, 10147, Pitch_bend_c, 0, 10496
7, 10152, Pitch_bend_c, 0, 11648
7, 10156, Pitch_bend_c, 0, 12800
7, 10161, Pitch_bend_c, 0, 13952
7, 10166, Pitch_bend_c, 0, 15104
7, 10171, Pitch_bend_c, 0, 16383
7, 10320, Note_on_c, 0, 55, 0
7, 10320, Note_on_c, 0, 50, 0
7, 10320, Note_on_c, 0, 64, 0
7, 10320, Note_on_c, 0, 59, 0
7, 10320, Note_on_c, 0, 45, 0
7, 10320, Note_on_c, 0, 40, 0
7, 10320, Note_on_c, 0, 59, 100
7, 10320, Note_on_c, 0, 64, 100
7, 10320, Note_on_c, 0, 45, 100
7, 10320, Note_on_c, 0, 55, 100
7, 10320, Note_on_c, 0, 40, 100
7, 10320, Note_on_c, 0, 50, 100
7, 10339, Pitch_bend_c, 0, 8192
7, 10344, Pitch_bend_c, 0, 0
7, 10348, Pitch_bend_c, 0, 1152
7, 10353, Pitch_bend_c, 0, 2432
7, 10358, Pitch_bend_c, 0, 3712
7, 10363, Pitch_bend_c, 0, 4992
7, 10368, Pitch_bend_c, 0, 6272
7, 10372, Pitch_bend_c, 0, 7552
7, 10377, Pitch_bend_c, 0, 8704
7, 10382, Pitch_bend_c, 0, 9984
7, 10387, Pitch_bend_c, 0, 11264
7, 10392, Pitch_bend_c, 0, 12544
7, 10396, Pitch_bend_c, 0, 13824
7, 10401, Pitch_bend_c, 0, 15104
7, 10406, Pitch_bend_c, 0, 16383
7, 10560, Note_on_c, 0, 50, 0
7, 10560, Note_on_c, 0, 64, 0
7, 10560, Note_on_c, 0, 45, 0
7, 10560, Note_on_c, 0, 59, 0
7, 10560, Note_on_c, 0, 40, 0
7, 10560, Note_on_c, 0, 55, 0
7, 10560, Note_on_c, 0, 41, 100
7, 10579, Pitch_bend_c, 0, 8192
7, 10800, Note_on_c, 0, 41, 0
7, 10800, Note_on_c, 0, 41, 100
7, 11035, Pitch_bend_c, 0, 8576
7, 11040, Note_on_c, 0, 41, 0
7, 11040, Pitch_bend_c, 0, 8192
7, 11040, Note_on_c, 0, 50, 100
7, 11040, Note_on_c, 0, 64, 100
7, 11040, Note_on_c, 0, 55, 100
7, 11040, Note_on_c, 0, 45, 100
7, 11040, Note_on_c, 0, 40, 100
7, 11040, Note_on_c, 0, 59, 100
7, 11049, Pitch_bend_c, 0, 8320
7, 11059, Pitch_bend_c, 0, 8448
7, 11064, Pitch_bend_c, 0, 8576
7, 11073, Pitch_bend_c, 0, 8704
7, 11083, Pitch_bend_c, 0, 8832
7, 11088, Pitch_bend_c, 0, 8960
7, 11097, Pitch_bend_c, 0, 9088
7, 11107, Pitch_bend_c, 0, 9216
7, 11112, Pitch_bend_c, 0, 9344
7, 11121, Pitch_bend_c, 0, 9472
7, 11131, Pitch_bend_c, 0, 9600
7, 11136, Pitch_bend_c, 0, 9728
7, 11145, Pitch_bend_c, 0, 9856
7, 11155, Pitch_bend_c, 0, 9984
7, 11160, Pitch_bend_c, 0, 10112
7, 11169, Pitch_bend_c, 0, 10240
7, 11174, Pitch_bend_c, 0, 10368
7, 11280, Note_on_c, 0, 59, 0
7, 11280, Note_on_c, 0, 64, 0
7, 11280, Note_on_c, 0, 55, 0
7, 11280, Note_on_c, 0, 50, 0
7, 11280, Note_on_c, 0, 40, 0
7, 11280, Note_on_c, 0, 45, 0
7, 11280, Pitch_bend_c, 0, 8192
7, 11280, Note_on_c, 0, 45, 100
7, 11280, Note_on_c, 0, 59, 100
7, 11280, Note_on_c, 0, 40, 100
7, 11280, Note_on_c, 0, 64, 100
7, 11280, Note_on_c, 0, 55, 100
7, 11280, Note_on_c, 0, 50, 100
7, 11289, Pitch_bend_c, 0, 8320
7, 11294, Pitch_bend_c, 0, 8448
7, 11299, Pitch_bend_c, 0, 8576
7, 11308, Pitch_bend_c, 0, 8704
7, 11313, Pitch_bend_c, 0, 8832
7, 11318, Pitch_bend_c, 0, 8960
7, 11328, Pitch_bend_c, 0, 9088
7, 11332, Pitch_bend_c, 0, 9216
7, 11337, Pitch_bend_c, 0, 9344
7, 11347, Pitch_bend_c, 0, 9472
7, 11352, Pitch_bend_c, 0, 9600
7, 11356, Pitch_bend_c, 0, 9728
7, 11366, Pitch_bend_c, 0, 9856
7, 11371, Pitch_bend_c, 0, 9984
7, 11376, Pitch_bend_c, 0, 10112
7, 11385, Pitch_bend_c, 0, 10240
7, 11390, Pitch_bend_c, 0, 10368
7, 11395, Pitch_bend_c, 0, 10496
7, 11400, Pitch_bend_c, 0, 10624
7, 11520, Note_on_c, 0, 50, 0
7, 11520, Note_on_c, 0, 59, 0
7, 11520, Note_on_c, 0, 40, 0
7, 11520, Note_on_c, 0, 45, 0
7, 11520, Note_on_c, 0, 55, 0
7, 11520, Note_on_c, 0, 64, 0
7, 11520, Pitch_bend_c, 0, 8192
7, 11520, Note_on_c, 0, 41, 100
7, 11760, Note_on_c, 0, 41, 0
7, 11760, Note_on_c, 0, 41, 100
7, 12000, Note_on_c, 0, 41, 0
7, 12000, Note_on_c, 0, 50, 100
7, 12000, Note_on_c, 0, 55, 100
7, 12000, Note_on_c, 0, 40, 100
7, 12000, Note_on_c, 0, 45, 100
7, 12000, Note_on_c, 0, 59, 100
7, 12000, Note_on_c, 0, 64, 100
7, 12000, Pitch_bend_c, 0, 16383
7, 12004, Pitch_bend_c, 0, 16128
7, 12009, Pitch_bend_c, 0, 15744
7, 12014, Pitch_bend_c, 0, 15360
7, 12019, Pitch_bend_c, 0, 15104
7, 12024, Pitch_bend_c, 0, 14720
7, 12028, Pitch_bend_c, 0, 14336
7, 12033, Pitch_bend_c, 0, 13952
7, 12038, Pitch_bend_c, 0, 13696
7, 12043, Pitch_bend_c, 0, 13312
7, 12048, Pitch_bend_c, 0, 12928
7, 12052, Pitch_bend_c, 0, 12544
7, 12057, Pitch_bend_c, 0, 12288
7, 12062, Pitch_bend_c, 0, 11904
7, 12067, Pitch_bend_c, 0, 11520
7, 12072, Pitch_bend_c, 0, 11136
7, 12076, Pitch_bend_c, 0, 10880
7, 12081, Pitch_bend_c, 0, 10496
7, 12086, Pitch_bend_c, 0, 10112
7, 12091, Pitch_bend_c, 0, 9728
7, 12096, Pitch_bend_c, 0, 9472
7, 12100, Pitch_bend_c, 0, 9088
7, 12105, Pitch_bend_c, 0, 8704
7, 12110, Pitch_bend_c, 0, 8320
7, 12235, Pitch_bend_c, 0, 8192
7, 12240, Note_on_c, 0, 64, 0
7, 12240, Note_on_c, 0, 55, 0
7, 12240, Note_on_c, 0, 40, 0
7, 12240, Note_on_c, 0, 50, 0
7, 12240, Note_on_c, 0, 59, 0
7, 12240, Note_on_c, 0, 45, 0
7, 12240, Note_on_c, 0, 50, 100
7, 12240, Note_on_c, 0, 45, 100
7, 12240, Note_on_c, 0, 59, 100
7, 12240, Note_on_c, 0, 40, 100
7, 12240, Note_on_c, 0, 55, 100
7, 12240, Note_on_c, 0, 64, 100
7, 12240, Pitch_bend_c, 0, 16383
7, 12244, Pitch_bend_c, 0, 16128
7, 12249, Pitch_bend_c, 0, 15744
7, 12254, Pitch_bend_c, 0, 15360
7, 12259, Pitch_bend_c, 0, 15104
7, 12264, Pitch_bend_c, 0, 14720
7, 12268, Pitch_bend_c, 0, 14336
7, 12273, Pitch_bend_c, 0, 13952
7, 12278, Pitch_bend_c, 0, 13696
7, 12283, Pitch_bend_c, 0, 13312
7, 12288, Pitch_bend_c, 0, 12928
7, 12292, Pitch_bend_c, 0, 12544
7, 12297, Pitch_bend_c, 0, 12288
7, 12302, Pitch_bend_c, 0, 11904
7, 12307, Pitch_bend_c, 0, 11520
7, 12312, Pitch_bend_c, 0, 11136
7, 12316, Pitch_bend_c, 0, 10880
7, 12321, Pitch_bend_c, 0, 10496
7, 12326, Pitch_bend_c, 0, 10112
7, 12331, Pitch_bend_c, 0, 9728
7, 12336, Pitch_bend_c, 0, 9472
7, 12340, Pitch_bend_c, 0, 9088
7, 12345, Pitch_bend_c, 0, 8704
7, 12350, Pitch_bend_c, 0, 8320
7, 12475, Pitch_bend_c, 0, 8192
7, 12480, Note_on_c, 0, 64, 0
7, 12480, Note_on_c, 0, 45, 0
7, 12480, Note_on_c, 0, 59, 0
7, 12480, Note_on_c, 0, 50, 0
7, 12480, Note_on_c, 0, 55, 0
7, 12480, Note_on_c, 0, 40, 0
7, 12480, Note_on_c, 0, 41, 100
7, 12720, Note_on_c, 0, 41, 0
7, 12720, Note_on_c, 0, 41, 100
7, 12936, Pitch_bend_c, 0, 8192
7, 12960, Note_on_c, 0, 41, 0
7, 12960, Note_on_c, 0, 59, 100
7, 12960, Note_on_c, 0, 55, 100
7, 12960, Note_on_c, 0, 45, 100
7, 12960, Pitch_bend_c, 0, 0
7, 12960, Note_on_c, 0, 50, 100
7, 12960, Note_on_c, 0, 40, 100
7, 12960, Note_on_c, 0, 64, 100
7, 12964, Pitch_bend_c, 0, 1152
7, 12969, Pitch_bend_c, 0, 2304
7, 12974, Pitch_bend_c, 0, 3456
7, 12979, Pitch_bend_c, 0, 4608
7, 12984, Pitch_bend_c, 0, 5760
7, 12988, Pitch_bend_c, 0, 6912
7, 12993, Pitch_bend_c, 0, 8192
7, 12998, Pitch_bend_c, 0, 9344
7, 13003, Pitch_bend_c, 0, 10496
7, 13008, Pitch_bend_c, 0, 11648
7, 13012, Pitch_bend_c, 0, 12800
7, 13017, Pitch_bend_c, 0, 13952
7, 13022, Pitch_bend_c, 0, 15104
7, 13027, Pitch_bend_c, 0, 16383
7, 13195, Pitch_bend_c, 0, 8192
7, 13200, Note_on_c, 0, 64, 0
7, 13200, Note_on_c, 0, 55, 0
7, 13200, Note_on_c, 0, 45, 0
7, 13200, Note_on_c, 0, 59, 0
7, 13200, Note_on_c, 0, 40, 0
7, 13200, Note_on_c, 0, 50, 0
7, 13200, Note_on_c, 0, 40, 100
7, 13200, Note_on_c, 0, 50, 100
7, 13200, Note_on_c, 0, 64, 100
7, 13200, Pitch_bend_c, 0, 0
7, 13200, Note_on_c, 0, 45, 100
7, 13200, Note_on_c, 0, 59, 100
7, 13200, Note_on_c, 0, 55, 100
7, 13204, Pitch_bend_c, 0, 1152
7, 13209, Pitch_bend_c, 0, 2432
7, 13214, Pitch_bend_c, 0, 3712
7, 13219, Pitch_bend_c, 0, 4992
7, 13224, Pitch_bend_c, 0, 6272
7, 13228, Pitch_bend_c, 0, 7552
7, 13233, Pitch_bend_c, 0, 8704
7, 13238, Pitch_bend_c, 0, 9984
7, 13243, Pitch_bend_c, 0, 11264
7, 13248, Pitch_bend_c, 0, 12544
7, 13252, Pitch_bend_c, 0, 13824
7, 13257, Pitch_bend_c, 0, 15104
7, 13262, Pitch_bend_c, 0, 16383
7, 13435, Pitch_bend_c, 0, 8192
7, 13440, Note_on_c, 0, 55, 0
7, 13440, Note_on_c, 0, 50, 0
7, 13440, Note_on_c, 0, 64, 0
7, 13440, Note_on_c, 0, 40, 0
7, 13440, Note_on_c, 0, 59, 0
7, 13440, Note_on_c, 0, 45, 0
7, 13440, Note_on_c, 0, 41, 100
7, 13680, Note_on_c, 0, 41, 0
7, 13680, Note_on_c, 0, 41, 100
7, 13920, Note_on_c, 0, 41, 0
7, 13920, Note_on_c, 0, 59, 100
7, 13920, Pitch_bend_c, 0, 8192
7, 13920, Note_on_c, 0, 45, 100
7, 13920, Note_on_c, 0, 50, 100
7, 13920, Note_on_c, 0, 64, 100
7, 13920, Note_on_c, 0, 40, 100
7, 13920, Note_on_c, 0, 55, 100
7, 13944, Pitch_bend_c, 0, 0
7, 13948, Pitch_bend_c, 0, 1152
7, 13953, Pitch_bend_c, 0, 2304
7, 13958, Pitch_bend_c, 0, 3456
7, 13963, Pitch_bend_c, 0, 4608
7, 13968, Pitch_bend_c, 0, 5760
7, 13972, Pitch_bend_c, 0, 6912
7, 13977, Pitch_bend_c, 0, 8192
7, 13982, Pitch_bend_c, 0, 9344
7, 13987, Pitch_bend_c, 0, 10496
7, 13992, Pitch_bend_c, 0, 11648
7, 13996, Pitch_bend_c, 0, 12800
7, 14001, Pitch_bend_c, 0, 13952
7, 14006, Pitch_bend_c, 0, 15104
7, 14011, Pitch_bend_c, 0, 16383
7, 14160, Note_on_c, 0, 55, 0
7, 14160, Note_on_c, 0, 45, 0
7, 14160, Note_on_c, 0, 50, 0
7, 14160, Note_on_c, 0, 59, 0
7, 14160, Note_on_c, 0, 40, 0
7, 14160, Note_on_c, 0, 64, 0
7, 14160, Note_on_c, 0, 64, 100
7, 14160, Note_on_c, 0, 45, 100
7, 14160, Note_on_c, 0, 55, 100
7, 14160, Note_on_c, 0, 40, 100
7, 14160, Note_on_c, 0, 59, 100
7, 14160, Note_on_c, 0, 50, 100
7, 14179, Pitch_bend_c, 0, 8192
7, 14184, Pitch_bend_c, 0, 0
7, 14188, Pitch_bend_c, 0, 1152
7, 14193, Pitch_bend_c, 0, 2432
7, 14198, Pitch_bend_c, 0, 3712
7, 14203, Pitch_bend_c, 0, 4992
7, 14208, Pitch_bend_c, 0, 6272
7, 14212, Pitch_bend_c, 0, 7552
7, 14217, Pitch_bend_c, 0, 8704
7, 14222, Pitch_bend_c, 0, 9984
7, 14227, Pitch_bend_c, 0, 11264
7, 14232, Pitch_bend_c, 0, 12544
7, 14236, Pitch_bend_c, 0, 13824
7, 14241, Pitch_bend_c, 0, 15104
7, 14246, Pitch_bend_c, 0, 16383
7, 14400, Note_on_c, 0, 50, 0
7, 14400, Note_on_c, 0, 45, 0
7, 14400, Note_on_c, 0, 55, 0
7, 14400, Note_on_c, 0, 64, 0
7, 14400, Note_on_c, 0, 59, 0
7, 14400, Note_on_c, 0, 40, 0
7, 14400, Note_on_c, 0, 41, 100
7, 14419, Pitch_bend_c, 0, 8192
7, 14640, Note_on_c, 0, 41, 0
7, 14640, Note_on_c, 0, 41, 100
7, 14880, Note_on_c, 0, 41, 0
7, 14880, Note_on_c, 0, 55, 100
7, 14880, Note_on_c, 0, 64, 100
7, 14880, Note_on_c, 0, 50, 100
7, 14880, Note_on_c, 0, 40, 100
7, 14880, Note_on_c, 0, 59, 100
7, 14880, Pitch_bend_c, 0, 8192
7, 14880, Note_on_c, 0, 45, 100
7, 14899, Pitch_bend_c, 0, 16256
7, 14904, Pitch_bend_c, 0, 16383
7, 14913, Pitch_bend_c, 0, 16256
7, 14923, Pitch_bend_c, 0, 16128
7, 14932, Pitch_bend_c, 0, 16000
7, 14942, Pitch_bend_c, 0, 15872
7, 14952, Pitch_bend_c, 0, 15744
7, 14961, Pitch_bend_c, 0, 15872
7, 14971, Pitch_bend_c, 0, 16000
7, 14976, Pitch_bend_c, 0, 16128
7, 14985, Pitch_bend_c, 0, 16256
7, 14990, Pitch_bend_c, 0, 16383
7, 15120, Note_on_c, 0, 45, 0
7, 15120, Note_on_c, 0, 64, 0
7, 15120, Note_on_c, 0, 50, 0
7, 15120, Note_on_c, 0, 55, 0
7, 15120, Note_on_c, 0, 59, 0
7, 15120, Note_on_c, 0, 40, 0
7, 15120, Note_on_c, 0, 55, 100
7, 15120, Note_on_c, 0, 59, 100
7, 15120, Note_on_c, 0, 45, 100
7, 15120, Note_on_c, 0, 50, 100
7, 15120, Note_on_c, 0, 40, 100
7, 15120, Note_on_c, 0, 64, 100
7, 15139, Pitch_bend_c, 0, 8192
7, 15144, Pitch_bend_c, 0, 16383
7, 15153, Pitch_bend_c, 0, 16256
7, 15158, Pitch_bend_c, 0, 16128
7, 15163, Pitch_bend_c, 0, 16000
7, 15172, Pitch_bend_c, 0, 15872
7, 15177, Pitch_bend_c, 0, 15744
7, 15182, Pitch_bend_c, 0, 15616
7, 15192, Pitch_bend_c, 0, 15744
7, 15196, Pitch_bend_c, 0, 15872
7, 15201, Pitch_bend_c, 0, 16000
7, 15211, Pitch_bend_c, 0, 16128
7, 15216, Pitch_bend_c, 0, 16256
7, 15220, Pitch_bend_c, 0, 16383
7, 15360, Note_on_c, 0, 64, 0
7, 15360, Note_on_c, 0, 59, 0
7, 15360, Note_on_c, 0, 45, 0
7, 15360, Note_on_c, 0, 55, 0
7, 15360, Note_on_c, 0, 40, 0
7, 15360, Note_on_c, 0, 50, 0
7, 15360, Note_on_c, 0, 41, 100
7, 15379, Pitch_bend_c, 0, 8192
7, 15600, Note_on_c, 0, 41, 0
7, 15600, Note_on_c, 0, 41, 100
7, 15840, Note_on_c, 0, 41, 0
7, 15840, Note_on_c, 0, 64, 100
7, 15840, Note_on_c, 0, 50, 100
7, 15840, Pitch_bend_c, 0, 4096
7, 15840, Note_on_c, 0, 45, 100
7, 15840, Note_on_c, 0, 59, 100
7, 15840, Note_on_c, 0, 40, 100
7, 15840, Note_on_c, 0, 55, 100
7, 15844, Pitch_bend_c, 0, 4480
7, 15849, Pitch_bend_c, 0, 4864
7, 15854, Pitch_bend_c, 0, 5248
7, 15859, Pitch_bend_c, 0, 5632
7, 15864, Pitch_bend_c, 0, 6144
7, 15869, Pitch_bend_c, 0, 6528
7, 15874, Pitch_bend_c, 0, 6912
7, 15879, Pitch_bend_c, 0, 7296
7, 15884, Pitch_bend_c, 0, 7680
7, 15888, Pitch_bend_c, 0, 8192
7, 15893, Pitch_bend_c, 0, 8576
7, 15898, Pitch_bend_c, 0, 8960
7, 15903, Pitch_bend_c, 0, 9344
7, 15908, Pitch_bend_c, 0, 9728
7, 15913, Pitch_bend_c, 0, 10240
7, 15918, Pitch_bend_c, 0, 10624
7, 15923, Pitch_bend_c, 0, 11008
7, 15928, Pitch_bend_c, 0, 11392
7, 15933, Pitch_bend_c, 0, 11776
7, 15937, Pitch_bend_c, 0, 12288
7, 16075, Pitch_bend_c, 0, 8192
7, 16080, Note_on_c, 0, 55, 0
7, 16080, Note_on_c, 0, 50, 0
7, 16080, Note_on_c, 0, 45, 0
7, 16080, Note_on_c, 0, 64, 0
7, 16080, Note_on_c, 0, 40, 0
7, 16080, Note_on_c, 0, 59, 0
7, 16080, Note_on_c, 0, 45, 100
7, 16080, Note_on_c, 0, 59, 100
7, 16080, Note_on_c, 0, 40, 100
7, 16080, Note_on_c, 0, 55, 100
7, 16080, Note_on_c, 0, 64, 100
7, 16080, Pitch_bend_c, 0, 4096
7, 16080, Note_on_c, 0, 50, 100
7, 16084, Pitch_bend_c, 0, 4480
7, 16089, Pitch_bend_c, 0, 4864
7, 16094, Pitch_bend_c, 0, 5248
7, 16099, Pitch_bend_c, 0, 5632
7, 16104, Pitch_bend_c, 0, 6144
7, 16109, Pitch_bend_c, 0, 6528
7, 16114, Pitch_bend_c, 0, 6912
7, 16119, Pitch_bend_c, 0, 7296
7, 16124, Pitch_bend_c, 0, 7680
7, 16128, Pitch_bend_c, 0, 8192
7, 16133, Pitch_bend_c, 0, 8576
7, 16138, Pitch_bend_c, 0, 8960
7, 16143, Pitch_bend_c, 0, 9344
7, 16148, Pitch_bend_c, 0, 9728
7, 16153, Pitch_bend_c, 0, 10240
7, 16158, Pitch_bend_c, 0, 10624
7, 16163, Pitch_bend_c, 0, 11008
7, 16168, Pitch_bend_c, 0, 11392
7, 16173, Pitch_bend_c, 0, 11776
7, 16177, Pitch_bend_c, 0, 12288
7, 16315, Pitch_bend_c, 0, 8192
7, 16320, Note_on_c, 0, 50, 0
7, 16320, Note_on_c, 0, 59, 0
7, 16320, Note_on_c, 0, 40, 0
7, 16320, Note_on_c, 0, 45, 0
7, 16320, Note_on_c, 0, 64, 0
7, 16320, Note_on_c, 0, 55, 0
7, 16320, Note_on_c, 0, 41, 100
7, 16560, Note_on_c, 0, 41, 0
7, 16560, Note_on_c, 0, 41, 100
7, 16776, Pitch_bend_c, 0, 8192
7, 16800, Note_on_c, 0, 41, 0
7, 16800, Note_on_c, 0, 59, 100
7, 16800, Note_on_c, 0, 45, 100
7, 16800, Note_on_c, 0, 50, 100
7, 16800, Note_on_c, 0, 40, 100
7, 16800, Note_on_c, 0, 64, 100
7, 16800, Note_on_c, 0, 55, 100
7, 16800, Pitch_bend_c, 0, 0
7, 16804, Pitch_bend_c, 0, 1152
7, 16809, Pitch_bend_c, 0, 2304
7, 16814, Pitch_bend_c, 0, 3456
7, 16819, Pitch_bend_c, 0, 4608
7, 16824, Pitch_bend_c, 0, 5760
7, 16828, Pitch_bend_c, 0, 6912
7, 16833, Pitch_bend_c, 0, 8192
7, 16838, Pitch_bend_c, 0, 9344
7, 16843, Pitch_bend_c, 0, 10496
7, 16848, Pitch_bend_c, 0, 11648
7, 16852, Pitch_bend_c, 0, 12800
7, 16857, Pitch_bend_c, 0, 13952
7, 16862, Pitch_bend_c, 0, 15104
7, 16867, Pitch_bend_c, 0, 16383
7, 17035, Pitch_bend_c, 0, 8192
7, 17040, Note_on_c, 0, 55, 0
7, 17040, Note_on_c, 0, 45, 0
7, 17040, Note_on_c, 0, 50, 0
7, 17040, Note_on_c, 0, 59, 0
7, 17040, Note_on_c, 0, 64, 0
7, 17040, Note_on_c, 0, 40, 0
7, 17040, Note_on_c, 0, 45, 100
7, 17040, Note_on_c, 0, 59, 100
7, 17040, Note_on_c, 0, 50, 100
7, 17040, Note_on_c, 0, 40, 100
7, 17040, Note_on_c, 0, 55, 100
7, 17040, Pitch_bend_c, 0, 0
7, 17040, Note_on_c, 0, 64, 100
7, 17044, Pitch_bend_c, 0, 1152
7, 17049, Pitch_bend_c, 0, 2432
7, 17054, Pitch_bend_c, 0, 3712
7, 17059, Pitch_bend_c, 0, 4992
7, 17064, Pitch_bend_c, 0, 6272
7, 17068, Pitch_bend_c, 0, 7552
7, 17073, Pitch_bend_c, 0, 8704
7, 17078, Pitch_bend_c, 0, 9984
7, 17083, Pitch_bend_c, 0, 11264
7, 17088, Pitch_bend_c, 0, 12544
7, 17092, Pitch_bend_c, 0, 13824
7, 17097, Pitch_bend_c, 0, 15104
7, 17102, Pitch_bend_c, 0, 16383
7, 17275, Pitch_bend_c, 0, 8192
7, 17280, Note_on_c, 0, 64, 0
7, 17280, Note_on_c, 0, 59, 0
7, 17280, Note_on_c, 0, 50, 0
7, 17280, Note_on_c, 0, 45, 0
7, 17280, Note_on_c, 0, 55, 0
7, 17280, Note_on_c, 0, 40, 0
7, 17280, Note_on_c, 0, 41, 100
7, 17520, Note_on_c, 0, 41, 0
7, 17520, Note_on_c, 0, 41, 100
7, 17760, Note_on_c, 0, 41, 0
7, 17760, Note_on_c, 0, 55, 100
7, 17760, Note_on_c, 0, 40, 100
7, 17760, Note_on_c, 0, 59, 100
7, 17760, Note_on_c, 0, 50, 100
7, 17760, Note_on_c, 0, 64, 100
7, 17760, Note_on_c, 0, 45, 100
7, 17760, Pitch_bend_c, 0, 8192
7, 17779, Pitch_bend_c, 0, 16256
7, 17784, Pitch_bend_c, 0, 16383
7, 17793, Pitch_bend_c, 0, 16256
7, 17803, Pitch_bend_c, 0, 16128
7, 17812, Pitch_bend_c, 0, 16000
7, 17822, Pitch_bend_c, 0, 15872
7, 17832, Pitch_bend_c, 0, 15744
7, 17841, Pitch_bend_c, 0, 15872
7, 17851, Pitch_bend_c, 0, 16000
7, 17856, Pitch_bend_c, 0, 16128
7, 17865, Pitch_bend_c, 0, 16256
7, 17870, Pitch_bend_c, 0, 16383
7, 18000, Note_on_c, 0, 45, 0
7, 18000, Note_on_c, 0, 40, 0
7, 18000, Note_on_c, 0, 59, 0
7, 18000, Note_on_c, 0, 55, 0
7, 18000, Note_on_c, 0, 64, 0
7, 18000, Note_on_c, 0, 50, 0
7, 18000, Note_on_c, 0, 55, 100
7, 18000, Note_on_c, 0, 64, 100
7, 18000, Note_on_c, 0, 50, 100
7, 18000, Note_on_c, 0, 59, 100
7, 18000, Note_on_c, 0, 40, 100
7, 18000, Note_on_c, 0, 45, 100
7, 18019, Pitch_bend_c, 0, 8192
7, 18024, Pitch_bend_c, 0, 16383
7, 18033, Pitch_bend_c, 0, 16256
7, 18038, Pitch_bend_c, 0, 16128
7, 18043, Pitch_bend_c, 0, 16000
7, 18052, Pitch_bend_c, 0, 15872
7, 18057, Pitch_bend_c, 0, 15744
7, 18062, Pitch_bend_c, 0, 15616
7, 18072, Pitch_bend_c, 0, 15744
7, 18076, Pitch_bend_c, 0, 15872
7, 18081, Pitch_bend_c, 0, 16000
7, 18091, Pitch_bend_c, 0, 16128
7, 18096, Pitch_bend_c, 0, 16256
7, 18100, Pitch_bend_c, 0, 16383
7, 18240, Note_on_c, 0, 45, 0
7, 18240, Note_on_c, 0, 64, 0
7, 18240, Note_on_c, 0, 50, 0
7, 18240, Note_on_c, 0, 55, 0
7, 18240, Note_on_c, 0, 40, 0
7, 18240, Note_on_c, 0, 59, 0
7, 18240, Note_on_c, 0, 41, 100
7, 18259, Pitch_bend_c, 0, 8192
7, 18480, Note_on_c, 0, 41, 0
7, 18480, Note_on_c, 0, 41, 100
7, 18720, Note_on_c, 0, 41, 0
7, 18720, Note_on_c, 0, 45, 100
7, 18720, Note_on_c, 0, 50, 100
7, 18720, Note_on_c, 0, 59, 100
7, 18720, Note_on_c, 0, 64, 100
7, 18720, Note_on_c, 0, 40, 100
7, 18720, Note_on_c, 0, 55, 100
7, 19200, Note_on_c, 0, 55, 0
7, 19200, Note_on_c, 0, 50, 0
7, 19200, Note_on_c, 0, 59, 0
7, 19200, Note_on_c, 0, 45, 0
7, 19200, Note_on_c, 0, 40, 0
7, 19200, Note_on_c, 0, 64, 0
7, 19200, Note_on_c, 0, 42, 100
7, 20400, Note_on_c, 0, 42, 0
7, 20400, Note_on_c, 0, 38, 100
7, 20880, Note_on_c, 0, 38, 0
7, 20880, Note_on_c, 0, 35, 100
7, 23040, Note_on_c, 0, 35, 0
7, 23040, Note_on_c, 0, 42, 100
7, 24240, Note_on_c, 0, 42, 0
7, 24240, Note_on_c, 0, 38, 100
7, 24720, Note_on_c, 0, 38, 0
7, 24720, Note_on_c, 0, 35, 100
7, 26880, Note_on_c, 0, 35, 0
7, 26880, Note_on_c, 0, 42, 100
7, 28080, Note_on_c, 0, 42, 0
7, 28080, Note_on_c, 0, 38, 100
7, 28560, Note_on_c, 0, 38, 0
7, 28560, Note_on_c, 0, 35, 100
7, 30720, Note_on_c, 0, 35, 0
7, 30720, Note_on_c, 0, 42, 100
7, 31920, Note_on_c, 0, 42, 0
7, 31920, Note_on_c, 0, 38, 100
7, 32400, Note_on_c, 0, 38, 0
7, 32400, Note_on_c, 0, 35, 100
7, 34560, Note_on_c, 0, 35, 0
7, 49920, Note_on_c, 0, 41, 100
7, 50160, Note_on_c, 0, 41, 0
7, 50160, Note_on_c, 0, 41, 100
7, 50400, Note_on_c, 0, 41, 0
7, 50400, Pitch_bend_c, 0, 4096
7, 50400, Note_on_c, 0, 59, 100
7, 50400, Note_on_c, 0, 40, 100
7, 50400, Note_on_c, 0, 64, 100
7, 50400, Note_on_c, 0, 45, 100
7, 50400, Note_on_c, 0, 50, 100
7, 50400, Note_on_c, 0, 55, 100
7, 50404, Pitch_bend_c, 0, 4480
7, 50409, Pitch_bend_c, 0, 4864
7, 50414, Pitch_bend_c, 0, 5248
7, 50419, Pitch_bend_c, 0, 5632
7, 50424, Pitch_bend_c, 0, 6144
7, 50429, Pitch_bend_c, 0, 6528
7, 50434, Pitch_bend_c, 0, 6912
7, 50439, Pitch_bend_c, 0, 7296
7, 50444, Pitch_bend_c, 0, 7680
7, 50448, Pitch_bend_c, 0, 8192
7, 50453, Pitch_bend_c, 0, 8576
7, 50458, Pitch_bend_c, 0, 8960
7, 50463, Pitch_bend_c, 0, 9344
7, 50468, Pitch_bend_c, 0, 9728
7, 50473, Pitch_bend_c, 0, 10240
7, 50478, Pitch_bend_c, 0, 10624
7, 50483, Pitch_bend_c, 0, 11008
7, 50488, Pitch_bend_c, 0, 11392
7, 50493, Pitch_bend_c, 0, 11776
7, 50497, Pitch_bend_c, 0, 12288
7, 50635, Pitch_bend_c, 0, 8192
7, 50640, Note_on_c, 0, 55, 0
7, 50640, Note_on_c, 0, 40, 0
7, 50640, Note_on_c, 0, 64, 0
7, 50640, Note_on_c, 0, 59, 0
7, 50640, Note_on_c, 0, 50, 0
7, 50640, Note_on_c, 0, 45, 0
7, 50640, Note_on_c, 0, 45, 100
7, 50640, Note_on_c, 0, 55, 100
7, 50640, Note_on_c, 0, 59, 100
7, 50640, Note_on_c, 0, 50, 100
7, 50640, Note_on_c, 0, 40, 100
7, 50640, Note_on_c, 0, 64, 100
7, 50640, Pitch_bend_c, 0, 4096
7, 50644, Pitch_bend_c, 0, 4480
7, 50649, Pitch_bend_c, 0, 4864
7, 50654, Pitch_bend_c, 0, 5248
7, 50659, Pitch_bend_c, 0, 5632
7, 50664, Pitch_bend_c, 0, 6144
7, 50669, Pitch_bend_c, 0, 6528
7, 50674, Pitch_bend_c, 0, 6912
7, 50679, Pitch_bend_c, 0, 7296
7, 50684, Pitch_bend_c, 0, 7680
7, 50688, Pitch_bend_c, 0, 8192
7, 50693, Pitch_bend_c, 0, 8576
7, 50698, Pitch_bend_c, 0, 8960
7, 50703, Pitch_bend_c, 0, 9344
7, 50708, Pitch_bend_c, 0, 9728
7, 50713, Pitch_bend_c, 0, 10240
7, 50718, Pitch_bend_c, 0, 10624
7, 50723, Pitch_bend_c, 0, 11008
7, 50728, Pitch_bend_c, 0, 11392
7, 50733, Pitch_bend_c, 0, 11776
7, 50737, Pitch_bend_c, 0, 12288
7, 50875, Pitch_bend_c, 0, 8192
7, 50880, Note_on_c, 0, 64, 0
7, 50880, Note_on_c, 0, 55, 0
7, 50880, Note_on_c, 0, 59, 0
7, 50880, Note_on_c, 0, 45, 0
7, 50880, Note_on_c, 0, 40, 0
7, 50880, Note_on_c, 0, 50, 0
7, 50880, Note_on_c, 0, 41, 100
7, 51120, Note_on_c, 0, 41, 0
7, 51120, Note_on_c, 0, 41, 100
7, 51336, Pitch_bend_c, 0, 8192
7, 51355, Pitch_bend_c, 0, 16256
7, 51360, Note_on_c, 0, 41, 0
7, 51360, Note_on_c, 0, 55, 100
7, 51360, Note_on_c, 0, 64, 100
7, 51360, Pitch_bend_c, 0, 16383
7, 51360, Note_on_c, 0, 45, 100
7, 51360, Note_on_c, 0, 40, 100
7, 51360, Note_on_c, 0, 50, 100
7, 51360, Note_on_c, 0, 59, 100
7, 51369, Pitch_bend_c, 0, 16256
7, 51379, Pitch_bend_c, 0, 16128
7, 51388, Pitch_bend_c, 0, 16000
7, 51398, Pitch_bend_c, 0, 15872
7, 51408, Pitch_bend_c, 0, 15744
7, 51417, Pitch_bend_c, 0, 15872
7, 51427, Pitch_bend_c, 0, 16000
7, 51432, Pitch_bend_c, 0, 16128
7, 51441, Pitch_bend_c, 0, 16256
7, 51446, Pitch_bend_c, 0, 16383
7, 51595, Pitch_bend_c, 0, 8192
7, 51600, Note_on_c, 0, 59, 0
7, 51600, Note_on_c, 0, 64, 0
7, 51600, Note_on_c, 0, 45, 0
7, 51600, Note_on_c, 0, 55, 0
7, 51600, Note_on_c, 0, 50, 0
7, 51600, Note_on_c, 0, 40, 0
7, 51600, Note_on_c, 0, 40, 100
7, 51600, Note_on_c, 0, 59, 100
7, 51600, Note_on_c, 0, 64, 100
7, 51600, Pitch_bend_c, 0, 16383
7, 51600, Note_on_c, 0, 45, 100
7, 51600, Note_on_c, 0, 50, 100
7, 51600, Note_on_c, 0, 55, 100
7, 51609, Pitch_bend_c, 0, 16256
7, 51614, Pitch_bend_c, 0, 16128
7, 51619, Pitch_bend_c, 0, 16000
7, 51628, Pitch_bend_c, 0, 15872
7, 51633, Pitch_bend_c, 0, 15744
7, 51638, Pitch_bend_c, 0, 15616
7, 51648, Pitch_bend_c, 0, 15744
7, 51652, Pitch_bend_c, 0, 15872
7, 51657, Pitch_bend_c, 0, 16000
7, 51667, Pitch_bend_c, 0, 16128
7, 51672, Pitch_bend_c, 0, 16256
7, 51676, Pitch_bend_c, 0, 16383
7, 51835, Pitch_bend_c, 0, 8192
7, 51840, Note_on_c, 0, 55, 0
7, 51840, Note_on_c, 0, 59, 0
7, 51840, Note_on_c, 0, 64, 0
7, 51840, Note_on_c, 0, 40, 0
7, 51840, Note_on_c, 0, 50, 0
7, 51840, Note_on_c, 0, 45, 0
7, 51840, Note_on_c, 0, 41, 100
7, 52080, Note_on_c, 0, 41, 0
7, 52080, Note_on_c, 0, 41, 100
7, 52320, Note_on_c, 0, 41, 0
7, 52320, Note_on_c, 0, 40, 100
7, 52320, Note_on_c, 0, 55, 100
7, 52320, Note_on_c, 0, 50, 100
7, 52320, Pitch_bend_c, 0, 4096
7, 52320, Note_on_c, 0, 64, 100
7, 52320, Note_on_c, 0, 59, 100
7, 52320, Note_on_c, 0, 45, 100
7, 52324, Pitch_bend_c, 0, 4480
7, 52329, Pitch_bend_c, 0, 4864
7, 52334, Pitch_bend_c, 0, 5248
7, 52339, Pitch_bend_c, 0, 5632
7, 52344, Pitch_bend_c, 0, 6144
7, 52349, Pitch_bend_c, 0, 6528
7, 52354, Pitch_bend_c, 0, 6912
7, 52359, Pitch_bend_c, 0, 7296
7, 52364, Pitch_bend_c, 0, 7680
7, 52368, Pitch_bend_c, 0, 8192
7, 52373, Pitch_bend_c, 0, 8576
7, 52378, Pitch_bend_c, 0, 8960
7, 52383, Pitch_bend_c, 0, 9344
7, 52388, Pitch_bend_c, 0, 9728
7, 52393, Pitch_bend_c, 0, 10240
7, 52398, Pitch_bend_c, 0, 10624
7, 52403, Pitch_bend_c, 0, 11008
7, 52408, Pitch_bend_c, 0, 11392
7, 52413, Pitch_bend_c, 0, 11776
7, 52417, Pitch_bend_c, 0, 12288
7, 52555, Pitch_bend_c, 0, 8192
7, 52560, Note_on_c, 0, 45, 0
7, 52560, Note_on_c, 0, 55, 0
7, 52560, Note_on_c, 0, 50, 0
7, 52560, Note_on_c, 0, 40, 0
7, 52560, Note_on_c, 0, 59, 0
7, 52560, Note_on_c, 0, 64, 0
7, 52560, Note_on_c, 0, 45, 100
7, 52560, Note_on_c, 0, 59, 100
7, 52560, Pitch_bend_c, 0, 4096
7, 52560, Note_on_c, 0, 50, 100
7, 52560, Note_on_c, 0, 55, 100
7, 52560, Note_on_c, 0, 40, 100
7, 52560, Note_on_c, 0, 64, 100
7, 52564, Pitch_bend_c, 0, 4480
7, 52569, Pitch_bend_c, 0, 4864
7, 52574, Pitch_bend_c, 0, 5248
7, 52579, Pitch_bend_c, 0, 5632
7, 52584, Pitch_bend_c, 0, 6144
7, 52589, Pitch_bend_c, 0, 6528
7, 52594, Pitch_bend_c, 0, 6912
7, 52599, Pitch_bend_c, 0, 7296
7, 52604, Pitch_bend_c, 0, 7680
7, 52608, Pitch_bend_c, 0, 8192
7, 52613, Pitch_bend_c, 0, 8576
7, 52618, Pitch_bend_c, 0, 8960
7, 52623, Pitch_bend_c, 0, 9344
7, 52628, Pitch_bend_c, 0, 9728
7, 52633, Pitch_bend_c, 0, 10240
7, 52638, Pitch_bend_c, 0, 10624
7, 52643, Pitch_bend_c, 0, 11008
7, 52648, Pitch_bend_c, 0, 11392
7, 52653, Pitch_bend_c, 0, 11776
7, 52657, Pitch_bend_c, 0, 12288
7, 52795, Pitch_bend_c, 0, 8192
7, 52800, Note_on_c, 0, 64, 0
7, 52800, Note_on_c, 0, 59, 0
7, 52800, Note_on_c, 0, 50, 0
7, 52800, Note_on_c, 0, 45, 0
7, 52800, Note_on_c, 0, 40, 0
7, 52800, Note_on_c, 0, 55, 0
7, 52800, Note_on_c, 0, 41, 100
7, 53040, Note_on_c, 0, 41, 0
7, 53040, Note_on_c, 0, 41, 100
7, 53256, Pitch_bend_c, 0, 8320
7, 53280, Note_on_c, 0, 41, 0
7, 53280, Note_on_c, 0, 64, 100
7, 53280, Note_on_c, 0, 50, 100
7, 53280, Note_on_c, 0, 40, 100
7, 53280, Note_on_c, 0, 59, 100
7, 53280, Note_on_c, 0, 55, 100
7, 53280, Note_on_c, 0, 45, 100
7, 53308, Pitch_bend_c, 0, 8832
7, 53313, Pitch_bend_c, 0, 8960
7, 53318, Pitch_bend_c, 0, 9088
7, 53323, Pitch_bend_c, 0, 9216
7, 53328, Pitch_bend_c, 0, 9344
7, 53332, Pitch_bend_c, 0, 9472
7, 53337, Pitch_bend_c, 0, 9600
7, 53342, Pitch_bend_c, 0, 9728
7, 53347, Pitch_bend_c, 0, 9856
7, 53352, Pitch_bend_c, 0, 9984
7, 53356, Pitch_bend_c, 0, 10112
7, 53361, Pitch_bend_c, 0, 10240
7, 53366, Pitch_bend_c, 0, 10368
7, 53371, Pitch_bend_c, 0, 10496
7, 53515, Pitch_bend_c, 0, 8192
7, 53520, Note_on_c, 0, 45, 0
7, 53520, Note_on_c, 0, 50, 0
7, 53520, Note_on_c, 0, 40, 0
7, 53520, Note_on_c, 0, 64, 0
7, 53520, Note_on_c, 0, 55, 0
7, 53520, Note_on_c, 0, 59, 0
7, 53520, Pitch_bend_c, 0, 8320
7, 53520, Note_on_c, 0, 40, 100
7, 53520, Note_on_c, 0, 45, 100
7, 53520, Note_on_c, 0, 50, 100
7, 53520, Note_on_c, 0, 55, 100
7, 53520, Note_on_c, 0, 59, 100
7, 53520, Note_on_c, 0, 64, 100
7, 53524, Pitch_bend_c, 0, 8448
7, 53529, Pitch_bend_c, 0, 8576
7, 53534, Pitch_bend_c, 0, 8704
7, 53539, Pitch_bend_c, 0, 8832
7, 53544, Pitch_bend_c, 0, 8960
7, 53548, Pitch_bend_c, 0, 9088
7, 53553, Pitch_bend_c, 0, 9216
7, 53558, Pitch_bend_c, 0, 9344
7, 53563, Pitch_bend_c, 0, 9472
7, 53568, Pitch_bend_c, 0, 9600
7, 53572, Pitch_bend_c, 0, 9728
7, 53577, Pitch_bend_c, 0, 9856
7, 53582, Pitch_bend_c, 0, 9984
7, 53587, Pitch_bend_c, 0, 10112
7, 53592, Pitch_bend_c, 0, 10240
7, 53596, Pitch_bend_c, 0, 10368
7, 53601, Pitch_bend_c, 0, 10496
7, 53755, Pitch_bend_c, 0, 8192
7, 53760, Note_on_c, 0, 64, 0
7, 53760, Note_on_c, 0, 45, 0
7, 53760, Note_on_c, 0, 50, 0
7, 53760, Note_on_c, 0, 40, 0
7, 53760, Note_on_c, 0, 59, 0
7, 53760, Note_on_c, 0, 55, 0
7, 53760, Note_on_c, 0, 42, 100
7, 54960, Note_on_c, 0, 42, 0
7, 54960, Note_on_c, 0, 38, 100
7, 55440, Note_on_c, 0, 38, 0
7, 55440, Note_on_c, 0, 35, 100
7, 57600, Note_on_c, 0, 35, 0
7, 57600, Note_on_c, 0, 42, 100
7, 58800, Note_on_c, 0, 42, 0
7, 58800, Note_on_c, 0, 38, 100
7, 59280, Note_on_c, 0, 38, 0
7, 59280, Note_on_c, 0, 35, 100
7, 61440, Note_on_c, 0, 35, 0
7, 61440, Note_on_c, 0, 42, 100
7, 62640, Note_on_c, 0, 42, 0
7, 62640, Note_on_c, 0, 38, 100
7, 63120, Note_on_c, 0, 38, 0
7, 63120, Note_on_c, 0, 35, 100
7, 65280, Note_on_c, 0, 35, 0
7, 65280, Note_on_c, 0, 42, 100
7, 66480, Note_on_c, 0, 42, 0
7, 66480, Note_on_c, 0, 38, 100
7, 66960, Note_on_c, 0, 38, 0
7, 66960, Note_on_c, 0, 35, 100
7, 69120, Note_on_c, 0, 35, 0
7, 69120, Note_on_c, 0, 42, 100
7, 70320, Note_on_c, 0, 42, 0
7, 70320, Note_on_c, 0, 38, 100
7, 70800, Note_on_c, 0, 38, 0
7, 70800, Note_on_c, 0, 35, 100
7, 72960, Note_on_c, 0, 35, 0
7, 72960, Note_on_c, 0, 42, 100
7, 74160, Note_on_c, 0, 42, 0
7, 74160, Note_on_c, 0, 38, 100
7, 74640, Note_on_c, 0, 38, 0
7, 74640, Note_on_c, 0, 35, 100
7, 76800, Note_on_c, 0, 35, 0
7, 92160, Note_on_c, 0, 41, 100
7, 92160, Pitch_bend_c, 0, 8064
7, 92179, Pitch_bend_c, 0, 8192
7, 92193, Pitch_bend_c, 0, 8320
7, 92212, Pitch_bend_c, 0, 8448
7, 92227, Pitch_bend_c, 0, 8576
7, 92246, Pitch_bend_c, 0, 8704
7, 92260, Pitch_bend_c, 0, 8832
7, 92280, Pitch_bend_c, 0, 8960
7, 92294, Pitch_bend_c, 0, 9088
7, 92313, Pitch_bend_c, 0, 9216
7, 92328, Pitch_bend_c, 0, 9344
7, 92347, Pitch_bend_c, 0, 9472
7, 92361, Pitch_bend_c, 0, 9600
7, 92380, Pitch_bend_c, 0, 9728
7, 92395, Pitch_bend_c, 0, 9856
7, 92400, Note_on_c, 0, 41, 0
7, 92400, Pitch_bend_c, 0, 8192
7, 92400, Note_on_c, 0, 41, 100
7, 92419, Pitch_bend_c, 0, 8320
7, 92433, Pitch_bend_c, 0, 8448
7, 92452, Pitch_bend_c, 0, 8576
7, 92467, Pitch_bend_c, 0, 8704
7, 92486, Pitch_bend_c, 0, 8832
7, 92500, Pitch_bend_c, 0, 8960
7, 92520, Pitch_bend_c, 0, 9088
7, 92534, Pitch_bend_c, 0, 9216
7, 92553, Pitch_bend_c, 0, 9344
7, 92568, Pitch_bend_c, 0, 9472
7, 92587, Pitch_bend_c, 0, 9600
7, 92601, Pitch_bend_c, 0, 9728
7, 92620, Pitch_bend_c, 0, 9856
7, 92635, Pitch_bend_c, 0, 9984
7, 92640, Note_on_c, 0, 41, 0
7, 92640, Note_on_c, 0, 59, 100
7, 92640, Note_on_c, 0, 64, 100
7, 92640, Note_on_c, 0, 50, 100
7, 92640, Note_on_c, 0, 40, 100
7, 92640, Note_on_c, 0, 55, 100
7, 92640, Pitch_bend_c, 0, 8320
7, 92640, Note_on_c, 0, 45, 100
7, 92644, Pitch_bend_c, 0, 8448
7, 92649, Pitch_bend_c, 0, 8576
7, 92654, Pitch_bend_c, 0, 8704
7, 92659, Pitch_bend_c, 0, 8960
7, 92664, Pitch_bend_c, 0, 9088
7, 92668, Pitch_bend_c, 0, 9216
7, 92673, Pitch_bend_c, 0, 9472
7, 92678, Pitch_bend_c, 0, 9600
7, 92683, Pitch_bend_c, 0, 9728
7, 92688, Pitch_bend_c, 0, 9856
7, 92692, Pitch_bend_c, 0, 10112
7, 92697, Pitch_bend_c, 0, 10240
7, 92702, Pitch_bend_c, 0, 10368
7, 92707, Pitch_bend_c, 0, 10624
7, 92712, Pitch_bend_c, 0, 10752
7, 92716, Pitch_bend_c, 0, 10880
7, 92721, Pitch_bend_c, 0, 11008
7, 92726, Pitch_bend_c, 0, 11264
7, 92731, Pitch_bend_c, 0, 11392
7, 92736, Pitch_bend_c, 0, 11520
7, 92740, Pitch_bend_c, 0, 11776
7, 92745, Pitch_bend_c, 0, 11904
7, 92750, Pitch_bend_c, 0, 12032
7, 92755, Pitch_bend_c, 0, 12160
7, 92760, Pitch_bend_c, 0, 12416
7, 92764, Pitch_bend_c, 0, 12544
7, 92769, Pitch_bend_c, 0, 12672
7, 92774, Pitch_bend_c, 0, 12928
7, 92779, Pitch_bend_c, 0, 13056
7, 92784, Pitch_bend_c, 0, 13184
7, 92788, Pitch_bend_c, 0, 13312
7, 92793, Pitch_bend_c, 0, 13568
7, 92798, Pitch_bend_c, 0, 13696
7, 92803, Pitch_bend_c, 0, 13824
7, 92808, Pitch_bend_c, 0, 14080
7, 92812, Pitch_bend_c, 0, 14208
7, 92817, Pitch_bend_c, 0, 14336
7, 92822, Pitch_bend_c, 0, 14464
7, 92827, Pitch_bend_c, 0, 14720
7, 92832, Pitch_bend_c, 0, 14848
7, 92836, Pitch_bend_c, 0, 14976
7, 92841, Pitch_bend_c, 0, 15232
7, 92846, Pitch_bend_c, 0, 15360
7, 92851, Pitch_bend_c, 0, 15488
7, 92856, Pitch_bend_c, 0, 15616
7, 92860, Pitch_bend_c, 0, 15872
7, 92865, Pitch_bend_c, 0, 16000
7, 92870, Pitch_bend_c, 0, 16128
7, 92875, Pitch_bend_c, 0, 16383
7, 92880, Note_on_c, 0, 45, 0
7, 92880, Note_on_c, 0, 64, 0
7, 92880, Note_on_c, 0, 50, 0
7, 92880, Note_on_c, 0, 59, 0
7, 92880, Note_on_c, 0, 55, 0
7, 92880, Note_on_c, 0, 40, 0
7, 92880, Pitch_bend_c, 0, 8192
7, 92880, Note_on_c, 0, 45, 100
7, 92880, Note_on_c, 0, 55, 100
7, 92880, Note_on_c, 0, 40, 100
7, 92880, Note_on_c, 0, 64, 100
7, 92880, Note_on_c, 0, 50, 100
7, 92880, Note_on_c, 0, 59, 100
7, 92884, Pitch_bend_c, 0, 8320
7, 92889, Pitch_bend_c, 0, 8448
7, 92894, Pitch_bend_c, 0, 8576
7, 92899, Pitch_bend_c, 0, 8832
7, 92904, Pitch_bend_c, 0, 8960
7, 92908, Pitch_bend_c, 0, 9088
7, 92913, Pitch_bend_c, 0, 9344
7, 92918, Pitch_bend_c, 0, 9472
7, 92923, Pitch_bend_c, 0, 9600
7, 92928, Pitch_bend_c, 0, 9856
7, 92932, Pitch_bend_c, 0, 9984
7, 92937, Pitch_bend_c, 0, 10112
7, 92942, Pitch_bend_c, 0, 10240
7, 92947, Pitch_bend_c, 0, 10496
7, 92952, Pitch_bend_c, 0, 10624
7, 92956, Pitch_bend_c, 0, 10752
7, 92961, Pitch_bend_c, 0, 11008
7, 92966, Pitch_bend_c, 0, 11136
7, 92971, Pitch_bend_c, 0, 11264
7, 92976, Pitch_bend_c, 0, 11520
7, 92980, Pitch_bend_c, 0, 11648
7, 92985, Pitch_bend_c, 0, 11776
7, 92990, Pitch_bend_c, 0, 12032
7, 92995, Pitch_bend_c, 0, 12160
7, 93000, Pitch_bend_c, 0, 12288
7, 93004, Pitch_bend_c, 0, 12416
7, 93009, Pitch_bend_c, 0, 12672
7, 93014, Pitch_bend_c, 0, 12800
7, 93019, Pitch_bend_c, 0, 12928
7, 93024, Pitch_bend_c, 0, 13184
7, 93028, Pitch_bend_c, 0, 13312
7, 93033, Pitch_bend_c, 0, 13440
7, 93038, Pitch_bend_c, 0, 13696
7, 93043, Pitch_bend_c, 0, 13824
7, 93048, Pitch_bend_c, 0, 13952
7, 93052, Pitch_bend_c, 0, 14208
7, 93057, Pitch_bend_c, 0, 14336
7, 93062, Pitch_bend_c, 0, 14464
7, 93067, Pitch_bend_c, 0, 14592
7, 93072, Pitch_bend_c, 0, 14848
7, 93076, Pitch_bend_c, 0, 14976
7, 93081, Pitch_bend_c, 0, 15104
7, 93086, Pitch_bend_c, 0, 15360
7, 93091, Pitch_bend_c, 0, 15488
7, 93096, Pitch_bend_c, 0, 15616
7, 93100, Pitch_bend_c, 0, 15872
7, 93105, Pitch_bend_c, 0, 16000
7, 93110, Pitch_bend_c, 0, 16128
7, 93115, Pitch_bend_c, 0, 16383
7, 93120, Note_on_c, 0, 59, 0
7, 93120, Note_on_c, 0, 55, 0
7, 93120, Note_on_c, 0, 40, 0
7, 93120, Note_on_c, 0, 45, 0
7, 93120, Note_on_c, 0, 50, 0
7, 93120, Note_on_c, 0, 64, 0
7, 93120, Note_on_c, 0, 41, 100
7, 93120, Pitch_bend_c, 0, 8064
7, 93139, Pitch_bend_c, 0, 8192
7, 93153, Pitch_bend_c, 0, 8320
7, 93172, Pitch_bend_c, 0, 8448
7, 93187, Pitch_bend_c, 0, 8576
7, 93206, Pitch_bend_c, 0, 8704
7, 93220, Pitch_bend_c, 0, 8832
7, 93240, Pitch_bend_c, 0, 8960
7, 93254, Pitch_bend_c, 0, 9088
7, 93273, Pitch_bend_c, 0, 9216
7, 93288, Pitch_bend_c, 0, 9344
7, 93307, Pitch_bend_c, 0, 9472
7, 93321, Pitch_bend_c, 0, 9600
7, 93340, Pitch_bend_c, 0, 9728
7, 93355, Pitch_bend_c, 0, 9856
7, 93360, Note_on_c, 0, 41, 0
7, 93360, Pitch_bend_c, 0, 8192
7, 93360, Note_on_c, 0, 41, 100
7, 93379, Pitch_bend_c, 0, 8320
7, 93393, Pitch_bend_c, 0, 8448
7, 93412, Pitch_bend_c, 0, 8576
7, 93427, Pitch_bend_c, 0, 8704
7, 93446, Pitch_bend_c, 0, 8832
7, 93460, Pitch_bend_c, 0, 8960
7, 93480, Pitch_bend_c, 0, 9088
7, 93494, Pitch_bend_c, 0, 9216
7, 93513, Pitch_bend_c, 0, 9344
7, 93528, Pitch_bend_c, 0, 9472
7, 93547, Pitch_bend_c, 0, 9600
7, 93561, Pitch_bend_c, 0, 9728
7, 93580, Pitch_bend_c, 0, 9856
7, 93595, Pitch_bend_c, 0, 9984
7, 93600, Note_on_c, 0, 41, 0
7, 93600, Note_on_c, 0, 45, 100
7, 93600, Note_on_c, 0, 64, 100
7, 93600, Note_on_c, 0, 55, 100
7, 93600, Note_on_c, 0, 59, 100
7, 93600, Pitch_bend_c, 0, 8320
7, 93600, Note_on_c, 0, 50, 100
7, 93600, Note_on_c, 0, 40, 100
7, 93604, Pitch_bend_c, 0, 8448
7, 93609, Pitch_bend_c, 0, 8576
7, 93614, Pitch_bend_c, 0, 8704
7, 93619, Pitch_bend_c, 0, 8960
7, 93624, Pitch_bend_c, 0, 9088
7, 93628, Pitch_bend_c, 0, 9216
7, 93633, Pitch_bend_c, 0, 9472
7, 93638, Pitch_bend_c, 0, 9600
7, 93643, Pitch_bend_c, 0, 9728
7, 93648, Pitch_bend_c, 0, 9856
7, 93652, Pitch_bend_c, 0, 10112
7, 93657, Pitch_bend_c, 0, 10240
7, 93662, Pitch_bend_c, 0, 10368
7, 93667, Pitch_bend_c, 0, 10624
7, 93672, Pitch_bend_c, 0, 10752
7, 93676, Pitch_bend_c, 0, 10880
7, 93681, Pitch_bend_c, 0, 11008
7, 93686, Pitch_bend_c, 0, 11264
7, 93691, Pitch_bend_c, 0, 11392
7, 93696, Pitch_bend_c, 0, 11520
7, 93700, Pitch_bend_c, 0, 11776
7, 93705, Pitch_bend_c, 0, 11904
7, 93710, Pitch_bend_c, 0, 12032
7, 93715, Pitch_bend_c, 0, 12160
7, 93720, Pitch_bend_c, 0, 12416
7, 93724, Pitch_bend_c, 0, 12544
7, 93729, Pitch_bend_c, 0, 12672
7, 93734, Pitch_bend_c, 0, 12928
7, 93739, Pitch_bend_c, 0, 13056
7, 93744, Pitch_bend_c, 0, 13184
7, 93748, Pitch_bend_c, 0, 13312
7, 93753, Pitch_bend_c, 0, 13568
7, 93758, Pitch_bend_c, 0, 13696
7, 93763, Pitch_bend_c, 0, 13824
7, 93768, Pitch_bend_c, 0, 14080
7, 93772, Pitch_bend_c, 0, 14208
7, 93777, Pitch_bend_c, 0, 14336
7, 93782, Pitch_bend_c, 0, 14464
7, 93787, Pitch_bend_c, 0, 14720
7, 93792, Pitch_bend_c, 0, 14848
7, 93796, Pitch_bend_c, 0, 14976
7, 93801, Pitch_bend_c, 0, 15232
7, 93806, Pitch_bend_c, 0, 15360
7, 93811, Pitch_bend_c, 0, 15488
7, 93816, Pitch_bend_c, 0, 15616
7, 93820, Pitch_bend_c, 0, 15872
7, 93825, Pitch_bend_c, 0, 16000
7, 93830, Pitch_bend_c, 0, 16128
7, 93835, Pitch_bend_c, 0, 16383
7, 93840, Note_on_c, 0, 40, 0
7, 93840, Note_on_c, 0, 64, 0
7, 93840, Note_on_c, 0, 55, 0
7, 93840, Note_on_c, 0, 45, 0
7, 93840, Note_on_c, 0, 50, 0
7, 93840, Note_on_c, 0, 59, 0
7, 93840, Pitch_bend_c, 0, 8192
7, 93840, Note_on_c, 0, 59, 100
7, 93840, Note_on_c, 0, 55, 100
7, 93840, Note_on_c, 0, 40, 100
7, 93840, Note_on_c, 0, 50, 100
7, 93840, Note_on_c, 0, 64, 100
7, 93840, Note_on_c, 0, 45, 100
7, 93844, Pitch_bend_c, 0, 8320
7, 93849, Pitch_bend_c, 0, 8448
7, 93854, Pitch_bend_c, 0, 8576
7, 93859, Pitch_bend_c, 0, 8832
7, 93864, Pitch_bend_c, 0, 8960
7, 93868, Pitch_bend_c, 0, 9088
7, 93873, Pitch_bend_c, 0, 9344
7, 93878, Pitch_bend_c, 0, 9472
7, 93883, Pitch_bend_c, 0, 9600
7, 93888, Pitch_bend_c, 0, 9856
7, 93892, Pitch_bend_c, 0, 9984
7, 93897, Pitch_bend_c, 0, 10112
7, 93902, Pitch_bend_c, 0, 10240
7, 93907, Pitch_bend_c, 0, 10496
7, 93912, Pitch_bend_c, 0, 10624
7, 93916, Pitch_bend_c, 0, 10752
7, 93921, Pitch_bend_c, 0, 11008
7, 93926, Pitch_bend_c, 0, 11136
7, 93931, Pitch_bend_c, 0, 11264
7, 93936, Pitch_bend_c, 0, 11520
7, 93940, Pitch_bend_c, 0, 11648
7, 93945, Pitch_bend_c, 0, 11776
7, 93950, Pitch_bend_c, 0, 12032
7, 93955, Pitch_bend_c, 0, 12160
7, 93960, Pitch_bend_c, 0, 12288
7, 93964, Pitch_bend_c, 0, 12416
7, 93969, Pitch_bend_c, 0, 12672
7, 93974, Pitch_bend_c, 0, 12800
7, 93979, Pitch_bend_c, 0, 12928
7, 93984, Pitch_bend_c, 0, 13184
7, 93988, Pitch_bend_c, 0, 13312
7, 93993, Pitch_bend_c, 0, 13440
7, 93998, Pitch_bend_c, 0, 13696
7, 94003, Pitch_bend_c, 0, 13824
7, 94008, Pitch_bend_c, 0, 13952
7, 94012, Pitch_bend_c, 0, 14208
7, 94017, Pitch_bend_c, 0, 14336
7, 94022, Pitch_bend_c, 0, 14464
7, 94027, Pitch_bend_c, 0, 14592
7, 94032, Pitch_bend_c, 0, 14848
7, 94036, Pitch_bend_c, 0, 14976
7, 94041, Pitch_bend_c, 0, 15104
7, 94046, Pitch_bend_c, 0, 15360
7, 94051, Pitch_bend_c, 0, 15488
7, 94056, Pitch_bend_c, 0, 15616
7, 94060, Pitch_bend_c, 0, 15872
7, 94065, Pitch_bend_c, 0, 16000
7, 94070, Pitch_bend_c, 0, 16128
7, 94075, Pitch_bend_c, 0, 16383
7, 94076, Pitch_bend_c, 0, 8064
7, 94080, Note_on_c, 0, 45, 0
7, 94080, Note_on_c, 0, 55, 0
7, 94080, Note_on_c, 0, 40, 0
7, 94080, Note_on_c, 0, 59, 0
7, 94080, Note_on_c, 0, 64, 0
7, 94080, Note_on_c, 0, 50, 0
7, 94080, Note_on_c, 0, 41, 100
7, 94095, Pitch_bend_c, 0, 8192
7, 94109, Pitch_bend_c, 0, 8320
7, 94128, Pitch_bend_c, 0, 8448
7, 94143, Pitch_bend_c, 0, 8576
7, 94162, Pitch_bend_c, 0, 8704
7, 94176, Pitch_bend_c, 0, 8832
7, 94196, Pitch_bend_c, 0, 8960
7, 94210, Pitch_bend_c, 0, 9088
7, 94229, Pitch_bend_c, 0, 9216
7, 94244, Pitch_bend_c, 0, 9344
7, 94263, Pitch_bend_c, 0, 9472
7, 94277, Pitch_bend_c, 0, 9600
7, 94296, Pitch_bend_c, 0, 9728
7, 94311, Pitch_bend_c, 0, 9856
7, 94316, Pitch_bend_c, 0, 8192
7, 94320, Note_on_c, 0, 41, 0
7, 94320, Note_on_c, 0, 41, 100
7, 94335, Pitch_bend_c, 0, 8320
7, 94349, Pitch_bend_c, 0, 8448
7, 94368, Pitch_bend_c, 0, 8576
7, 94383, Pitch_bend_c, 0, 8704
7, 94402, Pitch_bend_c, 0, 8832
7, 94416, Pitch_bend_c, 0, 8960
7, 94436, Pitch_bend_c, 0, 9088
7, 94450, Pitch_bend_c, 0, 9216
7, 94469, Pitch_bend_c, 0, 9344
7, 94484, Pitch_bend_c, 0, 9472
7, 94503, Pitch_bend_c, 0, 9600
7, 94517, Pitch_bend_c, 0, 9728
7, 94536, Pitch_bend_c, 0, 9856
7, 94551, Pitch_bend_c, 0, 9984
7, 94556, Pitch_bend_c, 0, 8320
7, 94560, Note_on_c, 0, 41, 0
7, 94560, Note_on_c, 0, 45, 100
7, 94560, Note_on_c, 0, 64, 100
7, 94560, Note_on_c, 0, 50, 100
7, 94560, Note_on_c, 0, 40, 100
7, 94560, Note_on_c, 0, 55, 100
7, 94560, Note_on_c, 0, 59, 100
7, 94560, Pitch_bend_c, 0, 8448
7, 94565, Pitch_bend_c, 0, 8576
7, 94570, Pitch_bend_c, 0, 8704
7, 94575, Pitch_bend_c, 0, 8960
7, 94580, Pitch_bend_c, 0, 9088
7, 94584, Pitch_bend_c, 0, 9216
7, 94589, Pitch_bend_c, 0, 9472
7, 94594, Pitch_bend_c, 0, 9600
7, 94599, Pitch_bend_c, 0, 9728
7, 94604, Pitch_bend_c, 0, 9856
7, 94608, Pitch_bend_c, 0, 10112
7, 94613, Pitch_bend_c, 0, 10240
7, 94618, Pitch_bend_c, 0, 10368
7, 94623, Pitch_bend_c, 0, 10624
7, 94628, Pitch_bend_c, 0, 10752
7, 94632, Pitch_bend_c, 0, 10880
7, 94637, Pitch_bend_c, 0, 11008
7, 94642, Pitch_bend_c, 0, 11264
7, 94647, Pitch_bend_c, 0, 11392
7, 94652, Pitch_bend_c, 0, 11520
7, 94656, Pitch_bend_c, 0, 11776
7, 94661, Pitch_bend_c, 0, 11904
7, 94666, Pitch_bend_c, 0, 12032
7, 94671, Pitch_bend_c, 0, 12160
7, 94676, Pitch_bend_c, 0, 12416
7, 94680, Pitch_bend_c, 0, 12544
7, 94685, Pitch_bend_c, 0, 12672
7, 94690, Pitch_bend_c, 0, 12928
7, 94695, Pitch_bend_c, 0, 13056
7, 94700, Pitch_bend_c, 0, 13184
7, 94704, Pitch_bend_c, 0, 13312
7, 94709, Pitch_bend_c, 0, 13568
7, 94714, Pitch_bend_c, 0, 13696
7, 94719, Pitch_bend_c, 0, 13824
7, 94724, Pitch_bend_c, 0, 14080
7, 94728, Pitch_bend_c, 0, 14208
7, 94733, Pitch_bend_c, 0, 14336
7, 94738, Pitch_bend_c, 0, 14464
7, 94743, Pitch_bend_c, 0, 14720
7, 94748, Pitch_bend_c, 0, 14848
7, 94752, Pitch_bend_c, 0, 14976
7, 94757, Pitch_bend_c, 0, 15232
7, 94762, Pitch_bend_c, 0, 15360
7, 94767, Pitch_bend_c, 0, 15488
7, 94772, Pitch_bend_c, 0, 15616
7, 94776, Pitch_bend_c, 0, 15872
7, 94781, Pitch_bend_c, 0, 16000
7, 94786, Pitch_bend_c, 0, 16128
7, 94791, Pitch_bend_c, 0, 16383
7, 94796, Pitch_bend_c, 0, 8192
7, 94800, Note_on_c, 0, 59, 0
7, 94800, Note_on_c, 0, 64, 0
7, 94800, Note_on_c, 0, 50, 0
7, 94800, Note_on_c, 0, 45, 0
7, 94800, Note_on_c, 0, 55, 0
7, 94800, Note_on_c, 0, 40, 0
7, 94800, Note_on_c, 0, 55, 100
7, 94800, Note_on_c, 0, 40, 100
7, 94800, Note_on_c, 0, 64, 100
7, 94800, Note_on_c, 0, 59, 100
7, 94800, Note_on_c, 0, 45, 100
7, 94800, Pitch_bend_c, 0, 8320
7, 94800, Note_on_c, 0, 50, 100
7, 94805, Pitch_bend_c, 0, 8448
7, 94810, Pitch_bend_c, 0, 8576
7, 94815, Pitch_bend_c, 0, 8832
7, 94820, Pitch_bend_c, 0, 8960
7, 94824, Pitch_bend_c, 0, 9088
7, 94829, Pitch_bend_c, 0, 9344
7, 94834, Pitch_bend_c, 0, 9472
7, 94839, Pitch_bend_c, 0, 9600
7, 94844, Pitch_bend_c, 0, 9856
7, 94848, Pitch_bend_c, 0, 9984
7, 94853, Pitch_bend_c, 0, 10112
7, 94858, Pitch_bend_c, 0, 10240
7, 94863, Pitch_bend_c, 0, 10496
7, 94868, Pitch_bend_c, 0, 10624
7, 94872, Pitch_bend_c, 0, 10752
7, 94877, Pitch_bend_c, 0, 11008
7, 94882, Pitch_bend_c, 0, 11136
7, 94887, Pitch_bend_c, 0, 11264
7, 94892, Pitch_bend_c, 0, 11520
7, 94896, Pitch_bend_c, 0, 11648
7, 94901, Pitch_bend_c, 0, 11776
7, 94906, Pitch_bend_c, 0, 12032
7, 94911, Pitch_bend_c, 0, 12160
7, 94916, Pitch_bend_c, 0, 12288
7, 94920, Pitch_bend_c, 0, 12416
7, 94925, Pitch_bend_c, 0, 12672
7, 94930, Pitch_bend_c, 0, 12800
7, 94935, Pitch_bend_c, 0, 12928
7, 94940, Pitch_bend_c, 0, 13184
7, 94944, Pitch_bend_c, 0, 13312
7, 94949, Pitch_bend_c, 0, 13440
7, 94954, Pitch_bend_c, 0, 13696
7, 94959, Pitch_bend_c, 0, 13824
7, 94964, Pitch_bend_c, 0, 13952
7, 94968, Pitch_bend_c, 0, 14208
7, 94973, Pitch_bend_c, 0, 14336
7, 94978, Pitch_bend_c, 0, 14464
7, 94983, Pitch_bend_c, 0, 14592
7, 94988, Pitch_bend_c, 0, 14848
7, 94992, Pitch_bend_c, 0, 14976
7, 94997, Pitch_bend_c, 0, 15104
7, 95002, Pitch_bend_c, 0, 15360
7, 95007, Pitch_bend_c, 0, 15488
7, 95012, Pitch_bend_c, 0, 15616
7, 95016, Pitch_bend_c, 0, 15872
7, 95021, Pitch_bend_c, 0, 16000
7, 95026, Pitch_bend_c, 0, 16128
7, 95031, Pitch_bend_c, 0, 16383
7, 95032, Pitch_bend_c, 0, 8064
7, 95040, Note_on_c, 0, 50, 0
7, 95040, Note_on_c, 0, 40, 0
7, 95040, Note_on_c, 0, 64, 0
7, 95040, Note_on_c, 0, 55, 0
7, 95040, Note_on_c, 0, 45, 0
7, 95040, Note_on_c, 0, 59, 0
7, 95040, Note_on_c, 0, 41, 100
7, 95051, Pitch_bend_c, 0, 8192
7, 95065, Pitch_bend_c, 0, 8320
7, 95084, Pitch_bend_c, 0, 8448
7, 95099, Pitch_bend_c, 0, 8576
7, 95118, Pitch_bend_c, 0, 8704
7, 95132, Pitch_bend_c, 0, 8832
7, 95152, Pitch_bend_c, 0, 8960
7, 95166, Pitch_bend_c, 0, 9088
7, 95185, Pitch_bend_c, 0, 9216
7, 95200, Pitch_bend_c, 0, 9344
7, 95219, Pitch_bend_c, 0, 9472
7, 95233, Pitch_bend_c, 0, 9600
7, 95252, Pitch_bend_c, 0, 9728
7, 95267, Pitch_bend_c, 0, 9856
7, 95272, Pitch_bend_c, 0, 8192
7, 95280, Note_on_c, 0, 41, 0
7, 95280, Note_on_c, 0, 41, 100
7, 95291, Pitch_bend_c, 0, 8320
7, 95305, Pitch_bend_c, 0, 8448
7, 95324, Pitch_bend_c, 0, 8576
7, 95339, Pitch_bend_c, 0, 8704
7, 95358, Pitch_bend_c, 0, 8832
7, 95372, Pitch_bend_c, 0, 8960
7, 95392, Pitch_bend_c, 0, 9088
7, 95406, Pitch_bend_c, 0, 9216
7, 95425, Pitch_bend_c, 0, 9344
7, 95440, Pitch_bend_c, 0, 9472
7, 95459, Pitch_bend_c, 0, 9600
7, 95473, Pitch_bend_c, 0, 9728
7, 95492, Pitch_bend_c, 0, 9856
7, 95507, Pitch_bend_c, 0, 9984
7, 95512, Pitch_bend_c, 0, 8320
7, 95516, Pitch_bend_c, 0, 8448
7, 95520, Note_on_c, 0, 41, 0
7, 95520, Note_on_c, 0, 50, 100
7, 95520, Note_on_c, 0, 64, 100
7, 95520, Note_on_c, 0, 55, 100
7, 95520, Note_on_c, 0, 40, 100
7, 95520, Note_on_c, 0, 59, 100
7, 95520, Note_on_c, 0, 45, 100
7, 95521, Pitch_bend_c, 0, 8576
7, 95526, Pitch_bend_c, 0, 8704
7, 95531, Pitch_bend_c, 0, 8960
7, 95536, Pitch_bend_c, 0, 9088
7, 95540, Pitch_bend_c, 0, 9216
7, 95545, Pitch_bend_c, 0, 9472
7, 95550, Pitch_bend_c, 0, 9600
7, 95555, Pitch_bend_c, 0, 9728
7, 95560, Pitch_bend_c, 0, 9856
7, 95564, Pitch_bend_c, 0, 10112
7, 95569, Pitch_bend_c, 0, 10240
7, 95574, Pitch_bend_c, 0, 10368
7, 95579, Pitch_bend_c, 0, 10624
7, 95584, Pitch_bend_c, 0, 10752
7, 95588, Pitch_bend_c, 0, 10880
7, 95593, Pitch_bend_c, 0, 11008
7, 95598, Pitch_bend_c, 0, 11264
7, 95603, Pitch_bend_c, 0, 11392
7, 95608, Pitch_bend_c, 0, 11520
7, 95612, Pitch_bend_c, 0, 11776
7, 95617, Pitch_bend_c, 0, 11904
7, 95622, Pitch_bend_c, 0, 12032
7, 95627, Pitch_bend_c, 0, 12160
7, 95632, Pitch_bend_c, 0, 12416
7, 95636, Pitch_bend_c, 0, 12544
7, 95641, Pitch_bend_c, 0, 12672
7, 95646, Pitch_bend_c, 0, 12928
7, 95651, Pitch_bend_c, 0, 13056
7, 95656, Pitch_bend_c, 0, 13184
7, 95660, Pitch_bend_c, 0, 13312
7, 95665, Pitch_bend_c, 0, 13568
7, 95670, Pitch_bend_c, 0, 13696
7, 95675, Pitch_bend_c, 0, 13824
7, 95680, Pitch_bend_c, 0, 14080
7, 95684, Pitch_bend_c, 0, 14208
7, 95689, Pitch_bend_c, 0, 14336
7, 95694, Pitch_bend_c, 0, 14464
7, 95699, Pitch_bend_c, 0, 14720
7, 95704, Pitch_bend_c, 0, 14848
7, 95708, Pitch_bend_c, 0, 14976
7, 95713, Pitch_bend_c, 0, 15232
7, 95718, Pitch_bend_c, 0, 15360
7, 95723, Pitch_bend_c, 0, 15488
7, 95728, Pitch_bend_c, 0, 15616
7, 95732, Pitch_bend_c, 0, 15872
7, 95737, Pitch_bend_c, 0, 16000
7, 95742, Pitch_bend_c, 0, 16128
7, 95747, Pitch_bend_c, 0, 16383
7, 95752, Pitch_bend_c, 0, 8192
7, 95756, Pitch_bend_c, 0, 8320
7, 95760, Note_on_c, 0, 45, 0
7, 95760, Note_on_c, 0, 64, 0
7, 95760, Note_on_c, 0, 55, 0
7, 95760, Note_on_c, 0, 50, 0
7, 95760, Note_on_c, 0, 59, 0
7, 95760, Note_on_c, 0, 40, 0
7, 95760, Note_on_c, 0, 40, 100
7, 95760, Note_on_c, 0, 55, 100
7, 95760, Note_on_c, 0, 45, 100
7, 95760, Note_on_c, 0, 59, 100
7, 95760, Note_on_c, 0, 64, 100
7, 95760, Note_on_c, 0, 50, 100
7, 95761, Pitch_bend_c, 0, 8448
7, 95766, Pitch_bend_c, 0, 8576
7, 95771, Pitch_bend_c, 0, 8832
7, 95776, Pitch_bend_c, 0, 8960
7, 95780, Pitch_bend_c, 0, 9088
7, 95785, Pitch_bend_c, 0, 9344
7, 95790, Pitch_bend_c, 0, 9472
7, 95795, Pitch_bend_c, 0, 9600
7, 95800, Pitch_bend_c, 0, 9856
7, 95804, Pitch_bend_c, 0, 9984
7, 95809, Pitch_bend_c, 0, 10112
7, 95814, Pitch_bend_c, 0, 10240
7, 95819, Pitch_bend_c, 0, 10496
7, 95824, Pitch_bend_c, 0, 10624
7, 95828, Pitch_bend_c, 0, 10752
7, 95833, Pitch_bend_c, 0, 11008
7, 95838, Pitch_bend_c, 0, 11136
7, 95843, Pitch_bend_c, 0, 11264
7, 95848, Pitch_bend_c, 0, 11520
7, 95852, Pitch_bend_c, 0, 11648
7, 95857, Pitch_bend_c, 0, 11776
7, 95862, Pitch_bend_c, 0, 12032
7, 95867, Pitch_bend_c, 0, 12160
7, 95872, Pitch_bend_c, 0, 12288
7, 95876, Pitch_bend_c, 0, 12416
7, 95881, Pitch_bend_c, 0, 12672
7, 95886, Pitch_bend_c, 0, 12800
7, 95891, Pitch_bend_c, 0, 12928
7, 95896, Pitch_bend_c, 0, 13184
7, 95900, Pitch_bend_c, 0, 13312
7, 95905, Pitch_bend_c, 0, 13440
7, 95910, Pitch_bend_c, 0, 13696
7, 95915, Pitch_bend_c, 0, 13824
7, 95920, Pitch_bend_c, 0, 13952
7, 95924, Pitch_bend_c, 0, 14208
7, 95929, Pitch_bend_c, 0, 14336
7, 95934, Pitch_bend_c, 0, 14464
7, 95939, Pitch_bend_c, 0, 14592
7, 95944, Pitch_bend_c, 0, 14848
7, 95948, Pitch_bend_c, 0, 14976
7, 95953, Pitch_bend_c, 0, 15104
7, 95958, Pitch_bend_c, 0, 15360
7, 95963, Pitch_bend_c, 0, 15488
7, 95968, Pitch_bend_c, 0, 15616
7, 95972, Pitch_bend_c, 0, 15872
7, 95977, Pitch_bend_c, 0, 16000
7, 95982, Pitch_bend_c, 0, 16128
7, 95987, Pitch_bend_c, 0, 16383
7, 95995, Pitch_bend_c, 0, 8192
7, 96000, Note_on_c, 0, 50, 0
7, 96000, Note_on_c, 0, 55, 0
7, 96000, Note_on_c, 0, 45, 0
7, 96000, Note_on_c, 0, 40, 0
7, 96000, Note_on_c, 0, 64, 0
7, 96000, Note_on_c, 0, 59, 0
7, 126720, Note_on_c, 0, 42, 100
7, 127920, Note_on_c, 0, 42, 0
7, 127920, Note_on_c, 0, 38, 100
7, 128400, Note_on_c, 0, 38, 0
7, 128400, Note_on_c, 0, 35, 100
7, 130560, Note_on_c, 0, 35, 0
7, 130560, Note_on_c, 0, 42, 100
7, 131760, Note_on_c, 0, 42, 0
7, 131760, Note_on_c, 0, 38, 100
7, 132240, Note_on_c, 0, 38, 0
7, 132240, Note_on_c, 0, 35, 100
7, 134400, Note_on_c, 0, 35, 0
7, 134400, Note_on_c, 0, 42, 100
7, 135600, Note_on_c, 0, 42, 0
7, 135600, Note_on_c, 0, 38, 100
7, 136080, Note_on_c, 0, 38, 0
7, 136080, Note_on_c, 0, 35, 100
7, 138240, Note_on_c, 0, 35, 0
7, 138240, Note_on_c, 0, 42, 100
7, 139440, Note_on_c, 0, 42, 0
7, 139440, Note_on_c, 0, 38, 100
7, 139920, Note_on_c, 0, 38, 0
7, 139920, Note_on_c, 0, 35, 100
7, 142080, Note_on_c, 0, 35, 0
7, 168960, Control_c, 0, 7, 9
7, 168960, Note_on_c, 0, 42, 100
7, 169017, Control_c, 0, 7, 10
7, 169075, Control_c, 0, 7, 11
7, 169128, Control_c, 0, 7, 12
7, 169185, Control_c, 0, 7, 13
7, 169238, Control_c, 0, 7, 14
7, 169296, Control_c, 0, 7, 15
7, 169348, Control_c, 0, 7, 16
7, 169406, Control_c, 0, 7, 17
7, 169459, Control_c, 0, 7, 18
7, 169516, Control_c, 0, 7, 19
7, 169569, Control_c, 0, 7, 20
7, 169627, Control_c, 0, 7, 21
7, 169680, Control_c, 0, 7, 22
7, 169737, Control_c, 0, 7, 23
7, 169790, Control_c, 0, 7, 24
7, 169848, Control_c, 0, 7, 25
7, 169900, Control_c, 0, 7, 26
7, 169958, Control_c, 0, 7, 27
7, 170011, Control_c, 0, 7, 28
7, 170068, Control_c, 0, 7, 29
7, 170126, Control_c, 0, 7, 30
7, 170160, Note_on_c, 0, 42, 0
7, 170160, Note_on_c, 0, 38, 100
7, 170179, Control_c, 0, 7, 31
7, 170236, Control_c, 0, 7, 32
7, 170289, Control_c, 0, 7, 33
7, 170347, Control_c, 0, 7, 34
7, 170400, Control_c, 0, 7, 35
7, 170457, Control_c, 0, 7, 36
7, 170510, Control_c, 0, 7, 37
7, 170568, Control_c, 0, 7, 38
7, 170620, Control_c, 0, 7, 39
7, 170640, Note_on_c, 0, 38, 0
7, 170640, Note_on_c, 0, 35, 100
7, 170678, Control_c, 0, 7, 40
7, 170731, Control_c, 0, 7, 41
7, 170788, Control_c, 0, 7, 42
7, 170841, Control_c, 0, 7, 43
7, 170899, Control_c, 0, 7, 44
7, 170952, Control_c, 0, 7, 45
7, 171009, Control_c, 0, 7, 46
7, 171062, Control_c, 0, 7, 47
7, 171120, Control_c, 0, 7, 48
7, 171172, Control_c, 0, 7, 49
7, 171230, Control_c, 0, 7, 50
7, 171288, Control_c, 0, 7, 51
7, 171340, Control_c, 0, 7, 52
7, 171398, Control_c, 0, 7, 53
7, 171451, Control_c, 0, 7, 54
7, 171508, Control_c, 0, 7, 55
7, 171561, Control_c, 0, 7, 56
7, 171619, Control_c, 0, 7, 57
7, 171672, Control_c, 0, 7, 58
7, 171729, Control_c, 0, 7, 59
7, 171782, Control_c, 0, 7, 60
7, 171840, Control_c, 0, 7, 61
7, 171892, Control_c, 0, 7, 62
7, 171950, Control_c, 0, 7, 63
7, 172003, Control_c, 0, 7, 64
7, 172060, Control_c, 0, 7, 65
7, 172113, Control_c, 0, 7, 66
7, 172171, Control_c, 0, 7, 67
7, 172224, Control_c, 0, 7, 68
7, 172281, Control_c, 0, 7, 69
7, 172334, Control_c, 0, 7, 70
7, 172800, Note_on_c, 0, 35, 0
7, 172800, Note_on_c, 0, 42, 100
7, 174000, Note_on_c, 0, 42, 0
7, 174000, Note_on_c, 0, 38, 100
7, 174480, Note_on_c, 0, 38, 0
7, 174480, Note_on_c, 0, 35, 100
7, 176640, Note_on_c, 0, 35, 0
7, 176640, Note_on_c, 0, 42, 100
7, 177840, Note_on_c, 0, 42, 0
7, 177840, Note_on_c, 0, 38, 100
7, 178320, Note_on_c, 0, 38, 0
7, 178320, Note_on_c, 0, 35, 100
7, 180480, Note_on_c, 0, 35, 0
7, 180480, Note_on_c, 0, 42, 100
7, 181680, Note_on_c, 0, 42, 0
7, 181680, Note_on_c, 0, 38, 100
7, 182160, Note_on_c, 0, 38, 0
7, 182160, Note_on_c, 0, 35, 100
7, 184320, Note_on_c, 0, 35, 0
7, 184320, End_track
8, 0, Start_track
8, 0, MIDI_port, 0
8, 0, Title_t, "Guitar 2 - muted riff (verse) - Graham Coxon"
8, 0, Program_c, 2, 28
8, 0, Control_c, 2, 7, 110
8, 0, Control_c, 2, 10, 96
8, 0, Program_c, 2, 28
8, 3840, Note_on_c, 2, 40, 127
8, 4080, Note_on_c, 2, 40, 0
8, 4080, Note_on_c, 2, 42, 127
8, 4320, Note_on_c, 2, 42, 0
8, 4320, Note_on_c, 2, 42, 127
8, 4560, Note_on_c, 2, 42, 0
8, 4680, Note_on_c, 2, 42, 127
8, 4800, Note_on_c, 2, 42, 0
8, 4800, Note_on_c, 2, 49, 127
8, 4920, Note_on_c, 2, 49, 0
8, 4920, Note_on_c, 2, 42, 127
8, 5040, Note_on_c, 2, 42, 0
8, 5040, Note_on_c, 2, 42, 127
8, 5280, Note_on_c, 2, 42, 0
8, 5280, Note_on_c, 2, 42, 127
8, 5760, Note_on_c, 2, 42, 0
8, 5760, Note_on_c, 2, 45, 127
8, 6000, Note_on_c, 2, 45, 0
8, 6000, Note_on_c, 2, 47, 127
8, 6240, Note_on_c, 2, 47, 0
8, 6240, Note_on_c, 2, 47, 127
8, 6480, Note_on_c, 2, 47, 0
8, 6600, Note_on_c, 2, 45, 127
8, 6840, Note_on_c, 2, 45, 0
8, 6840, Note_on_c, 2, 47, 127
8, 6960, Note_on_c, 2, 47, 0
8, 6960, Note_on_c, 2, 47, 127
8, 7200, Note_on_c, 2, 47, 0
8, 7200, Note_on_c, 2, 47, 127
8, 7680, Note_on_c, 2, 47, 0
8, 7680, Note_on_c, 2, 40, 127
8, 7920, Note_on_c, 2, 40, 0
8, 7920, Note_on_c, 2, 42, 127
8, 8160, Note_on_c, 2, 42, 0
8, 8160, Note_on_c, 2, 42, 127
8, 8400, Note_on_c, 2, 42, 0
8, 8520, Note_on_c, 2, 42, 127
8, 8640, Note_on_c, 2, 42, 0
8, 8640, Note_on_c, 2, 49, 127
8, 8760, Note_on_c, 2, 49, 0
8, 8760, Note_on_c, 2, 42, 127
8, 8880, Note_on_c, 2, 42, 0
8, 8880, Note_on_c, 2, 42, 127
8, 9120, Note_on_c, 2, 42, 0
8, 9120, Note_on_c, 2, 42, 127
8, 9600, Note_on_c, 2, 42, 0
8, 9600, Note_on_c, 2, 45, 127
8, 9840, Note_on_c, 2, 45, 0
8, 9840, Note_on_c, 2, 47, 127
8, 10080, Note_on_c, 2, 47, 0
8, 10080, Note_on_c, 2, 47, 127
8, 10320, Note_on_c, 2, 47, 0
8, 10440, Note_on_c, 2, 45, 127
8, 10560, Note_on_c, 2, 45, 0
8, 10560, Note_on_c, 2, 45, 127
8, 10680, Note_on_c, 2, 45, 0
8, 10680, Note_on_c, 2, 47, 127
8, 10800, Note_on_c, 2, 47, 0
8, 10800, Note_on_c, 2, 47, 127
8, 11040, Note_on_c, 2, 47, 0
8, 11040, Note_on_c, 2, 47, 127
8, 11520, Note_on_c, 2, 47, 0
8, 11520, Note_on_c, 2, 40, 127
8, 11760, Note_on_c, 2, 40, 0
8, 11760, Note_on_c, 2, 42, 127
8, 12000, Note_on_c, 2, 42, 0
8, 12000, Note_on_c, 2, 42, 127
8, 12240, Note_on_c, 2, 42, 0
8, 12360, Note_on_c, 2, 42, 127
8, 12480, Note_on_c, 2, 42, 0
8, 12480, Note_on_c, 2, 49, 127
8, 12600, Note_on_c, 2, 49, 0
8, 12600, Note_on_c, 2, 42, 127
8, 12720, Note_on_c, 2, 42, 0
8, 12720, Note_on_c, 2, 42, 127
8, 12960, Note_on_c, 2, 42, 0
8, 12960, Note_on_c, 2, 42, 127
8, 13440, Note_on_c, 2, 42, 0
8, 13440, Note_on_c, 2, 45, 127
8, 13680, Note_on_c, 2, 45, 0
8, 13680, Note_on_c, 2, 47, 127
8, 13920, Note_on_c, 2, 47, 0
8, 13920, Note_on_c, 2, 47, 127
8, 14160, Note_on_c, 2, 47, 0
8, 14280, Note_on_c, 2, 45, 127
8, 14400, Note_on_c, 2, 45, 0
8, 14400, Note_on_c, 2, 45, 127
8, 14520, Note_on_c, 2, 45, 0
8, 14520, Note_on_c, 2, 47, 127
8, 14640, Note_on_c, 2, 47, 0
8, 14640, Note_on_c, 2, 47, 127
8, 14880, Note_on_c, 2, 47, 0
8, 14880, Note_on_c, 2, 47, 127
8, 15360, Note_on_c, 2, 47, 0
8, 15360, Note_on_c, 2, 40, 127
8, 15600, Note_on_c, 2, 40, 0
8, 15600, Note_on_c, 2, 42, 127
8, 15840, Note_on_c, 2, 42, 0
8, 15840, Note_on_c, 2, 42, 127
8, 16080, Note_on_c, 2, 42, 0
8, 16200, Note_on_c, 2, 42, 127
8, 16320, Note_on_c, 2, 42, 0
8, 16320, Note_on_c, 2, 49, 127
8, 16440, Note_on_c, 2, 49, 0
8, 16440, Note_on_c, 2, 42, 127
8, 16560, Note_on_c, 2, 42, 0
8, 16560, Note_on_c, 2, 42, 127
8, 16800, Note_on_c, 2, 42, 0
8, 16800, Note_on_c, 2, 42, 127
8, 17280, Note_on_c, 2, 42, 0
8, 17280, Note_on_c, 2, 45, 127
8, 17520, Note_on_c, 2, 45, 0
8, 17520, Note_on_c, 2, 47, 127
8, 17760, Note_on_c, 2, 47, 0
8, 17760, Note_on_c, 2, 47, 127
8, 18000, Note_on_c, 2, 47, 0
8, 18120, Note_on_c, 2, 45, 127
8, 18240, Note_on_c, 2, 45, 0
8, 18240, Note_on_c, 2, 45, 127
8, 18360, Note_on_c, 2, 45, 0
8, 18360, Note_on_c, 2, 47, 127
8, 18480, Note_on_c, 2, 47, 0
8, 18480, Note_on_c, 2, 47, 127
8, 18720, Note_on_c, 2, 47, 0
8, 18720, Note_on_c, 2, 47, 127
8, 19200, Note_on_c, 2, 47, 0
8, 19200, Note_on_c, 2, 40, 127
8, 19440, Note_on_c, 2, 40, 0
8, 19440, Note_on_c, 2, 42, 127
8, 19680, Note_on_c, 2, 42, 0
8, 19680, Note_on_c, 2, 42, 127
8, 19920, Note_on_c, 2, 42, 0
8, 20040, Note_on_c, 2, 42, 127
8, 20160, Note_on_c, 2, 42, 0
8, 20160, Note_on_c, 2, 49, 127
8, 20280, Note_on_c, 2, 49, 0
8, 20280, Note_on_c, 2, 42, 127
8, 20400, Note_on_c, 2, 42, 0
8, 20400, Note_on_c, 2, 42, 127
8, 20640, Note_on_c, 2, 42, 0
8, 20640, Note_on_c, 2, 42, 127
8, 21120, Note_on_c, 2, 42, 0
8, 21120, Note_on_c, 2, 45, 127
8, 21360, Note_on_c, 2, 45, 0
8, 21360, Note_on_c, 2, 47, 127
8, 21600, Note_on_c, 2, 47, 0
8, 21600, Note_on_c, 2, 47, 127
8, 21840, Note_on_c, 2, 47, 0
8, 21960, Note_on_c, 2, 45, 127
8, 22200, Note_on_c, 2, 45, 0
8, 22200, Note_on_c, 2, 47, 127
8, 22320, Note_on_c, 2, 47, 0
8, 22320, Note_on_c, 2, 47, 127
8, 22560, Note_on_c, 2, 47, 0
8, 22560, Note_on_c, 2, 47, 127
8, 23040, Note_on_c, 2, 47, 0
8, 23040, Note_on_c, 2, 40, 127
8, 23280, Note_on_c, 2, 40, 0
8, 23280, Note_on_c, 2, 42, 127
8, 23520, Note_on_c, 2, 42, 0
8, 23520, Note_on_c, 2, 42, 127
8, 23760, Note_on_c, 2, 42, 0
8, 23880, Note_on_c, 2, 42, 127
8, 24000, Note_on_c, 2, 42, 0
8, 24000, Note_on_c, 2, 49, 127
8, 24120, Note_on_c, 2, 49, 0
8, 24120, Note_on_c, 2, 42, 127
8, 24240, Note_on_c, 2, 42, 0
8, 24240, Note_on_c, 2, 42, 127
8, 24480, Note_on_c, 2, 42, 0
8, 24480, Note_on_c, 2, 42, 127
8, 24960, Note_on_c, 2, 42, 0
8, 24960, Note_on_c, 2, 45, 127
8, 25200, Note_on_c, 2, 45, 0
8, 25200, Note_on_c, 2, 47, 127
8, 25440, Note_on_c, 2, 47, 0
8, 25440, Note_on_c, 2, 47, 127
8, 25680, Note_on_c, 2, 47, 0
8, 25800, Note_on_c, 2, 45, 127
8, 25920, Note_on_c, 2, 45, 0
8, 25920, Note_on_c, 2, 45, 127
8, 26040, Note_on_c, 2, 45, 0
8, 26040, Note_on_c, 2, 47, 127
8, 26160, Note_on_c, 2, 47, 0
8, 26160, Note_on_c, 2, 47, 127
8, 26400, Note_on_c, 2, 47, 0
8, 26400, Note_on_c, 2, 47, 127
8, 26880, Note_on_c, 2, 47, 0
8, 26880, Note_on_c, 2, 40, 127
8, 27120, Note_on_c, 2, 40, 0
8, 27120, Note_on_c, 2, 42, 127
8, 27360, Note_on_c, 2, 42, 0
8, 27360, Note_on_c, 2, 42, 127
8, 27600, Note_on_c, 2, 42, 0
8, 27720, Note_on_c, 2, 42, 127
8, 27840, Note_on_c, 2, 42, 0
8, 27840, Note_on_c, 2, 49, 127
8, 27960, Note_on_c, 2, 49, 0
8, 27960, Note_on_c, 2, 42, 127
8, 28080, Note_on_c, 2, 42, 0
8, 28080, Note_on_c, 2, 42, 127
8, 28320, Note_on_c, 2, 42, 0
8, 28320, Note_on_c, 2, 42, 127
8, 28800, Note_on_c, 2, 42, 0
8, 28800, Note_on_c, 2, 45, 127
8, 29040, Note_on_c, 2, 45, 0
8, 29040, Note_on_c, 2, 47, 127
8, 29280, Note_on_c, 2, 47, 0
8, 29280, Note_on_c, 2, 47, 127
8, 29520, Note_on_c, 2, 47, 0
8, 29640, Note_on_c, 2, 45, 127
8, 29760, Note_on_c, 2, 45, 0
8, 29760, Note_on_c, 2, 45, 127
8, 29880, Note_on_c, 2, 45, 0
8, 29880, Note_on_c, 2, 47, 127
8, 30000, Note_on_c, 2, 47, 0
8, 30000, Note_on_c, 2, 47, 127
8, 30240, Note_on_c, 2, 47, 0
8, 30240, Note_on_c, 2, 47, 127
8, 30720, Note_on_c, 2, 47, 0
8, 30720, Note_on_c, 2, 40, 127
8, 30960, Note_on_c, 2, 40, 0
8, 30960, Note_on_c, 2, 42, 127
8, 31200, Note_on_c, 2, 42, 0
8, 31200, Note_on_c, 2, 42, 127
8, 31440, Note_on_c, 2, 42, 0
8, 31560, Note_on_c, 2, 42, 127
8, 31680, Note_on_c, 2, 42, 0
8, 31680, Note_on_c, 2, 49, 127
8, 31800, Note_on_c, 2, 49, 0
8, 31800, Note_on_c, 2, 42, 127
8, 31920, Note_on_c, 2, 42, 0
8, 31920, Note_on_c, 2, 42, 127
8, 32160, Note_on_c, 2, 42, 0
8, 32160, Note_on_c, 2, 42, 127
8, 32640, Note_on_c, 2, 42, 0
8, 32640, Note_on_c, 2, 45, 127
8, 32880, Note_on_c, 2, 45, 0
8, 32880, Note_on_c, 2, 47, 127
8, 33120, Note_on_c, 2, 47, 0
8, 33120, Note_on_c, 2, 47, 127
8, 33360, Note_on_c, 2, 47, 0
8, 33480, Note_on_c, 2, 45, 127
8, 33600, Note_on_c, 2, 45, 0
8, 33600, Note_on_c, 2, 45, 127
8, 33720, Note_on_c, 2, 45, 0
8, 33720, Note_on_c, 2, 47, 127
8, 33840, Note_on_c, 2, 47, 0
8, 33840, Note_on_c, 2, 47, 127
8, 34080, Note_on_c, 2, 47, 0
8, 34080, Note_on_c, 2, 47, 127
8, 34560, Note_on_c, 2, 47, 0
8, 53760, Note_on_c, 2, 40, 127
8, 54000, Note_on_c, 2, 40, 0
8, 54000, Note_on_c, 2, 42, 127
8, 54240, Note_on_c, 2, 42, 0
8, 54240, Note_on_c, 2, 42, 127
8, 54480, Note_on_c, 2, 42, 0
8, 54600, Note_on_c, 2, 42, 127
8, 54720, Note_on_c, 2, 42, 0
8, 54720, Note_on_c, 2, 49, 127
8, 54840, Note_on_c, 2, 49, 0
8, 54840, Note_on_c, 2, 42, 127
8, 54960, Note_on_c, 2, 42, 0
8, 54960, Note_on_c, 2, 42, 127
8, 55200, Note_on_c, 2, 42, 0
8, 55200, Note_on_c, 2, 42, 127
8, 55680, Note_on_c, 2, 42, 0
8, 55680, Note_on_c, 2, 45, 127
8, 55920, Note_on_c, 2, 45, 0
8, 55920, Note_on_c, 2, 47, 127
8, 56160, Note_on_c, 2, 47, 0
8, 56160, Note_on_c, 2, 47, 127
8, 56400, Note_on_c, 2, 47, 0
8, 56520, Note_on_c, 2, 45, 127
8, 56760, Note_on_c, 2, 45, 0
8, 56760, Note_on_c, 2, 47, 127
8, 56880, Note_on_c, 2, 47, 0
8, 56880, Note_on_c, 2, 47, 127
8, 57120, Note_on_c, 2, 47, 0
8, 57120, Note_on_c, 2, 47, 127
8, 57600, Note_on_c, 2, 47, 0
8, 57600, Note_on_c, 2, 40, 127
8, 57840, Note_on_c, 2, 40, 0
8, 57840, Note_on_c, 2, 42, 127
8, 58080, Note_on_c, 2, 42, 0
8, 58080, Note_on_c, 2, 42, 127
8, 58320, Note_on_c, 2, 42, 0
8, 58440, Note_on_c, 2, 42, 127
8, 58560, Note_on_c, 2, 42, 0
8, 58560, Note_on_c, 2, 49, 127
8, 58680, Note_on_c, 2, 49, 0
8, 58680, Note_on_c, 2, 42, 127
8, 58800, Note_on_c, 2, 42, 0
8, 58800, Note_on_c, 2, 42, 127
8, 59040, Note_on_c, 2, 42, 0
8, 59040, Note_on_c, 2, 42, 127
8, 59520, Note_on_c, 2, 42, 0
8, 59520, Note_on_c, 2, 45, 127
8, 59760, Note_on_c, 2, 45, 0
8, 59760, Note_on_c, 2, 47, 127
8, 60000, Note_on_c, 2, 47, 0
8, 60000, Note_on_c, 2, 47, 127
8, 60240, Note_on_c, 2, 47, 0
8, 60360, Note_on_c, 2, 45, 127
8, 60480, Note_on_c, 2, 45, 0
8, 60480, Note_on_c, 2, 45, 127
8, 60600, Note_on_c, 2, 45, 0
8, 60600, Note_on_c, 2, 47, 127
8, 60720, Note_on_c, 2, 47, 0
8, 60720, Note_on_c, 2, 47, 127
8, 60960, Note_on_c, 2, 47, 0
8, 60960, Note_on_c, 2, 47, 127
8, 61440, Note_on_c, 2, 47, 0
8, 61440, Note_on_c, 2, 40, 127
8, 61680, Note_on_c, 2, 40, 0
8, 61680, Note_on_c, 2, 42, 127
8, 61920, Note_on_c, 2, 42, 0
8, 61920, Note_on_c, 2, 42, 127
8, 62160, Note_on_c, 2, 42, 0
8, 62280, Note_on_c, 2, 42, 127
8, 62400, Note_on_c, 2, 42, 0
8, 62400, Note_on_c, 2, 49, 127
8, 62520, Note_on_c, 2, 49, 0
8, 62520, Note_on_c, 2, 42, 127
8, 62640, Note_on_c, 2, 42, 0
8, 62640, Note_on_c, 2, 42, 127
8, 62880, Note_on_c, 2, 42, 0
8, 62880, Note_on_c, 2, 42, 127
8, 63360, Note_on_c, 2, 42, 0
8, 63360, Note_on_c, 2, 45, 127
8, 63600, Note_on_c, 2, 45, 0
8, 63600, Note_on_c, 2, 47, 127
8, 63840, Note_on_c, 2, 47, 0
8, 63840, Note_on_c, 2, 47, 127
8, 64080, Note_on_c, 2, 47, 0
8, 64200, Note_on_c, 2, 45, 127
8, 64440, Note_on_c, 2, 45, 0
8, 64440, Note_on_c, 2, 47, 127
8, 64560, Note_on_c, 2, 47, 0
8, 64560, Note_on_c, 2, 47, 127
8, 64800, Note_on_c, 2, 47, 0
8, 64800, Note_on_c, 2, 47, 127
8, 65280, Note_on_c, 2, 47, 0
8, 65280, Note_on_c, 2, 40, 127
8, 65520, Note_on_c, 2, 40, 0
8, 65520, Note_on_c, 2, 42, 127
8, 65760, Note_on_c, 2, 42, 0
8, 65760, Note_on_c, 2, 42, 127
8, 66000, Note_on_c, 2, 42, 0
8, 66120, Note_on_c, 2, 42, 127
8, 66240, Note_on_c, 2, 42, 0
8, 66240, Note_on_c, 2, 49, 127
8, 66360, Note_on_c, 2, 49, 0
8, 66360, Note_on_c, 2, 42, 127
8, 66480, Note_on_c, 2, 42, 0
8, 66480, Note_on_c, 2, 42, 127
8, 66720, Note_on_c, 2, 42, 0
8, 66720, Note_on_c, 2, 42, 127
8, 67200, Note_on_c, 2, 42, 0
8, 67200, Note_on_c, 2, 45, 127
8, 67440, Note_on_c, 2, 45, 0
8, 67440, Note_on_c, 2, 47, 127
8, 67680, Note_on_c, 2, 47, 0
8, 67680, Note_on_c, 2, 47, 127
8, 67920, Note_on_c, 2, 47, 0
8, 68040, Note_on_c, 2, 45, 127
8, 68160, Note_on_c, 2, 45, 0
8, 68160, Note_on_c, 2, 45, 127
8, 68280, Note_on_c, 2, 45, 0
8, 68280, Note_on_c, 2, 47, 127
8, 68400, Note_on_c, 2, 47, 0
8, 68400, Note_on_c, 2, 47, 127
8, 68640, Note_on_c, 2, 47, 0
8, 68640, Note_on_c, 2, 47, 127
8, 69120, Note_on_c, 2, 47, 0
8, 69120, Note_on_c, 2, 40, 127
8, 69360, Note_on_c, 2, 40, 0
8, 69360, Note_on_c, 2, 42, 127
8, 69600, Note_on_c, 2, 42, 0
8, 69600, Note_on_c, 2, 42, 127
8, 69840, Note_on_c, 2, 42, 0
8, 69960, Note_on_c, 2, 42, 127
8, 70080, Note_on_c, 2, 42, 0
8, 70080, Note_on_c, 2, 49, 127
8, 70200, Note_on_c, 2, 49, 0
8, 70200, Note_on_c, 2, 42, 127
8, 70320, Note_on_c, 2, 42, 0
8, 70320, Note_on_c, 2, 42, 127
8, 70560, Note_on_c, 2, 42, 0
8, 70560, Note_on_c, 2, 42, 127
8, 71040, Note_on_c, 2, 42, 0
8, 71040, Note_on_c, 2, 45, 127
8, 71280, Note_on_c, 2, 45, 0
8, 71280, Note_on_c, 2, 47, 127
8, 71520, Note_on_c, 2, 47, 0
8, 71520, Note_on_c, 2, 47, 127
8, 71760, Note_on_c, 2, 47, 0
8, 71880, Note_on_c, 2, 45, 127
8, 72000, Note_on_c, 2, 45, 0
8, 72000, Note_on_c, 2, 45, 127
8, 72120, Note_on_c, 2, 45, 0
8, 72120, Note_on_c, 2, 47, 127
8, 72240, Note_on_c, 2, 47, 0
8, 72240, Note_on_c, 2, 47, 127
8, 72480, Note_on_c, 2, 47, 0
8, 72480, Note_on_c, 2, 47, 127
8, 72960, Note_on_c, 2, 47, 0
8, 72960, Note_on_c, 2, 40, 127
8, 73200, Note_on_c, 2, 40, 0
8, 73200, Note_on_c, 2, 42, 127
8, 73440, Note_on_c, 2, 42, 0
8, 73440, Note_on_c, 2, 42, 127
8, 73680, Note_on_c, 2, 42, 0
8, 73800, Note_on_c, 2, 42, 127
8, 73920, Note_on_c, 2, 42, 0
8, 73920, Note_on_c, 2, 49, 127
8, 74040, Note_on_c, 2, 49, 0
8, 74040, Note_on_c, 2, 42, 127
8, 74160, Note_on_c, 2, 42, 0
8, 74160, Note_on_c, 2, 42, 127
8, 74400, Note_on_c, 2, 42, 0
8, 74400, Note_on_c, 2, 42, 127
8, 74880, Note_on_c, 2, 42, 0
8, 74880, Note_on_c, 2, 45, 127
8, 75120, Note_on_c, 2, 45, 0
8, 75120, Note_on_c, 2, 47, 127
8, 75360, Note_on_c, 2, 47, 0
8, 75360, Note_on_c, 2, 47, 127
8, 75600, Note_on_c, 2, 47, 0
8, 75720, Note_on_c, 2, 45, 127
8, 75840, Note_on_c, 2, 45, 0
8, 75840, Note_on_c, 2, 45, 127
8, 75960, Note_on_c, 2, 45, 0
8, 75960, Note_on_c, 2, 47, 127
8, 76080, Note_on_c, 2, 47, 0
8, 76080, Note_on_c, 2, 47, 127
8, 76320, Note_on_c, 2, 47, 0
8, 76320, Note_on_c, 2, 47, 127
8, 76800, Note_on_c, 2, 47, 0
8, 96000, Note_on_c, 2, 40, 127
8, 96240, Note_on_c, 2, 40, 0
8, 96240, Note_on_c, 2, 42, 127
8, 96480, Note_on_c, 2, 42, 0
8, 96480, Note_on_c, 2, 42, 127
8, 96720, Note_on_c, 2, 42, 0
8, 96840, Note_on_c, 2, 42, 127
8, 96960, Note_on_c, 2, 42, 0
8, 96960, Note_on_c, 2, 49, 127
8, 97080, Note_on_c, 2, 49, 0
8, 97080, Note_on_c, 2, 42, 127
8, 97200, Note_on_c, 2, 42, 0
8, 97200, Note_on_c, 2, 42, 127
8, 97440, Note_on_c, 2, 42, 0
8, 97440, Note_on_c, 2, 42, 127
8, 97920, Note_on_c, 2, 42, 0
8, 97920, Note_on_c, 2, 45, 127
8, 98160, Note_on_c, 2, 45, 0
8, 98160, Note_on_c, 2, 47, 127
8, 98400, Note_on_c, 2, 47, 0
8, 98400, Note_on_c, 2, 47, 127
8, 98640, Note_on_c, 2, 47, 0
8, 98760, Note_on_c, 2, 45, 127
8, 99000, Note_on_c, 2, 45, 0
8, 99000, Note_on_c, 2, 47, 127
8, 99120, Note_on_c, 2, 47, 0
8, 99120, Note_on_c, 2, 47, 127
8, 99360, Note_on_c, 2, 47, 0
8, 99360, Note_on_c, 2, 47, 127
8, 99840, Note_on_c, 2, 47, 0
8, 99840, Note_on_c, 2, 40, 127
8, 100080, Note_on_c, 2, 40, 0
8, 100080, Note_on_c, 2, 42, 127
8, 100320, Note_on_c, 2, 42, 0
8, 100320, Note_on_c, 2, 42, 127
8, 100560, Note_on_c, 2, 42, 0
8, 100680, Note_on_c, 2, 42, 127
8, 100800, Note_on_c, 2, 42, 0
8, 100800, Note_on_c, 2, 49, 127
8, 100920, Note_on_c, 2, 49, 0
8, 100920, Note_on_c, 2, 42, 127
8, 101040, Note_on_c, 2, 42, 0
8, 101040, Note_on_c, 2, 42, 127
8, 101280, Note_on_c, 2, 42, 0
8, 101280, Note_on_c, 2, 42, 127
8, 101760, Note_on_c, 2, 42, 0
8, 101760, Note_on_c, 2, 45, 127
8, 102000, Note_on_c, 2, 45, 0
8, 102000, Note_on_c, 2, 47, 127
8, 102240, Note_on_c, 2, 47, 0
8, 102240, Note_on_c, 2, 47, 127
8, 102480, Note_on_c, 2, 47, 0
8, 102600, Note_on_c, 2, 45, 127
8, 102720, Note_on_c, 2, 45, 0
8, 102720, Note_on_c, 2, 45, 127
8, 102840, Note_on_c, 2, 45, 0
8, 102840, Note_on_c, 2, 47, 127
8, 102960, Note_on_c, 2, 47, 0
8, 102960, Note_on_c, 2, 47, 127
8, 103200, Note_on_c, 2, 47, 0
8, 103200, Note_on_c, 2, 47, 127
8, 103680, Note_on_c, 2, 47, 0
8, 103680, Note_on_c, 2, 40, 127
8, 103920, Note_on_c, 2, 40, 0
8, 103920, Note_on_c, 2, 42, 127
8, 104160, Note_on_c, 2, 42, 0
8, 104160, Note_on_c, 2, 42, 127
8, 104400, Note_on_c, 2, 42, 0
8, 104520, Note_on_c, 2, 42, 127
8, 104640, Note_on_c, 2, 42, 0
8, 104640, Note_on_c, 2, 49, 127
8, 104760, Note_on_c, 2, 49, 0
8, 104760, Note_on_c, 2, 42, 127
8, 104880, Note_on_c, 2, 42, 0
8, 104880, Note_on_c, 2, 42, 127
8, 105120, Note_on_c, 2, 42, 0
8, 105120, Note_on_c, 2, 42, 127
8, 105600, Note_on_c, 2, 42, 0
8, 105600, Note_on_c, 2, 45, 127
8, 105840, Note_on_c, 2, 45, 0
8, 105840, Note_on_c, 2, 47, 127
8, 106080, Note_on_c, 2, 47, 0
8, 106080, Note_on_c, 2, 47, 127
8, 106320, Note_on_c, 2, 47, 0
8, 106440, Note_on_c, 2, 45, 127
8, 106560, Note_on_c, 2, 45, 0
8, 106560, Note_on_c, 2, 45, 127
8, 106680, Note_on_c, 2, 45, 0
8, 106680, Note_on_c, 2, 47, 127
8, 106800, Note_on_c, 2, 47, 0
8, 106800, Note_on_c, 2, 47, 127
8, 107040, Note_on_c, 2, 47, 0
8, 107040, Note_on_c, 2, 47, 127
8, 107520, Note_on_c, 2, 47, 0
8, 107520, Note_on_c, 2, 40, 127
8, 107760, Note_on_c, 2, 40, 0
8, 107760, Note_on_c, 2, 42, 127
8, 108000, Note_on_c, 2, 42, 0
8, 108000, Note_on_c, 2, 42, 127
8, 108240, Note_on_c, 2, 42, 0
8, 108360, Note_on_c, 2, 42, 127
8, 108480, Note_on_c, 2, 42, 0
8, 108480, Note_on_c, 2, 49, 127
8, 108600, Note_on_c, 2, 49, 0
8, 108600, Note_on_c, 2, 42, 127
8, 108720, Note_on_c, 2, 42, 0
8, 108720, Note_on_c, 2, 42, 127
8, 108960, Note_on_c, 2, 42, 0
8, 108960, Note_on_c, 2, 42, 127
8, 109440, Note_on_c, 2, 42, 0
8, 109440, Note_on_c, 2, 45, 127
8, 109680, Note_on_c, 2, 45, 0
8, 109680, Note_on_c, 2, 47, 127
8, 109920, Note_on_c, 2, 47, 0
8, 109920, Note_on_c, 2, 47, 127
8, 110160, Note_on_c, 2, 47, 0
8, 110280, Note_on_c, 2, 45, 127
8, 110400, Note_on_c, 2, 45, 0
8, 110400, Note_on_c, 2, 45, 127
8, 110520, Note_on_c, 2, 45, 0
8, 110520, Note_on_c, 2, 47, 127
8, 110640, Note_on_c, 2, 47, 0
8, 110640, Note_on_c, 2, 47, 127
8, 110880, Note_on_c, 2, 47, 0
8, 110880, Note_on_c, 2, 47, 127
8, 111360, Note_on_c, 2, 47, 0
8, 126720, Note_on_c, 2, 40, 127
8, 126960, Note_on_c, 2, 40, 0
8, 126960, Note_on_c, 2, 42, 127
8, 127200, Note_on_c, 2, 42, 0
8, 127200, Note_on_c, 2, 42, 127
8, 127440, Note_on_c, 2, 42, 0
8, 127560, Note_on_c, 2, 42, 127
8, 127680, Note_on_c, 2, 42, 0
8, 127680, Note_on_c, 2, 49, 127
8, 127800, Note_on_c, 2, 49, 0
8, 127800, Note_on_c, 2, 42, 127
8, 127920, Note_on_c, 2, 42, 0
8, 127920, Note_on_c, 2, 42, 127
8, 128160, Note_on_c, 2, 42, 0
8, 128160, Note_on_c, 2, 42, 127
8, 128640, Note_on_c, 2, 42, 0
8, 128640, Note_on_c, 2, 45, 127
8, 128880, Note_on_c, 2, 45, 0
8, 128880, Note_on_c, 2, 47, 127
8, 129120, Note_on_c, 2, 47, 0
8, 129120, Note_on_c, 2, 47, 127
8, 129360, Note_on_c, 2, 47, 0
8, 129480, Note_on_c, 2, 45, 127
8, 129720, Note_on_c, 2, 45, 0
8, 129720, Note_on_c, 2, 47, 127
8, 129840, Note_on_c, 2, 47, 0
8, 129840, Note_on_c, 2, 47, 127
8, 130080, Note_on_c, 2, 47, 0
8, 130080, Note_on_c, 2, 47, 127
8, 130560, Note_on_c, 2, 47, 0
8, 130560, Note_on_c, 2, 40, 127
8, 130800, Note_on_c, 2, 40, 0
8, 130800, Note_on_c, 2, 42, 127
8, 131040, Note_on_c, 2, 42, 0
8, 131040, Note_on_c, 2, 42, 127
8, 131280, Note_on_c, 2, 42, 0
8, 131400, Note_on_c, 2, 42, 127
8, 131520, Note_on_c, 2, 42, 0
8, 131520, Note_on_c, 2, 49, 127
8, 131640, Note_on_c, 2, 49, 0
8, 131640, Note_on_c, 2, 42, 127
8, 131760, Note_on_c, 2, 42, 0
8, 131760, Note_on_c, 2, 42, 127
8, 132000, Note_on_c, 2, 42, 0
8, 132000, Note_on_c, 2, 42, 127
8, 132480, Note_on_c, 2, 42, 0
8, 132480, Note_on_c, 2, 45, 127
8, 132720, Note_on_c, 2, 45, 0
8, 132720, Note_on_c, 2, 47, 127
8, 132960, Note_on_c, 2, 47, 0
8, 132960, Note_on_c, 2, 47, 127
8, 133200, Note_on_c, 2, 47, 0
8, 133320, Note_on_c, 2, 45, 127
8, 133440, Note_on_c, 2, 45, 0
8, 133440, Note_on_c, 2, 45, 127
8, 133560, Note_on_c, 2, 45, 0
8, 133560, Note_on_c, 2, 47, 127
8, 133680, Note_on_c, 2, 47, 0
8, 133680, Note_on_c, 2, 47, 127
8, 133920, Note_on_c, 2, 47, 0
8, 133920, Note_on_c, 2, 47, 127
8, 134400, Note_on_c, 2, 47, 0
8, 134400, Note_on_c, 2, 40, 127
8, 134640, Note_on_c, 2, 40, 0
8, 134640, Note_on_c, 2, 42, 127
8, 134880, Note_on_c, 2, 42, 0
8, 134880, Note_on_c, 2, 42, 127
8, 135120, Note_on_c, 2, 42, 0
8, 135240, Note_on_c, 2, 42, 127
8, 135360, Note_on_c, 2, 42, 0
8, 135360, Note_on_c, 2, 49, 127
8, 135480, Note_on_c, 2, 49, 0
8, 135480, Note_on_c, 2, 42, 127
8, 135600, Note_on_c, 2, 42, 0
8, 135600, Note_on_c, 2, 42, 127
8, 135840, Note_on_c, 2, 42, 0
8, 135840, Note_on_c, 2, 42, 127
8, 136320, Note_on_c, 2, 42, 0
8, 136320, Note_on_c, 2, 45, 127
8, 136560, Note_on_c, 2, 45, 0
8, 136560, Note_on_c, 2, 47, 127
8, 136800, Note_on_c, 2, 47, 0
8, 136800, Note_on_c, 2, 47, 127
8, 137040, Note_on_c, 2, 47, 0
8, 137160, Note_on_c, 2, 45, 127
8, 137280, Note_on_c, 2, 45, 0
8, 137280, Note_on_c, 2, 45, 127
8, 137400, Note_on_c, 2, 45, 0
8, 137400, Note_on_c, 2, 47, 127
8, 137520, Note_on_c, 2, 47, 0
8, 137520, Note_on_c, 2, 47, 127
8, 137760, Note_on_c, 2, 47, 0
8, 137760, Note_on_c, 2, 47, 127
8, 138240, Note_on_c, 2, 47, 0
8, 138240, Note_on_c, 2, 40, 127
8, 138480, Note_on_c, 2, 40, 0
8, 138480, Note_on_c, 2, 42, 127
8, 138720, Note_on_c, 2, 42, 0
8, 138720, Note_on_c, 2, 42, 127
8, 138960, Note_on_c, 2, 42, 0
8, 139080, Note_on_c, 2, 42, 127
8, 139200, Note_on_c, 2, 42, 0
8, 139200, Note_on_c, 2, 49, 127
8, 139320, Note_on_c, 2, 49, 0
8, 139320, Note_on_c, 2, 42, 127
8, 139440, Note_on_c, 2, 42, 0
8, 139440, Note_on_c, 2, 42, 127
8, 139680, Note_on_c, 2, 42, 0
8, 139680, Note_on_c, 2, 42, 127
8, 140160, Note_on_c, 2, 42, 0
8, 140160, Note_on_c, 2, 45, 127
8, 140400, Note_on_c, 2, 45, 0
8, 140400, Note_on_c, 2, 47, 127
8, 140640, Note_on_c, 2, 47, 0
8, 140640, Note_on_c, 2, 47, 127
8, 140880, Note_on_c, 2, 47, 0
8, 141000, Note_on_c, 2, 45, 127
8, 141120, Note_on_c, 2, 45, 0
8, 141120, Note_on_c, 2, 45, 127
8, 141240, Note_on_c, 2, 45, 0
8, 141240, Note_on_c, 2, 47, 127
8, 141360, Note_on_c, 2, 47, 0
8, 141360, Note_on_c, 2, 47, 127
8, 141600, Note_on_c, 2, 47, 0
8, 141600, Note_on_c, 2, 47, 127
8, 142080, Note_on_c, 2, 47, 0
8, 142080, Note_on_c, 2, 40, 127
8, 142320, Note_on_c, 2, 40, 0
8, 142320, Note_on_c, 2, 42, 127
8, 142560, Note_on_c, 2, 42, 0
8, 142560, Note_on_c, 2, 42, 127
8, 142800, Note_on_c, 2, 42, 0
8, 142920, Note_on_c, 2, 42, 127
8, 143040, Note_on_c, 2, 42, 0
8, 143040, Note_on_c, 2, 49, 127
8, 143160, Note_on_c, 2, 49, 0
8, 143160, Note_on_c, 2, 42, 127
8, 143280, Note_on_c, 2, 42, 0
8, 143280, Note_on_c, 2, 42, 127
8, 143520, Note_on_c, 2, 42, 0
8, 143520, Note_on_c, 2, 42, 127
8, 144000, Note_on_c, 2, 42, 0
8, 144000, Note_on_c, 2, 45, 127
8, 144240, Note_on_c, 2, 45, 0
8, 144240, Note_on_c, 2, 47, 127
8, 144480, Note_on_c, 2, 47, 0
8, 144480, Note_on_c, 2, 47, 127
8, 144720, Note_on_c, 2, 47, 0
8, 144840, Note_on_c, 2, 45, 127
8, 145080, Note_on_c, 2, 45, 0
8, 145080, Note_on_c, 2, 47, 127
8, 145200, Note_on_c, 2, 47, 0
8, 145200, Note_on_c, 2, 47, 127
8, 145440, Note_on_c, 2, 47, 0
8, 145440, Note_on_c, 2, 47, 127
8, 145920, Note_on_c, 2, 47, 0
8, 145920, Note_on_c, 2, 40, 127
8, 146160, Note_on_c, 2, 40, 0
8, 146160, Note_on_c, 2, 42, 127
8, 146400, Note_on_c, 2, 42, 0
8, 146400, Note_on_c, 2, 42, 127
8, 146640, Note_on_c, 2, 42, 0
8, 146760, Note_on_c, 2, 42, 127
8, 146880, Note_on_c, 2, 42, 0
8, 146880, Note_on_c, 2, 49, 127
8, 147000, Note_on_c, 2, 49, 0
8, 147000, Note_on_c, 2, 42, 127
8, 147120, Note_on_c, 2, 42, 0
8, 147120, Note_on_c, 2, 42, 127
8, 147360, Note_on_c, 2, 42, 0
8, 147360, Note_on_c, 2, 42, 127
8, 147840, Note_on_c, 2, 42, 0
8, 147840, Note_on_c, 2, 45, 127
8, 148080, Note_on_c, 2, 45, 0
8, 148080, Note_on_c, 2, 47, 127
8, 148320, Note_on_c, 2, 47, 0
8, 148320, Note_on_c, 2, 47, 127
8, 148560, Note_on_c, 2, 47, 0
8, 148680, Note_on_c, 2, 45, 127
8, 148800, Note_on_c, 2, 45, 0
8, 148800, Note_on_c, 2, 45, 127
8, 148920, Note_on_c, 2, 45, 0
8, 148920, Note_on_c, 2, 47, 127
8, 149040, Note_on_c, 2, 47, 0
8, 149040, Note_on_c, 2, 47, 127
8, 149280, Note_on_c, 2, 47, 0
8, 149280, Note_on_c, 2, 47, 127
8, 149760, Note_on_c, 2, 47, 0
8, 149760, Note_on_c, 2, 40, 127
8, 150000, Note_on_c, 2, 40, 0
8, 150000, Note_on_c, 2, 42, 127
8, 150240, Note_on_c, 2, 42, 0
8, 150240, Note_on_c, 2, 42, 127
8, 150480, Note_on_c, 2, 42, 0
8, 150600, Note_on_c, 2, 42, 127
8, 150720, Note_on_c, 2, 42, 0
8, 150720, Note_on_c, 2, 49, 127
8, 150840, Note_on_c, 2, 49, 0
8, 150840, Note_on_c, 2, 42, 127
8, 150960, Note_on_c, 2, 42, 0
8, 150960, Note_on_c, 2, 42, 127
8, 151200, Note_on_c, 2, 42, 0
8, 151200, Note_on_c, 2, 42, 127
8, 151680, Note_on_c, 2, 42, 0
8, 151680, Note_on_c, 2, 45, 127
8, 151920, Note_on_c, 2, 45, 0
8, 151920, Note_on_c, 2, 47, 127
8, 152160, Note_on_c, 2, 47, 0
8, 152160, Note_on_c, 2, 47, 127
8, 152400, Note_on_c, 2, 47, 0
8, 152520, Note_on_c, 2, 45, 127
8, 152640, Note_on_c, 2, 45, 0
8, 152640, Note_on_c, 2, 45, 127
8, 152760, Note_on_c, 2, 45, 0
8, 152760, Note_on_c, 2, 47, 127
8, 152880, Note_on_c, 2, 47, 0
8, 152880, Note_on_c, 2, 47, 127
8, 153120, Note_on_c, 2, 47, 0
8, 153120, Note_on_c, 2, 47, 127
8, 153600, Note_on_c, 2, 47, 0
8, 153600, Note_on_c, 2, 40, 127
8, 153840, Note_on_c, 2, 40, 0
8, 153840, Note_on_c, 2, 42, 127
8, 154080, Note_on_c, 2, 42, 0
8, 154080, Note_on_c, 2, 42, 127
8, 154320, Note_on_c, 2, 42, 0
8, 154440, Note_on_c, 2, 42, 127
8, 154560, Note_on_c, 2, 42, 0
8, 154560, Note_on_c, 2, 49, 127
8, 154680, Note_on_c, 2, 49, 0
8, 154680, Note_on_c, 2, 42, 127
8, 154800, Note_on_c, 2, 42, 0
8, 154800, Note_on_c, 2, 42, 127
8, 155040, Note_on_c, 2, 42, 0
8, 155040, Note_on_c, 2, 42, 127
8, 155520, Note_on_c, 2, 42, 0
8, 155520, Note_on_c, 2, 45, 127
8, 155760, Note_on_c, 2, 45, 0
8, 155760, Note_on_c, 2, 47, 127
8, 156000, Note_on_c, 2, 47, 0
8, 156000, Note_on_c, 2, 47, 127
8, 156240, Note_on_c, 2, 47, 0
8, 156360, Note_on_c, 2, 45, 127
8, 156480, Note_on_c, 2, 45, 0
8, 156480, Note_on_c, 2, 45, 127
8, 156600, Note_on_c, 2, 45, 0
8, 156600, Note_on_c, 2, 47, 127
8, 156720, Note_on_c, 2, 47, 0
8, 156720, Note_on_c, 2, 47, 127
8, 156960, Note_on_c, 2, 47, 0
8, 156960, Note_on_c, 2, 47, 127
8, 157440, Note_on_c, 2, 47, 0
8, 157440, Note_on_c, 2, 40, 127
8, 157680, Note_on_c, 2, 40, 0
8, 157680, Note_on_c, 2, 42, 127
8, 157920, Note_on_c, 2, 42, 0
8, 157920, Note_on_c, 2, 42, 127
8, 158160, Note_on_c, 2, 42, 0
8, 158280, Note_on_c, 2, 42, 127
8, 158400, Note_on_c, 2, 42, 0
8, 158400, Note_on_c, 2, 49, 127
8, 158520, Note_on_c, 2, 49, 0
8, 158520, Note_on_c, 2, 42, 127
8, 158640, Note_on_c, 2, 42, 0
8, 158640, Note_on_c, 2, 42, 127
8, 158880, Note_on_c, 2, 42, 0
8, 158880, Note_on_c, 2, 42, 127
8, 159360, Note_on_c, 2, 42, 0
8, 159360, Note_on_c, 2, 45, 127
8, 159600, Note_on_c, 2, 45, 0
8, 159600, Note_on_c, 2, 47, 127
8, 159840, Note_on_c, 2, 47, 0
8, 159840, Note_on_c, 2, 47, 127
8, 160080, Note_on_c, 2, 47, 0
8, 160200, Note_on_c, 2, 45, 127
8, 160440, Note_on_c, 2, 45, 0
8, 160440, Note_on_c, 2, 47, 127
8, 160560, Note_on_c, 2, 47, 0
8, 160560, Note_on_c, 2, 47, 127
8, 160800, Note_on_c, 2, 47, 0
8, 160800, Note_on_c, 2, 47, 127
8, 161280, Note_on_c, 2, 47, 0
8, 161280, Note_on_c, 2, 40, 127
8, 161520, Note_on_c, 2, 40, 0
8, 161520, Note_on_c, 2, 42, 127
8, 161760, Note_on_c, 2, 42, 0
8, 161760, Note_on_c, 2, 42, 127
8, 162000, Note_on_c, 2, 42, 0
8, 162120, Note_on_c, 2, 42, 127
8, 162240, Note_on_c, 2, 42, 0
8, 162240, Note_on_c, 2, 49, 127
8, 162360, Note_on_c, 2, 49, 0
8, 162360, Note_on_c, 2, 42, 127
8, 162480, Note_on_c, 2, 42, 0
8, 162480, Note_on_c, 2, 42, 127
8, 162720, Note_on_c, 2, 42, 0
8, 162720, Note_on_c, 2, 42, 127
8, 163200, Note_on_c, 2, 42, 0
8, 163200, Note_on_c, 2, 45, 127
8, 163440, Note_on_c, 2, 45, 0
8, 163440, Note_on_c, 2, 47, 127
8, 163680, Note_on_c, 2, 47, 0
8, 163680, Note_on_c, 2, 47, 127
8, 163920, Note_on_c, 2, 47, 0
8, 164040, Note_on_c, 2, 45, 127
8, 164160, Note_on_c, 2, 45, 0
8, 164160, Note_on_c, 2, 45, 127
8, 164280, Note_on_c, 2, 45, 0
8, 164280, Note_on_c, 2, 47, 127
8, 164400, Note_on_c, 2, 47, 0
8, 164400, Note_on_c, 2, 47, 127
8, 164640, Note_on_c, 2, 47, 0
8, 164640, Note_on_c, 2, 47, 127
8, 165120, Note_on_c, 2, 47, 0
8, 165120, Note_on_c, 2, 40, 127
8, 165360, Note_on_c, 2, 40, 0
8, 165360, Note_on_c, 2, 42, 127
8, 165600, Note_on_c, 2, 42, 0
8, 165600, Note_on_c, 2, 42, 127
8, 165840, Note_on_c, 2, 42, 0
8, 165960, Note_on_c, 2, 42, 127
8, 166080, Note_on_c, 2, 42, 0
8, 166080, Note_on_c, 2, 49, 127
8, 166200, Note_on_c, 2, 49, 0
8, 166200, Note_on_c, 2, 42, 127
8, 166320, Note_on_c, 2, 42, 0
8, 166320, Note_on_c, 2, 42, 127
8, 166560, Note_on_c, 2, 42, 0
8, 166560, Note_on_c, 2, 42, 127
8, 167040, Note_on_c, 2, 42, 0
8, 167040, Note_on_c, 2, 45, 127
8, 167280, Note_on_c, 2, 45, 0
8, 167280, Note_on_c, 2, 47, 127
8, 167520, Note_on_c, 2, 47, 0
8, 167520, Note_on_c, 2, 47, 127
8, 167760, Note_on_c, 2, 47, 0
8, 167880, Note_on_c, 2, 45, 127
8, 168000, Note_on_c, 2, 45, 0
8, 168000, Note_on_c, 2, 45, 127
8, 168120, Note_on_c, 2, 45, 0
8, 168120, Note_on_c, 2, 47, 127
8, 168240, Note_on_c, 2, 47, 0
8, 168240, Note_on_c, 2, 47, 127
8, 168480, Note_on_c, 2, 47, 0
8, 168480, Note_on_c, 2, 47, 127
8, 168960, Note_on_c, 2, 47, 0
8, 168960, Note_on_c, 2, 40, 127
8, 169200, Note_on_c, 2, 40, 0
8, 169200, Note_on_c, 2, 42, 127
8, 169440, Note_on_c, 2, 42, 0
8, 169440, Note_on_c, 2, 42, 127
8, 169680, Note_on_c, 2, 42, 0
8, 169800, Note_on_c, 2, 42, 127
8, 169920, Note_on_c, 2, 42, 0
8, 169920, Note_on_c, 2, 49, 127
8, 170040, Note_on_c, 2, 49, 0
8, 170040, Note_on_c, 2, 42, 127
8, 170160, Note_on_c, 2, 42, 0
8, 170160, Note_on_c, 2, 42, 127
8, 170400, Note_on_c, 2, 42, 0
8, 170400, Note_on_c, 2, 42, 127
8, 170880, Note_on_c, 2, 42, 0
8, 170880, Note_on_c, 2, 45, 127
8, 171120, Note_on_c, 2, 45, 0
8, 171120, Note_on_c, 2, 47, 127
8, 171360, Note_on_c, 2, 47, 0
8, 171360, Note_on_c, 2, 47, 127
8, 171600, Note_on_c, 2, 47, 0
8, 171720, Note_on_c, 2, 45, 127
8, 171840, Note_on_c, 2, 45, 0
8, 171840, Note_on_c, 2, 45, 127
8, 171960, Note_on_c, 2, 45, 0
8, 171960, Note_on_c, 2, 47, 127
8, 172080, Note_on_c, 2, 47, 0
8, 172080, Note_on_c, 2, 47, 127
8, 172320, Note_on_c, 2, 47, 0
8, 172320, Note_on_c, 2, 47, 127
8, 172800, Note_on_c, 2, 47, 0
8, 172800, Note_on_c, 2, 40, 127
8, 173040, Note_on_c, 2, 40, 0
8, 173040, Note_on_c, 2, 42, 127
8, 173280, Note_on_c, 2, 42, 0
8, 173280, Note_on_c, 2, 42, 127
8, 173520, Note_on_c, 2, 42, 0
8, 173640, Note_on_c, 2, 42, 127
8, 173760, Note_on_c, 2, 42, 0
8, 173760, Note_on_c, 2, 49, 127
8, 173880, Note_on_c, 2, 49, 0
8, 173880, Note_on_c, 2, 42, 127
8, 174000, Note_on_c, 2, 42, 0
8, 174000, Note_on_c, 2, 42, 127
8, 174240, Note_on_c, 2, 42, 0
8, 174240, Note_on_c, 2, 42, 127
8, 174720, Note_on_c, 2, 42, 0
8, 174720, Note_on_c, 2, 45, 127
8, 174960, Note_on_c, 2, 45, 0
8, 174960, Note_on_c, 2, 47, 127
8, 175200, Note_on_c, 2, 47, 0
8, 175200, Note_on_c, 2, 47, 127
8, 175440, Note_on_c, 2, 47, 0
8, 175560, Note_on_c, 2, 45, 127
8, 175680, Note_on_c, 2, 45, 0
8, 175680, Note_on_c, 2, 45, 127
8, 175800, Note_on_c, 2, 45, 0
8, 175800, Note_on_c, 2, 47, 127
8, 175920, Note_on_c, 2, 47, 0
8, 175920, Note_on_c, 2, 47, 127
8, 176160, Note_on_c, 2, 47, 0
8, 176160, Note_on_c, 2, 47, 127
8, 176640, Note_on_c, 2, 47, 0
8, 176640, Note_on_c, 2, 40, 127
8, 176880, Note_on_c, 2, 40, 0
8, 176880, Note_on_c, 2, 42, 127
8, 177120, Note_on_c, 2, 42, 0
8, 177120, Note_on_c, 2, 42, 127
8, 177360, Note_on_c, 2, 42, 0
8, 177480, Note_on_c, 2, 42, 127
8, 177600, Note_on_c, 2, 42, 0
8, 177600, Note_on_c, 2, 49, 127
8, 177720, Note_on_c, 2, 49, 0
8, 177720, Note_on_c, 2, 42, 127
8, 177840, Note_on_c, 2, 42, 0
8, 177840, Note_on_c, 2, 42, 127
8, 178080, Note_on_c, 2, 42, 0
8, 178080, Note_on_c, 2, 42, 127
8, 178560, Note_on_c, 2, 42, 0
8, 178560, Note_on_c, 2, 45, 127
8, 178800, Note_on_c, 2, 45, 0
8, 178800, Note_on_c, 2, 47, 127
8, 179040, Note_on_c, 2, 47, 0
8, 179040, Note_on_c, 2, 47, 127
8, 179280, Note_on_c, 2, 47, 0
8, 179400, Note_on_c, 2, 45, 127
8, 179520, Note_on_c, 2, 45, 0
8, 179520, Note_on_c, 2, 45, 127
8, 179640, Note_on_c, 2, 45, 0
8, 179640, Note_on_c, 2, 47, 127
8, 179760, Note_on_c, 2, 47, 0
8, 179760, Note_on_c, 2, 47, 127
8, 180000, Note_on_c, 2, 47, 0
8, 180000, Note_on_c, 2, 47, 127
8, 180480, Note_on_c, 2, 47, 0
8, 180480, Note_on_c, 2, 40, 127
8, 180720, Note_on_c, 2, 40, 0
8, 180720, Note_on_c, 2, 42, 127
8, 180960, Note_on_c, 2, 42, 0
8, 180960, Note_on_c, 2, 42, 127
8, 181200, Note_on_c, 2, 42, 0
8, 181320, Note_on_c, 2, 42, 127
8, 181440, Note_on_c, 2, 42, 0
8, 181440, Note_on_c, 2, 49, 127
8, 181560, Note_on_c, 2, 49, 0
8, 181560, Note_on_c, 2, 42, 127
8, 181680, Note_on_c, 2, 42, 0
8, 181680, Note_on_c, 2, 42, 127
8, 181920, Note_on_c, 2, 42, 0
8, 181920, Note_on_c, 2, 42, 127
8, 182400, Note_on_c, 2, 42, 0
8, 182400, Note_on_c, 2, 45, 127
8, 182640, Note_on_c, 2, 45, 0
8, 182640, Note_on_c, 2, 47, 127
8, 182880, Note_on_c, 2, 47, 0
8, 182880, Note_on_c, 2, 47, 127
8, 183120, Note_on_c, 2, 47, 0
8, 183240, Note_on_c, 2, 45, 127
8, 183360, Note_on_c, 2, 45, 0
8, 183360, Note_on_c, 2, 45, 127
8, 183480, Note_on_c, 2, 45, 0
8, 183480, Note_on_c, 2, 47, 127
8, 183600, Note_on_c, 2, 47, 0
8, 183600, Note_on_c, 2, 47, 127
8, 183840, Note_on_c, 2, 47, 0
8, 183840, Note_on_c, 2, 47, 127
8, 184320, Note_on_c, 2, 47, 0
8, 184320, End_track
9, 0, Start_track
9, 0, MIDI_port, 0
9, 0, Title_t, "Guitar 3 - overdriven riff (chorus) - Graham Coxon"
9, 0, Program_c, 8, 29
9, 0, Control_c, 8, 7, 90
9, 0, Control_c, 8, 10, 0
9, 34560, Note_on_c, 8, 62, 127
9, 34800, Note_on_c, 8, 62, 0
9, 34800, Note_on_c, 8, 62, 127
9, 35040, Note_on_c, 8, 62, 0
9, 35040, Note_on_c, 8, 66, 127
9, 35160, Note_on_c, 8, 66, 0
9, 35160, Note_on_c, 8, 67, 95
9, 35280, Note_on_c, 8, 67, 0
9, 35280, Note_on_c, 8, 66, 95
9, 35520, Note_on_c, 8, 66, 0
9, 35520, Note_on_c, 8, 62, 127
9, 35760, Note_on_c, 8, 62, 0
9, 35760, Note_on_c, 8, 62, 127
9, 36000, Note_on_c, 8, 62, 0
9, 36000, Note_on_c, 8, 66, 127
9, 36120, Note_on_c, 8, 66, 0
9, 36120, Note_on_c, 8, 67, 95
9, 36240, Note_on_c, 8, 67, 0
9, 36240, Note_on_c, 8, 66, 95
9, 36480, Note_on_c, 8, 66, 0
9, 36480, Note_on_c, 8, 62, 127
9, 36720, Note_on_c, 8, 62, 0
9, 36720, Note_on_c, 8, 62, 127
9, 36960, Note_on_c, 8, 62, 0
9, 36960, Note_on_c, 8, 66, 127
9, 37080, Note_on_c, 8, 66, 0
9, 37080, Note_on_c, 8, 67, 95
9, 37200, Note_on_c, 8, 67, 0
9, 37200, Note_on_c, 8, 66, 95
9, 37440, Note_on_c, 8, 66, 0
9, 37440, Note_on_c, 8, 62, 127
9, 37680, Note_on_c, 8, 62, 0
9, 37680, Note_on_c, 8, 62, 127
9, 37920, Note_on_c, 8, 62, 0
9, 37920, Note_on_c, 8, 66, 127
9, 38040, Note_on_c, 8, 66, 0
9, 38040, Note_on_c, 8, 67, 95
9, 38160, Note_on_c, 8, 67, 0
9, 38160, Note_on_c, 8, 66, 95
9, 38400, Note_on_c, 8, 66, 0
9, 38400, Note_on_c, 8, 59, 127
9, 38640, Note_on_c, 8, 59, 0
9, 38640, Note_on_c, 8, 59, 127
9, 38880, Note_on_c, 8, 59, 0
9, 38880, Note_on_c, 8, 66, 127
9, 39000, Note_on_c, 8, 66, 0
9, 39000, Note_on_c, 8, 67, 95
9, 39120, Note_on_c, 8, 67, 0
9, 39120, Note_on_c, 8, 66, 95
9, 39360, Note_on_c, 8, 66, 0
9, 39360, Note_on_c, 8, 59, 127
9, 39600, Note_on_c, 8, 59, 0
9, 39600, Note_on_c, 8, 59, 127
9, 39840, Note_on_c, 8, 59, 0
9, 39840, Note_on_c, 8, 66, 127
9, 39960, Note_on_c, 8, 66, 0
9, 39960, Note_on_c, 8, 67, 95
9, 40080, Note_on_c, 8, 67, 0
9, 40080, Note_on_c, 8, 66, 95
9, 40320, Note_on_c, 8, 66, 0
9, 40320, Note_on_c, 8, 59, 127
9, 40560, Note_on_c, 8, 59, 0
9, 40560, Note_on_c, 8, 59, 127
9, 40800, Note_on_c, 8, 59, 0
9, 40800, Note_on_c, 8, 66, 127
9, 40920, Note_on_c, 8, 66, 0
9, 40920, Note_on_c, 8, 67, 95
9, 41040, Note_on_c, 8, 67, 0
9, 41040, Note_on_c, 8, 66, 95
9, 41280, Note_on_c, 8, 66, 0
9, 41280, Note_on_c, 8, 59, 127
9, 41520, Note_on_c, 8, 59, 0
9, 41520, Note_on_c, 8, 59, 127
9, 41760, Note_on_c, 8, 59, 0
9, 41760, Note_on_c, 8, 66, 127
9, 41880, Note_on_c, 8, 66, 0
9, 41880, Note_on_c, 8, 67, 95
9, 42000, Note_on_c, 8, 67, 0
9, 42000, Note_on_c, 8, 66, 95
9, 42240, Note_on_c, 8, 66, 0
9, 42240, Note_on_c, 8, 62, 127
9, 42480, Note_on_c, 8, 62, 0
9, 42480, Note_on_c, 8, 62, 127
9, 42720, Note_on_c, 8, 62, 0
9, 42720, Note_on_c, 8, 66, 127
9, 42840, Note_on_c, 8, 66, 0
9, 42840, Note_on_c, 8, 67, 95
9, 42960, Note_on_c, 8, 67, 0
9, 42960, Note_on_c, 8, 66, 95
9, 43200, Note_on_c, 8, 66, 0
9, 43200, Note_on_c, 8, 62, 127
9, 43440, Note_on_c, 8, 62, 0
9, 43440, Note_on_c, 8, 62, 127
9, 43680, Note_on_c, 8, 62, 0
9, 43680, Note_on_c, 8, 66, 127
9, 43800, Note_on_c, 8, 66, 0
9, 43800, Note_on_c, 8, 67, 95
9, 43920, Note_on_c, 8, 67, 0
9, 43920, Note_on_c, 8, 66, 95
9, 44160, Note_on_c, 8, 66, 0
9, 44160, Note_on_c, 8, 62, 127
9, 44400, Note_on_c, 8, 62, 0
9, 44400, Note_on_c, 8, 62, 127
9, 44640, Note_on_c, 8, 62, 0
9, 44640, Note_on_c, 8, 66, 127
9, 44760, Note_on_c, 8, 66, 0
9, 44760, Note_on_c, 8, 67, 95
9, 44880, Note_on_c, 8, 67, 0
9, 44880, Note_on_c, 8, 66, 95
9, 45120, Note_on_c, 8, 66, 0
9, 45120, Note_on_c, 8, 62, 127
9, 45360, Note_on_c, 8, 62, 0
9, 45360, Note_on_c, 8, 62, 127
9, 45600, Note_on_c, 8, 62, 0
9, 45600, Note_on_c, 8, 66, 127
9, 45720, Note_on_c, 8, 66, 0
9, 45720, Note_on_c, 8, 67, 95
9, 45840, Note_on_c, 8, 67, 0
9, 45840, Note_on_c, 8, 66, 95
9, 46080, Note_on_c, 8, 66, 0
9, 46080, Note_on_c, 8, 59, 127
9, 46320, Note_on_c, 8, 59, 0
9, 46320, Note_on_c, 8, 59, 127
9, 46560, Note_on_c, 8, 59, 0
9, 46560, Note_on_c, 8, 66, 127
9, 46680, Note_on_c, 8, 66, 0
9, 46680, Note_on_c, 8, 67, 95
9, 46800, Note_on_c, 8, 67, 0
9, 46800, Note_on_c, 8, 66, 95
9, 47040, Note_on_c, 8, 66, 0
9, 47040, Note_on_c, 8, 59, 127
9, 47280, Note_on_c, 8, 59, 0
9, 47280, Note_on_c, 8, 59, 127
9, 47520, Note_on_c, 8, 59, 0
9, 47520, Note_on_c, 8, 66, 127
9, 47640, Note_on_c, 8, 66, 0
9, 47640, Note_on_c, 8, 67, 95
9, 47760, Note_on_c, 8, 67, 0
9, 47760, Note_on_c, 8, 66, 95
9, 48000, Note_on_c, 8, 66, 0
9, 48000, Note_on_c, 8, 59, 127
9, 48240, Note_on_c, 8, 59, 0
9, 48240, Note_on_c, 8, 66, 127
9, 48480, Note_on_c, 8, 66, 0
9, 48480, Note_on_c, 8, 61, 127
9, 48720, Note_on_c, 8, 61, 0
9, 48720, Note_on_c, 8, 64, 127
9, 48960, Note_on_c, 8, 64, 0
9, 48960, Note_on_c, 8, 62, 127
9, 49200, Note_on_c, 8, 62, 0
9, 49200, Note_on_c, 8, 66, 127
9, 49440, Note_on_c, 8, 66, 0
9, 49440, Note_on_c, 8, 66, 127
9, 49680, Note_on_c, 8, 66, 0
9, 49680, Note_on_c, 8, 69, 127
9, 49920, Note_on_c, 8, 69, 0
9, 76800, Note_on_c, 8, 62, 127
9, 77040, Note_on_c, 8, 62, 0
9, 77040, Note_on_c, 8, 62, 127
9, 77280, Note_on_c, 8, 62, 0
9, 77280, Note_on_c, 8, 66, 127
9, 77400, Note_on_c, 8, 66, 0
9, 77400, Note_on_c, 8, 67, 95
9, 77520, Note_on_c, 8, 67, 0
9, 77520, Note_on_c, 8, 66, 95
9, 77760, Note_on_c, 8, 66, 0
9, 77760, Note_on_c, 8, 62, 127
9, 78000, Note_on_c, 8, 62, 0
9, 78000, Note_on_c, 8, 62, 127
9, 78240, Note_on_c, 8, 62, 0
9, 78240, Note_on_c, 8, 66, 127
9, 78360, Note_on_c, 8, 66, 0
9, 78360, Note_on_c, 8, 67, 95
9, 78480, Note_on_c, 8, 67, 0
9, 78480, Note_on_c, 8, 66, 95
9, 78720, Note_on_c, 8, 66, 0
9, 78720, Note_on_c, 8, 62, 127
9, 78960, Note_on_c, 8, 62, 0
9, 78960, Note_on_c, 8, 62, 127
9, 79200, Note_on_c, 8, 62, 0
9, 79200, Note_on_c, 8, 66, 127
9, 79320, Note_on_c, 8, 66, 0
9, 79320, Note_on_c, 8, 67, 95
9, 79440, Note_on_c, 8, 67, 0
9, 79440, Note_on_c, 8, 66, 95
9, 79680, Note_on_c, 8, 66, 0
9, 79680, Note_on_c, 8, 62, 127
9, 79920, Note_on_c, 8, 62, 0
9, 79920, Note_on_c, 8, 62, 127
9, 80160, Note_on_c, 8, 62, 0
9, 80160, Note_on_c, 8, 66, 127
9, 80280, Note_on_c, 8, 66, 0
9, 80280, Note_on_c, 8, 67, 95
9, 80400, Note_on_c, 8, 67, 0
9, 80400, Note_on_c, 8, 66, 95
9, 80640, Note_on_c, 8, 66, 0
9, 80640, Note_on_c, 8, 59, 127
9, 80880, Note_on_c, 8, 59, 0
9, 80880, Note_on_c, 8, 59, 127
9, 81120, Note_on_c, 8, 59, 0
9, 81120, Note_on_c, 8, 66, 127
9, 81240, Note_on_c, 8, 66, 0
9, 81240, Note_on_c, 8, 67, 95
9, 81360, Note_on_c, 8, 67, 0
9, 81360, Note_on_c, 8, 66, 95
9, 81600, Note_on_c, 8, 66, 0
9, 81600, Note_on_c, 8, 59, 127
9, 81840, Note_on_c, 8, 59, 0
9, 81840, Note_on_c, 8, 59, 127
9, 82080, Note_on_c, 8, 59, 0
9, 82080, Note_on_c, 8, 66, 127
9, 82200, Note_on_c, 8, 66, 0
9, 82200, Note_on_c, 8, 67, 95
9, 82320, Note_on_c, 8, 67, 0
9, 82320, Note_on_c, 8, 66, 95
9, 82560, Note_on_c, 8, 66, 0
9, 82560, Note_on_c, 8, 59, 127
9, 82800, Note_on_c, 8, 59, 0
9, 82800, Note_on_c, 8, 59, 127
9, 83040, Note_on_c, 8, 59, 0
9, 83040, Note_on_c, 8, 66, 127
9, 83160, Note_on_c, 8, 66, 0
9, 83160, Note_on_c, 8, 67, 95
9, 83280, Note_on_c, 8, 67, 0
9, 83280, Note_on_c, 8, 66, 95
9, 83520, Note_on_c, 8, 66, 0
9, 83520, Note_on_c, 8, 59, 127
9, 83760, Note_on_c, 8, 59, 0
9, 83760, Note_on_c, 8, 59, 127
9, 84000, Note_on_c, 8, 59, 0
9, 84000, Note_on_c, 8, 66, 127
9, 84120, Note_on_c, 8, 66, 0
9, 84120, Note_on_c, 8, 67, 95
9, 84240, Note_on_c, 8, 67, 0
9, 84240, Note_on_c, 8, 66, 95
9, 84480, Note_on_c, 8, 66, 0
9, 84480, Note_on_c, 8, 62, 127
9, 84720, Note_on_c, 8, 62, 0
9, 84720, Note_on_c, 8, 62, 127
9, 84960, Note_on_c, 8, 62, 0
9, 84960, Note_on_c, 8, 66, 127
9, 85080, Note_on_c, 8, 66, 0
9, 85080, Note_on_c, 8, 67, 95
9, 85200, Note_on_c, 8, 67, 0
9, 85200, Note_on_c, 8, 66, 95
9, 85440, Note_on_c, 8, 66, 0
9, 85440, Note_on_c, 8, 62, 127
9, 85680, Note_on_c, 8, 62, 0
9, 85680, Note_on_c, 8, 62, 127
9, 85920, Note_on_c, 8, 62, 0
9, 85920, Note_on_c, 8, 66, 127
9, 86040, Note_on_c, 8, 66, 0
9, 86040, Note_on_c, 8, 67, 95
9, 86160, Note_on_c, 8, 67, 0
9, 86160, Note_on_c, 8, 66, 95
9, 86400, Note_on_c, 8, 66, 0
9, 86400, Note_on_c, 8, 62, 127
9, 86640, Note_on_c, 8, 62, 0
9, 86640, Note_on_c, 8, 62, 127
9, 86880, Note_on_c, 8, 62, 0
9, 86880, Note_on_c, 8, 66, 127
9, 87000, Note_on_c, 8, 66, 0
9, 87000, Note_on_c, 8, 67, 95
9, 87120, Note_on_c, 8, 67, 0
9, 87120, Note_on_c, 8, 66, 95
9, 87360, Note_on_c, 8, 66, 0
9, 87360, Note_on_c, 8, 62, 127
9, 87600, Note_on_c, 8, 62, 0
9, 87600, Note_on_c, 8, 62, 127
9, 87840, Note_on_c, 8, 62, 0
9, 87840, Note_on_c, 8, 66, 127
9, 87960, Note_on_c, 8, 66, 0
9, 87960, Note_on_c, 8, 67, 95
9, 88080, Note_on_c, 8, 67, 0
9, 88080, Note_on_c, 8, 66, 95
9, 88320, Note_on_c, 8, 66, 0
9, 88320, Note_on_c, 8, 59, 127
9, 88560, Note_on_c, 8, 59, 0
9, 88560, Note_on_c, 8, 59, 127
9, 88800, Note_on_c, 8, 59, 0
9, 88800, Note_on_c, 8, 66, 127
9, 88920, Note_on_c, 8, 66, 0
9, 88920, Note_on_c, 8, 67, 95
9, 89040, Note_on_c, 8, 67, 0
9, 89040, Note_on_c, 8, 66, 95
9, 89280, Note_on_c, 8, 66, 0
9, 89280, Note_on_c, 8, 59, 127
9, 89520, Note_on_c, 8, 59, 0
9, 89520, Note_on_c, 8, 59, 127
9, 89760, Note_on_c, 8, 59, 0
9, 89760, Note_on_c, 8, 66, 127
9, 89880, Note_on_c, 8, 66, 0
9, 89880, Note_on_c, 8, 67, 95
9, 90000, Note_on_c, 8, 67, 0
9, 90000, Note_on_c, 8, 66, 95
9, 90240, Note_on_c, 8, 66, 0
9, 90240, Note_on_c, 8, 59, 127
9, 90480, Note_on_c, 8, 59, 0
9, 90480, Note_on_c, 8, 66, 127
9, 90720, Note_on_c, 8, 66, 0
9, 90720, Note_on_c, 8, 61, 127
9, 90960, Note_on_c, 8, 61, 0
9, 90960, Note_on_c, 8, 64, 127
9, 91200, Note_on_c, 8, 64, 0
9, 91200, Note_on_c, 8, 62, 127
9, 91440, Note_on_c, 8, 62, 0
9, 91440, Note_on_c, 8, 66, 127
9, 91680, Note_on_c, 8, 66, 0
9, 91680, Note_on_c, 8, 66, 127
9, 91920, Note_on_c, 8, 66, 0
9, 91920, Note_on_c, 8, 69, 127
9, 92160, Note_on_c, 8, 69, 0
9, 111360, Note_on_c, 8, 62, 127
9, 111600, Note_on_c, 8, 62, 0
9, 111600, Note_on_c, 8, 62, 127
9, 111840, Note_on_c, 8, 62, 0
9, 111840, Note_on_c, 8, 66, 127
9, 111960, Note_on_c, 8, 66, 0
9, 111960, Note_on_c, 8, 67, 95
9, 112080, Note_on_c, 8, 67, 0
9, 112080, Note_on_c, 8, 66, 95
9, 112320, Note_on_c, 8, 66, 0
9, 112320, Note_on_c, 8, 62, 127
9, 112560, Note_on_c, 8, 62, 0
9, 112560, Note_on_c, 8, 62, 127
9, 112800, Note_on_c, 8, 62, 0
9, 112800, Note_on_c, 8, 66, 127
9, 112920, Note_on_c, 8, 66, 0
9, 112920, Note_on_c, 8, 67, 95
9, 113040, Note_on_c, 8, 67, 0
9, 113040, Note_on_c, 8, 66, 95
9, 113280, Note_on_c, 8, 66, 0
9, 113280, Note_on_c, 8, 62, 127
9, 113520, Note_on_c, 8, 62, 0
9, 113520, Note_on_c, 8, 62, 127
9, 113760, Note_on_c, 8, 62, 0
9, 113760, Note_on_c, 8, 66, 127
9, 113880, Note_on_c, 8, 66, 0
9, 113880, Note_on_c, 8, 67, 95
9, 114000, Note_on_c, 8, 67, 0
9, 114000, Note_on_c, 8, 66, 95
9, 114240, Note_on_c, 8, 66, 0
9, 114240, Note_on_c, 8, 62, 127
9, 114480, Note_on_c, 8, 62, 0
9, 114480, Note_on_c, 8, 62, 127
9, 114720, Note_on_c, 8, 62, 0
9, 114720, Note_on_c, 8, 66, 127
9, 114840, Note_on_c, 8, 66, 0
9, 114840, Note_on_c, 8, 67, 95
9, 114960, Note_on_c, 8, 67, 0
9, 114960, Note_on_c, 8, 66, 95
9, 115200, Note_on_c, 8, 66, 0
9, 115200, Note_on_c, 8, 59, 127
9, 115440, Note_on_c, 8, 59, 0
9, 115440, Note_on_c, 8, 59, 127
9, 115680, Note_on_c, 8, 59, 0
9, 115680, Note_on_c, 8, 66, 127
9, 115800, Note_on_c, 8, 66, 0
9, 115800, Note_on_c, 8, 67, 95
9, 115920, Note_on_c, 8, 67, 0
9, 115920, Note_on_c, 8, 66, 95
9, 116160, Note_on_c, 8, 66, 0
9, 116160, Note_on_c, 8, 59, 127
9, 116400, Note_on_c, 8, 59, 0
9, 116400, Note_on_c, 8, 59, 127
9, 116640, Note_on_c, 8, 59, 0
9, 116640, Note_on_c, 8, 66, 127
9, 116760, Note_on_c, 8, 66, 0
9, 116760, Note_on_c, 8, 67, 95
9, 116880, Note_on_c, 8, 67, 0
9, 116880, Note_on_c, 8, 66, 95
9, 117120, Note_on_c, 8, 66, 0
9, 117120, Note_on_c, 8, 59, 127
9, 117360, Note_on_c, 8, 59, 0
9, 117360, Note_on_c, 8, 59, 127
9, 117600, Note_on_c, 8, 59, 0
9, 117600, Note_on_c, 8, 66, 127
9, 117720, Note_on_c, 8, 66, 0
9, 117720, Note_on_c, 8, 67, 95
9, 117840, Note_on_c, 8, 67, 0
9, 117840, Note_on_c, 8, 66, 95
9, 118080, Note_on_c, 8, 66, 0
9, 118080, Note_on_c, 8, 59, 127
9, 118320, Note_on_c, 8, 59, 0
9, 118320, Note_on_c, 8, 59, 127
9, 118560, Note_on_c, 8, 59, 0
9, 118560, Note_on_c, 8, 66, 127
9, 118680, Note_on_c, 8, 66, 0
9, 118680, Note_on_c, 8, 67, 95
9, 118800, Note_on_c, 8, 67, 0
9, 118800, Note_on_c, 8, 66, 95
9, 119040, Note_on_c, 8, 66, 0
9, 119040, Note_on_c, 8, 62, 127
9, 119280, Note_on_c, 8, 62, 0
9, 119280, Note_on_c, 8, 62, 127
9, 119520, Note_on_c, 8, 62, 0
9, 119520, Note_on_c, 8, 66, 127
9, 119640, Note_on_c, 8, 66, 0
9, 119640, Note_on_c, 8, 67, 95
9, 119760, Note_on_c, 8, 67, 0
9, 119760, Note_on_c, 8, 66, 95
9, 120000, Note_on_c, 8, 66, 0
9, 120000, Note_on_c, 8, 62, 127
9, 120240, Note_on_c, 8, 62, 0
9, 120240, Note_on_c, 8, 62, 127
9, 120480, Note_on_c, 8, 62, 0
9, 120480, Note_on_c, 8, 66, 127
9, 120600, Note_on_c, 8, 66, 0
9, 120600, Note_on_c, 8, 67, 95
9, 120720, Note_on_c, 8, 67, 0
9, 120720, Note_on_c, 8, 66, 95
9, 120960, Note_on_c, 8, 66, 0
9, 120960, Note_on_c, 8, 62, 127
9, 121200, Note_on_c, 8, 62, 0
9, 121200, Note_on_c, 8, 62, 127
9, 121440, Note_on_c, 8, 62, 0
9, 121440, Note_on_c, 8, 66, 127
9, 121560, Note_on_c, 8, 66, 0
9, 121560, Note_on_c, 8, 67, 95
9, 121680, Note_on_c, 8, 67, 0
9, 121680, Note_on_c, 8, 66, 95
9, 121920, Note_on_c, 8, 66, 0
9, 121920, Note_on_c, 8, 62, 127
9, 122160, Note_on_c, 8, 62, 0
9, 122160, Note_on_c, 8, 62, 127
9, 122400, Note_on_c, 8, 62, 0
9, 122400, Note_on_c, 8, 66, 127
9, 122520, Note_on_c, 8, 66, 0
9, 122520, Note_on_c, 8, 67, 95
9, 122640, Note_on_c, 8, 67, 0
9, 122640, Note_on_c, 8, 66, 95
9, 122880, Note_on_c, 8, 66, 0
9, 122880, Note_on_c, 8, 59, 127
9, 123120, Note_on_c, 8, 59, 0
9, 123120, Note_on_c, 8, 59, 127
9, 123360, Note_on_c, 8, 59, 0
9, 123360, Note_on_c, 8, 66, 127
9, 123480, Note_on_c, 8, 66, 0
9, 123480, Note_on_c, 8, 67, 95
9, 123600, Note_on_c, 8, 67, 0
9, 123600, Note_on_c, 8, 66, 95
9, 123840, Note_on_c, 8, 66, 0
9, 123840, Note_on_c, 8, 59, 127
9, 124080, Note_on_c, 8, 59, 0
9, 124080, Note_on_c, 8, 59, 127
9, 124320, Note_on_c, 8, 59, 0
9, 124320, Note_on_c, 8, 66, 127
9, 124440, Note_on_c, 8, 66, 0
9, 124440, Note_on_c, 8, 67, 95
9, 124560, Note_on_c, 8, 67, 0
9, 124560, Note_on_c, 8, 66, 95
9, 124800, Note_on_c, 8, 66, 0
9, 124800, Note_on_c, 8, 59, 127
9, 125040, Note_on_c, 8, 59, 0
9, 125040, Note_on_c, 8, 66, 127
9, 125280, Note_on_c, 8, 66, 0
9, 125280, Note_on_c, 8, 61, 127
9, 125520, Note_on_c, 8, 61, 0
9, 125520, Note_on_c, 8, 64, 127
9, 125760, Note_on_c, 8, 64, 0
9, 125760, Note_on_c, 8, 62, 127
9, 126000, Note_on_c, 8, 62, 0
9, 126000, Note_on_c, 8, 66, 127
9, 126240, Note_on_c, 8, 66, 0
9, 126240, Note_on_c, 8, 66, 127
9, 126480, Note_on_c, 8, 66, 0
9, 126480, Note_on_c, 8, 69, 127
9, 126720, Note_on_c, 8, 69, 0
9, 126720, End_track
10, 0, Start_track
10, 0, MIDI_port, 0
10, 0, Title_t, "Guitar 4 - clean - Graham Coxon"
10, 0, Program_c, 11, 27
10, 0, Control_c, 11, 7, 75
10, 0, Control_c, 11, 10, 0
10, 34560, Note_on_c, 11, 69, 127
10, 34560, Note_on_c, 11, 66, 127
10, 34560, Note_on_c, 11, 62, 127
10, 34800, Note_on_c, 11, 62, 0
10, 34800, Note_on_c, 11, 66, 0
10, 34800, Note_on_c, 11, 69, 0
10, 34800, Note_on_c, 11, 69, 127
10, 34800, Note_on_c, 11, 66, 127
10, 34800, Note_on_c, 11, 62, 127
10, 35040, Note_on_c, 11, 62, 0
10, 35040, Note_on_c, 11, 66, 0
10, 35040, Note_on_c, 11, 69, 0
10, 35040, Note_on_c, 11, 69, 127
10, 35040, Note_on_c, 11, 66, 127
10, 35040, Note_on_c, 11, 62, 127
10, 35280, Note_on_c, 11, 62, 0
10, 35280, Note_on_c, 11, 66, 0
10, 35280, Note_on_c, 11, 69, 0
10, 35280, Note_on_c, 11, 69, 127
10, 35280, Note_on_c, 11, 66, 127
10, 35280, Note_on_c, 11, 62, 127
10, 35520, Note_on_c, 11, 62, 0
10, 35520, Note_on_c, 11, 66, 0
10, 35520, Note_on_c, 11, 69, 0
10, 35520, Note_on_c, 11, 69, 127
10, 35520, Note_on_c, 11, 66, 127
10, 35520, Note_on_c, 11, 62, 127
10, 35760, Note_on_c, 11, 62, 0
10, 35760, Note_on_c, 11, 66, 0
10, 35760, Note_on_c, 11, 69, 0
10, 35760, Note_on_c, 11, 69, 127
10, 35760, Note_on_c, 11, 66, 127
10, 35760, Note_on_c, 11, 62, 127
10, 36000, Note_on_c, 11, 62, 0
10, 36000, Note_on_c, 11, 66, 0
10, 36000, Note_on_c, 11, 69, 0
10, 36000, Note_on_c, 11, 69, 127
10, 36000, Note_on_c, 11, 66, 127
10, 36000, Note_on_c, 11, 62, 127
10, 36240, Note_on_c, 11, 62, 0
10, 36240, Note_on_c, 11, 66, 0
10, 36240, Note_on_c, 11, 69, 0
10, 36240, Note_on_c, 11, 69, 127
10, 36240, Note_on_c, 11, 66, 127
10, 36240, Note_on_c, 11, 62, 127
10, 36480, Note_on_c, 11, 62, 0
10, 36480, Note_on_c, 11, 66, 0
10, 36480, Note_on_c, 11, 69, 0
10, 36480, Note_on_c, 11, 69, 127
10, 36480, Note_on_c, 11, 66, 127
10, 36480, Note_on_c, 11, 62, 127
10, 36720, Note_on_c, 11, 62, 0
10, 36720, Note_on_c, 11, 66, 0
10, 36720, Note_on_c, 11, 69, 0
10, 36720, Note_on_c, 11, 69, 127
10, 36720, Note_on_c, 11, 66, 127
10, 36720, Note_on_c, 11, 62, 127
10, 36960, Note_on_c, 11, 62, 0
10, 36960, Note_on_c, 11, 66, 0
10, 36960, Note_on_c, 11, 69, 0
10, 36960, Note_on_c, 11, 69, 127
10, 36960, Note_on_c, 11, 66, 127
10, 36960, Note_on_c, 11, 62, 127
10, 37200, Note_on_c, 11, 62, 0
10, 37200, Note_on_c, 11, 66, 0
10, 37200, Note_on_c, 11, 69, 0
10, 37200, Note_on_c, 11, 69, 127
10, 37200, Note_on_c, 11, 66, 127
10, 37200, Note_on_c, 11, 62, 127
10, 37440, Note_on_c, 11, 62, 0
10, 37440, Note_on_c, 11, 66, 0
10, 37440, Note_on_c, 11, 69, 0
10, 37440, Note_on_c, 11, 69, 127
10, 37440, Note_on_c, 11, 66, 127
10, 37440, Note_on_c, 11, 62, 127
10, 37680, Note_on_c, 11, 62, 0
10, 37680, Note_on_c, 11, 66, 0
10, 37680, Note_on_c, 11, 69, 0
10, 37680, Note_on_c, 11, 69, 127
10, 37680, Note_on_c, 11, 66, 127
10, 37680, Note_on_c, 11, 62, 127
10, 37920, Note_on_c, 11, 62, 0
10, 37920, Note_on_c, 11, 66, 0
10, 37920, Note_on_c, 11, 69, 0
10, 37920, Note_on_c, 11, 71, 127
10, 37920, Note_on_c, 11, 66, 127
10, 37920, Note_on_c, 11, 62, 127
10, 37920, Control_c, 11, 6, 32
10, 38160, Pitch_bend_c, 11, 7936
10, 38160, Pitch_bend_c, 11, 7936
10, 38220, Pitch_bend_c, 11, 7680
10, 38220, Pitch_bend_c, 11, 7680
10, 38220, Pitch_bend_c, 11, 7680
10, 38280, Pitch_bend_c, 11, 7424
10, 38280, Pitch_bend_c, 11, 7424
10, 38280, Pitch_bend_c, 11, 7424
10, 38340, Pitch_bend_c, 11, 7168
10, 38340, Pitch_bend_c, 11, 7168
10, 38340, Pitch_bend_c, 11, 7168
10, 38400, Note_on_c, 11, 62, 0
10, 38400, Note_on_c, 11, 66, 0
10, 38400, Note_on_c, 11, 71, 0
10, 38400, Pitch_bend_c, 11, 8192
10, 38400, Pitch_bend_c, 11, 8192
10, 38400, Note_on_c, 11, 66, 127
10, 38400, Note_on_c, 11, 62, 127
10, 38400, Note_on_c, 11, 59, 127
10, 38640, Note_on_c, 11, 59, 0
10, 38640, Note_on_c, 11, 62, 0
10, 38640, Note_on_c, 11, 66, 0
10, 38640, Note_on_c, 11, 66, 127
10, 38640, Note_on_c, 11, 62, 127
10, 38640, Note_on_c, 11, 59, 127
10, 38880, Note_on_c, 11, 59, 0
10, 38880, Note_on_c, 11, 62, 0
10, 38880, Note_on_c, 11, 66, 0
10, 38880, Note_on_c, 11, 66, 127
10, 38880, Note_on_c, 11, 62, 127
10, 38880, Note_on_c, 11, 59, 127
10, 39120, Note_on_c, 11, 59, 0
10, 39120, Note_on_c, 11, 62, 0
10, 39120, Note_on_c, 11, 66, 0
10, 39120, Note_on_c, 11, 66, 127
10, 39120, Note_on_c, 11, 62, 127
10, 39120, Note_on_c, 11, 59, 127
10, 39360, Note_on_c, 11, 59, 0
10, 39360, Note_on_c, 11, 62, 0
10, 39360, Note_on_c, 11, 66, 0
10, 39360, Note_on_c, 11, 66, 127
10, 39360, Note_on_c, 11, 62, 127
10, 39360, Note_on_c, 11, 59, 127
10, 39600, Note_on_c, 11, 59, 0
10, 39600, Note_on_c, 11, 62, 0
10, 39600, Note_on_c, 11, 66, 0
10, 39600, Note_on_c, 11, 66, 127
10, 39600, Note_on_c, 11, 62, 127
10, 39600, Note_on_c, 11, 59, 127
10, 39840, Note_on_c, 11, 59, 0
10, 39840, Note_on_c, 11, 62, 0
10, 39840, Note_on_c, 11, 66, 0
10, 39840, Note_on_c, 11, 66, 127
10, 39840, Note_on_c, 11, 62, 127
10, 39840, Note_on_c, 11, 59, 127
10, 40080, Note_on_c, 11, 59, 0
10, 40080, Note_on_c, 11, 62, 0
10, 40080, Note_on_c, 11, 66, 0
10, 40080, Note_on_c, 11, 66, 127
10, 40080, Note_on_c, 11, 62, 127
10, 40080, Note_on_c, 11, 59, 127
10, 40320, Note_on_c, 11, 59, 0
10, 40320, Note_on_c, 11, 62, 0
10, 40320, Note_on_c, 11, 66, 0
10, 40320, Note_on_c, 11, 66, 127
10, 40320, Note_on_c, 11, 61, 127
10, 40320, Note_on_c, 11, 59, 127
10, 40560, Note_on_c, 11, 59, 0
10, 40560, Note_on_c, 11, 61, 0
10, 40560, Note_on_c, 11, 66, 0
10, 40560, Note_on_c, 11, 66, 127
10, 40560, Note_on_c, 11, 61, 127
10, 40560, Note_on_c, 11, 59, 127
10, 40800, Note_on_c, 11, 59, 0
10, 40800, Note_on_c, 11, 61, 0
10, 40800, Note_on_c, 11, 66, 0
10, 40800, Note_on_c, 11, 66, 127
10, 40800, Note_on_c, 11, 61, 127
10, 40800, Note_on_c, 11, 59, 127
10, 41040, Note_on_c, 11, 59, 0
10, 41040, Note_on_c, 11, 61, 0
10, 41040, Note_on_c, 11, 66, 0
10, 41040, Note_on_c, 11, 66, 127
10, 41040, Note_on_c, 11, 62, 127
10, 41040, Note_on_c, 11, 59, 127
10, 41280, Note_on_c, 11, 59, 0
10, 41280, Note_on_c, 11, 62, 0
10, 41280, Note_on_c, 11, 66, 0
10, 41280, Note_on_c, 11, 66, 127
10, 41280, Note_on_c, 11, 62, 127
10, 41280, Note_on_c, 11, 59, 127
10, 41520, Note_on_c, 11, 59, 0
10, 41520, Note_on_c, 11, 62, 0
10, 41520, Note_on_c, 11, 66, 0
10, 41520, Note_on_c, 11, 66, 127
10, 41520, Note_on_c, 11, 62, 127
10, 41520, Note_on_c, 11, 59, 127
10, 41760, Note_on_c, 11, 59, 0
10, 41760, Note_on_c, 11, 62, 0
10, 41760, Note_on_c, 11, 66, 0
10, 41760, Note_on_c, 11, 64, 127
10, 41760, Note_on_c, 11, 61, 127
10, 41760, Note_on_c, 11, 57, 127
10, 42000, Note_on_c, 11, 57, 0
10, 42000, Note_on_c, 11, 61, 0
10, 42000, Note_on_c, 11, 64, 0
10, 42000, Note_on_c, 11, 64, 127
10, 42000, Note_on_c, 11, 61, 127
10, 42000, Note_on_c, 11, 57, 127
10, 42000, Control_c, 11, 6, 32
10, 42120, Pitch_bend_c, 11, 8448
10, 42120, Pitch_bend_c, 11, 8448
10, 42150, Pitch_bend_c, 11, 8704
10, 42150, Pitch_bend_c, 11, 8704
10, 42180, Pitch_bend_c, 11, 8960
10, 42180, Pitch_bend_c, 11, 8960
10, 42210, Pitch_bend_c, 11, 9216
10, 42210, Pitch_bend_c, 11, 9216
10, 42240, Note_on_c, 11, 57, 0
10, 42240, Note_on_c, 11, 61, 0
10, 42240, Note_on_c, 11, 64, 0
10, 42240, Pitch_bend_c, 11, 8192
10, 42240, Pitch_bend_c, 11, 8192
10, 42240, Note_on_c, 11, 69, 127
10, 42240, Note_on_c, 11, 66, 127
10, 42240, Note_on_c, 11, 62, 127
10, 42480, Note_on_c, 11, 62, 0
10, 42480, Note_on_c, 11, 66, 0
10, 42480, Note_on_c, 11, 69, 0
10, 42480, Note_on_c, 11, 69, 127
10, 42480, Note_on_c, 11, 66, 127
10, 42480, Note_on_c, 11, 62, 127
10, 42720, Note_on_c, 11, 62, 0
10, 42720, Note_on_c, 11, 66, 0
10, 42720, Note_on_c, 11, 69, 0
10, 42720, Note_on_c, 11, 69, 127
10, 42720, Note_on_c, 11, 66, 127
10, 42720, Note_on_c, 11, 62, 127
10, 42960, Note_on_c, 11, 62, 0
10, 42960, Note_on_c, 11, 66, 0
10, 42960, Note_on_c, 11, 69, 0
10, 42960, Note_on_c, 11, 69, 127
10, 42960, Note_on_c, 11, 66, 127
10, 42960, Note_on_c, 11, 62, 127
10, 43200, Note_on_c, 11, 62, 0
10, 43200, Note_on_c, 11, 66, 0
10, 43200, Note_on_c, 11, 69, 0
10, 43200, Note_on_c, 11, 69, 127
10, 43200, Note_on_c, 11, 66, 127
10, 43200, Note_on_c, 11, 62, 127
10, 43440, Note_on_c, 11, 62, 0
10, 43440, Note_on_c, 11, 66, 0
10, 43440, Note_on_c, 11, 69, 0
10, 43440, Note_on_c, 11, 69, 127
10, 43440, Note_on_c, 11, 66, 127
10, 43440, Note_on_c, 11, 62, 127
10, 43680, Note_on_c, 11, 62, 0
10, 43680, Note_on_c, 11, 66, 0
10, 43680, Note_on_c, 11, 69, 0
10, 43680, Note_on_c, 11, 69, 127
10, 43680, Note_on_c, 11, 66, 127
10, 43680, Note_on_c, 11, 62, 127
10, 43920, Note_on_c, 11, 62, 0
10, 43920, Note_on_c, 11, 66, 0
10, 43920, Note_on_c, 11, 69, 0
10, 43920, Note_on_c, 11, 69, 127
10, 43920, Note_on_c, 11, 66, 127
10, 43920, Note_on_c, 11, 62, 127
10, 44160, Note_on_c, 11, 62, 0
10, 44160, Note_on_c, 11, 66, 0
10, 44160, Note_on_c, 11, 69, 0
10, 44160, Note_on_c, 11, 69, 127
10, 44160, Note_on_c, 11, 66, 127
10, 44160, Note_on_c, 11, 62, 127
10, 44400, Note_on_c, 11, 62, 0
10, 44400, Note_on_c, 11, 66, 0
10, 44400, Note_on_c, 11, 69, 0
10, 44400, Note_on_c, 11, 69, 127
10, 44400, Note_on_c, 11, 66, 127
10, 44400, Note_on_c, 11, 62, 127
10, 44640, Note_on_c, 11, 62, 0
10, 44640, Note_on_c, 11, 66, 0
10, 44640, Note_on_c, 11, 69, 0
10, 44640, Note_on_c, 11, 69, 127
10, 44640, Note_on_c, 11, 66, 127
10, 44640, Note_on_c, 11, 62, 127
10, 44880, Note_on_c, 11, 62, 0
10, 44880, Note_on_c, 11, 66, 0
10, 44880, Note_on_c, 11, 69, 0
10, 44880, Note_on_c, 11, 69, 127
10, 44880, Note_on_c, 11, 66, 127
10, 44880, Note_on_c, 11, 62, 127
10, 45120, Note_on_c, 11, 62, 0
10, 45120, Note_on_c, 11, 66, 0
10, 45120, Note_on_c, 11, 69, 0
10, 45120, Note_on_c, 11, 69, 127
10, 45120, Note_on_c, 11, 66, 127
10, 45120, Note_on_c, 11, 62, 127
10, 45360, Note_on_c, 11, 62, 0
10, 45360, Note_on_c, 11, 66, 0
10, 45360, Note_on_c, 11, 69, 0
10, 45360, Note_on_c, 11, 69, 127
10, 45360, Note_on_c, 11, 66, 127
10, 45360, Note_on_c, 11, 62, 127
10, 45600, Note_on_c, 11, 62, 0
10, 45600, Note_on_c, 11, 66, 0
10, 45600, Note_on_c, 11, 69, 0
10, 45600, Note_on_c, 11, 71, 127
10, 45600, Note_on_c, 11, 66, 127
10, 45600, Note_on_c, 11, 62, 127
10, 45600, Control_c, 11, 6, 32
10, 45840, Pitch_bend_c, 11, 7936
10, 45840, Pitch_bend_c, 11, 7936
10, 45900, Pitch_bend_c, 11, 7680
10, 45900, Pitch_bend_c, 11, 7680
10, 45900, Pitch_bend_c, 11, 7680
10, 45960, Pitch_bend_c, 11, 7424
10, 45960, Pitch_bend_c, 11, 7424
10, 45960, Pitch_bend_c, 11, 7424
10, 46020, Pitch_bend_c, 11, 7168
10, 46020, Pitch_bend_c, 11, 7168
10, 46020, Pitch_bend_c, 11, 7168
10, 46080, Note_on_c, 11, 62, 0
10, 46080, Note_on_c, 11, 66, 0
10, 46080, Note_on_c, 11, 71, 0
10, 46080, Pitch_bend_c, 11, 8192
10, 46080, Pitch_bend_c, 11, 8192
10, 46080, Note_on_c, 11, 66, 127
10, 46080, Note_on_c, 11, 62, 127
10, 46080, Note_on_c, 11, 59, 127
10, 46320, Note_on_c, 11, 59, 0
10, 46320, Note_on_c, 11, 62, 0
10, 46320, Note_on_c, 11, 66, 0
10, 46320, Note_on_c, 11, 66, 127
10, 46320, Note_on_c, 11, 62, 127
10, 46320, Note_on_c, 11, 59, 127
10, 46560, Note_on_c, 11, 59, 0
10, 46560, Note_on_c, 11, 62, 0
10, 46560, Note_on_c, 11, 66, 0
10, 46560, Note_on_c, 11, 66, 127
10, 46560, Note_on_c, 11, 62, 127
10, 46560, Note_on_c, 11, 59, 127
10, 46800, Note_on_c, 11, 59, 0
10, 46800, Note_on_c, 11, 62, 0
10, 46800, Note_on_c, 11, 66, 0
10, 46800, Note_on_c, 11, 66, 127
10, 46800, Note_on_c, 11, 62, 127
10, 46800, Note_on_c, 11, 59, 127
10, 47040, Note_on_c, 11, 59, 0
10, 47040, Note_on_c, 11, 62, 0
10, 47040, Note_on_c, 11, 66, 0
10, 47040, Note_on_c, 11, 66, 127
10, 47040, Note_on_c, 11, 62, 127
10, 47040, Note_on_c, 11, 59, 127
10, 47280, Note_on_c, 11, 59, 0
10, 47280, Note_on_c, 11, 62, 0
10, 47280, Note_on_c, 11, 66, 0
10, 47280, Note_on_c, 11, 66, 127
10, 47280, Note_on_c, 11, 62, 127
10, 47280, Note_on_c, 11, 59, 127
10, 47520, Note_on_c, 11, 59, 0
10, 47520, Note_on_c, 11, 62, 0
10, 47520, Note_on_c, 11, 66, 0
10, 47520, Note_on_c, 11, 66, 127
10, 47520, Note_on_c, 11, 62, 127
10, 47520, Note_on_c, 11, 59, 127
10, 47760, Note_on_c, 11, 59, 0
10, 47760, Note_on_c, 11, 62, 0
10, 47760, Note_on_c, 11, 66, 0
10, 47760, Note_on_c, 11, 66, 127
10, 47760, Note_on_c, 11, 62, 127
10, 47760, Note_on_c, 11, 59, 127
10, 48000, Note_on_c, 11, 59, 0
10, 48000, Note_on_c, 11, 62, 0
10, 48000, Note_on_c, 11, 66, 0
10, 48000, Note_on_c, 11, 66, 127
10, 48000, Note_on_c, 11, 62, 127
10, 48000, Note_on_c, 11, 59, 127
10, 49440, Note_on_c, 11, 59, 0
10, 49440, Note_on_c, 11, 62, 0
10, 49440, Note_on_c, 11, 66, 0
10, 49440, Note_on_c, 11, 62, 127
10, 49440, Control_c, 11, 6, 8
10, 49443, Pitch_bend_c, 11, 8192
10, 49463, Pitch_bend_c, 11, 8320
10, 49478, Pitch_bend_c, 11, 8448
10, 49492, Pitch_bend_c, 11, 8576
10, 49507, Pitch_bend_c, 11, 8704
10, 49522, Pitch_bend_c, 11, 8832
10, 49536, Pitch_bend_c, 11, 8960
10, 49551, Pitch_bend_c, 11, 9088
10, 49566, Pitch_bend_c, 11, 9216
10, 49581, Pitch_bend_c, 11, 9344
10, 49595, Pitch_bend_c, 11, 9472
10, 49610, Pitch_bend_c, 11, 9600
10, 49625, Pitch_bend_c, 11, 9728
10, 49639, Pitch_bend_c, 11, 9856
10, 49654, Pitch_bend_c, 11, 9984
10, 49669, Pitch_bend_c, 11, 10112
10, 49683, Pitch_bend_c, 11, 10240
10, 49698, Pitch_bend_c, 11, 10368
10, 49713, Pitch_bend_c, 11, 10496
10, 49727, Pitch_bend_c, 11, 10624
10, 49742, Pitch_bend_c, 11, 10752
10, 49757, Pitch_bend_c, 11, 10880
10, 49772, Pitch_bend_c, 11, 11008
10, 49786, Pitch_bend_c, 11, 11136
10, 49801, Pitch_bend_c, 11, 11264
10, 49816, Pitch_bend_c, 11, 11392
10, 49830, Pitch_bend_c, 11, 11520
10, 49845, Pitch_bend_c, 11, 11648
10, 49860, Pitch_bend_c, 11, 11776
10, 49874, Pitch_bend_c, 11, 11904
10, 49889, Pitch_bend_c, 11, 12032
10, 49904, Pitch_bend_c, 11, 12160
10, 49918, Pitch_bend_c, 11, 12288
10, 49920, Note_on_c, 11, 62, 0
10, 49923, Pitch_bend_c, 11, 8192
10, 76800, Note_on_c, 11, 62, 127
10, 76800, Note_on_c, 11, 69, 127
10, 76800, Note_on_c, 11, 66, 127
10, 77040, Note_on_c, 11, 66, 0
10, 77040, Note_on_c, 11, 69, 0
10, 77040, Note_on_c, 11, 62, 0
10, 77040, Note_on_c, 11, 66, 127
10, 77040, Note_on_c, 11, 62, 127
10, 77040, Note_on_c, 11, 69, 127
10, 77280, Note_on_c, 11, 69, 0
10, 77280, Note_on_c, 11, 62, 0
10, 77280, Note_on_c, 11, 66, 0
10, 77280, Note_on_c, 11, 69, 127
10, 77280, Note_on_c, 11, 66, 127
10, 77280, Note_on_c, 11, 62, 127
10, 77520, Note_on_c, 11, 62, 0
10, 77520, Note_on_c, 11, 66, 0
10, 77520, Note_on_c, 11, 69, 0
10, 77520, Note_on_c, 11, 66, 127
10, 77520, Note_on_c, 11, 69, 127
10, 77520, Note_on_c, 11, 62, 127
10, 77760, Note_on_c, 11, 62, 0
10, 77760, Note_on_c, 11, 69, 0
10, 77760, Note_on_c, 11, 66, 0
10, 77760, Note_on_c, 11, 62, 127
10, 77760, Note_on_c, 11, 69, 127
10, 77760, Note_on_c, 11, 66, 127
10, 78000, Note_on_c, 11, 66, 0
10, 78000, Note_on_c, 11, 69, 0
10, 78000, Note_on_c, 11, 62, 0
10, 78000, Note_on_c, 11, 66, 127
10, 78000, Note_on_c, 11, 69, 127
10, 78000, Note_on_c, 11, 62, 127
10, 78240, Note_on_c, 11, 62, 0
10, 78240, Note_on_c, 11, 69, 0
10, 78240, Note_on_c, 11, 66, 0
10, 78240, Note_on_c, 11, 69, 127
10, 78240, Note_on_c, 11, 62, 127
10, 78240, Note_on_c, 11, 66, 127
10, 78480, Note_on_c, 11, 66, 0
10, 78480, Note_on_c, 11, 62, 0
10, 78480, Note_on_c, 11, 69, 0
10, 78480, Note_on_c, 11, 69, 127
10, 78480, Note_on_c, 11, 62, 127
10, 78480, Note_on_c, 11, 66, 127
10, 78720, Note_on_c, 11, 66, 0
10, 78720, Note_on_c, 11, 62, 0
10, 78720, Note_on_c, 11, 69, 0
10, 78720, Note_on_c, 11, 62, 127
10, 78720, Note_on_c, 11, 66, 127
10, 78720, Note_on_c, 11, 69, 127
10, 78960, Note_on_c, 11, 69, 0
10, 78960, Note_on_c, 11, 66, 0
10, 78960, Note_on_c, 11, 62, 0
10, 78960, Note_on_c, 11, 66, 127
10, 78960, Note_on_c, 11, 69, 127
10, 78960, Note_on_c, 11, 62, 127
10, 79200, Note_on_c, 11, 62, 0
10, 79200, Note_on_c, 11, 69, 0
10, 79200, Note_on_c, 11, 66, 0
10, 79200, Note_on_c, 11, 69, 127
10, 79200, Note_on_c, 11, 62, 127
10, 79200, Note_on_c, 11, 66, 127
10, 79440, Note_on_c, 11, 66, 0
10, 79440, Note_on_c, 11, 62, 0
10, 79440, Note_on_c, 11, 69, 0
10, 79440, Note_on_c, 11, 69, 127
10, 79440, Note_on_c, 11, 66, 127
10, 79440, Note_on_c, 11, 62, 127
10, 79680, Note_on_c, 11, 62, 0
10, 79680, Note_on_c, 11, 66, 0
10, 79680, Note_on_c, 11, 69, 0
10, 79680, Note_on_c, 11, 62, 127
10, 79680, Note_on_c, 11, 66, 127
10, 79680, Note_on_c, 11, 69, 127
10, 79920, Note_on_c, 11, 69, 0
10, 79920, Note_on_c, 11, 66, 0
10, 79920, Note_on_c, 11, 62, 0
10, 79920, Note_on_c, 11, 69, 127
10, 79920, Note_on_c, 11, 62, 127
10, 79920, Note_on_c, 11, 66, 127
10, 80160, Note_on_c, 11, 66, 0
10, 80160, Note_on_c, 11, 62, 0
10, 80160, Note_on_c, 11, 69, 0
10, 80160, Note_on_c, 11, 62, 127
10, 80160, Note_on_c, 11, 71, 127
10, 80160, Note_on_c, 11, 66, 127
10, 80160, Control_c, 11, 6, 32
10, 80400, Pitch_bend_c, 11, 7936
10, 80400, Pitch_bend_c, 11, 7936
10, 80460, Pitch_bend_c, 11, 7680
10, 80460, Pitch_bend_c, 11, 7680
10, 80460, Pitch_bend_c, 11, 7680
10, 80520, Pitch_bend_c, 11, 7424
10, 80520, Pitch_bend_c, 11, 7424
10, 80520, Pitch_bend_c, 11, 7424
10, 80580, Pitch_bend_c, 11, 7168
10, 80580, Pitch_bend_c, 11, 7168
10, 80580, Pitch_bend_c, 11, 7168
10, 80640, Note_on_c, 11, 66, 0
10, 80640, Note_on_c, 11, 71, 0
10, 80640, Note_on_c, 11, 62, 0
10, 80640, Note_on_c, 11, 66, 127
10, 80640, Note_on_c, 11, 59, 127
10, 80640, Note_on_c, 11, 62, 127
10, 80640, Pitch_bend_c, 11, 8192
10, 80640, Pitch_bend_c, 11, 8192
10, 80880, Note_on_c, 11, 62, 0
10, 80880, Note_on_c, 11, 59, 0
10, 80880, Note_on_c, 11, 66, 0
10, 80880, Note_on_c, 11, 66, 127
10, 80880, Note_on_c, 11, 62, 127
10, 80880, Note_on_c, 11, 59, 127
10, 81120, Note_on_c, 11, 59, 0
10, 81120, Note_on_c, 11, 62, 0
10, 81120, Note_on_c, 11, 66, 0
10, 81120, Note_on_c, 11, 62, 127
10, 81120, Note_on_c, 11, 66, 127
10, 81120, Note_on_c, 11, 59, 127
10, 81360, Note_on_c, 11, 59, 0
10, 81360, Note_on_c, 11, 66, 0
10, 81360, Note_on_c, 11, 62, 0
10, 81360, Note_on_c, 11, 59, 127
10, 81360, Note_on_c, 11, 66, 127
10, 81360, Note_on_c, 11, 62, 127
10, 81600, Note_on_c, 11, 62, 0
10, 81600, Note_on_c, 11, 66, 0
10, 81600, Note_on_c, 11, 59, 0
10, 81600, Note_on_c, 11, 59, 127
10, 81600, Note_on_c, 11, 62, 127
10, 81600, Note_on_c, 11, 66, 127
10, 81840, Note_on_c, 11, 66, 0
10, 81840, Note_on_c, 11, 62, 0
10, 81840, Note_on_c, 11, 59, 0
10, 81840, Note_on_c, 11, 62, 127
10, 81840, Note_on_c, 11, 66, 127
10, 81840, Note_on_c, 11, 59, 127
10, 82080, Note_on_c, 11, 59, 0
10, 82080, Note_on_c, 11, 66, 0
10, 82080, Note_on_c, 11, 62, 0
10, 82080, Note_on_c, 11, 62, 127
10, 82080, Note_on_c, 11, 66, 127
10, 82080, Note_on_c, 11, 59, 127
10, 82320, Note_on_c, 11, 59, 0
10, 82320, Note_on_c, 11, 66, 0
10, 82320, Note_on_c, 11, 62, 0
10, 82320, Note_on_c, 11, 66, 127
10, 82320, Note_on_c, 11, 59, 127
10, 82320, Note_on_c, 11, 62, 127
10, 82560, Note_on_c, 11, 62, 0
10, 82560, Note_on_c, 11, 59, 0
10, 82560, Note_on_c, 11, 66, 0
10, 82560, Note_on_c, 11, 61, 127
10, 82560, Note_on_c, 11, 66, 127
10, 82560, Note_on_c, 11, 59, 127
10, 82800, Note_on_c, 11, 59, 0
10, 82800, Note_on_c, 11, 66, 0
10, 82800, Note_on_c, 11, 61, 0
10, 82800, Note_on_c, 11, 66, 127
10, 82800, Note_on_c, 11, 59, 127
10, 82800, Note_on_c, 11, 61, 127
10, 83040, Note_on_c, 11, 61, 0
10, 83040, Note_on_c, 11, 59, 0
10, 83040, Note_on_c, 11, 66, 0
10, 83040, Note_on_c, 11, 66, 127
10, 83040, Note_on_c, 11, 59, 127
10, 83040, Note_on_c, 11, 61, 127
10, 83280, Note_on_c, 11, 61, 0
10, 83280, Note_on_c, 11, 59, 0
10, 83280, Note_on_c, 11, 66, 0
10, 83280, Note_on_c, 11, 62, 127
10, 83280, Note_on_c, 11, 59, 127
10, 83280, Note_on_c, 11, 66, 127
10, 83520, Note_on_c, 11, 66, 0
10, 83520, Note_on_c, 11, 59, 0
10, 83520, Note_on_c, 11, 62, 0
10, 83520, Note_on_c, 11, 66, 127
10, 83520, Note_on_c, 11, 62, 127
10, 83520, Note_on_c, 11, 59, 127
10, 83760, Note_on_c, 11, 59, 0
10, 83760, Note_on_c, 11, 62, 0
10, 83760, Note_on_c, 11, 66, 0
10, 83760, Note_on_c, 11, 62, 127
10, 83760, Note_on_c, 11, 59, 127
10, 83760, Note_on_c, 11, 66, 127
10, 84000, Note_on_c, 11, 66, 0
10, 84000, Note_on_c, 11, 59, 0
10, 84000, Note_on_c, 11, 62, 0
10, 84000, Note_on_c, 11, 57, 127
10, 84000, Note_on_c, 11, 64, 127
10, 84000, Note_on_c, 11, 61, 127
10, 84240, Note_on_c, 11, 61, 0
10, 84240, Note_on_c, 11, 64, 0
10, 84240, Note_on_c, 11, 57, 0
10, 84240, Note_on_c, 11, 61, 127
10, 84240, Note_on_c, 11, 57, 127
10, 84240, Note_on_c, 11, 64, 127
10, 84240, Control_c, 11, 6, 32
10, 84360, Pitch_bend_c, 11, 8448
10, 84360, Pitch_bend_c, 11, 8448
10, 84390, Pitch_bend_c, 11, 8704
10, 84390, Pitch_bend_c, 11, 8704
10, 84420, Pitch_bend_c, 11, 8960
10, 84420, Pitch_bend_c, 11, 8960
10, 84450, Pitch_bend_c, 11, 9216
10, 84450, Pitch_bend_c, 11, 9216
10, 84480, Note_on_c, 11, 64, 0
10, 84480, Note_on_c, 11, 57, 0
10, 84480, Note_on_c, 11, 61, 0
10, 84480, Note_on_c, 11, 69, 127
10, 84480, Pitch_bend_c, 11, 8192
10, 84480, Pitch_bend_c, 11, 8192
10, 84480, Note_on_c, 11, 62, 127
10, 84480, Note_on_c, 11, 66, 127
10, 84720, Note_on_c, 11, 66, 0
10, 84720, Note_on_c, 11, 62, 0
10, 84720, Note_on_c, 11, 69, 0
10, 84720, Note_on_c, 11, 62, 127
10, 84720, Note_on_c, 11, 69, 127
10, 84720, Note_on_c, 11, 66, 127
10, 84960, Note_on_c, 11, 66, 0
10, 84960, Note_on_c, 11, 69, 0
10, 84960, Note_on_c, 11, 62, 0
10, 84960, Note_on_c, 11, 69, 127
10, 84960, Note_on_c, 11, 66, 127
10, 84960, Note_on_c, 11, 62, 127
10, 85200, Note_on_c, 11, 62, 0
10, 85200, Note_on_c, 11, 66, 0
10, 85200, Note_on_c, 11, 69, 0
10, 85200, Note_on_c, 11, 62, 127
10, 85200, Note_on_c, 11, 66, 127
10, 85200, Note_on_c, 11, 69, 127
10, 85440, Note_on_c, 11, 69, 0
10, 85440, Note_on_c, 11, 66, 0
10, 85440, Note_on_c, 11, 62, 0
10, 85440, Note_on_c, 11, 66, 127
10, 85440, Note_on_c, 11, 69, 127
10, 85440, Note_on_c, 11, 62, 127
10, 85680, Note_on_c, 11, 62, 0
10, 85680, Note_on_c, 11, 69, 0
10, 85680, Note_on_c, 11, 66, 0
10, 85680, Note_on_c, 11, 66, 127
10, 85680, Note_on_c, 11, 69, 127
10, 85680, Note_on_c, 11, 62, 127
10, 85920, Note_on_c, 11, 62, 0
10, 85920, Note_on_c, 11, 69, 0
10, 85920, Note_on_c, 11, 66, 0
10, 85920, Note_on_c, 11, 62, 127
10, 85920, Note_on_c, 11, 69, 127
10, 85920, Note_on_c, 11, 66, 127
10, 86160, Note_on_c, 11, 66, 0
10, 86160, Note_on_c, 11, 69, 0
10, 86160, Note_on_c, 11, 62, 0
10, 86160, Note_on_c, 11, 66, 127
10, 86160, Note_on_c, 11, 69, 127
10, 86160, Note_on_c, 11, 62, 127
10, 86400, Note_on_c, 11, 62, 0
10, 86400, Note_on_c, 11, 69, 0
10, 86400, Note_on_c, 11, 66, 0
10, 86400, Note_on_c, 11, 69, 127
10, 86400, Note_on_c, 11, 62, 127
10, 86400, Note_on_c, 11, 66, 127
10, 86640, Note_on_c, 11, 66, 0
10, 86640, Note_on_c, 11, 62, 0
10, 86640, Note_on_c, 11, 69, 0
10, 86640, Note_on_c, 11, 69, 127
10, 86640, Note_on_c, 11, 62, 127
10, 86640, Note_on_c, 11, 66, 127
10, 86880, Note_on_c, 11, 66, 0
10, 86880, Note_on_c, 11, 62, 0
10, 86880, Note_on_c, 11, 69, 0
10, 86880, Note_on_c, 11, 66, 127
10, 86880, Note_on_c, 11, 62, 127
10, 86880, Note_on_c, 11, 69, 127
10, 87120, Note_on_c, 11, 69, 0
10, 87120, Note_on_c, 11, 62, 0
10, 87120, Note_on_c, 11, 66, 0
10, 87120, Note_on_c, 11, 69, 127
10, 87120, Note_on_c, 11, 66, 127
10, 87120, Note_on_c, 11, 62, 127
10, 87360, Note_on_c, 11, 62, 0
10, 87360, Note_on_c, 11, 66, 0
10, 87360, Note_on_c, 11, 69, 0
10, 87360, Note_on_c, 11, 66, 127
10, 87360, Note_on_c, 11, 62, 127
10, 87360, Note_on_c, 11, 69, 127
10, 87600, Note_on_c, 11, 69, 0
10, 87600, Note_on_c, 11, 62, 0
10, 87600, Note_on_c, 11, 66, 0
10, 87600, Note_on_c, 11, 62, 127
10, 87600, Note_on_c, 11, 69, 127
10, 87600, Note_on_c, 11, 66, 127
10, 87840, Note_on_c, 11, 66, 0
10, 87840, Note_on_c, 11, 69, 0
10, 87840, Note_on_c, 11, 62, 0
10, 87840, Note_on_c, 11, 62, 127
10, 87840, Control_c, 11, 6, 32
10, 87840, Note_on_c, 11, 66, 127
10, 87840, Note_on_c, 11, 71, 127
10, 88080, Pitch_bend_c, 11, 7936
10, 88080, Pitch_bend_c, 11, 7936
10, 88140, Pitch_bend_c, 11, 7680
10, 88140, Pitch_bend_c, 11, 7680
10, 88140, Pitch_bend_c, 11, 7680
10, 88200, Pitch_bend_c, 11, 7424
10, 88200, Pitch_bend_c, 11, 7424
10, 88200, Pitch_bend_c, 11, 7424
10, 88260, Pitch_bend_c, 11, 7168
10, 88260, Pitch_bend_c, 11, 7168
10, 88260, Pitch_bend_c, 11, 7168
10, 88320, Note_on_c, 11, 71, 0
10, 88320, Note_on_c, 11, 66, 0
10, 88320, Note_on_c, 11, 62, 0
10, 88320, Note_on_c, 11, 59, 127
10, 88320, Pitch_bend_c, 11, 8192
10, 88320, Pitch_bend_c, 11, 8192
10, 88320, Note_on_c, 11, 66, 127
10, 88320, Note_on_c, 11, 62, 127
10, 88560, Note_on_c, 11, 62, 0
10, 88560, Note_on_c, 11, 66, 0
10, 88560, Note_on_c, 11, 59, 0
10, 88560, Note_on_c, 11, 59, 127
10, 88560, Note_on_c, 11, 66, 127
10, 88560, Note_on_c, 11, 62, 127
10, 88800, Note_on_c, 11, 62, 0
10, 88800, Note_on_c, 11, 66, 0
10, 88800, Note_on_c, 11, 59, 0
10, 88800, Note_on_c, 11, 62, 127
10, 88800, Note_on_c, 11, 59, 127
10, 88800, Note_on_c, 11, 66, 127
10, 89040, Note_on_c, 11, 66, 0
10, 89040, Note_on_c, 11, 59, 0
10, 89040, Note_on_c, 11, 62, 0
10, 89040, Note_on_c, 11, 66, 127
10, 89040, Note_on_c, 11, 62, 127
10, 89040, Note_on_c, 11, 59, 127
10, 89280, Note_on_c, 11, 59, 0
10, 89280, Note_on_c, 11, 62, 0
10, 89280, Note_on_c, 11, 66, 0
10, 89280, Note_on_c, 11, 62, 127
10, 89280, Note_on_c, 11, 66, 127
10, 89280, Note_on_c, 11, 59, 127
10, 89520, Note_on_c, 11, 59, 0
10, 89520, Note_on_c, 11, 66, 0
10, 89520, Note_on_c, 11, 62, 0
10, 89520, Note_on_c, 11, 59, 127
10, 89520, Note_on_c, 11, 66, 127
10, 89520, Note_on_c, 11, 62, 127
10, 89760, Note_on_c, 11, 62, 0
10, 89760, Note_on_c, 11, 66, 0
10, 89760, Note_on_c, 11, 59, 0
10, 89760, Note_on_c, 11, 62, 127
10, 89760, Note_on_c, 11, 66, 127
10, 89760, Note_on_c, 11, 59, 127
10, 90000, Note_on_c, 11, 59, 0
10, 90000, Note_on_c, 11, 66, 0
10, 90000, Note_on_c, 11, 62, 0
10, 90000, Note_on_c, 11, 66, 127
10, 90000, Note_on_c, 11, 59, 127
10, 90000, Note_on_c, 11, 62, 127
10, 90240, Note_on_c, 11, 62, 0
10, 90240, Note_on_c, 11, 59, 0
10, 90240, Note_on_c, 11, 66, 0
10, 90240, Note_on_c, 11, 66, 127
10, 90240, Note_on_c, 11, 59, 127
10, 90240, Note_on_c, 11, 62, 127
10, 91680, Note_on_c, 11, 62, 0
10, 91680, Note_on_c, 11, 59, 0
10, 91680, Note_on_c, 11, 66, 0
10, 91680, Control_c, 11, 6, 8
10, 91680, Note_on_c, 11, 62, 127
10, 91687, Pitch_bend_c, 11, 8320
10, 91694, Pitch_bend_c, 11, 8448
10, 91701, Pitch_bend_c, 11, 8576
10, 91708, Pitch_bend_c, 11, 8704
10, 91715, Pitch_bend_c, 11, 8832
10, 91722, Pitch_bend_c, 11, 8960
10, 91729, Pitch_bend_c, 11, 9088
10, 91736, Pitch_bend_c, 11, 9216
10, 91743, Pitch_bend_c, 11, 9344
10, 91750, Pitch_bend_c, 11, 9472
10, 91757, Pitch_bend_c, 11, 9600
10, 91764, Pitch_bend_c, 11, 9728
10, 91771, Pitch_bend_c, 11, 9856
10, 91778, Pitch_bend_c, 11, 9984
10, 91785, Pitch_bend_c, 11, 10112
10, 91792, Pitch_bend_c, 11, 10240
10, 91799, Pitch_bend_c, 11, 10368
10, 91806, Pitch_bend_c, 11, 10496
10, 91813, Pitch_bend_c, 11, 10624
10, 91820, Pitch_bend_c, 11, 10752
10, 91827, Pitch_bend_c, 11, 10880
10, 91834, Pitch_bend_c, 11, 11008
10, 91841, Pitch_bend_c, 11, 11136
10, 91848, Pitch_bend_c, 11, 11264
10, 91855, Pitch_bend_c, 11, 11392
10, 91862, Pitch_bend_c, 11, 11520
10, 91869, Pitch_bend_c, 11, 11648
10, 91876, Pitch_bend_c, 11, 11776
10, 91883, Pitch_bend_c, 11, 11904
10, 91890, Pitch_bend_c, 11, 12032
10, 91897, Pitch_bend_c, 11, 12288
10, 91904, Pitch_bend_c, 11, 8192
10, 92160, Note_on_c, 11, 62, 0
10, 111360, Note_on_c, 11, 66, 127
10, 111360, Note_on_c, 11, 62, 127
10, 111360, Note_on_c, 11, 69, 127
10, 111600, Note_on_c, 11, 69, 0
10, 111600, Note_on_c, 11, 62, 0
10, 111600, Note_on_c, 11, 66, 0
10, 111600, Note_on_c, 11, 69, 127
10, 111600, Note_on_c, 11, 66, 127
10, 111600, Note_on_c, 11, 62, 127
10, 111840, Note_on_c, 11, 62, 0
10, 111840, Note_on_c, 11, 66, 0
10, 111840, Note_on_c, 11, 69, 0
10, 111840, Note_on_c, 11, 62, 127
10, 111840, Note_on_c, 11, 69, 127
10, 111840, Note_on_c, 11, 66, 127
10, 112080, Note_on_c, 11, 66, 0
10, 112080, Note_on_c, 11, 69, 0
10, 112080, Note_on_c, 11, 62, 0
10, 112080, Note_on_c, 11, 69, 127
10, 112080, Note_on_c, 11, 66, 127
10, 112080, Note_on_c, 11, 62, 127
10, 112320, Note_on_c, 11, 62, 0
10, 112320, Note_on_c, 11, 66, 0
10, 112320, Note_on_c, 11, 69, 0
10, 112320, Note_on_c, 11, 69, 127
10, 112320, Note_on_c, 11, 62, 127
10, 112320, Note_on_c, 11, 66, 127
10, 112560, Note_on_c, 11, 66, 0
10, 112560, Note_on_c, 11, 62, 0
10, 112560, Note_on_c, 11, 69, 0
10, 112560, Note_on_c, 11, 66, 127
10, 112560, Note_on_c, 11, 62, 127
10, 112560, Note_on_c, 11, 69, 127
10, 112800, Note_on_c, 11, 69, 0
10, 112800, Note_on_c, 11, 62, 0
10, 112800, Note_on_c, 11, 66, 0
10, 112800, Note_on_c, 11, 69, 127
10, 112800, Note_on_c, 11, 62, 127
10, 112800, Note_on_c, 11, 66, 127
10, 113040, Note_on_c, 11, 66, 0
10, 113040, Note_on_c, 11, 62, 0
10, 113040, Note_on_c, 11, 69, 0
10, 113040, Note_on_c, 11, 62, 127
10, 113040, Note_on_c, 11, 66, 127
10, 113040, Note_on_c, 11, 69, 127
10, 113280, Note_on_c, 11, 69, 0
10, 113280, Note_on_c, 11, 66, 0
10, 113280, Note_on_c, 11, 62, 0
10, 113280, Note_on_c, 11, 69, 127
10, 113280, Note_on_c, 11, 66, 127
10, 113280, Note_on_c, 11, 62, 127
10, 113520, Note_on_c, 11, 62, 0
10, 113520, Note_on_c, 11, 66, 0
10, 113520, Note_on_c, 11, 69, 0
10, 113520, Note_on_c, 11, 69, 127
10, 113520, Note_on_c, 11, 62, 127
10, 113520, Note_on_c, 11, 66, 127
10, 113760, Note_on_c, 11, 66, 0
10, 113760, Note_on_c, 11, 62, 0
10, 113760, Note_on_c, 11, 69, 0
10, 113760, Note_on_c, 11, 62, 127
10, 113760, Note_on_c, 11, 66, 127
10, 113760, Note_on_c, 11, 69, 127
10, 114000, Note_on_c, 11, 69, 0
10, 114000, Note_on_c, 11, 66, 0
10, 114000, Note_on_c, 11, 62, 0
10, 114000, Note_on_c, 11, 62, 127
10, 114000, Note_on_c, 11, 66, 127
10, 114000, Note_on_c, 11, 69, 127
10, 114240, Note_on_c, 11, 69, 0
10, 114240, Note_on_c, 11, 66, 0
10, 114240, Note_on_c, 11, 62, 0
10, 114240, Note_on_c, 11, 69, 127
10, 114240, Note_on_c, 11, 62, 127
10, 114240, Note_on_c, 11, 66, 127
10, 114480, Note_on_c, 11, 66, 0
10, 114480, Note_on_c, 11, 62, 0
10, 114480, Note_on_c, 11, 69, 0
10, 114480, Note_on_c, 11, 66, 127
10, 114480, Note_on_c, 11, 69, 127
10, 114480, Note_on_c, 11, 62, 127
10, 114720, Note_on_c, 11, 62, 0
10, 114720, Note_on_c, 11, 69, 0
10, 114720, Note_on_c, 11, 66, 0
10, 114720, Note_on_c, 11, 62, 127
10, 114720, Note_on_c, 11, 71, 127
10, 114720, Note_on_c, 11, 66, 127
10, 114720, Control_c, 11, 6, 32
10, 114960, Pitch_bend_c, 11, 7936
10, 114960, Pitch_bend_c, 11, 7936
10, 115020, Pitch_bend_c, 11, 7680
10, 115020, Pitch_bend_c, 11, 7680
10, 115020, Pitch_bend_c, 11, 7680
10, 115080, Pitch_bend_c, 11, 7424
10, 115080, Pitch_bend_c, 11, 7424
10, 115080, Pitch_bend_c, 11, 7424
10, 115140, Pitch_bend_c, 11, 7168
10, 115140, Pitch_bend_c, 11, 7168
10, 115140, Pitch_bend_c, 11, 7168
10, 115200, Note_on_c, 11, 66, 0
10, 115200, Note_on_c, 11, 71, 0
10, 115200, Note_on_c, 11, 62, 0
10, 115200, Pitch_bend_c, 11, 8192
10, 115200, Note_on_c, 11, 66, 127
10, 115200, Pitch_bend_c, 11, 8192
10, 115200, Note_on_c, 11, 62, 127
10, 115200, Note_on_c, 11, 59, 127
10, 115440, Note_on_c, 11, 59, 0
10, 115440, Note_on_c, 11, 62, 0
10, 115440, Note_on_c, 11, 66, 0
10, 115440, Note_on_c, 11, 62, 127
10, 115440, Note_on_c, 11, 59, 127
10, 115440, Note_on_c, 11, 66, 127
10, 115680, Note_on_c, 11, 66, 0
10, 115680, Note_on_c, 11, 59, 0
10, 115680, Note_on_c, 11, 62, 0
10, 115680, Note_on_c, 11, 66, 127
10, 115680, Note_on_c, 11, 62, 127
10, 115680, Note_on_c, 11, 59, 127
10, 115920, Note_on_c, 11, 59, 0
10, 115920, Note_on_c, 11, 62, 0
10, 115920, Note_on_c, 11, 66, 0
10, 115920, Note_on_c, 11, 66, 127
10, 115920, Note_on_c, 11, 62, 127
10, 115920, Note_on_c, 11, 59, 127
10, 116160, Note_on_c, 11, 59, 0
10, 116160, Note_on_c, 11, 62, 0
10, 116160, Note_on_c, 11, 66, 0
10, 116160, Note_on_c, 11, 62, 127
10, 116160, Note_on_c, 11, 59, 127
10, 116160, Note_on_c, 11, 66, 127
10, 116400, Note_on_c, 11, 66, 0
10, 116400, Note_on_c, 11, 59, 0
10, 116400, Note_on_c, 11, 62, 0
10, 116400, Note_on_c, 11, 59, 127
10, 116400, Note_on_c, 11, 62, 127
10, 116400, Note_on_c, 11, 66, 127
10, 116640, Note_on_c, 11, 66, 0
10, 116640, Note_on_c, 11, 62, 0
10, 116640, Note_on_c, 11, 59, 0
10, 116640, Note_on_c, 11, 66, 127
10, 116640, Note_on_c, 11, 59, 127
10, 116640, Note_on_c, 11, 62, 127
10, 116880, Note_on_c, 11, 62, 0
10, 116880, Note_on_c, 11, 59, 0
10, 116880, Note_on_c, 11, 66, 0
10, 116880, Note_on_c, 11, 62, 127
10, 116880, Note_on_c, 11, 66, 127
10, 116880, Note_on_c, 11, 59, 127
10, 117120, Note_on_c, 11, 59, 0
10, 117120, Note_on_c, 11, 66, 0
10, 117120, Note_on_c, 11, 62, 0
10, 117120, Note_on_c, 11, 61, 127
10, 117120, Note_on_c, 11, 59, 127
10, 117120, Note_on_c, 11, 66, 127
10, 117360, Note_on_c, 11, 66, 0
10, 117360, Note_on_c, 11, 59, 0
10, 117360, Note_on_c, 11, 61, 0
10, 117360, Note_on_c, 11, 66, 127
10, 117360, Note_on_c, 11, 59, 127
10, 117360, Note_on_c, 11, 61, 127
10, 117600, Note_on_c, 11, 61, 0
10, 117600, Note_on_c, 11, 59, 0
10, 117600, Note_on_c, 11, 66, 0
10, 117600, Note_on_c, 11, 66, 127
10, 117600, Note_on_c, 11, 59, 127
10, 117600, Note_on_c, 11, 61, 127
10, 117840, Note_on_c, 11, 61, 0
10, 117840, Note_on_c, 11, 59, 0
10, 117840, Note_on_c, 11, 66, 0
10, 117840, Note_on_c, 11, 62, 127
10, 117840, Note_on_c, 11, 66, 127
10, 117840, Note_on_c, 11, 59, 127
10, 118080, Note_on_c, 11, 59, 0
10, 118080, Note_on_c, 11, 66, 0
10, 118080, Note_on_c, 11, 62, 0
10, 118080, Note_on_c, 11, 59, 127
10, 118080, Note_on_c, 11, 62, 127
10, 118080, Note_on_c, 11, 66, 127
10, 118320, Note_on_c, 11, 66, 0
10, 118320, Note_on_c, 11, 62, 0
10, 118320, Note_on_c, 11, 59, 0
10, 118320, Note_on_c, 11, 66, 127
10, 118320, Note_on_c, 11, 62, 127
10, 118320, Note_on_c, 11, 59, 127
10, 118560, Note_on_c, 11, 59, 0
10, 118560, Note_on_c, 11, 62, 0
10, 118560, Note_on_c, 11, 66, 0
10, 118560, Note_on_c, 11, 61, 127
10, 118560, Note_on_c, 11, 57, 127
10, 118560, Note_on_c, 11, 64, 127
10, 118800, Note_on_c, 11, 64, 0
10, 118800, Note_on_c, 11, 57, 0
10, 118800, Note_on_c, 11, 61, 0
10, 118800, Note_on_c, 11, 64, 127
10, 118800, Note_on_c, 11, 57, 127
10, 118800, Control_c, 11, 6, 32
10, 118800, Note_on_c, 11, 61, 127
10, 118920, Pitch_bend_c, 11, 8448
10, 118920, Pitch_bend_c, 11, 8448
10, 118950, Pitch_bend_c, 11, 8704
10, 118950, Pitch_bend_c, 11, 8704
10, 118980, Pitch_bend_c, 11, 8960
10, 118980, Pitch_bend_c, 11, 8960
10, 119010, Pitch_bend_c, 11, 9216
10, 119010, Pitch_bend_c, 11, 9216
10, 119040, Note_on_c, 11, 61, 0
10, 119040, Note_on_c, 11, 57, 0
10, 119040, Note_on_c, 11, 64, 0
10, 119040, Note_on_c, 11, 62, 127
10, 119040, Note_on_c, 11, 66, 127
10, 119040, Note_on_c, 11, 69, 127
10, 119040, Pitch_bend_c, 11, 8192
10, 119040, Pitch_bend_c, 11, 8192
10, 119280, Note_on_c, 11, 69, 0
10, 119280, Note_on_c, 11, 66, 0
10, 119280, Note_on_c, 11, 62, 0
10, 119280, Note_on_c, 11, 66, 127
10, 119280, Note_on_c, 11, 62, 127
10, 119280, Note_on_c, 11, 69, 127
10, 119520, Note_on_c, 11, 69, 0
10, 119520, Note_on_c, 11, 62, 0
10, 119520, Note_on_c, 11, 66, 0
10, 119520, Note_on_c, 11, 66, 127
10, 119520, Note_on_c, 11, 62, 127
10, 119520, Note_on_c, 11, 69, 127
10, 119760, Note_on_c, 11, 69, 0
10, 119760, Note_on_c, 11, 62, 0
10, 119760, Note_on_c, 11, 66, 0
10, 119760, Note_on_c, 11, 62, 127
10, 119760, Note_on_c, 11, 69, 127
10, 119760, Note_on_c, 11, 66, 127
10, 120000, Note_on_c, 11, 66, 0
10, 120000, Note_on_c, 11, 69, 0
10, 120000, Note_on_c, 11, 62, 0
10, 120000, Note_on_c, 11, 62, 127
10, 120000, Note_on_c, 11, 69, 127
10, 120000, Note_on_c, 11, 66, 127
10, 120240, Note_on_c, 11, 66, 0
10, 120240, Note_on_c, 11, 69, 0
10, 120240, Note_on_c, 11, 62, 0
10, 120240, Note_on_c, 11, 66, 127
10, 120240, Note_on_c, 11, 69, 127
10, 120240, Note_on_c, 11, 62, 127
10, 120480, Note_on_c, 11, 62, 0
10, 120480, Note_on_c, 11, 69, 0
10, 120480, Note_on_c, 11, 66, 0
10, 120480, Note_on_c, 11, 69, 127
10, 120480, Note_on_c, 11, 62, 127
10, 120480, Note_on_c, 11, 66, 127
10, 120720, Note_on_c, 11, 66, 0
10, 120720, Note_on_c, 11, 62, 0
10, 120720, Note_on_c, 11, 69, 0
10, 120720, Note_on_c, 11, 66, 127
10, 120720, Note_on_c, 11, 62, 127
10, 120720, Note_on_c, 11, 69, 127
10, 120960, Note_on_c, 11, 69, 0
10, 120960, Note_on_c, 11, 62, 0
10, 120960, Note_on_c, 11, 66, 0
10, 120960, Note_on_c, 11, 62, 127
10, 120960, Note_on_c, 11, 66, 127
10, 120960, Note_on_c, 11, 69, 127
10, 121200, Note_on_c, 11, 69, 0
10, 121200, Note_on_c, 11, 66, 0
10, 121200, Note_on_c, 11, 62, 0
10, 121200, Note_on_c, 11, 69, 127
10, 121200, Note_on_c, 11, 62, 127
10, 121200, Note_on_c, 11, 66, 127
10, 121440, Note_on_c, 11, 66, 0
10, 121440, Note_on_c, 11, 62, 0
10, 121440, Note_on_c, 11, 69, 0
10, 121440, Note_on_c, 11, 66, 127
10, 121440, Note_on_c, 11, 69, 127
10, 121440, Note_on_c, 11, 62, 127
10, 121680, Note_on_c, 11, 62, 0
10, 121680, Note_on_c, 11, 69, 0
10, 121680, Note_on_c, 11, 66, 0
10, 121680, Note_on_c, 11, 62, 127
10, 121680, Note_on_c, 11, 66, 127
10, 121680, Note_on_c, 11, 69, 127
10, 121920, Note_on_c, 11, 69, 0
10, 121920, Note_on_c, 11, 66, 0
10, 121920, Note_on_c, 11, 62, 0
10, 121920, Note_on_c, 11, 66, 127
10, 121920, Note_on_c, 11, 69, 127
10, 121920, Note_on_c, 11, 62, 127
10, 122160, Note_on_c, 11, 62, 0
10, 122160, Note_on_c, 11, 69, 0
10, 122160, Note_on_c, 11, 66, 0
10, 122160, Note_on_c, 11, 69, 127
10, 122160, Note_on_c, 11, 66, 127
10, 122160, Note_on_c, 11, 62, 127
10, 122400, Note_on_c, 11, 62, 0
10, 122400, Note_on_c, 11, 66, 0
10, 122400, Note_on_c, 11, 69, 0
10, 122400, Note_on_c, 11, 71, 127
10, 122400, Note_on_c, 11, 62, 127
10, 122400, Control_c, 11, 6, 32
10, 122400, Note_on_c, 11, 66, 127
10, 122640, Pitch_bend_c, 11, 7936
10, 122640, Pitch_bend_c, 11, 7936
10, 122700, Pitch_bend_c, 11, 7680
10, 122700, Pitch_bend_c, 11, 7680
10, 122700, Pitch_bend_c, 11, 7680
10, 122760, Pitch_bend_c, 11, 7424
10, 122760, Pitch_bend_c, 11, 7424
10, 122760, Pitch_bend_c, 11, 7424
10, 122820, Pitch_bend_c, 11, 7168
10, 122820, Pitch_bend_c, 11, 7168
10, 122820, Pitch_bend_c, 11, 7168
10, 122880, Note_on_c, 11, 66, 0
10, 122880, Note_on_c, 11, 62, 0
10, 122880, Note_on_c, 11, 71, 0
10, 122880, Note_on_c, 11, 62, 127
10, 122880, Note_on_c, 11, 59, 127
10, 122880, Note_on_c, 11, 66, 127
10, 122880, Pitch_bend_c, 11, 8192
10, 122880, Pitch_bend_c, 11, 8192
10, 123120, Note_on_c, 11, 66, 0
10, 123120, Note_on_c, 11, 59, 0
10, 123120, Note_on_c, 11, 62, 0
10, 123120, Note_on_c, 11, 62, 127
10, 123120, Note_on_c, 11, 59, 127
10, 123120, Note_on_c, 11, 66, 127
10, 123360, Note_on_c, 11, 66, 0
10, 123360, Note_on_c, 11, 59, 0
10, 123360, Note_on_c, 11, 62, 0
10, 123360, Note_on_c, 11, 66, 127
10, 123360, Note_on_c, 11, 62, 127
10, 123360, Note_on_c, 11, 59, 127
10, 123600, Note_on_c, 11, 59, 0
10, 123600, Note_on_c, 11, 62, 0
10, 123600, Note_on_c, 11, 66, 0
10, 123600, Note_on_c, 11, 59, 127
10, 123600, Note_on_c, 11, 66, 127
10, 123600, Note_on_c, 11, 62, 127
10, 123840, Note_on_c, 11, 62, 0
10, 123840, Note_on_c, 11, 66, 0
10, 123840, Note_on_c, 11, 59, 0
10, 123840, Note_on_c, 11, 66, 127
10, 123840, Note_on_c, 11, 62, 127
10, 123840, Note_on_c, 11, 59, 127
10, 124080, Note_on_c, 11, 59, 0
10, 124080, Note_on_c, 11, 62, 0
10, 124080, Note_on_c, 11, 66, 0
10, 124080, Note_on_c, 11, 66, 127
10, 124080, Note_on_c, 11, 59, 127
10, 124080, Note_on_c, 11, 62, 127
10, 124320, Note_on_c, 11, 62, 0
10, 124320, Note_on_c, 11, 59, 0
10, 124320, Note_on_c, 11, 66, 0
10, 124320, Note_on_c, 11, 62, 127
10, 124320, Note_on_c, 11, 59, 127
10, 124320, Note_on_c, 11, 66, 127
10, 124560, Note_on_c, 11, 66, 0
10, 124560, Note_on_c, 11, 59, 0
10, 124560, Note_on_c, 11, 62, 0
10, 124560, Note_on_c, 11, 66, 127
10, 124560, Note_on_c, 11, 59, 127
10, 124560, Note_on_c, 11, 62, 127
10, 124800, Note_on_c, 11, 62, 0
10, 124800, Note_on_c, 11, 59, 0
10, 124800, Note_on_c, 11, 66, 0
10, 124800, Note_on_c, 11, 59, 127
10, 124800, Note_on_c, 11, 62, 127
10, 124800, Note_on_c, 11, 66, 127
10, 126240, Note_on_c, 11, 66, 0
10, 126240, Note_on_c, 11, 62, 0
10, 126240, Note_on_c, 11, 59, 0
10, 126240, Note_on_c, 11, 62, 127
10, 126240, Control_c, 11, 6, 8
10, 126247, Pitch_bend_c, 11, 8320
10, 126254, Pitch_bend_c, 11, 8448
10, 126261, Pitch_bend_c, 11, 8576
10, 126268, Pitch_bend_c, 11, 8704
10, 126275, Pitch_bend_c, 11, 8832
10, 126282, Pitch_bend_c, 11, 8960
10, 126289, Pitch_bend_c, 11, 9088
10, 126296, Pitch_bend_c, 11, 9216
10, 126303, Pitch_bend_c, 11, 9344
10, 126310, Pitch_bend_c, 11, 9472
10, 126317, Pitch_bend_c, 11, 9600
10, 126324, Pitch_bend_c, 11, 9728
10, 126331, Pitch_bend_c, 11, 9856
10, 126338, Pitch_bend_c, 11, 9984
10, 126345, Pitch_bend_c, 11, 10112
10, 126352, Pitch_bend_c, 11, 10240
10, 126359, Pitch_bend_c, 11, 10368
10, 126366, Pitch_bend_c, 11, 10496
10, 126373, Pitch_bend_c, 11, 10624
10, 126380, Pitch_bend_c, 11, 10752
10, 126387, Pitch_bend_c, 11, 10880
10, 126394, Pitch_bend_c, 11, 11008
10, 126401, Pitch_bend_c, 11, 11136
10, 126408, Pitch_bend_c, 11, 11264
10, 126415, Pitch_bend_c, 11, 11392
10, 126422, Pitch_bend_c, 11, 11520
10, 126429, Pitch_bend_c, 11, 11648
10, 126436, Pitch_bend_c, 11, 11776
10, 126443, Pitch_bend_c, 11, 11904
10, 126450, Pitch_bend_c, 11, 12032
10, 126457, Pitch_bend_c, 11, 12288
10, 126464, Pitch_bend_c, 11, 8192
10, 126720, Note_on_c, 11, 62, 0
10, 128160, Note_on_c, 11, 59, 100
10, 128400, Note_on_c, 11, 59, 0
10, 128400, Note_on_c, 11, 62, 100
10, 130560, Note_on_c, 11, 62, 0
10, 132000, Note_on_c, 11, 59, 100
10, 132240, Note_on_c, 11, 59, 0
10, 132240, Note_on_c, 11, 62, 100
10, 134400, Note_on_c, 11, 62, 0
10, 135840, Note_on_c, 11, 59, 100
10, 136080, Note_on_c, 11, 59, 0
10, 136080, Note_on_c, 11, 62, 100
10, 138240, Note_on_c, 11, 62, 0
10, 139680, Note_on_c, 11, 59, 100
10, 139920, Note_on_c, 11, 59, 0
10, 139920, Note_on_c, 11, 62, 100
10, 142080, Note_on_c, 11, 62, 0
10, 158880, Note_on_c, 11, 59, 100
10, 159120, Note_on_c, 11, 59, 0
10, 159120, Note_on_c, 11, 62, 100
10, 161280, Note_on_c, 11, 62, 0
10, 162720, Note_on_c, 11, 59, 100
10, 162960, Note_on_c, 11, 59, 0
10, 162960, Note_on_c, 11, 62, 100
10, 165120, Note_on_c, 11, 62, 0
10, 166560, Note_on_c, 11, 59, 100
10, 166800, Note_on_c, 11, 59, 0
10, 166800, Note_on_c, 11, 62, 100
10, 168960, Note_on_c, 11, 62, 0
10, 170400, Note_on_c, 11, 59, 100
10, 170640, Note_on_c, 11, 59, 0
10, 170640, Note_on_c, 11, 62, 100
10, 172800, Note_on_c, 11, 62, 0
10, 174240, Note_on_c, 11, 59, 100
10, 174480, Note_on_c, 11, 59, 0
10, 174480, Note_on_c, 11, 62, 100
10, 176640, Note_on_c, 11, 62, 0
10, 178080, Note_on_c, 11, 59, 100
10, 178320, Note_on_c, 11, 59, 0
10, 178320, Note_on_c, 11, 62, 100
10, 180480, Note_on_c, 11, 62, 0
10, 181920, Note_on_c, 11, 59, 100
10, 182160, Note_on_c, 11, 59, 0
10, 182160, Note_on_c, 11, 62, 100
10, 184320, Note_on_c, 11, 62, 0
10, 184320, End_track
11, 0, Start_track
11, 0, MIDI_port, 0
11, 0, Title_t, "Organ 1 - Damon Albarn"
11, 0, Program_c, 3, 17
11, 0, Control_c, 3, 7, 100
11, 0, Control_c, 3, 10, 64
11, 0, Program_c, 3, 17
11, 3360, Note_on_c, 3, 79, 127
11, 3420, Note_on_c, 3, 79, 0
11, 3420, Note_on_c, 3, 79, 127
11, 3480, Note_on_c, 3, 79, 0
11, 3480, Note_on_c, 3, 79, 127
11, 3540, Note_on_c, 3, 79, 0
11, 3540, Note_on_c, 3, 79, 127
11, 3600, Note_on_c, 3, 79, 0
11, 3600, Note_on_c, 3, 79, 127
11, 3660, Note_on_c, 3, 79, 0
11, 3660, Note_on_c, 3, 79, 127
11, 3720, Note_on_c, 3, 79, 0
11, 3720, Note_on_c, 3, 79, 127
11, 3780, Note_on_c, 3, 79, 0
11, 3780, Note_on_c, 3, 79, 127
11, 3840, Note_on_c, 3, 79, 0
11, 3840, Note_on_c, 3, 78, 127
11, 3900, Note_on_c, 3, 78, 0
11, 3900, Note_on_c, 3, 78, 127
11, 3960, Note_on_c, 3, 78, 0
11, 3960, Note_on_c, 3, 78, 127
11, 4020, Note_on_c, 3, 78, 0
11, 4020, Note_on_c, 3, 78, 127
11, 4080, Note_on_c, 3, 78, 0
11, 4080, Note_on_c, 3, 78, 127
11, 4140, Note_on_c, 3, 78, 0
11, 4140, Note_on_c, 3, 78, 127
11, 4200, Note_on_c, 3, 78, 0
11, 4200, Note_on_c, 3, 78, 127
11, 4260, Note_on_c, 3, 78, 0
11, 4260, Note_on_c, 3, 78, 127
11, 4320, Note_on_c, 3, 78, 0
11, 4320, Note_on_c, 3, 78, 127
11, 4380, Note_on_c, 3, 78, 0
11, 4380, Note_on_c, 3, 78, 127
11, 4440, Note_on_c, 3, 78, 0
11, 4440, Note_on_c, 3, 78, 127
11, 4500, Note_on_c, 3, 78, 0
11, 4500, Note_on_c, 3, 78, 127
11, 4560, Note_on_c, 3, 78, 0
11, 4560, Note_on_c, 3, 78, 127
11, 4620, Note_on_c, 3, 78, 0
11, 4620, Note_on_c, 3, 78, 127
11, 4680, Note_on_c, 3, 78, 0
11, 4680, Note_on_c, 3, 78, 127
11, 4740, Note_on_c, 3, 78, 0
11, 4740, Note_on_c, 3, 78, 127
11, 4800, Note_on_c, 3, 78, 0
11, 4800, Note_on_c, 3, 78, 127
11, 4860, Note_on_c, 3, 78, 0
11, 4860, Note_on_c, 3, 78, 127
11, 4920, Note_on_c, 3, 78, 0
11, 4920, Note_on_c, 3, 78, 127
11, 4980, Note_on_c, 3, 78, 0
11, 4980, Note_on_c, 3, 78, 127
11, 5040, Note_on_c, 3, 78, 0
11, 5040, Note_on_c, 3, 72, 127
11, 5100, Note_on_c, 3, 72, 0
11, 5100, Note_on_c, 3, 72, 127
11, 5160, Note_on_c, 3, 72, 0
11, 5160, Note_on_c, 3, 72, 127
11, 5220, Note_on_c, 3, 72, 0
11, 5220, Note_on_c, 3, 72, 127
11, 5280, Note_on_c, 3, 72, 0
11, 5280, Note_on_c, 3, 72, 127
11, 5340, Note_on_c, 3, 72, 0
11, 5340, Note_on_c, 3, 72, 127
11, 5400, Note_on_c, 3, 72, 0
11, 5400, Note_on_c, 3, 72, 127
11, 5460, Note_on_c, 3, 72, 0
11, 5460, Note_on_c, 3, 72, 127
11, 5520, Note_on_c, 3, 72, 0
11, 5520, Note_on_c, 3, 71, 127
11, 5580, Note_on_c, 3, 71, 0
11, 5580, Note_on_c, 3, 71, 127
11, 5640, Note_on_c, 3, 71, 0
11, 5640, Note_on_c, 3, 71, 127
11, 5700, Note_on_c, 3, 71, 0
11, 5700, Note_on_c, 3, 71, 127
11, 5760, Note_on_c, 3, 71, 0
11, 5760, Note_on_c, 3, 71, 127
11, 5820, Note_on_c, 3, 71, 0
11, 5820, Note_on_c, 3, 71, 127
11, 5880, Note_on_c, 3, 71, 0
11, 5880, Note_on_c, 3, 71, 127
11, 5940, Note_on_c, 3, 71, 0
11, 5940, Note_on_c, 3, 71, 127
11, 6000, Note_on_c, 3, 71, 0
11, 6000, Note_on_c, 3, 71, 127
11, 6060, Note_on_c, 3, 71, 0
11, 6060, Note_on_c, 3, 71, 127
11, 6120, Note_on_c, 3, 71, 0
11, 6120, Note_on_c, 3, 71, 127
11, 6180, Note_on_c, 3, 71, 0
11, 6180, Note_on_c, 3, 71, 127
11, 6240, Note_on_c, 3, 71, 0
11, 6240, Note_on_c, 3, 71, 127
11, 6300, Note_on_c, 3, 71, 0
11, 6300, Note_on_c, 3, 71, 127
11, 6360, Note_on_c, 3, 71, 0
11, 6360, Note_on_c, 3, 71, 127
11, 6420, Note_on_c, 3, 71, 0
11, 6420, Note_on_c, 3, 71, 127
11, 6480, Note_on_c, 3, 71, 0
11, 6480, Note_on_c, 3, 71, 127
11, 6540, Note_on_c, 3, 71, 0
11, 6540, Note_on_c, 3, 71, 127
11, 6600, Note_on_c, 3, 71, 0
11, 6600, Note_on_c, 3, 71, 127
11, 6660, Note_on_c, 3, 71, 0
11, 6660, Note_on_c, 3, 71, 127
11, 6660, Control_c, 3, 6, 32
11, 6690, Pitch_bend_c, 3, 8448
11, 6705, Pitch_bend_c, 3, 8704
11, 6720, Note_on_c, 3, 71, 0
11, 6720, Note_on_c, 3, 74, 127
11, 6720, Pitch_bend_c, 3, 8192
11, 6720, Pitch_bend_c, 3, 8192
11, 6780, Note_on_c, 3, 74, 0
11, 6780, Note_on_c, 3, 74, 127
11, 6840, Note_on_c, 3, 74, 0
11, 6840, Note_on_c, 3, 74, 127
11, 6900, Note_on_c, 3, 74, 0
11, 6900, Note_on_c, 3, 74, 127
11, 6960, Note_on_c, 3, 74, 0
11, 6960, Note_on_c, 3, 74, 127
11, 7020, Note_on_c, 3, 74, 0
11, 7020, Note_on_c, 3, 74, 127
11, 7080, Note_on_c, 3, 74, 0
11, 7080, Note_on_c, 3, 74, 127
11, 7140, Note_on_c, 3, 74, 0
11, 7140, Note_on_c, 3, 74, 127
11, 7200, Note_on_c, 3, 74, 0
11, 7200, Note_on_c, 3, 79, 127
11, 7260, Note_on_c, 3, 79, 0
11, 7260, Note_on_c, 3, 79, 127
11, 7320, Note_on_c, 3, 79, 0
11, 7320, Note_on_c, 3, 79, 127
11, 7380, Note_on_c, 3, 79, 0
11, 7380, Note_on_c, 3, 79, 127
11, 7440, Note_on_c, 3, 79, 0
11, 7440, Note_on_c, 3, 79, 127
11, 7500, Note_on_c, 3, 79, 0
11, 7500, Note_on_c, 3, 79, 127
11, 7560, Note_on_c, 3, 79, 0
11, 7560, Note_on_c, 3, 79, 127
11, 7620, Note_on_c, 3, 79, 0
11, 7620, Note_on_c, 3, 79, 127
11, 7680, Note_on_c, 3, 79, 0
11, 7680, Note_on_c, 3, 78, 127
11, 7740, Note_on_c, 3, 78, 0
11, 7740, Note_on_c, 3, 78, 127
11, 7800, Note_on_c, 3, 78, 0
11, 7800, Note_on_c, 3, 78, 127
11, 7860, Note_on_c, 3, 78, 0
11, 7860, Note_on_c, 3, 78, 127
11, 7920, Note_on_c, 3, 78, 0
11, 7920, Note_on_c, 3, 78, 127
11, 7980, Note_on_c, 3, 78, 0
11, 7980, Note_on_c, 3, 78, 127
11, 8040, Note_on_c, 3, 78, 0
11, 8040, Note_on_c, 3, 78, 127
11, 8100, Note_on_c, 3, 78, 0
11, 8100, Note_on_c, 3, 78, 127
11, 8160, Note_on_c, 3, 78, 0
11, 8160, Note_on_c, 3, 78, 127
11, 8220, Note_on_c, 3, 78, 0
11, 8220, Note_on_c, 3, 78, 127
11, 8280, Note_on_c, 3, 78, 0
11, 8280, Note_on_c, 3, 78, 127
11, 8340, Note_on_c, 3, 78, 0
11, 8340, Note_on_c, 3, 78, 127
11, 8400, Note_on_c, 3, 78, 0
11, 8400, Note_on_c, 3, 78, 127
11, 8460, Note_on_c, 3, 78, 0
11, 8460, Note_on_c, 3, 78, 127
11, 8520, Note_on_c, 3, 78, 0
11, 8520, Note_on_c, 3, 78, 127
11, 8580, Note_on_c, 3, 78, 0
11, 8580, Note_on_c, 3, 78, 127
11, 8640, Note_on_c, 3, 78, 0
11, 8640, Note_on_c, 3, 78, 127
11, 8700, Note_on_c, 3, 78, 0
11, 8700, Note_on_c, 3, 78, 127
11, 8760, Note_on_c, 3, 78, 0
11, 8760, Note_on_c, 3, 78, 127
11, 8820, Note_on_c, 3, 78, 0
11, 8820, Note_on_c, 3, 78, 127
11, 8880, Note_on_c, 3, 78, 0
11, 8880, Note_on_c, 3, 72, 127
11, 8940, Note_on_c, 3, 72, 0
11, 8940, Note_on_c, 3, 72, 127
11, 9000, Note_on_c, 3, 72, 0
11, 9000, Note_on_c, 3, 72, 127
11, 9060, Note_on_c, 3, 72, 0
11, 9060, Note_on_c, 3, 72, 127
11, 9120, Note_on_c, 3, 72, 0
11, 9120, Note_on_c, 3, 72, 127
11, 9180, Note_on_c, 3, 72, 0
11, 9180, Note_on_c, 3, 72, 127
11, 9240, Note_on_c, 3, 72, 0
11, 9240, Note_on_c, 3, 72, 127
11, 9300, Note_on_c, 3, 72, 0
11, 9300, Note_on_c, 3, 72, 127
11, 9360, Note_on_c, 3, 72, 0
11, 9360, Note_on_c, 3, 71, 127
11, 9420, Note_on_c, 3, 71, 0
11, 9420, Note_on_c, 3, 71, 127
11, 9480, Note_on_c, 3, 71, 0
11, 9480, Note_on_c, 3, 71, 127
11, 9540, Note_on_c, 3, 71, 0
11, 9540, Note_on_c, 3, 71, 127
11, 9600, Note_on_c, 3, 71, 0
11, 9600, Note_on_c, 3, 71, 127
11, 9660, Note_on_c, 3, 71, 0
11, 9660, Note_on_c, 3, 71, 127
11, 9720, Note_on_c, 3, 71, 0
11, 9720, Note_on_c, 3, 71, 127
11, 9780, Note_on_c, 3, 71, 0
11, 9780, Note_on_c, 3, 71, 127
11, 9840, Note_on_c, 3, 71, 0
11, 9840, Note_on_c, 3, 71, 127
11, 9900, Note_on_c, 3, 71, 0
11, 9900, Note_on_c, 3, 71, 127
11, 9960, Note_on_c, 3, 71, 0
11, 9960, Note_on_c, 3, 71, 127
11, 10020, Note_on_c, 3, 71, 0
11, 10020, Note_on_c, 3, 71, 127
11, 10080, Note_on_c, 3, 71, 0
11, 10080, Note_on_c, 3, 71, 127
11, 10140, Note_on_c, 3, 71, 0
11, 10140, Note_on_c, 3, 71, 127
11, 10200, Note_on_c, 3, 71, 0
11, 10200, Note_on_c, 3, 71, 127
11, 10260, Note_on_c, 3, 71, 0
11, 10260, Note_on_c, 3, 71, 127
11, 10320, Note_on_c, 3, 71, 0
11, 10320, Note_on_c, 3, 71, 127
11, 10380, Note_on_c, 3, 71, 0
11, 10380, Note_on_c, 3, 71, 127
11, 10440, Note_on_c, 3, 71, 0
11, 10440, Note_on_c, 3, 71, 127
11, 10500, Note_on_c, 3, 71, 0
11, 10500, Control_c, 3, 6, 32
11, 10500, Note_on_c, 3, 71, 127
11, 10530, Pitch_bend_c, 3, 8448
11, 10545, Pitch_bend_c, 3, 8704
11, 10560, Note_on_c, 3, 71, 0
11, 10560, Pitch_bend_c, 3, 8192
11, 10560, Pitch_bend_c, 3, 8192
11, 10560, Note_on_c, 3, 74, 127
11, 10620, Note_on_c, 3, 74, 0
11, 10620, Note_on_c, 3, 74, 127
11, 10680, Note_on_c, 3, 74, 0
11, 10680, Note_on_c, 3, 74, 127
11, 10740, Note_on_c, 3, 74, 0
11, 10740, Note_on_c, 3, 74, 127
11, 10800, Note_on_c, 3, 74, 0
11, 10800, Note_on_c, 3, 74, 127
11, 10860, Note_on_c, 3, 74, 0
11, 10860, Note_on_c, 3, 74, 127
11, 10920, Note_on_c, 3, 74, 0
11, 10920, Note_on_c, 3, 74, 127
11, 10980, Note_on_c, 3, 74, 0
11, 10980, Note_on_c, 3, 74, 127
11, 11040, Note_on_c, 3, 74, 0
11, 11040, Note_on_c, 3, 79, 127
11, 11100, Note_on_c, 3, 79, 0
11, 11100, Note_on_c, 3, 79, 127
11, 11160, Note_on_c, 3, 79, 0
11, 11160, Note_on_c, 3, 79, 127
11, 11220, Note_on_c, 3, 79, 0
11, 11220, Note_on_c, 3, 79, 127
11, 11280, Note_on_c, 3, 79, 0
11, 11280, Note_on_c, 3, 79, 127
11, 11340, Note_on_c, 3, 79, 0
11, 11340, Note_on_c, 3, 79, 127
11, 11400, Note_on_c, 3, 79, 0
11, 11400, Note_on_c, 3, 79, 127
11, 11460, Note_on_c, 3, 79, 0
11, 11460, Note_on_c, 3, 79, 127
11, 11520, Note_on_c, 3, 79, 0
11, 11520, Note_on_c, 3, 78, 127
11, 11580, Note_on_c, 3, 78, 0
11, 11580, Note_on_c, 3, 78, 127
11, 11640, Note_on_c, 3, 78, 0
11, 11640, Note_on_c, 3, 78, 127
11, 11700, Note_on_c, 3, 78, 0
11, 11700, Note_on_c, 3, 78, 127
11, 11760, Note_on_c, 3, 78, 0
11, 11760, Note_on_c, 3, 78, 127
11, 11820, Note_on_c, 3, 78, 0
11, 11820, Note_on_c, 3, 78, 127
11, 11880, Note_on_c, 3, 78, 0
11, 11880, Note_on_c, 3, 78, 127
11, 11940, Note_on_c, 3, 78, 0
11, 11940, Note_on_c, 3, 78, 127
11, 12000, Note_on_c, 3, 78, 0
11, 12000, Note_on_c, 3, 78, 127
11, 12060, Note_on_c, 3, 78, 0
11, 12060, Note_on_c, 3, 78, 127
11, 12120, Note_on_c, 3, 78, 0
11, 12120, Note_on_c, 3, 78, 127
11, 12180, Note_on_c, 3, 78, 0
11, 12180, Note_on_c, 3, 78, 127
11, 12240, Note_on_c, 3, 78, 0
11, 12240, Note_on_c, 3, 78, 127
11, 12300, Note_on_c, 3, 78, 0
11, 12300, Note_on_c, 3, 78, 127
11, 12360, Note_on_c, 3, 78, 0
11, 12360, Note_on_c, 3, 78, 127
11, 12420, Note_on_c, 3, 78, 0
11, 12420, Note_on_c, 3, 78, 127
11, 12480, Note_on_c, 3, 78, 0
11, 12480, Note_on_c, 3, 78, 127
11, 12540, Note_on_c, 3, 78, 0
11, 12540, Note_on_c, 3, 78, 127
11, 12600, Note_on_c, 3, 78, 0
11, 12600, Note_on_c, 3, 78, 127
11, 12660, Note_on_c, 3, 78, 0
11, 12660, Note_on_c, 3, 78, 127
11, 12720, Note_on_c, 3, 78, 0
11, 12720, Note_on_c, 3, 72, 127
11, 12780, Note_on_c, 3, 72, 0
11, 12780, Note_on_c, 3, 72, 127
11, 12840, Note_on_c, 3, 72, 0
11, 12840, Note_on_c, 3, 72, 127
11, 12900, Note_on_c, 3, 72, 0
11, 12900, Note_on_c, 3, 72, 127
11, 12960, Note_on_c, 3, 72, 0
11, 12960, Note_on_c, 3, 72, 127
11, 13020, Note_on_c, 3, 72, 0
11, 13020, Note_on_c, 3, 72, 127
11, 13080, Note_on_c, 3, 72, 0
11, 13080, Note_on_c, 3, 72, 127
11, 13140, Note_on_c, 3, 72, 0
11, 13140, Note_on_c, 3, 72, 127
11, 13200, Note_on_c, 3, 72, 0
11, 13200, Note_on_c, 3, 71, 127
11, 13260, Note_on_c, 3, 71, 0
11, 13260, Note_on_c, 3, 71, 127
11, 13320, Note_on_c, 3, 71, 0
11, 13320, Note_on_c, 3, 71, 127
11, 13380, Note_on_c, 3, 71, 0
11, 13380, Note_on_c, 3, 71, 127
11, 13440, Note_on_c, 3, 71, 0
11, 13440, Note_on_c, 3, 71, 127
11, 13500, Note_on_c, 3, 71, 0
11, 13500, Note_on_c, 3, 71, 127
11, 13560, Note_on_c, 3, 71, 0
11, 13560, Note_on_c, 3, 71, 127
11, 13620, Note_on_c, 3, 71, 0
11, 13620, Note_on_c, 3, 71, 127
11, 13680, Note_on_c, 3, 71, 0
11, 13680, Note_on_c, 3, 71, 127
11, 13740, Note_on_c, 3, 71, 0
11, 13740, Note_on_c, 3, 71, 127
11, 13800, Note_on_c, 3, 71, 0
11, 13800, Note_on_c, 3, 71, 127
11, 13860, Note_on_c, 3, 71, 0
11, 13860, Note_on_c, 3, 71, 127
11, 13920, Note_on_c, 3, 71, 0
11, 13920, Note_on_c, 3, 71, 127
11, 13980, Note_on_c, 3, 71, 0
11, 13980, Note_on_c, 3, 71, 127
11, 14040, Note_on_c, 3, 71, 0
11, 14040, Note_on_c, 3, 71, 127
11, 14100, Note_on_c, 3, 71, 0
11, 14100, Note_on_c, 3, 71, 127
11, 14160, Note_on_c, 3, 71, 0
11, 14160, Note_on_c, 3, 71, 127
11, 14220, Note_on_c, 3, 71, 0
11, 14220, Note_on_c, 3, 71, 127
11, 14280, Note_on_c, 3, 71, 0
11, 14280, Note_on_c, 3, 71, 127
11, 14340, Note_on_c, 3, 71, 0
11, 14340, Note_on_c, 3, 71, 127
11, 14340, Control_c, 3, 6, 32
11, 14370, Pitch_bend_c, 3, 8448
11, 14385, Pitch_bend_c, 3, 8704
11, 14400, Note_on_c, 3, 71, 0
11, 14400, Pitch_bend_c, 3, 8192
11, 14400, Pitch_bend_c, 3, 8192
11, 14400, Note_on_c, 3, 74, 127
11, 14460, Note_on_c, 3, 74, 0
11, 14460, Note_on_c, 3, 74, 127
11, 14520, Note_on_c, 3, 74, 0
11, 14520, Note_on_c, 3, 74, 127
11, 14580, Note_on_c, 3, 74, 0
11, 14580, Note_on_c, 3, 74, 127
11, 14640, Note_on_c, 3, 74, 0
11, 14640, Note_on_c, 3, 74, 127
11, 14700, Note_on_c, 3, 74, 0
11, 14700, Note_on_c, 3, 74, 127
11, 14760, Note_on_c, 3, 74, 0
11, 14760, Note_on_c, 3, 74, 127
11, 14820, Note_on_c, 3, 74, 0
11, 14820, Note_on_c, 3, 74, 127
11, 14880, Note_on_c, 3, 74, 0
11, 14880, Note_on_c, 3, 79, 127
11, 14940, Note_on_c, 3, 79, 0
11, 14940, Note_on_c, 3, 79, 127
11, 15000, Note_on_c, 3, 79, 0
11, 15000, Note_on_c, 3, 79, 127
11, 15060, Note_on_c, 3, 79, 0
11, 15060, Note_on_c, 3, 79, 127
11, 15120, Note_on_c, 3, 79, 0
11, 15120, Note_on_c, 3, 79, 127
11, 15180, Note_on_c, 3, 79, 0
11, 15180, Note_on_c, 3, 79, 127
11, 15240, Note_on_c, 3, 79, 0
11, 15240, Note_on_c, 3, 79, 127
11, 15300, Note_on_c, 3, 79, 0
11, 15300, Note_on_c, 3, 79, 127
11, 15360, Note_on_c, 3, 79, 0
11, 15360, Note_on_c, 3, 78, 127
11, 15420, Note_on_c, 3, 78, 0
11, 15420, Note_on_c, 3, 78, 127
11, 15480, Note_on_c, 3, 78, 0
11, 15480, Note_on_c, 3, 78, 127
11, 15540, Note_on_c, 3, 78, 0
11, 15540, Note_on_c, 3, 78, 127
11, 15600, Note_on_c, 3, 78, 0
11, 15600, Note_on_c, 3, 78, 127
11, 15660, Note_on_c, 3, 78, 0
11, 15660, Note_on_c, 3, 78, 127
11, 15720, Note_on_c, 3, 78, 0
11, 15720, Note_on_c, 3, 78, 127
11, 15780, Note_on_c, 3, 78, 0
11, 15780, Note_on_c, 3, 78, 127
11, 15840, Note_on_c, 3, 78, 0
11, 15840, Note_on_c, 3, 78, 127
11, 15900, Note_on_c, 3, 78, 0
11, 15900, Note_on_c, 3, 78, 127
11, 15960, Note_on_c, 3, 78, 0
11, 15960, Note_on_c, 3, 78, 127
11, 16020, Note_on_c, 3, 78, 0
11, 16020, Note_on_c, 3, 78, 127
11, 16080, Note_on_c, 3, 78, 0
11, 16080, Note_on_c, 3, 78, 127
11, 16140, Note_on_c, 3, 78, 0
11, 16140, Note_on_c, 3, 78, 127
11, 16200, Note_on_c, 3, 78, 0
11, 16200, Note_on_c, 3, 78, 127
11, 16260, Note_on_c, 3, 78, 0
11, 16260, Note_on_c, 3, 78, 127
11, 16320, Note_on_c, 3, 78, 0
11, 16320, Note_on_c, 3, 78, 127
11, 16380, Note_on_c, 3, 78, 0
11, 16380, Note_on_c, 3, 78, 127
11, 16440, Note_on_c, 3, 78, 0
11, 16440, Note_on_c, 3, 78, 127
11, 16500, Note_on_c, 3, 78, 0
11, 16500, Note_on_c, 3, 78, 127
11, 16560, Note_on_c, 3, 78, 0
11, 16560, Note_on_c, 3, 72, 127
11, 16620, Note_on_c, 3, 72, 0
11, 16620, Note_on_c, 3, 72, 127
11, 16680, Note_on_c, 3, 72, 0
11, 16680, Note_on_c, 3, 72, 127
11, 16740, Note_on_c, 3, 72, 0
11, 16740, Note_on_c, 3, 72, 127
11, 16800, Note_on_c, 3, 72, 0
11, 16800, Note_on_c, 3, 72, 127
11, 16860, Note_on_c, 3, 72, 0
11, 16860, Note_on_c, 3, 72, 127
11, 16920, Note_on_c, 3, 72, 0
11, 16920, Note_on_c, 3, 72, 127
11, 16980, Note_on_c, 3, 72, 0
11, 16980, Note_on_c, 3, 72, 127
11, 17040, Note_on_c, 3, 72, 0
11, 17040, Note_on_c, 3, 71, 127
11, 17100, Note_on_c, 3, 71, 0
11, 17100, Note_on_c, 3, 71, 127
11, 17160, Note_on_c, 3, 71, 0
11, 17160, Note_on_c, 3, 71, 127
11, 17220, Note_on_c, 3, 71, 0
11, 17220, Note_on_c, 3, 71, 127
11, 17280, Note_on_c, 3, 71, 0
11, 17280, Note_on_c, 3, 71, 127
11, 17340, Note_on_c, 3, 71, 0
11, 17340, Note_on_c, 3, 71, 127
11, 17400, Note_on_c, 3, 71, 0
11, 17400, Note_on_c, 3, 71, 127
11, 17460, Note_on_c, 3, 71, 0
11, 17460, Note_on_c, 3, 71, 127
11, 17520, Note_on_c, 3, 71, 0
11, 17520, Note_on_c, 3, 71, 127
11, 17580, Note_on_c, 3, 71, 0
11, 17580, Note_on_c, 3, 71, 127
11, 17640, Note_on_c, 3, 71, 0
11, 17640, Note_on_c, 3, 71, 127
11, 17700, Note_on_c, 3, 71, 0
11, 17700, Note_on_c, 3, 71, 127
11, 17760, Note_on_c, 3, 71, 0
11, 17760, Note_on_c, 3, 71, 127
11, 17820, Note_on_c, 3, 71, 0
11, 17820, Note_on_c, 3, 71, 127
11, 17880, Note_on_c, 3, 71, 0
11, 17880, Note_on_c, 3, 71, 127
11, 17940, Note_on_c, 3, 71, 0
11, 17940, Note_on_c, 3, 71, 127
11, 18000, Note_on_c, 3, 71, 0
11, 18000, Note_on_c, 3, 71, 127
11, 18060, Note_on_c, 3, 71, 0
11, 18060, Note_on_c, 3, 71, 127
11, 18120, Note_on_c, 3, 71, 0
11, 18120, Note_on_c, 3, 71, 127
11, 18180, Note_on_c, 3, 71, 0
11, 18180, Note_on_c, 3, 71, 127
11, 18180, Control_c, 3, 6, 32
11, 18210, Pitch_bend_c, 3, 8448
11, 18225, Pitch_bend_c, 3, 8704
11, 18240, Note_on_c, 3, 71, 0
11, 18240, Pitch_bend_c, 3, 8192
11, 18240, Note_on_c, 3, 74, 127
11, 18240, Pitch_bend_c, 3, 8192
11, 18300, Note_on_c, 3, 74, 0
11, 18300, Note_on_c, 3, 74, 127
11, 18360, Note_on_c, 3, 74, 0
11, 18360, Note_on_c, 3, 74, 127
11, 18420, Note_on_c, 3, 74, 0
11, 18420, Note_on_c, 3, 74, 127
11, 18480, Note_on_c, 3, 74, 0
11, 18480, Note_on_c, 3, 74, 127
11, 18540, Note_on_c, 3, 74, 0
11, 18540, Note_on_c, 3, 74, 127
11, 18600, Note_on_c, 3, 74, 0
11, 18600, Note_on_c, 3, 74, 127
11, 18660, Note_on_c, 3, 74, 0
11, 18660, Note_on_c, 3, 74, 127
11, 18720, Note_on_c, 3, 74, 0
11, 18720, Note_on_c, 3, 79, 127
11, 18780, Note_on_c, 3, 79, 0
11, 18780, Note_on_c, 3, 79, 127
11, 18840, Note_on_c, 3, 79, 0
11, 18840, Note_on_c, 3, 79, 127
11, 18900, Note_on_c, 3, 79, 0
11, 18900, Note_on_c, 3, 79, 127
11, 18960, Note_on_c, 3, 79, 0
11, 18960, Note_on_c, 3, 79, 127
11, 19020, Note_on_c, 3, 79, 0
11, 19020, Note_on_c, 3, 79, 127
11, 19080, Note_on_c, 3, 79, 0
11, 19080, Note_on_c, 3, 79, 127
11, 19140, Note_on_c, 3, 79, 0
11, 19140, Note_on_c, 3, 79, 127
11, 19200, Note_on_c, 3, 79, 0
11, 53280, Note_on_c, 3, 79, 127
11, 53340, Note_on_c, 3, 79, 0
11, 53340, Note_on_c, 3, 79, 127
11, 53400, Note_on_c, 3, 79, 0
11, 53400, Note_on_c, 3, 79, 127
11, 53460, Note_on_c, 3, 79, 0
11, 53460, Note_on_c, 3, 79, 127
11, 53520, Note_on_c, 3, 79, 0
11, 53520, Note_on_c, 3, 79, 127
11, 53580, Note_on_c, 3, 79, 0
11, 53580, Note_on_c, 3, 79, 127
11, 53640, Note_on_c, 3, 79, 0
11, 53640, Note_on_c, 3, 79, 127
11, 53700, Note_on_c, 3, 79, 0
11, 53700, Note_on_c, 3, 79, 127
11, 53760, Note_on_c, 3, 79, 0
11, 53760, Note_on_c, 3, 78, 127
11, 53820, Note_on_c, 3, 78, 0
11, 53820, Note_on_c, 3, 78, 127
11, 53880, Note_on_c, 3, 78, 0
11, 53880, Note_on_c, 3, 78, 127
11, 53940, Note_on_c, 3, 78, 0
11, 53940, Note_on_c, 3, 78, 127
11, 54000, Note_on_c, 3, 78, 0
11, 54000, Note_on_c, 3, 78, 127
11, 54060, Note_on_c, 3, 78, 0
11, 54060, Note_on_c, 3, 78, 127
11, 54120, Note_on_c, 3, 78, 0
11, 54120, Note_on_c, 3, 78, 127
11, 54180, Note_on_c, 3, 78, 0
11, 54180, Note_on_c, 3, 78, 127
11, 54240, Note_on_c, 3, 78, 0
11, 54240, Note_on_c, 3, 78, 127
11, 54300, Note_on_c, 3, 78, 0
11, 54300, Note_on_c, 3, 78, 127
11, 54360, Note_on_c, 3, 78, 0
11, 54360, Note_on_c, 3, 78, 127
11, 54420, Note_on_c, 3, 78, 0
11, 54420, Note_on_c, 3, 78, 127
11, 54480, Note_on_c, 3, 78, 0
11, 54480, Note_on_c, 3, 78, 127
11, 54540, Note_on_c, 3, 78, 0
11, 54540, Note_on_c, 3, 78, 127
11, 54600, Note_on_c, 3, 78, 0
11, 54600, Note_on_c, 3, 78, 127
11, 54660, Note_on_c, 3, 78, 0
11, 54660, Note_on_c, 3, 78, 127
11, 54720, Note_on_c, 3, 78, 0
11, 54720, Note_on_c, 3, 78, 127
11, 54780, Note_on_c, 3, 78, 0
11, 54780, Note_on_c, 3, 78, 127
11, 54840, Note_on_c, 3, 78, 0
11, 54840, Note_on_c, 3, 78, 127
11, 54900, Note_on_c, 3, 78, 0
11, 54900, Note_on_c, 3, 78, 127
11, 54960, Note_on_c, 3, 78, 0
11, 54960, Note_on_c, 3, 72, 127
11, 55020, Note_on_c, 3, 72, 0
11, 55020, Note_on_c, 3, 72, 127
11, 55080, Note_on_c, 3, 72, 0
11, 55080, Note_on_c, 3, 72, 127
11, 55140, Note_on_c, 3, 72, 0
11, 55140, Note_on_c, 3, 72, 127
11, 55200, Note_on_c, 3, 72, 0
11, 55200, Note_on_c, 3, 72, 127
11, 55260, Note_on_c, 3, 72, 0
11, 55260, Note_on_c, 3, 72, 127
11, 55320, Note_on_c, 3, 72, 0
11, 55320, Note_on_c, 3, 72, 127
11, 55380, Note_on_c, 3, 72, 0
11, 55380, Note_on_c, 3, 72, 127
11, 55440, Note_on_c, 3, 72, 0
11, 55440, Note_on_c, 3, 71, 127
11, 55500, Note_on_c, 3, 71, 0
11, 55500, Note_on_c, 3, 71, 127
11, 55560, Note_on_c, 3, 71, 0
11, 55560, Note_on_c, 3, 71, 127
11, 55620, Note_on_c, 3, 71, 0
11, 55620, Note_on_c, 3, 71, 127
11, 55680, Note_on_c, 3, 71, 0
11, 55680, Note_on_c, 3, 71, 127
11, 55740, Note_on_c, 3, 71, 0
11, 55740, Note_on_c, 3, 71, 127
11, 55800, Note_on_c, 3, 71, 0
11, 55800, Note_on_c, 3, 71, 127
11, 55860, Note_on_c, 3, 71, 0
11, 55860, Note_on_c, 3, 71, 127
11, 55920, Note_on_c, 3, 71, 0
11, 55920, Note_on_c, 3, 71, 127
11, 55980, Note_on_c, 3, 71, 0
11, 55980, Note_on_c, 3, 71, 127
11, 56040, Note_on_c, 3, 71, 0
11, 56040, Note_on_c, 3, 71, 127
11, 56100, Note_on_c, 3, 71, 0
11, 56100, Note_on_c, 3, 71, 127
11, 56160, Note_on_c, 3, 71, 0
11, 56160, Note_on_c, 3, 71, 127
11, 56220, Note_on_c, 3, 71, 0
11, 56220, Note_on_c, 3, 71, 127
11, 56280, Note_on_c, 3, 71, 0
11, 56280, Note_on_c, 3, 71, 127
11, 56340, Note_on_c, 3, 71, 0
11, 56340, Note_on_c, 3, 71, 127
11, 56400, Note_on_c, 3, 71, 0
11, 56400, Note_on_c, 3, 71, 127
11, 56460, Note_on_c, 3, 71, 0
11, 56460, Note_on_c, 3, 71, 127
11, 56520, Note_on_c, 3, 71, 0
11, 56520, Note_on_c, 3, 71, 127
11, 56580, Note_on_c, 3, 71, 0
11, 56580, Note_on_c, 3, 71, 127
11, 56580, Control_c, 3, 6, 32
11, 56610, Pitch_bend_c, 3, 8448
11, 56625, Pitch_bend_c, 3, 8704
11, 56640, Note_on_c, 3, 71, 0
11, 56640, Pitch_bend_c, 3, 8192
11, 56640, Note_on_c, 3, 74, 127
11, 56640, Pitch_bend_c, 3, 8192
11, 56700, Note_on_c, 3, 74, 0
11, 56700, Note_on_c, 3, 74, 127
11, 56760, Note_on_c, 3, 74, 0
11, 56760, Note_on_c, 3, 74, 127
11, 56820, Note_on_c, 3, 74, 0
11, 56820, Note_on_c, 3, 74, 127
11, 56880, Note_on_c, 3, 74, 0
11, 56880, Note_on_c, 3, 74, 127
11, 56940, Note_on_c, 3, 74, 0
11, 56940, Note_on_c, 3, 74, 127
11, 57000, Note_on_c, 3, 74, 0
11, 57000, Note_on_c, 3, 74, 127
11, 57060, Note_on_c, 3, 74, 0
11, 57060, Note_on_c, 3, 74, 127
11, 57120, Note_on_c, 3, 74, 0
11, 57120, Note_on_c, 3, 79, 127
11, 57180, Note_on_c, 3, 79, 0
11, 57180, Note_on_c, 3, 79, 127
11, 57240, Note_on_c, 3, 79, 0
11, 57240, Note_on_c, 3, 79, 127
11, 57300, Note_on_c, 3, 79, 0
11, 57300, Note_on_c, 3, 79, 127
11, 57360, Note_on_c, 3, 79, 0
11, 57360, Note_on_c, 3, 79, 127
11, 57420, Note_on_c, 3, 79, 0
11, 57420, Note_on_c, 3, 79, 127
11, 57480, Note_on_c, 3, 79, 0
11, 57480, Note_on_c, 3, 79, 127
11, 57540, Note_on_c, 3, 79, 0
11, 57540, Note_on_c, 3, 79, 127
11, 57600, Note_on_c, 3, 79, 0
11, 57600, Note_on_c, 3, 78, 127
11, 57660, Note_on_c, 3, 78, 0
11, 57660, Note_on_c, 3, 78, 127
11, 57720, Note_on_c, 3, 78, 0
11, 57720, Note_on_c, 3, 78, 127
11, 57780, Note_on_c, 3, 78, 0
11, 57780, Note_on_c, 3, 78, 127
11, 57840, Note_on_c, 3, 78, 0
11, 57840, Note_on_c, 3, 78, 127
11, 57900, Note_on_c, 3, 78, 0
11, 57900, Note_on_c, 3, 78, 127
11, 57960, Note_on_c, 3, 78, 0
11, 57960, Note_on_c, 3, 78, 127
11, 58020, Note_on_c, 3, 78, 0
11, 58020, Note_on_c, 3, 78, 127
11, 58080, Note_on_c, 3, 78, 0
11, 58080, Note_on_c, 3, 78, 127
11, 58140, Note_on_c, 3, 78, 0
11, 58140, Note_on_c, 3, 78, 127
11, 58200, Note_on_c, 3, 78, 0
11, 58200, Note_on_c, 3, 78, 127
11, 58260, Note_on_c, 3, 78, 0
11, 58260, Note_on_c, 3, 78, 127
11, 58320, Note_on_c, 3, 78, 0
11, 58320, Note_on_c, 3, 78, 127
11, 58380, Note_on_c, 3, 78, 0
11, 58380, Note_on_c, 3, 78, 127
11, 58440, Note_on_c, 3, 78, 0
11, 58440, Note_on_c, 3, 78, 127
11, 58500, Note_on_c, 3, 78, 0
11, 58500, Note_on_c, 3, 78, 127
11, 58560, Note_on_c, 3, 78, 0
11, 58560, Note_on_c, 3, 78, 127
11, 58620, Note_on_c, 3, 78, 0
11, 58620, Note_on_c, 3, 78, 127
11, 58680, Note_on_c, 3, 78, 0
11, 58680, Note_on_c, 3, 78, 127
11, 58740, Note_on_c, 3, 78, 0
11, 58740, Note_on_c, 3, 78, 127
11, 58800, Note_on_c, 3, 78, 0
11, 58800, Note_on_c, 3, 72, 127
11, 58860, Note_on_c, 3, 72, 0
11, 58860, Note_on_c, 3, 72, 127
11, 58920, Note_on_c, 3, 72, 0
11, 58920, Note_on_c, 3, 72, 127
11, 58980, Note_on_c, 3, 72, 0
11, 58980, Note_on_c, 3, 72, 127
11, 59040, Note_on_c, 3, 72, 0
11, 59040, Note_on_c, 3, 72, 127
11, 59100, Note_on_c, 3, 72, 0
11, 59100, Note_on_c, 3, 72, 127
11, 59160, Note_on_c, 3, 72, 0
11, 59160, Note_on_c, 3, 72, 127
11, 59220, Note_on_c, 3, 72, 0
11, 59220, Note_on_c, 3, 72, 127
11, 59280, Note_on_c, 3, 72, 0
11, 59280, Note_on_c, 3, 71, 127
11, 59340, Note_on_c, 3, 71, 0
11, 59340, Note_on_c, 3, 71, 127
11, 59400, Note_on_c, 3, 71, 0
11, 59400, Note_on_c, 3, 71, 127
11, 59460, Note_on_c, 3, 71, 0
11, 59460, Note_on_c, 3, 71, 127
11, 59520, Note_on_c, 3, 71, 0
11, 59520, Note_on_c, 3, 71, 127
11, 59580, Note_on_c, 3, 71, 0
11, 59580, Note_on_c, 3, 71, 127
11, 59640, Note_on_c, 3, 71, 0
11, 59640, Note_on_c, 3, 71, 127
11, 59700, Note_on_c, 3, 71, 0
11, 59700, Note_on_c, 3, 71, 127
11, 59760, Note_on_c, 3, 71, 0
11, 59760, Note_on_c, 3, 71, 127
11, 59820, Note_on_c, 3, 71, 0
11, 59820, Note_on_c, 3, 71, 127
11, 59880, Note_on_c, 3, 71, 0
11, 59880, Note_on_c, 3, 71, 127
11, 59940, Note_on_c, 3, 71, 0
11, 59940, Note_on_c, 3, 71, 127
11, 60000, Note_on_c, 3, 71, 0
11, 60000, Note_on_c, 3, 71, 127
11, 60060, Note_on_c, 3, 71, 0
11, 60060, Note_on_c, 3, 71, 127
11, 60120, Note_on_c, 3, 71, 0
11, 60120, Note_on_c, 3, 71, 127
11, 60180, Note_on_c, 3, 71, 0
11, 60180, Note_on_c, 3, 71, 127
11, 60240, Note_on_c, 3, 71, 0
11, 60240, Note_on_c, 3, 71, 127
11, 60300, Note_on_c, 3, 71, 0
11, 60300, Note_on_c, 3, 71, 127
11, 60360, Note_on_c, 3, 71, 0
11, 60360, Note_on_c, 3, 71, 127
11, 60420, Note_on_c, 3, 71, 0
11, 60420, Note_on_c, 3, 71, 127
11, 60420, Control_c, 3, 6, 32
11, 60450, Pitch_bend_c, 3, 8448
11, 60465, Pitch_bend_c, 3, 8704
11, 60480, Note_on_c, 3, 71, 0
11, 60480, Pitch_bend_c, 3, 8192
11, 60480, Note_on_c, 3, 74, 127
11, 60480, Pitch_bend_c, 3, 8192
11, 60540, Note_on_c, 3, 74, 0
11, 60540, Note_on_c, 3, 74, 127
11, 60600, Note_on_c, 3, 74, 0
11, 60600, Note_on_c, 3, 74, 127
11, 60660, Note_on_c, 3, 74, 0
11, 60660, Note_on_c, 3, 74, 127
11, 60720, Note_on_c, 3, 74, 0
11, 60720, Note_on_c, 3, 74, 127
11, 60780, Note_on_c, 3, 74, 0
11, 60780, Note_on_c, 3, 74, 127
11, 60840, Note_on_c, 3, 74, 0
11, 60840, Note_on_c, 3, 74, 127
11, 60900, Note_on_c, 3, 74, 0
11, 60900, Note_on_c, 3, 74, 127
11, 60960, Note_on_c, 3, 74, 0
11, 60960, Note_on_c, 3, 79, 127
11, 61020, Note_on_c, 3, 79, 0
11, 61020, Note_on_c, 3, 79, 127
11, 61080, Note_on_c, 3, 79, 0
11, 61080, Note_on_c, 3, 79, 127
11, 61140, Note_on_c, 3, 79, 0
11, 61140, Note_on_c, 3, 79, 127
11, 61200, Note_on_c, 3, 79, 0
11, 61200, Note_on_c, 3, 79, 127
11, 61260, Note_on_c, 3, 79, 0
11, 61260, Note_on_c, 3, 79, 127
11, 61320, Note_on_c, 3, 79, 0
11, 61320, Note_on_c, 3, 79, 127
11, 61380, Note_on_c, 3, 79, 0
11, 61380, Note_on_c, 3, 79, 127
11, 61440, Note_on_c, 3, 79, 0
11, 95520, Note_on_c, 3, 79, 127
11, 95580, Note_on_c, 3, 79, 0
11, 95580, Note_on_c, 3, 79, 127
11, 95640, Note_on_c, 3, 79, 0
11, 95640, Note_on_c, 3, 79, 127
11, 95700, Note_on_c, 3, 79, 0
11, 95700, Note_on_c, 3, 79, 127
11, 95760, Note_on_c, 3, 79, 0
11, 95760, Note_on_c, 3, 79, 127
11, 95820, Note_on_c, 3, 79, 0
11, 95820, Note_on_c, 3, 79, 127
11, 95880, Note_on_c, 3, 79, 0
11, 95880, Note_on_c, 3, 79, 127
11, 95940, Note_on_c, 3, 79, 0
11, 95940, Note_on_c, 3, 79, 127
11, 96000, Note_on_c, 3, 79, 0
11, 96000, Note_on_c, 3, 78, 127
11, 96060, Note_on_c, 3, 78, 0
11, 96060, Note_on_c, 3, 78, 127
11, 96120, Note_on_c, 3, 78, 0
11, 96120, Note_on_c, 3, 78, 127
11, 96180, Note_on_c, 3, 78, 0
11, 96180, Note_on_c, 3, 78, 127
11, 96240, Note_on_c, 3, 78, 0
11, 96240, Note_on_c, 3, 78, 127
11, 96300, Note_on_c, 3, 78, 0
11, 96300, Note_on_c, 3, 78, 127
11, 96360, Note_on_c, 3, 78, 0
11, 96360, Note_on_c, 3, 78, 127
11, 96420, Note_on_c, 3, 78, 0
11, 96420, Note_on_c, 3, 78, 127
11, 96480, Note_on_c, 3, 78, 0
11, 96480, Note_on_c, 3, 78, 127
11, 96540, Note_on_c, 3, 78, 0
11, 96540, Note_on_c, 3, 78, 127
11, 96600, Note_on_c, 3, 78, 0
11, 96600, Note_on_c, 3, 78, 127
11, 96660, Note_on_c, 3, 78, 0
11, 96660, Note_on_c, 3, 78, 127
11, 96720, Note_on_c, 3, 78, 0
11, 96720, Note_on_c, 3, 78, 127
11, 96780, Note_on_c, 3, 78, 0
11, 96780, Note_on_c, 3, 78, 127
11, 96840, Note_on_c, 3, 78, 0
11, 96840, Note_on_c, 3, 78, 127
11, 96900, Note_on_c, 3, 78, 0
11, 96900, Note_on_c, 3, 78, 127
11, 96960, Note_on_c, 3, 78, 0
11, 96960, Note_on_c, 3, 78, 127
11, 97020, Note_on_c, 3, 78, 0
11, 97020, Note_on_c, 3, 78, 127
11, 97080, Note_on_c, 3, 78, 0
11, 97080, Note_on_c, 3, 78, 127
11, 97140, Note_on_c, 3, 78, 0
11, 97140, Note_on_c, 3, 78, 127
11, 97200, Note_on_c, 3, 78, 0
11, 97200, Note_on_c, 3, 72, 127
11, 97260, Note_on_c, 3, 72, 0
11, 97260, Note_on_c, 3, 72, 127
11, 97320, Note_on_c, 3, 72, 0
11, 97320, Note_on_c, 3, 72, 127
11, 97380, Note_on_c, 3, 72, 0
11, 97380, Note_on_c, 3, 72, 127
11, 97440, Note_on_c, 3, 72, 0
11, 97440, Note_on_c, 3, 72, 127
11, 97500, Note_on_c, 3, 72, 0
11, 97500, Note_on_c, 3, 72, 127
11, 97560, Note_on_c, 3, 72, 0
11, 97560, Note_on_c, 3, 72, 127
11, 97620, Note_on_c, 3, 72, 0
11, 97620, Note_on_c, 3, 72, 127
11, 97680, Note_on_c, 3, 72, 0
11, 97680, Note_on_c, 3, 71, 127
11, 97740, Note_on_c, 3, 71, 0
11, 97740, Note_on_c, 3, 71, 127
11, 97800, Note_on_c, 3, 71, 0
11, 97800, Note_on_c, 3, 71, 127
11, 97860, Note_on_c, 3, 71, 0
11, 97860, Note_on_c, 3, 71, 127
11, 97920, Note_on_c, 3, 71, 0
11, 97920, Note_on_c, 3, 71, 127
11, 97980, Note_on_c, 3, 71, 0
11, 97980, Note_on_c, 3, 71, 127
11, 98040, Note_on_c, 3, 71, 0
11, 98040, Note_on_c, 3, 71, 127
11, 98100, Note_on_c, 3, 71, 0
11, 98100, Note_on_c, 3, 71, 127
11, 98160, Note_on_c, 3, 71, 0
11, 98160, Note_on_c, 3, 71, 127
11, 98220, Note_on_c, 3, 71, 0
11, 98220, Note_on_c, 3, 71, 127
11, 98280, Note_on_c, 3, 71, 0
11, 98280, Note_on_c, 3, 71, 127
11, 98340, Note_on_c, 3, 71, 0
11, 98340, Note_on_c, 3, 71, 127
11, 98400, Note_on_c, 3, 71, 0
11, 98400, Note_on_c, 3, 71, 127
11, 98460, Note_on_c, 3, 71, 0
11, 98460, Note_on_c, 3, 71, 127
11, 98520, Note_on_c, 3, 71, 0
11, 98520, Note_on_c, 3, 71, 127
11, 98580, Note_on_c, 3, 71, 0
11, 98580, Note_on_c, 3, 71, 127
11, 98640, Note_on_c, 3, 71, 0
11, 98640, Note_on_c, 3, 71, 127
11, 98700, Note_on_c, 3, 71, 0
11, 98700, Note_on_c, 3, 71, 127
11, 98760, Note_on_c, 3, 71, 0
11, 98760, Note_on_c, 3, 72, 127
11, 98820, Note_on_c, 3, 72, 0
11, 98820, Note_on_c, 3, 73, 127
11, 98820, Control_c, 3, 6, 32
11, 98850, Pitch_bend_c, 3, 8448
11, 98865, Pitch_bend_c, 3, 8704
11, 98880, Note_on_c, 3, 73, 0
11, 98880, Pitch_bend_c, 3, 8192
11, 98880, Pitch_bend_c, 3, 8192
11, 98880, Note_on_c, 3, 74, 127
11, 98940, Note_on_c, 3, 74, 0
11, 98940, Note_on_c, 3, 74, 127
11, 99000, Note_on_c, 3, 74, 0
11, 99000, Note_on_c, 3, 74, 127
11, 99060, Note_on_c, 3, 74, 0
11, 99060, Note_on_c, 3, 74, 127
11, 99120, Note_on_c, 3, 74, 0
11, 99120, Note_on_c, 3, 74, 127
11, 99180, Note_on_c, 3, 74, 0
11, 99180, Note_on_c, 3, 74, 127
11, 99240, Note_on_c, 3, 74, 0
11, 99240, Note_on_c, 3, 74, 127
11, 99300, Note_on_c, 3, 74, 0
11, 99300, Note_on_c, 3, 74, 127
11, 99360, Note_on_c, 3, 74, 0
11, 99360, Note_on_c, 3, 79, 127
11, 99420, Note_on_c, 3, 79, 0
11, 99420, Note_on_c, 3, 79, 127
11, 99480, Note_on_c, 3, 79, 0
11, 99480, Note_on_c, 3, 79, 127
11, 99540, Note_on_c, 3, 79, 0
11, 99540, Note_on_c, 3, 79, 127
11, 99600, Note_on_c, 3, 79, 0
11, 99600, Note_on_c, 3, 79, 127
11, 99660, Note_on_c, 3, 79, 0
11, 99660, Note_on_c, 3, 79, 127
11, 99720, Note_on_c, 3, 79, 0
11, 99720, Note_on_c, 3, 79, 127
11, 99780, Note_on_c, 3, 79, 0
11, 99780, Note_on_c, 3, 79, 127
11, 99840, Note_on_c, 3, 79, 0
11, 99840, Note_on_c, 3, 81, 127
11, 99900, Note_on_c, 3, 81, 0
11, 99900, Note_on_c, 3, 81, 127
11, 99960, Note_on_c, 3, 81, 0
11, 99960, Note_on_c, 3, 81, 127
11, 100020, Note_on_c, 3, 81, 0
11, 100020, Note_on_c, 3, 81, 127
11, 100080, Note_on_c, 3, 81, 0
11, 100080, Note_on_c, 3, 81, 127
11, 100140, Note_on_c, 3, 81, 0
11, 100140, Note_on_c, 3, 81, 127
11, 100200, Note_on_c, 3, 81, 0
11, 100200, Note_on_c, 3, 81, 127
11, 100260, Note_on_c, 3, 81, 0
11, 100260, Note_on_c, 3, 81, 127
11, 100320, Note_on_c, 3, 81, 0
11, 100320, Note_on_c, 3, 81, 127
11, 100380, Note_on_c, 3, 81, 0
11, 100380, Note_on_c, 3, 81, 127
11, 100440, Note_on_c, 3, 81, 0
11, 100440, Note_on_c, 3, 81, 127
11, 100500, Note_on_c, 3, 81, 0
11, 100500, Note_on_c, 3, 81, 127
11, 100560, Note_on_c, 3, 81, 0
11, 100560, Note_on_c, 3, 81, 127
11, 100620, Note_on_c, 3, 81, 0
11, 100620, Note_on_c, 3, 81, 127
11, 100680, Note_on_c, 3, 81, 0
11, 100680, Note_on_c, 3, 81, 127
11, 100740, Note_on_c, 3, 81, 0
11, 100740, Note_on_c, 3, 81, 127
11, 100800, Note_on_c, 3, 81, 0
11, 100800, Note_on_c, 3, 81, 127
11, 100860, Note_on_c, 3, 81, 0
11, 100860, Note_on_c, 3, 81, 127
11, 100920, Note_on_c, 3, 81, 0
11, 100920, Note_on_c, 3, 81, 127
11, 100980, Note_on_c, 3, 81, 0
11, 100980, Note_on_c, 3, 81, 127
11, 101040, Note_on_c, 3, 81, 0
11, 101040, Note_on_c, 3, 84, 127
11, 101100, Note_on_c, 3, 84, 0
11, 101100, Note_on_c, 3, 84, 127
11, 101160, Note_on_c, 3, 84, 0
11, 101160, Note_on_c, 3, 84, 127
11, 101220, Note_on_c, 3, 84, 0
11, 101220, Note_on_c, 3, 84, 127
11, 101280, Note_on_c, 3, 84, 0
11, 101280, Note_on_c, 3, 84, 127
11, 101340, Note_on_c, 3, 84, 0
11, 101340, Note_on_c, 3, 84, 127
11, 101400, Note_on_c, 3, 84, 0
11, 101400, Note_on_c, 3, 84, 127
11, 101460, Note_on_c, 3, 84, 0
11, 101460, Note_on_c, 3, 84, 127
11, 101520, Note_on_c, 3, 84, 0
11, 101520, Note_on_c, 3, 83, 127
11, 101580, Note_on_c, 3, 83, 0
11, 101580, Note_on_c, 3, 83, 127
11, 101640, Note_on_c, 3, 83, 0
11, 101640, Note_on_c, 3, 83, 127
11, 101700, Note_on_c, 3, 83, 0
11, 101700, Note_on_c, 3, 83, 127
11, 101760, Note_on_c, 3, 83, 0
11, 101760, Note_on_c, 3, 83, 127
11, 101820, Note_on_c, 3, 83, 0
11, 101820, Note_on_c, 3, 83, 127
11, 101880, Note_on_c, 3, 83, 0
11, 101880, Note_on_c, 3, 83, 127
11, 101940, Note_on_c, 3, 83, 0
11, 101940, Note_on_c, 3, 83, 127
11, 102000, Note_on_c, 3, 83, 0
11, 102000, Note_on_c, 3, 83, 127
11, 102060, Note_on_c, 3, 83, 0
11, 102060, Note_on_c, 3, 83, 127
11, 102120, Note_on_c, 3, 83, 0
11, 102120, Note_on_c, 3, 83, 127
11, 102180, Note_on_c, 3, 83, 0
11, 102180, Note_on_c, 3, 83, 127
11, 102240, Note_on_c, 3, 83, 0
11, 102240, Note_on_c, 3, 83, 127
11, 102300, Note_on_c, 3, 83, 0
11, 102300, Note_on_c, 3, 83, 127
11, 102360, Note_on_c, 3, 83, 0
11, 102360, Note_on_c, 3, 83, 127
11, 102420, Note_on_c, 3, 83, 0
11, 102420, Note_on_c, 3, 83, 127
11, 102480, Note_on_c, 3, 83, 0
11, 102480, Note_on_c, 3, 83, 127
11, 102540, Note_on_c, 3, 83, 0
11, 102540, Note_on_c, 3, 83, 127
11, 102600, Note_on_c, 3, 83, 0
11, 102600, Note_on_c, 3, 83, 127
11, 102660, Note_on_c, 3, 83, 0
11, 102660, Note_on_c, 3, 83, 127
11, 102720, Note_on_c, 3, 83, 0
11, 102720, Note_on_c, 3, 83, 127
11, 102780, Note_on_c, 3, 83, 0
11, 102780, Note_on_c, 3, 83, 127
11, 102840, Note_on_c, 3, 83, 0
11, 102840, Note_on_c, 3, 83, 127
11, 102900, Note_on_c, 3, 83, 0
11, 102900, Note_on_c, 3, 83, 127
11, 102960, Note_on_c, 3, 83, 0
11, 102960, Note_on_c, 3, 83, 127
11, 103020, Note_on_c, 3, 83, 0
11, 103020, Note_on_c, 3, 83, 127
11, 103080, Note_on_c, 3, 83, 0
11, 103080, Note_on_c, 3, 83, 127
11, 103140, Note_on_c, 3, 83, 0
11, 103140, Note_on_c, 3, 83, 127
11, 103200, Note_on_c, 3, 83, 0
11, 103200, Note_on_c, 3, 82, 127
11, 103260, Note_on_c, 3, 82, 0
11, 103260, Note_on_c, 3, 83, 127
11, 103320, Note_on_c, 3, 83, 0
11, 103320, Note_on_c, 3, 83, 127
11, 103380, Note_on_c, 3, 83, 0
11, 103380, Note_on_c, 3, 83, 127
11, 103440, Note_on_c, 3, 83, 0
11, 103440, Note_on_c, 3, 83, 127
11, 103500, Note_on_c, 3, 83, 0
11, 103500, Note_on_c, 3, 83, 127
11, 103560, Note_on_c, 3, 83, 0
11, 103560, Note_on_c, 3, 83, 127
11, 103620, Note_on_c, 3, 83, 0
11, 103620, Note_on_c, 3, 83, 127
11, 103680, Note_on_c, 3, 83, 0
11, 103680, Note_on_c, 3, 82, 127
11, 103740, Note_on_c, 3, 82, 0
11, 103740, Note_on_c, 3, 82, 127
11, 103800, Note_on_c, 3, 82, 0
11, 103800, Note_on_c, 3, 82, 127
11, 103860, Note_on_c, 3, 82, 0
11, 103860, Note_on_c, 3, 82, 127
11, 103920, Note_on_c, 3, 82, 0
11, 103920, Note_on_c, 3, 82, 127
11, 103980, Note_on_c, 3, 82, 0
11, 103980, Note_on_c, 3, 82, 127
11, 104040, Note_on_c, 3, 82, 0
11, 104040, Note_on_c, 3, 82, 127
11, 104100, Note_on_c, 3, 82, 0
11, 104100, Note_on_c, 3, 82, 127
11, 104160, Note_on_c, 3, 82, 0
11, 104160, Note_on_c, 3, 82, 127
11, 104220, Note_on_c, 3, 82, 0
11, 104220, Note_on_c, 3, 82, 127
11, 104280, Note_on_c, 3, 82, 0
11, 104280, Note_on_c, 3, 82, 127
11, 104340, Note_on_c, 3, 82, 0
11, 104340, Note_on_c, 3, 82, 127
11, 104400, Note_on_c, 3, 82, 0
11, 104400, Note_on_c, 3, 78, 127
11, 104460, Note_on_c, 3, 78, 0
11, 104460, Note_on_c, 3, 78, 127
11, 104520, Note_on_c, 3, 78, 0
11, 104520, Note_on_c, 3, 78, 127
11, 104580, Note_on_c, 3, 78, 0
11, 104580, Note_on_c, 3, 78, 127
11, 104640, Note_on_c, 3, 78, 0
11, 104640, Note_on_c, 3, 78, 127
11, 104700, Note_on_c, 3, 78, 0
11, 104700, Note_on_c, 3, 78, 127
11, 104760, Note_on_c, 3, 78, 0
11, 104760, Note_on_c, 3, 78, 127
11, 104820, Note_on_c, 3, 78, 0
11, 104820, Note_on_c, 3, 78, 127
11, 104880, Note_on_c, 3, 78, 0
11, 104880, Note_on_c, 3, 78, 127
11, 104940, Note_on_c, 3, 78, 0
11, 104940, Note_on_c, 3, 78, 127
11, 105000, Note_on_c, 3, 78, 0
11, 105000, Note_on_c, 3, 78, 127
11, 105060, Note_on_c, 3, 78, 0
11, 105060, Note_on_c, 3, 78, 127
11, 105120, Note_on_c, 3, 78, 0
11, 105120, Note_on_c, 3, 73, 127
11, 105180, Note_on_c, 3, 73, 0
11, 105180, Note_on_c, 3, 73, 127
11, 105240, Note_on_c, 3, 73, 0
11, 105240, Note_on_c, 3, 73, 127
11, 105300, Note_on_c, 3, 73, 0
11, 105300, Note_on_c, 3, 73, 127
11, 105360, Note_on_c, 3, 73, 0
11, 105360, Note_on_c, 3, 73, 127
11, 105420, Note_on_c, 3, 73, 0
11, 105420, Note_on_c, 3, 73, 127
11, 105480, Note_on_c, 3, 73, 0
11, 105480, Note_on_c, 3, 73, 127
11, 105540, Note_on_c, 3, 73, 0
11, 105540, Note_on_c, 3, 74, 127
11, 105600, Note_on_c, 3, 74, 0
11, 105600, Note_on_c, 3, 74, 127
11, 105660, Note_on_c, 3, 74, 0
11, 105660, Note_on_c, 3, 74, 127
11, 105720, Note_on_c, 3, 74, 0
11, 105720, Note_on_c, 3, 74, 127
11, 105780, Note_on_c, 3, 74, 0
11, 105780, Note_on_c, 3, 74, 127
11, 105840, Note_on_c, 3, 74, 0
11, 105840, Note_on_c, 3, 74, 127
11, 105900, Note_on_c, 3, 74, 0
11, 105900, Note_on_c, 3, 74, 127
11, 105960, Note_on_c, 3, 74, 0
11, 105960, Note_on_c, 3, 74, 127
11, 106020, Note_on_c, 3, 74, 0
11, 106020, Note_on_c, 3, 74, 127
11, 106080, Note_on_c, 3, 74, 0
11, 106080, Note_on_c, 3, 74, 127
11, 106140, Note_on_c, 3, 74, 0
11, 106140, Note_on_c, 3, 74, 127
11, 106200, Note_on_c, 3, 74, 0
11, 106200, Note_on_c, 3, 74, 127
11, 106260, Note_on_c, 3, 74, 0
11, 106260, Note_on_c, 3, 74, 127
11, 106320, Note_on_c, 3, 74, 0
11, 106320, Note_on_c, 3, 74, 127
11, 106380, Note_on_c, 3, 74, 0
11, 106380, Note_on_c, 3, 74, 127
11, 106440, Note_on_c, 3, 74, 0
11, 106440, Note_on_c, 3, 74, 127
11, 106500, Note_on_c, 3, 74, 0
11, 106500, Control_c, 3, 6, 32
11, 106500, Note_on_c, 3, 74, 127
11, 106530, Pitch_bend_c, 3, 8448
11, 106545, Pitch_bend_c, 3, 8704
11, 106560, Note_on_c, 3, 74, 0
11, 106560, Note_on_c, 3, 78, 127
11, 106560, Pitch_bend_c, 3, 8192
11, 106560, Pitch_bend_c, 3, 8192
11, 106620, Note_on_c, 3, 78, 0
11, 106620, Note_on_c, 3, 78, 127
11, 106680, Note_on_c, 3, 78, 0
11, 106680, Note_on_c, 3, 78, 127
11, 106740, Note_on_c, 3, 78, 0
11, 106740, Note_on_c, 3, 78, 127
11, 106800, Note_on_c, 3, 78, 0
11, 106800, Note_on_c, 3, 78, 127
11, 106860, Note_on_c, 3, 78, 0
11, 106860, Note_on_c, 3, 78, 127
11, 106920, Note_on_c, 3, 78, 0
11, 106920, Note_on_c, 3, 78, 127
11, 106980, Note_on_c, 3, 78, 0
11, 106980, Note_on_c, 3, 78, 127
11, 107040, Note_on_c, 3, 78, 0
11, 107040, Note_on_c, 3, 76, 127
11, 107100, Note_on_c, 3, 76, 0
11, 107100, Note_on_c, 3, 76, 127
11, 107160, Note_on_c, 3, 76, 0
11, 107160, Note_on_c, 3, 76, 127
11, 107220, Note_on_c, 3, 76, 0
11, 107220, Note_on_c, 3, 76, 127
11, 107280, Note_on_c, 3, 76, 0
11, 107280, Note_on_c, 3, 76, 127
11, 107340, Note_on_c, 3, 76, 0
11, 107340, Note_on_c, 3, 76, 127
11, 107400, Note_on_c, 3, 76, 0
11, 107400, Note_on_c, 3, 76, 127
11, 107460, Note_on_c, 3, 76, 0
11, 107460, Note_on_c, 3, 74, 127
11, 107520, Note_on_c, 3, 74, 0
11, 107520, Note_on_c, 3, 73, 127
11, 107580, Note_on_c, 3, 73, 0
11, 107580, Note_on_c, 3, 73, 127
11, 107640, Note_on_c, 3, 73, 0
11, 107640, Note_on_c, 3, 73, 127
11, 107700, Note_on_c, 3, 73, 0
11, 107700, Note_on_c, 3, 73, 127
11, 107760, Note_on_c, 3, 73, 0
11, 107760, Note_on_c, 3, 73, 127
11, 107820, Note_on_c, 3, 73, 0
11, 107820, Note_on_c, 3, 73, 127
11, 107880, Note_on_c, 3, 73, 0
11, 107880, Note_on_c, 3, 73, 127
11, 107940, Note_on_c, 3, 73, 0
11, 107940, Note_on_c, 3, 73, 127
11, 108000, Note_on_c, 3, 73, 0
11, 108000, Note_on_c, 3, 73, 127
11, 108060, Note_on_c, 3, 73, 0
11, 108060, Note_on_c, 3, 73, 127
11, 108120, Note_on_c, 3, 73, 0
11, 108120, Note_on_c, 3, 73, 127
11, 108180, Note_on_c, 3, 73, 0
11, 108180, Note_on_c, 3, 73, 127
11, 108240, Note_on_c, 3, 73, 0
11, 108240, Note_on_c, 3, 73, 127
11, 108300, Note_on_c, 3, 73, 0
11, 108300, Note_on_c, 3, 73, 127
11, 108360, Note_on_c, 3, 73, 0
11, 108360, Note_on_c, 3, 73, 127
11, 108420, Note_on_c, 3, 73, 0
11, 108420, Note_on_c, 3, 73, 127
11, 108480, Note_on_c, 3, 73, 0
11, 108480, Note_on_c, 3, 73, 127
11, 108540, Note_on_c, 3, 73, 0
11, 108540, Note_on_c, 3, 73, 127
11, 108600, Note_on_c, 3, 73, 0
11, 108600, Note_on_c, 3, 73, 127
11, 108660, Note_on_c, 3, 73, 0
11, 108660, Note_on_c, 3, 73, 127
11, 108720, Note_on_c, 3, 73, 0
11, 108720, Note_on_c, 3, 70, 127
11, 108780, Note_on_c, 3, 70, 0
11, 108780, Note_on_c, 3, 70, 127
11, 108840, Note_on_c, 3, 70, 0
11, 108840, Note_on_c, 3, 70, 127
11, 108900, Note_on_c, 3, 70, 0
11, 108900, Note_on_c, 3, 70, 127
11, 108960, Note_on_c, 3, 70, 0
11, 108960, Note_on_c, 3, 70, 127
11, 109020, Note_on_c, 3, 70, 0
11, 109020, Note_on_c, 3, 70, 127
11, 109080, Note_on_c, 3, 70, 0
11, 109080, Note_on_c, 3, 70, 127
11, 109140, Note_on_c, 3, 70, 0
11, 109140, Note_on_c, 3, 70, 127
11, 109200, Note_on_c, 3, 70, 0
11, 109200, Note_on_c, 3, 71, 127
11, 109260, Note_on_c, 3, 71, 0
11, 109260, Note_on_c, 3, 71, 127
11, 109320, Note_on_c, 3, 71, 0
11, 109320, Note_on_c, 3, 71, 127
11, 109380, Note_on_c, 3, 71, 0
11, 109380, Note_on_c, 3, 71, 127
11, 109440, Note_on_c, 3, 71, 0
11, 109440, Note_on_c, 3, 71, 127
11, 109500, Note_on_c, 3, 71, 0
11, 109500, Note_on_c, 3, 71, 127
11, 109560, Note_on_c, 3, 71, 0
11, 109560, Note_on_c, 3, 71, 127
11, 109620, Note_on_c, 3, 71, 0
11, 109620, Note_on_c, 3, 71, 127
11, 109680, Note_on_c, 3, 71, 0
11, 109680, Note_on_c, 3, 71, 127
11, 109740, Note_on_c, 3, 71, 0
11, 109740, Note_on_c, 3, 71, 127
11, 109800, Note_on_c, 3, 71, 0
11, 109800, Note_on_c, 3, 71, 127
11, 109860, Note_on_c, 3, 71, 0
11, 109860, Note_on_c, 3, 71, 127
11, 109920, Note_on_c, 3, 71, 0
11, 109920, Note_on_c, 3, 71, 127
11, 109980, Note_on_c, 3, 71, 0
11, 109980, Note_on_c, 3, 71, 127
11, 110040, Note_on_c, 3, 71, 0
11, 110040, Note_on_c, 3, 71, 127
11, 110100, Note_on_c, 3, 71, 0
11, 110100, Note_on_c, 3, 71, 127
11, 110160, Note_on_c, 3, 71, 0
11, 110160, Note_on_c, 3, 71, 127
11, 110220, Note_on_c, 3, 71, 0
11, 110220, Note_on_c, 3, 71, 127
11, 110280, Note_on_c, 3, 71, 0
11, 110280, Note_on_c, 3, 71, 127
11, 110340, Note_on_c, 3, 71, 0
11, 110340, Note_on_c, 3, 71, 127
11, 110340, Control_c, 3, 6, 32
11, 110370, Pitch_bend_c, 3, 8448
11, 110385, Pitch_bend_c, 3, 8704
11, 110400, Note_on_c, 3, 71, 0
11, 110400, Pitch_bend_c, 3, 8192
11, 110400, Pitch_bend_c, 3, 8192
11, 110400, Note_on_c, 3, 71, 127
11, 110460, Note_on_c, 3, 71, 0
11, 110460, Note_on_c, 3, 71, 127
11, 110520, Note_on_c, 3, 71, 0
11, 110520, Note_on_c, 3, 71, 127
11, 110580, Note_on_c, 3, 71, 0
11, 110580, Note_on_c, 3, 71, 127
11, 110640, Note_on_c, 3, 71, 0
11, 110640, Note_on_c, 3, 71, 127
11, 110700, Note_on_c, 3, 71, 0
11, 110700, Note_on_c, 3, 71, 127
11, 110760, Note_on_c, 3, 71, 0
11, 110760, Note_on_c, 3, 71, 127
11, 110820, Note_on_c, 3, 71, 0
11, 110820, Note_on_c, 3, 71, 127
11, 110880, Note_on_c, 3, 71, 0
11, 110880, Note_on_c, 3, 71, 127
11, 110940, Note_on_c, 3, 71, 0
11, 110940, Note_on_c, 3, 71, 127
11, 111000, Note_on_c, 3, 71, 0
11, 111000, Note_on_c, 3, 71, 127
11, 111060, Note_on_c, 3, 71, 0
11, 111060, Note_on_c, 3, 71, 127
11, 111120, Note_on_c, 3, 71, 0
11, 111120, Note_on_c, 3, 71, 127
11, 111180, Note_on_c, 3, 71, 0
11, 111180, Note_on_c, 3, 71, 127
11, 111240, Note_on_c, 3, 71, 0
11, 111240, Note_on_c, 3, 71, 127
11, 111300, Note_on_c, 3, 71, 0
11, 111300, Note_on_c, 3, 71, 127
11, 111360, Note_on_c, 3, 71, 0
11, 126720, Note_on_c, 3, 78, 127
11, 126780, Note_on_c, 3, 78, 0
11, 126780, Note_on_c, 3, 78, 127
11, 126840, Note_on_c, 3, 78, 0
11, 126840, Note_on_c, 3, 78, 127
11, 126900, Note_on_c, 3, 78, 0
11, 126900, Note_on_c, 3, 78, 127
11, 126960, Note_on_c, 3, 78, 0
11, 126960, Note_on_c, 3, 78, 127
11, 127020, Note_on_c, 3, 78, 0
11, 127020, Note_on_c, 3, 78, 127
11, 127080, Note_on_c, 3, 78, 0
11, 127080, Note_on_c, 3, 78, 127
11, 127140, Note_on_c, 3, 78, 0
11, 127140, Note_on_c, 3, 78, 127
11, 127200, Note_on_c, 3, 78, 0
11, 127200, Note_on_c, 3, 78, 127
11, 127260, Note_on_c, 3, 78, 0
11, 127260, Note_on_c, 3, 78, 127
11, 127320, Note_on_c, 3, 78, 0
11, 127320, Note_on_c, 3, 78, 127
11, 127380, Note_on_c, 3, 78, 0
11, 127380, Note_on_c, 3, 78, 127
11, 127440, Note_on_c, 3, 78, 0
11, 127440, Note_on_c, 3, 78, 127
11, 127500, Note_on_c, 3, 78, 0
11, 127500, Note_on_c, 3, 78, 127
11, 127560, Note_on_c, 3, 78, 0
11, 127560, Note_on_c, 3, 78, 127
11, 127620, Note_on_c, 3, 78, 0
11, 127620, Note_on_c, 3, 78, 127
11, 127680, Note_on_c, 3, 78, 0
11, 127680, Note_on_c, 3, 78, 127
11, 127740, Note_on_c, 3, 78, 0
11, 127740, Note_on_c, 3, 78, 127
11, 127800, Note_on_c, 3, 78, 0
11, 127800, Note_on_c, 3, 78, 127
11, 127860, Note_on_c, 3, 78, 0
11, 127860, Note_on_c, 3, 78, 127
11, 127920, Note_on_c, 3, 78, 0
11, 127920, Note_on_c, 3, 72, 127
11, 127980, Note_on_c, 3, 72, 0
11, 127980, Note_on_c, 3, 72, 127
11, 128040, Note_on_c, 3, 72, 0
11, 128040, Note_on_c, 3, 72, 127
11, 128100, Note_on_c, 3, 72, 0
11, 128100, Note_on_c, 3, 72, 127
11, 128160, Note_on_c, 3, 72, 0
11, 128160, Note_on_c, 3, 72, 127
11, 128220, Note_on_c, 3, 72, 0
11, 128220, Note_on_c, 3, 72, 127
11, 128280, Note_on_c, 3, 72, 0
11, 128280, Note_on_c, 3, 72, 127
11, 128340, Note_on_c, 3, 72, 0
11, 128340, Note_on_c, 3, 72, 127
11, 128400, Note_on_c, 3, 72, 0
11, 128400, Note_on_c, 3, 71, 127
11, 128460, Note_on_c, 3, 71, 0
11, 128460, Note_on_c, 3, 71, 127
11, 128520, Note_on_c, 3, 71, 0
11, 128520, Note_on_c, 3, 71, 127
11, 128580, Note_on_c, 3, 71, 0
11, 128580, Note_on_c, 3, 71, 127
11, 128640, Note_on_c, 3, 71, 0
11, 128640, Note_on_c, 3, 71, 127
11, 128700, Note_on_c, 3, 71, 0
11, 128700, Note_on_c, 3, 71, 127
11, 128760, Note_on_c, 3, 71, 0
11, 128760, Note_on_c, 3, 71, 127
11, 128820, Note_on_c, 3, 71, 0
11, 128820, Note_on_c, 3, 71, 127
11, 128880, Note_on_c, 3, 71, 0
11, 128880, Note_on_c, 3, 71, 127
11, 128940, Note_on_c, 3, 71, 0
11, 128940, Note_on_c, 3, 71, 127
11, 129000, Note_on_c, 3, 71, 0
11, 129000, Note_on_c, 3, 71, 127
11, 129060, Note_on_c, 3, 71, 0
11, 129060, Note_on_c, 3, 71, 127
11, 129120, Note_on_c, 3, 71, 0
11, 129120, Note_on_c, 3, 71, 127
11, 129180, Note_on_c, 3, 71, 0
11, 129180, Note_on_c, 3, 71, 127
11, 129240, Note_on_c, 3, 71, 0
11, 129240, Note_on_c, 3, 71, 127
11, 129300, Note_on_c, 3, 71, 0
11, 129300, Note_on_c, 3, 71, 127
11, 129360, Note_on_c, 3, 71, 0
11, 129360, Note_on_c, 3, 71, 127
11, 129420, Note_on_c, 3, 71, 0
11, 129420, Note_on_c, 3, 71, 127
11, 129480, Note_on_c, 3, 71, 0
11, 129480, Note_on_c, 3, 71, 127
11, 129540, Note_on_c, 3, 71, 0
11, 129540, Note_on_c, 3, 71, 127
11, 129540, Control_c, 3, 6, 32
11, 129570, Pitch_bend_c, 3, 8448
11, 129585, Pitch_bend_c, 3, 8704
11, 129600, Note_on_c, 3, 71, 0
11, 129600, Note_on_c, 3, 74, 127
11, 129600, Pitch_bend_c, 3, 8192
11, 129600, Pitch_bend_c, 3, 8192
11, 129660, Note_on_c, 3, 74, 0
11, 129660, Note_on_c, 3, 74, 127
11, 129720, Note_on_c, 3, 74, 0
11, 129720, Note_on_c, 3, 74, 127
11, 129780, Note_on_c, 3, 74, 0
11, 129780, Note_on_c, 3, 74, 127
11, 129840, Note_on_c, 3, 74, 0
11, 129840, Note_on_c, 3, 74, 127
11, 129900, Note_on_c, 3, 74, 0
11, 129900, Note_on_c, 3, 74, 127
11, 129960, Note_on_c, 3, 74, 0
11, 129960, Note_on_c, 3, 74, 127
11, 130020, Note_on_c, 3, 74, 0
11, 130020, Note_on_c, 3, 74, 127
11, 130080, Note_on_c, 3, 74, 0
11, 130080, Note_on_c, 3, 79, 127
11, 130140, Note_on_c, 3, 79, 0
11, 130140, Note_on_c, 3, 79, 127
11, 130200, Note_on_c, 3, 79, 0
11, 130200, Note_on_c, 3, 79, 127
11, 130260, Note_on_c, 3, 79, 0
11, 130260, Note_on_c, 3, 79, 127
11, 130320, Note_on_c, 3, 79, 0
11, 130320, Note_on_c, 3, 79, 127
11, 130380, Note_on_c, 3, 79, 0
11, 130380, Note_on_c, 3, 79, 127
11, 130440, Note_on_c, 3, 79, 0
11, 130440, Note_on_c, 3, 79, 127
11, 130500, Note_on_c, 3, 79, 0
11, 130500, Note_on_c, 3, 79, 127
11, 130560, Note_on_c, 3, 79, 0
11, 130560, Note_on_c, 3, 78, 127
11, 130620, Note_on_c, 3, 78, 0
11, 130620, Note_on_c, 3, 78, 127
11, 130680, Note_on_c, 3, 78, 0
11, 130680, Note_on_c, 3, 78, 127
11, 130740, Note_on_c, 3, 78, 0
11, 130740, Note_on_c, 3, 78, 127
11, 130800, Note_on_c, 3, 78, 0
11, 130800, Note_on_c, 3, 78, 127
11, 130860, Note_on_c, 3, 78, 0
11, 130860, Note_on_c, 3, 78, 127
11, 130920, Note_on_c, 3, 78, 0
11, 130920, Note_on_c, 3, 78, 127
11, 130980, Note_on_c, 3, 78, 0
11, 130980, Note_on_c, 3, 78, 127
11, 131040, Note_on_c, 3, 78, 0
11, 131040, Note_on_c, 3, 78, 127
11, 131100, Note_on_c, 3, 78, 0
11, 131100, Note_on_c, 3, 78, 127
11, 131160, Note_on_c, 3, 78, 0
11, 131160, Note_on_c, 3, 78, 127
11, 131220, Note_on_c, 3, 78, 0
11, 131220, Note_on_c, 3, 78, 127
11, 131280, Note_on_c, 3, 78, 0
11, 131280, Note_on_c, 3, 78, 127
11, 131340, Note_on_c, 3, 78, 0
11, 131340, Note_on_c, 3, 78, 127
11, 131400, Note_on_c, 3, 78, 0
11, 131400, Note_on_c, 3, 78, 127
11, 131460, Note_on_c, 3, 78, 0
11, 131460, Note_on_c, 3, 78, 127
11, 131520, Note_on_c, 3, 78, 0
11, 131520, Note_on_c, 3, 78, 127
11, 131580, Note_on_c, 3, 78, 0
11, 131580, Note_on_c, 3, 78, 127
11, 131640, Note_on_c, 3, 78, 0
11, 131640, Note_on_c, 3, 78, 127
11, 131700, Note_on_c, 3, 78, 0
11, 131700, Note_on_c, 3, 78, 127
11, 131760, Note_on_c, 3, 78, 0
11, 131760, Note_on_c, 3, 72, 127
11, 131820, Note_on_c, 3, 72, 0
11, 131820, Note_on_c, 3, 72, 127
11, 131880, Note_on_c, 3, 72, 0
11, 131880, Note_on_c, 3, 72, 127
11, 131940, Note_on_c, 3, 72, 0
11, 131940, Note_on_c, 3, 72, 127
11, 132000, Note_on_c, 3, 72, 0
11, 132000, Note_on_c, 3, 72, 127
11, 132060, Note_on_c, 3, 72, 0
11, 132060, Note_on_c, 3, 72, 127
11, 132120, Note_on_c, 3, 72, 0
11, 132120, Note_on_c, 3, 72, 127
11, 132180, Note_on_c, 3, 72, 0
11, 132180, Note_on_c, 3, 72, 127
11, 132240, Note_on_c, 3, 72, 0
11, 132240, Note_on_c, 3, 71, 127
11, 132300, Note_on_c, 3, 71, 0
11, 132300, Note_on_c, 3, 71, 127
11, 132360, Note_on_c, 3, 71, 0
11, 132360, Note_on_c, 3, 71, 127
11, 132420, Note_on_c, 3, 71, 0
11, 132420, Note_on_c, 3, 71, 127
11, 132480, Note_on_c, 3, 71, 0
11, 132480, Note_on_c, 3, 71, 127
11, 132540, Note_on_c, 3, 71, 0
11, 132540, Note_on_c, 3, 71, 127
11, 132600, Note_on_c, 3, 71, 0
11, 132600, Note_on_c, 3, 71, 127
11, 132660, Note_on_c, 3, 71, 0
11, 132660, Note_on_c, 3, 71, 127
11, 132720, Note_on_c, 3, 71, 0
11, 132720, Note_on_c, 3, 71, 127
11, 132780, Note_on_c, 3, 71, 0
11, 132780, Note_on_c, 3, 71, 127
11, 132840, Note_on_c, 3, 71, 0
11, 132840, Note_on_c, 3, 71, 127
11, 132900, Note_on_c, 3, 71, 0
11, 132900, Note_on_c, 3, 71, 127
11, 132960, Note_on_c, 3, 71, 0
11, 132960, Note_on_c, 3, 71, 127
11, 133020, Note_on_c, 3, 71, 0
11, 133020, Note_on_c, 3, 71, 127
11, 133080, Note_on_c, 3, 71, 0
11, 133080, Note_on_c, 3, 71, 127
11, 133140, Note_on_c, 3, 71, 0
11, 133140, Note_on_c, 3, 71, 127
11, 133200, Note_on_c, 3, 71, 0
11, 133200, Note_on_c, 3, 71, 127
11, 133260, Note_on_c, 3, 71, 0
11, 133260, Note_on_c, 3, 71, 127
11, 133320, Note_on_c, 3, 71, 0
11, 133320, Note_on_c, 3, 71, 127
11, 133380, Note_on_c, 3, 71, 0
11, 133380, Control_c, 3, 6, 32
11, 133380, Note_on_c, 3, 71, 127
11, 133410, Pitch_bend_c, 3, 8448
11, 133425, Pitch_bend_c, 3, 8704
11, 133440, Note_on_c, 3, 71, 0
11, 133440, Pitch_bend_c, 3, 8192
11, 133440, Note_on_c, 3, 74, 127
11, 133440, Pitch_bend_c, 3, 8192
11, 133500, Note_on_c, 3, 74, 0
11, 133500, Note_on_c, 3, 74, 127
11, 133560, Note_on_c, 3, 74, 0
11, 133560, Note_on_c, 3, 74, 127
11, 133620, Note_on_c, 3, 74, 0
11, 133620, Note_on_c, 3, 74, 127
11, 133680, Note_on_c, 3, 74, 0
11, 133680, Note_on_c, 3, 74, 127
11, 133740, Note_on_c, 3, 74, 0
11, 133740, Note_on_c, 3, 74, 127
11, 133800, Note_on_c, 3, 74, 0
11, 133800, Note_on_c, 3, 74, 127
11, 133860, Note_on_c, 3, 74, 0
11, 133860, Note_on_c, 3, 74, 127
11, 133920, Note_on_c, 3, 74, 0
11, 133920, Note_on_c, 3, 79, 127
11, 133980, Note_on_c, 3, 79, 0
11, 133980, Note_on_c, 3, 79, 127
11, 134040, Note_on_c, 3, 79, 0
11, 134040, Note_on_c, 3, 79, 127
11, 134100, Note_on_c, 3, 79, 0
11, 134100, Note_on_c, 3, 79, 127
11, 134160, Note_on_c, 3, 79, 0
11, 134160, Note_on_c, 3, 79, 127
11, 134220, Note_on_c, 3, 79, 0
11, 134220, Note_on_c, 3, 79, 127
11, 134280, Note_on_c, 3, 79, 0
11, 134280, Note_on_c, 3, 79, 127
11, 134340, Note_on_c, 3, 79, 0
11, 134340, Note_on_c, 3, 79, 127
11, 134400, Note_on_c, 3, 79, 0
11, 134400, Note_on_c, 3, 78, 127
11, 134460, Note_on_c, 3, 78, 0
11, 134460, Note_on_c, 3, 78, 127
11, 134520, Note_on_c, 3, 78, 0
11, 134520, Note_on_c, 3, 78, 127
11, 134580, Note_on_c, 3, 78, 0
11, 134580, Note_on_c, 3, 78, 127
11, 134640, Note_on_c, 3, 78, 0
11, 134640, Note_on_c, 3, 78, 127
11, 134700, Note_on_c, 3, 78, 0
11, 134700, Note_on_c, 3, 78, 127
11, 134760, Note_on_c, 3, 78, 0
11, 134760, Note_on_c, 3, 78, 127
11, 134820, Note_on_c, 3, 78, 0
11, 134820, Note_on_c, 3, 78, 127
11, 134880, Note_on_c, 3, 78, 0
11, 134880, Note_on_c, 3, 78, 127
11, 134940, Note_on_c, 3, 78, 0
11, 134940, Note_on_c, 3, 78, 127
11, 135000, Note_on_c, 3, 78, 0
11, 135000, Note_on_c, 3, 78, 127
11, 135060, Note_on_c, 3, 78, 0
11, 135060, Note_on_c, 3, 78, 127
11, 135120, Note_on_c, 3, 78, 0
11, 135120, Note_on_c, 3, 78, 127
11, 135180, Note_on_c, 3, 78, 0
11, 135180, Note_on_c, 3, 78, 127
11, 135240, Note_on_c, 3, 78, 0
11, 135240, Note_on_c, 3, 78, 127
11, 135300, Note_on_c, 3, 78, 0
11, 135300, Note_on_c, 3, 78, 127
11, 135360, Note_on_c, 3, 78, 0
11, 135360, Note_on_c, 3, 78, 127
11, 135420, Note_on_c, 3, 78, 0
11, 135420, Note_on_c, 3, 78, 127
11, 135480, Note_on_c, 3, 78, 0
11, 135480, Note_on_c, 3, 78, 127
11, 135540, Note_on_c, 3, 78, 0
11, 135540, Note_on_c, 3, 78, 127
11, 135600, Note_on_c, 3, 78, 0
11, 135600, Note_on_c, 3, 72, 127
11, 135660, Note_on_c, 3, 72, 0
11, 135660, Note_on_c, 3, 72, 127
11, 135720, Note_on_c, 3, 72, 0
11, 135720, Note_on_c, 3, 72, 127
11, 135780, Note_on_c, 3, 72, 0
11, 135780, Note_on_c, 3, 72, 127
11, 135840, Note_on_c, 3, 72, 0
11, 135840, Note_on_c, 3, 72, 127
11, 135900, Note_on_c, 3, 72, 0
11, 135900, Note_on_c, 3, 72, 127
11, 135960, Note_on_c, 3, 72, 0
11, 135960, Note_on_c, 3, 72, 127
11, 136020, Note_on_c, 3, 72, 0
11, 136020, Note_on_c, 3, 72, 127
11, 136080, Note_on_c, 3, 72, 0
11, 136080, Note_on_c, 3, 71, 127
11, 136140, Note_on_c, 3, 71, 0
11, 136140, Note_on_c, 3, 71, 127
11, 136200, Note_on_c, 3, 71, 0
11, 136200, Note_on_c, 3, 71, 127
11, 136260, Note_on_c, 3, 71, 0
11, 136260, Note_on_c, 3, 71, 127
11, 136320, Note_on_c, 3, 71, 0
11, 136320, Note_on_c, 3, 71, 127
11, 136380, Note_on_c, 3, 71, 0
11, 136380, Note_on_c, 3, 71, 127
11, 136440, Note_on_c, 3, 71, 0
11, 136440, Note_on_c, 3, 71, 127
11, 136500, Note_on_c, 3, 71, 0
11, 136500, Note_on_c, 3, 71, 127
11, 136560, Note_on_c, 3, 71, 0
11, 136560, Note_on_c, 3, 71, 127
11, 136620, Note_on_c, 3, 71, 0
11, 136620, Note_on_c, 3, 71, 127
11, 136680, Note_on_c, 3, 71, 0
11, 136680, Note_on_c, 3, 71, 127
11, 136740, Note_on_c, 3, 71, 0
11, 136740, Note_on_c, 3, 71, 127
11, 136800, Note_on_c, 3, 71, 0
11, 136800, Note_on_c, 3, 71, 127
11, 136860, Note_on_c, 3, 71, 0
11, 136860, Note_on_c, 3, 71, 127
11, 136920, Note_on_c, 3, 71, 0
11, 136920, Note_on_c, 3, 71, 127
11, 136980, Note_on_c, 3, 71, 0
11, 136980, Note_on_c, 3, 71, 127
11, 137040, Note_on_c, 3, 71, 0
11, 137040, Note_on_c, 3, 71, 127
11, 137100, Note_on_c, 3, 71, 0
11, 137100, Note_on_c, 3, 71, 127
11, 137160, Note_on_c, 3, 71, 0
11, 137160, Note_on_c, 3, 71, 127
11, 137220, Note_on_c, 3, 71, 0
11, 137220, Control_c, 3, 6, 32
11, 137220, Note_on_c, 3, 71, 127
11, 137250, Pitch_bend_c, 3, 8448
11, 137265, Pitch_bend_c, 3, 8704
11, 137280, Note_on_c, 3, 71, 0
11, 137280, Note_on_c, 3, 74, 127
11, 137280, Pitch_bend_c, 3, 8192
11, 137280, Pitch_bend_c, 3, 8192
11, 137340, Note_on_c, 3, 74, 0
11, 137340, Note_on_c, 3, 74, 127
11, 137400, Note_on_c, 3, 74, 0
11, 137400, Note_on_c, 3, 74, 127
11, 137460, Note_on_c, 3, 74, 0
11, 137460, Note_on_c, 3, 74, 127
11, 137520, Note_on_c, 3, 74, 0
11, 137520, Note_on_c, 3, 74, 127
11, 137580, Note_on_c, 3, 74, 0
11, 137580, Note_on_c, 3, 74, 127
11, 137640, Note_on_c, 3, 74, 0
11, 137640, Note_on_c, 3, 74, 127
11, 137700, Note_on_c, 3, 74, 0
11, 137700, Note_on_c, 3, 74, 127
11, 137760, Note_on_c, 3, 74, 0
11, 137760, Note_on_c, 3, 79, 127
11, 137820, Note_on_c, 3, 79, 0
11, 137820, Note_on_c, 3, 79, 127
11, 137880, Note_on_c, 3, 79, 0
11, 137880, Note_on_c, 3, 79, 127
11, 137940, Note_on_c, 3, 79, 0
11, 137940, Note_on_c, 3, 79, 127
11, 138000, Note_on_c, 3, 79, 0
11, 138000, Note_on_c, 3, 79, 127
11, 138060, Note_on_c, 3, 79, 0
11, 138060, Note_on_c, 3, 79, 127
11, 138120, Note_on_c, 3, 79, 0
11, 138120, Note_on_c, 3, 79, 127
11, 138180, Note_on_c, 3, 79, 0
11, 138180, Note_on_c, 3, 79, 127
11, 138240, Note_on_c, 3, 79, 0
11, 138240, Note_on_c, 3, 78, 127
11, 138300, Note_on_c, 3, 78, 0
11, 138300, Note_on_c, 3, 78, 127
11, 138360, Note_on_c, 3, 78, 0
11, 138360, Note_on_c, 3, 78, 127
11, 138420, Note_on_c, 3, 78, 0
11, 138420, Note_on_c, 3, 78, 127
11, 138480, Note_on_c, 3, 78, 0
11, 138480, Note_on_c, 3, 78, 127
11, 138540, Note_on_c, 3, 78, 0
11, 138540, Note_on_c, 3, 78, 127
11, 138600, Note_on_c, 3, 78, 0
11, 138600, Note_on_c, 3, 78, 127
11, 138660, Note_on_c, 3, 78, 0
11, 138660, Note_on_c, 3, 78, 127
11, 138720, Note_on_c, 3, 78, 0
11, 138720, Note_on_c, 3, 78, 127
11, 138780, Note_on_c, 3, 78, 0
11, 138780, Note_on_c, 3, 78, 127
11, 138840, Note_on_c, 3, 78, 0
11, 138840, Note_on_c, 3, 78, 127
11, 138900, Note_on_c, 3, 78, 0
11, 138900, Note_on_c, 3, 78, 127
11, 138960, Note_on_c, 3, 78, 0
11, 138960, Note_on_c, 3, 78, 127
11, 139020, Note_on_c, 3, 78, 0
11, 139020, Note_on_c, 3, 78, 127
11, 139080, Note_on_c, 3, 78, 0
11, 139080, Note_on_c, 3, 78, 127
11, 139140, Note_on_c, 3, 78, 0
11, 139140, Note_on_c, 3, 78, 127
11, 139200, Note_on_c, 3, 78, 0
11, 139200, Note_on_c, 3, 78, 127
11, 139260, Note_on_c, 3, 78, 0
11, 139260, Note_on_c, 3, 78, 127
11, 139320, Note_on_c, 3, 78, 0
11, 139320, Note_on_c, 3, 78, 127
11, 139380, Note_on_c, 3, 78, 0
11, 139380, Note_on_c, 3, 78, 127
11, 139440, Note_on_c, 3, 78, 0
11, 139440, Note_on_c, 3, 72, 127
11, 139500, Note_on_c, 3, 72, 0
11, 139500, Note_on_c, 3, 72, 127
11, 139560, Note_on_c, 3, 72, 0
11, 139560, Note_on_c, 3, 72, 127
11, 139620, Note_on_c, 3, 72, 0
11, 139620, Note_on_c, 3, 72, 127
11, 139680, Note_on_c, 3, 72, 0
11, 139680, Note_on_c, 3, 72, 127
11, 139740, Note_on_c, 3, 72, 0
11, 139740, Note_on_c, 3, 72, 127
11, 139800, Note_on_c, 3, 72, 0
11, 139800, Note_on_c, 3, 72, 127
11, 139860, Note_on_c, 3, 72, 0
11, 139860, Note_on_c, 3, 72, 127
11, 139920, Note_on_c, 3, 72, 0
11, 139920, Note_on_c, 3, 71, 127
11, 139980, Note_on_c, 3, 71, 0
11, 139980, Note_on_c, 3, 71, 127
11, 140040, Note_on_c, 3, 71, 0
11, 140040, Note_on_c, 3, 71, 127
11, 140100, Note_on_c, 3, 71, 0
11, 140100, Note_on_c, 3, 71, 127
11, 140160, Note_on_c, 3, 71, 0
11, 140160, Note_on_c, 3, 71, 127
11, 140220, Note_on_c, 3, 71, 0
11, 140220, Note_on_c, 3, 71, 127
11, 140280, Note_on_c, 3, 71, 0
11, 140280, Note_on_c, 3, 71, 127
11, 140340, Note_on_c, 3, 71, 0
11, 140340, Note_on_c, 3, 71, 127
11, 140400, Note_on_c, 3, 71, 0
11, 140400, Note_on_c, 3, 71, 127
11, 140460, Note_on_c, 3, 71, 0
11, 140460, Note_on_c, 3, 71, 127
11, 140520, Note_on_c, 3, 71, 0
11, 140520, Note_on_c, 3, 71, 127
11, 140580, Note_on_c, 3, 71, 0
11, 140580, Note_on_c, 3, 71, 127
11, 140640, Note_on_c, 3, 71, 0
11, 140640, Note_on_c, 3, 71, 127
11, 140700, Note_on_c, 3, 71, 0
11, 140700, Note_on_c, 3, 71, 127
11, 140760, Note_on_c, 3, 71, 0
11, 140760, Note_on_c, 3, 71, 127
11, 140820, Note_on_c, 3, 71, 0
11, 140820, Note_on_c, 3, 71, 127
11, 140880, Note_on_c, 3, 71, 0
11, 140880, Note_on_c, 3, 71, 127
11, 140940, Note_on_c, 3, 71, 0
11, 140940, Note_on_c, 3, 71, 127
11, 141000, Note_on_c, 3, 71, 0
11, 141000, Note_on_c, 3, 71, 127
11, 141060, Note_on_c, 3, 71, 0
11, 141060, Control_c, 3, 6, 32
11, 141060, Note_on_c, 3, 71, 127
11, 141090, Pitch_bend_c, 3, 8448
11, 141105, Pitch_bend_c, 3, 8704
11, 141120, Note_on_c, 3, 71, 0
11, 141120, Pitch_bend_c, 3, 8192
11, 141120, Pitch_bend_c, 3, 8192
11, 141120, Note_on_c, 3, 74, 127
11, 141180, Note_on_c, 3, 74, 0
11, 141180, Note_on_c, 3, 74, 127
11, 141240, Note_on_c, 3, 74, 0
11, 141240, Note_on_c, 3, 74, 127
11, 141300, Note_on_c, 3, 74, 0
11, 141300, Note_on_c, 3, 74, 127
11, 141360, Note_on_c, 3, 74, 0
11, 141360, Note_on_c, 3, 74, 127
11, 141420, Note_on_c, 3, 74, 0
11, 141420, Note_on_c, 3, 74, 127
11, 141480, Note_on_c, 3, 74, 0
11, 141480, Note_on_c, 3, 74, 127
11, 141540, Note_on_c, 3, 74, 0
11, 141540, Note_on_c, 3, 74, 127
11, 141600, Note_on_c, 3, 74, 0
11, 141600, Note_on_c, 3, 79, 127
11, 141660, Note_on_c, 3, 79, 0
11, 141660, Note_on_c, 3, 79, 127
11, 141720, Note_on_c, 3, 79, 0
11, 141720, Note_on_c, 3, 79, 127
11, 141780, Note_on_c, 3, 79, 0
11, 141780, Note_on_c, 3, 79, 127
11, 141840, Note_on_c, 3, 79, 0
11, 141840, Note_on_c, 3, 79, 127
11, 141900, Note_on_c, 3, 79, 0
11, 141900, Note_on_c, 3, 79, 127
11, 141960, Note_on_c, 3, 79, 0
11, 141960, Note_on_c, 3, 79, 127
11, 142020, Note_on_c, 3, 79, 0
11, 142020, Note_on_c, 3, 79, 127
11, 142080, Note_on_c, 3, 79, 0
11, 148588, Control_c, 3, 7, 49
11, 148617, Control_c, 3, 7, 50
11, 148620, Note_on_c, 3, 71, 127
11, 148641, Control_c, 3, 7, 51
11, 148665, Control_c, 3, 7, 52
11, 148680, Note_on_c, 3, 71, 0
11, 148680, Note_on_c, 3, 72, 127
11, 148694, Control_c, 3, 7, 53
11, 148718, Control_c, 3, 7, 54
11, 148740, Note_on_c, 3, 72, 0
11, 148740, Note_on_c, 3, 73, 127
11, 148742, Control_c, 3, 7, 55
11, 148771, Control_c, 3, 7, 56
11, 148795, Control_c, 3, 7, 57
11, 148800, Note_on_c, 3, 73, 0
11, 148800, Note_on_c, 3, 74, 127
11, 148819, Control_c, 3, 7, 58
11, 148848, Control_c, 3, 7, 59
11, 148860, Note_on_c, 3, 74, 0
11, 148860, Note_on_c, 3, 74, 127
11, 148872, Control_c, 3, 7, 60
11, 148896, Control_c, 3, 7, 61
11, 148920, Note_on_c, 3, 74, 0
11, 148920, Note_on_c, 3, 74, 127
11, 148920, Control_c, 3, 7, 62
11, 148948, Control_c, 3, 7, 63
11, 148972, Control_c, 3, 7, 64
11, 148980, Note_on_c, 3, 74, 0
11, 148980, Note_on_c, 3, 74, 127
11, 148996, Control_c, 3, 7, 65
11, 149025, Control_c, 3, 7, 66
11, 149040, Note_on_c, 3, 74, 0
11, 149040, Note_on_c, 3, 74, 127
11, 149049, Control_c, 3, 7, 67
11, 149073, Control_c, 3, 7, 68
11, 149100, Note_on_c, 3, 74, 0
11, 149100, Note_on_c, 3, 74, 127
11, 149102, Control_c, 3, 7, 69
11, 149126, Control_c, 3, 7, 70
11, 149150, Control_c, 3, 7, 71
11, 149160, Note_on_c, 3, 74, 0
11, 149160, Note_on_c, 3, 74, 127
11, 149179, Control_c, 3, 7, 72
11, 149203, Control_c, 3, 7, 73
11, 149220, Note_on_c, 3, 74, 0
11, 149220, Note_on_c, 3, 74, 127
11, 149227, Control_c, 3, 7, 74
11, 149251, Control_c, 3, 7, 75
11, 149280, Note_on_c, 3, 74, 0
11, 149280, Control_c, 3, 7, 76
11, 149280, Note_on_c, 3, 79, 127
11, 149304, Control_c, 3, 7, 77
11, 149328, Control_c, 3, 7, 78
11, 149340, Note_on_c, 3, 79, 0
11, 149340, Note_on_c, 3, 79, 127
11, 149356, Control_c, 3, 7, 79
11, 149380, Control_c, 3, 7, 80
11, 149400, Note_on_c, 3, 79, 0
11, 149400, Note_on_c, 3, 79, 127
11, 149404, Control_c, 3, 7, 81
11, 149433, Control_c, 3, 7, 82
11, 149457, Control_c, 3, 7, 83
11, 149460, Note_on_c, 3, 79, 0
11, 149460, Note_on_c, 3, 79, 127
11, 149481, Control_c, 3, 7, 84
11, 149510, Control_c, 3, 7, 85
11, 149520, Note_on_c, 3, 79, 0
11, 149520, Note_on_c, 3, 79, 127
11, 149534, Control_c, 3, 7, 86
11, 149558, Control_c, 3, 7, 87
11, 149580, Note_on_c, 3, 79, 0
11, 149580, Note_on_c, 3, 79, 127
11, 149582, Control_c, 3, 7, 88
11, 149611, Control_c, 3, 7, 89
11, 149635, Control_c, 3, 7, 90
11, 149640, Note_on_c, 3, 79, 0
11, 149640, Note_on_c, 3, 79, 127
11, 149659, Control_c, 3, 7, 91
11, 149688, Control_c, 3, 7, 92
11, 149700, Note_on_c, 3, 79, 0
11, 149700, Note_on_c, 3, 79, 127
11, 149712, Control_c, 3, 7, 93
11, 149736, Control_c, 3, 7, 94
11, 149760, Note_on_c, 3, 79, 0
11, 149760, Note_on_c, 3, 78, 127
11, 149764, Control_c, 3, 7, 95
11, 149788, Control_c, 3, 7, 96
11, 149812, Control_c, 3, 7, 97
11, 149820, Note_on_c, 3, 78, 0
11, 149820, Note_on_c, 3, 79, 127
11, 149820, Note_on_c, 3, 78, 127
11, 149841, Control_c, 3, 7, 98
11, 149865, Control_c, 3, 7, 99
11, 149880, Note_on_c, 3, 78, 0
11, 149880, Note_on_c, 3, 79, 0
11, 149880, Note_on_c, 3, 79, 127
11, 149880, Note_on_c, 3, 78, 127
11, 149889, Control_c, 3, 7, 100
11, 149913, Control_c, 3, 7, 101
11, 149923, Control_c, 3, 7, 100
11, 149932, Control_c, 3, 7, 99
11, 149937, Control_c, 3, 7, 98
11, 149940, Note_on_c, 3, 78, 0
11, 149940, Note_on_c, 3, 79, 0
11, 149940, Note_on_c, 3, 78, 127
11, 149940, Note_on_c, 3, 79, 127
11, 149947, Control_c, 3, 7, 97
11, 149952, Control_c, 3, 7, 96
11, 149961, Control_c, 3, 7, 95
11, 149971, Control_c, 3, 7, 94
11, 149976, Control_c, 3, 7, 93
11, 149985, Control_c, 3, 7, 92
11, 149990, Control_c, 3, 7, 91
11, 150000, Note_on_c, 3, 79, 0
11, 150000, Note_on_c, 3, 78, 0
11, 150000, Note_on_c, 3, 78, 127
11, 150000, Control_c, 3, 7, 90
11, 150000, Note_on_c, 3, 79, 127
11, 150004, Control_c, 3, 7, 89
11, 150014, Control_c, 3, 7, 88
11, 150024, Control_c, 3, 7, 87
11, 150028, Control_c, 3, 7, 86
11, 150038, Control_c, 3, 7, 85
11, 150043, Control_c, 3, 7, 84
11, 150052, Control_c, 3, 7, 83
11, 150060, Note_on_c, 3, 79, 0
11, 150060, Note_on_c, 3, 78, 0
11, 150060, Note_on_c, 3, 79, 127
11, 150060, Note_on_c, 3, 78, 127
11, 150062, Control_c, 3, 7, 82
11, 150067, Control_c, 3, 7, 81
11, 150076, Control_c, 3, 7, 80
11, 150081, Control_c, 3, 7, 79
11, 150091, Control_c, 3, 7, 78
11, 150096, Control_c, 3, 7, 77
11, 150105, Control_c, 3, 7, 76
11, 150115, Control_c, 3, 7, 75
11, 150120, Note_on_c, 3, 78, 0
11, 150120, Note_on_c, 3, 79, 0
11, 150120, Note_on_c, 3, 79, 127
11, 150120, Note_on_c, 3, 78, 127
11, 150120, Control_c, 3, 7, 74
11, 150129, Control_c, 3, 7, 73
11, 150134, Control_c, 3, 7, 72
11, 150144, Control_c, 3, 7, 71
11, 150153, Control_c, 3, 7, 70
11, 150158, Control_c, 3, 7, 69
11, 150168, Control_c, 3, 7, 68
11, 150172, Control_c, 3, 7, 67
11, 150180, Note_on_c, 3, 78, 0
11, 150180, Note_on_c, 3, 79, 0
11, 150180, Note_on_c, 3, 78, 127
11, 150182, Control_c, 3, 7, 66
11, 150187, Control_c, 3, 7, 65
11, 150196, Control_c, 3, 7, 64
11, 150206, Control_c, 3, 7, 63
11, 150211, Control_c, 3, 7, 62
11, 150220, Control_c, 3, 7, 61
11, 150225, Control_c, 3, 7, 60
11, 150235, Control_c, 3, 7, 59
11, 150240, Note_on_c, 3, 78, 0
11, 150240, Control_c, 3, 7, 58
11, 152428, Control_c, 3, 7, 49
11, 152457, Control_c, 3, 7, 50
11, 152460, Note_on_c, 3, 71, 127
11, 152481, Control_c, 3, 7, 51
11, 152505, Control_c, 3, 7, 52
11, 152520, Note_on_c, 3, 71, 0
11, 152520, Note_on_c, 3, 72, 127
11, 152534, Control_c, 3, 7, 53
11, 152558, Control_c, 3, 7, 54
11, 152580, Note_on_c, 3, 72, 0
11, 152580, Note_on_c, 3, 73, 127
11, 152582, Control_c, 3, 7, 55
11, 152611, Control_c, 3, 7, 56
11, 152635, Control_c, 3, 7, 57
11, 152640, Note_on_c, 3, 73, 0
11, 152640, Note_on_c, 3, 74, 127
11, 152659, Control_c, 3, 7, 58
11, 152688, Control_c, 3, 7, 59
11, 152700, Note_on_c, 3, 74, 0
11, 152700, Note_on_c, 3, 74, 127
11, 152712, Control_c, 3, 7, 60
11, 152736, Control_c, 3, 7, 61
11, 152760, Note_on_c, 3, 74, 0
11, 152760, Note_on_c, 3, 74, 127
11, 152760, Control_c, 3, 7, 62
11, 152788, Control_c, 3, 7, 63
11, 152812, Control_c, 3, 7, 64
11, 152820, Note_on_c, 3, 74, 0
11, 152820, Note_on_c, 3, 74, 127
11, 152836, Control_c, 3, 7, 65
11, 152865, Control_c, 3, 7, 66
11, 152880, Note_on_c, 3, 74, 0
11, 152880, Note_on_c, 3, 74, 127
11, 152889, Control_c, 3, 7, 67
11, 152913, Control_c, 3, 7, 68
11, 152940, Note_on_c, 3, 74, 0
11, 152940, Note_on_c, 3, 74, 127
11, 152942, Control_c, 3, 7, 69
11, 152966, Control_c, 3, 7, 70
11, 152990, Control_c, 3, 7, 71
11, 153000, Note_on_c, 3, 74, 0
11, 153000, Note_on_c, 3, 74, 127
11, 153019, Control_c, 3, 7, 72
11, 153043, Control_c, 3, 7, 73
11, 153060, Note_on_c, 3, 74, 0
11, 153060, Note_on_c, 3, 74, 127
11, 153067, Control_c, 3, 7, 74
11, 153091, Control_c, 3, 7, 75
11, 153120, Note_on_c, 3, 74, 0
11, 153120, Control_c, 3, 7, 76
11, 153120, Note_on_c, 3, 79, 127
11, 153144, Control_c, 3, 7, 77
11, 153168, Control_c, 3, 7, 78
11, 153180, Note_on_c, 3, 79, 0
11, 153180, Note_on_c, 3, 79, 127
11, 153196, Control_c, 3, 7, 79
11, 153220, Control_c, 3, 7, 80
11, 153240, Note_on_c, 3, 79, 0
11, 153240, Note_on_c, 3, 79, 127
11, 153244, Control_c, 3, 7, 81
11, 153273, Control_c, 3, 7, 82
11, 153297, Control_c, 3, 7, 83
11, 153300, Note_on_c, 3, 79, 0
11, 153300, Note_on_c, 3, 79, 127
11, 153321, Control_c, 3, 7, 84
11, 153350, Control_c, 3, 7, 85
11, 153360, Note_on_c, 3, 79, 0
11, 153360, Note_on_c, 3, 79, 127
11, 153374, Control_c, 3, 7, 86
11, 153398, Control_c, 3, 7, 87
11, 153420, Note_on_c, 3, 79, 0
11, 153420, Note_on_c, 3, 79, 127
11, 153422, Control_c, 3, 7, 88
11, 153451, Control_c, 3, 7, 89
11, 153475, Control_c, 3, 7, 90
11, 153480, Note_on_c, 3, 79, 0
11, 153480, Note_on_c, 3, 79, 127
11, 153499, Control_c, 3, 7, 91
11, 153528, Control_c, 3, 7, 92
11, 153540, Note_on_c, 3, 79, 0
11, 153540, Note_on_c, 3, 79, 127
11, 153552, Control_c, 3, 7, 93
11, 153576, Control_c, 3, 7, 94
11, 153600, Note_on_c, 3, 79, 0
11, 153600, Note_on_c, 3, 78, 127
11, 153604, Control_c, 3, 7, 95
11, 153628, Control_c, 3, 7, 96
11, 153652, Control_c, 3, 7, 97
11, 153660, Note_on_c, 3, 78, 0
11, 153660, Note_on_c, 3, 78, 127
11, 153660, Note_on_c, 3, 79, 127
11, 153681, Control_c, 3, 7, 98
11, 153705, Control_c, 3, 7, 99
11, 153720, Note_on_c, 3, 79, 0
11, 153720, Note_on_c, 3, 78, 0
11, 153720, Note_on_c, 3, 78, 127
11, 153720, Note_on_c, 3, 79, 127
11, 153729, Control_c, 3, 7, 100
11, 153753, Control_c, 3, 7, 101
11, 153763, Control_c, 3, 7, 100
11, 153772, Control_c, 3, 7, 99
11, 153777, Control_c, 3, 7, 98
11, 153780, Note_on_c, 3, 79, 0
11, 153780, Note_on_c, 3, 78, 0
11, 153780, Note_on_c, 3, 79, 127
11, 153780, Note_on_c, 3, 78, 127
11, 153787, Control_c, 3, 7, 97
11, 153792, Control_c, 3, 7, 96
11, 153801, Control_c, 3, 7, 95
11, 153811, Control_c, 3, 7, 94
11, 153816, Control_c, 3, 7, 93
11, 153825, Control_c, 3, 7, 92
11, 153830, Control_c, 3, 7, 91
11, 153840, Note_on_c, 3, 78, 0
11, 153840, Note_on_c, 3, 79, 0
11, 153840, Control_c, 3, 7, 90
11, 153840, Note_on_c, 3, 79, 127
11, 153840, Note_on_c, 3, 78, 127
11, 153844, Control_c, 3, 7, 89
11, 153854, Control_c, 3, 7, 88
11, 153864, Control_c, 3, 7, 87
11, 153868, Control_c, 3, 7, 86
11, 153878, Control_c, 3, 7, 85
11, 153883, Control_c, 3, 7, 84
11, 153892, Control_c, 3, 7, 83
11, 153900, Note_on_c, 3, 78, 0
11, 153900, Note_on_c, 3, 79, 0
11, 153900, Note_on_c, 3, 79, 127
11, 153900, Note_on_c, 3, 78, 127
11, 153902, Control_c, 3, 7, 82
11, 153907, Control_c, 3, 7, 81
11, 153916, Control_c, 3, 7, 80
11, 153921, Control_c, 3, 7, 79
11, 153931, Control_c, 3, 7, 78
11, 153936, Control_c, 3, 7, 77
11, 153945, Control_c, 3, 7, 76
11, 153955, Control_c, 3, 7, 75
11, 153960, Note_on_c, 3, 78, 0
11, 153960, Note_on_c, 3, 79, 0
11, 153960, Note_on_c, 3, 78, 127
11, 153960, Control_c, 3, 7, 74
11, 153960, Note_on_c, 3, 79, 127
11, 153969, Control_c, 3, 7, 73
11, 153974, Control_c, 3, 7, 72
11, 153984, Control_c, 3, 7, 71
11, 153993, Control_c, 3, 7, 70
11, 153998, Control_c, 3, 7, 69
11, 154008, Control_c, 3, 7, 68
11, 154012, Control_c, 3, 7, 67
11, 154020, Note_on_c, 3, 79, 0
11, 154020, Note_on_c, 3, 78, 0
11, 154020, Note_on_c, 3, 78, 127
11, 154022, Control_c, 3, 7, 66
11, 154027, Control_c, 3, 7, 65
11, 154036, Control_c, 3, 7, 64
11, 154046, Control_c, 3, 7, 63
11, 154051, Control_c, 3, 7, 62
11, 154060, Control_c, 3, 7, 61
11, 154065, Control_c, 3, 7, 60
11, 154075, Control_c, 3, 7, 59
11, 154080, Note_on_c, 3, 78, 0
11, 154080, Control_c, 3, 7, 58
11, 156268, Control_c, 3, 7, 49
11, 156297, Control_c, 3, 7, 50
11, 156300, Note_on_c, 3, 71, 127
11, 156321, Control_c, 3, 7, 51
11, 156345, Control_c, 3, 7, 52
11, 156360, Note_on_c, 3, 71, 0
11, 156360, Note_on_c, 3, 72, 127
11, 156374, Control_c, 3, 7, 53
11, 156398, Control_c, 3, 7, 54
11, 156420, Note_on_c, 3, 72, 0
11, 156420, Note_on_c, 3, 73, 127
11, 156422, Control_c, 3, 7, 55
11, 156451, Control_c, 3, 7, 56
11, 156475, Control_c, 3, 7, 57
11, 156480, Note_on_c, 3, 73, 0
11, 156480, Note_on_c, 3, 74, 127
11, 156499, Control_c, 3, 7, 58
11, 156528, Control_c, 3, 7, 59
11, 156540, Note_on_c, 3, 74, 0
11, 156540, Note_on_c, 3, 74, 127
11, 156552, Control_c, 3, 7, 60
11, 156576, Control_c, 3, 7, 61
11, 156600, Note_on_c, 3, 74, 0
11, 156600, Note_on_c, 3, 74, 127
11, 156600, Control_c, 3, 7, 62
11, 156628, Control_c, 3, 7, 63
11, 156652, Control_c, 3, 7, 64
11, 156660, Note_on_c, 3, 74, 0
11, 156660, Note_on_c, 3, 74, 127
11, 156676, Control_c, 3, 7, 65
11, 156705, Control_c, 3, 7, 66
11, 156720, Note_on_c, 3, 74, 0
11, 156720, Note_on_c, 3, 74, 127
11, 156729, Control_c, 3, 7, 67
11, 156753, Control_c, 3, 7, 68
11, 156780, Note_on_c, 3, 74, 0
11, 156780, Note_on_c, 3, 74, 127
11, 156782, Control_c, 3, 7, 69
11, 156806, Control_c, 3, 7, 70
11, 156830, Control_c, 3, 7, 71
11, 156840, Note_on_c, 3, 74, 0
11, 156840, Note_on_c, 3, 74, 127
11, 156859, Control_c, 3, 7, 72
11, 156883, Control_c, 3, 7, 73
11, 156900, Note_on_c, 3, 74, 0
11, 156900, Note_on_c, 3, 74, 127
11, 156907, Control_c, 3, 7, 74
11, 156931, Control_c, 3, 7, 75
11, 156960, Note_on_c, 3, 74, 0
11, 156960, Note_on_c, 3, 79, 127
11, 156960, Control_c, 3, 7, 76
11, 156984, Control_c, 3, 7, 77
11, 157008, Control_c, 3, 7, 78
11, 157020, Note_on_c, 3, 79, 0
11, 157020, Note_on_c, 3, 79, 127
11, 157036, Control_c, 3, 7, 79
11, 157060, Control_c, 3, 7, 80
11, 157080, Note_on_c, 3, 79, 0
11, 157080, Note_on_c, 3, 79, 127
11, 157084, Control_c, 3, 7, 81
11, 157113, Control_c, 3, 7, 82
11, 157137, Control_c, 3, 7, 83
11, 157140, Note_on_c, 3, 79, 0
11, 157140, Note_on_c, 3, 79, 127
11, 157161, Control_c, 3, 7, 84
11, 157190, Control_c, 3, 7, 85
11, 157200, Note_on_c, 3, 79, 0
11, 157200, Note_on_c, 3, 79, 127
11, 157214, Control_c, 3, 7, 86
11, 157238, Control_c, 3, 7, 87
11, 157260, Note_on_c, 3, 79, 0
11, 157260, Note_on_c, 3, 79, 127
11, 157262, Control_c, 3, 7, 88
11, 157291, Control_c, 3, 7, 89
11, 157315, Control_c, 3, 7, 90
11, 157320, Note_on_c, 3, 79, 0
11, 157320, Note_on_c, 3, 79, 127
11, 157339, Control_c, 3, 7, 91
11, 157368, Control_c, 3, 7, 92
11, 157380, Note_on_c, 3, 79, 0
11, 157380, Note_on_c, 3, 79, 127
11, 157392, Control_c, 3, 7, 93
11, 157416, Control_c, 3, 7, 94
11, 157440, Note_on_c, 3, 79, 0
11, 157440, Note_on_c, 3, 78, 127
11, 157444, Control_c, 3, 7, 95
11, 157468, Control_c, 3, 7, 96
11, 157492, Control_c, 3, 7, 97
11, 157500, Note_on_c, 3, 78, 0
11, 157500, Note_on_c, 3, 78, 127
11, 157500, Note_on_c, 3, 79, 127
11, 157521, Control_c, 3, 7, 98
11, 157545, Control_c, 3, 7, 99
11, 157560, Note_on_c, 3, 79, 0
11, 157560, Note_on_c, 3, 78, 0
11, 157560, Note_on_c, 3, 79, 127
11, 157560, Note_on_c, 3, 78, 127
11, 157569, Control_c, 3, 7, 100
11, 157593, Control_c, 3, 7, 101
11, 157603, Control_c, 3, 7, 100
11, 157612, Control_c, 3, 7, 99
11, 157617, Control_c, 3, 7, 98
11, 157620, Note_on_c, 3, 78, 0
11, 157620, Note_on_c, 3, 79, 0
11, 157620, Note_on_c, 3, 79, 127
11, 157620, Note_on_c, 3, 78, 127
11, 157627, Control_c, 3, 7, 97
11, 157632, Control_c, 3, 7, 96
11, 157641, Control_c, 3, 7, 95
11, 157651, Control_c, 3, 7, 94
11, 157656, Control_c, 3, 7, 93
11, 157665, Control_c, 3, 7, 92
11, 157670, Control_c, 3, 7, 91
11, 157680, Note_on_c, 3, 78, 0
11, 157680, Note_on_c, 3, 79, 0
11, 157680, Control_c, 3, 7, 90
11, 157680, Note_on_c, 3, 79, 127
11, 157680, Note_on_c, 3, 78, 127
11, 157684, Control_c, 3, 7, 89
11, 157694, Control_c, 3, 7, 88
11, 157704, Control_c, 3, 7, 87
11, 157708, Control_c, 3, 7, 86
11, 157718, Control_c, 3, 7, 85
11, 157723, Control_c, 3, 7, 84
11, 157732, Control_c, 3, 7, 83
11, 157740, Note_on_c, 3, 78, 0
11, 157740, Note_on_c, 3, 79, 0
11, 157740, Note_on_c, 3, 79, 127
11, 157740, Note_on_c, 3, 78, 127
11, 157742, Control_c, 3, 7, 82
11, 157747, Control_c, 3, 7, 81
11, 157756, Control_c, 3, 7, 80
11, 157761, Control_c, 3, 7, 79
11, 157771, Control_c, 3, 7, 78
11, 157776, Control_c, 3, 7, 77
11, 157785, Control_c, 3, 7, 76
11, 157795, Control_c, 3, 7, 75
11, 157800, Note_on_c, 3, 78, 0
11, 157800, Note_on_c, 3, 79, 0
11, 157800, Note_on_c, 3, 79, 127
11, 157800, Control_c, 3, 7, 74
11, 157800, Note_on_c, 3, 78, 127
11, 157809, Control_c, 3, 7, 73
11, 157814, Control_c, 3, 7, 72
11, 157824, Control_c, 3, 7, 71
11, 157833, Control_c, 3, 7, 70
11, 157838, Control_c, 3, 7, 69
11, 157848, Control_c, 3, 7, 68
11, 157852, Control_c, 3, 7, 67
11, 157860, Note_on_c, 3, 78, 0
11, 157860, Note_on_c, 3, 79, 0
11, 157860, Note_on_c, 3, 78, 127
11, 157862, Control_c, 3, 7, 66
11, 157867, Control_c, 3, 7, 65
11, 157876, Control_c, 3, 7, 64
11, 157886, Control_c, 3, 7, 63
11, 157891, Control_c, 3, 7, 62
11, 157900, Control_c, 3, 7, 61
11, 157905, Control_c, 3, 7, 60
11, 157915, Control_c, 3, 7, 59
11, 157920, Note_on_c, 3, 78, 0
11, 157920, Control_c, 3, 7, 58
11, 160108, Control_c, 3, 7, 49
11, 160137, Control_c, 3, 7, 50
11, 160140, Note_on_c, 3, 71, 127
11, 160161, Control_c, 3, 7, 51
11, 160185, Control_c, 3, 7, 52
11, 160200, Note_on_c, 3, 71, 0
11, 160200, Note_on_c, 3, 72, 127
11, 160214, Control_c, 3, 7, 53
11, 160238, Control_c, 3, 7, 54
11, 160260, Note_on_c, 3, 72, 0
11, 160260, Note_on_c, 3, 73, 127
11, 160262, Control_c, 3, 7, 55
11, 160291, Control_c, 3, 7, 56
11, 160315, Control_c, 3, 7, 57
11, 160320, Note_on_c, 3, 73, 0
11, 160320, Note_on_c, 3, 74, 127
11, 160339, Control_c, 3, 7, 58
11, 160368, Control_c, 3, 7, 59
11, 160380, Note_on_c, 3, 74, 0
11, 160380, Note_on_c, 3, 74, 127
11, 160392, Control_c, 3, 7, 60
11, 160416, Control_c, 3, 7, 61
11, 160440, Note_on_c, 3, 74, 0
11, 160440, Control_c, 3, 7, 62
11, 160440, Note_on_c, 3, 74, 127
11, 160468, Control_c, 3, 7, 63
11, 160492, Control_c, 3, 7, 64
11, 160500, Note_on_c, 3, 74, 0
11, 160500, Note_on_c, 3, 74, 127
11, 160516, Control_c, 3, 7, 65
11, 160545, Control_c, 3, 7, 66
11, 160560, Note_on_c, 3, 74, 0
11, 160560, Note_on_c, 3, 74, 127
11, 160569, Control_c, 3, 7, 67
11, 160593, Control_c, 3, 7, 68
11, 160620, Note_on_c, 3, 74, 0
11, 160620, Note_on_c, 3, 74, 127
11, 160622, Control_c, 3, 7, 69
11, 160646, Control_c, 3, 7, 70
11, 160670, Control_c, 3, 7, 71
11, 160680, Note_on_c, 3, 74, 0
11, 160680, Note_on_c, 3, 74, 127
11, 160699, Control_c, 3, 7, 72
11, 160723, Control_c, 3, 7, 73
11, 160740, Note_on_c, 3, 74, 0
11, 160740, Note_on_c, 3, 74, 127
11, 160747, Control_c, 3, 7, 74
11, 160771, Control_c, 3, 7, 75
11, 160800, Note_on_c, 3, 74, 0
11, 160800, Control_c, 3, 7, 76
11, 160800, Note_on_c, 3, 79, 127
11, 160824, Control_c, 3, 7, 77
11, 160848, Control_c, 3, 7, 78
11, 160860, Note_on_c, 3, 79, 0
11, 160860, Note_on_c, 3, 79, 127
11, 160876, Control_c, 3, 7, 79
11, 160900, Control_c, 3, 7, 80
11, 160920, Note_on_c, 3, 79, 0
11, 160920, Note_on_c, 3, 79, 127
11, 160924, Control_c, 3, 7, 81
11, 160953, Control_c, 3, 7, 82
11, 160977, Control_c, 3, 7, 83
11, 160980, Note_on_c, 3, 79, 0
11, 160980, Note_on_c, 3, 79, 127
11, 161001, Control_c, 3, 7, 84
11, 161030, Control_c, 3, 7, 85
11, 161040, Note_on_c, 3, 79, 0
11, 161040, Note_on_c, 3, 79, 127
11, 161054, Control_c, 3, 7, 86
11, 161078, Control_c, 3, 7, 87
11, 161100, Note_on_c, 3, 79, 0
11, 161100, Note_on_c, 3, 79, 127
11, 161102, Control_c, 3, 7, 88
11, 161131, Control_c, 3, 7, 89
11, 161155, Control_c, 3, 7, 90
11, 161160, Note_on_c, 3, 79, 0
11, 161160, Note_on_c, 3, 79, 127
11, 161179, Control_c, 3, 7, 91
11, 161208, Control_c, 3, 7, 92
11, 161220, Note_on_c, 3, 79, 0
11, 161220, Note_on_c, 3, 79, 127
11, 161232, Control_c, 3, 7, 93
11, 161256, Control_c, 3, 7, 94
11, 161280, Note_on_c, 3, 79, 0
11, 161280, Note_on_c, 3, 78, 127
11, 161284, Control_c, 3, 7, 95
11, 161308, Control_c, 3, 7, 96
11, 161332, Control_c, 3, 7, 97
11, 161340, Note_on_c, 3, 78, 0
11, 161340, Note_on_c, 3, 79, 127
11, 161340, Note_on_c, 3, 78, 127
11, 161361, Control_c, 3, 7, 98
11, 161385, Control_c, 3, 7, 99
11, 161400, Note_on_c, 3, 78, 0
11, 161400, Note_on_c, 3, 79, 0
11, 161400, Note_on_c, 3, 78, 127
11, 161400, Note_on_c, 3, 79, 127
11, 161409, Control_c, 3, 7, 100
11, 161433, Control_c, 3, 7, 101
11, 161443, Control_c, 3, 7, 100
11, 161452, Control_c, 3, 7, 99
11, 161457, Control_c, 3, 7, 98
11, 161460, Note_on_c, 3, 79, 0
11, 161460, Note_on_c, 3, 78, 0
11, 161460, Note_on_c, 3, 78, 127
11, 161460, Note_on_c, 3, 79, 127
11, 161467, Control_c, 3, 7, 97
11, 161472, Control_c, 3, 7, 96
11, 161481, Control_c, 3, 7, 95
11, 161491, Control_c, 3, 7, 94
11, 161496, Control_c, 3, 7, 93
11, 161505, Control_c, 3, 7, 92
11, 161510, Control_c, 3, 7, 91
11, 161520, Note_on_c, 3, 79, 0
11, 161520, Note_on_c, 3, 78, 0
11, 161520, Note_on_c, 3, 79, 127
11, 161520, Note_on_c, 3, 78, 127
11, 161520, Control_c, 3, 7, 90
11, 161524, Control_c, 3, 7, 89
11, 161534, Control_c, 3, 7, 88
11, 161544, Control_c, 3, 7, 87
11, 161548, Control_c, 3, 7, 86
11, 161558, Control_c, 3, 7, 85
11, 161563, Control_c, 3, 7, 84
11, 161572, Control_c, 3, 7, 83
11, 161580, Note_on_c, 3, 78, 0
11, 161580, Note_on_c, 3, 79, 0
11, 161580, Note_on_c, 3, 78, 127
11, 161580, Note_on_c, 3, 79, 127
11, 161582, Control_c, 3, 7, 82
11, 161587, Control_c, 3, 7, 81
11, 161596, Control_c, 3, 7, 80
11, 161601, Control_c, 3, 7, 79
11, 161611, Control_c, 3, 7, 78
11, 161616, Control_c, 3, 7, 77
11, 161625, Control_c, 3, 7, 76
11, 161635, Control_c, 3, 7, 75
11, 161640, Note_on_c, 3, 79, 0
11, 161640, Note_on_c, 3, 78, 0
11, 161640, Control_c, 3, 7, 74
11, 161640, Note_on_c, 3, 78, 127
11, 161640, Note_on_c, 3, 79, 127
11, 161649, Control_c, 3, 7, 73
11, 161654, Control_c, 3, 7, 72
11, 161664, Control_c, 3, 7, 71
11, 161673, Control_c, 3, 7, 70
11, 161678, Control_c, 3, 7, 69
11, 161688, Control_c, 3, 7, 68
11, 161692, Control_c, 3, 7, 67
11, 161700, Note_on_c, 3, 79, 0
11, 161700, Note_on_c, 3, 78, 0
11, 161700, Note_on_c, 3, 78, 127
11, 161702, Control_c, 3, 7, 66
11, 161707, Control_c, 3, 7, 65
11, 161716, Control_c, 3, 7, 64
11, 161726, Control_c, 3, 7, 63
11, 161731, Control_c, 3, 7, 62
11, 161740, Control_c, 3, 7, 61
11, 161745, Control_c, 3, 7, 60
11, 161755, Control_c, 3, 7, 59
11, 161760, Note_on_c, 3, 78, 0
11, 161760, Control_c, 3, 7, 58
11, 163948, Control_c, 3, 7, 49
11, 163977, Control_c, 3, 7, 50
11, 163980, Note_on_c, 3, 71, 127
11, 164001, Control_c, 3, 7, 51
11, 164025, Control_c, 3, 7, 52
11, 164040, Note_on_c, 3, 71, 0
11, 164040, Note_on_c, 3, 72, 127
11, 164054, Control_c, 3, 7, 53
11, 164078, Control_c, 3, 7, 54
11, 164100, Note_on_c, 3, 72, 0
11, 164100, Note_on_c, 3, 73, 127
11, 164102, Control_c, 3, 7, 55
11, 164131, Control_c, 3, 7, 56
11, 164155, Control_c, 3, 7, 57
11, 164160, Note_on_c, 3, 73, 0
11, 164160, Note_on_c, 3, 74, 127
11, 164179, Control_c, 3, 7, 58
11, 164208, Control_c, 3, 7, 59
11, 164220, Note_on_c, 3, 74, 0
11, 164220, Note_on_c, 3, 74, 127
11, 164232, Control_c, 3, 7, 60
11, 164256, Control_c, 3, 7, 61
11, 164280, Note_on_c, 3, 74, 0
11, 164280, Note_on_c, 3, 74, 127
11, 164280, Control_c, 3, 7, 62
11, 164308, Control_c, 3, 7, 63
11, 164332, Control_c, 3, 7, 64
11, 164340, Note_on_c, 3, 74, 0
11, 164340, Note_on_c, 3, 74, 127
11, 164356, Control_c, 3, 7, 65
11, 164385, Control_c, 3, 7, 66
11, 164400, Note_on_c, 3, 74, 0
11, 164400, Note_on_c, 3, 74, 127
11, 164409, Control_c, 3, 7, 67
11, 164433, Control_c, 3, 7, 68
11, 164460, Note_on_c, 3, 74, 0
11, 164460, Note_on_c, 3, 74, 127
11, 164462, Control_c, 3, 7, 69
11, 164486, Control_c, 3, 7, 70
11, 164510, Control_c, 3, 7, 71
11, 164520, Note_on_c, 3, 74, 0
11, 164520, Note_on_c, 3, 74, 127
11, 164539, Control_c, 3, 7, 72
11, 164563, Control_c, 3, 7, 73
11, 164580, Note_on_c, 3, 74, 0
11, 164580, Note_on_c, 3, 74, 127
11, 164587, Control_c, 3, 7, 74
11, 164611, Control_c, 3, 7, 75
11, 164640, Note_on_c, 3, 74, 0
11, 164640, Control_c, 3, 7, 76
11, 164640, Note_on_c, 3, 79, 127
11, 164664, Control_c, 3, 7, 77
11, 164688, Control_c, 3, 7, 78
11, 164700, Note_on_c, 3, 79, 0
11, 164700, Note_on_c, 3, 79, 127
11, 164716, Control_c, 3, 7, 79
11, 164740, Control_c, 3, 7, 80
11, 164760, Note_on_c, 3, 79, 0
11, 164760, Note_on_c, 3, 79, 127
11, 164764, Control_c, 3, 7, 81
11, 164793, Control_c, 3, 7, 82
11, 164817, Control_c, 3, 7, 83
11, 164820, Note_on_c, 3, 79, 0
11, 164820, Note_on_c, 3, 79, 127
11, 164841, Control_c, 3, 7, 84
11, 164870, Control_c, 3, 7, 85
11, 164880, Note_on_c, 3, 79, 0
11, 164880, Note_on_c, 3, 79, 127
11, 164894, Control_c, 3, 7, 86
11, 164918, Control_c, 3, 7, 87
11, 164940, Note_on_c, 3, 79, 0
11, 164940, Note_on_c, 3, 79, 127
11, 164942, Control_c, 3, 7, 88
11, 164971, Control_c, 3, 7, 89
11, 164995, Control_c, 3, 7, 90
11, 165000, Note_on_c, 3, 79, 0
11, 165000, Note_on_c, 3, 79, 127
11, 165019, Control_c, 3, 7, 91
11, 165048, Control_c, 3, 7, 92
11, 165060, Note_on_c, 3, 79, 0
11, 165060, Note_on_c, 3, 79, 127
11, 165072, Control_c, 3, 7, 93
11, 165096, Control_c, 3, 7, 94
11, 165120, Note_on_c, 3, 79, 0
11, 165120, Note_on_c, 3, 78, 127
11, 165124, Control_c, 3, 7, 95
11, 165148, Control_c, 3, 7, 96
11, 165172, Control_c, 3, 7, 97
11, 165180, Note_on_c, 3, 78, 0
11, 165180, Note_on_c, 3, 79, 127
11, 165180, Note_on_c, 3, 78, 127
11, 165201, Control_c, 3, 7, 98
11, 165225, Control_c, 3, 7, 99
11, 165240, Note_on_c, 3, 78, 0
11, 165240, Note_on_c, 3, 79, 0
11, 165240, Note_on_c, 3, 78, 127
11, 165240, Note_on_c, 3, 79, 127
11, 165249, Control_c, 3, 7, 100
11, 165273, Control_c, 3, 7, 101
11, 165283, Control_c, 3, 7, 100
11, 165292, Control_c, 3, 7, 99
11, 165297, Control_c, 3, 7, 98
11, 165300, Note_on_c, 3, 79, 0
11, 165300, Note_on_c, 3, 78, 0
11, 165300, Note_on_c, 3, 78, 127
11, 165300, Note_on_c, 3, 79, 127
11, 165307, Control_c, 3, 7, 97
11, 165312, Control_c, 3, 7, 96
11, 165321, Control_c, 3, 7, 95
11, 165331, Control_c, 3, 7, 94
11, 165336, Control_c, 3, 7, 93
11, 165345, Control_c, 3, 7, 92
11, 165350, Control_c, 3, 7, 91
11, 165360, Note_on_c, 3, 79, 0
11, 165360, Note_on_c, 3, 78, 0
11, 165360, Control_c, 3, 7, 90
11, 165360, Note_on_c, 3, 78, 127
11, 165360, Note_on_c, 3, 79, 127
11, 165364, Control_c, 3, 7, 89
11, 165374, Control_c, 3, 7, 88
11, 165384, Control_c, 3, 7, 87
11, 165388, Control_c, 3, 7, 86
11, 165398, Control_c, 3, 7, 85
11, 165403, Control_c, 3, 7, 84
11, 165412, Control_c, 3, 7, 83
11, 165420, Note_on_c, 3, 79, 0
11, 165420, Note_on_c, 3, 78, 0
11, 165420, Note_on_c, 3, 79, 127
11, 165420, Note_on_c, 3, 78, 127
11, 165422, Control_c, 3, 7, 82
11, 165427, Control_c, 3, 7, 81
11, 165436, Control_c, 3, 7, 80
11, 165441, Control_c, 3, 7, 79
11, 165451, Control_c, 3, 7, 78
11, 165456, Control_c, 3, 7, 77
11, 165465, Control_c, 3, 7, 76
11, 165475, Control_c, 3, 7, 75
11, 165480, Note_on_c, 3, 78, 0
11, 165480, Note_on_c, 3, 79, 0
11, 165480, Control_c, 3, 7, 74
11, 165480, Note_on_c, 3, 79, 127
11, 165480, Note_on_c, 3, 78, 127
11, 165489, Control_c, 3, 7, 73
11, 165494, Control_c, 3, 7, 72
11, 165504, Control_c, 3, 7, 71
11, 165513, Control_c, 3, 7, 70
11, 165518, Control_c, 3, 7, 69
11, 165528, Control_c, 3, 7, 68
11, 165532, Control_c, 3, 7, 67
11, 165540, Note_on_c, 3, 78, 0
11, 165540, Note_on_c, 3, 79, 0
11, 165540, Note_on_c, 3, 78, 127
11, 165542, Control_c, 3, 7, 66
11, 165547, Control_c, 3, 7, 65
11, 165556, Control_c, 3, 7, 64
11, 165566, Control_c, 3, 7, 63
11, 165571, Control_c, 3, 7, 62
11, 165580, Control_c, 3, 7, 61
11, 165585, Control_c, 3, 7, 60
11, 165595, Control_c, 3, 7, 59
11, 165600, Note_on_c, 3, 78, 0
11, 165600, Control_c, 3, 7, 58
11, 167788, Control_c, 3, 7, 49
11, 167817, Control_c, 3, 7, 50
11, 167820, Note_on_c, 3, 71, 127
11, 167841, Control_c, 3, 7, 51
11, 167865, Control_c, 3, 7, 52
11, 167880, Note_on_c, 3, 71, 0
11, 167880, Note_on_c, 3, 72, 127
11, 167894, Control_c, 3, 7, 53
11, 167918, Control_c, 3, 7, 54
11, 167940, Note_on_c, 3, 72, 0
11, 167940, Note_on_c, 3, 73, 127
11, 167942, Control_c, 3, 7, 55
11, 167971, Control_c, 3, 7, 56
11, 167995, Control_c, 3, 7, 57
11, 168000, Note_on_c, 3, 73, 0
11, 168000, Note_on_c, 3, 74, 127
11, 168019, Control_c, 3, 7, 58
11, 168048, Control_c, 3, 7, 59
11, 168060, Note_on_c, 3, 74, 0
11, 168060, Note_on_c, 3, 74, 127
11, 168072, Control_c, 3, 7, 60
11, 168096, Control_c, 3, 7, 61
11, 168120, Note_on_c, 3, 74, 0
11, 168120, Note_on_c, 3, 74, 127
11, 168120, Control_c, 3, 7, 62
11, 168148, Control_c, 3, 7, 63
11, 168172, Control_c, 3, 7, 64
11, 168180, Note_on_c, 3, 74, 0
11, 168180, Note_on_c, 3, 74, 127
11, 168196, Control_c, 3, 7, 65
11, 168225, Control_c, 3, 7, 66
11, 168240, Note_on_c, 3, 74, 0
11, 168240, Note_on_c, 3, 74, 127
11, 168249, Control_c, 3, 7, 67
11, 168273, Control_c, 3, 7, 68
11, 168300, Note_on_c, 3, 74, 0
11, 168300, Note_on_c, 3, 74, 127
11, 168302, Control_c, 3, 7, 69
11, 168326, Control_c, 3, 7, 70
11, 168350, Control_c, 3, 7, 71
11, 168360, Note_on_c, 3, 74, 0
11, 168360, Note_on_c, 3, 74, 127
11, 168379, Control_c, 3, 7, 72
11, 168403, Control_c, 3, 7, 73
11, 168420, Note_on_c, 3, 74, 0
11, 168420, Note_on_c, 3, 74, 127
11, 168427, Control_c, 3, 7, 74
11, 168451, Control_c, 3, 7, 75
11, 168480, Note_on_c, 3, 74, 0
11, 168480, Note_on_c, 3, 79, 127
11, 168480, Control_c, 3, 7, 76
11, 168504, Control_c, 3, 7, 77
11, 168528, Control_c, 3, 7, 78
11, 168540, Note_on_c, 3, 79, 0
11, 168540, Note_on_c, 3, 79, 127
11, 168556, Control_c, 3, 7, 79
11, 168580, Control_c, 3, 7, 80
11, 168600, Note_on_c, 3, 79, 0
11, 168600, Note_on_c, 3, 79, 127
11, 168604, Control_c, 3, 7, 81
11, 168633, Control_c, 3, 7, 82
11, 168657, Control_c, 3, 7, 83
11, 168660, Note_on_c, 3, 79, 0
11, 168660, Note_on_c, 3, 79, 127
11, 168681, Control_c, 3, 7, 84
11, 168710, Control_c, 3, 7, 85
11, 168720, Note_on_c, 3, 79, 0
11, 168720, Note_on_c, 3, 79, 127
11, 168734, Control_c, 3, 7, 86
11, 168758, Control_c, 3, 7, 87
11, 168780, Note_on_c, 3, 79, 0
11, 168780, Note_on_c, 3, 79, 127
11, 168782, Control_c, 3, 7, 88
11, 168811, Control_c, 3, 7, 89
11, 168835, Control_c, 3, 7, 90
11, 168840, Note_on_c, 3, 79, 0
11, 168840, Note_on_c, 3, 79, 127
11, 168859, Control_c, 3, 7, 91
11, 168888, Control_c, 3, 7, 92
11, 168900, Note_on_c, 3, 79, 0
11, 168900, Note_on_c, 3, 79, 127
11, 168912, Control_c, 3, 7, 93
11, 168936, Control_c, 3, 7, 94
11, 168960, Note_on_c, 3, 79, 0
11, 168960, Note_on_c, 3, 78, 127
11, 168964, Control_c, 3, 7, 95
11, 168988, Control_c, 3, 7, 96
11, 169012, Control_c, 3, 7, 97
11, 169020, Note_on_c, 3, 78, 0
11, 169020, Note_on_c, 3, 79, 127
11, 169020, Note_on_c, 3, 78, 127
11, 169041, Control_c, 3, 7, 98
11, 169065, Control_c, 3, 7, 99
11, 169080, Note_on_c, 3, 78, 0
11, 169080, Note_on_c, 3, 79, 0
11, 169080, Note_on_c, 3, 79, 127
11, 169080, Note_on_c, 3, 78, 127
11, 169089, Control_c, 3, 7, 100
11, 169113, Control_c, 3, 7, 101
11, 169123, Control_c, 3, 7, 100
11, 169132, Control_c, 3, 7, 99
11, 169137, Control_c, 3, 7, 98
11, 169140, Note_on_c, 3, 78, 0
11, 169140, Note_on_c, 3, 79, 0
11, 169140, Note_on_c, 3, 78, 127
11, 169140, Note_on_c, 3, 79, 127
11, 169147, Control_c, 3, 7, 97
11, 169152, Control_c, 3, 7, 96
11, 169161, Control_c, 3, 7, 95
11, 169171, Control_c, 3, 7, 94
11, 169176, Control_c, 3, 7, 93
11, 169185, Control_c, 3, 7, 92
11, 169190, Control_c, 3, 7, 91
11, 169200, Note_on_c, 3, 79, 0
11, 169200, Note_on_c, 3, 78, 0
11, 169200, Note_on_c, 3, 78, 127
11, 169200, Note_on_c, 3, 79, 127
11, 169200, Control_c, 3, 7, 90
11, 169204, Control_c, 3, 7, 89
11, 169214, Control_c, 3, 7, 88
11, 169224, Control_c, 3, 7, 87
11, 169228, Control_c, 3, 7, 86
11, 169238, Control_c, 3, 7, 85
11, 169243, Control_c, 3, 7, 84
11, 169252, Control_c, 3, 7, 83
11, 169260, Note_on_c, 3, 79, 0
11, 169260, Note_on_c, 3, 78, 0
11, 169260, Note_on_c, 3, 78, 127
11, 169260, Note_on_c, 3, 79, 127
11, 169262, Control_c, 3, 7, 82
11, 169267, Control_c, 3, 7, 81
11, 169276, Control_c, 3, 7, 80
11, 169281, Control_c, 3, 7, 79
11, 169291, Control_c, 3, 7, 78
11, 169296, Control_c, 3, 7, 77
11, 169305, Control_c, 3, 7, 76
11, 169315, Control_c, 3, 7, 75
11, 169320, Note_on_c, 3, 79, 0
11, 169320, Note_on_c, 3, 78, 0
11, 169320, Control_c, 3, 7, 74
11, 169320, Note_on_c, 3, 78, 127
11, 169320, Note_on_c, 3, 79, 127
11, 169329, Control_c, 3, 7, 73
11, 169334, Control_c, 3, 7, 72
11, 169344, Control_c, 3, 7, 71
11, 169353, Control_c, 3, 7, 70
11, 169358, Control_c, 3, 7, 69
11, 169368, Control_c, 3, 7, 68
11, 169372, Control_c, 3, 7, 67
11, 169380, Note_on_c, 3, 79, 0
11, 169380, Note_on_c, 3, 78, 0
11, 169380, Note_on_c, 3, 78, 127
11, 169382, Control_c, 3, 7, 66
11, 169387, Control_c, 3, 7, 65
11, 169396, Control_c, 3, 7, 64
11, 169406, Control_c, 3, 7, 63
11, 169411, Control_c, 3, 7, 62
11, 169420, Control_c, 3, 7, 61
11, 169425, Control_c, 3, 7, 60
11, 169435, Control_c, 3, 7, 59
11, 169440, Note_on_c, 3, 78, 0
11, 169440, Control_c, 3, 7, 58
11, 171628, Control_c, 3, 7, 49
11, 171657, Control_c, 3, 7, 50
11, 171660, Note_on_c, 3, 71, 127
11, 171681, Control_c, 3, 7, 51
11, 171705, Control_c, 3, 7, 52
11, 171720, Note_on_c, 3, 71, 0
11, 171720, Note_on_c, 3, 72, 127
11, 171734, Control_c, 3, 7, 53
11, 171758, Control_c, 3, 7, 54
11, 171780, Note_on_c, 3, 72, 0
11, 171780, Note_on_c, 3, 73, 127
11, 171782, Control_c, 3, 7, 55
11, 171811, Control_c, 3, 7, 56
11, 171835, Control_c, 3, 7, 57
11, 171840, Note_on_c, 3, 73, 0
11, 171840, Note_on_c, 3, 74, 127
11, 171859, Control_c, 3, 7, 58
11, 171888, Control_c, 3, 7, 59
11, 171900, Note_on_c, 3, 74, 0
11, 171900, Note_on_c, 3, 74, 127
11, 171912, Control_c, 3, 7, 60
11, 171936, Control_c, 3, 7, 61
11, 171960, Note_on_c, 3, 74, 0
11, 171960, Note_on_c, 3, 74, 127
11, 171960, Control_c, 3, 7, 62
11, 171988, Control_c, 3, 7, 63
11, 172012, Control_c, 3, 7, 64
11, 172020, Note_on_c, 3, 74, 0
11, 172020, Note_on_c, 3, 74, 127
11, 172036, Control_c, 3, 7, 65
11, 172065, Control_c, 3, 7, 66
11, 172080, Note_on_c, 3, 74, 0
11, 172080, Note_on_c, 3, 74, 127
11, 172089, Control_c, 3, 7, 67
11, 172113, Control_c, 3, 7, 68
11, 172140, Note_on_c, 3, 74, 0
11, 172140, Note_on_c, 3, 74, 127
11, 172142, Control_c, 3, 7, 69
11, 172166, Control_c, 3, 7, 70
11, 172190, Control_c, 3, 7, 71
11, 172200, Note_on_c, 3, 74, 0
11, 172200, Note_on_c, 3, 74, 127
11, 172219, Control_c, 3, 7, 72
11, 172243, Control_c, 3, 7, 73
11, 172260, Note_on_c, 3, 74, 0
11, 172260, Note_on_c, 3, 74, 127
11, 172267, Control_c, 3, 7, 74
11, 172291, Control_c, 3, 7, 75
11, 172320, Note_on_c, 3, 74, 0
11, 172320, Control_c, 3, 7, 76
11, 172320, Note_on_c, 3, 79, 127
11, 172344, Control_c, 3, 7, 77
11, 172368, Control_c, 3, 7, 78
11, 172380, Note_on_c, 3, 79, 0
11, 172380, Note_on_c, 3, 79, 127
11, 172396, Control_c, 3, 7, 79
11, 172420, Control_c, 3, 7, 80
11, 172440, Note_on_c, 3, 79, 0
11, 172440, Note_on_c, 3, 79, 127
11, 172444, Control_c, 3, 7, 81
11, 172473, Control_c, 3, 7, 82
11, 172497, Control_c, 3, 7, 83
11, 172500, Note_on_c, 3, 79, 0
11, 172500, Note_on_c, 3, 79, 127
11, 172521, Control_c, 3, 7, 84
11, 172550, Control_c, 3, 7, 85
11, 172560, Note_on_c, 3, 79, 0
11, 172560, Note_on_c, 3, 79, 127
11, 172574, Control_c, 3, 7, 86
11, 172598, Control_c, 3, 7, 87
11, 172620, Note_on_c, 3, 79, 0
11, 172620, Note_on_c, 3, 79, 127
11, 172622, Control_c, 3, 7, 88
11, 172651, Control_c, 3, 7, 89
11, 172675, Control_c, 3, 7, 90
11, 172680, Note_on_c, 3, 79, 0
11, 172680, Note_on_c, 3, 79, 127
11, 172699, Control_c, 3, 7, 91
11, 172728, Control_c, 3, 7, 92
11, 172740, Note_on_c, 3, 79, 0
11, 172740, Note_on_c, 3, 79, 127
11, 172752, Control_c, 3, 7, 93
11, 172776, Control_c, 3, 7, 94
11, 172800, Note_on_c, 3, 79, 0
11, 172800, Note_on_c, 3, 78, 127
11, 172804, Control_c, 3, 7, 95
11, 172828, Control_c, 3, 7, 96
11, 172852, Control_c, 3, 7, 97
11, 172860, Note_on_c, 3, 78, 0
11, 172860, Note_on_c, 3, 78, 127
11, 172860, Note_on_c, 3, 79, 127
11, 172881, Control_c, 3, 7, 98
11, 172905, Control_c, 3, 7, 99
11, 172920, Note_on_c, 3, 79, 0
11, 172920, Note_on_c, 3, 78, 0
11, 172920, Note_on_c, 3, 78, 127
11, 172920, Note_on_c, 3, 79, 127
11, 172929, Control_c, 3, 7, 100
11, 172953, Control_c, 3, 7, 101
11, 172963, Control_c, 3, 7, 100
11, 172972, Control_c, 3, 7, 99
11, 172977, Control_c, 3, 7, 98
11, 172980, Note_on_c, 3, 79, 0
11, 172980, Note_on_c, 3, 78, 0
11, 172980, Note_on_c, 3, 78, 127
11, 172980, Note_on_c, 3, 79, 127
11, 172987, Control_c, 3, 7, 97
11, 172992, Control_c, 3, 7, 96
11, 173001, Control_c, 3, 7, 95
11, 173011, Control_c, 3, 7, 94
11, 173016, Control_c, 3, 7, 93
11, 173025, Control_c, 3, 7, 92
11, 173030, Control_c, 3, 7, 91
11, 173040, Note_on_c, 3, 79, 0
11, 173040, Note_on_c, 3, 78, 0
11, 173040, Control_c, 3, 7, 90
11, 173040, Note_on_c, 3, 79, 127
11, 173040, Note_on_c, 3, 78, 127
11, 173044, Control_c, 3, 7, 89
11, 173054, Control_c, 3, 7, 88
11, 173064, Control_c, 3, 7, 87
11, 173068, Control_c, 3, 7, 86
11, 173078, Control_c, 3, 7, 85
11, 173083, Control_c, 3, 7, 84
11, 173092, Control_c, 3, 7, 83
11, 173100, Note_on_c, 3, 78, 0
11, 173100, Note_on_c, 3, 79, 0
11, 173100, Note_on_c, 3, 79, 127
11, 173100, Note_on_c, 3, 78, 127
11, 173102, Control_c, 3, 7, 82
11, 173107, Control_c, 3, 7, 81
11, 173116, Control_c, 3, 7, 80
11, 173121, Control_c, 3, 7, 79
11, 173131, Control_c, 3, 7, 78
11, 173136, Control_c, 3, 7, 77
11, 173145, Control_c, 3, 7, 76
11, 173155, Control_c, 3, 7, 75
11, 173160, Note_on_c, 3, 78, 0
11, 173160, Note_on_c, 3, 79, 0
11, 173160, Note_on_c, 3, 78, 127
11, 173160, Note_on_c, 3, 79, 127
11, 173160, Control_c, 3, 7, 74
11, 173169, Control_c, 3, 7, 73
11, 173174, Control_c, 3, 7, 72
11, 173184, Control_c, 3, 7, 71
11, 173193, Control_c, 3, 7, 70
11, 173198, Control_c, 3, 7, 69
11, 173208, Control_c, 3, 7, 68
11, 173212, Control_c, 3, 7, 67
11, 173220, Note_on_c, 3, 79, 0
11, 173220, Note_on_c, 3, 78, 0
11, 173220, Note_on_c, 3, 78, 127
11, 173222, Control_c, 3, 7, 66
11, 173227, Control_c, 3, 7, 65
11, 173236, Control_c, 3, 7, 64
11, 173246, Control_c, 3, 7, 63
11, 173251, Control_c, 3, 7, 62
11, 173260, Control_c, 3, 7, 61
11, 173265, Control_c, 3, 7, 60
11, 173275, Control_c, 3, 7, 59
11, 173280, Note_on_c, 3, 78, 0
11, 173280, Control_c, 3, 7, 58
11, 175468, Control_c, 3, 7, 49
11, 175497, Control_c, 3, 7, 50
11, 175500, Note_on_c, 3, 71, 127
11, 175521, Control_c, 3, 7, 51
11, 175545, Control_c, 3, 7, 52
11, 175560, Note_on_c, 3, 71, 0
11, 175560, Note_on_c, 3, 72, 127
11, 175574, Control_c, 3, 7, 53
11, 175598, Control_c, 3, 7, 54
11, 175620, Note_on_c, 3, 72, 0
11, 175620, Note_on_c, 3, 73, 127
11, 175622, Control_c, 3, 7, 55
11, 175651, Control_c, 3, 7, 56
11, 175675, Control_c, 3, 7, 57
11, 175680, Note_on_c, 3, 73, 0
11, 175680, Note_on_c, 3, 74, 127
11, 175699, Control_c, 3, 7, 58
11, 175728, Control_c, 3, 7, 59
11, 175740, Note_on_c, 3, 74, 0
11, 175740, Note_on_c, 3, 74, 127
11, 175752, Control_c, 3, 7, 60
11, 175776, Control_c, 3, 7, 61
11, 175800, Note_on_c, 3, 74, 0
11, 175800, Control_c, 3, 7, 62
11, 175800, Note_on_c, 3, 74, 127
11, 175828, Control_c, 3, 7, 63
11, 175852, Control_c, 3, 7, 64
11, 175860, Note_on_c, 3, 74, 0
11, 175860, Note_on_c, 3, 74, 127
11, 175876, Control_c, 3, 7, 65
11, 175905, Control_c, 3, 7, 66
11, 175920, Note_on_c, 3, 74, 0
11, 175920, Note_on_c, 3, 74, 127
11, 175929, Control_c, 3, 7, 67
11, 175953, Control_c, 3, 7, 68
11, 175980, Note_on_c, 3, 74, 0
11, 175980, Note_on_c, 3, 74, 127
11, 175982, Control_c, 3, 7, 69
11, 176006, Control_c, 3, 7, 70
11, 176030, Control_c, 3, 7, 71
11, 176040, Note_on_c, 3, 74, 0
11, 176040, Note_on_c, 3, 74, 127
11, 176059, Control_c, 3, 7, 72
11, 176083, Control_c, 3, 7, 73
11, 176100, Note_on_c, 3, 74, 0
11, 176100, Note_on_c, 3, 74, 127
11, 176107, Control_c, 3, 7, 74
11, 176131, Control_c, 3, 7, 75
11, 176136, Control_c, 3, 7, 75
11, 176160, Note_on_c, 3, 74, 0
11, 176160, Note_on_c, 3, 73, 127
11, 176164, Control_c, 3, 7, 76
11, 176188, Control_c, 3, 7, 77
11, 176212, Control_c, 3, 7, 78
11, 176220, Note_on_c, 3, 73, 0
11, 176220, Note_on_c, 3, 74, 127
11, 176220, Note_on_c, 3, 73, 127
11, 176236, Control_c, 3, 7, 79
11, 176260, Control_c, 3, 7, 80
11, 176280, Note_on_c, 3, 73, 0
11, 176280, Note_on_c, 3, 74, 0
11, 176280, Note_on_c, 3, 73, 127
11, 176280, Note_on_c, 3, 74, 127
11, 176284, Control_c, 3, 7, 81
11, 176308, Control_c, 3, 7, 82
11, 176332, Control_c, 3, 7, 83
11, 176340, Note_on_c, 3, 74, 0
11, 176340, Note_on_c, 3, 73, 0
11, 176340, Note_on_c, 3, 73, 127
11, 176340, Note_on_c, 3, 74, 127
11, 176356, Control_c, 3, 7, 84
11, 176380, Control_c, 3, 7, 85
11, 176400, Note_on_c, 3, 74, 0
11, 176400, Note_on_c, 3, 73, 0
11, 176400, Note_on_c, 3, 73, 127
11, 176400, Note_on_c, 3, 74, 127
11, 176404, Control_c, 3, 7, 86
11, 176428, Control_c, 3, 7, 87
11, 176452, Control_c, 3, 7, 88
11, 176460, Note_on_c, 3, 74, 0
11, 176460, Note_on_c, 3, 73, 0
11, 176460, Note_on_c, 3, 74, 127
11, 176460, Note_on_c, 3, 73, 127
11, 176476, Control_c, 3, 7, 89
11, 176500, Control_c, 3, 7, 90
11, 176520, Note_on_c, 3, 73, 0
11, 176520, Note_on_c, 3, 74, 0
11, 176520, Note_on_c, 3, 74, 127
11, 176520, Note_on_c, 3, 73, 127
11, 176524, Control_c, 3, 7, 91
11, 176548, Control_c, 3, 7, 92
11, 176572, Control_c, 3, 7, 93
11, 176580, Note_on_c, 3, 73, 0
11, 176580, Note_on_c, 3, 74, 0
11, 176580, Note_on_c, 3, 73, 127
11, 176596, Control_c, 3, 7, 94
11, 176620, Control_c, 3, 7, 95
11, 176640, Note_on_c, 3, 73, 0
11, 176644, Control_c, 3, 7, 96
11, 176668, Control_c, 3, 7, 97
11, 176692, Control_c, 3, 7, 98
11, 176700, Note_on_c, 3, 73, 127
11, 176700, Note_on_c, 3, 73, 127
11, 176716, Control_c, 3, 7, 99
11, 176740, Control_c, 3, 7, 100
11, 176760, Note_on_c, 3, 73, 0
11, 176760, Note_on_c, 3, 73, 0
11, 176760, Note_on_c, 3, 73, 127
11, 176760, Note_on_c, 3, 73, 127
11, 176764, Control_c, 3, 7, 101
11, 176788, Control_c, 3, 7, 102
11, 176793, Control_c, 3, 7, 101
11, 176803, Control_c, 3, 7, 100
11, 176812, Control_c, 3, 7, 99
11, 176817, Control_c, 3, 7, 98
11, 176820, Note_on_c, 3, 73, 0
11, 176820, Note_on_c, 3, 73, 0
11, 176820, Note_on_c, 3, 73, 127
11, 176820, Note_on_c, 3, 73, 127
11, 176827, Control_c, 3, 7, 97
11, 176832, Control_c, 3, 7, 96
11, 176841, Control_c, 3, 7, 95
11, 176851, Control_c, 3, 7, 94
11, 176856, Control_c, 3, 7, 93
11, 176865, Control_c, 3, 7, 92
11, 176870, Control_c, 3, 7, 91
11, 176880, Note_on_c, 3, 73, 0
11, 176880, Note_on_c, 3, 73, 0
11, 176880, Note_on_c, 3, 73, 127
11, 176880, Note_on_c, 3, 73, 127
11, 176880, Control_c, 3, 7, 90
11, 176884, Control_c, 3, 7, 89
11, 176894, Control_c, 3, 7, 88
11, 176904, Control_c, 3, 7, 87
11, 176908, Control_c, 3, 7, 86
11, 176918, Control_c, 3, 7, 85
11, 176923, Control_c, 3, 7, 84
11, 176932, Control_c, 3, 7, 83
11, 176940, Note_on_c, 3, 73, 0
11, 176940, Note_on_c, 3, 73, 0
11, 176940, Note_on_c, 3, 73, 127
11, 176940, Note_on_c, 3, 73, 127
11, 176942, Control_c, 3, 7, 82
11, 176947, Control_c, 3, 7, 81
11, 176956, Control_c, 3, 7, 80
11, 176961, Control_c, 3, 7, 79
11, 176971, Control_c, 3, 7, 78
11, 176976, Control_c, 3, 7, 77
11, 176985, Control_c, 3, 7, 76
11, 176995, Control_c, 3, 7, 75
11, 177000, Note_on_c, 3, 73, 0
11, 177000, Note_on_c, 3, 73, 0
11, 177000, Note_on_c, 3, 73, 127
11, 177000, Control_c, 3, 7, 74
11, 177000, Note_on_c, 3, 73, 127
11, 177009, Control_c, 3, 7, 73
11, 177014, Control_c, 3, 7, 72
11, 177024, Control_c, 3, 7, 71
11, 177033, Control_c, 3, 7, 70
11, 177038, Control_c, 3, 7, 69
11, 177048, Control_c, 3, 7, 68
11, 177052, Control_c, 3, 7, 67
11, 177060, Note_on_c, 3, 73, 0
11, 177060, Note_on_c, 3, 73, 0
11, 177060, Note_on_c, 3, 73, 127
11, 177062, Control_c, 3, 7, 66
11, 177067, Control_c, 3, 7, 65
11, 177076, Control_c, 3, 7, 64
11, 177086, Control_c, 3, 7, 63
11, 177091, Control_c, 3, 7, 62
11, 177100, Control_c, 3, 7, 61
11, 177105, Control_c, 3, 7, 60
11, 177115, Control_c, 3, 7, 59
11, 177120, Note_on_c, 3, 73, 0
11, 177120, Control_c, 3, 7, 58
11, 179308, Control_c, 3, 7, 49
11, 179337, Control_c, 3, 7, 50
11, 179340, Note_on_c, 3, 71, 127
11, 179361, Control_c, 3, 7, 51
11, 179385, Control_c, 3, 7, 52
11, 179400, Note_on_c, 3, 71, 0
11, 179400, Note_on_c, 3, 72, 127
11, 179414, Control_c, 3, 7, 53
11, 179438, Control_c, 3, 7, 54
11, 179460, Note_on_c, 3, 72, 0
11, 179460, Note_on_c, 3, 73, 127
11, 179462, Control_c, 3, 7, 55
11, 179491, Control_c, 3, 7, 56
11, 179515, Control_c, 3, 7, 57
11, 179520, Note_on_c, 3, 73, 0
11, 179520, Note_on_c, 3, 74, 127
11, 179539, Control_c, 3, 7, 58
11, 179568, Control_c, 3, 7, 59
11, 179580, Note_on_c, 3, 74, 0
11, 179580, Note_on_c, 3, 74, 127
11, 179592, Control_c, 3, 7, 60
11, 179616, Control_c, 3, 7, 61
11, 179640, Note_on_c, 3, 74, 0
11, 179640, Note_on_c, 3, 74, 127
11, 179640, Control_c, 3, 7, 62
11, 179668, Control_c, 3, 7, 63
11, 179692, Control_c, 3, 7, 64
11, 179700, Note_on_c, 3, 74, 0
11, 179700, Note_on_c, 3, 74, 127
11, 179716, Control_c, 3, 7, 65
11, 179745, Control_c, 3, 7, 66
11, 179760, Note_on_c, 3, 74, 0
11, 179760, Note_on_c, 3, 74, 127
11, 179769, Control_c, 3, 7, 67
11, 179793, Control_c, 3, 7, 68
11, 179820, Note_on_c, 3, 74, 0
11, 179820, Note_on_c, 3, 74, 127
11, 179822, Control_c, 3, 7, 69
11, 179846, Control_c, 3, 7, 70
11, 179870, Control_c, 3, 7, 71
11, 179880, Note_on_c, 3, 74, 0
11, 179880, Note_on_c, 3, 74, 127
11, 179899, Control_c, 3, 7, 72
11, 179923, Control_c, 3, 7, 73
11, 179940, Note_on_c, 3, 74, 0
11, 179940, Note_on_c, 3, 74, 127
11, 179947, Control_c, 3, 7, 74
11, 179971, Control_c, 3, 7, 75
11, 180000, Note_on_c, 3, 74, 0
11, 180000, Control_c, 3, 7, 76
11, 180000, Note_on_c, 3, 79, 127
11, 180024, Control_c, 3, 7, 77
11, 180048, Control_c, 3, 7, 78
11, 180060, Note_on_c, 3, 79, 0
11, 180060, Note_on_c, 3, 79, 127
11, 180076, Control_c, 3, 7, 79
11, 180100, Control_c, 3, 7, 80
11, 180120, Note_on_c, 3, 79, 0
11, 180120, Note_on_c, 3, 79, 127
11, 180124, Control_c, 3, 7, 81
11, 180153, Control_c, 3, 7, 82
11, 180177, Control_c, 3, 7, 83
11, 180180, Note_on_c, 3, 79, 0
11, 180180, Note_on_c, 3, 79, 127
11, 180201, Control_c, 3, 7, 84
11, 180230, Control_c, 3, 7, 85
11, 180240, Note_on_c, 3, 79, 0
11, 180240, Note_on_c, 3, 79, 127
11, 180254, Control_c, 3, 7, 86
11, 180278, Control_c, 3, 7, 87
11, 180300, Note_on_c, 3, 79, 0
11, 180300, Note_on_c, 3, 79, 127
11, 180302, Control_c, 3, 7, 88
11, 180331, Control_c, 3, 7, 89
11, 180355, Control_c, 3, 7, 90
11, 180360, Note_on_c, 3, 79, 0
11, 180360, Note_on_c, 3, 79, 127
11, 180379, Control_c, 3, 7, 91
11, 180408, Control_c, 3, 7, 92
11, 180420, Note_on_c, 3, 79, 0
11, 180420, Note_on_c, 3, 79, 127
11, 180432, Control_c, 3, 7, 93
11, 180456, Control_c, 3, 7, 94
11, 180480, Note_on_c, 3, 79, 0
11, 180480, Note_on_c, 3, 78, 127
11, 180484, Control_c, 3, 7, 95
11, 180508, Control_c, 3, 7, 96
11, 180532, Control_c, 3, 7, 97
11, 180540, Note_on_c, 3, 78, 0
11, 180540, Note_on_c, 3, 79, 127
11, 180540, Note_on_c, 3, 78, 127
11, 180561, Control_c, 3, 7, 98
11, 180585, Control_c, 3, 7, 99
11, 180600, Note_on_c, 3, 78, 0
11, 180600, Note_on_c, 3, 79, 0
11, 180600, Note_on_c, 3, 79, 127
11, 180600, Note_on_c, 3, 78, 127
11, 180609, Control_c, 3, 7, 100
11, 180633, Control_c, 3, 7, 101
11, 180643, Control_c, 3, 7, 100
11, 180652, Control_c, 3, 7, 99
11, 180657, Control_c, 3, 7, 98
11, 180660, Note_on_c, 3, 78, 0
11, 180660, Note_on_c, 3, 79, 0
11, 180660, Note_on_c, 3, 78, 127
11, 180660, Note_on_c, 3, 79, 127
11, 180667, Control_c, 3, 7, 97
11, 180672, Control_c, 3, 7, 96
11, 180681, Control_c, 3, 7, 95
11, 180691, Control_c, 3, 7, 94
11, 180696, Control_c, 3, 7, 93
11, 180705, Control_c, 3, 7, 92
11, 180710, Control_c, 3, 7, 91
11, 180720, Note_on_c, 3, 79, 0
11, 180720, Note_on_c, 3, 78, 0
11, 180720, Note_on_c, 3, 79, 127
11, 180720, Note_on_c, 3, 78, 127
11, 180720, Control_c, 3, 7, 90
11, 180724, Control_c, 3, 7, 89
11, 180734, Control_c, 3, 7, 88
11, 180744, Control_c, 3, 7, 87
11, 180748, Control_c, 3, 7, 86
11, 180758, Control_c, 3, 7, 85
11, 180763, Control_c, 3, 7, 84
11, 180772, Control_c, 3, 7, 83
11, 180780, Note_on_c, 3, 78, 0
11, 180780, Note_on_c, 3, 79, 0
11, 180780, Note_on_c, 3, 78, 127
11, 180780, Note_on_c, 3, 79, 127
11, 180782, Control_c, 3, 7, 82
11, 180787, Control_c, 3, 7, 81
11, 180796, Control_c, 3, 7, 80
11, 180801, Control_c, 3, 7, 79
11, 180811, Control_c, 3, 7, 78
11, 180816, Control_c, 3, 7, 77
11, 180825, Control_c, 3, 7, 76
11, 180835, Control_c, 3, 7, 75
11, 180840, Note_on_c, 3, 79, 0
11, 180840, Note_on_c, 3, 78, 0
11, 180840, Control_c, 3, 7, 74
11, 180840, Note_on_c, 3, 79, 127
11, 180840, Note_on_c, 3, 78, 127
11, 180849, Control_c, 3, 7, 73
11, 180854, Control_c, 3, 7, 72
11, 180864, Control_c, 3, 7, 71
11, 180873, Control_c, 3, 7, 70
11, 180878, Control_c, 3, 7, 69
11, 180888, Control_c, 3, 7, 68
11, 180892, Control_c, 3, 7, 67
11, 180900, Note_on_c, 3, 78, 0
11, 180900, Note_on_c, 3, 79, 0
11, 180900, Note_on_c, 3, 78, 127
11, 180902, Control_c, 3, 7, 66
11, 180907, Control_c, 3, 7, 65
11, 180916, Control_c, 3, 7, 64
11, 180926, Control_c, 3, 7, 63
11, 180931, Control_c, 3, 7, 62
11, 180940, Control_c, 3, 7, 61
11, 180945, Control_c, 3, 7, 60
11, 180955, Control_c, 3, 7, 59
11, 180960, Note_on_c, 3, 78, 0
11, 180960, Control_c, 3, 7, 58
11, 183148, Control_c, 3, 7, 49
11, 183177, Control_c, 3, 7, 50
11, 183180, Note_on_c, 3, 71, 127
11, 183201, Control_c, 3, 7, 51
11, 183225, Control_c, 3, 7, 52
11, 183240, Note_on_c, 3, 71, 0
11, 183240, Note_on_c, 3, 72, 127
11, 183254, Control_c, 3, 7, 53
11, 183278, Control_c, 3, 7, 54
11, 183300, Note_on_c, 3, 72, 0
11, 183300, Note_on_c, 3, 73, 127
11, 183302, Control_c, 3, 7, 55
11, 183331, Control_c, 3, 7, 56
11, 183355, Control_c, 3, 7, 57
11, 183360, Note_on_c, 3, 73, 0
11, 183360, Note_on_c, 3, 74, 127
11, 183379, Control_c, 3, 7, 58
11, 183408, Control_c, 3, 7, 59
11, 183420, Note_on_c, 3, 74, 0
11, 183420, Note_on_c, 3, 74, 127
11, 183432, Control_c, 3, 7, 60
11, 183456, Control_c, 3, 7, 61
11, 183480, Note_on_c, 3, 74, 0
11, 183480, Note_on_c, 3, 74, 127
11, 183480, Control_c, 3, 7, 62
11, 183508, Control_c, 3, 7, 63
11, 183532, Control_c, 3, 7, 64
11, 183540, Note_on_c, 3, 74, 0
11, 183540, Note_on_c, 3, 74, 127
11, 183556, Control_c, 3, 7, 65
11, 183585, Control_c, 3, 7, 66
11, 183600, Note_on_c, 3, 74, 0
11, 183600, Note_on_c, 3, 74, 127
11, 183609, Control_c, 3, 7, 67
11, 183633, Control_c, 3, 7, 68
11, 183660, Note_on_c, 3, 74, 0
11, 183660, Note_on_c, 3, 74, 127
11, 183662, Control_c, 3, 7, 69
11, 183686, Control_c, 3, 7, 70
11, 183710, Control_c, 3, 7, 71
11, 183720, Note_on_c, 3, 74, 0
11, 183720, Note_on_c, 3, 74, 127
11, 183739, Control_c, 3, 7, 72
11, 183763, Control_c, 3, 7, 73
11, 183780, Note_on_c, 3, 74, 0
11, 183780, Note_on_c, 3, 74, 127
11, 183787, Control_c, 3, 7, 74
11, 183811, Control_c, 3, 7, 75
11, 183840, Note_on_c, 3, 74, 0
11, 183840, Control_c, 3, 7, 76
11, 183840, Note_on_c, 3, 79, 127
11, 183864, Control_c, 3, 7, 77
11, 183888, Control_c, 3, 7, 78
11, 183900, Note_on_c, 3, 79, 0
11, 183900, Note_on_c, 3, 79, 127
11, 183916, Control_c, 3, 7, 79
11, 183940, Control_c, 3, 7, 80
11, 183960, Note_on_c, 3, 79, 0
11, 183960, Note_on_c, 3, 79, 127
11, 183964, Control_c, 3, 7, 81
11, 183993, Control_c, 3, 7, 82
11, 184017, Control_c, 3, 7, 83
11, 184020, Note_on_c, 3, 79, 0
11, 184020, Note_on_c, 3, 79, 127
11, 184041, Control_c, 3, 7, 84
11, 184070, Control_c, 3, 7, 85
11, 184080, Note_on_c, 3, 79, 0
11, 184080, Note_on_c, 3, 79, 127
11, 184094, Control_c, 3, 7, 86
11, 184118, Control_c, 3, 7, 87
11, 184140, Note_on_c, 3, 79, 0
11, 184140, Note_on_c, 3, 79, 127
11, 184142, Control_c, 3, 7, 88
11, 184171, Control_c, 3, 7, 89
11, 184195, Control_c, 3, 7, 90
11, 184200, Note_on_c, 3, 79, 0
11, 184200, Note_on_c, 3, 79, 127
11, 184219, Control_c, 3, 7, 91
11, 184248, Control_c, 3, 7, 92
11, 184260, Note_on_c, 3, 79, 0
11, 184260, Note_on_c, 3, 79, 127
11, 184272, Control_c, 3, 7, 93
11, 184296, Control_c, 3, 7, 94
11, 184320, Note_on_c, 3, 79, 0
11, 184320, Note_on_c, 3, 78, 127
11, 184324, Control_c, 3, 7, 95
11, 184348, Control_c, 3, 7, 96
11, 184372, Control_c, 3, 7, 97
11, 184380, Note_on_c, 3, 78, 0
11, 184380, Note_on_c, 3, 79, 127
11, 184380, Note_on_c, 3, 78, 127
11, 184401, Control_c, 3, 7, 98
11, 184425, Control_c, 3, 7, 99
11, 184440, Note_on_c, 3, 78, 0
11, 184440, Note_on_c, 3, 79, 0
11, 184440, Note_on_c, 3, 79, 127
11, 184440, Note_on_c, 3, 78, 127
11, 184449, Control_c, 3, 7, 100
11, 184473, Control_c, 3, 7, 101
11, 184483, Control_c, 3, 7, 100
11, 184492, Control_c, 3, 7, 99
11, 184497, Control_c, 3, 7, 98
11, 184500, Note_on_c, 3, 78, 0
11, 184500, Note_on_c, 3, 79, 0
11, 184500, Note_on_c, 3, 78, 127
11, 184500, Note_on_c, 3, 79, 127
11, 184507, Control_c, 3, 7, 97
11, 184512, Control_c, 3, 7, 96
11, 184521, Control_c, 3, 7, 95
11, 184531, Control_c, 3, 7, 94
11, 184536, Control_c, 3, 7, 93
11, 184545, Control_c, 3, 7, 92
11, 184550, Control_c, 3, 7, 91
11, 184560, Note_on_c, 3, 79, 0
11, 184560, Note_on_c, 3, 78, 0
11, 184560, Note_on_c, 3, 78, 127
11, 184560, Control_c, 3, 7, 90
11, 184560, Note_on_c, 3, 79, 127
11, 184564, Control_c, 3, 7, 89
11, 184574, Control_c, 3, 7, 88
11, 184584, Control_c, 3, 7, 87
11, 184588, Control_c, 3, 7, 86
11, 184598, Control_c, 3, 7, 85
11, 184603, Control_c, 3, 7, 84
11, 184612, Control_c, 3, 7, 83
11, 184620, Note_on_c, 3, 79, 0
11, 184620, Note_on_c, 3, 78, 0
11, 184620, Note_on_c, 3, 78, 127
11, 184620, Note_on_c, 3, 79, 127
11, 184622, Control_c, 3, 7, 82
11, 184627, Control_c, 3, 7, 81
11, 184636, Control_c, 3, 7, 80
11, 184641, Control_c, 3, 7, 79
11, 184651, Control_c, 3, 7, 78
11, 184656, Control_c, 3, 7, 77
11, 184665, Control_c, 3, 7, 76
11, 184675, Control_c, 3, 7, 75
11, 184680, Note_on_c, 3, 79, 0
11, 184680, Note_on_c, 3, 78, 0
11, 184680, Control_c, 3, 7, 74
11, 184680, Note_on_c, 3, 78, 127
11, 184680, Note_on_c, 3, 79, 127
11, 184689, Control_c, 3, 7, 73
11, 184694, Control_c, 3, 7, 72
11, 184704, Control_c, 3, 7, 71
11, 184713, Control_c, 3, 7, 70
11, 184718, Control_c, 3, 7, 69
11, 184728, Control_c, 3, 7, 68
11, 184732, Control_c, 3, 7, 67
11, 184740, Note_on_c, 3, 79, 0
11, 184740, Note_on_c, 3, 78, 0
11, 184740, Note_on_c, 3, 78, 127
11, 184742, Control_c, 3, 7, 66
11, 184747, Control_c, 3, 7, 65
11, 184756, Control_c, 3, 7, 64
11, 184766, Control_c, 3, 7, 63
11, 184771, Control_c, 3, 7, 62
11, 184780, Control_c, 3, 7, 61
11, 184785, Control_c, 3, 7, 60
11, 184795, Control_c, 3, 7, 59
11, 184800, Note_on_c, 3, 78, 0
11, 184800, Control_c, 3, 7, 58
11, 184800, End_track
12, 0, Start_track
12, 0, MIDI_port, 0
12, 0, Title_t, "Organ 2 - Damon Albarn"
12, 0, Program_c, 4, 16
12, 0, Control_c, 4, 7, 80
12, 0, Control_c, 4, 10, 43
12, 3840, Note_on_c, 4, 73, 100
12, 5040, Note_on_c, 4, 73, 0
12, 5040, Note_on_c, 4, 76, 100
12, 5520, Note_on_c, 4, 76, 0
12, 5520, Note_on_c, 4, 74, 100
12, 7680, Note_on_c, 4, 74, 0
12, 7680, Note_on_c, 4, 73, 100
12, 8880, Note_on_c, 4, 73, 0
12, 8880, Note_on_c, 4, 76, 100
12, 9360, Note_on_c, 4, 76, 0
12, 9360, Note_on_c, 4, 74, 100
12, 11520, Note_on_c, 4, 74, 0
12, 11520, Note_on_c, 4, 73, 100
12, 12720, Note_on_c, 4, 73, 0
12, 12720, Note_on_c, 4, 76, 100
12, 13200, Note_on_c, 4, 76, 0
12, 13200, Note_on_c, 4, 74, 100
12, 15360, Note_on_c, 4, 74, 0
12, 15360, Note_on_c, 4, 73, 100
12, 16560, Note_on_c, 4, 73, 0
12, 16560, Note_on_c, 4, 76, 100
12, 17040, Note_on_c, 4, 76, 0
12, 17040, Note_on_c, 4, 74, 100
12, 19200, Note_on_c, 4, 74, 0
12, 19200, Note_on_c, 4, 73, 100
12, 20400, Note_on_c, 4, 73, 0
12, 20400, Note_on_c, 4, 76, 100
12, 20880, Note_on_c, 4, 76, 0
12, 20880, Note_on_c, 4, 74, 100
12, 23040, Note_on_c, 4, 74, 0
12, 23040, Note_on_c, 4, 73, 100
12, 24240, Note_on_c, 4, 73, 0
12, 24240, Note_on_c, 4, 76, 100
12, 24720, Note_on_c, 4, 76, 0
12, 24720, Note_on_c, 4, 74, 100
12, 26880, Note_on_c, 4, 74, 0
12, 26880, Note_on_c, 4, 73, 100
12, 28080, Note_on_c, 4, 73, 0
12, 28080, Note_on_c, 4, 76, 100
12, 28560, Note_on_c, 4, 76, 0
12, 28560, Note_on_c, 4, 74, 100
12, 30720, Note_on_c, 4, 74, 0
12, 30720, Note_on_c, 4, 73, 100
12, 31920, Note_on_c, 4, 73, 0
12, 31920, Note_on_c, 4, 76, 100
12, 32400, Note_on_c, 4, 76, 0
12, 32400, Note_on_c, 4, 74, 100
12, 34560, Note_on_c, 4, 74, 0
12, 34560, Note_on_c, 4, 74, 100
12, 34560, Note_on_c, 4, 69, 100
12, 34560, Note_on_c, 4, 78, 100
12, 38400, Note_on_c, 4, 78, 0
12, 38400, Note_on_c, 4, 69, 0
12, 38400, Note_on_c, 4, 74, 0
12, 38400, Note_on_c, 4, 71, 100
12, 38400, Note_on_c, 4, 78, 100
12, 38400, Note_on_c, 4, 74, 100
12, 41520, Note_on_c, 4, 74, 0
12, 41520, Note_on_c, 4, 78, 0
12, 41520, Note_on_c, 4, 71, 0
12, 41520, Note_on_c, 4, 76, 100
12, 41520, Note_on_c, 4, 69, 100
12, 41520, Note_on_c, 4, 73, 100
12, 42240, Note_on_c, 4, 73, 0
12, 42240, Note_on_c, 4, 69, 0
12, 42240, Note_on_c, 4, 76, 0
12, 42240, Note_on_c, 4, 78, 100
12, 42240, Note_on_c, 4, 69, 100
12, 42240, Note_on_c, 4, 74, 100
12, 46080, Note_on_c, 4, 74, 0
12, 46080, Note_on_c, 4, 69, 0
12, 46080, Note_on_c, 4, 78, 0
12, 46080, Note_on_c, 4, 71, 100
12, 46080, Note_on_c, 4, 74, 100
12, 46080, Note_on_c, 4, 78, 100
12, 49200, Note_on_c, 4, 78, 0
12, 49200, Note_on_c, 4, 74, 0
12, 49200, Note_on_c, 4, 71, 0
12, 53760, Note_on_c, 4, 73, 100
12, 54960, Note_on_c, 4, 73, 0
12, 54960, Note_on_c, 4, 76, 100
12, 55440, Note_on_c, 4, 76, 0
12, 55440, Note_on_c, 4, 74, 100
12, 57600, Note_on_c, 4, 74, 0
12, 57600, Note_on_c, 4, 73, 100
12, 58800, Note_on_c, 4, 73, 0
12, 58800, Note_on_c, 4, 76, 100
12, 59280, Note_on_c, 4, 76, 0
12, 59280, Note_on_c, 4, 74, 100
12, 61440, Note_on_c, 4, 74, 0
12, 61440, Note_on_c, 4, 73, 100
12, 62640, Note_on_c, 4, 73, 0
12, 62640, Note_on_c, 4, 76, 100
12, 63120, Note_on_c, 4, 76, 0
12, 63120, Note_on_c, 4, 74, 100
12, 65280, Note_on_c, 4, 74, 0
12, 65280, Note_on_c, 4, 73, 100
12, 66480, Note_on_c, 4, 73, 0
12, 66480, Note_on_c, 4, 76, 100
12, 66960, Note_on_c, 4, 76, 0
12, 66960, Note_on_c, 4, 74, 100
12, 69120, Note_on_c, 4, 74, 0
12, 69120, Note_on_c, 4, 73, 100
12, 70320, Note_on_c, 4, 73, 0
12, 70320, Note_on_c, 4, 76, 100
12, 70800, Note_on_c, 4, 76, 0
12, 70800, Note_on_c, 4, 74, 100
12, 72960, Note_on_c, 4, 74, 0
12, 72960, Note_on_c, 4, 73, 100
12, 74160, Note_on_c, 4, 73, 0
12, 74160, Note_on_c, 4, 76, 100
12, 74640, Note_on_c, 4, 76, 0
12, 74640, Note_on_c, 4, 74, 100
12, 76800, Note_on_c, 4, 74, 0
12, 76800, Note_on_c, 4, 78, 100
12, 76800, Note_on_c, 4, 69, 100
12, 76800, Note_on_c, 4, 74, 100
12, 80640, Note_on_c, 4, 74, 0
12, 80640, Note_on_c, 4, 69, 0
12, 80640, Note_on_c, 4, 78, 0
12, 80640, Note_on_c, 4, 71, 100
12, 80640, Note_on_c, 4, 74, 100
12, 80640, Note_on_c, 4, 78, 100
12, 83760, Note_on_c, 4, 78, 0
12, 83760, Note_on_c, 4, 74, 0
12, 83760, Note_on_c, 4, 71, 0
12, 83760, Note_on_c, 4, 69, 100
12, 83760, Note_on_c, 4, 73, 100
12, 83760, Note_on_c, 4, 76, 100
12, 84480, Note_on_c, 4, 76, 0
12, 84480, Note_on_c, 4, 73, 0
12, 84480, Note_on_c, 4, 69, 0
12, 84480, Note_on_c, 4, 74, 100
12, 84480, Note_on_c, 4, 78, 100
12, 84480, Note_on_c, 4, 69, 100
12, 88320, Note_on_c, 4, 69, 0
12, 88320, Note_on_c, 4, 78, 0
12, 88320, Note_on_c, 4, 74, 0
12, 88320, Note_on_c, 4, 71, 100
12, 88320, Note_on_c, 4, 78, 100
12, 88320, Note_on_c, 4, 74, 100
12, 91440, Note_on_c, 4, 74, 0
12, 91440, Note_on_c, 4, 78, 0
12, 91440, Note_on_c, 4, 71, 0
12, 111360, Note_on_c, 4, 74, 100
12, 111360, Note_on_c, 4, 69, 100
12, 111360, Note_on_c, 4, 78, 100
12, 115200, Note_on_c, 4, 78, 0
12, 115200, Note_on_c, 4, 69, 0
12, 115200, Note_on_c, 4, 74, 0
12, 115200, Note_on_c, 4, 71, 100
12, 115200, Note_on_c, 4, 78, 100
12, 115200, Note_on_c, 4, 74, 100
12, 118320, Note_on_c, 4, 74, 0
12, 118320, Note_on_c, 4, 78, 0
12, 118320, Note_on_c, 4, 71, 0
12, 118320, Note_on_c, 4, 76, 100
12, 118320, Note_on_c, 4, 69, 100
12, 118320, Note_on_c, 4, 73, 100
12, 119040, Note_on_c, 4, 73, 0
12, 119040, Note_on_c, 4, 69, 0
12, 119040, Note_on_c, 4, 76, 0
12, 119040, Note_on_c, 4, 69, 100
12, 119040, Note_on_c, 4, 78, 100
12, 119040, Note_on_c, 4, 74, 100
12, 122880, Note_on_c, 4, 74, 0
12, 122880, Note_on_c, 4, 78, 0
12, 122880, Note_on_c, 4, 69, 0
12, 122880, Note_on_c, 4, 71, 100
12, 122880, Note_on_c, 4, 78, 100
12, 122880, Note_on_c, 4, 74, 100
12, 126000, Note_on_c, 4, 74, 0
12, 126000, Note_on_c, 4, 78, 0
12, 126000, Note_on_c, 4, 71, 0
12, 126720, Note_on_c, 4, 82, 100
12, 127920, Note_on_c, 4, 82, 0
12, 127920, Note_on_c, 4, 79, 100
12, 128400, Note_on_c, 4, 79, 0
12, 128400, Note_on_c, 4, 78, 100
12, 130560, Note_on_c, 4, 78, 0
12, 130560, Note_on_c, 4, 82, 100
12, 131760, Note_on_c, 4, 82, 0
12, 131760, Note_on_c, 4, 79, 100
12, 132240, Note_on_c, 4, 79, 0
12, 132240, Note_on_c, 4, 78, 100
12, 134400, Note_on_c, 4, 78, 0
12, 134400, Note_on_c, 4, 82, 100
12, 135360, Note_on_c, 4, 82, 0
12, 135360, Note_on_c, 4, 81, 100
12, 136080, Note_on_c, 4, 81, 0
12, 136080, Note_on_c, 4, 80, 100
12, 136560, Note_on_c, 4, 80, 0
12, 136560, Note_on_c, 4, 79, 100
12, 137040, Note_on_c, 4, 79, 0
12, 137040, Note_on_c, 4, 78, 100
12, 137495, Note_on_c, 4, 36, 100
12, 137507, Note_on_c, 4, 48, 100
12, 137520, Note_on_c, 4, 78, 0
12, 137556, Note_on_c, 4, 37, 100
12, 137574, Note_on_c, 4, 38, 100
12, 137588, Note_on_c, 4, 49, 100
12, 137590, Note_on_c, 4, 41, 100
12, 137592, Note_on_c, 4, 37, 0
12, 137593, Note_on_c, 4, 50, 100
12, 137598, Note_on_c, 4, 49, 0
12, 137606, Note_on_c, 4, 38, 0
12, 137608, Note_on_c, 4, 47, 100
12, 137609, Note_on_c, 4, 52, 100
12, 137617, Note_on_c, 4, 36, 0
12, 137624, Note_on_c, 4, 52, 100
12, 137625, Note_on_c, 4, 50, 0
12, 137626, Note_on_c, 4, 41, 0
12, 137631, Note_on_c, 4, 56, 100
12, 137640, Note_on_c, 4, 47, 0
12, 137642, Note_on_c, 4, 56, 100
12, 137653, Note_on_c, 4, 52, 0
12, 137656, Note_on_c, 4, 60, 100
12, 137658, Note_on_c, 4, 61, 100
12, 137660, Note_on_c, 4, 52, 0
12, 137665, Note_on_c, 4, 64, 100
12, 137669, Note_on_c, 4, 48, 0
12, 137674, Note_on_c, 4, 56, 0
12, 137674, Note_on_c, 4, 60, 0
12, 137676, Note_on_c, 4, 65, 100
12, 137679, Note_on_c, 4, 67, 100
12, 137681, Note_on_c, 4, 56, 0
12, 137693, Note_on_c, 4, 64, 0
12, 137694, Note_on_c, 4, 61, 0
12, 137694, Note_on_c, 4, 68, 100
12, 137704, Note_on_c, 4, 71, 100
12, 137710, Note_on_c, 4, 72, 100
12, 137711, Note_on_c, 4, 75, 100
12, 137712, Note_on_c, 4, 65, 0
12, 137718, Note_on_c, 4, 71, 0
12, 137726, Note_on_c, 4, 68, 0
12, 137728, Note_on_c, 4, 75, 100
12, 137729, Note_on_c, 4, 67, 0
12, 137744, Note_on_c, 4, 79, 100
12, 137746, Note_on_c, 4, 72, 0
12, 137754, Note_on_c, 4, 82, 100
12, 137760, Note_on_c, 4, 75, 0
12, 137762, Note_on_c, 4, 82, 100
12, 137778, Note_on_c, 4, 83, 100
12, 137780, Note_on_c, 4, 79, 0
12, 137794, Note_on_c, 4, 82, 0
12, 137797, Note_on_c, 4, 75, 0
12, 137812, Note_on_c, 4, 85, 100
12, 137814, Note_on_c, 4, 83, 0
12, 137820, Note_on_c, 4, 87, 100
12, 137903, Note_on_c, 4, 81, 100
12, 137905, Note_on_c, 4, 82, 100
12, 137921, Note_on_c, 4, 77, 100
12, 137926, Note_on_c, 4, 80, 100
12, 137937, Note_on_c, 4, 82, 0
12, 137937, Note_on_c, 4, 79, 100
12, 137939, Note_on_c, 4, 72, 100
12, 137948, Note_on_c, 4, 80, 0
12, 137949, Note_on_c, 4, 81, 0
12, 137950, Note_on_c, 4, 87, 0
12, 137952, Note_on_c, 4, 78, 100
12, 137957, Note_on_c, 4, 77, 0
12, 137962, Note_on_c, 4, 85, 0
12, 137967, Note_on_c, 4, 79, 0
12, 137967, Note_on_c, 4, 68, 100
12, 137973, Note_on_c, 4, 64, 100
12, 137977, Note_on_c, 4, 76, 100
12, 137979, Note_on_c, 4, 68, 0
12, 137988, Note_on_c, 4, 72, 100
12, 137989, Note_on_c, 4, 60, 100
12, 137995, Note_on_c, 4, 72, 0
12, 137999, Note_on_c, 4, 76, 0
12, 138002, Note_on_c, 4, 78, 0
12, 138005, Note_on_c, 4, 64, 0
12, 138012, Note_on_c, 4, 68, 100
12, 138028, Note_on_c, 4, 63, 100
12, 138032, Note_on_c, 4, 52, 100
12, 138035, Note_on_c, 4, 58, 100
12, 138036, Note_on_c, 4, 72, 0
12, 138041, Note_on_c, 4, 49, 100
12, 138042, Note_on_c, 4, 63, 0
12, 138044, Note_on_c, 4, 68, 0
12, 138050, Note_on_c, 4, 52, 0
12, 138052, Note_on_c, 4, 82, 0
12, 138064, Note_on_c, 4, 53, 100
12, 138068, Note_on_c, 4, 46, 100
12, 138073, Note_on_c, 4, 50, 100
12, 138075, Note_on_c, 4, 60, 0
12, 138082, Note_on_c, 4, 53, 0
12, 138085, Note_on_c, 4, 43, 100
12, 138091, Note_on_c, 4, 47, 100
12, 138093, Note_on_c, 4, 58, 0
12, 138095, Note_on_c, 4, 49, 0
12, 138098, Note_on_c, 4, 39, 100
12, 138102, Note_on_c, 4, 46, 0
12, 138109, Note_on_c, 4, 50, 0
12, 138111, Note_on_c, 4, 43, 0
12, 138119, Note_on_c, 4, 36, 100
12, 138121, Note_on_c, 4, 39, 100
12, 138133, Note_on_c, 4, 33, 100
12, 138139, Note_on_c, 4, 36, 100
12, 138140, Note_on_c, 4, 39, 0
12, 138143, Note_on_c, 4, 29, 100
12, 138147, Note_on_c, 4, 36, 0
12, 138151, Note_on_c, 4, 47, 0
12, 138153, Note_on_c, 4, 33, 0
12, 138157, Note_on_c, 4, 39, 0
12, 138162, Note_on_c, 4, 32, 100
12, 138171, Note_on_c, 4, 26, 100
12, 138176, Note_on_c, 4, 29, 100
12, 138182, Note_on_c, 4, 23, 100
12, 138185, Note_on_c, 4, 36, 0
12, 138190, Note_on_c, 4, 32, 0
12, 138193, Note_on_c, 4, 26, 0
12, 138198, Note_on_c, 4, 26, 100
12, 138199, Note_on_c, 4, 29, 0
12, 138205, Note_on_c, 4, 20, 100
12, 138209, Note_on_c, 4, 25, 100
12, 138217, Note_on_c, 4, 20, 0
12, 138220, Note_on_c, 4, 29, 0
12, 138220, Note_on_c, 4, 26, 0
12, 138224, Note_on_c, 4, 23, 100
12, 138228, Note_on_c, 4, 23, 0
12, 138239, Note_on_c, 4, 25, 0
12, 138240, Note_on_c, 4, 82, 100
12, 138251, Note_on_c, 4, 23, 0
12, 138251, Note_on_c, 4, 19, 100
12, 138273, Note_on_c, 4, 19, 0
12, 138275, Note_on_c, 4, 18, 100
12, 138313, Note_on_c, 4, 18, 0
12, 139200, Note_on_c, 4, 82, 0
12, 139200, Note_on_c, 4, 81, 100
12, 139920, Note_on_c, 4, 81, 0
12, 139920, Note_on_c, 4, 80, 100
12, 140400, Note_on_c, 4, 80, 0
12, 140400, Note_on_c, 4, 79, 100
12, 140880, Note_on_c, 4, 79, 0
12, 140880, Note_on_c, 4, 78, 100
12, 141318, Note_on_c, 4, 48, 127
12, 141360, Note_on_c, 4, 78, 0
12, 141429, Note_on_c, 4, 49, 127
12, 141448, Note_on_c, 4, 49, 0
12, 141448, Note_on_c, 4, 52, 127
12, 141454, Note_on_c, 4, 48, 0
12, 141454, Note_on_c, 4, 49, 127
12, 141470, Note_on_c, 4, 52, 0
12, 141470, Note_on_c, 4, 55, 127
12, 141477, Note_on_c, 4, 55, 0
12, 141477, Note_on_c, 4, 56, 127
12, 141488, Note_on_c, 4, 49, 0
12, 141488, Note_on_c, 4, 58, 127
12, 141505, Note_on_c, 4, 58, 0
12, 141505, Note_on_c, 4, 61, 127
12, 141516, Note_on_c, 4, 56, 0
12, 141516, Note_on_c, 4, 58, 127
12, 141522, Note_on_c, 4, 61, 0
12, 141522, Note_on_c, 4, 64, 127
12, 141528, Note_on_c, 4, 58, 0
12, 141528, Note_on_c, 4, 60, 127
12, 141539, Note_on_c, 4, 64, 0
12, 141539, Note_on_c, 4, 67, 127
12, 141551, Note_on_c, 4, 60, 0
12, 141551, Note_on_c, 4, 63, 127
12, 141556, Note_on_c, 4, 67, 0
12, 141556, Note_on_c, 4, 70, 127
12, 141564, Note_on_c, 4, 63, 0
12, 141564, Note_on_c, 4, 66, 127
12, 141573, Note_on_c, 4, 70, 0
12, 141573, Note_on_c, 4, 73, 127
12, 141584, Note_on_c, 4, 66, 0
12, 141584, Note_on_c, 4, 67, 127
12, 141590, Note_on_c, 4, 73, 0
12, 141590, Note_on_c, 4, 74, 127
12, 141596, Note_on_c, 4, 67, 0
12, 141596, Note_on_c, 4, 68, 127
12, 141600, Note_on_c, 4, 75, 127
12, 141616, Note_on_c, 4, 79, 127
12, 141626, Note_on_c, 4, 82, 127
12, 141632, Note_on_c, 4, 75, 0
12, 141634, Note_on_c, 4, 82, 127
12, 141637, Note_on_c, 4, 68, 0
12, 141650, Note_on_c, 4, 83, 127
12, 141651, Note_on_c, 4, 70, 127
12, 141652, Note_on_c, 4, 79, 0
12, 141666, Note_on_c, 4, 82, 0
12, 141684, Note_on_c, 4, 85, 127
12, 141685, Note_on_c, 4, 70, 0
12, 141685, Note_on_c, 4, 71, 127
12, 141686, Note_on_c, 4, 83, 0
12, 141692, Note_on_c, 4, 87, 127
12, 141714, Note_on_c, 4, 85, 0
12, 141720, Note_on_c, 4, 71, 0
12, 141732, Note_on_c, 4, 87, 0
12, 141737, Note_on_c, 4, 74, 0
12, 141737, Note_on_c, 4, 73, 127
12, 141770, Note_on_c, 4, 73, 0
12, 141770, Note_on_c, 4, 71, 127
12, 141775, Note_on_c, 4, 81, 127
12, 141777, Note_on_c, 4, 82, 127
12, 141781, Note_on_c, 4, 71, 0
12, 141781, Note_on_c, 4, 68, 127
12, 141804, Note_on_c, 4, 68, 0
12, 141804, Note_on_c, 4, 65, 127
12, 141806, Note_on_c, 4, 71, 127
12, 141809, Note_on_c, 4, 82, 0
12, 141815, Note_on_c, 4, 65, 0
12, 141815, Note_on_c, 4, 64, 127
12, 141821, Note_on_c, 4, 81, 0
12, 141829, Note_on_c, 4, 71, 0
12, 141829, Note_on_c, 4, 70, 127
12, 141838, Note_on_c, 4, 64, 0
12, 141838, Note_on_c, 4, 63, 127
12, 141840, Note_on_c, 4, 70, 0
12, 141850, Note_on_c, 4, 63, 0
12, 141850, Note_on_c, 4, 60, 127
12, 141873, Note_on_c, 4, 60, 0
12, 141873, Note_on_c, 4, 56, 127
12, 141881, Note_on_c, 4, 56, 0
12, 141881, Note_on_c, 4, 52, 127
12, 141893, Note_on_c, 4, 65, 127
12, 141896, Note_on_c, 4, 52, 0
12, 141896, Note_on_c, 4, 48, 127
12, 141902, Note_on_c, 4, 65, 0
12, 141902, Note_on_c, 4, 64, 127
12, 141913, Note_on_c, 4, 48, 0
12, 141914, Note_on_c, 4, 44, 127
12, 141924, Note_on_c, 4, 64, 0
12, 141924, Note_on_c, 4, 82, 0
12, 141941, Note_on_c, 4, 44, 0
12, 141941, Note_on_c, 4, 41, 127
12, 141951, Note_on_c, 4, 41, 0
12, 141951, Note_on_c, 4, 38, 127
12, 141974, Note_on_c, 4, 38, 0
12, 141974, Note_on_c, 4, 35, 127
12, 141986, Note_on_c, 4, 35, 0
12, 141986, Note_on_c, 4, 32, 127
12, 142009, Note_on_c, 4, 32, 0
12, 142009, Note_on_c, 4, 28, 127
12, 142016, Note_on_c, 4, 28, 0
12, 142016, Note_on_c, 4, 27, 127
12, 142050, Note_on_c, 4, 27, 0
12, 142051, Note_on_c, 4, 26, 127
12, 142087, Note_on_c, 4, 26, 0
12, 142090, Note_on_c, 4, 30, 127
12, 142124, Note_on_c, 4, 30, 0
12, 142124, Note_on_c, 4, 28, 127
12, 142153, Note_on_c, 4, 28, 0
12, 142153, Note_on_c, 4, 24, 127
12, 142252, Note_on_c, 4, 24, 0
12, 161280, Control_c, 4, 7, 10
12, 161280, Note_on_c, 4, 73, 100
12, 161318, Control_c, 4, 7, 11
12, 161352, Control_c, 4, 7, 12
12, 161385, Control_c, 4, 7, 13
12, 161419, Control_c, 4, 7, 14
12, 161452, Control_c, 4, 7, 15
12, 161486, Control_c, 4, 7, 16
12, 161520, Control_c, 4, 7, 17
12, 161553, Control_c, 4, 7, 18
12, 161587, Control_c, 4, 7, 19
12, 161620, Control_c, 4, 7, 20
12, 161654, Control_c, 4, 7, 21
12, 161688, Control_c, 4, 7, 22
12, 161721, Control_c, 4, 7, 23
12, 161760, Control_c, 4, 7, 24
12, 161793, Control_c, 4, 7, 25
12, 161827, Control_c, 4, 7, 26
12, 161860, Control_c, 4, 7, 27
12, 161894, Control_c, 4, 7, 28
12, 161928, Control_c, 4, 7, 29
12, 161961, Control_c, 4, 7, 30
12, 161995, Control_c, 4, 7, 31
12, 162028, Control_c, 4, 7, 32
12, 162062, Control_c, 4, 7, 33
12, 162096, Control_c, 4, 7, 34
12, 162129, Control_c, 4, 7, 35
12, 162163, Control_c, 4, 7, 36
12, 162201, Control_c, 4, 7, 37
12, 162235, Control_c, 4, 7, 38
12, 162268, Control_c, 4, 7, 39
12, 162302, Control_c, 4, 7, 40
12, 162336, Control_c, 4, 7, 41
12, 162369, Control_c, 4, 7, 42
12, 162403, Control_c, 4, 7, 43
12, 162436, Control_c, 4, 7, 44
12, 162470, Control_c, 4, 7, 45
12, 162504, Control_c, 4, 7, 46
12, 162537, Control_c, 4, 7, 47
12, 162571, Control_c, 4, 7, 48
12, 162604, Control_c, 4, 7, 49
12, 162638, Control_c, 4, 7, 50
12, 162676, Control_c, 4, 7, 51
12, 162710, Control_c, 4, 7, 52
12, 162744, Control_c, 4, 7, 53
12, 162777, Control_c, 4, 7, 54
12, 162811, Control_c, 4, 7, 55
12, 162844, Control_c, 4, 7, 56
12, 162878, Control_c, 4, 7, 57
12, 162912, Control_c, 4, 7, 58
12, 162945, Control_c, 4, 7, 59
12, 162960, Note_on_c, 4, 73, 0
12, 162960, Note_on_c, 4, 74, 100
12, 162979, Control_c, 4, 7, 60
12, 163012, Control_c, 4, 7, 61
12, 163046, Control_c, 4, 7, 62
12, 163080, Control_c, 4, 7, 63
12, 163118, Control_c, 4, 7, 64
12, 163152, Control_c, 4, 7, 65
12, 163185, Control_c, 4, 7, 66
12, 163219, Control_c, 4, 7, 67
12, 163252, Control_c, 4, 7, 68
12, 163286, Control_c, 4, 7, 69
12, 163320, Control_c, 4, 7, 70
12, 163353, Control_c, 4, 7, 71
12, 163387, Control_c, 4, 7, 72
12, 163420, Control_c, 4, 7, 73
12, 163454, Control_c, 4, 7, 74
12, 163488, Control_c, 4, 7, 75
12, 163521, Control_c, 4, 7, 76
12, 163560, Control_c, 4, 7, 77
12, 163593, Control_c, 4, 7, 78
12, 163627, Control_c, 4, 7, 79
12, 163660, Control_c, 4, 7, 80
12, 163694, Control_c, 4, 7, 81
12, 163728, Control_c, 4, 7, 82
12, 163761, Control_c, 4, 7, 83
12, 163795, Control_c, 4, 7, 84
12, 163828, Control_c, 4, 7, 85
12, 163862, Control_c, 4, 7, 86
12, 163896, Control_c, 4, 7, 87
12, 163929, Control_c, 4, 7, 88
12, 163963, Control_c, 4, 7, 89
12, 163996, Control_c, 4, 7, 90
12, 165120, Note_on_c, 4, 74, 0
12, 165120, Note_on_c, 4, 73, 100
12, 166320, Note_on_c, 4, 73, 0
12, 166320, Note_on_c, 4, 76, 100
12, 166800, Note_on_c, 4, 76, 0
12, 166800, Note_on_c, 4, 74, 100
12, 168960, Note_on_c, 4, 74, 0
12, 168960, Note_on_c, 4, 73, 100
12, 170160, Note_on_c, 4, 73, 0
12, 170160, Note_on_c, 4, 76, 100
12, 170640, Note_on_c, 4, 76, 0
12, 170640, Note_on_c, 4, 74, 100
12, 172800, Note_on_c, 4, 74, 0
12, 172800, Note_on_c, 4, 73, 100
12, 174000, Note_on_c, 4, 73, 0
12, 174000, Note_on_c, 4, 76, 100
12, 174480, Note_on_c, 4, 76, 0
12, 174480, Note_on_c, 4, 74, 100
12, 176640, Note_on_c, 4, 74, 0
12, 176640, Note_on_c, 4, 73, 100
12, 177840, Note_on_c, 4, 73, 0
12, 177840, Note_on_c, 4, 76, 100
12, 178320, Note_on_c, 4, 76, 0
12, 178320, Note_on_c, 4, 74, 100
12, 180480, Note_on_c, 4, 74, 0
12, 180480, Note_on_c, 4, 73, 100
12, 181680, Note_on_c, 4, 73, 0
12, 181680, Note_on_c, 4, 76, 100
12, 182160, Note_on_c, 4, 76, 0
12, 182160, Note_on_c, 4, 74, 100
12, 184320, Note_on_c, 4, 74, 0
12, 184320, Note_on_c, 4, 73, 100
12, 184800, Note_on_c, 4, 73, 0
12, 184800, End_track
13, 0, Start_track
13, 0, MIDI_port, 0
13, 0, Title_t, "Organ 3 - Damon Albarn"
13, 0, Program_c, 5, 81
13, 0, Control_c, 5, 7, 80
13, 0, Control_c, 5, 10, 32
13, 34560, Note_on_c, 5, 81, 100
13, 38160, Note_on_c, 5, 81, 0
13, 38160, Note_on_c, 5, 83, 100
13, 41760, Note_on_c, 5, 83, 0
13, 41760, Note_on_c, 5, 81, 100
13, 42240, Note_on_c, 5, 81, 0
13, 42240, Note_on_c, 5, 81, 100
13, 45120, Note_on_c, 5, 81, 0
13, 45120, Note_on_c, 5, 80, 100
13, 45600, Note_on_c, 5, 80, 0
13, 45600, Note_on_c, 5, 79, 100
13, 46080, Note_on_c, 5, 79, 0
13, 46080, Note_on_c, 5, 78, 100
13, 49920, Note_on_c, 5, 78, 0
13, 76800, Note_on_c, 5, 81, 100
13, 80400, Note_on_c, 5, 81, 0
13, 80400, Note_on_c, 5, 83, 100
13, 84000, Note_on_c, 5, 83, 0
13, 84000, Note_on_c, 5, 81, 100
13, 84480, Note_on_c, 5, 81, 0
13, 84480, Note_on_c, 5, 81, 100
13, 87360, Note_on_c, 5, 81, 0
13, 87360, Note_on_c, 5, 80, 100
13, 87840, Note_on_c, 5, 80, 0
13, 87840, Note_on_c, 5, 79, 100
13, 88320, Note_on_c, 5, 79, 0
13, 88320, Note_on_c, 5, 78, 100
13, 92160, Note_on_c, 5, 78, 0
13, 111360, Note_on_c, 5, 81, 100
13, 114960, Note_on_c, 5, 81, 0
13, 114960, Note_on_c, 5, 83, 100
13, 118560, Note_on_c, 5, 83, 0
13, 118560, Note_on_c, 5, 81, 100
13, 119040, Note_on_c, 5, 81, 0
13, 119040, Note_on_c, 5, 81, 100
13, 121920, Note_on_c, 5, 81, 0
13, 121920, Note_on_c, 5, 80, 100
13, 122400, Note_on_c, 5, 80, 0
13, 122400, Note_on_c, 5, 79, 100
13, 122880, Note_on_c, 5, 79, 0
13, 122880, Note_on_c, 5, 78, 100
13, 126720, Note_on_c, 5, 78, 0
13, 126720, End_track
14, 0, Start_track
14, 0, MIDI_port, 0
14, 0, Title_t, "Organ 4 - Damon Albarn"
14, 0, Program_c, 13, 18
14, 0, Control_c, 13, 7, 100
14, 96480, Note_on_c, 13, 76, 100
14, 96480, Note_on_c, 13, 79, 100
14, 96840, Note_on_c, 13, 79, 0
14, 96840, Note_on_c, 13, 76, 0
14, 96840, Note_on_c, 13, 76, 100
14, 96840, Note_on_c, 13, 79, 100
14, 96960, Note_on_c, 13, 79, 0
14, 96960, Note_on_c, 13, 76, 0
14, 96960, Note_on_c, 13, 76, 100
14, 96960, Note_on_c, 13, 79, 100
14, 97080, Note_on_c, 13, 79, 0
14, 97080, Note_on_c, 13, 76, 0
14, 97200, Note_on_c, 13, 76, 100
14, 97200, Note_on_c, 13, 79, 100
14, 97680, Note_on_c, 13, 79, 0
14, 97680, Note_on_c, 13, 76, 0
14, 97680, Note_on_c, 13, 78, 100
14, 98400, Note_on_c, 13, 78, 0
14, 98400, Note_on_c, 13, 76, 100
14, 98400, Note_on_c, 13, 79, 100
14, 98760, Note_on_c, 13, 79, 0
14, 98760, Note_on_c, 13, 76, 0
14, 98760, Note_on_c, 13, 78, 100
14, 98880, Note_on_c, 13, 78, 0
14, 98880, Note_on_c, 13, 76, 100
14, 98880, Note_on_c, 13, 79, 100
14, 99000, Note_on_c, 13, 79, 0
14, 99000, Note_on_c, 13, 76, 0
14, 99120, Note_on_c, 13, 74, 100
14, 99120, Note_on_c, 13, 78, 100
14, 99840, Note_on_c, 13, 78, 0
14, 99840, Note_on_c, 13, 74, 0
14, 100320, Note_on_c, 13, 76, 100
14, 100320, Note_on_c, 13, 79, 100
14, 100680, Note_on_c, 13, 79, 0
14, 100680, Note_on_c, 13, 76, 0
14, 100680, Note_on_c, 13, 76, 100
14, 100680, Note_on_c, 13, 79, 100
14, 100800, Note_on_c, 13, 79, 0
14, 100800, Note_on_c, 13, 76, 0
14, 100800, Note_on_c, 13, 76, 100
14, 100800, Note_on_c, 13, 79, 100
14, 100920, Note_on_c, 13, 79, 0
14, 100920, Note_on_c, 13, 76, 0
14, 101040, Note_on_c, 13, 76, 100
14, 101040, Note_on_c, 13, 79, 100
14, 101520, Note_on_c, 13, 79, 0
14, 101520, Note_on_c, 13, 76, 0
14, 101520, Note_on_c, 13, 78, 100
14, 102240, Note_on_c, 13, 78, 0
14, 102240, Note_on_c, 13, 76, 100
14, 102240, Note_on_c, 13, 79, 100
14, 102600, Note_on_c, 13, 79, 0
14, 102600, Note_on_c, 13, 76, 0
14, 102600, Note_on_c, 13, 78, 100
14, 102720, Note_on_c, 13, 78, 0
14, 102720, Note_on_c, 13, 79, 100
14, 102840, Note_on_c, 13, 79, 0
14, 102960, Note_on_c, 13, 74, 100
14, 102960, Note_on_c, 13, 78, 100
14, 103680, Note_on_c, 13, 78, 0
14, 103680, Note_on_c, 13, 74, 0
14, 104160, Note_on_c, 13, 76, 100
14, 104160, Note_on_c, 13, 79, 100
14, 104520, Note_on_c, 13, 79, 0
14, 104520, Note_on_c, 13, 76, 0
14, 104520, Note_on_c, 13, 76, 100
14, 104520, Note_on_c, 13, 79, 100
14, 104640, Note_on_c, 13, 79, 0
14, 104640, Note_on_c, 13, 76, 0
14, 104640, Note_on_c, 13, 76, 100
14, 104640, Note_on_c, 13, 79, 100
14, 104760, Note_on_c, 13, 79, 0
14, 104760, Note_on_c, 13, 76, 0
14, 104880, Note_on_c, 13, 76, 100
14, 104880, Note_on_c, 13, 79, 100
14, 105360, Note_on_c, 13, 79, 0
14, 105360, Note_on_c, 13, 76, 0
14, 105360, Note_on_c, 13, 78, 100
14, 106080, Note_on_c, 13, 78, 0
14, 106080, Note_on_c, 13, 76, 100
14, 106080, Note_on_c, 13, 79, 100
14, 106440, Note_on_c, 13, 79, 0
14, 106440, Note_on_c, 13, 76, 0
14, 106440, Note_on_c, 13, 78, 100
14, 106560, Note_on_c, 13, 78, 0
14, 106560, Note_on_c, 13, 76, 100
14, 106560, Note_on_c, 13, 79, 100
14, 106680, Note_on_c, 13, 79, 0
14, 106680, Note_on_c, 13, 76, 0
14, 106800, Note_on_c, 13, 74, 100
14, 106800, Note_on_c, 13, 78, 100
14, 107520, Note_on_c, 13, 78, 0
14, 107520, Note_on_c, 13, 74, 0
14, 108000, Note_on_c, 13, 76, 100
14, 108000, Note_on_c, 13, 79, 100
14, 108360, Note_on_c, 13, 79, 0
14, 108360, Note_on_c, 13, 76, 0
14, 108360, Note_on_c, 13, 76, 100
14, 108360, Note_on_c, 13, 79, 100
14, 108480, Note_on_c, 13, 79, 0
14, 108480, Note_on_c, 13, 76, 0
14, 108480, Note_on_c, 13, 76, 100
14, 108480, Note_on_c, 13, 79, 100
14, 108600, Note_on_c, 13, 79, 0
14, 108600, Note_on_c, 13, 76, 0
14, 108720, Note_on_c, 13, 76, 100
14, 108720, Note_on_c, 13, 79, 100
14, 109200, Note_on_c, 13, 79, 0
14, 109200, Note_on_c, 13, 76, 0
14, 109200, Note_on_c, 13, 78, 100
14, 109920, Note_on_c, 13, 78, 0
14, 109920, Note_on_c, 13, 76, 100
14, 109920, Note_on_c, 13, 79, 100
14, 110280, Note_on_c, 13, 79, 0
14, 110280, Note_on_c, 13, 76, 0
14, 110280, Note_on_c, 13, 78, 100
14, 110400, Note_on_c, 13, 78, 0
14, 110400, Note_on_c, 13, 79, 100
14, 110520, Note_on_c, 13, 79, 0
14, 110640, Note_on_c, 13, 74, 100
14, 110640, Note_on_c, 13, 78, 100
14, 111360, Note_on_c, 13, 78, 0
14, 111360, Note_on_c, 13, 74, 0
14, 111360, End_track
15, 0, Start_track
15, 0, MIDI_port, 0
15, 0, Title_t, "Timpani"
15, 0, Program_c, 10, 47
15, 0, Control_c, 10, 7, 80
15, 0, Control_c, 10, 10, 0
15, 4560, Note_on_c, 10, 54, 100
15, 4680, Note_on_c, 10, 54, 0
15, 4680, Note_on_c, 10, 54, 100
15, 4800, Note_on_c, 10, 54, 0
15, 4800, Note_on_c, 10, 54, 100
15, 4920, Note_on_c, 10, 54, 0
15, 4920, Note_on_c, 10, 54, 100
15, 5040, Note_on_c, 10, 54, 0
15, 5040, Note_on_c, 10, 54, 100
15, 5160, Note_on_c, 10, 54, 0
15, 6480, Note_on_c, 10, 54, 100
15, 6600, Note_on_c, 10, 54, 0
15, 6600, Note_on_c, 10, 54, 100
15, 6720, Note_on_c, 10, 54, 0
15, 6720, Note_on_c, 10, 54, 100
15, 6840, Note_on_c, 10, 54, 0
15, 6840, Note_on_c, 10, 54, 100
15, 6960, Note_on_c, 10, 54, 0
15, 6960, Note_on_c, 10, 54, 100
15, 7080, Note_on_c, 10, 54, 0
15, 8400, Note_on_c, 10, 54, 100
15, 8520, Note_on_c, 10, 54, 0
15, 8520, Note_on_c, 10, 54, 100
15, 8640, Note_on_c, 10, 54, 0
15, 8640, Note_on_c, 10, 54, 100
15, 8760, Note_on_c, 10, 54, 0
15, 8760, Note_on_c, 10, 54, 100
15, 8880, Note_on_c, 10, 54, 0
15, 8880, Note_on_c, 10, 54, 100
15, 9000, Note_on_c, 10, 54, 0
15, 10320, Note_on_c, 10, 54, 100
15, 10440, Note_on_c, 10, 54, 0
15, 10440, Note_on_c, 10, 54, 100
15, 10560, Note_on_c, 10, 54, 0
15, 10560, Note_on_c, 10, 54, 100
15, 10680, Note_on_c, 10, 54, 0
15, 10680, Note_on_c, 10, 54, 100
15, 10800, Note_on_c, 10, 54, 0
15, 10800, Note_on_c, 10, 54, 100
15, 10920, Note_on_c, 10, 54, 0
15, 12240, Note_on_c, 10, 54, 100
15, 12360, Note_on_c, 10, 54, 0
15, 12360, Note_on_c, 10, 54, 100
15, 12480, Note_on_c, 10, 54, 0
15, 12480, Note_on_c, 10, 54, 100
15, 12600, Note_on_c, 10, 54, 0
15, 12600, Note_on_c, 10, 54, 100
15, 12720, Note_on_c, 10, 54, 0
15, 12720, Note_on_c, 10, 54, 100
15, 12840, Note_on_c, 10, 54, 0
15, 14160, Note_on_c, 10, 54, 100
15, 14280, Note_on_c, 10, 54, 0
15, 14280, Note_on_c, 10, 54, 100
15, 14400, Note_on_c, 10, 54, 0
15, 14400, Note_on_c, 10, 54, 100
15, 14520, Note_on_c, 10, 54, 0
15, 14520, Note_on_c, 10, 54, 100
15, 14640, Note_on_c, 10, 54, 0
15, 14640, Note_on_c, 10, 54, 100
15, 14760, Note_on_c, 10, 54, 0
15, 16080, Note_on_c, 10, 54, 100
15, 16200, Note_on_c, 10, 54, 0
15, 16200, Note_on_c, 10, 54, 100
15, 16320, Note_on_c, 10, 54, 0
15, 16320, Note_on_c, 10, 54, 100
15, 16440, Note_on_c, 10, 54, 0
15, 16440, Note_on_c, 10, 54, 100
15, 16560, Note_on_c, 10, 54, 0
15, 16560, Note_on_c, 10, 54, 100
15, 16680, Note_on_c, 10, 54, 0
15, 18000, Note_on_c, 10, 54, 100
15, 18120, Note_on_c, 10, 54, 0
15, 18120, Note_on_c, 10, 54, 100
15, 18240, Note_on_c, 10, 54, 0
15, 18240, Note_on_c, 10, 54, 100
15, 18360, Note_on_c, 10, 54, 0
15, 18360, Note_on_c, 10, 54, 100
15, 18480, Note_on_c, 10, 54, 0
15, 18480, Note_on_c, 10, 54, 100
15, 18600, Note_on_c, 10, 54, 0
15, 19920, Note_on_c, 10, 54, 100
15, 20040, Note_on_c, 10, 54, 0
15, 20040, Note_on_c, 10, 54, 100
15, 20160, Note_on_c, 10, 54, 0
15, 20160, Note_on_c, 10, 54, 100
15, 20280, Note_on_c, 10, 54, 0
15, 20280, Note_on_c, 10, 54, 100
15, 20400, Note_on_c, 10, 54, 0
15, 20400, Note_on_c, 10, 54, 100
15, 20520, Note_on_c, 10, 54, 0
15, 21840, Note_on_c, 10, 54, 100
15, 21960, Note_on_c, 10, 54, 0
15, 21960, Note_on_c, 10, 54, 100
15, 22080, Note_on_c, 10, 54, 0
15, 22080, Note_on_c, 10, 54, 100
15, 22200, Note_on_c, 10, 54, 0
15, 22200, Note_on_c, 10, 54, 100
15, 22320, Note_on_c, 10, 54, 0
15, 22320, Note_on_c, 10, 54, 100
15, 22440, Note_on_c, 10, 54, 0
15, 23760, Note_on_c, 10, 54, 100
15, 23880, Note_on_c, 10, 54, 0
15, 23880, Note_on_c, 10, 54, 100
15, 24000, Note_on_c, 10, 54, 0
15, 24000, Note_on_c, 10, 54, 100
15, 24120, Note_on_c, 10, 54, 0
15, 24120, Note_on_c, 10, 54, 100
15, 24240, Note_on_c, 10, 54, 0
15, 24240, Note_on_c, 10, 54, 100
15, 24360, Note_on_c, 10, 54, 0
15, 25680, Note_on_c, 10, 54, 100
15, 25800, Note_on_c, 10, 54, 0
15, 25800, Note_on_c, 10, 54, 100
15, 25920, Note_on_c, 10, 54, 0
15, 25920, Note_on_c, 10, 54, 100
15, 26040, Note_on_c, 10, 54, 0
15, 26040, Note_on_c, 10, 54, 100
15, 26160, Note_on_c, 10, 54, 0
15, 26160, Note_on_c, 10, 54, 100
15, 26280, Note_on_c, 10, 54, 0
15, 27600, Note_on_c, 10, 54, 100
15, 27720, Note_on_c, 10, 54, 0
15, 27720, Note_on_c, 10, 54, 100
15, 27840, Note_on_c, 10, 54, 0
15, 27840, Note_on_c, 10, 54, 100
15, 27960, Note_on_c, 10, 54, 0
15, 27960, Note_on_c, 10, 54, 100
15, 28080, Note_on_c, 10, 54, 0
15, 28080, Note_on_c, 10, 54, 100
15, 28200, Note_on_c, 10, 54, 0
15, 29520, Note_on_c, 10, 54, 100
15, 29640, Note_on_c, 10, 54, 0
15, 29640, Note_on_c, 10, 54, 100
15, 29760, Note_on_c, 10, 54, 0
15, 29760, Note_on_c, 10, 54, 100
15, 29880, Note_on_c, 10, 54, 0
15, 29880, Note_on_c, 10, 54, 100
15, 30000, Note_on_c, 10, 54, 0
15, 30000, Note_on_c, 10, 54, 100
15, 30120, Note_on_c, 10, 54, 0
15, 31440, Note_on_c, 10, 54, 100
15, 31560, Note_on_c, 10, 54, 0
15, 31560, Note_on_c, 10, 54, 100
15, 31680, Note_on_c, 10, 54, 0
15, 31680, Note_on_c, 10, 54, 100
15, 31800, Note_on_c, 10, 54, 0
15, 31800, Note_on_c, 10, 54, 100
15, 31920, Note_on_c, 10, 54, 0
15, 31920, Note_on_c, 10, 54, 100
15, 32040, Note_on_c, 10, 54, 0
15, 33360, Note_on_c, 10, 54, 100
15, 33480, Note_on_c, 10, 54, 0
15, 33480, Note_on_c, 10, 54, 100
15, 33600, Note_on_c, 10, 54, 0
15, 33600, Note_on_c, 10, 54, 100
15, 33720, Note_on_c, 10, 54, 0
15, 33720, Note_on_c, 10, 54, 100
15, 33840, Note_on_c, 10, 54, 0
15, 33840, Note_on_c, 10, 54, 100
15, 33960, Note_on_c, 10, 54, 0
15, 39120, Note_on_c, 10, 54, 100
15, 39240, Note_on_c, 10, 54, 0
15, 39240, Note_on_c, 10, 54, 100
15, 39360, Note_on_c, 10, 54, 0
15, 39360, Note_on_c, 10, 54, 100
15, 39480, Note_on_c, 10, 54, 0
15, 39480, Note_on_c, 10, 54, 100
15, 39600, Note_on_c, 10, 54, 0
15, 39600, Note_on_c, 10, 54, 100
15, 39720, Note_on_c, 10, 54, 0
15, 41040, Note_on_c, 10, 54, 100
15, 41160, Note_on_c, 10, 54, 0
15, 41160, Note_on_c, 10, 54, 100
15, 41280, Note_on_c, 10, 54, 0
15, 41280, Note_on_c, 10, 54, 100
15, 41400, Note_on_c, 10, 54, 0
15, 41400, Note_on_c, 10, 54, 100
15, 41520, Note_on_c, 10, 54, 0
15, 41520, Note_on_c, 10, 54, 100
15, 41640, Note_on_c, 10, 54, 0
15, 42960, Note_on_c, 10, 54, 100
15, 43080, Note_on_c, 10, 54, 0
15, 43080, Note_on_c, 10, 54, 100
15, 43200, Note_on_c, 10, 54, 0
15, 43200, Note_on_c, 10, 54, 100
15, 43320, Note_on_c, 10, 54, 0
15, 43320, Note_on_c, 10, 54, 100
15, 43440, Note_on_c, 10, 54, 0
15, 43440, Note_on_c, 10, 54, 100
15, 43560, Note_on_c, 10, 54, 0
15, 44880, Note_on_c, 10, 54, 100
15, 45000, Note_on_c, 10, 54, 0
15, 45000, Note_on_c, 10, 54, 100
15, 45120, Note_on_c, 10, 54, 0
15, 45120, Note_on_c, 10, 54, 100
15, 45240, Note_on_c, 10, 54, 0
15, 45240, Note_on_c, 10, 54, 100
15, 45360, Note_on_c, 10, 54, 0
15, 45360, Note_on_c, 10, 54, 100
15, 45480, Note_on_c, 10, 54, 0
15, 46800, Note_on_c, 10, 54, 100
15, 46920, Note_on_c, 10, 54, 0
15, 46920, Note_on_c, 10, 54, 100
15, 47040, Note_on_c, 10, 54, 0
15, 47040, Note_on_c, 10, 54, 100
15, 47160, Note_on_c, 10, 54, 0
15, 47160, Note_on_c, 10, 54, 100
15, 47280, Note_on_c, 10, 54, 0
15, 47280, Note_on_c, 10, 54, 100
15, 47400, Note_on_c, 10, 54, 0
15, 48720, Note_on_c, 10, 54, 100
15, 48840, Note_on_c, 10, 54, 0
15, 48840, Note_on_c, 10, 54, 100
15, 48960, Note_on_c, 10, 54, 0
15, 48960, Note_on_c, 10, 54, 100
15, 49080, Note_on_c, 10, 54, 0
15, 49080, Note_on_c, 10, 54, 100
15, 49200, Note_on_c, 10, 54, 0
15, 49200, Note_on_c, 10, 54, 100
15, 49320, Note_on_c, 10, 54, 0
15, 81360, Note_on_c, 10, 54, 100
15, 81480, Note_on_c, 10, 54, 0
15, 81480, Note_on_c, 10, 54, 100
15, 81600, Note_on_c, 10, 54, 0
15, 81600, Note_on_c, 10, 54, 100
15, 81720, Note_on_c, 10, 54, 0
15, 81720, Note_on_c, 10, 54, 100
15, 81840, Note_on_c, 10, 54, 0
15, 81840, Note_on_c, 10, 54, 100
15, 81960, Note_on_c, 10, 54, 0
15, 83280, Note_on_c, 10, 54, 100
15, 83400, Note_on_c, 10, 54, 0
15, 83400, Note_on_c, 10, 54, 100
15, 83520, Note_on_c, 10, 54, 0
15, 83520, Note_on_c, 10, 54, 100
15, 83640, Note_on_c, 10, 54, 0
15, 83640, Note_on_c, 10, 54, 100
15, 83760, Note_on_c, 10, 54, 0
15, 83760, Note_on_c, 10, 54, 100
15, 83880, Note_on_c, 10, 54, 0
15, 85200, Note_on_c, 10, 54, 100
15, 85320, Note_on_c, 10, 54, 0
15, 85320, Note_on_c, 10, 54, 100
15, 85440, Note_on_c, 10, 54, 0
15, 85440, Note_on_c, 10, 54, 100
15, 85560, Note_on_c, 10, 54, 0
15, 85560, Note_on_c, 10, 54, 100
15, 85680, Note_on_c, 10, 54, 0
15, 85680, Note_on_c, 10, 54, 100
15, 85800, Note_on_c, 10, 54, 0
15, 87120, Note_on_c, 10, 54, 100
15, 87240, Note_on_c, 10, 54, 0
15, 87240, Note_on_c, 10, 54, 100
15, 87360, Note_on_c, 10, 54, 0
15, 87360, Note_on_c, 10, 54, 100
15, 87480, Note_on_c, 10, 54, 0
15, 87480, Note_on_c, 10, 54, 100
15, 87600, Note_on_c, 10, 54, 0
15, 87600, Note_on_c, 10, 54, 100
15, 87720, Note_on_c, 10, 54, 0
15, 89040, Note_on_c, 10, 54, 100
15, 89160, Note_on_c, 10, 54, 0
15, 89160, Note_on_c, 10, 54, 100
15, 89280, Note_on_c, 10, 54, 0
15, 89280, Note_on_c, 10, 54, 100
15, 89400, Note_on_c, 10, 54, 0
15, 89400, Note_on_c, 10, 54, 100
15, 89520, Note_on_c, 10, 54, 0
15, 89520, Note_on_c, 10, 54, 100
15, 89640, Note_on_c, 10, 54, 0
15, 90960, Note_on_c, 10, 54, 100
15, 91080, Note_on_c, 10, 54, 0
15, 91080, Note_on_c, 10, 54, 100
15, 91200, Note_on_c, 10, 54, 0
15, 91200, Note_on_c, 10, 54, 100
15, 91320, Note_on_c, 10, 54, 0
15, 91320, Note_on_c, 10, 54, 100
15, 91440, Note_on_c, 10, 54, 0
15, 91440, Note_on_c, 10, 54, 100
15, 91560, Note_on_c, 10, 54, 0
15, 96720, Note_on_c, 10, 54, 100
15, 96840, Note_on_c, 10, 54, 0
15, 96840, Note_on_c, 10, 54, 100
15, 96960, Note_on_c, 10, 54, 0
15, 96960, Note_on_c, 10, 54, 100
15, 97080, Note_on_c, 10, 54, 0
15, 97080, Note_on_c, 10, 54, 100
15, 97200, Note_on_c, 10, 54, 0
15, 97200, Note_on_c, 10, 54, 100
15, 97320, Note_on_c, 10, 54, 0
15, 98640, Note_on_c, 10, 54, 100
15, 98760, Note_on_c, 10, 54, 0
15, 98760, Note_on_c, 10, 54, 100
15, 98880, Note_on_c, 10, 54, 0
15, 98880, Note_on_c, 10, 54, 100
15, 99000, Note_on_c, 10, 54, 0
15, 99000, Note_on_c, 10, 54, 100
15, 99120, Note_on_c, 10, 54, 0
15, 99120, Note_on_c, 10, 54, 100
15, 99240, Note_on_c, 10, 54, 0
15, 100560, Note_on_c, 10, 54, 100
15, 100680, Note_on_c, 10, 54, 0
15, 100680, Note_on_c, 10, 54, 100
15, 100800, Note_on_c, 10, 54, 0
15, 100800, Note_on_c, 10, 54, 100
15, 100920, Note_on_c, 10, 54, 0
15, 100920, Note_on_c, 10, 54, 100
15, 101040, Note_on_c, 10, 54, 0
15, 101040, Note_on_c, 10, 54, 100
15, 101160, Note_on_c, 10, 54, 0
15, 102480, Note_on_c, 10, 54, 100
15, 102600, Note_on_c, 10, 54, 0
15, 102600, Note_on_c, 10, 54, 100
15, 102720, Note_on_c, 10, 54, 0
15, 102720, Note_on_c, 10, 54, 100
15, 102840, Note_on_c, 10, 54, 0
15, 102840, Note_on_c, 10, 54, 100
15, 102960, Note_on_c, 10, 54, 0
15, 102960, Note_on_c, 10, 54, 100
15, 103080, Note_on_c, 10, 54, 0
15, 104400, Note_on_c, 10, 54, 100
15, 104520, Note_on_c, 10, 54, 0
15, 104520, Note_on_c, 10, 54, 100
15, 104640, Note_on_c, 10, 54, 0
15, 104640, Note_on_c, 10, 54, 100
15, 104760, Note_on_c, 10, 54, 0
15, 104760, Note_on_c, 10, 54, 100
15, 104880, Note_on_c, 10, 54, 0
15, 104880, Note_on_c, 10, 54, 100
15, 105000, Note_on_c, 10, 54, 0
15, 106320, Note_on_c, 10, 54, 100
15, 106440, Note_on_c, 10, 54, 0
15, 106440, Note_on_c, 10, 54, 100
15, 106560, Note_on_c, 10, 54, 0
15, 106560, Note_on_c, 10, 54, 100
15, 106680, Note_on_c, 10, 54, 0
15, 106680, Note_on_c, 10, 54, 100
15, 106800, Note_on_c, 10, 54, 0
15, 106800, Note_on_c, 10, 54, 100
15, 106920, Note_on_c, 10, 54, 0
15, 108240, Note_on_c, 10, 54, 100
15, 108360, Note_on_c, 10, 54, 0
15, 108360, Note_on_c, 10, 54, 100
15, 108480, Note_on_c, 10, 54, 0
15, 108480, Note_on_c, 10, 54, 100
15, 108600, Note_on_c, 10, 54, 0
15, 108600, Note_on_c, 10, 54, 100
15, 108720, Note_on_c, 10, 54, 0
15, 108720, Note_on_c, 10, 54, 100
15, 108840, Note_on_c, 10, 54, 0
15, 110160, Note_on_c, 10, 54, 100
15, 110280, Note_on_c, 10, 54, 0
15, 110280, Note_on_c, 10, 54, 100
15, 110400, Note_on_c, 10, 54, 0
15, 110400, Note_on_c, 10, 54, 100
15, 110520, Note_on_c, 10, 54, 0
15, 110520, Note_on_c, 10, 54, 100
15, 110640, Note_on_c, 10, 54, 0
15, 110640, Note_on_c, 10, 54, 100
15, 110760, Note_on_c, 10, 54, 0
15, 115920, Note_on_c, 10, 54, 100
15, 116040, Note_on_c, 10, 54, 0
15, 116040, Note_on_c, 10, 54, 100
15, 116160, Note_on_c, 10, 54, 0
15, 116160, Note_on_c, 10, 54, 100
15, 116280, Note_on_c, 10, 54, 0
15, 116280, Note_on_c, 10, 54, 100
15, 116400, Note_on_c, 10, 54, 0
15, 116400, Note_on_c, 10, 54, 100
15, 116520, Note_on_c, 10, 54, 0
15, 117840, Note_on_c, 10, 54, 100
15, 117960, Note_on_c, 10, 54, 0
15, 117960, Note_on_c, 10, 54, 100
15, 118080, Note_on_c, 10, 54, 0
15, 118080, Note_on_c, 10, 54, 100
15, 118200, Note_on_c, 10, 54, 0
15, 118200, Note_on_c, 10, 54, 100
15, 118320, Note_on_c, 10, 54, 0
15, 118320, Note_on_c, 10, 54, 100
15, 118440, Note_on_c, 10, 54, 0
15, 119760, Note_on_c, 10, 54, 100
15, 119880, Note_on_c, 10, 54, 0
15, 119880, Note_on_c, 10, 54, 100
15, 120000, Note_on_c, 10, 54, 0
15, 120000, Note_on_c, 10, 54, 100
15, 120120, Note_on_c, 10, 54, 0
15, 120120, Note_on_c, 10, 54, 100
15, 120240, Note_on_c, 10, 54, 0
15, 120240, Note_on_c, 10, 54, 100
15, 120360, Note_on_c, 10, 54, 0
15, 121680, Note_on_c, 10, 54, 100
15, 121800, Note_on_c, 10, 54, 0
15, 121800, Note_on_c, 10, 54, 100
15, 121920, Note_on_c, 10, 54, 0
15, 121920, Note_on_c, 10, 54, 100
15, 122040, Note_on_c, 10, 54, 0
15, 122040, Note_on_c, 10, 54, 100
15, 122160, Note_on_c, 10, 54, 0
15, 122160, Note_on_c, 10, 54, 100
15, 122280, Note_on_c, 10, 54, 0
15, 123600, Note_on_c, 10, 54, 100
15, 123720, Note_on_c, 10, 54, 0
15, 123720, Note_on_c, 10, 54, 100
15, 123840, Note_on_c, 10, 54, 0
15, 123840, Note_on_c, 10, 54, 100
15, 123960, Note_on_c, 10, 54, 0
15, 123960, Note_on_c, 10, 54, 100
15, 124080, Note_on_c, 10, 54, 0
15, 124080, Note_on_c, 10, 54, 100
15, 124200, Note_on_c, 10, 54, 0
15, 125520, Note_on_c, 10, 54, 100
15, 125640, Note_on_c, 10, 54, 0
15, 125640, Note_on_c, 10, 54, 100
15, 125760, Note_on_c, 10, 54, 0
15, 125760, Note_on_c, 10, 54, 100
15, 125880, Note_on_c, 10, 54, 0
15, 125880, Note_on_c, 10, 54, 100
15, 126000, Note_on_c, 10, 54, 0
15, 126000, Note_on_c, 10, 54, 100
15, 126120, Note_on_c, 10, 54, 0
15, 127440, Note_on_c, 10, 54, 100
15, 127560, Note_on_c, 10, 54, 0
15, 127560, Note_on_c, 10, 54, 100
15, 127680, Note_on_c, 10, 54, 0
15, 127680, Note_on_c, 10, 54, 100
15, 127800, Note_on_c, 10, 54, 0
15, 127800, Note_on_c, 10, 54, 100
15, 127920, Note_on_c, 10, 54, 0
15, 127920, Note_on_c, 10, 54, 100
15, 128040, Note_on_c, 10, 54, 0
15, 129360, Note_on_c, 10, 54, 100
15, 129480, Note_on_c, 10, 54, 0
15, 129480, Note_on_c, 10, 54, 100
15, 129600, Note_on_c, 10, 54, 0
15, 129600, Note_on_c, 10, 54, 100
15, 129720, Note_on_c, 10, 54, 0
15, 129720, Note_on_c, 10, 54, 100
15, 129840, Note_on_c, 10, 54, 0
15, 129840, Note_on_c, 10, 54, 100
15, 129960, Note_on_c, 10, 54, 0
15, 131280, Note_on_c, 10, 54, 100
15, 131400, Note_on_c, 10, 54, 0
15, 131400, Note_on_c, 10, 54, 100
15, 131520, Note_on_c, 10, 54, 0
15, 131520, Note_on_c, 10, 54, 100
15, 131640, Note_on_c, 10, 54, 0
15, 131640, Note_on_c, 10, 54, 100
15, 131760, Note_on_c, 10, 54, 0
15, 131760, Note_on_c, 10, 54, 100
15, 131880, Note_on_c, 10, 54, 0
15, 133200, Note_on_c, 10, 54, 100
15, 133320, Note_on_c, 10, 54, 0
15, 133320, Note_on_c, 10, 54, 100
15, 133440, Note_on_c, 10, 54, 0
15, 133440, Note_on_c, 10, 54, 100
15, 133560, Note_on_c, 10, 54, 0
15, 133560, Note_on_c, 10, 54, 100
15, 133680, Note_on_c, 10, 54, 0
15, 133680, Note_on_c, 10, 54, 100
15, 133800, Note_on_c, 10, 54, 0
15, 135120, Note_on_c, 10, 54, 100
15, 135240, Note_on_c, 10, 54, 0
15, 135240, Note_on_c, 10, 54, 100
15, 135360, Note_on_c, 10, 54, 0
15, 135360, Note_on_c, 10, 54, 100
15, 135480, Note_on_c, 10, 54, 0
15, 135480, Note_on_c, 10, 54, 100
15, 135600, Note_on_c, 10, 54, 0
15, 135600, Note_on_c, 10, 54, 100
15, 135720, Note_on_c, 10, 54, 0
15, 137040, Note_on_c, 10, 54, 100
15, 137160, Note_on_c, 10, 54, 0
15, 137160, Note_on_c, 10, 54, 100
15, 137280, Note_on_c, 10, 54, 0
15, 137280, Note_on_c, 10, 54, 100
15, 137400, Note_on_c, 10, 54, 0
15, 137400, Note_on_c, 10, 54, 100
15, 137520, Note_on_c, 10, 54, 0
15, 137520, Note_on_c, 10, 54, 100
15, 137640, Note_on_c, 10, 54, 0
15, 138960, Note_on_c, 10, 54, 100
15, 139080, Note_on_c, 10, 54, 0
15, 139080, Note_on_c, 10, 54, 100
15, 139200, Note_on_c, 10, 54, 0
15, 139200, Note_on_c, 10, 54, 100
15, 139320, Note_on_c, 10, 54, 0
15, 139320, Note_on_c, 10, 54, 100
15, 139440, Note_on_c, 10, 54, 0
15, 139440, Note_on_c, 10, 54, 100
15, 139560, Note_on_c, 10, 54, 0
15, 140880, Note_on_c, 10, 54, 100
15, 141000, Note_on_c, 10, 54, 0
15, 141000, Note_on_c, 10, 54, 100
15, 141120, Note_on_c, 10, 54, 0
15, 141120, Note_on_c, 10, 54, 100
15, 141240, Note_on_c, 10, 54, 0
15, 141240, Note_on_c, 10, 54, 100
15, 141360, Note_on_c, 10, 54, 0
15, 141360, Note_on_c, 10, 54, 100
15, 141480, Note_on_c, 10, 54, 0
15, 142800, Note_on_c, 10, 54, 100
15, 142920, Note_on_c, 10, 54, 0
15, 142920, Note_on_c, 10, 54, 100
15, 143040, Note_on_c, 10, 54, 0
15, 143040, Note_on_c, 10, 54, 100
15, 143160, Note_on_c, 10, 54, 0
15, 143160, Note_on_c, 10, 54, 100
15, 143280, Note_on_c, 10, 54, 0
15, 143280, Note_on_c, 10, 54, 100
15, 143400, Note_on_c, 10, 54, 0
15, 144720, Note_on_c, 10, 54, 100
15, 144840, Note_on_c, 10, 54, 0
15, 144840, Note_on_c, 10, 54, 100
15, 144960, Note_on_c, 10, 54, 0
15, 144960, Note_on_c, 10, 54, 100
15, 145080, Note_on_c, 10, 54, 0
15, 145080, Note_on_c, 10, 54, 100
15, 145200, Note_on_c, 10, 54, 0
15, 145200, Note_on_c, 10, 54, 100
15, 145320, Note_on_c, 10, 54, 0
15, 146640, Note_on_c, 10, 54, 100
15, 146760, Note_on_c, 10, 54, 0
15, 146760, Note_on_c, 10, 54, 100
15, 146880, Note_on_c, 10, 54, 0
15, 146880, Note_on_c, 10, 54, 100
15, 147000, Note_on_c, 10, 54, 0
15, 147000, Note_on_c, 10, 54, 100
15, 147120, Note_on_c, 10, 54, 0
15, 147120, Note_on_c, 10, 54, 100
15, 147240, Note_on_c, 10, 54, 0
15, 148560, Note_on_c, 10, 54, 100
15, 148680, Note_on_c, 10, 54, 0
15, 148680, Note_on_c, 10, 54, 100
15, 148800, Note_on_c, 10, 54, 0
15, 148800, Note_on_c, 10, 54, 100
15, 148920, Note_on_c, 10, 54, 0
15, 148920, Note_on_c, 10, 54, 100
15, 149040, Note_on_c, 10, 54, 0
15, 149040, Note_on_c, 10, 54, 100
15, 149160, Note_on_c, 10, 54, 0
15, 150480, Note_on_c, 10, 54, 100
15, 150600, Note_on_c, 10, 54, 0
15, 150600, Note_on_c, 10, 54, 100
15, 150720, Note_on_c, 10, 54, 0
15, 150720, Note_on_c, 10, 54, 100
15, 150840, Note_on_c, 10, 54, 0
15, 150840, Note_on_c, 10, 54, 100
15, 150960, Note_on_c, 10, 54, 0
15, 150960, Note_on_c, 10, 54, 100
15, 151080, Note_on_c, 10, 54, 0
15, 152400, Note_on_c, 10, 54, 100
15, 152520, Note_on_c, 10, 54, 0
15, 152520, Note_on_c, 10, 54, 100
15, 152640, Note_on_c, 10, 54, 0
15, 152640, Note_on_c, 10, 54, 100
15, 152760, Note_on_c, 10, 54, 0
15, 152760, Note_on_c, 10, 54, 100
15, 152880, Note_on_c, 10, 54, 0
15, 152880, Note_on_c, 10, 54, 100
15, 153000, Note_on_c, 10, 54, 0
15, 154320, Note_on_c, 10, 54, 100
15, 154440, Note_on_c, 10, 54, 0
15, 154440, Note_on_c, 10, 54, 100
15, 154560, Note_on_c, 10, 54, 0
15, 154560, Note_on_c, 10, 54, 100
15, 154680, Note_on_c, 10, 54, 0
15, 154680, Note_on_c, 10, 54, 100
15, 154800, Note_on_c, 10, 54, 0
15, 154800, Note_on_c, 10, 54, 100
15, 154920, Note_on_c, 10, 54, 0
15, 156240, Note_on_c, 10, 54, 100
15, 156360, Note_on_c, 10, 54, 0
15, 156360, Note_on_c, 10, 54, 100
15, 156480, Note_on_c, 10, 54, 0
15, 156480, Note_on_c, 10, 54, 100
15, 156600, Note_on_c, 10, 54, 0
15, 156600, Note_on_c, 10, 54, 100
15, 156720, Note_on_c, 10, 54, 0
15, 156720, Note_on_c, 10, 54, 100
15, 156840, Note_on_c, 10, 54, 0
15, 158160, Note_on_c, 10, 54, 100
15, 158280, Note_on_c, 10, 54, 0
15, 158280, Note_on_c, 10, 54, 100
15, 158400, Note_on_c, 10, 54, 0
15, 158400, Note_on_c, 10, 54, 100
15, 158520, Note_on_c, 10, 54, 0
15, 158520, Note_on_c, 10, 54, 100
15, 158640, Note_on_c, 10, 54, 0
15, 158640, Note_on_c, 10, 54, 100
15, 158760, Note_on_c, 10, 54, 0
15, 160080, Note_on_c, 10, 54, 100
15, 160200, Note_on_c, 10, 54, 0
15, 160200, Note_on_c, 10, 54, 100
15, 160320, Note_on_c, 10, 54, 0
15, 160320, Note_on_c, 10, 54, 100
15, 160440, Note_on_c, 10, 54, 0
15, 160440, Note_on_c, 10, 54, 100
15, 160560, Note_on_c, 10, 54, 0
15, 160560, Note_on_c, 10, 54, 100
15, 160680, Note_on_c, 10, 54, 0
15, 162000, Note_on_c, 10, 54, 100
15, 162120, Note_on_c, 10, 54, 0
15, 162120, Note_on_c, 10, 54, 100
15, 162240, Note_on_c, 10, 54, 0
15, 162240, Note_on_c, 10, 54, 100
15, 162360, Note_on_c, 10, 54, 0
15, 162360, Note_on_c, 10, 54, 100
15, 162480, Note_on_c, 10, 54, 0
15, 162480, Note_on_c, 10, 54, 100
15, 162600, Note_on_c, 10, 54, 0
15, 163920, Note_on_c, 10, 54, 100
15, 164040, Note_on_c, 10, 54, 0
15, 164040, Note_on_c, 10, 54, 100
15, 164160, Note_on_c, 10, 54, 0
15, 164160, Note_on_c, 10, 54, 100
15, 164280, Note_on_c, 10, 54, 0
15, 164280, Note_on_c, 10, 54, 100
15, 164400, Note_on_c, 10, 54, 0
15, 164400, Note_on_c, 10, 54, 100
15, 164520, Note_on_c, 10, 54, 0
15, 165840, Note_on_c, 10, 54, 100
15, 165960, Note_on_c, 10, 54, 0
15, 165960, Note_on_c, 10, 54, 100
15, 166080, Note_on_c, 10, 54, 0
15, 166080, Note_on_c, 10, 54, 100
15, 166200, Note_on_c, 10, 54, 0
15, 166200, Note_on_c, 10, 54, 100
15, 166320, Note_on_c, 10, 54, 0
15, 166320, Note_on_c, 10, 54, 100
15, 166440, Note_on_c, 10, 54, 0
15, 167760, Note_on_c, 10, 54, 100
15, 167880, Note_on_c, 10, 54, 0
15, 167880, Note_on_c, 10, 54, 100
15, 168000, Note_on_c, 10, 54, 0
15, 168000, Note_on_c, 10, 54, 100
15, 168120, Note_on_c, 10, 54, 0
15, 168120, Note_on_c, 10, 54, 100
15, 168240, Note_on_c, 10, 54, 0
15, 168240, Note_on_c, 10, 54, 100
15, 168360, Note_on_c, 10, 54, 0
15, 169680, Note_on_c, 10, 54, 100
15, 169800, Note_on_c, 10, 54, 0
15, 169800, Note_on_c, 10, 54, 100
15, 169920, Note_on_c, 10, 54, 0
15, 169920, Note_on_c, 10, 54, 100
15, 170040, Note_on_c, 10, 54, 0
15, 170040, Note_on_c, 10, 54, 100
15, 170160, Note_on_c, 10, 54, 0
15, 170160, Note_on_c, 10, 54, 100
15, 170280, Note_on_c, 10, 54, 0
15, 171600, Note_on_c, 10, 54, 100
15, 171720, Note_on_c, 10, 54, 0
15, 171720, Note_on_c, 10, 54, 100
15, 171840, Note_on_c, 10, 54, 0
15, 171840, Note_on_c, 10, 54, 100
15, 171960, Note_on_c, 10, 54, 0
15, 171960, Note_on_c, 10, 54, 100
15, 172080, Note_on_c, 10, 54, 0
15, 172080, Note_on_c, 10, 54, 100
15, 172200, Note_on_c, 10, 54, 0
15, 173520, Note_on_c, 10, 54, 100
15, 173640, Note_on_c, 10, 54, 0
15, 173640, Note_on_c, 10, 54, 100
15, 173760, Note_on_c, 10, 54, 0
15, 173760, Note_on_c, 10, 54, 100
15, 173880, Note_on_c, 10, 54, 0
15, 173880, Note_on_c, 10, 54, 100
15, 174000, Note_on_c, 10, 54, 0
15, 174000, Note_on_c, 10, 54, 100
15, 174120, Note_on_c, 10, 54, 0
15, 175440, Note_on_c, 10, 54, 100
15, 175560, Note_on_c, 10, 54, 0
15, 175560, Note_on_c, 10, 54, 100
15, 175680, Note_on_c, 10, 54, 0
15, 175680, Note_on_c, 10, 54, 100
15, 175800, Note_on_c, 10, 54, 0
15, 175800, Note_on_c, 10, 54, 100
15, 175920, Note_on_c, 10, 54, 0
15, 175920, Note_on_c, 10, 54, 100
15, 176040, Note_on_c, 10, 54, 0
15, 177360, Note_on_c, 10, 54, 100
15, 177480, Note_on_c, 10, 54, 0
15, 177480, Note_on_c, 10, 54, 100
15, 177600, Note_on_c, 10, 54, 0
15, 177600, Note_on_c, 10, 54, 100
15, 177720, Note_on_c, 10, 54, 0
15, 177720, Note_on_c, 10, 54, 100
15, 177840, Note_on_c, 10, 54, 0
15, 177840, Note_on_c, 10, 54, 100
15, 177960, Note_on_c, 10, 54, 0
15, 179280, Note_on_c, 10, 54, 100
15, 179400, Note_on_c, 10, 54, 0
15, 179400, Note_on_c, 10, 54, 100
15, 179520, Note_on_c, 10, 54, 0
15, 179520, Note_on_c, 10, 54, 100
15, 179640, Note_on_c, 10, 54, 0
15, 179640, Note_on_c, 10, 54, 100
15, 179760, Note_on_c, 10, 54, 0
15, 179760, Note_on_c, 10, 54, 100
15, 179880, Note_on_c, 10, 54, 0
15, 181200, Note_on_c, 10, 54, 100
15, 181320, Note_on_c, 10, 54, 0
15, 181320, Note_on_c, 10, 54, 100
15, 181440, Note_on_c, 10, 54, 0
15, 181440, Note_on_c, 10, 54, 100
15, 181560, Note_on_c, 10, 54, 0
15, 181560, Note_on_c, 10, 54, 100
15, 181680, Note_on_c, 10, 54, 0
15, 181680, Note_on_c, 10, 54, 100
15, 181800, Note_on_c, 10, 54, 0
15, 183120, Note_on_c, 10, 54, 100
15, 183240, Note_on_c, 10, 54, 0
15, 183240, Note_on_c, 10, 54, 100
15, 183360, Note_on_c, 10, 54, 0
15, 183360, Note_on_c, 10, 54, 100
15, 183480, Note_on_c, 10, 54, 0
15, 183480, Note_on_c, 10, 54, 100
15, 183600, Note_on_c, 10, 54, 0
15, 183600, Note_on_c, 10, 54, 100
15, 183720, Note_on_c, 10, 54, 0
15, 183720, End_track
16, 0, Start_track
16, 0, MIDI_port, 0
16, 0, End_track
17, 0, Start_track
17, 0, MIDI_port, 0
17, 0, Title_t, "Remix Drums"
17, 0, Program_c, 15, 16
17, 0, Control_c, 15, 7, 0
17, 3840, Note_on_c, 15, 54, 100
17, 3840, Note_on_c, 15, 82, 100
17, 3960, Note_on_c, 15, 82, 0
17, 3960, Note_on_c, 15, 54, 0
17, 3960, Note_on_c, 15, 82, 100
17, 4080, Note_on_c, 15, 82, 0
17, 4080, Note_on_c, 15, 82, 100
17, 4200, Note_on_c, 15, 82, 0
17, 4200, Note_on_c, 15, 54, 100
17, 4200, Note_on_c, 15, 82, 100
17, 4320, Note_on_c, 15, 82, 0
17, 4320, Note_on_c, 15, 54, 0
17, 4320, Note_on_c, 15, 82, 100
17, 4440, Note_on_c, 15, 82, 0
17, 4440, Note_on_c, 15, 82, 100
17, 4560, Note_on_c, 15, 82, 0
17, 4560, Note_on_c, 15, 82, 100
17, 4680, Note_on_c, 15, 82, 0
17, 4680, Note_on_c, 15, 82, 100
17, 4800, Note_on_c, 15, 82, 0
17, 4800, Note_on_c, 15, 54, 100
17, 4800, Note_on_c, 15, 82, 100
17, 4920, Note_on_c, 15, 82, 0
17, 4920, Note_on_c, 15, 54, 0
17, 4920, Note_on_c, 15, 82, 100
17, 5040, Note_on_c, 15, 82, 0
17, 5040, Note_on_c, 15, 82, 100
17, 5160, Note_on_c, 15, 82, 0
17, 5160, Note_on_c, 15, 54, 100
17, 5160, Note_on_c, 15, 82, 100
17, 5280, Note_on_c, 15, 82, 0
17, 5280, Note_on_c, 15, 54, 0
17, 5280, Note_on_c, 15, 82, 100
17, 5400, Note_on_c, 15, 82, 0
17, 5400, Note_on_c, 15, 82, 100
17, 5520, Note_on_c, 15, 82, 0
17, 5520, Note_on_c, 15, 82, 100
17, 5640, Note_on_c, 15, 82, 0
17, 5640, Note_on_c, 15, 82, 100
17, 5760, Note_on_c, 15, 82, 0
17, 5760, Note_on_c, 15, 82, 100
17, 5760, Note_on_c, 15, 54, 100
17, 5880, Note_on_c, 15, 54, 0
17, 5880, Note_on_c, 15, 82, 0
17, 5880, Note_on_c, 15, 82, 100
17, 6000, Note_on_c, 15, 82, 0
17, 6000, Note_on_c, 15, 82, 100
17, 6120, Note_on_c, 15, 82, 0
17, 6120, Note_on_c, 15, 54, 100
17, 6120, Note_on_c, 15, 82, 100
17, 6240, Note_on_c, 15, 82, 0
17, 6240, Note_on_c, 15, 54, 0
17, 6240, Note_on_c, 15, 82, 100
17, 6360, Note_on_c, 15, 82, 0
17, 6360, Note_on_c, 15, 82, 100
17, 6480, Note_on_c, 15, 82, 0
17, 6480, Note_on_c, 15, 82, 100
17, 6600, Note_on_c, 15, 82, 0
17, 6600, Note_on_c, 15, 82, 100
17, 6720, Note_on_c, 15, 82, 0
17, 6720, Note_on_c, 15, 82, 100
17, 6720, Note_on_c, 15, 54, 100
17, 6840, Note_on_c, 15, 54, 0
17, 6840, Note_on_c, 15, 82, 0
17, 6840, Note_on_c, 15, 82, 100
17, 6960, Note_on_c, 15, 82, 0
17, 6960, Note_on_c, 15, 82, 100
17, 7080, Note_on_c, 15, 82, 0
17, 7080, Note_on_c, 15, 82, 100
17, 7080, Note_on_c, 15, 54, 100
17, 7200, Note_on_c, 15, 54, 0
17, 7200, Note_on_c, 15, 82, 0
17, 7200, Note_on_c, 15, 82, 100
17, 7320, Note_on_c, 15, 82, 0
17, 7320, Note_on_c, 15, 82, 100
17, 7440, Note_on_c, 15, 82, 0
17, 7440, Note_on_c, 15, 82, 100
17, 7560, Note_on_c, 15, 82, 0
17, 7560, Note_on_c, 15, 82, 100
17, 7680, Note_on_c, 15, 82, 0
17, 7680, Note_on_c, 15, 54, 100
17, 7680, Note_on_c, 15, 82, 100
17, 7800, Note_on_c, 15, 82, 0
17, 7800, Note_on_c, 15, 54, 0
17, 7800, Note_on_c, 15, 82, 100
17, 7920, Note_on_c, 15, 82, 0
17, 7920, Note_on_c, 15, 82, 100
17, 8040, Note_on_c, 15, 82, 0
17, 8040, Note_on_c, 15, 54, 100
17, 8040, Note_on_c, 15, 82, 100
17, 8160, Note_on_c, 15, 82, 0
17, 8160, Note_on_c, 15, 54, 0
17, 8160, Note_on_c, 15, 82, 100
17, 8280, Note_on_c, 15, 82, 0
17, 8280, Note_on_c, 15, 82, 100
17, 8400, Note_on_c, 15, 82, 0
17, 8400, Note_on_c, 15, 82, 100
17, 8520, Note_on_c, 15, 82, 0
17, 8520, Note_on_c, 15, 82, 100
17, 8640, Note_on_c, 15, 82, 0
17, 8640, Note_on_c, 15, 82, 100
17, 8640, Note_on_c, 15, 54, 100
17, 8760, Note_on_c, 15, 54, 0
17, 8760, Note_on_c, 15, 82, 0
17, 8760, Note_on_c, 15, 82, 100
17, 8880, Note_on_c, 15, 82, 0
17, 8880, Note_on_c, 15, 82, 100
17, 9000, Note_on_c, 15, 82, 0
17, 9000, Note_on_c, 15, 54, 100
17, 9000, Note_on_c, 15, 82, 100
17, 9120, Note_on_c, 15, 82, 0
17, 9120, Note_on_c, 15, 54, 0
17, 9120, Note_on_c, 15, 82, 100
17, 9240, Note_on_c, 15, 82, 0
17, 9240, Note_on_c, 15, 82, 100
17, 9360, Note_on_c, 15, 82, 0
17, 9360, Note_on_c, 15, 82, 100
17, 9480, Note_on_c, 15, 82, 0
17, 9480, Note_on_c, 15, 82, 100
17, 9600, Note_on_c, 15, 82, 0
17, 9600, Note_on_c, 15, 54, 100
17, 9600, Note_on_c, 15, 82, 100
17, 9720, Note_on_c, 15, 82, 0
17, 9720, Note_on_c, 15, 54, 0
17, 9720, Note_on_c, 15, 82, 100
17, 9840, Note_on_c, 15, 82, 0
17, 9840, Note_on_c, 15, 82, 100
17, 9960, Note_on_c, 15, 82, 0
17, 9960, Note_on_c, 15, 54, 100
17, 9960, Note_on_c, 15, 82, 100
17, 10080, Note_on_c, 15, 82, 0
17, 10080, Note_on_c, 15, 54, 0
17, 10080, Note_on_c, 15, 82, 100
17, 10200, Note_on_c, 15, 82, 0
17, 10200, Note_on_c, 15, 82, 100
17, 10320, Note_on_c, 15, 82, 0
17, 10320, Note_on_c, 15, 82, 100
17, 10440, Note_on_c, 15, 82, 0
17, 10440, Note_on_c, 15, 82, 100
17, 10560, Note_on_c, 15, 82, 0
17, 10560, Note_on_c, 15, 82, 100
17, 10560, Note_on_c, 15, 54, 100
17, 10680, Note_on_c, 15, 54, 0
17, 10680, Note_on_c, 15, 82, 0
17, 10680, Note_on_c, 15, 82, 100
17, 10800, Note_on_c, 15, 82, 0
17, 10800, Note_on_c, 15, 82, 100
17, 10920, Note_on_c, 15, 82, 0
17, 10920, Note_on_c, 15, 54, 100
17, 10920, Note_on_c, 15, 82, 100
17, 11040, Note_on_c, 15, 82, 0
17, 11040, Note_on_c, 15, 54, 0
17, 11040, Note_on_c, 15, 82, 100
17, 11160, Note_on_c, 15, 82, 0
17, 11160, Note_on_c, 15, 82, 100
17, 11280, Note_on_c, 15, 82, 0
17, 11280, Note_on_c, 15, 82, 100
17, 11400, Note_on_c, 15, 82, 0
17, 11400, Note_on_c, 15, 82, 100
17, 11520, Note_on_c, 15, 82, 0
17, 11520, Note_on_c, 15, 82, 100
17, 11520, Note_on_c, 15, 54, 100
17, 11640, Note_on_c, 15, 54, 0
17, 11640, Note_on_c, 15, 82, 0
17, 11640, Note_on_c, 15, 82, 100
17, 11760, Note_on_c, 15, 82, 0
17, 11760, Note_on_c, 15, 82, 100
17, 11880, Note_on_c, 15, 82, 0
17, 11880, Note_on_c, 15, 82, 100
17, 11880, Note_on_c, 15, 54, 100
17, 12000, Note_on_c, 15, 54, 0
17, 12000, Note_on_c, 15, 82, 0
17, 12000, Note_on_c, 15, 82, 100
17, 12120, Note_on_c, 15, 82, 0
17, 12120, Note_on_c, 15, 82, 100
17, 12240, Note_on_c, 15, 82, 0
17, 12240, Note_on_c, 15, 82, 100
17, 12360, Note_on_c, 15, 82, 0
17, 12360, Note_on_c, 15, 82, 100
17, 12480, Note_on_c, 15, 82, 0
17, 12480, Note_on_c, 15, 82, 100
17, 12480, Note_on_c, 15, 54, 100
17, 12600, Note_on_c, 15, 54, 0
17, 12600, Note_on_c, 15, 82, 0
17, 12600, Note_on_c, 15, 82, 100
17, 12720, Note_on_c, 15, 82, 0
17, 12720, Note_on_c, 15, 82, 100
17, 12840, Note_on_c, 15, 82, 0
17, 12840, Note_on_c, 15, 54, 100
17, 12840, Note_on_c, 15, 82, 100
17, 12960, Note_on_c, 15, 82, 0
17, 12960, Note_on_c, 15, 54, 0
17, 12960, Note_on_c, 15, 82, 100
17, 13080, Note_on_c, 15, 82, 0
17, 13080, Note_on_c, 15, 82, 100
17, 13200, Note_on_c, 15, 82, 0
17, 13200, Note_on_c, 15, 82, 100
17, 13320, Note_on_c, 15, 82, 0
17, 13320, Note_on_c, 15, 82, 100
17, 13440, Note_on_c, 15, 82, 0
17, 13440, Note_on_c, 15, 54, 100
17, 13440, Note_on_c, 15, 82, 100
17, 13560, Note_on_c, 15, 82, 0
17, 13560, Note_on_c, 15, 54, 0
17, 13560, Note_on_c, 15, 82, 100
17, 13680, Note_on_c, 15, 82, 0
17, 13680, Note_on_c, 15, 82, 100
17, 13800, Note_on_c, 15, 82, 0
17, 13800, Note_on_c, 15, 54, 100
17, 13800, Note_on_c, 15, 82, 100
17, 13920, Note_on_c, 15, 82, 0
17, 13920, Note_on_c, 15, 54, 0
17, 13920, Note_on_c, 15, 82, 100
17, 14040, Note_on_c, 15, 82, 0
17, 14040, Note_on_c, 15, 82, 100
17, 14160, Note_on_c, 15, 82, 0
17, 14160, Note_on_c, 15, 82, 100
17, 14280, Note_on_c, 15, 82, 0
17, 14280, Note_on_c, 15, 82, 100
17, 14400, Note_on_c, 15, 82, 0
17, 14400, Note_on_c, 15, 54, 100
17, 14400, Note_on_c, 15, 82, 100
17, 14520, Note_on_c, 15, 82, 0
17, 14520, Note_on_c, 15, 54, 0
17, 14520, Note_on_c, 15, 82, 100
17, 14640, Note_on_c, 15, 82, 0
17, 14640, Note_on_c, 15, 82, 100
17, 14760, Note_on_c, 15, 82, 0
17, 14760, Note_on_c, 15, 82, 100
17, 14760, Note_on_c, 15, 54, 100
17, 14880, Note_on_c, 15, 54, 0
17, 14880, Note_on_c, 15, 82, 0
17, 14880, Note_on_c, 15, 82, 100
17, 15000, Note_on_c, 15, 82, 0
17, 15000, Note_on_c, 15, 82, 100
17, 15120, Note_on_c, 15, 82, 0
17, 15120, Note_on_c, 15, 82, 100
17, 15240, Note_on_c, 15, 82, 0
17, 15240, Note_on_c, 15, 82, 100
17, 15360, Note_on_c, 15, 82, 0
17, 15360, Note_on_c, 15, 54, 100
17, 15360, Note_on_c, 15, 82, 100
17, 15480, Note_on_c, 15, 82, 0
17, 15480, Note_on_c, 15, 54, 0
17, 15480, Note_on_c, 15, 82, 100
17, 15600, Note_on_c, 15, 82, 0
17, 15600, Note_on_c, 15, 82, 100
17, 15720, Note_on_c, 15, 82, 0
17, 15720, Note_on_c, 15, 54, 100
17, 15720, Note_on_c, 15, 82, 100
17, 15840, Note_on_c, 15, 82, 0
17, 15840, Note_on_c, 15, 54, 0
17, 15840, Note_on_c, 15, 82, 100
17, 15960, Note_on_c, 15, 82, 0
17, 15960, Note_on_c, 15, 82, 100
17, 16080, Note_on_c, 15, 82, 0
17, 16080, Note_on_c, 15, 82, 100
17, 16200, Note_on_c, 15, 82, 0
17, 16200, Note_on_c, 15, 82, 100
17, 16320, Note_on_c, 15, 82, 0
17, 16320, Note_on_c, 15, 82, 100
17, 16320, Note_on_c, 15, 54, 100
17, 16440, Note_on_c, 15, 54, 0
17, 16440, Note_on_c, 15, 82, 0
17, 16440, Note_on_c, 15, 82, 100
17, 16560, Note_on_c, 15, 82, 0
17, 16560, Note_on_c, 15, 82, 100
17, 16680, Note_on_c, 15, 82, 0
17, 16680, Note_on_c, 15, 82, 100
17, 16680, Note_on_c, 15, 54, 100
17, 16800, Note_on_c, 15, 54, 0
17, 16800, Note_on_c, 15, 82, 0
17, 16800, Note_on_c, 15, 82, 100
17, 16920, Note_on_c, 15, 82, 0
17, 16920, Note_on_c, 15, 82, 100
17, 17040, Note_on_c, 15, 82, 0
17, 17040, Note_on_c, 15, 82, 100
17, 17160, Note_on_c, 15, 82, 0
17, 17160, Note_on_c, 15, 82, 100
17, 17280, Note_on_c, 15, 82, 0
17, 17280, Note_on_c, 15, 54, 100
17, 17280, Note_on_c, 15, 82, 100
17, 17400, Note_on_c, 15, 82, 0
17, 17400, Note_on_c, 15, 54, 0
17, 17400, Note_on_c, 15, 82, 100
17, 17520, Note_on_c, 15, 82, 0
17, 17520, Note_on_c, 15, 82, 100
17, 17640, Note_on_c, 15, 82, 0
17, 17640, Note_on_c, 15, 82, 100
17, 17640, Note_on_c, 15, 54, 100
17, 17760, Note_on_c, 15, 54, 0
17, 17760, Note_on_c, 15, 82, 0
17, 17760, Note_on_c, 15, 82, 100
17, 17880, Note_on_c, 15, 82, 0
17, 17880, Note_on_c, 15, 82, 100
17, 18000, Note_on_c, 15, 82, 0
17, 18000, Note_on_c, 15, 82, 100
17, 18120, Note_on_c, 15, 82, 0
17, 18120, Note_on_c, 15, 82, 100
17, 18240, Note_on_c, 15, 82, 0
17, 18240, Note_on_c, 15, 82, 100
17, 18240, Note_on_c, 15, 54, 100
17, 18360, Note_on_c, 15, 54, 0
17, 18360, Note_on_c, 15, 82, 0
17, 18360, Note_on_c, 15, 82, 100
17, 18480, Note_on_c, 15, 82, 0
17, 18480, Note_on_c, 15, 82, 100
17, 18600, Note_on_c, 15, 82, 0
17, 18600, Note_on_c, 15, 54, 100
17, 18600, Note_on_c, 15, 82, 100
17, 18720, Note_on_c, 15, 82, 0
17, 18720, Note_on_c, 15, 54, 0
17, 18720, Note_on_c, 15, 82, 100
17, 18840, Note_on_c, 15, 82, 0
17, 18840, Note_on_c, 15, 82, 100
17, 18960, Note_on_c, 15, 82, 0
17, 18960, Note_on_c, 15, 82, 100
17, 19080, Note_on_c, 15, 82, 0
17, 19080, Note_on_c, 15, 82, 100
17, 19200, Note_on_c, 15, 82, 0
17, 19200, Note_on_c, 15, 36, 100
17, 19200, Note_on_c, 15, 42, 100
17, 19320, Note_on_c, 15, 42, 0
17, 19320, Note_on_c, 15, 36, 0
17, 19320, Note_on_c, 15, 42, 100
17, 19320, Note_on_c, 15, 36, 100
17, 19440, Note_on_c, 15, 36, 0
17, 19440, Note_on_c, 15, 42, 0
17, 19440, Note_on_c, 15, 36, 100
17, 19440, Note_on_c, 15, 42, 100
17, 19560, Note_on_c, 15, 42, 0
17, 19560, Note_on_c, 15, 36, 0
17, 19560, Note_on_c, 15, 42, 100
17, 19680, Note_on_c, 15, 42, 0
17, 19680, Note_on_c, 15, 38, 100
17, 19680, Note_on_c, 15, 42, 100
17, 19800, Note_on_c, 15, 42, 0
17, 19800, Note_on_c, 15, 38, 0
17, 19800, Note_on_c, 15, 42, 100
17, 19920, Note_on_c, 15, 42, 0
17, 19920, Note_on_c, 15, 42, 100
17, 20040, Note_on_c, 15, 42, 0
17, 20040, Note_on_c, 15, 36, 100
17, 20040, Note_on_c, 15, 42, 100
17, 20160, Note_on_c, 15, 42, 0
17, 20160, Note_on_c, 15, 36, 0
17, 20160, Note_on_c, 15, 42, 100
17, 20160, Note_on_c, 15, 36, 100
17, 20280, Note_on_c, 15, 36, 0
17, 20280, Note_on_c, 15, 42, 0
17, 20280, Note_on_c, 15, 42, 100
17, 20400, Note_on_c, 15, 42, 0
17, 20400, Note_on_c, 15, 36, 100
17, 20400, Note_on_c, 15, 42, 100
17, 20520, Note_on_c, 15, 42, 0
17, 20520, Note_on_c, 15, 36, 0
17, 20520, Note_on_c, 15, 42, 100
17, 20640, Note_on_c, 15, 42, 0
17, 20640, Note_on_c, 15, 38, 100
17, 20640, Note_on_c, 15, 42, 100
17, 20760, Note_on_c, 15, 42, 0
17, 20760, Note_on_c, 15, 38, 0
17, 20760, Note_on_c, 15, 42, 100
17, 20880, Note_on_c, 15, 42, 0
17, 20880, Note_on_c, 15, 42, 100
17, 21000, Note_on_c, 15, 42, 0
17, 21000, Note_on_c, 15, 46, 100
17, 21000, Note_on_c, 15, 36, 100
17, 21120, Note_on_c, 15, 36, 0
17, 21120, Note_on_c, 15, 46, 0
17, 21120, Note_on_c, 15, 36, 100
17, 21120, Note_on_c, 15, 42, 100
17, 21240, Note_on_c, 15, 42, 0
17, 21240, Note_on_c, 15, 36, 0
17, 21240, Note_on_c, 15, 42, 100
17, 21360, Note_on_c, 15, 42, 0
17, 21360, Note_on_c, 15, 36, 100
17, 21360, Note_on_c, 15, 42, 100
17, 21480, Note_on_c, 15, 42, 0
17, 21480, Note_on_c, 15, 36, 0
17, 21480, Note_on_c, 15, 42, 100
17, 21600, Note_on_c, 15, 42, 0
17, 21600, Note_on_c, 15, 38, 100
17, 21600, Note_on_c, 15, 42, 100
17, 21720, Note_on_c, 15, 42, 0
17, 21720, Note_on_c, 15, 38, 0
17, 21720, Note_on_c, 15, 42, 100
17, 21840, Note_on_c, 15, 42, 0
17, 21840, Note_on_c, 15, 42, 100
17, 21960, Note_on_c, 15, 42, 0
17, 21960, Note_on_c, 15, 42, 100
17, 21960, Note_on_c, 15, 36, 100
17, 22080, Note_on_c, 15, 36, 0
17, 22080, Note_on_c, 15, 42, 0
17, 22080, Note_on_c, 15, 42, 100
17, 22080, Note_on_c, 15, 36, 100
17, 22140, Note_on_c, 15, 42, 0
17, 22140, Note_on_c, 15, 42, 100
17, 22200, Note_on_c, 15, 42, 0
17, 22200, Note_on_c, 15, 36, 0
17, 22200, Note_on_c, 15, 42, 100
17, 22260, Note_on_c, 15, 42, 0
17, 22260, Note_on_c, 15, 42, 100
17, 22320, Note_on_c, 15, 42, 0
17, 22320, Note_on_c, 15, 42, 100
17, 22320, Note_on_c, 15, 36, 100
17, 22440, Note_on_c, 15, 36, 0
17, 22440, Note_on_c, 15, 42, 0
17, 22440, Note_on_c, 15, 42, 100
17, 22560, Note_on_c, 15, 42, 0
17, 22560, Note_on_c, 15, 38, 100
17, 22560, Note_on_c, 15, 42, 100
17, 22680, Note_on_c, 15, 42, 0
17, 22680, Note_on_c, 15, 38, 0
17, 22680, Note_on_c, 15, 42, 100
17, 22800, Note_on_c, 15, 42, 0
17, 22800, Note_on_c, 15, 42, 100
17, 22920, Note_on_c, 15, 42, 0
17, 22920, Note_on_c, 15, 36, 100
17, 22920, Note_on_c, 15, 46, 100
17, 23040, Note_on_c, 15, 46, 0
17, 23040, Note_on_c, 15, 36, 0
17, 23040, Note_on_c, 15, 42, 100
17, 23040, Note_on_c, 15, 36, 100
17, 23160, Note_on_c, 15, 36, 0
17, 23160, Note_on_c, 15, 42, 0
17, 23160, Note_on_c, 15, 42, 100
17, 23280, Note_on_c, 15, 42, 0
17, 23280, Note_on_c, 15, 36, 100
17, 23280, Note_on_c, 15, 42, 100
17, 23400, Note_on_c, 15, 42, 0
17, 23400, Note_on_c, 15, 36, 0
17, 23400, Note_on_c, 15, 42, 100
17, 23520, Note_on_c, 15, 42, 0
17, 23520, Note_on_c, 15, 42, 100
17, 23520, Note_on_c, 15, 38, 100
17, 23640, Note_on_c, 15, 38, 0
17, 23640, Note_on_c, 15, 42, 0
17, 23640, Note_on_c, 15, 42, 100
17, 23760, Note_on_c, 15, 42, 0
17, 23760, Note_on_c, 15, 42, 100
17, 23880, Note_on_c, 15, 42, 0
17, 23880, Note_on_c, 15, 42, 100
17, 23880, Note_on_c, 15, 36, 100
17, 24000, Note_on_c, 15, 36, 0
17, 24000, Note_on_c, 15, 42, 0
17, 24000, Note_on_c, 15, 36, 100
17, 24000, Note_on_c, 15, 42, 100
17, 24120, Note_on_c, 15, 42, 0
17, 24120, Note_on_c, 15, 36, 0
17, 24120, Note_on_c, 15, 42, 100
17, 24240, Note_on_c, 15, 42, 0
17, 24240, Note_on_c, 15, 36, 100
17, 24240, Note_on_c, 15, 42, 100
17, 24360, Note_on_c, 15, 42, 0
17, 24360, Note_on_c, 15, 36, 0
17, 24360, Note_on_c, 15, 42, 100
17, 24480, Note_on_c, 15, 42, 0
17, 24480, Note_on_c, 15, 38, 100
17, 24480, Note_on_c, 15, 42, 100
17, 24600, Note_on_c, 15, 42, 0
17, 24600, Note_on_c, 15, 38, 0
17, 24600, Note_on_c, 15, 42, 100
17, 24720, Note_on_c, 15, 42, 0
17, 24720, Note_on_c, 15, 42, 100
17, 24840, Note_on_c, 15, 42, 0
17, 24840, Note_on_c, 15, 46, 100
17, 24840, Note_on_c, 15, 36, 100
17, 24960, Note_on_c, 15, 36, 0
17, 24960, Note_on_c, 15, 46, 0
17, 24960, Note_on_c, 15, 36, 100
17, 24960, Note_on_c, 15, 42, 100
17, 25080, Note_on_c, 15, 42, 0
17, 25080, Note_on_c, 15, 36, 0
17, 25080, Note_on_c, 15, 42, 100
17, 25200, Note_on_c, 15, 42, 0
17, 25200, Note_on_c, 15, 42, 100
17, 25200, Note_on_c, 15, 36, 100
17, 25320, Note_on_c, 15, 36, 0
17, 25320, Note_on_c, 15, 42, 0
17, 25320, Note_on_c, 15, 42, 100
17, 25440, Note_on_c, 15, 42, 0
17, 25440, Note_on_c, 15, 42, 100
17, 25440, Note_on_c, 15, 38, 100
17, 25560, Note_on_c, 15, 38, 0
17, 25560, Note_on_c, 15, 42, 0
17, 25560, Note_on_c, 15, 42, 100
17, 25680, Note_on_c, 15, 42, 0
17, 25680, Note_on_c, 15, 42, 100
17, 25800, Note_on_c, 15, 42, 0
17, 25800, Note_on_c, 15, 36, 100
17, 25800, Note_on_c, 15, 42, 100
17, 25860, Note_on_c, 15, 42, 0
17, 25860, Note_on_c, 15, 42, 100
17, 25920, Note_on_c, 15, 42, 0
17, 25920, Note_on_c, 15, 36, 0
17, 25920, Note_on_c, 15, 36, 100
17, 25920, Note_on_c, 15, 42, 100
17, 25980, Note_on_c, 15, 42, 0
17, 25980, Note_on_c, 15, 42, 100
17, 26040, Note_on_c, 15, 36, 0
17, 26040, Note_on_c, 15, 42, 100
17, 26100, Note_on_c, 15, 42, 0
17, 26100, Note_on_c, 15, 42, 0
17, 26100, Note_on_c, 15, 42, 100
17, 26160, Note_on_c, 15, 42, 0
17, 26160, Note_on_c, 15, 42, 100
17, 26160, Note_on_c, 15, 38, 100
17, 26280, Note_on_c, 15, 38, 0
17, 26280, Note_on_c, 15, 42, 0
17, 26280, Note_on_c, 15, 42, 100
17, 26400, Note_on_c, 15, 42, 0
17, 26400, Note_on_c, 15, 38, 100
17, 26400, Note_on_c, 15, 42, 100
17, 26520, Note_on_c, 15, 42, 0
17, 26520, Note_on_c, 15, 38, 0
17, 26520, Note_on_c, 15, 42, 100
17, 26640, Note_on_c, 15, 42, 0
17, 26640, Note_on_c, 15, 42, 100
17, 26760, Note_on_c, 15, 42, 0
17, 26760, Note_on_c, 15, 46, 100
17, 26880, Note_on_c, 15, 46, 0
17, 26880, Note_on_c, 15, 36, 100
17, 26880, Note_on_c, 15, 42, 100
17, 27000, Note_on_c, 15, 42, 0
17, 27000, Note_on_c, 15, 36, 0
17, 27000, Note_on_c, 15, 42, 100
17, 27120, Note_on_c, 15, 42, 0
17, 27120, Note_on_c, 15, 42, 100
17, 27120, Note_on_c, 15, 36, 100
17, 27240, Note_on_c, 15, 36, 0
17, 27240, Note_on_c, 15, 42, 0
17, 27240, Note_on_c, 15, 42, 100
17, 27360, Note_on_c, 15, 42, 0
17, 27360, Note_on_c, 15, 38, 100
17, 27360, Note_on_c, 15, 42, 100
17, 27480, Note_on_c, 15, 42, 0
17, 27480, Note_on_c, 15, 38, 0
17, 27480, Note_on_c, 15, 42, 100
17, 27600, Note_on_c, 15, 42, 0
17, 27600, Note_on_c, 15, 42, 100
17, 27720, Note_on_c, 15, 42, 0
17, 27720, Note_on_c, 15, 36, 100
17, 27720, Note_on_c, 15, 42, 100
17, 27840, Note_on_c, 15, 42, 0
17, 27840, Note_on_c, 15, 36, 0
17, 27840, Note_on_c, 15, 42, 100
17, 27840, Note_on_c, 15, 36, 100
17, 27960, Note_on_c, 15, 36, 0
17, 27960, Note_on_c, 15, 42, 0
17, 27960, Note_on_c, 15, 42, 100
17, 28080, Note_on_c, 15, 42, 0
17, 28080, Note_on_c, 15, 42, 100
17, 28080, Note_on_c, 15, 36, 100
17, 28200, Note_on_c, 15, 36, 0
17, 28200, Note_on_c, 15, 42, 0
17, 28200, Note_on_c, 15, 42, 100
17, 28320, Note_on_c, 15, 42, 0
17, 28320, Note_on_c, 15, 38, 100
17, 28320, Note_on_c, 15, 42, 100
17, 28440, Note_on_c, 15, 42, 0
17, 28440, Note_on_c, 15, 38, 0
17, 28440, Note_on_c, 15, 42, 100
17, 28560, Note_on_c, 15, 42, 0
17, 28560, Note_on_c, 15, 42, 100
17, 28680, Note_on_c, 15, 42, 0
17, 28680, Note_on_c, 15, 46, 100
17, 28680, Note_on_c, 15, 36, 100
17, 28800, Note_on_c, 15, 36, 0
17, 28800, Note_on_c, 15, 46, 0
17, 28800, Note_on_c, 15, 42, 100
17, 28800, Note_on_c, 15, 36, 100
17, 28920, Note_on_c, 15, 36, 0
17, 28920, Note_on_c, 15, 42, 0
17, 28920, Note_on_c, 15, 42, 100
17, 29040, Note_on_c, 15, 42, 0
17, 29040, Note_on_c, 15, 36, 100
17, 29040, Note_on_c, 15, 42, 100
17, 29160, Note_on_c, 15, 42, 0
17, 29160, Note_on_c, 15, 36, 0
17, 29160, Note_on_c, 15, 42, 100
17, 29280, Note_on_c, 15, 42, 0
17, 29280, Note_on_c, 15, 38, 100
17, 29280, Note_on_c, 15, 42, 100
17, 29400, Note_on_c, 15, 42, 0
17, 29400, Note_on_c, 15, 38, 0
17, 29400, Note_on_c, 15, 42, 100
17, 29520, Note_on_c, 15, 42, 0
17, 29520, Note_on_c, 15, 42, 100
17, 29640, Note_on_c, 15, 42, 0
17, 29640, Note_on_c, 15, 36, 100
17, 29640, Note_on_c, 15, 42, 100
17, 29700, Note_on_c, 15, 42, 0
17, 29700, Note_on_c, 15, 42, 100
17, 29760, Note_on_c, 15, 42, 0
17, 29760, Note_on_c, 15, 36, 0
17, 29760, Note_on_c, 15, 42, 100
17, 29760, Note_on_c, 15, 36, 100
17, 29880, Note_on_c, 15, 36, 0
17, 29880, Note_on_c, 15, 42, 0
17, 29880, Note_on_c, 15, 42, 100
17, 30000, Note_on_c, 15, 42, 0
17, 30000, Note_on_c, 15, 42, 100
17, 30000, Note_on_c, 15, 36, 100
17, 30120, Note_on_c, 15, 36, 0
17, 30120, Note_on_c, 15, 42, 0
17, 30120, Note_on_c, 15, 42, 100
17, 30240, Note_on_c, 15, 42, 0
17, 30240, Note_on_c, 15, 42, 100
17, 30240, Note_on_c, 15, 38, 100
17, 30300, Note_on_c, 15, 42, 0
17, 30300, Note_on_c, 15, 42, 100
17, 30360, Note_on_c, 15, 42, 0
17, 30360, Note_on_c, 15, 38, 0
17, 30360, Note_on_c, 15, 42, 100
17, 30420, Note_on_c, 15, 42, 0
17, 30420, Note_on_c, 15, 42, 100
17, 30480, Note_on_c, 15, 42, 0
17, 30480, Note_on_c, 15, 42, 100
17, 30600, Note_on_c, 15, 42, 0
17, 30600, Note_on_c, 15, 36, 100
17, 30600, Note_on_c, 15, 46, 100
17, 30720, Note_on_c, 15, 46, 0
17, 30720, Note_on_c, 15, 36, 0
17, 30720, Note_on_c, 15, 42, 100
17, 30720, Note_on_c, 15, 36, 100
17, 30840, Note_on_c, 15, 36, 0
17, 30840, Note_on_c, 15, 42, 0
17, 30840, Note_on_c, 15, 42, 100
17, 30960, Note_on_c, 15, 42, 0
17, 30960, Note_on_c, 15, 36, 100
17, 30960, Note_on_c, 15, 42, 100
17, 31080, Note_on_c, 15, 42, 0
17, 31080, Note_on_c, 15, 36, 0
17, 31080, Note_on_c, 15, 42, 100
17, 31200, Note_on_c, 15, 42, 0
17, 31200, Note_on_c, 15, 42, 100
17, 31200, Note_on_c, 15, 38, 100
17, 31320, Note_on_c, 15, 38, 0
17, 31320, Note_on_c, 15, 42, 0
17, 31320, Note_on_c, 15, 42, 100
17, 31440, Note_on_c, 15, 42, 0
17, 31440, Note_on_c, 15, 42, 100
17, 31560, Note_on_c, 15, 42, 0
17, 31560, Note_on_c, 15, 42, 100
17, 31560, Note_on_c, 15, 36, 100
17, 31680, Note_on_c, 15, 36, 0
17, 31680, Note_on_c, 15, 42, 0
17, 31680, Note_on_c, 15, 36, 100
17, 31680, Note_on_c, 15, 42, 100
17, 31800, Note_on_c, 15, 42, 0
17, 31800, Note_on_c, 15, 36, 0
17, 31800, Note_on_c, 15, 42, 100
17, 31920, Note_on_c, 15, 42, 0
17, 31920, Note_on_c, 15, 36, 100
17, 31920, Note_on_c, 15, 42, 100
17, 32040, Note_on_c, 15, 42, 0
17, 32040, Note_on_c, 15, 36, 0
17, 32040, Note_on_c, 15, 42, 100
17, 32160, Note_on_c, 15, 42, 0
17, 32160, Note_on_c, 15, 42, 100
17, 32160, Note_on_c, 15, 38, 100
17, 32280, Note_on_c, 15, 38, 0
17, 32280, Note_on_c, 15, 42, 0
17, 32280, Note_on_c, 15, 42, 100
17, 32400, Note_on_c, 15, 42, 0
17, 32400, Note_on_c, 15, 42, 100
17, 32520, Note_on_c, 15, 42, 0
17, 32520, Note_on_c, 15, 46, 100
17, 32520, Note_on_c, 15, 36, 100
17, 32640, Note_on_c, 15, 36, 0
17, 32640, Note_on_c, 15, 46, 0
17, 32640, Note_on_c, 15, 36, 100
17, 32640, Note_on_c, 15, 42, 100
17, 32760, Note_on_c, 15, 42, 0
17, 32760, Note_on_c, 15, 36, 0
17, 32760, Note_on_c, 15, 42, 100
17, 32880, Note_on_c, 15, 42, 0
17, 32880, Note_on_c, 15, 42, 100
17, 32880, Note_on_c, 15, 36, 100
17, 33000, Note_on_c, 15, 36, 0
17, 33000, Note_on_c, 15, 42, 0
17, 33000, Note_on_c, 15, 42, 100
17, 33120, Note_on_c, 15, 42, 0
17, 33120, Note_on_c, 15, 38, 100
17, 33120, Note_on_c, 15, 42, 100
17, 33180, Note_on_c, 15, 42, 0
17, 33180, Note_on_c, 15, 42, 100
17, 33240, Note_on_c, 15, 42, 0
17, 33240, Note_on_c, 15, 38, 0
17, 33240, Note_on_c, 15, 42, 100
17, 33300, Note_on_c, 15, 42, 0
17, 33300, Note_on_c, 15, 42, 100
17, 33360, Note_on_c, 15, 42, 0
17, 33360, Note_on_c, 15, 38, 100
17, 33360, Note_on_c, 15, 42, 100
17, 33480, Note_on_c, 15, 42, 0
17, 33480, Note_on_c, 15, 38, 0
17, 33480, Note_on_c, 15, 42, 100
17, 33600, Note_on_c, 15, 42, 0
17, 33600, Note_on_c, 15, 42, 100
17, 33720, Note_on_c, 15, 42, 0
17, 33720, Note_on_c, 15, 42, 100
17, 33840, Note_on_c, 15, 42, 0
17, 33840, Note_on_c, 15, 42, 100
17, 33960, Note_on_c, 15, 42, 0
17, 33960, Note_on_c, 15, 42, 100
17, 34080, Note_on_c, 15, 42, 0
17, 34080, Note_on_c, 15, 42, 100
17, 34080, Note_on_c, 15, 38, 100
17, 34200, Note_on_c, 15, 38, 0
17, 34200, Note_on_c, 15, 42, 0
17, 34200, Note_on_c, 15, 42, 100
17, 34320, Note_on_c, 15, 42, 0
17, 34320, Note_on_c, 15, 38, 100
17, 34320, Note_on_c, 15, 42, 100
17, 34440, Note_on_c, 15, 42, 0
17, 34440, Note_on_c, 15, 38, 0
17, 34440, Note_on_c, 15, 36, 100
17, 34440, Note_on_c, 15, 46, 100
17, 34560, Note_on_c, 15, 46, 0
17, 34560, Note_on_c, 15, 36, 0
17, 34560, End_track
18, 0, Start_track
18, 0, MIDI_port, 0
18, 0, Title_t, "Remix Synth"
18, 0, Program_c, 14, 39
18, 0, Control_c, 14, 7, 0
18, 19200, Note_on_c, 14, 30, 100
18, 19320, Note_on_c, 14, 30, 0
18, 19320, Note_on_c, 14, 30, 100
18, 19440, Note_on_c, 14, 30, 0
18, 19440, Note_on_c, 14, 30, 100
18, 19560, Note_on_c, 14, 30, 0
18, 19560, Note_on_c, 14, 30, 100
18, 19680, Note_on_c, 14, 30, 0
18, 19680, Note_on_c, 14, 30, 100
18, 19800, Note_on_c, 14, 30, 0
18, 21120, Note_on_c, 14, 35, 100
18, 21240, Note_on_c, 14, 35, 0
18, 21240, Note_on_c, 14, 35, 100
18, 21360, Note_on_c, 14, 35, 0
18, 21360, Note_on_c, 14, 35, 100
18, 21480, Note_on_c, 14, 35, 0
18, 21480, Note_on_c, 14, 35, 100
18, 21600, Note_on_c, 14, 35, 0
18, 21600, Note_on_c, 14, 35, 100
18, 21720, Note_on_c, 14, 35, 0
18, 23040, Note_on_c, 14, 30, 100
18, 23160, Note_on_c, 14, 30, 0
18, 23160, Note_on_c, 14, 30, 100
18, 23280, Note_on_c, 14, 30, 0
18, 23280, Note_on_c, 14, 30, 100
18, 23400, Note_on_c, 14, 30, 0
18, 23400, Note_on_c, 14, 30, 100
18, 23520, Note_on_c, 14, 30, 0
18, 23520, Note_on_c, 14, 30, 100
18, 23640, Note_on_c, 14, 30, 0
18, 24480, Note_on_c, 14, 38, 100
18, 24600, Note_on_c, 14, 38, 0
18, 24600, Note_on_c, 14, 38, 100
18, 24720, Note_on_c, 14, 38, 0
18, 24720, Note_on_c, 14, 38, 100
18, 24840, Note_on_c, 14, 38, 0
18, 24840, Note_on_c, 14, 37, 100
18, 24960, Note_on_c, 14, 37, 0
18, 24960, Note_on_c, 14, 37, 100
18, 25080, Note_on_c, 14, 37, 0
18, 25080, Note_on_c, 14, 35, 100
18, 25200, Note_on_c, 14, 35, 0
18, 25200, Note_on_c, 14, 35, 100
18, 25320, Note_on_c, 14, 35, 0
18, 25320, Note_on_c, 14, 35, 100
18, 25440, Note_on_c, 14, 35, 0
18, 25440, Note_on_c, 14, 35, 100
18, 25560, Note_on_c, 14, 35, 0
18, 26880, Note_on_c, 14, 30, 100
18, 27000, Note_on_c, 14, 30, 0
18, 27000, Note_on_c, 14, 30, 100
18, 27120, Note_on_c, 14, 30, 0
18, 27120, Note_on_c, 14, 30, 100
18, 27240, Note_on_c, 14, 30, 0
18, 27240, Note_on_c, 14, 30, 100
18, 27360, Note_on_c, 14, 30, 0
18, 27360, Note_on_c, 14, 30, 100
18, 27480, Note_on_c, 14, 30, 0
18, 28800, Note_on_c, 14, 35, 100
18, 28920, Note_on_c, 14, 35, 0
18, 28920, Note_on_c, 14, 35, 100
18, 29040, Note_on_c, 14, 35, 0
18, 29040, Note_on_c, 14, 35, 100
18, 29160, Note_on_c, 14, 35, 0
18, 29160, Note_on_c, 14, 35, 100
18, 29280, Note_on_c, 14, 35, 0
18, 29280, Note_on_c, 14, 35, 100
18, 29400, Note_on_c, 14, 35, 0
18, 30720, Note_on_c, 14, 30, 100
18, 30840, Note_on_c, 14, 30, 0
18, 30840, Note_on_c, 14, 30, 100
18, 30960, Note_on_c, 14, 30, 0
18, 30960, Note_on_c, 14, 30, 100
18, 31080, Note_on_c, 14, 30, 0
18, 31080, Note_on_c, 14, 30, 100
18, 31200, Note_on_c, 14, 30, 0
18, 31200, Note_on_c, 14, 30, 100
18, 31320, Note_on_c, 14, 30, 0
18, 32160, Note_on_c, 14, 38, 100
18, 32280, Note_on_c, 14, 38, 0
18, 32280, Note_on_c, 14, 38, 100
18, 32400, Note_on_c, 14, 38, 0
18, 32400, Note_on_c, 14, 38, 100
18, 32520, Note_on_c, 14, 38, 0
18, 32520, Note_on_c, 14, 37, 100
18, 32640, Note_on_c, 14, 37, 0
18, 32640, Note_on_c, 14, 37, 100
18, 32760, Note_on_c, 14, 37, 0
18, 32760, Note_on_c, 14, 35, 100
18, 32880, Note_on_c, 14, 35, 0
18, 32880, Note_on_c, 14, 35, 100
18, 33000, Note_on_c, 14, 35, 0
18, 33000, Note_on_c, 14, 35, 100
18, 33120, Note_on_c, 14, 35, 0
18, 33120, Note_on_c, 14, 35, 100
18, 33240, Note_on_c, 14, 35, 0
18, 33240, End_track
19, 0, Start_track
19, 0, MIDI_port, 0
19, 0, Title_t, "Sequenced by:"
19, 0, End_track
20, 0, Start_track
20, 0, MIDI_port, 0
20, 0, Title_t, "Colin Zeal (2001)"
20, 0, End_track
21, 0, Start_track
21, 0, MIDI_port, 0
21, 0, Title_t, "colin.zeal"
21, 0, End_track
22, 0, Start_track
22, 0, MIDI_port, 0
22, 0, Title_t, "@caramail.com"
22, 0, End_track
0, 0, End_of_file
