0, 0, Header, 1, 13, 120
1, 0, Start_track
1, 0, Title_t, "Eight Days A Week"
1, 0, Instrument_name_t, "    by The Beatles"
1, 0, SMPTE_offset, 96, 0, 3, 0, 0
1, 0, MIDI_port, 0
1, 0, Key_signature, 2, "major"
1, 0, Tempo, 425531
1, 0, Time_signature, 4, 2, 24, 8
1, 0, System_exclusive, 10, 65, 16, 66, 18, 64, 0, 127, 0, 65, 247
1, 1, Text_t, "GS Reset - SYX "
1, 44160, Tempo, 857142
1, 45600, System_exclusive, 10, 65, 16, 66, 18, 64, 0, 127, 0, 65, 247
1, 45601, Text_t, "GS Reset - SYX "
1, 45601, End_track
2, 0, Start_track
2, 0, Title_t, "Std Drums"
2, 0, Instrument_name_t, "  ""Beatles For Sale"""
2, 0, MIDI_port, 0
2, 121, Control_c, 9, 7, 100
2, 122, Control_c, 9, 10, 64
2, 123, Control_c, 9, 91, 64
2, 125, Control_c, 9, 93, 25
2, 126, Control_c, 9, 32, 0
2, 126, Control_c, 9, 0, 0
2, 126, Program_c, 9, 0
2, 2400, Note_on_c, 9, 35, 110
2, 2400, Note_on_c, 9, 49, 110
2, 2411, Note_on_c, 9, 35, 0
2, 2411, Note_on_c, 9, 49, 0
2, 2520, Note_on_c, 9, 38, 110
2, 2520, Note_on_c, 9, 39, 120
2, 2520, Note_on_c, 9, 46, 95
2, 2531, Note_on_c, 9, 38, 0
2, 2531, Note_on_c, 9, 39, 0
2, 2531, Note_on_c, 9, 46, 0
2, 2640, Note_on_c, 9, 46, 95
2, 2640, Note_on_c, 9, 35, 110
2, 2651, Note_on_c, 9, 46, 0
2, 2651, Note_on_c, 9, 35, 0
2, 2760, Note_on_c, 9, 39, 120
2, 2760, Note_on_c, 9, 46, 95
2, 2760, Note_on_c, 9, 38, 110
2, 2771, Note_on_c, 9, 39, 0
2, 2771, Note_on_c, 9, 46, 0
2, 2771, Note_on_c, 9, 38, 0
2, 2880, Note_on_c, 9, 35, 110
2, 2880, Note_on_c, 9, 46, 95
2, 2891, Note_on_c, 9, 35, 0
2, 2891, Note_on_c, 9, 46, 0
2, 3000, Note_on_c, 9, 39, 120
2, 3000, Note_on_c, 9, 38, 110
2, 3000, Note_on_c, 9, 46, 95
2, 3011, Note_on_c, 9, 39, 0
2, 3011, Note_on_c, 9, 38, 0
2, 3011, Note_on_c, 9, 46, 0
2, 3120, Note_on_c, 9, 35, 110
2, 3120, Note_on_c, 9, 46, 95
2, 3131, Note_on_c, 9, 35, 0
2, 3131, Note_on_c, 9, 46, 0
2, 3240, Note_on_c, 9, 46, 95
2, 3240, Note_on_c, 9, 38, 110
2, 3240, Note_on_c, 9, 39, 120
2, 3251, Note_on_c, 9, 46, 0
2, 3251, Note_on_c, 9, 38, 0
2, 3251, Note_on_c, 9, 39, 0
2, 3320, Note_on_c, 9, 35, 110
2, 3331, Note_on_c, 9, 35, 0
2, 3360, Note_on_c, 9, 46, 95
2, 3360, Note_on_c, 9, 35, 110
2, 3371, Note_on_c, 9, 46, 0
2, 3371, Note_on_c, 9, 35, 0
2, 3480, Note_on_c, 9, 39, 120
2, 3480, Note_on_c, 9, 38, 110
2, 3480, Note_on_c, 9, 46, 95
2, 3491, Note_on_c, 9, 39, 0
2, 3491, Note_on_c, 9, 38, 0
2, 3491, Note_on_c, 9, 46, 0
2, 3600, Note_on_c, 9, 46, 95
2, 3600, Note_on_c, 9, 35, 110
2, 3611, Note_on_c, 9, 46, 0
2, 3611, Note_on_c, 9, 35, 0
2, 3720, Note_on_c, 9, 38, 110
2, 3720, Note_on_c, 9, 39, 120
2, 3720, Note_on_c, 9, 46, 95
2, 3731, Note_on_c, 9, 38, 0
2, 3731, Note_on_c, 9, 39, 0
2, 3731, Note_on_c, 9, 46, 0
2, 3800, Note_on_c, 9, 35, 110
2, 3811, Note_on_c, 9, 35, 0
2, 3840, Note_on_c, 9, 35, 110
2, 3840, Note_on_c, 9, 46, 95
2, 3851, Note_on_c, 9, 35, 0
2, 3851, Note_on_c, 9, 46, 0
2, 3920, Note_on_c, 9, 35, 110
2, 3931, Note_on_c, 9, 35, 0
2, 3960, Note_on_c, 9, 46, 95
2, 3960, Note_on_c, 9, 39, 120
2, 3960, Note_on_c, 9, 38, 110
2, 3971, Note_on_c, 9, 46, 0
2, 3971, Note_on_c, 9, 39, 0
2, 3971, Note_on_c, 9, 38, 0
2, 4080, Note_on_c, 9, 46, 95
2, 4080, Note_on_c, 9, 35, 110
2, 4091, Note_on_c, 9, 46, 0
2, 4091, Note_on_c, 9, 35, 0
2, 4160, Note_on_c, 9, 35, 110
2, 4171, Note_on_c, 9, 35, 0
2, 4200, Note_on_c, 9, 38, 110
2, 4200, Note_on_c, 9, 39, 120
2, 4200, Note_on_c, 9, 46, 95
2, 4211, Note_on_c, 9, 38, 0
2, 4211, Note_on_c, 9, 39, 0
2, 4211, Note_on_c, 9, 46, 0
2, 4280, Note_on_c, 9, 35, 110
2, 4291, Note_on_c, 9, 35, 0
2, 4320, Note_on_c, 9, 35, 110
2, 4320, Note_on_c, 9, 46, 95
2, 4331, Note_on_c, 9, 35, 0
2, 4331, Note_on_c, 9, 46, 0
2, 4440, Note_on_c, 9, 39, 120
2, 4440, Note_on_c, 9, 38, 110
2, 4440, Note_on_c, 9, 46, 95
2, 4451, Note_on_c, 9, 39, 0
2, 4451, Note_on_c, 9, 38, 0
2, 4451, Note_on_c, 9, 46, 0
2, 4560, Note_on_c, 9, 35, 110
2, 4560, Note_on_c, 9, 46, 95
2, 4571, Note_on_c, 9, 35, 0
2, 4571, Note_on_c, 9, 46, 0
2, 4680, Note_on_c, 9, 39, 120
2, 4680, Note_on_c, 9, 46, 95
2, 4680, Note_on_c, 9, 38, 110
2, 4691, Note_on_c, 9, 39, 0
2, 4691, Note_on_c, 9, 46, 0
2, 4691, Note_on_c, 9, 38, 0
2, 4800, Note_on_c, 9, 46, 95
2, 4800, Note_on_c, 9, 35, 110
2, 4811, Note_on_c, 9, 46, 0
2, 4811, Note_on_c, 9, 35, 0
2, 4920, Note_on_c, 9, 46, 95
2, 4920, Note_on_c, 9, 39, 120
2, 4920, Note_on_c, 9, 38, 110
2, 4931, Note_on_c, 9, 46, 0
2, 4931, Note_on_c, 9, 39, 0
2, 4931, Note_on_c, 9, 38, 0
2, 5040, Note_on_c, 9, 35, 110
2, 5040, Note_on_c, 9, 46, 95
2, 5051, Note_on_c, 9, 35, 0
2, 5051, Note_on_c, 9, 46, 0
2, 5120, Note_on_c, 9, 35, 110
2, 5131, Note_on_c, 9, 35, 0
2, 5160, Note_on_c, 9, 39, 120
2, 5160, Note_on_c, 9, 38, 110
2, 5160, Note_on_c, 9, 46, 95
2, 5171, Note_on_c, 9, 39, 0
2, 5171, Note_on_c, 9, 38, 0
2, 5171, Note_on_c, 9, 46, 0
2, 5240, Note_on_c, 9, 35, 110
2, 5251, Note_on_c, 9, 35, 0
2, 5280, Note_on_c, 9, 35, 110
2, 5280, Note_on_c, 9, 46, 95
2, 5291, Note_on_c, 9, 35, 0
2, 5291, Note_on_c, 9, 46, 0
2, 5400, Note_on_c, 9, 46, 95
2, 5400, Note_on_c, 9, 39, 120
2, 5400, Note_on_c, 9, 38, 110
2, 5411, Note_on_c, 9, 46, 0
2, 5411, Note_on_c, 9, 39, 0
2, 5411, Note_on_c, 9, 38, 0
2, 5520, Note_on_c, 9, 46, 95
2, 5520, Note_on_c, 9, 35, 110
2, 5531, Note_on_c, 9, 46, 0
2, 5531, Note_on_c, 9, 35, 0
2, 5640, Note_on_c, 9, 46, 95
2, 5640, Note_on_c, 9, 39, 120
2, 5640, Note_on_c, 9, 38, 110
2, 5651, Note_on_c, 9, 46, 0
2, 5651, Note_on_c, 9, 39, 0
2, 5651, Note_on_c, 9, 38, 0
2, 5720, Note_on_c, 9, 35, 110
2, 5731, Note_on_c, 9, 35, 0
2, 5760, Note_on_c, 9, 35, 110
2, 5760, Note_on_c, 9, 46, 95
2, 5771, Note_on_c, 9, 35, 0
2, 5771, Note_on_c, 9, 46, 0
2, 5880, Note_on_c, 9, 38, 110
2, 5880, Note_on_c, 9, 39, 120
2, 5880, Note_on_c, 9, 46, 95
2, 5891, Note_on_c, 9, 38, 0
2, 5891, Note_on_c, 9, 39, 0
2, 5891, Note_on_c, 9, 46, 0
2, 6000, Note_on_c, 9, 35, 110
2, 6000, Note_on_c, 9, 46, 95
2, 6011, Note_on_c, 9, 35, 0
2, 6011, Note_on_c, 9, 46, 0
2, 6080, Note_on_c, 9, 35, 110
2, 6091, Note_on_c, 9, 35, 0
2, 6120, Note_on_c, 9, 39, 120
2, 6120, Note_on_c, 9, 38, 110
2, 6120, Note_on_c, 9, 46, 95
2, 6131, Note_on_c, 9, 39, 0
2, 6131, Note_on_c, 9, 38, 0
2, 6131, Note_on_c, 9, 46, 0
2, 6200, Note_on_c, 9, 35, 110
2, 6211, Note_on_c, 9, 35, 0
2, 6240, Note_on_c, 9, 35, 110
2, 6240, Note_on_c, 9, 43, 100
2, 6251, Note_on_c, 9, 35, 0
2, 6251, Note_on_c, 9, 43, 0
2, 6360, Note_on_c, 9, 39, 120
2, 6360, Note_on_c, 9, 35, 110
2, 6360, Note_on_c, 9, 43, 100
2, 6371, Note_on_c, 9, 39, 0
2, 6371, Note_on_c, 9, 35, 0
2, 6371, Note_on_c, 9, 43, 0
2, 6480, Note_on_c, 9, 35, 110
2, 6480, Note_on_c, 9, 43, 100
2, 6491, Note_on_c, 9, 35, 0
2, 6491, Note_on_c, 9, 43, 0
2, 6560, Note_on_c, 9, 39, 120
2, 6560, Note_on_c, 9, 43, 100
2, 6571, Note_on_c, 9, 39, 0
2, 6571, Note_on_c, 9, 43, 0
2, 6600, Note_on_c, 9, 35, 110
2, 6600, Note_on_c, 9, 39, 120
2, 6600, Note_on_c, 9, 43, 100
2, 6611, Note_on_c, 9, 35, 0
2, 6611, Note_on_c, 9, 39, 0
2, 6611, Note_on_c, 9, 43, 0
2, 6720, Note_on_c, 9, 35, 110
2, 6720, Note_on_c, 9, 43, 100
2, 6731, Note_on_c, 9, 35, 0
2, 6731, Note_on_c, 9, 43, 0
2, 6840, Note_on_c, 9, 35, 110
2, 6840, Note_on_c, 9, 43, 100
2, 6840, Note_on_c, 9, 39, 120
2, 6851, Note_on_c, 9, 35, 0
2, 6851, Note_on_c, 9, 43, 0
2, 6851, Note_on_c, 9, 39, 0
2, 6960, Note_on_c, 9, 35, 110
2, 6960, Note_on_c, 9, 43, 100
2, 6971, Note_on_c, 9, 35, 0
2, 6971, Note_on_c, 9, 43, 0
2, 7040, Note_on_c, 9, 43, 100
2, 7040, Note_on_c, 9, 39, 120
2, 7051, Note_on_c, 9, 43, 0
2, 7051, Note_on_c, 9, 39, 0
2, 7080, Note_on_c, 9, 43, 100
2, 7080, Note_on_c, 9, 35, 110
2, 7080, Note_on_c, 9, 39, 120
2, 7091, Note_on_c, 9, 43, 0
2, 7091, Note_on_c, 9, 35, 0
2, 7091, Note_on_c, 9, 39, 0
2, 7200, Note_on_c, 9, 43, 100
2, 7200, Note_on_c, 9, 35, 110
2, 7211, Note_on_c, 9, 43, 0
2, 7211, Note_on_c, 9, 35, 0
2, 7320, Note_on_c, 9, 39, 120
2, 7320, Note_on_c, 9, 35, 110
2, 7320, Note_on_c, 9, 43, 100
2, 7331, Note_on_c, 9, 39, 0
2, 7331, Note_on_c, 9, 35, 0
2, 7331, Note_on_c, 9, 43, 0
2, 7440, Note_on_c, 9, 43, 100
2, 7440, Note_on_c, 9, 35, 110
2, 7451, Note_on_c, 9, 43, 0
2, 7451, Note_on_c, 9, 35, 0
2, 7520, Note_on_c, 9, 43, 100
2, 7520, Note_on_c, 9, 39, 120
2, 7531, Note_on_c, 9, 43, 0
2, 7531, Note_on_c, 9, 39, 0
2, 7560, Note_on_c, 9, 43, 100
2, 7560, Note_on_c, 9, 35, 110
2, 7560, Note_on_c, 9, 39, 120
2, 7571, Note_on_c, 9, 43, 0
2, 7571, Note_on_c, 9, 35, 0
2, 7571, Note_on_c, 9, 39, 0
2, 7680, Note_on_c, 9, 43, 100
2, 7680, Note_on_c, 9, 35, 110
2, 7691, Note_on_c, 9, 43, 0
2, 7691, Note_on_c, 9, 35, 0
2, 7800, Note_on_c, 9, 35, 110
2, 7800, Note_on_c, 9, 43, 100
2, 7800, Note_on_c, 9, 39, 120
2, 7811, Note_on_c, 9, 35, 0
2, 7811, Note_on_c, 9, 43, 0
2, 7811, Note_on_c, 9, 39, 0
2, 7920, Note_on_c, 9, 43, 100
2, 7920, Note_on_c, 9, 35, 110
2, 7931, Note_on_c, 9, 43, 0
2, 7931, Note_on_c, 9, 35, 0
2, 8000, Note_on_c, 9, 38, 110
2, 8000, Note_on_c, 9, 39, 120
2, 8011, Note_on_c, 9, 38, 0
2, 8011, Note_on_c, 9, 39, 0
2, 8020, Note_on_c, 9, 38, 110
2, 8031, Note_on_c, 9, 38, 0
2, 8040, Note_on_c, 9, 39, 120
2, 8040, Note_on_c, 9, 38, 110
2, 8040, Note_on_c, 9, 35, 110
2, 8051, Note_on_c, 9, 39, 0
2, 8051, Note_on_c, 9, 38, 0
2, 8051, Note_on_c, 9, 35, 0
2, 8120, Note_on_c, 9, 38, 110
2, 8131, Note_on_c, 9, 38, 0
2, 8160, Note_on_c, 9, 46, 95
2, 8160, Note_on_c, 9, 35, 110
2, 8171, Note_on_c, 9, 46, 0
2, 8171, Note_on_c, 9, 35, 0
2, 8280, Note_on_c, 9, 46, 95
2, 8280, Note_on_c, 9, 38, 110
2, 8280, Note_on_c, 9, 39, 120
2, 8291, Note_on_c, 9, 46, 0
2, 8291, Note_on_c, 9, 38, 0
2, 8291, Note_on_c, 9, 39, 0
2, 8400, Note_on_c, 9, 46, 95
2, 8400, Note_on_c, 9, 35, 110
2, 8411, Note_on_c, 9, 46, 0
2, 8411, Note_on_c, 9, 35, 0
2, 8480, Note_on_c, 9, 35, 110
2, 8491, Note_on_c, 9, 35, 0
2, 8520, Note_on_c, 9, 38, 110
2, 8520, Note_on_c, 9, 39, 120
2, 8520, Note_on_c, 9, 46, 95
2, 8531, Note_on_c, 9, 38, 0
2, 8531, Note_on_c, 9, 39, 0
2, 8531, Note_on_c, 9, 46, 0
2, 8640, Note_on_c, 9, 46, 95
2, 8640, Note_on_c, 9, 35, 110
2, 8651, Note_on_c, 9, 46, 0
2, 8651, Note_on_c, 9, 35, 0
2, 8760, Note_on_c, 9, 38, 110
2, 8760, Note_on_c, 9, 46, 95
2, 8760, Note_on_c, 9, 39, 120
2, 8771, Note_on_c, 9, 38, 0
2, 8771, Note_on_c, 9, 46, 0
2, 8771, Note_on_c, 9, 39, 0
2, 8840, Note_on_c, 9, 35, 110
2, 8851, Note_on_c, 9, 35, 0
2, 8880, Note_on_c, 9, 35, 110
2, 8880, Note_on_c, 9, 46, 95
2, 8891, Note_on_c, 9, 35, 0
2, 8891, Note_on_c, 9, 46, 0
2, 8960, Note_on_c, 9, 35, 110
2, 8971, Note_on_c, 9, 35, 0
2, 9000, Note_on_c, 9, 46, 95
2, 9000, Note_on_c, 9, 38, 110
2, 9000, Note_on_c, 9, 39, 120
2, 9011, Note_on_c, 9, 46, 0
2, 9011, Note_on_c, 9, 38, 0
2, 9011, Note_on_c, 9, 39, 0
2, 9120, Note_on_c, 9, 35, 110
2, 9120, Note_on_c, 9, 46, 95
2, 9131, Note_on_c, 9, 35, 0
2, 9131, Note_on_c, 9, 46, 0
2, 9200, Note_on_c, 9, 35, 110
2, 9211, Note_on_c, 9, 35, 0
2, 9240, Note_on_c, 9, 46, 95
2, 9240, Note_on_c, 9, 39, 120
2, 9240, Note_on_c, 9, 38, 110
2, 9251, Note_on_c, 9, 46, 0
2, 9251, Note_on_c, 9, 39, 0
2, 9251, Note_on_c, 9, 38, 0
2, 9360, Note_on_c, 9, 46, 95
2, 9360, Note_on_c, 9, 35, 110
2, 9371, Note_on_c, 9, 46, 0
2, 9371, Note_on_c, 9, 35, 0
2, 9480, Note_on_c, 9, 39, 120
2, 9480, Note_on_c, 9, 46, 95
2, 9480, Note_on_c, 9, 38, 110
2, 9491, Note_on_c, 9, 39, 0
2, 9491, Note_on_c, 9, 46, 0
2, 9491, Note_on_c, 9, 38, 0
2, 9560, Note_on_c, 9, 35, 110
2, 9571, Note_on_c, 9, 35, 0
2, 9600, Note_on_c, 9, 46, 95
2, 9600, Note_on_c, 9, 35, 110
2, 9611, Note_on_c, 9, 46, 0
2, 9611, Note_on_c, 9, 35, 0
2, 9720, Note_on_c, 9, 46, 95
2, 9720, Note_on_c, 9, 39, 120
2, 9720, Note_on_c, 9, 38, 110
2, 9731, Note_on_c, 9, 46, 0
2, 9731, Note_on_c, 9, 39, 0
2, 9731, Note_on_c, 9, 38, 0
2, 9840, Note_on_c, 9, 35, 110
2, 9840, Note_on_c, 9, 46, 95
2, 9851, Note_on_c, 9, 35, 0
2, 9851, Note_on_c, 9, 46, 0
2, 9920, Note_on_c, 9, 35, 110
2, 9931, Note_on_c, 9, 35, 0
2, 9960, Note_on_c, 9, 39, 120
2, 9960, Note_on_c, 9, 38, 110
2, 9960, Note_on_c, 9, 46, 95
2, 9971, Note_on_c, 9, 39, 0
2, 9971, Note_on_c, 9, 38, 0
2, 9971, Note_on_c, 9, 46, 0
2, 10080, Note_on_c, 9, 35, 110
2, 10080, Note_on_c, 9, 46, 95
2, 10091, Note_on_c, 9, 35, 0
2, 10091, Note_on_c, 9, 46, 0
2, 10200, Note_on_c, 9, 46, 95
2, 10200, Note_on_c, 9, 39, 120
2, 10200, Note_on_c, 9, 38, 110
2, 10211, Note_on_c, 9, 46, 0
2, 10211, Note_on_c, 9, 39, 0
2, 10211, Note_on_c, 9, 38, 0
2, 10320, Note_on_c, 9, 35, 110
2, 10320, Note_on_c, 9, 46, 95
2, 10331, Note_on_c, 9, 35, 0
2, 10331, Note_on_c, 9, 46, 0
2, 10440, Note_on_c, 9, 46, 95
2, 10440, Note_on_c, 9, 38, 110
2, 10440, Note_on_c, 9, 39, 120
2, 10451, Note_on_c, 9, 46, 0
2, 10451, Note_on_c, 9, 38, 0
2, 10451, Note_on_c, 9, 39, 0
2, 10560, Note_on_c, 9, 35, 110
2, 10560, Note_on_c, 9, 46, 95
2, 10571, Note_on_c, 9, 35, 0
2, 10571, Note_on_c, 9, 46, 0
2, 10680, Note_on_c, 9, 39, 120
2, 10680, Note_on_c, 9, 46, 95
2, 10680, Note_on_c, 9, 38, 110
2, 10691, Note_on_c, 9, 39, 0
2, 10691, Note_on_c, 9, 46, 0
2, 10691, Note_on_c, 9, 38, 0
2, 10800, Note_on_c, 9, 35, 110
2, 10800, Note_on_c, 9, 46, 95
2, 10811, Note_on_c, 9, 35, 0
2, 10811, Note_on_c, 9, 46, 0
2, 10920, Note_on_c, 9, 46, 95
2, 10920, Note_on_c, 9, 39, 120
2, 10920, Note_on_c, 9, 38, 110
2, 10931, Note_on_c, 9, 46, 0
2, 10931, Note_on_c, 9, 39, 0
2, 10931, Note_on_c, 9, 38, 0
2, 11000, Note_on_c, 9, 35, 110
2, 11011, Note_on_c, 9, 35, 0
2, 11040, Note_on_c, 9, 35, 110
2, 11040, Note_on_c, 9, 46, 95
2, 11051, Note_on_c, 9, 35, 0
2, 11051, Note_on_c, 9, 46, 0
2, 11160, Note_on_c, 9, 38, 110
2, 11160, Note_on_c, 9, 46, 95
2, 11160, Note_on_c, 9, 39, 120
2, 11171, Note_on_c, 9, 38, 0
2, 11171, Note_on_c, 9, 46, 0
2, 11171, Note_on_c, 9, 39, 0
2, 11280, Note_on_c, 9, 46, 95
2, 11280, Note_on_c, 9, 35, 110
2, 11291, Note_on_c, 9, 46, 0
2, 11291, Note_on_c, 9, 35, 0
2, 11400, Note_on_c, 9, 38, 110
2, 11400, Note_on_c, 9, 39, 120
2, 11400, Note_on_c, 9, 46, 95
2, 11411, Note_on_c, 9, 38, 0
2, 11411, Note_on_c, 9, 39, 0
2, 11411, Note_on_c, 9, 46, 0
2, 11480, Note_on_c, 9, 35, 110
2, 11491, Note_on_c, 9, 35, 0
2, 11520, Note_on_c, 9, 46, 95
2, 11520, Note_on_c, 9, 35, 110
2, 11531, Note_on_c, 9, 46, 0
2, 11531, Note_on_c, 9, 35, 0
2, 11600, Note_on_c, 9, 35, 110
2, 11611, Note_on_c, 9, 35, 0
2, 11640, Note_on_c, 9, 39, 120
2, 11640, Note_on_c, 9, 46, 95
2, 11640, Note_on_c, 9, 38, 110
2, 11651, Note_on_c, 9, 39, 0
2, 11651, Note_on_c, 9, 46, 0
2, 11651, Note_on_c, 9, 38, 0
2, 11760, Note_on_c, 9, 35, 110
2, 11760, Note_on_c, 9, 46, 95
2, 11771, Note_on_c, 9, 35, 0
2, 11771, Note_on_c, 9, 46, 0
2, 11840, Note_on_c, 9, 35, 110
2, 11851, Note_on_c, 9, 35, 0
2, 11880, Note_on_c, 9, 46, 95
2, 11880, Note_on_c, 9, 38, 110
2, 11880, Note_on_c, 9, 39, 120
2, 11891, Note_on_c, 9, 46, 0
2, 11891, Note_on_c, 9, 38, 0
2, 11891, Note_on_c, 9, 39, 0
2, 11960, Note_on_c, 9, 35, 110
2, 11971, Note_on_c, 9, 35, 0
2, 12000, Note_on_c, 9, 35, 110
2, 12000, Note_on_c, 9, 46, 95
2, 12011, Note_on_c, 9, 35, 0
2, 12011, Note_on_c, 9, 46, 0
2, 12120, Note_on_c, 9, 39, 120
2, 12120, Note_on_c, 9, 46, 95
2, 12120, Note_on_c, 9, 38, 110
2, 12131, Note_on_c, 9, 39, 0
2, 12131, Note_on_c, 9, 46, 0
2, 12131, Note_on_c, 9, 38, 0
2, 12240, Note_on_c, 9, 35, 110
2, 12240, Note_on_c, 9, 46, 95
2, 12251, Note_on_c, 9, 35, 0
2, 12251, Note_on_c, 9, 46, 0
2, 12360, Note_on_c, 9, 46, 95
2, 12360, Note_on_c, 9, 39, 120
2, 12360, Note_on_c, 9, 38, 110
2, 12371, Note_on_c, 9, 46, 0
2, 12371, Note_on_c, 9, 39, 0
2, 12371, Note_on_c, 9, 38, 0
2, 12480, Note_on_c, 9, 46, 95
2, 12480, Note_on_c, 9, 35, 110
2, 12491, Note_on_c, 9, 46, 0
2, 12491, Note_on_c, 9, 35, 0
2, 12600, Note_on_c, 9, 46, 95
2, 12600, Note_on_c, 9, 39, 120
2, 12600, Note_on_c, 9, 38, 110
2, 12611, Note_on_c, 9, 46, 0
2, 12611, Note_on_c, 9, 39, 0
2, 12611, Note_on_c, 9, 38, 0
2, 12720, Note_on_c, 9, 35, 110
2, 12720, Note_on_c, 9, 46, 95
2, 12731, Note_on_c, 9, 35, 0
2, 12731, Note_on_c, 9, 46, 0
2, 12800, Note_on_c, 9, 35, 110
2, 12811, Note_on_c, 9, 35, 0
2, 12840, Note_on_c, 9, 38, 110
2, 12840, Note_on_c, 9, 46, 95
2, 12840, Note_on_c, 9, 39, 120
2, 12851, Note_on_c, 9, 38, 0
2, 12851, Note_on_c, 9, 46, 0
2, 12851, Note_on_c, 9, 39, 0
2, 12920, Note_on_c, 9, 35, 110
2, 12931, Note_on_c, 9, 35, 0
2, 12960, Note_on_c, 9, 46, 95
2, 12960, Note_on_c, 9, 35, 110
2, 12971, Note_on_c, 9, 46, 0
2, 12971, Note_on_c, 9, 35, 0
2, 13080, Note_on_c, 9, 38, 110
2, 13080, Note_on_c, 9, 39, 120
2, 13080, Note_on_c, 9, 46, 95
2, 13091, Note_on_c, 9, 38, 0
2, 13091, Note_on_c, 9, 39, 0
2, 13091, Note_on_c, 9, 46, 0
2, 13200, Note_on_c, 9, 35, 110
2, 13200, Note_on_c, 9, 46, 95
2, 13211, Note_on_c, 9, 35, 0
2, 13211, Note_on_c, 9, 46, 0
2, 13320, Note_on_c, 9, 38, 110
2, 13320, Note_on_c, 9, 46, 95
2, 13320, Note_on_c, 9, 39, 120
2, 13331, Note_on_c, 9, 38, 0
2, 13331, Note_on_c, 9, 46, 0
2, 13331, Note_on_c, 9, 39, 0
2, 13400, Note_on_c, 9, 35, 110
2, 13411, Note_on_c, 9, 35, 0
2, 13440, Note_on_c, 9, 35, 110
2, 13440, Note_on_c, 9, 46, 95
2, 13451, Note_on_c, 9, 35, 0
2, 13451, Note_on_c, 9, 46, 0
2, 13560, Note_on_c, 9, 39, 120
2, 13560, Note_on_c, 9, 46, 95
2, 13560, Note_on_c, 9, 38, 110
2, 13571, Note_on_c, 9, 39, 0
2, 13571, Note_on_c, 9, 46, 0
2, 13571, Note_on_c, 9, 38, 0
2, 13680, Note_on_c, 9, 35, 110
2, 13680, Note_on_c, 9, 46, 95
2, 13691, Note_on_c, 9, 35, 0
2, 13691, Note_on_c, 9, 46, 0
2, 13760, Note_on_c, 9, 35, 110
2, 13771, Note_on_c, 9, 35, 0
2, 13800, Note_on_c, 9, 39, 120
2, 13800, Note_on_c, 9, 46, 95
2, 13800, Note_on_c, 9, 38, 110
2, 13811, Note_on_c, 9, 39, 0
2, 13811, Note_on_c, 9, 46, 0
2, 13811, Note_on_c, 9, 38, 0
2, 13880, Note_on_c, 9, 35, 110
2, 13891, Note_on_c, 9, 35, 0
2, 13920, Note_on_c, 9, 35, 110
2, 13920, Note_on_c, 9, 43, 100
2, 13931, Note_on_c, 9, 35, 0
2, 13931, Note_on_c, 9, 43, 0
2, 14040, Note_on_c, 9, 35, 110
2, 14040, Note_on_c, 9, 43, 100
2, 14040, Note_on_c, 9, 39, 120
2, 14051, Note_on_c, 9, 35, 0
2, 14051, Note_on_c, 9, 43, 0
2, 14051, Note_on_c, 9, 39, 0
2, 14160, Note_on_c, 9, 43, 100
2, 14160, Note_on_c, 9, 35, 110
2, 14171, Note_on_c, 9, 43, 0
2, 14171, Note_on_c, 9, 35, 0
2, 14240, Note_on_c, 9, 39, 120
2, 14240, Note_on_c, 9, 43, 100
2, 14251, Note_on_c, 9, 39, 0
2, 14251, Note_on_c, 9, 43, 0
2, 14280, Note_on_c, 9, 35, 110
2, 14280, Note_on_c, 9, 39, 120
2, 14280, Note_on_c, 9, 43, 100
2, 14291, Note_on_c, 9, 35, 0
2, 14291, Note_on_c, 9, 39, 0
2, 14291, Note_on_c, 9, 43, 0
2, 14400, Note_on_c, 9, 43, 100
2, 14400, Note_on_c, 9, 35, 110
2, 14411, Note_on_c, 9, 43, 0
2, 14411, Note_on_c, 9, 35, 0
2, 14520, Note_on_c, 9, 43, 100
2, 14520, Note_on_c, 9, 39, 120
2, 14520, Note_on_c, 9, 35, 110
2, 14531, Note_on_c, 9, 43, 0
2, 14531, Note_on_c, 9, 39, 0
2, 14531, Note_on_c, 9, 35, 0
2, 14640, Note_on_c, 9, 43, 100
2, 14640, Note_on_c, 9, 35, 110
2, 14651, Note_on_c, 9, 43, 0
2, 14651, Note_on_c, 9, 35, 0
2, 14720, Note_on_c, 9, 39, 120
2, 14720, Note_on_c, 9, 43, 100
2, 14731, Note_on_c, 9, 39, 0
2, 14731, Note_on_c, 9, 43, 0
2, 14760, Note_on_c, 9, 35, 110
2, 14760, Note_on_c, 9, 39, 120
2, 14760, Note_on_c, 9, 43, 100
2, 14771, Note_on_c, 9, 35, 0
2, 14771, Note_on_c, 9, 39, 0
2, 14771, Note_on_c, 9, 43, 0
2, 14880, Note_on_c, 9, 43, 100
2, 14880, Note_on_c, 9, 35, 110
2, 14891, Note_on_c, 9, 43, 0
2, 14891, Note_on_c, 9, 35, 0
2, 15000, Note_on_c, 9, 39, 120
2, 15000, Note_on_c, 9, 35, 110
2, 15000, Note_on_c, 9, 43, 100
2, 15011, Note_on_c, 9, 39, 0
2, 15011, Note_on_c, 9, 35, 0
2, 15011, Note_on_c, 9, 43, 0
2, 15120, Note_on_c, 9, 43, 100
2, 15120, Note_on_c, 9, 35, 110
2, 15131, Note_on_c, 9, 43, 0
2, 15131, Note_on_c, 9, 35, 0
2, 15200, Note_on_c, 9, 39, 120
2, 15200, Note_on_c, 9, 43, 100
2, 15211, Note_on_c, 9, 39, 0
2, 15211, Note_on_c, 9, 43, 0
2, 15240, Note_on_c, 9, 39, 120
2, 15240, Note_on_c, 9, 35, 110
2, 15240, Note_on_c, 9, 43, 100
2, 15251, Note_on_c, 9, 39, 0
2, 15251, Note_on_c, 9, 35, 0
2, 15251, Note_on_c, 9, 43, 0
2, 15360, Note_on_c, 9, 35, 110
2, 15360, Note_on_c, 9, 43, 100
2, 15371, Note_on_c, 9, 35, 0
2, 15371, Note_on_c, 9, 43, 0
2, 15480, Note_on_c, 9, 35, 110
2, 15480, Note_on_c, 9, 43, 100
2, 15480, Note_on_c, 9, 39, 120
2, 15491, Note_on_c, 9, 35, 0
2, 15491, Note_on_c, 9, 43, 0
2, 15491, Note_on_c, 9, 39, 0
2, 15600, Note_on_c, 9, 35, 110
2, 15600, Note_on_c, 9, 43, 100
2, 15611, Note_on_c, 9, 35, 0
2, 15611, Note_on_c, 9, 43, 0
2, 15680, Note_on_c, 9, 39, 120
2, 15680, Note_on_c, 9, 38, 110
2, 15691, Note_on_c, 9, 39, 0
2, 15691, Note_on_c, 9, 38, 0
2, 15700, Note_on_c, 9, 38, 110
2, 15711, Note_on_c, 9, 38, 0
2, 15720, Note_on_c, 9, 35, 110
2, 15720, Note_on_c, 9, 38, 110
2, 15720, Note_on_c, 9, 39, 120
2, 15731, Note_on_c, 9, 35, 0
2, 15731, Note_on_c, 9, 38, 0
2, 15731, Note_on_c, 9, 39, 0
2, 15800, Note_on_c, 9, 38, 110
2, 15811, Note_on_c, 9, 38, 0
2, 15840, Note_on_c, 9, 49, 108
2, 15840, Note_on_c, 9, 35, 110
2, 15851, Note_on_c, 9, 49, 0
2, 15851, Note_on_c, 9, 35, 0
2, 15960, Note_on_c, 9, 38, 110
2, 15960, Note_on_c, 9, 46, 95
2, 15960, Note_on_c, 9, 39, 120
2, 15971, Note_on_c, 9, 38, 0
2, 15971, Note_on_c, 9, 46, 0
2, 15971, Note_on_c, 9, 39, 0
2, 16080, Note_on_c, 9, 46, 95
2, 16080, Note_on_c, 9, 35, 110
2, 16091, Note_on_c, 9, 46, 0
2, 16091, Note_on_c, 9, 35, 0
2, 16160, Note_on_c, 9, 35, 110
2, 16171, Note_on_c, 9, 35, 0
2, 16200, Note_on_c, 9, 46, 95
2, 16200, Note_on_c, 9, 38, 110
2, 16200, Note_on_c, 9, 39, 120
2, 16211, Note_on_c, 9, 46, 0
2, 16211, Note_on_c, 9, 38, 0
2, 16211, Note_on_c, 9, 39, 0
2, 16320, Note_on_c, 9, 46, 95
2, 16320, Note_on_c, 9, 35, 110
2, 16331, Note_on_c, 9, 46, 0
2, 16331, Note_on_c, 9, 35, 0
2, 16440, Note_on_c, 9, 39, 120
2, 16440, Note_on_c, 9, 46, 95
2, 16440, Note_on_c, 9, 38, 110
2, 16451, Note_on_c, 9, 39, 0
2, 16451, Note_on_c, 9, 46, 0
2, 16451, Note_on_c, 9, 38, 0
2, 16520, Note_on_c, 9, 35, 110
2, 16531, Note_on_c, 9, 35, 0
2, 16560, Note_on_c, 9, 46, 95
2, 16560, Note_on_c, 9, 35, 110
2, 16571, Note_on_c, 9, 46, 0
2, 16571, Note_on_c, 9, 35, 0
2, 16640, Note_on_c, 9, 35, 110
2, 16651, Note_on_c, 9, 35, 0
2, 16680, Note_on_c, 9, 38, 110
2, 16680, Note_on_c, 9, 39, 120
2, 16680, Note_on_c, 9, 46, 95
2, 16691, Note_on_c, 9, 38, 0
2, 16691, Note_on_c, 9, 39, 0
2, 16691, Note_on_c, 9, 46, 0
2, 16800, Note_on_c, 9, 49, 104
2, 16800, Note_on_c, 9, 35, 110
2, 16811, Note_on_c, 9, 49, 0
2, 16811, Note_on_c, 9, 35, 0
2, 16880, Note_on_c, 9, 35, 110
2, 16891, Note_on_c, 9, 35, 0
2, 16920, Note_on_c, 9, 46, 95
2, 16920, Note_on_c, 9, 39, 120
2, 16920, Note_on_c, 9, 38, 110
2, 16931, Note_on_c, 9, 46, 0
2, 16931, Note_on_c, 9, 39, 0
2, 16931, Note_on_c, 9, 38, 0
2, 17040, Note_on_c, 9, 46, 95
2, 17040, Note_on_c, 9, 35, 110
2, 17051, Note_on_c, 9, 46, 0
2, 17051, Note_on_c, 9, 35, 0
2, 17160, Note_on_c, 9, 38, 110
2, 17160, Note_on_c, 9, 39, 120
2, 17160, Note_on_c, 9, 46, 95
2, 17171, Note_on_c, 9, 38, 0
2, 17171, Note_on_c, 9, 39, 0
2, 17171, Note_on_c, 9, 46, 0
2, 17280, Note_on_c, 9, 35, 110
2, 17280, Note_on_c, 9, 46, 95
2, 17291, Note_on_c, 9, 35, 0
2, 17291, Note_on_c, 9, 46, 0
2, 17400, Note_on_c, 9, 46, 95
2, 17400, Note_on_c, 9, 38, 110
2, 17400, Note_on_c, 9, 39, 120
2, 17411, Note_on_c, 9, 46, 0
2, 17411, Note_on_c, 9, 38, 0
2, 17411, Note_on_c, 9, 39, 0
2, 17520, Note_on_c, 9, 46, 95
2, 17520, Note_on_c, 9, 35, 110
2, 17531, Note_on_c, 9, 46, 0
2, 17531, Note_on_c, 9, 35, 0
2, 17600, Note_on_c, 9, 35, 110
2, 17611, Note_on_c, 9, 35, 0
2, 17640, Note_on_c, 9, 39, 120
2, 17640, Note_on_c, 9, 38, 110
2, 17640, Note_on_c, 9, 46, 95
2, 17651, Note_on_c, 9, 39, 0
2, 17651, Note_on_c, 9, 38, 0
2, 17651, Note_on_c, 9, 46, 0
2, 17760, Note_on_c, 9, 35, 110
2, 17760, Note_on_c, 9, 49, 102
2, 17771, Note_on_c, 9, 35, 0
2, 17771, Note_on_c, 9, 49, 0
2, 17880, Note_on_c, 9, 38, 110
2, 17880, Note_on_c, 9, 46, 95
2, 17891, Note_on_c, 9, 38, 0
2, 17891, Note_on_c, 9, 46, 0
2, 17960, Note_on_c, 9, 35, 110
2, 17971, Note_on_c, 9, 35, 0
2, 18000, Note_on_c, 9, 35, 110
2, 18000, Note_on_c, 9, 46, 95
2, 18011, Note_on_c, 9, 35, 0
2, 18011, Note_on_c, 9, 46, 0
2, 18120, Note_on_c, 9, 46, 95
2, 18120, Note_on_c, 9, 38, 110
2, 18131, Note_on_c, 9, 46, 0
2, 18131, Note_on_c, 9, 38, 0
2, 18240, Note_on_c, 9, 35, 110
2, 18240, Note_on_c, 9, 46, 95
2, 18251, Note_on_c, 9, 35, 0
2, 18251, Note_on_c, 9, 46, 0
2, 18360, Note_on_c, 9, 46, 95
2, 18360, Note_on_c, 9, 38, 110
2, 18371, Note_on_c, 9, 46, 0
2, 18371, Note_on_c, 9, 38, 0
2, 18440, Note_on_c, 9, 35, 110
2, 18451, Note_on_c, 9, 35, 0
2, 18480, Note_on_c, 9, 35, 110
2, 18480, Note_on_c, 9, 46, 95
2, 18491, Note_on_c, 9, 35, 0
2, 18491, Note_on_c, 9, 46, 0
2, 18600, Note_on_c, 9, 38, 110
2, 18600, Note_on_c, 9, 46, 95
2, 18611, Note_on_c, 9, 38, 0
2, 18611, Note_on_c, 9, 46, 0
2, 18720, Note_on_c, 9, 49, 106
2, 18720, Note_on_c, 9, 35, 110
2, 18731, Note_on_c, 9, 49, 0
2, 18731, Note_on_c, 9, 35, 0
2, 19520, Note_on_c, 9, 38, 110
2, 19531, Note_on_c, 9, 38, 0
2, 19560, Note_on_c, 9, 38, 110
2, 19571, Note_on_c, 9, 38, 0
2, 19680, Note_on_c, 9, 46, 95
2, 19680, Note_on_c, 9, 35, 110
2, 19691, Note_on_c, 9, 46, 0
2, 19691, Note_on_c, 9, 35, 0
2, 19800, Note_on_c, 9, 38, 110
2, 19800, Note_on_c, 9, 46, 95
2, 19811, Note_on_c, 9, 38, 0
2, 19811, Note_on_c, 9, 46, 0
2, 19920, Note_on_c, 9, 35, 110
2, 19920, Note_on_c, 9, 46, 95
2, 19931, Note_on_c, 9, 35, 0
2, 19931, Note_on_c, 9, 46, 0
2, 20040, Note_on_c, 9, 38, 110
2, 20040, Note_on_c, 9, 46, 95
2, 20051, Note_on_c, 9, 38, 0
2, 20051, Note_on_c, 9, 46, 0
2, 20160, Note_on_c, 9, 35, 110
2, 20160, Note_on_c, 9, 46, 95
2, 20171, Note_on_c, 9, 35, 0
2, 20171, Note_on_c, 9, 46, 0
2, 20280, Note_on_c, 9, 46, 95
2, 20280, Note_on_c, 9, 38, 110
2, 20291, Note_on_c, 9, 46, 0
2, 20291, Note_on_c, 9, 38, 0
2, 20360, Note_on_c, 9, 35, 110
2, 20371, Note_on_c, 9, 35, 0
2, 20400, Note_on_c, 9, 35, 110
2, 20400, Note_on_c, 9, 46, 95
2, 20411, Note_on_c, 9, 35, 0
2, 20411, Note_on_c, 9, 46, 0
2, 20520, Note_on_c, 9, 38, 110
2, 20520, Note_on_c, 9, 46, 95
2, 20531, Note_on_c, 9, 38, 0
2, 20531, Note_on_c, 9, 46, 0
2, 20640, Note_on_c, 9, 46, 95
2, 20640, Note_on_c, 9, 35, 110
2, 20651, Note_on_c, 9, 46, 0
2, 20651, Note_on_c, 9, 35, 0
2, 20760, Note_on_c, 9, 46, 95
2, 20760, Note_on_c, 9, 38, 110
2, 20771, Note_on_c, 9, 46, 0
2, 20771, Note_on_c, 9, 38, 0
2, 20840, Note_on_c, 9, 35, 110
2, 20851, Note_on_c, 9, 35, 0
2, 20880, Note_on_c, 9, 46, 95
2, 20880, Note_on_c, 9, 35, 110
2, 20891, Note_on_c, 9, 46, 0
2, 20891, Note_on_c, 9, 35, 0
2, 21000, Note_on_c, 9, 38, 110
2, 21000, Note_on_c, 9, 46, 95
2, 21011, Note_on_c, 9, 38, 0
2, 21011, Note_on_c, 9, 46, 0
2, 21120, Note_on_c, 9, 46, 95
2, 21120, Note_on_c, 9, 35, 110
2, 21131, Note_on_c, 9, 46, 0
2, 21131, Note_on_c, 9, 35, 0
2, 21240, Note_on_c, 9, 46, 95
2, 21240, Note_on_c, 9, 38, 110
2, 21251, Note_on_c, 9, 46, 0
2, 21251, Note_on_c, 9, 38, 0
2, 21360, Note_on_c, 9, 35, 110
2, 21360, Note_on_c, 9, 38, 110
2, 21371, Note_on_c, 9, 35, 0
2, 21371, Note_on_c, 9, 38, 0
2, 21400, Note_on_c, 9, 38, 110
2, 21411, Note_on_c, 9, 38, 0
2, 21440, Note_on_c, 9, 38, 110
2, 21451, Note_on_c, 9, 38, 0
2, 21480, Note_on_c, 9, 35, 110
2, 21480, Note_on_c, 9, 38, 110
2, 21491, Note_on_c, 9, 35, 0
2, 21491, Note_on_c, 9, 38, 0
2, 21520, Note_on_c, 9, 38, 110
2, 21531, Note_on_c, 9, 38, 0
2, 21560, Note_on_c, 9, 38, 110
2, 21571, Note_on_c, 9, 38, 0
2, 21600, Note_on_c, 9, 35, 110
2, 21600, Note_on_c, 9, 49, 105
2, 21611, Note_on_c, 9, 35, 0
2, 21611, Note_on_c, 9, 49, 0
2, 21720, Note_on_c, 9, 39, 120
2, 21720, Note_on_c, 9, 38, 110
2, 21720, Note_on_c, 9, 46, 95
2, 21731, Note_on_c, 9, 39, 0
2, 21731, Note_on_c, 9, 38, 0
2, 21731, Note_on_c, 9, 46, 0
2, 21840, Note_on_c, 9, 46, 95
2, 21840, Note_on_c, 9, 35, 110
2, 21851, Note_on_c, 9, 46, 0
2, 21851, Note_on_c, 9, 35, 0
2, 21960, Note_on_c, 9, 46, 95
2, 21960, Note_on_c, 9, 38, 110
2, 21960, Note_on_c, 9, 39, 120
2, 21971, Note_on_c, 9, 46, 0
2, 21971, Note_on_c, 9, 38, 0
2, 21971, Note_on_c, 9, 39, 0
2, 22080, Note_on_c, 9, 46, 95
2, 22080, Note_on_c, 9, 35, 110
2, 22091, Note_on_c, 9, 46, 0
2, 22091, Note_on_c, 9, 35, 0
2, 22200, Note_on_c, 9, 38, 110
2, 22200, Note_on_c, 9, 46, 95
2, 22200, Note_on_c, 9, 39, 120
2, 22211, Note_on_c, 9, 38, 0
2, 22211, Note_on_c, 9, 46, 0
2, 22211, Note_on_c, 9, 39, 0
2, 22320, Note_on_c, 9, 46, 95
2, 22320, Note_on_c, 9, 35, 110
2, 22331, Note_on_c, 9, 46, 0
2, 22331, Note_on_c, 9, 35, 0
2, 22440, Note_on_c, 9, 38, 110
2, 22440, Note_on_c, 9, 39, 120
2, 22440, Note_on_c, 9, 46, 95
2, 22451, Note_on_c, 9, 38, 0
2, 22451, Note_on_c, 9, 39, 0
2, 22451, Note_on_c, 9, 46, 0
2, 22560, Note_on_c, 9, 35, 110
2, 22560, Note_on_c, 9, 46, 95
2, 22571, Note_on_c, 9, 35, 0
2, 22571, Note_on_c, 9, 46, 0
2, 22680, Note_on_c, 9, 38, 110
2, 22680, Note_on_c, 9, 46, 95
2, 22680, Note_on_c, 9, 39, 120
2, 22691, Note_on_c, 9, 38, 0
2, 22691, Note_on_c, 9, 46, 0
2, 22691, Note_on_c, 9, 39, 0
2, 22800, Note_on_c, 9, 46, 95
2, 22800, Note_on_c, 9, 35, 110
2, 22811, Note_on_c, 9, 46, 0
2, 22811, Note_on_c, 9, 35, 0
2, 22920, Note_on_c, 9, 38, 110
2, 22920, Note_on_c, 9, 46, 95
2, 22920, Note_on_c, 9, 39, 120
2, 22931, Note_on_c, 9, 38, 0
2, 22931, Note_on_c, 9, 46, 0
2, 22931, Note_on_c, 9, 39, 0
2, 23040, Note_on_c, 9, 35, 110
2, 23040, Note_on_c, 9, 46, 95
2, 23051, Note_on_c, 9, 35, 0
2, 23051, Note_on_c, 9, 46, 0
2, 23120, Note_on_c, 9, 35, 110
2, 23131, Note_on_c, 9, 35, 0
2, 23160, Note_on_c, 9, 46, 95
2, 23160, Note_on_c, 9, 39, 120
2, 23160, Note_on_c, 9, 38, 110
2, 23171, Note_on_c, 9, 46, 0
2, 23171, Note_on_c, 9, 39, 0
2, 23171, Note_on_c, 9, 38, 0
2, 23280, Note_on_c, 9, 35, 110
2, 23280, Note_on_c, 9, 46, 95
2, 23291, Note_on_c, 9, 35, 0
2, 23291, Note_on_c, 9, 46, 0
2, 23360, Note_on_c, 9, 35, 110
2, 23371, Note_on_c, 9, 35, 0
2, 23400, Note_on_c, 9, 46, 95
2, 23400, Note_on_c, 9, 39, 120
2, 23400, Note_on_c, 9, 38, 110
2, 23411, Note_on_c, 9, 46, 0
2, 23411, Note_on_c, 9, 39, 0
2, 23411, Note_on_c, 9, 38, 0
2, 23520, Note_on_c, 9, 35, 110
2, 23520, Note_on_c, 9, 46, 95
2, 23531, Note_on_c, 9, 35, 0
2, 23531, Note_on_c, 9, 46, 0
2, 23640, Note_on_c, 9, 38, 110
2, 23640, Note_on_c, 9, 46, 95
2, 23640, Note_on_c, 9, 39, 120
2, 23651, Note_on_c, 9, 38, 0
2, 23651, Note_on_c, 9, 46, 0
2, 23651, Note_on_c, 9, 39, 0
2, 23760, Note_on_c, 9, 35, 110
2, 23760, Note_on_c, 9, 46, 95
2, 23771, Note_on_c, 9, 35, 0
2, 23771, Note_on_c, 9, 46, 0
2, 23880, Note_on_c, 9, 46, 95
2, 23880, Note_on_c, 9, 39, 120
2, 23880, Note_on_c, 9, 38, 110
2, 23891, Note_on_c, 9, 46, 0
2, 23891, Note_on_c, 9, 39, 0
2, 23891, Note_on_c, 9, 38, 0
2, 24000, Note_on_c, 9, 46, 95
2, 24000, Note_on_c, 9, 35, 110
2, 24011, Note_on_c, 9, 46, 0
2, 24011, Note_on_c, 9, 35, 0
2, 24120, Note_on_c, 9, 39, 120
2, 24120, Note_on_c, 9, 38, 110
2, 24120, Note_on_c, 9, 46, 95
2, 24131, Note_on_c, 9, 39, 0
2, 24131, Note_on_c, 9, 38, 0
2, 24131, Note_on_c, 9, 46, 0
2, 24240, Note_on_c, 9, 46, 95
2, 24240, Note_on_c, 9, 35, 110
2, 24251, Note_on_c, 9, 46, 0
2, 24251, Note_on_c, 9, 35, 0
2, 24320, Note_on_c, 9, 35, 110
2, 24331, Note_on_c, 9, 35, 0
2, 24360, Note_on_c, 9, 46, 95
2, 24360, Note_on_c, 9, 39, 120
2, 24360, Note_on_c, 9, 38, 110
2, 24371, Note_on_c, 9, 46, 0
2, 24371, Note_on_c, 9, 39, 0
2, 24371, Note_on_c, 9, 38, 0
2, 24480, Note_on_c, 9, 35, 110
2, 24480, Note_on_c, 9, 46, 95
2, 24491, Note_on_c, 9, 35, 0
2, 24491, Note_on_c, 9, 46, 0
2, 24600, Note_on_c, 9, 39, 120
2, 24600, Note_on_c, 9, 38, 110
2, 24600, Note_on_c, 9, 46, 95
2, 24611, Note_on_c, 9, 39, 0
2, 24611, Note_on_c, 9, 38, 0
2, 24611, Note_on_c, 9, 46, 0
2, 24720, Note_on_c, 9, 35, 110
2, 24720, Note_on_c, 9, 46, 95
2, 24731, Note_on_c, 9, 35, 0
2, 24731, Note_on_c, 9, 46, 0
2, 24840, Note_on_c, 9, 39, 120
2, 24840, Note_on_c, 9, 46, 95
2, 24840, Note_on_c, 9, 38, 110
2, 24851, Note_on_c, 9, 39, 0
2, 24851, Note_on_c, 9, 46, 0
2, 24851, Note_on_c, 9, 38, 0
2, 24960, Note_on_c, 9, 46, 95
2, 24960, Note_on_c, 9, 35, 110
2, 24971, Note_on_c, 9, 46, 0
2, 24971, Note_on_c, 9, 35, 0
2, 25080, Note_on_c, 9, 39, 120
2, 25080, Note_on_c, 9, 38, 110
2, 25080, Note_on_c, 9, 46, 95
2, 25091, Note_on_c, 9, 39, 0
2, 25091, Note_on_c, 9, 38, 0
2, 25091, Note_on_c, 9, 46, 0
2, 25200, Note_on_c, 9, 46, 95
2, 25200, Note_on_c, 9, 35, 110
2, 25211, Note_on_c, 9, 46, 0
2, 25211, Note_on_c, 9, 35, 0
2, 25280, Note_on_c, 9, 35, 110
2, 25291, Note_on_c, 9, 35, 0
2, 25320, Note_on_c, 9, 46, 95
2, 25320, Note_on_c, 9, 38, 110
2, 25320, Note_on_c, 9, 39, 120
2, 25331, Note_on_c, 9, 46, 0
2, 25331, Note_on_c, 9, 38, 0
2, 25331, Note_on_c, 9, 39, 0
2, 25440, Note_on_c, 9, 49, 104
2, 25440, Note_on_c, 9, 43, 100
2, 25440, Note_on_c, 9, 35, 110
2, 25451, Note_on_c, 9, 49, 0
2, 25451, Note_on_c, 9, 43, 0
2, 25451, Note_on_c, 9, 35, 0
2, 25560, Note_on_c, 9, 43, 100
2, 25560, Note_on_c, 9, 35, 110
2, 25560, Note_on_c, 9, 39, 120
2, 25571, Note_on_c, 9, 43, 0
2, 25571, Note_on_c, 9, 35, 0
2, 25571, Note_on_c, 9, 39, 0
2, 25680, Note_on_c, 9, 43, 100
2, 25680, Note_on_c, 9, 35, 110
2, 25691, Note_on_c, 9, 43, 0
2, 25691, Note_on_c, 9, 35, 0
2, 25760, Note_on_c, 9, 43, 100
2, 25760, Note_on_c, 9, 39, 120
2, 25771, Note_on_c, 9, 43, 0
2, 25771, Note_on_c, 9, 39, 0
2, 25800, Note_on_c, 9, 35, 110
2, 25800, Note_on_c, 9, 43, 100
2, 25800, Note_on_c, 9, 39, 120
2, 25811, Note_on_c, 9, 35, 0
2, 25811, Note_on_c, 9, 43, 0
2, 25811, Note_on_c, 9, 39, 0
2, 25920, Note_on_c, 9, 43, 100
2, 25920, Note_on_c, 9, 35, 110
2, 25931, Note_on_c, 9, 43, 0
2, 25931, Note_on_c, 9, 35, 0
2, 26040, Note_on_c, 9, 35, 110
2, 26040, Note_on_c, 9, 43, 100
2, 26040, Note_on_c, 9, 39, 120
2, 26051, Note_on_c, 9, 35, 0
2, 26051, Note_on_c, 9, 43, 0
2, 26051, Note_on_c, 9, 39, 0
2, 26160, Note_on_c, 9, 43, 100
2, 26160, Note_on_c, 9, 35, 110
2, 26171, Note_on_c, 9, 43, 0
2, 26171, Note_on_c, 9, 35, 0
2, 26240, Note_on_c, 9, 43, 100
2, 26240, Note_on_c, 9, 39, 120
2, 26251, Note_on_c, 9, 43, 0
2, 26251, Note_on_c, 9, 39, 0
2, 26280, Note_on_c, 9, 43, 100
2, 26280, Note_on_c, 9, 35, 110
2, 26280, Note_on_c, 9, 39, 120
2, 26291, Note_on_c, 9, 43, 0
2, 26291, Note_on_c, 9, 35, 0
2, 26291, Note_on_c, 9, 39, 0
2, 26400, Note_on_c, 9, 43, 100
2, 26400, Note_on_c, 9, 35, 110
2, 26411, Note_on_c, 9, 43, 0
2, 26411, Note_on_c, 9, 35, 0
2, 26520, Note_on_c, 9, 39, 120
2, 26520, Note_on_c, 9, 35, 110
2, 26520, Note_on_c, 9, 43, 100
2, 26531, Note_on_c, 9, 39, 0
2, 26531, Note_on_c, 9, 35, 0
2, 26531, Note_on_c, 9, 43, 0
2, 26640, Note_on_c, 9, 43, 100
2, 26640, Note_on_c, 9, 35, 110
2, 26651, Note_on_c, 9, 43, 0
2, 26651, Note_on_c, 9, 35, 0
2, 26720, Note_on_c, 9, 39, 120
2, 26720, Note_on_c, 9, 43, 100
2, 26731, Note_on_c, 9, 39, 0
2, 26731, Note_on_c, 9, 43, 0
2, 26760, Note_on_c, 9, 43, 100
2, 26760, Note_on_c, 9, 35, 110
2, 26760, Note_on_c, 9, 39, 120
2, 26771, Note_on_c, 9, 43, 0
2, 26771, Note_on_c, 9, 35, 0
2, 26771, Note_on_c, 9, 39, 0
2, 26880, Note_on_c, 9, 43, 100
2, 26880, Note_on_c, 9, 35, 110
2, 26891, Note_on_c, 9, 43, 0
2, 26891, Note_on_c, 9, 35, 0
2, 27000, Note_on_c, 9, 43, 100
2, 27000, Note_on_c, 9, 35, 110
2, 27000, Note_on_c, 9, 39, 120
2, 27011, Note_on_c, 9, 43, 0
2, 27011, Note_on_c, 9, 35, 0
2, 27011, Note_on_c, 9, 39, 0
2, 27120, Note_on_c, 9, 35, 110
2, 27120, Note_on_c, 9, 43, 100
2, 27131, Note_on_c, 9, 35, 0
2, 27131, Note_on_c, 9, 43, 0
2, 27200, Note_on_c, 9, 38, 110
2, 27200, Note_on_c, 9, 39, 120
2, 27211, Note_on_c, 9, 38, 0
2, 27211, Note_on_c, 9, 39, 0
2, 27220, Note_on_c, 9, 38, 110
2, 27231, Note_on_c, 9, 38, 0
2, 27240, Note_on_c, 9, 38, 110
2, 27240, Note_on_c, 9, 39, 120
2, 27240, Note_on_c, 9, 35, 110
2, 27251, Note_on_c, 9, 38, 0
2, 27251, Note_on_c, 9, 39, 0
2, 27251, Note_on_c, 9, 35, 0
2, 27320, Note_on_c, 9, 38, 110
2, 27331, Note_on_c, 9, 38, 0
2, 27360, Note_on_c, 9, 35, 110
2, 27360, Note_on_c, 9, 49, 105
2, 27371, Note_on_c, 9, 35, 0
2, 27371, Note_on_c, 9, 49, 0
2, 27480, Note_on_c, 9, 38, 110
2, 27480, Note_on_c, 9, 46, 95
2, 27480, Note_on_c, 9, 39, 120
2, 27491, Note_on_c, 9, 38, 0
2, 27491, Note_on_c, 9, 46, 0
2, 27491, Note_on_c, 9, 39, 0
2, 27600, Note_on_c, 9, 46, 95
2, 27600, Note_on_c, 9, 35, 110
2, 27611, Note_on_c, 9, 46, 0
2, 27611, Note_on_c, 9, 35, 0
2, 27680, Note_on_c, 9, 35, 110
2, 27691, Note_on_c, 9, 35, 0
2, 27720, Note_on_c, 9, 39, 120
2, 27720, Note_on_c, 9, 46, 95
2, 27720, Note_on_c, 9, 38, 110
2, 27731, Note_on_c, 9, 39, 0
2, 27731, Note_on_c, 9, 46, 0
2, 27731, Note_on_c, 9, 38, 0
2, 27840, Note_on_c, 9, 46, 95
2, 27840, Note_on_c, 9, 35, 110
2, 27851, Note_on_c, 9, 46, 0
2, 27851, Note_on_c, 9, 35, 0
2, 27960, Note_on_c, 9, 38, 110
2, 27960, Note_on_c, 9, 39, 120
2, 27960, Note_on_c, 9, 46, 95
2, 27971, Note_on_c, 9, 38, 0
2, 27971, Note_on_c, 9, 39, 0
2, 27971, Note_on_c, 9, 46, 0
2, 28040, Note_on_c, 9, 35, 110
2, 28051, Note_on_c, 9, 35, 0
2, 28080, Note_on_c, 9, 46, 95
2, 28080, Note_on_c, 9, 35, 110
2, 28091, Note_on_c, 9, 46, 0
2, 28091, Note_on_c, 9, 35, 0
2, 28160, Note_on_c, 9, 35, 110
2, 28171, Note_on_c, 9, 35, 0
2, 28200, Note_on_c, 9, 39, 120
2, 28200, Note_on_c, 9, 46, 95
2, 28200, Note_on_c, 9, 38, 110
2, 28211, Note_on_c, 9, 39, 0
2, 28211, Note_on_c, 9, 46, 0
2, 28211, Note_on_c, 9, 38, 0
2, 28320, Note_on_c, 9, 35, 110
2, 28320, Note_on_c, 9, 49, 105
2, 28331, Note_on_c, 9, 35, 0
2, 28331, Note_on_c, 9, 49, 0
2, 28400, Note_on_c, 9, 35, 110
2, 28411, Note_on_c, 9, 35, 0
2, 28440, Note_on_c, 9, 39, 120
2, 28440, Note_on_c, 9, 46, 95
2, 28440, Note_on_c, 9, 38, 110
2, 28451, Note_on_c, 9, 39, 0
2, 28451, Note_on_c, 9, 46, 0
2, 28451, Note_on_c, 9, 38, 0
2, 28560, Note_on_c, 9, 35, 110
2, 28560, Note_on_c, 9, 46, 95
2, 28571, Note_on_c, 9, 35, 0
2, 28571, Note_on_c, 9, 46, 0
2, 28680, Note_on_c, 9, 39, 120
2, 28680, Note_on_c, 9, 38, 110
2, 28680, Note_on_c, 9, 46, 95
2, 28691, Note_on_c, 9, 39, 0
2, 28691, Note_on_c, 9, 38, 0
2, 28691, Note_on_c, 9, 46, 0
2, 28760, Note_on_c, 9, 35, 110
2, 28771, Note_on_c, 9, 35, 0
2, 28800, Note_on_c, 9, 46, 95
2, 28800, Note_on_c, 9, 35, 110
2, 28811, Note_on_c, 9, 46, 0
2, 28811, Note_on_c, 9, 35, 0
2, 28920, Note_on_c, 9, 46, 95
2, 28920, Note_on_c, 9, 39, 120
2, 28920, Note_on_c, 9, 38, 110
2, 28931, Note_on_c, 9, 46, 0
2, 28931, Note_on_c, 9, 39, 0
2, 28931, Note_on_c, 9, 38, 0
2, 29040, Note_on_c, 9, 35, 110
2, 29040, Note_on_c, 9, 46, 95
2, 29051, Note_on_c, 9, 35, 0
2, 29051, Note_on_c, 9, 46, 0
2, 29120, Note_on_c, 9, 35, 110
2, 29131, Note_on_c, 9, 35, 0
2, 29160, Note_on_c, 9, 46, 95
2, 29160, Note_on_c, 9, 38, 110
2, 29160, Note_on_c, 9, 39, 120
2, 29171, Note_on_c, 9, 46, 0
2, 29171, Note_on_c, 9, 38, 0
2, 29171, Note_on_c, 9, 39, 0
2, 29280, Note_on_c, 9, 35, 110
2, 29280, Note_on_c, 9, 49, 104
2, 29291, Note_on_c, 9, 35, 0
2, 29291, Note_on_c, 9, 49, 0
2, 29400, Note_on_c, 9, 46, 95
2, 29400, Note_on_c, 9, 38, 110
2, 29411, Note_on_c, 9, 46, 0
2, 29411, Note_on_c, 9, 38, 0
2, 29480, Note_on_c, 9, 35, 110
2, 29491, Note_on_c, 9, 35, 0
2, 29520, Note_on_c, 9, 35, 110
2, 29520, Note_on_c, 9, 46, 95
2, 29531, Note_on_c, 9, 35, 0
2, 29531, Note_on_c, 9, 46, 0
2, 29640, Note_on_c, 9, 46, 95
2, 29640, Note_on_c, 9, 38, 110
2, 29651, Note_on_c, 9, 46, 0
2, 29651, Note_on_c, 9, 38, 0
2, 29760, Note_on_c, 9, 35, 110
2, 29760, Note_on_c, 9, 46, 95
2, 29771, Note_on_c, 9, 35, 0
2, 29771, Note_on_c, 9, 46, 0
2, 29880, Note_on_c, 9, 38, 110
2, 29880, Note_on_c, 9, 46, 95
2, 29891, Note_on_c, 9, 38, 0
2, 29891, Note_on_c, 9, 46, 0
2, 29960, Note_on_c, 9, 35, 110
2, 29971, Note_on_c, 9, 35, 0
2, 30000, Note_on_c, 9, 46, 95
2, 30000, Note_on_c, 9, 35, 110
2, 30011, Note_on_c, 9, 46, 0
2, 30011, Note_on_c, 9, 35, 0
2, 30120, Note_on_c, 9, 38, 110
2, 30120, Note_on_c, 9, 46, 95
2, 30131, Note_on_c, 9, 38, 0
2, 30131, Note_on_c, 9, 46, 0
2, 30200, Note_on_c, 9, 35, 110
2, 30211, Note_on_c, 9, 35, 0
2, 30240, Note_on_c, 9, 35, 110
2, 30240, Note_on_c, 9, 49, 106
2, 30251, Note_on_c, 9, 35, 0
2, 30251, Note_on_c, 9, 49, 0
2, 31040, Note_on_c, 9, 38, 110
2, 31051, Note_on_c, 9, 38, 0
2, 31080, Note_on_c, 9, 38, 110
2, 31091, Note_on_c, 9, 38, 0
2, 31200, Note_on_c, 9, 46, 95
2, 31200, Note_on_c, 9, 35, 110
2, 31211, Note_on_c, 9, 46, 0
2, 31211, Note_on_c, 9, 35, 0
2, 31320, Note_on_c, 9, 38, 110
2, 31320, Note_on_c, 9, 46, 95
2, 31331, Note_on_c, 9, 38, 0
2, 31331, Note_on_c, 9, 46, 0
2, 31440, Note_on_c, 9, 35, 110
2, 31440, Note_on_c, 9, 46, 95
2, 31451, Note_on_c, 9, 35, 0
2, 31451, Note_on_c, 9, 46, 0
2, 31560, Note_on_c, 9, 38, 110
2, 31560, Note_on_c, 9, 46, 95
2, 31571, Note_on_c, 9, 38, 0
2, 31571, Note_on_c, 9, 46, 0
2, 31680, Note_on_c, 9, 35, 110
2, 31680, Note_on_c, 9, 46, 95
2, 31691, Note_on_c, 9, 35, 0
2, 31691, Note_on_c, 9, 46, 0
2, 31800, Note_on_c, 9, 38, 110
2, 31800, Note_on_c, 9, 46, 95
2, 31811, Note_on_c, 9, 38, 0
2, 31811, Note_on_c, 9, 46, 0
2, 31880, Note_on_c, 9, 35, 110
2, 31891, Note_on_c, 9, 35, 0
2, 31920, Note_on_c, 9, 46, 95
2, 31920, Note_on_c, 9, 35, 110
2, 31931, Note_on_c, 9, 46, 0
2, 31931, Note_on_c, 9, 35, 0
2, 32040, Note_on_c, 9, 38, 110
2, 32040, Note_on_c, 9, 46, 95
2, 32051, Note_on_c, 9, 38, 0
2, 32051, Note_on_c, 9, 46, 0
2, 32160, Note_on_c, 9, 46, 95
2, 32160, Note_on_c, 9, 35, 110
2, 32171, Note_on_c, 9, 46, 0
2, 32171, Note_on_c, 9, 35, 0
2, 32280, Note_on_c, 9, 38, 110
2, 32280, Note_on_c, 9, 46, 95
2, 32291, Note_on_c, 9, 38, 0
2, 32291, Note_on_c, 9, 46, 0
2, 32360, Note_on_c, 9, 35, 110
2, 32371, Note_on_c, 9, 35, 0
2, 32400, Note_on_c, 9, 46, 95
2, 32400, Note_on_c, 9, 35, 110
2, 32411, Note_on_c, 9, 46, 0
2, 32411, Note_on_c, 9, 35, 0
2, 32520, Note_on_c, 9, 38, 110
2, 32520, Note_on_c, 9, 46, 95
2, 32531, Note_on_c, 9, 38, 0
2, 32531, Note_on_c, 9, 46, 0
2, 32640, Note_on_c, 9, 46, 95
2, 32640, Note_on_c, 9, 35, 110
2, 32651, Note_on_c, 9, 46, 0
2, 32651, Note_on_c, 9, 35, 0
2, 32760, Note_on_c, 9, 38, 110
2, 32760, Note_on_c, 9, 46, 95
2, 32771, Note_on_c, 9, 38, 0
2, 32771, Note_on_c, 9, 46, 0
2, 32880, Note_on_c, 9, 35, 110
2, 32880, Note_on_c, 9, 38, 110
2, 32891, Note_on_c, 9, 35, 0
2, 32891, Note_on_c, 9, 38, 0
2, 32920, Note_on_c, 9, 38, 110
2, 32931, Note_on_c, 9, 38, 0
2, 32960, Note_on_c, 9, 38, 110
2, 32971, Note_on_c, 9, 38, 0
2, 33000, Note_on_c, 9, 35, 110
2, 33000, Note_on_c, 9, 38, 110
2, 33011, Note_on_c, 9, 35, 0
2, 33011, Note_on_c, 9, 38, 0
2, 33040, Note_on_c, 9, 38, 110
2, 33051, Note_on_c, 9, 38, 0
2, 33080, Note_on_c, 9, 38, 110
2, 33091, Note_on_c, 9, 38, 0
2, 33120, Note_on_c, 9, 35, 110
2, 33120, Note_on_c, 9, 49, 108
2, 33131, Note_on_c, 9, 35, 0
2, 33131, Note_on_c, 9, 49, 0
2, 33240, Note_on_c, 9, 38, 110
2, 33240, Note_on_c, 9, 46, 95
2, 33240, Note_on_c, 9, 39, 120
2, 33251, Note_on_c, 9, 38, 0
2, 33251, Note_on_c, 9, 46, 0
2, 33251, Note_on_c, 9, 39, 0
2, 33360, Note_on_c, 9, 46, 95
2, 33360, Note_on_c, 9, 35, 110
2, 33371, Note_on_c, 9, 46, 0
2, 33371, Note_on_c, 9, 35, 0
2, 33480, Note_on_c, 9, 46, 95
2, 33480, Note_on_c, 9, 38, 110
2, 33480, Note_on_c, 9, 39, 120
2, 33491, Note_on_c, 9, 46, 0
2, 33491, Note_on_c, 9, 38, 0
2, 33491, Note_on_c, 9, 39, 0
2, 33600, Note_on_c, 9, 35, 110
2, 33600, Note_on_c, 9, 46, 95
2, 33611, Note_on_c, 9, 35, 0
2, 33611, Note_on_c, 9, 46, 0
2, 33720, Note_on_c, 9, 39, 120
2, 33720, Note_on_c, 9, 38, 110
2, 33720, Note_on_c, 9, 46, 95
2, 33731, Note_on_c, 9, 39, 0
2, 33731, Note_on_c, 9, 38, 0
2, 33731, Note_on_c, 9, 46, 0
2, 33840, Note_on_c, 9, 35, 110
2, 33840, Note_on_c, 9, 46, 95
2, 33851, Note_on_c, 9, 35, 0
2, 33851, Note_on_c, 9, 46, 0
2, 33960, Note_on_c, 9, 46, 95
2, 33960, Note_on_c, 9, 38, 110
2, 33960, Note_on_c, 9, 39, 120
2, 33971, Note_on_c, 9, 46, 0
2, 33971, Note_on_c, 9, 38, 0
2, 33971, Note_on_c, 9, 39, 0
2, 34080, Note_on_c, 9, 46, 95
2, 34080, Note_on_c, 9, 35, 110
2, 34091, Note_on_c, 9, 46, 0
2, 34091, Note_on_c, 9, 35, 0
2, 34200, Note_on_c, 9, 38, 110
2, 34200, Note_on_c, 9, 46, 95
2, 34200, Note_on_c, 9, 39, 120
2, 34211, Note_on_c, 9, 38, 0
2, 34211, Note_on_c, 9, 46, 0
2, 34211, Note_on_c, 9, 39, 0
2, 34320, Note_on_c, 9, 35, 110
2, 34320, Note_on_c, 9, 46, 95
2, 34331, Note_on_c, 9, 35, 0
2, 34331, Note_on_c, 9, 46, 0
2, 34440, Note_on_c, 9, 38, 110
2, 34440, Note_on_c, 9, 39, 120
2, 34440, Note_on_c, 9, 46, 95
2, 34451, Note_on_c, 9, 38, 0
2, 34451, Note_on_c, 9, 39, 0
2, 34451, Note_on_c, 9, 46, 0
2, 34520, Note_on_c, 9, 35, 110
2, 34531, Note_on_c, 9, 35, 0
2, 34560, Note_on_c, 9, 35, 110
2, 34560, Note_on_c, 9, 46, 95
2, 34571, Note_on_c, 9, 35, 0
2, 34571, Note_on_c, 9, 46, 0
2, 34640, Note_on_c, 9, 35, 110
2, 34651, Note_on_c, 9, 35, 0
2, 34680, Note_on_c, 9, 46, 95
2, 34680, Note_on_c, 9, 38, 110
2, 34680, Note_on_c, 9, 39, 120
2, 34691, Note_on_c, 9, 46, 0
2, 34691, Note_on_c, 9, 38, 0
2, 34691, Note_on_c, 9, 39, 0
2, 34800, Note_on_c, 9, 46, 95
2, 34800, Note_on_c, 9, 35, 110
2, 34811, Note_on_c, 9, 46, 0
2, 34811, Note_on_c, 9, 35, 0
2, 34880, Note_on_c, 9, 35, 110
2, 34891, Note_on_c, 9, 35, 0
2, 34920, Note_on_c, 9, 38, 110
2, 34920, Note_on_c, 9, 39, 120
2, 34920, Note_on_c, 9, 46, 95
2, 34931, Note_on_c, 9, 38, 0
2, 34931, Note_on_c, 9, 39, 0
2, 34931, Note_on_c, 9, 46, 0
2, 35000, Note_on_c, 9, 35, 110
2, 35011, Note_on_c, 9, 35, 0
2, 35040, Note_on_c, 9, 35, 110
2, 35040, Note_on_c, 9, 46, 95
2, 35051, Note_on_c, 9, 35, 0
2, 35051, Note_on_c, 9, 46, 0
2, 35160, Note_on_c, 9, 38, 110
2, 35160, Note_on_c, 9, 46, 95
2, 35160, Note_on_c, 9, 39, 120
2, 35171, Note_on_c, 9, 38, 0
2, 35171, Note_on_c, 9, 46, 0
2, 35171, Note_on_c, 9, 39, 0
2, 35280, Note_on_c, 9, 35, 110
2, 35280, Note_on_c, 9, 46, 95
2, 35291, Note_on_c, 9, 35, 0
2, 35291, Note_on_c, 9, 46, 0
2, 35400, Note_on_c, 9, 38, 110
2, 35400, Note_on_c, 9, 39, 120
2, 35400, Note_on_c, 9, 46, 95
2, 35411, Note_on_c, 9, 38, 0
2, 35411, Note_on_c, 9, 39, 0
2, 35411, Note_on_c, 9, 46, 0
2, 35520, Note_on_c, 9, 35, 110
2, 35520, Note_on_c, 9, 46, 95
2, 35531, Note_on_c, 9, 35, 0
2, 35531, Note_on_c, 9, 46, 0
2, 35640, Note_on_c, 9, 46, 95
2, 35640, Note_on_c, 9, 38, 110
2, 35640, Note_on_c, 9, 39, 120
2, 35651, Note_on_c, 9, 46, 0
2, 35651, Note_on_c, 9, 38, 0
2, 35651, Note_on_c, 9, 39, 0
2, 35760, Note_on_c, 9, 46, 95
2, 35760, Note_on_c, 9, 35, 110
2, 35771, Note_on_c, 9, 46, 0
2, 35771, Note_on_c, 9, 35, 0
2, 35840, Note_on_c, 9, 35, 110
2, 35851, Note_on_c, 9, 35, 0
2, 35880, Note_on_c, 9, 46, 95
2, 35880, Note_on_c, 9, 38, 110
2, 35880, Note_on_c, 9, 39, 120
2, 35891, Note_on_c, 9, 46, 0
2, 35891, Note_on_c, 9, 38, 0
2, 35891, Note_on_c, 9, 39, 0
2, 35960, Note_on_c, 9, 35, 110
2, 35971, Note_on_c, 9, 35, 0
2, 36000, Note_on_c, 9, 35, 110
2, 36000, Note_on_c, 9, 46, 95
2, 36011, Note_on_c, 9, 35, 0
2, 36011, Note_on_c, 9, 46, 0
2, 36120, Note_on_c, 9, 38, 110
2, 36120, Note_on_c, 9, 39, 120
2, 36120, Note_on_c, 9, 46, 95
2, 36131, Note_on_c, 9, 38, 0
2, 36131, Note_on_c, 9, 39, 0
2, 36131, Note_on_c, 9, 46, 0
2, 36240, Note_on_c, 9, 46, 95
2, 36240, Note_on_c, 9, 35, 110
2, 36251, Note_on_c, 9, 46, 0
2, 36251, Note_on_c, 9, 35, 0
2, 36360, Note_on_c, 9, 38, 110
2, 36360, Note_on_c, 9, 39, 120
2, 36360, Note_on_c, 9, 46, 95
2, 36371, Note_on_c, 9, 38, 0
2, 36371, Note_on_c, 9, 39, 0
2, 36371, Note_on_c, 9, 46, 0
2, 36440, Note_on_c, 9, 35, 110
2, 36451, Note_on_c, 9, 35, 0
2, 36480, Note_on_c, 9, 46, 95
2, 36480, Note_on_c, 9, 35, 110
2, 36491, Note_on_c, 9, 46, 0
2, 36491, Note_on_c, 9, 35, 0
2, 36600, Note_on_c, 9, 38, 110
2, 36600, Note_on_c, 9, 46, 95
2, 36600, Note_on_c, 9, 39, 120
2, 36611, Note_on_c, 9, 38, 0
2, 36611, Note_on_c, 9, 46, 0
2, 36611, Note_on_c, 9, 39, 0
2, 36720, Note_on_c, 9, 46, 95
2, 36720, Note_on_c, 9, 35, 110
2, 36731, Note_on_c, 9, 46, 0
2, 36731, Note_on_c, 9, 35, 0
2, 36800, Note_on_c, 9, 35, 110
2, 36811, Note_on_c, 9, 35, 0
2, 36840, Note_on_c, 9, 39, 120
2, 36840, Note_on_c, 9, 46, 95
2, 36840, Note_on_c, 9, 38, 110
2, 36851, Note_on_c, 9, 39, 0
2, 36851, Note_on_c, 9, 46, 0
2, 36851, Note_on_c, 9, 38, 0
2, 36960, Note_on_c, 9, 43, 100
2, 36960, Note_on_c, 9, 35, 110
2, 36960, Note_on_c, 9, 49, 108
2, 36971, Note_on_c, 9, 43, 0
2, 36971, Note_on_c, 9, 35, 0
2, 36971, Note_on_c, 9, 49, 0
2, 37080, Note_on_c, 9, 39, 120
2, 37080, Note_on_c, 9, 43, 100
2, 37080, Note_on_c, 9, 35, 110
2, 37091, Note_on_c, 9, 39, 0
2, 37091, Note_on_c, 9, 43, 0
2, 37091, Note_on_c, 9, 35, 0
2, 37200, Note_on_c, 9, 43, 100
2, 37200, Note_on_c, 9, 35, 110
2, 37211, Note_on_c, 9, 43, 0
2, 37211, Note_on_c, 9, 35, 0
2, 37280, Note_on_c, 9, 39, 120
2, 37280, Note_on_c, 9, 43, 100
2, 37291, Note_on_c, 9, 39, 0
2, 37291, Note_on_c, 9, 43, 0
2, 37320, Note_on_c, 9, 39, 120
2, 37320, Note_on_c, 9, 35, 110
2, 37320, Note_on_c, 9, 43, 100
2, 37331, Note_on_c, 9, 39, 0
2, 37331, Note_on_c, 9, 35, 0
2, 37331, Note_on_c, 9, 43, 0
2, 37440, Note_on_c, 9, 43, 100
2, 37440, Note_on_c, 9, 35, 110
2, 37451, Note_on_c, 9, 43, 0
2, 37451, Note_on_c, 9, 35, 0
2, 37560, Note_on_c, 9, 35, 110
2, 37560, Note_on_c, 9, 43, 100
2, 37560, Note_on_c, 9, 39, 120
2, 37571, Note_on_c, 9, 35, 0
2, 37571, Note_on_c, 9, 43, 0
2, 37571, Note_on_c, 9, 39, 0
2, 37680, Note_on_c, 9, 43, 100
2, 37680, Note_on_c, 9, 35, 110
2, 37691, Note_on_c, 9, 43, 0
2, 37691, Note_on_c, 9, 35, 0
2, 37760, Note_on_c, 9, 39, 120
2, 37760, Note_on_c, 9, 43, 100
2, 37771, Note_on_c, 9, 39, 0
2, 37771, Note_on_c, 9, 43, 0
2, 37800, Note_on_c, 9, 43, 100
2, 37800, Note_on_c, 9, 39, 120
2, 37800, Note_on_c, 9, 35, 110
2, 37811, Note_on_c, 9, 43, 0
2, 37811, Note_on_c, 9, 39, 0
2, 37811, Note_on_c, 9, 35, 0
2, 37920, Note_on_c, 9, 35, 110
2, 37920, Note_on_c, 9, 43, 100
2, 37931, Note_on_c, 9, 35, 0
2, 37931, Note_on_c, 9, 43, 0
2, 38040, Note_on_c, 9, 35, 110
2, 38040, Note_on_c, 9, 43, 100
2, 38040, Note_on_c, 9, 39, 120
2, 38051, Note_on_c, 9, 35, 0
2, 38051, Note_on_c, 9, 43, 0
2, 38051, Note_on_c, 9, 39, 0
2, 38160, Note_on_c, 9, 35, 110
2, 38160, Note_on_c, 9, 43, 100
2, 38171, Note_on_c, 9, 35, 0
2, 38171, Note_on_c, 9, 43, 0
2, 38240, Note_on_c, 9, 39, 120
2, 38240, Note_on_c, 9, 43, 100
2, 38251, Note_on_c, 9, 39, 0
2, 38251, Note_on_c, 9, 43, 0
2, 38280, Note_on_c, 9, 35, 110
2, 38280, Note_on_c, 9, 39, 120
2, 38280, Note_on_c, 9, 43, 100
2, 38291, Note_on_c, 9, 35, 0
2, 38291, Note_on_c, 9, 39, 0
2, 38291, Note_on_c, 9, 43, 0
2, 38400, Note_on_c, 9, 35, 110
2, 38400, Note_on_c, 9, 43, 100
2, 38411, Note_on_c, 9, 35, 0
2, 38411, Note_on_c, 9, 43, 0
2, 38520, Note_on_c, 9, 35, 110
2, 38520, Note_on_c, 9, 39, 120
2, 38520, Note_on_c, 9, 43, 100
2, 38531, Note_on_c, 9, 35, 0
2, 38531, Note_on_c, 9, 39, 0
2, 38531, Note_on_c, 9, 43, 0
2, 38640, Note_on_c, 9, 35, 110
2, 38640, Note_on_c, 9, 43, 100
2, 38651, Note_on_c, 9, 35, 0
2, 38651, Note_on_c, 9, 43, 0
2, 38720, Note_on_c, 9, 38, 110
2, 38720, Note_on_c, 9, 39, 120
2, 38731, Note_on_c, 9, 38, 0
2, 38731, Note_on_c, 9, 39, 0
2, 38740, Note_on_c, 9, 38, 110
2, 38751, Note_on_c, 9, 38, 0
2, 38760, Note_on_c, 9, 35, 110
2, 38760, Note_on_c, 9, 39, 120
2, 38760, Note_on_c, 9, 38, 110
2, 38771, Note_on_c, 9, 35, 0
2, 38771, Note_on_c, 9, 39, 0
2, 38771, Note_on_c, 9, 38, 0
2, 38840, Note_on_c, 9, 38, 110
2, 38851, Note_on_c, 9, 38, 0
2, 38880, Note_on_c, 9, 49, 108
2, 38880, Note_on_c, 9, 35, 110
2, 38891, Note_on_c, 9, 49, 0
2, 38891, Note_on_c, 9, 35, 0
2, 39000, Note_on_c, 9, 38, 110
2, 39000, Note_on_c, 9, 39, 120
2, 39000, Note_on_c, 9, 46, 95
2, 39011, Note_on_c, 9, 38, 0
2, 39011, Note_on_c, 9, 39, 0
2, 39011, Note_on_c, 9, 46, 0
2, 39120, Note_on_c, 9, 46, 95
2, 39120, Note_on_c, 9, 35, 110
2, 39131, Note_on_c, 9, 46, 0
2, 39131, Note_on_c, 9, 35, 0
2, 39200, Note_on_c, 9, 35, 110
2, 39211, Note_on_c, 9, 35, 0
2, 39240, Note_on_c, 9, 38, 110
2, 39240, Note_on_c, 9, 39, 120
2, 39240, Note_on_c, 9, 46, 95
2, 39251, Note_on_c, 9, 38, 0
2, 39251, Note_on_c, 9, 39, 0
2, 39251, Note_on_c, 9, 46, 0
2, 39360, Note_on_c, 9, 46, 95
2, 39360, Note_on_c, 9, 35, 110
2, 39371, Note_on_c, 9, 46, 0
2, 39371, Note_on_c, 9, 35, 0
2, 39480, Note_on_c, 9, 39, 120
2, 39480, Note_on_c, 9, 38, 110
2, 39480, Note_on_c, 9, 46, 95
2, 39491, Note_on_c, 9, 39, 0
2, 39491, Note_on_c, 9, 38, 0
2, 39491, Note_on_c, 9, 46, 0
2, 39560, Note_on_c, 9, 35, 110
2, 39571, Note_on_c, 9, 35, 0
2, 39600, Note_on_c, 9, 46, 95
2, 39600, Note_on_c, 9, 35, 110
2, 39611, Note_on_c, 9, 46, 0
2, 39611, Note_on_c, 9, 35, 0
2, 39680, Note_on_c, 9, 35, 110
2, 39691, Note_on_c, 9, 35, 0
2, 39720, Note_on_c, 9, 39, 120
2, 39720, Note_on_c, 9, 38, 110
2, 39720, Note_on_c, 9, 46, 95
2, 39731, Note_on_c, 9, 39, 0
2, 39731, Note_on_c, 9, 38, 0
2, 39731, Note_on_c, 9, 46, 0
2, 39840, Note_on_c, 9, 35, 110
2, 39840, Note_on_c, 9, 49, 109
2, 39851, Note_on_c, 9, 35, 0
2, 39851, Note_on_c, 9, 49, 0
2, 39920, Note_on_c, 9, 35, 110
2, 39931, Note_on_c, 9, 35, 0
2, 39960, Note_on_c, 9, 38, 110
2, 39960, Note_on_c, 9, 39, 120
2, 39960, Note_on_c, 9, 46, 95
2, 39971, Note_on_c, 9, 38, 0
2, 39971, Note_on_c, 9, 39, 0
2, 39971, Note_on_c, 9, 46, 0
2, 40080, Note_on_c, 9, 46, 95
2, 40080, Note_on_c, 9, 35, 110
2, 40091, Note_on_c, 9, 46, 0
2, 40091, Note_on_c, 9, 35, 0
2, 40200, Note_on_c, 9, 46, 95
2, 40200, Note_on_c, 9, 39, 120
2, 40200, Note_on_c, 9, 38, 110
2, 40211, Note_on_c, 9, 46, 0
2, 40211, Note_on_c, 9, 39, 0
2, 40211, Note_on_c, 9, 38, 0
2, 40280, Note_on_c, 9, 35, 110
2, 40291, Note_on_c, 9, 35, 0
2, 40320, Note_on_c, 9, 35, 110
2, 40320, Note_on_c, 9, 46, 95
2, 40331, Note_on_c, 9, 35, 0
2, 40331, Note_on_c, 9, 46, 0
2, 40440, Note_on_c, 9, 46, 95
2, 40440, Note_on_c, 9, 38, 110
2, 40440, Note_on_c, 9, 39, 120
2, 40451, Note_on_c, 9, 46, 0
2, 40451, Note_on_c, 9, 38, 0
2, 40451, Note_on_c, 9, 39, 0
2, 40560, Note_on_c, 9, 46, 95
2, 40560, Note_on_c, 9, 35, 110
2, 40571, Note_on_c, 9, 46, 0
2, 40571, Note_on_c, 9, 35, 0
2, 40640, Note_on_c, 9, 35, 110
2, 40651, Note_on_c, 9, 35, 0
2, 40680, Note_on_c, 9, 39, 120
2, 40680, Note_on_c, 9, 38, 110
2, 40680, Note_on_c, 9, 46, 95
2, 40691, Note_on_c, 9, 39, 0
2, 40691, Note_on_c, 9, 38, 0
2, 40691, Note_on_c, 9, 46, 0
2, 40800, Note_on_c, 9, 35, 110
2, 40800, Note_on_c, 9, 49, 105
2, 40811, Note_on_c, 9, 35, 0
2, 40811, Note_on_c, 9, 49, 0
2, 40880, Note_on_c, 9, 35, 110
2, 40891, Note_on_c, 9, 35, 0
2, 40920, Note_on_c, 9, 39, 120
2, 40920, Note_on_c, 9, 38, 110
2, 40920, Note_on_c, 9, 46, 95
2, 40931, Note_on_c, 9, 39, 0
2, 40931, Note_on_c, 9, 38, 0
2, 40931, Note_on_c, 9, 46, 0
2, 41040, Note_on_c, 9, 35, 110
2, 41040, Note_on_c, 9, 46, 95
2, 41051, Note_on_c, 9, 35, 0
2, 41051, Note_on_c, 9, 46, 0
2, 41160, Note_on_c, 9, 46, 95
2, 41160, Note_on_c, 9, 39, 120
2, 41160, Note_on_c, 9, 38, 110
2, 41171, Note_on_c, 9, 46, 0
2, 41171, Note_on_c, 9, 39, 0
2, 41171, Note_on_c, 9, 38, 0
2, 41240, Note_on_c, 9, 35, 110
2, 41251, Note_on_c, 9, 35, 0
2, 41280, Note_on_c, 9, 46, 95
2, 41280, Note_on_c, 9, 35, 110
2, 41291, Note_on_c, 9, 46, 0
2, 41291, Note_on_c, 9, 35, 0
2, 41400, Note_on_c, 9, 38, 110
2, 41400, Note_on_c, 9, 46, 95
2, 41400, Note_on_c, 9, 39, 120
2, 41411, Note_on_c, 9, 38, 0
2, 41411, Note_on_c, 9, 46, 0
2, 41411, Note_on_c, 9, 39, 0
2, 41520, Note_on_c, 9, 35, 110
2, 41520, Note_on_c, 9, 46, 95
2, 41531, Note_on_c, 9, 35, 0
2, 41531, Note_on_c, 9, 46, 0
2, 41600, Note_on_c, 9, 35, 110
2, 41611, Note_on_c, 9, 35, 0
2, 41640, Note_on_c, 9, 46, 95
2, 41640, Note_on_c, 9, 38, 110
2, 41640, Note_on_c, 9, 39, 120
2, 41651, Note_on_c, 9, 46, 0
2, 41651, Note_on_c, 9, 38, 0
2, 41651, Note_on_c, 9, 39, 0
2, 41760, Note_on_c, 9, 49, 110
2, 41760, Note_on_c, 9, 35, 110
2, 41771, Note_on_c, 9, 49, 0
2, 41771, Note_on_c, 9, 35, 0
2, 41840, Note_on_c, 9, 35, 110
2, 41851, Note_on_c, 9, 35, 0
2, 41880, Note_on_c, 9, 38, 110
2, 41880, Note_on_c, 9, 39, 120
2, 41880, Note_on_c, 9, 46, 95
2, 41891, Note_on_c, 9, 38, 0
2, 41891, Note_on_c, 9, 39, 0
2, 41891, Note_on_c, 9, 46, 0
2, 42000, Note_on_c, 9, 46, 95
2, 42000, Note_on_c, 9, 35, 110
2, 42011, Note_on_c, 9, 46, 0
2, 42011, Note_on_c, 9, 35, 0
2, 42120, Note_on_c, 9, 46, 95
2, 42120, Note_on_c, 9, 39, 120
2, 42120, Note_on_c, 9, 38, 110
2, 42131, Note_on_c, 9, 46, 0
2, 42131, Note_on_c, 9, 39, 0
2, 42131, Note_on_c, 9, 38, 0
2, 42200, Note_on_c, 9, 35, 110
2, 42211, Note_on_c, 9, 35, 0
2, 42240, Note_on_c, 9, 35, 110
2, 42240, Note_on_c, 9, 46, 95
2, 42251, Note_on_c, 9, 35, 0
2, 42251, Note_on_c, 9, 46, 0
2, 42360, Note_on_c, 9, 38, 110
2, 42360, Note_on_c, 9, 46, 95
2, 42360, Note_on_c, 9, 39, 120
2, 42371, Note_on_c, 9, 38, 0
2, 42371, Note_on_c, 9, 46, 0
2, 42371, Note_on_c, 9, 39, 0
2, 42480, Note_on_c, 9, 35, 110
2, 42480, Note_on_c, 9, 46, 95
2, 42491, Note_on_c, 9, 35, 0
2, 42491, Note_on_c, 9, 46, 0
2, 42560, Note_on_c, 9, 35, 110
2, 42571, Note_on_c, 9, 35, 0
2, 42600, Note_on_c, 9, 39, 120
2, 42600, Note_on_c, 9, 38, 110
2, 42600, Note_on_c, 9, 46, 95
2, 42611, Note_on_c, 9, 39, 0
2, 42611, Note_on_c, 9, 38, 0
2, 42611, Note_on_c, 9, 46, 0
2, 42680, Note_on_c, 9, 35, 110
2, 42691, Note_on_c, 9, 35, 0
2, 42720, Note_on_c, 9, 49, 106
2, 42720, Note_on_c, 9, 35, 110
2, 42731, Note_on_c, 9, 49, 0
2, 42731, Note_on_c, 9, 35, 0
2, 44130, Note_on_c, 9, 38, 110
2, 44140, Note_on_c, 9, 38, 110
2, 44141, Note_on_c, 9, 38, 0
2, 44150, Note_on_c, 9, 38, 110
2, 44151, Note_on_c, 9, 38, 0
2, 44160, Note_on_c, 9, 35, 110
2, 44160, Note_on_c, 9, 49, 106
2, 44161, Note_on_c, 9, 38, 0
2, 44171, Note_on_c, 9, 35, 0
2, 44171, Note_on_c, 9, 49, 0
2, 44171, End_track
3, 0, Start_track
3, 0, Title_t, "Voc Lead Oohs"
3, 0, Instrument_name_t, " British Album - 1964"
3, 0, MIDI_port, 0
3, 121, Control_c, 0, 7, 120
3, 122, Control_c, 0, 10, 54
3, 123, Control_c, 0, 91, 50
3, 125, Control_c, 0, 93, 115
3, 126, Control_c, 0, 32, 0
3, 126, Control_c, 0, 0, 0
3, 126, Program_c, 0, 53
3, 2400, Note_on_c, 0, 66, 120
3, 2518, Note_on_c, 0, 66, 0
3, 2520, Note_on_c, 0, 64, 120
3, 2638, Note_on_c, 0, 64, 0
3, 2640, Note_on_c, 0, 62, 120
3, 2758, Note_on_c, 0, 62, 0
3, 2760, Note_on_c, 0, 64, 120
3, 2878, Note_on_c, 0, 64, 0
3, 2880, Note_on_c, 0, 64, 120
3, 3078, Note_on_c, 0, 64, 0
3, 3080, Note_on_c, 0, 59, 120
3, 3238, Note_on_c, 0, 59, 0
3, 3360, Note_on_c, 0, 59, 120
3, 3478, Note_on_c, 0, 59, 0
3, 3480, Note_on_c, 0, 62, 120
3, 3598, Note_on_c, 0, 62, 0
3, 3600, Note_on_c, 0, 67, 120
3, 3718, Note_on_c, 0, 67, 0
3, 3720, Note_on_c, 0, 67, 120
3, 3798, Note_on_c, 0, 67, 0
3, 3800, Note_on_c, 0, 66, 120
3, 3958, Note_on_c, 0, 66, 0
3, 4320, Note_on_c, 0, 66, 120
3, 4438, Note_on_c, 0, 66, 0
3, 4440, Note_on_c, 0, 64, 120
3, 4558, Note_on_c, 0, 64, 0
3, 4560, Note_on_c, 0, 62, 120
3, 4678, Note_on_c, 0, 62, 0
3, 4680, Note_on_c, 0, 64, 120
3, 4798, Note_on_c, 0, 64, 0
3, 4800, Note_on_c, 0, 64, 120
3, 4998, Note_on_c, 0, 64, 0
3, 5000, Note_on_c, 0, 59, 120
3, 5158, Note_on_c, 0, 59, 0
3, 5280, Note_on_c, 0, 59, 120
3, 5398, Note_on_c, 0, 59, 0
3, 5400, Note_on_c, 0, 62, 120
3, 5518, Note_on_c, 0, 62, 0
3, 5520, Note_on_c, 0, 67, 120
3, 5638, Note_on_c, 0, 67, 0
3, 5640, Note_on_c, 0, 67, 120
3, 5718, Note_on_c, 0, 67, 0
3, 5720, Note_on_c, 0, 66, 120
3, 5878, Note_on_c, 0, 66, 0
3, 6240, Note_on_c, 0, 66, 120
3, 6438, Note_on_c, 0, 66, 0
3, 6440, Note_on_c, 0, 62, 120
3, 6598, Note_on_c, 0, 62, 0
3, 6720, Note_on_c, 0, 64, 120
3, 6918, Note_on_c, 0, 64, 0
3, 6920, Note_on_c, 0, 59, 120
3, 7078, Note_on_c, 0, 59, 0
3, 7200, Note_on_c, 0, 66, 120
3, 7398, Note_on_c, 0, 66, 0
3, 7400, Note_on_c, 0, 62, 120
3, 7558, Note_on_c, 0, 62, 0
3, 7680, Note_on_c, 0, 64, 120
3, 7878, Note_on_c, 0, 64, 0
3, 7880, Note_on_c, 0, 59, 120
3, 8038, Note_on_c, 0, 59, 0
3, 8120, Note_on_c, 0, 64, 120
3, 8158, Note_on_c, 0, 64, 0
3, 8160, Note_on_c, 0, 66, 120
3, 8278, Note_on_c, 0, 66, 0
3, 8280, Note_on_c, 0, 64, 120
3, 8398, Note_on_c, 0, 64, 0
3, 8400, Note_on_c, 0, 62, 120
3, 8478, Note_on_c, 0, 62, 0
3, 8480, Note_on_c, 0, 62, 120
3, 8518, Note_on_c, 0, 62, 0
3, 8520, Note_on_c, 0, 64, 120
3, 8638, Note_on_c, 0, 64, 0
3, 8640, Note_on_c, 0, 64, 120
3, 8838, Note_on_c, 0, 64, 0
3, 8840, Note_on_c, 0, 59, 120
3, 8998, Note_on_c, 0, 59, 0
3, 9240, Note_on_c, 0, 67, 120
3, 9240, Note_on_c, 0, 62, 110
3, 9358, Note_on_c, 0, 67, 0
3, 9358, Note_on_c, 0, 62, 0
3, 9360, Note_on_c, 0, 62, 110
3, 9360, Note_on_c, 0, 67, 120
3, 9478, Note_on_c, 0, 62, 0
3, 9478, Note_on_c, 0, 67, 0
3, 9480, Note_on_c, 0, 61, 110
3, 9480, Note_on_c, 0, 67, 120
3, 9558, Note_on_c, 0, 61, 0
3, 9558, Note_on_c, 0, 67, 0
3, 9560, Note_on_c, 0, 62, 110
3, 9560, Note_on_c, 0, 66, 120
3, 9678, Note_on_c, 0, 62, 0
3, 9678, Note_on_c, 0, 66, 0
3, 9680, Note_on_c, 0, 59, 110
3, 9680, Note_on_c, 0, 64, 120
3, 9718, Note_on_c, 0, 59, 0
3, 9718, Note_on_c, 0, 64, 0
3, 9720, Note_on_c, 0, 62, 120
3, 9720, Note_on_c, 0, 57, 110
3, 9838, Note_on_c, 0, 62, 0
3, 9838, Note_on_c, 0, 57, 0
3, 10080, Note_on_c, 0, 66, 120
3, 10198, Note_on_c, 0, 66, 0
3, 10200, Note_on_c, 0, 64, 120
3, 10318, Note_on_c, 0, 64, 0
3, 10320, Note_on_c, 0, 62, 120
3, 10438, Note_on_c, 0, 62, 0
3, 10440, Note_on_c, 0, 64, 120
3, 10558, Note_on_c, 0, 64, 0
3, 10560, Note_on_c, 0, 64, 120
3, 10758, Note_on_c, 0, 64, 0
3, 10760, Note_on_c, 0, 59, 120
3, 10918, Note_on_c, 0, 59, 0
3, 11040, Note_on_c, 0, 59, 120
3, 11158, Note_on_c, 0, 59, 0
3, 11160, Note_on_c, 0, 62, 120
3, 11278, Note_on_c, 0, 62, 0
3, 11280, Note_on_c, 0, 67, 120
3, 11398, Note_on_c, 0, 67, 0
3, 11400, Note_on_c, 0, 67, 120
3, 11478, Note_on_c, 0, 67, 0
3, 11480, Note_on_c, 0, 66, 120
3, 11638, Note_on_c, 0, 66, 0
3, 12000, Note_on_c, 0, 66, 120
3, 12118, Note_on_c, 0, 66, 0
3, 12120, Note_on_c, 0, 64, 120
3, 12238, Note_on_c, 0, 64, 0
3, 12240, Note_on_c, 0, 62, 120
3, 12358, Note_on_c, 0, 62, 0
3, 12360, Note_on_c, 0, 64, 120
3, 12478, Note_on_c, 0, 64, 0
3, 12480, Note_on_c, 0, 64, 120
3, 12678, Note_on_c, 0, 64, 0
3, 12680, Note_on_c, 0, 59, 120
3, 12838, Note_on_c, 0, 59, 0
3, 12960, Note_on_c, 0, 59, 120
3, 13078, Note_on_c, 0, 59, 0
3, 13080, Note_on_c, 0, 62, 120
3, 13198, Note_on_c, 0, 62, 0
3, 13200, Note_on_c, 0, 67, 120
3, 13318, Note_on_c, 0, 67, 0
3, 13320, Note_on_c, 0, 67, 120
3, 13398, Note_on_c, 0, 67, 0
3, 13400, Note_on_c, 0, 66, 120
3, 13558, Note_on_c, 0, 66, 0
3, 13920, Note_on_c, 0, 66, 120
3, 13920, Note_on_c, 0, 69, 110
3, 14118, Note_on_c, 0, 66, 0
3, 14118, Note_on_c, 0, 69, 0
3, 14120, Note_on_c, 0, 66, 110
3, 14120, Note_on_c, 0, 62, 120
3, 14278, Note_on_c, 0, 66, 0
3, 14278, Note_on_c, 0, 62, 0
3, 14400, Note_on_c, 0, 64, 120
3, 14400, Note_on_c, 0, 67, 110
3, 14598, Note_on_c, 0, 64, 0
3, 14598, Note_on_c, 0, 67, 0
3, 14600, Note_on_c, 0, 59, 120
3, 14600, Note_on_c, 0, 62, 110
3, 14758, Note_on_c, 0, 59, 0
3, 14758, Note_on_c, 0, 62, 0
3, 14880, Note_on_c, 0, 69, 110
3, 14880, Note_on_c, 0, 66, 120
3, 15078, Note_on_c, 0, 69, 0
3, 15078, Note_on_c, 0, 66, 0
3, 15080, Note_on_c, 0, 62, 120
3, 15080, Note_on_c, 0, 66, 110
3, 15238, Note_on_c, 0, 62, 0
3, 15238, Note_on_c, 0, 66, 0
3, 15360, Note_on_c, 0, 68, 110
3, 15360, Note_on_c, 0, 64, 120
3, 15558, Note_on_c, 0, 68, 0
3, 15558, Note_on_c, 0, 64, 0
3, 15560, Note_on_c, 0, 59, 120
3, 15560, Note_on_c, 0, 64, 110
3, 15718, Note_on_c, 0, 59, 0
3, 15718, Note_on_c, 0, 64, 0
3, 15800, Note_on_c, 0, 64, 120
3, 15838, Note_on_c, 0, 64, 0
3, 15840, Note_on_c, 0, 66, 120
3, 15958, Note_on_c, 0, 66, 0
3, 15960, Note_on_c, 0, 64, 120
3, 16078, Note_on_c, 0, 64, 0
3, 16080, Note_on_c, 0, 62, 120
3, 16158, Note_on_c, 0, 62, 0
3, 16160, Note_on_c, 0, 62, 120
3, 16198, Note_on_c, 0, 62, 0
3, 16200, Note_on_c, 0, 64, 120
3, 16318, Note_on_c, 0, 64, 0
3, 16320, Note_on_c, 0, 64, 120
3, 16518, Note_on_c, 0, 64, 0
3, 16520, Note_on_c, 0, 59, 120
3, 16678, Note_on_c, 0, 59, 0
3, 16920, Note_on_c, 0, 67, 120
3, 16920, Note_on_c, 0, 62, 110
3, 17038, Note_on_c, 0, 67, 0
3, 17038, Note_on_c, 0, 62, 0
3, 17040, Note_on_c, 0, 67, 120
3, 17040, Note_on_c, 0, 62, 110
3, 17158, Note_on_c, 0, 67, 0
3, 17158, Note_on_c, 0, 62, 0
3, 17160, Note_on_c, 0, 61, 110
3, 17160, Note_on_c, 0, 67, 120
3, 17238, Note_on_c, 0, 61, 0
3, 17238, Note_on_c, 0, 67, 0
3, 17240, Note_on_c, 0, 66, 120
3, 17240, Note_on_c, 0, 62, 110
3, 17358, Note_on_c, 0, 66, 0
3, 17358, Note_on_c, 0, 62, 0
3, 17360, Note_on_c, 0, 59, 110
3, 17360, Note_on_c, 0, 64, 120
3, 17398, Note_on_c, 0, 59, 0
3, 17398, Note_on_c, 0, 64, 0
3, 17400, Note_on_c, 0, 62, 120
3, 17400, Note_on_c, 0, 57, 110
3, 17518, Note_on_c, 0, 62, 0
3, 17518, Note_on_c, 0, 57, 0
3, 17760, Note_on_c, 0, 57, 110
3, 17760, Note_on_c, 0, 64, 120
3, 17998, Note_on_c, 0, 57, 0
3, 17998, Note_on_c, 0, 64, 0
3, 18000, Note_on_c, 0, 64, 120
3, 18000, Note_on_c, 0, 57, 110
3, 18198, Note_on_c, 0, 64, 0
3, 18198, Note_on_c, 0, 57, 0
3, 18200, Note_on_c, 0, 59, 110
3, 18200, Note_on_c, 0, 66, 120
3, 18238, Note_on_c, 0, 59, 0
3, 18238, Note_on_c, 0, 66, 0
3, 18240, Note_on_c, 0, 64, 120
3, 18240, Note_on_c, 0, 57, 110
3, 18478, Note_on_c, 0, 64, 0
3, 18478, Note_on_c, 0, 57, 0
3, 18680, Note_on_c, 0, 57, 110
3, 18680, Note_on_c, 0, 62, 120
3, 18718, Note_on_c, 0, 57, 0
3, 18718, Note_on_c, 0, 62, 0
3, 18720, Note_on_c, 0, 64, 120
3, 18720, Note_on_c, 0, 59, 110
3, 18838, Note_on_c, 0, 64, 0
3, 18838, Note_on_c, 0, 59, 0
3, 18840, Note_on_c, 0, 62, 120
3, 18840, Note_on_c, 0, 57, 110
3, 18958, Note_on_c, 0, 62, 0
3, 18958, Note_on_c, 0, 57, 0
3, 18960, Note_on_c, 0, 59, 110
3, 18960, Note_on_c, 0, 64, 120
3, 19078, Note_on_c, 0, 59, 0
3, 19078, Note_on_c, 0, 64, 0
3, 19080, Note_on_c, 0, 62, 120
3, 19080, Note_on_c, 0, 57, 110
3, 19198, Note_on_c, 0, 62, 0
3, 19198, Note_on_c, 0, 57, 0
3, 19200, Note_on_c, 0, 59, 110
3, 19200, Note_on_c, 0, 64, 120
3, 19238, Note_on_c, 0, 59, 0
3, 19238, Note_on_c, 0, 64, 0
3, 19240, Note_on_c, 0, 62, 120
3, 19240, Note_on_c, 0, 57, 110
3, 19278, Note_on_c, 0, 62, 0
3, 19278, Note_on_c, 0, 57, 0
3, 19280, Note_on_c, 0, 59, 120
3, 19280, Note_on_c, 0, 54, 110
3, 19438, Note_on_c, 0, 59, 0
3, 19438, Note_on_c, 0, 54, 0
3, 19680, Note_on_c, 0, 56, 110
3, 19680, Note_on_c, 0, 64, 120
3, 19918, Note_on_c, 0, 56, 0
3, 19918, Note_on_c, 0, 64, 0
3, 19920, Note_on_c, 0, 64, 120
3, 19920, Note_on_c, 0, 56, 110
3, 20118, Note_on_c, 0, 64, 0
3, 20118, Note_on_c, 0, 56, 0
3, 20120, Note_on_c, 0, 57, 110
3, 20120, Note_on_c, 0, 66, 120
3, 20158, Note_on_c, 0, 57, 0
3, 20158, Note_on_c, 0, 66, 0
3, 20160, Note_on_c, 0, 64, 120
3, 20160, Note_on_c, 0, 56, 110
3, 20398, Note_on_c, 0, 64, 0
3, 20398, Note_on_c, 0, 56, 0
3, 20600, Note_on_c, 0, 62, 120
3, 20600, Note_on_c, 0, 57, 110
3, 20638, Note_on_c, 0, 62, 0
3, 20638, Note_on_c, 0, 57, 0
3, 20640, Note_on_c, 0, 59, 110
3, 20640, Note_on_c, 0, 64, 120
3, 20718, Note_on_c, 0, 59, 0
3, 20718, Note_on_c, 0, 64, 0
3, 20720, Note_on_c, 0, 62, 120
3, 20720, Note_on_c, 0, 57, 110
3, 20838, Note_on_c, 0, 62, 0
3, 20838, Note_on_c, 0, 57, 0
3, 20840, Note_on_c, 0, 59, 110
3, 20840, Note_on_c, 0, 64, 120
3, 20958, Note_on_c, 0, 59, 0
3, 20958, Note_on_c, 0, 64, 0
3, 20960, Note_on_c, 0, 62, 120
3, 20960, Note_on_c, 0, 57, 110
3, 21118, Note_on_c, 0, 62, 0
3, 21118, Note_on_c, 0, 57, 0
3, 21120, Note_on_c, 0, 61, 110
3, 21120, Note_on_c, 0, 64, 120
3, 21198, Note_on_c, 0, 61, 0
3, 21198, Note_on_c, 0, 64, 0
3, 21200, Note_on_c, 0, 64, 120
3, 21200, Note_on_c, 0, 61, 110
3, 21318, Note_on_c, 0, 64, 0
3, 21318, Note_on_c, 0, 61, 0
3, 21320, Note_on_c, 0, 64, 110
3, 21320, Note_on_c, 0, 67, 120
3, 21598, Note_on_c, 0, 64, 0
3, 21598, Note_on_c, 0, 67, 0
3, 21600, Note_on_c, 0, 66, 120
3, 21718, Note_on_c, 0, 66, 0
3, 21720, Note_on_c, 0, 64, 120
3, 21838, Note_on_c, 0, 64, 0
3, 21840, Note_on_c, 0, 62, 120
3, 21958, Note_on_c, 0, 62, 0
3, 21960, Note_on_c, 0, 64, 120
3, 22078, Note_on_c, 0, 64, 0
3, 22080, Note_on_c, 0, 64, 120
3, 22278, Note_on_c, 0, 64, 0
3, 22280, Note_on_c, 0, 59, 120
3, 22438, Note_on_c, 0, 59, 0
3, 22560, Note_on_c, 0, 59, 120
3, 22678, Note_on_c, 0, 59, 0
3, 22680, Note_on_c, 0, 62, 120
3, 22798, Note_on_c, 0, 62, 0
3, 22800, Note_on_c, 0, 67, 120
3, 22918, Note_on_c, 0, 67, 0
3, 22920, Note_on_c, 0, 67, 120
3, 22998, Note_on_c, 0, 67, 0
3, 23000, Note_on_c, 0, 66, 120
3, 23158, Note_on_c, 0, 66, 0
3, 23520, Note_on_c, 0, 66, 120
3, 23638, Note_on_c, 0, 66, 0
3, 23640, Note_on_c, 0, 64, 120
3, 23758, Note_on_c, 0, 64, 0
3, 23760, Note_on_c, 0, 62, 120
3, 23878, Note_on_c, 0, 62, 0
3, 23880, Note_on_c, 0, 64, 120
3, 23998, Note_on_c, 0, 64, 0
3, 24000, Note_on_c, 0, 64, 120
3, 24198, Note_on_c, 0, 64, 0
3, 24200, Note_on_c, 0, 59, 120
3, 24358, Note_on_c, 0, 59, 0
3, 24480, Note_on_c, 0, 59, 120
3, 24598, Note_on_c, 0, 59, 0
3, 24600, Note_on_c, 0, 62, 120
3, 24718, Note_on_c, 0, 62, 0
3, 24720, Note_on_c, 0, 67, 120
3, 24838, Note_on_c, 0, 67, 0
3, 24840, Note_on_c, 0, 67, 120
3, 24918, Note_on_c, 0, 67, 0
3, 24920, Note_on_c, 0, 66, 120
3, 25078, Note_on_c, 0, 66, 0
3, 25440, Note_on_c, 0, 66, 120
3, 25638, Note_on_c, 0, 66, 0
3, 25640, Note_on_c, 0, 62, 120
3, 25798, Note_on_c, 0, 62, 0
3, 25920, Note_on_c, 0, 64, 120
3, 26118, Note_on_c, 0, 64, 0
3, 26120, Note_on_c, 0, 59, 120
3, 26278, Note_on_c, 0, 59, 0
3, 26400, Note_on_c, 0, 66, 120
3, 26598, Note_on_c, 0, 66, 0
3, 26600, Note_on_c, 0, 62, 120
3, 26758, Note_on_c, 0, 62, 0
3, 26880, Note_on_c, 0, 64, 120
3, 27078, Note_on_c, 0, 64, 0
3, 27080, Note_on_c, 0, 59, 120
3, 27238, Note_on_c, 0, 59, 0
3, 27320, Note_on_c, 0, 64, 120
3, 27358, Note_on_c, 0, 64, 0
3, 27360, Note_on_c, 0, 66, 120
3, 27478, Note_on_c, 0, 66, 0
3, 27480, Note_on_c, 0, 64, 120
3, 27598, Note_on_c, 0, 64, 0
3, 27600, Note_on_c, 0, 62, 120
3, 27678, Note_on_c, 0, 62, 0
3, 27680, Note_on_c, 0, 62, 120
3, 27718, Note_on_c, 0, 62, 0
3, 27720, Note_on_c, 0, 64, 120
3, 27838, Note_on_c, 0, 64, 0
3, 27840, Note_on_c, 0, 64, 120
3, 28038, Note_on_c, 0, 64, 0
3, 28040, Note_on_c, 0, 59, 120
3, 28198, Note_on_c, 0, 59, 0
3, 28440, Note_on_c, 0, 67, 120
3, 28440, Note_on_c, 0, 62, 110
3, 28558, Note_on_c, 0, 67, 0
3, 28558, Note_on_c, 0, 62, 0
3, 28560, Note_on_c, 0, 62, 110
3, 28560, Note_on_c, 0, 67, 120
3, 28678, Note_on_c, 0, 62, 0
3, 28678, Note_on_c, 0, 67, 0
3, 28680, Note_on_c, 0, 61, 110
3, 28680, Note_on_c, 0, 67, 120
3, 28758, Note_on_c, 0, 61, 0
3, 28758, Note_on_c, 0, 67, 0
3, 28760, Note_on_c, 0, 62, 110
3, 28760, Note_on_c, 0, 66, 120
3, 28878, Note_on_c, 0, 62, 0
3, 28878, Note_on_c, 0, 66, 0
3, 28880, Note_on_c, 0, 59, 110
3, 28880, Note_on_c, 0, 64, 120
3, 28918, Note_on_c, 0, 59, 0
3, 28918, Note_on_c, 0, 64, 0
3, 28920, Note_on_c, 0, 62, 120
3, 28920, Note_on_c, 0, 57, 110
3, 29038, Note_on_c, 0, 62, 0
3, 29038, Note_on_c, 0, 57, 0
3, 29280, Note_on_c, 0, 57, 110
3, 29280, Note_on_c, 0, 64, 120
3, 29518, Note_on_c, 0, 57, 0
3, 29518, Note_on_c, 0, 64, 0
3, 29520, Note_on_c, 0, 57, 110
3, 29520, Note_on_c, 0, 64, 120
3, 29718, Note_on_c, 0, 57, 0
3, 29718, Note_on_c, 0, 64, 0
3, 29720, Note_on_c, 0, 59, 110
3, 29720, Note_on_c, 0, 66, 120
3, 29758, Note_on_c, 0, 59, 0
3, 29758, Note_on_c, 0, 66, 0
3, 29760, Note_on_c, 0, 57, 110
3, 29760, Note_on_c, 0, 64, 120
3, 29998, Note_on_c, 0, 57, 0
3, 29998, Note_on_c, 0, 64, 0
3, 30200, Note_on_c, 0, 62, 120
3, 30200, Note_on_c, 0, 57, 110
3, 30238, Note_on_c, 0, 62, 0
3, 30238, Note_on_c, 0, 57, 0
3, 30240, Note_on_c, 0, 59, 110
3, 30240, Note_on_c, 0, 64, 120
3, 30358, Note_on_c, 0, 59, 0
3, 30358, Note_on_c, 0, 64, 0
3, 30360, Note_on_c, 0, 57, 110
3, 30360, Note_on_c, 0, 62, 120
3, 30478, Note_on_c, 0, 57, 0
3, 30478, Note_on_c, 0, 62, 0
3, 30480, Note_on_c, 0, 59, 110
3, 30480, Note_on_c, 0, 64, 120
3, 30598, Note_on_c, 0, 59, 0
3, 30598, Note_on_c, 0, 64, 0
3, 30600, Note_on_c, 0, 57, 110
3, 30600, Note_on_c, 0, 62, 120
3, 30718, Note_on_c, 0, 57, 0
3, 30718, Note_on_c, 0, 62, 0
3, 30720, Note_on_c, 0, 64, 120
3, 30720, Note_on_c, 0, 59, 110
3, 30758, Note_on_c, 0, 64, 0
3, 30758, Note_on_c, 0, 59, 0
3, 30760, Note_on_c, 0, 57, 110
3, 30760, Note_on_c, 0, 62, 120
3, 30798, Note_on_c, 0, 57, 0
3, 30798, Note_on_c, 0, 62, 0
3, 30800, Note_on_c, 0, 54, 110
3, 30800, Note_on_c, 0, 59, 120
3, 30958, Note_on_c, 0, 54, 0
3, 30958, Note_on_c, 0, 59, 0
3, 31200, Note_on_c, 0, 56, 110
3, 31200, Note_on_c, 0, 64, 120
3, 31438, Note_on_c, 0, 56, 0
3, 31438, Note_on_c, 0, 64, 0
3, 31440, Note_on_c, 0, 56, 110
3, 31440, Note_on_c, 0, 64, 120
3, 31638, Note_on_c, 0, 56, 0
3, 31638, Note_on_c, 0, 64, 0
3, 31640, Note_on_c, 0, 66, 120
3, 31640, Note_on_c, 0, 57, 110
3, 31678, Note_on_c, 0, 66, 0
3, 31678, Note_on_c, 0, 57, 0
3, 31680, Note_on_c, 0, 64, 120
3, 31680, Note_on_c, 0, 56, 110
3, 31918, Note_on_c, 0, 64, 0
3, 31918, Note_on_c, 0, 56, 0
3, 32120, Note_on_c, 0, 57, 110
3, 32120, Note_on_c, 0, 62, 120
3, 32158, Note_on_c, 0, 57, 0
3, 32158, Note_on_c, 0, 62, 0
3, 32160, Note_on_c, 0, 59, 110
3, 32160, Note_on_c, 0, 64, 120
3, 32238, Note_on_c, 0, 59, 0
3, 32238, Note_on_c, 0, 64, 0
3, 32240, Note_on_c, 0, 57, 110
3, 32240, Note_on_c, 0, 62, 120
3, 32358, Note_on_c, 0, 57, 0
3, 32358, Note_on_c, 0, 62, 0
3, 32360, Note_on_c, 0, 59, 110
3, 32360, Note_on_c, 0, 64, 120
3, 32478, Note_on_c, 0, 59, 0
3, 32478, Note_on_c, 0, 64, 0
3, 32480, Note_on_c, 0, 62, 120
3, 32480, Note_on_c, 0, 57, 110
3, 32638, Note_on_c, 0, 62, 0
3, 32638, Note_on_c, 0, 57, 0
3, 32640, Note_on_c, 0, 61, 110
3, 32640, Note_on_c, 0, 64, 120
3, 32718, Note_on_c, 0, 61, 0
3, 32718, Note_on_c, 0, 64, 0
3, 32720, Note_on_c, 0, 61, 110
3, 32720, Note_on_c, 0, 64, 120
3, 32838, Note_on_c, 0, 61, 0
3, 32838, Note_on_c, 0, 64, 0
3, 32840, Note_on_c, 0, 64, 110
3, 32840, Note_on_c, 0, 67, 120
3, 33118, Note_on_c, 0, 64, 0
3, 33118, Note_on_c, 0, 67, 0
3, 33120, Note_on_c, 0, 66, 120
3, 33238, Note_on_c, 0, 66, 0
3, 33240, Note_on_c, 0, 64, 120
3, 33358, Note_on_c, 0, 64, 0
3, 33360, Note_on_c, 0, 62, 120
3, 33478, Note_on_c, 0, 62, 0
3, 33480, Note_on_c, 0, 64, 120
3, 33598, Note_on_c, 0, 64, 0
3, 33600, Note_on_c, 0, 64, 120
3, 33798, Note_on_c, 0, 64, 0
3, 33800, Note_on_c, 0, 59, 120
3, 33958, Note_on_c, 0, 59, 0
3, 34080, Note_on_c, 0, 59, 120
3, 34198, Note_on_c, 0, 59, 0
3, 34200, Note_on_c, 0, 62, 120
3, 34318, Note_on_c, 0, 62, 0
3, 34320, Note_on_c, 0, 67, 120
3, 34438, Note_on_c, 0, 67, 0
3, 34440, Note_on_c, 0, 67, 120
3, 34518, Note_on_c, 0, 67, 0
3, 34520, Note_on_c, 0, 66, 120
3, 34678, Note_on_c, 0, 66, 0
3, 35040, Note_on_c, 0, 66, 120
3, 35158, Note_on_c, 0, 66, 0
3, 35160, Note_on_c, 0, 64, 120
3, 35278, Note_on_c, 0, 64, 0
3, 35280, Note_on_c, 0, 62, 120
3, 35398, Note_on_c, 0, 62, 0
3, 35400, Note_on_c, 0, 64, 120
3, 35518, Note_on_c, 0, 64, 0
3, 35520, Note_on_c, 0, 64, 120
3, 35718, Note_on_c, 0, 64, 0
3, 35720, Note_on_c, 0, 59, 120
3, 35878, Note_on_c, 0, 59, 0
3, 36000, Note_on_c, 0, 59, 120
3, 36118, Note_on_c, 0, 59, 0
3, 36120, Note_on_c, 0, 62, 120
3, 36238, Note_on_c, 0, 62, 0
3, 36240, Note_on_c, 0, 67, 120
3, 36358, Note_on_c, 0, 67, 0
3, 36360, Note_on_c, 0, 67, 120
3, 36438, Note_on_c, 0, 67, 0
3, 36440, Note_on_c, 0, 66, 120
3, 36598, Note_on_c, 0, 66, 0
3, 36960, Note_on_c, 0, 69, 110
3, 36960, Note_on_c, 0, 66, 120
3, 37158, Note_on_c, 0, 69, 0
3, 37158, Note_on_c, 0, 66, 0
3, 37160, Note_on_c, 0, 66, 110
3, 37160, Note_on_c, 0, 62, 120
3, 37318, Note_on_c, 0, 66, 0
3, 37318, Note_on_c, 0, 62, 0
3, 37440, Note_on_c, 0, 64, 120
3, 37440, Note_on_c, 0, 67, 110
3, 37638, Note_on_c, 0, 64, 0
3, 37638, Note_on_c, 0, 67, 0
3, 37640, Note_on_c, 0, 62, 110
3, 37640, Note_on_c, 0, 59, 120
3, 37798, Note_on_c, 0, 62, 0
3, 37798, Note_on_c, 0, 59, 0
3, 37920, Note_on_c, 0, 66, 120
3, 37920, Note_on_c, 0, 69, 110
3, 38118, Note_on_c, 0, 66, 0
3, 38118, Note_on_c, 0, 69, 0
3, 38120, Note_on_c, 0, 66, 110
3, 38120, Note_on_c, 0, 62, 120
3, 38278, Note_on_c, 0, 66, 0
3, 38278, Note_on_c, 0, 62, 0
3, 38400, Note_on_c, 0, 68, 110
3, 38400, Note_on_c, 0, 64, 120
3, 38598, Note_on_c, 0, 68, 0
3, 38598, Note_on_c, 0, 64, 0
3, 38600, Note_on_c, 0, 59, 120
3, 38600, Note_on_c, 0, 64, 110
3, 38758, Note_on_c, 0, 59, 0
3, 38758, Note_on_c, 0, 64, 0
3, 38840, Note_on_c, 0, 64, 120
3, 38878, Note_on_c, 0, 64, 0
3, 38880, Note_on_c, 0, 66, 120
3, 38998, Note_on_c, 0, 66, 0
3, 39000, Note_on_c, 0, 64, 120
3, 39118, Note_on_c, 0, 64, 0
3, 39120, Note_on_c, 0, 62, 120
3, 39198, Note_on_c, 0, 62, 0
3, 39200, Note_on_c, 0, 62, 120
3, 39238, Note_on_c, 0, 62, 0
3, 39240, Note_on_c, 0, 64, 120
3, 39358, Note_on_c, 0, 64, 0
3, 39360, Note_on_c, 0, 64, 120
3, 39558, Note_on_c, 0, 64, 0
3, 39560, Note_on_c, 0, 59, 120
3, 39718, Note_on_c, 0, 59, 0
3, 39960, Note_on_c, 0, 67, 120
3, 39960, Note_on_c, 0, 62, 110
3, 40078, Note_on_c, 0, 67, 0
3, 40078, Note_on_c, 0, 62, 0
3, 40080, Note_on_c, 0, 62, 110
3, 40080, Note_on_c, 0, 67, 120
3, 40198, Note_on_c, 0, 62, 0
3, 40198, Note_on_c, 0, 67, 0
3, 40200, Note_on_c, 0, 61, 110
3, 40200, Note_on_c, 0, 67, 120
3, 40278, Note_on_c, 0, 61, 0
3, 40278, Note_on_c, 0, 67, 0
3, 40280, Note_on_c, 0, 66, 120
3, 40280, Note_on_c, 0, 62, 110
3, 40398, Note_on_c, 0, 66, 0
3, 40398, Note_on_c, 0, 62, 0
3, 40400, Note_on_c, 0, 59, 110
3, 40400, Note_on_c, 0, 64, 120
3, 40438, Note_on_c, 0, 59, 0
3, 40438, Note_on_c, 0, 64, 0
3, 40440, Note_on_c, 0, 62, 120
3, 40440, Note_on_c, 0, 57, 110
3, 40558, Note_on_c, 0, 62, 0
3, 40558, Note_on_c, 0, 57, 0
3, 40920, Note_on_c, 0, 62, 110
3, 40920, Note_on_c, 0, 67, 120
3, 41038, Note_on_c, 0, 62, 0
3, 41038, Note_on_c, 0, 67, 0
3, 41040, Note_on_c, 0, 67, 120
3, 41040, Note_on_c, 0, 62, 110
3, 41158, Note_on_c, 0, 67, 0
3, 41158, Note_on_c, 0, 62, 0
3, 41160, Note_on_c, 0, 61, 110
3, 41160, Note_on_c, 0, 67, 120
3, 41238, Note_on_c, 0, 61, 0
3, 41238, Note_on_c, 0, 67, 0
3, 41240, Note_on_c, 0, 66, 120
3, 41240, Note_on_c, 0, 62, 110
3, 41358, Note_on_c, 0, 66, 0
3, 41358, Note_on_c, 0, 62, 0
3, 41360, Note_on_c, 0, 59, 110
3, 41360, Note_on_c, 0, 64, 120
3, 41398, Note_on_c, 0, 59, 0
3, 41398, Note_on_c, 0, 64, 0
3, 41400, Note_on_c, 0, 62, 120
3, 41400, Note_on_c, 0, 57, 110
3, 41518, Note_on_c, 0, 62, 0
3, 41518, Note_on_c, 0, 57, 0
3, 41880, Note_on_c, 0, 62, 110
3, 41880, Note_on_c, 0, 67, 120
3, 41998, Note_on_c, 0, 62, 0
3, 41998, Note_on_c, 0, 67, 0
3, 42000, Note_on_c, 0, 67, 120
3, 42000, Note_on_c, 0, 62, 110
3, 42118, Note_on_c, 0, 67, 0
3, 42118, Note_on_c, 0, 62, 0
3, 42120, Note_on_c, 0, 61, 110
3, 42120, Note_on_c, 0, 67, 120
3, 42198, Note_on_c, 0, 61, 0
3, 42198, Note_on_c, 0, 67, 0
3, 42200, Note_on_c, 0, 66, 120
3, 42200, Note_on_c, 0, 62, 110
3, 42318, Note_on_c, 0, 66, 0
3, 42318, Note_on_c, 0, 62, 0
3, 42320, Note_on_c, 0, 59, 110
3, 42320, Note_on_c, 0, 64, 120
3, 42358, Note_on_c, 0, 59, 0
3, 42358, Note_on_c, 0, 64, 0
3, 42360, Note_on_c, 0, 62, 120
3, 42360, Note_on_c, 0, 57, 110
3, 42478, Note_on_c, 0, 62, 0
3, 42478, Note_on_c, 0, 57, 0
3, 42478, End_track
4, 0, Start_track
4, 0, Title_t, "Nylon Gtr Rythm B32"
4, 0, MIDI_port, 0
4, 121, Control_c, 1, 7, 100
4, 122, Control_c, 1, 10, 0
4, 123, Control_c, 1, 91, 127
4, 125, Control_c, 1, 93, 127
4, 126, Control_c, 1, 32, 0
4, 126, Control_c, 1, 0, 32
4, 126, Program_c, 1, 24
4, 480, Control_c, 1, 7, 20
4, 480, Note_on_c, 1, 62, 87
4, 481, Note_on_c, 1, 66, 85
4, 482, Note_on_c, 1, 69, 83
4, 483, Note_on_c, 1, 64, 81
4, 503, Control_c, 1, 7, 21
4, 527, Control_c, 1, 7, 22
4, 552, Control_c, 1, 7, 23
4, 576, Control_c, 1, 7, 24
4, 600, Control_c, 1, 7, 25
4, 623, Control_c, 1, 7, 26
4, 647, Control_c, 1, 7, 27
4, 672, Control_c, 1, 7, 28
4, 677, Note_on_c, 1, 62, 0
4, 678, Note_on_c, 1, 66, 0
4, 679, Note_on_c, 1, 69, 0
4, 680, Note_on_c, 1, 64, 0
4, 680, Note_on_c, 1, 62, 87
4, 681, Note_on_c, 1, 66, 85
4, 682, Note_on_c, 1, 69, 83
4, 683, Note_on_c, 1, 64, 81
4, 696, Control_c, 1, 7, 29
4, 717, Note_on_c, 1, 62, 0
4, 718, Note_on_c, 1, 66, 0
4, 719, Note_on_c, 1, 69, 0
4, 720, Note_on_c, 1, 64, 0
4, 720, Control_c, 1, 7, 30
4, 720, Note_on_c, 1, 62, 87
4, 721, Note_on_c, 1, 66, 85
4, 722, Note_on_c, 1, 69, 83
4, 723, Note_on_c, 1, 64, 81
4, 743, Control_c, 1, 7, 31
4, 767, Control_c, 1, 7, 32
4, 791, Control_c, 1, 7, 33
4, 816, Control_c, 1, 7, 34
4, 837, Note_on_c, 1, 62, 0
4, 838, Note_on_c, 1, 66, 0
4, 839, Note_on_c, 1, 69, 0
4, 840, Note_on_c, 1, 64, 0
4, 840, Control_c, 1, 7, 35
4, 840, Note_on_c, 1, 62, 87
4, 841, Note_on_c, 1, 66, 85
4, 842, Note_on_c, 1, 69, 83
4, 843, Note_on_c, 1, 64, 81
4, 863, Control_c, 1, 7, 36
4, 887, Control_c, 1, 7, 37
4, 911, Control_c, 1, 7, 38
4, 936, Control_c, 1, 7, 39
4, 957, Note_on_c, 1, 62, 0
4, 958, Note_on_c, 1, 66, 0
4, 959, Note_on_c, 1, 69, 0
4, 960, Note_on_c, 1, 64, 0
4, 960, Control_c, 1, 7, 40
4, 960, Note_on_c, 1, 64, 87
4, 961, Note_on_c, 1, 68, 85
4, 962, Note_on_c, 1, 71, 83
4, 963, Note_on_c, 1, 64, 81
4, 983, Control_c, 1, 7, 41
4, 1007, Control_c, 1, 7, 42
4, 1031, Control_c, 1, 7, 43
4, 1056, Control_c, 1, 7, 44
4, 1080, Control_c, 1, 7, 45
4, 1103, Control_c, 1, 7, 46
4, 1127, Control_c, 1, 7, 47
4, 1151, Control_c, 1, 7, 48
4, 1157, Note_on_c, 1, 64, 0
4, 1158, Note_on_c, 1, 68, 0
4, 1159, Note_on_c, 1, 71, 0
4, 1160, Note_on_c, 1, 64, 0
4, 1160, Note_on_c, 1, 64, 87
4, 1161, Note_on_c, 1, 68, 85
4, 1162, Note_on_c, 1, 71, 83
4, 1163, Note_on_c, 1, 64, 81
4, 1175, Control_c, 1, 7, 49
4, 1197, Note_on_c, 1, 64, 0
4, 1198, Note_on_c, 1, 68, 0
4, 1199, Note_on_c, 1, 71, 0
4, 1200, Note_on_c, 1, 64, 0
4, 1200, Control_c, 1, 7, 50
4, 1200, Note_on_c, 1, 64, 87
4, 1201, Note_on_c, 1, 68, 85
4, 1202, Note_on_c, 1, 71, 83
4, 1203, Note_on_c, 1, 64, 81
4, 1223, Control_c, 1, 7, 51
4, 1247, Control_c, 1, 7, 52
4, 1271, Control_c, 1, 7, 53
4, 1295, Control_c, 1, 7, 54
4, 1317, Note_on_c, 1, 64, 0
4, 1318, Note_on_c, 1, 68, 0
4, 1319, Note_on_c, 1, 71, 0
4, 1320, Note_on_c, 1, 64, 0
4, 1320, Control_c, 1, 7, 55
4, 1320, Note_on_c, 1, 64, 87
4, 1321, Note_on_c, 1, 68, 85
4, 1322, Note_on_c, 1, 71, 83
4, 1323, Note_on_c, 1, 64, 81
4, 1343, Control_c, 1, 7, 56
4, 1367, Control_c, 1, 7, 57
4, 1391, Control_c, 1, 7, 58
4, 1415, Control_c, 1, 7, 59
4, 1437, Note_on_c, 1, 64, 0
4, 1438, Note_on_c, 1, 68, 0
4, 1439, Note_on_c, 1, 71, 0
4, 1440, Note_on_c, 1, 64, 0
4, 1440, Control_c, 1, 7, 60
4, 1440, Note_on_c, 1, 67, 87
4, 1441, Note_on_c, 1, 71, 85
4, 1442, Note_on_c, 1, 74, 83
4, 1443, Note_on_c, 1, 64, 81
4, 1463, Control_c, 1, 7, 61
4, 1487, Control_c, 1, 7, 62
4, 1511, Control_c, 1, 7, 63
4, 1535, Control_c, 1, 7, 64
4, 1558, Control_c, 1, 7, 65
4, 1583, Control_c, 1, 7, 66
4, 1607, Control_c, 1, 7, 67
4, 1631, Control_c, 1, 7, 68
4, 1637, Note_on_c, 1, 67, 0
4, 1638, Note_on_c, 1, 71, 0
4, 1639, Note_on_c, 1, 74, 0
4, 1640, Note_on_c, 1, 64, 0
4, 1640, Note_on_c, 1, 67, 87
4, 1641, Note_on_c, 1, 71, 85
4, 1642, Note_on_c, 1, 74, 83
4, 1643, Note_on_c, 1, 64, 81
4, 1655, Control_c, 1, 7, 69
4, 1677, Note_on_c, 1, 67, 0
4, 1678, Note_on_c, 1, 71, 0
4, 1678, Control_c, 1, 7, 70
4, 1679, Note_on_c, 1, 74, 0
4, 1680, Note_on_c, 1, 64, 0
4, 1680, Note_on_c, 1, 67, 87
4, 1681, Note_on_c, 1, 71, 85
4, 1682, Note_on_c, 1, 74, 83
4, 1683, Note_on_c, 1, 64, 81
4, 1703, Control_c, 1, 7, 71
4, 1727, Control_c, 1, 7, 72
4, 1751, Control_c, 1, 7, 73
4, 1775, Control_c, 1, 7, 74
4, 1797, Note_on_c, 1, 67, 0
4, 1798, Note_on_c, 1, 71, 0
4, 1798, Control_c, 1, 7, 75
4, 1799, Note_on_c, 1, 74, 0
4, 1800, Note_on_c, 1, 64, 0
4, 1800, Note_on_c, 1, 67, 87
4, 1801, Note_on_c, 1, 71, 85
4, 1802, Note_on_c, 1, 74, 83
4, 1803, Note_on_c, 1, 64, 81
4, 1823, Control_c, 1, 7, 76
4, 1847, Control_c, 1, 7, 77
4, 1871, Control_c, 1, 7, 78
4, 1895, Control_c, 1, 7, 79
4, 1917, Note_on_c, 1, 67, 0
4, 1918, Note_on_c, 1, 71, 0
4, 1918, Control_c, 1, 7, 80
4, 1919, Note_on_c, 1, 74, 0
4, 1920, Note_on_c, 1, 64, 0
4, 1920, Note_on_c, 1, 62, 87
4, 1921, Note_on_c, 1, 66, 85
4, 1922, Note_on_c, 1, 69, 83
4, 1923, Note_on_c, 1, 64, 81
4, 1942, Control_c, 1, 7, 81
4, 1967, Control_c, 1, 7, 82
4, 1991, Control_c, 1, 7, 83
4, 2015, Control_c, 1, 7, 84
4, 2038, Control_c, 1, 7, 85
4, 2062, Control_c, 1, 7, 86
4, 2087, Control_c, 1, 7, 87
4, 2111, Control_c, 1, 7, 88
4, 2117, Note_on_c, 1, 62, 0
4, 2118, Note_on_c, 1, 66, 0
4, 2119, Note_on_c, 1, 69, 0
4, 2120, Note_on_c, 1, 64, 0
4, 2120, Note_on_c, 1, 62, 87
4, 2121, Note_on_c, 1, 66, 85
4, 2122, Note_on_c, 1, 69, 83
4, 2123, Note_on_c, 1, 64, 81
4, 2135, Control_c, 1, 7, 89
4, 2157, Note_on_c, 1, 62, 0
4, 2158, Note_on_c, 1, 66, 0
4, 2158, Control_c, 1, 7, 90
4, 2159, Note_on_c, 1, 69, 0
4, 2160, Note_on_c, 1, 64, 0
4, 2160, Note_on_c, 1, 62, 87
4, 2161, Note_on_c, 1, 66, 85
4, 2162, Note_on_c, 1, 69, 83
4, 2163, Note_on_c, 1, 64, 81
4, 2182, Control_c, 1, 7, 91
4, 2207, Control_c, 1, 7, 92
4, 2231, Control_c, 1, 7, 93
4, 2255, Control_c, 1, 7, 94
4, 2277, Note_on_c, 1, 62, 0
4, 2278, Note_on_c, 1, 66, 0
4, 2278, Control_c, 1, 7, 95
4, 2279, Note_on_c, 1, 69, 0
4, 2280, Note_on_c, 1, 64, 0
4, 2280, Note_on_c, 1, 62, 87
4, 2281, Note_on_c, 1, 66, 85
4, 2282, Note_on_c, 1, 69, 83
4, 2283, Note_on_c, 1, 64, 81
4, 2302, Control_c, 1, 7, 96
4, 2326, Control_c, 1, 7, 97
4, 2351, Control_c, 1, 7, 98
4, 2375, Control_c, 1, 7, 99
4, 2397, Note_on_c, 1, 62, 0
4, 2398, Note_on_c, 1, 66, 0
4, 2398, Control_c, 1, 7, 100
4, 2399, Note_on_c, 1, 69, 0
4, 2399, Control_c, 1, 93, 45
4, 2399, Control_c, 1, 91, 50
4, 2400, Note_on_c, 1, 64, 0
4, 2400, Note_on_c, 1, 45, 83
4, 2401, Note_on_c, 1, 50, 81
4, 2402, Note_on_c, 1, 57, 79
4, 2403, Note_on_c, 1, 62, 77
4, 2405, Note_on_c, 1, 66, 75
4, 2517, Note_on_c, 1, 45, 0
4, 2518, Note_on_c, 1, 50, 0
4, 2519, Note_on_c, 1, 57, 0
4, 2520, Note_on_c, 1, 62, 0
4, 2520, Note_on_c, 1, 45, 83
4, 2521, Note_on_c, 1, 50, 81
4, 2522, Note_on_c, 1, 66, 0
4, 2522, Note_on_c, 1, 57, 79
4, 2523, Note_on_c, 1, 62, 77
4, 2525, Note_on_c, 1, 66, 75
4, 2637, Note_on_c, 1, 45, 0
4, 2638, Note_on_c, 1, 50, 0
4, 2639, Note_on_c, 1, 57, 0
4, 2640, Note_on_c, 1, 62, 0
4, 2640, Note_on_c, 1, 45, 83
4, 2641, Note_on_c, 1, 50, 81
4, 2642, Note_on_c, 1, 66, 0
4, 2642, Note_on_c, 1, 57, 79
4, 2643, Note_on_c, 1, 62, 77
4, 2645, Note_on_c, 1, 66, 75
4, 2717, Note_on_c, 1, 45, 0
4, 2718, Note_on_c, 1, 50, 0
4, 2719, Note_on_c, 1, 57, 0
4, 2720, Note_on_c, 1, 62, 0
4, 2720, Note_on_c, 1, 45, 83
4, 2721, Note_on_c, 1, 50, 81
4, 2722, Note_on_c, 1, 66, 0
4, 2722, Note_on_c, 1, 57, 79
4, 2723, Note_on_c, 1, 62, 77
4, 2725, Note_on_c, 1, 66, 75
4, 2757, Note_on_c, 1, 45, 0
4, 2758, Note_on_c, 1, 50, 0
4, 2759, Note_on_c, 1, 57, 0
4, 2760, Note_on_c, 1, 62, 0
4, 2760, Note_on_c, 1, 45, 83
4, 2761, Note_on_c, 1, 50, 81
4, 2762, Note_on_c, 1, 66, 0
4, 2762, Note_on_c, 1, 57, 79
4, 2763, Note_on_c, 1, 62, 77
4, 2765, Note_on_c, 1, 66, 75
4, 2877, Note_on_c, 1, 45, 0
4, 2878, Note_on_c, 1, 50, 0
4, 2879, Note_on_c, 1, 57, 0
4, 2880, Note_on_c, 1, 62, 0
4, 2880, Note_on_c, 1, 40, 83
4, 2881, Note_on_c, 1, 47, 81
4, 2882, Note_on_c, 1, 66, 0
4, 2882, Note_on_c, 1, 52, 79
4, 2883, Note_on_c, 1, 56, 77
4, 2885, Note_on_c, 1, 59, 75
4, 2886, Note_on_c, 1, 64, 73
4, 2997, Note_on_c, 1, 40, 0
4, 2998, Note_on_c, 1, 47, 0
4, 2999, Note_on_c, 1, 52, 0
4, 3000, Note_on_c, 1, 56, 0
4, 3000, Note_on_c, 1, 40, 83
4, 3001, Note_on_c, 1, 47, 81
4, 3002, Note_on_c, 1, 59, 0
4, 3002, Note_on_c, 1, 52, 79
4, 3003, Note_on_c, 1, 64, 0
4, 3003, Note_on_c, 1, 56, 77
4, 3005, Note_on_c, 1, 59, 75
4, 3006, Note_on_c, 1, 64, 73
4, 3117, Note_on_c, 1, 40, 0
4, 3118, Note_on_c, 1, 47, 0
4, 3119, Note_on_c, 1, 52, 0
4, 3120, Note_on_c, 1, 56, 0
4, 3120, Note_on_c, 1, 40, 83
4, 3121, Note_on_c, 1, 47, 81
4, 3122, Note_on_c, 1, 59, 0
4, 3122, Note_on_c, 1, 52, 79
4, 3123, Note_on_c, 1, 64, 0
4, 3123, Note_on_c, 1, 56, 77
4, 3125, Note_on_c, 1, 59, 75
4, 3126, Note_on_c, 1, 64, 73
4, 3197, Note_on_c, 1, 40, 0
4, 3198, Note_on_c, 1, 47, 0
4, 3199, Note_on_c, 1, 52, 0
4, 3200, Note_on_c, 1, 56, 0
4, 3200, Note_on_c, 1, 40, 83
4, 3201, Note_on_c, 1, 47, 81
4, 3202, Note_on_c, 1, 59, 0
4, 3202, Note_on_c, 1, 52, 79
4, 3203, Note_on_c, 1, 64, 0
4, 3203, Note_on_c, 1, 56, 77
4, 3205, Note_on_c, 1, 59, 75
4, 3206, Note_on_c, 1, 64, 73
4, 3237, Note_on_c, 1, 40, 0
4, 3238, Note_on_c, 1, 47, 0
4, 3239, Note_on_c, 1, 52, 0
4, 3240, Note_on_c, 1, 56, 0
4, 3240, Note_on_c, 1, 40, 83
4, 3241, Note_on_c, 1, 47, 81
4, 3242, Note_on_c, 1, 59, 0
4, 3242, Note_on_c, 1, 52, 79
4, 3243, Note_on_c, 1, 64, 0
4, 3243, Note_on_c, 1, 56, 77
4, 3245, Note_on_c, 1, 59, 75
4, 3246, Note_on_c, 1, 64, 73
4, 3357, Note_on_c, 1, 40, 0
4, 3358, Note_on_c, 1, 47, 0
4, 3359, Note_on_c, 1, 52, 0
4, 3360, Note_on_c, 1, 56, 0
4, 3360, Note_on_c, 1, 43, 83
4, 3361, Note_on_c, 1, 47, 81
4, 3362, Note_on_c, 1, 59, 0
4, 3362, Note_on_c, 1, 50, 79
4, 3363, Note_on_c, 1, 64, 0
4, 3363, Note_on_c, 1, 55, 77
4, 3365, Note_on_c, 1, 59, 75
4, 3366, Note_on_c, 1, 67, 73
4, 3477, Note_on_c, 1, 43, 0
4, 3478, Note_on_c, 1, 47, 0
4, 3479, Note_on_c, 1, 50, 0
4, 3480, Note_on_c, 1, 55, 0
4, 3480, Note_on_c, 1, 43, 83
4, 3481, Note_on_c, 1, 47, 81
4, 3482, Note_on_c, 1, 59, 0
4, 3482, Note_on_c, 1, 50, 79
4, 3483, Note_on_c, 1, 67, 0
4, 3483, Note_on_c, 1, 55, 77
4, 3485, Note_on_c, 1, 59, 75
4, 3486, Note_on_c, 1, 67, 73
4, 3597, Note_on_c, 1, 43, 0
4, 3598, Note_on_c, 1, 47, 0
4, 3599, Note_on_c, 1, 50, 0
4, 3600, Note_on_c, 1, 55, 0
4, 3600, Note_on_c, 1, 43, 83
4, 3601, Note_on_c, 1, 47, 81
4, 3602, Note_on_c, 1, 59, 0
4, 3602, Note_on_c, 1, 50, 79
4, 3603, Note_on_c, 1, 67, 0
4, 3603, Note_on_c, 1, 55, 77
4, 3605, Note_on_c, 1, 59, 75
4, 3606, Note_on_c, 1, 67, 73
4, 3677, Note_on_c, 1, 43, 0
4, 3678, Note_on_c, 1, 47, 0
4, 3679, Note_on_c, 1, 50, 0
4, 3680, Note_on_c, 1, 55, 0
4, 3680, Note_on_c, 1, 43, 83
4, 3681, Note_on_c, 1, 47, 81
4, 3682, Note_on_c, 1, 59, 0
4, 3682, Note_on_c, 1, 50, 79
4, 3683, Note_on_c, 1, 67, 0
4, 3683, Note_on_c, 1, 55, 77
4, 3685, Note_on_c, 1, 59, 75
4, 3686, Note_on_c, 1, 67, 73
4, 3717, Note_on_c, 1, 43, 0
4, 3718, Note_on_c, 1, 47, 0
4, 3719, Note_on_c, 1, 50, 0
4, 3720, Note_on_c, 1, 55, 0
4, 3720, Note_on_c, 1, 43, 83
4, 3721, Note_on_c, 1, 47, 81
4, 3722, Note_on_c, 1, 59, 0
4, 3722, Note_on_c, 1, 50, 79
4, 3723, Note_on_c, 1, 67, 0
4, 3723, Note_on_c, 1, 55, 77
4, 3725, Note_on_c, 1, 59, 75
4, 3726, Note_on_c, 1, 67, 73
4, 3837, Note_on_c, 1, 43, 0
4, 3838, Note_on_c, 1, 47, 0
4, 3839, Note_on_c, 1, 50, 0
4, 3840, Note_on_c, 1, 55, 0
4, 3840, Note_on_c, 1, 45, 83
4, 3841, Note_on_c, 1, 50, 81
4, 3842, Note_on_c, 1, 59, 0
4, 3842, Note_on_c, 1, 57, 79
4, 3843, Note_on_c, 1, 67, 0
4, 3843, Note_on_c, 1, 62, 77
4, 3845, Note_on_c, 1, 66, 75
4, 3957, Note_on_c, 1, 45, 0
4, 3958, Note_on_c, 1, 50, 0
4, 3959, Note_on_c, 1, 57, 0
4, 3960, Note_on_c, 1, 62, 0
4, 3960, Note_on_c, 1, 45, 83
4, 3961, Note_on_c, 1, 50, 81
4, 3962, Note_on_c, 1, 66, 0
4, 3962, Note_on_c, 1, 57, 79
4, 3963, Note_on_c, 1, 62, 77
4, 3965, Note_on_c, 1, 66, 75
4, 4077, Note_on_c, 1, 45, 0
4, 4078, Note_on_c, 1, 50, 0
4, 4079, Note_on_c, 1, 57, 0
4, 4080, Note_on_c, 1, 62, 0
4, 4080, Note_on_c, 1, 45, 83
4, 4081, Note_on_c, 1, 50, 81
4, 4082, Note_on_c, 1, 66, 0
4, 4082, Note_on_c, 1, 57, 79
4, 4083, Note_on_c, 1, 62, 77
4, 4085, Note_on_c, 1, 66, 75
4, 4157, Note_on_c, 1, 45, 0
4, 4158, Note_on_c, 1, 50, 0
4, 4159, Note_on_c, 1, 57, 0
4, 4160, Note_on_c, 1, 62, 0
4, 4160, Note_on_c, 1, 45, 83
4, 4161, Note_on_c, 1, 50, 81
4, 4162, Note_on_c, 1, 66, 0
4, 4162, Note_on_c, 1, 57, 79
4, 4163, Note_on_c, 1, 62, 77
4, 4165, Note_on_c, 1, 66, 75
4, 4197, Note_on_c, 1, 45, 0
4, 4198, Note_on_c, 1, 50, 0
4, 4199, Note_on_c, 1, 57, 0
4, 4200, Note_on_c, 1, 62, 0
4, 4200, Note_on_c, 1, 45, 83
4, 4201, Note_on_c, 1, 50, 81
4, 4202, Note_on_c, 1, 66, 0
4, 4202, Note_on_c, 1, 57, 79
4, 4203, Note_on_c, 1, 62, 77
4, 4205, Note_on_c, 1, 66, 75
4, 4317, Note_on_c, 1, 45, 0
4, 4318, Note_on_c, 1, 50, 0
4, 4319, Note_on_c, 1, 57, 0
4, 4320, Note_on_c, 1, 62, 0
4, 4320, Note_on_c, 1, 45, 83
4, 4321, Note_on_c, 1, 50, 81
4, 4322, Note_on_c, 1, 66, 0
4, 4322, Note_on_c, 1, 57, 79
4, 4323, Note_on_c, 1, 62, 77
4, 4325, Note_on_c, 1, 66, 75
4, 4437, Note_on_c, 1, 45, 0
4, 4438, Note_on_c, 1, 50, 0
4, 4439, Note_on_c, 1, 57, 0
4, 4440, Note_on_c, 1, 62, 0
4, 4440, Note_on_c, 1, 45, 83
4, 4441, Note_on_c, 1, 50, 81
4, 4442, Note_on_c, 1, 66, 0
4, 4442, Note_on_c, 1, 57, 79
4, 4443, Note_on_c, 1, 62, 77
4, 4445, Note_on_c, 1, 66, 75
4, 4557, Note_on_c, 1, 45, 0
4, 4558, Note_on_c, 1, 50, 0
4, 4559, Note_on_c, 1, 57, 0
4, 4560, Note_on_c, 1, 62, 0
4, 4560, Note_on_c, 1, 45, 83
4, 4561, Note_on_c, 1, 50, 81
4, 4562, Note_on_c, 1, 66, 0
4, 4562, Note_on_c, 1, 57, 79
4, 4563, Note_on_c, 1, 62, 77
4, 4565, Note_on_c, 1, 66, 75
4, 4637, Note_on_c, 1, 45, 0
4, 4638, Note_on_c, 1, 50, 0
4, 4639, Note_on_c, 1, 57, 0
4, 4640, Note_on_c, 1, 62, 0
4, 4640, Note_on_c, 1, 45, 83
4, 4641, Note_on_c, 1, 50, 81
4, 4642, Note_on_c, 1, 66, 0
4, 4642, Note_on_c, 1, 57, 79
4, 4643, Note_on_c, 1, 62, 77
4, 4645, Note_on_c, 1, 66, 75
4, 4677, Note_on_c, 1, 45, 0
4, 4678, Note_on_c, 1, 50, 0
4, 4679, Note_on_c, 1, 57, 0
4, 4680, Note_on_c, 1, 62, 0
4, 4680, Note_on_c, 1, 45, 83
4, 4681, Note_on_c, 1, 50, 81
4, 4682, Note_on_c, 1, 66, 0
4, 4682, Note_on_c, 1, 57, 79
4, 4683, Note_on_c, 1, 62, 77
4, 4685, Note_on_c, 1, 66, 75
4, 4797, Note_on_c, 1, 45, 0
4, 4798, Note_on_c, 1, 50, 0
4, 4799, Note_on_c, 1, 57, 0
4, 4800, Note_on_c, 1, 62, 0
4, 4800, Note_on_c, 1, 40, 83
4, 4801, Note_on_c, 1, 47, 81
4, 4802, Note_on_c, 1, 66, 0
4, 4802, Note_on_c, 1, 52, 79
4, 4803, Note_on_c, 1, 56, 77
4, 4805, Note_on_c, 1, 59, 75
4, 4806, Note_on_c, 1, 64, 73
4, 4917, Note_on_c, 1, 40, 0
4, 4918, Note_on_c, 1, 47, 0
4, 4919, Note_on_c, 1, 52, 0
4, 4920, Note_on_c, 1, 56, 0
4, 4920, Note_on_c, 1, 40, 83
4, 4921, Note_on_c, 1, 47, 81
4, 4922, Note_on_c, 1, 59, 0
4, 4922, Note_on_c, 1, 52, 79
4, 4923, Note_on_c, 1, 64, 0
4, 4923, Note_on_c, 1, 56, 77
4, 4925, Note_on_c, 1, 59, 75
4, 4926, Note_on_c, 1, 64, 73
4, 5037, Note_on_c, 1, 40, 0
4, 5038, Note_on_c, 1, 47, 0
4, 5039, Note_on_c, 1, 52, 0
4, 5040, Note_on_c, 1, 56, 0
4, 5040, Note_on_c, 1, 40, 83
4, 5041, Note_on_c, 1, 47, 81
4, 5042, Note_on_c, 1, 59, 0
4, 5042, Note_on_c, 1, 52, 79
4, 5043, Note_on_c, 1, 64, 0
4, 5043, Note_on_c, 1, 56, 77
4, 5045, Note_on_c, 1, 59, 75
4, 5046, Note_on_c, 1, 64, 73
4, 5117, Note_on_c, 1, 40, 0
4, 5118, Note_on_c, 1, 47, 0
4, 5119, Note_on_c, 1, 52, 0
4, 5120, Note_on_c, 1, 56, 0
4, 5120, Note_on_c, 1, 40, 83
4, 5121, Note_on_c, 1, 47, 81
4, 5122, Note_on_c, 1, 59, 0
4, 5122, Note_on_c, 1, 52, 79
4, 5123, Note_on_c, 1, 64, 0
4, 5123, Note_on_c, 1, 56, 77
4, 5125, Note_on_c, 1, 59, 75
4, 5126, Note_on_c, 1, 64, 73
4, 5157, Note_on_c, 1, 40, 0
4, 5158, Note_on_c, 1, 47, 0
4, 5159, Note_on_c, 1, 52, 0
4, 5160, Note_on_c, 1, 56, 0
4, 5160, Note_on_c, 1, 40, 83
4, 5161, Note_on_c, 1, 47, 81
4, 5162, Note_on_c, 1, 59, 0
4, 5162, Note_on_c, 1, 52, 79
4, 5163, Note_on_c, 1, 64, 0
4, 5163, Note_on_c, 1, 56, 77
4, 5165, Note_on_c, 1, 59, 75
4, 5166, Note_on_c, 1, 64, 73
4, 5277, Note_on_c, 1, 40, 0
4, 5278, Note_on_c, 1, 47, 0
4, 5279, Note_on_c, 1, 52, 0
4, 5280, Note_on_c, 1, 56, 0
4, 5280, Note_on_c, 1, 43, 83
4, 5281, Note_on_c, 1, 47, 81
4, 5282, Note_on_c, 1, 59, 0
4, 5282, Note_on_c, 1, 50, 79
4, 5283, Note_on_c, 1, 64, 0
4, 5283, Note_on_c, 1, 55, 77
4, 5285, Note_on_c, 1, 59, 75
4, 5286, Note_on_c, 1, 67, 73
4, 5397, Note_on_c, 1, 43, 0
4, 5398, Note_on_c, 1, 47, 0
4, 5399, Note_on_c, 1, 50, 0
4, 5400, Note_on_c, 1, 55, 0
4, 5400, Note_on_c, 1, 43, 83
4, 5401, Note_on_c, 1, 47, 81
4, 5402, Note_on_c, 1, 59, 0
4, 5402, Note_on_c, 1, 50, 79
4, 5403, Note_on_c, 1, 67, 0
4, 5403, Note_on_c, 1, 55, 77
4, 5405, Note_on_c, 1, 59, 75
4, 5406, Note_on_c, 1, 67, 73
4, 5517, Note_on_c, 1, 43, 0
4, 5518, Note_on_c, 1, 47, 0
4, 5519, Note_on_c, 1, 50, 0
4, 5520, Note_on_c, 1, 55, 0
4, 5520, Note_on_c, 1, 43, 83
4, 5521, Note_on_c, 1, 47, 81
4, 5522, Note_on_c, 1, 59, 0
4, 5522, Note_on_c, 1, 50, 79
4, 5523, Note_on_c, 1, 67, 0
4, 5523, Note_on_c, 1, 55, 77
4, 5525, Note_on_c, 1, 59, 75
4, 5526, Note_on_c, 1, 67, 73
4, 5597, Note_on_c, 1, 43, 0
4, 5598, Note_on_c, 1, 47, 0
4, 5599, Note_on_c, 1, 50, 0
4, 5600, Note_on_c, 1, 55, 0
4, 5600, Note_on_c, 1, 43, 83
4, 5601, Note_on_c, 1, 47, 81
4, 5602, Note_on_c, 1, 59, 0
4, 5602, Note_on_c, 1, 50, 79
4, 5603, Note_on_c, 1, 67, 0
4, 5603, Note_on_c, 1, 55, 77
4, 5605, Note_on_c, 1, 59, 75
4, 5606, Note_on_c, 1, 67, 73
4, 5637, Note_on_c, 1, 43, 0
4, 5638, Note_on_c, 1, 47, 0
4, 5639, Note_on_c, 1, 50, 0
4, 5640, Note_on_c, 1, 55, 0
4, 5640, Note_on_c, 1, 43, 83
4, 5641, Note_on_c, 1, 47, 81
4, 5642, Note_on_c, 1, 59, 0
4, 5642, Note_on_c, 1, 50, 79
4, 5643, Note_on_c, 1, 67, 0
4, 5643, Note_on_c, 1, 55, 77
4, 5645, Note_on_c, 1, 59, 75
4, 5646, Note_on_c, 1, 67, 73
4, 5757, Note_on_c, 1, 43, 0
4, 5758, Note_on_c, 1, 47, 0
4, 5759, Note_on_c, 1, 50, 0
4, 5760, Note_on_c, 1, 55, 0
4, 5760, Note_on_c, 1, 45, 83
4, 5761, Note_on_c, 1, 50, 81
4, 5762, Note_on_c, 1, 59, 0
4, 5762, Note_on_c, 1, 57, 79
4, 5763, Note_on_c, 1, 67, 0
4, 5763, Note_on_c, 1, 62, 77
4, 5765, Note_on_c, 1, 66, 75
4, 5877, Note_on_c, 1, 45, 0
4, 5878, Note_on_c, 1, 50, 0
4, 5879, Note_on_c, 1, 57, 0
4, 5880, Note_on_c, 1, 62, 0
4, 5880, Note_on_c, 1, 45, 83
4, 5881, Note_on_c, 1, 50, 81
4, 5882, Note_on_c, 1, 66, 0
4, 5882, Note_on_c, 1, 57, 79
4, 5883, Note_on_c, 1, 62, 77
4, 5885, Note_on_c, 1, 66, 75
4, 5997, Note_on_c, 1, 45, 0
4, 5998, Note_on_c, 1, 50, 0
4, 5999, Note_on_c, 1, 57, 0
4, 6000, Note_on_c, 1, 62, 0
4, 6000, Note_on_c, 1, 45, 83
4, 6001, Note_on_c, 1, 50, 81
4, 6002, Note_on_c, 1, 66, 0
4, 6002, Note_on_c, 1, 57, 79
4, 6003, Note_on_c, 1, 62, 77
4, 6005, Note_on_c, 1, 66, 75
4, 6077, Note_on_c, 1, 45, 0
4, 6078, Note_on_c, 1, 50, 0
4, 6079, Note_on_c, 1, 57, 0
4, 6080, Note_on_c, 1, 62, 0
4, 6080, Note_on_c, 1, 45, 83
4, 6081, Note_on_c, 1, 50, 81
4, 6082, Note_on_c, 1, 66, 0
4, 6082, Note_on_c, 1, 57, 79
4, 6083, Note_on_c, 1, 62, 77
4, 6085, Note_on_c, 1, 66, 75
4, 6117, Note_on_c, 1, 45, 0
4, 6118, Note_on_c, 1, 50, 0
4, 6119, Note_on_c, 1, 57, 0
4, 6120, Note_on_c, 1, 62, 0
4, 6120, Note_on_c, 1, 45, 83
4, 6121, Note_on_c, 1, 50, 81
4, 6122, Note_on_c, 1, 66, 0
4, 6122, Note_on_c, 1, 57, 79
4, 6123, Note_on_c, 1, 62, 77
4, 6125, Note_on_c, 1, 66, 75
4, 6237, Note_on_c, 1, 45, 0
4, 6238, Note_on_c, 1, 50, 0
4, 6239, Note_on_c, 1, 57, 0
4, 6240, Note_on_c, 1, 62, 0
4, 6240, Note_on_c, 1, 47, 81
4, 6241, Note_on_c, 1, 54, 80
4, 6242, Note_on_c, 1, 66, 0
4, 6242, Note_on_c, 1, 59, 79
4, 6243, Note_on_c, 1, 62, 78
4, 6245, Note_on_c, 1, 66, 77
4, 6357, Note_on_c, 1, 47, 0
4, 6358, Note_on_c, 1, 54, 0
4, 6359, Note_on_c, 1, 59, 0
4, 6360, Note_on_c, 1, 62, 0
4, 6360, Note_on_c, 1, 47, 81
4, 6361, Note_on_c, 1, 54, 80
4, 6362, Note_on_c, 1, 66, 0
4, 6362, Note_on_c, 1, 59, 79
4, 6363, Note_on_c, 1, 62, 78
4, 6365, Note_on_c, 1, 66, 77
4, 6437, Note_on_c, 1, 47, 0
4, 6438, Note_on_c, 1, 54, 0
4, 6439, Note_on_c, 1, 59, 0
4, 6440, Note_on_c, 1, 62, 0
4, 6440, Note_on_c, 1, 47, 81
4, 6441, Note_on_c, 1, 54, 80
4, 6442, Note_on_c, 1, 66, 0
4, 6442, Note_on_c, 1, 59, 79
4, 6443, Note_on_c, 1, 62, 78
4, 6445, Note_on_c, 1, 66, 77
4, 6557, Note_on_c, 1, 47, 0
4, 6558, Note_on_c, 1, 54, 0
4, 6559, Note_on_c, 1, 59, 0
4, 6560, Note_on_c, 1, 62, 0
4, 6560, Note_on_c, 1, 47, 81
4, 6561, Note_on_c, 1, 54, 80
4, 6562, Note_on_c, 1, 66, 0
4, 6562, Note_on_c, 1, 59, 79
4, 6563, Note_on_c, 1, 62, 78
4, 6565, Note_on_c, 1, 66, 77
4, 6597, Note_on_c, 1, 47, 0
4, 6598, Note_on_c, 1, 54, 0
4, 6599, Note_on_c, 1, 59, 0
4, 6600, Note_on_c, 1, 62, 0
4, 6600, Note_on_c, 1, 47, 81
4, 6601, Note_on_c, 1, 54, 80
4, 6602, Note_on_c, 1, 66, 0
4, 6602, Note_on_c, 1, 59, 79
4, 6603, Note_on_c, 1, 62, 78
4, 6605, Note_on_c, 1, 66, 77
4, 6717, Note_on_c, 1, 47, 0
4, 6718, Note_on_c, 1, 54, 0
4, 6719, Note_on_c, 1, 59, 0
4, 6720, Note_on_c, 1, 62, 0
4, 6720, Note_on_c, 1, 43, 81
4, 6721, Note_on_c, 1, 47, 80
4, 6722, Note_on_c, 1, 66, 0
4, 6722, Note_on_c, 1, 50, 79
4, 6723, Note_on_c, 1, 55, 78
4, 6725, Note_on_c, 1, 59, 77
4, 6726, Note_on_c, 1, 64, 76
4, 6837, Note_on_c, 1, 43, 0
4, 6838, Note_on_c, 1, 47, 0
4, 6839, Note_on_c, 1, 50, 0
4, 6840, Note_on_c, 1, 55, 0
4, 6840, Note_on_c, 1, 43, 81
4, 6841, Note_on_c, 1, 47, 80
4, 6842, Note_on_c, 1, 59, 0
4, 6842, Note_on_c, 1, 50, 79
4, 6843, Note_on_c, 1, 64, 0
4, 6843, Note_on_c, 1, 55, 78
4, 6845, Note_on_c, 1, 59, 77
4, 6846, Note_on_c, 1, 64, 76
4, 6917, Note_on_c, 1, 43, 0
4, 6918, Note_on_c, 1, 47, 0
4, 6919, Note_on_c, 1, 50, 0
4, 6920, Note_on_c, 1, 55, 0
4, 6920, Note_on_c, 1, 43, 81
4, 6921, Note_on_c, 1, 47, 80
4, 6922, Note_on_c, 1, 59, 0
4, 6922, Note_on_c, 1, 50, 79
4, 6923, Note_on_c, 1, 64, 0
4, 6923, Note_on_c, 1, 55, 78
4, 6925, Note_on_c, 1, 59, 77
4, 6926, Note_on_c, 1, 64, 76
4, 7037, Note_on_c, 1, 43, 0
4, 7038, Note_on_c, 1, 47, 0
4, 7039, Note_on_c, 1, 50, 0
4, 7040, Note_on_c, 1, 55, 0
4, 7040, Note_on_c, 1, 43, 81
4, 7041, Note_on_c, 1, 47, 80
4, 7042, Note_on_c, 1, 59, 0
4, 7042, Note_on_c, 1, 50, 79
4, 7043, Note_on_c, 1, 64, 0
4, 7043, Note_on_c, 1, 55, 78
4, 7045, Note_on_c, 1, 59, 77
4, 7046, Note_on_c, 1, 64, 76
4, 7077, Note_on_c, 1, 43, 0
4, 7078, Note_on_c, 1, 47, 0
4, 7079, Note_on_c, 1, 50, 0
4, 7080, Note_on_c, 1, 55, 0
4, 7080, Note_on_c, 1, 43, 81
4, 7081, Note_on_c, 1, 47, 80
4, 7082, Note_on_c, 1, 59, 0
4, 7082, Note_on_c, 1, 50, 79
4, 7083, Note_on_c, 1, 64, 0
4, 7083, Note_on_c, 1, 55, 78
4, 7085, Note_on_c, 1, 59, 77
4, 7086, Note_on_c, 1, 64, 76
4, 7197, Note_on_c, 1, 43, 0
4, 7198, Note_on_c, 1, 47, 0
4, 7199, Note_on_c, 1, 50, 0
4, 7200, Note_on_c, 1, 55, 0
4, 7200, Note_on_c, 1, 47, 81
4, 7201, Note_on_c, 1, 54, 80
4, 7202, Note_on_c, 1, 59, 0
4, 7202, Note_on_c, 1, 59, 79
4, 7203, Note_on_c, 1, 64, 0
4, 7203, Note_on_c, 1, 62, 78
4, 7205, Note_on_c, 1, 66, 77
4, 7317, Note_on_c, 1, 47, 0
4, 7318, Note_on_c, 1, 54, 0
4, 7319, Note_on_c, 1, 59, 0
4, 7320, Note_on_c, 1, 62, 0
4, 7320, Note_on_c, 1, 47, 81
4, 7321, Note_on_c, 1, 54, 80
4, 7322, Note_on_c, 1, 66, 0
4, 7322, Note_on_c, 1, 59, 79
4, 7323, Note_on_c, 1, 62, 78
4, 7325, Note_on_c, 1, 66, 77
4, 7397, Note_on_c, 1, 47, 0
4, 7398, Note_on_c, 1, 54, 0
4, 7399, Note_on_c, 1, 59, 0
4, 7400, Note_on_c, 1, 62, 0
4, 7400, Note_on_c, 1, 47, 81
4, 7401, Note_on_c, 1, 54, 80
4, 7402, Note_on_c, 1, 66, 0
4, 7402, Note_on_c, 1, 59, 79
4, 7403, Note_on_c, 1, 62, 78
4, 7405, Note_on_c, 1, 66, 77
4, 7517, Note_on_c, 1, 47, 0
4, 7518, Note_on_c, 1, 54, 0
4, 7519, Note_on_c, 1, 59, 0
4, 7520, Note_on_c, 1, 62, 0
4, 7520, Note_on_c, 1, 47, 81
4, 7521, Note_on_c, 1, 54, 80
4, 7522, Note_on_c, 1, 66, 0
4, 7522, Note_on_c, 1, 59, 79
4, 7523, Note_on_c, 1, 62, 78
4, 7525, Note_on_c, 1, 66, 77
4, 7557, Note_on_c, 1, 47, 0
4, 7558, Note_on_c, 1, 54, 0
4, 7559, Note_on_c, 1, 59, 0
4, 7560, Note_on_c, 1, 62, 0
4, 7560, Note_on_c, 1, 47, 81
4, 7561, Note_on_c, 1, 54, 80
4, 7562, Note_on_c, 1, 66, 0
4, 7562, Note_on_c, 1, 59, 79
4, 7563, Note_on_c, 1, 62, 78
4, 7565, Note_on_c, 1, 66, 77
4, 7677, Note_on_c, 1, 47, 0
4, 7678, Note_on_c, 1, 54, 0
4, 7679, Note_on_c, 1, 59, 0
4, 7680, Note_on_c, 1, 62, 0
4, 7680, Note_on_c, 1, 40, 81
4, 7681, Note_on_c, 1, 47, 80
4, 7682, Note_on_c, 1, 66, 0
4, 7682, Note_on_c, 1, 52, 79
4, 7683, Note_on_c, 1, 56, 78
4, 7685, Note_on_c, 1, 59, 77
4, 7686, Note_on_c, 1, 64, 76
4, 7797, Note_on_c, 1, 40, 0
4, 7798, Note_on_c, 1, 47, 0
4, 7799, Note_on_c, 1, 52, 0
4, 7800, Note_on_c, 1, 56, 0
4, 7800, Note_on_c, 1, 40, 81
4, 7801, Note_on_c, 1, 47, 80
4, 7802, Note_on_c, 1, 59, 0
4, 7802, Note_on_c, 1, 52, 79
4, 7803, Note_on_c, 1, 64, 0
4, 7803, Note_on_c, 1, 56, 78
4, 7805, Note_on_c, 1, 59, 77
4, 7806, Note_on_c, 1, 64, 76
4, 7877, Note_on_c, 1, 40, 0
4, 7878, Note_on_c, 1, 47, 0
4, 7879, Note_on_c, 1, 52, 0
4, 7880, Note_on_c, 1, 56, 0
4, 7880, Note_on_c, 1, 40, 81
4, 7881, Note_on_c, 1, 47, 80
4, 7882, Note_on_c, 1, 59, 0
4, 7882, Note_on_c, 1, 52, 79
4, 7883, Note_on_c, 1, 64, 0
4, 7883, Note_on_c, 1, 56, 78
4, 7885, Note_on_c, 1, 59, 77
4, 7886, Note_on_c, 1, 64, 76
4, 7997, Note_on_c, 1, 40, 0
4, 7998, Note_on_c, 1, 47, 0
4, 7999, Note_on_c, 1, 52, 0
4, 8000, Note_on_c, 1, 56, 0
4, 8000, Note_on_c, 1, 40, 81
4, 8001, Note_on_c, 1, 47, 80
4, 8002, Note_on_c, 1, 59, 0
4, 8002, Note_on_c, 1, 52, 79
4, 8003, Note_on_c, 1, 64, 0
4, 8003, Note_on_c, 1, 56, 78
4, 8005, Note_on_c, 1, 59, 77
4, 8006, Note_on_c, 1, 64, 76
4, 8037, Note_on_c, 1, 40, 0
4, 8038, Note_on_c, 1, 47, 0
4, 8039, Note_on_c, 1, 52, 0
4, 8040, Note_on_c, 1, 56, 0
4, 8040, Note_on_c, 1, 40, 81
4, 8041, Note_on_c, 1, 47, 80
4, 8042, Note_on_c, 1, 59, 0
4, 8042, Note_on_c, 1, 52, 79
4, 8043, Note_on_c, 1, 64, 0
4, 8043, Note_on_c, 1, 56, 78
4, 8045, Note_on_c, 1, 59, 77
4, 8046, Note_on_c, 1, 64, 76
4, 8157, Note_on_c, 1, 40, 0
4, 8158, Note_on_c, 1, 47, 0
4, 8159, Note_on_c, 1, 52, 0
4, 8160, Note_on_c, 1, 56, 0
4, 8160, Note_on_c, 1, 45, 83
4, 8161, Note_on_c, 1, 50, 81
4, 8162, Note_on_c, 1, 59, 0
4, 8162, Note_on_c, 1, 57, 79
4, 8163, Note_on_c, 1, 64, 0
4, 8163, Note_on_c, 1, 62, 77
4, 8165, Note_on_c, 1, 66, 75
4, 8277, Note_on_c, 1, 45, 0
4, 8278, Note_on_c, 1, 50, 0
4, 8279, Note_on_c, 1, 57, 0
4, 8280, Note_on_c, 1, 62, 0
4, 8280, Note_on_c, 1, 45, 83
4, 8281, Note_on_c, 1, 50, 81
4, 8282, Note_on_c, 1, 66, 0
4, 8282, Note_on_c, 1, 57, 79
4, 8283, Note_on_c, 1, 62, 77
4, 8285, Note_on_c, 1, 66, 75
4, 8397, Note_on_c, 1, 45, 0
4, 8398, Note_on_c, 1, 50, 0
4, 8399, Note_on_c, 1, 57, 0
4, 8400, Note_on_c, 1, 62, 0
4, 8400, Note_on_c, 1, 45, 83
4, 8401, Note_on_c, 1, 50, 81
4, 8402, Note_on_c, 1, 66, 0
4, 8402, Note_on_c, 1, 57, 79
4, 8403, Note_on_c, 1, 62, 77
4, 8405, Note_on_c, 1, 66, 75
4, 8477, Note_on_c, 1, 45, 0
4, 8478, Note_on_c, 1, 50, 0
4, 8479, Note_on_c, 1, 57, 0
4, 8480, Note_on_c, 1, 62, 0
4, 8480, Note_on_c, 1, 45, 83
4, 8481, Note_on_c, 1, 50, 81
4, 8482, Note_on_c, 1, 66, 0
4, 8482, Note_on_c, 1, 57, 79
4, 8483, Note_on_c, 1, 62, 77
4, 8485, Note_on_c, 1, 66, 75
4, 8517, Note_on_c, 1, 45, 0
4, 8518, Note_on_c, 1, 50, 0
4, 8519, Note_on_c, 1, 57, 0
4, 8520, Note_on_c, 1, 62, 0
4, 8520, Note_on_c, 1, 45, 83
4, 8521, Note_on_c, 1, 50, 81
4, 8522, Note_on_c, 1, 66, 0
4, 8522, Note_on_c, 1, 57, 79
4, 8523, Note_on_c, 1, 62, 77
4, 8525, Note_on_c, 1, 66, 75
4, 8637, Note_on_c, 1, 45, 0
4, 8638, Note_on_c, 1, 50, 0
4, 8639, Note_on_c, 1, 57, 0
4, 8640, Note_on_c, 1, 62, 0
4, 8640, Note_on_c, 1, 40, 83
4, 8641, Note_on_c, 1, 47, 81
4, 8642, Note_on_c, 1, 66, 0
4, 8642, Note_on_c, 1, 52, 79
4, 8643, Note_on_c, 1, 56, 77
4, 8645, Note_on_c, 1, 59, 75
4, 8646, Note_on_c, 1, 64, 73
4, 8757, Note_on_c, 1, 40, 0
4, 8758, Note_on_c, 1, 47, 0
4, 8759, Note_on_c, 1, 52, 0
4, 8760, Note_on_c, 1, 56, 0
4, 8760, Note_on_c, 1, 40, 83
4, 8761, Note_on_c, 1, 47, 81
4, 8762, Note_on_c, 1, 59, 0
4, 8762, Note_on_c, 1, 52, 79
4, 8763, Note_on_c, 1, 64, 0
4, 8763, Note_on_c, 1, 56, 77
4, 8765, Note_on_c, 1, 59, 75
4, 8766, Note_on_c, 1, 64, 73
4, 8877, Note_on_c, 1, 40, 0
4, 8878, Note_on_c, 1, 47, 0
4, 8879, Note_on_c, 1, 52, 0
4, 8880, Note_on_c, 1, 56, 0
4, 8880, Note_on_c, 1, 40, 83
4, 8881, Note_on_c, 1, 47, 81
4, 8882, Note_on_c, 1, 59, 0
4, 8882, Note_on_c, 1, 52, 79
4, 8883, Note_on_c, 1, 64, 0
4, 8883, Note_on_c, 1, 56, 77
4, 8885, Note_on_c, 1, 59, 75
4, 8886, Note_on_c, 1, 64, 73
4, 8957, Note_on_c, 1, 40, 0
4, 8958, Note_on_c, 1, 47, 0
4, 8959, Note_on_c, 1, 52, 0
4, 8960, Note_on_c, 1, 56, 0
4, 8960, Note_on_c, 1, 40, 83
4, 8961, Note_on_c, 1, 47, 81
4, 8962, Note_on_c, 1, 59, 0
4, 8962, Note_on_c, 1, 52, 79
4, 8963, Note_on_c, 1, 64, 0
4, 8963, Note_on_c, 1, 56, 77
4, 8965, Note_on_c, 1, 59, 75
4, 8966, Note_on_c, 1, 64, 73
4, 8997, Note_on_c, 1, 40, 0
4, 8998, Note_on_c, 1, 47, 0
4, 8999, Note_on_c, 1, 52, 0
4, 9000, Note_on_c, 1, 56, 0
4, 9000, Note_on_c, 1, 40, 83
4, 9001, Note_on_c, 1, 47, 81
4, 9002, Note_on_c, 1, 59, 0
4, 9002, Note_on_c, 1, 52, 79
4, 9003, Note_on_c, 1, 64, 0
4, 9003, Note_on_c, 1, 56, 77
4, 9005, Note_on_c, 1, 59, 75
4, 9006, Note_on_c, 1, 64, 73
4, 9117, Note_on_c, 1, 40, 0
4, 9118, Note_on_c, 1, 47, 0
4, 9119, Note_on_c, 1, 52, 0
4, 9120, Note_on_c, 1, 56, 0
4, 9120, Note_on_c, 1, 43, 83
4, 9121, Note_on_c, 1, 47, 81
4, 9122, Note_on_c, 1, 59, 0
4, 9122, Note_on_c, 1, 50, 79
4, 9123, Note_on_c, 1, 64, 0
4, 9123, Note_on_c, 1, 55, 77
4, 9125, Note_on_c, 1, 59, 75
4, 9126, Note_on_c, 1, 67, 73
4, 9237, Note_on_c, 1, 43, 0
4, 9238, Note_on_c, 1, 47, 0
4, 9239, Note_on_c, 1, 50, 0
4, 9240, Note_on_c, 1, 55, 0
4, 9240, Note_on_c, 1, 43, 83
4, 9241, Note_on_c, 1, 47, 81
4, 9242, Note_on_c, 1, 59, 0
4, 9242, Note_on_c, 1, 50, 79
4, 9243, Note_on_c, 1, 67, 0
4, 9243, Note_on_c, 1, 55, 77
4, 9245, Note_on_c, 1, 59, 75
4, 9246, Note_on_c, 1, 67, 73
4, 9357, Note_on_c, 1, 43, 0
4, 9358, Note_on_c, 1, 47, 0
4, 9359, Note_on_c, 1, 50, 0
4, 9360, Note_on_c, 1, 55, 0
4, 9360, Note_on_c, 1, 43, 83
4, 9361, Note_on_c, 1, 47, 81
4, 9362, Note_on_c, 1, 59, 0
4, 9362, Note_on_c, 1, 50, 79
4, 9363, Note_on_c, 1, 67, 0
4, 9363, Note_on_c, 1, 55, 77
4, 9365, Note_on_c, 1, 59, 75
4, 9366, Note_on_c, 1, 67, 73
4, 9437, Note_on_c, 1, 43, 0
4, 9438, Note_on_c, 1, 47, 0
4, 9439, Note_on_c, 1, 50, 0
4, 9440, Note_on_c, 1, 55, 0
4, 9440, Note_on_c, 1, 43, 83
4, 9441, Note_on_c, 1, 47, 81
4, 9442, Note_on_c, 1, 59, 0
4, 9442, Note_on_c, 1, 50, 79
4, 9443, Note_on_c, 1, 67, 0
4, 9443, Note_on_c, 1, 55, 77
4, 9445, Note_on_c, 1, 59, 75
4, 9446, Note_on_c, 1, 67, 73
4, 9477, Note_on_c, 1, 43, 0
4, 9478, Note_on_c, 1, 47, 0
4, 9479, Note_on_c, 1, 50, 0
4, 9480, Note_on_c, 1, 55, 0
4, 9480, Note_on_c, 1, 43, 83
4, 9481, Note_on_c, 1, 47, 81
4, 9482, Note_on_c, 1, 59, 0
4, 9482, Note_on_c, 1, 50, 79
4, 9483, Note_on_c, 1, 67, 0
4, 9483, Note_on_c, 1, 55, 77
4, 9485, Note_on_c, 1, 59, 75
4, 9486, Note_on_c, 1, 67, 73
4, 9597, Note_on_c, 1, 43, 0
4, 9598, Note_on_c, 1, 47, 0
4, 9599, Note_on_c, 1, 50, 0
4, 9600, Note_on_c, 1, 55, 0
4, 9600, Note_on_c, 1, 45, 83
4, 9601, Note_on_c, 1, 50, 81
4, 9602, Note_on_c, 1, 59, 0
4, 9602, Note_on_c, 1, 57, 79
4, 9603, Note_on_c, 1, 67, 0
4, 9603, Note_on_c, 1, 62, 77
4, 9605, Note_on_c, 1, 66, 75
4, 9717, Note_on_c, 1, 45, 0
4, 9718, Note_on_c, 1, 50, 0
4, 9719, Note_on_c, 1, 57, 0
4, 9720, Note_on_c, 1, 62, 0
4, 9720, Note_on_c, 1, 45, 83
4, 9721, Note_on_c, 1, 50, 81
4, 9722, Note_on_c, 1, 66, 0
4, 9722, Note_on_c, 1, 57, 79
4, 9723, Note_on_c, 1, 62, 77
4, 9725, Note_on_c, 1, 66, 75
4, 9837, Note_on_c, 1, 45, 0
4, 9838, Note_on_c, 1, 50, 0
4, 9839, Note_on_c, 1, 57, 0
4, 9840, Note_on_c, 1, 62, 0
4, 9840, Note_on_c, 1, 45, 83
4, 9841, Note_on_c, 1, 50, 81
4, 9842, Note_on_c, 1, 66, 0
4, 9842, Note_on_c, 1, 57, 79
4, 9843, Note_on_c, 1, 62, 77
4, 9845, Note_on_c, 1, 66, 75
4, 9917, Note_on_c, 1, 45, 0
4, 9918, Note_on_c, 1, 50, 0
4, 9919, Note_on_c, 1, 57, 0
4, 9920, Note_on_c, 1, 62, 0
4, 9920, Note_on_c, 1, 45, 83
4, 9921, Note_on_c, 1, 50, 81
4, 9922, Note_on_c, 1, 66, 0
4, 9922, Note_on_c, 1, 57, 79
4, 9923, Note_on_c, 1, 62, 77
4, 9925, Note_on_c, 1, 66, 75
4, 9957, Note_on_c, 1, 45, 0
4, 9958, Note_on_c, 1, 50, 0
4, 9959, Note_on_c, 1, 57, 0
4, 9960, Note_on_c, 1, 62, 0
4, 9960, Note_on_c, 1, 45, 83
4, 9961, Note_on_c, 1, 50, 81
4, 9962, Note_on_c, 1, 66, 0
4, 9962, Note_on_c, 1, 57, 79
4, 9963, Note_on_c, 1, 62, 77
4, 9965, Note_on_c, 1, 66, 75
4, 10077, Note_on_c, 1, 45, 0
4, 10078, Note_on_c, 1, 50, 0
4, 10079, Note_on_c, 1, 57, 0
4, 10080, Note_on_c, 1, 62, 0
4, 10080, Note_on_c, 1, 45, 83
4, 10081, Note_on_c, 1, 50, 81
4, 10082, Note_on_c, 1, 66, 0
4, 10082, Note_on_c, 1, 57, 79
4, 10083, Note_on_c, 1, 62, 77
4, 10085, Note_on_c, 1, 66, 75
4, 10197, Note_on_c, 1, 45, 0
4, 10198, Note_on_c, 1, 50, 0
4, 10199, Note_on_c, 1, 57, 0
4, 10200, Note_on_c, 1, 62, 0
4, 10200, Note_on_c, 1, 45, 83
4, 10201, Note_on_c, 1, 50, 81
4, 10202, Note_on_c, 1, 66, 0
4, 10202, Note_on_c, 1, 57, 79
4, 10203, Note_on_c, 1, 62, 77
4, 10205, Note_on_c, 1, 66, 75
4, 10317, Note_on_c, 1, 45, 0
4, 10318, Note_on_c, 1, 50, 0
4, 10319, Note_on_c, 1, 57, 0
4, 10320, Note_on_c, 1, 62, 0
4, 10320, Note_on_c, 1, 45, 83
4, 10321, Note_on_c, 1, 50, 81
4, 10322, Note_on_c, 1, 66, 0
4, 10322, Note_on_c, 1, 57, 79
4, 10323, Note_on_c, 1, 62, 77
4, 10325, Note_on_c, 1, 66, 75
4, 10397, Note_on_c, 1, 45, 0
4, 10398, Note_on_c, 1, 50, 0
4, 10399, Note_on_c, 1, 57, 0
4, 10400, Note_on_c, 1, 62, 0
4, 10400, Note_on_c, 1, 45, 83
4, 10401, Note_on_c, 1, 50, 81
4, 10402, Note_on_c, 1, 66, 0
4, 10402, Note_on_c, 1, 57, 79
4, 10403, Note_on_c, 1, 62, 77
4, 10405, Note_on_c, 1, 66, 75
4, 10437, Note_on_c, 1, 45, 0
4, 10438, Note_on_c, 1, 50, 0
4, 10439, Note_on_c, 1, 57, 0
4, 10440, Note_on_c, 1, 62, 0
4, 10440, Note_on_c, 1, 45, 83
4, 10441, Note_on_c, 1, 50, 81
4, 10442, Note_on_c, 1, 66, 0
4, 10442, Note_on_c, 1, 57, 79
4, 10443, Note_on_c, 1, 62, 77
4, 10445, Note_on_c, 1, 66, 75
4, 10557, Note_on_c, 1, 45, 0
4, 10558, Note_on_c, 1, 50, 0
4, 10559, Note_on_c, 1, 57, 0
4, 10560, Note_on_c, 1, 62, 0
4, 10560, Note_on_c, 1, 40, 83
4, 10561, Note_on_c, 1, 47, 81
4, 10562, Note_on_c, 1, 66, 0
4, 10562, Note_on_c, 1, 52, 79
4, 10563, Note_on_c, 1, 56, 77
4, 10565, Note_on_c, 1, 59, 75
4, 10566, Note_on_c, 1, 64, 73
4, 10677, Note_on_c, 1, 40, 0
4, 10678, Note_on_c, 1, 47, 0
4, 10679, Note_on_c, 1, 52, 0
4, 10680, Note_on_c, 1, 56, 0
4, 10680, Note_on_c, 1, 40, 83
4, 10681, Note_on_c, 1, 47, 81
4, 10682, Note_on_c, 1, 59, 0
4, 10682, Note_on_c, 1, 52, 79
4, 10683, Note_on_c, 1, 64, 0
4, 10683, Note_on_c, 1, 56, 77
4, 10685, Note_on_c, 1, 59, 75
4, 10686, Note_on_c, 1, 64, 73
4, 10797, Note_on_c, 1, 40, 0
4, 10798, Note_on_c, 1, 47, 0
4, 10799, Note_on_c, 1, 52, 0
4, 10800, Note_on_c, 1, 56, 0
4, 10800, Note_on_c, 1, 40, 83
4, 10801, Note_on_c, 1, 47, 81
4, 10802, Note_on_c, 1, 59, 0
4, 10802, Note_on_c, 1, 52, 79
4, 10803, Note_on_c, 1, 64, 0
4, 10803, Note_on_c, 1, 56, 77
4, 10805, Note_on_c, 1, 59, 75
4, 10806, Note_on_c, 1, 64, 73
4, 10877, Note_on_c, 1, 40, 0
4, 10878, Note_on_c, 1, 47, 0
4, 10879, Note_on_c, 1, 52, 0
4, 10880, Note_on_c, 1, 56, 0
4, 10880, Note_on_c, 1, 40, 83
4, 10881, Note_on_c, 1, 47, 81
4, 10882, Note_on_c, 1, 59, 0
4, 10882, Note_on_c, 1, 52, 79
4, 10883, Note_on_c, 1, 64, 0
4, 10883, Note_on_c, 1, 56, 77
4, 10885, Note_on_c, 1, 59, 75
4, 10886, Note_on_c, 1, 64, 73
4, 10917, Note_on_c, 1, 40, 0
4, 10918, Note_on_c, 1, 47, 0
4, 10919, Note_on_c, 1, 52, 0
4, 10920, Note_on_c, 1, 56, 0
4, 10920, Note_on_c, 1, 40, 83
4, 10921, Note_on_c, 1, 47, 81
4, 10922, Note_on_c, 1, 59, 0
4, 10922, Note_on_c, 1, 52, 79
4, 10923, Note_on_c, 1, 64, 0
4, 10923, Note_on_c, 1, 56, 77
4, 10925, Note_on_c, 1, 59, 75
4, 10926, Note_on_c, 1, 64, 73
4, 11037, Note_on_c, 1, 40, 0
4, 11038, Note_on_c, 1, 47, 0
4, 11039, Note_on_c, 1, 52, 0
4, 11040, Note_on_c, 1, 56, 0
4, 11040, Note_on_c, 1, 43, 83
4, 11041, Note_on_c, 1, 47, 81
4, 11042, Note_on_c, 1, 59, 0
4, 11042, Note_on_c, 1, 50, 79
4, 11043, Note_on_c, 1, 64, 0
4, 11043, Note_on_c, 1, 55, 77
4, 11045, Note_on_c, 1, 59, 75
4, 11046, Note_on_c, 1, 67, 73
4, 11157, Note_on_c, 1, 43, 0
4, 11158, Note_on_c, 1, 47, 0
4, 11159, Note_on_c, 1, 50, 0
4, 11160, Note_on_c, 1, 55, 0
4, 11160, Note_on_c, 1, 43, 83
4, 11161, Note_on_c, 1, 47, 81
4, 11162, Note_on_c, 1, 59, 0
4, 11162, Note_on_c, 1, 50, 79
4, 11163, Note_on_c, 1, 67, 0
4, 11163, Note_on_c, 1, 55, 77
4, 11165, Note_on_c, 1, 59, 75
4, 11166, Note_on_c, 1, 67, 73
4, 11277, Note_on_c, 1, 43, 0
4, 11278, Note_on_c, 1, 47, 0
4, 11279, Note_on_c, 1, 50, 0
4, 11280, Note_on_c, 1, 55, 0
4, 11280, Note_on_c, 1, 43, 83
4, 11281, Note_on_c, 1, 47, 81
4, 11282, Note_on_c, 1, 59, 0
4, 11282, Note_on_c, 1, 50, 79
4, 11283, Note_on_c, 1, 67, 0
4, 11283, Note_on_c, 1, 55, 77
4, 11285, Note_on_c, 1, 59, 75
4, 11286, Note_on_c, 1, 67, 73
4, 11357, Note_on_c, 1, 43, 0
4, 11358, Note_on_c, 1, 47, 0
4, 11359, Note_on_c, 1, 50, 0
4, 11360, Note_on_c, 1, 55, 0
4, 11360, Note_on_c, 1, 43, 83
4, 11361, Note_on_c, 1, 47, 81
4, 11362, Note_on_c, 1, 59, 0
4, 11362, Note_on_c, 1, 50, 79
4, 11363, Note_on_c, 1, 67, 0
4, 11363, Note_on_c, 1, 55, 77
4, 11365, Note_on_c, 1, 59, 75
4, 11366, Note_on_c, 1, 67, 73
4, 11397, Note_on_c, 1, 43, 0
4, 11398, Note_on_c, 1, 47, 0
4, 11399, Note_on_c, 1, 50, 0
4, 11400, Note_on_c, 1, 55, 0
4, 11400, Note_on_c, 1, 43, 83
4, 11401, Note_on_c, 1, 47, 81
4, 11402, Note_on_c, 1, 59, 0
4, 11402, Note_on_c, 1, 50, 79
4, 11403, Note_on_c, 1, 67, 0
4, 11403, Note_on_c, 1, 55, 77
4, 11405, Note_on_c, 1, 59, 75
4, 11406, Note_on_c, 1, 67, 73
4, 11517, Note_on_c, 1, 43, 0
4, 11518, Note_on_c, 1, 47, 0
4, 11519, Note_on_c, 1, 50, 0
4, 11520, Note_on_c, 1, 55, 0
4, 11520, Note_on_c, 1, 45, 83
4, 11521, Note_on_c, 1, 50, 81
4, 11522, Note_on_c, 1, 59, 0
4, 11522, Note_on_c, 1, 57, 79
4, 11523, Note_on_c, 1, 67, 0
4, 11523, Note_on_c, 1, 62, 77
4, 11525, Note_on_c, 1, 66, 75
4, 11637, Note_on_c, 1, 45, 0
4, 11638, Note_on_c, 1, 50, 0
4, 11639, Note_on_c, 1, 57, 0
4, 11640, Note_on_c, 1, 62, 0
4, 11640, Note_on_c, 1, 45, 83
4, 11641, Note_on_c, 1, 50, 81
4, 11642, Note_on_c, 1, 66, 0
4, 11642, Note_on_c, 1, 57, 79
4, 11643, Note_on_c, 1, 62, 77
4, 11645, Note_on_c, 1, 66, 75
4, 11757, Note_on_c, 1, 45, 0
4, 11758, Note_on_c, 1, 50, 0
4, 11759, Note_on_c, 1, 57, 0
4, 11760, Note_on_c, 1, 62, 0
4, 11760, Note_on_c, 1, 45, 83
4, 11761, Note_on_c, 1, 50, 81
4, 11762, Note_on_c, 1, 66, 0
4, 11762, Note_on_c, 1, 57, 79
4, 11763, Note_on_c, 1, 62, 77
4, 11765, Note_on_c, 1, 66, 75
4, 11837, Note_on_c, 1, 45, 0
4, 11838, Note_on_c, 1, 50, 0
4, 11839, Note_on_c, 1, 57, 0
4, 11840, Note_on_c, 1, 62, 0
4, 11840, Note_on_c, 1, 45, 83
4, 11841, Note_on_c, 1, 50, 81
4, 11842, Note_on_c, 1, 66, 0
4, 11842, Note_on_c, 1, 57, 79
4, 11843, Note_on_c, 1, 62, 77
4, 11845, Note_on_c, 1, 66, 75
4, 11877, Note_on_c, 1, 45, 0
4, 11878, Note_on_c, 1, 50, 0
4, 11879, Note_on_c, 1, 57, 0
4, 11880, Note_on_c, 1, 62, 0
4, 11880, Note_on_c, 1, 45, 83
4, 11881, Note_on_c, 1, 50, 81
4, 11882, Note_on_c, 1, 66, 0
4, 11882, Note_on_c, 1, 57, 79
4, 11883, Note_on_c, 1, 62, 77
4, 11885, Note_on_c, 1, 66, 75
4, 11997, Note_on_c, 1, 45, 0
4, 11998, Note_on_c, 1, 50, 0
4, 11999, Note_on_c, 1, 57, 0
4, 12000, Note_on_c, 1, 62, 0
4, 12000, Note_on_c, 1, 45, 83
4, 12001, Note_on_c, 1, 50, 81
4, 12002, Note_on_c, 1, 66, 0
4, 12002, Note_on_c, 1, 57, 79
4, 12003, Note_on_c, 1, 62, 77
4, 12005, Note_on_c, 1, 66, 75
4, 12117, Note_on_c, 1, 45, 0
4, 12118, Note_on_c, 1, 50, 0
4, 12119, Note_on_c, 1, 57, 0
4, 12120, Note_on_c, 1, 62, 0
4, 12120, Note_on_c, 1, 45, 83
4, 12121, Note_on_c, 1, 50, 81
4, 12122, Note_on_c, 1, 66, 0
4, 12122, Note_on_c, 1, 57, 79
4, 12123, Note_on_c, 1, 62, 77
4, 12125, Note_on_c, 1, 66, 75
4, 12237, Note_on_c, 1, 45, 0
4, 12238, Note_on_c, 1, 50, 0
4, 12239, Note_on_c, 1, 57, 0
4, 12240, Note_on_c, 1, 62, 0
4, 12240, Note_on_c, 1, 45, 83
4, 12241, Note_on_c, 1, 50, 81
4, 12242, Note_on_c, 1, 66, 0
4, 12242, Note_on_c, 1, 57, 79
4, 12243, Note_on_c, 1, 62, 77
4, 12245, Note_on_c, 1, 66, 75
4, 12317, Note_on_c, 1, 45, 0
4, 12318, Note_on_c, 1, 50, 0
4, 12319, Note_on_c, 1, 57, 0
4, 12320, Note_on_c, 1, 62, 0
4, 12320, Note_on_c, 1, 45, 83
4, 12321, Note_on_c, 1, 50, 81
4, 12322, Note_on_c, 1, 66, 0
4, 12322, Note_on_c, 1, 57, 79
4, 12323, Note_on_c, 1, 62, 77
4, 12325, Note_on_c, 1, 66, 75
4, 12357, Note_on_c, 1, 45, 0
4, 12358, Note_on_c, 1, 50, 0
4, 12359, Note_on_c, 1, 57, 0
4, 12360, Note_on_c, 1, 62, 0
4, 12360, Note_on_c, 1, 45, 83
4, 12361, Note_on_c, 1, 50, 81
4, 12362, Note_on_c, 1, 66, 0
4, 12362, Note_on_c, 1, 57, 79
4, 12363, Note_on_c, 1, 62, 77
4, 12365, Note_on_c, 1, 66, 75
4, 12477, Note_on_c, 1, 45, 0
4, 12478, Note_on_c, 1, 50, 0
4, 12479, Note_on_c, 1, 57, 0
4, 12480, Note_on_c, 1, 62, 0
4, 12480, Note_on_c, 1, 40, 83
4, 12481, Note_on_c, 1, 47, 81
4, 12482, Note_on_c, 1, 66, 0
4, 12482, Note_on_c, 1, 52, 79
4, 12483, Note_on_c, 1, 56, 77
4, 12485, Note_on_c, 1, 59, 75
4, 12486, Note_on_c, 1, 64, 73
4, 12597, Note_on_c, 1, 40, 0
4, 12598, Note_on_c, 1, 47, 0
4, 12599, Note_on_c, 1, 52, 0
4, 12600, Note_on_c, 1, 56, 0
4, 12600, Note_on_c, 1, 40, 83
4, 12601, Note_on_c, 1, 47, 81
4, 12602, Note_on_c, 1, 59, 0
4, 12602, Note_on_c, 1, 52, 79
4, 12603, Note_on_c, 1, 64, 0
4, 12603, Note_on_c, 1, 56, 77
4, 12605, Note_on_c, 1, 59, 75
4, 12606, Note_on_c, 1, 64, 73
4, 12717, Note_on_c, 1, 40, 0
4, 12718, Note_on_c, 1, 47, 0
4, 12719, Note_on_c, 1, 52, 0
4, 12720, Note_on_c, 1, 56, 0
4, 12720, Note_on_c, 1, 40, 83
4, 12721, Note_on_c, 1, 47, 81
4, 12722, Note_on_c, 1, 59, 0
4, 12722, Note_on_c, 1, 52, 79
4, 12723, Note_on_c, 1, 64, 0
4, 12723, Note_on_c, 1, 56, 77
4, 12725, Note_on_c, 1, 59, 75
4, 12726, Note_on_c, 1, 64, 73
4, 12797, Note_on_c, 1, 40, 0
4, 12798, Note_on_c, 1, 47, 0
4, 12799, Note_on_c, 1, 52, 0
4, 12800, Note_on_c, 1, 56, 0
4, 12800, Note_on_c, 1, 40, 83
4, 12801, Note_on_c, 1, 47, 81
4, 12802, Note_on_c, 1, 59, 0
4, 12802, Note_on_c, 1, 52, 79
4, 12803, Note_on_c, 1, 64, 0
4, 12803, Note_on_c, 1, 56, 77
4, 12805, Note_on_c, 1, 59, 75
4, 12806, Note_on_c, 1, 64, 73
4, 12837, Note_on_c, 1, 40, 0
4, 12838, Note_on_c, 1, 47, 0
4, 12839, Note_on_c, 1, 52, 0
4, 12840, Note_on_c, 1, 56, 0
4, 12840, Note_on_c, 1, 40, 83
4, 12841, Note_on_c, 1, 47, 81
4, 12842, Note_on_c, 1, 59, 0
4, 12842, Note_on_c, 1, 52, 79
4, 12843, Note_on_c, 1, 64, 0
4, 12843, Note_on_c, 1, 56, 77
4, 12845, Note_on_c, 1, 59, 75
4, 12846, Note_on_c, 1, 64, 73
4, 12957, Note_on_c, 1, 40, 0
4, 12958, Note_on_c, 1, 47, 0
4, 12959, Note_on_c, 1, 52, 0
4, 12960, Note_on_c, 1, 56, 0
4, 12960, Note_on_c, 1, 43, 83
4, 12961, Note_on_c, 1, 47, 81
4, 12962, Note_on_c, 1, 59, 0
4, 12962, Note_on_c, 1, 50, 79
4, 12963, Note_on_c, 1, 64, 0
4, 12963, Note_on_c, 1, 55, 77
4, 12965, Note_on_c, 1, 59, 75
4, 12966, Note_on_c, 1, 67, 73
4, 13077, Note_on_c, 1, 43, 0
4, 13078, Note_on_c, 1, 47, 0
4, 13079, Note_on_c, 1, 50, 0
4, 13080, Note_on_c, 1, 55, 0
4, 13080, Note_on_c, 1, 43, 83
4, 13081, Note_on_c, 1, 47, 81
4, 13082, Note_on_c, 1, 59, 0
4, 13082, Note_on_c, 1, 50, 79
4, 13083, Note_on_c, 1, 67, 0
4, 13083, Note_on_c, 1, 55, 77
4, 13085, Note_on_c, 1, 59, 75
4, 13086, Note_on_c, 1, 67, 73
4, 13197, Note_on_c, 1, 43, 0
4, 13198, Note_on_c, 1, 47, 0
4, 13199, Note_on_c, 1, 50, 0
4, 13200, Note_on_c, 1, 55, 0
4, 13200, Note_on_c, 1, 43, 83
4, 13201, Note_on_c, 1, 47, 81
4, 13202, Note_on_c, 1, 59, 0
4, 13202, Note_on_c, 1, 50, 79
4, 13203, Note_on_c, 1, 67, 0
4, 13203, Note_on_c, 1, 55, 77
4, 13205, Note_on_c, 1, 59, 75
4, 13206, Note_on_c, 1, 67, 73
4, 13277, Note_on_c, 1, 43, 0
4, 13278, Note_on_c, 1, 47, 0
4, 13279, Note_on_c, 1, 50, 0
4, 13280, Note_on_c, 1, 55, 0
4, 13280, Note_on_c, 1, 43, 83
4, 13281, Note_on_c, 1, 47, 81
4, 13282, Note_on_c, 1, 59, 0
4, 13282, Note_on_c, 1, 50, 79
4, 13283, Note_on_c, 1, 67, 0
4, 13283, Note_on_c, 1, 55, 77
4, 13285, Note_on_c, 1, 59, 75
4, 13286, Note_on_c, 1, 67, 73
4, 13317, Note_on_c, 1, 43, 0
4, 13318, Note_on_c, 1, 47, 0
4, 13319, Note_on_c, 1, 50, 0
4, 13320, Note_on_c, 1, 55, 0
4, 13320, Note_on_c, 1, 43, 83
4, 13321, Note_on_c, 1, 47, 81
4, 13322, Note_on_c, 1, 59, 0
4, 13322, Note_on_c, 1, 50, 79
4, 13323, Note_on_c, 1, 67, 0
4, 13323, Note_on_c, 1, 55, 77
4, 13325, Note_on_c, 1, 59, 75
4, 13326, Note_on_c, 1, 67, 73
4, 13437, Note_on_c, 1, 43, 0
4, 13438, Note_on_c, 1, 47, 0
4, 13439, Note_on_c, 1, 50, 0
4, 13440, Note_on_c, 1, 55, 0
4, 13440, Note_on_c, 1, 45, 83
4, 13441, Note_on_c, 1, 50, 81
4, 13442, Note_on_c, 1, 59, 0
4, 13442, Note_on_c, 1, 57, 79
4, 13443, Note_on_c, 1, 67, 0
4, 13443, Note_on_c, 1, 62, 77
4, 13445, Note_on_c, 1, 66, 75
4, 13557, Note_on_c, 1, 45, 0
4, 13558, Note_on_c, 1, 50, 0
4, 13559, Note_on_c, 1, 57, 0
4, 13560, Note_on_c, 1, 62, 0
4, 13560, Note_on_c, 1, 45, 83
4, 13561, Note_on_c, 1, 50, 81
4, 13562, Note_on_c, 1, 66, 0
4, 13562, Note_on_c, 1, 57, 79
4, 13563, Note_on_c, 1, 62, 77
4, 13565, Note_on_c, 1, 66, 75
4, 13677, Note_on_c, 1, 45, 0
4, 13678, Note_on_c, 1, 50, 0
4, 13679, Note_on_c, 1, 57, 0
4, 13680, Note_on_c, 1, 62, 0
4, 13680, Note_on_c, 1, 45, 83
4, 13681, Note_on_c, 1, 50, 81
4, 13682, Note_on_c, 1, 66, 0
4, 13682, Note_on_c, 1, 57, 79
4, 13683, Note_on_c, 1, 62, 77
4, 13685, Note_on_c, 1, 66, 75
4, 13757, Note_on_c, 1, 45, 0
4, 13758, Note_on_c, 1, 50, 0
4, 13759, Note_on_c, 1, 57, 0
4, 13760, Note_on_c, 1, 62, 0
4, 13760, Note_on_c, 1, 45, 83
4, 13761, Note_on_c, 1, 50, 81
4, 13762, Note_on_c, 1, 66, 0
4, 13762, Note_on_c, 1, 57, 79
4, 13763, Note_on_c, 1, 62, 77
4, 13765, Note_on_c, 1, 66, 75
4, 13797, Note_on_c, 1, 45, 0
4, 13798, Note_on_c, 1, 50, 0
4, 13799, Note_on_c, 1, 57, 0
4, 13800, Note_on_c, 1, 62, 0
4, 13800, Note_on_c, 1, 45, 83
4, 13801, Note_on_c, 1, 50, 81
4, 13802, Note_on_c, 1, 66, 0
4, 13802, Note_on_c, 1, 57, 79
4, 13803, Note_on_c, 1, 62, 77
4, 13805, Note_on_c, 1, 66, 75
4, 13917, Note_on_c, 1, 45, 0
4, 13918, Note_on_c, 1, 50, 0
4, 13919, Note_on_c, 1, 57, 0
4, 13920, Note_on_c, 1, 62, 0
4, 13920, Note_on_c, 1, 47, 81
4, 13921, Note_on_c, 1, 54, 80
4, 13922, Note_on_c, 1, 66, 0
4, 13922, Note_on_c, 1, 59, 79
4, 13923, Note_on_c, 1, 62, 78
4, 13925, Note_on_c, 1, 66, 77
4, 14037, Note_on_c, 1, 47, 0
4, 14038, Note_on_c, 1, 54, 0
4, 14039, Note_on_c, 1, 59, 0
4, 14040, Note_on_c, 1, 62, 0
4, 14040, Note_on_c, 1, 47, 81
4, 14041, Note_on_c, 1, 54, 80
4, 14042, Note_on_c, 1, 66, 0
4, 14042, Note_on_c, 1, 59, 79
4, 14043, Note_on_c, 1, 62, 78
4, 14045, Note_on_c, 1, 66, 77
4, 14117, Note_on_c, 1, 47, 0
4, 14118, Note_on_c, 1, 54, 0
4, 14119, Note_on_c, 1, 59, 0
4, 14120, Note_on_c, 1, 62, 0
4, 14120, Note_on_c, 1, 47, 81
4, 14121, Note_on_c, 1, 54, 80
4, 14122, Note_on_c, 1, 66, 0
4, 14122, Note_on_c, 1, 59, 79
4, 14123, Note_on_c, 1, 62, 78
4, 14125, Note_on_c, 1, 66, 77
4, 14237, Note_on_c, 1, 47, 0
4, 14238, Note_on_c, 1, 54, 0
4, 14239, Note_on_c, 1, 59, 0
4, 14240, Note_on_c, 1, 62, 0
4, 14240, Note_on_c, 1, 47, 81
4, 14241, Note_on_c, 1, 54, 80
4, 14242, Note_on_c, 1, 66, 0
4, 14242, Note_on_c, 1, 59, 79
4, 14243, Note_on_c, 1, 62, 78
4, 14245, Note_on_c, 1, 66, 77
4, 14277, Note_on_c, 1, 47, 0
4, 14278, Note_on_c, 1, 54, 0
4, 14279, Note_on_c, 1, 59, 0
4, 14280, Note_on_c, 1, 62, 0
4, 14280, Note_on_c, 1, 47, 81
4, 14281, Note_on_c, 1, 54, 80
4, 14282, Note_on_c, 1, 66, 0
4, 14282, Note_on_c, 1, 59, 79
4, 14283, Note_on_c, 1, 62, 78
4, 14285, Note_on_c, 1, 66, 77
4, 14397, Note_on_c, 1, 47, 0
4, 14398, Note_on_c, 1, 54, 0
4, 14399, Note_on_c, 1, 59, 0
4, 14400, Note_on_c, 1, 62, 0
4, 14400, Note_on_c, 1, 43, 81
4, 14401, Note_on_c, 1, 47, 80
4, 14402, Note_on_c, 1, 66, 0
4, 14402, Note_on_c, 1, 50, 79
4, 14403, Note_on_c, 1, 55, 78
4, 14405, Note_on_c, 1, 59, 77
4, 14406, Note_on_c, 1, 64, 76
4, 14517, Note_on_c, 1, 43, 0
4, 14518, Note_on_c, 1, 47, 0
4, 14519, Note_on_c, 1, 50, 0
4, 14520, Note_on_c, 1, 55, 0
4, 14520, Note_on_c, 1, 43, 81
4, 14521, Note_on_c, 1, 47, 80
4, 14522, Note_on_c, 1, 59, 0
4, 14522, Note_on_c, 1, 50, 79
4, 14523, Note_on_c, 1, 64, 0
4, 14523, Note_on_c, 1, 55, 78
4, 14525, Note_on_c, 1, 59, 77
4, 14526, Note_on_c, 1, 64, 76
4, 14597, Note_on_c, 1, 43, 0
4, 14598, Note_on_c, 1, 47, 0
4, 14599, Note_on_c, 1, 50, 0
4, 14600, Note_on_c, 1, 55, 0
4, 14600, Note_on_c, 1, 43, 81
4, 14601, Note_on_c, 1, 47, 80
4, 14602, Note_on_c, 1, 59, 0
4, 14602, Note_on_c, 1, 50, 79
4, 14603, Note_on_c, 1, 64, 0
4, 14603, Note_on_c, 1, 55, 78
4, 14605, Note_on_c, 1, 59, 77
4, 14606, Note_on_c, 1, 64, 76
4, 14717, Note_on_c, 1, 43, 0
4, 14718, Note_on_c, 1, 47, 0
4, 14719, Note_on_c, 1, 50, 0
4, 14720, Note_on_c, 1, 55, 0
4, 14720, Note_on_c, 1, 43, 81
4, 14721, Note_on_c, 1, 47, 80
4, 14722, Note_on_c, 1, 59, 0
4, 14722, Note_on_c, 1, 50, 79
4, 14723, Note_on_c, 1, 64, 0
4, 14723, Note_on_c, 1, 55, 78
4, 14725, Note_on_c, 1, 59, 77
4, 14726, Note_on_c, 1, 64, 76
4, 14757, Note_on_c, 1, 43, 0
4, 14758, Note_on_c, 1, 47, 0
4, 14759, Note_on_c, 1, 50, 0
4, 14760, Note_on_c, 1, 55, 0
4, 14760, Note_on_c, 1, 43, 81
4, 14761, Note_on_c, 1, 47, 80
4, 14762, Note_on_c, 1, 59, 0
4, 14762, Note_on_c, 1, 50, 79
4, 14763, Note_on_c, 1, 64, 0
4, 14763, Note_on_c, 1, 55, 78
4, 14765, Note_on_c, 1, 59, 77
4, 14766, Note_on_c, 1, 64, 76
4, 14877, Note_on_c, 1, 43, 0
4, 14878, Note_on_c, 1, 47, 0
4, 14879, Note_on_c, 1, 50, 0
4, 14880, Note_on_c, 1, 55, 0
4, 14880, Note_on_c, 1, 47, 81
4, 14881, Note_on_c, 1, 54, 80
4, 14882, Note_on_c, 1, 59, 0
4, 14882, Note_on_c, 1, 59, 79
4, 14883, Note_on_c, 1, 64, 0
4, 14883, Note_on_c, 1, 62, 78
4, 14885, Note_on_c, 1, 66, 77
4, 14997, Note_on_c, 1, 47, 0
4, 14998, Note_on_c, 1, 54, 0
4, 14999, Note_on_c, 1, 59, 0
4, 15000, Note_on_c, 1, 62, 0
4, 15000, Note_on_c, 1, 47, 81
4, 15001, Note_on_c, 1, 54, 80
4, 15002, Note_on_c, 1, 66, 0
4, 15002, Note_on_c, 1, 59, 79
4, 15003, Note_on_c, 1, 62, 78
4, 15005, Note_on_c, 1, 66, 77
4, 15077, Note_on_c, 1, 47, 0
4, 15078, Note_on_c, 1, 54, 0
4, 15079, Note_on_c, 1, 59, 0
4, 15080, Note_on_c, 1, 62, 0
4, 15080, Note_on_c, 1, 47, 81
4, 15081, Note_on_c, 1, 54, 80
4, 15082, Note_on_c, 1, 66, 0
4, 15082, Note_on_c, 1, 59, 79
4, 15083, Note_on_c, 1, 62, 78
4, 15085, Note_on_c, 1, 66, 77
4, 15197, Note_on_c, 1, 47, 0
4, 15198, Note_on_c, 1, 54, 0
4, 15199, Note_on_c, 1, 59, 0
4, 15200, Note_on_c, 1, 62, 0
4, 15200, Note_on_c, 1, 47, 81
4, 15201, Note_on_c, 1, 54, 80
4, 15202, Note_on_c, 1, 66, 0
4, 15202, Note_on_c, 1, 59, 79
4, 15203, Note_on_c, 1, 62, 78
4, 15205, Note_on_c, 1, 66, 77
4, 15237, Note_on_c, 1, 47, 0
4, 15238, Note_on_c, 1, 54, 0
4, 15239, Note_on_c, 1, 59, 0
4, 15240, Note_on_c, 1, 62, 0
4, 15240, Note_on_c, 1, 47, 81
4, 15241, Note_on_c, 1, 54, 80
4, 15242, Note_on_c, 1, 66, 0
4, 15242, Note_on_c, 1, 59, 79
4, 15243, Note_on_c, 1, 62, 78
4, 15245, Note_on_c, 1, 66, 77
4, 15357, Note_on_c, 1, 47, 0
4, 15358, Note_on_c, 1, 54, 0
4, 15359, Note_on_c, 1, 59, 0
4, 15360, Note_on_c, 1, 62, 0
4, 15360, Note_on_c, 1, 40, 81
4, 15361, Note_on_c, 1, 47, 80
4, 15362, Note_on_c, 1, 66, 0
4, 15362, Note_on_c, 1, 52, 79
4, 15363, Note_on_c, 1, 56, 78
4, 15365, Note_on_c, 1, 59, 77
4, 15366, Note_on_c, 1, 64, 76
4, 15477, Note_on_c, 1, 40, 0
4, 15478, Note_on_c, 1, 47, 0
4, 15479, Note_on_c, 1, 52, 0
4, 15480, Note_on_c, 1, 56, 0
4, 15480, Note_on_c, 1, 40, 81
4, 15481, Note_on_c, 1, 47, 80
4, 15482, Note_on_c, 1, 59, 0
4, 15482, Note_on_c, 1, 52, 79
4, 15483, Note_on_c, 1, 64, 0
4, 15483, Note_on_c, 1, 56, 78
4, 15485, Note_on_c, 1, 59, 77
4, 15486, Note_on_c, 1, 64, 76
4, 15557, Note_on_c, 1, 40, 0
4, 15558, Note_on_c, 1, 47, 0
4, 15559, Note_on_c, 1, 52, 0
4, 15560, Note_on_c, 1, 56, 0
4, 15560, Note_on_c, 1, 40, 81
4, 15561, Note_on_c, 1, 47, 80
4, 15562, Note_on_c, 1, 59, 0
4, 15562, Note_on_c, 1, 52, 79
4, 15563, Note_on_c, 1, 64, 0
4, 15563, Note_on_c, 1, 56, 78
4, 15565, Note_on_c, 1, 59, 77
4, 15566, Note_on_c, 1, 64, 76
4, 15677, Note_on_c, 1, 40, 0
4, 15678, Note_on_c, 1, 47, 0
4, 15679, Note_on_c, 1, 52, 0
4, 15680, Note_on_c, 1, 56, 0
4, 15680, Note_on_c, 1, 40, 81
4, 15681, Note_on_c, 1, 47, 80
4, 15682, Note_on_c, 1, 59, 0
4, 15682, Note_on_c, 1, 52, 79
4, 15683, Note_on_c, 1, 64, 0
4, 15683, Note_on_c, 1, 56, 78
4, 15685, Note_on_c, 1, 59, 77
4, 15686, Note_on_c, 1, 64, 76
4, 15717, Note_on_c, 1, 40, 0
4, 15718, Note_on_c, 1, 47, 0
4, 15719, Note_on_c, 1, 52, 0
4, 15720, Note_on_c, 1, 56, 0
4, 15720, Note_on_c, 1, 40, 81
4, 15721, Note_on_c, 1, 47, 80
4, 15722, Note_on_c, 1, 59, 0
4, 15722, Note_on_c, 1, 52, 79
4, 15723, Note_on_c, 1, 64, 0
4, 15723, Note_on_c, 1, 56, 78
4, 15725, Note_on_c, 1, 59, 77
4, 15726, Note_on_c, 1, 64, 76
4, 15837, Note_on_c, 1, 40, 0
4, 15838, Note_on_c, 1, 47, 0
4, 15839, Note_on_c, 1, 52, 0
4, 15840, Note_on_c, 1, 56, 0
4, 15840, Note_on_c, 1, 45, 83
4, 15841, Note_on_c, 1, 50, 81
4, 15842, Note_on_c, 1, 59, 0
4, 15842, Note_on_c, 1, 57, 79
4, 15843, Note_on_c, 1, 64, 0
4, 15843, Note_on_c, 1, 62, 77
4, 15845, Note_on_c, 1, 66, 75
4, 15957, Note_on_c, 1, 45, 0
4, 15958, Note_on_c, 1, 50, 0
4, 15959, Note_on_c, 1, 57, 0
4, 15960, Note_on_c, 1, 62, 0
4, 15960, Note_on_c, 1, 45, 83
4, 15961, Note_on_c, 1, 50, 81
4, 15962, Note_on_c, 1, 66, 0
4, 15962, Note_on_c, 1, 57, 79
4, 15963, Note_on_c, 1, 62, 77
4, 15965, Note_on_c, 1, 66, 75
4, 16077, Note_on_c, 1, 45, 0
4, 16078, Note_on_c, 1, 50, 0
4, 16079, Note_on_c, 1, 57, 0
4, 16080, Note_on_c, 1, 62, 0
4, 16080, Note_on_c, 1, 45, 83
4, 16081, Note_on_c, 1, 50, 81
4, 16082, Note_on_c, 1, 66, 0
4, 16082, Note_on_c, 1, 57, 79
4, 16083, Note_on_c, 1, 62, 77
4, 16085, Note_on_c, 1, 66, 75
4, 16157, Note_on_c, 1, 45, 0
4, 16158, Note_on_c, 1, 50, 0
4, 16159, Note_on_c, 1, 57, 0
4, 16160, Note_on_c, 1, 62, 0
4, 16160, Note_on_c, 1, 45, 83
4, 16161, Note_on_c, 1, 50, 81
4, 16162, Note_on_c, 1, 66, 0
4, 16162, Note_on_c, 1, 57, 79
4, 16163, Note_on_c, 1, 62, 77
4, 16165, Note_on_c, 1, 66, 75
4, 16197, Note_on_c, 1, 45, 0
4, 16198, Note_on_c, 1, 50, 0
4, 16199, Note_on_c, 1, 57, 0
4, 16200, Note_on_c, 1, 62, 0
4, 16200, Note_on_c, 1, 45, 83
4, 16201, Note_on_c, 1, 50, 81
4, 16202, Note_on_c, 1, 66, 0
4, 16202, Note_on_c, 1, 57, 79
4, 16203, Note_on_c, 1, 62, 77
4, 16205, Note_on_c, 1, 66, 75
4, 16317, Note_on_c, 1, 45, 0
4, 16318, Note_on_c, 1, 50, 0
4, 16319, Note_on_c, 1, 57, 0
4, 16320, Note_on_c, 1, 62, 0
4, 16320, Note_on_c, 1, 40, 83
4, 16321, Note_on_c, 1, 47, 81
4, 16322, Note_on_c, 1, 66, 0
4, 16322, Note_on_c, 1, 52, 79
4, 16323, Note_on_c, 1, 56, 77
4, 16325, Note_on_c, 1, 59, 75
4, 16326, Note_on_c, 1, 64, 73
4, 16437, Note_on_c, 1, 40, 0
4, 16438, Note_on_c, 1, 47, 0
4, 16439, Note_on_c, 1, 52, 0
4, 16440, Note_on_c, 1, 56, 0
4, 16440, Note_on_c, 1, 40, 83
4, 16441, Note_on_c, 1, 47, 81
4, 16442, Note_on_c, 1, 59, 0
4, 16442, Note_on_c, 1, 52, 79
4, 16443, Note_on_c, 1, 64, 0
4, 16443, Note_on_c, 1, 56, 77
4, 16445, Note_on_c, 1, 59, 75
4, 16446, Note_on_c, 1, 64, 73
4, 16557, Note_on_c, 1, 40, 0
4, 16558, Note_on_c, 1, 47, 0
4, 16559, Note_on_c, 1, 52, 0
4, 16560, Note_on_c, 1, 56, 0
4, 16560, Note_on_c, 1, 40, 83
4, 16561, Note_on_c, 1, 47, 81
4, 16562, Note_on_c, 1, 59, 0
4, 16562, Note_on_c, 1, 52, 79
4, 16563, Note_on_c, 1, 64, 0
4, 16563, Note_on_c, 1, 56, 77
4, 16565, Note_on_c, 1, 59, 75
4, 16566, Note_on_c, 1, 64, 73
4, 16637, Note_on_c, 1, 40, 0
4, 16638, Note_on_c, 1, 47, 0
4, 16639, Note_on_c, 1, 52, 0
4, 16640, Note_on_c, 1, 56, 0
4, 16640, Note_on_c, 1, 40, 83
4, 16641, Note_on_c, 1, 47, 81
4, 16642, Note_on_c, 1, 59, 0
4, 16642, Note_on_c, 1, 52, 79
4, 16643, Note_on_c, 1, 64, 0
4, 16643, Note_on_c, 1, 56, 77
4, 16645, Note_on_c, 1, 59, 75
4, 16646, Note_on_c, 1, 64, 73
4, 16677, Note_on_c, 1, 40, 0
4, 16678, Note_on_c, 1, 47, 0
4, 16679, Note_on_c, 1, 52, 0
4, 16680, Note_on_c, 1, 56, 0
4, 16680, Note_on_c, 1, 40, 83
4, 16681, Note_on_c, 1, 47, 81
4, 16682, Note_on_c, 1, 59, 0
4, 16682, Note_on_c, 1, 52, 79
4, 16683, Note_on_c, 1, 64, 0
4, 16683, Note_on_c, 1, 56, 77
4, 16685, Note_on_c, 1, 59, 75
4, 16686, Note_on_c, 1, 64, 73
4, 16797, Note_on_c, 1, 40, 0
4, 16798, Note_on_c, 1, 47, 0
4, 16799, Note_on_c, 1, 52, 0
4, 16800, Note_on_c, 1, 56, 0
4, 16800, Note_on_c, 1, 43, 83
4, 16801, Note_on_c, 1, 47, 81
4, 16802, Note_on_c, 1, 59, 0
4, 16802, Note_on_c, 1, 50, 79
4, 16803, Note_on_c, 1, 64, 0
4, 16803, Note_on_c, 1, 55, 77
4, 16805, Note_on_c, 1, 59, 75
4, 16806, Note_on_c, 1, 67, 73
4, 16917, Note_on_c, 1, 43, 0
4, 16918, Note_on_c, 1, 47, 0
4, 16919, Note_on_c, 1, 50, 0
4, 16920, Note_on_c, 1, 55, 0
4, 16920, Note_on_c, 1, 43, 83
4, 16921, Note_on_c, 1, 47, 81
4, 16922, Note_on_c, 1, 59, 0
4, 16922, Note_on_c, 1, 50, 79
4, 16923, Note_on_c, 1, 67, 0
4, 16923, Note_on_c, 1, 55, 77
4, 16925, Note_on_c, 1, 59, 75
4, 16926, Note_on_c, 1, 67, 73
4, 17037, Note_on_c, 1, 43, 0
4, 17038, Note_on_c, 1, 47, 0
4, 17039, Note_on_c, 1, 50, 0
4, 17040, Note_on_c, 1, 55, 0
4, 17040, Note_on_c, 1, 43, 83
4, 17041, Note_on_c, 1, 47, 81
4, 17042, Note_on_c, 1, 59, 0
4, 17042, Note_on_c, 1, 50, 79
4, 17043, Note_on_c, 1, 67, 0
4, 17043, Note_on_c, 1, 55, 77
4, 17045, Note_on_c, 1, 59, 75
4, 17046, Note_on_c, 1, 67, 73
4, 17117, Note_on_c, 1, 43, 0
4, 17118, Note_on_c, 1, 47, 0
4, 17119, Note_on_c, 1, 50, 0
4, 17120, Note_on_c, 1, 55, 0
4, 17120, Note_on_c, 1, 43, 83
4, 17121, Note_on_c, 1, 47, 81
4, 17122, Note_on_c, 1, 59, 0
4, 17122, Note_on_c, 1, 50, 79
4, 17123, Note_on_c, 1, 67, 0
4, 17123, Note_on_c, 1, 55, 77
4, 17125, Note_on_c, 1, 59, 75
4, 17126, Note_on_c, 1, 67, 73
4, 17157, Note_on_c, 1, 43, 0
4, 17158, Note_on_c, 1, 47, 0
4, 17159, Note_on_c, 1, 50, 0
4, 17160, Note_on_c, 1, 55, 0
4, 17160, Note_on_c, 1, 43, 83
4, 17161, Note_on_c, 1, 47, 81
4, 17162, Note_on_c, 1, 59, 0
4, 17162, Note_on_c, 1, 50, 79
4, 17163, Note_on_c, 1, 67, 0
4, 17163, Note_on_c, 1, 55, 77
4, 17165, Note_on_c, 1, 59, 75
4, 17166, Note_on_c, 1, 67, 73
4, 17277, Note_on_c, 1, 43, 0
4, 17278, Note_on_c, 1, 47, 0
4, 17279, Note_on_c, 1, 50, 0
4, 17280, Note_on_c, 1, 55, 0
4, 17280, Note_on_c, 1, 45, 83
4, 17281, Note_on_c, 1, 50, 81
4, 17282, Note_on_c, 1, 59, 0
4, 17282, Note_on_c, 1, 57, 79
4, 17283, Note_on_c, 1, 67, 0
4, 17283, Note_on_c, 1, 62, 77
4, 17285, Note_on_c, 1, 66, 75
4, 17397, Note_on_c, 1, 45, 0
4, 17398, Note_on_c, 1, 50, 0
4, 17399, Note_on_c, 1, 57, 0
4, 17400, Note_on_c, 1, 62, 0
4, 17400, Note_on_c, 1, 45, 83
4, 17401, Note_on_c, 1, 50, 81
4, 17402, Note_on_c, 1, 66, 0
4, 17402, Note_on_c, 1, 57, 79
4, 17403, Note_on_c, 1, 62, 77
4, 17405, Note_on_c, 1, 66, 75
4, 17517, Note_on_c, 1, 45, 0
4, 17518, Note_on_c, 1, 50, 0
4, 17519, Note_on_c, 1, 57, 0
4, 17520, Note_on_c, 1, 62, 0
4, 17520, Note_on_c, 1, 45, 83
4, 17521, Note_on_c, 1, 50, 81
4, 17522, Note_on_c, 1, 66, 0
4, 17522, Note_on_c, 1, 57, 79
4, 17523, Note_on_c, 1, 62, 77
4, 17525, Note_on_c, 1, 66, 75
4, 17597, Note_on_c, 1, 45, 0
4, 17598, Note_on_c, 1, 50, 0
4, 17599, Note_on_c, 1, 57, 0
4, 17600, Note_on_c, 1, 62, 0
4, 17600, Note_on_c, 1, 45, 83
4, 17601, Note_on_c, 1, 50, 81
4, 17602, Note_on_c, 1, 66, 0
4, 17602, Note_on_c, 1, 57, 79
4, 17603, Note_on_c, 1, 62, 77
4, 17605, Note_on_c, 1, 66, 75
4, 17637, Note_on_c, 1, 45, 0
4, 17638, Note_on_c, 1, 50, 0
4, 17639, Note_on_c, 1, 57, 0
4, 17640, Note_on_c, 1, 62, 0
4, 17640, Note_on_c, 1, 45, 83
4, 17641, Note_on_c, 1, 50, 81
4, 17642, Note_on_c, 1, 66, 0
4, 17642, Note_on_c, 1, 57, 79
4, 17643, Note_on_c, 1, 62, 77
4, 17645, Note_on_c, 1, 66, 75
4, 17757, Note_on_c, 1, 45, 0
4, 17758, Note_on_c, 1, 50, 0
4, 17759, Note_on_c, 1, 57, 0
4, 17760, Note_on_c, 1, 62, 0
4, 17760, Note_on_c, 1, 40, 77
4, 17761, Note_on_c, 1, 45, 76
4, 17762, Note_on_c, 1, 66, 0
4, 17762, Note_on_c, 1, 52, 75
4, 17763, Note_on_c, 1, 57, 74
4, 17765, Note_on_c, 1, 61, 73
4, 17766, Note_on_c, 1, 64, 72
4, 17877, Note_on_c, 1, 40, 0
4, 17878, Note_on_c, 1, 45, 0
4, 17879, Note_on_c, 1, 52, 0
4, 17880, Note_on_c, 1, 57, 0
4, 17880, Note_on_c, 1, 40, 77
4, 17881, Note_on_c, 1, 45, 76
4, 17882, Note_on_c, 1, 61, 0
4, 17882, Note_on_c, 1, 52, 75
4, 17883, Note_on_c, 1, 64, 0
4, 17883, Note_on_c, 1, 57, 74
4, 17885, Note_on_c, 1, 61, 73
4, 17886, Note_on_c, 1, 64, 72
4, 17997, Note_on_c, 1, 40, 0
4, 17998, Note_on_c, 1, 45, 0
4, 17999, Note_on_c, 1, 52, 0
4, 18000, Note_on_c, 1, 57, 0
4, 18000, Note_on_c, 1, 40, 77
4, 18001, Note_on_c, 1, 45, 76
4, 18002, Note_on_c, 1, 61, 0
4, 18002, Note_on_c, 1, 52, 75
4, 18003, Note_on_c, 1, 64, 0
4, 18003, Note_on_c, 1, 57, 74
4, 18005, Note_on_c, 1, 61, 73
4, 18006, Note_on_c, 1, 64, 72
4, 18117, Note_on_c, 1, 40, 0
4, 18118, Note_on_c, 1, 45, 0
4, 18119, Note_on_c, 1, 52, 0
4, 18120, Note_on_c, 1, 57, 0
4, 18120, Note_on_c, 1, 40, 77
4, 18121, Note_on_c, 1, 45, 76
4, 18122, Note_on_c, 1, 61, 0
4, 18122, Note_on_c, 1, 52, 75
4, 18123, Note_on_c, 1, 64, 0
4, 18123, Note_on_c, 1, 57, 74
4, 18125, Note_on_c, 1, 61, 73
4, 18126, Note_on_c, 1, 64, 72
4, 18237, Note_on_c, 1, 40, 0
4, 18238, Note_on_c, 1, 45, 0
4, 18239, Note_on_c, 1, 52, 0
4, 18240, Note_on_c, 1, 57, 0
4, 18240, Note_on_c, 1, 40, 77
4, 18241, Note_on_c, 1, 45, 76
4, 18242, Note_on_c, 1, 61, 0
4, 18242, Note_on_c, 1, 52, 75
4, 18243, Note_on_c, 1, 64, 0
4, 18243, Note_on_c, 1, 57, 74
4, 18245, Note_on_c, 1, 61, 73
4, 18246, Note_on_c, 1, 64, 72
4, 18357, Note_on_c, 1, 40, 0
4, 18358, Note_on_c, 1, 45, 0
4, 18359, Note_on_c, 1, 52, 0
4, 18360, Note_on_c, 1, 57, 0
4, 18360, Note_on_c, 1, 40, 77
4, 18361, Note_on_c, 1, 45, 76
4, 18362, Note_on_c, 1, 61, 0
4, 18362, Note_on_c, 1, 52, 75
4, 18363, Note_on_c, 1, 64, 0
4, 18363, Note_on_c, 1, 57, 74
4, 18365, Note_on_c, 1, 61, 73
4, 18366, Note_on_c, 1, 64, 72
4, 18477, Note_on_c, 1, 40, 0
4, 18478, Note_on_c, 1, 45, 0
4, 18479, Note_on_c, 1, 52, 0
4, 18480, Note_on_c, 1, 57, 0
4, 18480, Note_on_c, 1, 40, 77
4, 18481, Note_on_c, 1, 45, 76
4, 18482, Note_on_c, 1, 61, 0
4, 18482, Note_on_c, 1, 52, 75
4, 18483, Note_on_c, 1, 64, 0
4, 18483, Note_on_c, 1, 57, 74
4, 18485, Note_on_c, 1, 61, 73
4, 18486, Note_on_c, 1, 64, 72
4, 18597, Note_on_c, 1, 40, 0
4, 18598, Note_on_c, 1, 45, 0
4, 18599, Note_on_c, 1, 52, 0
4, 18600, Note_on_c, 1, 57, 0
4, 18600, Note_on_c, 1, 40, 77
4, 18601, Note_on_c, 1, 45, 76
4, 18602, Note_on_c, 1, 61, 0
4, 18602, Note_on_c, 1, 52, 75
4, 18603, Note_on_c, 1, 64, 0
4, 18603, Note_on_c, 1, 57, 74
4, 18605, Note_on_c, 1, 61, 73
4, 18606, Note_on_c, 1, 64, 72
4, 18717, Note_on_c, 1, 40, 0
4, 18718, Note_on_c, 1, 45, 0
4, 18719, Note_on_c, 1, 52, 0
4, 18720, Note_on_c, 1, 57, 0
4, 18720, Note_on_c, 1, 47, 77
4, 18721, Note_on_c, 1, 54, 76
4, 18722, Note_on_c, 1, 61, 0
4, 18722, Note_on_c, 1, 59, 75
4, 18723, Note_on_c, 1, 64, 0
4, 18723, Note_on_c, 1, 62, 74
4, 18725, Note_on_c, 1, 66, 73
4, 19517, Note_on_c, 1, 47, 0
4, 19518, Note_on_c, 1, 54, 0
4, 19519, Note_on_c, 1, 59, 0
4, 19520, Note_on_c, 1, 62, 0
4, 19520, Note_on_c, 1, 47, 77
4, 19521, Note_on_c, 1, 54, 76
4, 19522, Note_on_c, 1, 66, 0
4, 19522, Note_on_c, 1, 59, 75
4, 19523, Note_on_c, 1, 62, 74
4, 19525, Note_on_c, 1, 66, 73
4, 19557, Note_on_c, 1, 47, 0
4, 19558, Note_on_c, 1, 54, 0
4, 19559, Note_on_c, 1, 59, 0
4, 19560, Note_on_c, 1, 62, 0
4, 19560, Note_on_c, 1, 47, 77
4, 19561, Note_on_c, 1, 54, 76
4, 19562, Note_on_c, 1, 66, 0
4, 19562, Note_on_c, 1, 59, 75
4, 19563, Note_on_c, 1, 62, 74
4, 19565, Note_on_c, 1, 66, 73
4, 19637, Note_on_c, 1, 47, 0
4, 19638, Note_on_c, 1, 54, 0
4, 19639, Note_on_c, 1, 59, 0
4, 19640, Note_on_c, 1, 62, 0
4, 19640, Note_on_c, 1, 47, 77
4, 19641, Note_on_c, 1, 54, 76
4, 19642, Note_on_c, 1, 66, 0
4, 19642, Note_on_c, 1, 59, 75
4, 19643, Note_on_c, 1, 62, 74
4, 19645, Note_on_c, 1, 66, 73
4, 19677, Note_on_c, 1, 47, 0
4, 19678, Note_on_c, 1, 54, 0
4, 19679, Note_on_c, 1, 59, 0
4, 19680, Note_on_c, 1, 62, 0
4, 19680, Note_on_c, 1, 40, 77
4, 19681, Note_on_c, 1, 47, 76
4, 19682, Note_on_c, 1, 66, 0
4, 19682, Note_on_c, 1, 52, 75
4, 19683, Note_on_c, 1, 56, 74
4, 19685, Note_on_c, 1, 59, 73
4, 19686, Note_on_c, 1, 64, 72
4, 19797, Note_on_c, 1, 40, 0
4, 19798, Note_on_c, 1, 47, 0
4, 19799, Note_on_c, 1, 52, 0
4, 19800, Note_on_c, 1, 56, 0
4, 19800, Note_on_c, 1, 40, 77
4, 19801, Note_on_c, 1, 47, 76
4, 19802, Note_on_c, 1, 59, 0
4, 19802, Note_on_c, 1, 52, 75
4, 19803, Note_on_c, 1, 64, 0
4, 19803, Note_on_c, 1, 56, 74
4, 19805, Note_on_c, 1, 59, 73
4, 19806, Note_on_c, 1, 64, 72
4, 19917, Note_on_c, 1, 40, 0
4, 19918, Note_on_c, 1, 47, 0
4, 19919, Note_on_c, 1, 52, 0
4, 19920, Note_on_c, 1, 56, 0
4, 19920, Note_on_c, 1, 40, 77
4, 19921, Note_on_c, 1, 47, 76
4, 19922, Note_on_c, 1, 59, 0
4, 19922, Note_on_c, 1, 52, 75
4, 19923, Note_on_c, 1, 64, 0
4, 19923, Note_on_c, 1, 56, 74
4, 19925, Note_on_c, 1, 59, 73
4, 19926, Note_on_c, 1, 64, 72
4, 20037, Note_on_c, 1, 40, 0
4, 20038, Note_on_c, 1, 47, 0
4, 20039, Note_on_c, 1, 52, 0
4, 20040, Note_on_c, 1, 56, 0
4, 20040, Note_on_c, 1, 40, 77
4, 20041, Note_on_c, 1, 47, 76
4, 20042, Note_on_c, 1, 59, 0
4, 20042, Note_on_c, 1, 52, 75
4, 20043, Note_on_c, 1, 64, 0
4, 20043, Note_on_c, 1, 56, 74
4, 20045, Note_on_c, 1, 59, 73
4, 20046, Note_on_c, 1, 64, 72
4, 20157, Note_on_c, 1, 40, 0
4, 20158, Note_on_c, 1, 47, 0
4, 20159, Note_on_c, 1, 52, 0
4, 20160, Note_on_c, 1, 56, 0
4, 20160, Note_on_c, 1, 40, 77
4, 20161, Note_on_c, 1, 47, 76
4, 20162, Note_on_c, 1, 59, 0
4, 20162, Note_on_c, 1, 52, 75
4, 20163, Note_on_c, 1, 64, 0
4, 20163, Note_on_c, 1, 56, 74
4, 20165, Note_on_c, 1, 59, 73
4, 20166, Note_on_c, 1, 64, 72
4, 20277, Note_on_c, 1, 40, 0
4, 20278, Note_on_c, 1, 47, 0
4, 20279, Note_on_c, 1, 52, 0
4, 20280, Note_on_c, 1, 56, 0
4, 20280, Note_on_c, 1, 40, 77
4, 20281, Note_on_c, 1, 47, 76
4, 20282, Note_on_c, 1, 59, 0
4, 20282, Note_on_c, 1, 52, 75
4, 20283, Note_on_c, 1, 64, 0
4, 20283, Note_on_c, 1, 56, 74
4, 20285, Note_on_c, 1, 59, 73
4, 20286, Note_on_c, 1, 64, 72
4, 20397, Note_on_c, 1, 40, 0
4, 20398, Note_on_c, 1, 47, 0
4, 20399, Note_on_c, 1, 52, 0
4, 20400, Note_on_c, 1, 56, 0
4, 20400, Note_on_c, 1, 40, 77
4, 20401, Note_on_c, 1, 47, 76
4, 20402, Note_on_c, 1, 59, 0
4, 20402, Note_on_c, 1, 52, 75
4, 20403, Note_on_c, 1, 64, 0
4, 20403, Note_on_c, 1, 56, 74
4, 20405, Note_on_c, 1, 59, 73
4, 20406, Note_on_c, 1, 64, 72
4, 20517, Note_on_c, 1, 40, 0
4, 20518, Note_on_c, 1, 47, 0
4, 20519, Note_on_c, 1, 52, 0
4, 20520, Note_on_c, 1, 56, 0
4, 20520, Note_on_c, 1, 40, 77
4, 20521, Note_on_c, 1, 47, 76
4, 20522, Note_on_c, 1, 59, 0
4, 20522, Note_on_c, 1, 52, 75
4, 20523, Note_on_c, 1, 64, 0
4, 20523, Note_on_c, 1, 56, 74
4, 20525, Note_on_c, 1, 59, 73
4, 20526, Note_on_c, 1, 64, 72
4, 20637, Note_on_c, 1, 40, 0
4, 20638, Note_on_c, 1, 47, 0
4, 20639, Note_on_c, 1, 52, 0
4, 20640, Note_on_c, 1, 56, 0
4, 20640, Note_on_c, 1, 43, 77
4, 20641, Note_on_c, 1, 47, 76
4, 20642, Note_on_c, 1, 59, 0
4, 20642, Note_on_c, 1, 50, 75
4, 20643, Note_on_c, 1, 64, 0
4, 20643, Note_on_c, 1, 55, 74
4, 20645, Note_on_c, 1, 59, 73
4, 20646, Note_on_c, 1, 67, 72
4, 20757, Note_on_c, 1, 43, 0
4, 20758, Note_on_c, 1, 47, 0
4, 20759, Note_on_c, 1, 50, 0
4, 20760, Note_on_c, 1, 55, 0
4, 20760, Note_on_c, 1, 43, 77
4, 20761, Note_on_c, 1, 47, 76
4, 20762, Note_on_c, 1, 59, 0
4, 20762, Note_on_c, 1, 50, 75
4, 20763, Note_on_c, 1, 67, 0
4, 20763, Note_on_c, 1, 55, 74
4, 20765, Note_on_c, 1, 59, 73
4, 20766, Note_on_c, 1, 67, 72
4, 20877, Note_on_c, 1, 43, 0
4, 20878, Note_on_c, 1, 47, 0
4, 20879, Note_on_c, 1, 50, 0
4, 20880, Note_on_c, 1, 55, 0
4, 20880, Note_on_c, 1, 43, 77
4, 20881, Note_on_c, 1, 47, 76
4, 20882, Note_on_c, 1, 59, 0
4, 20882, Note_on_c, 1, 50, 75
4, 20883, Note_on_c, 1, 67, 0
4, 20883, Note_on_c, 1, 55, 74
4, 20885, Note_on_c, 1, 59, 73
4, 20886, Note_on_c, 1, 67, 72
4, 20957, Note_on_c, 1, 43, 0
4, 20958, Note_on_c, 1, 47, 0
4, 20959, Note_on_c, 1, 50, 0
4, 20960, Note_on_c, 1, 55, 0
4, 20960, Note_on_c, 1, 43, 77
4, 20961, Note_on_c, 1, 47, 76
4, 20962, Note_on_c, 1, 59, 0
4, 20962, Note_on_c, 1, 50, 75
4, 20963, Note_on_c, 1, 67, 0
4, 20963, Note_on_c, 1, 55, 74
4, 20965, Note_on_c, 1, 59, 73
4, 20966, Note_on_c, 1, 67, 72
4, 20997, Note_on_c, 1, 43, 0
4, 20998, Note_on_c, 1, 47, 0
4, 20999, Note_on_c, 1, 50, 0
4, 21000, Note_on_c, 1, 55, 0
4, 21000, Note_on_c, 1, 43, 77
4, 21001, Note_on_c, 1, 47, 76
4, 21002, Note_on_c, 1, 59, 0
4, 21002, Note_on_c, 1, 50, 75
4, 21003, Note_on_c, 1, 67, 0
4, 21003, Note_on_c, 1, 55, 74
4, 21005, Note_on_c, 1, 59, 73
4, 21006, Note_on_c, 1, 67, 72
4, 21117, Note_on_c, 1, 43, 0
4, 21118, Note_on_c, 1, 47, 0
4, 21119, Note_on_c, 1, 50, 0
4, 21120, Note_on_c, 1, 55, 0
4, 21120, Note_on_c, 1, 40, 77
4, 21121, Note_on_c, 1, 45, 76
4, 21122, Note_on_c, 1, 59, 0
4, 21122, Note_on_c, 1, 52, 75
4, 21123, Note_on_c, 1, 67, 0
4, 21123, Note_on_c, 1, 57, 74
4, 21125, Note_on_c, 1, 61, 73
4, 21126, Note_on_c, 1, 64, 72
4, 21237, Note_on_c, 1, 40, 0
4, 21238, Note_on_c, 1, 45, 0
4, 21239, Note_on_c, 1, 52, 0
4, 21240, Note_on_c, 1, 57, 0
4, 21240, Note_on_c, 1, 40, 77
4, 21241, Note_on_c, 1, 45, 76
4, 21242, Note_on_c, 1, 61, 0
4, 21242, Note_on_c, 1, 52, 75
4, 21243, Note_on_c, 1, 64, 0
4, 21243, Note_on_c, 1, 57, 74
4, 21245, Note_on_c, 1, 61, 73
4, 21246, Note_on_c, 1, 64, 72
4, 21357, Note_on_c, 1, 40, 0
4, 21358, Note_on_c, 1, 45, 0
4, 21359, Note_on_c, 1, 52, 0
4, 21360, Note_on_c, 1, 57, 0
4, 21360, Note_on_c, 1, 40, 77
4, 21361, Note_on_c, 1, 45, 76
4, 21362, Note_on_c, 1, 61, 0
4, 21362, Note_on_c, 1, 52, 75
4, 21363, Note_on_c, 1, 64, 0
4, 21363, Note_on_c, 1, 57, 74
4, 21365, Note_on_c, 1, 61, 73
4, 21366, Note_on_c, 1, 64, 72
4, 21437, Note_on_c, 1, 40, 0
4, 21438, Note_on_c, 1, 45, 0
4, 21439, Note_on_c, 1, 52, 0
4, 21440, Note_on_c, 1, 57, 0
4, 21440, Note_on_c, 1, 40, 77
4, 21441, Note_on_c, 1, 45, 76
4, 21442, Note_on_c, 1, 61, 0
4, 21442, Note_on_c, 1, 52, 75
4, 21443, Note_on_c, 1, 64, 0
4, 21443, Note_on_c, 1, 57, 74
4, 21445, Note_on_c, 1, 61, 73
4, 21446, Note_on_c, 1, 64, 72
4, 21477, Note_on_c, 1, 40, 0
4, 21478, Note_on_c, 1, 45, 0
4, 21479, Note_on_c, 1, 52, 0
4, 21480, Note_on_c, 1, 57, 0
4, 21480, Note_on_c, 1, 40, 77
4, 21481, Note_on_c, 1, 45, 76
4, 21482, Note_on_c, 1, 61, 0
4, 21482, Note_on_c, 1, 52, 75
4, 21483, Note_on_c, 1, 64, 0
4, 21483, Note_on_c, 1, 57, 74
4, 21485, Note_on_c, 1, 61, 73
4, 21486, Note_on_c, 1, 64, 72
4, 21597, Note_on_c, 1, 40, 0
4, 21598, Note_on_c, 1, 45, 0
4, 21599, Note_on_c, 1, 52, 0
4, 21600, Note_on_c, 1, 57, 0
4, 21600, Note_on_c, 1, 45, 83
4, 21601, Note_on_c, 1, 50, 81
4, 21602, Note_on_c, 1, 61, 0
4, 21602, Note_on_c, 1, 57, 79
4, 21603, Note_on_c, 1, 64, 0
4, 21603, Note_on_c, 1, 62, 77
4, 21605, Note_on_c, 1, 66, 75
4, 21717, Note_on_c, 1, 45, 0
4, 21718, Note_on_c, 1, 50, 0
4, 21719, Note_on_c, 1, 57, 0
4, 21720, Note_on_c, 1, 62, 0
4, 21720, Note_on_c, 1, 45, 83
4, 21721, Note_on_c, 1, 50, 81
4, 21722, Note_on_c, 1, 66, 0
4, 21722, Note_on_c, 1, 57, 79
4, 21723, Note_on_c, 1, 62, 77
4, 21725, Note_on_c, 1, 66, 75
4, 21837, Note_on_c, 1, 45, 0
4, 21838, Note_on_c, 1, 50, 0
4, 21839, Note_on_c, 1, 57, 0
4, 21840, Note_on_c, 1, 62, 0
4, 21840, Note_on_c, 1, 45, 83
4, 21841, Note_on_c, 1, 50, 81
4, 21842, Note_on_c, 1, 66, 0
4, 21842, Note_on_c, 1, 57, 79
4, 21843, Note_on_c, 1, 62, 77
4, 21845, Note_on_c, 1, 66, 75
4, 21917, Note_on_c, 1, 45, 0
4, 21918, Note_on_c, 1, 50, 0
4, 21919, Note_on_c, 1, 57, 0
4, 21920, Note_on_c, 1, 62, 0
4, 21920, Note_on_c, 1, 45, 83
4, 21921, Note_on_c, 1, 50, 81
4, 21922, Note_on_c, 1, 66, 0
4, 21922, Note_on_c, 1, 57, 79
4, 21923, Note_on_c, 1, 62, 77
4, 21925, Note_on_c, 1, 66, 75
4, 21957, Note_on_c, 1, 45, 0
4, 21958, Note_on_c, 1, 50, 0
4, 21959, Note_on_c, 1, 57, 0
4, 21960, Note_on_c, 1, 62, 0
4, 21960, Note_on_c, 1, 45, 83
4, 21961, Note_on_c, 1, 50, 81
4, 21962, Note_on_c, 1, 66, 0
4, 21962, Note_on_c, 1, 57, 79
4, 21963, Note_on_c, 1, 62, 77
4, 21965, Note_on_c, 1, 66, 75
4, 22077, Note_on_c, 1, 45, 0
4, 22078, Note_on_c, 1, 50, 0
4, 22079, Note_on_c, 1, 57, 0
4, 22080, Note_on_c, 1, 62, 0
4, 22080, Note_on_c, 1, 40, 83
4, 22081, Note_on_c, 1, 47, 81
4, 22082, Note_on_c, 1, 66, 0
4, 22082, Note_on_c, 1, 52, 79
4, 22083, Note_on_c, 1, 56, 77
4, 22085, Note_on_c, 1, 59, 75
4, 22086, Note_on_c, 1, 64, 73
4, 22197, Note_on_c, 1, 40, 0
4, 22198, Note_on_c, 1, 47, 0
4, 22199, Note_on_c, 1, 52, 0
4, 22200, Note_on_c, 1, 56, 0
4, 22200, Note_on_c, 1, 40, 83
4, 22201, Note_on_c, 1, 47, 81
4, 22202, Note_on_c, 1, 59, 0
4, 22202, Note_on_c, 1, 52, 79
4, 22203, Note_on_c, 1, 64, 0
4, 22203, Note_on_c, 1, 56, 77
4, 22205, Note_on_c, 1, 59, 75
4, 22206, Note_on_c, 1, 64, 73
4, 22317, Note_on_c, 1, 40, 0
4, 22318, Note_on_c, 1, 47, 0
4, 22319, Note_on_c, 1, 52, 0
4, 22320, Note_on_c, 1, 56, 0
4, 22320, Note_on_c, 1, 40, 83
4, 22321, Note_on_c, 1, 47, 81
4, 22322, Note_on_c, 1, 59, 0
4, 22322, Note_on_c, 1, 52, 79
4, 22323, Note_on_c, 1, 64, 0
4, 22323, Note_on_c, 1, 56, 77
4, 22325, Note_on_c, 1, 59, 75
4, 22326, Note_on_c, 1, 64, 73
4, 22397, Note_on_c, 1, 40, 0
4, 22398, Note_on_c, 1, 47, 0
4, 22399, Note_on_c, 1, 52, 0
4, 22400, Note_on_c, 1, 56, 0
4, 22400, Note_on_c, 1, 40, 83
4, 22401, Note_on_c, 1, 47, 81
4, 22402, Note_on_c, 1, 59, 0
4, 22402, Note_on_c, 1, 52, 79
4, 22403, Note_on_c, 1, 64, 0
4, 22403, Note_on_c, 1, 56, 77
4, 22405, Note_on_c, 1, 59, 75
4, 22406, Note_on_c, 1, 64, 73
4, 22437, Note_on_c, 1, 40, 0
4, 22438, Note_on_c, 1, 47, 0
4, 22439, Note_on_c, 1, 52, 0
4, 22440, Note_on_c, 1, 56, 0
4, 22440, Note_on_c, 1, 40, 83
4, 22441, Note_on_c, 1, 47, 81
4, 22442, Note_on_c, 1, 59, 0
4, 22442, Note_on_c, 1, 52, 79
4, 22443, Note_on_c, 1, 64, 0
4, 22443, Note_on_c, 1, 56, 77
4, 22445, Note_on_c, 1, 59, 75
4, 22446, Note_on_c, 1, 64, 73
4, 22557, Note_on_c, 1, 40, 0
4, 22558, Note_on_c, 1, 47, 0
4, 22559, Note_on_c, 1, 52, 0
4, 22560, Note_on_c, 1, 56, 0
4, 22560, Note_on_c, 1, 43, 83
4, 22561, Note_on_c, 1, 47, 81
4, 22562, Note_on_c, 1, 59, 0
4, 22562, Note_on_c, 1, 50, 79
4, 22563, Note_on_c, 1, 64, 0
4, 22563, Note_on_c, 1, 55, 77
4, 22565, Note_on_c, 1, 59, 75
4, 22566, Note_on_c, 1, 67, 73
4, 22677, Note_on_c, 1, 43, 0
4, 22678, Note_on_c, 1, 47, 0
4, 22679, Note_on_c, 1, 50, 0
4, 22680, Note_on_c, 1, 55, 0
4, 22680, Note_on_c, 1, 43, 83
4, 22681, Note_on_c, 1, 47, 81
4, 22682, Note_on_c, 1, 59, 0
4, 22682, Note_on_c, 1, 50, 79
4, 22683, Note_on_c, 1, 67, 0
4, 22683, Note_on_c, 1, 55, 77
4, 22685, Note_on_c, 1, 59, 75
4, 22686, Note_on_c, 1, 67, 73
4, 22797, Note_on_c, 1, 43, 0
4, 22798, Note_on_c, 1, 47, 0
4, 22799, Note_on_c, 1, 50, 0
4, 22800, Note_on_c, 1, 55, 0
4, 22800, Note_on_c, 1, 43, 83
4, 22801, Note_on_c, 1, 47, 81
4, 22802, Note_on_c, 1, 59, 0
4, 22802, Note_on_c, 1, 50, 79
4, 22803, Note_on_c, 1, 67, 0
4, 22803, Note_on_c, 1, 55, 77
4, 22805, Note_on_c, 1, 59, 75
4, 22806, Note_on_c, 1, 67, 73
4, 22877, Note_on_c, 1, 43, 0
4, 22878, Note_on_c, 1, 47, 0
4, 22879, Note_on_c, 1, 50, 0
4, 22880, Note_on_c, 1, 55, 0
4, 22880, Note_on_c, 1, 43, 83
4, 22881, Note_on_c, 1, 47, 81
4, 22882, Note_on_c, 1, 59, 0
4, 22882, Note_on_c, 1, 50, 79
4, 22883, Note_on_c, 1, 67, 0
4, 22883, Note_on_c, 1, 55, 77
4, 22885, Note_on_c, 1, 59, 75
4, 22886, Note_on_c, 1, 67, 73
4, 22917, Note_on_c, 1, 43, 0
4, 22918, Note_on_c, 1, 47, 0
4, 22919, Note_on_c, 1, 50, 0
4, 22920, Note_on_c, 1, 55, 0
4, 22920, Note_on_c, 1, 43, 83
4, 22921, Note_on_c, 1, 47, 81
4, 22922, Note_on_c, 1, 59, 0
4, 22922, Note_on_c, 1, 50, 79
4, 22923, Note_on_c, 1, 67, 0
4, 22923, Note_on_c, 1, 55, 77
4, 22925, Note_on_c, 1, 59, 75
4, 22926, Note_on_c, 1, 67, 73
4, 23037, Note_on_c, 1, 43, 0
4, 23038, Note_on_c, 1, 47, 0
4, 23039, Note_on_c, 1, 50, 0
4, 23040, Note_on_c, 1, 55, 0
4, 23040, Note_on_c, 1, 45, 83
4, 23041, Note_on_c, 1, 50, 81
4, 23042, Note_on_c, 1, 59, 0
4, 23042, Note_on_c, 1, 57, 79
4, 23043, Note_on_c, 1, 67, 0
4, 23043, Note_on_c, 1, 62, 77
4, 23045, Note_on_c, 1, 66, 75
4, 23157, Note_on_c, 1, 45, 0
4, 23158, Note_on_c, 1, 50, 0
4, 23159, Note_on_c, 1, 57, 0
4, 23160, Note_on_c, 1, 62, 0
4, 23160, Note_on_c, 1, 45, 83
4, 23161, Note_on_c, 1, 50, 81
4, 23162, Note_on_c, 1, 66, 0
4, 23162, Note_on_c, 1, 57, 79
4, 23163, Note_on_c, 1, 62, 77
4, 23165, Note_on_c, 1, 66, 75
4, 23277, Note_on_c, 1, 45, 0
4, 23278, Note_on_c, 1, 50, 0
4, 23279, Note_on_c, 1, 57, 0
4, 23280, Note_on_c, 1, 62, 0
4, 23280, Note_on_c, 1, 45, 83
4, 23281, Note_on_c, 1, 50, 81
4, 23282, Note_on_c, 1, 66, 0
4, 23282, Note_on_c, 1, 57, 79
4, 23283, Note_on_c, 1, 62, 77
4, 23285, Note_on_c, 1, 66, 75
4, 23357, Note_on_c, 1, 45, 0
4, 23358, Note_on_c, 1, 50, 0
4, 23359, Note_on_c, 1, 57, 0
4, 23360, Note_on_c, 1, 62, 0
4, 23360, Note_on_c, 1, 45, 83
4, 23361, Note_on_c, 1, 50, 81
4, 23362, Note_on_c, 1, 66, 0
4, 23362, Note_on_c, 1, 57, 79
4, 23363, Note_on_c, 1, 62, 77
4, 23365, Note_on_c, 1, 66, 75
4, 23397, Note_on_c, 1, 45, 0
4, 23398, Note_on_c, 1, 50, 0
4, 23399, Note_on_c, 1, 57, 0
4, 23400, Note_on_c, 1, 62, 0
4, 23400, Note_on_c, 1, 45, 83
4, 23401, Note_on_c, 1, 50, 81
4, 23402, Note_on_c, 1, 66, 0
4, 23402, Note_on_c, 1, 57, 79
4, 23403, Note_on_c, 1, 62, 77
4, 23405, Note_on_c, 1, 66, 75
4, 23517, Note_on_c, 1, 45, 0
4, 23518, Note_on_c, 1, 50, 0
4, 23519, Note_on_c, 1, 57, 0
4, 23520, Note_on_c, 1, 62, 0
4, 23520, Note_on_c, 1, 45, 83
4, 23521, Note_on_c, 1, 50, 81
4, 23522, Note_on_c, 1, 66, 0
4, 23522, Note_on_c, 1, 57, 79
4, 23523, Note_on_c, 1, 62, 77
4, 23525, Note_on_c, 1, 66, 75
4, 23637, Note_on_c, 1, 45, 0
4, 23638, Note_on_c, 1, 50, 0
4, 23639, Note_on_c, 1, 57, 0
4, 23640, Note_on_c, 1, 62, 0
4, 23640, Note_on_c, 1, 45, 83
4, 23641, Note_on_c, 1, 50, 81
4, 23642, Note_on_c, 1, 66, 0
4, 23642, Note_on_c, 1, 57, 79
4, 23643, Note_on_c, 1, 62, 77
4, 23645, Note_on_c, 1, 66, 75
4, 23757, Note_on_c, 1, 45, 0
4, 23758, Note_on_c, 1, 50, 0
4, 23759, Note_on_c, 1, 57, 0
4, 23760, Note_on_c, 1, 62, 0
4, 23760, Note_on_c, 1, 45, 83
4, 23761, Note_on_c, 1, 50, 81
4, 23762, Note_on_c, 1, 66, 0
4, 23762, Note_on_c, 1, 57, 79
4, 23763, Note_on_c, 1, 62, 77
4, 23765, Note_on_c, 1, 66, 75
4, 23837, Note_on_c, 1, 45, 0
4, 23838, Note_on_c, 1, 50, 0
4, 23839, Note_on_c, 1, 57, 0
4, 23840, Note_on_c, 1, 62, 0
4, 23840, Note_on_c, 1, 45, 83
4, 23841, Note_on_c, 1, 50, 81
4, 23842, Note_on_c, 1, 66, 0
4, 23842, Note_on_c, 1, 57, 79
4, 23843, Note_on_c, 1, 62, 77
4, 23845, Note_on_c, 1, 66, 75
4, 23877, Note_on_c, 1, 45, 0
4, 23878, Note_on_c, 1, 50, 0
4, 23879, Note_on_c, 1, 57, 0
4, 23880, Note_on_c, 1, 62, 0
4, 23880, Note_on_c, 1, 45, 83
4, 23881, Note_on_c, 1, 50, 81
4, 23882, Note_on_c, 1, 66, 0
4, 23882, Note_on_c, 1, 57, 79
4, 23883, Note_on_c, 1, 62, 77
4, 23885, Note_on_c, 1, 66, 75
4, 23997, Note_on_c, 1, 45, 0
4, 23998, Note_on_c, 1, 50, 0
4, 23999, Note_on_c, 1, 57, 0
4, 24000, Note_on_c, 1, 62, 0
4, 24000, Note_on_c, 1, 40, 83
4, 24001, Note_on_c, 1, 47, 81
4, 24002, Note_on_c, 1, 66, 0
4, 24002, Note_on_c, 1, 52, 79
4, 24003, Note_on_c, 1, 56, 77
4, 24005, Note_on_c, 1, 59, 75
4, 24006, Note_on_c, 1, 64, 73
4, 24117, Note_on_c, 1, 40, 0
4, 24118, Note_on_c, 1, 47, 0
4, 24119, Note_on_c, 1, 52, 0
4, 24120, Note_on_c, 1, 56, 0
4, 24120, Note_on_c, 1, 40, 83
4, 24121, Note_on_c, 1, 47, 81
4, 24122, Note_on_c, 1, 59, 0
4, 24122, Note_on_c, 1, 52, 79
4, 24123, Note_on_c, 1, 64, 0
4, 24123, Note_on_c, 1, 56, 77
4, 24125, Note_on_c, 1, 59, 75
4, 24126, Note_on_c, 1, 64, 73
4, 24237, Note_on_c, 1, 40, 0
4, 24238, Note_on_c, 1, 47, 0
4, 24239, Note_on_c, 1, 52, 0
4, 24240, Note_on_c, 1, 56, 0
4, 24240, Note_on_c, 1, 40, 83
4, 24241, Note_on_c, 1, 47, 81
4, 24242, Note_on_c, 1, 59, 0
4, 24242, Note_on_c, 1, 52, 79
4, 24243, Note_on_c, 1, 64, 0
4, 24243, Note_on_c, 1, 56, 77
4, 24245, Note_on_c, 1, 59, 75
4, 24246, Note_on_c, 1, 64, 73
4, 24317, Note_on_c, 1, 40, 0
4, 24318, Note_on_c, 1, 47, 0
4, 24319, Note_on_c, 1, 52, 0
4, 24320, Note_on_c, 1, 56, 0
4, 24320, Note_on_c, 1, 40, 83
4, 24321, Note_on_c, 1, 47, 81
4, 24322, Note_on_c, 1, 59, 0
4, 24322, Note_on_c, 1, 52, 79
4, 24323, Note_on_c, 1, 64, 0
4, 24323, Note_on_c, 1, 56, 77
4, 24325, Note_on_c, 1, 59, 75
4, 24326, Note_on_c, 1, 64, 73
4, 24357, Note_on_c, 1, 40, 0
4, 24358, Note_on_c, 1, 47, 0
4, 24359, Note_on_c, 1, 52, 0
4, 24360, Note_on_c, 1, 56, 0
4, 24360, Note_on_c, 1, 40, 83
4, 24361, Note_on_c, 1, 47, 81
4, 24362, Note_on_c, 1, 59, 0
4, 24362, Note_on_c, 1, 52, 79
4, 24363, Note_on_c, 1, 64, 0
4, 24363, Note_on_c, 1, 56, 77
4, 24365, Note_on_c, 1, 59, 75
4, 24366, Note_on_c, 1, 64, 73
4, 24477, Note_on_c, 1, 40, 0
4, 24478, Note_on_c, 1, 47, 0
4, 24479, Note_on_c, 1, 52, 0
4, 24480, Note_on_c, 1, 56, 0
4, 24480, Note_on_c, 1, 43, 83
4, 24481, Note_on_c, 1, 47, 81
4, 24482, Note_on_c, 1, 59, 0
4, 24482, Note_on_c, 1, 50, 79
4, 24483, Note_on_c, 1, 64, 0
4, 24483, Note_on_c, 1, 55, 77
4, 24485, Note_on_c, 1, 59, 75
4, 24486, Note_on_c, 1, 67, 73
4, 24597, Note_on_c, 1, 43, 0
4, 24598, Note_on_c, 1, 47, 0
4, 24599, Note_on_c, 1, 50, 0
4, 24600, Note_on_c, 1, 55, 0
4, 24600, Note_on_c, 1, 43, 83
4, 24601, Note_on_c, 1, 47, 81
4, 24602, Note_on_c, 1, 59, 0
4, 24602, Note_on_c, 1, 50, 79
4, 24603, Note_on_c, 1, 67, 0
4, 24603, Note_on_c, 1, 55, 77
4, 24605, Note_on_c, 1, 59, 75
4, 24606, Note_on_c, 1, 67, 73
4, 24717, Note_on_c, 1, 43, 0
4, 24718, Note_on_c, 1, 47, 0
4, 24719, Note_on_c, 1, 50, 0
4, 24720, Note_on_c, 1, 55, 0
4, 24720, Note_on_c, 1, 43, 83
4, 24721, Note_on_c, 1, 47, 81
4, 24722, Note_on_c, 1, 59, 0
4, 24722, Note_on_c, 1, 50, 79
4, 24723, Note_on_c, 1, 67, 0
4, 24723, Note_on_c, 1, 55, 77
4, 24725, Note_on_c, 1, 59, 75
4, 24726, Note_on_c, 1, 67, 73
4, 24797, Note_on_c, 1, 43, 0
4, 24798, Note_on_c, 1, 47, 0
4, 24799, Note_on_c, 1, 50, 0
4, 24800, Note_on_c, 1, 55, 0
4, 24800, Note_on_c, 1, 43, 83
4, 24801, Note_on_c, 1, 47, 81
4, 24802, Note_on_c, 1, 59, 0
4, 24802, Note_on_c, 1, 50, 79
4, 24803, Note_on_c, 1, 67, 0
4, 24803, Note_on_c, 1, 55, 77
4, 24805, Note_on_c, 1, 59, 75
4, 24806, Note_on_c, 1, 67, 73
4, 24837, Note_on_c, 1, 43, 0
4, 24838, Note_on_c, 1, 47, 0
4, 24839, Note_on_c, 1, 50, 0
4, 24840, Note_on_c, 1, 55, 0
4, 24840, Note_on_c, 1, 43, 83
4, 24841, Note_on_c, 1, 47, 81
4, 24842, Note_on_c, 1, 59, 0
4, 24842, Note_on_c, 1, 50, 79
4, 24843, Note_on_c, 1, 67, 0
4, 24843, Note_on_c, 1, 55, 77
4, 24845, Note_on_c, 1, 59, 75
4, 24846, Note_on_c, 1, 67, 73
4, 24957, Note_on_c, 1, 43, 0
4, 24958, Note_on_c, 1, 47, 0
4, 24959, Note_on_c, 1, 50, 0
4, 24960, Note_on_c, 1, 55, 0
4, 24960, Note_on_c, 1, 45, 83
4, 24961, Note_on_c, 1, 50, 81
4, 24962, Note_on_c, 1, 59, 0
4, 24962, Note_on_c, 1, 57, 79
4, 24963, Note_on_c, 1, 67, 0
4, 24963, Note_on_c, 1, 62, 77
4, 24965, Note_on_c, 1, 66, 75
4, 25077, Note_on_c, 1, 45, 0
4, 25078, Note_on_c, 1, 50, 0
4, 25079, Note_on_c, 1, 57, 0
4, 25080, Note_on_c, 1, 62, 0
4, 25080, Note_on_c, 1, 45, 83
4, 25081, Note_on_c, 1, 50, 81
4, 25082, Note_on_c, 1, 66, 0
4, 25082, Note_on_c, 1, 57, 79
4, 25083, Note_on_c, 1, 62, 77
4, 25085, Note_on_c, 1, 66, 75
4, 25197, Note_on_c, 1, 45, 0
4, 25198, Note_on_c, 1, 50, 0
4, 25199, Note_on_c, 1, 57, 0
4, 25200, Note_on_c, 1, 62, 0
4, 25200, Note_on_c, 1, 45, 83
4, 25201, Note_on_c, 1, 50, 81
4, 25202, Note_on_c, 1, 66, 0
4, 25202, Note_on_c, 1, 57, 79
4, 25203, Note_on_c, 1, 62, 77
4, 25205, Note_on_c, 1, 66, 75
4, 25277, Note_on_c, 1, 45, 0
4, 25278, Note_on_c, 1, 50, 0
4, 25279, Note_on_c, 1, 57, 0
4, 25280, Note_on_c, 1, 62, 0
4, 25280, Note_on_c, 1, 45, 83
4, 25281, Note_on_c, 1, 50, 81
4, 25282, Note_on_c, 1, 66, 0
4, 25282, Note_on_c, 1, 57, 79
4, 25283, Note_on_c, 1, 62, 77
4, 25285, Note_on_c, 1, 66, 75
4, 25317, Note_on_c, 1, 45, 0
4, 25318, Note_on_c, 1, 50, 0
4, 25319, Note_on_c, 1, 57, 0
4, 25320, Note_on_c, 1, 62, 0
4, 25320, Note_on_c, 1, 45, 83
4, 25321, Note_on_c, 1, 50, 81
4, 25322, Note_on_c, 1, 66, 0
4, 25322, Note_on_c, 1, 57, 79
4, 25323, Note_on_c, 1, 62, 77
4, 25325, Note_on_c, 1, 66, 75
4, 25437, Note_on_c, 1, 45, 0
4, 25438, Note_on_c, 1, 50, 0
4, 25439, Note_on_c, 1, 57, 0
4, 25440, Note_on_c, 1, 62, 0
4, 25440, Note_on_c, 1, 47, 81
4, 25441, Note_on_c, 1, 54, 80
4, 25442, Note_on_c, 1, 66, 0
4, 25442, Note_on_c, 1, 59, 79
4, 25443, Note_on_c, 1, 62, 78
4, 25445, Note_on_c, 1, 66, 77
4, 25557, Note_on_c, 1, 47, 0
4, 25558, Note_on_c, 1, 54, 0
4, 25559, Note_on_c, 1, 59, 0
4, 25560, Note_on_c, 1, 62, 0
4, 25560, Note_on_c, 1, 47, 81
4, 25561, Note_on_c, 1, 54, 80
4, 25562, Note_on_c, 1, 66, 0
4, 25562, Note_on_c, 1, 59, 79
4, 25563, Note_on_c, 1, 62, 78
4, 25565, Note_on_c, 1, 66, 77
4, 25637, Note_on_c, 1, 47, 0
4, 25638, Note_on_c, 1, 54, 0
4, 25639, Note_on_c, 1, 59, 0
4, 25640, Note_on_c, 1, 62, 0
4, 25640, Note_on_c, 1, 47, 81
4, 25641, Note_on_c, 1, 54, 80
4, 25642, Note_on_c, 1, 66, 0
4, 25642, Note_on_c, 1, 59, 79
4, 25643, Note_on_c, 1, 62, 78
4, 25645, Note_on_c, 1, 66, 77
4, 25757, Note_on_c, 1, 47, 0
4, 25758, Note_on_c, 1, 54, 0
4, 25759, Note_on_c, 1, 59, 0
4, 25760, Note_on_c, 1, 62, 0
4, 25760, Note_on_c, 1, 47, 81
4, 25761, Note_on_c, 1, 54, 80
4, 25762, Note_on_c, 1, 66, 0
4, 25762, Note_on_c, 1, 59, 79
4, 25763, Note_on_c, 1, 62, 78
4, 25765, Note_on_c, 1, 66, 77
4, 25797, Note_on_c, 1, 47, 0
4, 25798, Note_on_c, 1, 54, 0
4, 25799, Note_on_c, 1, 59, 0
4, 25800, Note_on_c, 1, 62, 0
4, 25800, Note_on_c, 1, 47, 81
4, 25801, Note_on_c, 1, 54, 80
4, 25802, Note_on_c, 1, 66, 0
4, 25802, Note_on_c, 1, 59, 79
4, 25803, Note_on_c, 1, 62, 78
4, 25805, Note_on_c, 1, 66, 77
4, 25917, Note_on_c, 1, 47, 0
4, 25918, Note_on_c, 1, 54, 0
4, 25919, Note_on_c, 1, 59, 0
4, 25920, Note_on_c, 1, 62, 0
4, 25920, Note_on_c, 1, 43, 81
4, 25921, Note_on_c, 1, 47, 80
4, 25922, Note_on_c, 1, 66, 0
4, 25922, Note_on_c, 1, 50, 79
4, 25923, Note_on_c, 1, 55, 78
4, 25925, Note_on_c, 1, 59, 77
4, 25926, Note_on_c, 1, 64, 76
4, 26037, Note_on_c, 1, 43, 0
4, 26038, Note_on_c, 1, 47, 0
4, 26039, Note_on_c, 1, 50, 0
4, 26040, Note_on_c, 1, 55, 0
4, 26040, Note_on_c, 1, 43, 81
4, 26041, Note_on_c, 1, 47, 80
4, 26042, Note_on_c, 1, 59, 0
4, 26042, Note_on_c, 1, 50, 79
4, 26043, Note_on_c, 1, 64, 0
4, 26043, Note_on_c, 1, 55, 78
4, 26045, Note_on_c, 1, 59, 77
4, 26046, Note_on_c, 1, 64, 76
4, 26117, Note_on_c, 1, 43, 0
4, 26118, Note_on_c, 1, 47, 0
4, 26119, Note_on_c, 1, 50, 0
4, 26120, Note_on_c, 1, 55, 0
4, 26120, Note_on_c, 1, 43, 81
4, 26121, Note_on_c, 1, 47, 80
4, 26122, Note_on_c, 1, 59, 0
4, 26122, Note_on_c, 1, 50, 79
4, 26123, Note_on_c, 1, 64, 0
4, 26123, Note_on_c, 1, 55, 78
4, 26125, Note_on_c, 1, 59, 77
4, 26126, Note_on_c, 1, 64, 76
4, 26237, Note_on_c, 1, 43, 0
4, 26238, Note_on_c, 1, 47, 0
4, 26239, Note_on_c, 1, 50, 0
4, 26240, Note_on_c, 1, 55, 0
4, 26240, Note_on_c, 1, 43, 81
4, 26241, Note_on_c, 1, 47, 80
4, 26242, Note_on_c, 1, 59, 0
4, 26242, Note_on_c, 1, 50, 79
4, 26243, Note_on_c, 1, 64, 0
4, 26243, Note_on_c, 1, 55, 78
4, 26245, Note_on_c, 1, 59, 77
4, 26246, Note_on_c, 1, 64, 76
4, 26277, Note_on_c, 1, 43, 0
4, 26278, Note_on_c, 1, 47, 0
4, 26279, Note_on_c, 1, 50, 0
4, 26280, Note_on_c, 1, 55, 0
4, 26280, Note_on_c, 1, 43, 81
4, 26281, Note_on_c, 1, 47, 80
4, 26282, Note_on_c, 1, 59, 0
4, 26282, Note_on_c, 1, 50, 79
4, 26283, Note_on_c, 1, 64, 0
4, 26283, Note_on_c, 1, 55, 78
4, 26285, Note_on_c, 1, 59, 77
4, 26286, Note_on_c, 1, 64, 76
4, 26397, Note_on_c, 1, 43, 0
4, 26398, Note_on_c, 1, 47, 0
4, 26399, Note_on_c, 1, 50, 0
4, 26400, Note_on_c, 1, 55, 0
4, 26400, Note_on_c, 1, 47, 81
4, 26401, Note_on_c, 1, 54, 80
4, 26402, Note_on_c, 1, 59, 0
4, 26402, Note_on_c, 1, 59, 79
4, 26403, Note_on_c, 1, 64, 0
4, 26403, Note_on_c, 1, 62, 78
4, 26405, Note_on_c, 1, 66, 77
4, 26517, Note_on_c, 1, 47, 0
4, 26518, Note_on_c, 1, 54, 0
4, 26519, Note_on_c, 1, 59, 0
4, 26520, Note_on_c, 1, 62, 0
4, 26520, Note_on_c, 1, 47, 81
4, 26521, Note_on_c, 1, 54, 80
4, 26522, Note_on_c, 1, 66, 0
4, 26522, Note_on_c, 1, 59, 79
4, 26523, Note_on_c, 1, 62, 78
4, 26525, Note_on_c, 1, 66, 77
4, 26597, Note_on_c, 1, 47, 0
4, 26598, Note_on_c, 1, 54, 0
4, 26599, Note_on_c, 1, 59, 0
4, 26600, Note_on_c, 1, 62, 0
4, 26600, Note_on_c, 1, 47, 81
4, 26601, Note_on_c, 1, 54, 80
4, 26602, Note_on_c, 1, 66, 0
4, 26602, Note_on_c, 1, 59, 79
4, 26603, Note_on_c, 1, 62, 78
4, 26605, Note_on_c, 1, 66, 77
4, 26717, Note_on_c, 1, 47, 0
4, 26718, Note_on_c, 1, 54, 0
4, 26719, Note_on_c, 1, 59, 0
4, 26720, Note_on_c, 1, 62, 0
4, 26720, Note_on_c, 1, 47, 81
4, 26721, Note_on_c, 1, 54, 80
4, 26722, Note_on_c, 1, 66, 0
4, 26722, Note_on_c, 1, 59, 79
4, 26723, Note_on_c, 1, 62, 78
4, 26725, Note_on_c, 1, 66, 77
4, 26757, Note_on_c, 1, 47, 0
4, 26758, Note_on_c, 1, 54, 0
4, 26759, Note_on_c, 1, 59, 0
4, 26760, Note_on_c, 1, 62, 0
4, 26760, Note_on_c, 1, 47, 81
4, 26761, Note_on_c, 1, 54, 80
4, 26762, Note_on_c, 1, 66, 0
4, 26762, Note_on_c, 1, 59, 79
4, 26763, Note_on_c, 1, 62, 78
4, 26765, Note_on_c, 1, 66, 77
4, 26877, Note_on_c, 1, 47, 0
4, 26878, Note_on_c, 1, 54, 0
4, 26879, Note_on_c, 1, 59, 0
4, 26880, Note_on_c, 1, 62, 0
4, 26880, Note_on_c, 1, 40, 81
4, 26881, Note_on_c, 1, 47, 80
4, 26882, Note_on_c, 1, 66, 0
4, 26882, Note_on_c, 1, 52, 79
4, 26883, Note_on_c, 1, 56, 78
4, 26885, Note_on_c, 1, 59, 77
4, 26886, Note_on_c, 1, 64, 76
4, 26997, Note_on_c, 1, 40, 0
4, 26998, Note_on_c, 1, 47, 0
4, 26999, Note_on_c, 1, 52, 0
4, 27000, Note_on_c, 1, 56, 0
4, 27000, Note_on_c, 1, 40, 81
4, 27001, Note_on_c, 1, 47, 80
4, 27002, Note_on_c, 1, 59, 0
4, 27002, Note_on_c, 1, 52, 79
4, 27003, Note_on_c, 1, 64, 0
4, 27003, Note_on_c, 1, 56, 78
4, 27005, Note_on_c, 1, 59, 77
4, 27006, Note_on_c, 1, 64, 76
4, 27077, Note_on_c, 1, 40, 0
4, 27078, Note_on_c, 1, 47, 0
4, 27079, Note_on_c, 1, 52, 0
4, 27080, Note_on_c, 1, 56, 0
4, 27080, Note_on_c, 1, 40, 81
4, 27081, Note_on_c, 1, 47, 80
4, 27082, Note_on_c, 1, 59, 0
4, 27082, Note_on_c, 1, 52, 79
4, 27083, Note_on_c, 1, 64, 0
4, 27083, Note_on_c, 1, 56, 78
4, 27085, Note_on_c, 1, 59, 77
4, 27086, Note_on_c, 1, 64, 76
4, 27197, Note_on_c, 1, 40, 0
4, 27198, Note_on_c, 1, 47, 0
4, 27199, Note_on_c, 1, 52, 0
4, 27200, Note_on_c, 1, 56, 0
4, 27200, Note_on_c, 1, 40, 81
4, 27201, Note_on_c, 1, 47, 80
4, 27202, Note_on_c, 1, 59, 0
4, 27202, Note_on_c, 1, 52, 79
4, 27203, Note_on_c, 1, 64, 0
4, 27203, Note_on_c, 1, 56, 78
4, 27205, Note_on_c, 1, 59, 77
4, 27206, Note_on_c, 1, 64, 76
4, 27237, Note_on_c, 1, 40, 0
4, 27238, Note_on_c, 1, 47, 0
4, 27239, Note_on_c, 1, 52, 0
4, 27240, Note_on_c, 1, 56, 0
4, 27240, Note_on_c, 1, 40, 81
4, 27241, Note_on_c, 1, 47, 80
4, 27242, Note_on_c, 1, 59, 0
4, 27242, Note_on_c, 1, 52, 79
4, 27243, Note_on_c, 1, 64, 0
4, 27243, Note_on_c, 1, 56, 78
4, 27245, Note_on_c, 1, 59, 77
4, 27246, Note_on_c, 1, 64, 76
4, 27357, Note_on_c, 1, 40, 0
4, 27358, Note_on_c, 1, 47, 0
4, 27359, Note_on_c, 1, 52, 0
4, 27360, Note_on_c, 1, 56, 0
4, 27360, Note_on_c, 1, 45, 83
4, 27361, Note_on_c, 1, 50, 81
4, 27362, Note_on_c, 1, 59, 0
4, 27362, Note_on_c, 1, 57, 79
4, 27363, Note_on_c, 1, 64, 0
4, 27363, Note_on_c, 1, 62, 77
4, 27365, Note_on_c, 1, 66, 75
4, 27477, Note_on_c, 1, 45, 0
4, 27478, Note_on_c, 1, 50, 0
4, 27479, Note_on_c, 1, 57, 0
4, 27480, Note_on_c, 1, 62, 0
4, 27480, Note_on_c, 1, 45, 83
4, 27481, Note_on_c, 1, 50, 81
4, 27482, Note_on_c, 1, 66, 0
4, 27482, Note_on_c, 1, 57, 79
4, 27483, Note_on_c, 1, 62, 77
4, 27485, Note_on_c, 1, 66, 75
4, 27597, Note_on_c, 1, 45, 0
4, 27598, Note_on_c, 1, 50, 0
4, 27599, Note_on_c, 1, 57, 0
4, 27600, Note_on_c, 1, 62, 0
4, 27600, Note_on_c, 1, 45, 83
4, 27601, Note_on_c, 1, 50, 81
4, 27602, Note_on_c, 1, 66, 0
4, 27602, Note_on_c, 1, 57, 79
4, 27603, Note_on_c, 1, 62, 77
4, 27605, Note_on_c, 1, 66, 75
4, 27677, Note_on_c, 1, 45, 0
4, 27678, Note_on_c, 1, 50, 0
4, 27679, Note_on_c, 1, 57, 0
4, 27680, Note_on_c, 1, 62, 0
4, 27680, Note_on_c, 1, 45, 83
4, 27681, Note_on_c, 1, 50, 81
4, 27682, Note_on_c, 1, 66, 0
4, 27682, Note_on_c, 1, 57, 79
4, 27683, Note_on_c, 1, 62, 77
4, 27685, Note_on_c, 1, 66, 75
4, 27717, Note_on_c, 1, 45, 0
4, 27718, Note_on_c, 1, 50, 0
4, 27719, Note_on_c, 1, 57, 0
4, 27720, Note_on_c, 1, 62, 0
4, 27720, Note_on_c, 1, 45, 83
4, 27721, Note_on_c, 1, 50, 81
4, 27722, Note_on_c, 1, 66, 0
4, 27722, Note_on_c, 1, 57, 79
4, 27723, Note_on_c, 1, 62, 77
4, 27725, Note_on_c, 1, 66, 75
4, 27837, Note_on_c, 1, 45, 0
4, 27838, Note_on_c, 1, 50, 0
4, 27839, Note_on_c, 1, 57, 0
4, 27840, Note_on_c, 1, 62, 0
4, 27840, Note_on_c, 1, 40, 83
4, 27841, Note_on_c, 1, 47, 81
4, 27842, Note_on_c, 1, 66, 0
4, 27842, Note_on_c, 1, 52, 79
4, 27843, Note_on_c, 1, 56, 77
4, 27845, Note_on_c, 1, 59, 75
4, 27846, Note_on_c, 1, 64, 73
4, 27957, Note_on_c, 1, 40, 0
4, 27958, Note_on_c, 1, 47, 0
4, 27959, Note_on_c, 1, 52, 0
4, 27960, Note_on_c, 1, 56, 0
4, 27960, Note_on_c, 1, 40, 83
4, 27961, Note_on_c, 1, 47, 81
4, 27962, Note_on_c, 1, 59, 0
4, 27962, Note_on_c, 1, 52, 79
4, 27963, Note_on_c, 1, 64, 0
4, 27963, Note_on_c, 1, 56, 77
4, 27965, Note_on_c, 1, 59, 75
4, 27966, Note_on_c, 1, 64, 73
4, 28077, Note_on_c, 1, 40, 0
4, 28078, Note_on_c, 1, 47, 0
4, 28079, Note_on_c, 1, 52, 0
4, 28080, Note_on_c, 1, 56, 0
4, 28080, Note_on_c, 1, 40, 83
4, 28081, Note_on_c, 1, 47, 81
4, 28082, Note_on_c, 1, 59, 0
4, 28082, Note_on_c, 1, 52, 79
4, 28083, Note_on_c, 1, 64, 0
4, 28083, Note_on_c, 1, 56, 77
4, 28085, Note_on_c, 1, 59, 75
4, 28086, Note_on_c, 1, 64, 73
4, 28157, Note_on_c, 1, 40, 0
4, 28158, Note_on_c, 1, 47, 0
4, 28159, Note_on_c, 1, 52, 0
4, 28160, Note_on_c, 1, 56, 0
4, 28160, Note_on_c, 1, 40, 83
4, 28161, Note_on_c, 1, 47, 81
4, 28162, Note_on_c, 1, 59, 0
4, 28162, Note_on_c, 1, 52, 79
4, 28163, Note_on_c, 1, 64, 0
4, 28163, Note_on_c, 1, 56, 77
4, 28165, Note_on_c, 1, 59, 75
4, 28166, Note_on_c, 1, 64, 73
4, 28197, Note_on_c, 1, 40, 0
4, 28198, Note_on_c, 1, 47, 0
4, 28199, Note_on_c, 1, 52, 0
4, 28200, Note_on_c, 1, 56, 0
4, 28200, Note_on_c, 1, 40, 83
4, 28201, Note_on_c, 1, 47, 81
4, 28202, Note_on_c, 1, 59, 0
4, 28202, Note_on_c, 1, 52, 79
4, 28203, Note_on_c, 1, 64, 0
4, 28203, Note_on_c, 1, 56, 77
4, 28205, Note_on_c, 1, 59, 75
4, 28206, Note_on_c, 1, 64, 73
4, 28317, Note_on_c, 1, 40, 0
4, 28318, Note_on_c, 1, 47, 0
4, 28319, Note_on_c, 1, 52, 0
4, 28320, Note_on_c, 1, 56, 0
4, 28320, Note_on_c, 1, 43, 83
4, 28321, Note_on_c, 1, 47, 81
4, 28322, Note_on_c, 1, 59, 0
4, 28322, Note_on_c, 1, 50, 79
4, 28323, Note_on_c, 1, 64, 0
4, 28323, Note_on_c, 1, 55, 77
4, 28325, Note_on_c, 1, 59, 75
4, 28326, Note_on_c, 1, 67, 73
4, 28437, Note_on_c, 1, 43, 0
4, 28438, Note_on_c, 1, 47, 0
4, 28439, Note_on_c, 1, 50, 0
4, 28440, Note_on_c, 1, 55, 0
4, 28440, Note_on_c, 1, 43, 83
4, 28441, Note_on_c, 1, 47, 81
4, 28442, Note_on_c, 1, 59, 0
4, 28442, Note_on_c, 1, 50, 79
4, 28443, Note_on_c, 1, 67, 0
4, 28443, Note_on_c, 1, 55, 77
4, 28445, Note_on_c, 1, 59, 75
4, 28446, Note_on_c, 1, 67, 73
4, 28557, Note_on_c, 1, 43, 0
4, 28558, Note_on_c, 1, 47, 0
4, 28559, Note_on_c, 1, 50, 0
4, 28560, Note_on_c, 1, 55, 0
4, 28560, Note_on_c, 1, 43, 83
4, 28561, Note_on_c, 1, 47, 81
4, 28562, Note_on_c, 1, 59, 0
4, 28562, Note_on_c, 1, 50, 79
4, 28563, Note_on_c, 1, 67, 0
4, 28563, Note_on_c, 1, 55, 77
4, 28565, Note_on_c, 1, 59, 75
4, 28566, Note_on_c, 1, 67, 73
4, 28637, Note_on_c, 1, 43, 0
4, 28638, Note_on_c, 1, 47, 0
4, 28639, Note_on_c, 1, 50, 0
4, 28640, Note_on_c, 1, 55, 0
4, 28640, Note_on_c, 1, 43, 83
4, 28641, Note_on_c, 1, 47, 81
4, 28642, Note_on_c, 1, 59, 0
4, 28642, Note_on_c, 1, 50, 79
4, 28643, Note_on_c, 1, 67, 0
4, 28643, Note_on_c, 1, 55, 77
4, 28645, Note_on_c, 1, 59, 75
4, 28646, Note_on_c, 1, 67, 73
4, 28677, Note_on_c, 1, 43, 0
4, 28678, Note_on_c, 1, 47, 0
4, 28679, Note_on_c, 1, 50, 0
4, 28680, Note_on_c, 1, 55, 0
4, 28680, Note_on_c, 1, 43, 83
4, 28681, Note_on_c, 1, 47, 81
4, 28682, Note_on_c, 1, 59, 0
4, 28682, Note_on_c, 1, 50, 79
4, 28683, Note_on_c, 1, 67, 0
4, 28683, Note_on_c, 1, 55, 77
4, 28685, Note_on_c, 1, 59, 75
4, 28686, Note_on_c, 1, 67, 73
4, 28797, Note_on_c, 1, 43, 0
4, 28798, Note_on_c, 1, 47, 0
4, 28799, Note_on_c, 1, 50, 0
4, 28800, Note_on_c, 1, 55, 0
4, 28800, Note_on_c, 1, 45, 83
4, 28801, Note_on_c, 1, 50, 81
4, 28802, Note_on_c, 1, 59, 0
4, 28802, Note_on_c, 1, 57, 79
4, 28803, Note_on_c, 1, 67, 0
4, 28803, Note_on_c, 1, 62, 77
4, 28805, Note_on_c, 1, 66, 75
4, 28917, Note_on_c, 1, 45, 0
4, 28918, Note_on_c, 1, 50, 0
4, 28919, Note_on_c, 1, 57, 0
4, 28920, Note_on_c, 1, 62, 0
4, 28920, Note_on_c, 1, 45, 83
4, 28921, Note_on_c, 1, 50, 81
4, 28922, Note_on_c, 1, 66, 0
4, 28922, Note_on_c, 1, 57, 79
4, 28923, Note_on_c, 1, 62, 77
4, 28925, Note_on_c, 1, 66, 75
4, 29037, Note_on_c, 1, 45, 0
4, 29038, Note_on_c, 1, 50, 0
4, 29039, Note_on_c, 1, 57, 0
4, 29040, Note_on_c, 1, 62, 0
4, 29040, Note_on_c, 1, 45, 83
4, 29041, Note_on_c, 1, 50, 81
4, 29042, Note_on_c, 1, 66, 0
4, 29042, Note_on_c, 1, 57, 79
4, 29043, Note_on_c, 1, 62, 77
4, 29045, Note_on_c, 1, 66, 75
4, 29117, Note_on_c, 1, 45, 0
4, 29118, Note_on_c, 1, 50, 0
4, 29119, Note_on_c, 1, 57, 0
4, 29120, Note_on_c, 1, 62, 0
4, 29120, Note_on_c, 1, 45, 83
4, 29121, Note_on_c, 1, 50, 81
4, 29122, Note_on_c, 1, 66, 0
4, 29122, Note_on_c, 1, 57, 79
4, 29123, Note_on_c, 1, 62, 77
4, 29125, Note_on_c, 1, 66, 75
4, 29157, Note_on_c, 1, 45, 0
4, 29158, Note_on_c, 1, 50, 0
4, 29159, Note_on_c, 1, 57, 0
4, 29160, Note_on_c, 1, 62, 0
4, 29160, Note_on_c, 1, 45, 83
4, 29161, Note_on_c, 1, 50, 81
4, 29162, Note_on_c, 1, 66, 0
4, 29162, Note_on_c, 1, 57, 79
4, 29163, Note_on_c, 1, 62, 77
4, 29165, Note_on_c, 1, 66, 75
4, 29277, Note_on_c, 1, 45, 0
4, 29278, Note_on_c, 1, 50, 0
4, 29279, Note_on_c, 1, 57, 0
4, 29280, Note_on_c, 1, 62, 0
4, 29280, Note_on_c, 1, 40, 77
4, 29281, Note_on_c, 1, 45, 76
4, 29282, Note_on_c, 1, 66, 0
4, 29282, Note_on_c, 1, 52, 75
4, 29283, Note_on_c, 1, 57, 74
4, 29285, Note_on_c, 1, 61, 73
4, 29286, Note_on_c, 1, 64, 72
4, 29397, Note_on_c, 1, 40, 0
4, 29398, Note_on_c, 1, 45, 0
4, 29399, Note_on_c, 1, 52, 0
4, 29400, Note_on_c, 1, 57, 0
4, 29400, Note_on_c, 1, 40, 77
4, 29401, Note_on_c, 1, 45, 76
4, 29402, Note_on_c, 1, 61, 0
4, 29402, Note_on_c, 1, 52, 75
4, 29403, Note_on_c, 1, 64, 0
4, 29403, Note_on_c, 1, 57, 74
4, 29405, Note_on_c, 1, 61, 73
4, 29406, Note_on_c, 1, 64, 72
4, 29517, Note_on_c, 1, 40, 0
4, 29518, Note_on_c, 1, 45, 0
4, 29519, Note_on_c, 1, 52, 0
4, 29520, Note_on_c, 1, 57, 0
4, 29520, Note_on_c, 1, 40, 77
4, 29521, Note_on_c, 1, 45, 76
4, 29522, Note_on_c, 1, 61, 0
4, 29522, Note_on_c, 1, 52, 75
4, 29523, Note_on_c, 1, 64, 0
4, 29523, Note_on_c, 1, 57, 74
4, 29525, Note_on_c, 1, 61, 73
4, 29526, Note_on_c, 1, 64, 72
4, 29637, Note_on_c, 1, 40, 0
4, 29638, Note_on_c, 1, 45, 0
4, 29639, Note_on_c, 1, 52, 0
4, 29640, Note_on_c, 1, 57, 0
4, 29640, Note_on_c, 1, 40, 77
4, 29641, Note_on_c, 1, 45, 76
4, 29642, Note_on_c, 1, 61, 0
4, 29642, Note_on_c, 1, 52, 75
4, 29643, Note_on_c, 1, 64, 0
4, 29643, Note_on_c, 1, 57, 74
4, 29645, Note_on_c, 1, 61, 73
4, 29646, Note_on_c, 1, 64, 72
4, 29757, Note_on_c, 1, 40, 0
4, 29758, Note_on_c, 1, 45, 0
4, 29759, Note_on_c, 1, 52, 0
4, 29760, Note_on_c, 1, 57, 0
4, 29760, Note_on_c, 1, 40, 77
4, 29761, Note_on_c, 1, 45, 76
4, 29762, Note_on_c, 1, 61, 0
4, 29762, Note_on_c, 1, 52, 75
4, 29763, Note_on_c, 1, 64, 0
4, 29763, Note_on_c, 1, 57, 74
4, 29765, Note_on_c, 1, 61, 73
4, 29766, Note_on_c, 1, 64, 72
4, 29877, Note_on_c, 1, 40, 0
4, 29878, Note_on_c, 1, 45, 0
4, 29879, Note_on_c, 1, 52, 0
4, 29880, Note_on_c, 1, 57, 0
4, 29880, Note_on_c, 1, 40, 77
4, 29881, Note_on_c, 1, 45, 76
4, 29882, Note_on_c, 1, 61, 0
4, 29882, Note_on_c, 1, 52, 75
4, 29883, Note_on_c, 1, 64, 0
4, 29883, Note_on_c, 1, 57, 74
4, 29885, Note_on_c, 1, 61, 73
4, 29886, Note_on_c, 1, 64, 72
4, 29997, Note_on_c, 1, 40, 0
4, 29998, Note_on_c, 1, 45, 0
4, 29999, Note_on_c, 1, 52, 0
4, 30000, Note_on_c, 1, 57, 0
4, 30000, Note_on_c, 1, 40, 77
4, 30001, Note_on_c, 1, 45, 76
4, 30002, Note_on_c, 1, 61, 0
4, 30002, Note_on_c, 1, 52, 75
4, 30003, Note_on_c, 1, 64, 0
4, 30003, Note_on_c, 1, 57, 74
4, 30005, Note_on_c, 1, 61, 73
4, 30006, Note_on_c, 1, 64, 72
4, 30117, Note_on_c, 1, 40, 0
4, 30118, Note_on_c, 1, 45, 0
4, 30119, Note_on_c, 1, 52, 0
4, 30120, Note_on_c, 1, 57, 0
4, 30120, Note_on_c, 1, 40, 77
4, 30121, Note_on_c, 1, 45, 76
4, 30122, Note_on_c, 1, 61, 0
4, 30122, Note_on_c, 1, 52, 75
4, 30123, Note_on_c, 1, 64, 0
4, 30123, Note_on_c, 1, 57, 74
4, 30125, Note_on_c, 1, 61, 73
4, 30126, Note_on_c, 1, 64, 72
4, 30237, Note_on_c, 1, 40, 0
4, 30238, Note_on_c, 1, 45, 0
4, 30239, Note_on_c, 1, 52, 0
4, 30240, Note_on_c, 1, 57, 0
4, 30240, Note_on_c, 1, 47, 77
4, 30241, Note_on_c, 1, 54, 76
4, 30242, Note_on_c, 1, 61, 0
4, 30242, Note_on_c, 1, 59, 75
4, 30243, Note_on_c, 1, 64, 0
4, 30243, Note_on_c, 1, 62, 74
4, 30245, Note_on_c, 1, 66, 73
4, 31037, Note_on_c, 1, 47, 0
4, 31038, Note_on_c, 1, 54, 0
4, 31039, Note_on_c, 1, 59, 0
4, 31040, Note_on_c, 1, 62, 0
4, 31040, Note_on_c, 1, 47, 77
4, 31041, Note_on_c, 1, 54, 76
4, 31042, Note_on_c, 1, 66, 0
4, 31042, Note_on_c, 1, 59, 75
4, 31043, Note_on_c, 1, 62, 74
4, 31045, Note_on_c, 1, 66, 73
4, 31077, Note_on_c, 1, 47, 0
4, 31078, Note_on_c, 1, 54, 0
4, 31079, Note_on_c, 1, 59, 0
4, 31080, Note_on_c, 1, 62, 0
4, 31080, Note_on_c, 1, 47, 77
4, 31081, Note_on_c, 1, 54, 76
4, 31082, Note_on_c, 1, 66, 0
4, 31082, Note_on_c, 1, 59, 75
4, 31083, Note_on_c, 1, 62, 74
4, 31085, Note_on_c, 1, 66, 73
4, 31157, Note_on_c, 1, 47, 0
4, 31158, Note_on_c, 1, 54, 0
4, 31159, Note_on_c, 1, 59, 0
4, 31160, Note_on_c, 1, 62, 0
4, 31160, Note_on_c, 1, 47, 77
4, 31161, Note_on_c, 1, 54, 76
4, 31162, Note_on_c, 1, 66, 0
4, 31162, Note_on_c, 1, 59, 75
4, 31163, Note_on_c, 1, 62, 74
4, 31165, Note_on_c, 1, 66, 73
4, 31197, Note_on_c, 1, 47, 0
4, 31198, Note_on_c, 1, 54, 0
4, 31199, Note_on_c, 1, 59, 0
4, 31200, Note_on_c, 1, 62, 0
4, 31200, Note_on_c, 1, 40, 77
4, 31201, Note_on_c, 1, 47, 76
4, 31202, Note_on_c, 1, 66, 0
4, 31202, Note_on_c, 1, 52, 75
4, 31203, Note_on_c, 1, 56, 74
4, 31205, Note_on_c, 1, 59, 73
4, 31206, Note_on_c, 1, 64, 72
4, 31317, Note_on_c, 1, 40, 0
4, 31318, Note_on_c, 1, 47, 0
4, 31319, Note_on_c, 1, 52, 0
4, 31320, Note_on_c, 1, 56, 0
4, 31320, Note_on_c, 1, 40, 77
4, 31321, Note_on_c, 1, 47, 76
4, 31322, Note_on_c, 1, 59, 0
4, 31322, Note_on_c, 1, 52, 75
4, 31323, Note_on_c, 1, 64, 0
4, 31323, Note_on_c, 1, 56, 74
4, 31325, Note_on_c, 1, 59, 73
4, 31326, Note_on_c, 1, 64, 72
4, 31437, Note_on_c, 1, 40, 0
4, 31438, Note_on_c, 1, 47, 0
4, 31439, Note_on_c, 1, 52, 0
4, 31440, Note_on_c, 1, 56, 0
4, 31440, Note_on_c, 1, 40, 77
4, 31441, Note_on_c, 1, 47, 76
4, 31442, Note_on_c, 1, 59, 0
4, 31442, Note_on_c, 1, 52, 75
4, 31443, Note_on_c, 1, 64, 0
4, 31443, Note_on_c, 1, 56, 74
4, 31445, Note_on_c, 1, 59, 73
4, 31446, Note_on_c, 1, 64, 72
4, 31557, Note_on_c, 1, 40, 0
4, 31558, Note_on_c, 1, 47, 0
4, 31559, Note_on_c, 1, 52, 0
4, 31560, Note_on_c, 1, 56, 0
4, 31560, Note_on_c, 1, 40, 77
4, 31561, Note_on_c, 1, 47, 76
4, 31562, Note_on_c, 1, 59, 0
4, 31562, Note_on_c, 1, 52, 75
4, 31563, Note_on_c, 1, 64, 0
4, 31563, Note_on_c, 1, 56, 74
4, 31565, Note_on_c, 1, 59, 73
4, 31566, Note_on_c, 1, 64, 72
4, 31677, Note_on_c, 1, 40, 0
4, 31678, Note_on_c, 1, 47, 0
4, 31679, Note_on_c, 1, 52, 0
4, 31680, Note_on_c, 1, 56, 0
4, 31680, Note_on_c, 1, 40, 77
4, 31681, Note_on_c, 1, 47, 76
4, 31682, Note_on_c, 1, 59, 0
4, 31682, Note_on_c, 1, 52, 75
4, 31683, Note_on_c, 1, 64, 0
4, 31683, Note_on_c, 1, 56, 74
4, 31685, Note_on_c, 1, 59, 73
4, 31686, Note_on_c, 1, 64, 72
4, 31797, Note_on_c, 1, 40, 0
4, 31798, Note_on_c, 1, 47, 0
4, 31799, Note_on_c, 1, 52, 0
4, 31800, Note_on_c, 1, 56, 0
4, 31800, Note_on_c, 1, 40, 77
4, 31801, Note_on_c, 1, 47, 76
4, 31802, Note_on_c, 1, 59, 0
4, 31802, Note_on_c, 1, 52, 75
4, 31803, Note_on_c, 1, 64, 0
4, 31803, Note_on_c, 1, 56, 74
4, 31805, Note_on_c, 1, 59, 73
4, 31806, Note_on_c, 1, 64, 72
4, 31917, Note_on_c, 1, 40, 0
4, 31918, Note_on_c, 1, 47, 0
4, 31919, Note_on_c, 1, 52, 0
4, 31920, Note_on_c, 1, 56, 0
4, 31920, Note_on_c, 1, 40, 77
4, 31921, Note_on_c, 1, 47, 76
4, 31922, Note_on_c, 1, 59, 0
4, 31922, Note_on_c, 1, 52, 75
4, 31923, Note_on_c, 1, 64, 0
4, 31923, Note_on_c, 1, 56, 74
4, 31925, Note_on_c, 1, 59, 73
4, 31926, Note_on_c, 1, 64, 72
4, 32037, Note_on_c, 1, 40, 0
4, 32038, Note_on_c, 1, 47, 0
4, 32039, Note_on_c, 1, 52, 0
4, 32040, Note_on_c, 1, 56, 0
4, 32040, Note_on_c, 1, 40, 77
4, 32041, Note_on_c, 1, 47, 76
4, 32042, Note_on_c, 1, 59, 0
4, 32042, Note_on_c, 1, 52, 75
4, 32043, Note_on_c, 1, 64, 0
4, 32043, Note_on_c, 1, 56, 74
4, 32045, Note_on_c, 1, 59, 73
4, 32046, Note_on_c, 1, 64, 72
4, 32157, Note_on_c, 1, 40, 0
4, 32158, Note_on_c, 1, 47, 0
4, 32159, Note_on_c, 1, 52, 0
4, 32160, Note_on_c, 1, 56, 0
4, 32160, Note_on_c, 1, 43, 77
4, 32161, Note_on_c, 1, 47, 76
4, 32162, Note_on_c, 1, 59, 0
4, 32162, Note_on_c, 1, 50, 75
4, 32163, Note_on_c, 1, 64, 0
4, 32163, Note_on_c, 1, 55, 74
4, 32165, Note_on_c, 1, 59, 73
4, 32166, Note_on_c, 1, 67, 72
4, 32277, Note_on_c, 1, 43, 0
4, 32278, Note_on_c, 1, 47, 0
4, 32279, Note_on_c, 1, 50, 0
4, 32280, Note_on_c, 1, 55, 0
4, 32280, Note_on_c, 1, 43, 77
4, 32281, Note_on_c, 1, 47, 76
4, 32282, Note_on_c, 1, 59, 0
4, 32282, Note_on_c, 1, 50, 75
4, 32283, Note_on_c, 1, 67, 0
4, 32283, Note_on_c, 1, 55, 74
4, 32285, Note_on_c, 1, 59, 73
4, 32286, Note_on_c, 1, 67, 72
4, 32397, Note_on_c, 1, 43, 0
4, 32398, Note_on_c, 1, 47, 0
4, 32399, Note_on_c, 1, 50, 0
4, 32400, Note_on_c, 1, 55, 0
4, 32400, Note_on_c, 1, 43, 77
4, 32401, Note_on_c, 1, 47, 76
4, 32402, Note_on_c, 1, 59, 0
4, 32402, Note_on_c, 1, 50, 75
4, 32403, Note_on_c, 1, 67, 0
4, 32403, Note_on_c, 1, 55, 74
4, 32405, Note_on_c, 1, 59, 73
4, 32406, Note_on_c, 1, 67, 72
4, 32477, Note_on_c, 1, 43, 0
4, 32478, Note_on_c, 1, 47, 0
4, 32479, Note_on_c, 1, 50, 0
4, 32480, Note_on_c, 1, 55, 0
4, 32480, Note_on_c, 1, 43, 77
4, 32481, Note_on_c, 1, 47, 76
4, 32482, Note_on_c, 1, 59, 0
4, 32482, Note_on_c, 1, 50, 75
4, 32483, Note_on_c, 1, 67, 0
4, 32483, Note_on_c, 1, 55, 74
4, 32485, Note_on_c, 1, 59, 73
4, 32486, Note_on_c, 1, 67, 72
4, 32517, Note_on_c, 1, 43, 0
4, 32518, Note_on_c, 1, 47, 0
4, 32519, Note_on_c, 1, 50, 0
4, 32520, Note_on_c, 1, 55, 0
4, 32520, Note_on_c, 1, 43, 77
4, 32521, Note_on_c, 1, 47, 76
4, 32522, Note_on_c, 1, 59, 0
4, 32522, Note_on_c, 1, 50, 75
4, 32523, Note_on_c, 1, 67, 0
4, 32523, Note_on_c, 1, 55, 74
4, 32525, Note_on_c, 1, 59, 73
4, 32526, Note_on_c, 1, 67, 72
4, 32637, Note_on_c, 1, 43, 0
4, 32638, Note_on_c, 1, 47, 0
4, 32639, Note_on_c, 1, 50, 0
4, 32640, Note_on_c, 1, 55, 0
4, 32640, Note_on_c, 1, 40, 77
4, 32641, Note_on_c, 1, 45, 76
4, 32642, Note_on_c, 1, 59, 0
4, 32642, Note_on_c, 1, 52, 75
4, 32643, Note_on_c, 1, 67, 0
4, 32643, Note_on_c, 1, 57, 74
4, 32645, Note_on_c, 1, 61, 73
4, 32646, Note_on_c, 1, 64, 72
4, 32757, Note_on_c, 1, 40, 0
4, 32758, Note_on_c, 1, 45, 0
4, 32759, Note_on_c, 1, 52, 0
4, 32760, Note_on_c, 1, 57, 0
4, 32760, Note_on_c, 1, 40, 77
4, 32761, Note_on_c, 1, 45, 76
4, 32762, Note_on_c, 1, 61, 0
4, 32762, Note_on_c, 1, 52, 75
4, 32763, Note_on_c, 1, 64, 0
4, 32763, Note_on_c, 1, 57, 74
4, 32765, Note_on_c, 1, 61, 73
4, 32766, Note_on_c, 1, 64, 72
4, 32877, Note_on_c, 1, 40, 0
4, 32878, Note_on_c, 1, 45, 0
4, 32879, Note_on_c, 1, 52, 0
4, 32880, Note_on_c, 1, 57, 0
4, 32880, Note_on_c, 1, 40, 77
4, 32881, Note_on_c, 1, 45, 76
4, 32882, Note_on_c, 1, 61, 0
4, 32882, Note_on_c, 1, 52, 75
4, 32883, Note_on_c, 1, 64, 0
4, 32883, Note_on_c, 1, 57, 74
4, 32885, Note_on_c, 1, 61, 73
4, 32886, Note_on_c, 1, 64, 72
4, 32957, Note_on_c, 1, 40, 0
4, 32958, Note_on_c, 1, 45, 0
4, 32959, Note_on_c, 1, 52, 0
4, 32960, Note_on_c, 1, 57, 0
4, 32960, Note_on_c, 1, 40, 77
4, 32961, Note_on_c, 1, 45, 76
4, 32962, Note_on_c, 1, 61, 0
4, 32962, Note_on_c, 1, 52, 75
4, 32963, Note_on_c, 1, 64, 0
4, 32963, Note_on_c, 1, 57, 74
4, 32965, Note_on_c, 1, 61, 73
4, 32966, Note_on_c, 1, 64, 72
4, 32997, Note_on_c, 1, 40, 0
4, 32998, Note_on_c, 1, 45, 0
4, 32999, Note_on_c, 1, 52, 0
4, 33000, Note_on_c, 1, 57, 0
4, 33000, Note_on_c, 1, 40, 77
4, 33001, Note_on_c, 1, 45, 76
4, 33002, Note_on_c, 1, 61, 0
4, 33002, Note_on_c, 1, 52, 75
4, 33003, Note_on_c, 1, 64, 0
4, 33003, Note_on_c, 1, 57, 74
4, 33005, Note_on_c, 1, 61, 73
4, 33006, Note_on_c, 1, 64, 72
4, 33117, Note_on_c, 1, 40, 0
4, 33118, Note_on_c, 1, 45, 0
4, 33119, Note_on_c, 1, 52, 0
4, 33120, Note_on_c, 1, 57, 0
4, 33120, Note_on_c, 1, 45, 83
4, 33121, Note_on_c, 1, 50, 81
4, 33122, Note_on_c, 1, 61, 0
4, 33122, Note_on_c, 1, 57, 79
4, 33123, Note_on_c, 1, 64, 0
4, 33123, Note_on_c, 1, 62, 77
4, 33125, Note_on_c, 1, 66, 75
4, 33237, Note_on_c, 1, 45, 0
4, 33238, Note_on_c, 1, 50, 0
4, 33239, Note_on_c, 1, 57, 0
4, 33240, Note_on_c, 1, 62, 0
4, 33240, Note_on_c, 1, 45, 83
4, 33241, Note_on_c, 1, 50, 81
4, 33242, Note_on_c, 1, 66, 0
4, 33242, Note_on_c, 1, 57, 79
4, 33243, Note_on_c, 1, 62, 77
4, 33245, Note_on_c, 1, 66, 75
4, 33357, Note_on_c, 1, 45, 0
4, 33358, Note_on_c, 1, 50, 0
4, 33359, Note_on_c, 1, 57, 0
4, 33360, Note_on_c, 1, 62, 0
4, 33360, Note_on_c, 1, 45, 83
4, 33361, Note_on_c, 1, 50, 81
4, 33362, Note_on_c, 1, 66, 0
4, 33362, Note_on_c, 1, 57, 79
4, 33363, Note_on_c, 1, 62, 77
4, 33365, Note_on_c, 1, 66, 75
4, 33437, Note_on_c, 1, 45, 0
4, 33438, Note_on_c, 1, 50, 0
4, 33439, Note_on_c, 1, 57, 0
4, 33440, Note_on_c, 1, 62, 0
4, 33440, Note_on_c, 1, 45, 83
4, 33441, Note_on_c, 1, 50, 81
4, 33442, Note_on_c, 1, 66, 0
4, 33442, Note_on_c, 1, 57, 79
4, 33443, Note_on_c, 1, 62, 77
4, 33445, Note_on_c, 1, 66, 75
4, 33477, Note_on_c, 1, 45, 0
4, 33478, Note_on_c, 1, 50, 0
4, 33479, Note_on_c, 1, 57, 0
4, 33480, Note_on_c, 1, 62, 0
4, 33480, Note_on_c, 1, 45, 83
4, 33481, Note_on_c, 1, 50, 81
4, 33482, Note_on_c, 1, 66, 0
4, 33482, Note_on_c, 1, 57, 79
4, 33483, Note_on_c, 1, 62, 77
4, 33485, Note_on_c, 1, 66, 75
4, 33597, Note_on_c, 1, 45, 0
4, 33598, Note_on_c, 1, 50, 0
4, 33599, Note_on_c, 1, 57, 0
4, 33600, Note_on_c, 1, 62, 0
4, 33600, Note_on_c, 1, 40, 83
4, 33601, Note_on_c, 1, 47, 81
4, 33602, Note_on_c, 1, 66, 0
4, 33602, Note_on_c, 1, 52, 79
4, 33603, Note_on_c, 1, 56, 77
4, 33605, Note_on_c, 1, 59, 75
4, 33606, Note_on_c, 1, 64, 73
4, 33717, Note_on_c, 1, 40, 0
4, 33718, Note_on_c, 1, 47, 0
4, 33719, Note_on_c, 1, 52, 0
4, 33720, Note_on_c, 1, 56, 0
4, 33720, Note_on_c, 1, 40, 83
4, 33721, Note_on_c, 1, 47, 81
4, 33722, Note_on_c, 1, 59, 0
4, 33722, Note_on_c, 1, 52, 79
4, 33723, Note_on_c, 1, 64, 0
4, 33723, Note_on_c, 1, 56, 77
4, 33725, Note_on_c, 1, 59, 75
4, 33726, Note_on_c, 1, 64, 73
4, 33837, Note_on_c, 1, 40, 0
4, 33838, Note_on_c, 1, 47, 0
4, 33839, Note_on_c, 1, 52, 0
4, 33840, Note_on_c, 1, 56, 0
4, 33840, Note_on_c, 1, 40, 83
4, 33841, Note_on_c, 1, 47, 81
4, 33842, Note_on_c, 1, 59, 0
4, 33842, Note_on_c, 1, 52, 79
4, 33843, Note_on_c, 1, 64, 0
4, 33843, Note_on_c, 1, 56, 77
4, 33845, Note_on_c, 1, 59, 75
4, 33846, Note_on_c, 1, 64, 73
4, 33917, Note_on_c, 1, 40, 0
4, 33918, Note_on_c, 1, 47, 0
4, 33919, Note_on_c, 1, 52, 0
4, 33920, Note_on_c, 1, 56, 0
4, 33920, Note_on_c, 1, 40, 83
4, 33921, Note_on_c, 1, 47, 81
4, 33922, Note_on_c, 1, 59, 0
4, 33922, Note_on_c, 1, 52, 79
4, 33923, Note_on_c, 1, 64, 0
4, 33923, Note_on_c, 1, 56, 77
4, 33925, Note_on_c, 1, 59, 75
4, 33926, Note_on_c, 1, 64, 73
4, 33957, Note_on_c, 1, 40, 0
4, 33958, Note_on_c, 1, 47, 0
4, 33959, Note_on_c, 1, 52, 0
4, 33960, Note_on_c, 1, 56, 0
4, 33960, Note_on_c, 1, 40, 83
4, 33961, Note_on_c, 1, 47, 81
4, 33962, Note_on_c, 1, 59, 0
4, 33962, Note_on_c, 1, 52, 79
4, 33963, Note_on_c, 1, 64, 0
4, 33963, Note_on_c, 1, 56, 77
4, 33965, Note_on_c, 1, 59, 75
4, 33966, Note_on_c, 1, 64, 73
4, 34077, Note_on_c, 1, 40, 0
4, 34078, Note_on_c, 1, 47, 0
4, 34079, Note_on_c, 1, 52, 0
4, 34080, Note_on_c, 1, 56, 0
4, 34080, Note_on_c, 1, 43, 83
4, 34081, Note_on_c, 1, 47, 81
4, 34082, Note_on_c, 1, 59, 0
4, 34082, Note_on_c, 1, 50, 79
4, 34083, Note_on_c, 1, 64, 0
4, 34083, Note_on_c, 1, 55, 77
4, 34085, Note_on_c, 1, 59, 75
4, 34086, Note_on_c, 1, 67, 73
4, 34197, Note_on_c, 1, 43, 0
4, 34198, Note_on_c, 1, 47, 0
4, 34199, Note_on_c, 1, 50, 0
4, 34200, Note_on_c, 1, 55, 0
4, 34200, Note_on_c, 1, 43, 83
4, 34201, Note_on_c, 1, 47, 81
4, 34202, Note_on_c, 1, 59, 0
4, 34202, Note_on_c, 1, 50, 79
4, 34203, Note_on_c, 1, 67, 0
4, 34203, Note_on_c, 1, 55, 77
4, 34205, Note_on_c, 1, 59, 75
4, 34206, Note_on_c, 1, 67, 73
4, 34317, Note_on_c, 1, 43, 0
4, 34318, Note_on_c, 1, 47, 0
4, 34319, Note_on_c, 1, 50, 0
4, 34320, Note_on_c, 1, 55, 0
4, 34320, Note_on_c, 1, 43, 83
4, 34321, Note_on_c, 1, 47, 81
4, 34322, Note_on_c, 1, 59, 0
4, 34322, Note_on_c, 1, 50, 79
4, 34323, Note_on_c, 1, 67, 0
4, 34323, Note_on_c, 1, 55, 77
4, 34325, Note_on_c, 1, 59, 75
4, 34326, Note_on_c, 1, 67, 73
4, 34397, Note_on_c, 1, 43, 0
4, 34398, Note_on_c, 1, 47, 0
4, 34399, Note_on_c, 1, 50, 0
4, 34400, Note_on_c, 1, 55, 0
4, 34400, Note_on_c, 1, 43, 83
4, 34401, Note_on_c, 1, 47, 81
4, 34402, Note_on_c, 1, 59, 0
4, 34402, Note_on_c, 1, 50, 79
4, 34403, Note_on_c, 1, 67, 0
4, 34403, Note_on_c, 1, 55, 77
4, 34405, Note_on_c, 1, 59, 75
4, 34406, Note_on_c, 1, 67, 73
4, 34437, Note_on_c, 1, 43, 0
4, 34438, Note_on_c, 1, 47, 0
4, 34439, Note_on_c, 1, 50, 0
4, 34440, Note_on_c, 1, 55, 0
4, 34440, Note_on_c, 1, 43, 83
4, 34441, Note_on_c, 1, 47, 81
4, 34442, Note_on_c, 1, 59, 0
4, 34442, Note_on_c, 1, 50, 79
4, 34443, Note_on_c, 1, 67, 0
4, 34443, Note_on_c, 1, 55, 77
4, 34445, Note_on_c, 1, 59, 75
4, 34446, Note_on_c, 1, 67, 73
4, 34557, Note_on_c, 1, 43, 0
4, 34558, Note_on_c, 1, 47, 0
4, 34559, Note_on_c, 1, 50, 0
4, 34560, Note_on_c, 1, 55, 0
4, 34560, Note_on_c, 1, 45, 83
4, 34561, Note_on_c, 1, 50, 81
4, 34562, Note_on_c, 1, 59, 0
4, 34562, Note_on_c, 1, 57, 79
4, 34563, Note_on_c, 1, 67, 0
4, 34563, Note_on_c, 1, 62, 77
4, 34565, Note_on_c, 1, 66, 75
4, 34677, Note_on_c, 1, 45, 0
4, 34678, Note_on_c, 1, 50, 0
4, 34679, Note_on_c, 1, 57, 0
4, 34680, Note_on_c, 1, 62, 0
4, 34680, Note_on_c, 1, 45, 83
4, 34681, Note_on_c, 1, 50, 81
4, 34682, Note_on_c, 1, 66, 0
4, 34682, Note_on_c, 1, 57, 79
4, 34683, Note_on_c, 1, 62, 77
4, 34685, Note_on_c, 1, 66, 75
4, 34797, Note_on_c, 1, 45, 0
4, 34798, Note_on_c, 1, 50, 0
4, 34799, Note_on_c, 1, 57, 0
4, 34800, Note_on_c, 1, 62, 0
4, 34800, Note_on_c, 1, 45, 83
4, 34801, Note_on_c, 1, 50, 81
4, 34802, Note_on_c, 1, 66, 0
4, 34802, Note_on_c, 1, 57, 79
4, 34803, Note_on_c, 1, 62, 77
4, 34805, Note_on_c, 1, 66, 75
4, 34877, Note_on_c, 1, 45, 0
4, 34878, Note_on_c, 1, 50, 0
4, 34879, Note_on_c, 1, 57, 0
4, 34880, Note_on_c, 1, 62, 0
4, 34880, Note_on_c, 1, 45, 83
4, 34881, Note_on_c, 1, 50, 81
4, 34882, Note_on_c, 1, 66, 0
4, 34882, Note_on_c, 1, 57, 79
4, 34883, Note_on_c, 1, 62, 77
4, 34885, Note_on_c, 1, 66, 75
4, 34917, Note_on_c, 1, 45, 0
4, 34918, Note_on_c, 1, 50, 0
4, 34919, Note_on_c, 1, 57, 0
4, 34920, Note_on_c, 1, 62, 0
4, 34920, Note_on_c, 1, 45, 83
4, 34921, Note_on_c, 1, 50, 81
4, 34922, Note_on_c, 1, 66, 0
4, 34922, Note_on_c, 1, 57, 79
4, 34923, Note_on_c, 1, 62, 77
4, 34925, Note_on_c, 1, 66, 75
4, 35037, Note_on_c, 1, 45, 0
4, 35038, Note_on_c, 1, 50, 0
4, 35039, Note_on_c, 1, 57, 0
4, 35040, Note_on_c, 1, 62, 0
4, 35040, Note_on_c, 1, 45, 83
4, 35041, Note_on_c, 1, 50, 81
4, 35042, Note_on_c, 1, 66, 0
4, 35042, Note_on_c, 1, 57, 79
4, 35043, Note_on_c, 1, 62, 77
4, 35045, Note_on_c, 1, 66, 75
4, 35157, Note_on_c, 1, 45, 0
4, 35158, Note_on_c, 1, 50, 0
4, 35159, Note_on_c, 1, 57, 0
4, 35160, Note_on_c, 1, 62, 0
4, 35160, Note_on_c, 1, 45, 83
4, 35161, Note_on_c, 1, 50, 81
4, 35162, Note_on_c, 1, 66, 0
4, 35162, Note_on_c, 1, 57, 79
4, 35163, Note_on_c, 1, 62, 77
4, 35165, Note_on_c, 1, 66, 75
4, 35277, Note_on_c, 1, 45, 0
4, 35278, Note_on_c, 1, 50, 0
4, 35279, Note_on_c, 1, 57, 0
4, 35280, Note_on_c, 1, 62, 0
4, 35280, Note_on_c, 1, 45, 83
4, 35281, Note_on_c, 1, 50, 81
4, 35282, Note_on_c, 1, 66, 0
4, 35282, Note_on_c, 1, 57, 79
4, 35283, Note_on_c, 1, 62, 77
4, 35285, Note_on_c, 1, 66, 75
4, 35357, Note_on_c, 1, 45, 0
4, 35358, Note_on_c, 1, 50, 0
4, 35359, Note_on_c, 1, 57, 0
4, 35360, Note_on_c, 1, 62, 0
4, 35360, Note_on_c, 1, 45, 83
4, 35361, Note_on_c, 1, 50, 81
4, 35362, Note_on_c, 1, 66, 0
4, 35362, Note_on_c, 1, 57, 79
4, 35363, Note_on_c, 1, 62, 77
4, 35365, Note_on_c, 1, 66, 75
4, 35397, Note_on_c, 1, 45, 0
4, 35398, Note_on_c, 1, 50, 0
4, 35399, Note_on_c, 1, 57, 0
4, 35400, Note_on_c, 1, 62, 0
4, 35400, Note_on_c, 1, 45, 83
4, 35401, Note_on_c, 1, 50, 81
4, 35402, Note_on_c, 1, 66, 0
4, 35402, Note_on_c, 1, 57, 79
4, 35403, Note_on_c, 1, 62, 77
4, 35405, Note_on_c, 1, 66, 75
4, 35517, Note_on_c, 1, 45, 0
4, 35518, Note_on_c, 1, 50, 0
4, 35519, Note_on_c, 1, 57, 0
4, 35520, Note_on_c, 1, 62, 0
4, 35520, Note_on_c, 1, 40, 83
4, 35521, Note_on_c, 1, 47, 81
4, 35522, Note_on_c, 1, 66, 0
4, 35522, Note_on_c, 1, 52, 79
4, 35523, Note_on_c, 1, 56, 77
4, 35525, Note_on_c, 1, 59, 75
4, 35526, Note_on_c, 1, 64, 73
4, 35637, Note_on_c, 1, 40, 0
4, 35638, Note_on_c, 1, 47, 0
4, 35639, Note_on_c, 1, 52, 0
4, 35640, Note_on_c, 1, 56, 0
4, 35640, Note_on_c, 1, 40, 83
4, 35641, Note_on_c, 1, 47, 81
4, 35642, Note_on_c, 1, 59, 0
4, 35642, Note_on_c, 1, 52, 79
4, 35643, Note_on_c, 1, 64, 0
4, 35643, Note_on_c, 1, 56, 77
4, 35645, Note_on_c, 1, 59, 75
4, 35646, Note_on_c, 1, 64, 73
4, 35757, Note_on_c, 1, 40, 0
4, 35758, Note_on_c, 1, 47, 0
4, 35759, Note_on_c, 1, 52, 0
4, 35760, Note_on_c, 1, 56, 0
4, 35760, Note_on_c, 1, 40, 83
4, 35761, Note_on_c, 1, 47, 81
4, 35762, Note_on_c, 1, 59, 0
4, 35762, Note_on_c, 1, 52, 79
4, 35763, Note_on_c, 1, 64, 0
4, 35763, Note_on_c, 1, 56, 77
4, 35765, Note_on_c, 1, 59, 75
4, 35766, Note_on_c, 1, 64, 73
4, 35837, Note_on_c, 1, 40, 0
4, 35838, Note_on_c, 1, 47, 0
4, 35839, Note_on_c, 1, 52, 0
4, 35840, Note_on_c, 1, 56, 0
4, 35840, Note_on_c, 1, 40, 83
4, 35841, Note_on_c, 1, 47, 81
4, 35842, Note_on_c, 1, 59, 0
4, 35842, Note_on_c, 1, 52, 79
4, 35843, Note_on_c, 1, 64, 0
4, 35843, Note_on_c, 1, 56, 77
4, 35845, Note_on_c, 1, 59, 75
4, 35846, Note_on_c, 1, 64, 73
4, 35877, Note_on_c, 1, 40, 0
4, 35878, Note_on_c, 1, 47, 0
4, 35879, Note_on_c, 1, 52, 0
4, 35880, Note_on_c, 1, 56, 0
4, 35880, Note_on_c, 1, 40, 83
4, 35881, Note_on_c, 1, 47, 81
4, 35882, Note_on_c, 1, 59, 0
4, 35882, Note_on_c, 1, 52, 79
4, 35883, Note_on_c, 1, 64, 0
4, 35883, Note_on_c, 1, 56, 77
4, 35885, Note_on_c, 1, 59, 75
4, 35886, Note_on_c, 1, 64, 73
4, 35997, Note_on_c, 1, 40, 0
4, 35998, Note_on_c, 1, 47, 0
4, 35999, Note_on_c, 1, 52, 0
4, 36000, Note_on_c, 1, 56, 0
4, 36000, Note_on_c, 1, 43, 83
4, 36001, Note_on_c, 1, 47, 81
4, 36002, Note_on_c, 1, 59, 0
4, 36002, Note_on_c, 1, 50, 79
4, 36003, Note_on_c, 1, 64, 0
4, 36003, Note_on_c, 1, 55, 77
4, 36005, Note_on_c, 1, 59, 75
4, 36006, Note_on_c, 1, 67, 73
4, 36117, Note_on_c, 1, 43, 0
4, 36118, Note_on_c, 1, 47, 0
4, 36119, Note_on_c, 1, 50, 0
4, 36120, Note_on_c, 1, 55, 0
4, 36120, Note_on_c, 1, 43, 83
4, 36121, Note_on_c, 1, 47, 81
4, 36122, Note_on_c, 1, 59, 0
4, 36122, Note_on_c, 1, 50, 79
4, 36123, Note_on_c, 1, 67, 0
4, 36123, Note_on_c, 1, 55, 77
4, 36125, Note_on_c, 1, 59, 75
4, 36126, Note_on_c, 1, 67, 73
4, 36237, Note_on_c, 1, 43, 0
4, 36238, Note_on_c, 1, 47, 0
4, 36239, Note_on_c, 1, 50, 0
4, 36240, Note_on_c, 1, 55, 0
4, 36240, Note_on_c, 1, 43, 83
4, 36241, Note_on_c, 1, 47, 81
4, 36242, Note_on_c, 1, 59, 0
4, 36242, Note_on_c, 1, 50, 79
4, 36243, Note_on_c, 1, 67, 0
4, 36243, Note_on_c, 1, 55, 77
4, 36245, Note_on_c, 1, 59, 75
4, 36246, Note_on_c, 1, 67, 73
4, 36317, Note_on_c, 1, 43, 0
4, 36318, Note_on_c, 1, 47, 0
4, 36319, Note_on_c, 1, 50, 0
4, 36320, Note_on_c, 1, 55, 0
4, 36320, Note_on_c, 1, 43, 83
4, 36321, Note_on_c, 1, 47, 81
4, 36322, Note_on_c, 1, 59, 0
4, 36322, Note_on_c, 1, 50, 79
4, 36323, Note_on_c, 1, 67, 0
4, 36323, Note_on_c, 1, 55, 77
4, 36325, Note_on_c, 1, 59, 75
4, 36326, Note_on_c, 1, 67, 73
4, 36357, Note_on_c, 1, 43, 0
4, 36358, Note_on_c, 1, 47, 0
4, 36359, Note_on_c, 1, 50, 0
4, 36360, Note_on_c, 1, 55, 0
4, 36360, Note_on_c, 1, 43, 83
4, 36361, Note_on_c, 1, 47, 81
4, 36362, Note_on_c, 1, 59, 0
4, 36362, Note_on_c, 1, 50, 79
4, 36363, Note_on_c, 1, 67, 0
4, 36363, Note_on_c, 1, 55, 77
4, 36365, Note_on_c, 1, 59, 75
4, 36366, Note_on_c, 1, 67, 73
4, 36477, Note_on_c, 1, 43, 0
4, 36478, Note_on_c, 1, 47, 0
4, 36479, Note_on_c, 1, 50, 0
4, 36480, Note_on_c, 1, 55, 0
4, 36480, Note_on_c, 1, 45, 83
4, 36481, Note_on_c, 1, 50, 81
4, 36482, Note_on_c, 1, 59, 0
4, 36482, Note_on_c, 1, 57, 79
4, 36483, Note_on_c, 1, 67, 0
4, 36483, Note_on_c, 1, 62, 77
4, 36485, Note_on_c, 1, 66, 75
4, 36597, Note_on_c, 1, 45, 0
4, 36598, Note_on_c, 1, 50, 0
4, 36599, Note_on_c, 1, 57, 0
4, 36600, Note_on_c, 1, 62, 0
4, 36600, Note_on_c, 1, 45, 83
4, 36601, Note_on_c, 1, 50, 81
4, 36602, Note_on_c, 1, 66, 0
4, 36602, Note_on_c, 1, 57, 79
4, 36603, Note_on_c, 1, 62, 77
4, 36605, Note_on_c, 1, 66, 75
4, 36717, Note_on_c, 1, 45, 0
4, 36718, Note_on_c, 1, 50, 0
4, 36719, Note_on_c, 1, 57, 0
4, 36720, Note_on_c, 1, 62, 0
4, 36720, Note_on_c, 1, 45, 83
4, 36721, Note_on_c, 1, 50, 81
4, 36722, Note_on_c, 1, 66, 0
4, 36722, Note_on_c, 1, 57, 79
4, 36723, Note_on_c, 1, 62, 77
4, 36725, Note_on_c, 1, 66, 75
4, 36797, Note_on_c, 1, 45, 0
4, 36798, Note_on_c, 1, 50, 0
4, 36799, Note_on_c, 1, 57, 0
4, 36800, Note_on_c, 1, 62, 0
4, 36800, Note_on_c, 1, 45, 83
4, 36801, Note_on_c, 1, 50, 81
4, 36802, Note_on_c, 1, 66, 0
4, 36802, Note_on_c, 1, 57, 79
4, 36803, Note_on_c, 1, 62, 77
4, 36805, Note_on_c, 1, 66, 75
4, 36837, Note_on_c, 1, 45, 0
4, 36838, Note_on_c, 1, 50, 0
4, 36839, Note_on_c, 1, 57, 0
4, 36840, Note_on_c, 1, 62, 0
4, 36840, Note_on_c, 1, 45, 83
4, 36841, Note_on_c, 1, 50, 81
4, 36842, Note_on_c, 1, 66, 0
4, 36842, Note_on_c, 1, 57, 79
4, 36843, Note_on_c, 1, 62, 77
4, 36845, Note_on_c, 1, 66, 75
4, 36957, Note_on_c, 1, 45, 0
4, 36958, Note_on_c, 1, 50, 0
4, 36959, Note_on_c, 1, 57, 0
4, 36960, Note_on_c, 1, 62, 0
4, 36960, Note_on_c, 1, 47, 81
4, 36961, Note_on_c, 1, 54, 80
4, 36962, Note_on_c, 1, 66, 0
4, 36962, Note_on_c, 1, 59, 79
4, 36963, Note_on_c, 1, 62, 78
4, 36965, Note_on_c, 1, 66, 77
4, 37077, Note_on_c, 1, 47, 0
4, 37078, Note_on_c, 1, 54, 0
4, 37079, Note_on_c, 1, 59, 0
4, 37080, Note_on_c, 1, 62, 0
4, 37080, Note_on_c, 1, 47, 81
4, 37081, Note_on_c, 1, 54, 80
4, 37082, Note_on_c, 1, 66, 0
4, 37082, Note_on_c, 1, 59, 79
4, 37083, Note_on_c, 1, 62, 78
4, 37085, Note_on_c, 1, 66, 77
4, 37157, Note_on_c, 1, 47, 0
4, 37158, Note_on_c, 1, 54, 0
4, 37159, Note_on_c, 1, 59, 0
4, 37160, Note_on_c, 1, 62, 0
4, 37160, Note_on_c, 1, 47, 81
4, 37161, Note_on_c, 1, 54, 80
4, 37162, Note_on_c, 1, 66, 0
4, 37162, Note_on_c, 1, 59, 79
4, 37163, Note_on_c, 1, 62, 78
4, 37165, Note_on_c, 1, 66, 77
4, 37277, Note_on_c, 1, 47, 0
4, 37278, Note_on_c, 1, 54, 0
4, 37279, Note_on_c, 1, 59, 0
4, 37280, Note_on_c, 1, 62, 0
4, 37280, Note_on_c, 1, 47, 81
4, 37281, Note_on_c, 1, 54, 80
4, 37282, Note_on_c, 1, 66, 0
4, 37282, Note_on_c, 1, 59, 79
4, 37283, Note_on_c, 1, 62, 78
4, 37285, Note_on_c, 1, 66, 77
4, 37317, Note_on_c, 1, 47, 0
4, 37318, Note_on_c, 1, 54, 0
4, 37319, Note_on_c, 1, 59, 0
4, 37320, Note_on_c, 1, 62, 0
4, 37320, Note_on_c, 1, 47, 81
4, 37321, Note_on_c, 1, 54, 80
4, 37322, Note_on_c, 1, 66, 0
4, 37322, Note_on_c, 1, 59, 79
4, 37323, Note_on_c, 1, 62, 78
4, 37325, Note_on_c, 1, 66, 77
4, 37437, Note_on_c, 1, 47, 0
4, 37438, Note_on_c, 1, 54, 0
4, 37439, Note_on_c, 1, 59, 0
4, 37440, Note_on_c, 1, 62, 0
4, 37440, Note_on_c, 1, 43, 81
4, 37441, Note_on_c, 1, 47, 80
4, 37442, Note_on_c, 1, 66, 0
4, 37442, Note_on_c, 1, 50, 79
4, 37443, Note_on_c, 1, 55, 78
4, 37445, Note_on_c, 1, 59, 77
4, 37446, Note_on_c, 1, 64, 76
4, 37557, Note_on_c, 1, 43, 0
4, 37558, Note_on_c, 1, 47, 0
4, 37559, Note_on_c, 1, 50, 0
4, 37560, Note_on_c, 1, 55, 0
4, 37560, Note_on_c, 1, 43, 81
4, 37561, Note_on_c, 1, 47, 80
4, 37562, Note_on_c, 1, 59, 0
4, 37562, Note_on_c, 1, 50, 79
4, 37563, Note_on_c, 1, 64, 0
4, 37563, Note_on_c, 1, 55, 78
4, 37565, Note_on_c, 1, 59, 77
4, 37566, Note_on_c, 1, 64, 76
4, 37637, Note_on_c, 1, 43, 0
4, 37638, Note_on_c, 1, 47, 0
4, 37639, Note_on_c, 1, 50, 0
4, 37640, Note_on_c, 1, 55, 0
4, 37640, Note_on_c, 1, 43, 81
4, 37641, Note_on_c, 1, 47, 80
4, 37642, Note_on_c, 1, 59, 0
4, 37642, Note_on_c, 1, 50, 79
4, 37643, Note_on_c, 1, 64, 0
4, 37643, Note_on_c, 1, 55, 78
4, 37645, Note_on_c, 1, 59, 77
4, 37646, Note_on_c, 1, 64, 76
4, 37757, Note_on_c, 1, 43, 0
4, 37758, Note_on_c, 1, 47, 0
4, 37759, Note_on_c, 1, 50, 0
4, 37760, Note_on_c, 1, 55, 0
4, 37760, Note_on_c, 1, 43, 81
4, 37761, Note_on_c, 1, 47, 80
4, 37762, Note_on_c, 1, 59, 0
4, 37762, Note_on_c, 1, 50, 79
4, 37763, Note_on_c, 1, 64, 0
4, 37763, Note_on_c, 1, 55, 78
4, 37765, Note_on_c, 1, 59, 77
4, 37766, Note_on_c, 1, 64, 76
4, 37797, Note_on_c, 1, 43, 0
4, 37798, Note_on_c, 1, 47, 0
4, 37799, Note_on_c, 1, 50, 0
4, 37800, Note_on_c, 1, 55, 0
4, 37800, Note_on_c, 1, 43, 81
4, 37801, Note_on_c, 1, 47, 80
4, 37802, Note_on_c, 1, 59, 0
4, 37802, Note_on_c, 1, 50, 79
4, 37803, Note_on_c, 1, 64, 0
4, 37803, Note_on_c, 1, 55, 78
4, 37805, Note_on_c, 1, 59, 77
4, 37806, Note_on_c, 1, 64, 76
4, 37917, Note_on_c, 1, 43, 0
4, 37918, Note_on_c, 1, 47, 0
4, 37919, Note_on_c, 1, 50, 0
4, 37920, Note_on_c, 1, 55, 0
4, 37920, Note_on_c, 1, 47, 81
4, 37921, Note_on_c, 1, 54, 80
4, 37922, Note_on_c, 1, 59, 0
4, 37922, Note_on_c, 1, 59, 79
4, 37923, Note_on_c, 1, 64, 0
4, 37923, Note_on_c, 1, 62, 78
4, 37925, Note_on_c, 1, 66, 77
4, 38037, Note_on_c, 1, 47, 0
4, 38038, Note_on_c, 1, 54, 0
4, 38039, Note_on_c, 1, 59, 0
4, 38040, Note_on_c, 1, 62, 0
4, 38040, Note_on_c, 1, 47, 81
4, 38041, Note_on_c, 1, 54, 80
4, 38042, Note_on_c, 1, 66, 0
4, 38042, Note_on_c, 1, 59, 79
4, 38043, Note_on_c, 1, 62, 78
4, 38045, Note_on_c, 1, 66, 77
4, 38117, Note_on_c, 1, 47, 0
4, 38118, Note_on_c, 1, 54, 0
4, 38119, Note_on_c, 1, 59, 0
4, 38120, Note_on_c, 1, 62, 0
4, 38120, Note_on_c, 1, 47, 81
4, 38121, Note_on_c, 1, 54, 80
4, 38122, Note_on_c, 1, 66, 0
4, 38122, Note_on_c, 1, 59, 79
4, 38123, Note_on_c, 1, 62, 78
4, 38125, Note_on_c, 1, 66, 77
4, 38237, Note_on_c, 1, 47, 0
4, 38238, Note_on_c, 1, 54, 0
4, 38239, Note_on_c, 1, 59, 0
4, 38240, Note_on_c, 1, 62, 0
4, 38240, Note_on_c, 1, 47, 81
4, 38241, Note_on_c, 1, 54, 80
4, 38242, Note_on_c, 1, 66, 0
4, 38242, Note_on_c, 1, 59, 79
4, 38243, Note_on_c, 1, 62, 78
4, 38245, Note_on_c, 1, 66, 77
4, 38277, Note_on_c, 1, 47, 0
4, 38278, Note_on_c, 1, 54, 0
4, 38279, Note_on_c, 1, 59, 0
4, 38280, Note_on_c, 1, 62, 0
4, 38280, Note_on_c, 1, 47, 81
4, 38281, Note_on_c, 1, 54, 80
4, 38282, Note_on_c, 1, 66, 0
4, 38282, Note_on_c, 1, 59, 79
4, 38283, Note_on_c, 1, 62, 78
4, 38285, Note_on_c, 1, 66, 77
4, 38397, Note_on_c, 1, 47, 0
4, 38398, Note_on_c, 1, 54, 0
4, 38399, Note_on_c, 1, 59, 0
4, 38400, Note_on_c, 1, 62, 0
4, 38400, Note_on_c, 1, 40, 81
4, 38401, Note_on_c, 1, 47, 80
4, 38402, Note_on_c, 1, 66, 0
4, 38402, Note_on_c, 1, 52, 79
4, 38403, Note_on_c, 1, 56, 78
4, 38405, Note_on_c, 1, 59, 77
4, 38406, Note_on_c, 1, 64, 76
4, 38517, Note_on_c, 1, 40, 0
4, 38518, Note_on_c, 1, 47, 0
4, 38519, Note_on_c, 1, 52, 0
4, 38520, Note_on_c, 1, 56, 0
4, 38520, Note_on_c, 1, 40, 81
4, 38521, Note_on_c, 1, 47, 80
4, 38522, Note_on_c, 1, 59, 0
4, 38522, Note_on_c, 1, 52, 79
4, 38523, Note_on_c, 1, 64, 0
4, 38523, Note_on_c, 1, 56, 78
4, 38525, Note_on_c, 1, 59, 77
4, 38526, Note_on_c, 1, 64, 76
4, 38597, Note_on_c, 1, 40, 0
4, 38598, Note_on_c, 1, 47, 0
4, 38599, Note_on_c, 1, 52, 0
4, 38600, Note_on_c, 1, 56, 0
4, 38600, Note_on_c, 1, 40, 81
4, 38601, Note_on_c, 1, 47, 80
4, 38602, Note_on_c, 1, 59, 0
4, 38602, Note_on_c, 1, 52, 79
4, 38603, Note_on_c, 1, 64, 0
4, 38603, Note_on_c, 1, 56, 78
4, 38605, Note_on_c, 1, 59, 77
4, 38606, Note_on_c, 1, 64, 76
4, 38717, Note_on_c, 1, 40, 0
4, 38718, Note_on_c, 1, 47, 0
4, 38719, Note_on_c, 1, 52, 0
4, 38720, Note_on_c, 1, 56, 0
4, 38720, Note_on_c, 1, 40, 81
4, 38721, Note_on_c, 1, 47, 80
4, 38722, Note_on_c, 1, 59, 0
4, 38722, Note_on_c, 1, 52, 79
4, 38723, Note_on_c, 1, 64, 0
4, 38723, Note_on_c, 1, 56, 78
4, 38725, Note_on_c, 1, 59, 77
4, 38726, Note_on_c, 1, 64, 76
4, 38757, Note_on_c, 1, 40, 0
4, 38758, Note_on_c, 1, 47, 0
4, 38759, Note_on_c, 1, 52, 0
4, 38760, Note_on_c, 1, 56, 0
4, 38760, Note_on_c, 1, 40, 81
4, 38761, Note_on_c, 1, 47, 80
4, 38762, Note_on_c, 1, 59, 0
4, 38762, Note_on_c, 1, 52, 79
4, 38763, Note_on_c, 1, 64, 0
4, 38763, Note_on_c, 1, 56, 78
4, 38765, Note_on_c, 1, 59, 77
4, 38766, Note_on_c, 1, 64, 76
4, 38877, Note_on_c, 1, 40, 0
4, 38878, Note_on_c, 1, 47, 0
4, 38879, Note_on_c, 1, 52, 0
4, 38880, Note_on_c, 1, 56, 0
4, 38880, Note_on_c, 1, 45, 83
4, 38881, Note_on_c, 1, 50, 81
4, 38882, Note_on_c, 1, 59, 0
4, 38882, Note_on_c, 1, 57, 79
4, 38883, Note_on_c, 1, 64, 0
4, 38883, Note_on_c, 1, 62, 77
4, 38885, Note_on_c, 1, 66, 75
4, 38997, Note_on_c, 1, 45, 0
4, 38998, Note_on_c, 1, 50, 0
4, 38999, Note_on_c, 1, 57, 0
4, 39000, Note_on_c, 1, 62, 0
4, 39000, Note_on_c, 1, 45, 83
4, 39001, Note_on_c, 1, 50, 81
4, 39002, Note_on_c, 1, 66, 0
4, 39002, Note_on_c, 1, 57, 79
4, 39003, Note_on_c, 1, 62, 77
4, 39005, Note_on_c, 1, 66, 75
4, 39117, Note_on_c, 1, 45, 0
4, 39118, Note_on_c, 1, 50, 0
4, 39119, Note_on_c, 1, 57, 0
4, 39120, Note_on_c, 1, 62, 0
4, 39120, Note_on_c, 1, 45, 83
4, 39121, Note_on_c, 1, 50, 81
4, 39122, Note_on_c, 1, 66, 0
4, 39122, Note_on_c, 1, 57, 79
4, 39123, Note_on_c, 1, 62, 77
4, 39125, Note_on_c, 1, 66, 75
4, 39197, Note_on_c, 1, 45, 0
4, 39198, Note_on_c, 1, 50, 0
4, 39199, Note_on_c, 1, 57, 0
4, 39200, Note_on_c, 1, 62, 0
4, 39200, Note_on_c, 1, 45, 83
4, 39201, Note_on_c, 1, 50, 81
4, 39202, Note_on_c, 1, 66, 0
4, 39202, Note_on_c, 1, 57, 79
4, 39203, Note_on_c, 1, 62, 77
4, 39205, Note_on_c, 1, 66, 75
4, 39237, Note_on_c, 1, 45, 0
4, 39238, Note_on_c, 1, 50, 0
4, 39239, Note_on_c, 1, 57, 0
4, 39240, Note_on_c, 1, 62, 0
4, 39240, Note_on_c, 1, 45, 83
4, 39241, Note_on_c, 1, 50, 81
4, 39242, Note_on_c, 1, 66, 0
4, 39242, Note_on_c, 1, 57, 79
4, 39243, Note_on_c, 1, 62, 77
4, 39245, Note_on_c, 1, 66, 75
4, 39357, Note_on_c, 1, 45, 0
4, 39358, Note_on_c, 1, 50, 0
4, 39359, Note_on_c, 1, 57, 0
4, 39360, Note_on_c, 1, 62, 0
4, 39360, Note_on_c, 1, 40, 83
4, 39361, Note_on_c, 1, 47, 81
4, 39362, Note_on_c, 1, 66, 0
4, 39362, Note_on_c, 1, 52, 79
4, 39363, Note_on_c, 1, 56, 77
4, 39365, Note_on_c, 1, 59, 75
4, 39366, Note_on_c, 1, 64, 73
4, 39477, Note_on_c, 1, 40, 0
4, 39478, Note_on_c, 1, 47, 0
4, 39479, Note_on_c, 1, 52, 0
4, 39480, Note_on_c, 1, 56, 0
4, 39480, Note_on_c, 1, 40, 83
4, 39481, Note_on_c, 1, 47, 81
4, 39482, Note_on_c, 1, 59, 0
4, 39482, Note_on_c, 1, 52, 79
4, 39483, Note_on_c, 1, 64, 0
4, 39483, Note_on_c, 1, 56, 77
4, 39485, Note_on_c, 1, 59, 75
4, 39486, Note_on_c, 1, 64, 73
4, 39597, Note_on_c, 1, 40, 0
4, 39598, Note_on_c, 1, 47, 0
4, 39599, Note_on_c, 1, 52, 0
4, 39600, Note_on_c, 1, 56, 0
4, 39600, Note_on_c, 1, 40, 83
4, 39601, Note_on_c, 1, 47, 81
4, 39602, Note_on_c, 1, 59, 0
4, 39602, Note_on_c, 1, 52, 79
4, 39603, Note_on_c, 1, 64, 0
4, 39603, Note_on_c, 1, 56, 77
4, 39605, Note_on_c, 1, 59, 75
4, 39606, Note_on_c, 1, 64, 73
4, 39677, Note_on_c, 1, 40, 0
4, 39678, Note_on_c, 1, 47, 0
4, 39679, Note_on_c, 1, 52, 0
4, 39680, Note_on_c, 1, 56, 0
4, 39680, Note_on_c, 1, 40, 83
4, 39681, Note_on_c, 1, 47, 81
4, 39682, Note_on_c, 1, 59, 0
4, 39682, Note_on_c, 1, 52, 79
4, 39683, Note_on_c, 1, 64, 0
4, 39683, Note_on_c, 1, 56, 77
4, 39685, Note_on_c, 1, 59, 75
4, 39686, Note_on_c, 1, 64, 73
4, 39717, Note_on_c, 1, 40, 0
4, 39718, Note_on_c, 1, 47, 0
4, 39719, Note_on_c, 1, 52, 0
4, 39720, Note_on_c, 1, 56, 0
4, 39720, Note_on_c, 1, 40, 83
4, 39721, Note_on_c, 1, 47, 81
4, 39722, Note_on_c, 1, 59, 0
4, 39722, Note_on_c, 1, 52, 79
4, 39723, Note_on_c, 1, 64, 0
4, 39723, Note_on_c, 1, 56, 77
4, 39725, Note_on_c, 1, 59, 75
4, 39726, Note_on_c, 1, 64, 73
4, 39837, Note_on_c, 1, 40, 0
4, 39838, Note_on_c, 1, 47, 0
4, 39839, Note_on_c, 1, 52, 0
4, 39840, Note_on_c, 1, 56, 0
4, 39840, Note_on_c, 1, 43, 83
4, 39841, Note_on_c, 1, 47, 81
4, 39842, Note_on_c, 1, 59, 0
4, 39842, Note_on_c, 1, 50, 79
4, 39843, Note_on_c, 1, 64, 0
4, 39843, Note_on_c, 1, 55, 77
4, 39845, Note_on_c, 1, 59, 75
4, 39846, Note_on_c, 1, 67, 73
4, 39957, Note_on_c, 1, 43, 0
4, 39958, Note_on_c, 1, 47, 0
4, 39959, Note_on_c, 1, 50, 0
4, 39960, Note_on_c, 1, 55, 0
4, 39960, Note_on_c, 1, 43, 83
4, 39961, Note_on_c, 1, 47, 81
4, 39962, Note_on_c, 1, 59, 0
4, 39962, Note_on_c, 1, 50, 79
4, 39963, Note_on_c, 1, 67, 0
4, 39963, Note_on_c, 1, 55, 77
4, 39965, Note_on_c, 1, 59, 75
4, 39966, Note_on_c, 1, 67, 73
4, 40077, Note_on_c, 1, 43, 0
4, 40078, Note_on_c, 1, 47, 0
4, 40079, Note_on_c, 1, 50, 0
4, 40080, Note_on_c, 1, 55, 0
4, 40080, Note_on_c, 1, 43, 83
4, 40081, Note_on_c, 1, 47, 81
4, 40082, Note_on_c, 1, 59, 0
4, 40082, Note_on_c, 1, 50, 79
4, 40083, Note_on_c, 1, 67, 0
4, 40083, Note_on_c, 1, 55, 77
4, 40085, Note_on_c, 1, 59, 75
4, 40086, Note_on_c, 1, 67, 73
4, 40157, Note_on_c, 1, 43, 0
4, 40158, Note_on_c, 1, 47, 0
4, 40159, Note_on_c, 1, 50, 0
4, 40160, Note_on_c, 1, 55, 0
4, 40160, Note_on_c, 1, 43, 83
4, 40161, Note_on_c, 1, 47, 81
4, 40162, Note_on_c, 1, 59, 0
4, 40162, Note_on_c, 1, 50, 79
4, 40163, Note_on_c, 1, 67, 0
4, 40163, Note_on_c, 1, 55, 77
4, 40165, Note_on_c, 1, 59, 75
4, 40166, Note_on_c, 1, 67, 73
4, 40197, Note_on_c, 1, 43, 0
4, 40198, Note_on_c, 1, 47, 0
4, 40199, Note_on_c, 1, 50, 0
4, 40200, Note_on_c, 1, 55, 0
4, 40200, Note_on_c, 1, 43, 83
4, 40201, Note_on_c, 1, 47, 81
4, 40202, Note_on_c, 1, 59, 0
4, 40202, Note_on_c, 1, 50, 79
4, 40203, Note_on_c, 1, 67, 0
4, 40203, Note_on_c, 1, 55, 77
4, 40205, Note_on_c, 1, 59, 75
4, 40206, Note_on_c, 1, 67, 73
4, 40317, Note_on_c, 1, 43, 0
4, 40318, Note_on_c, 1, 47, 0
4, 40319, Note_on_c, 1, 50, 0
4, 40320, Note_on_c, 1, 55, 0
4, 40320, Note_on_c, 1, 45, 83
4, 40321, Note_on_c, 1, 50, 81
4, 40322, Note_on_c, 1, 59, 0
4, 40322, Note_on_c, 1, 57, 79
4, 40323, Note_on_c, 1, 67, 0
4, 40323, Note_on_c, 1, 62, 77
4, 40325, Note_on_c, 1, 66, 75
4, 40437, Note_on_c, 1, 45, 0
4, 40438, Note_on_c, 1, 50, 0
4, 40439, Note_on_c, 1, 57, 0
4, 40440, Note_on_c, 1, 62, 0
4, 40440, Note_on_c, 1, 45, 83
4, 40441, Note_on_c, 1, 50, 81
4, 40442, Note_on_c, 1, 66, 0
4, 40442, Note_on_c, 1, 57, 79
4, 40443, Note_on_c, 1, 62, 77
4, 40445, Note_on_c, 1, 66, 75
4, 40557, Note_on_c, 1, 45, 0
4, 40558, Note_on_c, 1, 50, 0
4, 40559, Note_on_c, 1, 57, 0
4, 40560, Note_on_c, 1, 62, 0
4, 40560, Note_on_c, 1, 45, 83
4, 40561, Note_on_c, 1, 50, 81
4, 40562, Note_on_c, 1, 66, 0
4, 40562, Note_on_c, 1, 57, 79
4, 40563, Note_on_c, 1, 62, 77
4, 40565, Note_on_c, 1, 66, 75
4, 40637, Note_on_c, 1, 45, 0
4, 40638, Note_on_c, 1, 50, 0
4, 40639, Note_on_c, 1, 57, 0
4, 40640, Note_on_c, 1, 62, 0
4, 40640, Note_on_c, 1, 45, 83
4, 40641, Note_on_c, 1, 50, 81
4, 40642, Note_on_c, 1, 66, 0
4, 40642, Note_on_c, 1, 57, 79
4, 40643, Note_on_c, 1, 62, 77
4, 40645, Note_on_c, 1, 66, 75
4, 40677, Note_on_c, 1, 45, 0
4, 40678, Note_on_c, 1, 50, 0
4, 40679, Note_on_c, 1, 57, 0
4, 40680, Note_on_c, 1, 62, 0
4, 40680, Note_on_c, 1, 45, 83
4, 40681, Note_on_c, 1, 50, 81
4, 40682, Note_on_c, 1, 66, 0
4, 40682, Note_on_c, 1, 57, 79
4, 40683, Note_on_c, 1, 62, 77
4, 40685, Note_on_c, 1, 66, 75
4, 40797, Note_on_c, 1, 45, 0
4, 40798, Note_on_c, 1, 50, 0
4, 40799, Note_on_c, 1, 57, 0
4, 40800, Note_on_c, 1, 62, 0
4, 40800, Note_on_c, 1, 43, 83
4, 40801, Note_on_c, 1, 47, 81
4, 40802, Note_on_c, 1, 66, 0
4, 40802, Note_on_c, 1, 50, 79
4, 40803, Note_on_c, 1, 55, 77
4, 40805, Note_on_c, 1, 59, 75
4, 40806, Note_on_c, 1, 67, 73
4, 40917, Note_on_c, 1, 43, 0
4, 40918, Note_on_c, 1, 47, 0
4, 40919, Note_on_c, 1, 50, 0
4, 40920, Note_on_c, 1, 55, 0
4, 40920, Note_on_c, 1, 43, 83
4, 40921, Note_on_c, 1, 47, 81
4, 40922, Note_on_c, 1, 59, 0
4, 40922, Note_on_c, 1, 50, 79
4, 40923, Note_on_c, 1, 67, 0
4, 40923, Note_on_c, 1, 55, 77
4, 40925, Note_on_c, 1, 59, 75
4, 40926, Note_on_c, 1, 67, 73
4, 41037, Note_on_c, 1, 43, 0
4, 41038, Note_on_c, 1, 47, 0
4, 41039, Note_on_c, 1, 50, 0
4, 41040, Note_on_c, 1, 55, 0
4, 41040, Note_on_c, 1, 43, 83
4, 41041, Note_on_c, 1, 47, 81
4, 41042, Note_on_c, 1, 59, 0
4, 41042, Note_on_c, 1, 50, 79
4, 41043, Note_on_c, 1, 67, 0
4, 41043, Note_on_c, 1, 55, 77
4, 41045, Note_on_c, 1, 59, 75
4, 41046, Note_on_c, 1, 67, 73
4, 41117, Note_on_c, 1, 43, 0
4, 41118, Note_on_c, 1, 47, 0
4, 41119, Note_on_c, 1, 50, 0
4, 41120, Note_on_c, 1, 55, 0
4, 41120, Note_on_c, 1, 43, 83
4, 41121, Note_on_c, 1, 47, 81
4, 41122, Note_on_c, 1, 59, 0
4, 41122, Note_on_c, 1, 50, 79
4, 41123, Note_on_c, 1, 67, 0
4, 41123, Note_on_c, 1, 55, 77
4, 41125, Note_on_c, 1, 59, 75
4, 41126, Note_on_c, 1, 67, 73
4, 41157, Note_on_c, 1, 43, 0
4, 41158, Note_on_c, 1, 47, 0
4, 41159, Note_on_c, 1, 50, 0
4, 41160, Note_on_c, 1, 55, 0
4, 41160, Note_on_c, 1, 43, 83
4, 41161, Note_on_c, 1, 47, 81
4, 41162, Note_on_c, 1, 59, 0
4, 41162, Note_on_c, 1, 50, 79
4, 41163, Note_on_c, 1, 67, 0
4, 41163, Note_on_c, 1, 55, 77
4, 41165, Note_on_c, 1, 59, 75
4, 41166, Note_on_c, 1, 67, 73
4, 41277, Note_on_c, 1, 43, 0
4, 41278, Note_on_c, 1, 47, 0
4, 41279, Note_on_c, 1, 50, 0
4, 41280, Note_on_c, 1, 55, 0
4, 41280, Note_on_c, 1, 45, 83
4, 41281, Note_on_c, 1, 50, 81
4, 41282, Note_on_c, 1, 59, 0
4, 41282, Note_on_c, 1, 57, 79
4, 41283, Note_on_c, 1, 67, 0
4, 41283, Note_on_c, 1, 62, 77
4, 41285, Note_on_c, 1, 66, 75
4, 41397, Note_on_c, 1, 45, 0
4, 41398, Note_on_c, 1, 50, 0
4, 41399, Note_on_c, 1, 57, 0
4, 41400, Note_on_c, 1, 62, 0
4, 41400, Note_on_c, 1, 45, 83
4, 41401, Note_on_c, 1, 50, 81
4, 41402, Note_on_c, 1, 66, 0
4, 41402, Note_on_c, 1, 57, 79
4, 41403, Note_on_c, 1, 62, 77
4, 41405, Note_on_c, 1, 66, 75
4, 41517, Note_on_c, 1, 45, 0
4, 41518, Note_on_c, 1, 50, 0
4, 41519, Note_on_c, 1, 57, 0
4, 41520, Note_on_c, 1, 62, 0
4, 41520, Note_on_c, 1, 45, 83
4, 41521, Note_on_c, 1, 50, 81
4, 41522, Note_on_c, 1, 66, 0
4, 41522, Note_on_c, 1, 57, 79
4, 41523, Note_on_c, 1, 62, 77
4, 41525, Note_on_c, 1, 66, 75
4, 41597, Note_on_c, 1, 45, 0
4, 41598, Note_on_c, 1, 50, 0
4, 41599, Note_on_c, 1, 57, 0
4, 41600, Note_on_c, 1, 62, 0
4, 41600, Note_on_c, 1, 45, 83
4, 41601, Note_on_c, 1, 50, 81
4, 41602, Note_on_c, 1, 66, 0
4, 41602, Note_on_c, 1, 57, 79
4, 41603, Note_on_c, 1, 62, 77
4, 41605, Note_on_c, 1, 66, 75
4, 41637, Note_on_c, 1, 45, 0
4, 41638, Note_on_c, 1, 50, 0
4, 41639, Note_on_c, 1, 57, 0
4, 41640, Note_on_c, 1, 62, 0
4, 41640, Note_on_c, 1, 45, 83
4, 41641, Note_on_c, 1, 50, 81
4, 41642, Note_on_c, 1, 66, 0
4, 41642, Note_on_c, 1, 57, 79
4, 41643, Note_on_c, 1, 62, 77
4, 41645, Note_on_c, 1, 66, 75
4, 41757, Note_on_c, 1, 45, 0
4, 41758, Note_on_c, 1, 50, 0
4, 41759, Note_on_c, 1, 57, 0
4, 41760, Note_on_c, 1, 62, 0
4, 41760, Note_on_c, 1, 43, 83
4, 41761, Note_on_c, 1, 47, 81
4, 41762, Note_on_c, 1, 66, 0
4, 41762, Note_on_c, 1, 50, 79
4, 41763, Note_on_c, 1, 55, 77
4, 41765, Note_on_c, 1, 59, 75
4, 41766, Note_on_c, 1, 67, 73
4, 41877, Note_on_c, 1, 43, 0
4, 41878, Note_on_c, 1, 47, 0
4, 41879, Note_on_c, 1, 50, 0
4, 41880, Note_on_c, 1, 55, 0
4, 41880, Note_on_c, 1, 43, 83
4, 41881, Note_on_c, 1, 47, 81
4, 41882, Note_on_c, 1, 59, 0
4, 41882, Note_on_c, 1, 50, 79
4, 41883, Note_on_c, 1, 67, 0
4, 41883, Note_on_c, 1, 55, 77
4, 41885, Note_on_c, 1, 59, 75
4, 41886, Note_on_c, 1, 67, 73
4, 41997, Note_on_c, 1, 43, 0
4, 41998, Note_on_c, 1, 47, 0
4, 41999, Note_on_c, 1, 50, 0
4, 42000, Note_on_c, 1, 55, 0
4, 42000, Note_on_c, 1, 43, 83
4, 42001, Note_on_c, 1, 47, 81
4, 42002, Note_on_c, 1, 59, 0
4, 42002, Note_on_c, 1, 50, 79
4, 42003, Note_on_c, 1, 67, 0
4, 42003, Note_on_c, 1, 55, 77
4, 42005, Note_on_c, 1, 59, 75
4, 42006, Note_on_c, 1, 67, 73
4, 42077, Note_on_c, 1, 43, 0
4, 42078, Note_on_c, 1, 47, 0
4, 42079, Note_on_c, 1, 50, 0
4, 42080, Note_on_c, 1, 55, 0
4, 42080, Note_on_c, 1, 43, 83
4, 42081, Note_on_c, 1, 47, 81
4, 42082, Note_on_c, 1, 59, 0
4, 42082, Note_on_c, 1, 50, 79
4, 42083, Note_on_c, 1, 67, 0
4, 42083, Note_on_c, 1, 55, 77
4, 42085, Note_on_c, 1, 59, 75
4, 42086, Note_on_c, 1, 67, 73
4, 42117, Note_on_c, 1, 43, 0
4, 42118, Note_on_c, 1, 47, 0
4, 42119, Note_on_c, 1, 50, 0
4, 42120, Note_on_c, 1, 55, 0
4, 42120, Note_on_c, 1, 43, 83
4, 42121, Note_on_c, 1, 47, 81
4, 42122, Note_on_c, 1, 59, 0
4, 42122, Note_on_c, 1, 50, 79
4, 42123, Note_on_c, 1, 67, 0
4, 42123, Note_on_c, 1, 55, 77
4, 42125, Note_on_c, 1, 59, 75
4, 42126, Note_on_c, 1, 67, 73
4, 42237, Note_on_c, 1, 43, 0
4, 42238, Note_on_c, 1, 47, 0
4, 42239, Note_on_c, 1, 50, 0
4, 42240, Note_on_c, 1, 55, 0
4, 42240, Note_on_c, 1, 45, 83
4, 42241, Note_on_c, 1, 50, 81
4, 42242, Note_on_c, 1, 59, 0
4, 42242, Note_on_c, 1, 57, 79
4, 42243, Note_on_c, 1, 67, 0
4, 42243, Note_on_c, 1, 62, 77
4, 42245, Note_on_c, 1, 66, 75
4, 42357, Note_on_c, 1, 45, 0
4, 42358, Note_on_c, 1, 50, 0
4, 42359, Note_on_c, 1, 57, 0
4, 42360, Note_on_c, 1, 62, 0
4, 42360, Note_on_c, 1, 45, 83
4, 42361, Note_on_c, 1, 50, 81
4, 42362, Note_on_c, 1, 66, 0
4, 42362, Note_on_c, 1, 57, 79
4, 42363, Note_on_c, 1, 62, 77
4, 42365, Note_on_c, 1, 66, 75
4, 42477, Note_on_c, 1, 45, 0
4, 42478, Note_on_c, 1, 50, 0
4, 42479, Note_on_c, 1, 57, 0
4, 42480, Note_on_c, 1, 62, 0
4, 42480, Note_on_c, 1, 45, 83
4, 42481, Note_on_c, 1, 50, 81
4, 42482, Note_on_c, 1, 66, 0
4, 42482, Note_on_c, 1, 57, 79
4, 42483, Note_on_c, 1, 62, 77
4, 42485, Note_on_c, 1, 66, 75
4, 42557, Note_on_c, 1, 45, 0
4, 42558, Note_on_c, 1, 50, 0
4, 42559, Note_on_c, 1, 57, 0
4, 42560, Note_on_c, 1, 62, 0
4, 42560, Note_on_c, 1, 45, 83
4, 42561, Note_on_c, 1, 50, 81
4, 42562, Note_on_c, 1, 66, 0
4, 42562, Note_on_c, 1, 57, 79
4, 42563, Note_on_c, 1, 62, 77
4, 42565, Note_on_c, 1, 66, 75
4, 42597, Note_on_c, 1, 45, 0
4, 42598, Note_on_c, 1, 50, 0
4, 42599, Note_on_c, 1, 57, 0
4, 42600, Note_on_c, 1, 62, 0
4, 42600, Note_on_c, 1, 45, 83
4, 42601, Note_on_c, 1, 50, 81
4, 42602, Note_on_c, 1, 66, 0
4, 42602, Note_on_c, 1, 57, 79
4, 42603, Note_on_c, 1, 62, 77
4, 42605, Note_on_c, 1, 66, 75
4, 42717, Note_on_c, 1, 45, 0
4, 42718, Note_on_c, 1, 50, 0
4, 42719, Note_on_c, 1, 57, 0
4, 42719, Control_c, 1, 91, 127
4, 42719, Control_c, 1, 93, 127
4, 42720, Note_on_c, 1, 62, 0
4, 42720, Note_on_c, 1, 62, 87
4, 42721, Note_on_c, 1, 66, 85
4, 42722, Note_on_c, 1, 66, 0
4, 42722, Note_on_c, 1, 69, 83
4, 42723, Note_on_c, 1, 64, 81
4, 42917, Note_on_c, 1, 62, 0
4, 42918, Note_on_c, 1, 66, 0
4, 42919, Note_on_c, 1, 69, 0
4, 42920, Note_on_c, 1, 64, 0
4, 42920, Note_on_c, 1, 62, 87
4, 42921, Note_on_c, 1, 66, 85
4, 42922, Note_on_c, 1, 69, 83
4, 42923, Note_on_c, 1, 64, 81
4, 42957, Note_on_c, 1, 62, 0
4, 42958, Note_on_c, 1, 66, 0
4, 42959, Note_on_c, 1, 69, 0
4, 42960, Note_on_c, 1, 64, 0
4, 42960, Note_on_c, 1, 62, 87
4, 42961, Note_on_c, 1, 66, 85
4, 42962, Note_on_c, 1, 69, 83
4, 42963, Note_on_c, 1, 64, 81
4, 43077, Note_on_c, 1, 62, 0
4, 43078, Note_on_c, 1, 66, 0
4, 43079, Note_on_c, 1, 69, 0
4, 43080, Note_on_c, 1, 64, 0
4, 43080, Note_on_c, 1, 62, 87
4, 43081, Note_on_c, 1, 66, 85
4, 43082, Note_on_c, 1, 69, 83
4, 43083, Note_on_c, 1, 64, 81
4, 43197, Note_on_c, 1, 62, 0
4, 43198, Note_on_c, 1, 66, 0
4, 43199, Note_on_c, 1, 69, 0
4, 43200, Note_on_c, 1, 64, 0
4, 43200, Note_on_c, 1, 64, 87
4, 43201, Note_on_c, 1, 68, 85
4, 43202, Note_on_c, 1, 71, 83
4, 43203, Note_on_c, 1, 64, 81
4, 43397, Note_on_c, 1, 64, 0
4, 43398, Note_on_c, 1, 68, 0
4, 43399, Note_on_c, 1, 71, 0
4, 43400, Note_on_c, 1, 64, 0
4, 43400, Note_on_c, 1, 64, 87
4, 43401, Note_on_c, 1, 68, 85
4, 43402, Note_on_c, 1, 71, 83
4, 43403, Note_on_c, 1, 64, 81
4, 43437, Note_on_c, 1, 64, 0
4, 43438, Note_on_c, 1, 68, 0
4, 43439, Note_on_c, 1, 71, 0
4, 43440, Note_on_c, 1, 64, 0
4, 43440, Note_on_c, 1, 64, 87
4, 43441, Note_on_c, 1, 68, 85
4, 43442, Note_on_c, 1, 71, 83
4, 43443, Note_on_c, 1, 64, 81
4, 43557, Note_on_c, 1, 64, 0
4, 43558, Note_on_c, 1, 68, 0
4, 43559, Note_on_c, 1, 71, 0
4, 43560, Note_on_c, 1, 64, 0
4, 43560, Note_on_c, 1, 64, 87
4, 43561, Note_on_c, 1, 68, 85
4, 43562, Note_on_c, 1, 71, 83
4, 43563, Note_on_c, 1, 64, 81
4, 43677, Note_on_c, 1, 64, 0
4, 43678, Note_on_c, 1, 68, 0
4, 43679, Note_on_c, 1, 71, 0
4, 43680, Note_on_c, 1, 64, 0
4, 43680, Note_on_c, 1, 67, 87
4, 43681, Note_on_c, 1, 71, 85
4, 43682, Note_on_c, 1, 74, 83
4, 43683, Note_on_c, 1, 64, 81
4, 43877, Note_on_c, 1, 67, 0
4, 43878, Note_on_c, 1, 71, 0
4, 43879, Note_on_c, 1, 74, 0
4, 43880, Note_on_c, 1, 64, 0
4, 43880, Note_on_c, 1, 67, 87
4, 43881, Note_on_c, 1, 71, 85
4, 43882, Note_on_c, 1, 74, 83
4, 43883, Note_on_c, 1, 64, 81
4, 43917, Note_on_c, 1, 67, 0
4, 43918, Note_on_c, 1, 71, 0
4, 43919, Note_on_c, 1, 74, 0
4, 43920, Note_on_c, 1, 64, 0
4, 43920, Note_on_c, 1, 67, 87
4, 43921, Note_on_c, 1, 71, 85
4, 43922, Note_on_c, 1, 74, 83
4, 43923, Note_on_c, 1, 64, 81
4, 44037, Note_on_c, 1, 67, 0
4, 44038, Note_on_c, 1, 71, 0
4, 44039, Note_on_c, 1, 74, 0
4, 44040, Note_on_c, 1, 64, 0
4, 44040, Note_on_c, 1, 67, 87
4, 44041, Note_on_c, 1, 71, 85
4, 44042, Note_on_c, 1, 74, 83
4, 44043, Note_on_c, 1, 64, 81
4, 44157, Note_on_c, 1, 67, 0
4, 44158, Note_on_c, 1, 71, 0
4, 44159, Note_on_c, 1, 74, 0
4, 44160, Note_on_c, 1, 64, 0
4, 44160, Note_on_c, 1, 62, 87
4, 44161, Note_on_c, 1, 66, 85
4, 44162, Note_on_c, 1, 69, 83
4, 44163, Note_on_c, 1, 64, 81
4, 45597, Note_on_c, 1, 62, 0
4, 45598, Note_on_c, 1, 66, 0
4, 45599, Note_on_c, 1, 69, 0
4, 45600, Note_on_c, 1, 64, 0
4, 45600, End_track
5, 0, Start_track
5, 0, Title_t, "Muted Gtr Rythm"
5, 0, MIDI_port, 0
5, 121, Control_c, 2, 7, 100
5, 122, Control_c, 2, 10, 127
5, 123, Control_c, 2, 91, 127
5, 125, Control_c, 2, 93, 127
5, 126, Control_c, 2, 32, 0
5, 126, Control_c, 2, 0, 0
5, 126, Program_c, 2, 28
5, 480, Control_c, 2, 7, 20
5, 480, Note_on_c, 2, 62, 100
5, 481, Note_on_c, 2, 66, 98
5, 482, Note_on_c, 2, 69, 96
5, 483, Note_on_c, 2, 64, 93
5, 503, Control_c, 2, 7, 21
5, 527, Control_c, 2, 7, 22
5, 552, Control_c, 2, 7, 23
5, 576, Control_c, 2, 7, 24
5, 600, Control_c, 2, 7, 25
5, 623, Control_c, 2, 7, 26
5, 647, Control_c, 2, 7, 27
5, 672, Control_c, 2, 7, 28
5, 678, Note_on_c, 2, 62, 0
5, 679, Note_on_c, 2, 66, 0
5, 680, Note_on_c, 2, 69, 0
5, 680, Note_on_c, 2, 62, 100
5, 681, Note_on_c, 2, 64, 0
5, 681, Note_on_c, 2, 66, 98
5, 682, Note_on_c, 2, 69, 96
5, 683, Note_on_c, 2, 64, 93
5, 696, Control_c, 2, 7, 29
5, 718, Note_on_c, 2, 62, 0
5, 719, Note_on_c, 2, 66, 0
5, 720, Note_on_c, 2, 69, 0
5, 720, Control_c, 2, 7, 30
5, 720, Note_on_c, 2, 62, 100
5, 721, Note_on_c, 2, 64, 0
5, 721, Note_on_c, 2, 66, 98
5, 722, Note_on_c, 2, 69, 96
5, 723, Note_on_c, 2, 64, 93
5, 743, Control_c, 2, 7, 31
5, 767, Control_c, 2, 7, 32
5, 791, Control_c, 2, 7, 33
5, 816, Control_c, 2, 7, 34
5, 838, Note_on_c, 2, 62, 0
5, 839, Note_on_c, 2, 66, 0
5, 840, Note_on_c, 2, 69, 0
5, 840, Control_c, 2, 7, 35
5, 840, Note_on_c, 2, 62, 100
5, 841, Note_on_c, 2, 64, 0
5, 841, Note_on_c, 2, 66, 98
5, 842, Note_on_c, 2, 69, 96
5, 843, Note_on_c, 2, 64, 93
5, 863, Control_c, 2, 7, 36
5, 887, Control_c, 2, 7, 37
5, 911, Control_c, 2, 7, 38
5, 936, Control_c, 2, 7, 39
5, 958, Note_on_c, 2, 62, 0
5, 959, Note_on_c, 2, 66, 0
5, 960, Note_on_c, 2, 69, 0
5, 960, Control_c, 2, 7, 40
5, 960, Note_on_c, 2, 64, 100
5, 961, Note_on_c, 2, 64, 0
5, 961, Note_on_c, 2, 68, 98
5, 962, Note_on_c, 2, 71, 96
5, 963, Note_on_c, 2, 64, 93
5, 983, Control_c, 2, 7, 41
5, 1007, Control_c, 2, 7, 42
5, 1031, Control_c, 2, 7, 43
5, 1056, Control_c, 2, 7, 44
5, 1080, Control_c, 2, 7, 45
5, 1103, Control_c, 2, 7, 46
5, 1127, Control_c, 2, 7, 47
5, 1151, Control_c, 2, 7, 48
5, 1158, Note_on_c, 2, 64, 0
5, 1159, Note_on_c, 2, 68, 0
5, 1160, Note_on_c, 2, 71, 0
5, 1160, Note_on_c, 2, 64, 100
5, 1161, Note_on_c, 2, 64, 0
5, 1161, Note_on_c, 2, 68, 98
5, 1162, Note_on_c, 2, 71, 96
5, 1163, Note_on_c, 2, 64, 93
5, 1175, Control_c, 2, 7, 49
5, 1198, Note_on_c, 2, 64, 0
5, 1199, Note_on_c, 2, 68, 0
5, 1200, Note_on_c, 2, 71, 0
5, 1200, Control_c, 2, 7, 50
5, 1200, Note_on_c, 2, 64, 100
5, 1201, Note_on_c, 2, 64, 0
5, 1201, Note_on_c, 2, 68, 98
5, 1202, Note_on_c, 2, 71, 96
5, 1203, Note_on_c, 2, 64, 93
5, 1223, Control_c, 2, 7, 51
5, 1247, Control_c, 2, 7, 52
5, 1271, Control_c, 2, 7, 53
5, 1295, Control_c, 2, 7, 54
5, 1318, Note_on_c, 2, 64, 0
5, 1319, Note_on_c, 2, 68, 0
5, 1320, Note_on_c, 2, 71, 0
5, 1320, Control_c, 2, 7, 55
5, 1320, Note_on_c, 2, 64, 100
5, 1321, Note_on_c, 2, 64, 0
5, 1321, Note_on_c, 2, 68, 98
5, 1322, Note_on_c, 2, 71, 96
5, 1323, Note_on_c, 2, 64, 93
5, 1343, Control_c, 2, 7, 56
5, 1367, Control_c, 2, 7, 57
5, 1391, Control_c, 2, 7, 58
5, 1415, Control_c, 2, 7, 59
5, 1438, Note_on_c, 2, 64, 0
5, 1439, Note_on_c, 2, 68, 0
5, 1440, Note_on_c, 2, 71, 0
5, 1440, Control_c, 2, 7, 60
5, 1440, Note_on_c, 2, 67, 100
5, 1441, Note_on_c, 2, 64, 0
5, 1441, Note_on_c, 2, 71, 98
5, 1442, Note_on_c, 2, 74, 96
5, 1443, Note_on_c, 2, 64, 93
5, 1463, Control_c, 2, 7, 61
5, 1487, Control_c, 2, 7, 62
5, 1511, Control_c, 2, 7, 63
5, 1535, Control_c, 2, 7, 64
5, 1558, Control_c, 2, 7, 65
5, 1583, Control_c, 2, 7, 66
5, 1607, Control_c, 2, 7, 67
5, 1631, Control_c, 2, 7, 68
5, 1638, Note_on_c, 2, 67, 0
5, 1639, Note_on_c, 2, 71, 0
5, 1640, Note_on_c, 2, 74, 0
5, 1640, Note_on_c, 2, 67, 100
5, 1641, Note_on_c, 2, 64, 0
5, 1641, Note_on_c, 2, 71, 98
5, 1642, Note_on_c, 2, 74, 96
5, 1643, Note_on_c, 2, 64, 93
5, 1655, Control_c, 2, 7, 69
5, 1678, Note_on_c, 2, 67, 0
5, 1678, Control_c, 2, 7, 70
5, 1679, Note_on_c, 2, 71, 0
5, 1680, Note_on_c, 2, 74, 0
5, 1680, Note_on_c, 2, 67, 100
5, 1681, Note_on_c, 2, 64, 0
5, 1681, Note_on_c, 2, 71, 98
5, 1682, Note_on_c, 2, 74, 96
5, 1683, Note_on_c, 2, 64, 93
5, 1703, Control_c, 2, 7, 71
5, 1727, Control_c, 2, 7, 72
5, 1751, Control_c, 2, 7, 73
5, 1775, Control_c, 2, 7, 74
5, 1798, Note_on_c, 2, 67, 0
5, 1798, Control_c, 2, 7, 75
5, 1799, Note_on_c, 2, 71, 0
5, 1800, Note_on_c, 2, 74, 0
5, 1800, Note_on_c, 2, 67, 100
5, 1801, Note_on_c, 2, 64, 0
5, 1801, Note_on_c, 2, 71, 98
5, 1802, Note_on_c, 2, 74, 96
5, 1803, Note_on_c, 2, 64, 93
5, 1823, Control_c, 2, 7, 76
5, 1847, Control_c, 2, 7, 77
5, 1871, Control_c, 2, 7, 78
5, 1895, Control_c, 2, 7, 79
5, 1918, Note_on_c, 2, 67, 0
5, 1918, Control_c, 2, 7, 80
5, 1919, Note_on_c, 2, 71, 0
5, 1920, Note_on_c, 2, 74, 0
5, 1920, Note_on_c, 2, 62, 100
5, 1921, Note_on_c, 2, 64, 0
5, 1921, Note_on_c, 2, 66, 98
5, 1922, Note_on_c, 2, 69, 96
5, 1923, Note_on_c, 2, 64, 93
5, 1942, Control_c, 2, 7, 81
5, 1967, Control_c, 2, 7, 82
5, 1991, Control_c, 2, 7, 83
5, 2015, Control_c, 2, 7, 84
5, 2038, Control_c, 2, 7, 85
5, 2062, Control_c, 2, 7, 86
5, 2087, Control_c, 2, 7, 87
5, 2111, Control_c, 2, 7, 88
5, 2118, Note_on_c, 2, 62, 0
5, 2119, Note_on_c, 2, 66, 0
5, 2120, Note_on_c, 2, 69, 0
5, 2120, Note_on_c, 2, 62, 100
5, 2121, Note_on_c, 2, 64, 0
5, 2121, Note_on_c, 2, 66, 98
5, 2122, Note_on_c, 2, 69, 96
5, 2123, Note_on_c, 2, 64, 93
5, 2135, Control_c, 2, 7, 89
5, 2158, Note_on_c, 2, 62, 0
5, 2158, Control_c, 2, 7, 90
5, 2159, Note_on_c, 2, 66, 0
5, 2160, Note_on_c, 2, 69, 0
5, 2160, Note_on_c, 2, 62, 100
5, 2161, Note_on_c, 2, 64, 0
5, 2161, Note_on_c, 2, 66, 98
5, 2162, Note_on_c, 2, 69, 96
5, 2163, Note_on_c, 2, 64, 93
5, 2182, Control_c, 2, 7, 91
5, 2207, Control_c, 2, 7, 92
5, 2231, Control_c, 2, 7, 93
5, 2255, Control_c, 2, 7, 94
5, 2278, Note_on_c, 2, 62, 0
5, 2278, Control_c, 2, 7, 95
5, 2279, Note_on_c, 2, 66, 0
5, 2280, Note_on_c, 2, 69, 0
5, 2280, Note_on_c, 2, 62, 100
5, 2281, Note_on_c, 2, 64, 0
5, 2281, Note_on_c, 2, 66, 98
5, 2282, Note_on_c, 2, 69, 96
5, 2283, Note_on_c, 2, 64, 93
5, 2302, Control_c, 2, 7, 96
5, 2326, Control_c, 2, 7, 97
5, 2351, Control_c, 2, 7, 98
5, 2375, Control_c, 2, 7, 99
5, 2398, Note_on_c, 2, 62, 0
5, 2398, Control_c, 2, 7, 100
5, 2399, Note_on_c, 2, 66, 0
5, 2399, Control_c, 2, 91, 90
5, 2399, Control_c, 2, 93, 90
5, 2400, Note_on_c, 2, 69, 0
5, 2401, Note_on_c, 2, 64, 0
5, 2520, Note_on_c, 2, 62, 100
5, 2520, Note_on_c, 2, 66, 100
5, 2598, Note_on_c, 2, 62, 0
5, 2598, Note_on_c, 2, 66, 0
5, 2720, Note_on_c, 2, 62, 100
5, 2720, Note_on_c, 2, 66, 100
5, 2758, Note_on_c, 2, 62, 0
5, 2758, Note_on_c, 2, 66, 0
5, 2840, Note_on_c, 2, 66, 100
5, 2840, Note_on_c, 2, 62, 100
5, 2878, Note_on_c, 2, 66, 0
5, 2878, Note_on_c, 2, 62, 0
5, 3000, Note_on_c, 2, 64, 100
5, 3000, Note_on_c, 2, 59, 100
5, 3078, Note_on_c, 2, 64, 0
5, 3078, Note_on_c, 2, 59, 0
5, 3200, Note_on_c, 2, 64, 100
5, 3200, Note_on_c, 2, 59, 100
5, 3238, Note_on_c, 2, 64, 0
5, 3238, Note_on_c, 2, 59, 0
5, 3320, Note_on_c, 2, 64, 100
5, 3320, Note_on_c, 2, 59, 100
5, 3358, Note_on_c, 2, 64, 0
5, 3358, Note_on_c, 2, 59, 0
5, 3480, Note_on_c, 2, 67, 100
5, 3480, Note_on_c, 2, 62, 100
5, 3558, Note_on_c, 2, 67, 0
5, 3558, Note_on_c, 2, 62, 0
5, 3680, Note_on_c, 2, 67, 100
5, 3680, Note_on_c, 2, 62, 100
5, 3718, Note_on_c, 2, 67, 0
5, 3718, Note_on_c, 2, 62, 0
5, 3800, Note_on_c, 2, 67, 100
5, 3800, Note_on_c, 2, 62, 100
5, 3838, Note_on_c, 2, 67, 0
5, 3838, Note_on_c, 2, 62, 0
5, 3960, Note_on_c, 2, 62, 100
5, 3960, Note_on_c, 2, 66, 100
5, 4038, Note_on_c, 2, 62, 0
5, 4038, Note_on_c, 2, 66, 0
5, 4160, Note_on_c, 2, 66, 100
5, 4160, Note_on_c, 2, 62, 100
5, 4198, Note_on_c, 2, 66, 0
5, 4198, Note_on_c, 2, 62, 0
5, 4280, Note_on_c, 2, 66, 100
5, 4280, Note_on_c, 2, 62, 100
5, 4318, Note_on_c, 2, 66, 0
5, 4318, Note_on_c, 2, 62, 0
5, 4440, Note_on_c, 2, 62, 100
5, 4440, Note_on_c, 2, 66, 100
5, 4518, Note_on_c, 2, 62, 0
5, 4518, Note_on_c, 2, 66, 0
5, 4640, Note_on_c, 2, 66, 100
5, 4640, Note_on_c, 2, 62, 100
5, 4678, Note_on_c, 2, 66, 0
5, 4678, Note_on_c, 2, 62, 0
5, 4760, Note_on_c, 2, 66, 100
5, 4760, Note_on_c, 2, 62, 100
5, 4798, Note_on_c, 2, 66, 0
5, 4798, Note_on_c, 2, 62, 0
5, 4920, Note_on_c, 2, 59, 100
5, 4920, Note_on_c, 2, 64, 100
5, 4998, Note_on_c, 2, 59, 0
5, 4998, Note_on_c, 2, 64, 0
5, 5120, Note_on_c, 2, 64, 100
5, 5120, Note_on_c, 2, 59, 100
5, 5158, Note_on_c, 2, 64, 0
5, 5158, Note_on_c, 2, 59, 0
5, 5240, Note_on_c, 2, 64, 100
5, 5240, Note_on_c, 2, 59, 100
5, 5278, Note_on_c, 2, 64, 0
5, 5278, Note_on_c, 2, 59, 0
5, 5400, Note_on_c, 2, 62, 100
5, 5400, Note_on_c, 2, 67, 100
5, 5478, Note_on_c, 2, 62, 0
5, 5478, Note_on_c, 2, 67, 0
5, 5600, Note_on_c, 2, 67, 100
5, 5600, Note_on_c, 2, 62, 100
5, 5638, Note_on_c, 2, 67, 0
5, 5638, Note_on_c, 2, 62, 0
5, 5720, Note_on_c, 2, 67, 100
5, 5720, Note_on_c, 2, 62, 100
5, 5758, Note_on_c, 2, 67, 0
5, 5758, Note_on_c, 2, 62, 0
5, 5880, Note_on_c, 2, 66, 100
5, 5880, Note_on_c, 2, 62, 100
5, 5958, Note_on_c, 2, 66, 0
5, 5958, Note_on_c, 2, 62, 0
5, 6080, Note_on_c, 2, 62, 100
5, 6080, Note_on_c, 2, 66, 100
5, 6118, Note_on_c, 2, 62, 0
5, 6118, Note_on_c, 2, 66, 0
5, 6200, Note_on_c, 2, 62, 100
5, 6200, Note_on_c, 2, 66, 100
5, 6238, Note_on_c, 2, 62, 0
5, 6238, Note_on_c, 2, 66, 0
5, 6240, Note_on_c, 2, 47, 93
5, 6241, Note_on_c, 2, 54, 92
5, 6242, Note_on_c, 2, 59, 91
5, 6243, Note_on_c, 2, 62, 90
5, 6245, Note_on_c, 2, 66, 89
5, 6438, Note_on_c, 2, 47, 0
5, 6439, Note_on_c, 2, 54, 0
5, 6440, Note_on_c, 2, 59, 0
5, 6440, Note_on_c, 2, 47, 93
5, 6441, Note_on_c, 2, 62, 0
5, 6441, Note_on_c, 2, 54, 92
5, 6442, Note_on_c, 2, 59, 91
5, 6443, Note_on_c, 2, 66, 0
5, 6443, Note_on_c, 2, 62, 90
5, 6445, Note_on_c, 2, 66, 89
5, 6598, Note_on_c, 2, 47, 0
5, 6599, Note_on_c, 2, 54, 0
5, 6600, Note_on_c, 2, 59, 0
5, 6601, Note_on_c, 2, 62, 0
5, 6603, Note_on_c, 2, 66, 0
5, 6720, Note_on_c, 2, 43, 93
5, 6721, Note_on_c, 2, 47, 92
5, 6722, Note_on_c, 2, 50, 91
5, 6723, Note_on_c, 2, 55, 90
5, 6725, Note_on_c, 2, 59, 89
5, 6726, Note_on_c, 2, 64, 88
5, 6918, Note_on_c, 2, 43, 0
5, 6919, Note_on_c, 2, 47, 0
5, 6920, Note_on_c, 2, 50, 0
5, 6920, Note_on_c, 2, 43, 93
5, 6921, Note_on_c, 2, 55, 0
5, 6921, Note_on_c, 2, 47, 92
5, 6922, Note_on_c, 2, 50, 91
5, 6923, Note_on_c, 2, 59, 0
5, 6923, Note_on_c, 2, 55, 90
5, 6924, Note_on_c, 2, 64, 0
5, 6925, Note_on_c, 2, 59, 89
5, 6926, Note_on_c, 2, 64, 88
5, 7078, Note_on_c, 2, 43, 0
5, 7079, Note_on_c, 2, 47, 0
5, 7080, Note_on_c, 2, 50, 0
5, 7081, Note_on_c, 2, 55, 0
5, 7083, Note_on_c, 2, 59, 0
5, 7084, Note_on_c, 2, 64, 0
5, 7200, Note_on_c, 2, 47, 93
5, 7201, Note_on_c, 2, 54, 92
5, 7202, Note_on_c, 2, 59, 91
5, 7203, Note_on_c, 2, 62, 90
5, 7205, Note_on_c, 2, 66, 89
5, 7398, Note_on_c, 2, 47, 0
5, 7399, Note_on_c, 2, 54, 0
5, 7400, Note_on_c, 2, 59, 0
5, 7400, Note_on_c, 2, 47, 93
5, 7401, Note_on_c, 2, 62, 0
5, 7401, Note_on_c, 2, 54, 92
5, 7402, Note_on_c, 2, 59, 91
5, 7403, Note_on_c, 2, 66, 0
5, 7403, Note_on_c, 2, 62, 90
5, 7405, Note_on_c, 2, 66, 89
5, 7558, Note_on_c, 2, 47, 0
5, 7559, Note_on_c, 2, 54, 0
5, 7560, Note_on_c, 2, 59, 0
5, 7561, Note_on_c, 2, 62, 0
5, 7563, Note_on_c, 2, 66, 0
5, 7680, Note_on_c, 2, 40, 93
5, 7681, Note_on_c, 2, 47, 92
5, 7682, Note_on_c, 2, 52, 91
5, 7683, Note_on_c, 2, 56, 90
5, 7685, Note_on_c, 2, 59, 89
5, 7686, Note_on_c, 2, 64, 88
5, 7878, Note_on_c, 2, 40, 0
5, 7879, Note_on_c, 2, 47, 0
5, 7880, Note_on_c, 2, 52, 0
5, 7880, Note_on_c, 2, 40, 93
5, 7881, Note_on_c, 2, 56, 0
5, 7881, Note_on_c, 2, 47, 92
5, 7882, Note_on_c, 2, 52, 91
5, 7883, Note_on_c, 2, 59, 0
5, 7883, Note_on_c, 2, 56, 90
5, 7884, Note_on_c, 2, 64, 0
5, 7885, Note_on_c, 2, 59, 89
5, 7886, Note_on_c, 2, 64, 88
5, 8038, Note_on_c, 2, 40, 0
5, 8039, Note_on_c, 2, 47, 0
5, 8040, Note_on_c, 2, 52, 0
5, 8041, Note_on_c, 2, 56, 0
5, 8043, Note_on_c, 2, 59, 0
5, 8044, Note_on_c, 2, 64, 0
5, 8280, Note_on_c, 2, 62, 100
5, 8280, Note_on_c, 2, 66, 100
5, 8358, Note_on_c, 2, 62, 0
5, 8358, Note_on_c, 2, 66, 0
5, 8480, Note_on_c, 2, 62, 100
5, 8480, Note_on_c, 2, 66, 100
5, 8518, Note_on_c, 2, 62, 0
5, 8518, Note_on_c, 2, 66, 0
5, 8600, Note_on_c, 2, 62, 100
5, 8600, Note_on_c, 2, 66, 100
5, 8638, Note_on_c, 2, 62, 0
5, 8638, Note_on_c, 2, 66, 0
5, 8760, Note_on_c, 2, 59, 100
5, 8760, Note_on_c, 2, 64, 100
5, 8838, Note_on_c, 2, 59, 0
5, 8838, Note_on_c, 2, 64, 0
5, 8960, Note_on_c, 2, 59, 100
5, 8960, Note_on_c, 2, 64, 100
5, 8998, Note_on_c, 2, 59, 0
5, 8998, Note_on_c, 2, 64, 0
5, 9080, Note_on_c, 2, 64, 100
5, 9080, Note_on_c, 2, 59, 100
5, 9118, Note_on_c, 2, 64, 0
5, 9118, Note_on_c, 2, 59, 0
5, 9240, Note_on_c, 2, 62, 100
5, 9240, Note_on_c, 2, 67, 100
5, 9318, Note_on_c, 2, 62, 0
5, 9318, Note_on_c, 2, 67, 0
5, 9440, Note_on_c, 2, 67, 100
5, 9440, Note_on_c, 2, 62, 100
5, 9478, Note_on_c, 2, 67, 0
5, 9478, Note_on_c, 2, 62, 0
5, 9560, Note_on_c, 2, 62, 100
5, 9560, Note_on_c, 2, 67, 100
5, 9598, Note_on_c, 2, 62, 0
5, 9598, Note_on_c, 2, 67, 0
5, 9720, Note_on_c, 2, 62, 100
5, 9720, Note_on_c, 2, 66, 100
5, 9798, Note_on_c, 2, 62, 0
5, 9798, Note_on_c, 2, 66, 0
5, 9920, Note_on_c, 2, 62, 100
5, 9920, Note_on_c, 2, 66, 100
5, 9958, Note_on_c, 2, 62, 0
5, 9958, Note_on_c, 2, 66, 0
5, 10040, Note_on_c, 2, 66, 100
5, 10040, Note_on_c, 2, 62, 100
5, 10078, Note_on_c, 2, 66, 0
5, 10078, Note_on_c, 2, 62, 0
5, 10200, Note_on_c, 2, 66, 100
5, 10200, Note_on_c, 2, 62, 100
5, 10278, Note_on_c, 2, 66, 0
5, 10278, Note_on_c, 2, 62, 0
5, 10400, Note_on_c, 2, 66, 100
5, 10400, Note_on_c, 2, 62, 100
5, 10438, Note_on_c, 2, 66, 0
5, 10438, Note_on_c, 2, 62, 0
5, 10520, Note_on_c, 2, 62, 100
5, 10520, Note_on_c, 2, 66, 100
5, 10558, Note_on_c, 2, 62, 0
5, 10558, Note_on_c, 2, 66, 0
5, 10680, Note_on_c, 2, 64, 100
5, 10680, Note_on_c, 2, 59, 100
5, 10758, Note_on_c, 2, 64, 0
5, 10758, Note_on_c, 2, 59, 0
5, 10880, Note_on_c, 2, 64, 100
5, 10880, Note_on_c, 2, 59, 100
5, 10918, Note_on_c, 2, 64, 0
5, 10918, Note_on_c, 2, 59, 0
5, 11000, Note_on_c, 2, 59, 100
5, 11000, Note_on_c, 2, 64, 100
5, 11038, Note_on_c, 2, 59, 0
5, 11038, Note_on_c, 2, 64, 0
5, 11160, Note_on_c, 2, 62, 100
5, 11160, Note_on_c, 2, 67, 100
5, 11238, Note_on_c, 2, 62, 0
5, 11238, Note_on_c, 2, 67, 0
5, 11360, Note_on_c, 2, 67, 100
5, 11360, Note_on_c, 2, 62, 100
5, 11398, Note_on_c, 2, 67, 0
5, 11398, Note_on_c, 2, 62, 0
5, 11480, Note_on_c, 2, 62, 100
5, 11480, Note_on_c, 2, 67, 100
5, 11518, Note_on_c, 2, 62, 0
5, 11518, Note_on_c, 2, 67, 0
5, 11640, Note_on_c, 2, 62, 100
5, 11640, Note_on_c, 2, 66, 100
5, 11718, Note_on_c, 2, 62, 0
5, 11718, Note_on_c, 2, 66, 0
5, 11840, Note_on_c, 2, 62, 100
5, 11840, Note_on_c, 2, 66, 100
5, 11878, Note_on_c, 2, 62, 0
5, 11878, Note_on_c, 2, 66, 0
5, 11960, Note_on_c, 2, 62, 100
5, 11960, Note_on_c, 2, 66, 100
5, 11998, Note_on_c, 2, 62, 0
5, 11998, Note_on_c, 2, 66, 0
5, 12120, Note_on_c, 2, 62, 100
5, 12120, Note_on_c, 2, 66, 100
5, 12198, Note_on_c, 2, 62, 0
5, 12198, Note_on_c, 2, 66, 0
5, 12320, Note_on_c, 2, 62, 100
5, 12320, Note_on_c, 2, 66, 100
5, 12358, Note_on_c, 2, 62, 0
5, 12358, Note_on_c, 2, 66, 0
5, 12440, Note_on_c, 2, 62, 100
5, 12440, Note_on_c, 2, 66, 100
5, 12478, Note_on_c, 2, 62, 0
5, 12478, Note_on_c, 2, 66, 0
5, 12600, Note_on_c, 2, 59, 100
5, 12600, Note_on_c, 2, 64, 100
5, 12678, Note_on_c, 2, 59, 0
5, 12678, Note_on_c, 2, 64, 0
5, 12800, Note_on_c, 2, 59, 100
5, 12800, Note_on_c, 2, 64, 100
5, 12838, Note_on_c, 2, 59, 0
5, 12838, Note_on_c, 2, 64, 0
5, 12920, Note_on_c, 2, 59, 100
5, 12920, Note_on_c, 2, 64, 100
5, 12958, Note_on_c, 2, 59, 0
5, 12958, Note_on_c, 2, 64, 0
5, 13080, Note_on_c, 2, 62, 100
5, 13080, Note_on_c, 2, 67, 100
5, 13158, Note_on_c, 2, 62, 0
5, 13158, Note_on_c, 2, 67, 0
5, 13280, Note_on_c, 2, 62, 100
5, 13280, Note_on_c, 2, 67, 100
5, 13318, Note_on_c, 2, 62, 0
5, 13318, Note_on_c, 2, 67, 0
5, 13400, Note_on_c, 2, 62, 100
5, 13400, Note_on_c, 2, 67, 100
5, 13438, Note_on_c, 2, 62, 0
5, 13438, Note_on_c, 2, 67, 0
5, 13560, Note_on_c, 2, 66, 100
5, 13560, Note_on_c, 2, 62, 100
5, 13638, Note_on_c, 2, 66, 0
5, 13638, Note_on_c, 2, 62, 0
5, 13760, Note_on_c, 2, 62, 100
5, 13760, Note_on_c, 2, 66, 100
5, 13798, Note_on_c, 2, 62, 0
5, 13798, Note_on_c, 2, 66, 0
5, 13880, Note_on_c, 2, 62, 100
5, 13880, Note_on_c, 2, 66, 100
5, 13918, Note_on_c, 2, 62, 0
5, 13918, Note_on_c, 2, 66, 0
5, 13920, Note_on_c, 2, 47, 93
5, 13921, Note_on_c, 2, 54, 92
5, 13922, Note_on_c, 2, 59, 91
5, 13923, Note_on_c, 2, 62, 90
5, 13925, Note_on_c, 2, 66, 89
5, 14118, Note_on_c, 2, 47, 0
5, 14119, Note_on_c, 2, 54, 0
5, 14120, Note_on_c, 2, 59, 0
5, 14120, Note_on_c, 2, 47, 93
5, 14121, Note_on_c, 2, 62, 0
5, 14121, Note_on_c, 2, 54, 92
5, 14122, Note_on_c, 2, 59, 91
5, 14123, Note_on_c, 2, 66, 0
5, 14123, Note_on_c, 2, 62, 90
5, 14125, Note_on_c, 2, 66, 89
5, 14278, Note_on_c, 2, 47, 0
5, 14279, Note_on_c, 2, 54, 0
5, 14280, Note_on_c, 2, 59, 0
5, 14281, Note_on_c, 2, 62, 0
5, 14283, Note_on_c, 2, 66, 0
5, 14400, Note_on_c, 2, 43, 93
5, 14401, Note_on_c, 2, 47, 92
5, 14402, Note_on_c, 2, 50, 91
5, 14403, Note_on_c, 2, 55, 90
5, 14405, Note_on_c, 2, 59, 89
5, 14406, Note_on_c, 2, 64, 88
5, 14598, Note_on_c, 2, 43, 0
5, 14599, Note_on_c, 2, 47, 0
5, 14600, Note_on_c, 2, 50, 0
5, 14600, Note_on_c, 2, 43, 93
5, 14601, Note_on_c, 2, 55, 0
5, 14601, Note_on_c, 2, 47, 92
5, 14602, Note_on_c, 2, 50, 91
5, 14603, Note_on_c, 2, 59, 0
5, 14603, Note_on_c, 2, 55, 90
5, 14604, Note_on_c, 2, 64, 0
5, 14605, Note_on_c, 2, 59, 89
5, 14606, Note_on_c, 2, 64, 88
5, 14758, Note_on_c, 2, 43, 0
5, 14759, Note_on_c, 2, 47, 0
5, 14760, Note_on_c, 2, 50, 0
5, 14761, Note_on_c, 2, 55, 0
5, 14763, Note_on_c, 2, 59, 0
5, 14764, Note_on_c, 2, 64, 0
5, 14880, Note_on_c, 2, 47, 93
5, 14881, Note_on_c, 2, 54, 92
5, 14882, Note_on_c, 2, 59, 91
5, 14883, Note_on_c, 2, 62, 90
5, 14885, Note_on_c, 2, 66, 89
5, 15078, Note_on_c, 2, 47, 0
5, 15079, Note_on_c, 2, 54, 0
5, 15080, Note_on_c, 2, 59, 0
5, 15080, Note_on_c, 2, 47, 93
5, 15081, Note_on_c, 2, 62, 0
5, 15081, Note_on_c, 2, 54, 92
5, 15082, Note_on_c, 2, 59, 91
5, 15083, Note_on_c, 2, 66, 0
5, 15083, Note_on_c, 2, 62, 90
5, 15085, Note_on_c, 2, 66, 89
5, 15238, Note_on_c, 2, 47, 0
5, 15239, Note_on_c, 2, 54, 0
5, 15240, Note_on_c, 2, 59, 0
5, 15241, Note_on_c, 2, 62, 0
5, 15243, Note_on_c, 2, 66, 0
5, 15360, Note_on_c, 2, 40, 93
5, 15361, Note_on_c, 2, 47, 92
5, 15362, Note_on_c, 2, 52, 91
5, 15363, Note_on_c, 2, 56, 90
5, 15365, Note_on_c, 2, 59, 89
5, 15366, Note_on_c, 2, 64, 88
5, 15558, Note_on_c, 2, 40, 0
5, 15559, Note_on_c, 2, 47, 0
5, 15560, Note_on_c, 2, 52, 0
5, 15560, Note_on_c, 2, 40, 93
5, 15561, Note_on_c, 2, 56, 0
5, 15561, Note_on_c, 2, 47, 92
5, 15562, Note_on_c, 2, 52, 91
5, 15563, Note_on_c, 2, 59, 0
5, 15563, Note_on_c, 2, 56, 90
5, 15564, Note_on_c, 2, 64, 0
5, 15565, Note_on_c, 2, 59, 89
5, 15566, Note_on_c, 2, 64, 88
5, 15718, Note_on_c, 2, 40, 0
5, 15719, Note_on_c, 2, 47, 0
5, 15720, Note_on_c, 2, 52, 0
5, 15721, Note_on_c, 2, 56, 0
5, 15723, Note_on_c, 2, 59, 0
5, 15724, Note_on_c, 2, 64, 0
5, 15960, Note_on_c, 2, 66, 100
5, 15960, Note_on_c, 2, 62, 100
5, 16038, Note_on_c, 2, 66, 0
5, 16038, Note_on_c, 2, 62, 0
5, 16160, Note_on_c, 2, 66, 100
5, 16160, Note_on_c, 2, 62, 100
5, 16198, Note_on_c, 2, 66, 0
5, 16198, Note_on_c, 2, 62, 0
5, 16280, Note_on_c, 2, 62, 100
5, 16280, Note_on_c, 2, 66, 100
5, 16318, Note_on_c, 2, 62, 0
5, 16318, Note_on_c, 2, 66, 0
5, 16440, Note_on_c, 2, 59, 100
5, 16440, Note_on_c, 2, 64, 100
5, 16518, Note_on_c, 2, 59, 0
5, 16518, Note_on_c, 2, 64, 0
5, 16640, Note_on_c, 2, 64, 100
5, 16640, Note_on_c, 2, 59, 100
5, 16678, Note_on_c, 2, 64, 0
5, 16678, Note_on_c, 2, 59, 0
5, 16760, Note_on_c, 2, 64, 100
5, 16760, Note_on_c, 2, 59, 100
5, 16798, Note_on_c, 2, 64, 0
5, 16798, Note_on_c, 2, 59, 0
5, 16920, Note_on_c, 2, 67, 100
5, 16920, Note_on_c, 2, 62, 100
5, 16998, Note_on_c, 2, 67, 0
5, 16998, Note_on_c, 2, 62, 0
5, 17120, Note_on_c, 2, 67, 100
5, 17120, Note_on_c, 2, 62, 100
5, 17158, Note_on_c, 2, 67, 0
5, 17158, Note_on_c, 2, 62, 0
5, 17240, Note_on_c, 2, 62, 100
5, 17240, Note_on_c, 2, 67, 100
5, 17278, Note_on_c, 2, 62, 0
5, 17278, Note_on_c, 2, 67, 0
5, 17400, Note_on_c, 2, 62, 100
5, 17400, Note_on_c, 2, 66, 100
5, 17478, Note_on_c, 2, 62, 0
5, 17478, Note_on_c, 2, 66, 0
5, 17600, Note_on_c, 2, 62, 100
5, 17600, Note_on_c, 2, 66, 100
5, 17638, Note_on_c, 2, 62, 0
5, 17638, Note_on_c, 2, 66, 0
5, 17720, Note_on_c, 2, 62, 100
5, 17720, Note_on_c, 2, 66, 100
5, 17758, Note_on_c, 2, 62, 0
5, 17758, Note_on_c, 2, 66, 0
5, 17880, Note_on_c, 2, 40, 88
5, 17881, Note_on_c, 2, 45, 87
5, 17882, Note_on_c, 2, 52, 86
5, 17883, Note_on_c, 2, 57, 86
5, 17885, Note_on_c, 2, 61, 85
5, 17886, Note_on_c, 2, 64, 84
5, 18198, Note_on_c, 2, 40, 0
5, 18199, Note_on_c, 2, 45, 0
5, 18200, Note_on_c, 2, 52, 0
5, 18200, Note_on_c, 2, 40, 88
5, 18201, Note_on_c, 2, 57, 0
5, 18201, Note_on_c, 2, 45, 87
5, 18202, Note_on_c, 2, 52, 86
5, 18203, Note_on_c, 2, 61, 0
5, 18203, Note_on_c, 2, 57, 86
5, 18204, Note_on_c, 2, 64, 0
5, 18205, Note_on_c, 2, 61, 85
5, 18206, Note_on_c, 2, 64, 84
5, 18238, Note_on_c, 2, 40, 0
5, 18239, Note_on_c, 2, 45, 0
5, 18240, Note_on_c, 2, 52, 0
5, 18240, Note_on_c, 2, 40, 88
5, 18241, Note_on_c, 2, 57, 0
5, 18241, Note_on_c, 2, 45, 87
5, 18242, Note_on_c, 2, 52, 86
5, 18243, Note_on_c, 2, 61, 0
5, 18243, Note_on_c, 2, 57, 86
5, 18244, Note_on_c, 2, 64, 0
5, 18245, Note_on_c, 2, 61, 85
5, 18246, Note_on_c, 2, 64, 84
5, 18358, Note_on_c, 2, 40, 0
5, 18359, Note_on_c, 2, 45, 0
5, 18360, Note_on_c, 2, 52, 0
5, 18360, Note_on_c, 2, 40, 88
5, 18361, Note_on_c, 2, 57, 0
5, 18361, Note_on_c, 2, 45, 87
5, 18362, Note_on_c, 2, 52, 86
5, 18363, Note_on_c, 2, 61, 0
5, 18363, Note_on_c, 2, 57, 86
5, 18364, Note_on_c, 2, 64, 0
5, 18365, Note_on_c, 2, 61, 85
5, 18366, Note_on_c, 2, 64, 84
5, 18478, Note_on_c, 2, 40, 0
5, 18479, Note_on_c, 2, 45, 0
5, 18480, Note_on_c, 2, 52, 0
5, 18480, Note_on_c, 2, 40, 88
5, 18481, Note_on_c, 2, 57, 0
5, 18481, Note_on_c, 2, 45, 87
5, 18482, Note_on_c, 2, 52, 86
5, 18483, Note_on_c, 2, 61, 0
5, 18483, Note_on_c, 2, 57, 86
5, 18484, Note_on_c, 2, 64, 0
5, 18485, Note_on_c, 2, 61, 85
5, 18486, Note_on_c, 2, 64, 84
5, 18718, Note_on_c, 2, 40, 0
5, 18719, Note_on_c, 2, 45, 0
5, 18720, Note_on_c, 2, 52, 0
5, 18720, Note_on_c, 2, 47, 88
5, 18721, Note_on_c, 2, 57, 0
5, 18721, Note_on_c, 2, 54, 87
5, 18722, Note_on_c, 2, 59, 86
5, 18723, Note_on_c, 2, 61, 0
5, 18723, Note_on_c, 2, 62, 86
5, 18724, Note_on_c, 2, 64, 0
5, 18725, Note_on_c, 2, 66, 85
5, 19678, Note_on_c, 2, 47, 0
5, 19679, Note_on_c, 2, 54, 0
5, 19680, Note_on_c, 2, 59, 0
5, 19681, Note_on_c, 2, 62, 0
5, 19683, Note_on_c, 2, 66, 0
5, 19800, Note_on_c, 2, 40, 88
5, 19801, Note_on_c, 2, 47, 87
5, 19802, Note_on_c, 2, 52, 86
5, 19803, Note_on_c, 2, 56, 86
5, 19805, Note_on_c, 2, 59, 85
5, 19806, Note_on_c, 2, 64, 84
5, 20038, Note_on_c, 2, 40, 0
5, 20039, Note_on_c, 2, 47, 0
5, 20040, Note_on_c, 2, 52, 0
5, 20040, Note_on_c, 2, 40, 88
5, 20041, Note_on_c, 2, 56, 0
5, 20041, Note_on_c, 2, 47, 87
5, 20042, Note_on_c, 2, 52, 86
5, 20043, Note_on_c, 2, 59, 0
5, 20043, Note_on_c, 2, 56, 86
5, 20044, Note_on_c, 2, 64, 0
5, 20045, Note_on_c, 2, 59, 85
5, 20046, Note_on_c, 2, 64, 84
5, 20118, Note_on_c, 2, 40, 0
5, 20119, Note_on_c, 2, 47, 0
5, 20120, Note_on_c, 2, 52, 0
5, 20120, Note_on_c, 2, 40, 88
5, 20121, Note_on_c, 2, 56, 0
5, 20121, Note_on_c, 2, 47, 87
5, 20122, Note_on_c, 2, 52, 86
5, 20123, Note_on_c, 2, 59, 0
5, 20123, Note_on_c, 2, 56, 86
5, 20124, Note_on_c, 2, 64, 0
5, 20125, Note_on_c, 2, 59, 85
5, 20126, Note_on_c, 2, 64, 84
5, 20158, Note_on_c, 2, 40, 0
5, 20159, Note_on_c, 2, 47, 0
5, 20160, Note_on_c, 2, 52, 0
5, 20160, Note_on_c, 2, 40, 88
5, 20161, Note_on_c, 2, 56, 0
5, 20161, Note_on_c, 2, 47, 87
5, 20162, Note_on_c, 2, 52, 86
5, 20163, Note_on_c, 2, 59, 0
5, 20163, Note_on_c, 2, 56, 86
5, 20164, Note_on_c, 2, 64, 0
5, 20165, Note_on_c, 2, 59, 85
5, 20166, Note_on_c, 2, 64, 84
5, 20278, Note_on_c, 2, 40, 0
5, 20279, Note_on_c, 2, 47, 0
5, 20280, Note_on_c, 2, 52, 0
5, 20280, Note_on_c, 2, 40, 88
5, 20281, Note_on_c, 2, 56, 0
5, 20281, Note_on_c, 2, 47, 87
5, 20282, Note_on_c, 2, 52, 86
5, 20283, Note_on_c, 2, 59, 0
5, 20283, Note_on_c, 2, 56, 86
5, 20284, Note_on_c, 2, 64, 0
5, 20285, Note_on_c, 2, 59, 85
5, 20286, Note_on_c, 2, 64, 84
5, 20398, Note_on_c, 2, 40, 0
5, 20399, Note_on_c, 2, 47, 0
5, 20400, Note_on_c, 2, 52, 0
5, 20400, Note_on_c, 2, 40, 88
5, 20401, Note_on_c, 2, 56, 0
5, 20401, Note_on_c, 2, 47, 87
5, 20402, Note_on_c, 2, 52, 86
5, 20403, Note_on_c, 2, 59, 0
5, 20403, Note_on_c, 2, 56, 86
5, 20404, Note_on_c, 2, 64, 0
5, 20405, Note_on_c, 2, 59, 85
5, 20406, Note_on_c, 2, 64, 84
5, 20518, Note_on_c, 2, 40, 0
5, 20519, Note_on_c, 2, 47, 0
5, 20520, Note_on_c, 2, 52, 0
5, 20520, Note_on_c, 2, 40, 88
5, 20521, Note_on_c, 2, 56, 0
5, 20521, Note_on_c, 2, 47, 87
5, 20522, Note_on_c, 2, 52, 86
5, 20523, Note_on_c, 2, 59, 0
5, 20523, Note_on_c, 2, 56, 86
5, 20524, Note_on_c, 2, 64, 0
5, 20525, Note_on_c, 2, 59, 85
5, 20526, Note_on_c, 2, 64, 84
5, 20638, Note_on_c, 2, 40, 0
5, 20639, Note_on_c, 2, 47, 0
5, 20640, Note_on_c, 2, 52, 0
5, 20641, Note_on_c, 2, 56, 0
5, 20643, Note_on_c, 2, 59, 0
5, 20644, Note_on_c, 2, 64, 0
5, 20760, Note_on_c, 2, 43, 88
5, 20761, Note_on_c, 2, 47, 87
5, 20762, Note_on_c, 2, 50, 86
5, 20763, Note_on_c, 2, 55, 86
5, 20765, Note_on_c, 2, 59, 85
5, 20766, Note_on_c, 2, 67, 84
5, 20838, Note_on_c, 2, 43, 0
5, 20839, Note_on_c, 2, 47, 0
5, 20840, Note_on_c, 2, 50, 0
5, 20841, Note_on_c, 2, 55, 0
5, 20843, Note_on_c, 2, 59, 0
5, 20844, Note_on_c, 2, 67, 0
5, 20960, Note_on_c, 2, 43, 88
5, 20961, Note_on_c, 2, 47, 87
5, 20962, Note_on_c, 2, 50, 86
5, 20963, Note_on_c, 2, 55, 86
5, 20965, Note_on_c, 2, 59, 85
5, 20966, Note_on_c, 2, 67, 84
5, 20998, Note_on_c, 2, 43, 0
5, 20999, Note_on_c, 2, 47, 0
5, 21000, Note_on_c, 2, 50, 0
5, 21001, Note_on_c, 2, 55, 0
5, 21003, Note_on_c, 2, 59, 0
5, 21004, Note_on_c, 2, 67, 0
5, 21080, Note_on_c, 2, 43, 88
5, 21081, Note_on_c, 2, 47, 87
5, 21082, Note_on_c, 2, 50, 86
5, 21083, Note_on_c, 2, 55, 86
5, 21085, Note_on_c, 2, 59, 85
5, 21086, Note_on_c, 2, 67, 84
5, 21118, Note_on_c, 2, 43, 0
5, 21119, Note_on_c, 2, 47, 0
5, 21120, Note_on_c, 2, 50, 0
5, 21121, Note_on_c, 2, 55, 0
5, 21123, Note_on_c, 2, 59, 0
5, 21124, Note_on_c, 2, 67, 0
5, 21240, Note_on_c, 2, 40, 88
5, 21241, Note_on_c, 2, 45, 87
5, 21242, Note_on_c, 2, 52, 86
5, 21243, Note_on_c, 2, 57, 86
5, 21245, Note_on_c, 2, 61, 85
5, 21246, Note_on_c, 2, 64, 84
5, 21318, Note_on_c, 2, 40, 0
5, 21319, Note_on_c, 2, 45, 0
5, 21320, Note_on_c, 2, 52, 0
5, 21321, Note_on_c, 2, 57, 0
5, 21323, Note_on_c, 2, 61, 0
5, 21324, Note_on_c, 2, 64, 0
5, 21440, Note_on_c, 2, 40, 88
5, 21441, Note_on_c, 2, 45, 87
5, 21442, Note_on_c, 2, 52, 86
5, 21443, Note_on_c, 2, 57, 86
5, 21445, Note_on_c, 2, 61, 85
5, 21446, Note_on_c, 2, 64, 84
5, 21478, Note_on_c, 2, 40, 0
5, 21479, Note_on_c, 2, 45, 0
5, 21480, Note_on_c, 2, 52, 0
5, 21481, Note_on_c, 2, 57, 0
5, 21483, Note_on_c, 2, 61, 0
5, 21484, Note_on_c, 2, 64, 0
5, 21560, Note_on_c, 2, 40, 88
5, 21561, Note_on_c, 2, 45, 87
5, 21562, Note_on_c, 2, 52, 86
5, 21563, Note_on_c, 2, 57, 86
5, 21565, Note_on_c, 2, 61, 85
5, 21566, Note_on_c, 2, 64, 84
5, 21598, Note_on_c, 2, 40, 0
5, 21599, Note_on_c, 2, 45, 0
5, 21600, Note_on_c, 2, 52, 0
5, 21601, Note_on_c, 2, 57, 0
5, 21603, Note_on_c, 2, 61, 0
5, 21604, Note_on_c, 2, 64, 0
5, 21720, Note_on_c, 2, 62, 100
5, 21720, Note_on_c, 2, 66, 100
5, 21798, Note_on_c, 2, 62, 0
5, 21798, Note_on_c, 2, 66, 0
5, 21920, Note_on_c, 2, 62, 100
5, 21920, Note_on_c, 2, 66, 100
5, 21958, Note_on_c, 2, 62, 0
5, 21958, Note_on_c, 2, 66, 0
5, 22040, Note_on_c, 2, 66, 100
5, 22040, Note_on_c, 2, 62, 100
5, 22078, Note_on_c, 2, 66, 0
5, 22078, Note_on_c, 2, 62, 0
5, 22200, Note_on_c, 2, 64, 100
5, 22200, Note_on_c, 2, 59, 100
5, 22278, Note_on_c, 2, 64, 0
5, 22278, Note_on_c, 2, 59, 0
5, 22400, Note_on_c, 2, 59, 100
5, 22400, Note_on_c, 2, 64, 100
5, 22438, Note_on_c, 2, 59, 0
5, 22438, Note_on_c, 2, 64, 0
5, 22520, Note_on_c, 2, 59, 100
5, 22520, Note_on_c, 2, 64, 100
5, 22558, Note_on_c, 2, 59, 0
5, 22558, Note_on_c, 2, 64, 0
5, 22680, Note_on_c, 2, 67, 100
5, 22680, Note_on_c, 2, 62, 100
5, 22758, Note_on_c, 2, 67, 0
5, 22758, Note_on_c, 2, 62, 0
5, 22880, Note_on_c, 2, 67, 100
5, 22880, Note_on_c, 2, 62, 100
5, 22918, Note_on_c, 2, 67, 0
5, 22918, Note_on_c, 2, 62, 0
5, 23000, Note_on_c, 2, 67, 100
5, 23000, Note_on_c, 2, 62, 100
5, 23038, Note_on_c, 2, 67, 0
5, 23038, Note_on_c, 2, 62, 0
5, 23160, Note_on_c, 2, 66, 100
5, 23160, Note_on_c, 2, 62, 100
5, 23238, Note_on_c, 2, 66, 0
5, 23238, Note_on_c, 2, 62, 0
5, 23360, Note_on_c, 2, 66, 100
5, 23360, Note_on_c, 2, 62, 100
5, 23398, Note_on_c, 2, 66, 0
5, 23398, Note_on_c, 2, 62, 0
5, 23480, Note_on_c, 2, 62, 100
5, 23480, Note_on_c, 2, 66, 100
5, 23518, Note_on_c, 2, 62, 0
5, 23518, Note_on_c, 2, 66, 0
5, 23640, Note_on_c, 2, 62, 100
5, 23640, Note_on_c, 2, 66, 100
5, 23718, Note_on_c, 2, 62, 0
5, 23718, Note_on_c, 2, 66, 0
5, 23840, Note_on_c, 2, 66, 100
5, 23840, Note_on_c, 2, 62, 100
5, 23878, Note_on_c, 2, 66, 0
5, 23878, Note_on_c, 2, 62, 0
5, 23960, Note_on_c, 2, 62, 100
5, 23960, Note_on_c, 2, 66, 100
5, 23998, Note_on_c, 2, 62, 0
5, 23998, Note_on_c, 2, 66, 0
5, 24120, Note_on_c, 2, 59, 100
5, 24120, Note_on_c, 2, 64, 100
5, 24198, Note_on_c, 2, 59, 0
5, 24198, Note_on_c, 2, 64, 0
5, 24320, Note_on_c, 2, 64, 100
5, 24320, Note_on_c, 2, 59, 100
5, 24358, Note_on_c, 2, 64, 0
5, 24358, Note_on_c, 2, 59, 0
5, 24440, Note_on_c, 2, 64, 100
5, 24440, Note_on_c, 2, 59, 100
5, 24478, Note_on_c, 2, 64, 0
5, 24478, Note_on_c, 2, 59, 0
5, 24600, Note_on_c, 2, 67, 100
5, 24600, Note_on_c, 2, 62, 100
5, 24678, Note_on_c, 2, 67, 0
5, 24678, Note_on_c, 2, 62, 0
5, 24800, Note_on_c, 2, 62, 100
5, 24800, Note_on_c, 2, 67, 100
5, 24838, Note_on_c, 2, 62, 0
5, 24838, Note_on_c, 2, 67, 0
5, 24920, Note_on_c, 2, 67, 100
5, 24920, Note_on_c, 2, 62, 100
5, 24958, Note_on_c, 2, 67, 0
5, 24958, Note_on_c, 2, 62, 0
5, 25080, Note_on_c, 2, 62, 100
5, 25080, Note_on_c, 2, 66, 100
5, 25158, Note_on_c, 2, 62, 0
5, 25158, Note_on_c, 2, 66, 0
5, 25280, Note_on_c, 2, 62, 100
5, 25280, Note_on_c, 2, 66, 100
5, 25318, Note_on_c, 2, 62, 0
5, 25318, Note_on_c, 2, 66, 0
5, 25400, Note_on_c, 2, 62, 100
5, 25400, Note_on_c, 2, 66, 100
5, 25438, Note_on_c, 2, 62, 0
5, 25438, Note_on_c, 2, 66, 0
5, 25440, Note_on_c, 2, 47, 93
5, 25441, Note_on_c, 2, 54, 92
5, 25442, Note_on_c, 2, 59, 91
5, 25443, Note_on_c, 2, 62, 90
5, 25445, Note_on_c, 2, 66, 89
5, 25638, Note_on_c, 2, 47, 0
5, 25639, Note_on_c, 2, 54, 0
5, 25640, Note_on_c, 2, 59, 0
5, 25640, Note_on_c, 2, 47, 93
5, 25641, Note_on_c, 2, 62, 0
5, 25641, Note_on_c, 2, 54, 92
5, 25642, Note_on_c, 2, 59, 91
5, 25643, Note_on_c, 2, 66, 0
5, 25643, Note_on_c, 2, 62, 90
5, 25645, Note_on_c, 2, 66, 89
5, 25798, Note_on_c, 2, 47, 0
5, 25799, Note_on_c, 2, 54, 0
5, 25800, Note_on_c, 2, 59, 0
5, 25801, Note_on_c, 2, 62, 0
5, 25803, Note_on_c, 2, 66, 0
5, 25920, Note_on_c, 2, 43, 93
5, 25921, Note_on_c, 2, 47, 92
5, 25922, Note_on_c, 2, 50, 91
5, 25923, Note_on_c, 2, 55, 90
5, 25925, Note_on_c, 2, 59, 89
5, 25926, Note_on_c, 2, 64, 88
5, 26118, Note_on_c, 2, 43, 0
5, 26119, Note_on_c, 2, 47, 0
5, 26120, Note_on_c, 2, 50, 0
5, 26120, Note_on_c, 2, 43, 93
5, 26121, Note_on_c, 2, 55, 0
5, 26121, Note_on_c, 2, 47, 92
5, 26122, Note_on_c, 2, 50, 91
5, 26123, Note_on_c, 2, 59, 0
5, 26123, Note_on_c, 2, 55, 90
5, 26124, Note_on_c, 2, 64, 0
5, 26125, Note_on_c, 2, 59, 89
5, 26126, Note_on_c, 2, 64, 88
5, 26278, Note_on_c, 2, 43, 0
5, 26279, Note_on_c, 2, 47, 0
5, 26280, Note_on_c, 2, 50, 0
5, 26281, Note_on_c, 2, 55, 0
5, 26283, Note_on_c, 2, 59, 0
5, 26284, Note_on_c, 2, 64, 0
5, 26400, Note_on_c, 2, 47, 93
5, 26401, Note_on_c, 2, 54, 92
5, 26402, Note_on_c, 2, 59, 91
5, 26403, Note_on_c, 2, 62, 90
5, 26405, Note_on_c, 2, 66, 89
5, 26598, Note_on_c, 2, 47, 0
5, 26599, Note_on_c, 2, 54, 0
5, 26600, Note_on_c, 2, 59, 0
5, 26600, Note_on_c, 2, 47, 93
5, 26601, Note_on_c, 2, 62, 0
5, 26601, Note_on_c, 2, 54, 92
5, 26602, Note_on_c, 2, 59, 91
5, 26603, Note_on_c, 2, 66, 0
5, 26603, Note_on_c, 2, 62, 90
5, 26605, Note_on_c, 2, 66, 89
5, 26758, Note_on_c, 2, 47, 0
5, 26759, Note_on_c, 2, 54, 0
5, 26760, Note_on_c, 2, 59, 0
5, 26761, Note_on_c, 2, 62, 0
5, 26763, Note_on_c, 2, 66, 0
5, 26880, Note_on_c, 2, 40, 93
5, 26881, Note_on_c, 2, 47, 92
5, 26882, Note_on_c, 2, 52, 91
5, 26883, Note_on_c, 2, 56, 90
5, 26885, Note_on_c, 2, 59, 89
5, 26886, Note_on_c, 2, 64, 88
5, 27078, Note_on_c, 2, 40, 0
5, 27079, Note_on_c, 2, 47, 0
5, 27080, Note_on_c, 2, 52, 0
5, 27080, Note_on_c, 2, 40, 93
5, 27081, Note_on_c, 2, 56, 0
5, 27081, Note_on_c, 2, 47, 92
5, 27082, Note_on_c, 2, 52, 91
5, 27083, Note_on_c, 2, 59, 0
5, 27083, Note_on_c, 2, 56, 90
5, 27084, Note_on_c, 2, 64, 0
5, 27085, Note_on_c, 2, 59, 89
5, 27086, Note_on_c, 2, 64, 88
5, 27238, Note_on_c, 2, 40, 0
5, 27239, Note_on_c, 2, 47, 0
5, 27240, Note_on_c, 2, 52, 0
5, 27241, Note_on_c, 2, 56, 0
5, 27243, Note_on_c, 2, 59, 0
5, 27244, Note_on_c, 2, 64, 0
5, 27480, Note_on_c, 2, 66, 100
5, 27480, Note_on_c, 2, 62, 100
5, 27558, Note_on_c, 2, 66, 0
5, 27558, Note_on_c, 2, 62, 0
5, 27680, Note_on_c, 2, 66, 100
5, 27680, Note_on_c, 2, 62, 100
5, 27718, Note_on_c, 2, 66, 0
5, 27718, Note_on_c, 2, 62, 0
5, 27800, Note_on_c, 2, 66, 100
5, 27800, Note_on_c, 2, 62, 100
5, 27838, Note_on_c, 2, 66, 0
5, 27838, Note_on_c, 2, 62, 0
5, 27960, Note_on_c, 2, 59, 100
5, 27960, Note_on_c, 2, 64, 100
5, 28038, Note_on_c, 2, 59, 0
5, 28038, Note_on_c, 2, 64, 0
5, 28160, Note_on_c, 2, 64, 100
5, 28160, Note_on_c, 2, 59, 100
5, 28198, Note_on_c, 2, 64, 0
5, 28198, Note_on_c, 2, 59, 0
5, 28280, Note_on_c, 2, 64, 100
5, 28280, Note_on_c, 2, 59, 100
5, 28318, Note_on_c, 2, 64, 0
5, 28318, Note_on_c, 2, 59, 0
5, 28440, Note_on_c, 2, 67, 100
5, 28440, Note_on_c, 2, 62, 100
5, 28518, Note_on_c, 2, 67, 0
5, 28518, Note_on_c, 2, 62, 0
5, 28640, Note_on_c, 2, 62, 100
5, 28640, Note_on_c, 2, 67, 100
5, 28678, Note_on_c, 2, 62, 0
5, 28678, Note_on_c, 2, 67, 0
5, 28760, Note_on_c, 2, 67, 100
5, 28760, Note_on_c, 2, 62, 100
5, 28798, Note_on_c, 2, 67, 0
5, 28798, Note_on_c, 2, 62, 0
5, 28920, Note_on_c, 2, 62, 100
5, 28920, Note_on_c, 2, 66, 100
5, 28998, Note_on_c, 2, 62, 0
5, 28998, Note_on_c, 2, 66, 0
5, 29120, Note_on_c, 2, 66, 100
5, 29120, Note_on_c, 2, 62, 100
5, 29158, Note_on_c, 2, 66, 0
5, 29158, Note_on_c, 2, 62, 0
5, 29240, Note_on_c, 2, 62, 100
5, 29240, Note_on_c, 2, 66, 100
5, 29278, Note_on_c, 2, 62, 0
5, 29278, Note_on_c, 2, 66, 0
5, 29400, Note_on_c, 2, 40, 88
5, 29401, Note_on_c, 2, 45, 87
5, 29402, Note_on_c, 2, 52, 86
5, 29403, Note_on_c, 2, 57, 86
5, 29405, Note_on_c, 2, 61, 85
5, 29406, Note_on_c, 2, 64, 84
5, 29718, Note_on_c, 2, 40, 0
5, 29719, Note_on_c, 2, 45, 0
5, 29720, Note_on_c, 2, 52, 0
5, 29720, Note_on_c, 2, 40, 88
5, 29721, Note_on_c, 2, 57, 0
5, 29721, Note_on_c, 2, 45, 87
5, 29722, Note_on_c, 2, 52, 86
5, 29723, Note_on_c, 2, 61, 0
5, 29723, Note_on_c, 2, 57, 86
5, 29724, Note_on_c, 2, 64, 0
5, 29725, Note_on_c, 2, 61, 85
5, 29726, Note_on_c, 2, 64, 84
5, 29758, Note_on_c, 2, 40, 0
5, 29759, Note_on_c, 2, 45, 0
5, 29760, Note_on_c, 2, 52, 0
5, 29760, Note_on_c, 2, 40, 88
5, 29761, Note_on_c, 2, 57, 0
5, 29761, Note_on_c, 2, 45, 87
5, 29762, Note_on_c, 2, 52, 86
5, 29763, Note_on_c, 2, 61, 0
5, 29763, Note_on_c, 2, 57, 86
5, 29764, Note_on_c, 2, 64, 0
5, 29765, Note_on_c, 2, 61, 85
5, 29766, Note_on_c, 2, 64, 84
5, 29878, Note_on_c, 2, 40, 0
5, 29879, Note_on_c, 2, 45, 0
5, 29880, Note_on_c, 2, 52, 0
5, 29880, Note_on_c, 2, 40, 88
5, 29881, Note_on_c, 2, 57, 0
5, 29881, Note_on_c, 2, 45, 87
5, 29882, Note_on_c, 2, 52, 86
5, 29883, Note_on_c, 2, 61, 0
5, 29883, Note_on_c, 2, 57, 86
5, 29884, Note_on_c, 2, 64, 0
5, 29885, Note_on_c, 2, 61, 85
5, 29886, Note_on_c, 2, 64, 84
5, 29998, Note_on_c, 2, 40, 0
5, 29999, Note_on_c, 2, 45, 0
5, 30000, Note_on_c, 2, 52, 0
5, 30000, Note_on_c, 2, 40, 88
5, 30001, Note_on_c, 2, 57, 0
5, 30001, Note_on_c, 2, 45, 87
5, 30002, Note_on_c, 2, 52, 86
5, 30003, Note_on_c, 2, 61, 0
5, 30003, Note_on_c, 2, 57, 86
5, 30004, Note_on_c, 2, 64, 0
5, 30005, Note_on_c, 2, 61, 85
5, 30006, Note_on_c, 2, 64, 84
5, 30238, Note_on_c, 2, 40, 0
5, 30239, Note_on_c, 2, 45, 0
5, 30240, Note_on_c, 2, 52, 0
5, 30240, Note_on_c, 2, 47, 88
5, 30241, Note_on_c, 2, 57, 0
5, 30241, Note_on_c, 2, 54, 87
5, 30242, Note_on_c, 2, 59, 86
5, 30243, Note_on_c, 2, 61, 0
5, 30243, Note_on_c, 2, 62, 86
5, 30244, Note_on_c, 2, 64, 0
5, 30245, Note_on_c, 2, 66, 85
5, 31198, Note_on_c, 2, 47, 0
5, 31199, Note_on_c, 2, 54, 0
5, 31200, Note_on_c, 2, 59, 0
5, 31201, Note_on_c, 2, 62, 0
5, 31203, Note_on_c, 2, 66, 0
5, 31320, Note_on_c, 2, 40, 88
5, 31321, Note_on_c, 2, 47, 87
5, 31322, Note_on_c, 2, 52, 86
5, 31323, Note_on_c, 2, 56, 86
5, 31325, Note_on_c, 2, 59, 85
5, 31326, Note_on_c, 2, 64, 84
5, 31558, Note_on_c, 2, 40, 0
5, 31559, Note_on_c, 2, 47, 0
5, 31560, Note_on_c, 2, 52, 0
5, 31560, Note_on_c, 2, 40, 88
5, 31561, Note_on_c, 2, 56, 0
5, 31561, Note_on_c, 2, 47, 87
5, 31562, Note_on_c, 2, 52, 86
5, 31563, Note_on_c, 2, 59, 0
5, 31563, Note_on_c, 2, 56, 86
5, 31564, Note_on_c, 2, 64, 0
5, 31565, Note_on_c, 2, 59, 85
5, 31566, Note_on_c, 2, 64, 84
5, 31638, Note_on_c, 2, 40, 0
5, 31639, Note_on_c, 2, 47, 0
5, 31640, Note_on_c, 2, 52, 0
5, 31640, Note_on_c, 2, 40, 88
5, 31641, Note_on_c, 2, 56, 0
5, 31641, Note_on_c, 2, 47, 87
5, 31642, Note_on_c, 2, 52, 86
5, 31643, Note_on_c, 2, 59, 0
5, 31643, Note_on_c, 2, 56, 86
5, 31644, Note_on_c, 2, 64, 0
5, 31645, Note_on_c, 2, 59, 85
5, 31646, Note_on_c, 2, 64, 84
5, 31678, Note_on_c, 2, 40, 0
5, 31679, Note_on_c, 2, 47, 0
5, 31680, Note_on_c, 2, 52, 0
5, 31680, Note_on_c, 2, 40, 88
5, 31681, Note_on_c, 2, 56, 0
5, 31681, Note_on_c, 2, 47, 87
5, 31682, Note_on_c, 2, 52, 86
5, 31683, Note_on_c, 2, 59, 0
5, 31683, Note_on_c, 2, 56, 86
5, 31684, Note_on_c, 2, 64, 0
5, 31685, Note_on_c, 2, 59, 85
5, 31686, Note_on_c, 2, 64, 84
5, 31798, Note_on_c, 2, 40, 0
5, 31799, Note_on_c, 2, 47, 0
5, 31800, Note_on_c, 2, 52, 0
5, 31800, Note_on_c, 2, 40, 88
5, 31801, Note_on_c, 2, 56, 0
5, 31801, Note_on_c, 2, 47, 87
5, 31802, Note_on_c, 2, 52, 86
5, 31803, Note_on_c, 2, 59, 0
5, 31803, Note_on_c, 2, 56, 86
5, 31804, Note_on_c, 2, 64, 0
5, 31805, Note_on_c, 2, 59, 85
5, 31806, Note_on_c, 2, 64, 84
5, 31918, Note_on_c, 2, 40, 0
5, 31919, Note_on_c, 2, 47, 0
5, 31920, Note_on_c, 2, 52, 0
5, 31920, Note_on_c, 2, 40, 88
5, 31921, Note_on_c, 2, 56, 0
5, 31921, Note_on_c, 2, 47, 87
5, 31922, Note_on_c, 2, 52, 86
5, 31923, Note_on_c, 2, 59, 0
5, 31923, Note_on_c, 2, 56, 86
5, 31924, Note_on_c, 2, 64, 0
5, 31925, Note_on_c, 2, 59, 85
5, 31926, Note_on_c, 2, 64, 84
5, 32038, Note_on_c, 2, 40, 0
5, 32039, Note_on_c, 2, 47, 0
5, 32040, Note_on_c, 2, 52, 0
5, 32040, Note_on_c, 2, 40, 88
5, 32041, Note_on_c, 2, 56, 0
5, 32041, Note_on_c, 2, 47, 87
5, 32042, Note_on_c, 2, 52, 86
5, 32043, Note_on_c, 2, 59, 0
5, 32043, Note_on_c, 2, 56, 86
5, 32044, Note_on_c, 2, 64, 0
5, 32045, Note_on_c, 2, 59, 85
5, 32046, Note_on_c, 2, 64, 84
5, 32158, Note_on_c, 2, 40, 0
5, 32159, Note_on_c, 2, 47, 0
5, 32160, Note_on_c, 2, 52, 0
5, 32161, Note_on_c, 2, 56, 0
5, 32163, Note_on_c, 2, 59, 0
5, 32164, Note_on_c, 2, 64, 0
5, 32280, Note_on_c, 2, 43, 88
5, 32281, Note_on_c, 2, 47, 87
5, 32282, Note_on_c, 2, 50, 86
5, 32283, Note_on_c, 2, 55, 86
5, 32285, Note_on_c, 2, 59, 85
5, 32286, Note_on_c, 2, 67, 84
5, 32358, Note_on_c, 2, 43, 0
5, 32359, Note_on_c, 2, 47, 0
5, 32360, Note_on_c, 2, 50, 0
5, 32361, Note_on_c, 2, 55, 0
5, 32363, Note_on_c, 2, 59, 0
5, 32364, Note_on_c, 2, 67, 0
5, 32480, Note_on_c, 2, 43, 88
5, 32481, Note_on_c, 2, 47, 87
5, 32482, Note_on_c, 2, 50, 86
5, 32483, Note_on_c, 2, 55, 86
5, 32485, Note_on_c, 2, 59, 85
5, 32486, Note_on_c, 2, 67, 84
5, 32518, Note_on_c, 2, 43, 0
5, 32519, Note_on_c, 2, 47, 0
5, 32520, Note_on_c, 2, 50, 0
5, 32521, Note_on_c, 2, 55, 0
5, 32523, Note_on_c, 2, 59, 0
5, 32524, Note_on_c, 2, 67, 0
5, 32600, Note_on_c, 2, 43, 88
5, 32601, Note_on_c, 2, 47, 87
5, 32602, Note_on_c, 2, 50, 86
5, 32603, Note_on_c, 2, 55, 86
5, 32605, Note_on_c, 2, 59, 85
5, 32606, Note_on_c, 2, 67, 84
5, 32638, Note_on_c, 2, 43, 0
5, 32639, Note_on_c, 2, 47, 0
5, 32640, Note_on_c, 2, 50, 0
5, 32641, Note_on_c, 2, 55, 0
5, 32643, Note_on_c, 2, 59, 0
5, 32644, Note_on_c, 2, 67, 0
5, 32760, Note_on_c, 2, 40, 88
5, 32761, Note_on_c, 2, 45, 87
5, 32762, Note_on_c, 2, 52, 86
5, 32763, Note_on_c, 2, 57, 86
5, 32765, Note_on_c, 2, 61, 85
5, 32766, Note_on_c, 2, 64, 84
5, 32838, Note_on_c, 2, 40, 0
5, 32839, Note_on_c, 2, 45, 0
5, 32840, Note_on_c, 2, 52, 0
5, 32841, Note_on_c, 2, 57, 0
5, 32843, Note_on_c, 2, 61, 0
5, 32844, Note_on_c, 2, 64, 0
5, 32960, Note_on_c, 2, 40, 88
5, 32961, Note_on_c, 2, 45, 87
5, 32962, Note_on_c, 2, 52, 86
5, 32963, Note_on_c, 2, 57, 86
5, 32965, Note_on_c, 2, 61, 85
5, 32966, Note_on_c, 2, 64, 84
5, 32998, Note_on_c, 2, 40, 0
5, 32999, Note_on_c, 2, 45, 0
5, 33000, Note_on_c, 2, 52, 0
5, 33001, Note_on_c, 2, 57, 0
5, 33003, Note_on_c, 2, 61, 0
5, 33004, Note_on_c, 2, 64, 0
5, 33080, Note_on_c, 2, 40, 88
5, 33081, Note_on_c, 2, 45, 87
5, 33082, Note_on_c, 2, 52, 86
5, 33083, Note_on_c, 2, 57, 86
5, 33085, Note_on_c, 2, 61, 85
5, 33086, Note_on_c, 2, 64, 84
5, 33118, Note_on_c, 2, 40, 0
5, 33119, Note_on_c, 2, 45, 0
5, 33120, Note_on_c, 2, 52, 0
5, 33121, Note_on_c, 2, 57, 0
5, 33123, Note_on_c, 2, 61, 0
5, 33124, Note_on_c, 2, 64, 0
5, 33240, Note_on_c, 2, 66, 100
5, 33240, Note_on_c, 2, 62, 100
5, 33318, Note_on_c, 2, 66, 0
5, 33318, Note_on_c, 2, 62, 0
5, 33440, Note_on_c, 2, 62, 100
5, 33440, Note_on_c, 2, 66, 100
5, 33478, Note_on_c, 2, 62, 0
5, 33478, Note_on_c, 2, 66, 0
5, 33560, Note_on_c, 2, 62, 100
5, 33560, Note_on_c, 2, 66, 100
5, 33598, Note_on_c, 2, 62, 0
5, 33598, Note_on_c, 2, 66, 0
5, 33720, Note_on_c, 2, 59, 100
5, 33720, Note_on_c, 2, 64, 100
5, 33798, Note_on_c, 2, 59, 0
5, 33798, Note_on_c, 2, 64, 0
5, 33920, Note_on_c, 2, 64, 100
5, 33920, Note_on_c, 2, 59, 100
5, 33958, Note_on_c, 2, 64, 0
5, 33958, Note_on_c, 2, 59, 0
5, 34040, Note_on_c, 2, 64, 100
5, 34040, Note_on_c, 2, 59, 100
5, 34078, Note_on_c, 2, 64, 0
5, 34078, Note_on_c, 2, 59, 0
5, 34200, Note_on_c, 2, 62, 100
5, 34200, Note_on_c, 2, 67, 100
5, 34278, Note_on_c, 2, 62, 0
5, 34278, Note_on_c, 2, 67, 0
5, 34400, Note_on_c, 2, 67, 100
5, 34400, Note_on_c, 2, 62, 100
5, 34438, Note_on_c, 2, 67, 0
5, 34438, Note_on_c, 2, 62, 0
5, 34520, Note_on_c, 2, 62, 100
5, 34520, Note_on_c, 2, 67, 100
5, 34558, Note_on_c, 2, 62, 0
5, 34558, Note_on_c, 2, 67, 0
5, 34680, Note_on_c, 2, 66, 100
5, 34680, Note_on_c, 2, 62, 100
5, 34758, Note_on_c, 2, 66, 0
5, 34758, Note_on_c, 2, 62, 0
5, 34880, Note_on_c, 2, 62, 100
5, 34880, Note_on_c, 2, 66, 100
5, 34918, Note_on_c, 2, 62, 0
5, 34918, Note_on_c, 2, 66, 0
5, 35000, Note_on_c, 2, 62, 100
5, 35000, Note_on_c, 2, 66, 100
5, 35038, Note_on_c, 2, 62, 0
5, 35038, Note_on_c, 2, 66, 0
5, 35160, Note_on_c, 2, 62, 100
5, 35160, Note_on_c, 2, 66, 100
5, 35238, Note_on_c, 2, 62, 0
5, 35238, Note_on_c, 2, 66, 0
5, 35360, Note_on_c, 2, 66, 100
5, 35360, Note_on_c, 2, 62, 100
5, 35398, Note_on_c, 2, 66, 0
5, 35398, Note_on_c, 2, 62, 0
5, 35480, Note_on_c, 2, 66, 100
5, 35480, Note_on_c, 2, 62, 100
5, 35518, Note_on_c, 2, 66, 0
5, 35518, Note_on_c, 2, 62, 0
5, 35640, Note_on_c, 2, 64, 100
5, 35640, Note_on_c, 2, 59, 100
5, 35718, Note_on_c, 2, 64, 0
5, 35718, Note_on_c, 2, 59, 0
5, 35840, Note_on_c, 2, 59, 100
5, 35840, Note_on_c, 2, 64, 100
5, 35878, Note_on_c, 2, 59, 0
5, 35878, Note_on_c, 2, 64, 0
5, 35960, Note_on_c, 2, 64, 100
5, 35960, Note_on_c, 2, 59, 100
5, 35998, Note_on_c, 2, 64, 0
5, 35998, Note_on_c, 2, 59, 0
5, 36120, Note_on_c, 2, 67, 100
5, 36120, Note_on_c, 2, 62, 100
5, 36198, Note_on_c, 2, 67, 0
5, 36198, Note_on_c, 2, 62, 0
5, 36320, Note_on_c, 2, 62, 100
5, 36320, Note_on_c, 2, 67, 100
5, 36358, Note_on_c, 2, 62, 0
5, 36358, Note_on_c, 2, 67, 0
5, 36440, Note_on_c, 2, 62, 100
5, 36440, Note_on_c, 2, 67, 100
5, 36478, Note_on_c, 2, 62, 0
5, 36478, Note_on_c, 2, 67, 0
5, 36600, Note_on_c, 2, 66, 100
5, 36600, Note_on_c, 2, 62, 100
5, 36678, Note_on_c, 2, 66, 0
5, 36678, Note_on_c, 2, 62, 0
5, 36800, Note_on_c, 2, 62, 100
5, 36800, Note_on_c, 2, 66, 100
5, 36838, Note_on_c, 2, 62, 0
5, 36838, Note_on_c, 2, 66, 0
5, 36920, Note_on_c, 2, 62, 100
5, 36920, Note_on_c, 2, 66, 100
5, 36958, Note_on_c, 2, 62, 0
5, 36958, Note_on_c, 2, 66, 0
5, 36960, Note_on_c, 2, 47, 93
5, 36961, Note_on_c, 2, 54, 92
5, 36962, Note_on_c, 2, 59, 91
5, 36963, Note_on_c, 2, 62, 90
5, 36965, Note_on_c, 2, 66, 89
5, 37158, Note_on_c, 2, 47, 0
5, 37159, Note_on_c, 2, 54, 0
5, 37160, Note_on_c, 2, 59, 0
5, 37160, Note_on_c, 2, 47, 93
5, 37161, Note_on_c, 2, 62, 0
5, 37161, Note_on_c, 2, 54, 92
5, 37162, Note_on_c, 2, 59, 91
5, 37163, Note_on_c, 2, 66, 0
5, 37163, Note_on_c, 2, 62, 90
5, 37165, Note_on_c, 2, 66, 89
5, 37318, Note_on_c, 2, 47, 0
5, 37319, Note_on_c, 2, 54, 0
5, 37320, Note_on_c, 2, 59, 0
5, 37321, Note_on_c, 2, 62, 0
5, 37323, Note_on_c, 2, 66, 0
5, 37440, Note_on_c, 2, 43, 93
5, 37441, Note_on_c, 2, 47, 92
5, 37442, Note_on_c, 2, 50, 91
5, 37443, Note_on_c, 2, 55, 90
5, 37445, Note_on_c, 2, 59, 89
5, 37446, Note_on_c, 2, 64, 88
5, 37638, Note_on_c, 2, 43, 0
5, 37639, Note_on_c, 2, 47, 0
5, 37640, Note_on_c, 2, 50, 0
5, 37640, Note_on_c, 2, 43, 93
5, 37641, Note_on_c, 2, 55, 0
5, 37641, Note_on_c, 2, 47, 92
5, 37642, Note_on_c, 2, 50, 91
5, 37643, Note_on_c, 2, 59, 0
5, 37643, Note_on_c, 2, 55, 90
5, 37644, Note_on_c, 2, 64, 0
5, 37645, Note_on_c, 2, 59, 89
5, 37646, Note_on_c, 2, 64, 88
5, 37798, Note_on_c, 2, 43, 0
5, 37799, Note_on_c, 2, 47, 0
5, 37800, Note_on_c, 2, 50, 0
5, 37801, Note_on_c, 2, 55, 0
5, 37803, Note_on_c, 2, 59, 0
5, 37804, Note_on_c, 2, 64, 0
5, 37920, Note_on_c, 2, 47, 93
5, 37921, Note_on_c, 2, 54, 92
5, 37922, Note_on_c, 2, 59, 91
5, 37923, Note_on_c, 2, 62, 90
5, 37925, Note_on_c, 2, 66, 89
5, 38118, Note_on_c, 2, 47, 0
5, 38119, Note_on_c, 2, 54, 0
5, 38120, Note_on_c, 2, 59, 0
5, 38120, Note_on_c, 2, 47, 93
5, 38121, Note_on_c, 2, 62, 0
5, 38121, Note_on_c, 2, 54, 92
5, 38122, Note_on_c, 2, 59, 91
5, 38123, Note_on_c, 2, 66, 0
5, 38123, Note_on_c, 2, 62, 90
5, 38125, Note_on_c, 2, 66, 89
5, 38278, Note_on_c, 2, 47, 0
5, 38279, Note_on_c, 2, 54, 0
5, 38280, Note_on_c, 2, 59, 0
5, 38281, Note_on_c, 2, 62, 0
5, 38283, Note_on_c, 2, 66, 0
5, 38400, Note_on_c, 2, 40, 93
5, 38401, Note_on_c, 2, 47, 92
5, 38402, Note_on_c, 2, 52, 91
5, 38403, Note_on_c, 2, 56, 90
5, 38405, Note_on_c, 2, 59, 89
5, 38406, Note_on_c, 2, 64, 88
5, 38598, Note_on_c, 2, 40, 0
5, 38599, Note_on_c, 2, 47, 0
5, 38600, Note_on_c, 2, 52, 0
5, 38600, Note_on_c, 2, 40, 93
5, 38601, Note_on_c, 2, 56, 0
5, 38601, Note_on_c, 2, 47, 92
5, 38602, Note_on_c, 2, 52, 91
5, 38603, Note_on_c, 2, 59, 0
5, 38603, Note_on_c, 2, 56, 90
5, 38604, Note_on_c, 2, 64, 0
5, 38605, Note_on_c, 2, 59, 89
5, 38606, Note_on_c, 2, 64, 88
5, 38758, Note_on_c, 2, 40, 0
5, 38759, Note_on_c, 2, 47, 0
5, 38760, Note_on_c, 2, 52, 0
5, 38761, Note_on_c, 2, 56, 0
5, 38763, Note_on_c, 2, 59, 0
5, 38764, Note_on_c, 2, 64, 0
5, 39000, Note_on_c, 2, 66, 100
5, 39000, Note_on_c, 2, 62, 100
5, 39078, Note_on_c, 2, 66, 0
5, 39078, Note_on_c, 2, 62, 0
5, 39200, Note_on_c, 2, 66, 100
5, 39200, Note_on_c, 2, 62, 100
5, 39238, Note_on_c, 2, 66, 0
5, 39238, Note_on_c, 2, 62, 0
5, 39320, Note_on_c, 2, 66, 100
5, 39320, Note_on_c, 2, 62, 100
5, 39358, Note_on_c, 2, 66, 0
5, 39358, Note_on_c, 2, 62, 0
5, 39480, Note_on_c, 2, 59, 100
5, 39480, Note_on_c, 2, 64, 100
5, 39558, Note_on_c, 2, 59, 0
5, 39558, Note_on_c, 2, 64, 0
5, 39680, Note_on_c, 2, 64, 100
5, 39680, Note_on_c, 2, 59, 100
5, 39718, Note_on_c, 2, 64, 0
5, 39718, Note_on_c, 2, 59, 0
5, 39800, Note_on_c, 2, 64, 100
5, 39800, Note_on_c, 2, 59, 100
5, 39838, Note_on_c, 2, 64, 0
5, 39838, Note_on_c, 2, 59, 0
5, 39960, Note_on_c, 2, 67, 100
5, 39960, Note_on_c, 2, 62, 100
5, 40038, Note_on_c, 2, 67, 0
5, 40038, Note_on_c, 2, 62, 0
5, 40160, Note_on_c, 2, 67, 100
5, 40160, Note_on_c, 2, 62, 100
5, 40198, Note_on_c, 2, 67, 0
5, 40198, Note_on_c, 2, 62, 0
5, 40280, Note_on_c, 2, 62, 100
5, 40280, Note_on_c, 2, 67, 100
5, 40318, Note_on_c, 2, 62, 0
5, 40318, Note_on_c, 2, 67, 0
5, 40440, Note_on_c, 2, 62, 100
5, 40440, Note_on_c, 2, 66, 100
5, 40518, Note_on_c, 2, 62, 0
5, 40518, Note_on_c, 2, 66, 0
5, 40640, Note_on_c, 2, 62, 100
5, 40640, Note_on_c, 2, 66, 100
5, 40678, Note_on_c, 2, 62, 0
5, 40678, Note_on_c, 2, 66, 0
5, 40760, Note_on_c, 2, 66, 100
5, 40760, Note_on_c, 2, 62, 100
5, 40798, Note_on_c, 2, 66, 0
5, 40798, Note_on_c, 2, 62, 0
5, 40920, Note_on_c, 2, 67, 100
5, 40920, Note_on_c, 2, 62, 100
5, 40998, Note_on_c, 2, 67, 0
5, 40998, Note_on_c, 2, 62, 0
5, 41120, Note_on_c, 2, 62, 100
5, 41120, Note_on_c, 2, 67, 100
5, 41158, Note_on_c, 2, 62, 0
5, 41158, Note_on_c, 2, 67, 0
5, 41240, Note_on_c, 2, 67, 100
5, 41240, Note_on_c, 2, 62, 100
5, 41278, Note_on_c, 2, 67, 0
5, 41278, Note_on_c, 2, 62, 0
5, 41400, Note_on_c, 2, 62, 100
5, 41400, Note_on_c, 2, 66, 100
5, 41478, Note_on_c, 2, 62, 0
5, 41478, Note_on_c, 2, 66, 0
5, 41600, Note_on_c, 2, 62, 100
5, 41600, Note_on_c, 2, 66, 100
5, 41638, Note_on_c, 2, 62, 0
5, 41638, Note_on_c, 2, 66, 0
5, 41720, Note_on_c, 2, 66, 100
5, 41720, Note_on_c, 2, 62, 100
5, 41758, Note_on_c, 2, 66, 0
5, 41758, Note_on_c, 2, 62, 0
5, 41880, Note_on_c, 2, 62, 100
5, 41880, Note_on_c, 2, 67, 100
5, 41958, Note_on_c, 2, 62, 0
5, 41958, Note_on_c, 2, 67, 0
5, 42080, Note_on_c, 2, 62, 100
5, 42080, Note_on_c, 2, 67, 100
5, 42118, Note_on_c, 2, 62, 0
5, 42118, Note_on_c, 2, 67, 0
5, 42200, Note_on_c, 2, 67, 100
5, 42200, Note_on_c, 2, 62, 100
5, 42238, Note_on_c, 2, 67, 0
5, 42238, Note_on_c, 2, 62, 0
5, 42360, Note_on_c, 2, 62, 100
5, 42360, Note_on_c, 2, 66, 100
5, 42438, Note_on_c, 2, 62, 0
5, 42438, Note_on_c, 2, 66, 0
5, 42560, Note_on_c, 2, 66, 100
5, 42560, Note_on_c, 2, 62, 100
5, 42598, Note_on_c, 2, 66, 0
5, 42598, Note_on_c, 2, 62, 0
5, 42680, Note_on_c, 2, 66, 100
5, 42680, Note_on_c, 2, 62, 100
5, 42718, Note_on_c, 2, 66, 0
5, 42718, Note_on_c, 2, 62, 0
5, 42719, Control_c, 2, 93, 127
5, 42719, Control_c, 2, 91, 127
5, 42720, Note_on_c, 2, 62, 100
5, 42721, Note_on_c, 2, 66, 98
5, 42722, Note_on_c, 2, 69, 96
5, 42723, Note_on_c, 2, 64, 93
5, 42918, Note_on_c, 2, 62, 0
5, 42919, Note_on_c, 2, 66, 0
5, 42920, Note_on_c, 2, 69, 0
5, 42920, Note_on_c, 2, 62, 100
5, 42921, Note_on_c, 2, 64, 0
5, 42921, Note_on_c, 2, 66, 98
5, 42922, Note_on_c, 2, 69, 96
5, 42923, Note_on_c, 2, 64, 93
5, 42958, Note_on_c, 2, 62, 0
5, 42959, Note_on_c, 2, 66, 0
5, 42960, Note_on_c, 2, 69, 0
5, 42960, Note_on_c, 2, 62, 100
5, 42961, Note_on_c, 2, 64, 0
5, 42961, Note_on_c, 2, 66, 98
5, 42962, Note_on_c, 2, 69, 96
5, 42963, Note_on_c, 2, 64, 93
5, 43078, Note_on_c, 2, 62, 0
5, 43079, Note_on_c, 2, 66, 0
5, 43080, Note_on_c, 2, 69, 0
5, 43080, Note_on_c, 2, 62, 100
5, 43081, Note_on_c, 2, 64, 0
5, 43081, Note_on_c, 2, 66, 98
5, 43082, Note_on_c, 2, 69, 96
5, 43083, Note_on_c, 2, 64, 93
5, 43198, Note_on_c, 2, 62, 0
5, 43199, Note_on_c, 2, 66, 0
5, 43200, Note_on_c, 2, 69, 0
5, 43200, Note_on_c, 2, 64, 100
5, 43201, Note_on_c, 2, 64, 0
5, 43201, Note_on_c, 2, 68, 98
5, 43202, Note_on_c, 2, 71, 96
5, 43203, Note_on_c, 2, 64, 93
5, 43398, Note_on_c, 2, 64, 0
5, 43399, Note_on_c, 2, 68, 0
5, 43400, Note_on_c, 2, 71, 0
5, 43400, Note_on_c, 2, 64, 100
5, 43401, Note_on_c, 2, 64, 0
5, 43401, Note_on_c, 2, 68, 98
5, 43402, Note_on_c, 2, 71, 96
5, 43403, Note_on_c, 2, 64, 93
5, 43438, Note_on_c, 2, 64, 0
5, 43439, Note_on_c, 2, 68, 0
5, 43440, Note_on_c, 2, 71, 0
5, 43440, Note_on_c, 2, 64, 100
5, 43441, Note_on_c, 2, 64, 0
5, 43441, Note_on_c, 2, 68, 98
5, 43442, Note_on_c, 2, 71, 96
5, 43443, Note_on_c, 2, 64, 93
5, 43558, Note_on_c, 2, 64, 0
5, 43559, Note_on_c, 2, 68, 0
5, 43560, Note_on_c, 2, 71, 0
5, 43560, Note_on_c, 2, 64, 100
5, 43561, Note_on_c, 2, 64, 0
5, 43561, Note_on_c, 2, 68, 98
5, 43562, Note_on_c, 2, 71, 96
5, 43563, Note_on_c, 2, 64, 93
5, 43678, Note_on_c, 2, 64, 0
5, 43679, Note_on_c, 2, 68, 0
5, 43680, Note_on_c, 2, 71, 0
5, 43680, Note_on_c, 2, 67, 100
5, 43681, Note_on_c, 2, 64, 0
5, 43681, Note_on_c, 2, 71, 98
5, 43682, Note_on_c, 2, 74, 96
5, 43683, Note_on_c, 2, 64, 93
5, 43878, Note_on_c, 2, 67, 0
5, 43879, Note_on_c, 2, 71, 0
5, 43880, Note_on_c, 2, 74, 0
5, 43880, Note_on_c, 2, 67, 100
5, 43881, Note_on_c, 2, 64, 0
5, 43881, Note_on_c, 2, 71, 98
5, 43882, Note_on_c, 2, 74, 96
5, 43883, Note_on_c, 2, 64, 93
5, 43918, Note_on_c, 2, 67, 0
5, 43919, Note_on_c, 2, 71, 0
5, 43920, Note_on_c, 2, 74, 0
5, 43920, Note_on_c, 2, 67, 100
5, 43921, Note_on_c, 2, 64, 0
5, 43921, Note_on_c, 2, 71, 98
5, 43922, Note_on_c, 2, 74, 96
5, 43923, Note_on_c, 2, 64, 93
5, 44038, Note_on_c, 2, 67, 0
5, 44039, Note_on_c, 2, 71, 0
5, 44040, Note_on_c, 2, 74, 0
5, 44040, Note_on_c, 2, 67, 100
5, 44041, Note_on_c, 2, 64, 0
5, 44041, Note_on_c, 2, 71, 98
5, 44042, Note_on_c, 2, 74, 96
5, 44043, Note_on_c, 2, 64, 93
5, 44158, Note_on_c, 2, 67, 0
5, 44159, Note_on_c, 2, 71, 0
5, 44160, Note_on_c, 2, 74, 0
5, 44160, Note_on_c, 2, 62, 100
5, 44161, Note_on_c, 2, 64, 0
5, 44161, Note_on_c, 2, 66, 98
5, 44162, Note_on_c, 2, 69, 96
5, 44163, Note_on_c, 2, 64, 93
5, 45598, Note_on_c, 2, 62, 0
5, 45599, Note_on_c, 2, 66, 0
5, 45600, Note_on_c, 2, 69, 0
5, 45601, Note_on_c, 2, 64, 0
5, 45601, End_track
6, 0, Start_track
6, 0, Title_t, "Fretless E. Bass"
6, 0, MIDI_port, 0
6, 121, Control_c, 3, 7, 100
6, 122, Control_c, 3, 10, 74
6, 123, Control_c, 3, 91, 20
6, 125, Control_c, 3, 93, 64
6, 126, Control_c, 3, 32, 0
6, 126, Control_c, 3, 0, 0
6, 126, Program_c, 3, 35
6, 480, Control_c, 3, 7, 20
6, 480, Note_on_c, 3, 50, 115
6, 503, Control_c, 3, 7, 21
6, 516, Note_on_c, 3, 50, 0
6, 520, Note_on_c, 3, 50, 110
6, 527, Control_c, 3, 7, 22
6, 552, Control_c, 3, 7, 23
6, 556, Note_on_c, 3, 50, 0
6, 560, Note_on_c, 3, 50, 110
6, 576, Control_c, 3, 7, 24
6, 596, Note_on_c, 3, 50, 0
6, 600, Control_c, 3, 7, 25
6, 600, Note_on_c, 3, 50, 115
6, 623, Control_c, 3, 7, 26
6, 636, Note_on_c, 3, 50, 0
6, 640, Note_on_c, 3, 50, 110
6, 647, Control_c, 3, 7, 27
6, 672, Control_c, 3, 7, 28
6, 676, Note_on_c, 3, 50, 0
6, 680, Note_on_c, 3, 50, 110
6, 696, Control_c, 3, 7, 29
6, 716, Note_on_c, 3, 50, 0
6, 720, Control_c, 3, 7, 30
6, 720, Note_on_c, 3, 50, 115
6, 743, Control_c, 3, 7, 31
6, 756, Note_on_c, 3, 50, 0
6, 760, Note_on_c, 3, 50, 110
6, 767, Control_c, 3, 7, 32
6, 791, Control_c, 3, 7, 33
6, 796, Note_on_c, 3, 50, 0
6, 800, Note_on_c, 3, 50, 110
6, 816, Control_c, 3, 7, 34
6, 836, Note_on_c, 3, 50, 0
6, 840, Control_c, 3, 7, 35
6, 840, Note_on_c, 3, 50, 115
6, 863, Control_c, 3, 7, 36
6, 876, Note_on_c, 3, 50, 0
6, 880, Note_on_c, 3, 50, 110
6, 887, Control_c, 3, 7, 37
6, 911, Control_c, 3, 7, 38
6, 916, Note_on_c, 3, 50, 0
6, 920, Note_on_c, 3, 50, 110
6, 936, Control_c, 3, 7, 39
6, 956, Note_on_c, 3, 50, 0
6, 960, Control_c, 3, 7, 40
6, 960, Note_on_c, 3, 50, 115
6, 983, Control_c, 3, 7, 41
6, 996, Note_on_c, 3, 50, 0
6, 1000, Note_on_c, 3, 50, 110
6, 1007, Control_c, 3, 7, 42
6, 1031, Control_c, 3, 7, 43
6, 1036, Note_on_c, 3, 50, 0
6, 1040, Note_on_c, 3, 50, 110
6, 1056, Control_c, 3, 7, 44
6, 1076, Note_on_c, 3, 50, 0
6, 1080, Control_c, 3, 7, 45
6, 1080, Note_on_c, 3, 50, 115
6, 1103, Control_c, 3, 7, 46
6, 1116, Note_on_c, 3, 50, 0
6, 1120, Note_on_c, 3, 50, 110
6, 1127, Control_c, 3, 7, 47
6, 1151, Control_c, 3, 7, 48
6, 1156, Note_on_c, 3, 50, 0
6, 1160, Note_on_c, 3, 50, 110
6, 1175, Control_c, 3, 7, 49
6, 1196, Note_on_c, 3, 50, 0
6, 1200, Control_c, 3, 7, 50
6, 1200, Note_on_c, 3, 50, 115
6, 1223, Control_c, 3, 7, 51
6, 1236, Note_on_c, 3, 50, 0
6, 1240, Note_on_c, 3, 50, 110
6, 1247, Control_c, 3, 7, 52
6, 1271, Control_c, 3, 7, 53
6, 1276, Note_on_c, 3, 50, 0
6, 1280, Note_on_c, 3, 50, 110
6, 1295, Control_c, 3, 7, 54
6, 1316, Note_on_c, 3, 50, 0
6, 1320, Control_c, 3, 7, 55
6, 1320, Note_on_c, 3, 50, 115
6, 1343, Control_c, 3, 7, 56
6, 1356, Note_on_c, 3, 50, 0
6, 1360, Note_on_c, 3, 50, 110
6, 1367, Control_c, 3, 7, 57
6, 1391, Control_c, 3, 7, 58
6, 1396, Note_on_c, 3, 50, 0
6, 1400, Note_on_c, 3, 50, 110
6, 1415, Control_c, 3, 7, 59
6, 1436, Note_on_c, 3, 50, 0
6, 1440, Control_c, 3, 7, 60
6, 1440, Note_on_c, 3, 50, 115
6, 1463, Control_c, 3, 7, 61
6, 1476, Note_on_c, 3, 50, 0
6, 1480, Note_on_c, 3, 50, 110
6, 1487, Control_c, 3, 7, 62
6, 1511, Control_c, 3, 7, 63
6, 1516, Note_on_c, 3, 50, 0
6, 1520, Note_on_c, 3, 50, 110
6, 1535, Control_c, 3, 7, 64
6, 1556, Note_on_c, 3, 50, 0
6, 1558, Control_c, 3, 7, 65
6, 1560, Note_on_c, 3, 50, 115
6, 1583, Control_c, 3, 7, 66
6, 1596, Note_on_c, 3, 50, 0
6, 1600, Note_on_c, 3, 50, 110
6, 1607, Control_c, 3, 7, 67
6, 1631, Control_c, 3, 7, 68
6, 1636, Note_on_c, 3, 50, 0
6, 1640, Note_on_c, 3, 50, 110
6, 1655, Control_c, 3, 7, 69
6, 1676, Note_on_c, 3, 50, 0
6, 1678, Control_c, 3, 7, 70
6, 1680, Note_on_c, 3, 50, 115
6, 1703, Control_c, 3, 7, 71
6, 1716, Note_on_c, 3, 50, 0
6, 1720, Note_on_c, 3, 50, 110
6, 1727, Control_c, 3, 7, 72
6, 1751, Control_c, 3, 7, 73
6, 1756, Note_on_c, 3, 50, 0
6, 1760, Note_on_c, 3, 50, 110
6, 1775, Control_c, 3, 7, 74
6, 1796, Note_on_c, 3, 50, 0
6, 1798, Control_c, 3, 7, 75
6, 1800, Note_on_c, 3, 50, 115
6, 1823, Control_c, 3, 7, 76
6, 1836, Note_on_c, 3, 50, 0
6, 1840, Note_on_c, 3, 50, 110
6, 1847, Control_c, 3, 7, 77
6, 1871, Control_c, 3, 7, 78
6, 1876, Note_on_c, 3, 50, 0
6, 1880, Note_on_c, 3, 50, 110
6, 1895, Control_c, 3, 7, 79
6, 1916, Note_on_c, 3, 50, 0
6, 1918, Control_c, 3, 7, 80
6, 1920, Note_on_c, 3, 50, 115
6, 1942, Control_c, 3, 7, 81
6, 1956, Note_on_c, 3, 50, 0
6, 1960, Note_on_c, 3, 50, 110
6, 1967, Control_c, 3, 7, 82
6, 1991, Control_c, 3, 7, 83
6, 1996, Note_on_c, 3, 50, 0
6, 2000, Note_on_c, 3, 50, 110
6, 2015, Control_c, 3, 7, 84
6, 2036, Note_on_c, 3, 50, 0
6, 2038, Control_c, 3, 7, 85
6, 2040, Note_on_c, 3, 50, 115
6, 2062, Control_c, 3, 7, 86
6, 2076, Note_on_c, 3, 50, 0
6, 2080, Note_on_c, 3, 50, 110
6, 2087, Control_c, 3, 7, 87
6, 2111, Control_c, 3, 7, 88
6, 2116, Note_on_c, 3, 50, 0
6, 2120, Note_on_c, 3, 50, 110
6, 2135, Control_c, 3, 7, 89
6, 2156, Note_on_c, 3, 50, 0
6, 2158, Control_c, 3, 7, 90
6, 2160, Note_on_c, 3, 50, 115
6, 2182, Control_c, 3, 7, 91
6, 2196, Note_on_c, 3, 50, 0
6, 2200, Note_on_c, 3, 50, 110
6, 2207, Control_c, 3, 7, 92
6, 2231, Control_c, 3, 7, 93
6, 2236, Note_on_c, 3, 50, 0
6, 2240, Note_on_c, 3, 50, 110
6, 2255, Control_c, 3, 7, 94
6, 2276, Note_on_c, 3, 50, 0
6, 2278, Control_c, 3, 7, 95
6, 2280, Note_on_c, 3, 50, 115
6, 2302, Control_c, 3, 7, 96
6, 2316, Note_on_c, 3, 50, 0
6, 2320, Note_on_c, 3, 50, 110
6, 2326, Control_c, 3, 7, 97
6, 2351, Control_c, 3, 7, 98
6, 2356, Note_on_c, 3, 50, 0
6, 2360, Note_on_c, 3, 50, 110
6, 2375, Control_c, 3, 7, 99
6, 2396, Note_on_c, 3, 50, 0
6, 2398, Control_c, 3, 7, 100
6, 2400, Note_on_c, 3, 50, 110
6, 2511, Note_on_c, 3, 50, 0
6, 2520, Note_on_c, 3, 47, 110
6, 2631, Note_on_c, 3, 47, 0
6, 2640, Note_on_c, 3, 45, 110
6, 2751, Note_on_c, 3, 45, 0
6, 2760, Note_on_c, 3, 42, 110
6, 2871, Note_on_c, 3, 42, 0
6, 2880, Note_on_c, 3, 40, 110
6, 2991, Note_on_c, 3, 40, 0
6, 3000, Note_on_c, 3, 44, 110
6, 3111, Note_on_c, 3, 44, 0
6, 3120, Note_on_c, 3, 47, 110
6, 3231, Note_on_c, 3, 47, 0
6, 3240, Note_on_c, 3, 44, 110
6, 3351, Note_on_c, 3, 44, 0
6, 3360, Note_on_c, 3, 43, 110
6, 3471, Note_on_c, 3, 43, 0
6, 3480, Note_on_c, 3, 47, 110
6, 3591, Note_on_c, 3, 47, 0
6, 3600, Note_on_c, 3, 50, 110
6, 3711, Note_on_c, 3, 50, 0
6, 3720, Note_on_c, 3, 47, 110
6, 3831, Note_on_c, 3, 47, 0
6, 3840, Note_on_c, 3, 50, 110
6, 3951, Note_on_c, 3, 50, 0
6, 3960, Note_on_c, 3, 47, 110
6, 4071, Note_on_c, 3, 47, 0
6, 4080, Note_on_c, 3, 45, 110
6, 4191, Note_on_c, 3, 45, 0
6, 4200, Note_on_c, 3, 42, 110
6, 4311, Note_on_c, 3, 42, 0
6, 4320, Note_on_c, 3, 50, 110
6, 4431, Note_on_c, 3, 50, 0
6, 4440, Note_on_c, 3, 47, 110
6, 4551, Note_on_c, 3, 47, 0
6, 4560, Note_on_c, 3, 45, 110
6, 4671, Note_on_c, 3, 45, 0
6, 4680, Note_on_c, 3, 42, 110
6, 4791, Note_on_c, 3, 42, 0
6, 4800, Note_on_c, 3, 40, 110
6, 4911, Note_on_c, 3, 40, 0
6, 4920, Note_on_c, 3, 44, 110
6, 5031, Note_on_c, 3, 44, 0
6, 5040, Note_on_c, 3, 47, 110
6, 5151, Note_on_c, 3, 47, 0
6, 5160, Note_on_c, 3, 44, 110
6, 5271, Note_on_c, 3, 44, 0
6, 5280, Note_on_c, 3, 43, 110
6, 5391, Note_on_c, 3, 43, 0
6, 5400, Note_on_c, 3, 47, 110
6, 5511, Note_on_c, 3, 47, 0
6, 5520, Note_on_c, 3, 50, 110
6, 5631, Note_on_c, 3, 50, 0
6, 5640, Note_on_c, 3, 47, 110
6, 5751, Note_on_c, 3, 47, 0
6, 5760, Note_on_c, 3, 50, 110
6, 5871, Note_on_c, 3, 50, 0
6, 5880, Note_on_c, 3, 47, 110
6, 5991, Note_on_c, 3, 47, 0
6, 6000, Note_on_c, 3, 45, 110
6, 6111, Note_on_c, 3, 45, 0
6, 6120, Note_on_c, 3, 42, 110
6, 6231, Note_on_c, 3, 42, 0
6, 6240, Note_on_c, 3, 47, 110
6, 6351, Note_on_c, 3, 47, 0
6, 6360, Note_on_c, 3, 47, 110
6, 6433, Note_on_c, 3, 47, 0
6, 6440, Note_on_c, 3, 47, 110
6, 6476, Note_on_c, 3, 47, 0
6, 6480, Note_on_c, 3, 47, 110
6, 6553, Note_on_c, 3, 47, 0
6, 6560, Note_on_c, 3, 47, 110
6, 6596, Note_on_c, 3, 47, 0
6, 6600, Note_on_c, 3, 47, 110
6, 6673, Note_on_c, 3, 47, 0
6, 6680, Note_on_c, 3, 47, 110
6, 6716, Note_on_c, 3, 47, 0
6, 6720, Note_on_c, 3, 43, 110
6, 6831, Note_on_c, 3, 43, 0
6, 6840, Note_on_c, 3, 43, 110
6, 6913, Note_on_c, 3, 43, 0
6, 6920, Note_on_c, 3, 43, 110
6, 6956, Note_on_c, 3, 43, 0
6, 6960, Note_on_c, 3, 43, 110
6, 7033, Note_on_c, 3, 43, 0
6, 7040, Note_on_c, 3, 43, 110
6, 7076, Note_on_c, 3, 43, 0
6, 7080, Note_on_c, 3, 43, 110
6, 7153, Note_on_c, 3, 43, 0
6, 7160, Note_on_c, 3, 43, 110
6, 7196, Note_on_c, 3, 43, 0
6, 7200, Note_on_c, 3, 47, 110
6, 7311, Note_on_c, 3, 47, 0
6, 7320, Note_on_c, 3, 47, 110
6, 7393, Note_on_c, 3, 47, 0
6, 7400, Note_on_c, 3, 47, 110
6, 7436, Note_on_c, 3, 47, 0
6, 7440, Note_on_c, 3, 47, 110
6, 7513, Note_on_c, 3, 47, 0
6, 7520, Note_on_c, 3, 47, 110
6, 7556, Note_on_c, 3, 47, 0
6, 7560, Note_on_c, 3, 47, 110
6, 7633, Note_on_c, 3, 47, 0
6, 7640, Note_on_c, 3, 47, 110
6, 7676, Note_on_c, 3, 47, 0
6, 7680, Note_on_c, 3, 40, 110
6, 7791, Note_on_c, 3, 40, 0
6, 7800, Note_on_c, 3, 40, 110
6, 7873, Note_on_c, 3, 40, 0
6, 7880, Note_on_c, 3, 40, 110
6, 7916, Note_on_c, 3, 40, 0
6, 7920, Note_on_c, 3, 40, 110
6, 7993, Note_on_c, 3, 40, 0
6, 8000, Note_on_c, 3, 40, 110
6, 8036, Note_on_c, 3, 40, 0
6, 8040, Note_on_c, 3, 40, 110
6, 8113, Note_on_c, 3, 40, 0
6, 8120, Note_on_c, 3, 40, 110
6, 8156, Note_on_c, 3, 40, 0
6, 8160, Note_on_c, 3, 50, 110
6, 8271, Note_on_c, 3, 50, 0
6, 8280, Note_on_c, 3, 47, 110
6, 8391, Note_on_c, 3, 47, 0
6, 8400, Note_on_c, 3, 45, 110
6, 8511, Note_on_c, 3, 45, 0
6, 8520, Note_on_c, 3, 42, 110
6, 8631, Note_on_c, 3, 42, 0
6, 8640, Note_on_c, 3, 40, 110
6, 8751, Note_on_c, 3, 40, 0
6, 8760, Note_on_c, 3, 44, 110
6, 8871, Note_on_c, 3, 44, 0
6, 8880, Note_on_c, 3, 47, 110
6, 8991, Note_on_c, 3, 47, 0
6, 9000, Note_on_c, 3, 44, 110
6, 9111, Note_on_c, 3, 44, 0
6, 9120, Note_on_c, 3, 43, 110
6, 9231, Note_on_c, 3, 43, 0
6, 9240, Note_on_c, 3, 47, 110
6, 9351, Note_on_c, 3, 47, 0
6, 9360, Note_on_c, 3, 50, 110
6, 9471, Note_on_c, 3, 50, 0
6, 9480, Note_on_c, 3, 47, 110
6, 9591, Note_on_c, 3, 47, 0
6, 9600, Note_on_c, 3, 50, 110
6, 9711, Note_on_c, 3, 50, 0
6, 9720, Note_on_c, 3, 47, 110
6, 9831, Note_on_c, 3, 47, 0
6, 9840, Note_on_c, 3, 45, 110
6, 9951, Note_on_c, 3, 45, 0
6, 9960, Note_on_c, 3, 42, 110
6, 10071, Note_on_c, 3, 42, 0
6, 10080, Note_on_c, 3, 50, 110
6, 10191, Note_on_c, 3, 50, 0
6, 10200, Note_on_c, 3, 47, 110
6, 10311, Note_on_c, 3, 47, 0
6, 10320, Note_on_c, 3, 45, 110
6, 10431, Note_on_c, 3, 45, 0
6, 10440, Note_on_c, 3, 42, 110
6, 10551, Note_on_c, 3, 42, 0
6, 10560, Note_on_c, 3, 40, 110
6, 10671, Note_on_c, 3, 40, 0
6, 10680, Note_on_c, 3, 44, 110
6, 10791, Note_on_c, 3, 44, 0
6, 10800, Note_on_c, 3, 47, 110
6, 10911, Note_on_c, 3, 47, 0
6, 10920, Note_on_c, 3, 44, 110
6, 11031, Note_on_c, 3, 44, 0
6, 11040, Note_on_c, 3, 43, 110
6, 11151, Note_on_c, 3, 43, 0
6, 11160, Note_on_c, 3, 47, 110
6, 11271, Note_on_c, 3, 47, 0
6, 11280, Note_on_c, 3, 50, 110
6, 11391, Note_on_c, 3, 50, 0
6, 11400, Note_on_c, 3, 47, 110
6, 11511, Note_on_c, 3, 47, 0
6, 11520, Note_on_c, 3, 50, 110
6, 11631, Note_on_c, 3, 50, 0
6, 11640, Note_on_c, 3, 47, 110
6, 11751, Note_on_c, 3, 47, 0
6, 11760, Note_on_c, 3, 45, 110
6, 11871, Note_on_c, 3, 45, 0
6, 11880, Note_on_c, 3, 42, 110
6, 11991, Note_on_c, 3, 42, 0
6, 12000, Note_on_c, 3, 50, 110
6, 12111, Note_on_c, 3, 50, 0
6, 12120, Note_on_c, 3, 47, 110
6, 12231, Note_on_c, 3, 47, 0
6, 12240, Note_on_c, 3, 45, 110
6, 12351, Note_on_c, 3, 45, 0
6, 12360, Note_on_c, 3, 42, 110
6, 12471, Note_on_c, 3, 42, 0
6, 12480, Note_on_c, 3, 40, 110
6, 12591, Note_on_c, 3, 40, 0
6, 12600, Note_on_c, 3, 44, 110
6, 12711, Note_on_c, 3, 44, 0
6, 12720, Note_on_c, 3, 47, 110
6, 12831, Note_on_c, 3, 47, 0
6, 12840, Note_on_c, 3, 44, 110
6, 12951, Note_on_c, 3, 44, 0
6, 12960, Note_on_c, 3, 43, 110
6, 13071, Note_on_c, 3, 43, 0
6, 13080, Note_on_c, 3, 47, 110
6, 13191, Note_on_c, 3, 47, 0
6, 13200, Note_on_c, 3, 50, 110
6, 13311, Note_on_c, 3, 50, 0
6, 13320, Note_on_c, 3, 47, 110
6, 13431, Note_on_c, 3, 47, 0
6, 13440, Note_on_c, 3, 50, 110
6, 13551, Note_on_c, 3, 50, 0
6, 13560, Note_on_c, 3, 47, 110
6, 13671, Note_on_c, 3, 47, 0
6, 13680, Note_on_c, 3, 45, 110
6, 13791, Note_on_c, 3, 45, 0
6, 13800, Note_on_c, 3, 42, 110
6, 13911, Note_on_c, 3, 42, 0
6, 13920, Note_on_c, 3, 47, 110
6, 14031, Note_on_c, 3, 47, 0
6, 14040, Note_on_c, 3, 47, 110
6, 14113, Note_on_c, 3, 47, 0
6, 14120, Note_on_c, 3, 47, 110
6, 14156, Note_on_c, 3, 47, 0
6, 14160, Note_on_c, 3, 47, 110
6, 14233, Note_on_c, 3, 47, 0
6, 14240, Note_on_c, 3, 47, 110
6, 14276, Note_on_c, 3, 47, 0
6, 14280, Note_on_c, 3, 47, 110
6, 14353, Note_on_c, 3, 47, 0
6, 14360, Note_on_c, 3, 47, 110
6, 14396, Note_on_c, 3, 47, 0
6, 14400, Note_on_c, 3, 43, 110
6, 14511, Note_on_c, 3, 43, 0
6, 14520, Note_on_c, 3, 43, 110
6, 14593, Note_on_c, 3, 43, 0
6, 14600, Note_on_c, 3, 43, 110
6, 14636, Note_on_c, 3, 43, 0
6, 14640, Note_on_c, 3, 43, 110
6, 14713, Note_on_c, 3, 43, 0
6, 14720, Note_on_c, 3, 43, 110
6, 14756, Note_on_c, 3, 43, 0
6, 14760, Note_on_c, 3, 43, 110
6, 14833, Note_on_c, 3, 43, 0
6, 14840, Note_on_c, 3, 43, 110
6, 14876, Note_on_c, 3, 43, 0
6, 14880, Note_on_c, 3, 47, 110
6, 14991, Note_on_c, 3, 47, 0
6, 15000, Note_on_c, 3, 47, 110
6, 15073, Note_on_c, 3, 47, 0
6, 15080, Note_on_c, 3, 47, 110
6, 15116, Note_on_c, 3, 47, 0
6, 15120, Note_on_c, 3, 47, 110
6, 15193, Note_on_c, 3, 47, 0
6, 15200, Note_on_c, 3, 47, 110
6, 15236, Note_on_c, 3, 47, 0
6, 15240, Note_on_c, 3, 47, 110
6, 15313, Note_on_c, 3, 47, 0
6, 15320, Note_on_c, 3, 47, 110
6, 15356, Note_on_c, 3, 47, 0
6, 15360, Note_on_c, 3, 40, 110
6, 15471, Note_on_c, 3, 40, 0
6, 15480, Note_on_c, 3, 40, 110
6, 15553, Note_on_c, 3, 40, 0
6, 15560, Note_on_c, 3, 40, 110
6, 15596, Note_on_c, 3, 40, 0
6, 15600, Note_on_c, 3, 40, 110
6, 15673, Note_on_c, 3, 40, 0
6, 15680, Note_on_c, 3, 40, 110
6, 15716, Note_on_c, 3, 40, 0
6, 15720, Note_on_c, 3, 40, 110
6, 15793, Note_on_c, 3, 40, 0
6, 15800, Note_on_c, 3, 40, 110
6, 15836, Note_on_c, 3, 40, 0
6, 15840, Note_on_c, 3, 50, 110
6, 15951, Note_on_c, 3, 50, 0
6, 15960, Note_on_c, 3, 47, 110
6, 16071, Note_on_c, 3, 47, 0
6, 16080, Note_on_c, 3, 45, 110
6, 16191, Note_on_c, 3, 45, 0
6, 16200, Note_on_c, 3, 42, 110
6, 16311, Note_on_c, 3, 42, 0
6, 16320, Note_on_c, 3, 40, 110
6, 16431, Note_on_c, 3, 40, 0
6, 16440, Note_on_c, 3, 44, 110
6, 16551, Note_on_c, 3, 44, 0
6, 16560, Note_on_c, 3, 47, 110
6, 16671, Note_on_c, 3, 47, 0
6, 16680, Note_on_c, 3, 44, 110
6, 16791, Note_on_c, 3, 44, 0
6, 16800, Note_on_c, 3, 43, 110
6, 16911, Note_on_c, 3, 43, 0
6, 16920, Note_on_c, 3, 47, 110
6, 17031, Note_on_c, 3, 47, 0
6, 17040, Note_on_c, 3, 50, 110
6, 17151, Note_on_c, 3, 50, 0
6, 17160, Note_on_c, 3, 47, 110
6, 17271, Note_on_c, 3, 47, 0
6, 17280, Note_on_c, 3, 50, 110
6, 17391, Note_on_c, 3, 50, 0
6, 17400, Note_on_c, 3, 47, 110
6, 17511, Note_on_c, 3, 47, 0
6, 17520, Note_on_c, 3, 45, 110
6, 17631, Note_on_c, 3, 45, 0
6, 17640, Note_on_c, 3, 42, 110
6, 17751, Note_on_c, 3, 42, 0
6, 17760, Note_on_c, 3, 45, 110
6, 17871, Note_on_c, 3, 45, 0
6, 17880, Note_on_c, 3, 45, 110
6, 17991, Note_on_c, 3, 45, 0
6, 18000, Note_on_c, 3, 45, 110
6, 18111, Note_on_c, 3, 45, 0
6, 18120, Note_on_c, 3, 45, 110
6, 18231, Note_on_c, 3, 45, 0
6, 18240, Note_on_c, 3, 45, 110
6, 18351, Note_on_c, 3, 45, 0
6, 18360, Note_on_c, 3, 45, 110
6, 18471, Note_on_c, 3, 45, 0
6, 18480, Note_on_c, 3, 45, 110
6, 18591, Note_on_c, 3, 45, 0
6, 18600, Note_on_c, 3, 45, 110
6, 18711, Note_on_c, 3, 45, 0
6, 18720, Note_on_c, 3, 47, 110
6, 18831, Note_on_c, 3, 47, 0
6, 18840, Note_on_c, 3, 47, 110
6, 18951, Note_on_c, 3, 47, 0
6, 18960, Note_on_c, 3, 47, 110
6, 19071, Note_on_c, 3, 47, 0
6, 19080, Note_on_c, 3, 47, 110
6, 19191, Note_on_c, 3, 47, 0
6, 19200, Note_on_c, 3, 47, 110
6, 19311, Note_on_c, 3, 47, 0
6, 19320, Note_on_c, 3, 47, 110
6, 19431, Note_on_c, 3, 47, 0
6, 19440, Note_on_c, 3, 47, 110
6, 19551, Note_on_c, 3, 47, 0
6, 19560, Note_on_c, 3, 47, 110
6, 19671, Note_on_c, 3, 47, 0
6, 19680, Note_on_c, 3, 40, 110
6, 19791, Note_on_c, 3, 40, 0
6, 19800, Note_on_c, 3, 40, 110
6, 19911, Note_on_c, 3, 40, 0
6, 19920, Note_on_c, 3, 40, 110
6, 20031, Note_on_c, 3, 40, 0
6, 20040, Note_on_c, 3, 40, 110
6, 20151, Note_on_c, 3, 40, 0
6, 20160, Note_on_c, 3, 40, 110
6, 20271, Note_on_c, 3, 40, 0
6, 20280, Note_on_c, 3, 40, 110
6, 20391, Note_on_c, 3, 40, 0
6, 20400, Note_on_c, 3, 40, 110
6, 20511, Note_on_c, 3, 40, 0
6, 20520, Note_on_c, 3, 40, 110
6, 20631, Note_on_c, 3, 40, 0
6, 20640, Note_on_c, 3, 43, 110
6, 20751, Note_on_c, 3, 43, 0
6, 20760, Note_on_c, 3, 43, 110
6, 20871, Note_on_c, 3, 43, 0
6, 20880, Note_on_c, 3, 43, 110
6, 20991, Note_on_c, 3, 43, 0
6, 21000, Note_on_c, 3, 43, 110
6, 21111, Note_on_c, 3, 43, 0
6, 21120, Note_on_c, 3, 45, 110
6, 21231, Note_on_c, 3, 45, 0
6, 21240, Note_on_c, 3, 45, 110
6, 21351, Note_on_c, 3, 45, 0
6, 21360, Note_on_c, 3, 45, 110
6, 21471, Note_on_c, 3, 45, 0
6, 21480, Note_on_c, 3, 45, 110
6, 21591, Note_on_c, 3, 45, 0
6, 21600, Note_on_c, 3, 50, 110
6, 21711, Note_on_c, 3, 50, 0
6, 21720, Note_on_c, 3, 47, 110
6, 21831, Note_on_c, 3, 47, 0
6, 21840, Note_on_c, 3, 45, 110
6, 21951, Note_on_c, 3, 45, 0
6, 21960, Note_on_c, 3, 42, 110
6, 22071, Note_on_c, 3, 42, 0
6, 22080, Note_on_c, 3, 40, 110
6, 22191, Note_on_c, 3, 40, 0
6, 22200, Note_on_c, 3, 44, 110
6, 22311, Note_on_c, 3, 44, 0
6, 22320, Note_on_c, 3, 47, 110
6, 22431, Note_on_c, 3, 47, 0
6, 22440, Note_on_c, 3, 44, 110
6, 22551, Note_on_c, 3, 44, 0
6, 22560, Note_on_c, 3, 43, 110
6, 22671, Note_on_c, 3, 43, 0
6, 22680, Note_on_c, 3, 47, 110
6, 22791, Note_on_c, 3, 47, 0
6, 22800, Note_on_c, 3, 50, 110
6, 22911, Note_on_c, 3, 50, 0
6, 22920, Note_on_c, 3, 47, 110
6, 23031, Note_on_c, 3, 47, 0
6, 23040, Note_on_c, 3, 50, 110
6, 23151, Note_on_c, 3, 50, 0
6, 23160, Note_on_c, 3, 47, 110
6, 23271, Note_on_c, 3, 47, 0
6, 23280, Note_on_c, 3, 45, 110
6, 23391, Note_on_c, 3, 45, 0
6, 23400, Note_on_c, 3, 42, 110
6, 23511, Note_on_c, 3, 42, 0
6, 23520, Note_on_c, 3, 50, 110
6, 23631, Note_on_c, 3, 50, 0
6, 23640, Note_on_c, 3, 47, 110
6, 23751, Note_on_c, 3, 47, 0
6, 23760, Note_on_c, 3, 45, 110
6, 23871, Note_on_c, 3, 45, 0
6, 23880, Note_on_c, 3, 42, 110
6, 23991, Note_on_c, 3, 42, 0
6, 24000, Note_on_c, 3, 40, 110
6, 24111, Note_on_c, 3, 40, 0
6, 24120, Note_on_c, 3, 44, 110
6, 24231, Note_on_c, 3, 44, 0
6, 24240, Note_on_c, 3, 47, 110
6, 24351, Note_on_c, 3, 47, 0
6, 24360, Note_on_c, 3, 44, 110
6, 24471, Note_on_c, 3, 44, 0
6, 24480, Note_on_c, 3, 43, 110
6, 24591, Note_on_c, 3, 43, 0
6, 24600, Note_on_c, 3, 47, 110
6, 24711, Note_on_c, 3, 47, 0
6, 24720, Note_on_c, 3, 50, 110
6, 24831, Note_on_c, 3, 50, 0
6, 24840, Note_on_c, 3, 47, 110
6, 24951, Note_on_c, 3, 47, 0
6, 24960, Note_on_c, 3, 50, 110
6, 25071, Note_on_c, 3, 50, 0
6, 25080, Note_on_c, 3, 47, 110
6, 25191, Note_on_c, 3, 47, 0
6, 25200, Note_on_c, 3, 45, 110
6, 25311, Note_on_c, 3, 45, 0
6, 25320, Note_on_c, 3, 42, 110
6, 25431, Note_on_c, 3, 42, 0
6, 25440, Note_on_c, 3, 47, 110
6, 25551, Note_on_c, 3, 47, 0
6, 25560, Note_on_c, 3, 47, 110
6, 25633, Note_on_c, 3, 47, 0
6, 25640, Note_on_c, 3, 47, 110
6, 25676, Note_on_c, 3, 47, 0
6, 25680, Note_on_c, 3, 47, 110
6, 25753, Note_on_c, 3, 47, 0
6, 25760, Note_on_c, 3, 47, 110
6, 25796, Note_on_c, 3, 47, 0
6, 25800, Note_on_c, 3, 47, 110
6, 25873, Note_on_c, 3, 47, 0
6, 25880, Note_on_c, 3, 47, 110
6, 25916, Note_on_c, 3, 47, 0
6, 25920, Note_on_c, 3, 43, 110
6, 26031, Note_on_c, 3, 43, 0
6, 26040, Note_on_c, 3, 43, 110
6, 26113, Note_on_c, 3, 43, 0
6, 26120, Note_on_c, 3, 43, 110
6, 26156, Note_on_c, 3, 43, 0
6, 26160, Note_on_c, 3, 43, 110
6, 26233, Note_on_c, 3, 43, 0
6, 26240, Note_on_c, 3, 43, 110
6, 26276, Note_on_c, 3, 43, 0
6, 26280, Note_on_c, 3, 43, 110
6, 26353, Note_on_c, 3, 43, 0
6, 26360, Note_on_c, 3, 43, 110
6, 26396, Note_on_c, 3, 43, 0
6, 26400, Note_on_c, 3, 47, 110
6, 26511, Note_on_c, 3, 47, 0
6, 26520, Note_on_c, 3, 47, 110
6, 26593, Note_on_c, 3, 47, 0
6, 26600, Note_on_c, 3, 47, 110
6, 26636, Note_on_c, 3, 47, 0
6, 26640, Note_on_c, 3, 47, 110
6, 26713, Note_on_c, 3, 47, 0
6, 26720, Note_on_c, 3, 47, 110
6, 26756, Note_on_c, 3, 47, 0
6, 26760, Note_on_c, 3, 47, 110
6, 26833, Note_on_c, 3, 47, 0
6, 26840, Note_on_c, 3, 47, 110
6, 26876, Note_on_c, 3, 47, 0
6, 26880, Note_on_c, 3, 40, 110
6, 26991, Note_on_c, 3, 40, 0
6, 27000, Note_on_c, 3, 40, 110
6, 27073, Note_on_c, 3, 40, 0
6, 27080, Note_on_c, 3, 40, 110
6, 27116, Note_on_c, 3, 40, 0
6, 27120, Note_on_c, 3, 40, 110
6, 27193, Note_on_c, 3, 40, 0
6, 27200, Note_on_c, 3, 40, 110
6, 27236, Note_on_c, 3, 40, 0
6, 27240, Note_on_c, 3, 40, 110
6, 27313, Note_on_c, 3, 40, 0
6, 27320, Note_on_c, 3, 40, 110
6, 27356, Note_on_c, 3, 40, 0
6, 27360, Note_on_c, 3, 50, 110
6, 27471, Note_on_c, 3, 50, 0
6, 27480, Note_on_c, 3, 47, 110
6, 27591, Note_on_c, 3, 47, 0
6, 27600, Note_on_c, 3, 45, 110
6, 27711, Note_on_c, 3, 45, 0
6, 27720, Note_on_c, 3, 42, 110
6, 27831, Note_on_c, 3, 42, 0
6, 27840, Note_on_c, 3, 40, 110
6, 27951, Note_on_c, 3, 40, 0
6, 27960, Note_on_c, 3, 44, 110
6, 28071, Note_on_c, 3, 44, 0
6, 28080, Note_on_c, 3, 47, 110
6, 28191, Note_on_c, 3, 47, 0
6, 28200, Note_on_c, 3, 44, 110
6, 28311, Note_on_c, 3, 44, 0
6, 28320, Note_on_c, 3, 43, 110
6, 28431, Note_on_c, 3, 43, 0
6, 28440, Note_on_c, 3, 47, 110
6, 28551, Note_on_c, 3, 47, 0
6, 28560, Note_on_c, 3, 50, 110
6, 28671, Note_on_c, 3, 50, 0
6, 28680, Note_on_c, 3, 47, 110
6, 28791, Note_on_c, 3, 47, 0
6, 28800, Note_on_c, 3, 50, 110
6, 28911, Note_on_c, 3, 50, 0
6, 28920, Note_on_c, 3, 47, 110
6, 29031, Note_on_c, 3, 47, 0
6, 29040, Note_on_c, 3, 45, 110
6, 29151, Note_on_c, 3, 45, 0
6, 29160, Note_on_c, 3, 42, 110
6, 29271, Note_on_c, 3, 42, 0
6, 29280, Note_on_c, 3, 45, 110
6, 29391, Note_on_c, 3, 45, 0
6, 29400, Note_on_c, 3, 45, 110
6, 29511, Note_on_c, 3, 45, 0
6, 29520, Note_on_c, 3, 45, 110
6, 29631, Note_on_c, 3, 45, 0
6, 29640, Note_on_c, 3, 45, 110
6, 29751, Note_on_c, 3, 45, 0
6, 29760, Note_on_c, 3, 45, 110
6, 29871, Note_on_c, 3, 45, 0
6, 29880, Note_on_c, 3, 45, 110
6, 29991, Note_on_c, 3, 45, 0
6, 30000, Note_on_c, 3, 45, 110
6, 30111, Note_on_c, 3, 45, 0
6, 30120, Note_on_c, 3, 45, 110
6, 30231, Note_on_c, 3, 45, 0
6, 30240, Note_on_c, 3, 47, 110
6, 30351, Note_on_c, 3, 47, 0
6, 30360, Note_on_c, 3, 47, 110
6, 30471, Note_on_c, 3, 47, 0
6, 30480, Note_on_c, 3, 47, 110
6, 30591, Note_on_c, 3, 47, 0
6, 30600, Note_on_c, 3, 47, 110
6, 30711, Note_on_c, 3, 47, 0
6, 30720, Note_on_c, 3, 47, 110
6, 30831, Note_on_c, 3, 47, 0
6, 30840, Note_on_c, 3, 47, 110
6, 30951, Note_on_c, 3, 47, 0
6, 30960, Note_on_c, 3, 47, 110
6, 31071, Note_on_c, 3, 47, 0
6, 31080, Note_on_c, 3, 47, 110
6, 31191, Note_on_c, 3, 47, 0
6, 31200, Note_on_c, 3, 40, 110
6, 31311, Note_on_c, 3, 40, 0
6, 31320, Note_on_c, 3, 40, 110
6, 31431, Note_on_c, 3, 40, 0
6, 31440, Note_on_c, 3, 40, 110
6, 31551, Note_on_c, 3, 40, 0
6, 31560, Note_on_c, 3, 40, 110
6, 31671, Note_on_c, 3, 40, 0
6, 31680, Note_on_c, 3, 40, 110
6, 31791, Note_on_c, 3, 40, 0
6, 31800, Note_on_c, 3, 40, 110
6, 31911, Note_on_c, 3, 40, 0
6, 31920, Note_on_c, 3, 40, 110
6, 32031, Note_on_c, 3, 40, 0
6, 32040, Note_on_c, 3, 40, 110
6, 32151, Note_on_c, 3, 40, 0
6, 32160, Note_on_c, 3, 43, 110
6, 32271, Note_on_c, 3, 43, 0
6, 32280, Note_on_c, 3, 43, 110
6, 32391, Note_on_c, 3, 43, 0
6, 32400, Note_on_c, 3, 43, 110
6, 32511, Note_on_c, 3, 43, 0
6, 32520, Note_on_c, 3, 43, 110
6, 32631, Note_on_c, 3, 43, 0
6, 32640, Note_on_c, 3, 45, 110
6, 32751, Note_on_c, 3, 45, 0
6, 32760, Note_on_c, 3, 45, 110
6, 32871, Note_on_c, 3, 45, 0
6, 32880, Note_on_c, 3, 45, 110
6, 32991, Note_on_c, 3, 45, 0
6, 33000, Note_on_c, 3, 45, 110
6, 33111, Note_on_c, 3, 45, 0
6, 33120, Note_on_c, 3, 50, 110
6, 33231, Note_on_c, 3, 50, 0
6, 33240, Note_on_c, 3, 47, 110
6, 33351, Note_on_c, 3, 47, 0
6, 33360, Note_on_c, 3, 45, 110
6, 33471, Note_on_c, 3, 45, 0
6, 33480, Note_on_c, 3, 42, 110
6, 33591, Note_on_c, 3, 42, 0
6, 33600, Note_on_c, 3, 40, 110
6, 33711, Note_on_c, 3, 40, 0
6, 33720, Note_on_c, 3, 44, 110
6, 33831, Note_on_c, 3, 44, 0
6, 33840, Note_on_c, 3, 47, 110
6, 33951, Note_on_c, 3, 47, 0
6, 33960, Note_on_c, 3, 44, 110
6, 34071, Note_on_c, 3, 44, 0
6, 34080, Note_on_c, 3, 43, 110
6, 34191, Note_on_c, 3, 43, 0
6, 34200, Note_on_c, 3, 47, 110
6, 34311, Note_on_c, 3, 47, 0
6, 34320, Note_on_c, 3, 50, 110
6, 34431, Note_on_c, 3, 50, 0
6, 34440, Note_on_c, 3, 47, 110
6, 34551, Note_on_c, 3, 47, 0
6, 34560, Note_on_c, 3, 50, 110
6, 34671, Note_on_c, 3, 50, 0
6, 34680, Note_on_c, 3, 47, 110
6, 34791, Note_on_c, 3, 47, 0
6, 34800, Note_on_c, 3, 45, 110
6, 34911, Note_on_c, 3, 45, 0
6, 34920, Note_on_c, 3, 42, 110
6, 35031, Note_on_c, 3, 42, 0
6, 35040, Note_on_c, 3, 50, 110
6, 35151, Note_on_c, 3, 50, 0
6, 35160, Note_on_c, 3, 47, 110
6, 35271, Note_on_c, 3, 47, 0
6, 35280, Note_on_c, 3, 45, 110
6, 35391, Note_on_c, 3, 45, 0
6, 35400, Note_on_c, 3, 42, 110
6, 35511, Note_on_c, 3, 42, 0
6, 35520, Note_on_c, 3, 40, 110
6, 35631, Note_on_c, 3, 40, 0
6, 35640, Note_on_c, 3, 44, 110
6, 35751, Note_on_c, 3, 44, 0
6, 35760, Note_on_c, 3, 47, 110
6, 35871, Note_on_c, 3, 47, 0
6, 35880, Note_on_c, 3, 44, 110
6, 35991, Note_on_c, 3, 44, 0
6, 36000, Note_on_c, 3, 43, 110
6, 36111, Note_on_c, 3, 43, 0
6, 36120, Note_on_c, 3, 47, 110
6, 36231, Note_on_c, 3, 47, 0
6, 36240, Note_on_c, 3, 50, 110
6, 36351, Note_on_c, 3, 50, 0
6, 36360, Note_on_c, 3, 47, 110
6, 36471, Note_on_c, 3, 47, 0
6, 36480, Note_on_c, 3, 50, 110
6, 36591, Note_on_c, 3, 50, 0
6, 36600, Note_on_c, 3, 47, 110
6, 36711, Note_on_c, 3, 47, 0
6, 36720, Note_on_c, 3, 45, 110
6, 36831, Note_on_c, 3, 45, 0
6, 36840, Note_on_c, 3, 42, 110
6, 36951, Note_on_c, 3, 42, 0
6, 36960, Note_on_c, 3, 47, 110
6, 37071, Note_on_c, 3, 47, 0
6, 37080, Note_on_c, 3, 47, 110
6, 37153, Note_on_c, 3, 47, 0
6, 37160, Note_on_c, 3, 47, 110
6, 37196, Note_on_c, 3, 47, 0
6, 37200, Note_on_c, 3, 47, 110
6, 37273, Note_on_c, 3, 47, 0
6, 37280, Note_on_c, 3, 47, 110
6, 37316, Note_on_c, 3, 47, 0
6, 37320, Note_on_c, 3, 47, 110
6, 37393, Note_on_c, 3, 47, 0
6, 37400, Note_on_c, 3, 47, 110
6, 37436, Note_on_c, 3, 47, 0
6, 37440, Note_on_c, 3, 43, 110
6, 37551, Note_on_c, 3, 43, 0
6, 37560, Note_on_c, 3, 43, 110
6, 37633, Note_on_c, 3, 43, 0
6, 37640, Note_on_c, 3, 43, 110
6, 37676, Note_on_c, 3, 43, 0
6, 37680, Note_on_c, 3, 43, 110
6, 37753, Note_on_c, 3, 43, 0
6, 37760, Note_on_c, 3, 43, 110
6, 37796, Note_on_c, 3, 43, 0
6, 37800, Note_on_c, 3, 43, 110
6, 37873, Note_on_c, 3, 43, 0
6, 37880, Note_on_c, 3, 43, 110
6, 37916, Note_on_c, 3, 43, 0
6, 37920, Note_on_c, 3, 47, 110
6, 38031, Note_on_c, 3, 47, 0
6, 38040, Note_on_c, 3, 47, 110
6, 38113, Note_on_c, 3, 47, 0
6, 38120, Note_on_c, 3, 47, 110
6, 38156, Note_on_c, 3, 47, 0
6, 38160, Note_on_c, 3, 47, 110
6, 38233, Note_on_c, 3, 47, 0
6, 38240, Note_on_c, 3, 47, 110
6, 38276, Note_on_c, 3, 47, 0
6, 38280, Note_on_c, 3, 47, 110
6, 38353, Note_on_c, 3, 47, 0
6, 38360, Note_on_c, 3, 47, 110
6, 38396, Note_on_c, 3, 47, 0
6, 38400, Note_on_c, 3, 40, 110
6, 38511, Note_on_c, 3, 40, 0
6, 38520, Note_on_c, 3, 40, 110
6, 38593, Note_on_c, 3, 40, 0
6, 38600, Note_on_c, 3, 40, 110
6, 38636, Note_on_c, 3, 40, 0
6, 38640, Note_on_c, 3, 40, 110
6, 38713, Note_on_c, 3, 40, 0
6, 38720, Note_on_c, 3, 40, 110
6, 38756, Note_on_c, 3, 40, 0
6, 38760, Note_on_c, 3, 40, 110
6, 38833, Note_on_c, 3, 40, 0
6, 38840, Note_on_c, 3, 40, 110
6, 38876, Note_on_c, 3, 40, 0
6, 38880, Note_on_c, 3, 50, 110
6, 38991, Note_on_c, 3, 50, 0
6, 39000, Note_on_c, 3, 47, 110
6, 39111, Note_on_c, 3, 47, 0
6, 39120, Note_on_c, 3, 45, 110
6, 39231, Note_on_c, 3, 45, 0
6, 39240, Note_on_c, 3, 42, 110
6, 39351, Note_on_c, 3, 42, 0
6, 39360, Note_on_c, 3, 40, 110
6, 39471, Note_on_c, 3, 40, 0
6, 39480, Note_on_c, 3, 44, 110
6, 39591, Note_on_c, 3, 44, 0
6, 39600, Note_on_c, 3, 47, 110
6, 39711, Note_on_c, 3, 47, 0
6, 39720, Note_on_c, 3, 44, 110
6, 39831, Note_on_c, 3, 44, 0
6, 39840, Note_on_c, 3, 43, 110
6, 39951, Note_on_c, 3, 43, 0
6, 39960, Note_on_c, 3, 47, 110
6, 40071, Note_on_c, 3, 47, 0
6, 40080, Note_on_c, 3, 50, 110
6, 40191, Note_on_c, 3, 50, 0
6, 40200, Note_on_c, 3, 47, 110
6, 40311, Note_on_c, 3, 47, 0
6, 40320, Note_on_c, 3, 50, 110
6, 40431, Note_on_c, 3, 50, 0
6, 40440, Note_on_c, 3, 47, 110
6, 40551, Note_on_c, 3, 47, 0
6, 40560, Note_on_c, 3, 45, 110
6, 40671, Note_on_c, 3, 45, 0
6, 40680, Note_on_c, 3, 42, 110
6, 40791, Note_on_c, 3, 42, 0
6, 40800, Note_on_c, 3, 43, 110
6, 40911, Note_on_c, 3, 43, 0
6, 40920, Note_on_c, 3, 47, 110
6, 41031, Note_on_c, 3, 47, 0
6, 41040, Note_on_c, 3, 50, 110
6, 41151, Note_on_c, 3, 50, 0
6, 41160, Note_on_c, 3, 47, 110
6, 41271, Note_on_c, 3, 47, 0
6, 41280, Note_on_c, 3, 50, 110
6, 41391, Note_on_c, 3, 50, 0
6, 41400, Note_on_c, 3, 47, 110
6, 41511, Note_on_c, 3, 47, 0
6, 41520, Note_on_c, 3, 45, 110
6, 41631, Note_on_c, 3, 45, 0
6, 41640, Note_on_c, 3, 42, 110
6, 41751, Note_on_c, 3, 42, 0
6, 41760, Note_on_c, 3, 43, 110
6, 41871, Note_on_c, 3, 43, 0
6, 41880, Note_on_c, 3, 47, 110
6, 41991, Note_on_c, 3, 47, 0
6, 42000, Note_on_c, 3, 50, 110
6, 42111, Note_on_c, 3, 50, 0
6, 42120, Note_on_c, 3, 47, 110
6, 42231, Note_on_c, 3, 47, 0
6, 42240, Note_on_c, 3, 50, 110
6, 42351, Note_on_c, 3, 50, 0
6, 42360, Note_on_c, 3, 47, 110
6, 42471, Note_on_c, 3, 47, 0
6, 42480, Note_on_c, 3, 45, 110
6, 42591, Note_on_c, 3, 45, 0
6, 42600, Note_on_c, 3, 42, 110
6, 42711, Note_on_c, 3, 42, 0
6, 42720, Note_on_c, 3, 50, 110
6, 42756, Note_on_c, 3, 50, 0
6, 42760, Note_on_c, 3, 50, 110
6, 42796, Note_on_c, 3, 50, 0
6, 42800, Note_on_c, 3, 50, 110
6, 42836, Note_on_c, 3, 50, 0
6, 42840, Note_on_c, 3, 50, 110
6, 42876, Note_on_c, 3, 50, 0
6, 42880, Note_on_c, 3, 50, 110
6, 42916, Note_on_c, 3, 50, 0
6, 42920, Note_on_c, 3, 50, 110
6, 42956, Note_on_c, 3, 50, 0
6, 42960, Note_on_c, 3, 50, 110
6, 42996, Note_on_c, 3, 50, 0
6, 43000, Note_on_c, 3, 50, 110
6, 43036, Note_on_c, 3, 50, 0
6, 43040, Note_on_c, 3, 50, 110
6, 43076, Note_on_c, 3, 50, 0
6, 43080, Note_on_c, 3, 50, 110
6, 43116, Note_on_c, 3, 50, 0
6, 43120, Note_on_c, 3, 50, 110
6, 43156, Note_on_c, 3, 50, 0
6, 43160, Note_on_c, 3, 50, 110
6, 43196, Note_on_c, 3, 50, 0
6, 43200, Note_on_c, 3, 50, 110
6, 43236, Note_on_c, 3, 50, 0
6, 43240, Note_on_c, 3, 50, 110
6, 43276, Note_on_c, 3, 50, 0
6, 43280, Note_on_c, 3, 50, 110
6, 43316, Note_on_c, 3, 50, 0
6, 43320, Note_on_c, 3, 50, 110
6, 43356, Note_on_c, 3, 50, 0
6, 43360, Note_on_c, 3, 50, 110
6, 43396, Note_on_c, 3, 50, 0
6, 43400, Note_on_c, 3, 50, 110
6, 43436, Note_on_c, 3, 50, 0
6, 43440, Note_on_c, 3, 50, 110
6, 43476, Note_on_c, 3, 50, 0
6, 43480, Note_on_c, 3, 50, 110
6, 43516, Note_on_c, 3, 50, 0
6, 43520, Note_on_c, 3, 50, 110
6, 43556, Note_on_c, 3, 50, 0
6, 43560, Note_on_c, 3, 50, 110
6, 43596, Note_on_c, 3, 50, 0
6, 43600, Note_on_c, 3, 50, 110
6, 43636, Note_on_c, 3, 50, 0
6, 43640, Note_on_c, 3, 50, 110
6, 43676, Note_on_c, 3, 50, 0
6, 43680, Note_on_c, 3, 50, 110
6, 43716, Note_on_c, 3, 50, 0
6, 43720, Note_on_c, 3, 50, 110
6, 43756, Note_on_c, 3, 50, 0
6, 43760, Note_on_c, 3, 50, 110
6, 43796, Note_on_c, 3, 50, 0
6, 43800, Note_on_c, 3, 50, 110
6, 43836, Note_on_c, 3, 50, 0
6, 43840, Note_on_c, 3, 50, 110
6, 43876, Note_on_c, 3, 50, 0
6, 43880, Note_on_c, 3, 50, 110
6, 43916, Note_on_c, 3, 50, 0
6, 43920, Note_on_c, 3, 50, 110
6, 43956, Note_on_c, 3, 50, 0
6, 43960, Note_on_c, 3, 50, 110
6, 43996, Note_on_c, 3, 50, 0
6, 44000, Note_on_c, 3, 50, 110
6, 44036, Note_on_c, 3, 50, 0
6, 44040, Note_on_c, 3, 50, 110
6, 44076, Note_on_c, 3, 50, 0
6, 44080, Note_on_c, 3, 50, 110
6, 44116, Note_on_c, 3, 50, 0
6, 44120, Note_on_c, 3, 50, 110
6, 44156, Note_on_c, 3, 50, 0
6, 44160, Note_on_c, 3, 50, 110
6, 45495, Note_on_c, 3, 50, 0
6, 45495, End_track
7, 0, Start_track
7, 0, Title_t, "================="
7, 0, MIDI_port, 0
7, 0, End_track
8, 0, Start_track
8, 0, Title_t, "MUSIC & WORDS by:"
8, 0, MIDI_port, 0
8, 0, End_track
9, 0, Start_track
9, 0, Title_t, "John Lennon"
9, 0, MIDI_port, 0
9, 0, End_track
10, 0, Start_track
10, 0, Title_t, "Paul McCartney"
10, 0, MIDI_port, 0
10, 0, End_track
11, 0, Start_track
11, 0, Title_t, "SEQUENCED by:"
11, 0, MIDI_port, 0
11, 0, End_track
12, 0, Start_track
12, 0, Title_t, "DWBarnes 11/19/94"
12, 0, MIDI_port, 0
12, 0, Copyright_t, "MIDI File Copyright 1996, DWBarnes"
12, 1, Text_t, "For Personal Use Only"
12, 2, Text_t, "Modification without MIDI File"
12, 3, Text_t, "author's permission is prohibited."
12, 5, Text_t, "Comments?"
12, 6, Text_t, "Email: DavidB7170@aol.com"
12, 6, End_track
13, 0, Start_track
13, 0, Title_t, "================="
13, 0, MIDI_port, 0
13, 0, End_track
0, 0, End_of_file
