0, 0, Header, 1, 8, 480
1, 0, Start_track
1, 0, Tempo, 750000
1, 0, Title_t, "End Of A Century"
1, 0, Time_signature, 3, 2, 11, 113
1, 5760, Time_signature, 4, 2, 11, 113
1, 5760, Marker_t, "Verse"
1, 21120, Marker_t, "Chorus"
1, 30720, Marker_t, "Verse"
1, 46080, Marker_t, "Chorus"
1, 63360, Time_signature, 3, 2, 11, 113
1, 67680, Time_signature, 4, 2, 11, 113
1, 67680, End_track
2, 0, Start_track
2, 0, Title_t, "Clean Guitar"
2, 0, Control_c, 1, 100, 0
2, 0, Control_c, 1, 101, 0
2, 0, Control_c, 1, 6, 12
2, 0, Pitch_bend_c, 1, 8192
2, 0, Control_c, 1, 101, 0
2, 0, Control_c, 1, 100, 1
2, 0, Control_c, 1, 6, 64
2, 0, Control_c, 1, 38, 0
2, 0, Control_c, 1, 101, 127
2, 0, Control_c, 1, 100, 127
2, 0, Control_c, 0, 100, 0
2, 0, Control_c, 0, 101, 0
2, 0, Control_c, 0, 6, 12
2, 0, Pitch_bend_c, 0, 8192
2, 0, Control_c, 0, 101, 0
2, 0, Control_c, 0, 100, 1
2, 0, Control_c, 0, 6, 64
2, 0, Control_c, 0, 38, 0
2, 0, Control_c, 0, 101, 127
2, 0, Control_c, 0, 100, 127
2, 0, Control_c, 1, 101, 0
2, 0, Control_c, 1, 100, 2
2, 0, Control_c, 1, 6, 64
2, 0, Control_c, 1, 101, 127
2, 0, Control_c, 1, 100, 127
2, 0, Control_c, 0, 101, 0
2, 0, Control_c, 0, 100, 2
2, 0, Control_c, 0, 6, 64
2, 0, Control_c, 0, 101, 127
2, 0, Control_c, 0, 100, 127
2, 0, Program_c, 1, 27
2, 0, Program_c, 0, 27
2, 0, Control_c, 1, 0, 0
2, 0, Control_c, 0, 0, 0
2, 0, Control_c, 1, 7, 88
2, 0, Control_c, 0, 7, 88
2, 0, Control_c, 1, 10, 64
2, 0, Control_c, 0, 10, 64
2, 0, Control_c, 1, 93, 0
2, 0, Control_c, 0, 93, 0
2, 0, Control_c, 1, 91, 0
2, 0, Control_c, 0, 91, 0
2, 0, Control_c, 1, 92, 0
2, 0, Control_c, 0, 92, 0
2, 0, Control_c, 1, 95, 0
2, 0, Control_c, 0, 95, 0
2, 0, Note_on_c, 1, 71, 95
2, 0, Pitch_bend_c, 1, 8192
2, 4, Pitch_bend_c, 1, 8192
2, 8, Pitch_bend_c, 1, 8192
2, 11, Pitch_bend_c, 1, 8192
2, 15, Pitch_bend_c, 1, 8192
2, 19, Pitch_bend_c, 1, 8192
2, 22, Pitch_bend_c, 1, 8192
2, 26, Pitch_bend_c, 1, 8192
2, 30, Pitch_bend_c, 1, 8192
2, 34, Pitch_bend_c, 1, 8192
2, 38, Pitch_bend_c, 1, 8192
2, 41, Pitch_bend_c, 1, 8192
2, 45, Pitch_bend_c, 1, 8192
2, 49, Pitch_bend_c, 1, 8192
2, 52, Pitch_bend_c, 1, 8192
2, 56, Pitch_bend_c, 1, 8192
2, 60, Pitch_bend_c, 1, 8192
2, 64, Pitch_bend_c, 1, 8192
2, 68, Pitch_bend_c, 1, 8192
2, 71, Pitch_bend_c, 1, 8192
2, 75, Pitch_bend_c, 1, 8192
2, 79, Pitch_bend_c, 1, 8192
2, 82, Pitch_bend_c, 1, 8192
2, 86, Pitch_bend_c, 1, 8192
2, 90, Pitch_bend_c, 1, 8192
2, 94, Pitch_bend_c, 1, 8192
2, 98, Pitch_bend_c, 1, 8192
2, 101, Pitch_bend_c, 1, 8192
2, 105, Pitch_bend_c, 1, 8192
2, 109, Pitch_bend_c, 1, 8192
2, 112, Pitch_bend_c, 1, 8192
2, 116, Pitch_bend_c, 1, 8192
2, 120, Pitch_bend_c, 1, 8192
2, 124, Pitch_bend_c, 1, 8192
2, 128, Pitch_bend_c, 1, 8320
2, 131, Pitch_bend_c, 1, 8320
2, 135, Pitch_bend_c, 1, 8320
2, 139, Pitch_bend_c, 1, 8448
2, 142, Pitch_bend_c, 1, 8448
2, 146, Pitch_bend_c, 1, 8448
2, 150, Pitch_bend_c, 1, 8448
2, 154, Pitch_bend_c, 1, 8448
2, 158, Pitch_bend_c, 1, 8448
2, 161, Pitch_bend_c, 1, 8448
2, 165, Pitch_bend_c, 1, 8320
2, 169, Pitch_bend_c, 1, 8320
2, 172, Pitch_bend_c, 1, 8320
2, 176, Pitch_bend_c, 1, 8192
2, 180, Pitch_bend_c, 1, 8192
2, 184, Pitch_bend_c, 1, 8192
2, 188, Pitch_bend_c, 1, 8064
2, 191, Pitch_bend_c, 1, 8064
2, 195, Pitch_bend_c, 1, 8064
2, 199, Pitch_bend_c, 1, 7936
2, 202, Pitch_bend_c, 1, 7936
2, 206, Pitch_bend_c, 1, 7936
2, 210, Pitch_bend_c, 1, 7936
2, 214, Pitch_bend_c, 1, 7936
2, 218, Pitch_bend_c, 1, 7936
2, 221, Pitch_bend_c, 1, 7936
2, 225, Pitch_bend_c, 1, 8064
2, 229, Pitch_bend_c, 1, 8064
2, 232, Pitch_bend_c, 1, 8064
2, 236, Pitch_bend_c, 1, 8192
2, 240, Note_off_c, 1, 71, 80
2, 240, Pitch_bend_c, 1, 8192
2, 240, Note_on_c, 1, 79, 95
2, 240, Pitch_bend_c, 1, 8192
2, 240, Note_on_c, 1, 74, 95
2, 240, Pitch_bend_c, 1, 8192
2, 244, Pitch_bend_c, 1, 8192
2, 244, Pitch_bend_c, 1, 8192
2, 248, Pitch_bend_c, 1, 8192
2, 248, Pitch_bend_c, 1, 8192
2, 251, Pitch_bend_c, 1, 8192
2, 251, Pitch_bend_c, 1, 8192
2, 255, Pitch_bend_c, 1, 8192
2, 255, Pitch_bend_c, 1, 8192
2, 259, Pitch_bend_c, 1, 8192
2, 259, Pitch_bend_c, 1, 8192
2, 262, Pitch_bend_c, 1, 8192
2, 262, Pitch_bend_c, 1, 8192
2, 266, Pitch_bend_c, 1, 8192
2, 266, Pitch_bend_c, 1, 8192
2, 270, Pitch_bend_c, 1, 8192
2, 270, Pitch_bend_c, 1, 8192
2, 274, Pitch_bend_c, 1, 8192
2, 274, Pitch_bend_c, 1, 8192
2, 278, Pitch_bend_c, 1, 8192
2, 278, Pitch_bend_c, 1, 8192
2, 281, Pitch_bend_c, 1, 8192
2, 281, Pitch_bend_c, 1, 8192
2, 285, Pitch_bend_c, 1, 8192
2, 285, Pitch_bend_c, 1, 8192
2, 289, Pitch_bend_c, 1, 8192
2, 289, Pitch_bend_c, 1, 8192
2, 292, Pitch_bend_c, 1, 8192
2, 292, Pitch_bend_c, 1, 8192
2, 296, Pitch_bend_c, 1, 8192
2, 296, Pitch_bend_c, 1, 8192
2, 300, Pitch_bend_c, 1, 8192
2, 300, Pitch_bend_c, 1, 8192
2, 304, Pitch_bend_c, 1, 8192
2, 304, Pitch_bend_c, 1, 8192
2, 308, Pitch_bend_c, 1, 8192
2, 308, Pitch_bend_c, 1, 8192
2, 311, Pitch_bend_c, 1, 8192
2, 311, Pitch_bend_c, 1, 8192
2, 315, Pitch_bend_c, 1, 8192
2, 315, Pitch_bend_c, 1, 8192
2, 319, Pitch_bend_c, 1, 8192
2, 319, Pitch_bend_c, 1, 8192
2, 322, Pitch_bend_c, 1, 8192
2, 322, Pitch_bend_c, 1, 8192
2, 326, Pitch_bend_c, 1, 8192
2, 326, Pitch_bend_c, 1, 8192
2, 330, Pitch_bend_c, 1, 8192
2, 330, Pitch_bend_c, 1, 8192
2, 334, Pitch_bend_c, 1, 8192
2, 334, Pitch_bend_c, 1, 8192
2, 338, Pitch_bend_c, 1, 8192
2, 338, Pitch_bend_c, 1, 8192
2, 341, Pitch_bend_c, 1, 8192
2, 341, Pitch_bend_c, 1, 8192
2, 345, Pitch_bend_c, 1, 8192
2, 345, Pitch_bend_c, 1, 8192
2, 349, Pitch_bend_c, 1, 8192
2, 349, Pitch_bend_c, 1, 8192
2, 352, Pitch_bend_c, 1, 8192
2, 352, Pitch_bend_c, 1, 8192
2, 356, Pitch_bend_c, 1, 8192
2, 356, Pitch_bend_c, 1, 8192
2, 360, Pitch_bend_c, 1, 8192
2, 360, Pitch_bend_c, 1, 8192
2, 364, Pitch_bend_c, 1, 8320
2, 364, Pitch_bend_c, 1, 8192
2, 368, Pitch_bend_c, 1, 8320
2, 368, Pitch_bend_c, 1, 8320
2, 371, Pitch_bend_c, 1, 8320
2, 371, Pitch_bend_c, 1, 8320
2, 375, Pitch_bend_c, 1, 8448
2, 375, Pitch_bend_c, 1, 8448
2, 379, Pitch_bend_c, 1, 8448
2, 379, Pitch_bend_c, 1, 8448
2, 382, Pitch_bend_c, 1, 8448
2, 382, Pitch_bend_c, 1, 8448
2, 386, Pitch_bend_c, 1, 8448
2, 386, Pitch_bend_c, 1, 8448
2, 390, Pitch_bend_c, 1, 8448
2, 390, Pitch_bend_c, 1, 8448
2, 394, Pitch_bend_c, 1, 8448
2, 394, Pitch_bend_c, 1, 8448
2, 398, Pitch_bend_c, 1, 8448
2, 398, Pitch_bend_c, 1, 8448
2, 401, Pitch_bend_c, 1, 8448
2, 401, Pitch_bend_c, 1, 8448
2, 405, Pitch_bend_c, 1, 8448
2, 405, Pitch_bend_c, 1, 8448
2, 409, Pitch_bend_c, 1, 8320
2, 409, Pitch_bend_c, 1, 8320
2, 412, Pitch_bend_c, 1, 8320
2, 412, Pitch_bend_c, 1, 8320
2, 416, Pitch_bend_c, 1, 8320
2, 416, Pitch_bend_c, 1, 8192
2, 420, Pitch_bend_c, 1, 8192
2, 420, Pitch_bend_c, 1, 8192
2, 424, Pitch_bend_c, 1, 8064
2, 424, Pitch_bend_c, 1, 8192
2, 428, Pitch_bend_c, 1, 8064
2, 428, Pitch_bend_c, 1, 8064
2, 431, Pitch_bend_c, 1, 8064
2, 431, Pitch_bend_c, 1, 8064
2, 435, Pitch_bend_c, 1, 7936
2, 435, Pitch_bend_c, 1, 7936
2, 439, Pitch_bend_c, 1, 7936
2, 439, Pitch_bend_c, 1, 7936
2, 442, Pitch_bend_c, 1, 7936
2, 442, Pitch_bend_c, 1, 7936
2, 446, Pitch_bend_c, 1, 7936
2, 446, Pitch_bend_c, 1, 7936
2, 450, Pitch_bend_c, 1, 7936
2, 450, Pitch_bend_c, 1, 7936
2, 454, Pitch_bend_c, 1, 7936
2, 454, Pitch_bend_c, 1, 7936
2, 458, Pitch_bend_c, 1, 7936
2, 458, Pitch_bend_c, 1, 7936
2, 461, Pitch_bend_c, 1, 7936
2, 461, Pitch_bend_c, 1, 7936
2, 465, Pitch_bend_c, 1, 7936
2, 465, Pitch_bend_c, 1, 7936
2, 469, Pitch_bend_c, 1, 8064
2, 469, Pitch_bend_c, 1, 8064
2, 472, Pitch_bend_c, 1, 8064
2, 472, Pitch_bend_c, 1, 8064
2, 476, Pitch_bend_c, 1, 8064
2, 476, Pitch_bend_c, 1, 8192
2, 480, Pitch_bend_c, 1, 8192
2, 480, Pitch_bend_c, 1, 8192
2, 484, Pitch_bend_c, 1, 8192
2, 484, Pitch_bend_c, 1, 8192
2, 488, Pitch_bend_c, 1, 8320
2, 488, Pitch_bend_c, 1, 8320
2, 491, Pitch_bend_c, 1, 8320
2, 491, Pitch_bend_c, 1, 8320
2, 495, Pitch_bend_c, 1, 8320
2, 495, Pitch_bend_c, 1, 8448
2, 499, Pitch_bend_c, 1, 8320
2, 499, Pitch_bend_c, 1, 8448
2, 502, Pitch_bend_c, 1, 8320
2, 502, Pitch_bend_c, 1, 8448
2, 506, Pitch_bend_c, 1, 8320
2, 506, Pitch_bend_c, 1, 8448
2, 510, Pitch_bend_c, 1, 8320
2, 510, Pitch_bend_c, 1, 8448
2, 514, Pitch_bend_c, 1, 8320
2, 514, Pitch_bend_c, 1, 8448
2, 518, Pitch_bend_c, 1, 8320
2, 518, Pitch_bend_c, 1, 8448
2, 521, Pitch_bend_c, 1, 8320
2, 521, Pitch_bend_c, 1, 8448
2, 525, Pitch_bend_c, 1, 8320
2, 525, Pitch_bend_c, 1, 8448
2, 529, Pitch_bend_c, 1, 8320
2, 529, Pitch_bend_c, 1, 8320
2, 532, Pitch_bend_c, 1, 8320
2, 532, Pitch_bend_c, 1, 8320
2, 536, Pitch_bend_c, 1, 8192
2, 536, Pitch_bend_c, 1, 8192
2, 540, Pitch_bend_c, 1, 8192
2, 540, Pitch_bend_c, 1, 8192
2, 544, Pitch_bend_c, 1, 8192
2, 544, Pitch_bend_c, 1, 8192
2, 548, Pitch_bend_c, 1, 8064
2, 548, Pitch_bend_c, 1, 8064
2, 551, Pitch_bend_c, 1, 8064
2, 551, Pitch_bend_c, 1, 8064
2, 555, Pitch_bend_c, 1, 8064
2, 555, Pitch_bend_c, 1, 7936
2, 559, Pitch_bend_c, 1, 8064
2, 559, Pitch_bend_c, 1, 7936
2, 562, Pitch_bend_c, 1, 8064
2, 562, Pitch_bend_c, 1, 7936
2, 566, Pitch_bend_c, 1, 8064
2, 566, Pitch_bend_c, 1, 7936
2, 570, Pitch_bend_c, 1, 8064
2, 570, Pitch_bend_c, 1, 7936
2, 574, Pitch_bend_c, 1, 8064
2, 574, Pitch_bend_c, 1, 7936
2, 578, Pitch_bend_c, 1, 8064
2, 578, Pitch_bend_c, 1, 7936
2, 581, Pitch_bend_c, 1, 8064
2, 581, Pitch_bend_c, 1, 7936
2, 585, Pitch_bend_c, 1, 8064
2, 585, Pitch_bend_c, 1, 7936
2, 589, Pitch_bend_c, 1, 8064
2, 589, Pitch_bend_c, 1, 8064
2, 592, Pitch_bend_c, 1, 8064
2, 592, Pitch_bend_c, 1, 8064
2, 596, Pitch_bend_c, 1, 8192
2, 596, Pitch_bend_c, 1, 8192
2, 600, Pitch_bend_c, 1, 8192
2, 600, Pitch_bend_c, 1, 8192
2, 604, Pitch_bend_c, 1, 8192
2, 604, Pitch_bend_c, 1, 8192
2, 608, Pitch_bend_c, 1, 8320
2, 608, Pitch_bend_c, 1, 8320
2, 611, Pitch_bend_c, 1, 8320
2, 611, Pitch_bend_c, 1, 8320
2, 615, Pitch_bend_c, 1, 8320
2, 615, Pitch_bend_c, 1, 8320
2, 619, Pitch_bend_c, 1, 8320
2, 619, Pitch_bend_c, 1, 8320
2, 622, Pitch_bend_c, 1, 8448
2, 622, Pitch_bend_c, 1, 8448
2, 626, Pitch_bend_c, 1, 8448
2, 626, Pitch_bend_c, 1, 8448
2, 630, Pitch_bend_c, 1, 8448
2, 630, Pitch_bend_c, 1, 8448
2, 634, Pitch_bend_c, 1, 8448
2, 634, Pitch_bend_c, 1, 8448
2, 638, Pitch_bend_c, 1, 8448
2, 638, Pitch_bend_c, 1, 8448
2, 641, Pitch_bend_c, 1, 8320
2, 641, Pitch_bend_c, 1, 8320
2, 645, Pitch_bend_c, 1, 8320
2, 645, Pitch_bend_c, 1, 8320
2, 649, Pitch_bend_c, 1, 8320
2, 649, Pitch_bend_c, 1, 8320
2, 652, Pitch_bend_c, 1, 8320
2, 652, Pitch_bend_c, 1, 8320
2, 656, Pitch_bend_c, 1, 8192
2, 656, Pitch_bend_c, 1, 8192
2, 660, Pitch_bend_c, 1, 8192
2, 660, Pitch_bend_c, 1, 8192
2, 664, Pitch_bend_c, 1, 8192
2, 664, Pitch_bend_c, 1, 8192
2, 668, Pitch_bend_c, 1, 8064
2, 668, Pitch_bend_c, 1, 8064
2, 671, Pitch_bend_c, 1, 8064
2, 671, Pitch_bend_c, 1, 8064
2, 675, Pitch_bend_c, 1, 8064
2, 675, Pitch_bend_c, 1, 8064
2, 679, Pitch_bend_c, 1, 8064
2, 679, Pitch_bend_c, 1, 8064
2, 682, Pitch_bend_c, 1, 7936
2, 682, Pitch_bend_c, 1, 7936
2, 686, Pitch_bend_c, 1, 7936
2, 686, Pitch_bend_c, 1, 7936
2, 690, Pitch_bend_c, 1, 7936
2, 690, Pitch_bend_c, 1, 7936
2, 694, Pitch_bend_c, 1, 7936
2, 694, Pitch_bend_c, 1, 7936
2, 698, Pitch_bend_c, 1, 7936
2, 698, Pitch_bend_c, 1, 7936
2, 701, Pitch_bend_c, 1, 8064
2, 701, Pitch_bend_c, 1, 8064
2, 705, Pitch_bend_c, 1, 8064
2, 705, Pitch_bend_c, 1, 8064
2, 709, Pitch_bend_c, 1, 8064
2, 709, Pitch_bend_c, 1, 8064
2, 712, Pitch_bend_c, 1, 8064
2, 712, Pitch_bend_c, 1, 8064
2, 716, Pitch_bend_c, 1, 8192
2, 716, Pitch_bend_c, 1, 8192
2, 720, Note_off_c, 1, 79, 80
2, 720, Pitch_bend_c, 1, 8192
2, 720, Note_off_c, 1, 74, 80
2, 720, Pitch_bend_c, 1, 8192
2, 720, Note_on_c, 0, 77, 95
2, 720, Note_on_c, 0, 74, 95
2, 960, Note_off_c, 0, 77, 80
2, 960, Note_off_c, 0, 74, 80
2, 960, Note_on_c, 1, 69, 95
2, 960, Pitch_bend_c, 1, 8192
2, 964, Pitch_bend_c, 1, 8192
2, 968, Pitch_bend_c, 1, 8192
2, 971, Pitch_bend_c, 1, 8192
2, 975, Pitch_bend_c, 1, 8192
2, 979, Pitch_bend_c, 1, 8192
2, 982, Pitch_bend_c, 1, 8192
2, 986, Pitch_bend_c, 1, 8192
2, 990, Pitch_bend_c, 1, 8192
2, 994, Pitch_bend_c, 1, 8192
2, 998, Pitch_bend_c, 1, 8192
2, 1001, Pitch_bend_c, 1, 8192
2, 1005, Pitch_bend_c, 1, 8192
2, 1009, Pitch_bend_c, 1, 8192
2, 1012, Pitch_bend_c, 1, 8192
2, 1016, Pitch_bend_c, 1, 8192
2, 1020, Pitch_bend_c, 1, 8192
2, 1024, Pitch_bend_c, 1, 8192
2, 1028, Pitch_bend_c, 1, 8192
2, 1031, Pitch_bend_c, 1, 8192
2, 1035, Pitch_bend_c, 1, 8192
2, 1039, Pitch_bend_c, 1, 8192
2, 1042, Pitch_bend_c, 1, 8192
2, 1046, Pitch_bend_c, 1, 8192
2, 1050, Pitch_bend_c, 1, 8192
2, 1054, Pitch_bend_c, 1, 8192
2, 1058, Pitch_bend_c, 1, 8192
2, 1061, Pitch_bend_c, 1, 8192
2, 1065, Pitch_bend_c, 1, 8192
2, 1069, Pitch_bend_c, 1, 8192
2, 1072, Pitch_bend_c, 1, 8192
2, 1076, Pitch_bend_c, 1, 8192
2, 1080, Pitch_bend_c, 1, 8192
2, 1084, Pitch_bend_c, 1, 8192
2, 1088, Pitch_bend_c, 1, 8320
2, 1091, Pitch_bend_c, 1, 8320
2, 1095, Pitch_bend_c, 1, 8320
2, 1099, Pitch_bend_c, 1, 8320
2, 1102, Pitch_bend_c, 1, 8320
2, 1106, Pitch_bend_c, 1, 8320
2, 1110, Pitch_bend_c, 1, 8320
2, 1114, Pitch_bend_c, 1, 8320
2, 1118, Pitch_bend_c, 1, 8320
2, 1121, Pitch_bend_c, 1, 8320
2, 1125, Pitch_bend_c, 1, 8320
2, 1129, Pitch_bend_c, 1, 8320
2, 1132, Pitch_bend_c, 1, 8320
2, 1136, Pitch_bend_c, 1, 8192
2, 1140, Pitch_bend_c, 1, 8192
2, 1144, Pitch_bend_c, 1, 8192
2, 1148, Pitch_bend_c, 1, 8064
2, 1151, Pitch_bend_c, 1, 8064
2, 1155, Pitch_bend_c, 1, 8064
2, 1159, Pitch_bend_c, 1, 8064
2, 1162, Pitch_bend_c, 1, 8064
2, 1166, Pitch_bend_c, 1, 8064
2, 1170, Pitch_bend_c, 1, 8064
2, 1174, Pitch_bend_c, 1, 8064
2, 1178, Pitch_bend_c, 1, 8064
2, 1181, Pitch_bend_c, 1, 8064
2, 1185, Pitch_bend_c, 1, 8064
2, 1189, Pitch_bend_c, 1, 8064
2, 1192, Pitch_bend_c, 1, 8064
2, 1196, Pitch_bend_c, 1, 8192
2, 1200, Pitch_bend_c, 1, 8192
2, 1204, Pitch_bend_c, 1, 8192
2, 1208, Pitch_bend_c, 1, 8320
2, 1211, Pitch_bend_c, 1, 8320
2, 1215, Pitch_bend_c, 1, 8320
2, 1219, Pitch_bend_c, 1, 8448
2, 1222, Pitch_bend_c, 1, 8448
2, 1226, Pitch_bend_c, 1, 8448
2, 1230, Pitch_bend_c, 1, 8448
2, 1234, Pitch_bend_c, 1, 8448
2, 1238, Pitch_bend_c, 1, 8448
2, 1241, Pitch_bend_c, 1, 8448
2, 1245, Pitch_bend_c, 1, 8320
2, 1249, Pitch_bend_c, 1, 8320
2, 1252, Pitch_bend_c, 1, 8320
2, 1256, Pitch_bend_c, 1, 8192
2, 1260, Pitch_bend_c, 1, 8192
2, 1264, Pitch_bend_c, 1, 8192
2, 1268, Pitch_bend_c, 1, 8064
2, 1271, Pitch_bend_c, 1, 8064
2, 1275, Pitch_bend_c, 1, 8064
2, 1279, Pitch_bend_c, 1, 7936
2, 1282, Pitch_bend_c, 1, 7936
2, 1286, Pitch_bend_c, 1, 7936
2, 1290, Pitch_bend_c, 1, 7936
2, 1294, Pitch_bend_c, 1, 7936
2, 1298, Pitch_bend_c, 1, 7936
2, 1301, Pitch_bend_c, 1, 7936
2, 1305, Pitch_bend_c, 1, 8064
2, 1309, Pitch_bend_c, 1, 8064
2, 1312, Pitch_bend_c, 1, 8064
2, 1316, Pitch_bend_c, 1, 8192
2, 1320, Pitch_bend_c, 1, 8192
2, 1324, Pitch_bend_c, 1, 8320
2, 1328, Pitch_bend_c, 1, 8320
2, 1331, Pitch_bend_c, 1, 8320
2, 1335, Pitch_bend_c, 1, 8448
2, 1339, Pitch_bend_c, 1, 8448
2, 1342, Pitch_bend_c, 1, 8448
2, 1346, Pitch_bend_c, 1, 8448
2, 1350, Pitch_bend_c, 1, 8448
2, 1354, Pitch_bend_c, 1, 8448
2, 1358, Pitch_bend_c, 1, 8448
2, 1361, Pitch_bend_c, 1, 8448
2, 1365, Pitch_bend_c, 1, 8448
2, 1369, Pitch_bend_c, 1, 8320
2, 1372, Pitch_bend_c, 1, 8320
2, 1376, Pitch_bend_c, 1, 8320
2, 1380, Pitch_bend_c, 1, 8192
2, 1384, Pitch_bend_c, 1, 8064
2, 1388, Pitch_bend_c, 1, 8064
2, 1391, Pitch_bend_c, 1, 8064
2, 1395, Pitch_bend_c, 1, 7936
2, 1399, Pitch_bend_c, 1, 7936
2, 1402, Pitch_bend_c, 1, 7936
2, 1406, Pitch_bend_c, 1, 7936
2, 1410, Pitch_bend_c, 1, 7936
2, 1414, Pitch_bend_c, 1, 7936
2, 1418, Pitch_bend_c, 1, 7936
2, 1421, Pitch_bend_c, 1, 7936
2, 1425, Pitch_bend_c, 1, 7936
2, 1429, Pitch_bend_c, 1, 8064
2, 1432, Pitch_bend_c, 1, 8064
2, 1436, Pitch_bend_c, 1, 8064
2, 1440, Note_off_c, 1, 69, 80
2, 1440, Pitch_bend_c, 1, 8192
2, 1440, Note_on_c, 1, 69, 95
2, 1440, Pitch_bend_c, 1, 8192
2, 1444, Pitch_bend_c, 1, 8192
2, 1448, Pitch_bend_c, 1, 8192
2, 1451, Pitch_bend_c, 1, 8192
2, 1455, Pitch_bend_c, 1, 8192
2, 1459, Pitch_bend_c, 1, 8192
2, 1462, Pitch_bend_c, 1, 8192
2, 1466, Pitch_bend_c, 1, 8192
2, 1470, Pitch_bend_c, 1, 8192
2, 1474, Pitch_bend_c, 1, 8192
2, 1478, Pitch_bend_c, 1, 8192
2, 1481, Pitch_bend_c, 1, 8192
2, 1485, Pitch_bend_c, 1, 8192
2, 1489, Pitch_bend_c, 1, 8192
2, 1492, Pitch_bend_c, 1, 8192
2, 1496, Pitch_bend_c, 1, 8192
2, 1500, Pitch_bend_c, 1, 8192
2, 1504, Pitch_bend_c, 1, 8192
2, 1508, Pitch_bend_c, 1, 8192
2, 1511, Pitch_bend_c, 1, 8192
2, 1515, Pitch_bend_c, 1, 8192
2, 1519, Pitch_bend_c, 1, 8192
2, 1522, Pitch_bend_c, 1, 8192
2, 1526, Pitch_bend_c, 1, 8192
2, 1530, Pitch_bend_c, 1, 8192
2, 1534, Pitch_bend_c, 1, 8192
2, 1538, Pitch_bend_c, 1, 8192
2, 1541, Pitch_bend_c, 1, 8192
2, 1545, Pitch_bend_c, 1, 8192
2, 1549, Pitch_bend_c, 1, 8192
2, 1552, Pitch_bend_c, 1, 8192
2, 1556, Pitch_bend_c, 1, 8192
2, 1560, Pitch_bend_c, 1, 8192
2, 1564, Pitch_bend_c, 1, 8192
2, 1568, Pitch_bend_c, 1, 8320
2, 1571, Pitch_bend_c, 1, 8320
2, 1575, Pitch_bend_c, 1, 8320
2, 1579, Pitch_bend_c, 1, 8448
2, 1582, Pitch_bend_c, 1, 8448
2, 1586, Pitch_bend_c, 1, 8448
2, 1590, Pitch_bend_c, 1, 8448
2, 1594, Pitch_bend_c, 1, 8448
2, 1598, Pitch_bend_c, 1, 8448
2, 1601, Pitch_bend_c, 1, 8448
2, 1605, Pitch_bend_c, 1, 8320
2, 1609, Pitch_bend_c, 1, 8320
2, 1612, Pitch_bend_c, 1, 8320
2, 1616, Pitch_bend_c, 1, 8192
2, 1620, Pitch_bend_c, 1, 8192
2, 1624, Pitch_bend_c, 1, 8192
2, 1628, Pitch_bend_c, 1, 8064
2, 1631, Pitch_bend_c, 1, 8064
2, 1635, Pitch_bend_c, 1, 8064
2, 1639, Pitch_bend_c, 1, 7936
2, 1642, Pitch_bend_c, 1, 7936
2, 1646, Pitch_bend_c, 1, 7936
2, 1650, Pitch_bend_c, 1, 7936
2, 1654, Pitch_bend_c, 1, 7936
2, 1658, Pitch_bend_c, 1, 7936
2, 1661, Pitch_bend_c, 1, 7936
2, 1665, Pitch_bend_c, 1, 8064
2, 1669, Pitch_bend_c, 1, 8064
2, 1672, Pitch_bend_c, 1, 8064
2, 1676, Pitch_bend_c, 1, 8192
2, 1680, Note_off_c, 1, 69, 80
2, 1680, Pitch_bend_c, 1, 8192
2, 1680, Note_on_c, 1, 77, 95
2, 1680, Pitch_bend_c, 1, 8192
2, 1680, Note_on_c, 1, 72, 95
2, 1680, Pitch_bend_c, 1, 8192
2, 1684, Pitch_bend_c, 1, 8192
2, 1684, Pitch_bend_c, 1, 8192
2, 1688, Pitch_bend_c, 1, 8192
2, 1688, Pitch_bend_c, 1, 8192
2, 1691, Pitch_bend_c, 1, 8192
2, 1691, Pitch_bend_c, 1, 8192
2, 1695, Pitch_bend_c, 1, 8192
2, 1695, Pitch_bend_c, 1, 8192
2, 1699, Pitch_bend_c, 1, 8192
2, 1699, Pitch_bend_c, 1, 8192
2, 1702, Pitch_bend_c, 1, 8192
2, 1702, Pitch_bend_c, 1, 8192
2, 1706, Pitch_bend_c, 1, 8192
2, 1706, Pitch_bend_c, 1, 8192
2, 1710, Pitch_bend_c, 1, 8192
2, 1710, Pitch_bend_c, 1, 8192
2, 1714, Pitch_bend_c, 1, 8192
2, 1714, Pitch_bend_c, 1, 8192
2, 1718, Pitch_bend_c, 1, 8192
2, 1718, Pitch_bend_c, 1, 8192
2, 1721, Pitch_bend_c, 1, 8192
2, 1721, Pitch_bend_c, 1, 8192
2, 1725, Pitch_bend_c, 1, 8192
2, 1725, Pitch_bend_c, 1, 8192
2, 1729, Pitch_bend_c, 1, 8192
2, 1729, Pitch_bend_c, 1, 8192
2, 1732, Pitch_bend_c, 1, 8192
2, 1732, Pitch_bend_c, 1, 8192
2, 1736, Pitch_bend_c, 1, 8192
2, 1736, Pitch_bend_c, 1, 8192
2, 1740, Pitch_bend_c, 1, 8192
2, 1740, Pitch_bend_c, 1, 8192
2, 1744, Pitch_bend_c, 1, 8192
2, 1744, Pitch_bend_c, 1, 8192
2, 1748, Pitch_bend_c, 1, 8192
2, 1748, Pitch_bend_c, 1, 8192
2, 1751, Pitch_bend_c, 1, 8192
2, 1751, Pitch_bend_c, 1, 8192
2, 1755, Pitch_bend_c, 1, 8192
2, 1755, Pitch_bend_c, 1, 8192
2, 1759, Pitch_bend_c, 1, 8192
2, 1759, Pitch_bend_c, 1, 8192
2, 1762, Pitch_bend_c, 1, 8192
2, 1762, Pitch_bend_c, 1, 8192
2, 1766, Pitch_bend_c, 1, 8192
2, 1766, Pitch_bend_c, 1, 8192
2, 1770, Pitch_bend_c, 1, 8192
2, 1770, Pitch_bend_c, 1, 8192
2, 1774, Pitch_bend_c, 1, 8192
2, 1774, Pitch_bend_c, 1, 8192
2, 1778, Pitch_bend_c, 1, 8192
2, 1778, Pitch_bend_c, 1, 8192
2, 1781, Pitch_bend_c, 1, 8192
2, 1781, Pitch_bend_c, 1, 8192
2, 1785, Pitch_bend_c, 1, 8192
2, 1785, Pitch_bend_c, 1, 8192
2, 1789, Pitch_bend_c, 1, 8192
2, 1789, Pitch_bend_c, 1, 8192
2, 1792, Pitch_bend_c, 1, 8192
2, 1792, Pitch_bend_c, 1, 8192
2, 1796, Pitch_bend_c, 1, 8192
2, 1796, Pitch_bend_c, 1, 8192
2, 1800, Pitch_bend_c, 1, 8192
2, 1800, Pitch_bend_c, 1, 8192
2, 1804, Pitch_bend_c, 1, 8192
2, 1804, Pitch_bend_c, 1, 8192
2, 1808, Pitch_bend_c, 1, 8320
2, 1808, Pitch_bend_c, 1, 8320
2, 1811, Pitch_bend_c, 1, 8320
2, 1811, Pitch_bend_c, 1, 8320
2, 1815, Pitch_bend_c, 1, 8448
2, 1815, Pitch_bend_c, 1, 8320
2, 1819, Pitch_bend_c, 1, 8448
2, 1819, Pitch_bend_c, 1, 8448
2, 1822, Pitch_bend_c, 1, 8448
2, 1822, Pitch_bend_c, 1, 8448
2, 1826, Pitch_bend_c, 1, 8448
2, 1826, Pitch_bend_c, 1, 8448
2, 1830, Pitch_bend_c, 1, 8448
2, 1830, Pitch_bend_c, 1, 8448
2, 1834, Pitch_bend_c, 1, 8448
2, 1834, Pitch_bend_c, 1, 8448
2, 1838, Pitch_bend_c, 1, 8448
2, 1838, Pitch_bend_c, 1, 8448
2, 1841, Pitch_bend_c, 1, 8448
2, 1841, Pitch_bend_c, 1, 8448
2, 1845, Pitch_bend_c, 1, 8448
2, 1845, Pitch_bend_c, 1, 8320
2, 1849, Pitch_bend_c, 1, 8320
2, 1849, Pitch_bend_c, 1, 8320
2, 1852, Pitch_bend_c, 1, 8320
2, 1852, Pitch_bend_c, 1, 8320
2, 1856, Pitch_bend_c, 1, 8192
2, 1856, Pitch_bend_c, 1, 8192
2, 1860, Pitch_bend_c, 1, 8192
2, 1860, Pitch_bend_c, 1, 8192
2, 1864, Pitch_bend_c, 1, 8192
2, 1864, Pitch_bend_c, 1, 8192
2, 1868, Pitch_bend_c, 1, 8064
2, 1868, Pitch_bend_c, 1, 8064
2, 1871, Pitch_bend_c, 1, 8064
2, 1871, Pitch_bend_c, 1, 8064
2, 1875, Pitch_bend_c, 1, 7936
2, 1875, Pitch_bend_c, 1, 8064
2, 1879, Pitch_bend_c, 1, 7936
2, 1879, Pitch_bend_c, 1, 7936
2, 1882, Pitch_bend_c, 1, 7936
2, 1882, Pitch_bend_c, 1, 7936
2, 1886, Pitch_bend_c, 1, 7936
2, 1886, Pitch_bend_c, 1, 7936
2, 1890, Pitch_bend_c, 1, 7936
2, 1890, Pitch_bend_c, 1, 7936
2, 1894, Pitch_bend_c, 1, 7936
2, 1894, Pitch_bend_c, 1, 7936
2, 1898, Pitch_bend_c, 1, 7936
2, 1898, Pitch_bend_c, 1, 7936
2, 1901, Pitch_bend_c, 1, 7936
2, 1901, Pitch_bend_c, 1, 7936
2, 1905, Pitch_bend_c, 1, 7936
2, 1905, Pitch_bend_c, 1, 8064
2, 1909, Pitch_bend_c, 1, 8064
2, 1909, Pitch_bend_c, 1, 8064
2, 1912, Pitch_bend_c, 1, 8064
2, 1912, Pitch_bend_c, 1, 8064
2, 1916, Pitch_bend_c, 1, 8192
2, 1916, Pitch_bend_c, 1, 8192
2, 1920, Pitch_bend_c, 1, 8192
2, 1920, Pitch_bend_c, 1, 8192
2, 1924, Pitch_bend_c, 1, 8192
2, 1924, Pitch_bend_c, 1, 8192
2, 1928, Pitch_bend_c, 1, 8320
2, 1928, Pitch_bend_c, 1, 8320
2, 1931, Pitch_bend_c, 1, 8320
2, 1931, Pitch_bend_c, 1, 8320
2, 1935, Pitch_bend_c, 1, 8320
2, 1935, Pitch_bend_c, 1, 8320
2, 1939, Pitch_bend_c, 1, 8320
2, 1939, Pitch_bend_c, 1, 8320
2, 1942, Pitch_bend_c, 1, 8320
2, 1942, Pitch_bend_c, 1, 8320
2, 1946, Pitch_bend_c, 1, 8320
2, 1946, Pitch_bend_c, 1, 8320
2, 1950, Pitch_bend_c, 1, 8320
2, 1950, Pitch_bend_c, 1, 8320
2, 1954, Pitch_bend_c, 1, 8320
2, 1954, Pitch_bend_c, 1, 8320
2, 1958, Pitch_bend_c, 1, 8320
2, 1958, Pitch_bend_c, 1, 8320
2, 1961, Pitch_bend_c, 1, 8320
2, 1961, Pitch_bend_c, 1, 8320
2, 1965, Pitch_bend_c, 1, 8320
2, 1965, Pitch_bend_c, 1, 8320
2, 1969, Pitch_bend_c, 1, 8320
2, 1969, Pitch_bend_c, 1, 8320
2, 1972, Pitch_bend_c, 1, 8320
2, 1972, Pitch_bend_c, 1, 8320
2, 1976, Pitch_bend_c, 1, 8192
2, 1976, Pitch_bend_c, 1, 8192
2, 1980, Pitch_bend_c, 1, 8192
2, 1980, Pitch_bend_c, 1, 8192
2, 1984, Pitch_bend_c, 1, 8192
2, 1984, Pitch_bend_c, 1, 8192
2, 1988, Pitch_bend_c, 1, 8064
2, 1988, Pitch_bend_c, 1, 8064
2, 1991, Pitch_bend_c, 1, 8064
2, 1991, Pitch_bend_c, 1, 8064
2, 1995, Pitch_bend_c, 1, 8064
2, 1995, Pitch_bend_c, 1, 8064
2, 1999, Pitch_bend_c, 1, 8064
2, 1999, Pitch_bend_c, 1, 8064
2, 2002, Pitch_bend_c, 1, 8064
2, 2002, Pitch_bend_c, 1, 8064
2, 2006, Pitch_bend_c, 1, 8064
2, 2006, Pitch_bend_c, 1, 8064
2, 2010, Pitch_bend_c, 1, 8064
2, 2010, Pitch_bend_c, 1, 8064
2, 2014, Pitch_bend_c, 1, 8064
2, 2014, Pitch_bend_c, 1, 8064
2, 2018, Pitch_bend_c, 1, 8064
2, 2018, Pitch_bend_c, 1, 8064
2, 2021, Pitch_bend_c, 1, 8064
2, 2021, Pitch_bend_c, 1, 8064
2, 2025, Pitch_bend_c, 1, 8064
2, 2025, Pitch_bend_c, 1, 8064
2, 2029, Pitch_bend_c, 1, 8064
2, 2029, Pitch_bend_c, 1, 8064
2, 2032, Pitch_bend_c, 1, 8064
2, 2032, Pitch_bend_c, 1, 8064
2, 2036, Pitch_bend_c, 1, 8192
2, 2036, Pitch_bend_c, 1, 8192
2, 2040, Pitch_bend_c, 1, 8192
2, 2040, Pitch_bend_c, 1, 8192
2, 2044, Pitch_bend_c, 1, 8320
2, 2044, Pitch_bend_c, 1, 8192
2, 2048, Pitch_bend_c, 1, 8320
2, 2048, Pitch_bend_c, 1, 8320
2, 2051, Pitch_bend_c, 1, 8320
2, 2051, Pitch_bend_c, 1, 8320
2, 2055, Pitch_bend_c, 1, 8448
2, 2055, Pitch_bend_c, 1, 8320
2, 2059, Pitch_bend_c, 1, 8448
2, 2059, Pitch_bend_c, 1, 8320
2, 2062, Pitch_bend_c, 1, 8448
2, 2062, Pitch_bend_c, 1, 8448
2, 2066, Pitch_bend_c, 1, 8448
2, 2066, Pitch_bend_c, 1, 8448
2, 2070, Pitch_bend_c, 1, 8448
2, 2070, Pitch_bend_c, 1, 8448
2, 2074, Pitch_bend_c, 1, 8448
2, 2074, Pitch_bend_c, 1, 8448
2, 2078, Pitch_bend_c, 1, 8448
2, 2078, Pitch_bend_c, 1, 8448
2, 2081, Pitch_bend_c, 1, 8448
2, 2081, Pitch_bend_c, 1, 8320
2, 2085, Pitch_bend_c, 1, 8448
2, 2085, Pitch_bend_c, 1, 8320
2, 2089, Pitch_bend_c, 1, 8320
2, 2089, Pitch_bend_c, 1, 8320
2, 2092, Pitch_bend_c, 1, 8320
2, 2092, Pitch_bend_c, 1, 8320
2, 2096, Pitch_bend_c, 1, 8320
2, 2096, Pitch_bend_c, 1, 8192
2, 2100, Pitch_bend_c, 1, 8192
2, 2100, Pitch_bend_c, 1, 8192
2, 2104, Pitch_bend_c, 1, 8064
2, 2104, Pitch_bend_c, 1, 8192
2, 2108, Pitch_bend_c, 1, 8064
2, 2108, Pitch_bend_c, 1, 8064
2, 2111, Pitch_bend_c, 1, 8064
2, 2111, Pitch_bend_c, 1, 8064
2, 2115, Pitch_bend_c, 1, 7936
2, 2115, Pitch_bend_c, 1, 8064
2, 2119, Pitch_bend_c, 1, 7936
2, 2119, Pitch_bend_c, 1, 8064
2, 2122, Pitch_bend_c, 1, 7936
2, 2122, Pitch_bend_c, 1, 7936
2, 2126, Pitch_bend_c, 1, 7936
2, 2126, Pitch_bend_c, 1, 7936
2, 2130, Pitch_bend_c, 1, 7936
2, 2130, Pitch_bend_c, 1, 7936
2, 2134, Pitch_bend_c, 1, 7936
2, 2134, Pitch_bend_c, 1, 7936
2, 2138, Pitch_bend_c, 1, 7936
2, 2138, Pitch_bend_c, 1, 7936
2, 2141, Pitch_bend_c, 1, 7936
2, 2141, Pitch_bend_c, 1, 8064
2, 2145, Pitch_bend_c, 1, 7936
2, 2145, Pitch_bend_c, 1, 8064
2, 2149, Pitch_bend_c, 1, 8064
2, 2149, Pitch_bend_c, 1, 8064
2, 2152, Pitch_bend_c, 1, 8064
2, 2152, Pitch_bend_c, 1, 8064
2, 2156, Pitch_bend_c, 1, 8064
2, 2156, Pitch_bend_c, 1, 8192
2, 2160, Note_off_c, 1, 77, 80
2, 2160, Pitch_bend_c, 1, 8192
2, 2160, Note_off_c, 1, 72, 80
2, 2160, Pitch_bend_c, 1, 8192
2, 2160, Note_on_c, 1, 76, 95
2, 2160, Pitch_bend_c, 1, 8192
2, 2160, Note_on_c, 1, 72, 95
2, 2160, Pitch_bend_c, 1, 8192
2, 2164, Pitch_bend_c, 1, 8192
2, 2164, Pitch_bend_c, 1, 8192
2, 2168, Pitch_bend_c, 1, 8192
2, 2168, Pitch_bend_c, 1, 8192
2, 2171, Pitch_bend_c, 1, 8192
2, 2171, Pitch_bend_c, 1, 8192
2, 2175, Pitch_bend_c, 1, 8192
2, 2175, Pitch_bend_c, 1, 8192
2, 2179, Pitch_bend_c, 1, 8192
2, 2179, Pitch_bend_c, 1, 8192
2, 2182, Pitch_bend_c, 1, 8192
2, 2182, Pitch_bend_c, 1, 8192
2, 2186, Pitch_bend_c, 1, 8192
2, 2186, Pitch_bend_c, 1, 8192
2, 2190, Pitch_bend_c, 1, 8192
2, 2190, Pitch_bend_c, 1, 8192
2, 2194, Pitch_bend_c, 1, 8192
2, 2194, Pitch_bend_c, 1, 8192
2, 2198, Pitch_bend_c, 1, 8192
2, 2198, Pitch_bend_c, 1, 8192
2, 2201, Pitch_bend_c, 1, 8192
2, 2201, Pitch_bend_c, 1, 8192
2, 2205, Pitch_bend_c, 1, 8192
2, 2205, Pitch_bend_c, 1, 8192
2, 2209, Pitch_bend_c, 1, 8192
2, 2209, Pitch_bend_c, 1, 8192
2, 2212, Pitch_bend_c, 1, 8192
2, 2212, Pitch_bend_c, 1, 8192
2, 2216, Pitch_bend_c, 1, 8192
2, 2216, Pitch_bend_c, 1, 8192
2, 2220, Pitch_bend_c, 1, 8192
2, 2220, Pitch_bend_c, 1, 8192
2, 2224, Pitch_bend_c, 1, 8192
2, 2224, Pitch_bend_c, 1, 8192
2, 2228, Pitch_bend_c, 1, 8192
2, 2228, Pitch_bend_c, 1, 8192
2, 2231, Pitch_bend_c, 1, 8192
2, 2231, Pitch_bend_c, 1, 8192
2, 2235, Pitch_bend_c, 1, 8192
2, 2235, Pitch_bend_c, 1, 8192
2, 2239, Pitch_bend_c, 1, 8192
2, 2239, Pitch_bend_c, 1, 8192
2, 2242, Pitch_bend_c, 1, 8192
2, 2242, Pitch_bend_c, 1, 8192
2, 2246, Pitch_bend_c, 1, 8192
2, 2246, Pitch_bend_c, 1, 8192
2, 2250, Pitch_bend_c, 1, 8192
2, 2250, Pitch_bend_c, 1, 8192
2, 2254, Pitch_bend_c, 1, 8192
2, 2254, Pitch_bend_c, 1, 8192
2, 2258, Pitch_bend_c, 1, 8192
2, 2258, Pitch_bend_c, 1, 8192
2, 2261, Pitch_bend_c, 1, 8192
2, 2261, Pitch_bend_c, 1, 8192
2, 2265, Pitch_bend_c, 1, 8192
2, 2265, Pitch_bend_c, 1, 8192
2, 2269, Pitch_bend_c, 1, 8192
2, 2269, Pitch_bend_c, 1, 8192
2, 2272, Pitch_bend_c, 1, 8192
2, 2272, Pitch_bend_c, 1, 8192
2, 2276, Pitch_bend_c, 1, 8192
2, 2276, Pitch_bend_c, 1, 8192
2, 2280, Pitch_bend_c, 1, 8192
2, 2280, Pitch_bend_c, 1, 8192
2, 2284, Pitch_bend_c, 1, 8192
2, 2284, Pitch_bend_c, 1, 8192
2, 2288, Pitch_bend_c, 1, 8320
2, 2288, Pitch_bend_c, 1, 8320
2, 2291, Pitch_bend_c, 1, 8320
2, 2291, Pitch_bend_c, 1, 8320
2, 2295, Pitch_bend_c, 1, 8320
2, 2295, Pitch_bend_c, 1, 8320
2, 2299, Pitch_bend_c, 1, 8320
2, 2299, Pitch_bend_c, 1, 8448
2, 2302, Pitch_bend_c, 1, 8320
2, 2302, Pitch_bend_c, 1, 8448
2, 2306, Pitch_bend_c, 1, 8448
2, 2306, Pitch_bend_c, 1, 8448
2, 2310, Pitch_bend_c, 1, 8448
2, 2310, Pitch_bend_c, 1, 8448
2, 2314, Pitch_bend_c, 1, 8448
2, 2314, Pitch_bend_c, 1, 8448
2, 2318, Pitch_bend_c, 1, 8320
2, 2318, Pitch_bend_c, 1, 8448
2, 2321, Pitch_bend_c, 1, 8320
2, 2321, Pitch_bend_c, 1, 8448
2, 2325, Pitch_bend_c, 1, 8320
2, 2325, Pitch_bend_c, 1, 8320
2, 2329, Pitch_bend_c, 1, 8320
2, 2329, Pitch_bend_c, 1, 8320
2, 2332, Pitch_bend_c, 1, 8320
2, 2332, Pitch_bend_c, 1, 8320
2, 2336, Pitch_bend_c, 1, 8192
2, 2336, Pitch_bend_c, 1, 8192
2, 2340, Pitch_bend_c, 1, 8192
2, 2340, Pitch_bend_c, 1, 8192
2, 2344, Pitch_bend_c, 1, 8192
2, 2344, Pitch_bend_c, 1, 8192
2, 2348, Pitch_bend_c, 1, 8064
2, 2348, Pitch_bend_c, 1, 8064
2, 2351, Pitch_bend_c, 1, 8064
2, 2351, Pitch_bend_c, 1, 8064
2, 2355, Pitch_bend_c, 1, 8064
2, 2355, Pitch_bend_c, 1, 8064
2, 2359, Pitch_bend_c, 1, 8064
2, 2359, Pitch_bend_c, 1, 7936
2, 2362, Pitch_bend_c, 1, 8064
2, 2362, Pitch_bend_c, 1, 7936
2, 2366, Pitch_bend_c, 1, 7936
2, 2366, Pitch_bend_c, 1, 7936
2, 2370, Pitch_bend_c, 1, 7936
2, 2370, Pitch_bend_c, 1, 7936
2, 2374, Pitch_bend_c, 1, 7936
2, 2374, Pitch_bend_c, 1, 7936
2, 2378, Pitch_bend_c, 1, 8064
2, 2378, Pitch_bend_c, 1, 7936
2, 2381, Pitch_bend_c, 1, 8064
2, 2381, Pitch_bend_c, 1, 7936
2, 2385, Pitch_bend_c, 1, 8064
2, 2385, Pitch_bend_c, 1, 8064
2, 2389, Pitch_bend_c, 1, 8064
2, 2389, Pitch_bend_c, 1, 8064
2, 2392, Pitch_bend_c, 1, 8064
2, 2392, Pitch_bend_c, 1, 8064
2, 2396, Pitch_bend_c, 1, 8192
2, 2396, Pitch_bend_c, 1, 8192
2, 2400, Note_off_c, 1, 76, 80
2, 2400, Pitch_bend_c, 1, 8192
2, 2400, Note_off_c, 1, 72, 80
2, 2400, Pitch_bend_c, 1, 8192
2, 2400, Note_on_c, 1, 67, 95
2, 2400, Pitch_bend_c, 1, 8192
2, 2400, Note_on_c, 0, 64, 95
2, 2404, Pitch_bend_c, 1, 8192
2, 2408, Pitch_bend_c, 1, 8192
2, 2411, Pitch_bend_c, 1, 8192
2, 2415, Pitch_bend_c, 1, 8192
2, 2419, Pitch_bend_c, 1, 8192
2, 2422, Pitch_bend_c, 1, 8192
2, 2426, Pitch_bend_c, 1, 8192
2, 2430, Pitch_bend_c, 1, 8192
2, 2434, Pitch_bend_c, 1, 8192
2, 2438, Pitch_bend_c, 1, 8192
2, 2441, Pitch_bend_c, 1, 8192
2, 2445, Pitch_bend_c, 1, 8192
2, 2449, Pitch_bend_c, 1, 8192
2, 2452, Pitch_bend_c, 1, 8192
2, 2456, Pitch_bend_c, 1, 8192
2, 2460, Pitch_bend_c, 1, 8192
2, 2464, Pitch_bend_c, 1, 8192
2, 2468, Pitch_bend_c, 1, 8192
2, 2471, Pitch_bend_c, 1, 8192
2, 2475, Pitch_bend_c, 1, 8192
2, 2479, Pitch_bend_c, 1, 8192
2, 2482, Pitch_bend_c, 1, 8192
2, 2486, Pitch_bend_c, 1, 8192
2, 2490, Pitch_bend_c, 1, 8192
2, 2494, Pitch_bend_c, 1, 8192
2, 2498, Pitch_bend_c, 1, 8192
2, 2501, Pitch_bend_c, 1, 8192
2, 2505, Pitch_bend_c, 1, 8192
2, 2509, Pitch_bend_c, 1, 8192
2, 2512, Pitch_bend_c, 1, 8192
2, 2516, Pitch_bend_c, 1, 8192
2, 2520, Pitch_bend_c, 1, 8192
2, 2524, Pitch_bend_c, 1, 8192
2, 2528, Pitch_bend_c, 1, 8320
2, 2531, Pitch_bend_c, 1, 8320
2, 2535, Pitch_bend_c, 1, 8320
2, 2539, Pitch_bend_c, 1, 8320
2, 2542, Pitch_bend_c, 1, 8320
2, 2546, Pitch_bend_c, 1, 8320
2, 2550, Pitch_bend_c, 1, 8320
2, 2554, Pitch_bend_c, 1, 8320
2, 2558, Pitch_bend_c, 1, 8320
2, 2561, Pitch_bend_c, 1, 8320
2, 2565, Pitch_bend_c, 1, 8320
2, 2569, Pitch_bend_c, 1, 8320
2, 2572, Pitch_bend_c, 1, 8320
2, 2576, Pitch_bend_c, 1, 8192
2, 2580, Pitch_bend_c, 1, 8192
2, 2584, Pitch_bend_c, 1, 8192
2, 2588, Pitch_bend_c, 1, 8064
2, 2591, Pitch_bend_c, 1, 8064
2, 2595, Pitch_bend_c, 1, 8064
2, 2599, Pitch_bend_c, 1, 8064
2, 2602, Pitch_bend_c, 1, 8064
2, 2606, Pitch_bend_c, 1, 8064
2, 2610, Pitch_bend_c, 1, 8064
2, 2614, Pitch_bend_c, 1, 8064
2, 2618, Pitch_bend_c, 1, 8064
2, 2621, Pitch_bend_c, 1, 8064
2, 2625, Pitch_bend_c, 1, 8064
2, 2629, Pitch_bend_c, 1, 8064
2, 2632, Pitch_bend_c, 1, 8064
2, 2636, Pitch_bend_c, 1, 8192
2, 2640, Pitch_bend_c, 1, 8192
2, 2644, Pitch_bend_c, 1, 8320
2, 2648, Pitch_bend_c, 1, 8320
2, 2651, Pitch_bend_c, 1, 8320
2, 2655, Pitch_bend_c, 1, 8448
2, 2659, Pitch_bend_c, 1, 8448
2, 2662, Pitch_bend_c, 1, 8448
2, 2666, Pitch_bend_c, 1, 8448
2, 2670, Pitch_bend_c, 1, 8448
2, 2674, Pitch_bend_c, 1, 8448
2, 2678, Pitch_bend_c, 1, 8448
2, 2681, Pitch_bend_c, 1, 8448
2, 2685, Pitch_bend_c, 1, 8448
2, 2689, Pitch_bend_c, 1, 8320
2, 2692, Pitch_bend_c, 1, 8320
2, 2696, Pitch_bend_c, 1, 8320
2, 2700, Pitch_bend_c, 1, 8192
2, 2704, Pitch_bend_c, 1, 8064
2, 2708, Pitch_bend_c, 1, 8064
2, 2711, Pitch_bend_c, 1, 8064
2, 2715, Pitch_bend_c, 1, 7936
2, 2719, Pitch_bend_c, 1, 7936
2, 2722, Pitch_bend_c, 1, 7936
2, 2726, Pitch_bend_c, 1, 7936
2, 2730, Pitch_bend_c, 1, 7936
2, 2734, Pitch_bend_c, 1, 7936
2, 2738, Pitch_bend_c, 1, 7936
2, 2741, Pitch_bend_c, 1, 7936
2, 2745, Pitch_bend_c, 1, 7936
2, 2749, Pitch_bend_c, 1, 8064
2, 2752, Pitch_bend_c, 1, 8064
2, 2756, Pitch_bend_c, 1, 8064
2, 2760, Pitch_bend_c, 1, 8192
2, 2764, Pitch_bend_c, 1, 8192
2, 2768, Pitch_bend_c, 1, 8320
2, 2771, Pitch_bend_c, 1, 8320
2, 2775, Pitch_bend_c, 1, 8320
2, 2779, Pitch_bend_c, 1, 8320
2, 2782, Pitch_bend_c, 1, 8320
2, 2786, Pitch_bend_c, 1, 8448
2, 2790, Pitch_bend_c, 1, 8448
2, 2794, Pitch_bend_c, 1, 8448
2, 2798, Pitch_bend_c, 1, 8320
2, 2801, Pitch_bend_c, 1, 8320
2, 2805, Pitch_bend_c, 1, 8320
2, 2809, Pitch_bend_c, 1, 8320
2, 2812, Pitch_bend_c, 1, 8320
2, 2816, Pitch_bend_c, 1, 8192
2, 2820, Pitch_bend_c, 1, 8192
2, 2824, Pitch_bend_c, 1, 8192
2, 2828, Pitch_bend_c, 1, 8064
2, 2831, Pitch_bend_c, 1, 8064
2, 2835, Pitch_bend_c, 1, 8064
2, 2839, Pitch_bend_c, 1, 8064
2, 2842, Pitch_bend_c, 1, 8064
2, 2846, Pitch_bend_c, 1, 7936
2, 2850, Pitch_bend_c, 1, 7936
2, 2854, Pitch_bend_c, 1, 7936
2, 2858, Pitch_bend_c, 1, 8064
2, 2861, Pitch_bend_c, 1, 8064
2, 2865, Pitch_bend_c, 1, 8064
2, 2869, Pitch_bend_c, 1, 8064
2, 2872, Pitch_bend_c, 1, 8064
2, 2876, Pitch_bend_c, 1, 8192
2, 2880, Note_off_c, 1, 67, 80
2, 2880, Pitch_bend_c, 1, 8192
2, 2880, Note_off_c, 0, 64, 80
2, 2880, Note_on_c, 1, 71, 95
2, 2880, Pitch_bend_c, 1, 8192
2, 2884, Pitch_bend_c, 1, 8192
2, 2888, Pitch_bend_c, 1, 8192
2, 2891, Pitch_bend_c, 1, 8192
2, 2895, Pitch_bend_c, 1, 8192
2, 2899, Pitch_bend_c, 1, 8192
2, 2902, Pitch_bend_c, 1, 8192
2, 2906, Pitch_bend_c, 1, 8192
2, 2910, Pitch_bend_c, 1, 8192
2, 2914, Pitch_bend_c, 1, 8192
2, 2918, Pitch_bend_c, 1, 8192
2, 2921, Pitch_bend_c, 1, 8192
2, 2925, Pitch_bend_c, 1, 8192
2, 2929, Pitch_bend_c, 1, 8192
2, 2932, Pitch_bend_c, 1, 8192
2, 2936, Pitch_bend_c, 1, 8192
2, 2940, Pitch_bend_c, 1, 8192
2, 2944, Pitch_bend_c, 1, 8192
2, 2948, Pitch_bend_c, 1, 8192
2, 2951, Pitch_bend_c, 1, 8192
2, 2955, Pitch_bend_c, 1, 8192
2, 2959, Pitch_bend_c, 1, 8192
2, 2962, Pitch_bend_c, 1, 8192
2, 2966, Pitch_bend_c, 1, 8192
2, 2970, Pitch_bend_c, 1, 8192
2, 2974, Pitch_bend_c, 1, 8192
2, 2978, Pitch_bend_c, 1, 8192
2, 2981, Pitch_bend_c, 1, 8192
2, 2985, Pitch_bend_c, 1, 8192
2, 2989, Pitch_bend_c, 1, 8192
2, 2992, Pitch_bend_c, 1, 8192
2, 2996, Pitch_bend_c, 1, 8192
2, 3000, Pitch_bend_c, 1, 8192
2, 3004, Pitch_bend_c, 1, 8192
2, 3008, Pitch_bend_c, 1, 8320
2, 3011, Pitch_bend_c, 1, 8320
2, 3015, Pitch_bend_c, 1, 8320
2, 3019, Pitch_bend_c, 1, 8320
2, 3022, Pitch_bend_c, 1, 8448
2, 3026, Pitch_bend_c, 1, 8448
2, 3030, Pitch_bend_c, 1, 8448
2, 3034, Pitch_bend_c, 1, 8448
2, 3038, Pitch_bend_c, 1, 8448
2, 3041, Pitch_bend_c, 1, 8320
2, 3045, Pitch_bend_c, 1, 8320
2, 3049, Pitch_bend_c, 1, 8320
2, 3052, Pitch_bend_c, 1, 8320
2, 3056, Pitch_bend_c, 1, 8192
2, 3060, Pitch_bend_c, 1, 8192
2, 3064, Pitch_bend_c, 1, 8192
2, 3068, Pitch_bend_c, 1, 8064
2, 3071, Pitch_bend_c, 1, 8064
2, 3075, Pitch_bend_c, 1, 8064
2, 3079, Pitch_bend_c, 1, 8064
2, 3082, Pitch_bend_c, 1, 7936
2, 3086, Pitch_bend_c, 1, 7936
2, 3090, Pitch_bend_c, 1, 7936
2, 3094, Pitch_bend_c, 1, 7936
2, 3098, Pitch_bend_c, 1, 7936
2, 3101, Pitch_bend_c, 1, 8064
2, 3105, Pitch_bend_c, 1, 8064
2, 3109, Pitch_bend_c, 1, 8064
2, 3112, Pitch_bend_c, 1, 8064
2, 3116, Pitch_bend_c, 1, 8192
2, 3120, Note_off_c, 1, 71, 80
2, 3120, Pitch_bend_c, 1, 8192
2, 3120, Note_on_c, 1, 79, 95
2, 3120, Pitch_bend_c, 1, 8192
2, 3120, Note_on_c, 1, 74, 95
2, 3120, Pitch_bend_c, 1, 8192
2, 3124, Pitch_bend_c, 1, 8192
2, 3124, Pitch_bend_c, 1, 8192
2, 3128, Pitch_bend_c, 1, 8192
2, 3128, Pitch_bend_c, 1, 8192
2, 3131, Pitch_bend_c, 1, 8192
2, 3131, Pitch_bend_c, 1, 8192
2, 3135, Pitch_bend_c, 1, 8192
2, 3135, Pitch_bend_c, 1, 8192
2, 3139, Pitch_bend_c, 1, 8192
2, 3139, Pitch_bend_c, 1, 8192
2, 3142, Pitch_bend_c, 1, 8192
2, 3142, Pitch_bend_c, 1, 8192
2, 3146, Pitch_bend_c, 1, 8192
2, 3146, Pitch_bend_c, 1, 8192
2, 3150, Pitch_bend_c, 1, 8192
2, 3150, Pitch_bend_c, 1, 8192
2, 3154, Pitch_bend_c, 1, 8192
2, 3154, Pitch_bend_c, 1, 8192
2, 3158, Pitch_bend_c, 1, 8192
2, 3158, Pitch_bend_c, 1, 8192
2, 3161, Pitch_bend_c, 1, 8192
2, 3161, Pitch_bend_c, 1, 8192
2, 3165, Pitch_bend_c, 1, 8192
2, 3165, Pitch_bend_c, 1, 8192
2, 3169, Pitch_bend_c, 1, 8192
2, 3169, Pitch_bend_c, 1, 8192
2, 3172, Pitch_bend_c, 1, 8192
2, 3172, Pitch_bend_c, 1, 8192
2, 3176, Pitch_bend_c, 1, 8192
2, 3176, Pitch_bend_c, 1, 8192
2, 3180, Pitch_bend_c, 1, 8192
2, 3180, Pitch_bend_c, 1, 8192
2, 3184, Pitch_bend_c, 1, 8192
2, 3184, Pitch_bend_c, 1, 8192
2, 3188, Pitch_bend_c, 1, 8192
2, 3188, Pitch_bend_c, 1, 8192
2, 3191, Pitch_bend_c, 1, 8192
2, 3191, Pitch_bend_c, 1, 8192
2, 3195, Pitch_bend_c, 1, 8192
2, 3195, Pitch_bend_c, 1, 8192
2, 3199, Pitch_bend_c, 1, 8192
2, 3199, Pitch_bend_c, 1, 8192
2, 3202, Pitch_bend_c, 1, 8192
2, 3202, Pitch_bend_c, 1, 8192
2, 3206, Pitch_bend_c, 1, 8192
2, 3206, Pitch_bend_c, 1, 8192
2, 3210, Pitch_bend_c, 1, 8192
2, 3210, Pitch_bend_c, 1, 8192
2, 3214, Pitch_bend_c, 1, 8192
2, 3214, Pitch_bend_c, 1, 8192
2, 3218, Pitch_bend_c, 1, 8192
2, 3218, Pitch_bend_c, 1, 8192
2, 3221, Pitch_bend_c, 1, 8192
2, 3221, Pitch_bend_c, 1, 8192
2, 3225, Pitch_bend_c, 1, 8192
2, 3225, Pitch_bend_c, 1, 8192
2, 3229, Pitch_bend_c, 1, 8192
2, 3229, Pitch_bend_c, 1, 8192
2, 3232, Pitch_bend_c, 1, 8192
2, 3232, Pitch_bend_c, 1, 8192
2, 3236, Pitch_bend_c, 1, 8192
2, 3236, Pitch_bend_c, 1, 8192
2, 3240, Pitch_bend_c, 1, 8192
2, 3240, Pitch_bend_c, 1, 8192
2, 3244, Pitch_bend_c, 1, 8320
2, 3244, Pitch_bend_c, 1, 8192
2, 3248, Pitch_bend_c, 1, 8320
2, 3248, Pitch_bend_c, 1, 8320
2, 3251, Pitch_bend_c, 1, 8320
2, 3251, Pitch_bend_c, 1, 8320
2, 3255, Pitch_bend_c, 1, 8448
2, 3255, Pitch_bend_c, 1, 8320
2, 3259, Pitch_bend_c, 1, 8448
2, 3259, Pitch_bend_c, 1, 8320
2, 3262, Pitch_bend_c, 1, 8448
2, 3262, Pitch_bend_c, 1, 8320
2, 3266, Pitch_bend_c, 1, 8448
2, 3266, Pitch_bend_c, 1, 8320
2, 3270, Pitch_bend_c, 1, 8448
2, 3270, Pitch_bend_c, 1, 8320
2, 3274, Pitch_bend_c, 1, 8448
2, 3274, Pitch_bend_c, 1, 8320
2, 3278, Pitch_bend_c, 1, 8448
2, 3278, Pitch_bend_c, 1, 8320
2, 3281, Pitch_bend_c, 1, 8448
2, 3281, Pitch_bend_c, 1, 8320
2, 3285, Pitch_bend_c, 1, 8448
2, 3285, Pitch_bend_c, 1, 8320
2, 3289, Pitch_bend_c, 1, 8320
2, 3289, Pitch_bend_c, 1, 8320
2, 3292, Pitch_bend_c, 1, 8320
2, 3292, Pitch_bend_c, 1, 8320
2, 3296, Pitch_bend_c, 1, 8320
2, 3296, Pitch_bend_c, 1, 8192
2, 3300, Pitch_bend_c, 1, 8192
2, 3300, Pitch_bend_c, 1, 8192
2, 3304, Pitch_bend_c, 1, 8064
2, 3304, Pitch_bend_c, 1, 8192
2, 3308, Pitch_bend_c, 1, 8064
2, 3308, Pitch_bend_c, 1, 8064
2, 3311, Pitch_bend_c, 1, 8064
2, 3311, Pitch_bend_c, 1, 8064
2, 3315, Pitch_bend_c, 1, 7936
2, 3315, Pitch_bend_c, 1, 8064
2, 3319, Pitch_bend_c, 1, 7936
2, 3319, Pitch_bend_c, 1, 8064
2, 3322, Pitch_bend_c, 1, 7936
2, 3322, Pitch_bend_c, 1, 8064
2, 3326, Pitch_bend_c, 1, 7936
2, 3326, Pitch_bend_c, 1, 8064
2, 3330, Pitch_bend_c, 1, 7936
2, 3330, Pitch_bend_c, 1, 8064
2, 3334, Pitch_bend_c, 1, 7936
2, 3334, Pitch_bend_c, 1, 8064
2, 3338, Pitch_bend_c, 1, 7936
2, 3338, Pitch_bend_c, 1, 8064
2, 3341, Pitch_bend_c, 1, 7936
2, 3341, Pitch_bend_c, 1, 8064
2, 3345, Pitch_bend_c, 1, 7936
2, 3345, Pitch_bend_c, 1, 8064
2, 3349, Pitch_bend_c, 1, 8064
2, 3349, Pitch_bend_c, 1, 8064
2, 3352, Pitch_bend_c, 1, 8064
2, 3352, Pitch_bend_c, 1, 8064
2, 3356, Pitch_bend_c, 1, 8064
2, 3356, Pitch_bend_c, 1, 8192
2, 3360, Pitch_bend_c, 1, 8192
2, 3360, Pitch_bend_c, 1, 8192
2, 3364, Pitch_bend_c, 1, 8320
2, 3364, Pitch_bend_c, 1, 8192
2, 3368, Pitch_bend_c, 1, 8320
2, 3368, Pitch_bend_c, 1, 8320
2, 3371, Pitch_bend_c, 1, 8320
2, 3371, Pitch_bend_c, 1, 8320
2, 3375, Pitch_bend_c, 1, 8448
2, 3375, Pitch_bend_c, 1, 8320
2, 3379, Pitch_bend_c, 1, 8448
2, 3379, Pitch_bend_c, 1, 8320
2, 3382, Pitch_bend_c, 1, 8448
2, 3382, Pitch_bend_c, 1, 8448
2, 3386, Pitch_bend_c, 1, 8448
2, 3386, Pitch_bend_c, 1, 8448
2, 3390, Pitch_bend_c, 1, 8448
2, 3390, Pitch_bend_c, 1, 8448
2, 3394, Pitch_bend_c, 1, 8448
2, 3394, Pitch_bend_c, 1, 8448
2, 3398, Pitch_bend_c, 1, 8448
2, 3398, Pitch_bend_c, 1, 8448
2, 3401, Pitch_bend_c, 1, 8448
2, 3401, Pitch_bend_c, 1, 8320
2, 3405, Pitch_bend_c, 1, 8448
2, 3405, Pitch_bend_c, 1, 8320
2, 3409, Pitch_bend_c, 1, 8320
2, 3409, Pitch_bend_c, 1, 8320
2, 3412, Pitch_bend_c, 1, 8320
2, 3412, Pitch_bend_c, 1, 8320
2, 3416, Pitch_bend_c, 1, 8320
2, 3416, Pitch_bend_c, 1, 8192
2, 3420, Pitch_bend_c, 1, 8192
2, 3420, Pitch_bend_c, 1, 8192
2, 3424, Pitch_bend_c, 1, 8064
2, 3424, Pitch_bend_c, 1, 8192
2, 3428, Pitch_bend_c, 1, 8064
2, 3428, Pitch_bend_c, 1, 8064
2, 3431, Pitch_bend_c, 1, 8064
2, 3431, Pitch_bend_c, 1, 8064
2, 3435, Pitch_bend_c, 1, 7936
2, 3435, Pitch_bend_c, 1, 8064
2, 3439, Pitch_bend_c, 1, 7936
2, 3439, Pitch_bend_c, 1, 8064
2, 3442, Pitch_bend_c, 1, 7936
2, 3442, Pitch_bend_c, 1, 7936
2, 3446, Pitch_bend_c, 1, 7936
2, 3446, Pitch_bend_c, 1, 7936
2, 3450, Pitch_bend_c, 1, 7936
2, 3450, Pitch_bend_c, 1, 7936
2, 3454, Pitch_bend_c, 1, 7936
2, 3454, Pitch_bend_c, 1, 7936
2, 3458, Pitch_bend_c, 1, 7936
2, 3458, Pitch_bend_c, 1, 7936
2, 3461, Pitch_bend_c, 1, 7936
2, 3461, Pitch_bend_c, 1, 8064
2, 3465, Pitch_bend_c, 1, 7936
2, 3465, Pitch_bend_c, 1, 8064
2, 3469, Pitch_bend_c, 1, 8064
2, 3469, Pitch_bend_c, 1, 8064
2, 3472, Pitch_bend_c, 1, 8064
2, 3472, Pitch_bend_c, 1, 8064
2, 3476, Pitch_bend_c, 1, 8064
2, 3476, Pitch_bend_c, 1, 8192
2, 3480, Pitch_bend_c, 1, 8192
2, 3480, Pitch_bend_c, 1, 8192
2, 3484, Pitch_bend_c, 1, 8192
2, 3484, Pitch_bend_c, 1, 8192
2, 3488, Pitch_bend_c, 1, 8320
2, 3488, Pitch_bend_c, 1, 8320
2, 3491, Pitch_bend_c, 1, 8320
2, 3491, Pitch_bend_c, 1, 8320
2, 3495, Pitch_bend_c, 1, 8320
2, 3495, Pitch_bend_c, 1, 8320
2, 3499, Pitch_bend_c, 1, 8320
2, 3499, Pitch_bend_c, 1, 8320
2, 3502, Pitch_bend_c, 1, 8448
2, 3502, Pitch_bend_c, 1, 8448
2, 3506, Pitch_bend_c, 1, 8448
2, 3506, Pitch_bend_c, 1, 8448
2, 3510, Pitch_bend_c, 1, 8448
2, 3510, Pitch_bend_c, 1, 8448
2, 3514, Pitch_bend_c, 1, 8448
2, 3514, Pitch_bend_c, 1, 8448
2, 3518, Pitch_bend_c, 1, 8448
2, 3518, Pitch_bend_c, 1, 8448
2, 3521, Pitch_bend_c, 1, 8320
2, 3521, Pitch_bend_c, 1, 8320
2, 3525, Pitch_bend_c, 1, 8320
2, 3525, Pitch_bend_c, 1, 8320
2, 3529, Pitch_bend_c, 1, 8320
2, 3529, Pitch_bend_c, 1, 8320
2, 3532, Pitch_bend_c, 1, 8320
2, 3532, Pitch_bend_c, 1, 8320
2, 3536, Pitch_bend_c, 1, 8192
2, 3536, Pitch_bend_c, 1, 8192
2, 3540, Pitch_bend_c, 1, 8192
2, 3540, Pitch_bend_c, 1, 8192
2, 3544, Pitch_bend_c, 1, 8192
2, 3544, Pitch_bend_c, 1, 8192
2, 3548, Pitch_bend_c, 1, 8064
2, 3548, Pitch_bend_c, 1, 8064
2, 3551, Pitch_bend_c, 1, 8064
2, 3551, Pitch_bend_c, 1, 8064
2, 3555, Pitch_bend_c, 1, 8064
2, 3555, Pitch_bend_c, 1, 8064
2, 3559, Pitch_bend_c, 1, 8064
2, 3559, Pitch_bend_c, 1, 8064
2, 3562, Pitch_bend_c, 1, 7936
2, 3562, Pitch_bend_c, 1, 7936
2, 3566, Pitch_bend_c, 1, 7936
2, 3566, Pitch_bend_c, 1, 7936
2, 3570, Pitch_bend_c, 1, 7936
2, 3570, Pitch_bend_c, 1, 7936
2, 3574, Pitch_bend_c, 1, 7936
2, 3574, Pitch_bend_c, 1, 7936
2, 3578, Pitch_bend_c, 1, 7936
2, 3578, Pitch_bend_c, 1, 7936
2, 3581, Pitch_bend_c, 1, 8064
2, 3581, Pitch_bend_c, 1, 8064
2, 3585, Pitch_bend_c, 1, 8064
2, 3585, Pitch_bend_c, 1, 8064
2, 3589, Pitch_bend_c, 1, 8064
2, 3589, Pitch_bend_c, 1, 8064
2, 3592, Pitch_bend_c, 1, 8064
2, 3592, Pitch_bend_c, 1, 8064
2, 3596, Pitch_bend_c, 1, 8192
2, 3596, Pitch_bend_c, 1, 8192
2, 3600, Note_off_c, 1, 79, 80
2, 3600, Pitch_bend_c, 1, 8192
2, 3600, Note_off_c, 1, 74, 80
2, 3600, Pitch_bend_c, 1, 8192
2, 3600, Note_on_c, 0, 77, 95
2, 3600, Note_on_c, 0, 74, 95
2, 3840, Note_off_c, 0, 77, 80
2, 3840, Note_off_c, 0, 74, 80
2, 3840, Note_on_c, 1, 69, 95
2, 3840, Pitch_bend_c, 1, 8192
2, 3844, Pitch_bend_c, 1, 8192
2, 3848, Pitch_bend_c, 1, 8192
2, 3851, Pitch_bend_c, 1, 8192
2, 3855, Pitch_bend_c, 1, 8192
2, 3859, Pitch_bend_c, 1, 8192
2, 3862, Pitch_bend_c, 1, 8192
2, 3866, Pitch_bend_c, 1, 8192
2, 3870, Pitch_bend_c, 1, 8192
2, 3874, Pitch_bend_c, 1, 8192
2, 3878, Pitch_bend_c, 1, 8192
2, 3881, Pitch_bend_c, 1, 8192
2, 3885, Pitch_bend_c, 1, 8192
2, 3889, Pitch_bend_c, 1, 8192
2, 3892, Pitch_bend_c, 1, 8192
2, 3896, Pitch_bend_c, 1, 8192
2, 3900, Pitch_bend_c, 1, 8192
2, 3904, Pitch_bend_c, 1, 8192
2, 3908, Pitch_bend_c, 1, 8192
2, 3911, Pitch_bend_c, 1, 8192
2, 3915, Pitch_bend_c, 1, 8192
2, 3919, Pitch_bend_c, 1, 8192
2, 3922, Pitch_bend_c, 1, 8192
2, 3926, Pitch_bend_c, 1, 8192
2, 3930, Pitch_bend_c, 1, 8192
2, 3934, Pitch_bend_c, 1, 8192
2, 3938, Pitch_bend_c, 1, 8192
2, 3941, Pitch_bend_c, 1, 8192
2, 3945, Pitch_bend_c, 1, 8192
2, 3949, Pitch_bend_c, 1, 8192
2, 3952, Pitch_bend_c, 1, 8192
2, 3956, Pitch_bend_c, 1, 8192
2, 3960, Pitch_bend_c, 1, 8192
2, 3964, Pitch_bend_c, 1, 8192
2, 3968, Pitch_bend_c, 1, 8320
2, 3971, Pitch_bend_c, 1, 8320
2, 3975, Pitch_bend_c, 1, 8320
2, 3979, Pitch_bend_c, 1, 8448
2, 3982, Pitch_bend_c, 1, 8448
2, 3986, Pitch_bend_c, 1, 8448
2, 3990, Pitch_bend_c, 1, 8448
2, 3994, Pitch_bend_c, 1, 8448
2, 3998, Pitch_bend_c, 1, 8448
2, 4001, Pitch_bend_c, 1, 8448
2, 4005, Pitch_bend_c, 1, 8320
2, 4009, Pitch_bend_c, 1, 8320
2, 4012, Pitch_bend_c, 1, 8320
2, 4016, Pitch_bend_c, 1, 8192
2, 4020, Pitch_bend_c, 1, 8192
2, 4024, Pitch_bend_c, 1, 8192
2, 4028, Pitch_bend_c, 1, 8064
2, 4031, Pitch_bend_c, 1, 8064
2, 4035, Pitch_bend_c, 1, 8064
2, 4039, Pitch_bend_c, 1, 7936
2, 4042, Pitch_bend_c, 1, 7936
2, 4046, Pitch_bend_c, 1, 7936
2, 4050, Pitch_bend_c, 1, 7936
2, 4054, Pitch_bend_c, 1, 7936
2, 4058, Pitch_bend_c, 1, 7936
2, 4061, Pitch_bend_c, 1, 7936
2, 4065, Pitch_bend_c, 1, 8064
2, 4069, Pitch_bend_c, 1, 8064
2, 4072, Pitch_bend_c, 1, 8064
2, 4076, Pitch_bend_c, 1, 8192
2, 4080, Pitch_bend_c, 1, 8192
2, 4084, Pitch_bend_c, 1, 8320
2, 4088, Pitch_bend_c, 1, 8320
2, 4091, Pitch_bend_c, 1, 8320
2, 4095, Pitch_bend_c, 1, 8448
2, 4099, Pitch_bend_c, 1, 8448
2, 4102, Pitch_bend_c, 1, 8448
2, 4106, Pitch_bend_c, 1, 8448
2, 4110, Pitch_bend_c, 1, 8448
2, 4114, Pitch_bend_c, 1, 8448
2, 4118, Pitch_bend_c, 1, 8448
2, 4121, Pitch_bend_c, 1, 8448
2, 4125, Pitch_bend_c, 1, 8448
2, 4129, Pitch_bend_c, 1, 8320
2, 4132, Pitch_bend_c, 1, 8320
2, 4136, Pitch_bend_c, 1, 8320
2, 4140, Pitch_bend_c, 1, 8192
2, 4144, Pitch_bend_c, 1, 8064
2, 4148, Pitch_bend_c, 1, 8064
2, 4151, Pitch_bend_c, 1, 8064
2, 4155, Pitch_bend_c, 1, 7936
2, 4159, Pitch_bend_c, 1, 7936
2, 4162, Pitch_bend_c, 1, 7936
2, 4166, Pitch_bend_c, 1, 7936
2, 4170, Pitch_bend_c, 1, 7936
2, 4174, Pitch_bend_c, 1, 7936
2, 4178, Pitch_bend_c, 1, 7936
2, 4181, Pitch_bend_c, 1, 7936
2, 4185, Pitch_bend_c, 1, 7936
2, 4189, Pitch_bend_c, 1, 8064
2, 4192, Pitch_bend_c, 1, 8064
2, 4196, Pitch_bend_c, 1, 8064
2, 4200, Pitch_bend_c, 1, 8192
2, 4204, Pitch_bend_c, 1, 8192
2, 4208, Pitch_bend_c, 1, 8320
2, 4211, Pitch_bend_c, 1, 8320
2, 4215, Pitch_bend_c, 1, 8320
2, 4219, Pitch_bend_c, 1, 8448
2, 4222, Pitch_bend_c, 1, 8448
2, 4226, Pitch_bend_c, 1, 8448
2, 4230, Pitch_bend_c, 1, 8448
2, 4234, Pitch_bend_c, 1, 8448
2, 4238, Pitch_bend_c, 1, 8448
2, 4241, Pitch_bend_c, 1, 8448
2, 4245, Pitch_bend_c, 1, 8320
2, 4249, Pitch_bend_c, 1, 8320
2, 4252, Pitch_bend_c, 1, 8320
2, 4256, Pitch_bend_c, 1, 8192
2, 4260, Pitch_bend_c, 1, 8192
2, 4264, Pitch_bend_c, 1, 8192
2, 4268, Pitch_bend_c, 1, 8064
2, 4271, Pitch_bend_c, 1, 8064
2, 4275, Pitch_bend_c, 1, 8064
2, 4279, Pitch_bend_c, 1, 7936
2, 4282, Pitch_bend_c, 1, 7936
2, 4286, Pitch_bend_c, 1, 7936
2, 4290, Pitch_bend_c, 1, 7936
2, 4294, Pitch_bend_c, 1, 7936
2, 4298, Pitch_bend_c, 1, 7936
2, 4301, Pitch_bend_c, 1, 7936
2, 4305, Pitch_bend_c, 1, 8064
2, 4309, Pitch_bend_c, 1, 8064
2, 4312, Pitch_bend_c, 1, 8064
2, 4316, Pitch_bend_c, 1, 8192
2, 4320, Note_off_c, 1, 69, 80
2, 4320, Pitch_bend_c, 1, 8192
2, 4320, Note_on_c, 1, 60, 95
2, 4320, Pitch_bend_c, 1, 8192
2, 4324, Pitch_bend_c, 1, 8192
2, 4328, Pitch_bend_c, 1, 8192
2, 4331, Pitch_bend_c, 1, 8192
2, 4335, Pitch_bend_c, 1, 8192
2, 4339, Pitch_bend_c, 1, 8192
2, 4340, Note_on_c, 1, 64, 95
2, 4340, Pitch_bend_c, 1, 8192
2, 4342, Pitch_bend_c, 1, 8192
2, 4344, Pitch_bend_c, 1, 8192
2, 4346, Pitch_bend_c, 1, 8192
2, 4348, Pitch_bend_c, 1, 8192
2, 4350, Pitch_bend_c, 1, 8192
2, 4351, Pitch_bend_c, 1, 8192
2, 4354, Pitch_bend_c, 1, 8192
2, 4355, Pitch_bend_c, 1, 8192
2, 4358, Pitch_bend_c, 1, 8192
2, 4359, Pitch_bend_c, 1, 8192
2, 4360, Note_on_c, 1, 67, 95
2, 4360, Pitch_bend_c, 1, 8192
2, 4361, Pitch_bend_c, 1, 8192
2, 4362, Pitch_bend_c, 1, 8192
2, 4364, Pitch_bend_c, 1, 8192
2, 4365, Pitch_bend_c, 1, 8192
2, 4366, Pitch_bend_c, 1, 8192
2, 4368, Pitch_bend_c, 1, 8192
2, 4369, Pitch_bend_c, 1, 8192
2, 4370, Pitch_bend_c, 1, 8192
2, 4371, Pitch_bend_c, 1, 8192
2, 4372, Pitch_bend_c, 1, 8192
2, 4374, Pitch_bend_c, 1, 8192
2, 4375, Pitch_bend_c, 1, 8192
2, 4376, Pitch_bend_c, 1, 8192
2, 4378, Pitch_bend_c, 1, 8192
2, 4379, Pitch_bend_c, 1, 8192
2, 4380, Pitch_bend_c, 1, 8192
2, 4380, Note_on_c, 1, 72, 95
2, 4380, Pitch_bend_c, 1, 8192
2, 4381, Pitch_bend_c, 1, 8192
2, 4382, Pitch_bend_c, 1, 8192
2, 4384, Pitch_bend_c, 1, 8192
2, 4384, Pitch_bend_c, 1, 8192
2, 4385, Pitch_bend_c, 1, 8192
2, 4386, Pitch_bend_c, 1, 8192
2, 4388, Pitch_bend_c, 1, 8192
2, 4388, Pitch_bend_c, 1, 8192
2, 4389, Pitch_bend_c, 1, 8192
2, 4390, Pitch_bend_c, 1, 8192
2, 4391, Pitch_bend_c, 1, 8192
2, 4391, Pitch_bend_c, 1, 8192
2, 4392, Pitch_bend_c, 1, 8192
2, 4394, Pitch_bend_c, 1, 8192
2, 4395, Pitch_bend_c, 1, 8192
2, 4395, Pitch_bend_c, 1, 8192
2, 4396, Pitch_bend_c, 1, 8192
2, 4398, Pitch_bend_c, 1, 8192
2, 4399, Pitch_bend_c, 1, 8192
2, 4399, Pitch_bend_c, 1, 8192
2, 4400, Pitch_bend_c, 1, 8192
2, 4401, Pitch_bend_c, 1, 8192
2, 4402, Pitch_bend_c, 1, 8192
2, 4402, Pitch_bend_c, 1, 8192
2, 4404, Pitch_bend_c, 1, 8192
2, 4405, Pitch_bend_c, 1, 8192
2, 4406, Pitch_bend_c, 1, 8192
2, 4406, Pitch_bend_c, 1, 8192
2, 4408, Pitch_bend_c, 1, 8192
2, 4409, Pitch_bend_c, 1, 8192
2, 4410, Pitch_bend_c, 1, 8192
2, 4410, Pitch_bend_c, 1, 8192
2, 4411, Pitch_bend_c, 1, 8192
2, 4412, Pitch_bend_c, 1, 8192
2, 4414, Pitch_bend_c, 1, 8192
2, 4414, Pitch_bend_c, 1, 8192
2, 4415, Pitch_bend_c, 1, 8192
2, 4416, Pitch_bend_c, 1, 8192
2, 4418, Pitch_bend_c, 1, 8192
2, 4418, Pitch_bend_c, 1, 8192
2, 4419, Pitch_bend_c, 1, 8192
2, 4420, Pitch_bend_c, 1, 8192
2, 4421, Pitch_bend_c, 1, 8192
2, 4421, Pitch_bend_c, 1, 8192
2, 4422, Pitch_bend_c, 1, 8192
2, 4424, Pitch_bend_c, 1, 8192
2, 4425, Pitch_bend_c, 1, 8192
2, 4425, Pitch_bend_c, 1, 8192
2, 4426, Pitch_bend_c, 1, 8192
2, 4428, Pitch_bend_c, 1, 8192
2, 4429, Pitch_bend_c, 1, 8192
2, 4429, Pitch_bend_c, 1, 8192
2, 4430, Pitch_bend_c, 1, 8192
2, 4431, Pitch_bend_c, 1, 8192
2, 4432, Pitch_bend_c, 1, 8192
2, 4432, Pitch_bend_c, 1, 8192
2, 4434, Pitch_bend_c, 1, 8192
2, 4435, Pitch_bend_c, 1, 8192
2, 4436, Pitch_bend_c, 1, 8192
2, 4436, Pitch_bend_c, 1, 8192
2, 4438, Pitch_bend_c, 1, 8192
2, 4439, Pitch_bend_c, 1, 8192
2, 4440, Pitch_bend_c, 1, 8192
2, 4440, Pitch_bend_c, 1, 8192
2, 4441, Pitch_bend_c, 1, 8192
2, 4442, Pitch_bend_c, 1, 8192
2, 4444, Pitch_bend_c, 1, 8192
2, 4444, Pitch_bend_c, 1, 8192
2, 4445, Pitch_bend_c, 1, 8192
2, 4446, Pitch_bend_c, 1, 8192
2, 4448, Pitch_bend_c, 1, 8192
2, 4448, Pitch_bend_c, 1, 8192
2, 4449, Pitch_bend_c, 1, 8192
2, 4450, Pitch_bend_c, 1, 8192
2, 4451, Pitch_bend_c, 1, 8192
2, 4451, Pitch_bend_c, 1, 8192
2, 4452, Pitch_bend_c, 1, 8192
2, 4454, Pitch_bend_c, 1, 8192
2, 4455, Pitch_bend_c, 1, 8320
2, 4455, Pitch_bend_c, 1, 8192
2, 4456, Pitch_bend_c, 1, 8192
2, 4458, Pitch_bend_c, 1, 8192
2, 4459, Pitch_bend_c, 1, 8320
2, 4459, Pitch_bend_c, 1, 8192
2, 4460, Pitch_bend_c, 1, 8192
2, 4461, Pitch_bend_c, 1, 8192
2, 4462, Pitch_bend_c, 1, 8320
2, 4462, Pitch_bend_c, 1, 8192
2, 4464, Pitch_bend_c, 1, 8192
2, 4465, Pitch_bend_c, 1, 8192
2, 4466, Pitch_bend_c, 1, 8320
2, 4466, Pitch_bend_c, 1, 8192
2, 4468, Pitch_bend_c, 1, 8192
2, 4469, Pitch_bend_c, 1, 8192
2, 4470, Pitch_bend_c, 1, 8320
2, 4470, Pitch_bend_c, 1, 8192
2, 4471, Pitch_bend_c, 1, 8192
2, 4472, Pitch_bend_c, 1, 8192
2, 4474, Pitch_bend_c, 1, 8320
2, 4474, Pitch_bend_c, 1, 8192
2, 4475, Pitch_bend_c, 1, 8320
2, 4476, Pitch_bend_c, 1, 8192
2, 4478, Pitch_bend_c, 1, 8320
2, 4478, Pitch_bend_c, 1, 8192
2, 4479, Pitch_bend_c, 1, 8320
2, 4480, Pitch_bend_c, 1, 8192
2, 4481, Pitch_bend_c, 1, 8320
2, 4481, Pitch_bend_c, 1, 8192
2, 4482, Pitch_bend_c, 1, 8320
2, 4484, Pitch_bend_c, 1, 8192
2, 4485, Pitch_bend_c, 1, 8320
2, 4485, Pitch_bend_c, 1, 8192
2, 4486, Pitch_bend_c, 1, 8320
2, 4488, Pitch_bend_c, 1, 8320
2, 4489, Pitch_bend_c, 1, 8192
2, 4489, Pitch_bend_c, 1, 8192
2, 4490, Pitch_bend_c, 1, 8320
2, 4491, Pitch_bend_c, 1, 8320
2, 4492, Pitch_bend_c, 1, 8192
2, 4492, Pitch_bend_c, 1, 8192
2, 4494, Pitch_bend_c, 1, 8320
2, 4495, Pitch_bend_c, 1, 8320
2, 4496, Pitch_bend_c, 1, 8192
2, 4496, Pitch_bend_c, 1, 8192
2, 4498, Pitch_bend_c, 1, 8320
2, 4499, Pitch_bend_c, 1, 8320
2, 4500, Pitch_bend_c, 1, 8192
2, 4500, Pitch_bend_c, 1, 8192
2, 4501, Pitch_bend_c, 1, 8320
2, 4502, Pitch_bend_c, 1, 8320
2, 4504, Pitch_bend_c, 1, 8192
2, 4504, Pitch_bend_c, 1, 8192
2, 4505, Pitch_bend_c, 1, 8320
2, 4506, Pitch_bend_c, 1, 8320
2, 4508, Pitch_bend_c, 1, 8192
2, 4508, Pitch_bend_c, 1, 8320
2, 4509, Pitch_bend_c, 1, 8192
2, 4510, Pitch_bend_c, 1, 8320
2, 4511, Pitch_bend_c, 1, 8192
2, 4511, Pitch_bend_c, 1, 8320
2, 4512, Pitch_bend_c, 1, 8192
2, 4514, Pitch_bend_c, 1, 8320
2, 4515, Pitch_bend_c, 1, 8064
2, 4515, Pitch_bend_c, 1, 8320
2, 4516, Pitch_bend_c, 1, 8192
2, 4518, Pitch_bend_c, 1, 8320
2, 4519, Pitch_bend_c, 1, 8064
2, 4519, Pitch_bend_c, 1, 8320
2, 4520, Pitch_bend_c, 1, 8192
2, 4521, Pitch_bend_c, 1, 8320
2, 4522, Pitch_bend_c, 1, 8064
2, 4522, Pitch_bend_c, 1, 8320
2, 4524, Pitch_bend_c, 1, 8192
2, 4525, Pitch_bend_c, 1, 8320
2, 4526, Pitch_bend_c, 1, 8064
2, 4526, Pitch_bend_c, 1, 8320
2, 4528, Pitch_bend_c, 1, 8192
2, 4529, Pitch_bend_c, 1, 8320
2, 4530, Pitch_bend_c, 1, 8064
2, 4530, Pitch_bend_c, 1, 8320
2, 4531, Pitch_bend_c, 1, 8192
2, 4532, Pitch_bend_c, 1, 8320
2, 4534, Pitch_bend_c, 1, 8064
2, 4534, Pitch_bend_c, 1, 8320
2, 4535, Pitch_bend_c, 1, 8064
2, 4536, Pitch_bend_c, 1, 8192
2, 4538, Pitch_bend_c, 1, 8064
2, 4538, Pitch_bend_c, 1, 8320
2, 4539, Pitch_bend_c, 1, 8064
2, 4540, Pitch_bend_c, 1, 8192
2, 4541, Pitch_bend_c, 1, 8064
2, 4541, Pitch_bend_c, 1, 8320
2, 4542, Pitch_bend_c, 1, 8064
2, 4544, Pitch_bend_c, 1, 8192
2, 4545, Pitch_bend_c, 1, 8064
2, 4545, Pitch_bend_c, 1, 8320
2, 4546, Pitch_bend_c, 1, 8064
2, 4548, Pitch_bend_c, 1, 8064
2, 4549, Pitch_bend_c, 1, 8192
2, 4549, Pitch_bend_c, 1, 8320
2, 4550, Pitch_bend_c, 1, 8064
2, 4551, Pitch_bend_c, 1, 8064
2, 4552, Pitch_bend_c, 1, 8192
2, 4552, Pitch_bend_c, 1, 8320
2, 4554, Pitch_bend_c, 1, 8064
2, 4555, Pitch_bend_c, 1, 8064
2, 4556, Pitch_bend_c, 1, 8192
2, 4556, Pitch_bend_c, 1, 8192
2, 4558, Pitch_bend_c, 1, 8064
2, 4559, Pitch_bend_c, 1, 8064
2, 4560, Pitch_bend_c, 1, 8192
2, 4560, Pitch_bend_c, 1, 8192
2, 4561, Pitch_bend_c, 1, 8064
2, 4562, Pitch_bend_c, 1, 8064
2, 4564, Pitch_bend_c, 1, 8192
2, 4564, Pitch_bend_c, 1, 8192
2, 4565, Pitch_bend_c, 1, 8064
2, 4566, Pitch_bend_c, 1, 8064
2, 4568, Pitch_bend_c, 1, 8320
2, 4568, Pitch_bend_c, 1, 8064
2, 4569, Pitch_bend_c, 1, 8192
2, 4570, Pitch_bend_c, 1, 8064
2, 4571, Pitch_bend_c, 1, 8320
2, 4571, Pitch_bend_c, 1, 8064
2, 4572, Pitch_bend_c, 1, 8192
2, 4574, Pitch_bend_c, 1, 8064
2, 4575, Pitch_bend_c, 1, 8320
2, 4575, Pitch_bend_c, 1, 8064
2, 4576, Pitch_bend_c, 1, 8192
2, 4578, Pitch_bend_c, 1, 8064
2, 4579, Pitch_bend_c, 1, 8320
2, 4579, Pitch_bend_c, 1, 8064
2, 4580, Pitch_bend_c, 1, 8192
2, 4581, Pitch_bend_c, 1, 8064
2, 4582, Pitch_bend_c, 1, 8320
2, 4582, Pitch_bend_c, 1, 8064
2, 4584, Pitch_bend_c, 1, 8320
2, 4585, Pitch_bend_c, 1, 8064
2, 4586, Pitch_bend_c, 1, 8448
2, 4586, Pitch_bend_c, 1, 8064
2, 4588, Pitch_bend_c, 1, 8320
2, 4589, Pitch_bend_c, 1, 8064
2, 4590, Pitch_bend_c, 1, 8448
2, 4590, Pitch_bend_c, 1, 8064
2, 4591, Pitch_bend_c, 1, 8320
2, 4592, Pitch_bend_c, 1, 8064
2, 4594, Pitch_bend_c, 1, 8448
2, 4594, Pitch_bend_c, 1, 8064
2, 4595, Pitch_bend_c, 1, 8448
2, 4596, Pitch_bend_c, 1, 8192
2, 4598, Pitch_bend_c, 1, 8320
2, 4598, Pitch_bend_c, 1, 8064
2, 4599, Pitch_bend_c, 1, 8448
2, 4600, Pitch_bend_c, 1, 8192
2, 4601, Pitch_bend_c, 1, 8320
2, 4601, Pitch_bend_c, 1, 8064
2, 4602, Pitch_bend_c, 1, 8448
2, 4604, Pitch_bend_c, 1, 8192
2, 4605, Pitch_bend_c, 1, 8320
2, 4605, Pitch_bend_c, 1, 8064
2, 4606, Pitch_bend_c, 1, 8448
2, 4608, Pitch_bend_c, 1, 8320
2, 4609, Pitch_bend_c, 1, 8320
2, 4609, Pitch_bend_c, 1, 8064
2, 4610, Pitch_bend_c, 1, 8448
2, 4611, Pitch_bend_c, 1, 8320
2, 4612, Pitch_bend_c, 1, 8320
2, 4612, Pitch_bend_c, 1, 8064
2, 4614, Pitch_bend_c, 1, 8448
2, 4615, Pitch_bend_c, 1, 8320
2, 4616, Pitch_bend_c, 1, 8192
2, 4616, Pitch_bend_c, 1, 8192
2, 4618, Pitch_bend_c, 1, 8448
2, 4619, Pitch_bend_c, 1, 8320
2, 4620, Pitch_bend_c, 1, 8192
2, 4620, Pitch_bend_c, 1, 8192
2, 4621, Pitch_bend_c, 1, 8448
2, 4622, Pitch_bend_c, 1, 8320
2, 4624, Pitch_bend_c, 1, 8192
2, 4624, Pitch_bend_c, 1, 8192
2, 4625, Pitch_bend_c, 1, 8448
2, 4626, Pitch_bend_c, 1, 8320
2, 4628, Pitch_bend_c, 1, 8064
2, 4628, Pitch_bend_c, 1, 8320
2, 4629, Pitch_bend_c, 1, 8320
2, 4630, Pitch_bend_c, 1, 8320
2, 4631, Pitch_bend_c, 1, 8064
2, 4631, Pitch_bend_c, 1, 8320
2, 4632, Pitch_bend_c, 1, 8320
2, 4634, Pitch_bend_c, 1, 8320
2, 4635, Pitch_bend_c, 1, 8064
2, 4635, Pitch_bend_c, 1, 8320
2, 4636, Pitch_bend_c, 1, 8320
2, 4638, Pitch_bend_c, 1, 8320
2, 4639, Pitch_bend_c, 1, 8064
2, 4639, Pitch_bend_c, 1, 8320
2, 4640, Pitch_bend_c, 1, 8192
2, 4641, Pitch_bend_c, 1, 8320
2, 4642, Pitch_bend_c, 1, 8064
2, 4642, Pitch_bend_c, 1, 8320
2, 4644, Pitch_bend_c, 1, 8064
2, 4645, Pitch_bend_c, 1, 8320
2, 4646, Pitch_bend_c, 1, 7936
2, 4646, Pitch_bend_c, 1, 8448
2, 4648, Pitch_bend_c, 1, 8064
2, 4649, Pitch_bend_c, 1, 8320
2, 4650, Pitch_bend_c, 1, 7936
2, 4650, Pitch_bend_c, 1, 8448
2, 4651, Pitch_bend_c, 1, 8064
2, 4652, Pitch_bend_c, 1, 8320
2, 4654, Pitch_bend_c, 1, 7936
2, 4654, Pitch_bend_c, 1, 8448
2, 4655, Pitch_bend_c, 1, 7936
2, 4656, Pitch_bend_c, 1, 8192
2, 4658, Pitch_bend_c, 1, 8064
2, 4658, Pitch_bend_c, 1, 8320
2, 4659, Pitch_bend_c, 1, 7936
2, 4660, Pitch_bend_c, 1, 8192
2, 4661, Pitch_bend_c, 1, 8064
2, 4661, Pitch_bend_c, 1, 8320
2, 4662, Pitch_bend_c, 1, 7936
2, 4664, Pitch_bend_c, 1, 8192
2, 4665, Pitch_bend_c, 1, 8064
2, 4665, Pitch_bend_c, 1, 8320
2, 4666, Pitch_bend_c, 1, 7936
2, 4668, Pitch_bend_c, 1, 8064
2, 4669, Pitch_bend_c, 1, 8064
2, 4669, Pitch_bend_c, 1, 8320
2, 4670, Pitch_bend_c, 1, 7936
2, 4671, Pitch_bend_c, 1, 8064
2, 4672, Pitch_bend_c, 1, 8064
2, 4672, Pitch_bend_c, 1, 8320
2, 4674, Pitch_bend_c, 1, 7936
2, 4675, Pitch_bend_c, 1, 8064
2, 4676, Pitch_bend_c, 1, 8192
2, 4676, Pitch_bend_c, 1, 8192
2, 4678, Pitch_bend_c, 1, 7936
2, 4679, Pitch_bend_c, 1, 8064
2, 4680, Pitch_bend_c, 1, 8192
2, 4680, Pitch_bend_c, 1, 8192
2, 4681, Pitch_bend_c, 1, 7936
2, 4682, Pitch_bend_c, 1, 8064
2, 4684, Pitch_bend_c, 1, 8192
2, 4684, Pitch_bend_c, 1, 8192
2, 4685, Pitch_bend_c, 1, 7936
2, 4686, Pitch_bend_c, 1, 8064
2, 4688, Pitch_bend_c, 1, 8320
2, 4688, Pitch_bend_c, 1, 8064
2, 4689, Pitch_bend_c, 1, 8064
2, 4690, Pitch_bend_c, 1, 8064
2, 4691, Pitch_bend_c, 1, 8320
2, 4691, Pitch_bend_c, 1, 8064
2, 4692, Pitch_bend_c, 1, 8064
2, 4694, Pitch_bend_c, 1, 8064
2, 4695, Pitch_bend_c, 1, 8448
2, 4695, Pitch_bend_c, 1, 8064
2, 4696, Pitch_bend_c, 1, 8064
2, 4698, Pitch_bend_c, 1, 8064
2, 4699, Pitch_bend_c, 1, 8448
2, 4699, Pitch_bend_c, 1, 8064
2, 4700, Pitch_bend_c, 1, 8192
2, 4701, Pitch_bend_c, 1, 8064
2, 4702, Pitch_bend_c, 1, 8448
2, 4702, Pitch_bend_c, 1, 8064
2, 4704, Pitch_bend_c, 1, 8320
2, 4705, Pitch_bend_c, 1, 8064
2, 4706, Pitch_bend_c, 1, 8448
2, 4706, Pitch_bend_c, 1, 7936
2, 4708, Pitch_bend_c, 1, 8320
2, 4709, Pitch_bend_c, 1, 8064
2, 4710, Pitch_bend_c, 1, 8448
2, 4710, Pitch_bend_c, 1, 7936
2, 4711, Pitch_bend_c, 1, 8320
2, 4712, Pitch_bend_c, 1, 8064
2, 4714, Pitch_bend_c, 1, 8448
2, 4714, Pitch_bend_c, 1, 7936
2, 4715, Pitch_bend_c, 1, 8448
2, 4716, Pitch_bend_c, 1, 8192
2, 4718, Pitch_bend_c, 1, 8448
2, 4718, Pitch_bend_c, 1, 8064
2, 4719, Pitch_bend_c, 1, 8448
2, 4720, Pitch_bend_c, 1, 8192
2, 4721, Pitch_bend_c, 1, 8448
2, 4721, Pitch_bend_c, 1, 8064
2, 4722, Pitch_bend_c, 1, 8448
2, 4724, Pitch_bend_c, 1, 8192
2, 4725, Pitch_bend_c, 1, 8448
2, 4725, Pitch_bend_c, 1, 8064
2, 4726, Pitch_bend_c, 1, 8448
2, 4728, Pitch_bend_c, 1, 8320
2, 4729, Pitch_bend_c, 1, 8320
2, 4729, Pitch_bend_c, 1, 8064
2, 4730, Pitch_bend_c, 1, 8448
2, 4731, Pitch_bend_c, 1, 8320
2, 4732, Pitch_bend_c, 1, 8320
2, 4732, Pitch_bend_c, 1, 8064
2, 4734, Pitch_bend_c, 1, 8448
2, 4735, Pitch_bend_c, 1, 8448
2, 4736, Pitch_bend_c, 1, 8192
2, 4736, Pitch_bend_c, 1, 8192
2, 4738, Pitch_bend_c, 1, 8448
2, 4739, Pitch_bend_c, 1, 8448
2, 4740, Pitch_bend_c, 1, 8192
2, 4740, Pitch_bend_c, 1, 8192
2, 4741, Pitch_bend_c, 1, 8448
2, 4742, Pitch_bend_c, 1, 8448
2, 4744, Pitch_bend_c, 1, 8192
2, 4744, Pitch_bend_c, 1, 8192
2, 4745, Pitch_bend_c, 1, 8448
2, 4746, Pitch_bend_c, 1, 8448
2, 4748, Pitch_bend_c, 1, 8064
2, 4748, Pitch_bend_c, 1, 8320
2, 4749, Pitch_bend_c, 1, 8320
2, 4750, Pitch_bend_c, 1, 8448
2, 4751, Pitch_bend_c, 1, 8064
2, 4751, Pitch_bend_c, 1, 8320
2, 4752, Pitch_bend_c, 1, 8320
2, 4754, Pitch_bend_c, 1, 8448
2, 4755, Pitch_bend_c, 1, 7936
2, 4755, Pitch_bend_c, 1, 8320
2, 4756, Pitch_bend_c, 1, 8320
2, 4758, Pitch_bend_c, 1, 8448
2, 4759, Pitch_bend_c, 1, 7936
2, 4759, Pitch_bend_c, 1, 8320
2, 4760, Pitch_bend_c, 1, 8192
2, 4761, Pitch_bend_c, 1, 8448
2, 4762, Pitch_bend_c, 1, 7936
2, 4762, Pitch_bend_c, 1, 8320
2, 4764, Pitch_bend_c, 1, 8064
2, 4765, Pitch_bend_c, 1, 8448
2, 4766, Pitch_bend_c, 1, 7936
2, 4766, Pitch_bend_c, 1, 8320
2, 4768, Pitch_bend_c, 1, 8064
2, 4769, Pitch_bend_c, 1, 8320
2, 4770, Pitch_bend_c, 1, 7936
2, 4770, Pitch_bend_c, 1, 8320
2, 4771, Pitch_bend_c, 1, 8064
2, 4772, Pitch_bend_c, 1, 8320
2, 4774, Pitch_bend_c, 1, 7936
2, 4774, Pitch_bend_c, 1, 8320
2, 4775, Pitch_bend_c, 1, 7936
2, 4776, Pitch_bend_c, 1, 8192
2, 4778, Pitch_bend_c, 1, 7936
2, 4778, Pitch_bend_c, 1, 8320
2, 4779, Pitch_bend_c, 1, 7936
2, 4780, Pitch_bend_c, 1, 8192
2, 4781, Pitch_bend_c, 1, 7936
2, 4781, Pitch_bend_c, 1, 8320
2, 4782, Pitch_bend_c, 1, 7936
2, 4784, Pitch_bend_c, 1, 8192
2, 4785, Pitch_bend_c, 1, 7936
2, 4785, Pitch_bend_c, 1, 8320
2, 4786, Pitch_bend_c, 1, 7936
2, 4788, Pitch_bend_c, 1, 8064
2, 4789, Pitch_bend_c, 1, 8064
2, 4789, Pitch_bend_c, 1, 8320
2, 4790, Pitch_bend_c, 1, 7936
2, 4791, Pitch_bend_c, 1, 8064
2, 4792, Pitch_bend_c, 1, 8064
2, 4792, Pitch_bend_c, 1, 8320
2, 4794, Pitch_bend_c, 1, 7936
2, 4795, Pitch_bend_c, 1, 7936
2, 4796, Pitch_bend_c, 1, 8192
2, 4796, Pitch_bend_c, 1, 8192
2, 4798, Pitch_bend_c, 1, 7936
2, 4799, Pitch_bend_c, 1, 7936
2, 4800, Pitch_bend_c, 1, 8192
2, 4800, Pitch_bend_c, 1, 8192
2, 4801, Pitch_bend_c, 1, 7936
2, 4802, Pitch_bend_c, 1, 7936
2, 4804, Pitch_bend_c, 1, 8192
2, 4804, Pitch_bend_c, 1, 8192
2, 4805, Pitch_bend_c, 1, 7936
2, 4806, Pitch_bend_c, 1, 7936
2, 4808, Pitch_bend_c, 1, 8320
2, 4808, Pitch_bend_c, 1, 8064
2, 4809, Pitch_bend_c, 1, 8064
2, 4810, Pitch_bend_c, 1, 7936
2, 4811, Pitch_bend_c, 1, 8320
2, 4811, Pitch_bend_c, 1, 8064
2, 4812, Pitch_bend_c, 1, 8064
2, 4814, Pitch_bend_c, 1, 7936
2, 4815, Pitch_bend_c, 1, 8320
2, 4815, Pitch_bend_c, 1, 8064
2, 4816, Pitch_bend_c, 1, 8064
2, 4818, Pitch_bend_c, 1, 7936
2, 4819, Pitch_bend_c, 1, 8448
2, 4819, Pitch_bend_c, 1, 8064
2, 4820, Pitch_bend_c, 1, 8192
2, 4821, Pitch_bend_c, 1, 7936
2, 4822, Pitch_bend_c, 1, 8448
2, 4822, Pitch_bend_c, 1, 8064
2, 4824, Pitch_bend_c, 1, 8192
2, 4825, Pitch_bend_c, 1, 7936
2, 4826, Pitch_bend_c, 1, 8448
2, 4826, Pitch_bend_c, 1, 8064
2, 4828, Pitch_bend_c, 1, 8320
2, 4829, Pitch_bend_c, 1, 8064
2, 4830, Pitch_bend_c, 1, 8448
2, 4830, Pitch_bend_c, 1, 8064
2, 4831, Pitch_bend_c, 1, 8320
2, 4832, Pitch_bend_c, 1, 8064
2, 4834, Pitch_bend_c, 1, 8448
2, 4834, Pitch_bend_c, 1, 8064
2, 4835, Pitch_bend_c, 1, 8320
2, 4836, Pitch_bend_c, 1, 8192
2, 4838, Pitch_bend_c, 1, 8448
2, 4838, Pitch_bend_c, 1, 8064
2, 4839, Pitch_bend_c, 1, 8320
2, 4840, Pitch_bend_c, 1, 8192
2, 4841, Pitch_bend_c, 1, 8448
2, 4841, Pitch_bend_c, 1, 8064
2, 4842, Pitch_bend_c, 1, 8320
2, 4844, Pitch_bend_c, 1, 8192
2, 4845, Pitch_bend_c, 1, 8320
2, 4845, Pitch_bend_c, 1, 8064
2, 4846, Pitch_bend_c, 1, 8320
2, 4848, Pitch_bend_c, 1, 8320
2, 4849, Pitch_bend_c, 1, 8320
2, 4849, Pitch_bend_c, 1, 8064
2, 4850, Pitch_bend_c, 1, 8320
2, 4851, Pitch_bend_c, 1, 8320
2, 4852, Pitch_bend_c, 1, 8320
2, 4852, Pitch_bend_c, 1, 8064
2, 4854, Pitch_bend_c, 1, 8320
2, 4855, Pitch_bend_c, 1, 8320
2, 4856, Pitch_bend_c, 1, 8192
2, 4856, Pitch_bend_c, 1, 8192
2, 4858, Pitch_bend_c, 1, 8320
2, 4859, Pitch_bend_c, 1, 8320
2, 4860, Pitch_bend_c, 1, 8192
2, 4860, Pitch_bend_c, 1, 8192
2, 4861, Pitch_bend_c, 1, 8320
2, 4862, Pitch_bend_c, 1, 8320
2, 4864, Pitch_bend_c, 1, 8192
2, 4864, Pitch_bend_c, 1, 8192
2, 4865, Pitch_bend_c, 1, 8320
2, 4866, Pitch_bend_c, 1, 8320
2, 4868, Pitch_bend_c, 1, 8064
2, 4868, Pitch_bend_c, 1, 8320
2, 4869, Pitch_bend_c, 1, 8320
2, 4870, Pitch_bend_c, 1, 8320
2, 4871, Pitch_bend_c, 1, 8064
2, 4871, Pitch_bend_c, 1, 8320
2, 4872, Pitch_bend_c, 1, 8320
2, 4874, Pitch_bend_c, 1, 8320
2, 4875, Pitch_bend_c, 1, 8064
2, 4875, Pitch_bend_c, 1, 8320
2, 4876, Pitch_bend_c, 1, 8192
2, 4878, Pitch_bend_c, 1, 8320
2, 4879, Pitch_bend_c, 1, 7936
2, 4879, Pitch_bend_c, 1, 8448
2, 4880, Pitch_bend_c, 1, 8192
2, 4881, Pitch_bend_c, 1, 8320
2, 4882, Pitch_bend_c, 1, 7936
2, 4882, Pitch_bend_c, 1, 8448
2, 4884, Pitch_bend_c, 1, 8192
2, 4885, Pitch_bend_c, 1, 8320
2, 4886, Pitch_bend_c, 1, 7936
2, 4886, Pitch_bend_c, 1, 8448
2, 4888, Pitch_bend_c, 1, 8064
2, 4889, Pitch_bend_c, 1, 8320
2, 4890, Pitch_bend_c, 1, 7936
2, 4890, Pitch_bend_c, 1, 8448
2, 4891, Pitch_bend_c, 1, 8064
2, 4892, Pitch_bend_c, 1, 8320
2, 4894, Pitch_bend_c, 1, 7936
2, 4894, Pitch_bend_c, 1, 8448
2, 4895, Pitch_bend_c, 1, 8064
2, 4896, Pitch_bend_c, 1, 8192
2, 4898, Pitch_bend_c, 1, 7936
2, 4898, Pitch_bend_c, 1, 8448
2, 4899, Pitch_bend_c, 1, 8064
2, 4900, Pitch_bend_c, 1, 8192
2, 4901, Pitch_bend_c, 1, 7936
2, 4901, Pitch_bend_c, 1, 8448
2, 4902, Pitch_bend_c, 1, 8064
2, 4904, Pitch_bend_c, 1, 8192
2, 4905, Pitch_bend_c, 1, 8064
2, 4905, Pitch_bend_c, 1, 8320
2, 4906, Pitch_bend_c, 1, 8064
2, 4908, Pitch_bend_c, 1, 8064
2, 4909, Pitch_bend_c, 1, 8064
2, 4909, Pitch_bend_c, 1, 8320
2, 4910, Pitch_bend_c, 1, 8064
2, 4911, Pitch_bend_c, 1, 8064
2, 4912, Pitch_bend_c, 1, 8064
2, 4912, Pitch_bend_c, 1, 8320
2, 4914, Pitch_bend_c, 1, 8064
2, 4915, Pitch_bend_c, 1, 8064
2, 4916, Pitch_bend_c, 1, 8192
2, 4916, Pitch_bend_c, 1, 8192
2, 4918, Pitch_bend_c, 1, 8064
2, 4919, Pitch_bend_c, 1, 8064
2, 4920, Pitch_bend_c, 1, 8192
2, 4920, Pitch_bend_c, 1, 8192
2, 4921, Pitch_bend_c, 1, 8064
2, 4922, Pitch_bend_c, 1, 8064
2, 4924, Pitch_bend_c, 1, 8192
2, 4924, Pitch_bend_c, 1, 8192
2, 4925, Pitch_bend_c, 1, 8064
2, 4926, Pitch_bend_c, 1, 8064
2, 4928, Pitch_bend_c, 1, 8320
2, 4928, Pitch_bend_c, 1, 8064
2, 4929, Pitch_bend_c, 1, 8064
2, 4930, Pitch_bend_c, 1, 8064
2, 4931, Pitch_bend_c, 1, 8320
2, 4931, Pitch_bend_c, 1, 8064
2, 4932, Pitch_bend_c, 1, 8064
2, 4934, Pitch_bend_c, 1, 8064
2, 4935, Pitch_bend_c, 1, 8320
2, 4935, Pitch_bend_c, 1, 8064
2, 4936, Pitch_bend_c, 1, 8192
2, 4938, Pitch_bend_c, 1, 8064
2, 4939, Pitch_bend_c, 1, 8448
2, 4939, Pitch_bend_c, 1, 7936
2, 4940, Pitch_bend_c, 1, 8192
2, 4941, Pitch_bend_c, 1, 8064
2, 4942, Pitch_bend_c, 1, 8448
2, 4942, Pitch_bend_c, 1, 7936
2, 4944, Pitch_bend_c, 1, 8192
2, 4945, Pitch_bend_c, 1, 8064
2, 4946, Pitch_bend_c, 1, 8448
2, 4946, Pitch_bend_c, 1, 7936
2, 4948, Pitch_bend_c, 1, 8320
2, 4949, Pitch_bend_c, 1, 8064
2, 4950, Pitch_bend_c, 1, 8448
2, 4950, Pitch_bend_c, 1, 7936
2, 4951, Pitch_bend_c, 1, 8320
2, 4952, Pitch_bend_c, 1, 8064
2, 4954, Pitch_bend_c, 1, 8448
2, 4954, Pitch_bend_c, 1, 7936
2, 4955, Pitch_bend_c, 1, 8320
2, 4956, Pitch_bend_c, 1, 8192
2, 4958, Pitch_bend_c, 1, 8448
2, 4958, Pitch_bend_c, 1, 7936
2, 4959, Pitch_bend_c, 1, 8320
2, 4960, Pitch_bend_c, 1, 8192
2, 4961, Pitch_bend_c, 1, 8448
2, 4961, Pitch_bend_c, 1, 7936
2, 4962, Pitch_bend_c, 1, 8320
2, 4964, Pitch_bend_c, 1, 8320
2, 4965, Pitch_bend_c, 1, 8320
2, 4965, Pitch_bend_c, 1, 8064
2, 4966, Pitch_bend_c, 1, 8320
2, 4968, Pitch_bend_c, 1, 8320
2, 4969, Pitch_bend_c, 1, 8320
2, 4969, Pitch_bend_c, 1, 8064
2, 4970, Pitch_bend_c, 1, 8320
2, 4971, Pitch_bend_c, 1, 8320
2, 4972, Pitch_bend_c, 1, 8320
2, 4972, Pitch_bend_c, 1, 8064
2, 4974, Pitch_bend_c, 1, 8320
2, 4975, Pitch_bend_c, 1, 8448
2, 4976, Pitch_bend_c, 1, 8192
2, 4976, Pitch_bend_c, 1, 8192
2, 4978, Pitch_bend_c, 1, 8320
2, 4979, Pitch_bend_c, 1, 8448
2, 4980, Pitch_bend_c, 1, 8192
2, 4980, Pitch_bend_c, 1, 8192
2, 4981, Pitch_bend_c, 1, 8320
2, 4982, Pitch_bend_c, 1, 8448
2, 4984, Pitch_bend_c, 1, 8192
2, 4984, Pitch_bend_c, 1, 8192
2, 4985, Pitch_bend_c, 1, 8320
2, 4986, Pitch_bend_c, 1, 8448
2, 4988, Pitch_bend_c, 1, 8064
2, 4988, Pitch_bend_c, 1, 8320
2, 4989, Pitch_bend_c, 1, 8320
2, 4990, Pitch_bend_c, 1, 8448
2, 4991, Pitch_bend_c, 1, 8064
2, 4991, Pitch_bend_c, 1, 8320
2, 4992, Pitch_bend_c, 1, 8320
2, 4994, Pitch_bend_c, 1, 8448
2, 4995, Pitch_bend_c, 1, 8064
2, 4995, Pitch_bend_c, 1, 8448
2, 4996, Pitch_bend_c, 1, 8192
2, 4998, Pitch_bend_c, 1, 8448
2, 4999, Pitch_bend_c, 1, 7936
2, 4999, Pitch_bend_c, 1, 8448
2, 5000, Pitch_bend_c, 1, 8192
2, 5001, Pitch_bend_c, 1, 8448
2, 5002, Pitch_bend_c, 1, 7936
2, 5002, Pitch_bend_c, 1, 8448
2, 5004, Pitch_bend_c, 1, 8192
2, 5005, Pitch_bend_c, 1, 8448
2, 5006, Pitch_bend_c, 1, 7936
2, 5006, Pitch_bend_c, 1, 8448
2, 5008, Pitch_bend_c, 1, 8064
2, 5009, Pitch_bend_c, 1, 8320
2, 5010, Pitch_bend_c, 1, 7936
2, 5010, Pitch_bend_c, 1, 8448
2, 5011, Pitch_bend_c, 1, 8064
2, 5012, Pitch_bend_c, 1, 8320
2, 5014, Pitch_bend_c, 1, 7936
2, 5014, Pitch_bend_c, 1, 8448
2, 5015, Pitch_bend_c, 1, 8064
2, 5016, Pitch_bend_c, 1, 8320
2, 5018, Pitch_bend_c, 1, 7936
2, 5018, Pitch_bend_c, 1, 8448
2, 5019, Pitch_bend_c, 1, 8064
2, 5020, Pitch_bend_c, 1, 8192
2, 5021, Pitch_bend_c, 1, 7936
2, 5021, Pitch_bend_c, 1, 8448
2, 5022, Pitch_bend_c, 1, 8064
2, 5024, Pitch_bend_c, 1, 8064
2, 5025, Pitch_bend_c, 1, 8064
2, 5025, Pitch_bend_c, 1, 8448
2, 5026, Pitch_bend_c, 1, 8064
2, 5028, Pitch_bend_c, 1, 8064
2, 5029, Pitch_bend_c, 1, 8064
2, 5029, Pitch_bend_c, 1, 8320
2, 5030, Pitch_bend_c, 1, 8064
2, 5031, Pitch_bend_c, 1, 8064
2, 5032, Pitch_bend_c, 1, 8064
2, 5032, Pitch_bend_c, 1, 8320
2, 5034, Pitch_bend_c, 1, 8064
2, 5035, Pitch_bend_c, 1, 7936
2, 5036, Pitch_bend_c, 1, 8192
2, 5036, Pitch_bend_c, 1, 8192
2, 5038, Pitch_bend_c, 1, 8064
2, 5039, Pitch_bend_c, 1, 7936
2, 5040, Pitch_bend_c, 1, 8192
2, 5040, Pitch_bend_c, 1, 8192
2, 5041, Pitch_bend_c, 1, 8064
2, 5042, Pitch_bend_c, 1, 7936
2, 5044, Pitch_bend_c, 1, 8192
2, 5044, Pitch_bend_c, 1, 8192
2, 5045, Pitch_bend_c, 1, 8064
2, 5046, Pitch_bend_c, 1, 7936
2, 5048, Pitch_bend_c, 1, 8320
2, 5048, Pitch_bend_c, 1, 8064
2, 5049, Pitch_bend_c, 1, 8064
2, 5050, Pitch_bend_c, 1, 7936
2, 5051, Pitch_bend_c, 1, 8320
2, 5051, Pitch_bend_c, 1, 8064
2, 5052, Pitch_bend_c, 1, 8064
2, 5054, Pitch_bend_c, 1, 7936
2, 5055, Pitch_bend_c, 1, 8320
2, 5055, Pitch_bend_c, 1, 7936
2, 5056, Pitch_bend_c, 1, 8192
2, 5058, Pitch_bend_c, 1, 7936
2, 5059, Pitch_bend_c, 1, 8448
2, 5059, Pitch_bend_c, 1, 7936
2, 5060, Pitch_bend_c, 1, 8192
2, 5061, Pitch_bend_c, 1, 7936
2, 5062, Pitch_bend_c, 1, 8448
2, 5062, Pitch_bend_c, 1, 7936
2, 5064, Pitch_bend_c, 1, 8192
2, 5065, Pitch_bend_c, 1, 7936
2, 5066, Pitch_bend_c, 1, 8448
2, 5066, Pitch_bend_c, 1, 7936
2, 5068, Pitch_bend_c, 1, 8320
2, 5069, Pitch_bend_c, 1, 8064
2, 5070, Pitch_bend_c, 1, 8448
2, 5070, Pitch_bend_c, 1, 7936
2, 5071, Pitch_bend_c, 1, 8320
2, 5072, Pitch_bend_c, 1, 8064
2, 5074, Pitch_bend_c, 1, 8448
2, 5074, Pitch_bend_c, 1, 7936
2, 5075, Pitch_bend_c, 1, 8320
2, 5076, Pitch_bend_c, 1, 8064
2, 5078, Pitch_bend_c, 1, 8448
2, 5078, Pitch_bend_c, 1, 7936
2, 5079, Pitch_bend_c, 1, 8320
2, 5080, Pitch_bend_c, 1, 8192
2, 5081, Pitch_bend_c, 1, 8448
2, 5081, Pitch_bend_c, 1, 7936
2, 5082, Pitch_bend_c, 1, 8448
2, 5084, Pitch_bend_c, 1, 8192
2, 5085, Pitch_bend_c, 1, 8320
2, 5085, Pitch_bend_c, 1, 7936
2, 5086, Pitch_bend_c, 1, 8448
2, 5088, Pitch_bend_c, 1, 8320
2, 5089, Pitch_bend_c, 1, 8320
2, 5089, Pitch_bend_c, 1, 8064
2, 5090, Pitch_bend_c, 1, 8448
2, 5091, Pitch_bend_c, 1, 8320
2, 5092, Pitch_bend_c, 1, 8320
2, 5092, Pitch_bend_c, 1, 8064
2, 5094, Pitch_bend_c, 1, 8448
2, 5095, Pitch_bend_c, 1, 8320
2, 5096, Pitch_bend_c, 1, 8192
2, 5096, Pitch_bend_c, 1, 8192
2, 5098, Pitch_bend_c, 1, 8448
2, 5099, Pitch_bend_c, 1, 8320
2, 5100, Pitch_bend_c, 1, 8192
2, 5100, Pitch_bend_c, 1, 8192
2, 5101, Pitch_bend_c, 1, 8320
2, 5102, Pitch_bend_c, 1, 8320
2, 5104, Pitch_bend_c, 1, 8192
2, 5104, Pitch_bend_c, 1, 8192
2, 5105, Pitch_bend_c, 1, 8320
2, 5106, Pitch_bend_c, 1, 8320
2, 5108, Pitch_bend_c, 1, 8064
2, 5108, Pitch_bend_c, 1, 8320
2, 5109, Pitch_bend_c, 1, 8320
2, 5110, Pitch_bend_c, 1, 8320
2, 5111, Pitch_bend_c, 1, 8064
2, 5111, Pitch_bend_c, 1, 8320
2, 5112, Pitch_bend_c, 1, 8320
2, 5114, Pitch_bend_c, 1, 8320
2, 5115, Pitch_bend_c, 1, 8064
2, 5115, Pitch_bend_c, 1, 8320
2, 5116, Pitch_bend_c, 1, 8192
2, 5118, Pitch_bend_c, 1, 8320
2, 5119, Pitch_bend_c, 1, 7936
2, 5119, Pitch_bend_c, 1, 8448
2, 5120, Pitch_bend_c, 1, 8192
2, 5121, Pitch_bend_c, 1, 8320
2, 5122, Pitch_bend_c, 1, 7936
2, 5122, Pitch_bend_c, 1, 8448
2, 5124, Pitch_bend_c, 1, 8192
2, 5125, Pitch_bend_c, 1, 8320
2, 5126, Pitch_bend_c, 1, 7936
2, 5126, Pitch_bend_c, 1, 8448
2, 5128, Pitch_bend_c, 1, 8064
2, 5129, Pitch_bend_c, 1, 8320
2, 5130, Pitch_bend_c, 1, 7936
2, 5130, Pitch_bend_c, 1, 8448
2, 5131, Pitch_bend_c, 1, 8064
2, 5132, Pitch_bend_c, 1, 8320
2, 5134, Pitch_bend_c, 1, 7936
2, 5134, Pitch_bend_c, 1, 8448
2, 5135, Pitch_bend_c, 1, 8064
2, 5136, Pitch_bend_c, 1, 8192
2, 5138, Pitch_bend_c, 1, 7936
2, 5138, Pitch_bend_c, 1, 8448
2, 5139, Pitch_bend_c, 1, 8064
2, 5140, Pitch_bend_c, 1, 8192
2, 5141, Pitch_bend_c, 1, 7936
2, 5141, Pitch_bend_c, 1, 8448
2, 5142, Pitch_bend_c, 1, 7936
2, 5144, Pitch_bend_c, 1, 8192
2, 5145, Pitch_bend_c, 1, 8064
2, 5145, Pitch_bend_c, 1, 8320
2, 5146, Pitch_bend_c, 1, 7936
2, 5148, Pitch_bend_c, 1, 8064
2, 5149, Pitch_bend_c, 1, 8064
2, 5149, Pitch_bend_c, 1, 8320
2, 5150, Pitch_bend_c, 1, 7936
2, 5151, Pitch_bend_c, 1, 8064
2, 5152, Pitch_bend_c, 1, 8064
2, 5152, Pitch_bend_c, 1, 8320
2, 5154, Pitch_bend_c, 1, 7936
2, 5155, Pitch_bend_c, 1, 8064
2, 5156, Pitch_bend_c, 1, 8192
2, 5156, Pitch_bend_c, 1, 8192
2, 5158, Pitch_bend_c, 1, 7936
2, 5159, Pitch_bend_c, 1, 8064
2, 5160, Pitch_bend_c, 1, 8192
2, 5160, Pitch_bend_c, 1, 8192
2, 5161, Pitch_bend_c, 1, 8064
2, 5162, Pitch_bend_c, 1, 8064
2, 5164, Pitch_bend_c, 1, 8192
2, 5164, Pitch_bend_c, 1, 8192
2, 5165, Pitch_bend_c, 1, 8064
2, 5166, Pitch_bend_c, 1, 8064
2, 5168, Pitch_bend_c, 1, 8320
2, 5168, Pitch_bend_c, 1, 8064
2, 5169, Pitch_bend_c, 1, 8064
2, 5170, Pitch_bend_c, 1, 8064
2, 5171, Pitch_bend_c, 1, 8320
2, 5171, Pitch_bend_c, 1, 8064
2, 5172, Pitch_bend_c, 1, 8064
2, 5174, Pitch_bend_c, 1, 8064
2, 5175, Pitch_bend_c, 1, 8320
2, 5175, Pitch_bend_c, 1, 8064
2, 5176, Pitch_bend_c, 1, 8192
2, 5178, Pitch_bend_c, 1, 8064
2, 5179, Pitch_bend_c, 1, 8320
2, 5179, Pitch_bend_c, 1, 7936
2, 5180, Pitch_bend_c, 1, 8192
2, 5181, Pitch_bend_c, 1, 8064
2, 5182, Pitch_bend_c, 1, 8320
2, 5182, Pitch_bend_c, 1, 7936
2, 5184, Pitch_bend_c, 1, 8192
2, 5185, Pitch_bend_c, 1, 8064
2, 5186, Pitch_bend_c, 1, 8320
2, 5186, Pitch_bend_c, 1, 7936
2, 5188, Pitch_bend_c, 1, 8320
2, 5189, Pitch_bend_c, 1, 8064
2, 5190, Pitch_bend_c, 1, 8320
2, 5190, Pitch_bend_c, 1, 7936
2, 5191, Pitch_bend_c, 1, 8320
2, 5192, Pitch_bend_c, 1, 8064
2, 5194, Pitch_bend_c, 1, 8320
2, 5194, Pitch_bend_c, 1, 7936
2, 5195, Pitch_bend_c, 1, 8448
2, 5196, Pitch_bend_c, 1, 8192
2, 5198, Pitch_bend_c, 1, 8320
2, 5198, Pitch_bend_c, 1, 7936
2, 5199, Pitch_bend_c, 1, 8448
2, 5200, Pitch_bend_c, 1, 8192
2, 5201, Pitch_bend_c, 1, 8320
2, 5201, Pitch_bend_c, 1, 7936
2, 5202, Pitch_bend_c, 1, 8448
2, 5204, Pitch_bend_c, 1, 8192
2, 5205, Pitch_bend_c, 1, 8320
2, 5205, Pitch_bend_c, 1, 8064
2, 5206, Pitch_bend_c, 1, 8448
2, 5208, Pitch_bend_c, 1, 8320
2, 5209, Pitch_bend_c, 1, 8320
2, 5209, Pitch_bend_c, 1, 8064
2, 5210, Pitch_bend_c, 1, 8448
2, 5211, Pitch_bend_c, 1, 8320
2, 5212, Pitch_bend_c, 1, 8320
2, 5212, Pitch_bend_c, 1, 8064
2, 5214, Pitch_bend_c, 1, 8448
2, 5215, Pitch_bend_c, 1, 8320
2, 5216, Pitch_bend_c, 1, 8192
2, 5216, Pitch_bend_c, 1, 8192
2, 5218, Pitch_bend_c, 1, 8448
2, 5219, Pitch_bend_c, 1, 8448
2, 5220, Pitch_bend_c, 1, 8192
2, 5220, Pitch_bend_c, 1, 8192
2, 5221, Pitch_bend_c, 1, 8448
2, 5222, Pitch_bend_c, 1, 8448
2, 5224, Pitch_bend_c, 1, 8192
2, 5224, Pitch_bend_c, 1, 8192
2, 5225, Pitch_bend_c, 1, 8448
2, 5226, Pitch_bend_c, 1, 8448
2, 5228, Pitch_bend_c, 1, 8064
2, 5228, Pitch_bend_c, 1, 8320
2, 5229, Pitch_bend_c, 1, 8320
2, 5230, Pitch_bend_c, 1, 8448
2, 5231, Pitch_bend_c, 1, 8064
2, 5231, Pitch_bend_c, 1, 8320
2, 5232, Pitch_bend_c, 1, 8320
2, 5234, Pitch_bend_c, 1, 8448
2, 5235, Pitch_bend_c, 1, 8064
2, 5235, Pitch_bend_c, 1, 8320
2, 5236, Pitch_bend_c, 1, 8192
2, 5238, Pitch_bend_c, 1, 8448
2, 5239, Pitch_bend_c, 1, 8064
2, 5239, Pitch_bend_c, 1, 8448
2, 5240, Pitch_bend_c, 1, 8192
2, 5241, Pitch_bend_c, 1, 8448
2, 5242, Pitch_bend_c, 1, 8064
2, 5242, Pitch_bend_c, 1, 8448
2, 5244, Pitch_bend_c, 1, 8192
2, 5245, Pitch_bend_c, 1, 8320
2, 5246, Pitch_bend_c, 1, 8064
2, 5246, Pitch_bend_c, 1, 8448
2, 5248, Pitch_bend_c, 1, 8064
2, 5249, Pitch_bend_c, 1, 8320
2, 5250, Pitch_bend_c, 1, 8064
2, 5250, Pitch_bend_c, 1, 8448
2, 5251, Pitch_bend_c, 1, 8064
2, 5252, Pitch_bend_c, 1, 8320
2, 5254, Pitch_bend_c, 1, 8064
2, 5254, Pitch_bend_c, 1, 8448
2, 5255, Pitch_bend_c, 1, 7936
2, 5256, Pitch_bend_c, 1, 8192
2, 5258, Pitch_bend_c, 1, 8064
2, 5258, Pitch_bend_c, 1, 8448
2, 5259, Pitch_bend_c, 1, 7936
2, 5260, Pitch_bend_c, 1, 8192
2, 5261, Pitch_bend_c, 1, 8064
2, 5261, Pitch_bend_c, 1, 8448
2, 5262, Pitch_bend_c, 1, 7936
2, 5264, Pitch_bend_c, 1, 8192
2, 5265, Pitch_bend_c, 1, 8064
2, 5265, Pitch_bend_c, 1, 8320
2, 5266, Pitch_bend_c, 1, 7936
2, 5268, Pitch_bend_c, 1, 8064
2, 5269, Pitch_bend_c, 1, 8064
2, 5269, Pitch_bend_c, 1, 8320
2, 5270, Pitch_bend_c, 1, 7936
2, 5271, Pitch_bend_c, 1, 8064
2, 5272, Pitch_bend_c, 1, 8064
2, 5272, Pitch_bend_c, 1, 8320
2, 5274, Pitch_bend_c, 1, 7936
2, 5275, Pitch_bend_c, 1, 8064
2, 5276, Pitch_bend_c, 1, 8192
2, 5276, Pitch_bend_c, 1, 8192
2, 5278, Pitch_bend_c, 1, 7936
2, 5279, Pitch_bend_c, 1, 7936
2, 5280, Pitch_bend_c, 1, 8192
2, 5280, Pitch_bend_c, 1, 8192
2, 5281, Pitch_bend_c, 1, 7936
2, 5282, Pitch_bend_c, 1, 7936
2, 5284, Pitch_bend_c, 1, 8192
2, 5284, Pitch_bend_c, 1, 8192
2, 5285, Pitch_bend_c, 1, 7936
2, 5286, Pitch_bend_c, 1, 7936
2, 5288, Pitch_bend_c, 1, 8320
2, 5288, Pitch_bend_c, 1, 8064
2, 5289, Pitch_bend_c, 1, 8064
2, 5290, Pitch_bend_c, 1, 7936
2, 5291, Pitch_bend_c, 1, 8320
2, 5291, Pitch_bend_c, 1, 8064
2, 5292, Pitch_bend_c, 1, 8064
2, 5294, Pitch_bend_c, 1, 7936
2, 5295, Pitch_bend_c, 1, 8320
2, 5295, Pitch_bend_c, 1, 8064
2, 5296, Pitch_bend_c, 1, 8192
2, 5298, Pitch_bend_c, 1, 7936
2, 5299, Pitch_bend_c, 1, 8320
2, 5299, Pitch_bend_c, 1, 7936
2, 5300, Pitch_bend_c, 1, 8192
2, 5301, Pitch_bend_c, 1, 7936
2, 5302, Pitch_bend_c, 1, 8320
2, 5302, Pitch_bend_c, 1, 7936
2, 5304, Pitch_bend_c, 1, 8192
2, 5305, Pitch_bend_c, 1, 8064
2, 5306, Pitch_bend_c, 1, 8320
2, 5306, Pitch_bend_c, 1, 7936
2, 5308, Pitch_bend_c, 1, 8320
2, 5309, Pitch_bend_c, 1, 8064
2, 5310, Pitch_bend_c, 1, 8320
2, 5310, Pitch_bend_c, 1, 7936
2, 5311, Pitch_bend_c, 1, 8320
2, 5312, Pitch_bend_c, 1, 8064
2, 5314, Pitch_bend_c, 1, 8320
2, 5314, Pitch_bend_c, 1, 7936
2, 5315, Pitch_bend_c, 1, 8320
2, 5316, Pitch_bend_c, 1, 8192
2, 5318, Pitch_bend_c, 1, 8320
2, 5318, Pitch_bend_c, 1, 7936
2, 5319, Pitch_bend_c, 1, 8448
2, 5320, Pitch_bend_c, 1, 8192
2, 5321, Pitch_bend_c, 1, 8320
2, 5321, Pitch_bend_c, 1, 7936
2, 5322, Pitch_bend_c, 1, 8448
2, 5324, Pitch_bend_c, 1, 8192
2, 5325, Pitch_bend_c, 1, 8320
2, 5325, Pitch_bend_c, 1, 8064
2, 5326, Pitch_bend_c, 1, 8448
2, 5328, Pitch_bend_c, 1, 8320
2, 5329, Pitch_bend_c, 1, 8320
2, 5329, Pitch_bend_c, 1, 8064
2, 5330, Pitch_bend_c, 1, 8448
2, 5331, Pitch_bend_c, 1, 8320
2, 5332, Pitch_bend_c, 1, 8320
2, 5332, Pitch_bend_c, 1, 8064
2, 5334, Pitch_bend_c, 1, 8448
2, 5335, Pitch_bend_c, 1, 8320
2, 5336, Pitch_bend_c, 1, 8192
2, 5336, Pitch_bend_c, 1, 8192
2, 5338, Pitch_bend_c, 1, 8448
2, 5339, Pitch_bend_c, 1, 8448
2, 5340, Pitch_bend_c, 1, 8192
2, 5340, Pitch_bend_c, 1, 8192
2, 5341, Pitch_bend_c, 1, 8448
2, 5342, Pitch_bend_c, 1, 8448
2, 5344, Pitch_bend_c, 1, 8192
2, 5344, Pitch_bend_c, 1, 8192
2, 5345, Pitch_bend_c, 1, 8320
2, 5346, Pitch_bend_c, 1, 8448
2, 5348, Pitch_bend_c, 1, 8064
2, 5348, Pitch_bend_c, 1, 8320
2, 5349, Pitch_bend_c, 1, 8320
2, 5350, Pitch_bend_c, 1, 8448
2, 5351, Pitch_bend_c, 1, 8064
2, 5351, Pitch_bend_c, 1, 8320
2, 5352, Pitch_bend_c, 1, 8320
2, 5354, Pitch_bend_c, 1, 8448
2, 5355, Pitch_bend_c, 1, 8064
2, 5355, Pitch_bend_c, 1, 8320
2, 5356, Pitch_bend_c, 1, 8192
2, 5358, Pitch_bend_c, 1, 8448
2, 5359, Pitch_bend_c, 1, 8064
2, 5359, Pitch_bend_c, 1, 8448
2, 5360, Pitch_bend_c, 1, 8192
2, 5361, Pitch_bend_c, 1, 8448
2, 5362, Pitch_bend_c, 1, 8064
2, 5362, Pitch_bend_c, 1, 8448
2, 5364, Pitch_bend_c, 1, 8192
2, 5365, Pitch_bend_c, 1, 8320
2, 5366, Pitch_bend_c, 1, 8064
2, 5366, Pitch_bend_c, 1, 8448
2, 5368, Pitch_bend_c, 1, 8064
2, 5369, Pitch_bend_c, 1, 8320
2, 5370, Pitch_bend_c, 1, 8064
2, 5370, Pitch_bend_c, 1, 8448
2, 5371, Pitch_bend_c, 1, 8064
2, 5372, Pitch_bend_c, 1, 8320
2, 5374, Pitch_bend_c, 1, 8064
2, 5374, Pitch_bend_c, 1, 8448
2, 5375, Pitch_bend_c, 1, 8064
2, 5376, Pitch_bend_c, 1, 8192
2, 5378, Pitch_bend_c, 1, 8064
2, 5378, Pitch_bend_c, 1, 8448
2, 5379, Pitch_bend_c, 1, 7936
2, 5380, Pitch_bend_c, 1, 8192
2, 5381, Pitch_bend_c, 1, 8064
2, 5381, Pitch_bend_c, 1, 8448
2, 5382, Pitch_bend_c, 1, 7936
2, 5384, Pitch_bend_c, 1, 8192
2, 5385, Pitch_bend_c, 1, 8064
2, 5385, Pitch_bend_c, 1, 8320
2, 5386, Pitch_bend_c, 1, 7936
2, 5388, Pitch_bend_c, 1, 8064
2, 5389, Pitch_bend_c, 1, 8064
2, 5389, Pitch_bend_c, 1, 8320
2, 5390, Pitch_bend_c, 1, 7936
2, 5391, Pitch_bend_c, 1, 8064
2, 5392, Pitch_bend_c, 1, 8064
2, 5392, Pitch_bend_c, 1, 8320
2, 5394, Pitch_bend_c, 1, 7936
2, 5395, Pitch_bend_c, 1, 8064
2, 5396, Pitch_bend_c, 1, 8192
2, 5396, Pitch_bend_c, 1, 8192
2, 5398, Pitch_bend_c, 1, 7936
2, 5399, Pitch_bend_c, 1, 7936
2, 5400, Pitch_bend_c, 1, 8192
2, 5400, Pitch_bend_c, 1, 8192
2, 5401, Pitch_bend_c, 1, 7936
2, 5402, Pitch_bend_c, 1, 7936
2, 5404, Pitch_bend_c, 1, 8192
2, 5404, Pitch_bend_c, 1, 8192
2, 5405, Pitch_bend_c, 1, 8064
2, 5406, Pitch_bend_c, 1, 7936
2, 5408, Pitch_bend_c, 1, 8320
2, 5408, Pitch_bend_c, 1, 8064
2, 5409, Pitch_bend_c, 1, 8064
2, 5410, Pitch_bend_c, 1, 7936
2, 5411, Pitch_bend_c, 1, 8320
2, 5411, Pitch_bend_c, 1, 8064
2, 5412, Pitch_bend_c, 1, 8064
2, 5414, Pitch_bend_c, 1, 7936
2, 5415, Pitch_bend_c, 1, 8320
2, 5415, Pitch_bend_c, 1, 8064
2, 5416, Pitch_bend_c, 1, 8192
2, 5418, Pitch_bend_c, 1, 7936
2, 5419, Pitch_bend_c, 1, 8448
2, 5419, Pitch_bend_c, 1, 7936
2, 5420, Pitch_bend_c, 1, 8192
2, 5421, Pitch_bend_c, 1, 7936
2, 5422, Pitch_bend_c, 1, 8448
2, 5422, Pitch_bend_c, 1, 7936
2, 5424, Pitch_bend_c, 1, 8192
2, 5425, Pitch_bend_c, 1, 8064
2, 5426, Pitch_bend_c, 1, 8448
2, 5426, Pitch_bend_c, 1, 7936
2, 5428, Pitch_bend_c, 1, 8320
2, 5429, Pitch_bend_c, 1, 8064
2, 5430, Pitch_bend_c, 1, 8448
2, 5430, Pitch_bend_c, 1, 7936
2, 5431, Pitch_bend_c, 1, 8320
2, 5432, Pitch_bend_c, 1, 8064
2, 5434, Pitch_bend_c, 1, 8448
2, 5434, Pitch_bend_c, 1, 7936
2, 5435, Pitch_bend_c, 1, 8320
2, 5436, Pitch_bend_c, 1, 8192
2, 5438, Pitch_bend_c, 1, 8448
2, 5438, Pitch_bend_c, 1, 7936
2, 5439, Pitch_bend_c, 1, 8320
2, 5440, Pitch_bend_c, 1, 8192
2, 5441, Pitch_bend_c, 1, 8448
2, 5441, Pitch_bend_c, 1, 7936
2, 5442, Pitch_bend_c, 1, 8320
2, 5444, Pitch_bend_c, 1, 8192
2, 5445, Pitch_bend_c, 1, 8320
2, 5445, Pitch_bend_c, 1, 8064
2, 5446, Pitch_bend_c, 1, 8448
2, 5448, Pitch_bend_c, 1, 8320
2, 5449, Pitch_bend_c, 1, 8320
2, 5449, Pitch_bend_c, 1, 8064
2, 5450, Pitch_bend_c, 1, 8448
2, 5451, Pitch_bend_c, 1, 8320
2, 5452, Pitch_bend_c, 1, 8320
2, 5452, Pitch_bend_c, 1, 8064
2, 5454, Pitch_bend_c, 1, 8448
2, 5455, Pitch_bend_c, 1, 8320
2, 5456, Pitch_bend_c, 1, 8192
2, 5456, Pitch_bend_c, 1, 8192
2, 5458, Pitch_bend_c, 1, 8320
2, 5459, Pitch_bend_c, 1, 8320
2, 5460, Pitch_bend_c, 1, 8192
2, 5460, Pitch_bend_c, 1, 8192
2, 5461, Pitch_bend_c, 1, 8320
2, 5462, Pitch_bend_c, 1, 8448
2, 5464, Pitch_bend_c, 1, 8192
2, 5464, Pitch_bend_c, 1, 8320
2, 5465, Pitch_bend_c, 1, 8320
2, 5466, Pitch_bend_c, 1, 8448
2, 5468, Pitch_bend_c, 1, 8064
2, 5468, Pitch_bend_c, 1, 8320
2, 5469, Pitch_bend_c, 1, 8320
2, 5470, Pitch_bend_c, 1, 8448
2, 5471, Pitch_bend_c, 1, 8064
2, 5471, Pitch_bend_c, 1, 8320
2, 5472, Pitch_bend_c, 1, 8320
2, 5474, Pitch_bend_c, 1, 8448
2, 5475, Pitch_bend_c, 1, 8064
2, 5475, Pitch_bend_c, 1, 8448
2, 5476, Pitch_bend_c, 1, 8192
2, 5478, Pitch_bend_c, 1, 8448
2, 5479, Pitch_bend_c, 1, 7936
2, 5479, Pitch_bend_c, 1, 8448
2, 5480, Pitch_bend_c, 1, 8192
2, 5481, Pitch_bend_c, 1, 8320
2, 5482, Pitch_bend_c, 1, 7936
2, 5482, Pitch_bend_c, 1, 8448
2, 5484, Pitch_bend_c, 1, 8192
2, 5485, Pitch_bend_c, 1, 8320
2, 5486, Pitch_bend_c, 1, 7936
2, 5486, Pitch_bend_c, 1, 8448
2, 5488, Pitch_bend_c, 1, 8064
2, 5489, Pitch_bend_c, 1, 8320
2, 5490, Pitch_bend_c, 1, 7936
2, 5490, Pitch_bend_c, 1, 8448
2, 5491, Pitch_bend_c, 1, 8064
2, 5492, Pitch_bend_c, 1, 8320
2, 5494, Pitch_bend_c, 1, 7936
2, 5494, Pitch_bend_c, 1, 8448
2, 5495, Pitch_bend_c, 1, 8064
2, 5496, Pitch_bend_c, 1, 8192
2, 5498, Pitch_bend_c, 1, 7936
2, 5498, Pitch_bend_c, 1, 8448
2, 5499, Pitch_bend_c, 1, 8064
2, 5500, Pitch_bend_c, 1, 8192
2, 5501, Pitch_bend_c, 1, 7936
2, 5501, Pitch_bend_c, 1, 8448
2, 5502, Pitch_bend_c, 1, 8064
2, 5504, Pitch_bend_c, 1, 8192
2, 5505, Pitch_bend_c, 1, 8064
2, 5505, Pitch_bend_c, 1, 8448
2, 5506, Pitch_bend_c, 1, 7936
2, 5508, Pitch_bend_c, 1, 8064
2, 5509, Pitch_bend_c, 1, 8064
2, 5509, Pitch_bend_c, 1, 8320
2, 5510, Pitch_bend_c, 1, 7936
2, 5511, Pitch_bend_c, 1, 8064
2, 5512, Pitch_bend_c, 1, 8064
2, 5512, Pitch_bend_c, 1, 8320
2, 5514, Pitch_bend_c, 1, 7936
2, 5515, Pitch_bend_c, 1, 8064
2, 5516, Pitch_bend_c, 1, 8192
2, 5516, Pitch_bend_c, 1, 8320
2, 5518, Pitch_bend_c, 1, 8064
2, 5519, Pitch_bend_c, 1, 8064
2, 5520, Pitch_bend_c, 1, 8192
2, 5520, Pitch_bend_c, 1, 8192
2, 5521, Pitch_bend_c, 1, 8064
2, 5522, Pitch_bend_c, 1, 7936
2, 5524, Pitch_bend_c, 1, 8192
2, 5524, Pitch_bend_c, 1, 8064
2, 5525, Pitch_bend_c, 1, 8064
2, 5526, Pitch_bend_c, 1, 7936
2, 5528, Pitch_bend_c, 1, 8320
2, 5528, Pitch_bend_c, 1, 8064
2, 5529, Pitch_bend_c, 1, 8064
2, 5530, Pitch_bend_c, 1, 7936
2, 5531, Pitch_bend_c, 1, 8320
2, 5531, Pitch_bend_c, 1, 8064
2, 5532, Pitch_bend_c, 1, 8064
2, 5534, Pitch_bend_c, 1, 7936
2, 5535, Pitch_bend_c, 1, 8448
2, 5535, Pitch_bend_c, 1, 7936
2, 5536, Pitch_bend_c, 1, 8192
2, 5538, Pitch_bend_c, 1, 7936
2, 5539, Pitch_bend_c, 1, 8448
2, 5539, Pitch_bend_c, 1, 7936
2, 5540, Pitch_bend_c, 1, 8192
2, 5541, Pitch_bend_c, 1, 8064
2, 5542, Pitch_bend_c, 1, 8448
2, 5542, Pitch_bend_c, 1, 7936
2, 5544, Pitch_bend_c, 1, 8192
2, 5545, Pitch_bend_c, 1, 8064
2, 5546, Pitch_bend_c, 1, 8448
2, 5546, Pitch_bend_c, 1, 7936
2, 5548, Pitch_bend_c, 1, 8320
2, 5549, Pitch_bend_c, 1, 8064
2, 5550, Pitch_bend_c, 1, 8448
2, 5550, Pitch_bend_c, 1, 7936
2, 5551, Pitch_bend_c, 1, 8320
2, 5552, Pitch_bend_c, 1, 8064
2, 5554, Pitch_bend_c, 1, 8448
2, 5554, Pitch_bend_c, 1, 7936
2, 5555, Pitch_bend_c, 1, 8320
2, 5556, Pitch_bend_c, 1, 8192
2, 5558, Pitch_bend_c, 1, 8448
2, 5558, Pitch_bend_c, 1, 7936
2, 5559, Pitch_bend_c, 1, 8320
2, 5560, Pitch_bend_c, 1, 8192
2, 5561, Pitch_bend_c, 1, 8448
2, 5561, Pitch_bend_c, 1, 7936
2, 5562, Pitch_bend_c, 1, 8320
2, 5564, Pitch_bend_c, 1, 8192
2, 5565, Pitch_bend_c, 1, 8448
2, 5565, Pitch_bend_c, 1, 7936
2, 5566, Pitch_bend_c, 1, 8320
2, 5568, Pitch_bend_c, 1, 8320
2, 5569, Pitch_bend_c, 1, 8320
2, 5569, Pitch_bend_c, 1, 8064
2, 5570, Pitch_bend_c, 1, 8320
2, 5571, Pitch_bend_c, 1, 8320
2, 5572, Pitch_bend_c, 1, 8320
2, 5572, Pitch_bend_c, 1, 8064
2, 5574, Pitch_bend_c, 1, 8320
2, 5575, Pitch_bend_c, 1, 8320
2, 5576, Pitch_bend_c, 1, 8192
2, 5576, Pitch_bend_c, 1, 8064
2, 5578, Pitch_bend_c, 1, 8320
2, 5579, Pitch_bend_c, 1, 8448
2, 5580, Pitch_bend_c, 1, 8192
2, 5580, Pitch_bend_c, 1, 8192
2, 5581, Pitch_bend_c, 1, 8320
2, 5582, Pitch_bend_c, 1, 8448
2, 5584, Pitch_bend_c, 1, 8192
2, 5584, Pitch_bend_c, 1, 8320
2, 5585, Pitch_bend_c, 1, 8320
2, 5586, Pitch_bend_c, 1, 8448
2, 5588, Pitch_bend_c, 1, 8064
2, 5588, Pitch_bend_c, 1, 8320
2, 5589, Pitch_bend_c, 1, 8320
2, 5590, Pitch_bend_c, 1, 8448
2, 5591, Pitch_bend_c, 1, 8064
2, 5591, Pitch_bend_c, 1, 8320
2, 5592, Pitch_bend_c, 1, 8320
2, 5594, Pitch_bend_c, 1, 8448
2, 5595, Pitch_bend_c, 1, 7936
2, 5595, Pitch_bend_c, 1, 8448
2, 5596, Pitch_bend_c, 1, 8192
2, 5598, Pitch_bend_c, 1, 8448
2, 5599, Pitch_bend_c, 1, 7936
2, 5599, Pitch_bend_c, 1, 8448
2, 5600, Pitch_bend_c, 1, 8192
2, 5601, Pitch_bend_c, 1, 8448
2, 5602, Pitch_bend_c, 1, 7936
2, 5602, Pitch_bend_c, 1, 8448
2, 5604, Pitch_bend_c, 1, 8192
2, 5605, Pitch_bend_c, 1, 8320
2, 5606, Pitch_bend_c, 1, 7936
2, 5606, Pitch_bend_c, 1, 8448
2, 5608, Pitch_bend_c, 1, 8064
2, 5609, Pitch_bend_c, 1, 8320
2, 5610, Pitch_bend_c, 1, 7936
2, 5610, Pitch_bend_c, 1, 8448
2, 5611, Pitch_bend_c, 1, 8064
2, 5612, Pitch_bend_c, 1, 8320
2, 5614, Pitch_bend_c, 1, 7936
2, 5614, Pitch_bend_c, 1, 8448
2, 5615, Pitch_bend_c, 1, 8064
2, 5616, Pitch_bend_c, 1, 8192
2, 5618, Pitch_bend_c, 1, 7936
2, 5618, Pitch_bend_c, 1, 8448
2, 5619, Pitch_bend_c, 1, 8064
2, 5620, Pitch_bend_c, 1, 8192
2, 5621, Pitch_bend_c, 1, 7936
2, 5621, Pitch_bend_c, 1, 8448
2, 5622, Pitch_bend_c, 1, 8064
2, 5624, Pitch_bend_c, 1, 8192
2, 5625, Pitch_bend_c, 1, 7936
2, 5625, Pitch_bend_c, 1, 8448
2, 5626, Pitch_bend_c, 1, 8064
2, 5628, Pitch_bend_c, 1, 8064
2, 5629, Pitch_bend_c, 1, 8064
2, 5629, Pitch_bend_c, 1, 8320
2, 5630, Pitch_bend_c, 1, 8064
2, 5631, Pitch_bend_c, 1, 8064
2, 5632, Pitch_bend_c, 1, 8064
2, 5632, Pitch_bend_c, 1, 8320
2, 5634, Pitch_bend_c, 1, 8064
2, 5635, Pitch_bend_c, 1, 8064
2, 5636, Pitch_bend_c, 1, 8192
2, 5636, Pitch_bend_c, 1, 8320
2, 5638, Pitch_bend_c, 1, 8064
2, 5639, Pitch_bend_c, 1, 7936
2, 5640, Pitch_bend_c, 1, 8192
2, 5640, Pitch_bend_c, 1, 8192
2, 5641, Pitch_bend_c, 1, 8064
2, 5642, Pitch_bend_c, 1, 7936
2, 5644, Pitch_bend_c, 1, 8192
2, 5644, Pitch_bend_c, 1, 8064
2, 5645, Pitch_bend_c, 1, 8064
2, 5646, Pitch_bend_c, 1, 7936
2, 5648, Pitch_bend_c, 1, 8192
2, 5648, Pitch_bend_c, 1, 8064
2, 5649, Pitch_bend_c, 1, 8064
2, 5650, Pitch_bend_c, 1, 7936
2, 5651, Pitch_bend_c, 1, 8192
2, 5651, Pitch_bend_c, 1, 8064
2, 5652, Pitch_bend_c, 1, 8064
2, 5654, Pitch_bend_c, 1, 7936
2, 5655, Pitch_bend_c, 1, 8320
2, 5655, Pitch_bend_c, 1, 7936
2, 5656, Pitch_bend_c, 1, 8192
2, 5658, Pitch_bend_c, 1, 7936
2, 5659, Pitch_bend_c, 1, 8320
2, 5659, Pitch_bend_c, 1, 7936
2, 5660, Pitch_bend_c, 1, 8192
2, 5661, Pitch_bend_c, 1, 7936
2, 5662, Pitch_bend_c, 1, 8320
2, 5662, Pitch_bend_c, 1, 7936
2, 5664, Pitch_bend_c, 1, 8192
2, 5665, Pitch_bend_c, 1, 8064
2, 5666, Pitch_bend_c, 1, 8320
2, 5666, Pitch_bend_c, 1, 7936
2, 5668, Pitch_bend_c, 1, 8320
2, 5669, Pitch_bend_c, 1, 8064
2, 5670, Pitch_bend_c, 1, 8320
2, 5670, Pitch_bend_c, 1, 7936
2, 5671, Pitch_bend_c, 1, 8320
2, 5672, Pitch_bend_c, 1, 8064
2, 5674, Pitch_bend_c, 1, 8320
2, 5674, Pitch_bend_c, 1, 7936
2, 5675, Pitch_bend_c, 1, 8320
2, 5676, Pitch_bend_c, 1, 8192
2, 5678, Pitch_bend_c, 1, 8320
2, 5678, Pitch_bend_c, 1, 7936
2, 5679, Pitch_bend_c, 1, 8320
2, 5680, Pitch_bend_c, 1, 8192
2, 5681, Pitch_bend_c, 1, 8320
2, 5681, Pitch_bend_c, 1, 7936
2, 5682, Pitch_bend_c, 1, 8320
2, 5684, Pitch_bend_c, 1, 8192
2, 5685, Pitch_bend_c, 1, 8320
2, 5685, Pitch_bend_c, 1, 7936
2, 5686, Pitch_bend_c, 1, 8320
2, 5688, Pitch_bend_c, 1, 8192
2, 5689, Pitch_bend_c, 1, 8192
2, 5689, Pitch_bend_c, 1, 8064
2, 5690, Pitch_bend_c, 1, 8320
2, 5691, Pitch_bend_c, 1, 8192
2, 5692, Pitch_bend_c, 1, 8192
2, 5692, Pitch_bend_c, 1, 8064
2, 5694, Pitch_bend_c, 1, 8320
2, 5695, Pitch_bend_c, 1, 8192
2, 5696, Pitch_bend_c, 1, 8192
2, 5696, Pitch_bend_c, 1, 8064
2, 5698, Pitch_bend_c, 1, 8320
2, 5699, Pitch_bend_c, 1, 8192
2, 5700, Pitch_bend_c, 1, 8192
2, 5700, Pitch_bend_c, 1, 8192
2, 5701, Pitch_bend_c, 1, 8320
2, 5702, Pitch_bend_c, 1, 8320
2, 5704, Pitch_bend_c, 1, 8192
2, 5704, Pitch_bend_c, 1, 8192
2, 5705, Pitch_bend_c, 1, 8320
2, 5706, Pitch_bend_c, 1, 8320
2, 5708, Pitch_bend_c, 1, 8192
2, 5708, Pitch_bend_c, 1, 8192
2, 5709, Pitch_bend_c, 1, 8320
2, 5710, Pitch_bend_c, 1, 8320
2, 5711, Pitch_bend_c, 1, 8192
2, 5711, Pitch_bend_c, 1, 8320
2, 5712, Pitch_bend_c, 1, 8320
2, 5714, Pitch_bend_c, 1, 8320
2, 5715, Pitch_bend_c, 1, 8064
2, 5715, Pitch_bend_c, 1, 8320
2, 5716, Pitch_bend_c, 1, 8192
2, 5718, Pitch_bend_c, 1, 8320
2, 5719, Pitch_bend_c, 1, 8064
2, 5719, Pitch_bend_c, 1, 8320
2, 5720, Pitch_bend_c, 1, 8192
2, 5721, Pitch_bend_c, 1, 8192
2, 5722, Pitch_bend_c, 1, 8064
2, 5722, Pitch_bend_c, 1, 8320
2, 5724, Pitch_bend_c, 1, 8192
2, 5725, Pitch_bend_c, 1, 8192
2, 5726, Pitch_bend_c, 1, 8064
2, 5726, Pitch_bend_c, 1, 8320
2, 5728, Pitch_bend_c, 1, 8064
2, 5729, Pitch_bend_c, 1, 8192
2, 5730, Pitch_bend_c, 1, 8064
2, 5730, Pitch_bend_c, 1, 8320
2, 5731, Pitch_bend_c, 1, 8064
2, 5732, Pitch_bend_c, 1, 8192
2, 5734, Pitch_bend_c, 1, 8064
2, 5734, Pitch_bend_c, 1, 8320
2, 5735, Pitch_bend_c, 1, 8064
2, 5736, Pitch_bend_c, 1, 8192
2, 5738, Pitch_bend_c, 1, 8064
2, 5738, Pitch_bend_c, 1, 8320
2, 5739, Pitch_bend_c, 1, 8064
2, 5740, Pitch_bend_c, 1, 8192
2, 5741, Pitch_bend_c, 1, 8064
2, 5741, Pitch_bend_c, 1, 8320
2, 5742, Pitch_bend_c, 1, 8064
2, 5744, Pitch_bend_c, 1, 8192
2, 5745, Pitch_bend_c, 1, 8064
2, 5745, Pitch_bend_c, 1, 8320
2, 5746, Pitch_bend_c, 1, 8064
2, 5748, Pitch_bend_c, 1, 8192
2, 5749, Pitch_bend_c, 1, 8192
2, 5749, Pitch_bend_c, 1, 8320
2, 5750, Pitch_bend_c, 1, 8064
2, 5751, Pitch_bend_c, 1, 8192
2, 5752, Pitch_bend_c, 1, 8192
2, 5752, Pitch_bend_c, 1, 8192
2, 5754, Pitch_bend_c, 1, 8064
2, 5755, Pitch_bend_c, 1, 8192
2, 5756, Pitch_bend_c, 1, 8192
2, 5756, Pitch_bend_c, 1, 8192
2, 5758, Pitch_bend_c, 1, 8064
2, 5759, Pitch_bend_c, 1, 8192
2, 5760, Note_off_c, 1, 60, 80
2, 5760, Pitch_bend_c, 1, 8192
2, 5760, Note_off_c, 1, 64, 80
2, 5760, Note_off_c, 1, 67, 80
2, 5760, Note_off_c, 1, 72, 80
2, 5760, Pitch_bend_c, 1, 8192
2, 5761, Pitch_bend_c, 1, 8064
2, 5762, Pitch_bend_c, 1, 8064
2, 5764, Pitch_bend_c, 1, 8192
2, 5765, Pitch_bend_c, 1, 8064
2, 5766, Pitch_bend_c, 1, 8064
2, 5768, Pitch_bend_c, 1, 8192
2, 5769, Pitch_bend_c, 1, 8064
2, 5770, Pitch_bend_c, 1, 8064
2, 5771, Pitch_bend_c, 1, 8064
2, 5772, Pitch_bend_c, 1, 8064
2, 5774, Pitch_bend_c, 1, 8064
2, 5775, Pitch_bend_c, 1, 8064
2, 5776, Pitch_bend_c, 1, 8192
2, 5778, Pitch_bend_c, 1, 8064
2, 5779, Pitch_bend_c, 1, 8064
2, 5780, Pitch_bend_c, 1, 8192
2, 5781, Pitch_bend_c, 1, 8192
2, 5782, Pitch_bend_c, 1, 8064
2, 5785, Pitch_bend_c, 1, 8192
2, 5786, Pitch_bend_c, 1, 8064
2, 5789, Pitch_bend_c, 1, 8192
2, 5790, Pitch_bend_c, 1, 8064
2, 5792, Pitch_bend_c, 1, 8192
2, 5794, Pitch_bend_c, 1, 8064
2, 5796, Pitch_bend_c, 1, 8192
2, 5798, Pitch_bend_c, 1, 8064
2, 5800, Pitch_bend_c, 1, 8192
2, 5801, Pitch_bend_c, 1, 8064
2, 5805, Pitch_bend_c, 1, 8064
2, 5809, Pitch_bend_c, 1, 8064
2, 5812, Pitch_bend_c, 1, 8192
2, 5816, Pitch_bend_c, 1, 8192
2, 5820, Pitch_bend_c, 1, 8192
2, 99480, Program_c, 0, 30
2, 99480, Program_c, 1, 30
2, 99480, Control_c, 0, 7, 127
2, 99480, Control_c, 1, 7, 127
2, 99480, Note_on_c, 0, 62, 95
2, 99480, Note_on_c, 0, 55, 95
2, 99480, Note_on_c, 0, 50, 95
2, 99600, Note_off_c, 0, 62, 80
2, 99600, Note_off_c, 0, 55, 80
2, 99600, Note_off_c, 0, 50, 80
2, 99600, Note_on_c, 0, 57, 76
2, 99720, Note_off_c, 0, 57, 80
2, 99720, Note_on_c, 0, 55, 95
2, 99840, Note_off_c, 0, 55, 80
2, 99840, Note_on_c, 0, 67, 95
2, 99960, Note_off_c, 0, 67, 80
2, 99960, Note_on_c, 1, 57, 95
2, 99960, Pitch_bend_c, 1, 8192
2, 99976, Pitch_bend_c, 1, 8320
2, 99992, Pitch_bend_c, 1, 8448
2, 100008, Pitch_bend_c, 1, 8704
2, 100024, Pitch_bend_c, 1, 8832
2, 100104, Pitch_bend_c, 1, 8576
2, 100120, Pitch_bend_c, 1, 8320
2, 100136, Pitch_bend_c, 1, 8192
2, 100200, Note_off_c, 1, 57, 80
2, 100200, Pitch_bend_c, 1, 8192
2, 100200, Note_on_c, 0, 55, 95
2, 100320, Note_off_c, 0, 55, 80
2, 100320, Note_on_c, 0, 63, 95
2, 100440, Note_off_c, 0, 63, 80
2, 100440, Note_on_c, 0, 64, 76
2, 100560, Note_off_c, 0, 64, 80
2, 100560, Note_on_c, 0, 67, 95
2, 100680, Note_off_c, 0, 67, 80
2, 100680, Note_on_c, 0, 64, 95
2, 100800, Note_off_c, 0, 64, 80
2, 100800, Note_on_c, 1, 69, 95
2, 100800, Pitch_bend_c, 1, 8192
2, 100848, Pitch_bend_c, 1, 8320
2, 100880, Pitch_bend_c, 1, 8448
2, 100912, Pitch_bend_c, 1, 8576
2, 101040, Note_off_c, 1, 69, 80
2, 101040, Pitch_bend_c, 1, 8192
2, 101040, Note_on_c, 0, 67, 95
2, 102240, Note_off_c, 0, 67, 80
2, 102240, End_track
3, 0, Start_track
3, 0, Title_t, "Acoustic Guitar"
3, 0, Control_c, 3, 100, 0
3, 0, Control_c, 3, 101, 0
3, 0, Control_c, 3, 6, 12
3, 0, Pitch_bend_c, 3, 8192
3, 0, Control_c, 3, 101, 0
3, 0, Control_c, 3, 100, 1
3, 0, Control_c, 3, 6, 64
3, 0, Control_c, 3, 38, 0
3, 0, Control_c, 3, 101, 127
3, 0, Control_c, 3, 100, 127
3, 0, Control_c, 2, 100, 0
3, 0, Control_c, 2, 101, 0
3, 0, Control_c, 2, 6, 12
3, 0, Pitch_bend_c, 2, 8192
3, 0, Control_c, 2, 101, 0
3, 0, Control_c, 2, 100, 1
3, 0, Control_c, 2, 6, 64
3, 0, Control_c, 2, 38, 0
3, 0, Control_c, 2, 101, 127
3, 0, Control_c, 2, 100, 127
3, 0, Control_c, 3, 101, 0
3, 0, Control_c, 3, 100, 2
3, 0, Control_c, 3, 6, 64
3, 0, Control_c, 3, 101, 127
3, 0, Control_c, 3, 100, 127
3, 0, Control_c, 2, 101, 0
3, 0, Control_c, 2, 100, 2
3, 0, Control_c, 2, 6, 64
3, 0, Control_c, 2, 101, 127
3, 0, Control_c, 2, 100, 127
3, 0, Program_c, 3, 25
3, 0, Program_c, 2, 25
3, 0, Control_c, 3, 0, 0
3, 0, Control_c, 2, 0, 0
3, 0, Control_c, 3, 7, 72
3, 0, Control_c, 2, 7, 72
3, 0, Control_c, 3, 10, 64
3, 0, Control_c, 2, 10, 64
3, 0, Control_c, 3, 93, 0
3, 0, Control_c, 2, 93, 0
3, 0, Control_c, 3, 91, 0
3, 0, Control_c, 2, 91, 0
3, 0, Control_c, 3, 92, 0
3, 0, Control_c, 2, 92, 0
3, 0, Control_c, 3, 95, 0
3, 0, Control_c, 2, 95, 0
3, 5760, Note_on_c, 2, 67, 95
3, 5760, Note_on_c, 2, 62, 95
3, 5760, Note_on_c, 2, 59, 95
3, 5760, Note_on_c, 2, 55, 95
3, 5760, Note_on_c, 2, 50, 95
3, 5760, Note_on_c, 2, 43, 95
3, 6000, Note_off_c, 2, 67, 80
3, 6000, Note_off_c, 2, 62, 80
3, 6000, Note_off_c, 2, 59, 80
3, 6000, Note_off_c, 2, 55, 80
3, 6000, Note_off_c, 2, 50, 80
3, 6000, Note_off_c, 2, 43, 80
3, 6000, Note_on_c, 2, 59, 95
3, 6000, Note_on_c, 2, 55, 95
3, 6000, Note_on_c, 2, 50, 95
3, 6000, Note_on_c, 2, 43, 95
3, 6240, Note_off_c, 2, 59, 80
3, 6240, Note_off_c, 2, 55, 80
3, 6240, Note_off_c, 2, 50, 80
3, 6240, Note_off_c, 2, 43, 80
3, 6240, Note_on_c, 2, 67, 95
3, 6240, Note_on_c, 2, 62, 95
3, 6240, Note_on_c, 2, 59, 95
3, 6240, Note_on_c, 2, 55, 95
3, 6240, Note_on_c, 2, 50, 95
3, 6240, Note_on_c, 2, 43, 95
3, 6480, Note_off_c, 2, 67, 80
3, 6480, Note_off_c, 2, 62, 80
3, 6480, Note_off_c, 2, 59, 80
3, 6480, Note_off_c, 2, 55, 80
3, 6480, Note_off_c, 2, 50, 80
3, 6480, Note_off_c, 2, 43, 80
3, 6480, Note_on_c, 2, 59, 95
3, 6480, Note_on_c, 2, 54, 95
3, 6480, Note_on_c, 2, 50, 95
3, 6600, Note_off_c, 2, 59, 80
3, 6600, Note_off_c, 2, 54, 80
3, 6600, Note_off_c, 2, 50, 80
3, 6600, Note_on_c, 2, 59, 95
3, 6600, Note_on_c, 2, 54, 95
3, 6600, Note_on_c, 2, 50, 95
3, 6720, Note_off_c, 2, 59, 80
3, 6720, Note_off_c, 2, 54, 80
3, 6720, Note_off_c, 2, 50, 80
3, 6720, Note_on_c, 2, 67, 95
3, 6720, Note_on_c, 2, 62, 95
3, 6720, Note_on_c, 2, 59, 95
3, 6720, Note_on_c, 2, 54, 95
3, 6720, Note_on_c, 2, 50, 95
3, 6720, Note_on_c, 2, 43, 95
3, 6960, Note_off_c, 2, 67, 80
3, 6960, Note_off_c, 2, 62, 80
3, 6960, Note_off_c, 2, 59, 80
3, 6960, Note_off_c, 2, 54, 80
3, 6960, Note_off_c, 2, 50, 80
3, 6960, Note_off_c, 2, 43, 80
3, 6960, Note_on_c, 2, 62, 95
3, 6960, Note_on_c, 2, 59, 95
3, 6960, Note_on_c, 2, 54, 95
3, 6960, Note_on_c, 2, 50, 95
3, 6960, Note_on_c, 2, 43, 95
3, 7200, Note_off_c, 2, 62, 80
3, 7200, Note_off_c, 2, 59, 80
3, 7200, Note_off_c, 2, 54, 80
3, 7200, Note_off_c, 2, 50, 80
3, 7200, Note_off_c, 2, 43, 80
3, 7200, Note_on_c, 2, 67, 95
3, 7200, Note_on_c, 2, 62, 95
3, 7200, Note_on_c, 2, 59, 95
3, 7200, Note_on_c, 2, 54, 95
3, 7200, Note_on_c, 2, 50, 95
3, 7200, Note_on_c, 2, 43, 95
3, 7440, Note_off_c, 2, 67, 80
3, 7440, Note_off_c, 2, 62, 80
3, 7440, Note_off_c, 2, 59, 80
3, 7440, Note_off_c, 2, 54, 80
3, 7440, Note_off_c, 2, 50, 80
3, 7440, Note_off_c, 2, 43, 80
3, 7440, Note_on_c, 2, 59, 95
3, 7440, Note_on_c, 2, 54, 95
3, 7440, Note_on_c, 2, 50, 95
3, 7440, Note_on_c, 2, 43, 95
3, 7560, Note_off_c, 2, 59, 80
3, 7560, Note_off_c, 2, 54, 80
3, 7560, Note_off_c, 2, 50, 80
3, 7560, Note_off_c, 2, 43, 80
3, 7560, Note_on_c, 2, 55, 95
3, 7560, Note_on_c, 2, 50, 95
3, 7560, Note_on_c, 2, 45, 95
3, 7680, Note_off_c, 2, 55, 80
3, 7680, Note_off_c, 2, 50, 80
3, 7680, Note_off_c, 2, 45, 80
3, 7680, Note_on_c, 2, 64, 95
3, 7680, Note_on_c, 2, 59, 95
3, 7680, Note_on_c, 2, 55, 95
3, 7680, Note_on_c, 2, 52, 95
3, 7680, Note_on_c, 2, 47, 95
3, 7680, Note_on_c, 2, 40, 95
3, 7920, Note_off_c, 2, 64, 80
3, 7920, Note_off_c, 2, 59, 80
3, 7920, Note_off_c, 2, 55, 80
3, 7920, Note_off_c, 2, 52, 80
3, 7920, Note_off_c, 2, 47, 80
3, 7920, Note_off_c, 2, 40, 80
3, 7920, Note_on_c, 2, 59, 95
3, 7920, Note_on_c, 2, 55, 95
3, 7920, Note_on_c, 2, 52, 95
3, 7920, Note_on_c, 2, 47, 95
3, 7920, Note_on_c, 2, 40, 95
3, 8160, Note_off_c, 2, 59, 80
3, 8160, Note_off_c, 2, 55, 80
3, 8160, Note_off_c, 2, 52, 80
3, 8160, Note_off_c, 2, 47, 80
3, 8160, Note_off_c, 2, 40, 80
3, 8160, Note_on_c, 2, 64, 95
3, 8160, Note_on_c, 2, 59, 95
3, 8160, Note_on_c, 2, 55, 95
3, 8160, Note_on_c, 2, 52, 95
3, 8160, Note_on_c, 2, 47, 95
3, 8160, Note_on_c, 2, 40, 95
3, 8400, Note_off_c, 2, 64, 80
3, 8400, Note_off_c, 2, 59, 80
3, 8400, Note_off_c, 2, 55, 80
3, 8400, Note_off_c, 2, 52, 80
3, 8400, Note_off_c, 2, 47, 80
3, 8400, Note_off_c, 2, 40, 80
3, 8400, Note_on_c, 2, 59, 95
3, 8400, Note_on_c, 2, 55, 95
3, 8400, Note_on_c, 2, 52, 95
3, 8400, Note_on_c, 2, 47, 95
3, 8520, Note_off_c, 2, 59, 80
3, 8520, Note_off_c, 2, 55, 80
3, 8520, Note_off_c, 2, 52, 80
3, 8520, Note_off_c, 2, 47, 80
3, 8520, Note_on_c, 2, 59, 95
3, 8520, Note_on_c, 2, 55, 95
3, 8520, Note_on_c, 2, 52, 95
3, 8520, Note_on_c, 2, 47, 95
3, 8640, Note_off_c, 2, 59, 80
3, 8640, Note_off_c, 2, 55, 80
3, 8640, Note_off_c, 2, 52, 80
3, 8640, Note_off_c, 2, 47, 80
3, 8640, Note_on_c, 2, 64, 95
3, 8640, Note_on_c, 2, 59, 95
3, 8640, Note_on_c, 2, 55, 95
3, 8640, Note_on_c, 2, 50, 95
3, 8640, Note_on_c, 2, 47, 95
3, 8640, Note_on_c, 2, 40, 95
3, 8880, Note_off_c, 2, 64, 80
3, 8880, Note_off_c, 2, 59, 80
3, 8880, Note_off_c, 2, 55, 80
3, 8880, Note_off_c, 2, 50, 80
3, 8880, Note_off_c, 2, 47, 80
3, 8880, Note_off_c, 2, 40, 80
3, 8880, Note_on_c, 2, 59, 95
3, 8880, Note_on_c, 2, 55, 95
3, 8880, Note_on_c, 2, 50, 95
3, 8880, Note_on_c, 2, 47, 95
3, 8880, Note_on_c, 2, 40, 95
3, 9120, Note_off_c, 2, 59, 80
3, 9120, Note_off_c, 2, 55, 80
3, 9120, Note_off_c, 2, 50, 80
3, 9120, Note_off_c, 2, 47, 80
3, 9120, Note_off_c, 2, 40, 80
3, 9120, Note_on_c, 2, 64, 95
3, 9120, Note_on_c, 2, 59, 95
3, 9120, Note_on_c, 2, 55, 95
3, 9120, Note_on_c, 2, 50, 95
3, 9120, Note_on_c, 2, 47, 95
3, 9120, Note_on_c, 2, 40, 95
3, 9360, Note_off_c, 2, 64, 80
3, 9360, Note_off_c, 2, 59, 80
3, 9360, Note_off_c, 2, 55, 80
3, 9360, Note_off_c, 2, 50, 80
3, 9360, Note_off_c, 2, 47, 80
3, 9360, Note_off_c, 2, 40, 80
3, 9360, Note_on_c, 2, 59, 95
3, 9360, Note_on_c, 2, 55, 95
3, 9360, Note_on_c, 2, 50, 95
3, 9480, Note_off_c, 2, 59, 80
3, 9480, Note_off_c, 2, 55, 80
3, 9480, Note_off_c, 2, 50, 80
3, 9480, Note_on_c, 2, 59, 95
3, 9480, Note_on_c, 2, 55, 95
3, 9480, Note_on_c, 2, 50, 95
3, 9600, Note_off_c, 2, 59, 80
3, 9600, Note_off_c, 2, 55, 80
3, 9600, Note_off_c, 2, 50, 80
3, 9600, Note_on_c, 2, 67, 95
3, 9600, Note_on_c, 2, 63, 95
3, 9600, Note_on_c, 2, 58, 95
3, 9600, Note_on_c, 2, 51, 95
3, 9600, Note_on_c, 2, 46, 95
3, 9840, Note_off_c, 2, 67, 80
3, 9840, Note_off_c, 2, 63, 80
3, 9840, Note_off_c, 2, 58, 80
3, 9840, Note_off_c, 2, 51, 80
3, 9840, Note_off_c, 2, 46, 80
3, 9840, Note_on_c, 2, 63, 95
3, 9840, Note_on_c, 2, 58, 95
3, 9840, Note_on_c, 2, 51, 95
3, 9840, Note_on_c, 2, 46, 95
3, 10080, Note_off_c, 2, 63, 80
3, 10080, Note_off_c, 2, 58, 80
3, 10080, Note_off_c, 2, 51, 80
3, 10080, Note_off_c, 2, 46, 80
3, 10080, Note_on_c, 2, 67, 95
3, 10080, Note_on_c, 2, 63, 95
3, 10080, Note_on_c, 2, 58, 95
3, 10080, Note_on_c, 2, 51, 95
3, 10080, Note_on_c, 2, 46, 95
3, 10320, Note_off_c, 2, 67, 80
3, 10320, Note_off_c, 2, 63, 80
3, 10320, Note_off_c, 2, 58, 80
3, 10320, Note_off_c, 2, 51, 80
3, 10320, Note_off_c, 2, 46, 80
3, 10320, Note_on_c, 2, 66, 95
3, 10320, Note_on_c, 2, 62, 95
3, 10320, Note_on_c, 2, 57, 95
3, 10440, Note_off_c, 2, 66, 80
3, 10440, Note_off_c, 2, 62, 80
3, 10440, Note_off_c, 2, 57, 80
3, 10440, Note_on_c, 2, 66, 95
3, 10440, Note_on_c, 2, 62, 95
3, 10440, Note_on_c, 2, 57, 95
3, 10560, Note_off_c, 2, 66, 80
3, 10560, Note_off_c, 2, 62, 80
3, 10560, Note_off_c, 2, 57, 80
3, 10560, Note_on_c, 2, 66, 95
3, 10560, Note_on_c, 2, 62, 95
3, 10560, Note_on_c, 2, 57, 95
3, 10560, Note_on_c, 2, 50, 95
3, 10560, Note_on_c, 2, 45, 95
3, 10800, Note_off_c, 2, 66, 80
3, 10800, Note_off_c, 2, 62, 80
3, 10800, Note_off_c, 2, 57, 80
3, 10800, Note_off_c, 2, 50, 80
3, 10800, Note_off_c, 2, 45, 80
3, 10800, Note_on_c, 2, 62, 95
3, 10800, Note_on_c, 2, 57, 95
3, 10800, Note_on_c, 2, 50, 95
3, 10800, Note_on_c, 2, 45, 95
3, 11040, Note_off_c, 2, 62, 80
3, 11040, Note_off_c, 2, 57, 80
3, 11040, Note_off_c, 2, 50, 80
3, 11040, Note_off_c, 2, 45, 80
3, 11040, Note_on_c, 2, 66, 95
3, 11040, Note_on_c, 2, 62, 95
3, 11040, Note_on_c, 2, 57, 95
3, 11040, Note_on_c, 2, 50, 95
3, 11040, Note_on_c, 2, 45, 95
3, 11280, Note_off_c, 2, 66, 80
3, 11280, Note_off_c, 2, 62, 80
3, 11280, Note_off_c, 2, 57, 80
3, 11280, Note_off_c, 2, 50, 80
3, 11280, Note_off_c, 2, 45, 80
3, 11280, Note_on_c, 2, 62, 95
3, 11280, Note_on_c, 2, 59, 95
3, 11280, Note_on_c, 2, 54, 95
3, 11400, Note_off_c, 2, 62, 80
3, 11400, Note_off_c, 2, 59, 80
3, 11400, Note_off_c, 2, 54, 80
3, 11400, Note_on_c, 2, 62, 95
3, 11400, Note_on_c, 2, 59, 95
3, 11400, Note_on_c, 2, 54, 95
3, 11520, Note_off_c, 2, 62, 80
3, 11520, Note_off_c, 2, 59, 80
3, 11520, Note_off_c, 2, 54, 80
3, 11520, Note_on_c, 2, 66, 95
3, 11520, Note_on_c, 2, 62, 95
3, 11520, Note_on_c, 2, 59, 95
3, 11520, Note_on_c, 2, 54, 95
3, 11520, Note_on_c, 2, 47, 95
3, 11520, Note_on_c, 2, 42, 95
3, 11760, Note_off_c, 2, 66, 80
3, 11760, Note_off_c, 2, 62, 80
3, 11760, Note_off_c, 2, 59, 80
3, 11760, Note_off_c, 2, 54, 80
3, 11760, Note_off_c, 2, 47, 80
3, 11760, Note_off_c, 2, 42, 80
3, 11760, Note_on_c, 2, 59, 95
3, 11760, Note_on_c, 2, 54, 95
3, 11760, Note_on_c, 2, 47, 95
3, 11760, Note_on_c, 2, 42, 95
3, 12000, Note_off_c, 2, 59, 80
3, 12000, Note_off_c, 2, 54, 80
3, 12000, Note_off_c, 2, 47, 80
3, 12000, Note_off_c, 2, 42, 80
3, 12000, Note_on_c, 2, 66, 95
3, 12000, Note_on_c, 2, 62, 95
3, 12000, Note_on_c, 2, 59, 95
3, 12000, Note_on_c, 2, 54, 95
3, 12000, Note_on_c, 2, 47, 95
3, 12000, Note_on_c, 2, 42, 95
3, 12240, Note_off_c, 2, 66, 80
3, 12240, Note_off_c, 2, 62, 80
3, 12240, Note_off_c, 2, 59, 80
3, 12240, Note_off_c, 2, 54, 80
3, 12240, Note_off_c, 2, 47, 80
3, 12240, Note_off_c, 2, 42, 80
3, 12240, Note_on_c, 2, 64, 95
3, 12240, Note_on_c, 2, 60, 95
3, 12240, Note_on_c, 2, 55, 95
3, 12240, Note_on_c, 2, 52, 95
3, 12240, Note_on_c, 2, 48, 95
3, 12240, Note_on_c, 2, 43, 95
3, 12360, Note_off_c, 2, 64, 80
3, 12360, Note_off_c, 2, 60, 80
3, 12360, Note_off_c, 2, 55, 80
3, 12360, Note_off_c, 2, 52, 80
3, 12360, Note_off_c, 2, 48, 80
3, 12360, Note_off_c, 2, 43, 80
3, 12360, Note_on_c, 2, 64, 95
3, 12360, Note_on_c, 2, 60, 95
3, 12360, Note_on_c, 2, 55, 95
3, 12360, Note_on_c, 2, 52, 95
3, 12360, Note_on_c, 2, 48, 95
3, 12360, Note_on_c, 2, 43, 95
3, 12480, Note_off_c, 2, 64, 80
3, 12480, Note_off_c, 2, 60, 80
3, 12480, Note_off_c, 2, 55, 80
3, 12480, Note_off_c, 2, 52, 80
3, 12480, Note_off_c, 2, 48, 80
3, 12480, Note_off_c, 2, 43, 80
3, 12480, Note_on_c, 2, 64, 95
3, 12480, Note_on_c, 2, 60, 95
3, 12480, Note_on_c, 2, 55, 95
3, 12480, Note_on_c, 2, 52, 95
3, 12480, Note_on_c, 2, 48, 95
3, 12480, Note_on_c, 2, 43, 95
3, 12720, Note_off_c, 2, 64, 80
3, 12720, Note_off_c, 2, 60, 80
3, 12720, Note_off_c, 2, 55, 80
3, 12720, Note_off_c, 2, 52, 80
3, 12720, Note_off_c, 2, 48, 80
3, 12720, Note_off_c, 2, 43, 80
3, 12720, Note_on_c, 2, 64, 95
3, 12720, Note_on_c, 2, 60, 95
3, 12720, Note_on_c, 2, 55, 95
3, 12720, Note_on_c, 2, 52, 95
3, 12720, Note_on_c, 2, 48, 95
3, 12720, Note_on_c, 2, 43, 95
3, 12840, Note_off_c, 2, 64, 80
3, 12840, Note_off_c, 2, 60, 80
3, 12840, Note_off_c, 2, 55, 80
3, 12840, Note_off_c, 2, 52, 80
3, 12840, Note_off_c, 2, 48, 80
3, 12840, Note_off_c, 2, 43, 80
3, 12840, Note_on_c, 2, 64, 95
3, 12840, Note_on_c, 2, 60, 95
3, 12840, Note_on_c, 2, 55, 95
3, 12840, Note_on_c, 2, 52, 95
3, 12840, Note_on_c, 2, 48, 95
3, 12840, Note_on_c, 2, 43, 95
3, 12960, Note_off_c, 2, 64, 80
3, 12960, Note_off_c, 2, 60, 80
3, 12960, Note_off_c, 2, 55, 80
3, 12960, Note_off_c, 2, 52, 80
3, 12960, Note_off_c, 2, 48, 80
3, 12960, Note_off_c, 2, 43, 80
3, 12960, Note_on_c, 2, 64, 95
3, 12960, Note_on_c, 2, 60, 95
3, 12960, Note_on_c, 2, 55, 95
3, 12960, Note_on_c, 2, 52, 95
3, 12960, Note_on_c, 2, 48, 95
3, 12960, Note_on_c, 2, 43, 95
3, 13200, Note_off_c, 2, 64, 80
3, 13200, Note_off_c, 2, 60, 80
3, 13200, Note_off_c, 2, 55, 80
3, 13200, Note_off_c, 2, 52, 80
3, 13200, Note_off_c, 2, 48, 80
3, 13200, Note_off_c, 2, 43, 80
3, 13200, Note_on_c, 2, 64, 95
3, 13200, Note_on_c, 2, 60, 95
3, 13200, Note_on_c, 2, 55, 95
3, 13200, Note_on_c, 2, 52, 95
3, 13200, Note_on_c, 2, 48, 95
3, 13200, Note_on_c, 2, 43, 95
3, 13320, Note_off_c, 2, 64, 80
3, 13320, Note_off_c, 2, 60, 80
3, 13320, Note_off_c, 2, 55, 80
3, 13320, Note_off_c, 2, 52, 80
3, 13320, Note_off_c, 2, 48, 80
3, 13320, Note_off_c, 2, 43, 80
3, 13320, Note_on_c, 2, 64, 95
3, 13320, Note_on_c, 2, 60, 95
3, 13320, Note_on_c, 2, 55, 95
3, 13320, Note_on_c, 2, 52, 95
3, 13320, Note_on_c, 2, 48, 95
3, 13320, Note_on_c, 2, 43, 95
3, 13440, Note_off_c, 2, 64, 80
3, 13440, Note_off_c, 2, 60, 80
3, 13440, Note_off_c, 2, 55, 80
3, 13440, Note_off_c, 2, 52, 80
3, 13440, Note_off_c, 2, 48, 80
3, 13440, Note_off_c, 2, 43, 80
3, 13440, Note_on_c, 2, 67, 95
3, 13440, Note_on_c, 2, 62, 95
3, 13440, Note_on_c, 2, 59, 95
3, 13440, Note_on_c, 2, 55, 95
3, 13440, Note_on_c, 2, 50, 95
3, 13440, Note_on_c, 2, 43, 95
3, 13680, Note_off_c, 2, 67, 80
3, 13680, Note_off_c, 2, 62, 80
3, 13680, Note_off_c, 2, 59, 80
3, 13680, Note_off_c, 2, 55, 80
3, 13680, Note_off_c, 2, 50, 80
3, 13680, Note_off_c, 2, 43, 80
3, 13680, Note_on_c, 2, 59, 95
3, 13680, Note_on_c, 2, 55, 95
3, 13680, Note_on_c, 2, 50, 95
3, 13680, Note_on_c, 2, 43, 95
3, 13920, Note_off_c, 2, 59, 80
3, 13920, Note_off_c, 2, 55, 80
3, 13920, Note_off_c, 2, 50, 80
3, 13920, Note_off_c, 2, 43, 80
3, 13920, Note_on_c, 2, 67, 95
3, 13920, Note_on_c, 2, 62, 95
3, 13920, Note_on_c, 2, 59, 95
3, 13920, Note_on_c, 2, 55, 95
3, 13920, Note_on_c, 2, 50, 95
3, 13920, Note_on_c, 2, 43, 95
3, 14160, Note_off_c, 2, 67, 80
3, 14160, Note_off_c, 2, 62, 80
3, 14160, Note_off_c, 2, 59, 80
3, 14160, Note_off_c, 2, 55, 80
3, 14160, Note_off_c, 2, 50, 80
3, 14160, Note_off_c, 2, 43, 80
3, 14160, Note_on_c, 2, 59, 95
3, 14160, Note_on_c, 2, 54, 95
3, 14160, Note_on_c, 2, 50, 95
3, 14280, Note_off_c, 2, 59, 80
3, 14280, Note_off_c, 2, 54, 80
3, 14280, Note_off_c, 2, 50, 80
3, 14280, Note_on_c, 2, 59, 95
3, 14280, Note_on_c, 2, 54, 95
3, 14280, Note_on_c, 2, 50, 95
3, 14400, Note_off_c, 2, 59, 80
3, 14400, Note_off_c, 2, 54, 80
3, 14400, Note_off_c, 2, 50, 80
3, 14400, Note_on_c, 2, 67, 95
3, 14400, Note_on_c, 2, 62, 95
3, 14400, Note_on_c, 2, 59, 95
3, 14400, Note_on_c, 2, 54, 95
3, 14400, Note_on_c, 2, 50, 95
3, 14400, Note_on_c, 2, 43, 95
3, 14640, Note_off_c, 2, 67, 80
3, 14640, Note_off_c, 2, 62, 80
3, 14640, Note_off_c, 2, 59, 80
3, 14640, Note_off_c, 2, 54, 80
3, 14640, Note_off_c, 2, 50, 80
3, 14640, Note_off_c, 2, 43, 80
3, 14640, Note_on_c, 2, 62, 95
3, 14640, Note_on_c, 2, 59, 95
3, 14640, Note_on_c, 2, 54, 95
3, 14640, Note_on_c, 2, 50, 95
3, 14640, Note_on_c, 2, 43, 95
3, 14880, Note_off_c, 2, 62, 80
3, 14880, Note_off_c, 2, 59, 80
3, 14880, Note_off_c, 2, 54, 80
3, 14880, Note_off_c, 2, 50, 80
3, 14880, Note_off_c, 2, 43, 80
3, 14880, Note_on_c, 2, 67, 95
3, 14880, Note_on_c, 2, 62, 95
3, 14880, Note_on_c, 2, 59, 95
3, 14880, Note_on_c, 2, 54, 95
3, 14880, Note_on_c, 2, 50, 95
3, 14880, Note_on_c, 2, 43, 95
3, 15120, Note_off_c, 2, 67, 80
3, 15120, Note_off_c, 2, 62, 80
3, 15120, Note_off_c, 2, 59, 80
3, 15120, Note_off_c, 2, 54, 80
3, 15120, Note_off_c, 2, 50, 80
3, 15120, Note_off_c, 2, 43, 80
3, 15120, Note_on_c, 2, 59, 95
3, 15120, Note_on_c, 2, 54, 95
3, 15120, Note_on_c, 2, 50, 95
3, 15120, Note_on_c, 2, 43, 95
3, 15240, Note_off_c, 2, 59, 80
3, 15240, Note_off_c, 2, 54, 80
3, 15240, Note_off_c, 2, 50, 80
3, 15240, Note_off_c, 2, 43, 80
3, 15240, Note_on_c, 2, 55, 95
3, 15240, Note_on_c, 2, 50, 95
3, 15240, Note_on_c, 2, 45, 95
3, 15360, Note_off_c, 2, 55, 80
3, 15360, Note_off_c, 2, 50, 80
3, 15360, Note_off_c, 2, 45, 80
3, 15360, Note_on_c, 2, 64, 95
3, 15360, Note_on_c, 2, 59, 95
3, 15360, Note_on_c, 2, 55, 95
3, 15360, Note_on_c, 2, 52, 95
3, 15360, Note_on_c, 2, 47, 95
3, 15360, Note_on_c, 2, 40, 95
3, 15600, Note_off_c, 2, 64, 80
3, 15600, Note_off_c, 2, 59, 80
3, 15600, Note_off_c, 2, 55, 80
3, 15600, Note_off_c, 2, 52, 80
3, 15600, Note_off_c, 2, 47, 80
3, 15600, Note_off_c, 2, 40, 80
3, 15600, Note_on_c, 2, 59, 95
3, 15600, Note_on_c, 2, 55, 95
3, 15600, Note_on_c, 2, 52, 95
3, 15600, Note_on_c, 2, 47, 95
3, 15600, Note_on_c, 2, 40, 95
3, 15840, Note_off_c, 2, 59, 80
3, 15840, Note_off_c, 2, 55, 80
3, 15840, Note_off_c, 2, 52, 80
3, 15840, Note_off_c, 2, 47, 80
3, 15840, Note_off_c, 2, 40, 80
3, 15840, Note_on_c, 2, 64, 95
3, 15840, Note_on_c, 2, 59, 95
3, 15840, Note_on_c, 2, 55, 95
3, 15840, Note_on_c, 2, 52, 95
3, 15840, Note_on_c, 2, 47, 95
3, 15840, Note_on_c, 2, 40, 95
3, 16080, Note_off_c, 2, 64, 80
3, 16080, Note_off_c, 2, 59, 80
3, 16080, Note_off_c, 2, 55, 80
3, 16080, Note_off_c, 2, 52, 80
3, 16080, Note_off_c, 2, 47, 80
3, 16080, Note_off_c, 2, 40, 80
3, 16080, Note_on_c, 2, 59, 95
3, 16080, Note_on_c, 2, 55, 95
3, 16080, Note_on_c, 2, 52, 95
3, 16080, Note_on_c, 2, 47, 95
3, 16200, Note_off_c, 2, 59, 80
3, 16200, Note_off_c, 2, 55, 80
3, 16200, Note_off_c, 2, 52, 80
3, 16200, Note_off_c, 2, 47, 80
3, 16200, Note_on_c, 2, 59, 95
3, 16200, Note_on_c, 2, 55, 95
3, 16200, Note_on_c, 2, 52, 95
3, 16200, Note_on_c, 2, 47, 95
3, 16320, Note_off_c, 2, 59, 80
3, 16320, Note_off_c, 2, 55, 80
3, 16320, Note_off_c, 2, 52, 80
3, 16320, Note_off_c, 2, 47, 80
3, 16320, Note_on_c, 2, 64, 95
3, 16320, Note_on_c, 2, 59, 95
3, 16320, Note_on_c, 2, 55, 95
3, 16320, Note_on_c, 2, 50, 95
3, 16320, Note_on_c, 2, 47, 95
3, 16320, Note_on_c, 2, 40, 95
3, 16560, Note_off_c, 2, 64, 80
3, 16560, Note_off_c, 2, 59, 80
3, 16560, Note_off_c, 2, 55, 80
3, 16560, Note_off_c, 2, 50, 80
3, 16560, Note_off_c, 2, 47, 80
3, 16560, Note_off_c, 2, 40, 80
3, 16560, Note_on_c, 2, 59, 95
3, 16560, Note_on_c, 2, 55, 95
3, 16560, Note_on_c, 2, 50, 95
3, 16560, Note_on_c, 2, 47, 95
3, 16560, Note_on_c, 2, 40, 95
3, 16800, Note_off_c, 2, 59, 80
3, 16800, Note_off_c, 2, 55, 80
3, 16800, Note_off_c, 2, 50, 80
3, 16800, Note_off_c, 2, 47, 80
3, 16800, Note_off_c, 2, 40, 80
3, 16800, Note_on_c, 2, 64, 95
3, 16800, Note_on_c, 2, 59, 95
3, 16800, Note_on_c, 2, 55, 95
3, 16800, Note_on_c, 2, 50, 95
3, 16800, Note_on_c, 2, 47, 95
3, 16800, Note_on_c, 2, 40, 95
3, 17040, Note_off_c, 2, 64, 80
3, 17040, Note_off_c, 2, 59, 80
3, 17040, Note_off_c, 2, 55, 80
3, 17040, Note_off_c, 2, 50, 80
3, 17040, Note_off_c, 2, 47, 80
3, 17040, Note_off_c, 2, 40, 80
3, 17040, Note_on_c, 2, 59, 95
3, 17040, Note_on_c, 2, 55, 95
3, 17040, Note_on_c, 2, 50, 95
3, 17160, Note_off_c, 2, 59, 80
3, 17160, Note_off_c, 2, 55, 80
3, 17160, Note_off_c, 2, 50, 80
3, 17160, Note_on_c, 2, 59, 95
3, 17160, Note_on_c, 2, 55, 95
3, 17160, Note_on_c, 2, 50, 95
3, 17280, Note_off_c, 2, 59, 80
3, 17280, Note_off_c, 2, 55, 80
3, 17280, Note_off_c, 2, 50, 80
3, 17280, Note_on_c, 2, 67, 95
3, 17280, Note_on_c, 2, 63, 95
3, 17280, Note_on_c, 2, 58, 95
3, 17280, Note_on_c, 2, 51, 95
3, 17280, Note_on_c, 2, 46, 95
3, 17520, Note_off_c, 2, 67, 80
3, 17520, Note_off_c, 2, 63, 80
3, 17520, Note_off_c, 2, 58, 80
3, 17520, Note_off_c, 2, 51, 80
3, 17520, Note_off_c, 2, 46, 80
3, 17520, Note_on_c, 2, 63, 95
3, 17520, Note_on_c, 2, 58, 95
3, 17520, Note_on_c, 2, 51, 95
3, 17520, Note_on_c, 2, 46, 95
3, 17760, Note_off_c, 2, 63, 80
3, 17760, Note_off_c, 2, 58, 80
3, 17760, Note_off_c, 2, 51, 80
3, 17760, Note_off_c, 2, 46, 80
3, 17760, Note_on_c, 2, 67, 95
3, 17760, Note_on_c, 2, 63, 95
3, 17760, Note_on_c, 2, 58, 95
3, 17760, Note_on_c, 2, 51, 95
3, 17760, Note_on_c, 2, 46, 95
3, 18000, Note_off_c, 2, 67, 80
3, 18000, Note_off_c, 2, 63, 80
3, 18000, Note_off_c, 2, 58, 80
3, 18000, Note_off_c, 2, 51, 80
3, 18000, Note_off_c, 2, 46, 80
3, 18000, Note_on_c, 2, 66, 95
3, 18000, Note_on_c, 2, 62, 95
3, 18000, Note_on_c, 2, 57, 95
3, 18120, Note_off_c, 2, 66, 80
3, 18120, Note_off_c, 2, 62, 80
3, 18120, Note_off_c, 2, 57, 80
3, 18120, Note_on_c, 2, 66, 95
3, 18120, Note_on_c, 2, 62, 95
3, 18120, Note_on_c, 2, 57, 95
3, 18240, Note_off_c, 2, 66, 80
3, 18240, Note_off_c, 2, 62, 80
3, 18240, Note_off_c, 2, 57, 80
3, 18240, Note_on_c, 2, 66, 95
3, 18240, Note_on_c, 2, 62, 95
3, 18240, Note_on_c, 2, 57, 95
3, 18240, Note_on_c, 2, 50, 95
3, 18240, Note_on_c, 2, 45, 95
3, 18480, Note_off_c, 2, 66, 80
3, 18480, Note_off_c, 2, 62, 80
3, 18480, Note_off_c, 2, 57, 80
3, 18480, Note_off_c, 2, 50, 80
3, 18480, Note_off_c, 2, 45, 80
3, 18480, Note_on_c, 2, 62, 95
3, 18480, Note_on_c, 2, 57, 95
3, 18480, Note_on_c, 2, 50, 95
3, 18480, Note_on_c, 2, 45, 95
3, 18720, Note_off_c, 2, 62, 80
3, 18720, Note_off_c, 2, 57, 80
3, 18720, Note_off_c, 2, 50, 80
3, 18720, Note_off_c, 2, 45, 80
3, 18720, Note_on_c, 2, 66, 95
3, 18720, Note_on_c, 2, 62, 95
3, 18720, Note_on_c, 2, 57, 95
3, 18720, Note_on_c, 2, 50, 95
3, 18720, Note_on_c, 2, 45, 95
3, 18960, Note_off_c, 2, 66, 80
3, 18960, Note_off_c, 2, 62, 80
3, 18960, Note_off_c, 2, 57, 80
3, 18960, Note_off_c, 2, 50, 80
3, 18960, Note_off_c, 2, 45, 80
3, 18960, Note_on_c, 2, 62, 95
3, 18960, Note_on_c, 2, 59, 95
3, 18960, Note_on_c, 2, 54, 95
3, 19080, Note_off_c, 2, 62, 80
3, 19080, Note_off_c, 2, 59, 80
3, 19080, Note_off_c, 2, 54, 80
3, 19080, Note_on_c, 2, 62, 95
3, 19080, Note_on_c, 2, 59, 95
3, 19080, Note_on_c, 2, 54, 95
3, 19200, Note_off_c, 2, 62, 80
3, 19200, Note_off_c, 2, 59, 80
3, 19200, Note_off_c, 2, 54, 80
3, 19200, Note_on_c, 2, 66, 95
3, 19200, Note_on_c, 2, 62, 95
3, 19200, Note_on_c, 2, 59, 95
3, 19200, Note_on_c, 2, 54, 95
3, 19200, Note_on_c, 2, 47, 95
3, 19200, Note_on_c, 2, 42, 95
3, 19440, Note_off_c, 2, 66, 80
3, 19440, Note_off_c, 2, 62, 80
3, 19440, Note_off_c, 2, 59, 80
3, 19440, Note_off_c, 2, 54, 80
3, 19440, Note_off_c, 2, 47, 80
3, 19440, Note_off_c, 2, 42, 80
3, 19440, Note_on_c, 2, 59, 95
3, 19440, Note_on_c, 2, 54, 95
3, 19440, Note_on_c, 2, 47, 95
3, 19440, Note_on_c, 2, 42, 95
3, 19680, Note_off_c, 2, 59, 80
3, 19680, Note_off_c, 2, 54, 80
3, 19680, Note_off_c, 2, 47, 80
3, 19680, Note_off_c, 2, 42, 80
3, 19680, Note_on_c, 2, 66, 95
3, 19680, Note_on_c, 2, 62, 95
3, 19680, Note_on_c, 2, 59, 95
3, 19680, Note_on_c, 2, 54, 95
3, 19680, Note_on_c, 2, 47, 95
3, 19680, Note_on_c, 2, 42, 95
3, 19920, Note_off_c, 2, 66, 80
3, 19920, Note_off_c, 2, 62, 80
3, 19920, Note_off_c, 2, 59, 80
3, 19920, Note_off_c, 2, 54, 80
3, 19920, Note_off_c, 2, 47, 80
3, 19920, Note_off_c, 2, 42, 80
3, 19920, Note_on_c, 2, 64, 95
3, 19920, Note_on_c, 2, 60, 95
3, 19920, Note_on_c, 2, 55, 95
3, 19920, Note_on_c, 2, 52, 95
3, 19920, Note_on_c, 2, 48, 95
3, 19920, Note_on_c, 2, 43, 95
3, 20040, Note_off_c, 2, 64, 80
3, 20040, Note_off_c, 2, 60, 80
3, 20040, Note_off_c, 2, 55, 80
3, 20040, Note_off_c, 2, 52, 80
3, 20040, Note_off_c, 2, 48, 80
3, 20040, Note_off_c, 2, 43, 80
3, 20040, Note_on_c, 2, 64, 95
3, 20040, Note_on_c, 2, 60, 95
3, 20040, Note_on_c, 2, 55, 95
3, 20040, Note_on_c, 2, 52, 95
3, 20040, Note_on_c, 2, 48, 95
3, 20040, Note_on_c, 2, 43, 95
3, 20160, Note_off_c, 2, 64, 80
3, 20160, Note_off_c, 2, 60, 80
3, 20160, Note_off_c, 2, 55, 80
3, 20160, Note_off_c, 2, 52, 80
3, 20160, Note_off_c, 2, 48, 80
3, 20160, Note_off_c, 2, 43, 80
3, 20160, Note_on_c, 2, 64, 95
3, 20160, Note_on_c, 2, 60, 95
3, 20160, Note_on_c, 2, 55, 95
3, 20160, Note_on_c, 2, 52, 95
3, 20160, Note_on_c, 2, 48, 95
3, 20160, Note_on_c, 2, 43, 95
3, 20400, Note_off_c, 2, 64, 80
3, 20400, Note_off_c, 2, 60, 80
3, 20400, Note_off_c, 2, 55, 80
3, 20400, Note_off_c, 2, 52, 80
3, 20400, Note_off_c, 2, 48, 80
3, 20400, Note_off_c, 2, 43, 80
3, 20400, Note_on_c, 2, 64, 95
3, 20400, Note_on_c, 2, 60, 95
3, 20400, Note_on_c, 2, 55, 95
3, 20400, Note_on_c, 2, 52, 95
3, 20400, Note_on_c, 2, 48, 95
3, 20400, Note_on_c, 2, 43, 95
3, 20520, Note_off_c, 2, 64, 80
3, 20520, Note_off_c, 2, 60, 80
3, 20520, Note_off_c, 2, 55, 80
3, 20520, Note_off_c, 2, 52, 80
3, 20520, Note_off_c, 2, 48, 80
3, 20520, Note_off_c, 2, 43, 80
3, 20520, Note_on_c, 2, 64, 95
3, 20520, Note_on_c, 2, 60, 95
3, 20520, Note_on_c, 2, 55, 95
3, 20520, Note_on_c, 2, 52, 95
3, 20520, Note_on_c, 2, 48, 95
3, 20520, Note_on_c, 2, 43, 95
3, 20640, Note_off_c, 2, 64, 80
3, 20640, Note_off_c, 2, 60, 80
3, 20640, Note_off_c, 2, 55, 80
3, 20640, Note_off_c, 2, 52, 80
3, 20640, Note_off_c, 2, 48, 80
3, 20640, Note_off_c, 2, 43, 80
3, 20640, Note_on_c, 2, 64, 95
3, 20640, Note_on_c, 2, 60, 95
3, 20640, Note_on_c, 2, 55, 95
3, 20640, Note_on_c, 2, 52, 95
3, 20640, Note_on_c, 2, 48, 95
3, 20640, Note_on_c, 2, 43, 95
3, 20880, Note_off_c, 2, 64, 80
3, 20880, Note_off_c, 2, 60, 80
3, 20880, Note_off_c, 2, 55, 80
3, 20880, Note_off_c, 2, 52, 80
3, 20880, Note_off_c, 2, 48, 80
3, 20880, Note_off_c, 2, 43, 80
3, 20880, Note_on_c, 2, 64, 95
3, 20880, Note_on_c, 2, 60, 95
3, 20880, Note_on_c, 2, 55, 95
3, 20880, Note_on_c, 2, 52, 95
3, 20880, Note_on_c, 2, 48, 95
3, 20880, Note_on_c, 2, 43, 95
3, 21000, Note_off_c, 2, 64, 80
3, 21000, Note_off_c, 2, 60, 80
3, 21000, Note_off_c, 2, 55, 80
3, 21000, Note_off_c, 2, 52, 80
3, 21000, Note_off_c, 2, 48, 80
3, 21000, Note_off_c, 2, 43, 80
3, 21000, Note_on_c, 2, 64, 95
3, 21000, Note_on_c, 2, 60, 95
3, 21000, Note_on_c, 2, 55, 95
3, 21000, Note_on_c, 2, 52, 95
3, 21000, Note_on_c, 2, 48, 95
3, 21000, Note_on_c, 2, 43, 95
3, 21120, Note_off_c, 2, 64, 80
3, 21120, Note_off_c, 2, 60, 80
3, 21120, Note_off_c, 2, 55, 80
3, 21120, Note_off_c, 2, 52, 80
3, 21120, Note_off_c, 2, 48, 80
3, 21120, Note_off_c, 2, 43, 80
3, 21120, Note_on_c, 2, 64, 95
3, 21120, Note_on_c, 2, 59, 95
3, 21120, Note_on_c, 2, 55, 95
3, 21120, Note_on_c, 2, 52, 95
3, 21120, Note_on_c, 2, 47, 95
3, 21120, Note_on_c, 2, 40, 95
3, 21600, Note_off_c, 2, 64, 80
3, 21600, Note_off_c, 2, 59, 80
3, 21600, Note_off_c, 2, 55, 80
3, 21600, Note_off_c, 2, 52, 80
3, 21600, Note_off_c, 2, 47, 80
3, 21600, Note_off_c, 2, 40, 80
3, 21600, Note_on_c, 2, 64, 95
3, 21600, Note_on_c, 2, 59, 95
3, 21600, Note_on_c, 2, 55, 95
3, 21600, Note_on_c, 2, 52, 95
3, 21600, Note_on_c, 2, 47, 95
3, 21600, Note_on_c, 2, 40, 95
3, 22080, Note_off_c, 2, 64, 80
3, 22080, Note_off_c, 2, 59, 80
3, 22080, Note_off_c, 2, 55, 80
3, 22080, Note_off_c, 2, 52, 80
3, 22080, Note_off_c, 2, 47, 80
3, 22080, Note_off_c, 2, 40, 80
3, 22080, Note_on_c, 2, 66, 95
3, 22080, Note_on_c, 2, 62, 95
3, 22080, Note_on_c, 2, 57, 95
3, 22080, Note_on_c, 2, 50, 95
3, 22560, Note_off_c, 2, 66, 80
3, 22560, Note_off_c, 2, 62, 80
3, 22560, Note_off_c, 2, 57, 80
3, 22560, Note_off_c, 2, 50, 80
3, 22560, Note_on_c, 2, 66, 95
3, 22560, Note_on_c, 2, 62, 95
3, 22560, Note_on_c, 2, 57, 95
3, 22560, Note_on_c, 2, 50, 95
3, 22680, Note_off_c, 2, 66, 80
3, 22680, Note_off_c, 2, 62, 80
3, 22680, Note_off_c, 2, 57, 80
3, 22680, Note_off_c, 2, 50, 80
3, 22680, Note_on_c, 2, 66, 95
3, 22680, Note_on_c, 2, 62, 95
3, 22680, Note_on_c, 2, 57, 95
3, 22680, Note_on_c, 2, 50, 95
3, 22800, Note_off_c, 2, 66, 80
3, 22800, Note_off_c, 2, 62, 80
3, 22800, Note_off_c, 2, 57, 80
3, 22800, Note_off_c, 2, 50, 80
3, 22800, Note_on_c, 2, 66, 95
3, 22800, Note_on_c, 2, 62, 95
3, 22800, Note_on_c, 2, 57, 95
3, 22800, Note_on_c, 2, 50, 95
3, 22920, Note_off_c, 2, 66, 80
3, 22920, Note_off_c, 2, 62, 80
3, 22920, Note_off_c, 2, 57, 80
3, 22920, Note_off_c, 2, 50, 80
3, 22920, Note_on_c, 2, 66, 95
3, 22920, Note_on_c, 2, 62, 95
3, 22920, Note_on_c, 2, 57, 95
3, 22920, Note_on_c, 2, 50, 95
3, 23040, Note_off_c, 2, 66, 80
3, 23040, Note_off_c, 2, 62, 80
3, 23040, Note_off_c, 2, 57, 80
3, 23040, Note_off_c, 2, 50, 80
3, 23040, Note_on_c, 2, 64, 95
3, 23040, Note_on_c, 2, 59, 95
3, 23040, Note_on_c, 2, 55, 95
3, 23040, Note_on_c, 2, 52, 95
3, 23040, Note_on_c, 2, 47, 95
3, 23040, Note_on_c, 2, 40, 95
3, 23520, Note_off_c, 2, 64, 80
3, 23520, Note_off_c, 2, 59, 80
3, 23520, Note_off_c, 2, 55, 80
3, 23520, Note_off_c, 2, 52, 80
3, 23520, Note_off_c, 2, 47, 80
3, 23520, Note_off_c, 2, 40, 80
3, 23520, Note_on_c, 2, 64, 95
3, 23520, Note_on_c, 2, 59, 95
3, 23520, Note_on_c, 2, 55, 95
3, 23520, Note_on_c, 2, 52, 95
3, 23520, Note_on_c, 2, 47, 95
3, 23520, Note_on_c, 2, 40, 95
3, 24000, Note_off_c, 2, 64, 80
3, 24000, Note_off_c, 2, 59, 80
3, 24000, Note_off_c, 2, 55, 80
3, 24000, Note_off_c, 2, 52, 80
3, 24000, Note_off_c, 2, 47, 80
3, 24000, Note_off_c, 2, 40, 80
3, 24000, Note_on_c, 2, 66, 95
3, 24000, Note_on_c, 2, 62, 95
3, 24000, Note_on_c, 2, 57, 95
3, 24000, Note_on_c, 2, 50, 95
3, 24480, Note_off_c, 2, 66, 80
3, 24480, Note_off_c, 2, 62, 80
3, 24480, Note_off_c, 2, 57, 80
3, 24480, Note_off_c, 2, 50, 80
3, 24480, Note_on_c, 2, 66, 95
3, 24480, Note_on_c, 2, 62, 95
3, 24480, Note_on_c, 2, 57, 95
3, 24480, Note_on_c, 2, 50, 95
3, 24600, Note_off_c, 2, 66, 80
3, 24600, Note_off_c, 2, 62, 80
3, 24600, Note_off_c, 2, 57, 80
3, 24600, Note_off_c, 2, 50, 80
3, 24600, Note_on_c, 2, 66, 95
3, 24600, Note_on_c, 2, 62, 95
3, 24600, Note_on_c, 2, 57, 95
3, 24600, Note_on_c, 2, 50, 95
3, 24720, Note_off_c, 2, 66, 80
3, 24720, Note_off_c, 2, 62, 80
3, 24720, Note_off_c, 2, 57, 80
3, 24720, Note_off_c, 2, 50, 80
3, 24720, Note_on_c, 2, 66, 95
3, 24720, Note_on_c, 2, 62, 95
3, 24720, Note_on_c, 2, 57, 95
3, 24720, Note_on_c, 2, 50, 95
3, 24840, Note_off_c, 2, 66, 80
3, 24840, Note_off_c, 2, 62, 80
3, 24840, Note_off_c, 2, 57, 80
3, 24840, Note_off_c, 2, 50, 80
3, 24840, Note_on_c, 2, 66, 95
3, 24840, Note_on_c, 2, 62, 95
3, 24840, Note_on_c, 2, 57, 95
3, 24840, Note_on_c, 2, 50, 95
3, 24960, Note_off_c, 2, 66, 80
3, 24960, Note_off_c, 2, 62, 80
3, 24960, Note_off_c, 2, 57, 80
3, 24960, Note_off_c, 2, 50, 80
3, 24960, Note_on_c, 2, 64, 95
3, 24960, Note_on_c, 2, 59, 95
3, 24960, Note_on_c, 2, 55, 95
3, 24960, Note_on_c, 2, 52, 95
3, 24960, Note_on_c, 2, 47, 95
3, 24960, Note_on_c, 2, 40, 95
3, 25440, Note_off_c, 2, 64, 80
3, 25440, Note_off_c, 2, 59, 80
3, 25440, Note_off_c, 2, 55, 80
3, 25440, Note_off_c, 2, 52, 80
3, 25440, Note_off_c, 2, 47, 80
3, 25440, Note_off_c, 2, 40, 80
3, 25440, Note_on_c, 2, 64, 95
3, 25440, Note_on_c, 2, 59, 95
3, 25440, Note_on_c, 2, 55, 95
3, 25440, Note_on_c, 2, 52, 95
3, 25440, Note_on_c, 2, 47, 95
3, 25440, Note_on_c, 2, 40, 95
3, 25920, Note_off_c, 2, 64, 80
3, 25920, Note_off_c, 2, 59, 80
3, 25920, Note_off_c, 2, 55, 80
3, 25920, Note_off_c, 2, 52, 80
3, 25920, Note_off_c, 2, 47, 80
3, 25920, Note_off_c, 2, 40, 80
3, 25920, Note_on_c, 2, 66, 95
3, 25920, Note_on_c, 2, 62, 95
3, 25920, Note_on_c, 2, 57, 95
3, 25920, Note_on_c, 2, 50, 95
3, 26400, Note_off_c, 2, 66, 80
3, 26400, Note_off_c, 2, 62, 80
3, 26400, Note_off_c, 2, 57, 80
3, 26400, Note_off_c, 2, 50, 80
3, 26400, Note_on_c, 2, 66, 95
3, 26400, Note_on_c, 2, 62, 95
3, 26400, Note_on_c, 2, 57, 95
3, 26400, Note_on_c, 2, 50, 95
3, 26520, Note_off_c, 2, 66, 80
3, 26520, Note_off_c, 2, 62, 80
3, 26520, Note_off_c, 2, 57, 80
3, 26520, Note_off_c, 2, 50, 80
3, 26520, Note_on_c, 2, 66, 95
3, 26520, Note_on_c, 2, 62, 95
3, 26520, Note_on_c, 2, 57, 95
3, 26520, Note_on_c, 2, 50, 95
3, 26640, Note_off_c, 2, 66, 80
3, 26640, Note_off_c, 2, 62, 80
3, 26640, Note_off_c, 2, 57, 80
3, 26640, Note_off_c, 2, 50, 80
3, 26640, Note_on_c, 2, 66, 95
3, 26640, Note_on_c, 2, 62, 95
3, 26640, Note_on_c, 2, 57, 95
3, 26640, Note_on_c, 2, 50, 95
3, 26760, Note_off_c, 2, 66, 80
3, 26760, Note_off_c, 2, 62, 80
3, 26760, Note_off_c, 2, 57, 80
3, 26760, Note_off_c, 2, 50, 80
3, 26760, Note_on_c, 2, 66, 95
3, 26760, Note_on_c, 2, 62, 95
3, 26760, Note_on_c, 2, 57, 95
3, 26760, Note_on_c, 2, 50, 95
3, 26880, Note_off_c, 2, 66, 80
3, 26880, Note_off_c, 2, 62, 80
3, 26880, Note_off_c, 2, 57, 80
3, 26880, Note_off_c, 2, 50, 80
3, 26880, Note_on_c, 2, 64, 95
3, 26880, Note_on_c, 2, 60, 95
3, 26880, Note_on_c, 2, 55, 95
3, 26880, Note_on_c, 2, 52, 95
3, 26880, Note_on_c, 2, 48, 95
3, 27360, Note_off_c, 2, 64, 80
3, 27360, Note_off_c, 2, 60, 80
3, 27360, Note_off_c, 2, 55, 80
3, 27360, Note_off_c, 2, 52, 80
3, 27360, Note_off_c, 2, 48, 80
3, 27360, Note_on_c, 2, 64, 95
3, 27360, Note_on_c, 2, 60, 95
3, 27360, Note_on_c, 2, 55, 95
3, 27360, Note_on_c, 2, 52, 95
3, 27360, Note_on_c, 2, 48, 95
3, 27840, Note_off_c, 2, 64, 80
3, 27840, Note_off_c, 2, 60, 80
3, 27840, Note_off_c, 2, 55, 80
3, 27840, Note_off_c, 2, 52, 80
3, 27840, Note_off_c, 2, 48, 80
3, 27840, Note_on_c, 2, 64, 95
3, 27840, Note_on_c, 2, 60, 95
3, 27840, Note_on_c, 2, 55, 95
3, 27840, Note_on_c, 2, 52, 95
3, 27840, Note_on_c, 2, 48, 95
3, 28320, Note_off_c, 2, 64, 80
3, 28320, Note_off_c, 2, 60, 80
3, 28320, Note_off_c, 2, 55, 80
3, 28320, Note_off_c, 2, 52, 80
3, 28320, Note_off_c, 2, 48, 80
3, 28320, Note_on_c, 2, 64, 95
3, 28320, Note_on_c, 2, 59, 95
3, 28320, Note_on_c, 2, 55, 95
3, 28320, Note_on_c, 2, 52, 95
3, 28320, Note_on_c, 2, 47, 95
3, 28320, Note_on_c, 2, 40, 95
3, 28440, Note_off_c, 2, 64, 80
3, 28440, Note_off_c, 2, 59, 80
3, 28440, Note_off_c, 2, 55, 80
3, 28440, Note_off_c, 2, 52, 80
3, 28440, Note_off_c, 2, 47, 80
3, 28440, Note_off_c, 2, 40, 80
3, 28440, Note_on_c, 2, 64, 95
3, 28440, Note_on_c, 2, 59, 95
3, 28440, Note_on_c, 2, 55, 95
3, 28440, Note_on_c, 2, 52, 95
3, 28440, Note_on_c, 2, 47, 95
3, 28440, Note_on_c, 2, 40, 95
3, 28800, Note_off_c, 2, 64, 80
3, 28800, Note_off_c, 2, 59, 80
3, 28800, Note_off_c, 2, 55, 80
3, 28800, Note_off_c, 2, 52, 80
3, 28800, Note_off_c, 2, 47, 80
3, 28800, Note_off_c, 2, 40, 80
3, 28800, Note_on_c, 2, 64, 95
3, 28800, Note_on_c, 2, 60, 95
3, 28800, Note_on_c, 2, 55, 95
3, 28800, Note_on_c, 2, 52, 95
3, 28800, Note_on_c, 2, 48, 95
3, 29280, Note_off_c, 2, 64, 80
3, 29280, Note_off_c, 2, 60, 80
3, 29280, Note_off_c, 2, 55, 80
3, 29280, Note_off_c, 2, 52, 80
3, 29280, Note_off_c, 2, 48, 80
3, 29280, Note_on_c, 2, 64, 95
3, 29280, Note_on_c, 2, 60, 95
3, 29280, Note_on_c, 2, 55, 95
3, 29280, Note_on_c, 2, 52, 95
3, 29280, Note_on_c, 2, 48, 95
3, 29760, Note_off_c, 2, 64, 80
3, 29760, Note_off_c, 2, 60, 80
3, 29760, Note_off_c, 2, 55, 80
3, 29760, Note_off_c, 2, 52, 80
3, 29760, Note_off_c, 2, 48, 80
3, 29760, Note_on_c, 2, 64, 95
3, 29760, Note_on_c, 2, 60, 95
3, 29760, Note_on_c, 2, 55, 95
3, 29760, Note_on_c, 2, 52, 95
3, 29760, Note_on_c, 2, 48, 95
3, 30240, Note_off_c, 2, 64, 80
3, 30240, Note_off_c, 2, 60, 80
3, 30240, Note_off_c, 2, 55, 80
3, 30240, Note_off_c, 2, 52, 80
3, 30240, Note_off_c, 2, 48, 80
3, 30240, Note_on_c, 2, 64, 95
3, 30240, Note_on_c, 2, 60, 95
3, 30240, Note_on_c, 2, 55, 95
3, 30240, Note_on_c, 2, 52, 95
3, 30240, Note_on_c, 2, 48, 95
3, 30480, Note_off_c, 2, 64, 80
3, 30480, Note_off_c, 2, 60, 80
3, 30480, Note_off_c, 2, 55, 80
3, 30480, Note_off_c, 2, 52, 80
3, 30480, Note_off_c, 2, 48, 80
3, 30480, Note_on_c, 2, 64, 95
3, 30480, Note_on_c, 2, 60, 95
3, 30480, Note_on_c, 2, 55, 95
3, 30480, Note_on_c, 2, 52, 95
3, 30480, Note_on_c, 2, 48, 95
3, 30720, Note_off_c, 2, 64, 80
3, 30720, Note_off_c, 2, 60, 80
3, 30720, Note_off_c, 2, 55, 80
3, 30720, Note_off_c, 2, 52, 80
3, 30720, Note_off_c, 2, 48, 80
3, 30720, Note_on_c, 2, 67, 95
3, 30720, Note_on_c, 2, 62, 95
3, 30720, Note_on_c, 2, 59, 95
3, 30720, Note_on_c, 2, 55, 95
3, 30720, Note_on_c, 2, 50, 95
3, 30720, Note_on_c, 2, 43, 95
3, 30960, Note_off_c, 2, 67, 80
3, 30960, Note_off_c, 2, 62, 80
3, 30960, Note_off_c, 2, 59, 80
3, 30960, Note_off_c, 2, 55, 80
3, 30960, Note_off_c, 2, 50, 80
3, 30960, Note_off_c, 2, 43, 80
3, 30960, Note_on_c, 2, 59, 95
3, 30960, Note_on_c, 2, 55, 95
3, 30960, Note_on_c, 2, 50, 95
3, 30960, Note_on_c, 2, 43, 95
3, 31200, Note_off_c, 2, 59, 80
3, 31200, Note_off_c, 2, 55, 80
3, 31200, Note_off_c, 2, 50, 80
3, 31200, Note_off_c, 2, 43, 80
3, 31200, Note_on_c, 2, 67, 95
3, 31200, Note_on_c, 2, 62, 95
3, 31200, Note_on_c, 2, 59, 95
3, 31200, Note_on_c, 2, 55, 95
3, 31200, Note_on_c, 2, 50, 95
3, 31200, Note_on_c, 2, 43, 95
3, 31440, Note_off_c, 2, 67, 80
3, 31440, Note_off_c, 2, 62, 80
3, 31440, Note_off_c, 2, 59, 80
3, 31440, Note_off_c, 2, 55, 80
3, 31440, Note_off_c, 2, 50, 80
3, 31440, Note_off_c, 2, 43, 80
3, 31440, Note_on_c, 2, 59, 95
3, 31440, Note_on_c, 2, 54, 95
3, 31440, Note_on_c, 2, 50, 95
3, 31560, Note_off_c, 2, 59, 80
3, 31560, Note_off_c, 2, 54, 80
3, 31560, Note_off_c, 2, 50, 80
3, 31560, Note_on_c, 2, 59, 95
3, 31560, Note_on_c, 2, 54, 95
3, 31560, Note_on_c, 2, 50, 95
3, 31680, Note_off_c, 2, 59, 80
3, 31680, Note_off_c, 2, 54, 80
3, 31680, Note_off_c, 2, 50, 80
3, 31680, Note_on_c, 2, 67, 95
3, 31680, Note_on_c, 2, 62, 95
3, 31680, Note_on_c, 2, 59, 95
3, 31680, Note_on_c, 2, 54, 95
3, 31680, Note_on_c, 2, 50, 95
3, 31680, Note_on_c, 2, 43, 95
3, 31920, Note_off_c, 2, 67, 80
3, 31920, Note_off_c, 2, 62, 80
3, 31920, Note_off_c, 2, 59, 80
3, 31920, Note_off_c, 2, 54, 80
3, 31920, Note_off_c, 2, 50, 80
3, 31920, Note_off_c, 2, 43, 80
3, 31920, Note_on_c, 2, 62, 95
3, 31920, Note_on_c, 2, 59, 95
3, 31920, Note_on_c, 2, 54, 95
3, 31920, Note_on_c, 2, 50, 95
3, 31920, Note_on_c, 2, 43, 95
3, 32160, Note_off_c, 2, 62, 80
3, 32160, Note_off_c, 2, 59, 80
3, 32160, Note_off_c, 2, 54, 80
3, 32160, Note_off_c, 2, 50, 80
3, 32160, Note_off_c, 2, 43, 80
3, 32160, Note_on_c, 2, 67, 95
3, 32160, Note_on_c, 2, 62, 95
3, 32160, Note_on_c, 2, 59, 95
3, 32160, Note_on_c, 2, 54, 95
3, 32160, Note_on_c, 2, 50, 95
3, 32160, Note_on_c, 2, 43, 95
3, 32400, Note_off_c, 2, 67, 80
3, 32400, Note_off_c, 2, 62, 80
3, 32400, Note_off_c, 2, 59, 80
3, 32400, Note_off_c, 2, 54, 80
3, 32400, Note_off_c, 2, 50, 80
3, 32400, Note_off_c, 2, 43, 80
3, 32400, Note_on_c, 2, 59, 95
3, 32400, Note_on_c, 2, 54, 95
3, 32400, Note_on_c, 2, 50, 95
3, 32400, Note_on_c, 2, 43, 95
3, 32520, Note_off_c, 2, 59, 80
3, 32520, Note_off_c, 2, 54, 80
3, 32520, Note_off_c, 2, 50, 80
3, 32520, Note_off_c, 2, 43, 80
3, 32520, Note_on_c, 2, 55, 95
3, 32520, Note_on_c, 2, 50, 95
3, 32520, Note_on_c, 2, 45, 95
3, 32640, Note_off_c, 2, 55, 80
3, 32640, Note_off_c, 2, 50, 80
3, 32640, Note_off_c, 2, 45, 80
3, 32640, Note_on_c, 2, 64, 95
3, 32640, Note_on_c, 2, 59, 95
3, 32640, Note_on_c, 2, 55, 95
3, 32640, Note_on_c, 2, 52, 95
3, 32640, Note_on_c, 2, 47, 95
3, 32640, Note_on_c, 2, 40, 95
3, 32880, Note_off_c, 2, 64, 80
3, 32880, Note_off_c, 2, 59, 80
3, 32880, Note_off_c, 2, 55, 80
3, 32880, Note_off_c, 2, 52, 80
3, 32880, Note_off_c, 2, 47, 80
3, 32880, Note_off_c, 2, 40, 80
3, 32880, Note_on_c, 2, 59, 95
3, 32880, Note_on_c, 2, 55, 95
3, 32880, Note_on_c, 2, 52, 95
3, 32880, Note_on_c, 2, 47, 95
3, 32880, Note_on_c, 2, 40, 95
3, 33120, Note_off_c, 2, 59, 80
3, 33120, Note_off_c, 2, 55, 80
3, 33120, Note_off_c, 2, 52, 80
3, 33120, Note_off_c, 2, 47, 80
3, 33120, Note_off_c, 2, 40, 80
3, 33120, Note_on_c, 2, 64, 95
3, 33120, Note_on_c, 2, 59, 95
3, 33120, Note_on_c, 2, 55, 95
3, 33120, Note_on_c, 2, 52, 95
3, 33120, Note_on_c, 2, 47, 95
3, 33120, Note_on_c, 2, 40, 95
3, 33360, Note_off_c, 2, 64, 80
3, 33360, Note_off_c, 2, 59, 80
3, 33360, Note_off_c, 2, 55, 80
3, 33360, Note_off_c, 2, 52, 80
3, 33360, Note_off_c, 2, 47, 80
3, 33360, Note_off_c, 2, 40, 80
3, 33360, Note_on_c, 2, 59, 95
3, 33360, Note_on_c, 2, 55, 95
3, 33360, Note_on_c, 2, 52, 95
3, 33360, Note_on_c, 2, 47, 95
3, 33480, Note_off_c, 2, 59, 80
3, 33480, Note_off_c, 2, 55, 80
3, 33480, Note_off_c, 2, 52, 80
3, 33480, Note_off_c, 2, 47, 80
3, 33480, Note_on_c, 2, 59, 95
3, 33480, Note_on_c, 2, 55, 95
3, 33480, Note_on_c, 2, 52, 95
3, 33480, Note_on_c, 2, 47, 95
3, 33600, Note_off_c, 2, 59, 80
3, 33600, Note_off_c, 2, 55, 80
3, 33600, Note_off_c, 2, 52, 80
3, 33600, Note_off_c, 2, 47, 80
3, 33600, Note_on_c, 2, 64, 95
3, 33600, Note_on_c, 2, 59, 95
3, 33600, Note_on_c, 2, 55, 95
3, 33600, Note_on_c, 2, 50, 95
3, 33600, Note_on_c, 2, 47, 95
3, 33600, Note_on_c, 2, 40, 95
3, 33840, Note_off_c, 2, 64, 80
3, 33840, Note_off_c, 2, 59, 80
3, 33840, Note_off_c, 2, 55, 80
3, 33840, Note_off_c, 2, 50, 80
3, 33840, Note_off_c, 2, 47, 80
3, 33840, Note_off_c, 2, 40, 80
3, 33840, Note_on_c, 2, 59, 95
3, 33840, Note_on_c, 2, 55, 95
3, 33840, Note_on_c, 2, 50, 95
3, 33840, Note_on_c, 2, 47, 95
3, 33840, Note_on_c, 2, 40, 95
3, 34080, Note_off_c, 2, 59, 80
3, 34080, Note_off_c, 2, 55, 80
3, 34080, Note_off_c, 2, 50, 80
3, 34080, Note_off_c, 2, 47, 80
3, 34080, Note_off_c, 2, 40, 80
3, 34080, Note_on_c, 2, 64, 95
3, 34080, Note_on_c, 2, 59, 95
3, 34080, Note_on_c, 2, 55, 95
3, 34080, Note_on_c, 2, 50, 95
3, 34080, Note_on_c, 2, 47, 95
3, 34080, Note_on_c, 2, 40, 95
3, 34320, Note_off_c, 2, 64, 80
3, 34320, Note_off_c, 2, 59, 80
3, 34320, Note_off_c, 2, 55, 80
3, 34320, Note_off_c, 2, 50, 80
3, 34320, Note_off_c, 2, 47, 80
3, 34320, Note_off_c, 2, 40, 80
3, 34320, Note_on_c, 2, 59, 95
3, 34320, Note_on_c, 2, 55, 95
3, 34320, Note_on_c, 2, 50, 95
3, 34440, Note_off_c, 2, 59, 80
3, 34440, Note_off_c, 2, 55, 80
3, 34440, Note_off_c, 2, 50, 80
3, 34440, Note_on_c, 2, 59, 95
3, 34440, Note_on_c, 2, 55, 95
3, 34440, Note_on_c, 2, 50, 95
3, 34560, Note_off_c, 2, 59, 80
3, 34560, Note_off_c, 2, 55, 80
3, 34560, Note_off_c, 2, 50, 80
3, 34560, Note_on_c, 2, 67, 95
3, 34560, Note_on_c, 2, 63, 95
3, 34560, Note_on_c, 2, 58, 95
3, 34560, Note_on_c, 2, 51, 95
3, 34560, Note_on_c, 2, 46, 95
3, 34800, Note_off_c, 2, 67, 80
3, 34800, Note_off_c, 2, 63, 80
3, 34800, Note_off_c, 2, 58, 80
3, 34800, Note_off_c, 2, 51, 80
3, 34800, Note_off_c, 2, 46, 80
3, 34800, Note_on_c, 2, 63, 95
3, 34800, Note_on_c, 2, 58, 95
3, 34800, Note_on_c, 2, 51, 95
3, 34800, Note_on_c, 2, 46, 95
3, 35040, Note_off_c, 2, 63, 80
3, 35040, Note_off_c, 2, 58, 80
3, 35040, Note_off_c, 2, 51, 80
3, 35040, Note_off_c, 2, 46, 80
3, 35040, Note_on_c, 2, 67, 95
3, 35040, Note_on_c, 2, 63, 95
3, 35040, Note_on_c, 2, 58, 95
3, 35040, Note_on_c, 2, 51, 95
3, 35040, Note_on_c, 2, 46, 95
3, 35280, Note_off_c, 2, 67, 80
3, 35280, Note_off_c, 2, 63, 80
3, 35280, Note_off_c, 2, 58, 80
3, 35280, Note_off_c, 2, 51, 80
3, 35280, Note_off_c, 2, 46, 80
3, 35280, Note_on_c, 2, 66, 95
3, 35280, Note_on_c, 2, 62, 95
3, 35280, Note_on_c, 2, 57, 95
3, 35400, Note_off_c, 2, 66, 80
3, 35400, Note_off_c, 2, 62, 80
3, 35400, Note_off_c, 2, 57, 80
3, 35400, Note_on_c, 2, 66, 95
3, 35400, Note_on_c, 2, 62, 95
3, 35400, Note_on_c, 2, 57, 95
3, 35520, Note_off_c, 2, 66, 80
3, 35520, Note_off_c, 2, 62, 80
3, 35520, Note_off_c, 2, 57, 80
3, 35520, Note_on_c, 2, 66, 95
3, 35520, Note_on_c, 2, 62, 95
3, 35520, Note_on_c, 2, 57, 95
3, 35520, Note_on_c, 2, 50, 95
3, 35520, Note_on_c, 2, 45, 95
3, 35760, Note_off_c, 2, 66, 80
3, 35760, Note_off_c, 2, 62, 80
3, 35760, Note_off_c, 2, 57, 80
3, 35760, Note_off_c, 2, 50, 80
3, 35760, Note_off_c, 2, 45, 80
3, 35760, Note_on_c, 2, 62, 95
3, 35760, Note_on_c, 2, 57, 95
3, 35760, Note_on_c, 2, 50, 95
3, 35760, Note_on_c, 2, 45, 95
3, 36000, Note_off_c, 2, 62, 80
3, 36000, Note_off_c, 2, 57, 80
3, 36000, Note_off_c, 2, 50, 80
3, 36000, Note_off_c, 2, 45, 80
3, 36000, Note_on_c, 2, 66, 95
3, 36000, Note_on_c, 2, 62, 95
3, 36000, Note_on_c, 2, 57, 95
3, 36000, Note_on_c, 2, 50, 95
3, 36000, Note_on_c, 2, 45, 95
3, 36240, Note_off_c, 2, 66, 80
3, 36240, Note_off_c, 2, 62, 80
3, 36240, Note_off_c, 2, 57, 80
3, 36240, Note_off_c, 2, 50, 80
3, 36240, Note_off_c, 2, 45, 80
3, 36240, Note_on_c, 2, 62, 95
3, 36240, Note_on_c, 2, 59, 95
3, 36240, Note_on_c, 2, 54, 95
3, 36360, Note_off_c, 2, 62, 80
3, 36360, Note_off_c, 2, 59, 80
3, 36360, Note_off_c, 2, 54, 80
3, 36360, Note_on_c, 2, 62, 95
3, 36360, Note_on_c, 2, 59, 95
3, 36360, Note_on_c, 2, 54, 95
3, 36480, Note_off_c, 2, 62, 80
3, 36480, Note_off_c, 2, 59, 80
3, 36480, Note_off_c, 2, 54, 80
3, 36480, Note_on_c, 2, 66, 95
3, 36480, Note_on_c, 2, 62, 95
3, 36480, Note_on_c, 2, 59, 95
3, 36480, Note_on_c, 2, 54, 95
3, 36480, Note_on_c, 2, 47, 95
3, 36480, Note_on_c, 2, 42, 95
3, 36720, Note_off_c, 2, 66, 80
3, 36720, Note_off_c, 2, 62, 80
3, 36720, Note_off_c, 2, 59, 80
3, 36720, Note_off_c, 2, 54, 80
3, 36720, Note_off_c, 2, 47, 80
3, 36720, Note_off_c, 2, 42, 80
3, 36720, Note_on_c, 2, 59, 95
3, 36720, Note_on_c, 2, 54, 95
3, 36720, Note_on_c, 2, 47, 95
3, 36720, Note_on_c, 2, 42, 95
3, 36960, Note_off_c, 2, 59, 80
3, 36960, Note_off_c, 2, 54, 80
3, 36960, Note_off_c, 2, 47, 80
3, 36960, Note_off_c, 2, 42, 80
3, 36960, Note_on_c, 2, 66, 95
3, 36960, Note_on_c, 2, 62, 95
3, 36960, Note_on_c, 2, 59, 95
3, 36960, Note_on_c, 2, 54, 95
3, 36960, Note_on_c, 2, 47, 95
3, 36960, Note_on_c, 2, 42, 95
3, 37200, Note_off_c, 2, 66, 80
3, 37200, Note_off_c, 2, 62, 80
3, 37200, Note_off_c, 2, 59, 80
3, 37200, Note_off_c, 2, 54, 80
3, 37200, Note_off_c, 2, 47, 80
3, 37200, Note_off_c, 2, 42, 80
3, 37200, Note_on_c, 2, 64, 95
3, 37200, Note_on_c, 2, 60, 95
3, 37200, Note_on_c, 2, 55, 95
3, 37200, Note_on_c, 2, 52, 95
3, 37200, Note_on_c, 2, 48, 95
3, 37200, Note_on_c, 2, 43, 95
3, 37320, Note_off_c, 2, 64, 80
3, 37320, Note_off_c, 2, 60, 80
3, 37320, Note_off_c, 2, 55, 80
3, 37320, Note_off_c, 2, 52, 80
3, 37320, Note_off_c, 2, 48, 80
3, 37320, Note_off_c, 2, 43, 80
3, 37320, Note_on_c, 2, 64, 95
3, 37320, Note_on_c, 2, 60, 95
3, 37320, Note_on_c, 2, 55, 95
3, 37320, Note_on_c, 2, 52, 95
3, 37320, Note_on_c, 2, 48, 95
3, 37320, Note_on_c, 2, 43, 95
3, 37440, Note_off_c, 2, 64, 80
3, 37440, Note_off_c, 2, 60, 80
3, 37440, Note_off_c, 2, 55, 80
3, 37440, Note_off_c, 2, 52, 80
3, 37440, Note_off_c, 2, 48, 80
3, 37440, Note_off_c, 2, 43, 80
3, 37440, Note_on_c, 2, 64, 95
3, 37440, Note_on_c, 2, 60, 95
3, 37440, Note_on_c, 2, 55, 95
3, 37440, Note_on_c, 2, 52, 95
3, 37440, Note_on_c, 2, 48, 95
3, 37440, Note_on_c, 2, 43, 95
3, 37680, Note_off_c, 2, 64, 80
3, 37680, Note_off_c, 2, 60, 80
3, 37680, Note_off_c, 2, 55, 80
3, 37680, Note_off_c, 2, 52, 80
3, 37680, Note_off_c, 2, 48, 80
3, 37680, Note_off_c, 2, 43, 80
3, 37680, Note_on_c, 2, 64, 95
3, 37680, Note_on_c, 2, 60, 95
3, 37680, Note_on_c, 2, 55, 95
3, 37680, Note_on_c, 2, 52, 95
3, 37680, Note_on_c, 2, 48, 95
3, 37680, Note_on_c, 2, 43, 95
3, 37800, Note_off_c, 2, 64, 80
3, 37800, Note_off_c, 2, 60, 80
3, 37800, Note_off_c, 2, 55, 80
3, 37800, Note_off_c, 2, 52, 80
3, 37800, Note_off_c, 2, 48, 80
3, 37800, Note_off_c, 2, 43, 80
3, 37800, Note_on_c, 2, 64, 95
3, 37800, Note_on_c, 2, 60, 95
3, 37800, Note_on_c, 2, 55, 95
3, 37800, Note_on_c, 2, 52, 95
3, 37800, Note_on_c, 2, 48, 95
3, 37800, Note_on_c, 2, 43, 95
3, 37920, Note_off_c, 2, 64, 80
3, 37920, Note_off_c, 2, 60, 80
3, 37920, Note_off_c, 2, 55, 80
3, 37920, Note_off_c, 2, 52, 80
3, 37920, Note_off_c, 2, 48, 80
3, 37920, Note_off_c, 2, 43, 80
3, 37920, Note_on_c, 2, 64, 95
3, 37920, Note_on_c, 2, 60, 95
3, 37920, Note_on_c, 2, 55, 95
3, 37920, Note_on_c, 2, 52, 95
3, 37920, Note_on_c, 2, 48, 95
3, 37920, Note_on_c, 2, 43, 95
3, 38160, Note_off_c, 2, 64, 80
3, 38160, Note_off_c, 2, 60, 80
3, 38160, Note_off_c, 2, 55, 80
3, 38160, Note_off_c, 2, 52, 80
3, 38160, Note_off_c, 2, 48, 80
3, 38160, Note_off_c, 2, 43, 80
3, 38160, Note_on_c, 2, 64, 95
3, 38160, Note_on_c, 2, 60, 95
3, 38160, Note_on_c, 2, 55, 95
3, 38160, Note_on_c, 2, 52, 95
3, 38160, Note_on_c, 2, 48, 95
3, 38160, Note_on_c, 2, 43, 95
3, 38280, Note_off_c, 2, 64, 80
3, 38280, Note_off_c, 2, 60, 80
3, 38280, Note_off_c, 2, 55, 80
3, 38280, Note_off_c, 2, 52, 80
3, 38280, Note_off_c, 2, 48, 80
3, 38280, Note_off_c, 2, 43, 80
3, 38280, Note_on_c, 2, 64, 95
3, 38280, Note_on_c, 2, 60, 95
3, 38280, Note_on_c, 2, 55, 95
3, 38280, Note_on_c, 2, 52, 95
3, 38280, Note_on_c, 2, 48, 95
3, 38280, Note_on_c, 2, 43, 95
3, 38400, Note_off_c, 2, 64, 80
3, 38400, Note_off_c, 2, 60, 80
3, 38400, Note_off_c, 2, 55, 80
3, 38400, Note_off_c, 2, 52, 80
3, 38400, Note_off_c, 2, 48, 80
3, 38400, Note_off_c, 2, 43, 80
3, 38400, Note_on_c, 2, 67, 95
3, 38400, Note_on_c, 2, 62, 95
3, 38400, Note_on_c, 2, 59, 95
3, 38400, Note_on_c, 2, 55, 95
3, 38400, Note_on_c, 2, 50, 95
3, 38400, Note_on_c, 2, 43, 95
3, 38640, Note_off_c, 2, 67, 80
3, 38640, Note_off_c, 2, 62, 80
3, 38640, Note_off_c, 2, 59, 80
3, 38640, Note_off_c, 2, 55, 80
3, 38640, Note_off_c, 2, 50, 80
3, 38640, Note_off_c, 2, 43, 80
3, 38640, Note_on_c, 2, 59, 95
3, 38640, Note_on_c, 2, 55, 95
3, 38640, Note_on_c, 2, 50, 95
3, 38640, Note_on_c, 2, 43, 95
3, 38880, Note_off_c, 2, 59, 80
3, 38880, Note_off_c, 2, 55, 80
3, 38880, Note_off_c, 2, 50, 80
3, 38880, Note_off_c, 2, 43, 80
3, 38880, Note_on_c, 2, 67, 95
3, 38880, Note_on_c, 2, 62, 95
3, 38880, Note_on_c, 2, 59, 95
3, 38880, Note_on_c, 2, 55, 95
3, 38880, Note_on_c, 2, 50, 95
3, 38880, Note_on_c, 2, 43, 95
3, 39120, Note_off_c, 2, 67, 80
3, 39120, Note_off_c, 2, 62, 80
3, 39120, Note_off_c, 2, 59, 80
3, 39120, Note_off_c, 2, 55, 80
3, 39120, Note_off_c, 2, 50, 80
3, 39120, Note_off_c, 2, 43, 80
3, 39120, Note_on_c, 2, 59, 95
3, 39120, Note_on_c, 2, 54, 95
3, 39120, Note_on_c, 2, 50, 95
3, 39240, Note_off_c, 2, 59, 80
3, 39240, Note_off_c, 2, 54, 80
3, 39240, Note_off_c, 2, 50, 80
3, 39240, Note_on_c, 2, 59, 95
3, 39240, Note_on_c, 2, 54, 95
3, 39240, Note_on_c, 2, 50, 95
3, 39360, Note_off_c, 2, 59, 80
3, 39360, Note_off_c, 2, 54, 80
3, 39360, Note_off_c, 2, 50, 80
3, 39360, Note_on_c, 2, 67, 95
3, 39360, Note_on_c, 2, 62, 95
3, 39360, Note_on_c, 2, 59, 95
3, 39360, Note_on_c, 2, 54, 95
3, 39360, Note_on_c, 2, 50, 95
3, 39360, Note_on_c, 2, 43, 95
3, 39600, Note_off_c, 2, 67, 80
3, 39600, Note_off_c, 2, 62, 80
3, 39600, Note_off_c, 2, 59, 80
3, 39600, Note_off_c, 2, 54, 80
3, 39600, Note_off_c, 2, 50, 80
3, 39600, Note_off_c, 2, 43, 80
3, 39600, Note_on_c, 2, 62, 95
3, 39600, Note_on_c, 2, 59, 95
3, 39600, Note_on_c, 2, 54, 95
3, 39600, Note_on_c, 2, 50, 95
3, 39600, Note_on_c, 2, 43, 95
3, 39840, Note_off_c, 2, 62, 80
3, 39840, Note_off_c, 2, 59, 80
3, 39840, Note_off_c, 2, 54, 80
3, 39840, Note_off_c, 2, 50, 80
3, 39840, Note_off_c, 2, 43, 80
3, 39840, Note_on_c, 2, 67, 95
3, 39840, Note_on_c, 2, 62, 95
3, 39840, Note_on_c, 2, 59, 95
3, 39840, Note_on_c, 2, 54, 95
3, 39840, Note_on_c, 2, 50, 95
3, 39840, Note_on_c, 2, 43, 95
3, 40080, Note_off_c, 2, 67, 80
3, 40080, Note_off_c, 2, 62, 80
3, 40080, Note_off_c, 2, 59, 80
3, 40080, Note_off_c, 2, 54, 80
3, 40080, Note_off_c, 2, 50, 80
3, 40080, Note_off_c, 2, 43, 80
3, 40080, Note_on_c, 2, 59, 95
3, 40080, Note_on_c, 2, 54, 95
3, 40080, Note_on_c, 2, 50, 95
3, 40080, Note_on_c, 2, 43, 95
3, 40200, Note_off_c, 2, 59, 80
3, 40200, Note_off_c, 2, 54, 80
3, 40200, Note_off_c, 2, 50, 80
3, 40200, Note_off_c, 2, 43, 80
3, 40200, Note_on_c, 2, 55, 95
3, 40200, Note_on_c, 2, 50, 95
3, 40200, Note_on_c, 2, 45, 95
3, 40320, Note_off_c, 2, 55, 80
3, 40320, Note_off_c, 2, 50, 80
3, 40320, Note_off_c, 2, 45, 80
3, 40320, Note_on_c, 2, 64, 95
3, 40320, Note_on_c, 2, 59, 95
3, 40320, Note_on_c, 2, 55, 95
3, 40320, Note_on_c, 2, 52, 95
3, 40320, Note_on_c, 2, 47, 95
3, 40320, Note_on_c, 2, 40, 95
3, 40560, Note_off_c, 2, 64, 80
3, 40560, Note_off_c, 2, 59, 80
3, 40560, Note_off_c, 2, 55, 80
3, 40560, Note_off_c, 2, 52, 80
3, 40560, Note_off_c, 2, 47, 80
3, 40560, Note_off_c, 2, 40, 80
3, 40560, Note_on_c, 2, 59, 95
3, 40560, Note_on_c, 2, 55, 95
3, 40560, Note_on_c, 2, 52, 95
3, 40560, Note_on_c, 2, 47, 95
3, 40560, Note_on_c, 2, 40, 95
3, 40800, Note_off_c, 2, 59, 80
3, 40800, Note_off_c, 2, 55, 80
3, 40800, Note_off_c, 2, 52, 80
3, 40800, Note_off_c, 2, 47, 80
3, 40800, Note_off_c, 2, 40, 80
3, 40800, Note_on_c, 2, 64, 95
3, 40800, Note_on_c, 2, 59, 95
3, 40800, Note_on_c, 2, 55, 95
3, 40800, Note_on_c, 2, 52, 95
3, 40800, Note_on_c, 2, 47, 95
3, 40800, Note_on_c, 2, 40, 95
3, 41040, Note_off_c, 2, 64, 80
3, 41040, Note_off_c, 2, 59, 80
3, 41040, Note_off_c, 2, 55, 80
3, 41040, Note_off_c, 2, 52, 80
3, 41040, Note_off_c, 2, 47, 80
3, 41040, Note_off_c, 2, 40, 80
3, 41040, Note_on_c, 2, 59, 95
3, 41040, Note_on_c, 2, 55, 95
3, 41040, Note_on_c, 2, 52, 95
3, 41040, Note_on_c, 2, 47, 95
3, 41160, Note_off_c, 2, 59, 80
3, 41160, Note_off_c, 2, 55, 80
3, 41160, Note_off_c, 2, 52, 80
3, 41160, Note_off_c, 2, 47, 80
3, 41160, Note_on_c, 2, 59, 95
3, 41160, Note_on_c, 2, 55, 95
3, 41160, Note_on_c, 2, 52, 95
3, 41160, Note_on_c, 2, 47, 95
3, 41280, Note_off_c, 2, 59, 80
3, 41280, Note_off_c, 2, 55, 80
3, 41280, Note_off_c, 2, 52, 80
3, 41280, Note_off_c, 2, 47, 80
3, 41280, Note_on_c, 2, 64, 95
3, 41280, Note_on_c, 2, 59, 95
3, 41280, Note_on_c, 2, 55, 95
3, 41280, Note_on_c, 2, 50, 95
3, 41280, Note_on_c, 2, 47, 95
3, 41280, Note_on_c, 2, 40, 95
3, 41520, Note_off_c, 2, 64, 80
3, 41520, Note_off_c, 2, 59, 80
3, 41520, Note_off_c, 2, 55, 80
3, 41520, Note_off_c, 2, 50, 80
3, 41520, Note_off_c, 2, 47, 80
3, 41520, Note_off_c, 2, 40, 80
3, 41520, Note_on_c, 2, 59, 95
3, 41520, Note_on_c, 2, 55, 95
3, 41520, Note_on_c, 2, 50, 95
3, 41520, Note_on_c, 2, 47, 95
3, 41520, Note_on_c, 2, 40, 95
3, 41760, Note_off_c, 2, 59, 80
3, 41760, Note_off_c, 2, 55, 80
3, 41760, Note_off_c, 2, 50, 80
3, 41760, Note_off_c, 2, 47, 80
3, 41760, Note_off_c, 2, 40, 80
3, 41760, Note_on_c, 2, 64, 95
3, 41760, Note_on_c, 2, 59, 95
3, 41760, Note_on_c, 2, 55, 95
3, 41760, Note_on_c, 2, 50, 95
3, 41760, Note_on_c, 2, 47, 95
3, 41760, Note_on_c, 2, 40, 95
3, 42000, Note_off_c, 2, 64, 80
3, 42000, Note_off_c, 2, 59, 80
3, 42000, Note_off_c, 2, 55, 80
3, 42000, Note_off_c, 2, 50, 80
3, 42000, Note_off_c, 2, 47, 80
3, 42000, Note_off_c, 2, 40, 80
3, 42000, Note_on_c, 2, 59, 95
3, 42000, Note_on_c, 2, 55, 95
3, 42000, Note_on_c, 2, 50, 95
3, 42120, Note_off_c, 2, 59, 80
3, 42120, Note_off_c, 2, 55, 80
3, 42120, Note_off_c, 2, 50, 80
3, 42120, Note_on_c, 2, 59, 95
3, 42120, Note_on_c, 2, 55, 95
3, 42120, Note_on_c, 2, 50, 95
3, 42240, Note_off_c, 2, 59, 80
3, 42240, Note_off_c, 2, 55, 80
3, 42240, Note_off_c, 2, 50, 80
3, 42240, Note_on_c, 2, 67, 95
3, 42240, Note_on_c, 2, 63, 95
3, 42240, Note_on_c, 2, 58, 95
3, 42240, Note_on_c, 2, 51, 95
3, 42240, Note_on_c, 2, 46, 95
3, 42480, Note_off_c, 2, 67, 80
3, 42480, Note_off_c, 2, 63, 80
3, 42480, Note_off_c, 2, 58, 80
3, 42480, Note_off_c, 2, 51, 80
3, 42480, Note_off_c, 2, 46, 80
3, 42480, Note_on_c, 2, 63, 95
3, 42480, Note_on_c, 2, 58, 95
3, 42480, Note_on_c, 2, 51, 95
3, 42480, Note_on_c, 2, 46, 95
3, 42720, Note_off_c, 2, 63, 80
3, 42720, Note_off_c, 2, 58, 80
3, 42720, Note_off_c, 2, 51, 80
3, 42720, Note_off_c, 2, 46, 80
3, 42720, Note_on_c, 2, 67, 95
3, 42720, Note_on_c, 2, 63, 95
3, 42720, Note_on_c, 2, 58, 95
3, 42720, Note_on_c, 2, 51, 95
3, 42720, Note_on_c, 2, 46, 95
3, 42960, Note_off_c, 2, 67, 80
3, 42960, Note_off_c, 2, 63, 80
3, 42960, Note_off_c, 2, 58, 80
3, 42960, Note_off_c, 2, 51, 80
3, 42960, Note_off_c, 2, 46, 80
3, 42960, Note_on_c, 2, 66, 95
3, 42960, Note_on_c, 2, 62, 95
3, 42960, Note_on_c, 2, 57, 95
3, 43080, Note_off_c, 2, 66, 80
3, 43080, Note_off_c, 2, 62, 80
3, 43080, Note_off_c, 2, 57, 80
3, 43080, Note_on_c, 2, 66, 95
3, 43080, Note_on_c, 2, 62, 95
3, 43080, Note_on_c, 2, 57, 95
3, 43200, Note_off_c, 2, 66, 80
3, 43200, Note_off_c, 2, 62, 80
3, 43200, Note_off_c, 2, 57, 80
3, 43200, Note_on_c, 2, 66, 95
3, 43200, Note_on_c, 2, 62, 95
3, 43200, Note_on_c, 2, 57, 95
3, 43200, Note_on_c, 2, 50, 95
3, 43200, Note_on_c, 2, 45, 95
3, 43440, Note_off_c, 2, 66, 80
3, 43440, Note_off_c, 2, 62, 80
3, 43440, Note_off_c, 2, 57, 80
3, 43440, Note_off_c, 2, 50, 80
3, 43440, Note_off_c, 2, 45, 80
3, 43440, Note_on_c, 2, 62, 95
3, 43440, Note_on_c, 2, 57, 95
3, 43440, Note_on_c, 2, 50, 95
3, 43440, Note_on_c, 2, 45, 95
3, 43680, Note_off_c, 2, 62, 80
3, 43680, Note_off_c, 2, 57, 80
3, 43680, Note_off_c, 2, 50, 80
3, 43680, Note_off_c, 2, 45, 80
3, 43680, Note_on_c, 2, 66, 95
3, 43680, Note_on_c, 2, 62, 95
3, 43680, Note_on_c, 2, 57, 95
3, 43680, Note_on_c, 2, 50, 95
3, 43680, Note_on_c, 2, 45, 95
3, 43920, Note_off_c, 2, 66, 80
3, 43920, Note_off_c, 2, 62, 80
3, 43920, Note_off_c, 2, 57, 80
3, 43920, Note_off_c, 2, 50, 80
3, 43920, Note_off_c, 2, 45, 80
3, 43920, Note_on_c, 2, 62, 95
3, 43920, Note_on_c, 2, 59, 95
3, 43920, Note_on_c, 2, 54, 95
3, 44040, Note_off_c, 2, 62, 80
3, 44040, Note_off_c, 2, 59, 80
3, 44040, Note_off_c, 2, 54, 80
3, 44040, Note_on_c, 2, 62, 95
3, 44040, Note_on_c, 2, 59, 95
3, 44040, Note_on_c, 2, 54, 95
3, 44160, Note_off_c, 2, 62, 80
3, 44160, Note_off_c, 2, 59, 80
3, 44160, Note_off_c, 2, 54, 80
3, 44160, Note_on_c, 2, 66, 95
3, 44160, Note_on_c, 2, 62, 95
3, 44160, Note_on_c, 2, 59, 95
3, 44160, Note_on_c, 2, 54, 95
3, 44160, Note_on_c, 2, 47, 95
3, 44160, Note_on_c, 2, 42, 95
3, 44400, Note_off_c, 2, 66, 80
3, 44400, Note_off_c, 2, 62, 80
3, 44400, Note_off_c, 2, 59, 80
3, 44400, Note_off_c, 2, 54, 80
3, 44400, Note_off_c, 2, 47, 80
3, 44400, Note_off_c, 2, 42, 80
3, 44400, Note_on_c, 2, 59, 95
3, 44400, Note_on_c, 2, 54, 95
3, 44400, Note_on_c, 2, 47, 95
3, 44400, Note_on_c, 2, 42, 95
3, 44640, Note_off_c, 2, 59, 80
3, 44640, Note_off_c, 2, 54, 80
3, 44640, Note_off_c, 2, 47, 80
3, 44640, Note_off_c, 2, 42, 80
3, 44640, Note_on_c, 2, 66, 95
3, 44640, Note_on_c, 2, 62, 95
3, 44640, Note_on_c, 2, 59, 95
3, 44640, Note_on_c, 2, 54, 95
3, 44640, Note_on_c, 2, 47, 95
3, 44640, Note_on_c, 2, 42, 95
3, 44880, Note_off_c, 2, 66, 80
3, 44880, Note_off_c, 2, 62, 80
3, 44880, Note_off_c, 2, 59, 80
3, 44880, Note_off_c, 2, 54, 80
3, 44880, Note_off_c, 2, 47, 80
3, 44880, Note_off_c, 2, 42, 80
3, 44880, Note_on_c, 2, 64, 95
3, 44880, Note_on_c, 2, 60, 95
3, 44880, Note_on_c, 2, 55, 95
3, 44880, Note_on_c, 2, 52, 95
3, 44880, Note_on_c, 2, 48, 95
3, 44880, Note_on_c, 2, 43, 95
3, 45000, Note_off_c, 2, 64, 80
3, 45000, Note_off_c, 2, 60, 80
3, 45000, Note_off_c, 2, 55, 80
3, 45000, Note_off_c, 2, 52, 80
3, 45000, Note_off_c, 2, 48, 80
3, 45000, Note_off_c, 2, 43, 80
3, 45000, Note_on_c, 2, 64, 95
3, 45000, Note_on_c, 2, 60, 95
3, 45000, Note_on_c, 2, 55, 95
3, 45000, Note_on_c, 2, 52, 95
3, 45000, Note_on_c, 2, 48, 95
3, 45000, Note_on_c, 2, 43, 95
3, 45120, Note_off_c, 2, 64, 80
3, 45120, Note_off_c, 2, 60, 80
3, 45120, Note_off_c, 2, 55, 80
3, 45120, Note_off_c, 2, 52, 80
3, 45120, Note_off_c, 2, 48, 80
3, 45120, Note_off_c, 2, 43, 80
3, 45120, Note_on_c, 2, 64, 95
3, 45120, Note_on_c, 2, 60, 95
3, 45120, Note_on_c, 2, 55, 95
3, 45120, Note_on_c, 2, 52, 95
3, 45120, Note_on_c, 2, 48, 95
3, 45120, Note_on_c, 2, 43, 95
3, 45360, Note_off_c, 2, 64, 80
3, 45360, Note_off_c, 2, 60, 80
3, 45360, Note_off_c, 2, 55, 80
3, 45360, Note_off_c, 2, 52, 80
3, 45360, Note_off_c, 2, 48, 80
3, 45360, Note_off_c, 2, 43, 80
3, 45360, Note_on_c, 2, 64, 95
3, 45360, Note_on_c, 2, 60, 95
3, 45360, Note_on_c, 2, 55, 95
3, 45360, Note_on_c, 2, 52, 95
3, 45360, Note_on_c, 2, 48, 95
3, 45360, Note_on_c, 2, 43, 95
3, 45480, Note_off_c, 2, 64, 80
3, 45480, Note_off_c, 2, 60, 80
3, 45480, Note_off_c, 2, 55, 80
3, 45480, Note_off_c, 2, 52, 80
3, 45480, Note_off_c, 2, 48, 80
3, 45480, Note_off_c, 2, 43, 80
3, 45480, Note_on_c, 2, 64, 95
3, 45480, Note_on_c, 2, 60, 95
3, 45480, Note_on_c, 2, 55, 95
3, 45480, Note_on_c, 2, 52, 95
3, 45480, Note_on_c, 2, 48, 95
3, 45480, Note_on_c, 2, 43, 95
3, 45600, Note_off_c, 2, 64, 80
3, 45600, Note_off_c, 2, 60, 80
3, 45600, Note_off_c, 2, 55, 80
3, 45600, Note_off_c, 2, 52, 80
3, 45600, Note_off_c, 2, 48, 80
3, 45600, Note_off_c, 2, 43, 80
3, 45600, Note_on_c, 2, 64, 95
3, 45600, Note_on_c, 2, 60, 95
3, 45600, Note_on_c, 2, 55, 95
3, 45600, Note_on_c, 2, 52, 95
3, 45600, Note_on_c, 2, 48, 95
3, 45600, Note_on_c, 2, 43, 95
3, 45840, Note_off_c, 2, 64, 80
3, 45840, Note_off_c, 2, 60, 80
3, 45840, Note_off_c, 2, 55, 80
3, 45840, Note_off_c, 2, 52, 80
3, 45840, Note_off_c, 2, 48, 80
3, 45840, Note_off_c, 2, 43, 80
3, 45840, Note_on_c, 2, 64, 95
3, 45840, Note_on_c, 2, 60, 95
3, 45840, Note_on_c, 2, 55, 95
3, 45840, Note_on_c, 2, 52, 95
3, 45840, Note_on_c, 2, 48, 95
3, 45840, Note_on_c, 2, 43, 95
3, 45960, Note_off_c, 2, 64, 80
3, 45960, Note_off_c, 2, 60, 80
3, 45960, Note_off_c, 2, 55, 80
3, 45960, Note_off_c, 2, 52, 80
3, 45960, Note_off_c, 2, 48, 80
3, 45960, Note_off_c, 2, 43, 80
3, 45960, Note_on_c, 2, 64, 95
3, 45960, Note_on_c, 2, 60, 95
3, 45960, Note_on_c, 2, 55, 95
3, 45960, Note_on_c, 2, 52, 95
3, 45960, Note_on_c, 2, 48, 95
3, 45960, Note_on_c, 2, 43, 95
3, 46080, Note_off_c, 2, 64, 80
3, 46080, Note_off_c, 2, 60, 80
3, 46080, Note_off_c, 2, 55, 80
3, 46080, Note_off_c, 2, 52, 80
3, 46080, Note_off_c, 2, 48, 80
3, 46080, Note_off_c, 2, 43, 80
3, 46080, Note_on_c, 2, 64, 95
3, 46080, Note_on_c, 2, 59, 95
3, 46080, Note_on_c, 2, 55, 95
3, 46080, Note_on_c, 2, 52, 95
3, 46080, Note_on_c, 2, 47, 95
3, 46080, Note_on_c, 2, 40, 95
3, 46560, Note_off_c, 2, 64, 80
3, 46560, Note_off_c, 2, 59, 80
3, 46560, Note_off_c, 2, 55, 80
3, 46560, Note_off_c, 2, 52, 80
3, 46560, Note_off_c, 2, 47, 80
3, 46560, Note_off_c, 2, 40, 80
3, 46560, Note_on_c, 2, 64, 95
3, 46560, Note_on_c, 2, 59, 95
3, 46560, Note_on_c, 2, 55, 95
3, 46560, Note_on_c, 2, 52, 95
3, 46560, Note_on_c, 2, 47, 95
3, 46560, Note_on_c, 2, 40, 95
3, 47040, Note_off_c, 2, 64, 80
3, 47040, Note_off_c, 2, 59, 80
3, 47040, Note_off_c, 2, 55, 80
3, 47040, Note_off_c, 2, 52, 80
3, 47040, Note_off_c, 2, 47, 80
3, 47040, Note_off_c, 2, 40, 80
3, 47040, Note_on_c, 2, 66, 95
3, 47040, Note_on_c, 2, 62, 95
3, 47040, Note_on_c, 2, 57, 95
3, 47040, Note_on_c, 2, 50, 95
3, 47520, Note_off_c, 2, 66, 80
3, 47520, Note_off_c, 2, 62, 80
3, 47520, Note_off_c, 2, 57, 80
3, 47520, Note_off_c, 2, 50, 80
3, 47520, Note_on_c, 2, 66, 95
3, 47520, Note_on_c, 2, 62, 95
3, 47520, Note_on_c, 2, 57, 95
3, 47520, Note_on_c, 2, 50, 95
3, 47640, Note_off_c, 2, 66, 80
3, 47640, Note_off_c, 2, 62, 80
3, 47640, Note_off_c, 2, 57, 80
3, 47640, Note_off_c, 2, 50, 80
3, 47640, Note_on_c, 2, 66, 95
3, 47640, Note_on_c, 2, 62, 95
3, 47640, Note_on_c, 2, 57, 95
3, 47640, Note_on_c, 2, 50, 95
3, 47760, Note_off_c, 2, 66, 80
3, 47760, Note_off_c, 2, 62, 80
3, 47760, Note_off_c, 2, 57, 80
3, 47760, Note_off_c, 2, 50, 80
3, 47760, Note_on_c, 2, 66, 95
3, 47760, Note_on_c, 2, 62, 95
3, 47760, Note_on_c, 2, 57, 95
3, 47760, Note_on_c, 2, 50, 95
3, 47880, Note_off_c, 2, 66, 80
3, 47880, Note_off_c, 2, 62, 80
3, 47880, Note_off_c, 2, 57, 80
3, 47880, Note_off_c, 2, 50, 80
3, 47880, Note_on_c, 2, 66, 95
3, 47880, Note_on_c, 2, 62, 95
3, 47880, Note_on_c, 2, 57, 95
3, 47880, Note_on_c, 2, 50, 95
3, 48000, Note_off_c, 2, 66, 80
3, 48000, Note_off_c, 2, 62, 80
3, 48000, Note_off_c, 2, 57, 80
3, 48000, Note_off_c, 2, 50, 80
3, 48000, Note_on_c, 2, 64, 95
3, 48000, Note_on_c, 2, 59, 95
3, 48000, Note_on_c, 2, 55, 95
3, 48000, Note_on_c, 2, 52, 95
3, 48000, Note_on_c, 2, 47, 95
3, 48000, Note_on_c, 2, 40, 95
3, 48480, Note_off_c, 2, 64, 80
3, 48480, Note_off_c, 2, 59, 80
3, 48480, Note_off_c, 2, 55, 80
3, 48480, Note_off_c, 2, 52, 80
3, 48480, Note_off_c, 2, 47, 80
3, 48480, Note_off_c, 2, 40, 80
3, 48480, Note_on_c, 2, 64, 95
3, 48480, Note_on_c, 2, 59, 95
3, 48480, Note_on_c, 2, 55, 95
3, 48480, Note_on_c, 2, 52, 95
3, 48480, Note_on_c, 2, 47, 95
3, 48480, Note_on_c, 2, 40, 95
3, 48960, Note_off_c, 2, 64, 80
3, 48960, Note_off_c, 2, 59, 80
3, 48960, Note_off_c, 2, 55, 80
3, 48960, Note_off_c, 2, 52, 80
3, 48960, Note_off_c, 2, 47, 80
3, 48960, Note_off_c, 2, 40, 80
3, 48960, Note_on_c, 2, 66, 95
3, 48960, Note_on_c, 2, 62, 95
3, 48960, Note_on_c, 2, 57, 95
3, 48960, Note_on_c, 2, 50, 95
3, 49440, Note_off_c, 2, 66, 80
3, 49440, Note_off_c, 2, 62, 80
3, 49440, Note_off_c, 2, 57, 80
3, 49440, Note_off_c, 2, 50, 80
3, 49440, Note_on_c, 2, 66, 95
3, 49440, Note_on_c, 2, 62, 95
3, 49440, Note_on_c, 2, 57, 95
3, 49440, Note_on_c, 2, 50, 95
3, 49560, Note_off_c, 2, 66, 80
3, 49560, Note_off_c, 2, 62, 80
3, 49560, Note_off_c, 2, 57, 80
3, 49560, Note_off_c, 2, 50, 80
3, 49560, Note_on_c, 2, 66, 95
3, 49560, Note_on_c, 2, 62, 95
3, 49560, Note_on_c, 2, 57, 95
3, 49560, Note_on_c, 2, 50, 95
3, 49680, Note_off_c, 2, 66, 80
3, 49680, Note_off_c, 2, 62, 80
3, 49680, Note_off_c, 2, 57, 80
3, 49680, Note_off_c, 2, 50, 80
3, 49680, Note_on_c, 2, 66, 95
3, 49680, Note_on_c, 2, 62, 95
3, 49680, Note_on_c, 2, 57, 95
3, 49680, Note_on_c, 2, 50, 95
3, 49800, Note_off_c, 2, 66, 80
3, 49800, Note_off_c, 2, 62, 80
3, 49800, Note_off_c, 2, 57, 80
3, 49800, Note_off_c, 2, 50, 80
3, 49800, Note_on_c, 2, 66, 95
3, 49800, Note_on_c, 2, 62, 95
3, 49800, Note_on_c, 2, 57, 95
3, 49800, Note_on_c, 2, 50, 95
3, 49920, Note_off_c, 2, 66, 80
3, 49920, Note_off_c, 2, 62, 80
3, 49920, Note_off_c, 2, 57, 80
3, 49920, Note_off_c, 2, 50, 80
3, 49920, Note_on_c, 2, 64, 95
3, 49920, Note_on_c, 2, 59, 95
3, 49920, Note_on_c, 2, 55, 95
3, 49920, Note_on_c, 2, 52, 95
3, 49920, Note_on_c, 2, 47, 95
3, 49920, Note_on_c, 2, 40, 95
3, 50400, Note_off_c, 2, 64, 80
3, 50400, Note_off_c, 2, 59, 80
3, 50400, Note_off_c, 2, 55, 80
3, 50400, Note_off_c, 2, 52, 80
3, 50400, Note_off_c, 2, 47, 80
3, 50400, Note_off_c, 2, 40, 80
3, 50400, Note_on_c, 2, 64, 95
3, 50400, Note_on_c, 2, 59, 95
3, 50400, Note_on_c, 2, 55, 95
3, 50400, Note_on_c, 2, 52, 95
3, 50400, Note_on_c, 2, 47, 95
3, 50400, Note_on_c, 2, 40, 95
3, 50880, Note_off_c, 2, 64, 80
3, 50880, Note_off_c, 2, 59, 80
3, 50880, Note_off_c, 2, 55, 80
3, 50880, Note_off_c, 2, 52, 80
3, 50880, Note_off_c, 2, 47, 80
3, 50880, Note_off_c, 2, 40, 80
3, 50880, Note_on_c, 2, 66, 95
3, 50880, Note_on_c, 2, 62, 95
3, 50880, Note_on_c, 2, 57, 95
3, 50880, Note_on_c, 2, 50, 95
3, 51360, Note_off_c, 2, 66, 80
3, 51360, Note_off_c, 2, 62, 80
3, 51360, Note_off_c, 2, 57, 80
3, 51360, Note_off_c, 2, 50, 80
3, 51360, Note_on_c, 2, 66, 95
3, 51360, Note_on_c, 2, 62, 95
3, 51360, Note_on_c, 2, 57, 95
3, 51360, Note_on_c, 2, 50, 95
3, 51480, Note_off_c, 2, 66, 80
3, 51480, Note_off_c, 2, 62, 80
3, 51480, Note_off_c, 2, 57, 80
3, 51480, Note_off_c, 2, 50, 80
3, 51480, Note_on_c, 2, 66, 95
3, 51480, Note_on_c, 2, 62, 95
3, 51480, Note_on_c, 2, 57, 95
3, 51480, Note_on_c, 2, 50, 95
3, 51600, Note_off_c, 2, 66, 80
3, 51600, Note_off_c, 2, 62, 80
3, 51600, Note_off_c, 2, 57, 80
3, 51600, Note_off_c, 2, 50, 80
3, 51600, Note_on_c, 2, 66, 95
3, 51600, Note_on_c, 2, 62, 95
3, 51600, Note_on_c, 2, 57, 95
3, 51600, Note_on_c, 2, 50, 95
3, 51720, Note_off_c, 2, 66, 80
3, 51720, Note_off_c, 2, 62, 80
3, 51720, Note_off_c, 2, 57, 80
3, 51720, Note_off_c, 2, 50, 80
3, 51720, Note_on_c, 2, 66, 95
3, 51720, Note_on_c, 2, 62, 95
3, 51720, Note_on_c, 2, 57, 95
3, 51720, Note_on_c, 2, 50, 95
3, 51840, Note_off_c, 2, 66, 80
3, 51840, Note_off_c, 2, 62, 80
3, 51840, Note_off_c, 2, 57, 80
3, 51840, Note_off_c, 2, 50, 80
3, 51840, Note_on_c, 2, 64, 95
3, 51840, Note_on_c, 2, 60, 95
3, 51840, Note_on_c, 2, 55, 95
3, 51840, Note_on_c, 2, 52, 95
3, 51840, Note_on_c, 2, 48, 95
3, 52320, Note_off_c, 2, 64, 80
3, 52320, Note_off_c, 2, 60, 80
3, 52320, Note_off_c, 2, 55, 80
3, 52320, Note_off_c, 2, 52, 80
3, 52320, Note_off_c, 2, 48, 80
3, 52320, Note_on_c, 2, 64, 95
3, 52320, Note_on_c, 2, 60, 95
3, 52320, Note_on_c, 2, 55, 95
3, 52320, Note_on_c, 2, 52, 95
3, 52320, Note_on_c, 2, 48, 95
3, 52800, Note_off_c, 2, 64, 80
3, 52800, Note_off_c, 2, 60, 80
3, 52800, Note_off_c, 2, 55, 80
3, 52800, Note_off_c, 2, 52, 80
3, 52800, Note_off_c, 2, 48, 80
3, 52800, Note_on_c, 2, 64, 95
3, 52800, Note_on_c, 2, 60, 95
3, 52800, Note_on_c, 2, 55, 95
3, 52800, Note_on_c, 2, 52, 95
3, 52800, Note_on_c, 2, 48, 95
3, 53280, Note_off_c, 2, 64, 80
3, 53280, Note_off_c, 2, 60, 80
3, 53280, Note_off_c, 2, 55, 80
3, 53280, Note_off_c, 2, 52, 80
3, 53280, Note_off_c, 2, 48, 80
3, 53280, Note_on_c, 2, 64, 95
3, 53280, Note_on_c, 2, 59, 95
3, 53280, Note_on_c, 2, 55, 95
3, 53280, Note_on_c, 2, 52, 95
3, 53280, Note_on_c, 2, 47, 95
3, 53280, Note_on_c, 2, 40, 95
3, 53400, Note_off_c, 2, 64, 80
3, 53400, Note_off_c, 2, 59, 80
3, 53400, Note_off_c, 2, 55, 80
3, 53400, Note_off_c, 2, 52, 80
3, 53400, Note_off_c, 2, 47, 80
3, 53400, Note_off_c, 2, 40, 80
3, 53400, Note_on_c, 2, 64, 95
3, 53400, Note_on_c, 2, 59, 95
3, 53400, Note_on_c, 2, 55, 95
3, 53400, Note_on_c, 2, 52, 95
3, 53400, Note_on_c, 2, 47, 95
3, 53400, Note_on_c, 2, 40, 95
3, 53760, Note_off_c, 2, 64, 80
3, 53760, Note_off_c, 2, 59, 80
3, 53760, Note_off_c, 2, 55, 80
3, 53760, Note_off_c, 2, 52, 80
3, 53760, Note_off_c, 2, 47, 80
3, 53760, Note_off_c, 2, 40, 80
3, 53760, Note_on_c, 2, 64, 95
3, 53760, Note_on_c, 2, 60, 95
3, 53760, Note_on_c, 2, 55, 95
3, 53760, Note_on_c, 2, 52, 95
3, 53760, Note_on_c, 2, 48, 95
3, 54240, Note_off_c, 2, 64, 80
3, 54240, Note_off_c, 2, 60, 80
3, 54240, Note_off_c, 2, 55, 80
3, 54240, Note_off_c, 2, 52, 80
3, 54240, Note_off_c, 2, 48, 80
3, 54240, Note_on_c, 2, 64, 95
3, 54240, Note_on_c, 2, 60, 95
3, 54240, Note_on_c, 2, 55, 95
3, 54240, Note_on_c, 2, 52, 95
3, 54240, Note_on_c, 2, 48, 95
3, 54720, Note_off_c, 2, 64, 80
3, 54720, Note_off_c, 2, 60, 80
3, 54720, Note_off_c, 2, 55, 80
3, 54720, Note_off_c, 2, 52, 80
3, 54720, Note_off_c, 2, 48, 80
3, 54720, Note_on_c, 2, 64, 95
3, 54720, Note_on_c, 2, 60, 95
3, 54720, Note_on_c, 2, 55, 95
3, 54720, Note_on_c, 2, 52, 95
3, 54720, Note_on_c, 2, 48, 95
3, 55200, Note_off_c, 2, 64, 80
3, 55200, Note_off_c, 2, 60, 80
3, 55200, Note_off_c, 2, 55, 80
3, 55200, Note_off_c, 2, 52, 80
3, 55200, Note_off_c, 2, 48, 80
3, 55200, Note_on_c, 2, 64, 95
3, 55200, Note_on_c, 2, 60, 95
3, 55200, Note_on_c, 2, 55, 95
3, 55200, Note_on_c, 2, 52, 95
3, 55200, Note_on_c, 2, 48, 95
3, 55440, Note_off_c, 2, 64, 80
3, 55440, Note_off_c, 2, 60, 80
3, 55440, Note_off_c, 2, 55, 80
3, 55440, Note_off_c, 2, 52, 80
3, 55440, Note_off_c, 2, 48, 80
3, 55440, Note_on_c, 2, 64, 95
3, 55440, Note_on_c, 2, 60, 95
3, 55440, Note_on_c, 2, 55, 95
3, 55440, Note_on_c, 2, 52, 95
3, 55440, Note_on_c, 2, 48, 95
3, 55680, Note_off_c, 2, 64, 80
3, 55680, Note_off_c, 2, 60, 80
3, 55680, Note_off_c, 2, 55, 80
3, 55680, Note_off_c, 2, 52, 80
3, 55680, Note_off_c, 2, 48, 80
3, 55680, Note_on_c, 2, 67, 95
3, 55680, Note_on_c, 2, 62, 95
3, 55680, Note_on_c, 2, 59, 95
3, 55680, Note_on_c, 2, 55, 95
3, 55680, Note_on_c, 2, 50, 95
3, 55680, Note_on_c, 2, 43, 95
3, 55920, Note_off_c, 2, 67, 80
3, 55920, Note_off_c, 2, 62, 80
3, 55920, Note_off_c, 2, 59, 80
3, 55920, Note_off_c, 2, 55, 80
3, 55920, Note_off_c, 2, 50, 80
3, 55920, Note_off_c, 2, 43, 80
3, 55920, Note_on_c, 2, 59, 95
3, 55920, Note_on_c, 2, 55, 95
3, 55920, Note_on_c, 2, 50, 95
3, 55920, Note_on_c, 2, 43, 95
3, 56160, Note_off_c, 2, 59, 80
3, 56160, Note_off_c, 2, 55, 80
3, 56160, Note_off_c, 2, 50, 80
3, 56160, Note_off_c, 2, 43, 80
3, 56160, Note_on_c, 2, 67, 95
3, 56160, Note_on_c, 2, 62, 95
3, 56160, Note_on_c, 2, 59, 95
3, 56160, Note_on_c, 2, 55, 95
3, 56160, Note_on_c, 2, 50, 95
3, 56160, Note_on_c, 2, 43, 95
3, 56400, Note_off_c, 2, 67, 80
3, 56400, Note_off_c, 2, 62, 80
3, 56400, Note_off_c, 2, 59, 80
3, 56400, Note_off_c, 2, 55, 80
3, 56400, Note_off_c, 2, 50, 80
3, 56400, Note_off_c, 2, 43, 80
3, 56400, Note_on_c, 2, 59, 95
3, 56400, Note_on_c, 2, 54, 95
3, 56400, Note_on_c, 2, 50, 95
3, 56520, Note_off_c, 2, 59, 80
3, 56520, Note_off_c, 2, 54, 80
3, 56520, Note_off_c, 2, 50, 80
3, 56520, Note_on_c, 2, 59, 95
3, 56520, Note_on_c, 2, 54, 95
3, 56520, Note_on_c, 2, 50, 95
3, 56640, Note_off_c, 2, 59, 80
3, 56640, Note_off_c, 2, 54, 80
3, 56640, Note_off_c, 2, 50, 80
3, 56640, Note_on_c, 2, 67, 95
3, 56640, Note_on_c, 2, 62, 95
3, 56640, Note_on_c, 2, 59, 95
3, 56640, Note_on_c, 2, 54, 95
3, 56640, Note_on_c, 2, 50, 95
3, 56640, Note_on_c, 2, 43, 95
3, 56880, Note_off_c, 2, 67, 80
3, 56880, Note_off_c, 2, 62, 80
3, 56880, Note_off_c, 2, 59, 80
3, 56880, Note_off_c, 2, 54, 80
3, 56880, Note_off_c, 2, 50, 80
3, 56880, Note_off_c, 2, 43, 80
3, 56880, Note_on_c, 2, 62, 95
3, 56880, Note_on_c, 2, 59, 95
3, 56880, Note_on_c, 2, 54, 95
3, 56880, Note_on_c, 2, 50, 95
3, 56880, Note_on_c, 2, 43, 95
3, 57120, Note_off_c, 2, 62, 80
3, 57120, Note_off_c, 2, 59, 80
3, 57120, Note_off_c, 2, 54, 80
3, 57120, Note_off_c, 2, 50, 80
3, 57120, Note_off_c, 2, 43, 80
3, 57120, Note_on_c, 2, 67, 95
3, 57120, Note_on_c, 2, 62, 95
3, 57120, Note_on_c, 2, 59, 95
3, 57120, Note_on_c, 2, 54, 95
3, 57120, Note_on_c, 2, 50, 95
3, 57120, Note_on_c, 2, 43, 95
3, 57360, Note_off_c, 2, 67, 80
3, 57360, Note_off_c, 2, 62, 80
3, 57360, Note_off_c, 2, 59, 80
3, 57360, Note_off_c, 2, 54, 80
3, 57360, Note_off_c, 2, 50, 80
3, 57360, Note_off_c, 2, 43, 80
3, 57360, Note_on_c, 2, 59, 95
3, 57360, Note_on_c, 2, 54, 95
3, 57360, Note_on_c, 2, 50, 95
3, 57360, Note_on_c, 2, 43, 95
3, 57480, Note_off_c, 2, 59, 80
3, 57480, Note_off_c, 2, 54, 80
3, 57480, Note_off_c, 2, 50, 80
3, 57480, Note_off_c, 2, 43, 80
3, 57480, Note_on_c, 2, 55, 95
3, 57480, Note_on_c, 2, 50, 95
3, 57480, Note_on_c, 2, 45, 95
3, 57600, Note_off_c, 2, 55, 80
3, 57600, Note_off_c, 2, 50, 80
3, 57600, Note_off_c, 2, 45, 80
3, 57600, Note_on_c, 2, 64, 95
3, 57600, Note_on_c, 2, 59, 95
3, 57600, Note_on_c, 2, 55, 95
3, 57600, Note_on_c, 2, 52, 95
3, 57600, Note_on_c, 2, 47, 95
3, 57600, Note_on_c, 2, 40, 95
3, 57840, Note_off_c, 2, 64, 80
3, 57840, Note_off_c, 2, 59, 80
3, 57840, Note_off_c, 2, 55, 80
3, 57840, Note_off_c, 2, 52, 80
3, 57840, Note_off_c, 2, 47, 80
3, 57840, Note_off_c, 2, 40, 80
3, 57840, Note_on_c, 2, 59, 95
3, 57840, Note_on_c, 2, 55, 95
3, 57840, Note_on_c, 2, 52, 95
3, 57840, Note_on_c, 2, 47, 95
3, 57840, Note_on_c, 2, 40, 95
3, 58080, Note_off_c, 2, 59, 80
3, 58080, Note_off_c, 2, 55, 80
3, 58080, Note_off_c, 2, 52, 80
3, 58080, Note_off_c, 2, 47, 80
3, 58080, Note_off_c, 2, 40, 80
3, 58080, Note_on_c, 2, 64, 95
3, 58080, Note_on_c, 2, 59, 95
3, 58080, Note_on_c, 2, 55, 95
3, 58080, Note_on_c, 2, 52, 95
3, 58080, Note_on_c, 2, 47, 95
3, 58080, Note_on_c, 2, 40, 95
3, 58320, Note_off_c, 2, 64, 80
3, 58320, Note_off_c, 2, 59, 80
3, 58320, Note_off_c, 2, 55, 80
3, 58320, Note_off_c, 2, 52, 80
3, 58320, Note_off_c, 2, 47, 80
3, 58320, Note_off_c, 2, 40, 80
3, 58320, Note_on_c, 2, 59, 95
3, 58320, Note_on_c, 2, 55, 95
3, 58320, Note_on_c, 2, 52, 95
3, 58320, Note_on_c, 2, 47, 95
3, 58440, Note_off_c, 2, 59, 80
3, 58440, Note_off_c, 2, 55, 80
3, 58440, Note_off_c, 2, 52, 80
3, 58440, Note_off_c, 2, 47, 80
3, 58440, Note_on_c, 2, 59, 95
3, 58440, Note_on_c, 2, 55, 95
3, 58440, Note_on_c, 2, 52, 95
3, 58440, Note_on_c, 2, 47, 95
3, 58560, Note_off_c, 2, 59, 80
3, 58560, Note_off_c, 2, 55, 80
3, 58560, Note_off_c, 2, 52, 80
3, 58560, Note_off_c, 2, 47, 80
3, 58560, Note_on_c, 2, 64, 95
3, 58560, Note_on_c, 2, 59, 95
3, 58560, Note_on_c, 2, 55, 95
3, 58560, Note_on_c, 2, 50, 95
3, 58560, Note_on_c, 2, 47, 95
3, 58560, Note_on_c, 2, 40, 95
3, 58800, Note_off_c, 2, 64, 80
3, 58800, Note_off_c, 2, 59, 80
3, 58800, Note_off_c, 2, 55, 80
3, 58800, Note_off_c, 2, 50, 80
3, 58800, Note_off_c, 2, 47, 80
3, 58800, Note_off_c, 2, 40, 80
3, 58800, Note_on_c, 2, 59, 95
3, 58800, Note_on_c, 2, 55, 95
3, 58800, Note_on_c, 2, 50, 95
3, 58800, Note_on_c, 2, 47, 95
3, 58800, Note_on_c, 2, 40, 95
3, 59040, Note_off_c, 2, 59, 80
3, 59040, Note_off_c, 2, 55, 80
3, 59040, Note_off_c, 2, 50, 80
3, 59040, Note_off_c, 2, 47, 80
3, 59040, Note_off_c, 2, 40, 80
3, 59040, Note_on_c, 2, 64, 95
3, 59040, Note_on_c, 2, 59, 95
3, 59040, Note_on_c, 2, 55, 95
3, 59040, Note_on_c, 2, 50, 95
3, 59040, Note_on_c, 2, 47, 95
3, 59040, Note_on_c, 2, 40, 95
3, 59280, Note_off_c, 2, 64, 80
3, 59280, Note_off_c, 2, 59, 80
3, 59280, Note_off_c, 2, 55, 80
3, 59280, Note_off_c, 2, 50, 80
3, 59280, Note_off_c, 2, 47, 80
3, 59280, Note_off_c, 2, 40, 80
3, 59280, Note_on_c, 2, 59, 95
3, 59280, Note_on_c, 2, 55, 95
3, 59280, Note_on_c, 2, 50, 95
3, 59400, Note_off_c, 2, 59, 80
3, 59400, Note_off_c, 2, 55, 80
3, 59400, Note_off_c, 2, 50, 80
3, 59400, Note_on_c, 2, 59, 95
3, 59400, Note_on_c, 2, 55, 95
3, 59400, Note_on_c, 2, 50, 95
3, 59520, Note_off_c, 2, 59, 80
3, 59520, Note_off_c, 2, 55, 80
3, 59520, Note_off_c, 2, 50, 80
3, 59520, Note_on_c, 2, 67, 95
3, 59520, Note_on_c, 2, 63, 95
3, 59520, Note_on_c, 2, 58, 95
3, 59520, Note_on_c, 2, 51, 95
3, 59520, Note_on_c, 2, 46, 95
3, 59760, Note_off_c, 2, 67, 80
3, 59760, Note_off_c, 2, 63, 80
3, 59760, Note_off_c, 2, 58, 80
3, 59760, Note_off_c, 2, 51, 80
3, 59760, Note_off_c, 2, 46, 80
3, 59760, Note_on_c, 2, 63, 95
3, 59760, Note_on_c, 2, 58, 95
3, 59760, Note_on_c, 2, 51, 95
3, 59760, Note_on_c, 2, 46, 95
3, 60000, Note_off_c, 2, 63, 80
3, 60000, Note_off_c, 2, 58, 80
3, 60000, Note_off_c, 2, 51, 80
3, 60000, Note_off_c, 2, 46, 80
3, 60000, Note_on_c, 2, 67, 95
3, 60000, Note_on_c, 2, 63, 95
3, 60000, Note_on_c, 2, 58, 95
3, 60000, Note_on_c, 2, 51, 95
3, 60000, Note_on_c, 2, 46, 95
3, 60240, Note_off_c, 2, 67, 80
3, 60240, Note_off_c, 2, 63, 80
3, 60240, Note_off_c, 2, 58, 80
3, 60240, Note_off_c, 2, 51, 80
3, 60240, Note_off_c, 2, 46, 80
3, 60240, Note_on_c, 2, 66, 95
3, 60240, Note_on_c, 2, 62, 95
3, 60240, Note_on_c, 2, 57, 95
3, 60360, Note_off_c, 2, 66, 80
3, 60360, Note_off_c, 2, 62, 80
3, 60360, Note_off_c, 2, 57, 80
3, 60360, Note_on_c, 2, 66, 95
3, 60360, Note_on_c, 2, 62, 95
3, 60360, Note_on_c, 2, 57, 95
3, 60480, Note_off_c, 2, 66, 80
3, 60480, Note_off_c, 2, 62, 80
3, 60480, Note_off_c, 2, 57, 80
3, 60480, Note_on_c, 2, 66, 95
3, 60480, Note_on_c, 2, 62, 95
3, 60480, Note_on_c, 2, 57, 95
3, 60480, Note_on_c, 2, 50, 95
3, 60480, Note_on_c, 2, 45, 95
3, 60720, Note_off_c, 2, 66, 80
3, 60720, Note_off_c, 2, 62, 80
3, 60720, Note_off_c, 2, 57, 80
3, 60720, Note_off_c, 2, 50, 80
3, 60720, Note_off_c, 2, 45, 80
3, 60720, Note_on_c, 2, 62, 95
3, 60720, Note_on_c, 2, 57, 95
3, 60720, Note_on_c, 2, 50, 95
3, 60720, Note_on_c, 2, 45, 95
3, 60960, Note_off_c, 2, 62, 80
3, 60960, Note_off_c, 2, 57, 80
3, 60960, Note_off_c, 2, 50, 80
3, 60960, Note_off_c, 2, 45, 80
3, 60960, Note_on_c, 2, 66, 95
3, 60960, Note_on_c, 2, 62, 95
3, 60960, Note_on_c, 2, 57, 95
3, 60960, Note_on_c, 2, 50, 95
3, 60960, Note_on_c, 2, 45, 95
3, 61200, Note_off_c, 2, 66, 80
3, 61200, Note_off_c, 2, 62, 80
3, 61200, Note_off_c, 2, 57, 80
3, 61200, Note_off_c, 2, 50, 80
3, 61200, Note_off_c, 2, 45, 80
3, 61200, Note_on_c, 2, 62, 95
3, 61200, Note_on_c, 2, 59, 95
3, 61200, Note_on_c, 2, 54, 95
3, 61320, Note_off_c, 2, 62, 80
3, 61320, Note_off_c, 2, 59, 80
3, 61320, Note_off_c, 2, 54, 80
3, 61320, Note_on_c, 2, 62, 95
3, 61320, Note_on_c, 2, 59, 95
3, 61320, Note_on_c, 2, 54, 95
3, 61440, Note_off_c, 2, 62, 80
3, 61440, Note_off_c, 2, 59, 80
3, 61440, Note_off_c, 2, 54, 80
3, 61440, Note_on_c, 2, 66, 95
3, 61440, Note_on_c, 2, 62, 95
3, 61440, Note_on_c, 2, 59, 95
3, 61440, Note_on_c, 2, 54, 95
3, 61440, Note_on_c, 2, 47, 95
3, 61440, Note_on_c, 2, 42, 95
3, 61680, Note_off_c, 2, 66, 80
3, 61680, Note_off_c, 2, 62, 80
3, 61680, Note_off_c, 2, 59, 80
3, 61680, Note_off_c, 2, 54, 80
3, 61680, Note_off_c, 2, 47, 80
3, 61680, Note_off_c, 2, 42, 80
3, 61680, Note_on_c, 2, 59, 95
3, 61680, Note_on_c, 2, 54, 95
3, 61680, Note_on_c, 2, 47, 95
3, 61680, Note_on_c, 2, 42, 95
3, 61920, Note_off_c, 2, 59, 80
3, 61920, Note_off_c, 2, 54, 80
3, 61920, Note_off_c, 2, 47, 80
3, 61920, Note_off_c, 2, 42, 80
3, 61920, Note_on_c, 2, 66, 95
3, 61920, Note_on_c, 2, 62, 95
3, 61920, Note_on_c, 2, 59, 95
3, 61920, Note_on_c, 2, 54, 95
3, 61920, Note_on_c, 2, 47, 95
3, 61920, Note_on_c, 2, 42, 95
3, 62160, Note_off_c, 2, 66, 80
3, 62160, Note_off_c, 2, 62, 80
3, 62160, Note_off_c, 2, 59, 80
3, 62160, Note_off_c, 2, 54, 80
3, 62160, Note_off_c, 2, 47, 80
3, 62160, Note_off_c, 2, 42, 80
3, 62160, Note_on_c, 2, 64, 95
3, 62160, Note_on_c, 2, 60, 95
3, 62160, Note_on_c, 2, 55, 95
3, 62160, Note_on_c, 2, 52, 95
3, 62160, Note_on_c, 2, 48, 95
3, 62160, Note_on_c, 2, 43, 95
3, 62280, Note_off_c, 2, 64, 80
3, 62280, Note_off_c, 2, 60, 80
3, 62280, Note_off_c, 2, 55, 80
3, 62280, Note_off_c, 2, 52, 80
3, 62280, Note_off_c, 2, 48, 80
3, 62280, Note_off_c, 2, 43, 80
3, 62280, Note_on_c, 2, 64, 95
3, 62280, Note_on_c, 2, 60, 95
3, 62280, Note_on_c, 2, 55, 95
3, 62280, Note_on_c, 2, 52, 95
3, 62280, Note_on_c, 2, 48, 95
3, 62280, Note_on_c, 2, 43, 95
3, 62400, Note_off_c, 2, 64, 80
3, 62400, Note_off_c, 2, 60, 80
3, 62400, Note_off_c, 2, 55, 80
3, 62400, Note_off_c, 2, 52, 80
3, 62400, Note_off_c, 2, 48, 80
3, 62400, Note_off_c, 2, 43, 80
3, 62400, Note_on_c, 2, 64, 95
3, 62400, Note_on_c, 2, 60, 95
3, 62400, Note_on_c, 2, 55, 95
3, 62400, Note_on_c, 2, 52, 95
3, 62400, Note_on_c, 2, 48, 95
3, 62400, Note_on_c, 2, 43, 95
3, 62640, Note_off_c, 2, 64, 80
3, 62640, Note_off_c, 2, 60, 80
3, 62640, Note_off_c, 2, 55, 80
3, 62640, Note_off_c, 2, 52, 80
3, 62640, Note_off_c, 2, 48, 80
3, 62640, Note_off_c, 2, 43, 80
3, 62640, Note_on_c, 2, 64, 95
3, 62640, Note_on_c, 2, 60, 95
3, 62640, Note_on_c, 2, 55, 95
3, 62640, Note_on_c, 2, 52, 95
3, 62640, Note_on_c, 2, 48, 95
3, 62640, Note_on_c, 2, 43, 95
3, 62760, Note_off_c, 2, 64, 80
3, 62760, Note_off_c, 2, 60, 80
3, 62760, Note_off_c, 2, 55, 80
3, 62760, Note_off_c, 2, 52, 80
3, 62760, Note_off_c, 2, 48, 80
3, 62760, Note_off_c, 2, 43, 80
3, 62760, Note_on_c, 2, 64, 95
3, 62760, Note_on_c, 2, 60, 95
3, 62760, Note_on_c, 2, 55, 95
3, 62760, Note_on_c, 2, 52, 95
3, 62760, Note_on_c, 2, 48, 95
3, 62760, Note_on_c, 2, 43, 95
3, 62880, Note_off_c, 2, 64, 80
3, 62880, Note_off_c, 2, 60, 80
3, 62880, Note_off_c, 2, 55, 80
3, 62880, Note_off_c, 2, 52, 80
3, 62880, Note_off_c, 2, 48, 80
3, 62880, Note_off_c, 2, 43, 80
3, 62880, Note_on_c, 2, 64, 95
3, 62880, Note_on_c, 2, 60, 95
3, 62880, Note_on_c, 2, 55, 95
3, 62880, Note_on_c, 2, 52, 95
3, 62880, Note_on_c, 2, 48, 95
3, 62880, Note_on_c, 2, 43, 95
3, 63120, Note_off_c, 2, 64, 80
3, 63120, Note_off_c, 2, 60, 80
3, 63120, Note_off_c, 2, 55, 80
3, 63120, Note_off_c, 2, 52, 80
3, 63120, Note_off_c, 2, 48, 80
3, 63120, Note_off_c, 2, 43, 80
3, 63120, Note_on_c, 2, 64, 95
3, 63120, Note_on_c, 2, 60, 95
3, 63120, Note_on_c, 2, 55, 95
3, 63120, Note_on_c, 2, 52, 95
3, 63120, Note_on_c, 2, 48, 95
3, 63120, Note_on_c, 2, 43, 95
3, 63240, Note_off_c, 2, 64, 80
3, 63240, Note_off_c, 2, 60, 80
3, 63240, Note_off_c, 2, 55, 80
3, 63240, Note_off_c, 2, 52, 80
3, 63240, Note_off_c, 2, 48, 80
3, 63240, Note_off_c, 2, 43, 80
3, 63240, Note_on_c, 2, 64, 95
3, 63240, Note_on_c, 2, 60, 95
3, 63240, Note_on_c, 2, 55, 95
3, 63240, Note_on_c, 2, 52, 95
3, 63240, Note_on_c, 2, 48, 95
3, 63240, Note_on_c, 2, 43, 95
3, 63360, Note_off_c, 2, 64, 80
3, 63360, Note_off_c, 2, 60, 80
3, 63360, Note_off_c, 2, 55, 80
3, 63360, Note_off_c, 2, 52, 80
3, 63360, Note_off_c, 2, 48, 80
3, 63360, Note_off_c, 2, 43, 80
3, 67680, Note_on_c, 2, 64, 95
3, 67680, Note_on_c, 2, 60, 95
3, 67680, Note_on_c, 2, 55, 95
3, 67680, Note_on_c, 2, 52, 95
3, 67680, Note_on_c, 2, 48, 95
3, 68160, Note_off_c, 2, 64, 80
3, 68160, Note_off_c, 2, 60, 80
3, 68160, Note_off_c, 2, 55, 80
3, 68160, Note_off_c, 2, 52, 80
3, 68160, Note_off_c, 2, 48, 80
3, 68160, Note_on_c, 2, 64, 95
3, 68160, Note_on_c, 2, 60, 95
3, 68160, Note_on_c, 2, 55, 95
3, 68160, Note_on_c, 2, 52, 95
3, 68160, Note_on_c, 2, 48, 95
3, 68640, Note_off_c, 2, 64, 80
3, 68640, Note_off_c, 2, 60, 80
3, 68640, Note_off_c, 2, 55, 80
3, 68640, Note_off_c, 2, 52, 80
3, 68640, Note_off_c, 2, 48, 80
3, 68640, Note_on_c, 2, 64, 95
3, 68640, Note_on_c, 2, 60, 95
3, 68640, Note_on_c, 2, 55, 95
3, 68640, Note_on_c, 2, 52, 95
3, 68640, Note_on_c, 2, 48, 95
3, 69120, Note_off_c, 2, 64, 80
3, 69120, Note_off_c, 2, 60, 80
3, 69120, Note_off_c, 2, 55, 80
3, 69120, Note_off_c, 2, 52, 80
3, 69120, Note_off_c, 2, 48, 80
3, 69120, Note_on_c, 2, 64, 95
3, 69120, Note_on_c, 2, 60, 95
3, 69120, Note_on_c, 2, 55, 95
3, 69120, Note_on_c, 2, 52, 95
3, 69120, Note_on_c, 2, 48, 95
3, 69360, Note_off_c, 2, 64, 80
3, 69360, Note_off_c, 2, 60, 80
3, 69360, Note_off_c, 2, 55, 80
3, 69360, Note_off_c, 2, 52, 80
3, 69360, Note_off_c, 2, 48, 80
3, 69360, Note_on_c, 2, 64, 95
3, 69360, Note_on_c, 2, 60, 95
3, 69360, Note_on_c, 2, 55, 95
3, 69360, Note_on_c, 2, 52, 95
3, 69360, Note_on_c, 2, 48, 95
3, 69600, Note_off_c, 2, 64, 80
3, 69600, Note_off_c, 2, 60, 80
3, 69600, Note_off_c, 2, 55, 80
3, 69600, Note_off_c, 2, 52, 80
3, 69600, Note_off_c, 2, 48, 80
3, 69600, Note_on_c, 2, 64, 95
3, 69600, Note_on_c, 2, 60, 95
3, 69600, Note_on_c, 2, 55, 95
3, 69600, Note_on_c, 2, 52, 95
3, 69600, Note_on_c, 2, 48, 95
3, 70080, Note_off_c, 2, 64, 80
3, 70080, Note_off_c, 2, 60, 80
3, 70080, Note_off_c, 2, 55, 80
3, 70080, Note_off_c, 2, 52, 80
3, 70080, Note_off_c, 2, 48, 80
3, 70080, Note_on_c, 2, 64, 95
3, 70080, Note_on_c, 2, 60, 95
3, 70080, Note_on_c, 2, 55, 95
3, 70080, Note_on_c, 2, 52, 95
3, 70080, Note_on_c, 2, 48, 95
3, 70560, Note_off_c, 2, 64, 80
3, 70560, Note_off_c, 2, 60, 80
3, 70560, Note_off_c, 2, 55, 80
3, 70560, Note_off_c, 2, 52, 80
3, 70560, Note_off_c, 2, 48, 80
3, 70560, Note_on_c, 2, 64, 95
3, 70560, Note_on_c, 2, 60, 95
3, 70560, Note_on_c, 2, 55, 95
3, 70560, Note_on_c, 2, 52, 95
3, 70560, Note_on_c, 2, 48, 95
3, 71040, Note_off_c, 2, 64, 80
3, 71040, Note_off_c, 2, 60, 80
3, 71040, Note_off_c, 2, 55, 80
3, 71040, Note_off_c, 2, 52, 80
3, 71040, Note_off_c, 2, 48, 80
3, 71040, Note_on_c, 2, 64, 95
3, 71040, Note_on_c, 2, 60, 95
3, 71040, Note_on_c, 2, 55, 95
3, 71040, Note_on_c, 2, 52, 95
3, 71040, Note_on_c, 2, 48, 95
3, 71280, Note_off_c, 2, 64, 80
3, 71280, Note_off_c, 2, 60, 80
3, 71280, Note_off_c, 2, 55, 80
3, 71280, Note_off_c, 2, 52, 80
3, 71280, Note_off_c, 2, 48, 80
3, 71280, Note_on_c, 2, 64, 95
3, 71280, Note_on_c, 2, 60, 95
3, 71280, Note_on_c, 2, 55, 95
3, 71280, Note_on_c, 2, 52, 95
3, 71280, Note_on_c, 2, 48, 95
3, 71520, Note_off_c, 2, 64, 80
3, 71520, Note_off_c, 2, 60, 80
3, 71520, Note_off_c, 2, 55, 80
3, 71520, Note_off_c, 2, 52, 80
3, 71520, Note_off_c, 2, 48, 80
3, 71520, Note_on_c, 2, 64, 95
3, 71520, Note_on_c, 2, 59, 95
3, 71520, Note_on_c, 2, 55, 95
3, 71520, Note_on_c, 2, 52, 95
3, 71520, Note_on_c, 2, 47, 95
3, 71520, Note_on_c, 2, 40, 95
3, 72000, Note_off_c, 2, 64, 80
3, 72000, Note_off_c, 2, 59, 80
3, 72000, Note_off_c, 2, 55, 80
3, 72000, Note_off_c, 2, 52, 80
3, 72000, Note_off_c, 2, 47, 80
3, 72000, Note_off_c, 2, 40, 80
3, 72000, Note_on_c, 2, 64, 95
3, 72000, Note_on_c, 2, 59, 95
3, 72000, Note_on_c, 2, 55, 95
3, 72000, Note_on_c, 2, 52, 95
3, 72000, Note_on_c, 2, 47, 95
3, 72000, Note_on_c, 2, 40, 95
3, 72480, Note_off_c, 2, 64, 80
3, 72480, Note_off_c, 2, 59, 80
3, 72480, Note_off_c, 2, 55, 80
3, 72480, Note_off_c, 2, 52, 80
3, 72480, Note_off_c, 2, 47, 80
3, 72480, Note_off_c, 2, 40, 80
3, 72480, Note_on_c, 2, 66, 95
3, 72480, Note_on_c, 2, 62, 95
3, 72480, Note_on_c, 2, 57, 95
3, 72480, Note_on_c, 2, 50, 95
3, 72960, Note_off_c, 2, 66, 80
3, 72960, Note_off_c, 2, 62, 80
3, 72960, Note_off_c, 2, 57, 80
3, 72960, Note_off_c, 2, 50, 80
3, 72960, Note_on_c, 2, 66, 95
3, 72960, Note_on_c, 2, 62, 95
3, 72960, Note_on_c, 2, 57, 95
3, 72960, Note_on_c, 2, 50, 95
3, 73080, Note_off_c, 2, 66, 80
3, 73080, Note_off_c, 2, 62, 80
3, 73080, Note_off_c, 2, 57, 80
3, 73080, Note_off_c, 2, 50, 80
3, 73080, Note_on_c, 2, 66, 95
3, 73080, Note_on_c, 2, 62, 95
3, 73080, Note_on_c, 2, 57, 95
3, 73080, Note_on_c, 2, 50, 95
3, 73200, Note_off_c, 2, 66, 80
3, 73200, Note_off_c, 2, 62, 80
3, 73200, Note_off_c, 2, 57, 80
3, 73200, Note_off_c, 2, 50, 80
3, 73200, Note_on_c, 2, 66, 95
3, 73200, Note_on_c, 2, 62, 95
3, 73200, Note_on_c, 2, 57, 95
3, 73200, Note_on_c, 2, 50, 95
3, 73320, Note_off_c, 2, 66, 80
3, 73320, Note_off_c, 2, 62, 80
3, 73320, Note_off_c, 2, 57, 80
3, 73320, Note_off_c, 2, 50, 80
3, 73320, Note_on_c, 2, 66, 95
3, 73320, Note_on_c, 2, 62, 95
3, 73320, Note_on_c, 2, 57, 95
3, 73320, Note_on_c, 2, 50, 95
3, 73440, Note_off_c, 2, 66, 80
3, 73440, Note_off_c, 2, 62, 80
3, 73440, Note_off_c, 2, 57, 80
3, 73440, Note_off_c, 2, 50, 80
3, 73440, Note_on_c, 2, 64, 95
3, 73440, Note_on_c, 2, 59, 95
3, 73440, Note_on_c, 2, 55, 95
3, 73440, Note_on_c, 2, 52, 95
3, 73440, Note_on_c, 2, 47, 95
3, 73440, Note_on_c, 2, 40, 95
3, 73920, Note_off_c, 2, 64, 80
3, 73920, Note_off_c, 2, 59, 80
3, 73920, Note_off_c, 2, 55, 80
3, 73920, Note_off_c, 2, 52, 80
3, 73920, Note_off_c, 2, 47, 80
3, 73920, Note_off_c, 2, 40, 80
3, 73920, Note_on_c, 2, 64, 95
3, 73920, Note_on_c, 2, 59, 95
3, 73920, Note_on_c, 2, 55, 95
3, 73920, Note_on_c, 2, 52, 95
3, 73920, Note_on_c, 2, 47, 95
3, 73920, Note_on_c, 2, 40, 95
3, 74400, Note_off_c, 2, 64, 80
3, 74400, Note_off_c, 2, 59, 80
3, 74400, Note_off_c, 2, 55, 80
3, 74400, Note_off_c, 2, 52, 80
3, 74400, Note_off_c, 2, 47, 80
3, 74400, Note_off_c, 2, 40, 80
3, 74400, Note_on_c, 2, 66, 95
3, 74400, Note_on_c, 2, 62, 95
3, 74400, Note_on_c, 2, 57, 95
3, 74400, Note_on_c, 2, 50, 95
3, 74880, Note_off_c, 2, 66, 80
3, 74880, Note_off_c, 2, 62, 80
3, 74880, Note_off_c, 2, 57, 80
3, 74880, Note_off_c, 2, 50, 80
3, 74880, Note_on_c, 2, 66, 95
3, 74880, Note_on_c, 2, 62, 95
3, 74880, Note_on_c, 2, 57, 95
3, 74880, Note_on_c, 2, 50, 95
3, 75000, Note_off_c, 2, 66, 80
3, 75000, Note_off_c, 2, 62, 80
3, 75000, Note_off_c, 2, 57, 80
3, 75000, Note_off_c, 2, 50, 80
3, 75000, Note_on_c, 2, 66, 95
3, 75000, Note_on_c, 2, 62, 95
3, 75000, Note_on_c, 2, 57, 95
3, 75000, Note_on_c, 2, 50, 95
3, 75120, Note_off_c, 2, 66, 80
3, 75120, Note_off_c, 2, 62, 80
3, 75120, Note_off_c, 2, 57, 80
3, 75120, Note_off_c, 2, 50, 80
3, 75120, Note_on_c, 2, 66, 95
3, 75120, Note_on_c, 2, 62, 95
3, 75120, Note_on_c, 2, 57, 95
3, 75120, Note_on_c, 2, 50, 95
3, 75240, Note_off_c, 2, 66, 80
3, 75240, Note_off_c, 2, 62, 80
3, 75240, Note_off_c, 2, 57, 80
3, 75240, Note_off_c, 2, 50, 80
3, 75240, Note_on_c, 2, 66, 95
3, 75240, Note_on_c, 2, 62, 95
3, 75240, Note_on_c, 2, 57, 95
3, 75240, Note_on_c, 2, 50, 95
3, 75360, Note_off_c, 2, 66, 80
3, 75360, Note_off_c, 2, 62, 80
3, 75360, Note_off_c, 2, 57, 80
3, 75360, Note_off_c, 2, 50, 80
3, 75360, Note_on_c, 2, 64, 95
3, 75360, Note_on_c, 2, 59, 95
3, 75360, Note_on_c, 2, 55, 95
3, 75360, Note_on_c, 2, 52, 95
3, 75360, Note_on_c, 2, 47, 95
3, 75360, Note_on_c, 2, 40, 95
3, 75840, Note_off_c, 2, 64, 80
3, 75840, Note_off_c, 2, 59, 80
3, 75840, Note_off_c, 2, 55, 80
3, 75840, Note_off_c, 2, 52, 80
3, 75840, Note_off_c, 2, 47, 80
3, 75840, Note_off_c, 2, 40, 80
3, 75840, Note_on_c, 2, 64, 95
3, 75840, Note_on_c, 2, 59, 95
3, 75840, Note_on_c, 2, 55, 95
3, 75840, Note_on_c, 2, 52, 95
3, 75840, Note_on_c, 2, 47, 95
3, 75840, Note_on_c, 2, 40, 95
3, 76320, Note_off_c, 2, 64, 80
3, 76320, Note_off_c, 2, 59, 80
3, 76320, Note_off_c, 2, 55, 80
3, 76320, Note_off_c, 2, 52, 80
3, 76320, Note_off_c, 2, 47, 80
3, 76320, Note_off_c, 2, 40, 80
3, 76320, Note_on_c, 2, 66, 95
3, 76320, Note_on_c, 2, 62, 95
3, 76320, Note_on_c, 2, 57, 95
3, 76320, Note_on_c, 2, 50, 95
3, 76800, Note_off_c, 2, 66, 80
3, 76800, Note_off_c, 2, 62, 80
3, 76800, Note_off_c, 2, 57, 80
3, 76800, Note_off_c, 2, 50, 80
3, 76800, Note_on_c, 2, 66, 95
3, 76800, Note_on_c, 2, 62, 95
3, 76800, Note_on_c, 2, 57, 95
3, 76800, Note_on_c, 2, 50, 95
3, 76920, Note_off_c, 2, 66, 80
3, 76920, Note_off_c, 2, 62, 80
3, 76920, Note_off_c, 2, 57, 80
3, 76920, Note_off_c, 2, 50, 80
3, 76920, Note_on_c, 2, 66, 95
3, 76920, Note_on_c, 2, 62, 95
3, 76920, Note_on_c, 2, 57, 95
3, 76920, Note_on_c, 2, 50, 95
3, 77040, Note_off_c, 2, 66, 80
3, 77040, Note_off_c, 2, 62, 80
3, 77040, Note_off_c, 2, 57, 80
3, 77040, Note_off_c, 2, 50, 80
3, 77040, Note_on_c, 2, 66, 95
3, 77040, Note_on_c, 2, 62, 95
3, 77040, Note_on_c, 2, 57, 95
3, 77040, Note_on_c, 2, 50, 95
3, 77160, Note_off_c, 2, 66, 80
3, 77160, Note_off_c, 2, 62, 80
3, 77160, Note_off_c, 2, 57, 80
3, 77160, Note_off_c, 2, 50, 80
3, 77160, Note_on_c, 2, 66, 95
3, 77160, Note_on_c, 2, 62, 95
3, 77160, Note_on_c, 2, 57, 95
3, 77160, Note_on_c, 2, 50, 95
3, 77280, Note_off_c, 2, 66, 80
3, 77280, Note_off_c, 2, 62, 80
3, 77280, Note_off_c, 2, 57, 80
3, 77280, Note_off_c, 2, 50, 80
3, 77280, Note_on_c, 2, 64, 95
3, 77280, Note_on_c, 2, 60, 95
3, 77280, Note_on_c, 2, 55, 95
3, 77280, Note_on_c, 2, 52, 95
3, 77280, Note_on_c, 2, 48, 95
3, 77760, Note_off_c, 2, 64, 80
3, 77760, Note_off_c, 2, 60, 80
3, 77760, Note_off_c, 2, 55, 80
3, 77760, Note_off_c, 2, 52, 80
3, 77760, Note_off_c, 2, 48, 80
3, 77760, Note_on_c, 2, 64, 95
3, 77760, Note_on_c, 2, 60, 95
3, 77760, Note_on_c, 2, 55, 95
3, 77760, Note_on_c, 2, 52, 95
3, 77760, Note_on_c, 2, 48, 95
3, 78240, Note_off_c, 2, 64, 80
3, 78240, Note_off_c, 2, 60, 80
3, 78240, Note_off_c, 2, 55, 80
3, 78240, Note_off_c, 2, 52, 80
3, 78240, Note_off_c, 2, 48, 80
3, 78240, Note_on_c, 2, 64, 95
3, 78240, Note_on_c, 2, 60, 95
3, 78240, Note_on_c, 2, 55, 95
3, 78240, Note_on_c, 2, 52, 95
3, 78240, Note_on_c, 2, 48, 95
3, 78720, Note_off_c, 2, 64, 80
3, 78720, Note_off_c, 2, 60, 80
3, 78720, Note_off_c, 2, 55, 80
3, 78720, Note_off_c, 2, 52, 80
3, 78720, Note_off_c, 2, 48, 80
3, 78720, Note_on_c, 2, 64, 95
3, 78720, Note_on_c, 2, 59, 95
3, 78720, Note_on_c, 2, 55, 95
3, 78720, Note_on_c, 2, 52, 95
3, 78720, Note_on_c, 2, 47, 95
3, 78720, Note_on_c, 2, 40, 95
3, 78840, Note_off_c, 2, 64, 80
3, 78840, Note_off_c, 2, 59, 80
3, 78840, Note_off_c, 2, 55, 80
3, 78840, Note_off_c, 2, 52, 80
3, 78840, Note_off_c, 2, 47, 80
3, 78840, Note_off_c, 2, 40, 80
3, 78840, Note_on_c, 2, 64, 95
3, 78840, Note_on_c, 2, 59, 95
3, 78840, Note_on_c, 2, 55, 95
3, 78840, Note_on_c, 2, 52, 95
3, 78840, Note_on_c, 2, 47, 95
3, 78840, Note_on_c, 2, 40, 95
3, 79200, Note_off_c, 2, 64, 80
3, 79200, Note_off_c, 2, 59, 80
3, 79200, Note_off_c, 2, 55, 80
3, 79200, Note_off_c, 2, 52, 80
3, 79200, Note_off_c, 2, 47, 80
3, 79200, Note_off_c, 2, 40, 80
3, 79200, Note_on_c, 2, 64, 95
3, 79200, Note_on_c, 2, 60, 95
3, 79200, Note_on_c, 2, 55, 95
3, 79200, Note_on_c, 2, 52, 95
3, 79200, Note_on_c, 2, 48, 95
3, 79680, Note_off_c, 2, 64, 80
3, 79680, Note_off_c, 2, 60, 80
3, 79680, Note_off_c, 2, 55, 80
3, 79680, Note_off_c, 2, 52, 80
3, 79680, Note_off_c, 2, 48, 80
3, 79680, Note_on_c, 2, 64, 95
3, 79680, Note_on_c, 2, 60, 95
3, 79680, Note_on_c, 2, 55, 95
3, 79680, Note_on_c, 2, 52, 95
3, 79680, Note_on_c, 2, 48, 95
3, 80160, Note_off_c, 2, 64, 80
3, 80160, Note_off_c, 2, 60, 80
3, 80160, Note_off_c, 2, 55, 80
3, 80160, Note_off_c, 2, 52, 80
3, 80160, Note_off_c, 2, 48, 80
3, 80160, Note_on_c, 2, 64, 95
3, 80160, Note_on_c, 2, 60, 95
3, 80160, Note_on_c, 2, 55, 95
3, 80160, Note_on_c, 2, 52, 95
3, 80160, Note_on_c, 2, 48, 95
3, 80640, Note_off_c, 2, 64, 80
3, 80640, Note_off_c, 2, 60, 80
3, 80640, Note_off_c, 2, 55, 80
3, 80640, Note_off_c, 2, 52, 80
3, 80640, Note_off_c, 2, 48, 80
3, 80640, Note_on_c, 2, 64, 95
3, 80640, Note_on_c, 2, 60, 95
3, 80640, Note_on_c, 2, 55, 95
3, 80640, Note_on_c, 2, 52, 95
3, 80640, Note_on_c, 2, 48, 95
3, 80880, Note_off_c, 2, 64, 80
3, 80880, Note_off_c, 2, 60, 80
3, 80880, Note_off_c, 2, 55, 80
3, 80880, Note_off_c, 2, 52, 80
3, 80880, Note_off_c, 2, 48, 80
3, 80880, Note_on_c, 2, 64, 95
3, 80880, Note_on_c, 2, 60, 95
3, 80880, Note_on_c, 2, 55, 95
3, 80880, Note_on_c, 2, 52, 95
3, 80880, Note_on_c, 2, 48, 95
3, 81120, Note_off_c, 2, 64, 80
3, 81120, Note_off_c, 2, 60, 80
3, 81120, Note_off_c, 2, 55, 80
3, 81120, Note_off_c, 2, 52, 80
3, 81120, Note_off_c, 2, 48, 80
3, 81120, Note_on_c, 2, 64, 95
3, 81120, Note_on_c, 2, 59, 95
3, 81120, Note_on_c, 2, 55, 95
3, 81120, Note_on_c, 2, 52, 95
3, 81120, Note_on_c, 2, 47, 95
3, 81120, Note_on_c, 2, 40, 95
3, 81600, Note_off_c, 2, 64, 80
3, 81600, Note_off_c, 2, 59, 80
3, 81600, Note_off_c, 2, 55, 80
3, 81600, Note_off_c, 2, 52, 80
3, 81600, Note_off_c, 2, 47, 80
3, 81600, Note_off_c, 2, 40, 80
3, 81600, Note_on_c, 2, 64, 95
3, 81600, Note_on_c, 2, 59, 95
3, 81600, Note_on_c, 2, 55, 95
3, 81600, Note_on_c, 2, 52, 95
3, 81600, Note_on_c, 2, 47, 95
3, 81600, Note_on_c, 2, 40, 95
3, 82080, Note_off_c, 2, 64, 80
3, 82080, Note_off_c, 2, 59, 80
3, 82080, Note_off_c, 2, 55, 80
3, 82080, Note_off_c, 2, 52, 80
3, 82080, Note_off_c, 2, 47, 80
3, 82080, Note_off_c, 2, 40, 80
3, 82080, Note_on_c, 2, 66, 95
3, 82080, Note_on_c, 2, 62, 95
3, 82080, Note_on_c, 2, 57, 95
3, 82080, Note_on_c, 2, 50, 95
3, 82560, Note_off_c, 2, 66, 80
3, 82560, Note_off_c, 2, 62, 80
3, 82560, Note_off_c, 2, 57, 80
3, 82560, Note_off_c, 2, 50, 80
3, 82560, Note_on_c, 2, 66, 95
3, 82560, Note_on_c, 2, 62, 95
3, 82560, Note_on_c, 2, 57, 95
3, 82560, Note_on_c, 2, 50, 95
3, 82680, Note_off_c, 2, 66, 80
3, 82680, Note_off_c, 2, 62, 80
3, 82680, Note_off_c, 2, 57, 80
3, 82680, Note_off_c, 2, 50, 80
3, 82680, Note_on_c, 2, 66, 95
3, 82680, Note_on_c, 2, 62, 95
3, 82680, Note_on_c, 2, 57, 95
3, 82680, Note_on_c, 2, 50, 95
3, 82800, Note_off_c, 2, 66, 80
3, 82800, Note_off_c, 2, 62, 80
3, 82800, Note_off_c, 2, 57, 80
3, 82800, Note_off_c, 2, 50, 80
3, 82800, Note_on_c, 2, 66, 95
3, 82800, Note_on_c, 2, 62, 95
3, 82800, Note_on_c, 2, 57, 95
3, 82800, Note_on_c, 2, 50, 95
3, 82920, Note_off_c, 2, 66, 80
3, 82920, Note_off_c, 2, 62, 80
3, 82920, Note_off_c, 2, 57, 80
3, 82920, Note_off_c, 2, 50, 80
3, 82920, Note_on_c, 2, 66, 95
3, 82920, Note_on_c, 2, 62, 95
3, 82920, Note_on_c, 2, 57, 95
3, 82920, Note_on_c, 2, 50, 95
3, 83040, Note_off_c, 2, 66, 80
3, 83040, Note_off_c, 2, 62, 80
3, 83040, Note_off_c, 2, 57, 80
3, 83040, Note_off_c, 2, 50, 80
3, 83040, Note_on_c, 2, 64, 95
3, 83040, Note_on_c, 2, 59, 95
3, 83040, Note_on_c, 2, 55, 95
3, 83040, Note_on_c, 2, 52, 95
3, 83040, Note_on_c, 2, 47, 95
3, 83040, Note_on_c, 2, 40, 95
3, 83520, Note_off_c, 2, 64, 80
3, 83520, Note_off_c, 2, 59, 80
3, 83520, Note_off_c, 2, 55, 80
3, 83520, Note_off_c, 2, 52, 80
3, 83520, Note_off_c, 2, 47, 80
3, 83520, Note_off_c, 2, 40, 80
3, 83520, Note_on_c, 2, 64, 95
3, 83520, Note_on_c, 2, 59, 95
3, 83520, Note_on_c, 2, 55, 95
3, 83520, Note_on_c, 2, 52, 95
3, 83520, Note_on_c, 2, 47, 95
3, 83520, Note_on_c, 2, 40, 95
3, 84000, Note_off_c, 2, 64, 80
3, 84000, Note_off_c, 2, 59, 80
3, 84000, Note_off_c, 2, 55, 80
3, 84000, Note_off_c, 2, 52, 80
3, 84000, Note_off_c, 2, 47, 80
3, 84000, Note_off_c, 2, 40, 80
3, 84000, Note_on_c, 2, 66, 95
3, 84000, Note_on_c, 2, 62, 95
3, 84000, Note_on_c, 2, 57, 95
3, 84000, Note_on_c, 2, 50, 95
3, 84480, Note_off_c, 2, 66, 80
3, 84480, Note_off_c, 2, 62, 80
3, 84480, Note_off_c, 2, 57, 80
3, 84480, Note_off_c, 2, 50, 80
3, 84480, Note_on_c, 2, 66, 95
3, 84480, Note_on_c, 2, 62, 95
3, 84480, Note_on_c, 2, 57, 95
3, 84480, Note_on_c, 2, 50, 95
3, 84600, Note_off_c, 2, 66, 80
3, 84600, Note_off_c, 2, 62, 80
3, 84600, Note_off_c, 2, 57, 80
3, 84600, Note_off_c, 2, 50, 80
3, 84600, Note_on_c, 2, 66, 95
3, 84600, Note_on_c, 2, 62, 95
3, 84600, Note_on_c, 2, 57, 95
3, 84600, Note_on_c, 2, 50, 95
3, 84720, Note_off_c, 2, 66, 80
3, 84720, Note_off_c, 2, 62, 80
3, 84720, Note_off_c, 2, 57, 80
3, 84720, Note_off_c, 2, 50, 80
3, 84720, Note_on_c, 2, 66, 95
3, 84720, Note_on_c, 2, 62, 95
3, 84720, Note_on_c, 2, 57, 95
3, 84720, Note_on_c, 2, 50, 95
3, 84840, Note_off_c, 2, 66, 80
3, 84840, Note_off_c, 2, 62, 80
3, 84840, Note_off_c, 2, 57, 80
3, 84840, Note_off_c, 2, 50, 80
3, 84840, Note_on_c, 2, 66, 95
3, 84840, Note_on_c, 2, 62, 95
3, 84840, Note_on_c, 2, 57, 95
3, 84840, Note_on_c, 2, 50, 95
3, 84960, Note_off_c, 2, 66, 80
3, 84960, Note_off_c, 2, 62, 80
3, 84960, Note_off_c, 2, 57, 80
3, 84960, Note_off_c, 2, 50, 80
3, 84960, Note_on_c, 2, 64, 95
3, 84960, Note_on_c, 2, 59, 95
3, 84960, Note_on_c, 2, 55, 95
3, 84960, Note_on_c, 2, 52, 95
3, 84960, Note_on_c, 2, 47, 95
3, 84960, Note_on_c, 2, 40, 95
3, 85440, Note_off_c, 2, 64, 80
3, 85440, Note_off_c, 2, 59, 80
3, 85440, Note_off_c, 2, 55, 80
3, 85440, Note_off_c, 2, 52, 80
3, 85440, Note_off_c, 2, 47, 80
3, 85440, Note_off_c, 2, 40, 80
3, 85440, Note_on_c, 2, 64, 95
3, 85440, Note_on_c, 2, 59, 95
3, 85440, Note_on_c, 2, 55, 95
3, 85440, Note_on_c, 2, 52, 95
3, 85440, Note_on_c, 2, 47, 95
3, 85440, Note_on_c, 2, 40, 95
3, 85920, Note_off_c, 2, 64, 80
3, 85920, Note_off_c, 2, 59, 80
3, 85920, Note_off_c, 2, 55, 80
3, 85920, Note_off_c, 2, 52, 80
3, 85920, Note_off_c, 2, 47, 80
3, 85920, Note_off_c, 2, 40, 80
3, 85920, Note_on_c, 2, 66, 95
3, 85920, Note_on_c, 2, 62, 95
3, 85920, Note_on_c, 2, 57, 95
3, 85920, Note_on_c, 2, 50, 95
3, 86400, Note_off_c, 2, 66, 80
3, 86400, Note_off_c, 2, 62, 80
3, 86400, Note_off_c, 2, 57, 80
3, 86400, Note_off_c, 2, 50, 80
3, 86400, Note_on_c, 2, 66, 95
3, 86400, Note_on_c, 2, 62, 95
3, 86400, Note_on_c, 2, 57, 95
3, 86400, Note_on_c, 2, 50, 95
3, 86520, Note_off_c, 2, 66, 80
3, 86520, Note_off_c, 2, 62, 80
3, 86520, Note_off_c, 2, 57, 80
3, 86520, Note_off_c, 2, 50, 80
3, 86520, Note_on_c, 2, 66, 95
3, 86520, Note_on_c, 2, 62, 95
3, 86520, Note_on_c, 2, 57, 95
3, 86520, Note_on_c, 2, 50, 95
3, 86640, Note_off_c, 2, 66, 80
3, 86640, Note_off_c, 2, 62, 80
3, 86640, Note_off_c, 2, 57, 80
3, 86640, Note_off_c, 2, 50, 80
3, 86640, Note_on_c, 2, 66, 95
3, 86640, Note_on_c, 2, 62, 95
3, 86640, Note_on_c, 2, 57, 95
3, 86640, Note_on_c, 2, 50, 95
3, 86760, Note_off_c, 2, 66, 80
3, 86760, Note_off_c, 2, 62, 80
3, 86760, Note_off_c, 2, 57, 80
3, 86760, Note_off_c, 2, 50, 80
3, 86760, Note_on_c, 2, 66, 95
3, 86760, Note_on_c, 2, 62, 95
3, 86760, Note_on_c, 2, 57, 95
3, 86760, Note_on_c, 2, 50, 95
3, 86880, Note_off_c, 2, 66, 80
3, 86880, Note_off_c, 2, 62, 80
3, 86880, Note_off_c, 2, 57, 80
3, 86880, Note_off_c, 2, 50, 80
3, 86880, Note_on_c, 2, 64, 95
3, 86880, Note_on_c, 2, 60, 95
3, 86880, Note_on_c, 2, 55, 95
3, 86880, Note_on_c, 2, 52, 95
3, 86880, Note_on_c, 2, 48, 95
3, 87360, Note_off_c, 2, 64, 80
3, 87360, Note_off_c, 2, 60, 80
3, 87360, Note_off_c, 2, 55, 80
3, 87360, Note_off_c, 2, 52, 80
3, 87360, Note_off_c, 2, 48, 80
3, 87360, Note_on_c, 2, 64, 95
3, 87360, Note_on_c, 2, 60, 95
3, 87360, Note_on_c, 2, 55, 95
3, 87360, Note_on_c, 2, 52, 95
3, 87360, Note_on_c, 2, 48, 95
3, 87840, Note_off_c, 2, 64, 80
3, 87840, Note_off_c, 2, 60, 80
3, 87840, Note_off_c, 2, 55, 80
3, 87840, Note_off_c, 2, 52, 80
3, 87840, Note_off_c, 2, 48, 80
3, 87840, Note_on_c, 2, 64, 95
3, 87840, Note_on_c, 2, 60, 95
3, 87840, Note_on_c, 2, 55, 95
3, 87840, Note_on_c, 2, 52, 95
3, 87840, Note_on_c, 2, 48, 95
3, 88320, Note_off_c, 2, 64, 80
3, 88320, Note_off_c, 2, 60, 80
3, 88320, Note_off_c, 2, 55, 80
3, 88320, Note_off_c, 2, 52, 80
3, 88320, Note_off_c, 2, 48, 80
3, 88320, Note_on_c, 2, 64, 95
3, 88320, Note_on_c, 2, 59, 95
3, 88320, Note_on_c, 2, 55, 95
3, 88320, Note_on_c, 2, 52, 95
3, 88320, Note_on_c, 2, 47, 95
3, 88320, Note_on_c, 2, 40, 95
3, 88440, Note_off_c, 2, 64, 80
3, 88440, Note_off_c, 2, 59, 80
3, 88440, Note_off_c, 2, 55, 80
3, 88440, Note_off_c, 2, 52, 80
3, 88440, Note_off_c, 2, 47, 80
3, 88440, Note_off_c, 2, 40, 80
3, 88440, Note_on_c, 2, 64, 95
3, 88440, Note_on_c, 2, 59, 95
3, 88440, Note_on_c, 2, 55, 95
3, 88440, Note_on_c, 2, 52, 95
3, 88440, Note_on_c, 2, 47, 95
3, 88440, Note_on_c, 2, 40, 95
3, 88800, Note_off_c, 2, 64, 80
3, 88800, Note_off_c, 2, 59, 80
3, 88800, Note_off_c, 2, 55, 80
3, 88800, Note_off_c, 2, 52, 80
3, 88800, Note_off_c, 2, 47, 80
3, 88800, Note_off_c, 2, 40, 80
3, 88800, Note_on_c, 2, 64, 95
3, 88800, Note_on_c, 2, 60, 95
3, 88800, Note_on_c, 2, 55, 95
3, 88800, Note_on_c, 2, 52, 95
3, 88800, Note_on_c, 2, 48, 95
3, 89280, Note_off_c, 2, 64, 80
3, 89280, Note_off_c, 2, 60, 80
3, 89280, Note_off_c, 2, 55, 80
3, 89280, Note_off_c, 2, 52, 80
3, 89280, Note_off_c, 2, 48, 80
3, 89280, Note_on_c, 2, 64, 95
3, 89280, Note_on_c, 2, 60, 95
3, 89280, Note_on_c, 2, 55, 95
3, 89280, Note_on_c, 2, 52, 95
3, 89280, Note_on_c, 2, 48, 95
3, 89760, Note_off_c, 2, 64, 80
3, 89760, Note_off_c, 2, 60, 80
3, 89760, Note_off_c, 2, 55, 80
3, 89760, Note_off_c, 2, 52, 80
3, 89760, Note_off_c, 2, 48, 80
3, 89760, Note_on_c, 2, 64, 95
3, 89760, Note_on_c, 2, 60, 95
3, 89760, Note_on_c, 2, 55, 95
3, 89760, Note_on_c, 2, 52, 95
3, 89760, Note_on_c, 2, 48, 95
3, 90240, Note_off_c, 2, 64, 80
3, 90240, Note_off_c, 2, 60, 80
3, 90240, Note_off_c, 2, 55, 80
3, 90240, Note_off_c, 2, 52, 80
3, 90240, Note_off_c, 2, 48, 80
3, 90240, Note_on_c, 2, 64, 95
3, 90240, Note_on_c, 2, 60, 95
3, 90240, Note_on_c, 2, 55, 95
3, 90240, Note_on_c, 2, 52, 95
3, 90240, Note_on_c, 2, 48, 95
3, 90480, Note_off_c, 2, 64, 80
3, 90480, Note_off_c, 2, 60, 80
3, 90480, Note_off_c, 2, 55, 80
3, 90480, Note_off_c, 2, 52, 80
3, 90480, Note_off_c, 2, 48, 80
3, 90480, Note_on_c, 2, 64, 95
3, 90480, Note_on_c, 2, 60, 95
3, 90480, Note_on_c, 2, 55, 95
3, 90480, Note_on_c, 2, 52, 95
3, 90480, Note_on_c, 2, 48, 95
3, 90720, Note_off_c, 2, 64, 80
3, 90720, Note_off_c, 2, 60, 80
3, 90720, Note_off_c, 2, 55, 80
3, 90720, Note_off_c, 2, 52, 80
3, 90720, Note_off_c, 2, 48, 80
3, 90720, Note_on_c, 2, 64, 95
3, 90720, Note_on_c, 2, 60, 95
3, 90720, Note_on_c, 2, 55, 95
3, 90720, Note_on_c, 2, 52, 95
3, 90720, Note_on_c, 2, 48, 95
3, 91200, Note_off_c, 2, 64, 80
3, 91200, Note_off_c, 2, 60, 80
3, 91200, Note_off_c, 2, 55, 80
3, 91200, Note_off_c, 2, 52, 80
3, 91200, Note_off_c, 2, 48, 80
3, 91200, Note_on_c, 2, 64, 95
3, 91200, Note_on_c, 2, 60, 95
3, 91200, Note_on_c, 2, 55, 95
3, 91200, Note_on_c, 2, 52, 95
3, 91200, Note_on_c, 2, 48, 95
3, 91680, Note_off_c, 2, 64, 80
3, 91680, Note_off_c, 2, 60, 80
3, 91680, Note_off_c, 2, 55, 80
3, 91680, Note_off_c, 2, 52, 80
3, 91680, Note_off_c, 2, 48, 80
3, 91680, Note_on_c, 2, 64, 95
3, 91680, Note_on_c, 2, 60, 95
3, 91680, Note_on_c, 2, 55, 95
3, 91680, Note_on_c, 2, 52, 95
3, 91680, Note_on_c, 2, 48, 95
3, 92160, Note_off_c, 2, 64, 80
3, 92160, Note_off_c, 2, 60, 80
3, 92160, Note_off_c, 2, 55, 80
3, 92160, Note_off_c, 2, 52, 80
3, 92160, Note_off_c, 2, 48, 80
3, 92160, Note_on_c, 2, 64, 95
3, 92160, Note_on_c, 2, 59, 95
3, 92160, Note_on_c, 2, 55, 95
3, 92160, Note_on_c, 2, 52, 95
3, 92160, Note_on_c, 2, 47, 95
3, 92160, Note_on_c, 2, 40, 95
3, 92280, Note_off_c, 2, 64, 80
3, 92280, Note_off_c, 2, 59, 80
3, 92280, Note_off_c, 2, 55, 80
3, 92280, Note_off_c, 2, 52, 80
3, 92280, Note_off_c, 2, 47, 80
3, 92280, Note_off_c, 2, 40, 80
3, 92280, Note_on_c, 2, 64, 95
3, 92280, Note_on_c, 2, 59, 95
3, 92280, Note_on_c, 2, 55, 95
3, 92280, Note_on_c, 2, 52, 95
3, 92280, Note_on_c, 2, 47, 95
3, 92280, Note_on_c, 2, 40, 95
3, 92640, Note_off_c, 2, 64, 80
3, 92640, Note_off_c, 2, 59, 80
3, 92640, Note_off_c, 2, 55, 80
3, 92640, Note_off_c, 2, 52, 80
3, 92640, Note_off_c, 2, 47, 80
3, 92640, Note_off_c, 2, 40, 80
3, 92640, Note_on_c, 2, 64, 95
3, 92640, Note_on_c, 2, 60, 95
3, 92640, Note_on_c, 2, 55, 95
3, 92640, Note_on_c, 2, 52, 95
3, 92640, Note_on_c, 2, 48, 95
3, 93120, Note_off_c, 2, 64, 80
3, 93120, Note_off_c, 2, 60, 80
3, 93120, Note_off_c, 2, 55, 80
3, 93120, Note_off_c, 2, 52, 80
3, 93120, Note_off_c, 2, 48, 80
3, 93120, Note_on_c, 2, 64, 95
3, 93120, Note_on_c, 2, 60, 95
3, 93120, Note_on_c, 2, 55, 95
3, 93120, Note_on_c, 2, 52, 95
3, 93120, Note_on_c, 2, 48, 95
3, 93600, Note_off_c, 2, 64, 80
3, 93600, Note_off_c, 2, 60, 80
3, 93600, Note_off_c, 2, 55, 80
3, 93600, Note_off_c, 2, 52, 80
3, 93600, Note_off_c, 2, 48, 80
3, 93600, Note_on_c, 2, 65, 95
3, 93600, Note_on_c, 2, 60, 95
3, 93600, Note_on_c, 2, 57, 95
3, 93600, Note_on_c, 2, 53, 95
3, 93600, Note_on_c, 2, 48, 95
3, 93600, Note_on_c, 2, 41, 95
3, 93840, Note_off_c, 2, 65, 80
3, 93840, Note_off_c, 2, 60, 80
3, 93840, Note_off_c, 2, 57, 80
3, 93840, Note_off_c, 2, 53, 80
3, 93840, Note_off_c, 2, 48, 80
3, 93840, Note_off_c, 2, 41, 80
3, 93840, Note_on_c, 2, 65, 95
3, 93840, Note_on_c, 2, 60, 95
3, 93840, Note_on_c, 2, 57, 95
3, 93840, Note_on_c, 2, 53, 95
3, 93840, Note_on_c, 2, 48, 95
3, 93840, Note_on_c, 2, 41, 95
3, 94080, Note_off_c, 2, 65, 80
3, 94080, Note_off_c, 2, 60, 80
3, 94080, Note_off_c, 2, 57, 80
3, 94080, Note_off_c, 2, 53, 80
3, 94080, Note_off_c, 2, 48, 80
3, 94080, Note_off_c, 2, 41, 80
3, 94080, Note_on_c, 2, 66, 95
3, 94080, Note_on_c, 2, 61, 95
3, 94080, Note_on_c, 2, 58, 95
3, 94080, Note_on_c, 2, 54, 95
3, 94080, Note_on_c, 2, 49, 95
3, 94080, Note_on_c, 2, 42, 95
3, 94320, Note_off_c, 2, 66, 80
3, 94320, Note_off_c, 2, 61, 80
3, 94320, Note_off_c, 2, 58, 80
3, 94320, Note_off_c, 2, 54, 80
3, 94320, Note_off_c, 2, 49, 80
3, 94320, Note_off_c, 2, 42, 80
3, 94320, Note_on_c, 2, 66, 95
3, 94320, Note_on_c, 2, 61, 95
3, 94320, Note_on_c, 2, 58, 95
3, 94320, Note_on_c, 2, 54, 95
3, 94320, Note_on_c, 2, 49, 95
3, 94320, Note_on_c, 2, 42, 95
3, 94560, Note_off_c, 2, 66, 80
3, 94560, Note_off_c, 2, 61, 80
3, 94560, Note_off_c, 2, 58, 80
3, 94560, Note_off_c, 2, 54, 80
3, 94560, Note_off_c, 2, 49, 80
3, 94560, Note_off_c, 2, 42, 80
3, 94560, Note_on_c, 2, 67, 95
3, 94560, Note_on_c, 2, 62, 95
3, 94560, Note_on_c, 2, 59, 95
3, 94560, Note_on_c, 2, 55, 95
3, 94560, Note_on_c, 2, 50, 95
3, 94560, Note_on_c, 2, 43, 95
3, 94800, Note_off_c, 2, 67, 80
3, 94800, Note_off_c, 2, 62, 80
3, 94800, Note_off_c, 2, 59, 80
3, 94800, Note_off_c, 2, 55, 80
3, 94800, Note_off_c, 2, 50, 80
3, 94800, Note_off_c, 2, 43, 80
3, 94800, Note_on_c, 2, 59, 95
3, 94800, Note_on_c, 2, 55, 95
3, 94800, Note_on_c, 2, 50, 95
3, 94800, Note_on_c, 2, 43, 95
3, 95040, Note_off_c, 2, 59, 80
3, 95040, Note_off_c, 2, 55, 80
3, 95040, Note_off_c, 2, 50, 80
3, 95040, Note_off_c, 2, 43, 80
3, 95040, Note_on_c, 2, 67, 95
3, 95040, Note_on_c, 2, 62, 95
3, 95040, Note_on_c, 2, 59, 95
3, 95040, Note_on_c, 2, 55, 95
3, 95040, Note_on_c, 2, 50, 95
3, 95040, Note_on_c, 2, 43, 95
3, 95280, Note_off_c, 2, 67, 80
3, 95280, Note_off_c, 2, 62, 80
3, 95280, Note_off_c, 2, 59, 80
3, 95280, Note_off_c, 2, 55, 80
3, 95280, Note_off_c, 2, 50, 80
3, 95280, Note_off_c, 2, 43, 80
3, 95280, Note_on_c, 2, 59, 95
3, 95280, Note_on_c, 2, 54, 95
3, 95280, Note_on_c, 2, 50, 95
3, 95400, Note_off_c, 2, 59, 80
3, 95400, Note_off_c, 2, 54, 80
3, 95400, Note_off_c, 2, 50, 80
3, 95400, Note_on_c, 2, 59, 95
3, 95400, Note_on_c, 2, 54, 95
3, 95400, Note_on_c, 2, 50, 95
3, 95520, Note_off_c, 2, 59, 80
3, 95520, Note_off_c, 2, 54, 80
3, 95520, Note_off_c, 2, 50, 80
3, 95520, Note_on_c, 2, 67, 95
3, 95520, Note_on_c, 2, 62, 95
3, 95520, Note_on_c, 2, 59, 95
3, 95520, Note_on_c, 2, 54, 95
3, 95520, Note_on_c, 2, 50, 95
3, 95520, Note_on_c, 2, 43, 95
3, 95760, Note_off_c, 2, 67, 80
3, 95760, Note_off_c, 2, 62, 80
3, 95760, Note_off_c, 2, 59, 80
3, 95760, Note_off_c, 2, 54, 80
3, 95760, Note_off_c, 2, 50, 80
3, 95760, Note_off_c, 2, 43, 80
3, 95760, Note_on_c, 2, 62, 95
3, 95760, Note_on_c, 2, 59, 95
3, 95760, Note_on_c, 2, 54, 95
3, 95760, Note_on_c, 2, 50, 95
3, 95760, Note_on_c, 2, 43, 95
3, 96000, Note_off_c, 2, 62, 80
3, 96000, Note_off_c, 2, 59, 80
3, 96000, Note_off_c, 2, 54, 80
3, 96000, Note_off_c, 2, 50, 80
3, 96000, Note_off_c, 2, 43, 80
3, 96000, Note_on_c, 2, 67, 95
3, 96000, Note_on_c, 2, 62, 95
3, 96000, Note_on_c, 2, 59, 95
3, 96000, Note_on_c, 2, 54, 95
3, 96000, Note_on_c, 2, 50, 95
3, 96000, Note_on_c, 2, 43, 95
3, 96240, Note_off_c, 2, 67, 80
3, 96240, Note_off_c, 2, 62, 80
3, 96240, Note_off_c, 2, 59, 80
3, 96240, Note_off_c, 2, 54, 80
3, 96240, Note_off_c, 2, 50, 80
3, 96240, Note_off_c, 2, 43, 80
3, 96240, Note_on_c, 2, 59, 95
3, 96240, Note_on_c, 2, 54, 95
3, 96240, Note_on_c, 2, 50, 95
3, 96240, Note_on_c, 2, 43, 95
3, 96360, Note_off_c, 2, 59, 80
3, 96360, Note_off_c, 2, 54, 80
3, 96360, Note_off_c, 2, 50, 80
3, 96360, Note_off_c, 2, 43, 80
3, 96360, Note_on_c, 2, 55, 95
3, 96360, Note_on_c, 2, 50, 95
3, 96360, Note_on_c, 2, 45, 95
3, 96480, Note_off_c, 2, 55, 80
3, 96480, Note_off_c, 2, 50, 80
3, 96480, Note_off_c, 2, 45, 80
3, 96480, Note_on_c, 2, 64, 95
3, 96480, Note_on_c, 2, 59, 95
3, 96480, Note_on_c, 2, 55, 95
3, 96480, Note_on_c, 2, 52, 95
3, 96480, Note_on_c, 2, 47, 95
3, 96480, Note_on_c, 2, 40, 95
3, 96720, Note_off_c, 2, 64, 80
3, 96720, Note_off_c, 2, 59, 80
3, 96720, Note_off_c, 2, 55, 80
3, 96720, Note_off_c, 2, 52, 80
3, 96720, Note_off_c, 2, 47, 80
3, 96720, Note_off_c, 2, 40, 80
3, 96720, Note_on_c, 2, 59, 95
3, 96720, Note_on_c, 2, 55, 95
3, 96720, Note_on_c, 2, 52, 95
3, 96720, Note_on_c, 2, 47, 95
3, 96720, Note_on_c, 2, 40, 95
3, 96960, Note_off_c, 2, 59, 80
3, 96960, Note_off_c, 2, 55, 80
3, 96960, Note_off_c, 2, 52, 80
3, 96960, Note_off_c, 2, 47, 80
3, 96960, Note_off_c, 2, 40, 80
3, 96960, Note_on_c, 2, 64, 95
3, 96960, Note_on_c, 2, 59, 95
3, 96960, Note_on_c, 2, 55, 95
3, 96960, Note_on_c, 2, 52, 95
3, 96960, Note_on_c, 2, 47, 95
3, 96960, Note_on_c, 2, 40, 95
3, 97200, Note_off_c, 2, 64, 80
3, 97200, Note_off_c, 2, 59, 80
3, 97200, Note_off_c, 2, 55, 80
3, 97200, Note_off_c, 2, 52, 80
3, 97200, Note_off_c, 2, 47, 80
3, 97200, Note_off_c, 2, 40, 80
3, 97200, Note_on_c, 2, 59, 95
3, 97200, Note_on_c, 2, 55, 95
3, 97200, Note_on_c, 2, 52, 95
3, 97200, Note_on_c, 2, 47, 95
3, 97320, Note_off_c, 2, 59, 80
3, 97320, Note_off_c, 2, 55, 80
3, 97320, Note_off_c, 2, 52, 80
3, 97320, Note_off_c, 2, 47, 80
3, 97320, Note_on_c, 2, 59, 95
3, 97320, Note_on_c, 2, 55, 95
3, 97320, Note_on_c, 2, 52, 95
3, 97320, Note_on_c, 2, 47, 95
3, 97440, Note_off_c, 2, 59, 80
3, 97440, Note_off_c, 2, 55, 80
3, 97440, Note_off_c, 2, 52, 80
3, 97440, Note_off_c, 2, 47, 80
3, 97440, Note_on_c, 2, 64, 95
3, 97440, Note_on_c, 2, 59, 95
3, 97440, Note_on_c, 2, 55, 95
3, 97440, Note_on_c, 2, 50, 95
3, 97440, Note_on_c, 2, 47, 95
3, 97440, Note_on_c, 2, 40, 95
3, 97680, Note_off_c, 2, 64, 80
3, 97680, Note_off_c, 2, 59, 80
3, 97680, Note_off_c, 2, 55, 80
3, 97680, Note_off_c, 2, 50, 80
3, 97680, Note_off_c, 2, 47, 80
3, 97680, Note_off_c, 2, 40, 80
3, 97680, Note_on_c, 2, 59, 95
3, 97680, Note_on_c, 2, 55, 95
3, 97680, Note_on_c, 2, 50, 95
3, 97680, Note_on_c, 2, 47, 95
3, 97680, Note_on_c, 2, 40, 95
3, 97920, Note_off_c, 2, 59, 80
3, 97920, Note_off_c, 2, 55, 80
3, 97920, Note_off_c, 2, 50, 80
3, 97920, Note_off_c, 2, 47, 80
3, 97920, Note_off_c, 2, 40, 80
3, 97920, Note_on_c, 2, 64, 95
3, 97920, Note_on_c, 2, 59, 95
3, 97920, Note_on_c, 2, 55, 95
3, 97920, Note_on_c, 2, 50, 95
3, 97920, Note_on_c, 2, 47, 95
3, 97920, Note_on_c, 2, 40, 95
3, 98160, Note_off_c, 2, 64, 80
3, 98160, Note_off_c, 2, 59, 80
3, 98160, Note_off_c, 2, 55, 80
3, 98160, Note_off_c, 2, 50, 80
3, 98160, Note_off_c, 2, 47, 80
3, 98160, Note_off_c, 2, 40, 80
3, 98160, Note_on_c, 2, 59, 95
3, 98160, Note_on_c, 2, 55, 95
3, 98160, Note_on_c, 2, 50, 95
3, 98280, Note_off_c, 2, 59, 80
3, 98280, Note_off_c, 2, 55, 80
3, 98280, Note_off_c, 2, 50, 80
3, 98280, Note_on_c, 2, 59, 95
3, 98280, Note_on_c, 2, 55, 95
3, 98280, Note_on_c, 2, 50, 95
3, 98400, Note_off_c, 2, 59, 80
3, 98400, Note_off_c, 2, 55, 80
3, 98400, Note_off_c, 2, 50, 80
3, 98400, Note_on_c, 2, 67, 95
3, 98400, Note_on_c, 2, 63, 95
3, 98400, Note_on_c, 2, 58, 95
3, 98400, Note_on_c, 2, 51, 95
3, 98400, Note_on_c, 2, 46, 95
3, 98640, Note_off_c, 2, 67, 80
3, 98640, Note_off_c, 2, 63, 80
3, 98640, Note_off_c, 2, 58, 80
3, 98640, Note_off_c, 2, 51, 80
3, 98640, Note_off_c, 2, 46, 80
3, 98640, Note_on_c, 2, 63, 95
3, 98640, Note_on_c, 2, 58, 95
3, 98640, Note_on_c, 2, 51, 95
3, 98640, Note_on_c, 2, 46, 95
3, 98880, Note_off_c, 2, 63, 80
3, 98880, Note_off_c, 2, 58, 80
3, 98880, Note_off_c, 2, 51, 80
3, 98880, Note_off_c, 2, 46, 80
3, 98880, Note_on_c, 2, 67, 95
3, 98880, Note_on_c, 2, 63, 95
3, 98880, Note_on_c, 2, 58, 95
3, 98880, Note_on_c, 2, 51, 95
3, 98880, Note_on_c, 2, 46, 95
3, 99120, Note_off_c, 2, 67, 80
3, 99120, Note_off_c, 2, 63, 80
3, 99120, Note_off_c, 2, 58, 80
3, 99120, Note_off_c, 2, 51, 80
3, 99120, Note_off_c, 2, 46, 80
3, 99120, Note_on_c, 2, 66, 95
3, 99120, Note_on_c, 2, 62, 95
3, 99120, Note_on_c, 2, 57, 95
3, 99240, Note_off_c, 2, 66, 80
3, 99240, Note_off_c, 2, 62, 80
3, 99240, Note_off_c, 2, 57, 80
3, 99240, Note_on_c, 2, 66, 95
3, 99240, Note_on_c, 2, 62, 95
3, 99240, Note_on_c, 2, 57, 95
3, 99360, Note_off_c, 2, 66, 80
3, 99360, Note_off_c, 2, 62, 80
3, 99360, Note_off_c, 2, 57, 80
3, 99360, Note_on_c, 2, 66, 95
3, 99360, Note_on_c, 2, 62, 95
3, 99360, Note_on_c, 2, 57, 95
3, 99360, Note_on_c, 2, 50, 95
3, 99360, Note_on_c, 2, 45, 95
3, 99600, Note_off_c, 2, 66, 80
3, 99600, Note_off_c, 2, 62, 80
3, 99600, Note_off_c, 2, 57, 80
3, 99600, Note_off_c, 2, 50, 80
3, 99600, Note_off_c, 2, 45, 80
3, 99600, Note_on_c, 2, 62, 95
3, 99600, Note_on_c, 2, 57, 95
3, 99600, Note_on_c, 2, 50, 95
3, 99600, Note_on_c, 2, 45, 95
3, 99840, Note_off_c, 2, 62, 80
3, 99840, Note_off_c, 2, 57, 80
3, 99840, Note_off_c, 2, 50, 80
3, 99840, Note_off_c, 2, 45, 80
3, 99840, Note_on_c, 2, 66, 95
3, 99840, Note_on_c, 2, 62, 95
3, 99840, Note_on_c, 2, 57, 95
3, 99840, Note_on_c, 2, 50, 95
3, 99840, Note_on_c, 2, 45, 95
3, 100080, Note_off_c, 2, 66, 80
3, 100080, Note_off_c, 2, 62, 80
3, 100080, Note_off_c, 2, 57, 80
3, 100080, Note_off_c, 2, 50, 80
3, 100080, Note_off_c, 2, 45, 80
3, 100080, Note_on_c, 2, 62, 95
3, 100080, Note_on_c, 2, 59, 95
3, 100080, Note_on_c, 2, 54, 95
3, 100200, Note_off_c, 2, 62, 80
3, 100200, Note_off_c, 2, 59, 80
3, 100200, Note_off_c, 2, 54, 80
3, 100200, Note_on_c, 2, 62, 95
3, 100200, Note_on_c, 2, 59, 95
3, 100200, Note_on_c, 2, 54, 95
3, 100320, Note_off_c, 2, 62, 80
3, 100320, Note_off_c, 2, 59, 80
3, 100320, Note_off_c, 2, 54, 80
3, 100320, Note_on_c, 2, 60, 95
3, 100320, Note_on_c, 2, 55, 95
3, 100320, Note_on_c, 2, 52, 95
3, 100320, Note_on_c, 2, 48, 95
3, 100560, Note_off_c, 2, 60, 80
3, 100560, Note_off_c, 2, 55, 80
3, 100560, Note_off_c, 2, 52, 80
3, 100560, Note_off_c, 2, 48, 80
3, 100560, Note_on_c, 2, 60, 95
3, 100560, Note_on_c, 2, 55, 95
3, 100560, Note_on_c, 2, 52, 95
3, 100560, Note_on_c, 2, 48, 95
3, 100800, Note_off_c, 2, 60, 80
3, 100800, Note_off_c, 2, 55, 80
3, 100800, Note_off_c, 2, 52, 80
3, 100800, Note_off_c, 2, 48, 80
3, 100800, Note_on_c, 2, 66, 95
3, 100800, Note_on_c, 2, 62, 95
3, 100800, Note_on_c, 2, 57, 95
3, 100800, Note_on_c, 2, 50, 95
3, 101040, Note_off_c, 2, 66, 80
3, 101040, Note_off_c, 2, 62, 80
3, 101040, Note_off_c, 2, 57, 80
3, 101040, Note_off_c, 2, 50, 80
3, 101040, Note_on_c, 2, 67, 95
3, 101040, Note_on_c, 2, 62, 95
3, 101040, Note_on_c, 2, 55, 95
3, 101040, Note_on_c, 2, 50, 95
3, 101040, Note_on_c, 2, 47, 95
3, 101040, Note_on_c, 2, 43, 95
3, 102240, Note_off_c, 2, 67, 80
3, 102240, Note_off_c, 2, 62, 80
3, 102240, Note_off_c, 2, 55, 80
3, 102240, Note_off_c, 2, 50, 80
3, 102240, Note_off_c, 2, 47, 80
3, 102240, Note_off_c, 2, 43, 80
3, 102240, End_track
4, 0, Start_track
4, 0, Title_t, "Distorted Guitar"
4, 0, Control_c, 5, 100, 0
4, 0, Control_c, 5, 101, 0
4, 0, Control_c, 5, 6, 12
4, 0, Pitch_bend_c, 5, 8192
4, 0, Control_c, 5, 101, 0
4, 0, Control_c, 5, 100, 1
4, 0, Control_c, 5, 6, 64
4, 0, Control_c, 5, 38, 0
4, 0, Control_c, 5, 101, 127
4, 0, Control_c, 5, 100, 127
4, 0, Control_c, 4, 100, 0
4, 0, Control_c, 4, 101, 0
4, 0, Control_c, 4, 6, 12
4, 0, Pitch_bend_c, 4, 8192
4, 0, Control_c, 4, 101, 0
4, 0, Control_c, 4, 100, 1
4, 0, Control_c, 4, 6, 64
4, 0, Control_c, 4, 38, 0
4, 0, Control_c, 4, 101, 127
4, 0, Control_c, 4, 100, 127
4, 0, Control_c, 5, 101, 0
4, 0, Control_c, 5, 100, 2
4, 0, Control_c, 5, 6, 64
4, 0, Control_c, 5, 101, 127
4, 0, Control_c, 5, 100, 127
4, 0, Control_c, 4, 101, 0
4, 0, Control_c, 4, 100, 2
4, 0, Control_c, 4, 6, 64
4, 0, Control_c, 4, 101, 127
4, 0, Control_c, 4, 100, 127
4, 0, Program_c, 5, 30
4, 0, Program_c, 4, 30
4, 0, Control_c, 5, 0, 0
4, 0, Control_c, 4, 0, 0
4, 0, Control_c, 5, 7, 96
4, 0, Control_c, 4, 7, 96
4, 0, Control_c, 5, 10, 64
4, 0, Control_c, 4, 10, 64
4, 0, Control_c, 5, 93, 0
4, 0, Control_c, 4, 93, 0
4, 0, Control_c, 5, 91, 0
4, 0, Control_c, 4, 91, 0
4, 0, Control_c, 5, 92, 0
4, 0, Control_c, 4, 92, 0
4, 0, Control_c, 5, 95, 0
4, 0, Control_c, 4, 95, 0
4, 12960, Note_on_c, 4, 48, 95
4, 13080, Note_off_c, 4, 48, 80
4, 13080, Note_on_c, 4, 47, 95
4, 13200, Note_off_c, 4, 47, 80
4, 13200, Note_on_c, 4, 45, 95
4, 13440, Note_off_c, 4, 45, 80
4, 13440, Note_on_c, 4, 59, 95
4, 13440, Note_on_c, 4, 55, 95
4, 13440, Note_on_c, 4, 50, 95
4, 13440, Note_on_c, 4, 43, 95
4, 13680, Note_off_c, 4, 59, 80
4, 13680, Note_off_c, 4, 55, 80
4, 13680, Note_off_c, 4, 50, 80
4, 13680, Note_off_c, 4, 43, 80
4, 13920, Note_on_c, 4, 59, 95
4, 13920, Note_on_c, 4, 55, 95
4, 13920, Note_on_c, 4, 50, 95
4, 13920, Note_on_c, 4, 43, 95
4, 14160, Note_off_c, 4, 59, 80
4, 14160, Note_off_c, 4, 55, 80
4, 14160, Note_off_c, 4, 50, 80
4, 14160, Note_off_c, 4, 43, 80
4, 14400, Note_on_c, 4, 62, 95
4, 14400, Note_on_c, 4, 59, 95
4, 14400, Note_on_c, 4, 54, 95
4, 14400, Note_on_c, 4, 43, 95
4, 14640, Note_off_c, 4, 62, 80
4, 14640, Note_off_c, 4, 59, 80
4, 14640, Note_off_c, 4, 54, 80
4, 14640, Note_off_c, 4, 43, 80
4, 14880, Note_on_c, 4, 62, 95
4, 14880, Note_on_c, 4, 59, 95
4, 14880, Note_on_c, 4, 54, 95
4, 14880, Note_on_c, 4, 43, 95
4, 15120, Note_off_c, 4, 62, 80
4, 15120, Note_off_c, 4, 59, 80
4, 15120, Note_off_c, 4, 54, 80
4, 15120, Note_off_c, 4, 43, 80
4, 15360, Note_on_c, 4, 55, 95
4, 15360, Note_on_c, 4, 52, 95
4, 15360, Note_on_c, 4, 47, 95
4, 15600, Note_off_c, 4, 55, 80
4, 15600, Note_off_c, 4, 52, 80
4, 15600, Note_off_c, 4, 47, 80
4, 15840, Note_on_c, 4, 55, 95
4, 15840, Note_on_c, 4, 52, 95
4, 15840, Note_on_c, 4, 47, 95
4, 16080, Note_off_c, 4, 55, 80
4, 16080, Note_off_c, 4, 52, 80
4, 16080, Note_off_c, 4, 47, 80
4, 16320, Note_on_c, 4, 59, 95
4, 16320, Note_on_c, 4, 55, 95
4, 16320, Note_on_c, 4, 50, 95
4, 16560, Note_off_c, 4, 59, 80
4, 16560, Note_off_c, 4, 55, 80
4, 16560, Note_off_c, 4, 50, 80
4, 16800, Note_on_c, 4, 59, 95
4, 16800, Note_on_c, 4, 55, 95
4, 16800, Note_on_c, 4, 50, 95
4, 17040, Note_off_c, 4, 59, 80
4, 17040, Note_off_c, 4, 55, 80
4, 17040, Note_off_c, 4, 50, 80
4, 17280, Note_on_c, 4, 63, 95
4, 17280, Note_on_c, 4, 58, 95
4, 17280, Note_on_c, 4, 51, 95
4, 17280, Note_on_c, 4, 46, 95
4, 17520, Note_off_c, 4, 63, 80
4, 17520, Note_off_c, 4, 58, 80
4, 17520, Note_off_c, 4, 51, 80
4, 17520, Note_off_c, 4, 46, 80
4, 17760, Note_on_c, 4, 63, 95
4, 17760, Note_on_c, 4, 58, 95
4, 17760, Note_on_c, 4, 51, 95
4, 17760, Note_on_c, 4, 46, 95
4, 18000, Note_off_c, 4, 63, 80
4, 18000, Note_off_c, 4, 58, 80
4, 18000, Note_off_c, 4, 51, 80
4, 18000, Note_off_c, 4, 46, 80
4, 18240, Note_on_c, 4, 62, 95
4, 18240, Note_on_c, 4, 57, 95
4, 18240, Note_on_c, 4, 50, 95
4, 18240, Note_on_c, 4, 45, 95
4, 18480, Note_off_c, 4, 62, 80
4, 18480, Note_off_c, 4, 57, 80
4, 18480, Note_off_c, 4, 50, 80
4, 18480, Note_off_c, 4, 45, 80
4, 18720, Note_on_c, 4, 62, 95
4, 18720, Note_on_c, 4, 57, 95
4, 18720, Note_on_c, 4, 50, 95
4, 18720, Note_on_c, 4, 45, 95
4, 18960, Note_off_c, 4, 62, 80
4, 18960, Note_off_c, 4, 57, 80
4, 18960, Note_off_c, 4, 50, 80
4, 18960, Note_off_c, 4, 45, 80
4, 19200, Note_on_c, 4, 62, 95
4, 19200, Note_on_c, 4, 59, 95
4, 19200, Note_on_c, 4, 54, 95
4, 19200, Note_on_c, 4, 47, 95
4, 19440, Note_off_c, 4, 62, 80
4, 19440, Note_off_c, 4, 59, 80
4, 19440, Note_off_c, 4, 54, 80
4, 19440, Note_off_c, 4, 47, 80
4, 19680, Note_on_c, 4, 62, 95
4, 19680, Note_on_c, 4, 59, 95
4, 19680, Note_on_c, 4, 54, 95
4, 19680, Note_on_c, 4, 47, 95
4, 19920, Note_off_c, 4, 62, 80
4, 19920, Note_off_c, 4, 59, 80
4, 19920, Note_off_c, 4, 54, 80
4, 19920, Note_off_c, 4, 47, 80
4, 20160, Note_on_c, 4, 64, 95
4, 20160, Note_on_c, 4, 60, 95
4, 20160, Note_on_c, 4, 55, 95
4, 20160, Note_on_c, 4, 48, 95
4, 20400, Note_off_c, 4, 64, 80
4, 20400, Note_off_c, 4, 60, 80
4, 20400, Note_off_c, 4, 55, 80
4, 20400, Note_off_c, 4, 48, 80
4, 20640, Note_on_c, 5, 59, 95
4, 20640, Pitch_bend_c, 5, 8192
4, 20656, Pitch_bend_c, 5, 8320
4, 20672, Pitch_bend_c, 5, 8448
4, 20688, Pitch_bend_c, 5, 8704
4, 20704, Pitch_bend_c, 5, 8832
4, 20784, Pitch_bend_c, 5, 8576
4, 20800, Pitch_bend_c, 5, 8320
4, 20816, Pitch_bend_c, 5, 8192
4, 20880, Note_off_c, 5, 59, 80
4, 20880, Pitch_bend_c, 5, 8192
4, 20880, Note_on_c, 4, 57, 95
4, 21000, Note_off_c, 4, 57, 80
4, 21000, Note_on_c, 4, 55, 76
4, 21120, Note_off_c, 4, 55, 80
4, 21120, Note_on_c, 4, 40, 95
4, 21360, Note_off_c, 4, 40, 80
4, 21360, Note_on_c, 4, 45, 95
4, 21480, Note_off_c, 4, 45, 80
4, 21480, Note_on_c, 4, 47, 76
4, 21600, Note_off_c, 4, 47, 80
4, 21600, Note_on_c, 4, 50, 95
4, 21680, Note_off_c, 4, 50, 80
4, 21680, Note_on_c, 4, 52, 76
4, 21760, Note_off_c, 4, 52, 80
4, 21760, Note_on_c, 4, 50, 76
4, 21840, Note_off_c, 4, 50, 80
4, 21840, Note_on_c, 4, 47, 95
4, 21960, Note_off_c, 4, 47, 80
4, 21960, Note_on_c, 4, 45, 76
4, 22080, Note_off_c, 4, 45, 80
4, 22080, Note_on_c, 4, 62, 95
4, 22080, Note_on_c, 4, 57, 95
4, 22080, Note_on_c, 4, 50, 95
4, 22560, Note_off_c, 4, 62, 80
4, 22560, Note_off_c, 4, 57, 80
4, 22560, Note_off_c, 4, 50, 80
4, 22560, Note_on_c, 4, 57, 95
4, 22680, Note_off_c, 4, 57, 80
4, 22680, Note_on_c, 4, 55, 76
4, 22800, Note_off_c, 4, 55, 80
4, 22800, Note_on_c, 4, 54, 95
4, 22920, Note_off_c, 4, 54, 80
4, 22920, Note_on_c, 4, 50, 76
4, 23040, Note_off_c, 4, 50, 80
4, 23040, Note_on_c, 4, 40, 95
4, 23280, Note_off_c, 4, 40, 80
4, 23280, Note_on_c, 4, 45, 95
4, 23400, Note_off_c, 4, 45, 80
4, 23400, Note_on_c, 4, 47, 76
4, 23520, Note_off_c, 4, 47, 80
4, 23520, Note_on_c, 4, 50, 95
4, 23600, Note_off_c, 4, 50, 80
4, 23600, Note_on_c, 4, 52, 76
4, 23680, Note_off_c, 4, 52, 80
4, 23680, Note_on_c, 4, 50, 76
4, 23760, Note_off_c, 4, 50, 80
4, 23760, Note_on_c, 4, 47, 95
4, 23880, Note_off_c, 4, 47, 80
4, 23880, Note_on_c, 4, 45, 76
4, 24000, Note_off_c, 4, 45, 80
4, 24000, Note_on_c, 4, 62, 95
4, 24000, Note_on_c, 4, 57, 95
4, 24000, Note_on_c, 4, 50, 95
4, 24480, Note_off_c, 4, 62, 80
4, 24480, Note_off_c, 4, 57, 80
4, 24480, Note_off_c, 4, 50, 80
4, 24480, Note_on_c, 4, 57, 95
4, 24600, Note_off_c, 4, 57, 80
4, 24600, Note_on_c, 4, 55, 76
4, 24720, Note_off_c, 4, 55, 80
4, 24720, Note_on_c, 4, 54, 95
4, 24840, Note_off_c, 4, 54, 80
4, 24840, Note_on_c, 4, 50, 76
4, 24960, Note_off_c, 4, 50, 80
4, 24960, Note_on_c, 4, 40, 95
4, 25200, Note_off_c, 4, 40, 80
4, 25200, Note_on_c, 4, 45, 95
4, 25320, Note_off_c, 4, 45, 80
4, 25320, Note_on_c, 4, 47, 76
4, 25440, Note_off_c, 4, 47, 80
4, 25440, Note_on_c, 4, 50, 95
4, 25520, Note_off_c, 4, 50, 80
4, 25520, Note_on_c, 4, 52, 76
4, 25600, Note_off_c, 4, 52, 80
4, 25600, Note_on_c, 4, 50, 76
4, 25680, Note_off_c, 4, 50, 80
4, 25680, Note_on_c, 4, 47, 95
4, 25800, Note_off_c, 4, 47, 80
4, 25800, Note_on_c, 4, 45, 76
4, 25920, Note_off_c, 4, 45, 80
4, 25920, Note_on_c, 4, 62, 95
4, 25920, Note_on_c, 4, 57, 95
4, 25920, Note_on_c, 4, 50, 95
4, 26280, Note_off_c, 4, 62, 80
4, 26280, Note_off_c, 4, 57, 80
4, 26280, Note_off_c, 4, 50, 80
4, 26280, Note_on_c, 4, 66, 95
4, 26280, Note_on_c, 4, 62, 95
4, 26280, Note_on_c, 4, 50, 95
4, 26400, Note_off_c, 4, 66, 80
4, 26400, Note_off_c, 4, 62, 80
4, 26400, Note_off_c, 4, 50, 80
4, 26520, Note_on_c, 4, 71, 95
4, 26520, Note_on_c, 4, 67, 95
4, 26520, Note_on_c, 4, 62, 95
4, 26760, Note_off_c, 4, 71, 80
4, 26760, Note_off_c, 4, 67, 80
4, 26760, Note_off_c, 4, 62, 80
4, 26760, Note_on_c, 4, 66, 95
4, 26760, Note_on_c, 4, 62, 95
4, 26760, Note_on_c, 4, 50, 95
4, 26880, Note_off_c, 4, 66, 80
4, 26880, Note_off_c, 4, 62, 80
4, 26880, Note_off_c, 4, 50, 80
4, 26880, Note_on_c, 4, 64, 95
4, 26880, Note_on_c, 4, 60, 95
4, 26880, Note_on_c, 4, 55, 95
4, 26880, Note_on_c, 4, 52, 95
4, 27360, Note_off_c, 4, 64, 80
4, 27360, Note_off_c, 4, 60, 80
4, 27360, Note_off_c, 4, 55, 80
4, 27360, Note_off_c, 4, 52, 80
4, 27360, Note_on_c, 4, 64, 95
4, 27360, Note_on_c, 4, 60, 95
4, 27360, Note_on_c, 4, 55, 95
4, 27360, Note_on_c, 4, 52, 95
4, 27840, Note_off_c, 4, 64, 80
4, 27840, Note_off_c, 4, 60, 80
4, 27840, Note_off_c, 4, 55, 80
4, 27840, Note_off_c, 4, 52, 80
4, 27840, Note_on_c, 4, 64, 95
4, 27840, Note_on_c, 4, 60, 95
4, 27840, Note_on_c, 4, 55, 95
4, 27840, Note_on_c, 4, 52, 95
4, 28440, Note_off_c, 4, 64, 80
4, 28440, Note_off_c, 4, 60, 80
4, 28440, Note_off_c, 4, 55, 80
4, 28440, Note_off_c, 4, 52, 80
4, 28440, Note_on_c, 4, 59, 95
4, 28440, Note_on_c, 4, 55, 95
4, 28440, Note_on_c, 4, 50, 95
4, 28800, Note_off_c, 4, 59, 80
4, 28800, Note_off_c, 4, 55, 80
4, 28800, Note_off_c, 4, 50, 80
4, 28800, Note_on_c, 4, 64, 95
4, 28800, Note_on_c, 4, 60, 95
4, 28800, Note_on_c, 4, 55, 95
4, 28800, Note_on_c, 4, 52, 95
4, 29280, Note_off_c, 4, 64, 80
4, 29280, Note_off_c, 4, 60, 80
4, 29280, Note_off_c, 4, 55, 80
4, 29280, Note_off_c, 4, 52, 80
4, 29280, Note_on_c, 4, 64, 95
4, 29280, Note_on_c, 4, 60, 95
4, 29280, Note_on_c, 4, 55, 95
4, 29280, Note_on_c, 4, 52, 95
4, 29760, Note_off_c, 4, 64, 80
4, 29760, Note_off_c, 4, 60, 80
4, 29760, Note_off_c, 4, 55, 80
4, 29760, Note_off_c, 4, 52, 80
4, 29760, Note_on_c, 4, 64, 95
4, 29760, Note_on_c, 4, 60, 95
4, 29760, Note_on_c, 4, 55, 95
4, 29760, Note_on_c, 4, 52, 95
4, 30240, Note_off_c, 4, 64, 80
4, 30240, Note_off_c, 4, 60, 80
4, 30240, Note_off_c, 4, 55, 80
4, 30240, Note_off_c, 4, 52, 80
4, 30240, Note_on_c, 4, 60, 95
4, 30360, Note_off_c, 4, 60, 80
4, 30360, Note_on_c, 4, 59, 76
4, 30480, Note_off_c, 4, 59, 80
4, 30480, Note_on_c, 4, 57, 95
4, 30600, Note_off_c, 4, 57, 80
4, 30600, Note_on_c, 4, 55, 76
4, 30720, Note_off_c, 4, 55, 80
4, 30720, Note_on_c, 4, 59, 95
4, 30720, Note_on_c, 4, 55, 95
4, 30720, Note_on_c, 4, 50, 95
4, 30720, Note_on_c, 4, 43, 95
4, 30960, Note_off_c, 4, 59, 80
4, 30960, Note_off_c, 4, 55, 80
4, 30960, Note_off_c, 4, 50, 80
4, 30960, Note_off_c, 4, 43, 80
4, 31200, Note_on_c, 4, 59, 95
4, 31200, Note_on_c, 4, 55, 95
4, 31200, Note_on_c, 4, 50, 95
4, 31200, Note_on_c, 4, 43, 95
4, 31440, Note_off_c, 4, 59, 80
4, 31440, Note_off_c, 4, 55, 80
4, 31440, Note_off_c, 4, 50, 80
4, 31440, Note_off_c, 4, 43, 80
4, 31680, Note_on_c, 4, 62, 95
4, 31680, Note_on_c, 4, 59, 95
4, 31680, Note_on_c, 4, 54, 95
4, 31680, Note_on_c, 4, 43, 95
4, 31920, Note_off_c, 4, 62, 80
4, 31920, Note_off_c, 4, 59, 80
4, 31920, Note_off_c, 4, 54, 80
4, 31920, Note_off_c, 4, 43, 80
4, 32160, Note_on_c, 4, 62, 95
4, 32160, Note_on_c, 4, 59, 95
4, 32160, Note_on_c, 4, 54, 95
4, 32160, Note_on_c, 4, 43, 95
4, 32400, Note_off_c, 4, 62, 80
4, 32400, Note_off_c, 4, 59, 80
4, 32400, Note_off_c, 4, 54, 80
4, 32400, Note_off_c, 4, 43, 80
4, 32640, Note_on_c, 4, 55, 95
4, 32640, Note_on_c, 4, 52, 95
4, 32640, Note_on_c, 4, 47, 95
4, 32880, Note_off_c, 4, 55, 80
4, 32880, Note_off_c, 4, 52, 80
4, 32880, Note_off_c, 4, 47, 80
4, 33120, Note_on_c, 4, 55, 95
4, 33120, Note_on_c, 4, 52, 95
4, 33120, Note_on_c, 4, 47, 95
4, 33360, Note_off_c, 4, 55, 80
4, 33360, Note_off_c, 4, 52, 80
4, 33360, Note_off_c, 4, 47, 80
4, 33600, Note_on_c, 4, 59, 95
4, 33600, Note_on_c, 4, 55, 95
4, 33600, Note_on_c, 4, 50, 95
4, 33840, Note_off_c, 4, 59, 80
4, 33840, Note_off_c, 4, 55, 80
4, 33840, Note_off_c, 4, 50, 80
4, 34080, Note_on_c, 4, 59, 95
4, 34080, Note_on_c, 4, 55, 95
4, 34080, Note_on_c, 4, 50, 95
4, 34320, Note_off_c, 4, 59, 80
4, 34320, Note_off_c, 4, 55, 80
4, 34320, Note_off_c, 4, 50, 80
4, 34560, Note_on_c, 4, 63, 95
4, 34560, Note_on_c, 4, 58, 95
4, 34560, Note_on_c, 4, 51, 95
4, 34560, Note_on_c, 4, 46, 95
4, 34800, Note_off_c, 4, 63, 80
4, 34800, Note_off_c, 4, 58, 80
4, 34800, Note_off_c, 4, 51, 80
4, 34800, Note_off_c, 4, 46, 80
4, 35040, Note_on_c, 4, 63, 95
4, 35040, Note_on_c, 4, 58, 95
4, 35040, Note_on_c, 4, 51, 95
4, 35040, Note_on_c, 4, 46, 95
4, 35280, Note_off_c, 4, 63, 80
4, 35280, Note_off_c, 4, 58, 80
4, 35280, Note_off_c, 4, 51, 80
4, 35280, Note_off_c, 4, 46, 80
4, 35520, Note_on_c, 4, 62, 95
4, 35520, Note_on_c, 4, 57, 95
4, 35520, Note_on_c, 4, 50, 95
4, 35520, Note_on_c, 4, 45, 95
4, 35760, Note_off_c, 4, 62, 80
4, 35760, Note_off_c, 4, 57, 80
4, 35760, Note_off_c, 4, 50, 80
4, 35760, Note_off_c, 4, 45, 80
4, 36000, Note_on_c, 4, 62, 95
4, 36000, Note_on_c, 4, 57, 95
4, 36000, Note_on_c, 4, 50, 95
4, 36000, Note_on_c, 4, 45, 95
4, 36240, Note_off_c, 4, 62, 80
4, 36240, Note_off_c, 4, 57, 80
4, 36240, Note_off_c, 4, 50, 80
4, 36240, Note_off_c, 4, 45, 80
4, 36480, Note_on_c, 4, 62, 95
4, 36480, Note_on_c, 4, 59, 95
4, 36480, Note_on_c, 4, 54, 95
4, 36480, Note_on_c, 4, 47, 95
4, 36720, Note_off_c, 4, 62, 80
4, 36720, Note_off_c, 4, 59, 80
4, 36720, Note_off_c, 4, 54, 80
4, 36720, Note_off_c, 4, 47, 80
4, 36960, Note_on_c, 4, 62, 95
4, 36960, Note_on_c, 4, 59, 95
4, 36960, Note_on_c, 4, 54, 95
4, 36960, Note_on_c, 4, 47, 95
4, 37200, Note_off_c, 4, 62, 80
4, 37200, Note_off_c, 4, 59, 80
4, 37200, Note_off_c, 4, 54, 80
4, 37200, Note_off_c, 4, 47, 80
4, 37440, Note_on_c, 4, 64, 95
4, 37440, Note_on_c, 4, 60, 95
4, 37440, Note_on_c, 4, 55, 95
4, 37440, Note_on_c, 4, 48, 95
4, 37680, Note_off_c, 4, 64, 80
4, 37680, Note_off_c, 4, 60, 80
4, 37680, Note_off_c, 4, 55, 80
4, 37680, Note_off_c, 4, 48, 80
4, 37920, Note_on_c, 5, 59, 95
4, 37920, Pitch_bend_c, 5, 8192
4, 37936, Pitch_bend_c, 5, 8320
4, 37952, Pitch_bend_c, 5, 8448
4, 37968, Pitch_bend_c, 5, 8704
4, 37984, Pitch_bend_c, 5, 8832
4, 38064, Pitch_bend_c, 5, 8576
4, 38080, Pitch_bend_c, 5, 8320
4, 38096, Pitch_bend_c, 5, 8192
4, 38160, Note_off_c, 5, 59, 80
4, 38160, Pitch_bend_c, 5, 8192
4, 38160, Note_on_c, 4, 57, 95
4, 38280, Note_off_c, 4, 57, 80
4, 38280, Note_on_c, 4, 55, 76
4, 38400, Note_off_c, 4, 55, 80
4, 38400, Note_on_c, 4, 59, 95
4, 38400, Note_on_c, 4, 55, 95
4, 38400, Note_on_c, 4, 50, 95
4, 38400, Note_on_c, 4, 43, 95
4, 38640, Note_off_c, 4, 59, 80
4, 38640, Note_off_c, 4, 55, 80
4, 38640, Note_off_c, 4, 50, 80
4, 38640, Note_off_c, 4, 43, 80
4, 38880, Note_on_c, 4, 59, 95
4, 38880, Note_on_c, 4, 55, 95
4, 38880, Note_on_c, 4, 50, 95
4, 38880, Note_on_c, 4, 43, 95
4, 39120, Note_off_c, 4, 59, 80
4, 39120, Note_off_c, 4, 55, 80
4, 39120, Note_off_c, 4, 50, 80
4, 39120, Note_off_c, 4, 43, 80
4, 39360, Note_on_c, 4, 62, 95
4, 39360, Note_on_c, 4, 59, 95
4, 39360, Note_on_c, 4, 54, 95
4, 39360, Note_on_c, 4, 43, 95
4, 39600, Note_off_c, 4, 62, 80
4, 39600, Note_off_c, 4, 59, 80
4, 39600, Note_off_c, 4, 54, 80
4, 39600, Note_off_c, 4, 43, 80
4, 39840, Note_on_c, 4, 62, 95
4, 39840, Note_on_c, 4, 59, 95
4, 39840, Note_on_c, 4, 54, 95
4, 39840, Note_on_c, 4, 43, 95
4, 40080, Note_off_c, 4, 62, 80
4, 40080, Note_off_c, 4, 59, 80
4, 40080, Note_off_c, 4, 54, 80
4, 40080, Note_off_c, 4, 43, 80
4, 40320, Note_on_c, 4, 55, 95
4, 40320, Note_on_c, 4, 52, 95
4, 40320, Note_on_c, 4, 47, 95
4, 40560, Note_off_c, 4, 55, 80
4, 40560, Note_off_c, 4, 52, 80
4, 40560, Note_off_c, 4, 47, 80
4, 40800, Note_on_c, 4, 55, 95
4, 40800, Note_on_c, 4, 52, 95
4, 40800, Note_on_c, 4, 47, 95
4, 41040, Note_off_c, 4, 55, 80
4, 41040, Note_off_c, 4, 52, 80
4, 41040, Note_off_c, 4, 47, 80
4, 41280, Note_on_c, 4, 59, 95
4, 41280, Note_on_c, 4, 55, 95
4, 41280, Note_on_c, 4, 50, 95
4, 41520, Note_off_c, 4, 59, 80
4, 41520, Note_off_c, 4, 55, 80
4, 41520, Note_off_c, 4, 50, 80
4, 41760, Note_on_c, 4, 59, 95
4, 41760, Note_on_c, 4, 55, 95
4, 41760, Note_on_c, 4, 50, 95
4, 42000, Note_off_c, 4, 59, 80
4, 42000, Note_off_c, 4, 55, 80
4, 42000, Note_off_c, 4, 50, 80
4, 42240, Note_on_c, 4, 63, 95
4, 42240, Note_on_c, 4, 58, 95
4, 42240, Note_on_c, 4, 51, 95
4, 42240, Note_on_c, 4, 46, 95
4, 42480, Note_off_c, 4, 63, 80
4, 42480, Note_off_c, 4, 58, 80
4, 42480, Note_off_c, 4, 51, 80
4, 42480, Note_off_c, 4, 46, 80
4, 42720, Note_on_c, 4, 63, 95
4, 42720, Note_on_c, 4, 58, 95
4, 42720, Note_on_c, 4, 51, 95
4, 42720, Note_on_c, 4, 46, 95
4, 42960, Note_off_c, 4, 63, 80
4, 42960, Note_off_c, 4, 58, 80
4, 42960, Note_off_c, 4, 51, 80
4, 42960, Note_off_c, 4, 46, 80
4, 43200, Note_on_c, 4, 62, 95
4, 43200, Note_on_c, 4, 57, 95
4, 43200, Note_on_c, 4, 50, 95
4, 43200, Note_on_c, 4, 45, 95
4, 43440, Note_off_c, 4, 62, 80
4, 43440, Note_off_c, 4, 57, 80
4, 43440, Note_off_c, 4, 50, 80
4, 43440, Note_off_c, 4, 45, 80
4, 43680, Note_on_c, 4, 62, 95
4, 43680, Note_on_c, 4, 57, 95
4, 43680, Note_on_c, 4, 50, 95
4, 43680, Note_on_c, 4, 45, 95
4, 43920, Note_off_c, 4, 62, 80
4, 43920, Note_off_c, 4, 57, 80
4, 43920, Note_off_c, 4, 50, 80
4, 43920, Note_off_c, 4, 45, 80
4, 44160, Note_on_c, 4, 62, 95
4, 44160, Note_on_c, 4, 59, 95
4, 44160, Note_on_c, 4, 54, 95
4, 44160, Note_on_c, 4, 47, 95
4, 44400, Note_off_c, 4, 62, 80
4, 44400, Note_off_c, 4, 59, 80
4, 44400, Note_off_c, 4, 54, 80
4, 44400, Note_off_c, 4, 47, 80
4, 44640, Note_on_c, 4, 62, 95
4, 44640, Note_on_c, 4, 59, 95
4, 44640, Note_on_c, 4, 54, 95
4, 44640, Note_on_c, 4, 47, 95
4, 44880, Note_off_c, 4, 62, 80
4, 44880, Note_off_c, 4, 59, 80
4, 44880, Note_off_c, 4, 54, 80
4, 44880, Note_off_c, 4, 47, 80
4, 45120, Note_on_c, 4, 64, 95
4, 45120, Note_on_c, 4, 60, 95
4, 45120, Note_on_c, 4, 55, 95
4, 45120, Note_on_c, 4, 48, 95
4, 45360, Note_off_c, 4, 64, 80
4, 45360, Note_off_c, 4, 60, 80
4, 45360, Note_off_c, 4, 55, 80
4, 45360, Note_off_c, 4, 48, 80
4, 45600, Note_on_c, 5, 59, 95
4, 45600, Pitch_bend_c, 5, 8192
4, 45616, Pitch_bend_c, 5, 8320
4, 45632, Pitch_bend_c, 5, 8448
4, 45648, Pitch_bend_c, 5, 8704
4, 45664, Pitch_bend_c, 5, 8832
4, 45744, Pitch_bend_c, 5, 8576
4, 45760, Pitch_bend_c, 5, 8320
4, 45776, Pitch_bend_c, 5, 8192
4, 45840, Note_off_c, 5, 59, 80
4, 45840, Pitch_bend_c, 5, 8192
4, 45840, Note_on_c, 4, 57, 95
4, 45960, Note_off_c, 4, 57, 80
4, 45960, Note_on_c, 4, 55, 76
4, 46080, Note_off_c, 4, 55, 80
4, 46080, Note_on_c, 4, 40, 95
4, 46320, Note_off_c, 4, 40, 80
4, 46320, Note_on_c, 4, 45, 95
4, 46440, Note_off_c, 4, 45, 80
4, 46440, Note_on_c, 4, 47, 76
4, 46560, Note_off_c, 4, 47, 80
4, 46560, Note_on_c, 4, 50, 95
4, 46640, Note_off_c, 4, 50, 80
4, 46640, Note_on_c, 4, 52, 76
4, 46720, Note_off_c, 4, 52, 80
4, 46720, Note_on_c, 4, 50, 76
4, 46800, Note_off_c, 4, 50, 80
4, 46800, Note_on_c, 4, 47, 95
4, 46920, Note_off_c, 4, 47, 80
4, 46920, Note_on_c, 4, 45, 76
4, 47040, Note_off_c, 4, 45, 80
4, 47040, Note_on_c, 4, 62, 95
4, 47040, Note_on_c, 4, 57, 95
4, 47040, Note_on_c, 4, 50, 95
4, 47520, Note_off_c, 4, 62, 80
4, 47520, Note_off_c, 4, 57, 80
4, 47520, Note_off_c, 4, 50, 80
4, 47520, Note_on_c, 4, 57, 95
4, 47640, Note_off_c, 4, 57, 80
4, 47640, Note_on_c, 4, 55, 76
4, 47760, Note_off_c, 4, 55, 80
4, 47760, Note_on_c, 4, 54, 95
4, 47880, Note_off_c, 4, 54, 80
4, 47880, Note_on_c, 4, 50, 76
4, 48000, Note_off_c, 4, 50, 80
4, 48000, Note_on_c, 4, 40, 95
4, 48240, Note_off_c, 4, 40, 80
4, 48240, Note_on_c, 4, 45, 95
4, 48360, Note_off_c, 4, 45, 80
4, 48360, Note_on_c, 4, 47, 76
4, 48480, Note_off_c, 4, 47, 80
4, 48480, Note_on_c, 4, 50, 95
4, 48560, Note_off_c, 4, 50, 80
4, 48560, Note_on_c, 4, 52, 76
4, 48640, Note_off_c, 4, 52, 80
4, 48640, Note_on_c, 4, 50, 76
4, 48720, Note_off_c, 4, 50, 80
4, 48720, Note_on_c, 4, 47, 95
4, 48840, Note_off_c, 4, 47, 80
4, 48840, Note_on_c, 4, 45, 76
4, 48960, Note_off_c, 4, 45, 80
4, 48960, Note_on_c, 4, 62, 95
4, 48960, Note_on_c, 4, 57, 95
4, 48960, Note_on_c, 4, 50, 95
4, 49440, Note_off_c, 4, 62, 80
4, 49440, Note_off_c, 4, 57, 80
4, 49440, Note_off_c, 4, 50, 80
4, 49440, Note_on_c, 4, 57, 95
4, 49560, Note_off_c, 4, 57, 80
4, 49560, Note_on_c, 4, 55, 76
4, 49680, Note_off_c, 4, 55, 80
4, 49680, Note_on_c, 4, 54, 95
4, 49800, Note_off_c, 4, 54, 80
4, 49800, Note_on_c, 4, 50, 76
4, 49920, Note_off_c, 4, 50, 80
4, 49920, Note_on_c, 4, 40, 95
4, 50160, Note_off_c, 4, 40, 80
4, 50160, Note_on_c, 4, 45, 95
4, 50280, Note_off_c, 4, 45, 80
4, 50280, Note_on_c, 4, 47, 76
4, 50400, Note_off_c, 4, 47, 80
4, 50400, Note_on_c, 4, 50, 95
4, 50480, Note_off_c, 4, 50, 80
4, 50480, Note_on_c, 4, 52, 76
4, 50560, Note_off_c, 4, 52, 80
4, 50560, Note_on_c, 4, 50, 76
4, 50640, Note_off_c, 4, 50, 80
4, 50640, Note_on_c, 4, 47, 95
4, 50760, Note_off_c, 4, 47, 80
4, 50760, Note_on_c, 4, 45, 76
4, 50880, Note_off_c, 4, 45, 80
4, 50880, Note_on_c, 4, 62, 95
4, 50880, Note_on_c, 4, 57, 95
4, 50880, Note_on_c, 4, 50, 95
4, 51240, Note_off_c, 4, 62, 80
4, 51240, Note_off_c, 4, 57, 80
4, 51240, Note_off_c, 4, 50, 80
4, 51240, Note_on_c, 4, 66, 95
4, 51240, Note_on_c, 4, 62, 95
4, 51240, Note_on_c, 4, 50, 95
4, 51360, Note_off_c, 4, 66, 80
4, 51360, Note_off_c, 4, 62, 80
4, 51360, Note_off_c, 4, 50, 80
4, 51480, Note_on_c, 4, 71, 95
4, 51480, Note_on_c, 4, 67, 95
4, 51480, Note_on_c, 4, 62, 95
4, 51720, Note_off_c, 4, 71, 80
4, 51720, Note_off_c, 4, 67, 80
4, 51720, Note_off_c, 4, 62, 80
4, 51720, Note_on_c, 4, 66, 95
4, 51720, Note_on_c, 4, 62, 95
4, 51720, Note_on_c, 4, 50, 95
4, 51840, Note_off_c, 4, 66, 80
4, 51840, Note_off_c, 4, 62, 80
4, 51840, Note_off_c, 4, 50, 80
4, 51840, Note_on_c, 4, 64, 95
4, 51840, Note_on_c, 4, 60, 95
4, 51840, Note_on_c, 4, 55, 95
4, 51840, Note_on_c, 4, 52, 95
4, 52320, Note_off_c, 4, 64, 80
4, 52320, Note_off_c, 4, 60, 80
4, 52320, Note_off_c, 4, 55, 80
4, 52320, Note_off_c, 4, 52, 80
4, 52320, Note_on_c, 4, 64, 95
4, 52320, Note_on_c, 4, 60, 95
4, 52320, Note_on_c, 4, 55, 95
4, 52320, Note_on_c, 4, 52, 95
4, 52800, Note_off_c, 4, 64, 80
4, 52800, Note_off_c, 4, 60, 80
4, 52800, Note_off_c, 4, 55, 80
4, 52800, Note_off_c, 4, 52, 80
4, 52800, Note_on_c, 4, 64, 95
4, 52800, Note_on_c, 4, 60, 95
4, 52800, Note_on_c, 4, 55, 95
4, 52800, Note_on_c, 4, 52, 95
4, 53400, Note_off_c, 4, 64, 80
4, 53400, Note_off_c, 4, 60, 80
4, 53400, Note_off_c, 4, 55, 80
4, 53400, Note_off_c, 4, 52, 80
4, 53400, Note_on_c, 4, 59, 95
4, 53400, Note_on_c, 4, 55, 95
4, 53400, Note_on_c, 4, 50, 95
4, 53760, Note_off_c, 4, 59, 80
4, 53760, Note_off_c, 4, 55, 80
4, 53760, Note_off_c, 4, 50, 80
4, 53760, Note_on_c, 4, 64, 95
4, 53760, Note_on_c, 4, 60, 95
4, 53760, Note_on_c, 4, 55, 95
4, 53760, Note_on_c, 4, 52, 95
4, 54240, Note_off_c, 4, 64, 80
4, 54240, Note_off_c, 4, 60, 80
4, 54240, Note_off_c, 4, 55, 80
4, 54240, Note_off_c, 4, 52, 80
4, 54240, Note_on_c, 4, 64, 95
4, 54240, Note_on_c, 4, 60, 95
4, 54240, Note_on_c, 4, 55, 95
4, 54240, Note_on_c, 4, 52, 95
4, 54720, Note_off_c, 4, 64, 80
4, 54720, Note_off_c, 4, 60, 80
4, 54720, Note_off_c, 4, 55, 80
4, 54720, Note_off_c, 4, 52, 80
4, 54720, Note_on_c, 4, 64, 95
4, 54720, Note_on_c, 4, 60, 95
4, 54720, Note_on_c, 4, 55, 95
4, 54720, Note_on_c, 4, 52, 95
4, 55200, Note_off_c, 4, 64, 80
4, 55200, Note_off_c, 4, 60, 80
4, 55200, Note_off_c, 4, 55, 80
4, 55200, Note_off_c, 4, 52, 80
4, 55200, Note_on_c, 4, 60, 95
4, 55320, Note_off_c, 4, 60, 80
4, 55320, Note_on_c, 4, 59, 76
4, 55440, Note_off_c, 4, 59, 80
4, 55440, Note_on_c, 4, 57, 95
4, 55560, Note_off_c, 4, 57, 80
4, 55560, Note_on_c, 4, 55, 76
4, 55680, Note_off_c, 4, 55, 80
4, 55680, Note_on_c, 4, 59, 95
4, 55680, Note_on_c, 4, 55, 95
4, 55680, Note_on_c, 4, 50, 95
4, 55680, Note_on_c, 4, 43, 95
4, 55920, Note_off_c, 4, 59, 80
4, 55920, Note_off_c, 4, 55, 80
4, 55920, Note_off_c, 4, 50, 80
4, 55920, Note_off_c, 4, 43, 80
4, 56160, Note_on_c, 4, 59, 95
4, 56160, Note_on_c, 4, 55, 95
4, 56160, Note_on_c, 4, 50, 95
4, 56160, Note_on_c, 4, 43, 95
4, 56400, Note_off_c, 4, 59, 80
4, 56400, Note_off_c, 4, 55, 80
4, 56400, Note_off_c, 4, 50, 80
4, 56400, Note_off_c, 4, 43, 80
4, 56640, Note_on_c, 4, 62, 95
4, 56640, Note_on_c, 4, 59, 95
4, 56640, Note_on_c, 4, 54, 95
4, 56640, Note_on_c, 4, 43, 95
4, 56880, Note_off_c, 4, 62, 80
4, 56880, Note_off_c, 4, 59, 80
4, 56880, Note_off_c, 4, 54, 80
4, 56880, Note_off_c, 4, 43, 80
4, 57120, Note_on_c, 4, 62, 95
4, 57120, Note_on_c, 4, 59, 95
4, 57120, Note_on_c, 4, 54, 95
4, 57120, Note_on_c, 4, 43, 95
4, 57360, Note_off_c, 4, 62, 80
4, 57360, Note_off_c, 4, 59, 80
4, 57360, Note_off_c, 4, 54, 80
4, 57360, Note_off_c, 4, 43, 80
4, 57600, Note_on_c, 4, 55, 95
4, 57600, Note_on_c, 4, 52, 95
4, 57600, Note_on_c, 4, 47, 95
4, 57840, Note_off_c, 4, 55, 80
4, 57840, Note_off_c, 4, 52, 80
4, 57840, Note_off_c, 4, 47, 80
4, 58080, Note_on_c, 4, 55, 95
4, 58080, Note_on_c, 4, 52, 95
4, 58080, Note_on_c, 4, 47, 95
4, 58320, Note_off_c, 4, 55, 80
4, 58320, Note_off_c, 4, 52, 80
4, 58320, Note_off_c, 4, 47, 80
4, 58560, Note_on_c, 4, 59, 95
4, 58560, Note_on_c, 4, 55, 95
4, 58560, Note_on_c, 4, 50, 95
4, 58800, Note_off_c, 4, 59, 80
4, 58800, Note_off_c, 4, 55, 80
4, 58800, Note_off_c, 4, 50, 80
4, 59040, Note_on_c, 4, 59, 95
4, 59040, Note_on_c, 4, 55, 95
4, 59040, Note_on_c, 4, 50, 95
4, 59280, Note_off_c, 4, 59, 80
4, 59280, Note_off_c, 4, 55, 80
4, 59280, Note_off_c, 4, 50, 80
4, 59520, Note_on_c, 4, 63, 95
4, 59520, Note_on_c, 4, 58, 95
4, 59520, Note_on_c, 4, 51, 95
4, 59520, Note_on_c, 4, 46, 95
4, 59760, Note_off_c, 4, 63, 80
4, 59760, Note_off_c, 4, 58, 80
4, 59760, Note_off_c, 4, 51, 80
4, 59760, Note_off_c, 4, 46, 80
4, 60000, Note_on_c, 4, 63, 95
4, 60000, Note_on_c, 4, 58, 95
4, 60000, Note_on_c, 4, 51, 95
4, 60000, Note_on_c, 4, 46, 95
4, 60240, Note_off_c, 4, 63, 80
4, 60240, Note_off_c, 4, 58, 80
4, 60240, Note_off_c, 4, 51, 80
4, 60240, Note_off_c, 4, 46, 80
4, 60480, Note_on_c, 4, 62, 95
4, 60480, Note_on_c, 4, 57, 95
4, 60480, Note_on_c, 4, 50, 95
4, 60480, Note_on_c, 4, 45, 95
4, 60720, Note_off_c, 4, 62, 80
4, 60720, Note_off_c, 4, 57, 80
4, 60720, Note_off_c, 4, 50, 80
4, 60720, Note_off_c, 4, 45, 80
4, 60960, Note_on_c, 4, 62, 95
4, 60960, Note_on_c, 4, 57, 95
4, 60960, Note_on_c, 4, 50, 95
4, 60960, Note_on_c, 4, 45, 95
4, 61200, Note_off_c, 4, 62, 80
4, 61200, Note_off_c, 4, 57, 80
4, 61200, Note_off_c, 4, 50, 80
4, 61200, Note_off_c, 4, 45, 80
4, 61440, Note_on_c, 4, 62, 95
4, 61440, Note_on_c, 4, 59, 95
4, 61440, Note_on_c, 4, 54, 95
4, 61440, Note_on_c, 4, 47, 95
4, 61680, Note_off_c, 4, 62, 80
4, 61680, Note_off_c, 4, 59, 80
4, 61680, Note_off_c, 4, 54, 80
4, 61680, Note_off_c, 4, 47, 80
4, 61920, Note_on_c, 4, 62, 95
4, 61920, Note_on_c, 4, 59, 95
4, 61920, Note_on_c, 4, 54, 95
4, 61920, Note_on_c, 4, 47, 95
4, 62160, Note_off_c, 4, 62, 80
4, 62160, Note_off_c, 4, 59, 80
4, 62160, Note_off_c, 4, 54, 80
4, 62160, Note_off_c, 4, 47, 80
4, 62400, Note_on_c, 4, 64, 95
4, 62400, Note_on_c, 4, 60, 95
4, 62400, Note_on_c, 4, 55, 95
4, 62400, Note_on_c, 4, 48, 95
4, 62640, Note_off_c, 4, 64, 80
4, 62640, Note_off_c, 4, 60, 80
4, 62640, Note_off_c, 4, 55, 80
4, 62640, Note_off_c, 4, 48, 80
4, 62880, Note_on_c, 4, 64, 95
4, 62880, Note_on_c, 4, 60, 95
4, 62880, Note_on_c, 4, 55, 95
4, 62880, Note_on_c, 4, 48, 95
4, 63120, Note_off_c, 4, 64, 80
4, 63120, Note_off_c, 4, 60, 80
4, 63120, Note_off_c, 4, 55, 80
4, 63120, Note_off_c, 4, 48, 80
4, 63360, Note_on_c, 4, 74, 95
4, 64080, Note_off_c, 4, 74, 80
4, 66960, Note_on_c, 4, 74, 95
4, 67200, Note_off_c, 4, 74, 80
4, 67200, Note_on_c, 4, 71, 95
4, 67440, Note_off_c, 4, 71, 80
4, 67440, Note_on_c, 4, 69, 95
4, 67680, Note_off_c, 4, 69, 80
4, 67680, Note_on_c, 4, 60, 95
4, 67680, Note_on_c, 4, 55, 95
4, 67680, Note_on_c, 4, 52, 95
4, 68160, Note_off_c, 4, 60, 80
4, 68160, Note_off_c, 4, 55, 80
4, 68160, Note_off_c, 4, 52, 80
4, 68160, Note_on_c, 5, 59, 95
4, 68160, Pitch_bend_c, 5, 8192
4, 68176, Pitch_bend_c, 5, 8320
4, 68192, Pitch_bend_c, 5, 8448
4, 68208, Pitch_bend_c, 5, 8704
4, 68224, Pitch_bend_c, 5, 8832
4, 68304, Pitch_bend_c, 5, 8576
4, 68320, Pitch_bend_c, 5, 8320
4, 68336, Pitch_bend_c, 5, 8192
4, 68400, Note_off_c, 5, 59, 80
4, 68400, Pitch_bend_c, 5, 8192
4, 68400, Note_on_c, 4, 55, 95
4, 68640, Note_off_c, 4, 55, 80
4, 68640, Note_on_c, 5, 59, 95
4, 68640, Pitch_bend_c, 5, 8192
4, 68656, Pitch_bend_c, 5, 8320
4, 68672, Pitch_bend_c, 5, 8448
4, 68688, Pitch_bend_c, 5, 8704
4, 68704, Pitch_bend_c, 5, 8832
4, 68784, Pitch_bend_c, 5, 8576
4, 68800, Pitch_bend_c, 5, 8320
4, 68816, Pitch_bend_c, 5, 8192
4, 68880, Note_off_c, 5, 59, 80
4, 68880, Pitch_bend_c, 5, 8192
4, 68880, Note_on_c, 4, 55, 95
4, 69120, Note_off_c, 4, 55, 80
4, 69120, Note_on_c, 4, 60, 95
4, 69120, Note_on_c, 4, 55, 95
4, 69120, Note_on_c, 4, 52, 95
4, 69360, Note_off_c, 4, 60, 80
4, 69360, Note_off_c, 4, 55, 80
4, 69360, Note_off_c, 4, 52, 80
4, 69360, Note_on_c, 4, 50, 95
4, 69600, Note_off_c, 4, 50, 80
4, 69600, Note_on_c, 4, 64, 95
4, 69600, Note_on_c, 4, 60, 95
4, 69600, Note_on_c, 4, 55, 95
4, 69600, Note_on_c, 4, 48, 95
4, 70080, Note_off_c, 4, 64, 80
4, 70080, Note_off_c, 4, 60, 80
4, 70080, Note_off_c, 4, 55, 80
4, 70080, Note_off_c, 4, 48, 80
4, 70080, Note_on_c, 4, 64, 95
4, 70080, Note_on_c, 4, 60, 95
4, 70080, Note_on_c, 4, 55, 95
4, 70080, Note_on_c, 4, 48, 95
4, 70320, Note_off_c, 4, 64, 80
4, 70320, Note_off_c, 4, 60, 80
4, 70320, Note_off_c, 4, 55, 80
4, 70320, Note_off_c, 4, 48, 80
4, 70320, Note_on_c, 4, 64, 95
4, 70320, Note_on_c, 4, 60, 95
4, 70320, Note_on_c, 4, 55, 95
4, 70320, Note_on_c, 4, 48, 95
4, 70380, Note_off_c, 4, 64, 80
4, 70380, Note_off_c, 4, 60, 80
4, 70380, Note_off_c, 4, 55, 80
4, 70380, Note_off_c, 4, 48, 80
4, 70380, Note_on_c, 4, 65, 76
4, 70440, Note_off_c, 4, 65, 80
4, 70440, Note_on_c, 4, 64, 76
4, 70500, Note_off_c, 4, 64, 80
4, 70500, Note_on_c, 4, 65, 76
4, 70560, Note_off_c, 4, 65, 80
4, 70560, Note_on_c, 4, 64, 76
4, 70800, Note_off_c, 4, 64, 80
4, 70800, Note_on_c, 4, 60, 95
4, 70800, Note_on_c, 4, 55, 95
4, 70800, Note_on_c, 4, 48, 95
4, 70920, Note_off_c, 4, 60, 80
4, 70920, Note_off_c, 4, 55, 80
4, 70920, Note_off_c, 4, 48, 80
4, 70920, Note_on_c, 4, 60, 95
4, 70920, Note_on_c, 4, 55, 95
4, 70920, Note_on_c, 4, 48, 95
4, 71040, Note_off_c, 4, 60, 80
4, 71040, Note_off_c, 4, 55, 80
4, 71040, Note_off_c, 4, 48, 80
4, 71040, Note_on_c, 4, 64, 95
4, 71040, Note_on_c, 4, 60, 95
4, 71040, Note_on_c, 4, 55, 95
4, 71040, Note_on_c, 4, 48, 95
4, 71280, Note_off_c, 4, 64, 80
4, 71280, Note_off_c, 4, 60, 80
4, 71280, Note_off_c, 4, 55, 80
4, 71280, Note_off_c, 4, 48, 80
4, 71280, Note_on_c, 4, 60, 95
4, 71280, Note_on_c, 4, 55, 95
4, 71280, Note_on_c, 4, 48, 95
4, 71400, Note_off_c, 4, 60, 80
4, 71400, Note_off_c, 4, 55, 80
4, 71400, Note_off_c, 4, 48, 80
4, 71400, Note_on_c, 4, 60, 95
4, 71400, Note_on_c, 4, 55, 95
4, 71400, Note_on_c, 4, 48, 95
4, 71520, Note_off_c, 4, 60, 80
4, 71520, Note_off_c, 4, 55, 80
4, 71520, Note_off_c, 4, 48, 80
4, 71520, Note_on_c, 4, 40, 95
4, 71760, Note_off_c, 4, 40, 80
4, 71760, Note_on_c, 4, 45, 95
4, 71880, Note_off_c, 4, 45, 80
4, 71880, Note_on_c, 4, 47, 76
4, 72000, Note_off_c, 4, 47, 80
4, 72000, Note_on_c, 4, 50, 95
4, 72080, Note_off_c, 4, 50, 80
4, 72080, Note_on_c, 4, 52, 76
4, 72160, Note_off_c, 4, 52, 80
4, 72160, Note_on_c, 4, 50, 76
4, 72240, Note_off_c, 4, 50, 80
4, 72240, Note_on_c, 4, 47, 95
4, 72360, Note_off_c, 4, 47, 80
4, 72360, Note_on_c, 4, 45, 76
4, 72480, Note_off_c, 4, 45, 80
4, 72480, Note_on_c, 4, 62, 95
4, 72480, Note_on_c, 4, 57, 95
4, 72480, Note_on_c, 4, 50, 95
4, 72960, Note_off_c, 4, 62, 80
4, 72960, Note_off_c, 4, 57, 80
4, 72960, Note_off_c, 4, 50, 80
4, 72960, Note_on_c, 4, 57, 95
4, 73080, Note_off_c, 4, 57, 80
4, 73080, Note_on_c, 4, 55, 76
4, 73200, Note_off_c, 4, 55, 80
4, 73200, Note_on_c, 4, 54, 95
4, 73320, Note_off_c, 4, 54, 80
4, 73320, Note_on_c, 4, 50, 76
4, 73440, Note_off_c, 4, 50, 80
4, 73440, Note_on_c, 4, 40, 95
4, 73680, Note_off_c, 4, 40, 80
4, 73680, Note_on_c, 4, 45, 95
4, 73800, Note_off_c, 4, 45, 80
4, 73800, Note_on_c, 4, 47, 76
4, 73920, Note_off_c, 4, 47, 80
4, 73920, Note_on_c, 4, 50, 95
4, 74000, Note_off_c, 4, 50, 80
4, 74000, Note_on_c, 4, 52, 76
4, 74080, Note_off_c, 4, 52, 80
4, 74080, Note_on_c, 4, 50, 76
4, 74160, Note_off_c, 4, 50, 80
4, 74160, Note_on_c, 4, 47, 95
4, 74280, Note_off_c, 4, 47, 80
4, 74280, Note_on_c, 4, 45, 76
4, 74400, Note_off_c, 4, 45, 80
4, 74400, Note_on_c, 4, 62, 95
4, 74400, Note_on_c, 4, 57, 95
4, 74400, Note_on_c, 4, 50, 95
4, 74880, Note_off_c, 4, 62, 80
4, 74880, Note_off_c, 4, 57, 80
4, 74880, Note_off_c, 4, 50, 80
4, 74880, Note_on_c, 4, 57, 95
4, 75000, Note_off_c, 4, 57, 80
4, 75000, Note_on_c, 4, 55, 76
4, 75120, Note_off_c, 4, 55, 80
4, 75120, Note_on_c, 4, 54, 95
4, 75240, Note_off_c, 4, 54, 80
4, 75240, Note_on_c, 4, 50, 76
4, 75360, Note_off_c, 4, 50, 80
4, 75360, Note_on_c, 4, 40, 95
4, 75600, Note_off_c, 4, 40, 80
4, 75600, Note_on_c, 4, 45, 95
4, 75720, Note_off_c, 4, 45, 80
4, 75720, Note_on_c, 4, 47, 76
4, 75840, Note_off_c, 4, 47, 80
4, 75840, Note_on_c, 4, 50, 95
4, 75920, Note_off_c, 4, 50, 80
4, 75920, Note_on_c, 4, 52, 76
4, 76000, Note_off_c, 4, 52, 80
4, 76000, Note_on_c, 4, 50, 76
4, 76080, Note_off_c, 4, 50, 80
4, 76080, Note_on_c, 4, 47, 95
4, 76200, Note_off_c, 4, 47, 80
4, 76200, Note_on_c, 4, 45, 76
4, 76320, Note_off_c, 4, 45, 80
4, 76320, Note_on_c, 4, 62, 95
4, 76320, Note_on_c, 4, 57, 95
4, 76320, Note_on_c, 4, 50, 95
4, 76680, Note_off_c, 4, 62, 80
4, 76680, Note_off_c, 4, 57, 80
4, 76680, Note_off_c, 4, 50, 80
4, 76680, Note_on_c, 4, 66, 95
4, 76680, Note_on_c, 4, 62, 95
4, 76680, Note_on_c, 4, 50, 95
4, 76800, Note_off_c, 4, 66, 80
4, 76800, Note_off_c, 4, 62, 80
4, 76800, Note_off_c, 4, 50, 80
4, 76920, Note_on_c, 4, 71, 95
4, 76920, Note_on_c, 4, 67, 95
4, 76920, Note_on_c, 4, 62, 95
4, 77160, Note_off_c, 4, 71, 80
4, 77160, Note_off_c, 4, 67, 80
4, 77160, Note_off_c, 4, 62, 80
4, 77160, Note_on_c, 4, 66, 95
4, 77160, Note_on_c, 4, 62, 95
4, 77160, Note_on_c, 4, 50, 95
4, 77280, Note_off_c, 4, 66, 80
4, 77280, Note_off_c, 4, 62, 80
4, 77280, Note_off_c, 4, 50, 80
4, 77280, Note_on_c, 4, 64, 95
4, 77280, Note_on_c, 4, 60, 95
4, 77280, Note_on_c, 4, 55, 95
4, 77280, Note_on_c, 4, 52, 95
4, 77760, Note_off_c, 4, 64, 80
4, 77760, Note_off_c, 4, 60, 80
4, 77760, Note_off_c, 4, 55, 80
4, 77760, Note_off_c, 4, 52, 80
4, 77760, Note_on_c, 4, 64, 95
4, 77760, Note_on_c, 4, 60, 95
4, 77760, Note_on_c, 4, 55, 95
4, 77760, Note_on_c, 4, 52, 95
4, 78240, Note_off_c, 4, 64, 80
4, 78240, Note_off_c, 4, 60, 80
4, 78240, Note_off_c, 4, 55, 80
4, 78240, Note_off_c, 4, 52, 80
4, 78240, Note_on_c, 4, 64, 95
4, 78240, Note_on_c, 4, 60, 95
4, 78240, Note_on_c, 4, 55, 95
4, 78240, Note_on_c, 4, 52, 95
4, 78840, Note_off_c, 4, 64, 80
4, 78840, Note_off_c, 4, 60, 80
4, 78840, Note_off_c, 4, 55, 80
4, 78840, Note_off_c, 4, 52, 80
4, 78840, Note_on_c, 4, 59, 95
4, 78840, Note_on_c, 4, 55, 95
4, 78840, Note_on_c, 4, 50, 95
4, 79200, Note_off_c, 4, 59, 80
4, 79200, Note_off_c, 4, 55, 80
4, 79200, Note_off_c, 4, 50, 80
4, 79200, Note_on_c, 4, 64, 95
4, 79200, Note_on_c, 4, 60, 95
4, 79200, Note_on_c, 4, 55, 95
4, 79200, Note_on_c, 4, 52, 95
4, 79680, Note_off_c, 4, 64, 80
4, 79680, Note_off_c, 4, 60, 80
4, 79680, Note_off_c, 4, 55, 80
4, 79680, Note_off_c, 4, 52, 80
4, 79680, Note_on_c, 4, 64, 95
4, 79680, Note_on_c, 4, 60, 95
4, 79680, Note_on_c, 4, 55, 95
4, 79680, Note_on_c, 4, 52, 95
4, 80160, Note_off_c, 4, 64, 80
4, 80160, Note_off_c, 4, 60, 80
4, 80160, Note_off_c, 4, 55, 80
4, 80160, Note_off_c, 4, 52, 80
4, 80160, Note_on_c, 4, 64, 95
4, 80160, Note_on_c, 4, 60, 95
4, 80160, Note_on_c, 4, 55, 95
4, 80160, Note_on_c, 4, 52, 95
4, 80640, Note_off_c, 4, 64, 80
4, 80640, Note_off_c, 4, 60, 80
4, 80640, Note_off_c, 4, 55, 80
4, 80640, Note_off_c, 4, 52, 80
4, 80640, Note_on_c, 4, 60, 95
4, 80760, Note_off_c, 4, 60, 80
4, 80760, Note_on_c, 4, 59, 76
4, 80880, Note_off_c, 4, 59, 80
4, 80880, Note_on_c, 4, 57, 95
4, 81000, Note_off_c, 4, 57, 80
4, 81000, Note_on_c, 4, 55, 76
4, 81120, Note_off_c, 4, 55, 80
4, 81120, Note_on_c, 4, 40, 95
4, 81360, Note_off_c, 4, 40, 80
4, 81360, Note_on_c, 4, 45, 95
4, 81480, Note_off_c, 4, 45, 80
4, 81480, Note_on_c, 4, 47, 76
4, 81600, Note_off_c, 4, 47, 80
4, 81600, Note_on_c, 4, 50, 95
4, 81680, Note_off_c, 4, 50, 80
4, 81680, Note_on_c, 4, 52, 76
4, 81760, Note_off_c, 4, 52, 80
4, 81760, Note_on_c, 4, 50, 76
4, 81840, Note_off_c, 4, 50, 80
4, 81840, Note_on_c, 4, 47, 95
4, 81960, Note_off_c, 4, 47, 80
4, 81960, Note_on_c, 4, 45, 76
4, 82080, Note_off_c, 4, 45, 80
4, 82080, Note_on_c, 4, 62, 95
4, 82080, Note_on_c, 4, 57, 95
4, 82080, Note_on_c, 4, 50, 95
4, 82560, Note_off_c, 4, 62, 80
4, 82560, Note_off_c, 4, 57, 80
4, 82560, Note_off_c, 4, 50, 80
4, 82560, Note_on_c, 4, 57, 95
4, 82680, Note_off_c, 4, 57, 80
4, 82680, Note_on_c, 4, 55, 76
4, 82800, Note_off_c, 4, 55, 80
4, 82800, Note_on_c, 4, 54, 95
4, 82920, Note_off_c, 4, 54, 80
4, 82920, Note_on_c, 4, 50, 76
4, 83040, Note_off_c, 4, 50, 80
4, 83040, Note_on_c, 4, 40, 95
4, 83280, Note_off_c, 4, 40, 80
4, 83280, Note_on_c, 4, 45, 95
4, 83400, Note_off_c, 4, 45, 80
4, 83400, Note_on_c, 4, 47, 76
4, 83520, Note_off_c, 4, 47, 80
4, 83520, Note_on_c, 4, 50, 95
4, 83600, Note_off_c, 4, 50, 80
4, 83600, Note_on_c, 4, 52, 76
4, 83680, Note_off_c, 4, 52, 80
4, 83680, Note_on_c, 4, 50, 76
4, 83760, Note_off_c, 4, 50, 80
4, 83760, Note_on_c, 4, 47, 95
4, 83880, Note_off_c, 4, 47, 80
4, 83880, Note_on_c, 4, 45, 76
4, 84000, Note_off_c, 4, 45, 80
4, 84000, Note_on_c, 4, 62, 95
4, 84000, Note_on_c, 4, 57, 95
4, 84000, Note_on_c, 4, 50, 95
4, 84480, Note_off_c, 4, 62, 80
4, 84480, Note_off_c, 4, 57, 80
4, 84480, Note_off_c, 4, 50, 80
4, 84480, Note_on_c, 4, 57, 95
4, 84600, Note_off_c, 4, 57, 80
4, 84600, Note_on_c, 4, 55, 76
4, 84720, Note_off_c, 4, 55, 80
4, 84720, Note_on_c, 4, 54, 95
4, 84840, Note_off_c, 4, 54, 80
4, 84840, Note_on_c, 4, 50, 76
4, 84960, Note_off_c, 4, 50, 80
4, 84960, Note_on_c, 4, 40, 95
4, 85200, Note_off_c, 4, 40, 80
4, 85200, Note_on_c, 4, 45, 95
4, 85320, Note_off_c, 4, 45, 80
4, 85320, Note_on_c, 4, 47, 76
4, 85440, Note_off_c, 4, 47, 80
4, 85440, Note_on_c, 4, 50, 95
4, 85520, Note_off_c, 4, 50, 80
4, 85520, Note_on_c, 4, 52, 76
4, 85600, Note_off_c, 4, 52, 80
4, 85600, Note_on_c, 4, 50, 76
4, 85680, Note_off_c, 4, 50, 80
4, 85680, Note_on_c, 4, 47, 95
4, 85800, Note_off_c, 4, 47, 80
4, 85800, Note_on_c, 4, 45, 76
4, 85920, Note_off_c, 4, 45, 80
4, 85920, Note_on_c, 4, 62, 95
4, 85920, Note_on_c, 4, 57, 95
4, 85920, Note_on_c, 4, 50, 95
4, 86280, Note_off_c, 4, 62, 80
4, 86280, Note_off_c, 4, 57, 80
4, 86280, Note_off_c, 4, 50, 80
4, 86280, Note_on_c, 4, 66, 95
4, 86280, Note_on_c, 4, 62, 95
4, 86280, Note_on_c, 4, 50, 95
4, 86400, Note_off_c, 4, 66, 80
4, 86400, Note_off_c, 4, 62, 80
4, 86400, Note_off_c, 4, 50, 80
4, 86520, Note_on_c, 4, 71, 95
4, 86520, Note_on_c, 4, 67, 95
4, 86520, Note_on_c, 4, 62, 95
4, 86760, Note_off_c, 4, 71, 80
4, 86760, Note_off_c, 4, 67, 80
4, 86760, Note_off_c, 4, 62, 80
4, 86760, Note_on_c, 4, 66, 95
4, 86760, Note_on_c, 4, 62, 95
4, 86760, Note_on_c, 4, 50, 95
4, 86880, Note_off_c, 4, 66, 80
4, 86880, Note_off_c, 4, 62, 80
4, 86880, Note_off_c, 4, 50, 80
4, 86880, Note_on_c, 4, 64, 95
4, 86880, Note_on_c, 4, 60, 95
4, 86880, Note_on_c, 4, 55, 95
4, 86880, Note_on_c, 4, 52, 95
4, 87360, Note_off_c, 4, 64, 80
4, 87360, Note_off_c, 4, 60, 80
4, 87360, Note_off_c, 4, 55, 80
4, 87360, Note_off_c, 4, 52, 80
4, 87360, Note_on_c, 4, 64, 95
4, 87360, Note_on_c, 4, 60, 95
4, 87360, Note_on_c, 4, 55, 95
4, 87360, Note_on_c, 4, 52, 95
4, 87840, Note_off_c, 4, 64, 80
4, 87840, Note_off_c, 4, 60, 80
4, 87840, Note_off_c, 4, 55, 80
4, 87840, Note_off_c, 4, 52, 80
4, 87840, Note_on_c, 4, 64, 95
4, 87840, Note_on_c, 4, 60, 95
4, 87840, Note_on_c, 4, 55, 95
4, 87840, Note_on_c, 4, 52, 95
4, 88440, Note_off_c, 4, 64, 80
4, 88440, Note_off_c, 4, 60, 80
4, 88440, Note_off_c, 4, 55, 80
4, 88440, Note_off_c, 4, 52, 80
4, 88440, Note_on_c, 4, 59, 95
4, 88440, Note_on_c, 4, 55, 95
4, 88440, Note_on_c, 4, 50, 95
4, 88800, Note_off_c, 4, 59, 80
4, 88800, Note_off_c, 4, 55, 80
4, 88800, Note_off_c, 4, 50, 80
4, 88800, Note_on_c, 4, 64, 95
4, 88800, Note_on_c, 4, 60, 95
4, 88800, Note_on_c, 4, 55, 95
4, 88800, Note_on_c, 4, 52, 95
4, 89280, Note_off_c, 4, 64, 80
4, 89280, Note_off_c, 4, 60, 80
4, 89280, Note_off_c, 4, 55, 80
4, 89280, Note_off_c, 4, 52, 80
4, 89280, Note_on_c, 4, 64, 95
4, 89280, Note_on_c, 4, 60, 95
4, 89280, Note_on_c, 4, 55, 95
4, 89280, Note_on_c, 4, 52, 95
4, 89760, Note_off_c, 4, 64, 80
4, 89760, Note_off_c, 4, 60, 80
4, 89760, Note_off_c, 4, 55, 80
4, 89760, Note_off_c, 4, 52, 80
4, 89760, Note_on_c, 4, 64, 95
4, 89760, Note_on_c, 4, 60, 95
4, 89760, Note_on_c, 4, 55, 95
4, 89760, Note_on_c, 4, 52, 95
4, 90360, Note_off_c, 4, 64, 80
4, 90360, Note_off_c, 4, 60, 80
4, 90360, Note_off_c, 4, 55, 80
4, 90360, Note_off_c, 4, 52, 80
4, 90360, Note_on_c, 4, 59, 95
4, 90360, Note_on_c, 4, 55, 95
4, 90360, Note_on_c, 4, 50, 95
4, 90720, Note_off_c, 4, 59, 80
4, 90720, Note_off_c, 4, 55, 80
4, 90720, Note_off_c, 4, 50, 80
4, 90720, Note_on_c, 4, 64, 95
4, 90720, Note_on_c, 4, 60, 95
4, 90720, Note_on_c, 4, 55, 95
4, 90720, Note_on_c, 4, 52, 95
4, 91200, Note_off_c, 4, 64, 80
4, 91200, Note_off_c, 4, 60, 80
4, 91200, Note_off_c, 4, 55, 80
4, 91200, Note_off_c, 4, 52, 80
4, 91200, Note_on_c, 4, 64, 95
4, 91200, Note_on_c, 4, 60, 95
4, 91200, Note_on_c, 4, 55, 95
4, 91200, Note_on_c, 4, 52, 95
4, 91680, Note_off_c, 4, 64, 80
4, 91680, Note_off_c, 4, 60, 80
4, 91680, Note_off_c, 4, 55, 80
4, 91680, Note_off_c, 4, 52, 80
4, 91680, Note_on_c, 4, 64, 95
4, 91680, Note_on_c, 4, 60, 95
4, 91680, Note_on_c, 4, 55, 95
4, 91680, Note_on_c, 4, 52, 95
4, 92280, Note_off_c, 4, 64, 80
4, 92280, Note_off_c, 4, 60, 80
4, 92280, Note_off_c, 4, 55, 80
4, 92280, Note_off_c, 4, 52, 80
4, 92280, Note_on_c, 4, 59, 95
4, 92280, Note_on_c, 4, 55, 95
4, 92280, Note_on_c, 4, 50, 95
4, 92640, Note_off_c, 4, 59, 80
4, 92640, Note_off_c, 4, 55, 80
4, 92640, Note_off_c, 4, 50, 80
4, 92640, Note_on_c, 4, 64, 95
4, 92640, Note_on_c, 4, 60, 95
4, 92640, Note_on_c, 4, 55, 95
4, 92640, Note_on_c, 4, 52, 95
4, 93120, Note_off_c, 4, 64, 80
4, 93120, Note_off_c, 4, 60, 80
4, 93120, Note_off_c, 4, 55, 80
4, 93120, Note_off_c, 4, 52, 80
4, 93120, Note_on_c, 4, 64, 95
4, 93120, Note_on_c, 4, 60, 95
4, 93120, Note_on_c, 4, 55, 95
4, 93120, Note_on_c, 4, 52, 95
4, 93600, Note_off_c, 4, 64, 80
4, 93600, Note_off_c, 4, 60, 80
4, 93600, Note_off_c, 4, 55, 80
4, 93600, Note_off_c, 4, 52, 80
4, 93600, Note_on_c, 4, 65, 95
4, 93600, Note_on_c, 4, 60, 95
4, 93600, Note_on_c, 4, 57, 95
4, 93600, Note_on_c, 4, 53, 95
4, 93600, Note_on_c, 4, 48, 95
4, 93600, Note_on_c, 4, 41, 95
4, 93720, Note_off_c, 4, 65, 80
4, 93720, Note_off_c, 4, 60, 80
4, 93720, Note_off_c, 4, 57, 80
4, 93720, Note_off_c, 4, 53, 80
4, 93720, Note_off_c, 4, 48, 80
4, 93720, Note_off_c, 4, 41, 80
4, 93720, Note_on_c, 4, 65, 95
4, 93720, Note_on_c, 4, 60, 95
4, 93720, Note_on_c, 4, 57, 95
4, 93720, Note_on_c, 4, 53, 95
4, 93720, Note_on_c, 4, 48, 95
4, 93720, Note_on_c, 4, 41, 95
4, 93840, Note_off_c, 4, 65, 80
4, 93840, Note_off_c, 4, 60, 80
4, 93840, Note_off_c, 4, 57, 80
4, 93840, Note_off_c, 4, 53, 80
4, 93840, Note_off_c, 4, 48, 80
4, 93840, Note_off_c, 4, 41, 80
4, 93840, Note_on_c, 4, 65, 95
4, 93840, Note_on_c, 4, 60, 95
4, 93840, Note_on_c, 4, 57, 95
4, 93840, Note_on_c, 4, 53, 95
4, 93840, Note_on_c, 4, 48, 95
4, 93840, Note_on_c, 4, 41, 95
4, 93960, Note_off_c, 4, 65, 80
4, 93960, Note_off_c, 4, 60, 80
4, 93960, Note_off_c, 4, 57, 80
4, 93960, Note_off_c, 4, 53, 80
4, 93960, Note_off_c, 4, 48, 80
4, 93960, Note_off_c, 4, 41, 80
4, 93960, Note_on_c, 4, 65, 95
4, 93960, Note_on_c, 4, 60, 95
4, 93960, Note_on_c, 4, 57, 95
4, 93960, Note_on_c, 4, 53, 95
4, 93960, Note_on_c, 4, 48, 95
4, 93960, Note_on_c, 4, 41, 95
4, 94080, Note_off_c, 4, 65, 80
4, 94080, Note_off_c, 4, 60, 80
4, 94080, Note_off_c, 4, 57, 80
4, 94080, Note_off_c, 4, 53, 80
4, 94080, Note_off_c, 4, 48, 80
4, 94080, Note_off_c, 4, 41, 80
4, 94080, Note_on_c, 4, 66, 95
4, 94080, Note_on_c, 4, 61, 95
4, 94080, Note_on_c, 4, 58, 95
4, 94080, Note_on_c, 4, 54, 95
4, 94080, Note_on_c, 4, 49, 95
4, 94080, Note_on_c, 4, 42, 95
4, 94200, Note_off_c, 4, 66, 80
4, 94200, Note_off_c, 4, 61, 80
4, 94200, Note_off_c, 4, 58, 80
4, 94200, Note_off_c, 4, 54, 80
4, 94200, Note_off_c, 4, 49, 80
4, 94200, Note_off_c, 4, 42, 80
4, 94200, Note_on_c, 4, 66, 95
4, 94200, Note_on_c, 4, 61, 95
4, 94200, Note_on_c, 4, 58, 95
4, 94200, Note_on_c, 4, 54, 95
4, 94200, Note_on_c, 4, 49, 95
4, 94200, Note_on_c, 4, 42, 95
4, 94320, Note_off_c, 4, 66, 80
4, 94320, Note_off_c, 4, 61, 80
4, 94320, Note_off_c, 4, 58, 80
4, 94320, Note_off_c, 4, 54, 80
4, 94320, Note_off_c, 4, 49, 80
4, 94320, Note_off_c, 4, 42, 80
4, 94320, Note_on_c, 4, 66, 95
4, 94320, Note_on_c, 4, 61, 95
4, 94320, Note_on_c, 4, 58, 95
4, 94320, Note_on_c, 4, 54, 95
4, 94320, Note_on_c, 4, 49, 95
4, 94320, Note_on_c, 4, 42, 95
4, 94440, Note_off_c, 4, 66, 80
4, 94440, Note_off_c, 4, 61, 80
4, 94440, Note_off_c, 4, 58, 80
4, 94440, Note_off_c, 4, 54, 80
4, 94440, Note_off_c, 4, 49, 80
4, 94440, Note_off_c, 4, 42, 80
4, 94440, Note_on_c, 4, 66, 95
4, 94440, Note_on_c, 4, 61, 95
4, 94440, Note_on_c, 4, 58, 95
4, 94440, Note_on_c, 4, 54, 95
4, 94440, Note_on_c, 4, 49, 95
4, 94440, Note_on_c, 4, 42, 95
4, 94560, Note_off_c, 4, 61, 80
4, 94560, Note_off_c, 4, 58, 80
4, 94560, Note_off_c, 4, 54, 80
4, 94560, Note_off_c, 4, 49, 80
4, 94560, Note_off_c, 4, 42, 80
4, 94560, Note_on_c, 4, 59, 95
4, 94560, Note_on_c, 4, 55, 95
4, 94560, Note_on_c, 4, 50, 95
4, 94560, Note_on_c, 4, 43, 95
4, 94800, Note_off_c, 4, 59, 80
4, 94800, Note_off_c, 4, 55, 80
4, 94800, Note_off_c, 4, 50, 80
4, 94800, Note_off_c, 4, 43, 80
4, 95040, Note_on_c, 4, 59, 95
4, 95040, Note_on_c, 4, 55, 95
4, 95040, Note_on_c, 4, 50, 95
4, 95040, Note_on_c, 4, 43, 95
4, 95280, Note_off_c, 4, 59, 80
4, 95280, Note_off_c, 4, 55, 80
4, 95280, Note_off_c, 4, 50, 80
4, 95280, Note_off_c, 4, 43, 80
4, 95520, Note_on_c, 4, 62, 95
4, 95520, Note_on_c, 4, 59, 95
4, 95520, Note_on_c, 4, 54, 95
4, 95520, Note_on_c, 4, 50, 95
4, 95520, Note_on_c, 4, 43, 95
4, 95760, Note_off_c, 4, 62, 80
4, 95760, Note_off_c, 4, 59, 80
4, 95760, Note_off_c, 4, 54, 80
4, 95760, Note_off_c, 4, 50, 80
4, 95760, Note_off_c, 4, 43, 80
4, 96000, Note_on_c, 4, 62, 95
4, 96000, Note_on_c, 4, 59, 95
4, 96000, Note_on_c, 4, 54, 95
4, 96000, Note_on_c, 4, 50, 95
4, 96000, Note_on_c, 4, 43, 95
4, 96240, Note_off_c, 4, 62, 80
4, 96240, Note_off_c, 4, 59, 80
4, 96240, Note_off_c, 4, 54, 80
4, 96240, Note_off_c, 4, 50, 80
4, 96240, Note_off_c, 4, 43, 80
4, 96480, Note_on_c, 4, 55, 95
4, 96480, Note_on_c, 4, 52, 95
4, 96480, Note_on_c, 4, 47, 95
4, 96480, Note_on_c, 4, 40, 95
4, 96720, Note_off_c, 4, 55, 80
4, 96720, Note_off_c, 4, 52, 80
4, 96720, Note_off_c, 4, 47, 80
4, 96720, Note_off_c, 4, 40, 80
4, 96960, Note_on_c, 4, 55, 95
4, 96960, Note_on_c, 4, 52, 95
4, 96960, Note_on_c, 4, 47, 95
4, 96960, Note_on_c, 4, 40, 95
4, 97200, Note_off_c, 4, 55, 80
4, 97200, Note_off_c, 4, 52, 80
4, 97200, Note_off_c, 4, 47, 80
4, 97200, Note_off_c, 4, 40, 80
4, 97440, Note_on_c, 4, 55, 95
4, 97440, Note_on_c, 4, 50, 95
4, 97440, Note_on_c, 4, 47, 95
4, 97440, Note_on_c, 4, 40, 95
4, 97680, Note_off_c, 4, 55, 80
4, 97680, Note_off_c, 4, 50, 80
4, 97680, Note_off_c, 4, 47, 80
4, 97680, Note_off_c, 4, 40, 80
4, 97920, Note_on_c, 4, 55, 95
4, 97920, Note_on_c, 4, 50, 95
4, 97920, Note_on_c, 4, 47, 95
4, 97920, Note_on_c, 4, 40, 95
4, 98160, Note_off_c, 4, 55, 80
4, 98160, Note_off_c, 4, 50, 80
4, 98160, Note_off_c, 4, 47, 80
4, 98160, Note_off_c, 4, 40, 80
4, 98400, Note_on_c, 4, 67, 95
4, 98400, Note_on_c, 4, 63, 95
4, 98400, Note_on_c, 4, 58, 95
4, 98400, Note_on_c, 4, 51, 95
4, 98400, Note_on_c, 4, 46, 95
4, 98640, Note_off_c, 4, 67, 80
4, 98640, Note_off_c, 4, 63, 80
4, 98640, Note_off_c, 4, 58, 80
4, 98640, Note_off_c, 4, 51, 80
4, 98640, Note_off_c, 4, 46, 80
4, 98880, Note_on_c, 4, 67, 95
4, 98880, Note_on_c, 4, 63, 95
4, 98880, Note_on_c, 4, 58, 95
4, 98880, Note_on_c, 4, 51, 95
4, 98880, Note_on_c, 4, 46, 95
4, 99120, Note_off_c, 4, 67, 80
4, 99120, Note_off_c, 4, 63, 80
4, 99120, Note_off_c, 4, 58, 80
4, 99120, Note_off_c, 4, 51, 80
4, 99120, Note_off_c, 4, 46, 80
4, 99360, Note_on_c, 4, 66, 95
4, 99360, Note_on_c, 4, 62, 95
4, 99360, Note_on_c, 4, 57, 95
4, 99360, Note_on_c, 4, 50, 95
4, 99360, Note_on_c, 4, 45, 95
4, 99600, Note_off_c, 4, 66, 80
4, 99600, Note_off_c, 4, 62, 80
4, 99600, Note_off_c, 4, 57, 80
4, 99600, Note_off_c, 4, 50, 80
4, 99600, Note_off_c, 4, 45, 80
4, 99840, Note_on_c, 4, 66, 95
4, 99840, Note_on_c, 4, 62, 95
4, 99840, Note_on_c, 4, 57, 95
4, 99840, Note_on_c, 4, 50, 95
4, 99840, Note_on_c, 4, 45, 95
4, 100080, Note_off_c, 4, 62, 80
4, 100080, Note_off_c, 4, 57, 80
4, 100080, Note_off_c, 4, 50, 80
4, 100080, Note_off_c, 4, 45, 80
4, 100320, Note_on_c, 4, 55, 95
4, 100320, Note_on_c, 4, 52, 95
4, 100320, Note_on_c, 4, 48, 95
4, 100560, Note_off_c, 4, 55, 80
4, 100560, Note_off_c, 4, 52, 80
4, 100560, Note_off_c, 4, 48, 80
4, 100560, Note_on_c, 4, 55, 95
4, 100560, Note_on_c, 4, 52, 95
4, 100560, Note_on_c, 4, 48, 95
4, 100800, Note_off_c, 4, 66, 80
4, 100800, Note_off_c, 4, 66, 80
4, 100800, Note_off_c, 4, 55, 80
4, 100800, Note_off_c, 4, 52, 80
4, 100800, Note_off_c, 4, 48, 80
4, 100800, Note_on_c, 4, 50, 95
4, 100800, Note_on_c, 4, 45, 95
4, 100800, Note_on_c, 4, 42, 95
4, 101040, Note_off_c, 4, 50, 80
4, 101040, Note_off_c, 4, 45, 80
4, 101040, Note_off_c, 4, 42, 80
4, 101040, Note_on_c, 4, 59, 95
4, 101040, Note_on_c, 4, 55, 95
4, 101040, Note_on_c, 4, 50, 95
4, 101040, Note_on_c, 4, 47, 95
4, 101040, Note_on_c, 4, 43, 95
4, 101280, Note_off_c, 4, 55, 80
4, 101280, Note_off_c, 4, 50, 80
4, 101280, Note_off_c, 4, 47, 80
4, 101280, Note_off_c, 4, 43, 80
4, 102240, Note_off_c, 4, 59, 80
4, 102240, End_track
5, 0, Start_track
5, 0, Title_t, "Trumpet"
5, 0, Control_c, 7, 100, 0
5, 0, Control_c, 7, 101, 0
5, 0, Control_c, 7, 6, 12
5, 0, Pitch_bend_c, 7, 8192
5, 0, Control_c, 7, 101, 0
5, 0, Control_c, 7, 100, 1
5, 0, Control_c, 7, 6, 64
5, 0, Control_c, 7, 38, 0
5, 0, Control_c, 7, 101, 127
5, 0, Control_c, 7, 100, 127
5, 0, Control_c, 6, 100, 0
5, 0, Control_c, 6, 101, 0
5, 0, Control_c, 6, 6, 12
5, 0, Pitch_bend_c, 6, 8192
5, 0, Control_c, 6, 101, 0
5, 0, Control_c, 6, 100, 1
5, 0, Control_c, 6, 6, 64
5, 0, Control_c, 6, 38, 0
5, 0, Control_c, 6, 101, 127
5, 0, Control_c, 6, 100, 127
5, 0, Control_c, 7, 101, 0
5, 0, Control_c, 7, 100, 2
5, 0, Control_c, 7, 6, 64
5, 0, Control_c, 7, 101, 127
5, 0, Control_c, 7, 100, 127
5, 0, Control_c, 6, 101, 0
5, 0, Control_c, 6, 100, 2
5, 0, Control_c, 6, 6, 64
5, 0, Control_c, 6, 101, 127
5, 0, Control_c, 6, 100, 127
5, 0, Program_c, 7, 56
5, 0, Program_c, 6, 56
5, 0, Control_c, 7, 0, 0
5, 0, Control_c, 6, 0, 0
5, 0, Control_c, 7, 7, 127
5, 0, Control_c, 6, 7, 127
5, 0, Control_c, 7, 10, 64
5, 0, Control_c, 6, 10, 64
5, 0, Control_c, 7, 93, 0
5, 0, Control_c, 6, 93, 0
5, 0, Control_c, 7, 91, 0
5, 0, Control_c, 6, 91, 0
5, 0, Control_c, 7, 92, 0
5, 0, Control_c, 6, 92, 0
5, 0, Control_c, 7, 95, 0
5, 0, Control_c, 6, 95, 0
5, 55680, Note_on_c, 6, 55, 95
5, 55920, Note_off_c, 6, 55, 80
5, 55920, Note_on_c, 6, 57, 95
5, 56160, Note_off_c, 6, 57, 80
5, 56160, Note_on_c, 6, 59, 95
5, 56400, Note_off_c, 6, 59, 80
5, 56400, Note_on_c, 6, 62, 95
5, 57600, Note_off_c, 6, 62, 80
5, 57600, Note_on_c, 6, 64, 95
5, 58080, Note_off_c, 6, 64, 80
5, 58080, Note_on_c, 6, 59, 95
5, 58440, Note_off_c, 6, 59, 80
5, 58440, Note_on_c, 6, 57, 95
5, 58560, Note_off_c, 6, 57, 80
5, 58560, Note_on_c, 6, 59, 95
5, 58680, Note_off_c, 6, 59, 80
5, 58680, Note_on_c, 6, 57, 95
5, 58800, Note_off_c, 6, 57, 80
5, 58800, Note_on_c, 6, 55, 95
5, 59520, Note_off_c, 6, 55, 80
5, 59520, Note_on_c, 6, 58, 95
5, 60240, Note_off_c, 6, 58, 80
5, 60240, Note_on_c, 6, 60, 95
5, 60480, Note_off_c, 6, 60, 80
5, 60480, Note_on_c, 6, 57, 95
5, 60960, Note_off_c, 6, 57, 80
5, 60960, Note_on_c, 6, 50, 95
5, 61440, Note_off_c, 6, 50, 80
5, 61440, Note_on_c, 6, 66, 95
5, 61680, Note_off_c, 6, 66, 80
5, 61680, Note_on_c, 6, 62, 95
5, 61920, Note_off_c, 6, 62, 80
5, 61920, Note_on_c, 6, 59, 95
5, 62160, Note_off_c, 6, 59, 80
5, 62160, Note_on_c, 6, 60, 95
5, 62760, Note_off_c, 6, 60, 80
5, 62760, Note_on_c, 6, 59, 95
5, 62880, Note_off_c, 6, 59, 80
5, 62880, Note_on_c, 6, 60, 95
5, 63000, Note_off_c, 6, 60, 80
5, 63000, Note_on_c, 6, 59, 95
5, 63120, Note_off_c, 6, 59, 80
5, 63120, Note_on_c, 6, 60, 95
5, 63240, Note_off_c, 6, 60, 80
5, 94560, Note_on_c, 6, 55, 95
5, 94800, Note_off_c, 6, 55, 80
5, 94800, Note_on_c, 6, 57, 95
5, 95040, Note_off_c, 6, 57, 80
5, 95040, Note_on_c, 6, 59, 95
5, 95280, Note_off_c, 6, 59, 80
5, 95280, Note_on_c, 6, 62, 95
5, 96480, Note_off_c, 6, 62, 80
5, 96480, Note_on_c, 6, 64, 95
5, 96960, Note_off_c, 6, 64, 80
5, 96960, Note_on_c, 6, 59, 95
5, 97320, Note_off_c, 6, 59, 80
5, 97320, Note_on_c, 6, 57, 95
5, 97440, Note_off_c, 6, 57, 80
5, 97440, Note_on_c, 6, 59, 95
5, 97560, Note_off_c, 6, 59, 80
5, 97560, Note_on_c, 6, 57, 95
5, 97680, Note_off_c, 6, 57, 80
5, 97680, Note_on_c, 6, 55, 95
5, 98400, Note_off_c, 6, 55, 80
5, 98400, Note_on_c, 6, 58, 95
5, 99120, Note_off_c, 6, 58, 80
5, 99120, Note_on_c, 6, 60, 95
5, 99360, Note_off_c, 6, 60, 80
5, 99360, Note_on_c, 6, 57, 95
5, 99840, Note_off_c, 6, 57, 80
5, 99840, Note_on_c, 6, 50, 95
5, 100320, Note_off_c, 6, 50, 80
5, 100320, Note_on_c, 6, 64, 95
5, 100560, Note_off_c, 6, 64, 80
5, 100560, Note_on_c, 6, 60, 95
5, 100800, Note_off_c, 6, 60, 80
5, 100800, Note_on_c, 6, 57, 95
5, 101040, Note_off_c, 6, 57, 80
5, 101040, Note_on_c, 6, 55, 95
5, 102240, Note_off_c, 6, 55, 80
5, 102240, End_track
6, 0, Start_track
6, 0, Title_t, "Keyboard"
6, 0, Control_c, 11, 100, 0
6, 0, Control_c, 11, 101, 0
6, 0, Control_c, 11, 6, 12
6, 0, Pitch_bend_c, 11, 8192
6, 0, Control_c, 11, 101, 0
6, 0, Control_c, 11, 100, 1
6, 0, Control_c, 11, 6, 64
6, 0, Control_c, 11, 38, 0
6, 0, Control_c, 11, 101, 127
6, 0, Control_c, 11, 100, 127
6, 0, Control_c, 10, 100, 0
6, 0, Control_c, 10, 101, 0
6, 0, Control_c, 10, 6, 12
6, 0, Pitch_bend_c, 10, 8192
6, 0, Control_c, 10, 101, 0
6, 0, Control_c, 10, 100, 1
6, 0, Control_c, 10, 6, 64
6, 0, Control_c, 10, 38, 0
6, 0, Control_c, 10, 101, 127
6, 0, Control_c, 10, 100, 127
6, 0, Control_c, 11, 101, 0
6, 0, Control_c, 11, 100, 2
6, 0, Control_c, 11, 6, 64
6, 0, Control_c, 11, 101, 127
6, 0, Control_c, 11, 100, 127
6, 0, Control_c, 10, 101, 0
6, 0, Control_c, 10, 100, 2
6, 0, Control_c, 10, 6, 64
6, 0, Control_c, 10, 101, 127
6, 0, Control_c, 10, 100, 127
6, 0, Program_c, 11, 19
6, 0, Program_c, 10, 19
6, 0, Control_c, 11, 0, 0
6, 0, Control_c, 10, 0, 0
6, 0, Control_c, 11, 7, 80
6, 0, Control_c, 10, 7, 80
6, 0, Control_c, 11, 10, 64
6, 0, Control_c, 10, 10, 64
6, 0, Control_c, 11, 93, 0
6, 0, Control_c, 10, 93, 0
6, 0, Control_c, 11, 91, 0
6, 0, Control_c, 10, 91, 0
6, 0, Control_c, 11, 92, 0
6, 0, Control_c, 10, 92, 0
6, 0, Control_c, 11, 95, 0
6, 0, Control_c, 10, 95, 0
6, 0, Note_on_c, 10, 74, 95
6, 0, Note_on_c, 10, 71, 95
6, 0, Note_on_c, 10, 67, 95
6, 720, Note_off_c, 10, 74, 80
6, 720, Note_off_c, 10, 71, 80
6, 720, Note_off_c, 10, 67, 80
6, 720, Note_on_c, 10, 74, 95
6, 720, Note_on_c, 10, 69, 95
6, 720, Note_on_c, 10, 65, 95
6, 1440, Note_off_c, 10, 74, 80
6, 1440, Note_off_c, 10, 69, 80
6, 1440, Note_off_c, 10, 65, 80
6, 1440, Note_on_c, 10, 72, 95
6, 1440, Note_on_c, 10, 69, 95
6, 1440, Note_on_c, 10, 65, 95
6, 2160, Note_off_c, 10, 72, 80
6, 2160, Note_off_c, 10, 69, 80
6, 2160, Note_off_c, 10, 65, 80
6, 2160, Note_on_c, 10, 72, 95
6, 2160, Note_on_c, 10, 67, 95
6, 2160, Note_on_c, 10, 64, 95
6, 2880, Note_off_c, 10, 72, 80
6, 2880, Note_off_c, 10, 67, 80
6, 2880, Note_off_c, 10, 64, 80
6, 2880, Note_on_c, 10, 74, 95
6, 2880, Note_on_c, 10, 71, 95
6, 2880, Note_on_c, 10, 67, 95
6, 3600, Note_off_c, 10, 74, 80
6, 3600, Note_off_c, 10, 71, 80
6, 3600, Note_off_c, 10, 67, 80
6, 3600, Note_on_c, 10, 74, 95
6, 3600, Note_on_c, 10, 69, 95
6, 3600, Note_on_c, 10, 65, 95
6, 4320, Note_off_c, 10, 74, 80
6, 4320, Note_off_c, 10, 69, 80
6, 4320, Note_off_c, 10, 65, 80
6, 4320, Note_on_c, 10, 72, 95
6, 4320, Note_on_c, 10, 67, 95
6, 4320, Note_on_c, 10, 64, 95
6, 5760, Note_off_c, 10, 72, 80
6, 5760, Note_off_c, 10, 67, 80
6, 5760, Note_off_c, 10, 64, 80
6, 63360, Note_on_c, 10, 74, 95
6, 63360, Note_on_c, 10, 71, 95
6, 63360, Note_on_c, 10, 67, 95
6, 64080, Note_off_c, 10, 74, 80
6, 64080, Note_off_c, 10, 71, 80
6, 64080, Note_off_c, 10, 67, 80
6, 64080, Note_on_c, 10, 74, 95
6, 64080, Note_on_c, 10, 69, 95
6, 64080, Note_on_c, 10, 65, 95
6, 64800, Note_off_c, 10, 74, 80
6, 64800, Note_off_c, 10, 69, 80
6, 64800, Note_off_c, 10, 65, 80
6, 64800, Note_on_c, 10, 72, 95
6, 64800, Note_on_c, 10, 69, 95
6, 64800, Note_on_c, 10, 65, 95
6, 65520, Note_off_c, 10, 72, 80
6, 65520, Note_off_c, 10, 69, 80
6, 65520, Note_off_c, 10, 65, 80
6, 65520, Note_on_c, 10, 72, 95
6, 65520, Note_on_c, 10, 67, 95
6, 65520, Note_on_c, 10, 64, 95
6, 66240, Note_off_c, 10, 72, 80
6, 66240, Note_off_c, 10, 67, 80
6, 66240, Note_off_c, 10, 64, 80
6, 66240, Note_on_c, 10, 74, 95
6, 66240, Note_on_c, 10, 71, 95
6, 66240, Note_on_c, 10, 67, 95
6, 66960, Note_off_c, 10, 74, 80
6, 66960, Note_off_c, 10, 71, 80
6, 66960, Note_off_c, 10, 67, 80
6, 66960, Note_on_c, 10, 74, 95
6, 66960, Note_on_c, 10, 69, 95
6, 66960, Note_on_c, 10, 65, 95
6, 67680, Note_off_c, 10, 74, 80
6, 67680, Note_off_c, 10, 69, 80
6, 67680, Note_off_c, 10, 65, 80
6, 67680, End_track
7, 0, Start_track
7, 0, Title_t, "Vox"
7, 0, Control_c, 13, 100, 0
7, 0, Control_c, 13, 101, 0
7, 0, Control_c, 13, 6, 12
7, 0, Pitch_bend_c, 13, 8192
7, 0, Control_c, 13, 101, 0
7, 0, Control_c, 13, 100, 1
7, 0, Control_c, 13, 6, 64
7, 0, Control_c, 13, 38, 0
7, 0, Control_c, 13, 101, 127
7, 0, Control_c, 13, 100, 127
7, 0, Control_c, 12, 100, 0
7, 0, Control_c, 12, 101, 0
7, 0, Control_c, 12, 6, 12
7, 0, Pitch_bend_c, 12, 8192
7, 0, Control_c, 12, 101, 0
7, 0, Control_c, 12, 100, 1
7, 0, Control_c, 12, 6, 64
7, 0, Control_c, 12, 38, 0
7, 0, Control_c, 12, 101, 127
7, 0, Control_c, 12, 100, 127
7, 0, Control_c, 13, 101, 0
7, 0, Control_c, 13, 100, 2
7, 0, Control_c, 13, 6, 64
7, 0, Control_c, 13, 101, 127
7, 0, Control_c, 13, 100, 127
7, 0, Control_c, 12, 101, 0
7, 0, Control_c, 12, 100, 2
7, 0, Control_c, 12, 6, 64
7, 0, Control_c, 12, 101, 127
7, 0, Control_c, 12, 100, 127
7, 0, Program_c, 13, 70
7, 0, Program_c, 12, 70
7, 0, Control_c, 13, 0, 0
7, 0, Control_c, 12, 0, 0
7, 0, Control_c, 13, 7, 127
7, 0, Control_c, 12, 7, 127
7, 0, Control_c, 13, 10, 64
7, 0, Control_c, 12, 10, 64
7, 0, Control_c, 13, 93, 0
7, 0, Control_c, 12, 93, 0
7, 0, Control_c, 13, 91, 0
7, 0, Control_c, 12, 91, 0
7, 0, Control_c, 13, 92, 0
7, 0, Control_c, 12, 92, 0
7, 0, Control_c, 13, 95, 0
7, 0, Control_c, 12, 95, 0
7, 5400, Note_on_c, 12, 57, 95
7, 5520, Note_off_c, 12, 57, 80
7, 5520, Note_on_c, 12, 59, 95
7, 5640, Note_off_c, 12, 59, 80
7, 5640, Note_on_c, 12, 57, 95
7, 5760, Note_off_c, 12, 57, 80
7, 5760, Note_on_c, 12, 59, 95
7, 6000, Note_off_c, 12, 59, 80
7, 6000, Note_on_c, 12, 59, 95
7, 6120, Note_off_c, 12, 59, 80
7, 6120, Note_on_c, 12, 57, 95
7, 6240, Note_off_c, 12, 57, 80
7, 6240, Note_on_c, 12, 59, 95
7, 6480, Note_off_c, 12, 59, 80
7, 6480, Note_on_c, 12, 62, 95
7, 7200, Note_off_c, 12, 62, 80
7, 7560, Note_on_c, 12, 55, 95
7, 7680, Note_off_c, 12, 55, 80
7, 7680, Note_on_c, 12, 57, 95
7, 7800, Note_off_c, 12, 57, 80
7, 7800, Note_on_c, 12, 55, 95
7, 7920, Note_off_c, 12, 55, 80
7, 7920, Note_on_c, 12, 57, 95
7, 8040, Note_off_c, 12, 57, 80
7, 8040, Note_on_c, 12, 55, 95
7, 8160, Note_off_c, 12, 55, 80
7, 8160, Note_on_c, 12, 57, 95
7, 8400, Note_off_c, 12, 57, 80
7, 8400, Note_on_c, 12, 59, 95
7, 9120, Note_off_c, 12, 59, 80
7, 9600, Note_on_c, 12, 55, 95
7, 9720, Note_off_c, 12, 55, 80
7, 9720, Note_on_c, 12, 54, 95
7, 9840, Note_off_c, 12, 54, 80
7, 9840, Note_on_c, 12, 55, 95
7, 9960, Note_off_c, 12, 55, 80
7, 9960, Note_on_c, 12, 54, 95
7, 10080, Note_off_c, 12, 54, 80
7, 10080, Note_on_c, 12, 55, 95
7, 10320, Note_off_c, 12, 55, 80
7, 10320, Note_on_c, 12, 54, 95
7, 11040, Note_off_c, 12, 54, 80
7, 11520, Note_on_c, 12, 57, 95
7, 11640, Note_off_c, 12, 57, 80
7, 11640, Note_on_c, 12, 55, 95
7, 11760, Note_off_c, 12, 55, 80
7, 11760, Note_on_c, 12, 57, 95
7, 11880, Note_off_c, 12, 57, 80
7, 11880, Note_on_c, 12, 55, 95
7, 12000, Note_off_c, 12, 55, 80
7, 12000, Note_on_c, 12, 57, 95
7, 12240, Note_off_c, 12, 57, 80
7, 12240, Note_on_c, 12, 55, 95
7, 12960, Note_off_c, 12, 55, 80
7, 13440, Note_on_c, 12, 59, 95
7, 13560, Note_off_c, 12, 59, 80
7, 13560, Note_on_c, 12, 57, 95
7, 13680, Note_off_c, 12, 57, 80
7, 13680, Note_on_c, 12, 59, 95
7, 13800, Note_off_c, 12, 59, 80
7, 13800, Note_on_c, 12, 57, 95
7, 13920, Note_off_c, 12, 57, 80
7, 13920, Note_on_c, 12, 59, 95
7, 14160, Note_off_c, 12, 59, 80
7, 14160, Note_on_c, 12, 62, 95
7, 14880, Note_off_c, 12, 62, 80
7, 15240, Note_on_c, 12, 55, 95
7, 15360, Note_off_c, 12, 55, 80
7, 15360, Note_on_c, 12, 57, 95
7, 15480, Note_off_c, 12, 57, 80
7, 15480, Note_on_c, 12, 55, 95
7, 15600, Note_off_c, 12, 55, 80
7, 15600, Note_on_c, 12, 57, 95
7, 15720, Note_off_c, 12, 57, 80
7, 15720, Note_on_c, 12, 55, 95
7, 15840, Note_off_c, 12, 55, 80
7, 15840, Note_on_c, 12, 57, 95
7, 16080, Note_off_c, 12, 57, 80
7, 16080, Note_on_c, 12, 59, 95
7, 16800, Note_off_c, 12, 59, 80
7, 17280, Note_on_c, 12, 55, 95
7, 17520, Note_off_c, 12, 55, 80
7, 17520, Note_on_c, 12, 55, 95
7, 17640, Note_off_c, 12, 55, 80
7, 17640, Note_on_c, 12, 55, 95
7, 17760, Note_off_c, 12, 55, 80
7, 17760, Note_on_c, 12, 55, 95
7, 18000, Note_off_c, 12, 55, 80
7, 18000, Note_on_c, 12, 54, 95
7, 18720, Note_off_c, 12, 54, 80
7, 19080, Note_on_c, 12, 55, 95
7, 19200, Note_off_c, 12, 55, 80
7, 19200, Note_on_c, 12, 57, 95
7, 19320, Note_off_c, 12, 57, 80
7, 19320, Note_on_c, 12, 57, 95
7, 19440, Note_off_c, 12, 57, 80
7, 19440, Note_on_c, 12, 57, 95
7, 19680, Note_off_c, 12, 57, 80
7, 19680, Note_on_c, 12, 57, 95
7, 19920, Note_off_c, 12, 57, 80
7, 19920, Note_on_c, 12, 55, 95
7, 20640, Note_off_c, 12, 55, 80
7, 21000, Note_on_c, 12, 59, 95
7, 21120, Note_off_c, 12, 59, 80
7, 21120, Note_on_c, 12, 59, 95
7, 21360, Note_off_c, 12, 59, 80
7, 21360, Note_on_c, 12, 62, 95
7, 21600, Note_off_c, 12, 62, 80
7, 21600, Note_on_c, 12, 59, 95
7, 21960, Note_off_c, 12, 59, 80
7, 21960, Note_on_c, 12, 59, 95
7, 22080, Note_off_c, 12, 59, 80
7, 22080, Note_on_c, 12, 62, 95
7, 22320, Note_off_c, 12, 62, 80
7, 22320, Note_on_c, 12, 59, 95
7, 22440, Note_off_c, 12, 59, 80
7, 22440, Note_on_c, 12, 57, 95
7, 22680, Note_off_c, 12, 57, 80
7, 22680, Note_on_c, 12, 59, 95
7, 22800, Note_off_c, 12, 59, 80
7, 22800, Note_on_c, 12, 55, 95
7, 23040, Note_off_c, 12, 55, 80
7, 23160, Note_on_c, 12, 59, 95
7, 23280, Note_off_c, 12, 59, 80
7, 23280, Note_on_c, 12, 59, 95
7, 23400, Note_off_c, 12, 59, 80
7, 23400, Note_on_c, 12, 59, 95
7, 23520, Note_off_c, 12, 59, 80
7, 23520, Note_on_c, 12, 62, 95
7, 23760, Note_off_c, 12, 62, 80
7, 23760, Note_on_c, 12, 59, 95
7, 24000, Note_off_c, 12, 59, 80
7, 24000, Note_on_c, 12, 62, 95
7, 24240, Note_off_c, 12, 62, 80
7, 24240, Note_on_c, 12, 59, 95
7, 24360, Note_off_c, 12, 59, 80
7, 24360, Note_on_c, 12, 57, 95
7, 24600, Note_off_c, 12, 57, 80
7, 24600, Note_on_c, 12, 59, 95
7, 24720, Note_off_c, 12, 59, 80
7, 24720, Note_on_c, 12, 55, 95
7, 24960, Note_off_c, 12, 55, 80
7, 25080, Note_on_c, 12, 59, 95
7, 25200, Note_off_c, 12, 59, 80
7, 25200, Note_on_c, 12, 59, 95
7, 25320, Note_off_c, 12, 59, 80
7, 25320, Note_on_c, 12, 59, 95
7, 25440, Note_off_c, 12, 59, 80
7, 25440, Note_on_c, 12, 62, 95
7, 25680, Note_off_c, 12, 62, 80
7, 25680, Note_on_c, 12, 59, 95
7, 25920, Note_off_c, 12, 59, 80
7, 25920, Note_on_c, 12, 62, 95
7, 26160, Note_off_c, 12, 62, 80
7, 26160, Note_on_c, 12, 59, 95
7, 26280, Note_off_c, 12, 59, 80
7, 26280, Note_on_c, 12, 57, 95
7, 26520, Note_off_c, 12, 57, 80
7, 26520, Note_on_c, 12, 59, 95
7, 26640, Note_off_c, 12, 59, 80
7, 26640, Note_on_c, 12, 59, 95
7, 26760, Note_off_c, 12, 59, 80
7, 26760, Note_on_c, 12, 60, 95
7, 27960, Note_off_c, 12, 60, 80
7, 27960, Note_on_c, 12, 59, 95
7, 28080, Note_off_c, 12, 59, 80
7, 28080, Note_on_c, 12, 60, 95
7, 28200, Note_off_c, 12, 60, 80
7, 28200, Note_on_c, 12, 59, 95
7, 28320, Note_off_c, 12, 59, 80
7, 28320, Note_on_c, 12, 62, 95
7, 28560, Note_off_c, 12, 62, 80
7, 28560, Note_on_c, 12, 55, 95
7, 28800, Note_off_c, 12, 55, 80
7, 28800, Note_on_c, 12, 60, 95
7, 29880, Note_off_c, 12, 60, 80
7, 29880, Note_on_c, 12, 59, 95
7, 30000, Note_off_c, 12, 59, 80
7, 30000, Note_on_c, 12, 60, 95
7, 30120, Note_off_c, 12, 60, 80
7, 30120, Note_on_c, 12, 59, 95
7, 30240, Note_off_c, 12, 59, 80
7, 30240, Note_on_c, 12, 62, 95
7, 30480, Note_off_c, 12, 62, 80
7, 30480, Note_on_c, 12, 55, 95
7, 30720, Note_off_c, 12, 55, 80
7, 30720, Note_on_c, 12, 59, 95
7, 30960, Note_off_c, 12, 59, 80
7, 30960, Note_on_c, 12, 59, 95
7, 31080, Note_off_c, 12, 59, 80
7, 31080, Note_on_c, 12, 57, 95
7, 31200, Note_off_c, 12, 57, 80
7, 31200, Note_on_c, 12, 59, 95
7, 31440, Note_off_c, 12, 59, 80
7, 31440, Note_on_c, 12, 62, 95
7, 32160, Note_off_c, 12, 62, 80
7, 32640, Note_on_c, 12, 57, 95
7, 32760, Note_off_c, 12, 57, 80
7, 32760, Note_on_c, 12, 55, 95
7, 32880, Note_off_c, 12, 55, 80
7, 32880, Note_on_c, 12, 57, 95
7, 33000, Note_off_c, 12, 57, 80
7, 33000, Note_on_c, 12, 55, 95
7, 33120, Note_off_c, 12, 55, 80
7, 33120, Note_on_c, 12, 57, 95
7, 33360, Note_off_c, 12, 57, 80
7, 33360, Note_on_c, 12, 59, 95
7, 34080, Note_off_c, 12, 59, 80
7, 34320, Note_on_c, 12, 55, 95
7, 34440, Note_off_c, 12, 55, 80
7, 34440, Note_on_c, 12, 55, 95
7, 34560, Note_off_c, 12, 55, 80
7, 34560, Note_on_c, 12, 55, 95
7, 34800, Note_off_c, 12, 55, 80
7, 34800, Note_on_c, 12, 55, 95
7, 35040, Note_off_c, 12, 55, 80
7, 35040, Note_on_c, 12, 55, 95
7, 35280, Note_off_c, 12, 55, 80
7, 35280, Note_on_c, 12, 54, 95
7, 36240, Note_off_c, 12, 54, 80
7, 36240, Note_on_c, 12, 55, 95
7, 36360, Note_off_c, 12, 55, 80
7, 36360, Note_on_c, 12, 55, 95
7, 36480, Note_off_c, 12, 55, 80
7, 36480, Note_on_c, 12, 57, 95
7, 36720, Note_off_c, 12, 57, 80
7, 36720, Note_on_c, 12, 57, 95
7, 36960, Note_off_c, 12, 57, 80
7, 36960, Note_on_c, 12, 55, 95
7, 37680, Note_off_c, 12, 55, 80
7, 37680, Note_on_c, 12, 55, 95
7, 37920, Note_off_c, 12, 55, 80
7, 37920, Note_on_c, 12, 55, 95
7, 38160, Note_off_c, 12, 55, 80
7, 38160, Note_on_c, 12, 55, 95
7, 38400, Note_off_c, 12, 55, 80
7, 38400, Note_on_c, 12, 59, 95
7, 38640, Note_off_c, 12, 59, 80
7, 38640, Note_on_c, 12, 59, 95
7, 38760, Note_off_c, 12, 59, 80
7, 38760, Note_on_c, 12, 57, 95
7, 38880, Note_off_c, 12, 57, 80
7, 38880, Note_on_c, 12, 59, 95
7, 39120, Note_off_c, 12, 59, 80
7, 39120, Note_on_c, 12, 62, 95
7, 39840, Note_off_c, 12, 62, 80
7, 40200, Note_on_c, 12, 55, 95
7, 40320, Note_off_c, 12, 55, 80
7, 40320, Note_on_c, 12, 57, 95
7, 40440, Note_off_c, 12, 57, 80
7, 40440, Note_on_c, 12, 55, 95
7, 40560, Note_off_c, 12, 55, 80
7, 40560, Note_on_c, 12, 57, 95
7, 40680, Note_off_c, 12, 57, 80
7, 40680, Note_on_c, 12, 55, 95
7, 40800, Note_off_c, 12, 55, 80
7, 40800, Note_on_c, 12, 57, 95
7, 41040, Note_off_c, 12, 57, 80
7, 41040, Note_on_c, 12, 59, 95
7, 41760, Note_off_c, 12, 59, 80
7, 42240, Note_on_c, 12, 55, 95
7, 42480, Note_off_c, 12, 55, 80
7, 42480, Note_on_c, 12, 55, 95
7, 42720, Note_off_c, 12, 55, 80
7, 42720, Note_on_c, 12, 55, 95
7, 42960, Note_off_c, 12, 55, 80
7, 42960, Note_on_c, 12, 54, 95
7, 43680, Note_off_c, 12, 54, 80
7, 44040, Note_on_c, 12, 55, 95
7, 44160, Note_off_c, 12, 55, 80
7, 44160, Note_on_c, 12, 57, 95
7, 44400, Note_off_c, 12, 57, 80
7, 44400, Note_on_c, 12, 57, 95
7, 44640, Note_off_c, 12, 57, 80
7, 44640, Note_on_c, 12, 55, 95
7, 45360, Note_off_c, 12, 55, 80
7, 45360, Note_on_c, 12, 55, 95
7, 45480, Note_off_c, 12, 55, 80
7, 45480, Note_on_c, 12, 55, 95
7, 45600, Note_off_c, 12, 55, 80
7, 45600, Note_on_c, 12, 55, 95
7, 45720, Note_off_c, 12, 55, 80
7, 45720, Note_on_c, 12, 57, 95
7, 45840, Note_off_c, 12, 57, 80
7, 45840, Note_on_c, 12, 55, 95
7, 46080, Note_off_c, 12, 55, 80
7, 46080, Note_on_c, 12, 59, 95
7, 46320, Note_off_c, 12, 59, 80
7, 46320, Note_on_c, 12, 62, 95
7, 46560, Note_off_c, 12, 62, 80
7, 46560, Note_on_c, 12, 59, 95
7, 46920, Note_off_c, 12, 59, 80
7, 46920, Note_on_c, 12, 59, 95
7, 47040, Note_off_c, 12, 59, 80
7, 47040, Note_on_c, 12, 62, 95
7, 47280, Note_off_c, 12, 62, 80
7, 47280, Note_on_c, 12, 59, 95
7, 47400, Note_off_c, 12, 59, 80
7, 47400, Note_on_c, 12, 57, 95
7, 47640, Note_off_c, 12, 57, 80
7, 47640, Note_on_c, 12, 59, 95
7, 47760, Note_off_c, 12, 59, 80
7, 47760, Note_on_c, 12, 55, 95
7, 48000, Note_off_c, 12, 55, 80
7, 48120, Note_on_c, 12, 59, 95
7, 48240, Note_off_c, 12, 59, 80
7, 48240, Note_on_c, 12, 59, 95
7, 48360, Note_off_c, 12, 59, 80
7, 48360, Note_on_c, 12, 59, 95
7, 48480, Note_off_c, 12, 59, 80
7, 48480, Note_on_c, 12, 62, 95
7, 48720, Note_off_c, 12, 62, 80
7, 48720, Note_on_c, 12, 59, 95
7, 48960, Note_off_c, 12, 59, 80
7, 48960, Note_on_c, 12, 62, 95
7, 49200, Note_off_c, 12, 62, 80
7, 49200, Note_on_c, 12, 59, 95
7, 49320, Note_off_c, 12, 59, 80
7, 49320, Note_on_c, 12, 57, 95
7, 49560, Note_off_c, 12, 57, 80
7, 49560, Note_on_c, 12, 59, 95
7, 49680, Note_off_c, 12, 59, 80
7, 49680, Note_on_c, 12, 55, 95
7, 49920, Note_off_c, 12, 55, 80
7, 50040, Note_on_c, 12, 59, 95
7, 50160, Note_off_c, 12, 59, 80
7, 50160, Note_on_c, 12, 59, 95
7, 50280, Note_off_c, 12, 59, 80
7, 50280, Note_on_c, 12, 59, 95
7, 50400, Note_off_c, 12, 59, 80
7, 50400, Note_on_c, 12, 62, 95
7, 50640, Note_off_c, 12, 62, 80
7, 50640, Note_on_c, 12, 59, 95
7, 50880, Note_off_c, 12, 59, 80
7, 50880, Note_on_c, 12, 62, 95
7, 51120, Note_off_c, 12, 62, 80
7, 51120, Note_on_c, 12, 59, 95
7, 51240, Note_off_c, 12, 59, 80
7, 51240, Note_on_c, 12, 57, 95
7, 51480, Note_off_c, 12, 57, 80
7, 51480, Note_on_c, 12, 59, 95
7, 51600, Note_off_c, 12, 59, 80
7, 51600, Note_on_c, 12, 59, 95
7, 51720, Note_off_c, 12, 59, 80
7, 51720, Note_on_c, 12, 60, 95
7, 52920, Note_off_c, 12, 60, 80
7, 52920, Note_on_c, 12, 59, 95
7, 53040, Note_off_c, 12, 59, 80
7, 53040, Note_on_c, 12, 60, 95
7, 53160, Note_off_c, 12, 60, 80
7, 53160, Note_on_c, 12, 59, 95
7, 53280, Note_off_c, 12, 59, 80
7, 53280, Note_on_c, 12, 62, 95
7, 53520, Note_off_c, 12, 62, 80
7, 53520, Note_on_c, 12, 55, 95
7, 53760, Note_off_c, 12, 55, 80
7, 53760, Note_on_c, 12, 60, 95
7, 54840, Note_off_c, 12, 60, 80
7, 54840, Note_on_c, 12, 59, 95
7, 54960, Note_off_c, 12, 59, 80
7, 54960, Note_on_c, 12, 60, 95
7, 55080, Note_off_c, 12, 60, 80
7, 55080, Note_on_c, 12, 59, 95
7, 55200, Note_off_c, 12, 59, 80
7, 55200, Note_on_c, 12, 62, 95
7, 55440, Note_off_c, 12, 62, 80
7, 55440, Note_on_c, 12, 55, 95
7, 55680, Note_off_c, 12, 55, 80
7, 63360, Note_on_c, 12, 59, 95
7, 64080, Note_off_c, 12, 59, 80
7, 64080, Note_on_c, 12, 62, 95
7, 64800, Note_off_c, 12, 62, 80
7, 64800, Note_on_c, 12, 57, 95
7, 65520, Note_off_c, 12, 57, 80
7, 65520, Note_on_c, 12, 60, 95
7, 66240, Note_off_c, 12, 60, 80
7, 66240, Note_on_c, 12, 59, 95
7, 66960, Note_off_c, 12, 59, 80
7, 66960, Note_on_c, 12, 62, 95
7, 67680, Note_off_c, 12, 62, 80
7, 67680, Note_on_c, 12, 55, 95
7, 69600, Note_off_c, 12, 55, 80
7, 71520, Note_on_c, 12, 59, 95
7, 71760, Note_off_c, 12, 59, 80
7, 71760, Note_on_c, 12, 62, 95
7, 72000, Note_off_c, 12, 62, 80
7, 72000, Note_on_c, 12, 59, 95
7, 72360, Note_off_c, 12, 59, 80
7, 72360, Note_on_c, 12, 59, 95
7, 72480, Note_off_c, 12, 59, 80
7, 72480, Note_on_c, 12, 62, 95
7, 72720, Note_off_c, 12, 62, 80
7, 72720, Note_on_c, 12, 59, 95
7, 72840, Note_off_c, 12, 59, 80
7, 72840, Note_on_c, 12, 57, 95
7, 73080, Note_off_c, 12, 57, 80
7, 73080, Note_on_c, 12, 59, 95
7, 73200, Note_off_c, 12, 59, 80
7, 73200, Note_on_c, 12, 55, 95
7, 73440, Note_off_c, 12, 55, 80
7, 73560, Note_on_c, 12, 59, 95
7, 73680, Note_off_c, 12, 59, 80
7, 73680, Note_on_c, 12, 59, 95
7, 73800, Note_off_c, 12, 59, 80
7, 73800, Note_on_c, 12, 59, 95
7, 73920, Note_off_c, 12, 59, 80
7, 73920, Note_on_c, 12, 62, 95
7, 74160, Note_off_c, 12, 62, 80
7, 74160, Note_on_c, 12, 59, 95
7, 74400, Note_off_c, 12, 59, 80
7, 74400, Note_on_c, 12, 62, 95
7, 74640, Note_off_c, 12, 62, 80
7, 74640, Note_on_c, 12, 59, 95
7, 74760, Note_off_c, 12, 59, 80
7, 74760, Note_on_c, 12, 57, 95
7, 75000, Note_off_c, 12, 57, 80
7, 75000, Note_on_c, 12, 59, 95
7, 75120, Note_off_c, 12, 59, 80
7, 75120, Note_on_c, 12, 55, 95
7, 75360, Note_off_c, 12, 55, 80
7, 75480, Note_on_c, 12, 59, 95
7, 75600, Note_off_c, 12, 59, 80
7, 75600, Note_on_c, 12, 59, 95
7, 75720, Note_off_c, 12, 59, 80
7, 75720, Note_on_c, 12, 59, 95
7, 75840, Note_off_c, 12, 59, 80
7, 75840, Note_on_c, 12, 62, 95
7, 76080, Note_off_c, 12, 62, 80
7, 76080, Note_on_c, 12, 59, 95
7, 76320, Note_off_c, 12, 59, 80
7, 76320, Note_on_c, 12, 62, 95
7, 76560, Note_off_c, 12, 62, 80
7, 76560, Note_on_c, 12, 59, 95
7, 76680, Note_off_c, 12, 59, 80
7, 76680, Note_on_c, 12, 57, 95
7, 76920, Note_off_c, 12, 57, 80
7, 76920, Note_on_c, 12, 59, 95
7, 77040, Note_off_c, 12, 59, 80
7, 77040, Note_on_c, 12, 59, 95
7, 77160, Note_off_c, 12, 59, 80
7, 77160, Note_on_c, 12, 60, 95
7, 78360, Note_off_c, 12, 60, 80
7, 78360, Note_on_c, 12, 59, 95
7, 78480, Note_off_c, 12, 59, 80
7, 78480, Note_on_c, 12, 60, 95
7, 78600, Note_off_c, 12, 60, 80
7, 78600, Note_on_c, 12, 59, 95
7, 78720, Note_off_c, 12, 59, 80
7, 78720, Note_on_c, 12, 62, 95
7, 78960, Note_off_c, 12, 62, 80
7, 78960, Note_on_c, 12, 55, 95
7, 79200, Note_off_c, 12, 55, 80
7, 79200, Note_on_c, 12, 60, 95
7, 80280, Note_off_c, 12, 60, 80
7, 80280, Note_on_c, 12, 59, 95
7, 80400, Note_off_c, 12, 59, 80
7, 80400, Note_on_c, 12, 60, 95
7, 80520, Note_off_c, 12, 60, 80
7, 80520, Note_on_c, 12, 59, 95
7, 80640, Note_off_c, 12, 59, 80
7, 80640, Note_on_c, 12, 62, 95
7, 80880, Note_off_c, 12, 62, 80
7, 80880, Note_on_c, 12, 55, 95
7, 81120, Note_off_c, 12, 55, 80
7, 81120, Note_on_c, 12, 59, 95
7, 81360, Note_off_c, 12, 59, 80
7, 81360, Note_on_c, 12, 62, 95
7, 81600, Note_off_c, 12, 62, 80
7, 81600, Note_on_c, 12, 59, 95
7, 81960, Note_off_c, 12, 59, 80
7, 81960, Note_on_c, 12, 59, 95
7, 82080, Note_off_c, 12, 59, 80
7, 82080, Note_on_c, 12, 62, 95
7, 82320, Note_off_c, 12, 62, 80
7, 82320, Note_on_c, 12, 59, 95
7, 82440, Note_off_c, 12, 59, 80
7, 82440, Note_on_c, 12, 57, 95
7, 82680, Note_off_c, 12, 57, 80
7, 82680, Note_on_c, 12, 59, 95
7, 82800, Note_off_c, 12, 59, 80
7, 82800, Note_on_c, 12, 55, 95
7, 83040, Note_off_c, 12, 55, 80
7, 83160, Note_on_c, 12, 59, 95
7, 83280, Note_off_c, 12, 59, 80
7, 83280, Note_on_c, 12, 59, 95
7, 83400, Note_off_c, 12, 59, 80
7, 83400, Note_on_c, 12, 59, 95
7, 83520, Note_off_c, 12, 59, 80
7, 83520, Note_on_c, 12, 62, 95
7, 83760, Note_off_c, 12, 62, 80
7, 83760, Note_on_c, 12, 59, 95
7, 84000, Note_off_c, 12, 59, 80
7, 84000, Note_on_c, 12, 62, 95
7, 84240, Note_off_c, 12, 62, 80
7, 84240, Note_on_c, 12, 59, 95
7, 84360, Note_off_c, 12, 59, 80
7, 84360, Note_on_c, 12, 57, 95
7, 84600, Note_off_c, 12, 57, 80
7, 84600, Note_on_c, 12, 59, 95
7, 84720, Note_off_c, 12, 59, 80
7, 84720, Note_on_c, 12, 55, 95
7, 84960, Note_off_c, 12, 55, 80
7, 85080, Note_on_c, 12, 59, 95
7, 85200, Note_off_c, 12, 59, 80
7, 85200, Note_on_c, 12, 59, 95
7, 85320, Note_off_c, 12, 59, 80
7, 85320, Note_on_c, 12, 59, 95
7, 85440, Note_off_c, 12, 59, 80
7, 85440, Note_on_c, 12, 62, 95
7, 85680, Note_off_c, 12, 62, 80
7, 85680, Note_on_c, 12, 59, 95
7, 85920, Note_off_c, 12, 59, 80
7, 85920, Note_on_c, 12, 62, 95
7, 86160, Note_off_c, 12, 62, 80
7, 86160, Note_on_c, 12, 59, 95
7, 86280, Note_off_c, 12, 59, 80
7, 86280, Note_on_c, 12, 57, 95
7, 86520, Note_off_c, 12, 57, 80
7, 86520, Note_on_c, 12, 59, 95
7, 86640, Note_off_c, 12, 59, 80
7, 86640, Note_on_c, 12, 59, 95
7, 86760, Note_off_c, 12, 59, 80
7, 86760, Note_on_c, 12, 60, 95
7, 87960, Note_off_c, 12, 60, 80
7, 87960, Note_on_c, 12, 59, 95
7, 88080, Note_off_c, 12, 59, 80
7, 88080, Note_on_c, 12, 60, 95
7, 88200, Note_off_c, 12, 60, 80
7, 88200, Note_on_c, 12, 59, 95
7, 88320, Note_off_c, 12, 59, 80
7, 88320, Note_on_c, 12, 62, 95
7, 88560, Note_off_c, 12, 62, 80
7, 88560, Note_on_c, 12, 55, 95
7, 88800, Note_off_c, 12, 55, 80
7, 88800, Note_on_c, 12, 60, 95
7, 89880, Note_off_c, 12, 60, 80
7, 89880, Note_on_c, 12, 59, 95
7, 90000, Note_off_c, 12, 59, 80
7, 90000, Note_on_c, 12, 60, 95
7, 90120, Note_off_c, 12, 60, 80
7, 90120, Note_on_c, 12, 59, 95
7, 90240, Note_off_c, 12, 59, 80
7, 90240, Note_on_c, 12, 62, 95
7, 90480, Note_off_c, 12, 62, 80
7, 90480, Note_on_c, 12, 55, 95
7, 90720, Note_off_c, 12, 55, 80
7, 90720, Note_on_c, 12, 64, 95
7, 91200, Note_off_c, 12, 64, 80
7, 91200, Note_on_c, 12, 60, 95
7, 91800, Note_off_c, 12, 60, 80
7, 91800, Note_on_c, 12, 62, 95
7, 91920, Note_off_c, 12, 62, 80
7, 91920, Note_on_c, 12, 64, 95
7, 92040, Note_off_c, 12, 64, 80
7, 92040, Note_on_c, 12, 62, 95
7, 92160, Note_off_c, 12, 62, 80
7, 92160, Note_on_c, 12, 66, 95
7, 92400, Note_off_c, 12, 66, 80
7, 92400, Note_on_c, 12, 62, 95
7, 92640, Note_off_c, 12, 62, 80
7, 92640, Note_on_c, 12, 64, 95
7, 93120, Note_off_c, 12, 64, 80
7, 93120, Note_on_c, 12, 60, 95
7, 93840, Note_off_c, 12, 60, 80
7, 93840, Note_on_c, 12, 57, 95
7, 94080, Note_off_c, 12, 57, 80
7, 94080, Note_on_c, 12, 58, 95
7, 94320, Note_off_c, 12, 58, 80
7, 94320, Note_on_c, 12, 58, 95
7, 94560, Note_off_c, 12, 58, 80
7, 94560, Note_on_c, 12, 59, 95
7, 95040, Note_off_c, 12, 59, 80
7, 95040, Note_on_c, 12, 62, 95
7, 96480, Note_off_c, 12, 62, 80
7, 96480, End_track
8, 0, Start_track
8, 0, Title_t, "Backing Vox"
8, 0, Control_c, 14, 100, 0
8, 0, Control_c, 14, 101, 0
8, 0, Control_c, 14, 6, 12
8, 0, Pitch_bend_c, 14, 8192
8, 0, Control_c, 14, 101, 0
8, 0, Control_c, 14, 100, 1
8, 0, Control_c, 14, 6, 64
8, 0, Control_c, 14, 38, 0
8, 0, Control_c, 14, 101, 127
8, 0, Control_c, 14, 100, 127
8, 0, Control_c, 8, 100, 0
8, 0, Control_c, 8, 101, 0
8, 0, Control_c, 8, 6, 12
8, 0, Pitch_bend_c, 8, 8192
8, 0, Control_c, 8, 101, 0
8, 0, Control_c, 8, 100, 1
8, 0, Control_c, 8, 6, 64
8, 0, Control_c, 8, 38, 0
8, 0, Control_c, 8, 101, 127
8, 0, Control_c, 8, 100, 127
8, 0, Control_c, 14, 101, 0
8, 0, Control_c, 14, 100, 2
8, 0, Control_c, 14, 6, 64
8, 0, Control_c, 14, 101, 127
8, 0, Control_c, 14, 100, 127
8, 0, Control_c, 8, 101, 0
8, 0, Control_c, 8, 100, 2
8, 0, Control_c, 8, 6, 64
8, 0, Control_c, 8, 101, 127
8, 0, Control_c, 8, 100, 127
8, 0, Program_c, 14, 66
8, 0, Program_c, 8, 66
8, 0, Control_c, 14, 0, 0
8, 0, Control_c, 8, 0, 0
8, 0, Control_c, 14, 7, 96
8, 0, Control_c, 8, 7, 96
8, 0, Control_c, 14, 10, 64
8, 0, Control_c, 8, 10, 64
8, 0, Control_c, 14, 93, 0
8, 0, Control_c, 8, 93, 0
8, 0, Control_c, 14, 91, 0
8, 0, Control_c, 8, 91, 0
8, 0, Control_c, 14, 92, 0
8, 0, Control_c, 8, 92, 0
8, 0, Control_c, 14, 95, 0
8, 0, Control_c, 8, 95, 0
8, 21120, Note_on_c, 8, 64, 95
8, 21360, Note_off_c, 8, 64, 80
8, 21360, Note_on_c, 8, 67, 95
8, 21600, Note_off_c, 8, 67, 80
8, 21600, Note_on_c, 8, 64, 95
8, 21840, Note_off_c, 8, 64, 80
8, 23160, Note_on_c, 8, 64, 95
8, 23280, Note_off_c, 8, 64, 80
8, 23280, Note_on_c, 8, 64, 95
8, 23400, Note_off_c, 8, 64, 80
8, 23400, Note_on_c, 8, 64, 95
8, 23520, Note_off_c, 8, 64, 80
8, 23520, Note_on_c, 8, 67, 95
8, 23760, Note_off_c, 8, 67, 80
8, 23760, Note_on_c, 8, 64, 95
8, 24000, Note_off_c, 8, 64, 80
8, 25080, Note_on_c, 8, 64, 95
8, 25200, Note_off_c, 8, 64, 80
8, 25200, Note_on_c, 8, 64, 95
8, 25320, Note_off_c, 8, 64, 80
8, 25320, Note_on_c, 8, 64, 95
8, 25440, Note_off_c, 8, 64, 80
8, 25440, Note_on_c, 8, 67, 95
8, 25680, Note_off_c, 8, 67, 80
8, 25680, Note_on_c, 8, 64, 95
8, 25920, Note_off_c, 8, 64, 80
8, 26640, Note_on_c, 8, 62, 95
8, 26760, Note_off_c, 8, 62, 80
8, 26760, Note_on_c, 8, 64, 95
8, 27840, Note_off_c, 8, 64, 80
8, 27960, Note_on_c, 8, 64, 95
8, 28080, Note_off_c, 8, 64, 80
8, 28080, Note_on_c, 8, 64, 95
8, 28200, Note_off_c, 8, 64, 80
8, 28200, Note_on_c, 8, 62, 95
8, 28320, Note_off_c, 8, 62, 80
8, 28320, Note_on_c, 8, 66, 95
8, 28560, Note_off_c, 8, 66, 80
8, 28560, Note_on_c, 8, 62, 95
8, 28800, Note_off_c, 8, 62, 80
8, 28800, Note_on_c, 8, 64, 95
8, 29760, Note_off_c, 8, 64, 80
8, 29880, Note_on_c, 8, 64, 95
8, 30000, Note_off_c, 8, 64, 80
8, 30000, Note_on_c, 8, 64, 95
8, 30120, Note_off_c, 8, 64, 80
8, 30120, Note_on_c, 8, 62, 95
8, 30240, Note_off_c, 8, 62, 80
8, 30240, Note_on_c, 8, 66, 95
8, 30480, Note_off_c, 8, 66, 80
8, 30480, Note_on_c, 8, 64, 95
8, 30720, Note_off_c, 8, 64, 80
8, 46080, Note_on_c, 8, 64, 95
8, 46320, Note_off_c, 8, 64, 80
8, 46320, Note_on_c, 8, 67, 95
8, 46560, Note_off_c, 8, 67, 80
8, 46560, Note_on_c, 8, 64, 95
8, 46800, Note_off_c, 8, 64, 80
8, 48120, Note_on_c, 8, 64, 95
8, 48240, Note_off_c, 8, 64, 80
8, 48240, Note_on_c, 8, 64, 95
8, 48360, Note_off_c, 8, 64, 80
8, 48360, Note_on_c, 8, 64, 95
8, 48480, Note_off_c, 8, 64, 80
8, 48480, Note_on_c, 8, 67, 95
8, 48720, Note_off_c, 8, 67, 80
8, 48720, Note_on_c, 8, 64, 95
8, 48960, Note_off_c, 8, 64, 80
8, 50040, Note_on_c, 8, 64, 95
8, 50160, Note_off_c, 8, 64, 80
8, 50160, Note_on_c, 8, 64, 95
8, 50280, Note_off_c, 8, 64, 80
8, 50280, Note_on_c, 8, 64, 95
8, 50400, Note_off_c, 8, 64, 80
8, 50400, Note_on_c, 8, 67, 95
8, 50640, Note_off_c, 8, 67, 80
8, 50640, Note_on_c, 8, 64, 95
8, 50880, Note_off_c, 8, 64, 80
8, 51600, Note_on_c, 8, 62, 95
8, 51720, Note_off_c, 8, 62, 80
8, 51720, Note_on_c, 8, 64, 95
8, 52800, Note_off_c, 8, 64, 80
8, 52920, Note_on_c, 8, 64, 95
8, 53040, Note_off_c, 8, 64, 80
8, 53040, Note_on_c, 8, 64, 95
8, 53160, Note_off_c, 8, 64, 80
8, 53160, Note_on_c, 8, 62, 95
8, 53280, Note_off_c, 8, 62, 80
8, 53280, Note_on_c, 8, 66, 95
8, 53520, Note_off_c, 8, 66, 80
8, 53520, Note_on_c, 8, 62, 95
8, 53760, Note_off_c, 8, 62, 80
8, 53760, Note_on_c, 8, 64, 95
8, 54720, Note_off_c, 8, 64, 80
8, 54840, Note_on_c, 8, 64, 95
8, 54960, Note_off_c, 8, 64, 80
8, 54960, Note_on_c, 8, 64, 95
8, 55080, Note_off_c, 8, 64, 80
8, 55080, Note_on_c, 8, 62, 95
8, 55200, Note_off_c, 8, 62, 80
8, 55200, Note_on_c, 8, 66, 95
8, 55440, Note_off_c, 8, 66, 80
8, 55440, Note_on_c, 8, 64, 95
8, 55680, Note_off_c, 8, 64, 80
8, 63360, Note_on_c, 8, 67, 95
8, 63360, Note_on_c, 8, 62, 95
8, 64080, Note_off_c, 8, 67, 80
8, 64080, Note_off_c, 8, 62, 80
8, 64080, Note_on_c, 8, 69, 95
8, 64080, Note_on_c, 8, 65, 95
8, 64800, Note_off_c, 8, 69, 80
8, 64800, Note_off_c, 8, 65, 80
8, 64800, Note_on_c, 8, 67, 95
8, 64800, Note_on_c, 8, 60, 95
8, 65520, Note_off_c, 8, 67, 80
8, 65520, Note_off_c, 8, 60, 80
8, 65520, Note_on_c, 8, 72, 95
8, 65520, Note_on_c, 8, 64, 95
8, 66240, Note_off_c, 8, 72, 80
8, 66240, Note_off_c, 8, 64, 80
8, 66240, Note_on_c, 8, 71, 95
8, 66240, Note_on_c, 8, 62, 95
8, 66960, Note_off_c, 8, 71, 80
8, 66960, Note_off_c, 8, 62, 80
8, 66960, Note_on_c, 8, 67, 95
8, 66960, Note_on_c, 8, 65, 95
8, 67680, Note_off_c, 8, 67, 80
8, 67680, Note_off_c, 8, 65, 80
8, 71520, Note_on_c, 8, 64, 95
8, 71760, Note_off_c, 8, 64, 80
8, 71760, Note_on_c, 8, 67, 95
8, 72000, Note_off_c, 8, 67, 80
8, 72000, Note_on_c, 8, 64, 95
8, 72240, Note_off_c, 8, 64, 80
8, 73560, Note_on_c, 8, 64, 95
8, 73680, Note_off_c, 8, 64, 80
8, 73680, Note_on_c, 8, 64, 95
8, 73800, Note_off_c, 8, 64, 80
8, 73800, Note_on_c, 8, 64, 95
8, 73920, Note_off_c, 8, 64, 80
8, 73920, Note_on_c, 8, 67, 95
8, 74160, Note_off_c, 8, 67, 80
8, 74160, Note_on_c, 8, 64, 95
8, 74400, Note_off_c, 8, 64, 80
8, 75480, Note_on_c, 8, 64, 95
8, 75600, Note_off_c, 8, 64, 80
8, 75600, Note_on_c, 8, 64, 95
8, 75720, Note_off_c, 8, 64, 80
8, 75720, Note_on_c, 8, 64, 95
8, 75840, Note_off_c, 8, 64, 80
8, 75840, Note_on_c, 8, 67, 95
8, 76080, Note_off_c, 8, 67, 80
8, 76080, Note_on_c, 8, 64, 95
8, 76320, Note_off_c, 8, 64, 80
8, 77040, Note_on_c, 8, 62, 95
8, 77160, Note_off_c, 8, 62, 80
8, 77160, Note_on_c, 8, 64, 95
8, 78240, Note_off_c, 8, 64, 80
8, 78360, Note_on_c, 8, 64, 95
8, 78480, Note_off_c, 8, 64, 80
8, 78480, Note_on_c, 8, 64, 95
8, 78600, Note_off_c, 8, 64, 80
8, 78600, Note_on_c, 8, 62, 95
8, 78720, Note_off_c, 8, 62, 80
8, 78720, Note_on_c, 8, 66, 95
8, 78960, Note_off_c, 8, 66, 80
8, 78960, Note_on_c, 8, 62, 95
8, 79200, Note_off_c, 8, 62, 80
8, 79200, Note_on_c, 8, 64, 95
8, 80160, Note_off_c, 8, 64, 80
8, 80280, Note_on_c, 8, 64, 95
8, 80400, Note_off_c, 8, 64, 80
8, 80400, Note_on_c, 8, 64, 95
8, 80520, Note_off_c, 8, 64, 80
8, 80520, Note_on_c, 8, 62, 95
8, 80640, Note_off_c, 8, 62, 80
8, 80640, Note_on_c, 8, 66, 95
8, 80880, Note_off_c, 8, 66, 80
8, 80880, Note_on_c, 8, 64, 95
8, 81120, Note_off_c, 8, 64, 80
8, 81120, Note_on_c, 8, 64, 95
8, 81360, Note_off_c, 8, 64, 80
8, 81360, Note_on_c, 8, 67, 95
8, 81600, Note_off_c, 8, 67, 80
8, 81600, Note_on_c, 8, 64, 95
8, 81840, Note_off_c, 8, 64, 80
8, 83160, Note_on_c, 8, 64, 95
8, 83280, Note_off_c, 8, 64, 80
8, 83280, Note_on_c, 8, 64, 95
8, 83400, Note_off_c, 8, 64, 80
8, 83400, Note_on_c, 8, 64, 95
8, 83520, Note_off_c, 8, 64, 80
8, 83520, Note_on_c, 8, 67, 95
8, 83760, Note_off_c, 8, 67, 80
8, 83760, Note_on_c, 8, 64, 95
8, 84000, Note_off_c, 8, 64, 80
8, 85080, Note_on_c, 8, 64, 95
8, 85200, Note_off_c, 8, 64, 80
8, 85200, Note_on_c, 8, 64, 95
8, 85320, Note_off_c, 8, 64, 80
8, 85320, Note_on_c, 8, 64, 95
8, 85440, Note_off_c, 8, 64, 80
8, 85440, Note_on_c, 8, 67, 95
8, 85680, Note_off_c, 8, 67, 80
8, 85680, Note_on_c, 8, 64, 95
8, 85920, Note_off_c, 8, 64, 80
8, 86640, Note_on_c, 8, 62, 95
8, 86760, Note_off_c, 8, 62, 80
8, 86760, Note_on_c, 8, 64, 95
8, 87840, Note_off_c, 8, 64, 80
8, 87960, Note_on_c, 8, 64, 95
8, 88080, Note_off_c, 8, 64, 80
8, 88080, Note_on_c, 8, 64, 95
8, 88200, Note_off_c, 8, 64, 80
8, 88200, Note_on_c, 8, 62, 95
8, 88320, Note_off_c, 8, 62, 80
8, 88320, Note_on_c, 8, 66, 95
8, 88560, Note_off_c, 8, 66, 80
8, 88560, Note_on_c, 8, 62, 95
8, 88800, Note_off_c, 8, 62, 80
8, 88800, Note_on_c, 8, 64, 95
8, 89760, Note_off_c, 8, 64, 80
8, 89880, Note_on_c, 8, 64, 95
8, 90000, Note_off_c, 8, 64, 80
8, 90000, Note_on_c, 8, 64, 95
8, 90120, Note_off_c, 8, 64, 80
8, 90120, Note_on_c, 8, 62, 95
8, 90240, Note_off_c, 8, 62, 80
8, 90240, Note_on_c, 8, 66, 95
8, 90480, Note_off_c, 8, 66, 80
8, 90480, Note_on_c, 8, 64, 95
8, 90720, Note_off_c, 8, 64, 80
8, 90720, End_track
0, 0, End_of_file
