0, 0, Header, 1, 7, 1024
1, 0, Start_track
1, 0, Sequencer_specific, 10, 5, 15, 18, 0, 0, 64, 127, 0, 64, 1
1, 0, Sequencer_specific, 13, 5, 15, 28, 50, 48, 48, 57, 46, 49, 49, 46, 48, 51
1, 0, Time_signature, 2, 2, 24, 8
1, 0, Tempo, 500000
1, 2048, Time_signature, 4, 2, 24, 8
1, 10240, Time_signature, 2, 2, 24, 8
1, 12288, Time_signature, 4, 2, 24, 8
1, 20480, Time_signature, 2, 2, 24, 8
1, 22528, Time_signature, 4, 2, 24, 8
1, 30720, Time_signature, 2, 2, 24, 8
1, 32768, Time_signature, 4, 2, 24, 8
1, 40960, Time_signature, 2, 2, 24, 8
1, 43008, Time_signature, 4, 2, 24, 8
1, 51200, Time_signature, 2, 2, 24, 8
1, 53248, Time_signature, 4, 2, 24, 8
1, 61440, Time_signature, 2, 2, 24, 8
1, 63488, Time_signature, 4, 2, 24, 8
1, 71680, Time_signature, 2, 2, 24, 8
1, 73728, Time_signature, 4, 2, 24, 8
1, 81920, Time_signature, 2, 2, 24, 8
1, 83968, Time_signature, 4, 2, 24, 8
1, 92160, Time_signature, 2, 2, 24, 8
1, 94208, Time_signature, 4, 2, 24, 8
1, 102400, Time_signature, 2, 2, 24, 8
1, 104448, Time_signature, 4, 2, 24, 8
1, 112640, Time_signature, 2, 2, 24, 8
1, 114688, Time_signature, 4, 2, 24, 8
1, 122880, Time_signature, 2, 2, 24, 8
1, 124928, Time_signature, 4, 2, 24, 8
1, 133120, Time_signature, 2, 2, 24, 8
1, 135168, Time_signature, 4, 2, 24, 8
1, 143360, Time_signature, 2, 2, 24, 8
1, 145408, Time_signature, 4, 2, 24, 8
1, 153600, Time_signature, 2, 2, 24, 8
1, 155648, Time_signature, 4, 2, 24, 8
1, 163840, Time_signature, 2, 2, 24, 8
1, 165888, Time_signature, 4, 2, 24, 8
1, 174080, Time_signature, 2, 2, 24, 8
1, 176128, Time_signature, 4, 2, 24, 8
1, 184320, Time_signature, 2, 2, 24, 8
1, 186368, Time_signature, 4, 2, 24, 8
1, 194560, Time_signature, 2, 2, 24, 8
1, 196608, Time_signature, 4, 2, 24, 8
1, 204800, Time_signature, 2, 2, 24, 8
1, 206848, Time_signature, 4, 2, 24, 8
1, 215040, Time_signature, 2, 2, 24, 8
1, 217088, Time_signature, 4, 2, 24, 8
1, 225280, Time_signature, 2, 2, 24, 8
1, 227328, Time_signature, 4, 2, 24, 8
1, 235520, Time_signature, 2, 2, 24, 8
1, 237568, Time_signature, 4, 2, 24, 8
1, 245760, Time_signature, 2, 2, 24, 8
1, 247808, Time_signature, 4, 2, 24, 8
1, 256000, Time_signature, 2, 2, 24, 8
1, 258048, Time_signature, 4, 2, 24, 8
1, 266240, Time_signature, 2, 2, 24, 8
1, 268288, Time_signature, 4, 2, 24, 8
1, 276480, Time_signature, 2, 2, 24, 8
1, 278528, Time_signature, 4, 2, 24, 8
1, 286720, Time_signature, 2, 2, 24, 8
1, 288768, Time_signature, 4, 2, 24, 8
1, 296960, Time_signature, 2, 2, 24, 8
1, 299008, Time_signature, 4, 2, 24, 8
1, 307200, Time_signature, 2, 2, 24, 8
1, 309248, Time_signature, 4, 2, 24, 8
1, 317440, Time_signature, 2, 2, 24, 8
1, 319488, Time_signature, 4, 2, 24, 8
1, 327680, Time_signature, 2, 2, 24, 8
1, 329728, Time_signature, 4, 2, 24, 8
1, 337920, Time_signature, 2, 2, 24, 8
1, 339968, Time_signature, 4, 2, 24, 8
1, 348160, Time_signature, 2, 2, 24, 8
1, 350208, Time_signature, 4, 2, 24, 8
1, 358400, Time_signature, 2, 2, 24, 8
1, 360448, Time_signature, 4, 2, 24, 8
1, 368640, Time_signature, 2, 2, 24, 8
1, 370688, Time_signature, 4, 2, 24, 8
1, 378880, Time_signature, 2, 2, 24, 8
1, 380928, Time_signature, 4, 2, 24, 8
1, 389120, Time_signature, 2, 2, 24, 8
1, 391168, Time_signature, 4, 2, 24, 8
1, 399360, Time_signature, 2, 2, 24, 8
1, 401408, Time_signature, 4, 2, 24, 8
1, 409600, Time_signature, 2, 2, 24, 8
1, 411648, Time_signature, 4, 2, 24, 8
1, 419840, Time_signature, 2, 2, 24, 8
1, 421888, Time_signature, 4, 2, 24, 8
1, 430080, Time_signature, 2, 2, 24, 8
1, 432128, Time_signature, 4, 2, 24, 8
1, 440320, Time_signature, 2, 2, 24, 8
1, 442368, Time_signature, 4, 2, 24, 8
1, 450560, Time_signature, 2, 2, 24, 8
1, 452608, Time_signature, 4, 2, 24, 8
1, 460800, Time_signature, 2, 2, 24, 8
1, 462848, Time_signature, 4, 2, 24, 8
1, 471040, Time_signature, 2, 2, 24, 8
1, 473088, Time_signature, 4, 2, 24, 8
1, 481280, Time_signature, 2, 2, 24, 8
1, 483328, Time_signature, 4, 2, 24, 8
1, 491520, Time_signature, 2, 2, 24, 8
1, 493568, Time_signature, 4, 2, 24, 8
1, 501760, Time_signature, 2, 2, 24, 8
1, 503808, Time_signature, 4, 2, 24, 8
1, 512000, Time_signature, 2, 2, 24, 8
1, 514048, Time_signature, 4, 2, 24, 8
1, 514048, End_track
2, 0, Start_track
2, 0, Sequencer_specific, 5, 5, 15, 9, 0, 64
2, 0, Sequencer_specific, 15, 5, 15, 6, 71, 101, 110, 101, 114, 97, 108, 32, 77, 73, 68, 73
2, 0, Title_t, "Radiohead - Everything is in it's right place"
2, 0, Control_c, 0, 7, 127
2, 0, Program_c, 0, 90
2, 0, Pitch_bend_c, 0, 8192
2, 0, Control_c, 0, 10, 48
2, 0, Control_c, 0, 93, 0
2, 0, Control_c, 0, 91, 0
2, 0, Control_c, 0, 92, 0
2, 0, Control_c, 0, 95, 0
2, 0, Note_on_c, 0, 60, 95
2, 512, Note_on_c, 0, 56, 95
2, 1024, Note_off_c, 0, 56, 80
2, 1024, Note_on_c, 0, 55, 95
2, 1536, Note_off_c, 0, 55, 80
2, 1536, Note_on_c, 0, 48, 95
2, 2048, Note_off_c, 0, 48, 80
2, 2048, Note_off_c, 0, 60, 80
2, 2048, Note_on_c, 0, 60, 95
2, 2048, Note_on_c, 0, 52, 95
2, 2048, Note_on_c, 0, 48, 95
2, 3584, Note_off_c, 0, 48, 80
2, 3584, Note_off_c, 0, 52, 80
2, 3584, Note_off_c, 0, 60, 80
2, 3584, Note_on_c, 0, 60, 95
2, 3584, Note_on_c, 0, 52, 95
2, 3584, Note_on_c, 0, 48, 95
2, 4608, Note_off_c, 0, 48, 80
2, 4608, Note_off_c, 0, 52, 80
2, 4608, Note_off_c, 0, 60, 80
2, 4608, Note_on_c, 0, 60, 95
2, 4608, Note_on_c, 0, 52, 95
2, 4608, Note_on_c, 0, 48, 95
2, 5632, Note_off_c, 0, 48, 80
2, 5632, Note_off_c, 0, 52, 80
2, 5632, Note_off_c, 0, 60, 80
2, 5632, Note_on_c, 0, 60, 95
2, 5632, Note_on_c, 0, 53, 95
2, 5632, Note_on_c, 0, 49, 95
2, 6656, Note_off_c, 0, 49, 80
2, 6656, Note_off_c, 0, 53, 80
2, 6656, Note_off_c, 0, 60, 80
2, 6656, Note_on_c, 0, 60, 95
2, 6656, Note_on_c, 0, 53, 95
2, 6656, Note_on_c, 0, 49, 95
2, 7680, Note_off_c, 0, 49, 80
2, 7680, Note_off_c, 0, 53, 80
2, 7680, Note_off_c, 0, 60, 80
2, 7680, Note_on_c, 0, 60, 95
2, 7680, Note_on_c, 0, 55, 95
2, 7680, Note_on_c, 0, 51, 95
2, 8704, Note_off_c, 0, 51, 80
2, 8704, Note_off_c, 0, 55, 80
2, 8704, Note_off_c, 0, 60, 80
2, 8704, Note_on_c, 0, 60, 95
2, 8704, Note_on_c, 0, 55, 95
2, 8704, Note_on_c, 0, 51, 95
2, 9728, Note_off_c, 0, 55, 80
2, 9728, Note_on_c, 0, 55, 95
2, 10240, Note_off_c, 0, 60, 80
2, 10240, Note_on_c, 0, 60, 95
2, 10752, Note_off_c, 0, 55, 80
2, 10752, Note_off_c, 0, 51, 80
2, 10752, Note_on_c, 0, 58, 95
2, 11264, Note_off_c, 0, 60, 80
2, 11264, Note_on_c, 0, 60, 95
2, 11776, Note_on_c, 0, 48, 95
2, 12288, Note_off_c, 0, 48, 80
2, 12288, Note_off_c, 0, 60, 80
2, 12288, Note_off_c, 0, 58, 80
2, 12288, Note_on_c, 0, 60, 95
2, 12288, Note_on_c, 0, 52, 95
2, 12288, Note_on_c, 0, 48, 95
2, 13824, Note_off_c, 0, 48, 80
2, 13824, Note_off_c, 0, 52, 80
2, 13824, Note_off_c, 0, 60, 80
2, 13824, Note_on_c, 0, 60, 95
2, 13824, Note_on_c, 0, 52, 95
2, 13824, Note_on_c, 0, 48, 95
2, 14848, Note_off_c, 0, 48, 80
2, 14848, Note_off_c, 0, 52, 80
2, 14848, Note_off_c, 0, 60, 80
2, 14848, Note_on_c, 0, 60, 95
2, 14848, Note_on_c, 0, 52, 95
2, 14848, Note_on_c, 0, 48, 95
2, 15872, Note_off_c, 0, 48, 80
2, 15872, Note_off_c, 0, 52, 80
2, 15872, Note_off_c, 0, 60, 80
2, 15872, Note_on_c, 0, 60, 95
2, 15872, Note_on_c, 0, 53, 95
2, 15872, Note_on_c, 0, 49, 95
2, 16896, Note_off_c, 0, 49, 80
2, 16896, Note_off_c, 0, 53, 80
2, 16896, Note_off_c, 0, 60, 80
2, 16896, Note_on_c, 0, 60, 95
2, 16896, Note_on_c, 0, 53, 95
2, 16896, Note_on_c, 0, 49, 95
2, 17920, Note_off_c, 0, 49, 80
2, 17920, Note_off_c, 0, 53, 80
2, 17920, Note_off_c, 0, 60, 80
2, 17920, Note_on_c, 0, 60, 95
2, 17920, Note_on_c, 0, 55, 95
2, 17920, Note_on_c, 0, 51, 95
2, 18944, Note_off_c, 0, 51, 80
2, 18944, Note_off_c, 0, 55, 80
2, 18944, Note_off_c, 0, 60, 80
2, 18944, Note_on_c, 0, 60, 95
2, 18944, Note_on_c, 0, 55, 95
2, 18944, Note_on_c, 0, 51, 95
2, 19968, Note_off_c, 0, 55, 80
2, 19968, Note_on_c, 0, 55, 95
2, 20480, Note_off_c, 0, 60, 80
2, 20480, Note_on_c, 0, 60, 95
2, 20992, Note_off_c, 0, 55, 80
2, 20992, Note_off_c, 0, 51, 80
2, 20992, Note_on_c, 0, 56, 95
2, 21504, Note_off_c, 0, 56, 80
2, 21504, Note_off_c, 0, 60, 80
2, 21504, Note_on_c, 0, 60, 95
2, 21504, Note_on_c, 0, 55, 95
2, 22016, Note_off_c, 0, 55, 80
2, 22016, Note_on_c, 0, 48, 95
2, 22528, Note_off_c, 0, 48, 80
2, 22528, Note_off_c, 0, 60, 80
2, 22528, Note_on_c, 0, 60, 95
2, 22528, Note_on_c, 0, 52, 95
2, 22528, Note_on_c, 0, 48, 95
2, 24064, Note_off_c, 0, 48, 80
2, 24064, Note_off_c, 0, 52, 80
2, 24064, Note_off_c, 0, 60, 80
2, 24064, Note_on_c, 0, 60, 95
2, 24064, Note_on_c, 0, 52, 95
2, 24064, Note_on_c, 0, 48, 95
2, 25088, Note_off_c, 0, 48, 80
2, 25088, Note_off_c, 0, 52, 80
2, 25088, Note_off_c, 0, 60, 80
2, 25088, Note_on_c, 0, 60, 95
2, 25088, Note_on_c, 0, 52, 95
2, 25088, Note_on_c, 0, 48, 95
2, 26112, Note_off_c, 0, 48, 80
2, 26112, Note_off_c, 0, 52, 80
2, 26112, Note_off_c, 0, 60, 80
2, 26112, Note_on_c, 0, 60, 95
2, 26112, Note_on_c, 0, 53, 95
2, 26112, Note_on_c, 0, 49, 95
2, 27136, Note_off_c, 0, 49, 80
2, 27136, Note_off_c, 0, 53, 80
2, 27136, Note_off_c, 0, 60, 80
2, 27136, Note_on_c, 0, 60, 95
2, 27136, Note_on_c, 0, 53, 95
2, 27136, Note_on_c, 0, 49, 95
2, 28160, Note_off_c, 0, 49, 80
2, 28160, Note_off_c, 0, 53, 80
2, 28160, Note_off_c, 0, 60, 80
2, 28160, Note_on_c, 0, 60, 95
2, 28160, Note_on_c, 0, 55, 95
2, 28160, Note_on_c, 0, 51, 95
2, 29184, Note_off_c, 0, 51, 80
2, 29184, Note_off_c, 0, 55, 80
2, 29184, Note_off_c, 0, 60, 80
2, 29184, Note_on_c, 0, 60, 95
2, 29184, Note_on_c, 0, 55, 95
2, 29184, Note_on_c, 0, 51, 95
2, 30208, Note_off_c, 0, 55, 80
2, 30208, Note_on_c, 0, 55, 95
2, 30720, Note_off_c, 0, 60, 80
2, 30720, Note_on_c, 0, 60, 95
2, 31232, Note_off_c, 0, 55, 80
2, 31232, Note_off_c, 0, 51, 80
2, 31232, Note_on_c, 0, 56, 95
2, 31744, Note_off_c, 0, 56, 80
2, 31744, Note_on_c, 0, 55, 95
2, 32256, Note_off_c, 0, 55, 80
2, 32256, Note_on_c, 0, 48, 95
2, 32768, Note_off_c, 0, 48, 80
2, 32768, Note_off_c, 0, 60, 80
2, 32768, Note_on_c, 0, 60, 95
2, 32768, Note_on_c, 0, 52, 95
2, 32768, Note_on_c, 0, 48, 95
2, 34304, Note_off_c, 0, 48, 80
2, 34304, Note_off_c, 0, 52, 80
2, 34304, Note_off_c, 0, 60, 80
2, 34304, Note_on_c, 0, 60, 95
2, 34304, Note_on_c, 0, 52, 95
2, 34304, Note_on_c, 0, 48, 95
2, 35328, Note_off_c, 0, 48, 80
2, 35328, Note_off_c, 0, 52, 80
2, 35328, Note_off_c, 0, 60, 80
2, 35328, Note_on_c, 0, 60, 95
2, 35328, Note_on_c, 0, 52, 95
2, 35328, Note_on_c, 0, 48, 95
2, 36352, Note_off_c, 0, 48, 80
2, 36352, Note_off_c, 0, 52, 80
2, 36352, Note_off_c, 0, 60, 80
2, 36352, Note_on_c, 0, 60, 95
2, 36352, Note_on_c, 0, 53, 95
2, 36352, Note_on_c, 0, 49, 95
2, 37376, Note_off_c, 0, 49, 80
2, 37376, Note_off_c, 0, 53, 80
2, 37376, Note_off_c, 0, 60, 80
2, 37376, Note_on_c, 0, 60, 95
2, 37376, Note_on_c, 0, 53, 95
2, 37376, Note_on_c, 0, 49, 95
2, 38400, Note_off_c, 0, 49, 80
2, 38400, Note_off_c, 0, 53, 80
2, 38400, Note_off_c, 0, 60, 80
2, 38400, Note_on_c, 0, 60, 95
2, 38400, Note_on_c, 0, 55, 95
2, 38400, Note_on_c, 0, 51, 95
2, 39424, Note_off_c, 0, 51, 80
2, 39424, Note_off_c, 0, 55, 80
2, 39424, Note_off_c, 0, 60, 80
2, 39424, Note_on_c, 0, 60, 95
2, 39424, Note_on_c, 0, 55, 95
2, 39424, Note_on_c, 0, 51, 95
2, 40448, Note_off_c, 0, 55, 80
2, 40448, Note_on_c, 0, 55, 95
2, 40960, Note_off_c, 0, 60, 80
2, 40960, Note_on_c, 0, 60, 95
2, 41472, Note_off_c, 0, 55, 80
2, 41472, Note_off_c, 0, 51, 80
2, 41472, Note_on_c, 0, 56, 95
2, 41984, Note_off_c, 0, 56, 80
2, 41984, Note_on_c, 0, 55, 95
2, 42496, Note_off_c, 0, 55, 80
2, 42496, Note_on_c, 0, 48, 95
2, 43008, Note_off_c, 0, 48, 80
2, 43008, Note_off_c, 0, 60, 80
2, 43008, Note_on_c, 0, 60, 95
2, 43008, Note_on_c, 0, 52, 95
2, 43008, Note_on_c, 0, 48, 95
2, 44544, Note_off_c, 0, 48, 80
2, 44544, Note_off_c, 0, 52, 80
2, 44544, Note_off_c, 0, 60, 80
2, 44544, Note_on_c, 0, 60, 95
2, 44544, Note_on_c, 0, 52, 95
2, 44544, Note_on_c, 0, 48, 95
2, 45568, Note_off_c, 0, 48, 80
2, 45568, Note_off_c, 0, 52, 80
2, 45568, Note_off_c, 0, 60, 80
2, 45568, Note_on_c, 0, 60, 95
2, 45568, Note_on_c, 0, 52, 95
2, 45568, Note_on_c, 0, 48, 95
2, 46592, Note_off_c, 0, 48, 80
2, 46592, Note_off_c, 0, 52, 80
2, 46592, Note_off_c, 0, 60, 80
2, 46592, Note_on_c, 0, 60, 95
2, 46592, Note_on_c, 0, 53, 95
2, 46592, Note_on_c, 0, 49, 95
2, 47616, Note_off_c, 0, 49, 80
2, 47616, Note_off_c, 0, 53, 80
2, 47616, Note_off_c, 0, 60, 80
2, 47616, Note_on_c, 0, 60, 95
2, 47616, Note_on_c, 0, 53, 95
2, 47616, Note_on_c, 0, 49, 95
2, 48640, Note_off_c, 0, 49, 80
2, 48640, Note_off_c, 0, 53, 80
2, 48640, Note_off_c, 0, 60, 80
2, 48640, Note_on_c, 0, 60, 95
2, 48640, Note_on_c, 0, 55, 95
2, 48640, Note_on_c, 0, 51, 95
2, 49664, Note_off_c, 0, 51, 80
2, 49664, Note_off_c, 0, 55, 80
2, 49664, Note_off_c, 0, 60, 80
2, 49664, Note_on_c, 0, 60, 95
2, 49664, Note_on_c, 0, 55, 95
2, 49664, Note_on_c, 0, 51, 95
2, 50688, Note_off_c, 0, 55, 80
2, 50688, Note_on_c, 0, 55, 95
2, 51200, Note_off_c, 0, 60, 80
2, 51200, Note_on_c, 0, 60, 95
2, 51712, Note_off_c, 0, 55, 80
2, 51712, Note_off_c, 0, 51, 80
2, 51712, Note_on_c, 0, 58, 95
2, 52224, Note_off_c, 0, 60, 80
2, 52224, Note_on_c, 0, 60, 95
2, 52736, Note_on_c, 0, 48, 95
2, 53248, Note_off_c, 0, 48, 80
2, 53248, Note_off_c, 0, 60, 80
2, 53248, Note_off_c, 0, 58, 80
2, 53248, Note_on_c, 0, 60, 95
2, 53248, Note_on_c, 0, 52, 95
2, 53248, Note_on_c, 0, 48, 95
2, 54784, Note_off_c, 0, 48, 80
2, 54784, Note_off_c, 0, 52, 80
2, 54784, Note_off_c, 0, 60, 80
2, 54784, Note_on_c, 0, 60, 95
2, 54784, Note_on_c, 0, 52, 95
2, 54784, Note_on_c, 0, 48, 95
2, 55808, Note_off_c, 0, 48, 80
2, 55808, Note_off_c, 0, 52, 80
2, 55808, Note_off_c, 0, 60, 80
2, 55808, Note_on_c, 0, 60, 95
2, 55808, Note_on_c, 0, 52, 95
2, 55808, Note_on_c, 0, 48, 95
2, 56832, Note_off_c, 0, 48, 80
2, 56832, Note_off_c, 0, 52, 80
2, 56832, Note_off_c, 0, 60, 80
2, 56832, Note_on_c, 0, 60, 95
2, 56832, Note_on_c, 0, 53, 95
2, 56832, Note_on_c, 0, 49, 95
2, 57856, Note_off_c, 0, 49, 80
2, 57856, Note_off_c, 0, 53, 80
2, 57856, Note_off_c, 0, 60, 80
2, 57856, Note_on_c, 0, 60, 95
2, 57856, Note_on_c, 0, 53, 95
2, 57856, Note_on_c, 0, 49, 95
2, 58880, Note_off_c, 0, 49, 80
2, 58880, Note_off_c, 0, 53, 80
2, 58880, Note_off_c, 0, 60, 80
2, 58880, Note_on_c, 0, 60, 95
2, 58880, Note_on_c, 0, 55, 95
2, 58880, Note_on_c, 0, 51, 95
2, 59904, Note_off_c, 0, 51, 80
2, 59904, Note_off_c, 0, 55, 80
2, 59904, Note_off_c, 0, 60, 80
2, 59904, Note_on_c, 0, 60, 95
2, 59904, Note_on_c, 0, 55, 95
2, 59904, Note_on_c, 0, 51, 95
2, 60928, Note_off_c, 0, 55, 80
2, 60928, Note_on_c, 0, 55, 95
2, 61440, Note_off_c, 0, 60, 80
2, 61440, Note_on_c, 0, 60, 95
2, 61952, Note_off_c, 0, 55, 80
2, 61952, Note_off_c, 0, 51, 80
2, 61952, Note_on_c, 0, 58, 95
2, 62464, Note_off_c, 0, 60, 80
2, 62464, Note_on_c, 0, 60, 95
2, 62976, Note_on_c, 0, 48, 95
2, 63488, Note_off_c, 0, 48, 80
2, 63488, Note_off_c, 0, 60, 80
2, 63488, Note_off_c, 0, 58, 80
2, 63488, Note_on_c, 0, 60, 95
2, 63488, Note_on_c, 0, 52, 95
2, 63488, Note_on_c, 0, 48, 95
2, 65024, Note_off_c, 0, 48, 80
2, 65024, Note_off_c, 0, 52, 80
2, 65024, Note_off_c, 0, 60, 80
2, 65024, Note_on_c, 0, 60, 95
2, 65024, Note_on_c, 0, 52, 95
2, 65024, Note_on_c, 0, 48, 95
2, 66048, Note_off_c, 0, 48, 80
2, 66048, Note_off_c, 0, 52, 80
2, 66048, Note_off_c, 0, 60, 80
2, 66048, Note_on_c, 0, 60, 95
2, 66048, Note_on_c, 0, 52, 95
2, 66048, Note_on_c, 0, 48, 95
2, 67072, Note_off_c, 0, 48, 80
2, 67072, Note_off_c, 0, 52, 80
2, 67072, Note_off_c, 0, 60, 80
2, 67072, Note_on_c, 0, 60, 95
2, 67072, Note_on_c, 0, 53, 95
2, 67072, Note_on_c, 0, 49, 95
2, 68096, Note_off_c, 0, 49, 80
2, 68096, Note_off_c, 0, 53, 80
2, 68096, Note_off_c, 0, 60, 80
2, 68096, Note_on_c, 0, 60, 95
2, 68096, Note_on_c, 0, 53, 95
2, 68096, Note_on_c, 0, 49, 95
2, 69120, Note_off_c, 0, 49, 80
2, 69120, Note_off_c, 0, 53, 80
2, 69120, Note_off_c, 0, 60, 80
2, 69120, Note_on_c, 0, 60, 95
2, 69120, Note_on_c, 0, 55, 95
2, 69120, Note_on_c, 0, 51, 95
2, 70144, Note_off_c, 0, 51, 80
2, 70144, Note_off_c, 0, 55, 80
2, 70144, Note_off_c, 0, 60, 80
2, 70144, Note_on_c, 0, 60, 95
2, 70144, Note_on_c, 0, 55, 95
2, 70144, Note_on_c, 0, 51, 95
2, 71168, Note_off_c, 0, 55, 80
2, 71168, Note_on_c, 0, 55, 95
2, 71680, Note_off_c, 0, 60, 80
2, 71680, Note_on_c, 0, 60, 95
2, 72192, Note_off_c, 0, 55, 80
2, 72192, Note_off_c, 0, 51, 80
2, 72192, Note_on_c, 0, 58, 95
2, 72704, Note_off_c, 0, 60, 80
2, 72704, Note_on_c, 0, 60, 95
2, 73216, Note_off_c, 0, 60, 80
2, 73216, Note_on_c, 0, 60, 95
2, 73728, Note_off_c, 0, 60, 80
2, 73728, Note_off_c, 0, 58, 80
2, 73728, Note_on_c, 0, 60, 95
2, 73728, Note_on_c, 0, 57, 95
2, 73728, Note_on_c, 0, 53, 95
2, 75264, Note_off_c, 0, 53, 80
2, 75264, Note_off_c, 0, 57, 80
2, 75264, Note_off_c, 0, 60, 80
2, 75264, Note_on_c, 0, 60, 95
2, 75264, Note_on_c, 0, 52, 95
2, 75264, Note_on_c, 0, 48, 95
2, 76288, Note_off_c, 0, 48, 80
2, 76288, Note_off_c, 0, 52, 80
2, 76288, Note_off_c, 0, 60, 80
2, 76288, Note_on_c, 0, 60, 95
2, 76288, Note_on_c, 0, 52, 95
2, 76288, Note_on_c, 0, 48, 95
2, 77312, Note_off_c, 0, 48, 80
2, 77312, Note_off_c, 0, 52, 80
2, 77312, Note_off_c, 0, 60, 80
2, 77312, Note_on_c, 0, 60, 95
2, 77312, Note_on_c, 0, 53, 95
2, 77312, Note_on_c, 0, 49, 95
2, 78336, Note_off_c, 0, 49, 80
2, 78336, Note_off_c, 0, 53, 80
2, 78336, Note_off_c, 0, 60, 80
2, 78336, Note_on_c, 0, 60, 95
2, 78336, Note_on_c, 0, 53, 95
2, 78336, Note_on_c, 0, 49, 95
2, 79360, Note_off_c, 0, 49, 80
2, 79360, Note_off_c, 0, 53, 80
2, 79360, Note_off_c, 0, 60, 80
2, 79360, Note_on_c, 0, 60, 95
2, 79360, Note_on_c, 0, 55, 95
2, 79360, Note_on_c, 0, 51, 95
2, 80384, Note_off_c, 0, 51, 80
2, 80384, Note_off_c, 0, 55, 80
2, 80384, Note_off_c, 0, 60, 80
2, 80384, Note_on_c, 0, 60, 95
2, 80384, Note_on_c, 0, 55, 95
2, 80384, Note_on_c, 0, 51, 95
2, 81408, Note_off_c, 0, 55, 80
2, 81408, Note_on_c, 0, 55, 95
2, 81920, Note_off_c, 0, 60, 80
2, 81920, Note_on_c, 0, 60, 95
2, 82432, Note_off_c, 0, 55, 80
2, 82432, Note_off_c, 0, 51, 80
2, 82432, Note_on_c, 0, 58, 95
2, 82944, Note_off_c, 0, 60, 80
2, 82944, Note_on_c, 0, 60, 95
2, 83456, Note_off_c, 0, 60, 80
2, 83456, Note_on_c, 0, 60, 95
2, 83968, Note_off_c, 0, 60, 80
2, 83968, Note_off_c, 0, 58, 80
2, 83968, Note_on_c, 0, 60, 95
2, 83968, Note_on_c, 0, 57, 95
2, 83968, Note_on_c, 0, 53, 95
2, 85504, Note_off_c, 0, 53, 80
2, 85504, Note_off_c, 0, 57, 80
2, 85504, Note_off_c, 0, 60, 80
2, 85504, Note_on_c, 0, 60, 95
2, 85504, Note_on_c, 0, 52, 95
2, 85504, Note_on_c, 0, 48, 95
2, 86528, Note_off_c, 0, 48, 80
2, 86528, Note_off_c, 0, 52, 80
2, 86528, Note_off_c, 0, 60, 80
2, 86528, Note_on_c, 0, 60, 95
2, 86528, Note_on_c, 0, 52, 95
2, 86528, Note_on_c, 0, 48, 95
2, 87552, Note_off_c, 0, 48, 80
2, 87552, Note_off_c, 0, 52, 80
2, 87552, Note_off_c, 0, 60, 80
2, 87552, Note_on_c, 0, 60, 95
2, 87552, Note_on_c, 0, 53, 95
2, 87552, Note_on_c, 0, 49, 95
2, 88576, Note_off_c, 0, 49, 80
2, 88576, Note_off_c, 0, 53, 80
2, 88576, Note_off_c, 0, 60, 80
2, 88576, Note_on_c, 0, 60, 95
2, 88576, Note_on_c, 0, 53, 95
2, 88576, Note_on_c, 0, 49, 95
2, 89600, Note_off_c, 0, 49, 80
2, 89600, Note_off_c, 0, 53, 80
2, 89600, Note_off_c, 0, 60, 80
2, 89600, Note_on_c, 0, 60, 95
2, 89600, Note_on_c, 0, 55, 95
2, 89600, Note_on_c, 0, 51, 95
2, 90624, Note_off_c, 0, 51, 80
2, 90624, Note_off_c, 0, 55, 80
2, 90624, Note_off_c, 0, 60, 80
2, 90624, Note_on_c, 0, 60, 95
2, 90624, Note_on_c, 0, 55, 95
2, 90624, Note_on_c, 0, 51, 95
2, 91648, Note_off_c, 0, 55, 80
2, 91648, Note_on_c, 0, 55, 95
2, 92160, Note_off_c, 0, 60, 80
2, 92160, Note_on_c, 0, 60, 95
2, 92672, Note_off_c, 0, 60, 80
2, 92672, Note_off_c, 0, 51, 80
2, 92672, Note_on_c, 0, 60, 95
2, 93696, Note_off_c, 0, 55, 80
2, 93696, Note_on_c, 0, 48, 95
2, 94208, Note_off_c, 0, 48, 80
2, 94208, Note_off_c, 0, 60, 80
2, 94208, Note_on_c, 0, 60, 95
2, 94208, Note_on_c, 0, 57, 95
2, 94208, Note_on_c, 0, 53, 95
2, 95744, Note_off_c, 0, 53, 80
2, 95744, Note_off_c, 0, 57, 80
2, 95744, Note_off_c, 0, 60, 80
2, 95744, Note_on_c, 0, 60, 95
2, 95744, Note_on_c, 0, 52, 95
2, 95744, Note_on_c, 0, 48, 95
2, 96768, Note_off_c, 0, 48, 80
2, 96768, Note_off_c, 0, 52, 80
2, 96768, Note_off_c, 0, 60, 80
2, 96768, Note_on_c, 0, 60, 95
2, 96768, Note_on_c, 0, 52, 95
2, 96768, Note_on_c, 0, 48, 95
2, 97792, Note_off_c, 0, 48, 80
2, 97792, Note_off_c, 0, 52, 80
2, 97792, Note_off_c, 0, 60, 80
2, 97792, Note_on_c, 0, 60, 95
2, 97792, Note_on_c, 0, 53, 95
2, 97792, Note_on_c, 0, 49, 95
2, 98816, Note_off_c, 0, 49, 80
2, 98816, Note_off_c, 0, 53, 80
2, 98816, Note_off_c, 0, 60, 80
2, 98816, Note_on_c, 0, 60, 95
2, 98816, Note_on_c, 0, 53, 95
2, 98816, Note_on_c, 0, 49, 95
2, 99840, Note_off_c, 0, 49, 80
2, 99840, Note_off_c, 0, 53, 80
2, 99840, Note_off_c, 0, 60, 80
2, 99840, Note_on_c, 0, 60, 95
2, 99840, Note_on_c, 0, 55, 95
2, 99840, Note_on_c, 0, 51, 95
2, 100864, Note_off_c, 0, 51, 80
2, 100864, Note_off_c, 0, 55, 80
2, 100864, Note_off_c, 0, 60, 80
2, 100864, Note_on_c, 0, 60, 95
2, 100864, Note_on_c, 0, 55, 95
2, 100864, Note_on_c, 0, 51, 95
2, 101888, Note_off_c, 0, 55, 80
2, 101888, Note_on_c, 0, 55, 95
2, 102400, Note_off_c, 0, 60, 80
2, 102400, Note_on_c, 0, 60, 95
2, 102912, Note_off_c, 0, 55, 80
2, 102912, Note_off_c, 0, 51, 80
2, 102912, Note_on_c, 0, 58, 95
2, 103424, Note_off_c, 0, 60, 80
2, 103424, Note_on_c, 0, 60, 95
2, 104448, Note_off_c, 0, 60, 80
2, 104448, Note_off_c, 0, 58, 80
2, 104448, Note_on_c, 0, 60, 95
2, 104448, Note_on_c, 0, 57, 95
2, 104448, Note_on_c, 0, 53, 95
2, 105984, Note_off_c, 0, 53, 80
2, 105984, Note_off_c, 0, 57, 80
2, 105984, Note_off_c, 0, 60, 80
2, 105984, Note_on_c, 0, 60, 95
2, 105984, Note_on_c, 0, 52, 95
2, 105984, Note_on_c, 0, 48, 95
2, 107008, Note_off_c, 0, 48, 80
2, 107008, Note_off_c, 0, 52, 80
2, 107008, Note_off_c, 0, 60, 80
2, 107008, Note_on_c, 0, 60, 95
2, 107008, Note_on_c, 0, 52, 95
2, 107008, Note_on_c, 0, 48, 95
2, 108032, Note_off_c, 0, 48, 80
2, 108032, Note_off_c, 0, 52, 80
2, 108032, Note_off_c, 0, 60, 80
2, 108032, Note_on_c, 0, 60, 95
2, 108032, Note_on_c, 0, 53, 95
2, 108032, Note_on_c, 0, 49, 95
2, 109056, Note_off_c, 0, 49, 80
2, 109056, Note_off_c, 0, 53, 80
2, 109056, Note_off_c, 0, 60, 80
2, 109056, Note_on_c, 0, 60, 95
2, 109056, Note_on_c, 0, 53, 95
2, 109056, Note_on_c, 0, 49, 95
2, 110080, Note_off_c, 0, 49, 80
2, 110080, Note_off_c, 0, 53, 80
2, 110080, Note_off_c, 0, 60, 80
2, 110080, Note_on_c, 0, 60, 95
2, 110080, Note_on_c, 0, 55, 95
2, 110080, Note_on_c, 0, 51, 95
2, 111104, Note_off_c, 0, 51, 80
2, 111104, Note_off_c, 0, 55, 80
2, 111104, Note_off_c, 0, 60, 80
2, 111104, Note_on_c, 0, 60, 95
2, 111104, Note_on_c, 0, 55, 95
2, 111104, Note_on_c, 0, 51, 95
2, 112128, Note_off_c, 0, 55, 80
2, 112128, Note_on_c, 0, 55, 95
2, 112640, Note_off_c, 0, 60, 80
2, 112640, Note_on_c, 0, 60, 95
2, 113152, Note_off_c, 0, 55, 80
2, 113152, Note_off_c, 0, 51, 80
2, 113152, Note_on_c, 0, 56, 95
2, 113664, Note_off_c, 0, 56, 80
2, 113664, Note_on_c, 0, 55, 95
2, 114176, Note_off_c, 0, 55, 80
2, 114176, Note_on_c, 0, 48, 95
2, 114688, Note_off_c, 0, 48, 80
2, 114688, Note_off_c, 0, 60, 80
2, 114688, Note_on_c, 0, 60, 95
2, 114688, Note_on_c, 0, 52, 95
2, 114688, Note_on_c, 0, 48, 95
2, 116224, Note_off_c, 0, 48, 80
2, 116224, Note_off_c, 0, 52, 80
2, 116224, Note_off_c, 0, 60, 80
2, 116224, Note_on_c, 0, 60, 95
2, 116224, Note_on_c, 0, 52, 95
2, 116224, Note_on_c, 0, 48, 95
2, 117248, Note_off_c, 0, 48, 80
2, 117248, Note_off_c, 0, 52, 80
2, 117248, Note_off_c, 0, 60, 80
2, 117248, Note_on_c, 0, 60, 95
2, 117248, Note_on_c, 0, 52, 95
2, 117248, Note_on_c, 0, 48, 95
2, 118272, Note_off_c, 0, 48, 80
2, 118272, Note_off_c, 0, 52, 80
2, 118272, Note_off_c, 0, 60, 80
2, 118272, Note_on_c, 0, 60, 95
2, 118272, Note_on_c, 0, 53, 95
2, 118272, Note_on_c, 0, 49, 95
2, 119296, Note_off_c, 0, 49, 80
2, 119296, Note_off_c, 0, 53, 80
2, 119296, Note_off_c, 0, 60, 80
2, 119296, Note_on_c, 0, 60, 95
2, 119296, Note_on_c, 0, 53, 95
2, 119296, Note_on_c, 0, 49, 95
2, 120320, Note_off_c, 0, 49, 80
2, 120320, Note_off_c, 0, 53, 80
2, 120320, Note_off_c, 0, 60, 80
2, 120320, Note_on_c, 0, 60, 95
2, 120320, Note_on_c, 0, 55, 95
2, 120320, Note_on_c, 0, 51, 95
2, 121344, Note_off_c, 0, 51, 80
2, 121344, Note_off_c, 0, 55, 80
2, 121344, Note_off_c, 0, 60, 80
2, 121344, Note_on_c, 0, 60, 95
2, 121344, Note_on_c, 0, 55, 95
2, 121344, Note_on_c, 0, 51, 95
2, 122368, Note_off_c, 0, 55, 80
2, 122368, Note_on_c, 0, 55, 95
2, 122880, Note_off_c, 0, 60, 80
2, 122880, Note_on_c, 0, 60, 95
2, 123392, Note_off_c, 0, 55, 80
2, 123392, Note_off_c, 0, 51, 80
2, 123392, Note_on_c, 0, 56, 95
2, 123904, Note_off_c, 0, 56, 80
2, 123904, Note_on_c, 0, 55, 95
2, 124416, Note_off_c, 0, 55, 80
2, 124416, Note_on_c, 0, 48, 95
2, 124928, Note_off_c, 0, 48, 80
2, 124928, Note_off_c, 0, 60, 80
2, 124928, Note_on_c, 0, 60, 95
2, 124928, Note_on_c, 0, 52, 95
2, 124928, Note_on_c, 0, 48, 95
2, 126464, Note_off_c, 0, 48, 80
2, 126464, Note_off_c, 0, 52, 80
2, 126464, Note_off_c, 0, 60, 80
2, 126464, Note_on_c, 0, 60, 95
2, 126464, Note_on_c, 0, 52, 95
2, 126464, Note_on_c, 0, 48, 95
2, 127488, Note_off_c, 0, 48, 80
2, 127488, Note_off_c, 0, 52, 80
2, 127488, Note_off_c, 0, 60, 80
2, 127488, Note_on_c, 0, 60, 95
2, 127488, Note_on_c, 0, 52, 95
2, 127488, Note_on_c, 0, 48, 95
2, 128512, Note_off_c, 0, 48, 80
2, 128512, Note_off_c, 0, 52, 80
2, 128512, Note_off_c, 0, 60, 80
2, 128512, Note_on_c, 0, 60, 95
2, 128512, Note_on_c, 0, 53, 95
2, 128512, Note_on_c, 0, 49, 95
2, 129536, Note_off_c, 0, 49, 80
2, 129536, Note_off_c, 0, 53, 80
2, 129536, Note_off_c, 0, 60, 80
2, 129536, Note_on_c, 0, 60, 95
2, 129536, Note_on_c, 0, 53, 95
2, 129536, Note_on_c, 0, 49, 95
2, 130560, Note_off_c, 0, 49, 80
2, 130560, Note_off_c, 0, 53, 80
2, 130560, Note_off_c, 0, 60, 80
2, 130560, Note_on_c, 0, 60, 95
2, 130560, Note_on_c, 0, 55, 95
2, 130560, Note_on_c, 0, 51, 95
2, 131584, Note_off_c, 0, 51, 80
2, 131584, Note_off_c, 0, 55, 80
2, 131584, Note_off_c, 0, 60, 80
2, 131584, Note_on_c, 0, 60, 95
2, 131584, Note_on_c, 0, 55, 95
2, 131584, Note_on_c, 0, 51, 95
2, 132608, Note_off_c, 0, 55, 80
2, 132608, Note_on_c, 0, 55, 95
2, 133120, Note_off_c, 0, 60, 80
2, 133120, Note_on_c, 0, 60, 95
2, 133632, Note_off_c, 0, 55, 80
2, 133632, Note_off_c, 0, 51, 80
2, 133632, Note_on_c, 0, 56, 95
2, 134144, Note_off_c, 0, 56, 80
2, 134144, Note_on_c, 0, 55, 95
2, 134656, Note_off_c, 0, 55, 80
2, 134656, Note_on_c, 0, 48, 95
2, 135168, Note_off_c, 0, 48, 80
2, 135168, Note_off_c, 0, 60, 80
2, 135168, Note_on_c, 0, 60, 95
2, 135168, Note_on_c, 0, 52, 95
2, 135168, Note_on_c, 0, 48, 95
2, 136704, Note_off_c, 0, 48, 80
2, 136704, Note_off_c, 0, 52, 80
2, 136704, Note_off_c, 0, 60, 80
2, 136704, Note_on_c, 0, 60, 95
2, 136704, Note_on_c, 0, 52, 95
2, 136704, Note_on_c, 0, 48, 95
2, 137728, Note_off_c, 0, 48, 80
2, 137728, Note_off_c, 0, 52, 80
2, 137728, Note_off_c, 0, 60, 80
2, 137728, Note_on_c, 0, 60, 95
2, 137728, Note_on_c, 0, 52, 95
2, 137728, Note_on_c, 0, 48, 95
2, 138752, Note_off_c, 0, 48, 80
2, 138752, Note_off_c, 0, 52, 80
2, 138752, Note_off_c, 0, 60, 80
2, 138752, Note_on_c, 0, 60, 95
2, 138752, Note_on_c, 0, 53, 95
2, 138752, Note_on_c, 0, 49, 95
2, 139776, Note_off_c, 0, 49, 80
2, 139776, Note_off_c, 0, 53, 80
2, 139776, Note_off_c, 0, 60, 80
2, 139776, Note_on_c, 0, 60, 95
2, 139776, Note_on_c, 0, 53, 95
2, 139776, Note_on_c, 0, 49, 95
2, 140800, Note_off_c, 0, 49, 80
2, 140800, Note_off_c, 0, 53, 80
2, 140800, Note_off_c, 0, 60, 80
2, 140800, Note_on_c, 0, 60, 95
2, 140800, Note_on_c, 0, 55, 95
2, 140800, Note_on_c, 0, 51, 95
2, 141824, Note_off_c, 0, 51, 80
2, 141824, Note_off_c, 0, 55, 80
2, 141824, Note_off_c, 0, 60, 80
2, 141824, Note_on_c, 0, 60, 95
2, 141824, Note_on_c, 0, 55, 95
2, 141824, Note_on_c, 0, 51, 95
2, 142848, Note_off_c, 0, 55, 80
2, 142848, Note_on_c, 0, 55, 95
2, 143360, Note_off_c, 0, 60, 80
2, 143360, Note_on_c, 0, 60, 95
2, 143872, Note_off_c, 0, 55, 80
2, 143872, Note_off_c, 0, 51, 80
2, 143872, Note_on_c, 0, 56, 95
2, 144384, Note_off_c, 0, 56, 80
2, 144384, Note_on_c, 0, 55, 95
2, 144896, Note_off_c, 0, 55, 80
2, 144896, Note_on_c, 0, 48, 95
2, 145408, Note_off_c, 0, 48, 80
2, 145408, Note_off_c, 0, 60, 80
2, 145408, Note_on_c, 0, 60, 95
2, 145408, Note_on_c, 0, 52, 95
2, 145408, Note_on_c, 0, 48, 95
2, 146944, Note_off_c, 0, 48, 80
2, 146944, Note_off_c, 0, 52, 80
2, 146944, Note_off_c, 0, 60, 80
2, 146944, Note_on_c, 0, 60, 95
2, 146944, Note_on_c, 0, 52, 95
2, 146944, Note_on_c, 0, 48, 95
2, 147968, Note_off_c, 0, 48, 80
2, 147968, Note_off_c, 0, 52, 80
2, 147968, Note_off_c, 0, 60, 80
2, 147968, Note_on_c, 0, 60, 95
2, 147968, Note_on_c, 0, 52, 95
2, 147968, Note_on_c, 0, 48, 95
2, 148992, Note_off_c, 0, 48, 80
2, 148992, Note_off_c, 0, 52, 80
2, 148992, Note_off_c, 0, 60, 80
2, 148992, Note_on_c, 0, 60, 95
2, 148992, Note_on_c, 0, 53, 95
2, 148992, Note_on_c, 0, 49, 95
2, 150016, Note_off_c, 0, 49, 80
2, 150016, Note_off_c, 0, 53, 80
2, 150016, Note_off_c, 0, 60, 80
2, 150016, Note_on_c, 0, 60, 95
2, 150016, Note_on_c, 0, 53, 95
2, 150016, Note_on_c, 0, 49, 95
2, 151040, Note_off_c, 0, 49, 80
2, 151040, Note_off_c, 0, 53, 80
2, 151040, Note_off_c, 0, 60, 80
2, 151040, Note_on_c, 0, 60, 95
2, 151040, Note_on_c, 0, 55, 95
2, 151040, Note_on_c, 0, 51, 95
2, 152064, Note_off_c, 0, 51, 80
2, 152064, Note_off_c, 0, 55, 80
2, 152064, Note_off_c, 0, 60, 80
2, 152064, Note_on_c, 0, 60, 95
2, 152064, Note_on_c, 0, 55, 95
2, 152064, Note_on_c, 0, 51, 95
2, 153088, Note_off_c, 0, 55, 80
2, 153088, Note_on_c, 0, 55, 95
2, 153600, Note_off_c, 0, 60, 80
2, 153600, Note_on_c, 0, 60, 95
2, 154112, Note_off_c, 0, 55, 80
2, 154112, Note_off_c, 0, 51, 80
2, 154112, Note_on_c, 0, 58, 95
2, 154624, Note_off_c, 0, 60, 80
2, 154624, Note_on_c, 0, 60, 95
2, 155136, Note_on_c, 0, 48, 95
2, 155648, Note_off_c, 0, 48, 80
2, 155648, Note_off_c, 0, 60, 80
2, 155648, Note_off_c, 0, 58, 80
2, 155648, Note_on_c, 0, 60, 95
2, 155648, Note_on_c, 0, 53, 95
2, 155648, Note_on_c, 0, 49, 95
2, 157184, Note_off_c, 0, 49, 80
2, 157184, Note_off_c, 0, 53, 80
2, 157184, Note_off_c, 0, 60, 80
2, 157184, Note_on_c, 0, 60, 95
2, 157184, Note_on_c, 0, 53, 95
2, 157184, Note_on_c, 0, 49, 95
2, 158208, Note_off_c, 0, 49, 80
2, 158208, Note_off_c, 0, 53, 80
2, 158208, Note_off_c, 0, 60, 80
2, 158208, Note_on_c, 0, 60, 95
2, 158208, Note_on_c, 0, 53, 95
2, 158208, Note_on_c, 0, 49, 95
2, 159232, Note_off_c, 0, 49, 80
2, 159232, Note_off_c, 0, 53, 80
2, 159232, Note_off_c, 0, 60, 80
2, 159232, Note_on_c, 0, 60, 95
2, 159232, Note_on_c, 0, 53, 95
2, 159232, Note_on_c, 0, 49, 95
2, 160256, Note_off_c, 0, 49, 80
2, 160256, Note_off_c, 0, 53, 80
2, 160256, Note_off_c, 0, 60, 80
2, 160256, Note_on_c, 0, 60, 95
2, 160256, Note_on_c, 0, 52, 95
2, 160256, Note_on_c, 0, 48, 95
2, 161280, Note_off_c, 0, 48, 80
2, 161280, Note_off_c, 0, 52, 80
2, 161280, Note_off_c, 0, 60, 80
2, 161280, Note_on_c, 0, 60, 95
2, 161280, Note_on_c, 0, 52, 95
2, 161280, Note_on_c, 0, 48, 95
2, 162304, Note_off_c, 0, 48, 80
2, 162304, Note_off_c, 0, 52, 80
2, 162304, Note_off_c, 0, 60, 80
2, 162304, Note_on_c, 0, 55, 95
2, 162304, Note_on_c, 0, 60, 95
2, 162304, Note_on_c, 0, 58, 95
2, 162304, Note_on_c, 0, 51, 95
2, 163328, Note_off_c, 0, 51, 80
2, 163328, Note_off_c, 0, 58, 80
2, 163328, Note_off_c, 0, 60, 80
2, 163328, Note_off_c, 0, 55, 80
2, 163328, Note_on_c, 0, 55, 95
2, 163328, Note_on_c, 0, 60, 95
2, 163328, Note_on_c, 0, 58, 95
2, 163328, Note_on_c, 0, 51, 95
2, 164352, Note_off_c, 0, 51, 80
2, 164352, Note_off_c, 0, 58, 80
2, 164352, Note_off_c, 0, 60, 80
2, 164352, Note_off_c, 0, 55, 80
2, 164352, Note_on_c, 0, 60, 95
2, 164352, Note_on_c, 0, 56, 95
2, 164352, Note_on_c, 0, 53, 95
2, 164352, Note_on_c, 0, 49, 95
2, 165888, Note_off_c, 0, 49, 80
2, 165888, Note_off_c, 0, 53, 80
2, 165888, Note_off_c, 0, 56, 80
2, 165888, Note_off_c, 0, 60, 80
2, 165888, Note_on_c, 0, 60, 95
2, 165888, Note_on_c, 0, 53, 95
2, 165888, Note_on_c, 0, 49, 95
2, 167424, Note_off_c, 0, 49, 80
2, 167424, Note_off_c, 0, 53, 80
2, 167424, Note_off_c, 0, 60, 80
2, 167424, Note_on_c, 0, 60, 95
2, 167424, Note_on_c, 0, 53, 95
2, 167424, Note_on_c, 0, 49, 95
2, 168448, Note_off_c, 0, 49, 80
2, 168448, Note_off_c, 0, 53, 80
2, 168448, Note_off_c, 0, 60, 80
2, 168448, Note_on_c, 0, 60, 95
2, 168448, Note_on_c, 0, 53, 95
2, 168448, Note_on_c, 0, 49, 95
2, 169472, Note_off_c, 0, 49, 80
2, 169472, Note_off_c, 0, 53, 80
2, 169472, Note_off_c, 0, 60, 80
2, 169472, Note_on_c, 0, 60, 95
2, 169472, Note_on_c, 0, 53, 95
2, 169472, Note_on_c, 0, 49, 95
2, 170496, Note_off_c, 0, 49, 80
2, 170496, Note_off_c, 0, 53, 80
2, 170496, Note_off_c, 0, 60, 80
2, 170496, Note_on_c, 0, 60, 95
2, 170496, Note_on_c, 0, 52, 95
2, 170496, Note_on_c, 0, 48, 95
2, 171520, Note_off_c, 0, 48, 80
2, 171520, Note_off_c, 0, 52, 80
2, 171520, Note_off_c, 0, 60, 80
2, 171520, Note_on_c, 0, 60, 95
2, 171520, Note_on_c, 0, 52, 95
2, 171520, Note_on_c, 0, 48, 95
2, 172544, Note_off_c, 0, 48, 80
2, 172544, Note_off_c, 0, 52, 80
2, 172544, Note_off_c, 0, 60, 80
2, 172544, Note_on_c, 0, 55, 95
2, 172544, Note_on_c, 0, 60, 95
2, 172544, Note_on_c, 0, 58, 95
2, 172544, Note_on_c, 0, 51, 95
2, 173568, Note_off_c, 0, 51, 80
2, 173568, Note_off_c, 0, 58, 80
2, 173568, Note_off_c, 0, 60, 80
2, 173568, Note_off_c, 0, 55, 80
2, 173568, Note_on_c, 0, 55, 95
2, 173568, Note_on_c, 0, 60, 95
2, 173568, Note_on_c, 0, 58, 95
2, 173568, Note_on_c, 0, 51, 95
2, 174592, Note_off_c, 0, 51, 80
2, 174592, Note_off_c, 0, 58, 80
2, 174592, Note_off_c, 0, 60, 80
2, 174592, Note_off_c, 0, 55, 80
2, 174592, Note_on_c, 0, 60, 95
2, 174592, Note_on_c, 0, 53, 95
2, 174592, Note_on_c, 0, 49, 95
2, 176128, Note_off_c, 0, 49, 80
2, 176128, Note_off_c, 0, 53, 80
2, 176128, Note_off_c, 0, 60, 80
2, 176128, Note_on_c, 0, 60, 95
2, 176128, Note_on_c, 0, 53, 95
2, 176128, Note_on_c, 0, 49, 95
2, 177664, Note_off_c, 0, 49, 80
2, 177664, Note_off_c, 0, 53, 80
2, 177664, Note_off_c, 0, 60, 80
2, 177664, Note_on_c, 0, 60, 95
2, 177664, Note_on_c, 0, 53, 95
2, 177664, Note_on_c, 0, 49, 95
2, 178688, Note_off_c, 0, 49, 80
2, 178688, Note_off_c, 0, 53, 80
2, 178688, Note_off_c, 0, 60, 80
2, 178688, Note_on_c, 0, 60, 95
2, 178688, Note_on_c, 0, 53, 95
2, 178688, Note_on_c, 0, 49, 95
2, 179712, Note_off_c, 0, 49, 80
2, 179712, Note_off_c, 0, 53, 80
2, 179712, Note_off_c, 0, 60, 80
2, 179712, Note_on_c, 0, 60, 95
2, 179712, Note_on_c, 0, 53, 95
2, 179712, Note_on_c, 0, 49, 95
2, 180736, Note_off_c, 0, 49, 80
2, 180736, Note_off_c, 0, 53, 80
2, 180736, Note_off_c, 0, 60, 80
2, 180736, Note_on_c, 0, 60, 95
2, 180736, Note_on_c, 0, 52, 95
2, 180736, Note_on_c, 0, 48, 95
2, 181760, Note_off_c, 0, 48, 80
2, 181760, Note_off_c, 0, 52, 80
2, 181760, Note_off_c, 0, 60, 80
2, 181760, Note_on_c, 0, 60, 95
2, 181760, Note_on_c, 0, 52, 95
2, 181760, Note_on_c, 0, 48, 95
2, 182784, Note_off_c, 0, 48, 80
2, 182784, Note_off_c, 0, 52, 80
2, 182784, Note_off_c, 0, 60, 80
2, 182784, Note_on_c, 0, 55, 95
2, 182784, Note_on_c, 0, 60, 95
2, 182784, Note_on_c, 0, 58, 95
2, 182784, Note_on_c, 0, 51, 95
2, 183808, Note_off_c, 0, 51, 80
2, 183808, Note_off_c, 0, 58, 80
2, 183808, Note_off_c, 0, 60, 80
2, 183808, Note_off_c, 0, 55, 80
2, 183808, Note_on_c, 0, 55, 95
2, 183808, Note_on_c, 0, 60, 95
2, 183808, Note_on_c, 0, 58, 95
2, 183808, Note_on_c, 0, 51, 95
2, 184832, Note_off_c, 0, 51, 80
2, 184832, Note_off_c, 0, 58, 80
2, 184832, Note_off_c, 0, 60, 80
2, 184832, Note_off_c, 0, 55, 80
2, 184832, Note_on_c, 0, 60, 95
2, 184832, Note_on_c, 0, 53, 95
2, 184832, Note_on_c, 0, 49, 95
2, 186368, Note_off_c, 0, 49, 80
2, 186368, Note_off_c, 0, 53, 80
2, 186368, Note_off_c, 0, 60, 80
2, 186368, Note_on_c, 0, 60, 95
2, 186368, Note_on_c, 0, 53, 95
2, 186368, Note_on_c, 0, 49, 95
2, 187904, Note_off_c, 0, 49, 80
2, 187904, Note_off_c, 0, 53, 80
2, 187904, Note_off_c, 0, 60, 80
2, 187904, Note_on_c, 0, 60, 95
2, 187904, Note_on_c, 0, 53, 95
2, 187904, Note_on_c, 0, 49, 95
2, 188928, Note_off_c, 0, 49, 80
2, 188928, Note_off_c, 0, 53, 80
2, 188928, Note_off_c, 0, 60, 80
2, 188928, Note_on_c, 0, 60, 95
2, 188928, Note_on_c, 0, 53, 95
2, 188928, Note_on_c, 0, 49, 95
2, 189952, Note_off_c, 0, 49, 80
2, 189952, Note_off_c, 0, 53, 80
2, 189952, Note_off_c, 0, 60, 80
2, 189952, Note_on_c, 0, 60, 95
2, 189952, Note_on_c, 0, 53, 95
2, 189952, Note_on_c, 0, 49, 95
2, 190976, Note_off_c, 0, 49, 80
2, 190976, Note_off_c, 0, 53, 80
2, 190976, Note_off_c, 0, 60, 80
2, 190976, Note_on_c, 0, 60, 95
2, 190976, Note_on_c, 0, 52, 95
2, 190976, Note_on_c, 0, 48, 95
2, 192000, Note_off_c, 0, 48, 80
2, 192000, Note_off_c, 0, 52, 80
2, 192000, Note_off_c, 0, 60, 80
2, 192000, Note_on_c, 0, 60, 95
2, 192000, Note_on_c, 0, 52, 95
2, 192000, Note_on_c, 0, 48, 95
2, 193024, Note_off_c, 0, 48, 80
2, 193024, Note_off_c, 0, 52, 80
2, 193024, Note_off_c, 0, 60, 80
2, 193024, Note_on_c, 0, 55, 95
2, 193024, Note_on_c, 0, 60, 95
2, 193024, Note_on_c, 0, 58, 95
2, 193024, Note_on_c, 0, 51, 95
2, 194048, Note_off_c, 0, 51, 80
2, 194048, Note_off_c, 0, 58, 80
2, 194048, Note_off_c, 0, 60, 80
2, 194048, Note_off_c, 0, 55, 80
2, 194048, Note_on_c, 0, 55, 95
2, 194048, Note_on_c, 0, 60, 95
2, 194048, Note_on_c, 0, 58, 95
2, 194048, Note_on_c, 0, 51, 95
2, 195072, Note_off_c, 0, 51, 80
2, 195072, Note_off_c, 0, 58, 80
2, 195072, Note_off_c, 0, 60, 80
2, 195072, Note_off_c, 0, 55, 80
2, 195072, Note_on_c, 0, 60, 95
2, 195072, Note_on_c, 0, 57, 95
2, 195072, Note_on_c, 0, 53, 95
2, 196608, Note_off_c, 0, 53, 80
2, 196608, Note_off_c, 0, 57, 80
2, 196608, Note_off_c, 0, 60, 80
2, 196608, Note_on_c, 0, 60, 95
2, 196608, Note_on_c, 0, 57, 95
2, 196608, Note_on_c, 0, 53, 95
2, 198144, Note_off_c, 0, 53, 80
2, 198144, Note_off_c, 0, 57, 80
2, 198144, Note_off_c, 0, 60, 80
2, 198144, Note_on_c, 0, 60, 95
2, 198144, Note_on_c, 0, 52, 95
2, 198144, Note_on_c, 0, 48, 95
2, 199168, Note_off_c, 0, 48, 80
2, 199168, Note_off_c, 0, 52, 80
2, 199168, Note_off_c, 0, 60, 80
2, 199168, Note_on_c, 0, 60, 95
2, 199168, Note_on_c, 0, 52, 95
2, 199168, Note_on_c, 0, 48, 95
2, 200192, Note_off_c, 0, 48, 80
2, 200192, Note_off_c, 0, 52, 80
2, 200192, Note_off_c, 0, 60, 80
2, 200192, Note_on_c, 0, 60, 95
2, 200192, Note_on_c, 0, 53, 95
2, 200192, Note_on_c, 0, 49, 95
2, 201216, Note_off_c, 0, 49, 80
2, 201216, Note_off_c, 0, 53, 80
2, 201216, Note_off_c, 0, 60, 80
2, 201216, Note_on_c, 0, 60, 95
2, 201216, Note_on_c, 0, 53, 95
2, 201216, Note_on_c, 0, 49, 95
2, 202240, Note_off_c, 0, 49, 80
2, 202240, Note_off_c, 0, 53, 80
2, 202240, Note_off_c, 0, 60, 80
2, 202240, Note_on_c, 0, 60, 95
2, 202240, Note_on_c, 0, 55, 95
2, 202240, Note_on_c, 0, 51, 95
2, 203264, Note_off_c, 0, 51, 80
2, 203264, Note_off_c, 0, 55, 80
2, 203264, Note_off_c, 0, 60, 80
2, 203264, Note_on_c, 0, 60, 95
2, 203264, Note_on_c, 0, 55, 95
2, 203264, Note_on_c, 0, 51, 95
2, 204288, Note_off_c, 0, 55, 80
2, 204288, Note_on_c, 0, 55, 95
2, 204800, Note_off_c, 0, 60, 80
2, 204800, Note_on_c, 0, 60, 95
2, 205312, Note_off_c, 0, 55, 80
2, 205312, Note_off_c, 0, 51, 80
2, 205312, Note_on_c, 0, 58, 95
2, 205824, Note_off_c, 0, 60, 80
2, 205824, Note_on_c, 0, 60, 95
2, 206336, Note_off_c, 0, 58, 80
2, 206336, Note_on_c, 0, 51, 95
2, 206848, Note_off_c, 0, 51, 80
2, 206848, Note_off_c, 0, 60, 80
2, 206848, Note_on_c, 0, 60, 95
2, 206848, Note_on_c, 0, 57, 95
2, 206848, Note_on_c, 0, 53, 95
2, 208384, Note_off_c, 0, 53, 80
2, 208384, Note_off_c, 0, 57, 80
2, 208384, Note_off_c, 0, 60, 80
2, 208384, Note_on_c, 0, 60, 95
2, 208384, Note_on_c, 0, 52, 95
2, 208384, Note_on_c, 0, 48, 95
2, 209408, Note_off_c, 0, 48, 80
2, 209408, Note_off_c, 0, 52, 80
2, 209408, Note_off_c, 0, 60, 80
2, 209408, Note_on_c, 0, 60, 95
2, 209408, Note_on_c, 0, 52, 95
2, 209408, Note_on_c, 0, 48, 95
2, 210432, Note_off_c, 0, 48, 80
2, 210432, Note_off_c, 0, 52, 80
2, 210432, Note_off_c, 0, 60, 80
2, 210432, Note_on_c, 0, 60, 95
2, 210432, Note_on_c, 0, 53, 95
2, 210432, Note_on_c, 0, 49, 95
2, 211456, Note_off_c, 0, 49, 80
2, 211456, Note_off_c, 0, 53, 80
2, 211456, Note_off_c, 0, 60, 80
2, 211456, Note_on_c, 0, 60, 95
2, 211456, Note_on_c, 0, 53, 95
2, 211456, Note_on_c, 0, 49, 95
2, 212480, Note_off_c, 0, 49, 80
2, 212480, Note_off_c, 0, 53, 80
2, 212480, Note_off_c, 0, 60, 80
2, 212480, Note_on_c, 0, 60, 95
2, 212480, Note_on_c, 0, 55, 95
2, 212480, Note_on_c, 0, 51, 95
2, 213504, Note_off_c, 0, 51, 80
2, 213504, Note_off_c, 0, 55, 80
2, 213504, Note_off_c, 0, 60, 80
2, 213504, Note_on_c, 0, 60, 95
2, 213504, Note_on_c, 0, 55, 95
2, 213504, Note_on_c, 0, 51, 95
2, 214528, Note_off_c, 0, 55, 80
2, 214528, Note_on_c, 0, 55, 95
2, 215040, Note_off_c, 0, 60, 80
2, 215040, Note_on_c, 0, 61, 95
2, 215552, Note_off_c, 0, 51, 80
2, 216064, Note_off_c, 0, 61, 80
2, 216064, Note_on_c, 0, 60, 95
2, 216576, Note_off_c, 0, 55, 80
2, 217088, Note_off_c, 0, 60, 80
2, 217088, Note_on_c, 0, 60, 95
2, 217088, Note_on_c, 0, 57, 95
2, 217088, Note_on_c, 0, 53, 95
2, 218624, Note_off_c, 0, 53, 80
2, 218624, Note_off_c, 0, 57, 80
2, 218624, Note_off_c, 0, 60, 80
2, 218624, Note_on_c, 0, 60, 95
2, 218624, Note_on_c, 0, 52, 95
2, 218624, Note_on_c, 0, 48, 95
2, 219648, Note_off_c, 0, 48, 80
2, 219648, Note_off_c, 0, 52, 80
2, 219648, Note_off_c, 0, 60, 80
2, 219648, Note_on_c, 0, 60, 95
2, 219648, Note_on_c, 0, 52, 95
2, 219648, Note_on_c, 0, 48, 95
2, 220672, Note_off_c, 0, 48, 80
2, 220672, Note_off_c, 0, 52, 80
2, 220672, Note_off_c, 0, 60, 80
2, 220672, Note_on_c, 0, 60, 95
2, 220672, Note_on_c, 0, 53, 95
2, 220672, Note_on_c, 0, 49, 95
2, 221696, Note_off_c, 0, 49, 80
2, 221696, Note_off_c, 0, 53, 80
2, 221696, Note_off_c, 0, 60, 80
2, 221696, Note_on_c, 0, 60, 95
2, 221696, Note_on_c, 0, 53, 95
2, 221696, Note_on_c, 0, 49, 95
2, 222720, Note_off_c, 0, 49, 80
2, 222720, Note_off_c, 0, 53, 80
2, 222720, Note_off_c, 0, 60, 80
2, 222720, Note_on_c, 0, 60, 95
2, 222720, Note_on_c, 0, 55, 95
2, 222720, Note_on_c, 0, 51, 95
2, 223744, Note_off_c, 0, 51, 80
2, 223744, Note_off_c, 0, 55, 80
2, 223744, Note_off_c, 0, 60, 80
2, 223744, Note_on_c, 0, 60, 95
2, 223744, Note_on_c, 0, 55, 95
2, 223744, Note_on_c, 0, 51, 95
2, 224768, Note_off_c, 0, 55, 80
2, 224768, Note_on_c, 0, 55, 95
2, 225280, Note_off_c, 0, 60, 80
2, 225280, Note_on_c, 0, 61, 95
2, 225792, Note_off_c, 0, 61, 80
2, 225792, Note_off_c, 0, 51, 80
2, 225792, Note_on_c, 0, 60, 95
2, 226304, Note_off_c, 0, 60, 80
2, 226304, Note_on_c, 0, 60, 95
2, 226816, Note_off_c, 0, 55, 80
2, 226816, Note_on_c, 0, 48, 95
2, 227328, Note_off_c, 0, 48, 80
2, 227328, Note_off_c, 0, 60, 80
2, 227328, Note_on_c, 0, 60, 95
2, 227328, Note_on_c, 0, 57, 95
2, 227328, Note_on_c, 0, 53, 95
2, 228864, Note_off_c, 0, 53, 80
2, 228864, Note_off_c, 0, 57, 80
2, 228864, Note_off_c, 0, 60, 80
2, 228864, Note_on_c, 0, 60, 95
2, 228864, Note_on_c, 0, 52, 95
2, 228864, Note_on_c, 0, 48, 95
2, 229888, Note_off_c, 0, 48, 80
2, 229888, Note_off_c, 0, 52, 80
2, 229888, Note_off_c, 0, 60, 80
2, 229888, Note_on_c, 0, 60, 95
2, 229888, Note_on_c, 0, 52, 95
2, 229888, Note_on_c, 0, 48, 95
2, 230912, Note_off_c, 0, 48, 80
2, 230912, Note_off_c, 0, 52, 80
2, 230912, Note_off_c, 0, 60, 80
2, 230912, Note_on_c, 0, 60, 95
2, 230912, Note_on_c, 0, 53, 95
2, 230912, Note_on_c, 0, 49, 95
2, 231936, Note_off_c, 0, 49, 80
2, 231936, Note_off_c, 0, 53, 80
2, 231936, Note_off_c, 0, 60, 80
2, 231936, Note_on_c, 0, 60, 95
2, 231936, Note_on_c, 0, 53, 95
2, 231936, Note_on_c, 0, 49, 95
2, 232960, Note_off_c, 0, 49, 80
2, 232960, Note_off_c, 0, 53, 80
2, 232960, Note_off_c, 0, 60, 80
2, 232960, Note_on_c, 0, 60, 95
2, 232960, Note_on_c, 0, 55, 95
2, 232960, Note_on_c, 0, 51, 95
2, 233984, Note_off_c, 0, 51, 80
2, 233984, Note_off_c, 0, 55, 80
2, 233984, Note_off_c, 0, 60, 80
2, 233984, Note_on_c, 0, 60, 95
2, 233984, Note_on_c, 0, 55, 95
2, 233984, Note_on_c, 0, 51, 95
2, 235008, Note_off_c, 0, 55, 80
2, 235008, Note_on_c, 0, 55, 95
2, 235520, Note_off_c, 0, 60, 80
2, 235520, Note_on_c, 0, 60, 95
2, 236032, Note_off_c, 0, 55, 80
2, 236032, Note_off_c, 0, 51, 80
2, 236032, Note_on_c, 0, 56, 95
2, 236544, Note_off_c, 0, 56, 80
2, 236544, Note_on_c, 0, 55, 95
2, 237056, Note_on_c, 0, 48, 95
2, 237568, Note_off_c, 0, 48, 80
2, 237568, Note_off_c, 0, 55, 80
2, 237568, Note_off_c, 0, 60, 80
2, 237568, Note_on_c, 0, 60, 95
2, 237568, Note_on_c, 0, 52, 95
2, 237568, Note_on_c, 0, 48, 95
2, 239104, Note_off_c, 0, 48, 80
2, 239104, Note_off_c, 0, 52, 80
2, 239104, Note_off_c, 0, 60, 80
2, 239104, Note_on_c, 0, 60, 95
2, 239104, Note_on_c, 0, 52, 95
2, 239104, Note_on_c, 0, 48, 95
2, 240128, Note_off_c, 0, 48, 80
2, 240128, Note_off_c, 0, 52, 80
2, 240128, Note_off_c, 0, 60, 80
2, 240128, Note_on_c, 0, 60, 95
2, 240128, Note_on_c, 0, 52, 95
2, 240128, Note_on_c, 0, 48, 95
2, 241152, Note_off_c, 0, 48, 80
2, 241152, Note_off_c, 0, 52, 80
2, 241152, Note_off_c, 0, 60, 80
2, 241152, Note_on_c, 0, 60, 95
2, 241152, Note_on_c, 0, 53, 95
2, 241152, Note_on_c, 0, 49, 95
2, 242176, Note_off_c, 0, 49, 80
2, 242176, Note_off_c, 0, 53, 80
2, 242176, Note_off_c, 0, 60, 80
2, 242176, Note_on_c, 0, 60, 95
2, 242176, Note_on_c, 0, 53, 95
2, 242176, Note_on_c, 0, 49, 95
2, 243200, Note_off_c, 0, 49, 80
2, 243200, Note_off_c, 0, 53, 80
2, 243200, Note_off_c, 0, 60, 80
2, 243200, Note_on_c, 0, 60, 95
2, 243200, Note_on_c, 0, 55, 95
2, 243200, Note_on_c, 0, 51, 95
2, 244224, Note_off_c, 0, 51, 80
2, 244224, Note_off_c, 0, 55, 80
2, 244224, Note_off_c, 0, 60, 80
2, 244224, Note_on_c, 0, 60, 95
2, 244224, Note_on_c, 0, 55, 95
2, 244224, Note_on_c, 0, 51, 95
2, 245248, Note_off_c, 0, 55, 80
2, 245248, Note_on_c, 0, 55, 95
2, 245760, Note_off_c, 0, 60, 80
2, 245760, Note_on_c, 0, 60, 95
2, 246272, Note_off_c, 0, 55, 80
2, 246272, Note_off_c, 0, 51, 80
2, 246272, Note_on_c, 0, 56, 95
2, 246784, Note_off_c, 0, 56, 80
2, 246784, Note_on_c, 0, 55, 95
2, 247296, Note_on_c, 0, 48, 95
2, 247808, Note_off_c, 0, 48, 80
2, 247808, Note_off_c, 0, 55, 80
2, 247808, Note_off_c, 0, 60, 80
2, 247808, Note_on_c, 0, 60, 95
2, 247808, Note_on_c, 0, 52, 95
2, 247808, Note_on_c, 0, 48, 95
2, 249344, Note_off_c, 0, 48, 80
2, 249344, Note_off_c, 0, 52, 80
2, 249344, Note_off_c, 0, 60, 80
2, 249344, Note_on_c, 0, 60, 95
2, 249344, Note_on_c, 0, 52, 95
2, 249344, Note_on_c, 0, 48, 95
2, 250368, Note_off_c, 0, 48, 80
2, 250368, Note_off_c, 0, 52, 80
2, 250368, Note_off_c, 0, 60, 80
2, 250368, Note_on_c, 0, 60, 95
2, 250368, Note_on_c, 0, 52, 95
2, 250368, Note_on_c, 0, 48, 95
2, 251392, Note_off_c, 0, 48, 80
2, 251392, Note_off_c, 0, 52, 80
2, 251392, Note_off_c, 0, 60, 80
2, 251392, Note_on_c, 0, 60, 95
2, 251392, Note_on_c, 0, 53, 95
2, 251392, Note_on_c, 0, 49, 95
2, 252416, Note_off_c, 0, 49, 80
2, 252416, Note_off_c, 0, 53, 80
2, 252416, Note_off_c, 0, 60, 80
2, 252416, Note_on_c, 0, 60, 95
2, 252416, Note_on_c, 0, 53, 95
2, 252416, Note_on_c, 0, 49, 95
2, 253440, Note_off_c, 0, 49, 80
2, 253440, Note_off_c, 0, 53, 80
2, 253440, Note_off_c, 0, 60, 80
2, 253440, Note_on_c, 0, 60, 95
2, 253440, Note_on_c, 0, 55, 95
2, 253440, Note_on_c, 0, 51, 95
2, 254464, Note_off_c, 0, 51, 80
2, 254464, Note_off_c, 0, 55, 80
2, 254464, Note_off_c, 0, 60, 80
2, 254464, Note_on_c, 0, 60, 95
2, 254464, Note_on_c, 0, 55, 95
2, 254464, Note_on_c, 0, 51, 95
2, 255488, Note_off_c, 0, 55, 80
2, 255488, Note_on_c, 0, 55, 95
2, 256000, Note_off_c, 0, 60, 80
2, 256000, Note_on_c, 0, 60, 95
2, 256512, Note_off_c, 0, 55, 80
2, 256512, Note_off_c, 0, 51, 80
2, 256512, Note_on_c, 0, 56, 95
2, 257024, Note_off_c, 0, 56, 80
2, 257024, Note_on_c, 0, 55, 95
2, 257536, Note_on_c, 0, 48, 95
2, 258048, Note_off_c, 0, 48, 80
2, 258048, Note_off_c, 0, 55, 80
2, 258048, Note_off_c, 0, 60, 80
2, 258048, Note_on_c, 0, 60, 95
2, 258048, Note_on_c, 0, 52, 95
2, 258048, Note_on_c, 0, 48, 95
2, 259584, Note_off_c, 0, 48, 80
2, 259584, Note_off_c, 0, 52, 80
2, 259584, Note_off_c, 0, 60, 80
2, 259584, Note_on_c, 0, 60, 95
2, 259584, Note_on_c, 0, 52, 95
2, 259584, Note_on_c, 0, 48, 95
2, 260608, Note_off_c, 0, 48, 80
2, 260608, Note_off_c, 0, 52, 80
2, 260608, Note_off_c, 0, 60, 80
2, 260608, Note_on_c, 0, 60, 95
2, 260608, Note_on_c, 0, 52, 95
2, 260608, Note_on_c, 0, 48, 95
2, 261632, Note_off_c, 0, 48, 80
2, 261632, Note_off_c, 0, 52, 80
2, 261632, Note_off_c, 0, 60, 80
2, 261632, Note_on_c, 0, 60, 95
2, 261632, Note_on_c, 0, 53, 95
2, 261632, Note_on_c, 0, 49, 95
2, 262656, Note_off_c, 0, 49, 80
2, 262656, Note_off_c, 0, 53, 80
2, 262656, Note_off_c, 0, 60, 80
2, 262656, Note_on_c, 0, 60, 95
2, 262656, Note_on_c, 0, 53, 95
2, 262656, Note_on_c, 0, 49, 95
2, 263680, Note_off_c, 0, 49, 80
2, 263680, Note_off_c, 0, 53, 80
2, 263680, Note_off_c, 0, 60, 80
2, 263680, Note_on_c, 0, 60, 95
2, 263680, Note_on_c, 0, 55, 95
2, 263680, Note_on_c, 0, 51, 95
2, 264704, Note_off_c, 0, 51, 80
2, 264704, Note_off_c, 0, 55, 80
2, 264704, Note_off_c, 0, 60, 80
2, 264704, Note_on_c, 0, 60, 95
2, 264704, Note_on_c, 0, 55, 95
2, 264704, Note_on_c, 0, 51, 95
2, 265728, Note_off_c, 0, 55, 80
2, 265728, Note_on_c, 0, 55, 95
2, 266240, Note_off_c, 0, 60, 80
2, 266240, Note_on_c, 0, 60, 95
2, 266752, Note_off_c, 0, 55, 80
2, 266752, Note_off_c, 0, 51, 80
2, 266752, Note_on_c, 0, 56, 95
2, 267264, Note_off_c, 0, 56, 80
2, 267264, Note_on_c, 0, 55, 95
2, 267776, Note_on_c, 0, 48, 95
2, 268288, Note_off_c, 0, 48, 80
2, 268288, Note_off_c, 0, 55, 80
2, 268288, Note_off_c, 0, 60, 80
2, 268288, Note_on_c, 0, 60, 95
2, 268288, Note_on_c, 0, 52, 95
2, 268288, Note_on_c, 0, 48, 95
2, 269824, Note_off_c, 0, 48, 80
2, 269824, Note_off_c, 0, 52, 80
2, 269824, Note_off_c, 0, 60, 80
2, 269824, Note_on_c, 0, 60, 95
2, 269824, Note_on_c, 0, 52, 95
2, 269824, Note_on_c, 0, 48, 95
2, 270848, Note_off_c, 0, 48, 80
2, 270848, Note_off_c, 0, 52, 80
2, 270848, Note_off_c, 0, 60, 80
2, 270848, Note_on_c, 0, 60, 95
2, 270848, Note_on_c, 0, 52, 95
2, 270848, Note_on_c, 0, 48, 95
2, 271872, Note_off_c, 0, 48, 80
2, 271872, Note_off_c, 0, 52, 80
2, 271872, Note_off_c, 0, 60, 80
2, 271872, Note_on_c, 0, 60, 95
2, 271872, Note_on_c, 0, 53, 95
2, 271872, Note_on_c, 0, 49, 95
2, 272896, Note_off_c, 0, 49, 80
2, 272896, Note_off_c, 0, 53, 80
2, 272896, Note_off_c, 0, 60, 80
2, 272896, Note_on_c, 0, 60, 95
2, 272896, Note_on_c, 0, 53, 95
2, 272896, Note_on_c, 0, 49, 95
2, 273920, Note_off_c, 0, 49, 80
2, 273920, Note_off_c, 0, 53, 80
2, 273920, Note_off_c, 0, 60, 80
2, 273920, Note_on_c, 0, 60, 95
2, 273920, Note_on_c, 0, 55, 95
2, 273920, Note_on_c, 0, 51, 95
2, 274944, Note_off_c, 0, 51, 80
2, 274944, Note_off_c, 0, 55, 80
2, 274944, Note_off_c, 0, 60, 80
2, 274944, Note_on_c, 0, 60, 95
2, 274944, Note_on_c, 0, 55, 95
2, 274944, Note_on_c, 0, 51, 95
2, 275968, Note_off_c, 0, 55, 80
2, 275968, Note_on_c, 0, 55, 95
2, 276480, Note_off_c, 0, 60, 80
2, 276480, Note_on_c, 0, 60, 95
2, 276992, Note_off_c, 0, 55, 80
2, 276992, Note_off_c, 0, 51, 80
2, 276992, Note_on_c, 0, 58, 95
2, 277504, Note_off_c, 0, 60, 80
2, 277504, Note_on_c, 0, 60, 95
2, 278016, Note_off_c, 0, 60, 80
2, 278016, Note_off_c, 0, 58, 80
2, 278016, Note_on_c, 0, 58, 95
2, 278528, Note_off_c, 0, 58, 80
2, 278528, Note_on_c, 0, 60, 95
2, 278528, Note_on_c, 0, 53, 95
2, 278528, Note_on_c, 0, 49, 95
2, 280064, Note_off_c, 0, 49, 80
2, 280064, Note_off_c, 0, 53, 80
2, 280064, Note_off_c, 0, 60, 80
2, 280064, Note_on_c, 0, 60, 95
2, 280064, Note_on_c, 0, 53, 95
2, 280064, Note_on_c, 0, 49, 95
2, 281088, Note_off_c, 0, 49, 80
2, 281088, Note_off_c, 0, 53, 80
2, 281088, Note_off_c, 0, 60, 80
2, 281088, Note_on_c, 0, 60, 95
2, 281088, Note_on_c, 0, 53, 95
2, 281088, Note_on_c, 0, 49, 95
2, 282112, Note_off_c, 0, 49, 80
2, 282112, Note_off_c, 0, 53, 80
2, 282112, Note_off_c, 0, 60, 80
2, 282112, Note_on_c, 0, 60, 95
2, 282112, Note_on_c, 0, 53, 95
2, 282112, Note_on_c, 0, 49, 95
2, 283136, Note_off_c, 0, 49, 80
2, 283136, Note_off_c, 0, 53, 80
2, 283136, Note_off_c, 0, 60, 80
2, 283136, Note_on_c, 0, 60, 95
2, 283136, Note_on_c, 0, 52, 95
2, 283136, Note_on_c, 0, 48, 95
2, 284160, Note_off_c, 0, 48, 80
2, 284160, Note_off_c, 0, 52, 80
2, 284160, Note_off_c, 0, 60, 80
2, 284160, Note_on_c, 0, 60, 95
2, 284160, Note_on_c, 0, 52, 95
2, 284160, Note_on_c, 0, 48, 95
2, 285184, Note_off_c, 0, 48, 80
2, 285184, Note_off_c, 0, 52, 80
2, 285184, Note_off_c, 0, 60, 80
2, 285184, Note_on_c, 0, 55, 95
2, 285184, Note_on_c, 0, 60, 95
2, 285184, Note_on_c, 0, 58, 95
2, 285184, Note_on_c, 0, 51, 95
2, 286208, Note_off_c, 0, 51, 80
2, 286208, Note_off_c, 0, 58, 80
2, 286208, Note_off_c, 0, 60, 80
2, 286208, Note_off_c, 0, 55, 80
2, 286208, Note_on_c, 0, 55, 95
2, 286208, Note_on_c, 0, 60, 95
2, 286208, Note_on_c, 0, 58, 95
2, 286208, Note_on_c, 0, 51, 95
2, 287232, Note_off_c, 0, 51, 80
2, 287232, Note_off_c, 0, 58, 80
2, 287232, Note_off_c, 0, 60, 80
2, 287232, Note_off_c, 0, 55, 80
2, 287232, Note_on_c, 0, 60, 95
2, 287232, Note_on_c, 0, 56, 95
2, 287232, Note_on_c, 0, 53, 95
2, 287232, Note_on_c, 0, 49, 95
2, 288768, Note_off_c, 0, 49, 80
2, 288768, Note_off_c, 0, 53, 80
2, 288768, Note_off_c, 0, 56, 80
2, 288768, Note_off_c, 0, 60, 80
2, 288768, Note_on_c, 0, 60, 95
2, 288768, Note_on_c, 0, 53, 95
2, 288768, Note_on_c, 0, 49, 95
2, 290304, Note_off_c, 0, 49, 80
2, 290304, Note_off_c, 0, 53, 80
2, 290304, Note_off_c, 0, 60, 80
2, 290304, Note_on_c, 0, 60, 95
2, 290304, Note_on_c, 0, 53, 95
2, 290304, Note_on_c, 0, 49, 95
2, 291328, Note_off_c, 0, 49, 80
2, 291328, Note_off_c, 0, 53, 80
2, 291328, Note_off_c, 0, 60, 80
2, 291328, Note_on_c, 0, 60, 95
2, 291328, Note_on_c, 0, 53, 95
2, 291328, Note_on_c, 0, 49, 95
2, 292352, Note_off_c, 0, 49, 80
2, 292352, Note_off_c, 0, 53, 80
2, 292352, Note_off_c, 0, 60, 80
2, 292352, Note_on_c, 0, 60, 95
2, 292352, Note_on_c, 0, 53, 95
2, 292352, Note_on_c, 0, 49, 95
2, 293376, Note_off_c, 0, 49, 80
2, 293376, Note_off_c, 0, 53, 80
2, 293376, Note_off_c, 0, 60, 80
2, 293376, Note_on_c, 0, 60, 95
2, 293376, Note_on_c, 0, 52, 95
2, 293376, Note_on_c, 0, 48, 95
2, 294400, Note_off_c, 0, 48, 80
2, 294400, Note_off_c, 0, 52, 80
2, 294400, Note_off_c, 0, 60, 80
2, 294400, Note_on_c, 0, 60, 95
2, 294400, Note_on_c, 0, 52, 95
2, 294400, Note_on_c, 0, 48, 95
2, 295424, Note_off_c, 0, 48, 80
2, 295424, Note_off_c, 0, 52, 80
2, 295424, Note_off_c, 0, 60, 80
2, 295424, Note_on_c, 0, 55, 95
2, 295424, Note_on_c, 0, 60, 95
2, 295424, Note_on_c, 0, 58, 95
2, 295424, Note_on_c, 0, 51, 95
2, 296448, Note_off_c, 0, 51, 80
2, 296448, Note_off_c, 0, 58, 80
2, 296448, Note_off_c, 0, 60, 80
2, 296448, Note_off_c, 0, 55, 80
2, 296448, Note_on_c, 0, 55, 95
2, 296448, Note_on_c, 0, 60, 95
2, 296448, Note_on_c, 0, 58, 95
2, 296448, Note_on_c, 0, 51, 95
2, 297472, Note_off_c, 0, 51, 80
2, 297472, Note_off_c, 0, 58, 80
2, 297472, Note_off_c, 0, 60, 80
2, 297472, Note_off_c, 0, 55, 80
2, 297472, Note_on_c, 0, 60, 95
2, 297472, Note_on_c, 0, 56, 95
2, 297472, Note_on_c, 0, 53, 95
2, 297472, Note_on_c, 0, 49, 95
2, 299008, Note_off_c, 0, 49, 80
2, 299008, Note_off_c, 0, 53, 80
2, 299008, Note_off_c, 0, 56, 80
2, 299008, Note_off_c, 0, 60, 80
2, 299008, Note_on_c, 0, 60, 95
2, 299008, Note_on_c, 0, 53, 95
2, 299008, Note_on_c, 0, 49, 95
2, 300544, Note_off_c, 0, 49, 80
2, 300544, Note_off_c, 0, 53, 80
2, 300544, Note_off_c, 0, 60, 80
2, 300544, Note_on_c, 0, 60, 95
2, 300544, Note_on_c, 0, 53, 95
2, 300544, Note_on_c, 0, 49, 95
2, 301568, Note_off_c, 0, 49, 80
2, 301568, Note_off_c, 0, 53, 80
2, 301568, Note_off_c, 0, 60, 80
2, 301568, Note_on_c, 0, 60, 95
2, 301568, Note_on_c, 0, 53, 95
2, 301568, Note_on_c, 0, 49, 95
2, 302592, Note_off_c, 0, 49, 80
2, 302592, Note_off_c, 0, 53, 80
2, 302592, Note_off_c, 0, 60, 80
2, 302592, Note_on_c, 0, 60, 95
2, 302592, Note_on_c, 0, 53, 95
2, 302592, Note_on_c, 0, 49, 95
2, 303616, Note_off_c, 0, 49, 80
2, 303616, Note_off_c, 0, 53, 80
2, 303616, Note_off_c, 0, 60, 80
2, 303616, Note_on_c, 0, 60, 95
2, 303616, Note_on_c, 0, 52, 95
2, 303616, Note_on_c, 0, 48, 95
2, 304640, Note_off_c, 0, 48, 80
2, 304640, Note_off_c, 0, 52, 80
2, 304640, Note_off_c, 0, 60, 80
2, 304640, Note_on_c, 0, 60, 95
2, 304640, Note_on_c, 0, 52, 95
2, 304640, Note_on_c, 0, 48, 95
2, 305664, Note_off_c, 0, 48, 80
2, 305664, Note_off_c, 0, 52, 80
2, 305664, Note_off_c, 0, 60, 80
2, 305664, Note_on_c, 0, 55, 95
2, 305664, Note_on_c, 0, 60, 95
2, 305664, Note_on_c, 0, 58, 95
2, 305664, Note_on_c, 0, 51, 95
2, 306688, Note_off_c, 0, 51, 80
2, 306688, Note_off_c, 0, 58, 80
2, 306688, Note_off_c, 0, 60, 80
2, 306688, Note_off_c, 0, 55, 80
2, 306688, Note_on_c, 0, 55, 95
2, 306688, Note_on_c, 0, 60, 95
2, 306688, Note_on_c, 0, 58, 95
2, 306688, Note_on_c, 0, 51, 95
2, 307712, Note_off_c, 0, 51, 80
2, 307712, Note_off_c, 0, 58, 80
2, 307712, Note_off_c, 0, 60, 80
2, 307712, Note_off_c, 0, 55, 80
2, 307712, Note_on_c, 0, 60, 95
2, 307712, Note_on_c, 0, 56, 95
2, 307712, Note_on_c, 0, 53, 95
2, 307712, Note_on_c, 0, 49, 95
2, 309248, Note_off_c, 0, 49, 80
2, 309248, Note_off_c, 0, 53, 80
2, 309248, Note_off_c, 0, 56, 80
2, 309248, Note_off_c, 0, 60, 80
2, 309248, Note_on_c, 0, 60, 95
2, 309248, Note_on_c, 0, 53, 95
2, 309248, Note_on_c, 0, 49, 95
2, 310784, Note_off_c, 0, 49, 80
2, 310784, Note_off_c, 0, 53, 80
2, 310784, Note_off_c, 0, 60, 80
2, 310784, Note_on_c, 0, 60, 95
2, 310784, Note_on_c, 0, 53, 95
2, 310784, Note_on_c, 0, 49, 95
2, 311808, Note_off_c, 0, 49, 80
2, 311808, Note_off_c, 0, 53, 80
2, 311808, Note_off_c, 0, 60, 80
2, 311808, Note_on_c, 0, 60, 95
2, 311808, Note_on_c, 0, 53, 95
2, 311808, Note_on_c, 0, 49, 95
2, 312832, Note_off_c, 0, 49, 80
2, 312832, Note_off_c, 0, 53, 80
2, 312832, Note_off_c, 0, 60, 80
2, 312832, Note_on_c, 0, 60, 95
2, 312832, Note_on_c, 0, 53, 95
2, 312832, Note_on_c, 0, 49, 95
2, 313856, Note_off_c, 0, 49, 80
2, 313856, Note_off_c, 0, 53, 80
2, 313856, Note_off_c, 0, 60, 80
2, 313856, Note_on_c, 0, 60, 95
2, 313856, Note_on_c, 0, 52, 95
2, 313856, Note_on_c, 0, 48, 95
2, 314880, Note_off_c, 0, 48, 80
2, 314880, Note_off_c, 0, 52, 80
2, 314880, Note_off_c, 0, 60, 80
2, 314880, Note_on_c, 0, 60, 95
2, 314880, Note_on_c, 0, 52, 95
2, 314880, Note_on_c, 0, 48, 95
2, 315904, Note_off_c, 0, 48, 80
2, 315904, Note_off_c, 0, 52, 80
2, 315904, Note_off_c, 0, 60, 80
2, 315904, Note_on_c, 0, 55, 95
2, 315904, Note_on_c, 0, 60, 95
2, 315904, Note_on_c, 0, 58, 95
2, 315904, Note_on_c, 0, 51, 95
2, 316928, Note_off_c, 0, 51, 80
2, 316928, Note_off_c, 0, 58, 80
2, 316928, Note_off_c, 0, 60, 80
2, 316928, Note_off_c, 0, 55, 80
2, 316928, Note_on_c, 0, 55, 95
2, 316928, Note_on_c, 0, 60, 95
2, 316928, Note_on_c, 0, 58, 95
2, 316928, Note_on_c, 0, 51, 95
2, 317952, Note_off_c, 0, 51, 80
2, 317952, Note_off_c, 0, 58, 80
2, 317952, Note_off_c, 0, 60, 80
2, 317952, Note_off_c, 0, 55, 80
2, 317952, Note_on_c, 0, 60, 95
2, 317952, Note_on_c, 0, 56, 95
2, 317952, Note_on_c, 0, 53, 95
2, 317952, Note_on_c, 0, 49, 95
2, 319488, Note_off_c, 0, 49, 80
2, 319488, Note_off_c, 0, 53, 80
2, 319488, Note_off_c, 0, 56, 80
2, 319488, Note_off_c, 0, 60, 80
2, 319488, Note_on_c, 0, 60, 95
2, 319488, Note_on_c, 0, 53, 95
2, 319488, Note_on_c, 0, 49, 95
2, 321024, Note_off_c, 0, 49, 80
2, 321024, Note_off_c, 0, 53, 80
2, 321024, Note_off_c, 0, 60, 80
2, 321024, Note_on_c, 0, 60, 95
2, 321024, Note_on_c, 0, 53, 95
2, 321024, Note_on_c, 0, 49, 95
2, 322048, Note_off_c, 0, 49, 80
2, 322048, Note_off_c, 0, 53, 80
2, 322048, Note_off_c, 0, 60, 80
2, 322048, Note_on_c, 0, 60, 95
2, 322048, Note_on_c, 0, 53, 95
2, 322048, Note_on_c, 0, 49, 95
2, 323072, Note_off_c, 0, 49, 80
2, 323072, Note_off_c, 0, 53, 80
2, 323072, Note_off_c, 0, 60, 80
2, 323072, Note_on_c, 0, 60, 95
2, 323072, Note_on_c, 0, 53, 95
2, 323072, Note_on_c, 0, 49, 95
2, 324096, Note_off_c, 0, 49, 80
2, 324096, Note_off_c, 0, 53, 80
2, 324096, Note_off_c, 0, 60, 80
2, 324096, Note_on_c, 0, 60, 95
2, 324096, Note_on_c, 0, 52, 95
2, 324096, Note_on_c, 0, 48, 95
2, 325120, Note_off_c, 0, 48, 80
2, 325120, Note_off_c, 0, 52, 80
2, 325120, Note_off_c, 0, 60, 80
2, 325120, Note_on_c, 0, 60, 95
2, 325120, Note_on_c, 0, 52, 95
2, 325120, Note_on_c, 0, 48, 95
2, 326144, Note_off_c, 0, 48, 80
2, 326144, Note_off_c, 0, 52, 80
2, 326144, Note_off_c, 0, 60, 80
2, 326144, Note_on_c, 0, 55, 95
2, 326144, Note_on_c, 0, 60, 95
2, 326144, Note_on_c, 0, 58, 95
2, 326144, Note_on_c, 0, 51, 95
2, 327168, Note_off_c, 0, 51, 80
2, 327168, Note_off_c, 0, 58, 80
2, 327168, Note_off_c, 0, 60, 80
2, 327168, Note_off_c, 0, 55, 80
2, 327168, Note_on_c, 0, 55, 95
2, 327168, Note_on_c, 0, 60, 95
2, 327168, Note_on_c, 0, 58, 95
2, 327168, Note_on_c, 0, 51, 95
2, 328192, Note_off_c, 0, 51, 80
2, 328192, Note_off_c, 0, 58, 80
2, 328192, Note_off_c, 0, 60, 80
2, 328192, Note_off_c, 0, 55, 80
2, 328192, Note_on_c, 0, 60, 95
2, 328192, Note_on_c, 0, 56, 95
2, 328192, Note_on_c, 0, 53, 95
2, 328192, Note_on_c, 0, 49, 95
2, 329728, Note_off_c, 0, 49, 80
2, 329728, Note_off_c, 0, 53, 80
2, 329728, Note_off_c, 0, 56, 80
2, 329728, Note_off_c, 0, 60, 80
2, 329728, Note_on_c, 0, 60, 95
2, 329728, Note_on_c, 0, 53, 95
2, 329728, Note_on_c, 0, 49, 95
2, 331264, Note_off_c, 0, 49, 80
2, 331264, Note_off_c, 0, 53, 80
2, 331264, Note_off_c, 0, 60, 80
2, 331264, Note_on_c, 0, 60, 95
2, 331264, Note_on_c, 0, 53, 95
2, 331264, Note_on_c, 0, 49, 95
2, 332288, Note_off_c, 0, 49, 80
2, 332288, Note_off_c, 0, 53, 80
2, 332288, Note_off_c, 0, 60, 80
2, 332288, Note_on_c, 0, 60, 95
2, 332288, Note_on_c, 0, 53, 95
2, 332288, Note_on_c, 0, 49, 95
2, 333312, Note_off_c, 0, 49, 80
2, 333312, Note_off_c, 0, 53, 80
2, 333312, Note_off_c, 0, 60, 80
2, 333312, Note_on_c, 0, 60, 95
2, 333312, Note_on_c, 0, 53, 95
2, 333312, Note_on_c, 0, 49, 95
2, 334336, Note_off_c, 0, 49, 80
2, 334336, Note_off_c, 0, 53, 80
2, 334336, Note_off_c, 0, 60, 80
2, 334336, Note_on_c, 0, 60, 95
2, 334336, Note_on_c, 0, 52, 95
2, 334336, Note_on_c, 0, 48, 95
2, 335360, Note_off_c, 0, 48, 80
2, 335360, Note_off_c, 0, 52, 80
2, 335360, Note_off_c, 0, 60, 80
2, 335360, Note_on_c, 0, 60, 95
2, 335360, Note_on_c, 0, 52, 95
2, 335360, Note_on_c, 0, 48, 95
2, 336384, Note_off_c, 0, 48, 80
2, 336384, Note_off_c, 0, 52, 80
2, 336384, Note_off_c, 0, 60, 80
2, 336384, Note_on_c, 0, 55, 95
2, 336384, Note_on_c, 0, 60, 95
2, 336384, Note_on_c, 0, 58, 95
2, 336384, Note_on_c, 0, 51, 95
2, 337408, Note_off_c, 0, 51, 80
2, 337408, Note_off_c, 0, 58, 80
2, 337408, Note_off_c, 0, 60, 80
2, 337408, Note_off_c, 0, 55, 80
2, 337408, Note_on_c, 0, 55, 95
2, 337408, Note_on_c, 0, 60, 95
2, 337408, Note_on_c, 0, 58, 95
2, 337408, Note_on_c, 0, 51, 95
2, 338432, Note_off_c, 0, 51, 80
2, 338432, Note_off_c, 0, 58, 80
2, 338432, Note_off_c, 0, 60, 80
2, 338432, Note_off_c, 0, 55, 80
2, 338432, Note_on_c, 0, 60, 95
2, 338432, Note_on_c, 0, 56, 95
2, 338432, Note_on_c, 0, 53, 95
2, 338432, Note_on_c, 0, 49, 95
2, 339968, Note_off_c, 0, 49, 80
2, 339968, Note_off_c, 0, 53, 80
2, 339968, Note_off_c, 0, 56, 80
2, 339968, Note_off_c, 0, 60, 80
2, 339968, Note_on_c, 0, 60, 95
2, 339968, Note_on_c, 0, 53, 95
2, 339968, Note_on_c, 0, 49, 95
2, 341504, Note_off_c, 0, 49, 80
2, 341504, Note_off_c, 0, 53, 80
2, 341504, Note_off_c, 0, 60, 80
2, 341504, Note_on_c, 0, 60, 95
2, 341504, Note_on_c, 0, 53, 95
2, 341504, Note_on_c, 0, 49, 95
2, 342528, Note_off_c, 0, 49, 80
2, 342528, Note_off_c, 0, 53, 80
2, 342528, Note_off_c, 0, 60, 80
2, 342528, Note_on_c, 0, 60, 95
2, 342528, Note_on_c, 0, 53, 95
2, 342528, Note_on_c, 0, 49, 95
2, 343552, Note_off_c, 0, 49, 80
2, 343552, Note_off_c, 0, 53, 80
2, 343552, Note_off_c, 0, 60, 80
2, 343552, Note_on_c, 0, 60, 95
2, 343552, Note_on_c, 0, 53, 95
2, 343552, Note_on_c, 0, 49, 95
2, 344576, Note_off_c, 0, 49, 80
2, 344576, Note_off_c, 0, 53, 80
2, 344576, Note_off_c, 0, 60, 80
2, 344576, Note_on_c, 0, 60, 95
2, 344576, Note_on_c, 0, 52, 95
2, 344576, Note_on_c, 0, 48, 95
2, 345600, Note_off_c, 0, 48, 80
2, 345600, Note_off_c, 0, 52, 80
2, 345600, Note_off_c, 0, 60, 80
2, 345600, Note_on_c, 0, 60, 95
2, 345600, Note_on_c, 0, 52, 95
2, 345600, Note_on_c, 0, 48, 95
2, 346624, Note_off_c, 0, 48, 80
2, 346624, Note_off_c, 0, 52, 80
2, 346624, Note_off_c, 0, 60, 80
2, 346624, Note_on_c, 0, 55, 95
2, 346624, Note_on_c, 0, 60, 95
2, 346624, Note_on_c, 0, 58, 95
2, 346624, Note_on_c, 0, 51, 95
2, 347648, Note_off_c, 0, 51, 80
2, 347648, Note_off_c, 0, 58, 80
2, 347648, Note_off_c, 0, 60, 80
2, 347648, Note_off_c, 0, 55, 80
2, 347648, Note_on_c, 0, 55, 95
2, 347648, Note_on_c, 0, 60, 95
2, 347648, Note_on_c, 0, 58, 95
2, 347648, Note_on_c, 0, 51, 95
2, 348672, Note_off_c, 0, 51, 80
2, 348672, Note_off_c, 0, 58, 80
2, 348672, Note_off_c, 0, 60, 80
2, 348672, Note_off_c, 0, 55, 80
2, 348672, Note_on_c, 0, 60, 95
2, 348672, Note_on_c, 0, 56, 95
2, 348672, Note_on_c, 0, 53, 95
2, 348672, Note_on_c, 0, 49, 95
2, 350208, Note_off_c, 0, 49, 80
2, 350208, Note_off_c, 0, 53, 80
2, 350208, Note_off_c, 0, 56, 80
2, 350208, Note_off_c, 0, 60, 80
2, 350208, Note_on_c, 0, 60, 95
2, 350208, Note_on_c, 0, 53, 95
2, 350208, Note_on_c, 0, 49, 95
2, 351744, Note_off_c, 0, 49, 80
2, 351744, Note_off_c, 0, 53, 80
2, 351744, Note_off_c, 0, 60, 80
2, 351744, Note_on_c, 0, 60, 95
2, 351744, Note_on_c, 0, 53, 95
2, 351744, Note_on_c, 0, 49, 95
2, 352768, Note_off_c, 0, 49, 80
2, 352768, Note_off_c, 0, 53, 80
2, 352768, Note_off_c, 0, 60, 80
2, 352768, Note_on_c, 0, 60, 95
2, 352768, Note_on_c, 0, 53, 95
2, 352768, Note_on_c, 0, 49, 95
2, 353792, Note_off_c, 0, 49, 80
2, 353792, Note_off_c, 0, 53, 80
2, 353792, Note_off_c, 0, 60, 80
2, 353792, Note_on_c, 0, 60, 95
2, 353792, Note_on_c, 0, 53, 95
2, 353792, Note_on_c, 0, 49, 95
2, 354816, Note_off_c, 0, 49, 80
2, 354816, Note_off_c, 0, 53, 80
2, 354816, Note_off_c, 0, 60, 80
2, 354816, Note_on_c, 0, 60, 95
2, 354816, Note_on_c, 0, 52, 95
2, 354816, Note_on_c, 0, 48, 95
2, 355840, Note_off_c, 0, 48, 80
2, 355840, Note_off_c, 0, 52, 80
2, 355840, Note_off_c, 0, 60, 80
2, 355840, Note_on_c, 0, 60, 95
2, 355840, Note_on_c, 0, 52, 95
2, 355840, Note_on_c, 0, 48, 95
2, 356864, Note_off_c, 0, 48, 80
2, 356864, Note_off_c, 0, 52, 80
2, 356864, Note_off_c, 0, 60, 80
2, 356864, Note_on_c, 0, 55, 95
2, 356864, Note_on_c, 0, 60, 95
2, 356864, Note_on_c, 0, 58, 95
2, 356864, Note_on_c, 0, 51, 95
2, 357888, Note_off_c, 0, 51, 80
2, 357888, Note_off_c, 0, 58, 80
2, 357888, Note_off_c, 0, 60, 80
2, 357888, Note_off_c, 0, 55, 80
2, 357888, Note_on_c, 0, 55, 95
2, 357888, Note_on_c, 0, 60, 95
2, 357888, Note_on_c, 0, 58, 95
2, 357888, Note_on_c, 0, 51, 95
2, 358912, Note_off_c, 0, 51, 80
2, 358912, Note_off_c, 0, 58, 80
2, 358912, Note_off_c, 0, 60, 80
2, 358912, Note_off_c, 0, 55, 80
2, 358912, Note_on_c, 0, 60, 95
2, 358912, Note_on_c, 0, 57, 95
2, 358912, Note_on_c, 0, 53, 95
2, 360448, Note_off_c, 0, 53, 80
2, 360448, Note_off_c, 0, 57, 80
2, 360448, Note_off_c, 0, 60, 80
2, 360448, Note_on_c, 0, 60, 95
2, 360448, Note_on_c, 0, 57, 95
2, 360448, Note_on_c, 0, 53, 95
2, 361984, Note_off_c, 0, 53, 80
2, 361984, Note_off_c, 0, 57, 80
2, 361984, Note_off_c, 0, 60, 80
2, 361984, Note_on_c, 0, 60, 95
2, 361984, Note_on_c, 0, 52, 95
2, 361984, Note_on_c, 0, 48, 95
2, 363008, Note_off_c, 0, 48, 80
2, 363008, Note_off_c, 0, 52, 80
2, 363008, Note_off_c, 0, 60, 80
2, 363008, Note_on_c, 0, 60, 95
2, 363008, Note_on_c, 0, 52, 95
2, 363008, Note_on_c, 0, 48, 95
2, 364032, Note_off_c, 0, 48, 80
2, 364032, Note_off_c, 0, 52, 80
2, 364032, Note_off_c, 0, 60, 80
2, 364032, Note_on_c, 0, 60, 95
2, 364032, Note_on_c, 0, 53, 95
2, 364032, Note_on_c, 0, 49, 95
2, 365056, Note_off_c, 0, 49, 80
2, 365056, Note_off_c, 0, 53, 80
2, 365056, Note_off_c, 0, 60, 80
2, 365056, Note_on_c, 0, 60, 95
2, 365056, Note_on_c, 0, 53, 95
2, 365056, Note_on_c, 0, 49, 95
2, 366080, Note_off_c, 0, 49, 80
2, 366080, Note_off_c, 0, 53, 80
2, 366080, Note_off_c, 0, 60, 80
2, 366080, Note_on_c, 0, 60, 95
2, 366080, Note_on_c, 0, 55, 95
2, 366080, Note_on_c, 0, 51, 95
2, 367104, Note_off_c, 0, 51, 80
2, 367104, Note_off_c, 0, 55, 80
2, 367104, Note_off_c, 0, 60, 80
2, 367104, Note_on_c, 0, 60, 95
2, 367104, Note_on_c, 0, 55, 95
2, 367104, Note_on_c, 0, 51, 95
2, 368128, Note_off_c, 0, 55, 80
2, 368128, Note_on_c, 0, 55, 95
2, 369152, Note_off_c, 0, 51, 80
2, 369152, Note_off_c, 0, 60, 80
2, 370176, Note_off_c, 0, 55, 80
2, 370176, Note_on_c, 0, 41, 95
2, 370688, Note_off_c, 0, 41, 80
2, 370688, Note_on_c, 0, 60, 95
2, 370688, Note_on_c, 0, 57, 95
2, 370688, Note_on_c, 0, 53, 95
2, 372224, Note_off_c, 0, 53, 80
2, 372224, Note_off_c, 0, 57, 80
2, 372224, Note_off_c, 0, 60, 80
2, 372224, Note_on_c, 0, 60, 95
2, 372224, Note_on_c, 0, 52, 95
2, 372224, Note_on_c, 0, 48, 95
2, 373248, Note_off_c, 0, 48, 80
2, 373248, Note_off_c, 0, 52, 80
2, 373248, Note_off_c, 0, 60, 80
2, 373248, Note_on_c, 0, 60, 95
2, 373248, Note_on_c, 0, 52, 95
2, 373248, Note_on_c, 0, 48, 95
2, 374272, Note_off_c, 0, 48, 80
2, 374272, Note_off_c, 0, 52, 80
2, 374272, Note_off_c, 0, 60, 80
2, 374272, Note_on_c, 0, 60, 95
2, 374272, Note_on_c, 0, 53, 95
2, 374272, Note_on_c, 0, 49, 95
2, 375296, Note_off_c, 0, 49, 80
2, 375296, Note_off_c, 0, 53, 80
2, 375296, Note_off_c, 0, 60, 80
2, 375296, Note_on_c, 0, 60, 95
2, 375296, Note_on_c, 0, 53, 95
2, 375296, Note_on_c, 0, 49, 95
2, 376320, Note_off_c, 0, 49, 80
2, 376320, Note_off_c, 0, 53, 80
2, 376320, Note_off_c, 0, 60, 80
2, 376320, Note_on_c, 0, 60, 95
2, 376320, Note_on_c, 0, 55, 95
2, 376320, Note_on_c, 0, 51, 95
2, 377344, Note_off_c, 0, 55, 80
2, 377344, Note_on_c, 0, 55, 95
2, 378368, Note_off_c, 0, 55, 80
2, 378368, Note_off_c, 0, 51, 80
2, 378368, Note_on_c, 0, 55, 95
2, 378368, Note_on_c, 0, 48, 95
2, 379392, Note_off_c, 0, 60, 80
2, 380416, Note_off_c, 0, 48, 80
2, 380416, Note_off_c, 0, 55, 80
2, 380416, Note_on_c, 0, 41, 95
2, 380928, Note_off_c, 0, 41, 80
2, 380928, Note_on_c, 0, 60, 95
2, 380928, Note_on_c, 0, 57, 95
2, 380928, Note_on_c, 0, 53, 95
2, 382464, Note_off_c, 0, 53, 80
2, 382464, Note_off_c, 0, 57, 80
2, 382464, Note_off_c, 0, 60, 80
2, 382464, Note_on_c, 0, 60, 95
2, 382464, Note_on_c, 0, 52, 95
2, 382464, Note_on_c, 0, 48, 95
2, 383488, Note_off_c, 0, 48, 80
2, 383488, Note_off_c, 0, 52, 80
2, 383488, Note_off_c, 0, 60, 80
2, 383488, Note_on_c, 0, 60, 95
2, 383488, Note_on_c, 0, 52, 95
2, 383488, Note_on_c, 0, 48, 95
2, 384512, Note_off_c, 0, 48, 80
2, 384512, Note_off_c, 0, 52, 80
2, 384512, Note_off_c, 0, 60, 80
2, 384512, Note_on_c, 0, 60, 95
2, 384512, Note_on_c, 0, 53, 95
2, 384512, Note_on_c, 0, 49, 95
2, 385536, Note_off_c, 0, 49, 80
2, 385536, Note_off_c, 0, 53, 80
2, 385536, Note_off_c, 0, 60, 80
2, 385536, Note_on_c, 0, 60, 95
2, 385536, Note_on_c, 0, 53, 95
2, 385536, Note_on_c, 0, 49, 95
2, 386560, Note_off_c, 0, 49, 80
2, 386560, Note_off_c, 0, 53, 80
2, 386560, Note_off_c, 0, 60, 80
2, 386560, Note_on_c, 0, 60, 95
2, 386560, Note_on_c, 0, 55, 95
2, 386560, Note_on_c, 0, 51, 95
2, 387584, Note_off_c, 0, 51, 80
2, 387584, Note_off_c, 0, 55, 80
2, 387584, Note_off_c, 0, 60, 80
2, 387584, Note_on_c, 0, 60, 95
2, 387584, Note_on_c, 0, 55, 95
2, 387584, Note_on_c, 0, 51, 95
2, 390144, Note_off_c, 0, 51, 80
2, 390144, Note_off_c, 0, 55, 80
2, 390144, Note_off_c, 0, 60, 80
2, 390144, Note_on_c, 0, 41, 95
2, 391168, Note_off_c, 0, 41, 80
2, 391168, Note_on_c, 0, 60, 95
2, 391168, Note_on_c, 0, 57, 95
2, 391168, Note_on_c, 0, 53, 95
2, 392704, Note_off_c, 0, 53, 80
2, 392704, Note_off_c, 0, 57, 80
2, 392704, Note_off_c, 0, 60, 80
2, 392704, Note_on_c, 0, 60, 95
2, 392704, Note_on_c, 0, 52, 95
2, 392704, Note_on_c, 0, 48, 95
2, 393728, Note_off_c, 0, 48, 80
2, 393728, Note_off_c, 0, 52, 80
2, 393728, Note_off_c, 0, 60, 80
2, 393728, Note_on_c, 0, 60, 95
2, 393728, Note_on_c, 0, 52, 95
2, 393728, Note_on_c, 0, 48, 95
2, 394752, Note_off_c, 0, 48, 80
2, 394752, Note_off_c, 0, 52, 80
2, 394752, Note_off_c, 0, 60, 80
2, 394752, Note_on_c, 0, 60, 95
2, 394752, Note_on_c, 0, 53, 95
2, 394752, Note_on_c, 0, 49, 95
2, 395776, Note_off_c, 0, 49, 80
2, 395776, Note_off_c, 0, 53, 80
2, 395776, Note_off_c, 0, 60, 80
2, 395776, Note_on_c, 0, 60, 95
2, 395776, Note_on_c, 0, 53, 95
2, 395776, Note_on_c, 0, 49, 95
2, 396800, Note_off_c, 0, 49, 80
2, 396800, Note_off_c, 0, 53, 80
2, 396800, Note_off_c, 0, 60, 80
2, 396800, Note_on_c, 0, 60, 95
2, 396800, Note_on_c, 0, 55, 95
2, 396800, Note_on_c, 0, 51, 95
2, 397824, Note_off_c, 0, 51, 80
2, 397824, Note_off_c, 0, 55, 80
2, 397824, Note_off_c, 0, 60, 80
2, 397824, Note_on_c, 0, 60, 95
2, 397824, Note_on_c, 0, 55, 95
2, 397824, Note_on_c, 0, 51, 95
2, 400384, Note_off_c, 0, 51, 80
2, 400384, Note_off_c, 0, 55, 80
2, 400384, Note_off_c, 0, 60, 80
2, 400384, Note_on_c, 0, 41, 95
2, 401408, Note_off_c, 0, 41, 80
2, 401408, Note_on_c, 0, 60, 95
2, 401408, Note_on_c, 0, 57, 95
2, 401408, Note_on_c, 0, 53, 95
2, 402944, Note_off_c, 0, 53, 80
2, 402944, Note_off_c, 0, 57, 80
2, 402944, Note_off_c, 0, 60, 80
2, 402944, Note_on_c, 0, 60, 95
2, 402944, Note_on_c, 0, 52, 95
2, 402944, Note_on_c, 0, 48, 95
2, 403968, Note_off_c, 0, 48, 80
2, 403968, Note_off_c, 0, 52, 80
2, 403968, Note_off_c, 0, 60, 80
2, 403968, Note_on_c, 0, 60, 95
2, 403968, Note_on_c, 0, 52, 95
2, 403968, Note_on_c, 0, 48, 95
2, 404992, Note_off_c, 0, 48, 80
2, 404992, Note_off_c, 0, 52, 80
2, 404992, Note_off_c, 0, 60, 80
2, 404992, Note_on_c, 0, 60, 95
2, 404992, Note_on_c, 0, 53, 95
2, 404992, Note_on_c, 0, 49, 95
2, 406016, Note_off_c, 0, 49, 80
2, 406016, Note_off_c, 0, 53, 80
2, 406016, Note_off_c, 0, 60, 80
2, 406016, Note_on_c, 0, 60, 95
2, 406016, Note_on_c, 0, 53, 95
2, 406016, Note_on_c, 0, 49, 95
2, 407040, Note_off_c, 0, 49, 80
2, 407040, Note_off_c, 0, 53, 80
2, 407040, Note_off_c, 0, 60, 80
2, 407040, Note_on_c, 0, 60, 95
2, 407040, Note_on_c, 0, 55, 95
2, 407040, Note_on_c, 0, 51, 95
2, 408064, Note_off_c, 0, 51, 80
2, 408064, Note_off_c, 0, 55, 80
2, 408064, Note_off_c, 0, 60, 80
2, 408064, Note_on_c, 0, 60, 95
2, 408064, Note_on_c, 0, 55, 95
2, 408064, Note_on_c, 0, 51, 95
2, 411136, Note_off_c, 0, 51, 80
2, 411136, Note_off_c, 0, 55, 80
2, 411136, Note_off_c, 0, 60, 80
2, 411136, Note_on_c, 0, 41, 95
2, 411648, Note_off_c, 0, 41, 80
2, 411648, Note_on_c, 0, 60, 95
2, 411648, Note_on_c, 0, 57, 95
2, 411648, Note_on_c, 0, 53, 95
2, 413184, Note_off_c, 0, 53, 80
2, 413184, Note_off_c, 0, 57, 80
2, 413184, Note_off_c, 0, 60, 80
2, 413184, Note_on_c, 0, 60, 95
2, 413184, Note_on_c, 0, 52, 95
2, 413184, Note_on_c, 0, 48, 95
2, 414208, Note_off_c, 0, 48, 80
2, 414208, Note_off_c, 0, 52, 80
2, 414208, Note_off_c, 0, 60, 80
2, 414208, Note_on_c, 0, 60, 95
2, 414208, Note_on_c, 0, 52, 95
2, 414208, Note_on_c, 0, 48, 95
2, 415232, Note_off_c, 0, 48, 80
2, 415232, Note_off_c, 0, 52, 80
2, 415232, Note_off_c, 0, 60, 80
2, 415232, Note_on_c, 0, 60, 95
2, 415232, Note_on_c, 0, 53, 95
2, 415232, Note_on_c, 0, 49, 95
2, 416256, Note_off_c, 0, 49, 80
2, 416256, Note_off_c, 0, 53, 80
2, 416256, Note_off_c, 0, 60, 80
2, 416256, Note_on_c, 0, 60, 95
2, 416256, Note_on_c, 0, 53, 95
2, 416256, Note_on_c, 0, 49, 95
2, 417280, Note_off_c, 0, 49, 80
2, 417280, Note_off_c, 0, 53, 80
2, 417280, Note_off_c, 0, 60, 80
2, 417280, Note_on_c, 0, 60, 95
2, 417280, Note_on_c, 0, 55, 95
2, 417280, Note_on_c, 0, 51, 95
2, 418304, Note_off_c, 0, 51, 80
2, 418304, Note_off_c, 0, 55, 80
2, 418304, Note_off_c, 0, 60, 80
2, 418304, Note_on_c, 0, 60, 95
2, 418304, Note_on_c, 0, 55, 95
2, 418304, Note_on_c, 0, 51, 95
2, 421376, Note_off_c, 0, 51, 80
2, 421376, Note_off_c, 0, 55, 80
2, 421376, Note_off_c, 0, 60, 80
2, 421376, Note_on_c, 0, 41, 95
2, 421888, Note_off_c, 0, 41, 80
2, 421888, Note_on_c, 0, 60, 95
2, 421888, Note_on_c, 0, 57, 95
2, 421888, Note_on_c, 0, 53, 95
2, 423424, Note_off_c, 0, 53, 80
2, 423424, Note_off_c, 0, 57, 80
2, 423424, Note_off_c, 0, 60, 80
2, 423424, Note_on_c, 0, 60, 95
2, 423424, Note_on_c, 0, 52, 95
2, 423424, Note_on_c, 0, 48, 95
2, 424448, Note_off_c, 0, 48, 80
2, 424448, Note_off_c, 0, 52, 80
2, 424448, Note_off_c, 0, 60, 80
2, 424448, Note_on_c, 0, 60, 95
2, 424448, Note_on_c, 0, 52, 95
2, 424448, Note_on_c, 0, 48, 95
2, 425472, Note_off_c, 0, 48, 80
2, 425472, Note_off_c, 0, 52, 80
2, 425472, Note_off_c, 0, 60, 80
2, 425472, Note_on_c, 0, 60, 95
2, 425472, Note_on_c, 0, 53, 95
2, 425472, Note_on_c, 0, 49, 95
2, 426496, Note_off_c, 0, 49, 80
2, 426496, Note_off_c, 0, 53, 80
2, 426496, Note_off_c, 0, 60, 80
2, 426496, Note_on_c, 0, 60, 95
2, 426496, Note_on_c, 0, 53, 95
2, 426496, Note_on_c, 0, 49, 95
2, 427520, Note_off_c, 0, 49, 80
2, 427520, Note_off_c, 0, 53, 80
2, 427520, Note_off_c, 0, 60, 80
2, 427520, Note_on_c, 0, 60, 95
2, 427520, Note_on_c, 0, 55, 95
2, 427520, Note_on_c, 0, 51, 95
2, 428544, Note_off_c, 0, 51, 80
2, 428544, Note_off_c, 0, 55, 80
2, 428544, Note_off_c, 0, 60, 80
2, 428544, Note_on_c, 0, 60, 95
2, 428544, Note_on_c, 0, 55, 95
2, 428544, Note_on_c, 0, 51, 95
2, 431104, Note_off_c, 0, 51, 80
2, 431104, Note_off_c, 0, 55, 80
2, 431104, Note_off_c, 0, 60, 80
2, 431104, Note_on_c, 0, 41, 95
2, 432128, Note_off_c, 0, 41, 80
2, 432128, Note_on_c, 0, 60, 95
2, 432128, Note_on_c, 0, 57, 95
2, 432128, Note_on_c, 0, 53, 95
2, 433664, Note_off_c, 0, 53, 80
2, 433664, Note_off_c, 0, 57, 80
2, 433664, Note_off_c, 0, 60, 80
2, 433664, Note_on_c, 0, 60, 95
2, 433664, Note_on_c, 0, 52, 95
2, 433664, Note_on_c, 0, 48, 95
2, 434688, Note_off_c, 0, 48, 80
2, 434688, Note_off_c, 0, 52, 80
2, 434688, Note_off_c, 0, 60, 80
2, 434688, Note_on_c, 0, 60, 95
2, 434688, Note_on_c, 0, 52, 95
2, 434688, Note_on_c, 0, 48, 95
2, 435712, Note_off_c, 0, 48, 80
2, 435712, Note_off_c, 0, 52, 80
2, 435712, Note_off_c, 0, 60, 80
2, 435712, Note_on_c, 0, 60, 95
2, 435712, Note_on_c, 0, 53, 95
2, 435712, Note_on_c, 0, 49, 95
2, 436736, Note_off_c, 0, 49, 80
2, 436736, Note_off_c, 0, 53, 80
2, 436736, Note_off_c, 0, 60, 80
2, 436736, Note_on_c, 0, 60, 95
2, 436736, Note_on_c, 0, 53, 95
2, 436736, Note_on_c, 0, 49, 95
2, 437760, Note_off_c, 0, 49, 80
2, 437760, Note_off_c, 0, 53, 80
2, 437760, Note_off_c, 0, 60, 80
2, 437760, Note_on_c, 0, 60, 95
2, 437760, Note_on_c, 0, 55, 95
2, 437760, Note_on_c, 0, 51, 95
2, 438784, Note_off_c, 0, 51, 80
2, 438784, Note_off_c, 0, 55, 80
2, 438784, Note_off_c, 0, 60, 80
2, 438784, Note_on_c, 0, 60, 95
2, 438784, Note_on_c, 0, 55, 95
2, 438784, Note_on_c, 0, 51, 95
2, 441344, Note_off_c, 0, 51, 80
2, 441344, Note_off_c, 0, 55, 80
2, 441344, Note_off_c, 0, 60, 80
2, 441344, Note_on_c, 0, 41, 95
2, 441856, Note_off_c, 0, 41, 80
2, 441856, Note_on_c, 0, 41, 95
2, 442368, Note_off_c, 0, 41, 80
2, 442368, Note_on_c, 0, 60, 95
2, 442368, Note_on_c, 0, 57, 95
2, 442368, Note_on_c, 0, 53, 95
2, 443904, Note_off_c, 0, 53, 80
2, 443904, Note_off_c, 0, 57, 80
2, 443904, Note_off_c, 0, 60, 80
2, 443904, Note_on_c, 0, 60, 95
2, 443904, Note_on_c, 0, 52, 95
2, 443904, Note_on_c, 0, 48, 95
2, 444928, Note_off_c, 0, 48, 80
2, 444928, Note_off_c, 0, 52, 80
2, 444928, Note_off_c, 0, 60, 80
2, 444928, Note_on_c, 0, 60, 95
2, 444928, Note_on_c, 0, 52, 95
2, 444928, Note_on_c, 0, 48, 95
2, 445952, Note_off_c, 0, 48, 80
2, 445952, Note_off_c, 0, 52, 80
2, 445952, Note_off_c, 0, 60, 80
2, 445952, Note_on_c, 0, 60, 95
2, 445952, Note_on_c, 0, 53, 95
2, 445952, Note_on_c, 0, 49, 95
2, 446976, Note_off_c, 0, 49, 80
2, 446976, Note_off_c, 0, 53, 80
2, 446976, Note_off_c, 0, 60, 80
2, 446976, Note_on_c, 0, 60, 95
2, 446976, Note_on_c, 0, 53, 95
2, 446976, Note_on_c, 0, 49, 95
2, 448000, Note_off_c, 0, 49, 80
2, 448000, Note_off_c, 0, 53, 80
2, 448000, Note_off_c, 0, 60, 80
2, 448000, Note_on_c, 0, 60, 95
2, 448000, Note_on_c, 0, 55, 95
2, 448000, Note_on_c, 0, 51, 95
2, 449024, Note_off_c, 0, 51, 80
2, 449024, Note_off_c, 0, 55, 80
2, 449024, Note_off_c, 0, 60, 80
2, 449024, Note_on_c, 0, 60, 95
2, 449024, Note_on_c, 0, 55, 95
2, 449024, Note_on_c, 0, 51, 95
2, 452096, Note_off_c, 0, 51, 80
2, 452096, Note_off_c, 0, 55, 80
2, 452096, Note_off_c, 0, 60, 80
2, 452096, Note_on_c, 0, 41, 95
2, 452608, Note_off_c, 0, 41, 80
2, 452608, Note_on_c, 0, 60, 95
2, 452608, Note_on_c, 0, 57, 95
2, 452608, Note_on_c, 0, 53, 95
2, 454144, Note_off_c, 0, 53, 80
2, 454144, Note_off_c, 0, 57, 80
2, 454144, Note_off_c, 0, 60, 80
2, 454144, Note_on_c, 0, 60, 95
2, 454144, Note_on_c, 0, 52, 95
2, 454144, Note_on_c, 0, 48, 95
2, 455168, Note_off_c, 0, 48, 80
2, 455168, Note_off_c, 0, 52, 80
2, 455168, Note_off_c, 0, 60, 80
2, 455168, Note_on_c, 0, 60, 95
2, 455168, Note_on_c, 0, 52, 95
2, 455168, Note_on_c, 0, 48, 95
2, 456192, Note_off_c, 0, 48, 80
2, 456192, Note_off_c, 0, 52, 80
2, 456192, Note_off_c, 0, 60, 80
2, 456192, Note_on_c, 0, 60, 95
2, 456192, Note_on_c, 0, 53, 95
2, 456192, Note_on_c, 0, 49, 95
2, 457216, Note_off_c, 0, 49, 80
2, 457216, Note_off_c, 0, 53, 80
2, 457216, Note_off_c, 0, 60, 80
2, 457216, Note_on_c, 0, 60, 95
2, 457216, Note_on_c, 0, 53, 95
2, 457216, Note_on_c, 0, 49, 95
2, 458240, Note_off_c, 0, 49, 80
2, 458240, Note_off_c, 0, 53, 80
2, 458240, Note_off_c, 0, 60, 80
2, 458240, Note_on_c, 0, 60, 95
2, 458240, Note_on_c, 0, 55, 95
2, 458240, Note_on_c, 0, 51, 95
2, 459264, Note_off_c, 0, 51, 80
2, 459264, Note_off_c, 0, 55, 80
2, 459264, Note_off_c, 0, 60, 80
2, 459264, Note_on_c, 0, 60, 95
2, 459264, Note_on_c, 0, 55, 95
2, 459264, Note_on_c, 0, 51, 95
2, 460288, Note_off_c, 0, 51, 80
2, 460288, Note_on_c, 0, 48, 95
2, 461312, Note_off_c, 0, 55, 80
2, 461312, Note_off_c, 0, 60, 80
2, 462336, Note_off_c, 0, 48, 80
2, 462336, Note_on_c, 0, 41, 95
2, 462848, Note_off_c, 0, 41, 80
2, 462848, Note_on_c, 0, 60, 95
2, 462848, Note_on_c, 0, 57, 95
2, 462848, Note_on_c, 0, 53, 95
2, 464384, Note_off_c, 0, 53, 80
2, 464384, Note_off_c, 0, 57, 80
2, 464384, Note_off_c, 0, 60, 80
2, 464384, Note_on_c, 0, 60, 95
2, 464384, Note_on_c, 0, 52, 95
2, 464384, Note_on_c, 0, 48, 95
2, 465408, Note_off_c, 0, 48, 80
2, 465408, Note_off_c, 0, 52, 80
2, 465408, Note_off_c, 0, 60, 80
2, 465408, Note_on_c, 0, 60, 95
2, 465408, Note_on_c, 0, 52, 95
2, 465408, Note_on_c, 0, 48, 95
2, 466432, Note_off_c, 0, 48, 80
2, 466432, Note_off_c, 0, 52, 80
2, 466432, Note_off_c, 0, 60, 80
2, 466432, Note_on_c, 0, 60, 95
2, 466432, Note_on_c, 0, 53, 95
2, 466432, Note_on_c, 0, 49, 95
2, 467456, Note_off_c, 0, 49, 80
2, 467456, Note_off_c, 0, 53, 80
2, 467456, Note_off_c, 0, 60, 80
2, 467456, Note_on_c, 0, 60, 95
2, 467456, Note_on_c, 0, 53, 95
2, 467456, Note_on_c, 0, 49, 95
2, 468480, Note_off_c, 0, 49, 80
2, 468480, Note_off_c, 0, 53, 80
2, 468480, Note_off_c, 0, 60, 80
2, 468480, Note_on_c, 0, 60, 95
2, 468480, Note_on_c, 0, 55, 95
2, 468480, Note_on_c, 0, 51, 95
2, 469504, Note_off_c, 0, 51, 80
2, 469504, Note_off_c, 0, 55, 80
2, 469504, Note_off_c, 0, 60, 80
2, 469504, Note_on_c, 0, 60, 95
2, 469504, Note_on_c, 0, 55, 95
2, 469504, Note_on_c, 0, 51, 95
2, 470528, Note_off_c, 0, 51, 80
2, 470528, Note_off_c, 0, 55, 80
2, 470528, Note_off_c, 0, 60, 80
2, 470528, Note_on_c, 0, 60, 95
2, 470528, Note_on_c, 0, 55, 95
2, 470528, Note_on_c, 0, 48, 95
2, 472064, Note_off_c, 0, 48, 80
2, 472064, Note_off_c, 0, 55, 80
2, 472064, Note_off_c, 0, 60, 80
2, 472064, Note_on_c, 0, 41, 95
2, 473088, Note_off_c, 0, 41, 80
2, 473088, Note_on_c, 0, 60, 95
2, 473088, Note_on_c, 0, 57, 95
2, 473088, Note_on_c, 0, 53, 95
2, 474624, Note_off_c, 0, 53, 80
2, 474624, Note_off_c, 0, 57, 80
2, 474624, Note_off_c, 0, 60, 80
2, 474624, Note_on_c, 0, 60, 95
2, 474624, Note_on_c, 0, 52, 95
2, 474624, Note_on_c, 0, 48, 95
2, 475648, Note_off_c, 0, 48, 80
2, 475648, Note_off_c, 0, 52, 80
2, 475648, Note_off_c, 0, 60, 80
2, 475648, Note_on_c, 0, 60, 95
2, 475648, Note_on_c, 0, 52, 95
2, 475648, Note_on_c, 0, 48, 95
2, 476672, Note_off_c, 0, 48, 80
2, 476672, Note_off_c, 0, 52, 80
2, 476672, Note_off_c, 0, 60, 80
2, 476672, Note_on_c, 0, 60, 95
2, 476672, Note_on_c, 0, 53, 95
2, 476672, Note_on_c, 0, 49, 95
2, 477696, Note_off_c, 0, 49, 80
2, 477696, Note_off_c, 0, 53, 80
2, 477696, Note_off_c, 0, 60, 80
2, 477696, Note_on_c, 0, 60, 95
2, 477696, Note_on_c, 0, 53, 95
2, 477696, Note_on_c, 0, 49, 95
2, 478720, Note_off_c, 0, 49, 80
2, 478720, Note_off_c, 0, 53, 80
2, 478720, Note_off_c, 0, 60, 80
2, 478720, Note_on_c, 0, 60, 95
2, 478720, Note_on_c, 0, 55, 95
2, 478720, Note_on_c, 0, 51, 95
2, 479744, Note_off_c, 0, 51, 80
2, 479744, Note_off_c, 0, 55, 80
2, 479744, Note_off_c, 0, 60, 80
2, 479744, Note_on_c, 0, 60, 95
2, 479744, Note_on_c, 0, 55, 95
2, 479744, Note_on_c, 0, 51, 95
2, 480768, Note_off_c, 0, 51, 80
2, 480768, Note_on_c, 0, 48, 95
2, 481792, Note_off_c, 0, 55, 80
2, 481792, Note_off_c, 0, 60, 80
2, 482816, Note_off_c, 0, 48, 80
2, 482816, Note_on_c, 0, 41, 95
2, 483328, Note_off_c, 0, 41, 80
2, 483328, Note_on_c, 0, 60, 95
2, 483328, Note_on_c, 0, 57, 95
2, 483328, Note_on_c, 0, 53, 95
2, 484864, Note_off_c, 0, 53, 80
2, 484864, Note_off_c, 0, 57, 80
2, 484864, Note_off_c, 0, 60, 80
2, 484864, Note_on_c, 0, 60, 95
2, 484864, Note_on_c, 0, 52, 95
2, 484864, Note_on_c, 0, 48, 95
2, 485888, Note_off_c, 0, 48, 80
2, 485888, Note_off_c, 0, 52, 80
2, 485888, Note_off_c, 0, 60, 80
2, 485888, Note_on_c, 0, 60, 95
2, 485888, Note_on_c, 0, 52, 95
2, 485888, Note_on_c, 0, 48, 95
2, 486912, Note_off_c, 0, 48, 80
2, 486912, Note_off_c, 0, 52, 80
2, 486912, Note_off_c, 0, 60, 80
2, 486912, Note_on_c, 0, 60, 95
2, 486912, Note_on_c, 0, 53, 95
2, 486912, Note_on_c, 0, 49, 95
2, 487936, Note_off_c, 0, 49, 80
2, 487936, Note_off_c, 0, 53, 80
2, 487936, Note_off_c, 0, 60, 80
2, 487936, Note_on_c, 0, 60, 95
2, 487936, Note_on_c, 0, 53, 95
2, 487936, Note_on_c, 0, 49, 95
2, 488960, Note_off_c, 0, 49, 80
2, 488960, Note_off_c, 0, 53, 80
2, 488960, Note_off_c, 0, 60, 80
2, 488960, Note_on_c, 0, 60, 95
2, 488960, Note_on_c, 0, 55, 95
2, 488960, Note_on_c, 0, 51, 95
2, 489984, Note_off_c, 0, 51, 80
2, 489984, Note_off_c, 0, 55, 80
2, 489984, Note_off_c, 0, 60, 80
2, 489984, Note_on_c, 0, 60, 95
2, 489984, Note_on_c, 0, 55, 95
2, 489984, Note_on_c, 0, 51, 95
2, 491008, Note_off_c, 0, 51, 80
2, 491008, Note_on_c, 0, 48, 95
2, 492032, Note_off_c, 0, 55, 80
2, 492032, Note_off_c, 0, 60, 80
2, 493056, Note_off_c, 0, 48, 80
2, 493056, Note_on_c, 0, 41, 95
2, 493568, Note_off_c, 0, 41, 80
2, 493568, Note_on_c, 0, 60, 95
2, 493568, Note_on_c, 0, 57, 95
2, 493568, Note_on_c, 0, 53, 95
2, 495104, Note_off_c, 0, 53, 80
2, 495104, Note_off_c, 0, 57, 80
2, 495104, Note_off_c, 0, 60, 80
2, 495104, Note_on_c, 0, 60, 95
2, 495104, Note_on_c, 0, 52, 95
2, 495104, Note_on_c, 0, 48, 95
2, 496128, Note_off_c, 0, 48, 80
2, 496128, Note_off_c, 0, 52, 80
2, 496128, Note_off_c, 0, 60, 80
2, 496128, Note_on_c, 0, 60, 95
2, 496128, Note_on_c, 0, 52, 95
2, 496128, Note_on_c, 0, 48, 95
2, 497152, Note_off_c, 0, 48, 80
2, 497152, Note_off_c, 0, 52, 80
2, 497152, Note_off_c, 0, 60, 80
2, 497152, Note_on_c, 0, 60, 95
2, 497152, Note_on_c, 0, 53, 95
2, 497152, Note_on_c, 0, 49, 95
2, 498176, Note_off_c, 0, 49, 80
2, 498176, Note_off_c, 0, 53, 80
2, 498176, Note_off_c, 0, 60, 80
2, 498176, Note_on_c, 0, 60, 95
2, 498176, Note_on_c, 0, 53, 95
2, 498176, Note_on_c, 0, 49, 95
2, 499200, Note_off_c, 0, 49, 80
2, 499200, Note_off_c, 0, 53, 80
2, 499200, Note_off_c, 0, 60, 80
2, 499200, Note_on_c, 0, 60, 95
2, 499200, Note_on_c, 0, 55, 95
2, 499200, Note_on_c, 0, 51, 95
2, 500224, Note_off_c, 0, 51, 80
2, 500224, Note_off_c, 0, 55, 80
2, 500224, Note_off_c, 0, 60, 80
2, 500224, Note_on_c, 0, 60, 95
2, 500224, Note_on_c, 0, 55, 95
2, 500224, Note_on_c, 0, 51, 95
2, 501248, Note_off_c, 0, 51, 80
2, 501248, Note_on_c, 0, 48, 95
2, 502272, Note_off_c, 0, 55, 80
2, 502272, Note_off_c, 0, 60, 80
2, 502784, Note_off_c, 0, 48, 80
2, 502784, Note_on_c, 0, 41, 95
2, 503808, Note_off_c, 0, 41, 80
2, 503808, Note_on_c, 0, 60, 95
2, 503808, Note_on_c, 0, 57, 95
2, 503808, Note_on_c, 0, 53, 95
2, 505344, Note_off_c, 0, 53, 80
2, 505344, Note_off_c, 0, 57, 80
2, 505344, Note_off_c, 0, 60, 80
2, 505344, Note_on_c, 0, 60, 95
2, 505344, Note_on_c, 0, 52, 95
2, 505344, Note_on_c, 0, 48, 95
2, 506368, Note_off_c, 0, 48, 80
2, 506368, Note_off_c, 0, 52, 80
2, 506368, Note_off_c, 0, 60, 80
2, 506368, Note_on_c, 0, 60, 95
2, 506368, Note_on_c, 0, 52, 95
2, 506368, Note_on_c, 0, 48, 95
2, 507392, Note_off_c, 0, 48, 80
2, 507392, Note_off_c, 0, 52, 80
2, 507392, Note_off_c, 0, 60, 80
2, 507392, Note_on_c, 0, 60, 95
2, 507392, Note_on_c, 0, 53, 95
2, 507392, Note_on_c, 0, 49, 95
2, 508416, Note_off_c, 0, 49, 80
2, 508416, Note_off_c, 0, 53, 80
2, 508416, Note_off_c, 0, 60, 80
2, 508416, Note_on_c, 0, 60, 95
2, 508416, Note_on_c, 0, 53, 95
2, 508416, Note_on_c, 0, 49, 95
2, 509440, Note_off_c, 0, 49, 80
2, 509440, Note_off_c, 0, 53, 80
2, 509440, Note_off_c, 0, 60, 80
2, 509440, Note_on_c, 0, 60, 95
2, 509440, Note_on_c, 0, 55, 95
2, 509440, Note_on_c, 0, 51, 95
2, 510464, Note_off_c, 0, 51, 80
2, 510464, Note_off_c, 0, 55, 80
2, 510464, Note_off_c, 0, 60, 80
2, 510464, Note_on_c, 0, 60, 95
2, 510464, Note_on_c, 0, 55, 95
2, 510464, Note_on_c, 0, 51, 95
2, 511488, Note_off_c, 0, 51, 80
2, 511488, Note_on_c, 0, 48, 95
2, 512512, Note_off_c, 0, 55, 80
2, 512512, Note_off_c, 0, 60, 80
2, 513024, Note_off_c, 0, 48, 80
2, 513024, Note_on_c, 0, 41, 95
2, 514048, Note_off_c, 0, 41, 80
2, 514048, Note_on_c, 0, 60, 95
2, 514048, Note_on_c, 0, 57, 95
2, 514048, Note_on_c, 0, 53, 95
2, 518144, Note_off_c, 0, 53, 80
2, 518144, Note_off_c, 0, 57, 80
2, 518144, Note_off_c, 0, 60, 80
2, 518144, End_track
3, 0, Start_track
3, 0, Sequencer_specific, 5, 5, 15, 9, 0, 64
3, 0, Sequencer_specific, 15, 5, 15, 6, 71, 101, 110, 101, 114, 97, 108, 32, 77, 73, 68, 73
3, 0, Title_t, "From the Album ""Kid A"" 2000"
3, 0, Program_c, 1, 97
3, 512, Pitch_bend_c, 1, 8192
3, 512, Control_c, 1, 7, 96
3, 512, Control_c, 1, 10, 96
3, 512, Control_c, 1, 93, 0
3, 512, Control_c, 1, 91, 0
3, 512, Control_c, 1, 92, 0
3, 512, Control_c, 1, 95, 0
3, 480768, Note_on_c, 1, 60, 95
3, 480896, Note_on_c, 1, 65, 95
3, 481152, Note_on_c, 1, 67, 95
3, 481280, Note_on_c, 1, 69, 95
3, 481408, Note_on_c, 1, 72, 95
3, 482816, Note_off_c, 1, 60, 80
3, 482944, Note_off_c, 1, 65, 80
3, 483200, Note_off_c, 1, 67, 80
3, 483328, Note_off_c, 1, 72, 80
3, 483328, Note_off_c, 1, 69, 80
3, 483328, End_track
4, 0, Start_track
4, 0, Sequencer_specific, 5, 5, 15, 9, 64, 72
4, 0, Sequencer_specific, 15, 5, 15, 6, 71, 101, 110, 101, 114, 97, 108, 32, 77, 73, 68, 73
4, 0, Title_t, "Remixed by Estrada 21st February 2011"
4, 0, Control_c, 2, 7, 97
4, 0, Program_c, 2, 94
4, 768, Pitch_bend_c, 2, 8192
4, 768, Control_c, 2, 10, 40
4, 768, Control_c, 2, 93, 0
4, 768, Control_c, 2, 91, 0
4, 768, Control_c, 2, 92, 0
4, 768, Control_c, 2, 95, 0
4, 237568, Note_on_c, 2, 60, 95
4, 237568, Note_on_c, 2, 52, 95
4, 237568, Note_on_c, 2, 48, 95
4, 239104, Note_off_c, 2, 48, 80
4, 239104, Note_off_c, 2, 52, 80
4, 239104, Note_off_c, 2, 60, 80
4, 239104, Note_on_c, 2, 60, 95
4, 239104, Note_on_c, 2, 52, 95
4, 239104, Note_on_c, 2, 48, 95
4, 240128, Note_off_c, 2, 48, 80
4, 240128, Note_off_c, 2, 52, 80
4, 240128, Note_off_c, 2, 60, 80
4, 240128, Note_on_c, 2, 60, 95
4, 240128, Note_on_c, 2, 52, 95
4, 240128, Note_on_c, 2, 48, 95
4, 241152, Note_off_c, 2, 48, 80
4, 241152, Note_off_c, 2, 52, 80
4, 241152, Note_off_c, 2, 60, 80
4, 241152, Note_on_c, 2, 60, 95
4, 241152, Note_on_c, 2, 53, 95
4, 241152, Note_on_c, 2, 49, 95
4, 242176, Note_off_c, 2, 49, 80
4, 242176, Note_off_c, 2, 53, 80
4, 242176, Note_off_c, 2, 60, 80
4, 242176, Note_on_c, 2, 60, 95
4, 242176, Note_on_c, 2, 53, 95
4, 242176, Note_on_c, 2, 49, 95
4, 243200, Note_off_c, 2, 49, 80
4, 243200, Note_off_c, 2, 53, 80
4, 243200, Note_off_c, 2, 60, 80
4, 243200, Note_on_c, 2, 60, 95
4, 243200, Note_on_c, 2, 55, 95
4, 243200, Note_on_c, 2, 51, 95
4, 244224, Note_off_c, 2, 51, 80
4, 244224, Note_off_c, 2, 55, 80
4, 244224, Note_off_c, 2, 60, 80
4, 244224, Note_on_c, 2, 60, 95
4, 244224, Note_on_c, 2, 55, 95
4, 244224, Note_on_c, 2, 51, 95
4, 245248, Note_off_c, 2, 55, 80
4, 245248, Note_on_c, 2, 55, 95
4, 245760, Note_off_c, 2, 60, 80
4, 245760, Note_on_c, 2, 60, 95
4, 246272, Note_off_c, 2, 55, 80
4, 246272, Note_off_c, 2, 51, 80
4, 246272, Note_on_c, 2, 56, 95
4, 246784, Note_off_c, 2, 56, 80
4, 246784, Note_on_c, 2, 55, 95
4, 247296, Note_on_c, 2, 48, 95
4, 247808, Note_off_c, 2, 48, 80
4, 247808, Note_off_c, 2, 55, 80
4, 247808, Note_off_c, 2, 60, 80
4, 247808, Note_on_c, 2, 60, 95
4, 247808, Note_on_c, 2, 52, 95
4, 247808, Note_on_c, 2, 48, 95
4, 249344, Note_off_c, 2, 48, 80
4, 249344, Note_off_c, 2, 52, 80
4, 249344, Note_off_c, 2, 60, 80
4, 249344, Note_on_c, 2, 60, 95
4, 249344, Note_on_c, 2, 52, 95
4, 249344, Note_on_c, 2, 48, 95
4, 250368, Note_off_c, 2, 48, 80
4, 250368, Note_off_c, 2, 52, 80
4, 250368, Note_off_c, 2, 60, 80
4, 250368, Note_on_c, 2, 60, 95
4, 250368, Note_on_c, 2, 52, 95
4, 250368, Note_on_c, 2, 48, 95
4, 251392, Note_off_c, 2, 48, 80
4, 251392, Note_off_c, 2, 52, 80
4, 251392, Note_off_c, 2, 60, 80
4, 251392, Note_on_c, 2, 60, 95
4, 251392, Note_on_c, 2, 53, 95
4, 251392, Note_on_c, 2, 49, 95
4, 252416, Note_off_c, 2, 49, 80
4, 252416, Note_off_c, 2, 53, 80
4, 252416, Note_off_c, 2, 60, 80
4, 252416, Note_on_c, 2, 60, 95
4, 252416, Note_on_c, 2, 53, 95
4, 252416, Note_on_c, 2, 49, 95
4, 253440, Note_off_c, 2, 49, 80
4, 253440, Note_off_c, 2, 53, 80
4, 253440, Note_off_c, 2, 60, 80
4, 253440, Note_on_c, 2, 60, 95
4, 253440, Note_on_c, 2, 55, 95
4, 253440, Note_on_c, 2, 51, 95
4, 254464, Note_off_c, 2, 51, 80
4, 254464, Note_off_c, 2, 55, 80
4, 254464, Note_off_c, 2, 60, 80
4, 254464, Note_on_c, 2, 60, 95
4, 254464, Note_on_c, 2, 55, 95
4, 254464, Note_on_c, 2, 51, 95
4, 255488, Note_off_c, 2, 55, 80
4, 255488, Note_on_c, 2, 55, 95
4, 256000, Note_off_c, 2, 60, 80
4, 256000, Note_on_c, 2, 60, 95
4, 256512, Note_off_c, 2, 55, 80
4, 256512, Note_off_c, 2, 51, 80
4, 256512, Note_on_c, 2, 56, 95
4, 257024, Note_off_c, 2, 56, 80
4, 257024, Note_on_c, 2, 55, 95
4, 257536, Note_on_c, 2, 48, 95
4, 258048, Note_off_c, 2, 48, 80
4, 258048, Note_off_c, 2, 55, 80
4, 258048, Note_off_c, 2, 60, 80
4, 258048, Note_on_c, 2, 60, 95
4, 258048, Note_on_c, 2, 52, 95
4, 258048, Note_on_c, 2, 48, 95
4, 259584, Note_off_c, 2, 48, 80
4, 259584, Note_off_c, 2, 52, 80
4, 259584, Note_off_c, 2, 60, 80
4, 259584, Note_on_c, 2, 60, 95
4, 259584, Note_on_c, 2, 52, 95
4, 259584, Note_on_c, 2, 48, 95
4, 260608, Note_off_c, 2, 48, 80
4, 260608, Note_off_c, 2, 52, 80
4, 260608, Note_off_c, 2, 60, 80
4, 260608, Note_on_c, 2, 60, 95
4, 260608, Note_on_c, 2, 52, 95
4, 260608, Note_on_c, 2, 48, 95
4, 261632, Note_off_c, 2, 48, 80
4, 261632, Note_off_c, 2, 52, 80
4, 261632, Note_off_c, 2, 60, 80
4, 261632, Note_on_c, 2, 60, 95
4, 261632, Note_on_c, 2, 53, 95
4, 261632, Note_on_c, 2, 49, 95
4, 262656, Note_off_c, 2, 49, 80
4, 262656, Note_off_c, 2, 53, 80
4, 262656, Note_off_c, 2, 60, 80
4, 262656, Note_on_c, 2, 60, 95
4, 262656, Note_on_c, 2, 53, 95
4, 262656, Note_on_c, 2, 49, 95
4, 263680, Note_off_c, 2, 49, 80
4, 263680, Note_off_c, 2, 53, 80
4, 263680, Note_off_c, 2, 60, 80
4, 263680, Note_on_c, 2, 60, 95
4, 263680, Note_on_c, 2, 55, 95
4, 263680, Note_on_c, 2, 51, 95
4, 264704, Note_off_c, 2, 51, 80
4, 264704, Note_off_c, 2, 55, 80
4, 264704, Note_off_c, 2, 60, 80
4, 264704, Note_on_c, 2, 60, 95
4, 264704, Note_on_c, 2, 55, 95
4, 264704, Note_on_c, 2, 51, 95
4, 265728, Note_off_c, 2, 55, 80
4, 265728, Note_on_c, 2, 55, 95
4, 266240, Note_off_c, 2, 60, 80
4, 266240, Note_on_c, 2, 60, 95
4, 266752, Note_off_c, 2, 55, 80
4, 266752, Note_off_c, 2, 51, 80
4, 266752, Note_on_c, 2, 56, 95
4, 267264, Note_off_c, 2, 56, 80
4, 267264, Note_on_c, 2, 55, 95
4, 267776, Note_on_c, 2, 48, 95
4, 268288, Note_off_c, 2, 48, 80
4, 268288, Note_off_c, 2, 55, 80
4, 268288, Note_off_c, 2, 60, 80
4, 268288, Note_on_c, 2, 60, 95
4, 268288, Note_on_c, 2, 52, 95
4, 268288, Note_on_c, 2, 48, 95
4, 269824, Note_off_c, 2, 48, 80
4, 269824, Note_off_c, 2, 52, 80
4, 269824, Note_off_c, 2, 60, 80
4, 269824, Note_on_c, 2, 60, 95
4, 269824, Note_on_c, 2, 52, 95
4, 269824, Note_on_c, 2, 48, 95
4, 270848, Note_off_c, 2, 48, 80
4, 270848, Note_off_c, 2, 52, 80
4, 270848, Note_off_c, 2, 60, 80
4, 270848, Note_on_c, 2, 60, 95
4, 270848, Note_on_c, 2, 52, 95
4, 270848, Note_on_c, 2, 48, 95
4, 271872, Note_off_c, 2, 48, 80
4, 271872, Note_off_c, 2, 52, 80
4, 271872, Note_off_c, 2, 60, 80
4, 271872, Note_on_c, 2, 60, 95
4, 271872, Note_on_c, 2, 53, 95
4, 271872, Note_on_c, 2, 49, 95
4, 272896, Note_off_c, 2, 49, 80
4, 272896, Note_off_c, 2, 53, 80
4, 272896, Note_off_c, 2, 60, 80
4, 272896, Note_on_c, 2, 60, 95
4, 272896, Note_on_c, 2, 53, 95
4, 272896, Note_on_c, 2, 49, 95
4, 273920, Note_off_c, 2, 49, 80
4, 273920, Note_off_c, 2, 53, 80
4, 273920, Note_off_c, 2, 60, 80
4, 273920, Note_on_c, 2, 60, 95
4, 273920, Note_on_c, 2, 55, 95
4, 273920, Note_on_c, 2, 51, 95
4, 274944, Note_off_c, 2, 51, 80
4, 274944, Note_off_c, 2, 55, 80
4, 274944, Note_off_c, 2, 60, 80
4, 274944, Note_on_c, 2, 60, 95
4, 274944, Note_on_c, 2, 55, 95
4, 274944, Note_on_c, 2, 51, 95
4, 275968, Note_off_c, 2, 55, 80
4, 275968, Note_on_c, 2, 55, 95
4, 276480, Note_off_c, 2, 60, 80
4, 276480, Note_on_c, 2, 60, 95
4, 276992, Note_off_c, 2, 55, 80
4, 276992, Note_off_c, 2, 51, 80
4, 276992, Note_on_c, 2, 58, 95
4, 277504, Note_off_c, 2, 60, 80
4, 277504, Note_on_c, 2, 60, 95
4, 278016, Note_off_c, 2, 60, 80
4, 278016, Note_off_c, 2, 58, 80
4, 278016, Note_on_c, 2, 58, 95
4, 278528, Note_off_c, 2, 58, 80
4, 278528, Note_on_c, 2, 60, 95
4, 278528, Note_on_c, 2, 53, 95
4, 278528, Note_on_c, 2, 49, 95
4, 280064, Note_off_c, 2, 49, 80
4, 280064, Note_off_c, 2, 53, 80
4, 280064, Note_off_c, 2, 60, 80
4, 280064, Note_on_c, 2, 60, 95
4, 280064, Note_on_c, 2, 53, 95
4, 280064, Note_on_c, 2, 49, 95
4, 281088, Note_off_c, 2, 49, 80
4, 281088, Note_off_c, 2, 53, 80
4, 281088, Note_off_c, 2, 60, 80
4, 281088, Note_on_c, 2, 60, 95
4, 281088, Note_on_c, 2, 53, 95
4, 281088, Note_on_c, 2, 49, 95
4, 282112, Note_off_c, 2, 49, 80
4, 282112, Note_off_c, 2, 53, 80
4, 282112, Note_off_c, 2, 60, 80
4, 282112, Note_on_c, 2, 60, 95
4, 282112, Note_on_c, 2, 53, 95
4, 282112, Note_on_c, 2, 49, 95
4, 283136, Note_off_c, 2, 49, 80
4, 283136, Note_off_c, 2, 53, 80
4, 283136, Note_off_c, 2, 60, 80
4, 283136, Note_on_c, 2, 60, 95
4, 283136, Note_on_c, 2, 52, 95
4, 283136, Note_on_c, 2, 48, 95
4, 284160, Note_off_c, 2, 48, 80
4, 284160, Note_off_c, 2, 52, 80
4, 284160, Note_off_c, 2, 60, 80
4, 284160, Note_on_c, 2, 60, 95
4, 284160, Note_on_c, 2, 52, 95
4, 284160, Note_on_c, 2, 48, 95
4, 285184, Note_off_c, 2, 48, 80
4, 285184, Note_off_c, 2, 52, 80
4, 285184, Note_off_c, 2, 60, 80
4, 285184, Note_on_c, 2, 55, 95
4, 285184, Note_on_c, 2, 60, 95
4, 285184, Note_on_c, 2, 58, 95
4, 285184, Note_on_c, 2, 51, 95
4, 286208, Note_off_c, 2, 51, 80
4, 286208, Note_off_c, 2, 58, 80
4, 286208, Note_off_c, 2, 60, 80
4, 286208, Note_off_c, 2, 55, 80
4, 286208, Note_on_c, 2, 55, 95
4, 286208, Note_on_c, 2, 60, 95
4, 286208, Note_on_c, 2, 58, 95
4, 286208, Note_on_c, 2, 51, 95
4, 287232, Note_off_c, 2, 51, 80
4, 287232, Note_off_c, 2, 58, 80
4, 287232, Note_off_c, 2, 60, 80
4, 287232, Note_off_c, 2, 55, 80
4, 287232, Note_on_c, 2, 60, 95
4, 287232, Note_on_c, 2, 56, 95
4, 287232, Note_on_c, 2, 53, 95
4, 287232, Note_on_c, 2, 49, 95
4, 288768, Note_off_c, 2, 49, 80
4, 288768, Note_off_c, 2, 53, 80
4, 288768, Note_off_c, 2, 56, 80
4, 288768, Note_off_c, 2, 60, 80
4, 288768, Note_on_c, 2, 60, 95
4, 288768, Note_on_c, 2, 53, 95
4, 288768, Note_on_c, 2, 49, 95
4, 290304, Note_off_c, 2, 49, 80
4, 290304, Note_off_c, 2, 53, 80
4, 290304, Note_off_c, 2, 60, 80
4, 290304, Note_on_c, 2, 60, 95
4, 290304, Note_on_c, 2, 53, 95
4, 290304, Note_on_c, 2, 49, 95
4, 291328, Note_off_c, 2, 49, 80
4, 291328, Note_off_c, 2, 53, 80
4, 291328, Note_off_c, 2, 60, 80
4, 291328, Note_on_c, 2, 60, 95
4, 291328, Note_on_c, 2, 53, 95
4, 291328, Note_on_c, 2, 49, 95
4, 292352, Note_off_c, 2, 49, 80
4, 292352, Note_off_c, 2, 53, 80
4, 292352, Note_off_c, 2, 60, 80
4, 292352, Note_on_c, 2, 60, 95
4, 292352, Note_on_c, 2, 53, 95
4, 292352, Note_on_c, 2, 49, 95
4, 293376, Note_off_c, 2, 49, 80
4, 293376, Note_off_c, 2, 53, 80
4, 293376, Note_off_c, 2, 60, 80
4, 293376, Note_on_c, 2, 60, 95
4, 293376, Note_on_c, 2, 52, 95
4, 293376, Note_on_c, 2, 48, 95
4, 294400, Note_off_c, 2, 48, 80
4, 294400, Note_off_c, 2, 52, 80
4, 294400, Note_off_c, 2, 60, 80
4, 294400, Note_on_c, 2, 60, 95
4, 294400, Note_on_c, 2, 52, 95
4, 294400, Note_on_c, 2, 48, 95
4, 295424, Note_off_c, 2, 48, 80
4, 295424, Note_off_c, 2, 52, 80
4, 295424, Note_off_c, 2, 60, 80
4, 295424, Note_on_c, 2, 55, 95
4, 295424, Note_on_c, 2, 60, 95
4, 295424, Note_on_c, 2, 58, 95
4, 295424, Note_on_c, 2, 51, 95
4, 296448, Note_off_c, 2, 51, 80
4, 296448, Note_off_c, 2, 58, 80
4, 296448, Note_off_c, 2, 60, 80
4, 296448, Note_off_c, 2, 55, 80
4, 296448, Note_on_c, 2, 55, 95
4, 296448, Note_on_c, 2, 60, 95
4, 296448, Note_on_c, 2, 58, 95
4, 296448, Note_on_c, 2, 51, 95
4, 297472, Note_off_c, 2, 51, 80
4, 297472, Note_off_c, 2, 58, 80
4, 297472, Note_off_c, 2, 60, 80
4, 297472, Note_off_c, 2, 55, 80
4, 297472, Note_on_c, 2, 60, 95
4, 297472, Note_on_c, 2, 56, 95
4, 297472, Note_on_c, 2, 53, 95
4, 297472, Note_on_c, 2, 49, 95
4, 299008, Note_off_c, 2, 49, 80
4, 299008, Note_off_c, 2, 53, 80
4, 299008, Note_off_c, 2, 56, 80
4, 299008, Note_off_c, 2, 60, 80
4, 299008, Note_on_c, 2, 60, 95
4, 299008, Note_on_c, 2, 53, 95
4, 299008, Note_on_c, 2, 49, 95
4, 300544, Note_off_c, 2, 49, 80
4, 300544, Note_off_c, 2, 53, 80
4, 300544, Note_off_c, 2, 60, 80
4, 300544, Note_on_c, 2, 60, 95
4, 300544, Note_on_c, 2, 53, 95
4, 300544, Note_on_c, 2, 49, 95
4, 301568, Note_off_c, 2, 49, 80
4, 301568, Note_off_c, 2, 53, 80
4, 301568, Note_off_c, 2, 60, 80
4, 301568, Note_on_c, 2, 60, 95
4, 301568, Note_on_c, 2, 53, 95
4, 301568, Note_on_c, 2, 49, 95
4, 302592, Note_off_c, 2, 49, 80
4, 302592, Note_off_c, 2, 53, 80
4, 302592, Note_off_c, 2, 60, 80
4, 302592, Note_on_c, 2, 60, 95
4, 302592, Note_on_c, 2, 53, 95
4, 302592, Note_on_c, 2, 49, 95
4, 303616, Note_off_c, 2, 49, 80
4, 303616, Note_off_c, 2, 53, 80
4, 303616, Note_off_c, 2, 60, 80
4, 303616, Note_on_c, 2, 60, 95
4, 303616, Note_on_c, 2, 52, 95
4, 303616, Note_on_c, 2, 48, 95
4, 304640, Note_off_c, 2, 48, 80
4, 304640, Note_off_c, 2, 52, 80
4, 304640, Note_off_c, 2, 60, 80
4, 304640, Note_on_c, 2, 60, 95
4, 304640, Note_on_c, 2, 52, 95
4, 304640, Note_on_c, 2, 48, 95
4, 305664, Note_off_c, 2, 48, 80
4, 305664, Note_off_c, 2, 52, 80
4, 305664, Note_off_c, 2, 60, 80
4, 305664, Note_on_c, 2, 55, 95
4, 305664, Note_on_c, 2, 60, 95
4, 305664, Note_on_c, 2, 58, 95
4, 305664, Note_on_c, 2, 51, 95
4, 306688, Note_off_c, 2, 51, 80
4, 306688, Note_off_c, 2, 58, 80
4, 306688, Note_off_c, 2, 60, 80
4, 306688, Note_off_c, 2, 55, 80
4, 306688, Note_on_c, 2, 55, 95
4, 306688, Note_on_c, 2, 60, 95
4, 306688, Note_on_c, 2, 58, 95
4, 306688, Note_on_c, 2, 51, 95
4, 307712, Note_off_c, 2, 51, 80
4, 307712, Note_off_c, 2, 58, 80
4, 307712, Note_off_c, 2, 60, 80
4, 307712, Note_off_c, 2, 55, 80
4, 307712, Note_on_c, 2, 60, 95
4, 307712, Note_on_c, 2, 56, 95
4, 307712, Note_on_c, 2, 53, 95
4, 307712, Note_on_c, 2, 49, 95
4, 309248, Note_off_c, 2, 49, 80
4, 309248, Note_off_c, 2, 53, 80
4, 309248, Note_off_c, 2, 56, 80
4, 309248, Note_off_c, 2, 60, 80
4, 309248, Note_on_c, 2, 60, 95
4, 309248, Note_on_c, 2, 53, 95
4, 309248, Note_on_c, 2, 49, 95
4, 310784, Note_off_c, 2, 49, 80
4, 310784, Note_off_c, 2, 53, 80
4, 310784, Note_off_c, 2, 60, 80
4, 310784, Note_on_c, 2, 60, 95
4, 310784, Note_on_c, 2, 53, 95
4, 310784, Note_on_c, 2, 49, 95
4, 311808, Note_off_c, 2, 49, 80
4, 311808, Note_off_c, 2, 53, 80
4, 311808, Note_off_c, 2, 60, 80
4, 311808, Note_on_c, 2, 60, 95
4, 311808, Note_on_c, 2, 53, 95
4, 311808, Note_on_c, 2, 49, 95
4, 312832, Note_off_c, 2, 49, 80
4, 312832, Note_off_c, 2, 53, 80
4, 312832, Note_off_c, 2, 60, 80
4, 312832, Note_on_c, 2, 60, 95
4, 312832, Note_on_c, 2, 53, 95
4, 312832, Note_on_c, 2, 49, 95
4, 313856, Note_off_c, 2, 49, 80
4, 313856, Note_off_c, 2, 53, 80
4, 313856, Note_off_c, 2, 60, 80
4, 313856, Note_on_c, 2, 60, 95
4, 313856, Note_on_c, 2, 52, 95
4, 313856, Note_on_c, 2, 48, 95
4, 314880, Note_off_c, 2, 48, 80
4, 314880, Note_off_c, 2, 52, 80
4, 314880, Note_off_c, 2, 60, 80
4, 314880, Note_on_c, 2, 60, 95
4, 314880, Note_on_c, 2, 52, 95
4, 314880, Note_on_c, 2, 48, 95
4, 315904, Note_off_c, 2, 48, 80
4, 315904, Note_off_c, 2, 52, 80
4, 315904, Note_off_c, 2, 60, 80
4, 315904, Note_on_c, 2, 55, 95
4, 315904, Note_on_c, 2, 60, 95
4, 315904, Note_on_c, 2, 58, 95
4, 315904, Note_on_c, 2, 51, 95
4, 316928, Note_off_c, 2, 51, 80
4, 316928, Note_off_c, 2, 58, 80
4, 316928, Note_off_c, 2, 60, 80
4, 316928, Note_off_c, 2, 55, 80
4, 316928, Note_on_c, 2, 55, 95
4, 316928, Note_on_c, 2, 60, 95
4, 316928, Note_on_c, 2, 58, 95
4, 316928, Note_on_c, 2, 51, 95
4, 317952, Note_off_c, 2, 51, 80
4, 317952, Note_off_c, 2, 58, 80
4, 317952, Note_off_c, 2, 60, 80
4, 317952, Note_off_c, 2, 55, 80
4, 317952, Note_on_c, 2, 60, 95
4, 317952, Note_on_c, 2, 56, 95
4, 317952, Note_on_c, 2, 53, 95
4, 317952, Note_on_c, 2, 49, 95
4, 319488, Note_off_c, 2, 49, 80
4, 319488, Note_off_c, 2, 53, 80
4, 319488, Note_off_c, 2, 56, 80
4, 319488, Note_off_c, 2, 60, 80
4, 319488, Note_on_c, 2, 60, 95
4, 319488, Note_on_c, 2, 53, 95
4, 319488, Note_on_c, 2, 49, 95
4, 321024, Note_off_c, 2, 49, 80
4, 321024, Note_off_c, 2, 53, 80
4, 321024, Note_off_c, 2, 60, 80
4, 321024, Note_on_c, 2, 60, 95
4, 321024, Note_on_c, 2, 53, 95
4, 321024, Note_on_c, 2, 49, 95
4, 322048, Note_off_c, 2, 49, 80
4, 322048, Note_off_c, 2, 53, 80
4, 322048, Note_off_c, 2, 60, 80
4, 322048, Note_on_c, 2, 60, 95
4, 322048, Note_on_c, 2, 53, 95
4, 322048, Note_on_c, 2, 49, 95
4, 323072, Note_off_c, 2, 49, 80
4, 323072, Note_off_c, 2, 53, 80
4, 323072, Note_off_c, 2, 60, 80
4, 323072, Note_on_c, 2, 60, 95
4, 323072, Note_on_c, 2, 53, 95
4, 323072, Note_on_c, 2, 49, 95
4, 324096, Note_off_c, 2, 49, 80
4, 324096, Note_off_c, 2, 53, 80
4, 324096, Note_off_c, 2, 60, 80
4, 324096, Note_on_c, 2, 60, 95
4, 324096, Note_on_c, 2, 52, 95
4, 324096, Note_on_c, 2, 48, 95
4, 325120, Note_off_c, 2, 48, 80
4, 325120, Note_off_c, 2, 52, 80
4, 325120, Note_off_c, 2, 60, 80
4, 325120, Note_on_c, 2, 60, 95
4, 325120, Note_on_c, 2, 52, 95
4, 325120, Note_on_c, 2, 48, 95
4, 326144, Note_off_c, 2, 48, 80
4, 326144, Note_off_c, 2, 52, 80
4, 326144, Note_off_c, 2, 60, 80
4, 326144, Note_on_c, 2, 55, 95
4, 326144, Note_on_c, 2, 60, 95
4, 326144, Note_on_c, 2, 58, 95
4, 326144, Note_on_c, 2, 51, 95
4, 327168, Note_off_c, 2, 51, 80
4, 327168, Note_off_c, 2, 58, 80
4, 327168, Note_off_c, 2, 60, 80
4, 327168, Note_off_c, 2, 55, 80
4, 327168, Note_on_c, 2, 55, 95
4, 327168, Note_on_c, 2, 60, 95
4, 327168, Note_on_c, 2, 58, 95
4, 327168, Note_on_c, 2, 51, 95
4, 328192, Note_off_c, 2, 51, 80
4, 328192, Note_off_c, 2, 58, 80
4, 328192, Note_off_c, 2, 60, 80
4, 328192, Note_off_c, 2, 55, 80
4, 328192, Note_on_c, 2, 60, 95
4, 328192, Note_on_c, 2, 56, 95
4, 328192, Note_on_c, 2, 53, 95
4, 328192, Note_on_c, 2, 49, 95
4, 329728, Note_off_c, 2, 49, 80
4, 329728, Note_off_c, 2, 53, 80
4, 329728, Note_off_c, 2, 56, 80
4, 329728, Note_off_c, 2, 60, 80
4, 329728, Note_on_c, 2, 60, 95
4, 329728, Note_on_c, 2, 53, 95
4, 329728, Note_on_c, 2, 49, 95
4, 331264, Note_off_c, 2, 49, 80
4, 331264, Note_off_c, 2, 53, 80
4, 331264, Note_off_c, 2, 60, 80
4, 331264, Note_on_c, 2, 60, 95
4, 331264, Note_on_c, 2, 53, 95
4, 331264, Note_on_c, 2, 49, 95
4, 332288, Note_off_c, 2, 49, 80
4, 332288, Note_off_c, 2, 53, 80
4, 332288, Note_off_c, 2, 60, 80
4, 332288, Note_on_c, 2, 60, 95
4, 332288, Note_on_c, 2, 53, 95
4, 332288, Note_on_c, 2, 49, 95
4, 333312, Note_off_c, 2, 49, 80
4, 333312, Note_off_c, 2, 53, 80
4, 333312, Note_off_c, 2, 60, 80
4, 333312, Note_on_c, 2, 60, 95
4, 333312, Note_on_c, 2, 53, 95
4, 333312, Note_on_c, 2, 49, 95
4, 334336, Note_off_c, 2, 49, 80
4, 334336, Note_off_c, 2, 53, 80
4, 334336, Note_off_c, 2, 60, 80
4, 334336, Note_on_c, 2, 60, 95
4, 334336, Note_on_c, 2, 52, 95
4, 334336, Note_on_c, 2, 48, 95
4, 335360, Note_off_c, 2, 48, 80
4, 335360, Note_off_c, 2, 52, 80
4, 335360, Note_off_c, 2, 60, 80
4, 335360, Note_on_c, 2, 60, 95
4, 335360, Note_on_c, 2, 52, 95
4, 335360, Note_on_c, 2, 48, 95
4, 336384, Note_off_c, 2, 48, 80
4, 336384, Note_off_c, 2, 52, 80
4, 336384, Note_off_c, 2, 60, 80
4, 336384, Note_on_c, 2, 55, 95
4, 336384, Note_on_c, 2, 60, 95
4, 336384, Note_on_c, 2, 58, 95
4, 336384, Note_on_c, 2, 51, 95
4, 337408, Note_off_c, 2, 51, 80
4, 337408, Note_off_c, 2, 58, 80
4, 337408, Note_off_c, 2, 60, 80
4, 337408, Note_off_c, 2, 55, 80
4, 337408, Note_on_c, 2, 55, 95
4, 337408, Note_on_c, 2, 60, 95
4, 337408, Note_on_c, 2, 58, 95
4, 337408, Note_on_c, 2, 51, 95
4, 338432, Note_off_c, 2, 51, 80
4, 338432, Note_off_c, 2, 58, 80
4, 338432, Note_off_c, 2, 60, 80
4, 338432, Note_off_c, 2, 55, 80
4, 338432, Note_on_c, 2, 60, 95
4, 338432, Note_on_c, 2, 56, 95
4, 338432, Note_on_c, 2, 53, 95
4, 338432, Note_on_c, 2, 49, 95
4, 339968, Note_off_c, 2, 49, 80
4, 339968, Note_off_c, 2, 53, 80
4, 339968, Note_off_c, 2, 56, 80
4, 339968, Note_off_c, 2, 60, 80
4, 339968, Note_on_c, 2, 60, 95
4, 339968, Note_on_c, 2, 53, 95
4, 339968, Note_on_c, 2, 49, 95
4, 341504, Note_off_c, 2, 49, 80
4, 341504, Note_off_c, 2, 53, 80
4, 341504, Note_off_c, 2, 60, 80
4, 341504, Note_on_c, 2, 60, 95
4, 341504, Note_on_c, 2, 53, 95
4, 341504, Note_on_c, 2, 49, 95
4, 342528, Note_off_c, 2, 49, 80
4, 342528, Note_off_c, 2, 53, 80
4, 342528, Note_off_c, 2, 60, 80
4, 342528, Note_on_c, 2, 60, 95
4, 342528, Note_on_c, 2, 53, 95
4, 342528, Note_on_c, 2, 49, 95
4, 343552, Note_off_c, 2, 49, 80
4, 343552, Note_off_c, 2, 53, 80
4, 343552, Note_off_c, 2, 60, 80
4, 343552, Note_on_c, 2, 60, 95
4, 343552, Note_on_c, 2, 53, 95
4, 343552, Note_on_c, 2, 49, 95
4, 344576, Note_off_c, 2, 49, 80
4, 344576, Note_off_c, 2, 53, 80
4, 344576, Note_off_c, 2, 60, 80
4, 344576, Note_on_c, 2, 60, 95
4, 344576, Note_on_c, 2, 52, 95
4, 344576, Note_on_c, 2, 48, 95
4, 345600, Note_off_c, 2, 48, 80
4, 345600, Note_off_c, 2, 52, 80
4, 345600, Note_off_c, 2, 60, 80
4, 345600, Note_on_c, 2, 60, 95
4, 345600, Note_on_c, 2, 52, 95
4, 345600, Note_on_c, 2, 48, 95
4, 346624, Note_off_c, 2, 48, 80
4, 346624, Note_off_c, 2, 52, 80
4, 346624, Note_off_c, 2, 60, 80
4, 346624, Note_on_c, 2, 55, 95
4, 346624, Note_on_c, 2, 60, 95
4, 346624, Note_on_c, 2, 58, 95
4, 346624, Note_on_c, 2, 51, 95
4, 347648, Note_off_c, 2, 51, 80
4, 347648, Note_off_c, 2, 58, 80
4, 347648, Note_off_c, 2, 60, 80
4, 347648, Note_off_c, 2, 55, 80
4, 347648, Note_on_c, 2, 55, 95
4, 347648, Note_on_c, 2, 60, 95
4, 347648, Note_on_c, 2, 58, 95
4, 347648, Note_on_c, 2, 51, 95
4, 348672, Note_off_c, 2, 51, 80
4, 348672, Note_off_c, 2, 58, 80
4, 348672, Note_off_c, 2, 60, 80
4, 348672, Note_off_c, 2, 55, 80
4, 348672, Note_on_c, 2, 60, 95
4, 348672, Note_on_c, 2, 56, 95
4, 348672, Note_on_c, 2, 53, 95
4, 348672, Note_on_c, 2, 49, 95
4, 350208, Note_off_c, 2, 49, 80
4, 350208, Note_off_c, 2, 53, 80
4, 350208, Note_off_c, 2, 56, 80
4, 350208, Note_off_c, 2, 60, 80
4, 350208, Note_on_c, 2, 60, 95
4, 350208, Note_on_c, 2, 53, 95
4, 350208, Note_on_c, 2, 49, 95
4, 351744, Note_off_c, 2, 49, 80
4, 351744, Note_off_c, 2, 53, 80
4, 351744, Note_off_c, 2, 60, 80
4, 351744, Note_on_c, 2, 60, 95
4, 351744, Note_on_c, 2, 53, 95
4, 351744, Note_on_c, 2, 49, 95
4, 352768, Note_off_c, 2, 49, 80
4, 352768, Note_off_c, 2, 53, 80
4, 352768, Note_off_c, 2, 60, 80
4, 352768, Note_on_c, 2, 60, 95
4, 352768, Note_on_c, 2, 53, 95
4, 352768, Note_on_c, 2, 49, 95
4, 353792, Note_off_c, 2, 49, 80
4, 353792, Note_off_c, 2, 53, 80
4, 353792, Note_off_c, 2, 60, 80
4, 353792, Note_on_c, 2, 60, 95
4, 353792, Note_on_c, 2, 53, 95
4, 353792, Note_on_c, 2, 49, 95
4, 354816, Note_off_c, 2, 49, 80
4, 354816, Note_off_c, 2, 53, 80
4, 354816, Note_off_c, 2, 60, 80
4, 354816, Note_on_c, 2, 60, 95
4, 354816, Note_on_c, 2, 52, 95
4, 354816, Note_on_c, 2, 48, 95
4, 355840, Note_off_c, 2, 48, 80
4, 355840, Note_off_c, 2, 52, 80
4, 355840, Note_off_c, 2, 60, 80
4, 355840, Note_on_c, 2, 60, 95
4, 355840, Note_on_c, 2, 52, 95
4, 355840, Note_on_c, 2, 48, 95
4, 356864, Note_off_c, 2, 48, 80
4, 356864, Note_off_c, 2, 52, 80
4, 356864, Note_off_c, 2, 60, 80
4, 356864, Note_on_c, 2, 55, 95
4, 356864, Note_on_c, 2, 60, 95
4, 356864, Note_on_c, 2, 58, 95
4, 356864, Note_on_c, 2, 51, 95
4, 357888, Note_off_c, 2, 51, 80
4, 357888, Note_off_c, 2, 58, 80
4, 357888, Note_off_c, 2, 60, 80
4, 357888, Note_off_c, 2, 55, 80
4, 357888, Note_on_c, 2, 55, 95
4, 357888, Note_on_c, 2, 60, 95
4, 357888, Note_on_c, 2, 58, 95
4, 357888, Note_on_c, 2, 51, 95
4, 358912, Note_off_c, 2, 51, 80
4, 358912, Note_off_c, 2, 58, 80
4, 358912, Note_off_c, 2, 60, 80
4, 358912, Note_off_c, 2, 55, 80
4, 358912, Note_on_c, 2, 60, 95
4, 358912, Note_on_c, 2, 57, 95
4, 358912, Note_on_c, 2, 53, 95
4, 360448, Note_off_c, 2, 53, 80
4, 360448, Note_off_c, 2, 57, 80
4, 360448, Note_off_c, 2, 60, 80
4, 360448, Note_on_c, 2, 60, 95
4, 360448, Note_on_c, 2, 57, 95
4, 360448, Note_on_c, 2, 53, 95
4, 361984, Note_off_c, 2, 53, 80
4, 361984, Note_off_c, 2, 57, 80
4, 361984, Note_off_c, 2, 60, 80
4, 361984, Note_on_c, 2, 60, 95
4, 361984, Note_on_c, 2, 52, 95
4, 361984, Note_on_c, 2, 48, 95
4, 363008, Note_off_c, 2, 48, 80
4, 363008, Note_off_c, 2, 52, 80
4, 363008, Note_off_c, 2, 60, 80
4, 363008, Note_on_c, 2, 60, 95
4, 363008, Note_on_c, 2, 52, 95
4, 363008, Note_on_c, 2, 48, 95
4, 364032, Note_off_c, 2, 48, 80
4, 364032, Note_off_c, 2, 52, 80
4, 364032, Note_off_c, 2, 60, 80
4, 364032, Note_on_c, 2, 60, 95
4, 364032, Note_on_c, 2, 53, 95
4, 364032, Note_on_c, 2, 49, 95
4, 365056, Note_off_c, 2, 49, 80
4, 365056, Note_off_c, 2, 53, 80
4, 365056, Note_off_c, 2, 60, 80
4, 365056, Note_on_c, 2, 60, 95
4, 365056, Note_on_c, 2, 53, 95
4, 365056, Note_on_c, 2, 49, 95
4, 366080, Note_off_c, 2, 49, 80
4, 366080, Note_off_c, 2, 53, 80
4, 366080, Note_off_c, 2, 60, 80
4, 366080, Note_on_c, 2, 60, 95
4, 366080, Note_on_c, 2, 55, 95
4, 366080, Note_on_c, 2, 51, 95
4, 367104, Note_off_c, 2, 51, 80
4, 367104, Note_off_c, 2, 55, 80
4, 367104, Note_off_c, 2, 60, 80
4, 367104, Note_on_c, 2, 60, 95
4, 367104, Note_on_c, 2, 55, 95
4, 367104, Note_on_c, 2, 51, 95
4, 368128, Note_off_c, 2, 55, 80
4, 368128, Note_on_c, 2, 55, 95
4, 369152, Note_off_c, 2, 51, 80
4, 369152, Note_off_c, 2, 60, 80
4, 370176, Note_off_c, 2, 55, 80
4, 370176, Note_on_c, 2, 41, 95
4, 370688, Note_off_c, 2, 41, 80
4, 370688, Note_on_c, 2, 60, 95
4, 370688, Note_on_c, 2, 57, 95
4, 370688, Note_on_c, 2, 53, 95
4, 372224, Note_off_c, 2, 53, 80
4, 372224, Note_off_c, 2, 57, 80
4, 372224, Note_off_c, 2, 60, 80
4, 372224, Note_on_c, 2, 60, 95
4, 372224, Note_on_c, 2, 52, 95
4, 372224, Note_on_c, 2, 48, 95
4, 373248, Note_off_c, 2, 48, 80
4, 373248, Note_off_c, 2, 52, 80
4, 373248, Note_off_c, 2, 60, 80
4, 373248, Note_on_c, 2, 60, 95
4, 373248, Note_on_c, 2, 52, 95
4, 373248, Note_on_c, 2, 48, 95
4, 374272, Note_off_c, 2, 48, 80
4, 374272, Note_off_c, 2, 52, 80
4, 374272, Note_off_c, 2, 60, 80
4, 374272, Note_on_c, 2, 60, 95
4, 374272, Note_on_c, 2, 53, 95
4, 374272, Note_on_c, 2, 49, 95
4, 375296, Note_off_c, 2, 49, 80
4, 375296, Note_off_c, 2, 53, 80
4, 375296, Note_off_c, 2, 60, 80
4, 375296, Note_on_c, 2, 60, 95
4, 375296, Note_on_c, 2, 53, 95
4, 375296, Note_on_c, 2, 49, 95
4, 376320, Note_off_c, 2, 49, 80
4, 376320, Note_off_c, 2, 53, 80
4, 376320, Note_off_c, 2, 60, 80
4, 376320, Note_on_c, 2, 60, 95
4, 376320, Note_on_c, 2, 55, 95
4, 376320, Note_on_c, 2, 51, 95
4, 377344, Note_off_c, 2, 55, 80
4, 377344, Note_on_c, 2, 55, 95
4, 378368, Note_off_c, 2, 55, 80
4, 378368, Note_off_c, 2, 51, 80
4, 378368, Note_on_c, 2, 55, 95
4, 378368, Note_on_c, 2, 48, 95
4, 379392, Note_off_c, 2, 60, 80
4, 380416, Note_off_c, 2, 48, 80
4, 380416, Note_off_c, 2, 55, 80
4, 380416, Note_on_c, 2, 41, 95
4, 380928, Note_off_c, 2, 41, 80
4, 380928, Note_on_c, 2, 60, 95
4, 380928, Note_on_c, 2, 57, 95
4, 380928, Note_on_c, 2, 53, 95
4, 382464, Note_off_c, 2, 53, 80
4, 382464, Note_off_c, 2, 57, 80
4, 382464, Note_off_c, 2, 60, 80
4, 382464, Note_on_c, 2, 60, 95
4, 382464, Note_on_c, 2, 52, 95
4, 382464, Note_on_c, 2, 48, 95
4, 383488, Note_off_c, 2, 48, 80
4, 383488, Note_off_c, 2, 52, 80
4, 383488, Note_off_c, 2, 60, 80
4, 383488, Note_on_c, 2, 60, 95
4, 383488, Note_on_c, 2, 52, 95
4, 383488, Note_on_c, 2, 48, 95
4, 384512, Note_off_c, 2, 48, 80
4, 384512, Note_off_c, 2, 52, 80
4, 384512, Note_off_c, 2, 60, 80
4, 384512, Note_on_c, 2, 60, 95
4, 384512, Note_on_c, 2, 53, 95
4, 384512, Note_on_c, 2, 49, 95
4, 385536, Note_off_c, 2, 49, 80
4, 385536, Note_off_c, 2, 53, 80
4, 385536, Note_off_c, 2, 60, 80
4, 385536, Note_on_c, 2, 60, 95
4, 385536, Note_on_c, 2, 53, 95
4, 385536, Note_on_c, 2, 49, 95
4, 386560, Note_off_c, 2, 49, 80
4, 386560, Note_off_c, 2, 53, 80
4, 386560, Note_off_c, 2, 60, 80
4, 386560, Note_on_c, 2, 60, 95
4, 386560, Note_on_c, 2, 55, 95
4, 386560, Note_on_c, 2, 51, 95
4, 387584, Note_off_c, 2, 51, 80
4, 387584, Note_off_c, 2, 55, 80
4, 387584, Note_off_c, 2, 60, 80
4, 387584, Note_on_c, 2, 60, 95
4, 387584, Note_on_c, 2, 55, 95
4, 387584, Note_on_c, 2, 51, 95
4, 390144, Note_off_c, 2, 51, 80
4, 390144, Note_off_c, 2, 55, 80
4, 390144, Note_off_c, 2, 60, 80
4, 390144, Note_on_c, 2, 41, 95
4, 391168, Note_off_c, 2, 41, 80
4, 391168, Note_on_c, 2, 60, 95
4, 391168, Note_on_c, 2, 57, 95
4, 391168, Note_on_c, 2, 53, 95
4, 392704, Note_off_c, 2, 53, 80
4, 392704, Note_off_c, 2, 57, 80
4, 392704, Note_off_c, 2, 60, 80
4, 392704, Note_on_c, 2, 60, 95
4, 392704, Note_on_c, 2, 52, 95
4, 392704, Note_on_c, 2, 48, 95
4, 393728, Note_off_c, 2, 48, 80
4, 393728, Note_off_c, 2, 52, 80
4, 393728, Note_off_c, 2, 60, 80
4, 393728, Note_on_c, 2, 60, 95
4, 393728, Note_on_c, 2, 52, 95
4, 393728, Note_on_c, 2, 48, 95
4, 394752, Note_off_c, 2, 48, 80
4, 394752, Note_off_c, 2, 52, 80
4, 394752, Note_off_c, 2, 60, 80
4, 394752, Note_on_c, 2, 60, 95
4, 394752, Note_on_c, 2, 53, 95
4, 394752, Note_on_c, 2, 49, 95
4, 395776, Note_off_c, 2, 49, 80
4, 395776, Note_off_c, 2, 53, 80
4, 395776, Note_off_c, 2, 60, 80
4, 395776, Note_on_c, 2, 60, 95
4, 395776, Note_on_c, 2, 53, 95
4, 395776, Note_on_c, 2, 49, 95
4, 396800, Note_off_c, 2, 49, 80
4, 396800, Note_off_c, 2, 53, 80
4, 396800, Note_off_c, 2, 60, 80
4, 396800, Note_on_c, 2, 60, 95
4, 396800, Note_on_c, 2, 55, 95
4, 396800, Note_on_c, 2, 51, 95
4, 397824, Note_off_c, 2, 51, 80
4, 397824, Note_off_c, 2, 55, 80
4, 397824, Note_off_c, 2, 60, 80
4, 397824, Note_on_c, 2, 60, 95
4, 397824, Note_on_c, 2, 55, 95
4, 397824, Note_on_c, 2, 51, 95
4, 400384, Note_off_c, 2, 51, 80
4, 400384, Note_off_c, 2, 55, 80
4, 400384, Note_off_c, 2, 60, 80
4, 400384, Note_on_c, 2, 41, 95
4, 401408, Note_off_c, 2, 41, 80
4, 401408, Note_on_c, 2, 60, 95
4, 401408, Note_on_c, 2, 57, 95
4, 401408, Note_on_c, 2, 53, 95
4, 402944, Note_off_c, 2, 53, 80
4, 402944, Note_off_c, 2, 57, 80
4, 402944, Note_off_c, 2, 60, 80
4, 402944, Note_on_c, 2, 60, 95
4, 402944, Note_on_c, 2, 52, 95
4, 402944, Note_on_c, 2, 48, 95
4, 403968, Note_off_c, 2, 48, 80
4, 403968, Note_off_c, 2, 52, 80
4, 403968, Note_off_c, 2, 60, 80
4, 403968, Note_on_c, 2, 60, 95
4, 403968, Note_on_c, 2, 52, 95
4, 403968, Note_on_c, 2, 48, 95
4, 404992, Note_off_c, 2, 48, 80
4, 404992, Note_off_c, 2, 52, 80
4, 404992, Note_off_c, 2, 60, 80
4, 404992, Note_on_c, 2, 60, 95
4, 404992, Note_on_c, 2, 53, 95
4, 404992, Note_on_c, 2, 49, 95
4, 406016, Note_off_c, 2, 49, 80
4, 406016, Note_off_c, 2, 53, 80
4, 406016, Note_off_c, 2, 60, 80
4, 406016, Note_on_c, 2, 60, 95
4, 406016, Note_on_c, 2, 53, 95
4, 406016, Note_on_c, 2, 49, 95
4, 407040, Note_off_c, 2, 49, 80
4, 407040, Note_off_c, 2, 53, 80
4, 407040, Note_off_c, 2, 60, 80
4, 407040, Note_on_c, 2, 60, 95
4, 407040, Note_on_c, 2, 55, 95
4, 407040, Note_on_c, 2, 51, 95
4, 408064, Note_off_c, 2, 51, 80
4, 408064, Note_off_c, 2, 55, 80
4, 408064, Note_off_c, 2, 60, 80
4, 408064, Note_on_c, 2, 60, 95
4, 408064, Note_on_c, 2, 55, 95
4, 408064, Note_on_c, 2, 51, 95
4, 411136, Note_off_c, 2, 51, 80
4, 411136, Note_off_c, 2, 55, 80
4, 411136, Note_off_c, 2, 60, 80
4, 411136, Note_on_c, 2, 41, 95
4, 411648, Note_off_c, 2, 41, 80
4, 411648, Note_on_c, 2, 60, 95
4, 411648, Note_on_c, 2, 57, 95
4, 411648, Note_on_c, 2, 53, 95
4, 413184, Note_off_c, 2, 53, 80
4, 413184, Note_off_c, 2, 57, 80
4, 413184, Note_off_c, 2, 60, 80
4, 413184, Note_on_c, 2, 60, 95
4, 413184, Note_on_c, 2, 52, 95
4, 413184, Note_on_c, 2, 48, 95
4, 414208, Note_off_c, 2, 48, 80
4, 414208, Note_off_c, 2, 52, 80
4, 414208, Note_off_c, 2, 60, 80
4, 414208, Note_on_c, 2, 60, 95
4, 414208, Note_on_c, 2, 52, 95
4, 414208, Note_on_c, 2, 48, 95
4, 415232, Note_off_c, 2, 48, 80
4, 415232, Note_off_c, 2, 52, 80
4, 415232, Note_off_c, 2, 60, 80
4, 415232, Note_on_c, 2, 60, 95
4, 415232, Note_on_c, 2, 53, 95
4, 415232, Note_on_c, 2, 49, 95
4, 416256, Note_off_c, 2, 49, 80
4, 416256, Note_off_c, 2, 53, 80
4, 416256, Note_off_c, 2, 60, 80
4, 416256, Note_on_c, 2, 60, 95
4, 416256, Note_on_c, 2, 53, 95
4, 416256, Note_on_c, 2, 49, 95
4, 417280, Note_off_c, 2, 49, 80
4, 417280, Note_off_c, 2, 53, 80
4, 417280, Note_off_c, 2, 60, 80
4, 417280, Note_on_c, 2, 60, 95
4, 417280, Note_on_c, 2, 55, 95
4, 417280, Note_on_c, 2, 51, 95
4, 418304, Note_off_c, 2, 51, 80
4, 418304, Note_off_c, 2, 55, 80
4, 418304, Note_off_c, 2, 60, 80
4, 418304, Note_on_c, 2, 60, 95
4, 418304, Note_on_c, 2, 55, 95
4, 418304, Note_on_c, 2, 51, 95
4, 421376, Note_off_c, 2, 51, 80
4, 421376, Note_off_c, 2, 55, 80
4, 421376, Note_off_c, 2, 60, 80
4, 421376, Note_on_c, 2, 41, 95
4, 421888, Note_off_c, 2, 41, 80
4, 421888, Note_on_c, 2, 60, 95
4, 421888, Note_on_c, 2, 57, 95
4, 421888, Note_on_c, 2, 53, 95
4, 423424, Note_off_c, 2, 53, 80
4, 423424, Note_off_c, 2, 57, 80
4, 423424, Note_off_c, 2, 60, 80
4, 423424, Note_on_c, 2, 60, 95
4, 423424, Note_on_c, 2, 52, 95
4, 423424, Note_on_c, 2, 48, 95
4, 424448, Note_off_c, 2, 48, 80
4, 424448, Note_off_c, 2, 52, 80
4, 424448, Note_off_c, 2, 60, 80
4, 424448, Note_on_c, 2, 60, 95
4, 424448, Note_on_c, 2, 52, 95
4, 424448, Note_on_c, 2, 48, 95
4, 425472, Note_off_c, 2, 48, 80
4, 425472, Note_off_c, 2, 52, 80
4, 425472, Note_off_c, 2, 60, 80
4, 425472, Note_on_c, 2, 60, 95
4, 425472, Note_on_c, 2, 53, 95
4, 425472, Note_on_c, 2, 49, 95
4, 426496, Note_off_c, 2, 49, 80
4, 426496, Note_off_c, 2, 53, 80
4, 426496, Note_off_c, 2, 60, 80
4, 426496, Note_on_c, 2, 60, 95
4, 426496, Note_on_c, 2, 53, 95
4, 426496, Note_on_c, 2, 49, 95
4, 427520, Note_off_c, 2, 49, 80
4, 427520, Note_off_c, 2, 53, 80
4, 427520, Note_off_c, 2, 60, 80
4, 427520, Note_on_c, 2, 60, 95
4, 427520, Note_on_c, 2, 55, 95
4, 427520, Note_on_c, 2, 51, 95
4, 428544, Note_off_c, 2, 51, 80
4, 428544, Note_off_c, 2, 55, 80
4, 428544, Note_off_c, 2, 60, 80
4, 428544, Note_on_c, 2, 60, 95
4, 428544, Note_on_c, 2, 55, 95
4, 428544, Note_on_c, 2, 51, 95
4, 431104, Note_off_c, 2, 51, 80
4, 431104, Note_off_c, 2, 55, 80
4, 431104, Note_off_c, 2, 60, 80
4, 431104, Note_on_c, 2, 41, 95
4, 432128, Note_off_c, 2, 41, 80
4, 432128, Note_on_c, 2, 60, 95
4, 432128, Note_on_c, 2, 57, 95
4, 432128, Note_on_c, 2, 53, 95
4, 433664, Note_off_c, 2, 53, 80
4, 433664, Note_off_c, 2, 57, 80
4, 433664, Note_off_c, 2, 60, 80
4, 433664, Note_on_c, 2, 60, 95
4, 433664, Note_on_c, 2, 52, 95
4, 433664, Note_on_c, 2, 48, 95
4, 434688, Note_off_c, 2, 48, 80
4, 434688, Note_off_c, 2, 52, 80
4, 434688, Note_off_c, 2, 60, 80
4, 434688, Note_on_c, 2, 60, 95
4, 434688, Note_on_c, 2, 52, 95
4, 434688, Note_on_c, 2, 48, 95
4, 435712, Note_off_c, 2, 48, 80
4, 435712, Note_off_c, 2, 52, 80
4, 435712, Note_off_c, 2, 60, 80
4, 435712, Note_on_c, 2, 60, 95
4, 435712, Note_on_c, 2, 53, 95
4, 435712, Note_on_c, 2, 49, 95
4, 436736, Note_off_c, 2, 49, 80
4, 436736, Note_off_c, 2, 53, 80
4, 436736, Note_off_c, 2, 60, 80
4, 436736, Note_on_c, 2, 60, 95
4, 436736, Note_on_c, 2, 53, 95
4, 436736, Note_on_c, 2, 49, 95
4, 437760, Note_off_c, 2, 49, 80
4, 437760, Note_off_c, 2, 53, 80
4, 437760, Note_off_c, 2, 60, 80
4, 437760, Note_on_c, 2, 60, 95
4, 437760, Note_on_c, 2, 55, 95
4, 437760, Note_on_c, 2, 51, 95
4, 438784, Note_off_c, 2, 51, 80
4, 438784, Note_off_c, 2, 55, 80
4, 438784, Note_off_c, 2, 60, 80
4, 438784, Note_on_c, 2, 60, 95
4, 438784, Note_on_c, 2, 55, 95
4, 438784, Note_on_c, 2, 51, 95
4, 441344, Note_off_c, 2, 51, 80
4, 441344, Note_off_c, 2, 55, 80
4, 441344, Note_off_c, 2, 60, 80
4, 441344, Note_on_c, 2, 41, 95
4, 441856, Note_off_c, 2, 41, 80
4, 441856, Note_on_c, 2, 41, 95
4, 442368, Note_off_c, 2, 41, 80
4, 442368, Note_on_c, 2, 60, 95
4, 442368, Note_on_c, 2, 57, 95
4, 442368, Note_on_c, 2, 53, 95
4, 443904, Note_off_c, 2, 53, 80
4, 443904, Note_off_c, 2, 57, 80
4, 443904, Note_off_c, 2, 60, 80
4, 443904, Note_on_c, 2, 60, 95
4, 443904, Note_on_c, 2, 52, 95
4, 443904, Note_on_c, 2, 48, 95
4, 444928, Note_off_c, 2, 48, 80
4, 444928, Note_off_c, 2, 52, 80
4, 444928, Note_off_c, 2, 60, 80
4, 444928, Note_on_c, 2, 60, 95
4, 444928, Note_on_c, 2, 52, 95
4, 444928, Note_on_c, 2, 48, 95
4, 445952, Note_off_c, 2, 48, 80
4, 445952, Note_off_c, 2, 52, 80
4, 445952, Note_off_c, 2, 60, 80
4, 445952, Note_on_c, 2, 60, 95
4, 445952, Note_on_c, 2, 53, 95
4, 445952, Note_on_c, 2, 49, 95
4, 446976, Note_off_c, 2, 49, 80
4, 446976, Note_off_c, 2, 53, 80
4, 446976, Note_off_c, 2, 60, 80
4, 446976, Note_on_c, 2, 60, 95
4, 446976, Note_on_c, 2, 53, 95
4, 446976, Note_on_c, 2, 49, 95
4, 448000, Note_off_c, 2, 49, 80
4, 448000, Note_off_c, 2, 53, 80
4, 448000, Note_off_c, 2, 60, 80
4, 448000, Note_on_c, 2, 60, 95
4, 448000, Note_on_c, 2, 55, 95
4, 448000, Note_on_c, 2, 51, 95
4, 449024, Note_off_c, 2, 51, 80
4, 449024, Note_off_c, 2, 55, 80
4, 449024, Note_off_c, 2, 60, 80
4, 449024, Note_on_c, 2, 60, 95
4, 449024, Note_on_c, 2, 55, 95
4, 449024, Note_on_c, 2, 51, 95
4, 452096, Note_off_c, 2, 51, 80
4, 452096, Note_off_c, 2, 55, 80
4, 452096, Note_off_c, 2, 60, 80
4, 452096, Note_on_c, 2, 41, 95
4, 452608, Note_off_c, 2, 41, 80
4, 452608, Note_on_c, 2, 60, 95
4, 452608, Note_on_c, 2, 57, 95
4, 452608, Note_on_c, 2, 53, 95
4, 454144, Note_off_c, 2, 53, 80
4, 454144, Note_off_c, 2, 57, 80
4, 454144, Note_off_c, 2, 60, 80
4, 454144, Note_on_c, 2, 60, 95
4, 454144, Note_on_c, 2, 52, 95
4, 454144, Note_on_c, 2, 48, 95
4, 455168, Note_off_c, 2, 48, 80
4, 455168, Note_off_c, 2, 52, 80
4, 455168, Note_off_c, 2, 60, 80
4, 455168, Note_on_c, 2, 60, 95
4, 455168, Note_on_c, 2, 52, 95
4, 455168, Note_on_c, 2, 48, 95
4, 456192, Note_off_c, 2, 48, 80
4, 456192, Note_off_c, 2, 52, 80
4, 456192, Note_off_c, 2, 60, 80
4, 456192, Note_on_c, 2, 60, 95
4, 456192, Note_on_c, 2, 53, 95
4, 456192, Note_on_c, 2, 49, 95
4, 457216, Note_off_c, 2, 49, 80
4, 457216, Note_off_c, 2, 53, 80
4, 457216, Note_off_c, 2, 60, 80
4, 457216, Note_on_c, 2, 60, 95
4, 457216, Note_on_c, 2, 53, 95
4, 457216, Note_on_c, 2, 49, 95
4, 458240, Note_off_c, 2, 49, 80
4, 458240, Note_off_c, 2, 53, 80
4, 458240, Note_off_c, 2, 60, 80
4, 458240, Note_on_c, 2, 60, 95
4, 458240, Note_on_c, 2, 55, 95
4, 458240, Note_on_c, 2, 51, 95
4, 459264, Note_off_c, 2, 51, 80
4, 459264, Note_off_c, 2, 55, 80
4, 459264, Note_off_c, 2, 60, 80
4, 459264, Note_on_c, 2, 60, 95
4, 459264, Note_on_c, 2, 55, 95
4, 459264, Note_on_c, 2, 51, 95
4, 460288, Note_off_c, 2, 51, 80
4, 460288, Note_on_c, 2, 48, 95
4, 461312, Note_off_c, 2, 55, 80
4, 461312, Note_off_c, 2, 60, 80
4, 462336, Note_off_c, 2, 48, 80
4, 462336, Note_on_c, 2, 41, 95
4, 462848, Note_off_c, 2, 41, 80
4, 462848, Note_on_c, 2, 60, 95
4, 462848, Note_on_c, 2, 57, 95
4, 462848, Note_on_c, 2, 53, 95
4, 464384, Note_off_c, 2, 53, 80
4, 464384, Note_off_c, 2, 57, 80
4, 464384, Note_off_c, 2, 60, 80
4, 464384, Note_on_c, 2, 60, 95
4, 464384, Note_on_c, 2, 52, 95
4, 464384, Note_on_c, 2, 48, 95
4, 465408, Note_off_c, 2, 48, 80
4, 465408, Note_off_c, 2, 52, 80
4, 465408, Note_off_c, 2, 60, 80
4, 465408, Note_on_c, 2, 60, 95
4, 465408, Note_on_c, 2, 52, 95
4, 465408, Note_on_c, 2, 48, 95
4, 466432, Note_off_c, 2, 48, 80
4, 466432, Note_off_c, 2, 52, 80
4, 466432, Note_off_c, 2, 60, 80
4, 466432, Note_on_c, 2, 60, 95
4, 466432, Note_on_c, 2, 53, 95
4, 466432, Note_on_c, 2, 49, 95
4, 467456, Note_off_c, 2, 49, 80
4, 467456, Note_off_c, 2, 53, 80
4, 467456, Note_off_c, 2, 60, 80
4, 467456, Note_on_c, 2, 60, 95
4, 467456, Note_on_c, 2, 53, 95
4, 467456, Note_on_c, 2, 49, 95
4, 468480, Note_off_c, 2, 49, 80
4, 468480, Note_off_c, 2, 53, 80
4, 468480, Note_off_c, 2, 60, 80
4, 468480, Note_on_c, 2, 60, 95
4, 468480, Note_on_c, 2, 55, 95
4, 468480, Note_on_c, 2, 51, 95
4, 469504, Note_off_c, 2, 51, 80
4, 469504, Note_off_c, 2, 55, 80
4, 469504, Note_off_c, 2, 60, 80
4, 469504, Note_on_c, 2, 60, 95
4, 469504, Note_on_c, 2, 55, 95
4, 469504, Note_on_c, 2, 51, 95
4, 470528, Note_off_c, 2, 51, 80
4, 470528, Note_off_c, 2, 55, 80
4, 470528, Note_off_c, 2, 60, 80
4, 470528, Note_on_c, 2, 60, 95
4, 470528, Note_on_c, 2, 55, 95
4, 470528, Note_on_c, 2, 48, 95
4, 472064, Note_off_c, 2, 48, 80
4, 472064, Note_off_c, 2, 55, 80
4, 472064, Note_off_c, 2, 60, 80
4, 472064, Note_on_c, 2, 41, 95
4, 473088, Note_off_c, 2, 41, 80
4, 473088, Note_on_c, 2, 60, 95
4, 473088, Note_on_c, 2, 57, 95
4, 473088, Note_on_c, 2, 53, 95
4, 474624, Note_off_c, 2, 53, 80
4, 474624, Note_off_c, 2, 57, 80
4, 474624, Note_off_c, 2, 60, 80
4, 474624, Note_on_c, 2, 60, 95
4, 474624, Note_on_c, 2, 52, 95
4, 474624, Note_on_c, 2, 48, 95
4, 475648, Note_off_c, 2, 48, 80
4, 475648, Note_off_c, 2, 52, 80
4, 475648, Note_off_c, 2, 60, 80
4, 475648, Note_on_c, 2, 60, 95
4, 475648, Note_on_c, 2, 52, 95
4, 475648, Note_on_c, 2, 48, 95
4, 476672, Note_off_c, 2, 48, 80
4, 476672, Note_off_c, 2, 52, 80
4, 476672, Note_off_c, 2, 60, 80
4, 476672, Note_on_c, 2, 60, 95
4, 476672, Note_on_c, 2, 53, 95
4, 476672, Note_on_c, 2, 49, 95
4, 477696, Note_off_c, 2, 49, 80
4, 477696, Note_off_c, 2, 53, 80
4, 477696, Note_off_c, 2, 60, 80
4, 477696, Note_on_c, 2, 60, 95
4, 477696, Note_on_c, 2, 53, 95
4, 477696, Note_on_c, 2, 49, 95
4, 478720, Note_off_c, 2, 49, 80
4, 478720, Note_off_c, 2, 53, 80
4, 478720, Note_off_c, 2, 60, 80
4, 478720, Note_on_c, 2, 60, 95
4, 478720, Note_on_c, 2, 55, 95
4, 478720, Note_on_c, 2, 51, 95
4, 479744, Note_off_c, 2, 51, 80
4, 479744, Note_off_c, 2, 55, 80
4, 479744, Note_off_c, 2, 60, 80
4, 479744, Note_on_c, 2, 60, 95
4, 479744, Note_on_c, 2, 55, 95
4, 479744, Note_on_c, 2, 51, 95
4, 480768, Note_off_c, 2, 51, 80
4, 480768, Note_on_c, 2, 48, 95
4, 481792, Note_off_c, 2, 55, 80
4, 481792, Note_off_c, 2, 60, 80
4, 482816, Note_off_c, 2, 48, 80
4, 482816, Note_on_c, 2, 41, 95
4, 483328, Note_off_c, 2, 41, 80
4, 483328, Note_on_c, 2, 60, 95
4, 483328, Note_on_c, 2, 57, 95
4, 483328, Note_on_c, 2, 53, 95
4, 484864, Note_off_c, 2, 53, 80
4, 484864, Note_off_c, 2, 57, 80
4, 484864, Note_off_c, 2, 60, 80
4, 484864, Note_on_c, 2, 60, 95
4, 484864, Note_on_c, 2, 52, 95
4, 484864, Note_on_c, 2, 48, 95
4, 485888, Note_off_c, 2, 48, 80
4, 485888, Note_off_c, 2, 52, 80
4, 485888, Note_off_c, 2, 60, 80
4, 485888, Note_on_c, 2, 60, 95
4, 485888, Note_on_c, 2, 52, 95
4, 485888, Note_on_c, 2, 48, 95
4, 486912, Note_off_c, 2, 48, 80
4, 486912, Note_off_c, 2, 52, 80
4, 486912, Note_off_c, 2, 60, 80
4, 486912, Note_on_c, 2, 60, 95
4, 486912, Note_on_c, 2, 53, 95
4, 486912, Note_on_c, 2, 49, 95
4, 487936, Note_off_c, 2, 49, 80
4, 487936, Note_off_c, 2, 53, 80
4, 487936, Note_off_c, 2, 60, 80
4, 487936, Note_on_c, 2, 60, 95
4, 487936, Note_on_c, 2, 53, 95
4, 487936, Note_on_c, 2, 49, 95
4, 488960, Note_off_c, 2, 49, 80
4, 488960, Note_off_c, 2, 53, 80
4, 488960, Note_off_c, 2, 60, 80
4, 488960, Note_on_c, 2, 60, 95
4, 488960, Note_on_c, 2, 55, 95
4, 488960, Note_on_c, 2, 51, 95
4, 489984, Note_off_c, 2, 51, 80
4, 489984, Note_off_c, 2, 55, 80
4, 489984, Note_off_c, 2, 60, 80
4, 489984, Note_on_c, 2, 60, 95
4, 489984, Note_on_c, 2, 55, 95
4, 489984, Note_on_c, 2, 51, 95
4, 491008, Note_off_c, 2, 51, 80
4, 491008, Note_on_c, 2, 48, 95
4, 492032, Note_off_c, 2, 55, 80
4, 492032, Note_off_c, 2, 60, 80
4, 493056, Note_off_c, 2, 48, 80
4, 493056, Note_on_c, 2, 41, 95
4, 493568, Note_off_c, 2, 41, 80
4, 493568, Note_on_c, 2, 60, 95
4, 493568, Note_on_c, 2, 57, 95
4, 493568, Note_on_c, 2, 57, 95
4, 493568, Note_on_c, 2, 53, 95
4, 495104, Note_off_c, 2, 53, 80
4, 495104, Note_off_c, 2, 57, 80
4, 495104, Note_off_c, 2, 57, 80
4, 495104, Note_off_c, 2, 60, 80
4, 495104, Note_on_c, 2, 60, 95
4, 495104, Note_on_c, 2, 55, 95
4, 495104, Note_on_c, 2, 52, 95
4, 495104, Note_on_c, 2, 48, 95
4, 496128, Note_off_c, 2, 48, 80
4, 496128, Note_off_c, 2, 52, 80
4, 496128, Note_off_c, 2, 55, 80
4, 496128, Note_off_c, 2, 60, 80
4, 496128, Note_on_c, 2, 60, 95
4, 496128, Note_on_c, 2, 55, 95
4, 496128, Note_on_c, 2, 52, 95
4, 496128, Note_on_c, 2, 48, 95
4, 497152, Note_off_c, 2, 48, 80
4, 497152, Note_off_c, 2, 52, 80
4, 497152, Note_off_c, 2, 55, 80
4, 497152, Note_off_c, 2, 60, 80
4, 497152, Note_on_c, 2, 60, 95
4, 497152, Note_on_c, 2, 56, 95
4, 497152, Note_on_c, 2, 53, 95
4, 497152, Note_on_c, 2, 49, 95
4, 498176, Note_off_c, 2, 49, 80
4, 498176, Note_off_c, 2, 53, 80
4, 498176, Note_off_c, 2, 56, 80
4, 498176, Note_off_c, 2, 60, 80
4, 498176, Note_on_c, 2, 60, 95
4, 498176, Note_on_c, 2, 56, 95
4, 498176, Note_on_c, 2, 53, 95
4, 498176, Note_on_c, 2, 49, 95
4, 499200, Note_off_c, 2, 49, 80
4, 499200, Note_off_c, 2, 53, 80
4, 499200, Note_off_c, 2, 56, 80
4, 499200, Note_off_c, 2, 60, 80
4, 499200, Note_on_c, 2, 55, 95
4, 499200, Note_on_c, 2, 60, 95
4, 499200, Note_on_c, 2, 58, 95
4, 499200, Note_on_c, 2, 51, 95
4, 500224, Note_off_c, 2, 51, 80
4, 500224, Note_off_c, 2, 58, 80
4, 500224, Note_off_c, 2, 60, 80
4, 500224, Note_off_c, 2, 55, 80
4, 500224, Note_on_c, 2, 55, 95
4, 500224, Note_on_c, 2, 60, 95
4, 500224, Note_on_c, 2, 58, 95
4, 500224, Note_on_c, 2, 51, 95
4, 501248, Note_off_c, 2, 51, 80
4, 501248, Note_off_c, 2, 60, 80
4, 501248, Note_on_c, 2, 48, 95
4, 502272, Note_off_c, 2, 58, 80
4, 502272, Note_off_c, 2, 55, 80
4, 502784, Note_off_c, 2, 48, 80
4, 502784, Note_on_c, 2, 41, 95
4, 503808, Note_off_c, 2, 41, 80
4, 503808, Note_on_c, 2, 60, 95
4, 503808, Note_on_c, 2, 57, 95
4, 503808, Note_on_c, 2, 57, 95
4, 503808, Note_on_c, 2, 53, 95
4, 505344, Note_off_c, 2, 53, 80
4, 505344, Note_off_c, 2, 57, 80
4, 505344, Note_off_c, 2, 57, 80
4, 505344, Note_off_c, 2, 60, 80
4, 505344, Note_on_c, 2, 60, 95
4, 505344, Note_on_c, 2, 55, 95
4, 505344, Note_on_c, 2, 52, 95
4, 505344, Note_on_c, 2, 48, 95
4, 506368, Note_off_c, 2, 48, 80
4, 506368, Note_off_c, 2, 52, 80
4, 506368, Note_off_c, 2, 55, 80
4, 506368, Note_off_c, 2, 60, 80
4, 506368, Note_on_c, 2, 60, 95
4, 506368, Note_on_c, 2, 55, 95
4, 506368, Note_on_c, 2, 52, 95
4, 506368, Note_on_c, 2, 48, 95
4, 507392, Note_off_c, 2, 48, 80
4, 507392, Note_off_c, 2, 52, 80
4, 507392, Note_off_c, 2, 55, 80
4, 507392, Note_off_c, 2, 60, 80
4, 507392, Note_on_c, 2, 60, 95
4, 507392, Note_on_c, 2, 56, 95
4, 507392, Note_on_c, 2, 53, 95
4, 507392, Note_on_c, 2, 49, 95
4, 508416, Note_off_c, 2, 49, 80
4, 508416, Note_off_c, 2, 53, 80
4, 508416, Note_off_c, 2, 56, 80
4, 508416, Note_off_c, 2, 60, 80
4, 508416, Note_on_c, 2, 60, 95
4, 508416, Note_on_c, 2, 56, 95
4, 508416, Note_on_c, 2, 53, 95
4, 508416, Note_on_c, 2, 49, 95
4, 509440, Note_off_c, 2, 49, 80
4, 509440, Note_off_c, 2, 53, 80
4, 509440, Note_off_c, 2, 56, 80
4, 509440, Note_off_c, 2, 60, 80
4, 509440, Note_on_c, 2, 55, 95
4, 509440, Note_on_c, 2, 60, 95
4, 509440, Note_on_c, 2, 58, 95
4, 509440, Note_on_c, 2, 51, 95
4, 510464, Note_off_c, 2, 51, 80
4, 510464, Note_off_c, 2, 58, 80
4, 510464, Note_off_c, 2, 60, 80
4, 510464, Note_off_c, 2, 55, 80
4, 510464, Note_on_c, 2, 55, 95
4, 510464, Note_on_c, 2, 60, 95
4, 510464, Note_on_c, 2, 58, 95
4, 510464, Note_on_c, 2, 51, 95
4, 511488, Note_off_c, 2, 51, 80
4, 511488, Note_off_c, 2, 60, 80
4, 511488, Note_on_c, 2, 48, 95
4, 512512, Note_off_c, 2, 58, 80
4, 512512, Note_off_c, 2, 55, 80
4, 513024, Note_off_c, 2, 48, 80
4, 513024, Note_on_c, 2, 41, 95
4, 514048, Note_off_c, 2, 41, 80
4, 514048, Note_on_c, 2, 60, 95
4, 514048, Note_on_c, 2, 57, 95
4, 514048, Note_on_c, 2, 53, 95
4, 518144, Note_off_c, 2, 53, 80
4, 518144, Note_off_c, 2, 57, 80
4, 518144, Note_off_c, 2, 60, 80
4, 518144, End_track
5, 0, Start_track
5, 0, Sequencer_specific, 5, 5, 15, 9, 0, 64
5, 0, Sequencer_specific, 15, 5, 15, 6, 71, 101, 110, 101, 114, 97, 108, 32, 77, 73, 68, 73
5, 0, Control_c, 3, 7, 127
5, 0, Program_c, 3, 89
5, 0, Title_t, "Vocals"
5, 1024, Control_c, 3, 10, 80
5, 1024, Control_c, 3, 93, 0
5, 1024, Control_c, 3, 91, 0
5, 1024, Control_c, 3, 92, 0
5, 1024, Control_c, 3, 95, 0
5, 71168, Note_on_c, 3, 65, 127
5, 71680, Note_off_c, 3, 65, 80
5, 71680, Note_on_c, 3, 60, 127
5, 72192, Note_off_c, 3, 60, 80
5, 72192, Note_on_c, 3, 65, 127
5, 80896, Note_off_c, 3, 65, 80
5, 81408, Note_on_c, 3, 65, 127
5, 81920, Note_off_c, 3, 65, 80
5, 81920, Note_on_c, 3, 60, 127
5, 82432, Note_off_c, 3, 60, 80
5, 82432, Note_on_c, 3, 65, 127
5, 91136, Note_off_c, 3, 65, 80
5, 91648, Note_on_c, 3, 65, 127
5, 92160, Note_off_c, 3, 65, 80
5, 92160, Note_on_c, 3, 60, 127
5, 92672, Note_off_c, 3, 60, 80
5, 92672, Note_on_c, 3, 65, 127
5, 101376, Note_off_c, 3, 65, 80
5, 101888, Note_on_c, 3, 65, 127
5, 102400, Note_off_c, 3, 65, 80
5, 102400, Note_on_c, 3, 60, 127
5, 102912, Note_off_c, 3, 60, 80
5, 102912, Note_on_c, 3, 65, 127
5, 110592, Note_off_c, 3, 65, 80
5, 111616, Note_on_c, 3, 60, 127
5, 112128, Note_off_c, 3, 60, 80
5, 112128, Note_on_c, 3, 60, 127
5, 112640, Note_off_c, 3, 60, 80
5, 112640, Note_on_c, 3, 61, 127
5, 114688, Note_off_c, 3, 61, 80
5, 114688, Note_on_c, 3, 60, 127
5, 120832, Note_off_c, 3, 60, 80
5, 121856, Note_on_c, 3, 60, 127
5, 122368, Note_off_c, 3, 60, 80
5, 122368, Note_on_c, 3, 60, 127
5, 122880, Note_off_c, 3, 60, 80
5, 122880, Note_on_c, 3, 61, 127
5, 124928, Note_off_c, 3, 61, 80
5, 124928, Note_on_c, 3, 60, 127
5, 131072, Note_off_c, 3, 60, 80
5, 132096, Note_on_c, 3, 60, 127
5, 132608, Note_off_c, 3, 60, 80
5, 132608, Note_on_c, 3, 60, 127
5, 133120, Note_off_c, 3, 60, 80
5, 133120, Note_on_c, 3, 61, 127
5, 135168, Note_off_c, 3, 61, 80
5, 135168, Note_on_c, 3, 60, 127
5, 141312, Note_off_c, 3, 60, 80
5, 142336, Note_on_c, 3, 60, 127
5, 142848, Note_off_c, 3, 60, 80
5, 142848, Note_on_c, 3, 60, 127
5, 143360, Note_off_c, 3, 60, 80
5, 143360, Note_on_c, 3, 61, 127
5, 145408, Note_off_c, 3, 61, 80
5, 145408, Note_on_c, 3, 60, 127
5, 151552, Note_off_c, 3, 60, 80
5, 155648, Note_on_c, 3, 58, 127
5, 156160, Note_off_c, 3, 58, 80
5, 156160, Note_on_c, 3, 60, 127
5, 156672, Note_off_c, 3, 60, 80
5, 156672, Note_on_c, 3, 60, 127
5, 157696, Note_off_c, 3, 60, 80
5, 157696, Note_on_c, 3, 60, 127
5, 158208, Note_off_c, 3, 60, 80
5, 158208, Note_on_c, 3, 60, 127
5, 159232, Note_off_c, 3, 60, 80
5, 159232, Note_on_c, 3, 60, 127
5, 160256, Note_off_c, 3, 60, 80
5, 160256, Note_on_c, 3, 60, 127
5, 161280, Note_off_c, 3, 60, 80
5, 161280, Note_on_c, 3, 60, 127
5, 162304, Note_off_c, 3, 60, 80
5, 162304, Note_on_c, 3, 60, 127
5, 162816, Note_off_c, 3, 60, 80
5, 162816, Note_on_c, 3, 60, 127
5, 163328, Note_off_c, 3, 60, 80
5, 163328, Note_on_c, 3, 60, 127
5, 164352, Note_off_c, 3, 60, 80
5, 164352, Note_on_c, 3, 60, 127
5, 165888, Note_off_c, 3, 60, 80
5, 165888, Note_on_c, 3, 58, 127
5, 166400, Note_off_c, 3, 58, 80
5, 166400, Note_on_c, 3, 60, 127
5, 166912, Note_off_c, 3, 60, 80
5, 166912, Note_on_c, 3, 60, 127
5, 167936, Note_off_c, 3, 60, 80
5, 167936, Note_on_c, 3, 60, 127
5, 168448, Note_off_c, 3, 60, 80
5, 168448, Note_on_c, 3, 60, 127
5, 169472, Note_off_c, 3, 60, 80
5, 169472, Note_on_c, 3, 60, 127
5, 170496, Note_off_c, 3, 60, 80
5, 170496, Note_on_c, 3, 60, 127
5, 171520, Note_off_c, 3, 60, 80
5, 171520, Note_on_c, 3, 60, 127
5, 172544, Note_off_c, 3, 60, 80
5, 172544, Note_on_c, 3, 60, 127
5, 173056, Note_off_c, 3, 60, 80
5, 173056, Note_on_c, 3, 60, 127
5, 173568, Note_off_c, 3, 60, 80
5, 173568, Note_on_c, 3, 60, 127
5, 174592, Note_off_c, 3, 60, 80
5, 174592, Note_on_c, 3, 60, 127
5, 176128, Note_off_c, 3, 60, 80
5, 176128, Note_on_c, 3, 58, 127
5, 176640, Note_off_c, 3, 58, 80
5, 176640, Note_on_c, 3, 60, 127
5, 177152, Note_off_c, 3, 60, 80
5, 177152, Note_on_c, 3, 60, 127
5, 178176, Note_off_c, 3, 60, 80
5, 178176, Note_on_c, 3, 60, 127
5, 178688, Note_off_c, 3, 60, 80
5, 178688, Note_on_c, 3, 60, 127
5, 179712, Note_off_c, 3, 60, 80
5, 179712, Note_on_c, 3, 60, 127
5, 180736, Note_off_c, 3, 60, 80
5, 180736, Note_on_c, 3, 60, 127
5, 181760, Note_off_c, 3, 60, 80
5, 181760, Note_on_c, 3, 60, 127
5, 182784, Note_off_c, 3, 60, 80
5, 182784, Note_on_c, 3, 60, 127
5, 183296, Note_off_c, 3, 60, 80
5, 183296, Note_on_c, 3, 60, 127
5, 183808, Note_off_c, 3, 60, 80
5, 183808, Note_on_c, 3, 60, 127
5, 184832, Note_off_c, 3, 60, 80
5, 184832, Note_on_c, 3, 60, 127
5, 186368, Note_off_c, 3, 60, 80
5, 186368, Note_on_c, 3, 58, 127
5, 186880, Note_off_c, 3, 58, 80
5, 186880, Note_on_c, 3, 60, 127
5, 187392, Note_off_c, 3, 60, 80
5, 187392, Note_on_c, 3, 60, 127
5, 188416, Note_off_c, 3, 60, 80
5, 188416, Note_on_c, 3, 60, 127
5, 188928, Note_off_c, 3, 60, 80
5, 188928, Note_on_c, 3, 60, 127
5, 189952, Note_off_c, 3, 60, 80
5, 189952, Note_on_c, 3, 60, 127
5, 190976, Note_off_c, 3, 60, 80
5, 190976, Note_on_c, 3, 60, 127
5, 192000, Note_off_c, 3, 60, 80
5, 192000, Note_on_c, 3, 60, 127
5, 193024, Note_off_c, 3, 60, 80
5, 193024, Note_on_c, 3, 63, 127
5, 193536, Note_off_c, 3, 63, 80
5, 193536, Note_on_c, 3, 63, 127
5, 194048, Note_off_c, 3, 63, 80
5, 194048, Note_on_c, 3, 65, 127
5, 195072, Note_off_c, 3, 65, 80
5, 195072, Note_on_c, 3, 65, 127
5, 202752, Note_off_c, 3, 65, 80
5, 204288, Note_on_c, 3, 65, 127
5, 204800, Note_off_c, 3, 65, 80
5, 204800, Note_on_c, 3, 60, 127
5, 205312, Note_off_c, 3, 60, 80
5, 205312, Note_on_c, 3, 65, 127
5, 212992, Note_off_c, 3, 65, 80
5, 214528, Note_on_c, 3, 65, 127
5, 215040, Note_off_c, 3, 65, 80
5, 215040, Note_on_c, 3, 60, 127
5, 215552, Note_off_c, 3, 60, 80
5, 215552, Note_on_c, 3, 65, 127
5, 223232, Note_off_c, 3, 65, 80
5, 224768, Note_on_c, 3, 65, 127
5, 225280, Note_off_c, 3, 65, 80
5, 225280, Note_on_c, 3, 60, 127
5, 225792, Note_off_c, 3, 60, 80
5, 225792, Note_on_c, 3, 65, 127
5, 233472, Note_off_c, 3, 65, 80
5, 234496, Note_on_c, 3, 60, 127
5, 235008, Note_off_c, 3, 60, 80
5, 235008, Note_on_c, 3, 60, 127
5, 235520, Note_off_c, 3, 60, 80
5, 235520, Note_on_c, 3, 61, 127
5, 237568, Note_off_c, 3, 61, 80
5, 237568, Note_on_c, 3, 60, 127
5, 243712, Note_off_c, 3, 60, 80
5, 244736, Note_on_c, 3, 60, 127
5, 245248, Note_off_c, 3, 60, 80
5, 245248, Note_on_c, 3, 60, 127
5, 245760, Note_off_c, 3, 60, 80
5, 245760, Note_on_c, 3, 61, 127
5, 247808, Note_off_c, 3, 61, 80
5, 247808, Note_on_c, 3, 60, 127
5, 253952, Note_off_c, 3, 60, 80
5, 254976, Note_on_c, 3, 60, 127
5, 255488, Note_off_c, 3, 60, 80
5, 255488, Note_on_c, 3, 60, 127
5, 256000, Note_off_c, 3, 60, 80
5, 256000, Note_on_c, 3, 61, 127
5, 258048, Note_off_c, 3, 61, 80
5, 258048, Note_on_c, 3, 60, 127
5, 266240, Note_off_c, 3, 60, 80
5, 266240, Note_on_c, 3, 61, 127
5, 268288, Note_off_c, 3, 61, 80
5, 268288, Note_on_c, 3, 60, 127
5, 276480, Note_off_c, 3, 60, 80
5, 278528, Note_on_c, 3, 60, 127
5, 280576, Note_off_c, 3, 60, 80
5, 280576, Note_on_c, 3, 60, 127
5, 282112, Note_off_c, 3, 60, 80
5, 282112, Note_on_c, 3, 60, 127
5, 283136, Note_off_c, 3, 60, 80
5, 283136, Note_on_c, 3, 60, 127
5, 284160, Note_off_c, 3, 60, 80
5, 284160, Note_on_c, 3, 60, 127
5, 285184, Note_off_c, 3, 60, 80
5, 285184, Note_on_c, 3, 63, 127
5, 286208, Note_off_c, 3, 63, 80
5, 286208, Note_on_c, 3, 61, 127
5, 287232, Note_off_c, 3, 61, 80
5, 287232, Note_on_c, 3, 60, 127
5, 288768, Note_off_c, 3, 60, 80
5, 288768, Note_on_c, 3, 60, 127
5, 290816, Note_off_c, 3, 60, 80
5, 290816, Note_on_c, 3, 60, 127
5, 292352, Note_off_c, 3, 60, 80
5, 292352, Note_on_c, 3, 60, 127
5, 293376, Note_off_c, 3, 60, 80
5, 293376, Note_on_c, 3, 60, 127
5, 294400, Note_off_c, 3, 60, 80
5, 294400, Note_on_c, 3, 60, 127
5, 295424, Note_off_c, 3, 60, 80
5, 295424, Note_on_c, 3, 63, 127
5, 296448, Note_off_c, 3, 63, 80
5, 296448, Note_on_c, 3, 61, 127
5, 297472, Note_off_c, 3, 61, 80
5, 297472, Note_on_c, 3, 60, 127
5, 299008, Note_off_c, 3, 60, 80
5, 299008, Note_on_c, 3, 60, 127
5, 301056, Note_off_c, 3, 60, 80
5, 301056, Note_on_c, 3, 60, 127
5, 302592, Note_off_c, 3, 60, 80
5, 302592, Note_on_c, 3, 60, 127
5, 303616, Note_off_c, 3, 60, 80
5, 303616, Note_on_c, 3, 60, 127
5, 304640, Note_off_c, 3, 60, 80
5, 304640, Note_on_c, 3, 60, 127
5, 305664, Note_off_c, 3, 60, 80
5, 305664, Note_on_c, 3, 63, 127
5, 306688, Note_off_c, 3, 63, 80
5, 306688, Note_on_c, 3, 61, 127
5, 307712, Note_off_c, 3, 61, 80
5, 307712, Note_on_c, 3, 60, 127
5, 309248, Note_off_c, 3, 60, 80
5, 309248, Note_on_c, 3, 60, 127
5, 311296, Note_off_c, 3, 60, 80
5, 311296, Note_on_c, 3, 60, 127
5, 312832, Note_off_c, 3, 60, 80
5, 312832, Note_on_c, 3, 60, 127
5, 313856, Note_off_c, 3, 60, 80
5, 313856, Note_on_c, 3, 60, 127
5, 314880, Note_off_c, 3, 60, 80
5, 314880, Note_on_c, 3, 60, 127
5, 315904, Note_off_c, 3, 60, 80
5, 315904, Note_on_c, 3, 63, 127
5, 317440, Note_off_c, 3, 63, 80
5, 317440, Note_on_c, 3, 61, 127
5, 317952, Note_off_c, 3, 61, 80
5, 317952, Note_on_c, 3, 60, 127
5, 319488, Note_off_c, 3, 60, 80
5, 326144, Note_on_c, 3, 63, 127
5, 327168, Note_off_c, 3, 63, 80
5, 327168, Note_on_c, 3, 61, 127
5, 328192, Note_off_c, 3, 61, 80
5, 328192, Note_on_c, 3, 60, 127
5, 333824, Note_off_c, 3, 60, 80
5, 336384, Note_on_c, 3, 63, 127
5, 337408, Note_off_c, 3, 63, 80
5, 337408, Note_on_c, 3, 61, 127
5, 338432, Note_off_c, 3, 61, 80
5, 338432, Note_on_c, 3, 60, 127
5, 344064, Note_off_c, 3, 60, 80
5, 346624, Note_on_c, 3, 63, 127
5, 347648, Note_off_c, 3, 63, 80
5, 347648, Note_on_c, 3, 61, 127
5, 348672, Note_off_c, 3, 61, 80
5, 348672, Note_on_c, 3, 60, 127
5, 354304, Note_off_c, 3, 60, 80
5, 356864, Note_on_c, 3, 63, 127
5, 357888, Note_off_c, 3, 63, 80
5, 357888, Note_on_c, 3, 65, 127
5, 358912, Note_off_c, 3, 65, 80
5, 358912, Note_on_c, 3, 65, 127
5, 364544, Note_off_c, 3, 65, 80
5, 442368, Note_on_c, 3, 65, 127
5, 442880, Note_off_c, 3, 65, 80
5, 442880, Note_on_c, 3, 60, 127
5, 443392, Note_off_c, 3, 60, 80
5, 443392, Note_on_c, 3, 65, 127
5, 446464, Note_off_c, 3, 65, 80
5, 460288, Note_on_c, 3, 65, 127
5, 460800, Note_off_c, 3, 65, 80
5, 460800, Note_on_c, 3, 60, 127
5, 461312, Note_off_c, 3, 60, 80
5, 461312, Note_on_c, 3, 65, 127
5, 462848, Note_off_c, 3, 65, 80
5, 480768, Note_on_c, 3, 65, 127
5, 481280, Note_off_c, 3, 65, 80
5, 481280, Note_on_c, 3, 60, 127
5, 481792, Note_off_c, 3, 60, 80
5, 481792, Note_on_c, 3, 65, 127
5, 491520, Note_off_c, 3, 65, 80
5, 491520, End_track
6, 0, Start_track
6, 0, Sequencer_specific, 5, 5, 15, 9, 0, 64
6, 0, Sequencer_specific, 15, 5, 15, 6, 71, 101, 110, 101, 114, 97, 108, 32, 77, 73, 68, 73
6, 0, Title_t, "Bass"
6, 1280, Pitch_bend_c, 4, 8192
6, 1280, Program_c, 4, 33
6, 1280, Control_c, 4, 7, 127
6, 1280, Control_c, 4, 10, 72
6, 1280, Control_c, 4, 93, 0
6, 1280, Control_c, 4, 91, 0
6, 1280, Control_c, 4, 92, 0
6, 1280, Control_c, 4, 95, 0
6, 2048, Note_on_c, 4, 36, 95
6, 3584, Note_off_c, 4, 36, 80
6, 3584, Note_on_c, 4, 36, 95
6, 4608, Note_off_c, 4, 36, 80
6, 4608, Note_on_c, 4, 36, 95
6, 5120, Note_off_c, 4, 36, 80
6, 5120, Note_on_c, 4, 36, 95
6, 5632, Note_off_c, 4, 36, 80
6, 5632, Note_on_c, 4, 37, 95
6, 6656, Note_off_c, 4, 37, 80
6, 6656, Note_on_c, 4, 37, 95
6, 7680, Note_off_c, 4, 37, 80
6, 7680, Note_on_c, 4, 39, 95
6, 8704, Note_off_c, 4, 39, 80
6, 8704, Note_on_c, 4, 39, 95
6, 9728, Note_off_c, 4, 39, 80
6, 9728, Note_on_c, 4, 39, 95
6, 10240, Note_off_c, 4, 39, 80
6, 10240, Note_on_c, 4, 41, 95
6, 10752, Note_off_c, 4, 41, 80
6, 10752, Note_on_c, 4, 39, 95
6, 11264, Note_off_c, 4, 39, 80
6, 11264, Note_on_c, 4, 41, 95
6, 12288, Note_off_c, 4, 41, 80
6, 12288, Note_on_c, 4, 41, 95
6, 13824, Note_off_c, 4, 41, 80
6, 13824, Note_on_c, 4, 36, 95
6, 14848, Note_off_c, 4, 36, 80
6, 14848, Note_on_c, 4, 36, 95
6, 15872, Note_off_c, 4, 36, 80
6, 15872, Note_on_c, 4, 37, 95
6, 16896, Note_off_c, 4, 37, 80
6, 16896, Note_on_c, 4, 37, 95
6, 17920, Note_off_c, 4, 37, 80
6, 17920, Note_on_c, 4, 39, 95
6, 18944, Note_off_c, 4, 39, 80
6, 18944, Note_on_c, 4, 39, 95
6, 20480, Note_off_c, 4, 39, 80
6, 20480, Note_on_c, 4, 41, 95
6, 20992, Note_off_c, 4, 41, 80
6, 20992, Note_on_c, 4, 39, 95
6, 21504, Note_off_c, 4, 39, 80
6, 21504, Note_on_c, 4, 41, 95
6, 22528, Note_off_c, 4, 41, 80
6, 22528, Note_on_c, 4, 41, 95
6, 24064, Note_off_c, 4, 41, 80
6, 24064, Note_on_c, 4, 36, 95
6, 25088, Note_off_c, 4, 36, 80
6, 25088, Note_on_c, 4, 36, 95
6, 26112, Note_off_c, 4, 36, 80
6, 26112, Note_on_c, 4, 37, 95
6, 27136, Note_off_c, 4, 37, 80
6, 27136, Note_on_c, 4, 37, 95
6, 28160, Note_off_c, 4, 37, 80
6, 28160, Note_on_c, 4, 39, 95
6, 29184, Note_off_c, 4, 39, 80
6, 29184, Note_on_c, 4, 39, 95
6, 30720, Note_off_c, 4, 39, 80
6, 30720, Note_on_c, 4, 41, 95
6, 31232, Note_off_c, 4, 41, 80
6, 31232, Note_on_c, 4, 39, 95
6, 31744, Note_off_c, 4, 39, 80
6, 31744, Note_on_c, 4, 41, 95
6, 32768, Note_off_c, 4, 41, 80
6, 32768, Note_on_c, 4, 41, 95
6, 34304, Note_off_c, 4, 41, 80
6, 34304, Note_on_c, 4, 36, 95
6, 35328, Note_off_c, 4, 36, 80
6, 35328, Note_on_c, 4, 36, 95
6, 36352, Note_off_c, 4, 36, 80
6, 36352, Note_on_c, 4, 37, 95
6, 37376, Note_off_c, 4, 37, 80
6, 37376, Note_on_c, 4, 37, 95
6, 38400, Note_off_c, 4, 37, 80
6, 38400, Note_on_c, 4, 39, 95
6, 39424, Note_off_c, 4, 39, 80
6, 39424, Note_on_c, 4, 39, 95
6, 40960, Note_off_c, 4, 39, 80
6, 40960, Note_on_c, 4, 41, 95
6, 41472, Note_off_c, 4, 41, 80
6, 41472, Note_on_c, 4, 39, 95
6, 41984, Note_off_c, 4, 39, 80
6, 41984, Note_on_c, 4, 41, 95
6, 43008, Note_off_c, 4, 41, 80
6, 43008, Note_on_c, 4, 41, 95
6, 44544, Note_off_c, 4, 41, 80
6, 44544, Note_on_c, 4, 36, 95
6, 45568, Note_off_c, 4, 36, 80
6, 45568, Note_on_c, 4, 36, 95
6, 46592, Note_off_c, 4, 36, 80
6, 46592, Note_on_c, 4, 37, 95
6, 47616, Note_off_c, 4, 37, 80
6, 47616, Note_on_c, 4, 37, 95
6, 48640, Note_off_c, 4, 37, 80
6, 48640, Note_on_c, 4, 39, 95
6, 49664, Note_off_c, 4, 39, 80
6, 49664, Note_on_c, 4, 39, 95
6, 51200, Note_off_c, 4, 39, 80
6, 51200, Note_on_c, 4, 41, 95
6, 51712, Note_off_c, 4, 41, 80
6, 51712, Note_on_c, 4, 39, 95
6, 52224, Note_off_c, 4, 39, 80
6, 52224, Note_on_c, 4, 41, 95
6, 53248, Note_off_c, 4, 41, 80
6, 53248, Note_on_c, 4, 41, 95
6, 54784, Note_off_c, 4, 41, 80
6, 54784, Note_on_c, 4, 36, 95
6, 55808, Note_off_c, 4, 36, 80
6, 55808, Note_on_c, 4, 36, 95
6, 56832, Note_off_c, 4, 36, 80
6, 56832, Note_on_c, 4, 37, 95
6, 57856, Note_off_c, 4, 37, 80
6, 57856, Note_on_c, 4, 37, 95
6, 58880, Note_off_c, 4, 37, 80
6, 58880, Note_on_c, 4, 39, 95
6, 59904, Note_off_c, 4, 39, 80
6, 59904, Note_on_c, 4, 39, 95
6, 61440, Note_off_c, 4, 39, 80
6, 61440, Note_on_c, 4, 41, 95
6, 61952, Note_off_c, 4, 41, 80
6, 61952, Note_on_c, 4, 39, 95
6, 62464, Note_off_c, 4, 39, 80
6, 62464, Note_on_c, 4, 41, 95
6, 63488, Note_off_c, 4, 41, 80
6, 63488, Note_on_c, 4, 41, 95
6, 65024, Note_off_c, 4, 41, 80
6, 65024, Note_on_c, 4, 36, 95
6, 66048, Note_off_c, 4, 36, 80
6, 66048, Note_on_c, 4, 36, 95
6, 67072, Note_off_c, 4, 36, 80
6, 67072, Note_on_c, 4, 37, 95
6, 68096, Note_off_c, 4, 37, 80
6, 68096, Note_on_c, 4, 37, 95
6, 69120, Note_off_c, 4, 37, 80
6, 69120, Note_on_c, 4, 39, 95
6, 70144, Note_off_c, 4, 39, 80
6, 70144, Note_on_c, 4, 39, 95
6, 71680, Note_off_c, 4, 39, 80
6, 71680, Note_on_c, 4, 41, 95
6, 72192, Note_off_c, 4, 41, 80
6, 72192, Note_on_c, 4, 39, 95
6, 72704, Note_off_c, 4, 39, 80
6, 72704, Note_on_c, 4, 41, 95
6, 73728, Note_off_c, 4, 41, 80
6, 73728, Note_on_c, 4, 41, 95
6, 75264, Note_off_c, 4, 41, 80
6, 75264, Note_on_c, 4, 36, 95
6, 76288, Note_off_c, 4, 36, 80
6, 76288, Note_on_c, 4, 36, 95
6, 77312, Note_off_c, 4, 36, 80
6, 77312, Note_on_c, 4, 37, 95
6, 78336, Note_off_c, 4, 37, 80
6, 78336, Note_on_c, 4, 37, 95
6, 79360, Note_off_c, 4, 37, 80
6, 79360, Note_on_c, 4, 39, 95
6, 80384, Note_off_c, 4, 39, 80
6, 80384, Note_on_c, 4, 39, 95
6, 81920, Note_off_c, 4, 39, 80
6, 81920, Note_on_c, 4, 41, 95
6, 82432, Note_off_c, 4, 41, 80
6, 82432, Note_on_c, 4, 39, 95
6, 82944, Note_off_c, 4, 39, 80
6, 82944, Note_on_c, 4, 41, 95
6, 83968, Note_off_c, 4, 41, 80
6, 83968, Note_on_c, 4, 41, 95
6, 85504, Note_off_c, 4, 41, 80
6, 85504, Note_on_c, 4, 36, 95
6, 86528, Note_off_c, 4, 36, 80
6, 86528, Note_on_c, 4, 36, 95
6, 87552, Note_off_c, 4, 36, 80
6, 87552, Note_on_c, 4, 37, 95
6, 88576, Note_off_c, 4, 37, 80
6, 88576, Note_on_c, 4, 37, 95
6, 89600, Note_off_c, 4, 37, 80
6, 89600, Note_on_c, 4, 39, 95
6, 90624, Note_off_c, 4, 39, 80
6, 90624, Note_on_c, 4, 39, 95
6, 92160, Note_off_c, 4, 39, 80
6, 92160, Note_on_c, 4, 41, 95
6, 92672, Note_off_c, 4, 41, 80
6, 92672, Note_on_c, 4, 39, 95
6, 93184, Note_off_c, 4, 39, 80
6, 93184, Note_on_c, 4, 41, 95
6, 94208, Note_off_c, 4, 41, 80
6, 94208, Note_on_c, 4, 41, 95
6, 95744, Note_off_c, 4, 41, 80
6, 95744, Note_on_c, 4, 36, 95
6, 96768, Note_off_c, 4, 36, 80
6, 96768, Note_on_c, 4, 36, 95
6, 97792, Note_off_c, 4, 36, 80
6, 97792, Note_on_c, 4, 37, 95
6, 98816, Note_off_c, 4, 37, 80
6, 98816, Note_on_c, 4, 37, 95
6, 99840, Note_off_c, 4, 37, 80
6, 99840, Note_on_c, 4, 39, 95
6, 100864, Note_off_c, 4, 39, 80
6, 100864, Note_on_c, 4, 39, 95
6, 102400, Note_off_c, 4, 39, 80
6, 102400, Note_on_c, 4, 41, 95
6, 102912, Note_off_c, 4, 41, 80
6, 102912, Note_on_c, 4, 39, 95
6, 103424, Note_off_c, 4, 39, 80
6, 103424, Note_on_c, 4, 41, 95
6, 104448, Note_off_c, 4, 41, 80
6, 104448, Note_on_c, 4, 41, 95
6, 105984, Note_off_c, 4, 41, 80
6, 105984, Note_on_c, 4, 36, 95
6, 107008, Note_off_c, 4, 36, 80
6, 107008, Note_on_c, 4, 36, 95
6, 108032, Note_off_c, 4, 36, 80
6, 108032, Note_on_c, 4, 37, 95
6, 109056, Note_off_c, 4, 37, 80
6, 109056, Note_on_c, 4, 37, 95
6, 110080, Note_off_c, 4, 37, 80
6, 110080, Note_on_c, 4, 39, 95
6, 111104, Note_off_c, 4, 39, 80
6, 111104, Note_on_c, 4, 39, 95
6, 112640, Note_off_c, 4, 39, 80
6, 112640, Note_on_c, 4, 41, 95
6, 113152, Note_off_c, 4, 41, 80
6, 113152, Note_on_c, 4, 39, 95
6, 113664, Note_off_c, 4, 39, 80
6, 113664, Note_on_c, 4, 41, 95
6, 114688, Note_off_c, 4, 41, 80
6, 114688, Note_on_c, 4, 41, 95
6, 116224, Note_off_c, 4, 41, 80
6, 116224, Note_on_c, 4, 36, 95
6, 117248, Note_off_c, 4, 36, 80
6, 117248, Note_on_c, 4, 36, 95
6, 118272, Note_off_c, 4, 36, 80
6, 118272, Note_on_c, 4, 37, 95
6, 119296, Note_off_c, 4, 37, 80
6, 119296, Note_on_c, 4, 37, 95
6, 120320, Note_off_c, 4, 37, 80
6, 120320, Note_on_c, 4, 39, 95
6, 121344, Note_off_c, 4, 39, 80
6, 121344, Note_on_c, 4, 39, 95
6, 122880, Note_off_c, 4, 39, 80
6, 122880, Note_on_c, 4, 41, 95
6, 123392, Note_off_c, 4, 41, 80
6, 123392, Note_on_c, 4, 39, 95
6, 123904, Note_off_c, 4, 39, 80
6, 123904, Note_on_c, 4, 41, 95
6, 124928, Note_off_c, 4, 41, 80
6, 124928, Note_on_c, 4, 41, 95
6, 126464, Note_off_c, 4, 41, 80
6, 126464, Note_on_c, 4, 36, 95
6, 127488, Note_off_c, 4, 36, 80
6, 127488, Note_on_c, 4, 36, 95
6, 128512, Note_off_c, 4, 36, 80
6, 128512, Note_on_c, 4, 37, 95
6, 129536, Note_off_c, 4, 37, 80
6, 129536, Note_on_c, 4, 37, 95
6, 130560, Note_off_c, 4, 37, 80
6, 130560, Note_on_c, 4, 39, 95
6, 131584, Note_off_c, 4, 39, 80
6, 131584, Note_on_c, 4, 39, 95
6, 133120, Note_off_c, 4, 39, 80
6, 133120, Note_on_c, 4, 41, 95
6, 133632, Note_off_c, 4, 41, 80
6, 133632, Note_on_c, 4, 39, 95
6, 134144, Note_off_c, 4, 39, 80
6, 134144, Note_on_c, 4, 41, 95
6, 135168, Note_off_c, 4, 41, 80
6, 135168, Note_on_c, 4, 41, 95
6, 136704, Note_off_c, 4, 41, 80
6, 136704, Note_on_c, 4, 36, 95
6, 137728, Note_off_c, 4, 36, 80
6, 137728, Note_on_c, 4, 36, 95
6, 138752, Note_off_c, 4, 36, 80
6, 138752, Note_on_c, 4, 37, 95
6, 139776, Note_off_c, 4, 37, 80
6, 139776, Note_on_c, 4, 37, 95
6, 140800, Note_off_c, 4, 37, 80
6, 140800, Note_on_c, 4, 39, 95
6, 141824, Note_off_c, 4, 39, 80
6, 141824, Note_on_c, 4, 39, 95
6, 143360, Note_off_c, 4, 39, 80
6, 143360, Note_on_c, 4, 41, 95
6, 143872, Note_off_c, 4, 41, 80
6, 143872, Note_on_c, 4, 39, 95
6, 144384, Note_off_c, 4, 39, 80
6, 144384, Note_on_c, 4, 41, 95
6, 145408, Note_off_c, 4, 41, 80
6, 145408, Note_on_c, 4, 41, 95
6, 146944, Note_off_c, 4, 41, 80
6, 146944, Note_on_c, 4, 36, 95
6, 147968, Note_off_c, 4, 36, 80
6, 147968, Note_on_c, 4, 36, 95
6, 148992, Note_off_c, 4, 36, 80
6, 148992, Note_on_c, 4, 37, 95
6, 150016, Note_off_c, 4, 37, 80
6, 150016, Note_on_c, 4, 37, 95
6, 151040, Note_off_c, 4, 37, 80
6, 151040, Note_on_c, 4, 39, 95
6, 152064, Note_off_c, 4, 39, 80
6, 152064, Note_on_c, 4, 39, 95
6, 155648, Note_off_c, 4, 39, 80
6, 155648, Note_on_c, 4, 37, 95
6, 156160, Note_off_c, 4, 37, 80
6, 156160, Note_on_c, 4, 37, 95
6, 156672, Note_off_c, 4, 37, 80
6, 156672, Note_on_c, 4, 37, 95
6, 157184, Note_off_c, 4, 37, 80
6, 157184, Note_on_c, 4, 37, 95
6, 158208, Note_off_c, 4, 37, 80
6, 158208, Note_on_c, 4, 37, 95
6, 159232, Note_off_c, 4, 37, 80
6, 159232, Note_on_c, 4, 37, 95
6, 160256, Note_off_c, 4, 37, 80
6, 160256, Note_on_c, 4, 36, 95
6, 161280, Note_off_c, 4, 36, 80
6, 161280, Note_on_c, 4, 36, 95
6, 162304, Note_off_c, 4, 36, 80
6, 162304, Note_on_c, 4, 39, 95
6, 163328, Note_off_c, 4, 39, 80
6, 163328, Note_on_c, 4, 37, 95
6, 164352, Note_off_c, 4, 37, 80
6, 164352, Note_on_c, 4, 36, 95
6, 165888, Note_off_c, 4, 36, 80
6, 165888, Note_on_c, 4, 37, 95
6, 166400, Note_off_c, 4, 37, 80
6, 166400, Note_on_c, 4, 37, 95
6, 166912, Note_off_c, 4, 37, 80
6, 166912, Note_on_c, 4, 37, 95
6, 167424, Note_off_c, 4, 37, 80
6, 167424, Note_on_c, 4, 37, 95
6, 168448, Note_off_c, 4, 37, 80
6, 168448, Note_on_c, 4, 37, 95
6, 169472, Note_off_c, 4, 37, 80
6, 169472, Note_on_c, 4, 37, 95
6, 170496, Note_off_c, 4, 37, 80
6, 170496, Note_on_c, 4, 36, 95
6, 171520, Note_off_c, 4, 36, 80
6, 171520, Note_on_c, 4, 36, 95
6, 172544, Note_off_c, 4, 36, 80
6, 172544, Note_on_c, 4, 39, 95
6, 173568, Note_off_c, 4, 39, 80
6, 173568, Note_on_c, 4, 37, 95
6, 174592, Note_off_c, 4, 37, 80
6, 174592, Note_on_c, 4, 36, 95
6, 176128, Note_off_c, 4, 36, 80
6, 176128, Note_on_c, 4, 36, 95
6, 176640, Note_off_c, 4, 36, 80
6, 176640, Note_on_c, 4, 37, 95
6, 177152, Note_off_c, 4, 37, 80
6, 177152, Note_on_c, 4, 37, 95
6, 177664, Note_off_c, 4, 37, 80
6, 177664, Note_on_c, 4, 37, 95
6, 178688, Note_off_c, 4, 37, 80
6, 178688, Note_on_c, 4, 37, 95
6, 179712, Note_off_c, 4, 37, 80
6, 179712, Note_on_c, 4, 37, 95
6, 180736, Note_off_c, 4, 37, 80
6, 180736, Note_on_c, 4, 36, 95
6, 181760, Note_off_c, 4, 36, 80
6, 181760, Note_on_c, 4, 36, 95
6, 182784, Note_off_c, 4, 36, 80
6, 182784, Note_on_c, 4, 39, 95
6, 183808, Note_off_c, 4, 39, 80
6, 183808, Note_on_c, 4, 37, 95
6, 184832, Note_off_c, 4, 37, 80
6, 184832, Note_on_c, 4, 36, 95
6, 186368, Note_off_c, 4, 36, 80
6, 186368, Note_on_c, 4, 36, 95
6, 186880, Note_off_c, 4, 36, 80
6, 186880, Note_on_c, 4, 37, 95
6, 187392, Note_off_c, 4, 37, 80
6, 187392, Note_on_c, 4, 37, 95
6, 187904, Note_off_c, 4, 37, 80
6, 187904, Note_on_c, 4, 37, 95
6, 188928, Note_off_c, 4, 37, 80
6, 188928, Note_on_c, 4, 37, 95
6, 189952, Note_off_c, 4, 37, 80
6, 189952, Note_on_c, 4, 37, 95
6, 190976, Note_off_c, 4, 37, 80
6, 190976, Note_on_c, 4, 36, 95
6, 192000, Note_off_c, 4, 36, 80
6, 192000, Note_on_c, 4, 36, 95
6, 193024, Note_off_c, 4, 36, 80
6, 193024, Note_on_c, 4, 39, 95
6, 194048, Note_off_c, 4, 39, 80
6, 194048, Note_on_c, 4, 41, 95
6, 195072, Note_off_c, 4, 41, 80
6, 195072, Note_on_c, 4, 41, 95
6, 196608, Note_off_c, 4, 41, 80
6, 196608, Note_on_c, 4, 41, 95
6, 198144, Note_off_c, 4, 41, 80
6, 198144, Note_on_c, 4, 36, 95
6, 199168, Note_off_c, 4, 36, 80
6, 199168, Note_on_c, 4, 36, 95
6, 200192, Note_off_c, 4, 36, 80
6, 200192, Note_on_c, 4, 37, 95
6, 201216, Note_off_c, 4, 37, 80
6, 201216, Note_on_c, 4, 37, 95
6, 202240, Note_off_c, 4, 37, 80
6, 202240, Note_on_c, 4, 39, 95
6, 203264, Note_off_c, 4, 39, 80
6, 203264, Note_on_c, 4, 39, 95
6, 204800, Note_off_c, 4, 39, 80
6, 204800, Note_on_c, 4, 41, 95
6, 205312, Note_off_c, 4, 41, 80
6, 205312, Note_on_c, 4, 39, 95
6, 205824, Note_off_c, 4, 39, 80
6, 205824, Note_on_c, 4, 41, 95
6, 206848, Note_off_c, 4, 41, 80
6, 206848, Note_on_c, 4, 41, 95
6, 208384, Note_off_c, 4, 41, 80
6, 208384, Note_on_c, 4, 36, 95
6, 209408, Note_off_c, 4, 36, 80
6, 209408, Note_on_c, 4, 36, 95
6, 210432, Note_off_c, 4, 36, 80
6, 210432, Note_on_c, 4, 37, 95
6, 211456, Note_off_c, 4, 37, 80
6, 211456, Note_on_c, 4, 37, 95
6, 212480, Note_off_c, 4, 37, 80
6, 212480, Note_on_c, 4, 39, 95
6, 213504, Note_off_c, 4, 39, 80
6, 213504, Note_on_c, 4, 39, 95
6, 215040, Note_off_c, 4, 39, 80
6, 215040, Note_on_c, 4, 41, 95
6, 215552, Note_off_c, 4, 41, 80
6, 215552, Note_on_c, 4, 39, 95
6, 216064, Note_off_c, 4, 39, 80
6, 216064, Note_on_c, 4, 41, 95
6, 217088, Note_off_c, 4, 41, 80
6, 217088, Note_on_c, 4, 41, 95
6, 218624, Note_off_c, 4, 41, 80
6, 218624, Note_on_c, 4, 36, 95
6, 219648, Note_off_c, 4, 36, 80
6, 219648, Note_on_c, 4, 36, 95
6, 220672, Note_off_c, 4, 36, 80
6, 220672, Note_on_c, 4, 37, 95
6, 221696, Note_off_c, 4, 37, 80
6, 221696, Note_on_c, 4, 37, 95
6, 222720, Note_off_c, 4, 37, 80
6, 222720, Note_on_c, 4, 39, 95
6, 223744, Note_off_c, 4, 39, 80
6, 223744, Note_on_c, 4, 39, 95
6, 225280, Note_off_c, 4, 39, 80
6, 225280, Note_on_c, 4, 41, 95
6, 225792, Note_off_c, 4, 41, 80
6, 225792, Note_on_c, 4, 39, 95
6, 226304, Note_off_c, 4, 39, 80
6, 226304, Note_on_c, 4, 41, 95
6, 227328, Note_off_c, 4, 41, 80
6, 227328, Note_on_c, 4, 41, 95
6, 228864, Note_off_c, 4, 41, 80
6, 228864, Note_on_c, 4, 36, 95
6, 229888, Note_off_c, 4, 36, 80
6, 229888, Note_on_c, 4, 36, 95
6, 230912, Note_off_c, 4, 36, 80
6, 230912, Note_on_c, 4, 37, 95
6, 231936, Note_off_c, 4, 37, 80
6, 231936, Note_on_c, 4, 37, 95
6, 232960, Note_off_c, 4, 37, 80
6, 232960, Note_on_c, 4, 39, 95
6, 233984, Note_off_c, 4, 39, 80
6, 233984, Note_on_c, 4, 39, 95
6, 235520, Note_off_c, 4, 39, 80
6, 235520, Note_on_c, 4, 41, 95
6, 236032, Note_off_c, 4, 41, 80
6, 236032, Note_on_c, 4, 39, 95
6, 236544, Note_off_c, 4, 39, 80
6, 236544, Note_on_c, 4, 41, 95
6, 237568, Note_off_c, 4, 41, 80
6, 237568, Note_on_c, 4, 41, 95
6, 239104, Note_off_c, 4, 41, 80
6, 239104, Note_on_c, 4, 36, 95
6, 240128, Note_off_c, 4, 36, 80
6, 240128, Note_on_c, 4, 36, 95
6, 241152, Note_off_c, 4, 36, 80
6, 241152, Note_on_c, 4, 37, 95
6, 242176, Note_off_c, 4, 37, 80
6, 242176, Note_on_c, 4, 37, 95
6, 243200, Note_off_c, 4, 37, 80
6, 243200, Note_on_c, 4, 39, 95
6, 244224, Note_off_c, 4, 39, 80
6, 244224, Note_on_c, 4, 39, 95
6, 245760, Note_off_c, 4, 39, 80
6, 245760, Note_on_c, 4, 41, 95
6, 246272, Note_off_c, 4, 41, 80
6, 246272, Note_on_c, 4, 39, 95
6, 246784, Note_off_c, 4, 39, 80
6, 246784, Note_on_c, 4, 41, 95
6, 247808, Note_off_c, 4, 41, 80
6, 247808, Note_on_c, 4, 41, 95
6, 249344, Note_off_c, 4, 41, 80
6, 249344, Note_on_c, 4, 36, 95
6, 250368, Note_off_c, 4, 36, 80
6, 250368, Note_on_c, 4, 36, 95
6, 251392, Note_off_c, 4, 36, 80
6, 251392, Note_on_c, 4, 37, 95
6, 252416, Note_off_c, 4, 37, 80
6, 252416, Note_on_c, 4, 37, 95
6, 253440, Note_off_c, 4, 37, 80
6, 253440, Note_on_c, 4, 39, 95
6, 254464, Note_off_c, 4, 39, 80
6, 254464, Note_on_c, 4, 39, 95
6, 256000, Note_off_c, 4, 39, 80
6, 256000, Note_on_c, 4, 41, 95
6, 256512, Note_off_c, 4, 41, 80
6, 256512, Note_on_c, 4, 39, 95
6, 257024, Note_off_c, 4, 39, 80
6, 257024, Note_on_c, 4, 41, 95
6, 258048, Note_off_c, 4, 41, 80
6, 258048, Note_on_c, 4, 41, 95
6, 259584, Note_off_c, 4, 41, 80
6, 259584, Note_on_c, 4, 36, 95
6, 260608, Note_off_c, 4, 36, 80
6, 260608, Note_on_c, 4, 36, 95
6, 261632, Note_off_c, 4, 36, 80
6, 261632, Note_on_c, 4, 37, 95
6, 262656, Note_off_c, 4, 37, 80
6, 262656, Note_on_c, 4, 37, 95
6, 263680, Note_off_c, 4, 37, 80
6, 263680, Note_on_c, 4, 39, 95
6, 264704, Note_off_c, 4, 39, 80
6, 264704, Note_on_c, 4, 39, 95
6, 266240, Note_off_c, 4, 39, 80
6, 266240, Note_on_c, 4, 41, 95
6, 266752, Note_off_c, 4, 41, 80
6, 266752, Note_on_c, 4, 39, 95
6, 267264, Note_off_c, 4, 39, 80
6, 267264, Note_on_c, 4, 41, 95
6, 268288, Note_off_c, 4, 41, 80
6, 268288, Note_on_c, 4, 41, 95
6, 269824, Note_off_c, 4, 41, 80
6, 269824, Note_on_c, 4, 36, 95
6, 270848, Note_off_c, 4, 36, 80
6, 270848, Note_on_c, 4, 36, 95
6, 271872, Note_off_c, 4, 36, 80
6, 271872, Note_on_c, 4, 37, 95
6, 272896, Note_off_c, 4, 37, 80
6, 272896, Note_on_c, 4, 37, 95
6, 273920, Note_off_c, 4, 37, 80
6, 273920, Note_on_c, 4, 39, 95
6, 274944, Note_off_c, 4, 39, 80
6, 274944, Note_on_c, 4, 39, 95
6, 278528, Note_off_c, 4, 39, 80
6, 278528, Note_on_c, 4, 37, 95
6, 279040, Note_off_c, 4, 37, 80
6, 279040, Note_on_c, 4, 37, 95
6, 279552, Note_off_c, 4, 37, 80
6, 279552, Note_on_c, 4, 37, 95
6, 280064, Note_off_c, 4, 37, 80
6, 280064, Note_on_c, 4, 37, 95
6, 281088, Note_off_c, 4, 37, 80
6, 281088, Note_on_c, 4, 37, 95
6, 282112, Note_off_c, 4, 37, 80
6, 282112, Note_on_c, 4, 37, 95
6, 283136, Note_off_c, 4, 37, 80
6, 283136, Note_on_c, 4, 36, 95
6, 284160, Note_off_c, 4, 36, 80
6, 284160, Note_on_c, 4, 36, 95
6, 285184, Note_off_c, 4, 36, 80
6, 285184, Note_on_c, 4, 39, 95
6, 286208, Note_off_c, 4, 39, 80
6, 286208, Note_on_c, 4, 37, 95
6, 287232, Note_off_c, 4, 37, 80
6, 287232, Note_on_c, 4, 36, 95
6, 288768, Note_off_c, 4, 36, 80
6, 288768, Note_on_c, 4, 37, 95
6, 289280, Note_off_c, 4, 37, 80
6, 289280, Note_on_c, 4, 37, 95
6, 289792, Note_off_c, 4, 37, 80
6, 289792, Note_on_c, 4, 37, 95
6, 290304, Note_off_c, 4, 37, 80
6, 290304, Note_on_c, 4, 37, 95
6, 291328, Note_off_c, 4, 37, 80
6, 291328, Note_on_c, 4, 37, 95
6, 292352, Note_off_c, 4, 37, 80
6, 292352, Note_on_c, 4, 37, 95
6, 293376, Note_off_c, 4, 37, 80
6, 293376, Note_on_c, 4, 36, 95
6, 294400, Note_off_c, 4, 36, 80
6, 294400, Note_on_c, 4, 36, 95
6, 295424, Note_off_c, 4, 36, 80
6, 295424, Note_on_c, 4, 39, 95
6, 296448, Note_off_c, 4, 39, 80
6, 296448, Note_on_c, 4, 37, 95
6, 297472, Note_off_c, 4, 37, 80
6, 297472, Note_on_c, 4, 36, 95
6, 299008, Note_off_c, 4, 36, 80
6, 299008, Note_on_c, 4, 37, 95
6, 299520, Note_off_c, 4, 37, 80
6, 299520, Note_on_c, 4, 37, 95
6, 300032, Note_off_c, 4, 37, 80
6, 300032, Note_on_c, 4, 37, 95
6, 300544, Note_off_c, 4, 37, 80
6, 300544, Note_on_c, 4, 37, 95
6, 301568, Note_off_c, 4, 37, 80
6, 301568, Note_on_c, 4, 37, 95
6, 302592, Note_off_c, 4, 37, 80
6, 302592, Note_on_c, 4, 37, 95
6, 303616, Note_off_c, 4, 37, 80
6, 303616, Note_on_c, 4, 36, 95
6, 304640, Note_off_c, 4, 36, 80
6, 304640, Note_on_c, 4, 36, 95
6, 305664, Note_off_c, 4, 36, 80
6, 305664, Note_on_c, 4, 39, 95
6, 306688, Note_off_c, 4, 39, 80
6, 306688, Note_on_c, 4, 37, 95
6, 307712, Note_off_c, 4, 37, 80
6, 307712, Note_on_c, 4, 36, 95
6, 309248, Note_off_c, 4, 36, 80
6, 309248, Note_on_c, 4, 37, 95
6, 309760, Note_off_c, 4, 37, 80
6, 309760, Note_on_c, 4, 37, 95
6, 310272, Note_off_c, 4, 37, 80
6, 310272, Note_on_c, 4, 37, 95
6, 310784, Note_off_c, 4, 37, 80
6, 310784, Note_on_c, 4, 37, 95
6, 311808, Note_off_c, 4, 37, 80
6, 311808, Note_on_c, 4, 37, 95
6, 312832, Note_off_c, 4, 37, 80
6, 312832, Note_on_c, 4, 37, 95
6, 313856, Note_off_c, 4, 37, 80
6, 313856, Note_on_c, 4, 36, 95
6, 314880, Note_off_c, 4, 36, 80
6, 314880, Note_on_c, 4, 36, 95
6, 315904, Note_off_c, 4, 36, 80
6, 315904, Note_on_c, 4, 39, 95
6, 316928, Note_off_c, 4, 39, 80
6, 316928, Note_on_c, 4, 37, 95
6, 317952, Note_off_c, 4, 37, 80
6, 317952, Note_on_c, 4, 36, 95
6, 319488, Note_off_c, 4, 36, 80
6, 319488, Note_on_c, 4, 37, 95
6, 320000, Note_off_c, 4, 37, 80
6, 320000, Note_on_c, 4, 37, 95
6, 320512, Note_off_c, 4, 37, 80
6, 320512, Note_on_c, 4, 37, 95
6, 321024, Note_off_c, 4, 37, 80
6, 321024, Note_on_c, 4, 37, 95
6, 322048, Note_off_c, 4, 37, 80
6, 322048, Note_on_c, 4, 37, 95
6, 323072, Note_off_c, 4, 37, 80
6, 323072, Note_on_c, 4, 37, 95
6, 324096, Note_off_c, 4, 37, 80
6, 324096, Note_on_c, 4, 36, 95
6, 325120, Note_off_c, 4, 36, 80
6, 325120, Note_on_c, 4, 36, 95
6, 326144, Note_off_c, 4, 36, 80
6, 326144, Note_on_c, 4, 39, 95
6, 327168, Note_off_c, 4, 39, 80
6, 327168, Note_on_c, 4, 37, 95
6, 328192, Note_off_c, 4, 37, 80
6, 328192, Note_on_c, 4, 36, 95
6, 329728, Note_off_c, 4, 36, 80
6, 329728, Note_on_c, 4, 37, 95
6, 330240, Note_off_c, 4, 37, 80
6, 330240, Note_on_c, 4, 37, 95
6, 330752, Note_off_c, 4, 37, 80
6, 330752, Note_on_c, 4, 37, 95
6, 331264, Note_off_c, 4, 37, 80
6, 331264, Note_on_c, 4, 37, 95
6, 332288, Note_off_c, 4, 37, 80
6, 332288, Note_on_c, 4, 37, 95
6, 333312, Note_off_c, 4, 37, 80
6, 333312, Note_on_c, 4, 37, 95
6, 334336, Note_off_c, 4, 37, 80
6, 334336, Note_on_c, 4, 36, 95
6, 335360, Note_off_c, 4, 36, 80
6, 335360, Note_on_c, 4, 36, 95
6, 336384, Note_off_c, 4, 36, 80
6, 336384, Note_on_c, 4, 39, 95
6, 337408, Note_off_c, 4, 39, 80
6, 337408, Note_on_c, 4, 37, 95
6, 338432, Note_off_c, 4, 37, 80
6, 338432, Note_on_c, 4, 36, 95
6, 339968, Note_off_c, 4, 36, 80
6, 339968, Note_on_c, 4, 37, 95
6, 340480, Note_off_c, 4, 37, 80
6, 340480, Note_on_c, 4, 37, 95
6, 340992, Note_off_c, 4, 37, 80
6, 340992, Note_on_c, 4, 37, 95
6, 341504, Note_off_c, 4, 37, 80
6, 341504, Note_on_c, 4, 37, 95
6, 342528, Note_off_c, 4, 37, 80
6, 342528, Note_on_c, 4, 37, 95
6, 343552, Note_off_c, 4, 37, 80
6, 343552, Note_on_c, 4, 37, 95
6, 344576, Note_off_c, 4, 37, 80
6, 344576, Note_on_c, 4, 36, 95
6, 345600, Note_off_c, 4, 36, 80
6, 345600, Note_on_c, 4, 36, 95
6, 346624, Note_off_c, 4, 36, 80
6, 346624, Note_on_c, 4, 39, 95
6, 347648, Note_off_c, 4, 39, 80
6, 347648, Note_on_c, 4, 37, 95
6, 348672, Note_off_c, 4, 37, 80
6, 348672, Note_on_c, 4, 36, 95
6, 350208, Note_off_c, 4, 36, 80
6, 350208, Note_on_c, 4, 37, 95
6, 350720, Note_off_c, 4, 37, 80
6, 350720, Note_on_c, 4, 37, 95
6, 351232, Note_off_c, 4, 37, 80
6, 351232, Note_on_c, 4, 37, 95
6, 351744, Note_off_c, 4, 37, 80
6, 351744, Note_on_c, 4, 37, 95
6, 352768, Note_off_c, 4, 37, 80
6, 352768, Note_on_c, 4, 37, 95
6, 353792, Note_off_c, 4, 37, 80
6, 353792, Note_on_c, 4, 37, 95
6, 354816, Note_off_c, 4, 37, 80
6, 354816, Note_on_c, 4, 36, 95
6, 355840, Note_off_c, 4, 36, 80
6, 355840, Note_on_c, 4, 36, 95
6, 356864, Note_off_c, 4, 36, 80
6, 356864, Note_on_c, 4, 39, 95
6, 357888, Note_off_c, 4, 39, 80
6, 357888, Note_on_c, 4, 41, 95
6, 358912, Note_off_c, 4, 41, 80
6, 358912, Note_on_c, 4, 41, 95
6, 360448, Note_off_c, 4, 41, 80
6, 360448, Note_on_c, 4, 41, 95
6, 361984, Note_off_c, 4, 41, 80
6, 361984, Note_on_c, 4, 36, 95
6, 363008, Note_off_c, 4, 36, 80
6, 363008, Note_on_c, 4, 36, 95
6, 364032, Note_off_c, 4, 36, 80
6, 364032, Note_on_c, 4, 37, 95
6, 365056, Note_off_c, 4, 37, 80
6, 365056, Note_on_c, 4, 37, 95
6, 366080, Note_off_c, 4, 37, 80
6, 366080, Note_on_c, 4, 39, 95
6, 367104, Note_off_c, 4, 39, 80
6, 367104, Note_on_c, 4, 39, 95
6, 368640, Note_off_c, 4, 39, 80
6, 368640, Note_on_c, 4, 41, 95
6, 369152, Note_off_c, 4, 41, 80
6, 369152, Note_on_c, 4, 39, 95
6, 369664, Note_off_c, 4, 39, 80
6, 369664, Note_on_c, 4, 41, 95
6, 370688, Note_off_c, 4, 41, 80
6, 370688, Note_on_c, 4, 41, 95
6, 372224, Note_off_c, 4, 41, 80
6, 372224, Note_on_c, 4, 36, 95
6, 373248, Note_off_c, 4, 36, 80
6, 373248, Note_on_c, 4, 36, 95
6, 374272, Note_off_c, 4, 36, 80
6, 374272, Note_on_c, 4, 37, 95
6, 375296, Note_off_c, 4, 37, 80
6, 375296, Note_on_c, 4, 37, 95
6, 376320, Note_off_c, 4, 37, 80
6, 376320, Note_on_c, 4, 39, 95
6, 377344, Note_off_c, 4, 39, 80
6, 377344, Note_on_c, 4, 39, 95
6, 378880, Note_off_c, 4, 39, 80
6, 378880, Note_on_c, 4, 41, 95
6, 379392, Note_off_c, 4, 41, 80
6, 379392, Note_on_c, 4, 39, 95
6, 379904, Note_off_c, 4, 39, 80
6, 379904, Note_on_c, 4, 41, 95
6, 380928, Note_off_c, 4, 41, 80
6, 380928, Note_on_c, 4, 41, 95
6, 382464, Note_off_c, 4, 41, 80
6, 382464, Note_on_c, 4, 36, 95
6, 383488, Note_off_c, 4, 36, 80
6, 383488, Note_on_c, 4, 36, 95
6, 384512, Note_off_c, 4, 36, 80
6, 384512, Note_on_c, 4, 37, 95
6, 385536, Note_off_c, 4, 37, 80
6, 385536, Note_on_c, 4, 37, 95
6, 386560, Note_off_c, 4, 37, 80
6, 386560, Note_on_c, 4, 39, 95
6, 387584, Note_off_c, 4, 39, 80
6, 387584, Note_on_c, 4, 39, 95
6, 389120, Note_off_c, 4, 39, 80
6, 389120, Note_on_c, 4, 41, 95
6, 389632, Note_off_c, 4, 41, 80
6, 389632, Note_on_c, 4, 39, 95
6, 390144, Note_off_c, 4, 39, 80
6, 390144, Note_on_c, 4, 41, 95
6, 391168, Note_off_c, 4, 41, 80
6, 391168, Note_on_c, 4, 41, 95
6, 392704, Note_off_c, 4, 41, 80
6, 392704, Note_on_c, 4, 36, 95
6, 393728, Note_off_c, 4, 36, 80
6, 393728, Note_on_c, 4, 36, 95
6, 394752, Note_off_c, 4, 36, 80
6, 394752, Note_on_c, 4, 37, 95
6, 395776, Note_off_c, 4, 37, 80
6, 395776, Note_on_c, 4, 37, 95
6, 396800, Note_off_c, 4, 37, 80
6, 396800, Note_on_c, 4, 39, 95
6, 397824, Note_off_c, 4, 39, 80
6, 397824, Note_on_c, 4, 39, 95
6, 399360, Note_off_c, 4, 39, 80
6, 399360, Note_on_c, 4, 41, 95
6, 399872, Note_off_c, 4, 41, 80
6, 399872, Note_on_c, 4, 39, 95
6, 400384, Note_off_c, 4, 39, 80
6, 400384, Note_on_c, 4, 41, 95
6, 401408, Note_off_c, 4, 41, 80
6, 401408, Note_on_c, 4, 41, 95
6, 402944, Note_off_c, 4, 41, 80
6, 402944, Note_on_c, 4, 36, 95
6, 403968, Note_off_c, 4, 36, 80
6, 403968, Note_on_c, 4, 36, 95
6, 404992, Note_off_c, 4, 36, 80
6, 404992, Note_on_c, 4, 37, 95
6, 406016, Note_off_c, 4, 37, 80
6, 406016, Note_on_c, 4, 37, 95
6, 407040, Note_off_c, 4, 37, 80
6, 407040, Note_on_c, 4, 39, 95
6, 408064, Note_off_c, 4, 39, 80
6, 408064, Note_on_c, 4, 39, 95
6, 409600, Note_off_c, 4, 39, 80
6, 409600, Note_on_c, 4, 41, 95
6, 410112, Note_off_c, 4, 41, 80
6, 410112, Note_on_c, 4, 39, 95
6, 410624, Note_off_c, 4, 39, 80
6, 410624, Note_on_c, 4, 41, 95
6, 411648, Note_off_c, 4, 41, 80
6, 411648, Note_on_c, 4, 41, 95
6, 413184, Note_off_c, 4, 41, 80
6, 413184, Note_on_c, 4, 36, 95
6, 414208, Note_off_c, 4, 36, 80
6, 414208, Note_on_c, 4, 36, 95
6, 415232, Note_off_c, 4, 36, 80
6, 415232, Note_on_c, 4, 37, 95
6, 416256, Note_off_c, 4, 37, 80
6, 416256, Note_on_c, 4, 37, 95
6, 417280, Note_off_c, 4, 37, 80
6, 417280, Note_on_c, 4, 39, 95
6, 418304, Note_off_c, 4, 39, 80
6, 418304, Note_on_c, 4, 39, 95
6, 419840, Note_off_c, 4, 39, 80
6, 419840, Note_on_c, 4, 41, 95
6, 420352, Note_off_c, 4, 41, 80
6, 420352, Note_on_c, 4, 39, 95
6, 420864, Note_off_c, 4, 39, 80
6, 420864, Note_on_c, 4, 41, 95
6, 421888, Note_off_c, 4, 41, 80
6, 421888, Note_on_c, 4, 41, 95
6, 423424, Note_off_c, 4, 41, 80
6, 423424, Note_on_c, 4, 36, 95
6, 424448, Note_off_c, 4, 36, 80
6, 424448, Note_on_c, 4, 36, 95
6, 425472, Note_off_c, 4, 36, 80
6, 425472, Note_on_c, 4, 37, 95
6, 426496, Note_off_c, 4, 37, 80
6, 426496, Note_on_c, 4, 37, 95
6, 427520, Note_off_c, 4, 37, 80
6, 427520, Note_on_c, 4, 39, 95
6, 428544, Note_off_c, 4, 39, 80
6, 428544, Note_on_c, 4, 39, 95
6, 430080, Note_off_c, 4, 39, 80
6, 430080, Note_on_c, 4, 41, 95
6, 430592, Note_off_c, 4, 41, 80
6, 430592, Note_on_c, 4, 39, 95
6, 431104, Note_off_c, 4, 39, 80
6, 431104, Note_on_c, 4, 41, 95
6, 432128, Note_off_c, 4, 41, 80
6, 432128, Note_on_c, 4, 41, 95
6, 433664, Note_off_c, 4, 41, 80
6, 433664, Note_on_c, 4, 36, 95
6, 434688, Note_off_c, 4, 36, 80
6, 434688, Note_on_c, 4, 36, 95
6, 435712, Note_off_c, 4, 36, 80
6, 435712, Note_on_c, 4, 37, 95
6, 436736, Note_off_c, 4, 37, 80
6, 436736, Note_on_c, 4, 37, 95
6, 437760, Note_off_c, 4, 37, 80
6, 437760, Note_on_c, 4, 39, 95
6, 438784, Note_off_c, 4, 39, 80
6, 438784, Note_on_c, 4, 39, 95
6, 440320, Note_off_c, 4, 39, 80
6, 440320, Note_on_c, 4, 41, 95
6, 440832, Note_off_c, 4, 41, 80
6, 440832, Note_on_c, 4, 39, 95
6, 441344, Note_off_c, 4, 39, 80
6, 441344, Note_on_c, 4, 41, 95
6, 442368, Note_off_c, 4, 41, 80
6, 442368, Note_on_c, 4, 41, 95
6, 443904, Note_off_c, 4, 41, 80
6, 443904, Note_on_c, 4, 36, 95
6, 444928, Note_off_c, 4, 36, 80
6, 444928, Note_on_c, 4, 36, 95
6, 445952, Note_off_c, 4, 36, 80
6, 445952, Note_on_c, 4, 37, 95
6, 446976, Note_off_c, 4, 37, 80
6, 446976, Note_on_c, 4, 37, 95
6, 448000, Note_off_c, 4, 37, 80
6, 448000, Note_on_c, 4, 39, 95
6, 449024, Note_off_c, 4, 39, 80
6, 449024, Note_on_c, 4, 39, 95
6, 450560, Note_off_c, 4, 39, 80
6, 450560, Note_on_c, 4, 41, 95
6, 451072, Note_off_c, 4, 41, 80
6, 451072, Note_on_c, 4, 39, 95
6, 451584, Note_off_c, 4, 39, 80
6, 451584, Note_on_c, 4, 41, 95
6, 452608, Note_off_c, 4, 41, 80
6, 452608, Note_on_c, 4, 41, 95
6, 454144, Note_off_c, 4, 41, 80
6, 454144, Note_on_c, 4, 36, 95
6, 455168, Note_off_c, 4, 36, 80
6, 455168, Note_on_c, 4, 36, 95
6, 456192, Note_off_c, 4, 36, 80
6, 456192, Note_on_c, 4, 37, 95
6, 457216, Note_off_c, 4, 37, 80
6, 457216, Note_on_c, 4, 37, 95
6, 458240, Note_off_c, 4, 37, 80
6, 458240, Note_on_c, 4, 39, 95
6, 459264, Note_off_c, 4, 39, 80
6, 459264, Note_on_c, 4, 39, 95
6, 460800, Note_off_c, 4, 39, 80
6, 460800, Note_on_c, 4, 41, 95
6, 461312, Note_off_c, 4, 41, 80
6, 461312, Note_on_c, 4, 39, 95
6, 461824, Note_off_c, 4, 39, 80
6, 461824, Note_on_c, 4, 41, 95
6, 462848, Note_off_c, 4, 41, 80
6, 462848, Note_on_c, 4, 41, 95
6, 464384, Note_off_c, 4, 41, 80
6, 464384, Note_on_c, 4, 36, 95
6, 465408, Note_off_c, 4, 36, 80
6, 465408, Note_on_c, 4, 36, 95
6, 466432, Note_off_c, 4, 36, 80
6, 466432, Note_on_c, 4, 37, 95
6, 467456, Note_off_c, 4, 37, 80
6, 467456, Note_on_c, 4, 37, 95
6, 468480, Note_off_c, 4, 37, 80
6, 468480, Note_on_c, 4, 39, 95
6, 469504, Note_off_c, 4, 39, 80
6, 469504, Note_on_c, 4, 39, 95
6, 471040, Note_off_c, 4, 39, 80
6, 471040, Note_on_c, 4, 41, 95
6, 471552, Note_off_c, 4, 41, 80
6, 471552, Note_on_c, 4, 39, 95
6, 472064, Note_off_c, 4, 39, 80
6, 472064, Note_on_c, 4, 41, 95
6, 473088, Note_off_c, 4, 41, 80
6, 473088, Note_on_c, 4, 41, 95
6, 474624, Note_off_c, 4, 41, 80
6, 474624, Note_on_c, 4, 36, 95
6, 475648, Note_off_c, 4, 36, 80
6, 475648, Note_on_c, 4, 36, 95
6, 476672, Note_off_c, 4, 36, 80
6, 476672, Note_on_c, 4, 37, 95
6, 477696, Note_off_c, 4, 37, 80
6, 477696, Note_on_c, 4, 37, 95
6, 478720, Note_off_c, 4, 37, 80
6, 478720, Note_on_c, 4, 39, 95
6, 479744, Note_off_c, 4, 39, 80
6, 479744, Note_on_c, 4, 39, 95
6, 481280, Note_off_c, 4, 39, 80
6, 481280, Note_on_c, 4, 41, 95
6, 481792, Note_off_c, 4, 41, 80
6, 481792, Note_on_c, 4, 39, 95
6, 482304, Note_off_c, 4, 39, 80
6, 482304, Note_on_c, 4, 41, 95
6, 483328, Note_off_c, 4, 41, 80
6, 483328, Note_on_c, 4, 41, 95
6, 484864, Note_off_c, 4, 41, 80
6, 484864, Note_on_c, 4, 36, 95
6, 485888, Note_off_c, 4, 36, 80
6, 485888, Note_on_c, 4, 36, 95
6, 486912, Note_off_c, 4, 36, 80
6, 486912, Note_on_c, 4, 37, 95
6, 487936, Note_off_c, 4, 37, 80
6, 487936, Note_on_c, 4, 37, 95
6, 488960, Note_off_c, 4, 37, 80
6, 488960, Note_on_c, 4, 39, 95
6, 489984, Note_off_c, 4, 39, 80
6, 489984, Note_on_c, 4, 39, 95
6, 491520, Note_off_c, 4, 39, 80
6, 491520, Note_on_c, 4, 41, 95
6, 492032, Note_off_c, 4, 41, 80
6, 492032, Note_on_c, 4, 39, 95
6, 492544, Note_off_c, 4, 39, 80
6, 492544, Note_on_c, 4, 41, 95
6, 493568, Note_off_c, 4, 41, 80
6, 493568, Note_on_c, 4, 41, 95
6, 495104, Note_off_c, 4, 41, 80
6, 495104, Note_on_c, 4, 36, 95
6, 496128, Note_off_c, 4, 36, 80
6, 496128, Note_on_c, 4, 36, 95
6, 497152, Note_off_c, 4, 36, 80
6, 497152, Note_on_c, 4, 37, 95
6, 498176, Note_off_c, 4, 37, 80
6, 498176, Note_on_c, 4, 37, 95
6, 499200, Note_off_c, 4, 37, 80
6, 499200, Note_on_c, 4, 39, 95
6, 500224, Note_off_c, 4, 39, 80
6, 500224, Note_on_c, 4, 39, 95
6, 501760, Note_off_c, 4, 39, 80
6, 501760, Note_on_c, 4, 41, 95
6, 502272, Note_off_c, 4, 41, 80
6, 502272, Note_on_c, 4, 39, 95
6, 502784, Note_off_c, 4, 39, 80
6, 502784, Note_on_c, 4, 41, 95
6, 503808, Note_off_c, 4, 41, 80
6, 503808, Note_on_c, 4, 41, 95
6, 505344, Note_off_c, 4, 41, 80
6, 505344, Note_on_c, 4, 36, 95
6, 506368, Note_off_c, 4, 36, 80
6, 506368, Note_on_c, 4, 36, 95
6, 507392, Note_off_c, 4, 36, 80
6, 507392, Note_on_c, 4, 37, 95
6, 508416, Note_off_c, 4, 37, 80
6, 508416, Note_on_c, 4, 37, 95
6, 509440, Note_off_c, 4, 37, 80
6, 509440, Note_on_c, 4, 39, 95
6, 510464, Note_off_c, 4, 39, 80
6, 510464, Note_on_c, 4, 39, 95
6, 512000, Note_off_c, 4, 39, 80
6, 512000, Note_on_c, 4, 41, 95
6, 512512, Note_off_c, 4, 41, 80
6, 512512, Note_on_c, 4, 39, 95
6, 513024, Note_off_c, 4, 39, 80
6, 513024, Note_on_c, 4, 41, 95
6, 514048, Note_off_c, 4, 41, 80
6, 514048, Note_on_c, 4, 41, 95
6, 518144, Note_off_c, 4, 41, 80
6, 518144, End_track
7, 0, Start_track
7, 0, Sequencer_specific, 5, 5, 15, 9, 0, 64
7, 0, Sequencer_specific, 15, 5, 15, 6, 71, 101, 110, 101, 114, 97, 108, 32, 77, 73, 68, 73
7, 0, Title_t, "Beat"
7, 2048, Pitch_bend_c, 9, 8192
7, 2048, Program_c, 9, 0
7, 2048, Control_c, 9, 7, 127
7, 2048, Control_c, 9, 10, 64
7, 2048, Control_c, 9, 93, 0
7, 2048, Control_c, 9, 91, 0
7, 2048, Control_c, 9, 92, 0
7, 2048, Control_c, 9, 95, 0
7, 22528, Note_on_c, 9, 35, 47
7, 23552, Note_off_c, 9, 35, 80
7, 23552, Note_on_c, 9, 35, 47
7, 24576, Note_off_c, 9, 35, 80
7, 24576, Note_on_c, 9, 35, 47
7, 25600, Note_off_c, 9, 35, 80
7, 25600, Note_on_c, 9, 35, 47
7, 26624, Note_off_c, 9, 35, 80
7, 26624, Note_on_c, 9, 35, 47
7, 27648, Note_off_c, 9, 35, 80
7, 27648, Note_on_c, 9, 35, 47
7, 28672, Note_off_c, 9, 35, 80
7, 28672, Note_on_c, 9, 35, 47
7, 29696, Note_off_c, 9, 35, 80
7, 29696, Note_on_c, 9, 35, 47
7, 30720, Note_off_c, 9, 35, 80
7, 30720, Note_on_c, 9, 35, 31
7, 31744, Note_off_c, 9, 35, 80
7, 31744, Note_on_c, 9, 35, 31
7, 32768, Note_off_c, 9, 35, 80
7, 32768, Note_on_c, 9, 35, 47
7, 33792, Note_off_c, 9, 35, 80
7, 33792, Note_on_c, 9, 35, 47
7, 34816, Note_off_c, 9, 35, 80
7, 34816, Note_on_c, 9, 35, 47
7, 35840, Note_off_c, 9, 35, 80
7, 35840, Note_on_c, 9, 35, 47
7, 36864, Note_off_c, 9, 35, 80
7, 36864, Note_on_c, 9, 35, 95
7, 37888, Note_off_c, 9, 35, 80
7, 37888, Note_on_c, 9, 35, 47
7, 38912, Note_off_c, 9, 35, 80
7, 38912, Note_on_c, 9, 35, 47
7, 39936, Note_off_c, 9, 35, 80
7, 39936, Note_on_c, 9, 35, 47
7, 40960, Note_off_c, 9, 35, 80
7, 40960, Note_on_c, 9, 35, 31
7, 41984, Note_off_c, 9, 35, 80
7, 41984, Note_on_c, 9, 35, 31
7, 43008, Note_off_c, 9, 35, 80
7, 43008, Note_on_c, 9, 35, 47
7, 44032, Note_off_c, 9, 35, 80
7, 44032, Note_on_c, 9, 35, 47
7, 45056, Note_off_c, 9, 35, 80
7, 45056, Note_on_c, 9, 35, 47
7, 46080, Note_off_c, 9, 35, 80
7, 46080, Note_on_c, 9, 35, 47
7, 47104, Note_off_c, 9, 35, 80
7, 47104, Note_on_c, 9, 35, 47
7, 48128, Note_off_c, 9, 35, 80
7, 48128, Note_on_c, 9, 35, 47
7, 49152, Note_off_c, 9, 35, 80
7, 49152, Note_on_c, 9, 35, 47
7, 50176, Note_off_c, 9, 35, 80
7, 50176, Note_on_c, 9, 35, 47
7, 51200, Note_off_c, 9, 35, 80
7, 51200, Note_on_c, 9, 35, 31
7, 52224, Note_off_c, 9, 35, 80
7, 52224, Note_on_c, 9, 35, 31
7, 53248, Note_off_c, 9, 35, 80
7, 53248, Note_on_c, 9, 35, 47
7, 54272, Note_off_c, 9, 35, 80
7, 54272, Note_on_c, 9, 35, 47
7, 55296, Note_off_c, 9, 35, 80
7, 55296, Note_on_c, 9, 35, 47
7, 56320, Note_off_c, 9, 35, 80
7, 56320, Note_on_c, 9, 35, 47
7, 57344, Note_off_c, 9, 35, 80
7, 57344, Note_on_c, 9, 35, 47
7, 58368, Note_off_c, 9, 35, 80
7, 58368, Note_on_c, 9, 35, 47
7, 59392, Note_off_c, 9, 35, 80
7, 59392, Note_on_c, 9, 35, 47
7, 60416, Note_off_c, 9, 35, 80
7, 60416, Note_on_c, 9, 35, 47
7, 61440, Note_off_c, 9, 35, 80
7, 61440, Note_on_c, 9, 35, 31
7, 62464, Note_off_c, 9, 35, 80
7, 62464, Note_on_c, 9, 35, 31
7, 63488, Note_off_c, 9, 35, 80
7, 63488, Note_on_c, 9, 35, 47
7, 64512, Note_off_c, 9, 35, 80
7, 64512, Note_on_c, 9, 35, 47
7, 65536, Note_off_c, 9, 35, 80
7, 65536, Note_on_c, 9, 35, 47
7, 66560, Note_off_c, 9, 35, 80
7, 66560, Note_on_c, 9, 35, 47
7, 67584, Note_off_c, 9, 35, 80
7, 67584, Note_on_c, 9, 35, 47
7, 68608, Note_off_c, 9, 35, 80
7, 68608, Note_on_c, 9, 35, 47
7, 69632, Note_off_c, 9, 35, 80
7, 69632, Note_on_c, 9, 35, 47
7, 70656, Note_off_c, 9, 35, 80
7, 70656, Note_on_c, 9, 35, 47
7, 71680, Note_off_c, 9, 35, 80
7, 71680, Note_on_c, 9, 35, 31
7, 72704, Note_off_c, 9, 35, 80
7, 72704, Note_on_c, 9, 35, 31
7, 73728, Note_off_c, 9, 35, 80
7, 73728, Note_on_c, 9, 35, 47
7, 74752, Note_off_c, 9, 35, 80
7, 74752, Note_on_c, 9, 35, 47
7, 75776, Note_off_c, 9, 35, 80
7, 75776, Note_on_c, 9, 35, 47
7, 76800, Note_off_c, 9, 35, 80
7, 76800, Note_on_c, 9, 35, 47
7, 77824, Note_off_c, 9, 35, 80
7, 77824, Note_on_c, 9, 35, 47
7, 78848, Note_off_c, 9, 35, 80
7, 78848, Note_on_c, 9, 35, 47
7, 79872, Note_off_c, 9, 35, 80
7, 79872, Note_on_c, 9, 35, 47
7, 80896, Note_off_c, 9, 35, 80
7, 80896, Note_on_c, 9, 35, 47
7, 81920, Note_off_c, 9, 35, 80
7, 81920, Note_on_c, 9, 35, 31
7, 82944, Note_off_c, 9, 35, 80
7, 82944, Note_on_c, 9, 35, 31
7, 83968, Note_off_c, 9, 35, 80
7, 83968, Note_on_c, 9, 35, 47
7, 84992, Note_off_c, 9, 35, 80
7, 84992, Note_on_c, 9, 35, 47
7, 86016, Note_off_c, 9, 35, 80
7, 86016, Note_on_c, 9, 35, 47
7, 87040, Note_off_c, 9, 35, 80
7, 87040, Note_on_c, 9, 35, 47
7, 88064, Note_off_c, 9, 35, 80
7, 88064, Note_on_c, 9, 35, 47
7, 89088, Note_off_c, 9, 35, 80
7, 89088, Note_on_c, 9, 35, 47
7, 90112, Note_off_c, 9, 35, 80
7, 90112, Note_on_c, 9, 35, 47
7, 91136, Note_off_c, 9, 35, 80
7, 91136, Note_on_c, 9, 35, 47
7, 92160, Note_off_c, 9, 35, 80
7, 92160, Note_on_c, 9, 35, 31
7, 93184, Note_off_c, 9, 35, 80
7, 93184, Note_on_c, 9, 35, 31
7, 94208, Note_off_c, 9, 35, 80
7, 94208, Note_on_c, 9, 35, 47
7, 95232, Note_off_c, 9, 35, 80
7, 95232, Note_on_c, 9, 35, 47
7, 96256, Note_off_c, 9, 35, 80
7, 96256, Note_on_c, 9, 35, 47
7, 97280, Note_off_c, 9, 35, 80
7, 97280, Note_on_c, 9, 35, 47
7, 98304, Note_off_c, 9, 35, 80
7, 98304, Note_on_c, 9, 35, 47
7, 99328, Note_off_c, 9, 35, 80
7, 99328, Note_on_c, 9, 35, 47
7, 100352, Note_off_c, 9, 35, 80
7, 100352, Note_on_c, 9, 35, 47
7, 101376, Note_off_c, 9, 35, 80
7, 101376, Note_on_c, 9, 35, 47
7, 102400, Note_off_c, 9, 35, 80
7, 102400, Note_on_c, 9, 35, 31
7, 103424, Note_off_c, 9, 35, 80
7, 103424, Note_on_c, 9, 35, 31
7, 104448, Note_off_c, 9, 35, 80
7, 104448, Note_on_c, 9, 35, 47
7, 105472, Note_off_c, 9, 35, 80
7, 105472, Note_on_c, 9, 35, 47
7, 106496, Note_off_c, 9, 35, 80
7, 106496, Note_on_c, 9, 35, 47
7, 107520, Note_off_c, 9, 35, 80
7, 107520, Note_on_c, 9, 35, 47
7, 108544, Note_off_c, 9, 35, 80
7, 108544, Note_on_c, 9, 35, 47
7, 109568, Note_off_c, 9, 35, 80
7, 109568, Note_on_c, 9, 35, 47
7, 110592, Note_off_c, 9, 35, 80
7, 110592, Note_on_c, 9, 35, 47
7, 111616, Note_off_c, 9, 35, 80
7, 111616, Note_on_c, 9, 35, 47
7, 112640, Note_off_c, 9, 35, 80
7, 112640, Note_on_c, 9, 35, 31
7, 113664, Note_off_c, 9, 35, 80
7, 113664, Note_on_c, 9, 35, 31
7, 114688, Note_off_c, 9, 35, 80
7, 114688, Note_on_c, 9, 35, 47
7, 115712, Note_off_c, 9, 35, 80
7, 115712, Note_on_c, 9, 35, 47
7, 116736, Note_off_c, 9, 35, 80
7, 116736, Note_on_c, 9, 35, 47
7, 117760, Note_off_c, 9, 35, 80
7, 117760, Note_on_c, 9, 35, 47
7, 118784, Note_off_c, 9, 35, 80
7, 118784, Note_on_c, 9, 35, 47
7, 119808, Note_off_c, 9, 35, 80
7, 119808, Note_on_c, 9, 35, 47
7, 120832, Note_off_c, 9, 35, 80
7, 120832, Note_on_c, 9, 35, 47
7, 121856, Note_off_c, 9, 35, 80
7, 121856, Note_on_c, 9, 35, 47
7, 122880, Note_off_c, 9, 35, 80
7, 122880, Note_on_c, 9, 35, 31
7, 123904, Note_off_c, 9, 35, 80
7, 123904, Note_on_c, 9, 35, 31
7, 124928, Note_off_c, 9, 35, 80
7, 124928, Note_on_c, 9, 35, 47
7, 125952, Note_off_c, 9, 35, 80
7, 125952, Note_on_c, 9, 35, 47
7, 126976, Note_off_c, 9, 35, 80
7, 126976, Note_on_c, 9, 35, 47
7, 128000, Note_off_c, 9, 35, 80
7, 128000, Note_on_c, 9, 35, 47
7, 129024, Note_off_c, 9, 35, 80
7, 129024, Note_on_c, 9, 35, 47
7, 130048, Note_off_c, 9, 35, 80
7, 130048, Note_on_c, 9, 35, 47
7, 131072, Note_off_c, 9, 35, 80
7, 131072, Note_on_c, 9, 35, 47
7, 132096, Note_off_c, 9, 35, 80
7, 132096, Note_on_c, 9, 35, 47
7, 133120, Note_off_c, 9, 35, 80
7, 133120, Note_on_c, 9, 35, 31
7, 134144, Note_off_c, 9, 35, 80
7, 134144, Note_on_c, 9, 35, 31
7, 135168, Note_off_c, 9, 35, 80
7, 135168, Note_on_c, 9, 35, 47
7, 136192, Note_off_c, 9, 35, 80
7, 136192, Note_on_c, 9, 35, 47
7, 137216, Note_off_c, 9, 35, 80
7, 137216, Note_on_c, 9, 35, 47
7, 138240, Note_off_c, 9, 35, 80
7, 138240, Note_on_c, 9, 35, 47
7, 139264, Note_off_c, 9, 35, 80
7, 139264, Note_on_c, 9, 35, 47
7, 140288, Note_off_c, 9, 35, 80
7, 140288, Note_on_c, 9, 35, 47
7, 141312, Note_off_c, 9, 35, 80
7, 141312, Note_on_c, 9, 35, 47
7, 142336, Note_off_c, 9, 35, 80
7, 142336, Note_on_c, 9, 35, 47
7, 143360, Note_off_c, 9, 35, 80
7, 143360, Note_on_c, 9, 35, 31
7, 144384, Note_off_c, 9, 35, 80
7, 144384, Note_on_c, 9, 35, 31
7, 145408, Note_off_c, 9, 35, 80
7, 145408, Note_on_c, 9, 35, 47
7, 146432, Note_off_c, 9, 35, 80
7, 146432, Note_on_c, 9, 35, 47
7, 147456, Note_off_c, 9, 35, 80
7, 147456, Note_on_c, 9, 35, 47
7, 148480, Note_off_c, 9, 35, 80
7, 148480, Note_on_c, 9, 35, 47
7, 149504, Note_off_c, 9, 35, 80
7, 149504, Note_on_c, 9, 35, 47
7, 150528, Note_off_c, 9, 35, 80
7, 150528, Note_on_c, 9, 35, 47
7, 151552, Note_off_c, 9, 35, 80
7, 151552, Note_on_c, 9, 35, 47
7, 152576, Note_off_c, 9, 35, 80
7, 152576, Note_on_c, 9, 35, 47
7, 153600, Note_off_c, 9, 35, 80
7, 153600, Note_on_c, 9, 35, 31
7, 154624, Note_off_c, 9, 35, 80
7, 154624, Note_on_c, 9, 35, 31
7, 155648, Note_off_c, 9, 35, 80
7, 155648, Note_on_c, 9, 35, 47
7, 156672, Note_off_c, 9, 35, 80
7, 156672, Note_on_c, 9, 35, 47
7, 157696, Note_off_c, 9, 35, 80
7, 157696, Note_on_c, 9, 35, 47
7, 158720, Note_off_c, 9, 35, 80
7, 158720, Note_on_c, 9, 35, 47
7, 159744, Note_off_c, 9, 35, 80
7, 159744, Note_on_c, 9, 35, 47
7, 160768, Note_off_c, 9, 35, 80
7, 160768, Note_on_c, 9, 35, 47
7, 161792, Note_off_c, 9, 35, 80
7, 161792, Note_on_c, 9, 35, 47
7, 162816, Note_off_c, 9, 35, 80
7, 162816, Note_on_c, 9, 35, 47
7, 163840, Note_off_c, 9, 35, 80
7, 163840, Note_on_c, 9, 35, 31
7, 164864, Note_off_c, 9, 35, 80
7, 164864, Note_on_c, 9, 35, 31
7, 165888, Note_off_c, 9, 35, 80
7, 165888, Note_on_c, 9, 35, 47
7, 166912, Note_off_c, 9, 35, 80
7, 166912, Note_on_c, 9, 35, 47
7, 167936, Note_off_c, 9, 35, 80
7, 167936, Note_on_c, 9, 35, 47
7, 168960, Note_off_c, 9, 35, 80
7, 168960, Note_on_c, 9, 35, 47
7, 169984, Note_off_c, 9, 35, 80
7, 169984, Note_on_c, 9, 35, 47
7, 171008, Note_off_c, 9, 35, 80
7, 171008, Note_on_c, 9, 35, 47
7, 172032, Note_off_c, 9, 35, 80
7, 172032, Note_on_c, 9, 35, 47
7, 173056, Note_off_c, 9, 35, 80
7, 173056, Note_on_c, 9, 35, 47
7, 174080, Note_off_c, 9, 35, 80
7, 174080, Note_on_c, 9, 35, 31
7, 175104, Note_off_c, 9, 35, 80
7, 175104, Note_on_c, 9, 35, 31
7, 176128, Note_off_c, 9, 35, 80
7, 176128, Note_on_c, 9, 35, 47
7, 177152, Note_off_c, 9, 35, 80
7, 177152, Note_on_c, 9, 35, 47
7, 178176, Note_off_c, 9, 35, 80
7, 178176, Note_on_c, 9, 35, 47
7, 179200, Note_off_c, 9, 35, 80
7, 179200, Note_on_c, 9, 35, 47
7, 180224, Note_off_c, 9, 35, 80
7, 180224, Note_on_c, 9, 35, 47
7, 181248, Note_off_c, 9, 35, 80
7, 181248, Note_on_c, 9, 35, 47
7, 182272, Note_off_c, 9, 35, 80
7, 182272, Note_on_c, 9, 35, 47
7, 183296, Note_off_c, 9, 35, 80
7, 183296, Note_on_c, 9, 35, 47
7, 184320, Note_off_c, 9, 35, 80
7, 184320, Note_on_c, 9, 35, 31
7, 185344, Note_off_c, 9, 35, 80
7, 185344, Note_on_c, 9, 35, 31
7, 186368, Note_off_c, 9, 35, 80
7, 186368, Note_on_c, 9, 35, 47
7, 187392, Note_off_c, 9, 35, 80
7, 187392, Note_on_c, 9, 35, 47
7, 188416, Note_off_c, 9, 35, 80
7, 188416, Note_on_c, 9, 35, 47
7, 189440, Note_off_c, 9, 35, 80
7, 189440, Note_on_c, 9, 35, 47
7, 190464, Note_off_c, 9, 35, 80
7, 190464, Note_on_c, 9, 35, 47
7, 191488, Note_off_c, 9, 35, 80
7, 191488, Note_on_c, 9, 35, 47
7, 192512, Note_off_c, 9, 35, 80
7, 192512, Note_on_c, 9, 35, 47
7, 193536, Note_off_c, 9, 35, 80
7, 193536, Note_on_c, 9, 35, 47
7, 194560, Note_off_c, 9, 35, 80
7, 194560, Note_on_c, 9, 35, 31
7, 195584, Note_off_c, 9, 35, 80
7, 195584, Note_on_c, 9, 35, 31
7, 196608, Note_off_c, 9, 35, 80
7, 196608, Note_on_c, 9, 35, 47
7, 197632, Note_off_c, 9, 35, 80
7, 197632, Note_on_c, 9, 35, 47
7, 198656, Note_off_c, 9, 35, 80
7, 198656, Note_on_c, 9, 35, 47
7, 199680, Note_off_c, 9, 35, 80
7, 199680, Note_on_c, 9, 35, 47
7, 200704, Note_off_c, 9, 35, 80
7, 200704, Note_on_c, 9, 35, 47
7, 201728, Note_off_c, 9, 35, 80
7, 201728, Note_on_c, 9, 35, 47
7, 202752, Note_off_c, 9, 35, 80
7, 202752, Note_on_c, 9, 35, 47
7, 203776, Note_off_c, 9, 35, 80
7, 203776, Note_on_c, 9, 35, 47
7, 204800, Note_off_c, 9, 35, 80
7, 204800, Note_on_c, 9, 35, 31
7, 205824, Note_off_c, 9, 35, 80
7, 205824, Note_on_c, 9, 35, 31
7, 206848, Note_off_c, 9, 35, 80
7, 206848, Note_on_c, 9, 35, 47
7, 207872, Note_off_c, 9, 35, 80
7, 207872, Note_on_c, 9, 35, 47
7, 208896, Note_off_c, 9, 35, 80
7, 208896, Note_on_c, 9, 35, 47
7, 209920, Note_off_c, 9, 35, 80
7, 209920, Note_on_c, 9, 35, 47
7, 210944, Note_off_c, 9, 35, 80
7, 210944, Note_on_c, 9, 35, 47
7, 211968, Note_off_c, 9, 35, 80
7, 211968, Note_on_c, 9, 35, 47
7, 212992, Note_off_c, 9, 35, 80
7, 212992, Note_on_c, 9, 35, 47
7, 214016, Note_off_c, 9, 35, 80
7, 214016, Note_on_c, 9, 35, 47
7, 215040, Note_off_c, 9, 35, 80
7, 215040, Note_on_c, 9, 35, 31
7, 216064, Note_off_c, 9, 35, 80
7, 216064, Note_on_c, 9, 35, 31
7, 217088, Note_off_c, 9, 35, 80
7, 217088, Note_on_c, 9, 35, 47
7, 218112, Note_off_c, 9, 35, 80
7, 218112, Note_on_c, 9, 35, 47
7, 219136, Note_off_c, 9, 35, 80
7, 219136, Note_on_c, 9, 35, 47
7, 220160, Note_off_c, 9, 35, 80
7, 220160, Note_on_c, 9, 35, 47
7, 221184, Note_off_c, 9, 35, 80
7, 221184, Note_on_c, 9, 35, 47
7, 222208, Note_off_c, 9, 35, 80
7, 222208, Note_on_c, 9, 35, 47
7, 223232, Note_off_c, 9, 35, 80
7, 223232, Note_on_c, 9, 35, 47
7, 224256, Note_off_c, 9, 35, 80
7, 224256, Note_on_c, 9, 35, 47
7, 225280, Note_off_c, 9, 35, 80
7, 225280, Note_on_c, 9, 35, 31
7, 226304, Note_off_c, 9, 35, 80
7, 226304, Note_on_c, 9, 35, 31
7, 227328, Note_off_c, 9, 35, 80
7, 227328, Note_on_c, 9, 35, 47
7, 228352, Note_off_c, 9, 35, 80
7, 228352, Note_on_c, 9, 35, 47
7, 229376, Note_off_c, 9, 35, 80
7, 229376, Note_on_c, 9, 35, 47
7, 230400, Note_off_c, 9, 35, 80
7, 230400, Note_on_c, 9, 35, 47
7, 231424, Note_off_c, 9, 35, 80
7, 231424, Note_on_c, 9, 35, 47
7, 232448, Note_off_c, 9, 35, 80
7, 232448, Note_on_c, 9, 35, 47
7, 233472, Note_off_c, 9, 35, 80
7, 233472, Note_on_c, 9, 35, 47
7, 234496, Note_off_c, 9, 35, 80
7, 234496, Note_on_c, 9, 35, 47
7, 235520, Note_off_c, 9, 35, 80
7, 235520, Note_on_c, 9, 35, 31
7, 236544, Note_off_c, 9, 35, 80
7, 236544, Note_on_c, 9, 35, 31
7, 237568, Note_off_c, 9, 35, 80
7, 237568, Note_on_c, 9, 35, 47
7, 238592, Note_off_c, 9, 35, 80
7, 238592, Note_on_c, 9, 35, 47
7, 239616, Note_off_c, 9, 35, 80
7, 239616, Note_on_c, 9, 35, 47
7, 240640, Note_off_c, 9, 35, 80
7, 240640, Note_on_c, 9, 35, 47
7, 241664, Note_off_c, 9, 35, 80
7, 241664, Note_on_c, 9, 35, 47
7, 242688, Note_off_c, 9, 35, 80
7, 242688, Note_on_c, 9, 35, 47
7, 243712, Note_off_c, 9, 35, 80
7, 243712, Note_on_c, 9, 35, 47
7, 244736, Note_off_c, 9, 35, 80
7, 244736, Note_on_c, 9, 35, 47
7, 245760, Note_off_c, 9, 35, 80
7, 245760, Note_on_c, 9, 35, 31
7, 246784, Note_off_c, 9, 35, 80
7, 246784, Note_on_c, 9, 35, 31
7, 247808, Note_off_c, 9, 35, 80
7, 247808, Note_on_c, 9, 35, 47
7, 248832, Note_off_c, 9, 35, 80
7, 248832, Note_on_c, 9, 35, 47
7, 249856, Note_off_c, 9, 35, 80
7, 249856, Note_on_c, 9, 35, 47
7, 250880, Note_off_c, 9, 35, 80
7, 250880, Note_on_c, 9, 35, 47
7, 251904, Note_off_c, 9, 35, 80
7, 251904, Note_on_c, 9, 35, 47
7, 252928, Note_off_c, 9, 35, 80
7, 252928, Note_on_c, 9, 35, 47
7, 253952, Note_off_c, 9, 35, 80
7, 253952, Note_on_c, 9, 35, 47
7, 254976, Note_off_c, 9, 35, 80
7, 254976, Note_on_c, 9, 35, 47
7, 256000, Note_off_c, 9, 35, 80
7, 256000, Note_on_c, 9, 35, 31
7, 257024, Note_off_c, 9, 35, 80
7, 257024, Note_on_c, 9, 35, 31
7, 258048, Note_off_c, 9, 35, 80
7, 258048, Note_on_c, 9, 35, 47
7, 259072, Note_off_c, 9, 35, 80
7, 259072, Note_on_c, 9, 35, 47
7, 260096, Note_off_c, 9, 35, 80
7, 260096, Note_on_c, 9, 35, 47
7, 261120, Note_off_c, 9, 35, 80
7, 261120, Note_on_c, 9, 35, 47
7, 262144, Note_off_c, 9, 35, 80
7, 262144, Note_on_c, 9, 35, 47
7, 263168, Note_off_c, 9, 35, 80
7, 263168, Note_on_c, 9, 35, 47
7, 264192, Note_off_c, 9, 35, 80
7, 264192, Note_on_c, 9, 35, 47
7, 265216, Note_off_c, 9, 35, 80
7, 265216, Note_on_c, 9, 35, 47
7, 266240, Note_off_c, 9, 35, 80
7, 266240, Note_on_c, 9, 35, 31
7, 267264, Note_off_c, 9, 35, 80
7, 267264, Note_on_c, 9, 35, 31
7, 268288, Note_off_c, 9, 35, 80
7, 268288, Note_on_c, 9, 35, 47
7, 269312, Note_off_c, 9, 35, 80
7, 269312, Note_on_c, 9, 35, 47
7, 270336, Note_off_c, 9, 35, 80
7, 270336, Note_on_c, 9, 35, 47
7, 271360, Note_off_c, 9, 35, 80
7, 271360, Note_on_c, 9, 35, 47
7, 272384, Note_off_c, 9, 35, 80
7, 272384, Note_on_c, 9, 35, 47
7, 273408, Note_off_c, 9, 35, 80
7, 273408, Note_on_c, 9, 35, 47
7, 274432, Note_off_c, 9, 35, 80
7, 274432, Note_on_c, 9, 35, 47
7, 275456, Note_off_c, 9, 35, 80
7, 275456, Note_on_c, 9, 35, 47
7, 276480, Note_off_c, 9, 35, 80
7, 276480, Note_on_c, 9, 35, 31
7, 277504, Note_off_c, 9, 35, 80
7, 277504, Note_on_c, 9, 35, 31
7, 278528, Note_off_c, 9, 35, 80
7, 278528, Note_on_c, 9, 35, 47
7, 279552, Note_off_c, 9, 35, 80
7, 279552, Note_on_c, 9, 35, 47
7, 280576, Note_off_c, 9, 35, 80
7, 280576, Note_on_c, 9, 35, 47
7, 281600, Note_off_c, 9, 35, 80
7, 281600, Note_on_c, 9, 35, 47
7, 282624, Note_off_c, 9, 35, 80
7, 282624, Note_on_c, 9, 35, 47
7, 283648, Note_off_c, 9, 35, 80
7, 283648, Note_on_c, 9, 35, 47
7, 284672, Note_off_c, 9, 35, 80
7, 284672, Note_on_c, 9, 35, 47
7, 285696, Note_off_c, 9, 35, 80
7, 285696, Note_on_c, 9, 35, 47
7, 286720, Note_off_c, 9, 35, 80
7, 286720, Note_on_c, 9, 35, 31
7, 287744, Note_off_c, 9, 35, 80
7, 287744, Note_on_c, 9, 35, 31
7, 288768, Note_off_c, 9, 35, 80
7, 288768, Note_on_c, 9, 35, 47
7, 289792, Note_off_c, 9, 35, 80
7, 289792, Note_on_c, 9, 35, 47
7, 290816, Note_off_c, 9, 35, 80
7, 290816, Note_on_c, 9, 35, 47
7, 291840, Note_off_c, 9, 35, 80
7, 291840, Note_on_c, 9, 35, 47
7, 292864, Note_off_c, 9, 35, 80
7, 292864, Note_on_c, 9, 35, 47
7, 293888, Note_off_c, 9, 35, 80
7, 293888, Note_on_c, 9, 35, 47
7, 294912, Note_off_c, 9, 35, 80
7, 294912, Note_on_c, 9, 35, 47
7, 295936, Note_off_c, 9, 35, 80
7, 295936, Note_on_c, 9, 35, 47
7, 296960, Note_off_c, 9, 35, 80
7, 296960, Note_on_c, 9, 35, 31
7, 297984, Note_off_c, 9, 35, 80
7, 297984, Note_on_c, 9, 35, 31
7, 299008, Note_off_c, 9, 35, 80
7, 299008, Note_on_c, 9, 35, 47
7, 300032, Note_off_c, 9, 35, 80
7, 300032, Note_on_c, 9, 35, 47
7, 301056, Note_off_c, 9, 35, 80
7, 301056, Note_on_c, 9, 35, 47
7, 302080, Note_off_c, 9, 35, 80
7, 302080, Note_on_c, 9, 35, 47
7, 303104, Note_off_c, 9, 35, 80
7, 303104, Note_on_c, 9, 35, 47
7, 304128, Note_off_c, 9, 35, 80
7, 304128, Note_on_c, 9, 35, 47
7, 305152, Note_off_c, 9, 35, 80
7, 305152, Note_on_c, 9, 35, 47
7, 306176, Note_off_c, 9, 35, 80
7, 306176, Note_on_c, 9, 35, 47
7, 307200, Note_off_c, 9, 35, 80
7, 307200, Note_on_c, 9, 35, 31
7, 308224, Note_off_c, 9, 35, 80
7, 308224, Note_on_c, 9, 35, 31
7, 309248, Note_off_c, 9, 35, 80
7, 309248, Note_on_c, 9, 35, 47
7, 310272, Note_off_c, 9, 35, 80
7, 310272, Note_on_c, 9, 35, 47
7, 311296, Note_off_c, 9, 35, 80
7, 311296, Note_on_c, 9, 35, 47
7, 312320, Note_off_c, 9, 35, 80
7, 312320, Note_on_c, 9, 35, 47
7, 313344, Note_off_c, 9, 35, 80
7, 313344, Note_on_c, 9, 35, 47
7, 314368, Note_off_c, 9, 35, 80
7, 314368, Note_on_c, 9, 35, 47
7, 315392, Note_off_c, 9, 35, 80
7, 315392, Note_on_c, 9, 35, 47
7, 316416, Note_off_c, 9, 35, 80
7, 316416, Note_on_c, 9, 35, 47
7, 317440, Note_off_c, 9, 35, 80
7, 317440, Note_on_c, 9, 35, 31
7, 318464, Note_off_c, 9, 35, 80
7, 318464, Note_on_c, 9, 35, 31
7, 319488, Note_off_c, 9, 35, 80
7, 319488, Note_on_c, 9, 35, 47
7, 320512, Note_off_c, 9, 35, 80
7, 320512, Note_on_c, 9, 35, 47
7, 321536, Note_off_c, 9, 35, 80
7, 321536, Note_on_c, 9, 35, 47
7, 322560, Note_off_c, 9, 35, 80
7, 322560, Note_on_c, 9, 35, 47
7, 323584, Note_off_c, 9, 35, 80
7, 323584, Note_on_c, 9, 35, 47
7, 324608, Note_off_c, 9, 35, 80
7, 324608, Note_on_c, 9, 35, 47
7, 325632, Note_off_c, 9, 35, 80
7, 325632, Note_on_c, 9, 35, 47
7, 326656, Note_off_c, 9, 35, 80
7, 326656, Note_on_c, 9, 35, 47
7, 327680, Note_off_c, 9, 35, 80
7, 327680, Note_on_c, 9, 35, 31
7, 328704, Note_off_c, 9, 35, 80
7, 328704, Note_on_c, 9, 35, 31
7, 329728, Note_off_c, 9, 35, 80
7, 329728, Note_on_c, 9, 35, 47
7, 330752, Note_off_c, 9, 35, 80
7, 330752, Note_on_c, 9, 35, 47
7, 331776, Note_off_c, 9, 35, 80
7, 331776, Note_on_c, 9, 35, 47
7, 332800, Note_off_c, 9, 35, 80
7, 332800, Note_on_c, 9, 35, 47
7, 333824, Note_off_c, 9, 35, 80
7, 333824, Note_on_c, 9, 35, 47
7, 334848, Note_off_c, 9, 35, 80
7, 334848, Note_on_c, 9, 35, 47
7, 335872, Note_off_c, 9, 35, 80
7, 335872, Note_on_c, 9, 35, 47
7, 336896, Note_off_c, 9, 35, 80
7, 336896, Note_on_c, 9, 35, 47
7, 337920, Note_off_c, 9, 35, 80
7, 337920, Note_on_c, 9, 35, 31
7, 338944, Note_off_c, 9, 35, 80
7, 338944, Note_on_c, 9, 35, 31
7, 339968, Note_off_c, 9, 35, 80
7, 339968, Note_on_c, 9, 35, 47
7, 340992, Note_off_c, 9, 35, 80
7, 340992, Note_on_c, 9, 35, 47
7, 342016, Note_off_c, 9, 35, 80
7, 342016, Note_on_c, 9, 35, 47
7, 343040, Note_off_c, 9, 35, 80
7, 343040, Note_on_c, 9, 35, 47
7, 344064, Note_off_c, 9, 35, 80
7, 344064, Note_on_c, 9, 35, 47
7, 345088, Note_off_c, 9, 35, 80
7, 345088, Note_on_c, 9, 35, 47
7, 346112, Note_off_c, 9, 35, 80
7, 346112, Note_on_c, 9, 35, 47
7, 347136, Note_off_c, 9, 35, 80
7, 347136, Note_on_c, 9, 35, 47
7, 348160, Note_off_c, 9, 35, 80
7, 348160, Note_on_c, 9, 35, 31
7, 349184, Note_off_c, 9, 35, 80
7, 349184, Note_on_c, 9, 35, 31
7, 350208, Note_off_c, 9, 35, 80
7, 350208, Note_on_c, 9, 35, 47
7, 351232, Note_off_c, 9, 35, 80
7, 351232, Note_on_c, 9, 35, 47
7, 352256, Note_off_c, 9, 35, 80
7, 352256, Note_on_c, 9, 35, 47
7, 353280, Note_off_c, 9, 35, 80
7, 353280, Note_on_c, 9, 35, 47
7, 354304, Note_off_c, 9, 35, 80
7, 354304, Note_on_c, 9, 35, 47
7, 355328, Note_off_c, 9, 35, 80
7, 355328, Note_on_c, 9, 35, 47
7, 356352, Note_off_c, 9, 35, 80
7, 356352, Note_on_c, 9, 35, 47
7, 357376, Note_off_c, 9, 35, 80
7, 357376, Note_on_c, 9, 35, 47
7, 358400, Note_off_c, 9, 35, 80
7, 358400, Note_on_c, 9, 35, 31
7, 359424, Note_off_c, 9, 35, 80
7, 359424, Note_on_c, 9, 35, 31
7, 360448, Note_off_c, 9, 35, 80
7, 360448, Note_on_c, 9, 35, 47
7, 361472, Note_off_c, 9, 35, 80
7, 361472, Note_on_c, 9, 35, 47
7, 362496, Note_off_c, 9, 35, 80
7, 362496, Note_on_c, 9, 35, 47
7, 363520, Note_off_c, 9, 35, 80
7, 363520, Note_on_c, 9, 35, 47
7, 364544, Note_off_c, 9, 35, 80
7, 364544, Note_on_c, 9, 35, 47
7, 365568, Note_off_c, 9, 35, 80
7, 365568, Note_on_c, 9, 35, 47
7, 366592, Note_off_c, 9, 35, 80
7, 366592, Note_on_c, 9, 35, 47
7, 367616, Note_off_c, 9, 35, 80
7, 367616, Note_on_c, 9, 35, 47
7, 368640, Note_off_c, 9, 35, 80
7, 368640, Note_on_c, 9, 35, 31
7, 369664, Note_off_c, 9, 35, 80
7, 369664, Note_on_c, 9, 35, 31
7, 370688, Note_off_c, 9, 35, 80
7, 370688, Note_on_c, 9, 35, 47
7, 371712, Note_off_c, 9, 35, 80
7, 371712, Note_on_c, 9, 35, 47
7, 372736, Note_off_c, 9, 35, 80
7, 372736, Note_on_c, 9, 35, 47
7, 373760, Note_off_c, 9, 35, 80
7, 373760, Note_on_c, 9, 35, 47
7, 374784, Note_off_c, 9, 35, 80
7, 374784, Note_on_c, 9, 35, 47
7, 375808, Note_off_c, 9, 35, 80
7, 375808, Note_on_c, 9, 35, 47
7, 376832, Note_off_c, 9, 35, 80
7, 376832, Note_on_c, 9, 35, 47
7, 377856, Note_off_c, 9, 35, 80
7, 377856, Note_on_c, 9, 35, 47
7, 378880, Note_off_c, 9, 35, 80
7, 378880, Note_on_c, 9, 35, 31
7, 379904, Note_off_c, 9, 35, 80
7, 379904, Note_on_c, 9, 35, 31
7, 380928, Note_off_c, 9, 35, 80
7, 380928, Note_on_c, 9, 35, 47
7, 381952, Note_off_c, 9, 35, 80
7, 381952, Note_on_c, 9, 35, 47
7, 382976, Note_off_c, 9, 35, 80
7, 382976, Note_on_c, 9, 35, 47
7, 384000, Note_off_c, 9, 35, 80
7, 384000, Note_on_c, 9, 35, 47
7, 385024, Note_off_c, 9, 35, 80
7, 385024, Note_on_c, 9, 35, 47
7, 386048, Note_off_c, 9, 35, 80
7, 386048, Note_on_c, 9, 35, 47
7, 387072, Note_off_c, 9, 35, 80
7, 387072, Note_on_c, 9, 35, 47
7, 388096, Note_off_c, 9, 35, 80
7, 388096, Note_on_c, 9, 35, 47
7, 389120, Note_off_c, 9, 35, 80
7, 389120, Note_on_c, 9, 35, 31
7, 390144, Note_off_c, 9, 35, 80
7, 390144, Note_on_c, 9, 35, 31
7, 391168, Note_off_c, 9, 35, 80
7, 391168, Note_on_c, 9, 35, 47
7, 392192, Note_off_c, 9, 35, 80
7, 392192, Note_on_c, 9, 35, 47
7, 393216, Note_off_c, 9, 35, 80
7, 393216, Note_on_c, 9, 35, 47
7, 394240, Note_off_c, 9, 35, 80
7, 394240, Note_on_c, 9, 35, 47
7, 395264, Note_off_c, 9, 35, 80
7, 395264, Note_on_c, 9, 35, 47
7, 396288, Note_off_c, 9, 35, 80
7, 396288, Note_on_c, 9, 35, 47
7, 397312, Note_off_c, 9, 35, 80
7, 397312, Note_on_c, 9, 35, 47
7, 398336, Note_off_c, 9, 35, 80
7, 398336, Note_on_c, 9, 35, 47
7, 399360, Note_off_c, 9, 35, 80
7, 399360, Note_on_c, 9, 35, 31
7, 400384, Note_off_c, 9, 35, 80
7, 400384, Note_on_c, 9, 35, 31
7, 401408, Note_off_c, 9, 35, 80
7, 401408, Note_on_c, 9, 35, 47
7, 402432, Note_off_c, 9, 35, 80
7, 402432, Note_on_c, 9, 35, 47
7, 403456, Note_off_c, 9, 35, 80
7, 403456, Note_on_c, 9, 35, 47
7, 404480, Note_off_c, 9, 35, 80
7, 404480, Note_on_c, 9, 35, 47
7, 405504, Note_off_c, 9, 35, 80
7, 405504, Note_on_c, 9, 35, 47
7, 406528, Note_off_c, 9, 35, 80
7, 406528, Note_on_c, 9, 35, 47
7, 407552, Note_off_c, 9, 35, 80
7, 407552, Note_on_c, 9, 35, 47
7, 408576, Note_off_c, 9, 35, 80
7, 408576, Note_on_c, 9, 35, 47
7, 409600, Note_off_c, 9, 35, 80
7, 409600, Note_on_c, 9, 35, 31
7, 410624, Note_off_c, 9, 35, 80
7, 410624, Note_on_c, 9, 35, 31
7, 411648, Note_off_c, 9, 35, 80
7, 411648, Note_on_c, 9, 35, 47
7, 412672, Note_off_c, 9, 35, 80
7, 412672, Note_on_c, 9, 35, 47
7, 413696, Note_off_c, 9, 35, 80
7, 413696, Note_on_c, 9, 35, 47
7, 414720, Note_off_c, 9, 35, 80
7, 414720, Note_on_c, 9, 35, 47
7, 415744, Note_off_c, 9, 35, 80
7, 415744, Note_on_c, 9, 35, 47
7, 416768, Note_off_c, 9, 35, 80
7, 416768, Note_on_c, 9, 35, 47
7, 417792, Note_off_c, 9, 35, 80
7, 417792, Note_on_c, 9, 35, 47
7, 418816, Note_off_c, 9, 35, 80
7, 418816, Note_on_c, 9, 35, 47
7, 419840, Note_off_c, 9, 35, 80
7, 419840, Note_on_c, 9, 35, 31
7, 420864, Note_off_c, 9, 35, 80
7, 420864, Note_on_c, 9, 35, 31
7, 421888, Note_off_c, 9, 35, 80
7, 421888, Note_on_c, 9, 35, 47
7, 422912, Note_off_c, 9, 35, 80
7, 422912, Note_on_c, 9, 35, 47
7, 423936, Note_off_c, 9, 35, 80
7, 423936, Note_on_c, 9, 35, 47
7, 424960, Note_off_c, 9, 35, 80
7, 424960, Note_on_c, 9, 35, 47
7, 425984, Note_off_c, 9, 35, 80
7, 425984, Note_on_c, 9, 35, 47
7, 427008, Note_off_c, 9, 35, 80
7, 427008, Note_on_c, 9, 35, 47
7, 428032, Note_off_c, 9, 35, 80
7, 428032, Note_on_c, 9, 35, 47
7, 429056, Note_off_c, 9, 35, 80
7, 429056, Note_on_c, 9, 35, 47
7, 430080, Note_off_c, 9, 35, 80
7, 430080, Note_on_c, 9, 35, 31
7, 431104, Note_off_c, 9, 35, 80
7, 431104, Note_on_c, 9, 35, 31
7, 432128, Note_off_c, 9, 35, 80
7, 432128, Note_on_c, 9, 35, 47
7, 433152, Note_off_c, 9, 35, 80
7, 433152, Note_on_c, 9, 35, 47
7, 434176, Note_off_c, 9, 35, 80
7, 434176, Note_on_c, 9, 35, 47
7, 435200, Note_off_c, 9, 35, 80
7, 435200, Note_on_c, 9, 35, 47
7, 436224, Note_off_c, 9, 35, 80
7, 436224, Note_on_c, 9, 35, 47
7, 437248, Note_off_c, 9, 35, 80
7, 437248, Note_on_c, 9, 35, 47
7, 438272, Note_off_c, 9, 35, 80
7, 438272, Note_on_c, 9, 35, 47
7, 439296, Note_off_c, 9, 35, 80
7, 439296, Note_on_c, 9, 35, 47
7, 440320, Note_off_c, 9, 35, 80
7, 440320, Note_on_c, 9, 35, 31
7, 441344, Note_off_c, 9, 35, 80
7, 441344, Note_on_c, 9, 35, 31
7, 442368, Note_off_c, 9, 35, 80
7, 442368, Note_on_c, 9, 35, 47
7, 443392, Note_off_c, 9, 35, 80
7, 443392, Note_on_c, 9, 35, 47
7, 444416, Note_off_c, 9, 35, 80
7, 444416, Note_on_c, 9, 35, 47
7, 445440, Note_off_c, 9, 35, 80
7, 445440, Note_on_c, 9, 35, 47
7, 446464, Note_off_c, 9, 35, 80
7, 446464, Note_on_c, 9, 35, 47
7, 447488, Note_off_c, 9, 35, 80
7, 447488, Note_on_c, 9, 35, 47
7, 448512, Note_off_c, 9, 35, 80
7, 448512, Note_on_c, 9, 35, 47
7, 449536, Note_off_c, 9, 35, 80
7, 449536, Note_on_c, 9, 35, 47
7, 450560, Note_off_c, 9, 35, 80
7, 450560, Note_on_c, 9, 35, 31
7, 451584, Note_off_c, 9, 35, 80
7, 451584, Note_on_c, 9, 35, 31
7, 452608, Note_off_c, 9, 35, 80
7, 452608, Note_on_c, 9, 35, 47
7, 453632, Note_off_c, 9, 35, 80
7, 453632, Note_on_c, 9, 35, 47
7, 454656, Note_off_c, 9, 35, 80
7, 454656, Note_on_c, 9, 35, 47
7, 455680, Note_off_c, 9, 35, 80
7, 455680, Note_on_c, 9, 35, 47
7, 456704, Note_off_c, 9, 35, 80
7, 456704, Note_on_c, 9, 35, 47
7, 457728, Note_off_c, 9, 35, 80
7, 457728, Note_on_c, 9, 35, 47
7, 458752, Note_off_c, 9, 35, 80
7, 458752, Note_on_c, 9, 35, 47
7, 459776, Note_off_c, 9, 35, 80
7, 459776, Note_on_c, 9, 35, 47
7, 460800, Note_off_c, 9, 35, 80
7, 460800, Note_on_c, 9, 35, 31
7, 461824, Note_off_c, 9, 35, 80
7, 461824, Note_on_c, 9, 35, 31
7, 462848, Note_off_c, 9, 35, 80
7, 462848, Note_on_c, 9, 35, 47
7, 463872, Note_off_c, 9, 35, 80
7, 463872, Note_on_c, 9, 35, 47
7, 464896, Note_off_c, 9, 35, 80
7, 464896, Note_on_c, 9, 35, 47
7, 465920, Note_off_c, 9, 35, 80
7, 465920, Note_on_c, 9, 35, 47
7, 466944, Note_off_c, 9, 35, 80
7, 466944, Note_on_c, 9, 35, 47
7, 467968, Note_off_c, 9, 35, 80
7, 467968, Note_on_c, 9, 35, 47
7, 468992, Note_off_c, 9, 35, 80
7, 468992, Note_on_c, 9, 35, 47
7, 470016, Note_off_c, 9, 35, 80
7, 470016, Note_on_c, 9, 35, 47
7, 471040, Note_off_c, 9, 35, 80
7, 471040, Note_on_c, 9, 35, 31
7, 472064, Note_off_c, 9, 35, 80
7, 472064, Note_on_c, 9, 35, 31
7, 473088, Note_off_c, 9, 35, 80
7, 473088, Note_on_c, 9, 35, 47
7, 474112, Note_off_c, 9, 35, 80
7, 474112, Note_on_c, 9, 35, 47
7, 475136, Note_off_c, 9, 35, 80
7, 475136, Note_on_c, 9, 35, 47
7, 476160, Note_off_c, 9, 35, 80
7, 476160, Note_on_c, 9, 35, 47
7, 477184, Note_off_c, 9, 35, 80
7, 477184, Note_on_c, 9, 35, 47
7, 478208, Note_off_c, 9, 35, 80
7, 478208, Note_on_c, 9, 35, 47
7, 479232, Note_off_c, 9, 35, 80
7, 479232, Note_on_c, 9, 35, 47
7, 480256, Note_off_c, 9, 35, 80
7, 480256, Note_on_c, 9, 35, 47
7, 481280, Note_off_c, 9, 35, 80
7, 481280, Note_on_c, 9, 35, 31
7, 482304, Note_off_c, 9, 35, 80
7, 482304, Note_on_c, 9, 35, 31
7, 483328, Note_off_c, 9, 35, 80
7, 483328, Note_on_c, 9, 35, 47
7, 484352, Note_off_c, 9, 35, 80
7, 484352, Note_on_c, 9, 35, 47
7, 485376, Note_off_c, 9, 35, 80
7, 485376, Note_on_c, 9, 35, 47
7, 486400, Note_off_c, 9, 35, 80
7, 486400, Note_on_c, 9, 35, 47
7, 487424, Note_off_c, 9, 35, 80
7, 487424, Note_on_c, 9, 35, 47
7, 488448, Note_off_c, 9, 35, 80
7, 488448, Note_on_c, 9, 35, 47
7, 489472, Note_off_c, 9, 35, 80
7, 489472, Note_on_c, 9, 35, 47
7, 490496, Note_off_c, 9, 35, 80
7, 490496, Note_on_c, 9, 35, 47
7, 491520, Note_off_c, 9, 35, 80
7, 491520, Note_on_c, 9, 35, 31
7, 492544, Note_off_c, 9, 35, 80
7, 492544, Note_on_c, 9, 35, 31
7, 493568, Note_off_c, 9, 35, 80
7, 493568, Note_on_c, 9, 35, 47
7, 494592, Note_off_c, 9, 35, 80
7, 494592, Note_on_c, 9, 35, 47
7, 495616, Note_off_c, 9, 35, 80
7, 495616, Note_on_c, 9, 35, 47
7, 496640, Note_off_c, 9, 35, 80
7, 496640, Note_on_c, 9, 35, 47
7, 497664, Note_off_c, 9, 35, 80
7, 497664, Note_on_c, 9, 35, 47
7, 498688, Note_off_c, 9, 35, 80
7, 498688, Note_on_c, 9, 35, 47
7, 499712, Note_off_c, 9, 35, 80
7, 499712, Note_on_c, 9, 35, 47
7, 500736, Note_off_c, 9, 35, 80
7, 500736, Note_on_c, 9, 35, 47
7, 501760, Note_off_c, 9, 35, 80
7, 501760, Note_on_c, 9, 35, 31
7, 502784, Note_off_c, 9, 35, 80
7, 502784, Note_on_c, 9, 35, 31
7, 503808, Note_off_c, 9, 35, 80
7, 503808, Note_on_c, 9, 35, 47
7, 504832, Note_off_c, 9, 35, 80
7, 504832, Note_on_c, 9, 35, 47
7, 505856, Note_off_c, 9, 35, 80
7, 505856, Note_on_c, 9, 35, 47
7, 506880, Note_off_c, 9, 35, 80
7, 506880, Note_on_c, 9, 35, 47
7, 507904, Note_off_c, 9, 35, 80
7, 507904, Note_on_c, 9, 35, 47
7, 508928, Note_off_c, 9, 35, 80
7, 508928, Note_on_c, 9, 35, 47
7, 509952, Note_off_c, 9, 35, 80
7, 509952, Note_on_c, 9, 35, 47
7, 510976, Note_off_c, 9, 35, 80
7, 510976, Note_on_c, 9, 35, 47
7, 512000, Note_off_c, 9, 35, 80
7, 512000, Note_on_c, 9, 35, 31
7, 513024, Note_off_c, 9, 35, 80
7, 513024, Note_on_c, 9, 35, 31
7, 514048, Note_off_c, 9, 35, 80
7, 514048, End_track
0, 0, End_of_file
