0, 0, Header, 1, 17, 192
1, 0, Start_track
1, 0, Time_signature, 4, 2, 24, 8
1, 0, Key_signature, 0, "major"
1, 0, Tempo, 631579
1, 1536, Tempo, 571429
1, 2304, Tempo, 545455
1, 2304, End_track
2, 0, Start_track
2, 0, MIDI_port, 0
2, 0, Title_t, "Bass guitar     "
2, 0, Program_c, 1, 35
2, 0, Control_c, 1, 7, 116
2, 0, Control_c, 1, 10, 64
2, 0, Control_c, 1, 91, 26
2, 2304, Note_on_c, 1, 41, 127
2, 2496, Note_on_c, 1, 41, 0
2, 2688, Note_on_c, 1, 36, 127
2, 2880, Note_on_c, 1, 36, 0
2, 3072, Note_on_c, 1, 41, 127
2, 3264, Note_on_c, 1, 41, 0
2, 3456, Note_on_c, 1, 36, 127
2, 3648, Note_on_c, 1, 36, 0
2, 3840, Note_on_c, 1, 41, 127
2, 4032, Note_on_c, 1, 41, 0
2, 4224, Note_on_c, 1, 36, 127
2, 4416, Note_on_c, 1, 36, 0
2, 4608, Note_on_c, 1, 41, 127
2, 4992, Note_on_c, 1, 41, 0
2, 4992, Note_on_c, 1, 36, 127
2, 5184, Note_on_c, 1, 36, 0
2, 5376, Note_on_c, 1, 41, 127
2, 5568, Note_on_c, 1, 41, 0
2, 5712, Note_on_c, 1, 36, 127
2, 5760, Note_on_c, 1, 36, 0
2, 5904, Note_on_c, 1, 41, 127
2, 5952, Note_on_c, 1, 41, 0
2, 5952, Note_on_c, 1, 44, 127
2, 6336, Note_on_c, 1, 44, 0
2, 6480, Note_on_c, 1, 36, 127
2, 6592, Note_on_c, 1, 36, 0
2, 6672, Note_on_c, 1, 41, 127
2, 6720, Note_on_c, 1, 41, 0
2, 6720, Note_on_c, 1, 44, 127
2, 7104, Note_on_c, 1, 44, 0
2, 7248, Note_on_c, 1, 36, 127
2, 7296, Note_on_c, 1, 36, 0
2, 7440, Note_on_c, 1, 41, 127
2, 7488, Note_on_c, 1, 41, 0
2, 7488, Note_on_c, 1, 44, 127
2, 7872, Note_on_c, 1, 44, 0
2, 8016, Note_on_c, 1, 36, 127
2, 8128, Note_on_c, 1, 36, 0
2, 8208, Note_on_c, 1, 41, 127
2, 8256, Note_on_c, 1, 41, 0
2, 8256, Note_on_c, 1, 44, 127
2, 8448, Note_on_c, 1, 44, 0
2, 8448, Note_on_c, 1, 41, 127
2, 8640, Note_on_c, 1, 41, 0
2, 8832, Note_on_c, 1, 36, 127
2, 9024, Note_on_c, 1, 36, 0
2, 9216, Note_on_c, 1, 41, 127
2, 9408, Note_on_c, 1, 41, 0
2, 9600, Note_on_c, 1, 36, 127
2, 9792, Note_on_c, 1, 36, 0
2, 9984, Note_on_c, 1, 41, 127
2, 10176, Note_on_c, 1, 41, 0
2, 10368, Note_on_c, 1, 36, 127
2, 10560, Note_on_c, 1, 36, 0
2, 10752, Note_on_c, 1, 41, 127
2, 10944, Note_on_c, 1, 41, 0
2, 11136, Note_on_c, 1, 36, 127
2, 11328, Note_on_c, 1, 36, 0
2, 11520, Note_on_c, 1, 41, 127
2, 11712, Note_on_c, 1, 41, 0
2, 11856, Note_on_c, 1, 36, 127
2, 11968, Note_on_c, 1, 36, 0
2, 12048, Note_on_c, 1, 41, 127
2, 12096, Note_on_c, 1, 41, 0
2, 12096, Note_on_c, 1, 44, 127
2, 12480, Note_on_c, 1, 44, 0
2, 12624, Note_on_c, 1, 36, 127
2, 12736, Note_on_c, 1, 36, 0
2, 12816, Note_on_c, 1, 41, 127
2, 12864, Note_on_c, 1, 41, 0
2, 12864, Note_on_c, 1, 44, 127
2, 13248, Note_on_c, 1, 44, 0
2, 13392, Note_on_c, 1, 36, 127
2, 13504, Note_on_c, 1, 36, 0
2, 13584, Note_on_c, 1, 41, 127
2, 13632, Note_on_c, 1, 41, 0
2, 13632, Note_on_c, 1, 44, 127
2, 13824, Note_on_c, 1, 44, 0
2, 13824, Note_on_c, 1, 41, 127
2, 14464, Note_on_c, 1, 41, 0
2, 14592, Note_on_c, 1, 41, 127
2, 14784, Note_on_c, 1, 41, 0
2, 14784, Note_on_c, 1, 41, 127
2, 14976, Note_on_c, 1, 41, 0
2, 14976, Note_on_c, 1, 36, 127
2, 15168, Note_on_c, 1, 36, 0
2, 15168, Note_on_c, 1, 38, 127
2, 15312, Note_on_c, 1, 40, 127
2, 15344, Note_on_c, 1, 40, 0
2, 15360, Note_on_c, 1, 38, 0
2, 15360, Note_on_c, 1, 41, 127
2, 15552, Note_on_c, 1, 41, 0
2, 15552, Note_on_c, 1, 41, 127
2, 15632, Note_on_c, 1, 41, 0
2, 15696, Note_on_c, 1, 41, 127
2, 15736, Note_on_c, 1, 41, 0
2, 15744, Note_on_c, 1, 36, 127
2, 15936, Note_on_c, 1, 36, 0
2, 15936, Note_on_c, 1, 38, 127
2, 16056, Note_on_c, 1, 38, 0
2, 16080, Note_on_c, 1, 40, 127
2, 16120, Note_on_c, 1, 40, 0
2, 16128, Note_on_c, 1, 41, 127
2, 16320, Note_on_c, 1, 41, 0
2, 16320, Note_on_c, 1, 41, 127
2, 16400, Note_on_c, 1, 41, 0
2, 16464, Note_on_c, 1, 41, 127
2, 16504, Note_on_c, 1, 41, 0
2, 16512, Note_on_c, 1, 36, 127
2, 16600, Note_on_c, 1, 36, 0
2, 16656, Note_on_c, 1, 36, 127
2, 16704, Note_on_c, 1, 38, 127
2, 16712, Note_on_c, 1, 36, 0
2, 16824, Note_on_c, 1, 38, 0
2, 16848, Note_on_c, 1, 40, 127
2, 16880, Note_on_c, 1, 40, 0
2, 16896, Note_on_c, 1, 41, 127
2, 17016, Note_on_c, 1, 41, 0
2, 17088, Note_on_c, 1, 41, 127
2, 17280, Note_on_c, 1, 41, 0
2, 17280, Note_on_c, 1, 40, 127
2, 17472, Note_on_c, 1, 40, 0
2, 17472, Note_on_c, 1, 38, 127
2, 17664, Note_on_c, 1, 38, 0
2, 17664, Note_on_c, 1, 48, 127
2, 17856, Note_on_c, 1, 48, 0
2, 17856, Note_on_c, 1, 52, 127
2, 17976, Note_on_c, 1, 52, 0
2, 18000, Note_on_c, 1, 55, 127
2, 18048, Note_on_c, 1, 43, 127
2, 18056, Note_on_c, 1, 55, 0
2, 18240, Note_on_c, 1, 43, 0
2, 18240, Note_on_c, 1, 47, 127
2, 18384, Note_on_c, 1, 50, 127
2, 18432, Note_on_c, 1, 50, 0
2, 18432, Note_on_c, 1, 47, 0
2, 18432, Note_on_c, 1, 48, 127
2, 18624, Note_on_c, 1, 48, 0
2, 18624, Note_on_c, 1, 52, 127
2, 18768, Note_on_c, 1, 55, 127
2, 18808, Note_on_c, 1, 55, 0
2, 18816, Note_on_c, 1, 52, 0
2, 18816, Note_on_c, 1, 43, 127
2, 19008, Note_on_c, 1, 43, 0
2, 19008, Note_on_c, 1, 47, 127
2, 19152, Note_on_c, 1, 50, 127
2, 19200, Note_on_c, 1, 50, 0
2, 19200, Note_on_c, 1, 47, 0
2, 19200, Note_on_c, 1, 48, 127
2, 19392, Note_on_c, 1, 48, 0
2, 19392, Note_on_c, 1, 52, 127
2, 19536, Note_on_c, 1, 55, 127
2, 19584, Note_on_c, 1, 55, 0
2, 19584, Note_on_c, 1, 52, 0
2, 19584, Note_on_c, 1, 43, 127
2, 19776, Note_on_c, 1, 43, 0
2, 19776, Note_on_c, 1, 47, 127
2, 19920, Note_on_c, 1, 50, 127
2, 19968, Note_on_c, 1, 47, 0
2, 19968, Note_on_c, 1, 48, 127
2, 19976, Note_on_c, 1, 50, 0
2, 20160, Note_on_c, 1, 48, 0
2, 20160, Note_on_c, 1, 50, 127
2, 20352, Note_on_c, 1, 50, 0
2, 20352, Note_on_c, 1, 51, 127
2, 20544, Note_on_c, 1, 51, 0
2, 20544, Note_on_c, 1, 52, 127
2, 20736, Note_on_c, 1, 52, 0
2, 20736, Note_on_c, 1, 41, 127
2, 20928, Note_on_c, 1, 41, 0
2, 21120, Note_on_c, 1, 36, 127
2, 21312, Note_on_c, 1, 36, 0
2, 21504, Note_on_c, 1, 41, 127
2, 21696, Note_on_c, 1, 41, 0
2, 21888, Note_on_c, 1, 36, 127
2, 22080, Note_on_c, 1, 36, 0
2, 22272, Note_on_c, 1, 41, 127
2, 22464, Note_on_c, 1, 41, 0
2, 22656, Note_on_c, 1, 36, 127
2, 22848, Note_on_c, 1, 36, 0
2, 23040, Note_on_c, 1, 41, 127
2, 23424, Note_on_c, 1, 41, 0
2, 23424, Note_on_c, 1, 36, 127
2, 23616, Note_on_c, 1, 36, 0
2, 23808, Note_on_c, 1, 41, 127
2, 24000, Note_on_c, 1, 41, 0
2, 24144, Note_on_c, 1, 36, 127
2, 24192, Note_on_c, 1, 36, 0
2, 24336, Note_on_c, 1, 41, 127
2, 24384, Note_on_c, 1, 41, 0
2, 24384, Note_on_c, 1, 44, 127
2, 24768, Note_on_c, 1, 44, 0
2, 24912, Note_on_c, 1, 36, 127
2, 25024, Note_on_c, 1, 36, 0
2, 25104, Note_on_c, 1, 41, 127
2, 25152, Note_on_c, 1, 41, 0
2, 25152, Note_on_c, 1, 44, 127
2, 25536, Note_on_c, 1, 44, 0
2, 25680, Note_on_c, 1, 36, 127
2, 25728, Note_on_c, 1, 36, 0
2, 25872, Note_on_c, 1, 41, 127
2, 25920, Note_on_c, 1, 41, 0
2, 25920, Note_on_c, 1, 44, 127
2, 26304, Note_on_c, 1, 44, 0
2, 26448, Note_on_c, 1, 36, 127
2, 26560, Note_on_c, 1, 36, 0
2, 26640, Note_on_c, 1, 41, 127
2, 26688, Note_on_c, 1, 41, 0
2, 26688, Note_on_c, 1, 44, 127
2, 26880, Note_on_c, 1, 44, 0
2, 26880, Note_on_c, 1, 41, 127
2, 27072, Note_on_c, 1, 41, 0
2, 27264, Note_on_c, 1, 36, 127
2, 27456, Note_on_c, 1, 36, 0
2, 27648, Note_on_c, 1, 41, 127
2, 27840, Note_on_c, 1, 41, 0
2, 28032, Note_on_c, 1, 36, 127
2, 28224, Note_on_c, 1, 36, 0
2, 28416, Note_on_c, 1, 41, 127
2, 28608, Note_on_c, 1, 41, 0
2, 28800, Note_on_c, 1, 36, 127
2, 28992, Note_on_c, 1, 36, 0
2, 29184, Note_on_c, 1, 41, 127
2, 29568, Note_on_c, 1, 41, 0
2, 29568, Note_on_c, 1, 36, 127
2, 29760, Note_on_c, 1, 36, 0
2, 29952, Note_on_c, 1, 41, 127
2, 30144, Note_on_c, 1, 41, 0
2, 30288, Note_on_c, 1, 36, 127
2, 30336, Note_on_c, 1, 36, 0
2, 30480, Note_on_c, 1, 41, 127
2, 30528, Note_on_c, 1, 41, 0
2, 30528, Note_on_c, 1, 44, 127
2, 30912, Note_on_c, 1, 44, 0
2, 31056, Note_on_c, 1, 36, 127
2, 31168, Note_on_c, 1, 36, 0
2, 31248, Note_on_c, 1, 41, 127
2, 31296, Note_on_c, 1, 41, 0
2, 31296, Note_on_c, 1, 44, 127
2, 31680, Note_on_c, 1, 44, 0
2, 31824, Note_on_c, 1, 36, 127
2, 31872, Note_on_c, 1, 36, 0
2, 32016, Note_on_c, 1, 41, 127
2, 32064, Note_on_c, 1, 41, 0
2, 32064, Note_on_c, 1, 44, 127
2, 32448, Note_on_c, 1, 44, 0
2, 33024, Note_on_c, 1, 41, 127
2, 33216, Note_on_c, 1, 41, 0
2, 33216, Note_on_c, 1, 41, 127
2, 33408, Note_on_c, 1, 41, 0
2, 33408, Note_on_c, 1, 36, 127
2, 33600, Note_on_c, 1, 36, 0
2, 33600, Note_on_c, 1, 38, 127
2, 33744, Note_on_c, 1, 40, 127
2, 33776, Note_on_c, 1, 40, 0
2, 33792, Note_on_c, 1, 38, 0
2, 33792, Note_on_c, 1, 41, 127
2, 33984, Note_on_c, 1, 41, 0
2, 33984, Note_on_c, 1, 41, 127
2, 34064, Note_on_c, 1, 41, 0
2, 34128, Note_on_c, 1, 41, 127
2, 34168, Note_on_c, 1, 41, 0
2, 34176, Note_on_c, 1, 36, 127
2, 34368, Note_on_c, 1, 36, 0
2, 34368, Note_on_c, 1, 38, 127
2, 34488, Note_on_c, 1, 38, 0
2, 34512, Note_on_c, 1, 40, 127
2, 34552, Note_on_c, 1, 40, 0
2, 34560, Note_on_c, 1, 41, 127
2, 34752, Note_on_c, 1, 41, 0
2, 34752, Note_on_c, 1, 41, 127
2, 34832, Note_on_c, 1, 41, 0
2, 34896, Note_on_c, 1, 41, 127
2, 34936, Note_on_c, 1, 41, 0
2, 34944, Note_on_c, 1, 36, 127
2, 35032, Note_on_c, 1, 36, 0
2, 35088, Note_on_c, 1, 36, 127
2, 35136, Note_on_c, 1, 38, 127
2, 35144, Note_on_c, 1, 36, 0
2, 35256, Note_on_c, 1, 38, 0
2, 35280, Note_on_c, 1, 40, 127
2, 35312, Note_on_c, 1, 40, 0
2, 35328, Note_on_c, 1, 41, 127
2, 35448, Note_on_c, 1, 41, 0
2, 35520, Note_on_c, 1, 41, 127
2, 35712, Note_on_c, 1, 41, 0
2, 35712, Note_on_c, 1, 40, 127
2, 35904, Note_on_c, 1, 40, 0
2, 35904, Note_on_c, 1, 38, 127
2, 36096, Note_on_c, 1, 38, 0
2, 36096, Note_on_c, 1, 48, 127
2, 36288, Note_on_c, 1, 48, 0
2, 36288, Note_on_c, 1, 52, 127
2, 36408, Note_on_c, 1, 52, 0
2, 36432, Note_on_c, 1, 55, 127
2, 36480, Note_on_c, 1, 43, 127
2, 36488, Note_on_c, 1, 55, 0
2, 36672, Note_on_c, 1, 43, 0
2, 36672, Note_on_c, 1, 47, 127
2, 36816, Note_on_c, 1, 50, 127
2, 36864, Note_on_c, 1, 50, 0
2, 36864, Note_on_c, 1, 47, 0
2, 36864, Note_on_c, 1, 48, 127
2, 37056, Note_on_c, 1, 48, 0
2, 37056, Note_on_c, 1, 52, 127
2, 37200, Note_on_c, 1, 55, 127
2, 37240, Note_on_c, 1, 55, 0
2, 37248, Note_on_c, 1, 52, 0
2, 37248, Note_on_c, 1, 43, 127
2, 37440, Note_on_c, 1, 43, 0
2, 37440, Note_on_c, 1, 47, 127
2, 37584, Note_on_c, 1, 50, 127
2, 37632, Note_on_c, 1, 50, 0
2, 37632, Note_on_c, 1, 47, 0
2, 37632, Note_on_c, 1, 48, 127
2, 37824, Note_on_c, 1, 48, 0
2, 37824, Note_on_c, 1, 52, 127
2, 37968, Note_on_c, 1, 55, 127
2, 38016, Note_on_c, 1, 55, 0
2, 38016, Note_on_c, 1, 52, 0
2, 38016, Note_on_c, 1, 43, 127
2, 38208, Note_on_c, 1, 43, 0
2, 38208, Note_on_c, 1, 47, 127
2, 38352, Note_on_c, 1, 50, 127
2, 38400, Note_on_c, 1, 47, 0
2, 38400, Note_on_c, 1, 48, 127
2, 38408, Note_on_c, 1, 50, 0
2, 38592, Note_on_c, 1, 48, 0
2, 38592, Note_on_c, 1, 50, 127
2, 38784, Note_on_c, 1, 50, 0
2, 38784, Note_on_c, 1, 51, 127
2, 38976, Note_on_c, 1, 51, 0
2, 38976, Note_on_c, 1, 52, 127
2, 39168, Note_on_c, 1, 52, 0
2, 39168, Note_on_c, 1, 41, 127
2, 39360, Note_on_c, 1, 41, 0
2, 39552, Note_on_c, 1, 36, 127
2, 39744, Note_on_c, 1, 36, 0
2, 39936, Note_on_c, 1, 41, 127
2, 40128, Note_on_c, 1, 41, 0
2, 40320, Note_on_c, 1, 36, 127
2, 40512, Note_on_c, 1, 36, 0
2, 40704, Note_on_c, 1, 41, 127
2, 40896, Note_on_c, 1, 41, 0
2, 41088, Note_on_c, 1, 36, 127
2, 41280, Note_on_c, 1, 36, 0
2, 41472, Note_on_c, 1, 41, 127
2, 41856, Note_on_c, 1, 41, 0
2, 41856, Note_on_c, 1, 36, 127
2, 42048, Note_on_c, 1, 36, 0
2, 42240, Note_on_c, 1, 41, 127
2, 42432, Note_on_c, 1, 41, 0
2, 42576, Note_on_c, 1, 36, 127
2, 42624, Note_on_c, 1, 36, 0
2, 42768, Note_on_c, 1, 41, 127
2, 42816, Note_on_c, 1, 41, 0
2, 42816, Note_on_c, 1, 44, 127
2, 43200, Note_on_c, 1, 44, 0
2, 43344, Note_on_c, 1, 36, 127
2, 43456, Note_on_c, 1, 36, 0
2, 43536, Note_on_c, 1, 41, 127
2, 43584, Note_on_c, 1, 41, 0
2, 43584, Note_on_c, 1, 44, 127
2, 43968, Note_on_c, 1, 44, 0
2, 44112, Note_on_c, 1, 36, 127
2, 44160, Note_on_c, 1, 36, 0
2, 44304, Note_on_c, 1, 41, 127
2, 44352, Note_on_c, 1, 41, 0
2, 44352, Note_on_c, 1, 44, 127
2, 44736, Note_on_c, 1, 44, 0
2, 44880, Note_on_c, 1, 36, 127
2, 44992, Note_on_c, 1, 36, 0
2, 45072, Note_on_c, 1, 41, 127
2, 45120, Note_on_c, 1, 41, 0
2, 45120, Note_on_c, 1, 44, 127
2, 45312, Note_on_c, 1, 44, 0
2, 45312, Note_on_c, 1, 41, 127
2, 45504, Note_on_c, 1, 41, 0
2, 45696, Note_on_c, 1, 36, 127
2, 45888, Note_on_c, 1, 36, 0
2, 46080, Note_on_c, 1, 41, 127
2, 46272, Note_on_c, 1, 41, 0
2, 46464, Note_on_c, 1, 36, 127
2, 46656, Note_on_c, 1, 36, 0
2, 46848, Note_on_c, 1, 41, 127
2, 47040, Note_on_c, 1, 41, 0
2, 47232, Note_on_c, 1, 36, 127
2, 47424, Note_on_c, 1, 36, 0
2, 47616, Note_on_c, 1, 41, 127
2, 48000, Note_on_c, 1, 41, 0
2, 48000, Note_on_c, 1, 36, 127
2, 48192, Note_on_c, 1, 36, 0
2, 48384, Note_on_c, 1, 41, 127
2, 48576, Note_on_c, 1, 41, 0
2, 48720, Note_on_c, 1, 36, 127
2, 48768, Note_on_c, 1, 36, 0
2, 48912, Note_on_c, 1, 41, 127
2, 48960, Note_on_c, 1, 41, 0
2, 48960, Note_on_c, 1, 44, 127
2, 49344, Note_on_c, 1, 44, 0
2, 49488, Note_on_c, 1, 36, 127
2, 49600, Note_on_c, 1, 36, 0
2, 49680, Note_on_c, 1, 41, 127
2, 49728, Note_on_c, 1, 41, 0
2, 49728, Note_on_c, 1, 44, 127
2, 50112, Note_on_c, 1, 44, 0
2, 50256, Note_on_c, 1, 36, 127
2, 50304, Note_on_c, 1, 36, 0
2, 50448, Note_on_c, 1, 41, 127
2, 50496, Note_on_c, 1, 41, 0
2, 50496, Note_on_c, 1, 44, 127
2, 50880, Note_on_c, 1, 44, 0
2, 51024, Note_on_c, 1, 36, 127
2, 51136, Note_on_c, 1, 36, 0
2, 51216, Note_on_c, 1, 41, 127
2, 51264, Note_on_c, 1, 41, 0
2, 51264, Note_on_c, 1, 44, 127
2, 51456, Note_on_c, 1, 44, 0
2, 51456, Note_on_c, 1, 29, 127
2, 51744, Note_on_c, 1, 29, 0
2, 51744, End_track
3, 0, Start_track
3, 0, MIDI_port, 0
3, 0, Title_t, "Harpsichord     "
3, 0, Program_c, 2, 7
3, 0, Control_c, 2, 7, 110
3, 0, Control_c, 2, 10, 68
3, 0, Control_c, 2, 91, 103
3, 384, Note_on_c, 2, 69, 127
3, 384, Note_on_c, 2, 72, 127
3, 432, Note_on_c, 2, 72, 0
3, 432, Note_on_c, 2, 69, 0
3, 480, Note_on_c, 2, 69, 127
3, 480, Note_on_c, 2, 72, 127
3, 528, Note_on_c, 2, 72, 0
3, 528, Note_on_c, 2, 69, 0
3, 576, Note_on_c, 2, 69, 127
3, 576, Note_on_c, 2, 72, 127
3, 624, Note_on_c, 2, 72, 0
3, 624, Note_on_c, 2, 69, 0
3, 672, Note_on_c, 2, 69, 127
3, 672, Note_on_c, 2, 72, 127
3, 720, Note_on_c, 2, 72, 0
3, 720, Note_on_c, 2, 69, 0
3, 768, Note_on_c, 2, 68, 127
3, 768, Note_on_c, 2, 72, 127
3, 816, Note_on_c, 2, 72, 0
3, 816, Note_on_c, 2, 68, 0
3, 864, Note_on_c, 2, 68, 127
3, 864, Note_on_c, 2, 72, 127
3, 912, Note_on_c, 2, 72, 0
3, 912, Note_on_c, 2, 68, 0
3, 960, Note_on_c, 2, 72, 127
3, 960, Note_on_c, 2, 68, 127
3, 1008, Note_on_c, 2, 68, 0
3, 1008, Note_on_c, 2, 72, 0
3, 1056, Note_on_c, 2, 68, 127
3, 1056, Note_on_c, 2, 72, 127
3, 1104, Note_on_c, 2, 72, 0
3, 1104, Note_on_c, 2, 68, 0
3, 1152, Note_on_c, 2, 72, 127
3, 1152, Note_on_c, 2, 65, 127
3, 1200, Note_on_c, 2, 65, 0
3, 1200, Note_on_c, 2, 72, 0
3, 1248, Note_on_c, 2, 72, 127
3, 1248, Note_on_c, 2, 65, 127
3, 1296, Note_on_c, 2, 65, 0
3, 1296, Note_on_c, 2, 72, 0
3, 1344, Note_on_c, 2, 72, 127
3, 1344, Note_on_c, 2, 68, 127
3, 1392, Note_on_c, 2, 68, 0
3, 1392, Note_on_c, 2, 72, 0
3, 1440, Note_on_c, 2, 72, 127
3, 1440, Note_on_c, 2, 68, 127
3, 1488, Note_on_c, 2, 68, 0
3, 1488, Note_on_c, 2, 72, 0
3, 1536, Note_on_c, 2, 70, 127
3, 1536, Note_on_c, 2, 68, 127
3, 1536, Note_on_c, 2, 65, 127
3, 2160, Note_on_c, 2, 65, 0
3, 2160, Note_on_c, 2, 68, 0
3, 2160, Note_on_c, 2, 70, 0
3, 2304, Note_on_c, 2, 72, 70
3, 2304, Note_on_c, 2, 69, 70
3, 2304, Note_on_c, 2, 65, 70
3, 2488, Note_on_c, 2, 65, 0
3, 2488, Note_on_c, 2, 69, 0
3, 2488, Note_on_c, 2, 72, 0
3, 2496, Note_on_c, 2, 69, 70
3, 2496, Note_on_c, 2, 65, 70
3, 2496, Note_on_c, 2, 72, 70
3, 2680, Note_on_c, 2, 72, 0
3, 2680, Note_on_c, 2, 65, 0
3, 2680, Note_on_c, 2, 69, 0
3, 2688, Note_on_c, 2, 72, 70
3, 2688, Note_on_c, 2, 67, 70
3, 2688, Note_on_c, 2, 64, 70
3, 2872, Note_on_c, 2, 64, 0
3, 2872, Note_on_c, 2, 67, 0
3, 2872, Note_on_c, 2, 72, 0
3, 2880, Note_on_c, 2, 72, 70
3, 2880, Note_on_c, 2, 67, 70
3, 2880, Note_on_c, 2, 64, 70
3, 3064, Note_on_c, 2, 64, 0
3, 3064, Note_on_c, 2, 67, 0
3, 3064, Note_on_c, 2, 72, 0
3, 3072, Note_on_c, 2, 68, 70
3, 3072, Note_on_c, 2, 75, 70
3, 3072, Note_on_c, 2, 72, 70
3, 3072, Note_on_c, 2, 65, 70
3, 3256, Note_on_c, 2, 65, 0
3, 3256, Note_on_c, 2, 68, 0
3, 3256, Note_on_c, 2, 75, 0
3, 3256, Note_on_c, 2, 72, 0
3, 3264, Note_on_c, 2, 75, 70
3, 3264, Note_on_c, 2, 72, 70
3, 3264, Note_on_c, 2, 68, 70
3, 3264, Note_on_c, 2, 65, 70
3, 3448, Note_on_c, 2, 65, 0
3, 3448, Note_on_c, 2, 75, 0
3, 3448, Note_on_c, 2, 72, 0
3, 3448, Note_on_c, 2, 68, 0
3, 3456, Note_on_c, 2, 72, 70
3, 3456, Note_on_c, 2, 68, 70
3, 3456, Note_on_c, 2, 74, 70
3, 3456, Note_on_c, 2, 65, 70
3, 3640, Note_on_c, 2, 65, 0
3, 3640, Note_on_c, 2, 72, 0
3, 3640, Note_on_c, 2, 68, 0
3, 3640, Note_on_c, 2, 74, 0
3, 3648, Note_on_c, 2, 72, 70
3, 3648, Note_on_c, 2, 74, 70
3, 3648, Note_on_c, 2, 68, 70
3, 3648, Note_on_c, 2, 65, 70
3, 3832, Note_on_c, 2, 65, 0
3, 3832, Note_on_c, 2, 72, 0
3, 3832, Note_on_c, 2, 74, 0
3, 3832, Note_on_c, 2, 68, 0
3, 3840, Note_on_c, 2, 68, 70
3, 3840, Note_on_c, 2, 75, 70
3, 3840, Note_on_c, 2, 72, 70
3, 3840, Note_on_c, 2, 65, 70
3, 4024, Note_on_c, 2, 65, 0
3, 4024, Note_on_c, 2, 68, 0
3, 4024, Note_on_c, 2, 75, 0
3, 4024, Note_on_c, 2, 72, 0
3, 4032, Note_on_c, 2, 68, 70
3, 4032, Note_on_c, 2, 75, 70
3, 4032, Note_on_c, 2, 72, 70
3, 4032, Note_on_c, 2, 65, 70
3, 4216, Note_on_c, 2, 65, 0
3, 4216, Note_on_c, 2, 68, 0
3, 4216, Note_on_c, 2, 75, 0
3, 4216, Note_on_c, 2, 72, 0
3, 4224, Note_on_c, 2, 75, 70
3, 4224, Note_on_c, 2, 72, 70
3, 4224, Note_on_c, 2, 68, 70
3, 4224, Note_on_c, 2, 65, 70
3, 4408, Note_on_c, 2, 65, 0
3, 4408, Note_on_c, 2, 75, 0
3, 4408, Note_on_c, 2, 72, 0
3, 4408, Note_on_c, 2, 68, 0
3, 4416, Note_on_c, 2, 75, 70
3, 4416, Note_on_c, 2, 72, 70
3, 4416, Note_on_c, 2, 68, 70
3, 4416, Note_on_c, 2, 65, 70
3, 4600, Note_on_c, 2, 65, 0
3, 4600, Note_on_c, 2, 75, 0
3, 4600, Note_on_c, 2, 72, 0
3, 4600, Note_on_c, 2, 68, 0
3, 4608, Note_on_c, 2, 65, 70
3, 4608, Note_on_c, 2, 70, 70
3, 4608, Note_on_c, 2, 74, 70
3, 4792, Note_on_c, 2, 74, 0
3, 4792, Note_on_c, 2, 70, 0
3, 4792, Note_on_c, 2, 65, 0
3, 4800, Note_on_c, 2, 70, 70
3, 4800, Note_on_c, 2, 65, 70
3, 4800, Note_on_c, 2, 74, 70
3, 4984, Note_on_c, 2, 74, 0
3, 4984, Note_on_c, 2, 65, 0
3, 4984, Note_on_c, 2, 70, 0
3, 4992, Note_on_c, 2, 70, 70
3, 4992, Note_on_c, 2, 65, 70
3, 4992, Note_on_c, 2, 74, 70
3, 5176, Note_on_c, 2, 74, 0
3, 5176, Note_on_c, 2, 65, 0
3, 5176, Note_on_c, 2, 70, 0
3, 5184, Note_on_c, 2, 65, 70
3, 5184, Note_on_c, 2, 70, 70
3, 5184, Note_on_c, 2, 74, 70
3, 5368, Note_on_c, 2, 74, 0
3, 5368, Note_on_c, 2, 70, 0
3, 5368, Note_on_c, 2, 65, 0
3, 5376, Note_on_c, 2, 75, 70
3, 5376, Note_on_c, 2, 72, 70
3, 5376, Note_on_c, 2, 68, 70
3, 5376, Note_on_c, 2, 65, 70
3, 5560, Note_on_c, 2, 65, 0
3, 5560, Note_on_c, 2, 75, 0
3, 5560, Note_on_c, 2, 72, 0
3, 5560, Note_on_c, 2, 68, 0
3, 5568, Note_on_c, 2, 75, 70
3, 5568, Note_on_c, 2, 68, 70
3, 5568, Note_on_c, 2, 72, 70
3, 5568, Note_on_c, 2, 65, 70
3, 5752, Note_on_c, 2, 65, 0
3, 5752, Note_on_c, 2, 75, 0
3, 5752, Note_on_c, 2, 68, 0
3, 5752, Note_on_c, 2, 72, 0
3, 5760, Note_on_c, 2, 75, 70
3, 5760, Note_on_c, 2, 72, 70
3, 5760, Note_on_c, 2, 68, 70
3, 5760, Note_on_c, 2, 65, 70
3, 5944, Note_on_c, 2, 65, 0
3, 5944, Note_on_c, 2, 75, 0
3, 5944, Note_on_c, 2, 72, 0
3, 5944, Note_on_c, 2, 68, 0
3, 5952, Note_on_c, 2, 75, 70
3, 5952, Note_on_c, 2, 72, 70
3, 5952, Note_on_c, 2, 68, 70
3, 5952, Note_on_c, 2, 65, 70
3, 6136, Note_on_c, 2, 65, 0
3, 6136, Note_on_c, 2, 75, 0
3, 6136, Note_on_c, 2, 72, 0
3, 6136, Note_on_c, 2, 68, 0
3, 6144, Note_on_c, 2, 74, 70
3, 6144, Note_on_c, 2, 70, 70
3, 6144, Note_on_c, 2, 65, 70
3, 6328, Note_on_c, 2, 65, 0
3, 6328, Note_on_c, 2, 70, 0
3, 6328, Note_on_c, 2, 74, 0
3, 6336, Note_on_c, 2, 65, 70
3, 6336, Note_on_c, 2, 70, 70
3, 6336, Note_on_c, 2, 74, 70
3, 6520, Note_on_c, 2, 74, 0
3, 6520, Note_on_c, 2, 70, 0
3, 6520, Note_on_c, 2, 65, 0
3, 6528, Note_on_c, 2, 65, 70
3, 6528, Note_on_c, 2, 70, 70
3, 6528, Note_on_c, 2, 74, 70
3, 6712, Note_on_c, 2, 74, 0
3, 6712, Note_on_c, 2, 70, 0
3, 6712, Note_on_c, 2, 65, 0
3, 6720, Note_on_c, 2, 65, 70
3, 6720, Note_on_c, 2, 70, 70
3, 6720, Note_on_c, 2, 74, 70
3, 6904, Note_on_c, 2, 74, 0
3, 6904, Note_on_c, 2, 70, 0
3, 6904, Note_on_c, 2, 65, 0
3, 6912, Note_on_c, 2, 68, 70
3, 6912, Note_on_c, 2, 75, 70
3, 6912, Note_on_c, 2, 72, 70
3, 6912, Note_on_c, 2, 65, 70
3, 7096, Note_on_c, 2, 65, 0
3, 7096, Note_on_c, 2, 68, 0
3, 7096, Note_on_c, 2, 75, 0
3, 7096, Note_on_c, 2, 72, 0
3, 7104, Note_on_c, 2, 72, 70
3, 7104, Note_on_c, 2, 75, 70
3, 7104, Note_on_c, 2, 68, 70
3, 7104, Note_on_c, 2, 65, 70
3, 7288, Note_on_c, 2, 65, 0
3, 7288, Note_on_c, 2, 72, 0
3, 7288, Note_on_c, 2, 75, 0
3, 7288, Note_on_c, 2, 68, 0
3, 7296, Note_on_c, 2, 72, 70
3, 7296, Note_on_c, 2, 75, 70
3, 7296, Note_on_c, 2, 68, 70
3, 7296, Note_on_c, 2, 65, 70
3, 7480, Note_on_c, 2, 65, 0
3, 7480, Note_on_c, 2, 72, 0
3, 7480, Note_on_c, 2, 75, 0
3, 7480, Note_on_c, 2, 68, 0
3, 7488, Note_on_c, 2, 75, 70
3, 7488, Note_on_c, 2, 72, 70
3, 7488, Note_on_c, 2, 68, 70
3, 7488, Note_on_c, 2, 65, 70
3, 7672, Note_on_c, 2, 65, 0
3, 7672, Note_on_c, 2, 75, 0
3, 7672, Note_on_c, 2, 72, 0
3, 7672, Note_on_c, 2, 68, 0
3, 7680, Note_on_c, 2, 70, 70
3, 7680, Note_on_c, 2, 65, 70
3, 7680, Note_on_c, 2, 74, 70
3, 7864, Note_on_c, 2, 74, 0
3, 7864, Note_on_c, 2, 65, 0
3, 7864, Note_on_c, 2, 70, 0
3, 7872, Note_on_c, 2, 65, 70
3, 7872, Note_on_c, 2, 70, 70
3, 7872, Note_on_c, 2, 74, 70
3, 8056, Note_on_c, 2, 74, 0
3, 8056, Note_on_c, 2, 70, 0
3, 8056, Note_on_c, 2, 65, 0
3, 8064, Note_on_c, 2, 70, 70
3, 8064, Note_on_c, 2, 65, 70
3, 8064, Note_on_c, 2, 74, 70
3, 8248, Note_on_c, 2, 74, 0
3, 8248, Note_on_c, 2, 65, 0
3, 8248, Note_on_c, 2, 70, 0
3, 8256, Note_on_c, 2, 70, 70
3, 8256, Note_on_c, 2, 65, 70
3, 8256, Note_on_c, 2, 74, 70
3, 8440, Note_on_c, 2, 74, 0
3, 8440, Note_on_c, 2, 65, 0
3, 8440, Note_on_c, 2, 70, 0
3, 8448, Note_on_c, 2, 72, 70
3, 8448, Note_on_c, 2, 69, 70
3, 8448, Note_on_c, 2, 65, 70
3, 8632, Note_on_c, 2, 65, 0
3, 8632, Note_on_c, 2, 69, 0
3, 8632, Note_on_c, 2, 72, 0
3, 8640, Note_on_c, 2, 69, 70
3, 8640, Note_on_c, 2, 65, 70
3, 8640, Note_on_c, 2, 72, 70
3, 8824, Note_on_c, 2, 72, 0
3, 8824, Note_on_c, 2, 65, 0
3, 8824, Note_on_c, 2, 69, 0
3, 8832, Note_on_c, 2, 72, 70
3, 8832, Note_on_c, 2, 67, 70
3, 8832, Note_on_c, 2, 64, 70
3, 9016, Note_on_c, 2, 64, 0
3, 9016, Note_on_c, 2, 67, 0
3, 9016, Note_on_c, 2, 72, 0
3, 9024, Note_on_c, 2, 72, 70
3, 9024, Note_on_c, 2, 67, 70
3, 9024, Note_on_c, 2, 64, 70
3, 9208, Note_on_c, 2, 64, 0
3, 9208, Note_on_c, 2, 67, 0
3, 9208, Note_on_c, 2, 72, 0
3, 9216, Note_on_c, 2, 68, 70
3, 9216, Note_on_c, 2, 75, 70
3, 9216, Note_on_c, 2, 72, 70
3, 9216, Note_on_c, 2, 65, 70
3, 9400, Note_on_c, 2, 65, 0
3, 9400, Note_on_c, 2, 68, 0
3, 9400, Note_on_c, 2, 75, 0
3, 9400, Note_on_c, 2, 72, 0
3, 9408, Note_on_c, 2, 75, 70
3, 9408, Note_on_c, 2, 72, 70
3, 9408, Note_on_c, 2, 68, 70
3, 9408, Note_on_c, 2, 65, 70
3, 9592, Note_on_c, 2, 65, 0
3, 9592, Note_on_c, 2, 75, 0
3, 9592, Note_on_c, 2, 72, 0
3, 9592, Note_on_c, 2, 68, 0
3, 9600, Note_on_c, 2, 72, 70
3, 9600, Note_on_c, 2, 68, 70
3, 9600, Note_on_c, 2, 74, 70
3, 9600, Note_on_c, 2, 65, 70
3, 9784, Note_on_c, 2, 65, 0
3, 9784, Note_on_c, 2, 72, 0
3, 9784, Note_on_c, 2, 68, 0
3, 9784, Note_on_c, 2, 74, 0
3, 9792, Note_on_c, 2, 72, 70
3, 9792, Note_on_c, 2, 74, 70
3, 9792, Note_on_c, 2, 68, 70
3, 9792, Note_on_c, 2, 65, 70
3, 9976, Note_on_c, 2, 65, 0
3, 9976, Note_on_c, 2, 72, 0
3, 9976, Note_on_c, 2, 74, 0
3, 9976, Note_on_c, 2, 68, 0
3, 9984, Note_on_c, 2, 68, 70
3, 9984, Note_on_c, 2, 75, 70
3, 9984, Note_on_c, 2, 72, 70
3, 9984, Note_on_c, 2, 65, 70
3, 10168, Note_on_c, 2, 65, 0
3, 10168, Note_on_c, 2, 68, 0
3, 10168, Note_on_c, 2, 75, 0
3, 10168, Note_on_c, 2, 72, 0
3, 10176, Note_on_c, 2, 68, 70
3, 10176, Note_on_c, 2, 75, 70
3, 10176, Note_on_c, 2, 72, 70
3, 10176, Note_on_c, 2, 65, 70
3, 10360, Note_on_c, 2, 65, 0
3, 10360, Note_on_c, 2, 68, 0
3, 10360, Note_on_c, 2, 75, 0
3, 10360, Note_on_c, 2, 72, 0
3, 10368, Note_on_c, 2, 75, 70
3, 10368, Note_on_c, 2, 72, 70
3, 10368, Note_on_c, 2, 68, 70
3, 10368, Note_on_c, 2, 65, 70
3, 10552, Note_on_c, 2, 65, 0
3, 10552, Note_on_c, 2, 75, 0
3, 10552, Note_on_c, 2, 72, 0
3, 10552, Note_on_c, 2, 68, 0
3, 10560, Note_on_c, 2, 75, 70
3, 10560, Note_on_c, 2, 72, 70
3, 10560, Note_on_c, 2, 68, 70
3, 10560, Note_on_c, 2, 65, 70
3, 10744, Note_on_c, 2, 65, 0
3, 10744, Note_on_c, 2, 75, 0
3, 10744, Note_on_c, 2, 72, 0
3, 10744, Note_on_c, 2, 68, 0
3, 10752, Note_on_c, 2, 65, 70
3, 10752, Note_on_c, 2, 70, 70
3, 10752, Note_on_c, 2, 74, 70
3, 10936, Note_on_c, 2, 74, 0
3, 10936, Note_on_c, 2, 70, 0
3, 10936, Note_on_c, 2, 65, 0
3, 10944, Note_on_c, 2, 70, 70
3, 10944, Note_on_c, 2, 65, 70
3, 10944, Note_on_c, 2, 74, 70
3, 11128, Note_on_c, 2, 74, 0
3, 11128, Note_on_c, 2, 65, 0
3, 11128, Note_on_c, 2, 70, 0
3, 11136, Note_on_c, 2, 70, 70
3, 11136, Note_on_c, 2, 65, 70
3, 11136, Note_on_c, 2, 74, 70
3, 11320, Note_on_c, 2, 74, 0
3, 11320, Note_on_c, 2, 65, 0
3, 11320, Note_on_c, 2, 70, 0
3, 11328, Note_on_c, 2, 65, 70
3, 11328, Note_on_c, 2, 70, 70
3, 11328, Note_on_c, 2, 74, 70
3, 11512, Note_on_c, 2, 74, 0
3, 11512, Note_on_c, 2, 70, 0
3, 11512, Note_on_c, 2, 65, 0
3, 11520, Note_on_c, 2, 75, 70
3, 11520, Note_on_c, 2, 72, 70
3, 11520, Note_on_c, 2, 68, 70
3, 11520, Note_on_c, 2, 65, 70
3, 11704, Note_on_c, 2, 65, 0
3, 11704, Note_on_c, 2, 75, 0
3, 11704, Note_on_c, 2, 72, 0
3, 11704, Note_on_c, 2, 68, 0
3, 11712, Note_on_c, 2, 75, 70
3, 11712, Note_on_c, 2, 68, 70
3, 11712, Note_on_c, 2, 72, 70
3, 11712, Note_on_c, 2, 65, 70
3, 11896, Note_on_c, 2, 65, 0
3, 11896, Note_on_c, 2, 75, 0
3, 11896, Note_on_c, 2, 68, 0
3, 11896, Note_on_c, 2, 72, 0
3, 11904, Note_on_c, 2, 75, 70
3, 11904, Note_on_c, 2, 72, 70
3, 11904, Note_on_c, 2, 68, 70
3, 11904, Note_on_c, 2, 65, 70
3, 12088, Note_on_c, 2, 65, 0
3, 12088, Note_on_c, 2, 75, 0
3, 12088, Note_on_c, 2, 72, 0
3, 12088, Note_on_c, 2, 68, 0
3, 12096, Note_on_c, 2, 75, 70
3, 12096, Note_on_c, 2, 72, 70
3, 12096, Note_on_c, 2, 68, 70
3, 12096, Note_on_c, 2, 65, 70
3, 12280, Note_on_c, 2, 65, 0
3, 12280, Note_on_c, 2, 75, 0
3, 12280, Note_on_c, 2, 72, 0
3, 12280, Note_on_c, 2, 68, 0
3, 12288, Note_on_c, 2, 74, 70
3, 12288, Note_on_c, 2, 70, 70
3, 12288, Note_on_c, 2, 65, 70
3, 12472, Note_on_c, 2, 65, 0
3, 12472, Note_on_c, 2, 70, 0
3, 12472, Note_on_c, 2, 74, 0
3, 12480, Note_on_c, 2, 65, 70
3, 12480, Note_on_c, 2, 70, 70
3, 12480, Note_on_c, 2, 74, 70
3, 12664, Note_on_c, 2, 74, 0
3, 12664, Note_on_c, 2, 70, 0
3, 12664, Note_on_c, 2, 65, 0
3, 12672, Note_on_c, 2, 65, 70
3, 12672, Note_on_c, 2, 70, 70
3, 12672, Note_on_c, 2, 74, 70
3, 12856, Note_on_c, 2, 74, 0
3, 12856, Note_on_c, 2, 70, 0
3, 12856, Note_on_c, 2, 65, 0
3, 12864, Note_on_c, 2, 65, 70
3, 12864, Note_on_c, 2, 70, 70
3, 12864, Note_on_c, 2, 74, 70
3, 13048, Note_on_c, 2, 74, 0
3, 13048, Note_on_c, 2, 70, 0
3, 13048, Note_on_c, 2, 65, 0
3, 13056, Note_on_c, 2, 68, 70
3, 13056, Note_on_c, 2, 75, 70
3, 13056, Note_on_c, 2, 72, 70
3, 13056, Note_on_c, 2, 65, 70
3, 13240, Note_on_c, 2, 65, 0
3, 13240, Note_on_c, 2, 68, 0
3, 13240, Note_on_c, 2, 75, 0
3, 13240, Note_on_c, 2, 72, 0
3, 13248, Note_on_c, 2, 72, 70
3, 13248, Note_on_c, 2, 75, 70
3, 13248, Note_on_c, 2, 68, 70
3, 13248, Note_on_c, 2, 65, 70
3, 13432, Note_on_c, 2, 65, 0
3, 13432, Note_on_c, 2, 72, 0
3, 13432, Note_on_c, 2, 75, 0
3, 13432, Note_on_c, 2, 68, 0
3, 13440, Note_on_c, 2, 72, 70
3, 13440, Note_on_c, 2, 75, 70
3, 13440, Note_on_c, 2, 68, 70
3, 13440, Note_on_c, 2, 65, 70
3, 13624, Note_on_c, 2, 65, 0
3, 13624, Note_on_c, 2, 72, 0
3, 13624, Note_on_c, 2, 75, 0
3, 13624, Note_on_c, 2, 68, 0
3, 13632, Note_on_c, 2, 75, 70
3, 13632, Note_on_c, 2, 72, 70
3, 13632, Note_on_c, 2, 68, 70
3, 13632, Note_on_c, 2, 65, 70
3, 13816, Note_on_c, 2, 65, 0
3, 13816, Note_on_c, 2, 75, 0
3, 13816, Note_on_c, 2, 72, 0
3, 13816, Note_on_c, 2, 68, 0
3, 13824, Note_on_c, 2, 70, 70
3, 13824, Note_on_c, 2, 65, 70
3, 13824, Note_on_c, 2, 74, 70
3, 14464, Note_on_c, 2, 74, 0
3, 14464, Note_on_c, 2, 65, 0
3, 14464, Note_on_c, 2, 70, 0
3, 14592, Note_on_c, 2, 60, 80
3, 14592, Note_on_c, 2, 65, 80
3, 14592, Note_on_c, 2, 69, 80
3, 14688, Note_on_c, 2, 69, 0
3, 14688, Note_on_c, 2, 65, 0
3, 14688, Note_on_c, 2, 60, 0
3, 14784, Note_on_c, 2, 60, 80
3, 14784, Note_on_c, 2, 69, 80
3, 14784, Note_on_c, 2, 65, 80
3, 14880, Note_on_c, 2, 65, 0
3, 14880, Note_on_c, 2, 69, 0
3, 14880, Note_on_c, 2, 60, 0
3, 14976, Note_on_c, 2, 60, 80
3, 14976, Note_on_c, 2, 64, 80
3, 14976, Note_on_c, 2, 67, 80
3, 15072, Note_on_c, 2, 67, 0
3, 15072, Note_on_c, 2, 64, 0
3, 15072, Note_on_c, 2, 60, 0
3, 15168, Note_on_c, 2, 60, 80
3, 15168, Note_on_c, 2, 67, 80
3, 15168, Note_on_c, 2, 64, 80
3, 15184, Control_c, 2, 7, 107
3, 15232, Control_c, 2, 7, 108
3, 15264, Note_on_c, 2, 64, 0
3, 15264, Note_on_c, 2, 67, 0
3, 15264, Note_on_c, 2, 60, 0
3, 15304, Control_c, 2, 7, 109
3, 15360, Note_on_c, 2, 60, 80
3, 15360, Note_on_c, 2, 69, 80
3, 15360, Note_on_c, 2, 65, 80
3, 15456, Note_on_c, 2, 65, 0
3, 15456, Note_on_c, 2, 69, 0
3, 15456, Note_on_c, 2, 60, 0
3, 15456, Control_c, 2, 7, 111
3, 15536, Control_c, 2, 7, 112
3, 15552, Note_on_c, 2, 65, 80
3, 15552, Note_on_c, 2, 60, 80
3, 15552, Note_on_c, 2, 69, 80
3, 15584, Control_c, 2, 7, 113
3, 15648, Note_on_c, 2, 69, 0
3, 15648, Note_on_c, 2, 60, 0
3, 15648, Note_on_c, 2, 65, 0
3, 15656, Control_c, 2, 7, 114
3, 15696, Control_c, 2, 7, 116
3, 15744, Note_on_c, 2, 64, 80
3, 15744, Note_on_c, 2, 67, 80
3, 15744, Note_on_c, 2, 60, 80
3, 15800, Control_c, 2, 7, 117
3, 15840, Note_on_c, 2, 60, 0
3, 15840, Note_on_c, 2, 67, 0
3, 15840, Note_on_c, 2, 64, 0
3, 15936, Note_on_c, 2, 67, 80
3, 15936, Note_on_c, 2, 64, 80
3, 15936, Note_on_c, 2, 60, 80
3, 16032, Note_on_c, 2, 60, 0
3, 16032, Note_on_c, 2, 64, 0
3, 16032, Note_on_c, 2, 67, 0
3, 16072, Control_c, 2, 7, 118
3, 16128, Note_on_c, 2, 69, 80
3, 16128, Note_on_c, 2, 65, 80
3, 16128, Note_on_c, 2, 60, 80
3, 16200, Control_c, 2, 7, 119
3, 16224, Note_on_c, 2, 60, 0
3, 16224, Note_on_c, 2, 65, 0
3, 16224, Note_on_c, 2, 69, 0
3, 16320, Note_on_c, 2, 60, 80
3, 16320, Note_on_c, 2, 65, 80
3, 16320, Note_on_c, 2, 69, 80
3, 16336, Control_c, 2, 7, 120
3, 16416, Note_on_c, 2, 69, 0
3, 16416, Note_on_c, 2, 65, 0
3, 16416, Note_on_c, 2, 60, 0
3, 16496, Control_c, 2, 7, 121
3, 16512, Note_on_c, 2, 67, 80
3, 16512, Note_on_c, 2, 64, 80
3, 16512, Note_on_c, 2, 60, 80
3, 16608, Note_on_c, 2, 60, 0
3, 16608, Note_on_c, 2, 64, 0
3, 16608, Note_on_c, 2, 67, 0
3, 16640, Control_c, 2, 7, 122
3, 16688, Control_c, 2, 7, 124
3, 16704, Note_on_c, 2, 67, 80
3, 16704, Note_on_c, 2, 64, 80
3, 16704, Note_on_c, 2, 60, 80
3, 16800, Note_on_c, 2, 60, 0
3, 16800, Note_on_c, 2, 64, 0
3, 16800, Note_on_c, 2, 67, 0
3, 16896, Note_on_c, 2, 60, 80
3, 16896, Note_on_c, 2, 69, 80
3, 16896, Note_on_c, 2, 65, 80
3, 16992, Note_on_c, 2, 65, 0
3, 16992, Note_on_c, 2, 69, 0
3, 16992, Note_on_c, 2, 60, 0
3, 17088, Note_on_c, 2, 69, 80
3, 17088, Note_on_c, 2, 65, 80
3, 17088, Note_on_c, 2, 60, 80
3, 17184, Note_on_c, 2, 60, 0
3, 17184, Note_on_c, 2, 65, 0
3, 17184, Note_on_c, 2, 69, 0
3, 17280, Note_on_c, 2, 69, 80
3, 17280, Note_on_c, 2, 64, 80
3, 17280, Note_on_c, 2, 60, 80
3, 17376, Note_on_c, 2, 60, 0
3, 17376, Note_on_c, 2, 64, 0
3, 17376, Note_on_c, 2, 69, 0
3, 17472, Note_on_c, 2, 60, 80
3, 17472, Note_on_c, 2, 62, 80
3, 17472, Note_on_c, 2, 69, 80
3, 17568, Note_on_c, 2, 69, 0
3, 17568, Note_on_c, 2, 62, 0
3, 17568, Note_on_c, 2, 60, 0
3, 17664, Note_on_c, 2, 64, 80
3, 17664, Note_on_c, 2, 60, 80
3, 17664, Note_on_c, 2, 55, 80
3, 17760, Note_on_c, 2, 55, 0
3, 17760, Note_on_c, 2, 60, 0
3, 17760, Note_on_c, 2, 64, 0
3, 17856, Note_on_c, 2, 60, 80
3, 17856, Note_on_c, 2, 55, 80
3, 17856, Note_on_c, 2, 64, 80
3, 17952, Note_on_c, 2, 64, 0
3, 17952, Note_on_c, 2, 55, 0
3, 17952, Note_on_c, 2, 60, 0
3, 18048, Note_on_c, 2, 59, 80
3, 18048, Note_on_c, 2, 55, 80
3, 18048, Note_on_c, 2, 62, 80
3, 18144, Note_on_c, 2, 62, 0
3, 18144, Note_on_c, 2, 55, 0
3, 18144, Note_on_c, 2, 59, 0
3, 18240, Note_on_c, 2, 62, 80
3, 18240, Note_on_c, 2, 59, 80
3, 18240, Note_on_c, 2, 55, 80
3, 18336, Note_on_c, 2, 55, 0
3, 18336, Note_on_c, 2, 59, 0
3, 18336, Note_on_c, 2, 62, 0
3, 18432, Note_on_c, 2, 64, 80
3, 18432, Note_on_c, 2, 55, 80
3, 18432, Note_on_c, 2, 60, 80
3, 18528, Note_on_c, 2, 60, 0
3, 18528, Note_on_c, 2, 55, 0
3, 18528, Note_on_c, 2, 64, 0
3, 18624, Note_on_c, 2, 64, 80
3, 18624, Note_on_c, 2, 55, 80
3, 18624, Note_on_c, 2, 60, 80
3, 18720, Note_on_c, 2, 60, 0
3, 18720, Note_on_c, 2, 64, 0
3, 18768, Note_on_c, 2, 55, 0
3, 18816, Note_on_c, 2, 55, 80
3, 18816, Note_on_c, 2, 62, 80
3, 18816, Note_on_c, 2, 59, 80
3, 18912, Note_on_c, 2, 59, 0
3, 18912, Note_on_c, 2, 62, 0
3, 18912, Note_on_c, 2, 55, 0
3, 19008, Note_on_c, 2, 62, 80
3, 19008, Note_on_c, 2, 59, 80
3, 19008, Note_on_c, 2, 55, 80
3, 19104, Note_on_c, 2, 55, 0
3, 19104, Note_on_c, 2, 59, 0
3, 19104, Note_on_c, 2, 62, 0
3, 19200, Note_on_c, 2, 55, 80
3, 19200, Note_on_c, 2, 64, 80
3, 19200, Note_on_c, 2, 60, 80
3, 19296, Note_on_c, 2, 60, 0
3, 19296, Note_on_c, 2, 64, 0
3, 19296, Note_on_c, 2, 55, 0
3, 19392, Note_on_c, 2, 64, 80
3, 19392, Note_on_c, 2, 55, 80
3, 19392, Note_on_c, 2, 60, 80
3, 19488, Note_on_c, 2, 60, 0
3, 19488, Note_on_c, 2, 55, 0
3, 19488, Note_on_c, 2, 64, 0
3, 19584, Note_on_c, 2, 62, 80
3, 19584, Note_on_c, 2, 59, 80
3, 19584, Note_on_c, 2, 55, 80
3, 19680, Note_on_c, 2, 55, 0
3, 19680, Note_on_c, 2, 59, 0
3, 19680, Note_on_c, 2, 62, 0
3, 19776, Note_on_c, 2, 62, 80
3, 19776, Note_on_c, 2, 59, 80
3, 19776, Note_on_c, 2, 55, 80
3, 19872, Note_on_c, 2, 55, 0
3, 19872, Note_on_c, 2, 59, 0
3, 19872, Note_on_c, 2, 62, 0
3, 19968, Note_on_c, 2, 64, 80
3, 19968, Note_on_c, 2, 55, 80
3, 19968, Note_on_c, 2, 60, 80
3, 20064, Note_on_c, 2, 60, 0
3, 20064, Note_on_c, 2, 55, 0
3, 20064, Note_on_c, 2, 64, 0
3, 20160, Note_on_c, 2, 64, 80
3, 20160, Note_on_c, 2, 60, 80
3, 20160, Note_on_c, 2, 55, 80
3, 20256, Note_on_c, 2, 55, 0
3, 20256, Note_on_c, 2, 60, 0
3, 20256, Note_on_c, 2, 64, 0
3, 20352, Note_on_c, 2, 64, 80
3, 20352, Note_on_c, 2, 60, 80
3, 20352, Note_on_c, 2, 55, 80
3, 20448, Note_on_c, 2, 55, 0
3, 20448, Note_on_c, 2, 60, 0
3, 20448, Note_on_c, 2, 64, 0
3, 20544, Note_on_c, 2, 64, 80
3, 20544, Note_on_c, 2, 60, 80
3, 20544, Note_on_c, 2, 55, 80
3, 20640, Note_on_c, 2, 55, 0
3, 20640, Note_on_c, 2, 60, 0
3, 20640, Note_on_c, 2, 64, 0
3, 20736, Note_on_c, 2, 72, 70
3, 20736, Note_on_c, 2, 69, 70
3, 20736, Note_on_c, 2, 65, 70
3, 20920, Note_on_c, 2, 65, 0
3, 20920, Note_on_c, 2, 69, 0
3, 20920, Note_on_c, 2, 72, 0
3, 20928, Note_on_c, 2, 69, 70
3, 20928, Note_on_c, 2, 65, 70
3, 20928, Note_on_c, 2, 72, 70
3, 21112, Note_on_c, 2, 72, 0
3, 21112, Note_on_c, 2, 65, 0
3, 21112, Note_on_c, 2, 69, 0
3, 21120, Note_on_c, 2, 72, 70
3, 21120, Note_on_c, 2, 67, 70
3, 21120, Note_on_c, 2, 64, 70
3, 21304, Note_on_c, 2, 64, 0
3, 21304, Note_on_c, 2, 67, 0
3, 21304, Note_on_c, 2, 72, 0
3, 21312, Note_on_c, 2, 72, 70
3, 21312, Note_on_c, 2, 67, 70
3, 21312, Note_on_c, 2, 64, 70
3, 21496, Note_on_c, 2, 64, 0
3, 21496, Note_on_c, 2, 67, 0
3, 21496, Note_on_c, 2, 72, 0
3, 21504, Note_on_c, 2, 68, 70
3, 21504, Note_on_c, 2, 75, 70
3, 21504, Note_on_c, 2, 72, 70
3, 21504, Note_on_c, 2, 65, 70
3, 21688, Note_on_c, 2, 65, 0
3, 21688, Note_on_c, 2, 68, 0
3, 21688, Note_on_c, 2, 75, 0
3, 21688, Note_on_c, 2, 72, 0
3, 21696, Note_on_c, 2, 75, 70
3, 21696, Note_on_c, 2, 72, 70
3, 21696, Note_on_c, 2, 68, 70
3, 21696, Note_on_c, 2, 65, 70
3, 21880, Note_on_c, 2, 65, 0
3, 21880, Note_on_c, 2, 75, 0
3, 21880, Note_on_c, 2, 72, 0
3, 21880, Note_on_c, 2, 68, 0
3, 21888, Note_on_c, 2, 72, 70
3, 21888, Note_on_c, 2, 68, 70
3, 21888, Note_on_c, 2, 74, 70
3, 21888, Note_on_c, 2, 65, 70
3, 22072, Note_on_c, 2, 65, 0
3, 22072, Note_on_c, 2, 72, 0
3, 22072, Note_on_c, 2, 68, 0
3, 22072, Note_on_c, 2, 74, 0
3, 22080, Note_on_c, 2, 72, 70
3, 22080, Note_on_c, 2, 74, 70
3, 22080, Note_on_c, 2, 68, 70
3, 22080, Note_on_c, 2, 65, 70
3, 22264, Note_on_c, 2, 65, 0
3, 22264, Note_on_c, 2, 72, 0
3, 22264, Note_on_c, 2, 74, 0
3, 22264, Note_on_c, 2, 68, 0
3, 22272, Note_on_c, 2, 68, 70
3, 22272, Note_on_c, 2, 75, 70
3, 22272, Note_on_c, 2, 72, 70
3, 22272, Note_on_c, 2, 65, 70
3, 22456, Note_on_c, 2, 65, 0
3, 22456, Note_on_c, 2, 68, 0
3, 22456, Note_on_c, 2, 75, 0
3, 22456, Note_on_c, 2, 72, 0
3, 22464, Note_on_c, 2, 68, 70
3, 22464, Note_on_c, 2, 75, 70
3, 22464, Note_on_c, 2, 72, 70
3, 22464, Note_on_c, 2, 65, 70
3, 22648, Note_on_c, 2, 65, 0
3, 22648, Note_on_c, 2, 68, 0
3, 22648, Note_on_c, 2, 75, 0
3, 22648, Note_on_c, 2, 72, 0
3, 22656, Note_on_c, 2, 75, 70
3, 22656, Note_on_c, 2, 72, 70
3, 22656, Note_on_c, 2, 68, 70
3, 22656, Note_on_c, 2, 65, 70
3, 22840, Note_on_c, 2, 65, 0
3, 22840, Note_on_c, 2, 75, 0
3, 22840, Note_on_c, 2, 72, 0
3, 22840, Note_on_c, 2, 68, 0
3, 22848, Note_on_c, 2, 75, 70
3, 22848, Note_on_c, 2, 72, 70
3, 22848, Note_on_c, 2, 68, 70
3, 22848, Note_on_c, 2, 65, 70
3, 23032, Note_on_c, 2, 65, 0
3, 23032, Note_on_c, 2, 75, 0
3, 23032, Note_on_c, 2, 72, 0
3, 23032, Note_on_c, 2, 68, 0
3, 23040, Note_on_c, 2, 65, 70
3, 23040, Note_on_c, 2, 70, 70
3, 23040, Note_on_c, 2, 74, 70
3, 23224, Note_on_c, 2, 74, 0
3, 23224, Note_on_c, 2, 70, 0
3, 23224, Note_on_c, 2, 65, 0
3, 23232, Note_on_c, 2, 70, 70
3, 23232, Note_on_c, 2, 65, 70
3, 23232, Note_on_c, 2, 74, 70
3, 23416, Note_on_c, 2, 74, 0
3, 23416, Note_on_c, 2, 65, 0
3, 23416, Note_on_c, 2, 70, 0
3, 23424, Note_on_c, 2, 70, 70
3, 23424, Note_on_c, 2, 65, 70
3, 23424, Note_on_c, 2, 74, 70
3, 23608, Note_on_c, 2, 74, 0
3, 23608, Note_on_c, 2, 65, 0
3, 23608, Note_on_c, 2, 70, 0
3, 23616, Note_on_c, 2, 65, 70
3, 23616, Note_on_c, 2, 70, 70
3, 23616, Note_on_c, 2, 74, 70
3, 23800, Note_on_c, 2, 74, 0
3, 23800, Note_on_c, 2, 70, 0
3, 23800, Note_on_c, 2, 65, 0
3, 23808, Note_on_c, 2, 75, 70
3, 23808, Note_on_c, 2, 72, 70
3, 23808, Note_on_c, 2, 68, 70
3, 23808, Note_on_c, 2, 65, 70
3, 23992, Note_on_c, 2, 65, 0
3, 23992, Note_on_c, 2, 75, 0
3, 23992, Note_on_c, 2, 72, 0
3, 23992, Note_on_c, 2, 68, 0
3, 24000, Note_on_c, 2, 75, 70
3, 24000, Note_on_c, 2, 68, 70
3, 24000, Note_on_c, 2, 72, 70
3, 24000, Note_on_c, 2, 65, 70
3, 24184, Note_on_c, 2, 65, 0
3, 24184, Note_on_c, 2, 75, 0
3, 24184, Note_on_c, 2, 68, 0
3, 24184, Note_on_c, 2, 72, 0
3, 24192, Note_on_c, 2, 75, 70
3, 24192, Note_on_c, 2, 72, 70
3, 24192, Note_on_c, 2, 68, 70
3, 24192, Note_on_c, 2, 65, 70
3, 24376, Note_on_c, 2, 65, 0
3, 24376, Note_on_c, 2, 75, 0
3, 24376, Note_on_c, 2, 72, 0
3, 24376, Note_on_c, 2, 68, 0
3, 24384, Note_on_c, 2, 75, 70
3, 24384, Note_on_c, 2, 72, 70
3, 24384, Note_on_c, 2, 68, 70
3, 24384, Note_on_c, 2, 65, 70
3, 24568, Note_on_c, 2, 65, 0
3, 24568, Note_on_c, 2, 75, 0
3, 24568, Note_on_c, 2, 72, 0
3, 24568, Note_on_c, 2, 68, 0
3, 24576, Note_on_c, 2, 74, 70
3, 24576, Note_on_c, 2, 70, 70
3, 24576, Note_on_c, 2, 65, 70
3, 24760, Note_on_c, 2, 65, 0
3, 24760, Note_on_c, 2, 70, 0
3, 24760, Note_on_c, 2, 74, 0
3, 24768, Note_on_c, 2, 65, 70
3, 24768, Note_on_c, 2, 70, 70
3, 24768, Note_on_c, 2, 74, 70
3, 24952, Note_on_c, 2, 74, 0
3, 24952, Note_on_c, 2, 70, 0
3, 24952, Note_on_c, 2, 65, 0
3, 24960, Note_on_c, 2, 65, 70
3, 24960, Note_on_c, 2, 70, 70
3, 24960, Note_on_c, 2, 74, 70
3, 25144, Note_on_c, 2, 74, 0
3, 25144, Note_on_c, 2, 70, 0
3, 25144, Note_on_c, 2, 65, 0
3, 25152, Note_on_c, 2, 65, 70
3, 25152, Note_on_c, 2, 70, 70
3, 25152, Note_on_c, 2, 74, 70
3, 25336, Note_on_c, 2, 74, 0
3, 25336, Note_on_c, 2, 70, 0
3, 25336, Note_on_c, 2, 65, 0
3, 25344, Note_on_c, 2, 68, 70
3, 25344, Note_on_c, 2, 75, 70
3, 25344, Note_on_c, 2, 72, 70
3, 25344, Note_on_c, 2, 65, 70
3, 25528, Note_on_c, 2, 65, 0
3, 25528, Note_on_c, 2, 68, 0
3, 25528, Note_on_c, 2, 75, 0
3, 25528, Note_on_c, 2, 72, 0
3, 25536, Note_on_c, 2, 72, 70
3, 25536, Note_on_c, 2, 75, 70
3, 25536, Note_on_c, 2, 68, 70
3, 25536, Note_on_c, 2, 65, 70
3, 25720, Note_on_c, 2, 65, 0
3, 25720, Note_on_c, 2, 72, 0
3, 25720, Note_on_c, 2, 75, 0
3, 25720, Note_on_c, 2, 68, 0
3, 25728, Note_on_c, 2, 72, 70
3, 25728, Note_on_c, 2, 75, 70
3, 25728, Note_on_c, 2, 68, 70
3, 25728, Note_on_c, 2, 65, 70
3, 25912, Note_on_c, 2, 65, 0
3, 25912, Note_on_c, 2, 72, 0
3, 25912, Note_on_c, 2, 75, 0
3, 25912, Note_on_c, 2, 68, 0
3, 25920, Note_on_c, 2, 75, 70
3, 25920, Note_on_c, 2, 72, 70
3, 25920, Note_on_c, 2, 68, 70
3, 25920, Note_on_c, 2, 65, 70
3, 26104, Note_on_c, 2, 65, 0
3, 26104, Note_on_c, 2, 75, 0
3, 26104, Note_on_c, 2, 72, 0
3, 26104, Note_on_c, 2, 68, 0
3, 26112, Note_on_c, 2, 70, 70
3, 26112, Note_on_c, 2, 65, 70
3, 26112, Note_on_c, 2, 74, 70
3, 26296, Note_on_c, 2, 74, 0
3, 26296, Note_on_c, 2, 65, 0
3, 26296, Note_on_c, 2, 70, 0
3, 26304, Note_on_c, 2, 65, 70
3, 26304, Note_on_c, 2, 70, 70
3, 26304, Note_on_c, 2, 74, 70
3, 26488, Note_on_c, 2, 74, 0
3, 26488, Note_on_c, 2, 70, 0
3, 26488, Note_on_c, 2, 65, 0
3, 26496, Note_on_c, 2, 70, 70
3, 26496, Note_on_c, 2, 65, 70
3, 26496, Note_on_c, 2, 74, 70
3, 26680, Note_on_c, 2, 74, 0
3, 26680, Note_on_c, 2, 65, 0
3, 26680, Note_on_c, 2, 70, 0
3, 26688, Note_on_c, 2, 70, 70
3, 26688, Note_on_c, 2, 65, 70
3, 26688, Note_on_c, 2, 74, 70
3, 26872, Note_on_c, 2, 74, 0
3, 26872, Note_on_c, 2, 65, 0
3, 26872, Note_on_c, 2, 70, 0
3, 26880, Note_on_c, 2, 72, 70
3, 26880, Note_on_c, 2, 69, 70
3, 26880, Note_on_c, 2, 65, 70
3, 27064, Note_on_c, 2, 65, 0
3, 27064, Note_on_c, 2, 69, 0
3, 27064, Note_on_c, 2, 72, 0
3, 27072, Note_on_c, 2, 69, 70
3, 27072, Note_on_c, 2, 65, 70
3, 27072, Note_on_c, 2, 72, 70
3, 27112, Control_c, 2, 7, 122
3, 27136, Control_c, 2, 7, 124
3, 27144, Control_c, 2, 7, 127
3, 27256, Note_on_c, 2, 72, 0
3, 27256, Note_on_c, 2, 65, 0
3, 27256, Note_on_c, 2, 69, 0
3, 27264, Note_on_c, 2, 72, 70
3, 27264, Note_on_c, 2, 67, 70
3, 27264, Note_on_c, 2, 64, 70
3, 27448, Note_on_c, 2, 64, 0
3, 27448, Note_on_c, 2, 67, 0
3, 27448, Note_on_c, 2, 72, 0
3, 27456, Note_on_c, 2, 72, 70
3, 27456, Note_on_c, 2, 67, 70
3, 27456, Note_on_c, 2, 64, 70
3, 27640, Note_on_c, 2, 64, 0
3, 27640, Note_on_c, 2, 67, 0
3, 27640, Note_on_c, 2, 72, 0
3, 27648, Note_on_c, 2, 68, 70
3, 27648, Note_on_c, 2, 75, 70
3, 27648, Note_on_c, 2, 72, 70
3, 27648, Note_on_c, 2, 65, 70
3, 27832, Note_on_c, 2, 65, 0
3, 27832, Note_on_c, 2, 68, 0
3, 27832, Note_on_c, 2, 75, 0
3, 27832, Note_on_c, 2, 72, 0
3, 27840, Note_on_c, 2, 75, 70
3, 27840, Note_on_c, 2, 72, 70
3, 27840, Note_on_c, 2, 68, 70
3, 27840, Note_on_c, 2, 65, 70
3, 28024, Note_on_c, 2, 65, 0
3, 28024, Note_on_c, 2, 75, 0
3, 28024, Note_on_c, 2, 72, 0
3, 28024, Note_on_c, 2, 68, 0
3, 28032, Note_on_c, 2, 72, 70
3, 28032, Note_on_c, 2, 68, 70
3, 28032, Note_on_c, 2, 74, 70
3, 28032, Note_on_c, 2, 65, 70
3, 28216, Note_on_c, 2, 65, 0
3, 28216, Note_on_c, 2, 72, 0
3, 28216, Note_on_c, 2, 68, 0
3, 28216, Note_on_c, 2, 74, 0
3, 28224, Note_on_c, 2, 72, 70
3, 28224, Note_on_c, 2, 74, 70
3, 28224, Note_on_c, 2, 68, 70
3, 28224, Note_on_c, 2, 65, 70
3, 28408, Note_on_c, 2, 65, 0
3, 28408, Note_on_c, 2, 72, 0
3, 28408, Note_on_c, 2, 74, 0
3, 28408, Note_on_c, 2, 68, 0
3, 28416, Note_on_c, 2, 68, 70
3, 28416, Note_on_c, 2, 75, 70
3, 28416, Note_on_c, 2, 72, 70
3, 28416, Note_on_c, 2, 65, 70
3, 28600, Note_on_c, 2, 65, 0
3, 28600, Note_on_c, 2, 68, 0
3, 28600, Note_on_c, 2, 75, 0
3, 28600, Note_on_c, 2, 72, 0
3, 28608, Note_on_c, 2, 68, 70
3, 28608, Note_on_c, 2, 75, 70
3, 28608, Note_on_c, 2, 72, 70
3, 28608, Note_on_c, 2, 65, 70
3, 28792, Note_on_c, 2, 65, 0
3, 28792, Note_on_c, 2, 68, 0
3, 28792, Note_on_c, 2, 75, 0
3, 28792, Note_on_c, 2, 72, 0
3, 28800, Note_on_c, 2, 75, 70
3, 28800, Note_on_c, 2, 72, 70
3, 28800, Note_on_c, 2, 68, 70
3, 28800, Note_on_c, 2, 65, 70
3, 28984, Note_on_c, 2, 65, 0
3, 28984, Note_on_c, 2, 75, 0
3, 28984, Note_on_c, 2, 72, 0
3, 28984, Note_on_c, 2, 68, 0
3, 28992, Note_on_c, 2, 75, 70
3, 28992, Note_on_c, 2, 72, 70
3, 28992, Note_on_c, 2, 68, 70
3, 28992, Note_on_c, 2, 65, 70
3, 29176, Note_on_c, 2, 65, 0
3, 29176, Note_on_c, 2, 75, 0
3, 29176, Note_on_c, 2, 72, 0
3, 29176, Note_on_c, 2, 68, 0
3, 29184, Note_on_c, 2, 65, 70
3, 29184, Note_on_c, 2, 70, 70
3, 29184, Note_on_c, 2, 74, 70
3, 29368, Note_on_c, 2, 74, 0
3, 29368, Note_on_c, 2, 70, 0
3, 29368, Note_on_c, 2, 65, 0
3, 29376, Note_on_c, 2, 70, 70
3, 29376, Note_on_c, 2, 65, 70
3, 29376, Note_on_c, 2, 74, 70
3, 29560, Note_on_c, 2, 74, 0
3, 29560, Note_on_c, 2, 65, 0
3, 29560, Note_on_c, 2, 70, 0
3, 29568, Note_on_c, 2, 70, 70
3, 29568, Note_on_c, 2, 65, 70
3, 29568, Note_on_c, 2, 74, 70
3, 29752, Note_on_c, 2, 74, 0
3, 29752, Note_on_c, 2, 65, 0
3, 29752, Note_on_c, 2, 70, 0
3, 29760, Note_on_c, 2, 65, 70
3, 29760, Note_on_c, 2, 70, 70
3, 29760, Note_on_c, 2, 74, 70
3, 29944, Note_on_c, 2, 74, 0
3, 29944, Note_on_c, 2, 70, 0
3, 29944, Note_on_c, 2, 65, 0
3, 29952, Note_on_c, 2, 75, 70
3, 29952, Note_on_c, 2, 72, 70
3, 29952, Note_on_c, 2, 68, 70
3, 29952, Note_on_c, 2, 65, 70
3, 30136, Note_on_c, 2, 65, 0
3, 30136, Note_on_c, 2, 75, 0
3, 30136, Note_on_c, 2, 72, 0
3, 30136, Note_on_c, 2, 68, 0
3, 30144, Note_on_c, 2, 75, 70
3, 30144, Note_on_c, 2, 68, 70
3, 30144, Note_on_c, 2, 72, 70
3, 30144, Note_on_c, 2, 65, 70
3, 30328, Note_on_c, 2, 65, 0
3, 30328, Note_on_c, 2, 75, 0
3, 30328, Note_on_c, 2, 68, 0
3, 30328, Note_on_c, 2, 72, 0
3, 30336, Note_on_c, 2, 75, 70
3, 30336, Note_on_c, 2, 72, 70
3, 30336, Note_on_c, 2, 68, 70
3, 30336, Note_on_c, 2, 65, 70
3, 30520, Note_on_c, 2, 65, 0
3, 30520, Note_on_c, 2, 75, 0
3, 30520, Note_on_c, 2, 72, 0
3, 30520, Note_on_c, 2, 68, 0
3, 30528, Note_on_c, 2, 75, 70
3, 30528, Note_on_c, 2, 72, 70
3, 30528, Note_on_c, 2, 68, 70
3, 30528, Note_on_c, 2, 65, 70
3, 30712, Note_on_c, 2, 65, 0
3, 30712, Note_on_c, 2, 75, 0
3, 30712, Note_on_c, 2, 72, 0
3, 30712, Note_on_c, 2, 68, 0
3, 30720, Note_on_c, 2, 74, 70
3, 30720, Note_on_c, 2, 70, 70
3, 30720, Note_on_c, 2, 65, 70
3, 30904, Note_on_c, 2, 65, 0
3, 30904, Note_on_c, 2, 70, 0
3, 30904, Note_on_c, 2, 74, 0
3, 30912, Note_on_c, 2, 65, 70
3, 30912, Note_on_c, 2, 70, 70
3, 30912, Note_on_c, 2, 74, 70
3, 31096, Note_on_c, 2, 74, 0
3, 31096, Note_on_c, 2, 70, 0
3, 31096, Note_on_c, 2, 65, 0
3, 31104, Note_on_c, 2, 65, 70
3, 31104, Note_on_c, 2, 70, 70
3, 31104, Note_on_c, 2, 74, 70
3, 31288, Note_on_c, 2, 74, 0
3, 31288, Note_on_c, 2, 70, 0
3, 31288, Note_on_c, 2, 65, 0
3, 31296, Note_on_c, 2, 65, 70
3, 31296, Note_on_c, 2, 70, 70
3, 31296, Note_on_c, 2, 74, 70
3, 31480, Note_on_c, 2, 74, 0
3, 31480, Note_on_c, 2, 70, 0
3, 31480, Note_on_c, 2, 65, 0
3, 31488, Note_on_c, 2, 68, 70
3, 31488, Note_on_c, 2, 75, 70
3, 31488, Note_on_c, 2, 72, 70
3, 31488, Note_on_c, 2, 65, 70
3, 31672, Note_on_c, 2, 65, 0
3, 31672, Note_on_c, 2, 68, 0
3, 31672, Note_on_c, 2, 75, 0
3, 31672, Note_on_c, 2, 72, 0
3, 31680, Note_on_c, 2, 72, 70
3, 31680, Note_on_c, 2, 75, 70
3, 31680, Note_on_c, 2, 68, 70
3, 31680, Note_on_c, 2, 65, 70
3, 31864, Note_on_c, 2, 65, 0
3, 31864, Note_on_c, 2, 72, 0
3, 31864, Note_on_c, 2, 75, 0
3, 31864, Note_on_c, 2, 68, 0
3, 31872, Note_on_c, 2, 72, 70
3, 31872, Note_on_c, 2, 75, 70
3, 31872, Note_on_c, 2, 68, 70
3, 31872, Note_on_c, 2, 65, 70
3, 32056, Note_on_c, 2, 65, 0
3, 32056, Note_on_c, 2, 72, 0
3, 32056, Note_on_c, 2, 75, 0
3, 32056, Note_on_c, 2, 68, 0
3, 32064, Note_on_c, 2, 75, 70
3, 32064, Note_on_c, 2, 72, 70
3, 32064, Note_on_c, 2, 68, 70
3, 32064, Note_on_c, 2, 65, 70
3, 32248, Note_on_c, 2, 65, 0
3, 32248, Note_on_c, 2, 75, 0
3, 32248, Note_on_c, 2, 72, 0
3, 32248, Note_on_c, 2, 68, 0
3, 32256, Note_on_c, 2, 70, 70
3, 32256, Note_on_c, 2, 65, 70
3, 32256, Note_on_c, 2, 74, 70
3, 32440, Note_on_c, 2, 74, 0
3, 32440, Note_on_c, 2, 65, 0
3, 32440, Note_on_c, 2, 70, 0
3, 32448, Note_on_c, 2, 65, 70
3, 32448, Note_on_c, 2, 70, 70
3, 32448, Note_on_c, 2, 74, 70
3, 32632, Note_on_c, 2, 74, 0
3, 32632, Note_on_c, 2, 70, 0
3, 32632, Note_on_c, 2, 65, 0
3, 32792, Control_c, 2, 7, 125
3, 32808, Control_c, 2, 7, 124
3, 32816, Control_c, 2, 7, 120
3, 32824, Control_c, 2, 7, 119
3, 32832, Control_c, 2, 7, 117
3, 32840, Control_c, 2, 7, 116
3, 32848, Control_c, 2, 7, 115
3, 32856, Control_c, 2, 7, 114
3, 32864, Control_c, 2, 7, 112
3, 33024, Note_on_c, 2, 60, 80
3, 33024, Note_on_c, 2, 65, 80
3, 33024, Note_on_c, 2, 69, 80
3, 33120, Note_on_c, 2, 69, 0
3, 33120, Note_on_c, 2, 65, 0
3, 33120, Note_on_c, 2, 60, 0
3, 33216, Note_on_c, 2, 60, 80
3, 33216, Note_on_c, 2, 69, 80
3, 33216, Note_on_c, 2, 65, 80
3, 33312, Note_on_c, 2, 65, 0
3, 33312, Note_on_c, 2, 69, 0
3, 33312, Note_on_c, 2, 60, 0
3, 33408, Note_on_c, 2, 60, 80
3, 33408, Note_on_c, 2, 64, 80
3, 33408, Note_on_c, 2, 67, 80
3, 33504, Note_on_c, 2, 67, 0
3, 33504, Note_on_c, 2, 64, 0
3, 33504, Note_on_c, 2, 60, 0
3, 33600, Note_on_c, 2, 60, 80
3, 33600, Note_on_c, 2, 67, 80
3, 33600, Note_on_c, 2, 64, 80
3, 33696, Note_on_c, 2, 64, 0
3, 33696, Note_on_c, 2, 67, 0
3, 33696, Note_on_c, 2, 60, 0
3, 33792, Note_on_c, 2, 60, 80
3, 33792, Note_on_c, 2, 69, 80
3, 33792, Note_on_c, 2, 65, 80
3, 33888, Note_on_c, 2, 65, 0
3, 33888, Note_on_c, 2, 69, 0
3, 33888, Note_on_c, 2, 60, 0
3, 33984, Note_on_c, 2, 65, 80
3, 33984, Note_on_c, 2, 60, 80
3, 33984, Note_on_c, 2, 69, 80
3, 34080, Note_on_c, 2, 69, 0
3, 34080, Note_on_c, 2, 60, 0
3, 34080, Note_on_c, 2, 65, 0
3, 34176, Note_on_c, 2, 64, 80
3, 34176, Note_on_c, 2, 67, 80
3, 34176, Note_on_c, 2, 60, 80
3, 34272, Note_on_c, 2, 60, 0
3, 34272, Note_on_c, 2, 67, 0
3, 34272, Note_on_c, 2, 64, 0
3, 34368, Note_on_c, 2, 64, 80
3, 34368, Note_on_c, 2, 60, 80
3, 34368, Note_on_c, 2, 67, 80
3, 34464, Note_on_c, 2, 67, 0
3, 34464, Note_on_c, 2, 60, 0
3, 34464, Note_on_c, 2, 64, 0
3, 34560, Note_on_c, 2, 69, 80
3, 34560, Note_on_c, 2, 65, 80
3, 34560, Note_on_c, 2, 60, 80
3, 34656, Note_on_c, 2, 60, 0
3, 34656, Note_on_c, 2, 65, 0
3, 34656, Note_on_c, 2, 69, 0
3, 34752, Note_on_c, 2, 60, 80
3, 34752, Note_on_c, 2, 65, 80
3, 34752, Note_on_c, 2, 69, 80
3, 34848, Note_on_c, 2, 69, 0
3, 34848, Note_on_c, 2, 65, 0
3, 34848, Note_on_c, 2, 60, 0
3, 34944, Note_on_c, 2, 67, 80
3, 34944, Note_on_c, 2, 64, 80
3, 34944, Note_on_c, 2, 60, 80
3, 35040, Note_on_c, 2, 60, 0
3, 35040, Note_on_c, 2, 64, 0
3, 35040, Note_on_c, 2, 67, 0
3, 35136, Note_on_c, 2, 67, 80
3, 35136, Note_on_c, 2, 64, 80
3, 35136, Note_on_c, 2, 60, 80
3, 35232, Note_on_c, 2, 60, 0
3, 35232, Note_on_c, 2, 64, 0
3, 35232, Note_on_c, 2, 67, 0
3, 35328, Note_on_c, 2, 60, 80
3, 35328, Note_on_c, 2, 69, 80
3, 35328, Note_on_c, 2, 65, 80
3, 35424, Note_on_c, 2, 65, 0
3, 35424, Note_on_c, 2, 69, 0
3, 35424, Note_on_c, 2, 60, 0
3, 35520, Note_on_c, 2, 69, 80
3, 35520, Note_on_c, 2, 65, 80
3, 35520, Note_on_c, 2, 60, 80
3, 35616, Note_on_c, 2, 60, 0
3, 35616, Note_on_c, 2, 65, 0
3, 35616, Note_on_c, 2, 69, 0
3, 35712, Note_on_c, 2, 69, 80
3, 35712, Note_on_c, 2, 64, 80
3, 35712, Note_on_c, 2, 60, 80
3, 35808, Note_on_c, 2, 60, 0
3, 35808, Note_on_c, 2, 64, 0
3, 35808, Note_on_c, 2, 69, 0
3, 35904, Note_on_c, 2, 60, 80
3, 35904, Note_on_c, 2, 62, 80
3, 35904, Note_on_c, 2, 69, 80
3, 36000, Note_on_c, 2, 69, 0
3, 36000, Note_on_c, 2, 62, 0
3, 36000, Note_on_c, 2, 60, 0
3, 36096, Note_on_c, 2, 64, 80
3, 36096, Note_on_c, 2, 60, 80
3, 36096, Note_on_c, 2, 55, 80
3, 36192, Note_on_c, 2, 55, 0
3, 36192, Note_on_c, 2, 60, 0
3, 36192, Note_on_c, 2, 64, 0
3, 36288, Note_on_c, 2, 60, 80
3, 36288, Note_on_c, 2, 55, 80
3, 36288, Note_on_c, 2, 64, 80
3, 36384, Note_on_c, 2, 64, 0
3, 36384, Note_on_c, 2, 55, 0
3, 36384, Note_on_c, 2, 60, 0
3, 36480, Note_on_c, 2, 59, 80
3, 36480, Note_on_c, 2, 55, 80
3, 36480, Note_on_c, 2, 62, 80
3, 36576, Note_on_c, 2, 62, 0
3, 36576, Note_on_c, 2, 55, 0
3, 36576, Note_on_c, 2, 59, 0
3, 36672, Note_on_c, 2, 62, 80
3, 36672, Note_on_c, 2, 59, 80
3, 36672, Note_on_c, 2, 55, 80
3, 36768, Note_on_c, 2, 55, 0
3, 36768, Note_on_c, 2, 59, 0
3, 36768, Note_on_c, 2, 62, 0
3, 36864, Note_on_c, 2, 64, 80
3, 36864, Note_on_c, 2, 55, 80
3, 36864, Note_on_c, 2, 60, 80
3, 36960, Note_on_c, 2, 60, 0
3, 36960, Note_on_c, 2, 55, 0
3, 36960, Note_on_c, 2, 64, 0
3, 37056, Note_on_c, 2, 64, 80
3, 37056, Note_on_c, 2, 55, 80
3, 37056, Note_on_c, 2, 60, 80
3, 37152, Note_on_c, 2, 60, 0
3, 37152, Note_on_c, 2, 64, 0
3, 37200, Note_on_c, 2, 55, 0
3, 37248, Note_on_c, 2, 55, 80
3, 37248, Note_on_c, 2, 62, 80
3, 37248, Note_on_c, 2, 59, 80
3, 37344, Note_on_c, 2, 59, 0
3, 37344, Note_on_c, 2, 62, 0
3, 37344, Note_on_c, 2, 55, 0
3, 37440, Note_on_c, 2, 62, 80
3, 37440, Note_on_c, 2, 59, 80
3, 37440, Note_on_c, 2, 55, 80
3, 37536, Note_on_c, 2, 55, 0
3, 37536, Note_on_c, 2, 59, 0
3, 37536, Note_on_c, 2, 62, 0
3, 37632, Note_on_c, 2, 55, 80
3, 37632, Note_on_c, 2, 64, 80
3, 37632, Note_on_c, 2, 60, 80
3, 37728, Note_on_c, 2, 60, 0
3, 37728, Note_on_c, 2, 64, 0
3, 37728, Note_on_c, 2, 55, 0
3, 37824, Note_on_c, 2, 64, 80
3, 37824, Note_on_c, 2, 55, 80
3, 37824, Note_on_c, 2, 60, 80
3, 37920, Note_on_c, 2, 60, 0
3, 37920, Note_on_c, 2, 55, 0
3, 37920, Note_on_c, 2, 64, 0
3, 38016, Note_on_c, 2, 62, 80
3, 38016, Note_on_c, 2, 59, 80
3, 38016, Note_on_c, 2, 55, 80
3, 38112, Note_on_c, 2, 55, 0
3, 38112, Note_on_c, 2, 59, 0
3, 38112, Note_on_c, 2, 62, 0
3, 38208, Note_on_c, 2, 62, 80
3, 38208, Note_on_c, 2, 59, 80
3, 38208, Note_on_c, 2, 55, 80
3, 38304, Note_on_c, 2, 55, 0
3, 38304, Note_on_c, 2, 59, 0
3, 38304, Note_on_c, 2, 62, 0
3, 38400, Note_on_c, 2, 64, 80
3, 38400, Note_on_c, 2, 55, 80
3, 38400, Note_on_c, 2, 60, 80
3, 38496, Note_on_c, 2, 60, 0
3, 38496, Note_on_c, 2, 55, 0
3, 38496, Note_on_c, 2, 64, 0
3, 38592, Note_on_c, 2, 64, 80
3, 38592, Note_on_c, 2, 60, 80
3, 38592, Note_on_c, 2, 55, 80
3, 38688, Note_on_c, 2, 55, 0
3, 38688, Note_on_c, 2, 60, 0
3, 38688, Note_on_c, 2, 64, 0
3, 38784, Note_on_c, 2, 64, 80
3, 38784, Note_on_c, 2, 60, 80
3, 38784, Note_on_c, 2, 55, 80
3, 38880, Note_on_c, 2, 55, 0
3, 38880, Note_on_c, 2, 60, 0
3, 38880, Note_on_c, 2, 64, 0
3, 38976, Note_on_c, 2, 64, 80
3, 38976, Note_on_c, 2, 60, 80
3, 38976, Note_on_c, 2, 55, 80
3, 39072, Note_on_c, 2, 55, 0
3, 39072, Note_on_c, 2, 60, 0
3, 39072, Note_on_c, 2, 64, 0
3, 39168, Note_on_c, 2, 72, 70
3, 39168, Note_on_c, 2, 69, 70
3, 39168, Note_on_c, 2, 65, 70
3, 39352, Note_on_c, 2, 65, 0
3, 39352, Note_on_c, 2, 69, 0
3, 39352, Note_on_c, 2, 72, 0
3, 39360, Note_on_c, 2, 69, 70
3, 39360, Note_on_c, 2, 65, 70
3, 39360, Note_on_c, 2, 72, 70
3, 39544, Note_on_c, 2, 72, 0
3, 39544, Note_on_c, 2, 65, 0
3, 39544, Note_on_c, 2, 69, 0
3, 39552, Note_on_c, 2, 72, 70
3, 39552, Note_on_c, 2, 67, 70
3, 39552, Note_on_c, 2, 64, 70
3, 39736, Note_on_c, 2, 64, 0
3, 39736, Note_on_c, 2, 67, 0
3, 39736, Note_on_c, 2, 72, 0
3, 39744, Note_on_c, 2, 72, 70
3, 39744, Note_on_c, 2, 67, 70
3, 39744, Note_on_c, 2, 64, 70
3, 39928, Note_on_c, 2, 64, 0
3, 39928, Note_on_c, 2, 67, 0
3, 39928, Note_on_c, 2, 72, 0
3, 39936, Note_on_c, 2, 68, 70
3, 39936, Note_on_c, 2, 75, 70
3, 39936, Note_on_c, 2, 72, 70
3, 39936, Note_on_c, 2, 65, 70
3, 40120, Note_on_c, 2, 65, 0
3, 40120, Note_on_c, 2, 68, 0
3, 40120, Note_on_c, 2, 75, 0
3, 40120, Note_on_c, 2, 72, 0
3, 40128, Note_on_c, 2, 75, 70
3, 40128, Note_on_c, 2, 72, 70
3, 40128, Note_on_c, 2, 68, 70
3, 40128, Note_on_c, 2, 65, 70
3, 40312, Note_on_c, 2, 65, 0
3, 40312, Note_on_c, 2, 75, 0
3, 40312, Note_on_c, 2, 72, 0
3, 40312, Note_on_c, 2, 68, 0
3, 40320, Note_on_c, 2, 72, 70
3, 40320, Note_on_c, 2, 68, 70
3, 40320, Note_on_c, 2, 74, 70
3, 40320, Note_on_c, 2, 65, 70
3, 40504, Note_on_c, 2, 65, 0
3, 40504, Note_on_c, 2, 72, 0
3, 40504, Note_on_c, 2, 68, 0
3, 40504, Note_on_c, 2, 74, 0
3, 40512, Note_on_c, 2, 72, 70
3, 40512, Note_on_c, 2, 74, 70
3, 40512, Note_on_c, 2, 68, 70
3, 40512, Note_on_c, 2, 65, 70
3, 40696, Note_on_c, 2, 65, 0
3, 40696, Note_on_c, 2, 72, 0
3, 40696, Note_on_c, 2, 74, 0
3, 40696, Note_on_c, 2, 68, 0
3, 40704, Note_on_c, 2, 68, 70
3, 40704, Note_on_c, 2, 75, 70
3, 40704, Note_on_c, 2, 72, 70
3, 40704, Note_on_c, 2, 65, 70
3, 40888, Note_on_c, 2, 65, 0
3, 40888, Note_on_c, 2, 68, 0
3, 40888, Note_on_c, 2, 75, 0
3, 40888, Note_on_c, 2, 72, 0
3, 40896, Note_on_c, 2, 68, 70
3, 40896, Note_on_c, 2, 75, 70
3, 40896, Note_on_c, 2, 72, 70
3, 40896, Note_on_c, 2, 65, 70
3, 41080, Note_on_c, 2, 65, 0
3, 41080, Note_on_c, 2, 68, 0
3, 41080, Note_on_c, 2, 75, 0
3, 41080, Note_on_c, 2, 72, 0
3, 41088, Note_on_c, 2, 75, 70
3, 41088, Note_on_c, 2, 72, 70
3, 41088, Note_on_c, 2, 68, 70
3, 41088, Note_on_c, 2, 65, 70
3, 41272, Note_on_c, 2, 65, 0
3, 41272, Note_on_c, 2, 75, 0
3, 41272, Note_on_c, 2, 72, 0
3, 41272, Note_on_c, 2, 68, 0
3, 41280, Note_on_c, 2, 75, 70
3, 41280, Note_on_c, 2, 72, 70
3, 41280, Note_on_c, 2, 68, 70
3, 41280, Note_on_c, 2, 65, 70
3, 41464, Note_on_c, 2, 65, 0
3, 41464, Note_on_c, 2, 75, 0
3, 41464, Note_on_c, 2, 72, 0
3, 41464, Note_on_c, 2, 68, 0
3, 41472, Note_on_c, 2, 65, 70
3, 41472, Note_on_c, 2, 70, 70
3, 41472, Note_on_c, 2, 74, 70
3, 41656, Note_on_c, 2, 74, 0
3, 41656, Note_on_c, 2, 70, 0
3, 41656, Note_on_c, 2, 65, 0
3, 41664, Note_on_c, 2, 70, 70
3, 41664, Note_on_c, 2, 65, 70
3, 41664, Note_on_c, 2, 74, 70
3, 41848, Note_on_c, 2, 74, 0
3, 41848, Note_on_c, 2, 65, 0
3, 41848, Note_on_c, 2, 70, 0
3, 41856, Note_on_c, 2, 70, 70
3, 41856, Note_on_c, 2, 65, 70
3, 41856, Note_on_c, 2, 74, 70
3, 42040, Note_on_c, 2, 74, 0
3, 42040, Note_on_c, 2, 65, 0
3, 42040, Note_on_c, 2, 70, 0
3, 42048, Note_on_c, 2, 65, 70
3, 42048, Note_on_c, 2, 70, 70
3, 42048, Note_on_c, 2, 74, 70
3, 42232, Note_on_c, 2, 74, 0
3, 42232, Note_on_c, 2, 70, 0
3, 42232, Note_on_c, 2, 65, 0
3, 42240, Note_on_c, 2, 75, 70
3, 42240, Note_on_c, 2, 72, 70
3, 42240, Note_on_c, 2, 68, 70
3, 42240, Note_on_c, 2, 65, 70
3, 42424, Note_on_c, 2, 65, 0
3, 42424, Note_on_c, 2, 75, 0
3, 42424, Note_on_c, 2, 72, 0
3, 42424, Note_on_c, 2, 68, 0
3, 42432, Note_on_c, 2, 75, 70
3, 42432, Note_on_c, 2, 68, 70
3, 42432, Note_on_c, 2, 72, 70
3, 42432, Note_on_c, 2, 65, 70
3, 42616, Note_on_c, 2, 65, 0
3, 42616, Note_on_c, 2, 75, 0
3, 42616, Note_on_c, 2, 68, 0
3, 42616, Note_on_c, 2, 72, 0
3, 42624, Note_on_c, 2, 75, 70
3, 42624, Note_on_c, 2, 72, 70
3, 42624, Note_on_c, 2, 68, 70
3, 42624, Note_on_c, 2, 65, 70
3, 42808, Note_on_c, 2, 65, 0
3, 42808, Note_on_c, 2, 75, 0
3, 42808, Note_on_c, 2, 72, 0
3, 42808, Note_on_c, 2, 68, 0
3, 42816, Note_on_c, 2, 75, 70
3, 42816, Note_on_c, 2, 72, 70
3, 42816, Note_on_c, 2, 68, 70
3, 42816, Note_on_c, 2, 65, 70
3, 43000, Note_on_c, 2, 65, 0
3, 43000, Note_on_c, 2, 75, 0
3, 43000, Note_on_c, 2, 72, 0
3, 43000, Note_on_c, 2, 68, 0
3, 43008, Note_on_c, 2, 74, 70
3, 43008, Note_on_c, 2, 70, 70
3, 43008, Note_on_c, 2, 65, 70
3, 43192, Note_on_c, 2, 65, 0
3, 43192, Note_on_c, 2, 70, 0
3, 43192, Note_on_c, 2, 74, 0
3, 43200, Note_on_c, 2, 65, 70
3, 43200, Note_on_c, 2, 70, 70
3, 43200, Note_on_c, 2, 74, 70
3, 43384, Note_on_c, 2, 74, 0
3, 43384, Note_on_c, 2, 70, 0
3, 43384, Note_on_c, 2, 65, 0
3, 43392, Note_on_c, 2, 65, 70
3, 43392, Note_on_c, 2, 70, 70
3, 43392, Note_on_c, 2, 74, 70
3, 43576, Note_on_c, 2, 74, 0
3, 43576, Note_on_c, 2, 70, 0
3, 43576, Note_on_c, 2, 65, 0
3, 43584, Note_on_c, 2, 65, 70
3, 43584, Note_on_c, 2, 70, 70
3, 43584, Note_on_c, 2, 74, 70
3, 43768, Note_on_c, 2, 74, 0
3, 43768, Note_on_c, 2, 70, 0
3, 43768, Note_on_c, 2, 65, 0
3, 43776, Note_on_c, 2, 68, 70
3, 43776, Note_on_c, 2, 75, 70
3, 43776, Note_on_c, 2, 72, 70
3, 43776, Note_on_c, 2, 65, 70
3, 43960, Note_on_c, 2, 65, 0
3, 43960, Note_on_c, 2, 68, 0
3, 43960, Note_on_c, 2, 75, 0
3, 43960, Note_on_c, 2, 72, 0
3, 43968, Note_on_c, 2, 72, 70
3, 43968, Note_on_c, 2, 75, 70
3, 43968, Note_on_c, 2, 68, 70
3, 43968, Note_on_c, 2, 65, 70
3, 44152, Note_on_c, 2, 65, 0
3, 44152, Note_on_c, 2, 72, 0
3, 44152, Note_on_c, 2, 75, 0
3, 44152, Note_on_c, 2, 68, 0
3, 44160, Note_on_c, 2, 72, 70
3, 44160, Note_on_c, 2, 75, 70
3, 44160, Note_on_c, 2, 68, 70
3, 44160, Note_on_c, 2, 65, 70
3, 44344, Note_on_c, 2, 65, 0
3, 44344, Note_on_c, 2, 72, 0
3, 44344, Note_on_c, 2, 75, 0
3, 44344, Note_on_c, 2, 68, 0
3, 44352, Note_on_c, 2, 75, 70
3, 44352, Note_on_c, 2, 72, 70
3, 44352, Note_on_c, 2, 68, 70
3, 44352, Note_on_c, 2, 65, 70
3, 44536, Note_on_c, 2, 65, 0
3, 44536, Note_on_c, 2, 75, 0
3, 44536, Note_on_c, 2, 72, 0
3, 44536, Note_on_c, 2, 68, 0
3, 44544, Note_on_c, 2, 70, 70
3, 44544, Note_on_c, 2, 65, 70
3, 44544, Note_on_c, 2, 74, 70
3, 44728, Note_on_c, 2, 74, 0
3, 44728, Note_on_c, 2, 65, 0
3, 44728, Note_on_c, 2, 70, 0
3, 44736, Note_on_c, 2, 65, 70
3, 44736, Note_on_c, 2, 70, 70
3, 44736, Note_on_c, 2, 74, 70
3, 44920, Note_on_c, 2, 74, 0
3, 44920, Note_on_c, 2, 70, 0
3, 44920, Note_on_c, 2, 65, 0
3, 44928, Note_on_c, 2, 70, 70
3, 44928, Note_on_c, 2, 65, 70
3, 44928, Note_on_c, 2, 74, 70
3, 45112, Note_on_c, 2, 74, 0
3, 45112, Note_on_c, 2, 65, 0
3, 45112, Note_on_c, 2, 70, 0
3, 45120, Note_on_c, 2, 70, 70
3, 45120, Note_on_c, 2, 65, 70
3, 45120, Note_on_c, 2, 74, 70
3, 45304, Note_on_c, 2, 74, 0
3, 45304, Note_on_c, 2, 65, 0
3, 45304, Note_on_c, 2, 70, 0
3, 45312, Note_on_c, 2, 72, 70
3, 45312, Note_on_c, 2, 69, 70
3, 45312, Note_on_c, 2, 65, 70
3, 45496, Note_on_c, 2, 65, 0
3, 45496, Note_on_c, 2, 69, 0
3, 45496, Note_on_c, 2, 72, 0
3, 45504, Note_on_c, 2, 69, 70
3, 45504, Note_on_c, 2, 65, 70
3, 45504, Note_on_c, 2, 72, 70
3, 45688, Note_on_c, 2, 72, 0
3, 45688, Note_on_c, 2, 65, 0
3, 45688, Note_on_c, 2, 69, 0
3, 45696, Note_on_c, 2, 72, 70
3, 45696, Note_on_c, 2, 67, 70
3, 45696, Note_on_c, 2, 64, 70
3, 45880, Note_on_c, 2, 64, 0
3, 45880, Note_on_c, 2, 67, 0
3, 45880, Note_on_c, 2, 72, 0
3, 45888, Note_on_c, 2, 72, 70
3, 45888, Note_on_c, 2, 67, 70
3, 45888, Note_on_c, 2, 64, 70
3, 46072, Note_on_c, 2, 64, 0
3, 46072, Note_on_c, 2, 67, 0
3, 46072, Note_on_c, 2, 72, 0
3, 46080, Note_on_c, 2, 68, 70
3, 46080, Note_on_c, 2, 75, 70
3, 46080, Note_on_c, 2, 72, 70
3, 46080, Note_on_c, 2, 65, 70
3, 46264, Note_on_c, 2, 65, 0
3, 46264, Note_on_c, 2, 68, 0
3, 46264, Note_on_c, 2, 75, 0
3, 46264, Note_on_c, 2, 72, 0
3, 46272, Note_on_c, 2, 75, 70
3, 46272, Note_on_c, 2, 72, 70
3, 46272, Note_on_c, 2, 68, 70
3, 46272, Note_on_c, 2, 65, 70
3, 46456, Note_on_c, 2, 65, 0
3, 46456, Note_on_c, 2, 75, 0
3, 46456, Note_on_c, 2, 72, 0
3, 46456, Note_on_c, 2, 68, 0
3, 46464, Note_on_c, 2, 72, 70
3, 46464, Note_on_c, 2, 68, 70
3, 46464, Note_on_c, 2, 74, 70
3, 46464, Note_on_c, 2, 65, 70
3, 46648, Note_on_c, 2, 65, 0
3, 46648, Note_on_c, 2, 72, 0
3, 46648, Note_on_c, 2, 68, 0
3, 46648, Note_on_c, 2, 74, 0
3, 46656, Note_on_c, 2, 72, 70
3, 46656, Note_on_c, 2, 74, 70
3, 46656, Note_on_c, 2, 68, 70
3, 46656, Note_on_c, 2, 65, 70
3, 46840, Note_on_c, 2, 65, 0
3, 46840, Note_on_c, 2, 72, 0
3, 46840, Note_on_c, 2, 74, 0
3, 46840, Note_on_c, 2, 68, 0
3, 46848, Note_on_c, 2, 68, 70
3, 46848, Note_on_c, 2, 75, 70
3, 46848, Note_on_c, 2, 72, 70
3, 46848, Note_on_c, 2, 65, 70
3, 47032, Note_on_c, 2, 65, 0
3, 47032, Note_on_c, 2, 68, 0
3, 47032, Note_on_c, 2, 75, 0
3, 47032, Note_on_c, 2, 72, 0
3, 47040, Note_on_c, 2, 68, 70
3, 47040, Note_on_c, 2, 75, 70
3, 47040, Note_on_c, 2, 72, 70
3, 47040, Note_on_c, 2, 65, 70
3, 47224, Note_on_c, 2, 65, 0
3, 47224, Note_on_c, 2, 68, 0
3, 47224, Note_on_c, 2, 75, 0
3, 47224, Note_on_c, 2, 72, 0
3, 47232, Note_on_c, 2, 75, 70
3, 47232, Note_on_c, 2, 72, 70
3, 47232, Note_on_c, 2, 68, 70
3, 47232, Note_on_c, 2, 65, 70
3, 47416, Note_on_c, 2, 65, 0
3, 47416, Note_on_c, 2, 75, 0
3, 47416, Note_on_c, 2, 72, 0
3, 47416, Note_on_c, 2, 68, 0
3, 47424, Note_on_c, 2, 75, 70
3, 47424, Note_on_c, 2, 72, 70
3, 47424, Note_on_c, 2, 68, 70
3, 47424, Note_on_c, 2, 65, 70
3, 47608, Note_on_c, 2, 65, 0
3, 47608, Note_on_c, 2, 75, 0
3, 47608, Note_on_c, 2, 72, 0
3, 47608, Note_on_c, 2, 68, 0
3, 47616, Note_on_c, 2, 65, 70
3, 47616, Note_on_c, 2, 70, 70
3, 47616, Note_on_c, 2, 74, 70
3, 47800, Note_on_c, 2, 74, 0
3, 47800, Note_on_c, 2, 70, 0
3, 47800, Note_on_c, 2, 65, 0
3, 47808, Note_on_c, 2, 70, 70
3, 47808, Note_on_c, 2, 65, 70
3, 47808, Note_on_c, 2, 74, 70
3, 47992, Note_on_c, 2, 74, 0
3, 47992, Note_on_c, 2, 65, 0
3, 47992, Note_on_c, 2, 70, 0
3, 48000, Note_on_c, 2, 70, 70
3, 48000, Note_on_c, 2, 65, 70
3, 48000, Note_on_c, 2, 74, 70
3, 48184, Note_on_c, 2, 74, 0
3, 48184, Note_on_c, 2, 65, 0
3, 48184, Note_on_c, 2, 70, 0
3, 48192, Note_on_c, 2, 65, 70
3, 48192, Note_on_c, 2, 70, 70
3, 48192, Note_on_c, 2, 74, 70
3, 48376, Note_on_c, 2, 74, 0
3, 48376, Note_on_c, 2, 70, 0
3, 48376, Note_on_c, 2, 65, 0
3, 48384, Note_on_c, 2, 75, 70
3, 48384, Note_on_c, 2, 72, 70
3, 48384, Note_on_c, 2, 68, 70
3, 48384, Note_on_c, 2, 65, 70
3, 48568, Note_on_c, 2, 65, 0
3, 48568, Note_on_c, 2, 75, 0
3, 48568, Note_on_c, 2, 72, 0
3, 48568, Note_on_c, 2, 68, 0
3, 48576, Note_on_c, 2, 75, 70
3, 48576, Note_on_c, 2, 68, 70
3, 48576, Note_on_c, 2, 72, 70
3, 48576, Note_on_c, 2, 65, 70
3, 48760, Note_on_c, 2, 65, 0
3, 48760, Note_on_c, 2, 75, 0
3, 48760, Note_on_c, 2, 68, 0
3, 48760, Note_on_c, 2, 72, 0
3, 48768, Note_on_c, 2, 75, 70
3, 48768, Note_on_c, 2, 72, 70
3, 48768, Note_on_c, 2, 68, 70
3, 48768, Note_on_c, 2, 65, 70
3, 48952, Note_on_c, 2, 65, 0
3, 48952, Note_on_c, 2, 75, 0
3, 48952, Note_on_c, 2, 72, 0
3, 48952, Note_on_c, 2, 68, 0
3, 48960, Note_on_c, 2, 75, 70
3, 48960, Note_on_c, 2, 72, 70
3, 48960, Note_on_c, 2, 68, 70
3, 48960, Note_on_c, 2, 65, 70
3, 49144, Note_on_c, 2, 65, 0
3, 49144, Note_on_c, 2, 75, 0
3, 49144, Note_on_c, 2, 72, 0
3, 49144, Note_on_c, 2, 68, 0
3, 49152, Note_on_c, 2, 74, 70
3, 49152, Note_on_c, 2, 70, 70
3, 49152, Note_on_c, 2, 65, 70
3, 49336, Note_on_c, 2, 65, 0
3, 49336, Note_on_c, 2, 70, 0
3, 49336, Note_on_c, 2, 74, 0
3, 49344, Note_on_c, 2, 65, 70
3, 49344, Note_on_c, 2, 70, 70
3, 49344, Note_on_c, 2, 74, 70
3, 49528, Note_on_c, 2, 74, 0
3, 49528, Note_on_c, 2, 70, 0
3, 49528, Note_on_c, 2, 65, 0
3, 49536, Note_on_c, 2, 65, 70
3, 49536, Note_on_c, 2, 70, 70
3, 49536, Note_on_c, 2, 74, 70
3, 49720, Note_on_c, 2, 74, 0
3, 49720, Note_on_c, 2, 70, 0
3, 49720, Note_on_c, 2, 65, 0
3, 49728, Note_on_c, 2, 65, 70
3, 49728, Note_on_c, 2, 70, 70
3, 49728, Note_on_c, 2, 74, 70
3, 49912, Note_on_c, 2, 74, 0
3, 49912, Note_on_c, 2, 70, 0
3, 49912, Note_on_c, 2, 65, 0
3, 49920, Note_on_c, 2, 68, 70
3, 49920, Note_on_c, 2, 75, 70
3, 49920, Note_on_c, 2, 72, 70
3, 49920, Note_on_c, 2, 65, 70
3, 50104, Note_on_c, 2, 65, 0
3, 50104, Note_on_c, 2, 68, 0
3, 50104, Note_on_c, 2, 75, 0
3, 50104, Note_on_c, 2, 72, 0
3, 50112, Note_on_c, 2, 72, 70
3, 50112, Note_on_c, 2, 75, 70
3, 50112, Note_on_c, 2, 68, 70
3, 50112, Note_on_c, 2, 65, 70
3, 50296, Note_on_c, 2, 65, 0
3, 50296, Note_on_c, 2, 72, 0
3, 50296, Note_on_c, 2, 75, 0
3, 50296, Note_on_c, 2, 68, 0
3, 50304, Note_on_c, 2, 72, 70
3, 50304, Note_on_c, 2, 75, 70
3, 50304, Note_on_c, 2, 68, 70
3, 50304, Note_on_c, 2, 65, 70
3, 50488, Note_on_c, 2, 65, 0
3, 50488, Note_on_c, 2, 72, 0
3, 50488, Note_on_c, 2, 75, 0
3, 50488, Note_on_c, 2, 68, 0
3, 50496, Note_on_c, 2, 75, 70
3, 50496, Note_on_c, 2, 72, 70
3, 50496, Note_on_c, 2, 68, 70
3, 50496, Note_on_c, 2, 65, 70
3, 50680, Note_on_c, 2, 65, 0
3, 50680, Note_on_c, 2, 75, 0
3, 50680, Note_on_c, 2, 72, 0
3, 50680, Note_on_c, 2, 68, 0
3, 50688, Note_on_c, 2, 70, 70
3, 50688, Note_on_c, 2, 65, 70
3, 50688, Note_on_c, 2, 74, 70
3, 50872, Note_on_c, 2, 74, 0
3, 50872, Note_on_c, 2, 65, 0
3, 50872, Note_on_c, 2, 70, 0
3, 50880, Note_on_c, 2, 65, 70
3, 50880, Note_on_c, 2, 70, 70
3, 50880, Note_on_c, 2, 74, 70
3, 51064, Note_on_c, 2, 74, 0
3, 51064, Note_on_c, 2, 70, 0
3, 51064, Note_on_c, 2, 65, 0
3, 51072, Note_on_c, 2, 70, 70
3, 51072, Note_on_c, 2, 65, 70
3, 51072, Note_on_c, 2, 74, 70
3, 51256, Note_on_c, 2, 74, 0
3, 51256, Note_on_c, 2, 65, 0
3, 51256, Note_on_c, 2, 70, 0
3, 51264, Note_on_c, 2, 70, 70
3, 51264, Note_on_c, 2, 65, 70
3, 51264, Note_on_c, 2, 74, 70
3, 51448, Note_on_c, 2, 74, 0
3, 51448, Note_on_c, 2, 65, 0
3, 51448, Note_on_c, 2, 70, 0
3, 51456, Note_on_c, 2, 60, 90
3, 51552, Note_on_c, 2, 60, 0
3, 51552, End_track
4, 0, Start_track
4, 0, MIDI_port, 0
4, 0, Title_t, "Flute           "
4, 0, Program_c, 3, 71
4, 0, Control_c, 3, 7, 127
4, 0, Control_c, 3, 10, 64
4, 0, Control_c, 3, 91, 50
4, 2240, Note_on_c, 3, 72, 127
4, 2304, Note_on_c, 3, 72, 0
4, 2304, Note_on_c, 3, 77, 127
4, 2400, Note_on_c, 3, 77, 0
4, 2432, Note_on_c, 3, 72, 127
4, 2472, Note_on_c, 3, 72, 0
4, 2496, Note_on_c, 3, 72, 127
4, 2576, Note_on_c, 3, 72, 0
4, 2624, Note_on_c, 3, 72, 127
4, 2848, Note_on_c, 3, 72, 0
4, 2880, Note_on_c, 3, 72, 127
4, 2944, Note_on_c, 3, 75, 127
4, 2968, Note_on_c, 3, 72, 0
4, 3008, Note_on_c, 3, 77, 127
4, 3024, Note_on_c, 3, 75, 0
4, 3264, Note_on_c, 3, 77, 0
4, 3264, Note_on_c, 3, 75, 127
4, 3320, Note_on_c, 3, 75, 0
4, 3328, Note_on_c, 3, 74, 127
4, 3384, Note_on_c, 3, 74, 0
4, 3392, Note_on_c, 3, 72, 127
4, 3776, Note_on_c, 3, 70, 127
4, 3800, Note_on_c, 3, 72, 0
4, 3824, Note_on_c, 3, 70, 0
4, 3840, Note_on_c, 3, 72, 127
4, 4032, Note_on_c, 3, 65, 127
4, 4064, Note_on_c, 3, 72, 0
4, 4112, Note_on_c, 3, 65, 0
4, 4160, Note_on_c, 3, 65, 127
4, 4416, Note_on_c, 3, 68, 127
4, 4432, Note_on_c, 3, 65, 0
4, 4544, Note_on_c, 3, 70, 127
4, 4552, Note_on_c, 3, 68, 0
4, 4736, Note_on_c, 3, 72, 127
4, 4752, Note_on_c, 3, 70, 0
4, 5048, Note_on_c, 3, 72, 0
4, 5120, Note_on_c, 3, 72, 127
4, 5184, Note_on_c, 3, 75, 127
4, 5192, Note_on_c, 3, 72, 0
4, 5304, Note_on_c, 3, 75, 0
4, 5312, Note_on_c, 3, 77, 127
4, 5504, Note_on_c, 3, 77, 0
4, 5504, Note_on_c, 3, 80, 127
4, 6128, Note_on_c, 3, 80, 0
4, 6144, Note_on_c, 3, 77, 127
4, 6720, Note_on_c, 3, 77, 0
4, 8384, Note_on_c, 3, 72, 127
4, 8432, Note_on_c, 3, 72, 0
4, 8448, Note_on_c, 3, 77, 127
4, 8552, Note_on_c, 3, 77, 0
4, 8576, Note_on_c, 3, 72, 127
4, 8640, Note_on_c, 3, 72, 0
4, 8640, Note_on_c, 3, 72, 127
4, 8720, Note_on_c, 3, 72, 0
4, 8768, Note_on_c, 3, 72, 127
4, 8992, Note_on_c, 3, 72, 0
4, 9024, Note_on_c, 3, 72, 127
4, 9088, Note_on_c, 3, 72, 0
4, 9088, Note_on_c, 3, 75, 127
4, 9152, Note_on_c, 3, 77, 127
4, 9160, Note_on_c, 3, 75, 0
4, 9408, Note_on_c, 3, 77, 0
4, 9408, Note_on_c, 3, 75, 127
4, 9464, Note_on_c, 3, 75, 0
4, 9472, Note_on_c, 3, 74, 127
4, 9504, Note_on_c, 3, 74, 0
4, 9536, Note_on_c, 3, 72, 127
4, 9920, Note_on_c, 3, 70, 127
4, 9936, Note_on_c, 3, 72, 0
4, 9968, Note_on_c, 3, 70, 0
4, 9984, Note_on_c, 3, 72, 127
4, 10176, Note_on_c, 3, 65, 127
4, 10208, Note_on_c, 3, 72, 0
4, 10296, Note_on_c, 3, 65, 0
4, 10304, Note_on_c, 3, 65, 127
4, 10560, Note_on_c, 3, 68, 127
4, 10584, Note_on_c, 3, 65, 0
4, 10688, Note_on_c, 3, 68, 0
4, 10688, Note_on_c, 3, 70, 127
4, 10872, Note_on_c, 3, 70, 0
4, 10880, Note_on_c, 3, 72, 127
4, 11200, Note_on_c, 3, 72, 0
4, 11264, Note_on_c, 3, 72, 127
4, 11328, Note_on_c, 3, 75, 127
4, 11352, Note_on_c, 3, 72, 0
4, 11448, Note_on_c, 3, 75, 0
4, 11456, Note_on_c, 3, 77, 127
4, 11632, Note_on_c, 3, 77, 0
4, 11648, Note_on_c, 3, 80, 127
4, 12224, Note_on_c, 3, 80, 0
4, 12288, Note_on_c, 3, 77, 127
4, 12800, Note_on_c, 3, 77, 0
4, 14208, Note_on_c, 3, 68, 127
4, 14360, Note_on_c, 3, 68, 0
4, 14400, Note_on_c, 3, 70, 127
4, 14544, Note_on_c, 3, 70, 0
4, 14592, Note_on_c, 3, 72, 127
4, 14696, Note_on_c, 3, 72, 0
4, 14720, Note_on_c, 3, 72, 127
4, 14760, Note_on_c, 3, 72, 0
4, 14784, Note_on_c, 3, 72, 127
4, 14824, Note_on_c, 3, 72, 0
4, 14848, Note_on_c, 3, 72, 127
4, 14880, Note_on_c, 3, 72, 0
4, 14912, Note_on_c, 3, 72, 127
4, 14944, Note_on_c, 3, 72, 0
4, 14976, Note_on_c, 3, 72, 127
4, 15040, Note_on_c, 3, 72, 0
4, 15168, Note_on_c, 3, 74, 127
4, 15208, Note_on_c, 3, 74, 0
4, 15232, Note_on_c, 3, 76, 127
4, 15264, Note_on_c, 3, 76, 0
4, 15296, Note_on_c, 3, 77, 127
4, 15424, Note_on_c, 3, 77, 127
4, 15432, Note_on_c, 3, 77, 0
4, 15480, Note_on_c, 3, 77, 0
4, 15488, Note_on_c, 3, 77, 127
4, 15696, Note_on_c, 3, 77, 0
4, 15872, Note_on_c, 3, 72, 127
4, 15928, Note_on_c, 3, 72, 0
4, 15936, Note_on_c, 3, 74, 127
4, 15992, Note_on_c, 3, 74, 0
4, 16000, Note_on_c, 3, 76, 127
4, 16048, Note_on_c, 3, 76, 0
4, 16064, Note_on_c, 3, 77, 127
4, 16224, Note_on_c, 3, 77, 0
4, 16256, Note_on_c, 3, 77, 127
4, 16272, Note_on_c, 3, 77, 0
4, 16320, Note_on_c, 3, 77, 127
4, 16528, Note_on_c, 3, 77, 0
4, 16640, Note_on_c, 3, 72, 127
4, 16704, Note_on_c, 3, 74, 127
4, 16712, Note_on_c, 3, 72, 0
4, 16752, Note_on_c, 3, 74, 0
4, 16768, Note_on_c, 3, 76, 127
4, 16800, Note_on_c, 3, 76, 0
4, 16832, Note_on_c, 3, 77, 127
4, 17496, Note_on_c, 3, 77, 0
4, 17664, Note_on_c, 3, 79, 127
4, 17696, Note_on_c, 3, 79, 0
4, 17728, Note_on_c, 3, 79, 127
4, 17760, Note_on_c, 3, 79, 0
4, 17792, Note_on_c, 3, 79, 127
4, 17832, Note_on_c, 3, 79, 0
4, 17856, Note_on_c, 3, 79, 127
4, 17904, Note_on_c, 3, 79, 0
4, 18048, Note_on_c, 3, 79, 127
4, 18072, Note_on_c, 3, 79, 0
4, 18112, Note_on_c, 3, 79, 127
4, 18144, Note_on_c, 3, 79, 0
4, 18176, Note_on_c, 3, 79, 127
4, 18232, Note_on_c, 3, 79, 0
4, 18368, Note_on_c, 3, 76, 127
4, 18400, Note_on_c, 3, 76, 0
4, 18432, Note_on_c, 3, 79, 127
4, 18464, Note_on_c, 3, 79, 0
4, 18496, Note_on_c, 3, 79, 127
4, 18528, Note_on_c, 3, 79, 0
4, 18560, Note_on_c, 3, 79, 127
4, 18640, Note_on_c, 3, 79, 0
4, 18752, Note_on_c, 3, 79, 127
4, 18776, Note_on_c, 3, 79, 0
4, 18816, Note_on_c, 3, 79, 127
4, 18848, Note_on_c, 3, 79, 0
4, 18880, Note_on_c, 3, 79, 127
4, 18912, Note_on_c, 3, 79, 0
4, 18944, Note_on_c, 3, 79, 127
4, 19040, Note_on_c, 3, 79, 0
4, 19136, Note_on_c, 3, 76, 127
4, 19176, Note_on_c, 3, 76, 0
4, 19200, Note_on_c, 3, 79, 127
4, 19232, Note_on_c, 3, 79, 0
4, 19264, Note_on_c, 3, 79, 127
4, 19304, Note_on_c, 3, 79, 0
4, 19328, Note_on_c, 3, 79, 127
4, 19408, Note_on_c, 3, 79, 0
4, 19520, Note_on_c, 3, 79, 127
4, 19544, Note_on_c, 3, 79, 0
4, 19584, Note_on_c, 3, 79, 127
4, 19648, Note_on_c, 3, 79, 0
4, 19712, Note_on_c, 3, 79, 127
4, 19752, Note_on_c, 3, 79, 0
4, 19776, Note_on_c, 3, 79, 127
4, 19840, Note_on_c, 3, 79, 127
4, 19848, Note_on_c, 3, 79, 0
4, 19944, Note_on_c, 3, 79, 0
4, 19968, Note_on_c, 3, 79, 127
4, 20408, Note_on_c, 3, 79, 0
4, 20656, Note_on_c, 3, 72, 127
4, 20736, Note_on_c, 3, 72, 0
4, 20736, Note_on_c, 3, 77, 127
4, 20824, Note_on_c, 3, 77, 0
4, 20864, Note_on_c, 3, 72, 127
4, 20896, Note_on_c, 3, 72, 0
4, 20928, Note_on_c, 3, 72, 127
4, 21008, Note_on_c, 3, 72, 0
4, 21056, Note_on_c, 3, 72, 127
4, 21256, Note_on_c, 3, 72, 0
4, 21312, Note_on_c, 3, 72, 127
4, 21336, Note_on_c, 3, 72, 0
4, 21344, Note_on_c, 3, 75, 127
4, 21376, Note_on_c, 3, 77, 127
4, 21392, Note_on_c, 3, 75, 0
4, 21440, Note_on_c, 3, 75, 127
4, 21488, Note_on_c, 3, 77, 0
4, 21504, Note_on_c, 3, 74, 127
4, 21520, Note_on_c, 3, 75, 0
4, 21568, Note_on_c, 3, 72, 127
4, 21592, Note_on_c, 3, 74, 0
4, 22208, Note_on_c, 3, 72, 0
4, 22208, Note_on_c, 3, 70, 127
4, 22272, Note_on_c, 3, 70, 0
4, 22272, Note_on_c, 3, 72, 127
4, 22456, Note_on_c, 3, 72, 0
4, 22464, Note_on_c, 3, 65, 127
4, 22544, Note_on_c, 3, 65, 0
4, 22592, Note_on_c, 3, 65, 127
4, 22840, Note_on_c, 3, 65, 0
4, 22848, Note_on_c, 3, 68, 127
4, 22968, Note_on_c, 3, 68, 0
4, 22976, Note_on_c, 3, 70, 127
4, 23136, Note_on_c, 3, 70, 0
4, 23168, Note_on_c, 3, 72, 127
4, 23464, Note_on_c, 3, 72, 0
4, 23552, Note_on_c, 3, 72, 127
4, 23600, Note_on_c, 3, 72, 0
4, 23616, Note_on_c, 3, 75, 127
4, 23728, Note_on_c, 3, 75, 0
4, 23744, Note_on_c, 3, 77, 127
4, 23928, Note_on_c, 3, 77, 0
4, 23936, Note_on_c, 3, 80, 127
4, 24576, Note_on_c, 3, 80, 0
4, 24576, Note_on_c, 3, 77, 127
4, 25128, Note_on_c, 3, 77, 0
4, 25344, Note_on_c, 3, 80, 127
4, 25480, Note_on_c, 3, 80, 0
4, 25536, Note_on_c, 3, 77, 127
4, 25656, Note_on_c, 3, 77, 0
4, 25728, Note_on_c, 3, 72, 127
4, 25864, Note_on_c, 3, 72, 0
4, 25920, Note_on_c, 3, 68, 127
4, 26072, Note_on_c, 3, 68, 0
4, 26112, Note_on_c, 3, 65, 127
4, 26288, Note_on_c, 3, 65, 0
4, 26432, Note_on_c, 3, 80, 127
4, 26504, Note_on_c, 3, 80, 0
4, 26624, Note_on_c, 3, 80, 127
4, 26720, Note_on_c, 3, 80, 0
4, 26816, Note_on_c, 3, 75, 127
4, 26872, Note_on_c, 3, 75, 0
4, 26880, Note_on_c, 3, 77, 127
4, 27592, Note_on_c, 3, 77, 0
4, 32648, Note_on_c, 3, 68, 127
4, 32800, Note_on_c, 3, 68, 0
4, 32840, Note_on_c, 3, 70, 127
4, 33016, Note_on_c, 3, 70, 0
4, 33024, Note_on_c, 3, 72, 127
4, 33128, Note_on_c, 3, 72, 0
4, 33152, Note_on_c, 3, 72, 127
4, 33192, Note_on_c, 3, 72, 0
4, 33216, Note_on_c, 3, 72, 127
4, 33256, Note_on_c, 3, 72, 0
4, 33280, Note_on_c, 3, 72, 127
4, 33312, Note_on_c, 3, 72, 0
4, 33344, Note_on_c, 3, 72, 127
4, 33376, Note_on_c, 3, 72, 0
4, 33408, Note_on_c, 3, 72, 127
4, 33472, Note_on_c, 3, 72, 0
4, 33600, Note_on_c, 3, 74, 127
4, 33640, Note_on_c, 3, 74, 0
4, 33664, Note_on_c, 3, 76, 127
4, 33696, Note_on_c, 3, 76, 0
4, 33728, Note_on_c, 3, 77, 127
4, 33856, Note_on_c, 3, 77, 127
4, 33864, Note_on_c, 3, 77, 0
4, 33912, Note_on_c, 3, 77, 0
4, 33920, Note_on_c, 3, 77, 127
4, 34128, Note_on_c, 3, 77, 0
4, 34304, Note_on_c, 3, 72, 127
4, 34360, Note_on_c, 3, 72, 0
4, 34368, Note_on_c, 3, 74, 127
4, 34424, Note_on_c, 3, 74, 0
4, 34432, Note_on_c, 3, 76, 127
4, 34480, Note_on_c, 3, 76, 0
4, 34496, Note_on_c, 3, 77, 127
4, 34656, Note_on_c, 3, 77, 0
4, 34688, Note_on_c, 3, 77, 127
4, 34704, Note_on_c, 3, 77, 0
4, 34752, Note_on_c, 3, 77, 127
4, 34960, Note_on_c, 3, 77, 0
4, 35072, Note_on_c, 3, 72, 127
4, 35136, Note_on_c, 3, 74, 127
4, 35144, Note_on_c, 3, 72, 0
4, 35184, Note_on_c, 3, 74, 0
4, 35200, Note_on_c, 3, 76, 127
4, 35232, Note_on_c, 3, 76, 0
4, 35264, Note_on_c, 3, 77, 127
4, 35928, Note_on_c, 3, 77, 0
4, 36096, Note_on_c, 3, 79, 127
4, 36128, Note_on_c, 3, 79, 0
4, 36160, Note_on_c, 3, 79, 127
4, 36192, Note_on_c, 3, 79, 0
4, 36224, Note_on_c, 3, 79, 127
4, 36264, Note_on_c, 3, 79, 0
4, 36288, Note_on_c, 3, 79, 127
4, 36336, Note_on_c, 3, 79, 0
4, 36480, Note_on_c, 3, 79, 127
4, 36504, Note_on_c, 3, 79, 0
4, 36544, Note_on_c, 3, 79, 127
4, 36576, Note_on_c, 3, 79, 0
4, 36608, Note_on_c, 3, 79, 127
4, 36664, Note_on_c, 3, 79, 0
4, 36800, Note_on_c, 3, 76, 127
4, 36832, Note_on_c, 3, 76, 0
4, 36864, Note_on_c, 3, 79, 127
4, 36896, Note_on_c, 3, 79, 0
4, 36928, Note_on_c, 3, 79, 127
4, 36960, Note_on_c, 3, 79, 0
4, 36992, Note_on_c, 3, 79, 127
4, 37072, Note_on_c, 3, 79, 0
4, 37184, Note_on_c, 3, 79, 127
4, 37208, Note_on_c, 3, 79, 0
4, 37248, Note_on_c, 3, 79, 127
4, 37280, Note_on_c, 3, 79, 0
4, 37312, Note_on_c, 3, 79, 127
4, 37344, Note_on_c, 3, 79, 0
4, 37376, Note_on_c, 3, 79, 127
4, 37472, Note_on_c, 3, 79, 0
4, 37568, Note_on_c, 3, 76, 127
4, 37608, Note_on_c, 3, 76, 0
4, 37632, Note_on_c, 3, 79, 127
4, 37664, Note_on_c, 3, 79, 0
4, 37696, Note_on_c, 3, 79, 127
4, 37736, Note_on_c, 3, 79, 0
4, 37760, Note_on_c, 3, 79, 127
4, 37840, Note_on_c, 3, 79, 0
4, 37952, Note_on_c, 3, 79, 127
4, 37976, Note_on_c, 3, 79, 0
4, 38016, Note_on_c, 3, 79, 127
4, 38080, Note_on_c, 3, 79, 0
4, 38144, Note_on_c, 3, 79, 127
4, 38184, Note_on_c, 3, 79, 0
4, 38208, Note_on_c, 3, 79, 127
4, 38272, Note_on_c, 3, 79, 127
4, 38280, Note_on_c, 3, 79, 0
4, 38376, Note_on_c, 3, 79, 0
4, 38400, Note_on_c, 3, 79, 127
4, 38840, Note_on_c, 3, 79, 0
4, 39088, Note_on_c, 3, 72, 127
4, 39176, Note_on_c, 3, 77, 127
4, 39184, Note_on_c, 3, 72, 0
4, 39264, Note_on_c, 3, 77, 0
4, 39288, Note_on_c, 3, 72, 127
4, 39328, Note_on_c, 3, 72, 0
4, 39360, Note_on_c, 3, 72, 127
4, 39448, Note_on_c, 3, 72, 0
4, 39480, Note_on_c, 3, 72, 127
4, 39696, Note_on_c, 3, 72, 0
4, 39736, Note_on_c, 3, 72, 127
4, 39800, Note_on_c, 3, 72, 0
4, 39800, Note_on_c, 3, 75, 127
4, 39864, Note_on_c, 3, 75, 0
4, 39872, Note_on_c, 3, 77, 127
4, 40128, Note_on_c, 3, 77, 0
4, 40128, Note_on_c, 3, 75, 127
4, 40192, Note_on_c, 3, 75, 0
4, 40192, Note_on_c, 3, 74, 127
4, 40256, Note_on_c, 3, 74, 0
4, 40264, Note_on_c, 3, 72, 127
4, 40640, Note_on_c, 3, 70, 127
4, 40648, Note_on_c, 3, 72, 0
4, 40712, Note_on_c, 3, 70, 0
4, 40712, Note_on_c, 3, 72, 127
4, 40896, Note_on_c, 3, 72, 0
4, 40904, Note_on_c, 3, 65, 127
4, 41000, Note_on_c, 3, 65, 0
4, 41024, Note_on_c, 3, 65, 127
4, 41272, Note_on_c, 3, 65, 0
4, 41272, Note_on_c, 3, 68, 127
4, 41400, Note_on_c, 3, 68, 0
4, 41400, Note_on_c, 3, 70, 127
4, 41600, Note_on_c, 3, 70, 0
4, 41600, Note_on_c, 3, 72, 127
4, 41912, Note_on_c, 3, 72, 0
4, 41976, Note_on_c, 3, 72, 127
4, 42048, Note_on_c, 3, 72, 0
4, 42048, Note_on_c, 3, 75, 127
4, 42168, Note_on_c, 3, 75, 0
4, 42176, Note_on_c, 3, 77, 127
4, 42352, Note_on_c, 3, 77, 0
4, 42360, Note_on_c, 3, 80, 127
4, 43000, Note_on_c, 3, 80, 0
4, 43008, Note_on_c, 3, 77, 127
4, 43576, Note_on_c, 3, 77, 0
4, 43768, Note_on_c, 3, 80, 127
4, 43968, Note_on_c, 3, 77, 127
4, 43976, Note_on_c, 3, 80, 0
4, 44160, Note_on_c, 3, 72, 127
4, 44168, Note_on_c, 3, 77, 0
4, 44344, Note_on_c, 3, 68, 127
4, 44360, Note_on_c, 3, 72, 0
4, 44456, Note_on_c, 3, 68, 0
4, 44464, Note_on_c, 3, 65, 127
4, 45168, Note_on_c, 3, 65, 0
4, 45312, Note_on_c, 3, 77, 127
4, 45376, Note_on_c, 3, 77, 0
4, 45440, Note_on_c, 3, 77, 127
4, 45480, Note_on_c, 3, 77, 0
4, 45504, Note_on_c, 3, 77, 127
4, 45576, Note_on_c, 3, 77, 0
4, 45632, Note_on_c, 3, 80, 127
4, 45784, Note_on_c, 3, 80, 0
4, 45824, Note_on_c, 3, 79, 127
4, 45856, Note_on_c, 3, 79, 0
4, 45888, Note_on_c, 3, 79, 127
4, 45984, Note_on_c, 3, 79, 0
4, 46016, Note_on_c, 3, 79, 127
4, 46152, Note_on_c, 3, 79, 0
4, 46208, Note_on_c, 3, 77, 127
4, 46336, Note_on_c, 3, 77, 0
4, 46400, Note_on_c, 3, 77, 127
4, 46696, Note_on_c, 3, 77, 0
4, 46784, Note_on_c, 3, 75, 127
4, 46816, Note_on_c, 3, 75, 0
4, 46848, Note_on_c, 3, 77, 127
4, 46952, Note_on_c, 3, 77, 0
4, 47040, Note_on_c, 3, 77, 127
4, 47112, Note_on_c, 3, 77, 0
4, 47168, Note_on_c, 3, 80, 127
4, 47296, Note_on_c, 3, 80, 0
4, 47360, Note_on_c, 3, 79, 127
4, 47488, Note_on_c, 3, 79, 0
4, 47552, Note_on_c, 3, 79, 127
4, 47680, Note_on_c, 3, 79, 0
4, 47744, Note_on_c, 3, 74, 127
4, 48112, Note_on_c, 3, 74, 0
4, 48128, Note_on_c, 3, 68, 127
4, 48192, Note_on_c, 3, 70, 127
4, 48232, Note_on_c, 3, 68, 0
4, 48312, Note_on_c, 3, 70, 0
4, 48320, Note_on_c, 3, 72, 127
4, 48472, Note_on_c, 3, 72, 0
4, 48512, Note_on_c, 3, 75, 127
4, 49088, Note_on_c, 3, 75, 0
4, 49088, Note_on_c, 3, 72, 127
4, 49112, Note_on_c, 3, 72, 0
4, 49152, Note_on_c, 3, 72, 127
4, 49280, Note_on_c, 3, 70, 127
4, 49296, Note_on_c, 3, 72, 0
4, 49384, Note_on_c, 3, 70, 0
4, 49664, Note_on_c, 3, 68, 127
4, 49688, Note_on_c, 3, 68, 0
4, 49728, Note_on_c, 3, 68, 127
4, 49816, Note_on_c, 3, 68, 0
4, 49856, Note_on_c, 3, 70, 127
4, 49984, Note_on_c, 3, 70, 0
4, 50048, Note_on_c, 3, 72, 127
4, 50608, Note_on_c, 3, 72, 0
4, 50624, Note_on_c, 3, 72, 127
4, 50680, Note_on_c, 3, 72, 0
4, 50688, Note_on_c, 3, 70, 127
4, 50816, Note_on_c, 3, 70, 0
4, 50816, Note_on_c, 3, 68, 127
4, 50904, Note_on_c, 3, 68, 0
4, 50904, End_track
5, 0, Start_track
5, 0, MIDI_port, 0
5, 0, Title_t, "Guitar(1)       "
5, 0, Program_c, 4, 30
5, 0, Control_c, 4, 7, 111
5, 0, Control_c, 4, 10, 39
5, 0, Control_c, 4, 91, 127
5, 6912, Note_on_c, 4, 72, 107
5, 6912, Note_on_c, 4, 68, 107
5, 7096, Note_on_c, 4, 68, 0
5, 7096, Note_on_c, 4, 72, 0
5, 7104, Note_on_c, 4, 68, 107
5, 7104, Note_on_c, 4, 65, 107
5, 7288, Note_on_c, 4, 65, 0
5, 7288, Note_on_c, 4, 68, 0
5, 7296, Note_on_c, 4, 65, 107
5, 7296, Note_on_c, 4, 60, 107
5, 7472, Control_c, 4, 7, 112
5, 7480, Note_on_c, 4, 60, 0
5, 7480, Note_on_c, 4, 65, 0
5, 7480, Control_c, 4, 7, 113
5, 7488, Note_on_c, 4, 63, 107
5, 7488, Note_on_c, 4, 56, 107
5, 7496, Control_c, 4, 7, 114
5, 7512, Control_c, 4, 7, 116
5, 7544, Control_c, 4, 7, 117
5, 7568, Control_c, 4, 7, 118
5, 7576, Control_c, 4, 7, 119
5, 7592, Control_c, 4, 7, 120
5, 7608, Control_c, 4, 7, 121
5, 7632, Control_c, 4, 7, 122
5, 7632, Note_on_c, 4, 53, 107
5, 7632, Note_on_c, 4, 62, 107
5, 7656, Control_c, 4, 7, 124
5, 7672, Note_on_c, 4, 56, 0
5, 7672, Note_on_c, 4, 63, 0
5, 7688, Control_c, 4, 7, 125
5, 8088, Control_c, 4, 7, 124
5, 8120, Control_c, 4, 7, 123
5, 8136, Control_c, 4, 7, 122
5, 8144, Control_c, 4, 7, 120
5, 8152, Control_c, 4, 7, 119
5, 8168, Control_c, 4, 7, 117
5, 8184, Control_c, 4, 7, 116
5, 8208, Control_c, 4, 7, 115
5, 8216, Control_c, 4, 7, 114
5, 8232, Control_c, 4, 7, 112
5, 8240, Control_c, 4, 7, 111
5, 8256, Control_c, 4, 7, 107
5, 8264, Note_on_c, 4, 53, 0
5, 8264, Note_on_c, 4, 62, 0
5, 8280, Control_c, 4, 7, 106
5, 8288, Control_c, 4, 7, 104
5, 8352, Control_c, 4, 7, 103
5, 13056, Note_on_c, 4, 72, 107
5, 13056, Note_on_c, 4, 68, 107
5, 13240, Note_on_c, 4, 68, 0
5, 13240, Note_on_c, 4, 72, 0
5, 13248, Note_on_c, 4, 68, 107
5, 13248, Note_on_c, 4, 65, 107
5, 13432, Note_on_c, 4, 65, 0
5, 13432, Note_on_c, 4, 68, 0
5, 13440, Note_on_c, 4, 65, 107
5, 13440, Note_on_c, 4, 60, 107
5, 13624, Note_on_c, 4, 60, 0
5, 13624, Note_on_c, 4, 65, 0
5, 13632, Note_on_c, 4, 63, 107
5, 13632, Note_on_c, 4, 56, 107
5, 13776, Note_on_c, 4, 53, 107
5, 13776, Note_on_c, 4, 62, 107
5, 13816, Note_on_c, 4, 56, 0
5, 13816, Note_on_c, 4, 63, 0
5, 14408, Note_on_c, 4, 53, 0
5, 14408, Note_on_c, 4, 62, 0
5, 17088, Note_on_c, 4, 41, 107
5, 17136, Note_on_c, 4, 41, 0
5, 17280, Note_on_c, 4, 40, 107
5, 17328, Note_on_c, 4, 40, 0
5, 17472, Note_on_c, 4, 38, 107
5, 17520, Note_on_c, 4, 38, 0
5, 17648, Control_c, 4, 7, 106
5, 17664, Note_on_c, 4, 60, 107
5, 17672, Control_c, 4, 7, 119
5, 17672, Control_c, 4, 7, 116
5, 17680, Control_c, 4, 7, 122
5, 17688, Control_c, 4, 7, 124
5, 17704, Control_c, 4, 7, 125
5, 17856, Note_on_c, 4, 60, 0
5, 17856, Note_on_c, 4, 64, 107
5, 18000, Note_on_c, 4, 64, 0
5, 18000, Note_on_c, 4, 67, 107
5, 18032, Control_c, 4, 7, 122
5, 18048, Note_on_c, 4, 67, 0
5, 18048, Control_c, 4, 7, 120
5, 18048, Note_on_c, 4, 55, 107
5, 18096, Control_c, 4, 7, 119
5, 18136, Control_c, 4, 7, 117
5, 18160, Control_c, 4, 7, 116
5, 18216, Control_c, 4, 7, 115
5, 18224, Control_c, 4, 7, 114
5, 18240, Note_on_c, 4, 55, 0
5, 18240, Note_on_c, 4, 59, 107
5, 18248, Control_c, 4, 7, 112
5, 18344, Control_c, 4, 7, 111
5, 18384, Note_on_c, 4, 59, 0
5, 18384, Note_on_c, 4, 62, 107
5, 18432, Note_on_c, 4, 62, 0
5, 18432, Note_on_c, 4, 60, 107
5, 18624, Note_on_c, 4, 60, 0
5, 18624, Note_on_c, 4, 64, 107
5, 18768, Note_on_c, 4, 64, 0
5, 18768, Note_on_c, 4, 67, 107
5, 18816, Note_on_c, 4, 67, 0
5, 18816, Note_on_c, 4, 55, 107
5, 19008, Note_on_c, 4, 55, 0
5, 19008, Note_on_c, 4, 59, 107
5, 19152, Note_on_c, 4, 59, 0
5, 19152, Note_on_c, 4, 62, 107
5, 19200, Note_on_c, 4, 62, 0
5, 19200, Note_on_c, 4, 60, 107
5, 19392, Note_on_c, 4, 60, 0
5, 19392, Note_on_c, 4, 64, 107
5, 19536, Note_on_c, 4, 64, 0
5, 19536, Note_on_c, 4, 67, 107
5, 19584, Note_on_c, 4, 67, 0
5, 19584, Note_on_c, 4, 55, 107
5, 19776, Note_on_c, 4, 55, 0
5, 19776, Note_on_c, 4, 59, 107
5, 19920, Note_on_c, 4, 59, 0
5, 19920, Note_on_c, 4, 62, 107
5, 19968, Note_on_c, 4, 62, 0
5, 19968, Note_on_c, 4, 60, 107
5, 20112, Note_on_c, 4, 60, 0
5, 20112, Note_on_c, 4, 64, 107
5, 20160, Note_on_c, 4, 64, 0
5, 20160, Note_on_c, 4, 67, 107
5, 20304, Note_on_c, 4, 67, 0
5, 20304, Note_on_c, 4, 69, 107
5, 20352, Note_on_c, 4, 69, 0
5, 20352, Note_on_c, 4, 70, 107
5, 20496, Note_on_c, 4, 70, 0
5, 20496, Note_on_c, 4, 72, 107
5, 20544, Note_on_c, 4, 72, 0
5, 20544, Note_on_c, 4, 74, 107
5, 20608, Control_c, 4, 7, 114
5, 20616, Control_c, 4, 7, 111
5, 20624, Control_c, 4, 7, 107
5, 20632, Control_c, 4, 7, 106
5, 20640, Control_c, 4, 7, 104
5, 20648, Control_c, 4, 7, 103
5, 20664, Control_c, 4, 7, 101
5, 20664, Control_c, 4, 7, 102
5, 20680, Control_c, 4, 7, 98
5, 20688, Note_on_c, 4, 74, 0
5, 20688, Control_c, 4, 7, 94
5, 20696, Control_c, 4, 7, 93
5, 20704, Control_c, 4, 7, 83
5, 20712, Control_c, 4, 7, 73
5, 20720, Control_c, 4, 7, 70
5, 20728, Control_c, 4, 7, 67
5, 20736, Control_c, 4, 7, 64
5, 20752, Control_c, 4, 7, 60
5, 20760, Control_c, 4, 7, 59
5, 20768, Control_c, 4, 7, 58
5, 20776, Control_c, 4, 7, 57
5, 20784, Control_c, 4, 7, 55
5, 20800, Control_c, 4, 7, 54
5, 20816, Control_c, 4, 7, 53
5, 20824, Control_c, 4, 7, 52
5, 20832, Control_c, 4, 7, 50
5, 20840, Control_c, 4, 7, 49
5, 20856, Control_c, 4, 7, 47
5, 20864, Control_c, 4, 7, 46
5, 20872, Control_c, 4, 7, 45
5, 20880, Control_c, 4, 7, 44
5, 20888, Control_c, 4, 7, 42
5, 20896, Control_c, 4, 7, 41
5, 20912, Control_c, 4, 7, 40
5, 20920, Control_c, 4, 7, 39
5, 20928, Control_c, 4, 7, 37
5, 21136, Control_c, 4, 7, 2
5, 21416, Control_c, 4, 7, 3
5, 21424, Control_c, 4, 7, 7
5, 21432, Control_c, 4, 7, 16
5, 21464, Control_c, 4, 7, 49
5, 21472, Control_c, 4, 7, 59
5, 21480, Control_c, 4, 7, 68
5, 21488, Control_c, 4, 7, 78
5, 21496, Control_c, 4, 7, 88
5, 21504, Control_c, 4, 7, 91
5, 21512, Control_c, 4, 7, 94
5, 21520, Control_c, 4, 7, 104
5, 21536, Control_c, 4, 7, 105
5, 21544, Control_c, 4, 7, 107
5, 21552, Control_c, 4, 7, 108
5, 21568, Control_c, 4, 7, 109
5, 21600, Control_c, 4, 7, 111
5, 21616, Control_c, 4, 7, 112
5, 21632, Control_c, 4, 7, 113
5, 21664, Control_c, 4, 7, 114
5, 21704, Control_c, 4, 7, 116
5, 25344, Note_on_c, 4, 72, 107
5, 25344, Note_on_c, 4, 68, 107
5, 25528, Note_on_c, 4, 68, 0
5, 25528, Note_on_c, 4, 72, 0
5, 25536, Note_on_c, 4, 68, 107
5, 25536, Note_on_c, 4, 65, 107
5, 25720, Note_on_c, 4, 65, 0
5, 25720, Note_on_c, 4, 68, 0
5, 25728, Note_on_c, 4, 65, 107
5, 25728, Note_on_c, 4, 60, 107
5, 25912, Note_on_c, 4, 60, 0
5, 25912, Note_on_c, 4, 65, 0
5, 25920, Note_on_c, 4, 63, 107
5, 25920, Note_on_c, 4, 56, 107
5, 26064, Note_on_c, 4, 53, 107
5, 26064, Note_on_c, 4, 62, 107
5, 26104, Note_on_c, 4, 56, 0
5, 26104, Note_on_c, 4, 63, 0
5, 26696, Note_on_c, 4, 53, 0
5, 26696, Note_on_c, 4, 62, 0
5, 26792, Control_c, 4, 7, 114
5, 26816, Control_c, 4, 7, 116
5, 26832, Control_c, 4, 7, 119
5, 26840, Control_c, 4, 7, 127
5, 26880, Note_on_c, 4, 60, 107
5, 26880, Note_on_c, 4, 65, 107
5, 27192, Note_on_c, 4, 65, 0
5, 27200, Note_on_c, 4, 60, 0
5, 27216, Note_on_c, 4, 63, 107
5, 27456, Note_on_c, 4, 63, 0
5, 27456, Note_on_c, 4, 68, 107
5, 27776, Note_on_c, 4, 68, 0
5, 27792, Note_on_c, 4, 65, 107
5, 27984, Note_on_c, 4, 65, 0
5, 27984, Note_on_c, 4, 68, 107
5, 28032, Note_on_c, 4, 68, 0
5, 28032, Note_on_c, 4, 60, 107
5, 28224, Note_on_c, 4, 60, 0
5, 28224, Note_on_c, 4, 65, 107
5, 28368, Note_on_c, 4, 65, 0
5, 28368, Note_on_c, 4, 56, 107
5, 28552, Note_on_c, 4, 56, 0
5, 28560, Note_on_c, 4, 60, 107
5, 28608, Note_on_c, 4, 60, 0
5, 28608, Note_on_c, 4, 53, 107
5, 28800, Note_on_c, 4, 56, 107
5, 28816, Note_on_c, 4, 53, 0
5, 28944, Note_on_c, 4, 60, 107
5, 28968, Note_on_c, 4, 56, 0
5, 29136, Note_on_c, 4, 60, 0
5, 29136, Note_on_c, 4, 65, 107
5, 29312, Note_on_c, 4, 65, 0
5, 29328, Note_on_c, 4, 68, 107
5, 29952, Note_on_c, 4, 68, 0
5, 30096, Note_on_c, 4, 51, 107
5, 30144, Note_on_c, 4, 51, 0
5, 30144, Note_on_c, 4, 53, 107
5, 30264, Note_on_c, 4, 53, 0
5, 30288, Note_on_c, 4, 56, 107
5, 30336, Note_on_c, 4, 56, 0
5, 30336, Note_on_c, 4, 60, 107
5, 30456, Note_on_c, 4, 60, 0
5, 30480, Note_on_c, 4, 56, 107
5, 30672, Note_on_c, 4, 56, 0
5, 30672, Note_on_c, 4, 53, 107
5, 30848, Note_on_c, 4, 53, 0
5, 30864, Note_on_c, 4, 51, 107
5, 31040, Note_on_c, 4, 51, 0
5, 31056, Note_on_c, 4, 50, 107
5, 31240, Note_on_c, 4, 50, 0
5, 31248, Note_on_c, 4, 48, 107
5, 31424, Note_on_c, 4, 48, 0
5, 31440, Note_on_c, 4, 46, 107
5, 31608, Note_on_c, 4, 46, 0
5, 31632, Note_on_c, 4, 44, 107
5, 31800, Note_on_c, 4, 44, 0
5, 31824, Note_on_c, 4, 41, 107
5, 31968, Note_on_c, 4, 41, 0
5, 32016, Note_on_c, 4, 39, 107
5, 32184, Note_on_c, 4, 39, 0
5, 32208, Note_on_c, 4, 41, 107
5, 32896, Note_on_c, 4, 41, 0
5, 35520, Note_on_c, 4, 41, 107
5, 35568, Note_on_c, 4, 41, 0
5, 35712, Note_on_c, 4, 40, 107
5, 35760, Note_on_c, 4, 40, 0
5, 35904, Note_on_c, 4, 38, 107
5, 35952, Note_on_c, 4, 38, 0
5, 35984, Control_c, 4, 7, 124
5, 36000, Control_c, 4, 7, 122
5, 36000, Control_c, 4, 7, 123
5, 36048, Control_c, 4, 7, 120
5, 36056, Control_c, 4, 7, 119
5, 36096, Note_on_c, 4, 60, 107
5, 36288, Note_on_c, 4, 60, 0
5, 36288, Note_on_c, 4, 64, 107
5, 36432, Note_on_c, 4, 64, 0
5, 36432, Control_c, 4, 7, 116
5, 36432, Note_on_c, 4, 67, 107
5, 36440, Control_c, 4, 7, 115
5, 36448, Control_c, 4, 7, 114
5, 36480, Note_on_c, 4, 67, 0
5, 36480, Note_on_c, 4, 55, 107
5, 36672, Note_on_c, 4, 55, 0
5, 36672, Note_on_c, 4, 59, 107
5, 36816, Note_on_c, 4, 59, 0
5, 36816, Note_on_c, 4, 62, 107
5, 36864, Note_on_c, 4, 62, 0
5, 36864, Note_on_c, 4, 60, 107
5, 37056, Note_on_c, 4, 60, 0
5, 37056, Note_on_c, 4, 64, 107
5, 37200, Note_on_c, 4, 64, 0
5, 37200, Note_on_c, 4, 67, 107
5, 37248, Note_on_c, 4, 67, 0
5, 37248, Note_on_c, 4, 55, 107
5, 37440, Note_on_c, 4, 55, 0
5, 37440, Note_on_c, 4, 59, 107
5, 37584, Note_on_c, 4, 59, 0
5, 37584, Note_on_c, 4, 62, 107
5, 37632, Note_on_c, 4, 62, 0
5, 37632, Note_on_c, 4, 60, 107
5, 37824, Note_on_c, 4, 60, 0
5, 37824, Note_on_c, 4, 64, 107
5, 37968, Note_on_c, 4, 64, 0
5, 37968, Note_on_c, 4, 67, 107
5, 38016, Note_on_c, 4, 67, 0
5, 38016, Note_on_c, 4, 55, 107
5, 38208, Note_on_c, 4, 55, 0
5, 38208, Note_on_c, 4, 59, 107
5, 38352, Note_on_c, 4, 59, 0
5, 38352, Note_on_c, 4, 62, 107
5, 38400, Note_on_c, 4, 62, 0
5, 38400, Note_on_c, 4, 60, 107
5, 38544, Note_on_c, 4, 60, 0
5, 38544, Note_on_c, 4, 64, 107
5, 38592, Note_on_c, 4, 64, 0
5, 38592, Note_on_c, 4, 67, 107
5, 38736, Note_on_c, 4, 67, 0
5, 38736, Note_on_c, 4, 69, 107
5, 38784, Note_on_c, 4, 69, 0
5, 38784, Note_on_c, 4, 70, 107
5, 38928, Note_on_c, 4, 70, 0
5, 38928, Note_on_c, 4, 72, 107
5, 38976, Note_on_c, 4, 72, 0
5, 38976, Note_on_c, 4, 74, 107
5, 39120, Note_on_c, 4, 74, 0
5, 43776, Note_on_c, 4, 72, 107
5, 43776, Note_on_c, 4, 68, 107
5, 43960, Note_on_c, 4, 68, 0
5, 43960, Note_on_c, 4, 72, 0
5, 43968, Note_on_c, 4, 68, 107
5, 43968, Note_on_c, 4, 65, 107
5, 44152, Note_on_c, 4, 65, 0
5, 44152, Note_on_c, 4, 68, 0
5, 44160, Note_on_c, 4, 65, 107
5, 44160, Note_on_c, 4, 60, 107
5, 44344, Note_on_c, 4, 60, 0
5, 44344, Note_on_c, 4, 65, 0
5, 44352, Note_on_c, 4, 63, 107
5, 44352, Note_on_c, 4, 56, 107
5, 44496, Note_on_c, 4, 53, 107
5, 44496, Note_on_c, 4, 62, 107
5, 44536, Note_on_c, 4, 56, 0
5, 44536, Note_on_c, 4, 63, 0
5, 45128, Note_on_c, 4, 53, 0
5, 45128, Note_on_c, 4, 62, 0
5, 45128, End_track
6, 0, Start_track
6, 0, MIDI_port, 0
6, 0, Title_t, "Guitar (2)      "
6, 0, Program_c, 5, 30
6, 0, Control_c, 5, 7, 111
6, 0, Control_c, 5, 10, 93
6, 0, Control_c, 5, 91, 127
6, 6912, Note_on_c, 5, 72, 127
6, 6912, Note_on_c, 5, 68, 127
6, 7096, Note_on_c, 5, 68, 0
6, 7096, Note_on_c, 5, 72, 0
6, 7104, Note_on_c, 5, 68, 127
6, 7104, Note_on_c, 5, 65, 127
6, 7288, Note_on_c, 5, 65, 0
6, 7288, Note_on_c, 5, 68, 0
6, 7296, Note_on_c, 5, 65, 127
6, 7296, Note_on_c, 5, 60, 127
6, 7480, Note_on_c, 5, 60, 0
6, 7480, Note_on_c, 5, 65, 0
6, 7488, Note_on_c, 5, 63, 127
6, 7488, Note_on_c, 5, 56, 127
6, 7672, Note_on_c, 5, 56, 0
6, 7672, Note_on_c, 5, 63, 0
6, 7680, Note_on_c, 5, 62, 127
6, 7680, Note_on_c, 5, 53, 127
6, 8264, Note_on_c, 5, 53, 0
6, 8264, Note_on_c, 5, 62, 0
6, 13056, Note_on_c, 5, 72, 127
6, 13056, Note_on_c, 5, 68, 127
6, 13240, Note_on_c, 5, 68, 0
6, 13240, Note_on_c, 5, 72, 0
6, 13248, Note_on_c, 5, 68, 127
6, 13248, Note_on_c, 5, 65, 127
6, 13432, Note_on_c, 5, 65, 0
6, 13432, Note_on_c, 5, 68, 0
6, 13440, Note_on_c, 5, 65, 127
6, 13440, Note_on_c, 5, 60, 127
6, 13624, Note_on_c, 5, 60, 0
6, 13624, Note_on_c, 5, 65, 0
6, 13632, Note_on_c, 5, 63, 127
6, 13632, Note_on_c, 5, 56, 127
6, 13816, Note_on_c, 5, 56, 0
6, 13816, Note_on_c, 5, 63, 0
6, 13824, Note_on_c, 5, 62, 127
6, 13824, Note_on_c, 5, 53, 127
6, 14408, Note_on_c, 5, 53, 0
6, 14408, Note_on_c, 5, 62, 0
6, 14408, End_track
7, 0, Start_track
7, 0, MIDI_port, 0
7, 0, Title_t, "Guitar (3)      "
7, 0, Program_c, 6, 30
7, 0, Control_c, 6, 7, 111
7, 0, Control_c, 6, 10, 42
7, 0, Control_c, 6, 91, 116
7, 20736, Note_on_c, 6, 72, 127
7, 21136, Note_on_c, 6, 72, 0
7, 39168, Note_on_c, 6, 72, 127
7, 39568, Note_on_c, 6, 72, 0
7, 39568, End_track
8, 0, Start_track
8, 0, MIDI_port, 0
8, 0, Title_t, "Whistle         "
8, 0, Program_c, 7, 78
8, 0, Control_c, 7, 7, 90
8, 0, Control_c, 7, 10, 64
8, 0, Control_c, 7, 91, 127
8, 33024, Note_on_c, 7, 81, 97
8, 33352, Note_on_c, 7, 81, 0
8, 33408, Note_on_c, 7, 79, 97
8, 33728, Note_on_c, 7, 79, 0
8, 33792, Note_on_c, 7, 81, 97
8, 34128, Note_on_c, 7, 81, 0
8, 34184, Note_on_c, 7, 79, 97
8, 34520, Note_on_c, 7, 79, 0
8, 34552, Note_on_c, 7, 81, 97
8, 34912, Note_on_c, 7, 81, 0
8, 34944, Note_on_c, 7, 79, 97
8, 35304, Note_on_c, 7, 79, 0
8, 35344, Note_on_c, 7, 81, 97
8, 35928, Note_on_c, 7, 81, 0
8, 35928, End_track
9, 0, Start_track
9, 0, MIDI_port, 0
9, 0, Title_t, "Harpsichord     "
9, 0, Program_c, 8, 7
9, 0, Control_c, 8, 7, 127
9, 0, Control_c, 8, 10, 72
9, 0, Control_c, 8, 91, 105
9, 368, Note_on_c, 8, 57, 103
9, 376, Note_on_c, 8, 60, 103
9, 384, Note_on_c, 8, 53, 103
9, 672, Note_on_c, 8, 53, 0
9, 672, Note_on_c, 8, 60, 0
9, 672, Note_on_c, 8, 57, 0
9, 768, Note_on_c, 8, 56, 103
9, 768, Note_on_c, 8, 52, 103
9, 768, Note_on_c, 8, 60, 103
9, 1056, Note_on_c, 8, 60, 0
9, 1056, Note_on_c, 8, 52, 0
9, 1056, Note_on_c, 8, 56, 0
9, 1152, Note_on_c, 8, 56, 103
9, 1152, Note_on_c, 8, 53, 103
9, 1152, Note_on_c, 8, 60, 103
9, 1392, Note_on_c, 8, 60, 0
9, 1392, Note_on_c, 8, 53, 0
9, 1392, Note_on_c, 8, 56, 0
9, 1536, Note_on_c, 8, 50, 103
9, 1536, Note_on_c, 8, 58, 103
9, 1536, Note_on_c, 8, 53, 103
9, 2288, Note_on_c, 8, 53, 0
9, 2288, Note_on_c, 8, 58, 0
9, 2288, Note_on_c, 8, 50, 0
9, 2288, End_track
10, 0, Start_track
10, 0, MIDI_port, 0
10, 0, Title_t, "Bass Drum       "
10, 0, Control_c, 9, 7, 127
10, 0, Control_c, 9, 10, 64
10, 0, Control_c, 9, 91, 64
10, 9984, Note_on_c, 9, 36, 127
10, 10136, Note_on_c, 9, 36, 0
10, 10752, Note_on_c, 9, 36, 127
10, 10832, Note_on_c, 9, 36, 0
10, 11520, Note_on_c, 9, 36, 127
10, 11632, Note_on_c, 9, 36, 0
10, 11904, Note_on_c, 9, 36, 127
10, 12016, Note_on_c, 9, 36, 0
10, 12288, Note_on_c, 9, 36, 127
10, 12360, Note_on_c, 9, 36, 0
10, 12672, Note_on_c, 9, 36, 127
10, 12744, Note_on_c, 9, 36, 0
10, 13056, Note_on_c, 9, 36, 127
10, 13128, Note_on_c, 9, 36, 0
10, 13440, Note_on_c, 9, 36, 127
10, 13520, Note_on_c, 9, 36, 0
10, 13824, Note_on_c, 9, 36, 127
10, 13880, Note_on_c, 9, 36, 0
10, 14592, Note_on_c, 9, 36, 127
10, 14632, Note_on_c, 9, 36, 0
10, 14784, Note_on_c, 9, 36, 127
10, 14816, Note_on_c, 9, 36, 0
10, 14976, Note_on_c, 9, 36, 127
10, 15008, Note_on_c, 9, 36, 0
10, 15168, Note_on_c, 9, 36, 127
10, 15192, Note_on_c, 9, 36, 0
10, 15360, Note_on_c, 9, 36, 127
10, 15400, Note_on_c, 9, 36, 0
10, 15552, Note_on_c, 9, 36, 127
10, 15600, Note_on_c, 9, 36, 0
10, 15744, Note_on_c, 9, 36, 127
10, 15808, Note_on_c, 9, 36, 0
10, 15936, Note_on_c, 9, 36, 127
10, 15984, Note_on_c, 9, 36, 0
10, 16128, Note_on_c, 9, 36, 127
10, 16176, Note_on_c, 9, 36, 0
10, 16320, Note_on_c, 9, 36, 127
10, 16368, Note_on_c, 9, 36, 0
10, 16512, Note_on_c, 9, 36, 127
10, 16576, Note_on_c, 9, 36, 0
10, 16704, Note_on_c, 9, 36, 127
10, 16792, Note_on_c, 9, 36, 0
10, 16896, Note_on_c, 9, 36, 127
10, 16984, Note_on_c, 9, 36, 0
10, 17088, Note_on_c, 9, 36, 127
10, 17168, Note_on_c, 9, 36, 0
10, 17280, Note_on_c, 9, 36, 127
10, 17360, Note_on_c, 9, 36, 0
10, 17472, Note_on_c, 9, 36, 127
10, 17552, Note_on_c, 9, 36, 0
10, 17664, Note_on_c, 9, 36, 127
10, 17736, Note_on_c, 9, 36, 0
10, 17856, Note_on_c, 9, 36, 127
10, 17928, Note_on_c, 9, 36, 0
10, 18048, Note_on_c, 9, 36, 127
10, 18128, Note_on_c, 9, 36, 0
10, 18240, Note_on_c, 9, 36, 127
10, 18320, Note_on_c, 9, 36, 0
10, 18432, Note_on_c, 9, 36, 127
10, 18504, Note_on_c, 9, 36, 0
10, 18624, Note_on_c, 9, 36, 127
10, 18704, Note_on_c, 9, 36, 0
10, 18816, Note_on_c, 9, 36, 127
10, 18896, Note_on_c, 9, 36, 0
10, 19008, Note_on_c, 9, 36, 127
10, 19096, Note_on_c, 9, 36, 0
10, 19200, Note_on_c, 9, 36, 127
10, 19296, Note_on_c, 9, 36, 0
10, 19392, Note_on_c, 9, 36, 127
10, 19488, Note_on_c, 9, 36, 0
10, 19584, Note_on_c, 9, 36, 127
10, 19680, Note_on_c, 9, 36, 0
10, 19776, Note_on_c, 9, 36, 127
10, 19864, Note_on_c, 9, 36, 0
10, 19968, Note_on_c, 9, 36, 127
10, 20056, Note_on_c, 9, 36, 0
10, 20160, Note_on_c, 9, 36, 127
10, 20240, Note_on_c, 9, 36, 0
10, 20352, Note_on_c, 9, 36, 127
10, 20424, Note_on_c, 9, 36, 0
10, 20544, Note_on_c, 9, 36, 127
10, 20600, Note_on_c, 9, 36, 0
10, 22272, Note_on_c, 9, 36, 127
10, 22464, Note_on_c, 9, 36, 0
10, 23040, Note_on_c, 9, 36, 127
10, 23248, Note_on_c, 9, 36, 0
10, 23552, Note_on_c, 9, 36, 127
10, 23624, Note_on_c, 9, 36, 0
10, 23808, Note_on_c, 9, 36, 127
10, 23952, Note_on_c, 9, 36, 0
10, 24192, Note_on_c, 9, 36, 127
10, 24424, Note_on_c, 9, 36, 0
10, 24576, Note_on_c, 9, 36, 127
10, 24824, Note_on_c, 9, 36, 0
10, 24960, Note_on_c, 9, 36, 127
10, 25016, Note_on_c, 9, 36, 0
10, 25088, Note_on_c, 9, 36, 127
10, 25168, Note_on_c, 9, 36, 0
10, 25344, Note_on_c, 9, 36, 127
10, 25576, Note_on_c, 9, 36, 0
10, 25728, Note_on_c, 9, 36, 127
10, 25976, Note_on_c, 9, 36, 0
10, 26112, Note_on_c, 9, 36, 127
10, 26216, Note_on_c, 9, 36, 0
10, 26304, Note_on_c, 9, 36, 127
10, 26424, Note_on_c, 9, 36, 0
10, 26496, Note_on_c, 9, 36, 127
10, 26600, Note_on_c, 9, 36, 0
10, 26688, Note_on_c, 9, 36, 127
10, 26744, Note_on_c, 9, 36, 0
10, 26880, Note_on_c, 9, 36, 127
10, 26968, Note_on_c, 9, 36, 0
10, 27072, Note_on_c, 9, 36, 127
10, 27128, Note_on_c, 9, 36, 0
10, 27200, Note_on_c, 9, 36, 127
10, 27288, Note_on_c, 9, 36, 0
10, 27392, Note_on_c, 9, 36, 127
10, 27416, Note_on_c, 9, 36, 0
10, 27456, Note_on_c, 9, 36, 127
10, 27504, Note_on_c, 9, 36, 0
10, 27648, Note_on_c, 9, 36, 127
10, 27712, Note_on_c, 9, 36, 0
10, 27840, Note_on_c, 9, 36, 127
10, 27888, Note_on_c, 9, 36, 0
10, 27968, Note_on_c, 9, 36, 127
10, 28072, Note_on_c, 9, 36, 0
10, 28160, Note_on_c, 9, 36, 127
10, 28184, Note_on_c, 9, 36, 0
10, 28224, Note_on_c, 9, 36, 127
10, 28336, Note_on_c, 9, 36, 0
10, 28416, Note_on_c, 9, 36, 127
10, 28520, Note_on_c, 9, 36, 0
10, 28608, Note_on_c, 9, 36, 127
10, 28672, Note_on_c, 9, 36, 0
10, 28736, Note_on_c, 9, 36, 127
10, 28848, Note_on_c, 9, 36, 0
10, 28928, Note_on_c, 9, 36, 127
10, 28960, Note_on_c, 9, 36, 0
10, 28992, Note_on_c, 9, 36, 127
10, 29104, Note_on_c, 9, 36, 0
10, 29184, Note_on_c, 9, 36, 127
10, 29280, Note_on_c, 9, 36, 0
10, 29376, Note_on_c, 9, 36, 127
10, 29432, Note_on_c, 9, 36, 0
10, 29504, Note_on_c, 9, 36, 127
10, 29600, Note_on_c, 9, 36, 0
10, 29696, Note_on_c, 9, 36, 127
10, 29728, Note_on_c, 9, 36, 0
10, 29760, Note_on_c, 9, 36, 127
10, 29864, Note_on_c, 9, 36, 0
10, 29952, Note_on_c, 9, 36, 127
10, 30040, Note_on_c, 9, 36, 0
10, 30144, Note_on_c, 9, 36, 127
10, 30184, Note_on_c, 9, 36, 0
10, 30272, Note_on_c, 9, 36, 127
10, 30368, Note_on_c, 9, 36, 0
10, 30464, Note_on_c, 9, 36, 127
10, 30488, Note_on_c, 9, 36, 0
10, 30528, Note_on_c, 9, 36, 127
10, 30664, Note_on_c, 9, 36, 0
10, 30720, Note_on_c, 9, 36, 127
10, 30808, Note_on_c, 9, 36, 0
10, 30912, Note_on_c, 9, 36, 127
10, 30952, Note_on_c, 9, 36, 0
10, 31040, Note_on_c, 9, 36, 127
10, 31104, Note_on_c, 9, 36, 0
10, 31232, Note_on_c, 9, 36, 127
10, 31248, Note_on_c, 9, 36, 0
10, 31296, Note_on_c, 9, 36, 127
10, 31392, Note_on_c, 9, 36, 0
10, 31488, Note_on_c, 9, 36, 127
10, 31568, Note_on_c, 9, 36, 0
10, 31680, Note_on_c, 9, 36, 127
10, 31720, Note_on_c, 9, 36, 0
10, 31808, Note_on_c, 9, 36, 127
10, 31896, Note_on_c, 9, 36, 0
10, 32000, Note_on_c, 9, 36, 127
10, 32016, Note_on_c, 9, 36, 0
10, 32064, Note_on_c, 9, 36, 127
10, 32120, Note_on_c, 9, 36, 0
10, 32192, Note_on_c, 9, 36, 127
10, 32216, Note_on_c, 9, 36, 0
10, 32256, Note_on_c, 9, 36, 127
10, 32328, Note_on_c, 9, 36, 0
10, 32448, Note_on_c, 9, 36, 127
10, 32496, Note_on_c, 9, 36, 0
10, 33024, Note_on_c, 9, 36, 127
10, 33064, Note_on_c, 9, 36, 0
10, 33216, Note_on_c, 9, 36, 127
10, 33248, Note_on_c, 9, 36, 0
10, 33408, Note_on_c, 9, 36, 127
10, 33440, Note_on_c, 9, 36, 0
10, 33600, Note_on_c, 9, 36, 127
10, 33624, Note_on_c, 9, 36, 0
10, 33792, Note_on_c, 9, 36, 127
10, 33832, Note_on_c, 9, 36, 0
10, 33984, Note_on_c, 9, 36, 127
10, 34032, Note_on_c, 9, 36, 0
10, 34176, Note_on_c, 9, 36, 127
10, 34240, Note_on_c, 9, 36, 0
10, 34368, Note_on_c, 9, 36, 127
10, 34416, Note_on_c, 9, 36, 0
10, 34560, Note_on_c, 9, 36, 127
10, 34608, Note_on_c, 9, 36, 0
10, 34752, Note_on_c, 9, 36, 127
10, 34800, Note_on_c, 9, 36, 0
10, 34944, Note_on_c, 9, 36, 127
10, 35008, Note_on_c, 9, 36, 0
10, 35136, Note_on_c, 9, 36, 127
10, 35224, Note_on_c, 9, 36, 0
10, 35328, Note_on_c, 9, 36, 127
10, 35416, Note_on_c, 9, 36, 0
10, 35520, Note_on_c, 9, 36, 127
10, 35600, Note_on_c, 9, 36, 0
10, 35712, Note_on_c, 9, 36, 127
10, 35792, Note_on_c, 9, 36, 0
10, 35904, Note_on_c, 9, 36, 127
10, 35984, Note_on_c, 9, 36, 0
10, 36096, Note_on_c, 9, 36, 127
10, 36168, Note_on_c, 9, 36, 0
10, 36288, Note_on_c, 9, 36, 127
10, 36360, Note_on_c, 9, 36, 0
10, 36480, Note_on_c, 9, 36, 127
10, 36560, Note_on_c, 9, 36, 0
10, 36672, Note_on_c, 9, 36, 127
10, 36752, Note_on_c, 9, 36, 0
10, 36864, Note_on_c, 9, 36, 127
10, 36936, Note_on_c, 9, 36, 0
10, 37056, Note_on_c, 9, 36, 127
10, 37136, Note_on_c, 9, 36, 0
10, 37248, Note_on_c, 9, 36, 127
10, 37328, Note_on_c, 9, 36, 0
10, 37440, Note_on_c, 9, 36, 127
10, 37528, Note_on_c, 9, 36, 0
10, 37632, Note_on_c, 9, 36, 127
10, 37728, Note_on_c, 9, 36, 0
10, 37824, Note_on_c, 9, 36, 127
10, 37920, Note_on_c, 9, 36, 0
10, 38016, Note_on_c, 9, 36, 127
10, 38112, Note_on_c, 9, 36, 0
10, 38208, Note_on_c, 9, 36, 127
10, 38296, Note_on_c, 9, 36, 0
10, 38400, Note_on_c, 9, 36, 127
10, 38488, Note_on_c, 9, 36, 0
10, 38592, Note_on_c, 9, 36, 127
10, 38672, Note_on_c, 9, 36, 0
10, 38784, Note_on_c, 9, 36, 127
10, 38856, Note_on_c, 9, 36, 0
10, 38976, Note_on_c, 9, 36, 127
10, 39032, Note_on_c, 9, 36, 0
10, 40704, Note_on_c, 9, 36, 127
10, 40896, Note_on_c, 9, 36, 0
10, 41472, Note_on_c, 9, 36, 127
10, 41680, Note_on_c, 9, 36, 0
10, 41984, Note_on_c, 9, 36, 127
10, 42056, Note_on_c, 9, 36, 0
10, 42240, Note_on_c, 9, 36, 127
10, 42384, Note_on_c, 9, 36, 0
10, 42624, Note_on_c, 9, 36, 127
10, 42856, Note_on_c, 9, 36, 0
10, 43008, Note_on_c, 9, 36, 127
10, 43256, Note_on_c, 9, 36, 0
10, 43392, Note_on_c, 9, 36, 127
10, 43448, Note_on_c, 9, 36, 0
10, 43520, Note_on_c, 9, 36, 127
10, 43600, Note_on_c, 9, 36, 0
10, 43776, Note_on_c, 9, 36, 127
10, 44008, Note_on_c, 9, 36, 0
10, 44160, Note_on_c, 9, 36, 127
10, 44408, Note_on_c, 9, 36, 0
10, 44544, Note_on_c, 9, 36, 127
10, 44648, Note_on_c, 9, 36, 0
10, 44736, Note_on_c, 9, 36, 127
10, 44856, Note_on_c, 9, 36, 0
10, 44928, Note_on_c, 9, 36, 127
10, 45032, Note_on_c, 9, 36, 0
10, 45120, Note_on_c, 9, 36, 127
10, 45176, Note_on_c, 9, 36, 0
10, 45312, Note_on_c, 9, 36, 127
10, 45424, Note_on_c, 9, 36, 0
10, 45504, Note_on_c, 9, 36, 127
10, 45568, Note_on_c, 9, 36, 0
10, 45632, Note_on_c, 9, 36, 127
10, 45736, Note_on_c, 9, 36, 0
10, 45824, Note_on_c, 9, 36, 127
10, 45904, Note_on_c, 9, 36, 0
10, 46016, Note_on_c, 9, 36, 127
10, 46056, Note_on_c, 9, 36, 0
10, 46080, Note_on_c, 9, 36, 127
10, 46200, Note_on_c, 9, 36, 0
10, 46272, Note_on_c, 9, 36, 127
10, 46352, Note_on_c, 9, 36, 0
10, 46400, Note_on_c, 9, 36, 127
10, 46512, Note_on_c, 9, 36, 0
10, 46592, Note_on_c, 9, 36, 127
10, 46632, Note_on_c, 9, 36, 0
10, 46656, Note_on_c, 9, 36, 127
10, 46720, Note_on_c, 9, 36, 0
10, 46784, Note_on_c, 9, 36, 127
10, 46824, Note_on_c, 9, 36, 0
10, 46848, Note_on_c, 9, 36, 127
10, 47008, Note_on_c, 9, 36, 0
10, 47040, Note_on_c, 9, 36, 127
10, 47104, Note_on_c, 9, 36, 0
10, 47168, Note_on_c, 9, 36, 127
10, 47264, Note_on_c, 9, 36, 0
10, 47360, Note_on_c, 9, 36, 127
10, 47392, Note_on_c, 9, 36, 0
10, 47424, Note_on_c, 9, 36, 127
10, 47528, Note_on_c, 9, 36, 0
10, 47616, Note_on_c, 9, 36, 127
10, 47720, Note_on_c, 9, 36, 0
10, 47808, Note_on_c, 9, 36, 127
10, 47856, Note_on_c, 9, 36, 0
10, 47936, Note_on_c, 9, 36, 127
10, 48032, Note_on_c, 9, 36, 0
10, 48128, Note_on_c, 9, 36, 127
10, 48152, Note_on_c, 9, 36, 0
10, 48192, Note_on_c, 9, 36, 127
10, 48312, Note_on_c, 9, 36, 0
10, 48384, Note_on_c, 9, 36, 127
10, 48480, Note_on_c, 9, 36, 0
10, 48576, Note_on_c, 9, 36, 127
10, 48608, Note_on_c, 9, 36, 0
10, 48704, Note_on_c, 9, 36, 127
10, 48808, Note_on_c, 9, 36, 0
10, 48896, Note_on_c, 9, 36, 127
10, 48976, Note_on_c, 9, 36, 0
10, 49088, Note_on_c, 9, 36, 127
10, 49120, Note_on_c, 9, 36, 0
10, 49152, Note_on_c, 9, 36, 127
10, 49376, Note_on_c, 9, 36, 0
10, 49472, Note_on_c, 9, 36, 127
10, 49576, Note_on_c, 9, 36, 0
10, 49664, Note_on_c, 9, 36, 127
10, 49752, Note_on_c, 9, 36, 0
10, 49856, Note_on_c, 9, 36, 127
10, 49896, Note_on_c, 9, 36, 0
10, 49920, Note_on_c, 9, 36, 127
10, 50016, Note_on_c, 9, 36, 0
10, 50112, Note_on_c, 9, 36, 127
10, 50160, Note_on_c, 9, 36, 0
10, 50240, Note_on_c, 9, 36, 127
10, 50336, Note_on_c, 9, 36, 0
10, 50432, Note_on_c, 9, 36, 127
10, 50464, Note_on_c, 9, 36, 0
10, 50496, Note_on_c, 9, 36, 127
10, 50584, Note_on_c, 9, 36, 0
10, 50688, Note_on_c, 9, 36, 127
10, 50800, Note_on_c, 9, 36, 0
10, 50880, Note_on_c, 9, 36, 127
10, 50936, Note_on_c, 9, 36, 0
10, 51008, Note_on_c, 9, 36, 127
10, 51088, Note_on_c, 9, 36, 0
10, 51200, Note_on_c, 9, 36, 127
10, 51232, Note_on_c, 9, 36, 0
10, 51456, Note_on_c, 9, 36, 127
10, 51552, Note_on_c, 9, 36, 0
10, 51552, End_track
11, 0, Start_track
11, 0, MIDI_port, 0
11, 0, Title_t, "Snare Drum      "
11, 0, Control_c, 9, 7, 127
11, 0, Control_c, 9, 10, 64
11, 0, Control_c, 9, 91, 64
11, 10688, Note_on_c, 9, 40, 127
11, 10752, Note_on_c, 9, 40, 0
11, 11328, Note_on_c, 9, 40, 127
11, 11368, Note_on_c, 9, 40, 0
11, 11456, Note_on_c, 9, 40, 127
11, 11536, Note_on_c, 9, 40, 0
11, 11712, Note_on_c, 9, 40, 127
11, 11960, Note_on_c, 9, 40, 0
11, 12096, Note_on_c, 9, 40, 127
11, 12288, Note_on_c, 9, 40, 0
11, 12480, Note_on_c, 9, 40, 127
11, 12712, Note_on_c, 9, 40, 0
11, 12864, Note_on_c, 9, 40, 127
11, 13088, Note_on_c, 9, 40, 0
11, 13248, Note_on_c, 9, 40, 127
11, 13496, Note_on_c, 9, 40, 0
11, 13632, Note_on_c, 9, 40, 127
11, 13872, Note_on_c, 9, 40, 0
11, 14784, Note_on_c, 9, 40, 127
11, 14880, Note_on_c, 9, 40, 0
11, 14912, Note_on_c, 9, 40, 127
11, 14992, Note_on_c, 9, 40, 0
11, 15168, Note_on_c, 9, 40, 127
11, 15256, Note_on_c, 9, 40, 0
11, 15552, Note_on_c, 9, 40, 127
11, 15616, Note_on_c, 9, 40, 0
11, 15680, Note_on_c, 9, 40, 127
11, 15744, Note_on_c, 9, 40, 0
11, 15936, Note_on_c, 9, 40, 127
11, 16168, Note_on_c, 9, 40, 0
11, 16320, Note_on_c, 9, 40, 127
11, 16360, Note_on_c, 9, 40, 0
11, 16448, Note_on_c, 9, 40, 127
11, 16576, Note_on_c, 9, 40, 0
11, 16704, Note_on_c, 9, 40, 127
11, 16960, Note_on_c, 9, 40, 0
11, 17088, Note_on_c, 9, 40, 127
11, 17208, Note_on_c, 9, 40, 0
11, 17280, Note_on_c, 9, 40, 127
11, 17376, Note_on_c, 9, 40, 0
11, 17472, Note_on_c, 9, 40, 127
11, 17584, Note_on_c, 9, 40, 0
11, 17856, Note_on_c, 9, 40, 127
11, 17920, Note_on_c, 9, 40, 0
11, 17984, Note_on_c, 9, 40, 127
11, 18136, Note_on_c, 9, 40, 0
11, 18240, Note_on_c, 9, 40, 127
11, 18512, Note_on_c, 9, 40, 0
11, 18624, Note_on_c, 9, 40, 127
11, 18688, Note_on_c, 9, 40, 0
11, 18752, Note_on_c, 9, 40, 127
11, 18912, Note_on_c, 9, 40, 0
11, 19008, Note_on_c, 9, 40, 127
11, 19288, Note_on_c, 9, 40, 0
11, 19392, Note_on_c, 9, 40, 127
11, 19448, Note_on_c, 9, 40, 0
11, 19520, Note_on_c, 9, 40, 127
11, 19696, Note_on_c, 9, 40, 0
11, 19776, Note_on_c, 9, 40, 127
11, 20064, Note_on_c, 9, 40, 0
11, 20160, Note_on_c, 9, 40, 127
11, 20216, Note_on_c, 9, 40, 0
11, 20288, Note_on_c, 9, 40, 127
11, 20376, Note_on_c, 9, 40, 0
11, 20416, Note_on_c, 9, 40, 127
11, 20480, Note_on_c, 9, 40, 0
11, 20544, Note_on_c, 9, 40, 127
11, 20600, Note_on_c, 9, 40, 0
11, 20672, Note_on_c, 9, 40, 127
11, 20704, Note_on_c, 9, 40, 0
11, 22208, Note_on_c, 9, 40, 127
11, 22272, Note_on_c, 9, 40, 0
11, 23744, Note_on_c, 9, 40, 127
11, 23832, Note_on_c, 9, 40, 0
11, 24000, Note_on_c, 9, 40, 127
11, 24216, Note_on_c, 9, 40, 0
11, 24384, Note_on_c, 9, 40, 127
11, 24632, Note_on_c, 9, 40, 0
11, 24768, Note_on_c, 9, 40, 127
11, 25008, Note_on_c, 9, 40, 0
11, 25152, Note_on_c, 9, 40, 127
11, 25400, Note_on_c, 9, 40, 0
11, 25536, Note_on_c, 9, 40, 127
11, 25784, Note_on_c, 9, 40, 0
11, 25920, Note_on_c, 9, 40, 127
11, 26152, Note_on_c, 9, 40, 0
11, 26240, Note_on_c, 9, 40, 127
11, 26288, Note_on_c, 9, 40, 0
11, 26304, Note_on_c, 9, 40, 127
11, 26360, Note_on_c, 9, 40, 0
11, 26432, Note_on_c, 9, 40, 127
11, 26520, Note_on_c, 9, 40, 0
11, 26624, Note_on_c, 9, 40, 127
11, 26656, Note_on_c, 9, 40, 0
11, 26688, Note_on_c, 9, 40, 127
11, 26712, Note_on_c, 9, 40, 0
11, 26752, Note_on_c, 9, 40, 127
11, 26776, Note_on_c, 9, 40, 0
11, 26816, Note_on_c, 9, 40, 127
11, 26832, Note_on_c, 9, 40, 0
11, 27072, Note_on_c, 9, 40, 127
11, 27200, Note_on_c, 9, 40, 0
11, 27456, Note_on_c, 9, 40, 127
11, 27576, Note_on_c, 9, 40, 0
11, 27840, Note_on_c, 9, 40, 127
11, 27960, Note_on_c, 9, 40, 0
11, 28224, Note_on_c, 9, 40, 127
11, 28320, Note_on_c, 9, 40, 0
11, 28608, Note_on_c, 9, 40, 127
11, 28704, Note_on_c, 9, 40, 0
11, 28992, Note_on_c, 9, 40, 127
11, 29088, Note_on_c, 9, 40, 0
11, 29376, Note_on_c, 9, 40, 127
11, 29472, Note_on_c, 9, 40, 0
11, 29760, Note_on_c, 9, 40, 127
11, 29824, Note_on_c, 9, 40, 0
11, 29888, Note_on_c, 9, 40, 127
11, 29992, Note_on_c, 9, 40, 0
11, 30144, Note_on_c, 9, 40, 127
11, 30248, Note_on_c, 9, 40, 0
11, 30528, Note_on_c, 9, 40, 127
11, 30624, Note_on_c, 9, 40, 0
11, 30912, Note_on_c, 9, 40, 127
11, 30992, Note_on_c, 9, 40, 0
11, 31296, Note_on_c, 9, 40, 127
11, 31384, Note_on_c, 9, 40, 0
11, 31680, Note_on_c, 9, 40, 127
11, 31776, Note_on_c, 9, 40, 0
11, 32064, Note_on_c, 9, 40, 127
11, 32168, Note_on_c, 9, 40, 0
11, 32256, Note_on_c, 9, 40, 127
11, 32360, Note_on_c, 9, 40, 0
11, 32448, Note_on_c, 9, 40, 127
11, 32584, Note_on_c, 9, 40, 0
11, 33216, Note_on_c, 9, 40, 127
11, 33312, Note_on_c, 9, 40, 0
11, 33344, Note_on_c, 9, 40, 127
11, 33424, Note_on_c, 9, 40, 0
11, 33600, Note_on_c, 9, 40, 127
11, 33688, Note_on_c, 9, 40, 0
11, 33984, Note_on_c, 9, 40, 127
11, 34048, Note_on_c, 9, 40, 0
11, 34112, Note_on_c, 9, 40, 127
11, 34176, Note_on_c, 9, 40, 0
11, 34368, Note_on_c, 9, 40, 127
11, 34600, Note_on_c, 9, 40, 0
11, 34752, Note_on_c, 9, 40, 127
11, 34792, Note_on_c, 9, 40, 0
11, 34880, Note_on_c, 9, 40, 127
11, 35008, Note_on_c, 9, 40, 0
11, 35136, Note_on_c, 9, 40, 127
11, 35392, Note_on_c, 9, 40, 0
11, 35520, Note_on_c, 9, 40, 127
11, 35640, Note_on_c, 9, 40, 0
11, 35712, Note_on_c, 9, 40, 127
11, 35808, Note_on_c, 9, 40, 0
11, 35904, Note_on_c, 9, 40, 127
11, 36016, Note_on_c, 9, 40, 0
11, 36288, Note_on_c, 9, 40, 127
11, 36352, Note_on_c, 9, 40, 0
11, 36416, Note_on_c, 9, 40, 127
11, 36568, Note_on_c, 9, 40, 0
11, 36672, Note_on_c, 9, 40, 127
11, 36944, Note_on_c, 9, 40, 0
11, 37056, Note_on_c, 9, 40, 127
11, 37120, Note_on_c, 9, 40, 0
11, 37184, Note_on_c, 9, 40, 127
11, 37344, Note_on_c, 9, 40, 0
11, 37440, Note_on_c, 9, 40, 127
11, 37720, Note_on_c, 9, 40, 0
11, 37824, Note_on_c, 9, 40, 127
11, 37880, Note_on_c, 9, 40, 0
11, 37952, Note_on_c, 9, 40, 127
11, 38128, Note_on_c, 9, 40, 0
11, 38208, Note_on_c, 9, 40, 127
11, 38496, Note_on_c, 9, 40, 0
11, 38592, Note_on_c, 9, 40, 127
11, 38648, Note_on_c, 9, 40, 0
11, 38720, Note_on_c, 9, 40, 127
11, 38808, Note_on_c, 9, 40, 0
11, 38848, Note_on_c, 9, 40, 127
11, 38912, Note_on_c, 9, 40, 0
11, 38976, Note_on_c, 9, 40, 127
11, 39032, Note_on_c, 9, 40, 0
11, 39104, Note_on_c, 9, 40, 127
11, 39136, Note_on_c, 9, 40, 0
11, 40640, Note_on_c, 9, 40, 127
11, 40704, Note_on_c, 9, 40, 0
11, 42176, Note_on_c, 9, 40, 127
11, 42264, Note_on_c, 9, 40, 0
11, 42432, Note_on_c, 9, 40, 127
11, 42648, Note_on_c, 9, 40, 0
11, 42816, Note_on_c, 9, 40, 127
11, 43064, Note_on_c, 9, 40, 0
11, 43200, Note_on_c, 9, 40, 127
11, 43440, Note_on_c, 9, 40, 0
11, 43584, Note_on_c, 9, 40, 127
11, 43832, Note_on_c, 9, 40, 0
11, 43968, Note_on_c, 9, 40, 127
11, 44216, Note_on_c, 9, 40, 0
11, 44352, Note_on_c, 9, 40, 127
11, 44584, Note_on_c, 9, 40, 0
11, 44736, Note_on_c, 9, 40, 127
11, 44792, Note_on_c, 9, 40, 0
11, 45120, Note_on_c, 9, 40, 127
11, 45144, Note_on_c, 9, 40, 0
11, 45504, Note_on_c, 9, 40, 127
11, 45608, Note_on_c, 9, 40, 0
11, 45888, Note_on_c, 9, 40, 127
11, 45984, Note_on_c, 9, 40, 0
11, 46272, Note_on_c, 9, 40, 127
11, 46368, Note_on_c, 9, 40, 0
11, 46656, Note_on_c, 9, 40, 127
11, 46712, Note_on_c, 9, 40, 0
11, 47040, Note_on_c, 9, 40, 127
11, 47112, Note_on_c, 9, 40, 0
11, 47424, Note_on_c, 9, 40, 127
11, 47480, Note_on_c, 9, 40, 0
11, 47808, Note_on_c, 9, 40, 127
11, 47864, Note_on_c, 9, 40, 0
11, 48192, Note_on_c, 9, 40, 127
11, 48256, Note_on_c, 9, 40, 0
11, 48576, Note_on_c, 9, 40, 127
11, 48672, Note_on_c, 9, 40, 0
11, 48960, Note_on_c, 9, 40, 127
11, 49072, Note_on_c, 9, 40, 0
11, 49344, Note_on_c, 9, 40, 127
11, 49456, Note_on_c, 9, 40, 0
11, 49728, Note_on_c, 9, 40, 127
11, 49816, Note_on_c, 9, 40, 0
11, 50112, Note_on_c, 9, 40, 127
11, 50208, Note_on_c, 9, 40, 0
11, 50496, Note_on_c, 9, 40, 127
11, 50576, Note_on_c, 9, 40, 0
11, 50880, Note_on_c, 9, 40, 127
11, 50968, Note_on_c, 9, 40, 0
11, 51264, Note_on_c, 9, 40, 127
11, 51360, Note_on_c, 9, 40, 0
11, 51360, End_track
12, 0, Start_track
12, 0, MIDI_port, 0
12, 0, Title_t, "Hihats          "
12, 0, Control_c, 9, 7, 127
12, 0, Control_c, 9, 10, 64
12, 0, Control_c, 9, 91, 64
12, 1536, Note_on_c, 9, 42, 127
12, 1576, Note_on_c, 9, 42, 0
12, 1664, Note_on_c, 9, 42, 70
12, 1696, Note_on_c, 9, 42, 0
12, 1728, Note_on_c, 9, 42, 127
12, 1776, Note_on_c, 9, 42, 0
12, 1856, Note_on_c, 9, 42, 70
12, 1888, Note_on_c, 9, 42, 0
12, 1920, Note_on_c, 9, 42, 127
12, 1960, Note_on_c, 9, 42, 0
12, 2048, Note_on_c, 9, 42, 70
12, 2072, Note_on_c, 9, 42, 0
12, 2112, Note_on_c, 9, 42, 127
12, 2136, Note_on_c, 9, 42, 0
12, 2240, Note_on_c, 9, 42, 70
12, 2248, Note_on_c, 9, 42, 0
12, 2304, Note_on_c, 9, 42, 127
12, 2408, Note_on_c, 9, 42, 0
12, 2496, Note_on_c, 9, 42, 127
12, 2600, Note_on_c, 9, 42, 0
12, 2688, Note_on_c, 9, 42, 127
12, 2776, Note_on_c, 9, 42, 0
12, 2880, Note_on_c, 9, 42, 127
12, 2952, Note_on_c, 9, 42, 0
12, 3072, Note_on_c, 9, 42, 127
12, 3144, Note_on_c, 9, 42, 0
12, 3264, Note_on_c, 9, 42, 127
12, 3320, Note_on_c, 9, 42, 0
12, 3456, Note_on_c, 9, 46, 127
12, 3496, Note_on_c, 9, 46, 0
12, 3584, Note_on_c, 9, 42, 127
12, 3608, Note_on_c, 9, 42, 0
12, 3648, Note_on_c, 9, 46, 127
12, 3688, Note_on_c, 9, 46, 0
12, 3840, Note_on_c, 9, 42, 127
12, 3872, Note_on_c, 9, 42, 0
12, 4032, Note_on_c, 9, 42, 127
12, 4064, Note_on_c, 9, 42, 0
12, 4224, Note_on_c, 9, 42, 127
12, 4264, Note_on_c, 9, 42, 0
12, 4416, Note_on_c, 9, 42, 127
12, 4464, Note_on_c, 9, 42, 0
12, 4544, Note_on_c, 9, 46, 127
12, 4568, Note_on_c, 9, 46, 0
12, 4800, Note_on_c, 9, 42, 127
12, 4808, Note_on_c, 9, 42, 0
12, 4992, Note_on_c, 9, 42, 127
12, 5032, Note_on_c, 9, 42, 0
12, 5184, Note_on_c, 9, 42, 127
12, 5224, Note_on_c, 9, 42, 0
12, 5376, Note_on_c, 9, 42, 127
12, 5416, Note_on_c, 9, 42, 0
12, 5568, Note_on_c, 9, 42, 127
12, 5624, Note_on_c, 9, 42, 0
12, 5760, Note_on_c, 9, 42, 127
12, 5808, Note_on_c, 9, 42, 0
12, 5952, Note_on_c, 9, 46, 127
12, 5992, Note_on_c, 9, 46, 0
12, 6144, Note_on_c, 9, 42, 127
12, 6184, Note_on_c, 9, 42, 0
12, 6336, Note_on_c, 9, 42, 127
12, 6376, Note_on_c, 9, 42, 0
12, 6528, Note_on_c, 9, 42, 127
12, 6560, Note_on_c, 9, 42, 0
12, 6656, Note_on_c, 9, 46, 127
12, 6688, Note_on_c, 9, 46, 0
12, 6912, Note_on_c, 9, 42, 127
12, 6944, Note_on_c, 9, 42, 0
12, 7104, Note_on_c, 9, 42, 127
12, 7144, Note_on_c, 9, 42, 0
12, 7296, Note_on_c, 9, 42, 127
12, 7328, Note_on_c, 9, 42, 0
12, 7488, Note_on_c, 9, 42, 127
12, 7520, Note_on_c, 9, 42, 0
12, 7680, Note_on_c, 9, 46, 127
12, 7712, Note_on_c, 9, 46, 0
12, 7872, Note_on_c, 9, 42, 127
12, 7904, Note_on_c, 9, 42, 0
12, 8064, Note_on_c, 9, 42, 127
12, 8096, Note_on_c, 9, 42, 0
12, 8256, Note_on_c, 9, 42, 127
12, 8288, Note_on_c, 9, 42, 0
12, 8384, Note_on_c, 9, 46, 127
12, 8408, Note_on_c, 9, 46, 0
12, 8448, Note_on_c, 9, 42, 127
12, 8472, Note_on_c, 9, 42, 0
12, 8640, Note_on_c, 9, 42, 127
12, 8664, Note_on_c, 9, 42, 0
12, 8832, Note_on_c, 9, 42, 127
12, 8864, Note_on_c, 9, 42, 0
12, 9024, Note_on_c, 9, 42, 127
12, 9064, Note_on_c, 9, 42, 0
12, 9216, Note_on_c, 9, 42, 127
12, 9248, Note_on_c, 9, 42, 0
12, 9408, Note_on_c, 9, 42, 127
12, 9456, Note_on_c, 9, 42, 0
12, 9600, Note_on_c, 9, 42, 127
12, 9640, Note_on_c, 9, 42, 0
12, 9792, Note_on_c, 9, 42, 127
12, 9832, Note_on_c, 9, 42, 0
12, 9984, Note_on_c, 9, 46, 127
12, 10072, Note_on_c, 9, 46, 0
12, 10176, Note_on_c, 9, 42, 127
12, 10224, Note_on_c, 9, 42, 0
12, 10368, Note_on_c, 9, 46, 127
12, 10416, Note_on_c, 9, 46, 0
12, 10560, Note_on_c, 9, 42, 127
12, 10608, Note_on_c, 9, 42, 0
12, 10752, Note_on_c, 9, 42, 127
12, 10800, Note_on_c, 9, 42, 0
12, 10944, Note_on_c, 9, 42, 127
12, 10984, Note_on_c, 9, 42, 0
12, 11072, Note_on_c, 9, 46, 127
12, 11112, Note_on_c, 9, 46, 0
12, 11264, Note_on_c, 9, 42, 127
12, 11296, Note_on_c, 9, 42, 0
12, 11328, Note_on_c, 9, 42, 127
12, 11368, Note_on_c, 9, 42, 0
12, 11456, Note_on_c, 9, 42, 127
12, 11480, Note_on_c, 9, 42, 0
12, 11520, Note_on_c, 9, 42, 127
12, 11560, Note_on_c, 9, 42, 0
12, 11712, Note_on_c, 9, 42, 127
12, 11736, Note_on_c, 9, 42, 0
12, 11904, Note_on_c, 9, 42, 127
12, 11936, Note_on_c, 9, 42, 0
12, 12096, Note_on_c, 9, 42, 127
12, 12128, Note_on_c, 9, 42, 0
12, 12224, Note_on_c, 9, 46, 127
12, 12328, Note_on_c, 9, 46, 0
12, 12480, Note_on_c, 9, 42, 127
12, 12520, Note_on_c, 9, 42, 0
12, 12672, Note_on_c, 9, 42, 127
12, 12696, Note_on_c, 9, 42, 0
12, 12864, Note_on_c, 9, 42, 127
12, 12888, Note_on_c, 9, 42, 0
12, 13056, Note_on_c, 9, 42, 127
12, 13080, Note_on_c, 9, 42, 0
12, 13248, Note_on_c, 9, 42, 127
12, 13272, Note_on_c, 9, 42, 0
12, 13440, Note_on_c, 9, 42, 127
12, 13472, Note_on_c, 9, 42, 0
12, 13632, Note_on_c, 9, 42, 127
12, 13704, Note_on_c, 9, 42, 0
12, 13824, Note_on_c, 9, 46, 127
12, 14048, Note_on_c, 9, 46, 0
12, 14592, Note_on_c, 9, 42, 127
12, 14640, Note_on_c, 9, 42, 0
12, 14784, Note_on_c, 9, 42, 127
12, 14824, Note_on_c, 9, 42, 0
12, 14976, Note_on_c, 9, 46, 127
12, 15048, Note_on_c, 9, 46, 0
12, 15168, Note_on_c, 9, 42, 127
12, 15200, Note_on_c, 9, 42, 0
12, 15296, Note_on_c, 9, 42, 127
12, 15296, Note_on_c, 9, 42, 127
12, 15304, Note_on_c, 9, 42, 0
12, 15312, Note_on_c, 9, 42, 0
12, 15360, Note_on_c, 9, 42, 127
12, 15400, Note_on_c, 9, 42, 0
12, 15552, Note_on_c, 9, 42, 127
12, 15592, Note_on_c, 9, 42, 0
12, 15680, Note_on_c, 9, 42, 127
12, 15720, Note_on_c, 9, 42, 0
12, 15744, Note_on_c, 9, 46, 127
12, 15792, Note_on_c, 9, 46, 0
12, 15936, Note_on_c, 9, 42, 127
12, 15968, Note_on_c, 9, 42, 0
12, 16064, Note_on_c, 9, 42, 127
12, 16080, Note_on_c, 9, 42, 0
12, 16128, Note_on_c, 9, 42, 127
12, 16160, Note_on_c, 9, 42, 0
12, 16320, Note_on_c, 9, 42, 127
12, 16336, Note_on_c, 9, 42, 0
12, 16448, Note_on_c, 9, 42, 127
12, 16472, Note_on_c, 9, 42, 0
12, 16512, Note_on_c, 9, 46, 127
12, 16552, Note_on_c, 9, 46, 0
12, 16704, Note_on_c, 9, 42, 127
12, 16744, Note_on_c, 9, 42, 0
12, 16832, Note_on_c, 9, 42, 127
12, 16848, Note_on_c, 9, 42, 0
12, 16896, Note_on_c, 9, 42, 127
12, 16936, Note_on_c, 9, 42, 0
12, 17088, Note_on_c, 9, 44, 127
12, 17120, Note_on_c, 9, 44, 0
12, 17280, Note_on_c, 9, 46, 127
12, 17312, Note_on_c, 9, 46, 0
12, 17472, Note_on_c, 9, 46, 127
12, 17504, Note_on_c, 9, 46, 0
12, 17664, Note_on_c, 9, 42, 127
12, 17704, Note_on_c, 9, 42, 0
12, 17856, Note_on_c, 9, 44, 127
12, 17888, Note_on_c, 9, 44, 0
12, 18048, Note_on_c, 9, 44, 127
12, 18080, Note_on_c, 9, 44, 0
12, 18240, Note_on_c, 9, 44, 127
12, 18280, Note_on_c, 9, 44, 0
12, 18432, Note_on_c, 9, 44, 127
12, 18464, Note_on_c, 9, 44, 0
12, 18624, Note_on_c, 9, 44, 127
12, 18648, Note_on_c, 9, 44, 0
12, 18752, Note_on_c, 9, 44, 127
12, 18760, Note_on_c, 9, 44, 0
12, 18816, Note_on_c, 9, 44, 127
12, 18856, Note_on_c, 9, 44, 0
12, 19008, Note_on_c, 9, 44, 127
12, 19056, Note_on_c, 9, 44, 0
12, 19136, Note_on_c, 9, 46, 127
12, 19144, Note_on_c, 9, 46, 0
12, 19200, Note_on_c, 9, 44, 127
12, 19280, Note_on_c, 9, 44, 0
12, 19392, Note_on_c, 9, 44, 127
12, 19440, Note_on_c, 9, 44, 0
12, 19584, Note_on_c, 9, 44, 127
12, 19624, Note_on_c, 9, 44, 0
12, 19776, Note_on_c, 9, 44, 127
12, 19816, Note_on_c, 9, 44, 0
12, 19968, Note_on_c, 9, 44, 127
12, 20000, Note_on_c, 9, 44, 0
12, 20160, Note_on_c, 9, 44, 127
12, 20200, Note_on_c, 9, 44, 0
12, 20288, Note_on_c, 9, 42, 127
12, 20312, Note_on_c, 9, 42, 0
12, 20352, Note_on_c, 9, 44, 127
12, 20392, Note_on_c, 9, 44, 0
12, 20416, Note_on_c, 9, 42, 127
12, 20440, Note_on_c, 9, 42, 0
12, 20480, Note_on_c, 9, 44, 127
12, 20504, Note_on_c, 9, 44, 0
12, 20544, Note_on_c, 9, 46, 127
12, 20592, Note_on_c, 9, 46, 0
12, 20736, Note_on_c, 9, 42, 127
12, 20840, Note_on_c, 9, 42, 0
12, 20928, Note_on_c, 9, 42, 127
12, 21032, Note_on_c, 9, 42, 0
12, 21120, Note_on_c, 9, 42, 127
12, 21216, Note_on_c, 9, 42, 0
12, 21312, Note_on_c, 9, 42, 127
12, 21376, Note_on_c, 9, 42, 0
12, 21504, Note_on_c, 9, 42, 127
12, 21608, Note_on_c, 9, 42, 0
12, 21696, Note_on_c, 9, 42, 127
12, 21792, Note_on_c, 9, 42, 0
12, 21888, Note_on_c, 9, 46, 127
12, 21992, Note_on_c, 9, 46, 0
12, 22080, Note_on_c, 9, 46, 127
12, 22136, Note_on_c, 9, 46, 0
12, 22272, Note_on_c, 9, 42, 127
12, 22328, Note_on_c, 9, 42, 0
12, 22464, Note_on_c, 9, 42, 127
12, 22520, Note_on_c, 9, 42, 0
12, 22656, Note_on_c, 9, 42, 127
12, 22712, Note_on_c, 9, 42, 0
12, 22848, Note_on_c, 9, 46, 127
12, 23000, Note_on_c, 9, 46, 0
12, 23040, Note_on_c, 9, 42, 127
12, 23096, Note_on_c, 9, 42, 0
12, 23232, Note_on_c, 9, 42, 127
12, 23280, Note_on_c, 9, 42, 0
12, 23424, Note_on_c, 9, 42, 127
12, 23472, Note_on_c, 9, 42, 0
12, 23616, Note_on_c, 9, 42, 127
12, 23656, Note_on_c, 9, 42, 0
12, 23744, Note_on_c, 9, 44, 127
12, 23760, Note_on_c, 9, 44, 0
12, 23808, Note_on_c, 9, 46, 127
12, 23832, Note_on_c, 9, 46, 0
12, 24000, Note_on_c, 9, 44, 127
12, 24032, Note_on_c, 9, 44, 0
12, 24192, Note_on_c, 9, 46, 127
12, 24224, Note_on_c, 9, 46, 0
12, 24384, Note_on_c, 9, 46, 127
12, 24424, Note_on_c, 9, 46, 0
12, 24576, Note_on_c, 9, 44, 127
12, 24616, Note_on_c, 9, 44, 0
12, 24768, Note_on_c, 9, 44, 127
12, 24816, Note_on_c, 9, 44, 0
12, 24960, Note_on_c, 9, 44, 127
12, 24992, Note_on_c, 9, 44, 0
12, 25152, Note_on_c, 9, 44, 127
12, 25192, Note_on_c, 9, 44, 0
12, 25344, Note_on_c, 9, 44, 127
12, 25384, Note_on_c, 9, 44, 0
12, 25536, Note_on_c, 9, 44, 127
12, 25576, Note_on_c, 9, 44, 0
12, 25728, Note_on_c, 9, 44, 127
12, 25760, Note_on_c, 9, 44, 0
12, 25920, Note_on_c, 9, 44, 127
12, 25960, Note_on_c, 9, 44, 0
12, 26112, Note_on_c, 9, 46, 127
12, 26168, Note_on_c, 9, 46, 0
12, 26304, Note_on_c, 9, 44, 127
12, 26336, Note_on_c, 9, 44, 0
12, 26432, Note_on_c, 9, 42, 127
12, 26448, Note_on_c, 9, 42, 0
12, 26496, Note_on_c, 9, 44, 127
12, 26512, Note_on_c, 9, 44, 0
12, 26560, Note_on_c, 9, 42, 127
12, 26568, Note_on_c, 9, 42, 0
12, 26624, Note_on_c, 9, 44, 127
12, 26640, Note_on_c, 9, 44, 0
12, 26688, Note_on_c, 9, 46, 127
12, 26712, Note_on_c, 9, 46, 0
12, 26880, Note_on_c, 9, 42, 127
12, 26992, Note_on_c, 9, 42, 0
12, 27072, Note_on_c, 9, 42, 127
12, 27184, Note_on_c, 9, 42, 0
12, 27264, Note_on_c, 9, 42, 127
12, 27368, Note_on_c, 9, 42, 0
12, 27456, Note_on_c, 9, 42, 127
12, 27560, Note_on_c, 9, 42, 0
12, 27648, Note_on_c, 9, 42, 127
12, 27760, Note_on_c, 9, 42, 0
12, 27840, Note_on_c, 9, 44, 127
12, 27840, Note_on_c, 9, 42, 127
12, 27856, Note_on_c, 9, 42, 0
12, 28008, Note_on_c, 9, 44, 0
12, 28032, Note_on_c, 9, 42, 127
12, 28184, Note_on_c, 9, 42, 0
12, 28224, Note_on_c, 9, 42, 127
12, 28352, Note_on_c, 9, 42, 0
12, 28416, Note_on_c, 9, 42, 127
12, 28568, Note_on_c, 9, 42, 0
12, 28608, Note_on_c, 9, 46, 127
12, 28720, Note_on_c, 9, 46, 0
12, 28800, Note_on_c, 9, 42, 127
12, 28888, Note_on_c, 9, 42, 0
12, 28992, Note_on_c, 9, 42, 127
12, 29088, Note_on_c, 9, 42, 0
12, 29184, Note_on_c, 9, 42, 127
12, 29272, Note_on_c, 9, 42, 0
12, 29376, Note_on_c, 9, 42, 127
12, 29472, Note_on_c, 9, 42, 0
12, 29568, Note_on_c, 9, 42, 127
12, 29656, Note_on_c, 9, 42, 0
12, 29760, Note_on_c, 9, 46, 127
12, 29856, Note_on_c, 9, 46, 0
12, 29952, Note_on_c, 9, 42, 127
12, 30008, Note_on_c, 9, 42, 0
12, 30144, Note_on_c, 9, 42, 127
12, 30240, Note_on_c, 9, 42, 0
12, 30336, Note_on_c, 9, 44, 127
12, 30336, Note_on_c, 9, 42, 127
12, 30352, Note_on_c, 9, 42, 0
12, 30440, Note_on_c, 9, 44, 0
12, 30528, Note_on_c, 9, 42, 127
12, 30632, Note_on_c, 9, 42, 0
12, 30720, Note_on_c, 9, 42, 127
12, 30824, Note_on_c, 9, 42, 0
12, 30912, Note_on_c, 9, 42, 127
12, 31032, Note_on_c, 9, 42, 0
12, 31104, Note_on_c, 9, 44, 127
12, 31240, Note_on_c, 9, 44, 0
12, 31296, Note_on_c, 9, 44, 127
12, 31448, Note_on_c, 9, 44, 0
12, 31488, Note_on_c, 9, 42, 127
12, 31616, Note_on_c, 9, 42, 0
12, 31680, Note_on_c, 9, 42, 127
12, 31768, Note_on_c, 9, 42, 0
12, 31872, Note_on_c, 9, 42, 127
12, 31952, Note_on_c, 9, 42, 0
12, 32064, Note_on_c, 9, 42, 127
12, 32152, Note_on_c, 9, 42, 0
12, 32256, Note_on_c, 9, 46, 127
12, 32320, Note_on_c, 9, 46, 0
12, 33024, Note_on_c, 9, 42, 127
12, 33072, Note_on_c, 9, 42, 0
12, 33216, Note_on_c, 9, 42, 127
12, 33256, Note_on_c, 9, 42, 0
12, 33408, Note_on_c, 9, 46, 127
12, 33480, Note_on_c, 9, 46, 0
12, 33600, Note_on_c, 9, 42, 127
12, 33632, Note_on_c, 9, 42, 0
12, 33728, Note_on_c, 9, 42, 127
12, 33728, Note_on_c, 9, 42, 127
12, 33736, Note_on_c, 9, 42, 0
12, 33744, Note_on_c, 9, 42, 0
12, 33792, Note_on_c, 9, 42, 127
12, 33832, Note_on_c, 9, 42, 0
12, 33984, Note_on_c, 9, 42, 127
12, 34024, Note_on_c, 9, 42, 0
12, 34112, Note_on_c, 9, 42, 127
12, 34152, Note_on_c, 9, 42, 0
12, 34176, Note_on_c, 9, 46, 127
12, 34224, Note_on_c, 9, 46, 0
12, 34368, Note_on_c, 9, 42, 127
12, 34400, Note_on_c, 9, 42, 0
12, 34496, Note_on_c, 9, 42, 127
12, 34512, Note_on_c, 9, 42, 0
12, 34560, Note_on_c, 9, 42, 127
12, 34592, Note_on_c, 9, 42, 0
12, 34752, Note_on_c, 9, 42, 127
12, 34768, Note_on_c, 9, 42, 0
12, 34880, Note_on_c, 9, 42, 127
12, 34904, Note_on_c, 9, 42, 0
12, 34944, Note_on_c, 9, 46, 127
12, 34984, Note_on_c, 9, 46, 0
12, 35136, Note_on_c, 9, 42, 127
12, 35176, Note_on_c, 9, 42, 0
12, 35264, Note_on_c, 9, 42, 127
12, 35280, Note_on_c, 9, 42, 0
12, 35328, Note_on_c, 9, 42, 127
12, 35368, Note_on_c, 9, 42, 0
12, 35520, Note_on_c, 9, 44, 127
12, 35552, Note_on_c, 9, 44, 0
12, 35712, Note_on_c, 9, 46, 127
12, 35744, Note_on_c, 9, 46, 0
12, 35904, Note_on_c, 9, 46, 127
12, 35936, Note_on_c, 9, 46, 0
12, 36096, Note_on_c, 9, 42, 127
12, 36136, Note_on_c, 9, 42, 0
12, 36288, Note_on_c, 9, 44, 127
12, 36320, Note_on_c, 9, 44, 0
12, 36480, Note_on_c, 9, 44, 127
12, 36512, Note_on_c, 9, 44, 0
12, 36672, Note_on_c, 9, 44, 127
12, 36712, Note_on_c, 9, 44, 0
12, 36864, Note_on_c, 9, 44, 127
12, 36896, Note_on_c, 9, 44, 0
12, 37056, Note_on_c, 9, 44, 127
12, 37080, Note_on_c, 9, 44, 0
12, 37184, Note_on_c, 9, 44, 127
12, 37192, Note_on_c, 9, 44, 0
12, 37248, Note_on_c, 9, 44, 127
12, 37288, Note_on_c, 9, 44, 0
12, 37440, Note_on_c, 9, 44, 127
12, 37488, Note_on_c, 9, 44, 0
12, 37568, Note_on_c, 9, 46, 127
12, 37576, Note_on_c, 9, 46, 0
12, 37632, Note_on_c, 9, 44, 127
12, 37712, Note_on_c, 9, 44, 0
12, 37824, Note_on_c, 9, 44, 127
12, 37872, Note_on_c, 9, 44, 0
12, 38016, Note_on_c, 9, 44, 127
12, 38056, Note_on_c, 9, 44, 0
12, 38208, Note_on_c, 9, 44, 127
12, 38248, Note_on_c, 9, 44, 0
12, 38400, Note_on_c, 9, 44, 127
12, 38432, Note_on_c, 9, 44, 0
12, 38592, Note_on_c, 9, 44, 127
12, 38632, Note_on_c, 9, 44, 0
12, 38720, Note_on_c, 9, 42, 127
12, 38744, Note_on_c, 9, 42, 0
12, 38784, Note_on_c, 9, 44, 127
12, 38824, Note_on_c, 9, 44, 0
12, 38848, Note_on_c, 9, 42, 127
12, 38872, Note_on_c, 9, 42, 0
12, 38912, Note_on_c, 9, 44, 127
12, 38936, Note_on_c, 9, 44, 0
12, 38976, Note_on_c, 9, 46, 127
12, 39024, Note_on_c, 9, 46, 0
12, 39168, Note_on_c, 9, 42, 127
12, 39272, Note_on_c, 9, 42, 0
12, 39360, Note_on_c, 9, 42, 127
12, 39464, Note_on_c, 9, 42, 0
12, 39552, Note_on_c, 9, 42, 127
12, 39648, Note_on_c, 9, 42, 0
12, 39744, Note_on_c, 9, 42, 127
12, 39808, Note_on_c, 9, 42, 0
12, 39936, Note_on_c, 9, 42, 127
12, 40040, Note_on_c, 9, 42, 0
12, 40128, Note_on_c, 9, 42, 127
12, 40224, Note_on_c, 9, 42, 0
12, 40320, Note_on_c, 9, 46, 127
12, 40424, Note_on_c, 9, 46, 0
12, 40512, Note_on_c, 9, 46, 127
12, 40568, Note_on_c, 9, 46, 0
12, 40704, Note_on_c, 9, 42, 127
12, 40760, Note_on_c, 9, 42, 0
12, 40896, Note_on_c, 9, 42, 127
12, 40952, Note_on_c, 9, 42, 0
12, 41088, Note_on_c, 9, 42, 127
12, 41144, Note_on_c, 9, 42, 0
12, 41280, Note_on_c, 9, 46, 127
12, 41432, Note_on_c, 9, 46, 0
12, 41472, Note_on_c, 9, 42, 127
12, 41528, Note_on_c, 9, 42, 0
12, 41664, Note_on_c, 9, 42, 127
12, 41712, Note_on_c, 9, 42, 0
12, 41856, Note_on_c, 9, 42, 127
12, 41904, Note_on_c, 9, 42, 0
12, 42048, Note_on_c, 9, 42, 127
12, 42088, Note_on_c, 9, 42, 0
12, 42176, Note_on_c, 9, 44, 127
12, 42192, Note_on_c, 9, 44, 0
12, 42240, Note_on_c, 9, 46, 127
12, 42264, Note_on_c, 9, 46, 0
12, 42432, Note_on_c, 9, 44, 127
12, 42464, Note_on_c, 9, 44, 0
12, 42624, Note_on_c, 9, 46, 127
12, 42656, Note_on_c, 9, 46, 0
12, 42816, Note_on_c, 9, 46, 127
12, 42856, Note_on_c, 9, 46, 0
12, 43008, Note_on_c, 9, 44, 127
12, 43048, Note_on_c, 9, 44, 0
12, 43200, Note_on_c, 9, 44, 127
12, 43248, Note_on_c, 9, 44, 0
12, 43392, Note_on_c, 9, 44, 127
12, 43424, Note_on_c, 9, 44, 0
12, 43584, Note_on_c, 9, 44, 127
12, 43624, Note_on_c, 9, 44, 0
12, 43776, Note_on_c, 9, 44, 127
12, 43816, Note_on_c, 9, 44, 0
12, 43968, Note_on_c, 9, 44, 127
12, 44008, Note_on_c, 9, 44, 0
12, 44160, Note_on_c, 9, 44, 127
12, 44192, Note_on_c, 9, 44, 0
12, 44352, Note_on_c, 9, 44, 127
12, 44392, Note_on_c, 9, 44, 0
12, 44544, Note_on_c, 9, 46, 127
12, 44600, Note_on_c, 9, 46, 0
12, 44736, Note_on_c, 9, 44, 127
12, 44768, Note_on_c, 9, 44, 0
12, 44928, Note_on_c, 9, 44, 127
12, 44944, Note_on_c, 9, 44, 0
12, 45120, Note_on_c, 9, 46, 127
12, 45144, Note_on_c, 9, 46, 0
12, 45312, Note_on_c, 9, 42, 127
12, 45344, Note_on_c, 9, 42, 0
12, 45504, Note_on_c, 9, 42, 127
12, 45552, Note_on_c, 9, 42, 0
12, 45696, Note_on_c, 9, 42, 127
12, 45752, Note_on_c, 9, 42, 0
12, 45888, Note_on_c, 9, 42, 127
12, 45936, Note_on_c, 9, 42, 0
12, 46080, Note_on_c, 9, 46, 127
12, 46128, Note_on_c, 9, 46, 0
12, 46272, Note_on_c, 9, 46, 127
12, 46304, Note_on_c, 9, 46, 0
12, 46464, Note_on_c, 9, 42, 127
12, 46504, Note_on_c, 9, 42, 0
12, 46656, Note_on_c, 9, 42, 127
12, 46696, Note_on_c, 9, 42, 0
12, 46848, Note_on_c, 9, 42, 127
12, 46888, Note_on_c, 9, 42, 0
12, 47040, Note_on_c, 9, 42, 127
12, 47072, Note_on_c, 9, 42, 0
12, 47232, Note_on_c, 9, 42, 127
12, 47272, Note_on_c, 9, 42, 0
12, 47424, Note_on_c, 9, 46, 127
12, 47464, Note_on_c, 9, 46, 0
12, 47616, Note_on_c, 9, 42, 127
12, 47656, Note_on_c, 9, 42, 0
12, 47808, Note_on_c, 9, 42, 127
12, 47848, Note_on_c, 9, 42, 0
12, 48000, Note_on_c, 9, 46, 127
12, 48032, Note_on_c, 9, 46, 0
12, 48192, Note_on_c, 9, 46, 127
12, 48224, Note_on_c, 9, 46, 0
12, 48384, Note_on_c, 9, 42, 127
12, 48408, Note_on_c, 9, 42, 0
12, 48576, Note_on_c, 9, 42, 127
12, 48608, Note_on_c, 9, 42, 0
12, 48768, Note_on_c, 9, 42, 127
12, 48792, Note_on_c, 9, 42, 0
12, 48960, Note_on_c, 9, 46, 127
12, 48992, Note_on_c, 9, 46, 0
12, 49152, Note_on_c, 9, 42, 127
12, 49184, Note_on_c, 9, 42, 0
12, 49344, Note_on_c, 9, 46, 127
12, 49376, Note_on_c, 9, 46, 0
12, 49536, Note_on_c, 9, 42, 127
12, 49568, Note_on_c, 9, 42, 0
12, 49728, Note_on_c, 9, 46, 127
12, 49776, Note_on_c, 9, 46, 0
12, 49920, Note_on_c, 9, 42, 127
12, 49960, Note_on_c, 9, 42, 0
12, 50112, Note_on_c, 9, 42, 127
12, 50160, Note_on_c, 9, 42, 0
12, 50304, Note_on_c, 9, 42, 127
12, 50352, Note_on_c, 9, 42, 0
12, 50496, Note_on_c, 9, 42, 127
12, 50544, Note_on_c, 9, 42, 0
12, 50688, Note_on_c, 9, 42, 127
12, 50736, Note_on_c, 9, 42, 0
12, 50880, Note_on_c, 9, 42, 127
12, 50920, Note_on_c, 9, 42, 0
12, 51072, Note_on_c, 9, 44, 127
12, 51112, Note_on_c, 9, 44, 0
12, 51264, Note_on_c, 9, 46, 127
12, 51312, Note_on_c, 9, 46, 0
12, 51312, End_track
13, 0, Start_track
13, 0, MIDI_port, 0
13, 0, Title_t, "Toms            "
13, 0, Control_c, 9, 7, 127
13, 0, Control_c, 9, 10, 64
13, 0, Control_c, 9, 91, 64
13, 8640, Note_on_c, 9, 45, 127
13, 8688, Note_on_c, 9, 45, 0
13, 9024, Note_on_c, 9, 43, 127
13, 9080, Note_on_c, 9, 43, 0
13, 9408, Note_on_c, 9, 43, 127
13, 9448, Note_on_c, 9, 43, 0
13, 9536, Note_on_c, 9, 43, 127
13, 9648, Note_on_c, 9, 43, 0
13, 9920, Note_on_c, 9, 43, 127
13, 10048, Note_on_c, 9, 43, 0
13, 10176, Note_on_c, 9, 43, 127
13, 10192, Note_on_c, 9, 43, 0
13, 10560, Note_on_c, 9, 43, 127
13, 10592, Note_on_c, 9, 43, 0
13, 10688, Note_on_c, 9, 43, 127
13, 10800, Note_on_c, 9, 43, 0
13, 10944, Note_on_c, 9, 43, 127
13, 10976, Note_on_c, 9, 43, 0
13, 11072, Note_on_c, 9, 43, 127
13, 11120, Note_on_c, 9, 43, 0
13, 11328, Note_on_c, 9, 43, 127
13, 11344, Note_on_c, 9, 43, 0
13, 11456, Note_on_c, 9, 43, 127
13, 11480, Note_on_c, 9, 43, 0
13, 11520, Note_on_c, 9, 43, 127
13, 11544, Note_on_c, 9, 43, 0
13, 11712, Note_on_c, 9, 43, 127
13, 11728, Note_on_c, 9, 43, 0
13, 11840, Note_on_c, 9, 43, 127
13, 11864, Note_on_c, 9, 43, 0
13, 12096, Note_on_c, 9, 43, 127
13, 12112, Note_on_c, 9, 43, 0
13, 12288, Note_on_c, 9, 43, 127
13, 12312, Note_on_c, 9, 43, 0
13, 12416, Note_on_c, 9, 43, 127
13, 12440, Note_on_c, 9, 43, 0
13, 12480, Note_on_c, 9, 43, 127
13, 12504, Note_on_c, 9, 43, 0
13, 12608, Note_on_c, 9, 43, 127
13, 12648, Note_on_c, 9, 43, 0
13, 12864, Note_on_c, 9, 43, 127
13, 12888, Note_on_c, 9, 43, 0
13, 12992, Note_on_c, 9, 43, 127
13, 13032, Note_on_c, 9, 43, 0
13, 13248, Note_on_c, 9, 43, 127
13, 13288, Note_on_c, 9, 43, 0
13, 13376, Note_on_c, 9, 43, 127
13, 13472, Note_on_c, 9, 43, 0
13, 13568, Note_on_c, 9, 43, 127
13, 13592, Note_on_c, 9, 43, 0
13, 13632, Note_on_c, 9, 43, 127
13, 13672, Note_on_c, 9, 43, 0
13, 13760, Note_on_c, 9, 43, 127
13, 13808, Note_on_c, 9, 43, 0
13, 22208, Note_on_c, 9, 45, 127
13, 22336, Note_on_c, 9, 45, 0
13, 23232, Note_on_c, 9, 45, 127
13, 23280, Note_on_c, 9, 45, 0
13, 23360, Note_on_c, 9, 45, 127
13, 23440, Note_on_c, 9, 45, 0
13, 23744, Note_on_c, 9, 45, 127
13, 23816, Note_on_c, 9, 45, 0
13, 24512, Note_on_c, 9, 45, 127
13, 24688, Note_on_c, 9, 45, 0
13, 25152, Note_on_c, 9, 45, 127
13, 25184, Note_on_c, 9, 45, 0
13, 25280, Note_on_c, 9, 45, 127
13, 25296, Note_on_c, 9, 45, 0
13, 26304, Note_on_c, 9, 45, 127
13, 26336, Note_on_c, 9, 45, 0
13, 26432, Note_on_c, 9, 45, 127
13, 26512, Note_on_c, 9, 45, 0
13, 26624, Note_on_c, 9, 41, 127
13, 26624, Note_on_c, 9, 43, 127
13, 26656, Note_on_c, 9, 43, 0
13, 26656, Note_on_c, 9, 41, 0
13, 26688, Note_on_c, 9, 41, 127
13, 26736, Note_on_c, 9, 41, 0
13, 26816, Note_on_c, 9, 41, 127
13, 26848, Note_on_c, 9, 41, 0
13, 27072, Note_on_c, 9, 45, 127
13, 27136, Note_on_c, 9, 45, 0
13, 27200, Note_on_c, 9, 45, 127
13, 27392, Note_on_c, 9, 45, 0
13, 27456, Note_on_c, 9, 45, 127
13, 27504, Note_on_c, 9, 45, 0
13, 27584, Note_on_c, 9, 45, 127
13, 27760, Note_on_c, 9, 45, 0
13, 27840, Note_on_c, 9, 45, 127
13, 27896, Note_on_c, 9, 45, 0
13, 27968, Note_on_c, 9, 45, 127
13, 28136, Note_on_c, 9, 45, 0
13, 28224, Note_on_c, 9, 45, 127
13, 28264, Note_on_c, 9, 45, 0
13, 28352, Note_on_c, 9, 45, 127
13, 28496, Note_on_c, 9, 45, 0
13, 28608, Note_on_c, 9, 45, 127
13, 28632, Note_on_c, 9, 45, 0
13, 28736, Note_on_c, 9, 45, 127
13, 28880, Note_on_c, 9, 45, 0
13, 28992, Note_on_c, 9, 45, 127
13, 29032, Note_on_c, 9, 45, 0
13, 29120, Note_on_c, 9, 45, 127
13, 29248, Note_on_c, 9, 45, 0
13, 29376, Note_on_c, 9, 45, 127
13, 29424, Note_on_c, 9, 45, 0
13, 29504, Note_on_c, 9, 45, 127
13, 29648, Note_on_c, 9, 45, 0
13, 29760, Note_on_c, 9, 45, 127
13, 29792, Note_on_c, 9, 45, 0
13, 29888, Note_on_c, 9, 45, 127
13, 30024, Note_on_c, 9, 45, 0
13, 30144, Note_on_c, 9, 45, 127
13, 30176, Note_on_c, 9, 45, 0
13, 30272, Note_on_c, 9, 45, 127
13, 30424, Note_on_c, 9, 45, 0
13, 30528, Note_on_c, 9, 45, 127
13, 30584, Note_on_c, 9, 45, 0
13, 30656, Note_on_c, 9, 45, 127
13, 30800, Note_on_c, 9, 45, 0
13, 30912, Note_on_c, 9, 45, 127
13, 30952, Note_on_c, 9, 45, 0
13, 31040, Note_on_c, 9, 45, 127
13, 31184, Note_on_c, 9, 45, 0
13, 31296, Note_on_c, 9, 45, 127
13, 31344, Note_on_c, 9, 45, 0
13, 31424, Note_on_c, 9, 45, 127
13, 31576, Note_on_c, 9, 45, 0
13, 31680, Note_on_c, 9, 45, 127
13, 31680, Note_on_c, 9, 47, 127
13, 31696, Note_on_c, 9, 47, 0
13, 31720, Note_on_c, 9, 45, 0
13, 31808, Note_on_c, 9, 45, 127
13, 31920, Note_on_c, 9, 45, 0
13, 32064, Note_on_c, 9, 45, 127
13, 32104, Note_on_c, 9, 45, 0
13, 32192, Note_on_c, 9, 45, 127
13, 32232, Note_on_c, 9, 45, 0
13, 40640, Note_on_c, 9, 45, 127
13, 40768, Note_on_c, 9, 45, 0
13, 41664, Note_on_c, 9, 45, 127
13, 41712, Note_on_c, 9, 45, 0
13, 41792, Note_on_c, 9, 45, 127
13, 41872, Note_on_c, 9, 45, 0
13, 42176, Note_on_c, 9, 45, 127
13, 42248, Note_on_c, 9, 45, 0
13, 42944, Note_on_c, 9, 45, 127
13, 43120, Note_on_c, 9, 45, 0
13, 43584, Note_on_c, 9, 45, 127
13, 43616, Note_on_c, 9, 45, 0
13, 43712, Note_on_c, 9, 45, 127
13, 43728, Note_on_c, 9, 45, 0
13, 44736, Note_on_c, 9, 45, 127
13, 44768, Note_on_c, 9, 45, 0
13, 44864, Note_on_c, 9, 45, 127
13, 44944, Note_on_c, 9, 45, 0
13, 45056, Note_on_c, 9, 41, 127
13, 45056, Note_on_c, 9, 43, 127
13, 45088, Note_on_c, 9, 43, 0
13, 45088, Note_on_c, 9, 41, 0
13, 45120, Note_on_c, 9, 41, 127
13, 45168, Note_on_c, 9, 41, 0
13, 45248, Note_on_c, 9, 41, 127
13, 45280, Note_on_c, 9, 41, 0
13, 48128, Note_on_c, 9, 45, 127
13, 48176, Note_on_c, 9, 45, 0
13, 48192, Note_on_c, 9, 45, 127
13, 48232, Note_on_c, 9, 45, 0
13, 48320, Note_on_c, 9, 45, 127
13, 48376, Note_on_c, 9, 45, 0
13, 49088, Note_on_c, 9, 45, 127
13, 49216, Note_on_c, 9, 45, 0
13, 49728, Note_on_c, 9, 45, 127
13, 49768, Note_on_c, 9, 45, 0
13, 49856, Note_on_c, 9, 45, 127
13, 49928, Note_on_c, 9, 45, 0
13, 50816, Note_on_c, 9, 48, 127
13, 50840, Note_on_c, 9, 48, 0
13, 50880, Note_on_c, 9, 48, 127
13, 50936, Note_on_c, 9, 48, 0
13, 51008, Note_on_c, 9, 48, 127
13, 51048, Note_on_c, 9, 48, 0
13, 51136, Note_on_c, 9, 45, 127
13, 51152, Note_on_c, 9, 45, 0
13, 51264, Note_on_c, 9, 45, 127
13, 51304, Note_on_c, 9, 45, 0
13, 51392, Note_on_c, 9, 41, 127
13, 51416, Note_on_c, 9, 41, 0
13, 51416, End_track
14, 0, Start_track
14, 0, MIDI_port, 0
14, 0, Title_t, "Ride Cymbal     "
14, 0, Control_c, 9, 7, 127
14, 0, Control_c, 9, 10, 64
14, 0, Control_c, 9, 91, 64
14, 51456, Note_on_c, 9, 49, 127
14, 51552, Note_on_c, 9, 49, 0
14, 51552, End_track
15, 0, Start_track
15, 0, MIDI_port, 0
15, 0, Title_t, "Crash Cymbal    "
15, 0, Control_c, 9, 7, 127
15, 0, Control_c, 9, 10, 64
15, 0, Control_c, 9, 91, 65
15, 10176, Note_on_c, 9, 49, 64
15, 10240, Note_on_c, 9, 49, 0
15, 10560, Note_on_c, 9, 49, 64
15, 10592, Note_on_c, 9, 49, 0
15, 10688, Note_on_c, 9, 49, 64
15, 10720, Note_on_c, 9, 49, 0
15, 10944, Note_on_c, 9, 49, 64
15, 10976, Note_on_c, 9, 49, 0
15, 11136, Note_on_c, 9, 49, 64
15, 11176, Note_on_c, 9, 49, 0
15, 11328, Note_on_c, 9, 49, 64
15, 11360, Note_on_c, 9, 49, 0
15, 11520, Note_on_c, 9, 49, 64
15, 11600, Note_on_c, 9, 49, 0
15, 11712, Note_on_c, 9, 49, 64
15, 11840, Note_on_c, 9, 49, 0
15, 11904, Note_on_c, 9, 49, 64
15, 12024, Note_on_c, 9, 49, 0
15, 12096, Note_on_c, 9, 49, 64
15, 12216, Note_on_c, 9, 49, 0
15, 12288, Note_on_c, 9, 49, 64
15, 12376, Note_on_c, 9, 49, 0
15, 12480, Note_on_c, 9, 49, 64
15, 12520, Note_on_c, 9, 49, 0
15, 12608, Note_on_c, 9, 49, 64
15, 12624, Note_on_c, 9, 49, 0
15, 12672, Note_on_c, 9, 49, 64
15, 12704, Note_on_c, 9, 49, 0
15, 12864, Note_on_c, 9, 49, 64
15, 12904, Note_on_c, 9, 49, 0
15, 13056, Note_on_c, 9, 49, 64
15, 13096, Note_on_c, 9, 49, 0
15, 13248, Note_on_c, 9, 49, 64
15, 13288, Note_on_c, 9, 49, 0
15, 13440, Note_on_c, 9, 49, 64
15, 13480, Note_on_c, 9, 49, 0
15, 13632, Note_on_c, 9, 49, 64
15, 13664, Note_on_c, 9, 49, 0
15, 13760, Note_on_c, 9, 49, 64
15, 13784, Note_on_c, 9, 49, 0
15, 13824, Note_on_c, 9, 49, 64
15, 13856, Note_on_c, 9, 49, 0
15, 24576, Note_on_c, 9, 49, 127
15, 24624, Note_on_c, 9, 49, 0
15, 24768, Note_on_c, 9, 49, 127
15, 24808, Note_on_c, 9, 49, 0
15, 24960, Note_on_c, 9, 49, 127
15, 24992, Note_on_c, 9, 49, 0
15, 25152, Note_on_c, 9, 49, 127
15, 25184, Note_on_c, 9, 49, 0
15, 25280, Note_on_c, 9, 49, 127
15, 25304, Note_on_c, 9, 49, 0
15, 25344, Note_on_c, 9, 49, 127
15, 25384, Note_on_c, 9, 49, 0
15, 25536, Note_on_c, 9, 49, 127
15, 25568, Note_on_c, 9, 49, 0
15, 25728, Note_on_c, 9, 49, 127
15, 25768, Note_on_c, 9, 49, 0
15, 25920, Note_on_c, 9, 49, 127
15, 25960, Note_on_c, 9, 49, 0
15, 26112, Note_on_c, 9, 49, 127
15, 26152, Note_on_c, 9, 49, 0
15, 26304, Note_on_c, 9, 49, 127
15, 26344, Note_on_c, 9, 49, 0
15, 26496, Note_on_c, 9, 49, 127
15, 26536, Note_on_c, 9, 49, 0
15, 26688, Note_on_c, 9, 49, 127
15, 26720, Note_on_c, 9, 49, 0
15, 26720, End_track
16, 0, Start_track
16, 0, MIDI_port, 0
16, 0, Title_t, "Rimshots        "
16, 0, Control_c, 9, 7, 127
16, 0, Control_c, 9, 10, 64
16, 0, Control_c, 9, 91, 64
16, 8640, Note_on_c, 9, 37, 127
16, 8664, Note_on_c, 9, 37, 0
16, 9024, Note_on_c, 9, 37, 127
16, 9032, Note_on_c, 9, 37, 0
16, 9152, Note_on_c, 9, 37, 127
16, 9168, Note_on_c, 9, 37, 0
16, 9344, Note_on_c, 9, 37, 127
16, 9376, Note_on_c, 9, 37, 0
16, 9600, Note_on_c, 9, 37, 127
16, 9616, Note_on_c, 9, 37, 0
16, 9920, Note_on_c, 9, 37, 127
16, 9944, Note_on_c, 9, 37, 0
16, 10176, Note_on_c, 9, 37, 127
16, 10192, Note_on_c, 9, 37, 0
16, 10304, Note_on_c, 9, 37, 127
16, 10328, Note_on_c, 9, 37, 0
16, 10496, Note_on_c, 9, 37, 127
16, 10512, Note_on_c, 9, 37, 0
16, 10752, Note_on_c, 9, 37, 127
16, 10768, Note_on_c, 9, 37, 0
16, 10944, Note_on_c, 9, 38, 127
16, 10960, Note_on_c, 9, 38, 0
16, 11072, Note_on_c, 9, 37, 127
16, 11088, Note_on_c, 9, 37, 0
16, 11264, Note_on_c, 9, 37, 127
16, 11288, Note_on_c, 9, 37, 0
16, 11328, Note_on_c, 9, 37, 127
16, 11352, Note_on_c, 9, 37, 0
16, 20928, Note_on_c, 9, 37, 127
16, 21048, Note_on_c, 9, 37, 0
16, 21312, Note_on_c, 9, 37, 127
16, 21544, Note_on_c, 9, 37, 0
16, 21696, Note_on_c, 9, 37, 127
16, 21752, Note_on_c, 9, 37, 0
16, 21824, Note_on_c, 9, 37, 127
16, 21952, Note_on_c, 9, 37, 0
16, 22080, Note_on_c, 9, 37, 127
16, 22344, Note_on_c, 9, 37, 0
16, 22464, Note_on_c, 9, 37, 127
16, 22720, Note_on_c, 9, 37, 0
16, 22848, Note_on_c, 9, 37, 127
16, 22880, Note_on_c, 9, 37, 0
16, 22976, Note_on_c, 9, 37, 127
16, 23104, Note_on_c, 9, 37, 0
16, 23232, Note_on_c, 9, 37, 127
16, 23264, Note_on_c, 9, 37, 0
16, 23360, Note_on_c, 9, 37, 127
16, 23432, Note_on_c, 9, 37, 0
16, 23488, Note_on_c, 9, 37, 127
16, 23512, Note_on_c, 9, 37, 0
16, 23616, Note_on_c, 9, 37, 127
16, 23640, Note_on_c, 9, 37, 0
16, 23744, Note_on_c, 9, 37, 127
16, 23768, Note_on_c, 9, 37, 0
16, 24000, Note_on_c, 9, 37, 127
16, 24112, Note_on_c, 9, 37, 0
16, 39360, Note_on_c, 9, 37, 127
16, 39480, Note_on_c, 9, 37, 0
16, 39744, Note_on_c, 9, 37, 127
16, 39976, Note_on_c, 9, 37, 0
16, 40128, Note_on_c, 9, 37, 127
16, 40184, Note_on_c, 9, 37, 0
16, 40256, Note_on_c, 9, 37, 127
16, 40384, Note_on_c, 9, 37, 0
16, 40512, Note_on_c, 9, 37, 127
16, 40776, Note_on_c, 9, 37, 0
16, 40896, Note_on_c, 9, 37, 127
16, 41152, Note_on_c, 9, 37, 0
16, 41280, Note_on_c, 9, 37, 127
16, 41312, Note_on_c, 9, 37, 0
16, 41408, Note_on_c, 9, 37, 127
16, 41536, Note_on_c, 9, 37, 0
16, 41664, Note_on_c, 9, 37, 127
16, 41696, Note_on_c, 9, 37, 0
16, 41792, Note_on_c, 9, 37, 127
16, 41864, Note_on_c, 9, 37, 0
16, 41920, Note_on_c, 9, 37, 127
16, 41944, Note_on_c, 9, 37, 0
16, 42048, Note_on_c, 9, 37, 127
16, 42072, Note_on_c, 9, 37, 0
16, 42176, Note_on_c, 9, 37, 127
16, 42200, Note_on_c, 9, 37, 0
16, 42432, Note_on_c, 9, 37, 127
16, 42544, Note_on_c, 9, 37, 0
16, 45504, Note_on_c, 9, 37, 127
16, 45624, Note_on_c, 9, 37, 0
16, 45888, Note_on_c, 9, 37, 127
16, 46120, Note_on_c, 9, 37, 0
16, 46272, Note_on_c, 9, 37, 127
16, 46328, Note_on_c, 9, 37, 0
16, 46400, Note_on_c, 9, 37, 127
16, 46528, Note_on_c, 9, 37, 0
16, 46656, Note_on_c, 9, 37, 127
16, 46920, Note_on_c, 9, 37, 0
16, 47040, Note_on_c, 9, 37, 127
16, 47296, Note_on_c, 9, 37, 0
16, 47424, Note_on_c, 9, 37, 127
16, 47456, Note_on_c, 9, 37, 0
16, 47552, Note_on_c, 9, 37, 127
16, 47680, Note_on_c, 9, 37, 0
16, 47808, Note_on_c, 9, 37, 127
16, 47840, Note_on_c, 9, 37, 0
16, 47936, Note_on_c, 9, 37, 127
16, 48008, Note_on_c, 9, 37, 0
16, 48064, Note_on_c, 9, 37, 127
16, 48088, Note_on_c, 9, 37, 0
16, 48192, Note_on_c, 9, 37, 127
16, 48216, Note_on_c, 9, 37, 0
16, 48320, Note_on_c, 9, 37, 127
16, 48344, Note_on_c, 9, 37, 0
16, 48576, Note_on_c, 9, 37, 127
16, 48688, Note_on_c, 9, 37, 0
16, 48688, End_track
17, 0, Start_track
17, 0, MIDI_port, 0
17, 0, Title_t, "Hihat fills     "
17, 0, Control_c, 9, 7, 127
17, 0, Control_c, 9, 10, 64
17, 0, Control_c, 9, 91, 64
17, 2432, Note_on_c, 9, 42, 97
17, 2488, Note_on_c, 9, 42, 0
17, 2624, Note_on_c, 9, 42, 97
17, 2688, Note_on_c, 9, 42, 0
17, 2688, Note_on_c, 9, 42, 97
17, 2696, Note_on_c, 9, 42, 0
17, 2816, Note_on_c, 9, 42, 97
17, 2872, Note_on_c, 9, 42, 0
17, 3008, Note_on_c, 9, 42, 97
17, 3024, Note_on_c, 9, 42, 0
17, 3200, Note_on_c, 9, 42, 97
17, 3200, Note_on_c, 9, 42, 97
17, 3208, Note_on_c, 9, 42, 0
17, 3224, Note_on_c, 9, 42, 0
17, 3392, Note_on_c, 9, 42, 97
17, 3392, Note_on_c, 9, 42, 97
17, 3400, Note_on_c, 9, 42, 0
17, 3408, Note_on_c, 9, 42, 0
17, 3584, Note_on_c, 9, 42, 97
17, 3608, Note_on_c, 9, 42, 0
17, 3776, Note_on_c, 9, 42, 97
17, 3800, Note_on_c, 9, 42, 0
17, 3968, Note_on_c, 9, 42, 97
17, 3984, Note_on_c, 9, 42, 0
17, 4160, Note_on_c, 9, 42, 97
17, 4192, Note_on_c, 9, 42, 0
17, 4352, Note_on_c, 9, 42, 97
17, 4368, Note_on_c, 9, 42, 0
17, 4544, Note_on_c, 9, 42, 97
17, 4576, Note_on_c, 9, 42, 0
17, 4736, Note_on_c, 9, 42, 97
17, 4752, Note_on_c, 9, 42, 0
17, 4928, Note_on_c, 9, 42, 97
17, 4944, Note_on_c, 9, 42, 0
17, 5120, Note_on_c, 9, 42, 97
17, 5144, Note_on_c, 9, 42, 0
17, 5312, Note_on_c, 9, 42, 97
17, 5312, Note_on_c, 9, 41, 97
17, 5336, Note_on_c, 9, 41, 0
17, 5336, Note_on_c, 9, 42, 0
17, 5504, Note_on_c, 9, 42, 97
17, 5528, Note_on_c, 9, 42, 0
17, 5696, Note_on_c, 9, 42, 97
17, 5720, Note_on_c, 9, 42, 0
17, 5888, Note_on_c, 9, 42, 97
17, 5904, Note_on_c, 9, 42, 0
17, 6080, Note_on_c, 9, 42, 97
17, 6096, Note_on_c, 9, 42, 0
17, 6272, Note_on_c, 9, 42, 97
17, 6288, Note_on_c, 9, 42, 0
17, 6464, Note_on_c, 9, 42, 97
17, 6488, Note_on_c, 9, 42, 0
17, 6656, Note_on_c, 9, 42, 97
17, 6672, Note_on_c, 9, 42, 0
17, 6848, Note_on_c, 9, 42, 97
17, 6864, Note_on_c, 9, 42, 0
17, 7040, Note_on_c, 9, 42, 97
17, 7056, Note_on_c, 9, 42, 0
17, 7232, Note_on_c, 9, 42, 97
17, 7264, Note_on_c, 9, 42, 0
17, 7424, Note_on_c, 9, 42, 97
17, 7440, Note_on_c, 9, 42, 0
17, 7616, Note_on_c, 9, 42, 97
17, 7624, Note_on_c, 9, 42, 0
17, 7808, Note_on_c, 9, 42, 97
17, 7816, Note_on_c, 9, 42, 0
17, 8000, Note_on_c, 9, 42, 97
17, 8016, Note_on_c, 9, 42, 0
17, 8192, Note_on_c, 9, 42, 97
17, 8208, Note_on_c, 9, 42, 0
17, 8384, Note_on_c, 9, 42, 97
17, 8392, Note_on_c, 9, 42, 0
17, 8576, Note_on_c, 9, 42, 97
17, 8592, Note_on_c, 9, 42, 0
17, 8768, Note_on_c, 9, 42, 97
17, 8784, Note_on_c, 9, 42, 0
17, 8960, Note_on_c, 9, 42, 97
17, 8968, Note_on_c, 9, 42, 0
17, 9152, Note_on_c, 9, 42, 97
17, 9168, Note_on_c, 9, 42, 0
17, 9344, Note_on_c, 9, 42, 97
17, 9376, Note_on_c, 9, 42, 0
17, 9536, Note_on_c, 9, 42, 97
17, 9576, Note_on_c, 9, 42, 0
17, 9728, Note_on_c, 9, 42, 97
17, 9760, Note_on_c, 9, 42, 0
17, 9920, Note_on_c, 9, 42, 97
17, 9952, Note_on_c, 9, 42, 0
17, 10112, Note_on_c, 9, 42, 97
17, 10152, Note_on_c, 9, 42, 0
17, 10304, Note_on_c, 9, 42, 97
17, 10344, Note_on_c, 9, 42, 0
17, 10496, Note_on_c, 9, 42, 97
17, 10504, Note_on_c, 9, 42, 0
17, 10688, Note_on_c, 9, 42, 97
17, 10744, Note_on_c, 9, 42, 0
17, 10880, Note_on_c, 9, 42, 97
17, 10968, Note_on_c, 9, 42, 0
17, 11072, Note_on_c, 9, 42, 97
17, 11144, Note_on_c, 9, 42, 0
17, 11264, Note_on_c, 9, 42, 97
17, 11328, Note_on_c, 9, 42, 0
17, 11456, Note_on_c, 9, 42, 97
17, 11528, Note_on_c, 9, 42, 0
17, 11648, Note_on_c, 9, 42, 97
17, 11720, Note_on_c, 9, 42, 0
17, 11840, Note_on_c, 9, 42, 97
17, 11904, Note_on_c, 9, 42, 0
17, 12032, Note_on_c, 9, 42, 97
17, 12088, Note_on_c, 9, 42, 0
17, 12224, Note_on_c, 9, 42, 97
17, 12288, Note_on_c, 9, 42, 0
17, 12416, Note_on_c, 9, 42, 97
17, 12480, Note_on_c, 9, 42, 0
17, 12608, Note_on_c, 9, 42, 97
17, 12664, Note_on_c, 9, 42, 0
17, 12800, Note_on_c, 9, 42, 97
17, 12864, Note_on_c, 9, 42, 0
17, 13056, Note_on_c, 9, 42, 97
17, 13080, Note_on_c, 9, 42, 0
17, 13248, Note_on_c, 9, 42, 97
17, 13272, Note_on_c, 9, 42, 0
17, 13440, Note_on_c, 9, 42, 97
17, 13480, Note_on_c, 9, 42, 0
17, 13568, Note_on_c, 9, 42, 97
17, 13600, Note_on_c, 9, 42, 0
17, 13760, Note_on_c, 9, 42, 97
17, 13768, Note_on_c, 9, 42, 0
17, 14720, Note_on_c, 9, 42, 97
17, 14768, Note_on_c, 9, 42, 0
17, 14912, Note_on_c, 9, 42, 97
17, 14984, Note_on_c, 9, 42, 0
17, 15104, Note_on_c, 9, 42, 97
17, 15168, Note_on_c, 9, 42, 0
17, 15296, Note_on_c, 9, 42, 97
17, 15360, Note_on_c, 9, 42, 0
17, 15488, Note_on_c, 9, 42, 97
17, 15528, Note_on_c, 9, 42, 0
17, 15680, Note_on_c, 9, 42, 97
17, 15728, Note_on_c, 9, 42, 0
17, 15872, Note_on_c, 9, 42, 97
17, 15928, Note_on_c, 9, 42, 0
17, 16064, Note_on_c, 9, 42, 97
17, 16136, Note_on_c, 9, 42, 0
17, 16256, Note_on_c, 9, 42, 97
17, 16328, Note_on_c, 9, 42, 0
17, 16448, Note_on_c, 9, 42, 97
17, 16528, Note_on_c, 9, 42, 0
17, 16640, Note_on_c, 9, 42, 97
17, 16704, Note_on_c, 9, 42, 0
17, 16832, Note_on_c, 9, 42, 97
17, 16896, Note_on_c, 9, 42, 0
17, 17024, Note_on_c, 9, 42, 97
17, 17096, Note_on_c, 9, 42, 0
17, 17216, Note_on_c, 9, 42, 97
17, 17280, Note_on_c, 9, 42, 0
17, 17408, Note_on_c, 9, 42, 97
17, 17472, Note_on_c, 9, 42, 0
17, 17600, Note_on_c, 9, 42, 97
17, 17664, Note_on_c, 9, 42, 0
17, 17792, Note_on_c, 9, 42, 97
17, 17856, Note_on_c, 9, 42, 0
17, 17984, Note_on_c, 9, 42, 97
17, 18056, Note_on_c, 9, 42, 0
17, 18176, Note_on_c, 9, 42, 97
17, 18240, Note_on_c, 9, 42, 0
17, 18368, Note_on_c, 9, 42, 97
17, 18400, Note_on_c, 9, 42, 0
17, 18560, Note_on_c, 9, 42, 97
17, 18584, Note_on_c, 9, 42, 0
17, 18752, Note_on_c, 9, 42, 97
17, 18800, Note_on_c, 9, 42, 0
17, 18944, Note_on_c, 9, 42, 97
17, 19008, Note_on_c, 9, 42, 0
17, 19136, Note_on_c, 9, 42, 97
17, 19208, Note_on_c, 9, 42, 0
17, 19328, Note_on_c, 9, 42, 97
17, 19400, Note_on_c, 9, 42, 0
17, 19520, Note_on_c, 9, 42, 97
17, 19592, Note_on_c, 9, 42, 0
17, 19712, Note_on_c, 9, 42, 97
17, 19768, Note_on_c, 9, 42, 0
17, 19904, Note_on_c, 9, 42, 97
17, 19968, Note_on_c, 9, 42, 0
17, 20096, Note_on_c, 9, 42, 97
17, 20152, Note_on_c, 9, 42, 0
17, 20288, Note_on_c, 9, 42, 97
17, 20304, Note_on_c, 9, 42, 0
17, 20352, Note_on_c, 9, 42, 97
17, 20368, Note_on_c, 9, 42, 0
17, 20480, Note_on_c, 9, 42, 97
17, 20488, Note_on_c, 9, 42, 0
17, 20544, Note_on_c, 9, 42, 97
17, 20560, Note_on_c, 9, 42, 0
17, 20608, Note_on_c, 9, 42, 97
17, 20632, Note_on_c, 9, 42, 0
17, 20672, Note_on_c, 9, 42, 97
17, 20680, Note_on_c, 9, 42, 0
17, 20864, Note_on_c, 9, 42, 97
17, 20920, Note_on_c, 9, 42, 0
17, 21056, Note_on_c, 9, 42, 97
17, 21120, Note_on_c, 9, 42, 0
17, 21120, Note_on_c, 9, 42, 97
17, 21128, Note_on_c, 9, 42, 0
17, 21248, Note_on_c, 9, 42, 97
17, 21304, Note_on_c, 9, 42, 0
17, 21440, Note_on_c, 9, 42, 97
17, 21456, Note_on_c, 9, 42, 0
17, 21632, Note_on_c, 9, 42, 97
17, 21632, Note_on_c, 9, 42, 97
17, 21640, Note_on_c, 9, 42, 0
17, 21656, Note_on_c, 9, 42, 0
17, 21824, Note_on_c, 9, 42, 97
17, 21824, Note_on_c, 9, 42, 97
17, 21832, Note_on_c, 9, 42, 0
17, 21840, Note_on_c, 9, 42, 0
17, 22016, Note_on_c, 9, 42, 97
17, 22040, Note_on_c, 9, 42, 0
17, 22208, Note_on_c, 9, 42, 97
17, 22232, Note_on_c, 9, 42, 0
17, 22400, Note_on_c, 9, 42, 97
17, 22416, Note_on_c, 9, 42, 0
17, 22592, Note_on_c, 9, 42, 97
17, 22624, Note_on_c, 9, 42, 0
17, 22784, Note_on_c, 9, 42, 97
17, 22800, Note_on_c, 9, 42, 0
17, 22976, Note_on_c, 9, 42, 97
17, 23008, Note_on_c, 9, 42, 0
17, 23168, Note_on_c, 9, 42, 97
17, 23184, Note_on_c, 9, 42, 0
17, 23360, Note_on_c, 9, 42, 97
17, 23376, Note_on_c, 9, 42, 0
17, 23552, Note_on_c, 9, 42, 97
17, 23576, Note_on_c, 9, 42, 0
17, 23744, Note_on_c, 9, 42, 97
17, 23744, Note_on_c, 9, 41, 97
17, 23768, Note_on_c, 9, 41, 0
17, 23768, Note_on_c, 9, 42, 0
17, 23936, Note_on_c, 9, 42, 97
17, 23960, Note_on_c, 9, 42, 0
17, 24128, Note_on_c, 9, 42, 97
17, 24152, Note_on_c, 9, 42, 0
17, 24320, Note_on_c, 9, 42, 97
17, 24336, Note_on_c, 9, 42, 0
17, 24512, Note_on_c, 9, 42, 97
17, 24528, Note_on_c, 9, 42, 0
17, 24704, Note_on_c, 9, 42, 97
17, 24720, Note_on_c, 9, 42, 0
17, 24896, Note_on_c, 9, 42, 97
17, 24920, Note_on_c, 9, 42, 0
17, 25088, Note_on_c, 9, 42, 97
17, 25104, Note_on_c, 9, 42, 0
17, 25280, Note_on_c, 9, 42, 97
17, 25296, Note_on_c, 9, 42, 0
17, 25472, Note_on_c, 9, 42, 97
17, 25488, Note_on_c, 9, 42, 0
17, 25664, Note_on_c, 9, 42, 97
17, 25696, Note_on_c, 9, 42, 0
17, 25856, Note_on_c, 9, 42, 97
17, 25872, Note_on_c, 9, 42, 0
17, 26048, Note_on_c, 9, 42, 97
17, 26056, Note_on_c, 9, 42, 0
17, 26240, Note_on_c, 9, 42, 97
17, 26248, Note_on_c, 9, 42, 0
17, 26432, Note_on_c, 9, 42, 97
17, 26448, Note_on_c, 9, 42, 0
17, 26624, Note_on_c, 9, 42, 97
17, 26640, Note_on_c, 9, 42, 0
17, 26816, Note_on_c, 9, 42, 97
17, 26824, Note_on_c, 9, 42, 0
17, 27008, Note_on_c, 9, 42, 97
17, 27064, Note_on_c, 9, 42, 0
17, 27200, Note_on_c, 9, 42, 97
17, 27264, Note_on_c, 9, 42, 0
17, 27264, Note_on_c, 9, 42, 97
17, 27272, Note_on_c, 9, 42, 0
17, 27392, Note_on_c, 9, 42, 97
17, 27448, Note_on_c, 9, 42, 0
17, 27584, Note_on_c, 9, 42, 97
17, 27600, Note_on_c, 9, 42, 0
17, 27776, Note_on_c, 9, 42, 97
17, 27776, Note_on_c, 9, 42, 97
17, 27784, Note_on_c, 9, 42, 0
17, 27800, Note_on_c, 9, 42, 0
17, 27968, Note_on_c, 9, 42, 97
17, 27968, Note_on_c, 9, 42, 97
17, 27976, Note_on_c, 9, 42, 0
17, 27984, Note_on_c, 9, 42, 0
17, 28160, Note_on_c, 9, 42, 97
17, 28184, Note_on_c, 9, 42, 0
17, 28352, Note_on_c, 9, 42, 97
17, 28376, Note_on_c, 9, 42, 0
17, 28544, Note_on_c, 9, 42, 97
17, 28560, Note_on_c, 9, 42, 0
17, 28736, Note_on_c, 9, 42, 97
17, 28768, Note_on_c, 9, 42, 0
17, 28928, Note_on_c, 9, 42, 97
17, 28944, Note_on_c, 9, 42, 0
17, 29120, Note_on_c, 9, 42, 97
17, 29152, Note_on_c, 9, 42, 0
17, 29312, Note_on_c, 9, 42, 97
17, 29328, Note_on_c, 9, 42, 0
17, 29504, Note_on_c, 9, 42, 97
17, 29520, Note_on_c, 9, 42, 0
17, 29696, Note_on_c, 9, 42, 97
17, 29720, Note_on_c, 9, 42, 0
17, 29888, Note_on_c, 9, 42, 97
17, 29888, Note_on_c, 9, 41, 97
17, 29912, Note_on_c, 9, 41, 0
17, 29912, Note_on_c, 9, 42, 0
17, 30080, Note_on_c, 9, 42, 97
17, 30104, Note_on_c, 9, 42, 0
17, 30272, Note_on_c, 9, 42, 97
17, 30296, Note_on_c, 9, 42, 0
17, 30464, Note_on_c, 9, 42, 97
17, 30480, Note_on_c, 9, 42, 0
17, 30656, Note_on_c, 9, 42, 97
17, 30672, Note_on_c, 9, 42, 0
17, 30848, Note_on_c, 9, 42, 97
17, 30864, Note_on_c, 9, 42, 0
17, 31040, Note_on_c, 9, 42, 97
17, 31064, Note_on_c, 9, 42, 0
17, 31232, Note_on_c, 9, 42, 97
17, 31248, Note_on_c, 9, 42, 0
17, 31424, Note_on_c, 9, 42, 97
17, 31440, Note_on_c, 9, 42, 0
17, 31616, Note_on_c, 9, 42, 97
17, 31632, Note_on_c, 9, 42, 0
17, 31808, Note_on_c, 9, 42, 97
17, 31840, Note_on_c, 9, 42, 0
17, 32000, Note_on_c, 9, 42, 97
17, 32016, Note_on_c, 9, 42, 0
17, 32192, Note_on_c, 9, 42, 97
17, 32200, Note_on_c, 9, 42, 0
17, 32384, Note_on_c, 9, 42, 97
17, 32392, Note_on_c, 9, 42, 0
17, 33152, Note_on_c, 9, 42, 97
17, 33200, Note_on_c, 9, 42, 0
17, 33344, Note_on_c, 9, 42, 97
17, 33416, Note_on_c, 9, 42, 0
17, 33536, Note_on_c, 9, 42, 97
17, 33600, Note_on_c, 9, 42, 0
17, 33728, Note_on_c, 9, 42, 97
17, 33792, Note_on_c, 9, 42, 0
17, 33920, Note_on_c, 9, 42, 97
17, 33960, Note_on_c, 9, 42, 0
17, 34112, Note_on_c, 9, 42, 97
17, 34160, Note_on_c, 9, 42, 0
17, 34304, Note_on_c, 9, 42, 97
17, 34360, Note_on_c, 9, 42, 0
17, 34496, Note_on_c, 9, 42, 97
17, 34568, Note_on_c, 9, 42, 0
17, 34688, Note_on_c, 9, 42, 97
17, 34760, Note_on_c, 9, 42, 0
17, 34880, Note_on_c, 9, 42, 97
17, 34960, Note_on_c, 9, 42, 0
17, 35072, Note_on_c, 9, 42, 97
17, 35136, Note_on_c, 9, 42, 0
17, 35264, Note_on_c, 9, 42, 97
17, 35328, Note_on_c, 9, 42, 0
17, 35456, Note_on_c, 9, 42, 97
17, 35528, Note_on_c, 9, 42, 0
17, 35648, Note_on_c, 9, 42, 97
17, 35712, Note_on_c, 9, 42, 0
17, 35840, Note_on_c, 9, 42, 97
17, 35904, Note_on_c, 9, 42, 0
17, 36032, Note_on_c, 9, 42, 97
17, 36096, Note_on_c, 9, 42, 0
17, 36224, Note_on_c, 9, 42, 97
17, 36288, Note_on_c, 9, 42, 0
17, 36416, Note_on_c, 9, 42, 97
17, 36488, Note_on_c, 9, 42, 0
17, 36608, Note_on_c, 9, 42, 97
17, 36672, Note_on_c, 9, 42, 0
17, 36800, Note_on_c, 9, 42, 97
17, 36832, Note_on_c, 9, 42, 0
17, 36992, Note_on_c, 9, 42, 97
17, 37016, Note_on_c, 9, 42, 0
17, 37184, Note_on_c, 9, 42, 97
17, 37232, Note_on_c, 9, 42, 0
17, 37376, Note_on_c, 9, 42, 97
17, 37440, Note_on_c, 9, 42, 0
17, 37568, Note_on_c, 9, 42, 97
17, 37640, Note_on_c, 9, 42, 0
17, 37760, Note_on_c, 9, 42, 97
17, 37832, Note_on_c, 9, 42, 0
17, 37952, Note_on_c, 9, 42, 97
17, 38024, Note_on_c, 9, 42, 0
17, 38144, Note_on_c, 9, 42, 97
17, 38200, Note_on_c, 9, 42, 0
17, 38336, Note_on_c, 9, 42, 97
17, 38400, Note_on_c, 9, 42, 0
17, 38528, Note_on_c, 9, 42, 97
17, 38584, Note_on_c, 9, 42, 0
17, 38720, Note_on_c, 9, 42, 97
17, 38736, Note_on_c, 9, 42, 0
17, 38784, Note_on_c, 9, 42, 97
17, 38800, Note_on_c, 9, 42, 0
17, 38912, Note_on_c, 9, 42, 97
17, 38920, Note_on_c, 9, 42, 0
17, 38976, Note_on_c, 9, 42, 97
17, 38992, Note_on_c, 9, 42, 0
17, 39040, Note_on_c, 9, 42, 97
17, 39064, Note_on_c, 9, 42, 0
17, 39104, Note_on_c, 9, 42, 97
17, 39112, Note_on_c, 9, 42, 0
17, 39296, Note_on_c, 9, 42, 97
17, 39352, Note_on_c, 9, 42, 0
17, 39488, Note_on_c, 9, 42, 97
17, 39552, Note_on_c, 9, 42, 0
17, 39552, Note_on_c, 9, 42, 97
17, 39560, Note_on_c, 9, 42, 0
17, 39680, Note_on_c, 9, 42, 97
17, 39736, Note_on_c, 9, 42, 0
17, 39872, Note_on_c, 9, 42, 97
17, 39888, Note_on_c, 9, 42, 0
17, 40064, Note_on_c, 9, 42, 97
17, 40064, Note_on_c, 9, 42, 97
17, 40072, Note_on_c, 9, 42, 0
17, 40088, Note_on_c, 9, 42, 0
17, 40256, Note_on_c, 9, 42, 97
17, 40256, Note_on_c, 9, 42, 97
17, 40264, Note_on_c, 9, 42, 0
17, 40272, Note_on_c, 9, 42, 0
17, 40448, Note_on_c, 9, 42, 97
17, 40472, Note_on_c, 9, 42, 0
17, 40640, Note_on_c, 9, 42, 97
17, 40664, Note_on_c, 9, 42, 0
17, 40832, Note_on_c, 9, 42, 97
17, 40848, Note_on_c, 9, 42, 0
17, 41024, Note_on_c, 9, 42, 97
17, 41056, Note_on_c, 9, 42, 0
17, 41216, Note_on_c, 9, 42, 97
17, 41232, Note_on_c, 9, 42, 0
17, 41408, Note_on_c, 9, 42, 97
17, 41440, Note_on_c, 9, 42, 0
17, 41600, Note_on_c, 9, 42, 97
17, 41616, Note_on_c, 9, 42, 0
17, 41792, Note_on_c, 9, 42, 97
17, 41808, Note_on_c, 9, 42, 0
17, 41984, Note_on_c, 9, 42, 97
17, 42008, Note_on_c, 9, 42, 0
17, 42176, Note_on_c, 9, 42, 97
17, 42176, Note_on_c, 9, 41, 97
17, 42200, Note_on_c, 9, 41, 0
17, 42200, Note_on_c, 9, 42, 0
17, 42368, Note_on_c, 9, 42, 97
17, 42392, Note_on_c, 9, 42, 0
17, 42560, Note_on_c, 9, 42, 97
17, 42584, Note_on_c, 9, 42, 0
17, 42752, Note_on_c, 9, 42, 97
17, 42768, Note_on_c, 9, 42, 0
17, 42944, Note_on_c, 9, 42, 97
17, 42960, Note_on_c, 9, 42, 0
17, 43136, Note_on_c, 9, 42, 97
17, 43152, Note_on_c, 9, 42, 0
17, 43328, Note_on_c, 9, 42, 97
17, 43352, Note_on_c, 9, 42, 0
17, 43520, Note_on_c, 9, 42, 97
17, 43536, Note_on_c, 9, 42, 0
17, 43712, Note_on_c, 9, 42, 97
17, 43728, Note_on_c, 9, 42, 0
17, 43904, Note_on_c, 9, 42, 97
17, 43920, Note_on_c, 9, 42, 0
17, 44096, Note_on_c, 9, 42, 97
17, 44128, Note_on_c, 9, 42, 0
17, 44288, Note_on_c, 9, 42, 97
17, 44304, Note_on_c, 9, 42, 0
17, 44480, Note_on_c, 9, 42, 97
17, 44488, Note_on_c, 9, 42, 0
17, 44672, Note_on_c, 9, 42, 97
17, 44680, Note_on_c, 9, 42, 0
17, 44864, Note_on_c, 9, 42, 97
17, 44880, Note_on_c, 9, 42, 0
17, 45056, Note_on_c, 9, 42, 97
17, 45072, Note_on_c, 9, 42, 0
17, 45248, Note_on_c, 9, 42, 97
17, 45256, Note_on_c, 9, 42, 0
17, 45440, Note_on_c, 9, 42, 97
17, 45496, Note_on_c, 9, 42, 0
17, 45632, Note_on_c, 9, 42, 97
17, 45696, Note_on_c, 9, 42, 0
17, 45696, Note_on_c, 9, 42, 97
17, 45704, Note_on_c, 9, 42, 0
17, 45824, Note_on_c, 9, 42, 97
17, 45880, Note_on_c, 9, 42, 0
17, 46016, Note_on_c, 9, 42, 97
17, 46032, Note_on_c, 9, 42, 0
17, 46208, Note_on_c, 9, 42, 97
17, 46208, Note_on_c, 9, 42, 97
17, 46216, Note_on_c, 9, 42, 0
17, 46232, Note_on_c, 9, 42, 0
17, 46400, Note_on_c, 9, 42, 97
17, 46400, Note_on_c, 9, 42, 97
17, 46408, Note_on_c, 9, 42, 0
17, 46416, Note_on_c, 9, 42, 0
17, 46592, Note_on_c, 9, 42, 97
17, 46616, Note_on_c, 9, 42, 0
17, 46784, Note_on_c, 9, 42, 97
17, 46808, Note_on_c, 9, 42, 0
17, 46976, Note_on_c, 9, 42, 97
17, 46992, Note_on_c, 9, 42, 0
17, 47168, Note_on_c, 9, 42, 97
17, 47200, Note_on_c, 9, 42, 0
17, 47360, Note_on_c, 9, 42, 97
17, 47376, Note_on_c, 9, 42, 0
17, 47552, Note_on_c, 9, 42, 97
17, 47584, Note_on_c, 9, 42, 0
17, 47744, Note_on_c, 9, 42, 97
17, 47760, Note_on_c, 9, 42, 0
17, 47936, Note_on_c, 9, 42, 97
17, 47952, Note_on_c, 9, 42, 0
17, 48128, Note_on_c, 9, 42, 97
17, 48152, Note_on_c, 9, 42, 0
17, 48320, Note_on_c, 9, 42, 97
17, 48320, Note_on_c, 9, 41, 97
17, 48344, Note_on_c, 9, 41, 0
17, 48344, Note_on_c, 9, 42, 0
17, 48512, Note_on_c, 9, 42, 97
17, 48536, Note_on_c, 9, 42, 0
17, 48704, Note_on_c, 9, 42, 97
17, 48728, Note_on_c, 9, 42, 0
17, 48896, Note_on_c, 9, 42, 97
17, 48912, Note_on_c, 9, 42, 0
17, 49088, Note_on_c, 9, 42, 97
17, 49104, Note_on_c, 9, 42, 0
17, 49280, Note_on_c, 9, 42, 97
17, 49296, Note_on_c, 9, 42, 0
17, 49472, Note_on_c, 9, 42, 97
17, 49496, Note_on_c, 9, 42, 0
17, 49664, Note_on_c, 9, 42, 97
17, 49680, Note_on_c, 9, 42, 0
17, 49856, Note_on_c, 9, 42, 97
17, 49872, Note_on_c, 9, 42, 0
17, 50048, Note_on_c, 9, 42, 97
17, 50064, Note_on_c, 9, 42, 0
17, 50240, Note_on_c, 9, 42, 97
17, 50272, Note_on_c, 9, 42, 0
17, 50432, Note_on_c, 9, 42, 97
17, 50448, Note_on_c, 9, 42, 0
17, 50624, Note_on_c, 9, 42, 97
17, 50632, Note_on_c, 9, 42, 0
17, 50816, Note_on_c, 9, 42, 97
17, 50824, Note_on_c, 9, 42, 0
17, 51008, Note_on_c, 9, 42, 97
17, 51024, Note_on_c, 9, 42, 0
17, 51200, Note_on_c, 9, 42, 97
17, 51216, Note_on_c, 9, 42, 0
17, 51392, Note_on_c, 9, 42, 97
17, 51400, Note_on_c, 9, 42, 0
17, 51400, End_track
0, 0, End_of_file
