0, 0, Header, 1, 11, 120
1, 0, Start_track
1, 0, Time_signature, 4, 2, 24, 8
1, 0, Key_signature, 0, "major"
1, 0, Tempo, 535714
1, 0, End_track
2, 0, Start_track
2, 0, MIDI_port, 0
2, 0, Title_t, "Gigantic - Pixies"
2, 0, Program_c, 0, 33
2, 0, Control_c, 0, 7, 127
2, 0, Control_c, 0, 10, 64
2, 0, Note_on_c, 0, 31, 127
2, 119, Note_on_c, 0, 31, 0
2, 180, Note_on_c, 0, 38, 127
2, 269, Note_on_c, 0, 38, 0
2, 300, Note_on_c, 0, 40, 127
2, 359, Note_on_c, 0, 40, 0
2, 360, Note_on_c, 0, 40, 127
2, 419, Note_on_c, 0, 40, 0
2, 420, Note_on_c, 0, 35, 127
2, 479, Note_on_c, 0, 35, 0
2, 480, Note_on_c, 0, 35, 127
2, 599, Note_on_c, 0, 35, 0
2, 660, Note_on_c, 0, 36, 127
2, 749, Note_on_c, 0, 36, 0
2, 780, Note_on_c, 0, 38, 127
2, 839, Note_on_c, 0, 38, 0
2, 840, Note_on_c, 0, 38, 127
2, 899, Note_on_c, 0, 38, 0
2, 900, Note_on_c, 0, 31, 127
2, 959, Note_on_c, 0, 31, 0
2, 960, Note_on_c, 0, 31, 127
2, 1079, Note_on_c, 0, 31, 0
2, 1140, Note_on_c, 0, 38, 127
2, 1229, Note_on_c, 0, 38, 0
2, 1260, Note_on_c, 0, 40, 127
2, 1319, Note_on_c, 0, 40, 0
2, 1320, Note_on_c, 0, 40, 127
2, 1379, Note_on_c, 0, 40, 0
2, 1380, Note_on_c, 0, 35, 127
2, 1439, Note_on_c, 0, 35, 0
2, 1440, Note_on_c, 0, 35, 127
2, 1559, Note_on_c, 0, 35, 0
2, 1620, Note_on_c, 0, 36, 127
2, 1709, Note_on_c, 0, 36, 0
2, 1740, Note_on_c, 0, 38, 127
2, 1799, Note_on_c, 0, 38, 0
2, 1800, Note_on_c, 0, 38, 127
2, 1859, Note_on_c, 0, 38, 0
2, 1860, Note_on_c, 0, 31, 127
2, 1919, Note_on_c, 0, 31, 0
2, 1920, Note_on_c, 0, 31, 127
2, 2039, Note_on_c, 0, 31, 0
2, 2100, Note_on_c, 0, 38, 127
2, 2189, Note_on_c, 0, 38, 0
2, 2220, Note_on_c, 0, 40, 127
2, 2279, Note_on_c, 0, 40, 0
2, 2280, Note_on_c, 0, 40, 127
2, 2339, Note_on_c, 0, 40, 0
2, 2340, Note_on_c, 0, 35, 127
2, 2399, Note_on_c, 0, 35, 0
2, 2400, Note_on_c, 0, 35, 127
2, 2519, Note_on_c, 0, 35, 0
2, 2580, Note_on_c, 0, 36, 127
2, 2669, Note_on_c, 0, 36, 0
2, 2700, Note_on_c, 0, 38, 127
2, 2759, Note_on_c, 0, 38, 0
2, 2760, Note_on_c, 0, 38, 127
2, 2819, Note_on_c, 0, 38, 0
2, 2820, Note_on_c, 0, 31, 127
2, 2879, Note_on_c, 0, 31, 0
2, 2880, Note_on_c, 0, 31, 127
2, 2999, Note_on_c, 0, 31, 0
2, 3060, Note_on_c, 0, 38, 127
2, 3149, Note_on_c, 0, 38, 0
2, 3180, Note_on_c, 0, 40, 127
2, 3239, Note_on_c, 0, 40, 0
2, 3240, Note_on_c, 0, 40, 127
2, 3299, Note_on_c, 0, 40, 0
2, 3300, Note_on_c, 0, 35, 127
2, 3359, Note_on_c, 0, 35, 0
2, 3360, Note_on_c, 0, 35, 127
2, 3479, Note_on_c, 0, 35, 0
2, 3540, Note_on_c, 0, 36, 127
2, 3629, Note_on_c, 0, 36, 0
2, 3660, Note_on_c, 0, 38, 127
2, 3719, Note_on_c, 0, 38, 0
2, 3720, Note_on_c, 0, 38, 127
2, 3779, Note_on_c, 0, 38, 0
2, 3780, Note_on_c, 0, 31, 127
2, 3839, Note_on_c, 0, 31, 0
2, 3840, Note_on_c, 0, 31, 127
2, 3959, Note_on_c, 0, 31, 0
2, 4020, Note_on_c, 0, 38, 127
2, 4109, Note_on_c, 0, 38, 0
2, 4140, Note_on_c, 0, 40, 127
2, 4199, Note_on_c, 0, 40, 0
2, 4200, Note_on_c, 0, 40, 127
2, 4259, Note_on_c, 0, 40, 0
2, 4260, Note_on_c, 0, 35, 127
2, 4319, Note_on_c, 0, 35, 0
2, 4320, Note_on_c, 0, 35, 127
2, 4439, Note_on_c, 0, 35, 0
2, 4500, Note_on_c, 0, 36, 127
2, 4589, Note_on_c, 0, 36, 0
2, 4620, Note_on_c, 0, 38, 127
2, 4679, Note_on_c, 0, 38, 0
2, 4680, Note_on_c, 0, 38, 127
2, 4739, Note_on_c, 0, 38, 0
2, 4740, Note_on_c, 0, 31, 127
2, 4799, Note_on_c, 0, 31, 0
2, 4800, Note_on_c, 0, 31, 127
2, 4919, Note_on_c, 0, 31, 0
2, 4980, Note_on_c, 0, 38, 127
2, 5069, Note_on_c, 0, 38, 0
2, 5100, Note_on_c, 0, 40, 127
2, 5159, Note_on_c, 0, 40, 0
2, 5160, Note_on_c, 0, 40, 127
2, 5219, Note_on_c, 0, 40, 0
2, 5220, Note_on_c, 0, 35, 127
2, 5279, Note_on_c, 0, 35, 0
2, 5280, Note_on_c, 0, 35, 127
2, 5399, Note_on_c, 0, 35, 0
2, 5460, Note_on_c, 0, 36, 127
2, 5549, Note_on_c, 0, 36, 0
2, 5580, Note_on_c, 0, 38, 127
2, 5639, Note_on_c, 0, 38, 0
2, 5640, Note_on_c, 0, 38, 127
2, 5699, Note_on_c, 0, 38, 0
2, 5700, Note_on_c, 0, 31, 127
2, 5759, Note_on_c, 0, 31, 0
2, 5760, Note_on_c, 0, 31, 127
2, 5879, Note_on_c, 0, 31, 0
2, 5940, Note_on_c, 0, 38, 127
2, 6029, Note_on_c, 0, 38, 0
2, 6060, Note_on_c, 0, 40, 127
2, 6119, Note_on_c, 0, 40, 0
2, 6120, Note_on_c, 0, 40, 127
2, 6179, Note_on_c, 0, 40, 0
2, 6180, Note_on_c, 0, 35, 127
2, 6239, Note_on_c, 0, 35, 0
2, 6240, Note_on_c, 0, 35, 127
2, 6359, Note_on_c, 0, 35, 0
2, 6420, Note_on_c, 0, 36, 127
2, 6509, Note_on_c, 0, 36, 0
2, 6540, Note_on_c, 0, 38, 127
2, 6599, Note_on_c, 0, 38, 0
2, 6600, Note_on_c, 0, 38, 127
2, 6659, Note_on_c, 0, 38, 0
2, 6660, Note_on_c, 0, 31, 127
2, 6719, Note_on_c, 0, 31, 0
2, 6720, Note_on_c, 0, 31, 127
2, 6839, Note_on_c, 0, 31, 0
2, 6900, Note_on_c, 0, 38, 127
2, 6989, Note_on_c, 0, 38, 0
2, 7020, Note_on_c, 0, 40, 127
2, 7079, Note_on_c, 0, 40, 0
2, 7080, Note_on_c, 0, 40, 127
2, 7139, Note_on_c, 0, 40, 0
2, 7140, Note_on_c, 0, 35, 127
2, 7199, Note_on_c, 0, 35, 0
2, 7200, Note_on_c, 0, 35, 127
2, 7319, Note_on_c, 0, 35, 0
2, 7380, Note_on_c, 0, 36, 127
2, 7469, Note_on_c, 0, 36, 0
2, 7500, Note_on_c, 0, 38, 127
2, 7559, Note_on_c, 0, 38, 0
2, 7560, Note_on_c, 0, 38, 127
2, 7619, Note_on_c, 0, 38, 0
2, 7620, Note_on_c, 0, 31, 127
2, 7679, Note_on_c, 0, 31, 0
2, 7680, Note_on_c, 0, 31, 127
2, 7799, Note_on_c, 0, 31, 0
2, 7860, Note_on_c, 0, 38, 127
2, 7949, Note_on_c, 0, 38, 0
2, 7980, Note_on_c, 0, 40, 127
2, 8039, Note_on_c, 0, 40, 0
2, 8040, Note_on_c, 0, 40, 127
2, 8099, Note_on_c, 0, 40, 0
2, 8100, Note_on_c, 0, 35, 127
2, 8159, Note_on_c, 0, 35, 0
2, 8160, Note_on_c, 0, 35, 127
2, 8279, Note_on_c, 0, 35, 0
2, 8340, Note_on_c, 0, 36, 127
2, 8429, Note_on_c, 0, 36, 0
2, 8460, Note_on_c, 0, 38, 127
2, 8519, Note_on_c, 0, 38, 0
2, 8520, Note_on_c, 0, 38, 127
2, 8579, Note_on_c, 0, 38, 0
2, 8580, Note_on_c, 0, 31, 127
2, 8639, Note_on_c, 0, 31, 0
2, 8640, Note_on_c, 0, 31, 127
2, 8759, Note_on_c, 0, 31, 0
2, 8820, Note_on_c, 0, 38, 127
2, 8909, Note_on_c, 0, 38, 0
2, 8940, Note_on_c, 0, 40, 127
2, 8999, Note_on_c, 0, 40, 0
2, 9000, Note_on_c, 0, 40, 127
2, 9059, Note_on_c, 0, 40, 0
2, 9060, Note_on_c, 0, 35, 127
2, 9119, Note_on_c, 0, 35, 0
2, 9120, Note_on_c, 0, 35, 127
2, 9239, Note_on_c, 0, 35, 0
2, 9300, Note_on_c, 0, 36, 127
2, 9389, Note_on_c, 0, 36, 0
2, 9420, Note_on_c, 0, 38, 127
2, 9479, Note_on_c, 0, 38, 0
2, 9480, Note_on_c, 0, 38, 127
2, 9539, Note_on_c, 0, 38, 0
2, 9540, Note_on_c, 0, 31, 127
2, 9599, Note_on_c, 0, 31, 0
2, 9600, Note_on_c, 0, 31, 127
2, 9719, Note_on_c, 0, 31, 0
2, 9780, Note_on_c, 0, 38, 127
2, 9869, Note_on_c, 0, 38, 0
2, 9900, Note_on_c, 0, 40, 127
2, 9959, Note_on_c, 0, 40, 0
2, 9960, Note_on_c, 0, 40, 127
2, 10019, Note_on_c, 0, 40, 0
2, 10020, Note_on_c, 0, 35, 127
2, 10079, Note_on_c, 0, 35, 0
2, 10080, Note_on_c, 0, 35, 127
2, 10199, Note_on_c, 0, 35, 0
2, 10260, Note_on_c, 0, 36, 127
2, 10349, Note_on_c, 0, 36, 0
2, 10380, Note_on_c, 0, 38, 127
2, 10439, Note_on_c, 0, 38, 0
2, 10440, Note_on_c, 0, 38, 127
2, 10499, Note_on_c, 0, 38, 0
2, 10500, Note_on_c, 0, 31, 127
2, 10559, Note_on_c, 0, 31, 0
2, 10560, Note_on_c, 0, 31, 127
2, 10679, Note_on_c, 0, 31, 0
2, 10740, Note_on_c, 0, 38, 127
2, 10829, Note_on_c, 0, 38, 0
2, 10860, Note_on_c, 0, 40, 127
2, 10919, Note_on_c, 0, 40, 0
2, 10920, Note_on_c, 0, 40, 127
2, 10979, Note_on_c, 0, 40, 0
2, 10980, Note_on_c, 0, 35, 127
2, 11039, Note_on_c, 0, 35, 0
2, 11040, Note_on_c, 0, 35, 127
2, 11159, Note_on_c, 0, 35, 0
2, 11220, Note_on_c, 0, 36, 127
2, 11309, Note_on_c, 0, 36, 0
2, 11340, Note_on_c, 0, 38, 127
2, 11399, Note_on_c, 0, 38, 0
2, 11400, Note_on_c, 0, 38, 127
2, 11459, Note_on_c, 0, 38, 0
2, 11460, Note_on_c, 0, 31, 127
2, 11519, Note_on_c, 0, 31, 0
2, 11520, Note_on_c, 0, 31, 127
2, 11639, Note_on_c, 0, 31, 0
2, 11700, Note_on_c, 0, 38, 127
2, 11789, Note_on_c, 0, 38, 0
2, 11820, Note_on_c, 0, 40, 127
2, 11879, Note_on_c, 0, 40, 0
2, 11880, Note_on_c, 0, 40, 127
2, 11939, Note_on_c, 0, 40, 0
2, 11940, Note_on_c, 0, 35, 127
2, 11999, Note_on_c, 0, 35, 0
2, 12000, Note_on_c, 0, 35, 127
2, 12119, Note_on_c, 0, 35, 0
2, 12180, Note_on_c, 0, 36, 127
2, 12269, Note_on_c, 0, 36, 0
2, 12300, Note_on_c, 0, 38, 127
2, 12359, Note_on_c, 0, 38, 0
2, 12360, Note_on_c, 0, 38, 127
2, 12419, Note_on_c, 0, 38, 0
2, 12420, Note_on_c, 0, 31, 127
2, 12479, Note_on_c, 0, 31, 0
2, 12480, Note_on_c, 0, 31, 127
2, 12599, Note_on_c, 0, 31, 0
2, 12660, Note_on_c, 0, 38, 127
2, 12749, Note_on_c, 0, 38, 0
2, 12780, Note_on_c, 0, 40, 127
2, 12839, Note_on_c, 0, 40, 0
2, 12840, Note_on_c, 0, 40, 127
2, 12899, Note_on_c, 0, 40, 0
2, 12900, Note_on_c, 0, 35, 127
2, 12959, Note_on_c, 0, 35, 0
2, 12960, Note_on_c, 0, 35, 127
2, 13079, Note_on_c, 0, 35, 0
2, 13140, Note_on_c, 0, 36, 127
2, 13229, Note_on_c, 0, 36, 0
2, 13260, Note_on_c, 0, 38, 127
2, 13319, Note_on_c, 0, 38, 0
2, 13320, Note_on_c, 0, 38, 127
2, 13379, Note_on_c, 0, 38, 0
2, 13380, Note_on_c, 0, 31, 127
2, 13439, Note_on_c, 0, 31, 0
2, 13440, Note_on_c, 0, 31, 127
2, 13559, Note_on_c, 0, 31, 0
2, 13620, Note_on_c, 0, 38, 127
2, 13709, Note_on_c, 0, 38, 0
2, 13740, Note_on_c, 0, 40, 127
2, 13799, Note_on_c, 0, 40, 0
2, 13800, Note_on_c, 0, 40, 127
2, 13859, Note_on_c, 0, 40, 0
2, 13860, Note_on_c, 0, 35, 127
2, 13919, Note_on_c, 0, 35, 0
2, 13920, Note_on_c, 0, 35, 127
2, 14039, Note_on_c, 0, 35, 0
2, 14100, Note_on_c, 0, 36, 127
2, 14189, Note_on_c, 0, 36, 0
2, 14220, Note_on_c, 0, 38, 127
2, 14279, Note_on_c, 0, 38, 0
2, 14280, Note_on_c, 0, 38, 127
2, 14339, Note_on_c, 0, 38, 0
2, 14340, Note_on_c, 0, 31, 127
2, 14399, Note_on_c, 0, 31, 0
2, 14400, Note_on_c, 0, 31, 127
2, 14519, Note_on_c, 0, 31, 0
2, 14580, Note_on_c, 0, 38, 127
2, 14669, Note_on_c, 0, 38, 0
2, 14700, Note_on_c, 0, 40, 127
2, 14759, Note_on_c, 0, 40, 0
2, 14760, Note_on_c, 0, 40, 127
2, 14819, Note_on_c, 0, 40, 0
2, 14820, Note_on_c, 0, 35, 127
2, 14879, Note_on_c, 0, 35, 0
2, 14880, Note_on_c, 0, 35, 127
2, 14999, Note_on_c, 0, 35, 0
2, 15060, Note_on_c, 0, 36, 127
2, 15149, Note_on_c, 0, 36, 0
2, 15180, Note_on_c, 0, 38, 127
2, 15239, Note_on_c, 0, 38, 0
2, 15240, Note_on_c, 0, 38, 127
2, 15299, Note_on_c, 0, 38, 0
2, 15300, Note_on_c, 0, 31, 127
2, 15359, Note_on_c, 0, 31, 0
2, 15360, Note_on_c, 0, 31, 127
2, 15479, Note_on_c, 0, 31, 0
2, 15540, Note_on_c, 0, 38, 127
2, 15629, Note_on_c, 0, 38, 0
2, 15660, Note_on_c, 0, 40, 127
2, 15719, Note_on_c, 0, 40, 0
2, 15720, Note_on_c, 0, 40, 127
2, 15779, Note_on_c, 0, 40, 0
2, 15780, Note_on_c, 0, 35, 127
2, 15839, Note_on_c, 0, 35, 0
2, 15840, Note_on_c, 0, 35, 127
2, 15959, Note_on_c, 0, 35, 0
2, 16020, Note_on_c, 0, 36, 127
2, 16109, Note_on_c, 0, 36, 0
2, 16140, Note_on_c, 0, 38, 127
2, 16199, Note_on_c, 0, 38, 0
2, 16200, Note_on_c, 0, 38, 127
2, 16259, Note_on_c, 0, 38, 0
2, 16260, Note_on_c, 0, 31, 127
2, 16319, Note_on_c, 0, 31, 0
2, 16320, Note_on_c, 0, 31, 127
2, 16439, Note_on_c, 0, 31, 0
2, 16500, Note_on_c, 0, 38, 127
2, 16589, Note_on_c, 0, 38, 0
2, 16620, Note_on_c, 0, 40, 127
2, 16679, Note_on_c, 0, 40, 0
2, 16680, Note_on_c, 0, 40, 127
2, 16739, Note_on_c, 0, 40, 0
2, 16740, Note_on_c, 0, 35, 127
2, 16799, Note_on_c, 0, 35, 0
2, 16800, Note_on_c, 0, 35, 127
2, 16919, Note_on_c, 0, 35, 0
2, 16980, Note_on_c, 0, 36, 127
2, 17069, Note_on_c, 0, 36, 0
2, 17100, Note_on_c, 0, 38, 127
2, 17159, Note_on_c, 0, 38, 0
2, 17160, Note_on_c, 0, 38, 127
2, 17219, Note_on_c, 0, 38, 0
2, 17220, Note_on_c, 0, 31, 127
2, 17279, Note_on_c, 0, 31, 0
2, 17280, Note_on_c, 0, 31, 127
2, 17399, Note_on_c, 0, 31, 0
2, 17460, Note_on_c, 0, 38, 127
2, 17549, Note_on_c, 0, 38, 0
2, 17580, Note_on_c, 0, 40, 127
2, 17639, Note_on_c, 0, 40, 0
2, 17640, Note_on_c, 0, 40, 127
2, 17699, Note_on_c, 0, 40, 0
2, 17700, Note_on_c, 0, 35, 127
2, 17759, Note_on_c, 0, 35, 0
2, 17760, Note_on_c, 0, 35, 127
2, 17879, Note_on_c, 0, 35, 0
2, 17940, Note_on_c, 0, 36, 127
2, 18029, Note_on_c, 0, 36, 0
2, 18060, Note_on_c, 0, 38, 127
2, 18119, Note_on_c, 0, 38, 0
2, 18120, Note_on_c, 0, 38, 127
2, 18179, Note_on_c, 0, 38, 0
2, 18180, Note_on_c, 0, 31, 127
2, 18239, Note_on_c, 0, 31, 0
2, 18240, Note_on_c, 0, 31, 127
2, 18359, Note_on_c, 0, 31, 0
2, 18420, Note_on_c, 0, 38, 127
2, 18509, Note_on_c, 0, 38, 0
2, 18540, Note_on_c, 0, 40, 127
2, 18599, Note_on_c, 0, 40, 0
2, 18600, Note_on_c, 0, 40, 127
2, 18659, Note_on_c, 0, 40, 0
2, 18660, Note_on_c, 0, 35, 127
2, 18719, Note_on_c, 0, 35, 0
2, 18720, Note_on_c, 0, 35, 127
2, 18839, Note_on_c, 0, 35, 0
2, 18900, Note_on_c, 0, 36, 127
2, 18989, Note_on_c, 0, 36, 0
2, 19020, Note_on_c, 0, 38, 127
2, 19079, Note_on_c, 0, 38, 0
2, 19080, Note_on_c, 0, 38, 127
2, 19139, Note_on_c, 0, 38, 0
2, 19140, Note_on_c, 0, 31, 127
2, 19199, Note_on_c, 0, 31, 0
2, 19200, Note_on_c, 0, 31, 127
2, 19319, Note_on_c, 0, 31, 0
2, 19380, Note_on_c, 0, 38, 127
2, 19469, Note_on_c, 0, 38, 0
2, 19500, Note_on_c, 0, 40, 127
2, 19559, Note_on_c, 0, 40, 0
2, 19560, Note_on_c, 0, 40, 127
2, 19619, Note_on_c, 0, 40, 0
2, 19620, Note_on_c, 0, 35, 127
2, 19679, Note_on_c, 0, 35, 0
2, 19680, Note_on_c, 0, 35, 127
2, 19799, Note_on_c, 0, 35, 0
2, 19860, Note_on_c, 0, 36, 127
2, 19949, Note_on_c, 0, 36, 0
2, 19980, Note_on_c, 0, 38, 127
2, 20039, Note_on_c, 0, 38, 0
2, 20040, Note_on_c, 0, 38, 127
2, 20099, Note_on_c, 0, 38, 0
2, 20100, Note_on_c, 0, 31, 127
2, 20159, Note_on_c, 0, 31, 0
2, 20160, Note_on_c, 0, 31, 127
2, 20279, Note_on_c, 0, 31, 0
2, 20340, Note_on_c, 0, 38, 127
2, 20429, Note_on_c, 0, 38, 0
2, 20460, Note_on_c, 0, 40, 127
2, 20519, Note_on_c, 0, 40, 0
2, 20520, Note_on_c, 0, 40, 127
2, 20579, Note_on_c, 0, 40, 0
2, 20580, Note_on_c, 0, 35, 127
2, 20639, Note_on_c, 0, 35, 0
2, 20640, Note_on_c, 0, 35, 127
2, 20759, Note_on_c, 0, 35, 0
2, 20820, Note_on_c, 0, 36, 127
2, 20909, Note_on_c, 0, 36, 0
2, 20940, Note_on_c, 0, 38, 127
2, 20999, Note_on_c, 0, 38, 0
2, 21000, Note_on_c, 0, 38, 127
2, 21059, Note_on_c, 0, 38, 0
2, 21060, Note_on_c, 0, 31, 127
2, 21119, Note_on_c, 0, 31, 0
2, 21120, Note_on_c, 0, 31, 127
2, 21239, Note_on_c, 0, 31, 0
2, 21300, Note_on_c, 0, 38, 127
2, 21389, Note_on_c, 0, 38, 0
2, 21420, Note_on_c, 0, 40, 127
2, 21479, Note_on_c, 0, 40, 0
2, 21480, Note_on_c, 0, 40, 127
2, 21539, Note_on_c, 0, 40, 0
2, 21540, Note_on_c, 0, 35, 127
2, 21599, Note_on_c, 0, 35, 0
2, 21600, Note_on_c, 0, 35, 127
2, 21719, Note_on_c, 0, 35, 0
2, 21780, Note_on_c, 0, 36, 127
2, 21869, Note_on_c, 0, 36, 0
2, 21900, Note_on_c, 0, 38, 127
2, 21959, Note_on_c, 0, 38, 0
2, 21960, Note_on_c, 0, 38, 127
2, 22019, Note_on_c, 0, 38, 0
2, 22020, Note_on_c, 0, 31, 127
2, 22079, Note_on_c, 0, 31, 0
2, 22080, Note_on_c, 0, 31, 127
2, 22199, Note_on_c, 0, 31, 0
2, 22260, Note_on_c, 0, 38, 127
2, 22349, Note_on_c, 0, 38, 0
2, 22380, Note_on_c, 0, 40, 127
2, 22439, Note_on_c, 0, 40, 0
2, 22440, Note_on_c, 0, 40, 127
2, 22499, Note_on_c, 0, 40, 0
2, 22500, Note_on_c, 0, 35, 127
2, 22559, Note_on_c, 0, 35, 0
2, 22560, Note_on_c, 0, 35, 127
2, 22679, Note_on_c, 0, 35, 0
2, 22740, Note_on_c, 0, 36, 127
2, 22829, Note_on_c, 0, 36, 0
2, 22860, Note_on_c, 0, 38, 127
2, 22919, Note_on_c, 0, 38, 0
2, 22920, Note_on_c, 0, 38, 127
2, 22979, Note_on_c, 0, 38, 0
2, 22980, Note_on_c, 0, 31, 127
2, 23039, Note_on_c, 0, 31, 0
2, 23040, Note_on_c, 0, 31, 127
2, 23159, Note_on_c, 0, 31, 0
2, 23220, Note_on_c, 0, 38, 127
2, 23309, Note_on_c, 0, 38, 0
2, 23340, Note_on_c, 0, 40, 127
2, 23399, Note_on_c, 0, 40, 0
2, 23400, Note_on_c, 0, 40, 127
2, 23459, Note_on_c, 0, 40, 0
2, 23460, Note_on_c, 0, 35, 127
2, 23519, Note_on_c, 0, 35, 0
2, 23520, Note_on_c, 0, 35, 127
2, 23639, Note_on_c, 0, 35, 0
2, 23700, Note_on_c, 0, 36, 127
2, 23789, Note_on_c, 0, 36, 0
2, 23820, Note_on_c, 0, 38, 127
2, 23879, Note_on_c, 0, 38, 0
2, 23880, Note_on_c, 0, 38, 127
2, 23939, Note_on_c, 0, 38, 0
2, 23940, Note_on_c, 0, 31, 127
2, 23999, Note_on_c, 0, 31, 0
2, 24000, Note_on_c, 0, 31, 127
2, 24119, Note_on_c, 0, 31, 0
2, 24180, Note_on_c, 0, 38, 127
2, 24269, Note_on_c, 0, 38, 0
2, 24300, Note_on_c, 0, 40, 127
2, 24359, Note_on_c, 0, 40, 0
2, 24360, Note_on_c, 0, 40, 127
2, 24419, Note_on_c, 0, 40, 0
2, 24420, Note_on_c, 0, 35, 127
2, 24479, Note_on_c, 0, 35, 0
2, 24480, Note_on_c, 0, 35, 127
2, 24599, Note_on_c, 0, 35, 0
2, 24660, Note_on_c, 0, 36, 127
2, 24749, Note_on_c, 0, 36, 0
2, 24780, Note_on_c, 0, 38, 127
2, 24839, Note_on_c, 0, 38, 0
2, 24840, Note_on_c, 0, 38, 127
2, 24899, Note_on_c, 0, 38, 0
2, 24900, Note_on_c, 0, 31, 127
2, 24959, Note_on_c, 0, 31, 0
2, 26880, Note_on_c, 0, 31, 127
2, 26999, Note_on_c, 0, 31, 0
2, 27060, Note_on_c, 0, 38, 127
2, 27149, Note_on_c, 0, 38, 0
2, 27180, Note_on_c, 0, 40, 127
2, 27239, Note_on_c, 0, 40, 0
2, 27240, Note_on_c, 0, 40, 127
2, 27299, Note_on_c, 0, 40, 0
2, 27300, Note_on_c, 0, 35, 127
2, 27359, Note_on_c, 0, 35, 0
2, 27360, Note_on_c, 0, 35, 127
2, 27479, Note_on_c, 0, 35, 0
2, 27540, Note_on_c, 0, 36, 127
2, 27629, Note_on_c, 0, 36, 0
2, 27660, Note_on_c, 0, 38, 127
2, 27719, Note_on_c, 0, 38, 0
2, 27720, Note_on_c, 0, 38, 127
2, 27779, Note_on_c, 0, 38, 0
2, 27780, Note_on_c, 0, 31, 127
2, 27839, Note_on_c, 0, 31, 0
2, 27840, Note_on_c, 0, 31, 127
2, 27959, Note_on_c, 0, 31, 0
2, 28020, Note_on_c, 0, 38, 127
2, 28109, Note_on_c, 0, 38, 0
2, 28140, Note_on_c, 0, 40, 127
2, 28199, Note_on_c, 0, 40, 0
2, 28200, Note_on_c, 0, 40, 127
2, 28259, Note_on_c, 0, 40, 0
2, 28260, Note_on_c, 0, 35, 127
2, 28319, Note_on_c, 0, 35, 0
2, 28320, Note_on_c, 0, 35, 127
2, 28439, Note_on_c, 0, 35, 0
2, 28500, Note_on_c, 0, 36, 127
2, 28589, Note_on_c, 0, 36, 0
2, 28620, Note_on_c, 0, 38, 127
2, 28679, Note_on_c, 0, 38, 0
2, 28680, Note_on_c, 0, 38, 127
2, 28739, Note_on_c, 0, 38, 0
2, 28740, Note_on_c, 0, 31, 127
2, 28799, Note_on_c, 0, 31, 0
2, 28800, Note_on_c, 0, 31, 127
2, 28919, Note_on_c, 0, 31, 0
2, 28980, Note_on_c, 0, 38, 127
2, 29069, Note_on_c, 0, 38, 0
2, 29100, Note_on_c, 0, 40, 127
2, 29159, Note_on_c, 0, 40, 0
2, 29160, Note_on_c, 0, 40, 127
2, 29219, Note_on_c, 0, 40, 0
2, 29220, Note_on_c, 0, 35, 127
2, 29279, Note_on_c, 0, 35, 0
2, 29280, Note_on_c, 0, 35, 127
2, 29399, Note_on_c, 0, 35, 0
2, 29460, Note_on_c, 0, 36, 127
2, 29549, Note_on_c, 0, 36, 0
2, 29580, Note_on_c, 0, 38, 127
2, 29639, Note_on_c, 0, 38, 0
2, 29640, Note_on_c, 0, 38, 127
2, 29699, Note_on_c, 0, 38, 0
2, 29700, Note_on_c, 0, 31, 127
2, 29759, Note_on_c, 0, 31, 0
2, 29760, Note_on_c, 0, 31, 127
2, 29879, Note_on_c, 0, 31, 0
2, 29940, Note_on_c, 0, 38, 127
2, 30029, Note_on_c, 0, 38, 0
2, 30060, Note_on_c, 0, 40, 127
2, 30119, Note_on_c, 0, 40, 0
2, 30120, Note_on_c, 0, 40, 127
2, 30179, Note_on_c, 0, 40, 0
2, 30180, Note_on_c, 0, 35, 127
2, 30239, Note_on_c, 0, 35, 0
2, 30240, Note_on_c, 0, 35, 127
2, 30359, Note_on_c, 0, 35, 0
2, 30420, Note_on_c, 0, 36, 127
2, 30509, Note_on_c, 0, 36, 0
2, 30540, Note_on_c, 0, 38, 127
2, 30599, Note_on_c, 0, 38, 0
2, 30600, Note_on_c, 0, 38, 127
2, 30659, Note_on_c, 0, 38, 0
2, 30660, Note_on_c, 0, 31, 127
2, 30719, Note_on_c, 0, 31, 0
2, 30720, Note_on_c, 0, 31, 127
2, 30839, Note_on_c, 0, 31, 0
2, 30900, Note_on_c, 0, 38, 127
2, 30989, Note_on_c, 0, 38, 0
2, 31020, Note_on_c, 0, 40, 127
2, 31079, Note_on_c, 0, 40, 0
2, 31080, Note_on_c, 0, 40, 127
2, 31139, Note_on_c, 0, 40, 0
2, 31140, Note_on_c, 0, 35, 127
2, 31199, Note_on_c, 0, 35, 0
2, 31200, Note_on_c, 0, 35, 127
2, 31319, Note_on_c, 0, 35, 0
2, 31380, Note_on_c, 0, 36, 127
2, 31469, Note_on_c, 0, 36, 0
2, 31500, Note_on_c, 0, 38, 127
2, 31559, Note_on_c, 0, 38, 0
2, 31560, Note_on_c, 0, 38, 127
2, 31619, Note_on_c, 0, 38, 0
2, 31620, Note_on_c, 0, 31, 127
2, 31679, Note_on_c, 0, 31, 0
2, 31680, Note_on_c, 0, 31, 127
2, 31799, Note_on_c, 0, 31, 0
2, 31860, Note_on_c, 0, 38, 127
2, 31949, Note_on_c, 0, 38, 0
2, 31980, Note_on_c, 0, 40, 127
2, 32039, Note_on_c, 0, 40, 0
2, 32040, Note_on_c, 0, 40, 127
2, 32099, Note_on_c, 0, 40, 0
2, 32100, Note_on_c, 0, 35, 127
2, 32159, Note_on_c, 0, 35, 0
2, 32160, Note_on_c, 0, 35, 127
2, 32279, Note_on_c, 0, 35, 0
2, 32340, Note_on_c, 0, 36, 127
2, 32429, Note_on_c, 0, 36, 0
2, 32460, Note_on_c, 0, 38, 127
2, 32519, Note_on_c, 0, 38, 0
2, 32520, Note_on_c, 0, 38, 127
2, 32579, Note_on_c, 0, 38, 0
2, 32580, Note_on_c, 0, 31, 127
2, 32639, Note_on_c, 0, 31, 0
2, 32640, Note_on_c, 0, 31, 127
2, 32759, Note_on_c, 0, 31, 0
2, 32820, Note_on_c, 0, 38, 127
2, 32909, Note_on_c, 0, 38, 0
2, 32940, Note_on_c, 0, 40, 127
2, 32999, Note_on_c, 0, 40, 0
2, 33000, Note_on_c, 0, 40, 127
2, 33059, Note_on_c, 0, 40, 0
2, 33060, Note_on_c, 0, 35, 127
2, 33119, Note_on_c, 0, 35, 0
2, 33120, Note_on_c, 0, 35, 127
2, 33239, Note_on_c, 0, 35, 0
2, 33300, Note_on_c, 0, 36, 127
2, 33389, Note_on_c, 0, 36, 0
2, 33420, Note_on_c, 0, 38, 127
2, 33479, Note_on_c, 0, 38, 0
2, 33480, Note_on_c, 0, 38, 127
2, 33539, Note_on_c, 0, 38, 0
2, 33540, Note_on_c, 0, 31, 127
2, 33599, Note_on_c, 0, 31, 0
2, 33600, Note_on_c, 0, 31, 127
2, 33719, Note_on_c, 0, 31, 0
2, 33780, Note_on_c, 0, 38, 127
2, 33869, Note_on_c, 0, 38, 0
2, 33900, Note_on_c, 0, 40, 127
2, 33959, Note_on_c, 0, 40, 0
2, 33960, Note_on_c, 0, 40, 127
2, 34019, Note_on_c, 0, 40, 0
2, 34020, Note_on_c, 0, 35, 127
2, 34079, Note_on_c, 0, 35, 0
2, 34080, Note_on_c, 0, 35, 127
2, 34199, Note_on_c, 0, 35, 0
2, 34260, Note_on_c, 0, 36, 127
2, 34349, Note_on_c, 0, 36, 0
2, 34380, Note_on_c, 0, 38, 127
2, 34439, Note_on_c, 0, 38, 0
2, 34440, Note_on_c, 0, 38, 127
2, 34499, Note_on_c, 0, 38, 0
2, 34500, Note_on_c, 0, 31, 127
2, 34559, Note_on_c, 0, 31, 0
2, 34560, Note_on_c, 0, 31, 127
2, 34679, Note_on_c, 0, 31, 0
2, 34740, Note_on_c, 0, 38, 127
2, 34829, Note_on_c, 0, 38, 0
2, 34860, Note_on_c, 0, 40, 127
2, 34919, Note_on_c, 0, 40, 0
2, 34920, Note_on_c, 0, 40, 127
2, 34979, Note_on_c, 0, 40, 0
2, 34980, Note_on_c, 0, 35, 127
2, 35039, Note_on_c, 0, 35, 0
2, 35040, Note_on_c, 0, 35, 127
2, 35159, Note_on_c, 0, 35, 0
2, 35220, Note_on_c, 0, 36, 127
2, 35309, Note_on_c, 0, 36, 0
2, 35340, Note_on_c, 0, 38, 127
2, 35399, Note_on_c, 0, 38, 0
2, 35400, Note_on_c, 0, 38, 127
2, 35459, Note_on_c, 0, 38, 0
2, 35460, Note_on_c, 0, 31, 127
2, 35519, Note_on_c, 0, 31, 0
2, 35520, Note_on_c, 0, 31, 127
2, 35639, Note_on_c, 0, 31, 0
2, 35700, Note_on_c, 0, 38, 127
2, 35789, Note_on_c, 0, 38, 0
2, 35820, Note_on_c, 0, 40, 127
2, 35879, Note_on_c, 0, 40, 0
2, 35880, Note_on_c, 0, 40, 127
2, 35939, Note_on_c, 0, 40, 0
2, 35940, Note_on_c, 0, 35, 127
2, 35999, Note_on_c, 0, 35, 0
2, 36000, Note_on_c, 0, 35, 127
2, 36119, Note_on_c, 0, 35, 0
2, 36180, Note_on_c, 0, 36, 127
2, 36269, Note_on_c, 0, 36, 0
2, 36300, Note_on_c, 0, 38, 127
2, 36359, Note_on_c, 0, 38, 0
2, 36360, Note_on_c, 0, 38, 127
2, 36419, Note_on_c, 0, 38, 0
2, 36420, Note_on_c, 0, 31, 127
2, 36479, Note_on_c, 0, 31, 0
2, 36480, Note_on_c, 0, 31, 127
2, 36599, Note_on_c, 0, 31, 0
2, 36660, Note_on_c, 0, 38, 127
2, 36749, Note_on_c, 0, 38, 0
2, 36780, Note_on_c, 0, 40, 127
2, 36839, Note_on_c, 0, 40, 0
2, 36840, Note_on_c, 0, 40, 127
2, 36899, Note_on_c, 0, 40, 0
2, 36900, Note_on_c, 0, 35, 127
2, 36959, Note_on_c, 0, 35, 0
2, 36960, Note_on_c, 0, 35, 127
2, 37079, Note_on_c, 0, 35, 0
2, 37140, Note_on_c, 0, 36, 127
2, 37229, Note_on_c, 0, 36, 0
2, 37260, Note_on_c, 0, 38, 127
2, 37319, Note_on_c, 0, 38, 0
2, 37320, Note_on_c, 0, 38, 127
2, 37379, Note_on_c, 0, 38, 0
2, 37380, Note_on_c, 0, 31, 127
2, 37439, Note_on_c, 0, 31, 0
2, 37440, Note_on_c, 0, 31, 127
2, 37559, Note_on_c, 0, 31, 0
2, 37620, Note_on_c, 0, 38, 127
2, 37709, Note_on_c, 0, 38, 0
2, 37740, Note_on_c, 0, 40, 127
2, 37799, Note_on_c, 0, 40, 0
2, 37800, Note_on_c, 0, 40, 127
2, 37859, Note_on_c, 0, 40, 0
2, 37860, Note_on_c, 0, 35, 127
2, 37919, Note_on_c, 0, 35, 0
2, 37920, Note_on_c, 0, 35, 127
2, 38039, Note_on_c, 0, 35, 0
2, 38100, Note_on_c, 0, 36, 127
2, 38189, Note_on_c, 0, 36, 0
2, 38220, Note_on_c, 0, 38, 127
2, 38279, Note_on_c, 0, 38, 0
2, 38280, Note_on_c, 0, 38, 127
2, 38339, Note_on_c, 0, 38, 0
2, 38340, Note_on_c, 0, 31, 127
2, 38399, Note_on_c, 0, 31, 0
2, 38400, Note_on_c, 0, 31, 127
2, 38519, Note_on_c, 0, 31, 0
2, 38580, Note_on_c, 0, 38, 127
2, 38669, Note_on_c, 0, 38, 0
2, 38700, Note_on_c, 0, 40, 127
2, 38759, Note_on_c, 0, 40, 0
2, 38760, Note_on_c, 0, 40, 127
2, 38819, Note_on_c, 0, 40, 0
2, 38820, Note_on_c, 0, 35, 127
2, 38879, Note_on_c, 0, 35, 0
2, 38880, Note_on_c, 0, 35, 127
2, 38999, Note_on_c, 0, 35, 0
2, 39060, Note_on_c, 0, 36, 127
2, 39149, Note_on_c, 0, 36, 0
2, 39180, Note_on_c, 0, 38, 127
2, 39239, Note_on_c, 0, 38, 0
2, 39240, Note_on_c, 0, 38, 127
2, 39299, Note_on_c, 0, 38, 0
2, 39300, Note_on_c, 0, 31, 127
2, 39359, Note_on_c, 0, 31, 0
2, 39360, Note_on_c, 0, 31, 127
2, 39479, Note_on_c, 0, 31, 0
2, 39540, Note_on_c, 0, 38, 127
2, 39629, Note_on_c, 0, 38, 0
2, 39660, Note_on_c, 0, 40, 127
2, 39719, Note_on_c, 0, 40, 0
2, 39720, Note_on_c, 0, 40, 127
2, 39779, Note_on_c, 0, 40, 0
2, 39780, Note_on_c, 0, 35, 127
2, 39839, Note_on_c, 0, 35, 0
2, 39840, Note_on_c, 0, 35, 127
2, 39959, Note_on_c, 0, 35, 0
2, 40020, Note_on_c, 0, 36, 127
2, 40109, Note_on_c, 0, 36, 0
2, 40140, Note_on_c, 0, 38, 127
2, 40199, Note_on_c, 0, 38, 0
2, 40200, Note_on_c, 0, 38, 127
2, 40259, Note_on_c, 0, 38, 0
2, 40260, Note_on_c, 0, 31, 127
2, 40319, Note_on_c, 0, 31, 0
2, 40320, Note_on_c, 0, 31, 127
2, 40439, Note_on_c, 0, 31, 0
2, 40500, Note_on_c, 0, 38, 127
2, 40589, Note_on_c, 0, 38, 0
2, 40620, Note_on_c, 0, 40, 127
2, 40679, Note_on_c, 0, 40, 0
2, 40680, Note_on_c, 0, 40, 127
2, 40739, Note_on_c, 0, 40, 0
2, 40740, Note_on_c, 0, 35, 127
2, 40799, Note_on_c, 0, 35, 0
2, 40800, Note_on_c, 0, 35, 127
2, 40919, Note_on_c, 0, 35, 0
2, 40980, Note_on_c, 0, 36, 127
2, 41069, Note_on_c, 0, 36, 0
2, 41100, Note_on_c, 0, 38, 127
2, 41159, Note_on_c, 0, 38, 0
2, 41160, Note_on_c, 0, 38, 127
2, 41219, Note_on_c, 0, 38, 0
2, 41220, Note_on_c, 0, 31, 127
2, 41279, Note_on_c, 0, 31, 0
2, 41280, Note_on_c, 0, 31, 127
2, 41399, Note_on_c, 0, 31, 0
2, 41460, Note_on_c, 0, 38, 127
2, 41549, Note_on_c, 0, 38, 0
2, 41580, Note_on_c, 0, 40, 127
2, 41639, Note_on_c, 0, 40, 0
2, 41640, Note_on_c, 0, 40, 127
2, 41699, Note_on_c, 0, 40, 0
2, 41700, Note_on_c, 0, 35, 127
2, 41759, Note_on_c, 0, 35, 0
2, 41760, Note_on_c, 0, 35, 127
2, 41879, Note_on_c, 0, 35, 0
2, 41940, Note_on_c, 0, 36, 127
2, 42029, Note_on_c, 0, 36, 0
2, 42060, Note_on_c, 0, 38, 127
2, 42119, Note_on_c, 0, 38, 0
2, 42120, Note_on_c, 0, 38, 127
2, 42179, Note_on_c, 0, 38, 0
2, 42180, Note_on_c, 0, 31, 127
2, 42239, Note_on_c, 0, 31, 0
2, 42239, End_track
3, 0, Start_track
3, 0, MIDI_port, 0
3, 0, Title_t, "from the Gigantic EP"
3, 0, Program_c, 9, 8
3, 0, Control_c, 9, 7, 127
3, 120, Note_on_c, 9, 37, 127
3, 134, Note_on_c, 9, 37, 0
3, 360, Note_on_c, 9, 37, 127
3, 374, Note_on_c, 9, 37, 0
3, 600, Note_on_c, 9, 37, 127
3, 614, Note_on_c, 9, 37, 0
3, 840, Note_on_c, 9, 37, 127
3, 854, Note_on_c, 9, 37, 0
3, 1080, Note_on_c, 9, 37, 127
3, 1094, Note_on_c, 9, 37, 0
3, 1320, Note_on_c, 9, 37, 127
3, 1334, Note_on_c, 9, 37, 0
3, 1560, Note_on_c, 9, 37, 127
3, 1574, Note_on_c, 9, 37, 0
3, 1800, Note_on_c, 9, 37, 127
3, 1814, Note_on_c, 9, 37, 0
3, 2040, Note_on_c, 9, 37, 127
3, 2054, Note_on_c, 9, 37, 0
3, 2280, Note_on_c, 9, 37, 127
3, 2294, Note_on_c, 9, 37, 0
3, 2520, Note_on_c, 9, 37, 127
3, 2534, Note_on_c, 9, 37, 0
3, 2760, Note_on_c, 9, 37, 127
3, 2774, Note_on_c, 9, 37, 0
3, 2820, Note_on_c, 9, 54, 127
3, 2834, Note_on_c, 9, 54, 0
3, 3000, Note_on_c, 9, 37, 127
3, 3014, Note_on_c, 9, 37, 0
3, 3240, Note_on_c, 9, 37, 127
3, 3254, Note_on_c, 9, 37, 0
3, 3480, Note_on_c, 9, 37, 127
3, 3494, Note_on_c, 9, 37, 0
3, 3720, Note_on_c, 9, 37, 127
3, 3734, Note_on_c, 9, 37, 0
3, 3780, Note_on_c, 9, 54, 127
3, 3794, Note_on_c, 9, 54, 0
3, 3960, Note_on_c, 9, 37, 127
3, 3974, Note_on_c, 9, 37, 0
3, 4200, Note_on_c, 9, 37, 127
3, 4214, Note_on_c, 9, 37, 0
3, 4440, Note_on_c, 9, 37, 127
3, 4454, Note_on_c, 9, 37, 0
3, 4680, Note_on_c, 9, 37, 127
3, 4694, Note_on_c, 9, 37, 0
3, 4740, Note_on_c, 9, 54, 127
3, 4754, Note_on_c, 9, 54, 0
3, 4920, Note_on_c, 9, 37, 127
3, 4934, Note_on_c, 9, 37, 0
3, 5160, Note_on_c, 9, 37, 127
3, 5174, Note_on_c, 9, 37, 0
3, 5400, Note_on_c, 9, 37, 127
3, 5414, Note_on_c, 9, 37, 0
3, 5580, Note_on_c, 9, 35, 127
3, 5594, Note_on_c, 9, 35, 0
3, 5610, Note_on_c, 9, 35, 127
3, 5624, Note_on_c, 9, 35, 0
3, 5640, Note_on_c, 9, 38, 127
3, 5654, Note_on_c, 9, 38, 0
3, 5670, Note_on_c, 9, 38, 127
3, 5684, Note_on_c, 9, 38, 0
3, 5700, Note_on_c, 9, 46, 127
3, 5700, Note_on_c, 9, 35, 127
3, 5714, Note_on_c, 9, 35, 0
3, 5714, Note_on_c, 9, 46, 0
3, 5760, Note_on_c, 9, 42, 127
3, 5760, Note_on_c, 9, 35, 127
3, 5760, Note_on_c, 9, 49, 127
3, 5774, Note_on_c, 9, 49, 0
3, 5774, Note_on_c, 9, 35, 0
3, 5774, Note_on_c, 9, 42, 0
3, 5790, Note_on_c, 9, 42, 127
3, 5804, Note_on_c, 9, 42, 0
3, 5820, Note_on_c, 9, 42, 127
3, 5834, Note_on_c, 9, 42, 0
3, 5850, Note_on_c, 9, 42, 127
3, 5850, Note_on_c, 9, 35, 127
3, 5864, Note_on_c, 9, 35, 0
3, 5864, Note_on_c, 9, 42, 0
3, 5880, Note_on_c, 9, 42, 127
3, 5880, Note_on_c, 9, 38, 127
3, 5894, Note_on_c, 9, 38, 0
3, 5894, Note_on_c, 9, 42, 0
3, 5910, Note_on_c, 9, 42, 127
3, 5924, Note_on_c, 9, 42, 0
3, 5940, Note_on_c, 9, 42, 127
3, 5940, Note_on_c, 9, 35, 127
3, 5954, Note_on_c, 9, 35, 0
3, 5954, Note_on_c, 9, 42, 0
3, 5970, Note_on_c, 9, 42, 127
3, 5984, Note_on_c, 9, 42, 0
3, 6000, Note_on_c, 9, 42, 127
3, 6014, Note_on_c, 9, 42, 0
3, 6030, Note_on_c, 9, 42, 127
3, 6044, Note_on_c, 9, 42, 0
3, 6060, Note_on_c, 9, 42, 127
3, 6060, Note_on_c, 9, 35, 127
3, 6074, Note_on_c, 9, 35, 0
3, 6074, Note_on_c, 9, 42, 0
3, 6090, Note_on_c, 9, 42, 127
3, 6104, Note_on_c, 9, 42, 0
3, 6120, Note_on_c, 9, 42, 127
3, 6120, Note_on_c, 9, 38, 127
3, 6134, Note_on_c, 9, 38, 0
3, 6134, Note_on_c, 9, 42, 0
3, 6150, Note_on_c, 9, 42, 127
3, 6164, Note_on_c, 9, 42, 0
3, 6180, Note_on_c, 9, 42, 127
3, 6180, Note_on_c, 9, 35, 127
3, 6194, Note_on_c, 9, 35, 0
3, 6194, Note_on_c, 9, 42, 0
3, 6210, Note_on_c, 9, 42, 127
3, 6224, Note_on_c, 9, 42, 0
3, 6240, Note_on_c, 9, 42, 127
3, 6240, Note_on_c, 9, 35, 127
3, 6254, Note_on_c, 9, 35, 0
3, 6254, Note_on_c, 9, 42, 0
3, 6270, Note_on_c, 9, 42, 127
3, 6284, Note_on_c, 9, 42, 0
3, 6300, Note_on_c, 9, 42, 127
3, 6314, Note_on_c, 9, 42, 0
3, 6330, Note_on_c, 9, 42, 127
3, 6330, Note_on_c, 9, 35, 127
3, 6344, Note_on_c, 9, 35, 0
3, 6344, Note_on_c, 9, 42, 0
3, 6360, Note_on_c, 9, 42, 127
3, 6360, Note_on_c, 9, 38, 127
3, 6374, Note_on_c, 9, 38, 0
3, 6374, Note_on_c, 9, 42, 0
3, 6390, Note_on_c, 9, 42, 127
3, 6404, Note_on_c, 9, 42, 0
3, 6420, Note_on_c, 9, 42, 127
3, 6420, Note_on_c, 9, 35, 127
3, 6434, Note_on_c, 9, 35, 0
3, 6434, Note_on_c, 9, 42, 0
3, 6450, Note_on_c, 9, 42, 127
3, 6464, Note_on_c, 9, 42, 0
3, 6480, Note_on_c, 9, 42, 127
3, 6494, Note_on_c, 9, 42, 0
3, 6510, Note_on_c, 9, 42, 127
3, 6524, Note_on_c, 9, 42, 0
3, 6540, Note_on_c, 9, 42, 127
3, 6540, Note_on_c, 9, 35, 127
3, 6554, Note_on_c, 9, 35, 0
3, 6554, Note_on_c, 9, 42, 0
3, 6570, Note_on_c, 9, 42, 127
3, 6584, Note_on_c, 9, 42, 0
3, 6600, Note_on_c, 9, 42, 127
3, 6600, Note_on_c, 9, 38, 127
3, 6614, Note_on_c, 9, 38, 0
3, 6614, Note_on_c, 9, 42, 0
3, 6630, Note_on_c, 9, 42, 127
3, 6644, Note_on_c, 9, 42, 0
3, 6660, Note_on_c, 9, 46, 127
3, 6660, Note_on_c, 9, 35, 127
3, 6674, Note_on_c, 9, 35, 0
3, 6674, Note_on_c, 9, 46, 0
3, 6690, Note_on_c, 9, 42, 127
3, 6704, Note_on_c, 9, 42, 0
3, 6720, Note_on_c, 9, 42, 127
3, 6720, Note_on_c, 9, 35, 127
3, 6734, Note_on_c, 9, 35, 0
3, 6734, Note_on_c, 9, 42, 0
3, 6750, Note_on_c, 9, 42, 127
3, 6764, Note_on_c, 9, 42, 0
3, 6780, Note_on_c, 9, 42, 127
3, 6794, Note_on_c, 9, 42, 0
3, 6810, Note_on_c, 9, 42, 127
3, 6810, Note_on_c, 9, 35, 127
3, 6824, Note_on_c, 9, 35, 0
3, 6824, Note_on_c, 9, 42, 0
3, 6840, Note_on_c, 9, 42, 127
3, 6840, Note_on_c, 9, 38, 127
3, 6854, Note_on_c, 9, 38, 0
3, 6854, Note_on_c, 9, 42, 0
3, 6870, Note_on_c, 9, 42, 127
3, 6884, Note_on_c, 9, 42, 0
3, 6900, Note_on_c, 9, 42, 127
3, 6900, Note_on_c, 9, 35, 127
3, 6914, Note_on_c, 9, 35, 0
3, 6914, Note_on_c, 9, 42, 0
3, 6930, Note_on_c, 9, 42, 127
3, 6944, Note_on_c, 9, 42, 0
3, 6960, Note_on_c, 9, 42, 127
3, 6974, Note_on_c, 9, 42, 0
3, 6990, Note_on_c, 9, 42, 127
3, 7004, Note_on_c, 9, 42, 0
3, 7020, Note_on_c, 9, 42, 127
3, 7020, Note_on_c, 9, 35, 127
3, 7034, Note_on_c, 9, 35, 0
3, 7034, Note_on_c, 9, 42, 0
3, 7050, Note_on_c, 9, 42, 127
3, 7064, Note_on_c, 9, 42, 0
3, 7080, Note_on_c, 9, 42, 127
3, 7080, Note_on_c, 9, 38, 127
3, 7094, Note_on_c, 9, 38, 0
3, 7094, Note_on_c, 9, 42, 0
3, 7110, Note_on_c, 9, 42, 127
3, 7124, Note_on_c, 9, 42, 0
3, 7140, Note_on_c, 9, 42, 127
3, 7140, Note_on_c, 9, 35, 127
3, 7154, Note_on_c, 9, 35, 0
3, 7154, Note_on_c, 9, 42, 0
3, 7170, Note_on_c, 9, 42, 127
3, 7184, Note_on_c, 9, 42, 0
3, 7200, Note_on_c, 9, 42, 127
3, 7200, Note_on_c, 9, 35, 127
3, 7214, Note_on_c, 9, 35, 0
3, 7214, Note_on_c, 9, 42, 0
3, 7230, Note_on_c, 9, 42, 127
3, 7244, Note_on_c, 9, 42, 0
3, 7260, Note_on_c, 9, 42, 127
3, 7274, Note_on_c, 9, 42, 0
3, 7290, Note_on_c, 9, 42, 127
3, 7290, Note_on_c, 9, 35, 127
3, 7304, Note_on_c, 9, 35, 0
3, 7304, Note_on_c, 9, 42, 0
3, 7320, Note_on_c, 9, 42, 127
3, 7320, Note_on_c, 9, 38, 127
3, 7334, Note_on_c, 9, 38, 0
3, 7334, Note_on_c, 9, 42, 0
3, 7350, Note_on_c, 9, 42, 127
3, 7364, Note_on_c, 9, 42, 0
3, 7380, Note_on_c, 9, 42, 127
3, 7380, Note_on_c, 9, 35, 127
3, 7394, Note_on_c, 9, 35, 0
3, 7394, Note_on_c, 9, 42, 0
3, 7410, Note_on_c, 9, 42, 127
3, 7424, Note_on_c, 9, 42, 0
3, 7440, Note_on_c, 9, 42, 127
3, 7454, Note_on_c, 9, 42, 0
3, 7470, Note_on_c, 9, 42, 127
3, 7484, Note_on_c, 9, 42, 0
3, 7500, Note_on_c, 9, 42, 127
3, 7500, Note_on_c, 9, 35, 127
3, 7514, Note_on_c, 9, 35, 0
3, 7514, Note_on_c, 9, 42, 0
3, 7530, Note_on_c, 9, 42, 127
3, 7544, Note_on_c, 9, 42, 0
3, 7560, Note_on_c, 9, 42, 127
3, 7560, Note_on_c, 9, 38, 127
3, 7574, Note_on_c, 9, 38, 0
3, 7574, Note_on_c, 9, 42, 0
3, 7590, Note_on_c, 9, 42, 127
3, 7604, Note_on_c, 9, 42, 0
3, 7620, Note_on_c, 9, 46, 127
3, 7620, Note_on_c, 9, 35, 127
3, 7634, Note_on_c, 9, 35, 0
3, 7634, Note_on_c, 9, 46, 0
3, 7650, Note_on_c, 9, 42, 127
3, 7664, Note_on_c, 9, 42, 0
3, 7680, Note_on_c, 9, 42, 127
3, 7680, Note_on_c, 9, 35, 127
3, 7694, Note_on_c, 9, 35, 0
3, 7694, Note_on_c, 9, 42, 0
3, 7710, Note_on_c, 9, 42, 127
3, 7724, Note_on_c, 9, 42, 0
3, 7740, Note_on_c, 9, 42, 127
3, 7754, Note_on_c, 9, 42, 0
3, 7770, Note_on_c, 9, 42, 127
3, 7770, Note_on_c, 9, 35, 127
3, 7784, Note_on_c, 9, 35, 0
3, 7784, Note_on_c, 9, 42, 0
3, 7800, Note_on_c, 9, 42, 127
3, 7800, Note_on_c, 9, 38, 127
3, 7814, Note_on_c, 9, 38, 0
3, 7814, Note_on_c, 9, 42, 0
3, 7830, Note_on_c, 9, 42, 127
3, 7844, Note_on_c, 9, 42, 0
3, 7860, Note_on_c, 9, 42, 127
3, 7860, Note_on_c, 9, 35, 127
3, 7874, Note_on_c, 9, 35, 0
3, 7874, Note_on_c, 9, 42, 0
3, 7890, Note_on_c, 9, 42, 127
3, 7904, Note_on_c, 9, 42, 0
3, 7920, Note_on_c, 9, 42, 127
3, 7934, Note_on_c, 9, 42, 0
3, 7950, Note_on_c, 9, 42, 127
3, 7964, Note_on_c, 9, 42, 0
3, 7980, Note_on_c, 9, 42, 127
3, 7980, Note_on_c, 9, 35, 127
3, 7994, Note_on_c, 9, 35, 0
3, 7994, Note_on_c, 9, 42, 0
3, 8010, Note_on_c, 9, 42, 127
3, 8024, Note_on_c, 9, 42, 0
3, 8040, Note_on_c, 9, 42, 127
3, 8040, Note_on_c, 9, 38, 127
3, 8054, Note_on_c, 9, 38, 0
3, 8054, Note_on_c, 9, 42, 0
3, 8070, Note_on_c, 9, 42, 127
3, 8084, Note_on_c, 9, 42, 0
3, 8100, Note_on_c, 9, 42, 127
3, 8100, Note_on_c, 9, 35, 127
3, 8114, Note_on_c, 9, 35, 0
3, 8114, Note_on_c, 9, 42, 0
3, 8130, Note_on_c, 9, 42, 127
3, 8144, Note_on_c, 9, 42, 0
3, 8160, Note_on_c, 9, 42, 127
3, 8160, Note_on_c, 9, 35, 127
3, 8174, Note_on_c, 9, 35, 0
3, 8174, Note_on_c, 9, 42, 0
3, 8190, Note_on_c, 9, 42, 127
3, 8204, Note_on_c, 9, 42, 0
3, 8220, Note_on_c, 9, 42, 127
3, 8234, Note_on_c, 9, 42, 0
3, 8250, Note_on_c, 9, 42, 127
3, 8250, Note_on_c, 9, 35, 127
3, 8264, Note_on_c, 9, 35, 0
3, 8264, Note_on_c, 9, 42, 0
3, 8280, Note_on_c, 9, 42, 127
3, 8280, Note_on_c, 9, 38, 127
3, 8294, Note_on_c, 9, 38, 0
3, 8294, Note_on_c, 9, 42, 0
3, 8310, Note_on_c, 9, 42, 127
3, 8324, Note_on_c, 9, 42, 0
3, 8340, Note_on_c, 9, 42, 127
3, 8340, Note_on_c, 9, 35, 127
3, 8354, Note_on_c, 9, 35, 0
3, 8354, Note_on_c, 9, 42, 0
3, 8370, Note_on_c, 9, 42, 127
3, 8384, Note_on_c, 9, 42, 0
3, 8400, Note_on_c, 9, 42, 127
3, 8414, Note_on_c, 9, 42, 0
3, 8430, Note_on_c, 9, 42, 127
3, 8444, Note_on_c, 9, 42, 0
3, 8460, Note_on_c, 9, 46, 127
3, 8460, Note_on_c, 9, 35, 127
3, 8474, Note_on_c, 9, 35, 0
3, 8474, Note_on_c, 9, 46, 0
3, 8490, Note_on_c, 9, 35, 127
3, 8504, Note_on_c, 9, 35, 0
3, 8520, Note_on_c, 9, 38, 127
3, 8534, Note_on_c, 9, 38, 0
3, 8550, Note_on_c, 9, 38, 127
3, 8564, Note_on_c, 9, 38, 0
3, 8580, Note_on_c, 9, 46, 127
3, 8580, Note_on_c, 9, 35, 127
3, 8594, Note_on_c, 9, 35, 0
3, 8594, Note_on_c, 9, 46, 0
3, 8640, Note_on_c, 9, 46, 127
3, 8640, Note_on_c, 9, 35, 127
3, 8640, Note_on_c, 9, 49, 127
3, 8654, Note_on_c, 9, 49, 0
3, 8654, Note_on_c, 9, 35, 0
3, 8654, Note_on_c, 9, 46, 0
3, 8700, Note_on_c, 9, 46, 127
3, 8700, Note_on_c, 9, 35, 127
3, 8714, Note_on_c, 9, 35, 0
3, 8714, Note_on_c, 9, 46, 0
3, 8760, Note_on_c, 9, 46, 127
3, 8760, Note_on_c, 9, 38, 127
3, 8774, Note_on_c, 9, 38, 0
3, 8774, Note_on_c, 9, 46, 0
3, 8820, Note_on_c, 9, 46, 127
3, 8820, Note_on_c, 9, 35, 127
3, 8834, Note_on_c, 9, 35, 0
3, 8834, Note_on_c, 9, 46, 0
3, 8880, Note_on_c, 9, 46, 127
3, 8894, Note_on_c, 9, 46, 0
3, 8940, Note_on_c, 9, 46, 127
3, 8940, Note_on_c, 9, 35, 127
3, 8954, Note_on_c, 9, 35, 0
3, 8954, Note_on_c, 9, 46, 0
3, 9000, Note_on_c, 9, 46, 127
3, 9000, Note_on_c, 9, 38, 127
3, 9014, Note_on_c, 9, 38, 0
3, 9014, Note_on_c, 9, 46, 0
3, 9060, Note_on_c, 9, 46, 127
3, 9074, Note_on_c, 9, 46, 0
3, 9120, Note_on_c, 9, 46, 127
3, 9120, Note_on_c, 9, 35, 127
3, 9134, Note_on_c, 9, 35, 0
3, 9134, Note_on_c, 9, 46, 0
3, 9180, Note_on_c, 9, 46, 127
3, 9180, Note_on_c, 9, 35, 127
3, 9194, Note_on_c, 9, 35, 0
3, 9194, Note_on_c, 9, 46, 0
3, 9240, Note_on_c, 9, 46, 127
3, 9240, Note_on_c, 9, 38, 127
3, 9254, Note_on_c, 9, 38, 0
3, 9254, Note_on_c, 9, 46, 0
3, 9300, Note_on_c, 9, 46, 127
3, 9300, Note_on_c, 9, 35, 127
3, 9314, Note_on_c, 9, 35, 0
3, 9314, Note_on_c, 9, 46, 0
3, 9360, Note_on_c, 9, 46, 127
3, 9374, Note_on_c, 9, 46, 0
3, 9420, Note_on_c, 9, 46, 127
3, 9420, Note_on_c, 9, 35, 127
3, 9434, Note_on_c, 9, 35, 0
3, 9434, Note_on_c, 9, 46, 0
3, 9480, Note_on_c, 9, 46, 127
3, 9480, Note_on_c, 9, 38, 127
3, 9494, Note_on_c, 9, 38, 0
3, 9494, Note_on_c, 9, 46, 0
3, 9540, Note_on_c, 9, 46, 127
3, 9554, Note_on_c, 9, 46, 0
3, 9600, Note_on_c, 9, 46, 127
3, 9600, Note_on_c, 9, 35, 127
3, 9614, Note_on_c, 9, 35, 0
3, 9614, Note_on_c, 9, 46, 0
3, 9660, Note_on_c, 9, 46, 127
3, 9660, Note_on_c, 9, 35, 127
3, 9674, Note_on_c, 9, 35, 0
3, 9674, Note_on_c, 9, 46, 0
3, 9720, Note_on_c, 9, 46, 127
3, 9720, Note_on_c, 9, 38, 127
3, 9734, Note_on_c, 9, 38, 0
3, 9734, Note_on_c, 9, 46, 0
3, 9780, Note_on_c, 9, 46, 127
3, 9780, Note_on_c, 9, 35, 127
3, 9794, Note_on_c, 9, 35, 0
3, 9794, Note_on_c, 9, 46, 0
3, 9840, Note_on_c, 9, 46, 127
3, 9854, Note_on_c, 9, 46, 0
3, 9900, Note_on_c, 9, 46, 127
3, 9900, Note_on_c, 9, 35, 127
3, 9914, Note_on_c, 9, 35, 0
3, 9914, Note_on_c, 9, 46, 0
3, 9960, Note_on_c, 9, 46, 127
3, 9960, Note_on_c, 9, 38, 127
3, 9974, Note_on_c, 9, 38, 0
3, 9974, Note_on_c, 9, 46, 0
3, 10020, Note_on_c, 9, 46, 127
3, 10034, Note_on_c, 9, 46, 0
3, 10080, Note_on_c, 9, 46, 127
3, 10080, Note_on_c, 9, 35, 127
3, 10094, Note_on_c, 9, 35, 0
3, 10094, Note_on_c, 9, 46, 0
3, 10140, Note_on_c, 9, 46, 127
3, 10140, Note_on_c, 9, 35, 127
3, 10154, Note_on_c, 9, 35, 0
3, 10154, Note_on_c, 9, 46, 0
3, 10200, Note_on_c, 9, 46, 127
3, 10200, Note_on_c, 9, 38, 127
3, 10214, Note_on_c, 9, 38, 0
3, 10214, Note_on_c, 9, 46, 0
3, 10260, Note_on_c, 9, 46, 127
3, 10260, Note_on_c, 9, 35, 127
3, 10274, Note_on_c, 9, 35, 0
3, 10274, Note_on_c, 9, 46, 0
3, 10320, Note_on_c, 9, 46, 127
3, 10334, Note_on_c, 9, 46, 0
3, 10380, Note_on_c, 9, 46, 127
3, 10380, Note_on_c, 9, 35, 127
3, 10394, Note_on_c, 9, 35, 0
3, 10394, Note_on_c, 9, 46, 0
3, 10440, Note_on_c, 9, 46, 127
3, 10440, Note_on_c, 9, 38, 127
3, 10454, Note_on_c, 9, 38, 0
3, 10454, Note_on_c, 9, 46, 0
3, 10500, Note_on_c, 9, 46, 127
3, 10514, Note_on_c, 9, 46, 0
3, 10560, Note_on_c, 9, 46, 127
3, 10560, Note_on_c, 9, 35, 127
3, 10574, Note_on_c, 9, 35, 0
3, 10574, Note_on_c, 9, 46, 0
3, 10620, Note_on_c, 9, 46, 127
3, 10620, Note_on_c, 9, 35, 127
3, 10634, Note_on_c, 9, 35, 0
3, 10634, Note_on_c, 9, 46, 0
3, 10680, Note_on_c, 9, 46, 127
3, 10680, Note_on_c, 9, 38, 127
3, 10694, Note_on_c, 9, 38, 0
3, 10694, Note_on_c, 9, 46, 0
3, 10740, Note_on_c, 9, 46, 127
3, 10740, Note_on_c, 9, 35, 127
3, 10754, Note_on_c, 9, 35, 0
3, 10754, Note_on_c, 9, 46, 0
3, 10800, Note_on_c, 9, 46, 127
3, 10814, Note_on_c, 9, 46, 0
3, 10860, Note_on_c, 9, 46, 127
3, 10860, Note_on_c, 9, 35, 127
3, 10874, Note_on_c, 9, 35, 0
3, 10874, Note_on_c, 9, 46, 0
3, 10920, Note_on_c, 9, 46, 127
3, 10920, Note_on_c, 9, 38, 127
3, 10934, Note_on_c, 9, 38, 0
3, 10934, Note_on_c, 9, 46, 0
3, 10980, Note_on_c, 9, 46, 127
3, 10994, Note_on_c, 9, 46, 0
3, 11040, Note_on_c, 9, 46, 127
3, 11040, Note_on_c, 9, 35, 127
3, 11054, Note_on_c, 9, 35, 0
3, 11054, Note_on_c, 9, 46, 0
3, 11100, Note_on_c, 9, 46, 127
3, 11100, Note_on_c, 9, 35, 127
3, 11114, Note_on_c, 9, 35, 0
3, 11114, Note_on_c, 9, 46, 0
3, 11160, Note_on_c, 9, 46, 127
3, 11160, Note_on_c, 9, 38, 127
3, 11174, Note_on_c, 9, 38, 0
3, 11174, Note_on_c, 9, 46, 0
3, 11220, Note_on_c, 9, 46, 127
3, 11220, Note_on_c, 9, 35, 127
3, 11234, Note_on_c, 9, 35, 0
3, 11234, Note_on_c, 9, 46, 0
3, 11280, Note_on_c, 9, 46, 127
3, 11294, Note_on_c, 9, 46, 0
3, 11340, Note_on_c, 9, 46, 127
3, 11340, Note_on_c, 9, 35, 127
3, 11354, Note_on_c, 9, 35, 0
3, 11354, Note_on_c, 9, 46, 0
3, 11400, Note_on_c, 9, 46, 127
3, 11400, Note_on_c, 9, 38, 127
3, 11414, Note_on_c, 9, 38, 0
3, 11414, Note_on_c, 9, 46, 0
3, 11460, Note_on_c, 9, 46, 127
3, 11474, Note_on_c, 9, 46, 0
3, 11520, Note_on_c, 9, 46, 127
3, 11520, Note_on_c, 9, 35, 127
3, 11534, Note_on_c, 9, 35, 0
3, 11534, Note_on_c, 9, 46, 0
3, 11580, Note_on_c, 9, 46, 127
3, 11580, Note_on_c, 9, 35, 127
3, 11594, Note_on_c, 9, 35, 0
3, 11594, Note_on_c, 9, 46, 0
3, 11640, Note_on_c, 9, 46, 127
3, 11640, Note_on_c, 9, 38, 127
3, 11654, Note_on_c, 9, 38, 0
3, 11654, Note_on_c, 9, 46, 0
3, 11700, Note_on_c, 9, 46, 127
3, 11700, Note_on_c, 9, 35, 127
3, 11714, Note_on_c, 9, 35, 0
3, 11714, Note_on_c, 9, 46, 0
3, 11760, Note_on_c, 9, 46, 127
3, 11774, Note_on_c, 9, 46, 0
3, 11820, Note_on_c, 9, 46, 127
3, 11820, Note_on_c, 9, 35, 127
3, 11834, Note_on_c, 9, 35, 0
3, 11834, Note_on_c, 9, 46, 0
3, 11880, Note_on_c, 9, 46, 127
3, 11880, Note_on_c, 9, 38, 127
3, 11894, Note_on_c, 9, 38, 0
3, 11894, Note_on_c, 9, 46, 0
3, 11940, Note_on_c, 9, 46, 127
3, 11954, Note_on_c, 9, 46, 0
3, 12000, Note_on_c, 9, 46, 127
3, 12000, Note_on_c, 9, 35, 127
3, 12014, Note_on_c, 9, 35, 0
3, 12014, Note_on_c, 9, 46, 0
3, 12060, Note_on_c, 9, 46, 127
3, 12060, Note_on_c, 9, 35, 127
3, 12074, Note_on_c, 9, 35, 0
3, 12074, Note_on_c, 9, 46, 0
3, 12120, Note_on_c, 9, 46, 127
3, 12120, Note_on_c, 9, 38, 127
3, 12134, Note_on_c, 9, 38, 0
3, 12134, Note_on_c, 9, 46, 0
3, 12180, Note_on_c, 9, 46, 127
3, 12180, Note_on_c, 9, 35, 127
3, 12194, Note_on_c, 9, 35, 0
3, 12194, Note_on_c, 9, 46, 0
3, 12240, Note_on_c, 9, 46, 127
3, 12254, Note_on_c, 9, 46, 0
3, 12300, Note_on_c, 9, 46, 127
3, 12300, Note_on_c, 9, 35, 127
3, 12314, Note_on_c, 9, 35, 0
3, 12314, Note_on_c, 9, 46, 0
3, 12360, Note_on_c, 9, 46, 127
3, 12360, Note_on_c, 9, 38, 127
3, 12374, Note_on_c, 9, 38, 0
3, 12374, Note_on_c, 9, 46, 0
3, 12420, Note_on_c, 9, 46, 127
3, 12434, Note_on_c, 9, 46, 0
3, 12482, Note_on_c, 9, 42, 127
3, 12482, Note_on_c, 9, 35, 127
3, 12482, Note_on_c, 9, 49, 127
3, 12496, Note_on_c, 9, 49, 0
3, 12496, Note_on_c, 9, 35, 0
3, 12496, Note_on_c, 9, 42, 0
3, 12542, Note_on_c, 9, 42, 127
3, 12556, Note_on_c, 9, 42, 0
3, 12602, Note_on_c, 9, 42, 127
3, 12602, Note_on_c, 9, 38, 127
3, 12616, Note_on_c, 9, 38, 0
3, 12616, Note_on_c, 9, 42, 0
3, 12662, Note_on_c, 9, 42, 127
3, 12662, Note_on_c, 9, 35, 127
3, 12676, Note_on_c, 9, 35, 0
3, 12676, Note_on_c, 9, 42, 0
3, 12722, Note_on_c, 9, 42, 127
3, 12736, Note_on_c, 9, 42, 0
3, 12782, Note_on_c, 9, 42, 127
3, 12782, Note_on_c, 9, 35, 127
3, 12796, Note_on_c, 9, 35, 0
3, 12796, Note_on_c, 9, 42, 0
3, 12842, Note_on_c, 9, 42, 127
3, 12842, Note_on_c, 9, 38, 127
3, 12856, Note_on_c, 9, 38, 0
3, 12856, Note_on_c, 9, 42, 0
3, 12902, Note_on_c, 9, 42, 127
3, 12902, Note_on_c, 9, 35, 127
3, 12916, Note_on_c, 9, 35, 0
3, 12916, Note_on_c, 9, 42, 0
3, 12962, Note_on_c, 9, 42, 127
3, 12962, Note_on_c, 9, 35, 127
3, 12976, Note_on_c, 9, 35, 0
3, 12976, Note_on_c, 9, 42, 0
3, 13022, Note_on_c, 9, 42, 127
3, 13036, Note_on_c, 9, 42, 0
3, 13082, Note_on_c, 9, 42, 127
3, 13082, Note_on_c, 9, 38, 127
3, 13096, Note_on_c, 9, 38, 0
3, 13096, Note_on_c, 9, 42, 0
3, 13142, Note_on_c, 9, 42, 127
3, 13142, Note_on_c, 9, 35, 127
3, 13156, Note_on_c, 9, 35, 0
3, 13156, Note_on_c, 9, 42, 0
3, 13202, Note_on_c, 9, 42, 127
3, 13216, Note_on_c, 9, 42, 0
3, 13262, Note_on_c, 9, 42, 127
3, 13262, Note_on_c, 9, 35, 127
3, 13276, Note_on_c, 9, 35, 0
3, 13276, Note_on_c, 9, 42, 0
3, 13322, Note_on_c, 9, 42, 127
3, 13322, Note_on_c, 9, 38, 127
3, 13336, Note_on_c, 9, 38, 0
3, 13336, Note_on_c, 9, 42, 0
3, 13382, Note_on_c, 9, 42, 127
3, 13382, Note_on_c, 9, 35, 127
3, 13396, Note_on_c, 9, 35, 0
3, 13396, Note_on_c, 9, 42, 0
3, 13442, Note_on_c, 9, 42, 127
3, 13442, Note_on_c, 9, 35, 127
3, 13456, Note_on_c, 9, 35, 0
3, 13456, Note_on_c, 9, 42, 0
3, 13502, Note_on_c, 9, 42, 127
3, 13516, Note_on_c, 9, 42, 0
3, 13562, Note_on_c, 9, 42, 127
3, 13562, Note_on_c, 9, 38, 127
3, 13576, Note_on_c, 9, 38, 0
3, 13576, Note_on_c, 9, 42, 0
3, 13622, Note_on_c, 9, 42, 127
3, 13622, Note_on_c, 9, 35, 127
3, 13636, Note_on_c, 9, 35, 0
3, 13636, Note_on_c, 9, 42, 0
3, 13682, Note_on_c, 9, 42, 127
3, 13696, Note_on_c, 9, 42, 0
3, 13742, Note_on_c, 9, 42, 127
3, 13742, Note_on_c, 9, 35, 127
3, 13756, Note_on_c, 9, 35, 0
3, 13756, Note_on_c, 9, 42, 0
3, 13802, Note_on_c, 9, 42, 127
3, 13802, Note_on_c, 9, 38, 127
3, 13816, Note_on_c, 9, 38, 0
3, 13816, Note_on_c, 9, 42, 0
3, 13862, Note_on_c, 9, 42, 127
3, 13862, Note_on_c, 9, 35, 127
3, 13876, Note_on_c, 9, 35, 0
3, 13876, Note_on_c, 9, 42, 0
3, 13922, Note_on_c, 9, 42, 127
3, 13922, Note_on_c, 9, 35, 127
3, 13936, Note_on_c, 9, 35, 0
3, 13936, Note_on_c, 9, 42, 0
3, 13982, Note_on_c, 9, 42, 127
3, 13996, Note_on_c, 9, 42, 0
3, 14042, Note_on_c, 9, 42, 127
3, 14042, Note_on_c, 9, 38, 127
3, 14056, Note_on_c, 9, 38, 0
3, 14056, Note_on_c, 9, 42, 0
3, 14102, Note_on_c, 9, 42, 127
3, 14102, Note_on_c, 9, 35, 127
3, 14116, Note_on_c, 9, 35, 0
3, 14116, Note_on_c, 9, 42, 0
3, 14162, Note_on_c, 9, 42, 127
3, 14176, Note_on_c, 9, 42, 0
3, 14222, Note_on_c, 9, 42, 127
3, 14222, Note_on_c, 9, 35, 127
3, 14236, Note_on_c, 9, 35, 0
3, 14236, Note_on_c, 9, 42, 0
3, 14282, Note_on_c, 9, 42, 127
3, 14282, Note_on_c, 9, 38, 127
3, 14296, Note_on_c, 9, 38, 0
3, 14296, Note_on_c, 9, 42, 0
3, 14342, Note_on_c, 9, 46, 127
3, 14342, Note_on_c, 9, 35, 127
3, 14356, Note_on_c, 9, 35, 0
3, 14356, Note_on_c, 9, 46, 0
3, 14402, Note_on_c, 9, 42, 127
3, 14402, Note_on_c, 9, 35, 127
3, 14416, Note_on_c, 9, 35, 0
3, 14416, Note_on_c, 9, 42, 0
3, 14462, Note_on_c, 9, 42, 127
3, 14476, Note_on_c, 9, 42, 0
3, 14522, Note_on_c, 9, 42, 127
3, 14522, Note_on_c, 9, 38, 127
3, 14536, Note_on_c, 9, 38, 0
3, 14536, Note_on_c, 9, 42, 0
3, 14582, Note_on_c, 9, 42, 127
3, 14582, Note_on_c, 9, 35, 127
3, 14596, Note_on_c, 9, 35, 0
3, 14596, Note_on_c, 9, 42, 0
3, 14642, Note_on_c, 9, 42, 127
3, 14656, Note_on_c, 9, 42, 0
3, 14702, Note_on_c, 9, 42, 127
3, 14702, Note_on_c, 9, 35, 127
3, 14716, Note_on_c, 9, 35, 0
3, 14716, Note_on_c, 9, 42, 0
3, 14762, Note_on_c, 9, 42, 127
3, 14762, Note_on_c, 9, 38, 127
3, 14776, Note_on_c, 9, 38, 0
3, 14776, Note_on_c, 9, 42, 0
3, 14822, Note_on_c, 9, 42, 127
3, 14822, Note_on_c, 9, 35, 127
3, 14836, Note_on_c, 9, 35, 0
3, 14836, Note_on_c, 9, 42, 0
3, 14882, Note_on_c, 9, 42, 127
3, 14882, Note_on_c, 9, 35, 127
3, 14896, Note_on_c, 9, 35, 0
3, 14896, Note_on_c, 9, 42, 0
3, 14942, Note_on_c, 9, 42, 127
3, 14956, Note_on_c, 9, 42, 0
3, 15002, Note_on_c, 9, 42, 127
3, 15002, Note_on_c, 9, 38, 127
3, 15016, Note_on_c, 9, 38, 0
3, 15016, Note_on_c, 9, 42, 0
3, 15062, Note_on_c, 9, 42, 127
3, 15062, Note_on_c, 9, 35, 127
3, 15076, Note_on_c, 9, 35, 0
3, 15076, Note_on_c, 9, 42, 0
3, 15122, Note_on_c, 9, 42, 127
3, 15136, Note_on_c, 9, 42, 0
3, 15182, Note_on_c, 9, 42, 127
3, 15182, Note_on_c, 9, 35, 127
3, 15196, Note_on_c, 9, 35, 0
3, 15196, Note_on_c, 9, 42, 0
3, 15242, Note_on_c, 9, 42, 127
3, 15242, Note_on_c, 9, 38, 127
3, 15256, Note_on_c, 9, 38, 0
3, 15256, Note_on_c, 9, 42, 0
3, 15302, Note_on_c, 9, 42, 127
3, 15302, Note_on_c, 9, 35, 127
3, 15316, Note_on_c, 9, 35, 0
3, 15316, Note_on_c, 9, 42, 0
3, 15362, Note_on_c, 9, 42, 127
3, 15362, Note_on_c, 9, 35, 127
3, 15376, Note_on_c, 9, 35, 0
3, 15376, Note_on_c, 9, 42, 0
3, 15422, Note_on_c, 9, 42, 127
3, 15436, Note_on_c, 9, 42, 0
3, 15482, Note_on_c, 9, 42, 127
3, 15482, Note_on_c, 9, 38, 127
3, 15496, Note_on_c, 9, 38, 0
3, 15496, Note_on_c, 9, 42, 0
3, 15542, Note_on_c, 9, 42, 127
3, 15542, Note_on_c, 9, 35, 127
3, 15556, Note_on_c, 9, 35, 0
3, 15556, Note_on_c, 9, 42, 0
3, 15602, Note_on_c, 9, 42, 127
3, 15616, Note_on_c, 9, 42, 0
3, 15662, Note_on_c, 9, 42, 127
3, 15662, Note_on_c, 9, 35, 127
3, 15676, Note_on_c, 9, 35, 0
3, 15676, Note_on_c, 9, 42, 0
3, 15722, Note_on_c, 9, 42, 127
3, 15722, Note_on_c, 9, 38, 127
3, 15736, Note_on_c, 9, 38, 0
3, 15736, Note_on_c, 9, 42, 0
3, 15782, Note_on_c, 9, 42, 127
3, 15782, Note_on_c, 9, 35, 127
3, 15796, Note_on_c, 9, 35, 0
3, 15796, Note_on_c, 9, 42, 0
3, 15842, Note_on_c, 9, 42, 127
3, 15842, Note_on_c, 9, 35, 127
3, 15856, Note_on_c, 9, 35, 0
3, 15856, Note_on_c, 9, 42, 0
3, 15902, Note_on_c, 9, 42, 127
3, 15916, Note_on_c, 9, 42, 0
3, 15962, Note_on_c, 9, 42, 127
3, 15962, Note_on_c, 9, 38, 127
3, 15976, Note_on_c, 9, 38, 0
3, 15976, Note_on_c, 9, 42, 0
3, 16022, Note_on_c, 9, 42, 127
3, 16022, Note_on_c, 9, 35, 127
3, 16036, Note_on_c, 9, 35, 0
3, 16036, Note_on_c, 9, 42, 0
3, 16082, Note_on_c, 9, 42, 127
3, 16096, Note_on_c, 9, 42, 0
3, 16142, Note_on_c, 9, 42, 127
3, 16142, Note_on_c, 9, 35, 127
3, 16156, Note_on_c, 9, 35, 0
3, 16156, Note_on_c, 9, 42, 0
3, 16202, Note_on_c, 9, 42, 127
3, 16202, Note_on_c, 9, 38, 127
3, 16216, Note_on_c, 9, 38, 0
3, 16216, Note_on_c, 9, 42, 0
3, 16262, Note_on_c, 9, 46, 127
3, 16262, Note_on_c, 9, 35, 127
3, 16276, Note_on_c, 9, 35, 0
3, 16276, Note_on_c, 9, 46, 0
3, 16322, Note_on_c, 9, 42, 127
3, 16322, Note_on_c, 9, 35, 127
3, 16336, Note_on_c, 9, 35, 0
3, 16336, Note_on_c, 9, 42, 0
3, 16382, Note_on_c, 9, 42, 127
3, 16396, Note_on_c, 9, 42, 0
3, 16442, Note_on_c, 9, 42, 127
3, 16442, Note_on_c, 9, 38, 127
3, 16456, Note_on_c, 9, 38, 0
3, 16456, Note_on_c, 9, 42, 0
3, 16502, Note_on_c, 9, 42, 127
3, 16502, Note_on_c, 9, 35, 127
3, 16516, Note_on_c, 9, 35, 0
3, 16516, Note_on_c, 9, 42, 0
3, 16562, Note_on_c, 9, 42, 127
3, 16576, Note_on_c, 9, 42, 0
3, 16622, Note_on_c, 9, 42, 127
3, 16622, Note_on_c, 9, 35, 127
3, 16636, Note_on_c, 9, 35, 0
3, 16636, Note_on_c, 9, 42, 0
3, 16682, Note_on_c, 9, 42, 127
3, 16682, Note_on_c, 9, 38, 127
3, 16696, Note_on_c, 9, 38, 0
3, 16696, Note_on_c, 9, 42, 0
3, 16742, Note_on_c, 9, 42, 127
3, 16742, Note_on_c, 9, 35, 127
3, 16756, Note_on_c, 9, 35, 0
3, 16756, Note_on_c, 9, 42, 0
3, 16802, Note_on_c, 9, 42, 127
3, 16802, Note_on_c, 9, 35, 127
3, 16816, Note_on_c, 9, 35, 0
3, 16816, Note_on_c, 9, 42, 0
3, 16862, Note_on_c, 9, 42, 127
3, 16876, Note_on_c, 9, 42, 0
3, 16922, Note_on_c, 9, 42, 127
3, 16922, Note_on_c, 9, 38, 127
3, 16936, Note_on_c, 9, 38, 0
3, 16936, Note_on_c, 9, 42, 0
3, 16982, Note_on_c, 9, 42, 127
3, 16982, Note_on_c, 9, 35, 127
3, 16996, Note_on_c, 9, 35, 0
3, 16996, Note_on_c, 9, 42, 0
3, 17042, Note_on_c, 9, 42, 127
3, 17056, Note_on_c, 9, 42, 0
3, 17102, Note_on_c, 9, 42, 127
3, 17102, Note_on_c, 9, 35, 127
3, 17116, Note_on_c, 9, 35, 0
3, 17116, Note_on_c, 9, 42, 0
3, 17162, Note_on_c, 9, 42, 127
3, 17162, Note_on_c, 9, 38, 127
3, 17176, Note_on_c, 9, 38, 0
3, 17176, Note_on_c, 9, 42, 0
3, 17222, Note_on_c, 9, 42, 127
3, 17222, Note_on_c, 9, 35, 127
3, 17236, Note_on_c, 9, 35, 0
3, 17236, Note_on_c, 9, 42, 0
3, 17282, Note_on_c, 9, 42, 127
3, 17282, Note_on_c, 9, 35, 127
3, 17296, Note_on_c, 9, 35, 0
3, 17296, Note_on_c, 9, 42, 0
3, 17342, Note_on_c, 9, 42, 127
3, 17356, Note_on_c, 9, 42, 0
3, 17402, Note_on_c, 9, 42, 127
3, 17402, Note_on_c, 9, 38, 127
3, 17416, Note_on_c, 9, 38, 0
3, 17416, Note_on_c, 9, 42, 0
3, 17462, Note_on_c, 9, 42, 127
3, 17462, Note_on_c, 9, 35, 127
3, 17476, Note_on_c, 9, 35, 0
3, 17476, Note_on_c, 9, 42, 0
3, 17522, Note_on_c, 9, 42, 127
3, 17536, Note_on_c, 9, 42, 0
3, 17582, Note_on_c, 9, 42, 127
3, 17582, Note_on_c, 9, 35, 127
3, 17596, Note_on_c, 9, 35, 0
3, 17596, Note_on_c, 9, 42, 0
3, 17642, Note_on_c, 9, 42, 127
3, 17642, Note_on_c, 9, 38, 127
3, 17656, Note_on_c, 9, 38, 0
3, 17656, Note_on_c, 9, 42, 0
3, 17702, Note_on_c, 9, 42, 127
3, 17702, Note_on_c, 9, 35, 127
3, 17716, Note_on_c, 9, 35, 0
3, 17716, Note_on_c, 9, 42, 0
3, 17760, Note_on_c, 9, 35, 127
3, 17760, Note_on_c, 9, 42, 127
3, 17774, Note_on_c, 9, 42, 0
3, 17774, Note_on_c, 9, 35, 0
3, 17820, Note_on_c, 9, 42, 127
3, 17834, Note_on_c, 9, 42, 0
3, 17880, Note_on_c, 9, 38, 127
3, 17880, Note_on_c, 9, 42, 127
3, 17894, Note_on_c, 9, 42, 0
3, 17894, Note_on_c, 9, 38, 0
3, 17940, Note_on_c, 9, 35, 127
3, 17940, Note_on_c, 9, 42, 127
3, 17954, Note_on_c, 9, 42, 0
3, 17954, Note_on_c, 9, 35, 0
3, 18000, Note_on_c, 9, 42, 127
3, 18014, Note_on_c, 9, 42, 0
3, 18060, Note_on_c, 9, 42, 127
3, 18060, Note_on_c, 9, 35, 127
3, 18074, Note_on_c, 9, 35, 0
3, 18074, Note_on_c, 9, 42, 0
3, 18090, Note_on_c, 9, 35, 127
3, 18104, Note_on_c, 9, 35, 0
3, 18120, Note_on_c, 9, 42, 127
3, 18120, Note_on_c, 9, 38, 127
3, 18134, Note_on_c, 9, 38, 0
3, 18134, Note_on_c, 9, 42, 0
3, 18150, Note_on_c, 9, 38, 127
3, 18164, Note_on_c, 9, 38, 0
3, 18180, Note_on_c, 9, 46, 127
3, 18180, Note_on_c, 9, 35, 127
3, 18194, Note_on_c, 9, 35, 0
3, 18194, Note_on_c, 9, 46, 0
3, 18240, Note_on_c, 9, 42, 127
3, 18240, Note_on_c, 9, 35, 127
3, 18240, Note_on_c, 9, 49, 127
3, 18254, Note_on_c, 9, 49, 0
3, 18254, Note_on_c, 9, 35, 0
3, 18254, Note_on_c, 9, 42, 0
3, 18270, Note_on_c, 9, 42, 127
3, 18284, Note_on_c, 9, 42, 0
3, 18300, Note_on_c, 9, 42, 127
3, 18314, Note_on_c, 9, 42, 0
3, 18330, Note_on_c, 9, 42, 127
3, 18330, Note_on_c, 9, 35, 127
3, 18344, Note_on_c, 9, 35, 0
3, 18344, Note_on_c, 9, 42, 0
3, 18360, Note_on_c, 9, 42, 127
3, 18360, Note_on_c, 9, 38, 127
3, 18374, Note_on_c, 9, 38, 0
3, 18374, Note_on_c, 9, 42, 0
3, 18390, Note_on_c, 9, 42, 127
3, 18404, Note_on_c, 9, 42, 0
3, 18420, Note_on_c, 9, 42, 127
3, 18420, Note_on_c, 9, 35, 127
3, 18434, Note_on_c, 9, 35, 0
3, 18434, Note_on_c, 9, 42, 0
3, 18450, Note_on_c, 9, 42, 127
3, 18464, Note_on_c, 9, 42, 0
3, 18480, Note_on_c, 9, 42, 127
3, 18494, Note_on_c, 9, 42, 0
3, 18510, Note_on_c, 9, 42, 127
3, 18524, Note_on_c, 9, 42, 0
3, 18540, Note_on_c, 9, 42, 127
3, 18540, Note_on_c, 9, 35, 127
3, 18554, Note_on_c, 9, 35, 0
3, 18554, Note_on_c, 9, 42, 0
3, 18570, Note_on_c, 9, 42, 127
3, 18584, Note_on_c, 9, 42, 0
3, 18600, Note_on_c, 9, 42, 127
3, 18600, Note_on_c, 9, 38, 127
3, 18614, Note_on_c, 9, 38, 0
3, 18614, Note_on_c, 9, 42, 0
3, 18630, Note_on_c, 9, 42, 127
3, 18644, Note_on_c, 9, 42, 0
3, 18660, Note_on_c, 9, 42, 127
3, 18660, Note_on_c, 9, 35, 127
3, 18674, Note_on_c, 9, 35, 0
3, 18674, Note_on_c, 9, 42, 0
3, 18690, Note_on_c, 9, 42, 127
3, 18704, Note_on_c, 9, 42, 0
3, 18720, Note_on_c, 9, 42, 127
3, 18720, Note_on_c, 9, 35, 127
3, 18734, Note_on_c, 9, 35, 0
3, 18734, Note_on_c, 9, 42, 0
3, 18750, Note_on_c, 9, 42, 127
3, 18764, Note_on_c, 9, 42, 0
3, 18780, Note_on_c, 9, 42, 127
3, 18794, Note_on_c, 9, 42, 0
3, 18810, Note_on_c, 9, 42, 127
3, 18810, Note_on_c, 9, 35, 127
3, 18824, Note_on_c, 9, 35, 0
3, 18824, Note_on_c, 9, 42, 0
3, 18840, Note_on_c, 9, 42, 127
3, 18840, Note_on_c, 9, 38, 127
3, 18854, Note_on_c, 9, 38, 0
3, 18854, Note_on_c, 9, 42, 0
3, 18870, Note_on_c, 9, 42, 127
3, 18884, Note_on_c, 9, 42, 0
3, 18900, Note_on_c, 9, 42, 127
3, 18900, Note_on_c, 9, 35, 127
3, 18914, Note_on_c, 9, 35, 0
3, 18914, Note_on_c, 9, 42, 0
3, 18930, Note_on_c, 9, 42, 127
3, 18944, Note_on_c, 9, 42, 0
3, 18960, Note_on_c, 9, 42, 127
3, 18974, Note_on_c, 9, 42, 0
3, 18990, Note_on_c, 9, 42, 127
3, 19004, Note_on_c, 9, 42, 0
3, 19020, Note_on_c, 9, 42, 127
3, 19020, Note_on_c, 9, 35, 127
3, 19034, Note_on_c, 9, 35, 0
3, 19034, Note_on_c, 9, 42, 0
3, 19050, Note_on_c, 9, 42, 127
3, 19064, Note_on_c, 9, 42, 0
3, 19080, Note_on_c, 9, 42, 127
3, 19080, Note_on_c, 9, 38, 127
3, 19094, Note_on_c, 9, 38, 0
3, 19094, Note_on_c, 9, 42, 0
3, 19110, Note_on_c, 9, 42, 127
3, 19124, Note_on_c, 9, 42, 0
3, 19140, Note_on_c, 9, 46, 127
3, 19140, Note_on_c, 9, 35, 127
3, 19154, Note_on_c, 9, 35, 0
3, 19154, Note_on_c, 9, 46, 0
3, 19170, Note_on_c, 9, 42, 127
3, 19184, Note_on_c, 9, 42, 0
3, 19200, Note_on_c, 9, 42, 127
3, 19200, Note_on_c, 9, 35, 127
3, 19214, Note_on_c, 9, 35, 0
3, 19214, Note_on_c, 9, 42, 0
3, 19230, Note_on_c, 9, 42, 127
3, 19244, Note_on_c, 9, 42, 0
3, 19260, Note_on_c, 9, 42, 127
3, 19274, Note_on_c, 9, 42, 0
3, 19290, Note_on_c, 9, 42, 127
3, 19290, Note_on_c, 9, 35, 127
3, 19304, Note_on_c, 9, 35, 0
3, 19304, Note_on_c, 9, 42, 0
3, 19320, Note_on_c, 9, 42, 127
3, 19320, Note_on_c, 9, 38, 127
3, 19334, Note_on_c, 9, 38, 0
3, 19334, Note_on_c, 9, 42, 0
3, 19350, Note_on_c, 9, 42, 127
3, 19364, Note_on_c, 9, 42, 0
3, 19380, Note_on_c, 9, 42, 127
3, 19380, Note_on_c, 9, 35, 127
3, 19394, Note_on_c, 9, 35, 0
3, 19394, Note_on_c, 9, 42, 0
3, 19410, Note_on_c, 9, 42, 127
3, 19424, Note_on_c, 9, 42, 0
3, 19440, Note_on_c, 9, 42, 127
3, 19454, Note_on_c, 9, 42, 0
3, 19470, Note_on_c, 9, 42, 127
3, 19484, Note_on_c, 9, 42, 0
3, 19500, Note_on_c, 9, 42, 127
3, 19500, Note_on_c, 9, 35, 127
3, 19514, Note_on_c, 9, 35, 0
3, 19514, Note_on_c, 9, 42, 0
3, 19530, Note_on_c, 9, 42, 127
3, 19544, Note_on_c, 9, 42, 0
3, 19560, Note_on_c, 9, 42, 127
3, 19560, Note_on_c, 9, 38, 127
3, 19574, Note_on_c, 9, 38, 0
3, 19574, Note_on_c, 9, 42, 0
3, 19590, Note_on_c, 9, 42, 127
3, 19604, Note_on_c, 9, 42, 0
3, 19620, Note_on_c, 9, 42, 127
3, 19620, Note_on_c, 9, 35, 127
3, 19634, Note_on_c, 9, 35, 0
3, 19634, Note_on_c, 9, 42, 0
3, 19650, Note_on_c, 9, 42, 127
3, 19664, Note_on_c, 9, 42, 0
3, 19680, Note_on_c, 9, 42, 127
3, 19680, Note_on_c, 9, 35, 127
3, 19694, Note_on_c, 9, 35, 0
3, 19694, Note_on_c, 9, 42, 0
3, 19710, Note_on_c, 9, 42, 127
3, 19724, Note_on_c, 9, 42, 0
3, 19740, Note_on_c, 9, 42, 127
3, 19754, Note_on_c, 9, 42, 0
3, 19770, Note_on_c, 9, 42, 127
3, 19770, Note_on_c, 9, 35, 127
3, 19784, Note_on_c, 9, 35, 0
3, 19784, Note_on_c, 9, 42, 0
3, 19800, Note_on_c, 9, 42, 127
3, 19800, Note_on_c, 9, 38, 127
3, 19814, Note_on_c, 9, 38, 0
3, 19814, Note_on_c, 9, 42, 0
3, 19830, Note_on_c, 9, 42, 127
3, 19844, Note_on_c, 9, 42, 0
3, 19860, Note_on_c, 9, 42, 127
3, 19860, Note_on_c, 9, 35, 127
3, 19874, Note_on_c, 9, 35, 0
3, 19874, Note_on_c, 9, 42, 0
3, 19890, Note_on_c, 9, 42, 127
3, 19904, Note_on_c, 9, 42, 0
3, 19920, Note_on_c, 9, 42, 127
3, 19934, Note_on_c, 9, 42, 0
3, 19950, Note_on_c, 9, 42, 127
3, 19964, Note_on_c, 9, 42, 0
3, 19980, Note_on_c, 9, 42, 127
3, 19980, Note_on_c, 9, 35, 127
3, 19994, Note_on_c, 9, 35, 0
3, 19994, Note_on_c, 9, 42, 0
3, 20010, Note_on_c, 9, 42, 127
3, 20024, Note_on_c, 9, 42, 0
3, 20040, Note_on_c, 9, 42, 127
3, 20040, Note_on_c, 9, 38, 127
3, 20054, Note_on_c, 9, 38, 0
3, 20054, Note_on_c, 9, 42, 0
3, 20070, Note_on_c, 9, 42, 127
3, 20084, Note_on_c, 9, 42, 0
3, 20100, Note_on_c, 9, 46, 127
3, 20100, Note_on_c, 9, 35, 127
3, 20114, Note_on_c, 9, 35, 0
3, 20114, Note_on_c, 9, 46, 0
3, 20130, Note_on_c, 9, 42, 127
3, 20144, Note_on_c, 9, 42, 0
3, 20160, Note_on_c, 9, 42, 127
3, 20160, Note_on_c, 9, 35, 127
3, 20174, Note_on_c, 9, 35, 0
3, 20174, Note_on_c, 9, 42, 0
3, 20190, Note_on_c, 9, 42, 127
3, 20204, Note_on_c, 9, 42, 0
3, 20220, Note_on_c, 9, 42, 127
3, 20234, Note_on_c, 9, 42, 0
3, 20250, Note_on_c, 9, 42, 127
3, 20250, Note_on_c, 9, 35, 127
3, 20264, Note_on_c, 9, 35, 0
3, 20264, Note_on_c, 9, 42, 0
3, 20280, Note_on_c, 9, 42, 127
3, 20280, Note_on_c, 9, 38, 127
3, 20294, Note_on_c, 9, 38, 0
3, 20294, Note_on_c, 9, 42, 0
3, 20310, Note_on_c, 9, 42, 127
3, 20324, Note_on_c, 9, 42, 0
3, 20340, Note_on_c, 9, 42, 127
3, 20340, Note_on_c, 9, 35, 127
3, 20354, Note_on_c, 9, 35, 0
3, 20354, Note_on_c, 9, 42, 0
3, 20370, Note_on_c, 9, 42, 127
3, 20384, Note_on_c, 9, 42, 0
3, 20400, Note_on_c, 9, 42, 127
3, 20414, Note_on_c, 9, 42, 0
3, 20430, Note_on_c, 9, 42, 127
3, 20444, Note_on_c, 9, 42, 0
3, 20460, Note_on_c, 9, 42, 127
3, 20460, Note_on_c, 9, 35, 127
3, 20474, Note_on_c, 9, 35, 0
3, 20474, Note_on_c, 9, 42, 0
3, 20490, Note_on_c, 9, 42, 127
3, 20504, Note_on_c, 9, 42, 0
3, 20520, Note_on_c, 9, 42, 127
3, 20520, Note_on_c, 9, 38, 127
3, 20534, Note_on_c, 9, 38, 0
3, 20534, Note_on_c, 9, 42, 0
3, 20550, Note_on_c, 9, 42, 127
3, 20564, Note_on_c, 9, 42, 0
3, 20580, Note_on_c, 9, 42, 127
3, 20580, Note_on_c, 9, 35, 127
3, 20594, Note_on_c, 9, 35, 0
3, 20594, Note_on_c, 9, 42, 0
3, 20610, Note_on_c, 9, 42, 127
3, 20624, Note_on_c, 9, 42, 0
3, 20640, Note_on_c, 9, 42, 127
3, 20640, Note_on_c, 9, 35, 127
3, 20654, Note_on_c, 9, 35, 0
3, 20654, Note_on_c, 9, 42, 0
3, 20670, Note_on_c, 9, 42, 127
3, 20684, Note_on_c, 9, 42, 0
3, 20700, Note_on_c, 9, 42, 127
3, 20714, Note_on_c, 9, 42, 0
3, 20730, Note_on_c, 9, 42, 127
3, 20730, Note_on_c, 9, 35, 127
3, 20744, Note_on_c, 9, 35, 0
3, 20744, Note_on_c, 9, 42, 0
3, 20760, Note_on_c, 9, 42, 127
3, 20760, Note_on_c, 9, 38, 127
3, 20774, Note_on_c, 9, 38, 0
3, 20774, Note_on_c, 9, 42, 0
3, 20790, Note_on_c, 9, 42, 127
3, 20804, Note_on_c, 9, 42, 0
3, 20820, Note_on_c, 9, 42, 127
3, 20820, Note_on_c, 9, 35, 127
3, 20834, Note_on_c, 9, 35, 0
3, 20834, Note_on_c, 9, 42, 0
3, 20850, Note_on_c, 9, 42, 127
3, 20864, Note_on_c, 9, 42, 0
3, 20880, Note_on_c, 9, 42, 127
3, 20894, Note_on_c, 9, 42, 0
3, 20910, Note_on_c, 9, 42, 127
3, 20924, Note_on_c, 9, 42, 0
3, 20940, Note_on_c, 9, 46, 127
3, 20940, Note_on_c, 9, 35, 127
3, 20954, Note_on_c, 9, 35, 0
3, 20954, Note_on_c, 9, 46, 0
3, 20970, Note_on_c, 9, 35, 127
3, 20984, Note_on_c, 9, 35, 0
3, 21000, Note_on_c, 9, 38, 127
3, 21014, Note_on_c, 9, 38, 0
3, 21030, Note_on_c, 9, 38, 127
3, 21044, Note_on_c, 9, 38, 0
3, 21060, Note_on_c, 9, 46, 127
3, 21060, Note_on_c, 9, 35, 127
3, 21074, Note_on_c, 9, 35, 0
3, 21074, Note_on_c, 9, 46, 0
3, 21120, Note_on_c, 9, 46, 127
3, 21120, Note_on_c, 9, 35, 127
3, 21120, Note_on_c, 9, 49, 127
3, 21134, Note_on_c, 9, 49, 0
3, 21134, Note_on_c, 9, 35, 0
3, 21134, Note_on_c, 9, 46, 0
3, 21180, Note_on_c, 9, 46, 127
3, 21180, Note_on_c, 9, 35, 127
3, 21194, Note_on_c, 9, 35, 0
3, 21194, Note_on_c, 9, 46, 0
3, 21240, Note_on_c, 9, 46, 127
3, 21240, Note_on_c, 9, 38, 127
3, 21254, Note_on_c, 9, 38, 0
3, 21254, Note_on_c, 9, 46, 0
3, 21300, Note_on_c, 9, 46, 127
3, 21300, Note_on_c, 9, 35, 127
3, 21314, Note_on_c, 9, 35, 0
3, 21314, Note_on_c, 9, 46, 0
3, 21360, Note_on_c, 9, 46, 127
3, 21374, Note_on_c, 9, 46, 0
3, 21420, Note_on_c, 9, 46, 127
3, 21420, Note_on_c, 9, 35, 127
3, 21434, Note_on_c, 9, 35, 0
3, 21434, Note_on_c, 9, 46, 0
3, 21480, Note_on_c, 9, 46, 127
3, 21480, Note_on_c, 9, 38, 127
3, 21494, Note_on_c, 9, 38, 0
3, 21494, Note_on_c, 9, 46, 0
3, 21540, Note_on_c, 9, 46, 127
3, 21554, Note_on_c, 9, 46, 0
3, 21600, Note_on_c, 9, 46, 127
3, 21600, Note_on_c, 9, 35, 127
3, 21614, Note_on_c, 9, 35, 0
3, 21614, Note_on_c, 9, 46, 0
3, 21660, Note_on_c, 9, 46, 127
3, 21660, Note_on_c, 9, 35, 127
3, 21674, Note_on_c, 9, 35, 0
3, 21674, Note_on_c, 9, 46, 0
3, 21720, Note_on_c, 9, 46, 127
3, 21720, Note_on_c, 9, 38, 127
3, 21734, Note_on_c, 9, 38, 0
3, 21734, Note_on_c, 9, 46, 0
3, 21780, Note_on_c, 9, 46, 127
3, 21780, Note_on_c, 9, 35, 127
3, 21794, Note_on_c, 9, 35, 0
3, 21794, Note_on_c, 9, 46, 0
3, 21840, Note_on_c, 9, 46, 127
3, 21854, Note_on_c, 9, 46, 0
3, 21900, Note_on_c, 9, 46, 127
3, 21900, Note_on_c, 9, 35, 127
3, 21914, Note_on_c, 9, 35, 0
3, 21914, Note_on_c, 9, 46, 0
3, 21960, Note_on_c, 9, 46, 127
3, 21960, Note_on_c, 9, 38, 127
3, 21974, Note_on_c, 9, 38, 0
3, 21974, Note_on_c, 9, 46, 0
3, 22020, Note_on_c, 9, 46, 127
3, 22034, Note_on_c, 9, 46, 0
3, 22080, Note_on_c, 9, 46, 127
3, 22080, Note_on_c, 9, 35, 127
3, 22094, Note_on_c, 9, 35, 0
3, 22094, Note_on_c, 9, 46, 0
3, 22140, Note_on_c, 9, 46, 127
3, 22140, Note_on_c, 9, 35, 127
3, 22154, Note_on_c, 9, 35, 0
3, 22154, Note_on_c, 9, 46, 0
3, 22200, Note_on_c, 9, 46, 127
3, 22200, Note_on_c, 9, 38, 127
3, 22214, Note_on_c, 9, 38, 0
3, 22214, Note_on_c, 9, 46, 0
3, 22260, Note_on_c, 9, 46, 127
3, 22260, Note_on_c, 9, 35, 127
3, 22274, Note_on_c, 9, 35, 0
3, 22274, Note_on_c, 9, 46, 0
3, 22320, Note_on_c, 9, 46, 127
3, 22334, Note_on_c, 9, 46, 0
3, 22380, Note_on_c, 9, 46, 127
3, 22380, Note_on_c, 9, 35, 127
3, 22394, Note_on_c, 9, 35, 0
3, 22394, Note_on_c, 9, 46, 0
3, 22440, Note_on_c, 9, 46, 127
3, 22440, Note_on_c, 9, 38, 127
3, 22454, Note_on_c, 9, 38, 0
3, 22454, Note_on_c, 9, 46, 0
3, 22500, Note_on_c, 9, 46, 127
3, 22514, Note_on_c, 9, 46, 0
3, 22560, Note_on_c, 9, 46, 127
3, 22560, Note_on_c, 9, 35, 127
3, 22574, Note_on_c, 9, 35, 0
3, 22574, Note_on_c, 9, 46, 0
3, 22620, Note_on_c, 9, 46, 127
3, 22620, Note_on_c, 9, 35, 127
3, 22634, Note_on_c, 9, 35, 0
3, 22634, Note_on_c, 9, 46, 0
3, 22680, Note_on_c, 9, 46, 127
3, 22680, Note_on_c, 9, 38, 127
3, 22694, Note_on_c, 9, 38, 0
3, 22694, Note_on_c, 9, 46, 0
3, 22740, Note_on_c, 9, 46, 127
3, 22740, Note_on_c, 9, 35, 127
3, 22754, Note_on_c, 9, 35, 0
3, 22754, Note_on_c, 9, 46, 0
3, 22800, Note_on_c, 9, 46, 127
3, 22814, Note_on_c, 9, 46, 0
3, 22860, Note_on_c, 9, 46, 127
3, 22860, Note_on_c, 9, 35, 127
3, 22874, Note_on_c, 9, 35, 0
3, 22874, Note_on_c, 9, 46, 0
3, 22920, Note_on_c, 9, 46, 127
3, 22920, Note_on_c, 9, 38, 127
3, 22934, Note_on_c, 9, 38, 0
3, 22934, Note_on_c, 9, 46, 0
3, 22980, Note_on_c, 9, 46, 127
3, 22994, Note_on_c, 9, 46, 0
3, 23040, Note_on_c, 9, 46, 127
3, 23040, Note_on_c, 9, 35, 127
3, 23054, Note_on_c, 9, 35, 0
3, 23054, Note_on_c, 9, 46, 0
3, 23100, Note_on_c, 9, 46, 127
3, 23100, Note_on_c, 9, 35, 127
3, 23114, Note_on_c, 9, 35, 0
3, 23114, Note_on_c, 9, 46, 0
3, 23160, Note_on_c, 9, 46, 127
3, 23160, Note_on_c, 9, 38, 127
3, 23174, Note_on_c, 9, 38, 0
3, 23174, Note_on_c, 9, 46, 0
3, 23220, Note_on_c, 9, 46, 127
3, 23220, Note_on_c, 9, 35, 127
3, 23234, Note_on_c, 9, 35, 0
3, 23234, Note_on_c, 9, 46, 0
3, 23280, Note_on_c, 9, 46, 127
3, 23294, Note_on_c, 9, 46, 0
3, 23340, Note_on_c, 9, 46, 127
3, 23340, Note_on_c, 9, 35, 127
3, 23354, Note_on_c, 9, 35, 0
3, 23354, Note_on_c, 9, 46, 0
3, 23400, Note_on_c, 9, 46, 127
3, 23400, Note_on_c, 9, 38, 127
3, 23414, Note_on_c, 9, 38, 0
3, 23414, Note_on_c, 9, 46, 0
3, 23460, Note_on_c, 9, 46, 127
3, 23474, Note_on_c, 9, 46, 0
3, 23520, Note_on_c, 9, 46, 127
3, 23520, Note_on_c, 9, 35, 127
3, 23534, Note_on_c, 9, 35, 0
3, 23534, Note_on_c, 9, 46, 0
3, 23580, Note_on_c, 9, 46, 127
3, 23580, Note_on_c, 9, 35, 127
3, 23594, Note_on_c, 9, 35, 0
3, 23594, Note_on_c, 9, 46, 0
3, 23640, Note_on_c, 9, 46, 127
3, 23640, Note_on_c, 9, 38, 127
3, 23654, Note_on_c, 9, 38, 0
3, 23654, Note_on_c, 9, 46, 0
3, 23700, Note_on_c, 9, 46, 127
3, 23700, Note_on_c, 9, 35, 127
3, 23714, Note_on_c, 9, 35, 0
3, 23714, Note_on_c, 9, 46, 0
3, 23760, Note_on_c, 9, 46, 127
3, 23774, Note_on_c, 9, 46, 0
3, 23820, Note_on_c, 9, 46, 127
3, 23820, Note_on_c, 9, 35, 127
3, 23834, Note_on_c, 9, 35, 0
3, 23834, Note_on_c, 9, 46, 0
3, 23880, Note_on_c, 9, 46, 127
3, 23880, Note_on_c, 9, 38, 127
3, 23894, Note_on_c, 9, 38, 0
3, 23894, Note_on_c, 9, 46, 0
3, 23940, Note_on_c, 9, 46, 127
3, 23954, Note_on_c, 9, 46, 0
3, 24000, Note_on_c, 9, 46, 127
3, 24000, Note_on_c, 9, 35, 127
3, 24014, Note_on_c, 9, 35, 0
3, 24014, Note_on_c, 9, 46, 0
3, 24060, Note_on_c, 9, 46, 127
3, 24060, Note_on_c, 9, 35, 127
3, 24074, Note_on_c, 9, 35, 0
3, 24074, Note_on_c, 9, 46, 0
3, 24120, Note_on_c, 9, 46, 127
3, 24120, Note_on_c, 9, 38, 127
3, 24134, Note_on_c, 9, 38, 0
3, 24134, Note_on_c, 9, 46, 0
3, 24180, Note_on_c, 9, 46, 127
3, 24180, Note_on_c, 9, 35, 127
3, 24194, Note_on_c, 9, 35, 0
3, 24194, Note_on_c, 9, 46, 0
3, 24240, Note_on_c, 9, 46, 127
3, 24254, Note_on_c, 9, 46, 0
3, 24300, Note_on_c, 9, 46, 127
3, 24300, Note_on_c, 9, 35, 127
3, 24314, Note_on_c, 9, 35, 0
3, 24314, Note_on_c, 9, 46, 0
3, 24360, Note_on_c, 9, 46, 127
3, 24360, Note_on_c, 9, 38, 127
3, 24374, Note_on_c, 9, 38, 0
3, 24374, Note_on_c, 9, 46, 0
3, 24420, Note_on_c, 9, 46, 127
3, 24434, Note_on_c, 9, 46, 0
3, 24480, Note_on_c, 9, 46, 127
3, 24480, Note_on_c, 9, 35, 127
3, 24494, Note_on_c, 9, 35, 0
3, 24494, Note_on_c, 9, 46, 0
3, 24540, Note_on_c, 9, 46, 127
3, 24540, Note_on_c, 9, 35, 127
3, 24554, Note_on_c, 9, 35, 0
3, 24554, Note_on_c, 9, 46, 0
3, 24600, Note_on_c, 9, 46, 127
3, 24600, Note_on_c, 9, 38, 127
3, 24614, Note_on_c, 9, 38, 0
3, 24614, Note_on_c, 9, 46, 0
3, 24660, Note_on_c, 9, 46, 127
3, 24660, Note_on_c, 9, 35, 127
3, 24674, Note_on_c, 9, 35, 0
3, 24674, Note_on_c, 9, 46, 0
3, 24720, Note_on_c, 9, 46, 127
3, 24734, Note_on_c, 9, 46, 0
3, 24780, Note_on_c, 9, 46, 127
3, 24780, Note_on_c, 9, 35, 127
3, 24794, Note_on_c, 9, 35, 0
3, 24794, Note_on_c, 9, 46, 0
3, 24840, Note_on_c, 9, 46, 127
3, 24840, Note_on_c, 9, 38, 127
3, 24854, Note_on_c, 9, 38, 0
3, 24854, Note_on_c, 9, 46, 0
3, 24900, Note_on_c, 9, 46, 127
3, 24914, Note_on_c, 9, 46, 0
3, 24960, Note_on_c, 9, 57, 127
3, 24962, Note_on_c, 9, 42, 127
3, 24962, Note_on_c, 9, 35, 127
3, 24962, Note_on_c, 9, 49, 127
3, 24974, Note_on_c, 9, 57, 0
3, 24976, Note_on_c, 9, 42, 0
3, 24976, Note_on_c, 9, 35, 0
3, 24976, Note_on_c, 9, 49, 0
3, 26880, Note_on_c, 9, 57, 127
3, 26880, Note_on_c, 9, 46, 127
3, 26880, Note_on_c, 9, 35, 127
3, 26880, Note_on_c, 9, 49, 127
3, 26894, Note_on_c, 9, 49, 0
3, 26894, Note_on_c, 9, 57, 0
3, 26894, Note_on_c, 9, 46, 0
3, 26894, Note_on_c, 9, 35, 0
3, 26940, Note_on_c, 9, 46, 127
3, 26940, Note_on_c, 9, 35, 127
3, 26954, Note_on_c, 9, 35, 0
3, 26954, Note_on_c, 9, 46, 0
3, 27000, Note_on_c, 9, 46, 127
3, 27000, Note_on_c, 9, 38, 127
3, 27014, Note_on_c, 9, 38, 0
3, 27014, Note_on_c, 9, 46, 0
3, 27060, Note_on_c, 9, 46, 127
3, 27060, Note_on_c, 9, 35, 127
3, 27074, Note_on_c, 9, 35, 0
3, 27074, Note_on_c, 9, 46, 0
3, 27120, Note_on_c, 9, 46, 127
3, 27134, Note_on_c, 9, 46, 0
3, 27180, Note_on_c, 9, 46, 127
3, 27180, Note_on_c, 9, 35, 127
3, 27194, Note_on_c, 9, 35, 0
3, 27194, Note_on_c, 9, 46, 0
3, 27240, Note_on_c, 9, 46, 127
3, 27240, Note_on_c, 9, 38, 127
3, 27254, Note_on_c, 9, 38, 0
3, 27254, Note_on_c, 9, 46, 0
3, 27300, Note_on_c, 9, 46, 127
3, 27314, Note_on_c, 9, 46, 0
3, 27360, Note_on_c, 9, 46, 127
3, 27360, Note_on_c, 9, 35, 127
3, 27374, Note_on_c, 9, 35, 0
3, 27374, Note_on_c, 9, 46, 0
3, 27420, Note_on_c, 9, 46, 127
3, 27420, Note_on_c, 9, 35, 127
3, 27434, Note_on_c, 9, 35, 0
3, 27434, Note_on_c, 9, 46, 0
3, 27480, Note_on_c, 9, 46, 127
3, 27480, Note_on_c, 9, 38, 127
3, 27494, Note_on_c, 9, 38, 0
3, 27494, Note_on_c, 9, 46, 0
3, 27540, Note_on_c, 9, 46, 127
3, 27540, Note_on_c, 9, 35, 127
3, 27554, Note_on_c, 9, 35, 0
3, 27554, Note_on_c, 9, 46, 0
3, 27600, Note_on_c, 9, 46, 127
3, 27614, Note_on_c, 9, 46, 0
3, 27660, Note_on_c, 9, 46, 127
3, 27660, Note_on_c, 9, 35, 127
3, 27674, Note_on_c, 9, 35, 0
3, 27674, Note_on_c, 9, 46, 0
3, 27720, Note_on_c, 9, 46, 127
3, 27720, Note_on_c, 9, 38, 127
3, 27734, Note_on_c, 9, 38, 0
3, 27734, Note_on_c, 9, 46, 0
3, 27780, Note_on_c, 9, 46, 127
3, 27794, Note_on_c, 9, 46, 0
3, 27840, Note_on_c, 9, 46, 127
3, 27840, Note_on_c, 9, 35, 127
3, 27854, Note_on_c, 9, 35, 0
3, 27854, Note_on_c, 9, 46, 0
3, 27900, Note_on_c, 9, 46, 127
3, 27900, Note_on_c, 9, 35, 127
3, 27914, Note_on_c, 9, 35, 0
3, 27914, Note_on_c, 9, 46, 0
3, 27960, Note_on_c, 9, 46, 127
3, 27960, Note_on_c, 9, 38, 127
3, 27974, Note_on_c, 9, 38, 0
3, 27974, Note_on_c, 9, 46, 0
3, 28020, Note_on_c, 9, 46, 127
3, 28020, Note_on_c, 9, 35, 127
3, 28034, Note_on_c, 9, 35, 0
3, 28034, Note_on_c, 9, 46, 0
3, 28080, Note_on_c, 9, 46, 127
3, 28094, Note_on_c, 9, 46, 0
3, 28140, Note_on_c, 9, 46, 127
3, 28140, Note_on_c, 9, 35, 127
3, 28154, Note_on_c, 9, 35, 0
3, 28154, Note_on_c, 9, 46, 0
3, 28200, Note_on_c, 9, 46, 127
3, 28200, Note_on_c, 9, 38, 127
3, 28214, Note_on_c, 9, 38, 0
3, 28214, Note_on_c, 9, 46, 0
3, 28260, Note_on_c, 9, 46, 127
3, 28274, Note_on_c, 9, 46, 0
3, 28320, Note_on_c, 9, 46, 127
3, 28320, Note_on_c, 9, 35, 127
3, 28334, Note_on_c, 9, 35, 0
3, 28334, Note_on_c, 9, 46, 0
3, 28380, Note_on_c, 9, 46, 127
3, 28380, Note_on_c, 9, 35, 127
3, 28394, Note_on_c, 9, 35, 0
3, 28394, Note_on_c, 9, 46, 0
3, 28440, Note_on_c, 9, 46, 127
3, 28440, Note_on_c, 9, 38, 127
3, 28454, Note_on_c, 9, 38, 0
3, 28454, Note_on_c, 9, 46, 0
3, 28500, Note_on_c, 9, 46, 127
3, 28500, Note_on_c, 9, 35, 127
3, 28514, Note_on_c, 9, 35, 0
3, 28514, Note_on_c, 9, 46, 0
3, 28560, Note_on_c, 9, 46, 127
3, 28574, Note_on_c, 9, 46, 0
3, 28620, Note_on_c, 9, 46, 127
3, 28620, Note_on_c, 9, 35, 127
3, 28634, Note_on_c, 9, 35, 0
3, 28634, Note_on_c, 9, 46, 0
3, 28680, Note_on_c, 9, 46, 127
3, 28680, Note_on_c, 9, 38, 127
3, 28694, Note_on_c, 9, 38, 0
3, 28694, Note_on_c, 9, 46, 0
3, 28740, Note_on_c, 9, 46, 127
3, 28754, Note_on_c, 9, 46, 0
3, 28800, Note_on_c, 9, 46, 127
3, 28800, Note_on_c, 9, 35, 127
3, 28814, Note_on_c, 9, 35, 0
3, 28814, Note_on_c, 9, 46, 0
3, 28860, Note_on_c, 9, 46, 127
3, 28860, Note_on_c, 9, 35, 127
3, 28874, Note_on_c, 9, 35, 0
3, 28874, Note_on_c, 9, 46, 0
3, 28920, Note_on_c, 9, 46, 127
3, 28920, Note_on_c, 9, 38, 127
3, 28934, Note_on_c, 9, 38, 0
3, 28934, Note_on_c, 9, 46, 0
3, 28980, Note_on_c, 9, 46, 127
3, 28980, Note_on_c, 9, 35, 127
3, 28994, Note_on_c, 9, 35, 0
3, 28994, Note_on_c, 9, 46, 0
3, 29040, Note_on_c, 9, 46, 127
3, 29054, Note_on_c, 9, 46, 0
3, 29100, Note_on_c, 9, 46, 127
3, 29100, Note_on_c, 9, 35, 127
3, 29114, Note_on_c, 9, 35, 0
3, 29114, Note_on_c, 9, 46, 0
3, 29160, Note_on_c, 9, 46, 127
3, 29160, Note_on_c, 9, 38, 127
3, 29174, Note_on_c, 9, 38, 0
3, 29174, Note_on_c, 9, 46, 0
3, 29220, Note_on_c, 9, 46, 127
3, 29234, Note_on_c, 9, 46, 0
3, 29280, Note_on_c, 9, 46, 127
3, 29280, Note_on_c, 9, 35, 127
3, 29294, Note_on_c, 9, 35, 0
3, 29294, Note_on_c, 9, 46, 0
3, 29340, Note_on_c, 9, 46, 127
3, 29340, Note_on_c, 9, 35, 127
3, 29354, Note_on_c, 9, 35, 0
3, 29354, Note_on_c, 9, 46, 0
3, 29400, Note_on_c, 9, 46, 127
3, 29400, Note_on_c, 9, 38, 127
3, 29414, Note_on_c, 9, 38, 0
3, 29414, Note_on_c, 9, 46, 0
3, 29460, Note_on_c, 9, 46, 127
3, 29460, Note_on_c, 9, 35, 127
3, 29474, Note_on_c, 9, 35, 0
3, 29474, Note_on_c, 9, 46, 0
3, 29520, Note_on_c, 9, 46, 127
3, 29534, Note_on_c, 9, 46, 0
3, 29580, Note_on_c, 9, 46, 127
3, 29580, Note_on_c, 9, 35, 127
3, 29594, Note_on_c, 9, 35, 0
3, 29594, Note_on_c, 9, 46, 0
3, 29640, Note_on_c, 9, 46, 127
3, 29640, Note_on_c, 9, 38, 127
3, 29654, Note_on_c, 9, 38, 0
3, 29654, Note_on_c, 9, 46, 0
3, 29700, Note_on_c, 9, 46, 127
3, 29714, Note_on_c, 9, 46, 0
3, 29760, Note_on_c, 9, 46, 127
3, 29760, Note_on_c, 9, 35, 127
3, 29774, Note_on_c, 9, 35, 0
3, 29774, Note_on_c, 9, 46, 0
3, 29820, Note_on_c, 9, 46, 127
3, 29820, Note_on_c, 9, 35, 127
3, 29834, Note_on_c, 9, 35, 0
3, 29834, Note_on_c, 9, 46, 0
3, 29880, Note_on_c, 9, 46, 127
3, 29880, Note_on_c, 9, 38, 127
3, 29894, Note_on_c, 9, 38, 0
3, 29894, Note_on_c, 9, 46, 0
3, 29940, Note_on_c, 9, 46, 127
3, 29940, Note_on_c, 9, 35, 127
3, 29954, Note_on_c, 9, 35, 0
3, 29954, Note_on_c, 9, 46, 0
3, 30000, Note_on_c, 9, 46, 127
3, 30014, Note_on_c, 9, 46, 0
3, 30060, Note_on_c, 9, 46, 127
3, 30060, Note_on_c, 9, 35, 127
3, 30074, Note_on_c, 9, 35, 0
3, 30074, Note_on_c, 9, 46, 0
3, 30120, Note_on_c, 9, 46, 127
3, 30120, Note_on_c, 9, 38, 127
3, 30134, Note_on_c, 9, 38, 0
3, 30134, Note_on_c, 9, 46, 0
3, 30180, Note_on_c, 9, 46, 127
3, 30194, Note_on_c, 9, 46, 0
3, 30240, Note_on_c, 9, 46, 127
3, 30240, Note_on_c, 9, 35, 127
3, 30254, Note_on_c, 9, 35, 0
3, 30254, Note_on_c, 9, 46, 0
3, 30300, Note_on_c, 9, 46, 127
3, 30300, Note_on_c, 9, 35, 127
3, 30314, Note_on_c, 9, 35, 0
3, 30314, Note_on_c, 9, 46, 0
3, 30360, Note_on_c, 9, 46, 127
3, 30360, Note_on_c, 9, 38, 127
3, 30374, Note_on_c, 9, 38, 0
3, 30374, Note_on_c, 9, 46, 0
3, 30420, Note_on_c, 9, 46, 127
3, 30420, Note_on_c, 9, 35, 127
3, 30434, Note_on_c, 9, 35, 0
3, 30434, Note_on_c, 9, 46, 0
3, 30480, Note_on_c, 9, 46, 127
3, 30494, Note_on_c, 9, 46, 0
3, 30540, Note_on_c, 9, 46, 127
3, 30540, Note_on_c, 9, 35, 127
3, 30554, Note_on_c, 9, 35, 0
3, 30554, Note_on_c, 9, 46, 0
3, 30600, Note_on_c, 9, 38, 127
3, 30610, Note_on_c, 9, 38, 127
3, 30614, Note_on_c, 9, 38, 0
3, 30624, Note_on_c, 9, 38, 0
3, 30660, Note_on_c, 9, 35, 127
3, 30674, Note_on_c, 9, 35, 0
3, 30720, Note_on_c, 9, 57, 127
3, 30720, Note_on_c, 9, 49, 127
3, 30720, Note_on_c, 9, 35, 127
3, 30734, Note_on_c, 9, 35, 0
3, 30734, Note_on_c, 9, 49, 0
3, 30734, Note_on_c, 9, 57, 0
3, 32400, Note_on_c, 9, 38, 127
3, 32400, Note_on_c, 9, 38, 127
3, 32414, Note_on_c, 9, 38, 0
3, 32414, Note_on_c, 9, 38, 0
3, 32430, Note_on_c, 9, 38, 127
3, 32444, Note_on_c, 9, 38, 0
3, 32460, Note_on_c, 9, 36, 127
3, 32474, Note_on_c, 9, 36, 0
3, 32490, Note_on_c, 9, 36, 127
3, 32504, Note_on_c, 9, 36, 0
3, 32520, Note_on_c, 9, 38, 127
3, 32530, Note_on_c, 9, 38, 127
3, 32534, Note_on_c, 9, 38, 0
3, 32544, Note_on_c, 9, 38, 0
3, 32580, Note_on_c, 9, 36, 127
3, 32594, Note_on_c, 9, 36, 0
3, 32640, Note_on_c, 9, 57, 127
3, 32640, Note_on_c, 9, 46, 127
3, 32640, Note_on_c, 9, 35, 127
3, 32640, Note_on_c, 9, 49, 127
3, 32654, Note_on_c, 9, 49, 0
3, 32654, Note_on_c, 9, 57, 0
3, 32654, Note_on_c, 9, 46, 0
3, 32654, Note_on_c, 9, 35, 0
3, 32700, Note_on_c, 9, 46, 127
3, 32700, Note_on_c, 9, 35, 127
3, 32714, Note_on_c, 9, 35, 0
3, 32714, Note_on_c, 9, 46, 0
3, 32760, Note_on_c, 9, 46, 127
3, 32760, Note_on_c, 9, 38, 127
3, 32774, Note_on_c, 9, 38, 0
3, 32774, Note_on_c, 9, 46, 0
3, 32820, Note_on_c, 9, 46, 127
3, 32820, Note_on_c, 9, 35, 127
3, 32834, Note_on_c, 9, 35, 0
3, 32834, Note_on_c, 9, 46, 0
3, 32880, Note_on_c, 9, 46, 127
3, 32894, Note_on_c, 9, 46, 0
3, 32940, Note_on_c, 9, 46, 127
3, 32940, Note_on_c, 9, 35, 127
3, 32954, Note_on_c, 9, 35, 0
3, 32954, Note_on_c, 9, 46, 0
3, 33000, Note_on_c, 9, 46, 127
3, 33000, Note_on_c, 9, 38, 127
3, 33014, Note_on_c, 9, 38, 0
3, 33014, Note_on_c, 9, 46, 0
3, 33060, Note_on_c, 9, 46, 127
3, 33074, Note_on_c, 9, 46, 0
3, 33120, Note_on_c, 9, 46, 127
3, 33120, Note_on_c, 9, 35, 127
3, 33134, Note_on_c, 9, 35, 0
3, 33134, Note_on_c, 9, 46, 0
3, 33180, Note_on_c, 9, 46, 127
3, 33180, Note_on_c, 9, 35, 127
3, 33194, Note_on_c, 9, 35, 0
3, 33194, Note_on_c, 9, 46, 0
3, 33240, Note_on_c, 9, 46, 127
3, 33240, Note_on_c, 9, 38, 127
3, 33254, Note_on_c, 9, 38, 0
3, 33254, Note_on_c, 9, 46, 0
3, 33300, Note_on_c, 9, 46, 127
3, 33300, Note_on_c, 9, 35, 127
3, 33314, Note_on_c, 9, 35, 0
3, 33314, Note_on_c, 9, 46, 0
3, 33360, Note_on_c, 9, 46, 127
3, 33374, Note_on_c, 9, 46, 0
3, 33390, Note_on_c, 9, 46, 127
3, 33404, Note_on_c, 9, 46, 0
3, 33420, Note_on_c, 9, 46, 127
3, 33420, Note_on_c, 9, 35, 127
3, 33434, Note_on_c, 9, 35, 0
3, 33434, Note_on_c, 9, 46, 0
3, 33480, Note_on_c, 9, 46, 127
3, 33480, Note_on_c, 9, 38, 127
3, 33494, Note_on_c, 9, 38, 0
3, 33494, Note_on_c, 9, 46, 0
3, 33540, Note_on_c, 9, 46, 127
3, 33554, Note_on_c, 9, 46, 0
3, 33600, Note_on_c, 9, 57, 127
3, 33600, Note_on_c, 9, 46, 127
3, 33600, Note_on_c, 9, 35, 127
3, 33614, Note_on_c, 9, 35, 0
3, 33614, Note_on_c, 9, 46, 0
3, 33614, Note_on_c, 9, 57, 0
3, 33660, Note_on_c, 9, 46, 127
3, 33660, Note_on_c, 9, 35, 127
3, 33674, Note_on_c, 9, 35, 0
3, 33674, Note_on_c, 9, 46, 0
3, 33720, Note_on_c, 9, 46, 127
3, 33720, Note_on_c, 9, 38, 127
3, 33734, Note_on_c, 9, 38, 0
3, 33734, Note_on_c, 9, 46, 0
3, 33780, Note_on_c, 9, 46, 127
3, 33780, Note_on_c, 9, 35, 127
3, 33794, Note_on_c, 9, 35, 0
3, 33794, Note_on_c, 9, 46, 0
3, 33840, Note_on_c, 9, 46, 127
3, 33854, Note_on_c, 9, 46, 0
3, 33900, Note_on_c, 9, 46, 127
3, 33900, Note_on_c, 9, 35, 127
3, 33914, Note_on_c, 9, 35, 0
3, 33914, Note_on_c, 9, 46, 0
3, 33960, Note_on_c, 9, 46, 127
3, 33960, Note_on_c, 9, 38, 127
3, 33974, Note_on_c, 9, 38, 0
3, 33974, Note_on_c, 9, 46, 0
3, 34020, Note_on_c, 9, 46, 127
3, 34034, Note_on_c, 9, 46, 0
3, 34080, Note_on_c, 9, 46, 127
3, 34080, Note_on_c, 9, 35, 127
3, 34094, Note_on_c, 9, 35, 0
3, 34094, Note_on_c, 9, 46, 0
3, 34140, Note_on_c, 9, 46, 127
3, 34140, Note_on_c, 9, 35, 127
3, 34154, Note_on_c, 9, 35, 0
3, 34154, Note_on_c, 9, 46, 0
3, 34200, Note_on_c, 9, 46, 127
3, 34200, Note_on_c, 9, 38, 127
3, 34214, Note_on_c, 9, 38, 0
3, 34214, Note_on_c, 9, 46, 0
3, 34260, Note_on_c, 9, 46, 127
3, 34260, Note_on_c, 9, 35, 127
3, 34274, Note_on_c, 9, 35, 0
3, 34274, Note_on_c, 9, 46, 0
3, 34320, Note_on_c, 9, 46, 127
3, 34334, Note_on_c, 9, 46, 0
3, 34350, Note_on_c, 9, 46, 127
3, 34364, Note_on_c, 9, 46, 0
3, 34380, Note_on_c, 9, 46, 127
3, 34380, Note_on_c, 9, 35, 127
3, 34394, Note_on_c, 9, 35, 0
3, 34394, Note_on_c, 9, 46, 0
3, 34440, Note_on_c, 9, 46, 127
3, 34440, Note_on_c, 9, 38, 127
3, 34454, Note_on_c, 9, 38, 0
3, 34454, Note_on_c, 9, 46, 0
3, 34500, Note_on_c, 9, 46, 127
3, 34514, Note_on_c, 9, 46, 0
3, 34560, Note_on_c, 9, 46, 127
3, 34560, Note_on_c, 9, 35, 127
3, 34574, Note_on_c, 9, 35, 0
3, 34574, Note_on_c, 9, 46, 0
3, 34620, Note_on_c, 9, 46, 127
3, 34620, Note_on_c, 9, 35, 127
3, 34634, Note_on_c, 9, 35, 0
3, 34634, Note_on_c, 9, 46, 0
3, 34680, Note_on_c, 9, 46, 127
3, 34680, Note_on_c, 9, 38, 127
3, 34694, Note_on_c, 9, 38, 0
3, 34694, Note_on_c, 9, 46, 0
3, 34740, Note_on_c, 9, 46, 127
3, 34740, Note_on_c, 9, 35, 127
3, 34754, Note_on_c, 9, 35, 0
3, 34754, Note_on_c, 9, 46, 0
3, 34800, Note_on_c, 9, 46, 127
3, 34814, Note_on_c, 9, 46, 0
3, 34860, Note_on_c, 9, 46, 127
3, 34860, Note_on_c, 9, 35, 127
3, 34874, Note_on_c, 9, 35, 0
3, 34874, Note_on_c, 9, 46, 0
3, 34920, Note_on_c, 9, 46, 127
3, 34920, Note_on_c, 9, 38, 127
3, 34934, Note_on_c, 9, 38, 0
3, 34934, Note_on_c, 9, 46, 0
3, 34980, Note_on_c, 9, 46, 127
3, 34994, Note_on_c, 9, 46, 0
3, 35040, Note_on_c, 9, 46, 127
3, 35040, Note_on_c, 9, 35, 127
3, 35054, Note_on_c, 9, 35, 0
3, 35054, Note_on_c, 9, 46, 0
3, 35100, Note_on_c, 9, 46, 127
3, 35100, Note_on_c, 9, 35, 127
3, 35114, Note_on_c, 9, 35, 0
3, 35114, Note_on_c, 9, 46, 0
3, 35160, Note_on_c, 9, 46, 127
3, 35160, Note_on_c, 9, 38, 127
3, 35174, Note_on_c, 9, 38, 0
3, 35174, Note_on_c, 9, 46, 0
3, 35220, Note_on_c, 9, 46, 127
3, 35220, Note_on_c, 9, 35, 127
3, 35234, Note_on_c, 9, 35, 0
3, 35234, Note_on_c, 9, 46, 0
3, 35280, Note_on_c, 9, 46, 127
3, 35294, Note_on_c, 9, 46, 0
3, 35310, Note_on_c, 9, 46, 127
3, 35324, Note_on_c, 9, 46, 0
3, 35340, Note_on_c, 9, 46, 127
3, 35340, Note_on_c, 9, 35, 127
3, 35354, Note_on_c, 9, 35, 0
3, 35354, Note_on_c, 9, 46, 0
3, 35400, Note_on_c, 9, 46, 127
3, 35400, Note_on_c, 9, 38, 127
3, 35414, Note_on_c, 9, 38, 0
3, 35414, Note_on_c, 9, 46, 0
3, 35460, Note_on_c, 9, 46, 127
3, 35474, Note_on_c, 9, 46, 0
3, 35520, Note_on_c, 9, 46, 127
3, 35520, Note_on_c, 9, 35, 127
3, 35534, Note_on_c, 9, 35, 0
3, 35534, Note_on_c, 9, 46, 0
3, 35580, Note_on_c, 9, 46, 127
3, 35580, Note_on_c, 9, 35, 127
3, 35594, Note_on_c, 9, 35, 0
3, 35594, Note_on_c, 9, 46, 0
3, 35640, Note_on_c, 9, 46, 127
3, 35640, Note_on_c, 9, 38, 127
3, 35654, Note_on_c, 9, 38, 0
3, 35654, Note_on_c, 9, 46, 0
3, 35700, Note_on_c, 9, 46, 127
3, 35700, Note_on_c, 9, 35, 127
3, 35714, Note_on_c, 9, 35, 0
3, 35714, Note_on_c, 9, 46, 0
3, 35760, Note_on_c, 9, 46, 127
3, 35774, Note_on_c, 9, 46, 0
3, 35820, Note_on_c, 9, 46, 127
3, 35820, Note_on_c, 9, 35, 127
3, 35834, Note_on_c, 9, 35, 0
3, 35834, Note_on_c, 9, 46, 0
3, 35880, Note_on_c, 9, 46, 127
3, 35880, Note_on_c, 9, 38, 127
3, 35894, Note_on_c, 9, 38, 0
3, 35894, Note_on_c, 9, 46, 0
3, 35940, Note_on_c, 9, 46, 127
3, 35954, Note_on_c, 9, 46, 0
3, 36000, Note_on_c, 9, 46, 127
3, 36000, Note_on_c, 9, 35, 127
3, 36014, Note_on_c, 9, 35, 0
3, 36014, Note_on_c, 9, 46, 0
3, 36060, Note_on_c, 9, 46, 127
3, 36060, Note_on_c, 9, 35, 127
3, 36074, Note_on_c, 9, 35, 0
3, 36074, Note_on_c, 9, 46, 0
3, 36120, Note_on_c, 9, 46, 127
3, 36120, Note_on_c, 9, 38, 127
3, 36134, Note_on_c, 9, 38, 0
3, 36134, Note_on_c, 9, 46, 0
3, 36180, Note_on_c, 9, 46, 127
3, 36180, Note_on_c, 9, 35, 127
3, 36194, Note_on_c, 9, 35, 0
3, 36194, Note_on_c, 9, 46, 0
3, 36240, Note_on_c, 9, 46, 127
3, 36254, Note_on_c, 9, 46, 0
3, 36270, Note_on_c, 9, 46, 127
3, 36284, Note_on_c, 9, 46, 0
3, 36300, Note_on_c, 9, 46, 127
3, 36300, Note_on_c, 9, 35, 127
3, 36314, Note_on_c, 9, 35, 0
3, 36314, Note_on_c, 9, 46, 0
3, 36360, Note_on_c, 9, 46, 127
3, 36360, Note_on_c, 9, 38, 127
3, 36374, Note_on_c, 9, 38, 0
3, 36374, Note_on_c, 9, 46, 0
3, 36420, Note_on_c, 9, 46, 127
3, 36434, Note_on_c, 9, 46, 0
3, 36480, Note_on_c, 9, 46, 127
3, 36480, Note_on_c, 9, 35, 127
3, 36494, Note_on_c, 9, 35, 0
3, 36494, Note_on_c, 9, 46, 0
3, 36540, Note_on_c, 9, 46, 127
3, 36540, Note_on_c, 9, 35, 127
3, 36554, Note_on_c, 9, 35, 0
3, 36554, Note_on_c, 9, 46, 0
3, 36600, Note_on_c, 9, 46, 127
3, 36600, Note_on_c, 9, 38, 127
3, 36614, Note_on_c, 9, 38, 0
3, 36614, Note_on_c, 9, 46, 0
3, 36660, Note_on_c, 9, 46, 127
3, 36660, Note_on_c, 9, 35, 127
3, 36674, Note_on_c, 9, 35, 0
3, 36674, Note_on_c, 9, 46, 0
3, 36720, Note_on_c, 9, 46, 127
3, 36734, Note_on_c, 9, 46, 0
3, 36780, Note_on_c, 9, 46, 127
3, 36780, Note_on_c, 9, 35, 127
3, 36794, Note_on_c, 9, 35, 0
3, 36794, Note_on_c, 9, 46, 0
3, 36840, Note_on_c, 9, 46, 127
3, 36840, Note_on_c, 9, 38, 127
3, 36854, Note_on_c, 9, 38, 0
3, 36854, Note_on_c, 9, 46, 0
3, 36900, Note_on_c, 9, 46, 127
3, 36914, Note_on_c, 9, 46, 0
3, 36960, Note_on_c, 9, 46, 127
3, 36960, Note_on_c, 9, 35, 127
3, 36974, Note_on_c, 9, 35, 0
3, 36974, Note_on_c, 9, 46, 0
3, 37020, Note_on_c, 9, 46, 127
3, 37020, Note_on_c, 9, 35, 127
3, 37034, Note_on_c, 9, 35, 0
3, 37034, Note_on_c, 9, 46, 0
3, 37080, Note_on_c, 9, 46, 127
3, 37080, Note_on_c, 9, 38, 127
3, 37094, Note_on_c, 9, 38, 0
3, 37094, Note_on_c, 9, 46, 0
3, 37140, Note_on_c, 9, 46, 127
3, 37140, Note_on_c, 9, 35, 127
3, 37154, Note_on_c, 9, 35, 0
3, 37154, Note_on_c, 9, 46, 0
3, 37200, Note_on_c, 9, 46, 127
3, 37214, Note_on_c, 9, 46, 0
3, 37230, Note_on_c, 9, 46, 127
3, 37244, Note_on_c, 9, 46, 0
3, 37260, Note_on_c, 9, 46, 127
3, 37260, Note_on_c, 9, 35, 127
3, 37274, Note_on_c, 9, 35, 0
3, 37274, Note_on_c, 9, 46, 0
3, 37320, Note_on_c, 9, 46, 127
3, 37320, Note_on_c, 9, 38, 127
3, 37334, Note_on_c, 9, 38, 0
3, 37334, Note_on_c, 9, 46, 0
3, 37380, Note_on_c, 9, 46, 127
3, 37394, Note_on_c, 9, 46, 0
3, 37440, Note_on_c, 9, 46, 127
3, 37440, Note_on_c, 9, 35, 127
3, 37454, Note_on_c, 9, 35, 0
3, 37454, Note_on_c, 9, 46, 0
3, 37500, Note_on_c, 9, 46, 127
3, 37500, Note_on_c, 9, 35, 127
3, 37514, Note_on_c, 9, 35, 0
3, 37514, Note_on_c, 9, 46, 0
3, 37560, Note_on_c, 9, 46, 127
3, 37560, Note_on_c, 9, 38, 127
3, 37574, Note_on_c, 9, 38, 0
3, 37574, Note_on_c, 9, 46, 0
3, 37620, Note_on_c, 9, 46, 127
3, 37620, Note_on_c, 9, 35, 127
3, 37634, Note_on_c, 9, 35, 0
3, 37634, Note_on_c, 9, 46, 0
3, 37680, Note_on_c, 9, 46, 127
3, 37694, Note_on_c, 9, 46, 0
3, 37740, Note_on_c, 9, 46, 127
3, 37740, Note_on_c, 9, 35, 127
3, 37754, Note_on_c, 9, 35, 0
3, 37754, Note_on_c, 9, 46, 0
3, 37800, Note_on_c, 9, 46, 127
3, 37800, Note_on_c, 9, 38, 127
3, 37814, Note_on_c, 9, 38, 0
3, 37814, Note_on_c, 9, 46, 0
3, 37860, Note_on_c, 9, 35, 127
3, 37860, Note_on_c, 9, 46, 127
3, 37874, Note_on_c, 9, 46, 0
3, 37874, Note_on_c, 9, 35, 0
3, 37890, Note_on_c, 9, 38, 127
3, 37904, Note_on_c, 9, 38, 0
3, 37920, Note_on_c, 9, 46, 127
3, 37920, Note_on_c, 9, 35, 127
3, 37934, Note_on_c, 9, 35, 0
3, 37934, Note_on_c, 9, 46, 0
3, 37950, Note_on_c, 9, 35, 127
3, 37964, Note_on_c, 9, 35, 0
3, 37980, Note_on_c, 9, 46, 127
3, 37980, Note_on_c, 9, 35, 127
3, 37994, Note_on_c, 9, 35, 0
3, 37994, Note_on_c, 9, 46, 0
3, 38010, Note_on_c, 9, 38, 127
3, 38024, Note_on_c, 9, 38, 0
3, 38040, Note_on_c, 9, 46, 127
3, 38040, Note_on_c, 9, 38, 127
3, 38054, Note_on_c, 9, 38, 0
3, 38054, Note_on_c, 9, 46, 0
3, 38070, Note_on_c, 9, 35, 127
3, 38084, Note_on_c, 9, 35, 0
3, 38100, Note_on_c, 9, 46, 127
3, 38100, Note_on_c, 9, 35, 127
3, 38114, Note_on_c, 9, 35, 0
3, 38114, Note_on_c, 9, 46, 0
3, 38130, Note_on_c, 9, 35, 127
3, 38144, Note_on_c, 9, 35, 0
3, 38160, Note_on_c, 9, 38, 127
3, 38160, Note_on_c, 9, 46, 127
3, 38174, Note_on_c, 9, 46, 0
3, 38174, Note_on_c, 9, 38, 0
3, 38190, Note_on_c, 9, 38, 127
3, 38204, Note_on_c, 9, 38, 0
3, 38220, Note_on_c, 9, 46, 127
3, 38220, Note_on_c, 9, 35, 127
3, 38234, Note_on_c, 9, 35, 0
3, 38234, Note_on_c, 9, 46, 0
3, 38250, Note_on_c, 9, 38, 127
3, 38264, Note_on_c, 9, 38, 0
3, 38280, Note_on_c, 9, 46, 127
3, 38280, Note_on_c, 9, 35, 127
3, 38280, Note_on_c, 9, 38, 127
3, 38294, Note_on_c, 9, 38, 0
3, 38294, Note_on_c, 9, 35, 0
3, 38294, Note_on_c, 9, 46, 0
3, 38310, Note_on_c, 9, 38, 127
3, 38324, Note_on_c, 9, 38, 0
3, 38340, Note_on_c, 9, 35, 127
3, 38340, Note_on_c, 9, 38, 127
3, 38354, Note_on_c, 9, 38, 0
3, 38354, Note_on_c, 9, 35, 0
3, 38370, Note_on_c, 9, 38, 127
3, 38384, Note_on_c, 9, 38, 0
3, 38400, Note_on_c, 9, 57, 127
3, 38400, Note_on_c, 9, 49, 127
3, 38400, Note_on_c, 9, 46, 127
3, 38400, Note_on_c, 9, 35, 127
3, 38414, Note_on_c, 9, 35, 0
3, 38414, Note_on_c, 9, 57, 0
3, 38414, Note_on_c, 9, 49, 0
3, 38414, Note_on_c, 9, 46, 0
3, 38460, Note_on_c, 9, 46, 127
3, 38460, Note_on_c, 9, 35, 127
3, 38474, Note_on_c, 9, 35, 0
3, 38474, Note_on_c, 9, 46, 0
3, 38520, Note_on_c, 9, 46, 127
3, 38520, Note_on_c, 9, 38, 127
3, 38534, Note_on_c, 9, 38, 0
3, 38534, Note_on_c, 9, 46, 0
3, 38580, Note_on_c, 9, 46, 127
3, 38580, Note_on_c, 9, 35, 127
3, 38594, Note_on_c, 9, 35, 0
3, 38594, Note_on_c, 9, 46, 0
3, 38640, Note_on_c, 9, 46, 127
3, 38654, Note_on_c, 9, 46, 0
3, 38700, Note_on_c, 9, 46, 127
3, 38700, Note_on_c, 9, 35, 127
3, 38714, Note_on_c, 9, 35, 0
3, 38714, Note_on_c, 9, 46, 0
3, 38760, Note_on_c, 9, 46, 127
3, 38760, Note_on_c, 9, 38, 127
3, 38774, Note_on_c, 9, 38, 0
3, 38774, Note_on_c, 9, 46, 0
3, 38820, Note_on_c, 9, 46, 127
3, 38834, Note_on_c, 9, 46, 0
3, 38880, Note_on_c, 9, 46, 127
3, 38880, Note_on_c, 9, 35, 127
3, 38894, Note_on_c, 9, 35, 0
3, 38894, Note_on_c, 9, 46, 0
3, 38940, Note_on_c, 9, 46, 127
3, 38940, Note_on_c, 9, 35, 127
3, 38954, Note_on_c, 9, 35, 0
3, 38954, Note_on_c, 9, 46, 0
3, 39000, Note_on_c, 9, 46, 127
3, 39000, Note_on_c, 9, 38, 127
3, 39014, Note_on_c, 9, 38, 0
3, 39014, Note_on_c, 9, 46, 0
3, 39060, Note_on_c, 9, 43, 127
3, 39060, Note_on_c, 9, 41, 127
3, 39060, Note_on_c, 9, 46, 127
3, 39060, Note_on_c, 9, 35, 127
3, 39074, Note_on_c, 9, 35, 0
3, 39074, Note_on_c, 9, 43, 0
3, 39074, Note_on_c, 9, 41, 0
3, 39074, Note_on_c, 9, 46, 0
3, 39120, Note_on_c, 9, 46, 127
3, 39134, Note_on_c, 9, 46, 0
3, 39180, Note_on_c, 9, 46, 127
3, 39180, Note_on_c, 9, 35, 127
3, 39194, Note_on_c, 9, 35, 0
3, 39194, Note_on_c, 9, 46, 0
3, 39240, Note_on_c, 9, 46, 127
3, 39240, Note_on_c, 9, 38, 127
3, 39254, Note_on_c, 9, 38, 0
3, 39254, Note_on_c, 9, 46, 0
3, 39300, Note_on_c, 9, 35, 127
3, 39300, Note_on_c, 9, 43, 127
3, 39300, Note_on_c, 9, 41, 127
3, 39300, Note_on_c, 9, 46, 127
3, 39314, Note_on_c, 9, 46, 0
3, 39314, Note_on_c, 9, 35, 0
3, 39314, Note_on_c, 9, 43, 0
3, 39314, Note_on_c, 9, 41, 0
3, 39360, Note_on_c, 9, 57, 127
3, 39360, Note_on_c, 9, 49, 127
3, 39360, Note_on_c, 9, 46, 127
3, 39360, Note_on_c, 9, 35, 127
3, 39374, Note_on_c, 9, 35, 0
3, 39374, Note_on_c, 9, 57, 0
3, 39374, Note_on_c, 9, 49, 0
3, 39374, Note_on_c, 9, 46, 0
3, 39420, Note_on_c, 9, 46, 127
3, 39420, Note_on_c, 9, 35, 127
3, 39434, Note_on_c, 9, 35, 0
3, 39434, Note_on_c, 9, 46, 0
3, 39480, Note_on_c, 9, 46, 127
3, 39480, Note_on_c, 9, 38, 127
3, 39494, Note_on_c, 9, 38, 0
3, 39494, Note_on_c, 9, 46, 0
3, 39540, Note_on_c, 9, 46, 127
3, 39540, Note_on_c, 9, 35, 127
3, 39554, Note_on_c, 9, 35, 0
3, 39554, Note_on_c, 9, 46, 0
3, 39600, Note_on_c, 9, 46, 127
3, 39614, Note_on_c, 9, 46, 0
3, 39660, Note_on_c, 9, 46, 127
3, 39660, Note_on_c, 9, 35, 127
3, 39674, Note_on_c, 9, 35, 0
3, 39674, Note_on_c, 9, 46, 0
3, 39720, Note_on_c, 9, 46, 127
3, 39720, Note_on_c, 9, 38, 127
3, 39734, Note_on_c, 9, 38, 0
3, 39734, Note_on_c, 9, 46, 0
3, 39780, Note_on_c, 9, 46, 127
3, 39794, Note_on_c, 9, 46, 0
3, 39840, Note_on_c, 9, 46, 127
3, 39840, Note_on_c, 9, 35, 127
3, 39854, Note_on_c, 9, 35, 0
3, 39854, Note_on_c, 9, 46, 0
3, 39900, Note_on_c, 9, 46, 127
3, 39900, Note_on_c, 9, 35, 127
3, 39914, Note_on_c, 9, 35, 0
3, 39914, Note_on_c, 9, 46, 0
3, 39960, Note_on_c, 9, 46, 127
3, 39960, Note_on_c, 9, 38, 127
3, 39974, Note_on_c, 9, 38, 0
3, 39974, Note_on_c, 9, 46, 0
3, 40020, Note_on_c, 9, 46, 127
3, 40020, Note_on_c, 9, 35, 127
3, 40034, Note_on_c, 9, 35, 0
3, 40034, Note_on_c, 9, 46, 0
3, 40050, Note_on_c, 9, 43, 127
3, 40064, Note_on_c, 9, 43, 0
3, 40080, Note_on_c, 9, 41, 127
3, 40080, Note_on_c, 9, 46, 127
3, 40094, Note_on_c, 9, 46, 0
3, 40094, Note_on_c, 9, 41, 0
3, 40140, Note_on_c, 9, 46, 127
3, 40140, Note_on_c, 9, 35, 127
3, 40154, Note_on_c, 9, 35, 0
3, 40154, Note_on_c, 9, 46, 0
3, 40200, Note_on_c, 9, 46, 127
3, 40200, Note_on_c, 9, 38, 127
3, 40214, Note_on_c, 9, 38, 0
3, 40214, Note_on_c, 9, 46, 0
3, 40260, Note_on_c, 9, 35, 127
3, 40260, Note_on_c, 9, 46, 127
3, 40274, Note_on_c, 9, 46, 0
3, 40274, Note_on_c, 9, 35, 0
3, 40320, Note_on_c, 9, 57, 127
3, 40320, Note_on_c, 9, 49, 127
3, 40320, Note_on_c, 9, 46, 127
3, 40320, Note_on_c, 9, 35, 127
3, 40334, Note_on_c, 9, 35, 0
3, 40334, Note_on_c, 9, 57, 0
3, 40334, Note_on_c, 9, 49, 0
3, 40334, Note_on_c, 9, 46, 0
3, 40380, Note_on_c, 9, 46, 127
3, 40380, Note_on_c, 9, 35, 127
3, 40394, Note_on_c, 9, 35, 0
3, 40394, Note_on_c, 9, 46, 0
3, 40440, Note_on_c, 9, 46, 127
3, 40440, Note_on_c, 9, 38, 127
3, 40454, Note_on_c, 9, 38, 0
3, 40454, Note_on_c, 9, 46, 0
3, 40500, Note_on_c, 9, 46, 127
3, 40500, Note_on_c, 9, 35, 127
3, 40514, Note_on_c, 9, 35, 0
3, 40514, Note_on_c, 9, 46, 0
3, 40560, Note_on_c, 9, 46, 127
3, 40574, Note_on_c, 9, 46, 0
3, 40620, Note_on_c, 9, 46, 127
3, 40620, Note_on_c, 9, 35, 127
3, 40634, Note_on_c, 9, 35, 0
3, 40634, Note_on_c, 9, 46, 0
3, 40680, Note_on_c, 9, 46, 127
3, 40680, Note_on_c, 9, 38, 127
3, 40694, Note_on_c, 9, 38, 0
3, 40694, Note_on_c, 9, 46, 0
3, 40740, Note_on_c, 9, 46, 127
3, 40754, Note_on_c, 9, 46, 0
3, 40800, Note_on_c, 9, 46, 127
3, 40800, Note_on_c, 9, 35, 127
3, 40814, Note_on_c, 9, 35, 0
3, 40814, Note_on_c, 9, 46, 0
3, 40860, Note_on_c, 9, 46, 127
3, 40860, Note_on_c, 9, 35, 127
3, 40874, Note_on_c, 9, 35, 0
3, 40874, Note_on_c, 9, 46, 0
3, 40920, Note_on_c, 9, 46, 127
3, 40920, Note_on_c, 9, 38, 127
3, 40934, Note_on_c, 9, 38, 0
3, 40934, Note_on_c, 9, 46, 0
3, 40980, Note_on_c, 9, 41, 127
3, 40980, Note_on_c, 9, 43, 127
3, 40980, Note_on_c, 9, 46, 127
3, 40980, Note_on_c, 9, 35, 127
3, 40994, Note_on_c, 9, 35, 0
3, 40994, Note_on_c, 9, 41, 0
3, 40994, Note_on_c, 9, 43, 0
3, 40994, Note_on_c, 9, 46, 0
3, 41040, Note_on_c, 9, 46, 127
3, 41054, Note_on_c, 9, 46, 0
3, 41100, Note_on_c, 9, 46, 127
3, 41100, Note_on_c, 9, 35, 127
3, 41114, Note_on_c, 9, 35, 0
3, 41114, Note_on_c, 9, 46, 0
3, 41160, Note_on_c, 9, 46, 127
3, 41160, Note_on_c, 9, 38, 127
3, 41174, Note_on_c, 9, 38, 0
3, 41174, Note_on_c, 9, 46, 0
3, 41220, Note_on_c, 9, 43, 127
3, 41220, Note_on_c, 9, 41, 127
3, 41220, Note_on_c, 9, 35, 127
3, 41220, Note_on_c, 9, 46, 127
3, 41234, Note_on_c, 9, 46, 0
3, 41234, Note_on_c, 9, 43, 0
3, 41234, Note_on_c, 9, 41, 0
3, 41234, Note_on_c, 9, 35, 0
3, 41280, Note_on_c, 9, 57, 127
3, 41280, Note_on_c, 9, 49, 127
3, 41280, Note_on_c, 9, 46, 127
3, 41280, Note_on_c, 9, 35, 127
3, 41294, Note_on_c, 9, 35, 0
3, 41294, Note_on_c, 9, 57, 0
3, 41294, Note_on_c, 9, 49, 0
3, 41294, Note_on_c, 9, 46, 0
3, 41340, Note_on_c, 9, 46, 127
3, 41340, Note_on_c, 9, 35, 127
3, 41354, Note_on_c, 9, 35, 0
3, 41354, Note_on_c, 9, 46, 0
3, 41400, Note_on_c, 9, 46, 127
3, 41400, Note_on_c, 9, 38, 127
3, 41414, Note_on_c, 9, 38, 0
3, 41414, Note_on_c, 9, 46, 0
3, 41460, Note_on_c, 9, 46, 127
3, 41460, Note_on_c, 9, 35, 127
3, 41474, Note_on_c, 9, 35, 0
3, 41474, Note_on_c, 9, 46, 0
3, 41520, Note_on_c, 9, 46, 127
3, 41534, Note_on_c, 9, 46, 0
3, 41580, Note_on_c, 9, 46, 127
3, 41580, Note_on_c, 9, 35, 127
3, 41594, Note_on_c, 9, 35, 0
3, 41594, Note_on_c, 9, 46, 0
3, 41640, Note_on_c, 9, 46, 127
3, 41640, Note_on_c, 9, 38, 127
3, 41654, Note_on_c, 9, 38, 0
3, 41654, Note_on_c, 9, 46, 0
3, 41700, Note_on_c, 9, 46, 127
3, 41714, Note_on_c, 9, 46, 0
3, 41760, Note_on_c, 9, 46, 127
3, 41760, Note_on_c, 9, 35, 127
3, 41774, Note_on_c, 9, 35, 0
3, 41774, Note_on_c, 9, 46, 0
3, 41820, Note_on_c, 9, 46, 127
3, 41820, Note_on_c, 9, 35, 127
3, 41834, Note_on_c, 9, 35, 0
3, 41834, Note_on_c, 9, 46, 0
3, 41880, Note_on_c, 9, 46, 127
3, 41880, Note_on_c, 9, 38, 127
3, 41894, Note_on_c, 9, 38, 0
3, 41894, Note_on_c, 9, 46, 0
3, 41940, Note_on_c, 9, 43, 127
3, 41940, Note_on_c, 9, 41, 127
3, 41940, Note_on_c, 9, 46, 127
3, 41940, Note_on_c, 9, 35, 127
3, 41954, Note_on_c, 9, 35, 0
3, 41954, Note_on_c, 9, 43, 0
3, 41954, Note_on_c, 9, 41, 0
3, 41954, Note_on_c, 9, 46, 0
3, 42000, Note_on_c, 9, 40, 127
3, 42000, Note_on_c, 9, 38, 127
3, 42000, Note_on_c, 9, 46, 127
3, 42014, Note_on_c, 9, 46, 0
3, 42014, Note_on_c, 9, 38, 0
3, 42014, Note_on_c, 9, 40, 0
3, 42060, Note_on_c, 9, 46, 127
3, 42060, Note_on_c, 9, 35, 127
3, 42074, Note_on_c, 9, 35, 0
3, 42074, Note_on_c, 9, 46, 0
3, 42120, Note_on_c, 9, 35, 127
3, 42120, Note_on_c, 9, 40, 127
3, 42120, Note_on_c, 9, 38, 127
3, 42130, Note_on_c, 9, 38, 127
3, 42130, Note_on_c, 9, 40, 127
3, 42134, Note_on_c, 9, 40, 0
3, 42134, Note_on_c, 9, 35, 0
3, 42134, Note_on_c, 9, 38, 0
3, 42144, Note_on_c, 9, 38, 0
3, 42144, Note_on_c, 9, 40, 0
3, 42144, End_track
4, 0, Start_track
4, 0, MIDI_port, 0
4, 0, Title_t, "get into this band"
4, 0, Program_c, 1, 85
4, 0, Control_c, 1, 7, 127
4, 2220, Note_on_c, 1, 64, 127
4, 2279, Note_on_c, 1, 64, 0
4, 2280, Note_on_c, 1, 62, 127
4, 2339, Note_on_c, 1, 62, 0
4, 2340, Note_on_c, 1, 59, 127
4, 2459, Note_on_c, 1, 59, 0
4, 2460, Note_on_c, 1, 59, 127
4, 2579, Note_on_c, 1, 59, 0
4, 2580, Note_on_c, 1, 60, 127
4, 2639, Note_on_c, 1, 60, 0
4, 2640, Note_on_c, 1, 60, 127
4, 2699, Note_on_c, 1, 60, 0
4, 2700, Note_on_c, 1, 59, 127
4, 2759, Note_on_c, 1, 59, 0
4, 2760, Note_on_c, 1, 57, 127
4, 2819, Note_on_c, 1, 57, 0
4, 2820, Note_on_c, 1, 55, 127
4, 2879, Note_on_c, 1, 55, 0
4, 2880, Note_on_c, 1, 55, 127
4, 3059, Note_on_c, 1, 55, 0
4, 3300, Note_on_c, 1, 55, 127
4, 3329, Note_on_c, 1, 55, 0
4, 3330, Note_on_c, 1, 55, 127
4, 3359, Note_on_c, 1, 55, 0
4, 3360, Note_on_c, 1, 59, 127
4, 3419, Note_on_c, 1, 59, 0
4, 3420, Note_on_c, 1, 57, 127
4, 3479, Note_on_c, 1, 57, 0
4, 3480, Note_on_c, 1, 55, 127
4, 3659, Note_on_c, 1, 55, 0
4, 3660, Note_on_c, 1, 55, 127
4, 3719, Note_on_c, 1, 55, 0
4, 3720, Note_on_c, 1, 55, 127
4, 3779, Note_on_c, 1, 55, 0
4, 3780, Note_on_c, 1, 50, 127
4, 3839, Note_on_c, 1, 50, 0
4, 4080, Note_on_c, 1, 62, 127
4, 4139, Note_on_c, 1, 62, 0
4, 4140, Note_on_c, 1, 64, 127
4, 4199, Note_on_c, 1, 64, 0
4, 4200, Note_on_c, 1, 64, 127
4, 4259, Note_on_c, 1, 64, 0
4, 4260, Note_on_c, 1, 59, 127
4, 4319, Note_on_c, 1, 59, 0
4, 4320, Note_on_c, 1, 59, 127
4, 4499, Note_on_c, 1, 59, 0
4, 4500, Note_on_c, 1, 60, 127
4, 4559, Note_on_c, 1, 60, 0
4, 4560, Note_on_c, 1, 60, 127
4, 4619, Note_on_c, 1, 60, 0
4, 4620, Note_on_c, 1, 59, 127
4, 4679, Note_on_c, 1, 59, 0
4, 4680, Note_on_c, 1, 57, 127
4, 4739, Note_on_c, 1, 57, 0
4, 4740, Note_on_c, 1, 55, 127
4, 4799, Note_on_c, 1, 55, 0
4, 4800, Note_on_c, 1, 55, 127
4, 4979, Note_on_c, 1, 55, 0
4, 5220, Note_on_c, 1, 55, 127
4, 5249, Note_on_c, 1, 55, 0
4, 5250, Note_on_c, 1, 55, 127
4, 5279, Note_on_c, 1, 55, 0
4, 5280, Note_on_c, 1, 59, 127
4, 5339, Note_on_c, 1, 59, 0
4, 5340, Note_on_c, 1, 57, 127
4, 5399, Note_on_c, 1, 57, 0
4, 5400, Note_on_c, 1, 55, 127
4, 5579, Note_on_c, 1, 55, 0
4, 5580, Note_on_c, 1, 55, 127
4, 5639, Note_on_c, 1, 55, 0
4, 5640, Note_on_c, 1, 55, 127
4, 5759, Note_on_c, 1, 55, 0
4, 5760, Note_on_c, 1, 59, 127
4, 5879, Note_on_c, 1, 59, 0
4, 5880, Note_on_c, 1, 57, 127
4, 5939, Note_on_c, 1, 57, 0
4, 5940, Note_on_c, 1, 59, 127
4, 6059, Note_on_c, 1, 59, 0
4, 6060, Note_on_c, 1, 57, 127
4, 6119, Note_on_c, 1, 57, 0
4, 6120, Note_on_c, 1, 59, 127
4, 6239, Note_on_c, 1, 59, 0
4, 6240, Note_on_c, 1, 59, 127
4, 6299, Note_on_c, 1, 59, 0
4, 6300, Note_on_c, 1, 59, 127
4, 6359, Note_on_c, 1, 59, 0
4, 6360, Note_on_c, 1, 57, 127
4, 6419, Note_on_c, 1, 57, 0
4, 6420, Note_on_c, 1, 55, 127
4, 6599, Note_on_c, 1, 55, 0
4, 6660, Note_on_c, 1, 55, 127
4, 6719, Note_on_c, 1, 55, 0
4, 6720, Note_on_c, 1, 59, 127
4, 6839, Note_on_c, 1, 59, 0
4, 6840, Note_on_c, 1, 57, 127
4, 6899, Note_on_c, 1, 57, 0
4, 6900, Note_on_c, 1, 59, 127
4, 7019, Note_on_c, 1, 59, 0
4, 7020, Note_on_c, 1, 57, 127
4, 7079, Note_on_c, 1, 57, 0
4, 7080, Note_on_c, 1, 59, 127
4, 7199, Note_on_c, 1, 59, 0
4, 7200, Note_on_c, 1, 59, 127
4, 7259, Note_on_c, 1, 59, 0
4, 7260, Note_on_c, 1, 59, 127
4, 7319, Note_on_c, 1, 59, 0
4, 7320, Note_on_c, 1, 57, 127
4, 7379, Note_on_c, 1, 57, 0
4, 7380, Note_on_c, 1, 55, 127
4, 7559, Note_on_c, 1, 55, 0
4, 7620, Note_on_c, 1, 55, 127
4, 7679, Note_on_c, 1, 55, 0
4, 7680, Note_on_c, 1, 59, 127
4, 7799, Note_on_c, 1, 59, 0
4, 7800, Note_on_c, 1, 57, 127
4, 7859, Note_on_c, 1, 57, 0
4, 7860, Note_on_c, 1, 59, 127
4, 7979, Note_on_c, 1, 59, 0
4, 7980, Note_on_c, 1, 57, 127
4, 8039, Note_on_c, 1, 57, 0
4, 8040, Note_on_c, 1, 59, 127
4, 8159, Note_on_c, 1, 59, 0
4, 8160, Note_on_c, 1, 59, 127
4, 8219, Note_on_c, 1, 59, 0
4, 8220, Note_on_c, 1, 59, 127
4, 8279, Note_on_c, 1, 59, 0
4, 8280, Note_on_c, 1, 57, 127
4, 8339, Note_on_c, 1, 57, 0
4, 8340, Note_on_c, 1, 55, 127
4, 8519, Note_on_c, 1, 55, 0
4, 8580, Note_on_c, 1, 55, 127
4, 8639, Note_on_c, 1, 55, 0
4, 8640, Note_on_c, 1, 79, 100
4, 8640, Note_on_c, 1, 67, 127
4, 8759, Note_on_c, 1, 67, 0
4, 8759, Note_on_c, 1, 79, 0
4, 8760, Note_on_c, 1, 81, 100
4, 8760, Note_on_c, 1, 69, 127
4, 8819, Note_on_c, 1, 69, 0
4, 8819, Note_on_c, 1, 81, 0
4, 8820, Note_on_c, 1, 79, 100
4, 8820, Note_on_c, 1, 67, 127
4, 8939, Note_on_c, 1, 79, 0
4, 8999, Note_on_c, 1, 67, 0
4, 9060, Note_on_c, 1, 55, 127
4, 9119, Note_on_c, 1, 55, 0
4, 9120, Note_on_c, 1, 79, 100
4, 9120, Note_on_c, 1, 67, 127
4, 9239, Note_on_c, 1, 67, 0
4, 9239, Note_on_c, 1, 79, 0
4, 9240, Note_on_c, 1, 81, 100
4, 9240, Note_on_c, 1, 69, 127
4, 9299, Note_on_c, 1, 69, 0
4, 9299, Note_on_c, 1, 81, 0
4, 9300, Note_on_c, 1, 79, 100
4, 9300, Note_on_c, 1, 67, 127
4, 9419, Note_on_c, 1, 79, 0
4, 9479, Note_on_c, 1, 67, 0
4, 9540, Note_on_c, 1, 55, 127
4, 9599, Note_on_c, 1, 55, 0
4, 9600, Note_on_c, 1, 79, 100
4, 9600, Note_on_c, 1, 67, 127
4, 9719, Note_on_c, 1, 67, 0
4, 9719, Note_on_c, 1, 79, 0
4, 9720, Note_on_c, 1, 81, 100
4, 9720, Note_on_c, 1, 69, 127
4, 9779, Note_on_c, 1, 69, 0
4, 9779, Note_on_c, 1, 81, 0
4, 9780, Note_on_c, 1, 79, 100
4, 9780, Note_on_c, 1, 67, 127
4, 9899, Note_on_c, 1, 79, 0
4, 9959, Note_on_c, 1, 67, 0
4, 10020, Note_on_c, 1, 55, 127
4, 10079, Note_on_c, 1, 55, 0
4, 10080, Note_on_c, 1, 79, 100
4, 10080, Note_on_c, 1, 67, 127
4, 10139, Note_on_c, 1, 67, 0
4, 10139, Note_on_c, 1, 79, 0
4, 10140, Note_on_c, 1, 79, 100
4, 10140, Note_on_c, 1, 67, 127
4, 10259, Note_on_c, 1, 67, 0
4, 10259, Note_on_c, 1, 79, 0
4, 10260, Note_on_c, 1, 67, 127
4, 10260, Note_on_c, 1, 79, 100
4, 10379, Note_on_c, 1, 79, 0
4, 10379, Note_on_c, 1, 67, 0
4, 10500, Note_on_c, 1, 55, 127
4, 10559, Note_on_c, 1, 55, 0
4, 10560, Note_on_c, 1, 79, 100
4, 10560, Note_on_c, 1, 67, 127
4, 10679, Note_on_c, 1, 67, 0
4, 10679, Note_on_c, 1, 79, 0
4, 10680, Note_on_c, 1, 81, 100
4, 10680, Note_on_c, 1, 69, 127
4, 10739, Note_on_c, 1, 69, 0
4, 10739, Note_on_c, 1, 81, 0
4, 10740, Note_on_c, 1, 79, 100
4, 10740, Note_on_c, 1, 67, 127
4, 10859, Note_on_c, 1, 79, 0
4, 10919, Note_on_c, 1, 67, 0
4, 10980, Note_on_c, 1, 55, 127
4, 11039, Note_on_c, 1, 55, 0
4, 11040, Note_on_c, 1, 79, 100
4, 11040, Note_on_c, 1, 67, 127
4, 11159, Note_on_c, 1, 67, 0
4, 11159, Note_on_c, 1, 79, 0
4, 11160, Note_on_c, 1, 81, 100
4, 11160, Note_on_c, 1, 69, 127
4, 11219, Note_on_c, 1, 69, 0
4, 11219, Note_on_c, 1, 81, 0
4, 11220, Note_on_c, 1, 79, 100
4, 11220, Note_on_c, 1, 67, 127
4, 11339, Note_on_c, 1, 79, 0
4, 11399, Note_on_c, 1, 67, 0
4, 11460, Note_on_c, 1, 55, 127
4, 11519, Note_on_c, 1, 55, 0
4, 11520, Note_on_c, 1, 79, 100
4, 11520, Note_on_c, 1, 67, 127
4, 11639, Note_on_c, 1, 67, 0
4, 11639, Note_on_c, 1, 79, 0
4, 11640, Note_on_c, 1, 81, 100
4, 11640, Note_on_c, 1, 69, 127
4, 11699, Note_on_c, 1, 69, 0
4, 11699, Note_on_c, 1, 81, 0
4, 11700, Note_on_c, 1, 79, 100
4, 11700, Note_on_c, 1, 67, 127
4, 11819, Note_on_c, 1, 79, 0
4, 11879, Note_on_c, 1, 67, 0
4, 11940, Note_on_c, 1, 55, 127
4, 11999, Note_on_c, 1, 55, 0
4, 12000, Note_on_c, 1, 79, 100
4, 12000, Note_on_c, 1, 67, 127
4, 12059, Note_on_c, 1, 67, 0
4, 12059, Note_on_c, 1, 79, 0
4, 12060, Note_on_c, 1, 79, 100
4, 12060, Note_on_c, 1, 67, 127
4, 12179, Note_on_c, 1, 67, 0
4, 12179, Note_on_c, 1, 79, 0
4, 12180, Note_on_c, 1, 67, 127
4, 12180, Note_on_c, 1, 79, 100
4, 12299, Note_on_c, 1, 79, 0
4, 12299, Note_on_c, 1, 67, 0
4, 14700, Note_on_c, 1, 64, 127
4, 14759, Note_on_c, 1, 64, 0
4, 14760, Note_on_c, 1, 62, 127
4, 14819, Note_on_c, 1, 62, 0
4, 14820, Note_on_c, 1, 59, 127
4, 14939, Note_on_c, 1, 59, 0
4, 14940, Note_on_c, 1, 59, 127
4, 15059, Note_on_c, 1, 59, 0
4, 15060, Note_on_c, 1, 60, 127
4, 15119, Note_on_c, 1, 60, 0
4, 15120, Note_on_c, 1, 60, 127
4, 15179, Note_on_c, 1, 60, 0
4, 15180, Note_on_c, 1, 59, 127
4, 15239, Note_on_c, 1, 59, 0
4, 15240, Note_on_c, 1, 57, 127
4, 15299, Note_on_c, 1, 57, 0
4, 15300, Note_on_c, 1, 55, 127
4, 15359, Note_on_c, 1, 55, 0
4, 15360, Note_on_c, 1, 55, 127
4, 15539, Note_on_c, 1, 55, 0
4, 15780, Note_on_c, 1, 55, 127
4, 15809, Note_on_c, 1, 55, 0
4, 15810, Note_on_c, 1, 55, 127
4, 15839, Note_on_c, 1, 55, 0
4, 15840, Note_on_c, 1, 59, 127
4, 15899, Note_on_c, 1, 59, 0
4, 15900, Note_on_c, 1, 57, 127
4, 15959, Note_on_c, 1, 57, 0
4, 15960, Note_on_c, 1, 55, 127
4, 16139, Note_on_c, 1, 55, 0
4, 16140, Note_on_c, 1, 55, 127
4, 16199, Note_on_c, 1, 55, 0
4, 16200, Note_on_c, 1, 55, 127
4, 16259, Note_on_c, 1, 55, 0
4, 16260, Note_on_c, 1, 55, 127
4, 16319, Note_on_c, 1, 55, 0
4, 16560, Note_on_c, 1, 62, 127
4, 16619, Note_on_c, 1, 62, 0
4, 16620, Note_on_c, 1, 64, 127
4, 16679, Note_on_c, 1, 64, 0
4, 16680, Note_on_c, 1, 64, 127
4, 16739, Note_on_c, 1, 64, 0
4, 16740, Note_on_c, 1, 59, 127
4, 16799, Note_on_c, 1, 59, 0
4, 16800, Note_on_c, 1, 59, 127
4, 16979, Note_on_c, 1, 59, 0
4, 16980, Note_on_c, 1, 60, 127
4, 17039, Note_on_c, 1, 60, 0
4, 17040, Note_on_c, 1, 60, 127
4, 17099, Note_on_c, 1, 60, 0
4, 17100, Note_on_c, 1, 59, 127
4, 17159, Note_on_c, 1, 59, 0
4, 17160, Note_on_c, 1, 57, 127
4, 17219, Note_on_c, 1, 57, 0
4, 17220, Note_on_c, 1, 55, 127
4, 17279, Note_on_c, 1, 55, 0
4, 17280, Note_on_c, 1, 55, 127
4, 17459, Note_on_c, 1, 55, 0
4, 17700, Note_on_c, 1, 55, 127
4, 17729, Note_on_c, 1, 55, 0
4, 17730, Note_on_c, 1, 55, 127
4, 17759, Note_on_c, 1, 55, 0
4, 17760, Note_on_c, 1, 59, 127
4, 17819, Note_on_c, 1, 59, 0
4, 17820, Note_on_c, 1, 57, 127
4, 17879, Note_on_c, 1, 57, 0
4, 17880, Note_on_c, 1, 55, 127
4, 18059, Note_on_c, 1, 55, 0
4, 18060, Note_on_c, 1, 55, 127
4, 18119, Note_on_c, 1, 55, 0
4, 18120, Note_on_c, 1, 55, 127
4, 18239, Note_on_c, 1, 55, 0
4, 18240, Note_on_c, 1, 59, 127
4, 18359, Note_on_c, 1, 59, 0
4, 18360, Note_on_c, 1, 57, 127
4, 18419, Note_on_c, 1, 57, 0
4, 18420, Note_on_c, 1, 59, 127
4, 18539, Note_on_c, 1, 59, 0
4, 18540, Note_on_c, 1, 57, 127
4, 18599, Note_on_c, 1, 57, 0
4, 18600, Note_on_c, 1, 59, 127
4, 18719, Note_on_c, 1, 59, 0
4, 18720, Note_on_c, 1, 59, 127
4, 18779, Note_on_c, 1, 59, 0
4, 18780, Note_on_c, 1, 59, 127
4, 18839, Note_on_c, 1, 59, 0
4, 18840, Note_on_c, 1, 57, 127
4, 18899, Note_on_c, 1, 57, 0
4, 18900, Note_on_c, 1, 55, 127
4, 19079, Note_on_c, 1, 55, 0
4, 19140, Note_on_c, 1, 55, 127
4, 19199, Note_on_c, 1, 55, 0
4, 19200, Note_on_c, 1, 59, 127
4, 19319, Note_on_c, 1, 59, 0
4, 19320, Note_on_c, 1, 57, 127
4, 19379, Note_on_c, 1, 57, 0
4, 19380, Note_on_c, 1, 59, 127
4, 19499, Note_on_c, 1, 59, 0
4, 19500, Note_on_c, 1, 57, 127
4, 19559, Note_on_c, 1, 57, 0
4, 19560, Note_on_c, 1, 59, 127
4, 19679, Note_on_c, 1, 59, 0
4, 19680, Note_on_c, 1, 59, 127
4, 19739, Note_on_c, 1, 59, 0
4, 19740, Note_on_c, 1, 59, 127
4, 19799, Note_on_c, 1, 59, 0
4, 19800, Note_on_c, 1, 57, 127
4, 19859, Note_on_c, 1, 57, 0
4, 19860, Note_on_c, 1, 55, 127
4, 20039, Note_on_c, 1, 55, 0
4, 20100, Note_on_c, 1, 55, 127
4, 20159, Note_on_c, 1, 55, 0
4, 20160, Note_on_c, 1, 59, 127
4, 20279, Note_on_c, 1, 59, 0
4, 20280, Note_on_c, 1, 57, 127
4, 20339, Note_on_c, 1, 57, 0
4, 20340, Note_on_c, 1, 59, 127
4, 20459, Note_on_c, 1, 59, 0
4, 20460, Note_on_c, 1, 57, 127
4, 20519, Note_on_c, 1, 57, 0
4, 20520, Note_on_c, 1, 59, 127
4, 20639, Note_on_c, 1, 59, 0
4, 20640, Note_on_c, 1, 59, 127
4, 20699, Note_on_c, 1, 59, 0
4, 20700, Note_on_c, 1, 59, 127
4, 20759, Note_on_c, 1, 59, 0
4, 20760, Note_on_c, 1, 57, 127
4, 20819, Note_on_c, 1, 57, 0
4, 20820, Note_on_c, 1, 55, 127
4, 20999, Note_on_c, 1, 55, 0
4, 21060, Note_on_c, 1, 55, 127
4, 21119, Note_on_c, 1, 55, 0
4, 21120, Note_on_c, 1, 79, 100
4, 21120, Note_on_c, 1, 67, 127
4, 21239, Note_on_c, 1, 67, 0
4, 21239, Note_on_c, 1, 79, 0
4, 21240, Note_on_c, 1, 81, 100
4, 21240, Note_on_c, 1, 69, 127
4, 21299, Note_on_c, 1, 69, 0
4, 21299, Note_on_c, 1, 81, 0
4, 21300, Note_on_c, 1, 79, 100
4, 21300, Note_on_c, 1, 67, 127
4, 21419, Note_on_c, 1, 79, 0
4, 21479, Note_on_c, 1, 67, 0
4, 21540, Note_on_c, 1, 55, 127
4, 21599, Note_on_c, 1, 55, 0
4, 21600, Note_on_c, 1, 79, 100
4, 21600, Note_on_c, 1, 67, 127
4, 21719, Note_on_c, 1, 67, 0
4, 21719, Note_on_c, 1, 79, 0
4, 21720, Note_on_c, 1, 81, 100
4, 21720, Note_on_c, 1, 69, 127
4, 21779, Note_on_c, 1, 69, 0
4, 21779, Note_on_c, 1, 81, 0
4, 21780, Note_on_c, 1, 79, 100
4, 21780, Note_on_c, 1, 67, 127
4, 21899, Note_on_c, 1, 79, 0
4, 21959, Note_on_c, 1, 67, 0
4, 22020, Note_on_c, 1, 55, 127
4, 22079, Note_on_c, 1, 55, 0
4, 22080, Note_on_c, 1, 79, 100
4, 22080, Note_on_c, 1, 67, 127
4, 22199, Note_on_c, 1, 67, 0
4, 22199, Note_on_c, 1, 79, 0
4, 22200, Note_on_c, 1, 81, 100
4, 22200, Note_on_c, 1, 69, 127
4, 22259, Note_on_c, 1, 69, 0
4, 22259, Note_on_c, 1, 81, 0
4, 22260, Note_on_c, 1, 79, 100
4, 22260, Note_on_c, 1, 67, 127
4, 22379, Note_on_c, 1, 79, 0
4, 22439, Note_on_c, 1, 67, 0
4, 22500, Note_on_c, 1, 55, 127
4, 22559, Note_on_c, 1, 55, 0
4, 22560, Note_on_c, 1, 79, 100
4, 22560, Note_on_c, 1, 67, 127
4, 22619, Note_on_c, 1, 67, 0
4, 22619, Note_on_c, 1, 79, 0
4, 22620, Note_on_c, 1, 79, 100
4, 22620, Note_on_c, 1, 67, 127
4, 22739, Note_on_c, 1, 67, 0
4, 22739, Note_on_c, 1, 79, 0
4, 22740, Note_on_c, 1, 67, 127
4, 22740, Note_on_c, 1, 79, 100
4, 22859, Note_on_c, 1, 79, 0
4, 22859, Note_on_c, 1, 67, 0
4, 22980, Note_on_c, 1, 55, 127
4, 23039, Note_on_c, 1, 55, 0
4, 23040, Note_on_c, 1, 79, 100
4, 23040, Note_on_c, 1, 67, 127
4, 23159, Note_on_c, 1, 67, 0
4, 23159, Note_on_c, 1, 79, 0
4, 23160, Note_on_c, 1, 81, 100
4, 23160, Note_on_c, 1, 69, 127
4, 23219, Note_on_c, 1, 69, 0
4, 23219, Note_on_c, 1, 81, 0
4, 23220, Note_on_c, 1, 79, 100
4, 23220, Note_on_c, 1, 67, 127
4, 23339, Note_on_c, 1, 79, 0
4, 23399, Note_on_c, 1, 67, 0
4, 23460, Note_on_c, 1, 55, 127
4, 23519, Note_on_c, 1, 55, 0
4, 23520, Note_on_c, 1, 79, 100
4, 23520, Note_on_c, 1, 67, 127
4, 23639, Note_on_c, 1, 67, 0
4, 23639, Note_on_c, 1, 79, 0
4, 23640, Note_on_c, 1, 81, 100
4, 23640, Note_on_c, 1, 69, 127
4, 23699, Note_on_c, 1, 69, 0
4, 23699, Note_on_c, 1, 81, 0
4, 23700, Note_on_c, 1, 79, 100
4, 23700, Note_on_c, 1, 67, 127
4, 23819, Note_on_c, 1, 79, 0
4, 23879, Note_on_c, 1, 67, 0
4, 23940, Note_on_c, 1, 55, 127
4, 23999, Note_on_c, 1, 55, 0
4, 24000, Note_on_c, 1, 79, 100
4, 24000, Note_on_c, 1, 67, 127
4, 24119, Note_on_c, 1, 67, 0
4, 24119, Note_on_c, 1, 79, 0
4, 24120, Note_on_c, 1, 81, 100
4, 24120, Note_on_c, 1, 69, 127
4, 24179, Note_on_c, 1, 69, 0
4, 24179, Note_on_c, 1, 81, 0
4, 24180, Note_on_c, 1, 79, 100
4, 24180, Note_on_c, 1, 67, 127
4, 24299, Note_on_c, 1, 79, 0
4, 24359, Note_on_c, 1, 67, 0
4, 24420, Note_on_c, 1, 55, 127
4, 24479, Note_on_c, 1, 55, 0
4, 24480, Note_on_c, 1, 79, 100
4, 24480, Note_on_c, 1, 67, 127
4, 24539, Note_on_c, 1, 67, 0
4, 24539, Note_on_c, 1, 79, 0
4, 24540, Note_on_c, 1, 79, 100
4, 24540, Note_on_c, 1, 67, 127
4, 24659, Note_on_c, 1, 67, 0
4, 24659, Note_on_c, 1, 79, 0
4, 24660, Note_on_c, 1, 67, 127
4, 24660, Note_on_c, 1, 79, 100
4, 24779, Note_on_c, 1, 79, 0
4, 24779, Note_on_c, 1, 67, 0
4, 30660, Note_on_c, 1, 55, 127
4, 30719, Note_on_c, 1, 55, 0
4, 30720, Note_on_c, 1, 79, 100
4, 30720, Note_on_c, 1, 67, 127
4, 30839, Note_on_c, 1, 67, 0
4, 30839, Note_on_c, 1, 79, 0
4, 30840, Note_on_c, 1, 81, 100
4, 30840, Note_on_c, 1, 69, 127
4, 30899, Note_on_c, 1, 69, 0
4, 30899, Note_on_c, 1, 81, 0
4, 30900, Note_on_c, 1, 79, 100
4, 30900, Note_on_c, 1, 67, 127
4, 31019, Note_on_c, 1, 79, 0
4, 31079, Note_on_c, 1, 67, 0
4, 31140, Note_on_c, 1, 55, 127
4, 31199, Note_on_c, 1, 55, 0
4, 31200, Note_on_c, 1, 79, 100
4, 31200, Note_on_c, 1, 67, 127
4, 31319, Note_on_c, 1, 67, 0
4, 31319, Note_on_c, 1, 79, 0
4, 31320, Note_on_c, 1, 81, 100
4, 31320, Note_on_c, 1, 69, 127
4, 31379, Note_on_c, 1, 69, 0
4, 31379, Note_on_c, 1, 81, 0
4, 31380, Note_on_c, 1, 79, 100
4, 31380, Note_on_c, 1, 67, 127
4, 31499, Note_on_c, 1, 79, 0
4, 31559, Note_on_c, 1, 67, 0
4, 31620, Note_on_c, 1, 55, 127
4, 31679, Note_on_c, 1, 55, 0
4, 31680, Note_on_c, 1, 79, 100
4, 31680, Note_on_c, 1, 67, 127
4, 31799, Note_on_c, 1, 67, 0
4, 31799, Note_on_c, 1, 79, 0
4, 31800, Note_on_c, 1, 81, 100
4, 31800, Note_on_c, 1, 69, 127
4, 31859, Note_on_c, 1, 69, 0
4, 31859, Note_on_c, 1, 81, 0
4, 31860, Note_on_c, 1, 79, 100
4, 31860, Note_on_c, 1, 67, 127
4, 31979, Note_on_c, 1, 79, 0
4, 32039, Note_on_c, 1, 67, 0
4, 32100, Note_on_c, 1, 55, 127
4, 32159, Note_on_c, 1, 55, 0
4, 32160, Note_on_c, 1, 79, 100
4, 32160, Note_on_c, 1, 67, 127
4, 32219, Note_on_c, 1, 67, 0
4, 32219, Note_on_c, 1, 79, 0
4, 32220, Note_on_c, 1, 79, 100
4, 32220, Note_on_c, 1, 67, 127
4, 32339, Note_on_c, 1, 67, 0
4, 32339, Note_on_c, 1, 79, 0
4, 32340, Note_on_c, 1, 67, 127
4, 32340, Note_on_c, 1, 79, 100
4, 32459, Note_on_c, 1, 79, 0
4, 32459, Note_on_c, 1, 67, 0
4, 32580, Note_on_c, 1, 55, 127
4, 32639, Note_on_c, 1, 55, 0
4, 32640, Note_on_c, 1, 79, 100
4, 32640, Note_on_c, 1, 67, 127
4, 32759, Note_on_c, 1, 67, 0
4, 32759, Note_on_c, 1, 79, 0
4, 32760, Note_on_c, 1, 81, 100
4, 32760, Note_on_c, 1, 69, 127
4, 32819, Note_on_c, 1, 69, 0
4, 32819, Note_on_c, 1, 81, 0
4, 32820, Note_on_c, 1, 79, 100
4, 32820, Note_on_c, 1, 67, 127
4, 32939, Note_on_c, 1, 79, 0
4, 32999, Note_on_c, 1, 67, 0
4, 33060, Note_on_c, 1, 55, 127
4, 33119, Note_on_c, 1, 55, 0
4, 33120, Note_on_c, 1, 79, 100
4, 33120, Note_on_c, 1, 67, 127
4, 33239, Note_on_c, 1, 67, 0
4, 33239, Note_on_c, 1, 79, 0
4, 33240, Note_on_c, 1, 81, 100
4, 33240, Note_on_c, 1, 69, 127
4, 33299, Note_on_c, 1, 69, 0
4, 33299, Note_on_c, 1, 81, 0
4, 33300, Note_on_c, 1, 79, 100
4, 33300, Note_on_c, 1, 67, 127
4, 33419, Note_on_c, 1, 79, 0
4, 33479, Note_on_c, 1, 67, 0
4, 33540, Note_on_c, 1, 55, 127
4, 33599, Note_on_c, 1, 55, 0
4, 33600, Note_on_c, 1, 79, 100
4, 33600, Note_on_c, 1, 67, 127
4, 33719, Note_on_c, 1, 67, 0
4, 33719, Note_on_c, 1, 79, 0
4, 33720, Note_on_c, 1, 81, 100
4, 33720, Note_on_c, 1, 69, 127
4, 33779, Note_on_c, 1, 69, 0
4, 33779, Note_on_c, 1, 81, 0
4, 33780, Note_on_c, 1, 79, 100
4, 33780, Note_on_c, 1, 67, 127
4, 33899, Note_on_c, 1, 79, 0
4, 33959, Note_on_c, 1, 67, 0
4, 34020, Note_on_c, 1, 55, 127
4, 34079, Note_on_c, 1, 55, 0
4, 34080, Note_on_c, 1, 79, 100
4, 34080, Note_on_c, 1, 67, 127
4, 34139, Note_on_c, 1, 67, 0
4, 34139, Note_on_c, 1, 79, 0
4, 34140, Note_on_c, 1, 79, 100
4, 34140, Note_on_c, 1, 67, 127
4, 34259, Note_on_c, 1, 67, 0
4, 34259, Note_on_c, 1, 79, 0
4, 34260, Note_on_c, 1, 67, 127
4, 34260, Note_on_c, 1, 79, 100
4, 34379, Note_on_c, 1, 79, 0
4, 34379, Note_on_c, 1, 67, 0
4, 34500, Note_on_c, 1, 55, 127
4, 34559, Note_on_c, 1, 55, 0
4, 34560, Note_on_c, 1, 79, 100
4, 34560, Note_on_c, 1, 67, 127
4, 34619, Note_on_c, 1, 67, 0
4, 34619, Note_on_c, 1, 79, 0
4, 34620, Note_on_c, 1, 79, 100
4, 34620, Note_on_c, 1, 67, 127
4, 34739, Note_on_c, 1, 67, 0
4, 34739, Note_on_c, 1, 79, 0
4, 34740, Note_on_c, 1, 67, 127
4, 34740, Note_on_c, 1, 79, 100
4, 34859, Note_on_c, 1, 79, 0
4, 34859, Note_on_c, 1, 67, 0
4, 34980, Note_on_c, 1, 55, 127
4, 35039, Note_on_c, 1, 55, 0
4, 35040, Note_on_c, 1, 79, 100
4, 35040, Note_on_c, 1, 67, 127
4, 35099, Note_on_c, 1, 67, 0
4, 35099, Note_on_c, 1, 79, 0
4, 35100, Note_on_c, 1, 79, 100
4, 35100, Note_on_c, 1, 67, 127
4, 35219, Note_on_c, 1, 67, 0
4, 35219, Note_on_c, 1, 79, 0
4, 35220, Note_on_c, 1, 67, 127
4, 35220, Note_on_c, 1, 79, 100
4, 35339, Note_on_c, 1, 79, 0
4, 35339, Note_on_c, 1, 67, 0
4, 35460, Note_on_c, 1, 55, 127
4, 35519, Note_on_c, 1, 55, 0
4, 35520, Note_on_c, 1, 79, 100
4, 35520, Note_on_c, 1, 67, 127
4, 35579, Note_on_c, 1, 67, 0
4, 35579, Note_on_c, 1, 79, 0
4, 35580, Note_on_c, 1, 79, 100
4, 35580, Note_on_c, 1, 67, 127
4, 35699, Note_on_c, 1, 67, 0
4, 35699, Note_on_c, 1, 79, 0
4, 35700, Note_on_c, 1, 67, 127
4, 35700, Note_on_c, 1, 79, 100
4, 35819, Note_on_c, 1, 79, 0
4, 35819, Note_on_c, 1, 67, 0
4, 35940, Note_on_c, 1, 55, 127
4, 35999, Note_on_c, 1, 55, 0
4, 36000, Note_on_c, 1, 79, 100
4, 36000, Note_on_c, 1, 67, 127
4, 36059, Note_on_c, 1, 67, 0
4, 36059, Note_on_c, 1, 79, 0
4, 36060, Note_on_c, 1, 79, 100
4, 36060, Note_on_c, 1, 67, 127
4, 36179, Note_on_c, 1, 67, 0
4, 36179, Note_on_c, 1, 79, 0
4, 36180, Note_on_c, 1, 67, 127
4, 36180, Note_on_c, 1, 79, 100
4, 36299, Note_on_c, 1, 79, 0
4, 36299, Note_on_c, 1, 67, 0
4, 36420, Note_on_c, 1, 55, 127
4, 36479, Note_on_c, 1, 55, 0
4, 36480, Note_on_c, 1, 79, 100
4, 36480, Note_on_c, 1, 67, 127
4, 36539, Note_on_c, 1, 67, 0
4, 36539, Note_on_c, 1, 79, 0
4, 36540, Note_on_c, 1, 79, 100
4, 36540, Note_on_c, 1, 67, 127
4, 36659, Note_on_c, 1, 67, 0
4, 36659, Note_on_c, 1, 79, 0
4, 36660, Note_on_c, 1, 67, 127
4, 36660, Note_on_c, 1, 79, 100
4, 36779, Note_on_c, 1, 79, 0
4, 36779, Note_on_c, 1, 67, 0
4, 36900, Note_on_c, 1, 55, 127
4, 36959, Note_on_c, 1, 55, 0
4, 36960, Note_on_c, 1, 79, 100
4, 36960, Note_on_c, 1, 67, 127
4, 37019, Note_on_c, 1, 67, 0
4, 37019, Note_on_c, 1, 79, 0
4, 37020, Note_on_c, 1, 79, 100
4, 37020, Note_on_c, 1, 67, 127
4, 37139, Note_on_c, 1, 67, 0
4, 37139, Note_on_c, 1, 79, 0
4, 37140, Note_on_c, 1, 67, 127
4, 37140, Note_on_c, 1, 79, 100
4, 37259, Note_on_c, 1, 79, 0
4, 37259, Note_on_c, 1, 67, 0
4, 37380, Note_on_c, 1, 55, 127
4, 37439, Note_on_c, 1, 55, 0
4, 37440, Note_on_c, 1, 79, 100
4, 37440, Note_on_c, 1, 67, 127
4, 37499, Note_on_c, 1, 67, 0
4, 37499, Note_on_c, 1, 79, 0
4, 37500, Note_on_c, 1, 79, 100
4, 37500, Note_on_c, 1, 67, 127
4, 37619, Note_on_c, 1, 67, 0
4, 37619, Note_on_c, 1, 79, 0
4, 37620, Note_on_c, 1, 67, 127
4, 37620, Note_on_c, 1, 79, 100
4, 37739, Note_on_c, 1, 79, 0
4, 37739, Note_on_c, 1, 67, 0
4, 37860, Note_on_c, 1, 55, 127
4, 37919, Note_on_c, 1, 55, 0
4, 37920, Note_on_c, 1, 79, 100
4, 37920, Note_on_c, 1, 67, 127
4, 37979, Note_on_c, 1, 67, 0
4, 37979, Note_on_c, 1, 79, 0
4, 37980, Note_on_c, 1, 79, 100
4, 37980, Note_on_c, 1, 67, 127
4, 38099, Note_on_c, 1, 67, 0
4, 38099, Note_on_c, 1, 79, 0
4, 38100, Note_on_c, 1, 67, 127
4, 38100, Note_on_c, 1, 79, 100
4, 38219, Note_on_c, 1, 79, 0
4, 38219, Note_on_c, 1, 67, 0
4, 38520, Note_on_c, 1, 55, 100
4, 38639, Note_on_c, 1, 55, 0
4, 38640, Note_on_c, 1, 81, 100
4, 38879, Note_on_c, 1, 81, 0
4, 38880, Note_on_c, 1, 79, 100
4, 39239, Note_on_c, 1, 79, 0
4, 39480, Note_on_c, 1, 55, 100
4, 39599, Note_on_c, 1, 55, 0
4, 39600, Note_on_c, 1, 81, 100
4, 39839, Note_on_c, 1, 81, 0
4, 39840, Note_on_c, 1, 79, 100
4, 40199, Note_on_c, 1, 79, 0
4, 40440, Note_on_c, 1, 55, 100
4, 40559, Note_on_c, 1, 55, 0
4, 40560, Note_on_c, 1, 81, 100
4, 40799, Note_on_c, 1, 81, 0
4, 40800, Note_on_c, 1, 79, 100
4, 41159, Note_on_c, 1, 79, 0
4, 41400, Note_on_c, 1, 55, 100
4, 41519, Note_on_c, 1, 55, 0
4, 41520, Note_on_c, 1, 81, 100
4, 41759, Note_on_c, 1, 81, 0
4, 41760, Note_on_c, 1, 79, 100
4, 42119, Note_on_c, 1, 79, 0
4, 42180, Note_on_c, 1, 55, 127
4, 42239, Note_on_c, 1, 55, 0
4, 42240, Note_on_c, 1, 79, 100
4, 42240, Note_on_c, 1, 67, 127
4, 42359, Note_on_c, 1, 67, 0
4, 42359, Note_on_c, 1, 79, 0
4, 42360, Note_on_c, 1, 81, 100
4, 42360, Note_on_c, 1, 69, 127
4, 42419, Note_on_c, 1, 69, 0
4, 42419, Note_on_c, 1, 81, 0
4, 42420, Note_on_c, 1, 79, 100
4, 42420, Note_on_c, 1, 67, 127
4, 42539, Note_on_c, 1, 79, 0
4, 42599, Note_on_c, 1, 67, 0
4, 42599, End_track
5, 0, Start_track
5, 0, MIDI_port, 0
5, 0, Title_t, "they are great"
5, 0, Program_c, 2, 30
5, 0, Control_c, 2, 7, 115
5, 0, Control_c, 2, 10, 32
5, 5760, Note_on_c, 2, 67, 100
5, 6719, Note_on_c, 2, 67, 0
5, 6720, Note_on_c, 2, 67, 100
5, 6720, Note_on_c, 2, 74, 80
5, 7679, Note_on_c, 2, 74, 0
5, 7679, Note_on_c, 2, 67, 0
5, 7680, Note_on_c, 2, 67, 100
5, 8639, Note_on_c, 2, 67, 0
5, 8640, Note_on_c, 2, 55, 127
5, 8640, Note_on_c, 2, 50, 127
5, 8640, Note_on_c, 2, 43, 127
5, 8819, Note_on_c, 2, 43, 0
5, 8819, Note_on_c, 2, 50, 0
5, 8819, Note_on_c, 2, 55, 0
5, 8820, Note_on_c, 2, 62, 127
5, 8820, Note_on_c, 2, 57, 127
5, 8820, Note_on_c, 2, 50, 127
5, 8939, Note_on_c, 2, 50, 0
5, 8939, Note_on_c, 2, 57, 0
5, 8939, Note_on_c, 2, 62, 0
5, 8940, Note_on_c, 2, 64, 127
5, 8940, Note_on_c, 2, 59, 127
5, 8940, Note_on_c, 2, 52, 127
5, 9059, Note_on_c, 2, 52, 0
5, 9059, Note_on_c, 2, 59, 0
5, 9059, Note_on_c, 2, 64, 0
5, 9060, Note_on_c, 2, 59, 127
5, 9060, Note_on_c, 2, 54, 127
5, 9060, Note_on_c, 2, 47, 127
5, 9119, Note_on_c, 2, 47, 0
5, 9119, Note_on_c, 2, 54, 0
5, 9119, Note_on_c, 2, 59, 0
5, 9120, Note_on_c, 2, 59, 127
5, 9120, Note_on_c, 2, 54, 127
5, 9120, Note_on_c, 2, 47, 127
5, 9299, Note_on_c, 2, 47, 0
5, 9299, Note_on_c, 2, 54, 0
5, 9299, Note_on_c, 2, 59, 0
5, 9300, Note_on_c, 2, 60, 127
5, 9300, Note_on_c, 2, 55, 127
5, 9300, Note_on_c, 2, 48, 127
5, 9419, Note_on_c, 2, 48, 0
5, 9419, Note_on_c, 2, 55, 0
5, 9419, Note_on_c, 2, 60, 0
5, 9420, Note_on_c, 2, 62, 127
5, 9420, Note_on_c, 2, 57, 127
5, 9420, Note_on_c, 2, 50, 127
5, 9539, Note_on_c, 2, 50, 0
5, 9539, Note_on_c, 2, 57, 0
5, 9539, Note_on_c, 2, 62, 0
5, 9540, Note_on_c, 2, 55, 127
5, 9540, Note_on_c, 2, 50, 127
5, 9540, Note_on_c, 2, 43, 127
5, 9599, Note_on_c, 2, 43, 0
5, 9599, Note_on_c, 2, 50, 0
5, 9599, Note_on_c, 2, 55, 0
5, 9600, Note_on_c, 2, 55, 127
5, 9600, Note_on_c, 2, 50, 127
5, 9600, Note_on_c, 2, 43, 127
5, 9779, Note_on_c, 2, 43, 0
5, 9779, Note_on_c, 2, 50, 0
5, 9779, Note_on_c, 2, 55, 0
5, 9780, Note_on_c, 2, 62, 127
5, 9780, Note_on_c, 2, 57, 127
5, 9780, Note_on_c, 2, 50, 127
5, 9899, Note_on_c, 2, 50, 0
5, 9899, Note_on_c, 2, 57, 0
5, 9899, Note_on_c, 2, 62, 0
5, 9900, Note_on_c, 2, 64, 127
5, 9900, Note_on_c, 2, 59, 127
5, 9900, Note_on_c, 2, 52, 127
5, 10019, Note_on_c, 2, 52, 0
5, 10019, Note_on_c, 2, 59, 0
5, 10019, Note_on_c, 2, 64, 0
5, 10020, Note_on_c, 2, 59, 127
5, 10020, Note_on_c, 2, 54, 127
5, 10020, Note_on_c, 2, 47, 127
5, 10079, Note_on_c, 2, 47, 0
5, 10079, Note_on_c, 2, 54, 0
5, 10079, Note_on_c, 2, 59, 0
5, 10080, Note_on_c, 2, 59, 127
5, 10080, Note_on_c, 2, 54, 127
5, 10080, Note_on_c, 2, 47, 127
5, 10259, Note_on_c, 2, 47, 0
5, 10259, Note_on_c, 2, 54, 0
5, 10259, Note_on_c, 2, 59, 0
5, 10260, Note_on_c, 2, 60, 127
5, 10260, Note_on_c, 2, 55, 127
5, 10260, Note_on_c, 2, 48, 127
5, 10379, Note_on_c, 2, 48, 0
5, 10379, Note_on_c, 2, 55, 0
5, 10379, Note_on_c, 2, 60, 0
5, 10380, Note_on_c, 2, 62, 127
5, 10380, Note_on_c, 2, 57, 127
5, 10380, Note_on_c, 2, 50, 127
5, 10499, Note_on_c, 2, 50, 0
5, 10499, Note_on_c, 2, 57, 0
5, 10499, Note_on_c, 2, 62, 0
5, 10500, Note_on_c, 2, 55, 127
5, 10500, Note_on_c, 2, 50, 127
5, 10500, Note_on_c, 2, 43, 127
5, 10559, Note_on_c, 2, 43, 0
5, 10559, Note_on_c, 2, 50, 0
5, 10559, Note_on_c, 2, 55, 0
5, 10560, Note_on_c, 2, 55, 127
5, 10560, Note_on_c, 2, 50, 127
5, 10560, Note_on_c, 2, 43, 127
5, 10739, Note_on_c, 2, 43, 0
5, 10739, Note_on_c, 2, 50, 0
5, 10739, Note_on_c, 2, 55, 0
5, 10740, Note_on_c, 2, 62, 127
5, 10740, Note_on_c, 2, 57, 127
5, 10740, Note_on_c, 2, 50, 127
5, 10859, Note_on_c, 2, 50, 0
5, 10859, Note_on_c, 2, 57, 0
5, 10859, Note_on_c, 2, 62, 0
5, 10860, Note_on_c, 2, 64, 127
5, 10860, Note_on_c, 2, 59, 127
5, 10860, Note_on_c, 2, 52, 127
5, 10979, Note_on_c, 2, 52, 0
5, 10979, Note_on_c, 2, 59, 0
5, 10979, Note_on_c, 2, 64, 0
5, 10980, Note_on_c, 2, 59, 127
5, 10980, Note_on_c, 2, 54, 127
5, 10980, Note_on_c, 2, 47, 127
5, 11039, Note_on_c, 2, 47, 0
5, 11039, Note_on_c, 2, 54, 0
5, 11039, Note_on_c, 2, 59, 0
5, 11040, Note_on_c, 2, 59, 127
5, 11040, Note_on_c, 2, 54, 127
5, 11040, Note_on_c, 2, 47, 127
5, 11219, Note_on_c, 2, 47, 0
5, 11219, Note_on_c, 2, 54, 0
5, 11219, Note_on_c, 2, 59, 0
5, 11220, Note_on_c, 2, 60, 127
5, 11220, Note_on_c, 2, 55, 127
5, 11220, Note_on_c, 2, 48, 127
5, 11339, Note_on_c, 2, 48, 0
5, 11339, Note_on_c, 2, 55, 0
5, 11339, Note_on_c, 2, 60, 0
5, 11340, Note_on_c, 2, 62, 127
5, 11340, Note_on_c, 2, 57, 127
5, 11340, Note_on_c, 2, 50, 127
5, 11459, Note_on_c, 2, 50, 0
5, 11459, Note_on_c, 2, 57, 0
5, 11459, Note_on_c, 2, 62, 0
5, 11460, Note_on_c, 2, 55, 127
5, 11460, Note_on_c, 2, 50, 127
5, 11460, Note_on_c, 2, 43, 127
5, 11519, Note_on_c, 2, 43, 0
5, 11519, Note_on_c, 2, 50, 0
5, 11519, Note_on_c, 2, 55, 0
5, 11520, Note_on_c, 2, 55, 127
5, 11520, Note_on_c, 2, 50, 127
5, 11520, Note_on_c, 2, 43, 127
5, 11699, Note_on_c, 2, 43, 0
5, 11699, Note_on_c, 2, 50, 0
5, 11699, Note_on_c, 2, 55, 0
5, 11700, Note_on_c, 2, 62, 127
5, 11700, Note_on_c, 2, 57, 127
5, 11700, Note_on_c, 2, 50, 127
5, 11819, Note_on_c, 2, 50, 0
5, 11819, Note_on_c, 2, 57, 0
5, 11819, Note_on_c, 2, 62, 0
5, 11820, Note_on_c, 2, 64, 127
5, 11820, Note_on_c, 2, 59, 127
5, 11820, Note_on_c, 2, 52, 127
5, 11939, Note_on_c, 2, 52, 0
5, 11939, Note_on_c, 2, 59, 0
5, 11939, Note_on_c, 2, 64, 0
5, 11940, Note_on_c, 2, 59, 127
5, 11940, Note_on_c, 2, 54, 127
5, 11940, Note_on_c, 2, 47, 127
5, 11999, Note_on_c, 2, 47, 0
5, 11999, Note_on_c, 2, 54, 0
5, 11999, Note_on_c, 2, 59, 0
5, 12000, Note_on_c, 2, 59, 127
5, 12000, Note_on_c, 2, 54, 127
5, 12000, Note_on_c, 2, 47, 127
5, 12179, Note_on_c, 2, 47, 0
5, 12179, Note_on_c, 2, 54, 0
5, 12179, Note_on_c, 2, 59, 0
5, 12180, Note_on_c, 2, 60, 127
5, 12180, Note_on_c, 2, 55, 127
5, 12180, Note_on_c, 2, 48, 127
5, 12299, Note_on_c, 2, 48, 0
5, 12299, Note_on_c, 2, 55, 0
5, 12299, Note_on_c, 2, 60, 0
5, 12300, Note_on_c, 2, 62, 127
5, 12300, Note_on_c, 2, 57, 127
5, 12300, Note_on_c, 2, 50, 127
5, 12419, Note_on_c, 2, 50, 0
5, 12419, Note_on_c, 2, 57, 0
5, 12419, Note_on_c, 2, 62, 0
5, 12420, Note_on_c, 2, 55, 127
5, 12420, Note_on_c, 2, 50, 127
5, 12420, Note_on_c, 2, 43, 127
5, 12479, Note_on_c, 2, 43, 0
5, 12479, Note_on_c, 2, 50, 0
5, 12479, Note_on_c, 2, 55, 0
5, 12480, Note_on_c, 2, 55, 127
5, 12480, Note_on_c, 2, 50, 127
5, 12480, Note_on_c, 2, 43, 127
5, 12480, Control_c, 2, 7, 127
5, 12488, Control_c, 2, 7, 126
5, 12496, Control_c, 2, 7, 125
5, 12503, Control_c, 2, 7, 124
5, 12511, Control_c, 2, 7, 123
5, 12518, Control_c, 2, 7, 122
5, 12526, Control_c, 2, 7, 121
5, 12533, Control_c, 2, 7, 120
5, 12541, Control_c, 2, 7, 119
5, 12548, Control_c, 2, 7, 118
5, 12556, Control_c, 2, 7, 117
5, 12563, Control_c, 2, 7, 116
5, 12571, Control_c, 2, 7, 115
5, 12578, Control_c, 2, 7, 114
5, 12586, Control_c, 2, 7, 113
5, 12593, Control_c, 2, 7, 112
5, 12601, Control_c, 2, 7, 111
5, 12608, Control_c, 2, 7, 110
5, 12616, Control_c, 2, 7, 109
5, 12625, Control_c, 2, 7, 108
5, 12631, Control_c, 2, 7, 107
5, 12640, Control_c, 2, 7, 106
5, 12646, Control_c, 2, 7, 105
5, 12655, Control_c, 2, 7, 104
5, 12661, Control_c, 2, 7, 103
5, 12670, Control_c, 2, 7, 102
5, 12676, Control_c, 2, 7, 101
5, 12685, Control_c, 2, 7, 100
5, 12691, Control_c, 2, 7, 99
5, 12700, Control_c, 2, 7, 98
5, 12706, Control_c, 2, 7, 97
5, 12715, Control_c, 2, 7, 96
5, 12721, Control_c, 2, 7, 95
5, 12730, Control_c, 2, 7, 94
5, 12736, Control_c, 2, 7, 93
5, 12745, Control_c, 2, 7, 92
5, 12751, Control_c, 2, 7, 91
5, 12760, Control_c, 2, 7, 90
5, 12768, Control_c, 2, 7, 89
5, 12775, Control_c, 2, 7, 88
5, 12783, Control_c, 2, 7, 87
5, 12790, Control_c, 2, 7, 86
5, 12798, Control_c, 2, 7, 85
5, 12805, Control_c, 2, 7, 84
5, 12813, Control_c, 2, 7, 83
5, 12820, Control_c, 2, 7, 82
5, 12828, Control_c, 2, 7, 81
5, 12835, Control_c, 2, 7, 80
5, 12843, Control_c, 2, 7, 79
5, 12850, Control_c, 2, 7, 78
5, 12858, Control_c, 2, 7, 77
5, 12865, Control_c, 2, 7, 76
5, 12873, Control_c, 2, 7, 75
5, 12880, Control_c, 2, 7, 74
5, 12888, Control_c, 2, 7, 73
5, 12896, Control_c, 2, 7, 72
5, 12903, Control_c, 2, 7, 71
5, 12911, Control_c, 2, 7, 70
5, 12918, Control_c, 2, 7, 69
5, 12926, Control_c, 2, 7, 68
5, 12933, Control_c, 2, 7, 67
5, 12941, Control_c, 2, 7, 66
5, 12948, Control_c, 2, 7, 65
5, 12956, Control_c, 2, 7, 64
5, 12963, Control_c, 2, 7, 63
5, 12971, Control_c, 2, 7, 62
5, 12978, Control_c, 2, 7, 61
5, 12986, Control_c, 2, 7, 60
5, 12993, Control_c, 2, 7, 59
5, 13001, Control_c, 2, 7, 58
5, 13008, Control_c, 2, 7, 57
5, 13016, Control_c, 2, 7, 56
5, 13023, Control_c, 2, 7, 55
5, 13031, Control_c, 2, 7, 54
5, 13040, Control_c, 2, 7, 53
5, 13046, Control_c, 2, 7, 52
5, 13055, Control_c, 2, 7, 51
5, 13061, Control_c, 2, 7, 50
5, 13070, Control_c, 2, 7, 49
5, 13076, Control_c, 2, 7, 48
5, 13085, Control_c, 2, 7, 47
5, 13091, Control_c, 2, 7, 46
5, 13100, Control_c, 2, 7, 45
5, 13106, Control_c, 2, 7, 44
5, 13115, Control_c, 2, 7, 43
5, 13121, Control_c, 2, 7, 42
5, 13130, Control_c, 2, 7, 41
5, 13136, Control_c, 2, 7, 40
5, 13145, Control_c, 2, 7, 39
5, 13151, Control_c, 2, 7, 38
5, 13160, Control_c, 2, 7, 37
5, 13168, Control_c, 2, 7, 36
5, 13175, Control_c, 2, 7, 35
5, 13183, Control_c, 2, 7, 34
5, 13190, Control_c, 2, 7, 33
5, 13198, Control_c, 2, 7, 32
5, 13205, Control_c, 2, 7, 31
5, 13213, Control_c, 2, 7, 30
5, 13220, Control_c, 2, 7, 29
5, 13228, Control_c, 2, 7, 28
5, 13235, Control_c, 2, 7, 27
5, 13243, Control_c, 2, 7, 26
5, 13250, Control_c, 2, 7, 25
5, 13258, Control_c, 2, 7, 24
5, 13265, Control_c, 2, 7, 23
5, 13273, Control_c, 2, 7, 22
5, 13280, Control_c, 2, 7, 21
5, 13288, Control_c, 2, 7, 20
5, 13295, Control_c, 2, 7, 19
5, 13303, Control_c, 2, 7, 18
5, 13311, Control_c, 2, 7, 17
5, 13318, Control_c, 2, 7, 16
5, 13326, Control_c, 2, 7, 15
5, 13333, Control_c, 2, 7, 14
5, 13341, Control_c, 2, 7, 13
5, 13348, Control_c, 2, 7, 12
5, 13356, Control_c, 2, 7, 11
5, 13363, Control_c, 2, 7, 10
5, 13371, Control_c, 2, 7, 9
5, 13378, Control_c, 2, 7, 8
5, 13386, Control_c, 2, 7, 7
5, 13393, Control_c, 2, 7, 6
5, 13401, Control_c, 2, 7, 5
5, 13408, Control_c, 2, 7, 4
5, 13416, Control_c, 2, 7, 3
5, 13423, Control_c, 2, 7, 2
5, 13431, Control_c, 2, 7, 1
5, 13438, Control_c, 2, 7, 0
5, 13439, Note_on_c, 2, 43, 0
5, 13439, Note_on_c, 2, 50, 0
5, 13439, Note_on_c, 2, 55, 0
5, 13440, Control_c, 2, 7, 127
5, 18240, Note_on_c, 2, 67, 100
5, 19199, Note_on_c, 2, 67, 0
5, 19200, Note_on_c, 2, 67, 100
5, 19200, Note_on_c, 2, 74, 80
5, 20159, Note_on_c, 2, 74, 0
5, 20159, Note_on_c, 2, 67, 0
5, 20160, Note_on_c, 2, 67, 100
5, 21119, Note_on_c, 2, 67, 0
5, 21120, Note_on_c, 2, 55, 127
5, 21120, Note_on_c, 2, 50, 127
5, 21120, Note_on_c, 2, 43, 127
5, 21299, Note_on_c, 2, 43, 0
5, 21299, Note_on_c, 2, 50, 0
5, 21299, Note_on_c, 2, 55, 0
5, 21300, Note_on_c, 2, 62, 127
5, 21300, Note_on_c, 2, 57, 127
5, 21300, Note_on_c, 2, 50, 127
5, 21419, Note_on_c, 2, 50, 0
5, 21419, Note_on_c, 2, 57, 0
5, 21419, Note_on_c, 2, 62, 0
5, 21420, Note_on_c, 2, 64, 127
5, 21420, Note_on_c, 2, 59, 127
5, 21420, Note_on_c, 2, 52, 127
5, 21539, Note_on_c, 2, 52, 0
5, 21539, Note_on_c, 2, 59, 0
5, 21539, Note_on_c, 2, 64, 0
5, 21540, Note_on_c, 2, 59, 127
5, 21540, Note_on_c, 2, 54, 127
5, 21540, Note_on_c, 2, 47, 127
5, 21599, Note_on_c, 2, 47, 0
5, 21599, Note_on_c, 2, 54, 0
5, 21599, Note_on_c, 2, 59, 0
5, 21600, Note_on_c, 2, 59, 127
5, 21600, Note_on_c, 2, 54, 127
5, 21600, Note_on_c, 2, 47, 127
5, 21779, Note_on_c, 2, 47, 0
5, 21779, Note_on_c, 2, 54, 0
5, 21779, Note_on_c, 2, 59, 0
5, 21780, Note_on_c, 2, 60, 127
5, 21780, Note_on_c, 2, 55, 127
5, 21780, Note_on_c, 2, 48, 127
5, 21899, Note_on_c, 2, 48, 0
5, 21899, Note_on_c, 2, 55, 0
5, 21899, Note_on_c, 2, 60, 0
5, 21900, Note_on_c, 2, 62, 127
5, 21900, Note_on_c, 2, 57, 127
5, 21900, Note_on_c, 2, 50, 127
5, 22019, Note_on_c, 2, 50, 0
5, 22019, Note_on_c, 2, 57, 0
5, 22019, Note_on_c, 2, 62, 0
5, 22020, Note_on_c, 2, 55, 127
5, 22020, Note_on_c, 2, 50, 127
5, 22020, Note_on_c, 2, 43, 127
5, 22079, Note_on_c, 2, 43, 0
5, 22079, Note_on_c, 2, 50, 0
5, 22079, Note_on_c, 2, 55, 0
5, 22080, Note_on_c, 2, 55, 127
5, 22080, Note_on_c, 2, 50, 127
5, 22080, Note_on_c, 2, 43, 127
5, 22259, Note_on_c, 2, 43, 0
5, 22259, Note_on_c, 2, 50, 0
5, 22259, Note_on_c, 2, 55, 0
5, 22260, Note_on_c, 2, 62, 127
5, 22260, Note_on_c, 2, 57, 127
5, 22260, Note_on_c, 2, 50, 127
5, 22379, Note_on_c, 2, 50, 0
5, 22379, Note_on_c, 2, 57, 0
5, 22379, Note_on_c, 2, 62, 0
5, 22380, Note_on_c, 2, 64, 127
5, 22380, Note_on_c, 2, 59, 127
5, 22380, Note_on_c, 2, 52, 127
5, 22499, Note_on_c, 2, 52, 0
5, 22499, Note_on_c, 2, 59, 0
5, 22499, Note_on_c, 2, 64, 0
5, 22500, Note_on_c, 2, 59, 127
5, 22500, Note_on_c, 2, 54, 127
5, 22500, Note_on_c, 2, 47, 127
5, 22559, Note_on_c, 2, 47, 0
5, 22559, Note_on_c, 2, 54, 0
5, 22559, Note_on_c, 2, 59, 0
5, 22560, Note_on_c, 2, 59, 127
5, 22560, Note_on_c, 2, 54, 127
5, 22560, Note_on_c, 2, 47, 127
5, 22739, Note_on_c, 2, 47, 0
5, 22739, Note_on_c, 2, 54, 0
5, 22739, Note_on_c, 2, 59, 0
5, 22740, Note_on_c, 2, 60, 127
5, 22740, Note_on_c, 2, 55, 127
5, 22740, Note_on_c, 2, 48, 127
5, 22859, Note_on_c, 2, 48, 0
5, 22859, Note_on_c, 2, 55, 0
5, 22859, Note_on_c, 2, 60, 0
5, 22860, Note_on_c, 2, 62, 127
5, 22860, Note_on_c, 2, 57, 127
5, 22860, Note_on_c, 2, 50, 127
5, 22979, Note_on_c, 2, 50, 0
5, 22979, Note_on_c, 2, 57, 0
5, 22979, Note_on_c, 2, 62, 0
5, 22980, Note_on_c, 2, 55, 127
5, 22980, Note_on_c, 2, 50, 127
5, 22980, Note_on_c, 2, 43, 127
5, 23039, Note_on_c, 2, 43, 0
5, 23039, Note_on_c, 2, 50, 0
5, 23039, Note_on_c, 2, 55, 0
5, 23040, Note_on_c, 2, 55, 127
5, 23040, Note_on_c, 2, 50, 127
5, 23040, Note_on_c, 2, 43, 127
5, 23219, Note_on_c, 2, 43, 0
5, 23219, Note_on_c, 2, 50, 0
5, 23219, Note_on_c, 2, 55, 0
5, 23220, Note_on_c, 2, 62, 127
5, 23220, Note_on_c, 2, 57, 127
5, 23220, Note_on_c, 2, 50, 127
5, 23339, Note_on_c, 2, 50, 0
5, 23339, Note_on_c, 2, 57, 0
5, 23339, Note_on_c, 2, 62, 0
5, 23340, Note_on_c, 2, 64, 127
5, 23340, Note_on_c, 2, 59, 127
5, 23340, Note_on_c, 2, 52, 127
5, 23459, Note_on_c, 2, 52, 0
5, 23459, Note_on_c, 2, 59, 0
5, 23459, Note_on_c, 2, 64, 0
5, 23460, Note_on_c, 2, 59, 127
5, 23460, Note_on_c, 2, 54, 127
5, 23460, Note_on_c, 2, 47, 127
5, 23519, Note_on_c, 2, 47, 0
5, 23519, Note_on_c, 2, 54, 0
5, 23519, Note_on_c, 2, 59, 0
5, 23520, Note_on_c, 2, 59, 127
5, 23520, Note_on_c, 2, 54, 127
5, 23520, Note_on_c, 2, 47, 127
5, 23699, Note_on_c, 2, 47, 0
5, 23699, Note_on_c, 2, 54, 0
5, 23699, Note_on_c, 2, 59, 0
5, 23700, Note_on_c, 2, 60, 127
5, 23700, Note_on_c, 2, 55, 127
5, 23700, Note_on_c, 2, 48, 127
5, 23819, Note_on_c, 2, 48, 0
5, 23819, Note_on_c, 2, 55, 0
5, 23819, Note_on_c, 2, 60, 0
5, 23820, Note_on_c, 2, 62, 127
5, 23820, Note_on_c, 2, 57, 127
5, 23820, Note_on_c, 2, 50, 127
5, 23939, Note_on_c, 2, 50, 0
5, 23939, Note_on_c, 2, 57, 0
5, 23939, Note_on_c, 2, 62, 0
5, 23940, Note_on_c, 2, 55, 127
5, 23940, Note_on_c, 2, 50, 127
5, 23940, Note_on_c, 2, 43, 127
5, 23999, Note_on_c, 2, 43, 0
5, 23999, Note_on_c, 2, 50, 0
5, 23999, Note_on_c, 2, 55, 0
5, 24000, Note_on_c, 2, 55, 127
5, 24000, Note_on_c, 2, 50, 127
5, 24000, Note_on_c, 2, 43, 127
5, 24179, Note_on_c, 2, 43, 0
5, 24179, Note_on_c, 2, 50, 0
5, 24179, Note_on_c, 2, 55, 0
5, 24180, Note_on_c, 2, 62, 127
5, 24180, Note_on_c, 2, 57, 127
5, 24180, Note_on_c, 2, 50, 127
5, 24299, Note_on_c, 2, 50, 0
5, 24299, Note_on_c, 2, 57, 0
5, 24299, Note_on_c, 2, 62, 0
5, 24300, Note_on_c, 2, 64, 127
5, 24300, Note_on_c, 2, 59, 127
5, 24300, Note_on_c, 2, 52, 127
5, 24419, Note_on_c, 2, 52, 0
5, 24419, Note_on_c, 2, 59, 0
5, 24419, Note_on_c, 2, 64, 0
5, 24420, Note_on_c, 2, 59, 127
5, 24420, Note_on_c, 2, 54, 127
5, 24420, Note_on_c, 2, 47, 127
5, 24479, Note_on_c, 2, 47, 0
5, 24479, Note_on_c, 2, 54, 0
5, 24479, Note_on_c, 2, 59, 0
5, 24480, Note_on_c, 2, 59, 127
5, 24480, Note_on_c, 2, 54, 127
5, 24480, Note_on_c, 2, 47, 127
5, 24659, Note_on_c, 2, 47, 0
5, 24659, Note_on_c, 2, 54, 0
5, 24659, Note_on_c, 2, 59, 0
5, 24660, Note_on_c, 2, 60, 127
5, 24660, Note_on_c, 2, 55, 127
5, 24660, Note_on_c, 2, 48, 127
5, 24779, Note_on_c, 2, 48, 0
5, 24779, Note_on_c, 2, 55, 0
5, 24779, Note_on_c, 2, 60, 0
5, 24780, Note_on_c, 2, 62, 127
5, 24780, Note_on_c, 2, 57, 127
5, 24780, Note_on_c, 2, 50, 127
5, 24899, Note_on_c, 2, 50, 0
5, 24899, Note_on_c, 2, 57, 0
5, 24899, Note_on_c, 2, 62, 0
5, 24900, Note_on_c, 2, 55, 127
5, 24900, Note_on_c, 2, 50, 127
5, 24900, Note_on_c, 2, 43, 127
5, 24900, Note_on_c, 2, 43, 127
5, 24959, Note_on_c, 2, 43, 0
5, 24959, Note_on_c, 2, 55, 0
5, 24959, Note_on_c, 2, 50, 0
5, 24959, Note_on_c, 2, 43, 0
5, 24960, Note_on_c, 2, 43, 127
5, 25139, Note_on_c, 2, 43, 0
5, 25140, Note_on_c, 2, 50, 127
5, 25200, Note_on_c, 2, 54, 127
5, 25259, Note_on_c, 2, 54, 0
5, 25259, Note_on_c, 2, 50, 0
5, 25260, Note_on_c, 2, 52, 127
5, 25320, Note_on_c, 2, 56, 127
5, 25379, Note_on_c, 2, 56, 0
5, 25379, Note_on_c, 2, 52, 0
5, 25380, Note_on_c, 2, 47, 127
5, 25440, Note_on_c, 2, 51, 127
5, 25619, Note_on_c, 2, 51, 0
5, 25619, Note_on_c, 2, 47, 0
5, 25620, Note_on_c, 2, 48, 127
5, 25680, Note_on_c, 2, 52, 127
5, 25739, Note_on_c, 2, 52, 0
5, 25739, Note_on_c, 2, 48, 0
5, 25740, Note_on_c, 2, 50, 127
5, 25800, Note_on_c, 2, 54, 127
5, 25859, Note_on_c, 2, 54, 0
5, 25859, Note_on_c, 2, 50, 0
5, 25860, Note_on_c, 2, 55, 127
5, 25919, Note_on_c, 2, 55, 0
5, 25920, Note_on_c, 2, 43, 127
5, 26099, Note_on_c, 2, 43, 0
5, 26100, Note_on_c, 2, 50, 127
5, 26160, Note_on_c, 2, 54, 127
5, 26219, Note_on_c, 2, 54, 0
5, 26219, Note_on_c, 2, 50, 0
5, 26220, Note_on_c, 2, 52, 127
5, 26280, Note_on_c, 2, 56, 127
5, 26339, Note_on_c, 2, 56, 0
5, 26339, Note_on_c, 2, 52, 0
5, 26340, Note_on_c, 2, 47, 127
5, 26400, Note_on_c, 2, 51, 127
5, 26579, Note_on_c, 2, 51, 0
5, 26579, Note_on_c, 2, 47, 0
5, 26580, Note_on_c, 2, 48, 127
5, 26640, Note_on_c, 2, 52, 127
5, 26699, Note_on_c, 2, 52, 0
5, 26699, Note_on_c, 2, 48, 0
5, 26700, Note_on_c, 2, 50, 127
5, 26760, Note_on_c, 2, 54, 127
5, 26819, Note_on_c, 2, 54, 0
5, 26819, Note_on_c, 2, 50, 0
5, 26820, Note_on_c, 2, 55, 127
5, 26879, Note_on_c, 2, 55, 0
5, 26880, Note_on_c, 2, 55, 127
5, 26880, Note_on_c, 2, 50, 127
5, 26880, Note_on_c, 2, 43, 127
5, 26939, Note_on_c, 2, 43, 0
5, 26939, Note_on_c, 2, 50, 0
5, 26939, Note_on_c, 2, 55, 0
5, 26940, Note_on_c, 2, 43, 127
5, 26940, Note_on_c, 2, 55, 127
5, 26940, Note_on_c, 2, 50, 127
5, 26999, Note_on_c, 2, 50, 0
5, 26999, Note_on_c, 2, 55, 0
5, 26999, Note_on_c, 2, 43, 0
5, 27000, Note_on_c, 2, 43, 127
5, 27000, Note_on_c, 2, 55, 127
5, 27000, Note_on_c, 2, 50, 127
5, 27059, Note_on_c, 2, 50, 0
5, 27059, Note_on_c, 2, 55, 0
5, 27059, Note_on_c, 2, 43, 0
5, 27060, Note_on_c, 2, 43, 127
5, 27060, Note_on_c, 2, 55, 127
5, 27060, Note_on_c, 2, 50, 127
5, 27119, Note_on_c, 2, 50, 0
5, 27119, Note_on_c, 2, 55, 0
5, 27119, Note_on_c, 2, 43, 0
5, 27120, Note_on_c, 2, 43, 127
5, 27120, Note_on_c, 2, 55, 127
5, 27120, Note_on_c, 2, 50, 127
5, 27179, Note_on_c, 2, 50, 0
5, 27179, Note_on_c, 2, 55, 0
5, 27179, Note_on_c, 2, 43, 0
5, 27180, Note_on_c, 2, 43, 127
5, 27180, Note_on_c, 2, 55, 127
5, 27180, Note_on_c, 2, 50, 127
5, 27239, Note_on_c, 2, 50, 0
5, 27239, Note_on_c, 2, 55, 0
5, 27239, Note_on_c, 2, 43, 0
5, 27240, Note_on_c, 2, 43, 127
5, 27240, Note_on_c, 2, 55, 127
5, 27240, Note_on_c, 2, 50, 127
5, 27299, Note_on_c, 2, 50, 0
5, 27299, Note_on_c, 2, 55, 0
5, 27299, Note_on_c, 2, 43, 0
5, 27300, Note_on_c, 2, 43, 127
5, 27300, Note_on_c, 2, 55, 127
5, 27300, Note_on_c, 2, 50, 127
5, 27359, Note_on_c, 2, 50, 0
5, 27359, Note_on_c, 2, 55, 0
5, 27359, Note_on_c, 2, 43, 0
5, 27360, Note_on_c, 2, 64, 127
5, 27360, Note_on_c, 2, 59, 127
5, 27360, Note_on_c, 2, 52, 127
5, 27419, Note_on_c, 2, 52, 0
5, 27419, Note_on_c, 2, 59, 0
5, 27419, Note_on_c, 2, 64, 0
5, 27420, Note_on_c, 2, 52, 127
5, 27420, Note_on_c, 2, 59, 127
5, 27420, Note_on_c, 2, 64, 127
5, 27479, Note_on_c, 2, 64, 0
5, 27479, Note_on_c, 2, 59, 0
5, 27479, Note_on_c, 2, 52, 0
5, 27480, Note_on_c, 2, 52, 127
5, 27480, Note_on_c, 2, 59, 127
5, 27480, Note_on_c, 2, 64, 127
5, 27539, Note_on_c, 2, 64, 0
5, 27539, Note_on_c, 2, 59, 0
5, 27539, Note_on_c, 2, 52, 0
5, 27540, Note_on_c, 2, 52, 127
5, 27540, Note_on_c, 2, 59, 127
5, 27540, Note_on_c, 2, 64, 127
5, 27599, Note_on_c, 2, 64, 0
5, 27599, Note_on_c, 2, 59, 0
5, 27599, Note_on_c, 2, 52, 0
5, 27600, Note_on_c, 2, 62, 127
5, 27600, Note_on_c, 2, 57, 127
5, 27600, Note_on_c, 2, 50, 127
5, 27659, Note_on_c, 2, 50, 0
5, 27659, Note_on_c, 2, 57, 0
5, 27659, Note_on_c, 2, 62, 0
5, 27660, Note_on_c, 2, 62, 127
5, 27660, Note_on_c, 2, 57, 127
5, 27660, Note_on_c, 2, 50, 127
5, 27719, Note_on_c, 2, 50, 0
5, 27719, Note_on_c, 2, 57, 0
5, 27719, Note_on_c, 2, 62, 0
5, 27720, Note_on_c, 2, 62, 127
5, 27720, Note_on_c, 2, 57, 127
5, 27720, Note_on_c, 2, 50, 127
5, 27779, Note_on_c, 2, 50, 0
5, 27779, Note_on_c, 2, 57, 0
5, 27779, Note_on_c, 2, 62, 0
5, 27780, Note_on_c, 2, 62, 127
5, 27780, Note_on_c, 2, 57, 127
5, 27780, Note_on_c, 2, 50, 127
5, 27839, Note_on_c, 2, 50, 0
5, 27839, Note_on_c, 2, 57, 0
5, 27839, Note_on_c, 2, 62, 0
5, 27840, Note_on_c, 2, 55, 127
5, 27840, Note_on_c, 2, 50, 127
5, 27840, Note_on_c, 2, 43, 127
5, 27899, Note_on_c, 2, 43, 0
5, 27899, Note_on_c, 2, 50, 0
5, 27899, Note_on_c, 2, 55, 0
5, 27900, Note_on_c, 2, 43, 127
5, 27900, Note_on_c, 2, 55, 127
5, 27900, Note_on_c, 2, 50, 127
5, 27959, Note_on_c, 2, 50, 0
5, 27959, Note_on_c, 2, 55, 0
5, 27959, Note_on_c, 2, 43, 0
5, 27960, Note_on_c, 2, 43, 127
5, 27960, Note_on_c, 2, 55, 127
5, 27960, Note_on_c, 2, 50, 127
5, 28019, Note_on_c, 2, 50, 0
5, 28019, Note_on_c, 2, 55, 0
5, 28019, Note_on_c, 2, 43, 0
5, 28020, Note_on_c, 2, 43, 127
5, 28020, Note_on_c, 2, 55, 127
5, 28020, Note_on_c, 2, 50, 127
5, 28079, Note_on_c, 2, 50, 0
5, 28079, Note_on_c, 2, 55, 0
5, 28079, Note_on_c, 2, 43, 0
5, 28080, Note_on_c, 2, 43, 127
5, 28080, Note_on_c, 2, 55, 127
5, 28080, Note_on_c, 2, 50, 127
5, 28139, Note_on_c, 2, 50, 0
5, 28139, Note_on_c, 2, 55, 0
5, 28139, Note_on_c, 2, 43, 0
5, 28140, Note_on_c, 2, 43, 127
5, 28140, Note_on_c, 2, 55, 127
5, 28140, Note_on_c, 2, 50, 127
5, 28199, Note_on_c, 2, 50, 0
5, 28199, Note_on_c, 2, 55, 0
5, 28199, Note_on_c, 2, 43, 0
5, 28200, Note_on_c, 2, 43, 127
5, 28200, Note_on_c, 2, 55, 127
5, 28200, Note_on_c, 2, 50, 127
5, 28259, Note_on_c, 2, 50, 0
5, 28259, Note_on_c, 2, 55, 0
5, 28259, Note_on_c, 2, 43, 0
5, 28260, Note_on_c, 2, 43, 127
5, 28260, Note_on_c, 2, 55, 127
5, 28260, Note_on_c, 2, 50, 127
5, 28319, Note_on_c, 2, 50, 0
5, 28319, Note_on_c, 2, 55, 0
5, 28319, Note_on_c, 2, 43, 0
5, 28320, Note_on_c, 2, 64, 127
5, 28320, Note_on_c, 2, 59, 127
5, 28320, Note_on_c, 2, 52, 127
5, 28379, Note_on_c, 2, 52, 0
5, 28379, Note_on_c, 2, 59, 0
5, 28379, Note_on_c, 2, 64, 0
5, 28380, Note_on_c, 2, 52, 127
5, 28380, Note_on_c, 2, 59, 127
5, 28380, Note_on_c, 2, 64, 127
5, 28439, Note_on_c, 2, 64, 0
5, 28439, Note_on_c, 2, 59, 0
5, 28439, Note_on_c, 2, 52, 0
5, 28440, Note_on_c, 2, 52, 127
5, 28440, Note_on_c, 2, 59, 127
5, 28440, Note_on_c, 2, 64, 127
5, 28499, Note_on_c, 2, 64, 0
5, 28499, Note_on_c, 2, 59, 0
5, 28499, Note_on_c, 2, 52, 0
5, 28500, Note_on_c, 2, 52, 127
5, 28500, Note_on_c, 2, 59, 127
5, 28500, Note_on_c, 2, 64, 127
5, 28559, Note_on_c, 2, 64, 0
5, 28559, Note_on_c, 2, 59, 0
5, 28559, Note_on_c, 2, 52, 0
5, 28560, Note_on_c, 2, 62, 127
5, 28560, Note_on_c, 2, 57, 127
5, 28560, Note_on_c, 2, 50, 127
5, 28619, Note_on_c, 2, 50, 0
5, 28619, Note_on_c, 2, 57, 0
5, 28619, Note_on_c, 2, 62, 0
5, 28620, Note_on_c, 2, 62, 127
5, 28620, Note_on_c, 2, 57, 127
5, 28620, Note_on_c, 2, 50, 127
5, 28679, Note_on_c, 2, 50, 0
5, 28679, Note_on_c, 2, 57, 0
5, 28679, Note_on_c, 2, 62, 0
5, 28680, Note_on_c, 2, 62, 127
5, 28680, Note_on_c, 2, 57, 127
5, 28680, Note_on_c, 2, 50, 127
5, 28739, Note_on_c, 2, 50, 0
5, 28739, Note_on_c, 2, 57, 0
5, 28739, Note_on_c, 2, 62, 0
5, 28740, Note_on_c, 2, 62, 127
5, 28740, Note_on_c, 2, 57, 127
5, 28740, Note_on_c, 2, 50, 127
5, 28799, Note_on_c, 2, 50, 0
5, 28799, Note_on_c, 2, 57, 0
5, 28799, Note_on_c, 2, 62, 0
5, 28800, Note_on_c, 2, 55, 127
5, 28800, Note_on_c, 2, 50, 127
5, 28800, Note_on_c, 2, 43, 127
5, 28859, Note_on_c, 2, 43, 0
5, 28859, Note_on_c, 2, 50, 0
5, 28859, Note_on_c, 2, 55, 0
5, 28860, Note_on_c, 2, 43, 127
5, 28860, Note_on_c, 2, 55, 127
5, 28860, Note_on_c, 2, 50, 127
5, 28919, Note_on_c, 2, 50, 0
5, 28919, Note_on_c, 2, 55, 0
5, 28919, Note_on_c, 2, 43, 0
5, 28920, Note_on_c, 2, 43, 127
5, 28920, Note_on_c, 2, 55, 127
5, 28920, Note_on_c, 2, 50, 127
5, 28979, Note_on_c, 2, 50, 0
5, 28979, Note_on_c, 2, 55, 0
5, 28979, Note_on_c, 2, 43, 0
5, 28980, Note_on_c, 2, 43, 127
5, 28980, Note_on_c, 2, 55, 127
5, 28980, Note_on_c, 2, 50, 127
5, 29039, Note_on_c, 2, 50, 0
5, 29039, Note_on_c, 2, 55, 0
5, 29039, Note_on_c, 2, 43, 0
5, 29040, Note_on_c, 2, 43, 127
5, 29040, Note_on_c, 2, 55, 127
5, 29040, Note_on_c, 2, 50, 127
5, 29099, Note_on_c, 2, 50, 0
5, 29099, Note_on_c, 2, 55, 0
5, 29099, Note_on_c, 2, 43, 0
5, 29100, Note_on_c, 2, 43, 127
5, 29100, Note_on_c, 2, 55, 127
5, 29100, Note_on_c, 2, 50, 127
5, 29159, Note_on_c, 2, 50, 0
5, 29159, Note_on_c, 2, 55, 0
5, 29159, Note_on_c, 2, 43, 0
5, 29160, Note_on_c, 2, 43, 127
5, 29160, Note_on_c, 2, 55, 127
5, 29160, Note_on_c, 2, 50, 127
5, 29219, Note_on_c, 2, 50, 0
5, 29219, Note_on_c, 2, 55, 0
5, 29219, Note_on_c, 2, 43, 0
5, 29220, Note_on_c, 2, 43, 127
5, 29220, Note_on_c, 2, 55, 127
5, 29220, Note_on_c, 2, 50, 127
5, 29279, Note_on_c, 2, 50, 0
5, 29279, Note_on_c, 2, 55, 0
5, 29279, Note_on_c, 2, 43, 0
5, 29280, Note_on_c, 2, 64, 127
5, 29280, Note_on_c, 2, 59, 127
5, 29280, Note_on_c, 2, 52, 127
5, 29339, Note_on_c, 2, 52, 0
5, 29339, Note_on_c, 2, 59, 0
5, 29339, Note_on_c, 2, 64, 0
5, 29340, Note_on_c, 2, 52, 127
5, 29340, Note_on_c, 2, 59, 127
5, 29340, Note_on_c, 2, 64, 127
5, 29399, Note_on_c, 2, 64, 0
5, 29399, Note_on_c, 2, 59, 0
5, 29399, Note_on_c, 2, 52, 0
5, 29400, Note_on_c, 2, 52, 127
5, 29400, Note_on_c, 2, 59, 127
5, 29400, Note_on_c, 2, 64, 127
5, 29459, Note_on_c, 2, 64, 0
5, 29459, Note_on_c, 2, 59, 0
5, 29459, Note_on_c, 2, 52, 0
5, 29460, Note_on_c, 2, 52, 127
5, 29460, Note_on_c, 2, 59, 127
5, 29460, Note_on_c, 2, 64, 127
5, 29519, Note_on_c, 2, 64, 0
5, 29519, Note_on_c, 2, 59, 0
5, 29519, Note_on_c, 2, 52, 0
5, 29520, Note_on_c, 2, 62, 127
5, 29520, Note_on_c, 2, 57, 127
5, 29520, Note_on_c, 2, 50, 127
5, 29579, Note_on_c, 2, 50, 0
5, 29579, Note_on_c, 2, 57, 0
5, 29579, Note_on_c, 2, 62, 0
5, 29580, Note_on_c, 2, 62, 127
5, 29580, Note_on_c, 2, 57, 127
5, 29580, Note_on_c, 2, 50, 127
5, 29639, Note_on_c, 2, 50, 0
5, 29639, Note_on_c, 2, 57, 0
5, 29639, Note_on_c, 2, 62, 0
5, 29640, Note_on_c, 2, 62, 127
5, 29640, Note_on_c, 2, 57, 127
5, 29640, Note_on_c, 2, 50, 127
5, 29699, Note_on_c, 2, 50, 0
5, 29699, Note_on_c, 2, 57, 0
5, 29699, Note_on_c, 2, 62, 0
5, 29700, Note_on_c, 2, 62, 127
5, 29700, Note_on_c, 2, 57, 127
5, 29700, Note_on_c, 2, 50, 127
5, 29759, Note_on_c, 2, 50, 0
5, 29759, Note_on_c, 2, 57, 0
5, 29759, Note_on_c, 2, 62, 0
5, 29760, Note_on_c, 2, 55, 127
5, 29760, Note_on_c, 2, 50, 127
5, 29760, Note_on_c, 2, 43, 127
5, 29819, Note_on_c, 2, 43, 0
5, 29819, Note_on_c, 2, 50, 0
5, 29819, Note_on_c, 2, 55, 0
5, 29820, Note_on_c, 2, 43, 127
5, 29820, Note_on_c, 2, 55, 127
5, 29820, Note_on_c, 2, 50, 127
5, 29879, Note_on_c, 2, 50, 0
5, 29879, Note_on_c, 2, 55, 0
5, 29879, Note_on_c, 2, 43, 0
5, 29880, Note_on_c, 2, 43, 127
5, 29880, Note_on_c, 2, 55, 127
5, 29880, Note_on_c, 2, 50, 127
5, 29939, Note_on_c, 2, 50, 0
5, 29939, Note_on_c, 2, 55, 0
5, 29939, Note_on_c, 2, 43, 0
5, 29940, Note_on_c, 2, 43, 127
5, 29940, Note_on_c, 2, 55, 127
5, 29940, Note_on_c, 2, 50, 127
5, 29999, Note_on_c, 2, 50, 0
5, 29999, Note_on_c, 2, 55, 0
5, 29999, Note_on_c, 2, 43, 0
5, 30000, Note_on_c, 2, 43, 127
5, 30000, Note_on_c, 2, 55, 127
5, 30000, Note_on_c, 2, 50, 127
5, 30059, Note_on_c, 2, 50, 0
5, 30059, Note_on_c, 2, 55, 0
5, 30059, Note_on_c, 2, 43, 0
5, 30060, Note_on_c, 2, 43, 127
5, 30060, Note_on_c, 2, 55, 127
5, 30060, Note_on_c, 2, 50, 127
5, 30119, Note_on_c, 2, 50, 0
5, 30119, Note_on_c, 2, 55, 0
5, 30119, Note_on_c, 2, 43, 0
5, 30120, Note_on_c, 2, 43, 127
5, 30120, Note_on_c, 2, 55, 127
5, 30120, Note_on_c, 2, 50, 127
5, 30179, Note_on_c, 2, 50, 0
5, 30179, Note_on_c, 2, 55, 0
5, 30179, Note_on_c, 2, 43, 0
5, 30180, Note_on_c, 2, 43, 127
5, 30180, Note_on_c, 2, 55, 127
5, 30180, Note_on_c, 2, 50, 127
5, 30239, Note_on_c, 2, 50, 0
5, 30239, Note_on_c, 2, 55, 0
5, 30239, Note_on_c, 2, 43, 0
5, 30240, Note_on_c, 2, 64, 127
5, 30240, Note_on_c, 2, 59, 127
5, 30240, Note_on_c, 2, 52, 127
5, 30299, Note_on_c, 2, 52, 0
5, 30299, Note_on_c, 2, 59, 0
5, 30299, Note_on_c, 2, 64, 0
5, 30300, Note_on_c, 2, 52, 127
5, 30300, Note_on_c, 2, 59, 127
5, 30300, Note_on_c, 2, 64, 127
5, 30359, Note_on_c, 2, 64, 0
5, 30359, Note_on_c, 2, 59, 0
5, 30359, Note_on_c, 2, 52, 0
5, 30360, Note_on_c, 2, 52, 127
5, 30360, Note_on_c, 2, 59, 127
5, 30360, Note_on_c, 2, 64, 127
5, 30419, Note_on_c, 2, 64, 0
5, 30419, Note_on_c, 2, 59, 0
5, 30419, Note_on_c, 2, 52, 0
5, 30420, Note_on_c, 2, 52, 127
5, 30420, Note_on_c, 2, 59, 127
5, 30420, Note_on_c, 2, 64, 127
5, 30479, Note_on_c, 2, 64, 0
5, 30479, Note_on_c, 2, 59, 0
5, 30479, Note_on_c, 2, 52, 0
5, 30480, Note_on_c, 2, 62, 127
5, 30480, Note_on_c, 2, 57, 127
5, 30480, Note_on_c, 2, 50, 127
5, 30539, Note_on_c, 2, 50, 0
5, 30539, Note_on_c, 2, 57, 0
5, 30539, Note_on_c, 2, 62, 0
5, 30540, Note_on_c, 2, 62, 127
5, 30540, Note_on_c, 2, 57, 127
5, 30540, Note_on_c, 2, 50, 127
5, 30599, Note_on_c, 2, 50, 0
5, 30599, Note_on_c, 2, 57, 0
5, 30599, Note_on_c, 2, 62, 0
5, 30600, Note_on_c, 2, 62, 127
5, 30600, Note_on_c, 2, 57, 127
5, 30600, Note_on_c, 2, 50, 127
5, 30659, Note_on_c, 2, 50, 0
5, 30659, Note_on_c, 2, 57, 0
5, 30659, Note_on_c, 2, 62, 0
5, 30660, Note_on_c, 2, 62, 127
5, 30660, Note_on_c, 2, 57, 127
5, 30660, Note_on_c, 2, 50, 127
5, 30719, Note_on_c, 2, 50, 0
5, 30719, Note_on_c, 2, 57, 0
5, 30719, Note_on_c, 2, 62, 0
5, 30720, Note_on_c, 2, 55, 127
5, 30720, Note_on_c, 2, 50, 127
5, 30720, Note_on_c, 2, 43, 127
5, 32159, Note_on_c, 2, 43, 0
5, 32159, Note_on_c, 2, 50, 0
5, 32159, Note_on_c, 2, 55, 0
5, 32160, Note_on_c, 2, 67, 127
5, 32160, Note_on_c, 2, 62, 127
5, 32160, Pitch_bend_c, 2, 8960
5, 32163, Pitch_bend_c, 2, 9600
5, 32166, Pitch_bend_c, 2, 9728
5, 32170, Pitch_bend_c, 2, 9984
5, 32173, Pitch_bend_c, 2, 10112
5, 32176, Pitch_bend_c, 2, 10240
5, 32183, Pitch_bend_c, 2, 10368
5, 32190, Pitch_bend_c, 2, 10496
5, 32216, Pitch_bend_c, 2, 10368
5, 32220, Pitch_bend_c, 2, 10112
5, 32223, Pitch_bend_c, 2, 9984
5, 32226, Pitch_bend_c, 2, 9600
5, 32230, Pitch_bend_c, 2, 8320
5, 32233, Pitch_bend_c, 2, 8064
5, 32236, Pitch_bend_c, 2, 7808
5, 32240, Pitch_bend_c, 2, 7296
5, 32243, Pitch_bend_c, 2, 7040
5, 32246, Pitch_bend_c, 2, 6528
5, 32250, Pitch_bend_c, 2, 6272
5, 32253, Pitch_bend_c, 2, 6016
5, 32256, Pitch_bend_c, 2, 5888
5, 32260, Pitch_bend_c, 2, 5632
5, 32266, Pitch_bend_c, 2, 5504
5, 32270, Pitch_bend_c, 2, 7936
5, 32273, Pitch_bend_c, 2, 8064
5, 32276, Pitch_bend_c, 2, 8192
5, 32279, Note_on_c, 2, 62, 0
5, 32279, Note_on_c, 2, 67, 0
5, 32280, Note_on_c, 2, 69, 127
5, 32280, Note_on_c, 2, 64, 127
5, 32283, Pitch_bend_c, 2, 8960
5, 32286, Pitch_bend_c, 2, 9344
5, 32290, Pitch_bend_c, 2, 9728
5, 32293, Pitch_bend_c, 2, 10112
5, 32296, Pitch_bend_c, 2, 10368
5, 32320, Pitch_bend_c, 2, 10240
5, 32330, Pitch_bend_c, 2, 10112
5, 32333, Pitch_bend_c, 2, 9856
5, 32336, Pitch_bend_c, 2, 9472
5, 32340, Pitch_bend_c, 2, 8064
5, 32343, Pitch_bend_c, 2, 7680
5, 32346, Pitch_bend_c, 2, 7040
5, 32350, Pitch_bend_c, 2, 6784
5, 32353, Pitch_bend_c, 2, 6400
5, 32356, Pitch_bend_c, 2, 6272
5, 32360, Pitch_bend_c, 2, 6016
5, 32363, Pitch_bend_c, 2, 5632
5, 32366, Pitch_bend_c, 2, 5504
5, 32370, Pitch_bend_c, 2, 5248
5, 32383, Pitch_bend_c, 2, 5760
5, 32386, Pitch_bend_c, 2, 6400
5, 32390, Pitch_bend_c, 2, 8320
5, 32393, Pitch_bend_c, 2, 8832
5, 32396, Pitch_bend_c, 2, 9216
5, 32399, Note_on_c, 2, 64, 0
5, 32399, Note_on_c, 2, 69, 0
5, 32400, Note_on_c, 2, 71, 127
5, 32400, Note_on_c, 2, 66, 127
5, 32400, Pitch_bend_c, 2, 9472
5, 32403, Pitch_bend_c, 2, 9728
5, 32406, Pitch_bend_c, 2, 9856
5, 32410, Pitch_bend_c, 2, 10112
5, 32413, Pitch_bend_c, 2, 10240
5, 32420, Pitch_bend_c, 2, 10368
5, 32460, Pitch_bend_c, 2, 10240
5, 32463, Pitch_bend_c, 2, 10112
5, 32470, Pitch_bend_c, 2, 9856
5, 32473, Pitch_bend_c, 2, 9728
5, 32476, Pitch_bend_c, 2, 9216
5, 32480, Pitch_bend_c, 2, 6784
5, 32483, Pitch_bend_c, 2, 6016
5, 32486, Pitch_bend_c, 2, 5760
5, 32490, Pitch_bend_c, 2, 5632
5, 32493, Pitch_bend_c, 2, 5504
5, 32496, Pitch_bend_c, 2, 5376
5, 32500, Pitch_bend_c, 2, 5120
5, 32510, Pitch_bend_c, 2, 5248
5, 32513, Pitch_bend_c, 2, 5760
5, 32516, Pitch_bend_c, 2, 8064
5, 32519, Note_on_c, 2, 66, 0
5, 32519, Note_on_c, 2, 71, 0
5, 32520, Note_on_c, 2, 72, 127
5, 32520, Note_on_c, 2, 67, 127
5, 32520, Pitch_bend_c, 2, 8320
5, 32523, Pitch_bend_c, 2, 8576
5, 32526, Pitch_bend_c, 2, 8704
5, 32530, Pitch_bend_c, 2, 8960
5, 32533, Pitch_bend_c, 2, 9088
5, 32536, Pitch_bend_c, 2, 9344
5, 32540, Pitch_bend_c, 2, 9472
5, 32543, Pitch_bend_c, 2, 9600
5, 32546, Pitch_bend_c, 2, 9728
5, 32550, Pitch_bend_c, 2, 9856
5, 32553, Pitch_bend_c, 2, 9984
5, 32556, Pitch_bend_c, 2, 10112
5, 32563, Pitch_bend_c, 2, 10240
5, 32566, Pitch_bend_c, 2, 10368
5, 32583, Pitch_bend_c, 2, 10240
5, 32590, Pitch_bend_c, 2, 10112
5, 32593, Pitch_bend_c, 2, 9984
5, 32596, Pitch_bend_c, 2, 9728
5, 32603, Pitch_bend_c, 2, 9472
5, 32606, Pitch_bend_c, 2, 9344
5, 32610, Pitch_bend_c, 2, 9216
5, 32613, Pitch_bend_c, 2, 9088
5, 32616, Pitch_bend_c, 2, 8960
5, 32620, Pitch_bend_c, 2, 8704
5, 32623, Pitch_bend_c, 2, 8320
5, 32630, Pitch_bend_c, 2, 8192
5, 32636, Pitch_bend_c, 2, 8320
5, 32639, Note_on_c, 2, 67, 0
5, 32639, Note_on_c, 2, 72, 0
5, 32640, Note_on_c, 2, 55, 127
5, 32640, Note_on_c, 2, 50, 127
5, 32640, Note_on_c, 2, 43, 127
5, 32819, Note_on_c, 2, 43, 0
5, 32819, Note_on_c, 2, 50, 0
5, 32819, Note_on_c, 2, 55, 0
5, 32820, Note_on_c, 2, 62, 127
5, 32820, Note_on_c, 2, 57, 127
5, 32820, Note_on_c, 2, 50, 127
5, 32939, Note_on_c, 2, 50, 0
5, 32939, Note_on_c, 2, 57, 0
5, 32939, Note_on_c, 2, 62, 0
5, 32940, Note_on_c, 2, 64, 127
5, 32940, Note_on_c, 2, 59, 127
5, 32940, Note_on_c, 2, 52, 127
5, 33059, Note_on_c, 2, 52, 0
5, 33059, Note_on_c, 2, 59, 0
5, 33059, Note_on_c, 2, 64, 0
5, 33060, Note_on_c, 2, 59, 127
5, 33060, Note_on_c, 2, 54, 127
5, 33060, Note_on_c, 2, 47, 127
5, 33119, Note_on_c, 2, 47, 0
5, 33119, Note_on_c, 2, 54, 0
5, 33119, Note_on_c, 2, 59, 0
5, 33120, Note_on_c, 2, 59, 127
5, 33120, Note_on_c, 2, 54, 127
5, 33120, Note_on_c, 2, 47, 127
5, 33299, Note_on_c, 2, 47, 0
5, 33299, Note_on_c, 2, 54, 0
5, 33299, Note_on_c, 2, 59, 0
5, 33300, Note_on_c, 2, 60, 127
5, 33300, Note_on_c, 2, 55, 127
5, 33300, Note_on_c, 2, 48, 127
5, 33419, Note_on_c, 2, 48, 0
5, 33419, Note_on_c, 2, 55, 0
5, 33419, Note_on_c, 2, 60, 0
5, 33420, Note_on_c, 2, 62, 127
5, 33420, Note_on_c, 2, 57, 127
5, 33420, Note_on_c, 2, 50, 127
5, 33539, Note_on_c, 2, 50, 0
5, 33539, Note_on_c, 2, 57, 0
5, 33539, Note_on_c, 2, 62, 0
5, 33540, Note_on_c, 2, 55, 127
5, 33540, Note_on_c, 2, 50, 127
5, 33540, Note_on_c, 2, 43, 127
5, 33599, Note_on_c, 2, 43, 0
5, 33599, Note_on_c, 2, 50, 0
5, 33599, Note_on_c, 2, 55, 0
5, 33600, Note_on_c, 2, 55, 127
5, 33600, Note_on_c, 2, 50, 127
5, 33600, Note_on_c, 2, 43, 127
5, 33779, Note_on_c, 2, 43, 0
5, 33779, Note_on_c, 2, 50, 0
5, 33779, Note_on_c, 2, 55, 0
5, 33780, Note_on_c, 2, 62, 127
5, 33780, Note_on_c, 2, 57, 127
5, 33780, Note_on_c, 2, 50, 127
5, 33899, Note_on_c, 2, 50, 0
5, 33899, Note_on_c, 2, 57, 0
5, 33899, Note_on_c, 2, 62, 0
5, 33900, Note_on_c, 2, 64, 127
5, 33900, Note_on_c, 2, 59, 127
5, 33900, Note_on_c, 2, 52, 127
5, 34019, Note_on_c, 2, 52, 0
5, 34019, Note_on_c, 2, 59, 0
5, 34019, Note_on_c, 2, 64, 0
5, 34020, Note_on_c, 2, 59, 127
5, 34020, Note_on_c, 2, 54, 127
5, 34020, Note_on_c, 2, 47, 127
5, 34079, Note_on_c, 2, 47, 0
5, 34079, Note_on_c, 2, 54, 0
5, 34079, Note_on_c, 2, 59, 0
5, 34080, Note_on_c, 2, 59, 127
5, 34080, Note_on_c, 2, 54, 127
5, 34080, Note_on_c, 2, 47, 127
5, 34259, Note_on_c, 2, 47, 0
5, 34259, Note_on_c, 2, 54, 0
5, 34259, Note_on_c, 2, 59, 0
5, 34260, Note_on_c, 2, 60, 127
5, 34260, Note_on_c, 2, 55, 127
5, 34260, Note_on_c, 2, 48, 127
5, 34379, Note_on_c, 2, 48, 0
5, 34379, Note_on_c, 2, 55, 0
5, 34379, Note_on_c, 2, 60, 0
5, 34380, Note_on_c, 2, 62, 127
5, 34380, Note_on_c, 2, 57, 127
5, 34380, Note_on_c, 2, 50, 127
5, 34499, Note_on_c, 2, 50, 0
5, 34499, Note_on_c, 2, 57, 0
5, 34499, Note_on_c, 2, 62, 0
5, 34500, Note_on_c, 2, 55, 127
5, 34500, Note_on_c, 2, 50, 127
5, 34500, Note_on_c, 2, 43, 127
5, 34559, Note_on_c, 2, 43, 0
5, 34559, Note_on_c, 2, 50, 0
5, 34559, Note_on_c, 2, 55, 0
5, 34560, Note_on_c, 2, 55, 127
5, 34560, Note_on_c, 2, 50, 127
5, 34560, Note_on_c, 2, 43, 127
5, 34739, Note_on_c, 2, 43, 0
5, 34739, Note_on_c, 2, 50, 0
5, 34739, Note_on_c, 2, 55, 0
5, 34740, Note_on_c, 2, 62, 127
5, 34740, Note_on_c, 2, 57, 127
5, 34740, Note_on_c, 2, 50, 127
5, 34859, Note_on_c, 2, 50, 0
5, 34859, Note_on_c, 2, 57, 0
5, 34859, Note_on_c, 2, 62, 0
5, 34860, Note_on_c, 2, 64, 127
5, 34860, Note_on_c, 2, 59, 127
5, 34860, Note_on_c, 2, 52, 127
5, 34979, Note_on_c, 2, 52, 0
5, 34979, Note_on_c, 2, 59, 0
5, 34979, Note_on_c, 2, 64, 0
5, 34980, Note_on_c, 2, 59, 127
5, 34980, Note_on_c, 2, 54, 127
5, 34980, Note_on_c, 2, 47, 127
5, 35039, Note_on_c, 2, 47, 0
5, 35039, Note_on_c, 2, 54, 0
5, 35039, Note_on_c, 2, 59, 0
5, 35040, Note_on_c, 2, 59, 127
5, 35040, Note_on_c, 2, 54, 127
5, 35040, Note_on_c, 2, 47, 127
5, 35219, Note_on_c, 2, 47, 0
5, 35219, Note_on_c, 2, 54, 0
5, 35219, Note_on_c, 2, 59, 0
5, 35220, Note_on_c, 2, 60, 127
5, 35220, Note_on_c, 2, 55, 127
5, 35220, Note_on_c, 2, 48, 127
5, 35339, Note_on_c, 2, 48, 0
5, 35339, Note_on_c, 2, 55, 0
5, 35339, Note_on_c, 2, 60, 0
5, 35340, Note_on_c, 2, 62, 127
5, 35340, Note_on_c, 2, 57, 127
5, 35340, Note_on_c, 2, 50, 127
5, 35459, Note_on_c, 2, 50, 0
5, 35459, Note_on_c, 2, 57, 0
5, 35459, Note_on_c, 2, 62, 0
5, 35460, Note_on_c, 2, 55, 127
5, 35460, Note_on_c, 2, 50, 127
5, 35460, Note_on_c, 2, 43, 127
5, 35519, Note_on_c, 2, 43, 0
5, 35519, Note_on_c, 2, 50, 0
5, 35519, Note_on_c, 2, 55, 0
5, 35520, Note_on_c, 2, 55, 127
5, 35520, Note_on_c, 2, 50, 127
5, 35520, Note_on_c, 2, 43, 127
5, 35699, Note_on_c, 2, 43, 0
5, 35699, Note_on_c, 2, 50, 0
5, 35699, Note_on_c, 2, 55, 0
5, 35700, Note_on_c, 2, 62, 127
5, 35700, Note_on_c, 2, 57, 127
5, 35700, Note_on_c, 2, 50, 127
5, 35819, Note_on_c, 2, 50, 0
5, 35819, Note_on_c, 2, 57, 0
5, 35819, Note_on_c, 2, 62, 0
5, 35820, Note_on_c, 2, 64, 127
5, 35820, Note_on_c, 2, 59, 127
5, 35820, Note_on_c, 2, 52, 127
5, 35939, Note_on_c, 2, 52, 0
5, 35939, Note_on_c, 2, 59, 0
5, 35939, Note_on_c, 2, 64, 0
5, 35940, Note_on_c, 2, 59, 127
5, 35940, Note_on_c, 2, 54, 127
5, 35940, Note_on_c, 2, 47, 127
5, 35999, Note_on_c, 2, 47, 0
5, 35999, Note_on_c, 2, 54, 0
5, 35999, Note_on_c, 2, 59, 0
5, 36000, Note_on_c, 2, 59, 127
5, 36000, Note_on_c, 2, 54, 127
5, 36000, Note_on_c, 2, 47, 127
5, 36179, Note_on_c, 2, 47, 0
5, 36179, Note_on_c, 2, 54, 0
5, 36179, Note_on_c, 2, 59, 0
5, 36180, Note_on_c, 2, 60, 127
5, 36180, Note_on_c, 2, 55, 127
5, 36180, Note_on_c, 2, 48, 127
5, 36299, Note_on_c, 2, 48, 0
5, 36299, Note_on_c, 2, 55, 0
5, 36299, Note_on_c, 2, 60, 0
5, 36300, Note_on_c, 2, 62, 127
5, 36300, Note_on_c, 2, 57, 127
5, 36300, Note_on_c, 2, 50, 127
5, 36419, Note_on_c, 2, 50, 0
5, 36419, Note_on_c, 2, 57, 0
5, 36419, Note_on_c, 2, 62, 0
5, 36420, Note_on_c, 2, 55, 127
5, 36420, Note_on_c, 2, 50, 127
5, 36420, Note_on_c, 2, 43, 127
5, 36479, Note_on_c, 2, 43, 0
5, 36479, Note_on_c, 2, 50, 0
5, 36479, Note_on_c, 2, 55, 0
5, 36480, Note_on_c, 2, 55, 127
5, 36480, Note_on_c, 2, 50, 127
5, 36480, Note_on_c, 2, 43, 127
5, 36659, Note_on_c, 2, 43, 0
5, 36659, Note_on_c, 2, 50, 0
5, 36659, Note_on_c, 2, 55, 0
5, 36660, Note_on_c, 2, 62, 127
5, 36660, Note_on_c, 2, 57, 127
5, 36660, Note_on_c, 2, 50, 127
5, 36779, Note_on_c, 2, 50, 0
5, 36779, Note_on_c, 2, 57, 0
5, 36779, Note_on_c, 2, 62, 0
5, 36780, Note_on_c, 2, 64, 127
5, 36780, Note_on_c, 2, 59, 127
5, 36780, Note_on_c, 2, 52, 127
5, 36899, Note_on_c, 2, 52, 0
5, 36899, Note_on_c, 2, 59, 0
5, 36899, Note_on_c, 2, 64, 0
5, 36900, Note_on_c, 2, 59, 127
5, 36900, Note_on_c, 2, 54, 127
5, 36900, Note_on_c, 2, 47, 127
5, 36959, Note_on_c, 2, 47, 0
5, 36959, Note_on_c, 2, 54, 0
5, 36959, Note_on_c, 2, 59, 0
5, 36960, Note_on_c, 2, 59, 127
5, 36960, Note_on_c, 2, 54, 127
5, 36960, Note_on_c, 2, 47, 127
5, 37139, Note_on_c, 2, 47, 0
5, 37139, Note_on_c, 2, 54, 0
5, 37139, Note_on_c, 2, 59, 0
5, 37140, Note_on_c, 2, 60, 127
5, 37140, Note_on_c, 2, 55, 127
5, 37140, Note_on_c, 2, 48, 127
5, 37259, Note_on_c, 2, 48, 0
5, 37259, Note_on_c, 2, 55, 0
5, 37259, Note_on_c, 2, 60, 0
5, 37260, Note_on_c, 2, 62, 127
5, 37260, Note_on_c, 2, 57, 127
5, 37260, Note_on_c, 2, 50, 127
5, 37379, Note_on_c, 2, 50, 0
5, 37379, Note_on_c, 2, 57, 0
5, 37379, Note_on_c, 2, 62, 0
5, 37380, Note_on_c, 2, 55, 127
5, 37380, Note_on_c, 2, 50, 127
5, 37380, Note_on_c, 2, 43, 127
5, 37439, Note_on_c, 2, 43, 0
5, 37439, Note_on_c, 2, 50, 0
5, 37439, Note_on_c, 2, 55, 0
5, 37440, Note_on_c, 2, 55, 127
5, 37440, Note_on_c, 2, 50, 127
5, 37440, Note_on_c, 2, 43, 127
5, 37619, Note_on_c, 2, 43, 0
5, 37619, Note_on_c, 2, 50, 0
5, 37619, Note_on_c, 2, 55, 0
5, 37620, Note_on_c, 2, 62, 127
5, 37620, Note_on_c, 2, 57, 127
5, 37620, Note_on_c, 2, 50, 127
5, 37739, Note_on_c, 2, 50, 0
5, 37739, Note_on_c, 2, 57, 0
5, 37739, Note_on_c, 2, 62, 0
5, 37740, Note_on_c, 2, 64, 127
5, 37740, Note_on_c, 2, 59, 127
5, 37740, Note_on_c, 2, 52, 127
5, 37859, Note_on_c, 2, 52, 0
5, 37859, Note_on_c, 2, 59, 0
5, 37859, Note_on_c, 2, 64, 0
5, 37860, Note_on_c, 2, 59, 127
5, 37860, Note_on_c, 2, 54, 127
5, 37860, Note_on_c, 2, 47, 127
5, 37919, Note_on_c, 2, 47, 0
5, 37919, Note_on_c, 2, 54, 0
5, 37919, Note_on_c, 2, 59, 0
5, 37920, Note_on_c, 2, 59, 127
5, 37920, Note_on_c, 2, 54, 127
5, 37920, Note_on_c, 2, 47, 127
5, 38099, Note_on_c, 2, 47, 0
5, 38099, Note_on_c, 2, 54, 0
5, 38099, Note_on_c, 2, 59, 0
5, 38100, Note_on_c, 2, 60, 127
5, 38100, Note_on_c, 2, 55, 127
5, 38100, Note_on_c, 2, 48, 127
5, 38219, Note_on_c, 2, 48, 0
5, 38219, Note_on_c, 2, 55, 0
5, 38219, Note_on_c, 2, 60, 0
5, 38220, Note_on_c, 2, 62, 127
5, 38220, Note_on_c, 2, 57, 127
5, 38220, Note_on_c, 2, 50, 127
5, 38339, Note_on_c, 2, 50, 0
5, 38339, Note_on_c, 2, 57, 0
5, 38339, Note_on_c, 2, 62, 0
5, 38340, Note_on_c, 2, 55, 127
5, 38340, Note_on_c, 2, 50, 127
5, 38340, Note_on_c, 2, 43, 127
5, 38399, Note_on_c, 2, 43, 0
5, 38399, Note_on_c, 2, 50, 0
5, 38399, Note_on_c, 2, 55, 0
5, 38400, Note_on_c, 2, 55, 127
5, 38400, Note_on_c, 2, 50, 127
5, 38400, Note_on_c, 2, 43, 127
5, 38459, Note_on_c, 2, 43, 0
5, 38459, Note_on_c, 2, 50, 0
5, 38459, Note_on_c, 2, 55, 0
5, 38460, Note_on_c, 2, 43, 127
5, 38460, Note_on_c, 2, 55, 127
5, 38460, Note_on_c, 2, 50, 127
5, 38519, Note_on_c, 2, 50, 0
5, 38519, Note_on_c, 2, 55, 0
5, 38519, Note_on_c, 2, 43, 0
5, 38520, Note_on_c, 2, 43, 127
5, 38520, Note_on_c, 2, 55, 127
5, 38520, Note_on_c, 2, 50, 127
5, 38579, Note_on_c, 2, 50, 0
5, 38579, Note_on_c, 2, 55, 0
5, 38579, Note_on_c, 2, 43, 0
5, 38580, Note_on_c, 2, 43, 127
5, 38580, Note_on_c, 2, 55, 127
5, 38580, Note_on_c, 2, 50, 127
5, 38639, Note_on_c, 2, 50, 0
5, 38639, Note_on_c, 2, 55, 0
5, 38639, Note_on_c, 2, 43, 0
5, 38640, Note_on_c, 2, 43, 127
5, 38640, Note_on_c, 2, 55, 127
5, 38640, Note_on_c, 2, 50, 127
5, 38699, Note_on_c, 2, 50, 0
5, 38699, Note_on_c, 2, 55, 0
5, 38699, Note_on_c, 2, 43, 0
5, 38700, Note_on_c, 2, 43, 127
5, 38700, Note_on_c, 2, 55, 127
5, 38700, Note_on_c, 2, 50, 127
5, 38759, Note_on_c, 2, 50, 0
5, 38759, Note_on_c, 2, 55, 0
5, 38759, Note_on_c, 2, 43, 0
5, 38760, Note_on_c, 2, 43, 127
5, 38760, Note_on_c, 2, 55, 127
5, 38760, Note_on_c, 2, 50, 127
5, 38819, Note_on_c, 2, 50, 0
5, 38819, Note_on_c, 2, 55, 0
5, 38819, Note_on_c, 2, 43, 0
5, 38820, Note_on_c, 2, 43, 127
5, 38820, Note_on_c, 2, 55, 127
5, 38820, Note_on_c, 2, 50, 127
5, 38879, Note_on_c, 2, 50, 0
5, 38879, Note_on_c, 2, 55, 0
5, 38879, Note_on_c, 2, 43, 0
5, 38880, Note_on_c, 2, 64, 127
5, 38880, Note_on_c, 2, 59, 127
5, 38880, Note_on_c, 2, 52, 127
5, 38939, Note_on_c, 2, 52, 0
5, 38939, Note_on_c, 2, 59, 0
5, 38939, Note_on_c, 2, 64, 0
5, 38940, Note_on_c, 2, 52, 127
5, 38940, Note_on_c, 2, 59, 127
5, 38940, Note_on_c, 2, 64, 127
5, 38999, Note_on_c, 2, 64, 0
5, 38999, Note_on_c, 2, 59, 0
5, 38999, Note_on_c, 2, 52, 0
5, 39000, Note_on_c, 2, 52, 127
5, 39000, Note_on_c, 2, 59, 127
5, 39000, Note_on_c, 2, 64, 127
5, 39059, Note_on_c, 2, 64, 0
5, 39059, Note_on_c, 2, 59, 0
5, 39059, Note_on_c, 2, 52, 0
5, 39060, Note_on_c, 2, 52, 127
5, 39060, Note_on_c, 2, 59, 127
5, 39060, Note_on_c, 2, 64, 127
5, 39119, Note_on_c, 2, 64, 0
5, 39119, Note_on_c, 2, 59, 0
5, 39119, Note_on_c, 2, 52, 0
5, 39120, Note_on_c, 2, 62, 127
5, 39120, Note_on_c, 2, 57, 127
5, 39120, Note_on_c, 2, 50, 127
5, 39179, Note_on_c, 2, 50, 0
5, 39179, Note_on_c, 2, 57, 0
5, 39179, Note_on_c, 2, 62, 0
5, 39180, Note_on_c, 2, 62, 127
5, 39180, Note_on_c, 2, 57, 127
5, 39180, Note_on_c, 2, 50, 127
5, 39239, Note_on_c, 2, 50, 0
5, 39239, Note_on_c, 2, 57, 0
5, 39239, Note_on_c, 2, 62, 0
5, 39240, Note_on_c, 2, 62, 127
5, 39240, Note_on_c, 2, 57, 127
5, 39240, Note_on_c, 2, 50, 127
5, 39299, Note_on_c, 2, 50, 0
5, 39299, Note_on_c, 2, 57, 0
5, 39299, Note_on_c, 2, 62, 0
5, 39300, Note_on_c, 2, 62, 127
5, 39300, Note_on_c, 2, 57, 127
5, 39300, Note_on_c, 2, 50, 127
5, 39359, Note_on_c, 2, 50, 0
5, 39359, Note_on_c, 2, 57, 0
5, 39359, Note_on_c, 2, 62, 0
5, 39360, Note_on_c, 2, 55, 127
5, 39360, Note_on_c, 2, 50, 127
5, 39360, Note_on_c, 2, 43, 127
5, 39419, Note_on_c, 2, 43, 0
5, 39419, Note_on_c, 2, 50, 0
5, 39419, Note_on_c, 2, 55, 0
5, 39420, Note_on_c, 2, 43, 127
5, 39420, Note_on_c, 2, 55, 127
5, 39420, Note_on_c, 2, 50, 127
5, 39479, Note_on_c, 2, 50, 0
5, 39479, Note_on_c, 2, 55, 0
5, 39479, Note_on_c, 2, 43, 0
5, 39480, Note_on_c, 2, 43, 127
5, 39480, Note_on_c, 2, 55, 127
5, 39480, Note_on_c, 2, 50, 127
5, 39539, Note_on_c, 2, 50, 0
5, 39539, Note_on_c, 2, 55, 0
5, 39539, Note_on_c, 2, 43, 0
5, 39540, Note_on_c, 2, 43, 127
5, 39540, Note_on_c, 2, 55, 127
5, 39540, Note_on_c, 2, 50, 127
5, 39599, Note_on_c, 2, 50, 0
5, 39599, Note_on_c, 2, 55, 0
5, 39599, Note_on_c, 2, 43, 0
5, 39600, Note_on_c, 2, 43, 127
5, 39600, Note_on_c, 2, 55, 127
5, 39600, Note_on_c, 2, 50, 127
5, 39659, Note_on_c, 2, 50, 0
5, 39659, Note_on_c, 2, 55, 0
5, 39659, Note_on_c, 2, 43, 0
5, 39660, Note_on_c, 2, 43, 127
5, 39660, Note_on_c, 2, 55, 127
5, 39660, Note_on_c, 2, 50, 127
5, 39719, Note_on_c, 2, 50, 0
5, 39719, Note_on_c, 2, 55, 0
5, 39719, Note_on_c, 2, 43, 0
5, 39720, Note_on_c, 2, 43, 127
5, 39720, Note_on_c, 2, 55, 127
5, 39720, Note_on_c, 2, 50, 127
5, 39779, Note_on_c, 2, 50, 0
5, 39779, Note_on_c, 2, 55, 0
5, 39779, Note_on_c, 2, 43, 0
5, 39780, Note_on_c, 2, 43, 127
5, 39780, Note_on_c, 2, 55, 127
5, 39780, Note_on_c, 2, 50, 127
5, 39839, Note_on_c, 2, 50, 0
5, 39839, Note_on_c, 2, 55, 0
5, 39839, Note_on_c, 2, 43, 0
5, 39840, Note_on_c, 2, 64, 127
5, 39840, Note_on_c, 2, 59, 127
5, 39840, Note_on_c, 2, 52, 127
5, 39899, Note_on_c, 2, 52, 0
5, 39899, Note_on_c, 2, 59, 0
5, 39899, Note_on_c, 2, 64, 0
5, 39900, Note_on_c, 2, 52, 127
5, 39900, Note_on_c, 2, 59, 127
5, 39900, Note_on_c, 2, 64, 127
5, 39959, Note_on_c, 2, 64, 0
5, 39959, Note_on_c, 2, 59, 0
5, 39959, Note_on_c, 2, 52, 0
5, 39960, Note_on_c, 2, 52, 127
5, 39960, Note_on_c, 2, 59, 127
5, 39960, Note_on_c, 2, 64, 127
5, 40019, Note_on_c, 2, 64, 0
5, 40019, Note_on_c, 2, 59, 0
5, 40019, Note_on_c, 2, 52, 0
5, 40020, Note_on_c, 2, 52, 127
5, 40020, Note_on_c, 2, 59, 127
5, 40020, Note_on_c, 2, 64, 127
5, 40079, Note_on_c, 2, 64, 0
5, 40079, Note_on_c, 2, 59, 0
5, 40079, Note_on_c, 2, 52, 0
5, 40080, Note_on_c, 2, 62, 127
5, 40080, Note_on_c, 2, 57, 127
5, 40080, Note_on_c, 2, 50, 127
5, 40139, Note_on_c, 2, 50, 0
5, 40139, Note_on_c, 2, 57, 0
5, 40139, Note_on_c, 2, 62, 0
5, 40140, Note_on_c, 2, 62, 127
5, 40140, Note_on_c, 2, 57, 127
5, 40140, Note_on_c, 2, 50, 127
5, 40199, Note_on_c, 2, 50, 0
5, 40199, Note_on_c, 2, 57, 0
5, 40199, Note_on_c, 2, 62, 0
5, 40200, Note_on_c, 2, 62, 127
5, 40200, Note_on_c, 2, 57, 127
5, 40200, Note_on_c, 2, 50, 127
5, 40259, Note_on_c, 2, 50, 0
5, 40259, Note_on_c, 2, 57, 0
5, 40259, Note_on_c, 2, 62, 0
5, 40260, Note_on_c, 2, 62, 127
5, 40260, Note_on_c, 2, 57, 127
5, 40260, Note_on_c, 2, 50, 127
5, 40319, Note_on_c, 2, 50, 0
5, 40319, Note_on_c, 2, 57, 0
5, 40319, Note_on_c, 2, 62, 0
5, 40320, Note_on_c, 2, 55, 127
5, 40320, Note_on_c, 2, 50, 127
5, 40320, Note_on_c, 2, 43, 127
5, 40379, Note_on_c, 2, 43, 0
5, 40379, Note_on_c, 2, 50, 0
5, 40379, Note_on_c, 2, 55, 0
5, 40380, Note_on_c, 2, 43, 127
5, 40380, Note_on_c, 2, 55, 127
5, 40380, Note_on_c, 2, 50, 127
5, 40439, Note_on_c, 2, 50, 0
5, 40439, Note_on_c, 2, 55, 0
5, 40439, Note_on_c, 2, 43, 0
5, 40440, Note_on_c, 2, 43, 127
5, 40440, Note_on_c, 2, 55, 127
5, 40440, Note_on_c, 2, 50, 127
5, 40499, Note_on_c, 2, 50, 0
5, 40499, Note_on_c, 2, 55, 0
5, 40499, Note_on_c, 2, 43, 0
5, 40500, Note_on_c, 2, 43, 127
5, 40500, Note_on_c, 2, 55, 127
5, 40500, Note_on_c, 2, 50, 127
5, 40559, Note_on_c, 2, 50, 0
5, 40559, Note_on_c, 2, 55, 0
5, 40559, Note_on_c, 2, 43, 0
5, 40560, Note_on_c, 2, 43, 127
5, 40560, Note_on_c, 2, 55, 127
5, 40560, Note_on_c, 2, 50, 127
5, 40619, Note_on_c, 2, 50, 0
5, 40619, Note_on_c, 2, 55, 0
5, 40619, Note_on_c, 2, 43, 0
5, 40620, Note_on_c, 2, 43, 127
5, 40620, Note_on_c, 2, 55, 127
5, 40620, Note_on_c, 2, 50, 127
5, 40679, Note_on_c, 2, 50, 0
5, 40679, Note_on_c, 2, 55, 0
5, 40679, Note_on_c, 2, 43, 0
5, 40680, Note_on_c, 2, 43, 127
5, 40680, Note_on_c, 2, 55, 127
5, 40680, Note_on_c, 2, 50, 127
5, 40739, Note_on_c, 2, 50, 0
5, 40739, Note_on_c, 2, 55, 0
5, 40739, Note_on_c, 2, 43, 0
5, 40740, Note_on_c, 2, 43, 127
5, 40740, Note_on_c, 2, 55, 127
5, 40740, Note_on_c, 2, 50, 127
5, 40799, Note_on_c, 2, 50, 0
5, 40799, Note_on_c, 2, 55, 0
5, 40799, Note_on_c, 2, 43, 0
5, 40800, Note_on_c, 2, 64, 127
5, 40800, Note_on_c, 2, 59, 127
5, 40800, Note_on_c, 2, 52, 127
5, 40859, Note_on_c, 2, 52, 0
5, 40859, Note_on_c, 2, 59, 0
5, 40859, Note_on_c, 2, 64, 0
5, 40860, Note_on_c, 2, 52, 127
5, 40860, Note_on_c, 2, 59, 127
5, 40860, Note_on_c, 2, 64, 127
5, 40919, Note_on_c, 2, 64, 0
5, 40919, Note_on_c, 2, 59, 0
5, 40919, Note_on_c, 2, 52, 0
5, 40920, Note_on_c, 2, 52, 127
5, 40920, Note_on_c, 2, 59, 127
5, 40920, Note_on_c, 2, 64, 127
5, 40979, Note_on_c, 2, 64, 0
5, 40979, Note_on_c, 2, 59, 0
5, 40979, Note_on_c, 2, 52, 0
5, 40980, Note_on_c, 2, 52, 127
5, 40980, Note_on_c, 2, 59, 127
5, 40980, Note_on_c, 2, 64, 127
5, 41039, Note_on_c, 2, 64, 0
5, 41039, Note_on_c, 2, 59, 0
5, 41039, Note_on_c, 2, 52, 0
5, 41040, Note_on_c, 2, 62, 127
5, 41040, Note_on_c, 2, 57, 127
5, 41040, Note_on_c, 2, 50, 127
5, 41099, Note_on_c, 2, 50, 0
5, 41099, Note_on_c, 2, 57, 0
5, 41099, Note_on_c, 2, 62, 0
5, 41100, Note_on_c, 2, 62, 127
5, 41100, Note_on_c, 2, 57, 127
5, 41100, Note_on_c, 2, 50, 127
5, 41159, Note_on_c, 2, 50, 0
5, 41159, Note_on_c, 2, 57, 0
5, 41159, Note_on_c, 2, 62, 0
5, 41160, Note_on_c, 2, 62, 127
5, 41160, Note_on_c, 2, 57, 127
5, 41160, Note_on_c, 2, 50, 127
5, 41219, Note_on_c, 2, 50, 0
5, 41219, Note_on_c, 2, 57, 0
5, 41219, Note_on_c, 2, 62, 0
5, 41220, Note_on_c, 2, 62, 127
5, 41220, Note_on_c, 2, 57, 127
5, 41220, Note_on_c, 2, 50, 127
5, 41279, Note_on_c, 2, 50, 0
5, 41279, Note_on_c, 2, 57, 0
5, 41279, Note_on_c, 2, 62, 0
5, 41280, Note_on_c, 2, 55, 127
5, 41280, Note_on_c, 2, 50, 127
5, 41280, Note_on_c, 2, 43, 127
5, 41339, Note_on_c, 2, 43, 0
5, 41339, Note_on_c, 2, 50, 0
5, 41339, Note_on_c, 2, 55, 0
5, 41340, Note_on_c, 2, 43, 127
5, 41340, Note_on_c, 2, 55, 127
5, 41340, Note_on_c, 2, 50, 127
5, 41399, Note_on_c, 2, 50, 0
5, 41399, Note_on_c, 2, 55, 0
5, 41399, Note_on_c, 2, 43, 0
5, 41400, Note_on_c, 2, 43, 127
5, 41400, Note_on_c, 2, 55, 127
5, 41400, Note_on_c, 2, 50, 127
5, 41459, Note_on_c, 2, 50, 0
5, 41459, Note_on_c, 2, 55, 0
5, 41459, Note_on_c, 2, 43, 0
5, 41460, Note_on_c, 2, 43, 127
5, 41460, Note_on_c, 2, 55, 127
5, 41460, Note_on_c, 2, 50, 127
5, 41519, Note_on_c, 2, 50, 0
5, 41519, Note_on_c, 2, 55, 0
5, 41519, Note_on_c, 2, 43, 0
5, 41520, Note_on_c, 2, 43, 127
5, 41520, Note_on_c, 2, 55, 127
5, 41520, Note_on_c, 2, 50, 127
5, 41579, Note_on_c, 2, 50, 0
5, 41579, Note_on_c, 2, 55, 0
5, 41579, Note_on_c, 2, 43, 0
5, 41580, Note_on_c, 2, 43, 127
5, 41580, Note_on_c, 2, 55, 127
5, 41580, Note_on_c, 2, 50, 127
5, 41639, Note_on_c, 2, 50, 0
5, 41639, Note_on_c, 2, 55, 0
5, 41639, Note_on_c, 2, 43, 0
5, 41640, Note_on_c, 2, 43, 127
5, 41640, Note_on_c, 2, 55, 127
5, 41640, Note_on_c, 2, 50, 127
5, 41699, Note_on_c, 2, 50, 0
5, 41699, Note_on_c, 2, 55, 0
5, 41699, Note_on_c, 2, 43, 0
5, 41700, Note_on_c, 2, 43, 127
5, 41700, Note_on_c, 2, 55, 127
5, 41700, Note_on_c, 2, 50, 127
5, 41759, Note_on_c, 2, 50, 0
5, 41759, Note_on_c, 2, 55, 0
5, 41759, Note_on_c, 2, 43, 0
5, 41760, Note_on_c, 2, 64, 127
5, 41760, Note_on_c, 2, 59, 127
5, 41760, Note_on_c, 2, 52, 127
5, 41819, Note_on_c, 2, 52, 0
5, 41819, Note_on_c, 2, 59, 0
5, 41819, Note_on_c, 2, 64, 0
5, 41820, Note_on_c, 2, 52, 127
5, 41820, Note_on_c, 2, 59, 127
5, 41820, Note_on_c, 2, 64, 127
5, 41879, Note_on_c, 2, 64, 0
5, 41879, Note_on_c, 2, 59, 0
5, 41879, Note_on_c, 2, 52, 0
5, 41880, Note_on_c, 2, 52, 127
5, 41880, Note_on_c, 2, 59, 127
5, 41880, Note_on_c, 2, 64, 127
5, 41939, Note_on_c, 2, 64, 0
5, 41939, Note_on_c, 2, 59, 0
5, 41939, Note_on_c, 2, 52, 0
5, 41940, Note_on_c, 2, 52, 127
5, 41940, Note_on_c, 2, 59, 127
5, 41940, Note_on_c, 2, 64, 127
5, 41999, Note_on_c, 2, 64, 0
5, 41999, Note_on_c, 2, 59, 0
5, 41999, Note_on_c, 2, 52, 0
5, 42000, Note_on_c, 2, 62, 127
5, 42000, Note_on_c, 2, 57, 127
5, 42000, Note_on_c, 2, 50, 127
5, 42059, Note_on_c, 2, 50, 0
5, 42059, Note_on_c, 2, 57, 0
5, 42059, Note_on_c, 2, 62, 0
5, 42060, Note_on_c, 2, 62, 127
5, 42060, Note_on_c, 2, 57, 127
5, 42060, Note_on_c, 2, 50, 127
5, 42119, Note_on_c, 2, 50, 0
5, 42119, Note_on_c, 2, 57, 0
5, 42119, Note_on_c, 2, 62, 0
5, 42120, Note_on_c, 2, 62, 127
5, 42120, Note_on_c, 2, 57, 127
5, 42120, Note_on_c, 2, 50, 127
5, 42179, Note_on_c, 2, 50, 0
5, 42179, Note_on_c, 2, 57, 0
5, 42179, Note_on_c, 2, 62, 0
5, 42180, Note_on_c, 2, 62, 127
5, 42180, Note_on_c, 2, 57, 127
5, 42180, Note_on_c, 2, 50, 127
5, 42239, Note_on_c, 2, 50, 0
5, 42239, Note_on_c, 2, 57, 0
5, 42239, Note_on_c, 2, 62, 0
5, 42239, End_track
6, 0, Start_track
6, 0, MIDI_port, 0
6, 0, Title_t, "get the Death to the Pixies Double CD"
6, 0, Program_c, 3, 29
6, 0, Control_c, 3, 7, 115
6, 0, Control_c, 3, 10, 96
6, 5760, Note_on_c, 3, 67, 100
6, 6719, Note_on_c, 3, 67, 0
6, 6720, Note_on_c, 3, 67, 100
6, 6720, Note_on_c, 3, 74, 80
6, 7679, Note_on_c, 3, 74, 0
6, 7679, Note_on_c, 3, 67, 0
6, 7680, Note_on_c, 3, 67, 100
6, 8639, Note_on_c, 3, 67, 0
6, 8640, Note_on_c, 3, 55, 127
6, 8640, Note_on_c, 3, 50, 127
6, 8640, Note_on_c, 3, 43, 127
6, 8819, Note_on_c, 3, 43, 0
6, 8819, Note_on_c, 3, 50, 0
6, 8819, Note_on_c, 3, 55, 0
6, 8820, Note_on_c, 3, 62, 127
6, 8820, Note_on_c, 3, 57, 127
6, 8820, Note_on_c, 3, 50, 127
6, 8939, Note_on_c, 3, 50, 0
6, 8939, Note_on_c, 3, 57, 0
6, 8939, Note_on_c, 3, 62, 0
6, 8940, Note_on_c, 3, 64, 127
6, 8940, Note_on_c, 3, 59, 127
6, 8940, Note_on_c, 3, 52, 127
6, 9059, Note_on_c, 3, 52, 0
6, 9059, Note_on_c, 3, 59, 0
6, 9059, Note_on_c, 3, 64, 0
6, 9060, Note_on_c, 3, 59, 127
6, 9060, Note_on_c, 3, 54, 127
6, 9060, Note_on_c, 3, 47, 127
6, 9119, Note_on_c, 3, 47, 0
6, 9119, Note_on_c, 3, 54, 0
6, 9119, Note_on_c, 3, 59, 0
6, 9120, Note_on_c, 3, 59, 127
6, 9120, Note_on_c, 3, 54, 127
6, 9120, Note_on_c, 3, 47, 127
6, 9299, Note_on_c, 3, 47, 0
6, 9299, Note_on_c, 3, 54, 0
6, 9299, Note_on_c, 3, 59, 0
6, 9300, Note_on_c, 3, 60, 127
6, 9300, Note_on_c, 3, 55, 127
6, 9300, Note_on_c, 3, 48, 127
6, 9419, Note_on_c, 3, 48, 0
6, 9419, Note_on_c, 3, 55, 0
6, 9419, Note_on_c, 3, 60, 0
6, 9420, Note_on_c, 3, 62, 127
6, 9420, Note_on_c, 3, 57, 127
6, 9420, Note_on_c, 3, 50, 127
6, 9539, Note_on_c, 3, 50, 0
6, 9539, Note_on_c, 3, 57, 0
6, 9539, Note_on_c, 3, 62, 0
6, 9540, Note_on_c, 3, 55, 127
6, 9540, Note_on_c, 3, 50, 127
6, 9540, Note_on_c, 3, 43, 127
6, 9599, Note_on_c, 3, 43, 0
6, 9599, Note_on_c, 3, 50, 0
6, 9599, Note_on_c, 3, 55, 0
6, 9600, Note_on_c, 3, 55, 127
6, 9600, Note_on_c, 3, 50, 127
6, 9600, Note_on_c, 3, 43, 127
6, 9779, Note_on_c, 3, 43, 0
6, 9779, Note_on_c, 3, 50, 0
6, 9779, Note_on_c, 3, 55, 0
6, 9780, Note_on_c, 3, 62, 127
6, 9780, Note_on_c, 3, 57, 127
6, 9780, Note_on_c, 3, 50, 127
6, 9899, Note_on_c, 3, 50, 0
6, 9899, Note_on_c, 3, 57, 0
6, 9899, Note_on_c, 3, 62, 0
6, 9900, Note_on_c, 3, 64, 127
6, 9900, Note_on_c, 3, 59, 127
6, 9900, Note_on_c, 3, 52, 127
6, 10019, Note_on_c, 3, 52, 0
6, 10019, Note_on_c, 3, 59, 0
6, 10019, Note_on_c, 3, 64, 0
6, 10020, Note_on_c, 3, 59, 127
6, 10020, Note_on_c, 3, 54, 127
6, 10020, Note_on_c, 3, 47, 127
6, 10079, Note_on_c, 3, 47, 0
6, 10079, Note_on_c, 3, 54, 0
6, 10079, Note_on_c, 3, 59, 0
6, 10080, Note_on_c, 3, 59, 127
6, 10080, Note_on_c, 3, 54, 127
6, 10080, Note_on_c, 3, 47, 127
6, 10259, Note_on_c, 3, 47, 0
6, 10259, Note_on_c, 3, 54, 0
6, 10259, Note_on_c, 3, 59, 0
6, 10260, Note_on_c, 3, 60, 127
6, 10260, Note_on_c, 3, 55, 127
6, 10260, Note_on_c, 3, 48, 127
6, 10379, Note_on_c, 3, 48, 0
6, 10379, Note_on_c, 3, 55, 0
6, 10379, Note_on_c, 3, 60, 0
6, 10380, Note_on_c, 3, 62, 127
6, 10380, Note_on_c, 3, 57, 127
6, 10380, Note_on_c, 3, 50, 127
6, 10499, Note_on_c, 3, 50, 0
6, 10499, Note_on_c, 3, 57, 0
6, 10499, Note_on_c, 3, 62, 0
6, 10500, Note_on_c, 3, 55, 127
6, 10500, Note_on_c, 3, 50, 127
6, 10500, Note_on_c, 3, 43, 127
6, 10559, Note_on_c, 3, 43, 0
6, 10559, Note_on_c, 3, 50, 0
6, 10559, Note_on_c, 3, 55, 0
6, 10560, Note_on_c, 3, 55, 127
6, 10560, Note_on_c, 3, 50, 127
6, 10560, Note_on_c, 3, 43, 127
6, 10739, Note_on_c, 3, 43, 0
6, 10739, Note_on_c, 3, 50, 0
6, 10739, Note_on_c, 3, 55, 0
6, 10740, Note_on_c, 3, 62, 127
6, 10740, Note_on_c, 3, 57, 127
6, 10740, Note_on_c, 3, 50, 127
6, 10859, Note_on_c, 3, 50, 0
6, 10859, Note_on_c, 3, 57, 0
6, 10859, Note_on_c, 3, 62, 0
6, 10860, Note_on_c, 3, 64, 127
6, 10860, Note_on_c, 3, 59, 127
6, 10860, Note_on_c, 3, 52, 127
6, 10979, Note_on_c, 3, 52, 0
6, 10979, Note_on_c, 3, 59, 0
6, 10979, Note_on_c, 3, 64, 0
6, 10980, Note_on_c, 3, 59, 127
6, 10980, Note_on_c, 3, 54, 127
6, 10980, Note_on_c, 3, 47, 127
6, 11039, Note_on_c, 3, 47, 0
6, 11039, Note_on_c, 3, 54, 0
6, 11039, Note_on_c, 3, 59, 0
6, 11040, Note_on_c, 3, 59, 127
6, 11040, Note_on_c, 3, 54, 127
6, 11040, Note_on_c, 3, 47, 127
6, 11219, Note_on_c, 3, 47, 0
6, 11219, Note_on_c, 3, 54, 0
6, 11219, Note_on_c, 3, 59, 0
6, 11220, Note_on_c, 3, 60, 127
6, 11220, Note_on_c, 3, 55, 127
6, 11220, Note_on_c, 3, 48, 127
6, 11339, Note_on_c, 3, 48, 0
6, 11339, Note_on_c, 3, 55, 0
6, 11339, Note_on_c, 3, 60, 0
6, 11340, Note_on_c, 3, 62, 127
6, 11340, Note_on_c, 3, 57, 127
6, 11340, Note_on_c, 3, 50, 127
6, 11459, Note_on_c, 3, 50, 0
6, 11459, Note_on_c, 3, 57, 0
6, 11459, Note_on_c, 3, 62, 0
6, 11460, Note_on_c, 3, 55, 127
6, 11460, Note_on_c, 3, 50, 127
6, 11460, Note_on_c, 3, 43, 127
6, 11519, Note_on_c, 3, 43, 0
6, 11519, Note_on_c, 3, 50, 0
6, 11519, Note_on_c, 3, 55, 0
6, 11520, Note_on_c, 3, 55, 127
6, 11520, Note_on_c, 3, 50, 127
6, 11520, Note_on_c, 3, 43, 127
6, 11699, Note_on_c, 3, 43, 0
6, 11699, Note_on_c, 3, 50, 0
6, 11699, Note_on_c, 3, 55, 0
6, 11700, Note_on_c, 3, 62, 127
6, 11700, Note_on_c, 3, 57, 127
6, 11700, Note_on_c, 3, 50, 127
6, 11819, Note_on_c, 3, 50, 0
6, 11819, Note_on_c, 3, 57, 0
6, 11819, Note_on_c, 3, 62, 0
6, 11820, Note_on_c, 3, 64, 127
6, 11820, Note_on_c, 3, 59, 127
6, 11820, Note_on_c, 3, 52, 127
6, 11939, Note_on_c, 3, 52, 0
6, 11939, Note_on_c, 3, 59, 0
6, 11939, Note_on_c, 3, 64, 0
6, 11940, Note_on_c, 3, 59, 127
6, 11940, Note_on_c, 3, 54, 127
6, 11940, Note_on_c, 3, 47, 127
6, 11999, Note_on_c, 3, 47, 0
6, 11999, Note_on_c, 3, 54, 0
6, 11999, Note_on_c, 3, 59, 0
6, 12000, Note_on_c, 3, 59, 127
6, 12000, Note_on_c, 3, 54, 127
6, 12000, Note_on_c, 3, 47, 127
6, 12179, Note_on_c, 3, 47, 0
6, 12179, Note_on_c, 3, 54, 0
6, 12179, Note_on_c, 3, 59, 0
6, 12180, Note_on_c, 3, 60, 127
6, 12180, Note_on_c, 3, 55, 127
6, 12180, Note_on_c, 3, 48, 127
6, 12299, Note_on_c, 3, 48, 0
6, 12299, Note_on_c, 3, 55, 0
6, 12299, Note_on_c, 3, 60, 0
6, 12300, Note_on_c, 3, 62, 127
6, 12300, Note_on_c, 3, 57, 127
6, 12300, Note_on_c, 3, 50, 127
6, 12419, Note_on_c, 3, 50, 0
6, 12419, Note_on_c, 3, 57, 0
6, 12419, Note_on_c, 3, 62, 0
6, 12420, Note_on_c, 3, 55, 127
6, 12420, Note_on_c, 3, 50, 127
6, 12420, Note_on_c, 3, 43, 127
6, 12479, Note_on_c, 3, 43, 0
6, 12479, Note_on_c, 3, 50, 0
6, 12479, Note_on_c, 3, 55, 0
6, 12480, Note_on_c, 3, 55, 127
6, 12480, Note_on_c, 3, 50, 127
6, 12480, Note_on_c, 3, 43, 127
6, 12480, Control_c, 3, 7, 127
6, 12489, Control_c, 3, 7, 126
6, 12496, Control_c, 3, 7, 125
6, 12503, Control_c, 3, 7, 124
6, 12512, Control_c, 3, 7, 123
6, 12519, Control_c, 3, 7, 122
6, 12526, Control_c, 3, 7, 121
6, 12533, Control_c, 3, 7, 120
6, 12542, Control_c, 3, 7, 119
6, 12549, Control_c, 3, 7, 118
6, 12556, Control_c, 3, 7, 117
6, 12565, Control_c, 3, 7, 116
6, 12572, Control_c, 3, 7, 115
6, 12579, Control_c, 3, 7, 114
6, 12586, Control_c, 3, 7, 113
6, 12595, Control_c, 3, 7, 112
6, 12602, Control_c, 3, 7, 111
6, 12609, Control_c, 3, 7, 110
6, 12616, Control_c, 3, 7, 109
6, 12625, Control_c, 3, 7, 108
6, 12632, Control_c, 3, 7, 107
6, 12639, Control_c, 3, 7, 106
6, 12648, Control_c, 3, 7, 105
6, 12655, Control_c, 3, 7, 104
6, 12662, Control_c, 3, 7, 103
6, 12669, Control_c, 3, 7, 102
6, 12678, Control_c, 3, 7, 101
6, 12685, Control_c, 3, 7, 100
6, 12692, Control_c, 3, 7, 99
6, 12699, Control_c, 3, 7, 98
6, 12708, Control_c, 3, 7, 97
6, 12715, Control_c, 3, 7, 96
6, 12722, Control_c, 3, 7, 95
6, 12730, Control_c, 3, 7, 94
6, 12738, Control_c, 3, 7, 93
6, 12745, Control_c, 3, 7, 92
6, 12752, Control_c, 3, 7, 91
6, 12760, Control_c, 3, 7, 90
6, 12768, Control_c, 3, 7, 89
6, 12775, Control_c, 3, 7, 88
6, 12783, Control_c, 3, 7, 87
6, 12790, Control_c, 3, 7, 86
6, 12798, Control_c, 3, 7, 85
6, 12805, Control_c, 3, 7, 84
6, 12813, Control_c, 3, 7, 83
6, 12820, Control_c, 3, 7, 82
6, 12828, Control_c, 3, 7, 81
6, 12835, Control_c, 3, 7, 80
6, 12843, Control_c, 3, 7, 79
6, 12850, Control_c, 3, 7, 78
6, 12858, Control_c, 3, 7, 77
6, 12866, Control_c, 3, 7, 76
6, 12873, Control_c, 3, 7, 75
6, 12880, Control_c, 3, 7, 74
6, 12888, Control_c, 3, 7, 73
6, 12896, Control_c, 3, 7, 72
6, 12903, Control_c, 3, 7, 71
6, 12910, Control_c, 3, 7, 70
6, 12918, Control_c, 3, 7, 69
6, 12926, Control_c, 3, 7, 68
6, 12933, Control_c, 3, 7, 67
6, 12940, Control_c, 3, 7, 66
6, 12949, Control_c, 3, 7, 65
6, 12956, Control_c, 3, 7, 64
6, 12963, Control_c, 3, 7, 63
6, 12970, Control_c, 3, 7, 62
6, 12979, Control_c, 3, 7, 61
6, 12986, Control_c, 3, 7, 60
6, 12993, Control_c, 3, 7, 59
6, 13002, Control_c, 3, 7, 58
6, 13009, Control_c, 3, 7, 57
6, 13016, Control_c, 3, 7, 56
6, 13023, Control_c, 3, 7, 55
6, 13032, Control_c, 3, 7, 54
6, 13039, Control_c, 3, 7, 53
6, 13046, Control_c, 3, 7, 52
6, 13053, Control_c, 3, 7, 51
6, 13062, Control_c, 3, 7, 50
6, 13069, Control_c, 3, 7, 49
6, 13076, Control_c, 3, 7, 48
6, 13085, Control_c, 3, 7, 47
6, 13092, Control_c, 3, 7, 46
6, 13099, Control_c, 3, 7, 45
6, 13106, Control_c, 3, 7, 44
6, 13115, Control_c, 3, 7, 43
6, 13122, Control_c, 3, 7, 42
6, 13129, Control_c, 3, 7, 41
6, 13136, Control_c, 3, 7, 40
6, 13145, Control_c, 3, 7, 39
6, 13152, Control_c, 3, 7, 38
6, 13159, Control_c, 3, 7, 37
6, 13168, Control_c, 3, 7, 36
6, 13175, Control_c, 3, 7, 35
6, 13182, Control_c, 3, 7, 34
6, 13189, Control_c, 3, 7, 33
6, 13198, Control_c, 3, 7, 32
6, 13205, Control_c, 3, 7, 31
6, 13212, Control_c, 3, 7, 30
6, 13220, Control_c, 3, 7, 29
6, 13228, Control_c, 3, 7, 28
6, 13235, Control_c, 3, 7, 27
6, 13242, Control_c, 3, 7, 26
6, 13250, Control_c, 3, 7, 25
6, 13258, Control_c, 3, 7, 24
6, 13265, Control_c, 3, 7, 23
6, 13272, Control_c, 3, 7, 22
6, 13280, Control_c, 3, 7, 21
6, 13288, Control_c, 3, 7, 20
6, 13295, Control_c, 3, 7, 19
6, 13303, Control_c, 3, 7, 18
6, 13310, Control_c, 3, 7, 17
6, 13318, Control_c, 3, 7, 16
6, 13325, Control_c, 3, 7, 15
6, 13333, Control_c, 3, 7, 14
6, 13340, Control_c, 3, 7, 13
6, 13348, Control_c, 3, 7, 12
6, 13355, Control_c, 3, 7, 11
6, 13363, Control_c, 3, 7, 10
6, 13370, Control_c, 3, 7, 9
6, 13378, Control_c, 3, 7, 8
6, 13386, Control_c, 3, 7, 7
6, 13393, Control_c, 3, 7, 6
6, 13400, Control_c, 3, 7, 5
6, 13408, Control_c, 3, 7, 4
6, 13416, Control_c, 3, 7, 3
6, 13423, Control_c, 3, 7, 2
6, 13430, Control_c, 3, 7, 1
6, 13438, Control_c, 3, 7, 0
6, 13439, Note_on_c, 3, 43, 0
6, 13439, Note_on_c, 3, 50, 0
6, 13439, Note_on_c, 3, 55, 0
6, 13440, Control_c, 3, 7, 127
6, 18240, Note_on_c, 3, 67, 100
6, 19199, Note_on_c, 3, 67, 0
6, 19200, Note_on_c, 3, 67, 100
6, 19200, Note_on_c, 3, 74, 80
6, 20159, Note_on_c, 3, 74, 0
6, 20159, Note_on_c, 3, 67, 0
6, 20160, Note_on_c, 3, 67, 100
6, 21119, Note_on_c, 3, 67, 0
6, 21120, Note_on_c, 3, 55, 127
6, 21120, Note_on_c, 3, 50, 127
6, 21120, Note_on_c, 3, 43, 127
6, 21299, Note_on_c, 3, 43, 0
6, 21299, Note_on_c, 3, 50, 0
6, 21299, Note_on_c, 3, 55, 0
6, 21300, Note_on_c, 3, 62, 127
6, 21300, Note_on_c, 3, 57, 127
6, 21300, Note_on_c, 3, 50, 127
6, 21419, Note_on_c, 3, 50, 0
6, 21419, Note_on_c, 3, 57, 0
6, 21419, Note_on_c, 3, 62, 0
6, 21420, Note_on_c, 3, 64, 127
6, 21420, Note_on_c, 3, 59, 127
6, 21420, Note_on_c, 3, 52, 127
6, 21539, Note_on_c, 3, 52, 0
6, 21539, Note_on_c, 3, 59, 0
6, 21539, Note_on_c, 3, 64, 0
6, 21540, Note_on_c, 3, 59, 127
6, 21540, Note_on_c, 3, 54, 127
6, 21540, Note_on_c, 3, 47, 127
6, 21599, Note_on_c, 3, 47, 0
6, 21599, Note_on_c, 3, 54, 0
6, 21599, Note_on_c, 3, 59, 0
6, 21600, Note_on_c, 3, 59, 127
6, 21600, Note_on_c, 3, 54, 127
6, 21600, Note_on_c, 3, 47, 127
6, 21779, Note_on_c, 3, 47, 0
6, 21779, Note_on_c, 3, 54, 0
6, 21779, Note_on_c, 3, 59, 0
6, 21780, Note_on_c, 3, 60, 127
6, 21780, Note_on_c, 3, 55, 127
6, 21780, Note_on_c, 3, 48, 127
6, 21899, Note_on_c, 3, 48, 0
6, 21899, Note_on_c, 3, 55, 0
6, 21899, Note_on_c, 3, 60, 0
6, 21900, Note_on_c, 3, 62, 127
6, 21900, Note_on_c, 3, 57, 127
6, 21900, Note_on_c, 3, 50, 127
6, 22019, Note_on_c, 3, 50, 0
6, 22019, Note_on_c, 3, 57, 0
6, 22019, Note_on_c, 3, 62, 0
6, 22020, Note_on_c, 3, 55, 127
6, 22020, Note_on_c, 3, 50, 127
6, 22020, Note_on_c, 3, 43, 127
6, 22079, Note_on_c, 3, 43, 0
6, 22079, Note_on_c, 3, 50, 0
6, 22079, Note_on_c, 3, 55, 0
6, 22080, Note_on_c, 3, 55, 127
6, 22080, Note_on_c, 3, 50, 127
6, 22080, Note_on_c, 3, 43, 127
6, 22259, Note_on_c, 3, 43, 0
6, 22259, Note_on_c, 3, 50, 0
6, 22259, Note_on_c, 3, 55, 0
6, 22260, Note_on_c, 3, 62, 127
6, 22260, Note_on_c, 3, 57, 127
6, 22260, Note_on_c, 3, 50, 127
6, 22379, Note_on_c, 3, 50, 0
6, 22379, Note_on_c, 3, 57, 0
6, 22379, Note_on_c, 3, 62, 0
6, 22380, Note_on_c, 3, 64, 127
6, 22380, Note_on_c, 3, 59, 127
6, 22380, Note_on_c, 3, 52, 127
6, 22499, Note_on_c, 3, 52, 0
6, 22499, Note_on_c, 3, 59, 0
6, 22499, Note_on_c, 3, 64, 0
6, 22500, Note_on_c, 3, 59, 127
6, 22500, Note_on_c, 3, 54, 127
6, 22500, Note_on_c, 3, 47, 127
6, 22559, Note_on_c, 3, 47, 0
6, 22559, Note_on_c, 3, 54, 0
6, 22559, Note_on_c, 3, 59, 0
6, 22560, Note_on_c, 3, 59, 127
6, 22560, Note_on_c, 3, 54, 127
6, 22560, Note_on_c, 3, 47, 127
6, 22739, Note_on_c, 3, 47, 0
6, 22739, Note_on_c, 3, 54, 0
6, 22739, Note_on_c, 3, 59, 0
6, 22740, Note_on_c, 3, 60, 127
6, 22740, Note_on_c, 3, 55, 127
6, 22740, Note_on_c, 3, 48, 127
6, 22859, Note_on_c, 3, 48, 0
6, 22859, Note_on_c, 3, 55, 0
6, 22859, Note_on_c, 3, 60, 0
6, 22860, Note_on_c, 3, 62, 127
6, 22860, Note_on_c, 3, 57, 127
6, 22860, Note_on_c, 3, 50, 127
6, 22979, Note_on_c, 3, 50, 0
6, 22979, Note_on_c, 3, 57, 0
6, 22979, Note_on_c, 3, 62, 0
6, 22980, Note_on_c, 3, 55, 127
6, 22980, Note_on_c, 3, 50, 127
6, 22980, Note_on_c, 3, 43, 127
6, 23039, Note_on_c, 3, 43, 0
6, 23039, Note_on_c, 3, 50, 0
6, 23039, Note_on_c, 3, 55, 0
6, 23040, Note_on_c, 3, 55, 127
6, 23040, Note_on_c, 3, 50, 127
6, 23040, Note_on_c, 3, 43, 127
6, 23219, Note_on_c, 3, 43, 0
6, 23219, Note_on_c, 3, 50, 0
6, 23219, Note_on_c, 3, 55, 0
6, 23220, Note_on_c, 3, 62, 127
6, 23220, Note_on_c, 3, 57, 127
6, 23220, Note_on_c, 3, 50, 127
6, 23339, Note_on_c, 3, 50, 0
6, 23339, Note_on_c, 3, 57, 0
6, 23339, Note_on_c, 3, 62, 0
6, 23340, Note_on_c, 3, 64, 127
6, 23340, Note_on_c, 3, 59, 127
6, 23340, Note_on_c, 3, 52, 127
6, 23459, Note_on_c, 3, 52, 0
6, 23459, Note_on_c, 3, 59, 0
6, 23459, Note_on_c, 3, 64, 0
6, 23460, Note_on_c, 3, 59, 127
6, 23460, Note_on_c, 3, 54, 127
6, 23460, Note_on_c, 3, 47, 127
6, 23519, Note_on_c, 3, 47, 0
6, 23519, Note_on_c, 3, 54, 0
6, 23519, Note_on_c, 3, 59, 0
6, 23520, Note_on_c, 3, 59, 127
6, 23520, Note_on_c, 3, 54, 127
6, 23520, Note_on_c, 3, 47, 127
6, 23699, Note_on_c, 3, 47, 0
6, 23699, Note_on_c, 3, 54, 0
6, 23699, Note_on_c, 3, 59, 0
6, 23700, Note_on_c, 3, 60, 127
6, 23700, Note_on_c, 3, 55, 127
6, 23700, Note_on_c, 3, 48, 127
6, 23819, Note_on_c, 3, 48, 0
6, 23819, Note_on_c, 3, 55, 0
6, 23819, Note_on_c, 3, 60, 0
6, 23820, Note_on_c, 3, 62, 127
6, 23820, Note_on_c, 3, 57, 127
6, 23820, Note_on_c, 3, 50, 127
6, 23939, Note_on_c, 3, 50, 0
6, 23939, Note_on_c, 3, 57, 0
6, 23939, Note_on_c, 3, 62, 0
6, 23940, Note_on_c, 3, 55, 127
6, 23940, Note_on_c, 3, 50, 127
6, 23940, Note_on_c, 3, 43, 127
6, 23999, Note_on_c, 3, 43, 0
6, 23999, Note_on_c, 3, 50, 0
6, 23999, Note_on_c, 3, 55, 0
6, 24000, Note_on_c, 3, 55, 127
6, 24000, Note_on_c, 3, 50, 127
6, 24000, Note_on_c, 3, 43, 127
6, 24179, Note_on_c, 3, 43, 0
6, 24179, Note_on_c, 3, 50, 0
6, 24179, Note_on_c, 3, 55, 0
6, 24180, Note_on_c, 3, 62, 127
6, 24180, Note_on_c, 3, 57, 127
6, 24180, Note_on_c, 3, 50, 127
6, 24299, Note_on_c, 3, 50, 0
6, 24299, Note_on_c, 3, 57, 0
6, 24299, Note_on_c, 3, 62, 0
6, 24300, Note_on_c, 3, 64, 127
6, 24300, Note_on_c, 3, 59, 127
6, 24300, Note_on_c, 3, 52, 127
6, 24419, Note_on_c, 3, 52, 0
6, 24419, Note_on_c, 3, 59, 0
6, 24419, Note_on_c, 3, 64, 0
6, 24420, Note_on_c, 3, 59, 127
6, 24420, Note_on_c, 3, 54, 127
6, 24420, Note_on_c, 3, 47, 127
6, 24479, Note_on_c, 3, 47, 0
6, 24479, Note_on_c, 3, 54, 0
6, 24479, Note_on_c, 3, 59, 0
6, 24480, Note_on_c, 3, 59, 127
6, 24480, Note_on_c, 3, 54, 127
6, 24480, Note_on_c, 3, 47, 127
6, 24659, Note_on_c, 3, 47, 0
6, 24659, Note_on_c, 3, 54, 0
6, 24659, Note_on_c, 3, 59, 0
6, 24660, Note_on_c, 3, 60, 127
6, 24660, Note_on_c, 3, 55, 127
6, 24660, Note_on_c, 3, 48, 127
6, 24779, Note_on_c, 3, 48, 0
6, 24779, Note_on_c, 3, 55, 0
6, 24779, Note_on_c, 3, 60, 0
6, 24780, Note_on_c, 3, 62, 127
6, 24780, Note_on_c, 3, 57, 127
6, 24780, Note_on_c, 3, 50, 127
6, 24899, Note_on_c, 3, 50, 0
6, 24899, Note_on_c, 3, 57, 0
6, 24899, Note_on_c, 3, 62, 0
6, 24900, Note_on_c, 3, 55, 127
6, 24900, Note_on_c, 3, 50, 127
6, 24900, Note_on_c, 3, 43, 127
6, 24959, Note_on_c, 3, 43, 0
6, 24959, Note_on_c, 3, 50, 0
6, 24959, Note_on_c, 3, 55, 0
6, 26880, Note_on_c, 3, 55, 127
6, 26880, Note_on_c, 3, 50, 127
6, 26880, Note_on_c, 3, 43, 127
6, 26939, Note_on_c, 3, 43, 0
6, 26939, Note_on_c, 3, 50, 0
6, 26939, Note_on_c, 3, 55, 0
6, 26940, Note_on_c, 3, 43, 127
6, 26940, Note_on_c, 3, 55, 127
6, 26940, Note_on_c, 3, 50, 127
6, 26999, Note_on_c, 3, 50, 0
6, 26999, Note_on_c, 3, 55, 0
6, 26999, Note_on_c, 3, 43, 0
6, 27000, Note_on_c, 3, 43, 127
6, 27000, Note_on_c, 3, 55, 127
6, 27000, Note_on_c, 3, 50, 127
6, 27059, Note_on_c, 3, 50, 0
6, 27059, Note_on_c, 3, 55, 0
6, 27059, Note_on_c, 3, 43, 0
6, 27060, Note_on_c, 3, 43, 127
6, 27060, Note_on_c, 3, 55, 127
6, 27060, Note_on_c, 3, 50, 127
6, 27119, Note_on_c, 3, 50, 0
6, 27119, Note_on_c, 3, 55, 0
6, 27119, Note_on_c, 3, 43, 0
6, 27120, Note_on_c, 3, 43, 127
6, 27120, Note_on_c, 3, 55, 127
6, 27120, Note_on_c, 3, 50, 127
6, 27179, Note_on_c, 3, 50, 0
6, 27179, Note_on_c, 3, 55, 0
6, 27179, Note_on_c, 3, 43, 0
6, 27180, Note_on_c, 3, 43, 127
6, 27180, Note_on_c, 3, 55, 127
6, 27180, Note_on_c, 3, 50, 127
6, 27239, Note_on_c, 3, 50, 0
6, 27239, Note_on_c, 3, 55, 0
6, 27239, Note_on_c, 3, 43, 0
6, 27240, Note_on_c, 3, 43, 127
6, 27240, Note_on_c, 3, 55, 127
6, 27240, Note_on_c, 3, 50, 127
6, 27299, Note_on_c, 3, 50, 0
6, 27299, Note_on_c, 3, 55, 0
6, 27299, Note_on_c, 3, 43, 0
6, 27300, Note_on_c, 3, 43, 127
6, 27300, Note_on_c, 3, 55, 127
6, 27300, Note_on_c, 3, 50, 127
6, 27359, Note_on_c, 3, 50, 0
6, 27359, Note_on_c, 3, 55, 0
6, 27359, Note_on_c, 3, 43, 0
6, 27360, Note_on_c, 3, 64, 127
6, 27360, Note_on_c, 3, 59, 127
6, 27360, Note_on_c, 3, 52, 127
6, 27419, Note_on_c, 3, 52, 0
6, 27419, Note_on_c, 3, 59, 0
6, 27419, Note_on_c, 3, 64, 0
6, 27420, Note_on_c, 3, 52, 127
6, 27420, Note_on_c, 3, 59, 127
6, 27420, Note_on_c, 3, 64, 127
6, 27479, Note_on_c, 3, 64, 0
6, 27479, Note_on_c, 3, 59, 0
6, 27479, Note_on_c, 3, 52, 0
6, 27480, Note_on_c, 3, 52, 127
6, 27480, Note_on_c, 3, 59, 127
6, 27480, Note_on_c, 3, 64, 127
6, 27539, Note_on_c, 3, 64, 0
6, 27539, Note_on_c, 3, 59, 0
6, 27539, Note_on_c, 3, 52, 0
6, 27540, Note_on_c, 3, 52, 127
6, 27540, Note_on_c, 3, 59, 127
6, 27540, Note_on_c, 3, 64, 127
6, 27599, Note_on_c, 3, 64, 0
6, 27599, Note_on_c, 3, 59, 0
6, 27599, Note_on_c, 3, 52, 0
6, 27600, Note_on_c, 3, 62, 127
6, 27600, Note_on_c, 3, 57, 127
6, 27600, Note_on_c, 3, 50, 127
6, 27659, Note_on_c, 3, 50, 0
6, 27659, Note_on_c, 3, 57, 0
6, 27659, Note_on_c, 3, 62, 0
6, 27660, Note_on_c, 3, 62, 127
6, 27660, Note_on_c, 3, 57, 127
6, 27660, Note_on_c, 3, 50, 127
6, 27719, Note_on_c, 3, 50, 0
6, 27719, Note_on_c, 3, 57, 0
6, 27719, Note_on_c, 3, 62, 0
6, 27720, Note_on_c, 3, 62, 127
6, 27720, Note_on_c, 3, 57, 127
6, 27720, Note_on_c, 3, 50, 127
6, 27779, Note_on_c, 3, 50, 0
6, 27779, Note_on_c, 3, 57, 0
6, 27779, Note_on_c, 3, 62, 0
6, 27780, Note_on_c, 3, 62, 127
6, 27780, Note_on_c, 3, 57, 127
6, 27780, Note_on_c, 3, 50, 127
6, 27839, Note_on_c, 3, 50, 0
6, 27839, Note_on_c, 3, 57, 0
6, 27839, Note_on_c, 3, 62, 0
6, 27840, Note_on_c, 3, 55, 127
6, 27840, Note_on_c, 3, 50, 127
6, 27840, Note_on_c, 3, 43, 127
6, 27899, Note_on_c, 3, 43, 0
6, 27899, Note_on_c, 3, 50, 0
6, 27899, Note_on_c, 3, 55, 0
6, 27900, Note_on_c, 3, 43, 127
6, 27900, Note_on_c, 3, 55, 127
6, 27900, Note_on_c, 3, 50, 127
6, 27959, Note_on_c, 3, 50, 0
6, 27959, Note_on_c, 3, 55, 0
6, 27959, Note_on_c, 3, 43, 0
6, 27960, Note_on_c, 3, 43, 127
6, 27960, Note_on_c, 3, 55, 127
6, 27960, Note_on_c, 3, 50, 127
6, 28019, Note_on_c, 3, 50, 0
6, 28019, Note_on_c, 3, 55, 0
6, 28019, Note_on_c, 3, 43, 0
6, 28020, Note_on_c, 3, 43, 127
6, 28020, Note_on_c, 3, 55, 127
6, 28020, Note_on_c, 3, 50, 127
6, 28079, Note_on_c, 3, 50, 0
6, 28079, Note_on_c, 3, 55, 0
6, 28079, Note_on_c, 3, 43, 0
6, 28080, Note_on_c, 3, 43, 127
6, 28080, Note_on_c, 3, 55, 127
6, 28080, Note_on_c, 3, 50, 127
6, 28139, Note_on_c, 3, 50, 0
6, 28139, Note_on_c, 3, 55, 0
6, 28139, Note_on_c, 3, 43, 0
6, 28140, Note_on_c, 3, 43, 127
6, 28140, Note_on_c, 3, 55, 127
6, 28140, Note_on_c, 3, 50, 127
6, 28199, Note_on_c, 3, 50, 0
6, 28199, Note_on_c, 3, 55, 0
6, 28199, Note_on_c, 3, 43, 0
6, 28200, Note_on_c, 3, 43, 127
6, 28200, Note_on_c, 3, 55, 127
6, 28200, Note_on_c, 3, 50, 127
6, 28259, Note_on_c, 3, 50, 0
6, 28259, Note_on_c, 3, 55, 0
6, 28259, Note_on_c, 3, 43, 0
6, 28260, Note_on_c, 3, 43, 127
6, 28260, Note_on_c, 3, 55, 127
6, 28260, Note_on_c, 3, 50, 127
6, 28319, Note_on_c, 3, 50, 0
6, 28319, Note_on_c, 3, 55, 0
6, 28319, Note_on_c, 3, 43, 0
6, 28320, Note_on_c, 3, 64, 127
6, 28320, Note_on_c, 3, 59, 127
6, 28320, Note_on_c, 3, 52, 127
6, 28379, Note_on_c, 3, 52, 0
6, 28379, Note_on_c, 3, 59, 0
6, 28379, Note_on_c, 3, 64, 0
6, 28380, Note_on_c, 3, 52, 127
6, 28380, Note_on_c, 3, 59, 127
6, 28380, Note_on_c, 3, 64, 127
6, 28439, Note_on_c, 3, 64, 0
6, 28439, Note_on_c, 3, 59, 0
6, 28439, Note_on_c, 3, 52, 0
6, 28440, Note_on_c, 3, 52, 127
6, 28440, Note_on_c, 3, 59, 127
6, 28440, Note_on_c, 3, 64, 127
6, 28499, Note_on_c, 3, 64, 0
6, 28499, Note_on_c, 3, 59, 0
6, 28499, Note_on_c, 3, 52, 0
6, 28500, Note_on_c, 3, 52, 127
6, 28500, Note_on_c, 3, 59, 127
6, 28500, Note_on_c, 3, 64, 127
6, 28559, Note_on_c, 3, 64, 0
6, 28559, Note_on_c, 3, 59, 0
6, 28559, Note_on_c, 3, 52, 0
6, 28560, Note_on_c, 3, 62, 127
6, 28560, Note_on_c, 3, 57, 127
6, 28560, Note_on_c, 3, 50, 127
6, 28619, Note_on_c, 3, 50, 0
6, 28619, Note_on_c, 3, 57, 0
6, 28619, Note_on_c, 3, 62, 0
6, 28620, Note_on_c, 3, 62, 127
6, 28620, Note_on_c, 3, 57, 127
6, 28620, Note_on_c, 3, 50, 127
6, 28679, Note_on_c, 3, 50, 0
6, 28679, Note_on_c, 3, 57, 0
6, 28679, Note_on_c, 3, 62, 0
6, 28680, Note_on_c, 3, 62, 127
6, 28680, Note_on_c, 3, 57, 127
6, 28680, Note_on_c, 3, 50, 127
6, 28739, Note_on_c, 3, 50, 0
6, 28739, Note_on_c, 3, 57, 0
6, 28739, Note_on_c, 3, 62, 0
6, 28740, Note_on_c, 3, 62, 127
6, 28740, Note_on_c, 3, 57, 127
6, 28740, Note_on_c, 3, 50, 127
6, 28799, Note_on_c, 3, 50, 0
6, 28799, Note_on_c, 3, 57, 0
6, 28799, Note_on_c, 3, 62, 0
6, 28800, Note_on_c, 3, 55, 127
6, 28800, Note_on_c, 3, 50, 127
6, 28800, Note_on_c, 3, 43, 127
6, 28859, Note_on_c, 3, 43, 0
6, 28859, Note_on_c, 3, 50, 0
6, 28859, Note_on_c, 3, 55, 0
6, 28860, Note_on_c, 3, 43, 127
6, 28860, Note_on_c, 3, 55, 127
6, 28860, Note_on_c, 3, 50, 127
6, 28919, Note_on_c, 3, 50, 0
6, 28919, Note_on_c, 3, 55, 0
6, 28919, Note_on_c, 3, 43, 0
6, 28920, Note_on_c, 3, 43, 127
6, 28920, Note_on_c, 3, 55, 127
6, 28920, Note_on_c, 3, 50, 127
6, 28979, Note_on_c, 3, 50, 0
6, 28979, Note_on_c, 3, 55, 0
6, 28979, Note_on_c, 3, 43, 0
6, 28980, Note_on_c, 3, 43, 127
6, 28980, Note_on_c, 3, 55, 127
6, 28980, Note_on_c, 3, 50, 127
6, 29039, Note_on_c, 3, 50, 0
6, 29039, Note_on_c, 3, 55, 0
6, 29039, Note_on_c, 3, 43, 0
6, 29040, Note_on_c, 3, 43, 127
6, 29040, Note_on_c, 3, 55, 127
6, 29040, Note_on_c, 3, 50, 127
6, 29099, Note_on_c, 3, 50, 0
6, 29099, Note_on_c, 3, 55, 0
6, 29099, Note_on_c, 3, 43, 0
6, 29100, Note_on_c, 3, 43, 127
6, 29100, Note_on_c, 3, 55, 127
6, 29100, Note_on_c, 3, 50, 127
6, 29159, Note_on_c, 3, 50, 0
6, 29159, Note_on_c, 3, 55, 0
6, 29159, Note_on_c, 3, 43, 0
6, 29160, Note_on_c, 3, 43, 127
6, 29160, Note_on_c, 3, 55, 127
6, 29160, Note_on_c, 3, 50, 127
6, 29219, Note_on_c, 3, 50, 0
6, 29219, Note_on_c, 3, 55, 0
6, 29219, Note_on_c, 3, 43, 0
6, 29220, Note_on_c, 3, 43, 127
6, 29220, Note_on_c, 3, 55, 127
6, 29220, Note_on_c, 3, 50, 127
6, 29279, Note_on_c, 3, 50, 0
6, 29279, Note_on_c, 3, 55, 0
6, 29279, Note_on_c, 3, 43, 0
6, 29280, Note_on_c, 3, 64, 127
6, 29280, Note_on_c, 3, 59, 127
6, 29280, Note_on_c, 3, 52, 127
6, 29339, Note_on_c, 3, 52, 0
6, 29339, Note_on_c, 3, 59, 0
6, 29339, Note_on_c, 3, 64, 0
6, 29340, Note_on_c, 3, 52, 127
6, 29340, Note_on_c, 3, 59, 127
6, 29340, Note_on_c, 3, 64, 127
6, 29399, Note_on_c, 3, 64, 0
6, 29399, Note_on_c, 3, 59, 0
6, 29399, Note_on_c, 3, 52, 0
6, 29400, Note_on_c, 3, 52, 127
6, 29400, Note_on_c, 3, 59, 127
6, 29400, Note_on_c, 3, 64, 127
6, 29459, Note_on_c, 3, 64, 0
6, 29459, Note_on_c, 3, 59, 0
6, 29459, Note_on_c, 3, 52, 0
6, 29460, Note_on_c, 3, 52, 127
6, 29460, Note_on_c, 3, 59, 127
6, 29460, Note_on_c, 3, 64, 127
6, 29519, Note_on_c, 3, 64, 0
6, 29519, Note_on_c, 3, 59, 0
6, 29519, Note_on_c, 3, 52, 0
6, 29520, Note_on_c, 3, 62, 127
6, 29520, Note_on_c, 3, 57, 127
6, 29520, Note_on_c, 3, 50, 127
6, 29579, Note_on_c, 3, 50, 0
6, 29579, Note_on_c, 3, 57, 0
6, 29579, Note_on_c, 3, 62, 0
6, 29580, Note_on_c, 3, 62, 127
6, 29580, Note_on_c, 3, 57, 127
6, 29580, Note_on_c, 3, 50, 127
6, 29639, Note_on_c, 3, 50, 0
6, 29639, Note_on_c, 3, 57, 0
6, 29639, Note_on_c, 3, 62, 0
6, 29640, Note_on_c, 3, 62, 127
6, 29640, Note_on_c, 3, 57, 127
6, 29640, Note_on_c, 3, 50, 127
6, 29699, Note_on_c, 3, 50, 0
6, 29699, Note_on_c, 3, 57, 0
6, 29699, Note_on_c, 3, 62, 0
6, 29700, Note_on_c, 3, 62, 127
6, 29700, Note_on_c, 3, 57, 127
6, 29700, Note_on_c, 3, 50, 127
6, 29759, Note_on_c, 3, 50, 0
6, 29759, Note_on_c, 3, 57, 0
6, 29759, Note_on_c, 3, 62, 0
6, 29760, Note_on_c, 3, 55, 127
6, 29760, Note_on_c, 3, 50, 127
6, 29760, Note_on_c, 3, 43, 127
6, 29819, Note_on_c, 3, 43, 0
6, 29819, Note_on_c, 3, 50, 0
6, 29819, Note_on_c, 3, 55, 0
6, 29820, Note_on_c, 3, 43, 127
6, 29820, Note_on_c, 3, 55, 127
6, 29820, Note_on_c, 3, 50, 127
6, 29879, Note_on_c, 3, 50, 0
6, 29879, Note_on_c, 3, 55, 0
6, 29879, Note_on_c, 3, 43, 0
6, 29880, Note_on_c, 3, 43, 127
6, 29880, Note_on_c, 3, 55, 127
6, 29880, Note_on_c, 3, 50, 127
6, 29939, Note_on_c, 3, 50, 0
6, 29939, Note_on_c, 3, 55, 0
6, 29939, Note_on_c, 3, 43, 0
6, 29940, Note_on_c, 3, 43, 127
6, 29940, Note_on_c, 3, 55, 127
6, 29940, Note_on_c, 3, 50, 127
6, 29999, Note_on_c, 3, 50, 0
6, 29999, Note_on_c, 3, 55, 0
6, 29999, Note_on_c, 3, 43, 0
6, 30000, Note_on_c, 3, 43, 127
6, 30000, Note_on_c, 3, 55, 127
6, 30000, Note_on_c, 3, 50, 127
6, 30059, Note_on_c, 3, 50, 0
6, 30059, Note_on_c, 3, 55, 0
6, 30059, Note_on_c, 3, 43, 0
6, 30060, Note_on_c, 3, 43, 127
6, 30060, Note_on_c, 3, 55, 127
6, 30060, Note_on_c, 3, 50, 127
6, 30119, Note_on_c, 3, 50, 0
6, 30119, Note_on_c, 3, 55, 0
6, 30119, Note_on_c, 3, 43, 0
6, 30120, Note_on_c, 3, 43, 127
6, 30120, Note_on_c, 3, 55, 127
6, 30120, Note_on_c, 3, 50, 127
6, 30179, Note_on_c, 3, 50, 0
6, 30179, Note_on_c, 3, 55, 0
6, 30179, Note_on_c, 3, 43, 0
6, 30180, Note_on_c, 3, 43, 127
6, 30180, Note_on_c, 3, 55, 127
6, 30180, Note_on_c, 3, 50, 127
6, 30239, Note_on_c, 3, 50, 0
6, 30239, Note_on_c, 3, 55, 0
6, 30239, Note_on_c, 3, 43, 0
6, 30240, Note_on_c, 3, 64, 127
6, 30240, Note_on_c, 3, 59, 127
6, 30240, Note_on_c, 3, 52, 127
6, 30299, Note_on_c, 3, 52, 0
6, 30299, Note_on_c, 3, 59, 0
6, 30299, Note_on_c, 3, 64, 0
6, 30300, Note_on_c, 3, 52, 127
6, 30300, Note_on_c, 3, 59, 127
6, 30300, Note_on_c, 3, 64, 127
6, 30359, Note_on_c, 3, 64, 0
6, 30359, Note_on_c, 3, 59, 0
6, 30359, Note_on_c, 3, 52, 0
6, 30360, Note_on_c, 3, 52, 127
6, 30360, Note_on_c, 3, 59, 127
6, 30360, Note_on_c, 3, 64, 127
6, 30419, Note_on_c, 3, 64, 0
6, 30419, Note_on_c, 3, 59, 0
6, 30419, Note_on_c, 3, 52, 0
6, 30420, Note_on_c, 3, 52, 127
6, 30420, Note_on_c, 3, 59, 127
6, 30420, Note_on_c, 3, 64, 127
6, 30479, Note_on_c, 3, 64, 0
6, 30479, Note_on_c, 3, 59, 0
6, 30479, Note_on_c, 3, 52, 0
6, 30480, Note_on_c, 3, 62, 127
6, 30480, Note_on_c, 3, 57, 127
6, 30480, Note_on_c, 3, 50, 127
6, 30539, Note_on_c, 3, 50, 0
6, 30539, Note_on_c, 3, 57, 0
6, 30539, Note_on_c, 3, 62, 0
6, 30540, Note_on_c, 3, 62, 127
6, 30540, Note_on_c, 3, 57, 127
6, 30540, Note_on_c, 3, 50, 127
6, 30599, Note_on_c, 3, 50, 0
6, 30599, Note_on_c, 3, 57, 0
6, 30599, Note_on_c, 3, 62, 0
6, 30600, Note_on_c, 3, 62, 127
6, 30600, Note_on_c, 3, 57, 127
6, 30600, Note_on_c, 3, 50, 127
6, 30659, Note_on_c, 3, 50, 0
6, 30659, Note_on_c, 3, 57, 0
6, 30659, Note_on_c, 3, 62, 0
6, 30660, Note_on_c, 3, 62, 127
6, 30660, Note_on_c, 3, 57, 127
6, 30660, Note_on_c, 3, 50, 127
6, 30719, Note_on_c, 3, 50, 0
6, 30719, Note_on_c, 3, 57, 0
6, 30719, Note_on_c, 3, 62, 0
6, 30720, Note_on_c, 3, 55, 127
6, 30720, Note_on_c, 3, 50, 127
6, 30720, Note_on_c, 3, 43, 127
6, 32159, Note_on_c, 3, 43, 0
6, 32159, Note_on_c, 3, 50, 0
6, 32159, Note_on_c, 3, 55, 0
6, 32160, Note_on_c, 3, 67, 127
6, 32160, Note_on_c, 3, 62, 127
6, 32160, Pitch_bend_c, 3, 8960
6, 32163, Pitch_bend_c, 3, 9600
6, 32166, Pitch_bend_c, 3, 9728
6, 32170, Pitch_bend_c, 3, 9984
6, 32173, Pitch_bend_c, 3, 10112
6, 32176, Pitch_bend_c, 3, 10240
6, 32183, Pitch_bend_c, 3, 10368
6, 32190, Pitch_bend_c, 3, 10496
6, 32216, Pitch_bend_c, 3, 10368
6, 32220, Pitch_bend_c, 3, 10112
6, 32223, Pitch_bend_c, 3, 9984
6, 32226, Pitch_bend_c, 3, 9600
6, 32230, Pitch_bend_c, 3, 8320
6, 32233, Pitch_bend_c, 3, 8064
6, 32236, Pitch_bend_c, 3, 7808
6, 32240, Pitch_bend_c, 3, 7296
6, 32243, Pitch_bend_c, 3, 7040
6, 32246, Pitch_bend_c, 3, 6528
6, 32250, Pitch_bend_c, 3, 6272
6, 32253, Pitch_bend_c, 3, 6016
6, 32256, Pitch_bend_c, 3, 5888
6, 32260, Pitch_bend_c, 3, 5632
6, 32266, Pitch_bend_c, 3, 5504
6, 32270, Pitch_bend_c, 3, 7936
6, 32273, Pitch_bend_c, 3, 8064
6, 32276, Pitch_bend_c, 3, 8192
6, 32279, Note_on_c, 3, 62, 0
6, 32279, Note_on_c, 3, 67, 0
6, 32280, Note_on_c, 3, 69, 127
6, 32280, Note_on_c, 3, 64, 127
6, 32283, Pitch_bend_c, 3, 8960
6, 32286, Pitch_bend_c, 3, 9344
6, 32290, Pitch_bend_c, 3, 9728
6, 32293, Pitch_bend_c, 3, 10112
6, 32296, Pitch_bend_c, 3, 10368
6, 32320, Pitch_bend_c, 3, 10240
6, 32330, Pitch_bend_c, 3, 10112
6, 32333, Pitch_bend_c, 3, 9856
6, 32336, Pitch_bend_c, 3, 9472
6, 32340, Pitch_bend_c, 3, 8064
6, 32343, Pitch_bend_c, 3, 7680
6, 32346, Pitch_bend_c, 3, 7040
6, 32350, Pitch_bend_c, 3, 6784
6, 32353, Pitch_bend_c, 3, 6400
6, 32356, Pitch_bend_c, 3, 6272
6, 32360, Pitch_bend_c, 3, 6016
6, 32363, Pitch_bend_c, 3, 5632
6, 32366, Pitch_bend_c, 3, 5504
6, 32370, Pitch_bend_c, 3, 5248
6, 32383, Pitch_bend_c, 3, 5760
6, 32386, Pitch_bend_c, 3, 6400
6, 32390, Pitch_bend_c, 3, 8320
6, 32393, Pitch_bend_c, 3, 8832
6, 32396, Pitch_bend_c, 3, 9216
6, 32399, Note_on_c, 3, 64, 0
6, 32399, Note_on_c, 3, 69, 0
6, 32400, Note_on_c, 3, 71, 127
6, 32400, Note_on_c, 3, 66, 127
6, 32400, Pitch_bend_c, 3, 9472
6, 32403, Pitch_bend_c, 3, 9728
6, 32406, Pitch_bend_c, 3, 9856
6, 32410, Pitch_bend_c, 3, 10112
6, 32413, Pitch_bend_c, 3, 10240
6, 32420, Pitch_bend_c, 3, 10368
6, 32460, Pitch_bend_c, 3, 10240
6, 32463, Pitch_bend_c, 3, 10112
6, 32470, Pitch_bend_c, 3, 9856
6, 32473, Pitch_bend_c, 3, 9728
6, 32476, Pitch_bend_c, 3, 9216
6, 32480, Pitch_bend_c, 3, 6784
6, 32483, Pitch_bend_c, 3, 6016
6, 32486, Pitch_bend_c, 3, 5760
6, 32490, Pitch_bend_c, 3, 5632
6, 32493, Pitch_bend_c, 3, 5504
6, 32496, Pitch_bend_c, 3, 5376
6, 32500, Pitch_bend_c, 3, 5120
6, 32510, Pitch_bend_c, 3, 5248
6, 32513, Pitch_bend_c, 3, 5760
6, 32516, Pitch_bend_c, 3, 8064
6, 32519, Note_on_c, 3, 66, 0
6, 32519, Note_on_c, 3, 71, 0
6, 32520, Note_on_c, 3, 72, 127
6, 32520, Note_on_c, 3, 67, 127
6, 32520, Pitch_bend_c, 3, 8320
6, 32523, Pitch_bend_c, 3, 8576
6, 32526, Pitch_bend_c, 3, 8704
6, 32530, Pitch_bend_c, 3, 8960
6, 32533, Pitch_bend_c, 3, 9088
6, 32536, Pitch_bend_c, 3, 9344
6, 32540, Pitch_bend_c, 3, 9472
6, 32543, Pitch_bend_c, 3, 9600
6, 32546, Pitch_bend_c, 3, 9728
6, 32550, Pitch_bend_c, 3, 9856
6, 32553, Pitch_bend_c, 3, 9984
6, 32556, Pitch_bend_c, 3, 10112
6, 32563, Pitch_bend_c, 3, 10240
6, 32566, Pitch_bend_c, 3, 10368
6, 32583, Pitch_bend_c, 3, 10240
6, 32590, Pitch_bend_c, 3, 10112
6, 32593, Pitch_bend_c, 3, 9984
6, 32596, Pitch_bend_c, 3, 9728
6, 32603, Pitch_bend_c, 3, 9472
6, 32606, Pitch_bend_c, 3, 9344
6, 32610, Pitch_bend_c, 3, 9216
6, 32613, Pitch_bend_c, 3, 9088
6, 32616, Pitch_bend_c, 3, 8960
6, 32620, Pitch_bend_c, 3, 8704
6, 32623, Pitch_bend_c, 3, 8320
6, 32630, Pitch_bend_c, 3, 8192
6, 32636, Pitch_bend_c, 3, 8320
6, 32639, Note_on_c, 3, 67, 0
6, 32639, Note_on_c, 3, 72, 0
6, 32640, Note_on_c, 3, 55, 127
6, 32640, Note_on_c, 3, 50, 127
6, 32640, Note_on_c, 3, 43, 127
6, 32699, Note_on_c, 3, 43, 0
6, 32699, Note_on_c, 3, 50, 0
6, 32699, Note_on_c, 3, 55, 0
6, 32700, Note_on_c, 3, 43, 127
6, 32700, Note_on_c, 3, 55, 127
6, 32700, Note_on_c, 3, 50, 127
6, 32759, Note_on_c, 3, 50, 0
6, 32759, Note_on_c, 3, 55, 0
6, 32759, Note_on_c, 3, 43, 0
6, 32760, Note_on_c, 3, 43, 127
6, 32760, Note_on_c, 3, 55, 127
6, 32760, Note_on_c, 3, 50, 127
6, 32819, Note_on_c, 3, 50, 0
6, 32819, Note_on_c, 3, 55, 0
6, 32819, Note_on_c, 3, 43, 0
6, 32820, Note_on_c, 3, 43, 127
6, 32820, Note_on_c, 3, 55, 127
6, 32820, Note_on_c, 3, 50, 127
6, 32879, Note_on_c, 3, 50, 0
6, 32879, Note_on_c, 3, 55, 0
6, 32879, Note_on_c, 3, 43, 0
6, 32880, Note_on_c, 3, 43, 127
6, 32880, Note_on_c, 3, 55, 127
6, 32880, Note_on_c, 3, 50, 127
6, 32939, Note_on_c, 3, 50, 0
6, 32939, Note_on_c, 3, 55, 0
6, 32939, Note_on_c, 3, 43, 0
6, 32940, Note_on_c, 3, 43, 127
6, 32940, Note_on_c, 3, 55, 127
6, 32940, Note_on_c, 3, 50, 127
6, 32999, Note_on_c, 3, 50, 0
6, 32999, Note_on_c, 3, 55, 0
6, 32999, Note_on_c, 3, 43, 0
6, 33000, Note_on_c, 3, 43, 127
6, 33000, Note_on_c, 3, 55, 127
6, 33000, Note_on_c, 3, 50, 127
6, 33059, Note_on_c, 3, 50, 0
6, 33059, Note_on_c, 3, 55, 0
6, 33059, Note_on_c, 3, 43, 0
6, 33060, Note_on_c, 3, 43, 127
6, 33060, Note_on_c, 3, 55, 127
6, 33060, Note_on_c, 3, 50, 127
6, 33119, Note_on_c, 3, 50, 0
6, 33119, Note_on_c, 3, 55, 0
6, 33119, Note_on_c, 3, 43, 0
6, 33120, Note_on_c, 3, 64, 127
6, 33120, Note_on_c, 3, 59, 127
6, 33120, Note_on_c, 3, 52, 127
6, 33179, Note_on_c, 3, 52, 0
6, 33179, Note_on_c, 3, 59, 0
6, 33179, Note_on_c, 3, 64, 0
6, 33180, Note_on_c, 3, 52, 127
6, 33180, Note_on_c, 3, 59, 127
6, 33180, Note_on_c, 3, 64, 127
6, 33239, Note_on_c, 3, 64, 0
6, 33239, Note_on_c, 3, 59, 0
6, 33239, Note_on_c, 3, 52, 0
6, 33240, Note_on_c, 3, 52, 127
6, 33240, Note_on_c, 3, 59, 127
6, 33240, Note_on_c, 3, 64, 127
6, 33299, Note_on_c, 3, 64, 0
6, 33299, Note_on_c, 3, 59, 0
6, 33299, Note_on_c, 3, 52, 0
6, 33300, Note_on_c, 3, 52, 127
6, 33300, Note_on_c, 3, 59, 127
6, 33300, Note_on_c, 3, 64, 127
6, 33359, Note_on_c, 3, 64, 0
6, 33359, Note_on_c, 3, 59, 0
6, 33359, Note_on_c, 3, 52, 0
6, 33360, Note_on_c, 3, 62, 127
6, 33360, Note_on_c, 3, 57, 127
6, 33360, Note_on_c, 3, 50, 127
6, 33419, Note_on_c, 3, 50, 0
6, 33419, Note_on_c, 3, 57, 0
6, 33419, Note_on_c, 3, 62, 0
6, 33420, Note_on_c, 3, 62, 127
6, 33420, Note_on_c, 3, 57, 127
6, 33420, Note_on_c, 3, 50, 127
6, 33479, Note_on_c, 3, 50, 0
6, 33479, Note_on_c, 3, 57, 0
6, 33479, Note_on_c, 3, 62, 0
6, 33480, Note_on_c, 3, 62, 127
6, 33480, Note_on_c, 3, 57, 127
6, 33480, Note_on_c, 3, 50, 127
6, 33539, Note_on_c, 3, 50, 0
6, 33539, Note_on_c, 3, 57, 0
6, 33539, Note_on_c, 3, 62, 0
6, 33540, Note_on_c, 3, 62, 127
6, 33540, Note_on_c, 3, 57, 127
6, 33540, Note_on_c, 3, 50, 127
6, 33599, Note_on_c, 3, 50, 0
6, 33599, Note_on_c, 3, 57, 0
6, 33599, Note_on_c, 3, 62, 0
6, 33600, Note_on_c, 3, 55, 127
6, 33600, Note_on_c, 3, 50, 127
6, 33600, Note_on_c, 3, 43, 127
6, 33659, Note_on_c, 3, 43, 0
6, 33659, Note_on_c, 3, 50, 0
6, 33659, Note_on_c, 3, 55, 0
6, 33660, Note_on_c, 3, 43, 127
6, 33660, Note_on_c, 3, 55, 127
6, 33660, Note_on_c, 3, 50, 127
6, 33719, Note_on_c, 3, 50, 0
6, 33719, Note_on_c, 3, 55, 0
6, 33719, Note_on_c, 3, 43, 0
6, 33720, Note_on_c, 3, 43, 127
6, 33720, Note_on_c, 3, 55, 127
6, 33720, Note_on_c, 3, 50, 127
6, 33779, Note_on_c, 3, 50, 0
6, 33779, Note_on_c, 3, 55, 0
6, 33779, Note_on_c, 3, 43, 0
6, 33780, Note_on_c, 3, 43, 127
6, 33780, Note_on_c, 3, 55, 127
6, 33780, Note_on_c, 3, 50, 127
6, 33839, Note_on_c, 3, 50, 0
6, 33839, Note_on_c, 3, 55, 0
6, 33839, Note_on_c, 3, 43, 0
6, 33840, Note_on_c, 3, 43, 127
6, 33840, Note_on_c, 3, 55, 127
6, 33840, Note_on_c, 3, 50, 127
6, 33899, Note_on_c, 3, 50, 0
6, 33899, Note_on_c, 3, 55, 0
6, 33899, Note_on_c, 3, 43, 0
6, 33900, Note_on_c, 3, 43, 127
6, 33900, Note_on_c, 3, 55, 127
6, 33900, Note_on_c, 3, 50, 127
6, 33959, Note_on_c, 3, 50, 0
6, 33959, Note_on_c, 3, 55, 0
6, 33959, Note_on_c, 3, 43, 0
6, 33960, Note_on_c, 3, 43, 127
6, 33960, Note_on_c, 3, 55, 127
6, 33960, Note_on_c, 3, 50, 127
6, 34019, Note_on_c, 3, 50, 0
6, 34019, Note_on_c, 3, 55, 0
6, 34019, Note_on_c, 3, 43, 0
6, 34020, Note_on_c, 3, 43, 127
6, 34020, Note_on_c, 3, 55, 127
6, 34020, Note_on_c, 3, 50, 127
6, 34079, Note_on_c, 3, 50, 0
6, 34079, Note_on_c, 3, 55, 0
6, 34079, Note_on_c, 3, 43, 0
6, 34080, Note_on_c, 3, 64, 127
6, 34080, Note_on_c, 3, 59, 127
6, 34080, Note_on_c, 3, 52, 127
6, 34139, Note_on_c, 3, 52, 0
6, 34139, Note_on_c, 3, 59, 0
6, 34139, Note_on_c, 3, 64, 0
6, 34140, Note_on_c, 3, 52, 127
6, 34140, Note_on_c, 3, 59, 127
6, 34140, Note_on_c, 3, 64, 127
6, 34199, Note_on_c, 3, 64, 0
6, 34199, Note_on_c, 3, 59, 0
6, 34199, Note_on_c, 3, 52, 0
6, 34200, Note_on_c, 3, 52, 127
6, 34200, Note_on_c, 3, 59, 127
6, 34200, Note_on_c, 3, 64, 127
6, 34259, Note_on_c, 3, 64, 0
6, 34259, Note_on_c, 3, 59, 0
6, 34259, Note_on_c, 3, 52, 0
6, 34260, Note_on_c, 3, 52, 127
6, 34260, Note_on_c, 3, 59, 127
6, 34260, Note_on_c, 3, 64, 127
6, 34319, Note_on_c, 3, 64, 0
6, 34319, Note_on_c, 3, 59, 0
6, 34319, Note_on_c, 3, 52, 0
6, 34320, Note_on_c, 3, 62, 127
6, 34320, Note_on_c, 3, 57, 127
6, 34320, Note_on_c, 3, 50, 127
6, 34379, Note_on_c, 3, 50, 0
6, 34379, Note_on_c, 3, 57, 0
6, 34379, Note_on_c, 3, 62, 0
6, 34380, Note_on_c, 3, 62, 127
6, 34380, Note_on_c, 3, 57, 127
6, 34380, Note_on_c, 3, 50, 127
6, 34439, Note_on_c, 3, 50, 0
6, 34439, Note_on_c, 3, 57, 0
6, 34439, Note_on_c, 3, 62, 0
6, 34440, Note_on_c, 3, 62, 127
6, 34440, Note_on_c, 3, 57, 127
6, 34440, Note_on_c, 3, 50, 127
6, 34499, Note_on_c, 3, 50, 0
6, 34499, Note_on_c, 3, 57, 0
6, 34499, Note_on_c, 3, 62, 0
6, 34500, Note_on_c, 3, 62, 127
6, 34500, Note_on_c, 3, 57, 127
6, 34500, Note_on_c, 3, 50, 127
6, 34559, Note_on_c, 3, 50, 0
6, 34559, Note_on_c, 3, 57, 0
6, 34559, Note_on_c, 3, 62, 0
6, 34560, Note_on_c, 3, 55, 127
6, 34560, Note_on_c, 3, 50, 127
6, 34560, Note_on_c, 3, 43, 127
6, 34619, Note_on_c, 3, 43, 0
6, 34619, Note_on_c, 3, 50, 0
6, 34619, Note_on_c, 3, 55, 0
6, 34620, Note_on_c, 3, 43, 127
6, 34620, Note_on_c, 3, 55, 127
6, 34620, Note_on_c, 3, 50, 127
6, 34679, Note_on_c, 3, 50, 0
6, 34679, Note_on_c, 3, 55, 0
6, 34679, Note_on_c, 3, 43, 0
6, 34680, Note_on_c, 3, 43, 127
6, 34680, Note_on_c, 3, 55, 127
6, 34680, Note_on_c, 3, 50, 127
6, 34739, Note_on_c, 3, 50, 0
6, 34739, Note_on_c, 3, 55, 0
6, 34739, Note_on_c, 3, 43, 0
6, 34740, Note_on_c, 3, 43, 127
6, 34740, Note_on_c, 3, 55, 127
6, 34740, Note_on_c, 3, 50, 127
6, 34799, Note_on_c, 3, 50, 0
6, 34799, Note_on_c, 3, 55, 0
6, 34799, Note_on_c, 3, 43, 0
6, 34800, Note_on_c, 3, 43, 127
6, 34800, Note_on_c, 3, 55, 127
6, 34800, Note_on_c, 3, 50, 127
6, 34859, Note_on_c, 3, 50, 0
6, 34859, Note_on_c, 3, 55, 0
6, 34859, Note_on_c, 3, 43, 0
6, 34860, Note_on_c, 3, 43, 127
6, 34860, Note_on_c, 3, 55, 127
6, 34860, Note_on_c, 3, 50, 127
6, 34919, Note_on_c, 3, 50, 0
6, 34919, Note_on_c, 3, 55, 0
6, 34919, Note_on_c, 3, 43, 0
6, 34920, Note_on_c, 3, 43, 127
6, 34920, Note_on_c, 3, 55, 127
6, 34920, Note_on_c, 3, 50, 127
6, 34979, Note_on_c, 3, 50, 0
6, 34979, Note_on_c, 3, 55, 0
6, 34979, Note_on_c, 3, 43, 0
6, 34980, Note_on_c, 3, 43, 127
6, 34980, Note_on_c, 3, 55, 127
6, 34980, Note_on_c, 3, 50, 127
6, 35039, Note_on_c, 3, 50, 0
6, 35039, Note_on_c, 3, 55, 0
6, 35039, Note_on_c, 3, 43, 0
6, 35040, Note_on_c, 3, 64, 127
6, 35040, Note_on_c, 3, 59, 127
6, 35040, Note_on_c, 3, 52, 127
6, 35099, Note_on_c, 3, 52, 0
6, 35099, Note_on_c, 3, 59, 0
6, 35099, Note_on_c, 3, 64, 0
6, 35100, Note_on_c, 3, 52, 127
6, 35100, Note_on_c, 3, 59, 127
6, 35100, Note_on_c, 3, 64, 127
6, 35159, Note_on_c, 3, 64, 0
6, 35159, Note_on_c, 3, 59, 0
6, 35159, Note_on_c, 3, 52, 0
6, 35160, Note_on_c, 3, 52, 127
6, 35160, Note_on_c, 3, 59, 127
6, 35160, Note_on_c, 3, 64, 127
6, 35219, Note_on_c, 3, 64, 0
6, 35219, Note_on_c, 3, 59, 0
6, 35219, Note_on_c, 3, 52, 0
6, 35220, Note_on_c, 3, 52, 127
6, 35220, Note_on_c, 3, 59, 127
6, 35220, Note_on_c, 3, 64, 127
6, 35279, Note_on_c, 3, 64, 0
6, 35279, Note_on_c, 3, 59, 0
6, 35279, Note_on_c, 3, 52, 0
6, 35280, Note_on_c, 3, 62, 127
6, 35280, Note_on_c, 3, 57, 127
6, 35280, Note_on_c, 3, 50, 127
6, 35339, Note_on_c, 3, 50, 0
6, 35339, Note_on_c, 3, 57, 0
6, 35339, Note_on_c, 3, 62, 0
6, 35340, Note_on_c, 3, 62, 127
6, 35340, Note_on_c, 3, 57, 127
6, 35340, Note_on_c, 3, 50, 127
6, 35399, Note_on_c, 3, 50, 0
6, 35399, Note_on_c, 3, 57, 0
6, 35399, Note_on_c, 3, 62, 0
6, 35400, Note_on_c, 3, 62, 127
6, 35400, Note_on_c, 3, 57, 127
6, 35400, Note_on_c, 3, 50, 127
6, 35459, Note_on_c, 3, 50, 0
6, 35459, Note_on_c, 3, 57, 0
6, 35459, Note_on_c, 3, 62, 0
6, 35460, Note_on_c, 3, 62, 127
6, 35460, Note_on_c, 3, 57, 127
6, 35460, Note_on_c, 3, 50, 127
6, 35519, Note_on_c, 3, 50, 0
6, 35519, Note_on_c, 3, 57, 0
6, 35519, Note_on_c, 3, 62, 0
6, 35520, Note_on_c, 3, 55, 127
6, 35520, Note_on_c, 3, 50, 127
6, 35520, Note_on_c, 3, 43, 127
6, 35579, Note_on_c, 3, 43, 0
6, 35579, Note_on_c, 3, 50, 0
6, 35579, Note_on_c, 3, 55, 0
6, 35580, Note_on_c, 3, 43, 127
6, 35580, Note_on_c, 3, 55, 127
6, 35580, Note_on_c, 3, 50, 127
6, 35639, Note_on_c, 3, 50, 0
6, 35639, Note_on_c, 3, 55, 0
6, 35639, Note_on_c, 3, 43, 0
6, 35640, Note_on_c, 3, 43, 127
6, 35640, Note_on_c, 3, 55, 127
6, 35640, Note_on_c, 3, 50, 127
6, 35699, Note_on_c, 3, 50, 0
6, 35699, Note_on_c, 3, 55, 0
6, 35699, Note_on_c, 3, 43, 0
6, 35700, Note_on_c, 3, 43, 127
6, 35700, Note_on_c, 3, 55, 127
6, 35700, Note_on_c, 3, 50, 127
6, 35759, Note_on_c, 3, 50, 0
6, 35759, Note_on_c, 3, 55, 0
6, 35759, Note_on_c, 3, 43, 0
6, 35760, Note_on_c, 3, 43, 127
6, 35760, Note_on_c, 3, 55, 127
6, 35760, Note_on_c, 3, 50, 127
6, 35819, Note_on_c, 3, 50, 0
6, 35819, Note_on_c, 3, 55, 0
6, 35819, Note_on_c, 3, 43, 0
6, 35820, Note_on_c, 3, 43, 127
6, 35820, Note_on_c, 3, 55, 127
6, 35820, Note_on_c, 3, 50, 127
6, 35879, Note_on_c, 3, 50, 0
6, 35879, Note_on_c, 3, 55, 0
6, 35879, Note_on_c, 3, 43, 0
6, 35880, Note_on_c, 3, 43, 127
6, 35880, Note_on_c, 3, 55, 127
6, 35880, Note_on_c, 3, 50, 127
6, 35939, Note_on_c, 3, 50, 0
6, 35939, Note_on_c, 3, 55, 0
6, 35939, Note_on_c, 3, 43, 0
6, 35940, Note_on_c, 3, 43, 127
6, 35940, Note_on_c, 3, 55, 127
6, 35940, Note_on_c, 3, 50, 127
6, 35999, Note_on_c, 3, 50, 0
6, 35999, Note_on_c, 3, 55, 0
6, 35999, Note_on_c, 3, 43, 0
6, 36000, Note_on_c, 3, 64, 127
6, 36000, Note_on_c, 3, 59, 127
6, 36000, Note_on_c, 3, 52, 127
6, 36059, Note_on_c, 3, 52, 0
6, 36059, Note_on_c, 3, 59, 0
6, 36059, Note_on_c, 3, 64, 0
6, 36060, Note_on_c, 3, 52, 127
6, 36060, Note_on_c, 3, 59, 127
6, 36060, Note_on_c, 3, 64, 127
6, 36119, Note_on_c, 3, 64, 0
6, 36119, Note_on_c, 3, 59, 0
6, 36119, Note_on_c, 3, 52, 0
6, 36120, Note_on_c, 3, 52, 127
6, 36120, Note_on_c, 3, 59, 127
6, 36120, Note_on_c, 3, 64, 127
6, 36179, Note_on_c, 3, 64, 0
6, 36179, Note_on_c, 3, 59, 0
6, 36179, Note_on_c, 3, 52, 0
6, 36180, Note_on_c, 3, 52, 127
6, 36180, Note_on_c, 3, 59, 127
6, 36180, Note_on_c, 3, 64, 127
6, 36239, Note_on_c, 3, 64, 0
6, 36239, Note_on_c, 3, 59, 0
6, 36239, Note_on_c, 3, 52, 0
6, 36240, Note_on_c, 3, 62, 127
6, 36240, Note_on_c, 3, 57, 127
6, 36240, Note_on_c, 3, 50, 127
6, 36299, Note_on_c, 3, 50, 0
6, 36299, Note_on_c, 3, 57, 0
6, 36299, Note_on_c, 3, 62, 0
6, 36300, Note_on_c, 3, 62, 127
6, 36300, Note_on_c, 3, 57, 127
6, 36300, Note_on_c, 3, 50, 127
6, 36359, Note_on_c, 3, 50, 0
6, 36359, Note_on_c, 3, 57, 0
6, 36359, Note_on_c, 3, 62, 0
6, 36360, Note_on_c, 3, 62, 127
6, 36360, Note_on_c, 3, 57, 127
6, 36360, Note_on_c, 3, 50, 127
6, 36419, Note_on_c, 3, 50, 0
6, 36419, Note_on_c, 3, 57, 0
6, 36419, Note_on_c, 3, 62, 0
6, 36420, Note_on_c, 3, 62, 127
6, 36420, Note_on_c, 3, 57, 127
6, 36420, Note_on_c, 3, 50, 127
6, 36479, Note_on_c, 3, 50, 0
6, 36479, Note_on_c, 3, 57, 0
6, 36479, Note_on_c, 3, 62, 0
6, 36480, Note_on_c, 3, 55, 127
6, 36480, Note_on_c, 3, 50, 127
6, 36480, Note_on_c, 3, 43, 127
6, 36539, Note_on_c, 3, 43, 0
6, 36539, Note_on_c, 3, 50, 0
6, 36539, Note_on_c, 3, 55, 0
6, 36540, Note_on_c, 3, 43, 127
6, 36540, Note_on_c, 3, 55, 127
6, 36540, Note_on_c, 3, 50, 127
6, 36599, Note_on_c, 3, 50, 0
6, 36599, Note_on_c, 3, 55, 0
6, 36599, Note_on_c, 3, 43, 0
6, 36600, Note_on_c, 3, 43, 127
6, 36600, Note_on_c, 3, 55, 127
6, 36600, Note_on_c, 3, 50, 127
6, 36659, Note_on_c, 3, 50, 0
6, 36659, Note_on_c, 3, 55, 0
6, 36659, Note_on_c, 3, 43, 0
6, 36660, Note_on_c, 3, 43, 127
6, 36660, Note_on_c, 3, 55, 127
6, 36660, Note_on_c, 3, 50, 127
6, 36719, Note_on_c, 3, 50, 0
6, 36719, Note_on_c, 3, 55, 0
6, 36719, Note_on_c, 3, 43, 0
6, 36720, Note_on_c, 3, 43, 127
6, 36720, Note_on_c, 3, 55, 127
6, 36720, Note_on_c, 3, 50, 127
6, 36779, Note_on_c, 3, 50, 0
6, 36779, Note_on_c, 3, 55, 0
6, 36779, Note_on_c, 3, 43, 0
6, 36780, Note_on_c, 3, 43, 127
6, 36780, Note_on_c, 3, 55, 127
6, 36780, Note_on_c, 3, 50, 127
6, 36839, Note_on_c, 3, 50, 0
6, 36839, Note_on_c, 3, 55, 0
6, 36839, Note_on_c, 3, 43, 0
6, 36840, Note_on_c, 3, 43, 127
6, 36840, Note_on_c, 3, 55, 127
6, 36840, Note_on_c, 3, 50, 127
6, 36899, Note_on_c, 3, 50, 0
6, 36899, Note_on_c, 3, 55, 0
6, 36899, Note_on_c, 3, 43, 0
6, 36900, Note_on_c, 3, 43, 127
6, 36900, Note_on_c, 3, 55, 127
6, 36900, Note_on_c, 3, 50, 127
6, 36959, Note_on_c, 3, 50, 0
6, 36959, Note_on_c, 3, 55, 0
6, 36959, Note_on_c, 3, 43, 0
6, 36960, Note_on_c, 3, 64, 127
6, 36960, Note_on_c, 3, 59, 127
6, 36960, Note_on_c, 3, 52, 127
6, 37019, Note_on_c, 3, 52, 0
6, 37019, Note_on_c, 3, 59, 0
6, 37019, Note_on_c, 3, 64, 0
6, 37020, Note_on_c, 3, 52, 127
6, 37020, Note_on_c, 3, 59, 127
6, 37020, Note_on_c, 3, 64, 127
6, 37079, Note_on_c, 3, 64, 0
6, 37079, Note_on_c, 3, 59, 0
6, 37079, Note_on_c, 3, 52, 0
6, 37080, Note_on_c, 3, 52, 127
6, 37080, Note_on_c, 3, 59, 127
6, 37080, Note_on_c, 3, 64, 127
6, 37139, Note_on_c, 3, 64, 0
6, 37139, Note_on_c, 3, 59, 0
6, 37139, Note_on_c, 3, 52, 0
6, 37140, Note_on_c, 3, 52, 127
6, 37140, Note_on_c, 3, 59, 127
6, 37140, Note_on_c, 3, 64, 127
6, 37199, Note_on_c, 3, 64, 0
6, 37199, Note_on_c, 3, 59, 0
6, 37199, Note_on_c, 3, 52, 0
6, 37200, Note_on_c, 3, 62, 127
6, 37200, Note_on_c, 3, 57, 127
6, 37200, Note_on_c, 3, 50, 127
6, 37259, Note_on_c, 3, 50, 0
6, 37259, Note_on_c, 3, 57, 0
6, 37259, Note_on_c, 3, 62, 0
6, 37260, Note_on_c, 3, 62, 127
6, 37260, Note_on_c, 3, 57, 127
6, 37260, Note_on_c, 3, 50, 127
6, 37319, Note_on_c, 3, 50, 0
6, 37319, Note_on_c, 3, 57, 0
6, 37319, Note_on_c, 3, 62, 0
6, 37320, Note_on_c, 3, 62, 127
6, 37320, Note_on_c, 3, 57, 127
6, 37320, Note_on_c, 3, 50, 127
6, 37379, Note_on_c, 3, 50, 0
6, 37379, Note_on_c, 3, 57, 0
6, 37379, Note_on_c, 3, 62, 0
6, 37380, Note_on_c, 3, 62, 127
6, 37380, Note_on_c, 3, 57, 127
6, 37380, Note_on_c, 3, 50, 127
6, 37439, Note_on_c, 3, 50, 0
6, 37439, Note_on_c, 3, 57, 0
6, 37439, Note_on_c, 3, 62, 0
6, 37440, Note_on_c, 3, 55, 127
6, 37440, Note_on_c, 3, 50, 127
6, 37440, Note_on_c, 3, 43, 127
6, 37499, Note_on_c, 3, 43, 0
6, 37499, Note_on_c, 3, 50, 0
6, 37499, Note_on_c, 3, 55, 0
6, 37500, Note_on_c, 3, 43, 127
6, 37500, Note_on_c, 3, 55, 127
6, 37500, Note_on_c, 3, 50, 127
6, 37559, Note_on_c, 3, 50, 0
6, 37559, Note_on_c, 3, 55, 0
6, 37559, Note_on_c, 3, 43, 0
6, 37560, Note_on_c, 3, 43, 127
6, 37560, Note_on_c, 3, 55, 127
6, 37560, Note_on_c, 3, 50, 127
6, 37619, Note_on_c, 3, 50, 0
6, 37619, Note_on_c, 3, 55, 0
6, 37619, Note_on_c, 3, 43, 0
6, 37620, Note_on_c, 3, 43, 127
6, 37620, Note_on_c, 3, 55, 127
6, 37620, Note_on_c, 3, 50, 127
6, 37679, Note_on_c, 3, 50, 0
6, 37679, Note_on_c, 3, 55, 0
6, 37679, Note_on_c, 3, 43, 0
6, 37680, Note_on_c, 3, 43, 127
6, 37680, Note_on_c, 3, 55, 127
6, 37680, Note_on_c, 3, 50, 127
6, 37739, Note_on_c, 3, 50, 0
6, 37739, Note_on_c, 3, 55, 0
6, 37739, Note_on_c, 3, 43, 0
6, 37740, Note_on_c, 3, 43, 127
6, 37740, Note_on_c, 3, 55, 127
6, 37740, Note_on_c, 3, 50, 127
6, 37799, Note_on_c, 3, 50, 0
6, 37799, Note_on_c, 3, 55, 0
6, 37799, Note_on_c, 3, 43, 0
6, 37800, Note_on_c, 3, 43, 127
6, 37800, Note_on_c, 3, 55, 127
6, 37800, Note_on_c, 3, 50, 127
6, 37859, Note_on_c, 3, 50, 0
6, 37859, Note_on_c, 3, 55, 0
6, 37859, Note_on_c, 3, 43, 0
6, 37860, Note_on_c, 3, 43, 127
6, 37860, Note_on_c, 3, 55, 127
6, 37860, Note_on_c, 3, 50, 127
6, 37919, Note_on_c, 3, 50, 0
6, 37919, Note_on_c, 3, 55, 0
6, 37919, Note_on_c, 3, 43, 0
6, 37920, Note_on_c, 3, 64, 127
6, 37920, Note_on_c, 3, 59, 127
6, 37920, Note_on_c, 3, 52, 127
6, 37979, Note_on_c, 3, 52, 0
6, 37979, Note_on_c, 3, 59, 0
6, 37979, Note_on_c, 3, 64, 0
6, 37980, Note_on_c, 3, 52, 127
6, 37980, Note_on_c, 3, 59, 127
6, 37980, Note_on_c, 3, 64, 127
6, 38039, Note_on_c, 3, 64, 0
6, 38039, Note_on_c, 3, 59, 0
6, 38039, Note_on_c, 3, 52, 0
6, 38040, Note_on_c, 3, 52, 127
6, 38040, Note_on_c, 3, 59, 127
6, 38040, Note_on_c, 3, 64, 127
6, 38099, Note_on_c, 3, 64, 0
6, 38099, Note_on_c, 3, 59, 0
6, 38099, Note_on_c, 3, 52, 0
6, 38100, Note_on_c, 3, 52, 127
6, 38100, Note_on_c, 3, 59, 127
6, 38100, Note_on_c, 3, 64, 127
6, 38159, Note_on_c, 3, 64, 0
6, 38159, Note_on_c, 3, 59, 0
6, 38159, Note_on_c, 3, 52, 0
6, 38160, Note_on_c, 3, 62, 127
6, 38160, Note_on_c, 3, 57, 127
6, 38160, Note_on_c, 3, 50, 127
6, 38219, Note_on_c, 3, 50, 0
6, 38219, Note_on_c, 3, 57, 0
6, 38219, Note_on_c, 3, 62, 0
6, 38220, Note_on_c, 3, 62, 127
6, 38220, Note_on_c, 3, 57, 127
6, 38220, Note_on_c, 3, 50, 127
6, 38279, Note_on_c, 3, 50, 0
6, 38279, Note_on_c, 3, 57, 0
6, 38279, Note_on_c, 3, 62, 0
6, 38280, Note_on_c, 3, 62, 127
6, 38280, Note_on_c, 3, 57, 127
6, 38280, Note_on_c, 3, 50, 127
6, 38339, Note_on_c, 3, 50, 0
6, 38339, Note_on_c, 3, 57, 0
6, 38339, Note_on_c, 3, 62, 0
6, 38340, Note_on_c, 3, 62, 127
6, 38340, Note_on_c, 3, 57, 127
6, 38340, Note_on_c, 3, 50, 127
6, 38399, Note_on_c, 3, 50, 0
6, 38399, Note_on_c, 3, 57, 0
6, 38399, Note_on_c, 3, 62, 0
6, 38400, Note_on_c, 3, 55, 127
6, 38400, Note_on_c, 3, 50, 127
6, 38400, Note_on_c, 3, 43, 127
6, 38459, Note_on_c, 3, 43, 0
6, 38459, Note_on_c, 3, 50, 0
6, 38459, Note_on_c, 3, 55, 0
6, 38460, Note_on_c, 3, 43, 127
6, 38460, Note_on_c, 3, 55, 127
6, 38460, Note_on_c, 3, 50, 127
6, 38519, Note_on_c, 3, 50, 0
6, 38519, Note_on_c, 3, 55, 0
6, 38519, Note_on_c, 3, 43, 0
6, 38520, Note_on_c, 3, 43, 127
6, 38520, Note_on_c, 3, 55, 127
6, 38520, Note_on_c, 3, 50, 127
6, 38579, Note_on_c, 3, 50, 0
6, 38579, Note_on_c, 3, 55, 0
6, 38579, Note_on_c, 3, 43, 0
6, 38580, Note_on_c, 3, 43, 127
6, 38580, Note_on_c, 3, 55, 127
6, 38580, Note_on_c, 3, 50, 127
6, 38639, Note_on_c, 3, 50, 0
6, 38639, Note_on_c, 3, 55, 0
6, 38639, Note_on_c, 3, 43, 0
6, 38640, Note_on_c, 3, 43, 127
6, 38640, Note_on_c, 3, 55, 127
6, 38640, Note_on_c, 3, 50, 127
6, 38699, Note_on_c, 3, 50, 0
6, 38699, Note_on_c, 3, 55, 0
6, 38699, Note_on_c, 3, 43, 0
6, 38700, Note_on_c, 3, 43, 127
6, 38700, Note_on_c, 3, 55, 127
6, 38700, Note_on_c, 3, 50, 127
6, 38759, Note_on_c, 3, 50, 0
6, 38759, Note_on_c, 3, 55, 0
6, 38759, Note_on_c, 3, 43, 0
6, 38760, Note_on_c, 3, 43, 127
6, 38760, Note_on_c, 3, 55, 127
6, 38760, Note_on_c, 3, 50, 127
6, 38819, Note_on_c, 3, 50, 0
6, 38819, Note_on_c, 3, 55, 0
6, 38819, Note_on_c, 3, 43, 0
6, 38820, Note_on_c, 3, 43, 127
6, 38820, Note_on_c, 3, 55, 127
6, 38820, Note_on_c, 3, 50, 127
6, 38879, Note_on_c, 3, 50, 0
6, 38879, Note_on_c, 3, 55, 0
6, 38879, Note_on_c, 3, 43, 0
6, 38880, Note_on_c, 3, 64, 127
6, 38880, Note_on_c, 3, 59, 127
6, 38880, Note_on_c, 3, 52, 127
6, 38939, Note_on_c, 3, 52, 0
6, 38939, Note_on_c, 3, 59, 0
6, 38939, Note_on_c, 3, 64, 0
6, 38940, Note_on_c, 3, 52, 127
6, 38940, Note_on_c, 3, 59, 127
6, 38940, Note_on_c, 3, 64, 127
6, 38999, Note_on_c, 3, 64, 0
6, 38999, Note_on_c, 3, 59, 0
6, 38999, Note_on_c, 3, 52, 0
6, 39000, Note_on_c, 3, 52, 127
6, 39000, Note_on_c, 3, 59, 127
6, 39000, Note_on_c, 3, 64, 127
6, 39059, Note_on_c, 3, 64, 0
6, 39059, Note_on_c, 3, 59, 0
6, 39059, Note_on_c, 3, 52, 0
6, 39060, Note_on_c, 3, 52, 127
6, 39060, Note_on_c, 3, 59, 127
6, 39060, Note_on_c, 3, 64, 127
6, 39119, Note_on_c, 3, 64, 0
6, 39119, Note_on_c, 3, 59, 0
6, 39119, Note_on_c, 3, 52, 0
6, 39120, Note_on_c, 3, 62, 127
6, 39120, Note_on_c, 3, 57, 127
6, 39120, Note_on_c, 3, 50, 127
6, 39179, Note_on_c, 3, 50, 0
6, 39179, Note_on_c, 3, 57, 0
6, 39179, Note_on_c, 3, 62, 0
6, 39180, Note_on_c, 3, 62, 127
6, 39180, Note_on_c, 3, 57, 127
6, 39180, Note_on_c, 3, 50, 127
6, 39239, Note_on_c, 3, 50, 0
6, 39239, Note_on_c, 3, 57, 0
6, 39239, Note_on_c, 3, 62, 0
6, 39240, Note_on_c, 3, 62, 127
6, 39240, Note_on_c, 3, 57, 127
6, 39240, Note_on_c, 3, 50, 127
6, 39299, Note_on_c, 3, 50, 0
6, 39299, Note_on_c, 3, 57, 0
6, 39299, Note_on_c, 3, 62, 0
6, 39300, Note_on_c, 3, 62, 127
6, 39300, Note_on_c, 3, 57, 127
6, 39300, Note_on_c, 3, 50, 127
6, 39359, Note_on_c, 3, 50, 0
6, 39359, Note_on_c, 3, 57, 0
6, 39359, Note_on_c, 3, 62, 0
6, 39360, Note_on_c, 3, 55, 127
6, 39360, Note_on_c, 3, 50, 127
6, 39360, Note_on_c, 3, 43, 127
6, 39419, Note_on_c, 3, 43, 0
6, 39419, Note_on_c, 3, 50, 0
6, 39419, Note_on_c, 3, 55, 0
6, 39420, Note_on_c, 3, 43, 127
6, 39420, Note_on_c, 3, 55, 127
6, 39420, Note_on_c, 3, 50, 127
6, 39479, Note_on_c, 3, 50, 0
6, 39479, Note_on_c, 3, 55, 0
6, 39479, Note_on_c, 3, 43, 0
6, 39480, Note_on_c, 3, 43, 127
6, 39480, Note_on_c, 3, 55, 127
6, 39480, Note_on_c, 3, 50, 127
6, 39539, Note_on_c, 3, 50, 0
6, 39539, Note_on_c, 3, 55, 0
6, 39539, Note_on_c, 3, 43, 0
6, 39540, Note_on_c, 3, 43, 127
6, 39540, Note_on_c, 3, 55, 127
6, 39540, Note_on_c, 3, 50, 127
6, 39599, Note_on_c, 3, 50, 0
6, 39599, Note_on_c, 3, 55, 0
6, 39599, Note_on_c, 3, 43, 0
6, 39600, Note_on_c, 3, 43, 127
6, 39600, Note_on_c, 3, 55, 127
6, 39600, Note_on_c, 3, 50, 127
6, 39659, Note_on_c, 3, 50, 0
6, 39659, Note_on_c, 3, 55, 0
6, 39659, Note_on_c, 3, 43, 0
6, 39660, Note_on_c, 3, 43, 127
6, 39660, Note_on_c, 3, 55, 127
6, 39660, Note_on_c, 3, 50, 127
6, 39719, Note_on_c, 3, 50, 0
6, 39719, Note_on_c, 3, 55, 0
6, 39719, Note_on_c, 3, 43, 0
6, 39720, Note_on_c, 3, 43, 127
6, 39720, Note_on_c, 3, 55, 127
6, 39720, Note_on_c, 3, 50, 127
6, 39779, Note_on_c, 3, 50, 0
6, 39779, Note_on_c, 3, 55, 0
6, 39779, Note_on_c, 3, 43, 0
6, 39780, Note_on_c, 3, 43, 127
6, 39780, Note_on_c, 3, 55, 127
6, 39780, Note_on_c, 3, 50, 127
6, 39839, Note_on_c, 3, 50, 0
6, 39839, Note_on_c, 3, 55, 0
6, 39839, Note_on_c, 3, 43, 0
6, 39840, Note_on_c, 3, 64, 127
6, 39840, Note_on_c, 3, 59, 127
6, 39840, Note_on_c, 3, 52, 127
6, 39899, Note_on_c, 3, 52, 0
6, 39899, Note_on_c, 3, 59, 0
6, 39899, Note_on_c, 3, 64, 0
6, 39900, Note_on_c, 3, 52, 127
6, 39900, Note_on_c, 3, 59, 127
6, 39900, Note_on_c, 3, 64, 127
6, 39959, Note_on_c, 3, 64, 0
6, 39959, Note_on_c, 3, 59, 0
6, 39959, Note_on_c, 3, 52, 0
6, 39960, Note_on_c, 3, 52, 127
6, 39960, Note_on_c, 3, 59, 127
6, 39960, Note_on_c, 3, 64, 127
6, 40019, Note_on_c, 3, 64, 0
6, 40019, Note_on_c, 3, 59, 0
6, 40019, Note_on_c, 3, 52, 0
6, 40020, Note_on_c, 3, 52, 127
6, 40020, Note_on_c, 3, 59, 127
6, 40020, Note_on_c, 3, 64, 127
6, 40079, Note_on_c, 3, 64, 0
6, 40079, Note_on_c, 3, 59, 0
6, 40079, Note_on_c, 3, 52, 0
6, 40080, Note_on_c, 3, 62, 127
6, 40080, Note_on_c, 3, 57, 127
6, 40080, Note_on_c, 3, 50, 127
6, 40139, Note_on_c, 3, 50, 0
6, 40139, Note_on_c, 3, 57, 0
6, 40139, Note_on_c, 3, 62, 0
6, 40140, Note_on_c, 3, 62, 127
6, 40140, Note_on_c, 3, 57, 127
6, 40140, Note_on_c, 3, 50, 127
6, 40199, Note_on_c, 3, 50, 0
6, 40199, Note_on_c, 3, 57, 0
6, 40199, Note_on_c, 3, 62, 0
6, 40200, Note_on_c, 3, 62, 127
6, 40200, Note_on_c, 3, 57, 127
6, 40200, Note_on_c, 3, 50, 127
6, 40259, Note_on_c, 3, 50, 0
6, 40259, Note_on_c, 3, 57, 0
6, 40259, Note_on_c, 3, 62, 0
6, 40260, Note_on_c, 3, 62, 127
6, 40260, Note_on_c, 3, 57, 127
6, 40260, Note_on_c, 3, 50, 127
6, 40319, Note_on_c, 3, 50, 0
6, 40319, Note_on_c, 3, 57, 0
6, 40319, Note_on_c, 3, 62, 0
6, 40320, Note_on_c, 3, 55, 127
6, 40320, Note_on_c, 3, 50, 127
6, 40320, Note_on_c, 3, 43, 127
6, 40379, Note_on_c, 3, 43, 0
6, 40379, Note_on_c, 3, 50, 0
6, 40379, Note_on_c, 3, 55, 0
6, 40380, Note_on_c, 3, 43, 127
6, 40380, Note_on_c, 3, 55, 127
6, 40380, Note_on_c, 3, 50, 127
6, 40439, Note_on_c, 3, 50, 0
6, 40439, Note_on_c, 3, 55, 0
6, 40439, Note_on_c, 3, 43, 0
6, 40440, Note_on_c, 3, 43, 127
6, 40440, Note_on_c, 3, 55, 127
6, 40440, Note_on_c, 3, 50, 127
6, 40499, Note_on_c, 3, 50, 0
6, 40499, Note_on_c, 3, 55, 0
6, 40499, Note_on_c, 3, 43, 0
6, 40500, Note_on_c, 3, 43, 127
6, 40500, Note_on_c, 3, 55, 127
6, 40500, Note_on_c, 3, 50, 127
6, 40559, Note_on_c, 3, 50, 0
6, 40559, Note_on_c, 3, 55, 0
6, 40559, Note_on_c, 3, 43, 0
6, 40560, Note_on_c, 3, 43, 127
6, 40560, Note_on_c, 3, 55, 127
6, 40560, Note_on_c, 3, 50, 127
6, 40619, Note_on_c, 3, 50, 0
6, 40619, Note_on_c, 3, 55, 0
6, 40619, Note_on_c, 3, 43, 0
6, 40620, Note_on_c, 3, 43, 127
6, 40620, Note_on_c, 3, 55, 127
6, 40620, Note_on_c, 3, 50, 127
6, 40679, Note_on_c, 3, 50, 0
6, 40679, Note_on_c, 3, 55, 0
6, 40679, Note_on_c, 3, 43, 0
6, 40680, Note_on_c, 3, 43, 127
6, 40680, Note_on_c, 3, 55, 127
6, 40680, Note_on_c, 3, 50, 127
6, 40739, Note_on_c, 3, 50, 0
6, 40739, Note_on_c, 3, 55, 0
6, 40739, Note_on_c, 3, 43, 0
6, 40740, Note_on_c, 3, 43, 127
6, 40740, Note_on_c, 3, 55, 127
6, 40740, Note_on_c, 3, 50, 127
6, 40799, Note_on_c, 3, 50, 0
6, 40799, Note_on_c, 3, 55, 0
6, 40799, Note_on_c, 3, 43, 0
6, 40800, Note_on_c, 3, 64, 127
6, 40800, Note_on_c, 3, 59, 127
6, 40800, Note_on_c, 3, 52, 127
6, 40859, Note_on_c, 3, 52, 0
6, 40859, Note_on_c, 3, 59, 0
6, 40859, Note_on_c, 3, 64, 0
6, 40860, Note_on_c, 3, 52, 127
6, 40860, Note_on_c, 3, 59, 127
6, 40860, Note_on_c, 3, 64, 127
6, 40919, Note_on_c, 3, 64, 0
6, 40919, Note_on_c, 3, 59, 0
6, 40919, Note_on_c, 3, 52, 0
6, 40920, Note_on_c, 3, 52, 127
6, 40920, Note_on_c, 3, 59, 127
6, 40920, Note_on_c, 3, 64, 127
6, 40979, Note_on_c, 3, 64, 0
6, 40979, Note_on_c, 3, 59, 0
6, 40979, Note_on_c, 3, 52, 0
6, 40980, Note_on_c, 3, 52, 127
6, 40980, Note_on_c, 3, 59, 127
6, 40980, Note_on_c, 3, 64, 127
6, 41039, Note_on_c, 3, 64, 0
6, 41039, Note_on_c, 3, 59, 0
6, 41039, Note_on_c, 3, 52, 0
6, 41040, Note_on_c, 3, 62, 127
6, 41040, Note_on_c, 3, 57, 127
6, 41040, Note_on_c, 3, 50, 127
6, 41099, Note_on_c, 3, 50, 0
6, 41099, Note_on_c, 3, 57, 0
6, 41099, Note_on_c, 3, 62, 0
6, 41100, Note_on_c, 3, 62, 127
6, 41100, Note_on_c, 3, 57, 127
6, 41100, Note_on_c, 3, 50, 127
6, 41159, Note_on_c, 3, 50, 0
6, 41159, Note_on_c, 3, 57, 0
6, 41159, Note_on_c, 3, 62, 0
6, 41160, Note_on_c, 3, 62, 127
6, 41160, Note_on_c, 3, 57, 127
6, 41160, Note_on_c, 3, 50, 127
6, 41219, Note_on_c, 3, 50, 0
6, 41219, Note_on_c, 3, 57, 0
6, 41219, Note_on_c, 3, 62, 0
6, 41220, Note_on_c, 3, 62, 127
6, 41220, Note_on_c, 3, 57, 127
6, 41220, Note_on_c, 3, 50, 127
6, 41279, Note_on_c, 3, 50, 0
6, 41279, Note_on_c, 3, 57, 0
6, 41279, Note_on_c, 3, 62, 0
6, 41280, Note_on_c, 3, 55, 127
6, 41280, Note_on_c, 3, 50, 127
6, 41280, Note_on_c, 3, 43, 127
6, 41339, Note_on_c, 3, 43, 0
6, 41339, Note_on_c, 3, 50, 0
6, 41339, Note_on_c, 3, 55, 0
6, 41340, Note_on_c, 3, 43, 127
6, 41340, Note_on_c, 3, 55, 127
6, 41340, Note_on_c, 3, 50, 127
6, 41399, Note_on_c, 3, 50, 0
6, 41399, Note_on_c, 3, 55, 0
6, 41399, Note_on_c, 3, 43, 0
6, 41400, Note_on_c, 3, 43, 127
6, 41400, Note_on_c, 3, 55, 127
6, 41400, Note_on_c, 3, 50, 127
6, 41459, Note_on_c, 3, 50, 0
6, 41459, Note_on_c, 3, 55, 0
6, 41459, Note_on_c, 3, 43, 0
6, 41460, Note_on_c, 3, 43, 127
6, 41460, Note_on_c, 3, 55, 127
6, 41460, Note_on_c, 3, 50, 127
6, 41519, Note_on_c, 3, 50, 0
6, 41519, Note_on_c, 3, 55, 0
6, 41519, Note_on_c, 3, 43, 0
6, 41520, Note_on_c, 3, 43, 127
6, 41520, Note_on_c, 3, 55, 127
6, 41520, Note_on_c, 3, 50, 127
6, 41579, Note_on_c, 3, 50, 0
6, 41579, Note_on_c, 3, 55, 0
6, 41579, Note_on_c, 3, 43, 0
6, 41580, Note_on_c, 3, 43, 127
6, 41580, Note_on_c, 3, 55, 127
6, 41580, Note_on_c, 3, 50, 127
6, 41639, Note_on_c, 3, 50, 0
6, 41639, Note_on_c, 3, 55, 0
6, 41639, Note_on_c, 3, 43, 0
6, 41640, Note_on_c, 3, 43, 127
6, 41640, Note_on_c, 3, 55, 127
6, 41640, Note_on_c, 3, 50, 127
6, 41699, Note_on_c, 3, 50, 0
6, 41699, Note_on_c, 3, 55, 0
6, 41699, Note_on_c, 3, 43, 0
6, 41700, Note_on_c, 3, 43, 127
6, 41700, Note_on_c, 3, 55, 127
6, 41700, Note_on_c, 3, 50, 127
6, 41759, Note_on_c, 3, 50, 0
6, 41759, Note_on_c, 3, 55, 0
6, 41759, Note_on_c, 3, 43, 0
6, 41760, Note_on_c, 3, 64, 127
6, 41760, Note_on_c, 3, 59, 127
6, 41760, Note_on_c, 3, 52, 127
6, 41819, Note_on_c, 3, 52, 0
6, 41819, Note_on_c, 3, 59, 0
6, 41819, Note_on_c, 3, 64, 0
6, 41820, Note_on_c, 3, 52, 127
6, 41820, Note_on_c, 3, 59, 127
6, 41820, Note_on_c, 3, 64, 127
6, 41879, Note_on_c, 3, 64, 0
6, 41879, Note_on_c, 3, 59, 0
6, 41879, Note_on_c, 3, 52, 0
6, 41880, Note_on_c, 3, 52, 127
6, 41880, Note_on_c, 3, 59, 127
6, 41880, Note_on_c, 3, 64, 127
6, 41939, Note_on_c, 3, 64, 0
6, 41939, Note_on_c, 3, 59, 0
6, 41939, Note_on_c, 3, 52, 0
6, 41940, Note_on_c, 3, 52, 127
6, 41940, Note_on_c, 3, 59, 127
6, 41940, Note_on_c, 3, 64, 127
6, 41999, Note_on_c, 3, 64, 0
6, 41999, Note_on_c, 3, 59, 0
6, 41999, Note_on_c, 3, 52, 0
6, 42000, Note_on_c, 3, 62, 127
6, 42000, Note_on_c, 3, 57, 127
6, 42000, Note_on_c, 3, 50, 127
6, 42059, Note_on_c, 3, 50, 0
6, 42059, Note_on_c, 3, 57, 0
6, 42059, Note_on_c, 3, 62, 0
6, 42060, Note_on_c, 3, 62, 127
6, 42060, Note_on_c, 3, 57, 127
6, 42060, Note_on_c, 3, 50, 127
6, 42119, Note_on_c, 3, 50, 0
6, 42119, Note_on_c, 3, 57, 0
6, 42119, Note_on_c, 3, 62, 0
6, 42120, Note_on_c, 3, 62, 127
6, 42120, Note_on_c, 3, 57, 127
6, 42120, Note_on_c, 3, 50, 127
6, 42179, Note_on_c, 3, 50, 0
6, 42179, Note_on_c, 3, 57, 0
6, 42179, Note_on_c, 3, 62, 0
6, 42180, Note_on_c, 3, 62, 127
6, 42180, Note_on_c, 3, 57, 127
6, 42180, Note_on_c, 3, 50, 127
6, 42239, Note_on_c, 3, 50, 0
6, 42239, Note_on_c, 3, 57, 0
6, 42239, Note_on_c, 3, 62, 0
6, 42239, End_track
7, 0, Start_track
7, 0, MIDI_port, 0
7, 0, Title_t, "Sequenced by Jim Marshall"
7, 0, End_track
8, 0, Start_track
8, 0, MIDI_port, 0
8, 0, Title_t, "marsh@mail.netconnect.com.au"
8, 0, End_track
9, 0, Start_track
9, 0, MIDI_port, 0
9, 0, Title_t, "Nirvana Down Under"
9, 0, End_track
10, 0, Start_track
10, 0, MIDI_port, 0
10, 0, Title_t, "http://users.netconnect.com.au/~marsh/nirvana/"
10, 0, End_track
11, 0, Start_track
11, 0, MIDI_port, 0
11, 0, Title_t, "July '98"
11, 0, End_track
0, 0, End_of_file
