0, 0, Header, 1, 12, 480
1, 0, Start_track
1, 0, Tempo, 769231
1, 0, Time_signature, 4, 2, 24, 8
1, 0, Key_signature, 0, "major"
1, 13440, Time_signature, 2, 2, 24, 8
1, 14400, Time_signature, 4, 2, 24, 8
1, 24000, Time_signature, 5, 2, 24, 8
1, 26400, Time_signature, 4, 2, 24, 8
1, 28320, Time_signature, 9, 3, 12, 8
1, 30480, Time_signature, 12, 3, 12, 8
1, 36240, Time_signature, 9, 3, 12, 8
1, 38400, Time_signature, 12, 3, 12, 8
1, 44160, Time_signature, 9, 3, 12, 8
1, 46320, Time_signature, 10, 3, 12, 8
1, 48720, Time_signature, 9, 3, 12, 8
1, 50880, Time_signature, 10, 3, 12, 8
1, 53280, Time_signature, 9, 3, 12, 8
1, 55440, Time_signature, 10, 3, 12, 8
1, 57840, Time_signature, 4, 2, 24, 8
1, 65520, Time_signature, 12, 3, 12, 8
1, 74160, Time_signature, 4, 2, 24, 8
1, 74160, End_track
2, 0, Start_track
2, 0, Title_t, "vocal"
2, 0, MIDI_port, 0
2, 0, Channel_prefix, 0
2, 0, Control_c, 0, 7, 120
2, 0, Control_c, 0, 10, 62
2, 0, Program_c, 0, 66
2, 3704, Note_on_c, 0, 64, 100
2, 3824, Note_off_c, 0, 64, 64
2, 3840, Note_on_c, 0, 67, 100
2, 4560, Note_off_c, 0, 67, 64
2, 4560, Note_on_c, 0, 64, 100
2, 4676, Note_off_c, 0, 64, 64
2, 4680, Note_on_c, 0, 66, 100
2, 5520, Note_off_c, 0, 66, 64
2, 5520, Note_on_c, 0, 64, 100
2, 5636, Note_off_c, 0, 64, 64
2, 5640, Note_on_c, 0, 66, 100
2, 5880, Note_off_c, 0, 66, 64
2, 5880, Note_on_c, 0, 67, 100
2, 6120, Note_off_c, 0, 67, 64
2, 6120, Note_on_c, 0, 64, 100
2, 6480, Note_off_c, 0, 64, 64
2, 7920, Note_on_c, 0, 64, 100
2, 8036, Note_off_c, 0, 64, 64
2, 8040, Note_on_c, 0, 66, 100
2, 8156, Note_off_c, 0, 66, 64
2, 8160, Note_on_c, 0, 67, 100
2, 8276, Note_off_c, 0, 67, 64
2, 8280, Note_on_c, 0, 69, 100
2, 8396, Note_off_c, 0, 69, 64
2, 8400, Note_on_c, 0, 67, 100
2, 8516, Note_off_c, 0, 67, 64
2, 8520, Note_on_c, 0, 66, 100
2, 9120, Note_off_c, 0, 66, 64
2, 9960, Note_on_c, 0, 66, 100
2, 10200, Note_off_c, 0, 66, 64
2, 10212, Note_on_c, 0, 64, 100
2, 10572, Note_off_c, 0, 64, 64
2, 11640, Note_on_c, 0, 71, 100
2, 11756, Note_off_c, 0, 71, 64
2, 11760, Note_on_c, 0, 71, 100
2, 11876, Note_off_c, 0, 71, 64
2, 11880, Note_on_c, 0, 69, 100
2, 11996, Note_off_c, 0, 69, 64
2, 12000, Note_on_c, 0, 71, 100
2, 12116, Note_off_c, 0, 71, 64
2, 12120, Note_on_c, 0, 69, 100
2, 12236, Note_off_c, 0, 69, 64
2, 12240, Note_on_c, 0, 71, 100
2, 12356, Note_off_c, 0, 71, 64
2, 12360, Note_on_c, 0, 69, 100
2, 12476, Note_off_c, 0, 69, 64
2, 12480, Note_on_c, 0, 71, 100
2, 12596, Note_off_c, 0, 71, 64
2, 12720, Note_on_c, 0, 71, 100
2, 12836, Note_off_c, 0, 71, 64
2, 12840, Note_on_c, 0, 69, 100
2, 12956, Note_off_c, 0, 69, 64
2, 12960, Note_on_c, 0, 71, 100
2, 13200, Note_off_c, 0, 71, 64
2, 13200, Note_on_c, 0, 69, 100
2, 13316, Note_off_c, 0, 69, 64
2, 13320, Note_on_c, 0, 71, 100
2, 13680, Note_off_c, 0, 71, 64
2, 13680, Note_on_c, 0, 71, 100
2, 13796, Note_off_c, 0, 71, 64
2, 13800, Note_on_c, 0, 69, 100
2, 13916, Note_off_c, 0, 69, 64
2, 13920, Note_on_c, 0, 71, 100
2, 14036, Note_off_c, 0, 71, 64
2, 14040, Note_on_c, 0, 69, 100
2, 14156, Note_off_c, 0, 69, 64
2, 14160, Note_on_c, 0, 71, 100
2, 14276, Note_off_c, 0, 71, 64
2, 14280, Note_on_c, 0, 69, 100
2, 14396, Note_off_c, 0, 69, 64
2, 14400, Note_on_c, 0, 71, 100
2, 14640, Note_off_c, 0, 71, 64
2, 14640, Note_on_c, 0, 69, 100
2, 14756, Note_off_c, 0, 69, 64
2, 14760, Note_on_c, 0, 72, 100
2, 15480, Note_off_c, 0, 72, 64
2, 16200, Note_on_c, 0, 64, 100
2, 16316, Note_off_c, 0, 64, 64
2, 16320, Note_on_c, 0, 71, 100
2, 16560, Note_off_c, 0, 71, 64
2, 16560, Note_on_c, 0, 71, 100
2, 16676, Note_off_c, 0, 71, 64
2, 16680, Note_on_c, 0, 69, 100
2, 16796, Note_off_c, 0, 69, 64
2, 16800, Note_on_c, 0, 71, 100
2, 17040, Note_off_c, 0, 71, 64
2, 17040, Note_on_c, 0, 71, 100
2, 17156, Note_off_c, 0, 71, 64
2, 17160, Note_on_c, 0, 69, 100
2, 17276, Note_off_c, 0, 69, 64
2, 17280, Note_on_c, 0, 71, 100
2, 17396, Note_off_c, 0, 71, 64
2, 17400, Note_on_c, 0, 69, 100
2, 17516, Note_off_c, 0, 69, 64
2, 17520, Note_on_c, 0, 71, 100
2, 17636, Note_off_c, 0, 71, 64
2, 17640, Note_on_c, 0, 69, 100
2, 17756, Note_off_c, 0, 69, 64
2, 17760, Note_on_c, 0, 71, 100
2, 17876, Note_off_c, 0, 71, 64
2, 17880, Note_on_c, 0, 69, 100
2, 17996, Note_off_c, 0, 69, 64
2, 18000, Note_on_c, 0, 71, 100
2, 18116, Note_off_c, 0, 71, 64
2, 18120, Note_on_c, 0, 69, 100
2, 18236, Note_off_c, 0, 69, 64
2, 18240, Note_on_c, 0, 71, 100
2, 18480, Note_off_c, 0, 71, 64
2, 18480, Note_on_c, 0, 69, 100
2, 18720, Note_off_c, 0, 69, 64
2, 18720, Note_on_c, 0, 64, 100
2, 19200, Note_off_c, 0, 64, 64
2, 20160, Note_on_c, 0, 71, 100
2, 20160, Note_on_c, 0, 74, 100
2, 20276, Note_off_c, 0, 74, 64
2, 20276, Note_off_c, 0, 71, 64
2, 20280, Note_on_c, 0, 69, 100
2, 20280, Note_on_c, 0, 72, 100
2, 20396, Note_off_c, 0, 72, 64
2, 20396, Note_off_c, 0, 69, 64
2, 20400, Note_on_c, 0, 71, 100
2, 20400, Note_on_c, 0, 74, 100
2, 20516, Note_off_c, 0, 74, 64
2, 20516, Note_off_c, 0, 71, 64
2, 20520, Note_on_c, 0, 69, 100
2, 20520, Note_on_c, 0, 72, 100
2, 20636, Note_off_c, 0, 72, 64
2, 20636, Note_off_c, 0, 69, 64
2, 20640, Note_on_c, 0, 71, 100
2, 20640, Note_on_c, 0, 74, 100
2, 20880, Note_off_c, 0, 74, 64
2, 20880, Note_off_c, 0, 71, 64
2, 20880, Note_on_c, 0, 74, 100
2, 20880, Note_on_c, 0, 71, 100
2, 20996, Note_off_c, 0, 71, 64
2, 20996, Note_off_c, 0, 74, 64
2, 21000, Note_on_c, 0, 69, 100
2, 21000, Note_on_c, 0, 72, 100
2, 21116, Note_off_c, 0, 72, 64
2, 21116, Note_off_c, 0, 69, 64
2, 21120, Note_on_c, 0, 71, 100
2, 21120, Note_on_c, 0, 74, 100
2, 21360, Note_off_c, 0, 74, 64
2, 21360, Note_off_c, 0, 71, 64
2, 21360, Note_on_c, 0, 72, 100
2, 21360, Note_on_c, 0, 69, 100
2, 21476, Note_off_c, 0, 69, 64
2, 21476, Note_off_c, 0, 72, 64
2, 21480, Note_on_c, 0, 71, 100
2, 21480, Note_on_c, 0, 74, 100
2, 21720, Note_off_c, 0, 74, 64
2, 21720, Note_off_c, 0, 71, 64
2, 21720, Note_on_c, 0, 69, 100
2, 21720, Note_on_c, 0, 72, 100
2, 21836, Note_off_c, 0, 72, 64
2, 21836, Note_off_c, 0, 69, 64
2, 21840, Note_on_c, 0, 74, 100
2, 21840, Note_on_c, 0, 71, 100
2, 21956, Note_off_c, 0, 71, 64
2, 21956, Note_off_c, 0, 74, 64
2, 21960, Note_on_c, 0, 69, 100
2, 21960, Note_on_c, 0, 72, 100
2, 22076, Note_off_c, 0, 72, 64
2, 22076, Note_off_c, 0, 69, 64
2, 22080, Note_on_c, 0, 71, 100
2, 22080, Note_on_c, 0, 74, 100
2, 22320, Note_off_c, 0, 74, 64
2, 22320, Note_off_c, 0, 71, 64
2, 22320, Note_on_c, 0, 69, 100
2, 22320, Note_on_c, 0, 72, 100
2, 22436, Note_off_c, 0, 72, 64
2, 22436, Note_off_c, 0, 69, 64
2, 22440, Note_on_c, 0, 72, 100
2, 22440, Note_on_c, 0, 76, 100
2, 23160, Note_off_c, 0, 76, 64
2, 23160, Note_off_c, 0, 72, 64
2, 24120, Note_on_c, 0, 71, 100
2, 24120, Note_on_c, 0, 77, 100
2, 24236, Note_off_c, 0, 77, 64
2, 24236, Note_off_c, 0, 71, 64
2, 24240, Note_on_c, 0, 71, 100
2, 24240, Note_on_c, 0, 77, 100
2, 24356, Note_off_c, 0, 77, 64
2, 24356, Note_off_c, 0, 71, 64
2, 24360, Note_on_c, 0, 69, 100
2, 24360, Note_on_c, 0, 77, 100
2, 24476, Note_off_c, 0, 77, 64
2, 24476, Note_off_c, 0, 69, 64
2, 24480, Note_on_c, 0, 71, 100
2, 24480, Note_on_c, 0, 77, 100
2, 24596, Note_off_c, 0, 77, 64
2, 24596, Note_off_c, 0, 71, 64
2, 24600, Note_on_c, 0, 69, 100
2, 24600, Note_on_c, 0, 77, 100
2, 24716, Note_off_c, 0, 77, 64
2, 24716, Note_off_c, 0, 69, 64
2, 24720, Note_on_c, 0, 71, 100
2, 24720, Note_on_c, 0, 77, 100
2, 24836, Note_off_c, 0, 77, 64
2, 24836, Note_off_c, 0, 71, 64
2, 24840, Note_on_c, 0, 69, 100
2, 24840, Note_on_c, 0, 77, 100
2, 24956, Note_off_c, 0, 77, 64
2, 24956, Note_off_c, 0, 69, 64
2, 24960, Note_on_c, 0, 71, 100
2, 24960, Note_on_c, 0, 77, 100
2, 25200, Note_off_c, 0, 77, 64
2, 25200, Note_off_c, 0, 71, 64
2, 25200, Note_on_c, 0, 71, 100
2, 25200, Note_on_c, 0, 77, 100
2, 25316, Note_off_c, 0, 77, 64
2, 25316, Note_off_c, 0, 71, 64
2, 25320, Note_on_c, 0, 69, 100
2, 25320, Note_on_c, 0, 77, 100
2, 25436, Note_off_c, 0, 77, 64
2, 25436, Note_off_c, 0, 69, 64
2, 25440, Note_on_c, 0, 71, 100
2, 25440, Note_on_c, 0, 77, 100
2, 25680, Note_off_c, 0, 77, 64
2, 25680, Note_off_c, 0, 71, 64
2, 25680, Note_on_c, 0, 71, 100
2, 25680, Note_on_c, 0, 77, 100
2, 25796, Note_off_c, 0, 77, 64
2, 25796, Note_off_c, 0, 71, 64
2, 25800, Note_on_c, 0, 69, 100
2, 25800, Note_on_c, 0, 77, 100
2, 25916, Note_off_c, 0, 77, 64
2, 25916, Note_off_c, 0, 69, 64
2, 25920, Note_on_c, 0, 71, 100
2, 25920, Note_on_c, 0, 77, 100
2, 26036, Note_off_c, 0, 77, 64
2, 26036, Note_off_c, 0, 71, 64
2, 26040, Note_on_c, 0, 69, 100
2, 26040, Note_on_c, 0, 77, 100
2, 26156, Note_off_c, 0, 77, 64
2, 26156, Note_off_c, 0, 69, 64
2, 26160, Note_on_c, 0, 71, 100
2, 26160, Note_on_c, 0, 77, 100
2, 26276, Note_off_c, 0, 77, 64
2, 26276, Note_off_c, 0, 71, 64
2, 26280, Note_on_c, 0, 69, 100
2, 26280, Note_on_c, 0, 77, 100
2, 26396, Note_off_c, 0, 77, 64
2, 26396, Note_off_c, 0, 69, 64
2, 26400, Note_on_c, 0, 71, 100
2, 26400, Note_on_c, 0, 76, 100
2, 26640, Note_off_c, 0, 76, 64
2, 26640, Note_off_c, 0, 71, 64
2, 26640, Note_on_c, 0, 69, 100
2, 26640, Note_on_c, 0, 76, 100
2, 26756, Note_off_c, 0, 76, 64
2, 26756, Note_off_c, 0, 69, 64
2, 26760, Note_on_c, 0, 72, 100
2, 26760, Note_on_c, 0, 76, 100
2, 27480, Note_off_c, 0, 76, 64
2, 27480, Note_off_c, 0, 72, 64
2, 36240, Note_on_c, 0, 64, 100
2, 36240, Note_on_c, 0, 76, 100
2, 36464, Note_on_c, 0, 67, 100
2, 36480, Note_off_c, 0, 76, 64
2, 36480, Note_off_c, 0, 64, 64
2, 36508, Note_on_c, 0, 79, 100
2, 36704, Note_off_c, 0, 67, 64
2, 36704, Note_on_c, 0, 76, 100
2, 36708, Note_on_c, 0, 64, 100
2, 36748, Note_off_c, 0, 79, 64
2, 36944, Note_off_c, 0, 76, 64
2, 36948, Note_off_c, 0, 64, 64
2, 36948, Note_on_c, 0, 60, 100
2, 36948, Note_on_c, 0, 72, 100
2, 37184, Note_on_c, 0, 57, 100
2, 37188, Note_off_c, 0, 72, 64
2, 37188, Note_off_c, 0, 60, 64
2, 37204, Note_on_c, 0, 69, 100
2, 37304, Note_off_c, 0, 57, 64
2, 37320, Note_on_c, 0, 60, 100
2, 37324, Note_off_c, 0, 69, 64
2, 37324, Note_on_c, 0, 72, 100
2, 37664, Note_on_c, 0, 64, 100
2, 37668, Note_on_c, 0, 76, 100
2, 37680, Note_off_c, 0, 60, 64
2, 37684, Note_off_c, 0, 72, 64
2, 37904, Note_off_c, 0, 64, 64
2, 37908, Note_off_c, 0, 76, 64
2, 37912, Note_on_c, 0, 74, 100
2, 37936, Note_on_c, 0, 62, 100
2, 38032, Note_off_c, 0, 74, 64
2, 38040, Note_on_c, 0, 72, 100
2, 38056, Note_off_c, 0, 62, 64
2, 38056, Note_on_c, 0, 60, 100
2, 38160, Note_off_c, 0, 72, 64
2, 38168, Note_on_c, 0, 69, 100
2, 38176, Note_off_c, 0, 60, 64
2, 38180, Note_on_c, 0, 57, 100
2, 38400, Note_on_c, 0, 64, 100
2, 38400, Note_on_c, 0, 76, 100
2, 38408, Note_off_c, 0, 69, 64
2, 38420, Note_off_c, 0, 57, 64
2, 38632, Note_on_c, 0, 67, 100
2, 38640, Note_off_c, 0, 64, 64
2, 38640, Note_off_c, 0, 76, 64
2, 38668, Note_on_c, 0, 79, 100
2, 38872, Note_off_c, 0, 67, 64
2, 38880, Note_on_c, 0, 64, 100
2, 38892, Note_on_c, 0, 76, 100
2, 38908, Note_off_c, 0, 79, 64
2, 39104, Note_on_c, 0, 72, 100
2, 39116, Note_on_c, 0, 60, 100
2, 39120, Note_off_c, 0, 64, 64
2, 39132, Note_off_c, 0, 76, 64
2, 39344, Note_off_c, 0, 72, 64
2, 39356, Note_off_c, 0, 60, 64
2, 39356, Note_on_c, 0, 69, 100
2, 39360, Note_on_c, 0, 57, 100
2, 39476, Note_off_c, 0, 69, 64
2, 39480, Note_off_c, 0, 57, 64
2, 39480, Note_on_c, 0, 60, 100
2, 39480, Note_on_c, 0, 72, 100
2, 39812, Note_on_c, 0, 64, 100
2, 39824, Note_on_c, 0, 76, 100
2, 39840, Note_off_c, 0, 72, 64
2, 39840, Note_off_c, 0, 60, 64
2, 40052, Note_off_c, 0, 64, 64
2, 40052, Note_on_c, 0, 67, 100
2, 40064, Note_off_c, 0, 76, 64
2, 40080, Note_on_c, 0, 79, 100
2, 40532, Note_off_c, 0, 67, 64
2, 40532, Note_on_c, 0, 64, 100
2, 40544, Note_on_c, 0, 76, 100
2, 40560, Note_off_c, 0, 79, 64
2, 40772, Note_off_c, 0, 64, 64
2, 40772, Note_on_c, 0, 67, 100
2, 40784, Note_off_c, 0, 76, 64
2, 40792, Note_on_c, 0, 79, 100
2, 41252, Note_off_c, 0, 67, 64
2, 41272, Note_off_c, 0, 79, 64
2, 41280, Note_on_c, 0, 64, 100
2, 41280, Note_on_c, 0, 76, 100
2, 41504, Note_on_c, 0, 67, 100
2, 41520, Note_off_c, 0, 76, 64
2, 41520, Note_off_c, 0, 64, 64
2, 41548, Note_on_c, 0, 79, 100
2, 41744, Note_off_c, 0, 67, 64
2, 41744, Note_on_c, 0, 76, 100
2, 41748, Note_on_c, 0, 64, 100
2, 41788, Note_off_c, 0, 79, 64
2, 41984, Note_off_c, 0, 76, 64
2, 41988, Note_off_c, 0, 64, 64
2, 41988, Note_on_c, 0, 60, 100
2, 41988, Note_on_c, 0, 72, 100
2, 42224, Note_on_c, 0, 57, 100
2, 42228, Note_off_c, 0, 72, 64
2, 42228, Note_off_c, 0, 60, 64
2, 42244, Note_on_c, 0, 69, 100
2, 42344, Note_off_c, 0, 57, 64
2, 42360, Note_on_c, 0, 60, 100
2, 42364, Note_off_c, 0, 69, 64
2, 42364, Note_on_c, 0, 72, 100
2, 42704, Note_on_c, 0, 64, 100
2, 42708, Note_on_c, 0, 76, 100
2, 42720, Note_off_c, 0, 60, 64
2, 42724, Note_off_c, 0, 72, 64
2, 42944, Note_off_c, 0, 64, 64
2, 42948, Note_off_c, 0, 76, 64
2, 42952, Note_on_c, 0, 74, 100
2, 42976, Note_on_c, 0, 62, 100
2, 43072, Note_off_c, 0, 74, 64
2, 43080, Note_on_c, 0, 72, 100
2, 43096, Note_off_c, 0, 62, 64
2, 43096, Note_on_c, 0, 60, 100
2, 43184, Note_on_c, 0, 69, 100
2, 43200, Note_off_c, 0, 72, 64
2, 43208, Note_on_c, 0, 57, 100
2, 43216, Note_off_c, 0, 60, 64
2, 44144, Note_off_c, 0, 69, 64
2, 44160, Note_on_c, 0, 64, 100
2, 44168, Note_off_c, 0, 57, 64
2, 44276, Note_off_c, 0, 64, 64
2, 44280, Note_on_c, 0, 64, 100
2, 44396, Note_off_c, 0, 64, 64
2, 44400, Note_on_c, 0, 67, 100
2, 44516, Note_off_c, 0, 67, 64
2, 44520, Note_on_c, 0, 67, 100
2, 44760, Note_off_c, 0, 67, 64
2, 44760, Note_on_c, 0, 67, 100
2, 44876, Note_off_c, 0, 67, 64
2, 44880, Note_on_c, 0, 71, 100
2, 45120, Note_off_c, 0, 71, 64
2, 45120, Note_on_c, 0, 71, 100
2, 45236, Note_off_c, 0, 71, 64
2, 45240, Note_on_c, 0, 69, 100
2, 45480, Note_off_c, 0, 69, 64
2, 45480, Note_on_c, 0, 67, 100
2, 45596, Note_off_c, 0, 67, 64
2, 45600, Note_on_c, 0, 64, 100
2, 45840, Note_off_c, 0, 64, 64
2, 46320, Note_on_c, 0, 67, 100
2, 46436, Note_off_c, 0, 67, 64
2, 46440, Note_on_c, 0, 67, 100
2, 46556, Note_off_c, 0, 67, 64
2, 46560, Note_on_c, 0, 67, 100
2, 46676, Note_off_c, 0, 67, 64
2, 46680, Note_on_c, 0, 64, 100
2, 46920, Note_off_c, 0, 64, 64
2, 46920, Note_on_c, 0, 64, 100
2, 47036, Note_off_c, 0, 64, 64
2, 47040, Note_on_c, 0, 62, 100
2, 47280, Note_off_c, 0, 62, 64
2, 47280, Note_on_c, 0, 62, 100
2, 47396, Note_off_c, 0, 62, 64
2, 47400, Note_on_c, 0, 62, 100
2, 47640, Note_off_c, 0, 62, 64
2, 47640, Note_on_c, 0, 60, 100
2, 47756, Note_off_c, 0, 60, 64
2, 47760, Note_on_c, 0, 57, 100
2, 47876, Note_off_c, 0, 57, 64
2, 47880, Note_on_c, 0, 55, 100
2, 48120, Note_off_c, 0, 55, 64
2, 48720, Note_on_c, 0, 76, 100
2, 48720, Note_on_c, 0, 64, 100
2, 48836, Note_off_c, 0, 64, 64
2, 48836, Note_off_c, 0, 76, 64
2, 48840, Note_on_c, 0, 76, 100
2, 48840, Note_on_c, 0, 64, 100
2, 48956, Note_off_c, 0, 64, 64
2, 48956, Note_off_c, 0, 76, 64
2, 48960, Note_on_c, 0, 79, 100
2, 48960, Note_on_c, 0, 67, 100
2, 49076, Note_off_c, 0, 67, 64
2, 49076, Note_off_c, 0, 79, 64
2, 49080, Note_on_c, 0, 79, 100
2, 49080, Note_on_c, 0, 67, 100
2, 49320, Note_off_c, 0, 67, 64
2, 49320, Note_off_c, 0, 79, 64
2, 49320, Note_on_c, 0, 79, 100
2, 49320, Note_on_c, 0, 67, 100
2, 49436, Note_off_c, 0, 67, 64
2, 49436, Note_off_c, 0, 79, 64
2, 49440, Note_on_c, 0, 83, 100
2, 49440, Note_on_c, 0, 71, 100
2, 49680, Note_off_c, 0, 71, 64
2, 49680, Note_off_c, 0, 83, 64
2, 49680, Note_on_c, 0, 83, 100
2, 49680, Note_on_c, 0, 71, 100
2, 49796, Note_off_c, 0, 71, 64
2, 49796, Note_off_c, 0, 83, 64
2, 49800, Note_on_c, 0, 81, 100
2, 49800, Note_on_c, 0, 69, 100
2, 50040, Note_off_c, 0, 69, 64
2, 50040, Note_off_c, 0, 81, 64
2, 50040, Note_on_c, 0, 79, 100
2, 50040, Note_on_c, 0, 67, 100
2, 50156, Note_off_c, 0, 67, 64
2, 50156, Note_off_c, 0, 79, 64
2, 50160, Note_on_c, 0, 76, 100
2, 50160, Note_on_c, 0, 64, 100
2, 50400, Note_off_c, 0, 64, 64
2, 50400, Note_off_c, 0, 76, 64
2, 50880, Note_on_c, 0, 79, 100
2, 50880, Note_on_c, 0, 67, 100
2, 50996, Note_off_c, 0, 67, 64
2, 50996, Note_off_c, 0, 79, 64
2, 51000, Note_on_c, 0, 79, 100
2, 51000, Note_on_c, 0, 67, 100
2, 51116, Note_off_c, 0, 67, 64
2, 51116, Note_off_c, 0, 79, 64
2, 51120, Note_on_c, 0, 79, 100
2, 51120, Note_on_c, 0, 67, 100
2, 51236, Note_off_c, 0, 67, 64
2, 51236, Note_off_c, 0, 79, 64
2, 51240, Note_on_c, 0, 76, 100
2, 51240, Note_on_c, 0, 64, 100
2, 51480, Note_off_c, 0, 64, 64
2, 51480, Note_off_c, 0, 76, 64
2, 51480, Note_on_c, 0, 76, 100
2, 51480, Note_on_c, 0, 64, 100
2, 51596, Note_off_c, 0, 64, 64
2, 51596, Note_off_c, 0, 76, 64
2, 51600, Note_on_c, 0, 74, 100
2, 51600, Note_on_c, 0, 62, 100
2, 51840, Note_off_c, 0, 62, 64
2, 51840, Note_off_c, 0, 74, 64
2, 51840, Note_on_c, 0, 74, 100
2, 51840, Note_on_c, 0, 62, 100
2, 51956, Note_off_c, 0, 62, 64
2, 51956, Note_off_c, 0, 74, 64
2, 51960, Note_on_c, 0, 74, 100
2, 51960, Note_on_c, 0, 62, 100
2, 52200, Note_off_c, 0, 62, 64
2, 52200, Note_off_c, 0, 74, 64
2, 52200, Note_on_c, 0, 72, 100
2, 52200, Note_on_c, 0, 60, 100
2, 52316, Note_off_c, 0, 60, 64
2, 52316, Note_off_c, 0, 72, 64
2, 52320, Note_on_c, 0, 69, 100
2, 52320, Note_on_c, 0, 57, 100
2, 52436, Note_off_c, 0, 57, 64
2, 52436, Note_off_c, 0, 69, 64
2, 52440, Note_on_c, 0, 67, 100
2, 52440, Note_on_c, 0, 55, 100
2, 52680, Note_off_c, 0, 55, 64
2, 52680, Note_off_c, 0, 67, 64
2, 53280, Note_on_c, 0, 76, 100
2, 53280, Note_on_c, 0, 64, 100
2, 53396, Note_off_c, 0, 64, 64
2, 53396, Note_off_c, 0, 76, 64
2, 53400, Note_on_c, 0, 76, 100
2, 53400, Note_on_c, 0, 64, 100
2, 53516, Note_off_c, 0, 64, 64
2, 53516, Note_off_c, 0, 76, 64
2, 53520, Note_on_c, 0, 79, 100
2, 53520, Note_on_c, 0, 67, 100
2, 53636, Note_off_c, 0, 67, 64
2, 53636, Note_off_c, 0, 79, 64
2, 53640, Note_on_c, 0, 79, 100
2, 53640, Note_on_c, 0, 67, 100
2, 53880, Note_off_c, 0, 67, 64
2, 53880, Note_off_c, 0, 79, 64
2, 53880, Note_on_c, 0, 79, 100
2, 53880, Note_on_c, 0, 67, 100
2, 53996, Note_off_c, 0, 67, 64
2, 53996, Note_off_c, 0, 79, 64
2, 54000, Note_on_c, 0, 83, 100
2, 54000, Note_on_c, 0, 71, 100
2, 54240, Note_off_c, 0, 71, 64
2, 54240, Note_off_c, 0, 83, 64
2, 54240, Note_on_c, 0, 83, 100
2, 54240, Note_on_c, 0, 71, 100
2, 54356, Note_off_c, 0, 71, 64
2, 54356, Note_off_c, 0, 83, 64
2, 54360, Note_on_c, 0, 81, 100
2, 54360, Note_on_c, 0, 69, 100
2, 54600, Note_off_c, 0, 69, 64
2, 54600, Note_off_c, 0, 81, 64
2, 54600, Note_on_c, 0, 79, 100
2, 54600, Note_on_c, 0, 67, 100
2, 54716, Note_off_c, 0, 67, 64
2, 54716, Note_off_c, 0, 79, 64
2, 54720, Note_on_c, 0, 76, 100
2, 54720, Note_on_c, 0, 64, 100
2, 54960, Note_off_c, 0, 64, 64
2, 54960, Note_off_c, 0, 76, 64
2, 55440, Note_on_c, 0, 79, 100
2, 55440, Note_on_c, 0, 67, 100
2, 55556, Note_off_c, 0, 67, 64
2, 55556, Note_off_c, 0, 79, 64
2, 55560, Note_on_c, 0, 79, 100
2, 55560, Note_on_c, 0, 67, 100
2, 55676, Note_off_c, 0, 67, 64
2, 55676, Note_off_c, 0, 79, 64
2, 55680, Note_on_c, 0, 79, 100
2, 55680, Note_on_c, 0, 67, 100
2, 55796, Note_off_c, 0, 67, 64
2, 55796, Note_off_c, 0, 79, 64
2, 55800, Note_on_c, 0, 76, 100
2, 55800, Note_on_c, 0, 64, 100
2, 56040, Note_off_c, 0, 64, 64
2, 56040, Note_off_c, 0, 76, 64
2, 56040, Note_on_c, 0, 76, 100
2, 56040, Note_on_c, 0, 64, 100
2, 56156, Note_off_c, 0, 64, 64
2, 56156, Note_off_c, 0, 76, 64
2, 56160, Note_on_c, 0, 74, 100
2, 56160, Note_on_c, 0, 62, 100
2, 56400, Note_off_c, 0, 62, 64
2, 56400, Note_off_c, 0, 74, 64
2, 56400, Note_on_c, 0, 74, 100
2, 56400, Note_on_c, 0, 62, 100
2, 56516, Note_off_c, 0, 62, 64
2, 56516, Note_off_c, 0, 74, 64
2, 56520, Note_on_c, 0, 74, 100
2, 56520, Note_on_c, 0, 62, 100
2, 56760, Note_off_c, 0, 62, 64
2, 56760, Note_off_c, 0, 74, 64
2, 56760, Note_on_c, 0, 72, 100
2, 56760, Note_on_c, 0, 60, 100
2, 56876, Note_off_c, 0, 60, 64
2, 56876, Note_off_c, 0, 72, 64
2, 56880, Note_on_c, 0, 69, 100
2, 56880, Note_on_c, 0, 57, 100
2, 56996, Note_off_c, 0, 57, 64
2, 56996, Note_off_c, 0, 69, 64
2, 57000, Note_on_c, 0, 67, 100
2, 57000, Note_on_c, 0, 55, 100
2, 57240, Note_off_c, 0, 55, 64
2, 57240, Note_off_c, 0, 67, 64
2, 58320, Note_on_c, 0, 76, 100
2, 58560, Note_off_c, 0, 76, 64
2, 58560, Note_on_c, 0, 79, 100
2, 58800, Note_off_c, 0, 79, 64
2, 58800, Note_on_c, 0, 76, 100
2, 59280, Note_off_c, 0, 76, 64
2, 59520, Note_on_c, 0, 69, 100
2, 59636, Note_off_c, 0, 69, 64
2, 59640, Note_on_c, 0, 72, 100
2, 59756, Note_off_c, 0, 72, 64
2, 59760, Note_on_c, 0, 76, 100
2, 60240, Note_off_c, 0, 76, 64
2, 60240, Note_on_c, 0, 74, 100
2, 60720, Note_off_c, 0, 74, 64
2, 62160, Note_on_c, 0, 76, 100
2, 62400, Note_off_c, 0, 76, 64
2, 62400, Note_on_c, 0, 79, 100
2, 62640, Note_off_c, 0, 79, 64
2, 62640, Note_on_c, 0, 81, 100
2, 62756, Note_off_c, 0, 81, 64
2, 62760, Note_on_c, 0, 79, 100
2, 62876, Note_off_c, 0, 79, 64
2, 62880, Note_on_c, 0, 76, 100
2, 63360, Note_off_c, 0, 76, 64
2, 63360, Note_on_c, 0, 69, 100
2, 63476, Note_off_c, 0, 69, 64
2, 63480, Note_on_c, 0, 72, 100
2, 63596, Note_off_c, 0, 72, 64
2, 63600, Note_on_c, 0, 76, 100
2, 64080, Note_off_c, 0, 76, 64
2, 64080, Note_on_c, 0, 74, 100
2, 64320, Note_off_c, 0, 74, 64
2, 64320, Note_on_c, 0, 74, 100
2, 64560, Note_off_c, 0, 74, 64
2, 64560, Note_on_c, 0, 74, 100
2, 64800, Note_off_c, 0, 74, 64
2, 65520, Program_c, 0, 85
2, 65992, Note_on_c, 0, 60, 100
2, 66108, Note_off_c, 0, 60, 64
2, 66120, Note_on_c, 0, 67, 100
2, 66472, Note_on_c, 0, 67, 100
2, 66480, Note_off_c, 0, 67, 64
2, 66712, Note_off_c, 0, 67, 64
2, 66720, Note_on_c, 0, 60, 100
2, 66960, Note_off_c, 0, 60, 64
2, 67208, Note_on_c, 0, 57, 100
2, 67440, Note_on_c, 0, 64, 100
2, 67448, Note_off_c, 0, 57, 64
2, 67680, Note_off_c, 0, 64, 64
2, 67680, Note_on_c, 0, 62, 100
2, 68400, Note_off_c, 0, 62, 64
2, 68880, Note_on_c, 0, 60, 100
2, 68996, Note_off_c, 0, 60, 64
2, 69000, Note_on_c, 0, 60, 100
2, 69116, Note_off_c, 0, 60, 64
2, 69120, Note_on_c, 0, 67, 100
2, 69600, Note_off_c, 0, 67, 64
2, 69600, Note_on_c, 0, 67, 100
2, 69824, Note_on_c, 0, 67, 100
2, 69840, Note_off_c, 0, 67, 64
2, 70064, Note_off_c, 0, 67, 64
2, 70080, Note_on_c, 0, 60, 100
2, 70312, Note_on_c, 0, 57, 100
2, 70320, Note_off_c, 0, 60, 64
2, 70428, Note_off_c, 0, 57, 64
2, 70440, Note_on_c, 0, 64, 100
2, 70800, Note_off_c, 0, 64, 64
2, 70800, Note_on_c, 0, 62, 100
2, 71040, Note_off_c, 0, 62, 64
2, 71040, Note_on_c, 0, 62, 100
2, 71280, Note_off_c, 0, 62, 64
2, 71760, Note_on_c, 0, 64, 100
2, 72000, Note_off_c, 0, 64, 64
2, 72000, Note_on_c, 0, 60, 100
2, 72480, Note_off_c, 0, 60, 64
2, 72480, Note_on_c, 0, 60, 100
2, 72720, Note_off_c, 0, 60, 64
2, 72720, Note_on_c, 0, 60, 100
2, 72836, Note_off_c, 0, 60, 64
2, 72840, Note_on_c, 0, 60, 100
2, 72952, Note_on_c, 0, 60, 100
2, 72956, Note_off_c, 0, 60, 64
2, 73192, Note_off_c, 0, 60, 64
2, 73200, Note_on_c, 0, 60, 100
2, 73440, Note_off_c, 0, 60, 64
2, 73440, Note_on_c, 0, 64, 100
2, 73672, Note_on_c, 0, 60, 100
2, 73680, Note_off_c, 0, 64, 64
2, 74152, Note_off_c, 0, 60, 64
2, 74160, Note_on_c, 0, 67, 100
2, 74400, Note_off_c, 0, 67, 64
2, 74400, Note_on_c, 0, 67, 100
2, 74428, Pitch_bend_c, 0, 8192
2, 74444, Pitch_bend_c, 0, 8064
2, 74456, Pitch_bend_c, 0, 7936
2, 74460, Pitch_bend_c, 0, 7680
2, 74468, Pitch_bend_c, 0, 7424
2, 74476, Pitch_bend_c, 0, 7296
2, 74480, Pitch_bend_c, 0, 7168
2, 74488, Pitch_bend_c, 0, 6912
2, 74500, Pitch_bend_c, 0, 6784
2, 74504, Pitch_bend_c, 0, 6656
2, 74512, Pitch_bend_c, 0, 6400
2, 74516, Pitch_bend_c, 0, 6272
2, 74520, Pitch_bend_c, 0, 6144
2, 74528, Pitch_bend_c, 0, 5760
2, 74536, Pitch_bend_c, 0, 5632
2, 74544, Pitch_bend_c, 0, 5504
2, 74552, Pitch_bend_c, 0, 5248
2, 74560, Pitch_bend_c, 0, 5120
2, 74568, Pitch_bend_c, 0, 4864
2, 74576, Pitch_bend_c, 0, 4736
2, 74580, Pitch_bend_c, 0, 4608
2, 74584, Pitch_bend_c, 0, 4480
2, 74588, Pitch_bend_c, 0, 4352
2, 74592, Pitch_bend_c, 0, 3840
2, 74596, Pitch_bend_c, 0, 3712
2, 74600, Pitch_bend_c, 0, 3584
2, 74604, Pitch_bend_c, 0, 3328
2, 74608, Pitch_bend_c, 0, 3200
2, 74620, Pitch_bend_c, 0, 2944
2, 74624, Pitch_bend_c, 0, 2688
2, 74628, Pitch_bend_c, 0, 2560
2, 74644, Pitch_bend_c, 0, 2304
2, 74656, Pitch_bend_c, 0, 2176
2, 74664, Pitch_bend_c, 0, 2048
2, 74672, Pitch_bend_c, 0, 1920
2, 74676, Pitch_bend_c, 0, 1792
2, 74684, Pitch_bend_c, 0, 1664
2, 74688, Pitch_bend_c, 0, 1536
2, 74696, Pitch_bend_c, 0, 8192
2, 75120, Note_off_c, 0, 67, 64
2, 75140, Program_c, 0, 66
2, 75840, Note_on_c, 0, 69, 100
2, 75956, Note_off_c, 0, 69, 64
2, 75960, Note_on_c, 0, 72, 100
2, 76076, Note_off_c, 0, 72, 64
2, 76080, Note_on_c, 0, 76, 100
2, 76320, Note_off_c, 0, 76, 64
2, 76320, Note_on_c, 0, 74, 100
2, 76800, Note_off_c, 0, 74, 64
2, 76800, Note_on_c, 0, 74, 100
2, 77040, Note_off_c, 0, 74, 64
2, 77040, Note_on_c, 0, 74, 100
2, 77280, Note_off_c, 0, 74, 64
2, 78480, Note_on_c, 0, 76, 100
2, 78720, Note_off_c, 0, 76, 64
2, 78720, Note_on_c, 0, 79, 100
2, 78836, Note_off_c, 0, 79, 64
2, 78840, Note_on_c, 0, 81, 100
2, 79200, Note_off_c, 0, 81, 64
2, 79200, Note_on_c, 0, 79, 100
2, 79316, Note_off_c, 0, 79, 64
2, 79320, Note_on_c, 0, 76, 100
2, 79436, Note_off_c, 0, 76, 64
2, 79680, Note_on_c, 0, 69, 100
2, 79796, Note_off_c, 0, 69, 64
2, 79800, Note_on_c, 0, 72, 100
2, 79916, Note_off_c, 0, 72, 64
2, 79920, Note_on_c, 0, 76, 100
2, 80280, Note_off_c, 0, 76, 64
2, 80280, Note_on_c, 0, 76, 100
2, 80640, Note_off_c, 0, 76, 64
2, 80640, Note_on_c, 0, 76, 100
2, 80880, Note_off_c, 0, 76, 64
2, 80880, Note_on_c, 0, 74, 100
2, 80996, Note_off_c, 0, 74, 64
2, 81000, Note_on_c, 0, 72, 100
2, 81116, Note_off_c, 0, 72, 64
2, 81120, Note_on_c, 0, 74, 100
2, 81360, Note_off_c, 0, 74, 64
2, 81840, Note_on_c, 0, 75, 100
2, 82080, Note_off_c, 0, 75, 64
2, 82080, Note_on_c, 0, 74, 100
2, 82196, Note_off_c, 0, 74, 64
2, 82200, Note_on_c, 0, 72, 100
2, 82560, Note_off_c, 0, 72, 64
2, 82560, Note_on_c, 0, 68, 100
2, 82676, Note_off_c, 0, 68, 64
2, 82680, Note_on_c, 0, 72, 100
2, 82796, Note_off_c, 0, 72, 64
2, 82800, Note_on_c, 0, 75, 100
2, 83280, Note_off_c, 0, 75, 64
2, 83280, Note_on_c, 0, 75, 100
2, 83520, Note_off_c, 0, 75, 64
2, 83520, Note_on_c, 0, 74, 100
2, 83636, Note_off_c, 0, 74, 64
2, 83640, Note_on_c, 0, 72, 100
2, 83756, Note_off_c, 0, 72, 64
2, 83760, Note_on_c, 0, 74, 100
2, 83876, Note_off_c, 0, 74, 64
2, 83880, Note_on_c, 0, 72, 100
2, 83996, Note_off_c, 0, 72, 64
2, 84000, Note_on_c, 0, 68, 100
2, 84960, Note_off_c, 0, 68, 64
2, 85200, Note_on_c, 0, 84, 100
2, 86400, Note_off_c, 0, 84, 64
2, 86400, Note_on_c, 0, 86, 100
2, 86640, Note_off_c, 0, 86, 64
2, 86640, Note_on_c, 0, 81, 100
2, 87600, Note_off_c, 0, 81, 64
2, 88680, Note_on_c, 0, 81, 100
2, 88796, Note_off_c, 0, 81, 64
2, 88800, Note_on_c, 0, 79, 100
2, 88916, Note_off_c, 0, 79, 64
2, 88920, Note_on_c, 0, 81, 100
2, 89036, Note_off_c, 0, 81, 64
2, 89040, Note_on_c, 0, 79, 100
2, 89280, Note_off_c, 0, 79, 64
2, 89280, Note_on_c, 0, 79, 100
2, 89396, Note_off_c, 0, 79, 64
2, 89400, Note_on_c, 0, 81, 100
2, 89760, Note_off_c, 0, 81, 64
2, 89760, Note_on_c, 0, 79, 100
2, 89876, Note_off_c, 0, 79, 64
2, 89880, Note_on_c, 0, 76, 100
2, 90600, Note_off_c, 0, 76, 64
2, 91080, Note_on_c, 0, 69, 100
2, 91196, Note_off_c, 0, 69, 64
2, 91200, Note_on_c, 0, 72, 100
2, 91316, Note_off_c, 0, 72, 64
2, 91320, Note_on_c, 0, 76, 100
2, 91920, Note_off_c, 0, 76, 64
2, 91920, Note_on_c, 0, 74, 100
2, 92280, Note_off_c, 0, 74, 64
2, 92280, Note_on_c, 0, 74, 100
2, 92640, Note_off_c, 0, 74, 64
2, 92640, Note_on_c, 0, 74, 100
2, 92880, Note_off_c, 0, 74, 64
2, 92880, End_track
3, 0, Start_track
3, 0, Title_t, "backup"
3, 0, MIDI_port, 0
3, 0, Channel_prefix, 1
3, 0, Control_c, 1, 7, 110
3, 0, Control_c, 1, 10, 90
3, 0, Program_c, 1, 64
3, 58320, Note_on_c, 1, 76, 100
3, 58560, Note_off_c, 1, 76, 64
3, 58560, Note_on_c, 1, 79, 100
3, 58560, Note_on_c, 1, 76, 100
3, 58800, Note_off_c, 1, 76, 64
3, 58800, Note_off_c, 1, 79, 64
3, 58800, Note_on_c, 1, 76, 100
3, 58800, Note_on_c, 1, 81, 100
3, 59280, Note_on_c, 1, 57, 100
3, 59492, Note_on_c, 1, 55, 100
3, 59520, Note_off_c, 1, 57, 64
3, 59732, Note_off_c, 1, 55, 64
3, 59760, Note_off_c, 1, 81, 64
3, 59760, Note_off_c, 1, 76, 64
3, 59760, Note_on_c, 1, 53, 100
3, 60240, Note_on_c, 1, 77, 100
3, 60240, Note_on_c, 1, 81, 100
3, 60720, Note_off_c, 1, 81, 64
3, 60720, Note_off_c, 1, 77, 64
3, 60720, Note_off_c, 1, 53, 64
3, 60720, Note_on_c, 1, 83, 100
3, 60720, Note_on_c, 1, 79, 100
3, 60720, Note_on_c, 1, 55, 100
3, 61200, Note_off_c, 1, 79, 64
3, 61200, Note_off_c, 1, 83, 64
3, 61200, Note_on_c, 1, 77, 100
3, 61200, Note_on_c, 1, 81, 100
3, 61440, Note_off_c, 1, 81, 64
3, 61440, Note_off_c, 1, 77, 64
3, 61440, Note_on_c, 1, 79, 100
3, 61440, Note_on_c, 1, 83, 100
3, 61556, Note_off_c, 1, 83, 64
3, 61556, Note_off_c, 1, 79, 64
3, 61560, Note_on_c, 1, 77, 100
3, 61560, Note_on_c, 1, 81, 100
3, 61676, Note_off_c, 1, 81, 64
3, 61676, Note_off_c, 1, 77, 64
3, 61680, Note_off_c, 1, 55, 64
3, 62160, Note_on_c, 1, 76, 100
3, 62400, Note_off_c, 1, 76, 64
3, 62400, Note_on_c, 1, 79, 100
3, 62400, Note_on_c, 1, 76, 100
3, 62640, Note_off_c, 1, 76, 64
3, 62640, Note_off_c, 1, 79, 64
3, 62640, Note_on_c, 1, 76, 100
3, 62640, Note_on_c, 1, 81, 100
3, 63120, Note_on_c, 1, 57, 100
3, 63360, Note_off_c, 1, 57, 64
3, 63360, Note_on_c, 1, 55, 100
3, 63600, Note_off_c, 1, 81, 64
3, 63600, Note_off_c, 1, 76, 64
3, 63600, Note_off_c, 1, 55, 64
3, 63600, Note_on_c, 1, 53, 100
3, 64080, Note_on_c, 1, 77, 100
3, 64080, Note_on_c, 1, 81, 100
3, 64560, Note_off_c, 1, 81, 64
3, 64560, Note_off_c, 1, 77, 64
3, 64560, Note_off_c, 1, 53, 64
3, 64560, Note_on_c, 1, 83, 100
3, 64560, Note_on_c, 1, 79, 100
3, 64560, Note_on_c, 1, 55, 100
3, 65040, Note_off_c, 1, 79, 64
3, 65040, Note_off_c, 1, 83, 64
3, 65040, Note_on_c, 1, 77, 100
3, 65040, Note_on_c, 1, 81, 100
3, 65280, Note_off_c, 1, 81, 64
3, 65280, Note_off_c, 1, 77, 64
3, 65280, Note_on_c, 1, 79, 100
3, 65280, Note_on_c, 1, 83, 100
3, 65396, Note_off_c, 1, 83, 64
3, 65396, Note_off_c, 1, 79, 64
3, 65400, Note_on_c, 1, 77, 100
3, 65400, Note_on_c, 1, 81, 100
3, 65516, Note_off_c, 1, 81, 64
3, 65516, Note_off_c, 1, 77, 64
3, 65520, Note_off_c, 1, 55, 64
3, 65520, Note_on_c, 1, 60, 100
3, 65520, Note_on_c, 1, 76, 100
3, 65520, Note_on_c, 1, 79, 100
3, 66000, Note_off_c, 1, 60, 64
3, 66240, Note_off_c, 1, 76, 64
3, 66240, Note_off_c, 1, 79, 64
3, 66240, Note_on_c, 1, 57, 100
3, 66240, Note_on_c, 1, 76, 100
3, 66240, Note_on_c, 1, 81, 100
3, 66720, Note_off_c, 1, 81, 64
3, 66720, Note_off_c, 1, 57, 64
3, 66720, Note_on_c, 1, 79, 100
3, 66960, Note_off_c, 1, 76, 64
3, 66960, Note_off_c, 1, 79, 64
3, 66960, Note_on_c, 1, 53, 100
3, 66960, Note_on_c, 1, 81, 100
3, 66960, Note_on_c, 1, 77, 100
3, 67440, Note_off_c, 1, 77, 64
3, 67440, Note_off_c, 1, 81, 64
3, 67440, Note_off_c, 1, 53, 64
3, 67680, Note_on_c, 1, 55, 100
3, 67680, Note_on_c, 1, 79, 100
3, 67680, Note_on_c, 1, 83, 100
3, 68160, Note_off_c, 1, 83, 64
3, 68160, Note_off_c, 1, 79, 64
3, 68160, Note_off_c, 1, 55, 64
3, 68160, Note_on_c, 1, 81, 100
3, 68160, Note_on_c, 1, 77, 100
3, 68400, Note_off_c, 1, 77, 64
3, 68400, Note_off_c, 1, 81, 64
3, 68400, Note_on_c, 1, 60, 100
3, 68400, Note_on_c, 1, 76, 100
3, 68400, Note_on_c, 1, 79, 100
3, 68880, Note_off_c, 1, 60, 64
3, 69120, Note_off_c, 1, 76, 64
3, 69120, Note_off_c, 1, 79, 64
3, 69120, Note_on_c, 1, 57, 100
3, 69120, Note_on_c, 1, 76, 100
3, 69120, Note_on_c, 1, 81, 100
3, 69600, Note_off_c, 1, 81, 64
3, 69600, Note_off_c, 1, 57, 64
3, 69600, Note_on_c, 1, 79, 100
3, 69840, Note_off_c, 1, 76, 64
3, 69840, Note_off_c, 1, 79, 64
3, 69840, Note_on_c, 1, 53, 100
3, 69840, Note_on_c, 1, 81, 100
3, 69840, Note_on_c, 1, 77, 100
3, 70320, Note_off_c, 1, 77, 64
3, 70320, Note_off_c, 1, 81, 64
3, 70320, Note_off_c, 1, 53, 64
3, 70560, Note_on_c, 1, 55, 100
3, 70560, Note_on_c, 1, 79, 100
3, 70560, Note_on_c, 1, 83, 100
3, 71040, Note_off_c, 1, 83, 64
3, 71040, Note_off_c, 1, 79, 64
3, 71040, Note_off_c, 1, 55, 64
3, 71040, Note_on_c, 1, 81, 100
3, 71040, Note_on_c, 1, 77, 100
3, 71280, Note_off_c, 1, 77, 64
3, 71280, Note_off_c, 1, 81, 64
3, 71280, Note_on_c, 1, 60, 100
3, 71280, Note_on_c, 1, 76, 100
3, 71280, Note_on_c, 1, 79, 100
3, 71760, Note_off_c, 1, 60, 64
3, 72000, Note_off_c, 1, 76, 64
3, 72000, Note_off_c, 1, 79, 64
3, 72000, Note_on_c, 1, 57, 100
3, 72000, Note_on_c, 1, 76, 100
3, 72000, Note_on_c, 1, 81, 100
3, 72480, Note_off_c, 1, 81, 64
3, 72480, Note_off_c, 1, 57, 64
3, 72480, Note_on_c, 1, 79, 100
3, 72720, Note_off_c, 1, 76, 64
3, 72720, Note_off_c, 1, 79, 64
3, 72720, Note_on_c, 1, 53, 100
3, 72720, Note_on_c, 1, 81, 100
3, 72720, Note_on_c, 1, 77, 100
3, 73200, Note_off_c, 1, 77, 64
3, 73200, Note_off_c, 1, 81, 64
3, 73200, Note_off_c, 1, 53, 64
3, 73440, Note_on_c, 1, 55, 100
3, 73440, Note_on_c, 1, 79, 100
3, 73440, Note_on_c, 1, 83, 100
3, 73920, Note_off_c, 1, 83, 64
3, 73920, Note_off_c, 1, 79, 64
3, 73920, Note_off_c, 1, 55, 64
3, 73920, Note_on_c, 1, 81, 100
3, 73920, Note_on_c, 1, 77, 100
3, 74160, Note_off_c, 1, 77, 64
3, 74160, Note_off_c, 1, 81, 64
3, 74160, Note_on_c, 1, 79, 100
3, 74160, Note_on_c, 1, 76, 100
3, 74400, Note_off_c, 1, 76, 64
3, 74400, Note_off_c, 1, 79, 64
3, 74640, Note_on_c, 1, 79, 100
3, 74640, Note_on_c, 1, 76, 100
3, 74880, Note_off_c, 1, 76, 64
3, 74880, Note_off_c, 1, 79, 64
3, 74880, Note_on_c, 1, 79, 100
3, 74880, Note_on_c, 1, 76, 100
3, 75120, Note_off_c, 1, 76, 64
3, 75120, Note_off_c, 1, 79, 64
3, 75120, Note_on_c, 1, 81, 100
3, 75120, Note_on_c, 1, 76, 100
3, 75600, Note_on_c, 1, 57, 100
3, 75840, Note_off_c, 1, 57, 64
3, 75840, Note_on_c, 1, 55, 100
3, 76080, Note_off_c, 1, 76, 64
3, 76080, Note_off_c, 1, 81, 64
3, 76080, Note_off_c, 1, 55, 64
3, 76080, Note_on_c, 1, 53, 100
3, 76560, Note_off_c, 1, 53, 64
3, 76560, Note_on_c, 1, 81, 100
3, 76560, Note_on_c, 1, 77, 100
3, 77040, Note_off_c, 1, 77, 64
3, 77040, Note_off_c, 1, 81, 64
3, 77040, Note_on_c, 1, 83, 100
3, 77040, Note_on_c, 1, 79, 100
3, 77520, Note_off_c, 1, 79, 64
3, 77520, Note_off_c, 1, 83, 64
3, 77520, Note_on_c, 1, 55, 100
3, 77520, Note_on_c, 1, 81, 100
3, 77520, Note_on_c, 1, 77, 100
3, 77760, Note_off_c, 1, 77, 64
3, 77760, Note_off_c, 1, 81, 64
3, 77760, Note_on_c, 1, 79, 100
3, 77760, Note_on_c, 1, 83, 100
3, 77876, Note_off_c, 1, 83, 64
3, 77876, Note_off_c, 1, 79, 64
3, 77880, Note_on_c, 1, 77, 100
3, 77880, Note_on_c, 1, 81, 100
3, 77996, Note_off_c, 1, 81, 64
3, 77996, Note_off_c, 1, 77, 64
3, 78000, Note_off_c, 1, 55, 64
3, 78000, Note_on_c, 1, 79, 100
3, 78000, Note_on_c, 1, 76, 100
3, 78240, Note_off_c, 1, 76, 64
3, 78240, Note_off_c, 1, 79, 64
3, 78480, Note_on_c, 1, 79, 100
3, 78480, Note_on_c, 1, 76, 100
3, 78720, Note_off_c, 1, 76, 64
3, 78720, Note_off_c, 1, 79, 64
3, 78720, Note_on_c, 1, 76, 100
3, 78720, Note_on_c, 1, 79, 100
3, 78960, Note_off_c, 1, 79, 64
3, 78960, Note_off_c, 1, 76, 64
3, 78960, Note_on_c, 1, 81, 100
3, 78960, Note_on_c, 1, 76, 100
3, 79440, Note_on_c, 1, 57, 100
3, 79680, Note_off_c, 1, 57, 64
3, 79680, Note_on_c, 1, 55, 100
3, 79920, Note_off_c, 1, 76, 64
3, 79920, Note_off_c, 1, 81, 64
3, 79920, Note_off_c, 1, 55, 64
3, 79920, Note_on_c, 1, 53, 100
3, 80400, Note_off_c, 1, 53, 64
3, 80400, Note_on_c, 1, 77, 100
3, 80400, Note_on_c, 1, 81, 100
3, 80880, Note_off_c, 1, 81, 64
3, 80880, Note_off_c, 1, 77, 64
3, 80880, Note_on_c, 1, 55, 100
3, 80880, Note_on_c, 1, 83, 100
3, 80880, Note_on_c, 1, 79, 100
3, 81360, Note_off_c, 1, 79, 64
3, 81360, Note_off_c, 1, 83, 64
3, 81360, Note_off_c, 1, 55, 64
3, 81360, Note_on_c, 1, 77, 100
3, 81360, Note_on_c, 1, 81, 100
3, 81600, Note_off_c, 1, 81, 64
3, 81600, Note_off_c, 1, 77, 64
3, 81600, Note_on_c, 1, 79, 100
3, 81600, Note_on_c, 1, 83, 100
3, 81716, Note_off_c, 1, 83, 64
3, 81716, Note_off_c, 1, 79, 64
3, 81720, Note_on_c, 1, 77, 100
3, 81720, Note_on_c, 1, 81, 100
3, 81836, Note_off_c, 1, 81, 64
3, 81836, Note_off_c, 1, 77, 64
3, 81840, Note_on_c, 1, 80, 100
3, 81840, Note_on_c, 1, 77, 100
3, 83760, Note_off_c, 1, 77, 64
3, 83760, Note_off_c, 1, 80, 64
3, 86160, Note_on_c, 1, 79, 100
3, 86160, Note_on_c, 1, 76, 100
3, 86400, Note_off_c, 1, 76, 64
3, 86400, Note_off_c, 1, 79, 64
3, 86400, Note_on_c, 1, 76, 100
3, 86400, Note_on_c, 1, 79, 100
3, 86640, Note_off_c, 1, 79, 64
3, 86640, Note_off_c, 1, 76, 64
3, 86640, Note_on_c, 1, 81, 100
3, 86640, Note_on_c, 1, 76, 100
3, 87120, Note_on_c, 1, 57, 100
3, 87360, Note_off_c, 1, 57, 64
3, 87360, Note_on_c, 1, 55, 100
3, 87600, Note_off_c, 1, 76, 64
3, 87600, Note_off_c, 1, 81, 64
3, 87600, Note_off_c, 1, 55, 64
3, 87600, Note_on_c, 1, 53, 100
3, 88080, Note_off_c, 1, 53, 64
3, 88080, Note_on_c, 1, 81, 100
3, 88080, Note_on_c, 1, 77, 100
3, 88560, Note_off_c, 1, 77, 64
3, 88560, Note_off_c, 1, 81, 64
3, 88560, Note_on_c, 1, 83, 100
3, 88560, Note_on_c, 1, 79, 100
3, 88560, Note_on_c, 1, 55, 100
3, 89040, Note_off_c, 1, 55, 64
3, 89040, Note_off_c, 1, 79, 64
3, 89040, Note_off_c, 1, 83, 64
3, 89040, Note_on_c, 1, 81, 100
3, 89040, Note_on_c, 1, 77, 100
3, 89280, Note_off_c, 1, 77, 64
3, 89280, Note_off_c, 1, 81, 64
3, 89280, Note_on_c, 1, 83, 100
3, 89280, Note_on_c, 1, 79, 100
3, 89396, Note_off_c, 1, 79, 64
3, 89396, Note_off_c, 1, 83, 64
3, 89400, Note_on_c, 1, 77, 100
3, 89400, Note_on_c, 1, 81, 100
3, 89516, Note_off_c, 1, 81, 64
3, 89516, Note_off_c, 1, 77, 64
3, 89520, Note_on_c, 1, 76, 100
3, 89520, Note_on_c, 1, 79, 100
3, 89760, Note_off_c, 1, 79, 64
3, 89760, Note_off_c, 1, 76, 64
3, 90000, Note_on_c, 1, 79, 100
3, 90000, Note_on_c, 1, 76, 100
3, 90240, Note_off_c, 1, 76, 64
3, 90240, Note_off_c, 1, 79, 64
3, 90240, Note_on_c, 1, 76, 100
3, 90240, Note_on_c, 1, 79, 100
3, 90480, Note_off_c, 1, 79, 64
3, 90480, Note_off_c, 1, 76, 64
3, 90480, Note_on_c, 1, 76, 100
3, 90480, Note_on_c, 1, 81, 100
3, 90960, Note_on_c, 1, 57, 100
3, 91200, Note_off_c, 1, 57, 64
3, 91200, Note_on_c, 1, 55, 100
3, 91440, Note_off_c, 1, 81, 64
3, 91440, Note_off_c, 1, 76, 64
3, 91440, Note_off_c, 1, 55, 64
3, 91440, Note_on_c, 1, 53, 100
3, 91920, Note_off_c, 1, 53, 64
3, 91920, Note_on_c, 1, 77, 100
3, 91920, Note_on_c, 1, 81, 100
3, 92160, Note_off_c, 1, 81, 64
3, 92160, Note_off_c, 1, 77, 64
3, 92160, Note_on_c, 1, 77, 100
3, 92160, Note_on_c, 1, 81, 100
3, 92400, Note_off_c, 1, 81, 64
3, 92400, Note_off_c, 1, 77, 64
3, 92400, Note_on_c, 1, 55, 100
3, 92400, Note_on_c, 1, 79, 100
3, 92400, Note_on_c, 1, 83, 100
3, 92880, Note_off_c, 1, 83, 64
3, 92880, Note_off_c, 1, 79, 64
3, 92880, Note_off_c, 1, 55, 64
3, 92880, Note_on_c, 1, 77, 100
3, 92880, Note_on_c, 1, 81, 100
3, 93360, Note_off_c, 1, 81, 64
3, 93360, Note_off_c, 1, 77, 64
3, 93360, Note_on_c, 1, 76, 100
3, 93360, Note_on_c, 1, 79, 100
3, 96240, Note_off_c, 1, 79, 64
3, 96240, Note_off_c, 1, 76, 64
3, 96240, End_track
4, 0, Start_track
4, 0, Title_t, "g1"
4, 0, MIDI_port, 0
4, 0, Channel_prefix, 2
4, 0, Control_c, 2, 7, 80
4, 0, Control_c, 2, 10, 15
4, 0, Program_c, 2, 25
4, 3840, Note_on_c, 2, 67, 104
4, 3840, Note_on_c, 2, 45, 100
4, 4064, Note_on_c, 2, 52, 100
4, 4208, Note_on_c, 2, 55, 100
4, 4292, Note_off_c, 2, 52, 64
4, 4296, Note_off_c, 2, 45, 64
4, 4304, Note_on_c, 2, 40, 100
4, 4436, Note_off_c, 2, 55, 64
4, 4460, Note_on_c, 2, 60, 100
4, 4524, Note_off_c, 2, 67, 64
4, 4532, Note_off_c, 2, 40, 64
4, 4568, Note_on_c, 2, 52, 109
4, 4680, Note_on_c, 2, 55, 100
4, 4688, Note_off_c, 2, 60, 64
4, 4796, Note_off_c, 2, 52, 64
4, 4800, Note_on_c, 2, 66, 108
4, 4800, Note_on_c, 2, 45, 100
4, 4908, Note_off_c, 2, 55, 64
4, 5040, Note_on_c, 2, 52, 100
4, 5164, Note_on_c, 2, 55, 100
4, 5256, Note_off_c, 2, 45, 64
4, 5268, Note_off_c, 2, 52, 64
4, 5272, Note_on_c, 2, 40, 100
4, 5392, Note_off_c, 2, 55, 64
4, 5416, Note_on_c, 2, 60, 100
4, 5484, Note_off_c, 2, 66, 64
4, 5500, Note_off_c, 2, 40, 64
4, 5504, Note_on_c, 2, 52, 100
4, 5644, Note_off_c, 2, 60, 64
4, 5656, Note_on_c, 2, 55, 100
4, 5732, Note_off_c, 2, 52, 64
4, 5760, Note_on_c, 2, 66, 103
4, 5760, Note_on_c, 2, 47, 100
4, 5884, Note_off_c, 2, 55, 64
4, 6012, Note_on_c, 2, 52, 111
4, 6120, Note_on_c, 2, 55, 100
4, 6216, Note_off_c, 2, 47, 64
4, 6240, Note_off_c, 2, 52, 64
4, 6248, Note_on_c, 2, 40, 100
4, 6348, Note_off_c, 2, 55, 64
4, 6352, Note_on_c, 2, 59, 100
4, 6444, Note_off_c, 2, 66, 64
4, 6472, Note_on_c, 2, 52, 100
4, 6476, Note_off_c, 2, 40, 64
4, 6580, Note_off_c, 2, 59, 64
4, 6600, Note_on_c, 2, 55, 100
4, 6700, Note_off_c, 2, 52, 64
4, 6708, Note_on_c, 2, 47, 100
4, 6720, Note_on_c, 2, 64, 105
4, 6828, Note_off_c, 2, 55, 64
4, 6960, Note_on_c, 2, 52, 100
4, 7080, Note_on_c, 2, 55, 100
4, 7164, Note_off_c, 2, 47, 64
4, 7188, Note_off_c, 2, 52, 64
4, 7200, Note_on_c, 2, 40, 100
4, 7308, Note_off_c, 2, 55, 64
4, 7312, Note_on_c, 2, 59, 100
4, 7404, Note_off_c, 2, 64, 64
4, 7428, Note_off_c, 2, 40, 64
4, 7432, Note_on_c, 2, 52, 108
4, 7540, Note_off_c, 2, 59, 64
4, 7560, Note_on_c, 2, 55, 100
4, 7660, Note_off_c, 2, 52, 64
4, 7680, Note_on_c, 2, 67, 110
4, 7680, Note_on_c, 2, 45, 100
4, 7788, Note_off_c, 2, 55, 64
4, 7904, Note_on_c, 2, 52, 100
4, 8048, Note_on_c, 2, 55, 100
4, 8132, Note_off_c, 2, 52, 64
4, 8136, Note_off_c, 2, 45, 64
4, 8144, Note_on_c, 2, 40, 100
4, 8276, Note_off_c, 2, 55, 64
4, 8300, Note_on_c, 2, 60, 100
4, 8364, Note_off_c, 2, 67, 64
4, 8372, Note_off_c, 2, 40, 64
4, 8408, Note_on_c, 2, 52, 107
4, 8520, Note_on_c, 2, 55, 100
4, 8528, Note_off_c, 2, 60, 64
4, 8636, Note_off_c, 2, 52, 64
4, 8640, Note_on_c, 2, 66, 100
4, 8640, Note_on_c, 2, 45, 100
4, 8748, Note_off_c, 2, 55, 64
4, 8880, Note_on_c, 2, 52, 100
4, 9004, Note_on_c, 2, 55, 100
4, 9096, Note_off_c, 2, 45, 64
4, 9108, Note_off_c, 2, 52, 64
4, 9112, Note_on_c, 2, 40, 100
4, 9232, Note_off_c, 2, 55, 64
4, 9256, Note_on_c, 2, 60, 100
4, 9324, Note_off_c, 2, 66, 64
4, 9340, Note_off_c, 2, 40, 64
4, 9344, Note_on_c, 2, 52, 109
4, 9484, Note_off_c, 2, 60, 64
4, 9496, Note_on_c, 2, 55, 100
4, 9572, Note_off_c, 2, 52, 64
4, 9600, Note_on_c, 2, 66, 100
4, 9600, Note_on_c, 2, 47, 100
4, 9724, Note_off_c, 2, 55, 64
4, 9852, Note_on_c, 2, 52, 100
4, 9960, Note_on_c, 2, 55, 100
4, 10056, Note_off_c, 2, 47, 64
4, 10080, Note_off_c, 2, 52, 64
4, 10088, Note_on_c, 2, 40, 100
4, 10188, Note_off_c, 2, 55, 64
4, 10192, Note_on_c, 2, 59, 100
4, 10284, Note_off_c, 2, 66, 64
4, 10312, Note_on_c, 2, 52, 100
4, 10316, Note_off_c, 2, 40, 64
4, 10420, Note_off_c, 2, 59, 64
4, 10440, Note_on_c, 2, 55, 100
4, 10540, Note_off_c, 2, 52, 64
4, 10548, Note_on_c, 2, 47, 100
4, 10560, Note_on_c, 2, 64, 100
4, 10668, Note_off_c, 2, 55, 64
4, 10800, Note_on_c, 2, 52, 100
4, 10920, Note_on_c, 2, 55, 100
4, 11004, Note_off_c, 2, 47, 64
4, 11028, Note_off_c, 2, 52, 64
4, 11040, Note_on_c, 2, 40, 100
4, 11148, Note_off_c, 2, 55, 64
4, 11152, Note_on_c, 2, 59, 100
4, 11244, Note_off_c, 2, 64, 64
4, 11268, Note_off_c, 2, 40, 64
4, 11272, Note_on_c, 2, 52, 100
4, 11380, Note_off_c, 2, 59, 64
4, 11400, Note_on_c, 2, 55, 100
4, 11500, Note_off_c, 2, 52, 64
4, 11520, Note_on_c, 2, 65, 100
4, 11520, Note_on_c, 2, 50, 100
4, 11628, Note_off_c, 2, 55, 64
4, 11760, Note_on_c, 2, 57, 100
4, 11880, Note_on_c, 2, 62, 100
4, 11976, Note_off_c, 2, 65, 64
4, 11976, Note_off_c, 2, 50, 64
4, 11980, Note_off_c, 2, 57, 64
4, 12000, Note_on_c, 2, 50, 100
4, 12100, Note_off_c, 2, 62, 64
4, 12120, Note_on_c, 2, 65, 100
4, 12220, Note_off_c, 2, 50, 64
4, 12240, Note_on_c, 2, 57, 100
4, 12340, Note_off_c, 2, 65, 64
4, 12480, Note_on_c, 2, 50, 100
4, 12480, Note_on_c, 2, 65, 100
4, 12696, Note_off_c, 2, 57, 64
4, 12720, Note_on_c, 2, 57, 100
4, 12840, Note_on_c, 2, 62, 100
4, 12936, Note_off_c, 2, 50, 64
4, 12936, Note_off_c, 2, 65, 64
4, 12940, Note_off_c, 2, 57, 64
4, 12960, Note_on_c, 2, 50, 100
4, 13060, Note_off_c, 2, 62, 64
4, 13080, Note_on_c, 2, 65, 100
4, 13180, Note_off_c, 2, 50, 64
4, 13200, Note_on_c, 2, 57, 100
4, 13300, Note_off_c, 2, 65, 64
4, 13440, Note_on_c, 2, 65, 100
4, 13440, Note_on_c, 2, 50, 100
4, 13656, Note_off_c, 2, 57, 64
4, 13680, Note_on_c, 2, 57, 100
4, 13800, Note_on_c, 2, 62, 100
4, 13896, Note_off_c, 2, 65, 64
4, 13896, Note_off_c, 2, 50, 64
4, 13900, Note_off_c, 2, 57, 64
4, 13920, Note_on_c, 2, 50, 100
4, 14020, Note_off_c, 2, 62, 64
4, 14040, Note_on_c, 2, 65, 100
4, 14140, Note_off_c, 2, 50, 64
4, 14160, Note_on_c, 2, 57, 100
4, 14260, Note_off_c, 2, 65, 64
4, 14400, Note_on_c, 2, 45, 100
4, 14400, Note_on_c, 2, 64, 100
4, 14616, Note_off_c, 2, 57, 64
4, 14640, Note_on_c, 2, 52, 100
4, 14760, Note_on_c, 2, 57, 100
4, 14856, Note_off_c, 2, 45, 64
4, 14856, Note_off_c, 2, 64, 64
4, 14860, Note_off_c, 2, 52, 64
4, 14880, Note_on_c, 2, 45, 100
4, 14980, Note_off_c, 2, 57, 64
4, 15000, Note_on_c, 2, 59, 100
4, 15100, Note_off_c, 2, 45, 64
4, 15120, Note_on_c, 2, 52, 100
4, 15220, Note_off_c, 2, 59, 64
4, 15360, Note_on_c, 2, 45, 100
4, 15360, Note_on_c, 2, 64, 100
4, 15576, Note_off_c, 2, 52, 64
4, 15600, Note_on_c, 2, 52, 100
4, 15720, Note_on_c, 2, 60, 100
4, 15816, Note_off_c, 2, 45, 64
4, 15816, Note_off_c, 2, 64, 64
4, 15820, Note_off_c, 2, 52, 64
4, 15840, Note_on_c, 2, 45, 100
4, 15940, Note_off_c, 2, 60, 64
4, 15960, Note_on_c, 2, 64, 100
4, 16060, Note_off_c, 2, 45, 64
4, 16080, Note_on_c, 2, 60, 100
4, 16180, Note_off_c, 2, 64, 64
4, 16320, Note_on_c, 2, 65, 100
4, 16320, Note_on_c, 2, 50, 100
4, 16536, Note_off_c, 2, 60, 64
4, 16560, Note_on_c, 2, 57, 100
4, 16680, Note_on_c, 2, 62, 100
4, 16776, Note_off_c, 2, 65, 64
4, 16776, Note_off_c, 2, 50, 64
4, 16780, Note_off_c, 2, 57, 64
4, 16800, Note_on_c, 2, 50, 100
4, 16900, Note_off_c, 2, 62, 64
4, 16920, Note_on_c, 2, 65, 100
4, 17020, Note_off_c, 2, 50, 64
4, 17040, Note_on_c, 2, 57, 100
4, 17140, Note_off_c, 2, 65, 64
4, 17280, Note_on_c, 2, 50, 100
4, 17280, Note_on_c, 2, 65, 100
4, 17496, Note_off_c, 2, 57, 64
4, 17520, Note_on_c, 2, 57, 100
4, 17640, Note_on_c, 2, 62, 100
4, 17736, Note_off_c, 2, 50, 64
4, 17736, Note_off_c, 2, 65, 64
4, 17740, Note_off_c, 2, 57, 64
4, 17760, Note_on_c, 2, 50, 100
4, 17860, Note_off_c, 2, 62, 64
4, 17880, Note_on_c, 2, 65, 100
4, 17980, Note_off_c, 2, 50, 64
4, 18000, Note_on_c, 2, 57, 100
4, 18100, Note_off_c, 2, 65, 64
4, 18240, Note_on_c, 2, 45, 100
4, 18240, Note_on_c, 2, 64, 100
4, 18456, Note_off_c, 2, 57, 64
4, 18480, Note_on_c, 2, 52, 100
4, 18600, Note_on_c, 2, 57, 100
4, 18696, Note_off_c, 2, 45, 64
4, 18696, Note_off_c, 2, 64, 64
4, 18700, Note_off_c, 2, 52, 64
4, 18720, Note_on_c, 2, 45, 100
4, 18820, Note_off_c, 2, 57, 64
4, 18840, Note_on_c, 2, 60, 100
4, 18940, Note_off_c, 2, 45, 64
4, 18960, Note_on_c, 2, 57, 100
4, 19060, Note_off_c, 2, 60, 64
4, 19200, Note_on_c, 2, 45, 100
4, 19200, Note_on_c, 2, 59, 100
4, 19416, Note_off_c, 2, 57, 64
4, 19440, Note_on_c, 2, 52, 100
4, 19560, Note_on_c, 2, 57, 100
4, 19656, Note_off_c, 2, 45, 64
4, 19656, Note_off_c, 2, 59, 64
4, 19660, Note_off_c, 2, 52, 64
4, 19680, Note_on_c, 2, 45, 100
4, 19780, Note_off_c, 2, 57, 64
4, 19800, Note_on_c, 2, 60, 100
4, 19900, Note_off_c, 2, 45, 64
4, 19920, Note_on_c, 2, 52, 100
4, 20020, Note_off_c, 2, 60, 64
4, 20160, Note_on_c, 2, 65, 100
4, 20160, Note_on_c, 2, 50, 100
4, 20376, Note_off_c, 2, 52, 64
4, 20400, Note_on_c, 2, 57, 100
4, 20520, Note_on_c, 2, 62, 100
4, 20616, Note_off_c, 2, 65, 64
4, 20616, Note_off_c, 2, 50, 64
4, 20620, Note_off_c, 2, 57, 64
4, 20640, Note_on_c, 2, 50, 100
4, 20740, Note_off_c, 2, 62, 64
4, 20760, Note_on_c, 2, 65, 100
4, 20860, Note_off_c, 2, 50, 64
4, 20880, Note_on_c, 2, 57, 100
4, 20980, Note_off_c, 2, 65, 64
4, 21120, Note_on_c, 2, 50, 100
4, 21120, Note_on_c, 2, 65, 100
4, 21336, Note_off_c, 2, 57, 64
4, 21360, Note_on_c, 2, 57, 100
4, 21480, Note_on_c, 2, 62, 100
4, 21576, Note_off_c, 2, 50, 64
4, 21576, Note_off_c, 2, 65, 64
4, 21580, Note_off_c, 2, 57, 64
4, 21600, Note_on_c, 2, 50, 100
4, 21700, Note_off_c, 2, 62, 64
4, 21720, Note_on_c, 2, 65, 100
4, 21820, Note_off_c, 2, 50, 64
4, 21840, Note_on_c, 2, 57, 100
4, 21940, Note_off_c, 2, 65, 64
4, 22080, Note_on_c, 2, 45, 100
4, 22080, Note_on_c, 2, 64, 100
4, 22296, Note_off_c, 2, 57, 64
4, 22320, Note_on_c, 2, 52, 100
4, 22440, Note_on_c, 2, 57, 100
4, 22560, Note_on_c, 2, 45, 100
4, 22680, Note_on_c, 2, 60, 100
4, 22776, Note_off_c, 2, 52, 64
4, 22800, Note_on_c, 2, 57, 100
4, 22896, Note_off_c, 2, 57, 64
4, 22992, Note_off_c, 2, 64, 64
4, 22992, Note_off_c, 2, 45, 64
4, 23016, Note_off_c, 2, 45, 64
4, 23040, Note_on_c, 2, 45, 100
4, 23040, Note_on_c, 2, 59, 100
4, 23136, Note_off_c, 2, 60, 64
4, 23280, Note_on_c, 2, 52, 100
4, 23400, Note_on_c, 2, 57, 100
4, 23520, Note_on_c, 2, 45, 100
4, 23640, Note_on_c, 2, 60, 100
4, 23712, Note_off_c, 2, 57, 64
4, 23736, Note_off_c, 2, 52, 64
4, 23760, Note_on_c, 2, 52, 100
4, 23856, Note_off_c, 2, 57, 64
4, 23952, Note_off_c, 2, 45, 64
4, 23952, Note_off_c, 2, 59, 64
4, 23976, Note_off_c, 2, 45, 64
4, 24000, Note_on_c, 2, 50, 100
4, 24000, Note_on_c, 2, 65, 100
4, 24096, Note_off_c, 2, 60, 64
4, 24240, Note_on_c, 2, 57, 100
4, 24360, Note_on_c, 2, 62, 100
4, 24456, Note_off_c, 2, 50, 64
4, 24456, Note_off_c, 2, 65, 64
4, 24460, Note_off_c, 2, 57, 64
4, 24480, Note_on_c, 2, 50, 100
4, 24580, Note_off_c, 2, 62, 64
4, 24600, Note_on_c, 2, 65, 100
4, 24672, Note_off_c, 2, 52, 64
4, 24700, Note_off_c, 2, 50, 64
4, 24720, Note_on_c, 2, 57, 100
4, 24820, Note_off_c, 2, 65, 64
4, 24960, Note_on_c, 2, 50, 100
4, 24960, Note_on_c, 2, 65, 100
4, 25176, Note_off_c, 2, 57, 64
4, 25200, Note_on_c, 2, 57, 100
4, 25320, Note_on_c, 2, 62, 100
4, 25416, Note_off_c, 2, 50, 64
4, 25416, Note_off_c, 2, 65, 64
4, 25420, Note_off_c, 2, 57, 64
4, 25440, Note_on_c, 2, 50, 100
4, 25540, Note_off_c, 2, 62, 64
4, 25560, Note_on_c, 2, 65, 100
4, 25660, Note_off_c, 2, 50, 64
4, 25680, Note_on_c, 2, 57, 100
4, 25780, Note_off_c, 2, 65, 64
4, 25920, Note_on_c, 2, 65, 100
4, 25920, Note_on_c, 2, 50, 100
4, 26136, Note_off_c, 2, 57, 64
4, 26160, Note_on_c, 2, 57, 100
4, 26280, Note_on_c, 2, 62, 100
4, 26376, Note_off_c, 2, 65, 64
4, 26376, Note_off_c, 2, 50, 64
4, 26380, Note_off_c, 2, 57, 64
4, 26400, Note_on_c, 2, 45, 100
4, 26400, Note_on_c, 2, 64, 100
4, 26500, Note_off_c, 2, 62, 64
4, 26640, Note_on_c, 2, 57, 100
4, 26760, Note_on_c, 2, 60, 100
4, 26860, Note_off_c, 2, 57, 64
4, 26880, Note_on_c, 2, 45, 100
4, 26980, Note_off_c, 2, 60, 64
4, 27000, Note_on_c, 2, 60, 100
4, 27100, Note_off_c, 2, 45, 64
4, 27120, Note_on_c, 2, 52, 100
4, 27220, Note_off_c, 2, 60, 64
4, 27312, Note_off_c, 2, 64, 64
4, 27312, Note_off_c, 2, 45, 64
4, 27360, Note_on_c, 2, 45, 100
4, 27360, Note_on_c, 2, 64, 100
4, 27576, Note_off_c, 2, 52, 64
4, 27600, Note_on_c, 2, 57, 100
4, 27720, Note_on_c, 2, 60, 100
4, 27816, Note_off_c, 2, 45, 64
4, 27816, Note_off_c, 2, 64, 64
4, 27820, Note_off_c, 2, 57, 64
4, 27840, Note_on_c, 2, 45, 100
4, 27940, Note_off_c, 2, 60, 64
4, 27960, Note_on_c, 2, 60, 100
4, 28060, Note_off_c, 2, 45, 64
4, 28080, Note_on_c, 2, 52, 100
4, 28180, Note_off_c, 2, 60, 64
4, 28536, Note_off_c, 2, 52, 64
4, 28560, Note_on_c, 2, 55, 100
4, 28560, Note_on_c, 2, 61, 100
4, 28560, Note_on_c, 2, 45, 100
4, 28560, Note_on_c, 2, 52, 100
4, 28560, Note_on_c, 2, 64, 100
4, 28800, Note_off_c, 2, 64, 64
4, 28800, Note_off_c, 2, 52, 64
4, 28800, Note_off_c, 2, 45, 64
4, 28800, Note_off_c, 2, 61, 64
4, 28800, Note_off_c, 2, 55, 64
4, 28800, Note_on_c, 2, 52, 100
4, 28800, Note_on_c, 2, 45, 100
4, 28800, Note_on_c, 2, 55, 100
4, 28800, Note_on_c, 2, 61, 100
4, 28800, Note_on_c, 2, 64, 100
4, 29040, Note_off_c, 2, 64, 64
4, 29040, Note_off_c, 2, 61, 64
4, 29040, Note_off_c, 2, 55, 64
4, 29040, Note_off_c, 2, 45, 64
4, 29040, Note_off_c, 2, 52, 64
4, 29280, Note_on_c, 2, 45, 100
4, 29280, Note_on_c, 2, 52, 100
4, 29280, Note_on_c, 2, 61, 100
4, 29280, Note_on_c, 2, 64, 100
4, 29280, Note_on_c, 2, 55, 100
4, 29520, Note_off_c, 2, 55, 64
4, 29520, Note_off_c, 2, 64, 64
4, 29520, Note_off_c, 2, 61, 64
4, 29520, Note_off_c, 2, 52, 64
4, 29520, Note_off_c, 2, 45, 64
4, 29520, Note_on_c, 2, 45, 100
4, 29520, Note_on_c, 2, 55, 100
4, 29520, Note_on_c, 2, 52, 100
4, 29520, Note_on_c, 2, 61, 100
4, 29520, Note_on_c, 2, 64, 100
4, 29760, Note_off_c, 2, 64, 64
4, 29760, Note_off_c, 2, 61, 64
4, 29760, Note_off_c, 2, 52, 64
4, 29760, Note_off_c, 2, 55, 64
4, 29760, Note_off_c, 2, 45, 64
4, 30000, Note_on_c, 2, 52, 100
4, 30000, Note_on_c, 2, 55, 100
4, 30000, Note_on_c, 2, 61, 100
4, 30000, Note_on_c, 2, 64, 100
4, 30240, Note_off_c, 2, 64, 64
4, 30240, Note_off_c, 2, 61, 64
4, 30240, Note_off_c, 2, 55, 64
4, 30240, Note_off_c, 2, 52, 64
4, 30240, Note_on_c, 2, 64, 100
4, 30240, Note_on_c, 2, 52, 100
4, 30240, Note_on_c, 2, 55, 100
4, 30240, Note_on_c, 2, 61, 100
4, 30480, Note_off_c, 2, 61, 64
4, 30480, Note_off_c, 2, 55, 64
4, 30480, Note_off_c, 2, 52, 64
4, 30480, Note_off_c, 2, 64, 64
4, 30720, Note_on_c, 2, 55, 100
4, 30720, Note_on_c, 2, 61, 100
4, 30720, Note_on_c, 2, 45, 100
4, 30720, Note_on_c, 2, 52, 100
4, 30720, Note_on_c, 2, 64, 100
4, 30960, Note_off_c, 2, 64, 64
4, 30960, Note_off_c, 2, 52, 64
4, 30960, Note_off_c, 2, 45, 64
4, 30960, Note_off_c, 2, 61, 64
4, 30960, Note_off_c, 2, 55, 64
4, 30960, Note_on_c, 2, 52, 100
4, 30960, Note_on_c, 2, 45, 100
4, 30960, Note_on_c, 2, 55, 100
4, 30960, Note_on_c, 2, 61, 100
4, 30960, Note_on_c, 2, 64, 100
4, 31200, Note_off_c, 2, 64, 64
4, 31200, Note_off_c, 2, 61, 64
4, 31200, Note_off_c, 2, 55, 64
4, 31200, Note_off_c, 2, 45, 64
4, 31200, Note_off_c, 2, 52, 64
4, 31440, Note_on_c, 2, 45, 100
4, 31440, Note_on_c, 2, 52, 100
4, 31440, Note_on_c, 2, 61, 100
4, 31440, Note_on_c, 2, 64, 100
4, 31440, Note_on_c, 2, 55, 100
4, 31680, Note_off_c, 2, 55, 64
4, 31680, Note_off_c, 2, 64, 64
4, 31680, Note_off_c, 2, 61, 64
4, 31680, Note_off_c, 2, 52, 64
4, 31680, Note_off_c, 2, 45, 64
4, 31680, Note_on_c, 2, 45, 100
4, 31680, Note_on_c, 2, 55, 100
4, 31680, Note_on_c, 2, 52, 100
4, 31680, Note_on_c, 2, 61, 100
4, 31680, Note_on_c, 2, 64, 100
4, 31920, Note_off_c, 2, 64, 64
4, 31920, Note_off_c, 2, 61, 64
4, 31920, Note_off_c, 2, 52, 64
4, 31920, Note_off_c, 2, 55, 64
4, 31920, Note_off_c, 2, 45, 64
4, 32160, Note_on_c, 2, 52, 100
4, 32160, Note_on_c, 2, 55, 100
4, 32160, Note_on_c, 2, 61, 100
4, 32160, Note_on_c, 2, 64, 100
4, 32160, Note_on_c, 2, 45, 100
4, 32400, Note_off_c, 2, 45, 64
4, 32400, Note_off_c, 2, 64, 64
4, 32400, Note_off_c, 2, 61, 64
4, 32400, Note_off_c, 2, 55, 64
4, 32400, Note_off_c, 2, 52, 64
4, 32400, Note_on_c, 2, 64, 100
4, 32400, Note_on_c, 2, 52, 100
4, 32400, Note_on_c, 2, 55, 100
4, 32400, Note_on_c, 2, 61, 100
4, 32400, Note_on_c, 2, 45, 100
4, 32640, Note_off_c, 2, 45, 64
4, 32640, Note_off_c, 2, 61, 64
4, 32640, Note_off_c, 2, 55, 64
4, 32640, Note_off_c, 2, 52, 64
4, 32640, Note_off_c, 2, 64, 64
4, 32880, Note_on_c, 2, 55, 100
4, 32880, Note_on_c, 2, 52, 100
4, 32880, Note_on_c, 2, 61, 100
4, 32880, Note_on_c, 2, 64, 100
4, 32880, Note_on_c, 2, 45, 100
4, 33120, Note_off_c, 2, 45, 64
4, 33120, Note_off_c, 2, 64, 64
4, 33120, Note_off_c, 2, 61, 64
4, 33120, Note_off_c, 2, 52, 64
4, 33120, Note_off_c, 2, 55, 64
4, 33120, Note_on_c, 2, 55, 100
4, 33120, Note_on_c, 2, 45, 100
4, 33120, Note_on_c, 2, 61, 100
4, 33120, Note_on_c, 2, 52, 100
4, 33120, Note_on_c, 2, 64, 100
4, 33360, Note_off_c, 2, 64, 64
4, 33360, Note_off_c, 2, 52, 64
4, 33360, Note_off_c, 2, 61, 64
4, 33360, Note_off_c, 2, 45, 64
4, 33360, Note_off_c, 2, 55, 64
4, 33600, Note_on_c, 2, 60, 100
4, 33600, Note_on_c, 2, 52, 100
4, 33600, Note_on_c, 2, 55, 100
4, 33600, Note_on_c, 2, 48, 100
4, 33600, Note_on_c, 2, 64, 100
4, 33840, Note_off_c, 2, 64, 64
4, 33840, Note_off_c, 2, 48, 64
4, 33840, Note_off_c, 2, 55, 64
4, 33840, Note_off_c, 2, 52, 64
4, 33840, Note_off_c, 2, 60, 64
4, 33840, Note_on_c, 2, 48, 100
4, 33840, Note_on_c, 2, 60, 100
4, 33840, Note_on_c, 2, 52, 100
4, 33840, Note_on_c, 2, 55, 100
4, 33840, Note_on_c, 2, 64, 100
4, 34080, Note_off_c, 2, 64, 64
4, 34080, Note_off_c, 2, 55, 64
4, 34080, Note_off_c, 2, 52, 64
4, 34080, Note_off_c, 2, 60, 64
4, 34080, Note_off_c, 2, 48, 64
4, 34320, Note_on_c, 2, 55, 100
4, 34320, Note_on_c, 2, 60, 100
4, 34320, Note_on_c, 2, 48, 100
4, 34320, Note_on_c, 2, 52, 100
4, 34320, Note_on_c, 2, 64, 100
4, 34560, Note_off_c, 2, 64, 64
4, 34560, Note_off_c, 2, 52, 64
4, 34560, Note_off_c, 2, 48, 64
4, 34560, Note_off_c, 2, 60, 64
4, 34560, Note_off_c, 2, 55, 64
4, 34560, Note_on_c, 2, 55, 100
4, 34560, Note_on_c, 2, 60, 100
4, 34560, Note_on_c, 2, 48, 100
4, 34560, Note_on_c, 2, 52, 100
4, 34560, Note_on_c, 2, 64, 100
4, 34800, Note_off_c, 2, 64, 64
4, 34800, Note_off_c, 2, 52, 64
4, 34800, Note_off_c, 2, 48, 64
4, 34800, Note_off_c, 2, 60, 64
4, 34800, Note_off_c, 2, 55, 64
4, 35040, Note_on_c, 2, 57, 100
4, 35040, Note_on_c, 2, 60, 100
4, 35040, Note_on_c, 2, 48, 100
4, 35040, Note_on_c, 2, 52, 100
4, 35040, Note_on_c, 2, 64, 100
4, 35280, Note_off_c, 2, 64, 64
4, 35280, Note_off_c, 2, 52, 64
4, 35280, Note_off_c, 2, 48, 64
4, 35280, Note_off_c, 2, 60, 64
4, 35280, Note_off_c, 2, 57, 64
4, 35280, Note_on_c, 2, 57, 100
4, 35280, Note_on_c, 2, 64, 100
4, 35280, Note_on_c, 2, 52, 100
4, 35280, Note_on_c, 2, 48, 100
4, 35280, Note_on_c, 2, 60, 100
4, 35520, Note_off_c, 2, 60, 64
4, 35520, Note_off_c, 2, 48, 64
4, 35520, Note_off_c, 2, 52, 64
4, 35520, Note_off_c, 2, 64, 64
4, 35520, Note_off_c, 2, 57, 64
4, 35760, Note_on_c, 2, 57, 100
4, 35760, Note_on_c, 2, 64, 100
4, 35760, Note_on_c, 2, 52, 100
4, 35760, Note_on_c, 2, 60, 100
4, 35760, Note_on_c, 2, 48, 100
4, 36000, Note_off_c, 2, 48, 64
4, 36000, Note_off_c, 2, 60, 64
4, 36000, Note_off_c, 2, 52, 64
4, 36000, Note_off_c, 2, 64, 64
4, 36000, Note_off_c, 2, 57, 64
4, 36000, Note_on_c, 2, 57, 100
4, 36000, Note_on_c, 2, 60, 100
4, 36000, Note_on_c, 2, 48, 100
4, 36000, Note_on_c, 2, 64, 100
4, 36000, Note_on_c, 2, 52, 100
4, 36240, Note_off_c, 2, 52, 64
4, 36240, Note_off_c, 2, 64, 64
4, 36240, Note_off_c, 2, 48, 64
4, 36240, Note_off_c, 2, 60, 64
4, 36240, Note_off_c, 2, 57, 64
4, 36480, Note_on_c, 2, 55, 100
4, 36480, Note_on_c, 2, 61, 100
4, 36480, Note_on_c, 2, 45, 100
4, 36480, Note_on_c, 2, 52, 100
4, 36480, Note_on_c, 2, 64, 100
4, 36720, Note_off_c, 2, 64, 64
4, 36720, Note_off_c, 2, 52, 64
4, 36720, Note_off_c, 2, 45, 64
4, 36720, Note_off_c, 2, 61, 64
4, 36720, Note_off_c, 2, 55, 64
4, 36720, Note_on_c, 2, 52, 100
4, 36720, Note_on_c, 2, 45, 100
4, 36720, Note_on_c, 2, 55, 100
4, 36720, Note_on_c, 2, 61, 100
4, 36720, Note_on_c, 2, 64, 100
4, 36960, Note_off_c, 2, 64, 64
4, 36960, Note_off_c, 2, 61, 64
4, 36960, Note_off_c, 2, 55, 64
4, 36960, Note_off_c, 2, 45, 64
4, 36960, Note_off_c, 2, 52, 64
4, 37200, Note_on_c, 2, 45, 100
4, 37200, Note_on_c, 2, 52, 100
4, 37200, Note_on_c, 2, 61, 100
4, 37200, Note_on_c, 2, 64, 100
4, 37200, Note_on_c, 2, 55, 100
4, 37440, Note_off_c, 2, 55, 64
4, 37440, Note_off_c, 2, 64, 64
4, 37440, Note_off_c, 2, 61, 64
4, 37440, Note_off_c, 2, 52, 64
4, 37440, Note_off_c, 2, 45, 64
4, 37440, Note_on_c, 2, 45, 100
4, 37440, Note_on_c, 2, 55, 100
4, 37440, Note_on_c, 2, 52, 100
4, 37440, Note_on_c, 2, 61, 100
4, 37440, Note_on_c, 2, 64, 100
4, 37680, Note_off_c, 2, 64, 64
4, 37680, Note_off_c, 2, 61, 64
4, 37680, Note_off_c, 2, 52, 64
4, 37680, Note_off_c, 2, 55, 64
4, 37680, Note_off_c, 2, 45, 64
4, 37920, Note_on_c, 2, 52, 100
4, 37920, Note_on_c, 2, 55, 100
4, 37920, Note_on_c, 2, 61, 100
4, 37920, Note_on_c, 2, 64, 100
4, 38160, Note_off_c, 2, 64, 64
4, 38160, Note_off_c, 2, 61, 64
4, 38160, Note_off_c, 2, 55, 64
4, 38160, Note_off_c, 2, 52, 64
4, 38160, Note_on_c, 2, 64, 100
4, 38160, Note_on_c, 2, 52, 100
4, 38160, Note_on_c, 2, 55, 100
4, 38160, Note_on_c, 2, 61, 100
4, 38400, Note_off_c, 2, 61, 64
4, 38400, Note_off_c, 2, 55, 64
4, 38400, Note_off_c, 2, 52, 64
4, 38400, Note_off_c, 2, 64, 64
4, 38640, Note_on_c, 2, 55, 100
4, 38640, Note_on_c, 2, 61, 100
4, 38640, Note_on_c, 2, 45, 100
4, 38640, Note_on_c, 2, 52, 100
4, 38640, Note_on_c, 2, 64, 100
4, 38880, Note_off_c, 2, 64, 64
4, 38880, Note_off_c, 2, 52, 64
4, 38880, Note_off_c, 2, 45, 64
4, 38880, Note_off_c, 2, 61, 64
4, 38880, Note_off_c, 2, 55, 64
4, 38880, Note_on_c, 2, 52, 100
4, 38880, Note_on_c, 2, 45, 100
4, 38880, Note_on_c, 2, 55, 100
4, 38880, Note_on_c, 2, 61, 100
4, 38880, Note_on_c, 2, 64, 100
4, 39120, Note_off_c, 2, 64, 64
4, 39120, Note_off_c, 2, 61, 64
4, 39120, Note_off_c, 2, 55, 64
4, 39120, Note_off_c, 2, 45, 64
4, 39120, Note_off_c, 2, 52, 64
4, 39360, Note_on_c, 2, 45, 100
4, 39360, Note_on_c, 2, 52, 100
4, 39360, Note_on_c, 2, 61, 100
4, 39360, Note_on_c, 2, 64, 100
4, 39360, Note_on_c, 2, 55, 100
4, 39600, Note_off_c, 2, 55, 64
4, 39600, Note_off_c, 2, 64, 64
4, 39600, Note_off_c, 2, 61, 64
4, 39600, Note_off_c, 2, 52, 64
4, 39600, Note_off_c, 2, 45, 64
4, 39600, Note_on_c, 2, 45, 100
4, 39600, Note_on_c, 2, 55, 100
4, 39600, Note_on_c, 2, 52, 100
4, 39600, Note_on_c, 2, 61, 100
4, 39600, Note_on_c, 2, 64, 100
4, 39840, Note_off_c, 2, 64, 64
4, 39840, Note_off_c, 2, 61, 64
4, 39840, Note_off_c, 2, 52, 64
4, 39840, Note_off_c, 2, 55, 64
4, 39840, Note_off_c, 2, 45, 64
4, 40080, Note_on_c, 2, 52, 100
4, 40080, Note_on_c, 2, 55, 100
4, 40080, Note_on_c, 2, 61, 100
4, 40080, Note_on_c, 2, 64, 100
4, 40080, Note_on_c, 2, 45, 100
4, 40320, Note_off_c, 2, 45, 64
4, 40320, Note_off_c, 2, 64, 64
4, 40320, Note_off_c, 2, 61, 64
4, 40320, Note_off_c, 2, 55, 64
4, 40320, Note_off_c, 2, 52, 64
4, 40320, Note_on_c, 2, 64, 100
4, 40320, Note_on_c, 2, 52, 100
4, 40320, Note_on_c, 2, 55, 100
4, 40320, Note_on_c, 2, 61, 100
4, 40320, Note_on_c, 2, 45, 100
4, 40560, Note_off_c, 2, 45, 64
4, 40560, Note_off_c, 2, 61, 64
4, 40560, Note_off_c, 2, 55, 64
4, 40560, Note_off_c, 2, 52, 64
4, 40560, Note_off_c, 2, 64, 64
4, 40800, Note_on_c, 2, 55, 100
4, 40800, Note_on_c, 2, 52, 100
4, 40800, Note_on_c, 2, 61, 100
4, 40800, Note_on_c, 2, 64, 100
4, 40800, Note_on_c, 2, 45, 100
4, 41040, Note_off_c, 2, 45, 64
4, 41040, Note_off_c, 2, 64, 64
4, 41040, Note_off_c, 2, 61, 64
4, 41040, Note_off_c, 2, 52, 64
4, 41040, Note_off_c, 2, 55, 64
4, 41040, Note_on_c, 2, 55, 100
4, 41040, Note_on_c, 2, 45, 100
4, 41040, Note_on_c, 2, 61, 100
4, 41040, Note_on_c, 2, 52, 100
4, 41040, Note_on_c, 2, 64, 100
4, 41280, Note_off_c, 2, 64, 64
4, 41280, Note_off_c, 2, 52, 64
4, 41280, Note_off_c, 2, 61, 64
4, 41280, Note_off_c, 2, 45, 64
4, 41280, Note_off_c, 2, 55, 64
4, 41520, Note_on_c, 2, 60, 100
4, 41520, Note_on_c, 2, 52, 100
4, 41520, Note_on_c, 2, 55, 100
4, 41520, Note_on_c, 2, 48, 100
4, 41520, Note_on_c, 2, 64, 100
4, 41760, Note_off_c, 2, 64, 64
4, 41760, Note_off_c, 2, 48, 64
4, 41760, Note_off_c, 2, 55, 64
4, 41760, Note_off_c, 2, 52, 64
4, 41760, Note_off_c, 2, 60, 64
4, 41760, Note_on_c, 2, 48, 100
4, 41760, Note_on_c, 2, 60, 100
4, 41760, Note_on_c, 2, 52, 100
4, 41760, Note_on_c, 2, 55, 100
4, 41760, Note_on_c, 2, 64, 100
4, 42000, Note_off_c, 2, 64, 64
4, 42000, Note_off_c, 2, 55, 64
4, 42000, Note_off_c, 2, 52, 64
4, 42000, Note_off_c, 2, 60, 64
4, 42000, Note_off_c, 2, 48, 64
4, 42240, Note_on_c, 2, 55, 100
4, 42240, Note_on_c, 2, 60, 100
4, 42240, Note_on_c, 2, 48, 100
4, 42240, Note_on_c, 2, 52, 100
4, 42240, Note_on_c, 2, 64, 100
4, 42480, Note_off_c, 2, 64, 64
4, 42480, Note_off_c, 2, 52, 64
4, 42480, Note_off_c, 2, 48, 64
4, 42480, Note_off_c, 2, 60, 64
4, 42480, Note_off_c, 2, 55, 64
4, 42480, Note_on_c, 2, 55, 100
4, 42480, Note_on_c, 2, 60, 100
4, 42480, Note_on_c, 2, 48, 100
4, 42480, Note_on_c, 2, 52, 100
4, 42480, Note_on_c, 2, 64, 100
4, 42704, Note_on_c, 2, 52, 100
4, 42704, Note_on_c, 2, 57, 100
4, 42704, Note_on_c, 2, 60, 100
4, 42720, Note_off_c, 2, 64, 64
4, 42720, Note_off_c, 2, 52, 64
4, 42720, Note_off_c, 2, 48, 64
4, 42720, Note_off_c, 2, 60, 64
4, 42720, Note_off_c, 2, 55, 64
4, 42720, Note_on_c, 2, 48, 100
4, 42736, Note_on_c, 2, 64, 100
4, 44144, Note_off_c, 2, 52, 64
4, 44144, Note_off_c, 2, 57, 64
4, 44144, Note_off_c, 2, 60, 64
4, 44160, Note_off_c, 2, 48, 64
4, 44160, Note_on_c, 2, 61, 100
4, 44160, Note_on_c, 2, 45, 100
4, 44160, Note_on_c, 2, 52, 100
4, 44160, Note_on_c, 2, 55, 100
4, 44160, Note_on_c, 2, 64, 100
4, 44176, Note_off_c, 2, 64, 64
4, 44276, Note_off_c, 2, 61, 64
4, 44276, Note_off_c, 2, 45, 64
4, 44276, Note_off_c, 2, 52, 64
4, 44276, Note_off_c, 2, 55, 64
4, 44276, Note_off_c, 2, 64, 64
4, 44280, Note_on_c, 2, 52, 100
4, 44280, Note_on_c, 2, 45, 100
4, 44280, Note_on_c, 2, 55, 100
4, 44280, Note_on_c, 2, 61, 100
4, 44280, Note_on_c, 2, 64, 100
4, 44396, Note_off_c, 2, 64, 64
4, 44396, Note_off_c, 2, 61, 64
4, 44396, Note_off_c, 2, 55, 64
4, 44396, Note_off_c, 2, 45, 64
4, 44396, Note_off_c, 2, 52, 64
4, 44400, Note_on_c, 2, 45, 100
4, 44400, Note_on_c, 2, 55, 100
4, 44400, Note_on_c, 2, 61, 100
4, 44400, Note_on_c, 2, 52, 100
4, 44400, Note_on_c, 2, 64, 100
4, 44516, Note_off_c, 2, 64, 64
4, 44516, Note_off_c, 2, 52, 64
4, 44516, Note_off_c, 2, 61, 64
4, 44516, Note_off_c, 2, 55, 64
4, 44516, Note_off_c, 2, 45, 64
4, 44520, Note_on_c, 2, 45, 100
4, 44520, Note_on_c, 2, 52, 100
4, 44520, Note_on_c, 2, 55, 100
4, 44520, Note_on_c, 2, 64, 100
4, 44520, Note_on_c, 2, 61, 100
4, 44760, Note_off_c, 2, 61, 64
4, 44760, Note_off_c, 2, 64, 64
4, 44760, Note_off_c, 2, 55, 64
4, 44760, Note_off_c, 2, 52, 64
4, 44760, Note_off_c, 2, 45, 64
4, 44760, Note_on_c, 2, 45, 100
4, 44760, Note_on_c, 2, 52, 100
4, 44760, Note_on_c, 2, 64, 100
4, 44760, Note_on_c, 2, 61, 100
4, 44760, Note_on_c, 2, 55, 100
4, 44876, Note_off_c, 2, 55, 64
4, 44876, Note_off_c, 2, 61, 64
4, 44876, Note_off_c, 2, 64, 64
4, 44876, Note_off_c, 2, 52, 64
4, 44876, Note_off_c, 2, 45, 64
4, 44880, Note_on_c, 2, 64, 100
4, 44880, Note_on_c, 2, 48, 100
4, 44880, Note_on_c, 2, 55, 100
4, 44880, Note_on_c, 2, 60, 100
4, 44880, Note_on_c, 2, 52, 100
4, 46320, Note_off_c, 2, 52, 64
4, 46320, Note_off_c, 2, 60, 64
4, 46320, Note_off_c, 2, 55, 64
4, 46320, Note_off_c, 2, 48, 64
4, 46320, Note_off_c, 2, 64, 64
4, 46320, Note_on_c, 2, 61, 100
4, 46320, Note_on_c, 2, 45, 100
4, 46320, Note_on_c, 2, 52, 100
4, 46320, Note_on_c, 2, 55, 100
4, 46320, Note_on_c, 2, 64, 100
4, 46436, Note_off_c, 2, 64, 64
4, 46436, Note_off_c, 2, 55, 64
4, 46436, Note_off_c, 2, 52, 64
4, 46436, Note_off_c, 2, 45, 64
4, 46436, Note_off_c, 2, 61, 64
4, 46440, Note_on_c, 2, 52, 100
4, 46440, Note_on_c, 2, 45, 100
4, 46440, Note_on_c, 2, 55, 100
4, 46440, Note_on_c, 2, 61, 100
4, 46440, Note_on_c, 2, 64, 100
4, 46556, Note_off_c, 2, 64, 64
4, 46556, Note_off_c, 2, 61, 64
4, 46556, Note_off_c, 2, 55, 64
4, 46556, Note_off_c, 2, 45, 64
4, 46556, Note_off_c, 2, 52, 64
4, 46560, Note_on_c, 2, 45, 100
4, 46560, Note_on_c, 2, 55, 100
4, 46560, Note_on_c, 2, 61, 100
4, 46560, Note_on_c, 2, 52, 100
4, 46560, Note_on_c, 2, 64, 100
4, 46676, Note_off_c, 2, 64, 64
4, 46676, Note_off_c, 2, 52, 64
4, 46676, Note_off_c, 2, 61, 64
4, 46676, Note_off_c, 2, 55, 64
4, 46676, Note_off_c, 2, 45, 64
4, 46680, Note_on_c, 2, 45, 100
4, 46680, Note_on_c, 2, 52, 100
4, 46680, Note_on_c, 2, 55, 100
4, 46680, Note_on_c, 2, 64, 100
4, 46680, Note_on_c, 2, 61, 100
4, 46920, Note_off_c, 2, 61, 64
4, 46920, Note_off_c, 2, 64, 64
4, 46920, Note_off_c, 2, 55, 64
4, 46920, Note_off_c, 2, 52, 64
4, 46920, Note_off_c, 2, 45, 64
4, 46920, Note_on_c, 2, 45, 100
4, 46920, Note_on_c, 2, 52, 100
4, 46920, Note_on_c, 2, 64, 100
4, 46920, Note_on_c, 2, 61, 100
4, 46920, Note_on_c, 2, 55, 100
4, 47036, Note_off_c, 2, 55, 64
4, 47036, Note_off_c, 2, 61, 64
4, 47036, Note_off_c, 2, 64, 64
4, 47036, Note_off_c, 2, 52, 64
4, 47036, Note_off_c, 2, 45, 64
4, 47040, Note_on_c, 2, 59, 100
4, 47040, Note_on_c, 2, 50, 100
4, 47040, Note_on_c, 2, 47, 100
4, 47040, Note_on_c, 2, 43, 100
4, 47040, Note_on_c, 2, 55, 100
4, 47040, Note_on_c, 2, 65, 100
4, 48720, Note_off_c, 2, 65, 64
4, 48720, Note_off_c, 2, 55, 64
4, 48720, Note_off_c, 2, 43, 64
4, 48720, Note_off_c, 2, 47, 64
4, 48720, Note_off_c, 2, 50, 64
4, 48720, Note_off_c, 2, 59, 64
4, 48720, Note_on_c, 2, 61, 100
4, 48720, Note_on_c, 2, 45, 100
4, 48720, Note_on_c, 2, 52, 100
4, 48720, Note_on_c, 2, 55, 100
4, 48720, Note_on_c, 2, 64, 100
4, 48836, Note_off_c, 2, 64, 64
4, 48836, Note_off_c, 2, 55, 64
4, 48836, Note_off_c, 2, 52, 64
4, 48836, Note_off_c, 2, 45, 64
4, 48836, Note_off_c, 2, 61, 64
4, 48840, Note_on_c, 2, 52, 100
4, 48840, Note_on_c, 2, 45, 100
4, 48840, Note_on_c, 2, 55, 100
4, 48840, Note_on_c, 2, 61, 100
4, 48840, Note_on_c, 2, 64, 100
4, 48956, Note_off_c, 2, 64, 64
4, 48956, Note_off_c, 2, 61, 64
4, 48956, Note_off_c, 2, 55, 64
4, 48956, Note_off_c, 2, 45, 64
4, 48956, Note_off_c, 2, 52, 64
4, 48960, Note_on_c, 2, 45, 100
4, 48960, Note_on_c, 2, 55, 100
4, 48960, Note_on_c, 2, 61, 100
4, 48960, Note_on_c, 2, 52, 100
4, 48960, Note_on_c, 2, 64, 100
4, 49076, Note_off_c, 2, 64, 64
4, 49076, Note_off_c, 2, 52, 64
4, 49076, Note_off_c, 2, 61, 64
4, 49076, Note_off_c, 2, 55, 64
4, 49076, Note_off_c, 2, 45, 64
4, 49080, Note_on_c, 2, 45, 100
4, 49080, Note_on_c, 2, 52, 100
4, 49080, Note_on_c, 2, 55, 100
4, 49080, Note_on_c, 2, 64, 100
4, 49080, Note_on_c, 2, 61, 100
4, 49320, Note_off_c, 2, 61, 64
4, 49320, Note_off_c, 2, 64, 64
4, 49320, Note_off_c, 2, 55, 64
4, 49320, Note_off_c, 2, 52, 64
4, 49320, Note_off_c, 2, 45, 64
4, 49320, Note_on_c, 2, 45, 100
4, 49320, Note_on_c, 2, 52, 100
4, 49320, Note_on_c, 2, 64, 100
4, 49320, Note_on_c, 2, 61, 100
4, 49320, Note_on_c, 2, 55, 100
4, 49436, Note_off_c, 2, 55, 64
4, 49436, Note_off_c, 2, 61, 64
4, 49436, Note_off_c, 2, 64, 64
4, 49436, Note_off_c, 2, 52, 64
4, 49436, Note_off_c, 2, 45, 64
4, 49440, Note_on_c, 2, 64, 100
4, 49440, Note_on_c, 2, 48, 100
4, 49440, Note_on_c, 2, 55, 100
4, 49440, Note_on_c, 2, 60, 100
4, 49440, Note_on_c, 2, 52, 100
4, 50880, Note_off_c, 2, 52, 64
4, 50880, Note_off_c, 2, 60, 64
4, 50880, Note_off_c, 2, 55, 64
4, 50880, Note_off_c, 2, 48, 64
4, 50880, Note_off_c, 2, 64, 64
4, 50880, Note_on_c, 2, 61, 100
4, 50880, Note_on_c, 2, 45, 100
4, 50880, Note_on_c, 2, 52, 100
4, 50880, Note_on_c, 2, 55, 100
4, 50880, Note_on_c, 2, 64, 100
4, 50996, Note_off_c, 2, 64, 64
4, 50996, Note_off_c, 2, 55, 64
4, 50996, Note_off_c, 2, 52, 64
4, 50996, Note_off_c, 2, 45, 64
4, 50996, Note_off_c, 2, 61, 64
4, 51000, Note_on_c, 2, 52, 100
4, 51000, Note_on_c, 2, 45, 100
4, 51000, Note_on_c, 2, 55, 100
4, 51000, Note_on_c, 2, 61, 100
4, 51000, Note_on_c, 2, 64, 100
4, 51116, Note_off_c, 2, 64, 64
4, 51116, Note_off_c, 2, 61, 64
4, 51116, Note_off_c, 2, 55, 64
4, 51116, Note_off_c, 2, 45, 64
4, 51116, Note_off_c, 2, 52, 64
4, 51120, Note_on_c, 2, 45, 100
4, 51120, Note_on_c, 2, 55, 100
4, 51120, Note_on_c, 2, 61, 100
4, 51120, Note_on_c, 2, 52, 100
4, 51120, Note_on_c, 2, 64, 100
4, 51236, Note_off_c, 2, 64, 64
4, 51236, Note_off_c, 2, 52, 64
4, 51236, Note_off_c, 2, 61, 64
4, 51236, Note_off_c, 2, 55, 64
4, 51236, Note_off_c, 2, 45, 64
4, 51240, Note_on_c, 2, 45, 100
4, 51240, Note_on_c, 2, 52, 100
4, 51240, Note_on_c, 2, 55, 100
4, 51240, Note_on_c, 2, 64, 100
4, 51240, Note_on_c, 2, 61, 100
4, 51480, Note_off_c, 2, 61, 64
4, 51480, Note_off_c, 2, 64, 64
4, 51480, Note_off_c, 2, 55, 64
4, 51480, Note_off_c, 2, 52, 64
4, 51480, Note_off_c, 2, 45, 64
4, 51480, Note_on_c, 2, 45, 100
4, 51480, Note_on_c, 2, 52, 100
4, 51480, Note_on_c, 2, 64, 100
4, 51480, Note_on_c, 2, 61, 100
4, 51480, Note_on_c, 2, 55, 100
4, 51596, Note_off_c, 2, 55, 64
4, 51596, Note_off_c, 2, 61, 64
4, 51596, Note_off_c, 2, 64, 64
4, 51596, Note_off_c, 2, 52, 64
4, 51596, Note_off_c, 2, 45, 64
4, 51600, Note_on_c, 2, 59, 100
4, 51600, Note_on_c, 2, 50, 100
4, 51600, Note_on_c, 2, 47, 100
4, 51600, Note_on_c, 2, 43, 100
4, 51600, Note_on_c, 2, 55, 100
4, 51600, Note_on_c, 2, 65, 100
4, 53280, Note_off_c, 2, 65, 64
4, 53280, Note_off_c, 2, 55, 64
4, 53280, Note_off_c, 2, 43, 64
4, 53280, Note_off_c, 2, 47, 64
4, 53280, Note_off_c, 2, 50, 64
4, 53280, Note_off_c, 2, 59, 64
4, 53284, Note_on_c, 2, 61, 100
4, 53284, Note_on_c, 2, 45, 100
4, 53284, Note_on_c, 2, 52, 100
4, 53284, Note_on_c, 2, 55, 100
4, 53284, Note_on_c, 2, 64, 100
4, 53400, Note_off_c, 2, 64, 64
4, 53400, Note_off_c, 2, 55, 64
4, 53400, Note_off_c, 2, 52, 64
4, 53400, Note_off_c, 2, 45, 64
4, 53400, Note_off_c, 2, 61, 64
4, 53404, Note_on_c, 2, 52, 100
4, 53404, Note_on_c, 2, 45, 100
4, 53404, Note_on_c, 2, 55, 100
4, 53404, Note_on_c, 2, 61, 100
4, 53404, Note_on_c, 2, 64, 100
4, 53520, Note_off_c, 2, 64, 64
4, 53520, Note_off_c, 2, 61, 64
4, 53520, Note_off_c, 2, 55, 64
4, 53520, Note_off_c, 2, 45, 64
4, 53520, Note_off_c, 2, 52, 64
4, 53524, Note_on_c, 2, 45, 100
4, 53524, Note_on_c, 2, 55, 100
4, 53524, Note_on_c, 2, 61, 100
4, 53524, Note_on_c, 2, 52, 100
4, 53524, Note_on_c, 2, 64, 100
4, 53640, Note_off_c, 2, 64, 64
4, 53640, Note_off_c, 2, 52, 64
4, 53640, Note_off_c, 2, 61, 64
4, 53640, Note_off_c, 2, 55, 64
4, 53640, Note_off_c, 2, 45, 64
4, 53644, Note_on_c, 2, 45, 100
4, 53644, Note_on_c, 2, 52, 100
4, 53644, Note_on_c, 2, 55, 100
4, 53644, Note_on_c, 2, 64, 100
4, 53644, Note_on_c, 2, 61, 100
4, 53884, Note_off_c, 2, 61, 64
4, 53884, Note_off_c, 2, 64, 64
4, 53884, Note_off_c, 2, 55, 64
4, 53884, Note_off_c, 2, 52, 64
4, 53884, Note_off_c, 2, 45, 64
4, 53884, Note_on_c, 2, 45, 100
4, 53884, Note_on_c, 2, 52, 100
4, 53884, Note_on_c, 2, 64, 100
4, 53884, Note_on_c, 2, 61, 100
4, 53884, Note_on_c, 2, 55, 100
4, 54000, Note_off_c, 2, 55, 64
4, 54000, Note_off_c, 2, 61, 64
4, 54000, Note_off_c, 2, 64, 64
4, 54000, Note_off_c, 2, 52, 64
4, 54000, Note_off_c, 2, 45, 64
4, 54004, Note_on_c, 2, 64, 100
4, 54004, Note_on_c, 2, 48, 100
4, 54004, Note_on_c, 2, 55, 100
4, 54004, Note_on_c, 2, 60, 100
4, 54004, Note_on_c, 2, 52, 100
4, 55444, Note_off_c, 2, 52, 64
4, 55444, Note_off_c, 2, 60, 64
4, 55444, Note_off_c, 2, 55, 64
4, 55444, Note_off_c, 2, 48, 64
4, 55444, Note_off_c, 2, 64, 64
4, 55444, Note_on_c, 2, 61, 100
4, 55444, Note_on_c, 2, 45, 100
4, 55444, Note_on_c, 2, 52, 100
4, 55444, Note_on_c, 2, 55, 100
4, 55444, Note_on_c, 2, 64, 100
4, 55560, Note_off_c, 2, 64, 64
4, 55560, Note_off_c, 2, 55, 64
4, 55560, Note_off_c, 2, 52, 64
4, 55560, Note_off_c, 2, 45, 64
4, 55560, Note_off_c, 2, 61, 64
4, 55564, Note_on_c, 2, 52, 100
4, 55564, Note_on_c, 2, 45, 100
4, 55564, Note_on_c, 2, 55, 100
4, 55564, Note_on_c, 2, 61, 100
4, 55564, Note_on_c, 2, 64, 100
4, 55680, Note_off_c, 2, 64, 64
4, 55680, Note_off_c, 2, 61, 64
4, 55680, Note_off_c, 2, 55, 64
4, 55680, Note_off_c, 2, 45, 64
4, 55680, Note_off_c, 2, 52, 64
4, 55684, Note_on_c, 2, 45, 100
4, 55684, Note_on_c, 2, 55, 100
4, 55684, Note_on_c, 2, 61, 100
4, 55684, Note_on_c, 2, 52, 100
4, 55684, Note_on_c, 2, 64, 100
4, 55800, Note_off_c, 2, 64, 64
4, 55800, Note_off_c, 2, 52, 64
4, 55800, Note_off_c, 2, 61, 64
4, 55800, Note_off_c, 2, 55, 64
4, 55800, Note_off_c, 2, 45, 64
4, 55804, Note_on_c, 2, 45, 100
4, 55804, Note_on_c, 2, 52, 100
4, 55804, Note_on_c, 2, 55, 100
4, 55804, Note_on_c, 2, 64, 100
4, 55804, Note_on_c, 2, 61, 100
4, 56044, Note_off_c, 2, 61, 64
4, 56044, Note_off_c, 2, 64, 64
4, 56044, Note_off_c, 2, 55, 64
4, 56044, Note_off_c, 2, 52, 64
4, 56044, Note_off_c, 2, 45, 64
4, 56044, Note_on_c, 2, 45, 100
4, 56044, Note_on_c, 2, 52, 100
4, 56044, Note_on_c, 2, 64, 100
4, 56044, Note_on_c, 2, 61, 100
4, 56044, Note_on_c, 2, 55, 100
4, 56160, Note_off_c, 2, 55, 64
4, 56160, Note_off_c, 2, 61, 64
4, 56160, Note_off_c, 2, 64, 64
4, 56160, Note_off_c, 2, 52, 64
4, 56160, Note_off_c, 2, 45, 64
4, 56164, Note_on_c, 2, 59, 100
4, 56164, Note_on_c, 2, 50, 100
4, 56164, Note_on_c, 2, 47, 100
4, 56164, Note_on_c, 2, 43, 100
4, 56164, Note_on_c, 2, 55, 100
4, 56164, Note_on_c, 2, 65, 100
4, 57840, Note_on_c, 2, 48, 100
4, 57844, Note_off_c, 2, 65, 64
4, 57844, Note_off_c, 2, 55, 64
4, 57844, Note_off_c, 2, 43, 64
4, 57844, Note_off_c, 2, 47, 64
4, 57844, Note_off_c, 2, 50, 64
4, 57844, Note_off_c, 2, 59, 64
4, 58080, Note_on_c, 2, 55, 100
4, 58320, Note_off_c, 2, 48, 64
4, 58320, Note_on_c, 2, 64, 100
4, 58320, Note_on_c, 2, 60, 100
4, 58560, Note_off_c, 2, 55, 64
4, 58560, Note_on_c, 2, 55, 100
4, 58800, Note_off_c, 2, 64, 64
4, 58800, Note_off_c, 2, 60, 64
4, 58800, Note_on_c, 2, 45, 100
4, 59040, Note_off_c, 2, 55, 64
4, 59040, Note_on_c, 2, 57, 100
4, 59280, Note_off_c, 2, 45, 64
4, 59280, Note_on_c, 2, 60, 100
4, 59280, Note_on_c, 2, 64, 100
4, 59520, Note_off_c, 2, 57, 64
4, 59520, Note_on_c, 2, 57, 100
4, 59760, Note_off_c, 2, 60, 64
4, 59760, Note_off_c, 2, 64, 64
4, 59760, Note_on_c, 2, 41, 100
4, 60000, Note_off_c, 2, 57, 64
4, 60000, Note_on_c, 2, 53, 100
4, 60240, Note_off_c, 2, 41, 64
4, 60240, Note_on_c, 2, 60, 100
4, 60240, Note_on_c, 2, 57, 100
4, 60480, Note_off_c, 2, 53, 64
4, 60480, Note_on_c, 2, 53, 100
4, 60720, Note_off_c, 2, 60, 64
4, 60720, Note_off_c, 2, 57, 64
4, 60720, Note_on_c, 2, 43, 100
4, 60960, Note_off_c, 2, 53, 64
4, 60960, Note_on_c, 2, 50, 100
4, 61200, Note_off_c, 2, 43, 64
4, 61200, Note_on_c, 2, 55, 100
4, 61200, Note_on_c, 2, 59, 100
4, 61440, Note_off_c, 2, 50, 64
4, 61440, Note_on_c, 2, 50, 100
4, 61680, Note_off_c, 2, 55, 64
4, 61680, Note_off_c, 2, 59, 64
4, 61680, Note_on_c, 2, 48, 100
4, 61920, Note_off_c, 2, 50, 64
4, 61920, Note_on_c, 2, 55, 100
4, 62160, Note_off_c, 2, 48, 64
4, 62160, Note_on_c, 2, 64, 100
4, 62160, Note_on_c, 2, 60, 100
4, 62400, Note_off_c, 2, 55, 64
4, 62400, Note_on_c, 2, 55, 100
4, 62640, Note_off_c, 2, 64, 64
4, 62640, Note_off_c, 2, 60, 64
4, 62640, Note_on_c, 2, 45, 100
4, 62880, Note_off_c, 2, 55, 64
4, 62880, Note_on_c, 2, 57, 100
4, 63120, Note_off_c, 2, 45, 64
4, 63120, Note_on_c, 2, 60, 100
4, 63120, Note_on_c, 2, 64, 100
4, 63360, Note_off_c, 2, 57, 64
4, 63360, Note_on_c, 2, 57, 100
4, 63600, Note_off_c, 2, 60, 64
4, 63600, Note_off_c, 2, 64, 64
4, 63600, Note_on_c, 2, 41, 100
4, 63840, Note_off_c, 2, 57, 64
4, 63840, Note_on_c, 2, 53, 100
4, 64080, Note_off_c, 2, 41, 64
4, 64080, Note_on_c, 2, 60, 100
4, 64080, Note_on_c, 2, 57, 100
4, 64320, Note_off_c, 2, 53, 64
4, 64320, Note_on_c, 2, 53, 100
4, 64560, Note_off_c, 2, 60, 64
4, 64560, Note_off_c, 2, 57, 64
4, 64560, Note_on_c, 2, 43, 100
4, 64800, Note_off_c, 2, 53, 64
4, 64800, Note_on_c, 2, 50, 100
4, 65040, Note_off_c, 2, 43, 64
4, 65040, Note_on_c, 2, 55, 100
4, 65040, Note_on_c, 2, 59, 100
4, 65280, Note_off_c, 2, 50, 64
4, 65280, Note_on_c, 2, 50, 100
4, 65520, Note_off_c, 2, 55, 64
4, 65520, Note_off_c, 2, 59, 64
4, 65520, Note_on_c, 2, 48, 100
4, 65760, Note_off_c, 2, 50, 64
4, 65760, Note_off_c, 2, 48, 64
4, 65760, Note_on_c, 2, 48, 100
4, 65760, Note_on_c, 2, 64, 100
4, 65760, Note_on_c, 2, 60, 100
4, 65760, Note_on_c, 2, 52, 100
4, 65760, Note_on_c, 2, 55, 100
4, 66000, Note_off_c, 2, 55, 64
4, 66000, Note_off_c, 2, 52, 64
4, 66000, Note_off_c, 2, 60, 64
4, 66000, Note_off_c, 2, 64, 64
4, 66000, Note_off_c, 2, 48, 64
4, 66000, Note_on_c, 2, 48, 100
4, 66000, Note_on_c, 2, 64, 100
4, 66000, Note_on_c, 2, 60, 100
4, 66000, Note_on_c, 2, 52, 100
4, 66000, Note_on_c, 2, 55, 100
4, 66240, Note_off_c, 2, 55, 64
4, 66240, Note_off_c, 2, 52, 64
4, 66240, Note_off_c, 2, 60, 64
4, 66240, Note_off_c, 2, 64, 64
4, 66240, Note_off_c, 2, 48, 64
4, 66240, Note_on_c, 2, 45, 100
4, 66480, Note_off_c, 2, 45, 64
4, 66480, Note_on_c, 2, 45, 100
4, 66480, Note_on_c, 2, 52, 100
4, 66480, Note_on_c, 2, 64, 100
4, 66480, Note_on_c, 2, 60, 100
4, 66480, Note_on_c, 2, 48, 100
4, 66480, Note_on_c, 2, 57, 100
4, 66720, Note_off_c, 2, 57, 64
4, 66720, Note_off_c, 2, 48, 64
4, 66720, Note_off_c, 2, 60, 64
4, 66720, Note_off_c, 2, 64, 64
4, 66720, Note_off_c, 2, 52, 64
4, 66720, Note_off_c, 2, 45, 64
4, 66720, Note_on_c, 2, 45, 100
4, 66720, Note_on_c, 2, 64, 100
4, 66720, Note_on_c, 2, 60, 100
4, 66720, Note_on_c, 2, 57, 100
4, 66720, Note_on_c, 2, 48, 100
4, 66720, Note_on_c, 2, 52, 100
4, 66960, Note_off_c, 2, 52, 64
4, 66960, Note_off_c, 2, 48, 64
4, 66960, Note_off_c, 2, 57, 64
4, 66960, Note_off_c, 2, 60, 64
4, 66960, Note_off_c, 2, 64, 64
4, 66960, Note_off_c, 2, 45, 64
4, 66960, Note_on_c, 2, 41, 100
4, 67200, Note_off_c, 2, 41, 64
4, 67200, Note_on_c, 2, 41, 100
4, 67200, Note_on_c, 2, 60, 100
4, 67200, Note_on_c, 2, 53, 100
4, 67200, Note_on_c, 2, 57, 100
4, 67200, Note_on_c, 2, 48, 100
4, 67200, Note_on_c, 2, 65, 100
4, 67440, Note_off_c, 2, 65, 64
4, 67440, Note_off_c, 2, 48, 64
4, 67440, Note_off_c, 2, 57, 64
4, 67440, Note_off_c, 2, 53, 64
4, 67440, Note_off_c, 2, 60, 64
4, 67440, Note_off_c, 2, 41, 64
4, 67440, Note_on_c, 2, 48, 100
4, 67440, Note_on_c, 2, 65, 100
4, 67440, Note_on_c, 2, 53, 100
4, 67440, Note_on_c, 2, 41, 100
4, 67440, Note_on_c, 2, 60, 100
4, 67440, Note_on_c, 2, 57, 100
4, 67680, Note_off_c, 2, 57, 64
4, 67680, Note_off_c, 2, 60, 64
4, 67680, Note_off_c, 2, 41, 64
4, 67680, Note_off_c, 2, 53, 64
4, 67680, Note_off_c, 2, 65, 64
4, 67680, Note_off_c, 2, 48, 64
4, 67680, Note_on_c, 2, 43, 100
4, 67920, Note_off_c, 2, 43, 64
4, 67920, Note_on_c, 2, 43, 100
4, 67920, Note_on_c, 2, 67, 100
4, 67920, Note_on_c, 2, 59, 100
4, 67920, Note_on_c, 2, 50, 100
4, 67920, Note_on_c, 2, 55, 100
4, 67920, Note_on_c, 2, 47, 100
4, 68160, Note_off_c, 2, 47, 64
4, 68160, Note_off_c, 2, 55, 64
4, 68160, Note_off_c, 2, 50, 64
4, 68160, Note_off_c, 2, 59, 64
4, 68160, Note_off_c, 2, 67, 64
4, 68160, Note_off_c, 2, 43, 64
4, 68160, Note_on_c, 2, 43, 100
4, 68160, Note_on_c, 2, 50, 100
4, 68160, Note_on_c, 2, 59, 100
4, 68160, Note_on_c, 2, 47, 100
4, 68160, Note_on_c, 2, 67, 100
4, 68160, Note_on_c, 2, 55, 100
4, 68400, Note_off_c, 2, 55, 64
4, 68400, Note_off_c, 2, 67, 64
4, 68400, Note_off_c, 2, 47, 64
4, 68400, Note_off_c, 2, 59, 64
4, 68400, Note_off_c, 2, 50, 64
4, 68400, Note_off_c, 2, 43, 64
4, 68400, Note_on_c, 2, 48, 100
4, 68640, Note_off_c, 2, 48, 64
4, 68640, Note_on_c, 2, 48, 100
4, 68640, Note_on_c, 2, 64, 100
4, 68640, Note_on_c, 2, 60, 100
4, 68640, Note_on_c, 2, 52, 100
4, 68640, Note_on_c, 2, 55, 100
4, 68880, Note_off_c, 2, 55, 64
4, 68880, Note_off_c, 2, 52, 64
4, 68880, Note_off_c, 2, 60, 64
4, 68880, Note_off_c, 2, 64, 64
4, 68880, Note_off_c, 2, 48, 64
4, 68880, Note_on_c, 2, 48, 100
4, 68880, Note_on_c, 2, 64, 100
4, 68880, Note_on_c, 2, 60, 100
4, 68880, Note_on_c, 2, 52, 100
4, 68880, Note_on_c, 2, 55, 100
4, 69120, Note_off_c, 2, 55, 64
4, 69120, Note_off_c, 2, 52, 64
4, 69120, Note_off_c, 2, 60, 64
4, 69120, Note_off_c, 2, 64, 64
4, 69120, Note_off_c, 2, 48, 64
4, 69120, Note_on_c, 2, 45, 100
4, 69360, Note_off_c, 2, 45, 64
4, 69360, Note_on_c, 2, 45, 100
4, 69360, Note_on_c, 2, 52, 100
4, 69360, Note_on_c, 2, 64, 100
4, 69360, Note_on_c, 2, 60, 100
4, 69360, Note_on_c, 2, 48, 100
4, 69360, Note_on_c, 2, 57, 100
4, 69600, Note_off_c, 2, 57, 64
4, 69600, Note_off_c, 2, 48, 64
4, 69600, Note_off_c, 2, 60, 64
4, 69600, Note_off_c, 2, 64, 64
4, 69600, Note_off_c, 2, 52, 64
4, 69600, Note_off_c, 2, 45, 64
4, 69600, Note_on_c, 2, 45, 100
4, 69600, Note_on_c, 2, 64, 100
4, 69600, Note_on_c, 2, 60, 100
4, 69600, Note_on_c, 2, 57, 100
4, 69600, Note_on_c, 2, 48, 100
4, 69600, Note_on_c, 2, 52, 100
4, 69840, Note_off_c, 2, 52, 64
4, 69840, Note_off_c, 2, 48, 64
4, 69840, Note_off_c, 2, 57, 64
4, 69840, Note_off_c, 2, 60, 64
4, 69840, Note_off_c, 2, 64, 64
4, 69840, Note_off_c, 2, 45, 64
4, 69840, Note_on_c, 2, 41, 100
4, 70080, Note_off_c, 2, 41, 64
4, 70080, Note_on_c, 2, 41, 100
4, 70080, Note_on_c, 2, 60, 100
4, 70080, Note_on_c, 2, 53, 100
4, 70080, Note_on_c, 2, 57, 100
4, 70080, Note_on_c, 2, 48, 100
4, 70080, Note_on_c, 2, 65, 100
4, 70320, Note_off_c, 2, 65, 64
4, 70320, Note_off_c, 2, 48, 64
4, 70320, Note_off_c, 2, 57, 64
4, 70320, Note_off_c, 2, 53, 64
4, 70320, Note_off_c, 2, 60, 64
4, 70320, Note_off_c, 2, 41, 64
4, 70320, Note_on_c, 2, 48, 100
4, 70320, Note_on_c, 2, 65, 100
4, 70320, Note_on_c, 2, 53, 100
4, 70320, Note_on_c, 2, 41, 100
4, 70320, Note_on_c, 2, 60, 100
4, 70320, Note_on_c, 2, 57, 100
4, 70560, Note_off_c, 2, 57, 64
4, 70560, Note_off_c, 2, 60, 64
4, 70560, Note_off_c, 2, 41, 64
4, 70560, Note_off_c, 2, 53, 64
4, 70560, Note_off_c, 2, 65, 64
4, 70560, Note_off_c, 2, 48, 64
4, 70560, Note_on_c, 2, 43, 100
4, 70800, Note_off_c, 2, 43, 64
4, 70800, Note_on_c, 2, 43, 100
4, 70800, Note_on_c, 2, 67, 100
4, 70800, Note_on_c, 2, 59, 100
4, 70800, Note_on_c, 2, 50, 100
4, 70800, Note_on_c, 2, 55, 100
4, 70800, Note_on_c, 2, 47, 100
4, 71040, Note_off_c, 2, 47, 64
4, 71040, Note_off_c, 2, 55, 64
4, 71040, Note_off_c, 2, 50, 64
4, 71040, Note_off_c, 2, 59, 64
4, 71040, Note_off_c, 2, 67, 64
4, 71040, Note_off_c, 2, 43, 64
4, 71040, Note_on_c, 2, 43, 100
4, 71040, Note_on_c, 2, 50, 100
4, 71040, Note_on_c, 2, 59, 100
4, 71040, Note_on_c, 2, 47, 100
4, 71040, Note_on_c, 2, 67, 100
4, 71040, Note_on_c, 2, 55, 100
4, 71280, Note_off_c, 2, 55, 64
4, 71280, Note_off_c, 2, 67, 64
4, 71280, Note_off_c, 2, 47, 64
4, 71280, Note_off_c, 2, 59, 64
4, 71280, Note_off_c, 2, 50, 64
4, 71280, Note_off_c, 2, 43, 64
4, 71284, Note_on_c, 2, 48, 100
4, 71524, Note_off_c, 2, 48, 64
4, 71524, Note_on_c, 2, 48, 100
4, 71524, Note_on_c, 2, 64, 100
4, 71524, Note_on_c, 2, 60, 100
4, 71524, Note_on_c, 2, 52, 100
4, 71524, Note_on_c, 2, 55, 100
4, 71764, Note_off_c, 2, 55, 64
4, 71764, Note_off_c, 2, 52, 64
4, 71764, Note_off_c, 2, 60, 64
4, 71764, Note_off_c, 2, 64, 64
4, 71764, Note_off_c, 2, 48, 64
4, 71764, Note_on_c, 2, 48, 100
4, 71764, Note_on_c, 2, 64, 100
4, 71764, Note_on_c, 2, 60, 100
4, 71764, Note_on_c, 2, 52, 100
4, 71764, Note_on_c, 2, 55, 100
4, 72004, Note_off_c, 2, 55, 64
4, 72004, Note_off_c, 2, 52, 64
4, 72004, Note_off_c, 2, 60, 64
4, 72004, Note_off_c, 2, 64, 64
4, 72004, Note_off_c, 2, 48, 64
4, 72004, Note_on_c, 2, 45, 100
4, 72244, Note_off_c, 2, 45, 64
4, 72244, Note_on_c, 2, 45, 100
4, 72244, Note_on_c, 2, 52, 100
4, 72244, Note_on_c, 2, 64, 100
4, 72244, Note_on_c, 2, 60, 100
4, 72244, Note_on_c, 2, 48, 100
4, 72244, Note_on_c, 2, 57, 100
4, 72484, Note_off_c, 2, 57, 64
4, 72484, Note_off_c, 2, 48, 64
4, 72484, Note_off_c, 2, 60, 64
4, 72484, Note_off_c, 2, 64, 64
4, 72484, Note_off_c, 2, 52, 64
4, 72484, Note_off_c, 2, 45, 64
4, 72484, Note_on_c, 2, 45, 100
4, 72484, Note_on_c, 2, 64, 100
4, 72484, Note_on_c, 2, 60, 100
4, 72484, Note_on_c, 2, 57, 100
4, 72484, Note_on_c, 2, 48, 100
4, 72484, Note_on_c, 2, 52, 100
4, 72724, Note_off_c, 2, 52, 64
4, 72724, Note_off_c, 2, 48, 64
4, 72724, Note_off_c, 2, 57, 64
4, 72724, Note_off_c, 2, 60, 64
4, 72724, Note_off_c, 2, 64, 64
4, 72724, Note_off_c, 2, 45, 64
4, 72724, Note_on_c, 2, 41, 100
4, 72964, Note_off_c, 2, 41, 64
4, 72964, Note_on_c, 2, 41, 100
4, 72964, Note_on_c, 2, 60, 100
4, 72964, Note_on_c, 2, 53, 100
4, 72964, Note_on_c, 2, 57, 100
4, 72964, Note_on_c, 2, 48, 100
4, 72964, Note_on_c, 2, 65, 100
4, 73204, Note_off_c, 2, 65, 64
4, 73204, Note_off_c, 2, 48, 64
4, 73204, Note_off_c, 2, 57, 64
4, 73204, Note_off_c, 2, 53, 64
4, 73204, Note_off_c, 2, 60, 64
4, 73204, Note_off_c, 2, 41, 64
4, 73204, Note_on_c, 2, 48, 100
4, 73204, Note_on_c, 2, 65, 100
4, 73204, Note_on_c, 2, 53, 100
4, 73204, Note_on_c, 2, 41, 100
4, 73204, Note_on_c, 2, 60, 100
4, 73204, Note_on_c, 2, 57, 100
4, 73444, Note_off_c, 2, 57, 64
4, 73444, Note_off_c, 2, 60, 64
4, 73444, Note_off_c, 2, 41, 64
4, 73444, Note_off_c, 2, 53, 64
4, 73444, Note_off_c, 2, 65, 64
4, 73444, Note_off_c, 2, 48, 64
4, 73444, Note_on_c, 2, 43, 100
4, 73684, Note_off_c, 2, 43, 64
4, 73684, Note_on_c, 2, 43, 100
4, 73684, Note_on_c, 2, 67, 100
4, 73684, Note_on_c, 2, 59, 100
4, 73684, Note_on_c, 2, 50, 100
4, 73684, Note_on_c, 2, 55, 100
4, 73684, Note_on_c, 2, 47, 100
4, 73924, Note_off_c, 2, 47, 64
4, 73924, Note_off_c, 2, 55, 64
4, 73924, Note_off_c, 2, 50, 64
4, 73924, Note_off_c, 2, 59, 64
4, 73924, Note_off_c, 2, 67, 64
4, 73924, Note_off_c, 2, 43, 64
4, 73924, Note_on_c, 2, 43, 100
4, 73924, Note_on_c, 2, 50, 100
4, 73924, Note_on_c, 2, 59, 100
4, 73924, Note_on_c, 2, 47, 100
4, 73924, Note_on_c, 2, 67, 100
4, 73924, Note_on_c, 2, 55, 100
4, 74160, Pitch_bend_c, 2, 8192
4, 74160, Control_c, 2, 1, 0
4, 74160, Control_c, 2, 64, 0
4, 74160, Control_c, 2, 121, 0
4, 74160, Pitch_bend_c, 2, 8192
4, 74160, Control_c, 2, 1, 0
4, 74160, Control_c, 2, 64, 0
4, 74160, Control_c, 2, 121, 0
4, 74160, Pitch_bend_c, 2, 8192
4, 74160, Control_c, 2, 1, 0
4, 74160, Control_c, 2, 64, 0
4, 74160, Control_c, 2, 121, 0
4, 74160, Pitch_bend_c, 2, 8192
4, 74160, Control_c, 2, 1, 0
4, 74160, Control_c, 2, 64, 0
4, 74160, Control_c, 2, 121, 0
4, 74160, Pitch_bend_c, 2, 8192
4, 74160, Control_c, 2, 1, 0
4, 74160, Control_c, 2, 64, 0
4, 74160, Control_c, 2, 121, 0
4, 74160, Pitch_bend_c, 2, 8192
4, 74160, Control_c, 2, 1, 0
4, 74160, Control_c, 2, 64, 0
4, 74160, Control_c, 2, 121, 0
4, 74160, Pitch_bend_c, 2, 8192
4, 74160, Control_c, 2, 1, 0
4, 74160, Control_c, 2, 64, 0
4, 74160, Control_c, 2, 121, 0
4, 74160, Note_on_c, 2, 60, 83
4, 74160, Note_on_c, 2, 48, 64
4, 74160, Note_on_c, 2, 55, 56
4, 74160, Note_on_c, 2, 52, 51
4, 74164, Note_off_c, 2, 55, 64
4, 74164, Note_off_c, 2, 67, 64
4, 74164, Note_off_c, 2, 47, 64
4, 74164, Note_off_c, 2, 59, 64
4, 74164, Note_off_c, 2, 50, 64
4, 74164, Note_off_c, 2, 43, 64
4, 74400, Note_off_c, 2, 60, 64
4, 74400, Note_off_c, 2, 48, 64
4, 74400, Note_off_c, 2, 55, 64
4, 74400, Note_off_c, 2, 52, 64
4, 74400, Note_on_c, 2, 52, 42
4, 74400, Note_on_c, 2, 55, 41
4, 74400, Note_on_c, 2, 48, 73
4, 74400, Note_on_c, 2, 60, 67
4, 74640, Note_off_c, 2, 60, 64
4, 74640, Note_off_c, 2, 48, 64
4, 74640, Note_off_c, 2, 55, 64
4, 74640, Note_off_c, 2, 52, 64
4, 74640, Note_on_c, 2, 55, 50
4, 74640, Note_on_c, 2, 48, 73
4, 74640, Note_on_c, 2, 60, 75
4, 74640, Note_on_c, 2, 52, 61
4, 74880, Note_off_c, 2, 52, 64
4, 74880, Note_off_c, 2, 60, 64
4, 74880, Note_off_c, 2, 48, 64
4, 74880, Note_off_c, 2, 55, 64
4, 74880, Note_on_c, 2, 55, 73
4, 74880, Note_on_c, 2, 48, 75
4, 74880, Note_on_c, 2, 60, 80
4, 74880, Note_on_c, 2, 52, 60
4, 75120, Note_off_c, 2, 52, 64
4, 75120, Note_off_c, 2, 60, 64
4, 75120, Note_off_c, 2, 48, 64
4, 75120, Note_off_c, 2, 55, 64
4, 75120, Note_on_c, 2, 45, 70
4, 75120, Note_on_c, 2, 48, 69
4, 75120, Note_on_c, 2, 52, 78
4, 75120, Note_on_c, 2, 57, 68
4, 75360, Note_off_c, 2, 57, 64
4, 75360, Note_off_c, 2, 52, 64
4, 75360, Note_off_c, 2, 48, 64
4, 75360, Note_off_c, 2, 45, 64
4, 75360, Note_on_c, 2, 57, 69
4, 75360, Note_on_c, 2, 48, 68
4, 75360, Note_on_c, 2, 45, 69
4, 75360, Note_on_c, 2, 52, 61
4, 75600, Note_off_c, 2, 52, 64
4, 75600, Note_off_c, 2, 45, 64
4, 75600, Note_off_c, 2, 48, 64
4, 75600, Note_off_c, 2, 57, 64
4, 75600, Note_on_c, 2, 57, 67
4, 75600, Note_on_c, 2, 52, 70
4, 75600, Note_on_c, 2, 45, 66
4, 75600, Note_on_c, 2, 48, 67
4, 75840, Note_off_c, 2, 48, 64
4, 75840, Note_off_c, 2, 45, 64
4, 75840, Note_off_c, 2, 52, 64
4, 75840, Note_off_c, 2, 57, 64
4, 75840, Note_on_c, 2, 45, 85
4, 75840, Note_on_c, 2, 52, 81
4, 75840, Note_on_c, 2, 48, 83
4, 75840, Note_on_c, 2, 57, 84
4, 76080, Note_off_c, 2, 57, 64
4, 76080, Note_off_c, 2, 48, 64
4, 76080, Note_off_c, 2, 52, 64
4, 76080, Note_off_c, 2, 45, 64
4, 76080, Note_on_c, 2, 53, 75
4, 76080, Note_on_c, 2, 45, 63
4, 76080, Note_on_c, 2, 48, 68
4, 76080, Note_on_c, 2, 41, 53
4, 76320, Note_off_c, 2, 41, 64
4, 76320, Note_off_c, 2, 48, 64
4, 76320, Note_off_c, 2, 45, 64
4, 76320, Note_off_c, 2, 53, 64
4, 76320, Note_on_c, 2, 45, 65
4, 76320, Note_on_c, 2, 48, 72
4, 76320, Note_on_c, 2, 41, 69
4, 76320, Note_on_c, 2, 53, 77
4, 76560, Note_off_c, 2, 53, 64
4, 76560, Note_off_c, 2, 41, 64
4, 76560, Note_off_c, 2, 48, 64
4, 76560, Note_off_c, 2, 45, 64
4, 76560, Note_on_c, 2, 48, 67
4, 76560, Note_on_c, 2, 53, 74
4, 76560, Note_on_c, 2, 45, 68
4, 76560, Note_on_c, 2, 41, 73
4, 76800, Note_off_c, 2, 41, 64
4, 76800, Note_off_c, 2, 45, 64
4, 76800, Note_off_c, 2, 53, 64
4, 76800, Note_off_c, 2, 48, 64
4, 76800, Note_on_c, 2, 48, 73
4, 76800, Note_on_c, 2, 53, 85
4, 76800, Note_on_c, 2, 45, 66
4, 76800, Note_on_c, 2, 41, 70
4, 77040, Note_off_c, 2, 41, 64
4, 77040, Note_off_c, 2, 45, 64
4, 77040, Note_off_c, 2, 53, 64
4, 77040, Note_off_c, 2, 48, 64
4, 77040, Note_on_c, 2, 47, 68
4, 77040, Note_on_c, 2, 43, 78
4, 77040, Note_on_c, 2, 55, 77
4, 77040, Note_on_c, 2, 50, 74
4, 77280, Note_off_c, 2, 50, 64
4, 77280, Note_off_c, 2, 55, 64
4, 77280, Note_off_c, 2, 43, 64
4, 77280, Note_off_c, 2, 47, 64
4, 77280, Note_on_c, 2, 50, 79
4, 77280, Note_on_c, 2, 55, 74
4, 77280, Note_on_c, 2, 47, 72
4, 77280, Note_on_c, 2, 43, 71
4, 77520, Note_off_c, 2, 43, 64
4, 77520, Note_off_c, 2, 47, 64
4, 77520, Note_off_c, 2, 55, 64
4, 77520, Note_off_c, 2, 50, 64
4, 77520, Note_on_c, 2, 50, 77
4, 77520, Note_on_c, 2, 55, 74
4, 77520, Note_on_c, 2, 47, 67
4, 77520, Note_on_c, 2, 43, 73
4, 77760, Note_off_c, 2, 43, 64
4, 77760, Note_off_c, 2, 47, 64
4, 77760, Note_off_c, 2, 55, 64
4, 77760, Note_off_c, 2, 50, 64
4, 77760, Note_on_c, 2, 55, 81
4, 77760, Note_on_c, 2, 50, 75
4, 77760, Note_on_c, 2, 47, 79
4, 77760, Note_on_c, 2, 43, 81
4, 78000, Note_off_c, 2, 43, 64
4, 78000, Note_off_c, 2, 47, 64
4, 78000, Note_off_c, 2, 50, 64
4, 78000, Note_off_c, 2, 55, 64
4, 78000, Note_on_c, 2, 48, 75
4, 78000, Note_on_c, 2, 52, 57
4, 78000, Note_on_c, 2, 55, 70
4, 78000, Note_on_c, 2, 60, 77
4, 78240, Note_off_c, 2, 60, 64
4, 78240, Note_off_c, 2, 55, 64
4, 78240, Note_off_c, 2, 52, 64
4, 78240, Note_off_c, 2, 48, 64
4, 78240, Note_on_c, 2, 55, 49
4, 78240, Note_on_c, 2, 52, 64
4, 78240, Note_on_c, 2, 60, 88
4, 78240, Note_on_c, 2, 48, 86
4, 78480, Note_off_c, 2, 48, 64
4, 78480, Note_off_c, 2, 60, 64
4, 78480, Note_off_c, 2, 52, 64
4, 78480, Note_off_c, 2, 55, 64
4, 78480, Note_on_c, 2, 55, 68
4, 78480, Note_on_c, 2, 60, 81
4, 78480, Note_on_c, 2, 52, 67
4, 78480, Note_on_c, 2, 48, 85
4, 78720, Note_off_c, 2, 48, 64
4, 78720, Note_off_c, 2, 52, 64
4, 78720, Note_off_c, 2, 60, 64
4, 78720, Note_off_c, 2, 55, 64
4, 78720, Note_on_c, 2, 52, 80
4, 78720, Note_on_c, 2, 55, 73
4, 78720, Note_on_c, 2, 48, 88
4, 78720, Note_on_c, 2, 60, 84
4, 78960, Note_off_c, 2, 60, 64
4, 78960, Note_off_c, 2, 48, 64
4, 78960, Note_off_c, 2, 55, 64
4, 78960, Note_off_c, 2, 52, 64
4, 78960, Note_on_c, 2, 45, 63
4, 78960, Note_on_c, 2, 48, 62
4, 78960, Note_on_c, 2, 57, 77
4, 78960, Note_on_c, 2, 52, 60
4, 79200, Note_off_c, 2, 52, 64
4, 79200, Note_off_c, 2, 57, 64
4, 79200, Note_off_c, 2, 48, 64
4, 79200, Note_off_c, 2, 45, 64
4, 79200, Note_on_c, 2, 57, 73
4, 79200, Note_on_c, 2, 52, 71
4, 79200, Note_on_c, 2, 48, 68
4, 79200, Note_on_c, 2, 45, 68
4, 79440, Note_off_c, 2, 45, 64
4, 79440, Note_off_c, 2, 48, 64
4, 79440, Note_off_c, 2, 52, 64
4, 79440, Note_off_c, 2, 57, 64
4, 79440, Note_on_c, 2, 52, 72
4, 79440, Note_on_c, 2, 57, 72
4, 79440, Note_on_c, 2, 48, 67
4, 79440, Note_on_c, 2, 45, 78
4, 79680, Note_off_c, 2, 45, 64
4, 79680, Note_off_c, 2, 48, 64
4, 79680, Note_off_c, 2, 57, 64
4, 79680, Note_off_c, 2, 52, 64
4, 79680, Note_on_c, 2, 52, 81
4, 79680, Note_on_c, 2, 57, 85
4, 79680, Note_on_c, 2, 45, 79
4, 79680, Note_on_c, 2, 48, 73
4, 79920, Note_off_c, 2, 48, 64
4, 79920, Note_off_c, 2, 45, 64
4, 79920, Note_off_c, 2, 57, 64
4, 79920, Note_off_c, 2, 52, 64
4, 79920, Note_on_c, 2, 41, 81
4, 79920, Note_on_c, 2, 45, 69
4, 79920, Note_on_c, 2, 53, 75
4, 79920, Note_on_c, 2, 48, 78
4, 80160, Note_off_c, 2, 48, 64
4, 80160, Note_off_c, 2, 53, 64
4, 80160, Note_off_c, 2, 45, 64
4, 80160, Note_off_c, 2, 41, 64
4, 80160, Note_on_c, 2, 53, 77
4, 80160, Note_on_c, 2, 48, 68
4, 80160, Note_on_c, 2, 45, 69
4, 80160, Note_on_c, 2, 41, 74
4, 80400, Note_off_c, 2, 41, 64
4, 80400, Note_off_c, 2, 45, 64
4, 80400, Note_off_c, 2, 48, 64
4, 80400, Note_off_c, 2, 53, 64
4, 80400, Note_on_c, 2, 48, 75
4, 80400, Note_on_c, 2, 53, 80
4, 80400, Note_on_c, 2, 45, 71
4, 80400, Note_on_c, 2, 41, 80
4, 80400, Note_on_c, 2, 65, 75
4, 80640, Note_off_c, 2, 65, 64
4, 80640, Note_off_c, 2, 41, 64
4, 80640, Note_off_c, 2, 45, 64
4, 80640, Note_off_c, 2, 53, 64
4, 80640, Note_off_c, 2, 48, 64
4, 80640, Note_on_c, 2, 53, 78
4, 80640, Note_on_c, 2, 48, 77
4, 80640, Note_on_c, 2, 45, 68
4, 80640, Note_on_c, 2, 41, 73
4, 80640, Note_on_c, 2, 65, 75
4, 80880, Note_off_c, 2, 65, 64
4, 80880, Note_off_c, 2, 41, 64
4, 80880, Note_off_c, 2, 45, 64
4, 80880, Note_off_c, 2, 48, 64
4, 80880, Note_off_c, 2, 53, 64
4, 80880, Note_on_c, 2, 65, 75
4, 80880, Note_on_c, 2, 43, 74
4, 80880, Note_on_c, 2, 47, 75
4, 80880, Note_on_c, 2, 55, 78
4, 80880, Note_on_c, 2, 50, 68
4, 80880, Note_on_c, 2, 59, 75
4, 81120, Note_off_c, 2, 59, 64
4, 81120, Note_off_c, 2, 50, 64
4, 81120, Note_off_c, 2, 55, 64
4, 81120, Note_off_c, 2, 47, 64
4, 81120, Note_off_c, 2, 43, 64
4, 81120, Note_off_c, 2, 65, 64
4, 81120, Note_on_c, 2, 65, 75
4, 81120, Note_on_c, 2, 50, 75
4, 81120, Note_on_c, 2, 55, 80
4, 81120, Note_on_c, 2, 47, 69
4, 81120, Note_on_c, 2, 43, 69
4, 81120, Note_on_c, 2, 59, 75
4, 81360, Note_off_c, 2, 59, 64
4, 81360, Note_off_c, 2, 43, 64
4, 81360, Note_off_c, 2, 47, 64
4, 81360, Note_off_c, 2, 55, 64
4, 81360, Note_off_c, 2, 50, 64
4, 81360, Note_off_c, 2, 65, 64
4, 81360, Note_on_c, 2, 55, 79
4, 81360, Note_on_c, 2, 50, 75
4, 81360, Note_on_c, 2, 47, 69
4, 81360, Note_on_c, 2, 43, 71
4, 81360, Note_on_c, 2, 59, 75
4, 81360, Note_on_c, 2, 65, 75
4, 81600, Note_off_c, 2, 65, 64
4, 81600, Note_off_c, 2, 59, 64
4, 81600, Note_off_c, 2, 43, 64
4, 81600, Note_off_c, 2, 47, 64
4, 81600, Note_off_c, 2, 50, 64
4, 81600, Note_off_c, 2, 55, 64
4, 81600, Note_on_c, 2, 65, 75
4, 81600, Note_on_c, 2, 50, 86
4, 81600, Note_on_c, 2, 55, 83
4, 81600, Note_on_c, 2, 47, 77
4, 81600, Note_on_c, 2, 43, 72
4, 81600, Note_on_c, 2, 59, 75
4, 81840, Note_off_c, 2, 59, 64
4, 81840, Note_off_c, 2, 43, 64
4, 81840, Note_off_c, 2, 47, 64
4, 81840, Note_off_c, 2, 55, 64
4, 81840, Note_off_c, 2, 50, 64
4, 81840, Note_off_c, 2, 65, 64
4, 81840, Note_on_c, 2, 48, 75
4, 81840, Note_on_c, 2, 53, 75
4, 81840, Note_on_c, 2, 56, 75
4, 81840, Note_on_c, 2, 60, 75
4, 81840, Note_on_c, 2, 65, 75
4, 81840, Note_on_c, 2, 41, 75
4, 83760, Note_off_c, 2, 41, 64
4, 83760, Note_off_c, 2, 65, 64
4, 83760, Note_off_c, 2, 60, 64
4, 83760, Note_off_c, 2, 56, 64
4, 83760, Note_off_c, 2, 53, 64
4, 83760, Note_off_c, 2, 48, 64
4, 85680, Pitch_bend_c, 2, 8192
4, 85680, Control_c, 2, 1, 0
4, 85680, Control_c, 2, 64, 0
4, 85680, Control_c, 2, 121, 0
4, 85680, Pitch_bend_c, 2, 8192
4, 85680, Control_c, 2, 1, 0
4, 85680, Control_c, 2, 64, 0
4, 85680, Control_c, 2, 121, 0
4, 85680, Pitch_bend_c, 2, 8192
4, 85680, Control_c, 2, 1, 0
4, 85680, Control_c, 2, 64, 0
4, 85680, Control_c, 2, 121, 0
4, 85680, Pitch_bend_c, 2, 8192
4, 85680, Control_c, 2, 1, 0
4, 85680, Control_c, 2, 64, 0
4, 85680, Control_c, 2, 121, 0
4, 85680, Pitch_bend_c, 2, 8192
4, 85680, Control_c, 2, 1, 0
4, 85680, Control_c, 2, 64, 0
4, 85680, Control_c, 2, 121, 0
4, 85680, Pitch_bend_c, 2, 8192
4, 85680, Control_c, 2, 1, 0
4, 85680, Control_c, 2, 64, 0
4, 85680, Control_c, 2, 121, 0
4, 85680, Pitch_bend_c, 2, 8192
4, 85680, Control_c, 2, 1, 0
4, 85680, Control_c, 2, 64, 0
4, 85680, Control_c, 2, 121, 0
4, 85680, Note_on_c, 2, 60, 83
4, 85680, Note_on_c, 2, 48, 64
4, 85680, Note_on_c, 2, 55, 56
4, 85680, Note_on_c, 2, 52, 51
4, 85920, Note_off_c, 2, 52, 64
4, 85920, Note_off_c, 2, 55, 64
4, 85920, Note_off_c, 2, 48, 64
4, 85920, Note_off_c, 2, 60, 64
4, 85920, Note_on_c, 2, 52, 42
4, 85920, Note_on_c, 2, 55, 41
4, 85920, Note_on_c, 2, 48, 73
4, 85920, Note_on_c, 2, 60, 67
4, 86160, Note_off_c, 2, 60, 64
4, 86160, Note_off_c, 2, 48, 64
4, 86160, Note_off_c, 2, 55, 64
4, 86160, Note_off_c, 2, 52, 64
4, 86160, Note_on_c, 2, 55, 50
4, 86160, Note_on_c, 2, 48, 73
4, 86160, Note_on_c, 2, 60, 75
4, 86160, Note_on_c, 2, 52, 61
4, 86400, Note_off_c, 2, 52, 64
4, 86400, Note_off_c, 2, 60, 64
4, 86400, Note_off_c, 2, 48, 64
4, 86400, Note_off_c, 2, 55, 64
4, 86400, Note_on_c, 2, 55, 73
4, 86400, Note_on_c, 2, 48, 75
4, 86400, Note_on_c, 2, 60, 80
4, 86400, Note_on_c, 2, 52, 60
4, 86640, Note_off_c, 2, 52, 64
4, 86640, Note_off_c, 2, 60, 64
4, 86640, Note_off_c, 2, 48, 64
4, 86640, Note_off_c, 2, 55, 64
4, 86640, Note_on_c, 2, 45, 70
4, 86640, Note_on_c, 2, 48, 69
4, 86640, Note_on_c, 2, 52, 78
4, 86640, Note_on_c, 2, 57, 68
4, 86880, Note_off_c, 2, 57, 64
4, 86880, Note_off_c, 2, 52, 64
4, 86880, Note_off_c, 2, 48, 64
4, 86880, Note_off_c, 2, 45, 64
4, 86880, Note_on_c, 2, 57, 69
4, 86880, Note_on_c, 2, 48, 68
4, 86880, Note_on_c, 2, 45, 69
4, 86880, Note_on_c, 2, 52, 61
4, 87120, Note_off_c, 2, 52, 64
4, 87120, Note_off_c, 2, 45, 64
4, 87120, Note_off_c, 2, 48, 64
4, 87120, Note_off_c, 2, 57, 64
4, 87120, Note_on_c, 2, 57, 67
4, 87120, Note_on_c, 2, 52, 70
4, 87120, Note_on_c, 2, 45, 66
4, 87120, Note_on_c, 2, 48, 67
4, 87360, Note_off_c, 2, 48, 64
4, 87360, Note_off_c, 2, 45, 64
4, 87360, Note_off_c, 2, 52, 64
4, 87360, Note_off_c, 2, 57, 64
4, 87360, Note_on_c, 2, 45, 85
4, 87360, Note_on_c, 2, 52, 81
4, 87360, Note_on_c, 2, 48, 83
4, 87360, Note_on_c, 2, 57, 84
4, 87600, Note_off_c, 2, 57, 64
4, 87600, Note_off_c, 2, 48, 64
4, 87600, Note_off_c, 2, 52, 64
4, 87600, Note_off_c, 2, 45, 64
4, 87600, Note_on_c, 2, 53, 75
4, 87600, Note_on_c, 2, 45, 63
4, 87600, Note_on_c, 2, 48, 68
4, 87600, Note_on_c, 2, 41, 53
4, 87840, Note_off_c, 2, 41, 64
4, 87840, Note_off_c, 2, 48, 64
4, 87840, Note_off_c, 2, 45, 64
4, 87840, Note_off_c, 2, 53, 64
4, 87840, Note_on_c, 2, 45, 65
4, 87840, Note_on_c, 2, 48, 72
4, 87840, Note_on_c, 2, 41, 69
4, 87840, Note_on_c, 2, 53, 77
4, 88080, Note_off_c, 2, 53, 64
4, 88080, Note_off_c, 2, 41, 64
4, 88080, Note_off_c, 2, 48, 64
4, 88080, Note_off_c, 2, 45, 64
4, 88080, Note_on_c, 2, 48, 67
4, 88080, Note_on_c, 2, 53, 74
4, 88080, Note_on_c, 2, 45, 68
4, 88080, Note_on_c, 2, 41, 73
4, 88320, Note_off_c, 2, 41, 64
4, 88320, Note_off_c, 2, 45, 64
4, 88320, Note_off_c, 2, 53, 64
4, 88320, Note_off_c, 2, 48, 64
4, 88320, Note_on_c, 2, 48, 73
4, 88320, Note_on_c, 2, 53, 85
4, 88320, Note_on_c, 2, 45, 66
4, 88320, Note_on_c, 2, 41, 70
4, 88560, Note_off_c, 2, 41, 64
4, 88560, Note_off_c, 2, 45, 64
4, 88560, Note_off_c, 2, 53, 64
4, 88560, Note_off_c, 2, 48, 64
4, 88560, Note_on_c, 2, 47, 68
4, 88560, Note_on_c, 2, 43, 78
4, 88560, Note_on_c, 2, 55, 77
4, 88560, Note_on_c, 2, 50, 74
4, 88800, Note_off_c, 2, 50, 64
4, 88800, Note_off_c, 2, 55, 64
4, 88800, Note_off_c, 2, 43, 64
4, 88800, Note_off_c, 2, 47, 64
4, 88800, Note_on_c, 2, 50, 79
4, 88800, Note_on_c, 2, 55, 74
4, 88800, Note_on_c, 2, 47, 72
4, 88800, Note_on_c, 2, 43, 71
4, 89040, Note_off_c, 2, 43, 64
4, 89040, Note_off_c, 2, 47, 64
4, 89040, Note_off_c, 2, 55, 64
4, 89040, Note_off_c, 2, 50, 64
4, 89040, Note_on_c, 2, 50, 77
4, 89040, Note_on_c, 2, 55, 74
4, 89040, Note_on_c, 2, 47, 67
4, 89040, Note_on_c, 2, 43, 73
4, 89280, Note_off_c, 2, 43, 64
4, 89280, Note_off_c, 2, 47, 64
4, 89280, Note_off_c, 2, 55, 64
4, 89280, Note_off_c, 2, 50, 64
4, 89280, Note_on_c, 2, 55, 81
4, 89280, Note_on_c, 2, 50, 75
4, 89280, Note_on_c, 2, 47, 79
4, 89280, Note_on_c, 2, 43, 81
4, 89520, Note_off_c, 2, 43, 64
4, 89520, Note_off_c, 2, 47, 64
4, 89520, Note_off_c, 2, 50, 64
4, 89520, Note_off_c, 2, 55, 64
4, 89520, Note_on_c, 2, 48, 75
4, 89520, Note_on_c, 2, 52, 57
4, 89520, Note_on_c, 2, 55, 70
4, 89520, Note_on_c, 2, 60, 77
4, 89760, Note_off_c, 2, 60, 64
4, 89760, Note_off_c, 2, 55, 64
4, 89760, Note_off_c, 2, 52, 64
4, 89760, Note_off_c, 2, 48, 64
4, 89760, Note_on_c, 2, 55, 49
4, 89760, Note_on_c, 2, 52, 64
4, 89760, Note_on_c, 2, 60, 88
4, 89760, Note_on_c, 2, 48, 86
4, 90000, Note_off_c, 2, 48, 64
4, 90000, Note_off_c, 2, 60, 64
4, 90000, Note_off_c, 2, 52, 64
4, 90000, Note_off_c, 2, 55, 64
4, 90000, Note_on_c, 2, 55, 68
4, 90000, Note_on_c, 2, 60, 81
4, 90000, Note_on_c, 2, 52, 67
4, 90000, Note_on_c, 2, 48, 85
4, 90240, Note_off_c, 2, 48, 64
4, 90240, Note_off_c, 2, 52, 64
4, 90240, Note_off_c, 2, 60, 64
4, 90240, Note_off_c, 2, 55, 64
4, 90240, Note_on_c, 2, 52, 80
4, 90240, Note_on_c, 2, 55, 73
4, 90240, Note_on_c, 2, 48, 88
4, 90240, Note_on_c, 2, 60, 84
4, 90480, Note_off_c, 2, 60, 64
4, 90480, Note_off_c, 2, 48, 64
4, 90480, Note_off_c, 2, 55, 64
4, 90480, Note_off_c, 2, 52, 64
4, 90480, Note_on_c, 2, 45, 63
4, 90480, Note_on_c, 2, 48, 62
4, 90480, Note_on_c, 2, 57, 77
4, 90480, Note_on_c, 2, 52, 60
4, 90720, Note_off_c, 2, 52, 64
4, 90720, Note_off_c, 2, 57, 64
4, 90720, Note_off_c, 2, 48, 64
4, 90720, Note_off_c, 2, 45, 64
4, 90720, Note_on_c, 2, 57, 73
4, 90720, Note_on_c, 2, 52, 71
4, 90720, Note_on_c, 2, 48, 68
4, 90720, Note_on_c, 2, 45, 68
4, 90960, Note_off_c, 2, 45, 64
4, 90960, Note_off_c, 2, 48, 64
4, 90960, Note_off_c, 2, 52, 64
4, 90960, Note_off_c, 2, 57, 64
4, 90960, Note_on_c, 2, 52, 72
4, 90960, Note_on_c, 2, 57, 72
4, 90960, Note_on_c, 2, 48, 67
4, 90960, Note_on_c, 2, 45, 78
4, 91200, Note_off_c, 2, 45, 64
4, 91200, Note_off_c, 2, 48, 64
4, 91200, Note_off_c, 2, 57, 64
4, 91200, Note_off_c, 2, 52, 64
4, 91200, Note_on_c, 2, 52, 81
4, 91200, Note_on_c, 2, 57, 85
4, 91200, Note_on_c, 2, 45, 79
4, 91200, Note_on_c, 2, 48, 73
4, 91440, Note_off_c, 2, 48, 64
4, 91440, Note_off_c, 2, 45, 64
4, 91440, Note_off_c, 2, 57, 64
4, 91440, Note_off_c, 2, 52, 64
4, 91440, Note_on_c, 2, 41, 81
4, 91440, Note_on_c, 2, 45, 69
4, 91440, Note_on_c, 2, 53, 75
4, 91440, Note_on_c, 2, 48, 78
4, 91680, Note_off_c, 2, 48, 64
4, 91680, Note_off_c, 2, 53, 64
4, 91680, Note_off_c, 2, 45, 64
4, 91680, Note_off_c, 2, 41, 64
4, 91680, Note_on_c, 2, 53, 77
4, 91680, Note_on_c, 2, 48, 68
4, 91680, Note_on_c, 2, 45, 69
4, 91680, Note_on_c, 2, 41, 74
4, 91920, Note_off_c, 2, 41, 64
4, 91920, Note_off_c, 2, 45, 64
4, 91920, Note_off_c, 2, 48, 64
4, 91920, Note_off_c, 2, 53, 64
4, 91920, Note_on_c, 2, 48, 75
4, 91920, Note_on_c, 2, 53, 80
4, 91920, Note_on_c, 2, 45, 71
4, 91920, Note_on_c, 2, 41, 80
4, 91920, Note_on_c, 2, 65, 75
4, 92160, Note_off_c, 2, 65, 64
4, 92160, Note_off_c, 2, 41, 64
4, 92160, Note_off_c, 2, 45, 64
4, 92160, Note_off_c, 2, 53, 64
4, 92160, Note_off_c, 2, 48, 64
4, 92160, Note_on_c, 2, 53, 78
4, 92160, Note_on_c, 2, 48, 77
4, 92160, Note_on_c, 2, 45, 68
4, 92160, Note_on_c, 2, 41, 73
4, 92160, Note_on_c, 2, 65, 75
4, 92400, Note_off_c, 2, 65, 64
4, 92400, Note_off_c, 2, 41, 64
4, 92400, Note_off_c, 2, 45, 64
4, 92400, Note_off_c, 2, 48, 64
4, 92400, Note_off_c, 2, 53, 64
4, 92400, Note_on_c, 2, 65, 75
4, 92400, Note_on_c, 2, 43, 74
4, 92400, Note_on_c, 2, 47, 75
4, 92400, Note_on_c, 2, 55, 78
4, 92400, Note_on_c, 2, 50, 68
4, 92400, Note_on_c, 2, 59, 75
4, 92640, Note_off_c, 2, 59, 64
4, 92640, Note_off_c, 2, 50, 64
4, 92640, Note_off_c, 2, 55, 64
4, 92640, Note_off_c, 2, 47, 64
4, 92640, Note_off_c, 2, 43, 64
4, 92640, Note_off_c, 2, 65, 64
4, 92640, Note_on_c, 2, 65, 75
4, 92640, Note_on_c, 2, 50, 75
4, 92640, Note_on_c, 2, 55, 80
4, 92640, Note_on_c, 2, 47, 69
4, 92640, Note_on_c, 2, 43, 69
4, 92640, Note_on_c, 2, 59, 75
4, 92880, Note_off_c, 2, 59, 64
4, 92880, Note_off_c, 2, 43, 64
4, 92880, Note_off_c, 2, 47, 64
4, 92880, Note_off_c, 2, 55, 64
4, 92880, Note_off_c, 2, 50, 64
4, 92880, Note_off_c, 2, 65, 64
4, 92880, Note_on_c, 2, 55, 79
4, 92880, Note_on_c, 2, 50, 75
4, 92880, Note_on_c, 2, 47, 69
4, 92880, Note_on_c, 2, 43, 71
4, 92880, Note_on_c, 2, 59, 75
4, 92880, Note_on_c, 2, 65, 75
4, 93120, Note_off_c, 2, 65, 64
4, 93120, Note_off_c, 2, 59, 64
4, 93120, Note_off_c, 2, 43, 64
4, 93120, Note_off_c, 2, 47, 64
4, 93120, Note_off_c, 2, 50, 64
4, 93120, Note_off_c, 2, 55, 64
4, 93120, Note_on_c, 2, 65, 75
4, 93120, Note_on_c, 2, 50, 86
4, 93120, Note_on_c, 2, 55, 83
4, 93120, Note_on_c, 2, 47, 77
4, 93120, Note_on_c, 2, 43, 72
4, 93120, Note_on_c, 2, 59, 75
4, 93360, Note_off_c, 2, 59, 64
4, 93360, Note_off_c, 2, 43, 64
4, 93360, Note_off_c, 2, 47, 64
4, 93360, Note_off_c, 2, 55, 64
4, 93360, Note_off_c, 2, 50, 64
4, 93360, Note_off_c, 2, 65, 64
4, 93360, Note_on_c, 2, 43, 75
4, 93360, Note_on_c, 2, 48, 75
4, 93360, Note_on_c, 2, 52, 75
4, 93360, Note_on_c, 2, 60, 75
4, 93360, Note_on_c, 2, 64, 75
4, 93360, Note_on_c, 2, 55, 75
4, 95280, Note_off_c, 2, 55, 64
4, 95280, Note_off_c, 2, 64, 64
4, 95280, Note_off_c, 2, 60, 64
4, 95280, Note_off_c, 2, 52, 64
4, 95280, Note_off_c, 2, 48, 64
4, 95280, Note_off_c, 2, 43, 64
4, 95280, End_track
5, 0, Start_track
5, 0, Title_t, "g2"
5, 0, MIDI_port, 0
5, 0, Channel_prefix, 3
5, 0, Control_c, 3, 7, 85
5, 0, Control_c, 3, 10, 120
5, 0, Program_c, 3, 30
5, 11520, Note_on_c, 3, 62, 100
5, 11520, Note_on_c, 3, 65, 100
5, 11520, Note_on_c, 3, 71, 100
5, 11884, Note_off_c, 3, 71, 64
5, 11884, Note_off_c, 3, 65, 64
5, 11884, Note_off_c, 3, 62, 64
5, 12960, Note_on_c, 3, 62, 100
5, 12960, Note_on_c, 3, 65, 100
5, 12960, Note_on_c, 3, 71, 100
5, 13140, Note_off_c, 3, 71, 64
5, 13140, Note_off_c, 3, 65, 64
5, 13140, Note_off_c, 3, 62, 64
5, 13920, Note_on_c, 3, 62, 100
5, 13920, Note_on_c, 3, 65, 100
5, 13920, Note_on_c, 3, 71, 100
5, 14100, Note_off_c, 3, 71, 64
5, 14100, Note_off_c, 3, 65, 64
5, 14100, Note_off_c, 3, 62, 64
5, 14880, Note_on_c, 3, 57, 100
5, 14880, Note_on_c, 3, 64, 100
5, 14880, Note_on_c, 3, 60, 100
5, 15060, Note_off_c, 3, 60, 64
5, 15060, Note_off_c, 3, 64, 64
5, 15060, Note_off_c, 3, 57, 64
5, 15840, Note_on_c, 3, 60, 100
5, 15840, Note_on_c, 3, 64, 100
5, 15852, Note_on_c, 3, 57, 100
5, 16204, Note_off_c, 3, 64, 64
5, 16204, Note_off_c, 3, 60, 64
5, 16216, Note_off_c, 3, 57, 64
5, 17760, Note_on_c, 3, 65, 100
5, 17760, Note_on_c, 3, 62, 100
5, 17760, Note_on_c, 3, 71, 100
5, 17940, Note_off_c, 3, 71, 64
5, 17940, Note_off_c, 3, 62, 64
5, 17940, Note_off_c, 3, 65, 64
5, 18720, Note_on_c, 3, 57, 100
5, 18720, Note_on_c, 3, 60, 100
5, 18720, Note_on_c, 3, 64, 100
5, 18900, Note_off_c, 3, 64, 64
5, 18900, Note_off_c, 3, 60, 64
5, 18900, Note_off_c, 3, 57, 64
5, 19664, Note_on_c, 3, 57, 100
5, 19680, Note_on_c, 3, 60, 100
5, 19680, Note_on_c, 3, 64, 100
5, 20028, Note_off_c, 3, 57, 64
5, 20044, Note_off_c, 3, 60, 64
5, 20044, Note_off_c, 3, 64, 64
5, 20640, Note_on_c, 3, 62, 100
5, 20640, Note_on_c, 3, 65, 100
5, 20640, Note_on_c, 3, 71, 100
5, 20820, Note_off_c, 3, 71, 64
5, 20820, Note_off_c, 3, 65, 64
5, 20820, Note_off_c, 3, 62, 64
5, 21600, Note_on_c, 3, 71, 100
5, 21600, Note_on_c, 3, 65, 100
5, 21600, Note_on_c, 3, 62, 100
5, 21780, Note_off_c, 3, 62, 64
5, 21780, Note_off_c, 3, 65, 64
5, 21780, Note_off_c, 3, 71, 64
5, 22560, Note_on_c, 3, 57, 100
5, 22560, Note_on_c, 3, 60, 100
5, 22560, Note_on_c, 3, 64, 100
5, 22740, Note_off_c, 3, 64, 64
5, 22740, Note_off_c, 3, 60, 64
5, 22740, Note_off_c, 3, 57, 64
5, 23504, Note_on_c, 3, 57, 100
5, 23520, Note_on_c, 3, 60, 100
5, 23520, Note_on_c, 3, 64, 100
5, 23868, Note_off_c, 3, 57, 64
5, 23884, Note_off_c, 3, 60, 64
5, 23884, Note_off_c, 3, 64, 64
5, 24480, Note_on_c, 3, 62, 100
5, 24480, Note_on_c, 3, 65, 100
5, 24480, Note_on_c, 3, 71, 100
5, 24660, Note_off_c, 3, 71, 64
5, 24660, Note_off_c, 3, 65, 64
5, 24660, Note_off_c, 3, 62, 64
5, 25440, Note_on_c, 3, 65, 100
5, 25440, Note_on_c, 3, 62, 100
5, 25440, Note_on_c, 3, 71, 100
5, 25620, Note_off_c, 3, 71, 64
5, 25620, Note_off_c, 3, 62, 64
5, 25620, Note_off_c, 3, 65, 64
5, 26880, Note_on_c, 3, 57, 100
5, 26880, Note_on_c, 3, 60, 100
5, 26880, Note_on_c, 3, 64, 100
5, 27024, Note_off_c, 3, 64, 64
5, 27024, Note_off_c, 3, 60, 64
5, 27024, Note_off_c, 3, 57, 64
5, 27360, Note_on_c, 3, 57, 100
5, 27360, Note_on_c, 3, 60, 100
5, 27360, Note_on_c, 3, 64, 100
5, 28200, Note_off_c, 3, 64, 64
5, 28200, Note_off_c, 3, 60, 64
5, 28200, Note_off_c, 3, 57, 64
5, 28256, Note_on_c, 3, 62, 100
5, 28316, Note_off_c, 3, 62, 64
5, 28320, Control_c, 3, 7, 110
5, 28320, Note_on_c, 3, 52, 100
5, 28532, Note_on_c, 3, 55, 100
5, 28560, Note_off_c, 3, 52, 64
5, 28564, Pitch_bend_c, 3, 6912
5, 28652, Pitch_bend_c, 3, 7040
5, 28688, Pitch_bend_c, 3, 7168
5, 28696, Pitch_bend_c, 3, 7296
5, 28704, Pitch_bend_c, 3, 7424
5, 28708, Pitch_bend_c, 3, 7552
5, 28720, Pitch_bend_c, 3, 7680
5, 28728, Pitch_bend_c, 3, 7808
5, 28732, Pitch_bend_c, 3, 7936
5, 28744, Pitch_bend_c, 3, 8320
5, 28748, Pitch_bend_c, 3, 8192
5, 29012, Note_off_c, 3, 55, 64
5, 29024, Note_on_c, 3, 48, 100
5, 29096, Note_on_c, 3, 50, 100
5, 29104, Note_off_c, 3, 48, 64
5, 29176, Note_off_c, 3, 50, 64
5, 29184, Note_on_c, 3, 48, 100
5, 29260, Note_on_c, 3, 45, 100
5, 29264, Note_off_c, 3, 48, 64
5, 29500, Note_off_c, 3, 45, 64
5, 29516, Note_on_c, 3, 48, 100
5, 29756, Note_off_c, 3, 48, 64
5, 29756, Note_on_c, 3, 50, 100
5, 29876, Note_off_c, 3, 50, 64
5, 29880, Note_on_c, 3, 52, 100
5, 29996, Note_on_c, 3, 50, 100
5, 30000, Note_off_c, 3, 52, 64
5, 30056, Note_off_c, 3, 50, 64
5, 30064, Note_on_c, 3, 52, 100
5, 30112, Note_on_c, 3, 50, 100
5, 30124, Note_off_c, 3, 52, 64
5, 30172, Note_off_c, 3, 50, 64
5, 30172, Note_on_c, 3, 48, 100
5, 30232, Note_off_c, 3, 48, 64
5, 30240, Note_on_c, 3, 45, 100
5, 30480, Note_off_c, 3, 45, 64
5, 30480, Note_on_c, 3, 52, 100
5, 30692, Note_on_c, 3, 55, 100
5, 30720, Note_off_c, 3, 52, 64
5, 30724, Pitch_bend_c, 3, 6912
5, 30812, Pitch_bend_c, 3, 7040
5, 30848, Pitch_bend_c, 3, 7168
5, 30856, Pitch_bend_c, 3, 7296
5, 30864, Pitch_bend_c, 3, 7424
5, 30868, Pitch_bend_c, 3, 7552
5, 30880, Pitch_bend_c, 3, 7680
5, 30888, Pitch_bend_c, 3, 7808
5, 30892, Pitch_bend_c, 3, 7936
5, 30904, Pitch_bend_c, 3, 8320
5, 30908, Pitch_bend_c, 3, 8192
5, 31172, Note_off_c, 3, 55, 64
5, 31184, Note_on_c, 3, 48, 100
5, 31256, Note_on_c, 3, 50, 100
5, 31264, Note_off_c, 3, 48, 64
5, 31336, Note_off_c, 3, 50, 64
5, 31344, Note_on_c, 3, 48, 100
5, 31420, Note_on_c, 3, 45, 100
5, 31424, Note_off_c, 3, 48, 64
5, 31660, Note_off_c, 3, 45, 64
5, 31676, Note_on_c, 3, 48, 100
5, 31908, Note_on_c, 3, 52, 100
5, 31916, Note_off_c, 3, 48, 64
5, 32148, Note_off_c, 3, 52, 64
5, 32156, Note_on_c, 3, 55, 100
5, 32632, Note_on_c, 3, 52, 100
5, 32636, Note_off_c, 3, 55, 64
5, 32752, Note_off_c, 3, 52, 64
5, 32752, Note_on_c, 3, 50, 100
5, 32872, Note_off_c, 3, 50, 64
5, 32876, Note_on_c, 3, 52, 100
5, 33048, Pitch_bend_c, 3, 8192
5, 33056, Pitch_bend_c, 3, 8320
5, 33060, Pitch_bend_c, 3, 8448
5, 33064, Pitch_bend_c, 3, 8576
5, 33068, Pitch_bend_c, 3, 8704
5, 33072, Pitch_bend_c, 3, 8832
5, 33080, Pitch_bend_c, 3, 8960
5, 33084, Pitch_bend_c, 3, 9088
5, 33088, Pitch_bend_c, 3, 9216
5, 33092, Pitch_bend_c, 3, 9344
5, 33100, Pitch_bend_c, 3, 9472
5, 33104, Pitch_bend_c, 3, 9600
5, 33108, Pitch_bend_c, 3, 9728
5, 33112, Pitch_bend_c, 3, 9856
5, 33120, Pitch_bend_c, 3, 9984
5, 33124, Pitch_bend_c, 3, 10112
5, 33128, Pitch_bend_c, 3, 10240
5, 33132, Pitch_bend_c, 3, 10368
5, 33136, Pitch_bend_c, 3, 10496
5, 33144, Pitch_bend_c, 3, 10624
5, 33148, Pitch_bend_c, 3, 10752
5, 33152, Pitch_bend_c, 3, 10880
5, 33160, Pitch_bend_c, 3, 11008
5, 33164, Pitch_bend_c, 3, 11136
5, 33168, Pitch_bend_c, 3, 11264
5, 33172, Pitch_bend_c, 3, 11392
5, 33176, Pitch_bend_c, 3, 11520
5, 33180, Pitch_bend_c, 3, 11648
5, 33188, Pitch_bend_c, 3, 11776
5, 33192, Pitch_bend_c, 3, 11904
5, 33200, Pitch_bend_c, 3, 12032
5, 33204, Pitch_bend_c, 3, 12160
5, 33208, Pitch_bend_c, 3, 12288
5, 33212, Pitch_bend_c, 3, 12416
5, 33216, Pitch_bend_c, 3, 12544
5, 33220, Pitch_bend_c, 3, 12672
5, 33224, Pitch_bend_c, 3, 12800
5, 33232, Pitch_bend_c, 3, 12928
5, 33240, Pitch_bend_c, 3, 13056
5, 33244, Pitch_bend_c, 3, 13184
5, 33248, Pitch_bend_c, 3, 13312
5, 33252, Pitch_bend_c, 3, 13440
5, 33256, Pitch_bend_c, 3, 13568
5, 33260, Pitch_bend_c, 3, 13696
5, 33264, Pitch_bend_c, 3, 13824
5, 33268, Pitch_bend_c, 3, 13952
5, 33280, Pitch_bend_c, 3, 14080
5, 33284, Pitch_bend_c, 3, 14208
5, 33288, Pitch_bend_c, 3, 14336
5, 33292, Pitch_bend_c, 3, 14464
5, 33296, Pitch_bend_c, 3, 14592
5, 33300, Pitch_bend_c, 3, 14720
5, 33304, Pitch_bend_c, 3, 14848
5, 33308, Pitch_bend_c, 3, 14976
5, 33312, Pitch_bend_c, 3, 15104
5, 33324, Pitch_bend_c, 3, 15232
5, 33328, Pitch_bend_c, 3, 15360
5, 33332, Pitch_bend_c, 3, 15488
5, 33336, Pitch_bend_c, 3, 15616
5, 33340, Pitch_bend_c, 3, 15744
5, 33344, Pitch_bend_c, 3, 15872
5, 33348, Pitch_bend_c, 3, 16000
5, 33352, Pitch_bend_c, 3, 16128
5, 33356, Note_off_c, 3, 52, 64
5, 33360, Note_on_c, 3, 55, 100
5, 33360, Pitch_bend_c, 3, 2432
5, 33368, Pitch_bend_c, 3, 2560
5, 33376, Pitch_bend_c, 3, 2688
5, 33384, Pitch_bend_c, 3, 2816
5, 33392, Pitch_bend_c, 3, 2944
5, 33404, Pitch_bend_c, 3, 3072
5, 33412, Pitch_bend_c, 3, 3200
5, 33420, Pitch_bend_c, 3, 3328
5, 33428, Pitch_bend_c, 3, 3456
5, 33440, Pitch_bend_c, 3, 3584
5, 33448, Pitch_bend_c, 3, 3712
5, 33456, Pitch_bend_c, 3, 3840
5, 33464, Pitch_bend_c, 3, 3968
5, 33472, Pitch_bend_c, 3, 4096
5, 33484, Pitch_bend_c, 3, 4224
5, 33492, Pitch_bend_c, 3, 4352
5, 33500, Pitch_bend_c, 3, 4480
5, 33508, Pitch_bend_c, 3, 4608
5, 33520, Pitch_bend_c, 3, 4736
5, 33528, Pitch_bend_c, 3, 4864
5, 33536, Pitch_bend_c, 3, 4992
5, 33544, Pitch_bend_c, 3, 5120
5, 33552, Pitch_bend_c, 3, 5248
5, 33560, Pitch_bend_c, 3, 5376
5, 33568, Pitch_bend_c, 3, 5504
5, 33576, Pitch_bend_c, 3, 5632
5, 33584, Pitch_bend_c, 3, 5760
5, 33592, Pitch_bend_c, 3, 5888
5, 33604, Pitch_bend_c, 3, 6016
5, 33612, Pitch_bend_c, 3, 6144
5, 33620, Pitch_bend_c, 3, 6272
5, 33628, Pitch_bend_c, 3, 6400
5, 33640, Pitch_bend_c, 3, 6528
5, 33648, Pitch_bend_c, 3, 6656
5, 33656, Pitch_bend_c, 3, 6784
5, 33664, Pitch_bend_c, 3, 6912
5, 33672, Pitch_bend_c, 3, 7040
5, 33684, Pitch_bend_c, 3, 7168
5, 33692, Pitch_bend_c, 3, 7296
5, 33700, Pitch_bend_c, 3, 7424
5, 33708, Pitch_bend_c, 3, 7552
5, 33720, Pitch_bend_c, 3, 7680
5, 33728, Pitch_bend_c, 3, 7808
5, 33736, Pitch_bend_c, 3, 7936
5, 33744, Pitch_bend_c, 3, 8064
5, 33748, Pitch_bend_c, 3, 8192
5, 33840, Note_off_c, 3, 55, 64
5, 33840, Note_on_c, 3, 48, 100
5, 34072, Note_on_c, 3, 45, 100
5, 34080, Note_off_c, 3, 48, 64
5, 34312, Note_off_c, 3, 45, 64
5, 34320, Note_on_c, 3, 48, 100
5, 34532, Note_on_c, 3, 50, 100
5, 34560, Note_off_c, 3, 48, 64
5, 34652, Note_off_c, 3, 50, 64
5, 34672, Note_on_c, 3, 52, 100
5, 34792, Note_off_c, 3, 52, 64
5, 34800, Note_on_c, 3, 50, 100
5, 34912, Note_on_c, 3, 52, 100
5, 34920, Note_off_c, 3, 50, 64
5, 35024, Note_on_c, 3, 50, 100
5, 35032, Note_off_c, 3, 52, 64
5, 35144, Note_off_c, 3, 50, 64
5, 35144, Note_on_c, 3, 48, 100
5, 35264, Note_off_c, 3, 48, 64
5, 35288, Note_on_c, 3, 45, 100
5, 36008, Note_off_c, 3, 45, 64
5, 36240, Note_on_c, 3, 45, 100
5, 36240, Note_on_c, 3, 52, 100
5, 36960, Note_off_c, 3, 52, 64
5, 36960, Note_off_c, 3, 45, 64
5, 36960, Note_on_c, 3, 52, 100
5, 36960, Note_on_c, 3, 45, 100
5, 37680, Note_off_c, 3, 45, 64
5, 37680, Note_off_c, 3, 52, 64
5, 37680, Note_on_c, 3, 52, 100
5, 37680, Note_on_c, 3, 45, 100
5, 38400, Note_off_c, 3, 45, 64
5, 38400, Note_off_c, 3, 52, 64
5, 38400, Note_on_c, 3, 45, 100
5, 38400, Note_on_c, 3, 52, 100
5, 39120, Note_off_c, 3, 52, 64
5, 39120, Note_off_c, 3, 45, 64
5, 39120, Note_on_c, 3, 45, 100
5, 39120, Note_on_c, 3, 52, 100
5, 39840, Note_off_c, 3, 52, 64
5, 39840, Note_off_c, 3, 45, 64
5, 39840, Note_on_c, 3, 45, 100
5, 39840, Note_on_c, 3, 52, 100
5, 40560, Note_off_c, 3, 52, 64
5, 40560, Note_off_c, 3, 45, 64
5, 40560, Note_on_c, 3, 45, 100
5, 40800, Note_off_c, 3, 45, 64
5, 40800, Note_on_c, 3, 46, 100
5, 41040, Note_off_c, 3, 46, 64
5, 41040, Note_on_c, 3, 48, 100
5, 41280, Note_off_c, 3, 48, 64
5, 41280, Note_on_c, 3, 48, 100
5, 41280, Note_on_c, 3, 55, 100
5, 42000, Note_off_c, 3, 55, 64
5, 42000, Note_off_c, 3, 48, 64
5, 42000, Note_on_c, 3, 43, 100
5, 42240, Note_off_c, 3, 43, 64
5, 42240, Note_on_c, 3, 47, 100
5, 42480, Note_off_c, 3, 47, 64
5, 42480, Note_on_c, 3, 46, 100
5, 42720, Note_off_c, 3, 46, 64
5, 42720, Note_on_c, 3, 45, 100
5, 44160, Note_off_c, 3, 45, 64
5, 44160, Note_on_c, 3, 45, 100
5, 44160, Note_on_c, 3, 52, 100
5, 44520, Note_off_c, 3, 52, 64
5, 44520, Note_off_c, 3, 45, 64
5, 44520, Note_on_c, 3, 45, 100
5, 44520, Note_on_c, 3, 52, 100
5, 44880, Note_off_c, 3, 52, 64
5, 44880, Note_off_c, 3, 45, 64
5, 44880, Note_on_c, 3, 48, 100
5, 45120, Note_off_c, 3, 48, 64
5, 45120, Note_on_c, 3, 52, 100
5, 45360, Note_off_c, 3, 52, 64
5, 45360, Note_on_c, 3, 55, 100
5, 45600, Note_off_c, 3, 55, 64
5, 45600, Note_on_c, 3, 57, 100
5, 45840, Note_off_c, 3, 57, 64
5, 45840, Note_on_c, 3, 55, 123
5, 46080, Note_off_c, 3, 55, 64
5, 46080, Note_on_c, 3, 52, 120
5, 46320, Note_off_c, 3, 52, 64
5, 46320, Note_on_c, 3, 45, 100
5, 46320, Note_on_c, 3, 52, 100
5, 46680, Note_off_c, 3, 52, 64
5, 46680, Note_off_c, 3, 45, 64
5, 46680, Note_on_c, 3, 45, 100
5, 46680, Note_on_c, 3, 52, 100
5, 47040, Note_off_c, 3, 52, 64
5, 47040, Note_off_c, 3, 45, 64
5, 47040, Note_on_c, 3, 43, 100
5, 47280, Note_off_c, 3, 43, 64
5, 47280, Note_on_c, 3, 47, 100
5, 47520, Note_off_c, 3, 47, 64
5, 47520, Note_on_c, 3, 50, 100
5, 47760, Note_off_c, 3, 50, 64
5, 47760, Note_on_c, 3, 55, 100
5, 48000, Note_off_c, 3, 55, 64
5, 48000, Note_on_c, 3, 53, 100
5, 48240, Note_off_c, 3, 53, 64
5, 48240, Note_on_c, 3, 50, 100
5, 48480, Note_off_c, 3, 50, 64
5, 48480, Note_on_c, 3, 43, 100
5, 48720, Note_off_c, 3, 43, 64
5, 48720, Note_on_c, 3, 45, 100
5, 48720, Note_on_c, 3, 52, 100
5, 49080, Note_off_c, 3, 52, 64
5, 49080, Note_off_c, 3, 45, 64
5, 49080, Note_on_c, 3, 45, 100
5, 49080, Note_on_c, 3, 52, 100
5, 49440, Note_off_c, 3, 52, 64
5, 49440, Note_off_c, 3, 45, 64
5, 49440, Note_on_c, 3, 48, 100
5, 49680, Note_off_c, 3, 48, 64
5, 49680, Note_on_c, 3, 52, 100
5, 49920, Note_off_c, 3, 52, 64
5, 49920, Note_on_c, 3, 55, 100
5, 50160, Note_off_c, 3, 55, 64
5, 50160, Note_on_c, 3, 57, 100
5, 50400, Note_off_c, 3, 57, 64
5, 50400, Note_on_c, 3, 55, 123
5, 50640, Note_off_c, 3, 55, 64
5, 50640, Note_on_c, 3, 52, 120
5, 50880, Note_off_c, 3, 52, 64
5, 50880, Note_on_c, 3, 45, 100
5, 50880, Note_on_c, 3, 52, 100
5, 51240, Note_off_c, 3, 52, 64
5, 51240, Note_off_c, 3, 45, 64
5, 51240, Note_on_c, 3, 45, 100
5, 51240, Note_on_c, 3, 52, 100
5, 51600, Note_off_c, 3, 52, 64
5, 51600, Note_off_c, 3, 45, 64
5, 51600, Note_on_c, 3, 43, 100
5, 51840, Note_off_c, 3, 43, 64
5, 51840, Note_on_c, 3, 47, 100
5, 52080, Note_off_c, 3, 47, 64
5, 52080, Note_on_c, 3, 50, 100
5, 52320, Note_off_c, 3, 50, 64
5, 52320, Note_on_c, 3, 55, 100
5, 52560, Note_off_c, 3, 55, 64
5, 52560, Note_on_c, 3, 53, 100
5, 52800, Note_off_c, 3, 53, 64
5, 52800, Note_on_c, 3, 50, 100
5, 53040, Note_off_c, 3, 50, 64
5, 53040, Note_on_c, 3, 43, 100
5, 53280, Note_off_c, 3, 43, 64
5, 53284, Note_on_c, 3, 45, 100
5, 53284, Note_on_c, 3, 52, 100
5, 53644, Note_off_c, 3, 52, 64
5, 53644, Note_off_c, 3, 45, 64
5, 53644, Note_on_c, 3, 45, 100
5, 53644, Note_on_c, 3, 52, 100
5, 54004, Note_off_c, 3, 52, 64
5, 54004, Note_off_c, 3, 45, 64
5, 54004, Note_on_c, 3, 48, 100
5, 54244, Note_off_c, 3, 48, 64
5, 54244, Note_on_c, 3, 52, 100
5, 54484, Note_off_c, 3, 52, 64
5, 54484, Note_on_c, 3, 55, 100
5, 54724, Note_off_c, 3, 55, 64
5, 54724, Note_on_c, 3, 57, 100
5, 54964, Note_off_c, 3, 57, 64
5, 54964, Note_on_c, 3, 55, 123
5, 55204, Note_off_c, 3, 55, 64
5, 55204, Note_on_c, 3, 52, 120
5, 55444, Note_off_c, 3, 52, 64
5, 55444, Note_on_c, 3, 45, 100
5, 55444, Note_on_c, 3, 52, 100
5, 55804, Note_off_c, 3, 52, 64
5, 55804, Note_off_c, 3, 45, 64
5, 55804, Note_on_c, 3, 45, 100
5, 55804, Note_on_c, 3, 52, 100
5, 56164, Note_off_c, 3, 52, 64
5, 56164, Note_off_c, 3, 45, 64
5, 56164, Note_on_c, 3, 43, 100
5, 56404, Note_off_c, 3, 43, 64
5, 56404, Note_on_c, 3, 47, 100
5, 56644, Note_off_c, 3, 47, 64
5, 56644, Note_on_c, 3, 50, 100
5, 56884, Note_off_c, 3, 50, 64
5, 56884, Note_on_c, 3, 55, 100
5, 57124, Note_off_c, 3, 55, 64
5, 57124, Note_on_c, 3, 53, 100
5, 57364, Note_off_c, 3, 53, 64
5, 57364, Note_on_c, 3, 50, 100
5, 57604, Note_off_c, 3, 50, 64
5, 57604, Note_on_c, 3, 43, 100
5, 57844, Note_off_c, 3, 43, 64
5, 58560, Note_on_c, 3, 64, 100
5, 58560, Note_on_c, 3, 67, 100
5, 58560, Note_on_c, 3, 60, 100
5, 58800, Note_off_c, 3, 60, 64
5, 58800, Note_off_c, 3, 67, 64
5, 58800, Note_off_c, 3, 64, 64
5, 59520, Note_on_c, 3, 64, 100
5, 59520, Note_on_c, 3, 60, 100
5, 59520, Note_on_c, 3, 69, 100
5, 59760, Note_off_c, 3, 69, 64
5, 59760, Note_off_c, 3, 60, 64
5, 59760, Note_off_c, 3, 64, 64
5, 60480, Note_on_c, 3, 69, 100
5, 60480, Note_on_c, 3, 60, 100
5, 60480, Note_on_c, 3, 65, 100
5, 60720, Note_off_c, 3, 65, 64
5, 60720, Note_off_c, 3, 60, 64
5, 60720, Note_off_c, 3, 69, 64
5, 61440, Note_on_c, 3, 67, 100
5, 61440, Note_on_c, 3, 59, 100
5, 61440, Note_on_c, 3, 62, 100
5, 61680, Note_off_c, 3, 62, 64
5, 61680, Note_off_c, 3, 59, 64
5, 61680, Note_off_c, 3, 67, 64
5, 62400, Note_on_c, 3, 64, 100
5, 62400, Note_on_c, 3, 67, 100
5, 62400, Note_on_c, 3, 60, 100
5, 62640, Note_off_c, 3, 60, 64
5, 62640, Note_off_c, 3, 67, 64
5, 62640, Note_off_c, 3, 64, 64
5, 63360, Note_on_c, 3, 64, 100
5, 63360, Note_on_c, 3, 60, 100
5, 63360, Note_on_c, 3, 69, 100
5, 63600, Note_off_c, 3, 69, 64
5, 63600, Note_off_c, 3, 60, 64
5, 63600, Note_off_c, 3, 64, 64
5, 64320, Note_on_c, 3, 69, 100
5, 64320, Note_on_c, 3, 60, 100
5, 64320, Note_on_c, 3, 65, 100
5, 64560, Note_off_c, 3, 65, 64
5, 64560, Note_off_c, 3, 60, 64
5, 64560, Note_off_c, 3, 69, 64
5, 65280, Note_on_c, 3, 67, 100
5, 65280, Note_on_c, 3, 59, 100
5, 65280, Note_on_c, 3, 62, 100
5, 65520, Note_off_c, 3, 62, 64
5, 65520, Note_off_c, 3, 59, 64
5, 65520, Note_off_c, 3, 67, 64
5, 65520, Note_on_c, 3, 48, 100
5, 66240, Note_off_c, 3, 48, 64
5, 66240, Note_on_c, 3, 45, 100
5, 66960, Note_off_c, 3, 45, 64
5, 66960, Note_on_c, 3, 41, 100
5, 67680, Note_off_c, 3, 41, 64
5, 67680, Note_on_c, 3, 43, 100
5, 68400, Note_off_c, 3, 43, 64
5, 68400, Note_on_c, 3, 48, 100
5, 69120, Note_off_c, 3, 48, 64
5, 69120, Note_on_c, 3, 45, 100
5, 69840, Note_off_c, 3, 45, 64
5, 69840, Note_on_c, 3, 41, 100
5, 70560, Note_off_c, 3, 41, 64
5, 70560, Note_on_c, 3, 43, 100
5, 71280, Note_off_c, 3, 43, 64
5, 71284, Note_on_c, 3, 48, 100
5, 72004, Note_off_c, 3, 48, 64
5, 72004, Note_on_c, 3, 45, 100
5, 72724, Note_off_c, 3, 45, 64
5, 72724, Note_on_c, 3, 41, 100
5, 73444, Note_off_c, 3, 41, 64
5, 73444, Note_on_c, 3, 43, 100
5, 74164, Note_off_c, 3, 43, 64
5, 74880, Note_on_c, 3, 64, 100
5, 74880, Note_on_c, 3, 67, 100
5, 74880, Note_on_c, 3, 60, 100
5, 75120, Note_off_c, 3, 60, 64
5, 75120, Note_off_c, 3, 67, 64
5, 75120, Note_off_c, 3, 64, 64
5, 75840, Note_on_c, 3, 64, 100
5, 75840, Note_on_c, 3, 60, 100
5, 75840, Note_on_c, 3, 69, 100
5, 76080, Note_off_c, 3, 69, 64
5, 76080, Note_off_c, 3, 60, 64
5, 76080, Note_off_c, 3, 64, 64
5, 76800, Note_on_c, 3, 69, 100
5, 76800, Note_on_c, 3, 60, 100
5, 76800, Note_on_c, 3, 65, 100
5, 77040, Note_off_c, 3, 65, 64
5, 77040, Note_off_c, 3, 60, 64
5, 77040, Note_off_c, 3, 69, 64
5, 77760, Note_on_c, 3, 67, 100
5, 77760, Note_on_c, 3, 59, 100
5, 77760, Note_on_c, 3, 62, 100
5, 78000, Note_off_c, 3, 62, 64
5, 78000, Note_off_c, 3, 59, 64
5, 78000, Note_off_c, 3, 67, 64
5, 78720, Note_on_c, 3, 64, 100
5, 78720, Note_on_c, 3, 67, 100
5, 78720, Note_on_c, 3, 60, 100
5, 78960, Note_off_c, 3, 60, 64
5, 78960, Note_off_c, 3, 67, 64
5, 78960, Note_off_c, 3, 64, 64
5, 79680, Note_on_c, 3, 64, 100
5, 79680, Note_on_c, 3, 60, 100
5, 79680, Note_on_c, 3, 69, 100
5, 79920, Note_off_c, 3, 69, 64
5, 79920, Note_off_c, 3, 60, 64
5, 79920, Note_off_c, 3, 64, 64
5, 80640, Note_on_c, 3, 69, 100
5, 80640, Note_on_c, 3, 60, 100
5, 80640, Note_on_c, 3, 65, 100
5, 80880, Note_off_c, 3, 65, 64
5, 80880, Note_off_c, 3, 60, 64
5, 80880, Note_off_c, 3, 69, 64
5, 81600, Note_on_c, 3, 67, 100
5, 81600, Note_on_c, 3, 59, 100
5, 81600, Note_on_c, 3, 62, 100
5, 81840, Note_off_c, 3, 62, 64
5, 81840, Note_off_c, 3, 59, 64
5, 81840, Note_off_c, 3, 67, 64
5, 81840, Note_on_c, 3, 65, 100
5, 81848, Note_on_c, 3, 56, 100
5, 81868, Note_on_c, 3, 60, 100
5, 83760, Note_off_c, 3, 65, 64
5, 83768, Note_off_c, 3, 56, 64
5, 83788, Note_off_c, 3, 60, 64
5, 85680, Note_on_c, 3, 48, 100
5, 86400, Note_off_c, 3, 48, 64
5, 86400, Note_on_c, 3, 47, 100
5, 86640, Note_off_c, 3, 47, 64
5, 86640, Note_on_c, 3, 45, 100
5, 87360, Note_off_c, 3, 45, 64
5, 87360, Note_on_c, 3, 43, 100
5, 87600, Note_off_c, 3, 43, 64
5, 87600, Note_on_c, 3, 41, 100
5, 88080, Note_off_c, 3, 41, 64
5, 88320, Note_on_c, 3, 57, 100
5, 88320, Note_on_c, 3, 60, 100
5, 88320, Note_on_c, 3, 65, 100
5, 88560, Note_off_c, 3, 65, 64
5, 88560, Note_off_c, 3, 60, 64
5, 88560, Note_off_c, 3, 57, 64
5, 89520, Note_on_c, 3, 48, 100
5, 90240, Note_off_c, 3, 48, 64
5, 90240, Note_on_c, 3, 47, 100
5, 90480, Note_off_c, 3, 47, 64
5, 90480, Note_on_c, 3, 45, 100
5, 91200, Note_off_c, 3, 45, 64
5, 91200, Note_on_c, 3, 43, 100
5, 91440, Note_off_c, 3, 43, 64
5, 91440, Note_on_c, 3, 41, 100
5, 92400, Note_off_c, 3, 41, 64
5, 92400, Note_on_c, 3, 43, 100
5, 92780, Note_on_c, 3, 50, 100
5, 92880, Note_off_c, 3, 43, 64
5, 92880, Note_on_c, 3, 52, 100
5, 92900, Note_off_c, 3, 50, 64
5, 93120, Note_off_c, 3, 52, 64
5, 93120, Note_on_c, 3, 50, 100
5, 93360, Note_off_c, 3, 50, 64
5, 93360, Note_on_c, 3, 48, 100
5, 96240, Note_off_c, 3, 48, 64
5, 96240, End_track
6, 0, Start_track
6, 0, Title_t, "bass"
6, 0, MIDI_port, 0
6, 0, Channel_prefix, 4
6, 0, Control_c, 4, 7, 80
6, 0, Control_c, 4, 10, 95
6, 0, Program_c, 4, 33
6, 10560, Note_on_c, 4, 52, 100
6, 10676, Note_off_c, 4, 52, 64
6, 10680, Note_on_c, 4, 52, 100
6, 10796, Note_off_c, 4, 52, 64
6, 10800, Note_on_c, 4, 52, 100
6, 10916, Note_off_c, 4, 52, 64
6, 10920, Note_on_c, 4, 52, 100
6, 11036, Note_off_c, 4, 52, 64
6, 11040, Note_on_c, 4, 52, 100
6, 11156, Note_off_c, 4, 52, 64
6, 11160, Note_on_c, 4, 52, 100
6, 11276, Note_off_c, 4, 52, 64
6, 11280, Note_on_c, 4, 52, 100
6, 11520, Note_off_c, 4, 52, 64
6, 11520, Note_on_c, 4, 38, 100
6, 11760, Note_off_c, 4, 38, 64
6, 12000, Note_on_c, 4, 33, 100
6, 12240, Note_off_c, 4, 33, 64
6, 12480, Note_on_c, 4, 38, 100
6, 12720, Note_off_c, 4, 38, 64
6, 12960, Note_on_c, 4, 33, 100
6, 13200, Note_off_c, 4, 33, 64
6, 13440, Note_on_c, 4, 38, 100
6, 13680, Note_off_c, 4, 38, 64
6, 13920, Note_on_c, 4, 33, 100
6, 14160, Note_off_c, 4, 33, 64
6, 14400, Note_on_c, 4, 45, 100
6, 14640, Note_off_c, 4, 45, 64
6, 14880, Note_on_c, 4, 40, 100
6, 15120, Note_off_c, 4, 40, 64
6, 15360, Note_on_c, 4, 45, 100
6, 15600, Note_off_c, 4, 45, 64
6, 15840, Note_on_c, 4, 40, 100
6, 16080, Note_off_c, 4, 40, 64
6, 16320, Note_on_c, 4, 38, 100
6, 16560, Note_off_c, 4, 38, 64
6, 16800, Note_on_c, 4, 33, 100
6, 17040, Note_off_c, 4, 33, 64
6, 17280, Note_on_c, 4, 38, 100
6, 17520, Note_off_c, 4, 38, 64
6, 17760, Note_on_c, 4, 33, 100
6, 18000, Note_off_c, 4, 33, 64
6, 18240, Note_on_c, 4, 45, 100
6, 18480, Note_off_c, 4, 45, 64
6, 18720, Note_on_c, 4, 40, 100
6, 18960, Note_off_c, 4, 40, 64
6, 19200, Note_on_c, 4, 45, 100
6, 19440, Note_off_c, 4, 45, 64
6, 19680, Note_on_c, 4, 33, 100
6, 19796, Note_off_c, 4, 33, 64
6, 19800, Note_on_c, 4, 33, 100
6, 19916, Note_off_c, 4, 33, 64
6, 19920, Note_on_c, 4, 36, 100
6, 20160, Note_off_c, 4, 36, 64
6, 20160, Note_on_c, 4, 38, 100
6, 20400, Note_off_c, 4, 38, 64
6, 20640, Note_on_c, 4, 33, 100
6, 20880, Note_off_c, 4, 33, 64
6, 21120, Note_on_c, 4, 38, 100
6, 21360, Note_off_c, 4, 38, 64
6, 21600, Note_on_c, 4, 33, 100
6, 21840, Note_off_c, 4, 33, 64
6, 22080, Note_on_c, 4, 45, 100
6, 22320, Note_off_c, 4, 45, 64
6, 22560, Note_on_c, 4, 40, 100
6, 22800, Note_off_c, 4, 40, 64
6, 23040, Note_on_c, 4, 45, 100
6, 23280, Note_off_c, 4, 45, 64
6, 23520, Note_on_c, 4, 40, 100
6, 23760, Note_off_c, 4, 40, 64
6, 24000, Note_on_c, 4, 38, 100
6, 24240, Note_off_c, 4, 38, 64
6, 24480, Note_on_c, 4, 33, 100
6, 24720, Note_off_c, 4, 33, 64
6, 24960, Note_on_c, 4, 38, 100
6, 25200, Note_off_c, 4, 38, 64
6, 25440, Note_on_c, 4, 33, 100
6, 25680, Note_off_c, 4, 33, 64
6, 25920, Note_on_c, 4, 38, 100
6, 26160, Note_off_c, 4, 38, 64
6, 26400, Note_on_c, 4, 45, 100
6, 26640, Note_off_c, 4, 45, 64
6, 26880, Note_on_c, 4, 40, 100
6, 27120, Note_off_c, 4, 40, 64
6, 27360, Note_on_c, 4, 52, 100
6, 27476, Note_off_c, 4, 52, 64
6, 27480, Note_on_c, 4, 52, 100
6, 27596, Note_off_c, 4, 52, 64
6, 27600, Note_on_c, 4, 52, 100
6, 27716, Note_off_c, 4, 52, 64
6, 27720, Note_on_c, 4, 52, 100
6, 27836, Note_off_c, 4, 52, 64
6, 27840, Note_on_c, 4, 52, 100
6, 27956, Note_off_c, 4, 52, 64
6, 27960, Note_on_c, 4, 48, 100
6, 28076, Note_off_c, 4, 48, 64
6, 28080, Note_on_c, 4, 45, 100
6, 28196, Note_off_c, 4, 45, 64
6, 28200, Note_on_c, 4, 43, 100
6, 28316, Note_off_c, 4, 43, 64
6, 28320, Note_on_c, 4, 45, 100
6, 29012, Note_on_c, 4, 40, 100
6, 29040, Note_off_c, 4, 45, 64
6, 29252, Note_off_c, 4, 40, 64
6, 29296, Note_on_c, 4, 43, 100
6, 29536, Note_off_c, 4, 43, 64
6, 29548, Note_on_c, 4, 44, 100
6, 29764, Note_on_c, 4, 45, 100
6, 29788, Note_off_c, 4, 44, 64
6, 30004, Note_off_c, 4, 45, 64
6, 30480, Note_on_c, 4, 40, 100
6, 31196, Note_on_c, 4, 45, 100
6, 31200, Note_off_c, 4, 40, 64
6, 31916, Note_off_c, 4, 45, 64
6, 31916, Note_on_c, 4, 40, 100
6, 32156, Note_off_c, 4, 40, 64
6, 32168, Note_on_c, 4, 43, 100
6, 32392, Note_on_c, 4, 44, 100
6, 32408, Note_off_c, 4, 43, 64
6, 32616, Note_on_c, 4, 45, 100
6, 32632, Note_off_c, 4, 44, 64
6, 32856, Note_off_c, 4, 45, 64
6, 32868, Note_on_c, 4, 46, 100
6, 33108, Note_off_c, 4, 46, 64
6, 33120, Note_on_c, 4, 47, 100
6, 33360, Note_off_c, 4, 47, 64
6, 33360, Note_on_c, 4, 48, 100
6, 34068, Note_on_c, 4, 43, 100
6, 34080, Note_off_c, 4, 48, 64
6, 34304, Note_on_c, 4, 47, 100
6, 34308, Note_off_c, 4, 43, 64
6, 34544, Note_off_c, 4, 47, 64
6, 34560, Note_on_c, 4, 46, 100
6, 34796, Note_on_c, 4, 45, 100
6, 34800, Note_off_c, 4, 46, 64
6, 35516, Note_off_c, 4, 45, 64
6, 35516, Note_on_c, 4, 40, 100
6, 36236, Note_off_c, 4, 40, 64
6, 36240, Note_on_c, 4, 45, 100
6, 36932, Note_on_c, 4, 40, 100
6, 36960, Note_off_c, 4, 45, 64
6, 37172, Note_off_c, 4, 40, 64
6, 37216, Note_on_c, 4, 43, 100
6, 37456, Note_off_c, 4, 43, 64
6, 37468, Note_on_c, 4, 44, 100
6, 37684, Note_on_c, 4, 45, 100
6, 37708, Note_off_c, 4, 44, 64
6, 37924, Note_off_c, 4, 45, 64
6, 38400, Note_on_c, 4, 40, 100
6, 39116, Note_on_c, 4, 45, 100
6, 39120, Note_off_c, 4, 40, 64
6, 39836, Note_off_c, 4, 45, 64
6, 39836, Note_on_c, 4, 40, 100
6, 40076, Note_off_c, 4, 40, 64
6, 40088, Note_on_c, 4, 43, 100
6, 40312, Note_on_c, 4, 44, 100
6, 40328, Note_off_c, 4, 43, 64
6, 40536, Note_on_c, 4, 45, 100
6, 40552, Note_off_c, 4, 44, 64
6, 40776, Note_off_c, 4, 45, 64
6, 40788, Note_on_c, 4, 46, 100
6, 41028, Note_off_c, 4, 46, 64
6, 41040, Note_on_c, 4, 47, 100
6, 41280, Note_off_c, 4, 47, 64
6, 41280, Note_on_c, 4, 48, 100
6, 41988, Note_on_c, 4, 43, 100
6, 42000, Note_off_c, 4, 48, 64
6, 42224, Note_on_c, 4, 47, 100
6, 42228, Note_off_c, 4, 43, 64
6, 42464, Note_off_c, 4, 47, 64
6, 42480, Note_on_c, 4, 46, 100
6, 42716, Note_on_c, 4, 45, 100
6, 42720, Note_off_c, 4, 46, 64
6, 44156, Note_off_c, 4, 45, 64
6, 44160, Note_on_c, 4, 45, 100
6, 44276, Note_off_c, 4, 45, 64
6, 44280, Note_on_c, 4, 45, 100
6, 44396, Note_off_c, 4, 45, 64
6, 44400, Note_on_c, 4, 45, 100
6, 44516, Note_off_c, 4, 45, 64
6, 44520, Note_on_c, 4, 45, 100
6, 44760, Note_off_c, 4, 45, 64
6, 44760, Note_on_c, 4, 45, 100
6, 44876, Note_off_c, 4, 45, 64
6, 44880, Note_on_c, 4, 36, 100
6, 45120, Note_off_c, 4, 36, 64
6, 45120, Note_on_c, 4, 40, 100
6, 45360, Note_off_c, 4, 40, 64
6, 45360, Note_on_c, 4, 43, 100
6, 45600, Note_off_c, 4, 43, 64
6, 45600, Note_on_c, 4, 45, 100
6, 45840, Note_off_c, 4, 45, 64
6, 45840, Note_on_c, 4, 43, 106
6, 46080, Note_off_c, 4, 43, 64
6, 46080, Note_on_c, 4, 40, 110
6, 46320, Note_off_c, 4, 40, 64
6, 46320, Note_on_c, 4, 33, 100
6, 46436, Note_off_c, 4, 33, 64
6, 46440, Note_on_c, 4, 33, 100
6, 46556, Note_off_c, 4, 33, 64
6, 46560, Note_on_c, 4, 33, 100
6, 46676, Note_off_c, 4, 33, 64
6, 46680, Note_on_c, 4, 33, 100
6, 46920, Note_off_c, 4, 33, 64
6, 46920, Note_on_c, 4, 33, 100
6, 47036, Note_off_c, 4, 33, 64
6, 47040, Note_on_c, 4, 31, 100
6, 47280, Note_off_c, 4, 31, 64
6, 47280, Note_on_c, 4, 35, 100
6, 47520, Note_off_c, 4, 35, 64
6, 47520, Note_on_c, 4, 38, 100
6, 47760, Note_off_c, 4, 38, 64
6, 47760, Note_on_c, 4, 43, 100
6, 48000, Note_off_c, 4, 43, 64
6, 48000, Note_on_c, 4, 41, 100
6, 48240, Note_off_c, 4, 41, 64
6, 48240, Note_on_c, 4, 38, 100
6, 48480, Note_off_c, 4, 38, 64
6, 48480, Note_on_c, 4, 31, 100
6, 48720, Note_off_c, 4, 31, 64
6, 48720, Note_on_c, 4, 33, 100
6, 48836, Note_off_c, 4, 33, 64
6, 48840, Note_on_c, 4, 33, 100
6, 48956, Note_off_c, 4, 33, 64
6, 48960, Note_on_c, 4, 33, 100
6, 49076, Note_off_c, 4, 33, 64
6, 49080, Note_on_c, 4, 33, 100
6, 49320, Note_off_c, 4, 33, 64
6, 49320, Note_on_c, 4, 33, 100
6, 49436, Note_off_c, 4, 33, 64
6, 49440, Note_on_c, 4, 36, 100
6, 49680, Note_off_c, 4, 36, 64
6, 49680, Note_on_c, 4, 40, 100
6, 49920, Note_off_c, 4, 40, 64
6, 49920, Note_on_c, 4, 43, 100
6, 50160, Note_off_c, 4, 43, 64
6, 50160, Note_on_c, 4, 45, 100
6, 50400, Note_off_c, 4, 45, 64
6, 50400, Note_on_c, 4, 43, 106
6, 50640, Note_off_c, 4, 43, 64
6, 50640, Note_on_c, 4, 40, 110
6, 50880, Note_off_c, 4, 40, 64
6, 50880, Note_on_c, 4, 33, 100
6, 50996, Note_off_c, 4, 33, 64
6, 51000, Note_on_c, 4, 33, 100
6, 51116, Note_off_c, 4, 33, 64
6, 51120, Note_on_c, 4, 33, 100
6, 51236, Note_off_c, 4, 33, 64
6, 51240, Note_on_c, 4, 33, 100
6, 51480, Note_off_c, 4, 33, 64
6, 51480, Note_on_c, 4, 33, 100
6, 51596, Note_off_c, 4, 33, 64
6, 51600, Note_on_c, 4, 31, 100
6, 51840, Note_off_c, 4, 31, 64
6, 51840, Note_on_c, 4, 35, 100
6, 52080, Note_off_c, 4, 35, 64
6, 52080, Note_on_c, 4, 38, 100
6, 52320, Note_off_c, 4, 38, 64
6, 52320, Note_on_c, 4, 43, 100
6, 52560, Note_off_c, 4, 43, 64
6, 52560, Note_on_c, 4, 41, 100
6, 52800, Note_off_c, 4, 41, 64
6, 52800, Note_on_c, 4, 38, 100
6, 53040, Note_off_c, 4, 38, 64
6, 53040, Note_on_c, 4, 31, 100
6, 53280, Note_off_c, 4, 31, 64
6, 53280, Note_on_c, 4, 33, 100
6, 53396, Note_off_c, 4, 33, 64
6, 53400, Note_on_c, 4, 33, 100
6, 53516, Note_off_c, 4, 33, 64
6, 53520, Note_on_c, 4, 33, 100
6, 53636, Note_off_c, 4, 33, 64
6, 53640, Note_on_c, 4, 33, 100
6, 53880, Note_off_c, 4, 33, 64
6, 53880, Note_on_c, 4, 33, 100
6, 53996, Note_off_c, 4, 33, 64
6, 54000, Note_on_c, 4, 36, 100
6, 54240, Note_off_c, 4, 36, 64
6, 54240, Note_on_c, 4, 40, 100
6, 54480, Note_off_c, 4, 40, 64
6, 54480, Note_on_c, 4, 43, 100
6, 54720, Note_off_c, 4, 43, 64
6, 54720, Note_on_c, 4, 45, 100
6, 54960, Note_off_c, 4, 45, 64
6, 54960, Note_on_c, 4, 43, 106
6, 55200, Note_off_c, 4, 43, 64
6, 55200, Note_on_c, 4, 40, 110
6, 55440, Note_off_c, 4, 40, 64
6, 55440, Note_on_c, 4, 33, 100
6, 55556, Note_off_c, 4, 33, 64
6, 55560, Note_on_c, 4, 33, 100
6, 55676, Note_off_c, 4, 33, 64
6, 55680, Note_on_c, 4, 33, 100
6, 55796, Note_off_c, 4, 33, 64
6, 55800, Note_on_c, 4, 33, 100
6, 56040, Note_off_c, 4, 33, 64
6, 56040, Note_on_c, 4, 33, 100
6, 56156, Note_off_c, 4, 33, 64
6, 56160, Note_on_c, 4, 31, 100
6, 56400, Note_off_c, 4, 31, 64
6, 56400, Note_on_c, 4, 35, 100
6, 56640, Note_off_c, 4, 35, 64
6, 56640, Note_on_c, 4, 38, 100
6, 56880, Note_off_c, 4, 38, 64
6, 56880, Note_on_c, 4, 43, 100
6, 57120, Note_off_c, 4, 43, 64
6, 57120, Note_on_c, 4, 41, 100
6, 57360, Note_off_c, 4, 41, 64
6, 57360, Note_on_c, 4, 38, 100
6, 57600, Note_off_c, 4, 38, 64
6, 57600, Note_on_c, 4, 31, 100
6, 57840, Note_off_c, 4, 31, 64
6, 57840, Note_on_c, 4, 36, 100
6, 58320, Note_off_c, 4, 36, 64
6, 58560, Note_on_c, 4, 35, 100
6, 58800, Note_off_c, 4, 35, 64
6, 58800, Note_on_c, 4, 33, 100
6, 59280, Note_off_c, 4, 33, 64
6, 59520, Note_on_c, 4, 31, 100
6, 59760, Note_off_c, 4, 31, 64
6, 59760, Note_on_c, 4, 29, 100
6, 60720, Note_off_c, 4, 29, 64
6, 60720, Note_on_c, 4, 31, 100
6, 61200, Note_off_c, 4, 31, 64
6, 61200, Note_on_c, 4, 33, 100
6, 61440, Note_off_c, 4, 33, 64
6, 61440, Note_on_c, 4, 35, 100
6, 61680, Note_off_c, 4, 35, 64
6, 61680, Note_on_c, 4, 36, 100
6, 62160, Note_off_c, 4, 36, 64
6, 62400, Note_on_c, 4, 35, 100
6, 62640, Note_off_c, 4, 35, 64
6, 62640, Note_on_c, 4, 33, 100
6, 63120, Note_off_c, 4, 33, 64
6, 63360, Note_on_c, 4, 31, 100
6, 63600, Note_off_c, 4, 31, 64
6, 63600, Note_on_c, 4, 29, 100
6, 64560, Note_off_c, 4, 29, 64
6, 64560, Note_on_c, 4, 31, 100
6, 65040, Note_off_c, 4, 31, 64
6, 65040, Note_on_c, 4, 33, 100
6, 65280, Note_off_c, 4, 33, 64
6, 65280, Note_on_c, 4, 35, 100
6, 65520, Note_off_c, 4, 35, 64
6, 65520, Note_on_c, 4, 36, 100
6, 66000, Note_off_c, 4, 36, 64
6, 66240, Note_on_c, 4, 33, 100
6, 66720, Note_off_c, 4, 33, 64
6, 66960, Note_on_c, 4, 29, 100
6, 67440, Note_off_c, 4, 29, 64
6, 67680, Note_on_c, 4, 31, 100
6, 68160, Note_off_c, 4, 31, 64
6, 68400, Note_on_c, 4, 36, 100
6, 68880, Note_off_c, 4, 36, 64
6, 69120, Note_on_c, 4, 33, 100
6, 69600, Note_off_c, 4, 33, 64
6, 69840, Note_on_c, 4, 29, 100
6, 70320, Note_off_c, 4, 29, 64
6, 70560, Note_on_c, 4, 31, 100
6, 71040, Note_off_c, 4, 31, 64
6, 71280, Note_on_c, 4, 36, 100
6, 71760, Note_off_c, 4, 36, 64
6, 72000, Note_on_c, 4, 33, 100
6, 72480, Note_off_c, 4, 33, 64
6, 72720, Note_on_c, 4, 29, 100
6, 73200, Note_off_c, 4, 29, 64
6, 73440, Note_on_c, 4, 31, 100
6, 73920, Note_off_c, 4, 31, 64
6, 74160, Note_on_c, 4, 36, 100
6, 74640, Note_off_c, 4, 36, 64
6, 74880, Note_on_c, 4, 35, 100
6, 75120, Note_off_c, 4, 35, 64
6, 75120, Note_on_c, 4, 33, 100
6, 75600, Note_off_c, 4, 33, 64
6, 75840, Note_on_c, 4, 31, 100
6, 76080, Note_off_c, 4, 31, 64
6, 76080, Note_on_c, 4, 29, 100
6, 77040, Note_off_c, 4, 29, 64
6, 77040, Note_on_c, 4, 31, 100
6, 77520, Note_off_c, 4, 31, 64
6, 77520, Note_on_c, 4, 33, 100
6, 77760, Note_off_c, 4, 33, 64
6, 77760, Note_on_c, 4, 35, 100
6, 78000, Note_off_c, 4, 35, 64
6, 78000, Note_on_c, 4, 36, 100
6, 78480, Note_off_c, 4, 36, 64
6, 78720, Note_on_c, 4, 35, 100
6, 78960, Note_off_c, 4, 35, 64
6, 78960, Note_on_c, 4, 33, 100
6, 79440, Note_off_c, 4, 33, 64
6, 79680, Note_on_c, 4, 31, 100
6, 79920, Note_off_c, 4, 31, 64
6, 79920, Note_on_c, 4, 29, 100
6, 80880, Note_off_c, 4, 29, 64
6, 80880, Note_on_c, 4, 31, 100
6, 81360, Note_off_c, 4, 31, 64
6, 81360, Note_on_c, 4, 33, 100
6, 81600, Note_off_c, 4, 33, 64
6, 81600, Note_on_c, 4, 35, 100
6, 81840, Note_off_c, 4, 35, 64
6, 81840, Note_on_c, 4, 36, 100
6, 83760, Note_off_c, 4, 36, 64
6, 85680, Note_on_c, 4, 36, 100
6, 86160, Note_off_c, 4, 36, 64
6, 86400, Note_on_c, 4, 35, 100
6, 86640, Note_off_c, 4, 35, 64
6, 86640, Note_on_c, 4, 33, 100
6, 87120, Note_off_c, 4, 33, 64
6, 87360, Note_on_c, 4, 31, 100
6, 87600, Note_off_c, 4, 31, 64
6, 87600, Note_on_c, 4, 29, 100
6, 88560, Note_off_c, 4, 29, 64
6, 88560, Note_on_c, 4, 31, 100
6, 89040, Note_off_c, 4, 31, 64
6, 89040, Note_on_c, 4, 33, 100
6, 89280, Note_off_c, 4, 33, 64
6, 89280, Note_on_c, 4, 35, 100
6, 89520, Note_off_c, 4, 35, 64
6, 89520, Note_on_c, 4, 36, 100
6, 90000, Note_off_c, 4, 36, 64
6, 90240, Note_on_c, 4, 35, 100
6, 90480, Note_off_c, 4, 35, 64
6, 90480, Note_on_c, 4, 33, 100
6, 90960, Note_off_c, 4, 33, 64
6, 91200, Note_on_c, 4, 31, 100
6, 91440, Note_off_c, 4, 31, 64
6, 91440, Note_on_c, 4, 29, 100
6, 92400, Note_off_c, 4, 29, 64
6, 92400, Note_on_c, 4, 31, 100
6, 92880, Note_off_c, 4, 31, 64
6, 92880, Note_on_c, 4, 33, 100
6, 93120, Note_off_c, 4, 33, 64
6, 93120, Note_on_c, 4, 35, 100
6, 93360, Note_off_c, 4, 35, 64
6, 93360, Note_on_c, 4, 36, 100
6, 96240, Note_off_c, 4, 36, 64
6, 96240, End_track
7, 0, Start_track
7, 0, Title_t, "drums"
7, 0, MIDI_port, 0
7, 0, Channel_prefix, 9
7, 0, Control_c, 9, 7, 127
7, 0, Control_c, 9, 10, 62
7, 10320, Note_on_c, 9, 43, 100
7, 10320, Note_on_c, 9, 38, 100
7, 10436, Note_off_c, 9, 38, 64
7, 10436, Note_off_c, 9, 43, 64
7, 10440, Note_on_c, 9, 38, 100
7, 10440, Note_on_c, 9, 43, 100
7, 10556, Note_off_c, 9, 43, 64
7, 10556, Note_off_c, 9, 38, 64
7, 10560, Note_on_c, 9, 38, 100
7, 10560, Note_on_c, 9, 43, 100
7, 10676, Note_off_c, 9, 43, 64
7, 10676, Note_off_c, 9, 38, 64
7, 10680, Note_on_c, 9, 43, 100
7, 10680, Note_on_c, 9, 38, 100
7, 10796, Note_off_c, 9, 38, 64
7, 10796, Note_off_c, 9, 43, 64
7, 10800, Note_on_c, 9, 38, 100
7, 10800, Note_on_c, 9, 43, 100
7, 10916, Note_off_c, 9, 43, 64
7, 10916, Note_off_c, 9, 38, 64
7, 10920, Note_on_c, 9, 38, 100
7, 10920, Note_on_c, 9, 43, 100
7, 11036, Note_off_c, 9, 43, 64
7, 11036, Note_off_c, 9, 38, 64
7, 11040, Note_on_c, 9, 43, 100
7, 11040, Note_on_c, 9, 38, 100
7, 11156, Note_off_c, 9, 38, 64
7, 11156, Note_off_c, 9, 43, 64
7, 11160, Note_on_c, 9, 43, 100
7, 11160, Note_on_c, 9, 38, 100
7, 11276, Note_off_c, 9, 38, 64
7, 11276, Note_off_c, 9, 43, 64
7, 11280, Note_on_c, 9, 38, 100
7, 11280, Note_on_c, 9, 43, 100
7, 11396, Note_off_c, 9, 43, 64
7, 11396, Note_off_c, 9, 38, 64
7, 11400, Note_on_c, 9, 43, 100
7, 11400, Note_on_c, 9, 38, 100
7, 11516, Note_off_c, 9, 38, 64
7, 11516, Note_off_c, 9, 43, 64
7, 11520, Note_on_c, 9, 42, 100
7, 11520, Note_on_c, 9, 36, 100
7, 11760, Note_off_c, 9, 36, 64
7, 11760, Note_off_c, 9, 42, 64
7, 11760, Note_on_c, 9, 42, 100
7, 12000, Note_off_c, 9, 42, 64
7, 12000, Note_on_c, 9, 36, 100
7, 12000, Note_on_c, 9, 38, 100
7, 12000, Note_on_c, 9, 42, 100
7, 12240, Note_off_c, 9, 42, 64
7, 12240, Note_off_c, 9, 38, 64
7, 12240, Note_off_c, 9, 36, 64
7, 12240, Note_on_c, 9, 42, 100
7, 12480, Note_off_c, 9, 42, 64
7, 12480, Note_on_c, 9, 36, 100
7, 12480, Note_on_c, 9, 42, 100
7, 12720, Note_off_c, 9, 42, 64
7, 12720, Note_off_c, 9, 36, 64
7, 12720, Note_on_c, 9, 42, 100
7, 12960, Note_off_c, 9, 42, 64
7, 12960, Note_on_c, 9, 36, 100
7, 12960, Note_on_c, 9, 38, 100
7, 12960, Note_on_c, 9, 42, 100
7, 13200, Note_off_c, 9, 42, 64
7, 13200, Note_off_c, 9, 38, 64
7, 13200, Note_off_c, 9, 36, 64
7, 13200, Note_on_c, 9, 42, 100
7, 13440, Note_off_c, 9, 42, 64
7, 13440, Note_on_c, 9, 36, 100
7, 13440, Note_on_c, 9, 42, 100
7, 13680, Note_off_c, 9, 42, 64
7, 13680, Note_off_c, 9, 36, 64
7, 13680, Note_on_c, 9, 42, 100
7, 13920, Note_off_c, 9, 42, 64
7, 13920, Note_on_c, 9, 36, 100
7, 13920, Note_on_c, 9, 38, 100
7, 13920, Note_on_c, 9, 42, 100
7, 14160, Note_off_c, 9, 42, 64
7, 14160, Note_off_c, 9, 38, 64
7, 14160, Note_off_c, 9, 36, 64
7, 14160, Note_on_c, 9, 42, 100
7, 14400, Note_off_c, 9, 42, 64
7, 14400, Note_on_c, 9, 36, 100
7, 14400, Note_on_c, 9, 42, 100
7, 14640, Note_off_c, 9, 42, 64
7, 14640, Note_off_c, 9, 36, 64
7, 14640, Note_on_c, 9, 42, 100
7, 14880, Note_off_c, 9, 42, 64
7, 14880, Note_on_c, 9, 36, 100
7, 14880, Note_on_c, 9, 38, 100
7, 14880, Note_on_c, 9, 42, 100
7, 15120, Note_off_c, 9, 42, 64
7, 15120, Note_off_c, 9, 38, 64
7, 15120, Note_off_c, 9, 36, 64
7, 15120, Note_on_c, 9, 46, 100
7, 15360, Note_off_c, 9, 46, 64
7, 15360, Note_on_c, 9, 36, 100
7, 15360, Note_on_c, 9, 38, 100
7, 15600, Note_off_c, 9, 38, 64
7, 15600, Note_off_c, 9, 36, 64
7, 15600, Note_on_c, 9, 38, 100
7, 15716, Note_off_c, 9, 38, 64
7, 15720, Note_on_c, 9, 38, 100
7, 15832, Note_on_c, 9, 48, 100
7, 15836, Note_off_c, 9, 38, 64
7, 15840, Note_on_c, 9, 36, 100
7, 15948, Note_off_c, 9, 48, 64
7, 15960, Note_on_c, 9, 38, 100
7, 16076, Note_off_c, 9, 38, 64
7, 16080, Note_off_c, 9, 36, 64
7, 16080, Note_on_c, 9, 41, 100
7, 16320, Note_off_c, 9, 41, 64
7, 16320, Note_on_c, 9, 49, 100
7, 16320, Note_on_c, 9, 36, 100
7, 16560, Note_off_c, 9, 36, 64
7, 16560, Note_off_c, 9, 49, 64
7, 16560, Note_on_c, 9, 42, 100
7, 16800, Note_off_c, 9, 42, 64
7, 16800, Note_on_c, 9, 36, 100
7, 16800, Note_on_c, 9, 42, 100
7, 16800, Note_on_c, 9, 38, 100
7, 17040, Note_off_c, 9, 38, 64
7, 17040, Note_off_c, 9, 42, 64
7, 17040, Note_off_c, 9, 36, 64
7, 17040, Note_on_c, 9, 42, 100
7, 17280, Note_off_c, 9, 42, 64
7, 17280, Note_on_c, 9, 36, 100
7, 17280, Note_on_c, 9, 42, 100
7, 17520, Note_off_c, 9, 42, 64
7, 17520, Note_off_c, 9, 36, 64
7, 17520, Note_on_c, 9, 42, 100
7, 17760, Note_off_c, 9, 42, 64
7, 17760, Note_on_c, 9, 36, 100
7, 17760, Note_on_c, 9, 42, 100
7, 17760, Note_on_c, 9, 38, 100
7, 18000, Note_off_c, 9, 38, 64
7, 18000, Note_off_c, 9, 42, 64
7, 18000, Note_off_c, 9, 36, 64
7, 18000, Note_on_c, 9, 42, 100
7, 18240, Note_off_c, 9, 42, 64
7, 18240, Note_on_c, 9, 36, 100
7, 18240, Note_on_c, 9, 42, 100
7, 18480, Note_off_c, 9, 42, 64
7, 18480, Note_off_c, 9, 36, 64
7, 18480, Note_on_c, 9, 42, 100
7, 18720, Note_off_c, 9, 42, 64
7, 18720, Note_on_c, 9, 36, 100
7, 18720, Note_on_c, 9, 42, 100
7, 18720, Note_on_c, 9, 38, 100
7, 18960, Note_off_c, 9, 38, 64
7, 18960, Note_off_c, 9, 42, 64
7, 18960, Note_off_c, 9, 36, 64
7, 18960, Note_on_c, 9, 42, 100
7, 19200, Note_off_c, 9, 42, 64
7, 19200, Note_on_c, 9, 36, 100
7, 19200, Note_on_c, 9, 42, 100
7, 19440, Note_off_c, 9, 42, 64
7, 19440, Note_off_c, 9, 36, 64
7, 19440, Note_on_c, 9, 42, 100
7, 19680, Note_off_c, 9, 42, 64
7, 19680, Note_on_c, 9, 38, 100
7, 19680, Note_on_c, 9, 36, 100
7, 19680, Note_on_c, 9, 42, 100
7, 19920, Note_off_c, 9, 42, 64
7, 19920, Note_off_c, 9, 36, 64
7, 19920, Note_off_c, 9, 38, 64
7, 19920, Note_on_c, 9, 42, 100
7, 20160, Note_off_c, 9, 42, 64
7, 20160, Note_on_c, 9, 36, 100
7, 20160, Note_on_c, 9, 42, 100
7, 20400, Note_off_c, 9, 42, 64
7, 20400, Note_off_c, 9, 36, 64
7, 20400, Note_on_c, 9, 42, 100
7, 20640, Note_off_c, 9, 42, 64
7, 20640, Note_on_c, 9, 38, 100
7, 20640, Note_on_c, 9, 36, 100
7, 20640, Note_on_c, 9, 42, 100
7, 20880, Note_off_c, 9, 42, 64
7, 20880, Note_off_c, 9, 36, 64
7, 20880, Note_off_c, 9, 38, 64
7, 20880, Note_on_c, 9, 42, 100
7, 21120, Note_off_c, 9, 42, 64
7, 21120, Note_on_c, 9, 36, 100
7, 21120, Note_on_c, 9, 42, 100
7, 21360, Note_off_c, 9, 42, 64
7, 21360, Note_off_c, 9, 36, 64
7, 21360, Note_on_c, 9, 42, 100
7, 21600, Note_off_c, 9, 42, 64
7, 21600, Note_on_c, 9, 38, 100
7, 21600, Note_on_c, 9, 42, 100
7, 21600, Note_on_c, 9, 36, 100
7, 21840, Note_off_c, 9, 36, 64
7, 21840, Note_off_c, 9, 42, 64
7, 21840, Note_off_c, 9, 38, 64
7, 21840, Note_on_c, 9, 42, 100
7, 22080, Note_off_c, 9, 42, 64
7, 22080, Note_on_c, 9, 36, 100
7, 22080, Note_on_c, 9, 42, 100
7, 22320, Note_off_c, 9, 42, 64
7, 22320, Note_off_c, 9, 36, 64
7, 22320, Note_on_c, 9, 42, 100
7, 22560, Note_off_c, 9, 42, 64
7, 22560, Note_on_c, 9, 36, 100
7, 22560, Note_on_c, 9, 38, 100
7, 22560, Note_on_c, 9, 42, 100
7, 22800, Note_off_c, 9, 42, 64
7, 22800, Note_off_c, 9, 38, 64
7, 22800, Note_off_c, 9, 36, 64
7, 22800, Note_on_c, 9, 42, 100
7, 23040, Note_off_c, 9, 42, 64
7, 23040, Note_on_c, 9, 36, 100
7, 23040, Note_on_c, 9, 38, 100
7, 23280, Note_off_c, 9, 38, 64
7, 23280, Note_off_c, 9, 36, 64
7, 23280, Note_on_c, 9, 38, 100
7, 23396, Note_off_c, 9, 38, 64
7, 23400, Note_on_c, 9, 38, 100
7, 23516, Note_off_c, 9, 38, 64
7, 23520, Note_on_c, 9, 36, 100
7, 23520, Note_on_c, 9, 38, 100
7, 23632, Note_on_c, 9, 48, 100
7, 23636, Note_off_c, 9, 38, 64
7, 23748, Note_off_c, 9, 48, 64
7, 23760, Note_off_c, 9, 36, 64
7, 23760, Note_on_c, 9, 45, 100
7, 24000, Note_off_c, 9, 45, 64
7, 24000, Note_on_c, 9, 36, 100
7, 24000, Note_on_c, 9, 42, 100
7, 24240, Note_off_c, 9, 42, 64
7, 24240, Note_off_c, 9, 36, 64
7, 24240, Note_on_c, 9, 42, 100
7, 24480, Note_off_c, 9, 42, 64
7, 24480, Note_on_c, 9, 36, 100
7, 24480, Note_on_c, 9, 38, 100
7, 24480, Note_on_c, 9, 42, 100
7, 24720, Note_off_c, 9, 42, 64
7, 24720, Note_off_c, 9, 38, 64
7, 24720, Note_off_c, 9, 36, 64
7, 24720, Note_on_c, 9, 42, 100
7, 24960, Note_off_c, 9, 42, 64
7, 24960, Note_on_c, 9, 36, 100
7, 24960, Note_on_c, 9, 42, 100
7, 25200, Note_off_c, 9, 42, 64
7, 25200, Note_off_c, 9, 36, 64
7, 25200, Note_on_c, 9, 42, 100
7, 25440, Note_off_c, 9, 42, 64
7, 25440, Note_on_c, 9, 36, 100
7, 25440, Note_on_c, 9, 38, 100
7, 25440, Note_on_c, 9, 42, 100
7, 25680, Note_off_c, 9, 42, 64
7, 25680, Note_off_c, 9, 38, 64
7, 25680, Note_off_c, 9, 36, 64
7, 25680, Note_on_c, 9, 42, 100
7, 25920, Note_off_c, 9, 42, 64
7, 25920, Note_on_c, 9, 36, 100
7, 25920, Note_on_c, 9, 42, 100
7, 26160, Note_off_c, 9, 42, 64
7, 26160, Note_off_c, 9, 36, 64
7, 26160, Note_on_c, 9, 42, 100
7, 26400, Note_off_c, 9, 42, 64
7, 26400, Note_on_c, 9, 36, 100
7, 26400, Note_on_c, 9, 42, 100
7, 26640, Note_off_c, 9, 42, 64
7, 26640, Note_off_c, 9, 36, 64
7, 26640, Note_on_c, 9, 42, 100
7, 26880, Note_off_c, 9, 42, 64
7, 26880, Note_on_c, 9, 36, 100
7, 26880, Note_on_c, 9, 42, 100
7, 26880, Note_on_c, 9, 38, 100
7, 27120, Note_off_c, 9, 38, 64
7, 27120, Note_off_c, 9, 42, 64
7, 27120, Note_off_c, 9, 36, 64
7, 27120, Note_on_c, 9, 42, 100
7, 27360, Note_off_c, 9, 42, 64
7, 27360, Note_on_c, 9, 36, 100
7, 27360, Note_on_c, 9, 38, 100
7, 27360, Note_on_c, 9, 42, 100
7, 27600, Note_off_c, 9, 42, 64
7, 27600, Note_off_c, 9, 38, 64
7, 27600, Note_off_c, 9, 36, 64
7, 27600, Note_on_c, 9, 42, 100
7, 27840, Note_off_c, 9, 42, 64
7, 27840, Note_on_c, 9, 46, 100
7, 27840, Note_on_c, 9, 38, 100
7, 28080, Note_off_c, 9, 38, 64
7, 28080, Note_off_c, 9, 46, 64
7, 28080, Note_on_c, 9, 46, 100
7, 28080, Note_on_c, 9, 38, 100
7, 28320, Note_off_c, 9, 38, 64
7, 28320, Note_off_c, 9, 46, 64
7, 28320, Note_on_c, 9, 36, 100
7, 28560, Note_off_c, 9, 36, 64
7, 29040, Note_on_c, 9, 38, 100
7, 29280, Note_off_c, 9, 38, 64
7, 29520, Note_on_c, 9, 36, 100
7, 29760, Note_off_c, 9, 36, 64
7, 29760, Note_on_c, 9, 36, 100
7, 29760, Note_on_c, 9, 46, 100
7, 30000, Note_off_c, 9, 46, 64
7, 30000, Note_off_c, 9, 36, 64
7, 30480, Note_on_c, 9, 38, 100
7, 30480, Note_on_c, 9, 38, 100
7, 30480, Note_on_c, 9, 38, 100
7, 30720, Note_off_c, 9, 38, 64
7, 30720, Note_off_c, 9, 38, 64
7, 30720, Note_off_c, 9, 38, 64
7, 31200, Note_on_c, 9, 36, 100
7, 31200, Note_on_c, 9, 46, 100
7, 31200, Note_on_c, 9, 36, 100
7, 31200, Note_on_c, 9, 46, 100
7, 31200, Note_on_c, 9, 36, 100
7, 31200, Note_on_c, 9, 46, 100
7, 31440, Note_off_c, 9, 46, 64
7, 31440, Note_off_c, 9, 36, 64
7, 31440, Note_off_c, 9, 46, 64
7, 31440, Note_off_c, 9, 36, 64
7, 31440, Note_off_c, 9, 46, 64
7, 31440, Note_off_c, 9, 36, 64
7, 31920, Note_on_c, 9, 38, 100
7, 31920, Note_on_c, 9, 38, 100
7, 31920, Note_on_c, 9, 38, 100
7, 32160, Note_off_c, 9, 38, 64
7, 32160, Note_off_c, 9, 38, 64
7, 32160, Note_off_c, 9, 38, 64
7, 32640, Note_on_c, 9, 36, 100
7, 32640, Note_on_c, 9, 46, 100
7, 32640, Note_on_c, 9, 36, 100
7, 32640, Note_on_c, 9, 46, 100
7, 32640, Note_on_c, 9, 36, 100
7, 32640, Note_on_c, 9, 46, 100
7, 32880, Note_off_c, 9, 46, 64
7, 32880, Note_off_c, 9, 36, 64
7, 32880, Note_off_c, 9, 46, 64
7, 32880, Note_off_c, 9, 36, 64
7, 32880, Note_off_c, 9, 46, 64
7, 32880, Note_off_c, 9, 36, 64
7, 33360, Note_on_c, 9, 38, 100
7, 33364, Note_on_c, 9, 38, 100
7, 33600, Note_off_c, 9, 38, 64
7, 33604, Note_off_c, 9, 38, 64
7, 34080, Note_on_c, 9, 36, 100
7, 34080, Note_on_c, 9, 46, 100
7, 34084, Note_on_c, 9, 36, 100
7, 34084, Note_on_c, 9, 46, 100
7, 34320, Note_off_c, 9, 46, 64
7, 34320, Note_off_c, 9, 36, 64
7, 34324, Note_off_c, 9, 36, 64
7, 34324, Note_off_c, 9, 46, 64
7, 34800, Note_on_c, 9, 38, 100
7, 34804, Note_on_c, 9, 38, 100
7, 35040, Note_off_c, 9, 38, 64
7, 35044, Note_off_c, 9, 38, 64
7, 35520, Note_on_c, 9, 36, 100
7, 35520, Note_on_c, 9, 46, 100
7, 35524, Note_on_c, 9, 36, 100
7, 35524, Note_on_c, 9, 46, 100
7, 35760, Note_off_c, 9, 46, 64
7, 35760, Note_off_c, 9, 36, 64
7, 35764, Note_off_c, 9, 36, 64
7, 35764, Note_off_c, 9, 46, 64
7, 36240, Note_on_c, 9, 38, 100
7, 36480, Note_off_c, 9, 38, 64
7, 36960, Note_on_c, 9, 46, 100
7, 36960, Note_on_c, 9, 36, 100
7, 37200, Note_off_c, 9, 36, 64
7, 37200, Note_off_c, 9, 46, 64
7, 37680, Note_on_c, 9, 38, 100
7, 37920, Note_off_c, 9, 38, 64
7, 38400, Note_on_c, 9, 36, 100
7, 38400, Note_on_c, 9, 46, 100
7, 38640, Note_off_c, 9, 46, 64
7, 38640, Note_off_c, 9, 36, 64
7, 39120, Note_on_c, 9, 38, 100
7, 39360, Note_off_c, 9, 38, 64
7, 39832, Note_on_c, 9, 46, 100
7, 39836, Note_on_c, 9, 36, 100
7, 40072, Note_off_c, 9, 46, 64
7, 40076, Note_off_c, 9, 36, 64
7, 40548, Note_on_c, 9, 38, 100
7, 40788, Note_off_c, 9, 38, 64
7, 41280, Note_on_c, 9, 36, 100
7, 41288, Note_on_c, 9, 36, 100
7, 41288, Note_on_c, 9, 46, 100
7, 41520, Note_off_c, 9, 36, 64
7, 41528, Note_off_c, 9, 36, 64
7, 41528, Note_off_c, 9, 46, 64
7, 41992, Note_on_c, 9, 38, 100
7, 42228, Note_on_c, 9, 36, 100
7, 42232, Note_off_c, 9, 38, 64
7, 42468, Note_off_c, 9, 36, 64
7, 42468, Note_on_c, 9, 36, 100
7, 42484, Note_on_c, 9, 49, 100
7, 42708, Note_off_c, 9, 36, 64
7, 42724, Note_off_c, 9, 49, 64
7, 44160, Note_on_c, 9, 36, 100
7, 44160, Note_on_c, 9, 49, 100
7, 44276, Note_off_c, 9, 49, 64
7, 44280, Note_on_c, 9, 38, 100
7, 44396, Note_off_c, 9, 38, 64
7, 44400, Note_off_c, 9, 36, 64
7, 44400, Note_on_c, 9, 38, 100
7, 44516, Note_off_c, 9, 38, 64
7, 44520, Note_on_c, 9, 36, 100
7, 44520, Note_on_c, 9, 49, 100
7, 44760, Note_off_c, 9, 49, 64
7, 44760, Note_off_c, 9, 36, 64
7, 44760, Note_on_c, 9, 38, 100
7, 44876, Note_off_c, 9, 38, 64
7, 44880, Note_on_c, 9, 36, 100
7, 45120, Note_off_c, 9, 36, 64
7, 45120, Note_on_c, 9, 38, 100
7, 45360, Note_off_c, 9, 38, 64
7, 45360, Note_on_c, 9, 38, 100
7, 45600, Note_off_c, 9, 38, 64
7, 45600, Note_on_c, 9, 36, 100
7, 45840, Note_off_c, 9, 36, 64
7, 45840, Note_on_c, 9, 38, 100
7, 46080, Note_off_c, 9, 38, 64
7, 46080, Note_on_c, 9, 38, 100
7, 46320, Note_off_c, 9, 38, 64
7, 46320, Note_on_c, 9, 36, 100
7, 46320, Note_on_c, 9, 49, 100
7, 46436, Note_off_c, 9, 49, 64
7, 46440, Note_on_c, 9, 38, 100
7, 46556, Note_off_c, 9, 38, 64
7, 46560, Note_off_c, 9, 36, 64
7, 46560, Note_on_c, 9, 38, 100
7, 46676, Note_off_c, 9, 38, 64
7, 46680, Note_on_c, 9, 36, 100
7, 46680, Note_on_c, 9, 49, 100
7, 46920, Note_off_c, 9, 49, 64
7, 46920, Note_off_c, 9, 36, 64
7, 46920, Note_on_c, 9, 38, 100
7, 47036, Note_off_c, 9, 38, 64
7, 47040, Note_on_c, 9, 36, 100
7, 47280, Note_off_c, 9, 36, 64
7, 47280, Note_on_c, 9, 38, 100
7, 47520, Note_off_c, 9, 38, 64
7, 47520, Note_on_c, 9, 38, 100
7, 47760, Note_off_c, 9, 38, 64
7, 47760, Note_on_c, 9, 36, 100
7, 48000, Note_off_c, 9, 36, 64
7, 48000, Note_on_c, 9, 38, 100
7, 48240, Note_off_c, 9, 38, 64
7, 48240, Note_on_c, 9, 38, 100
7, 48480, Note_off_c, 9, 38, 64
7, 48480, Note_on_c, 9, 38, 100
7, 48720, Note_off_c, 9, 38, 64
7, 48720, Note_on_c, 9, 36, 100
7, 48720, Note_on_c, 9, 49, 100
7, 48836, Note_off_c, 9, 49, 64
7, 48840, Note_on_c, 9, 38, 100
7, 48956, Note_off_c, 9, 38, 64
7, 48960, Note_off_c, 9, 36, 64
7, 48960, Note_on_c, 9, 38, 100
7, 49076, Note_off_c, 9, 38, 64
7, 49080, Note_on_c, 9, 36, 100
7, 49080, Note_on_c, 9, 49, 100
7, 49320, Note_off_c, 9, 49, 64
7, 49320, Note_off_c, 9, 36, 64
7, 49320, Note_on_c, 9, 38, 100
7, 49436, Note_off_c, 9, 38, 64
7, 49440, Note_on_c, 9, 36, 100
7, 49680, Note_off_c, 9, 36, 64
7, 49680, Note_on_c, 9, 38, 100
7, 49920, Note_off_c, 9, 38, 64
7, 49920, Note_on_c, 9, 38, 100
7, 50160, Note_off_c, 9, 38, 64
7, 50160, Note_on_c, 9, 36, 100
7, 50400, Note_off_c, 9, 36, 64
7, 50400, Note_on_c, 9, 38, 100
7, 50640, Note_off_c, 9, 38, 64
7, 50640, Note_on_c, 9, 38, 100
7, 50880, Note_off_c, 9, 38, 64
7, 50880, Note_on_c, 9, 36, 100
7, 50880, Note_on_c, 9, 49, 100
7, 50996, Note_off_c, 9, 49, 64
7, 51000, Note_on_c, 9, 38, 100
7, 51116, Note_off_c, 9, 38, 64
7, 51120, Note_off_c, 9, 36, 64
7, 51120, Note_on_c, 9, 38, 100
7, 51236, Note_off_c, 9, 38, 64
7, 51240, Note_on_c, 9, 36, 100
7, 51240, Note_on_c, 9, 49, 100
7, 51480, Note_off_c, 9, 49, 64
7, 51480, Note_off_c, 9, 36, 64
7, 51480, Note_on_c, 9, 38, 100
7, 51596, Note_off_c, 9, 38, 64
7, 51600, Note_on_c, 9, 36, 100
7, 51840, Note_off_c, 9, 36, 64
7, 51840, Note_on_c, 9, 38, 100
7, 52080, Note_off_c, 9, 38, 64
7, 52080, Note_on_c, 9, 38, 100
7, 52320, Note_off_c, 9, 38, 64
7, 52320, Note_on_c, 9, 36, 100
7, 52560, Note_off_c, 9, 36, 64
7, 52560, Note_on_c, 9, 38, 100
7, 52800, Note_off_c, 9, 38, 64
7, 52800, Note_on_c, 9, 38, 100
7, 53040, Note_off_c, 9, 38, 64
7, 53040, Note_on_c, 9, 38, 100
7, 53280, Note_off_c, 9, 38, 64
7, 53280, Note_on_c, 9, 36, 100
7, 53280, Note_on_c, 9, 49, 100
7, 53396, Note_off_c, 9, 49, 64
7, 53400, Note_on_c, 9, 38, 100
7, 53516, Note_off_c, 9, 38, 64
7, 53520, Note_off_c, 9, 36, 64
7, 53520, Note_on_c, 9, 38, 100
7, 53636, Note_off_c, 9, 38, 64
7, 53640, Note_on_c, 9, 36, 100
7, 53640, Note_on_c, 9, 49, 100
7, 53880, Note_off_c, 9, 49, 64
7, 53880, Note_off_c, 9, 36, 64
7, 53880, Note_on_c, 9, 38, 100
7, 53996, Note_off_c, 9, 38, 64
7, 54000, Note_on_c, 9, 36, 100
7, 54240, Note_off_c, 9, 36, 64
7, 54240, Note_on_c, 9, 38, 100
7, 54480, Note_off_c, 9, 38, 64
7, 54480, Note_on_c, 9, 38, 100
7, 54720, Note_off_c, 9, 38, 64
7, 54720, Note_on_c, 9, 36, 100
7, 54960, Note_off_c, 9, 36, 64
7, 54960, Note_on_c, 9, 38, 100
7, 55200, Note_off_c, 9, 38, 64
7, 55200, Note_on_c, 9, 38, 100
7, 55440, Note_off_c, 9, 38, 64
7, 55440, Note_on_c, 9, 36, 100
7, 55440, Note_on_c, 9, 49, 100
7, 55556, Note_off_c, 9, 49, 64
7, 55560, Note_on_c, 9, 38, 100
7, 55676, Note_off_c, 9, 38, 64
7, 55680, Note_off_c, 9, 36, 64
7, 55680, Note_on_c, 9, 38, 100
7, 55796, Note_off_c, 9, 38, 64
7, 55800, Note_on_c, 9, 36, 100
7, 55800, Note_on_c, 9, 49, 100
7, 56040, Note_off_c, 9, 49, 64
7, 56040, Note_off_c, 9, 36, 64
7, 56040, Note_on_c, 9, 38, 100
7, 56156, Note_off_c, 9, 38, 64
7, 56160, Note_on_c, 9, 36, 100
7, 56400, Note_off_c, 9, 36, 64
7, 56400, Note_on_c, 9, 38, 100
7, 56640, Note_off_c, 9, 38, 64
7, 56640, Note_on_c, 9, 38, 100
7, 56880, Note_off_c, 9, 38, 64
7, 56880, Note_on_c, 9, 36, 100
7, 57120, Note_off_c, 9, 36, 64
7, 57120, Note_on_c, 9, 38, 100
7, 57360, Note_off_c, 9, 38, 64
7, 57360, Note_on_c, 9, 38, 100
7, 57600, Note_off_c, 9, 38, 64
7, 57600, Note_on_c, 9, 38, 100
7, 57840, Note_off_c, 9, 38, 64
7, 57840, Note_on_c, 9, 42, 100
7, 57852, Note_on_c, 9, 36, 100
7, 58080, Note_off_c, 9, 42, 64
7, 58080, Note_on_c, 9, 42, 100
7, 58092, Note_off_c, 9, 36, 64
7, 58320, Note_off_c, 9, 42, 64
7, 58320, Note_on_c, 9, 38, 100
7, 58320, Note_on_c, 9, 42, 100
7, 58560, Note_off_c, 9, 42, 64
7, 58560, Note_off_c, 9, 38, 64
7, 58560, Note_on_c, 9, 36, 100
7, 58560, Note_on_c, 9, 42, 100
7, 58788, Note_on_c, 9, 36, 100
7, 58800, Note_off_c, 9, 42, 64
7, 58800, Note_off_c, 9, 36, 64
7, 58800, Note_on_c, 9, 42, 100
7, 59028, Note_off_c, 9, 36, 64
7, 59040, Note_off_c, 9, 42, 64
7, 59040, Note_on_c, 9, 42, 100
7, 59280, Note_off_c, 9, 42, 64
7, 59280, Note_on_c, 9, 38, 100
7, 59280, Note_on_c, 9, 42, 100
7, 59520, Note_off_c, 9, 42, 64
7, 59520, Note_off_c, 9, 38, 64
7, 59520, Note_on_c, 9, 42, 100
7, 59760, Note_off_c, 9, 42, 64
7, 59760, Note_on_c, 9, 36, 100
7, 59760, Note_on_c, 9, 42, 100
7, 60000, Note_off_c, 9, 42, 64
7, 60000, Note_off_c, 9, 36, 64
7, 60000, Note_on_c, 9, 42, 100
7, 60240, Note_off_c, 9, 42, 64
7, 60240, Note_on_c, 9, 42, 100
7, 60252, Note_on_c, 9, 38, 100
7, 60480, Note_off_c, 9, 42, 64
7, 60480, Note_on_c, 9, 42, 100
7, 60492, Note_off_c, 9, 38, 64
7, 60708, Note_on_c, 9, 38, 100
7, 60720, Note_off_c, 9, 42, 64
7, 60828, Note_off_c, 9, 38, 64
7, 60848, Note_on_c, 9, 38, 100
7, 61052, Note_on_c, 9, 38, 100
7, 61088, Note_off_c, 9, 38, 64
7, 61172, Note_off_c, 9, 38, 64
7, 61192, Note_on_c, 9, 41, 100
7, 61312, Note_off_c, 9, 41, 64
7, 61332, Note_on_c, 9, 41, 100
7, 61436, Note_on_c, 9, 38, 100
7, 61452, Note_off_c, 9, 41, 64
7, 61548, Note_on_c, 9, 38, 100
7, 61556, Note_off_c, 9, 38, 64
7, 61668, Note_off_c, 9, 38, 64
7, 61680, Note_on_c, 9, 49, 100
7, 61704, Note_on_c, 9, 36, 100
7, 61920, Note_off_c, 9, 49, 64
7, 61924, Note_on_c, 9, 42, 100
7, 61944, Note_off_c, 9, 36, 64
7, 62148, Note_on_c, 9, 38, 100
7, 62164, Note_off_c, 9, 42, 64
7, 62164, Note_on_c, 9, 42, 100
7, 62388, Note_off_c, 9, 38, 64
7, 62404, Note_off_c, 9, 42, 64
7, 62404, Note_on_c, 9, 42, 100
7, 62636, Note_on_c, 9, 36, 100
7, 62644, Note_off_c, 9, 42, 64
7, 62644, Note_on_c, 9, 42, 100
7, 62876, Note_off_c, 9, 36, 64
7, 62884, Note_off_c, 9, 42, 64
7, 62884, Note_on_c, 9, 42, 100
7, 63116, Note_on_c, 9, 38, 100
7, 63124, Note_off_c, 9, 42, 64
7, 63124, Note_on_c, 9, 42, 100
7, 63356, Note_off_c, 9, 38, 64
7, 63364, Note_off_c, 9, 42, 64
7, 63364, Note_on_c, 9, 42, 100
7, 63600, Note_on_c, 9, 36, 100
7, 63604, Note_off_c, 9, 42, 64
7, 63608, Note_on_c, 9, 42, 100
7, 63840, Note_off_c, 9, 36, 64
7, 63848, Note_off_c, 9, 42, 64
7, 63848, Note_on_c, 9, 42, 100
7, 64080, Note_on_c, 9, 38, 100
7, 64088, Note_off_c, 9, 42, 64
7, 64088, Note_on_c, 9, 42, 100
7, 64320, Note_off_c, 9, 38, 64
7, 64328, Note_off_c, 9, 42, 64
7, 64328, Note_on_c, 9, 42, 100
7, 64560, Note_on_c, 9, 36, 100
7, 64568, Note_off_c, 9, 42, 64
7, 64568, Note_on_c, 9, 42, 100
7, 64800, Note_off_c, 9, 36, 64
7, 64808, Note_off_c, 9, 42, 64
7, 64808, Note_on_c, 9, 42, 100
7, 65048, Note_off_c, 9, 42, 64
7, 65048, Note_on_c, 9, 42, 100
7, 65052, Note_on_c, 9, 38, 100
7, 65288, Note_off_c, 9, 42, 64
7, 65288, Note_on_c, 9, 42, 100
7, 65292, Note_off_c, 9, 38, 64
7, 65520, Note_on_c, 9, 36, 100
7, 65520, Note_on_c, 9, 42, 100
7, 65528, Note_off_c, 9, 42, 64
7, 65760, Note_off_c, 9, 36, 64
7, 65760, Note_off_c, 9, 42, 64
7, 65760, Note_on_c, 9, 42, 100
7, 66000, Note_off_c, 9, 42, 64
7, 66000, Note_on_c, 9, 38, 100
7, 66000, Note_on_c, 9, 42, 100
7, 66240, Note_off_c, 9, 42, 64
7, 66240, Note_off_c, 9, 38, 64
7, 66240, Note_on_c, 9, 42, 100
7, 66480, Note_off_c, 9, 42, 64
7, 66480, Note_on_c, 9, 36, 100
7, 66480, Note_on_c, 9, 42, 100
7, 66720, Note_off_c, 9, 42, 64
7, 66720, Note_off_c, 9, 36, 64
7, 66720, Note_on_c, 9, 42, 100
7, 66960, Note_off_c, 9, 42, 64
7, 66960, Note_on_c, 9, 38, 100
7, 66960, Note_on_c, 9, 42, 100
7, 67200, Note_off_c, 9, 42, 64
7, 67200, Note_off_c, 9, 38, 64
7, 67200, Note_on_c, 9, 42, 100
7, 67440, Note_off_c, 9, 42, 64
7, 67440, Note_on_c, 9, 36, 100
7, 67440, Note_on_c, 9, 42, 100
7, 67680, Note_off_c, 9, 42, 64
7, 67680, Note_off_c, 9, 36, 64
7, 67680, Note_on_c, 9, 42, 100
7, 67920, Note_off_c, 9, 42, 64
7, 67920, Note_on_c, 9, 38, 100
7, 67920, Note_on_c, 9, 42, 100
7, 68160, Note_off_c, 9, 42, 64
7, 68160, Note_off_c, 9, 38, 64
7, 68160, Note_on_c, 9, 42, 100
7, 68400, Note_off_c, 9, 42, 64
7, 68400, Note_on_c, 9, 36, 100
7, 68400, Note_on_c, 9, 42, 100
7, 68640, Note_off_c, 9, 42, 64
7, 68640, Note_off_c, 9, 36, 64
7, 68640, Note_on_c, 9, 42, 100
7, 68880, Note_off_c, 9, 42, 64
7, 68880, Note_on_c, 9, 38, 100
7, 68880, Note_on_c, 9, 42, 100
7, 69120, Note_off_c, 9, 42, 64
7, 69120, Note_off_c, 9, 38, 64
7, 69120, Note_on_c, 9, 42, 100
7, 69360, Note_off_c, 9, 42, 64
7, 69360, Note_on_c, 9, 36, 100
7, 69360, Note_on_c, 9, 42, 100
7, 69600, Note_off_c, 9, 42, 64
7, 69600, Note_off_c, 9, 36, 64
7, 69600, Note_on_c, 9, 42, 100
7, 69840, Note_off_c, 9, 42, 64
7, 69840, Note_on_c, 9, 38, 100
7, 69840, Note_on_c, 9, 42, 100
7, 70080, Note_off_c, 9, 42, 64
7, 70080, Note_off_c, 9, 38, 64
7, 70080, Note_on_c, 9, 42, 100
7, 70320, Note_off_c, 9, 42, 64
7, 70320, Note_on_c, 9, 36, 100
7, 70320, Note_on_c, 9, 42, 100
7, 70560, Note_off_c, 9, 42, 64
7, 70560, Note_off_c, 9, 36, 64
7, 70560, Note_on_c, 9, 42, 100
7, 70800, Note_off_c, 9, 42, 64
7, 70800, Note_on_c, 9, 38, 100
7, 70800, Note_on_c, 9, 42, 100
7, 71040, Note_off_c, 9, 42, 64
7, 71040, Note_off_c, 9, 38, 64
7, 71040, Note_on_c, 9, 42, 100
7, 71280, Note_off_c, 9, 42, 64
7, 71284, Note_on_c, 9, 36, 100
7, 71284, Note_on_c, 9, 42, 100
7, 71524, Note_off_c, 9, 42, 64
7, 71524, Note_off_c, 9, 36, 64
7, 71524, Note_on_c, 9, 42, 100
7, 71764, Note_off_c, 9, 42, 64
7, 71764, Note_on_c, 9, 38, 100
7, 71764, Note_on_c, 9, 42, 100
7, 72004, Note_off_c, 9, 42, 64
7, 72004, Note_off_c, 9, 38, 64
7, 72004, Note_on_c, 9, 42, 100
7, 72244, Note_off_c, 9, 42, 64
7, 72244, Note_on_c, 9, 36, 100
7, 72244, Note_on_c, 9, 42, 100
7, 72484, Note_off_c, 9, 42, 64
7, 72484, Note_off_c, 9, 36, 64
7, 72484, Note_on_c, 9, 42, 100
7, 72724, Note_off_c, 9, 42, 64
7, 72724, Note_on_c, 9, 38, 100
7, 72724, Note_on_c, 9, 42, 100
7, 72964, Note_off_c, 9, 42, 64
7, 72964, Note_off_c, 9, 38, 64
7, 72964, Note_on_c, 9, 42, 100
7, 73204, Note_off_c, 9, 42, 64
7, 73204, Note_on_c, 9, 36, 100
7, 73204, Note_on_c, 9, 42, 100
7, 73444, Note_off_c, 9, 42, 64
7, 73444, Note_off_c, 9, 36, 64
7, 73444, Note_on_c, 9, 42, 100
7, 73684, Note_off_c, 9, 42, 64
7, 73684, Note_on_c, 9, 38, 100
7, 73684, Note_on_c, 9, 42, 100
7, 73924, Note_off_c, 9, 42, 64
7, 73924, Note_off_c, 9, 38, 64
7, 73924, Note_on_c, 9, 42, 100
7, 74160, Note_on_c, 9, 36, 100
7, 74160, Note_on_c, 9, 42, 100
7, 74164, Note_off_c, 9, 42, 64
7, 74400, Note_off_c, 9, 36, 64
7, 74400, Note_off_c, 9, 42, 64
7, 74400, Note_on_c, 9, 42, 100
7, 74640, Note_off_c, 9, 42, 64
7, 74640, Note_on_c, 9, 38, 100
7, 74640, Note_on_c, 9, 42, 100
7, 74880, Note_off_c, 9, 42, 64
7, 74880, Note_off_c, 9, 38, 64
7, 74880, Note_on_c, 9, 42, 100
7, 75120, Note_off_c, 9, 42, 64
7, 75120, Note_on_c, 9, 36, 100
7, 75120, Note_on_c, 9, 42, 100
7, 75360, Note_off_c, 9, 42, 64
7, 75360, Note_off_c, 9, 36, 64
7, 75360, Note_on_c, 9, 42, 100
7, 75600, Note_off_c, 9, 42, 64
7, 75600, Note_on_c, 9, 42, 100
7, 75612, Note_on_c, 9, 38, 100
7, 75840, Note_off_c, 9, 42, 64
7, 75840, Note_on_c, 9, 42, 100
7, 75852, Note_off_c, 9, 38, 64
7, 76080, Note_off_c, 9, 42, 64
7, 76080, Note_on_c, 9, 36, 100
7, 76080, Note_on_c, 9, 42, 100
7, 76320, Note_off_c, 9, 42, 64
7, 76320, Note_off_c, 9, 36, 64
7, 76320, Note_on_c, 9, 42, 100
7, 76560, Note_off_c, 9, 42, 64
7, 76560, Note_on_c, 9, 38, 100
7, 76560, Note_on_c, 9, 42, 100
7, 76800, Note_off_c, 9, 42, 64
7, 76800, Note_off_c, 9, 38, 64
7, 76800, Note_on_c, 9, 42, 100
7, 77040, Note_off_c, 9, 42, 64
7, 77040, Note_on_c, 9, 38, 100
7, 77160, Note_off_c, 9, 38, 64
7, 77160, Note_on_c, 9, 38, 100
7, 77380, Note_on_c, 9, 38, 100
7, 77400, Note_off_c, 9, 38, 64
7, 77500, Note_off_c, 9, 38, 64
7, 77512, Note_on_c, 9, 38, 100
7, 77612, Note_on_c, 9, 38, 100
7, 77632, Note_off_c, 9, 38, 64
7, 77732, Note_off_c, 9, 38, 64
7, 77776, Note_on_c, 9, 41, 100
7, 77880, Note_on_c, 9, 41, 100
7, 77896, Note_off_c, 9, 41, 64
7, 78000, Note_off_c, 9, 41, 64
7, 78000, Note_on_c, 9, 36, 100
7, 78012, Note_on_c, 9, 49, 100
7, 78240, Note_off_c, 9, 36, 64
7, 78240, Note_on_c, 9, 42, 100
7, 78252, Note_off_c, 9, 49, 64
7, 78480, Note_off_c, 9, 42, 64
7, 78480, Note_on_c, 9, 38, 100
7, 78480, Note_on_c, 9, 42, 100
7, 78720, Note_off_c, 9, 42, 64
7, 78720, Note_off_c, 9, 38, 64
7, 78720, Note_on_c, 9, 42, 100
7, 78960, Note_off_c, 9, 42, 64
7, 78960, Note_on_c, 9, 42, 100
7, 78972, Note_on_c, 9, 36, 100
7, 79200, Note_off_c, 9, 42, 64
7, 79200, Note_on_c, 9, 42, 100
7, 79212, Note_off_c, 9, 36, 64
7, 79440, Note_off_c, 9, 42, 64
7, 79440, Note_on_c, 9, 42, 100
7, 79452, Note_on_c, 9, 38, 100
7, 79680, Note_off_c, 9, 42, 64
7, 79680, Note_on_c, 9, 42, 100
7, 79692, Note_off_c, 9, 38, 64
7, 79920, Note_off_c, 9, 42, 64
7, 79920, Note_on_c, 9, 42, 100
7, 79944, Note_on_c, 9, 36, 100
7, 80160, Note_off_c, 9, 42, 64
7, 80160, Note_on_c, 9, 42, 100
7, 80184, Note_off_c, 9, 36, 64
7, 80400, Note_off_c, 9, 42, 64
7, 80400, Note_on_c, 9, 38, 100
7, 80400, Note_on_c, 9, 42, 100
7, 80640, Note_off_c, 9, 42, 64
7, 80640, Note_off_c, 9, 38, 64
7, 80640, Note_on_c, 9, 46, 100
7, 80880, Note_off_c, 9, 46, 64
7, 80880, Note_on_c, 9, 38, 100
7, 80960, Note_off_c, 9, 38, 64
7, 80960, Note_on_c, 9, 38, 100
7, 81040, Note_off_c, 9, 38, 64
7, 81040, Note_on_c, 9, 38, 100
7, 81112, Note_on_c, 9, 38, 100
7, 81120, Note_off_c, 9, 38, 64
7, 81352, Note_off_c, 9, 38, 64
7, 81356, Note_on_c, 9, 48, 100
7, 81436, Note_off_c, 9, 48, 64
7, 81440, Note_on_c, 9, 38, 100
7, 81520, Note_off_c, 9, 38, 64
7, 81520, Note_on_c, 9, 38, 100
7, 81600, Note_off_c, 9, 38, 64
7, 81608, Note_on_c, 9, 38, 100
7, 81840, Note_on_c, 9, 49, 100
7, 81840, Note_on_c, 9, 52, 100
7, 81840, Note_on_c, 9, 55, 100
7, 81840, Note_on_c, 9, 36, 100
7, 81848, Note_off_c, 9, 38, 64
7, 83760, Note_off_c, 9, 49, 64
7, 83760, Note_off_c, 9, 52, 64
7, 83760, Note_off_c, 9, 55, 64
7, 83760, Note_off_c, 9, 36, 64
7, 85680, Note_on_c, 9, 49, 100
7, 85684, Note_on_c, 9, 36, 100
7, 85920, Note_off_c, 9, 49, 64
7, 85920, Note_on_c, 9, 42, 100
7, 85924, Note_off_c, 9, 36, 64
7, 86152, Note_on_c, 9, 38, 100
7, 86160, Note_off_c, 9, 42, 64
7, 86160, Note_on_c, 9, 42, 100
7, 86392, Note_off_c, 9, 38, 64
7, 86400, Note_off_c, 9, 42, 64
7, 86400, Note_on_c, 9, 42, 100
7, 86640, Note_off_c, 9, 42, 64
7, 86640, Note_on_c, 9, 42, 100
7, 86652, Note_on_c, 9, 36, 100
7, 86880, Note_off_c, 9, 42, 64
7, 86880, Note_on_c, 9, 42, 100
7, 86892, Note_off_c, 9, 36, 64
7, 87120, Note_off_c, 9, 42, 64
7, 87120, Note_on_c, 9, 42, 100
7, 87132, Note_on_c, 9, 38, 100
7, 87360, Note_off_c, 9, 42, 64
7, 87360, Note_on_c, 9, 42, 100
7, 87372, Note_off_c, 9, 38, 64
7, 87600, Note_off_c, 9, 42, 64
7, 87600, Note_on_c, 9, 36, 100
7, 87600, Note_on_c, 9, 42, 100
7, 87840, Note_off_c, 9, 42, 64
7, 87840, Note_off_c, 9, 36, 64
7, 87840, Note_on_c, 9, 42, 100
7, 88080, Note_off_c, 9, 42, 64
7, 88080, Note_on_c, 9, 38, 100
7, 88080, Note_on_c, 9, 42, 100
7, 88320, Note_off_c, 9, 42, 64
7, 88320, Note_off_c, 9, 38, 64
7, 88320, Note_on_c, 9, 46, 100
7, 88560, Note_off_c, 9, 46, 64
7, 88584, Note_on_c, 9, 38, 100
7, 88660, Note_on_c, 9, 38, 100
7, 88704, Note_off_c, 9, 38, 64
7, 88900, Note_off_c, 9, 38, 64
7, 88908, Note_on_c, 9, 38, 100
7, 89028, Note_off_c, 9, 38, 64
7, 89044, Note_on_c, 9, 48, 100
7, 89164, Note_off_c, 9, 48, 64
7, 89164, Note_on_c, 9, 48, 100
7, 89284, Note_off_c, 9, 48, 64
7, 89284, Note_on_c, 9, 41, 100
7, 89396, Note_on_c, 9, 41, 100
7, 89404, Note_off_c, 9, 41, 64
7, 89516, Note_off_c, 9, 41, 64
7, 89520, Note_on_c, 9, 49, 100
7, 89544, Note_on_c, 9, 36, 100
7, 89760, Note_off_c, 9, 49, 64
7, 89760, Note_on_c, 9, 42, 100
7, 89784, Note_off_c, 9, 36, 64
7, 89988, Note_on_c, 9, 38, 100
7, 90000, Note_off_c, 9, 42, 64
7, 90000, Note_on_c, 9, 42, 100
7, 90228, Note_off_c, 9, 38, 64
7, 90240, Note_off_c, 9, 42, 64
7, 90240, Note_on_c, 9, 42, 100
7, 90480, Note_off_c, 9, 42, 64
7, 90480, Note_on_c, 9, 36, 100
7, 90480, Note_on_c, 9, 42, 100
7, 90720, Note_off_c, 9, 42, 64
7, 90720, Note_off_c, 9, 36, 64
7, 90720, Note_on_c, 9, 42, 100
7, 90960, Note_off_c, 9, 42, 64
7, 90960, Note_on_c, 9, 42, 100
7, 90972, Note_on_c, 9, 38, 100
7, 91200, Note_off_c, 9, 42, 64
7, 91200, Note_on_c, 9, 42, 100
7, 91212, Note_off_c, 9, 38, 64
7, 91224, Note_on_c, 9, 36, 100
7, 91440, Note_off_c, 9, 42, 64
7, 91440, Note_on_c, 9, 36, 100
7, 91440, Note_on_c, 9, 42, 100
7, 91464, Note_off_c, 9, 36, 64
7, 91680, Note_off_c, 9, 36, 64
7, 91680, Note_off_c, 9, 42, 64
7, 91680, Note_on_c, 9, 42, 100
7, 91908, Note_on_c, 9, 38, 100
7, 91920, Note_off_c, 9, 42, 64
7, 91920, Note_on_c, 9, 42, 100
7, 92148, Note_off_c, 9, 38, 64
7, 92160, Note_off_c, 9, 42, 64
7, 92160, Note_on_c, 9, 46, 100
7, 92400, Note_off_c, 9, 46, 64
7, 92412, Note_on_c, 9, 48, 100
7, 92520, Note_on_c, 9, 48, 100
7, 92532, Note_off_c, 9, 48, 64
7, 92752, Note_on_c, 9, 48, 100
7, 92760, Note_off_c, 9, 48, 64
7, 92864, Note_on_c, 9, 47, 100
7, 92872, Note_off_c, 9, 48, 64
7, 92984, Note_off_c, 9, 47, 64
7, 92996, Note_on_c, 9, 47, 100
7, 93116, Note_off_c, 9, 47, 64
7, 93144, Note_on_c, 9, 41, 100
7, 93360, Note_on_c, 9, 36, 100
7, 93360, Note_on_c, 9, 49, 100
7, 93384, Note_off_c, 9, 41, 64
7, 95280, Note_off_c, 9, 36, 64
7, 95280, Note_off_c, 9, 49, 64
7, 96196, Note_on_c, 9, 40, 100
7, 96236, Note_on_c, 9, 40, 100
7, 96256, Note_off_c, 9, 40, 64
7, 96716, Note_off_c, 9, 40, 64
7, 96716, End_track
8, 0, Start_track
8, 0, Title_t, "tambourine"
8, 0, MIDI_port, 0
8, 0, Channel_prefix, 9
8, 0, Control_c, 9, 7, 127
8, 0, Control_c, 9, 10, 62
8, 48720, Note_on_c, 9, 54, 100
8, 48720, Note_on_c, 9, 42, 100
8, 48836, Note_off_c, 9, 42, 64
8, 48836, Note_off_c, 9, 54, 64
8, 48840, Note_on_c, 9, 42, 100
8, 48840, Note_on_c, 9, 54, 100
8, 48956, Note_off_c, 9, 54, 64
8, 48956, Note_off_c, 9, 42, 64
8, 48960, Note_on_c, 9, 42, 100
8, 48960, Note_on_c, 9, 54, 100
8, 49076, Note_off_c, 9, 54, 64
8, 49076, Note_off_c, 9, 42, 64
8, 49080, Note_on_c, 9, 42, 100
8, 49080, Note_on_c, 9, 54, 127
8, 49196, Note_off_c, 9, 54, 64
8, 49196, Note_off_c, 9, 42, 64
8, 49200, Note_on_c, 9, 42, 100
8, 49200, Note_on_c, 9, 54, 100
8, 49316, Note_off_c, 9, 54, 64
8, 49316, Note_off_c, 9, 42, 64
8, 49320, Note_on_c, 9, 42, 100
8, 49320, Note_on_c, 9, 54, 100
8, 49436, Note_off_c, 9, 54, 64
8, 49436, Note_off_c, 9, 42, 64
8, 49440, Note_on_c, 9, 42, 100
8, 49440, Note_on_c, 9, 54, 100
8, 49556, Note_off_c, 9, 42, 64
8, 49560, Note_on_c, 9, 42, 100
8, 49676, Note_off_c, 9, 42, 64
8, 49680, Note_off_c, 9, 54, 64
8, 49680, Note_on_c, 9, 42, 100
8, 49680, Note_on_c, 9, 54, 127
8, 49796, Note_off_c, 9, 42, 64
8, 49800, Note_on_c, 9, 42, 100
8, 49916, Note_off_c, 9, 42, 64
8, 49920, Note_off_c, 9, 54, 64
8, 49920, Note_on_c, 9, 54, 100
8, 49920, Note_on_c, 9, 42, 100
8, 50036, Note_off_c, 9, 42, 64
8, 50040, Note_on_c, 9, 42, 100
8, 50156, Note_off_c, 9, 42, 64
8, 50160, Note_off_c, 9, 54, 64
8, 50160, Note_on_c, 9, 42, 100
8, 50160, Note_on_c, 9, 54, 100
8, 50276, Note_off_c, 9, 42, 64
8, 50280, Note_on_c, 9, 42, 100
8, 50396, Note_off_c, 9, 42, 64
8, 50400, Note_off_c, 9, 54, 64
8, 50400, Note_on_c, 9, 42, 100
8, 50400, Note_on_c, 9, 54, 100
8, 50516, Note_off_c, 9, 42, 64
8, 50520, Note_on_c, 9, 42, 100
8, 50636, Note_off_c, 9, 42, 64
8, 50640, Note_off_c, 9, 54, 64
8, 50640, Note_on_c, 9, 42, 100
8, 50640, Note_on_c, 9, 54, 127
8, 50756, Note_off_c, 9, 42, 64
8, 50760, Note_on_c, 9, 42, 100
8, 50876, Note_off_c, 9, 42, 64
8, 50880, Note_off_c, 9, 54, 64
8, 50880, Note_on_c, 9, 54, 100
8, 50880, Note_on_c, 9, 42, 100
8, 50996, Note_off_c, 9, 42, 64
8, 50996, Note_off_c, 9, 54, 64
8, 51000, Note_on_c, 9, 42, 100
8, 51000, Note_on_c, 9, 54, 100
8, 51116, Note_off_c, 9, 54, 64
8, 51116, Note_off_c, 9, 42, 64
8, 51120, Note_on_c, 9, 42, 100
8, 51120, Note_on_c, 9, 54, 100
8, 51236, Note_off_c, 9, 54, 64
8, 51236, Note_off_c, 9, 42, 64
8, 51240, Note_on_c, 9, 42, 100
8, 51240, Note_on_c, 9, 54, 127
8, 51356, Note_off_c, 9, 54, 64
8, 51356, Note_off_c, 9, 42, 64
8, 51360, Note_on_c, 9, 42, 100
8, 51360, Note_on_c, 9, 54, 100
8, 51476, Note_off_c, 9, 54, 64
8, 51476, Note_off_c, 9, 42, 64
8, 51480, Note_on_c, 9, 42, 100
8, 51480, Note_on_c, 9, 54, 100
8, 51596, Note_off_c, 9, 54, 64
8, 51596, Note_off_c, 9, 42, 64
8, 51600, Note_on_c, 9, 42, 100
8, 51600, Note_on_c, 9, 54, 100
8, 51716, Note_off_c, 9, 42, 64
8, 51720, Note_on_c, 9, 42, 100
8, 51836, Note_off_c, 9, 42, 64
8, 51840, Note_off_c, 9, 54, 64
8, 51840, Note_on_c, 9, 42, 100
8, 51840, Note_on_c, 9, 54, 127
8, 51956, Note_off_c, 9, 42, 64
8, 51960, Note_on_c, 9, 42, 100
8, 52076, Note_off_c, 9, 42, 64
8, 52080, Note_off_c, 9, 54, 64
8, 52080, Note_on_c, 9, 54, 100
8, 52080, Note_on_c, 9, 42, 100
8, 52196, Note_off_c, 9, 42, 64
8, 52200, Note_on_c, 9, 42, 100
8, 52316, Note_off_c, 9, 42, 64
8, 52320, Note_off_c, 9, 54, 64
8, 52320, Note_on_c, 9, 42, 100
8, 52320, Note_on_c, 9, 54, 100
8, 52436, Note_off_c, 9, 42, 64
8, 52440, Note_on_c, 9, 42, 100
8, 52556, Note_off_c, 9, 42, 64
8, 52560, Note_off_c, 9, 54, 64
8, 52560, Note_on_c, 9, 42, 100
8, 52560, Note_on_c, 9, 54, 100
8, 52676, Note_off_c, 9, 42, 64
8, 52680, Note_on_c, 9, 42, 100
8, 52796, Note_off_c, 9, 42, 64
8, 52800, Note_off_c, 9, 54, 64
8, 52800, Note_on_c, 9, 42, 100
8, 52800, Note_on_c, 9, 54, 127
8, 52916, Note_off_c, 9, 42, 64
8, 52920, Note_on_c, 9, 42, 100
8, 53036, Note_off_c, 9, 42, 64
8, 53040, Note_off_c, 9, 54, 64
8, 53040, Note_on_c, 9, 54, 100
8, 53040, Note_on_c, 9, 42, 100
8, 53156, Note_off_c, 9, 42, 64
8, 53160, Note_on_c, 9, 42, 100
8, 53276, Note_off_c, 9, 42, 64
8, 53280, Note_off_c, 9, 54, 64
8, 53280, Note_on_c, 9, 54, 100
8, 53280, Note_on_c, 9, 42, 100
8, 53396, Note_off_c, 9, 42, 64
8, 53396, Note_off_c, 9, 54, 64
8, 53400, Note_on_c, 9, 42, 100
8, 53400, Note_on_c, 9, 54, 100
8, 53516, Note_off_c, 9, 54, 64
8, 53516, Note_off_c, 9, 42, 64
8, 53520, Note_on_c, 9, 42, 100
8, 53520, Note_on_c, 9, 54, 100
8, 53636, Note_off_c, 9, 54, 64
8, 53636, Note_off_c, 9, 42, 64
8, 53640, Note_on_c, 9, 42, 100
8, 53640, Note_on_c, 9, 54, 127
8, 53756, Note_off_c, 9, 54, 64
8, 53756, Note_off_c, 9, 42, 64
8, 53760, Note_on_c, 9, 42, 100
8, 53760, Note_on_c, 9, 54, 100
8, 53876, Note_off_c, 9, 54, 64
8, 53876, Note_off_c, 9, 42, 64
8, 53880, Note_on_c, 9, 42, 100
8, 53880, Note_on_c, 9, 54, 100
8, 53996, Note_off_c, 9, 54, 64
8, 53996, Note_off_c, 9, 42, 64
8, 54000, Note_on_c, 9, 42, 100
8, 54000, Note_on_c, 9, 54, 100
8, 54116, Note_off_c, 9, 42, 64
8, 54120, Note_on_c, 9, 42, 100
8, 54236, Note_off_c, 9, 42, 64
8, 54240, Note_off_c, 9, 54, 64
8, 54240, Note_on_c, 9, 42, 100
8, 54240, Note_on_c, 9, 54, 127
8, 54356, Note_off_c, 9, 42, 64
8, 54360, Note_on_c, 9, 42, 100
8, 54476, Note_off_c, 9, 42, 64
8, 54480, Note_off_c, 9, 54, 64
8, 54480, Note_on_c, 9, 54, 100
8, 54480, Note_on_c, 9, 42, 100
8, 54596, Note_off_c, 9, 42, 64
8, 54600, Note_on_c, 9, 42, 100
8, 54716, Note_off_c, 9, 42, 64
8, 54720, Note_off_c, 9, 54, 64
8, 54720, Note_on_c, 9, 42, 100
8, 54720, Note_on_c, 9, 54, 100
8, 54836, Note_off_c, 9, 42, 64
8, 54840, Note_on_c, 9, 42, 100
8, 54956, Note_off_c, 9, 42, 64
8, 54960, Note_off_c, 9, 54, 64
8, 54960, Note_on_c, 9, 42, 100
8, 54960, Note_on_c, 9, 54, 100
8, 55076, Note_off_c, 9, 42, 64
8, 55080, Note_on_c, 9, 42, 100
8, 55196, Note_off_c, 9, 42, 64
8, 55200, Note_off_c, 9, 54, 64
8, 55200, Note_on_c, 9, 42, 100
8, 55200, Note_on_c, 9, 54, 127
8, 55316, Note_off_c, 9, 42, 64
8, 55320, Note_on_c, 9, 42, 100
8, 55436, Note_off_c, 9, 42, 64
8, 55440, Note_off_c, 9, 54, 64
8, 55440, Note_on_c, 9, 54, 100
8, 55440, Note_on_c, 9, 42, 100
8, 55556, Note_off_c, 9, 42, 64
8, 55556, Note_off_c, 9, 54, 64
8, 55560, Note_on_c, 9, 42, 100
8, 55560, Note_on_c, 9, 54, 100
8, 55676, Note_off_c, 9, 54, 64
8, 55676, Note_off_c, 9, 42, 64
8, 55680, Note_on_c, 9, 42, 100
8, 55680, Note_on_c, 9, 54, 100
8, 55796, Note_off_c, 9, 54, 64
8, 55796, Note_off_c, 9, 42, 64
8, 55800, Note_on_c, 9, 42, 100
8, 55800, Note_on_c, 9, 54, 127
8, 55916, Note_off_c, 9, 54, 64
8, 55916, Note_off_c, 9, 42, 64
8, 55920, Note_on_c, 9, 42, 100
8, 55920, Note_on_c, 9, 54, 100
8, 56036, Note_off_c, 9, 54, 64
8, 56036, Note_off_c, 9, 42, 64
8, 56040, Note_on_c, 9, 42, 100
8, 56040, Note_on_c, 9, 54, 100
8, 56156, Note_off_c, 9, 54, 64
8, 56156, Note_off_c, 9, 42, 64
8, 56160, Note_on_c, 9, 42, 100
8, 56160, Note_on_c, 9, 54, 100
8, 56276, Note_off_c, 9, 42, 64
8, 56280, Note_on_c, 9, 42, 100
8, 56396, Note_off_c, 9, 42, 64
8, 56400, Note_off_c, 9, 54, 64
8, 56400, Note_on_c, 9, 42, 100
8, 56400, Note_on_c, 9, 54, 127
8, 56516, Note_off_c, 9, 42, 64
8, 56520, Note_on_c, 9, 42, 100
8, 56636, Note_off_c, 9, 42, 64
8, 56640, Note_off_c, 9, 54, 64
8, 56640, Note_on_c, 9, 54, 100
8, 56640, Note_on_c, 9, 42, 100
8, 56756, Note_off_c, 9, 42, 64
8, 56760, Note_on_c, 9, 42, 100
8, 56876, Note_off_c, 9, 42, 64
8, 56880, Note_off_c, 9, 54, 64
8, 56880, Note_on_c, 9, 42, 100
8, 56880, Note_on_c, 9, 54, 100
8, 56996, Note_off_c, 9, 42, 64
8, 57000, Note_on_c, 9, 42, 100
8, 57116, Note_off_c, 9, 42, 64
8, 57120, Note_off_c, 9, 54, 64
8, 57120, Note_on_c, 9, 42, 100
8, 57120, Note_on_c, 9, 54, 100
8, 57236, Note_off_c, 9, 42, 64
8, 57240, Note_on_c, 9, 42, 100
8, 57356, Note_off_c, 9, 42, 64
8, 57360, Note_off_c, 9, 54, 64
8, 57360, Note_on_c, 9, 42, 100
8, 57360, Note_on_c, 9, 54, 127
8, 57476, Note_off_c, 9, 42, 64
8, 57480, Note_on_c, 9, 42, 100
8, 57596, Note_off_c, 9, 42, 64
8, 57600, Note_off_c, 9, 54, 64
8, 57600, Note_on_c, 9, 54, 100
8, 57600, Note_on_c, 9, 42, 100
8, 57716, Note_off_c, 9, 42, 64
8, 57720, Note_on_c, 9, 42, 100
8, 57836, Note_off_c, 9, 42, 64
8, 57840, Note_off_c, 9, 54, 64
8, 57840, End_track
9, 0, Start_track
9, 0, Title_t, "Happiness is a "
9, 0, MIDI_port, 0
9, 0, End_track
10, 0, Start_track
10, 0, Title_t, "Warm Gun"
10, 0, MIDI_port, 0
10, 0, End_track
11, 0, Start_track
11, 0, Title_t, "Beatles White Album"
11, 0, MIDI_port, 0
11, 0, End_track
12, 0, Start_track
12, 0, Title_t, "Path B Guy @AOL"
12, 0, MIDI_port, 0
12, 0, End_track
0, 0, End_of_file
