0, 0, Header, 1, 15, 192
1, 0, Start_track
1, 0, Tempo, 508475
1, 0, Time_signature, 4, 2, 24, 8
1, 0, Key_signature, 0, "major"
1, 0, End_track
2, 0, Start_track
2, 0, Title_t, "DRUMS"
2, 0, Channel_prefix, 9
2, 0, Control_c, 9, 7, 127
2, 0, Control_c, 9, 10, 66
2, 0, Program_c, 9, 0
2, 0, Control_c, 9, 93, 0
2, 0, Control_c, 9, 91, 119
2, 1244, Note_on_c, 9, 35, 127
2, 1300, Note_off_c, 9, 35, 64
2, 1329, Note_on_c, 9, 40, 127
2, 1368, Note_off_c, 9, 40, 64
2, 1420, Note_on_c, 9, 35, 127
2, 1456, Note_off_c, 9, 35, 64
2, 1523, Note_on_c, 9, 35, 127
2, 1524, Note_on_c, 9, 42, 127
2, 1552, Note_off_c, 9, 42, 64
2, 1593, Note_off_c, 9, 35, 64
2, 1616, Note_on_c, 9, 42, 127
2, 1643, Note_off_c, 9, 42, 64
2, 1710, Note_on_c, 9, 42, 127
2, 1713, Note_on_c, 9, 40, 127
2, 1736, Note_off_c, 9, 42, 64
2, 1747, Note_off_c, 9, 40, 64
2, 1801, Note_on_c, 9, 42, 127
2, 1814, Note_on_c, 9, 35, 127
2, 1827, Note_off_c, 9, 42, 64
2, 1848, Note_off_c, 9, 35, 64
2, 1899, Note_on_c, 9, 42, 127
2, 1912, Note_on_c, 9, 35, 127
2, 1923, Note_off_c, 9, 42, 64
2, 1963, Note_off_c, 9, 35, 64
2, 1995, Note_on_c, 9, 42, 127
2, 2022, Note_off_c, 9, 42, 64
2, 2099, Note_on_c, 9, 42, 127
2, 2105, Note_on_c, 9, 40, 127
2, 2126, Note_off_c, 9, 42, 64
2, 2140, Note_off_c, 9, 40, 64
2, 2206, Note_on_c, 9, 42, 127
2, 2208, Note_on_c, 9, 35, 127
2, 2232, Note_off_c, 9, 42, 64
2, 2246, Note_off_c, 9, 35, 64
2, 2304, Note_on_c, 9, 42, 127
2, 2308, Note_on_c, 9, 35, 127
2, 2332, Note_off_c, 9, 42, 64
2, 2356, Note_off_c, 9, 35, 64
2, 2400, Note_on_c, 9, 42, 127
2, 2427, Note_off_c, 9, 42, 64
2, 2496, Note_on_c, 9, 42, 127
2, 2497, Note_on_c, 9, 40, 127
2, 2523, Note_off_c, 9, 42, 64
2, 2531, Note_off_c, 9, 40, 64
2, 2587, Note_on_c, 9, 35, 127
2, 2596, Note_on_c, 9, 42, 127
2, 2617, Note_off_c, 9, 42, 64
2, 2622, Note_off_c, 9, 35, 64
2, 2689, Note_on_c, 9, 35, 127
2, 2694, Note_on_c, 9, 42, 127
2, 2718, Note_off_c, 9, 42, 64
2, 2737, Note_off_c, 9, 35, 64
2, 2788, Note_on_c, 9, 42, 127
2, 2812, Note_off_c, 9, 42, 64
2, 2868, Note_on_c, 9, 40, 127
2, 2889, Note_on_c, 9, 42, 127
2, 2900, Note_off_c, 9, 40, 64
2, 2912, Note_off_c, 9, 42, 64
2, 2968, Note_on_c, 9, 35, 127
2, 2974, Note_on_c, 9, 42, 127
2, 2995, Note_off_c, 9, 42, 64
2, 2998, Note_off_c, 9, 35, 64
2, 3068, Note_on_c, 9, 42, 127
2, 3072, Note_on_c, 9, 35, 127
2, 3092, Note_off_c, 9, 42, 64
2, 3123, Note_off_c, 9, 35, 64
2, 3158, Note_on_c, 9, 42, 127
2, 3177, Note_off_c, 9, 42, 64
2, 3254, Note_on_c, 9, 42, 127
2, 3256, Note_on_c, 9, 40, 127
2, 3276, Note_off_c, 9, 42, 64
2, 3289, Note_off_c, 9, 40, 64
2, 3347, Note_on_c, 9, 42, 127
2, 3348, Note_on_c, 9, 35, 127
2, 3372, Note_off_c, 9, 42, 64
2, 3385, Note_off_c, 9, 35, 64
2, 3446, Note_on_c, 9, 35, 127
2, 3448, Note_on_c, 9, 42, 127
2, 3475, Note_off_c, 9, 42, 64
2, 3502, Note_off_c, 9, 35, 64
2, 3545, Note_on_c, 9, 42, 127
2, 3571, Note_off_c, 9, 42, 64
2, 3636, Note_on_c, 9, 40, 127
2, 3636, Note_on_c, 9, 42, 127
2, 3665, Note_off_c, 9, 42, 64
2, 3667, Note_off_c, 9, 40, 64
2, 3734, Note_on_c, 9, 42, 127
2, 3736, Note_on_c, 9, 35, 127
2, 3752, Note_off_c, 9, 42, 64
2, 3768, Note_off_c, 9, 35, 64
2, 3832, Note_on_c, 9, 42, 127
2, 3835, Note_on_c, 9, 35, 127
2, 3865, Note_off_c, 9, 42, 64
2, 3889, Note_off_c, 9, 35, 64
2, 3929, Note_on_c, 9, 42, 127
2, 3963, Note_off_c, 9, 42, 64
2, 4028, Note_on_c, 9, 40, 127
2, 4032, Note_on_c, 9, 42, 127
2, 4062, Note_off_c, 9, 42, 64
2, 4064, Note_off_c, 9, 40, 64
2, 4116, Note_on_c, 9, 35, 127
2, 4128, Note_on_c, 9, 42, 127
2, 4153, Note_off_c, 9, 35, 64
2, 4155, Note_off_c, 9, 42, 64
2, 4217, Note_on_c, 9, 35, 127
2, 4217, Note_on_c, 9, 42, 127
2, 4244, Note_off_c, 9, 42, 64
2, 4281, Note_off_c, 9, 35, 64
2, 4307, Note_on_c, 9, 42, 127
2, 4336, Note_off_c, 9, 42, 64
2, 4395, Note_on_c, 9, 57, 127
2, 4401, Note_on_c, 9, 42, 127
2, 4417, Note_on_c, 9, 40, 127
2, 4420, Note_off_c, 9, 57, 64
2, 4427, Note_off_c, 9, 42, 64
2, 4449, Note_off_c, 9, 40, 64
2, 4488, Note_on_c, 9, 42, 127
2, 4507, Note_on_c, 9, 35, 127
2, 4513, Note_off_c, 9, 42, 64
2, 4544, Note_off_c, 9, 35, 64
2, 4587, Note_on_c, 9, 42, 127
2, 4592, Note_on_c, 9, 49, 127
2, 4609, Note_off_c, 9, 49, 64
2, 4614, Note_on_c, 9, 35, 127
2, 4617, Note_off_c, 9, 42, 64
2, 4675, Note_off_c, 9, 35, 64
2, 4683, Note_on_c, 9, 42, 127
2, 4713, Note_off_c, 9, 42, 64
2, 4785, Note_on_c, 9, 42, 127
2, 4804, Note_on_c, 9, 40, 127
2, 4809, Note_off_c, 9, 42, 64
2, 4838, Note_off_c, 9, 40, 64
2, 4883, Note_on_c, 9, 42, 127
2, 4891, Note_on_c, 9, 35, 127
2, 4912, Note_off_c, 9, 42, 64
2, 4931, Note_off_c, 9, 35, 64
2, 4988, Note_on_c, 9, 42, 127
2, 4996, Note_on_c, 9, 35, 127
2, 5016, Note_off_c, 9, 42, 64
2, 5052, Note_off_c, 9, 35, 64
2, 5094, Note_on_c, 9, 42, 127
2, 5123, Note_off_c, 9, 42, 64
2, 5182, Note_on_c, 9, 40, 127
2, 5198, Note_on_c, 9, 42, 127
2, 5217, Note_off_c, 9, 40, 64
2, 5228, Note_off_c, 9, 42, 64
2, 5272, Note_on_c, 9, 35, 127
2, 5292, Note_on_c, 9, 42, 127
2, 5308, Note_off_c, 9, 35, 64
2, 5316, Note_off_c, 9, 42, 64
2, 5374, Note_on_c, 9, 35, 127
2, 5384, Note_on_c, 9, 42, 127
2, 5406, Note_off_c, 9, 42, 64
2, 5443, Note_off_c, 9, 35, 64
2, 5473, Note_on_c, 9, 42, 127
2, 5500, Note_off_c, 9, 42, 64
2, 5571, Note_on_c, 9, 40, 127
2, 5574, Note_on_c, 9, 42, 127
2, 5598, Note_off_c, 9, 42, 64
2, 5606, Note_off_c, 9, 40, 64
2, 5662, Note_on_c, 9, 35, 127
2, 5668, Note_on_c, 9, 42, 127
2, 5694, Note_off_c, 9, 42, 64
2, 5697, Note_off_c, 9, 35, 64
2, 5760, Note_on_c, 9, 35, 127
2, 5768, Note_on_c, 9, 42, 127
2, 5795, Note_off_c, 9, 42, 64
2, 5835, Note_off_c, 9, 35, 64
2, 5864, Note_on_c, 9, 42, 127
2, 5888, Note_off_c, 9, 42, 64
2, 5953, Note_on_c, 9, 40, 127
2, 5955, Note_on_c, 9, 42, 127
2, 5980, Note_off_c, 9, 42, 64
2, 5987, Note_off_c, 9, 40, 64
2, 6036, Note_on_c, 9, 35, 127
2, 6049, Note_on_c, 9, 42, 127
2, 6070, Note_off_c, 9, 35, 64
2, 6075, Note_off_c, 9, 42, 64
2, 6142, Note_on_c, 9, 35, 127
2, 6147, Note_on_c, 9, 42, 127
2, 6176, Note_off_c, 9, 42, 64
2, 6201, Note_off_c, 9, 35, 64
2, 6244, Note_on_c, 9, 42, 127
2, 6272, Note_off_c, 9, 42, 64
2, 6339, Note_on_c, 9, 40, 127
2, 6340, Note_on_c, 9, 42, 127
2, 6372, Note_off_c, 9, 42, 64
2, 6372, Note_off_c, 9, 40, 64
2, 6427, Note_on_c, 9, 35, 127
2, 6438, Note_on_c, 9, 42, 127
2, 6465, Note_off_c, 9, 42, 64
2, 6472, Note_off_c, 9, 35, 64
2, 6528, Note_on_c, 9, 35, 127
2, 6531, Note_on_c, 9, 42, 127
2, 6558, Note_off_c, 9, 42, 64
2, 6609, Note_off_c, 9, 35, 64
2, 6622, Note_on_c, 9, 42, 127
2, 6649, Note_off_c, 9, 42, 64
2, 6718, Note_on_c, 9, 42, 127
2, 6721, Note_on_c, 9, 40, 127
2, 6747, Note_off_c, 9, 42, 64
2, 6755, Note_off_c, 9, 40, 64
2, 6808, Note_on_c, 9, 35, 127
2, 6817, Note_on_c, 9, 42, 127
2, 6846, Note_off_c, 9, 42, 64
2, 6846, Note_off_c, 9, 35, 64
2, 6910, Note_on_c, 9, 35, 127
2, 6910, Note_on_c, 9, 42, 127
2, 6912, Note_on_c, 9, 42, 127
2, 6912, Note_on_c, 9, 35, 127
2, 6936, Note_off_c, 9, 42, 64
2, 6944, Note_off_c, 9, 42, 64
2, 6953, Note_off_c, 9, 35, 64
2, 6990, Note_off_c, 9, 35, 64
2, 7004, Note_on_c, 9, 42, 127
2, 7006, Note_on_c, 9, 42, 127
2, 7030, Note_off_c, 9, 42, 64
2, 7033, Note_off_c, 9, 42, 64
2, 7100, Note_on_c, 9, 42, 127
2, 7102, Note_on_c, 9, 42, 127
2, 7108, Note_on_c, 9, 40, 127
2, 7126, Note_off_c, 9, 42, 64
2, 7132, Note_off_c, 9, 42, 64
2, 7140, Note_off_c, 9, 40, 64
2, 7192, Note_on_c, 9, 42, 127
2, 7196, Note_on_c, 9, 42, 127
2, 7220, Note_off_c, 9, 42, 64
2, 7224, Note_off_c, 9, 42, 64
2, 7288, Note_on_c, 9, 42, 127
2, 7289, Note_on_c, 9, 35, 127
2, 7296, Note_on_c, 9, 42, 127
2, 7308, Note_off_c, 9, 42, 64
2, 7318, Note_off_c, 9, 42, 64
2, 7320, Note_off_c, 9, 35, 64
2, 7379, Note_on_c, 9, 40, 127
2, 7382, Note_on_c, 9, 42, 127
2, 7384, Note_on_c, 9, 46, 127
2, 7388, Note_on_c, 9, 42, 127
2, 7395, Note_off_c, 9, 40, 64
2, 7400, Note_off_c, 9, 42, 64
2, 7409, Note_off_c, 9, 46, 64
2, 7411, Note_off_c, 9, 42, 64
2, 7478, Note_on_c, 9, 46, 127
2, 7481, Note_on_c, 9, 42, 127
2, 7481, Note_on_c, 9, 42, 127
2, 7483, Note_on_c, 9, 40, 127
2, 7500, Note_off_c, 9, 42, 64
2, 7504, Note_off_c, 9, 46, 64
2, 7504, Note_off_c, 9, 40, 64
2, 7507, Note_off_c, 9, 42, 64
2, 7579, Note_on_c, 9, 42, 127
2, 7604, Note_off_c, 9, 42, 64
2, 7664, Note_on_c, 9, 57, 127
2, 7665, Note_on_c, 9, 35, 127
2, 7673, Note_on_c, 9, 42, 127
2, 7700, Note_off_c, 9, 57, 64
2, 7705, Note_off_c, 9, 42, 64
2, 7716, Note_off_c, 9, 35, 64
2, 7766, Note_on_c, 9, 42, 127
2, 7792, Note_off_c, 9, 42, 64
2, 7864, Note_on_c, 9, 42, 127
2, 7873, Note_on_c, 9, 40, 127
2, 7892, Note_off_c, 9, 42, 64
2, 7905, Note_off_c, 9, 40, 64
2, 7963, Note_on_c, 9, 42, 127
2, 7971, Note_on_c, 9, 35, 127
2, 7990, Note_off_c, 9, 42, 64
2, 8000, Note_off_c, 9, 35, 64
2, 8062, Note_on_c, 9, 42, 127
2, 8073, Note_on_c, 9, 35, 127
2, 8089, Note_off_c, 9, 42, 64
2, 8118, Note_off_c, 9, 35, 64
2, 8160, Note_on_c, 9, 42, 127
2, 8187, Note_off_c, 9, 42, 64
2, 8259, Note_on_c, 9, 42, 127
2, 8260, Note_on_c, 9, 40, 127
2, 8286, Note_off_c, 9, 42, 64
2, 8294, Note_off_c, 9, 40, 64
2, 8355, Note_on_c, 9, 42, 127
2, 8360, Note_on_c, 9, 35, 127
2, 8384, Note_off_c, 9, 42, 64
2, 8390, Note_off_c, 9, 35, 64
2, 8451, Note_on_c, 9, 42, 127
2, 8457, Note_on_c, 9, 35, 127
2, 8478, Note_off_c, 9, 42, 64
2, 8499, Note_off_c, 9, 35, 64
2, 8542, Note_on_c, 9, 42, 127
2, 8569, Note_off_c, 9, 42, 64
2, 8638, Note_on_c, 9, 42, 127
2, 8662, Note_on_c, 9, 40, 127
2, 8665, Note_off_c, 9, 42, 64
2, 8691, Note_off_c, 9, 40, 64
2, 8734, Note_on_c, 9, 42, 127
2, 8753, Note_on_c, 9, 35, 127
2, 8758, Note_off_c, 9, 42, 64
2, 8780, Note_off_c, 9, 35, 64
2, 8838, Note_on_c, 9, 42, 127
2, 8849, Note_on_c, 9, 35, 127
2, 8865, Note_off_c, 9, 42, 64
2, 8891, Note_off_c, 9, 35, 64
2, 8940, Note_on_c, 9, 42, 127
2, 8966, Note_off_c, 9, 42, 64
2, 9041, Note_on_c, 9, 42, 127
2, 9048, Note_on_c, 9, 40, 127
2, 9068, Note_off_c, 9, 42, 64
2, 9078, Note_off_c, 9, 40, 64
2, 9136, Note_on_c, 9, 35, 127
2, 9145, Note_on_c, 9, 42, 127
2, 9164, Note_off_c, 9, 35, 64
2, 9171, Note_off_c, 9, 42, 64
2, 9230, Note_on_c, 9, 35, 127
2, 9244, Note_on_c, 9, 42, 127
2, 9268, Note_off_c, 9, 35, 64
2, 9272, Note_off_c, 9, 42, 64
2, 9336, Note_on_c, 9, 42, 127
2, 9358, Note_off_c, 9, 42, 64
2, 9425, Note_on_c, 9, 40, 127
2, 9428, Note_on_c, 9, 42, 127
2, 9452, Note_off_c, 9, 40, 64
2, 9457, Note_off_c, 9, 42, 64
2, 9508, Note_on_c, 9, 35, 127
2, 9529, Note_on_c, 9, 42, 127
2, 9539, Note_off_c, 9, 35, 64
2, 9553, Note_off_c, 9, 42, 64
2, 9608, Note_on_c, 9, 35, 127
2, 9622, Note_on_c, 9, 42, 127
2, 9646, Note_off_c, 9, 35, 64
2, 9648, Note_off_c, 9, 42, 64
2, 9715, Note_on_c, 9, 42, 127
2, 9740, Note_off_c, 9, 42, 64
2, 9803, Note_on_c, 9, 40, 127
2, 9811, Note_on_c, 9, 42, 127
2, 9836, Note_off_c, 9, 40, 64
2, 9838, Note_off_c, 9, 42, 64
2, 9896, Note_on_c, 9, 35, 127
2, 9905, Note_on_c, 9, 42, 127
2, 9928, Note_off_c, 9, 35, 64
2, 9931, Note_off_c, 9, 42, 64
2, 9995, Note_on_c, 9, 35, 127
2, 9996, Note_on_c, 9, 42, 127
2, 10025, Note_off_c, 9, 42, 64
2, 10041, Note_off_c, 9, 35, 64
2, 10096, Note_on_c, 9, 42, 127
2, 10116, Note_off_c, 9, 42, 64
2, 10192, Note_on_c, 9, 40, 127
2, 10192, Note_on_c, 9, 42, 127
2, 10216, Note_off_c, 9, 42, 64
2, 10224, Note_off_c, 9, 40, 64
2, 10283, Note_on_c, 9, 35, 127
2, 10283, Note_on_c, 9, 42, 127
2, 10308, Note_off_c, 9, 42, 64
2, 10318, Note_off_c, 9, 35, 64
2, 10379, Note_on_c, 9, 35, 127
2, 10384, Note_on_c, 9, 42, 127
2, 10411, Note_off_c, 9, 42, 64
2, 10424, Note_off_c, 9, 35, 64
2, 10472, Note_on_c, 9, 42, 127
2, 10496, Note_off_c, 9, 42, 64
2, 10566, Note_on_c, 9, 40, 127
2, 10568, Note_on_c, 9, 42, 127
2, 10595, Note_off_c, 9, 42, 64
2, 10600, Note_off_c, 9, 40, 64
2, 10654, Note_on_c, 9, 35, 127
2, 10659, Note_on_c, 9, 42, 127
2, 10684, Note_off_c, 9, 42, 64
2, 10689, Note_off_c, 9, 35, 64
2, 10752, Note_on_c, 9, 35, 127
2, 10758, Note_on_c, 9, 42, 127
2, 10785, Note_off_c, 9, 42, 64
2, 10804, Note_off_c, 9, 35, 64
2, 10857, Note_on_c, 9, 42, 127
2, 10880, Note_off_c, 9, 42, 64
2, 10950, Note_on_c, 9, 40, 127
2, 10953, Note_on_c, 9, 42, 127
2, 10979, Note_off_c, 9, 42, 64
2, 10984, Note_off_c, 9, 40, 64
2, 11041, Note_on_c, 9, 35, 127
2, 11049, Note_on_c, 9, 42, 127
2, 11075, Note_off_c, 9, 42, 64
2, 11076, Note_off_c, 9, 35, 64
2, 11144, Note_on_c, 9, 35, 127
2, 11147, Note_on_c, 9, 42, 127
2, 11172, Note_off_c, 9, 42, 64
2, 11192, Note_off_c, 9, 35, 64
2, 11243, Note_on_c, 9, 42, 127
2, 11267, Note_off_c, 9, 42, 64
2, 11337, Note_on_c, 9, 42, 127
2, 11340, Note_on_c, 9, 40, 127
2, 11364, Note_off_c, 9, 42, 64
2, 11374, Note_off_c, 9, 40, 64
2, 11428, Note_on_c, 9, 35, 127
2, 11432, Note_on_c, 9, 42, 127
2, 11456, Note_off_c, 9, 42, 64
2, 11460, Note_off_c, 9, 35, 64
2, 11526, Note_on_c, 9, 42, 127
2, 11531, Note_on_c, 9, 35, 127
2, 11552, Note_off_c, 9, 42, 64
2, 11579, Note_off_c, 9, 35, 64
2, 11625, Note_on_c, 9, 42, 127
2, 11651, Note_off_c, 9, 42, 64
2, 11724, Note_on_c, 9, 40, 127
2, 11724, Note_on_c, 9, 42, 127
2, 11748, Note_off_c, 9, 42, 64
2, 11761, Note_off_c, 9, 40, 64
2, 11814, Note_on_c, 9, 35, 127
2, 11820, Note_on_c, 9, 42, 127
2, 11843, Note_off_c, 9, 42, 64
2, 11849, Note_off_c, 9, 35, 64
2, 11915, Note_on_c, 9, 35, 127
2, 11916, Note_on_c, 9, 42, 127
2, 11944, Note_off_c, 9, 42, 64
2, 11966, Note_off_c, 9, 35, 64
2, 12011, Note_on_c, 9, 42, 127
2, 12035, Note_off_c, 9, 42, 64
2, 12104, Note_on_c, 9, 40, 127
2, 12112, Note_on_c, 9, 42, 127
2, 12134, Note_off_c, 9, 42, 64
2, 12139, Note_off_c, 9, 40, 64
2, 12195, Note_on_c, 9, 35, 127
2, 12206, Note_on_c, 9, 42, 127
2, 12228, Note_off_c, 9, 42, 64
2, 12228, Note_off_c, 9, 35, 64
2, 12296, Note_on_c, 9, 35, 127
2, 12299, Note_on_c, 9, 42, 127
2, 12326, Note_off_c, 9, 42, 64
2, 12366, Note_off_c, 9, 35, 64
2, 12395, Note_on_c, 9, 42, 127
2, 12420, Note_off_c, 9, 42, 64
2, 12496, Note_on_c, 9, 42, 127
2, 12497, Note_on_c, 9, 40, 127
2, 12521, Note_off_c, 9, 42, 64
2, 12534, Note_off_c, 9, 40, 64
2, 12584, Note_on_c, 9, 35, 127
2, 12588, Note_on_c, 9, 42, 127
2, 12617, Note_off_c, 9, 35, 64
2, 12620, Note_off_c, 9, 42, 64
2, 12688, Note_on_c, 9, 42, 127
2, 12691, Note_on_c, 9, 35, 127
2, 12715, Note_off_c, 9, 42, 64
2, 12739, Note_off_c, 9, 35, 64
2, 12779, Note_on_c, 9, 42, 127
2, 12804, Note_off_c, 9, 42, 64
2, 12876, Note_on_c, 9, 42, 127
2, 12888, Note_on_c, 9, 40, 127
2, 12902, Note_off_c, 9, 42, 64
2, 12920, Note_off_c, 9, 40, 64
2, 12972, Note_on_c, 9, 35, 127
2, 12979, Note_on_c, 9, 42, 127
2, 12996, Note_off_c, 9, 42, 64
2, 13006, Note_off_c, 9, 35, 64
2, 13068, Note_on_c, 9, 35, 127
2, 13078, Note_on_c, 9, 42, 127
2, 13102, Note_off_c, 9, 42, 64
2, 13120, Note_off_c, 9, 35, 64
2, 13172, Note_on_c, 9, 42, 127
2, 13198, Note_off_c, 9, 42, 64
2, 13264, Note_on_c, 9, 42, 127
2, 13265, Note_on_c, 9, 40, 127
2, 13294, Note_off_c, 9, 42, 64
2, 13297, Note_off_c, 9, 40, 64
2, 13358, Note_on_c, 9, 35, 127
2, 13360, Note_on_c, 9, 42, 127
2, 13387, Note_off_c, 9, 42, 64
2, 13388, Note_off_c, 9, 35, 64
2, 13452, Note_on_c, 9, 42, 127
2, 13459, Note_on_c, 9, 35, 127
2, 13478, Note_off_c, 9, 42, 64
2, 13504, Note_off_c, 9, 35, 64
2, 13542, Note_on_c, 9, 42, 127
2, 13571, Note_off_c, 9, 42, 64
2, 13641, Note_on_c, 9, 42, 127
2, 13652, Note_on_c, 9, 40, 127
2, 13672, Note_off_c, 9, 42, 64
2, 13683, Note_off_c, 9, 40, 64
2, 13739, Note_on_c, 9, 35, 127
2, 13742, Note_on_c, 9, 42, 127
2, 13753, Note_off_c, 9, 35, 64
2, 13768, Note_off_c, 9, 42, 64
2, 13828, Note_on_c, 9, 46, 127
2, 13843, Note_on_c, 9, 35, 127
2, 13862, Note_off_c, 9, 46, 64
2, 13884, Note_off_c, 9, 35, 64
2, 13928, Note_on_c, 9, 46, 127
2, 13953, Note_off_c, 9, 46, 64
2, 14033, Note_on_c, 9, 40, 127
2, 14064, Note_off_c, 9, 40, 64
2, 14118, Note_on_c, 9, 46, 127
2, 14120, Note_on_c, 9, 35, 127
2, 14139, Note_off_c, 9, 46, 64
2, 14148, Note_off_c, 9, 35, 64
2, 14217, Note_on_c, 9, 35, 127
2, 14220, Note_on_c, 9, 46, 127
2, 14243, Note_off_c, 9, 46, 64
2, 14257, Note_off_c, 9, 35, 64
2, 14313, Note_on_c, 9, 46, 127
2, 14334, Note_off_c, 9, 46, 64
2, 14409, Note_on_c, 9, 40, 127
2, 14409, Note_on_c, 9, 46, 127
2, 14436, Note_off_c, 9, 46, 64
2, 14438, Note_off_c, 9, 40, 64
2, 14504, Note_on_c, 9, 35, 127
2, 14505, Note_on_c, 9, 46, 127
2, 14528, Note_off_c, 9, 46, 64
2, 14531, Note_off_c, 9, 35, 64
2, 14600, Note_on_c, 9, 35, 127
2, 14600, Note_on_c, 9, 46, 127
2, 14625, Note_off_c, 9, 46, 64
2, 14636, Note_off_c, 9, 35, 64
2, 14699, Note_on_c, 9, 46, 127
2, 14724, Note_off_c, 9, 46, 64
2, 14792, Note_on_c, 9, 40, 127
2, 14795, Note_on_c, 9, 46, 127
2, 14824, Note_off_c, 9, 46, 64
2, 14824, Note_off_c, 9, 40, 64
2, 14888, Note_on_c, 9, 35, 127
2, 14888, Note_on_c, 9, 46, 127
2, 14908, Note_off_c, 9, 46, 64
2, 14913, Note_off_c, 9, 35, 64
2, 14982, Note_on_c, 9, 35, 127
2, 14987, Note_on_c, 9, 46, 127
2, 15016, Note_off_c, 9, 46, 64
2, 15019, Note_off_c, 9, 35, 64
2, 15076, Note_on_c, 9, 46, 127
2, 15100, Note_off_c, 9, 46, 64
2, 15177, Note_on_c, 9, 40, 127
2, 15180, Note_on_c, 9, 46, 127
2, 15209, Note_off_c, 9, 40, 64
2, 15216, Note_off_c, 9, 46, 64
2, 15272, Note_on_c, 9, 46, 127
2, 15273, Note_on_c, 9, 35, 127
2, 15296, Note_off_c, 9, 46, 64
2, 15297, Note_off_c, 9, 35, 64
2, 15366, Note_on_c, 9, 35, 127
2, 15371, Note_on_c, 9, 46, 127
2, 15409, Note_off_c, 9, 46, 64
2, 15409, Note_off_c, 9, 35, 64
2, 15465, Note_on_c, 9, 46, 127
2, 15489, Note_off_c, 9, 46, 64
2, 15563, Note_on_c, 9, 40, 127
2, 15564, Note_on_c, 9, 46, 127
2, 15596, Note_off_c, 9, 40, 64
2, 15601, Note_off_c, 9, 46, 64
2, 15657, Note_on_c, 9, 35, 127
2, 15660, Note_on_c, 9, 46, 127
2, 15680, Note_off_c, 9, 46, 64
2, 15684, Note_off_c, 9, 35, 64
2, 15752, Note_on_c, 9, 35, 127
2, 15760, Note_on_c, 9, 46, 127
2, 15787, Note_off_c, 9, 46, 64
2, 15796, Note_off_c, 9, 35, 64
2, 15859, Note_on_c, 9, 46, 127
2, 15880, Note_off_c, 9, 46, 64
2, 15956, Note_on_c, 9, 40, 127
2, 15958, Note_on_c, 9, 46, 127
2, 15988, Note_off_c, 9, 46, 64
2, 15988, Note_off_c, 9, 40, 64
2, 16043, Note_on_c, 9, 35, 127
2, 16052, Note_on_c, 9, 46, 127
2, 16073, Note_off_c, 9, 35, 64
2, 16076, Note_off_c, 9, 46, 64
2, 16144, Note_on_c, 9, 35, 127
2, 16150, Note_on_c, 9, 46, 127
2, 16176, Note_off_c, 9, 46, 64
2, 16184, Note_off_c, 9, 35, 64
2, 16246, Note_on_c, 9, 46, 127
2, 16270, Note_off_c, 9, 46, 64
2, 16339, Note_on_c, 9, 46, 127
2, 16342, Note_on_c, 9, 40, 127
2, 16369, Note_off_c, 9, 46, 64
2, 16374, Note_off_c, 9, 40, 64
2, 16432, Note_on_c, 9, 46, 127
2, 16433, Note_on_c, 9, 35, 127
2, 16457, Note_off_c, 9, 46, 64
2, 16460, Note_off_c, 9, 35, 64
2, 16524, Note_on_c, 9, 35, 127
2, 16528, Note_on_c, 9, 46, 127
2, 16555, Note_off_c, 9, 46, 64
2, 16563, Note_off_c, 9, 35, 64
2, 16619, Note_on_c, 9, 46, 127
2, 16644, Note_off_c, 9, 46, 64
2, 16715, Note_on_c, 9, 46, 127
2, 16718, Note_on_c, 9, 40, 127
2, 16747, Note_off_c, 9, 46, 64
2, 16750, Note_off_c, 9, 40, 64
2, 16796, Note_on_c, 9, 35, 127
2, 16804, Note_on_c, 9, 46, 127
2, 16822, Note_off_c, 9, 46, 64
2, 16825, Note_off_c, 9, 35, 64
2, 16899, Note_on_c, 9, 35, 127
2, 16900, Note_on_c, 9, 46, 127
2, 16929, Note_off_c, 9, 46, 64
2, 16942, Note_off_c, 9, 35, 64
2, 16995, Note_on_c, 9, 46, 127
2, 17014, Note_off_c, 9, 46, 64
2, 17092, Note_on_c, 9, 46, 127
2, 17105, Note_on_c, 9, 40, 127
2, 17123, Note_off_c, 9, 46, 64
2, 17136, Note_off_c, 9, 40, 64
2, 17184, Note_on_c, 9, 46, 127
2, 17198, Note_on_c, 9, 35, 127
2, 17212, Note_off_c, 9, 46, 64
2, 17222, Note_off_c, 9, 35, 64
2, 17280, Note_on_c, 9, 46, 127
2, 17291, Note_on_c, 9, 35, 127
2, 17313, Note_off_c, 9, 46, 64
2, 17332, Note_off_c, 9, 35, 64
2, 17385, Note_on_c, 9, 46, 127
2, 17411, Note_off_c, 9, 46, 64
2, 17483, Note_on_c, 9, 40, 127
2, 17486, Note_on_c, 9, 46, 127
2, 17515, Note_off_c, 9, 46, 64
2, 17515, Note_off_c, 9, 40, 64
2, 17574, Note_on_c, 9, 35, 127
2, 17579, Note_on_c, 9, 46, 127
2, 17604, Note_off_c, 9, 35, 64
2, 17608, Note_off_c, 9, 46, 64
2, 17670, Note_on_c, 9, 35, 127
2, 17672, Note_on_c, 9, 46, 127
2, 17702, Note_off_c, 9, 46, 64
2, 17715, Note_off_c, 9, 35, 64
2, 17769, Note_on_c, 9, 46, 127
2, 17800, Note_off_c, 9, 46, 64
2, 17873, Note_on_c, 9, 46, 127
2, 17876, Note_on_c, 9, 40, 127
2, 17900, Note_off_c, 9, 46, 64
2, 17910, Note_off_c, 9, 40, 64
2, 17966, Note_on_c, 9, 35, 127
2, 17966, Note_on_c, 9, 46, 127
2, 17993, Note_off_c, 9, 46, 64
2, 17993, Note_off_c, 9, 35, 64
2, 18059, Note_on_c, 9, 35, 127
2, 18067, Note_on_c, 9, 46, 127
2, 18092, Note_off_c, 9, 46, 64
2, 18102, Note_off_c, 9, 35, 64
2, 18158, Note_on_c, 9, 46, 127
2, 18185, Note_off_c, 9, 46, 64
2, 18252, Note_on_c, 9, 46, 127
2, 18256, Note_on_c, 9, 40, 127
2, 18281, Note_off_c, 9, 46, 64
2, 18288, Note_off_c, 9, 40, 64
2, 18340, Note_on_c, 9, 35, 127
2, 18345, Note_on_c, 9, 46, 127
2, 18368, Note_off_c, 9, 35, 64
2, 18371, Note_off_c, 9, 46, 64
2, 18438, Note_on_c, 9, 35, 127
2, 18443, Note_on_c, 9, 46, 127
2, 18472, Note_off_c, 9, 46, 64
2, 18484, Note_off_c, 9, 35, 64
2, 18531, Note_on_c, 9, 46, 127
2, 18558, Note_off_c, 9, 46, 64
2, 18627, Note_on_c, 9, 46, 127
2, 18636, Note_on_c, 9, 40, 127
2, 18656, Note_off_c, 9, 46, 64
2, 18667, Note_off_c, 9, 40, 64
2, 18723, Note_on_c, 9, 35, 127
2, 18724, Note_on_c, 9, 46, 127
2, 18750, Note_off_c, 9, 46, 64
2, 18752, Note_off_c, 9, 35, 64
2, 18817, Note_on_c, 9, 46, 127
2, 18820, Note_on_c, 9, 35, 127
2, 18848, Note_off_c, 9, 46, 64
2, 18868, Note_off_c, 9, 35, 64
2, 18915, Note_on_c, 9, 46, 127
2, 18945, Note_off_c, 9, 46, 64
2, 19011, Note_on_c, 9, 46, 127
2, 19019, Note_on_c, 9, 40, 127
2, 19043, Note_off_c, 9, 46, 64
2, 19052, Note_off_c, 9, 40, 64
2, 19107, Note_on_c, 9, 46, 127
2, 19113, Note_on_c, 9, 35, 127
2, 19137, Note_off_c, 9, 46, 64
2, 19140, Note_off_c, 9, 35, 64
2, 19204, Note_on_c, 9, 46, 127
2, 19206, Note_on_c, 9, 35, 127
2, 19208, Note_on_c, 9, 46, 127
2, 19235, Note_off_c, 9, 46, 64
2, 19238, Note_off_c, 9, 46, 64
2, 19249, Note_off_c, 9, 35, 64
2, 19304, Note_on_c, 9, 46, 127
2, 19304, Note_on_c, 9, 46, 127
2, 19334, Note_off_c, 9, 46, 64
2, 19334, Note_off_c, 9, 46, 64
2, 19396, Note_on_c, 9, 46, 127
2, 19401, Note_on_c, 9, 46, 127
2, 19406, Note_on_c, 9, 40, 127
2, 19428, Note_off_c, 9, 46, 64
2, 19433, Note_off_c, 9, 46, 64
2, 19435, Note_off_c, 9, 40, 64
2, 19491, Note_on_c, 9, 46, 127
2, 19491, Note_on_c, 9, 46, 127
2, 19500, Note_on_c, 9, 35, 127
2, 19523, Note_off_c, 9, 46, 64
2, 19526, Note_off_c, 9, 46, 64
2, 19528, Note_off_c, 9, 35, 64
2, 19584, Note_on_c, 9, 46, 127
2, 19587, Note_on_c, 9, 46, 127
2, 19595, Note_on_c, 9, 35, 127
2, 19601, Note_off_c, 9, 46, 64
2, 19608, Note_off_c, 9, 35, 64
2, 19616, Note_off_c, 9, 46, 64
2, 19680, Note_on_c, 9, 46, 127
2, 19681, Note_on_c, 9, 46, 127
2, 19689, Note_on_c, 9, 40, 127
2, 19696, Note_off_c, 9, 46, 64
2, 19708, Note_off_c, 9, 46, 64
2, 19716, Note_off_c, 9, 40, 64
2, 19774, Note_on_c, 9, 46, 127
2, 19782, Note_on_c, 9, 40, 127
2, 19782, Note_on_c, 9, 46, 127
2, 19803, Note_off_c, 9, 46, 64
2, 19803, Note_off_c, 9, 46, 64
2, 19809, Note_off_c, 9, 40, 64
2, 19960, Note_on_c, 9, 49, 127
2, 19961, Note_on_c, 9, 51, 127
2, 19968, Note_on_c, 9, 46, 127
2, 19971, Note_on_c, 9, 35, 127
2, 19987, Note_off_c, 9, 51, 64
2, 19992, Note_off_c, 9, 49, 64
2, 20000, Note_off_c, 9, 46, 64
2, 20030, Note_off_c, 9, 35, 64
2, 20056, Note_on_c, 9, 46, 127
2, 20088, Note_off_c, 9, 46, 64
2, 20145, Note_on_c, 9, 46, 127
2, 20161, Note_on_c, 9, 40, 127
2, 20177, Note_off_c, 9, 46, 64
2, 20195, Note_off_c, 9, 40, 64
2, 20244, Note_on_c, 9, 46, 127
2, 20256, Note_on_c, 9, 35, 127
2, 20273, Note_off_c, 9, 46, 64
2, 20280, Note_off_c, 9, 35, 64
2, 20340, Note_on_c, 9, 46, 127
2, 20352, Note_on_c, 9, 35, 127
2, 20371, Note_off_c, 9, 46, 64
2, 20387, Note_off_c, 9, 35, 64
2, 20438, Note_on_c, 9, 46, 127
2, 20468, Note_off_c, 9, 46, 64
2, 20537, Note_on_c, 9, 46, 127
2, 20544, Note_on_c, 9, 40, 127
2, 20569, Note_off_c, 9, 46, 64
2, 20577, Note_off_c, 9, 40, 64
2, 20636, Note_on_c, 9, 35, 127
2, 20636, Note_on_c, 9, 46, 127
2, 20664, Note_off_c, 9, 35, 64
2, 20665, Note_off_c, 9, 46, 64
2, 20732, Note_on_c, 9, 46, 127
2, 20739, Note_on_c, 9, 35, 127
2, 20763, Note_off_c, 9, 46, 64
2, 20785, Note_off_c, 9, 35, 64
2, 20828, Note_on_c, 9, 46, 127
2, 20859, Note_off_c, 9, 46, 64
2, 20924, Note_on_c, 9, 46, 127
2, 20928, Note_on_c, 9, 40, 127
2, 20953, Note_off_c, 9, 46, 64
2, 20960, Note_off_c, 9, 40, 64
2, 21019, Note_on_c, 9, 46, 127
2, 21032, Note_on_c, 9, 35, 127
2, 21048, Note_off_c, 9, 46, 64
2, 21059, Note_off_c, 9, 35, 64
2, 21113, Note_on_c, 9, 46, 127
2, 21124, Note_on_c, 9, 35, 127
2, 21142, Note_off_c, 9, 46, 64
2, 21168, Note_off_c, 9, 35, 64
2, 21208, Note_on_c, 9, 46, 127
2, 21236, Note_off_c, 9, 46, 64
2, 21304, Note_on_c, 9, 46, 127
2, 21320, Note_on_c, 9, 40, 127
2, 21331, Note_off_c, 9, 46, 64
2, 21350, Note_off_c, 9, 40, 64
2, 21403, Note_on_c, 9, 46, 127
2, 21412, Note_on_c, 9, 35, 127
2, 21428, Note_off_c, 9, 46, 64
2, 21440, Note_off_c, 9, 35, 64
2, 21502, Note_on_c, 9, 46, 127
2, 21508, Note_on_c, 9, 35, 127
2, 21531, Note_off_c, 9, 46, 64
2, 21553, Note_off_c, 9, 35, 64
2, 21601, Note_on_c, 9, 46, 127
2, 21632, Note_off_c, 9, 46, 64
2, 21696, Note_on_c, 9, 40, 127
2, 21697, Note_on_c, 9, 46, 127
2, 21728, Note_off_c, 9, 46, 64
2, 21729, Note_off_c, 9, 40, 64
2, 21793, Note_on_c, 9, 46, 127
2, 21800, Note_on_c, 9, 35, 127
2, 21824, Note_off_c, 9, 46, 64
2, 21827, Note_off_c, 9, 35, 64
2, 21889, Note_on_c, 9, 46, 127
2, 21894, Note_on_c, 9, 35, 127
2, 21918, Note_off_c, 9, 46, 64
2, 21937, Note_off_c, 9, 35, 64
2, 21988, Note_on_c, 9, 46, 127
2, 22016, Note_off_c, 9, 46, 64
2, 22083, Note_on_c, 9, 46, 127
2, 22086, Note_on_c, 9, 40, 127
2, 22112, Note_off_c, 9, 46, 64
2, 22116, Note_off_c, 9, 40, 64
2, 22180, Note_on_c, 9, 46, 127
2, 22184, Note_on_c, 9, 35, 127
2, 22208, Note_off_c, 9, 35, 64
2, 22208, Note_off_c, 9, 46, 64
2, 22275, Note_on_c, 9, 35, 127
2, 22275, Note_on_c, 9, 46, 127
2, 22302, Note_off_c, 9, 46, 64
2, 22321, Note_off_c, 9, 35, 64
2, 22369, Note_on_c, 9, 46, 127
2, 22398, Note_off_c, 9, 46, 64
2, 22462, Note_on_c, 9, 46, 127
2, 22465, Note_on_c, 9, 40, 127
2, 22494, Note_off_c, 9, 46, 64
2, 22499, Note_off_c, 9, 40, 64
2, 22560, Note_on_c, 9, 46, 127
2, 22563, Note_on_c, 9, 35, 127
2, 22587, Note_off_c, 9, 46, 64
2, 22588, Note_off_c, 9, 35, 64
2, 22652, Note_on_c, 9, 46, 127
2, 22654, Note_on_c, 9, 35, 127
2, 22683, Note_off_c, 9, 46, 64
2, 22700, Note_off_c, 9, 35, 64
2, 22744, Note_on_c, 9, 46, 127
2, 22777, Note_off_c, 9, 46, 64
2, 22835, Note_on_c, 9, 46, 127
2, 22857, Note_on_c, 9, 40, 127
2, 22870, Note_off_c, 9, 46, 64
2, 22891, Note_off_c, 9, 40, 64
2, 22932, Note_on_c, 9, 46, 127
2, 22953, Note_on_c, 9, 35, 127
2, 22960, Note_off_c, 9, 46, 64
2, 22976, Note_off_c, 9, 35, 64
2, 23033, Note_on_c, 9, 49, 127
2, 23041, Note_on_c, 9, 42, 127
2, 23048, Note_on_c, 9, 35, 127
2, 23051, Note_off_c, 9, 49, 64
2, 23081, Note_off_c, 9, 42, 64
2, 23134, Note_off_c, 9, 35, 64
2, 23136, Note_on_c, 9, 42, 127
2, 23172, Note_off_c, 9, 42, 64
2, 23228, Note_on_c, 9, 42, 127
2, 23241, Note_on_c, 9, 40, 127
2, 23268, Note_off_c, 9, 42, 64
2, 23273, Note_off_c, 9, 40, 64
2, 23328, Note_on_c, 9, 35, 127
2, 23332, Note_on_c, 9, 42, 127
2, 23358, Note_off_c, 9, 35, 64
2, 23368, Note_off_c, 9, 42, 64
2, 23424, Note_on_c, 9, 42, 127
2, 23428, Note_on_c, 9, 35, 127
2, 23460, Note_off_c, 9, 42, 64
2, 23475, Note_off_c, 9, 35, 64
2, 23516, Note_on_c, 9, 42, 127
2, 23552, Note_off_c, 9, 42, 64
2, 23611, Note_on_c, 9, 42, 127
2, 23617, Note_on_c, 9, 40, 127
2, 23648, Note_off_c, 9, 40, 64
2, 23651, Note_off_c, 9, 42, 64
2, 23710, Note_on_c, 9, 35, 127
2, 23710, Note_on_c, 9, 42, 127
2, 23742, Note_off_c, 9, 35, 64
2, 23744, Note_off_c, 9, 42, 64
2, 23808, Note_on_c, 9, 42, 127
2, 23809, Note_on_c, 9, 35, 127
2, 23840, Note_off_c, 9, 42, 64
2, 23860, Note_off_c, 9, 35, 64
2, 23904, Note_on_c, 9, 42, 127
2, 23939, Note_off_c, 9, 42, 64
2, 23998, Note_on_c, 9, 42, 127
2, 24009, Note_on_c, 9, 40, 127
2, 24033, Note_off_c, 9, 42, 64
2, 24043, Note_off_c, 9, 40, 64
2, 24097, Note_on_c, 9, 42, 127
2, 24105, Note_on_c, 9, 35, 127
2, 24132, Note_off_c, 9, 42, 64
2, 24134, Note_off_c, 9, 35, 64
2, 24195, Note_on_c, 9, 42, 127
2, 24200, Note_on_c, 9, 35, 127
2, 24232, Note_off_c, 9, 42, 64
2, 24240, Note_off_c, 9, 35, 64
2, 24288, Note_on_c, 9, 42, 127
2, 24323, Note_off_c, 9, 42, 64
2, 24384, Note_on_c, 9, 42, 127
2, 24401, Note_on_c, 9, 40, 127
2, 24417, Note_off_c, 9, 42, 64
2, 24433, Note_off_c, 9, 40, 64
2, 24484, Note_on_c, 9, 42, 127
2, 24492, Note_on_c, 9, 35, 127
2, 24516, Note_off_c, 9, 42, 64
2, 24523, Note_off_c, 9, 35, 64
2, 24582, Note_on_c, 9, 42, 127
2, 24592, Note_on_c, 9, 35, 127
2, 24617, Note_off_c, 9, 42, 64
2, 24644, Note_off_c, 9, 35, 64
2, 24683, Note_on_c, 9, 42, 127
2, 24712, Note_off_c, 9, 42, 64
2, 24779, Note_on_c, 9, 42, 127
2, 24785, Note_on_c, 9, 40, 127
2, 24812, Note_off_c, 9, 42, 64
2, 24820, Note_off_c, 9, 40, 64
2, 24875, Note_on_c, 9, 42, 127
2, 24881, Note_on_c, 9, 35, 127
2, 24908, Note_off_c, 9, 42, 64
2, 24910, Note_off_c, 9, 35, 64
2, 24966, Note_on_c, 9, 42, 127
2, 24974, Note_on_c, 9, 35, 127
2, 25001, Note_off_c, 9, 42, 64
2, 25020, Note_off_c, 9, 35, 64
2, 25067, Note_on_c, 9, 42, 127
2, 25096, Note_off_c, 9, 42, 64
2, 25160, Note_on_c, 9, 42, 127
2, 25171, Note_on_c, 9, 40, 127
2, 25193, Note_off_c, 9, 42, 64
2, 25201, Note_off_c, 9, 40, 64
2, 25257, Note_on_c, 9, 42, 127
2, 25265, Note_on_c, 9, 35, 127
2, 25286, Note_off_c, 9, 42, 64
2, 25297, Note_off_c, 9, 35, 64
2, 25353, Note_on_c, 9, 42, 127
2, 25360, Note_on_c, 9, 35, 127
2, 25384, Note_off_c, 9, 42, 64
2, 25398, Note_off_c, 9, 35, 64
2, 25448, Note_on_c, 9, 42, 127
2, 25478, Note_off_c, 9, 42, 64
2, 25542, Note_on_c, 9, 42, 127
2, 25548, Note_on_c, 9, 40, 127
2, 25576, Note_off_c, 9, 42, 64
2, 25584, Note_off_c, 9, 40, 64
2, 25640, Note_on_c, 9, 42, 127
2, 25643, Note_on_c, 9, 35, 127
2, 25672, Note_off_c, 9, 42, 64
2, 25675, Note_off_c, 9, 35, 64
2, 25731, Note_on_c, 9, 42, 127
2, 25737, Note_on_c, 9, 35, 127
2, 25761, Note_off_c, 9, 42, 64
2, 25788, Note_off_c, 9, 35, 64
2, 25825, Note_on_c, 9, 42, 127
2, 25854, Note_off_c, 9, 42, 64
2, 25920, Note_on_c, 9, 42, 127
2, 25934, Note_on_c, 9, 40, 127
2, 25952, Note_off_c, 9, 42, 64
2, 25966, Note_off_c, 9, 40, 64
2, 26019, Note_on_c, 9, 42, 127
2, 26024, Note_on_c, 9, 35, 127
2, 26046, Note_off_c, 9, 42, 64
2, 26056, Note_off_c, 9, 35, 64
2, 26118, Note_on_c, 9, 42, 127
2, 26123, Note_on_c, 9, 35, 127
2, 26147, Note_off_c, 9, 42, 64
2, 26171, Note_off_c, 9, 35, 64
2, 26217, Note_on_c, 9, 42, 127
2, 26244, Note_off_c, 9, 42, 64
2, 26308, Note_on_c, 9, 40, 127
2, 26315, Note_on_c, 9, 42, 127
2, 26342, Note_off_c, 9, 42, 64
2, 26345, Note_off_c, 9, 40, 64
2, 26406, Note_on_c, 9, 42, 127
2, 26409, Note_on_c, 9, 35, 127
2, 26438, Note_off_c, 9, 42, 64
2, 26441, Note_off_c, 9, 35, 64
2, 26504, Note_on_c, 9, 42, 127
2, 26505, Note_on_c, 9, 35, 127
2, 26532, Note_off_c, 9, 42, 64
2, 26553, Note_off_c, 9, 35, 64
2, 26596, Note_on_c, 9, 42, 127
2, 26627, Note_off_c, 9, 42, 64
2, 26689, Note_on_c, 9, 42, 127
2, 26700, Note_on_c, 9, 40, 127
2, 26720, Note_off_c, 9, 42, 64
2, 26736, Note_off_c, 9, 40, 64
2, 26785, Note_on_c, 9, 42, 127
2, 26792, Note_on_c, 9, 35, 127
2, 26816, Note_off_c, 9, 42, 64
2, 26828, Note_off_c, 9, 35, 64
2, 26878, Note_on_c, 9, 42, 127
2, 26888, Note_on_c, 9, 35, 127
2, 26912, Note_off_c, 9, 42, 64
2, 26937, Note_off_c, 9, 35, 64
2, 26979, Note_on_c, 9, 42, 127
2, 27012, Note_off_c, 9, 42, 64
2, 27076, Note_on_c, 9, 42, 127
2, 27086, Note_on_c, 9, 40, 127
2, 27107, Note_off_c, 9, 42, 64
2, 27121, Note_off_c, 9, 40, 64
2, 27171, Note_on_c, 9, 42, 127
2, 27174, Note_on_c, 9, 35, 127
2, 27204, Note_off_c, 9, 35, 64
2, 27204, Note_off_c, 9, 42, 64
2, 27270, Note_on_c, 9, 42, 127
2, 27275, Note_on_c, 9, 35, 127
2, 27304, Note_off_c, 9, 42, 64
2, 27321, Note_off_c, 9, 35, 64
2, 27366, Note_on_c, 9, 42, 127
2, 27396, Note_off_c, 9, 42, 64
2, 27464, Note_on_c, 9, 42, 127
2, 27476, Note_on_c, 9, 40, 127
2, 27496, Note_off_c, 9, 42, 64
2, 27507, Note_off_c, 9, 40, 64
2, 27555, Note_on_c, 9, 42, 127
2, 27563, Note_on_c, 9, 35, 127
2, 27590, Note_off_c, 9, 35, 64
2, 27590, Note_off_c, 9, 42, 64
2, 27652, Note_on_c, 9, 42, 127
2, 27657, Note_on_c, 9, 35, 127
2, 27686, Note_off_c, 9, 42, 64
2, 27704, Note_off_c, 9, 35, 64
2, 27745, Note_on_c, 9, 42, 127
2, 27777, Note_off_c, 9, 42, 64
2, 27841, Note_on_c, 9, 42, 127
2, 27857, Note_on_c, 9, 40, 127
2, 27873, Note_off_c, 9, 42, 64
2, 27891, Note_off_c, 9, 40, 64
2, 27942, Note_on_c, 9, 42, 127
2, 27945, Note_on_c, 9, 35, 127
2, 27968, Note_off_c, 9, 42, 64
2, 27972, Note_off_c, 9, 35, 64
2, 28036, Note_on_c, 9, 35, 127
2, 28041, Note_on_c, 9, 42, 127
2, 28070, Note_off_c, 9, 42, 64
2, 28081, Note_off_c, 9, 35, 64
2, 28134, Note_on_c, 9, 42, 127
2, 28164, Note_off_c, 9, 42, 64
2, 28227, Note_on_c, 9, 42, 127
2, 28236, Note_on_c, 9, 40, 127
2, 28257, Note_off_c, 9, 42, 64
2, 28272, Note_off_c, 9, 40, 64
2, 28320, Note_on_c, 9, 35, 127
2, 28328, Note_on_c, 9, 42, 127
2, 28345, Note_off_c, 9, 35, 64
2, 28355, Note_off_c, 9, 42, 64
2, 28420, Note_on_c, 9, 35, 127
2, 28427, Note_on_c, 9, 42, 127
2, 28456, Note_off_c, 9, 42, 64
2, 28472, Note_off_c, 9, 35, 64
2, 28523, Note_on_c, 9, 42, 127
2, 28552, Note_off_c, 9, 42, 64
2, 28612, Note_on_c, 9, 42, 127
2, 28620, Note_on_c, 9, 40, 127
2, 28643, Note_off_c, 9, 42, 64
2, 28652, Note_off_c, 9, 40, 64
2, 28702, Note_on_c, 9, 35, 127
2, 28707, Note_on_c, 9, 42, 127
2, 28729, Note_off_c, 9, 35, 64
2, 28737, Note_off_c, 9, 42, 64
2, 28801, Note_on_c, 9, 42, 127
2, 28803, Note_on_c, 9, 35, 127
2, 28830, Note_off_c, 9, 42, 64
2, 28848, Note_off_c, 9, 35, 64
2, 28892, Note_on_c, 9, 42, 127
2, 28923, Note_off_c, 9, 42, 64
2, 28984, Note_on_c, 9, 42, 127
2, 29000, Note_on_c, 9, 40, 127
2, 29011, Note_off_c, 9, 42, 64
2, 29036, Note_off_c, 9, 40, 64
2, 29084, Note_on_c, 9, 35, 127
2, 29086, Note_on_c, 9, 42, 127
2, 29112, Note_off_c, 9, 42, 64
2, 29118, Note_off_c, 9, 35, 64
2, 29180, Note_on_c, 9, 42, 127
2, 29185, Note_on_c, 9, 35, 127
2, 29212, Note_off_c, 9, 42, 64
2, 29230, Note_off_c, 9, 35, 64
2, 29281, Note_on_c, 9, 42, 127
2, 29310, Note_off_c, 9, 42, 64
2, 29387, Note_on_c, 9, 42, 127
2, 29390, Note_on_c, 9, 40, 127
2, 29417, Note_off_c, 9, 42, 64
2, 29424, Note_off_c, 9, 40, 64
2, 29472, Note_on_c, 9, 35, 127
2, 29486, Note_on_c, 9, 42, 127
2, 29505, Note_off_c, 9, 35, 64
2, 29512, Note_off_c, 9, 42, 64
2, 29577, Note_on_c, 9, 35, 127
2, 29587, Note_on_c, 9, 42, 127
2, 29612, Note_off_c, 9, 42, 64
2, 29632, Note_off_c, 9, 35, 64
2, 29678, Note_on_c, 9, 42, 127
2, 29705, Note_off_c, 9, 42, 64
2, 29772, Note_on_c, 9, 40, 127
2, 29772, Note_on_c, 9, 42, 127
2, 29803, Note_off_c, 9, 42, 64
2, 29809, Note_off_c, 9, 40, 64
2, 29864, Note_on_c, 9, 35, 127
2, 29868, Note_on_c, 9, 42, 127
2, 29892, Note_off_c, 9, 35, 64
2, 29896, Note_off_c, 9, 42, 64
2, 29961, Note_on_c, 9, 35, 127
2, 29963, Note_on_c, 9, 42, 127
2, 29992, Note_off_c, 9, 42, 64
2, 30014, Note_off_c, 9, 35, 64
2, 30057, Note_on_c, 9, 42, 127
2, 30086, Note_off_c, 9, 42, 64
2, 30147, Note_on_c, 9, 42, 127
2, 30158, Note_on_c, 9, 40, 127
2, 30180, Note_off_c, 9, 42, 64
2, 30195, Note_off_c, 9, 40, 64
2, 30244, Note_on_c, 9, 42, 127
2, 30249, Note_on_c, 9, 35, 127
2, 30273, Note_off_c, 9, 42, 64
2, 30275, Note_off_c, 9, 35, 64
2, 30344, Note_on_c, 9, 42, 127
2, 30348, Note_on_c, 9, 35, 127
2, 30372, Note_off_c, 9, 42, 64
2, 30393, Note_off_c, 9, 35, 64
2, 30440, Note_on_c, 9, 42, 127
2, 30467, Note_off_c, 9, 42, 64
2, 30537, Note_on_c, 9, 42, 127
2, 30544, Note_on_c, 9, 40, 127
2, 30564, Note_off_c, 9, 42, 64
2, 30577, Note_off_c, 9, 40, 64
2, 30627, Note_on_c, 9, 42, 127
2, 30630, Note_on_c, 9, 35, 127
2, 30654, Note_off_c, 9, 35, 64
2, 30657, Note_off_c, 9, 42, 64
2, 30726, Note_on_c, 9, 42, 127
2, 30734, Note_on_c, 9, 35, 127
2, 30756, Note_off_c, 9, 42, 64
2, 30782, Note_off_c, 9, 35, 64
2, 30822, Note_on_c, 9, 42, 127
2, 30849, Note_off_c, 9, 42, 64
2, 30920, Note_on_c, 9, 42, 127
2, 30929, Note_on_c, 9, 40, 127
2, 30953, Note_off_c, 9, 42, 64
2, 30964, Note_off_c, 9, 40, 64
2, 31011, Note_on_c, 9, 42, 127
2, 31014, Note_on_c, 9, 35, 127
2, 31038, Note_off_c, 9, 35, 64
2, 31043, Note_off_c, 9, 42, 64
2, 31104, Note_on_c, 9, 42, 127
2, 31113, Note_on_c, 9, 35, 127
2, 31136, Note_off_c, 9, 42, 64
2, 31158, Note_off_c, 9, 35, 64
2, 31198, Note_on_c, 9, 42, 127
2, 31230, Note_off_c, 9, 42, 64
2, 31296, Note_on_c, 9, 42, 127
2, 31310, Note_on_c, 9, 40, 127
2, 31326, Note_off_c, 9, 42, 64
2, 31347, Note_off_c, 9, 40, 64
2, 31396, Note_on_c, 9, 35, 127
2, 31398, Note_on_c, 9, 42, 127
2, 31419, Note_off_c, 9, 35, 64
2, 31427, Note_off_c, 9, 42, 64
2, 31492, Note_on_c, 9, 35, 127
2, 31496, Note_on_c, 9, 42, 127
2, 31528, Note_off_c, 9, 42, 64
2, 31537, Note_off_c, 9, 35, 64
2, 31590, Note_on_c, 9, 42, 127
2, 31620, Note_off_c, 9, 42, 64
2, 31686, Note_on_c, 9, 40, 127
2, 31689, Note_on_c, 9, 42, 127
2, 31720, Note_off_c, 9, 42, 64
2, 31720, Note_off_c, 9, 40, 64
2, 31769, Note_on_c, 9, 35, 127
2, 31787, Note_on_c, 9, 42, 127
2, 31800, Note_off_c, 9, 35, 64
2, 31817, Note_off_c, 9, 42, 64
2, 31868, Note_on_c, 9, 35, 127
2, 31883, Note_on_c, 9, 42, 127
2, 31913, Note_off_c, 9, 42, 64
2, 31915, Note_off_c, 9, 35, 64
2, 31980, Note_on_c, 9, 42, 127
2, 32008, Note_off_c, 9, 42, 64
2, 32070, Note_on_c, 9, 57, 127
2, 32075, Note_on_c, 9, 40, 127
2, 32075, Note_on_c, 9, 42, 127
2, 32097, Note_off_c, 9, 57, 64
2, 32100, Note_off_c, 9, 40, 64
2, 32107, Note_off_c, 9, 42, 64
2, 32155, Note_on_c, 9, 46, 127
2, 32160, Note_on_c, 9, 35, 127
2, 32169, Note_on_c, 9, 44, 127
2, 32177, Note_off_c, 9, 46, 64
2, 32182, Note_off_c, 9, 35, 64
2, 32184, Note_off_c, 9, 44, 64
2, 32249, Note_on_c, 9, 49, 127
2, 32259, Note_on_c, 9, 46, 127
2, 32268, Note_on_c, 9, 35, 127
2, 32270, Note_off_c, 9, 49, 64
2, 32288, Note_off_c, 9, 46, 64
2, 32336, Note_off_c, 9, 35, 64
2, 32352, Note_on_c, 9, 46, 127
2, 32377, Note_off_c, 9, 46, 64
2, 32448, Note_on_c, 9, 46, 127
2, 32467, Note_on_c, 9, 40, 127
2, 32476, Note_off_c, 9, 46, 64
2, 32502, Note_off_c, 9, 40, 64
2, 32547, Note_on_c, 9, 46, 127
2, 32552, Note_on_c, 9, 35, 127
2, 32571, Note_off_c, 9, 46, 64
2, 32588, Note_off_c, 9, 35, 64
2, 32646, Note_on_c, 9, 46, 127
2, 32651, Note_on_c, 9, 35, 127
2, 32672, Note_off_c, 9, 46, 64
2, 32710, Note_off_c, 9, 35, 64
2, 32740, Note_on_c, 9, 46, 127
2, 32764, Note_off_c, 9, 46, 64
2, 32835, Note_on_c, 9, 46, 127
2, 32843, Note_on_c, 9, 40, 127
2, 32857, Note_off_c, 9, 46, 64
2, 32883, Note_off_c, 9, 40, 64
2, 32932, Note_on_c, 9, 35, 127
2, 32934, Note_on_c, 9, 46, 127
2, 32950, Note_off_c, 9, 46, 64
2, 32969, Note_off_c, 9, 35, 64
2, 33025, Note_on_c, 9, 35, 127
2, 33035, Note_on_c, 9, 46, 127
2, 33052, Note_off_c, 9, 46, 64
2, 33100, Note_off_c, 9, 35, 64
2, 33129, Note_on_c, 9, 46, 127
2, 33147, Note_off_c, 9, 46, 64
2, 33217, Note_on_c, 9, 40, 127
2, 33219, Note_on_c, 9, 46, 127
2, 33236, Note_off_c, 9, 46, 64
2, 33257, Note_off_c, 9, 40, 64
2, 33308, Note_on_c, 9, 35, 127
2, 33310, Note_on_c, 9, 46, 127
2, 33329, Note_off_c, 9, 46, 64
2, 33342, Note_off_c, 9, 35, 64
2, 33404, Note_on_c, 9, 46, 127
2, 33406, Note_on_c, 9, 35, 127
2, 33425, Note_off_c, 9, 46, 64
2, 33462, Note_off_c, 9, 35, 64
2, 33502, Note_on_c, 9, 46, 127
2, 33523, Note_off_c, 9, 46, 64
2, 33596, Note_on_c, 9, 46, 127
2, 33611, Note_on_c, 9, 40, 127
2, 33619, Note_off_c, 9, 46, 64
2, 33644, Note_off_c, 9, 40, 64
2, 33688, Note_on_c, 9, 46, 127
2, 33702, Note_on_c, 9, 35, 127
2, 33708, Note_off_c, 9, 46, 64
2, 33732, Note_off_c, 9, 35, 64
2, 33785, Note_on_c, 9, 46, 127
2, 33796, Note_on_c, 9, 35, 127
2, 33801, Note_on_c, 9, 57, 127
2, 33808, Note_off_c, 9, 46, 64
2, 33830, Note_off_c, 9, 57, 64
2, 33843, Note_off_c, 9, 35, 64
2, 33883, Note_on_c, 9, 46, 127
2, 33902, Note_off_c, 9, 46, 64
2, 33980, Note_on_c, 9, 46, 127
2, 33984, Note_on_c, 9, 40, 127
2, 34003, Note_off_c, 9, 46, 64
2, 34020, Note_off_c, 9, 40, 64
2, 34076, Note_on_c, 9, 35, 127
2, 34076, Note_on_c, 9, 46, 127
2, 34097, Note_off_c, 9, 46, 64
2, 34110, Note_off_c, 9, 35, 64
2, 34172, Note_on_c, 9, 46, 127
2, 34179, Note_on_c, 9, 35, 127
2, 34192, Note_off_c, 9, 46, 64
2, 34232, Note_off_c, 9, 35, 64
2, 34270, Note_on_c, 9, 46, 127
2, 34289, Note_off_c, 9, 46, 64
2, 34366, Note_on_c, 9, 46, 127
2, 34380, Note_on_c, 9, 40, 127
2, 34387, Note_off_c, 9, 46, 64
2, 34417, Note_off_c, 9, 40, 64
2, 34462, Note_on_c, 9, 46, 127
2, 34468, Note_on_c, 9, 35, 127
2, 34481, Note_off_c, 9, 46, 64
2, 34502, Note_off_c, 9, 35, 64
2, 34558, Note_on_c, 9, 46, 127
2, 34566, Note_on_c, 9, 35, 127
2, 34577, Note_off_c, 9, 46, 64
2, 34622, Note_off_c, 9, 35, 64
2, 34652, Note_on_c, 9, 46, 127
2, 34676, Note_off_c, 9, 46, 64
2, 34747, Note_on_c, 9, 46, 127
2, 34761, Note_on_c, 9, 40, 127
2, 34771, Note_off_c, 9, 46, 64
2, 34798, Note_off_c, 9, 40, 64
2, 34849, Note_on_c, 9, 46, 127
2, 34854, Note_on_c, 9, 35, 127
2, 34868, Note_off_c, 9, 46, 64
2, 34888, Note_off_c, 9, 35, 64
2, 34945, Note_on_c, 9, 46, 127
2, 34952, Note_on_c, 9, 35, 127
2, 34968, Note_off_c, 9, 46, 64
2, 34985, Note_off_c, 9, 35, 64
2, 35041, Note_on_c, 9, 40, 127
2, 35043, Note_on_c, 9, 46, 127
2, 35060, Note_off_c, 9, 40, 64
2, 35064, Note_off_c, 9, 46, 64
2, 35140, Note_on_c, 9, 40, 127
2, 35140, Note_on_c, 9, 46, 127
2, 35163, Note_off_c, 9, 46, 64
2, 35172, Note_off_c, 9, 40, 64
2, 35233, Note_on_c, 9, 46, 127
2, 35256, Note_off_c, 9, 46, 64
2, 35326, Note_on_c, 9, 57, 127
2, 35329, Note_on_c, 9, 46, 127
2, 35331, Note_on_c, 9, 35, 127
2, 35347, Note_off_c, 9, 46, 64
2, 35355, Note_off_c, 9, 57, 64
2, 35384, Note_off_c, 9, 35, 64
2, 35420, Note_on_c, 9, 46, 127
2, 35441, Note_off_c, 9, 46, 64
2, 35515, Note_on_c, 9, 46, 127
2, 35534, Note_on_c, 9, 40, 127
2, 35537, Note_off_c, 9, 46, 64
2, 35569, Note_off_c, 9, 40, 64
2, 35614, Note_on_c, 9, 46, 127
2, 35624, Note_on_c, 9, 35, 127
2, 35633, Note_off_c, 9, 46, 64
2, 35652, Note_off_c, 9, 35, 64
2, 35715, Note_on_c, 9, 46, 127
2, 35718, Note_on_c, 9, 35, 127
2, 35731, Note_off_c, 9, 46, 64
2, 35766, Note_off_c, 9, 35, 64
2, 35809, Note_on_c, 9, 46, 127
2, 35830, Note_off_c, 9, 46, 64
2, 35908, Note_on_c, 9, 46, 127
2, 35912, Note_on_c, 9, 40, 127
2, 35932, Note_off_c, 9, 46, 64
2, 35950, Note_off_c, 9, 40, 64
2, 36000, Note_on_c, 9, 35, 127
2, 36000, Note_on_c, 9, 46, 127
2, 36024, Note_off_c, 9, 46, 64
2, 36025, Note_off_c, 9, 35, 64
2, 36094, Note_on_c, 9, 46, 127
2, 36104, Note_on_c, 9, 35, 127
2, 36123, Note_off_c, 9, 46, 64
2, 36161, Note_off_c, 9, 35, 64
2, 36195, Note_on_c, 9, 46, 127
2, 36217, Note_off_c, 9, 46, 64
2, 36289, Note_on_c, 9, 40, 127
2, 36294, Note_on_c, 9, 46, 127
2, 36316, Note_off_c, 9, 46, 64
2, 36329, Note_off_c, 9, 40, 64
2, 36384, Note_on_c, 9, 46, 127
2, 36388, Note_on_c, 9, 35, 127
2, 36409, Note_off_c, 9, 46, 64
2, 36420, Note_off_c, 9, 35, 64
2, 36470, Note_on_c, 9, 46, 127
2, 36484, Note_on_c, 9, 35, 127
2, 36500, Note_off_c, 9, 46, 64
2, 36539, Note_off_c, 9, 35, 64
2, 36574, Note_on_c, 9, 46, 127
2, 36596, Note_off_c, 9, 46, 64
2, 36675, Note_on_c, 9, 46, 127
2, 36686, Note_on_c, 9, 40, 127
2, 36702, Note_off_c, 9, 46, 64
2, 36718, Note_off_c, 9, 40, 64
2, 36772, Note_on_c, 9, 35, 127
2, 36774, Note_on_c, 9, 46, 127
2, 36793, Note_off_c, 9, 46, 64
2, 36800, Note_off_c, 9, 35, 64
2, 36864, Note_on_c, 9, 57, 127
2, 36865, Note_on_c, 9, 46, 127
2, 36868, Note_on_c, 9, 35, 127
2, 36892, Note_off_c, 9, 46, 64
2, 36892, Note_off_c, 9, 57, 64
2, 36932, Note_off_c, 9, 35, 64
2, 36960, Note_on_c, 9, 46, 127
2, 36984, Note_off_c, 9, 46, 64
2, 37056, Note_on_c, 9, 46, 127
2, 37057, Note_on_c, 9, 40, 127
2, 37081, Note_off_c, 9, 46, 64
2, 37092, Note_off_c, 9, 40, 64
2, 37148, Note_on_c, 9, 35, 127
2, 37158, Note_on_c, 9, 46, 127
2, 37180, Note_off_c, 9, 35, 64
2, 37182, Note_off_c, 9, 46, 64
2, 37246, Note_on_c, 9, 35, 127
2, 37249, Note_on_c, 9, 46, 127
2, 37276, Note_off_c, 9, 46, 64
2, 37305, Note_off_c, 9, 35, 64
2, 37337, Note_on_c, 9, 46, 127
2, 37364, Note_off_c, 9, 46, 64
2, 37441, Note_on_c, 9, 46, 127
2, 37451, Note_on_c, 9, 40, 127
2, 37467, Note_off_c, 9, 46, 64
2, 37486, Note_off_c, 9, 40, 64
2, 37537, Note_on_c, 9, 46, 127
2, 37544, Note_on_c, 9, 35, 127
2, 37564, Note_off_c, 9, 46, 64
2, 37585, Note_off_c, 9, 35, 64
2, 37630, Note_on_c, 9, 46, 127
2, 37638, Note_on_c, 9, 35, 127
2, 37659, Note_off_c, 9, 46, 64
2, 37715, Note_off_c, 9, 35, 64
2, 37728, Note_on_c, 9, 46, 127
2, 37755, Note_off_c, 9, 46, 64
2, 37825, Note_on_c, 9, 46, 127
2, 37835, Note_on_c, 9, 40, 127
2, 37851, Note_off_c, 9, 46, 64
2, 37875, Note_off_c, 9, 40, 64
2, 37921, Note_on_c, 9, 46, 127
2, 37928, Note_on_c, 9, 35, 127
2, 37952, Note_off_c, 9, 46, 64
2, 37963, Note_off_c, 9, 35, 64
2, 38017, Note_on_c, 9, 35, 127
2, 38020, Note_on_c, 9, 46, 127
2, 38044, Note_off_c, 9, 46, 64
2, 38094, Note_off_c, 9, 35, 64
2, 38113, Note_on_c, 9, 46, 127
2, 38142, Note_off_c, 9, 46, 64
2, 38212, Note_on_c, 9, 46, 127
2, 38214, Note_on_c, 9, 40, 127
2, 38241, Note_off_c, 9, 46, 64
2, 38252, Note_off_c, 9, 40, 64
2, 38297, Note_on_c, 9, 35, 127
2, 38300, Note_on_c, 9, 40, 127
2, 38312, Note_on_c, 9, 46, 127
2, 38316, Note_off_c, 9, 40, 64
2, 38328, Note_off_c, 9, 35, 64
2, 38336, Note_off_c, 9, 46, 64
2, 38344, Note_on_c, 9, 40, 127
2, 38366, Note_off_c, 9, 40, 64
2, 38400, Note_on_c, 9, 35, 127
2, 38401, Note_on_c, 9, 57, 127
2, 38408, Note_on_c, 9, 46, 127
2, 38432, Note_off_c, 9, 46, 64
2, 38441, Note_off_c, 9, 57, 64
2, 38462, Note_off_c, 9, 35, 64
2, 38500, Note_on_c, 9, 46, 127
2, 38526, Note_off_c, 9, 46, 64
2, 38590, Note_on_c, 9, 40, 127
2, 38593, Note_on_c, 9, 46, 127
2, 38619, Note_off_c, 9, 46, 64
2, 38627, Note_off_c, 9, 40, 64
2, 38678, Note_on_c, 9, 46, 127
2, 38683, Note_on_c, 9, 35, 127
2, 38707, Note_off_c, 9, 46, 64
2, 38713, Note_off_c, 9, 35, 64
2, 38777, Note_on_c, 9, 35, 127
2, 38779, Note_on_c, 9, 46, 127
2, 38804, Note_off_c, 9, 46, 64
2, 38830, Note_off_c, 9, 35, 64
2, 38872, Note_on_c, 9, 46, 127
2, 38899, Note_off_c, 9, 46, 64
2, 38969, Note_on_c, 9, 46, 127
2, 38985, Note_on_c, 9, 40, 127
2, 38998, Note_off_c, 9, 46, 64
2, 39019, Note_off_c, 9, 40, 64
2, 39065, Note_on_c, 9, 46, 127
2, 39068, Note_on_c, 9, 35, 127
2, 39092, Note_off_c, 9, 35, 64
2, 39094, Note_off_c, 9, 46, 64
2, 39164, Note_on_c, 9, 46, 127
2, 39174, Note_on_c, 9, 35, 127
2, 39192, Note_off_c, 9, 46, 64
2, 39230, Note_off_c, 9, 35, 64
2, 39257, Note_on_c, 9, 46, 127
2, 39288, Note_off_c, 9, 46, 64
2, 39360, Note_on_c, 9, 46, 127
2, 39363, Note_on_c, 9, 40, 127
2, 39388, Note_off_c, 9, 46, 64
2, 39395, Note_off_c, 9, 40, 64
2, 39449, Note_on_c, 9, 35, 127
2, 39452, Note_on_c, 9, 46, 127
2, 39476, Note_off_c, 9, 35, 64
2, 39483, Note_off_c, 9, 46, 64
2, 39547, Note_on_c, 9, 46, 127
2, 39550, Note_on_c, 9, 35, 127
2, 39576, Note_off_c, 9, 46, 64
2, 39598, Note_off_c, 9, 35, 64
2, 39643, Note_on_c, 9, 46, 127
2, 39672, Note_off_c, 9, 46, 64
2, 39732, Note_on_c, 9, 46, 127
2, 39744, Note_on_c, 9, 40, 127
2, 39764, Note_off_c, 9, 46, 64
2, 39780, Note_off_c, 9, 40, 64
2, 39827, Note_on_c, 9, 35, 127
2, 39830, Note_on_c, 9, 46, 127
2, 39852, Note_off_c, 9, 35, 64
2, 39860, Note_off_c, 9, 46, 64
2, 39928, Note_on_c, 9, 35, 127
2, 39929, Note_on_c, 9, 46, 127
2, 39956, Note_off_c, 9, 46, 64
2, 39977, Note_off_c, 9, 35, 64
2, 40025, Note_on_c, 9, 46, 127
2, 40051, Note_off_c, 9, 46, 64
2, 40121, Note_on_c, 9, 46, 127
2, 40129, Note_on_c, 9, 40, 127
2, 40145, Note_off_c, 9, 46, 64
2, 40168, Note_off_c, 9, 40, 64
2, 40217, Note_on_c, 9, 35, 127
2, 40219, Note_on_c, 9, 46, 127
2, 40244, Note_off_c, 9, 46, 64
2, 40246, Note_off_c, 9, 35, 64
2, 40316, Note_on_c, 9, 46, 127
2, 40324, Note_on_c, 9, 35, 127
2, 40342, Note_off_c, 9, 46, 64
2, 40374, Note_off_c, 9, 35, 64
2, 40406, Note_on_c, 9, 46, 127
2, 40435, Note_off_c, 9, 46, 64
2, 40504, Note_on_c, 9, 46, 127
2, 40523, Note_on_c, 9, 40, 127
2, 40529, Note_off_c, 9, 46, 64
2, 40555, Note_off_c, 9, 40, 64
2, 40603, Note_on_c, 9, 46, 127
2, 40611, Note_on_c, 9, 35, 127
2, 40627, Note_off_c, 9, 46, 64
2, 40638, Note_off_c, 9, 35, 64
2, 40707, Note_on_c, 9, 35, 127
2, 40707, Note_on_c, 9, 46, 127
2, 40726, Note_off_c, 9, 46, 64
2, 40761, Note_off_c, 9, 35, 64
2, 40800, Note_on_c, 9, 46, 127
2, 40822, Note_off_c, 9, 46, 64
2, 40899, Note_on_c, 9, 40, 127
2, 40904, Note_on_c, 9, 46, 127
2, 40926, Note_off_c, 9, 46, 64
2, 40936, Note_off_c, 9, 40, 64
2, 40995, Note_on_c, 9, 46, 127
2, 40998, Note_on_c, 9, 35, 127
2, 41019, Note_off_c, 9, 46, 64
2, 41035, Note_off_c, 9, 35, 64
2, 41088, Note_on_c, 9, 46, 127
2, 41100, Note_on_c, 9, 35, 127
2, 41112, Note_off_c, 9, 46, 64
2, 41152, Note_off_c, 9, 35, 64
2, 41180, Note_on_c, 9, 46, 127
2, 41206, Note_off_c, 9, 46, 64
2, 41276, Note_on_c, 9, 46, 127
2, 41292, Note_on_c, 9, 40, 127
2, 41300, Note_off_c, 9, 46, 64
2, 41318, Note_off_c, 9, 40, 64
2, 41371, Note_on_c, 9, 35, 127
2, 41377, Note_on_c, 9, 46, 127
2, 41388, Note_off_c, 9, 46, 64
2, 41409, Note_off_c, 9, 35, 64
2, 41464, Note_on_c, 9, 49, 127
2, 41473, Note_on_c, 9, 42, 127
2, 41480, Note_on_c, 9, 35, 127
2, 41488, Note_off_c, 9, 49, 64
2, 41505, Note_off_c, 9, 42, 64
2, 41542, Note_off_c, 9, 35, 64
2, 41576, Note_on_c, 9, 42, 127
2, 41604, Note_off_c, 9, 42, 64
2, 41672, Note_on_c, 9, 40, 127
2, 41675, Note_on_c, 9, 42, 127
2, 41705, Note_off_c, 9, 42, 64
2, 41710, Note_off_c, 9, 40, 64
2, 41764, Note_on_c, 9, 35, 127
2, 41774, Note_on_c, 9, 42, 127
2, 41793, Note_off_c, 9, 35, 64
2, 41803, Note_off_c, 9, 42, 64
2, 41862, Note_on_c, 9, 35, 127
2, 41867, Note_on_c, 9, 42, 127
2, 41897, Note_off_c, 9, 42, 64
2, 41908, Note_off_c, 9, 35, 64
2, 41958, Note_on_c, 9, 42, 127
2, 41988, Note_off_c, 9, 42, 64
2, 42048, Note_on_c, 9, 40, 127
2, 42049, Note_on_c, 9, 42, 127
2, 42081, Note_off_c, 9, 42, 64
2, 42084, Note_off_c, 9, 40, 64
2, 42142, Note_on_c, 9, 42, 127
2, 42148, Note_on_c, 9, 35, 127
2, 42172, Note_off_c, 9, 42, 64
2, 42182, Note_off_c, 9, 35, 64
2, 42238, Note_on_c, 9, 42, 127
2, 42240, Note_on_c, 9, 35, 127
2, 42265, Note_off_c, 9, 42, 64
2, 42289, Note_off_c, 9, 35, 64
2, 42332, Note_on_c, 9, 42, 127
2, 42363, Note_off_c, 9, 42, 64
2, 42427, Note_on_c, 9, 42, 127
2, 42441, Note_on_c, 9, 40, 127
2, 42459, Note_off_c, 9, 42, 64
2, 42475, Note_off_c, 9, 40, 64
2, 42528, Note_on_c, 9, 42, 127
2, 42529, Note_on_c, 9, 35, 127
2, 42553, Note_off_c, 9, 42, 64
2, 42558, Note_off_c, 9, 35, 64
2, 42619, Note_on_c, 9, 42, 127
2, 42630, Note_on_c, 9, 35, 127
2, 42649, Note_off_c, 9, 42, 64
2, 42681, Note_off_c, 9, 35, 64
2, 42718, Note_on_c, 9, 42, 127
2, 42748, Note_off_c, 9, 42, 64
2, 42816, Note_on_c, 9, 42, 127
2, 42825, Note_on_c, 9, 40, 127
2, 42844, Note_off_c, 9, 42, 64
2, 42860, Note_off_c, 9, 40, 64
2, 42916, Note_on_c, 9, 42, 127
2, 42924, Note_on_c, 9, 35, 127
2, 42944, Note_off_c, 9, 42, 64
2, 42952, Note_off_c, 9, 35, 64
2, 43014, Note_on_c, 9, 42, 127
2, 43022, Note_on_c, 9, 35, 127
2, 43044, Note_off_c, 9, 42, 64
2, 43068, Note_off_c, 9, 35, 64
2, 43113, Note_on_c, 9, 42, 127
2, 43137, Note_off_c, 9, 42, 64
2, 43212, Note_on_c, 9, 42, 127
2, 43214, Note_on_c, 9, 40, 127
2, 43243, Note_off_c, 9, 42, 64
2, 43251, Note_off_c, 9, 40, 64
2, 43307, Note_on_c, 9, 35, 127
2, 43313, Note_on_c, 9, 42, 127
2, 43337, Note_off_c, 9, 42, 64
2, 43337, Note_off_c, 9, 35, 64
2, 43400, Note_on_c, 9, 35, 127
2, 43404, Note_on_c, 9, 42, 127
2, 43436, Note_off_c, 9, 42, 64
2, 43449, Note_off_c, 9, 35, 64
2, 43497, Note_on_c, 9, 42, 127
2, 43524, Note_off_c, 9, 42, 64
2, 43593, Note_on_c, 9, 42, 127
2, 43595, Note_on_c, 9, 40, 127
2, 43620, Note_off_c, 9, 42, 64
2, 43632, Note_off_c, 9, 40, 64
2, 43684, Note_on_c, 9, 35, 127
2, 43689, Note_on_c, 9, 42, 127
2, 43715, Note_off_c, 9, 35, 64
2, 43718, Note_off_c, 9, 42, 64
2, 43780, Note_on_c, 9, 42, 127
2, 43785, Note_on_c, 9, 35, 127
2, 43809, Note_off_c, 9, 42, 64
2, 43840, Note_off_c, 9, 35, 64
2, 43875, Note_on_c, 9, 42, 127
2, 43899, Note_off_c, 9, 42, 64
2, 43969, Note_on_c, 9, 42, 127
2, 43976, Note_on_c, 9, 40, 127
2, 43996, Note_off_c, 9, 42, 64
2, 44008, Note_off_c, 9, 40, 64
2, 44070, Note_on_c, 9, 42, 127
2, 44072, Note_on_c, 9, 35, 127
2, 44096, Note_off_c, 9, 42, 64
2, 44105, Note_off_c, 9, 35, 64
2, 44161, Note_on_c, 9, 42, 127
2, 44168, Note_on_c, 9, 35, 127
2, 44188, Note_off_c, 9, 42, 64
2, 44225, Note_off_c, 9, 35, 64
2, 44252, Note_on_c, 9, 42, 127
2, 44281, Note_off_c, 9, 42, 64
2, 44344, Note_on_c, 9, 42, 127
2, 44358, Note_on_c, 9, 40, 127
2, 44372, Note_off_c, 9, 42, 64
2, 44396, Note_off_c, 9, 40, 64
2, 44441, Note_on_c, 9, 46, 127
2, 44443, Note_on_c, 9, 35, 127
2, 44470, Note_off_c, 9, 46, 64
2, 44476, Note_off_c, 9, 35, 64
2, 44529, Note_on_c, 9, 42, 127
2, 44547, Note_on_c, 9, 35, 127
2, 44558, Note_off_c, 9, 42, 64
2, 44596, Note_off_c, 9, 35, 64
2, 44627, Note_on_c, 9, 42, 127
2, 44652, Note_off_c, 9, 42, 64
2, 44724, Note_on_c, 9, 42, 127
2, 44731, Note_on_c, 9, 40, 127
2, 44753, Note_off_c, 9, 42, 64
2, 44763, Note_off_c, 9, 40, 64
2, 44825, Note_on_c, 9, 35, 127
2, 44827, Note_on_c, 9, 42, 127
2, 44854, Note_off_c, 9, 42, 64
2, 44854, Note_off_c, 9, 35, 64
2, 44921, Note_on_c, 9, 35, 127
2, 44923, Note_on_c, 9, 42, 127
2, 44952, Note_off_c, 9, 42, 64
2, 44963, Note_off_c, 9, 35, 64
2, 45020, Note_on_c, 9, 42, 127
2, 45046, Note_off_c, 9, 42, 64
2, 45115, Note_on_c, 9, 42, 127
2, 45129, Note_on_c, 9, 40, 127
2, 45145, Note_off_c, 9, 42, 64
2, 45163, Note_off_c, 9, 40, 64
2, 45217, Note_on_c, 9, 42, 127
2, 45220, Note_on_c, 9, 35, 127
2, 45246, Note_off_c, 9, 42, 64
2, 45249, Note_off_c, 9, 35, 64
2, 45312, Note_on_c, 9, 42, 127
2, 45321, Note_on_c, 9, 35, 127
2, 45342, Note_off_c, 9, 42, 64
2, 45369, Note_off_c, 9, 35, 64
2, 45406, Note_on_c, 9, 42, 127
2, 45435, Note_off_c, 9, 42, 64
2, 45497, Note_on_c, 9, 42, 127
2, 45513, Note_on_c, 9, 40, 127
2, 45528, Note_off_c, 9, 42, 64
2, 45545, Note_off_c, 9, 40, 64
2, 45593, Note_on_c, 9, 42, 127
2, 45601, Note_on_c, 9, 35, 127
2, 45622, Note_off_c, 9, 42, 64
2, 45632, Note_off_c, 9, 35, 64
2, 45686, Note_on_c, 9, 42, 127
2, 45704, Note_on_c, 9, 35, 127
2, 45720, Note_off_c, 9, 42, 64
2, 45750, Note_off_c, 9, 35, 64
2, 45784, Note_on_c, 9, 42, 127
2, 45814, Note_off_c, 9, 42, 64
2, 45883, Note_on_c, 9, 42, 127
2, 45894, Note_on_c, 9, 40, 127
2, 45912, Note_off_c, 9, 42, 64
2, 45926, Note_off_c, 9, 40, 64
2, 45982, Note_on_c, 9, 42, 127
2, 45987, Note_on_c, 9, 35, 127
2, 46009, Note_off_c, 9, 35, 64
2, 46011, Note_off_c, 9, 42, 64
2, 46081, Note_on_c, 9, 35, 127
2, 46081, Note_on_c, 9, 42, 127
2, 46113, Note_off_c, 9, 42, 64
2, 46134, Note_off_c, 9, 35, 64
2, 46179, Note_on_c, 9, 42, 127
2, 46206, Note_off_c, 9, 42, 64
2, 46276, Note_on_c, 9, 42, 127
2, 46280, Note_on_c, 9, 40, 127
2, 46305, Note_off_c, 9, 42, 64
2, 46316, Note_off_c, 9, 40, 64
2, 46369, Note_on_c, 9, 35, 127
2, 46372, Note_on_c, 9, 42, 127
2, 46400, Note_off_c, 9, 35, 64
2, 46401, Note_off_c, 9, 42, 64
2, 46468, Note_on_c, 9, 35, 127
2, 46470, Note_on_c, 9, 42, 127
2, 46500, Note_off_c, 9, 42, 64
2, 46520, Note_off_c, 9, 35, 64
2, 46566, Note_on_c, 9, 42, 127
2, 46595, Note_off_c, 9, 42, 64
2, 46660, Note_on_c, 9, 40, 127
2, 46660, Note_on_c, 9, 42, 127
2, 46691, Note_off_c, 9, 42, 64
2, 46696, Note_off_c, 9, 40, 64
2, 46747, Note_on_c, 9, 35, 127
2, 46752, Note_on_c, 9, 42, 127
2, 46777, Note_off_c, 9, 35, 64
2, 46782, Note_off_c, 9, 42, 64
2, 46846, Note_on_c, 9, 42, 127
2, 46849, Note_on_c, 9, 35, 127
2, 46876, Note_off_c, 9, 42, 64
2, 46896, Note_off_c, 9, 35, 64
2, 46940, Note_on_c, 9, 42, 127
2, 46971, Note_off_c, 9, 42, 64
2, 47035, Note_on_c, 9, 42, 127
2, 47043, Note_on_c, 9, 40, 127
2, 47067, Note_off_c, 9, 42, 64
2, 47078, Note_off_c, 9, 40, 64
2, 47134, Note_on_c, 9, 42, 127
2, 47137, Note_on_c, 9, 35, 127
2, 47163, Note_off_c, 9, 35, 64
2, 47166, Note_off_c, 9, 42, 64
2, 47225, Note_on_c, 9, 35, 127
2, 47232, Note_on_c, 9, 42, 127
2, 47260, Note_off_c, 9, 42, 64
2, 47272, Note_off_c, 9, 35, 64
2, 47326, Note_on_c, 9, 42, 127
2, 47358, Note_off_c, 9, 42, 64
2, 47417, Note_on_c, 9, 42, 127
2, 47422, Note_on_c, 9, 40, 127
2, 47446, Note_off_c, 9, 42, 64
2, 47456, Note_off_c, 9, 40, 64
2, 47507, Note_on_c, 9, 46, 127
2, 47508, Note_on_c, 9, 35, 127
2, 47536, Note_off_c, 9, 35, 64
2, 47539, Note_off_c, 9, 46, 64
2, 47600, Note_on_c, 9, 35, 127
2, 47601, Note_on_c, 9, 42, 127
2, 47632, Note_off_c, 9, 42, 64
2, 47648, Note_off_c, 9, 35, 64
2, 47705, Note_on_c, 9, 42, 127
2, 47734, Note_off_c, 9, 42, 64
2, 47806, Note_on_c, 9, 42, 127
2, 47817, Note_on_c, 9, 40, 127
2, 47838, Note_off_c, 9, 42, 64
2, 47851, Note_off_c, 9, 40, 64
2, 47910, Note_on_c, 9, 35, 127
2, 47913, Note_on_c, 9, 42, 127
2, 47939, Note_off_c, 9, 42, 64
2, 47939, Note_off_c, 9, 35, 64
2, 48008, Note_on_c, 9, 35, 127
2, 48008, Note_on_c, 9, 42, 127
2, 48036, Note_off_c, 9, 42, 64
2, 48051, Note_off_c, 9, 35, 64
2, 48107, Note_on_c, 9, 42, 127
2, 48136, Note_off_c, 9, 42, 64
2, 48196, Note_on_c, 9, 40, 127
2, 48200, Note_on_c, 9, 42, 127
2, 48230, Note_off_c, 9, 42, 64
2, 48230, Note_off_c, 9, 40, 64
2, 48276, Note_on_c, 9, 35, 127
2, 48292, Note_on_c, 9, 42, 127
2, 48307, Note_off_c, 9, 35, 64
2, 48323, Note_off_c, 9, 42, 64
2, 48376, Note_on_c, 9, 35, 127
2, 48384, Note_on_c, 9, 42, 127
2, 48417, Note_off_c, 9, 42, 64
2, 48424, Note_off_c, 9, 35, 64
2, 48481, Note_on_c, 9, 42, 127
2, 48512, Note_off_c, 9, 42, 64
2, 48576, Note_on_c, 9, 42, 127
2, 48577, Note_on_c, 9, 40, 127
2, 48604, Note_off_c, 9, 42, 64
2, 48614, Note_off_c, 9, 40, 64
2, 48667, Note_on_c, 9, 35, 127
2, 48667, Note_on_c, 9, 42, 127
2, 48696, Note_off_c, 9, 42, 64
2, 48696, Note_off_c, 9, 35, 64
2, 48761, Note_on_c, 9, 42, 127
2, 48764, Note_on_c, 9, 35, 127
2, 48790, Note_off_c, 9, 42, 64
2, 48812, Note_off_c, 9, 35, 64
2, 48856, Note_on_c, 9, 42, 127
2, 48884, Note_off_c, 9, 42, 64
2, 48952, Note_on_c, 9, 42, 127
2, 48963, Note_on_c, 9, 40, 127
2, 48980, Note_off_c, 9, 42, 64
2, 48998, Note_off_c, 9, 40, 64
2, 49049, Note_on_c, 9, 42, 127
2, 49051, Note_on_c, 9, 35, 127
2, 49078, Note_off_c, 9, 35, 64
2, 49078, Note_off_c, 9, 42, 64
2, 49147, Note_on_c, 9, 42, 127
2, 49153, Note_on_c, 9, 35, 127
2, 49179, Note_off_c, 9, 42, 64
2, 49208, Note_off_c, 9, 35, 64
2, 49243, Note_on_c, 9, 42, 127
2, 49272, Note_off_c, 9, 42, 64
2, 49340, Note_on_c, 9, 42, 127
2, 49347, Note_on_c, 9, 40, 127
2, 49372, Note_off_c, 9, 42, 64
2, 49380, Note_off_c, 9, 40, 64
2, 49438, Note_on_c, 9, 42, 127
2, 49440, Note_on_c, 9, 35, 127
2, 49465, Note_off_c, 9, 35, 64
2, 49465, Note_off_c, 9, 42, 64
2, 49532, Note_on_c, 9, 42, 127
2, 49536, Note_on_c, 9, 35, 127
2, 49564, Note_off_c, 9, 42, 64
2, 49584, Note_off_c, 9, 35, 64
2, 49633, Note_on_c, 9, 42, 127
2, 49662, Note_off_c, 9, 42, 64
2, 49726, Note_on_c, 9, 42, 127
2, 49731, Note_on_c, 9, 40, 127
2, 49755, Note_off_c, 9, 42, 64
2, 49764, Note_off_c, 9, 40, 64
2, 49817, Note_on_c, 9, 35, 127
2, 49827, Note_on_c, 9, 42, 127
2, 49849, Note_off_c, 9, 35, 64
2, 49856, Note_off_c, 9, 42, 64
2, 49923, Note_on_c, 9, 42, 127
2, 49928, Note_on_c, 9, 35, 127
2, 49955, Note_off_c, 9, 42, 64
2, 49977, Note_off_c, 9, 35, 64
2, 50019, Note_on_c, 9, 42, 127
2, 50051, Note_off_c, 9, 42, 64
2, 50115, Note_on_c, 9, 42, 127
2, 50120, Note_on_c, 9, 40, 127
2, 50145, Note_off_c, 9, 42, 64
2, 50155, Note_off_c, 9, 40, 64
2, 50206, Note_on_c, 9, 35, 127
2, 50211, Note_on_c, 9, 42, 127
2, 50235, Note_off_c, 9, 35, 64
2, 50240, Note_off_c, 9, 42, 64
2, 50305, Note_on_c, 9, 42, 127
2, 50312, Note_on_c, 9, 35, 127
2, 50336, Note_off_c, 9, 42, 64
2, 50366, Note_off_c, 9, 35, 64
2, 50398, Note_on_c, 9, 42, 127
2, 50428, Note_off_c, 9, 42, 64
2, 50491, Note_on_c, 9, 42, 127
2, 50502, Note_on_c, 9, 40, 127
2, 50523, Note_off_c, 9, 42, 64
2, 50536, Note_off_c, 9, 40, 64
2, 50580, Note_on_c, 9, 46, 127
2, 50585, Note_on_c, 9, 35, 127
2, 50611, Note_off_c, 9, 35, 64
2, 50614, Note_off_c, 9, 46, 64
2, 50676, Note_on_c, 9, 42, 127
2, 50680, Note_on_c, 9, 35, 127
2, 50707, Note_off_c, 9, 42, 64
2, 50721, Note_off_c, 9, 35, 64
2, 50777, Note_on_c, 9, 42, 127
2, 50806, Note_off_c, 9, 42, 64
2, 50878, Note_on_c, 9, 42, 127
2, 50889, Note_on_c, 9, 40, 127
2, 50908, Note_off_c, 9, 42, 64
2, 50923, Note_off_c, 9, 40, 64
2, 50969, Note_on_c, 9, 35, 127
2, 50988, Note_on_c, 9, 42, 127
2, 50995, Note_off_c, 9, 35, 64
2, 51016, Note_off_c, 9, 42, 64
2, 51078, Note_on_c, 9, 42, 127
2, 51080, Note_on_c, 9, 35, 127
2, 51107, Note_off_c, 9, 42, 64
2, 51123, Note_off_c, 9, 35, 64
2, 51171, Note_on_c, 9, 42, 127
2, 51200, Note_off_c, 9, 42, 64
2, 51262, Note_on_c, 9, 42, 127
2, 51270, Note_on_c, 9, 40, 127
2, 51294, Note_off_c, 9, 42, 64
2, 51305, Note_off_c, 9, 40, 64
2, 51355, Note_on_c, 9, 42, 127
2, 51356, Note_on_c, 9, 35, 127
2, 51385, Note_off_c, 9, 42, 64
2, 51392, Note_off_c, 9, 35, 64
2, 51446, Note_on_c, 9, 42, 127
2, 51452, Note_on_c, 9, 35, 127
2, 51481, Note_off_c, 9, 42, 64
2, 51504, Note_off_c, 9, 35, 64
2, 51539, Note_on_c, 9, 42, 127
2, 51568, Note_off_c, 9, 42, 64
2, 51633, Note_on_c, 9, 42, 127
2, 51648, Note_on_c, 9, 40, 127
2, 51667, Note_off_c, 9, 42, 64
2, 51680, Note_off_c, 9, 40, 64
2, 51729, Note_on_c, 9, 42, 127
2, 51736, Note_on_c, 9, 35, 127
2, 51760, Note_off_c, 9, 42, 64
2, 51768, Note_off_c, 9, 35, 64
2, 51825, Note_on_c, 9, 42, 127
2, 51841, Note_on_c, 9, 35, 127
2, 51857, Note_off_c, 9, 42, 64
2, 51883, Note_off_c, 9, 35, 64
2, 51926, Note_on_c, 9, 42, 127
2, 51958, Note_off_c, 9, 42, 64
2, 52025, Note_on_c, 9, 42, 127
2, 52038, Note_on_c, 9, 40, 127
2, 52057, Note_off_c, 9, 42, 64
2, 52073, Note_off_c, 9, 40, 64
2, 52110, Note_on_c, 9, 35, 127
2, 52128, Note_on_c, 9, 42, 127
2, 52137, Note_off_c, 9, 35, 64
2, 52153, Note_off_c, 9, 42, 64
2, 52219, Note_on_c, 9, 35, 127
2, 52220, Note_on_c, 9, 42, 127
2, 52251, Note_off_c, 9, 42, 64
2, 52268, Note_off_c, 9, 35, 64
2, 52316, Note_on_c, 9, 42, 127
2, 52345, Note_off_c, 9, 42, 64
2, 52416, Note_on_c, 9, 42, 127
2, 52417, Note_on_c, 9, 40, 127
2, 52448, Note_off_c, 9, 42, 64
2, 52451, Note_off_c, 9, 40, 64
2, 52500, Note_on_c, 9, 35, 127
2, 52515, Note_on_c, 9, 42, 127
2, 52526, Note_off_c, 9, 35, 64
2, 52544, Note_off_c, 9, 42, 64
2, 52609, Note_on_c, 9, 35, 127
2, 52609, Note_on_c, 9, 42, 127
2, 52638, Note_off_c, 9, 42, 64
2, 52664, Note_off_c, 9, 35, 64
2, 52702, Note_on_c, 9, 42, 127
2, 52732, Note_off_c, 9, 42, 64
2, 52796, Note_on_c, 9, 42, 127
2, 52800, Note_on_c, 9, 40, 127
2, 52828, Note_off_c, 9, 42, 64
2, 52836, Note_off_c, 9, 40, 64
2, 52894, Note_on_c, 9, 35, 127
2, 52894, Note_on_c, 9, 42, 127
2, 52905, Note_off_c, 9, 35, 64
2, 52921, Note_off_c, 9, 42, 64
2, 52987, Note_on_c, 9, 42, 127
2, 52988, Note_on_c, 9, 35, 127
2, 52993, Note_on_c, 9, 42, 127
2, 53016, Note_off_c, 9, 42, 64
2, 53028, Note_off_c, 9, 42, 64
2, 53041, Note_off_c, 9, 35, 64
2, 53078, Note_on_c, 9, 42, 127
2, 53084, Note_on_c, 9, 42, 127
2, 53108, Note_off_c, 9, 42, 64
2, 53116, Note_off_c, 9, 42, 64
2, 53176, Note_on_c, 9, 42, 127
2, 53177, Note_on_c, 9, 42, 127
2, 53180, Note_on_c, 9, 40, 127
2, 53208, Note_off_c, 9, 42, 64
2, 53208, Note_off_c, 9, 42, 64
2, 53217, Note_off_c, 9, 40, 64
2, 53272, Note_on_c, 9, 35, 127
2, 53272, Note_on_c, 9, 42, 127
2, 53275, Note_on_c, 9, 42, 127
2, 53299, Note_off_c, 9, 35, 64
2, 53300, Note_off_c, 9, 42, 64
2, 53304, Note_off_c, 9, 42, 64
2, 53366, Note_on_c, 9, 42, 127
2, 53366, Note_on_c, 9, 42, 127
2, 53371, Note_on_c, 9, 35, 127
2, 53396, Note_off_c, 9, 35, 64
2, 53396, Note_off_c, 9, 42, 64
2, 53396, Note_off_c, 9, 42, 64
2, 53460, Note_on_c, 9, 42, 127
2, 53465, Note_on_c, 9, 40, 127
2, 53465, Note_on_c, 9, 42, 127
2, 53488, Note_off_c, 9, 40, 64
2, 53489, Note_off_c, 9, 42, 64
2, 53492, Note_off_c, 9, 42, 64
2, 53556, Note_on_c, 9, 42, 127
2, 53560, Note_on_c, 9, 42, 127
2, 53564, Note_on_c, 9, 40, 127
2, 53582, Note_off_c, 9, 42, 64
2, 53587, Note_off_c, 9, 42, 64
2, 53595, Note_off_c, 9, 40, 64
2, 53651, Note_on_c, 9, 42, 127
2, 53651, Note_on_c, 9, 35, 127
2, 53681, Note_off_c, 9, 42, 64
2, 53686, Note_off_c, 9, 35, 64
2, 53745, Note_on_c, 9, 35, 127
2, 53745, Note_on_c, 9, 35, 127
2, 53745, Note_on_c, 9, 49, 127
2, 53747, Note_on_c, 9, 46, 127
2, 53769, Note_off_c, 9, 35, 64
2, 53776, Note_off_c, 9, 49, 64
2, 53776, Note_off_c, 9, 46, 64
2, 53803, Note_off_c, 9, 35, 64
2, 53844, Note_on_c, 9, 46, 127
2, 53873, Note_off_c, 9, 46, 64
2, 53944, Note_on_c, 9, 46, 127
2, 53960, Note_on_c, 9, 40, 127
2, 53974, Note_off_c, 9, 46, 64
2, 53996, Note_off_c, 9, 40, 64
2, 54043, Note_on_c, 9, 46, 127
2, 54044, Note_on_c, 9, 35, 127
2, 54070, Note_off_c, 9, 46, 64
2, 54075, Note_off_c, 9, 35, 64
2, 54140, Note_on_c, 9, 46, 127
2, 54142, Note_on_c, 9, 35, 127
2, 54171, Note_off_c, 9, 46, 64
2, 54188, Note_off_c, 9, 35, 64
2, 54240, Note_on_c, 9, 46, 127
2, 54267, Note_off_c, 9, 46, 64
2, 54339, Note_on_c, 9, 40, 127
2, 54340, Note_on_c, 9, 46, 127
2, 54366, Note_off_c, 9, 46, 64
2, 54372, Note_off_c, 9, 40, 64
2, 54433, Note_on_c, 9, 35, 127
2, 54433, Note_on_c, 9, 46, 127
2, 54460, Note_off_c, 9, 46, 64
2, 54465, Note_off_c, 9, 35, 64
2, 54528, Note_on_c, 9, 35, 127
2, 54529, Note_on_c, 9, 46, 127
2, 54556, Note_off_c, 9, 46, 64
2, 54569, Note_off_c, 9, 35, 64
2, 54620, Note_on_c, 9, 46, 127
2, 54649, Note_off_c, 9, 46, 64
2, 54715, Note_on_c, 9, 40, 127
2, 54718, Note_on_c, 9, 46, 127
2, 54745, Note_off_c, 9, 46, 64
2, 54750, Note_off_c, 9, 40, 64
2, 54803, Note_on_c, 9, 35, 127
2, 54803, Note_on_c, 9, 46, 127
2, 54833, Note_off_c, 9, 46, 64
2, 54835, Note_off_c, 9, 35, 64
2, 54896, Note_on_c, 9, 35, 127
2, 54900, Note_on_c, 9, 46, 127
2, 54929, Note_off_c, 9, 46, 64
2, 54944, Note_off_c, 9, 35, 64
2, 54995, Note_on_c, 9, 46, 127
2, 55022, Note_off_c, 9, 46, 64
2, 55099, Note_on_c, 9, 46, 127
2, 55105, Note_on_c, 9, 40, 127
2, 55126, Note_off_c, 9, 46, 64
2, 55139, Note_off_c, 9, 40, 64
2, 55195, Note_on_c, 9, 46, 127
2, 55203, Note_on_c, 9, 35, 127
2, 55224, Note_off_c, 9, 46, 64
2, 55232, Note_off_c, 9, 35, 64
2, 55296, Note_on_c, 9, 46, 127
2, 55299, Note_on_c, 9, 35, 127
2, 55299, Note_on_c, 9, 49, 127
2, 55326, Note_off_c, 9, 46, 64
2, 55344, Note_off_c, 9, 35, 64
2, 55344, Note_off_c, 9, 49, 64
2, 55395, Note_on_c, 9, 46, 127
2, 55424, Note_off_c, 9, 46, 64
2, 55492, Note_on_c, 9, 46, 127
2, 55497, Note_on_c, 9, 40, 127
2, 55523, Note_off_c, 9, 46, 64
2, 55534, Note_off_c, 9, 40, 64
2, 55592, Note_on_c, 9, 35, 127
2, 55592, Note_on_c, 9, 46, 127
2, 55619, Note_off_c, 9, 46, 64
2, 55622, Note_off_c, 9, 35, 64
2, 55684, Note_on_c, 9, 35, 127
2, 55691, Note_on_c, 9, 46, 127
2, 55718, Note_off_c, 9, 46, 64
2, 55731, Note_off_c, 9, 35, 64
2, 55785, Note_on_c, 9, 46, 127
2, 55814, Note_off_c, 9, 46, 64
2, 55880, Note_on_c, 9, 46, 127
2, 55886, Note_on_c, 9, 40, 127
2, 55908, Note_off_c, 9, 46, 64
2, 55923, Note_off_c, 9, 40, 64
2, 55974, Note_on_c, 9, 35, 127
2, 55976, Note_on_c, 9, 46, 127
2, 56003, Note_off_c, 9, 46, 64
2, 56009, Note_off_c, 9, 35, 64
2, 56073, Note_on_c, 9, 35, 127
2, 56073, Note_on_c, 9, 46, 127
2, 56100, Note_off_c, 9, 46, 64
2, 56123, Note_off_c, 9, 35, 64
2, 56169, Note_on_c, 9, 46, 127
2, 56196, Note_off_c, 9, 46, 64
2, 56264, Note_on_c, 9, 46, 127
2, 56267, Note_on_c, 9, 40, 127
2, 56291, Note_off_c, 9, 46, 64
2, 56302, Note_off_c, 9, 40, 64
2, 56360, Note_on_c, 9, 35, 127
2, 56360, Note_on_c, 9, 46, 127
2, 56388, Note_off_c, 9, 35, 64
2, 56390, Note_off_c, 9, 46, 64
2, 56456, Note_on_c, 9, 35, 127
2, 56462, Note_on_c, 9, 46, 127
2, 56491, Note_off_c, 9, 46, 64
2, 56505, Note_off_c, 9, 35, 64
2, 56552, Note_on_c, 9, 46, 127
2, 56579, Note_off_c, 9, 46, 64
2, 56640, Note_on_c, 9, 40, 127
2, 56646, Note_on_c, 9, 46, 127
2, 56675, Note_off_c, 9, 40, 64
2, 56676, Note_off_c, 9, 46, 64
2, 56732, Note_on_c, 9, 35, 127
2, 56739, Note_on_c, 9, 46, 127
2, 56766, Note_off_c, 9, 35, 64
2, 56768, Note_off_c, 9, 46, 64
2, 56830, Note_on_c, 9, 35, 127
2, 56830, Note_on_c, 9, 49, 127
2, 56835, Note_on_c, 9, 46, 127
2, 56865, Note_off_c, 9, 46, 64
2, 56886, Note_off_c, 9, 35, 64
2, 56892, Note_off_c, 9, 49, 64
2, 56931, Note_on_c, 9, 46, 127
2, 56960, Note_off_c, 9, 46, 64
2, 57028, Note_on_c, 9, 46, 127
2, 57035, Note_on_c, 9, 40, 127
2, 57059, Note_off_c, 9, 46, 64
2, 57067, Note_off_c, 9, 40, 64
2, 57128, Note_on_c, 9, 35, 127
2, 57131, Note_on_c, 9, 46, 127
2, 57155, Note_off_c, 9, 35, 64
2, 57161, Note_off_c, 9, 46, 64
2, 57225, Note_on_c, 9, 46, 127
2, 57230, Note_on_c, 9, 35, 127
2, 57256, Note_off_c, 9, 46, 64
2, 57280, Note_off_c, 9, 35, 64
2, 57321, Note_on_c, 9, 46, 127
2, 57350, Note_off_c, 9, 46, 64
2, 57414, Note_on_c, 9, 46, 127
2, 57417, Note_on_c, 9, 40, 127
2, 57446, Note_off_c, 9, 46, 64
2, 57454, Note_off_c, 9, 40, 64
2, 57505, Note_on_c, 9, 35, 127
2, 57510, Note_on_c, 9, 46, 127
2, 57539, Note_off_c, 9, 35, 64
2, 57540, Note_off_c, 9, 46, 64
2, 57603, Note_on_c, 9, 46, 127
2, 57608, Note_on_c, 9, 35, 127
2, 57632, Note_off_c, 9, 46, 64
2, 57651, Note_off_c, 9, 35, 64
2, 57696, Note_on_c, 9, 46, 127
2, 57724, Note_off_c, 9, 46, 64
2, 57790, Note_on_c, 9, 46, 127
2, 57800, Note_on_c, 9, 40, 127
2, 57819, Note_off_c, 9, 46, 64
2, 57833, Note_off_c, 9, 40, 64
2, 57886, Note_on_c, 9, 46, 127
2, 57888, Note_on_c, 9, 35, 127
2, 57913, Note_off_c, 9, 46, 64
2, 57918, Note_off_c, 9, 35, 64
2, 57984, Note_on_c, 9, 46, 127
2, 57987, Note_on_c, 9, 35, 127
2, 58016, Note_off_c, 9, 46, 64
2, 58041, Note_off_c, 9, 35, 64
2, 58080, Note_on_c, 9, 46, 127
2, 58110, Note_off_c, 9, 46, 64
2, 58174, Note_on_c, 9, 46, 127
2, 58177, Note_on_c, 9, 40, 127
2, 58200, Note_off_c, 9, 40, 64
2, 58203, Note_off_c, 9, 46, 64
2, 58267, Note_on_c, 9, 40, 127
2, 58270, Note_on_c, 9, 46, 127
2, 58281, Note_off_c, 9, 40, 64
2, 58300, Note_off_c, 9, 46, 64
2, 58310, Note_on_c, 9, 40, 127
2, 58337, Note_off_c, 9, 40, 64
2, 58344, Note_on_c, 9, 49, 127
2, 58364, Note_on_c, 9, 46, 127
2, 58366, Note_on_c, 9, 35, 127
2, 58396, Note_off_c, 9, 49, 64
2, 58398, Note_off_c, 9, 46, 64
2, 58419, Note_off_c, 9, 35, 64
2, 58462, Note_on_c, 9, 46, 127
2, 58491, Note_off_c, 9, 46, 64
2, 58560, Note_on_c, 9, 40, 127
2, 58561, Note_on_c, 9, 46, 127
2, 58590, Note_off_c, 9, 46, 64
2, 58593, Note_off_c, 9, 40, 64
2, 58649, Note_on_c, 9, 35, 127
2, 58652, Note_on_c, 9, 46, 127
2, 58678, Note_off_c, 9, 35, 64
2, 58680, Note_off_c, 9, 46, 64
2, 58748, Note_on_c, 9, 35, 127
2, 58752, Note_on_c, 9, 46, 127
2, 58779, Note_off_c, 9, 46, 64
2, 58800, Note_off_c, 9, 35, 64
2, 58849, Note_on_c, 9, 46, 127
2, 58875, Note_off_c, 9, 46, 64
2, 58945, Note_on_c, 9, 40, 127
2, 58947, Note_on_c, 9, 46, 127
2, 58976, Note_off_c, 9, 46, 64
2, 58977, Note_off_c, 9, 40, 64
2, 59033, Note_on_c, 9, 35, 127
2, 59041, Note_on_c, 9, 46, 127
2, 59065, Note_off_c, 9, 35, 64
2, 59070, Note_off_c, 9, 46, 64
2, 59131, Note_on_c, 9, 35, 127
2, 59140, Note_on_c, 9, 46, 127
2, 59168, Note_off_c, 9, 46, 64
2, 59177, Note_off_c, 9, 35, 64
2, 59235, Note_on_c, 9, 46, 127
2, 59262, Note_off_c, 9, 46, 64
2, 59328, Note_on_c, 9, 40, 127
2, 59331, Note_on_c, 9, 46, 127
2, 59356, Note_off_c, 9, 46, 64
2, 59369, Note_off_c, 9, 40, 64
2, 59417, Note_on_c, 9, 35, 127
2, 59424, Note_on_c, 9, 46, 127
2, 59449, Note_off_c, 9, 46, 64
2, 59456, Note_off_c, 9, 35, 64
2, 59520, Note_on_c, 9, 40, 127
2, 59520, Note_on_c, 9, 46, 127
2, 59548, Note_off_c, 9, 46, 64
2, 59555, Note_off_c, 9, 40, 64
2, 59612, Note_on_c, 9, 46, 127
2, 59614, Note_on_c, 9, 35, 127
2, 59640, Note_off_c, 9, 46, 64
2, 59644, Note_off_c, 9, 35, 64
2, 59708, Note_on_c, 9, 46, 127
2, 59713, Note_on_c, 9, 43, 127
2, 59739, Note_off_c, 9, 46, 64
2, 59753, Note_off_c, 9, 43, 64
2, 59803, Note_on_c, 9, 35, 127
2, 59804, Note_on_c, 9, 46, 127
2, 59828, Note_off_c, 9, 35, 64
2, 59835, Note_off_c, 9, 46, 64
2, 59897, Note_on_c, 9, 49, 127
2, 59900, Note_on_c, 9, 46, 127
2, 59910, Note_on_c, 9, 35, 127
2, 59932, Note_off_c, 9, 46, 64
2, 59940, Note_off_c, 9, 49, 64
2, 59953, Note_off_c, 9, 35, 64
2, 59995, Note_on_c, 9, 46, 127
2, 60030, Note_off_c, 9, 46, 64
2, 60096, Note_on_c, 9, 46, 127
2, 60104, Note_on_c, 9, 40, 127
2, 60129, Note_off_c, 9, 46, 64
2, 60134, Note_off_c, 9, 40, 64
2, 60196, Note_on_c, 9, 46, 127
2, 60201, Note_on_c, 9, 35, 127
2, 60227, Note_off_c, 9, 35, 64
2, 60228, Note_off_c, 9, 46, 64
2, 60294, Note_on_c, 9, 35, 127
2, 60296, Note_on_c, 9, 46, 127
2, 60329, Note_off_c, 9, 46, 64
2, 60331, Note_off_c, 9, 35, 64
2, 60388, Note_on_c, 9, 46, 127
2, 60420, Note_off_c, 9, 46, 64
2, 60486, Note_on_c, 9, 46, 127
2, 60488, Note_on_c, 9, 40, 127
2, 60518, Note_off_c, 9, 46, 64
2, 60520, Note_off_c, 9, 40, 64
2, 60576, Note_on_c, 9, 35, 127
2, 60582, Note_on_c, 9, 46, 127
2, 60603, Note_off_c, 9, 35, 64
2, 60608, Note_off_c, 9, 46, 64
2, 60667, Note_on_c, 9, 35, 127
2, 60680, Note_on_c, 9, 46, 127
2, 60707, Note_off_c, 9, 35, 64
2, 60713, Note_off_c, 9, 46, 64
2, 60772, Note_on_c, 9, 46, 127
2, 60801, Note_off_c, 9, 46, 64
2, 60867, Note_on_c, 9, 40, 127
2, 60868, Note_on_c, 9, 46, 127
2, 60899, Note_off_c, 9, 40, 64
2, 60902, Note_off_c, 9, 46, 64
2, 60955, Note_on_c, 9, 35, 127
2, 60961, Note_on_c, 9, 46, 127
2, 60979, Note_off_c, 9, 35, 64
2, 60990, Note_off_c, 9, 46, 64
2, 61048, Note_on_c, 9, 35, 127
2, 61052, Note_on_c, 9, 46, 127
2, 61081, Note_off_c, 9, 35, 64
2, 61084, Note_off_c, 9, 46, 64
2, 61142, Note_on_c, 9, 40, 127
2, 61147, Note_on_c, 9, 46, 127
2, 61161, Note_off_c, 9, 40, 64
2, 61176, Note_off_c, 9, 46, 64
2, 61238, Note_on_c, 9, 46, 127
2, 61240, Note_on_c, 9, 40, 127
2, 61267, Note_off_c, 9, 46, 64
2, 61272, Note_off_c, 9, 40, 64
2, 61332, Note_on_c, 9, 46, 127
2, 61361, Note_off_c, 9, 46, 64
2, 61414, Note_on_c, 9, 49, 127
2, 61422, Note_on_c, 9, 46, 127
2, 61428, Note_on_c, 9, 35, 127
2, 61456, Note_off_c, 9, 46, 64
2, 61460, Note_off_c, 9, 49, 64
2, 61467, Note_off_c, 9, 35, 64
2, 61518, Note_on_c, 9, 46, 127
2, 61550, Note_off_c, 9, 46, 64
2, 61612, Note_on_c, 9, 46, 127
2, 61627, Note_on_c, 9, 40, 127
2, 61644, Note_off_c, 9, 46, 64
2, 61656, Note_off_c, 9, 40, 64
2, 61713, Note_on_c, 9, 46, 127
2, 61724, Note_on_c, 9, 35, 127
2, 61745, Note_off_c, 9, 46, 64
2, 61748, Note_off_c, 9, 35, 64
2, 61814, Note_on_c, 9, 46, 127
2, 61817, Note_on_c, 9, 35, 127
2, 61841, Note_off_c, 9, 46, 64
2, 61849, Note_off_c, 9, 35, 64
2, 61913, Note_on_c, 9, 46, 127
2, 61942, Note_off_c, 9, 46, 64
2, 62011, Note_on_c, 9, 46, 127
2, 62012, Note_on_c, 9, 40, 127
2, 62040, Note_off_c, 9, 46, 64
2, 62046, Note_off_c, 9, 40, 64
2, 62107, Note_on_c, 9, 35, 127
2, 62108, Note_on_c, 9, 46, 127
2, 62137, Note_off_c, 9, 46, 64
2, 62137, Note_off_c, 9, 35, 64
2, 62198, Note_on_c, 9, 35, 127
2, 62208, Note_on_c, 9, 46, 127
2, 62235, Note_off_c, 9, 46, 64
2, 62244, Note_off_c, 9, 35, 64
2, 62302, Note_on_c, 9, 46, 127
2, 62329, Note_off_c, 9, 46, 64
2, 62396, Note_on_c, 9, 40, 127
2, 62396, Note_on_c, 9, 46, 127
2, 62424, Note_off_c, 9, 46, 64
2, 62428, Note_off_c, 9, 40, 64
2, 62486, Note_on_c, 9, 35, 127
2, 62491, Note_on_c, 9, 46, 127
2, 62513, Note_off_c, 9, 35, 64
2, 62518, Note_off_c, 9, 46, 64
2, 62576, Note_on_c, 9, 35, 127
2, 62584, Note_on_c, 9, 46, 127
2, 62614, Note_off_c, 9, 46, 64
2, 62617, Note_off_c, 9, 35, 64
2, 62676, Note_on_c, 9, 46, 127
2, 62704, Note_off_c, 9, 46, 64
2, 62769, Note_on_c, 9, 46, 127
2, 62776, Note_on_c, 9, 40, 127
2, 62795, Note_off_c, 9, 40, 64
2, 62795, Note_off_c, 9, 46, 64
2, 62865, Note_on_c, 9, 40, 127
2, 62865, Note_on_c, 9, 46, 127
2, 62880, Note_off_c, 9, 46, 64
2, 62880, Note_off_c, 9, 40, 64
2, 62905, Note_on_c, 9, 40, 127
2, 62923, Note_off_c, 9, 40, 64
2, 62963, Note_on_c, 9, 46, 127
2, 62969, Note_on_c, 9, 35, 127
2, 62998, Note_off_c, 9, 46, 64
2, 63019, Note_off_c, 9, 35, 64
2, 63056, Note_on_c, 9, 46, 127
2, 63092, Note_off_c, 9, 46, 64
2, 63153, Note_on_c, 9, 46, 127
2, 63171, Note_on_c, 9, 40, 127
2, 63190, Note_off_c, 9, 46, 64
2, 63206, Note_off_c, 9, 40, 64
2, 63257, Note_on_c, 9, 46, 127
2, 63262, Note_on_c, 9, 35, 127
2, 63289, Note_off_c, 9, 35, 64
2, 63292, Note_off_c, 9, 46, 64
2, 63353, Note_on_c, 9, 46, 127
2, 63356, Note_on_c, 9, 35, 127
2, 63387, Note_off_c, 9, 46, 64
2, 63401, Note_off_c, 9, 35, 64
2, 63449, Note_on_c, 9, 46, 127
2, 63481, Note_off_c, 9, 46, 64
2, 63550, Note_on_c, 9, 46, 127
2, 63552, Note_on_c, 9, 40, 127
2, 63576, Note_off_c, 9, 46, 64
2, 63584, Note_off_c, 9, 40, 64
2, 63641, Note_on_c, 9, 46, 127
2, 63644, Note_on_c, 9, 35, 127
2, 63670, Note_off_c, 9, 46, 64
2, 63675, Note_off_c, 9, 35, 64
2, 63734, Note_on_c, 9, 46, 127
2, 63740, Note_on_c, 9, 35, 127
2, 63763, Note_off_c, 9, 46, 64
2, 63785, Note_off_c, 9, 35, 64
2, 63830, Note_on_c, 9, 46, 127
2, 63856, Note_off_c, 9, 46, 64
2, 63924, Note_on_c, 9, 46, 127
2, 63942, Note_on_c, 9, 40, 127
2, 63953, Note_off_c, 9, 46, 64
2, 63976, Note_off_c, 9, 40, 64
2, 64019, Note_on_c, 9, 46, 127
2, 64028, Note_on_c, 9, 35, 127
2, 64052, Note_off_c, 9, 46, 64
2, 64059, Note_off_c, 9, 35, 64
2, 64118, Note_on_c, 9, 46, 127
2, 64126, Note_on_c, 9, 35, 127
2, 64150, Note_off_c, 9, 46, 64
2, 64172, Note_off_c, 9, 35, 64
2, 64214, Note_on_c, 9, 46, 127
2, 64248, Note_off_c, 9, 46, 64
2, 64310, Note_on_c, 9, 46, 127
2, 64320, Note_on_c, 9, 40, 127
2, 64342, Note_off_c, 9, 46, 64
2, 64350, Note_off_c, 9, 40, 64
2, 64408, Note_on_c, 9, 46, 127
2, 64436, Note_off_c, 9, 46, 64
2, 64504, Note_on_c, 9, 46, 127
2, 64508, Note_on_c, 9, 35, 127
2, 64537, Note_off_c, 9, 46, 64
2, 64545, Note_off_c, 9, 35, 64
2, 64596, Note_on_c, 9, 46, 127
2, 64630, Note_off_c, 9, 46, 64
2, 64694, Note_on_c, 9, 46, 127
2, 64699, Note_on_c, 9, 40, 127
2, 64728, Note_off_c, 9, 46, 64
2, 64731, Note_off_c, 9, 40, 64
2, 64787, Note_on_c, 9, 35, 127
2, 64788, Note_on_c, 9, 46, 127
2, 64812, Note_off_c, 9, 35, 64
2, 64819, Note_off_c, 9, 46, 64
2, 64883, Note_on_c, 9, 35, 127
2, 64884, Note_on_c, 9, 46, 127
2, 64912, Note_off_c, 9, 46, 64
2, 64920, Note_off_c, 9, 35, 64
2, 64976, Note_on_c, 9, 46, 127
2, 65004, Note_off_c, 9, 46, 64
2, 65073, Note_on_c, 9, 46, 127
2, 65089, Note_on_c, 9, 40, 127
2, 65104, Note_off_c, 9, 46, 64
2, 65121, Note_off_c, 9, 40, 64
2, 65174, Note_on_c, 9, 35, 127
2, 65174, Note_on_c, 9, 46, 127
2, 65203, Note_off_c, 9, 35, 64
2, 65206, Note_off_c, 9, 46, 64
2, 65273, Note_on_c, 9, 46, 127
2, 65281, Note_on_c, 9, 35, 127
2, 65302, Note_off_c, 9, 46, 64
2, 65323, Note_off_c, 9, 35, 64
2, 65369, Note_on_c, 9, 46, 127
2, 65398, Note_off_c, 9, 46, 64
2, 65462, Note_on_c, 9, 46, 127
2, 65472, Note_on_c, 9, 40, 127
2, 65492, Note_off_c, 9, 46, 64
2, 65504, Note_off_c, 9, 40, 64
2, 65556, Note_on_c, 9, 46, 127
2, 65568, Note_on_c, 9, 35, 127
2, 65588, Note_off_c, 9, 46, 64
2, 65596, Note_off_c, 9, 35, 64
2, 65652, Note_on_c, 9, 46, 127
2, 65660, Note_on_c, 9, 35, 127
2, 65683, Note_off_c, 9, 46, 64
2, 65708, Note_off_c, 9, 35, 64
2, 65748, Note_on_c, 9, 46, 127
2, 65779, Note_off_c, 9, 46, 64
2, 65848, Note_on_c, 9, 46, 127
2, 65852, Note_on_c, 9, 40, 127
2, 65880, Note_off_c, 9, 46, 64
2, 65886, Note_off_c, 9, 40, 64
2, 65942, Note_on_c, 9, 35, 127
2, 65944, Note_on_c, 9, 46, 127
2, 65971, Note_off_c, 9, 35, 64
2, 65974, Note_off_c, 9, 46, 64
2, 66035, Note_on_c, 9, 46, 127
2, 66035, Note_on_c, 9, 49, 127
2, 66044, Note_on_c, 9, 35, 127
2, 66067, Note_off_c, 9, 49, 64
2, 66067, Note_off_c, 9, 46, 64
2, 66091, Note_off_c, 9, 35, 64
2, 66129, Note_on_c, 9, 46, 127
2, 66164, Note_off_c, 9, 46, 64
2, 66225, Note_on_c, 9, 46, 127
2, 66233, Note_on_c, 9, 40, 127
2, 66264, Note_off_c, 9, 46, 64
2, 66268, Note_off_c, 9, 40, 64
2, 66324, Note_on_c, 9, 46, 127
2, 66326, Note_on_c, 9, 35, 127
2, 66356, Note_off_c, 9, 35, 64
2, 66361, Note_off_c, 9, 46, 64
2, 66422, Note_on_c, 9, 46, 127
2, 66425, Note_on_c, 9, 35, 127
2, 66454, Note_off_c, 9, 46, 64
2, 66475, Note_off_c, 9, 35, 64
2, 66512, Note_on_c, 9, 46, 127
2, 66544, Note_off_c, 9, 46, 64
2, 66611, Note_on_c, 9, 46, 127
2, 66619, Note_on_c, 9, 40, 127
2, 66646, Note_off_c, 9, 46, 64
2, 66654, Note_off_c, 9, 40, 64
2, 66710, Note_on_c, 9, 46, 127
2, 66715, Note_on_c, 9, 35, 127
2, 66739, Note_off_c, 9, 46, 64
2, 66747, Note_off_c, 9, 35, 64
2, 66801, Note_on_c, 9, 46, 127
2, 66808, Note_on_c, 9, 35, 127
2, 66832, Note_off_c, 9, 46, 64
2, 66856, Note_off_c, 9, 35, 64
2, 66892, Note_on_c, 9, 46, 127
2, 66924, Note_off_c, 9, 46, 64
2, 66992, Note_on_c, 9, 46, 127
2, 67024, Note_off_c, 9, 46, 64
2, 67024, Note_on_c, 9, 40, 127
2, 67052, Note_off_c, 9, 40, 64
2, 67092, Note_on_c, 9, 46, 127
2, 67110, Note_on_c, 9, 35, 127
2, 67121, Note_off_c, 9, 46, 64
2, 67142, Note_off_c, 9, 35, 64
2, 67195, Note_on_c, 9, 46, 127
2, 67209, Note_on_c, 9, 35, 127
2, 67225, Note_off_c, 9, 46, 64
2, 67260, Note_off_c, 9, 35, 64
2, 67291, Note_on_c, 9, 46, 127
2, 67318, Note_off_c, 9, 46, 64
2, 67393, Note_on_c, 9, 46, 127
2, 67396, Note_on_c, 9, 40, 127
2, 67422, Note_off_c, 9, 46, 64
2, 67432, Note_off_c, 9, 40, 64
2, 67489, Note_on_c, 9, 35, 127
2, 67489, Note_on_c, 9, 46, 127
2, 67518, Note_off_c, 9, 46, 64
2, 67520, Note_off_c, 9, 35, 64
2, 67584, Note_on_c, 9, 46, 127
2, 67585, Note_on_c, 9, 35, 127
2, 67614, Note_off_c, 9, 46, 64
2, 67632, Note_off_c, 9, 35, 64
2, 67681, Note_on_c, 9, 46, 127
2, 67708, Note_off_c, 9, 46, 64
2, 67779, Note_on_c, 9, 46, 127
2, 67782, Note_on_c, 9, 40, 127
2, 67809, Note_off_c, 9, 46, 64
2, 67819, Note_off_c, 9, 40, 64
2, 67873, Note_on_c, 9, 35, 127
2, 67875, Note_on_c, 9, 46, 127
2, 67902, Note_off_c, 9, 46, 64
2, 67904, Note_off_c, 9, 35, 64
2, 67966, Note_on_c, 9, 35, 127
2, 67969, Note_on_c, 9, 46, 127
2, 67996, Note_off_c, 9, 46, 64
2, 68011, Note_off_c, 9, 35, 64
2, 68060, Note_on_c, 9, 46, 127
2, 68091, Note_off_c, 9, 46, 64
2, 68155, Note_on_c, 9, 46, 127
2, 68161, Note_on_c, 9, 40, 127
2, 68184, Note_off_c, 9, 46, 64
2, 68195, Note_off_c, 9, 40, 64
2, 68249, Note_on_c, 9, 35, 127
2, 68251, Note_on_c, 9, 46, 127
2, 68280, Note_off_c, 9, 46, 64
2, 68280, Note_off_c, 9, 35, 64
2, 68342, Note_on_c, 9, 35, 127
2, 68347, Note_on_c, 9, 46, 127
2, 68374, Note_off_c, 9, 46, 64
2, 68393, Note_off_c, 9, 35, 64
2, 68440, Note_on_c, 9, 46, 127
2, 68468, Note_off_c, 9, 46, 64
2, 68539, Note_on_c, 9, 46, 127
2, 68547, Note_on_c, 9, 40, 127
2, 68568, Note_off_c, 9, 46, 64
2, 68587, Note_off_c, 9, 40, 64
2, 68633, Note_on_c, 9, 46, 127
2, 68641, Note_on_c, 9, 35, 127
2, 68664, Note_off_c, 9, 46, 64
2, 68670, Note_off_c, 9, 35, 64
2, 68731, Note_on_c, 9, 46, 127
2, 68736, Note_on_c, 9, 35, 127
2, 68760, Note_off_c, 9, 46, 64
2, 68763, Note_off_c, 9, 35, 64
2, 68827, Note_on_c, 9, 46, 127
2, 68833, Note_on_c, 9, 40, 127
2, 68848, Note_off_c, 9, 40, 64
2, 68854, Note_off_c, 9, 46, 64
2, 68923, Note_on_c, 9, 46, 127
2, 68931, Note_on_c, 9, 40, 127
2, 68952, Note_off_c, 9, 46, 64
2, 68963, Note_off_c, 9, 40, 64
2, 69020, Note_on_c, 9, 46, 127
2, 69049, Note_off_c, 9, 46, 64
2, 69113, Note_on_c, 9, 46, 127
2, 69115, Note_on_c, 9, 49, 127
2, 69116, Note_on_c, 9, 35, 127
2, 69142, Note_off_c, 9, 46, 64
2, 69144, Note_off_c, 9, 49, 64
2, 69160, Note_off_c, 9, 35, 64
2, 69208, Note_on_c, 9, 46, 127
2, 69243, Note_off_c, 9, 46, 64
2, 69305, Note_on_c, 9, 46, 127
2, 69313, Note_on_c, 9, 40, 127
2, 69339, Note_off_c, 9, 46, 64
2, 69347, Note_off_c, 9, 40, 64
2, 69403, Note_on_c, 9, 35, 127
2, 69403, Note_on_c, 9, 46, 127
2, 69433, Note_off_c, 9, 35, 64
2, 69435, Note_off_c, 9, 46, 64
2, 69497, Note_on_c, 9, 35, 127
2, 69504, Note_on_c, 9, 46, 127
2, 69534, Note_off_c, 9, 46, 64
2, 69544, Note_off_c, 9, 35, 64
2, 69595, Note_on_c, 9, 46, 127
2, 69628, Note_off_c, 9, 46, 64
2, 69691, Note_on_c, 9, 46, 127
2, 69699, Note_on_c, 9, 40, 127
2, 69723, Note_off_c, 9, 46, 64
2, 69736, Note_off_c, 9, 40, 64
2, 69785, Note_on_c, 9, 46, 127
2, 69790, Note_on_c, 9, 35, 127
2, 69817, Note_off_c, 9, 46, 64
2, 69822, Note_off_c, 9, 35, 64
2, 69881, Note_on_c, 9, 46, 127
2, 69891, Note_on_c, 9, 35, 127
2, 69915, Note_off_c, 9, 46, 64
2, 69936, Note_off_c, 9, 35, 64
2, 69976, Note_on_c, 9, 46, 127
2, 70011, Note_off_c, 9, 46, 64
2, 70073, Note_on_c, 9, 46, 127
2, 70081, Note_on_c, 9, 40, 127
2, 70107, Note_off_c, 9, 46, 64
2, 70118, Note_off_c, 9, 40, 64
2, 70166, Note_on_c, 9, 46, 127
2, 70168, Note_on_c, 9, 35, 127
2, 70200, Note_off_c, 9, 35, 64
2, 70200, Note_off_c, 9, 46, 64
2, 70260, Note_on_c, 9, 46, 127
2, 70268, Note_on_c, 9, 35, 127
2, 70292, Note_off_c, 9, 46, 64
2, 70313, Note_off_c, 9, 35, 64
2, 70358, Note_on_c, 9, 46, 127
2, 70388, Note_off_c, 9, 46, 64
2, 70456, Note_on_c, 9, 46, 127
2, 70462, Note_on_c, 9, 40, 127
2, 70486, Note_off_c, 9, 46, 64
2, 70497, Note_off_c, 9, 40, 64
2, 70553, Note_on_c, 9, 35, 127
2, 70553, Note_on_c, 9, 46, 127
2, 70582, Note_off_c, 9, 35, 64
2, 70584, Note_off_c, 9, 46, 64
2, 70646, Note_on_c, 9, 46, 127
2, 70654, Note_on_c, 9, 35, 127
2, 70680, Note_off_c, 9, 46, 64
2, 70692, Note_off_c, 9, 35, 64
2, 70740, Note_on_c, 9, 46, 127
2, 70772, Note_off_c, 9, 46, 64
2, 70836, Note_on_c, 9, 46, 127
2, 70846, Note_on_c, 9, 40, 127
2, 70870, Note_off_c, 9, 46, 64
2, 70881, Note_off_c, 9, 40, 64
2, 70932, Note_on_c, 9, 46, 127
2, 70934, Note_on_c, 9, 35, 127
2, 70963, Note_off_c, 9, 46, 64
2, 70969, Note_off_c, 9, 35, 64
2, 71032, Note_on_c, 9, 46, 127
2, 71035, Note_on_c, 9, 35, 127
2, 71060, Note_off_c, 9, 46, 64
2, 71081, Note_off_c, 9, 35, 64
2, 71126, Note_on_c, 9, 46, 127
2, 71153, Note_off_c, 9, 46, 64
2, 71224, Note_on_c, 9, 46, 127
2, 71230, Note_on_c, 9, 40, 127
2, 71251, Note_off_c, 9, 46, 64
2, 71267, Note_off_c, 9, 40, 64
2, 71320, Note_on_c, 9, 46, 127
2, 71326, Note_on_c, 9, 35, 127
2, 71347, Note_off_c, 9, 46, 64
2, 71353, Note_off_c, 9, 35, 64
2, 71416, Note_on_c, 9, 46, 127
2, 71420, Note_on_c, 9, 35, 127
2, 71441, Note_off_c, 9, 46, 64
2, 71468, Note_off_c, 9, 35, 64
2, 71512, Note_on_c, 9, 46, 127
2, 71540, Note_off_c, 9, 46, 64
2, 71611, Note_on_c, 9, 46, 127
2, 71620, Note_on_c, 9, 40, 127
2, 71638, Note_off_c, 9, 46, 64
2, 71656, Note_off_c, 9, 40, 64
2, 71705, Note_on_c, 9, 46, 127
2, 71712, Note_on_c, 9, 35, 127
2, 71732, Note_off_c, 9, 46, 64
2, 71744, Note_off_c, 9, 35, 64
2, 71803, Note_on_c, 9, 46, 127
2, 71811, Note_on_c, 9, 35, 127
2, 71832, Note_off_c, 9, 46, 64
2, 71859, Note_off_c, 9, 35, 64
2, 71894, Note_on_c, 9, 46, 127
2, 71924, Note_off_c, 9, 46, 64
2, 71990, Note_on_c, 9, 46, 127
2, 71998, Note_on_c, 9, 40, 127
2, 72020, Note_off_c, 9, 46, 64
2, 72033, Note_off_c, 9, 40, 64
2, 72083, Note_on_c, 9, 46, 127
2, 72092, Note_on_c, 9, 35, 127
2, 72113, Note_off_c, 9, 46, 64
2, 72120, Note_off_c, 9, 35, 64
2, 72174, Note_on_c, 9, 46, 127
2, 72176, Note_on_c, 9, 49, 127
2, 72188, Note_on_c, 9, 35, 127
2, 72203, Note_off_c, 9, 46, 64
2, 72206, Note_off_c, 9, 49, 64
2, 72233, Note_off_c, 9, 35, 64
2, 72270, Note_on_c, 9, 46, 127
2, 72302, Note_off_c, 9, 46, 64
2, 72374, Note_on_c, 9, 46, 127
2, 72380, Note_on_c, 9, 40, 127
2, 72411, Note_off_c, 9, 46, 64
2, 72414, Note_off_c, 9, 40, 64
2, 72468, Note_on_c, 9, 35, 127
2, 72470, Note_on_c, 9, 46, 127
2, 72496, Note_off_c, 9, 35, 64
2, 72504, Note_off_c, 9, 46, 64
2, 72566, Note_on_c, 9, 46, 127
2, 72569, Note_on_c, 9, 35, 127
2, 72598, Note_off_c, 9, 46, 64
2, 72612, Note_off_c, 9, 35, 64
2, 72657, Note_on_c, 9, 46, 127
2, 72691, Note_off_c, 9, 46, 64
2, 72758, Note_on_c, 9, 46, 127
2, 72769, Note_on_c, 9, 40, 127
2, 72787, Note_off_c, 9, 46, 64
2, 72804, Note_off_c, 9, 40, 64
2, 72851, Note_on_c, 9, 46, 127
2, 72854, Note_on_c, 9, 35, 127
2, 72883, Note_off_c, 9, 35, 64
2, 72883, Note_off_c, 9, 46, 64
2, 72950, Note_on_c, 9, 46, 127
2, 72955, Note_on_c, 9, 35, 127
2, 72980, Note_off_c, 9, 46, 64
2, 72993, Note_off_c, 9, 35, 64
2, 73051, Note_on_c, 9, 46, 127
2, 73080, Note_off_c, 9, 46, 64
2, 73152, Note_on_c, 9, 46, 127
2, 73164, Note_on_c, 9, 40, 127
2, 73179, Note_off_c, 9, 46, 64
2, 73200, Note_off_c, 9, 40, 64
2, 73249, Note_on_c, 9, 46, 127
2, 73254, Note_on_c, 9, 35, 127
2, 73275, Note_off_c, 9, 46, 64
2, 73283, Note_off_c, 9, 35, 64
2, 73344, Note_on_c, 9, 46, 127
2, 73352, Note_on_c, 9, 35, 127
2, 73374, Note_off_c, 9, 46, 64
2, 73396, Note_off_c, 9, 35, 64
2, 73440, Note_on_c, 9, 46, 127
2, 73468, Note_off_c, 9, 46, 64
2, 73537, Note_on_c, 9, 46, 127
2, 73550, Note_on_c, 9, 40, 127
2, 73566, Note_off_c, 9, 46, 64
2, 73584, Note_off_c, 9, 40, 64
2, 73636, Note_on_c, 9, 46, 127
2, 73638, Note_on_c, 9, 35, 127
2, 73662, Note_off_c, 9, 35, 64
2, 73665, Note_off_c, 9, 46, 64
2, 73734, Note_on_c, 9, 46, 127
2, 73742, Note_on_c, 9, 35, 127
2, 73760, Note_off_c, 9, 46, 64
2, 73784, Note_off_c, 9, 35, 64
2, 73832, Note_on_c, 9, 46, 127
2, 73859, Note_off_c, 9, 46, 64
2, 73924, Note_on_c, 9, 40, 127
2, 73929, Note_on_c, 9, 46, 127
2, 73956, Note_off_c, 9, 46, 64
2, 73960, Note_off_c, 9, 40, 64
2, 74016, Note_on_c, 9, 35, 127
2, 74020, Note_on_c, 9, 46, 127
2, 74044, Note_off_c, 9, 35, 64
2, 74049, Note_off_c, 9, 46, 64
2, 74108, Note_on_c, 9, 35, 127
2, 74115, Note_on_c, 9, 46, 127
2, 74144, Note_off_c, 9, 46, 64
2, 74153, Note_off_c, 9, 35, 64
2, 74206, Note_on_c, 9, 46, 127
2, 74235, Note_off_c, 9, 46, 64
2, 74296, Note_on_c, 9, 46, 127
2, 74305, Note_on_c, 9, 40, 127
2, 74326, Note_off_c, 9, 46, 64
2, 74339, Note_off_c, 9, 40, 64
2, 74387, Note_on_c, 9, 35, 127
2, 74392, Note_on_c, 9, 46, 127
2, 74414, Note_off_c, 9, 35, 64
2, 74422, Note_off_c, 9, 46, 64
2, 74489, Note_on_c, 9, 46, 127
2, 74492, Note_on_c, 9, 35, 127
2, 74518, Note_off_c, 9, 46, 64
2, 74536, Note_off_c, 9, 35, 64
2, 74587, Note_on_c, 9, 46, 127
2, 74614, Note_off_c, 9, 46, 64
2, 74675, Note_on_c, 9, 40, 127
2, 74684, Note_on_c, 9, 46, 127
2, 74696, Note_off_c, 9, 40, 64
2, 74712, Note_off_c, 9, 46, 64
2, 74720, Note_on_c, 9, 40, 127
2, 74744, Note_off_c, 9, 40, 64
2, 74771, Note_on_c, 9, 43, 127
2, 74774, Note_on_c, 9, 46, 127
2, 74793, Note_off_c, 9, 43, 64
2, 74803, Note_off_c, 9, 46, 64
2, 74868, Note_on_c, 9, 46, 127
2, 74880, Note_on_c, 9, 40, 127
2, 74896, Note_off_c, 9, 46, 64
2, 74910, Note_off_c, 9, 40, 64
2, 74963, Note_on_c, 9, 46, 127
2, 74990, Note_off_c, 9, 46, 64
2, 75059, Note_on_c, 9, 46, 127
2, 75062, Note_on_c, 9, 40, 127
2, 75068, Note_on_c, 9, 43, 127
2, 75083, Note_off_c, 9, 46, 64
2, 75086, Note_off_c, 9, 40, 64
2, 75086, Note_off_c, 9, 43, 64
2, 75152, Note_on_c, 9, 46, 127
2, 75153, Note_on_c, 9, 40, 127
2, 75163, Note_off_c, 9, 46, 64
2, 75168, Note_off_c, 9, 40, 64
2, 75187, Note_on_c, 9, 40, 127
2, 75204, Note_off_c, 9, 40, 64
2, 75251, Note_on_c, 9, 49, 127
2, 75254, Note_on_c, 9, 46, 127
2, 75267, Note_on_c, 9, 35, 127
2, 75288, Note_off_c, 9, 46, 64
2, 75288, Note_off_c, 9, 49, 64
2, 75321, Note_off_c, 9, 35, 64
2, 75348, Note_on_c, 9, 46, 127
2, 75377, Note_off_c, 9, 46, 64
2, 75446, Note_on_c, 9, 46, 127
2, 75451, Note_on_c, 9, 40, 127
2, 75476, Note_off_c, 9, 46, 64
2, 75486, Note_off_c, 9, 40, 64
2, 75539, Note_on_c, 9, 46, 127
2, 75540, Note_on_c, 9, 35, 127
2, 75569, Note_off_c, 9, 46, 64
2, 75574, Note_off_c, 9, 35, 64
2, 75633, Note_on_c, 9, 46, 127
2, 75640, Note_on_c, 9, 35, 127
2, 75664, Note_off_c, 9, 46, 64
2, 75692, Note_off_c, 9, 35, 64
2, 75731, Note_on_c, 9, 46, 127
2, 75761, Note_off_c, 9, 46, 64
2, 75835, Note_on_c, 9, 46, 127
2, 75846, Note_on_c, 9, 40, 127
2, 75864, Note_off_c, 9, 46, 64
2, 75880, Note_off_c, 9, 40, 64
2, 75932, Note_on_c, 9, 46, 127
2, 75937, Note_on_c, 9, 35, 127
2, 75963, Note_off_c, 9, 46, 64
2, 75966, Note_off_c, 9, 35, 64
2, 76032, Note_on_c, 9, 46, 127
2, 76035, Note_on_c, 9, 35, 127
2, 76062, Note_off_c, 9, 46, 64
2, 76083, Note_off_c, 9, 35, 64
2, 76128, Note_on_c, 9, 46, 127
2, 76155, Note_off_c, 9, 46, 64
2, 76224, Note_on_c, 9, 46, 127
2, 76230, Note_on_c, 9, 40, 127
2, 76252, Note_off_c, 9, 46, 64
2, 76265, Note_off_c, 9, 40, 64
2, 76318, Note_on_c, 9, 46, 127
2, 76326, Note_on_c, 9, 35, 127
2, 76347, Note_off_c, 9, 46, 64
2, 76358, Note_off_c, 9, 35, 64
2, 76414, Note_on_c, 9, 46, 127
2, 76424, Note_on_c, 9, 35, 127
2, 76444, Note_off_c, 9, 46, 64
2, 76454, Note_off_c, 9, 35, 64
2, 76512, Note_on_c, 9, 46, 127
2, 76540, Note_off_c, 9, 46, 64
2, 76612, Note_on_c, 9, 46, 127
2, 76617, Note_on_c, 9, 40, 127
2, 76643, Note_off_c, 9, 46, 64
2, 76652, Note_off_c, 9, 40, 64
2, 76704, Note_on_c, 9, 35, 127
2, 76707, Note_on_c, 9, 46, 127
2, 76731, Note_off_c, 9, 35, 64
2, 76734, Note_off_c, 9, 46, 64
2, 76800, Note_on_c, 9, 35, 127
2, 76808, Note_on_c, 9, 46, 127
2, 76836, Note_off_c, 9, 46, 64
2, 76846, Note_off_c, 9, 35, 64
2, 76905, Note_on_c, 9, 46, 127
2, 76932, Note_off_c, 9, 46, 64
2, 76993, Note_on_c, 9, 40, 127
2, 77003, Note_on_c, 9, 46, 127
2, 77027, Note_off_c, 9, 40, 64
2, 77033, Note_off_c, 9, 46, 64
2, 77084, Note_on_c, 9, 35, 127
2, 77099, Note_on_c, 9, 46, 127
2, 77118, Note_off_c, 9, 35, 64
2, 77128, Note_off_c, 9, 46, 64
2, 77176, Note_on_c, 9, 35, 127
2, 77193, Note_on_c, 9, 46, 127
2, 77222, Note_off_c, 9, 35, 64
2, 77224, Note_off_c, 9, 46, 64
2, 77288, Note_on_c, 9, 46, 127
2, 77318, Note_off_c, 9, 46, 64
2, 77384, Note_on_c, 9, 40, 127
2, 77384, Note_on_c, 9, 46, 127
2, 77411, Note_off_c, 9, 46, 64
2, 77420, Note_off_c, 9, 40, 64
2, 77472, Note_on_c, 9, 35, 127
2, 77480, Note_on_c, 9, 46, 127
2, 77499, Note_off_c, 9, 35, 64
2, 77510, Note_off_c, 9, 46, 64
2, 77574, Note_on_c, 9, 35, 127
2, 77580, Note_on_c, 9, 46, 127
2, 77608, Note_off_c, 9, 46, 64
2, 77624, Note_off_c, 9, 35, 64
2, 77672, Note_on_c, 9, 46, 127
2, 77699, Note_off_c, 9, 46, 64
2, 77764, Note_on_c, 9, 46, 127
2, 77769, Note_on_c, 9, 40, 127
2, 77795, Note_off_c, 9, 46, 64
2, 77811, Note_off_c, 9, 40, 64
2, 77857, Note_on_c, 9, 46, 127
2, 77860, Note_on_c, 9, 35, 127
2, 77884, Note_off_c, 9, 46, 64
2, 77894, Note_off_c, 9, 35, 64
2, 77945, Note_on_c, 9, 46, 127
2, 77964, Note_on_c, 9, 40, 127
2, 77976, Note_off_c, 9, 46, 64
2, 78017, Note_off_c, 9, 40, 64
2, 78043, Note_on_c, 9, 46, 127
2, 78059, Note_on_c, 9, 35, 127
2, 78076, Note_off_c, 9, 46, 64
2, 78100, Note_off_c, 9, 35, 64
2, 78145, Note_on_c, 9, 46, 127
2, 78158, Note_on_c, 9, 40, 127
2, 78179, Note_off_c, 9, 46, 64
2, 78206, Note_off_c, 9, 40, 64
2, 78248, Note_on_c, 9, 46, 127
2, 78259, Note_on_c, 9, 35, 127
2, 78280, Note_off_c, 9, 46, 64
2, 78281, Note_off_c, 9, 35, 64
2, 78342, Note_on_c, 9, 57, 127
2, 78542, Note_off_c, 9, 57, 64
2, 79104, Control_c, 9, 7, 63
2, 79128, Control_c, 9, 7, 62
2, 79152, Control_c, 9, 7, 61
2, 79176, Control_c, 9, 7, 60
2, 79200, Control_c, 9, 7, 59
2, 79225, Control_c, 9, 7, 58
2, 79249, Control_c, 9, 7, 57
2, 79273, Control_c, 9, 7, 56
2, 79297, Control_c, 9, 7, 55
2, 79323, Control_c, 9, 7, 54
2, 79347, Control_c, 9, 7, 53
2, 79371, Control_c, 9, 7, 52
2, 79395, Control_c, 9, 7, 51
2, 79419, Control_c, 9, 7, 50
2, 79444, Control_c, 9, 7, 49
2, 79468, Control_c, 9, 7, 48
2, 79492, Control_c, 9, 7, 47
2, 79516, Control_c, 9, 7, 46
2, 79542, Control_c, 9, 7, 45
2, 79566, Control_c, 9, 7, 44
2, 79590, Control_c, 9, 7, 43
2, 79614, Control_c, 9, 7, 42
2, 79638, Control_c, 9, 7, 41
2, 79664, Control_c, 9, 7, 40
2, 79688, Control_c, 9, 7, 39
2, 79712, Control_c, 9, 7, 38
2, 79736, Control_c, 9, 7, 37
2, 79761, Control_c, 9, 7, 36
2, 79785, Control_c, 9, 7, 35
2, 79809, Control_c, 9, 7, 34
2, 79833, Control_c, 9, 7, 33
2, 79857, Control_c, 9, 7, 32
2, 79883, Control_c, 9, 7, 31
2, 79907, Control_c, 9, 7, 30
2, 79931, Control_c, 9, 7, 29
2, 79955, Control_c, 9, 7, 28
2, 79980, Control_c, 9, 7, 27
2, 80004, Control_c, 9, 7, 26
2, 80028, Control_c, 9, 7, 25
2, 80052, Control_c, 9, 7, 24
2, 80076, Control_c, 9, 7, 23
2, 80102, Control_c, 9, 7, 22
2, 80126, Control_c, 9, 7, 21
2, 80150, Control_c, 9, 7, 20
2, 80174, Control_c, 9, 7, 19
2, 80200, Control_c, 9, 7, 18
2, 80224, Control_c, 9, 7, 17
2, 80248, Control_c, 9, 7, 16
2, 80272, Control_c, 9, 7, 15
2, 80296, Control_c, 9, 7, 14
2, 80321, Control_c, 9, 7, 13
2, 80345, Control_c, 9, 7, 12
2, 80369, Control_c, 9, 7, 11
2, 80393, Control_c, 9, 7, 10
2, 80419, Control_c, 9, 7, 9
2, 80443, Control_c, 9, 7, 8
2, 80467, Control_c, 9, 7, 7
2, 80491, Control_c, 9, 7, 6
2, 80515, Control_c, 9, 7, 5
2, 80540, Control_c, 9, 7, 4
2, 80564, Control_c, 9, 7, 3
2, 80588, Control_c, 9, 7, 2
2, 80612, Control_c, 9, 7, 1
2, 80638, Control_c, 9, 7, 0
2, 80638, End_track
3, 0, Start_track
3, 0, Title_t, "CLEAN GUITAR"
3, 0, Channel_prefix, 0
3, 0, Control_c, 0, 7, 68
3, 0, Control_c, 0, 10, 64
3, 0, Program_c, 0, 27
3, 0, Control_c, 0, 93, 0
3, 0, Control_c, 0, 91, 127
3, 1480, Note_on_c, 0, 50, 127
3, 1502, Note_on_c, 0, 54, 127
3, 1518, Note_on_c, 0, 57, 127
3, 1526, Note_on_c, 0, 66, 127
3, 2705, Note_off_c, 0, 54, 64
3, 2720, Note_off_c, 0, 50, 64
3, 2734, Note_off_c, 0, 57, 64
3, 2785, Note_off_c, 0, 66, 64
3, 3014, Note_on_c, 0, 55, 127
3, 3022, Note_on_c, 0, 50, 127
3, 3030, Note_on_c, 0, 59, 127
3, 3060, Note_on_c, 0, 64, 127
3, 3446, Note_off_c, 0, 64, 64
3, 3451, Note_on_c, 0, 62, 127
3, 4161, Note_off_c, 0, 59, 64
3, 4168, Note_off_c, 0, 50, 64
3, 4168, Note_off_c, 0, 55, 64
3, 4217, Note_off_c, 0, 62, 64
3, 4555, Note_on_c, 0, 50, 127
3, 4571, Note_on_c, 0, 54, 127
3, 4580, Note_on_c, 0, 62, 127
3, 4590, Note_on_c, 0, 57, 127
3, 4604, Note_on_c, 0, 66, 127
3, 5676, Note_off_c, 0, 54, 64
3, 5684, Note_off_c, 0, 50, 64
3, 5700, Note_off_c, 0, 57, 64
3, 5721, Note_off_c, 0, 66, 64
3, 5737, Note_off_c, 0, 62, 64
3, 6110, Note_on_c, 0, 50, 127
3, 6110, Note_on_c, 0, 55, 127
3, 6121, Note_on_c, 0, 59, 127
3, 6139, Note_on_c, 0, 64, 127
3, 6510, Note_on_c, 0, 62, 127
3, 6521, Note_off_c, 0, 64, 64
3, 6912, Control_c, 0, 7, 60
3, 6944, Control_c, 0, 7, 59
3, 6977, Control_c, 0, 7, 58
3, 7011, Control_c, 0, 7, 57
3, 7044, Control_c, 0, 7, 56
3, 7078, Control_c, 0, 7, 55
3, 7110, Control_c, 0, 7, 54
3, 7144, Control_c, 0, 7, 53
3, 7177, Control_c, 0, 7, 52
3, 7211, Control_c, 0, 7, 51
3, 7244, Control_c, 0, 7, 50
3, 7278, Control_c, 0, 7, 49
3, 7310, Control_c, 0, 7, 48
3, 7344, Control_c, 0, 7, 47
3, 7377, Control_c, 0, 7, 46
3, 7387, Note_off_c, 0, 59, 64
3, 7387, Note_off_c, 0, 62, 64
3, 7396, Note_off_c, 0, 55, 64
3, 7408, Note_off_c, 0, 50, 64
3, 7411, Control_c, 0, 7, 45
3, 7444, Control_c, 0, 7, 44
3, 7478, Control_c, 0, 7, 43
3, 7510, Control_c, 0, 7, 42
3, 7544, Control_c, 0, 7, 41
3, 7577, Control_c, 0, 7, 40
3, 7611, Control_c, 0, 7, 39
3, 7614, Note_on_c, 0, 50, 127
3, 7643, Note_on_c, 0, 54, 127
3, 7644, Control_c, 0, 7, 38
3, 7649, Note_on_c, 0, 57, 127
3, 7672, Note_on_c, 0, 62, 127
3, 7678, Control_c, 0, 7, 37
3, 9064, Note_off_c, 0, 54, 64
3, 9073, Note_off_c, 0, 50, 64
3, 9080, Note_off_c, 0, 57, 64
3, 9094, Note_off_c, 0, 62, 64
3, 9198, Note_on_c, 0, 50, 127
3, 9206, Note_on_c, 0, 55, 127
3, 9216, Note_on_c, 0, 59, 127
3, 9240, Note_on_c, 0, 62, 127
3, 10398, Note_off_c, 0, 55, 64
3, 10411, Note_off_c, 0, 50, 64
3, 10417, Note_off_c, 0, 59, 64
3, 10420, Note_off_c, 0, 62, 64
3, 10694, Note_on_c, 0, 50, 127
3, 10721, Note_on_c, 0, 54, 127
3, 10737, Note_on_c, 0, 57, 127
3, 10760, Note_on_c, 0, 62, 127
3, 12078, Note_off_c, 0, 50, 64
3, 12083, Note_off_c, 0, 62, 64
3, 12091, Note_off_c, 0, 57, 64
3, 12092, Note_off_c, 0, 54, 64
3, 12233, Note_on_c, 0, 50, 127
3, 12248, Note_on_c, 0, 55, 127
3, 12270, Note_on_c, 0, 59, 127
3, 12289, Note_on_c, 0, 62, 127
3, 13497, Note_off_c, 0, 59, 64
3, 13500, Note_off_c, 0, 62, 64
3, 13505, Note_off_c, 0, 55, 64
3, 13507, Note_off_c, 0, 50, 64
3, 13819, Note_on_c, 0, 48, 127
3, 13827, Note_on_c, 0, 52, 127
3, 13832, Note_on_c, 0, 55, 127
3, 13841, Note_on_c, 0, 60, 127
3, 15198, Note_off_c, 0, 55, 64
3, 15212, Note_off_c, 0, 52, 64
3, 15212, Note_off_c, 0, 60, 64
3, 15280, Note_off_c, 0, 48, 64
3, 15336, Note_on_c, 0, 54, 127
3, 15345, Note_on_c, 0, 50, 127
3, 15347, Note_on_c, 0, 57, 127
3, 15364, Note_on_c, 0, 62, 127
3, 16718, Note_off_c, 0, 62, 64
3, 16729, Note_off_c, 0, 57, 64
3, 16739, Note_off_c, 0, 54, 64
3, 16756, Note_off_c, 0, 50, 64
3, 16888, Note_on_c, 0, 45, 127
3, 16897, Note_on_c, 0, 52, 127
3, 16912, Note_on_c, 0, 57, 127
3, 17489, Note_off_c, 0, 57, 64
3, 17489, Note_off_c, 0, 52, 64
3, 17668, Note_on_c, 0, 40, 127
3, 17673, Note_on_c, 0, 47, 127
3, 17675, Note_off_c, 0, 45, 64
3, 17681, Note_on_c, 0, 52, 127
3, 18286, Note_off_c, 0, 47, 64
3, 18299, Note_off_c, 0, 52, 64
3, 18321, Note_off_c, 0, 40, 64
3, 18432, Note_on_c, 0, 50, 127
3, 18438, Note_on_c, 0, 57, 127
3, 18457, Note_on_c, 0, 62, 127
3, 19840, Note_off_c, 0, 62, 64
3, 19844, Note_off_c, 0, 57, 64
3, 19854, Note_off_c, 0, 50, 64
3, 19942, Note_on_c, 0, 48, 127
3, 19960, Note_on_c, 0, 52, 127
3, 19969, Note_on_c, 0, 55, 127
3, 19980, Note_on_c, 0, 60, 127
3, 20616, Note_off_c, 0, 55, 64
3, 20617, Note_off_c, 0, 52, 64
3, 20696, Note_off_c, 0, 60, 64
3, 20724, Note_off_c, 0, 48, 64
3, 20729, Note_on_c, 0, 50, 127
3, 20731, Note_on_c, 0, 43, 127
3, 20747, Note_on_c, 0, 55, 127
3, 21318, Note_off_c, 0, 50, 64
3, 21326, Note_off_c, 0, 55, 64
3, 21468, Note_off_c, 0, 43, 64
3, 21496, Note_on_c, 0, 54, 127
3, 21502, Note_on_c, 0, 50, 127
3, 21515, Note_on_c, 0, 57, 127
3, 21526, Note_on_c, 0, 62, 127
3, 22964, Note_off_c, 0, 62, 64
3, 22966, Note_off_c, 0, 50, 64
3, 22969, Note_off_c, 0, 54, 64
3, 22974, Note_off_c, 0, 57, 64
3, 22976, Note_on_c, 0, 50, 127
3, 22996, Note_on_c, 0, 54, 127
3, 23020, Note_on_c, 0, 57, 127
3, 23035, Note_on_c, 0, 62, 127
3, 24209, Note_off_c, 0, 57, 64
3, 24217, Note_off_c, 0, 50, 64
3, 24219, Note_off_c, 0, 54, 64
3, 24358, Note_off_c, 0, 62, 64
3, 24526, Note_on_c, 0, 50, 127
3, 24532, Note_on_c, 0, 55, 127
3, 24556, Note_on_c, 0, 59, 127
3, 24579, Note_on_c, 0, 62, 127
3, 25766, Note_off_c, 0, 50, 64
3, 25784, Note_off_c, 0, 55, 64
3, 25793, Note_off_c, 0, 62, 64
3, 25801, Note_off_c, 0, 59, 64
3, 26043, Note_on_c, 0, 50, 127
3, 26084, Note_on_c, 0, 54, 127
3, 26092, Note_on_c, 0, 57, 127
3, 26110, Note_on_c, 0, 62, 127
3, 27464, Note_off_c, 0, 57, 64
3, 27470, Note_off_c, 0, 62, 64
3, 27476, Note_off_c, 0, 54, 64
3, 27478, Note_off_c, 0, 50, 64
3, 27608, Note_on_c, 0, 50, 127
3, 27630, Note_on_c, 0, 55, 127
3, 27643, Note_on_c, 0, 59, 127
3, 27649, Note_on_c, 0, 62, 127
3, 29001, Note_off_c, 0, 55, 64
3, 29001, Note_off_c, 0, 50, 64
3, 29004, Note_off_c, 0, 59, 64
3, 29009, Note_off_c, 0, 62, 64
3, 29126, Note_on_c, 0, 50, 127
3, 29161, Note_on_c, 0, 54, 127
3, 29163, Note_on_c, 0, 57, 127
3, 29184, Note_on_c, 0, 62, 127
3, 30563, Note_off_c, 0, 50, 64
3, 30564, Note_off_c, 0, 54, 64
3, 30588, Note_off_c, 0, 62, 64
3, 30592, Note_off_c, 0, 57, 64
3, 30702, Note_on_c, 0, 50, 127
3, 30716, Note_on_c, 0, 55, 127
3, 30734, Note_on_c, 0, 59, 127
3, 30748, Note_on_c, 0, 62, 127
3, 31926, Note_off_c, 0, 55, 64
3, 31928, Note_off_c, 0, 50, 64
3, 31929, Note_off_c, 0, 59, 64
3, 31934, Note_off_c, 0, 62, 64
3, 32243, Note_on_c, 0, 48, 127
3, 32243, Note_on_c, 0, 52, 127
3, 32256, Note_on_c, 0, 55, 127
3, 32276, Note_on_c, 0, 60, 127
3, 33464, Note_off_c, 0, 60, 64
3, 33467, Note_off_c, 0, 55, 64
3, 33475, Note_off_c, 0, 52, 64
3, 33504, Note_off_c, 0, 48, 64
3, 33761, Note_on_c, 0, 50, 127
3, 33768, Note_on_c, 0, 54, 127
3, 33784, Note_on_c, 0, 57, 127
3, 33804, Note_on_c, 0, 62, 127
3, 35067, Note_off_c, 0, 57, 64
3, 35089, Note_off_c, 0, 50, 64
3, 35089, Note_off_c, 0, 62, 64
3, 35102, Note_off_c, 0, 54, 64
3, 35312, Note_on_c, 0, 45, 127
3, 35313, Note_on_c, 0, 52, 127
3, 35326, Note_on_c, 0, 57, 127
3, 35876, Note_off_c, 0, 45, 64
3, 35956, Note_off_c, 0, 57, 64
3, 35976, Note_off_c, 0, 52, 64
3, 36086, Note_on_c, 0, 47, 127
3, 36088, Note_on_c, 0, 40, 127
3, 36097, Note_on_c, 0, 52, 127
3, 36646, Note_off_c, 0, 47, 64
3, 36656, Note_off_c, 0, 52, 64
3, 36667, Note_off_c, 0, 40, 64
3, 36817, Note_on_c, 0, 50, 127
3, 36828, Note_on_c, 0, 54, 127
3, 36838, Note_on_c, 0, 57, 127
3, 36859, Note_on_c, 0, 62, 127
3, 38248, Note_off_c, 0, 50, 64
3, 38264, Note_off_c, 0, 62, 64
3, 38273, Note_off_c, 0, 57, 64
3, 38276, Note_off_c, 0, 54, 64
3, 38368, Note_on_c, 0, 48, 127
3, 38376, Note_on_c, 0, 52, 127
3, 38388, Note_on_c, 0, 55, 127
3, 38403, Note_on_c, 0, 60, 127
3, 38971, Note_off_c, 0, 60, 64
3, 38984, Note_off_c, 0, 55, 64
3, 38995, Note_off_c, 0, 52, 64
3, 38995, Note_off_c, 0, 48, 64
3, 39134, Note_on_c, 0, 47, 127
3, 39136, Note_on_c, 0, 43, 127
3, 39156, Note_on_c, 0, 50, 127
3, 39169, Note_on_c, 0, 55, 127
3, 39731, Note_off_c, 0, 47, 64
3, 39744, Note_off_c, 0, 50, 64
3, 39747, Note_off_c, 0, 55, 64
3, 39755, Note_off_c, 0, 43, 64
3, 39918, Note_on_c, 0, 50, 127
3, 39955, Note_on_c, 0, 57, 127
3, 39961, Note_on_c, 0, 62, 127
3, 39980, Note_on_c, 0, 54, 127
3, 41278, Note_off_c, 0, 50, 64
3, 41292, Note_off_c, 0, 54, 64
3, 41296, Note_off_c, 0, 62, 64
3, 41299, Note_off_c, 0, 57, 64
3, 41433, Note_on_c, 0, 50, 127
3, 41441, Note_on_c, 0, 54, 127
3, 41460, Note_on_c, 0, 57, 127
3, 41473, Note_on_c, 0, 62, 127
3, 42915, Note_off_c, 0, 54, 64
3, 42926, Note_off_c, 0, 57, 64
3, 42926, Note_off_c, 0, 62, 64
3, 42944, Note_off_c, 0, 50, 64
3, 43004, Note_on_c, 0, 43, 127
3, 43006, Note_on_c, 0, 47, 127
3, 43014, Note_on_c, 0, 50, 127
3, 43027, Note_on_c, 0, 55, 127
3, 43948, Note_off_c, 0, 47, 64
3, 43956, Note_off_c, 0, 43, 64
3, 43956, Note_off_c, 0, 50, 64
3, 43956, Note_off_c, 0, 55, 64
3, 44516, Note_on_c, 0, 54, 127
3, 44518, Note_on_c, 0, 50, 127
3, 44539, Note_on_c, 0, 57, 127
3, 44552, Note_on_c, 0, 62, 127
3, 45705, Note_off_c, 0, 50, 64
3, 45707, Note_off_c, 0, 62, 64
3, 45720, Note_off_c, 0, 57, 64
3, 45728, Note_off_c, 0, 54, 64
3, 46065, Note_on_c, 0, 47, 127
3, 46075, Note_on_c, 0, 50, 127
3, 46075, Note_on_c, 0, 43, 127
3, 46094, Note_on_c, 0, 55, 127
3, 47132, Note_off_c, 0, 43, 64
3, 47134, Note_off_c, 0, 47, 64
3, 47144, Note_off_c, 0, 55, 64
3, 47148, Note_off_c, 0, 50, 64
3, 47576, Note_on_c, 0, 54, 127
3, 47590, Note_on_c, 0, 50, 127
3, 47611, Note_on_c, 0, 57, 127
3, 47616, Note_on_c, 0, 62, 127
3, 48780, Note_off_c, 0, 50, 64
3, 48782, Note_off_c, 0, 62, 64
3, 48793, Note_off_c, 0, 57, 64
3, 48804, Note_off_c, 0, 54, 64
3, 49137, Note_on_c, 0, 47, 127
3, 49139, Note_on_c, 0, 43, 127
3, 49142, Note_on_c, 0, 50, 127
3, 49156, Note_on_c, 0, 55, 127
3, 50168, Note_off_c, 0, 47, 64
3, 50172, Note_off_c, 0, 50, 64
3, 50180, Note_off_c, 0, 43, 64
3, 50188, Note_off_c, 0, 55, 64
3, 50652, Note_on_c, 0, 54, 127
3, 50652, Note_on_c, 0, 50, 127
3, 50667, Note_on_c, 0, 57, 127
3, 50696, Note_on_c, 0, 62, 127
3, 51841, Note_off_c, 0, 50, 64
3, 51852, Note_off_c, 0, 62, 64
3, 51854, Note_off_c, 0, 57, 64
3, 51867, Note_off_c, 0, 54, 64
3, 52208, Note_on_c, 0, 47, 127
3, 52212, Note_on_c, 0, 50, 127
3, 52212, Note_on_c, 0, 43, 127
3, 52225, Note_on_c, 0, 55, 127
3, 53108, Note_off_c, 0, 55, 64
3, 53112, Note_off_c, 0, 47, 64
3, 53113, Note_off_c, 0, 50, 64
3, 53123, Note_off_c, 0, 43, 64
3, 53734, Note_on_c, 0, 52, 127
3, 53736, Note_on_c, 0, 48, 127
3, 53740, Note_on_c, 0, 55, 127
3, 53748, Note_on_c, 0, 60, 127
3, 55084, Note_off_c, 0, 55, 64
3, 55094, Note_off_c, 0, 52, 64
3, 55097, Note_off_c, 0, 60, 64
3, 55113, Note_off_c, 0, 48, 64
3, 55276, Note_on_c, 0, 54, 127
3, 55286, Note_on_c, 0, 50, 127
3, 55288, Note_on_c, 0, 57, 127
3, 55292, Note_on_c, 0, 62, 127
3, 56632, Note_off_c, 0, 50, 64
3, 56640, Note_off_c, 0, 62, 64
3, 56646, Note_off_c, 0, 57, 64
3, 56651, Note_off_c, 0, 54, 64
3, 56833, Note_on_c, 0, 52, 127
3, 56840, Note_on_c, 0, 45, 127
3, 56841, Note_on_c, 0, 57, 127
3, 57492, Note_off_c, 0, 57, 64
3, 57492, Note_off_c, 0, 52, 64
3, 57500, Note_off_c, 0, 45, 64
3, 57601, Note_on_c, 0, 47, 127
3, 57608, Note_on_c, 0, 40, 127
3, 57612, Note_on_c, 0, 52, 127
3, 58161, Note_off_c, 0, 47, 64
3, 58163, Note_off_c, 0, 40, 64
3, 58179, Note_off_c, 0, 52, 64
3, 58355, Note_on_c, 0, 54, 127
3, 58355, Note_on_c, 0, 50, 127
3, 58361, Note_on_c, 0, 57, 127
3, 58364, Note_on_c, 0, 62, 127
3, 59744, Note_off_c, 0, 62, 64
3, 59744, Note_off_c, 0, 54, 64
3, 59748, Note_off_c, 0, 57, 64
3, 59752, Note_off_c, 0, 50, 64
3, 59896, Note_on_c, 0, 52, 127
3, 59902, Note_on_c, 0, 55, 127
3, 59905, Note_on_c, 0, 48, 127
3, 59907, Note_on_c, 0, 60, 127
3, 60472, Note_off_c, 0, 60, 64
3, 60476, Note_off_c, 0, 55, 64
3, 60484, Note_off_c, 0, 52, 64
3, 60488, Note_off_c, 0, 48, 64
3, 60660, Note_on_c, 0, 50, 127
3, 60660, Note_on_c, 0, 43, 127
3, 60668, Note_on_c, 0, 55, 127
3, 61240, Note_off_c, 0, 50, 64
3, 61248, Note_off_c, 0, 55, 64
3, 61267, Note_off_c, 0, 43, 64
3, 61412, Note_on_c, 0, 54, 127
3, 61417, Note_on_c, 0, 50, 127
3, 61424, Note_on_c, 0, 57, 127
3, 61438, Note_on_c, 0, 62, 127
3, 62865, Note_off_c, 0, 54, 64
3, 62873, Note_off_c, 0, 50, 64
3, 62876, Note_off_c, 0, 57, 64
3, 62883, Note_off_c, 0, 62, 64
3, 62937, Note_on_c, 0, 54, 127
3, 62937, Note_on_c, 0, 50, 127
3, 62945, Note_on_c, 0, 57, 127
3, 62961, Note_on_c, 0, 62, 127
3, 64260, Note_off_c, 0, 62, 64
3, 64280, Note_off_c, 0, 57, 64
3, 64286, Note_off_c, 0, 54, 64
3, 64288, Note_off_c, 0, 50, 64
3, 64459, Note_on_c, 0, 47, 127
3, 64478, Note_on_c, 0, 43, 127
3, 64478, Note_on_c, 0, 50, 127
3, 64494, Note_on_c, 0, 55, 127
3, 65816, Note_off_c, 0, 50, 64
3, 65819, Note_off_c, 0, 47, 64
3, 65825, Note_off_c, 0, 55, 64
3, 65832, Note_off_c, 0, 43, 64
3, 66009, Note_on_c, 0, 54, 127
3, 66020, Note_on_c, 0, 50, 127
3, 66024, Note_on_c, 0, 57, 127
3, 66043, Note_on_c, 0, 62, 127
3, 67385, Note_off_c, 0, 62, 64
3, 67393, Note_off_c, 0, 57, 64
3, 67400, Note_off_c, 0, 50, 64
3, 67404, Note_off_c, 0, 54, 64
3, 67566, Note_on_c, 0, 43, 127
3, 67569, Note_on_c, 0, 47, 127
3, 67574, Note_on_c, 0, 50, 127
3, 67587, Note_on_c, 0, 55, 127
3, 68854, Note_off_c, 0, 50, 64
3, 68856, Note_off_c, 0, 47, 64
3, 68870, Note_off_c, 0, 55, 64
3, 68876, Note_off_c, 0, 43, 64
3, 69096, Note_on_c, 0, 54, 127
3, 69104, Note_on_c, 0, 50, 127
3, 69107, Note_on_c, 0, 57, 127
3, 69112, Note_on_c, 0, 62, 127
3, 70435, Note_off_c, 0, 62, 64
3, 70444, Note_off_c, 0, 57, 64
3, 70449, Note_off_c, 0, 50, 64
3, 70456, Note_off_c, 0, 54, 64
3, 70625, Note_on_c, 0, 47, 127
3, 70630, Note_on_c, 0, 43, 127
3, 70640, Note_on_c, 0, 50, 127
3, 70646, Note_on_c, 0, 55, 127
3, 71942, Note_off_c, 0, 50, 64
3, 71955, Note_off_c, 0, 55, 64
3, 71956, Note_off_c, 0, 47, 64
3, 71966, Note_off_c, 0, 43, 64
3, 72179, Note_on_c, 0, 57, 127
3, 72179, Note_on_c, 0, 54, 127
3, 72179, Note_on_c, 0, 50, 127
3, 72188, Note_on_c, 0, 62, 127
3, 73513, Note_off_c, 0, 62, 64
3, 73528, Note_off_c, 0, 57, 64
3, 73537, Note_off_c, 0, 50, 64
3, 73540, Note_off_c, 0, 54, 64
3, 73708, Note_on_c, 0, 47, 127
3, 73716, Note_on_c, 0, 43, 127
3, 73723, Note_on_c, 0, 50, 127
3, 73729, Note_on_c, 0, 55, 127
3, 74904, Note_off_c, 0, 55, 64
3, 74907, Note_off_c, 0, 50, 64
3, 74934, Note_off_c, 0, 47, 64
3, 74955, Note_off_c, 0, 43, 64
3, 75228, Note_on_c, 0, 54, 127
3, 75238, Note_on_c, 0, 57, 127
3, 75238, Note_on_c, 0, 50, 127
3, 75252, Note_on_c, 0, 62, 127
3, 76496, Note_off_c, 0, 50, 64
3, 76497, Note_off_c, 0, 62, 64
3, 76515, Note_off_c, 0, 54, 64
3, 76520, Note_off_c, 0, 57, 64
3, 76777, Note_on_c, 0, 47, 127
3, 76785, Note_on_c, 0, 43, 127
3, 76792, Note_on_c, 0, 50, 127
3, 76814, Note_on_c, 0, 55, 127
3, 78003, Note_off_c, 0, 50, 64
3, 78011, Note_off_c, 0, 55, 64
3, 78027, Note_off_c, 0, 47, 64
3, 78046, Note_off_c, 0, 43, 64
3, 78324, Note_on_c, 0, 54, 127
3, 78336, Note_on_c, 0, 50, 127
3, 78340, Note_on_c, 0, 57, 127
3, 78352, Note_on_c, 0, 62, 127
3, 79104, Control_c, 0, 7, 63
3, 79128, Control_c, 0, 7, 62
3, 79152, Control_c, 0, 7, 61
3, 79176, Control_c, 0, 7, 60
3, 79200, Control_c, 0, 7, 59
3, 79225, Control_c, 0, 7, 58
3, 79249, Control_c, 0, 7, 57
3, 79273, Control_c, 0, 7, 56
3, 79297, Control_c, 0, 7, 55
3, 79323, Control_c, 0, 7, 54
3, 79347, Control_c, 0, 7, 53
3, 79371, Control_c, 0, 7, 52
3, 79395, Control_c, 0, 7, 51
3, 79419, Control_c, 0, 7, 50
3, 79444, Control_c, 0, 7, 49
3, 79468, Control_c, 0, 7, 48
3, 79492, Control_c, 0, 7, 47
3, 79516, Control_c, 0, 7, 46
3, 79542, Control_c, 0, 7, 45
3, 79566, Control_c, 0, 7, 44
3, 79590, Control_c, 0, 7, 43
3, 79614, Control_c, 0, 7, 42
3, 79638, Control_c, 0, 7, 41
3, 79664, Control_c, 0, 7, 40
3, 79688, Control_c, 0, 7, 39
3, 79712, Control_c, 0, 7, 38
3, 79736, Control_c, 0, 7, 37
3, 79761, Control_c, 0, 7, 36
3, 79785, Control_c, 0, 7, 35
3, 79809, Control_c, 0, 7, 34
3, 79833, Control_c, 0, 7, 33
3, 79857, Control_c, 0, 7, 32
3, 79883, Control_c, 0, 7, 31
3, 79907, Control_c, 0, 7, 30
3, 79931, Control_c, 0, 7, 29
3, 79955, Control_c, 0, 7, 28
3, 79980, Control_c, 0, 7, 27
3, 80004, Control_c, 0, 7, 26
3, 80028, Control_c, 0, 7, 25
3, 80052, Control_c, 0, 7, 24
3, 80076, Control_c, 0, 7, 23
3, 80102, Control_c, 0, 7, 22
3, 80126, Control_c, 0, 7, 21
3, 80150, Control_c, 0, 7, 20
3, 80174, Control_c, 0, 7, 19
3, 80200, Control_c, 0, 7, 18
3, 80224, Control_c, 0, 7, 17
3, 80248, Control_c, 0, 7, 16
3, 80272, Control_c, 0, 7, 15
3, 80296, Control_c, 0, 7, 14
3, 80321, Control_c, 0, 7, 13
3, 80345, Control_c, 0, 7, 12
3, 80369, Control_c, 0, 7, 11
3, 80393, Control_c, 0, 7, 10
3, 80419, Control_c, 0, 7, 9
3, 80443, Control_c, 0, 7, 8
3, 80467, Control_c, 0, 7, 7
3, 80491, Control_c, 0, 7, 6
3, 80515, Control_c, 0, 7, 5
3, 80540, Control_c, 0, 7, 4
3, 80564, Control_c, 0, 7, 3
3, 80588, Control_c, 0, 7, 2
3, 80612, Control_c, 0, 7, 1
3, 80638, Control_c, 0, 7, 0
3, 80948, Note_off_c, 0, 50, 64
3, 80953, Note_off_c, 0, 62, 64
3, 80956, Note_off_c, 0, 54, 64
3, 80956, Note_off_c, 0, 57, 64
3, 80956, End_track
4, 0, Start_track
4, 0, Title_t, "BASS"
4, 0, Channel_prefix, 1
4, 0, Control_c, 1, 7, 79
4, 0, Control_c, 1, 10, 64
4, 0, Program_c, 1, 34
4, 0, Control_c, 1, 93, 0
4, 0, Control_c, 1, 91, 127
4, 1521, Note_on_c, 1, 38, 127
4, 1568, Note_off_c, 1, 38, 64
4, 1617, Note_on_c, 1, 38, 127
4, 1659, Note_off_c, 1, 38, 64
4, 1716, Note_on_c, 1, 38, 127
4, 1761, Note_off_c, 1, 38, 64
4, 1809, Note_on_c, 1, 38, 127
4, 1848, Note_off_c, 1, 38, 64
4, 1905, Note_on_c, 1, 38, 127
4, 1948, Note_off_c, 1, 38, 64
4, 2008, Note_on_c, 1, 38, 127
4, 2049, Note_off_c, 1, 38, 64
4, 2105, Note_on_c, 1, 38, 127
4, 2155, Note_off_c, 1, 38, 64
4, 2203, Note_on_c, 1, 38, 127
4, 2243, Note_off_c, 1, 38, 64
4, 2302, Note_on_c, 1, 38, 127
4, 2345, Note_off_c, 1, 38, 64
4, 2396, Note_on_c, 1, 38, 127
4, 2443, Note_off_c, 1, 38, 64
4, 2502, Note_on_c, 1, 38, 127
4, 2544, Note_off_c, 1, 38, 64
4, 2596, Note_on_c, 1, 38, 127
4, 2641, Note_off_c, 1, 38, 64
4, 2688, Note_on_c, 1, 38, 127
4, 2732, Note_off_c, 1, 38, 64
4, 2782, Note_on_c, 1, 38, 127
4, 2828, Note_off_c, 1, 38, 64
4, 2878, Note_on_c, 1, 38, 127
4, 2918, Note_off_c, 1, 38, 64
4, 2956, Note_on_c, 1, 38, 127
4, 3065, Note_off_c, 1, 38, 64
4, 3065, Note_on_c, 1, 31, 127
4, 3121, Note_off_c, 1, 31, 64
4, 3156, Note_on_c, 1, 31, 127
4, 3256, Note_on_c, 1, 35, 127
4, 3264, Note_off_c, 1, 31, 64
4, 3352, Note_on_c, 1, 33, 127
4, 3361, Note_off_c, 1, 35, 64
4, 3438, Note_on_c, 1, 31, 127
4, 3443, Note_off_c, 1, 33, 64
4, 3491, Note_off_c, 1, 31, 64
4, 3537, Note_on_c, 1, 31, 127
4, 3579, Note_off_c, 1, 31, 64
4, 3636, Note_on_c, 1, 31, 127
4, 3678, Note_off_c, 1, 31, 64
4, 3731, Note_on_c, 1, 31, 127
4, 3769, Note_off_c, 1, 31, 64
4, 3825, Note_on_c, 1, 31, 127
4, 3854, Note_off_c, 1, 31, 64
4, 3918, Note_on_c, 1, 31, 127
4, 4022, Note_on_c, 1, 35, 127
4, 4025, Note_off_c, 1, 31, 64
4, 4118, Note_on_c, 1, 33, 127
4, 4132, Note_off_c, 1, 35, 64
4, 4208, Note_on_c, 1, 31, 127
4, 4211, Note_off_c, 1, 33, 64
4, 4302, Note_on_c, 1, 35, 127
4, 4308, Note_off_c, 1, 31, 64
4, 4396, Note_on_c, 1, 36, 127
4, 4419, Note_off_c, 1, 35, 64
4, 4502, Note_on_c, 1, 37, 127
4, 4516, Note_off_c, 1, 36, 64
4, 4608, Note_on_c, 1, 38, 127
4, 4636, Note_off_c, 1, 37, 64
4, 4649, Note_off_c, 1, 38, 64
4, 4704, Note_on_c, 1, 38, 127
4, 4737, Note_off_c, 1, 38, 64
4, 4801, Note_on_c, 1, 38, 127
4, 4840, Note_off_c, 1, 38, 64
4, 4894, Note_on_c, 1, 38, 127
4, 4932, Note_off_c, 1, 38, 64
4, 4993, Note_on_c, 1, 38, 127
4, 5032, Note_off_c, 1, 38, 64
4, 5089, Note_on_c, 1, 38, 127
4, 5124, Note_off_c, 1, 38, 64
4, 5187, Note_on_c, 1, 38, 127
4, 5232, Note_off_c, 1, 38, 64
4, 5284, Note_on_c, 1, 38, 127
4, 5324, Note_off_c, 1, 38, 64
4, 5371, Note_on_c, 1, 38, 127
4, 5412, Note_off_c, 1, 38, 64
4, 5462, Note_on_c, 1, 38, 127
4, 5504, Note_off_c, 1, 38, 64
4, 5560, Note_on_c, 1, 38, 127
4, 5600, Note_off_c, 1, 38, 64
4, 5657, Note_on_c, 1, 38, 127
4, 5697, Note_off_c, 1, 38, 64
4, 5753, Note_on_c, 1, 38, 127
4, 5793, Note_off_c, 1, 38, 64
4, 5848, Note_on_c, 1, 38, 127
4, 5884, Note_off_c, 1, 38, 64
4, 5942, Note_on_c, 1, 38, 127
4, 5980, Note_off_c, 1, 38, 64
4, 6038, Note_on_c, 1, 38, 127
4, 6129, Note_on_c, 1, 31, 127
4, 6140, Note_off_c, 1, 38, 64
4, 6184, Note_off_c, 1, 31, 64
4, 6230, Note_on_c, 1, 31, 127
4, 6331, Note_on_c, 1, 35, 127
4, 6339, Note_off_c, 1, 31, 64
4, 6430, Note_on_c, 1, 33, 127
4, 6438, Note_off_c, 1, 35, 64
4, 6521, Note_on_c, 1, 31, 127
4, 6524, Note_off_c, 1, 33, 64
4, 6566, Note_off_c, 1, 31, 64
4, 6616, Note_on_c, 1, 31, 127
4, 6660, Note_off_c, 1, 31, 64
4, 6716, Note_on_c, 1, 31, 127
4, 6755, Note_off_c, 1, 31, 64
4, 6817, Note_on_c, 1, 31, 127
4, 6857, Note_off_c, 1, 31, 64
4, 6912, Note_on_c, 1, 31, 127
4, 6932, Note_off_c, 1, 31, 64
4, 7000, Note_on_c, 1, 31, 127
4, 7104, Note_on_c, 1, 35, 127
4, 7118, Note_off_c, 1, 31, 64
4, 7200, Note_on_c, 1, 33, 127
4, 7224, Note_off_c, 1, 35, 64
4, 7281, Note_on_c, 1, 31, 127
4, 7284, Note_off_c, 1, 33, 64
4, 7369, Note_off_c, 1, 31, 64
4, 7384, Note_on_c, 1, 35, 127
4, 7475, Note_on_c, 1, 36, 127
4, 7488, Note_off_c, 1, 35, 64
4, 7566, Note_on_c, 1, 37, 127
4, 7579, Note_off_c, 1, 36, 64
4, 7643, Note_off_c, 1, 37, 64
4, 7670, Note_on_c, 1, 38, 127
4, 7712, Note_off_c, 1, 38, 64
4, 7769, Note_on_c, 1, 38, 127
4, 7804, Note_off_c, 1, 38, 64
4, 7864, Note_on_c, 1, 38, 127
4, 7900, Note_off_c, 1, 38, 64
4, 7961, Note_on_c, 1, 38, 127
4, 8000, Note_off_c, 1, 38, 64
4, 8060, Note_on_c, 1, 38, 127
4, 8102, Note_off_c, 1, 38, 64
4, 8155, Note_on_c, 1, 38, 127
4, 8195, Note_off_c, 1, 38, 64
4, 8262, Note_on_c, 1, 38, 127
4, 8304, Note_off_c, 1, 38, 64
4, 8353, Note_on_c, 1, 38, 127
4, 8398, Note_off_c, 1, 38, 64
4, 8464, Note_on_c, 1, 38, 127
4, 8504, Note_off_c, 1, 38, 64
4, 8558, Note_on_c, 1, 38, 127
4, 8600, Note_off_c, 1, 38, 64
4, 8659, Note_on_c, 1, 38, 127
4, 8702, Note_off_c, 1, 38, 64
4, 8752, Note_on_c, 1, 38, 127
4, 8793, Note_off_c, 1, 38, 64
4, 8843, Note_on_c, 1, 38, 127
4, 8888, Note_off_c, 1, 38, 64
4, 8936, Note_on_c, 1, 38, 127
4, 8976, Note_off_c, 1, 38, 64
4, 9036, Note_on_c, 1, 38, 127
4, 9076, Note_off_c, 1, 38, 64
4, 9123, Note_on_c, 1, 38, 127
4, 9156, Note_off_c, 1, 38, 64
4, 9228, Note_on_c, 1, 31, 127
4, 9278, Note_off_c, 1, 31, 64
4, 9316, Note_on_c, 1, 31, 127
4, 9400, Note_off_c, 1, 31, 64
4, 9419, Note_on_c, 1, 35, 127
4, 9504, Note_off_c, 1, 35, 64
4, 9510, Note_on_c, 1, 33, 127
4, 9603, Note_off_c, 1, 33, 64
4, 9604, Note_on_c, 1, 31, 127
4, 9646, Note_off_c, 1, 31, 64
4, 9697, Note_on_c, 1, 31, 127
4, 9740, Note_off_c, 1, 31, 64
4, 9798, Note_on_c, 1, 31, 127
4, 9838, Note_off_c, 1, 31, 64
4, 9888, Note_on_c, 1, 31, 127
4, 9928, Note_off_c, 1, 31, 64
4, 9987, Note_on_c, 1, 31, 127
4, 10024, Note_off_c, 1, 31, 64
4, 10081, Note_on_c, 1, 31, 127
4, 10187, Note_on_c, 1, 35, 127
4, 10190, Note_off_c, 1, 31, 64
4, 10281, Note_on_c, 1, 33, 127
4, 10305, Note_off_c, 1, 35, 64
4, 10364, Note_on_c, 1, 31, 127
4, 10369, Note_off_c, 1, 33, 64
4, 10454, Note_off_c, 1, 31, 64
4, 10462, Note_on_c, 1, 35, 127
4, 10548, Note_off_c, 1, 35, 64
4, 10548, Note_on_c, 1, 36, 127
4, 10644, Note_on_c, 1, 37, 127
4, 10651, Note_off_c, 1, 36, 64
4, 10744, Note_off_c, 1, 37, 64
4, 10745, Note_on_c, 1, 38, 127
4, 10790, Note_off_c, 1, 38, 64
4, 10849, Note_on_c, 1, 38, 127
4, 10886, Note_off_c, 1, 38, 64
4, 10952, Note_on_c, 1, 38, 127
4, 10988, Note_off_c, 1, 38, 64
4, 11043, Note_on_c, 1, 38, 127
4, 11083, Note_off_c, 1, 38, 64
4, 11142, Note_on_c, 1, 38, 127
4, 11180, Note_off_c, 1, 38, 64
4, 11238, Note_on_c, 1, 38, 127
4, 11275, Note_off_c, 1, 38, 64
4, 11334, Note_on_c, 1, 38, 127
4, 11372, Note_off_c, 1, 38, 64
4, 11427, Note_on_c, 1, 38, 127
4, 11457, Note_off_c, 1, 38, 64
4, 11523, Note_on_c, 1, 38, 127
4, 11564, Note_off_c, 1, 38, 64
4, 11614, Note_on_c, 1, 38, 127
4, 11649, Note_off_c, 1, 38, 64
4, 11708, Note_on_c, 1, 38, 127
4, 11748, Note_off_c, 1, 38, 64
4, 11804, Note_on_c, 1, 38, 127
4, 11846, Note_off_c, 1, 38, 64
4, 11907, Note_on_c, 1, 38, 127
4, 11947, Note_off_c, 1, 38, 64
4, 12004, Note_on_c, 1, 38, 127
4, 12044, Note_off_c, 1, 38, 64
4, 12100, Note_on_c, 1, 38, 127
4, 12144, Note_off_c, 1, 38, 64
4, 12193, Note_on_c, 1, 38, 127
4, 12262, Note_off_c, 1, 38, 64
4, 12292, Note_on_c, 1, 31, 127
4, 12336, Note_off_c, 1, 31, 64
4, 12380, Note_on_c, 1, 31, 127
4, 12470, Note_off_c, 1, 31, 64
4, 12483, Note_on_c, 1, 35, 127
4, 12576, Note_off_c, 1, 35, 64
4, 12577, Note_on_c, 1, 33, 127
4, 12672, Note_on_c, 1, 31, 127
4, 12680, Note_off_c, 1, 33, 64
4, 12715, Note_off_c, 1, 31, 64
4, 12768, Note_on_c, 1, 31, 127
4, 12811, Note_off_c, 1, 31, 64
4, 12867, Note_on_c, 1, 31, 127
4, 12907, Note_off_c, 1, 31, 64
4, 12960, Note_on_c, 1, 31, 127
4, 13001, Note_off_c, 1, 31, 64
4, 13068, Note_on_c, 1, 31, 127
4, 13115, Note_off_c, 1, 31, 64
4, 13156, Note_on_c, 1, 31, 127
4, 13256, Note_off_c, 1, 31, 64
4, 13259, Note_on_c, 1, 35, 127
4, 13334, Note_off_c, 1, 35, 64
4, 13352, Note_on_c, 1, 33, 127
4, 13448, Note_off_c, 1, 33, 64
4, 13449, Note_on_c, 1, 31, 127
4, 13499, Note_off_c, 1, 31, 64
4, 13540, Note_on_c, 1, 31, 127
4, 13584, Note_off_c, 1, 31, 64
4, 13648, Note_on_c, 1, 31, 127
4, 13680, Note_off_c, 1, 31, 64
4, 13734, Note_on_c, 1, 31, 127
4, 13748, Note_off_c, 1, 31, 64
4, 13830, Note_on_c, 1, 36, 127
4, 13875, Note_off_c, 1, 36, 64
4, 13928, Note_on_c, 1, 36, 127
4, 13971, Note_off_c, 1, 36, 64
4, 14022, Note_on_c, 1, 36, 127
4, 14068, Note_off_c, 1, 36, 64
4, 14121, Note_on_c, 1, 36, 127
4, 14166, Note_off_c, 1, 36, 64
4, 14219, Note_on_c, 1, 36, 127
4, 14264, Note_off_c, 1, 36, 64
4, 14313, Note_on_c, 1, 36, 127
4, 14355, Note_off_c, 1, 36, 64
4, 14409, Note_on_c, 1, 36, 127
4, 14454, Note_off_c, 1, 36, 64
4, 14505, Note_on_c, 1, 36, 127
4, 14548, Note_off_c, 1, 36, 64
4, 14598, Note_on_c, 1, 36, 127
4, 14641, Note_off_c, 1, 36, 64
4, 14697, Note_on_c, 1, 36, 127
4, 14744, Note_off_c, 1, 36, 64
4, 14792, Note_on_c, 1, 36, 127
4, 14836, Note_off_c, 1, 36, 64
4, 14886, Note_on_c, 1, 36, 127
4, 14931, Note_off_c, 1, 36, 64
4, 14982, Note_on_c, 1, 36, 127
4, 15028, Note_off_c, 1, 36, 64
4, 15080, Note_on_c, 1, 36, 127
4, 15126, Note_off_c, 1, 36, 64
4, 15174, Note_on_c, 1, 36, 127
4, 15225, Note_off_c, 1, 36, 64
4, 15272, Note_on_c, 1, 36, 127
4, 15315, Note_off_c, 1, 36, 64
4, 15369, Note_on_c, 1, 38, 127
4, 15414, Note_off_c, 1, 38, 64
4, 15472, Note_on_c, 1, 38, 127
4, 15516, Note_off_c, 1, 38, 64
4, 15569, Note_on_c, 1, 38, 127
4, 15608, Note_off_c, 1, 38, 64
4, 15660, Note_on_c, 1, 38, 127
4, 15692, Note_off_c, 1, 38, 64
4, 15760, Note_on_c, 1, 38, 127
4, 15800, Note_off_c, 1, 38, 64
4, 15854, Note_on_c, 1, 38, 127
4, 15889, Note_off_c, 1, 38, 64
4, 15952, Note_on_c, 1, 38, 127
4, 15993, Note_off_c, 1, 38, 64
4, 16044, Note_on_c, 1, 38, 127
4, 16084, Note_off_c, 1, 38, 64
4, 16137, Note_on_c, 1, 38, 127
4, 16176, Note_off_c, 1, 38, 64
4, 16232, Note_on_c, 1, 38, 127
4, 16273, Note_off_c, 1, 38, 64
4, 16323, Note_on_c, 1, 38, 127
4, 16361, Note_off_c, 1, 38, 64
4, 16419, Note_on_c, 1, 38, 127
4, 16460, Note_off_c, 1, 38, 64
4, 16515, Note_on_c, 1, 38, 127
4, 16553, Note_off_c, 1, 38, 64
4, 16609, Note_on_c, 1, 38, 127
4, 16654, Note_off_c, 1, 38, 64
4, 16700, Note_on_c, 1, 38, 127
4, 16744, Note_off_c, 1, 38, 64
4, 16795, Note_on_c, 1, 38, 127
4, 16833, Note_off_c, 1, 38, 64
4, 16904, Note_on_c, 1, 33, 127
4, 16944, Note_off_c, 1, 33, 64
4, 17003, Note_on_c, 1, 33, 127
4, 17040, Note_off_c, 1, 33, 64
4, 17094, Note_on_c, 1, 33, 127
4, 17128, Note_off_c, 1, 33, 64
4, 17192, Note_on_c, 1, 33, 127
4, 17228, Note_off_c, 1, 33, 64
4, 17286, Note_on_c, 1, 33, 127
4, 17321, Note_off_c, 1, 33, 64
4, 17384, Note_on_c, 1, 33, 127
4, 17448, Note_off_c, 1, 33, 64
4, 17480, Note_on_c, 1, 36, 127
4, 17579, Note_on_c, 1, 38, 127
4, 17592, Note_off_c, 1, 36, 64
4, 17672, Note_off_c, 1, 38, 64
4, 17676, Note_on_c, 1, 28, 127
4, 17726, Note_off_c, 1, 28, 64
4, 17772, Note_on_c, 1, 28, 127
4, 17811, Note_off_c, 1, 28, 64
4, 17868, Note_on_c, 1, 28, 127
4, 17912, Note_off_c, 1, 28, 64
4, 17960, Note_on_c, 1, 28, 127
4, 17996, Note_off_c, 1, 28, 64
4, 18059, Note_on_c, 1, 28, 127
4, 18097, Note_off_c, 1, 28, 64
4, 18147, Note_on_c, 1, 28, 127
4, 18185, Note_off_c, 1, 28, 64
4, 18243, Note_on_c, 1, 28, 127
4, 18283, Note_off_c, 1, 28, 64
4, 18339, Note_on_c, 1, 28, 127
4, 18388, Note_off_c, 1, 28, 64
4, 18435, Note_on_c, 1, 38, 127
4, 18478, Note_off_c, 1, 38, 64
4, 18534, Note_on_c, 1, 38, 127
4, 18574, Note_off_c, 1, 38, 64
4, 18628, Note_on_c, 1, 38, 127
4, 18665, Note_off_c, 1, 38, 64
4, 18721, Note_on_c, 1, 38, 127
4, 18758, Note_off_c, 1, 38, 64
4, 18814, Note_on_c, 1, 38, 127
4, 18854, Note_off_c, 1, 38, 64
4, 18913, Note_on_c, 1, 38, 127
4, 18955, Note_off_c, 1, 38, 64
4, 19011, Note_on_c, 1, 38, 127
4, 19051, Note_off_c, 1, 38, 64
4, 19108, Note_on_c, 1, 38, 127
4, 19148, Note_off_c, 1, 38, 64
4, 19209, Note_on_c, 1, 38, 127
4, 19248, Note_off_c, 1, 38, 64
4, 19304, Note_on_c, 1, 38, 127
4, 19340, Note_off_c, 1, 38, 64
4, 19400, Note_on_c, 1, 38, 127
4, 19435, Note_off_c, 1, 38, 64
4, 19491, Note_on_c, 1, 38, 127
4, 19529, Note_off_c, 1, 38, 64
4, 19588, Note_on_c, 1, 38, 127
4, 19628, Note_off_c, 1, 38, 64
4, 19681, Note_on_c, 1, 38, 127
4, 19723, Note_off_c, 1, 38, 64
4, 19771, Note_on_c, 1, 38, 127
4, 19811, Note_off_c, 1, 38, 64
4, 19862, Note_on_c, 1, 38, 127
4, 19897, Note_off_c, 1, 38, 64
4, 19968, Note_on_c, 1, 36, 127
4, 20027, Note_off_c, 1, 36, 64
4, 20070, Note_on_c, 1, 36, 127
4, 20137, Note_off_c, 1, 36, 64
4, 20169, Note_on_c, 1, 28, 127
4, 20230, Note_off_c, 1, 28, 64
4, 20262, Note_on_c, 1, 28, 127
4, 20355, Note_off_c, 1, 28, 64
4, 20363, Note_on_c, 1, 29, 127
4, 20414, Note_off_c, 1, 29, 64
4, 20454, Note_on_c, 1, 29, 127
4, 20520, Note_off_c, 1, 29, 64
4, 20552, Note_on_c, 1, 30, 127
4, 20608, Note_off_c, 1, 30, 64
4, 20651, Note_on_c, 1, 30, 127
4, 20734, Note_off_c, 1, 30, 64
4, 20740, Note_on_c, 1, 31, 127
4, 20825, Note_off_c, 1, 31, 64
4, 20832, Note_on_c, 1, 31, 127
4, 20889, Note_off_c, 1, 31, 64
4, 20931, Note_on_c, 1, 35, 127
4, 20992, Note_off_c, 1, 35, 64
4, 21025, Note_on_c, 1, 35, 127
4, 21076, Note_off_c, 1, 35, 64
4, 21118, Note_on_c, 1, 36, 127
4, 21176, Note_off_c, 1, 36, 64
4, 21212, Note_on_c, 1, 36, 127
4, 21276, Note_off_c, 1, 36, 64
4, 21313, Note_on_c, 1, 37, 127
4, 21376, Note_off_c, 1, 37, 64
4, 21404, Note_on_c, 1, 37, 127
4, 21464, Note_off_c, 1, 37, 64
4, 21510, Note_on_c, 1, 38, 127
4, 21560, Note_off_c, 1, 38, 64
4, 21608, Note_on_c, 1, 38, 127
4, 21656, Note_off_c, 1, 38, 64
4, 21702, Note_on_c, 1, 38, 127
4, 21748, Note_off_c, 1, 38, 64
4, 21803, Note_on_c, 1, 38, 127
4, 21849, Note_off_c, 1, 38, 64
4, 21900, Note_on_c, 1, 38, 127
4, 21950, Note_off_c, 1, 38, 64
4, 22000, Note_on_c, 1, 38, 127
4, 22044, Note_off_c, 1, 38, 64
4, 22092, Note_on_c, 1, 38, 127
4, 22140, Note_off_c, 1, 38, 64
4, 22188, Note_on_c, 1, 38, 127
4, 22241, Note_off_c, 1, 38, 64
4, 22283, Note_on_c, 1, 38, 127
4, 22328, Note_off_c, 1, 38, 64
4, 22379, Note_on_c, 1, 38, 127
4, 22438, Note_off_c, 1, 38, 64
4, 22473, Note_on_c, 1, 35, 127
4, 22532, Note_off_c, 1, 35, 64
4, 22566, Note_on_c, 1, 35, 127
4, 22622, Note_off_c, 1, 35, 64
4, 22662, Note_on_c, 1, 36, 127
4, 22713, Note_off_c, 1, 36, 64
4, 22748, Note_on_c, 1, 36, 127
4, 22792, Note_off_c, 1, 36, 64
4, 22851, Note_on_c, 1, 37, 127
4, 22907, Note_off_c, 1, 37, 64
4, 22942, Note_on_c, 1, 37, 127
4, 22992, Note_off_c, 1, 37, 64
4, 23036, Note_on_c, 1, 38, 127
4, 23083, Note_off_c, 1, 38, 64
4, 23132, Note_on_c, 1, 38, 127
4, 23177, Note_off_c, 1, 38, 64
4, 23228, Note_on_c, 1, 38, 127
4, 23278, Note_off_c, 1, 38, 64
4, 23324, Note_on_c, 1, 38, 127
4, 23368, Note_off_c, 1, 38, 64
4, 23420, Note_on_c, 1, 38, 127
4, 23470, Note_off_c, 1, 38, 64
4, 23515, Note_on_c, 1, 38, 127
4, 23564, Note_off_c, 1, 38, 64
4, 23616, Note_on_c, 1, 38, 127
4, 23662, Note_off_c, 1, 38, 64
4, 23712, Note_on_c, 1, 38, 127
4, 23760, Note_off_c, 1, 38, 64
4, 23809, Note_on_c, 1, 38, 127
4, 23857, Note_off_c, 1, 38, 64
4, 23905, Note_on_c, 1, 38, 127
4, 23956, Note_off_c, 1, 38, 64
4, 24003, Note_on_c, 1, 38, 127
4, 24052, Note_off_c, 1, 38, 64
4, 24100, Note_on_c, 1, 38, 127
4, 24148, Note_off_c, 1, 38, 64
4, 24195, Note_on_c, 1, 38, 127
4, 24244, Note_off_c, 1, 38, 64
4, 24292, Note_on_c, 1, 38, 127
4, 24342, Note_off_c, 1, 38, 64
4, 24388, Note_on_c, 1, 38, 127
4, 24441, Note_off_c, 1, 38, 64
4, 24481, Note_on_c, 1, 38, 127
4, 24563, Note_off_c, 1, 38, 64
4, 24582, Note_on_c, 1, 31, 127
4, 24632, Note_off_c, 1, 31, 64
4, 24675, Note_on_c, 1, 31, 127
4, 24758, Note_off_c, 1, 31, 64
4, 24774, Note_on_c, 1, 35, 127
4, 24868, Note_off_c, 1, 35, 64
4, 24868, Note_on_c, 1, 33, 127
4, 24956, Note_off_c, 1, 33, 64
4, 24956, Note_on_c, 1, 31, 127
4, 25003, Note_off_c, 1, 31, 64
4, 25052, Note_on_c, 1, 31, 127
4, 25097, Note_off_c, 1, 31, 64
4, 25150, Note_on_c, 1, 31, 127
4, 25195, Note_off_c, 1, 31, 64
4, 25246, Note_on_c, 1, 31, 127
4, 25291, Note_off_c, 1, 31, 64
4, 25344, Note_on_c, 1, 31, 127
4, 25380, Note_off_c, 1, 31, 64
4, 25441, Note_on_c, 1, 31, 127
4, 25540, Note_off_c, 1, 31, 64
4, 25540, Note_on_c, 1, 35, 127
4, 25632, Note_off_c, 1, 35, 64
4, 25635, Note_on_c, 1, 33, 127
4, 25720, Note_off_c, 1, 33, 64
4, 25728, Note_on_c, 1, 31, 127
4, 25777, Note_off_c, 1, 31, 64
4, 25828, Note_on_c, 1, 31, 127
4, 25872, Note_off_c, 1, 31, 64
4, 25923, Note_on_c, 1, 31, 127
4, 25961, Note_off_c, 1, 31, 64
4, 26019, Note_on_c, 1, 31, 127
4, 26100, Note_off_c, 1, 31, 64
4, 26113, Note_on_c, 1, 38, 127
4, 26158, Note_off_c, 1, 38, 64
4, 26203, Note_on_c, 1, 38, 127
4, 26249, Note_off_c, 1, 38, 64
4, 26302, Note_on_c, 1, 38, 127
4, 26352, Note_off_c, 1, 38, 64
4, 26400, Note_on_c, 1, 38, 127
4, 26451, Note_off_c, 1, 38, 64
4, 26504, Note_on_c, 1, 38, 127
4, 26548, Note_off_c, 1, 38, 64
4, 26601, Note_on_c, 1, 38, 127
4, 26644, Note_off_c, 1, 38, 64
4, 26697, Note_on_c, 1, 38, 127
4, 26744, Note_off_c, 1, 38, 64
4, 26793, Note_on_c, 1, 38, 127
4, 26840, Note_off_c, 1, 38, 64
4, 26892, Note_on_c, 1, 38, 127
4, 26932, Note_off_c, 1, 38, 64
4, 26980, Note_on_c, 1, 38, 127
4, 27025, Note_off_c, 1, 38, 64
4, 27076, Note_on_c, 1, 38, 127
4, 27123, Note_off_c, 1, 38, 64
4, 27169, Note_on_c, 1, 38, 127
4, 27219, Note_off_c, 1, 38, 64
4, 27265, Note_on_c, 1, 38, 127
4, 27320, Note_off_c, 1, 38, 64
4, 27366, Note_on_c, 1, 38, 127
4, 27414, Note_off_c, 1, 38, 64
4, 27467, Note_on_c, 1, 38, 127
4, 27510, Note_off_c, 1, 38, 64
4, 27556, Note_on_c, 1, 38, 127
4, 27651, Note_off_c, 1, 38, 64
4, 27657, Note_on_c, 1, 31, 127
4, 27705, Note_off_c, 1, 31, 64
4, 27750, Note_on_c, 1, 31, 127
4, 27840, Note_off_c, 1, 31, 64
4, 27843, Note_on_c, 1, 35, 127
4, 27924, Note_off_c, 1, 35, 64
4, 27932, Note_on_c, 1, 33, 127
4, 28019, Note_off_c, 1, 33, 64
4, 28027, Note_on_c, 1, 31, 127
4, 28075, Note_off_c, 1, 31, 64
4, 28126, Note_on_c, 1, 31, 127
4, 28166, Note_off_c, 1, 31, 64
4, 28220, Note_on_c, 1, 31, 127
4, 28270, Note_off_c, 1, 31, 64
4, 28318, Note_on_c, 1, 31, 127
4, 28374, Note_off_c, 1, 31, 64
4, 28417, Note_on_c, 1, 31, 127
4, 28460, Note_off_c, 1, 31, 64
4, 28515, Note_on_c, 1, 31, 127
4, 28592, Note_off_c, 1, 31, 64
4, 28614, Note_on_c, 1, 35, 127
4, 28699, Note_off_c, 1, 35, 64
4, 28712, Note_on_c, 1, 33, 127
4, 28785, Note_off_c, 1, 33, 64
4, 28798, Note_on_c, 1, 31, 127
4, 28848, Note_off_c, 1, 31, 64
4, 28894, Note_on_c, 1, 31, 127
4, 28932, Note_off_c, 1, 31, 64
4, 28993, Note_on_c, 1, 31, 127
4, 29035, Note_off_c, 1, 31, 64
4, 29088, Note_on_c, 1, 31, 127
4, 29171, Note_off_c, 1, 31, 64
4, 29188, Note_on_c, 1, 38, 127
4, 29238, Note_off_c, 1, 38, 64
4, 29278, Note_on_c, 1, 38, 127
4, 29329, Note_off_c, 1, 38, 64
4, 29384, Note_on_c, 1, 38, 127
4, 29432, Note_off_c, 1, 38, 64
4, 29476, Note_on_c, 1, 38, 127
4, 29518, Note_off_c, 1, 38, 64
4, 29576, Note_on_c, 1, 38, 127
4, 29627, Note_off_c, 1, 38, 64
4, 29670, Note_on_c, 1, 38, 127
4, 29716, Note_off_c, 1, 38, 64
4, 29766, Note_on_c, 1, 38, 127
4, 29817, Note_off_c, 1, 38, 64
4, 29867, Note_on_c, 1, 38, 127
4, 29916, Note_off_c, 1, 38, 64
4, 29964, Note_on_c, 1, 38, 127
4, 30012, Note_off_c, 1, 38, 64
4, 30065, Note_on_c, 1, 38, 127
4, 30113, Note_off_c, 1, 38, 64
4, 30158, Note_on_c, 1, 38, 127
4, 30209, Note_off_c, 1, 38, 64
4, 30252, Note_on_c, 1, 38, 127
4, 30299, Note_off_c, 1, 38, 64
4, 30344, Note_on_c, 1, 38, 127
4, 30388, Note_off_c, 1, 38, 64
4, 30436, Note_on_c, 1, 38, 127
4, 30481, Note_off_c, 1, 38, 64
4, 30532, Note_on_c, 1, 38, 127
4, 30579, Note_off_c, 1, 38, 64
4, 30619, Note_on_c, 1, 38, 127
4, 30713, Note_off_c, 1, 38, 64
4, 30718, Note_on_c, 1, 31, 127
4, 30755, Note_off_c, 1, 31, 64
4, 30808, Note_on_c, 1, 31, 127
4, 30915, Note_on_c, 1, 35, 127
4, 30920, Note_off_c, 1, 31, 64
4, 31012, Note_on_c, 1, 33, 127
4, 31017, Note_off_c, 1, 35, 64
4, 31105, Note_off_c, 1, 33, 64
4, 31105, Note_on_c, 1, 31, 127
4, 31155, Note_off_c, 1, 31, 64
4, 31200, Note_on_c, 1, 31, 127
4, 31246, Note_off_c, 1, 31, 64
4, 31292, Note_on_c, 1, 31, 127
4, 31342, Note_off_c, 1, 31, 64
4, 31388, Note_on_c, 1, 31, 127
4, 31432, Note_off_c, 1, 31, 64
4, 31488, Note_on_c, 1, 31, 127
4, 31515, Note_off_c, 1, 31, 64
4, 31574, Note_on_c, 1, 31, 127
4, 31672, Note_off_c, 1, 31, 64
4, 31681, Note_on_c, 1, 35, 127
4, 31772, Note_off_c, 1, 35, 64
4, 31774, Note_on_c, 1, 33, 127
4, 31856, Note_off_c, 1, 33, 64
4, 31862, Note_on_c, 1, 31, 127
4, 31910, Note_off_c, 1, 31, 64
4, 31968, Note_on_c, 1, 31, 127
4, 32008, Note_off_c, 1, 31, 64
4, 32062, Note_on_c, 1, 31, 127
4, 32152, Note_off_c, 1, 31, 64
4, 32156, Note_on_c, 1, 35, 127
4, 32235, Note_on_c, 1, 36, 127
4, 32236, Note_off_c, 1, 35, 64
4, 32262, Note_on_c, 1, 36, 127
4, 32270, Note_off_c, 1, 36, 64
4, 32310, Note_off_c, 1, 36, 64
4, 32352, Note_on_c, 1, 36, 127
4, 32398, Note_off_c, 1, 36, 64
4, 32446, Note_on_c, 1, 36, 127
4, 32491, Note_off_c, 1, 36, 64
4, 32540, Note_on_c, 1, 36, 127
4, 32584, Note_off_c, 1, 36, 64
4, 32638, Note_on_c, 1, 36, 127
4, 32684, Note_off_c, 1, 36, 64
4, 32732, Note_on_c, 1, 36, 127
4, 32774, Note_off_c, 1, 36, 64
4, 32822, Note_on_c, 1, 36, 127
4, 32865, Note_off_c, 1, 36, 64
4, 32915, Note_on_c, 1, 36, 127
4, 32963, Note_off_c, 1, 36, 64
4, 33011, Note_on_c, 1, 36, 127
4, 33052, Note_off_c, 1, 36, 64
4, 33107, Note_on_c, 1, 36, 127
4, 33155, Note_off_c, 1, 36, 64
4, 33212, Note_on_c, 1, 36, 127
4, 33256, Note_off_c, 1, 36, 64
4, 33307, Note_on_c, 1, 36, 127
4, 33348, Note_off_c, 1, 36, 64
4, 33404, Note_on_c, 1, 36, 127
4, 33452, Note_off_c, 1, 36, 64
4, 33504, Note_on_c, 1, 36, 127
4, 33545, Note_off_c, 1, 36, 64
4, 33601, Note_on_c, 1, 36, 127
4, 33646, Note_off_c, 1, 36, 64
4, 33697, Note_on_c, 1, 36, 127
4, 33784, Note_off_c, 1, 36, 64
4, 33793, Note_on_c, 1, 38, 127
4, 33844, Note_off_c, 1, 38, 64
4, 33891, Note_on_c, 1, 38, 127
4, 33934, Note_off_c, 1, 38, 64
4, 33987, Note_on_c, 1, 38, 127
4, 34033, Note_off_c, 1, 38, 64
4, 34081, Note_on_c, 1, 38, 127
4, 34123, Note_off_c, 1, 38, 64
4, 34179, Note_on_c, 1, 38, 127
4, 34220, Note_off_c, 1, 38, 64
4, 34273, Note_on_c, 1, 38, 127
4, 34313, Note_off_c, 1, 38, 64
4, 34372, Note_on_c, 1, 38, 127
4, 34406, Note_off_c, 1, 38, 64
4, 34460, Note_on_c, 1, 38, 127
4, 34499, Note_off_c, 1, 38, 64
4, 34560, Note_on_c, 1, 38, 127
4, 34596, Note_off_c, 1, 38, 64
4, 34660, Note_on_c, 1, 38, 127
4, 34696, Note_off_c, 1, 38, 64
4, 34756, Note_on_c, 1, 38, 127
4, 34795, Note_off_c, 1, 38, 64
4, 34848, Note_on_c, 1, 38, 127
4, 34886, Note_off_c, 1, 38, 64
4, 34936, Note_on_c, 1, 38, 127
4, 34980, Note_off_c, 1, 38, 64
4, 35035, Note_on_c, 1, 38, 127
4, 35075, Note_off_c, 1, 38, 64
4, 35129, Note_on_c, 1, 38, 127
4, 35171, Note_off_c, 1, 38, 64
4, 35233, Note_on_c, 1, 38, 127
4, 35321, Note_off_c, 1, 38, 64
4, 35332, Note_on_c, 1, 33, 127
4, 35385, Note_off_c, 1, 33, 64
4, 35432, Note_on_c, 1, 33, 127
4, 35476, Note_off_c, 1, 33, 64
4, 35528, Note_on_c, 1, 33, 127
4, 35571, Note_off_c, 1, 33, 64
4, 35619, Note_on_c, 1, 33, 127
4, 35662, Note_off_c, 1, 33, 64
4, 35713, Note_on_c, 1, 33, 127
4, 35756, Note_off_c, 1, 33, 64
4, 35808, Note_on_c, 1, 33, 127
4, 35908, Note_on_c, 1, 36, 127
4, 35928, Note_off_c, 1, 33, 64
4, 36006, Note_on_c, 1, 38, 127
4, 36027, Note_off_c, 1, 36, 64
4, 36092, Note_off_c, 1, 38, 64
4, 36104, Note_on_c, 1, 28, 127
4, 36158, Note_off_c, 1, 28, 64
4, 36195, Note_on_c, 1, 28, 127
4, 36246, Note_off_c, 1, 28, 64
4, 36289, Note_on_c, 1, 28, 127
4, 36345, Note_off_c, 1, 28, 64
4, 36384, Note_on_c, 1, 28, 127
4, 36438, Note_off_c, 1, 28, 64
4, 36472, Note_on_c, 1, 28, 127
4, 36523, Note_off_c, 1, 28, 64
4, 36572, Note_on_c, 1, 28, 127
4, 36622, Note_off_c, 1, 28, 64
4, 36665, Note_on_c, 1, 28, 127
4, 36724, Note_off_c, 1, 28, 64
4, 36768, Note_on_c, 1, 28, 127
4, 36859, Note_off_c, 1, 28, 64
4, 36868, Note_on_c, 1, 38, 127
4, 36916, Note_off_c, 1, 38, 64
4, 36966, Note_on_c, 1, 38, 127
4, 37012, Note_off_c, 1, 38, 64
4, 37060, Note_on_c, 1, 38, 127
4, 37102, Note_off_c, 1, 38, 64
4, 37148, Note_on_c, 1, 38, 127
4, 37193, Note_off_c, 1, 38, 64
4, 37244, Note_on_c, 1, 38, 127
4, 37291, Note_off_c, 1, 38, 64
4, 37340, Note_on_c, 1, 38, 127
4, 37385, Note_off_c, 1, 38, 64
4, 37435, Note_on_c, 1, 38, 127
4, 37476, Note_off_c, 1, 38, 64
4, 37529, Note_on_c, 1, 38, 127
4, 37574, Note_off_c, 1, 38, 64
4, 37630, Note_on_c, 1, 38, 127
4, 37673, Note_off_c, 1, 38, 64
4, 37731, Note_on_c, 1, 38, 127
4, 37774, Note_off_c, 1, 38, 64
4, 37827, Note_on_c, 1, 38, 127
4, 37870, Note_off_c, 1, 38, 64
4, 37924, Note_on_c, 1, 38, 127
4, 37968, Note_off_c, 1, 38, 64
4, 38022, Note_on_c, 1, 38, 127
4, 38065, Note_off_c, 1, 38, 64
4, 38115, Note_on_c, 1, 38, 127
4, 38158, Note_off_c, 1, 38, 64
4, 38204, Note_on_c, 1, 38, 127
4, 38251, Note_off_c, 1, 38, 64
4, 38297, Note_on_c, 1, 38, 127
4, 38396, Note_on_c, 1, 36, 127
4, 38406, Note_off_c, 1, 38, 64
4, 38449, Note_off_c, 1, 36, 64
4, 38496, Note_on_c, 1, 36, 127
4, 38584, Note_off_c, 1, 36, 64
4, 38587, Note_on_c, 1, 28, 127
4, 38648, Note_off_c, 1, 28, 64
4, 38686, Note_on_c, 1, 28, 127
4, 38777, Note_off_c, 1, 28, 64
4, 38782, Note_on_c, 1, 29, 127
4, 38828, Note_off_c, 1, 29, 64
4, 38870, Note_on_c, 1, 29, 127
4, 38929, Note_off_c, 1, 29, 64
4, 38963, Note_on_c, 1, 30, 127
4, 39022, Note_off_c, 1, 30, 64
4, 39062, Note_on_c, 1, 30, 127
4, 39120, Note_off_c, 1, 30, 64
4, 39161, Note_on_c, 1, 31, 127
4, 39216, Note_off_c, 1, 31, 64
4, 39264, Note_on_c, 1, 31, 127
4, 39302, Note_off_c, 1, 31, 64
4, 39361, Note_on_c, 1, 35, 127
4, 39409, Note_off_c, 1, 35, 64
4, 39451, Note_on_c, 1, 35, 127
4, 39497, Note_off_c, 1, 35, 64
4, 39547, Note_on_c, 1, 36, 127
4, 39593, Note_off_c, 1, 36, 64
4, 39638, Note_on_c, 1, 36, 127
4, 39692, Note_off_c, 1, 36, 64
4, 39737, Note_on_c, 1, 37, 127
4, 39792, Note_off_c, 1, 37, 64
4, 39833, Note_on_c, 1, 37, 127
4, 39891, Note_off_c, 1, 37, 64
4, 39929, Note_on_c, 1, 38, 127
4, 39934, Note_on_c, 1, 38, 127
4, 39976, Note_off_c, 1, 38, 64
4, 39977, Note_off_c, 1, 38, 64
4, 40022, Note_on_c, 1, 38, 127
4, 40064, Note_off_c, 1, 38, 64
4, 40118, Note_on_c, 1, 38, 127
4, 40158, Note_off_c, 1, 38, 64
4, 40212, Note_on_c, 1, 38, 127
4, 40254, Note_off_c, 1, 38, 64
4, 40308, Note_on_c, 1, 38, 127
4, 40348, Note_off_c, 1, 38, 64
4, 40408, Note_on_c, 1, 38, 127
4, 40448, Note_off_c, 1, 38, 64
4, 40502, Note_on_c, 1, 38, 127
4, 40540, Note_off_c, 1, 38, 64
4, 40596, Note_on_c, 1, 38, 127
4, 40638, Note_off_c, 1, 38, 64
4, 40700, Note_on_c, 1, 38, 127
4, 40740, Note_off_c, 1, 38, 64
4, 40793, Note_on_c, 1, 38, 127
4, 40849, Note_off_c, 1, 38, 64
4, 40888, Note_on_c, 1, 35, 127
4, 40942, Note_off_c, 1, 35, 64
4, 40979, Note_on_c, 1, 35, 127
4, 41032, Note_off_c, 1, 35, 64
4, 41083, Note_on_c, 1, 36, 127
4, 41132, Note_off_c, 1, 36, 64
4, 41180, Note_on_c, 1, 36, 127
4, 41233, Note_off_c, 1, 36, 64
4, 41284, Note_on_c, 1, 37, 127
4, 41336, Note_off_c, 1, 37, 64
4, 41377, Note_on_c, 1, 37, 127
4, 41425, Note_off_c, 1, 37, 64
4, 41470, Note_on_c, 1, 38, 127
4, 41510, Note_off_c, 1, 38, 64
4, 41566, Note_on_c, 1, 38, 127
4, 41604, Note_off_c, 1, 38, 64
4, 41665, Note_on_c, 1, 38, 127
4, 41699, Note_off_c, 1, 38, 64
4, 41758, Note_on_c, 1, 38, 127
4, 41795, Note_off_c, 1, 38, 64
4, 41851, Note_on_c, 1, 38, 127
4, 41888, Note_off_c, 1, 38, 64
4, 41950, Note_on_c, 1, 38, 127
4, 41984, Note_off_c, 1, 38, 64
4, 42046, Note_on_c, 1, 38, 127
4, 42089, Note_off_c, 1, 38, 64
4, 42144, Note_on_c, 1, 38, 127
4, 42179, Note_off_c, 1, 38, 64
4, 42248, Note_on_c, 1, 38, 127
4, 42284, Note_off_c, 1, 38, 64
4, 42344, Note_on_c, 1, 38, 127
4, 42380, Note_off_c, 1, 38, 64
4, 42441, Note_on_c, 1, 38, 127
4, 42476, Note_off_c, 1, 38, 64
4, 42537, Note_on_c, 1, 38, 127
4, 42572, Note_off_c, 1, 38, 64
4, 42636, Note_on_c, 1, 38, 127
4, 42670, Note_off_c, 1, 38, 64
4, 42723, Note_on_c, 1, 38, 127
4, 42760, Note_off_c, 1, 38, 64
4, 42820, Note_on_c, 1, 38, 127
4, 42856, Note_off_c, 1, 38, 64
4, 42920, Note_on_c, 1, 38, 127
4, 42958, Note_off_c, 1, 38, 64
4, 43025, Note_on_c, 1, 31, 127
4, 43065, Note_off_c, 1, 31, 64
4, 43113, Note_on_c, 1, 31, 127
4, 43211, Note_off_c, 1, 31, 64
4, 43214, Note_on_c, 1, 35, 127
4, 43304, Note_off_c, 1, 35, 64
4, 43304, Note_on_c, 1, 33, 127
4, 43372, Note_off_c, 1, 33, 64
4, 43392, Note_on_c, 1, 31, 127
4, 43441, Note_off_c, 1, 31, 64
4, 43491, Note_on_c, 1, 31, 127
4, 43536, Note_off_c, 1, 31, 64
4, 43590, Note_on_c, 1, 31, 127
4, 43638, Note_off_c, 1, 31, 64
4, 43681, Note_on_c, 1, 31, 127
4, 43724, Note_off_c, 1, 31, 64
4, 43779, Note_on_c, 1, 31, 127
4, 43820, Note_off_c, 1, 31, 64
4, 43867, Note_on_c, 1, 31, 127
4, 43953, Note_off_c, 1, 31, 64
4, 43968, Note_on_c, 1, 35, 127
4, 44052, Note_off_c, 1, 35, 64
4, 44059, Note_on_c, 1, 33, 127
4, 44148, Note_off_c, 1, 33, 64
4, 44152, Note_on_c, 1, 31, 127
4, 44244, Note_off_c, 1, 31, 64
4, 44252, Note_on_c, 1, 35, 127
4, 44340, Note_on_c, 1, 36, 127
4, 44355, Note_off_c, 1, 35, 64
4, 44425, Note_off_c, 1, 36, 64
4, 44438, Note_on_c, 1, 37, 127
4, 44526, Note_off_c, 1, 37, 64
4, 44534, Note_on_c, 1, 38, 127
4, 44582, Note_off_c, 1, 38, 64
4, 44635, Note_on_c, 1, 38, 127
4, 44680, Note_off_c, 1, 38, 64
4, 44737, Note_on_c, 1, 38, 127
4, 44777, Note_off_c, 1, 38, 64
4, 44838, Note_on_c, 1, 38, 127
4, 44873, Note_off_c, 1, 38, 64
4, 44934, Note_on_c, 1, 38, 127
4, 44971, Note_off_c, 1, 38, 64
4, 45028, Note_on_c, 1, 38, 127
4, 45067, Note_off_c, 1, 38, 64
4, 45123, Note_on_c, 1, 38, 127
4, 45164, Note_off_c, 1, 38, 64
4, 45217, Note_on_c, 1, 38, 127
4, 45256, Note_off_c, 1, 38, 64
4, 45312, Note_on_c, 1, 38, 127
4, 45356, Note_off_c, 1, 38, 64
4, 45409, Note_on_c, 1, 38, 127
4, 45448, Note_off_c, 1, 38, 64
4, 45507, Note_on_c, 1, 38, 127
4, 45548, Note_off_c, 1, 38, 64
4, 45598, Note_on_c, 1, 38, 127
4, 45638, Note_off_c, 1, 38, 64
4, 45696, Note_on_c, 1, 38, 127
4, 45737, Note_off_c, 1, 38, 64
4, 45788, Note_on_c, 1, 38, 127
4, 45830, Note_off_c, 1, 38, 64
4, 45883, Note_on_c, 1, 38, 127
4, 45928, Note_off_c, 1, 38, 64
4, 45980, Note_on_c, 1, 38, 127
4, 46059, Note_off_c, 1, 38, 64
4, 46081, Note_on_c, 1, 31, 127
4, 46131, Note_off_c, 1, 31, 64
4, 46180, Note_on_c, 1, 31, 127
4, 46270, Note_off_c, 1, 31, 64
4, 46281, Note_on_c, 1, 35, 127
4, 46368, Note_off_c, 1, 35, 64
4, 46369, Note_on_c, 1, 33, 127
4, 46446, Note_off_c, 1, 33, 64
4, 46464, Note_on_c, 1, 31, 127
4, 46510, Note_off_c, 1, 31, 64
4, 46560, Note_on_c, 1, 31, 127
4, 46606, Note_off_c, 1, 31, 64
4, 46657, Note_on_c, 1, 31, 127
4, 46700, Note_off_c, 1, 31, 64
4, 46748, Note_on_c, 1, 31, 127
4, 46792, Note_off_c, 1, 31, 64
4, 46851, Note_on_c, 1, 31, 127
4, 46888, Note_off_c, 1, 31, 64
4, 46932, Note_on_c, 1, 31, 127
4, 47027, Note_off_c, 1, 31, 64
4, 47041, Note_on_c, 1, 35, 127
4, 47134, Note_off_c, 1, 35, 64
4, 47134, Note_on_c, 1, 33, 127
4, 47214, Note_off_c, 1, 33, 64
4, 47228, Note_on_c, 1, 31, 127
4, 47292, Note_off_c, 1, 31, 64
4, 47328, Note_on_c, 1, 35, 127
4, 47420, Note_on_c, 1, 36, 127
4, 47428, Note_off_c, 1, 35, 64
4, 47491, Note_off_c, 1, 36, 64
4, 47518, Note_on_c, 1, 37, 127
4, 47595, Note_off_c, 1, 37, 64
4, 47612, Note_on_c, 1, 38, 127
4, 47662, Note_off_c, 1, 38, 64
4, 47708, Note_on_c, 1, 38, 127
4, 47752, Note_off_c, 1, 38, 64
4, 47804, Note_on_c, 1, 38, 127
4, 47849, Note_off_c, 1, 38, 64
4, 47902, Note_on_c, 1, 38, 127
4, 47944, Note_off_c, 1, 38, 64
4, 47996, Note_on_c, 1, 38, 127
4, 48038, Note_off_c, 1, 38, 64
4, 48091, Note_on_c, 1, 38, 127
4, 48132, Note_off_c, 1, 38, 64
4, 48185, Note_on_c, 1, 38, 127
4, 48228, Note_off_c, 1, 38, 64
4, 48283, Note_on_c, 1, 38, 127
4, 48328, Note_off_c, 1, 38, 64
4, 48384, Note_on_c, 1, 38, 127
4, 48428, Note_off_c, 1, 38, 64
4, 48480, Note_on_c, 1, 38, 127
4, 48526, Note_off_c, 1, 38, 64
4, 48576, Note_on_c, 1, 38, 127
4, 48619, Note_off_c, 1, 38, 64
4, 48670, Note_on_c, 1, 38, 127
4, 48715, Note_off_c, 1, 38, 64
4, 48766, Note_on_c, 1, 38, 127
4, 48809, Note_off_c, 1, 38, 64
4, 48864, Note_on_c, 1, 38, 127
4, 48907, Note_off_c, 1, 38, 64
4, 48953, Note_on_c, 1, 38, 127
4, 48998, Note_off_c, 1, 38, 64
4, 49052, Note_on_c, 1, 38, 127
4, 49132, Note_off_c, 1, 38, 64
4, 49145, Note_on_c, 1, 31, 127
4, 49204, Note_off_c, 1, 31, 64
4, 49246, Note_on_c, 1, 31, 127
4, 49340, Note_off_c, 1, 31, 64
4, 49348, Note_on_c, 1, 35, 127
4, 49440, Note_on_c, 1, 33, 127
4, 49441, Note_off_c, 1, 35, 64
4, 49516, Note_off_c, 1, 33, 64
4, 49534, Note_on_c, 1, 31, 127
4, 49588, Note_off_c, 1, 31, 64
4, 49632, Note_on_c, 1, 31, 127
4, 49683, Note_off_c, 1, 31, 64
4, 49728, Note_on_c, 1, 31, 127
4, 49779, Note_off_c, 1, 31, 64
4, 49824, Note_on_c, 1, 31, 127
4, 49868, Note_off_c, 1, 31, 64
4, 49921, Note_on_c, 1, 31, 127
4, 49966, Note_off_c, 1, 31, 64
4, 50019, Note_on_c, 1, 31, 127
4, 50116, Note_off_c, 1, 31, 64
4, 50124, Note_on_c, 1, 35, 127
4, 50211, Note_on_c, 1, 33, 127
4, 50212, Note_off_c, 1, 35, 64
4, 50302, Note_off_c, 1, 33, 64
4, 50305, Note_on_c, 1, 31, 127
4, 50382, Note_off_c, 1, 31, 64
4, 50401, Note_on_c, 1, 35, 127
4, 50489, Note_on_c, 1, 36, 127
4, 50497, Note_off_c, 1, 35, 64
4, 50569, Note_off_c, 1, 36, 64
4, 50590, Note_on_c, 1, 37, 127
4, 50667, Note_off_c, 1, 37, 64
4, 50681, Note_on_c, 1, 38, 127
4, 50732, Note_off_c, 1, 38, 64
4, 50782, Note_on_c, 1, 38, 127
4, 50828, Note_off_c, 1, 38, 64
4, 50878, Note_on_c, 1, 38, 127
4, 50923, Note_off_c, 1, 38, 64
4, 50969, Note_on_c, 1, 38, 127
4, 51016, Note_off_c, 1, 38, 64
4, 51068, Note_on_c, 1, 38, 127
4, 51112, Note_off_c, 1, 38, 64
4, 51166, Note_on_c, 1, 38, 127
4, 51214, Note_off_c, 1, 38, 64
4, 51260, Note_on_c, 1, 38, 127
4, 51307, Note_off_c, 1, 38, 64
4, 51355, Note_on_c, 1, 38, 127
4, 51398, Note_off_c, 1, 38, 64
4, 51451, Note_on_c, 1, 38, 127
4, 51496, Note_off_c, 1, 38, 64
4, 51552, Note_on_c, 1, 38, 127
4, 51596, Note_off_c, 1, 38, 64
4, 51651, Note_on_c, 1, 38, 127
4, 51692, Note_off_c, 1, 38, 64
4, 51744, Note_on_c, 1, 38, 127
4, 51790, Note_off_c, 1, 38, 64
4, 51840, Note_on_c, 1, 38, 127
4, 51884, Note_off_c, 1, 38, 64
4, 51932, Note_on_c, 1, 38, 127
4, 51976, Note_off_c, 1, 38, 64
4, 52027, Note_on_c, 1, 38, 127
4, 52075, Note_off_c, 1, 38, 64
4, 52131, Note_on_c, 1, 38, 127
4, 52220, Note_off_c, 1, 38, 64
4, 52228, Note_on_c, 1, 31, 127
4, 52280, Note_off_c, 1, 31, 64
4, 52323, Note_on_c, 1, 31, 127
4, 52411, Note_off_c, 1, 31, 64
4, 52425, Note_on_c, 1, 35, 127
4, 52518, Note_on_c, 1, 33, 127
4, 52523, Note_off_c, 1, 35, 64
4, 52595, Note_off_c, 1, 33, 64
4, 52601, Note_on_c, 1, 31, 127
4, 52656, Note_off_c, 1, 31, 64
4, 52699, Note_on_c, 1, 31, 127
4, 52745, Note_off_c, 1, 31, 64
4, 52796, Note_on_c, 1, 31, 127
4, 52846, Note_off_c, 1, 31, 64
4, 52888, Note_on_c, 1, 31, 127
4, 52932, Note_off_c, 1, 31, 64
4, 52985, Note_on_c, 1, 31, 127
4, 53025, Note_off_c, 1, 31, 64
4, 53078, Note_on_c, 1, 31, 127
4, 53190, Note_off_c, 1, 31, 64
4, 53193, Note_on_c, 1, 35, 127
4, 53278, Note_on_c, 1, 33, 127
4, 53281, Note_off_c, 1, 35, 64
4, 53350, Note_off_c, 1, 33, 64
4, 53372, Note_on_c, 1, 31, 127
4, 53412, Note_off_c, 1, 31, 64
4, 53468, Note_on_c, 1, 31, 127
4, 53512, Note_off_c, 1, 31, 64
4, 53563, Note_on_c, 1, 31, 127
4, 53604, Note_off_c, 1, 31, 64
4, 53656, Note_on_c, 1, 31, 127
4, 53696, Note_off_c, 1, 31, 64
4, 53747, Note_on_c, 1, 36, 127
4, 53766, Note_on_c, 1, 36, 127
4, 53774, Note_off_c, 1, 36, 64
4, 53787, Note_off_c, 1, 36, 64
4, 53846, Note_on_c, 1, 36, 127
4, 53856, Note_on_c, 1, 36, 127
4, 53881, Note_off_c, 1, 36, 64
4, 53902, Note_off_c, 1, 36, 64
4, 53948, Note_on_c, 1, 36, 127
4, 53950, Note_on_c, 1, 36, 127
4, 53977, Note_off_c, 1, 36, 64
4, 53995, Note_off_c, 1, 36, 64
4, 54043, Note_on_c, 1, 36, 127
4, 54044, Note_on_c, 1, 36, 127
4, 54070, Note_off_c, 1, 36, 64
4, 54088, Note_off_c, 1, 36, 64
4, 54142, Note_on_c, 1, 36, 127
4, 54145, Note_on_c, 1, 36, 127
4, 54163, Note_off_c, 1, 36, 64
4, 54188, Note_off_c, 1, 36, 64
4, 54236, Note_on_c, 1, 36, 127
4, 54278, Note_off_c, 1, 36, 64
4, 54326, Note_on_c, 1, 36, 127
4, 54369, Note_off_c, 1, 36, 64
4, 54419, Note_on_c, 1, 36, 127
4, 54467, Note_off_c, 1, 36, 64
4, 54515, Note_on_c, 1, 36, 127
4, 54556, Note_off_c, 1, 36, 64
4, 54611, Note_on_c, 1, 36, 127
4, 54659, Note_off_c, 1, 36, 64
4, 54716, Note_on_c, 1, 36, 127
4, 54760, Note_off_c, 1, 36, 64
4, 54811, Note_on_c, 1, 36, 127
4, 54852, Note_off_c, 1, 36, 64
4, 54908, Note_on_c, 1, 36, 127
4, 54956, Note_off_c, 1, 36, 64
4, 55008, Note_on_c, 1, 36, 127
4, 55049, Note_off_c, 1, 36, 64
4, 55105, Note_on_c, 1, 36, 127
4, 55150, Note_off_c, 1, 36, 64
4, 55201, Note_on_c, 1, 36, 127
4, 55288, Note_off_c, 1, 36, 64
4, 55297, Note_on_c, 1, 38, 127
4, 55348, Note_off_c, 1, 38, 64
4, 55395, Note_on_c, 1, 38, 127
4, 55438, Note_off_c, 1, 38, 64
4, 55491, Note_on_c, 1, 38, 127
4, 55537, Note_off_c, 1, 38, 64
4, 55585, Note_on_c, 1, 38, 127
4, 55627, Note_off_c, 1, 38, 64
4, 55683, Note_on_c, 1, 38, 127
4, 55724, Note_off_c, 1, 38, 64
4, 55777, Note_on_c, 1, 38, 127
4, 55817, Note_off_c, 1, 38, 64
4, 55876, Note_on_c, 1, 38, 127
4, 55910, Note_off_c, 1, 38, 64
4, 55964, Note_on_c, 1, 38, 127
4, 56003, Note_off_c, 1, 38, 64
4, 56064, Note_on_c, 1, 38, 127
4, 56100, Note_off_c, 1, 38, 64
4, 56164, Note_on_c, 1, 38, 127
4, 56200, Note_off_c, 1, 38, 64
4, 56260, Note_on_c, 1, 38, 127
4, 56299, Note_off_c, 1, 38, 64
4, 56352, Note_on_c, 1, 38, 127
4, 56390, Note_off_c, 1, 38, 64
4, 56440, Note_on_c, 1, 38, 127
4, 56484, Note_off_c, 1, 38, 64
4, 56539, Note_on_c, 1, 38, 127
4, 56579, Note_off_c, 1, 38, 64
4, 56633, Note_on_c, 1, 38, 127
4, 56675, Note_off_c, 1, 38, 64
4, 56737, Note_on_c, 1, 38, 127
4, 56825, Note_off_c, 1, 38, 64
4, 56836, Note_on_c, 1, 33, 127
4, 56889, Note_off_c, 1, 33, 64
4, 56936, Note_on_c, 1, 33, 127
4, 56980, Note_off_c, 1, 33, 64
4, 57032, Note_on_c, 1, 33, 127
4, 57075, Note_off_c, 1, 33, 64
4, 57123, Note_on_c, 1, 33, 127
4, 57166, Note_off_c, 1, 33, 64
4, 57217, Note_on_c, 1, 33, 127
4, 57260, Note_off_c, 1, 33, 64
4, 57312, Note_on_c, 1, 33, 127
4, 57412, Note_on_c, 1, 36, 127
4, 57432, Note_off_c, 1, 33, 64
4, 57510, Note_on_c, 1, 38, 127
4, 57531, Note_off_c, 1, 36, 64
4, 57596, Note_off_c, 1, 38, 64
4, 57608, Note_on_c, 1, 28, 127
4, 57662, Note_off_c, 1, 28, 64
4, 57699, Note_on_c, 1, 28, 127
4, 57750, Note_off_c, 1, 28, 64
4, 57793, Note_on_c, 1, 28, 127
4, 57849, Note_off_c, 1, 28, 64
4, 57888, Note_on_c, 1, 28, 127
4, 57942, Note_off_c, 1, 28, 64
4, 57976, Note_on_c, 1, 28, 127
4, 58027, Note_off_c, 1, 28, 64
4, 58076, Note_on_c, 1, 28, 127
4, 58126, Note_off_c, 1, 28, 64
4, 58169, Note_on_c, 1, 28, 127
4, 58228, Note_off_c, 1, 28, 64
4, 58272, Note_on_c, 1, 28, 127
4, 58363, Note_off_c, 1, 28, 64
4, 58372, Note_on_c, 1, 38, 127
4, 58420, Note_off_c, 1, 38, 64
4, 58470, Note_on_c, 1, 38, 127
4, 58516, Note_off_c, 1, 38, 64
4, 58564, Note_on_c, 1, 38, 127
4, 58606, Note_off_c, 1, 38, 64
4, 58652, Note_on_c, 1, 38, 127
4, 58697, Note_off_c, 1, 38, 64
4, 58748, Note_on_c, 1, 38, 127
4, 58795, Note_off_c, 1, 38, 64
4, 58844, Note_on_c, 1, 38, 127
4, 58889, Note_off_c, 1, 38, 64
4, 58939, Note_on_c, 1, 38, 127
4, 58980, Note_off_c, 1, 38, 64
4, 59033, Note_on_c, 1, 38, 127
4, 59078, Note_off_c, 1, 38, 64
4, 59134, Note_on_c, 1, 38, 127
4, 59177, Note_off_c, 1, 38, 64
4, 59235, Note_on_c, 1, 38, 127
4, 59278, Note_off_c, 1, 38, 64
4, 59331, Note_on_c, 1, 38, 127
4, 59374, Note_off_c, 1, 38, 64
4, 59428, Note_on_c, 1, 38, 127
4, 59472, Note_off_c, 1, 38, 64
4, 59526, Note_on_c, 1, 38, 127
4, 59569, Note_off_c, 1, 38, 64
4, 59619, Note_on_c, 1, 38, 127
4, 59662, Note_off_c, 1, 38, 64
4, 59708, Note_on_c, 1, 38, 127
4, 59755, Note_off_c, 1, 38, 64
4, 59801, Note_on_c, 1, 38, 127
4, 59900, Note_on_c, 1, 36, 127
4, 59910, Note_off_c, 1, 38, 64
4, 59953, Note_off_c, 1, 36, 64
4, 60000, Note_on_c, 1, 36, 127
4, 60088, Note_off_c, 1, 36, 64
4, 60091, Note_on_c, 1, 28, 127
4, 60152, Note_off_c, 1, 28, 64
4, 60190, Note_on_c, 1, 28, 127
4, 60281, Note_off_c, 1, 28, 64
4, 60286, Note_on_c, 1, 29, 127
4, 60332, Note_off_c, 1, 29, 64
4, 60374, Note_on_c, 1, 29, 127
4, 60433, Note_off_c, 1, 29, 64
4, 60467, Note_on_c, 1, 30, 127
4, 60526, Note_off_c, 1, 30, 64
4, 60566, Note_on_c, 1, 30, 127
4, 60624, Note_off_c, 1, 30, 64
4, 60665, Note_on_c, 1, 31, 127
4, 60720, Note_off_c, 1, 31, 64
4, 60768, Note_on_c, 1, 31, 127
4, 60806, Note_off_c, 1, 31, 64
4, 60865, Note_on_c, 1, 35, 127
4, 60913, Note_off_c, 1, 35, 64
4, 60955, Note_on_c, 1, 35, 127
4, 61001, Note_off_c, 1, 35, 64
4, 61051, Note_on_c, 1, 36, 127
4, 61097, Note_off_c, 1, 36, 64
4, 61142, Note_on_c, 1, 36, 127
4, 61196, Note_off_c, 1, 36, 64
4, 61241, Note_on_c, 1, 37, 127
4, 61296, Note_off_c, 1, 37, 64
4, 61337, Note_on_c, 1, 37, 127
4, 61395, Note_off_c, 1, 37, 64
4, 61433, Note_on_c, 1, 38, 127
4, 61438, Note_on_c, 1, 38, 127
4, 61480, Note_off_c, 1, 38, 64
4, 61481, Note_off_c, 1, 38, 64
4, 61526, Note_on_c, 1, 38, 127
4, 61568, Note_off_c, 1, 38, 64
4, 61622, Note_on_c, 1, 38, 127
4, 61662, Note_off_c, 1, 38, 64
4, 61716, Note_on_c, 1, 38, 127
4, 61758, Note_off_c, 1, 38, 64
4, 61812, Note_on_c, 1, 38, 127
4, 61852, Note_off_c, 1, 38, 64
4, 61912, Note_on_c, 1, 38, 127
4, 61952, Note_off_c, 1, 38, 64
4, 62006, Note_on_c, 1, 38, 127
4, 62044, Note_off_c, 1, 38, 64
4, 62100, Note_on_c, 1, 38, 127
4, 62142, Note_off_c, 1, 38, 64
4, 62204, Note_on_c, 1, 38, 127
4, 62244, Note_off_c, 1, 38, 64
4, 62297, Note_on_c, 1, 38, 127
4, 62353, Note_off_c, 1, 38, 64
4, 62392, Note_on_c, 1, 35, 127
4, 62446, Note_off_c, 1, 35, 64
4, 62483, Note_on_c, 1, 35, 127
4, 62536, Note_off_c, 1, 35, 64
4, 62587, Note_on_c, 1, 36, 127
4, 62636, Note_off_c, 1, 36, 64
4, 62684, Note_on_c, 1, 36, 127
4, 62737, Note_off_c, 1, 36, 64
4, 62788, Note_on_c, 1, 37, 127
4, 62840, Note_off_c, 1, 37, 64
4, 62881, Note_on_c, 1, 37, 127
4, 62929, Note_off_c, 1, 37, 64
4, 62974, Note_on_c, 1, 38, 127
4, 62976, Note_on_c, 1, 38, 127
4, 63014, Note_off_c, 1, 38, 64
4, 63017, Note_off_c, 1, 38, 64
4, 63072, Note_on_c, 1, 38, 127
4, 63105, Note_off_c, 1, 38, 64
4, 63169, Note_on_c, 1, 38, 127
4, 63208, Note_off_c, 1, 38, 64
4, 63262, Note_on_c, 1, 38, 127
4, 63300, Note_off_c, 1, 38, 64
4, 63361, Note_on_c, 1, 38, 127
4, 63400, Note_off_c, 1, 38, 64
4, 63457, Note_on_c, 1, 38, 127
4, 63492, Note_off_c, 1, 38, 64
4, 63555, Note_on_c, 1, 38, 127
4, 63600, Note_off_c, 1, 38, 64
4, 63652, Note_on_c, 1, 38, 127
4, 63692, Note_off_c, 1, 38, 64
4, 63739, Note_on_c, 1, 38, 127
4, 63780, Note_off_c, 1, 38, 64
4, 63830, Note_on_c, 1, 38, 127
4, 63872, Note_off_c, 1, 38, 64
4, 63928, Note_on_c, 1, 38, 127
4, 63968, Note_off_c, 1, 38, 64
4, 64025, Note_on_c, 1, 38, 127
4, 64065, Note_off_c, 1, 38, 64
4, 64121, Note_on_c, 1, 38, 127
4, 64161, Note_off_c, 1, 38, 64
4, 64216, Note_on_c, 1, 38, 127
4, 64252, Note_off_c, 1, 38, 64
4, 64310, Note_on_c, 1, 38, 127
4, 64348, Note_off_c, 1, 38, 64
4, 64406, Note_on_c, 1, 38, 127
4, 64497, Note_on_c, 1, 31, 127
4, 64508, Note_off_c, 1, 38, 64
4, 64552, Note_off_c, 1, 31, 64
4, 64598, Note_on_c, 1, 31, 127
4, 64699, Note_on_c, 1, 35, 127
4, 64707, Note_off_c, 1, 31, 64
4, 64798, Note_on_c, 1, 33, 127
4, 64806, Note_off_c, 1, 35, 64
4, 64889, Note_on_c, 1, 31, 127
4, 64892, Note_off_c, 1, 33, 64
4, 64934, Note_off_c, 1, 31, 64
4, 64984, Note_on_c, 1, 31, 127
4, 65028, Note_off_c, 1, 31, 64
4, 65084, Note_on_c, 1, 31, 127
4, 65123, Note_off_c, 1, 31, 64
4, 65185, Note_on_c, 1, 31, 127
4, 65225, Note_off_c, 1, 31, 64
4, 65280, Note_on_c, 1, 31, 127
4, 65300, Note_off_c, 1, 31, 64
4, 65368, Note_on_c, 1, 31, 127
4, 65472, Note_on_c, 1, 35, 127
4, 65486, Note_off_c, 1, 31, 64
4, 65568, Note_on_c, 1, 33, 127
4, 65592, Note_off_c, 1, 35, 64
4, 65649, Note_on_c, 1, 31, 127
4, 65652, Note_off_c, 1, 33, 64
4, 65737, Note_off_c, 1, 31, 64
4, 65752, Note_on_c, 1, 35, 127
4, 65843, Note_on_c, 1, 36, 127
4, 65856, Note_off_c, 1, 35, 64
4, 65934, Note_on_c, 1, 37, 127
4, 65947, Note_off_c, 1, 36, 64
4, 66011, Note_off_c, 1, 37, 64
4, 66038, Note_on_c, 1, 38, 127
4, 66080, Note_off_c, 1, 38, 64
4, 66137, Note_on_c, 1, 38, 127
4, 66172, Note_off_c, 1, 38, 64
4, 66232, Note_on_c, 1, 38, 127
4, 66268, Note_off_c, 1, 38, 64
4, 66329, Note_on_c, 1, 38, 127
4, 66368, Note_off_c, 1, 38, 64
4, 66428, Note_on_c, 1, 38, 127
4, 66470, Note_off_c, 1, 38, 64
4, 66523, Note_on_c, 1, 38, 127
4, 66563, Note_off_c, 1, 38, 64
4, 66630, Note_on_c, 1, 38, 127
4, 66672, Note_off_c, 1, 38, 64
4, 66721, Note_on_c, 1, 38, 127
4, 66766, Note_off_c, 1, 38, 64
4, 66832, Note_on_c, 1, 38, 127
4, 66872, Note_off_c, 1, 38, 64
4, 66926, Note_on_c, 1, 38, 127
4, 66968, Note_off_c, 1, 38, 64
4, 67027, Note_on_c, 1, 38, 127
4, 67070, Note_off_c, 1, 38, 64
4, 67120, Note_on_c, 1, 38, 127
4, 67161, Note_off_c, 1, 38, 64
4, 67211, Note_on_c, 1, 38, 127
4, 67256, Note_off_c, 1, 38, 64
4, 67304, Note_on_c, 1, 38, 127
4, 67344, Note_off_c, 1, 38, 64
4, 67404, Note_on_c, 1, 38, 127
4, 67444, Note_off_c, 1, 38, 64
4, 67491, Note_on_c, 1, 38, 127
4, 67524, Note_off_c, 1, 38, 64
4, 67596, Note_on_c, 1, 31, 127
4, 67646, Note_off_c, 1, 31, 64
4, 67684, Note_on_c, 1, 31, 127
4, 67768, Note_off_c, 1, 31, 64
4, 67787, Note_on_c, 1, 35, 127
4, 67872, Note_off_c, 1, 35, 64
4, 67878, Note_on_c, 1, 33, 127
4, 67971, Note_off_c, 1, 33, 64
4, 67972, Note_on_c, 1, 31, 127
4, 68014, Note_off_c, 1, 31, 64
4, 68065, Note_on_c, 1, 31, 127
4, 68108, Note_off_c, 1, 31, 64
4, 68166, Note_on_c, 1, 31, 127
4, 68206, Note_off_c, 1, 31, 64
4, 68256, Note_on_c, 1, 31, 127
4, 68296, Note_off_c, 1, 31, 64
4, 68355, Note_on_c, 1, 31, 127
4, 68392, Note_off_c, 1, 31, 64
4, 68449, Note_on_c, 1, 31, 127
4, 68555, Note_on_c, 1, 35, 127
4, 68558, Note_off_c, 1, 31, 64
4, 68649, Note_on_c, 1, 33, 127
4, 68673, Note_off_c, 1, 35, 64
4, 68732, Note_on_c, 1, 31, 127
4, 68737, Note_off_c, 1, 33, 64
4, 68822, Note_off_c, 1, 31, 64
4, 68830, Note_on_c, 1, 35, 127
4, 68916, Note_off_c, 1, 35, 64
4, 68916, Note_on_c, 1, 36, 127
4, 69012, Note_on_c, 1, 37, 127
4, 69019, Note_off_c, 1, 36, 64
4, 69112, Note_off_c, 1, 37, 64
4, 69113, Note_on_c, 1, 38, 127
4, 69120, Note_on_c, 1, 38, 127
4, 69158, Note_off_c, 1, 38, 64
4, 69161, Note_off_c, 1, 38, 64
4, 69216, Note_on_c, 1, 38, 127
4, 69249, Note_off_c, 1, 38, 64
4, 69313, Note_on_c, 1, 38, 127
4, 69352, Note_off_c, 1, 38, 64
4, 69406, Note_on_c, 1, 38, 127
4, 69444, Note_off_c, 1, 38, 64
4, 69505, Note_on_c, 1, 38, 127
4, 69544, Note_off_c, 1, 38, 64
4, 69601, Note_on_c, 1, 38, 127
4, 69636, Note_off_c, 1, 38, 64
4, 69699, Note_on_c, 1, 38, 127
4, 69744, Note_off_c, 1, 38, 64
4, 69796, Note_on_c, 1, 38, 127
4, 69836, Note_off_c, 1, 38, 64
4, 69883, Note_on_c, 1, 38, 127
4, 69924, Note_off_c, 1, 38, 64
4, 69974, Note_on_c, 1, 38, 127
4, 70016, Note_off_c, 1, 38, 64
4, 70072, Note_on_c, 1, 38, 127
4, 70112, Note_off_c, 1, 38, 64
4, 70169, Note_on_c, 1, 38, 127
4, 70209, Note_off_c, 1, 38, 64
4, 70265, Note_on_c, 1, 38, 127
4, 70305, Note_off_c, 1, 38, 64
4, 70360, Note_on_c, 1, 38, 127
4, 70396, Note_off_c, 1, 38, 64
4, 70454, Note_on_c, 1, 38, 127
4, 70492, Note_off_c, 1, 38, 64
4, 70550, Note_on_c, 1, 38, 127
4, 70641, Note_on_c, 1, 31, 127
4, 70652, Note_off_c, 1, 38, 64
4, 70696, Note_off_c, 1, 31, 64
4, 70742, Note_on_c, 1, 31, 127
4, 70843, Note_on_c, 1, 35, 127
4, 70851, Note_off_c, 1, 31, 64
4, 70942, Note_on_c, 1, 33, 127
4, 70950, Note_off_c, 1, 35, 64
4, 71033, Note_on_c, 1, 31, 127
4, 71036, Note_off_c, 1, 33, 64
4, 71078, Note_off_c, 1, 31, 64
4, 71128, Note_on_c, 1, 31, 127
4, 71172, Note_off_c, 1, 31, 64
4, 71228, Note_on_c, 1, 31, 127
4, 71267, Note_off_c, 1, 31, 64
4, 71329, Note_on_c, 1, 31, 127
4, 71369, Note_off_c, 1, 31, 64
4, 71424, Note_on_c, 1, 31, 127
4, 71444, Note_off_c, 1, 31, 64
4, 71512, Note_on_c, 1, 31, 127
4, 71616, Note_on_c, 1, 35, 127
4, 71630, Note_off_c, 1, 31, 64
4, 71712, Note_on_c, 1, 33, 127
4, 71736, Note_off_c, 1, 35, 64
4, 71793, Note_on_c, 1, 31, 127
4, 71796, Note_off_c, 1, 33, 64
4, 71881, Note_off_c, 1, 31, 64
4, 71896, Note_on_c, 1, 35, 127
4, 71987, Note_on_c, 1, 36, 127
4, 72000, Note_off_c, 1, 35, 64
4, 72078, Note_on_c, 1, 37, 127
4, 72091, Note_off_c, 1, 36, 64
4, 72155, Note_off_c, 1, 37, 64
4, 72182, Note_on_c, 1, 38, 127
4, 72224, Note_off_c, 1, 38, 64
4, 72281, Note_on_c, 1, 38, 127
4, 72316, Note_off_c, 1, 38, 64
4, 72376, Note_on_c, 1, 38, 127
4, 72412, Note_off_c, 1, 38, 64
4, 72473, Note_on_c, 1, 38, 127
4, 72512, Note_off_c, 1, 38, 64
4, 72572, Note_on_c, 1, 38, 127
4, 72614, Note_off_c, 1, 38, 64
4, 72667, Note_on_c, 1, 38, 127
4, 72707, Note_off_c, 1, 38, 64
4, 72774, Note_on_c, 1, 38, 127
4, 72816, Note_off_c, 1, 38, 64
4, 72865, Note_on_c, 1, 38, 127
4, 72910, Note_off_c, 1, 38, 64
4, 72976, Note_on_c, 1, 38, 127
4, 73016, Note_off_c, 1, 38, 64
4, 73070, Note_on_c, 1, 38, 127
4, 73112, Note_off_c, 1, 38, 64
4, 73171, Note_on_c, 1, 38, 127
4, 73214, Note_off_c, 1, 38, 64
4, 73264, Note_on_c, 1, 38, 127
4, 73305, Note_off_c, 1, 38, 64
4, 73355, Note_on_c, 1, 38, 127
4, 73400, Note_off_c, 1, 38, 64
4, 73448, Note_on_c, 1, 38, 127
4, 73488, Note_off_c, 1, 38, 64
4, 73548, Note_on_c, 1, 38, 127
4, 73588, Note_off_c, 1, 38, 64
4, 73635, Note_on_c, 1, 38, 127
4, 73668, Note_off_c, 1, 38, 64
4, 73740, Note_on_c, 1, 31, 127
4, 73790, Note_off_c, 1, 31, 64
4, 73828, Note_on_c, 1, 31, 127
4, 73912, Note_off_c, 1, 31, 64
4, 73931, Note_on_c, 1, 35, 127
4, 74016, Note_off_c, 1, 35, 64
4, 74022, Note_on_c, 1, 33, 127
4, 74115, Note_off_c, 1, 33, 64
4, 74116, Note_on_c, 1, 31, 127
4, 74158, Note_off_c, 1, 31, 64
4, 74209, Note_on_c, 1, 31, 127
4, 74252, Note_off_c, 1, 31, 64
4, 74310, Note_on_c, 1, 31, 127
4, 74350, Note_off_c, 1, 31, 64
4, 74400, Note_on_c, 1, 31, 127
4, 74440, Note_off_c, 1, 31, 64
4, 74499, Note_on_c, 1, 31, 127
4, 74536, Note_off_c, 1, 31, 64
4, 74593, Note_on_c, 1, 31, 127
4, 74699, Note_on_c, 1, 35, 127
4, 74702, Note_off_c, 1, 31, 64
4, 74793, Note_on_c, 1, 33, 127
4, 74817, Note_off_c, 1, 35, 64
4, 74876, Note_on_c, 1, 31, 127
4, 74881, Note_off_c, 1, 33, 64
4, 74966, Note_off_c, 1, 31, 64
4, 74974, Note_on_c, 1, 35, 127
4, 75060, Note_off_c, 1, 35, 64
4, 75060, Note_on_c, 1, 36, 127
4, 75156, Note_on_c, 1, 37, 127
4, 75163, Note_off_c, 1, 36, 64
4, 75256, Note_off_c, 1, 37, 64
4, 75257, Note_on_c, 1, 38, 127
4, 75259, Note_on_c, 1, 38, 127
4, 75300, Note_off_c, 1, 38, 64
4, 75302, Note_off_c, 1, 38, 64
4, 75353, Note_on_c, 1, 38, 127
4, 75395, Note_off_c, 1, 38, 64
4, 75446, Note_on_c, 1, 38, 127
4, 75492, Note_off_c, 1, 38, 64
4, 75544, Note_on_c, 1, 38, 127
4, 75590, Note_off_c, 1, 38, 64
4, 75649, Note_on_c, 1, 38, 127
4, 75692, Note_off_c, 1, 38, 64
4, 75755, Note_on_c, 1, 38, 127
4, 75793, Note_off_c, 1, 38, 64
4, 75843, Note_on_c, 1, 38, 127
4, 75891, Note_off_c, 1, 38, 64
4, 75939, Note_on_c, 1, 38, 127
4, 75985, Note_off_c, 1, 38, 64
4, 76020, Note_on_c, 1, 40, 127
4, 76022, Note_on_c, 1, 38, 127
4, 76043, Note_off_c, 1, 38, 64
4, 76052, Note_on_c, 1, 42, 127
4, 76075, Note_off_c, 1, 40, 64
4, 76089, Note_off_c, 1, 42, 64
4, 76136, Note_on_c, 1, 42, 127
4, 76179, Note_off_c, 1, 42, 64
4, 76228, Note_on_c, 1, 42, 127
4, 76284, Note_off_c, 1, 42, 64
4, 76324, Note_on_c, 1, 40, 127
4, 76369, Note_off_c, 1, 40, 64
4, 76420, Note_on_c, 1, 40, 127
4, 76460, Note_off_c, 1, 40, 64
4, 76512, Note_on_c, 1, 40, 127
4, 76560, Note_off_c, 1, 40, 64
4, 76612, Note_on_c, 1, 38, 127
4, 76662, Note_off_c, 1, 38, 64
4, 76710, Note_on_c, 1, 38, 127
4, 76760, Note_off_c, 1, 38, 64
4, 76812, Note_on_c, 1, 31, 127
4, 76867, Note_off_c, 1, 31, 64
4, 76897, Note_on_c, 1, 31, 127
4, 76996, Note_off_c, 1, 31, 64
4, 77000, Note_on_c, 1, 35, 127
4, 77088, Note_off_c, 1, 35, 64
4, 77094, Note_on_c, 1, 33, 127
4, 77192, Note_off_c, 1, 33, 64
4, 77192, Note_on_c, 1, 31, 127
4, 77248, Note_off_c, 1, 31, 64
4, 77289, Note_on_c, 1, 31, 127
4, 77340, Note_off_c, 1, 31, 64
4, 77380, Note_on_c, 1, 31, 127
4, 77435, Note_off_c, 1, 31, 64
4, 77476, Note_on_c, 1, 31, 127
4, 77528, Note_off_c, 1, 31, 64
4, 77571, Note_on_c, 1, 31, 127
4, 77622, Note_off_c, 1, 31, 64
4, 77665, Note_on_c, 1, 31, 127
4, 77760, Note_off_c, 1, 31, 64
4, 77764, Note_on_c, 1, 35, 127
4, 77860, Note_on_c, 1, 33, 127
4, 77875, Note_off_c, 1, 35, 64
4, 77947, Note_off_c, 1, 33, 64
4, 77955, Note_on_c, 1, 31, 127
4, 78049, Note_off_c, 1, 31, 64
4, 78060, Note_on_c, 1, 35, 127
4, 78136, Note_off_c, 1, 35, 64
4, 78155, Note_on_c, 1, 36, 127
4, 78216, Note_off_c, 1, 36, 64
4, 78248, Note_on_c, 1, 37, 127
4, 78297, Note_off_c, 1, 37, 64
4, 78344, Note_on_c, 1, 38, 127
4, 79104, Control_c, 1, 7, 63
4, 79128, Control_c, 1, 7, 62
4, 79152, Control_c, 1, 7, 61
4, 79176, Control_c, 1, 7, 60
4, 79200, Control_c, 1, 7, 59
4, 79225, Control_c, 1, 7, 58
4, 79249, Control_c, 1, 7, 57
4, 79273, Control_c, 1, 7, 56
4, 79297, Control_c, 1, 7, 55
4, 79323, Control_c, 1, 7, 54
4, 79347, Control_c, 1, 7, 53
4, 79371, Control_c, 1, 7, 52
4, 79395, Control_c, 1, 7, 51
4, 79419, Control_c, 1, 7, 50
4, 79444, Control_c, 1, 7, 49
4, 79468, Control_c, 1, 7, 48
4, 79492, Control_c, 1, 7, 47
4, 79516, Control_c, 1, 7, 46
4, 79542, Control_c, 1, 7, 45
4, 79566, Control_c, 1, 7, 44
4, 79590, Control_c, 1, 7, 43
4, 79614, Control_c, 1, 7, 42
4, 79638, Control_c, 1, 7, 41
4, 79664, Control_c, 1, 7, 40
4, 79688, Control_c, 1, 7, 39
4, 79712, Control_c, 1, 7, 38
4, 79736, Control_c, 1, 7, 37
4, 79761, Control_c, 1, 7, 36
4, 79785, Control_c, 1, 7, 35
4, 79809, Control_c, 1, 7, 34
4, 79819, Note_off_c, 1, 38, 64
4, 79833, Control_c, 1, 7, 33
4, 79857, Control_c, 1, 7, 32
4, 79883, Control_c, 1, 7, 31
4, 79907, Control_c, 1, 7, 30
4, 79931, Control_c, 1, 7, 29
4, 79955, Control_c, 1, 7, 28
4, 79980, Control_c, 1, 7, 27
4, 80004, Control_c, 1, 7, 26
4, 80028, Control_c, 1, 7, 25
4, 80052, Control_c, 1, 7, 24
4, 80076, Control_c, 1, 7, 23
4, 80102, Control_c, 1, 7, 22
4, 80126, Control_c, 1, 7, 21
4, 80150, Control_c, 1, 7, 20
4, 80174, Control_c, 1, 7, 19
4, 80200, Control_c, 1, 7, 18
4, 80224, Control_c, 1, 7, 17
4, 80248, Control_c, 1, 7, 16
4, 80272, Control_c, 1, 7, 15
4, 80296, Control_c, 1, 7, 14
4, 80321, Control_c, 1, 7, 13
4, 80345, Control_c, 1, 7, 12
4, 80369, Control_c, 1, 7, 11
4, 80393, Control_c, 1, 7, 10
4, 80419, Control_c, 1, 7, 9
4, 80443, Control_c, 1, 7, 8
4, 80467, Control_c, 1, 7, 7
4, 80491, Control_c, 1, 7, 6
4, 80515, Control_c, 1, 7, 5
4, 80540, Control_c, 1, 7, 4
4, 80564, Control_c, 1, 7, 3
4, 80588, Control_c, 1, 7, 2
4, 80612, Control_c, 1, 7, 1
4, 80638, Control_c, 1, 7, 0
4, 80638, End_track
5, 0, Start_track
5, 0, Title_t, "AIR GUITAR"
5, 0, Channel_prefix, 2
5, 0, Control_c, 2, 7, 68
5, 0, Control_c, 2, 10, 64
5, 0, Program_c, 2, 29
5, 0, Control_c, 2, 93, 0
5, 0, Control_c, 2, 91, 127
5, 11, Control_c, 2, 7, 1
5, 24, Control_c, 2, 7, 2
5, 36, Control_c, 2, 7, 3
5, 49, Control_c, 2, 7, 4
5, 62, Control_c, 2, 7, 5
5, 75, Control_c, 2, 7, 6
5, 88, Control_c, 2, 7, 7
5, 100, Control_c, 2, 7, 8
5, 113, Control_c, 2, 7, 9
5, 126, Control_c, 2, 7, 10
5, 139, Control_c, 2, 7, 11
5, 152, Control_c, 2, 7, 12
5, 164, Control_c, 2, 7, 13
5, 177, Control_c, 2, 7, 14
5, 190, Control_c, 2, 7, 15
5, 203, Control_c, 2, 7, 16
5, 216, Control_c, 2, 7, 17
5, 228, Control_c, 2, 7, 18
5, 241, Control_c, 2, 7, 19
5, 254, Control_c, 2, 7, 20
5, 267, Control_c, 2, 7, 21
5, 280, Control_c, 2, 7, 22
5, 292, Control_c, 2, 7, 23
5, 305, Control_c, 2, 7, 24
5, 318, Control_c, 2, 7, 25
5, 331, Control_c, 2, 7, 26
5, 344, Control_c, 2, 7, 27
5, 356, Control_c, 2, 7, 28
5, 369, Control_c, 2, 7, 29
5, 382, Control_c, 2, 7, 30
5, 393, Note_on_c, 2, 69, 127
5, 395, Control_c, 2, 7, 31
5, 408, Control_c, 2, 7, 32
5, 420, Control_c, 2, 7, 33
5, 433, Control_c, 2, 7, 34
5, 446, Control_c, 2, 7, 35
5, 459, Control_c, 2, 7, 36
5, 472, Control_c, 2, 7, 37
5, 484, Control_c, 2, 7, 38
5, 497, Control_c, 2, 7, 39
5, 510, Control_c, 2, 7, 40
5, 523, Control_c, 2, 7, 41
5, 536, Control_c, 2, 7, 42
5, 548, Control_c, 2, 7, 43
5, 561, Control_c, 2, 7, 44
5, 574, Control_c, 2, 7, 45
5, 587, Control_c, 2, 7, 46
5, 600, Control_c, 2, 7, 47
5, 612, Control_c, 2, 7, 48
5, 625, Control_c, 2, 7, 49
5, 638, Control_c, 2, 7, 50
5, 651, Control_c, 2, 7, 51
5, 664, Control_c, 2, 7, 52
5, 676, Control_c, 2, 7, 53
5, 689, Control_c, 2, 7, 54
5, 702, Control_c, 2, 7, 55
5, 715, Control_c, 2, 7, 56
5, 728, Control_c, 2, 7, 57
5, 740, Control_c, 2, 7, 58
5, 753, Control_c, 2, 7, 59
5, 766, Control_c, 2, 7, 60
5, 2936, Pitch_bend_c, 2, 8576
5, 2939, Pitch_bend_c, 2, 8704
5, 2944, Pitch_bend_c, 2, 8960
5, 2947, Pitch_bend_c, 2, 9216
5, 2952, Pitch_bend_c, 2, 9472
5, 2955, Pitch_bend_c, 2, 9600
5, 2960, Pitch_bend_c, 2, 9856
5, 2963, Pitch_bend_c, 2, 10112
5, 2968, Pitch_bend_c, 2, 10368
5, 2971, Pitch_bend_c, 2, 10624
5, 2976, Pitch_bend_c, 2, 10752
5, 2979, Pitch_bend_c, 2, 11008
5, 2984, Pitch_bend_c, 2, 11264
5, 2987, Pitch_bend_c, 2, 11520
5, 2992, Pitch_bend_c, 2, 11776
5, 2995, Pitch_bend_c, 2, 11904
5, 3000, Pitch_bend_c, 2, 12160
5, 3003, Pitch_bend_c, 2, 12416
5, 3008, Pitch_bend_c, 2, 12672
5, 3011, Pitch_bend_c, 2, 12928
5, 3016, Pitch_bend_c, 2, 13056
5, 3019, Pitch_bend_c, 2, 13312
5, 3024, Pitch_bend_c, 2, 13568
5, 3027, Pitch_bend_c, 2, 13824
5, 3032, Pitch_bend_c, 2, 14080
5, 3035, Pitch_bend_c, 2, 14208
5, 3040, Pitch_bend_c, 2, 14464
5, 3043, Pitch_bend_c, 2, 14720
5, 3048, Pitch_bend_c, 2, 14976
5, 3051, Pitch_bend_c, 2, 15232
5, 3056, Pitch_bend_c, 2, 15360
5, 3059, Pitch_bend_c, 2, 15616
5, 3064, Pitch_bend_c, 2, 15872
5, 3067, Pitch_bend_c, 2, 16128
5, 3072, Pitch_bend_c, 2, 16383
5, 3075, Pitch_bend_c, 2, 16383
5, 3083, Pitch_bend_c, 2, 16256
5, 3091, Pitch_bend_c, 2, 16128
5, 3096, Pitch_bend_c, 2, 16000
5, 3104, Pitch_bend_c, 2, 15872
5, 3107, Pitch_bend_c, 2, 15744
5, 3115, Pitch_bend_c, 2, 15616
5, 3120, Pitch_bend_c, 2, 15488
5, 3128, Pitch_bend_c, 2, 15360
5, 3131, Pitch_bend_c, 2, 15232
5, 3139, Pitch_bend_c, 2, 15104
5, 3144, Pitch_bend_c, 2, 14976
5, 3152, Pitch_bend_c, 2, 14848
5, 3155, Pitch_bend_c, 2, 14720
5, 3163, Pitch_bend_c, 2, 14592
5, 3168, Pitch_bend_c, 2, 14464
5, 3176, Pitch_bend_c, 2, 14336
5, 3179, Pitch_bend_c, 2, 14208
5, 3187, Pitch_bend_c, 2, 14080
5, 3192, Pitch_bend_c, 2, 13952
5, 3200, Pitch_bend_c, 2, 13824
5, 3203, Pitch_bend_c, 2, 13696
5, 3211, Pitch_bend_c, 2, 13568
5, 3216, Pitch_bend_c, 2, 13440
5, 3224, Pitch_bend_c, 2, 13312
5, 3227, Pitch_bend_c, 2, 13184
5, 3235, Pitch_bend_c, 2, 13056
5, 3240, Pitch_bend_c, 2, 12928
5, 3248, Pitch_bend_c, 2, 12800
5, 3251, Pitch_bend_c, 2, 12672
5, 3259, Pitch_bend_c, 2, 12544
5, 3264, Pitch_bend_c, 2, 12416
5, 3272, Pitch_bend_c, 2, 12288
5, 3280, Pitch_bend_c, 2, 12160
5, 3283, Pitch_bend_c, 2, 12032
5, 3291, Pitch_bend_c, 2, 11904
5, 3296, Pitch_bend_c, 2, 11776
5, 3304, Pitch_bend_c, 2, 11648
5, 3307, Pitch_bend_c, 2, 11520
5, 3315, Pitch_bend_c, 2, 11392
5, 3320, Pitch_bend_c, 2, 11264
5, 3328, Pitch_bend_c, 2, 11136
5, 3331, Pitch_bend_c, 2, 11008
5, 3339, Pitch_bend_c, 2, 10880
5, 3344, Pitch_bend_c, 2, 10752
5, 3352, Pitch_bend_c, 2, 10624
5, 3355, Pitch_bend_c, 2, 10496
5, 3363, Pitch_bend_c, 2, 10368
5, 3368, Pitch_bend_c, 2, 10240
5, 3376, Pitch_bend_c, 2, 10112
5, 3379, Pitch_bend_c, 2, 9984
5, 3387, Pitch_bend_c, 2, 9856
5, 3392, Pitch_bend_c, 2, 9728
5, 3400, Pitch_bend_c, 2, 9600
5, 3403, Pitch_bend_c, 2, 9472
5, 3411, Pitch_bend_c, 2, 9344
5, 3416, Pitch_bend_c, 2, 9216
5, 3424, Pitch_bend_c, 2, 9088
5, 3427, Pitch_bend_c, 2, 8960
5, 3435, Pitch_bend_c, 2, 8832
5, 3440, Pitch_bend_c, 2, 8704
5, 3448, Pitch_bend_c, 2, 8576
5, 3451, Pitch_bend_c, 2, 8448
5, 4496, Note_off_c, 2, 69, 64
5, 4587, Note_on_c, 2, 69, 127
5, 5979, Pitch_bend_c, 2, 8448
5, 5984, Pitch_bend_c, 2, 8576
5, 5987, Pitch_bend_c, 2, 8704
5, 5992, Pitch_bend_c, 2, 8960
5, 5995, Pitch_bend_c, 2, 9088
5, 6000, Pitch_bend_c, 2, 9344
5, 6003, Pitch_bend_c, 2, 9472
5, 6008, Pitch_bend_c, 2, 9728
5, 6011, Pitch_bend_c, 2, 9856
5, 6016, Pitch_bend_c, 2, 10112
5, 6019, Pitch_bend_c, 2, 10240
5, 6024, Pitch_bend_c, 2, 10496
5, 6027, Pitch_bend_c, 2, 10624
5, 6032, Pitch_bend_c, 2, 10880
5, 6035, Pitch_bend_c, 2, 11008
5, 6040, Pitch_bend_c, 2, 11264
5, 6043, Pitch_bend_c, 2, 11392
5, 6048, Pitch_bend_c, 2, 11648
5, 6051, Pitch_bend_c, 2, 11776
5, 6056, Pitch_bend_c, 2, 12032
5, 6059, Pitch_bend_c, 2, 12160
5, 6064, Pitch_bend_c, 2, 12416
5, 6067, Pitch_bend_c, 2, 12544
5, 6072, Pitch_bend_c, 2, 12800
5, 6075, Pitch_bend_c, 2, 12928
5, 6080, Pitch_bend_c, 2, 13184
5, 6083, Pitch_bend_c, 2, 13312
5, 6088, Pitch_bend_c, 2, 13568
5, 6091, Pitch_bend_c, 2, 13696
5, 6096, Pitch_bend_c, 2, 13952
5, 6099, Pitch_bend_c, 2, 14080
5, 6104, Pitch_bend_c, 2, 14336
5, 6107, Pitch_bend_c, 2, 14464
5, 6112, Pitch_bend_c, 2, 14720
5, 6115, Pitch_bend_c, 2, 14848
5, 6120, Pitch_bend_c, 2, 15104
5, 6123, Pitch_bend_c, 2, 15232
5, 6128, Pitch_bend_c, 2, 15488
5, 6131, Pitch_bend_c, 2, 15616
5, 6136, Pitch_bend_c, 2, 15872
5, 6139, Pitch_bend_c, 2, 16000
5, 6144, Pitch_bend_c, 2, 16256
5, 6152, Pitch_bend_c, 2, 16256
5, 6160, Pitch_bend_c, 2, 16128
5, 6168, Pitch_bend_c, 2, 16000
5, 6171, Pitch_bend_c, 2, 15872
5, 6179, Pitch_bend_c, 2, 15744
5, 6184, Pitch_bend_c, 2, 15616
5, 6192, Pitch_bend_c, 2, 15488
5, 6195, Pitch_bend_c, 2, 15360
5, 6203, Pitch_bend_c, 2, 15232
5, 6208, Pitch_bend_c, 2, 15104
5, 6216, Pitch_bend_c, 2, 14976
5, 6219, Pitch_bend_c, 2, 14848
5, 6227, Pitch_bend_c, 2, 14720
5, 6232, Pitch_bend_c, 2, 14592
5, 6240, Pitch_bend_c, 2, 14464
5, 6243, Pitch_bend_c, 2, 14336
5, 6251, Pitch_bend_c, 2, 14208
5, 6256, Pitch_bend_c, 2, 14080
5, 6264, Pitch_bend_c, 2, 13952
5, 6267, Pitch_bend_c, 2, 13824
5, 6275, Pitch_bend_c, 2, 13696
5, 6280, Pitch_bend_c, 2, 13568
5, 6288, Pitch_bend_c, 2, 13440
5, 6291, Pitch_bend_c, 2, 13312
5, 6299, Pitch_bend_c, 2, 13184
5, 6304, Pitch_bend_c, 2, 13056
5, 6312, Pitch_bend_c, 2, 12928
5, 6315, Pitch_bend_c, 2, 12800
5, 6323, Pitch_bend_c, 2, 12672
5, 6328, Pitch_bend_c, 2, 12544
5, 6336, Pitch_bend_c, 2, 12416
5, 6344, Pitch_bend_c, 2, 12288
5, 6347, Pitch_bend_c, 2, 12160
5, 6355, Pitch_bend_c, 2, 12032
5, 6360, Pitch_bend_c, 2, 11904
5, 6368, Pitch_bend_c, 2, 11776
5, 6371, Pitch_bend_c, 2, 11648
5, 6379, Pitch_bend_c, 2, 11520
5, 6384, Pitch_bend_c, 2, 11392
5, 6392, Pitch_bend_c, 2, 11264
5, 6395, Pitch_bend_c, 2, 11136
5, 6403, Pitch_bend_c, 2, 11008
5, 6408, Pitch_bend_c, 2, 10880
5, 6416, Pitch_bend_c, 2, 10752
5, 6419, Pitch_bend_c, 2, 10624
5, 6427, Pitch_bend_c, 2, 10496
5, 6432, Pitch_bend_c, 2, 10368
5, 6440, Pitch_bend_c, 2, 10240
5, 6443, Pitch_bend_c, 2, 10112
5, 6451, Pitch_bend_c, 2, 9984
5, 6456, Pitch_bend_c, 2, 9856
5, 6464, Pitch_bend_c, 2, 9728
5, 6467, Pitch_bend_c, 2, 9600
5, 6475, Pitch_bend_c, 2, 9472
5, 6480, Pitch_bend_c, 2, 9344
5, 6488, Pitch_bend_c, 2, 9216
5, 6491, Pitch_bend_c, 2, 9088
5, 6499, Pitch_bend_c, 2, 8960
5, 6504, Pitch_bend_c, 2, 8832
5, 6512, Pitch_bend_c, 2, 8704
5, 6515, Pitch_bend_c, 2, 8576
5, 7566, Note_off_c, 2, 69, 64
5, 13552, Note_on_c, 2, 66, 127
5, 13579, Pitch_bend_c, 2, 8192
5, 13584, Pitch_bend_c, 2, 8448
5, 13587, Pitch_bend_c, 2, 8832
5, 13592, Pitch_bend_c, 2, 9216
5, 13595, Pitch_bend_c, 2, 9600
5, 13600, Pitch_bend_c, 2, 9984
5, 13603, Pitch_bend_c, 2, 10368
5, 13608, Pitch_bend_c, 2, 10624
5, 13611, Pitch_bend_c, 2, 11008
5, 13616, Pitch_bend_c, 2, 11392
5, 13619, Pitch_bend_c, 2, 11776
5, 13624, Pitch_bend_c, 2, 12160
5, 13627, Pitch_bend_c, 2, 12544
5, 13632, Pitch_bend_c, 2, 12416
5, 13635, Pitch_bend_c, 2, 12160
5, 13640, Pitch_bend_c, 2, 11776
5, 13643, Pitch_bend_c, 2, 11392
5, 13648, Pitch_bend_c, 2, 11008
5, 13651, Pitch_bend_c, 2, 10752
5, 13656, Pitch_bend_c, 2, 10368
5, 13659, Pitch_bend_c, 2, 9984
5, 13664, Pitch_bend_c, 2, 9600
5, 13667, Pitch_bend_c, 2, 9344
5, 13672, Pitch_bend_c, 2, 8960
5, 13675, Pitch_bend_c, 2, 8576
5, 13680, Pitch_bend_c, 2, 8192
5, 13744, Note_on_c, 2, 64, 127
5, 13756, Note_off_c, 2, 66, 64
5, 13931, Note_on_c, 2, 66, 127
5, 13950, Note_off_c, 2, 64, 64
5, 14027, Note_off_c, 2, 66, 64
5, 14030, Note_on_c, 2, 62, 127
5, 14288, Note_off_c, 2, 62, 64
5, 14312, Note_on_c, 2, 66, 127
5, 14331, Pitch_bend_c, 2, 8320
5, 14336, Pitch_bend_c, 2, 8576
5, 14339, Pitch_bend_c, 2, 8832
5, 14344, Pitch_bend_c, 2, 9088
5, 14347, Pitch_bend_c, 2, 9344
5, 14352, Pitch_bend_c, 2, 9600
5, 14355, Pitch_bend_c, 2, 9856
5, 14360, Pitch_bend_c, 2, 10112
5, 14363, Pitch_bend_c, 2, 10368
5, 14368, Pitch_bend_c, 2, 10624
5, 14371, Pitch_bend_c, 2, 10880
5, 14376, Pitch_bend_c, 2, 11136
5, 14379, Pitch_bend_c, 2, 11392
5, 14384, Pitch_bend_c, 2, 11648
5, 14387, Pitch_bend_c, 2, 11904
5, 14392, Pitch_bend_c, 2, 12288
5, 14395, Pitch_bend_c, 2, 12032
5, 14400, Pitch_bend_c, 2, 11776
5, 14403, Pitch_bend_c, 2, 11520
5, 14408, Pitch_bend_c, 2, 11264
5, 14411, Pitch_bend_c, 2, 11008
5, 14416, Pitch_bend_c, 2, 10752
5, 14419, Pitch_bend_c, 2, 10496
5, 14424, Pitch_bend_c, 2, 10112
5, 14427, Pitch_bend_c, 2, 9856
5, 14432, Pitch_bend_c, 2, 9600
5, 14435, Pitch_bend_c, 2, 9344
5, 14440, Pitch_bend_c, 2, 9088
5, 14443, Pitch_bend_c, 2, 8832
5, 14448, Pitch_bend_c, 2, 8576
5, 14451, Pitch_bend_c, 2, 8192
5, 14504, Note_on_c, 2, 64, 127
5, 14518, Note_off_c, 2, 66, 64
5, 14691, Note_on_c, 2, 66, 127
5, 14707, Note_off_c, 2, 64, 64
5, 14792, Note_on_c, 2, 62, 127
5, 14795, Note_off_c, 2, 66, 64
5, 15084, Note_on_c, 2, 66, 127
5, 15099, Note_off_c, 2, 62, 64
5, 15260, Note_on_c, 2, 57, 127
5, 15262, Note_off_c, 2, 66, 64
5, 15824, Pitch_bend_c, 2, 8448
5, 15827, Pitch_bend_c, 2, 8832
5, 15832, Pitch_bend_c, 2, 9088
5, 15835, Pitch_bend_c, 2, 9216
5, 15840, Pitch_bend_c, 2, 9472
5, 15843, Pitch_bend_c, 2, 9728
5, 15848, Pitch_bend_c, 2, 9856
5, 15856, Pitch_bend_c, 2, 10112
5, 15864, Pitch_bend_c, 2, 10368
5, 15872, Pitch_bend_c, 2, 10752
5, 15875, Pitch_bend_c, 2, 10880
5, 15880, Pitch_bend_c, 2, 11136
5, 15888, Pitch_bend_c, 2, 11520
5, 15891, Pitch_bend_c, 2, 11776
5, 15896, Pitch_bend_c, 2, 12032
5, 15904, Pitch_bend_c, 2, 12288
5, 15907, Pitch_bend_c, 2, 12416
5, 15912, Pitch_bend_c, 2, 12800
5, 15915, Pitch_bend_c, 2, 13056
5, 15920, Pitch_bend_c, 2, 13440
5, 15923, Pitch_bend_c, 2, 13696
5, 15928, Pitch_bend_c, 2, 13952
5, 15931, Pitch_bend_c, 2, 14336
5, 15936, Pitch_bend_c, 2, 14592
5, 15939, Pitch_bend_c, 2, 14720
5, 15944, Pitch_bend_c, 2, 14976
5, 15952, Pitch_bend_c, 2, 15488
5, 15960, Pitch_bend_c, 2, 15616
5, 15963, Pitch_bend_c, 2, 15872
5, 15968, Pitch_bend_c, 2, 16000
5, 15984, Pitch_bend_c, 2, 16128
5, 15995, Pitch_bend_c, 2, 16256
5, 16011, Pitch_bend_c, 2, 16383
5, 16035, Pitch_bend_c, 2, 16256
5, 16043, Pitch_bend_c, 2, 16000
5, 16051, Pitch_bend_c, 2, 15872
5, 16056, Pitch_bend_c, 2, 15488
5, 16064, Pitch_bend_c, 2, 15104
5, 16067, Pitch_bend_c, 2, 14592
5, 16072, Pitch_bend_c, 2, 13696
5, 16075, Pitch_bend_c, 2, 13440
5, 16080, Pitch_bend_c, 2, 12800
5, 16083, Pitch_bend_c, 2, 11776
5, 16088, Pitch_bend_c, 2, 10880
5, 16091, Pitch_bend_c, 2, 10496
5, 16096, Pitch_bend_c, 2, 9984
5, 16099, Pitch_bend_c, 2, 9600
5, 16104, Pitch_bend_c, 2, 8704
5, 16529, Note_off_c, 2, 57, 64
5, 22272, Control_c, 2, 7, 60
5, 22318, Control_c, 2, 7, 59
5, 22366, Control_c, 2, 7, 58
5, 22414, Control_c, 2, 7, 57
5, 22462, Control_c, 2, 7, 56
5, 22510, Control_c, 2, 7, 55
5, 22558, Control_c, 2, 7, 54
5, 22606, Control_c, 2, 7, 53
5, 22654, Control_c, 2, 7, 52
5, 22702, Control_c, 2, 7, 51
5, 22750, Control_c, 2, 7, 50
5, 22798, Control_c, 2, 7, 49
5, 22846, Control_c, 2, 7, 48
5, 22894, Control_c, 2, 7, 47
5, 22942, Control_c, 2, 7, 46
5, 22990, Control_c, 2, 7, 45
5, 23038, Control_c, 2, 7, 44
5, 23043, Note_on_c, 2, 62, 127
5, 23044, Note_on_c, 2, 57, 127
5, 23048, Note_on_c, 2, 50, 127
5, 23235, Note_on_c, 2, 59, 127
5, 23251, Note_off_c, 2, 57, 64
5, 23321, Note_off_c, 2, 59, 64
5, 23339, Note_on_c, 2, 57, 127
5, 23995, Note_on_c, 2, 59, 127
5, 24016, Note_off_c, 2, 57, 64
5, 24092, Note_off_c, 2, 59, 64
5, 24099, Note_on_c, 2, 57, 127
5, 24556, Note_off_c, 2, 50, 64
5, 24572, Note_off_c, 2, 62, 64
5, 24579, Note_on_c, 2, 50, 127
5, 24582, Note_on_c, 2, 50, 127
5, 24587, Note_on_c, 2, 62, 127
5, 24587, Note_on_c, 2, 55, 127
5, 24643, Note_off_c, 2, 55, 64
5, 24673, Note_on_c, 2, 55, 127
5, 24771, Note_on_c, 2, 59, 127
5, 24780, Note_on_c, 2, 59, 127
5, 24793, Note_off_c, 2, 55, 64
5, 24806, Note_off_c, 2, 57, 64
5, 24876, Note_on_c, 2, 57, 127
5, 24880, Note_on_c, 2, 57, 127
5, 24892, Note_off_c, 2, 59, 64
5, 24897, Note_off_c, 2, 59, 64
5, 24964, Note_off_c, 2, 57, 64
5, 24968, Note_on_c, 2, 55, 127
5, 25022, Note_off_c, 2, 55, 64
5, 25059, Note_on_c, 2, 55, 127
5, 25115, Note_off_c, 2, 55, 64
5, 25155, Note_on_c, 2, 55, 127
5, 25212, Note_off_c, 2, 55, 64
5, 25251, Note_on_c, 2, 55, 127
5, 25291, Note_off_c, 2, 50, 64
5, 25305, Note_off_c, 2, 55, 64
5, 25344, Note_on_c, 2, 50, 127
5, 25361, Note_on_c, 2, 55, 127
5, 25419, Note_off_c, 2, 55, 64
5, 25449, Note_on_c, 2, 55, 127
5, 25544, Note_on_c, 2, 59, 127
5, 25545, Note_on_c, 2, 59, 127
5, 25563, Note_off_c, 2, 57, 64
5, 25568, Note_off_c, 2, 55, 64
5, 25643, Note_on_c, 2, 57, 127
5, 25646, Note_on_c, 2, 57, 127
5, 25656, Note_off_c, 2, 59, 64
5, 25680, Note_off_c, 2, 59, 64
5, 25729, Note_on_c, 2, 55, 127
5, 25750, Note_off_c, 2, 57, 64
5, 25796, Note_off_c, 2, 55, 64
5, 25832, Note_on_c, 2, 55, 127
5, 25894, Note_off_c, 2, 55, 64
5, 25928, Note_on_c, 2, 55, 127
5, 25990, Note_off_c, 2, 55, 64
5, 26022, Note_on_c, 2, 55, 127
5, 26075, Note_off_c, 2, 62, 64
5, 26080, Note_off_c, 2, 55, 64
5, 26088, Note_off_c, 2, 50, 64
5, 26115, Note_off_c, 2, 50, 64
5, 26118, Note_on_c, 2, 62, 127
5, 26118, Note_on_c, 2, 50, 127
5, 26310, Note_on_c, 2, 59, 127
5, 26331, Note_off_c, 2, 57, 64
5, 26408, Note_on_c, 2, 57, 127
5, 26414, Note_off_c, 2, 59, 64
5, 27073, Note_on_c, 2, 59, 127
5, 27099, Note_off_c, 2, 57, 64
5, 27176, Note_on_c, 2, 57, 127
5, 27188, Note_off_c, 2, 59, 64
5, 27614, Note_off_c, 2, 50, 64
5, 27635, Note_off_c, 2, 62, 64
5, 27654, Note_on_c, 2, 50, 127
5, 27657, Note_on_c, 2, 55, 127
5, 27660, Note_on_c, 2, 50, 127
5, 27664, Note_on_c, 2, 62, 127
5, 27712, Note_off_c, 2, 55, 64
5, 27744, Note_on_c, 2, 55, 127
5, 27840, Note_on_c, 2, 59, 127
5, 27843, Note_on_c, 2, 59, 127
5, 27862, Note_off_c, 2, 55, 64
5, 27870, Note_off_c, 2, 57, 64
5, 27939, Note_on_c, 2, 57, 127
5, 27944, Note_off_c, 2, 59, 64
5, 27947, Note_on_c, 2, 57, 127
5, 27964, Note_off_c, 2, 59, 64
5, 28030, Note_off_c, 2, 50, 64
5, 28044, Note_on_c, 2, 55, 127
5, 28048, Note_off_c, 2, 57, 64
5, 28100, Note_off_c, 2, 55, 64
5, 28137, Note_on_c, 2, 55, 127
5, 28185, Note_off_c, 2, 55, 64
5, 28230, Note_on_c, 2, 55, 127
5, 28275, Note_off_c, 2, 55, 64
5, 28320, Note_on_c, 2, 55, 127
5, 28363, Note_off_c, 2, 55, 64
5, 28416, Note_on_c, 2, 50, 127
5, 28435, Note_on_c, 2, 55, 127
5, 28462, Note_off_c, 2, 55, 64
5, 28510, Note_on_c, 2, 55, 127
5, 28596, Note_on_c, 2, 59, 127
5, 28614, Note_on_c, 2, 59, 127
5, 28628, Note_off_c, 2, 57, 64
5, 28628, Note_off_c, 2, 55, 64
5, 28697, Note_on_c, 2, 57, 127
5, 28699, Note_off_c, 2, 59, 64
5, 28720, Note_on_c, 2, 57, 127
5, 28752, Note_off_c, 2, 59, 64
5, 28753, Note_off_c, 2, 50, 64
5, 28806, Note_on_c, 2, 55, 127
5, 28817, Note_off_c, 2, 57, 64
5, 28854, Note_off_c, 2, 55, 64
5, 28892, Note_on_c, 2, 55, 127
5, 28940, Note_off_c, 2, 55, 64
5, 28987, Note_on_c, 2, 55, 127
5, 29030, Note_off_c, 2, 55, 64
5, 29091, Note_on_c, 2, 55, 127
5, 29136, Note_off_c, 2, 55, 64
5, 29145, Note_off_c, 2, 50, 64
5, 29164, Note_off_c, 2, 57, 64
5, 29174, Note_on_c, 2, 57, 127
5, 29177, Note_on_c, 2, 50, 127
5, 29369, Note_on_c, 2, 59, 127
5, 29396, Note_off_c, 2, 57, 64
5, 29473, Note_on_c, 2, 57, 127
5, 29488, Note_off_c, 2, 59, 64
5, 30147, Note_on_c, 2, 59, 127
5, 30184, Note_off_c, 2, 57, 64
5, 30241, Note_on_c, 2, 57, 127
5, 30254, Note_off_c, 2, 59, 64
5, 30681, Note_off_c, 2, 50, 64
5, 30712, Note_off_c, 2, 62, 64
5, 30716, Note_on_c, 2, 50, 127
5, 30726, Note_on_c, 2, 55, 127
5, 30731, Note_on_c, 2, 50, 127
5, 30732, Note_on_c, 2, 62, 127
5, 30784, Note_off_c, 2, 55, 64
5, 30816, Note_on_c, 2, 55, 127
5, 30916, Note_on_c, 2, 59, 127
5, 30923, Note_on_c, 2, 59, 127
5, 30929, Note_off_c, 2, 55, 64
5, 30956, Note_off_c, 2, 57, 64
5, 31006, Note_off_c, 2, 50, 64
5, 31017, Note_on_c, 2, 57, 127
5, 31020, Note_on_c, 2, 57, 127
5, 31030, Note_off_c, 2, 59, 64
5, 31044, Note_off_c, 2, 59, 64
5, 31105, Note_on_c, 2, 55, 127
5, 31115, Note_off_c, 2, 57, 64
5, 31158, Note_off_c, 2, 55, 64
5, 31196, Note_on_c, 2, 55, 127
5, 31244, Note_off_c, 2, 55, 64
5, 31291, Note_on_c, 2, 55, 127
5, 31336, Note_off_c, 2, 55, 64
5, 31395, Note_on_c, 2, 55, 127
5, 31440, Note_off_c, 2, 55, 64
5, 31478, Note_on_c, 2, 50, 127
5, 31496, Note_on_c, 2, 55, 127
5, 31552, Note_off_c, 2, 55, 64
5, 31588, Note_on_c, 2, 55, 127
5, 31675, Note_on_c, 2, 59, 127
5, 31684, Note_on_c, 2, 59, 127
5, 31700, Note_off_c, 2, 55, 64
5, 31702, Note_off_c, 2, 57, 64
5, 31726, Note_off_c, 2, 50, 64
5, 31766, Note_on_c, 2, 57, 127
5, 31771, Note_off_c, 2, 59, 64
5, 31780, Note_on_c, 2, 57, 127
5, 31814, Note_off_c, 2, 59, 64
5, 31873, Note_on_c, 2, 55, 127
5, 31888, Note_off_c, 2, 57, 64
5, 31936, Note_off_c, 2, 55, 64
5, 31971, Note_on_c, 2, 55, 127
5, 32020, Note_off_c, 2, 55, 64
5, 32070, Note_on_c, 2, 55, 127
5, 32080, Note_off_c, 2, 62, 64
5, 32084, Note_off_c, 2, 57, 64
5, 32097, Note_off_c, 2, 50, 64
5, 32110, Note_off_c, 2, 55, 64
5, 32163, Note_on_c, 2, 55, 127
5, 32196, Note_off_c, 2, 55, 64
5, 32260, Note_on_c, 2, 48, 127
5, 32262, Note_on_c, 2, 55, 127
5, 32272, Note_on_c, 2, 60, 127
5, 33332, Note_off_c, 2, 48, 64
5, 33358, Note_off_c, 2, 55, 64
5, 33363, Note_off_c, 2, 60, 64
5, 33398, Note_on_c, 2, 55, 127
5, 33411, Note_on_c, 2, 60, 127
5, 33414, Note_on_c, 2, 48, 127
5, 33544, Note_off_c, 2, 48, 64
5, 33555, Note_off_c, 2, 60, 64
5, 33593, Note_on_c, 2, 60, 127
5, 33595, Note_on_c, 2, 48, 127
5, 33729, Note_off_c, 2, 55, 64
5, 33748, Note_off_c, 2, 60, 64
5, 33779, Note_on_c, 2, 57, 127
5, 33780, Note_off_c, 2, 48, 64
5, 33790, Note_on_c, 2, 62, 127
5, 33793, Note_on_c, 2, 50, 127
5, 35100, Note_off_c, 2, 50, 64
5, 35105, Note_off_c, 2, 62, 64
5, 35139, Note_on_c, 2, 62, 127
5, 35139, Note_on_c, 2, 50, 127
5, 35289, Note_off_c, 2, 57, 64
5, 35300, Note_off_c, 2, 62, 64
5, 35316, Note_off_c, 2, 50, 64
5, 35328, Note_on_c, 2, 57, 127
5, 35329, Note_on_c, 2, 45, 127
5, 35331, Note_on_c, 2, 52, 127
5, 36024, Note_off_c, 2, 52, 64
5, 36076, Note_off_c, 2, 45, 64
5, 36076, Note_off_c, 2, 57, 64
5, 36084, Note_on_c, 2, 52, 127
5, 36086, Note_on_c, 2, 47, 127
5, 36091, Note_on_c, 2, 40, 127
5, 36691, Note_off_c, 2, 52, 64
5, 36835, Note_off_c, 2, 40, 64
5, 36835, Note_on_c, 2, 50, 127
5, 36838, Note_on_c, 2, 57, 127
5, 36844, Note_off_c, 2, 47, 64
5, 36846, Note_on_c, 2, 62, 127
5, 38296, Note_off_c, 2, 57, 64
5, 38302, Note_off_c, 2, 62, 64
5, 38307, Note_off_c, 2, 50, 64
5, 38385, Note_on_c, 2, 55, 127
5, 38393, Note_on_c, 2, 60, 127
5, 38401, Note_on_c, 2, 48, 127
5, 38944, Note_off_c, 2, 48, 64
5, 38945, Note_off_c, 2, 55, 64
5, 38953, Note_off_c, 2, 60, 64
5, 38971, Note_on_c, 2, 55, 127
5, 38977, Note_on_c, 2, 48, 127
5, 38980, Note_on_c, 2, 60, 127
5, 39123, Note_off_c, 2, 55, 64
5, 39140, Note_off_c, 2, 48, 64
5, 39163, Note_off_c, 2, 60, 64
5, 39163, Note_on_c, 2, 50, 127
5, 39166, Note_on_c, 2, 43, 127
5, 39168, Note_on_c, 2, 55, 127
5, 39641, Note_off_c, 2, 50, 64
5, 39648, Note_off_c, 2, 43, 64
5, 39670, Note_off_c, 2, 55, 64
5, 39729, Note_on_c, 2, 43, 127
5, 39731, Note_on_c, 2, 55, 127
5, 39734, Note_on_c, 2, 50, 127
5, 39857, Note_off_c, 2, 55, 64
5, 39872, Note_off_c, 2, 50, 64
5, 39880, Note_off_c, 2, 43, 64
5, 39916, Note_on_c, 2, 57, 127
5, 39918, Note_on_c, 2, 50, 127
5, 39942, Note_on_c, 2, 62, 127
5, 41321, Note_off_c, 2, 62, 64
5, 41329, Note_off_c, 2, 57, 64
5, 41331, Note_off_c, 2, 50, 64
5, 41467, Note_on_c, 2, 62, 127
5, 41472, Note_on_c, 2, 57, 127
5, 41475, Note_on_c, 2, 50, 127
5, 41836, Note_off_c, 2, 57, 64
5, 41854, Note_on_c, 2, 57, 127
5, 42049, Note_on_c, 2, 59, 127
5, 42068, Note_off_c, 2, 57, 64
5, 42147, Note_on_c, 2, 57, 127
5, 42163, Note_off_c, 2, 59, 64
5, 42427, Note_on_c, 2, 59, 127
5, 42441, Note_off_c, 2, 57, 64
5, 42524, Note_on_c, 2, 57, 127
5, 42542, Note_off_c, 2, 59, 64
5, 42678, Note_off_c, 2, 57, 64
5, 42697, Note_on_c, 2, 57, 127
5, 42806, Note_on_c, 2, 59, 127
5, 42811, Note_off_c, 2, 57, 64
5, 42915, Note_off_c, 2, 59, 64
5, 42915, Note_on_c, 2, 57, 127
5, 42916, Note_off_c, 2, 62, 64
5, 42931, Note_off_c, 2, 57, 64
5, 42960, Note_off_c, 2, 50, 64
5, 42998, Note_on_c, 2, 43, 127
5, 42998, Note_on_c, 2, 55, 127
5, 43008, Note_on_c, 2, 50, 127
5, 43248, Note_off_c, 2, 50, 64
5, 43291, Note_on_c, 2, 50, 127
5, 43347, Note_off_c, 2, 50, 64
5, 43387, Note_on_c, 2, 50, 127
5, 43558, Note_off_c, 2, 50, 64
5, 43678, Note_on_c, 2, 50, 127
5, 43803, Note_off_c, 2, 50, 64
5, 43865, Note_on_c, 2, 50, 127
5, 44014, Note_off_c, 2, 50, 64
5, 44056, Note_on_c, 2, 50, 127
5, 44262, Note_off_c, 2, 55, 64
5, 44507, Note_off_c, 2, 43, 64
5, 44510, Note_off_c, 2, 50, 64
5, 44531, Note_on_c, 2, 62, 127
5, 44531, Note_on_c, 2, 57, 127
5, 44540, Note_on_c, 2, 50, 127
5, 44699, Note_off_c, 2, 57, 64
5, 44728, Note_on_c, 2, 57, 127
5, 44889, Note_off_c, 2, 57, 64
5, 44900, Note_on_c, 2, 57, 127
5, 44969, Note_off_c, 2, 57, 64
5, 44984, Note_on_c, 2, 57, 127
5, 45107, Note_on_c, 2, 59, 127
5, 45137, Note_off_c, 2, 57, 64
5, 45208, Note_on_c, 2, 57, 127
5, 45228, Note_off_c, 2, 59, 64
5, 45499, Note_on_c, 2, 59, 127
5, 45513, Note_off_c, 2, 57, 64
5, 45595, Note_on_c, 2, 57, 127
5, 45620, Note_off_c, 2, 59, 64
5, 45750, Note_off_c, 2, 57, 64
5, 45768, Note_on_c, 2, 57, 127
5, 45880, Note_on_c, 2, 59, 127
5, 45889, Note_off_c, 2, 57, 64
5, 45982, Note_on_c, 2, 57, 127
5, 45993, Note_off_c, 2, 59, 64
5, 46001, Note_off_c, 2, 62, 64
5, 46004, Note_off_c, 2, 50, 64
5, 46009, Note_off_c, 2, 57, 64
5, 46070, Note_on_c, 2, 43, 127
5, 46075, Note_on_c, 2, 55, 127
5, 46080, Note_on_c, 2, 50, 127
5, 46230, Note_off_c, 2, 55, 64
5, 46272, Note_on_c, 2, 59, 127
5, 46364, Note_on_c, 2, 57, 127
5, 46390, Note_off_c, 2, 59, 64
5, 46404, Note_off_c, 2, 57, 64
5, 46564, Note_on_c, 2, 55, 127
5, 46596, Note_off_c, 2, 55, 64
5, 46662, Note_on_c, 2, 55, 127
5, 46684, Note_off_c, 2, 55, 64
5, 46745, Note_on_c, 2, 55, 127
5, 46774, Note_off_c, 2, 55, 64
5, 46833, Note_on_c, 2, 55, 127
5, 46862, Note_off_c, 2, 55, 64
5, 46937, Note_on_c, 2, 55, 127
5, 47036, Note_off_c, 2, 55, 64
5, 47036, Note_on_c, 2, 59, 127
5, 47118, Note_on_c, 2, 57, 127
5, 47156, Note_off_c, 2, 59, 64
5, 47176, Note_off_c, 2, 57, 64
5, 47211, Note_on_c, 2, 55, 127
5, 47259, Note_off_c, 2, 55, 64
5, 47308, Note_on_c, 2, 55, 127
5, 47353, Note_off_c, 2, 55, 64
5, 47414, Note_on_c, 2, 55, 127
5, 47521, Note_off_c, 2, 55, 64
5, 47556, Note_off_c, 2, 43, 64
5, 47574, Note_off_c, 2, 50, 64
5, 47604, Note_on_c, 2, 57, 127
5, 47606, Note_on_c, 2, 62, 127
5, 47608, Note_on_c, 2, 50, 127
5, 47774, Note_off_c, 2, 57, 64
5, 47806, Note_on_c, 2, 57, 127
5, 47971, Note_off_c, 2, 57, 64
5, 47996, Note_on_c, 2, 57, 127
5, 48059, Note_off_c, 2, 57, 64
5, 48089, Note_on_c, 2, 57, 127
5, 48196, Note_on_c, 2, 59, 127
5, 48235, Note_off_c, 2, 57, 64
5, 48289, Note_on_c, 2, 57, 127
5, 48312, Note_off_c, 2, 59, 64
5, 48446, Note_off_c, 2, 57, 64
5, 48464, Note_on_c, 2, 57, 127
5, 48572, Note_on_c, 2, 59, 127
5, 48603, Note_off_c, 2, 57, 64
5, 48662, Note_on_c, 2, 57, 127
5, 48688, Note_off_c, 2, 59, 64
5, 48812, Note_off_c, 2, 57, 64
5, 48851, Note_on_c, 2, 57, 127
5, 48950, Note_on_c, 2, 59, 127
5, 48964, Note_off_c, 2, 57, 64
5, 49049, Note_on_c, 2, 57, 127
5, 49052, Note_off_c, 2, 59, 64
5, 49059, Note_off_c, 2, 62, 64
5, 49072, Note_off_c, 2, 57, 64
5, 49089, Note_off_c, 2, 50, 64
5, 49140, Note_on_c, 2, 50, 127
5, 49140, Note_on_c, 2, 43, 127
5, 49144, Note_on_c, 2, 55, 127
5, 49328, Note_on_c, 2, 59, 127
5, 49329, Note_off_c, 2, 55, 64
5, 49416, Note_off_c, 2, 59, 64
5, 49419, Note_on_c, 2, 57, 127
5, 49478, Note_off_c, 2, 57, 64
5, 49516, Note_on_c, 2, 55, 127
5, 49561, Note_off_c, 2, 55, 64
5, 49627, Note_on_c, 2, 55, 127
5, 49676, Note_off_c, 2, 55, 64
5, 49726, Note_on_c, 2, 55, 127
5, 49780, Note_off_c, 2, 55, 64
5, 49825, Note_on_c, 2, 55, 127
5, 49884, Note_off_c, 2, 55, 64
5, 49920, Note_on_c, 2, 55, 127
5, 49979, Note_off_c, 2, 55, 64
5, 50011, Note_on_c, 2, 55, 127
5, 50110, Note_on_c, 2, 59, 127
5, 50129, Note_off_c, 2, 55, 64
5, 50193, Note_on_c, 2, 57, 127
5, 50204, Note_off_c, 2, 59, 64
5, 50296, Note_on_c, 2, 55, 127
5, 50297, Note_off_c, 2, 57, 64
5, 50337, Note_off_c, 2, 55, 64
5, 50392, Note_on_c, 2, 55, 127
5, 50443, Note_off_c, 2, 55, 64
5, 50489, Note_on_c, 2, 55, 127
5, 50548, Note_off_c, 2, 55, 64
5, 50574, Note_on_c, 2, 55, 127
5, 50608, Note_off_c, 2, 55, 64
5, 50638, Note_off_c, 2, 50, 64
5, 50660, Note_off_c, 2, 43, 64
5, 50676, Note_on_c, 2, 62, 127
5, 50676, Note_on_c, 2, 57, 127
5, 50678, Note_on_c, 2, 50, 127
5, 50841, Note_off_c, 2, 57, 64
5, 50868, Note_on_c, 2, 57, 127
5, 51049, Note_off_c, 2, 57, 64
5, 51062, Note_on_c, 2, 57, 127
5, 51259, Note_on_c, 2, 59, 127
5, 51300, Note_off_c, 2, 57, 64
5, 51355, Note_on_c, 2, 57, 127
5, 51371, Note_off_c, 2, 59, 64
5, 51648, Note_on_c, 2, 59, 127
5, 51696, Note_off_c, 2, 57, 64
5, 51736, Note_on_c, 2, 57, 127
5, 51755, Note_off_c, 2, 59, 64
5, 52024, Note_on_c, 2, 59, 127
5, 52059, Note_off_c, 2, 57, 64
5, 52126, Note_on_c, 2, 57, 127
5, 52134, Note_off_c, 2, 62, 64
5, 52136, Note_off_c, 2, 59, 64
5, 52150, Note_off_c, 2, 57, 64
5, 52169, Note_off_c, 2, 50, 64
5, 52217, Note_on_c, 2, 50, 127
5, 52219, Note_on_c, 2, 43, 127
5, 52222, Note_on_c, 2, 55, 127
5, 52224, Note_on_c, 2, 57, 127
5, 52267, Note_off_c, 2, 57, 64
5, 52275, Note_off_c, 2, 55, 64
5, 52313, Note_on_c, 2, 55, 127
5, 52409, Note_on_c, 2, 59, 127
5, 52419, Note_off_c, 2, 55, 64
5, 52504, Note_on_c, 2, 57, 127
5, 52526, Note_off_c, 2, 59, 64
5, 52584, Note_off_c, 2, 57, 64
5, 52598, Note_on_c, 2, 55, 127
5, 52649, Note_off_c, 2, 55, 64
5, 52700, Note_on_c, 2, 55, 127
5, 52747, Note_off_c, 2, 55, 64
5, 52793, Note_on_c, 2, 55, 127
5, 52848, Note_off_c, 2, 55, 64
5, 52899, Note_on_c, 2, 55, 127
5, 52955, Note_off_c, 2, 55, 64
5, 52993, Note_on_c, 2, 55, 127
5, 53171, Note_on_c, 2, 59, 127
5, 53198, Note_off_c, 2, 55, 64
5, 53248, Note_off_c, 2, 59, 64
5, 53257, Note_on_c, 2, 57, 127
5, 53350, Note_on_c, 2, 55, 127
5, 53353, Note_off_c, 2, 57, 64
5, 53396, Note_off_c, 2, 55, 64
5, 53457, Note_on_c, 2, 55, 127
5, 53505, Note_off_c, 2, 55, 64
5, 53556, Note_on_c, 2, 55, 127
5, 53604, Note_off_c, 2, 55, 64
5, 53643, Note_on_c, 2, 55, 127
5, 53662, Note_off_c, 2, 55, 64
5, 53667, Note_off_c, 2, 43, 64
5, 53670, Note_off_c, 2, 50, 64
5, 53745, Note_on_c, 2, 55, 127
5, 53747, Note_on_c, 2, 60, 127
5, 53748, Note_on_c, 2, 48, 127
5, 55051, Note_off_c, 2, 48, 64
5, 55057, Note_off_c, 2, 60, 64
5, 55062, Note_off_c, 2, 55, 64
5, 55092, Note_on_c, 2, 48, 127
5, 55099, Note_on_c, 2, 60, 127
5, 55100, Note_on_c, 2, 55, 127
5, 55292, Note_off_c, 2, 48, 64
5, 55292, Note_on_c, 2, 62, 127
5, 55296, Note_on_c, 2, 57, 127
5, 55297, Note_on_c, 2, 50, 127
5, 55318, Note_off_c, 2, 55, 64
5, 55324, Note_off_c, 2, 60, 64
5, 56420, Note_off_c, 2, 50, 64
5, 56424, Note_off_c, 2, 62, 64
5, 56452, Note_on_c, 2, 50, 127
5, 56457, Note_on_c, 2, 62, 127
5, 56601, Note_off_c, 2, 62, 64
5, 56616, Note_off_c, 2, 50, 64
5, 56638, Note_on_c, 2, 62, 127
5, 56643, Note_on_c, 2, 50, 127
5, 56801, Note_off_c, 2, 57, 64
5, 56806, Note_off_c, 2, 50, 64
5, 56814, Note_on_c, 2, 57, 127
5, 56822, Note_on_c, 2, 52, 127
5, 56822, Note_on_c, 2, 45, 127
5, 56833, Note_off_c, 2, 62, 64
5, 57368, Note_off_c, 2, 45, 64
5, 57371, Note_off_c, 2, 57, 64
5, 57401, Note_on_c, 2, 45, 127
5, 57401, Note_on_c, 2, 57, 127
5, 57568, Note_off_c, 2, 52, 64
5, 57574, Note_off_c, 2, 45, 64
5, 57585, Note_on_c, 2, 52, 127
5, 57590, Note_on_c, 2, 47, 127
5, 57592, Note_on_c, 2, 40, 127
5, 57606, Note_off_c, 2, 57, 64
5, 58224, Note_off_c, 2, 52, 64
5, 58350, Note_on_c, 2, 50, 127
5, 58355, Note_on_c, 2, 57, 127
5, 58364, Note_on_c, 2, 62, 127
5, 58366, Note_off_c, 2, 40, 64
5, 58368, Note_off_c, 2, 47, 64
5, 59488, Note_off_c, 2, 50, 64
5, 59489, Note_off_c, 2, 62, 64
5, 59515, Note_on_c, 2, 62, 127
5, 59516, Note_on_c, 2, 50, 127
5, 59651, Note_off_c, 2, 62, 64
5, 59662, Note_off_c, 2, 50, 64
5, 59696, Note_on_c, 2, 50, 127
5, 59699, Note_on_c, 2, 62, 127
5, 59875, Note_off_c, 2, 62, 64
5, 59876, Note_off_c, 2, 50, 64
5, 59889, Note_on_c, 2, 55, 127
5, 59891, Note_on_c, 2, 60, 127
5, 59900, Note_on_c, 2, 48, 127
5, 59907, Note_off_c, 2, 57, 64
5, 60632, Note_off_c, 2, 55, 64
5, 60656, Note_on_c, 2, 55, 127
5, 60657, Note_off_c, 2, 48, 64
5, 60662, Note_on_c, 2, 50, 127
5, 60664, Note_on_c, 2, 43, 127
5, 60667, Note_off_c, 2, 60, 64
5, 61372, Note_off_c, 2, 50, 64
5, 61406, Note_off_c, 2, 43, 64
5, 61422, Note_on_c, 2, 50, 127
5, 61424, Note_on_c, 2, 62, 127
5, 61424, Note_on_c, 2, 57, 127
5, 61440, Note_off_c, 2, 55, 64
5, 62809, Note_off_c, 2, 62, 64
5, 62817, Note_off_c, 2, 50, 64
5, 62817, Note_off_c, 2, 57, 64
5, 62956, Note_on_c, 2, 50, 127
5, 62958, Note_on_c, 2, 57, 127
5, 62960, Note_on_c, 2, 62, 127
5, 63424, Note_off_c, 2, 57, 64
5, 63444, Note_on_c, 2, 57, 127
5, 63545, Note_on_c, 2, 59, 127
5, 63576, Note_off_c, 2, 57, 64
5, 63643, Note_on_c, 2, 57, 127
5, 63652, Note_off_c, 2, 59, 64
5, 63929, Note_on_c, 2, 59, 127
5, 63977, Note_off_c, 2, 57, 64
5, 64025, Note_on_c, 2, 57, 127
5, 64043, Note_off_c, 2, 59, 64
5, 64305, Note_on_c, 2, 59, 127
5, 64347, Note_off_c, 2, 57, 64
5, 64406, Note_on_c, 2, 57, 127
5, 64417, Note_off_c, 2, 59, 64
5, 64430, Note_off_c, 2, 62, 64
5, 64438, Note_off_c, 2, 57, 64
5, 64464, Note_off_c, 2, 50, 64
5, 64500, Note_on_c, 2, 43, 127
5, 64502, Note_on_c, 2, 55, 127
5, 64508, Note_on_c, 2, 50, 127
5, 64560, Note_off_c, 2, 55, 64
5, 64584, Note_on_c, 2, 55, 127
5, 64694, Note_on_c, 2, 59, 127
5, 64787, Note_on_c, 2, 57, 127
5, 64812, Note_off_c, 2, 59, 64
5, 64844, Note_off_c, 2, 55, 64
5, 64886, Note_on_c, 2, 55, 127
5, 64939, Note_off_c, 2, 55, 64
5, 64945, Note_off_c, 2, 57, 64
5, 64976, Note_on_c, 2, 55, 127
5, 65033, Note_off_c, 2, 55, 64
5, 65068, Note_on_c, 2, 55, 127
5, 65126, Note_off_c, 2, 55, 64
5, 65164, Note_on_c, 2, 55, 127
5, 65225, Note_off_c, 2, 55, 64
5, 65264, Note_on_c, 2, 55, 127
5, 65318, Note_off_c, 2, 55, 64
5, 65369, Note_on_c, 2, 55, 127
5, 65464, Note_on_c, 2, 59, 127
5, 65524, Note_off_c, 2, 55, 64
5, 65556, Note_on_c, 2, 57, 127
5, 65572, Note_off_c, 2, 59, 64
5, 65654, Note_on_c, 2, 55, 127
5, 65678, Note_off_c, 2, 57, 64
5, 65710, Note_off_c, 2, 55, 64
5, 65756, Note_on_c, 2, 55, 127
5, 65809, Note_off_c, 2, 55, 64
5, 65848, Note_on_c, 2, 55, 127
5, 65897, Note_off_c, 2, 55, 64
5, 66019, Note_off_c, 2, 50, 64
5, 66028, Note_off_c, 2, 43, 64
5, 66030, Note_on_c, 2, 62, 127
5, 66030, Note_on_c, 2, 57, 127
5, 66036, Note_on_c, 2, 50, 127
5, 66593, Note_on_c, 2, 59, 127
5, 66624, Note_off_c, 2, 57, 64
5, 66699, Note_on_c, 2, 57, 127
5, 66732, Note_off_c, 2, 59, 64
5, 66886, Note_off_c, 2, 57, 64
5, 66899, Note_on_c, 2, 57, 127
5, 67006, Note_on_c, 2, 59, 127
5, 67048, Note_off_c, 2, 57, 64
5, 67096, Note_on_c, 2, 57, 127
5, 67116, Note_off_c, 2, 59, 64
5, 67393, Note_on_c, 2, 59, 127
5, 67419, Note_off_c, 2, 57, 64
5, 67489, Note_on_c, 2, 57, 127
5, 67508, Note_off_c, 2, 59, 64
5, 67521, Note_off_c, 2, 62, 64
5, 67532, Note_off_c, 2, 50, 64
5, 67534, Note_off_c, 2, 57, 64
5, 67582, Note_on_c, 2, 43, 127
5, 67584, Note_on_c, 2, 55, 127
5, 67593, Note_on_c, 2, 50, 127
5, 67640, Note_off_c, 2, 55, 64
5, 67678, Note_on_c, 2, 55, 127
5, 67779, Note_on_c, 2, 59, 127
5, 67868, Note_on_c, 2, 57, 127
5, 67891, Note_off_c, 2, 59, 64
5, 67894, Note_off_c, 2, 55, 64
5, 67966, Note_on_c, 2, 55, 127
5, 67995, Note_off_c, 2, 57, 64
5, 68025, Note_off_c, 2, 55, 64
5, 68059, Note_on_c, 2, 55, 127
5, 68129, Note_off_c, 2, 55, 64
5, 68142, Note_on_c, 2, 55, 127
5, 68216, Note_off_c, 2, 55, 64
5, 68252, Note_on_c, 2, 55, 127
5, 68308, Note_off_c, 2, 55, 64
5, 68350, Note_on_c, 2, 55, 127
5, 68395, Note_off_c, 2, 55, 64
5, 68436, Note_on_c, 2, 55, 127
5, 68532, Note_on_c, 2, 59, 127
5, 68574, Note_off_c, 2, 55, 64
5, 68625, Note_on_c, 2, 57, 127
5, 68638, Note_off_c, 2, 59, 64
5, 68728, Note_on_c, 2, 55, 127
5, 68750, Note_off_c, 2, 57, 64
5, 68790, Note_off_c, 2, 55, 64
5, 68824, Note_on_c, 2, 55, 127
5, 68870, Note_off_c, 2, 55, 64
5, 68926, Note_on_c, 2, 55, 127
5, 68977, Note_off_c, 2, 55, 64
5, 69008, Note_off_c, 2, 50, 64
5, 69099, Note_off_c, 2, 43, 64
5, 69107, Note_on_c, 2, 50, 127
5, 69116, Note_on_c, 2, 57, 127
5, 69118, Note_on_c, 2, 62, 127
5, 69681, Note_on_c, 2, 59, 127
5, 69718, Note_off_c, 2, 57, 64
5, 69784, Note_on_c, 2, 57, 127
5, 69812, Note_off_c, 2, 59, 64
5, 70076, Note_on_c, 2, 59, 127
5, 70113, Note_off_c, 2, 57, 64
5, 70168, Note_on_c, 2, 57, 127
5, 70200, Note_off_c, 2, 59, 64
5, 70337, Note_off_c, 2, 57, 64
5, 70342, Note_on_c, 2, 57, 127
5, 70449, Note_on_c, 2, 59, 127
5, 70492, Note_off_c, 2, 57, 64
5, 70539, Note_on_c, 2, 57, 127
5, 70563, Note_off_c, 2, 59, 64
5, 70576, Note_off_c, 2, 62, 64
5, 70579, Note_off_c, 2, 57, 64
5, 70595, Note_off_c, 2, 50, 64
5, 70636, Note_on_c, 2, 55, 127
5, 70643, Note_on_c, 2, 50, 127
5, 70643, Note_on_c, 2, 43, 127
5, 70696, Note_off_c, 2, 55, 64
5, 70734, Note_on_c, 2, 55, 127
5, 70830, Note_on_c, 2, 59, 127
5, 70926, Note_on_c, 2, 57, 127
5, 70952, Note_off_c, 2, 59, 64
5, 70960, Note_off_c, 2, 55, 64
5, 71028, Note_on_c, 2, 55, 127
5, 71068, Note_off_c, 2, 57, 64
5, 71080, Note_off_c, 2, 55, 64
5, 71126, Note_on_c, 2, 55, 127
5, 71198, Note_off_c, 2, 55, 64
5, 71217, Note_on_c, 2, 55, 127
5, 71278, Note_off_c, 2, 55, 64
5, 71313, Note_on_c, 2, 55, 127
5, 71380, Note_off_c, 2, 55, 64
5, 71412, Note_on_c, 2, 55, 127
5, 71472, Note_off_c, 2, 55, 64
5, 71512, Note_on_c, 2, 55, 127
5, 71608, Note_on_c, 2, 59, 127
5, 71638, Note_off_c, 2, 55, 64
5, 71696, Note_on_c, 2, 57, 127
5, 71712, Note_off_c, 2, 59, 64
5, 71801, Note_on_c, 2, 55, 127
5, 71819, Note_off_c, 2, 57, 64
5, 71856, Note_off_c, 2, 55, 64
5, 71899, Note_on_c, 2, 55, 127
5, 71960, Note_off_c, 2, 55, 64
5, 72003, Note_on_c, 2, 55, 127
5, 72057, Note_off_c, 2, 55, 64
5, 72075, Note_on_c, 2, 55, 127
5, 72100, Note_off_c, 2, 50, 64
5, 72107, Note_off_c, 2, 55, 64
5, 72174, Note_off_c, 2, 43, 64
5, 72177, Note_on_c, 2, 50, 127
5, 72179, Note_on_c, 2, 57, 127
5, 72180, Note_on_c, 2, 62, 127
5, 72750, Note_on_c, 2, 59, 127
5, 72774, Note_off_c, 2, 57, 64
5, 72854, Note_on_c, 2, 57, 127
5, 72867, Note_off_c, 2, 59, 64
5, 73032, Note_off_c, 2, 57, 64
5, 73040, Note_on_c, 2, 57, 127
5, 73142, Note_on_c, 2, 59, 127
5, 73177, Note_off_c, 2, 57, 64
5, 73238, Note_on_c, 2, 57, 127
5, 73254, Note_off_c, 2, 59, 64
5, 73404, Note_off_c, 2, 57, 64
5, 73424, Note_on_c, 2, 57, 127
5, 73526, Note_on_c, 2, 59, 127
5, 73563, Note_off_c, 2, 57, 64
5, 73628, Note_on_c, 2, 57, 127
5, 73636, Note_off_c, 2, 62, 64
5, 73640, Note_off_c, 2, 59, 64
5, 73654, Note_off_c, 2, 57, 64
5, 73680, Note_off_c, 2, 50, 64
5, 73721, Note_on_c, 2, 55, 127
5, 73724, Note_on_c, 2, 43, 127
5, 73728, Note_on_c, 2, 50, 127
5, 73804, Note_off_c, 2, 55, 64
5, 73819, Note_on_c, 2, 55, 127
5, 73923, Note_on_c, 2, 59, 127
5, 74016, Note_on_c, 2, 57, 127
5, 74030, Note_off_c, 2, 55, 64
5, 74036, Note_off_c, 2, 59, 64
5, 74116, Note_on_c, 2, 55, 127
5, 74140, Note_off_c, 2, 57, 64
5, 74184, Note_off_c, 2, 55, 64
5, 74212, Note_on_c, 2, 55, 127
5, 74272, Note_off_c, 2, 55, 64
5, 74305, Note_on_c, 2, 55, 127
5, 74366, Note_off_c, 2, 55, 64
5, 74400, Note_on_c, 2, 55, 127
5, 74462, Note_off_c, 2, 55, 64
5, 74484, Note_on_c, 2, 55, 127
5, 74545, Note_off_c, 2, 55, 64
5, 74580, Note_on_c, 2, 55, 127
5, 74672, Note_on_c, 2, 59, 127
5, 74718, Note_off_c, 2, 55, 64
5, 74753, Note_off_c, 2, 59, 64
5, 74756, Note_on_c, 2, 57, 127
5, 74852, Note_off_c, 2, 57, 64
5, 74862, Note_on_c, 2, 55, 127
5, 74918, Note_off_c, 2, 55, 64
5, 74960, Note_on_c, 2, 55, 127
5, 75020, Note_off_c, 2, 55, 64
5, 75065, Note_on_c, 2, 55, 127
5, 75110, Note_off_c, 2, 55, 64
5, 75140, Note_on_c, 2, 55, 127
5, 75153, Note_off_c, 2, 50, 64
5, 75155, Note_off_c, 2, 43, 64
5, 75156, Note_off_c, 2, 55, 64
5, 75240, Note_on_c, 2, 50, 127
5, 75241, Note_on_c, 2, 57, 127
5, 75246, Note_on_c, 2, 62, 127
5, 76366, Note_off_c, 2, 50, 64
5, 76396, Note_off_c, 2, 62, 64
5, 76422, Note_on_c, 2, 50, 127
5, 76425, Note_on_c, 2, 62, 127
5, 76572, Note_off_c, 2, 62, 64
5, 76579, Note_off_c, 2, 50, 64
5, 76608, Note_on_c, 2, 50, 127
5, 76609, Note_on_c, 2, 62, 127
5, 76681, Note_off_c, 2, 57, 64
5, 76760, Note_off_c, 2, 50, 64
5, 76800, Note_on_c, 2, 55, 127
5, 76800, Note_on_c, 2, 43, 127
5, 76804, Note_on_c, 2, 50, 127
5, 76814, Note_off_c, 2, 62, 64
5, 78230, Note_off_c, 2, 50, 64
5, 78256, Note_off_c, 2, 43, 64
5, 78304, Note_off_c, 2, 55, 64
5, 78347, Note_on_c, 2, 50, 127
5, 78348, Note_on_c, 2, 62, 127
5, 78348, Note_on_c, 2, 57, 127
5, 79104, Control_c, 2, 7, 63
5, 79128, Control_c, 2, 7, 62
5, 79152, Control_c, 2, 7, 61
5, 79176, Control_c, 2, 7, 60
5, 79200, Control_c, 2, 7, 59
5, 79225, Control_c, 2, 7, 58
5, 79249, Control_c, 2, 7, 57
5, 79273, Control_c, 2, 7, 56
5, 79297, Control_c, 2, 7, 55
5, 79323, Control_c, 2, 7, 54
5, 79347, Control_c, 2, 7, 53
5, 79371, Control_c, 2, 7, 52
5, 79395, Control_c, 2, 7, 51
5, 79419, Control_c, 2, 7, 50
5, 79444, Control_c, 2, 7, 49
5, 79468, Control_c, 2, 7, 48
5, 79492, Control_c, 2, 7, 47
5, 79516, Control_c, 2, 7, 46
5, 79542, Control_c, 2, 7, 45
5, 79566, Control_c, 2, 7, 44
5, 79590, Control_c, 2, 7, 43
5, 79614, Control_c, 2, 7, 42
5, 79638, Control_c, 2, 7, 41
5, 79664, Control_c, 2, 7, 40
5, 79688, Control_c, 2, 7, 39
5, 79712, Control_c, 2, 7, 38
5, 79736, Control_c, 2, 7, 37
5, 79761, Control_c, 2, 7, 36
5, 79785, Control_c, 2, 7, 35
5, 79809, Control_c, 2, 7, 34
5, 79833, Control_c, 2, 7, 33
5, 79857, Control_c, 2, 7, 32
5, 79883, Control_c, 2, 7, 31
5, 79907, Control_c, 2, 7, 30
5, 79931, Control_c, 2, 7, 29
5, 79955, Control_c, 2, 7, 28
5, 79980, Control_c, 2, 7, 27
5, 80004, Control_c, 2, 7, 26
5, 80028, Control_c, 2, 7, 25
5, 80052, Control_c, 2, 7, 24
5, 80076, Control_c, 2, 7, 23
5, 80102, Control_c, 2, 7, 22
5, 80126, Control_c, 2, 7, 21
5, 80150, Control_c, 2, 7, 20
5, 80174, Control_c, 2, 7, 19
5, 80200, Control_c, 2, 7, 18
5, 80224, Control_c, 2, 7, 17
5, 80248, Control_c, 2, 7, 16
5, 80272, Control_c, 2, 7, 15
5, 80296, Control_c, 2, 7, 14
5, 80321, Control_c, 2, 7, 13
5, 80345, Control_c, 2, 7, 12
5, 80369, Control_c, 2, 7, 11
5, 80393, Control_c, 2, 7, 10
5, 80419, Control_c, 2, 7, 9
5, 80443, Control_c, 2, 7, 8
5, 80467, Control_c, 2, 7, 7
5, 80491, Control_c, 2, 7, 6
5, 80515, Control_c, 2, 7, 5
5, 80540, Control_c, 2, 7, 4
5, 80564, Control_c, 2, 7, 3
5, 80588, Control_c, 2, 7, 2
5, 80612, Control_c, 2, 7, 1
5, 80638, Control_c, 2, 7, 0
5, 80876, Note_off_c, 2, 62, 64
5, 80880, Note_off_c, 2, 50, 64
5, 80881, Note_off_c, 2, 57, 64
5, 80881, End_track
6, 0, Start_track
6, 0, Title_t, "AIR GUITAR"
6, 0, Channel_prefix, 3
6, 0, Control_c, 3, 7, 71
6, 0, Control_c, 3, 10, 64
6, 0, Program_c, 3, 29
6, 0, Control_c, 3, 93, 0
6, 0, Control_c, 3, 91, 123
6, 1480, Note_on_c, 3, 50, 127
6, 1502, Note_on_c, 3, 54, 127
6, 1513, Note_on_c, 3, 57, 127
6, 1528, Note_on_c, 3, 66, 127
6, 2945, Note_off_c, 3, 57, 64
6, 3028, Note_off_c, 3, 54, 64
6, 3044, Note_on_c, 3, 55, 127
6, 3056, Note_on_c, 3, 64, 127
6, 3070, Note_off_c, 3, 66, 64
6, 3446, Note_off_c, 3, 64, 64
6, 3449, Note_on_c, 3, 62, 127
6, 4419, Note_off_c, 3, 50, 64
6, 4433, Note_off_c, 3, 55, 64
6, 4520, Note_off_c, 3, 62, 64
6, 4531, Note_on_c, 3, 50, 127
6, 4564, Note_on_c, 3, 54, 127
6, 4572, Note_on_c, 3, 57, 127
6, 4587, Note_on_c, 3, 66, 127
6, 6028, Note_off_c, 3, 54, 64
6, 6041, Note_off_c, 3, 57, 64
6, 6081, Note_off_c, 3, 50, 64
6, 6113, Note_off_c, 3, 66, 64
6, 6134, Note_on_c, 3, 55, 127
6, 6136, Note_on_c, 3, 50, 127
6, 6147, Note_on_c, 3, 64, 127
6, 6523, Note_on_c, 3, 62, 127
6, 6536, Note_off_c, 3, 64, 64
6, 7569, Note_off_c, 3, 62, 64
6, 7574, Note_off_c, 3, 55, 64
6, 7585, Note_off_c, 3, 50, 64
6, 7667, Note_on_c, 3, 54, 127
6, 7672, Note_on_c, 3, 50, 127
6, 8787, Note_off_c, 3, 50, 64
6, 8795, Note_off_c, 3, 54, 64
6, 8854, Note_on_c, 3, 54, 127
6, 8862, Note_on_c, 3, 50, 127
6, 8987, Note_off_c, 3, 50, 64
6, 9001, Note_off_c, 3, 54, 64
6, 9030, Note_on_c, 3, 54, 127
6, 9043, Note_on_c, 3, 50, 127
6, 9211, Note_off_c, 3, 50, 64
6, 9212, Note_off_c, 3, 54, 64
6, 9214, Note_on_c, 3, 43, 127
6, 9217, Note_on_c, 3, 55, 127
6, 10328, Note_off_c, 3, 55, 64
6, 10339, Note_off_c, 3, 43, 64
6, 10361, Note_on_c, 3, 55, 127
6, 10366, Note_on_c, 3, 43, 127
6, 10513, Note_off_c, 3, 43, 64
6, 10516, Note_off_c, 3, 55, 64
6, 10563, Note_on_c, 3, 55, 127
6, 10568, Note_on_c, 3, 43, 127
6, 10739, Note_on_c, 3, 54, 127
6, 10747, Note_off_c, 3, 43, 64
6, 10748, Note_off_c, 3, 55, 64
6, 10750, Note_on_c, 3, 50, 127
6, 11820, Note_off_c, 3, 50, 64
6, 11830, Note_off_c, 3, 54, 64
6, 11897, Note_on_c, 3, 54, 127
6, 11908, Note_on_c, 3, 50, 127
6, 12052, Note_off_c, 3, 50, 64
6, 12073, Note_off_c, 3, 54, 64
6, 12102, Note_on_c, 3, 54, 127
6, 12108, Note_on_c, 3, 50, 127
6, 12289, Note_on_c, 3, 55, 127
6, 12292, Note_on_c, 3, 43, 127
6, 12304, Note_off_c, 3, 54, 64
6, 12310, Note_off_c, 3, 50, 64
6, 13681, Note_off_c, 3, 43, 64
6, 13696, Note_off_c, 3, 55, 64
6, 13824, Note_on_c, 3, 55, 127
6, 13825, Note_on_c, 3, 60, 127
6, 13825, Note_on_c, 3, 48, 127
6, 15323, Note_off_c, 3, 55, 64
6, 15345, Note_off_c, 3, 60, 64
6, 15361, Note_off_c, 3, 48, 64
6, 15361, Note_on_c, 3, 57, 127
6, 15364, Note_on_c, 3, 62, 127
6, 15368, Note_on_c, 3, 50, 127
6, 16798, Note_off_c, 3, 50, 64
6, 16840, Note_off_c, 3, 57, 64
6, 16878, Note_off_c, 3, 62, 64
6, 16889, Note_on_c, 3, 57, 127
6, 16891, Note_on_c, 3, 52, 127
6, 16896, Note_on_c, 3, 45, 127
6, 17595, Note_off_c, 3, 57, 64
6, 17617, Note_off_c, 3, 52, 64
6, 17656, Note_on_c, 3, 52, 127
6, 17659, Note_off_c, 3, 45, 64
6, 17662, Note_on_c, 3, 40, 127
6, 17670, Note_on_c, 3, 47, 127
6, 18262, Note_off_c, 3, 47, 64
6, 18329, Note_off_c, 3, 52, 64
6, 18428, Note_on_c, 3, 57, 127
6, 18430, Note_on_c, 3, 62, 127
6, 18435, Note_on_c, 3, 50, 127
6, 18440, Note_on_c, 3, 48, 127
6, 18443, Note_off_c, 3, 48, 64
6, 18444, Note_off_c, 3, 40, 64
6, 19867, Note_off_c, 3, 50, 64
6, 19875, Note_off_c, 3, 62, 64
6, 19883, Note_off_c, 3, 57, 64
6, 19958, Note_on_c, 3, 55, 127
6, 19961, Note_on_c, 3, 48, 127
6, 19974, Note_on_c, 3, 60, 127
6, 20697, Note_off_c, 3, 55, 64
6, 20729, Note_off_c, 3, 48, 64
6, 20732, Note_on_c, 3, 43, 127
6, 20734, Note_off_c, 3, 60, 64
6, 20739, Note_on_c, 3, 55, 127
6, 20739, Note_on_c, 3, 50, 127
6, 21380, Note_off_c, 3, 50, 64
6, 21411, Note_off_c, 3, 55, 64
6, 21502, Note_on_c, 3, 57, 127
6, 21505, Note_on_c, 3, 50, 127
6, 21520, Note_off_c, 3, 43, 64
6, 21521, Note_on_c, 3, 62, 127
6, 22953, Note_off_c, 3, 62, 64
6, 22955, Note_off_c, 3, 57, 64
6, 22958, Note_off_c, 3, 50, 64
6, 23035, Note_on_c, 3, 69, 127
6, 24475, Pitch_bend_c, 3, 8448
6, 24483, Pitch_bend_c, 3, 8576
6, 24491, Pitch_bend_c, 3, 8704
6, 24496, Pitch_bend_c, 3, 8832
6, 24504, Pitch_bend_c, 3, 9088
6, 24507, Pitch_bend_c, 3, 9216
6, 24512, Pitch_bend_c, 3, 9344
6, 24515, Pitch_bend_c, 3, 9472
6, 24520, Pitch_bend_c, 3, 9600
6, 24523, Pitch_bend_c, 3, 9728
6, 24528, Pitch_bend_c, 3, 9984
6, 24531, Pitch_bend_c, 3, 10112
6, 24536, Pitch_bend_c, 3, 10496
6, 24539, Pitch_bend_c, 3, 10752
6, 24544, Pitch_bend_c, 3, 11008
6, 24547, Pitch_bend_c, 3, 11136
6, 24552, Pitch_bend_c, 3, 11520
6, 24555, Pitch_bend_c, 3, 11776
6, 24560, Pitch_bend_c, 3, 12160
6, 24563, Pitch_bend_c, 3, 12672
6, 24568, Pitch_bend_c, 3, 13184
6, 24571, Pitch_bend_c, 3, 13568
6, 24576, Pitch_bend_c, 3, 13696
6, 24579, Pitch_bend_c, 3, 14080
6, 24584, Pitch_bend_c, 3, 14336
6, 24587, Pitch_bend_c, 3, 14720
6, 24592, Pitch_bend_c, 3, 14976
6, 24595, Pitch_bend_c, 3, 15360
6, 24600, Pitch_bend_c, 3, 15616
6, 24608, Pitch_bend_c, 3, 15744
6, 24643, Pitch_bend_c, 3, 15616
6, 24651, Pitch_bend_c, 3, 15488
6, 24656, Pitch_bend_c, 3, 15360
6, 24659, Pitch_bend_c, 3, 14976
6, 24664, Pitch_bend_c, 3, 14720
6, 24667, Pitch_bend_c, 3, 14080
6, 24672, Pitch_bend_c, 3, 13696
6, 24675, Pitch_bend_c, 3, 13312
6, 24680, Pitch_bend_c, 3, 12672
6, 24683, Pitch_bend_c, 3, 12416
6, 24688, Pitch_bend_c, 3, 11648
6, 24691, Pitch_bend_c, 3, 11392
6, 24696, Pitch_bend_c, 3, 11136
6, 24699, Pitch_bend_c, 3, 11008
6, 24704, Pitch_bend_c, 3, 10752
6, 24712, Pitch_bend_c, 3, 10496
6, 24715, Pitch_bend_c, 3, 10368
6, 24720, Pitch_bend_c, 3, 10240
6, 24723, Pitch_bend_c, 3, 10112
6, 24728, Pitch_bend_c, 3, 9984
6, 24731, Pitch_bend_c, 3, 9856
6, 24736, Pitch_bend_c, 3, 9600
6, 24739, Pitch_bend_c, 3, 9344
6, 24744, Pitch_bend_c, 3, 8960
6, 24747, Pitch_bend_c, 3, 8832
6, 24752, Pitch_bend_c, 3, 8704
6, 26028, Note_off_c, 3, 69, 64
6, 30724, Note_on_c, 3, 50, 127
6, 30761, Note_off_c, 3, 50, 64
6, 30803, Note_on_c, 3, 50, 127
6, 30905, Note_on_c, 3, 59, 127
6, 31008, Note_on_c, 3, 57, 127
6, 31020, Note_off_c, 3, 59, 64
6, 31105, Note_off_c, 3, 57, 64
6, 31108, Note_on_c, 3, 55, 127
6, 31137, Note_off_c, 3, 55, 64
6, 31196, Note_on_c, 3, 55, 127
6, 31224, Note_off_c, 3, 55, 64
6, 31288, Note_on_c, 3, 55, 127
6, 31310, Note_off_c, 3, 55, 64
6, 31385, Note_on_c, 3, 55, 127
6, 31393, Note_off_c, 3, 55, 64
6, 31588, Note_on_c, 3, 55, 127
6, 31604, Note_off_c, 3, 55, 64
6, 31670, Note_on_c, 3, 59, 127
6, 31777, Note_on_c, 3, 57, 127
6, 31793, Note_off_c, 3, 59, 64
6, 31867, Note_off_c, 3, 57, 64
6, 31873, Note_on_c, 3, 55, 127
6, 31892, Note_off_c, 3, 55, 64
6, 31968, Note_on_c, 3, 55, 127
6, 31987, Note_on_c, 3, 66, 127
6, 31995, Note_off_c, 3, 55, 64
6, 32024, Pitch_bend_c, 3, 8320
6, 32027, Pitch_bend_c, 3, 8704
6, 32032, Pitch_bend_c, 3, 9088
6, 32035, Pitch_bend_c, 3, 9472
6, 32040, Pitch_bend_c, 3, 9856
6, 32043, Pitch_bend_c, 3, 10240
6, 32048, Pitch_bend_c, 3, 10624
6, 32051, Pitch_bend_c, 3, 11008
6, 32056, Pitch_bend_c, 3, 11392
6, 32059, Pitch_bend_c, 3, 11776
6, 32064, Pitch_bend_c, 3, 12160
6, 32065, Note_on_c, 3, 55, 127
6, 32067, Pitch_bend_c, 3, 11776
6, 32072, Pitch_bend_c, 3, 11392
6, 32075, Pitch_bend_c, 3, 11008
6, 32080, Pitch_bend_c, 3, 10624
6, 32083, Pitch_bend_c, 3, 10240
6, 32088, Pitch_bend_c, 3, 9856
6, 32091, Pitch_bend_c, 3, 9472
6, 32096, Pitch_bend_c, 3, 9088
6, 32099, Pitch_bend_c, 3, 8704
6, 32102, Note_off_c, 3, 55, 64
6, 32104, Pitch_bend_c, 3, 8320
6, 32168, Note_on_c, 3, 55, 127
6, 32168, Note_on_c, 3, 64, 127
6, 32174, Note_off_c, 3, 66, 64
6, 32212, Note_off_c, 3, 55, 64
6, 32296, Note_off_c, 3, 50, 64
6, 32358, Note_on_c, 3, 66, 127
6, 32377, Note_off_c, 3, 64, 64
6, 32452, Note_off_c, 3, 66, 64
6, 32456, Note_on_c, 3, 62, 127
6, 32739, Note_off_c, 3, 62, 64
6, 32748, Note_on_c, 3, 66, 127
6, 32787, Pitch_bend_c, 3, 8576
6, 32792, Pitch_bend_c, 3, 8960
6, 32795, Pitch_bend_c, 3, 9344
6, 32800, Pitch_bend_c, 3, 9728
6, 32803, Pitch_bend_c, 3, 10112
6, 32808, Pitch_bend_c, 3, 10496
6, 32811, Pitch_bend_c, 3, 10880
6, 32816, Pitch_bend_c, 3, 11264
6, 32819, Pitch_bend_c, 3, 11648
6, 32824, Pitch_bend_c, 3, 12160
6, 32827, Pitch_bend_c, 3, 11904
6, 32832, Pitch_bend_c, 3, 11520
6, 32835, Pitch_bend_c, 3, 11264
6, 32840, Pitch_bend_c, 3, 10880
6, 32843, Pitch_bend_c, 3, 10496
6, 32848, Pitch_bend_c, 3, 10240
6, 32851, Pitch_bend_c, 3, 9856
6, 32856, Pitch_bend_c, 3, 9472
6, 32859, Pitch_bend_c, 3, 9216
6, 32864, Pitch_bend_c, 3, 8832
6, 32867, Pitch_bend_c, 3, 8448
6, 32940, Note_on_c, 3, 64, 127
6, 32952, Note_off_c, 3, 66, 64
6, 33128, Note_on_c, 3, 66, 127
6, 33140, Note_off_c, 3, 64, 64
6, 33228, Note_off_c, 3, 66, 64
6, 33228, Note_on_c, 3, 62, 127
6, 33492, Note_on_c, 3, 66, 127
6, 33504, Note_off_c, 3, 62, 64
6, 33523, Pitch_bend_c, 3, 8320
6, 33528, Pitch_bend_c, 3, 8704
6, 33531, Pitch_bend_c, 3, 9088
6, 33536, Pitch_bend_c, 3, 9472
6, 33539, Pitch_bend_c, 3, 9856
6, 33544, Pitch_bend_c, 3, 10240
6, 33547, Pitch_bend_c, 3, 10624
6, 33552, Pitch_bend_c, 3, 11008
6, 33555, Pitch_bend_c, 3, 11392
6, 33560, Pitch_bend_c, 3, 11776
6, 33563, Pitch_bend_c, 3, 12288
6, 33568, Pitch_bend_c, 3, 11392
6, 33571, Pitch_bend_c, 3, 10496
6, 33576, Pitch_bend_c, 3, 9600
6, 33579, Pitch_bend_c, 3, 8576
6, 33700, Note_on_c, 3, 57, 127
6, 33710, Note_off_c, 3, 66, 64
6, 34371, Pitch_bend_c, 3, 8448
6, 34376, Pitch_bend_c, 3, 8832
6, 34379, Pitch_bend_c, 3, 9216
6, 34384, Pitch_bend_c, 3, 9600
6, 34387, Pitch_bend_c, 3, 9984
6, 34392, Pitch_bend_c, 3, 10368
6, 34395, Pitch_bend_c, 3, 10752
6, 34400, Pitch_bend_c, 3, 11136
6, 34403, Pitch_bend_c, 3, 11520
6, 34408, Pitch_bend_c, 3, 11904
6, 34411, Pitch_bend_c, 3, 12416
6, 34416, Pitch_bend_c, 3, 12800
6, 34419, Pitch_bend_c, 3, 13184
6, 34424, Pitch_bend_c, 3, 13568
6, 34427, Pitch_bend_c, 3, 13952
6, 34432, Pitch_bend_c, 3, 14336
6, 34435, Pitch_bend_c, 3, 14720
6, 34440, Pitch_bend_c, 3, 15104
6, 34443, Pitch_bend_c, 3, 15488
6, 34448, Pitch_bend_c, 3, 15872
6, 34451, Pitch_bend_c, 3, 16383
6, 34456, Pitch_bend_c, 3, 16128
6, 34459, Pitch_bend_c, 3, 15744
6, 34464, Pitch_bend_c, 3, 15488
6, 34467, Pitch_bend_c, 3, 15104
6, 34472, Pitch_bend_c, 3, 14848
6, 34475, Pitch_bend_c, 3, 14464
6, 34480, Pitch_bend_c, 3, 14208
6, 34483, Pitch_bend_c, 3, 13824
6, 34488, Pitch_bend_c, 3, 13440
6, 34491, Pitch_bend_c, 3, 13184
6, 34496, Pitch_bend_c, 3, 12800
6, 34499, Pitch_bend_c, 3, 12544
6, 34504, Pitch_bend_c, 3, 12160
6, 34507, Pitch_bend_c, 3, 11904
6, 34512, Pitch_bend_c, 3, 11520
6, 34515, Pitch_bend_c, 3, 11264
6, 34520, Pitch_bend_c, 3, 10880
6, 34523, Pitch_bend_c, 3, 10496
6, 34528, Pitch_bend_c, 3, 10240
6, 34531, Pitch_bend_c, 3, 9856
6, 34536, Pitch_bend_c, 3, 9600
6, 34539, Pitch_bend_c, 3, 9216
6, 34544, Pitch_bend_c, 3, 8960
6, 34547, Pitch_bend_c, 3, 8576
6, 34552, Pitch_bend_c, 3, 8192
6, 34755, Pitch_bend_c, 3, 8320
6, 34760, Pitch_bend_c, 3, 8704
6, 34763, Pitch_bend_c, 3, 9088
6, 34768, Pitch_bend_c, 3, 9600
6, 34771, Pitch_bend_c, 3, 9984
6, 34776, Pitch_bend_c, 3, 10368
6, 34779, Pitch_bend_c, 3, 10880
6, 34784, Pitch_bend_c, 3, 11264
6, 34787, Pitch_bend_c, 3, 11776
6, 34792, Pitch_bend_c, 3, 12160
6, 34795, Pitch_bend_c, 3, 12544
6, 34800, Pitch_bend_c, 3, 13056
6, 34803, Pitch_bend_c, 3, 13440
6, 34808, Pitch_bend_c, 3, 13952
6, 34811, Pitch_bend_c, 3, 14336
6, 34816, Pitch_bend_c, 3, 14720
6, 34819, Pitch_bend_c, 3, 15232
6, 34824, Pitch_bend_c, 3, 15616
6, 34827, Pitch_bend_c, 3, 16128
6, 34832, Pitch_bend_c, 3, 15872
6, 34835, Pitch_bend_c, 3, 15616
6, 34840, Pitch_bend_c, 3, 15360
6, 34843, Pitch_bend_c, 3, 14976
6, 34848, Pitch_bend_c, 3, 14720
6, 34851, Pitch_bend_c, 3, 14464
6, 34856, Pitch_bend_c, 3, 14208
6, 34859, Pitch_bend_c, 3, 13824
6, 34864, Pitch_bend_c, 3, 13568
6, 34867, Pitch_bend_c, 3, 13312
6, 34872, Pitch_bend_c, 3, 13056
6, 34875, Pitch_bend_c, 3, 12672
6, 34880, Pitch_bend_c, 3, 12416
6, 34883, Pitch_bend_c, 3, 12160
6, 34888, Pitch_bend_c, 3, 11904
6, 34891, Pitch_bend_c, 3, 11520
6, 34896, Pitch_bend_c, 3, 11264
6, 34899, Pitch_bend_c, 3, 11008
6, 34904, Pitch_bend_c, 3, 10752
6, 34907, Pitch_bend_c, 3, 10368
6, 34912, Pitch_bend_c, 3, 10112
6, 34915, Pitch_bend_c, 3, 9856
6, 34920, Pitch_bend_c, 3, 9600
6, 34923, Pitch_bend_c, 3, 9216
6, 34928, Pitch_bend_c, 3, 8960
6, 34931, Pitch_bend_c, 3, 8704
6, 34936, Pitch_bend_c, 3, 8320
6, 35043, Note_on_c, 3, 66, 127
6, 35044, Note_off_c, 3, 57, 64
6, 35056, Pitch_bend_c, 3, 8704
6, 35059, Pitch_bend_c, 3, 8960
6, 35064, Pitch_bend_c, 3, 9216
6, 35067, Pitch_bend_c, 3, 9600
6, 35072, Pitch_bend_c, 3, 9856
6, 35075, Pitch_bend_c, 3, 10240
6, 35080, Pitch_bend_c, 3, 10496
6, 35083, Pitch_bend_c, 3, 10752
6, 35088, Pitch_bend_c, 3, 11136
6, 35091, Pitch_bend_c, 3, 11392
6, 35096, Pitch_bend_c, 3, 11776
6, 35099, Pitch_bend_c, 3, 12032
6, 35104, Pitch_bend_c, 3, 12416
6, 35107, Pitch_bend_c, 3, 11904
6, 35112, Pitch_bend_c, 3, 11264
6, 35115, Pitch_bend_c, 3, 10624
6, 35120, Pitch_bend_c, 3, 10112
6, 35123, Pitch_bend_c, 3, 9472
6, 35128, Pitch_bend_c, 3, 8832
6, 35131, Pitch_bend_c, 3, 8192
6, 35236, Note_on_c, 3, 64, 127
6, 35248, Note_off_c, 3, 66, 64
6, 35803, Note_on_c, 3, 66, 127
6, 35816, Note_off_c, 3, 64, 64
6, 35816, Pitch_bend_c, 3, 8448
6, 35819, Pitch_bend_c, 3, 8704
6, 35824, Pitch_bend_c, 3, 8960
6, 35827, Pitch_bend_c, 3, 9216
6, 35832, Pitch_bend_c, 3, 9472
6, 35835, Pitch_bend_c, 3, 9856
6, 35840, Pitch_bend_c, 3, 10112
6, 35843, Pitch_bend_c, 3, 10368
6, 35848, Pitch_bend_c, 3, 10624
6, 35851, Pitch_bend_c, 3, 11008
6, 35856, Pitch_bend_c, 3, 11264
6, 35859, Pitch_bend_c, 3, 11520
6, 35864, Pitch_bend_c, 3, 11776
6, 35867, Pitch_bend_c, 3, 12160
6, 35872, Pitch_bend_c, 3, 12032
6, 35875, Pitch_bend_c, 3, 11776
6, 35880, Pitch_bend_c, 3, 11520
6, 35883, Pitch_bend_c, 3, 11264
6, 35888, Pitch_bend_c, 3, 11008
6, 35891, Pitch_bend_c, 3, 10752
6, 35896, Pitch_bend_c, 3, 10496
6, 35899, Pitch_bend_c, 3, 10240
6, 35904, Pitch_bend_c, 3, 10112
6, 35907, Pitch_bend_c, 3, 9856
6, 35912, Pitch_bend_c, 3, 9600
6, 35915, Pitch_bend_c, 3, 9344
6, 35920, Pitch_bend_c, 3, 9088
6, 35923, Pitch_bend_c, 3, 8832
6, 35928, Pitch_bend_c, 3, 8576
6, 35931, Pitch_bend_c, 3, 8320
6, 36000, Note_on_c, 3, 64, 127
6, 36008, Note_off_c, 3, 66, 64
6, 36572, Note_on_c, 3, 66, 127
6, 36582, Note_off_c, 3, 64, 64
6, 36755, Note_on_c, 3, 57, 127
6, 36756, Note_off_c, 3, 66, 64
6, 38080, Note_off_c, 3, 57, 64
6, 41459, Note_on_c, 3, 69, 127
6, 42872, Pitch_bend_c, 3, 8448
6, 42875, Pitch_bend_c, 3, 8576
6, 42880, Pitch_bend_c, 3, 8832
6, 42883, Pitch_bend_c, 3, 9088
6, 42888, Pitch_bend_c, 3, 9216
6, 42891, Pitch_bend_c, 3, 9472
6, 42896, Pitch_bend_c, 3, 9728
6, 42899, Pitch_bend_c, 3, 9856
6, 42904, Pitch_bend_c, 3, 10112
6, 42907, Pitch_bend_c, 3, 10368
6, 42912, Pitch_bend_c, 3, 10496
6, 42915, Pitch_bend_c, 3, 10752
6, 42920, Pitch_bend_c, 3, 11008
6, 42923, Pitch_bend_c, 3, 11264
6, 42928, Pitch_bend_c, 3, 11392
6, 42931, Pitch_bend_c, 3, 11648
6, 42936, Pitch_bend_c, 3, 11904
6, 42939, Pitch_bend_c, 3, 12032
6, 42944, Pitch_bend_c, 3, 12288
6, 42947, Pitch_bend_c, 3, 12544
6, 42952, Pitch_bend_c, 3, 12672
6, 42955, Pitch_bend_c, 3, 12928
6, 42960, Pitch_bend_c, 3, 13184
6, 42963, Pitch_bend_c, 3, 13312
6, 42968, Pitch_bend_c, 3, 13568
6, 42971, Pitch_bend_c, 3, 13824
6, 42976, Pitch_bend_c, 3, 14080
6, 42979, Pitch_bend_c, 3, 14208
6, 42984, Pitch_bend_c, 3, 14464
6, 42987, Pitch_bend_c, 3, 14720
6, 42992, Pitch_bend_c, 3, 14848
6, 42995, Pitch_bend_c, 3, 15104
6, 43000, Pitch_bend_c, 3, 15360
6, 43003, Pitch_bend_c, 3, 15488
6, 43008, Pitch_bend_c, 3, 15744
6, 43011, Pitch_bend_c, 3, 16000
6, 43016, Pitch_bend_c, 3, 16256
6, 43027, Pitch_bend_c, 3, 16128
6, 43035, Pitch_bend_c, 3, 16000
6, 43040, Pitch_bend_c, 3, 15872
6, 43048, Pitch_bend_c, 3, 15744
6, 43051, Pitch_bend_c, 3, 15616
6, 43059, Pitch_bend_c, 3, 15488
6, 43064, Pitch_bend_c, 3, 15360
6, 43072, Pitch_bend_c, 3, 15232
6, 43075, Pitch_bend_c, 3, 15104
6, 43083, Pitch_bend_c, 3, 14976
6, 43088, Pitch_bend_c, 3, 14848
6, 43096, Pitch_bend_c, 3, 14720
6, 43099, Pitch_bend_c, 3, 14592
6, 43107, Pitch_bend_c, 3, 14464
6, 43112, Pitch_bend_c, 3, 14336
6, 43120, Pitch_bend_c, 3, 14208
6, 43123, Pitch_bend_c, 3, 14080
6, 43131, Pitch_bend_c, 3, 13952
6, 43136, Pitch_bend_c, 3, 13824
6, 43144, Pitch_bend_c, 3, 13696
6, 43147, Pitch_bend_c, 3, 13568
6, 43155, Pitch_bend_c, 3, 13440
6, 43160, Pitch_bend_c, 3, 13312
6, 43168, Pitch_bend_c, 3, 13184
6, 43171, Pitch_bend_c, 3, 13056
6, 43179, Pitch_bend_c, 3, 12928
6, 43184, Pitch_bend_c, 3, 12800
6, 43192, Pitch_bend_c, 3, 12672
6, 43195, Pitch_bend_c, 3, 12544
6, 43203, Pitch_bend_c, 3, 12416
6, 43208, Pitch_bend_c, 3, 12288
6, 43216, Pitch_bend_c, 3, 12160
6, 43219, Pitch_bend_c, 3, 12032
6, 43227, Pitch_bend_c, 3, 11904
6, 43232, Pitch_bend_c, 3, 11776
6, 43240, Pitch_bend_c, 3, 11648
6, 43243, Pitch_bend_c, 3, 11520
6, 43251, Pitch_bend_c, 3, 11392
6, 43256, Pitch_bend_c, 3, 11264
6, 43264, Pitch_bend_c, 3, 11136
6, 43267, Pitch_bend_c, 3, 11008
6, 43275, Pitch_bend_c, 3, 10880
6, 43280, Pitch_bend_c, 3, 10752
6, 43288, Pitch_bend_c, 3, 10624
6, 43291, Pitch_bend_c, 3, 10496
6, 43299, Pitch_bend_c, 3, 10368
6, 43304, Pitch_bend_c, 3, 10240
6, 43312, Pitch_bend_c, 3, 10112
6, 43315, Pitch_bend_c, 3, 9984
6, 43323, Pitch_bend_c, 3, 9856
6, 43328, Pitch_bend_c, 3, 9728
6, 43336, Pitch_bend_c, 3, 9600
6, 43339, Pitch_bend_c, 3, 9472
6, 43347, Pitch_bend_c, 3, 9344
6, 43352, Pitch_bend_c, 3, 9216
6, 43360, Pitch_bend_c, 3, 9088
6, 43363, Pitch_bend_c, 3, 8960
6, 43371, Pitch_bend_c, 3, 8832
6, 43376, Pitch_bend_c, 3, 8704
6, 43384, Pitch_bend_c, 3, 8576
6, 43387, Pitch_bend_c, 3, 8448
6, 43392, Pitch_bend_c, 3, 8320
6, 44393, Note_off_c, 3, 69, 64
6, 44515, Note_on_c, 3, 69, 127
6, 45979, Pitch_bend_c, 3, 8704
6, 45984, Pitch_bend_c, 3, 8832
6, 45987, Pitch_bend_c, 3, 9088
6, 45992, Pitch_bend_c, 3, 9216
6, 45995, Pitch_bend_c, 3, 9472
6, 46000, Pitch_bend_c, 3, 9600
6, 46003, Pitch_bend_c, 3, 9856
6, 46008, Pitch_bend_c, 3, 9984
6, 46011, Pitch_bend_c, 3, 10240
6, 46016, Pitch_bend_c, 3, 10368
6, 46019, Pitch_bend_c, 3, 10624
6, 46024, Pitch_bend_c, 3, 10880
6, 46027, Pitch_bend_c, 3, 11008
6, 46032, Pitch_bend_c, 3, 11264
6, 46035, Pitch_bend_c, 3, 11392
6, 46040, Pitch_bend_c, 3, 11648
6, 46043, Pitch_bend_c, 3, 11776
6, 46048, Pitch_bend_c, 3, 12032
6, 46051, Pitch_bend_c, 3, 12160
6, 46056, Pitch_bend_c, 3, 12416
6, 46059, Pitch_bend_c, 3, 12672
6, 46064, Pitch_bend_c, 3, 12800
6, 46067, Pitch_bend_c, 3, 13056
6, 46072, Pitch_bend_c, 3, 13184
6, 46075, Pitch_bend_c, 3, 13440
6, 46080, Pitch_bend_c, 3, 13568
6, 46083, Pitch_bend_c, 3, 13824
6, 46088, Pitch_bend_c, 3, 13952
6, 46091, Pitch_bend_c, 3, 14208
6, 46096, Pitch_bend_c, 3, 14464
6, 46099, Pitch_bend_c, 3, 14592
6, 46104, Pitch_bend_c, 3, 14848
6, 46107, Pitch_bend_c, 3, 14976
6, 46112, Pitch_bend_c, 3, 15232
6, 46115, Pitch_bend_c, 3, 15360
6, 46120, Pitch_bend_c, 3, 15616
6, 46123, Pitch_bend_c, 3, 15744
6, 46128, Pitch_bend_c, 3, 16000
6, 46131, Pitch_bend_c, 3, 16256
6, 46136, Pitch_bend_c, 3, 16256
6, 46144, Pitch_bend_c, 3, 16128
6, 46147, Pitch_bend_c, 3, 16000
6, 46152, Pitch_bend_c, 3, 15872
6, 46160, Pitch_bend_c, 3, 15744
6, 46163, Pitch_bend_c, 3, 15616
6, 46168, Pitch_bend_c, 3, 15488
6, 46176, Pitch_bend_c, 3, 15360
6, 46179, Pitch_bend_c, 3, 15232
6, 46184, Pitch_bend_c, 3, 15104
6, 46187, Pitch_bend_c, 3, 14976
6, 46195, Pitch_bend_c, 3, 14848
6, 46200, Pitch_bend_c, 3, 14720
6, 46203, Pitch_bend_c, 3, 14592
6, 46211, Pitch_bend_c, 3, 14464
6, 46216, Pitch_bend_c, 3, 14336
6, 46219, Pitch_bend_c, 3, 14208
6, 46227, Pitch_bend_c, 3, 14080
6, 46232, Pitch_bend_c, 3, 13952
6, 46235, Pitch_bend_c, 3, 13824
6, 46240, Pitch_bend_c, 3, 13696
6, 46248, Pitch_bend_c, 3, 13568
6, 46251, Pitch_bend_c, 3, 13440
6, 46256, Pitch_bend_c, 3, 13312
6, 46264, Pitch_bend_c, 3, 13184
6, 46267, Pitch_bend_c, 3, 13056
6, 46272, Pitch_bend_c, 3, 12928
6, 46275, Pitch_bend_c, 3, 12800
6, 46283, Pitch_bend_c, 3, 12672
6, 46288, Pitch_bend_c, 3, 12544
6, 46291, Pitch_bend_c, 3, 12416
6, 46299, Pitch_bend_c, 3, 12288
6, 46304, Pitch_bend_c, 3, 12160
6, 46307, Pitch_bend_c, 3, 12032
6, 46315, Pitch_bend_c, 3, 11904
6, 46320, Pitch_bend_c, 3, 11776
6, 46323, Pitch_bend_c, 3, 11648
6, 46328, Pitch_bend_c, 3, 11520
6, 46336, Pitch_bend_c, 3, 11392
6, 46339, Pitch_bend_c, 3, 11264
6, 46344, Pitch_bend_c, 3, 11136
6, 46352, Pitch_bend_c, 3, 11008
6, 46355, Pitch_bend_c, 3, 10880
6, 46360, Pitch_bend_c, 3, 10752
6, 46363, Pitch_bend_c, 3, 10624
6, 46371, Pitch_bend_c, 3, 10496
6, 46376, Pitch_bend_c, 3, 10368
6, 46379, Pitch_bend_c, 3, 10240
6, 46387, Pitch_bend_c, 3, 10112
6, 46392, Pitch_bend_c, 3, 9984
6, 46395, Pitch_bend_c, 3, 9856
6, 46403, Pitch_bend_c, 3, 9728
6, 46408, Pitch_bend_c, 3, 9600
6, 46411, Pitch_bend_c, 3, 9472
6, 46416, Pitch_bend_c, 3, 9344
6, 46424, Pitch_bend_c, 3, 9216
6, 46427, Pitch_bend_c, 3, 9088
6, 46432, Pitch_bend_c, 3, 8960
6, 46440, Pitch_bend_c, 3, 8832
6, 46443, Pitch_bend_c, 3, 8704
6, 46448, Pitch_bend_c, 3, 8576
6, 46451, Pitch_bend_c, 3, 8448
6, 47484, Note_off_c, 3, 69, 64
6, 47585, Note_on_c, 3, 69, 127
6, 49059, Pitch_bend_c, 3, 8704
6, 49064, Pitch_bend_c, 3, 8832
6, 49067, Pitch_bend_c, 3, 9088
6, 49072, Pitch_bend_c, 3, 9344
6, 49075, Pitch_bend_c, 3, 9600
6, 49080, Pitch_bend_c, 3, 9856
6, 49083, Pitch_bend_c, 3, 10112
6, 49088, Pitch_bend_c, 3, 10368
6, 49091, Pitch_bend_c, 3, 10624
6, 49096, Pitch_bend_c, 3, 10880
6, 49099, Pitch_bend_c, 3, 11136
6, 49104, Pitch_bend_c, 3, 11392
6, 49107, Pitch_bend_c, 3, 11648
6, 49112, Pitch_bend_c, 3, 11904
6, 49115, Pitch_bend_c, 3, 12160
6, 49120, Pitch_bend_c, 3, 12416
6, 49123, Pitch_bend_c, 3, 12544
6, 49128, Pitch_bend_c, 3, 12800
6, 49131, Pitch_bend_c, 3, 13056
6, 49136, Pitch_bend_c, 3, 13312
6, 49139, Pitch_bend_c, 3, 13568
6, 49144, Pitch_bend_c, 3, 13824
6, 49147, Pitch_bend_c, 3, 14080
6, 49152, Pitch_bend_c, 3, 14336
6, 49155, Pitch_bend_c, 3, 14592
6, 49160, Pitch_bend_c, 3, 14848
6, 49163, Pitch_bend_c, 3, 15104
6, 49168, Pitch_bend_c, 3, 15360
6, 49171, Pitch_bend_c, 3, 15616
6, 49176, Pitch_bend_c, 3, 15872
6, 49179, Pitch_bend_c, 3, 16128
6, 49184, Pitch_bend_c, 3, 16383
6, 49187, Pitch_bend_c, 3, 16383
6, 49195, Pitch_bend_c, 3, 16256
6, 49200, Pitch_bend_c, 3, 16128
6, 49203, Pitch_bend_c, 3, 16000
6, 49211, Pitch_bend_c, 3, 15872
6, 49216, Pitch_bend_c, 3, 15744
6, 49219, Pitch_bend_c, 3, 15616
6, 49227, Pitch_bend_c, 3, 15488
6, 49232, Pitch_bend_c, 3, 15360
6, 49235, Pitch_bend_c, 3, 15232
6, 49243, Pitch_bend_c, 3, 15104
6, 49248, Pitch_bend_c, 3, 14976
6, 49251, Pitch_bend_c, 3, 14848
6, 49256, Pitch_bend_c, 3, 14720
6, 49264, Pitch_bend_c, 3, 14592
6, 49267, Pitch_bend_c, 3, 14464
6, 49272, Pitch_bend_c, 3, 14336
6, 49280, Pitch_bend_c, 3, 14208
6, 49283, Pitch_bend_c, 3, 14080
6, 49288, Pitch_bend_c, 3, 13952
6, 49296, Pitch_bend_c, 3, 13824
6, 49299, Pitch_bend_c, 3, 13696
6, 49304, Pitch_bend_c, 3, 13568
6, 49307, Pitch_bend_c, 3, 13440
6, 49315, Pitch_bend_c, 3, 13312
6, 49320, Pitch_bend_c, 3, 13184
6, 49323, Pitch_bend_c, 3, 13056
6, 49331, Pitch_bend_c, 3, 12928
6, 49336, Pitch_bend_c, 3, 12800
6, 49339, Pitch_bend_c, 3, 12672
6, 49347, Pitch_bend_c, 3, 12544
6, 49352, Pitch_bend_c, 3, 12416
6, 49355, Pitch_bend_c, 3, 12288
6, 49360, Pitch_bend_c, 3, 12160
6, 49368, Pitch_bend_c, 3, 12032
6, 49371, Pitch_bend_c, 3, 11904
6, 49376, Pitch_bend_c, 3, 11776
6, 49384, Pitch_bend_c, 3, 11648
6, 49387, Pitch_bend_c, 3, 11520
6, 49392, Pitch_bend_c, 3, 11392
6, 49400, Pitch_bend_c, 3, 11264
6, 49403, Pitch_bend_c, 3, 11136
6, 49408, Pitch_bend_c, 3, 11008
6, 49411, Pitch_bend_c, 3, 10880
6, 49419, Pitch_bend_c, 3, 10752
6, 49424, Pitch_bend_c, 3, 10624
6, 49427, Pitch_bend_c, 3, 10496
6, 49435, Pitch_bend_c, 3, 10368
6, 49440, Pitch_bend_c, 3, 10240
6, 49443, Pitch_bend_c, 3, 10112
6, 49451, Pitch_bend_c, 3, 9984
6, 49456, Pitch_bend_c, 3, 9856
6, 49459, Pitch_bend_c, 3, 9728
6, 49464, Pitch_bend_c, 3, 9600
6, 49472, Pitch_bend_c, 3, 9472
6, 49475, Pitch_bend_c, 3, 9344
6, 49480, Pitch_bend_c, 3, 9216
6, 49488, Pitch_bend_c, 3, 9088
6, 49491, Pitch_bend_c, 3, 8960
6, 49496, Pitch_bend_c, 3, 8832
6, 49504, Pitch_bend_c, 3, 8704
6, 49507, Pitch_bend_c, 3, 8576
6, 49512, Pitch_bend_c, 3, 8448
6, 49515, Pitch_bend_c, 3, 8320
6, 50486, Note_off_c, 3, 69, 64
6, 50656, Note_on_c, 3, 69, 127
6, 52064, Pitch_bend_c, 3, 8320
6, 52067, Pitch_bend_c, 3, 8448
6, 52072, Pitch_bend_c, 3, 8704
6, 52075, Pitch_bend_c, 3, 8960
6, 52080, Pitch_bend_c, 3, 9088
6, 52083, Pitch_bend_c, 3, 9344
6, 52088, Pitch_bend_c, 3, 9600
6, 52091, Pitch_bend_c, 3, 9728
6, 52096, Pitch_bend_c, 3, 9984
6, 52099, Pitch_bend_c, 3, 10240
6, 52104, Pitch_bend_c, 3, 10496
6, 52107, Pitch_bend_c, 3, 10624
6, 52112, Pitch_bend_c, 3, 10880
6, 52115, Pitch_bend_c, 3, 11136
6, 52120, Pitch_bend_c, 3, 11264
6, 52123, Pitch_bend_c, 3, 11520
6, 52128, Pitch_bend_c, 3, 11776
6, 52131, Pitch_bend_c, 3, 11904
6, 52136, Pitch_bend_c, 3, 12160
6, 52139, Pitch_bend_c, 3, 12416
6, 52144, Pitch_bend_c, 3, 12672
6, 52147, Pitch_bend_c, 3, 12800
6, 52152, Pitch_bend_c, 3, 13056
6, 52155, Pitch_bend_c, 3, 13312
6, 52160, Pitch_bend_c, 3, 13440
6, 52163, Pitch_bend_c, 3, 13696
6, 52168, Pitch_bend_c, 3, 13952
6, 52171, Pitch_bend_c, 3, 14080
6, 52176, Pitch_bend_c, 3, 14336
6, 52179, Pitch_bend_c, 3, 14592
6, 52184, Pitch_bend_c, 3, 14848
6, 52187, Pitch_bend_c, 3, 14976
6, 52192, Pitch_bend_c, 3, 15232
6, 52195, Pitch_bend_c, 3, 15488
6, 52200, Pitch_bend_c, 3, 15616
6, 52203, Pitch_bend_c, 3, 15872
6, 52208, Pitch_bend_c, 3, 16128
6, 52211, Pitch_bend_c, 3, 16000
6, 52219, Pitch_bend_c, 3, 15872
6, 52227, Pitch_bend_c, 3, 15744
6, 52235, Pitch_bend_c, 3, 15616
6, 52240, Pitch_bend_c, 3, 15488
6, 52248, Pitch_bend_c, 3, 15360
6, 52256, Pitch_bend_c, 3, 15232
6, 52259, Pitch_bend_c, 3, 15104
6, 52267, Pitch_bend_c, 3, 14976
6, 52275, Pitch_bend_c, 3, 14848
6, 52280, Pitch_bend_c, 3, 14720
6, 52288, Pitch_bend_c, 3, 14592
6, 52296, Pitch_bend_c, 3, 14464
6, 52299, Pitch_bend_c, 3, 14336
6, 52307, Pitch_bend_c, 3, 14208
6, 52315, Pitch_bend_c, 3, 14080
6, 52320, Pitch_bend_c, 3, 13952
6, 52328, Pitch_bend_c, 3, 13824
6, 52336, Pitch_bend_c, 3, 13696
6, 52339, Pitch_bend_c, 3, 13568
6, 52347, Pitch_bend_c, 3, 13440
6, 52355, Pitch_bend_c, 3, 13312
6, 52360, Pitch_bend_c, 3, 13184
6, 52368, Pitch_bend_c, 3, 13056
6, 52376, Pitch_bend_c, 3, 12928
6, 52379, Pitch_bend_c, 3, 12800
6, 52387, Pitch_bend_c, 3, 12672
6, 52395, Pitch_bend_c, 3, 12544
6, 52400, Pitch_bend_c, 3, 12416
6, 52408, Pitch_bend_c, 3, 12288
6, 52416, Pitch_bend_c, 3, 12160
6, 52419, Pitch_bend_c, 3, 12032
6, 52427, Pitch_bend_c, 3, 11904
6, 52435, Pitch_bend_c, 3, 11776
6, 52440, Pitch_bend_c, 3, 11648
6, 52448, Pitch_bend_c, 3, 11520
6, 52456, Pitch_bend_c, 3, 11392
6, 52459, Pitch_bend_c, 3, 11264
6, 52467, Pitch_bend_c, 3, 11136
6, 52475, Pitch_bend_c, 3, 11008
6, 52480, Pitch_bend_c, 3, 10880
6, 52488, Pitch_bend_c, 3, 10752
6, 52496, Pitch_bend_c, 3, 10624
6, 52499, Pitch_bend_c, 3, 10496
6, 52507, Pitch_bend_c, 3, 10368
6, 52515, Pitch_bend_c, 3, 10240
6, 52520, Pitch_bend_c, 3, 10112
6, 52528, Pitch_bend_c, 3, 9984
6, 52536, Pitch_bend_c, 3, 9856
6, 52539, Pitch_bend_c, 3, 9728
6, 52547, Pitch_bend_c, 3, 9600
6, 52555, Pitch_bend_c, 3, 9472
6, 52560, Pitch_bend_c, 3, 9344
6, 52568, Pitch_bend_c, 3, 9216
6, 52576, Pitch_bend_c, 3, 9088
6, 52579, Pitch_bend_c, 3, 8960
6, 52587, Pitch_bend_c, 3, 8832
6, 52595, Pitch_bend_c, 3, 8704
6, 52600, Pitch_bend_c, 3, 8576
6, 53465, Note_on_c, 3, 66, 127
6, 53504, Pitch_bend_c, 3, 8576
6, 53507, Note_off_c, 3, 69, 64
6, 53507, Pitch_bend_c, 3, 8704
6, 53512, Pitch_bend_c, 3, 8960
6, 53515, Pitch_bend_c, 3, 9216
6, 53520, Pitch_bend_c, 3, 9472
6, 53523, Pitch_bend_c, 3, 9600
6, 53528, Pitch_bend_c, 3, 9856
6, 53531, Pitch_bend_c, 3, 10112
6, 53536, Pitch_bend_c, 3, 10368
6, 53539, Pitch_bend_c, 3, 10496
6, 53544, Pitch_bend_c, 3, 10752
6, 53547, Pitch_bend_c, 3, 11008
6, 53552, Pitch_bend_c, 3, 11264
6, 53555, Pitch_bend_c, 3, 11392
6, 53560, Pitch_bend_c, 3, 11648
6, 53563, Pitch_bend_c, 3, 11904
6, 53568, Pitch_bend_c, 3, 12160
6, 53571, Pitch_bend_c, 3, 12416
6, 53576, Pitch_bend_c, 3, 12160
6, 53579, Pitch_bend_c, 3, 11904
6, 53584, Pitch_bend_c, 3, 11520
6, 53587, Pitch_bend_c, 3, 11264
6, 53592, Pitch_bend_c, 3, 11008
6, 53595, Pitch_bend_c, 3, 10624
6, 53600, Pitch_bend_c, 3, 10368
6, 53603, Pitch_bend_c, 3, 9984
6, 53608, Pitch_bend_c, 3, 9728
6, 53611, Pitch_bend_c, 3, 9472
6, 53616, Pitch_bend_c, 3, 9088
6, 53619, Pitch_bend_c, 3, 8832
6, 53624, Pitch_bend_c, 3, 8448
6, 53654, Note_on_c, 3, 64, 127
6, 53665, Note_off_c, 3, 66, 64
6, 53844, Note_on_c, 3, 66, 127
6, 53860, Note_off_c, 3, 64, 64
6, 53937, Note_on_c, 3, 62, 127
6, 53939, Note_off_c, 3, 66, 64
6, 54228, Note_off_c, 3, 62, 64
6, 54235, Note_on_c, 3, 66, 127
6, 54280, Pitch_bend_c, 3, 8320
6, 54283, Pitch_bend_c, 3, 8576
6, 54288, Pitch_bend_c, 3, 8832
6, 54291, Pitch_bend_c, 3, 9088
6, 54296, Pitch_bend_c, 3, 9472
6, 54299, Pitch_bend_c, 3, 9728
6, 54304, Pitch_bend_c, 3, 9984
6, 54307, Pitch_bend_c, 3, 10368
6, 54312, Pitch_bend_c, 3, 10624
6, 54315, Pitch_bend_c, 3, 10880
6, 54320, Pitch_bend_c, 3, 11264
6, 54323, Pitch_bend_c, 3, 11520
6, 54328, Pitch_bend_c, 3, 11776
6, 54331, Pitch_bend_c, 3, 12160
6, 54336, Pitch_bend_c, 3, 11904
6, 54339, Pitch_bend_c, 3, 11648
6, 54344, Pitch_bend_c, 3, 11392
6, 54347, Pitch_bend_c, 3, 11136
6, 54352, Pitch_bend_c, 3, 10880
6, 54355, Pitch_bend_c, 3, 10624
6, 54360, Pitch_bend_c, 3, 10368
6, 54363, Pitch_bend_c, 3, 10112
6, 54368, Pitch_bend_c, 3, 9856
6, 54371, Pitch_bend_c, 3, 9600
6, 54376, Pitch_bend_c, 3, 9344
6, 54379, Pitch_bend_c, 3, 9088
6, 54384, Pitch_bend_c, 3, 8832
6, 54387, Pitch_bend_c, 3, 8576
6, 54392, Pitch_bend_c, 3, 8192
6, 54424, Note_on_c, 3, 64, 127
6, 54433, Note_off_c, 3, 66, 64
6, 54620, Note_on_c, 3, 66, 127
6, 54636, Note_off_c, 3, 64, 64
6, 54708, Note_off_c, 3, 66, 64
6, 54712, Note_on_c, 3, 62, 127
6, 54988, Note_off_c, 3, 62, 64
6, 54995, Note_on_c, 3, 66, 127
6, 55048, Pitch_bend_c, 3, 8448
6, 55051, Pitch_bend_c, 3, 8704
6, 55056, Pitch_bend_c, 3, 8960
6, 55059, Pitch_bend_c, 3, 9216
6, 55064, Pitch_bend_c, 3, 9472
6, 55067, Pitch_bend_c, 3, 9728
6, 55072, Pitch_bend_c, 3, 9984
6, 55075, Pitch_bend_c, 3, 10368
6, 55080, Pitch_bend_c, 3, 10624
6, 55083, Pitch_bend_c, 3, 10880
6, 55088, Pitch_bend_c, 3, 11136
6, 55091, Pitch_bend_c, 3, 11392
6, 55096, Pitch_bend_c, 3, 11648
6, 55099, Pitch_bend_c, 3, 11904
6, 55104, Pitch_bend_c, 3, 12288
6, 55107, Pitch_bend_c, 3, 12032
6, 55112, Pitch_bend_c, 3, 11776
6, 55115, Pitch_bend_c, 3, 11520
6, 55120, Pitch_bend_c, 3, 11264
6, 55123, Pitch_bend_c, 3, 11008
6, 55128, Pitch_bend_c, 3, 10752
6, 55131, Pitch_bend_c, 3, 10368
6, 55136, Pitch_bend_c, 3, 10112
6, 55139, Pitch_bend_c, 3, 9856
6, 55144, Pitch_bend_c, 3, 9600
6, 55147, Pitch_bend_c, 3, 9344
6, 55152, Pitch_bend_c, 3, 9088
6, 55155, Pitch_bend_c, 3, 8832
6, 55160, Pitch_bend_c, 3, 8448
6, 55190, Note_off_c, 3, 66, 64
6, 55200, Note_on_c, 3, 57, 127
6, 55880, Pitch_bend_c, 3, 8448
6, 55883, Pitch_bend_c, 3, 8704
6, 55888, Pitch_bend_c, 3, 9088
6, 55891, Pitch_bend_c, 3, 9472
6, 55896, Pitch_bend_c, 3, 9856
6, 55899, Pitch_bend_c, 3, 10240
6, 55904, Pitch_bend_c, 3, 10624
6, 55907, Pitch_bend_c, 3, 11008
6, 55912, Pitch_bend_c, 3, 11392
6, 55915, Pitch_bend_c, 3, 11776
6, 55920, Pitch_bend_c, 3, 12160
6, 55923, Pitch_bend_c, 3, 12544
6, 55928, Pitch_bend_c, 3, 12928
6, 55931, Pitch_bend_c, 3, 13312
6, 55936, Pitch_bend_c, 3, 13696
6, 55939, Pitch_bend_c, 3, 14080
6, 55944, Pitch_bend_c, 3, 14464
6, 55947, Pitch_bend_c, 3, 14848
6, 55952, Pitch_bend_c, 3, 15232
6, 55955, Pitch_bend_c, 3, 15616
6, 55960, Pitch_bend_c, 3, 16000
6, 55963, Pitch_bend_c, 3, 16383
6, 55968, Pitch_bend_c, 3, 16256
6, 55971, Pitch_bend_c, 3, 16128
6, 55976, Pitch_bend_c, 3, 16000
6, 55979, Pitch_bend_c, 3, 15744
6, 55984, Pitch_bend_c, 3, 15616
6, 55987, Pitch_bend_c, 3, 15488
6, 55992, Pitch_bend_c, 3, 15232
6, 55995, Pitch_bend_c, 3, 15104
6, 56000, Pitch_bend_c, 3, 14976
6, 56003, Pitch_bend_c, 3, 14720
6, 56008, Pitch_bend_c, 3, 14592
6, 56011, Pitch_bend_c, 3, 14464
6, 56016, Pitch_bend_c, 3, 14208
6, 56019, Pitch_bend_c, 3, 14080
6, 56024, Pitch_bend_c, 3, 13952
6, 56027, Pitch_bend_c, 3, 13696
6, 56032, Pitch_bend_c, 3, 13568
6, 56035, Pitch_bend_c, 3, 13440
6, 56040, Pitch_bend_c, 3, 13184
6, 56043, Pitch_bend_c, 3, 13056
6, 56048, Pitch_bend_c, 3, 12928
6, 56051, Pitch_bend_c, 3, 12672
6, 56056, Pitch_bend_c, 3, 12544
6, 56059, Pitch_bend_c, 3, 12416
6, 56064, Pitch_bend_c, 3, 12288
6, 56067, Pitch_bend_c, 3, 12032
6, 56072, Pitch_bend_c, 3, 11904
6, 56075, Pitch_bend_c, 3, 11776
6, 56080, Pitch_bend_c, 3, 11520
6, 56083, Pitch_bend_c, 3, 11392
6, 56088, Pitch_bend_c, 3, 11264
6, 56091, Pitch_bend_c, 3, 11008
6, 56096, Pitch_bend_c, 3, 10880
6, 56099, Pitch_bend_c, 3, 10752
6, 56104, Pitch_bend_c, 3, 10496
6, 56107, Pitch_bend_c, 3, 10368
6, 56112, Pitch_bend_c, 3, 10240
6, 56115, Pitch_bend_c, 3, 9984
6, 56120, Pitch_bend_c, 3, 9856
6, 56123, Pitch_bend_c, 3, 9728
6, 56128, Pitch_bend_c, 3, 9472
6, 56131, Pitch_bend_c, 3, 9344
6, 56136, Pitch_bend_c, 3, 9216
6, 56139, Pitch_bend_c, 3, 8960
6, 56144, Pitch_bend_c, 3, 8832
6, 56147, Pitch_bend_c, 3, 8704
6, 56152, Pitch_bend_c, 3, 8448
6, 56259, Pitch_bend_c, 3, 8320
6, 56264, Pitch_bend_c, 3, 8704
6, 56267, Pitch_bend_c, 3, 9216
6, 56272, Pitch_bend_c, 3, 9600
6, 56275, Pitch_bend_c, 3, 10112
6, 56280, Pitch_bend_c, 3, 10624
6, 56283, Pitch_bend_c, 3, 11008
6, 56288, Pitch_bend_c, 3, 11520
6, 56291, Pitch_bend_c, 3, 12032
6, 56296, Pitch_bend_c, 3, 12416
6, 56299, Pitch_bend_c, 3, 12928
6, 56304, Pitch_bend_c, 3, 13440
6, 56307, Pitch_bend_c, 3, 13824
6, 56312, Pitch_bend_c, 3, 14336
6, 56315, Pitch_bend_c, 3, 14848
6, 56320, Pitch_bend_c, 3, 15232
6, 56323, Pitch_bend_c, 3, 15744
6, 56328, Pitch_bend_c, 3, 16256
6, 56336, Pitch_bend_c, 3, 16256
6, 56339, Pitch_bend_c, 3, 16128
6, 56344, Pitch_bend_c, 3, 16000
6, 56347, Pitch_bend_c, 3, 15872
6, 56352, Pitch_bend_c, 3, 15744
6, 56355, Pitch_bend_c, 3, 15616
6, 56360, Pitch_bend_c, 3, 15488
6, 56363, Pitch_bend_c, 3, 15360
6, 56368, Pitch_bend_c, 3, 15232
6, 56371, Pitch_bend_c, 3, 15104
6, 56376, Pitch_bend_c, 3, 14976
6, 56379, Pitch_bend_c, 3, 14848
6, 56384, Pitch_bend_c, 3, 14720
6, 56387, Pitch_bend_c, 3, 14592
6, 56392, Pitch_bend_c, 3, 14464
6, 56395, Pitch_bend_c, 3, 14336
6, 56400, Pitch_bend_c, 3, 14208
6, 56403, Pitch_bend_c, 3, 14080
6, 56408, Pitch_bend_c, 3, 13952
6, 56411, Pitch_bend_c, 3, 13824
6, 56416, Pitch_bend_c, 3, 13568
6, 56419, Pitch_bend_c, 3, 13440
6, 56424, Pitch_bend_c, 3, 13312
6, 56427, Pitch_bend_c, 3, 13184
6, 56432, Pitch_bend_c, 3, 13056
6, 56435, Pitch_bend_c, 3, 12928
6, 56440, Pitch_bend_c, 3, 12800
6, 56443, Pitch_bend_c, 3, 12672
6, 56448, Pitch_bend_c, 3, 12544
6, 56451, Pitch_bend_c, 3, 12416
6, 56456, Pitch_bend_c, 3, 12288
6, 56459, Pitch_bend_c, 3, 12160
6, 56464, Pitch_bend_c, 3, 12032
6, 56467, Pitch_bend_c, 3, 11904
6, 56472, Pitch_bend_c, 3, 11776
6, 56475, Pitch_bend_c, 3, 11648
6, 56480, Pitch_bend_c, 3, 11520
6, 56483, Pitch_bend_c, 3, 11392
6, 56488, Pitch_bend_c, 3, 11264
6, 56491, Pitch_bend_c, 3, 11136
6, 56496, Pitch_bend_c, 3, 10880
6, 56499, Pitch_bend_c, 3, 10752
6, 56504, Pitch_bend_c, 3, 10624
6, 56507, Pitch_bend_c, 3, 10496
6, 56512, Pitch_bend_c, 3, 10368
6, 56515, Pitch_bend_c, 3, 10240
6, 56520, Pitch_bend_c, 3, 10112
6, 56523, Pitch_bend_c, 3, 9984
6, 56528, Pitch_bend_c, 3, 9856
6, 56531, Pitch_bend_c, 3, 9728
6, 56536, Pitch_bend_c, 3, 9600
6, 56539, Pitch_bend_c, 3, 9472
6, 56544, Pitch_bend_c, 3, 9344
6, 56547, Pitch_bend_c, 3, 9216
6, 56552, Note_on_c, 3, 66, 127
6, 56552, Pitch_bend_c, 3, 9088
6, 56553, Note_off_c, 3, 57, 64
6, 56555, Pitch_bend_c, 3, 8960
6, 56560, Pitch_bend_c, 3, 8832
6, 56563, Pitch_bend_c, 3, 8704
6, 56568, Pitch_bend_c, 3, 8576
6, 56571, Pitch_bend_c, 3, 8448
6, 56576, Pitch_bend_c, 3, 8192
6, 56600, Pitch_bend_c, 3, 8448
6, 56603, Pitch_bend_c, 3, 8704
6, 56608, Pitch_bend_c, 3, 9088
6, 56611, Pitch_bend_c, 3, 9344
6, 56616, Pitch_bend_c, 3, 9728
6, 56619, Pitch_bend_c, 3, 9984
6, 56624, Pitch_bend_c, 3, 10368
6, 56627, Pitch_bend_c, 3, 10624
6, 56632, Pitch_bend_c, 3, 11008
6, 56635, Pitch_bend_c, 3, 11264
6, 56640, Pitch_bend_c, 3, 11648
6, 56643, Pitch_bend_c, 3, 11904
6, 56648, Pitch_bend_c, 3, 12288
6, 56651, Pitch_bend_c, 3, 12288
6, 56656, Pitch_bend_c, 3, 12160
6, 56659, Pitch_bend_c, 3, 11904
6, 56664, Pitch_bend_c, 3, 11648
6, 56667, Pitch_bend_c, 3, 11392
6, 56672, Pitch_bend_c, 3, 11136
6, 56675, Pitch_bend_c, 3, 11008
6, 56680, Pitch_bend_c, 3, 10752
6, 56683, Pitch_bend_c, 3, 10496
6, 56688, Pitch_bend_c, 3, 10240
6, 56691, Pitch_bend_c, 3, 9984
6, 56696, Pitch_bend_c, 3, 9728
6, 56699, Pitch_bend_c, 3, 9600
6, 56704, Pitch_bend_c, 3, 9344
6, 56707, Pitch_bend_c, 3, 9088
6, 56712, Pitch_bend_c, 3, 8832
6, 56715, Pitch_bend_c, 3, 8576
6, 56720, Pitch_bend_c, 3, 8320
6, 56734, Note_on_c, 3, 64, 127
6, 56740, Note_off_c, 3, 66, 64
6, 57209, Note_on_c, 3, 66, 127
6, 57217, Note_off_c, 3, 64, 64
6, 57336, Pitch_bend_c, 3, 8192
6, 57339, Pitch_bend_c, 3, 8320
6, 57344, Pitch_bend_c, 3, 8576
6, 57347, Pitch_bend_c, 3, 8832
6, 57352, Pitch_bend_c, 3, 9088
6, 57355, Pitch_bend_c, 3, 9216
6, 57360, Pitch_bend_c, 3, 9472
6, 57363, Pitch_bend_c, 3, 9728
6, 57368, Pitch_bend_c, 3, 9984
6, 57371, Pitch_bend_c, 3, 10240
6, 57376, Pitch_bend_c, 3, 10368
6, 57379, Pitch_bend_c, 3, 10624
6, 57384, Pitch_bend_c, 3, 10880
6, 57387, Pitch_bend_c, 3, 11136
6, 57392, Pitch_bend_c, 3, 11264
6, 57395, Pitch_bend_c, 3, 11520
6, 57400, Pitch_bend_c, 3, 11776
6, 57403, Pitch_bend_c, 3, 12032
6, 57408, Pitch_bend_c, 3, 12288
6, 57411, Pitch_bend_c, 3, 12160
6, 57416, Pitch_bend_c, 3, 11904
6, 57419, Pitch_bend_c, 3, 11648
6, 57424, Pitch_bend_c, 3, 11392
6, 57427, Pitch_bend_c, 3, 11136
6, 57432, Pitch_bend_c, 3, 11008
6, 57435, Pitch_bend_c, 3, 10752
6, 57440, Pitch_bend_c, 3, 10496
6, 57443, Pitch_bend_c, 3, 10240
6, 57448, Pitch_bend_c, 3, 9984
6, 57451, Pitch_bend_c, 3, 9728
6, 57456, Pitch_bend_c, 3, 9600
6, 57459, Pitch_bend_c, 3, 9344
6, 57464, Pitch_bend_c, 3, 9088
6, 57467, Pitch_bend_c, 3, 8832
6, 57472, Pitch_bend_c, 3, 8576
6, 57475, Pitch_bend_c, 3, 8320
6, 57500, Note_off_c, 3, 66, 64
6, 57507, Note_on_c, 3, 59, 127
6, 58228, Note_off_c, 3, 59, 64
6, 58276, Note_on_c, 3, 57, 127
6, 59651, Note_off_c, 3, 57, 64
6, 62958, Note_on_c, 3, 69, 127
6, 64419, Pitch_bend_c, 3, 8064
6, 64424, Pitch_bend_c, 3, 8320
6, 64427, Pitch_bend_c, 3, 8704
6, 64432, Pitch_bend_c, 3, 8960
6, 64435, Pitch_bend_c, 3, 9344
6, 64440, Pitch_bend_c, 3, 9600
6, 64443, Pitch_bend_c, 3, 9984
6, 64448, Pitch_bend_c, 3, 10240
6, 64451, Pitch_bend_c, 3, 10624
6, 64456, Pitch_bend_c, 3, 10880
6, 64459, Pitch_bend_c, 3, 11264
6, 64464, Pitch_bend_c, 3, 11520
6, 64467, Pitch_bend_c, 3, 11904
6, 64472, Pitch_bend_c, 3, 12160
6, 64475, Pitch_bend_c, 3, 12544
6, 64480, Pitch_bend_c, 3, 12800
6, 64483, Pitch_bend_c, 3, 13184
6, 64488, Pitch_bend_c, 3, 13440
6, 64491, Pitch_bend_c, 3, 13824
6, 64496, Pitch_bend_c, 3, 14080
6, 64499, Pitch_bend_c, 3, 14464
6, 64504, Pitch_bend_c, 3, 14720
6, 64507, Pitch_bend_c, 3, 15104
6, 64512, Pitch_bend_c, 3, 15360
6, 64515, Pitch_bend_c, 3, 15744
6, 64520, Pitch_bend_c, 3, 16000
6, 64523, Pitch_bend_c, 3, 16383
6, 64536, Pitch_bend_c, 3, 15744
6, 64544, Pitch_bend_c, 3, 15616
6, 64552, Pitch_bend_c, 3, 15488
6, 64555, Pitch_bend_c, 3, 15360
6, 64563, Pitch_bend_c, 3, 15232
6, 64568, Pitch_bend_c, 3, 15104
6, 64576, Pitch_bend_c, 3, 14976
6, 64579, Pitch_bend_c, 3, 14848
6, 64587, Pitch_bend_c, 3, 14720
6, 64592, Pitch_bend_c, 3, 14592
6, 64600, Pitch_bend_c, 3, 14464
6, 64603, Pitch_bend_c, 3, 14336
6, 64611, Pitch_bend_c, 3, 14208
6, 64616, Pitch_bend_c, 3, 14080
6, 64624, Pitch_bend_c, 3, 13952
6, 64627, Pitch_bend_c, 3, 13824
6, 64635, Pitch_bend_c, 3, 13696
6, 64640, Pitch_bend_c, 3, 13568
6, 64648, Pitch_bend_c, 3, 13440
6, 64651, Pitch_bend_c, 3, 13312
6, 64659, Pitch_bend_c, 3, 13184
6, 64667, Pitch_bend_c, 3, 13056
6, 64672, Pitch_bend_c, 3, 12928
6, 64680, Pitch_bend_c, 3, 12800
6, 64683, Pitch_bend_c, 3, 12672
6, 64691, Pitch_bend_c, 3, 12544
6, 64696, Pitch_bend_c, 3, 12416
6, 64704, Pitch_bend_c, 3, 12288
6, 64707, Pitch_bend_c, 3, 12160
6, 64715, Pitch_bend_c, 3, 12032
6, 64720, Pitch_bend_c, 3, 11904
6, 64728, Pitch_bend_c, 3, 11776
6, 64731, Pitch_bend_c, 3, 11648
6, 64739, Pitch_bend_c, 3, 11520
6, 64744, Pitch_bend_c, 3, 11392
6, 64752, Pitch_bend_c, 3, 11264
6, 64755, Pitch_bend_c, 3, 11136
6, 64763, Pitch_bend_c, 3, 11008
6, 64768, Pitch_bend_c, 3, 10880
6, 64776, Pitch_bend_c, 3, 10752
6, 64784, Pitch_bend_c, 3, 10624
6, 64787, Pitch_bend_c, 3, 10496
6, 64795, Pitch_bend_c, 3, 10368
6, 64800, Pitch_bend_c, 3, 10240
6, 64808, Pitch_bend_c, 3, 10112
6, 64811, Pitch_bend_c, 3, 9984
6, 64819, Pitch_bend_c, 3, 9856
6, 64824, Pitch_bend_c, 3, 9728
6, 64832, Pitch_bend_c, 3, 9600
6, 64835, Pitch_bend_c, 3, 9472
6, 64843, Pitch_bend_c, 3, 9344
6, 64848, Pitch_bend_c, 3, 9216
6, 64856, Pitch_bend_c, 3, 9088
6, 64859, Pitch_bend_c, 3, 8960
6, 64867, Pitch_bend_c, 3, 8832
6, 64872, Pitch_bend_c, 3, 8704
6, 64880, Pitch_bend_c, 3, 8576
6, 64883, Pitch_bend_c, 3, 8448
6, 65910, Note_off_c, 3, 69, 64
6, 66035, Note_on_c, 3, 69, 127
6, 67491, Pitch_bend_c, 3, 8448
6, 67496, Pitch_bend_c, 3, 8704
6, 67499, Pitch_bend_c, 3, 9088
6, 67504, Pitch_bend_c, 3, 9472
6, 67507, Pitch_bend_c, 3, 9856
6, 67512, Pitch_bend_c, 3, 10112
6, 67515, Pitch_bend_c, 3, 10496
6, 67520, Pitch_bend_c, 3, 10880
6, 67523, Pitch_bend_c, 3, 11264
6, 67528, Pitch_bend_c, 3, 11520
6, 67531, Pitch_bend_c, 3, 11904
6, 67536, Pitch_bend_c, 3, 12288
6, 67539, Pitch_bend_c, 3, 12672
6, 67544, Pitch_bend_c, 3, 13056
6, 67547, Pitch_bend_c, 3, 13312
6, 67552, Pitch_bend_c, 3, 13696
6, 67555, Pitch_bend_c, 3, 14080
6, 67560, Pitch_bend_c, 3, 14464
6, 67563, Pitch_bend_c, 3, 14720
6, 67568, Pitch_bend_c, 3, 15104
6, 67571, Pitch_bend_c, 3, 15488
6, 67576, Pitch_bend_c, 3, 15872
6, 67579, Pitch_bend_c, 3, 16256
6, 67587, Pitch_bend_c, 3, 16128
6, 67595, Pitch_bend_c, 3, 16000
6, 67603, Pitch_bend_c, 3, 15872
6, 67608, Pitch_bend_c, 3, 15744
6, 67616, Pitch_bend_c, 3, 15616
6, 67624, Pitch_bend_c, 3, 15488
6, 67627, Pitch_bend_c, 3, 15360
6, 67635, Pitch_bend_c, 3, 15232
6, 67643, Pitch_bend_c, 3, 15104
6, 67648, Pitch_bend_c, 3, 14976
6, 67656, Pitch_bend_c, 3, 14848
6, 67664, Pitch_bend_c, 3, 14720
6, 67667, Pitch_bend_c, 3, 14592
6, 67675, Pitch_bend_c, 3, 14464
6, 67683, Pitch_bend_c, 3, 14336
6, 67688, Pitch_bend_c, 3, 14208
6, 67696, Pitch_bend_c, 3, 14080
6, 67704, Pitch_bend_c, 3, 13952
6, 67707, Pitch_bend_c, 3, 13824
6, 67715, Pitch_bend_c, 3, 13696
6, 67723, Pitch_bend_c, 3, 13568
6, 67731, Pitch_bend_c, 3, 13440
6, 67736, Pitch_bend_c, 3, 13312
6, 67744, Pitch_bend_c, 3, 13184
6, 67752, Pitch_bend_c, 3, 13056
6, 67755, Pitch_bend_c, 3, 12928
6, 67763, Pitch_bend_c, 3, 12800
6, 67771, Pitch_bend_c, 3, 12672
6, 67776, Pitch_bend_c, 3, 12544
6, 67784, Pitch_bend_c, 3, 12416
6, 67792, Pitch_bend_c, 3, 12288
6, 67795, Pitch_bend_c, 3, 12160
6, 67803, Pitch_bend_c, 3, 12032
6, 67811, Pitch_bend_c, 3, 11904
6, 67816, Pitch_bend_c, 3, 11776
6, 67824, Pitch_bend_c, 3, 11648
6, 67832, Pitch_bend_c, 3, 11520
6, 67835, Pitch_bend_c, 3, 11392
6, 67843, Pitch_bend_c, 3, 11264
6, 67851, Pitch_bend_c, 3, 11136
6, 67859, Pitch_bend_c, 3, 11008
6, 67864, Pitch_bend_c, 3, 10880
6, 67872, Pitch_bend_c, 3, 10752
6, 67880, Pitch_bend_c, 3, 10624
6, 67883, Pitch_bend_c, 3, 10496
6, 67891, Pitch_bend_c, 3, 10368
6, 67899, Pitch_bend_c, 3, 10240
6, 67904, Pitch_bend_c, 3, 10112
6, 67912, Pitch_bend_c, 3, 9984
6, 67920, Pitch_bend_c, 3, 9856
6, 67923, Pitch_bend_c, 3, 9728
6, 67931, Pitch_bend_c, 3, 9600
6, 67939, Pitch_bend_c, 3, 9472
6, 67944, Pitch_bend_c, 3, 9344
6, 67952, Pitch_bend_c, 3, 9216
6, 67960, Pitch_bend_c, 3, 9088
6, 67963, Pitch_bend_c, 3, 8960
6, 68969, Note_off_c, 3, 69, 64
6, 69113, Note_on_c, 3, 69, 127
6, 69115, Note_on_c, 3, 67, 127
6, 69118, Note_off_c, 3, 67, 64
6, 70547, Pitch_bend_c, 3, 8576
6, 70552, Pitch_bend_c, 3, 8832
6, 70555, Pitch_bend_c, 3, 9088
6, 70560, Pitch_bend_c, 3, 9344
6, 70563, Pitch_bend_c, 3, 9600
6, 70568, Pitch_bend_c, 3, 9856
6, 70571, Pitch_bend_c, 3, 10240
6, 70576, Pitch_bend_c, 3, 10496
6, 70579, Pitch_bend_c, 3, 10752
6, 70584, Pitch_bend_c, 3, 11008
6, 70587, Pitch_bend_c, 3, 11264
6, 70592, Pitch_bend_c, 3, 11520
6, 70595, Pitch_bend_c, 3, 11904
6, 70600, Pitch_bend_c, 3, 12160
6, 70603, Pitch_bend_c, 3, 12416
6, 70608, Pitch_bend_c, 3, 12672
6, 70611, Pitch_bend_c, 3, 12928
6, 70616, Pitch_bend_c, 3, 13312
6, 70619, Pitch_bend_c, 3, 13568
6, 70624, Pitch_bend_c, 3, 13824
6, 70627, Pitch_bend_c, 3, 14080
6, 70632, Pitch_bend_c, 3, 14336
6, 70635, Pitch_bend_c, 3, 14592
6, 70640, Pitch_bend_c, 3, 14976
6, 70643, Pitch_bend_c, 3, 15232
6, 70648, Pitch_bend_c, 3, 15488
6, 70651, Pitch_bend_c, 3, 16128
6, 70659, Pitch_bend_c, 3, 16000
6, 70667, Pitch_bend_c, 3, 15872
6, 70672, Pitch_bend_c, 3, 15744
6, 70680, Pitch_bend_c, 3, 15616
6, 70688, Pitch_bend_c, 3, 15488
6, 70691, Pitch_bend_c, 3, 15360
6, 70699, Pitch_bend_c, 3, 15232
6, 70704, Pitch_bend_c, 3, 15104
6, 70712, Pitch_bend_c, 3, 14976
6, 70720, Pitch_bend_c, 3, 14848
6, 70723, Pitch_bend_c, 3, 14720
6, 70731, Pitch_bend_c, 3, 14592
6, 70739, Pitch_bend_c, 3, 14464
6, 70744, Pitch_bend_c, 3, 14336
6, 70752, Pitch_bend_c, 3, 14208
6, 70755, Pitch_bend_c, 3, 14080
6, 70763, Pitch_bend_c, 3, 13952
6, 70771, Pitch_bend_c, 3, 13824
6, 70776, Pitch_bend_c, 3, 13696
6, 70784, Pitch_bend_c, 3, 13568
6, 70787, Pitch_bend_c, 3, 13440
6, 70795, Pitch_bend_c, 3, 13312
6, 70803, Pitch_bend_c, 3, 13184
6, 70808, Pitch_bend_c, 3, 13056
6, 70816, Pitch_bend_c, 3, 12928
6, 70824, Pitch_bend_c, 3, 12800
6, 70827, Pitch_bend_c, 3, 12672
6, 70835, Pitch_bend_c, 3, 12544
6, 70840, Pitch_bend_c, 3, 12416
6, 70848, Pitch_bend_c, 3, 12288
6, 70856, Pitch_bend_c, 3, 12160
6, 70859, Pitch_bend_c, 3, 12032
6, 70867, Pitch_bend_c, 3, 11904
6, 70872, Pitch_bend_c, 3, 11776
6, 70880, Pitch_bend_c, 3, 11648
6, 70888, Pitch_bend_c, 3, 11520
6, 70891, Pitch_bend_c, 3, 11392
6, 70899, Pitch_bend_c, 3, 11264
6, 70907, Pitch_bend_c, 3, 11136
6, 70912, Pitch_bend_c, 3, 11008
6, 70920, Pitch_bend_c, 3, 10880
6, 70923, Pitch_bend_c, 3, 10752
6, 70931, Pitch_bend_c, 3, 10624
6, 70939, Pitch_bend_c, 3, 10496
6, 70944, Pitch_bend_c, 3, 10368
6, 70952, Pitch_bend_c, 3, 10240
6, 70955, Pitch_bend_c, 3, 10112
6, 70963, Pitch_bend_c, 3, 9984
6, 70971, Pitch_bend_c, 3, 9856
6, 70976, Pitch_bend_c, 3, 9728
6, 70984, Pitch_bend_c, 3, 9600
6, 70992, Pitch_bend_c, 3, 9472
6, 70995, Pitch_bend_c, 3, 9344
6, 71003, Pitch_bend_c, 3, 9216
6, 71008, Pitch_bend_c, 3, 9088
6, 71016, Pitch_bend_c, 3, 8960
6, 71024, Pitch_bend_c, 3, 8832
6, 71027, Pitch_bend_c, 3, 8704
6, 71035, Pitch_bend_c, 3, 8576
6, 71040, Pitch_bend_c, 3, 8448
6, 72062, Note_off_c, 3, 69, 64
6, 72180, Note_on_c, 3, 69, 127
6, 73624, Pitch_bend_c, 3, 8448
6, 73627, Pitch_bend_c, 3, 8704
6, 73632, Pitch_bend_c, 3, 8960
6, 73635, Pitch_bend_c, 3, 9216
6, 73640, Pitch_bend_c, 3, 9600
6, 73643, Pitch_bend_c, 3, 9856
6, 73648, Pitch_bend_c, 3, 10112
6, 73651, Pitch_bend_c, 3, 10496
6, 73656, Pitch_bend_c, 3, 10752
6, 73659, Pitch_bend_c, 3, 11008
6, 73664, Pitch_bend_c, 3, 11264
6, 73667, Pitch_bend_c, 3, 11648
6, 73672, Pitch_bend_c, 3, 11904
6, 73675, Pitch_bend_c, 3, 12160
6, 73680, Pitch_bend_c, 3, 12544
6, 73683, Pitch_bend_c, 3, 12800
6, 73688, Pitch_bend_c, 3, 13056
6, 73691, Pitch_bend_c, 3, 13440
6, 73696, Pitch_bend_c, 3, 13696
6, 73699, Pitch_bend_c, 3, 13952
6, 73704, Pitch_bend_c, 3, 14208
6, 73707, Pitch_bend_c, 3, 14592
6, 73712, Pitch_bend_c, 3, 14848
6, 73715, Pitch_bend_c, 3, 15104
6, 73720, Pitch_bend_c, 3, 15488
6, 73723, Pitch_bend_c, 3, 15744
6, 73728, Pitch_bend_c, 3, 16000
6, 73731, Pitch_bend_c, 3, 16383
6, 73739, Pitch_bend_c, 3, 16256
6, 73747, Pitch_bend_c, 3, 16128
6, 73752, Pitch_bend_c, 3, 16000
6, 73760, Pitch_bend_c, 3, 15872
6, 73763, Pitch_bend_c, 3, 15744
6, 73771, Pitch_bend_c, 3, 15616
6, 73776, Pitch_bend_c, 3, 15488
6, 73784, Pitch_bend_c, 3, 15360
6, 73787, Pitch_bend_c, 3, 15232
6, 73795, Pitch_bend_c, 3, 15104
6, 73800, Pitch_bend_c, 3, 14976
6, 73808, Pitch_bend_c, 3, 14848
6, 73811, Pitch_bend_c, 3, 14720
6, 73819, Pitch_bend_c, 3, 14592
6, 73824, Pitch_bend_c, 3, 14464
6, 73832, Pitch_bend_c, 3, 14336
6, 73835, Pitch_bend_c, 3, 14208
6, 73843, Pitch_bend_c, 3, 14080
6, 73848, Pitch_bend_c, 3, 13952
6, 73856, Pitch_bend_c, 3, 13824
6, 73864, Pitch_bend_c, 3, 13696
6, 73867, Pitch_bend_c, 3, 13568
6, 73875, Pitch_bend_c, 3, 13440
6, 73880, Pitch_bend_c, 3, 13312
6, 73888, Pitch_bend_c, 3, 13184
6, 73891, Pitch_bend_c, 3, 13056
6, 73899, Pitch_bend_c, 3, 12928
6, 73904, Pitch_bend_c, 3, 12800
6, 73912, Pitch_bend_c, 3, 12672
6, 73915, Pitch_bend_c, 3, 12544
6, 73923, Pitch_bend_c, 3, 12416
6, 73928, Pitch_bend_c, 3, 12288
6, 73936, Pitch_bend_c, 3, 12160
6, 73939, Pitch_bend_c, 3, 12032
6, 73947, Pitch_bend_c, 3, 11904
6, 73952, Pitch_bend_c, 3, 11776
6, 73960, Pitch_bend_c, 3, 11648
6, 73963, Pitch_bend_c, 3, 11520
6, 73971, Pitch_bend_c, 3, 11392
6, 73976, Pitch_bend_c, 3, 11264
6, 73984, Pitch_bend_c, 3, 11136
6, 73992, Pitch_bend_c, 3, 11008
6, 73995, Pitch_bend_c, 3, 10880
6, 74003, Pitch_bend_c, 3, 10752
6, 74008, Pitch_bend_c, 3, 10624
6, 74016, Pitch_bend_c, 3, 10496
6, 74019, Pitch_bend_c, 3, 10368
6, 74027, Pitch_bend_c, 3, 10240
6, 74032, Pitch_bend_c, 3, 10112
6, 74040, Pitch_bend_c, 3, 9984
6, 74043, Pitch_bend_c, 3, 9856
6, 74051, Pitch_bend_c, 3, 9728
6, 74056, Pitch_bend_c, 3, 9600
6, 74064, Pitch_bend_c, 3, 9472
6, 74067, Pitch_bend_c, 3, 9344
6, 74075, Pitch_bend_c, 3, 9216
6, 74080, Pitch_bend_c, 3, 9088
6, 74088, Pitch_bend_c, 3, 8960
6, 74091, Pitch_bend_c, 3, 8832
6, 74099, Pitch_bend_c, 3, 8704
6, 74104, Pitch_bend_c, 3, 8576
6, 75176, Note_off_c, 3, 69, 64
6, 79104, Control_c, 3, 7, 63
6, 79128, Control_c, 3, 7, 62
6, 79152, Control_c, 3, 7, 61
6, 79176, Control_c, 3, 7, 60
6, 79200, Control_c, 3, 7, 59
6, 79225, Control_c, 3, 7, 58
6, 79249, Control_c, 3, 7, 57
6, 79273, Control_c, 3, 7, 56
6, 79297, Control_c, 3, 7, 55
6, 79323, Control_c, 3, 7, 54
6, 79347, Control_c, 3, 7, 53
6, 79371, Control_c, 3, 7, 52
6, 79395, Control_c, 3, 7, 51
6, 79419, Control_c, 3, 7, 50
6, 79444, Control_c, 3, 7, 49
6, 79468, Control_c, 3, 7, 48
6, 79492, Control_c, 3, 7, 47
6, 79516, Control_c, 3, 7, 46
6, 79542, Control_c, 3, 7, 45
6, 79566, Control_c, 3, 7, 44
6, 79590, Control_c, 3, 7, 43
6, 79614, Control_c, 3, 7, 42
6, 79638, Control_c, 3, 7, 41
6, 79664, Control_c, 3, 7, 40
6, 79688, Control_c, 3, 7, 39
6, 79712, Control_c, 3, 7, 38
6, 79736, Control_c, 3, 7, 37
6, 79761, Control_c, 3, 7, 36
6, 79785, Control_c, 3, 7, 35
6, 79809, Control_c, 3, 7, 34
6, 79833, Control_c, 3, 7, 33
6, 79857, Control_c, 3, 7, 32
6, 79883, Control_c, 3, 7, 31
6, 79907, Control_c, 3, 7, 30
6, 79931, Control_c, 3, 7, 29
6, 79955, Control_c, 3, 7, 28
6, 79980, Control_c, 3, 7, 27
6, 80004, Control_c, 3, 7, 26
6, 80028, Control_c, 3, 7, 25
6, 80052, Control_c, 3, 7, 24
6, 80076, Control_c, 3, 7, 23
6, 80102, Control_c, 3, 7, 22
6, 80126, Control_c, 3, 7, 21
6, 80150, Control_c, 3, 7, 20
6, 80174, Control_c, 3, 7, 19
6, 80200, Control_c, 3, 7, 18
6, 80224, Control_c, 3, 7, 17
6, 80248, Control_c, 3, 7, 16
6, 80272, Control_c, 3, 7, 15
6, 80296, Control_c, 3, 7, 14
6, 80321, Control_c, 3, 7, 13
6, 80345, Control_c, 3, 7, 12
6, 80369, Control_c, 3, 7, 11
6, 80393, Control_c, 3, 7, 10
6, 80419, Control_c, 3, 7, 9
6, 80443, Control_c, 3, 7, 8
6, 80467, Control_c, 3, 7, 7
6, 80491, Control_c, 3, 7, 6
6, 80515, Control_c, 3, 7, 5
6, 80540, Control_c, 3, 7, 4
6, 80564, Control_c, 3, 7, 3
6, 80588, Control_c, 3, 7, 2
6, 80612, Control_c, 3, 7, 1
6, 80638, Control_c, 3, 7, 0
6, 80638, End_track
7, 0, Start_track
7, 0, Title_t, "WARM PAD"
7, 0, Channel_prefix, 4
7, 0, Control_c, 4, 7, 75
7, 0, Control_c, 4, 10, 64
7, 0, Program_c, 4, 89
7, 0, Control_c, 4, 93, 0
7, 0, Control_c, 4, 91, 120
7, 1502, Note_on_c, 4, 54, 127
7, 1507, Note_on_c, 4, 50, 127
7, 1508, Note_on_c, 4, 62, 127
7, 1515, Note_on_c, 4, 57, 127
7, 3001, Note_off_c, 4, 54, 64
7, 3020, Note_on_c, 4, 64, 127
7, 3020, Note_on_c, 4, 55, 127
7, 3036, Note_off_c, 4, 62, 64
7, 3036, Note_off_c, 4, 57, 64
7, 3409, Note_on_c, 4, 62, 127
7, 3435, Note_off_c, 4, 64, 64
7, 4524, Note_off_c, 4, 55, 64
7, 4563, Note_on_c, 4, 54, 127
7, 4576, Note_on_c, 4, 57, 127
7, 6070, Note_off_c, 4, 54, 64
7, 6108, Note_on_c, 4, 64, 127
7, 6116, Note_on_c, 4, 55, 127
7, 6126, Note_off_c, 4, 57, 64
7, 6129, Note_off_c, 4, 62, 64
7, 6486, Note_on_c, 4, 62, 127
7, 6510, Note_off_c, 4, 64, 64
7, 7542, Note_off_c, 4, 55, 64
7, 7552, Note_off_c, 4, 50, 64
7, 7558, Note_off_c, 4, 62, 64
7, 7614, Note_on_c, 4, 50, 127
7, 7640, Note_on_c, 4, 57, 127
7, 7643, Note_on_c, 4, 54, 127
7, 7651, Note_on_c, 4, 62, 127
7, 9030, Note_off_c, 4, 57, 64
7, 9168, Note_on_c, 4, 59, 127
7, 9171, Note_off_c, 4, 50, 64
7, 9174, Note_on_c, 4, 55, 127
7, 9190, Note_off_c, 4, 54, 64
7, 10560, Note_off_c, 4, 55, 64
7, 10676, Note_off_c, 4, 62, 64
7, 10707, Note_on_c, 4, 50, 127
7, 10708, Note_on_c, 4, 62, 127
7, 10718, Note_on_c, 4, 57, 127
7, 10718, Note_on_c, 4, 54, 127
7, 10740, Note_off_c, 4, 59, 64
7, 12129, Note_off_c, 4, 57, 64
7, 12192, Note_off_c, 4, 54, 64
7, 12204, Note_off_c, 4, 50, 64
7, 12249, Note_on_c, 4, 55, 127
7, 12251, Note_on_c, 4, 59, 127
7, 12262, Note_on_c, 4, 50, 127
7, 13587, Note_off_c, 4, 55, 64
7, 13593, Note_off_c, 4, 59, 64
7, 13595, Note_off_c, 4, 62, 64
7, 13600, Note_off_c, 4, 50, 64
7, 13812, Note_on_c, 4, 48, 127
7, 13816, Note_on_c, 4, 55, 127
7, 13825, Note_on_c, 4, 60, 127
7, 15326, Note_off_c, 4, 60, 64
7, 15334, Note_on_c, 4, 57, 127
7, 15337, Note_on_c, 4, 50, 127
7, 15340, Note_on_c, 4, 62, 127
7, 15347, Note_off_c, 4, 48, 64
7, 15364, Note_off_c, 4, 55, 64
7, 16822, Note_off_c, 4, 50, 64
7, 16849, Note_off_c, 4, 57, 64
7, 16859, Note_on_c, 4, 57, 127
7, 16865, Note_on_c, 4, 45, 127
7, 16873, Note_on_c, 4, 52, 127
7, 16892, Note_off_c, 4, 62, 64
7, 17504, Note_off_c, 4, 57, 64
7, 17601, Note_off_c, 4, 52, 64
7, 17628, Note_on_c, 4, 59, 127
7, 17633, Note_off_c, 4, 45, 64
7, 17635, Note_on_c, 4, 52, 127
7, 17636, Note_on_c, 4, 64, 127
7, 18396, Note_on_c, 4, 62, 127
7, 18408, Note_off_c, 4, 59, 64
7, 18408, Note_on_c, 4, 50, 127
7, 18409, Note_on_c, 4, 57, 127
7, 18411, Note_off_c, 4, 52, 64
7, 18420, Note_off_c, 4, 64, 64
7, 19843, Note_off_c, 4, 50, 64
7, 19851, Note_off_c, 4, 62, 64
7, 19852, Note_off_c, 4, 57, 64
7, 19926, Note_on_c, 4, 55, 127
7, 19940, Note_on_c, 4, 48, 127
7, 19940, Note_on_c, 4, 60, 127
7, 20683, Note_off_c, 4, 48, 64
7, 20700, Note_on_c, 4, 50, 127
7, 20708, Note_on_c, 4, 43, 127
7, 20718, Note_off_c, 4, 60, 64
7, 21436, Note_off_c, 4, 50, 64
7, 21440, Note_off_c, 4, 43, 64
7, 21470, Note_off_c, 4, 55, 64
7, 21470, Note_on_c, 4, 57, 127
7, 21472, Note_on_c, 4, 50, 127
7, 21475, Note_on_c, 4, 62, 127
7, 22942, Note_off_c, 4, 57, 64
7, 22944, Note_off_c, 4, 50, 64
7, 22944, Note_off_c, 4, 62, 64
7, 23004, Note_on_c, 4, 50, 127
7, 23027, Note_on_c, 4, 57, 127
7, 23032, Note_on_c, 4, 66, 127
7, 23033, Note_on_c, 4, 54, 127
7, 24436, Note_off_c, 4, 57, 64
7, 24472, Note_off_c, 4, 54, 64
7, 24537, Note_on_c, 4, 55, 127
7, 24544, Note_on_c, 4, 59, 127
7, 24564, Note_on_c, 4, 67, 127
7, 24576, Note_off_c, 4, 66, 64
7, 25987, Note_off_c, 4, 59, 64
7, 26008, Note_off_c, 4, 55, 64
7, 26059, Note_off_c, 4, 50, 64
7, 26089, Note_on_c, 4, 50, 127
7, 26092, Note_on_c, 4, 66, 127
7, 26096, Note_on_c, 4, 54, 127
7, 26099, Note_on_c, 4, 57, 127
7, 26115, Note_off_c, 4, 67, 64
7, 27472, Note_off_c, 4, 57, 64
7, 27504, Note_off_c, 4, 54, 64
7, 27520, Note_off_c, 4, 50, 64
7, 27624, Note_on_c, 4, 50, 127
7, 27628, Note_on_c, 4, 55, 127
7, 27633, Note_on_c, 4, 59, 127
7, 27641, Note_on_c, 4, 67, 127
7, 27644, Note_off_c, 4, 66, 64
7, 29036, Note_off_c, 4, 59, 64
7, 29081, Note_off_c, 4, 55, 64
7, 29100, Note_off_c, 4, 50, 64
7, 29139, Note_on_c, 4, 50, 127
7, 29153, Note_on_c, 4, 66, 127
7, 29155, Note_on_c, 4, 54, 127
7, 29156, Note_on_c, 4, 57, 127
7, 29163, Note_off_c, 4, 67, 64
7, 30488, Note_off_c, 4, 57, 64
7, 30558, Note_off_c, 4, 50, 64
7, 30560, Note_off_c, 4, 54, 64
7, 30595, Note_off_c, 4, 66, 64
7, 30697, Note_on_c, 4, 50, 127
7, 30699, Note_on_c, 4, 55, 127
7, 30707, Note_on_c, 4, 59, 127
7, 30708, Note_on_c, 4, 67, 127
7, 32118, Note_off_c, 4, 59, 64
7, 32124, Note_off_c, 4, 55, 64
7, 32129, Note_off_c, 4, 67, 64
7, 32134, Note_off_c, 4, 50, 64
7, 32233, Note_on_c, 4, 55, 127
7, 32240, Note_on_c, 4, 48, 127
7, 32248, Note_on_c, 4, 60, 127
7, 33753, Note_off_c, 4, 60, 64
7, 33758, Note_off_c, 4, 48, 64
7, 33764, Note_off_c, 4, 55, 64
7, 33768, Note_on_c, 4, 57, 127
7, 33769, Note_on_c, 4, 62, 127
7, 33769, Note_on_c, 4, 50, 127
7, 35212, Note_off_c, 4, 62, 64
7, 35297, Note_on_c, 4, 45, 127
7, 35300, Note_off_c, 4, 50, 64
7, 36059, Note_off_c, 4, 45, 64
7, 36068, Note_on_c, 4, 64, 127
7, 36072, Note_on_c, 4, 52, 127
7, 36088, Note_off_c, 4, 57, 64
7, 36819, Note_off_c, 4, 64, 64
7, 36820, Note_on_c, 4, 62, 127
7, 36832, Note_on_c, 4, 57, 127
7, 36833, Note_off_c, 4, 52, 64
7, 36833, Note_on_c, 4, 50, 127
7, 38323, Note_off_c, 4, 57, 64
7, 38324, Note_off_c, 4, 50, 64
7, 38334, Note_off_c, 4, 62, 64
7, 41440, Note_on_c, 4, 54, 127
7, 41444, Note_on_c, 4, 57, 127
7, 41448, Note_on_c, 4, 62, 127
7, 41449, Note_on_c, 4, 50, 127
7, 42921, Note_off_c, 4, 54, 64
7, 42955, Note_off_c, 4, 62, 64
7, 42964, Note_off_c, 4, 50, 64
7, 42979, Note_on_c, 4, 43, 127
7, 42982, Note_on_c, 4, 50, 127
7, 42984, Note_on_c, 4, 55, 127
7, 43003, Note_off_c, 4, 57, 64
7, 44382, Note_off_c, 4, 55, 64
7, 44462, Note_off_c, 4, 43, 64
7, 44504, Note_off_c, 4, 50, 64
7, 44512, Note_on_c, 4, 54, 127
7, 44513, Note_on_c, 4, 50, 127
7, 44518, Note_on_c, 4, 57, 127
7, 44520, Note_on_c, 4, 62, 127
7, 45942, Note_off_c, 4, 54, 64
7, 46000, Note_off_c, 4, 62, 64
7, 46032, Note_off_c, 4, 50, 64
7, 46057, Note_off_c, 4, 57, 64
7, 46060, Note_on_c, 4, 55, 127
7, 46060, Note_on_c, 4, 43, 127
7, 46067, Note_on_c, 4, 50, 127
7, 47494, Note_off_c, 4, 55, 64
7, 47512, Note_off_c, 4, 43, 64
7, 47531, Note_off_c, 4, 50, 64
7, 47585, Note_on_c, 4, 57, 127
7, 47585, Note_on_c, 4, 54, 127
7, 47590, Note_on_c, 4, 62, 127
7, 47592, Note_on_c, 4, 50, 127
7, 49024, Note_off_c, 4, 62, 64
7, 49043, Note_off_c, 4, 54, 64
7, 49067, Note_off_c, 4, 50, 64
7, 49136, Note_on_c, 4, 55, 127
7, 49136, Note_on_c, 4, 50, 127
7, 49137, Note_off_c, 4, 57, 64
7, 49137, Note_on_c, 4, 43, 127
7, 50489, Note_off_c, 4, 55, 64
7, 50510, Note_off_c, 4, 43, 64
7, 50515, Note_off_c, 4, 50, 64
7, 50644, Note_on_c, 4, 54, 127
7, 50657, Note_on_c, 4, 57, 127
7, 50659, Note_on_c, 4, 62, 127
7, 50660, Note_on_c, 4, 50, 127
7, 52100, Note_off_c, 4, 54, 64
7, 52128, Note_off_c, 4, 62, 64
7, 52145, Note_off_c, 4, 50, 64
7, 52176, Note_off_c, 4, 57, 64
7, 52208, Note_on_c, 4, 55, 127
7, 52214, Note_on_c, 4, 50, 127
7, 52219, Note_on_c, 4, 43, 127
7, 53435, Note_off_c, 4, 43, 64
7, 53436, Note_off_c, 4, 50, 64
7, 53444, Note_off_c, 4, 55, 64
7, 59889, Note_on_c, 4, 55, 127
7, 59892, Note_on_c, 4, 48, 127
7, 59897, Note_on_c, 4, 60, 127
7, 60628, Note_off_c, 4, 48, 64
7, 60643, Note_on_c, 4, 50, 127
7, 60646, Note_on_c, 4, 43, 127
7, 60649, Note_off_c, 4, 60, 64
7, 61388, Note_on_c, 4, 57, 127
7, 61395, Note_on_c, 4, 50, 127
7, 61398, Note_on_c, 4, 62, 127
7, 61401, Note_off_c, 4, 43, 64
7, 61406, Note_off_c, 4, 55, 64
7, 61406, Note_off_c, 4, 50, 64
7, 64358, Note_off_c, 4, 57, 64
7, 64427, Note_off_c, 4, 50, 64
7, 64473, Note_on_c, 4, 43, 127
7, 64476, Note_on_c, 4, 55, 127
7, 64481, Note_on_c, 4, 50, 127
7, 64502, Note_off_c, 4, 62, 64
7, 65971, Note_off_c, 4, 43, 64
7, 65972, Note_off_c, 4, 50, 64
7, 66020, Note_on_c, 4, 57, 127
7, 66025, Note_on_c, 4, 62, 127
7, 66032, Note_on_c, 4, 50, 127
7, 66046, Note_off_c, 4, 55, 64
7, 67521, Note_off_c, 4, 50, 64
7, 67564, Note_on_c, 4, 43, 127
7, 67569, Note_on_c, 4, 55, 127
7, 67571, Note_off_c, 4, 62, 64
7, 67576, Note_on_c, 4, 50, 127
7, 67600, Note_off_c, 4, 57, 64
7, 69020, Note_off_c, 4, 50, 64
7, 69032, Note_off_c, 4, 43, 64
7, 69076, Note_on_c, 4, 57, 127
7, 69088, Note_on_c, 4, 62, 127
7, 69091, Note_on_c, 4, 50, 127
7, 69096, Note_off_c, 4, 55, 64
7, 70584, Note_off_c, 4, 50, 64
7, 70593, Note_on_c, 4, 55, 127
7, 70598, Note_off_c, 4, 62, 64
7, 70598, Note_on_c, 4, 50, 127
7, 70603, Note_on_c, 4, 43, 127
7, 70641, Note_off_c, 4, 57, 64
7, 72040, Note_off_c, 4, 43, 64
7, 72056, Note_off_c, 4, 50, 64
7, 72145, Note_off_c, 4, 55, 64
7, 72150, Note_on_c, 4, 57, 127
7, 72158, Note_on_c, 4, 62, 127
7, 72164, Note_on_c, 4, 50, 127
7, 73688, Note_off_c, 4, 50, 64
7, 73708, Note_on_c, 4, 50, 127
7, 73710, Note_on_c, 4, 55, 127
7, 73713, Note_on_c, 4, 43, 127
7, 73720, Note_off_c, 4, 62, 64
7, 73726, Note_off_c, 4, 57, 64
7, 75161, Note_off_c, 4, 50, 64
7, 75184, Note_off_c, 4, 43, 64
7, 75193, Note_off_c, 4, 55, 64
7, 75230, Note_on_c, 4, 57, 127
7, 75240, Note_on_c, 4, 62, 127
7, 75264, Note_on_c, 4, 50, 127
7, 76582, Note_off_c, 4, 50, 64
7, 76768, Note_on_c, 4, 55, 127
7, 76769, Note_off_c, 4, 62, 64
7, 76772, Note_on_c, 4, 43, 127
7, 76774, Note_on_c, 4, 50, 127
7, 76816, Note_off_c, 4, 57, 64
7, 78315, Note_off_c, 4, 43, 64
7, 78315, Note_off_c, 4, 50, 64
7, 78321, Note_off_c, 4, 55, 64
7, 79104, Control_c, 4, 7, 63
7, 79128, Control_c, 4, 7, 62
7, 79152, Control_c, 4, 7, 61
7, 79176, Control_c, 4, 7, 60
7, 79200, Control_c, 4, 7, 59
7, 79225, Control_c, 4, 7, 58
7, 79249, Control_c, 4, 7, 57
7, 79273, Control_c, 4, 7, 56
7, 79297, Control_c, 4, 7, 55
7, 79323, Control_c, 4, 7, 54
7, 79347, Control_c, 4, 7, 53
7, 79371, Control_c, 4, 7, 52
7, 79395, Control_c, 4, 7, 51
7, 79419, Control_c, 4, 7, 50
7, 79444, Control_c, 4, 7, 49
7, 79468, Control_c, 4, 7, 48
7, 79492, Control_c, 4, 7, 47
7, 79516, Control_c, 4, 7, 46
7, 79542, Control_c, 4, 7, 45
7, 79566, Control_c, 4, 7, 44
7, 79590, Control_c, 4, 7, 43
7, 79614, Control_c, 4, 7, 42
7, 79638, Control_c, 4, 7, 41
7, 79664, Control_c, 4, 7, 40
7, 79688, Control_c, 4, 7, 39
7, 79712, Control_c, 4, 7, 38
7, 79736, Control_c, 4, 7, 37
7, 79761, Control_c, 4, 7, 36
7, 79785, Control_c, 4, 7, 35
7, 79809, Control_c, 4, 7, 34
7, 79833, Control_c, 4, 7, 33
7, 79857, Control_c, 4, 7, 32
7, 79883, Control_c, 4, 7, 31
7, 79907, Control_c, 4, 7, 30
7, 79931, Control_c, 4, 7, 29
7, 79955, Control_c, 4, 7, 28
7, 79980, Control_c, 4, 7, 27
7, 80004, Control_c, 4, 7, 26
7, 80028, Control_c, 4, 7, 25
7, 80052, Control_c, 4, 7, 24
7, 80076, Control_c, 4, 7, 23
7, 80102, Control_c, 4, 7, 22
7, 80126, Control_c, 4, 7, 21
7, 80150, Control_c, 4, 7, 20
7, 80174, Control_c, 4, 7, 19
7, 80200, Control_c, 4, 7, 18
7, 80224, Control_c, 4, 7, 17
7, 80248, Control_c, 4, 7, 16
7, 80272, Control_c, 4, 7, 15
7, 80296, Control_c, 4, 7, 14
7, 80321, Control_c, 4, 7, 13
7, 80345, Control_c, 4, 7, 12
7, 80369, Control_c, 4, 7, 11
7, 80393, Control_c, 4, 7, 10
7, 80419, Control_c, 4, 7, 9
7, 80443, Control_c, 4, 7, 8
7, 80467, Control_c, 4, 7, 7
7, 80491, Control_c, 4, 7, 6
7, 80515, Control_c, 4, 7, 5
7, 80540, Control_c, 4, 7, 4
7, 80564, Control_c, 4, 7, 3
7, 80588, Control_c, 4, 7, 2
7, 80612, Control_c, 4, 7, 1
7, 80638, Control_c, 4, 7, 0
7, 80638, End_track
8, 0, Start_track
8, 0, Title_t, "MELODY"
8, 0, Channel_prefix, 5
8, 0, Control_c, 5, 7, 127
8, 0, Control_c, 5, 10, 64
8, 0, Program_c, 5, 25
8, 0, Control_c, 5, 93, 0
8, 0, Control_c, 5, 91, 127
8, 7662, Note_on_c, 5, 66, 127
8, 8380, Note_off_c, 5, 66, 64
8, 8745, Note_on_c, 5, 66, 127
8, 8774, Note_off_c, 5, 66, 64
8, 8840, Note_on_c, 5, 66, 127
8, 8928, Note_on_c, 5, 64, 127
8, 8942, Note_off_c, 5, 66, 64
8, 9008, Note_off_c, 5, 64, 64
8, 9016, Note_on_c, 5, 62, 127
8, 9065, Note_off_c, 5, 62, 64
8, 9120, Note_on_c, 5, 62, 127
8, 10014, Note_off_c, 5, 62, 64
8, 10473, Note_on_c, 5, 62, 127
8, 10620, Note_off_c, 5, 62, 64
8, 10660, Note_on_c, 5, 66, 127
8, 10771, Note_off_c, 5, 66, 64
8, 10812, Note_on_c, 5, 66, 127
8, 11705, Note_off_c, 5, 66, 64
8, 11816, Note_on_c, 5, 62, 127
8, 11843, Note_off_c, 5, 62, 64
8, 11908, Note_on_c, 5, 66, 127
8, 12003, Note_on_c, 5, 64, 127
8, 12016, Note_off_c, 5, 66, 64
8, 12089, Note_off_c, 5, 64, 64
8, 12099, Note_on_c, 5, 62, 127
8, 12144, Note_off_c, 5, 62, 64
8, 12201, Note_on_c, 5, 62, 127
8, 13448, Note_off_c, 5, 62, 64
8, 13734, Note_on_c, 5, 62, 127
8, 13806, Note_off_c, 5, 62, 64
8, 13836, Note_on_c, 5, 64, 127
8, 13896, Note_off_c, 5, 64, 64
8, 13931, Note_on_c, 5, 64, 127
8, 14457, Note_off_c, 5, 64, 64
8, 14592, Note_on_c, 5, 64, 127
8, 14633, Note_off_c, 5, 64, 64
8, 14683, Note_on_c, 5, 64, 127
8, 14774, Note_off_c, 5, 64, 64
8, 14888, Note_on_c, 5, 64, 127
8, 14932, Note_off_c, 5, 64, 64
8, 14985, Note_on_c, 5, 67, 127
8, 15036, Note_off_c, 5, 67, 64
8, 15080, Note_on_c, 5, 67, 127
8, 15124, Note_off_c, 5, 67, 64
8, 15177, Note_on_c, 5, 67, 127
8, 15220, Note_off_c, 5, 67, 64
8, 15273, Note_on_c, 5, 67, 127
8, 15352, Note_off_c, 5, 67, 64
8, 15363, Note_on_c, 5, 66, 127
8, 16115, Note_off_c, 5, 66, 64
8, 16614, Note_on_c, 5, 66, 127
8, 16665, Note_off_c, 5, 66, 64
8, 16707, Note_on_c, 5, 66, 127
8, 16763, Note_off_c, 5, 66, 64
8, 16803, Note_on_c, 5, 66, 127
8, 16883, Note_off_c, 5, 66, 64
8, 16892, Note_on_c, 5, 64, 127
8, 17516, Note_off_c, 5, 64, 64
8, 17966, Note_on_c, 5, 64, 127
8, 18003, Note_off_c, 5, 64, 64
8, 18057, Note_on_c, 5, 67, 127
8, 18097, Note_off_c, 5, 67, 64
8, 18156, Note_on_c, 5, 67, 127
8, 18185, Note_off_c, 5, 67, 64
8, 18248, Note_on_c, 5, 67, 127
8, 18273, Note_off_c, 5, 67, 64
8, 18342, Note_on_c, 5, 67, 127
8, 18409, Note_off_c, 5, 67, 64
8, 18432, Note_on_c, 5, 66, 127
8, 19264, Note_off_c, 5, 66, 64
8, 19596, Note_on_c, 5, 66, 127
8, 19686, Note_on_c, 5, 64, 127
8, 19697, Note_off_c, 5, 66, 64
8, 19771, Note_off_c, 5, 64, 64
8, 19785, Note_on_c, 5, 62, 127
8, 19830, Note_off_c, 5, 62, 64
8, 19880, Note_on_c, 5, 64, 127
8, 19955, Note_off_c, 5, 64, 64
8, 19966, Note_on_c, 5, 62, 127
8, 20918, Note_off_c, 5, 62, 64
8, 21020, Note_on_c, 5, 62, 127
8, 21043, Note_off_c, 5, 62, 64
8, 21113, Note_on_c, 5, 62, 127
8, 21240, Note_off_c, 5, 62, 64
8, 21308, Note_on_c, 5, 62, 127
8, 21491, Note_off_c, 5, 62, 64
8, 21499, Note_on_c, 5, 59, 127
8, 21585, Note_off_c, 5, 59, 64
8, 21595, Note_on_c, 5, 57, 127
8, 22835, Note_off_c, 5, 57, 64
8, 26121, Note_on_c, 5, 78, 127
8, 27144, Note_off_c, 5, 78, 64
8, 27273, Note_on_c, 5, 78, 127
8, 27369, Note_on_c, 5, 76, 127
8, 27403, Note_off_c, 5, 78, 64
8, 27448, Note_off_c, 5, 76, 64
8, 27459, Note_on_c, 5, 74, 127
8, 27505, Note_off_c, 5, 74, 64
8, 27568, Note_on_c, 5, 74, 127
8, 28417, Note_off_c, 5, 74, 64
8, 29200, Note_on_c, 5, 78, 127
8, 30176, Note_off_c, 5, 78, 64
8, 30350, Note_on_c, 5, 78, 127
8, 30448, Note_on_c, 5, 76, 127
8, 30467, Note_off_c, 5, 78, 64
8, 30523, Note_off_c, 5, 76, 64
8, 30539, Note_on_c, 5, 74, 127
8, 30584, Note_off_c, 5, 74, 64
8, 30641, Note_on_c, 5, 74, 127
8, 31667, Note_off_c, 5, 74, 64
8, 32171, Note_on_c, 5, 62, 127
8, 32244, Note_off_c, 5, 62, 64
8, 32265, Note_on_c, 5, 64, 127
8, 32318, Note_off_c, 5, 64, 64
8, 32355, Note_on_c, 5, 64, 127
8, 32851, Note_off_c, 5, 64, 64
8, 32915, Note_on_c, 5, 62, 127
8, 32985, Note_off_c, 5, 62, 64
8, 33020, Note_on_c, 5, 64, 127
8, 33072, Note_off_c, 5, 64, 64
8, 33113, Note_on_c, 5, 64, 127
8, 33187, Note_off_c, 5, 64, 64
8, 33310, Note_on_c, 5, 62, 127
8, 33352, Note_off_c, 5, 62, 64
8, 33398, Note_on_c, 5, 64, 127
8, 33440, Note_off_c, 5, 64, 64
8, 33494, Note_on_c, 5, 64, 127
8, 33526, Note_off_c, 5, 64, 64
8, 33595, Note_on_c, 5, 64, 127
8, 33624, Note_off_c, 5, 64, 64
8, 33688, Note_on_c, 5, 64, 127
8, 33784, Note_on_c, 5, 62, 127
8, 33790, Note_off_c, 5, 64, 64
8, 34926, Note_off_c, 5, 62, 64
8, 34950, Note_on_c, 5, 66, 127
8, 35043, Note_on_c, 5, 64, 127
8, 35057, Note_off_c, 5, 66, 64
8, 35136, Note_off_c, 5, 64, 64
8, 35136, Note_on_c, 5, 62, 127
8, 35222, Note_off_c, 5, 62, 64
8, 35230, Note_on_c, 5, 64, 127
8, 35313, Note_off_c, 5, 64, 64
8, 35324, Note_on_c, 5, 62, 127
8, 36132, Note_off_c, 5, 62, 64
8, 36393, Note_on_c, 5, 62, 127
8, 36417, Note_off_c, 5, 62, 64
8, 36491, Note_on_c, 5, 62, 127
8, 36601, Note_off_c, 5, 62, 64
8, 36675, Note_on_c, 5, 62, 127
8, 36846, Note_off_c, 5, 62, 64
8, 36864, Note_on_c, 5, 59, 127
8, 36942, Note_off_c, 5, 59, 64
8, 36950, Note_on_c, 5, 57, 127
8, 37905, Note_off_c, 5, 57, 64
8, 38112, Note_on_c, 5, 66, 127
8, 38196, Note_off_c, 5, 66, 64
8, 38203, Note_on_c, 5, 64, 127
8, 38256, Note_off_c, 5, 64, 64
8, 38302, Note_on_c, 5, 66, 127
8, 38380, Note_off_c, 5, 66, 64
8, 38396, Note_on_c, 5, 64, 127
8, 39185, Note_off_c, 5, 64, 64
8, 39449, Note_on_c, 5, 62, 127
8, 39476, Note_off_c, 5, 62, 64
8, 39547, Note_on_c, 5, 62, 127
8, 39665, Note_off_c, 5, 62, 64
8, 39729, Note_on_c, 5, 62, 127
8, 39897, Note_off_c, 5, 62, 64
8, 39913, Note_on_c, 5, 59, 127
8, 40006, Note_off_c, 5, 59, 64
8, 40014, Note_on_c, 5, 57, 127
8, 41062, Note_off_c, 5, 57, 64
8, 41470, Note_on_c, 5, 69, 127
8, 41484, Note_on_c, 5, 78, 127
8, 41485, Note_off_c, 5, 78, 64
8, 41488, Note_on_c, 5, 78, 127
8, 42548, Note_off_c, 5, 69, 64
8, 42635, Note_on_c, 5, 78, 127
8, 42641, Note_on_c, 5, 69, 127
8, 42672, Note_off_c, 5, 78, 64
8, 42803, Note_off_c, 5, 78, 64
8, 42820, Note_on_c, 5, 67, 127
8, 42822, Note_on_c, 5, 76, 127
8, 42827, Note_off_c, 5, 69, 64
8, 42856, Note_off_c, 5, 76, 64
8, 42878, Note_off_c, 5, 67, 64
8, 42912, Note_on_c, 5, 67, 127
8, 42921, Note_on_c, 5, 76, 127
8, 43222, Note_off_c, 5, 67, 64
8, 43286, Note_on_c, 5, 67, 127
8, 43305, Note_on_c, 5, 74, 127
8, 43320, Note_off_c, 5, 76, 64
8, 44209, Note_off_c, 5, 74, 64
8, 44363, Note_off_c, 5, 67, 64
8, 44532, Note_on_c, 5, 69, 127
8, 44536, Note_on_c, 5, 78, 127
8, 44537, Note_off_c, 5, 78, 64
8, 44539, Note_on_c, 5, 78, 127
8, 44624, Note_off_c, 5, 78, 64
8, 44654, Note_off_c, 5, 69, 64
8, 44721, Note_on_c, 5, 69, 127
8, 44729, Note_on_c, 5, 78, 127
8, 44732, Note_off_c, 5, 78, 64
8, 44734, Note_on_c, 5, 78, 127
8, 45652, Note_off_c, 5, 78, 64
8, 45670, Note_off_c, 5, 69, 64
8, 45707, Note_on_c, 5, 76, 127
8, 45710, Note_on_c, 5, 67, 127
8, 45862, Note_off_c, 5, 67, 64
8, 45884, Note_on_c, 5, 67, 127
8, 45886, Note_on_c, 5, 74, 127
8, 45910, Note_off_c, 5, 76, 64
8, 45944, Note_off_c, 5, 67, 64
8, 45958, Note_off_c, 5, 74, 64
8, 45976, Note_on_c, 5, 67, 127
8, 45987, Note_on_c, 5, 74, 127
8, 46752, Note_off_c, 5, 74, 64
8, 46793, Note_off_c, 5, 67, 64
8, 47409, Note_on_c, 5, 69, 127
8, 47473, Note_off_c, 5, 69, 64
8, 47499, Note_on_c, 5, 69, 127
8, 47512, Note_on_c, 5, 78, 127
8, 48417, Note_off_c, 5, 78, 64
8, 48652, Note_off_c, 5, 69, 64
8, 48769, Note_on_c, 5, 78, 127
8, 48771, Note_on_c, 5, 69, 127
8, 48841, Note_off_c, 5, 78, 64
8, 48859, Note_on_c, 5, 76, 127
8, 48864, Note_on_c, 5, 67, 127
8, 48880, Note_off_c, 5, 69, 64
8, 48934, Note_off_c, 5, 76, 64
8, 48953, Note_off_c, 5, 67, 64
8, 48956, Note_on_c, 5, 66, 127
8, 48960, Note_on_c, 5, 74, 127
8, 48968, Note_on_c, 5, 76, 127
8, 48979, Note_off_c, 5, 76, 64
8, 49097, Note_off_c, 5, 66, 64
8, 49104, Note_off_c, 5, 74, 64
8, 49145, Note_on_c, 5, 76, 127
8, 49148, Note_on_c, 5, 67, 127
8, 49449, Note_off_c, 5, 67, 64
8, 49529, Note_on_c, 5, 67, 127
8, 49532, Note_off_c, 5, 76, 64
8, 49548, Note_on_c, 5, 74, 127
8, 49899, Note_off_c, 5, 74, 64
8, 50289, Note_off_c, 5, 67, 64
8, 50398, Note_on_c, 5, 69, 127
8, 50404, Note_on_c, 5, 78, 127
8, 50406, Note_off_c, 5, 78, 64
8, 50409, Note_on_c, 5, 78, 127
8, 50486, Note_off_c, 5, 78, 64
8, 50504, Note_off_c, 5, 69, 64
8, 50534, Note_on_c, 5, 78, 127
8, 50534, Note_on_c, 5, 69, 127
8, 50608, Note_off_c, 5, 78, 64
8, 50630, Note_off_c, 5, 69, 64
8, 50673, Note_on_c, 5, 69, 127
8, 50675, Note_on_c, 5, 78, 127
8, 51475, Note_off_c, 5, 69, 64
8, 51484, Note_off_c, 5, 78, 64
8, 51547, Note_on_c, 5, 69, 127
8, 51555, Note_on_c, 5, 78, 127
8, 51585, Note_off_c, 5, 78, 64
8, 51611, Note_off_c, 5, 69, 64
8, 51638, Note_on_c, 5, 69, 127
8, 51644, Note_on_c, 5, 78, 127
8, 51764, Note_off_c, 5, 78, 64
8, 51782, Note_off_c, 5, 69, 64
8, 51838, Note_on_c, 5, 69, 127
8, 51857, Note_on_c, 5, 78, 127
8, 51883, Note_off_c, 5, 78, 64
8, 51926, Note_on_c, 5, 67, 127
8, 51931, Note_off_c, 5, 69, 64
8, 51937, Note_on_c, 5, 76, 127
8, 52016, Note_off_c, 5, 67, 64
8, 52016, Note_off_c, 5, 76, 64
8, 52019, Note_on_c, 5, 66, 127
8, 52033, Note_on_c, 5, 74, 127
8, 52081, Note_off_c, 5, 66, 64
8, 52089, Note_off_c, 5, 74, 64
8, 52123, Note_on_c, 5, 67, 127
8, 52129, Note_on_c, 5, 74, 127
8, 52915, Note_off_c, 5, 67, 64
8, 52934, Note_off_c, 5, 74, 64
8, 53452, Note_on_c, 5, 64, 127
8, 53520, Note_off_c, 5, 64, 64
8, 53553, Note_on_c, 5, 64, 127
8, 53620, Note_off_c, 5, 64, 64
8, 53651, Note_on_c, 5, 64, 127
8, 53844, Note_on_c, 5, 62, 127
8, 53859, Note_off_c, 5, 64, 64
8, 54344, Note_off_c, 5, 62, 64
8, 54609, Note_on_c, 5, 64, 127
8, 54656, Note_off_c, 5, 64, 64
8, 54699, Note_on_c, 5, 64, 127
8, 54745, Note_off_c, 5, 64, 64
8, 54796, Note_on_c, 5, 64, 127
8, 54833, Note_off_c, 5, 64, 64
8, 54899, Note_on_c, 5, 64, 127
8, 55004, Note_on_c, 5, 62, 127
8, 55019, Note_off_c, 5, 64, 64
8, 55147, Note_off_c, 5, 62, 64
8, 55204, Note_on_c, 5, 62, 127
8, 55985, Note_off_c, 5, 62, 64
8, 56542, Note_on_c, 5, 66, 127
8, 56577, Note_off_c, 5, 66, 64
8, 56635, Note_on_c, 5, 66, 127
8, 56673, Note_off_c, 5, 66, 64
8, 56724, Note_on_c, 5, 66, 127
8, 56816, Note_off_c, 5, 66, 64
8, 56819, Note_on_c, 5, 64, 127
8, 57352, Note_off_c, 5, 64, 64
8, 57886, Note_on_c, 5, 66, 127
8, 57915, Note_off_c, 5, 66, 64
8, 57976, Note_on_c, 5, 66, 127
8, 58011, Note_off_c, 5, 66, 64
8, 58067, Note_on_c, 5, 66, 127
8, 58097, Note_off_c, 5, 66, 64
8, 58156, Note_on_c, 5, 66, 127
8, 58192, Note_off_c, 5, 66, 64
8, 58257, Note_on_c, 5, 66, 127
8, 58347, Note_off_c, 5, 66, 64
8, 58353, Note_on_c, 5, 62, 127
8, 58924, Note_off_c, 5, 62, 64
8, 59528, Note_on_c, 5, 66, 127
8, 59614, Note_on_c, 5, 64, 127
8, 59632, Note_off_c, 5, 66, 64
8, 59702, Note_off_c, 5, 64, 64
8, 59710, Note_on_c, 5, 62, 127
8, 59870, Note_off_c, 5, 62, 64
8, 59904, Note_on_c, 5, 64, 127
8, 60275, Note_on_c, 5, 62, 127
8, 60281, Note_off_c, 5, 64, 64
8, 60851, Note_off_c, 5, 62, 64
8, 60956, Note_on_c, 5, 62, 127
8, 60988, Note_off_c, 5, 62, 64
8, 61048, Note_on_c, 5, 62, 127
8, 61169, Note_off_c, 5, 62, 64
8, 61230, Note_on_c, 5, 62, 127
8, 61409, Note_off_c, 5, 62, 64
8, 61422, Note_on_c, 5, 59, 127
8, 61516, Note_off_c, 5, 59, 64
8, 61521, Note_on_c, 5, 57, 127
8, 62392, Note_off_c, 5, 57, 64
8, 64124, Note_on_c, 5, 66, 127
8, 64217, Note_on_c, 5, 64, 127
8, 64233, Note_off_c, 5, 66, 64
8, 64304, Note_off_c, 5, 64, 64
8, 64308, Note_on_c, 5, 62, 127
8, 64486, Note_off_c, 5, 62, 64
8, 64502, Note_on_c, 5, 64, 127
8, 65139, Note_off_c, 5, 64, 64
8, 65160, Note_on_c, 5, 62, 127
8, 65713, Note_off_c, 5, 62, 64
8, 67208, Note_on_c, 5, 66, 127
8, 67296, Note_on_c, 5, 64, 127
8, 67310, Note_off_c, 5, 66, 64
8, 67374, Note_off_c, 5, 64, 64
8, 67385, Note_on_c, 5, 62, 127
8, 67534, Note_off_c, 5, 62, 64
8, 67577, Note_on_c, 5, 64, 127
8, 68225, Note_off_c, 5, 64, 64
8, 68244, Note_on_c, 5, 62, 127
8, 68846, Note_off_c, 5, 62, 64
8, 70264, Note_on_c, 5, 66, 127
8, 70361, Note_on_c, 5, 64, 127
8, 70369, Note_off_c, 5, 66, 64
8, 70448, Note_off_c, 5, 64, 64
8, 70452, Note_on_c, 5, 62, 127
8, 70595, Note_off_c, 5, 62, 64
8, 70643, Note_on_c, 5, 64, 127
8, 71268, Note_off_c, 5, 64, 64
8, 71310, Note_on_c, 5, 62, 127
8, 71968, Note_off_c, 5, 62, 64
8, 73344, Note_on_c, 5, 66, 127
8, 73436, Note_on_c, 5, 64, 127
8, 73440, Note_off_c, 5, 66, 64
8, 73507, Note_off_c, 5, 64, 64
8, 73521, Note_on_c, 5, 62, 127
8, 73649, Note_off_c, 5, 62, 64
8, 73724, Note_on_c, 5, 64, 127
8, 74368, Note_off_c, 5, 64, 64
8, 74392, Note_on_c, 5, 62, 127
8, 74705, Note_off_c, 5, 62, 64
8, 74776, Note_on_c, 5, 62, 127
8, 74800, Note_off_c, 5, 62, 64
8, 74865, Note_on_c, 5, 62, 127
8, 74985, Note_off_c, 5, 62, 64
8, 75054, Note_on_c, 5, 62, 127
8, 75214, Note_off_c, 5, 62, 64
8, 75244, Note_on_c, 5, 59, 127
8, 75331, Note_off_c, 5, 59, 64
8, 75334, Note_on_c, 5, 57, 127
8, 75504, Note_off_c, 5, 57, 64
8, 79104, Control_c, 5, 7, 63
8, 79128, Control_c, 5, 7, 62
8, 79152, Control_c, 5, 7, 61
8, 79176, Control_c, 5, 7, 60
8, 79200, Control_c, 5, 7, 59
8, 79225, Control_c, 5, 7, 58
8, 79249, Control_c, 5, 7, 57
8, 79273, Control_c, 5, 7, 56
8, 79297, Control_c, 5, 7, 55
8, 79323, Control_c, 5, 7, 54
8, 79347, Control_c, 5, 7, 53
8, 79371, Control_c, 5, 7, 52
8, 79395, Control_c, 5, 7, 51
8, 79419, Control_c, 5, 7, 50
8, 79444, Control_c, 5, 7, 49
8, 79468, Control_c, 5, 7, 48
8, 79492, Control_c, 5, 7, 47
8, 79516, Control_c, 5, 7, 46
8, 79542, Control_c, 5, 7, 45
8, 79566, Control_c, 5, 7, 44
8, 79590, Control_c, 5, 7, 43
8, 79614, Control_c, 5, 7, 42
8, 79638, Control_c, 5, 7, 41
8, 79664, Control_c, 5, 7, 40
8, 79688, Control_c, 5, 7, 39
8, 79712, Control_c, 5, 7, 38
8, 79736, Control_c, 5, 7, 37
8, 79761, Control_c, 5, 7, 36
8, 79785, Control_c, 5, 7, 35
8, 79809, Control_c, 5, 7, 34
8, 79833, Control_c, 5, 7, 33
8, 79857, Control_c, 5, 7, 32
8, 79883, Control_c, 5, 7, 31
8, 79907, Control_c, 5, 7, 30
8, 79931, Control_c, 5, 7, 29
8, 79955, Control_c, 5, 7, 28
8, 79980, Control_c, 5, 7, 27
8, 80004, Control_c, 5, 7, 26
8, 80028, Control_c, 5, 7, 25
8, 80052, Control_c, 5, 7, 24
8, 80076, Control_c, 5, 7, 23
8, 80102, Control_c, 5, 7, 22
8, 80126, Control_c, 5, 7, 21
8, 80150, Control_c, 5, 7, 20
8, 80174, Control_c, 5, 7, 19
8, 80200, Control_c, 5, 7, 18
8, 80224, Control_c, 5, 7, 17
8, 80248, Control_c, 5, 7, 16
8, 80272, Control_c, 5, 7, 15
8, 80296, Control_c, 5, 7, 14
8, 80321, Control_c, 5, 7, 13
8, 80345, Control_c, 5, 7, 12
8, 80369, Control_c, 5, 7, 11
8, 80393, Control_c, 5, 7, 10
8, 80419, Control_c, 5, 7, 9
8, 80443, Control_c, 5, 7, 8
8, 80467, Control_c, 5, 7, 7
8, 80491, Control_c, 5, 7, 6
8, 80515, Control_c, 5, 7, 5
8, 80540, Control_c, 5, 7, 4
8, 80564, Control_c, 5, 7, 3
8, 80588, Control_c, 5, 7, 2
8, 80612, Control_c, 5, 7, 1
8, 80638, Control_c, 5, 7, 0
8, 80638, End_track
9, 0, Start_track
9, 0, Title_t, "STRINGS"
9, 0, Channel_prefix, 6
9, 0, Control_c, 6, 7, 127
9, 0, Control_c, 6, 10, 64
9, 0, Program_c, 6, 49
9, 0, Control_c, 6, 93, 0
9, 0, Control_c, 6, 91, 121
9, 38372, Note_on_c, 6, 64, 127
9, 38387, Note_on_c, 6, 72, 127
9, 39142, Note_on_c, 6, 62, 127
9, 39160, Note_on_c, 6, 71, 127
9, 39169, Note_off_c, 6, 64, 64
9, 39179, Note_off_c, 6, 72, 64
9, 39334, Note_on_c, 6, 74, 127
9, 39492, Note_off_c, 6, 74, 64
9, 39532, Note_on_c, 6, 74, 127
9, 39678, Note_off_c, 6, 74, 64
9, 39736, Note_on_c, 6, 74, 127
9, 39912, Note_off_c, 6, 74, 64
9, 39916, Note_on_c, 6, 66, 127
9, 39920, Note_off_c, 6, 71, 64
9, 40484, Note_on_c, 6, 67, 127
9, 40504, Note_off_c, 6, 66, 64
9, 40612, Note_on_c, 6, 69, 127
9, 40643, Note_off_c, 6, 67, 64
9, 41350, Note_off_c, 6, 62, 64
9, 41355, Note_off_c, 6, 69, 64
9, 41472, Note_on_c, 6, 69, 127
9, 43368, Note_on_c, 6, 71, 127
9, 43372, Note_on_c, 6, 67, 127
9, 43382, Note_off_c, 6, 69, 64
9, 43665, Note_off_c, 6, 67, 64
9, 43672, Note_on_c, 6, 69, 127
9, 43675, Note_on_c, 6, 72, 127
9, 43696, Note_off_c, 6, 71, 64
9, 44040, Note_on_c, 6, 71, 127
9, 44051, Note_on_c, 6, 67, 127
9, 44068, Note_off_c, 6, 72, 64
9, 44072, Note_off_c, 6, 69, 64
9, 44433, Note_off_c, 6, 71, 64
9, 44513, Note_off_c, 6, 67, 64
9, 44516, Note_on_c, 6, 74, 127
9, 45291, Note_on_c, 6, 78, 127
9, 45315, Note_off_c, 6, 74, 64
9, 46054, Note_on_c, 6, 79, 127
9, 46080, Note_off_c, 6, 78, 64
9, 46544, Note_on_c, 6, 71, 127
9, 46548, Note_on_c, 6, 67, 127
9, 46628, Note_on_c, 6, 72, 127
9, 46643, Note_on_c, 6, 69, 127
9, 46644, Note_off_c, 6, 71, 64
9, 46668, Note_off_c, 6, 67, 64
9, 46726, Note_on_c, 6, 71, 127
9, 46736, Note_off_c, 6, 72, 64
9, 46736, Note_on_c, 6, 67, 127
9, 46745, Note_off_c, 6, 69, 64
9, 47387, Note_off_c, 6, 67, 64
9, 47393, Note_off_c, 6, 71, 64
9, 47427, Note_off_c, 6, 79, 64
9, 48766, Note_on_c, 6, 78, 127
9, 49142, Note_on_c, 6, 79, 127
9, 49148, Note_on_c, 6, 67, 127
9, 49153, Note_off_c, 6, 78, 64
9, 50483, Note_off_c, 6, 79, 64
9, 50491, Note_off_c, 6, 67, 64
9, 53710, Note_on_c, 6, 72, 127
9, 53726, Note_on_c, 6, 60, 127
9, 55284, Note_on_c, 6, 74, 127
9, 55284, Note_on_c, 6, 62, 127
9, 55297, Note_off_c, 6, 60, 64
9, 55312, Note_off_c, 6, 72, 64
9, 56793, Note_off_c, 6, 62, 64
9, 56811, Note_on_c, 6, 72, 127
9, 56832, Note_off_c, 6, 74, 64
9, 57569, Note_on_c, 6, 71, 127
9, 57580, Note_off_c, 6, 72, 64
9, 58329, Note_on_c, 6, 62, 127
9, 58339, Note_on_c, 6, 74, 127
9, 58342, Note_off_c, 6, 71, 64
9, 59841, Note_off_c, 6, 62, 64
9, 59888, Note_on_c, 6, 72, 127
9, 59910, Note_off_c, 6, 74, 64
9, 60657, Note_on_c, 6, 71, 127
9, 60675, Note_off_c, 6, 72, 64
9, 61406, Note_on_c, 6, 78, 127
9, 61422, Note_off_c, 6, 71, 64
9, 62835, Note_off_c, 6, 78, 64
9, 62929, Note_on_c, 6, 74, 127
9, 64864, Note_on_c, 6, 71, 127
9, 64867, Note_on_c, 6, 67, 127
9, 64876, Note_off_c, 6, 74, 64
9, 65155, Note_on_c, 6, 72, 127
9, 65161, Note_on_c, 6, 69, 127
9, 65172, Note_off_c, 6, 71, 64
9, 65174, Note_off_c, 6, 67, 64
9, 65635, Note_on_c, 6, 71, 127
9, 65636, Note_off_c, 6, 69, 64
9, 65638, Note_on_c, 6, 67, 127
9, 65656, Note_off_c, 6, 72, 64
9, 65956, Note_off_c, 6, 67, 64
9, 66019, Note_on_c, 6, 62, 127
9, 66040, Note_off_c, 6, 71, 64
9, 67948, Note_on_c, 6, 67, 127
9, 67950, Note_on_c, 6, 71, 127
9, 67963, Note_off_c, 6, 62, 64
9, 68244, Note_on_c, 6, 72, 127
9, 68249, Note_on_c, 6, 69, 127
9, 68254, Note_off_c, 6, 71, 64
9, 68260, Note_off_c, 6, 67, 64
9, 68688, Note_on_c, 6, 71, 127
9, 68692, Note_off_c, 6, 69, 64
9, 68702, Note_on_c, 6, 67, 127
9, 68708, Note_off_c, 6, 72, 64
9, 69080, Note_on_c, 6, 74, 127
9, 69083, Note_off_c, 6, 71, 64
9, 69086, Note_on_c, 6, 62, 127
9, 69115, Note_off_c, 6, 67, 64
9, 71004, Note_on_c, 6, 71, 127
9, 71011, Note_on_c, 6, 67, 127
9, 71016, Note_off_c, 6, 74, 64
9, 71022, Note_off_c, 6, 62, 64
9, 71296, Note_on_c, 6, 69, 127
9, 71302, Note_off_c, 6, 71, 64
9, 71302, Note_on_c, 6, 72, 127
9, 71312, Note_off_c, 6, 67, 64
9, 71766, Note_off_c, 6, 69, 64
9, 71766, Note_on_c, 6, 71, 127
9, 71777, Note_on_c, 6, 67, 127
9, 71785, Note_off_c, 6, 72, 64
9, 72145, Note_on_c, 6, 62, 127
9, 72156, Note_off_c, 6, 71, 64
9, 72158, Note_off_c, 6, 67, 64
9, 74104, Note_on_c, 6, 67, 127
9, 74105, Note_on_c, 6, 71, 127
9, 74118, Note_off_c, 6, 62, 64
9, 74387, Note_on_c, 6, 72, 127
9, 74387, Note_on_c, 6, 69, 127
9, 74395, Note_off_c, 6, 71, 64
9, 74400, Note_off_c, 6, 67, 64
9, 74822, Note_on_c, 6, 71, 127
9, 74832, Note_off_c, 6, 69, 64
9, 74833, Note_on_c, 6, 67, 127
9, 74843, Note_off_c, 6, 72, 64
9, 75214, Note_off_c, 6, 71, 64
9, 75219, Note_off_c, 6, 67, 64
9, 75228, Note_on_c, 6, 62, 127
9, 75233, Note_on_c, 6, 74, 127
9, 77190, Note_on_c, 6, 71, 127
9, 77192, Note_on_c, 6, 67, 127
9, 77204, Note_off_c, 6, 74, 64
9, 77206, Note_off_c, 6, 62, 64
9, 77457, Note_on_c, 6, 72, 127
9, 77459, Note_on_c, 6, 69, 127
9, 77470, Note_off_c, 6, 71, 64
9, 77476, Note_off_c, 6, 67, 64
9, 77924, Note_on_c, 6, 71, 127
9, 77929, Note_off_c, 6, 69, 64
9, 77939, Note_on_c, 6, 67, 127
9, 77947, Note_off_c, 6, 72, 64
9, 78313, Note_off_c, 6, 67, 64
9, 78316, Note_on_c, 6, 62, 127
9, 78318, Note_off_c, 6, 71, 64
9, 78360, Note_on_c, 6, 78, 127
9, 78734, Note_on_c, 6, 83, 127
9, 78808, Note_off_c, 6, 83, 64
9, 78862, Note_on_c, 6, 83, 127
9, 78948, Note_off_c, 6, 83, 64
9, 78987, Note_on_c, 6, 83, 127
9, 79104, Control_c, 6, 7, 63
9, 79128, Control_c, 6, 7, 62
9, 79152, Control_c, 6, 7, 61
9, 79176, Control_c, 6, 7, 60
9, 79200, Control_c, 6, 7, 59
9, 79225, Control_c, 6, 7, 58
9, 79249, Control_c, 6, 7, 57
9, 79273, Control_c, 6, 7, 56
9, 79297, Control_c, 6, 7, 55
9, 79323, Control_c, 6, 7, 54
9, 79347, Control_c, 6, 7, 53
9, 79371, Control_c, 6, 7, 52
9, 79395, Control_c, 6, 7, 51
9, 79419, Control_c, 6, 7, 50
9, 79444, Control_c, 6, 7, 49
9, 79468, Control_c, 6, 7, 48
9, 79492, Control_c, 6, 7, 47
9, 79516, Control_c, 6, 7, 46
9, 79542, Control_c, 6, 7, 45
9, 79566, Control_c, 6, 7, 44
9, 79590, Control_c, 6, 7, 43
9, 79614, Control_c, 6, 7, 42
9, 79638, Control_c, 6, 7, 41
9, 79664, Control_c, 6, 7, 40
9, 79688, Control_c, 6, 7, 39
9, 79712, Control_c, 6, 7, 38
9, 79736, Control_c, 6, 7, 37
9, 79761, Control_c, 6, 7, 36
9, 79785, Control_c, 6, 7, 35
9, 79809, Control_c, 6, 7, 34
9, 79833, Control_c, 6, 7, 33
9, 79857, Control_c, 6, 7, 32
9, 79883, Control_c, 6, 7, 31
9, 79907, Control_c, 6, 7, 30
9, 79931, Control_c, 6, 7, 29
9, 79955, Control_c, 6, 7, 28
9, 79980, Control_c, 6, 7, 27
9, 80004, Control_c, 6, 7, 26
9, 80028, Control_c, 6, 7, 25
9, 80052, Control_c, 6, 7, 24
9, 80076, Control_c, 6, 7, 23
9, 80102, Control_c, 6, 7, 22
9, 80126, Control_c, 6, 7, 21
9, 80150, Control_c, 6, 7, 20
9, 80174, Control_c, 6, 7, 19
9, 80200, Control_c, 6, 7, 18
9, 80224, Control_c, 6, 7, 17
9, 80248, Control_c, 6, 7, 16
9, 80272, Control_c, 6, 7, 15
9, 80296, Control_c, 6, 7, 14
9, 80321, Control_c, 6, 7, 13
9, 80345, Control_c, 6, 7, 12
9, 80369, Control_c, 6, 7, 11
9, 80393, Control_c, 6, 7, 10
9, 80419, Control_c, 6, 7, 9
9, 80443, Control_c, 6, 7, 8
9, 80467, Control_c, 6, 7, 7
9, 80491, Control_c, 6, 7, 6
9, 80515, Control_c, 6, 7, 5
9, 80540, Control_c, 6, 7, 4
9, 80564, Control_c, 6, 7, 3
9, 80588, Control_c, 6, 7, 2
9, 80612, Control_c, 6, 7, 1
9, 80638, Control_c, 6, 7, 0
9, 81134, Note_off_c, 6, 62, 64
9, 81168, Note_off_c, 6, 83, 64
9, 81188, Note_off_c, 6, 78, 64
9, 81188, End_track
10, 0, Start_track
10, 0, Title_t, "copyright-WADE"
10, 0, End_track
11, 0, Start_track
11, 0, Title_t, "MARSHALL"
11, 0, End_track
12, 0, Start_track
12, 0, Title_t, "AKA-MIDIMAN"
12, 0, End_track
13, 0, Start_track
13, 0, Title_t, "1998."
13, 0, End_track
14, 0, Start_track
14, 0, Title_t, "http://cust2.iamerica.net/davem/"
14, 0, End_track
15, 0, Start_track
15, 0, Title_t, "davem@iamerica.net"
15, 0, End_track
0, 0, End_of_file
