0, 0, Header, 1, 9, 480
1, 0, Start_track
1, 0, SMPTE_offset, 96, 0, 0, 0, 0
1, 0, Tempo, 1395348
1, 0, Time_signature, 4, 2, 24, 8
1, 0, Key_signature, 0, "major"
1, 96000, End_track
2, 0, Start_track
2, 0, Title_t, "I Am The Walrus"
2, 0, Program_c, 0, 48
2, 0, Control_c, 0, 91, 26
2, 0, Control_c, 0, 7, 84
2, 12, Control_c, 0, 100, 0
2, 12, Control_c, 0, 101, 0
2, 12, Control_c, 0, 93, 64
2, 24, Control_c, 0, 100, 0
2, 132, Control_c, 0, 6, 12
2, 240, Control_c, 0, 10, 127
2, 1874, Pitch_bend_c, 0, 6192
2, 1878, Pitch_bend_c, 0, 6252
2, 1881, Pitch_bend_c, 0, 6313
2, 1885, Pitch_bend_c, 0, 6416
2, 1888, Pitch_bend_c, 0, 6507
2, 1892, Pitch_bend_c, 0, 6652
2, 1894, Note_on_c, 0, 75, 117
2, 1895, Pitch_bend_c, 0, 6779
2, 1898, Pitch_bend_c, 0, 6919
2, 1902, Pitch_bend_c, 0, 7125
2, 1905, Pitch_bend_c, 0, 7294
2, 1909, Pitch_bend_c, 0, 7542
2, 1912, Pitch_bend_c, 0, 7743
2, 1916, Pitch_bend_c, 0, 8034
2, 1919, Pitch_bend_c, 0, 8270
2, 1920, Pitch_bend_c, 0, 8192
2, 2208, Control_c, 0, 5, 60
2, 2264, Control_c, 0, 65, 64
2, 2400, Note_on_c, 0, 73, 117
2, 2408, Note_off_c, 0, 75, 64
2, 2608, Note_off_c, 0, 73, 64
2, 2608, Note_on_c, 0, 78, 117
2, 2808, Control_c, 0, 5, 46
2, 2830, Note_off_c, 0, 78, 64
2, 2832, Note_on_c, 0, 71, 117
2, 2863, Control_c, 0, 5, 46
2, 3347, Note_off_c, 0, 71, 64
2, 3348, Note_on_c, 0, 69, 117
2, 3554, Control_c, 0, 5, 74
2, 3568, Note_off_c, 0, 69, 64
2, 3568, Note_on_c, 0, 74, 117
2, 3792, Note_off_c, 0, 74, 64
2, 3796, Note_on_c, 0, 71, 117
2, 4632, Note_off_c, 0, 71, 64
2, 4722, Control_c, 0, 5, 2
2, 4748, Note_on_c, 0, 73, 118
2, 4778, Note_off_c, 0, 73, 64
2, 4800, Note_on_c, 0, 74, 118
2, 5600, Control_c, 0, 5, 70
2, 5683, Note_off_c, 0, 74, 64
2, 5685, Note_on_c, 0, 69, 118
2, 6553, Note_off_c, 0, 69, 64
2, 6668, Note_on_c, 0, 71, 118
2, 6705, Note_off_c, 0, 71, 64
2, 6720, Note_on_c, 0, 72, 118
2, 7675, Note_off_c, 0, 72, 64
2, 47964, Control_c, 0, 5, 0
2, 47996, Control_c, 0, 7, 62
2, 48000, Note_on_c, 0, 69, 110
2, 48000, Note_on_c, 0, 63, 110
2, 48047, Note_off_c, 0, 69, 64
2, 48047, Note_off_c, 0, 63, 64
2, 48120, Note_on_c, 0, 69, 110
2, 48120, Note_on_c, 0, 63, 110
2, 48167, Note_off_c, 0, 69, 64
2, 48167, Note_off_c, 0, 63, 64
2, 48240, Note_on_c, 0, 69, 110
2, 48240, Note_on_c, 0, 63, 110
2, 48287, Note_off_c, 0, 69, 64
2, 48287, Note_off_c, 0, 63, 64
2, 48360, Note_on_c, 0, 69, 110
2, 48360, Note_on_c, 0, 63, 110
2, 48407, Note_off_c, 0, 69, 64
2, 48407, Note_off_c, 0, 63, 64
2, 48480, Note_on_c, 0, 69, 110
2, 48480, Note_on_c, 0, 63, 110
2, 48527, Note_off_c, 0, 69, 64
2, 48527, Note_off_c, 0, 63, 64
2, 48600, Note_on_c, 0, 69, 110
2, 48600, Note_on_c, 0, 63, 110
2, 48647, Note_off_c, 0, 69, 64
2, 48647, Note_off_c, 0, 63, 64
2, 48720, Note_on_c, 0, 69, 110
2, 48720, Note_on_c, 0, 63, 110
2, 48767, Note_off_c, 0, 69, 64
2, 48767, Note_off_c, 0, 63, 64
2, 48840, Note_on_c, 0, 69, 110
2, 48840, Note_on_c, 0, 63, 110
2, 48887, Note_off_c, 0, 69, 64
2, 48887, Note_off_c, 0, 63, 64
2, 48960, Note_on_c, 0, 69, 110
2, 48960, Note_on_c, 0, 63, 110
2, 49007, Note_off_c, 0, 69, 64
2, 49007, Note_off_c, 0, 63, 64
2, 49080, Note_on_c, 0, 69, 110
2, 49080, Note_on_c, 0, 63, 110
2, 49127, Note_off_c, 0, 69, 64
2, 49127, Note_off_c, 0, 63, 64
2, 49200, Note_on_c, 0, 69, 110
2, 49200, Note_on_c, 0, 63, 110
2, 49247, Note_off_c, 0, 69, 64
2, 49247, Note_off_c, 0, 63, 64
2, 49320, Note_on_c, 0, 69, 110
2, 49320, Note_on_c, 0, 63, 110
2, 49367, Note_off_c, 0, 69, 64
2, 49367, Note_off_c, 0, 63, 64
2, 49440, Note_on_c, 0, 69, 110
2, 49440, Note_on_c, 0, 63, 110
2, 49487, Note_off_c, 0, 69, 64
2, 49487, Note_off_c, 0, 63, 64
2, 49560, Note_on_c, 0, 69, 110
2, 49560, Note_on_c, 0, 63, 110
2, 49607, Note_off_c, 0, 69, 64
2, 49607, Note_off_c, 0, 63, 64
2, 49680, Note_on_c, 0, 69, 110
2, 49680, Note_on_c, 0, 63, 110
2, 49727, Note_off_c, 0, 69, 64
2, 49727, Note_off_c, 0, 63, 64
2, 49800, Note_on_c, 0, 69, 110
2, 49800, Note_on_c, 0, 63, 110
2, 49847, Note_off_c, 0, 69, 64
2, 49847, Note_off_c, 0, 63, 64
2, 49920, Note_on_c, 0, 70, 110
2, 49920, Note_on_c, 0, 64, 110
2, 49967, Note_off_c, 0, 70, 64
2, 49967, Note_off_c, 0, 64, 64
2, 50040, Note_on_c, 0, 70, 110
2, 50040, Note_on_c, 0, 64, 110
2, 50087, Note_off_c, 0, 70, 64
2, 50087, Note_off_c, 0, 64, 64
2, 50160, Note_on_c, 0, 70, 110
2, 50160, Note_on_c, 0, 64, 110
2, 50207, Note_off_c, 0, 70, 64
2, 50207, Note_off_c, 0, 64, 64
2, 50280, Note_on_c, 0, 70, 110
2, 50280, Note_on_c, 0, 64, 110
2, 50327, Note_off_c, 0, 70, 64
2, 50327, Note_off_c, 0, 64, 64
2, 50400, Note_on_c, 0, 70, 110
2, 50400, Note_on_c, 0, 64, 110
2, 50447, Note_off_c, 0, 70, 64
2, 50447, Note_off_c, 0, 64, 64
2, 50520, Note_on_c, 0, 70, 110
2, 50520, Note_on_c, 0, 64, 110
2, 50567, Note_off_c, 0, 70, 64
2, 50567, Note_off_c, 0, 64, 64
2, 50640, Note_on_c, 0, 70, 110
2, 50640, Note_on_c, 0, 64, 110
2, 50687, Note_off_c, 0, 70, 64
2, 50687, Note_off_c, 0, 64, 64
2, 50760, Note_on_c, 0, 70, 110
2, 50760, Note_on_c, 0, 64, 110
2, 50807, Note_off_c, 0, 70, 64
2, 50807, Note_off_c, 0, 64, 64
2, 50880, Note_on_c, 0, 69, 110
2, 50880, Note_on_c, 0, 66, 110
2, 50927, Note_off_c, 0, 69, 64
2, 50927, Note_off_c, 0, 66, 64
2, 51000, Note_on_c, 0, 69, 110
2, 51000, Note_on_c, 0, 66, 110
2, 51047, Note_off_c, 0, 69, 64
2, 51047, Note_off_c, 0, 66, 64
2, 51120, Note_on_c, 0, 69, 110
2, 51120, Note_on_c, 0, 66, 110
2, 51167, Note_off_c, 0, 69, 64
2, 51167, Note_off_c, 0, 66, 64
2, 51240, Note_on_c, 0, 69, 110
2, 51240, Note_on_c, 0, 66, 110
2, 51287, Note_off_c, 0, 69, 64
2, 51287, Note_off_c, 0, 66, 64
2, 51360, Note_on_c, 0, 69, 110
2, 51360, Note_on_c, 0, 66, 110
2, 51407, Note_off_c, 0, 69, 64
2, 51407, Note_off_c, 0, 66, 64
2, 51480, Note_on_c, 0, 69, 110
2, 51480, Note_on_c, 0, 66, 110
2, 51527, Note_off_c, 0, 69, 64
2, 51527, Note_off_c, 0, 66, 64
2, 51600, Note_on_c, 0, 69, 110
2, 51600, Note_on_c, 0, 66, 110
2, 51647, Note_off_c, 0, 69, 64
2, 51647, Note_off_c, 0, 66, 64
2, 51720, Note_on_c, 0, 69, 110
2, 51720, Note_on_c, 0, 66, 110
2, 51767, Note_off_c, 0, 69, 64
2, 51767, Note_off_c, 0, 66, 64
2, 51840, Note_on_c, 0, 71, 110
2, 51840, Note_on_c, 0, 68, 110
2, 51887, Note_off_c, 0, 71, 64
2, 51887, Note_off_c, 0, 68, 64
2, 51960, Note_on_c, 0, 71, 110
2, 51960, Note_on_c, 0, 68, 110
2, 52007, Note_off_c, 0, 71, 64
2, 52007, Note_off_c, 0, 68, 64
2, 52080, Note_on_c, 0, 71, 110
2, 52080, Note_on_c, 0, 68, 110
2, 52127, Note_off_c, 0, 71, 64
2, 52127, Note_off_c, 0, 68, 64
2, 52200, Note_on_c, 0, 71, 110
2, 52200, Note_on_c, 0, 68, 110
2, 52247, Note_off_c, 0, 71, 64
2, 52247, Note_off_c, 0, 68, 64
2, 52320, Note_on_c, 0, 71, 110
2, 52320, Note_on_c, 0, 68, 110
2, 52367, Note_off_c, 0, 71, 64
2, 52367, Note_off_c, 0, 68, 64
2, 52440, Note_on_c, 0, 71, 110
2, 52440, Note_on_c, 0, 68, 110
2, 52487, Note_off_c, 0, 71, 64
2, 52487, Note_off_c, 0, 68, 64
2, 52560, Note_on_c, 0, 71, 110
2, 52560, Note_on_c, 0, 68, 110
2, 52607, Note_off_c, 0, 71, 64
2, 52607, Note_off_c, 0, 68, 64
2, 52680, Note_on_c, 0, 71, 110
2, 52680, Note_on_c, 0, 68, 110
2, 52727, Note_off_c, 0, 71, 64
2, 52727, Note_off_c, 0, 68, 64
2, 52800, Note_on_c, 0, 69, 110
2, 52800, Note_on_c, 0, 66, 110
2, 52847, Note_off_c, 0, 69, 64
2, 52847, Note_off_c, 0, 66, 64
2, 52920, Note_on_c, 0, 69, 110
2, 52920, Note_on_c, 0, 66, 110
2, 52967, Note_off_c, 0, 69, 64
2, 52967, Note_off_c, 0, 66, 64
2, 53040, Note_on_c, 0, 69, 110
2, 53040, Note_on_c, 0, 66, 110
2, 53087, Note_off_c, 0, 69, 64
2, 53087, Note_off_c, 0, 66, 64
2, 53160, Note_on_c, 0, 69, 110
2, 53160, Note_on_c, 0, 66, 110
2, 53207, Note_off_c, 0, 69, 64
2, 53207, Note_off_c, 0, 66, 64
2, 53280, Note_on_c, 0, 69, 110
2, 53280, Note_on_c, 0, 66, 110
2, 53327, Note_off_c, 0, 69, 64
2, 53327, Note_off_c, 0, 66, 64
2, 53400, Note_on_c, 0, 69, 110
2, 53400, Note_on_c, 0, 66, 110
2, 53447, Note_off_c, 0, 69, 64
2, 53447, Note_off_c, 0, 66, 64
2, 53520, Note_on_c, 0, 69, 110
2, 53520, Note_on_c, 0, 66, 110
2, 53567, Note_off_c, 0, 69, 64
2, 53567, Note_off_c, 0, 66, 64
2, 53640, Note_on_c, 0, 69, 110
2, 53640, Note_on_c, 0, 66, 110
2, 53687, Note_off_c, 0, 69, 64
2, 53687, Note_off_c, 0, 66, 64
2, 59496, Control_c, 0, 7, 76
2, 59520, Note_on_c, 0, 69, 110
2, 59760, Note_on_c, 0, 64, 110
2, 59767, Note_off_c, 0, 69, 64
2, 59879, Note_off_c, 0, 64, 64
2, 59880, Note_on_c, 0, 66, 110
2, 59999, Note_off_c, 0, 66, 64
2, 60000, Note_on_c, 0, 69, 110
2, 60056, Control_c, 0, 65, 64
2, 60119, Note_off_c, 0, 69, 64
2, 60120, Note_on_c, 0, 72, 110
2, 60272, Control_c, 0, 65, 68
2, 60343, Note_off_c, 0, 72, 64
2, 60360, Note_on_c, 0, 69, 110
2, 60551, Control_c, 0, 65, 68
2, 60552, Control_c, 0, 65, 0
2, 60719, Note_off_c, 0, 69, 64
2, 60720, Note_on_c, 0, 64, 110
2, 60839, Note_off_c, 0, 64, 64
2, 60840, Note_on_c, 0, 66, 110
2, 60959, Note_off_c, 0, 66, 64
2, 60960, Note_on_c, 0, 69, 110
2, 61056, Control_c, 0, 65, 64
2, 61079, Note_off_c, 0, 69, 64
2, 61080, Note_on_c, 0, 72, 110
2, 61272, Control_c, 0, 65, 68
2, 61303, Note_off_c, 0, 72, 64
2, 61320, Note_on_c, 0, 69, 110
2, 61559, Control_c, 0, 65, 68
2, 61568, Control_c, 0, 65, 0
2, 61679, Note_off_c, 0, 69, 64
2, 61680, Note_on_c, 0, 64, 110
2, 61799, Note_off_c, 0, 64, 64
2, 61800, Note_on_c, 0, 66, 110
2, 61919, Note_off_c, 0, 66, 64
2, 61920, Note_on_c, 0, 69, 110
2, 62008, Control_c, 0, 65, 64
2, 62039, Note_off_c, 0, 69, 64
2, 62040, Note_on_c, 0, 72, 110
2, 62168, Control_c, 0, 65, 68
2, 62263, Note_off_c, 0, 72, 64
2, 62396, Control_c, 0, 7, 100
2, 62400, Note_on_c, 0, 74, 110
2, 62459, Note_off_c, 0, 74, 64
2, 62460, Note_on_c, 0, 72, 110
2, 62519, Note_off_c, 0, 72, 64
2, 62520, Note_on_c, 0, 74, 110
2, 62579, Note_off_c, 0, 74, 64
2, 62580, Note_on_c, 0, 72, 110
2, 62639, Note_off_c, 0, 72, 64
2, 62640, Note_on_c, 0, 74, 110
2, 62735, Note_off_c, 0, 74, 64
2, 62760, Note_on_c, 0, 72, 110
2, 62819, Note_off_c, 0, 72, 64
2, 62880, Note_on_c, 0, 74, 110
2, 62939, Note_off_c, 0, 74, 64
2, 62940, Note_on_c, 0, 72, 110
2, 62999, Note_off_c, 0, 72, 64
2, 63000, Note_on_c, 0, 74, 110
2, 63059, Note_off_c, 0, 74, 64
2, 63060, Note_on_c, 0, 72, 110
2, 63119, Note_off_c, 0, 72, 64
2, 63120, Note_on_c, 0, 74, 110
2, 63211, Note_off_c, 0, 74, 64
2, 63240, Note_on_c, 0, 72, 110
2, 63299, Note_off_c, 0, 72, 64
2, 63320, Control_c, 0, 7, 84
2, 63320, Note_on_c, 0, 75, 110
2, 63320, Note_on_c, 0, 71, 110
2, 63411, Note_off_c, 0, 75, 64
2, 63411, Note_off_c, 0, 71, 64
2, 63420, Note_on_c, 0, 73, 110
2, 63420, Note_on_c, 0, 69, 110
2, 63479, Note_off_c, 0, 73, 64
2, 63479, Note_off_c, 0, 69, 64
2, 63480, Note_on_c, 0, 75, 110
2, 63480, Note_on_c, 0, 71, 110
2, 63539, Note_off_c, 0, 75, 64
2, 63539, Note_off_c, 0, 71, 64
2, 63540, Note_on_c, 0, 73, 110
2, 63540, Note_on_c, 0, 69, 110
2, 63599, Note_off_c, 0, 73, 64
2, 63599, Note_off_c, 0, 69, 64
2, 63600, Note_on_c, 0, 75, 110
2, 63600, Note_on_c, 0, 71, 110
2, 63691, Note_off_c, 0, 75, 64
2, 63691, Note_off_c, 0, 71, 64
2, 63720, Note_on_c, 0, 73, 110
2, 63720, Note_on_c, 0, 69, 110
2, 63779, Note_off_c, 0, 73, 64
2, 63779, Note_off_c, 0, 69, 64
2, 63791, Note_on_c, 0, 75, 110
2, 63791, Note_on_c, 0, 71, 110
2, 63882, Note_off_c, 0, 75, 64
2, 63882, Note_off_c, 0, 71, 64
2, 63900, Note_on_c, 0, 73, 110
2, 63900, Note_on_c, 0, 69, 110
2, 63959, Note_off_c, 0, 73, 64
2, 63959, Note_off_c, 0, 69, 64
2, 63960, Note_on_c, 0, 75, 110
2, 63960, Note_on_c, 0, 71, 110
2, 64019, Note_off_c, 0, 75, 64
2, 64019, Note_off_c, 0, 71, 64
2, 64020, Note_on_c, 0, 73, 110
2, 64020, Note_on_c, 0, 69, 110
2, 64079, Note_off_c, 0, 73, 64
2, 64079, Note_off_c, 0, 69, 64
2, 64080, Note_on_c, 0, 75, 110
2, 64080, Note_on_c, 0, 71, 110
2, 64139, Note_off_c, 0, 75, 64
2, 64139, Note_off_c, 0, 71, 64
2, 64148, Note_on_c, 0, 73, 110
2, 64148, Note_on_c, 0, 69, 110
2, 64227, Note_off_c, 0, 73, 64
2, 64227, Note_off_c, 0, 69, 64
2, 64240, Note_on_c, 0, 69, 110
2, 64240, Note_on_c, 0, 66, 110
2, 64483, Note_off_c, 0, 69, 64
2, 64483, Note_off_c, 0, 66, 64
2, 65520, Note_on_c, 0, 67, 127
2, 65650, Pitch_bend_c, 0, 8188
2, 65653, Pitch_bend_c, 0, 8186
2, 65657, Pitch_bend_c, 0, 8182
2, 65660, Pitch_bend_c, 0, 8179
2, 65663, Pitch_bend_c, 0, 8176
2, 65667, Pitch_bend_c, 0, 8170
2, 65670, Pitch_bend_c, 0, 8165
2, 65674, Pitch_bend_c, 0, 8159
2, 65677, Pitch_bend_c, 0, 8153
2, 65681, Pitch_bend_c, 0, 8145
2, 65684, Pitch_bend_c, 0, 8138
2, 65688, Pitch_bend_c, 0, 8129
2, 65691, Pitch_bend_c, 0, 8122
2, 65694, Pitch_bend_c, 0, 8114
2, 65698, Pitch_bend_c, 0, 8102
2, 65701, Pitch_bend_c, 0, 8093
2, 65705, Pitch_bend_c, 0, 8081
2, 65708, Pitch_bend_c, 0, 8071
2, 65712, Pitch_bend_c, 0, 8057
2, 65715, Pitch_bend_c, 0, 8046
2, 65718, Pitch_bend_c, 0, 8035
2, 65722, Pitch_bend_c, 0, 8019
2, 65725, Pitch_bend_c, 0, 8007
2, 65729, Pitch_bend_c, 0, 7990
2, 65732, Pitch_bend_c, 0, 7976
2, 65736, Pitch_bend_c, 0, 7958
2, 65739, Pitch_bend_c, 0, 7944
2, 65743, Pitch_bend_c, 0, 7924
2, 65746, Pitch_bend_c, 0, 7909
2, 65749, Pitch_bend_c, 0, 7893
2, 65753, Pitch_bend_c, 0, 7872
2, 65756, Pitch_bend_c, 0, 7855
2, 65760, Pitch_bend_c, 0, 7832
2, 65763, Pitch_bend_c, 0, 7815
2, 65767, Pitch_bend_c, 0, 7791
2, 65770, Pitch_bend_c, 0, 7773
2, 65774, Pitch_bend_c, 0, 7747
2, 65777, Pitch_bend_c, 0, 7728
2, 65780, Pitch_bend_c, 0, 7707
2, 65784, Pitch_bend_c, 0, 7680
2, 65787, Pitch_bend_c, 0, 7659
2, 65791, Pitch_bend_c, 0, 7631
2, 65794, Pitch_bend_c, 0, 7608
2, 65798, Pitch_bend_c, 0, 7578
2, 65801, Pitch_bend_c, 0, 7556
2, 65804, Pitch_bend_c, 0, 7532
2, 65808, Pitch_bend_c, 0, 7500
2, 65811, Pitch_bend_c, 0, 7476
2, 65815, Pitch_bend_c, 0, 7443
2, 65818, Pitch_bend_c, 0, 7417
2, 65822, Pitch_bend_c, 0, 7383
2, 65825, Pitch_bend_c, 0, 7357
2, 65829, Pitch_bend_c, 0, 7321
2, 65832, Pitch_bend_c, 0, 7294
2, 65835, Pitch_bend_c, 0, 7266
2, 65839, Pitch_bend_c, 0, 7229
2, 65842, Pitch_bend_c, 0, 7200
2, 65846, Pitch_bend_c, 0, 7161
2, 65849, Pitch_bend_c, 0, 7131
2, 65853, Pitch_bend_c, 0, 7091
2, 65856, Pitch_bend_c, 0, 7060
2, 65860, Pitch_bend_c, 0, 7019
2, 65863, Pitch_bend_c, 0, 6988
2, 65866, Pitch_bend_c, 0, 6956
2, 65870, Pitch_bend_c, 0, 6912
2, 65873, Pitch_bend_c, 0, 6879
2, 65877, Pitch_bend_c, 0, 6834
2, 65880, Pitch_bend_c, 0, 6800
2, 65884, Pitch_bend_c, 0, 6754
2, 65887, Pitch_bend_c, 0, 6719
2, 65890, Pitch_bend_c, 0, 6684
2, 65894, Pitch_bend_c, 0, 6636
2, 65897, Pitch_bend_c, 0, 6600
2, 65901, Pitch_bend_c, 0, 6551
2, 65904, Pitch_bend_c, 0, 6513
2, 65908, Pitch_bend_c, 0, 6462
2, 65911, Pitch_bend_c, 0, 6424
2, 65915, Pitch_bend_c, 0, 6372
2, 65918, Pitch_bend_c, 0, 6333
2, 65921, Pitch_bend_c, 0, 6293
2, 65925, Pitch_bend_c, 0, 6240
2, 65928, Pitch_bend_c, 0, 6199
2, 65932, Pitch_bend_c, 0, 6144
2, 65935, Pitch_bend_c, 0, 6102
2, 65939, Pitch_bend_c, 0, 6046
2, 65942, Pitch_bend_c, 0, 6003
2, 65946, Pitch_bend_c, 0, 5945
2, 65949, Pitch_bend_c, 0, 5902
2, 65952, Pitch_bend_c, 0, 5858
2, 65956, Pitch_bend_c, 0, 5798
2, 65959, Pitch_bend_c, 0, 5753
2, 65963, Pitch_bend_c, 0, 5692
2, 65966, Pitch_bend_c, 0, 5646
2, 65970, Pitch_bend_c, 0, 5584
2, 65973, Pitch_bend_c, 0, 5537
2, 65976, Pitch_bend_c, 0, 5490
2, 65980, Pitch_bend_c, 0, 5426
2, 65983, Pitch_bend_c, 0, 5378
2, 65987, Pitch_bend_c, 0, 5312
2, 65990, Pitch_bend_c, 0, 5262
2, 65994, Pitch_bend_c, 0, 5196
2, 65997, Pitch_bend_c, 0, 5146
2, 66001, Pitch_bend_c, 0, 5078
2, 66004, Pitch_bend_c, 0, 5026
2, 66007, Pitch_bend_c, 0, 4975
2, 66011, Pitch_bend_c, 0, 4905
2, 66014, Pitch_bend_c, 0, 4852
2, 66018, Pitch_bend_c, 0, 4781
2, 66021, Pitch_bend_c, 0, 4727
2, 66025, Pitch_bend_c, 0, 4655
2, 66028, Pitch_bend_c, 0, 4600
2, 66032, Pitch_bend_c, 0, 4526
2, 66035, Pitch_bend_c, 0, 4470
2, 66038, Pitch_bend_c, 0, 4414
2, 66042, Pitch_bend_c, 0, 4338
2, 66045, Pitch_bend_c, 0, 4281
2, 66049, Pitch_bend_c, 0, 4205
2, 66052, Pitch_bend_c, 0, 4146
2, 66056, Pitch_bend_c, 0, 4068
2, 66059, Pitch_bend_c, 0, 4009
2, 66062, Pitch_bend_c, 0, 3950
2, 66066, Pitch_bend_c, 0, 3870
2, 66069, Pitch_bend_c, 0, 3809
2, 66073, Pitch_bend_c, 0, 3728
2, 66076, Pitch_bend_c, 0, 3666
2, 66080, Pitch_bend_c, 0, 3584
2, 66083, Pitch_bend_c, 0, 3521
2, 66087, Pitch_bend_c, 0, 3437
2, 66090, Pitch_bend_c, 0, 3374
2, 66093, Pitch_bend_c, 0, 3310
2, 66096, Pitch_bend_c, 0, 3328
2, 66133, Note_off_c, 0, 67, 64
2, 66408, Pitch_bend_c, 0, 8192
2, 66480, Note_on_c, 0, 69, 127
2, 66642, Pitch_bend_c, 0, 8187
2, 66645, Pitch_bend_c, 0, 8185
2, 66649, Pitch_bend_c, 0, 8181
2, 66652, Pitch_bend_c, 0, 8178
2, 66655, Pitch_bend_c, 0, 8175
2, 66659, Pitch_bend_c, 0, 8169
2, 66662, Pitch_bend_c, 0, 8164
2, 66666, Pitch_bend_c, 0, 8157
2, 66669, Pitch_bend_c, 0, 8151
2, 66673, Pitch_bend_c, 0, 8143
2, 66676, Pitch_bend_c, 0, 8136
2, 66680, Pitch_bend_c, 0, 8126
2, 66683, Pitch_bend_c, 0, 8119
2, 66686, Pitch_bend_c, 0, 8111
2, 66690, Pitch_bend_c, 0, 8099
2, 66693, Pitch_bend_c, 0, 8090
2, 66697, Pitch_bend_c, 0, 8077
2, 66700, Pitch_bend_c, 0, 8066
2, 66704, Pitch_bend_c, 0, 8052
2, 66707, Pitch_bend_c, 0, 8041
2, 66711, Pitch_bend_c, 0, 8025
2, 66714, Pitch_bend_c, 0, 8013
2, 66717, Pitch_bend_c, 0, 8000
2, 66721, Pitch_bend_c, 0, 7983
2, 66724, Pitch_bend_c, 0, 7969
2, 66728, Pitch_bend_c, 0, 7950
2, 66731, Pitch_bend_c, 0, 7935
2, 66735, Pitch_bend_c, 0, 7915
2, 66738, Pitch_bend_c, 0, 7899
2, 66741, Pitch_bend_c, 0, 7883
2, 66745, Pitch_bend_c, 0, 7861
2, 66748, Pitch_bend_c, 0, 7843
2, 66752, Pitch_bend_c, 0, 7819
2, 66755, Pitch_bend_c, 0, 7801
2, 66759, Pitch_bend_c, 0, 7777
2, 66762, Pitch_bend_c, 0, 7757
2, 66766, Pitch_bend_c, 0, 7731
2, 66769, Pitch_bend_c, 0, 7710
2, 66772, Pitch_bend_c, 0, 7689
2, 66776, Pitch_bend_c, 0, 7661
2, 66779, Pitch_bend_c, 0, 7639
2, 66783, Pitch_bend_c, 0, 7610
2, 66786, Pitch_bend_c, 0, 7587
2, 66790, Pitch_bend_c, 0, 7556
2, 66793, Pitch_bend_c, 0, 7532
2, 66797, Pitch_bend_c, 0, 7500
2, 66800, Pitch_bend_c, 0, 7475
2, 66803, Pitch_bend_c, 0, 7450
2, 66807, Pitch_bend_c, 0, 7416
2, 66810, Pitch_bend_c, 0, 7389
2, 66814, Pitch_bend_c, 0, 7353
2, 66817, Pitch_bend_c, 0, 7326
2, 66821, Pitch_bend_c, 0, 7289
2, 66824, Pitch_bend_c, 0, 7261
2, 66827, Pitch_bend_c, 0, 7232
2, 66831, Pitch_bend_c, 0, 7193
2, 66834, Pitch_bend_c, 0, 7163
2, 66838, Pitch_bend_c, 0, 7123
2, 66841, Pitch_bend_c, 0, 7093
2, 66845, Pitch_bend_c, 0, 7051
2, 66848, Pitch_bend_c, 0, 7019
2, 66852, Pitch_bend_c, 0, 6976
2, 66855, Pitch_bend_c, 0, 6943
2, 66858, Pitch_bend_c, 0, 6910
2, 66862, Pitch_bend_c, 0, 6865
2, 66865, Pitch_bend_c, 0, 6831
2, 66869, Pitch_bend_c, 0, 6784
2, 66872, Pitch_bend_c, 0, 6749
2, 66876, Pitch_bend_c, 0, 6701
2, 66879, Pitch_bend_c, 0, 6665
2, 66883, Pitch_bend_c, 0, 6616
2, 66886, Pitch_bend_c, 0, 6579
2, 66889, Pitch_bend_c, 0, 6542
2, 66893, Pitch_bend_c, 0, 6491
2, 66896, Pitch_bend_c, 0, 6452
2, 66900, Pitch_bend_c, 0, 6399
2, 66903, Pitch_bend_c, 0, 6360
2, 66907, Pitch_bend_c, 0, 6306
2, 66910, Pitch_bend_c, 0, 6265
2, 66913, Pitch_bend_c, 0, 6224
2, 66917, Pitch_bend_c, 0, 6168
2, 66920, Pitch_bend_c, 0, 6126
2, 66924, Pitch_bend_c, 0, 6069
2, 66927, Pitch_bend_c, 0, 6026
2, 66931, Pitch_bend_c, 0, 5967
2, 66934, Pitch_bend_c, 0, 5923
2, 66938, Pitch_bend_c, 0, 5863
2, 66941, Pitch_bend_c, 0, 5818
2, 66944, Pitch_bend_c, 0, 5772
2, 66948, Pitch_bend_c, 0, 5710
2, 66951, Pitch_bend_c, 0, 5664
2, 66955, Pitch_bend_c, 0, 5601
2, 66958, Pitch_bend_c, 0, 5553
2, 66962, Pitch_bend_c, 0, 5489
2, 66965, Pitch_bend_c, 0, 5440
2, 66969, Pitch_bend_c, 0, 5375
2, 66972, Pitch_bend_c, 0, 5324
2, 66975, Pitch_bend_c, 0, 5274
2, 66979, Pitch_bend_c, 0, 5206
2, 66982, Pitch_bend_c, 0, 5155
2, 66986, Pitch_bend_c, 0, 5086
2, 66989, Pitch_bend_c, 0, 5034
2, 66993, Pitch_bend_c, 0, 4964
2, 66996, Pitch_bend_c, 0, 4910
2, 66999, Pitch_bend_c, 0, 4857
2, 67003, Pitch_bend_c, 0, 4785
2, 67006, Pitch_bend_c, 0, 4730
2, 67010, Pitch_bend_c, 0, 4656
2, 67013, Pitch_bend_c, 0, 4600
2, 67017, Pitch_bend_c, 0, 4525
2, 67020, Pitch_bend_c, 0, 4468
2, 67024, Pitch_bend_c, 0, 4392
2, 67027, Pitch_bend_c, 0, 4334
2, 67030, Pitch_bend_c, 0, 4276
2, 67034, Pitch_bend_c, 0, 4198
2, 67037, Pitch_bend_c, 0, 4139
2, 67041, Pitch_bend_c, 0, 4059
2, 67044, Pitch_bend_c, 0, 3999
2, 67048, Pitch_bend_c, 0, 3918
2, 67051, Pitch_bend_c, 0, 3857
2, 67055, Pitch_bend_c, 0, 3774
2, 67058, Pitch_bend_c, 0, 3712
2, 67061, Pitch_bend_c, 0, 3649
2, 67065, Pitch_bend_c, 0, 3565
2, 67068, Pitch_bend_c, 0, 3501
2, 67072, Pitch_bend_c, 0, 3415
2, 67075, Pitch_bend_c, 0, 3350
2, 67079, Pitch_bend_c, 0, 3263
2, 67080, Pitch_bend_c, 0, 3328
2, 67093, Note_off_c, 0, 69, 64
2, 67440, Note_on_c, 0, 71, 127
2, 67472, Pitch_bend_c, 0, 8192
2, 67681, Pitch_bend_c, 0, 8186
2, 67684, Pitch_bend_c, 0, 8171
2, 67687, Pitch_bend_c, 0, 8156
2, 67691, Pitch_bend_c, 0, 8136
2, 67694, Pitch_bend_c, 0, 8121
2, 67698, Pitch_bend_c, 0, 8101
2, 67701, Pitch_bend_c, 0, 8086
2, 67705, Pitch_bend_c, 0, 8066
2, 67708, Pitch_bend_c, 0, 8051
2, 67712, Pitch_bend_c, 0, 8031
2, 67715, Pitch_bend_c, 0, 8015
2, 67718, Pitch_bend_c, 0, 8000
2, 67722, Pitch_bend_c, 0, 7980
2, 67725, Pitch_bend_c, 0, 7965
2, 67729, Pitch_bend_c, 0, 7945
2, 67732, Pitch_bend_c, 0, 7930
2, 67736, Pitch_bend_c, 0, 7910
2, 67739, Pitch_bend_c, 0, 7895
2, 67743, Pitch_bend_c, 0, 7875
2, 67746, Pitch_bend_c, 0, 7859
2, 67749, Pitch_bend_c, 0, 7844
2, 67753, Pitch_bend_c, 0, 7824
2, 67756, Pitch_bend_c, 0, 7809
2, 67760, Pitch_bend_c, 0, 7789
2, 67763, Pitch_bend_c, 0, 7774
2, 67767, Pitch_bend_c, 0, 7754
2, 67770, Pitch_bend_c, 0, 7739
2, 67774, Pitch_bend_c, 0, 7719
2, 67777, Pitch_bend_c, 0, 7703
2, 67781, Pitch_bend_c, 0, 7683
2, 67784, Pitch_bend_c, 0, 7668
2, 67787, Pitch_bend_c, 0, 7653
2, 67791, Pitch_bend_c, 0, 7633
2, 67794, Pitch_bend_c, 0, 7618
2, 67798, Pitch_bend_c, 0, 7598
2, 67801, Pitch_bend_c, 0, 7583
2, 67805, Pitch_bend_c, 0, 7563
2, 67808, Pitch_bend_c, 0, 7548
2, 67812, Pitch_bend_c, 0, 7527
2, 67815, Pitch_bend_c, 0, 7512
2, 67818, Pitch_bend_c, 0, 7497
2, 67822, Pitch_bend_c, 0, 7477
2, 67825, Pitch_bend_c, 0, 7462
2, 67829, Pitch_bend_c, 0, 7442
2, 67832, Pitch_bend_c, 0, 7427
2, 67836, Pitch_bend_c, 0, 7407
2, 67839, Pitch_bend_c, 0, 7392
2, 67843, Pitch_bend_c, 0, 7371
2, 67846, Pitch_bend_c, 0, 7356
2, 67849, Pitch_bend_c, 0, 7341
2, 67853, Pitch_bend_c, 0, 7321
2, 67856, Pitch_bend_c, 0, 7306
2, 67860, Pitch_bend_c, 0, 7286
2, 67863, Pitch_bend_c, 0, 7271
2, 67867, Pitch_bend_c, 0, 7251
2, 67870, Pitch_bend_c, 0, 7236
2, 67874, Pitch_bend_c, 0, 7215
2, 67877, Pitch_bend_c, 0, 7200
2, 67880, Pitch_bend_c, 0, 7185
2, 67884, Pitch_bend_c, 0, 7165
2, 67887, Pitch_bend_c, 0, 7150
2, 67891, Pitch_bend_c, 0, 7130
2, 67894, Pitch_bend_c, 0, 7115
2, 67898, Pitch_bend_c, 0, 7095
2, 67901, Pitch_bend_c, 0, 7080
2, 67905, Pitch_bend_c, 0, 7059
2, 67908, Pitch_bend_c, 0, 7044
2, 67911, Pitch_bend_c, 0, 7029
2, 67915, Pitch_bend_c, 0, 7009
2, 67918, Pitch_bend_c, 0, 6994
2, 67922, Pitch_bend_c, 0, 6974
2, 67925, Pitch_bend_c, 0, 6959
2, 67929, Pitch_bend_c, 0, 6939
2, 67932, Pitch_bend_c, 0, 6924
2, 67936, Pitch_bend_c, 0, 6904
2, 67939, Pitch_bend_c, 0, 6888
2, 67942, Pitch_bend_c, 0, 6873
2, 67946, Pitch_bend_c, 0, 6853
2, 67949, Pitch_bend_c, 0, 6838
2, 67953, Pitch_bend_c, 0, 6818
2, 67956, Pitch_bend_c, 0, 6803
2, 67960, Pitch_bend_c, 0, 6783
2, 67963, Pitch_bend_c, 0, 6768
2, 67967, Pitch_bend_c, 0, 6748
2, 67970, Pitch_bend_c, 0, 6732
2, 67973, Pitch_bend_c, 0, 6717
2, 67977, Pitch_bend_c, 0, 6697
2, 67980, Pitch_bend_c, 0, 6682
2, 67984, Pitch_bend_c, 0, 6662
2, 67987, Pitch_bend_c, 0, 6647
2, 67991, Pitch_bend_c, 0, 6627
2, 67994, Pitch_bend_c, 0, 6612
2, 67998, Pitch_bend_c, 0, 6592
2, 68001, Pitch_bend_c, 0, 6576
2, 68004, Pitch_bend_c, 0, 6561
2, 68008, Pitch_bend_c, 0, 6541
2, 68011, Pitch_bend_c, 0, 6526
2, 68015, Pitch_bend_c, 0, 6506
2, 68018, Pitch_bend_c, 0, 6491
2, 68022, Pitch_bend_c, 0, 6471
2, 68025, Pitch_bend_c, 0, 6456
2, 68029, Pitch_bend_c, 0, 6436
2, 68032, Pitch_bend_c, 0, 6421
2, 68035, Pitch_bend_c, 0, 6405
2, 68039, Pitch_bend_c, 0, 6385
2, 68042, Pitch_bend_c, 0, 6370
2, 68046, Pitch_bend_c, 0, 6350
2, 68049, Pitch_bend_c, 0, 6335
2, 68053, Pitch_bend_c, 0, 6315
2, 68056, Pitch_bend_c, 0, 6300
2, 68060, Pitch_bend_c, 0, 6280
2, 68063, Pitch_bend_c, 0, 6265
2, 68066, Pitch_bend_c, 0, 6249
2, 68070, Pitch_bend_c, 0, 6229
2, 68073, Pitch_bend_c, 0, 6214
2, 68077, Pitch_bend_c, 0, 6194
2, 68080, Pitch_bend_c, 0, 6179
2, 68084, Pitch_bend_c, 0, 6159
2, 68087, Pitch_bend_c, 0, 6144
2, 68091, Pitch_bend_c, 0, 6124
2, 68094, Pitch_bend_c, 0, 6109
2, 68097, Pitch_bend_c, 0, 6093
2, 68101, Pitch_bend_c, 0, 6073
2, 68104, Pitch_bend_c, 0, 6058
2, 68108, Pitch_bend_c, 0, 6038
2, 68111, Pitch_bend_c, 0, 6023
2, 68115, Pitch_bend_c, 0, 6003
2, 68118, Pitch_bend_c, 0, 5988
2, 68122, Pitch_bend_c, 0, 5968
2, 68125, Pitch_bend_c, 0, 5953
2, 68128, Pitch_bend_c, 0, 5938
2, 68132, Pitch_bend_c, 0, 5917
2, 68135, Pitch_bend_c, 0, 5902
2, 68139, Pitch_bend_c, 0, 5882
2, 68142, Pitch_bend_c, 0, 5867
2, 68146, Pitch_bend_c, 0, 5847
2, 68149, Pitch_bend_c, 0, 5832
2, 68153, Pitch_bend_c, 0, 5812
2, 68156, Pitch_bend_c, 0, 5797
2, 68159, Pitch_bend_c, 0, 5782
2, 68163, Pitch_bend_c, 0, 5761
2, 68166, Pitch_bend_c, 0, 5746
2, 68170, Pitch_bend_c, 0, 5726
2, 68173, Pitch_bend_c, 0, 5711
2, 68177, Pitch_bend_c, 0, 5691
2, 68180, Pitch_bend_c, 0, 5676
2, 68184, Pitch_bend_c, 0, 5656
2, 68187, Pitch_bend_c, 0, 5641
2, 68190, Pitch_bend_c, 0, 5626
2, 68194, Pitch_bend_c, 0, 5605
2, 68197, Pitch_bend_c, 0, 5590
2, 68201, Pitch_bend_c, 0, 5570
2, 68204, Pitch_bend_c, 0, 5555
2, 68208, Pitch_bend_c, 0, 5535
2, 68211, Pitch_bend_c, 0, 5520
2, 68215, Pitch_bend_c, 0, 5500
2, 68218, Pitch_bend_c, 0, 5485
2, 68222, Pitch_bend_c, 0, 5465
2, 68225, Pitch_bend_c, 0, 5449
2, 68228, Pitch_bend_c, 0, 5434
2, 68232, Pitch_bend_c, 0, 5414
2, 68235, Pitch_bend_c, 0, 5399
2, 68239, Pitch_bend_c, 0, 5379
2, 68242, Pitch_bend_c, 0, 5364
2, 68246, Pitch_bend_c, 0, 5344
2, 68249, Pitch_bend_c, 0, 5329
2, 68253, Pitch_bend_c, 0, 5309
2, 68256, Pitch_bend_c, 0, 5294
2, 68259, Pitch_bend_c, 0, 5278
2, 68263, Pitch_bend_c, 0, 5258
2, 68266, Pitch_bend_c, 0, 5243
2, 68270, Pitch_bend_c, 0, 5223
2, 68273, Pitch_bend_c, 0, 5208
2, 68277, Pitch_bend_c, 0, 5188
2, 68280, Pitch_bend_c, 0, 5173
2, 68284, Pitch_bend_c, 0, 5153
2, 68287, Pitch_bend_c, 0, 5138
2, 68290, Pitch_bend_c, 0, 5122
2, 68294, Pitch_bend_c, 0, 5102
2, 68297, Pitch_bend_c, 0, 5087
2, 68301, Pitch_bend_c, 0, 5067
2, 68304, Pitch_bend_c, 0, 5052
2, 68308, Pitch_bend_c, 0, 5032
2, 68311, Pitch_bend_c, 0, 5017
2, 68315, Pitch_bend_c, 0, 4997
2, 68318, Pitch_bend_c, 0, 4982
2, 68321, Pitch_bend_c, 0, 4966
2, 68325, Pitch_bend_c, 0, 4946
2, 68328, Pitch_bend_c, 0, 4931
2, 68332, Pitch_bend_c, 0, 4911
2, 68335, Pitch_bend_c, 0, 4896
2, 68339, Pitch_bend_c, 0, 4876
2, 68342, Pitch_bend_c, 0, 4861
2, 68346, Pitch_bend_c, 0, 4841
2, 68349, Pitch_bend_c, 0, 4826
2, 68352, Pitch_bend_c, 0, 4811
2, 68356, Pitch_bend_c, 0, 4790
2, 68359, Pitch_bend_c, 0, 4775
2, 68363, Pitch_bend_c, 0, 4755
2, 68366, Pitch_bend_c, 0, 4740
2, 68370, Pitch_bend_c, 0, 4720
2, 68373, Pitch_bend_c, 0, 4705
2, 68377, Pitch_bend_c, 0, 4685
2, 68380, Pitch_bend_c, 0, 4670
2, 68383, Pitch_bend_c, 0, 4655
2, 68387, Pitch_bend_c, 0, 4634
2, 68390, Pitch_bend_c, 0, 4619
2, 68394, Pitch_bend_c, 0, 4599
2, 68397, Pitch_bend_c, 0, 4584
2, 68401, Pitch_bend_c, 0, 4564
2, 68404, Pitch_bend_c, 0, 4549
2, 68408, Pitch_bend_c, 0, 4529
2, 68411, Pitch_bend_c, 0, 4514
2, 68414, Pitch_bend_c, 0, 4499
2, 68418, Pitch_bend_c, 0, 4478
2, 68421, Pitch_bend_c, 0, 4463
2, 68425, Pitch_bend_c, 0, 4443
2, 68428, Pitch_bend_c, 0, 4428
2, 68432, Pitch_bend_c, 0, 4408
2, 68435, Pitch_bend_c, 0, 4393
2, 68439, Pitch_bend_c, 0, 4373
2, 68442, Pitch_bend_c, 0, 4358
2, 68445, Pitch_bend_c, 0, 4343
2, 68449, Pitch_bend_c, 0, 4322
2, 68452, Pitch_bend_c, 0, 4307
2, 68456, Pitch_bend_c, 0, 4287
2, 68459, Pitch_bend_c, 0, 4272
2, 68463, Pitch_bend_c, 0, 4252
2, 68466, Pitch_bend_c, 0, 4237
2, 68470, Pitch_bend_c, 0, 4217
2, 68473, Pitch_bend_c, 0, 4202
2, 68476, Pitch_bend_c, 0, 4187
2, 68480, Pitch_bend_c, 0, 4167
2, 68483, Pitch_bend_c, 0, 4151
2, 68487, Pitch_bend_c, 0, 4131
2, 68490, Pitch_bend_c, 0, 4116
2, 68494, Pitch_bend_c, 0, 4096
2, 68497, Pitch_bend_c, 0, 4081
2, 68501, Pitch_bend_c, 0, 4061
2, 68504, Pitch_bend_c, 0, 4046
2, 68507, Pitch_bend_c, 0, 4031
2, 68511, Pitch_bend_c, 0, 4011
2, 68514, Pitch_bend_c, 0, 3995
2, 68518, Pitch_bend_c, 0, 3975
2, 68521, Pitch_bend_c, 0, 3960
2, 68525, Pitch_bend_c, 0, 3940
2, 68528, Pitch_bend_c, 0, 3925
2, 68532, Pitch_bend_c, 0, 3905
2, 68535, Pitch_bend_c, 0, 3890
2, 68538, Pitch_bend_c, 0, 3875
2, 68542, Pitch_bend_c, 0, 3855
2, 68545, Pitch_bend_c, 0, 3839
2, 68549, Pitch_bend_c, 0, 3819
2, 68552, Pitch_bend_c, 0, 3804
2, 68556, Pitch_bend_c, 0, 3784
2, 68559, Pitch_bend_c, 0, 3769
2, 68563, Pitch_bend_c, 0, 3749
2, 68566, Pitch_bend_c, 0, 3734
2, 68569, Pitch_bend_c, 0, 3719
2, 68573, Pitch_bend_c, 0, 3699
2, 68576, Pitch_bend_c, 0, 3684
2, 68580, Pitch_bend_c, 0, 3663
2, 68583, Pitch_bend_c, 0, 3648
2, 68587, Pitch_bend_c, 0, 3628
2, 68590, Pitch_bend_c, 0, 3613
2, 68594, Pitch_bend_c, 0, 3593
2, 68597, Pitch_bend_c, 0, 3578
2, 68600, Pitch_bend_c, 0, 3563
2, 68604, Pitch_bend_c, 0, 3543
2, 68607, Pitch_bend_c, 0, 3528
2, 68611, Pitch_bend_c, 0, 3507
2, 68614, Pitch_bend_c, 0, 3492
2, 68618, Pitch_bend_c, 0, 3472
2, 68621, Pitch_bend_c, 0, 3457
2, 68625, Pitch_bend_c, 0, 3437
2, 68628, Pitch_bend_c, 0, 3422
2, 68631, Pitch_bend_c, 0, 3407
2, 68635, Pitch_bend_c, 0, 3387
2, 68638, Pitch_bend_c, 0, 3372
2, 68642, Pitch_bend_c, 0, 3351
2, 68645, Pitch_bend_c, 0, 3336
2, 68649, Pitch_bend_c, 0, 3316
2, 68652, Pitch_bend_c, 0, 3301
2, 68656, Pitch_bend_c, 0, 3281
2, 68659, Pitch_bend_c, 0, 3266
2, 68663, Pitch_bend_c, 0, 3246
2, 68666, Pitch_bend_c, 0, 3231
2, 68669, Pitch_bend_c, 0, 3216
2, 68673, Pitch_bend_c, 0, 3195
2, 68676, Pitch_bend_c, 0, 3180
2, 68680, Pitch_bend_c, 0, 3160
2, 68683, Pitch_bend_c, 0, 3145
2, 68687, Pitch_bend_c, 0, 3125
2, 68690, Pitch_bend_c, 0, 3110
2, 68694, Pitch_bend_c, 0, 3090
2, 68697, Pitch_bend_c, 0, 3075
2, 68700, Pitch_bend_c, 0, 3060
2, 68704, Pitch_bend_c, 0, 3040
2, 68707, Pitch_bend_c, 0, 3024
2, 68711, Pitch_bend_c, 0, 3004
2, 68714, Pitch_bend_c, 0, 2989
2, 68718, Pitch_bend_c, 0, 2969
2, 68721, Pitch_bend_c, 0, 2954
2, 68725, Pitch_bend_c, 0, 2934
2, 68728, Pitch_bend_c, 0, 2919
2, 68731, Pitch_bend_c, 0, 2904
2, 68735, Pitch_bend_c, 0, 2884
2, 68738, Pitch_bend_c, 0, 2868
2, 68742, Pitch_bend_c, 0, 2848
2, 68745, Pitch_bend_c, 0, 2833
2, 68749, Pitch_bend_c, 0, 2813
2, 68752, Pitch_bend_c, 0, 2798
2, 68756, Pitch_bend_c, 0, 2778
2, 68759, Pitch_bend_c, 0, 2763
2, 68762, Pitch_bend_c, 0, 2748
2, 68766, Pitch_bend_c, 0, 2728
2, 68769, Pitch_bend_c, 0, 2712
2, 68773, Pitch_bend_c, 0, 2692
2, 68776, Pitch_bend_c, 0, 2677
2, 68780, Pitch_bend_c, 0, 2657
2, 68783, Pitch_bend_c, 0, 2642
2, 68787, Pitch_bend_c, 0, 2622
2, 68790, Pitch_bend_c, 0, 2607
2, 68793, Pitch_bend_c, 0, 2592
2, 68797, Pitch_bend_c, 0, 2572
2, 68800, Pitch_bend_c, 0, 2557
2, 68804, Pitch_bend_c, 0, 2536
2, 68807, Pitch_bend_c, 0, 2521
2, 68811, Pitch_bend_c, 0, 2501
2, 68814, Pitch_bend_c, 0, 2486
2, 68818, Pitch_bend_c, 0, 2466
2, 68821, Pitch_bend_c, 0, 2451
2, 68824, Pitch_bend_c, 0, 2436
2, 68828, Pitch_bend_c, 0, 2416
2, 68831, Pitch_bend_c, 0, 2401
2, 68835, Pitch_bend_c, 0, 2380
2, 68838, Pitch_bend_c, 0, 2365
2, 68842, Pitch_bend_c, 0, 2345
2, 68845, Pitch_bend_c, 0, 2330
2, 68849, Pitch_bend_c, 0, 2310
2, 68852, Pitch_bend_c, 0, 2295
2, 68855, Pitch_bend_c, 0, 2280
2, 68859, Pitch_bend_c, 0, 2260
2, 68862, Pitch_bend_c, 0, 2245
2, 68866, Pitch_bend_c, 0, 2224
2, 68869, Pitch_bend_c, 0, 2209
2, 68873, Pitch_bend_c, 0, 2189
2, 68876, Pitch_bend_c, 0, 2174
2, 68880, Pitch_bend_c, 0, 2154
2, 68883, Pitch_bend_c, 0, 2139
2, 68886, Pitch_bend_c, 0, 2124
2, 68890, Pitch_bend_c, 0, 2104
2, 68893, Pitch_bend_c, 0, 2089
2, 68897, Pitch_bend_c, 0, 2068
2, 68900, Pitch_bend_c, 0, 2053
2, 68904, Pitch_bend_c, 0, 2033
2, 68907, Pitch_bend_c, 0, 2018
2, 68911, Pitch_bend_c, 0, 1998
2, 68914, Pitch_bend_c, 0, 1983
2, 68917, Pitch_bend_c, 0, 1968
2, 68921, Pitch_bend_c, 0, 1948
2, 68924, Pitch_bend_c, 0, 1933
2, 68928, Pitch_bend_c, 0, 1913
2, 68931, Pitch_bend_c, 0, 1897
2, 68935, Pitch_bend_c, 0, 1877
2, 68938, Pitch_bend_c, 0, 1862
2, 68942, Pitch_bend_c, 0, 1842
2, 68945, Pitch_bend_c, 0, 1827
2, 68948, Pitch_bend_c, 0, 1812
2, 68952, Pitch_bend_c, 0, 1792
2, 68955, Pitch_bend_c, 0, 1777
2, 68959, Pitch_bend_c, 0, 1757
2, 68962, Pitch_bend_c, 0, 1741
2, 68966, Pitch_bend_c, 0, 1721
2, 68969, Pitch_bend_c, 0, 1706
2, 68973, Pitch_bend_c, 0, 1686
2, 68976, Pitch_bend_c, 0, 1671
2, 68979, Pitch_bend_c, 0, 1656
2, 68983, Pitch_bend_c, 0, 1636
2, 68986, Pitch_bend_c, 0, 1621
2, 68990, Pitch_bend_c, 0, 1601
2, 68993, Pitch_bend_c, 0, 1585
2, 68997, Pitch_bend_c, 0, 1565
2, 69000, Pitch_bend_c, 0, 1550
2, 69004, Pitch_bend_c, 0, 1530
2, 69007, Pitch_bend_c, 0, 1515
2, 69010, Pitch_bend_c, 0, 1500
2, 69014, Pitch_bend_c, 0, 1480
2, 69017, Pitch_bend_c, 0, 1465
2, 69021, Pitch_bend_c, 0, 1445
2, 69024, Pitch_bend_c, 0, 1430
2, 69028, Pitch_bend_c, 0, 1409
2, 69031, Pitch_bend_c, 0, 1394
2, 69035, Pitch_bend_c, 0, 1374
2, 69038, Pitch_bend_c, 0, 1359
2, 69041, Pitch_bend_c, 0, 1344
2, 69045, Pitch_bend_c, 0, 1324
2, 69048, Pitch_bend_c, 0, 1309
2, 69052, Pitch_bend_c, 0, 1289
2, 69055, Pitch_bend_c, 0, 1274
2, 69059, Pitch_bend_c, 0, 1253
2, 69062, Pitch_bend_c, 0, 1238
2, 69066, Pitch_bend_c, 0, 1218
2, 69069, Pitch_bend_c, 0, 1203
2, 69072, Pitch_bend_c, 0, 1188
2, 69076, Pitch_bend_c, 0, 1168
2, 69079, Pitch_bend_c, 0, 1153
2, 69083, Pitch_bend_c, 0, 1133
2, 69086, Pitch_bend_c, 0, 1118
2, 69090, Pitch_bend_c, 0, 1097
2, 69093, Pitch_bend_c, 0, 1082
2, 69097, Pitch_bend_c, 0, 1062
2, 69100, Pitch_bend_c, 0, 1047
2, 69103, Pitch_bend_c, 0, 1024
2, 69105, Pitch_bend_c, 0, 771
2, 69109, Pitch_bend_c, 0, 786
2, 69112, Pitch_bend_c, 0, 797
2, 69116, Pitch_bend_c, 0, 812
2, 69119, Pitch_bend_c, 0, 823
2, 69122, Pitch_bend_c, 0, 834
2, 69126, Pitch_bend_c, 0, 848
2, 69129, Pitch_bend_c, 0, 859
2, 69133, Pitch_bend_c, 0, 874
2, 69136, Pitch_bend_c, 0, 512
2, 69140, Pitch_bend_c, 0, 525
2, 69143, Pitch_bend_c, 0, 535
2, 69147, Pitch_bend_c, 0, 548
2, 69150, Pitch_bend_c, 0, 559
2, 69154, Pitch_bend_c, 0, 572
2, 69157, Pitch_bend_c, 0, 582
2, 69160, Pitch_bend_c, 0, 592
2, 69164, Pitch_bend_c, 0, 606
2, 69167, Pitch_bend_c, 0, 616
2, 69171, Pitch_bend_c, 0, 629
2, 69174, Pitch_bend_c, 0, 639
2, 69178, Pitch_bend_c, 0, 653
2, 69181, Pitch_bend_c, 0, 663
2, 69185, Pitch_bend_c, 0, 676
2, 69188, Pitch_bend_c, 0, 686
2, 69191, Pitch_bend_c, 0, 696
2, 69195, Pitch_bend_c, 0, 710
2, 69198, Pitch_bend_c, 0, 720
2, 69202, Pitch_bend_c, 0, 733
2, 69205, Pitch_bend_c, 0, 743
2, 69209, Pitch_bend_c, 0, 757
2, 69212, Pitch_bend_c, 0, 767
2, 69216, Pitch_bend_c, 0, 780
2, 69219, Pitch_bend_c, 0, 790
2, 69222, Pitch_bend_c, 0, 800
2, 69226, Pitch_bend_c, 0, 814
2, 69229, Pitch_bend_c, 0, 824
2, 69233, Pitch_bend_c, 0, 837
2, 69236, Pitch_bend_c, 0, 847
2, 69240, Pitch_bend_c, 0, 861
2, 69243, Pitch_bend_c, 0, 871
2, 69247, Pitch_bend_c, 0, 884
2, 69250, Pitch_bend_c, 0, 894
2, 69253, Pitch_bend_c, 0, 905
2, 69257, Pitch_bend_c, 0, 918
2, 69260, Pitch_bend_c, 0, 928
2, 69264, Pitch_bend_c, 0, 942
2, 69267, Pitch_bend_c, 0, 952
2, 69271, Pitch_bend_c, 0, 965
2, 69274, Pitch_bend_c, 0, 975
2, 69278, Pitch_bend_c, 0, 989
2, 69281, Pitch_bend_c, 0, 999
2, 69284, Pitch_bend_c, 0, 1009
2, 69288, Pitch_bend_c, 0, 1022
2, 69291, Pitch_bend_c, 0, 1032
2, 69295, Pitch_bend_c, 0, 1046
2, 69298, Pitch_bend_c, 0, 1056
2, 69302, Pitch_bend_c, 0, 1069
2, 69305, Pitch_bend_c, 0, 1079
2, 69308, Pitch_bend_c, 0, 1089
2, 69312, Pitch_bend_c, 0, 1103
2, 69315, Pitch_bend_c, 0, 1113
2, 69319, Pitch_bend_c, 0, 1126
2, 69322, Pitch_bend_c, 0, 1136
2, 69326, Pitch_bend_c, 0, 1150
2, 69329, Pitch_bend_c, 0, 1160
2, 69333, Pitch_bend_c, 0, 1173
2, 69336, Pitch_bend_c, 0, 1183
2, 69339, Pitch_bend_c, 0, 1193
2, 69343, Pitch_bend_c, 0, 1207
2, 69346, Pitch_bend_c, 0, 1217
2, 69350, Pitch_bend_c, 0, 1230
2, 69353, Pitch_bend_c, 0, 1240
2, 69357, Pitch_bend_c, 0, 1254
2, 69360, Pitch_bend_c, 0, 1264
2, 69364, Pitch_bend_c, 0, 1277
2, 69367, Pitch_bend_c, 0, 1288
2, 69370, Pitch_bend_c, 0, 1298
2, 69374, Pitch_bend_c, 0, 1311
2, 69377, Pitch_bend_c, 0, 1321
2, 69381, Pitch_bend_c, 0, 1335
2, 69384, Pitch_bend_c, 0, 1345
2, 69388, Pitch_bend_c, 0, 1358
2, 69391, Pitch_bend_c, 0, 1368
2, 69395, Pitch_bend_c, 0, 1382
2, 69398, Pitch_bend_c, 0, 1392
2, 69401, Pitch_bend_c, 0, 1402
2, 69405, Pitch_bend_c, 0, 1415
2, 69408, Pitch_bend_c, 0, 1425
2, 69412, Pitch_bend_c, 0, 1439
2, 69415, Pitch_bend_c, 0, 1449
2, 69419, Pitch_bend_c, 0, 1462
2, 69422, Pitch_bend_c, 0, 1472
2, 69425, Pitch_bend_c, 0, 1482
2, 69429, Pitch_bend_c, 0, 1496
2, 69432, Pitch_bend_c, 0, 1506
2, 69436, Pitch_bend_c, 0, 1519
2, 69439, Pitch_bend_c, 0, 1529
2, 69443, Pitch_bend_c, 0, 1543
2, 69446, Pitch_bend_c, 0, 1553
2, 69450, Pitch_bend_c, 0, 1566
2, 69453, Pitch_bend_c, 0, 1576
2, 69456, Pitch_bend_c, 0, 1587
2, 69460, Pitch_bend_c, 0, 1600
2, 69463, Pitch_bend_c, 0, 1610
2, 69467, Pitch_bend_c, 0, 1623
2, 69470, Pitch_bend_c, 0, 1634
2, 69474, Pitch_bend_c, 0, 1647
2, 69477, Pitch_bend_c, 0, 1657
2, 69481, Pitch_bend_c, 0, 1670
2, 69484, Pitch_bend_c, 0, 1681
2, 69487, Pitch_bend_c, 0, 1691
2, 69491, Pitch_bend_c, 0, 1704
2, 69494, Pitch_bend_c, 0, 1714
2, 69498, Pitch_bend_c, 0, 1728
2, 69501, Pitch_bend_c, 0, 1738
2, 69505, Pitch_bend_c, 0, 1751
2, 69508, Pitch_bend_c, 0, 1761
2, 69512, Pitch_bend_c, 0, 1775
2, 69515, Pitch_bend_c, 0, 1785
2, 69518, Pitch_bend_c, 0, 1795
2, 69522, Pitch_bend_c, 0, 1808
2, 69525, Pitch_bend_c, 0, 1818
2, 69529, Pitch_bend_c, 0, 1832
2, 69532, Pitch_bend_c, 0, 1842
2, 69536, Pitch_bend_c, 0, 1855
2, 69539, Pitch_bend_c, 0, 1865
2, 69542, Pitch_bend_c, 0, 1875
2, 69546, Pitch_bend_c, 0, 1889
2, 69549, Pitch_bend_c, 0, 1899
2, 69553, Pitch_bend_c, 0, 1912
2, 69556, Pitch_bend_c, 0, 1922
2, 69560, Pitch_bend_c, 0, 1936
2, 69563, Pitch_bend_c, 0, 1946
2, 69567, Pitch_bend_c, 0, 1959
2, 69570, Pitch_bend_c, 0, 1969
2, 69573, Pitch_bend_c, 0, 1980
2, 69577, Pitch_bend_c, 0, 1993
2, 69580, Pitch_bend_c, 0, 2003
2, 69584, Pitch_bend_c, 0, 2017
2, 69587, Pitch_bend_c, 0, 2027
2, 69591, Pitch_bend_c, 0, 2040
2, 69594, Pitch_bend_c, 0, 2050
2, 69598, Pitch_bend_c, 0, 2064
2, 69601, Pitch_bend_c, 0, 2074
2, 69604, Pitch_bend_c, 0, 2084
2, 69608, Pitch_bend_c, 0, 2097
2, 69611, Pitch_bend_c, 0, 2107
2, 69615, Pitch_bend_c, 0, 2121
2, 69618, Pitch_bend_c, 0, 2131
2, 69622, Pitch_bend_c, 0, 2144
2, 69625, Pitch_bend_c, 0, 2154
2, 69629, Pitch_bend_c, 0, 2168
2, 69632, Pitch_bend_c, 0, 2178
2, 69635, Pitch_bend_c, 0, 2188
2, 69639, Pitch_bend_c, 0, 2201
2, 69642, Pitch_bend_c, 0, 2211
2, 69646, Pitch_bend_c, 0, 2225
2, 69649, Pitch_bend_c, 0, 2235
2, 69653, Pitch_bend_c, 0, 2248
2, 69656, Pitch_bend_c, 0, 2258
2, 69659, Pitch_bend_c, 0, 2268
2, 69663, Pitch_bend_c, 0, 2282
2, 69666, Pitch_bend_c, 0, 2292
2, 69670, Pitch_bend_c, 0, 2305
2, 69673, Pitch_bend_c, 0, 2315
2, 69677, Pitch_bend_c, 0, 2329
2, 69680, Pitch_bend_c, 0, 2339
2, 69684, Pitch_bend_c, 0, 2352
2, 69687, Pitch_bend_c, 0, 2363
2, 69690, Pitch_bend_c, 0, 2373
2, 69694, Pitch_bend_c, 0, 2386
2, 69697, Pitch_bend_c, 0, 2396
2, 69701, Pitch_bend_c, 0, 2410
2, 69704, Pitch_bend_c, 0, 2420
2, 69708, Pitch_bend_c, 0, 2433
2, 69711, Pitch_bend_c, 0, 2443
2, 69715, Pitch_bend_c, 0, 2457
2, 69718, Pitch_bend_c, 0, 2467
2, 69721, Pitch_bend_c, 0, 2477
2, 69725, Pitch_bend_c, 0, 2490
2, 69728, Pitch_bend_c, 0, 2500
2, 69732, Pitch_bend_c, 0, 2514
2, 69735, Pitch_bend_c, 0, 2524
2, 69739, Pitch_bend_c, 0, 2537
2, 69742, Pitch_bend_c, 0, 2547
2, 69746, Pitch_bend_c, 0, 2561
2, 69749, Pitch_bend_c, 0, 2571
2, 69752, Pitch_bend_c, 0, 2581
2, 69756, Pitch_bend_c, 0, 2594
2, 69759, Pitch_bend_c, 0, 2604
2, 69763, Pitch_bend_c, 0, 2618
2, 69766, Pitch_bend_c, 0, 2628
2, 69770, Pitch_bend_c, 0, 2641
2, 69773, Pitch_bend_c, 0, 2651
2, 69777, Pitch_bend_c, 0, 2665
2, 69780, Pitch_bend_c, 0, 2675
2, 69783, Pitch_bend_c, 0, 2685
2, 69787, Pitch_bend_c, 0, 2698
2, 69790, Pitch_bend_c, 0, 2709
2, 69794, Pitch_bend_c, 0, 2722
2, 69797, Pitch_bend_c, 0, 2732
2, 69801, Pitch_bend_c, 0, 2745
2, 69804, Pitch_bend_c, 0, 2756
2, 69807, Pitch_bend_c, 0, 2766
2, 69811, Pitch_bend_c, 0, 2779
2, 69814, Pitch_bend_c, 0, 2789
2, 69818, Pitch_bend_c, 0, 2803
2, 69821, Pitch_bend_c, 0, 2813
2, 69825, Pitch_bend_c, 0, 2826
2, 69828, Pitch_bend_c, 0, 2836
2, 69832, Pitch_bend_c, 0, 2850
2, 69835, Pitch_bend_c, 0, 2860
2, 69838, Pitch_bend_c, 0, 2870
2, 69842, Pitch_bend_c, 0, 2883
2, 69845, Pitch_bend_c, 0, 2893
2, 69849, Pitch_bend_c, 0, 2907
2, 69852, Pitch_bend_c, 0, 2917
2, 69856, Pitch_bend_c, 0, 2930
2, 69859, Pitch_bend_c, 0, 2940
2, 69863, Pitch_bend_c, 0, 2954
2, 69866, Pitch_bend_c, 0, 2964
2, 69869, Pitch_bend_c, 0, 2974
2, 69873, Pitch_bend_c, 0, 2987
2, 69876, Pitch_bend_c, 0, 2997
2, 69880, Pitch_bend_c, 0, 3011
2, 69883, Pitch_bend_c, 0, 3021
2, 69887, Pitch_bend_c, 0, 3034
2, 69890, Pitch_bend_c, 0, 3044
2, 69894, Pitch_bend_c, 0, 3058
2, 69897, Pitch_bend_c, 0, 3068
2, 69900, Pitch_bend_c, 0, 3078
2, 69904, Pitch_bend_c, 0, 3092
2, 69907, Pitch_bend_c, 0, 3102
2, 69911, Pitch_bend_c, 0, 3115
2, 69914, Pitch_bend_c, 0, 3125
2, 69918, Pitch_bend_c, 0, 3139
2, 69921, Pitch_bend_c, 0, 3149
2, 69924, Pitch_bend_c, 0, 3159
2, 69928, Pitch_bend_c, 0, 3172
2, 69931, Pitch_bend_c, 0, 3182
2, 69935, Pitch_bend_c, 0, 3196
2, 69938, Pitch_bend_c, 0, 3206
2, 69942, Pitch_bend_c, 0, 3219
2, 69945, Pitch_bend_c, 0, 3229
2, 69949, Pitch_bend_c, 0, 3243
2, 69952, Pitch_bend_c, 0, 3253
2, 69955, Pitch_bend_c, 0, 3263
2, 69959, Pitch_bend_c, 0, 3276
2, 69962, Pitch_bend_c, 0, 3286
2, 69966, Pitch_bend_c, 0, 3300
2, 69969, Pitch_bend_c, 0, 3310
2, 69973, Pitch_bend_c, 0, 3323
2, 69976, Pitch_bend_c, 0, 3333
2, 69980, Pitch_bend_c, 0, 3347
2, 69983, Pitch_bend_c, 0, 3357
2, 69986, Pitch_bend_c, 0, 3367
2, 69990, Pitch_bend_c, 0, 3380
2, 69993, Pitch_bend_c, 0, 3390
2, 69997, Pitch_bend_c, 0, 3404
2, 70000, Pitch_bend_c, 0, 3414
2, 70004, Pitch_bend_c, 0, 3427
2, 70007, Pitch_bend_c, 0, 3438
2, 70011, Pitch_bend_c, 0, 3451
2, 70014, Pitch_bend_c, 0, 3461
2, 70017, Pitch_bend_c, 0, 3471
2, 70021, Pitch_bend_c, 0, 3485
2, 70024, Pitch_bend_c, 0, 3495
2, 70028, Pitch_bend_c, 0, 3508
2, 70031, Pitch_bend_c, 0, 3518
2, 70035, Pitch_bend_c, 0, 3532
2, 70038, Pitch_bend_c, 0, 3542
2, 70041, Pitch_bend_c, 0, 3552
2, 70045, Pitch_bend_c, 0, 3565
2, 70048, Pitch_bend_c, 0, 3575
2, 70052, Pitch_bend_c, 0, 3589
2, 70055, Pitch_bend_c, 0, 3599
2, 70059, Pitch_bend_c, 0, 3612
2, 70062, Pitch_bend_c, 0, 3622
2, 70066, Pitch_bend_c, 0, 3636
2, 70069, Pitch_bend_c, 0, 3646
2, 70072, Pitch_bend_c, 0, 3656
2, 70076, Pitch_bend_c, 0, 3669
2, 70079, Pitch_bend_c, 0, 3679
2, 70083, Pitch_bend_c, 0, 3693
2, 70086, Pitch_bend_c, 0, 3703
2, 70090, Pitch_bend_c, 0, 3716
2, 70093, Pitch_bend_c, 0, 3726
2, 70097, Pitch_bend_c, 0, 3740
2, 70100, Pitch_bend_c, 0, 3750
2, 70103, Pitch_bend_c, 0, 3760
2, 70107, Pitch_bend_c, 0, 3773
2, 70110, Pitch_bend_c, 0, 3784
2, 70114, Pitch_bend_c, 0, 3797
2, 70117, Pitch_bend_c, 0, 3807
2, 70121, Pitch_bend_c, 0, 3820
2, 70124, Pitch_bend_c, 0, 3831
2, 70128, Pitch_bend_c, 0, 3844
2, 70131, Pitch_bend_c, 0, 3854
2, 70134, Pitch_bend_c, 0, 3864
2, 70138, Pitch_bend_c, 0, 3878
2, 70141, Pitch_bend_c, 0, 3888
2, 70145, Pitch_bend_c, 0, 3901
2, 70148, Pitch_bend_c, 0, 3911
2, 70152, Pitch_bend_c, 0, 3925
2, 70155, Pitch_bend_c, 0, 3935
2, 70159, Pitch_bend_c, 0, 3948
2, 70162, Pitch_bend_c, 0, 3958
2, 70165, Pitch_bend_c, 0, 3968
2, 70169, Pitch_bend_c, 0, 3982
2, 70172, Pitch_bend_c, 0, 3992
2, 70176, Pitch_bend_c, 0, 4005
2, 70179, Pitch_bend_c, 0, 4015
2, 70183, Pitch_bend_c, 0, 4029
2, 70186, Pitch_bend_c, 0, 4039
2, 70189, Pitch_bend_c, 0, 4049
2, 70193, Pitch_bend_c, 0, 4062
2, 70196, Pitch_bend_c, 0, 4072
2, 70200, Pitch_bend_c, 0, 4086
2, 70203, Pitch_bend_c, 0, 4096
2, 70207, Pitch_bend_c, 0, 4109
2, 70210, Pitch_bend_c, 0, 4119
2, 70214, Pitch_bend_c, 0, 4133
2, 70217, Pitch_bend_c, 0, 4143
2, 70220, Pitch_bend_c, 0, 4153
2, 70224, Pitch_bend_c, 0, 4167
2, 70227, Pitch_bend_c, 0, 4177
2, 70231, Pitch_bend_c, 0, 4190
2, 70234, Pitch_bend_c, 0, 4200
2, 70238, Pitch_bend_c, 0, 4214
2, 70241, Pitch_bend_c, 0, 4224
2, 70245, Pitch_bend_c, 0, 4237
2, 70248, Pitch_bend_c, 0, 4247
2, 70251, Pitch_bend_c, 0, 4257
2, 70255, Pitch_bend_c, 0, 4271
2, 70258, Pitch_bend_c, 0, 4281
2, 70262, Pitch_bend_c, 0, 4294
2, 70265, Pitch_bend_c, 0, 4304
2, 70269, Pitch_bend_c, 0, 4318
2, 70272, Pitch_bend_c, 0, 4328
2, 70276, Pitch_bend_c, 0, 4341
2, 70279, Pitch_bend_c, 0, 4351
2, 70282, Pitch_bend_c, 0, 4361
2, 70286, Pitch_bend_c, 0, 4375
2, 70289, Pitch_bend_c, 0, 4385
2, 70293, Pitch_bend_c, 0, 4398
2, 70296, Pitch_bend_c, 0, 4408
2, 70300, Pitch_bend_c, 0, 4422
2, 70303, Pitch_bend_c, 0, 4432
2, 70306, Pitch_bend_c, 0, 4442
2, 70310, Pitch_bend_c, 0, 4455
2, 70313, Pitch_bend_c, 0, 4465
2, 70317, Pitch_bend_c, 0, 4479
2, 70320, Pitch_bend_c, 0, 4489
2, 70324, Pitch_bend_c, 0, 4502
2, 70327, Pitch_bend_c, 0, 4513
2, 70331, Pitch_bend_c, 0, 4526
2, 70334, Pitch_bend_c, 0, 4536
2, 70337, Pitch_bend_c, 0, 4546
2, 70341, Pitch_bend_c, 0, 4560
2, 70344, Pitch_bend_c, 0, 4570
2, 70348, Pitch_bend_c, 0, 4583
2, 70351, Pitch_bend_c, 0, 4593
2, 70355, Pitch_bend_c, 0, 4607
2, 70358, Pitch_bend_c, 0, 4617
2, 70362, Pitch_bend_c, 0, 4630
2, 70365, Pitch_bend_c, 0, 4640
2, 70368, Pitch_bend_c, 0, 4650
2, 70372, Pitch_bend_c, 0, 4664
2, 70375, Pitch_bend_c, 0, 4674
2, 70379, Pitch_bend_c, 0, 4687
2, 70382, Pitch_bend_c, 0, 4697
2, 70386, Pitch_bend_c, 0, 4711
2, 70389, Pitch_bend_c, 0, 4721
2, 70393, Pitch_bend_c, 0, 4734
2, 70396, Pitch_bend_c, 0, 4744
2, 70399, Pitch_bend_c, 0, 4754
2, 70403, Pitch_bend_c, 0, 4768
2, 70406, Pitch_bend_c, 0, 4778
2, 70410, Pitch_bend_c, 0, 4791
2, 70413, Pitch_bend_c, 0, 4801
2, 70417, Pitch_bend_c, 0, 4815
2, 70420, Pitch_bend_c, 0, 4825
2, 70423, Pitch_bend_c, 0, 4835
2, 70427, Pitch_bend_c, 0, 4848
2, 70430, Pitch_bend_c, 0, 4859
2, 70434, Pitch_bend_c, 0, 4872
2, 70437, Pitch_bend_c, 0, 4882
2, 70441, Pitch_bend_c, 0, 4895
2, 70444, Pitch_bend_c, 0, 4906
2, 70448, Pitch_bend_c, 0, 4919
2, 70451, Pitch_bend_c, 0, 4929
2, 70454, Pitch_bend_c, 0, 4939
2, 70458, Pitch_bend_c, 0, 4953
2, 70461, Pitch_bend_c, 0, 4963
2, 70465, Pitch_bend_c, 0, 4976
2, 70468, Pitch_bend_c, 0, 4986
2, 70472, Pitch_bend_c, 0, 5000
2, 70475, Pitch_bend_c, 0, 5010
2, 70479, Pitch_bend_c, 0, 5023
2, 70482, Pitch_bend_c, 0, 5033
2, 70485, Pitch_bend_c, 0, 5043
2, 70489, Pitch_bend_c, 0, 5057
2, 70492, Pitch_bend_c, 0, 5067
2, 70496, Pitch_bend_c, 0, 5080
2, 70499, Pitch_bend_c, 0, 5090
2, 70503, Pitch_bend_c, 0, 5104
2, 70506, Pitch_bend_c, 0, 5114
2, 70510, Pitch_bend_c, 0, 5127
2, 70513, Pitch_bend_c, 0, 5137
2, 70516, Pitch_bend_c, 0, 5147
2, 70520, Pitch_bend_c, 0, 5161
2, 70523, Pitch_bend_c, 0, 5171
2, 70527, Pitch_bend_c, 0, 5184
2, 70530, Pitch_bend_c, 0, 5194
2, 70534, Pitch_bend_c, 0, 5208
2, 70537, Pitch_bend_c, 0, 5218
2, 70540, Pitch_bend_c, 0, 5228
2, 70544, Pitch_bend_c, 0, 5242
2, 70547, Pitch_bend_c, 0, 5252
2, 70551, Pitch_bend_c, 0, 5265
2, 70554, Pitch_bend_c, 0, 5275
2, 70558, Pitch_bend_c, 0, 5289
2, 70561, Pitch_bend_c, 0, 5299
2, 70565, Pitch_bend_c, 0, 5312
2, 70568, Pitch_bend_c, 0, 5322
2, 70571, Pitch_bend_c, 0, 5332
2, 70575, Pitch_bend_c, 0, 5346
2, 70578, Pitch_bend_c, 0, 5356
2, 70582, Pitch_bend_c, 0, 5369
2, 70585, Pitch_bend_c, 0, 5379
2, 70589, Pitch_bend_c, 0, 5393
2, 70592, Pitch_bend_c, 0, 5403
2, 70596, Pitch_bend_c, 0, 5416
2, 70599, Pitch_bend_c, 0, 5426
2, 70602, Pitch_bend_c, 0, 5436
2, 70606, Pitch_bend_c, 0, 5450
2, 70609, Pitch_bend_c, 0, 5460
2, 70613, Pitch_bend_c, 0, 5473
2, 70616, Pitch_bend_c, 0, 5483
2, 70620, Pitch_bend_c, 0, 5497
2, 70623, Pitch_bend_c, 0, 5507
2, 70627, Pitch_bend_c, 0, 5520
2, 70630, Pitch_bend_c, 0, 5530
2, 70633, Pitch_bend_c, 0, 5540
2, 70637, Pitch_bend_c, 0, 5554
2, 70640, Pitch_bend_c, 0, 5564
2, 70644, Pitch_bend_c, 0, 5577
2, 70647, Pitch_bend_c, 0, 5588
2, 70651, Pitch_bend_c, 0, 5601
2, 70654, Pitch_bend_c, 0, 5611
2, 70658, Pitch_bend_c, 0, 5624
2, 70661, Pitch_bend_c, 0, 5635
2, 70664, Pitch_bend_c, 0, 5645
2, 70668, Pitch_bend_c, 0, 5658
2, 70671, Pitch_bend_c, 0, 5668
2, 70675, Pitch_bend_c, 0, 5682
2, 70678, Pitch_bend_c, 0, 5692
2, 70682, Pitch_bend_c, 0, 5705
2, 70685, Pitch_bend_c, 0, 5715
2, 70688, Pitch_bend_c, 0, 5725
2, 70692, Pitch_bend_c, 0, 5739
2, 70695, Pitch_bend_c, 0, 5749
2, 70699, Pitch_bend_c, 0, 5762
2, 70702, Pitch_bend_c, 0, 5772
2, 70706, Pitch_bend_c, 0, 5786
2, 70709, Pitch_bend_c, 0, 5796
2, 70713, Pitch_bend_c, 0, 5809
2, 70716, Pitch_bend_c, 0, 5819
2, 70719, Pitch_bend_c, 0, 5829
2, 70723, Pitch_bend_c, 0, 5843
2, 70726, Pitch_bend_c, 0, 5853
2, 70730, Pitch_bend_c, 0, 5866
2, 70733, Pitch_bend_c, 0, 5876
2, 70737, Pitch_bend_c, 0, 5890
2, 70740, Pitch_bend_c, 0, 5900
2, 70744, Pitch_bend_c, 0, 5913
2, 70747, Pitch_bend_c, 0, 5923
2, 70750, Pitch_bend_c, 0, 5934
2, 70754, Pitch_bend_c, 0, 5947
2, 70757, Pitch_bend_c, 0, 5957
2, 70761, Pitch_bend_c, 0, 5970
2, 70764, Pitch_bend_c, 0, 5981
2, 70768, Pitch_bend_c, 0, 5994
2, 70771, Pitch_bend_c, 0, 6004
2, 70775, Pitch_bend_c, 0, 6018
2, 70778, Pitch_bend_c, 0, 6028
2, 70781, Pitch_bend_c, 0, 6038
2, 70785, Pitch_bend_c, 0, 6051
2, 70788, Pitch_bend_c, 0, 6061
2, 70792, Pitch_bend_c, 0, 6075
2, 70795, Pitch_bend_c, 0, 6085
2, 70799, Pitch_bend_c, 0, 6098
2, 70802, Pitch_bend_c, 0, 6108
2, 70805, Pitch_bend_c, 0, 6118
2, 70809, Pitch_bend_c, 0, 6132
2, 70812, Pitch_bend_c, 0, 6142
2, 70816, Pitch_bend_c, 0, 6155
2, 70819, Pitch_bend_c, 0, 6165
2, 70823, Pitch_bend_c, 0, 6179
2, 70826, Pitch_bend_c, 0, 6189
2, 70830, Pitch_bend_c, 0, 6202
2, 70833, Pitch_bend_c, 0, 6212
2, 70836, Pitch_bend_c, 0, 6222
2, 70840, Pitch_bend_c, 0, 6236
2, 70843, Pitch_bend_c, 0, 6246
2, 70847, Pitch_bend_c, 0, 6259
2, 70850, Pitch_bend_c, 0, 6269
2, 70854, Pitch_bend_c, 0, 6283
2, 70857, Pitch_bend_c, 0, 6293
2, 70861, Pitch_bend_c, 0, 6306
2, 70864, Pitch_bend_c, 0, 6317
2, 70867, Pitch_bend_c, 0, 6327
2, 70871, Pitch_bend_c, 0, 6340
2, 70874, Pitch_bend_c, 0, 6350
2, 70878, Pitch_bend_c, 0, 6364
2, 70881, Pitch_bend_c, 0, 6374
2, 70885, Pitch_bend_c, 0, 6387
2, 70888, Pitch_bend_c, 0, 6397
2, 70892, Pitch_bend_c, 0, 6411
2, 70895, Pitch_bend_c, 0, 6421
2, 70898, Pitch_bend_c, 0, 6431
2, 70902, Pitch_bend_c, 0, 6444
2, 70905, Pitch_bend_c, 0, 6454
2, 70909, Pitch_bend_c, 0, 6468
2, 70912, Pitch_bend_c, 0, 6478
2, 70916, Pitch_bend_c, 0, 6491
2, 70919, Pitch_bend_c, 0, 6501
2, 70922, Pitch_bend_c, 0, 6511
2, 70926, Pitch_bend_c, 0, 6525
2, 70929, Pitch_bend_c, 0, 6535
2, 70933, Pitch_bend_c, 0, 6548
2, 70936, Pitch_bend_c, 0, 6558
2, 70940, Pitch_bend_c, 0, 6572
2, 70943, Pitch_bend_c, 0, 6582
2, 70947, Pitch_bend_c, 0, 6595
2, 70950, Pitch_bend_c, 0, 6605
2, 70953, Pitch_bend_c, 0, 6615
2, 70957, Pitch_bend_c, 0, 6629
2, 70960, Pitch_bend_c, 0, 6639
2, 70964, Pitch_bend_c, 0, 6652
2, 70967, Pitch_bend_c, 0, 6663
2, 70971, Pitch_bend_c, 0, 6676
2, 70974, Pitch_bend_c, 0, 6686
2, 70978, Pitch_bend_c, 0, 6699
2, 70981, Pitch_bend_c, 0, 6710
2, 70984, Pitch_bend_c, 0, 6720
2, 70988, Pitch_bend_c, 0, 6733
2, 70991, Pitch_bend_c, 0, 6743
2, 70995, Pitch_bend_c, 0, 6757
2, 70998, Pitch_bend_c, 0, 6767
2, 71002, Pitch_bend_c, 0, 6780
2, 71005, Pitch_bend_c, 0, 6790
2, 71009, Pitch_bend_c, 0, 6804
2, 71012, Pitch_bend_c, 0, 6814
2, 71015, Pitch_bend_c, 0, 6824
2, 71019, Pitch_bend_c, 0, 6837
2, 71022, Pitch_bend_c, 0, 6847
2, 71026, Pitch_bend_c, 0, 6861
2, 71029, Pitch_bend_c, 0, 6871
2, 71033, Pitch_bend_c, 0, 6884
2, 71036, Pitch_bend_c, 0, 6894
2, 71039, Pitch_bend_c, 0, 6912
2, 71040, Pitch_bend_c, 0, 6656
2, 71164, Note_off_c, 0, 71, 64
2, 71255, Pitch_bend_c, 0, 6656
2, 71260, Pitch_bend_c, 0, 8192
2, 71280, Note_on_c, 0, 69, 110
2, 71398, Note_off_c, 0, 69, 64
2, 71520, Note_on_c, 0, 69, 110
2, 71638, Note_off_c, 0, 69, 64
2, 71760, Note_on_c, 0, 69, 110
2, 71878, Note_off_c, 0, 69, 64
2, 72000, Note_on_c, 0, 71, 110
2, 72118, Note_off_c, 0, 71, 64
2, 72240, Note_on_c, 0, 71, 110
2, 72358, Note_off_c, 0, 71, 64
2, 72480, Note_on_c, 0, 71, 110
2, 72598, Note_off_c, 0, 71, 64
2, 72720, Note_on_c, 0, 71, 110
2, 72838, Note_off_c, 0, 71, 64
2, 72960, Note_on_c, 0, 72, 110
2, 73078, Note_off_c, 0, 72, 64
2, 73200, Note_on_c, 0, 72, 110
2, 73318, Note_off_c, 0, 72, 64
2, 73440, Note_on_c, 0, 72, 110
2, 73558, Note_off_c, 0, 72, 64
2, 73680, Note_on_c, 0, 72, 110
2, 73798, Note_off_c, 0, 72, 64
2, 73920, Note_on_c, 0, 74, 110
2, 74038, Note_off_c, 0, 74, 64
2, 74160, Note_on_c, 0, 74, 110
2, 74278, Note_off_c, 0, 74, 64
2, 74400, Note_on_c, 0, 74, 110
2, 74518, Note_off_c, 0, 74, 64
2, 74640, Note_on_c, 0, 74, 110
2, 74758, Note_off_c, 0, 74, 64
2, 74880, Note_on_c, 0, 76, 110
2, 74953, Note_off_c, 0, 76, 64
2, 75000, Note_on_c, 0, 76, 110
2, 75073, Note_off_c, 0, 76, 64
2, 75120, Note_on_c, 0, 76, 110
2, 75193, Note_off_c, 0, 76, 64
2, 75240, Note_on_c, 0, 76, 110
2, 75313, Note_off_c, 0, 76, 64
2, 75360, Note_on_c, 0, 76, 110
2, 75433, Note_off_c, 0, 76, 64
2, 75480, Note_on_c, 0, 76, 110
2, 75553, Note_off_c, 0, 76, 64
2, 75600, Note_on_c, 0, 76, 110
2, 75673, Note_off_c, 0, 76, 64
2, 75720, Note_on_c, 0, 76, 110
2, 75793, Note_off_c, 0, 76, 64
2, 75840, Note_on_c, 0, 78, 110
2, 75913, Note_off_c, 0, 78, 64
2, 75960, Note_on_c, 0, 78, 110
2, 76033, Note_off_c, 0, 78, 64
2, 76080, Note_on_c, 0, 78, 110
2, 76153, Note_off_c, 0, 78, 64
2, 76200, Note_on_c, 0, 78, 110
2, 76273, Note_off_c, 0, 78, 64
2, 76320, Note_on_c, 0, 78, 110
2, 76393, Note_off_c, 0, 78, 64
2, 76440, Note_on_c, 0, 78, 110
2, 76513, Note_off_c, 0, 78, 64
2, 76560, Note_on_c, 0, 78, 110
2, 76633, Note_off_c, 0, 78, 64
2, 76680, Note_on_c, 0, 78, 110
2, 76753, Note_off_c, 0, 78, 64
2, 76800, Note_on_c, 0, 79, 110
2, 76873, Note_off_c, 0, 79, 64
2, 76920, Note_on_c, 0, 79, 110
2, 76993, Note_off_c, 0, 79, 64
2, 77040, Note_on_c, 0, 79, 110
2, 77113, Note_off_c, 0, 79, 64
2, 77160, Note_on_c, 0, 79, 110
2, 77233, Note_off_c, 0, 79, 64
2, 77280, Note_on_c, 0, 79, 110
2, 77353, Note_off_c, 0, 79, 64
2, 77400, Note_on_c, 0, 79, 110
2, 77473, Note_off_c, 0, 79, 64
2, 77520, Note_on_c, 0, 79, 110
2, 77593, Note_off_c, 0, 79, 64
2, 77640, Note_on_c, 0, 79, 110
2, 77713, Note_off_c, 0, 79, 64
2, 77760, Note_on_c, 0, 81, 110
2, 77833, Note_off_c, 0, 81, 64
2, 77880, Note_on_c, 0, 81, 110
2, 77953, Note_off_c, 0, 81, 64
2, 78000, Note_on_c, 0, 81, 110
2, 78073, Note_off_c, 0, 81, 64
2, 78120, Note_on_c, 0, 81, 110
2, 78193, Note_off_c, 0, 81, 64
2, 78240, Note_on_c, 0, 81, 110
2, 78313, Note_off_c, 0, 81, 64
2, 78360, Note_on_c, 0, 81, 110
2, 78433, Note_off_c, 0, 81, 64
2, 78480, Note_on_c, 0, 81, 110
2, 78553, Note_off_c, 0, 81, 64
2, 78600, Note_on_c, 0, 81, 110
2, 78673, Note_off_c, 0, 81, 64
2, 78720, Note_on_c, 0, 83, 110
2, 78763, Note_off_c, 0, 83, 64
2, 78780, Note_on_c, 0, 83, 110
2, 78823, Note_off_c, 0, 83, 64
2, 78840, Note_on_c, 0, 83, 110
2, 78883, Note_off_c, 0, 83, 64
2, 78900, Note_on_c, 0, 83, 110
2, 78943, Note_off_c, 0, 83, 64
2, 78960, Note_on_c, 0, 83, 110
2, 79003, Note_off_c, 0, 83, 64
2, 79020, Note_on_c, 0, 83, 110
2, 79063, Note_off_c, 0, 83, 64
2, 79080, Note_on_c, 0, 83, 110
2, 79123, Note_off_c, 0, 83, 64
2, 79140, Note_on_c, 0, 83, 110
2, 79183, Note_off_c, 0, 83, 64
2, 79200, Note_on_c, 0, 83, 110
2, 79243, Note_off_c, 0, 83, 64
2, 79260, Note_on_c, 0, 83, 110
2, 79303, Note_off_c, 0, 83, 64
2, 79320, Note_on_c, 0, 83, 110
2, 79363, Note_off_c, 0, 83, 64
2, 79380, Note_on_c, 0, 83, 110
2, 79423, Note_off_c, 0, 83, 64
2, 79440, Note_on_c, 0, 83, 110
2, 79483, Note_off_c, 0, 83, 64
2, 79500, Note_on_c, 0, 83, 110
2, 79543, Note_off_c, 0, 83, 64
2, 79560, Note_on_c, 0, 83, 110
2, 79603, Note_off_c, 0, 83, 64
2, 79620, Note_on_c, 0, 83, 110
2, 79663, Note_off_c, 0, 83, 64
2, 79680, Note_on_c, 0, 84, 110
2, 79723, Note_off_c, 0, 84, 64
2, 79740, Note_on_c, 0, 84, 110
2, 79783, Note_off_c, 0, 84, 64
2, 79800, Note_on_c, 0, 84, 110
2, 79843, Note_off_c, 0, 84, 64
2, 79860, Note_on_c, 0, 84, 110
2, 79903, Note_off_c, 0, 84, 64
2, 79920, Note_on_c, 0, 84, 110
2, 79963, Note_off_c, 0, 84, 64
2, 79980, Note_on_c, 0, 84, 110
2, 80023, Note_off_c, 0, 84, 64
2, 80040, Note_on_c, 0, 84, 110
2, 80083, Note_off_c, 0, 84, 64
2, 80100, Note_on_c, 0, 84, 110
2, 80143, Note_off_c, 0, 84, 64
2, 80160, Note_on_c, 0, 84, 110
2, 80203, Note_off_c, 0, 84, 64
2, 80220, Note_on_c, 0, 84, 110
2, 80263, Note_off_c, 0, 84, 64
2, 80280, Note_on_c, 0, 84, 110
2, 80323, Note_off_c, 0, 84, 64
2, 80340, Note_on_c, 0, 84, 110
2, 80383, Note_off_c, 0, 84, 64
2, 80400, Note_on_c, 0, 84, 110
2, 80443, Note_off_c, 0, 84, 64
2, 80460, Note_on_c, 0, 84, 110
2, 80503, Note_off_c, 0, 84, 64
2, 80520, Note_on_c, 0, 84, 110
2, 80563, Note_off_c, 0, 84, 64
2, 80580, Note_on_c, 0, 84, 110
2, 80623, Note_off_c, 0, 84, 64
2, 80640, Note_on_c, 0, 86, 110
2, 80683, Note_off_c, 0, 86, 64
2, 80700, Note_on_c, 0, 86, 110
2, 80743, Note_off_c, 0, 86, 64
2, 80760, Note_on_c, 0, 86, 110
2, 80803, Note_off_c, 0, 86, 64
2, 80820, Note_on_c, 0, 86, 110
2, 80863, Note_off_c, 0, 86, 64
2, 80880, Note_on_c, 0, 86, 110
2, 80923, Note_off_c, 0, 86, 64
2, 80940, Note_on_c, 0, 86, 110
2, 80983, Note_off_c, 0, 86, 64
2, 81000, Note_on_c, 0, 86, 110
2, 81043, Note_off_c, 0, 86, 64
2, 81060, Note_on_c, 0, 86, 110
2, 81103, Note_off_c, 0, 86, 64
2, 81120, Note_on_c, 0, 86, 110
2, 81163, Note_off_c, 0, 86, 64
2, 81180, Note_on_c, 0, 86, 110
2, 81223, Note_off_c, 0, 86, 64
2, 81240, Note_on_c, 0, 86, 110
2, 81283, Note_off_c, 0, 86, 64
2, 81300, Note_on_c, 0, 86, 110
2, 81343, Note_off_c, 0, 86, 64
2, 81360, Note_on_c, 0, 86, 110
2, 81403, Note_off_c, 0, 86, 64
2, 81420, Note_on_c, 0, 86, 110
2, 81463, Note_off_c, 0, 86, 64
2, 81480, Note_on_c, 0, 86, 110
2, 81523, Note_off_c, 0, 86, 64
2, 81540, Note_on_c, 0, 86, 110
2, 81583, Note_off_c, 0, 86, 64
2, 81600, Note_on_c, 0, 88, 110
2, 81643, Note_off_c, 0, 88, 64
2, 81660, Note_on_c, 0, 88, 110
2, 81703, Note_off_c, 0, 88, 64
2, 81720, Note_on_c, 0, 88, 110
2, 81763, Note_off_c, 0, 88, 64
2, 81780, Note_on_c, 0, 88, 110
2, 81823, Note_off_c, 0, 88, 64
2, 81840, Note_on_c, 0, 88, 110
2, 81883, Note_off_c, 0, 88, 64
2, 81900, Note_on_c, 0, 88, 110
2, 81943, Note_off_c, 0, 88, 64
2, 81960, Note_on_c, 0, 88, 110
2, 82003, Note_off_c, 0, 88, 64
2, 82020, Note_on_c, 0, 88, 110
2, 82063, Note_off_c, 0, 88, 64
2, 82080, Note_on_c, 0, 88, 110
2, 82123, Note_off_c, 0, 88, 64
2, 82140, Note_on_c, 0, 88, 110
2, 82183, Note_off_c, 0, 88, 64
2, 82200, Note_on_c, 0, 88, 110
2, 82243, Note_off_c, 0, 88, 64
2, 82260, Note_on_c, 0, 88, 110
2, 82303, Note_off_c, 0, 88, 64
2, 82320, Note_on_c, 0, 88, 110
2, 82363, Note_off_c, 0, 88, 64
2, 82380, Note_on_c, 0, 88, 110
2, 82423, Note_off_c, 0, 88, 64
2, 82440, Note_on_c, 0, 88, 110
2, 82483, Note_off_c, 0, 88, 64
2, 82500, Note_on_c, 0, 88, 110
2, 82543, Note_off_c, 0, 88, 64
2, 82560, Note_on_c, 0, 90, 110
2, 82603, Note_off_c, 0, 90, 64
2, 82620, Note_on_c, 0, 90, 110
2, 82663, Note_off_c, 0, 90, 64
2, 82680, Note_on_c, 0, 90, 110
2, 82723, Note_off_c, 0, 90, 64
2, 82740, Note_on_c, 0, 90, 110
2, 82783, Note_off_c, 0, 90, 64
2, 82800, Note_on_c, 0, 90, 110
2, 82843, Note_off_c, 0, 90, 64
2, 82860, Note_on_c, 0, 90, 110
2, 82903, Note_off_c, 0, 90, 64
2, 82920, Note_on_c, 0, 90, 110
2, 82963, Note_off_c, 0, 90, 64
2, 82980, Note_on_c, 0, 90, 110
2, 83023, Note_off_c, 0, 90, 64
2, 83040, Note_on_c, 0, 90, 110
2, 83083, Note_off_c, 0, 90, 64
2, 83100, Note_on_c, 0, 90, 110
2, 83143, Note_off_c, 0, 90, 64
2, 83160, Note_on_c, 0, 90, 110
2, 83203, Note_off_c, 0, 90, 64
2, 83220, Note_on_c, 0, 90, 110
2, 83263, Note_off_c, 0, 90, 64
2, 83280, Note_on_c, 0, 90, 110
2, 83323, Note_off_c, 0, 90, 64
2, 83340, Note_on_c, 0, 90, 110
2, 83383, Note_off_c, 0, 90, 64
2, 83400, Note_on_c, 0, 90, 110
2, 83443, Note_off_c, 0, 90, 64
2, 83460, Note_on_c, 0, 90, 110
2, 83503, Note_off_c, 0, 90, 64
2, 83520, Note_on_c, 0, 91, 110
2, 83563, Note_off_c, 0, 91, 64
2, 83580, Note_on_c, 0, 91, 110
2, 83623, Note_off_c, 0, 91, 64
2, 83640, Note_on_c, 0, 91, 110
2, 83683, Note_off_c, 0, 91, 64
2, 83700, Note_on_c, 0, 91, 110
2, 83743, Note_off_c, 0, 91, 64
2, 83760, Note_on_c, 0, 91, 110
2, 83803, Note_off_c, 0, 91, 64
2, 83820, Note_on_c, 0, 91, 110
2, 83863, Note_off_c, 0, 91, 64
2, 83880, Note_on_c, 0, 91, 110
2, 83923, Note_off_c, 0, 91, 64
2, 83940, Note_on_c, 0, 91, 110
2, 83983, Note_off_c, 0, 91, 64
2, 84000, Note_on_c, 0, 91, 110
2, 84043, Note_off_c, 0, 91, 64
2, 84060, Note_on_c, 0, 91, 110
2, 84103, Note_off_c, 0, 91, 64
2, 84120, Note_on_c, 0, 91, 110
2, 84163, Note_off_c, 0, 91, 64
2, 84180, Note_on_c, 0, 91, 110
2, 84223, Note_off_c, 0, 91, 64
2, 84240, Note_on_c, 0, 91, 110
2, 84283, Note_off_c, 0, 91, 64
2, 84300, Note_on_c, 0, 91, 110
2, 84343, Note_off_c, 0, 91, 64
2, 84360, Note_on_c, 0, 91, 110
2, 84403, Note_off_c, 0, 91, 64
2, 84420, Note_on_c, 0, 91, 110
2, 84463, Note_off_c, 0, 91, 64
2, 84480, Note_on_c, 0, 93, 110
2, 84523, Note_off_c, 0, 93, 64
2, 84540, Note_on_c, 0, 93, 110
2, 84583, Note_off_c, 0, 93, 64
2, 84600, Note_on_c, 0, 93, 110
2, 84643, Note_off_c, 0, 93, 64
2, 84660, Note_on_c, 0, 93, 110
2, 84703, Note_off_c, 0, 93, 64
2, 84720, Note_on_c, 0, 93, 110
2, 84763, Note_off_c, 0, 93, 64
2, 84780, Note_on_c, 0, 93, 110
2, 84823, Note_off_c, 0, 93, 64
2, 84840, Note_on_c, 0, 93, 110
2, 84883, Note_off_c, 0, 93, 64
2, 84900, Note_on_c, 0, 93, 110
2, 84943, Note_off_c, 0, 93, 64
2, 84960, Note_on_c, 0, 93, 110
2, 85003, Note_off_c, 0, 93, 64
2, 85020, Note_on_c, 0, 93, 110
2, 85063, Note_off_c, 0, 93, 64
2, 85080, Note_on_c, 0, 93, 110
2, 85123, Note_off_c, 0, 93, 64
2, 85140, Note_on_c, 0, 93, 110
2, 85183, Note_off_c, 0, 93, 64
2, 85200, Note_on_c, 0, 93, 110
2, 85243, Note_off_c, 0, 93, 64
2, 85260, Note_on_c, 0, 93, 110
2, 85303, Note_off_c, 0, 93, 64
2, 85320, Note_on_c, 0, 93, 110
2, 85363, Note_off_c, 0, 93, 64
2, 85380, Note_on_c, 0, 93, 110
2, 85423, Note_off_c, 0, 93, 64
2, 85440, Note_on_c, 0, 95, 110
2, 85483, Note_off_c, 0, 95, 64
2, 85500, Note_on_c, 0, 95, 110
2, 85543, Note_off_c, 0, 95, 64
2, 85560, Note_on_c, 0, 95, 110
2, 85603, Note_off_c, 0, 95, 64
2, 85620, Note_on_c, 0, 95, 110
2, 85663, Note_off_c, 0, 95, 64
2, 85680, Note_on_c, 0, 95, 110
2, 85723, Note_off_c, 0, 95, 64
2, 85740, Note_on_c, 0, 95, 110
2, 85783, Note_off_c, 0, 95, 64
2, 85800, Note_on_c, 0, 95, 110
2, 85843, Note_off_c, 0, 95, 64
2, 85860, Note_on_c, 0, 95, 110
2, 85903, Note_off_c, 0, 95, 64
2, 85920, Note_on_c, 0, 95, 110
2, 85963, Note_off_c, 0, 95, 64
2, 85980, Note_on_c, 0, 95, 110
2, 86023, Note_off_c, 0, 95, 64
2, 86040, Note_on_c, 0, 95, 110
2, 86083, Note_off_c, 0, 95, 64
2, 86100, Note_on_c, 0, 95, 110
2, 86143, Note_off_c, 0, 95, 64
2, 86160, Note_on_c, 0, 95, 110
2, 86203, Note_off_c, 0, 95, 64
2, 86220, Note_on_c, 0, 95, 110
2, 86263, Note_off_c, 0, 95, 64
2, 86280, Note_on_c, 0, 95, 110
2, 86323, Note_off_c, 0, 95, 64
2, 86340, Note_on_c, 0, 95, 110
2, 86383, Note_off_c, 0, 95, 64
2, 86400, Note_on_c, 0, 96, 110
2, 86443, Note_off_c, 0, 96, 64
2, 86460, Note_on_c, 0, 96, 110
2, 86503, Note_off_c, 0, 96, 64
2, 86520, Note_on_c, 0, 96, 110
2, 86563, Note_off_c, 0, 96, 64
2, 86580, Note_on_c, 0, 96, 110
2, 86623, Note_off_c, 0, 96, 64
2, 86640, Note_on_c, 0, 96, 110
2, 86683, Note_off_c, 0, 96, 64
2, 86700, Note_on_c, 0, 96, 110
2, 86743, Note_off_c, 0, 96, 64
2, 86760, Note_on_c, 0, 96, 110
2, 86803, Note_off_c, 0, 96, 64
2, 86820, Note_on_c, 0, 96, 110
2, 86863, Note_off_c, 0, 96, 64
2, 86880, Note_on_c, 0, 96, 110
2, 86923, Note_off_c, 0, 96, 64
2, 86940, Note_on_c, 0, 96, 110
2, 86983, Note_off_c, 0, 96, 64
2, 87000, Note_on_c, 0, 96, 110
2, 87043, Note_off_c, 0, 96, 64
2, 87060, Note_on_c, 0, 96, 110
2, 87103, Note_off_c, 0, 96, 64
2, 87120, Note_on_c, 0, 96, 110
2, 87163, Note_off_c, 0, 96, 64
2, 87180, Note_on_c, 0, 96, 110
2, 87223, Note_off_c, 0, 96, 64
2, 87240, Note_on_c, 0, 96, 110
2, 87283, Note_off_c, 0, 96, 64
2, 87300, Note_on_c, 0, 96, 110
2, 87343, Note_off_c, 0, 96, 64
2, 87360, Note_on_c, 0, 98, 110
2, 87403, Note_off_c, 0, 98, 64
2, 87420, Note_on_c, 0, 98, 110
2, 87463, Note_off_c, 0, 98, 64
2, 87480, Note_on_c, 0, 98, 110
2, 87523, Note_off_c, 0, 98, 64
2, 87540, Note_on_c, 0, 98, 110
2, 87583, Note_off_c, 0, 98, 64
2, 87600, Note_on_c, 0, 98, 110
2, 87643, Note_off_c, 0, 98, 64
2, 87660, Note_on_c, 0, 98, 110
2, 87703, Note_off_c, 0, 98, 64
2, 87720, Note_on_c, 0, 98, 110
2, 87763, Note_off_c, 0, 98, 64
2, 87780, Note_on_c, 0, 98, 110
2, 87823, Note_off_c, 0, 98, 64
2, 87840, Note_on_c, 0, 98, 110
2, 87883, Note_off_c, 0, 98, 64
2, 87900, Note_on_c, 0, 98, 110
2, 87943, Note_off_c, 0, 98, 64
2, 87960, Note_on_c, 0, 98, 110
2, 88003, Note_off_c, 0, 98, 64
2, 88020, Note_on_c, 0, 98, 110
2, 88063, Note_off_c, 0, 98, 64
2, 88080, Note_on_c, 0, 98, 110
2, 88123, Note_off_c, 0, 98, 64
2, 88140, Note_on_c, 0, 98, 110
2, 88183, Note_off_c, 0, 98, 64
2, 88200, Note_on_c, 0, 98, 110
2, 88243, Note_off_c, 0, 98, 64
2, 88260, Note_on_c, 0, 98, 110
2, 88303, Note_off_c, 0, 98, 64
2, 88320, Note_on_c, 0, 100, 110
2, 88363, Note_off_c, 0, 100, 64
2, 88380, Note_on_c, 0, 100, 110
2, 88423, Note_off_c, 0, 100, 64
2, 88440, Note_on_c, 0, 100, 110
2, 88483, Note_off_c, 0, 100, 64
2, 88500, Note_on_c, 0, 100, 110
2, 88543, Note_off_c, 0, 100, 64
2, 88560, Note_on_c, 0, 100, 110
2, 88603, Note_off_c, 0, 100, 64
2, 88620, Note_on_c, 0, 100, 110
2, 88663, Note_off_c, 0, 100, 64
2, 88680, Note_on_c, 0, 100, 110
2, 88723, Note_off_c, 0, 100, 64
2, 88740, Note_on_c, 0, 100, 110
2, 88783, Note_off_c, 0, 100, 64
2, 88800, Note_on_c, 0, 100, 110
2, 88843, Note_off_c, 0, 100, 64
2, 88860, Note_on_c, 0, 100, 110
2, 88903, Note_off_c, 0, 100, 64
2, 88920, Note_on_c, 0, 100, 110
2, 88963, Note_off_c, 0, 100, 64
2, 88980, Note_on_c, 0, 100, 110
2, 89023, Note_off_c, 0, 100, 64
2, 89040, Note_on_c, 0, 100, 110
2, 89083, Note_off_c, 0, 100, 64
2, 89100, Note_on_c, 0, 100, 110
2, 89143, Note_off_c, 0, 100, 64
2, 89160, Note_on_c, 0, 100, 110
2, 89203, Note_off_c, 0, 100, 64
2, 89220, Note_on_c, 0, 100, 110
2, 89263, Note_off_c, 0, 100, 64
2, 89280, Note_on_c, 0, 102, 110
2, 89323, Note_off_c, 0, 102, 64
2, 89340, Note_on_c, 0, 102, 110
2, 89383, Note_off_c, 0, 102, 64
2, 89400, Note_on_c, 0, 102, 110
2, 89443, Note_off_c, 0, 102, 64
2, 89460, Note_on_c, 0, 102, 110
2, 89503, Note_off_c, 0, 102, 64
2, 89520, Note_on_c, 0, 102, 110
2, 89563, Note_off_c, 0, 102, 64
2, 89580, Note_on_c, 0, 102, 110
2, 89623, Note_off_c, 0, 102, 64
2, 89640, Note_on_c, 0, 102, 110
2, 89683, Note_off_c, 0, 102, 64
2, 89700, Note_on_c, 0, 102, 110
2, 89743, Note_off_c, 0, 102, 64
2, 89760, Note_on_c, 0, 102, 110
2, 89803, Note_off_c, 0, 102, 64
2, 89820, Note_on_c, 0, 102, 110
2, 89863, Note_off_c, 0, 102, 64
2, 89880, Note_on_c, 0, 102, 110
2, 89923, Note_off_c, 0, 102, 64
2, 89940, Note_on_c, 0, 102, 110
2, 89983, Note_off_c, 0, 102, 64
2, 90000, Note_on_c, 0, 102, 110
2, 90043, Note_off_c, 0, 102, 64
2, 90060, Note_on_c, 0, 102, 110
2, 90103, Note_off_c, 0, 102, 64
2, 90120, Note_on_c, 0, 102, 110
2, 90163, Note_off_c, 0, 102, 64
2, 90180, Note_on_c, 0, 102, 110
2, 90223, Note_off_c, 0, 102, 64
2, 90240, Note_on_c, 0, 103, 110
2, 90283, Note_off_c, 0, 103, 64
2, 90300, Note_on_c, 0, 103, 110
2, 90343, Note_off_c, 0, 103, 64
2, 90360, Note_on_c, 0, 103, 110
2, 90403, Note_off_c, 0, 103, 64
2, 90420, Note_on_c, 0, 103, 110
2, 90463, Note_off_c, 0, 103, 64
2, 90480, Note_on_c, 0, 103, 110
2, 90523, Note_off_c, 0, 103, 64
2, 90540, Note_on_c, 0, 103, 110
2, 90583, Note_off_c, 0, 103, 64
2, 90600, Note_on_c, 0, 103, 110
2, 90643, Note_off_c, 0, 103, 64
2, 90660, Note_on_c, 0, 103, 110
2, 90703, Note_off_c, 0, 103, 64
2, 90720, Note_on_c, 0, 103, 110
2, 90763, Note_off_c, 0, 103, 64
2, 90780, Note_on_c, 0, 103, 110
2, 90823, Note_off_c, 0, 103, 64
2, 90840, Note_on_c, 0, 103, 110
2, 90883, Note_off_c, 0, 103, 64
2, 90900, Note_on_c, 0, 103, 110
2, 90943, Note_off_c, 0, 103, 64
2, 90960, Note_on_c, 0, 103, 110
2, 91003, Note_off_c, 0, 103, 64
2, 91020, Note_on_c, 0, 103, 110
2, 91063, Note_off_c, 0, 103, 64
2, 91080, Note_on_c, 0, 103, 110
2, 91123, Note_off_c, 0, 103, 64
2, 91140, Note_on_c, 0, 103, 110
2, 91183, Note_off_c, 0, 103, 64
2, 91200, Note_on_c, 0, 105, 110
2, 91243, Note_off_c, 0, 105, 64
2, 91260, Note_on_c, 0, 105, 110
2, 91303, Note_off_c, 0, 105, 64
2, 91320, Note_on_c, 0, 105, 110
2, 91363, Note_off_c, 0, 105, 64
2, 91380, Note_on_c, 0, 105, 110
2, 91423, Note_off_c, 0, 105, 64
2, 91440, Note_on_c, 0, 105, 110
2, 91483, Note_off_c, 0, 105, 64
2, 91500, Note_on_c, 0, 105, 110
2, 91543, Note_off_c, 0, 105, 64
2, 91560, Note_on_c, 0, 105, 110
2, 91603, Note_off_c, 0, 105, 64
2, 91620, Note_on_c, 0, 105, 110
2, 91663, Note_off_c, 0, 105, 64
2, 91680, Note_on_c, 0, 105, 110
2, 91723, Note_off_c, 0, 105, 64
2, 91740, Note_on_c, 0, 105, 110
2, 91783, Note_off_c, 0, 105, 64
2, 91800, Note_on_c, 0, 105, 110
2, 91843, Note_off_c, 0, 105, 64
2, 91860, Note_on_c, 0, 105, 110
2, 91903, Note_off_c, 0, 105, 64
2, 91920, Note_on_c, 0, 105, 110
2, 91963, Note_off_c, 0, 105, 64
2, 91980, Note_on_c, 0, 105, 110
2, 92023, Note_off_c, 0, 105, 64
2, 92040, Note_on_c, 0, 105, 110
2, 92083, Note_off_c, 0, 105, 64
2, 92100, Note_on_c, 0, 105, 110
2, 92143, Note_off_c, 0, 105, 64
2, 92160, Note_on_c, 0, 107, 110
2, 92203, Note_off_c, 0, 107, 64
2, 92220, Note_on_c, 0, 107, 110
2, 92263, Note_off_c, 0, 107, 64
2, 92280, Note_on_c, 0, 107, 110
2, 92323, Note_off_c, 0, 107, 64
2, 92340, Note_on_c, 0, 107, 110
2, 92383, Note_off_c, 0, 107, 64
2, 92400, Note_on_c, 0, 107, 110
2, 92443, Note_off_c, 0, 107, 64
2, 92460, Note_on_c, 0, 107, 110
2, 92503, Note_off_c, 0, 107, 64
2, 92520, Note_on_c, 0, 107, 110
2, 92563, Note_off_c, 0, 107, 64
2, 92580, Note_on_c, 0, 107, 110
2, 92623, Note_off_c, 0, 107, 64
2, 92640, Note_on_c, 0, 107, 110
2, 92683, Note_off_c, 0, 107, 64
2, 92700, Note_on_c, 0, 107, 110
2, 92743, Note_off_c, 0, 107, 64
2, 92760, Note_on_c, 0, 107, 110
2, 92803, Note_off_c, 0, 107, 64
2, 92820, Note_on_c, 0, 107, 110
2, 92863, Note_off_c, 0, 107, 64
2, 92880, Note_on_c, 0, 107, 110
2, 92923, Note_off_c, 0, 107, 64
2, 92940, Note_on_c, 0, 107, 110
2, 92983, Note_off_c, 0, 107, 64
2, 93000, Note_on_c, 0, 107, 110
2, 93043, Note_off_c, 0, 107, 64
2, 93060, Note_on_c, 0, 107, 110
2, 93103, Note_off_c, 0, 107, 64
2, 93120, Note_on_c, 0, 108, 110
2, 93163, Note_off_c, 0, 108, 64
2, 93180, Note_on_c, 0, 108, 110
2, 93223, Note_off_c, 0, 108, 64
2, 93240, Note_on_c, 0, 108, 110
2, 93283, Note_off_c, 0, 108, 64
2, 93300, Note_on_c, 0, 108, 110
2, 93343, Note_off_c, 0, 108, 64
2, 93360, Note_on_c, 0, 108, 110
2, 93403, Note_off_c, 0, 108, 64
2, 93420, Note_on_c, 0, 108, 110
2, 93463, Note_off_c, 0, 108, 64
2, 93480, Note_on_c, 0, 108, 110
2, 93523, Note_off_c, 0, 108, 64
2, 93540, Note_on_c, 0, 108, 110
2, 93583, Note_off_c, 0, 108, 64
2, 93600, Note_on_c, 0, 108, 110
2, 93643, Note_off_c, 0, 108, 64
2, 93660, Note_on_c, 0, 108, 110
2, 93703, Note_off_c, 0, 108, 64
2, 93720, Note_on_c, 0, 108, 110
2, 93763, Note_off_c, 0, 108, 64
2, 93780, Note_on_c, 0, 108, 110
2, 93823, Note_off_c, 0, 108, 64
2, 93840, Note_on_c, 0, 108, 110
2, 93883, Note_off_c, 0, 108, 64
2, 93900, Note_on_c, 0, 108, 110
2, 93943, Note_off_c, 0, 108, 64
2, 93960, Note_on_c, 0, 108, 110
2, 94003, Note_off_c, 0, 108, 64
2, 94020, Note_on_c, 0, 108, 110
2, 94063, Note_off_c, 0, 108, 64
2, 96000, Pitch_bend_c, 0, 8192
2, 96000, End_track
3, 0, Start_track
3, 0, Title_t, "I Am The Walrus"
3, 0, Control_c, 1, 93, 0
3, 0, Control_c, 1, 91, 28
3, 0, Control_c, 1, 10, 64
3, 12, Program_c, 1, 32
3, 12, Control_c, 1, 7, 100
3, 5760, Note_on_c, 1, 38, 124
3, 5842, Note_off_c, 1, 38, 64
3, 5880, Note_on_c, 1, 38, 124
3, 5962, Note_off_c, 1, 38, 64
3, 6000, Note_on_c, 1, 38, 125
3, 6166, Note_off_c, 1, 38, 64
3, 6240, Note_on_c, 1, 38, 124
3, 6322, Note_off_c, 1, 38, 64
3, 6360, Note_on_c, 1, 38, 124
3, 6442, Note_off_c, 1, 38, 64
3, 6480, Note_on_c, 1, 38, 125
3, 6646, Note_off_c, 1, 38, 64
3, 6720, Note_on_c, 1, 38, 124
3, 6802, Note_off_c, 1, 38, 64
3, 6840, Note_on_c, 1, 38, 124
3, 6922, Note_off_c, 1, 38, 64
3, 6960, Note_on_c, 1, 38, 124
3, 7042, Note_off_c, 1, 38, 64
3, 7080, Note_on_c, 1, 38, 124
3, 7162, Note_off_c, 1, 38, 64
3, 7200, Note_on_c, 1, 38, 124
3, 7282, Note_off_c, 1, 38, 64
3, 7320, Note_on_c, 1, 38, 124
3, 7402, Note_off_c, 1, 38, 64
3, 7440, Note_on_c, 1, 42, 127
3, 7522, Note_off_c, 1, 42, 64
3, 7560, Note_on_c, 1, 43, 127
3, 7642, Note_off_c, 1, 43, 64
3, 7680, Note_on_c, 1, 45, 125
3, 7846, Note_off_c, 1, 45, 64
3, 7920, Note_on_c, 1, 45, 127
3, 8086, Note_off_c, 1, 45, 64
3, 8160, Note_on_c, 1, 43, 124
3, 8326, Note_off_c, 1, 43, 64
3, 8400, Note_on_c, 1, 43, 127
3, 8566, Note_off_c, 1, 43, 64
3, 8640, Note_on_c, 1, 36, 125
3, 8806, Note_off_c, 1, 36, 64
3, 8880, Note_on_c, 1, 36, 127
3, 9046, Note_off_c, 1, 36, 64
3, 9120, Note_on_c, 1, 38, 124
3, 9198, Note_off_c, 1, 38, 64
3, 9240, Note_on_c, 1, 38, 124
3, 9318, Note_off_c, 1, 38, 64
3, 9360, Note_on_c, 1, 40, 127
3, 9454, Note_off_c, 1, 40, 64
3, 9480, Note_on_c, 1, 43, 127
3, 9574, Note_off_c, 1, 43, 64
3, 9600, Note_on_c, 1, 45, 125
3, 9766, Note_off_c, 1, 45, 64
3, 9840, Note_on_c, 1, 45, 127
3, 10006, Note_off_c, 1, 45, 64
3, 10080, Note_on_c, 1, 43, 124
3, 10246, Note_off_c, 1, 43, 64
3, 10320, Note_on_c, 1, 43, 127
3, 10486, Note_off_c, 1, 43, 64
3, 10560, Note_on_c, 1, 36, 125
3, 10662, Note_off_c, 1, 36, 64
3, 10680, Note_on_c, 1, 36, 125
3, 10782, Note_off_c, 1, 36, 64
3, 10800, Note_on_c, 1, 36, 127
3, 10966, Note_off_c, 1, 36, 64
3, 11040, Note_on_c, 1, 36, 125
3, 11142, Note_off_c, 1, 36, 64
3, 11160, Note_on_c, 1, 36, 125
3, 11262, Note_off_c, 1, 36, 64
3, 11280, Note_on_c, 1, 36, 127
3, 11446, Note_off_c, 1, 36, 64
3, 11520, Note_on_c, 1, 38, 125
3, 11622, Note_off_c, 1, 38, 64
3, 11640, Note_on_c, 1, 38, 125
3, 11742, Note_off_c, 1, 38, 64
3, 11760, Note_on_c, 1, 38, 127
3, 11926, Note_off_c, 1, 38, 64
3, 12000, Note_on_c, 1, 38, 125
3, 12102, Note_off_c, 1, 38, 64
3, 12120, Note_on_c, 1, 38, 125
3, 12222, Note_off_c, 1, 38, 64
3, 12240, Note_on_c, 1, 38, 127
3, 12406, Note_off_c, 1, 38, 64
3, 12480, Note_on_c, 1, 45, 125
3, 13402, Note_off_c, 1, 45, 64
3, 13440, Note_on_c, 1, 45, 125
3, 13542, Note_off_c, 1, 45, 64
3, 13560, Note_on_c, 1, 45, 125
3, 13662, Note_off_c, 1, 45, 64
3, 13680, Note_on_c, 1, 45, 127
3, 13846, Note_off_c, 1, 45, 64
3, 13920, Note_on_c, 1, 43, 125
3, 14022, Note_off_c, 1, 43, 64
3, 14040, Note_on_c, 1, 43, 125
3, 14142, Note_off_c, 1, 43, 64
3, 14160, Note_on_c, 1, 43, 127
3, 14326, Note_off_c, 1, 43, 64
3, 14400, Note_on_c, 1, 42, 125
3, 14502, Note_off_c, 1, 42, 64
3, 14520, Note_on_c, 1, 42, 125
3, 14622, Note_off_c, 1, 42, 64
3, 14640, Note_on_c, 1, 42, 127
3, 14806, Note_off_c, 1, 42, 64
3, 14880, Note_on_c, 1, 41, 125
3, 14982, Note_off_c, 1, 41, 64
3, 15000, Note_on_c, 1, 41, 125
3, 15102, Note_off_c, 1, 41, 64
3, 15120, Note_on_c, 1, 43, 127
3, 15286, Note_off_c, 1, 43, 64
3, 15360, Note_on_c, 1, 45, 125
3, 15462, Note_off_c, 1, 45, 64
3, 15480, Note_on_c, 1, 45, 125
3, 15582, Note_off_c, 1, 45, 64
3, 15600, Note_on_c, 1, 45, 127
3, 15766, Note_off_c, 1, 45, 64
3, 15840, Note_on_c, 1, 43, 125
3, 15942, Note_off_c, 1, 43, 64
3, 15960, Note_on_c, 1, 43, 125
3, 16062, Note_off_c, 1, 43, 64
3, 16080, Note_on_c, 1, 43, 127
3, 16246, Note_off_c, 1, 43, 64
3, 16320, Note_on_c, 1, 41, 125
3, 16426, Note_off_c, 1, 41, 64
3, 16440, Note_on_c, 1, 41, 125
3, 16546, Note_off_c, 1, 41, 64
3, 16560, Note_on_c, 1, 41, 127
3, 16666, Note_off_c, 1, 41, 64
3, 16680, Note_on_c, 1, 41, 127
3, 16786, Note_off_c, 1, 41, 64
3, 16800, Note_on_c, 1, 41, 124
3, 16906, Note_off_c, 1, 41, 64
3, 16920, Note_on_c, 1, 41, 124
3, 17026, Note_off_c, 1, 41, 64
3, 17040, Note_on_c, 1, 41, 127
3, 17146, Note_off_c, 1, 41, 64
3, 17160, Note_on_c, 1, 41, 127
3, 17266, Note_off_c, 1, 41, 64
3, 17280, Note_on_c, 1, 35, 125
3, 17386, Note_off_c, 1, 35, 64
3, 17400, Note_on_c, 1, 35, 125
3, 17506, Note_off_c, 1, 35, 64
3, 17520, Note_on_c, 1, 35, 127
3, 17626, Note_off_c, 1, 35, 64
3, 17640, Note_on_c, 1, 35, 127
3, 17740, Note_off_c, 1, 35, 64
3, 17760, Note_on_c, 1, 35, 124
3, 17866, Note_off_c, 1, 35, 64
3, 17880, Note_on_c, 1, 31, 124
3, 17986, Note_off_c, 1, 31, 64
3, 18000, Note_on_c, 1, 33, 127
3, 18106, Note_off_c, 1, 33, 64
3, 18120, Note_on_c, 1, 35, 127
3, 18226, Note_off_c, 1, 35, 64
3, 18240, Note_on_c, 1, 35, 125
3, 18346, Note_off_c, 1, 35, 64
3, 18360, Note_on_c, 1, 35, 125
3, 18466, Note_off_c, 1, 35, 64
3, 18480, Note_on_c, 1, 35, 127
3, 18586, Note_off_c, 1, 35, 64
3, 18600, Note_on_c, 1, 35, 127
3, 18706, Note_off_c, 1, 35, 64
3, 18720, Note_on_c, 1, 35, 124
3, 18826, Note_off_c, 1, 35, 64
3, 18840, Note_on_c, 1, 30, 124
3, 18946, Note_off_c, 1, 30, 64
3, 18960, Note_on_c, 1, 35, 127
3, 19066, Note_off_c, 1, 35, 64
3, 19080, Note_on_c, 1, 36, 127
3, 19186, Note_off_c, 1, 36, 64
3, 19200, Note_on_c, 1, 36, 124
3, 19306, Note_off_c, 1, 36, 64
3, 19320, Note_on_c, 1, 36, 124
3, 19426, Note_off_c, 1, 36, 64
3, 19440, Note_on_c, 1, 36, 127
3, 19546, Note_off_c, 1, 36, 64
3, 19560, Note_on_c, 1, 31, 127
3, 19666, Note_off_c, 1, 31, 64
3, 19680, Note_on_c, 1, 36, 124
3, 19786, Note_off_c, 1, 36, 64
3, 19800, Note_on_c, 1, 31, 124
3, 19906, Note_off_c, 1, 31, 64
3, 19920, Note_on_c, 1, 36, 127
3, 20026, Note_off_c, 1, 36, 64
3, 20040, Note_on_c, 1, 31, 127
3, 20146, Note_off_c, 1, 31, 64
3, 20160, Note_on_c, 1, 38, 124
3, 20266, Note_off_c, 1, 38, 64
3, 20280, Note_on_c, 1, 38, 124
3, 20386, Note_off_c, 1, 38, 64
3, 20400, Note_on_c, 1, 38, 127
3, 20506, Note_off_c, 1, 38, 64
3, 20520, Note_on_c, 1, 38, 127
3, 20626, Note_off_c, 1, 38, 64
3, 20640, Note_on_c, 1, 36, 124
3, 20746, Note_off_c, 1, 36, 64
3, 20760, Note_on_c, 1, 35, 124
3, 20866, Note_off_c, 1, 35, 64
3, 20880, Note_on_c, 1, 33, 127
3, 20986, Note_off_c, 1, 33, 64
3, 21000, Note_on_c, 1, 38, 127
3, 21106, Note_off_c, 1, 38, 64
3, 21120, Note_on_c, 1, 40, 124
3, 21226, Note_off_c, 1, 40, 64
3, 21240, Note_on_c, 1, 40, 124
3, 21346, Note_off_c, 1, 40, 64
3, 21360, Note_on_c, 1, 35, 127
3, 21466, Note_off_c, 1, 35, 64
3, 21480, Note_on_c, 1, 35, 127
3, 21586, Note_off_c, 1, 35, 64
3, 21600, Note_on_c, 1, 40, 124
3, 21706, Note_off_c, 1, 40, 64
3, 21720, Note_on_c, 1, 40, 124
3, 21826, Note_off_c, 1, 40, 64
3, 21840, Note_on_c, 1, 35, 127
3, 21946, Note_off_c, 1, 35, 64
3, 21960, Note_on_c, 1, 40, 127
3, 22066, Note_off_c, 1, 40, 64
3, 22080, Note_on_c, 1, 45, 124
3, 22186, Note_off_c, 1, 45, 64
3, 22200, Note_on_c, 1, 45, 124
3, 22306, Note_off_c, 1, 45, 64
3, 22320, Note_on_c, 1, 45, 127
3, 22426, Note_off_c, 1, 45, 64
3, 22440, Note_on_c, 1, 40, 127
3, 22546, Note_off_c, 1, 40, 64
3, 22560, Note_on_c, 1, 43, 124
3, 22666, Note_off_c, 1, 43, 64
3, 22680, Note_on_c, 1, 43, 124
3, 22786, Note_off_c, 1, 43, 64
3, 22800, Note_on_c, 1, 43, 127
3, 22906, Note_off_c, 1, 43, 64
3, 22920, Note_on_c, 1, 38, 127
3, 23026, Note_off_c, 1, 38, 64
3, 23040, Note_on_c, 1, 36, 125
3, 23206, Note_off_c, 1, 36, 64
3, 23280, Note_on_c, 1, 36, 127
3, 23374, Note_off_c, 1, 36, 64
3, 23400, Note_on_c, 1, 31, 127
3, 23494, Note_off_c, 1, 31, 64
3, 23520, Note_on_c, 1, 38, 127
3, 23614, Note_off_c, 1, 38, 64
3, 23640, Note_on_c, 1, 38, 127
3, 23734, Note_off_c, 1, 38, 64
3, 23760, Note_on_c, 1, 40, 127
3, 23854, Note_off_c, 1, 40, 64
3, 23880, Note_on_c, 1, 43, 127
3, 23974, Note_off_c, 1, 43, 64
3, 24000, Note_on_c, 1, 45, 125
3, 24166, Note_off_c, 1, 45, 64
3, 24240, Note_on_c, 1, 45, 127
3, 24334, Note_off_c, 1, 45, 64
3, 24360, Note_on_c, 1, 40, 127
3, 24454, Note_off_c, 1, 40, 64
3, 24480, Note_on_c, 1, 43, 127
3, 24574, Note_off_c, 1, 43, 64
3, 24600, Note_on_c, 1, 43, 127
3, 24694, Note_off_c, 1, 43, 64
3, 24720, Note_on_c, 1, 40, 127
3, 24814, Note_off_c, 1, 40, 64
3, 24840, Note_on_c, 1, 38, 127
3, 24934, Note_off_c, 1, 38, 64
3, 24960, Note_on_c, 1, 36, 127
3, 25054, Note_off_c, 1, 36, 64
3, 25080, Note_on_c, 1, 36, 127
3, 25174, Note_off_c, 1, 36, 64
3, 25200, Note_on_c, 1, 31, 127
3, 25294, Note_off_c, 1, 31, 64
3, 25320, Note_on_c, 1, 31, 127
3, 25414, Note_off_c, 1, 31, 64
3, 25440, Note_on_c, 1, 36, 127
3, 25534, Note_off_c, 1, 36, 64
3, 25560, Note_on_c, 1, 36, 127
3, 25654, Note_off_c, 1, 36, 64
3, 25680, Note_on_c, 1, 31, 127
3, 25774, Note_off_c, 1, 31, 64
3, 25800, Note_on_c, 1, 36, 127
3, 25894, Note_off_c, 1, 36, 64
3, 25920, Note_on_c, 1, 38, 127
3, 26014, Note_off_c, 1, 38, 64
3, 26040, Note_on_c, 1, 38, 127
3, 26134, Note_off_c, 1, 38, 64
3, 26160, Note_on_c, 1, 33, 127
3, 26254, Note_off_c, 1, 33, 64
3, 26280, Note_on_c, 1, 33, 127
3, 26374, Note_off_c, 1, 33, 64
3, 26400, Note_on_c, 1, 38, 127
3, 26494, Note_off_c, 1, 38, 64
3, 26520, Note_on_c, 1, 38, 127
3, 26614, Note_off_c, 1, 38, 64
3, 26640, Note_on_c, 1, 33, 127
3, 26734, Note_off_c, 1, 33, 64
3, 26760, Note_on_c, 1, 38, 127
3, 26854, Note_off_c, 1, 38, 64
3, 26880, Note_on_c, 1, 45, 125
3, 27120, Note_on_c, 1, 45, 127
3, 27124, Note_off_c, 1, 45, 64
3, 27124, Note_off_c, 1, 45, 64
3, 27240, Note_on_c, 1, 45, 127
3, 27334, Note_off_c, 1, 45, 64
3, 27360, Note_on_c, 1, 45, 127
3, 27454, Note_off_c, 1, 45, 64
3, 27480, Note_on_c, 1, 43, 127
3, 27574, Note_off_c, 1, 43, 64
3, 27600, Note_on_c, 1, 40, 127
3, 27694, Note_off_c, 1, 40, 64
3, 27720, Note_on_c, 1, 36, 127
3, 27814, Note_off_c, 1, 36, 64
3, 27840, Note_on_c, 1, 38, 127
3, 28078, Note_off_c, 1, 38, 64
3, 28080, Note_on_c, 1, 38, 127
3, 28174, Note_off_c, 1, 38, 64
3, 28200, Note_on_c, 1, 38, 127
3, 28294, Note_off_c, 1, 38, 64
3, 28320, Note_on_c, 1, 38, 127
3, 28414, Note_off_c, 1, 38, 64
3, 28440, Note_on_c, 1, 38, 127
3, 28534, Note_off_c, 1, 38, 64
3, 28560, Note_on_c, 1, 38, 127
3, 28654, Note_off_c, 1, 38, 64
3, 28680, Note_on_c, 1, 38, 127
3, 28774, Note_off_c, 1, 38, 64
3, 28800, Note_on_c, 1, 38, 127
3, 28894, Note_off_c, 1, 38, 64
3, 28920, Note_on_c, 1, 38, 127
3, 29014, Note_off_c, 1, 38, 64
3, 29040, Note_on_c, 1, 38, 127
3, 29134, Note_off_c, 1, 38, 64
3, 29160, Note_on_c, 1, 38, 127
3, 29254, Note_off_c, 1, 38, 64
3, 29280, Note_on_c, 1, 38, 127
3, 29374, Note_off_c, 1, 38, 64
3, 29400, Note_on_c, 1, 38, 127
3, 29494, Note_off_c, 1, 38, 64
3, 29520, Note_on_c, 1, 38, 127
3, 29614, Note_off_c, 1, 38, 64
3, 29640, Note_on_c, 1, 38, 127
3, 29734, Note_off_c, 1, 38, 64
3, 29760, Note_on_c, 1, 45, 127
3, 29854, Note_off_c, 1, 45, 64
3, 29880, Note_on_c, 1, 45, 127
3, 29974, Note_off_c, 1, 45, 64
3, 30000, Note_on_c, 1, 45, 127
3, 30094, Note_off_c, 1, 45, 64
3, 30120, Note_on_c, 1, 45, 127
3, 30214, Note_off_c, 1, 45, 64
3, 30240, Note_on_c, 1, 45, 127
3, 30334, Note_off_c, 1, 45, 64
3, 30360, Note_on_c, 1, 45, 127
3, 30454, Note_off_c, 1, 45, 64
3, 30480, Note_on_c, 1, 45, 127
3, 30574, Note_off_c, 1, 45, 64
3, 30600, Note_on_c, 1, 43, 127
3, 30694, Note_off_c, 1, 43, 64
3, 30720, Note_on_c, 1, 40, 127
3, 30814, Note_off_c, 1, 40, 64
3, 30840, Note_on_c, 1, 40, 127
3, 30934, Note_off_c, 1, 40, 64
3, 30960, Note_on_c, 1, 40, 127
3, 31054, Note_off_c, 1, 40, 64
3, 31080, Note_on_c, 1, 40, 127
3, 31174, Note_off_c, 1, 40, 64
3, 31200, Note_on_c, 1, 40, 127
3, 31294, Note_off_c, 1, 40, 64
3, 31320, Note_on_c, 1, 40, 127
3, 31414, Note_off_c, 1, 40, 64
3, 31440, Note_on_c, 1, 40, 127
3, 31534, Note_off_c, 1, 40, 64
3, 31560, Note_on_c, 1, 33, 127
3, 31654, Note_off_c, 1, 33, 64
3, 31680, Note_on_c, 1, 38, 127
3, 31774, Note_off_c, 1, 38, 64
3, 31800, Note_on_c, 1, 38, 127
3, 31894, Note_off_c, 1, 38, 64
3, 31920, Note_on_c, 1, 38, 127
3, 32014, Note_off_c, 1, 38, 64
3, 32040, Note_on_c, 1, 38, 127
3, 32134, Note_off_c, 1, 38, 64
3, 32160, Note_on_c, 1, 38, 127
3, 32254, Note_off_c, 1, 38, 64
3, 32280, Note_on_c, 1, 38, 127
3, 32374, Note_off_c, 1, 38, 64
3, 32400, Note_on_c, 1, 38, 127
3, 32494, Note_off_c, 1, 38, 64
3, 32520, Note_on_c, 1, 38, 127
3, 32614, Note_off_c, 1, 38, 64
3, 32640, Note_on_c, 1, 45, 125
3, 32742, Note_off_c, 1, 45, 64
3, 32760, Note_on_c, 1, 45, 125
3, 32862, Note_off_c, 1, 45, 64
3, 32880, Note_on_c, 1, 45, 127
3, 33046, Note_off_c, 1, 45, 64
3, 33120, Note_on_c, 1, 43, 125
3, 33222, Note_off_c, 1, 43, 64
3, 33240, Note_on_c, 1, 43, 125
3, 33342, Note_off_c, 1, 43, 64
3, 33360, Note_on_c, 1, 43, 127
3, 33526, Note_off_c, 1, 43, 64
3, 33600, Note_on_c, 1, 42, 125
3, 33702, Note_off_c, 1, 42, 64
3, 33720, Note_on_c, 1, 42, 125
3, 33822, Note_off_c, 1, 42, 64
3, 33840, Note_on_c, 1, 42, 127
3, 34006, Note_off_c, 1, 42, 64
3, 34080, Note_on_c, 1, 41, 125
3, 34182, Note_off_c, 1, 41, 64
3, 34200, Note_on_c, 1, 41, 125
3, 34302, Note_off_c, 1, 41, 64
3, 34320, Note_on_c, 1, 43, 125
3, 34422, Note_off_c, 1, 43, 64
3, 34440, Note_on_c, 1, 43, 125
3, 34542, Note_off_c, 1, 43, 64
3, 34560, Note_on_c, 1, 45, 125
3, 34662, Note_off_c, 1, 45, 64
3, 34680, Note_on_c, 1, 45, 125
3, 34782, Note_off_c, 1, 45, 64
3, 34800, Note_on_c, 1, 45, 125
3, 34902, Note_off_c, 1, 45, 64
3, 34920, Note_on_c, 1, 45, 125
3, 35022, Note_off_c, 1, 45, 64
3, 35040, Note_on_c, 1, 43, 125
3, 35142, Note_off_c, 1, 43, 64
3, 35160, Note_on_c, 1, 43, 125
3, 35262, Note_off_c, 1, 43, 64
3, 35280, Note_on_c, 1, 43, 125
3, 35382, Note_off_c, 1, 43, 64
3, 35400, Note_on_c, 1, 43, 125
3, 35502, Note_off_c, 1, 43, 64
3, 35520, Note_on_c, 1, 41, 125
3, 35626, Note_off_c, 1, 41, 64
3, 35640, Note_on_c, 1, 41, 125
3, 35746, Note_off_c, 1, 41, 64
3, 35760, Note_on_c, 1, 41, 127
3, 35866, Note_off_c, 1, 41, 64
3, 35880, Note_on_c, 1, 36, 127
3, 35986, Note_off_c, 1, 36, 64
3, 36000, Note_on_c, 1, 41, 124
3, 36106, Note_off_c, 1, 41, 64
3, 36120, Note_on_c, 1, 41, 124
3, 36226, Note_off_c, 1, 41, 64
3, 36240, Note_on_c, 1, 41, 127
3, 36346, Note_off_c, 1, 41, 64
3, 36360, Note_on_c, 1, 36, 127
3, 36466, Note_off_c, 1, 36, 64
3, 36480, Note_on_c, 1, 35, 125
3, 36586, Note_off_c, 1, 35, 64
3, 36600, Note_on_c, 1, 35, 125
3, 36706, Note_off_c, 1, 35, 64
3, 36720, Note_on_c, 1, 35, 127
3, 36826, Note_off_c, 1, 35, 64
3, 36840, Note_on_c, 1, 35, 127
3, 36940, Note_off_c, 1, 35, 64
3, 36960, Note_on_c, 1, 35, 124
3, 37066, Note_off_c, 1, 35, 64
3, 37080, Note_on_c, 1, 31, 124
3, 37186, Note_off_c, 1, 31, 64
3, 37200, Note_on_c, 1, 33, 127
3, 37306, Note_off_c, 1, 33, 64
3, 37320, Note_on_c, 1, 35, 127
3, 37426, Note_off_c, 1, 35, 64
3, 37440, Note_on_c, 1, 35, 125
3, 37546, Note_off_c, 1, 35, 64
3, 37560, Note_on_c, 1, 35, 125
3, 37666, Note_off_c, 1, 35, 64
3, 37680, Note_on_c, 1, 35, 127
3, 37786, Note_off_c, 1, 35, 64
3, 37800, Note_on_c, 1, 35, 127
3, 37906, Note_off_c, 1, 35, 64
3, 37920, Note_on_c, 1, 35, 124
3, 38026, Note_off_c, 1, 35, 64
3, 38040, Note_on_c, 1, 30, 124
3, 38146, Note_off_c, 1, 30, 64
3, 38160, Note_on_c, 1, 33, 127
3, 38266, Note_off_c, 1, 33, 64
3, 38280, Note_on_c, 1, 35, 127
3, 38386, Note_off_c, 1, 35, 64
3, 38400, Note_on_c, 1, 36, 124
3, 38506, Note_off_c, 1, 36, 64
3, 38520, Note_on_c, 1, 36, 124
3, 38626, Note_off_c, 1, 36, 64
3, 38640, Note_on_c, 1, 36, 127
3, 38746, Note_off_c, 1, 36, 64
3, 38760, Note_on_c, 1, 31, 127
3, 38866, Note_off_c, 1, 31, 64
3, 38880, Note_on_c, 1, 36, 124
3, 38986, Note_off_c, 1, 36, 64
3, 39000, Note_on_c, 1, 31, 124
3, 39106, Note_off_c, 1, 31, 64
3, 39120, Note_on_c, 1, 36, 127
3, 39226, Note_off_c, 1, 36, 64
3, 39240, Note_on_c, 1, 31, 127
3, 39346, Note_off_c, 1, 31, 64
3, 39360, Note_on_c, 1, 38, 124
3, 39466, Note_off_c, 1, 38, 64
3, 39480, Note_on_c, 1, 38, 124
3, 39586, Note_off_c, 1, 38, 64
3, 39600, Note_on_c, 1, 38, 127
3, 39706, Note_off_c, 1, 38, 64
3, 39720, Note_on_c, 1, 38, 127
3, 39826, Note_off_c, 1, 38, 64
3, 39840, Note_on_c, 1, 36, 124
3, 39946, Note_off_c, 1, 36, 64
3, 39960, Note_on_c, 1, 35, 124
3, 40066, Note_off_c, 1, 35, 64
3, 40080, Note_on_c, 1, 33, 127
3, 40186, Note_off_c, 1, 33, 64
3, 40200, Note_on_c, 1, 38, 127
3, 40306, Note_off_c, 1, 38, 64
3, 40320, Note_on_c, 1, 40, 124
3, 40426, Note_off_c, 1, 40, 64
3, 40440, Note_on_c, 1, 40, 124
3, 40546, Note_off_c, 1, 40, 64
3, 40560, Note_on_c, 1, 35, 127
3, 40666, Note_off_c, 1, 35, 64
3, 40680, Note_on_c, 1, 35, 127
3, 40786, Note_off_c, 1, 35, 64
3, 40800, Note_on_c, 1, 40, 124
3, 40906, Note_off_c, 1, 40, 64
3, 40920, Note_on_c, 1, 40, 124
3, 41026, Note_off_c, 1, 40, 64
3, 41040, Note_on_c, 1, 35, 127
3, 41146, Note_off_c, 1, 35, 64
3, 41160, Note_on_c, 1, 40, 127
3, 41266, Note_off_c, 1, 40, 64
3, 45120, Note_on_c, 1, 47, 125
3, 45307, Note_off_c, 1, 47, 64
3, 45360, Note_on_c, 1, 47, 127
3, 45547, Note_off_c, 1, 47, 64
3, 45600, Note_on_c, 1, 45, 124
3, 45787, Note_off_c, 1, 45, 64
3, 45840, Note_on_c, 1, 45, 127
3, 46027, Note_off_c, 1, 45, 64
3, 46080, Note_on_c, 1, 43, 125
3, 46267, Note_off_c, 1, 43, 64
3, 46320, Note_on_c, 1, 43, 127
3, 46507, Note_off_c, 1, 43, 64
3, 46560, Note_on_c, 1, 41, 124
3, 46747, Note_off_c, 1, 41, 64
3, 46800, Note_on_c, 1, 41, 127
3, 46987, Note_off_c, 1, 41, 64
3, 47040, Note_on_c, 1, 40, 124
3, 47227, Note_off_c, 1, 40, 64
3, 47280, Note_on_c, 1, 40, 127
3, 47467, Note_off_c, 1, 40, 64
3, 47520, Note_on_c, 1, 41, 124
3, 47707, Note_off_c, 1, 41, 64
3, 47760, Note_on_c, 1, 41, 127
3, 47926, Note_off_c, 1, 41, 64
3, 48000, Note_on_c, 1, 35, 125
3, 48106, Note_off_c, 1, 35, 64
3, 48120, Note_on_c, 1, 35, 125
3, 48226, Note_off_c, 1, 35, 64
3, 48240, Note_on_c, 1, 35, 127
3, 48346, Note_off_c, 1, 35, 64
3, 48360, Note_on_c, 1, 35, 127
3, 48460, Note_off_c, 1, 35, 64
3, 48480, Note_on_c, 1, 35, 124
3, 48586, Note_off_c, 1, 35, 64
3, 48600, Note_on_c, 1, 31, 124
3, 48706, Note_off_c, 1, 31, 64
3, 48720, Note_on_c, 1, 33, 127
3, 48826, Note_off_c, 1, 33, 64
3, 48840, Note_on_c, 1, 35, 127
3, 48946, Note_off_c, 1, 35, 64
3, 48960, Note_on_c, 1, 35, 125
3, 49066, Note_off_c, 1, 35, 64
3, 49080, Note_on_c, 1, 35, 125
3, 49186, Note_off_c, 1, 35, 64
3, 49200, Note_on_c, 1, 35, 127
3, 49306, Note_off_c, 1, 35, 64
3, 49320, Note_on_c, 1, 35, 127
3, 49426, Note_off_c, 1, 35, 64
3, 49440, Note_on_c, 1, 35, 124
3, 49546, Note_off_c, 1, 35, 64
3, 49560, Note_on_c, 1, 30, 124
3, 49666, Note_off_c, 1, 30, 64
3, 49680, Note_on_c, 1, 33, 127
3, 49786, Note_off_c, 1, 33, 64
3, 49800, Note_on_c, 1, 35, 127
3, 49906, Note_off_c, 1, 35, 64
3, 49920, Note_on_c, 1, 36, 124
3, 50026, Note_off_c, 1, 36, 64
3, 50040, Note_on_c, 1, 36, 124
3, 50146, Note_off_c, 1, 36, 64
3, 50160, Note_on_c, 1, 36, 127
3, 50266, Note_off_c, 1, 36, 64
3, 50280, Note_on_c, 1, 31, 127
3, 50386, Note_off_c, 1, 31, 64
3, 50400, Note_on_c, 1, 36, 124
3, 50506, Note_off_c, 1, 36, 64
3, 50520, Note_on_c, 1, 31, 124
3, 50626, Note_off_c, 1, 31, 64
3, 50640, Note_on_c, 1, 36, 127
3, 50746, Note_off_c, 1, 36, 64
3, 50760, Note_on_c, 1, 40, 127
3, 50866, Note_off_c, 1, 40, 64
3, 50880, Note_on_c, 1, 42, 124
3, 50986, Note_off_c, 1, 42, 64
3, 51000, Note_on_c, 1, 42, 124
3, 51106, Note_off_c, 1, 42, 64
3, 51120, Note_on_c, 1, 42, 127
3, 51226, Note_off_c, 1, 42, 64
3, 51240, Note_on_c, 1, 42, 127
3, 51346, Note_off_c, 1, 42, 64
3, 51360, Note_on_c, 1, 42, 124
3, 51466, Note_off_c, 1, 42, 64
3, 51480, Note_on_c, 1, 33, 124
3, 51586, Note_off_c, 1, 33, 64
3, 51600, Note_on_c, 1, 38, 127
3, 51706, Note_off_c, 1, 38, 64
3, 51720, Note_on_c, 1, 33, 127
3, 51826, Note_off_c, 1, 33, 64
3, 51840, Note_on_c, 1, 40, 124
3, 51946, Note_off_c, 1, 40, 64
3, 51960, Note_on_c, 1, 40, 124
3, 52066, Note_off_c, 1, 40, 64
3, 52080, Note_on_c, 1, 35, 127
3, 52186, Note_off_c, 1, 35, 64
3, 52200, Note_on_c, 1, 35, 127
3, 52306, Note_off_c, 1, 35, 64
3, 52320, Note_on_c, 1, 40, 124
3, 52426, Note_off_c, 1, 40, 64
3, 52440, Note_on_c, 1, 40, 124
3, 52546, Note_off_c, 1, 40, 64
3, 52560, Note_on_c, 1, 35, 127
3, 52666, Note_off_c, 1, 35, 64
3, 52680, Note_on_c, 1, 40, 127
3, 52786, Note_off_c, 1, 40, 64
3, 52800, Note_on_c, 1, 38, 124
3, 52906, Note_off_c, 1, 38, 64
3, 52920, Note_on_c, 1, 38, 124
3, 53026, Note_off_c, 1, 38, 64
3, 53040, Note_on_c, 1, 33, 127
3, 53146, Note_off_c, 1, 33, 64
3, 53160, Note_on_c, 1, 33, 127
3, 53266, Note_off_c, 1, 33, 64
3, 53280, Note_on_c, 1, 38, 124
3, 53386, Note_off_c, 1, 38, 64
3, 53400, Note_on_c, 1, 38, 124
3, 53506, Note_off_c, 1, 38, 64
3, 53520, Note_on_c, 1, 33, 127
3, 53626, Note_off_c, 1, 33, 64
3, 53640, Note_on_c, 1, 38, 127
3, 53746, Note_off_c, 1, 38, 64
3, 53760, Note_on_c, 1, 45, 124
3, 53866, Note_off_c, 1, 45, 64
3, 53880, Note_on_c, 1, 45, 124
3, 53986, Note_off_c, 1, 45, 64
3, 54000, Note_on_c, 1, 45, 127
3, 54106, Note_off_c, 1, 45, 64
3, 54120, Note_on_c, 1, 40, 127
3, 54226, Note_off_c, 1, 40, 64
3, 54240, Note_on_c, 1, 43, 124
3, 54346, Note_off_c, 1, 43, 64
3, 54360, Note_on_c, 1, 43, 124
3, 54466, Note_off_c, 1, 43, 64
3, 54480, Note_on_c, 1, 43, 127
3, 54586, Note_off_c, 1, 43, 64
3, 54600, Note_on_c, 1, 38, 127
3, 54706, Note_off_c, 1, 38, 64
3, 54720, Note_on_c, 1, 36, 125
3, 54886, Note_off_c, 1, 36, 64
3, 54960, Note_on_c, 1, 36, 127
3, 55054, Note_off_c, 1, 36, 64
3, 55080, Note_on_c, 1, 31, 127
3, 55174, Note_off_c, 1, 31, 64
3, 55200, Note_on_c, 1, 38, 127
3, 55294, Note_off_c, 1, 38, 64
3, 55320, Note_on_c, 1, 38, 127
3, 55414, Note_off_c, 1, 38, 64
3, 55440, Note_on_c, 1, 40, 127
3, 55534, Note_off_c, 1, 40, 64
3, 55560, Note_on_c, 1, 43, 127
3, 55654, Note_off_c, 1, 43, 64
3, 55680, Note_on_c, 1, 45, 125
3, 55846, Note_off_c, 1, 45, 64
3, 55920, Note_on_c, 1, 45, 127
3, 56014, Note_off_c, 1, 45, 64
3, 56040, Note_on_c, 1, 40, 127
3, 56134, Note_off_c, 1, 40, 64
3, 56160, Note_on_c, 1, 43, 127
3, 56254, Note_off_c, 1, 43, 64
3, 56280, Note_on_c, 1, 43, 127
3, 56374, Note_off_c, 1, 43, 64
3, 56400, Note_on_c, 1, 40, 127
3, 56494, Note_off_c, 1, 40, 64
3, 56520, Note_on_c, 1, 38, 127
3, 56614, Note_off_c, 1, 38, 64
3, 56640, Note_on_c, 1, 36, 127
3, 56734, Note_off_c, 1, 36, 64
3, 56760, Note_on_c, 1, 36, 127
3, 56854, Note_off_c, 1, 36, 64
3, 56880, Note_on_c, 1, 31, 127
3, 56974, Note_off_c, 1, 31, 64
3, 57000, Note_on_c, 1, 31, 127
3, 57094, Note_off_c, 1, 31, 64
3, 57120, Note_on_c, 1, 36, 127
3, 57214, Note_off_c, 1, 36, 64
3, 57240, Note_on_c, 1, 36, 127
3, 57334, Note_off_c, 1, 36, 64
3, 57360, Note_on_c, 1, 31, 127
3, 57454, Note_off_c, 1, 31, 64
3, 57480, Note_on_c, 1, 36, 127
3, 57574, Note_off_c, 1, 36, 64
3, 57600, Note_on_c, 1, 38, 127
3, 57694, Note_off_c, 1, 38, 64
3, 57720, Note_on_c, 1, 38, 127
3, 57814, Note_off_c, 1, 38, 64
3, 57840, Note_on_c, 1, 33, 127
3, 57934, Note_off_c, 1, 33, 64
3, 57960, Note_on_c, 1, 33, 127
3, 58054, Note_off_c, 1, 33, 64
3, 58080, Note_on_c, 1, 38, 127
3, 58174, Note_off_c, 1, 38, 64
3, 58200, Note_on_c, 1, 38, 127
3, 58294, Note_off_c, 1, 38, 64
3, 58320, Note_on_c, 1, 33, 127
3, 58414, Note_off_c, 1, 33, 64
3, 58440, Note_on_c, 1, 38, 127
3, 58534, Note_off_c, 1, 38, 64
3, 58560, Note_on_c, 1, 45, 127
3, 58654, Note_off_c, 1, 45, 64
3, 58680, Note_on_c, 1, 45, 127
3, 58774, Note_off_c, 1, 45, 64
3, 58800, Note_on_c, 1, 45, 127
3, 58894, Note_off_c, 1, 45, 64
3, 58920, Note_on_c, 1, 45, 127
3, 59014, Note_off_c, 1, 45, 64
3, 59040, Note_on_c, 1, 45, 127
3, 59134, Note_off_c, 1, 45, 64
3, 59160, Note_on_c, 1, 45, 127
3, 59254, Note_off_c, 1, 45, 64
3, 59280, Note_on_c, 1, 45, 127
3, 59374, Note_off_c, 1, 45, 64
3, 59400, Note_on_c, 1, 45, 127
3, 59494, Note_off_c, 1, 45, 64
3, 59520, Note_on_c, 1, 45, 125
3, 59622, Note_off_c, 1, 45, 64
3, 59640, Note_on_c, 1, 45, 125
3, 59742, Note_off_c, 1, 45, 64
3, 59760, Note_on_c, 1, 45, 127
3, 59926, Note_off_c, 1, 45, 64
3, 60000, Note_on_c, 1, 43, 125
3, 60102, Note_off_c, 1, 43, 64
3, 60120, Note_on_c, 1, 43, 125
3, 60222, Note_off_c, 1, 43, 64
3, 60240, Note_on_c, 1, 43, 127
3, 60406, Note_off_c, 1, 43, 64
3, 60480, Note_on_c, 1, 42, 125
3, 60582, Note_off_c, 1, 42, 64
3, 60600, Note_on_c, 1, 42, 125
3, 60702, Note_off_c, 1, 42, 64
3, 60720, Note_on_c, 1, 42, 127
3, 60886, Note_off_c, 1, 42, 64
3, 60960, Note_on_c, 1, 41, 125
3, 61062, Note_off_c, 1, 41, 64
3, 61080, Note_on_c, 1, 41, 125
3, 61182, Note_off_c, 1, 41, 64
3, 61200, Note_on_c, 1, 43, 125
3, 61302, Note_off_c, 1, 43, 64
3, 61320, Note_on_c, 1, 43, 125
3, 61422, Note_off_c, 1, 43, 64
3, 61440, Note_on_c, 1, 45, 125
3, 61542, Note_off_c, 1, 45, 64
3, 61560, Note_on_c, 1, 45, 125
3, 61662, Note_off_c, 1, 45, 64
3, 61680, Note_on_c, 1, 45, 125
3, 61782, Note_off_c, 1, 45, 64
3, 61800, Note_on_c, 1, 45, 125
3, 61902, Note_off_c, 1, 45, 64
3, 61920, Note_on_c, 1, 43, 125
3, 62022, Note_off_c, 1, 43, 64
3, 62040, Note_on_c, 1, 43, 125
3, 62142, Note_off_c, 1, 43, 64
3, 62160, Note_on_c, 1, 43, 125
3, 62262, Note_off_c, 1, 43, 64
3, 62280, Note_on_c, 1, 43, 125
3, 62382, Note_off_c, 1, 43, 64
3, 62400, Note_on_c, 1, 41, 125
3, 62506, Note_off_c, 1, 41, 64
3, 62520, Note_on_c, 1, 41, 125
3, 62626, Note_off_c, 1, 41, 64
3, 62640, Note_on_c, 1, 41, 127
3, 62746, Note_off_c, 1, 41, 64
3, 62760, Note_on_c, 1, 36, 127
3, 62866, Note_off_c, 1, 36, 64
3, 62880, Note_on_c, 1, 41, 124
3, 62986, Note_off_c, 1, 41, 64
3, 63000, Note_on_c, 1, 41, 124
3, 63106, Note_off_c, 1, 41, 64
3, 63120, Note_on_c, 1, 41, 127
3, 63226, Note_off_c, 1, 41, 64
3, 63240, Note_on_c, 1, 36, 127
3, 63346, Note_off_c, 1, 36, 64
3, 63360, Note_on_c, 1, 35, 125
3, 63466, Note_off_c, 1, 35, 64
3, 63480, Note_on_c, 1, 35, 125
3, 63586, Note_off_c, 1, 35, 64
3, 63600, Note_on_c, 1, 35, 127
3, 63706, Note_off_c, 1, 35, 64
3, 63720, Note_on_c, 1, 35, 127
3, 63820, Note_off_c, 1, 35, 64
3, 63840, Note_on_c, 1, 35, 124
3, 63946, Note_off_c, 1, 35, 64
3, 63960, Note_on_c, 1, 31, 124
3, 64066, Note_off_c, 1, 31, 64
3, 64080, Note_on_c, 1, 33, 127
3, 64186, Note_off_c, 1, 33, 64
3, 64200, Note_on_c, 1, 35, 127
3, 64306, Note_off_c, 1, 35, 64
3, 64320, Note_on_c, 1, 35, 125
3, 64426, Note_off_c, 1, 35, 64
3, 64440, Note_on_c, 1, 35, 125
3, 64546, Note_off_c, 1, 35, 64
3, 64560, Note_on_c, 1, 35, 127
3, 64666, Note_off_c, 1, 35, 64
3, 64680, Note_on_c, 1, 35, 127
3, 64786, Note_off_c, 1, 35, 64
3, 64800, Note_on_c, 1, 35, 124
3, 64906, Note_off_c, 1, 35, 64
3, 64920, Note_on_c, 1, 30, 124
3, 65026, Note_off_c, 1, 30, 64
3, 65040, Note_on_c, 1, 33, 127
3, 65146, Note_off_c, 1, 33, 64
3, 65160, Note_on_c, 1, 35, 127
3, 65266, Note_off_c, 1, 35, 64
3, 65280, Note_on_c, 1, 36, 124
3, 65386, Note_off_c, 1, 36, 64
3, 65400, Note_on_c, 1, 36, 124
3, 65506, Note_off_c, 1, 36, 64
3, 65520, Note_on_c, 1, 36, 127
3, 65626, Note_off_c, 1, 36, 64
3, 65640, Note_on_c, 1, 31, 127
3, 65746, Note_off_c, 1, 31, 64
3, 65760, Note_on_c, 1, 36, 124
3, 65866, Note_off_c, 1, 36, 64
3, 65880, Note_on_c, 1, 31, 124
3, 65986, Note_off_c, 1, 31, 64
3, 66000, Note_on_c, 1, 36, 127
3, 66106, Note_off_c, 1, 36, 64
3, 66120, Note_on_c, 1, 31, 127
3, 66226, Note_off_c, 1, 31, 64
3, 66240, Note_on_c, 1, 38, 124
3, 66346, Note_off_c, 1, 38, 64
3, 66360, Note_on_c, 1, 38, 124
3, 66466, Note_off_c, 1, 38, 64
3, 66480, Note_on_c, 1, 38, 127
3, 66586, Note_off_c, 1, 38, 64
3, 66600, Note_on_c, 1, 38, 127
3, 66706, Note_off_c, 1, 38, 64
3, 66720, Note_on_c, 1, 36, 124
3, 66826, Note_off_c, 1, 36, 64
3, 66840, Note_on_c, 1, 35, 124
3, 66946, Note_off_c, 1, 35, 64
3, 66960, Note_on_c, 1, 33, 127
3, 67066, Note_off_c, 1, 33, 64
3, 67080, Note_on_c, 1, 38, 127
3, 67186, Note_off_c, 1, 38, 64
3, 67200, Note_on_c, 1, 40, 124
3, 67306, Note_off_c, 1, 40, 64
3, 67320, Note_on_c, 1, 40, 124
3, 67426, Note_off_c, 1, 40, 64
3, 67440, Note_on_c, 1, 40, 127
3, 67546, Note_off_c, 1, 40, 64
3, 67560, Note_on_c, 1, 35, 127
3, 67666, Note_off_c, 1, 35, 64
3, 67680, Note_on_c, 1, 40, 124
3, 67786, Note_off_c, 1, 40, 64
3, 67800, Note_on_c, 1, 35, 124
3, 67906, Note_off_c, 1, 35, 64
3, 67920, Note_on_c, 1, 40, 127
3, 68026, Note_off_c, 1, 40, 64
3, 68040, Note_on_c, 1, 35, 127
3, 68146, Note_off_c, 1, 35, 64
3, 68160, Note_on_c, 1, 38, 124
3, 68266, Note_off_c, 1, 38, 64
3, 68280, Note_on_c, 1, 33, 124
3, 68386, Note_off_c, 1, 33, 64
3, 68400, Note_on_c, 1, 38, 127
3, 68506, Note_off_c, 1, 38, 64
3, 68520, Note_on_c, 1, 33, 127
3, 68626, Note_off_c, 1, 33, 64
3, 68640, Note_on_c, 1, 38, 124
3, 68746, Note_off_c, 1, 38, 64
3, 68760, Note_on_c, 1, 33, 124
3, 68866, Note_off_c, 1, 33, 64
3, 68880, Note_on_c, 1, 38, 127
3, 68986, Note_off_c, 1, 38, 64
3, 69000, Note_on_c, 1, 33, 127
3, 69106, Note_off_c, 1, 33, 64
3, 69120, Note_on_c, 1, 36, 124
3, 69226, Note_off_c, 1, 36, 64
3, 69240, Note_on_c, 1, 31, 124
3, 69346, Note_off_c, 1, 31, 64
3, 69360, Note_on_c, 1, 36, 127
3, 69466, Note_off_c, 1, 36, 64
3, 69480, Note_on_c, 1, 31, 127
3, 69586, Note_off_c, 1, 31, 64
3, 69600, Note_on_c, 1, 36, 124
3, 69706, Note_off_c, 1, 36, 64
3, 69720, Note_on_c, 1, 31, 124
3, 69826, Note_off_c, 1, 31, 64
3, 69840, Note_on_c, 1, 36, 127
3, 69946, Note_off_c, 1, 36, 64
3, 69960, Note_on_c, 1, 31, 127
3, 70066, Note_off_c, 1, 31, 64
3, 70080, Note_on_c, 1, 35, 124
3, 70186, Note_off_c, 1, 35, 64
3, 70200, Note_on_c, 1, 30, 124
3, 70306, Note_off_c, 1, 30, 64
3, 70320, Note_on_c, 1, 35, 127
3, 70426, Note_off_c, 1, 35, 64
3, 70440, Note_on_c, 1, 30, 127
3, 70546, Note_off_c, 1, 30, 64
3, 70560, Note_on_c, 1, 35, 124
3, 70666, Note_off_c, 1, 35, 64
3, 70680, Note_on_c, 1, 30, 124
3, 70786, Note_off_c, 1, 30, 64
3, 70800, Note_on_c, 1, 35, 127
3, 70906, Note_off_c, 1, 35, 64
3, 70920, Note_on_c, 1, 30, 127
3, 71026, Note_off_c, 1, 30, 64
3, 71040, Note_on_c, 1, 33, 125
3, 71206, Note_off_c, 1, 33, 64
3, 71280, Note_on_c, 1, 33, 127
3, 71446, Note_off_c, 1, 33, 64
3, 71520, Note_on_c, 1, 33, 124
3, 71686, Note_off_c, 1, 33, 64
3, 71760, Note_on_c, 1, 33, 127
3, 71926, Note_off_c, 1, 33, 64
3, 72000, Note_on_c, 1, 43, 125
3, 72166, Note_off_c, 1, 43, 64
3, 72240, Note_on_c, 1, 43, 127
3, 72406, Note_off_c, 1, 43, 64
3, 72480, Note_on_c, 1, 43, 124
3, 72646, Note_off_c, 1, 43, 64
3, 72720, Note_on_c, 1, 43, 127
3, 72886, Note_off_c, 1, 43, 64
3, 72960, Note_on_c, 1, 41, 125
3, 73126, Note_off_c, 1, 41, 64
3, 73200, Note_on_c, 1, 41, 127
3, 73366, Note_off_c, 1, 41, 64
3, 73440, Note_on_c, 1, 41, 124
3, 73606, Note_off_c, 1, 41, 64
3, 73680, Note_on_c, 1, 41, 127
3, 73846, Note_off_c, 1, 41, 64
3, 73920, Note_on_c, 1, 40, 125
3, 74086, Note_off_c, 1, 40, 64
3, 74160, Note_on_c, 1, 40, 127
3, 74326, Note_off_c, 1, 40, 64
3, 74400, Note_on_c, 1, 40, 124
3, 74566, Note_off_c, 1, 40, 64
3, 74640, Note_on_c, 1, 40, 127
3, 74806, Note_off_c, 1, 40, 64
3, 74880, Note_on_c, 1, 38, 125
3, 75046, Note_off_c, 1, 38, 64
3, 75120, Note_on_c, 1, 38, 127
3, 75286, Note_off_c, 1, 38, 64
3, 75360, Note_on_c, 1, 38, 124
3, 75526, Note_off_c, 1, 38, 64
3, 75600, Note_on_c, 1, 38, 127
3, 75766, Note_off_c, 1, 38, 64
3, 75840, Note_on_c, 1, 36, 125
3, 76006, Note_off_c, 1, 36, 64
3, 76080, Note_on_c, 1, 36, 127
3, 76246, Note_off_c, 1, 36, 64
3, 76320, Note_on_c, 1, 36, 124
3, 76486, Note_off_c, 1, 36, 64
3, 76560, Note_on_c, 1, 36, 127
3, 76726, Note_off_c, 1, 36, 64
3, 76800, Note_on_c, 1, 35, 125
3, 76966, Note_off_c, 1, 35, 64
3, 77040, Note_on_c, 1, 35, 127
3, 77206, Note_off_c, 1, 35, 64
3, 77280, Note_on_c, 1, 35, 124
3, 77446, Note_off_c, 1, 35, 64
3, 77520, Note_on_c, 1, 35, 127
3, 77686, Note_off_c, 1, 35, 64
3, 77760, Note_on_c, 1, 33, 125
3, 77926, Note_off_c, 1, 33, 64
3, 78000, Note_on_c, 1, 33, 127
3, 78166, Note_off_c, 1, 33, 64
3, 78240, Note_on_c, 1, 33, 124
3, 78406, Note_off_c, 1, 33, 64
3, 78480, Note_on_c, 1, 33, 127
3, 78646, Note_off_c, 1, 33, 64
3, 78720, Note_on_c, 1, 43, 125
3, 78886, Note_off_c, 1, 43, 64
3, 78960, Note_on_c, 1, 43, 127
3, 79126, Note_off_c, 1, 43, 64
3, 79200, Note_on_c, 1, 43, 124
3, 79366, Note_off_c, 1, 43, 64
3, 79440, Note_on_c, 1, 43, 127
3, 79606, Note_off_c, 1, 43, 64
3, 79680, Note_on_c, 1, 41, 125
3, 79846, Note_off_c, 1, 41, 64
3, 79920, Note_on_c, 1, 41, 127
3, 80086, Note_off_c, 1, 41, 64
3, 80160, Note_on_c, 1, 41, 124
3, 80326, Note_off_c, 1, 41, 64
3, 80400, Note_on_c, 1, 41, 127
3, 80566, Note_off_c, 1, 41, 64
3, 80640, Note_on_c, 1, 40, 125
3, 80806, Note_off_c, 1, 40, 64
3, 80880, Note_on_c, 1, 40, 127
3, 81046, Note_off_c, 1, 40, 64
3, 81120, Note_on_c, 1, 40, 124
3, 81286, Note_off_c, 1, 40, 64
3, 81360, Note_on_c, 1, 40, 127
3, 81526, Note_off_c, 1, 40, 64
3, 81600, Note_on_c, 1, 38, 125
3, 81766, Note_off_c, 1, 38, 64
3, 81840, Note_on_c, 1, 38, 127
3, 82006, Note_off_c, 1, 38, 64
3, 82080, Note_on_c, 1, 38, 124
3, 82246, Note_off_c, 1, 38, 64
3, 82320, Note_on_c, 1, 38, 127
3, 82486, Note_off_c, 1, 38, 64
3, 82560, Note_on_c, 1, 36, 125
3, 82726, Note_off_c, 1, 36, 64
3, 82800, Note_on_c, 1, 36, 127
3, 82966, Note_off_c, 1, 36, 64
3, 83040, Note_on_c, 1, 36, 124
3, 83206, Note_off_c, 1, 36, 64
3, 83280, Note_on_c, 1, 36, 127
3, 83446, Note_off_c, 1, 36, 64
3, 83520, Note_on_c, 1, 35, 125
3, 83686, Note_off_c, 1, 35, 64
3, 83760, Note_on_c, 1, 35, 127
3, 83926, Note_off_c, 1, 35, 64
3, 84000, Note_on_c, 1, 35, 124
3, 84166, Note_off_c, 1, 35, 64
3, 84240, Note_on_c, 1, 35, 127
3, 84406, Note_off_c, 1, 35, 64
3, 84480, Note_on_c, 1, 33, 125
3, 84646, Note_off_c, 1, 33, 64
3, 84720, Note_on_c, 1, 33, 127
3, 84886, Note_off_c, 1, 33, 64
3, 84960, Note_on_c, 1, 33, 124
3, 85126, Note_off_c, 1, 33, 64
3, 85200, Note_on_c, 1, 33, 127
3, 85366, Note_off_c, 1, 33, 64
3, 85440, Note_on_c, 1, 43, 125
3, 85606, Note_off_c, 1, 43, 64
3, 85680, Note_on_c, 1, 43, 127
3, 85846, Note_off_c, 1, 43, 64
3, 85920, Note_on_c, 1, 43, 124
3, 86086, Note_off_c, 1, 43, 64
3, 86160, Note_on_c, 1, 43, 127
3, 86326, Note_off_c, 1, 43, 64
3, 86400, Note_on_c, 1, 41, 125
3, 86566, Note_off_c, 1, 41, 64
3, 86640, Note_on_c, 1, 41, 127
3, 86806, Note_off_c, 1, 41, 64
3, 86880, Note_on_c, 1, 41, 124
3, 87046, Note_off_c, 1, 41, 64
3, 87120, Note_on_c, 1, 41, 127
3, 87286, Note_off_c, 1, 41, 64
3, 87360, Note_on_c, 1, 40, 125
3, 87526, Note_off_c, 1, 40, 64
3, 87600, Note_on_c, 1, 40, 127
3, 87766, Note_off_c, 1, 40, 64
3, 87840, Note_on_c, 1, 40, 124
3, 88006, Note_off_c, 1, 40, 64
3, 88080, Note_on_c, 1, 40, 127
3, 88246, Note_off_c, 1, 40, 64
3, 88320, Note_on_c, 1, 38, 125
3, 88486, Note_off_c, 1, 38, 64
3, 88560, Note_on_c, 1, 38, 127
3, 88726, Note_off_c, 1, 38, 64
3, 88800, Note_on_c, 1, 38, 124
3, 88966, Note_off_c, 1, 38, 64
3, 89040, Note_on_c, 1, 38, 127
3, 89206, Note_off_c, 1, 38, 64
3, 89280, Note_on_c, 1, 36, 125
3, 89446, Note_off_c, 1, 36, 64
3, 89520, Note_on_c, 1, 36, 127
3, 89686, Note_off_c, 1, 36, 64
3, 89760, Note_on_c, 1, 36, 124
3, 89926, Note_off_c, 1, 36, 64
3, 90000, Note_on_c, 1, 36, 127
3, 90166, Note_off_c, 1, 36, 64
3, 90240, Note_on_c, 1, 35, 125
3, 90406, Note_off_c, 1, 35, 64
3, 90480, Note_on_c, 1, 35, 127
3, 90646, Note_off_c, 1, 35, 64
3, 90720, Note_on_c, 1, 35, 124
3, 90886, Note_off_c, 1, 35, 64
3, 90960, Note_on_c, 1, 35, 127
3, 91126, Note_off_c, 1, 35, 64
3, 91200, Note_on_c, 1, 45, 125
3, 91366, Note_off_c, 1, 45, 64
3, 91440, Note_on_c, 1, 45, 127
3, 91606, Note_off_c, 1, 45, 64
3, 91680, Note_on_c, 1, 45, 124
3, 91846, Note_off_c, 1, 45, 64
3, 91920, Note_on_c, 1, 45, 127
3, 92086, Note_off_c, 1, 45, 64
3, 92160, Note_on_c, 1, 43, 125
3, 92326, Note_off_c, 1, 43, 64
3, 92400, Note_on_c, 1, 43, 127
3, 92566, Note_off_c, 1, 43, 64
3, 92640, Note_on_c, 1, 43, 124
3, 92806, Note_off_c, 1, 43, 64
3, 92880, Note_on_c, 1, 43, 127
3, 93046, Note_off_c, 1, 43, 64
3, 93120, Note_on_c, 1, 41, 125
3, 93286, Note_off_c, 1, 41, 64
3, 93360, Note_on_c, 1, 41, 127
3, 93526, Note_off_c, 1, 41, 64
3, 93600, Note_on_c, 1, 41, 124
3, 93766, Note_off_c, 1, 41, 64
3, 93840, Note_on_c, 1, 41, 127
3, 94006, Note_off_c, 1, 41, 64
3, 94080, Note_on_c, 1, 40, 125
3, 94246, Note_off_c, 1, 40, 64
3, 94320, Note_on_c, 1, 40, 127
3, 94486, Note_off_c, 1, 40, 64
3, 94560, Note_on_c, 1, 40, 124
3, 94726, Note_off_c, 1, 40, 64
3, 94800, Note_on_c, 1, 40, 127
3, 94966, Note_off_c, 1, 40, 64
3, 96000, End_track
4, 0, Start_track
4, 0, Title_t, "I Am The Walrus"
4, 0, Control_c, 2, 93, 18
4, 0, Control_c, 2, 91, 40
4, 8, Control_c, 2, 7, 100
4, 12, Control_c, 2, 100, 0
4, 12, Program_c, 2, 48
4, 36, Control_c, 2, 101, 0
4, 168, Control_c, 2, 6, 12
4, 240, Control_c, 2, 10, 127
4, 1874, Pitch_bend_c, 2, 6192
4, 1878, Pitch_bend_c, 2, 6252
4, 1881, Pitch_bend_c, 2, 6313
4, 1885, Pitch_bend_c, 2, 6416
4, 1888, Pitch_bend_c, 2, 6507
4, 1892, Pitch_bend_c, 2, 6652
4, 1894, Note_on_c, 2, 63, 117
4, 1895, Pitch_bend_c, 2, 6779
4, 1898, Pitch_bend_c, 2, 6919
4, 1902, Pitch_bend_c, 2, 7125
4, 1905, Pitch_bend_c, 2, 7294
4, 1909, Pitch_bend_c, 2, 7542
4, 1912, Pitch_bend_c, 2, 7743
4, 1916, Pitch_bend_c, 2, 8034
4, 1919, Pitch_bend_c, 2, 8270
4, 1920, Pitch_bend_c, 2, 8192
4, 2200, Control_c, 2, 5, 78
4, 2264, Control_c, 2, 65, 64
4, 2400, Note_on_c, 2, 61, 117
4, 2408, Note_off_c, 2, 63, 64
4, 2479, Control_c, 2, 5, 78
4, 2488, Control_c, 2, 5, 60
4, 2608, Note_off_c, 2, 61, 64
4, 2608, Note_on_c, 2, 66, 117
4, 2830, Note_off_c, 2, 66, 64
4, 2832, Note_on_c, 2, 59, 117
4, 3347, Note_off_c, 2, 59, 64
4, 3348, Note_on_c, 2, 57, 117
4, 3554, Control_c, 2, 5, 60
4, 3568, Note_off_c, 2, 57, 64
4, 3568, Note_on_c, 2, 62, 117
4, 3792, Note_off_c, 2, 62, 64
4, 3796, Note_on_c, 2, 59, 117
4, 4632, Note_off_c, 2, 59, 64
4, 4722, Control_c, 2, 5, 0
4, 4748, Note_on_c, 2, 61, 118
4, 4778, Note_off_c, 2, 61, 64
4, 4800, Note_on_c, 2, 62, 118
4, 5600, Control_c, 2, 5, 70
4, 5683, Note_off_c, 2, 62, 64
4, 5685, Note_on_c, 2, 57, 118
4, 6553, Note_off_c, 2, 57, 64
4, 6668, Note_on_c, 2, 59, 118
4, 6705, Note_off_c, 2, 59, 64
4, 6720, Note_on_c, 2, 60, 118
4, 7675, Note_off_c, 2, 60, 64
4, 27180, Control_c, 2, 5, 0
4, 27840, Note_on_c, 2, 62, 95
4, 27840, Note_on_c, 2, 57, 95
4, 27840, Note_on_c, 2, 55, 95
4, 27953, Note_off_c, 2, 62, 64
4, 27953, Note_off_c, 2, 57, 64
4, 27953, Note_off_c, 2, 55, 64
4, 28080, Note_on_c, 2, 62, 95
4, 28080, Note_on_c, 2, 57, 95
4, 28080, Note_on_c, 2, 55, 95
4, 28193, Note_off_c, 2, 62, 64
4, 28193, Note_off_c, 2, 57, 64
4, 28193, Note_off_c, 2, 55, 64
4, 28320, Note_on_c, 2, 62, 95
4, 28320, Note_on_c, 2, 57, 95
4, 28320, Note_on_c, 2, 55, 95
4, 28433, Note_off_c, 2, 62, 64
4, 28433, Note_off_c, 2, 57, 64
4, 28433, Note_off_c, 2, 55, 64
4, 28544, Control_c, 2, 65, 0
4, 28560, Note_on_c, 2, 62, 95
4, 28560, Note_on_c, 2, 57, 95
4, 28560, Note_on_c, 2, 55, 95
4, 28673, Note_off_c, 2, 62, 64
4, 28673, Note_off_c, 2, 57, 64
4, 28673, Note_off_c, 2, 55, 64
4, 28800, Note_on_c, 2, 62, 95
4, 28800, Note_on_c, 2, 57, 95
4, 28800, Note_on_c, 2, 55, 95
4, 28913, Note_off_c, 2, 62, 64
4, 28913, Note_off_c, 2, 57, 64
4, 28913, Note_off_c, 2, 55, 64
4, 29040, Note_on_c, 2, 62, 95
4, 29040, Note_on_c, 2, 57, 95
4, 29040, Note_on_c, 2, 55, 95
4, 29153, Note_off_c, 2, 62, 64
4, 29153, Note_off_c, 2, 57, 64
4, 29153, Note_off_c, 2, 55, 64
4, 29280, Control_c, 2, 5, 0
4, 29280, Note_on_c, 2, 62, 95
4, 29280, Note_on_c, 2, 57, 95
4, 29280, Note_on_c, 2, 55, 95
4, 29393, Note_off_c, 2, 62, 64
4, 29393, Note_off_c, 2, 57, 64
4, 29393, Note_off_c, 2, 55, 64
4, 29504, Control_c, 2, 65, 0
4, 29520, Note_on_c, 2, 62, 95
4, 29520, Note_on_c, 2, 57, 95
4, 29520, Note_on_c, 2, 55, 95
4, 29633, Note_off_c, 2, 62, 64
4, 29633, Note_off_c, 2, 57, 64
4, 29633, Note_off_c, 2, 55, 64
4, 29744, Control_c, 2, 7, 82
4, 29760, Note_on_c, 2, 64, 95
4, 29760, Note_on_c, 2, 61, 95
4, 29760, Note_on_c, 2, 57, 95
4, 29873, Note_off_c, 2, 64, 64
4, 29873, Note_off_c, 2, 61, 64
4, 29873, Note_off_c, 2, 57, 64
4, 30000, Note_on_c, 2, 64, 95
4, 30000, Note_on_c, 2, 61, 95
4, 30000, Note_on_c, 2, 57, 95
4, 30113, Note_off_c, 2, 64, 64
4, 30113, Note_off_c, 2, 61, 64
4, 30113, Note_off_c, 2, 57, 64
4, 30240, Note_on_c, 2, 64, 95
4, 30240, Note_on_c, 2, 61, 95
4, 30240, Note_on_c, 2, 57, 95
4, 30353, Note_off_c, 2, 64, 64
4, 30353, Note_off_c, 2, 61, 64
4, 30353, Note_off_c, 2, 57, 64
4, 30464, Control_c, 2, 65, 0
4, 30480, Note_on_c, 2, 64, 95
4, 30480, Note_on_c, 2, 61, 95
4, 30480, Note_on_c, 2, 57, 95
4, 30593, Note_off_c, 2, 64, 64
4, 30593, Note_off_c, 2, 61, 64
4, 30593, Note_off_c, 2, 57, 64
4, 30720, Note_on_c, 2, 68, 95
4, 30720, Note_on_c, 2, 64, 95
4, 30720, Note_on_c, 2, 59, 95
4, 31674, Note_off_c, 2, 68, 64
4, 31674, Note_off_c, 2, 64, 64
4, 31674, Note_off_c, 2, 59, 64
4, 31680, Note_on_c, 2, 66, 95
4, 31680, Note_on_c, 2, 62, 95
4, 31680, Note_on_c, 2, 57, 95
4, 32634, Note_off_c, 2, 66, 64
4, 32634, Note_off_c, 2, 62, 64
4, 32634, Note_off_c, 2, 57, 64
4, 38400, Control_c, 2, 7, 66
4, 38640, Note_on_c, 2, 79, 127
4, 38738, Pitch_bend_c, 2, 8188
4, 38741, Pitch_bend_c, 2, 8186
4, 38745, Pitch_bend_c, 2, 8182
4, 38748, Pitch_bend_c, 2, 8179
4, 38751, Pitch_bend_c, 2, 8176
4, 38755, Pitch_bend_c, 2, 8170
4, 38758, Pitch_bend_c, 2, 8165
4, 38762, Pitch_bend_c, 2, 8159
4, 38765, Pitch_bend_c, 2, 8153
4, 38769, Pitch_bend_c, 2, 8145
4, 38772, Pitch_bend_c, 2, 8138
4, 38776, Pitch_bend_c, 2, 8129
4, 38779, Pitch_bend_c, 2, 8122
4, 38782, Pitch_bend_c, 2, 8114
4, 38786, Pitch_bend_c, 2, 8102
4, 38789, Pitch_bend_c, 2, 8093
4, 38793, Pitch_bend_c, 2, 8081
4, 38796, Pitch_bend_c, 2, 8071
4, 38800, Pitch_bend_c, 2, 8057
4, 38803, Pitch_bend_c, 2, 8046
4, 38806, Pitch_bend_c, 2, 8035
4, 38810, Pitch_bend_c, 2, 8019
4, 38813, Pitch_bend_c, 2, 8007
4, 38817, Pitch_bend_c, 2, 7990
4, 38820, Pitch_bend_c, 2, 7976
4, 38824, Pitch_bend_c, 2, 7958
4, 38827, Pitch_bend_c, 2, 7944
4, 38831, Pitch_bend_c, 2, 7924
4, 38834, Pitch_bend_c, 2, 7909
4, 38837, Pitch_bend_c, 2, 7893
4, 38841, Pitch_bend_c, 2, 7872
4, 38844, Pitch_bend_c, 2, 7855
4, 38848, Pitch_bend_c, 2, 7832
4, 38851, Pitch_bend_c, 2, 7815
4, 38855, Pitch_bend_c, 2, 7791
4, 38858, Pitch_bend_c, 2, 7773
4, 38862, Pitch_bend_c, 2, 7747
4, 38865, Pitch_bend_c, 2, 7728
4, 38868, Pitch_bend_c, 2, 7707
4, 38872, Pitch_bend_c, 2, 7680
4, 38875, Pitch_bend_c, 2, 7659
4, 38879, Pitch_bend_c, 2, 7631
4, 38882, Pitch_bend_c, 2, 7608
4, 38886, Pitch_bend_c, 2, 7578
4, 38889, Pitch_bend_c, 2, 7556
4, 38892, Pitch_bend_c, 2, 7532
4, 38896, Pitch_bend_c, 2, 7500
4, 38899, Pitch_bend_c, 2, 7476
4, 38903, Pitch_bend_c, 2, 7443
4, 38906, Pitch_bend_c, 2, 7417
4, 38910, Pitch_bend_c, 2, 7383
4, 38913, Pitch_bend_c, 2, 7357
4, 38917, Pitch_bend_c, 2, 7321
4, 38920, Pitch_bend_c, 2, 7294
4, 38923, Pitch_bend_c, 2, 7266
4, 38927, Pitch_bend_c, 2, 7229
4, 38930, Pitch_bend_c, 2, 7200
4, 38934, Pitch_bend_c, 2, 7161
4, 38937, Pitch_bend_c, 2, 7131
4, 38941, Pitch_bend_c, 2, 7091
4, 38944, Pitch_bend_c, 2, 7060
4, 38948, Pitch_bend_c, 2, 7019
4, 38951, Pitch_bend_c, 2, 6988
4, 38954, Pitch_bend_c, 2, 6956
4, 38958, Pitch_bend_c, 2, 6912
4, 38961, Pitch_bend_c, 2, 6879
4, 38965, Pitch_bend_c, 2, 6834
4, 38968, Pitch_bend_c, 2, 6800
4, 38972, Pitch_bend_c, 2, 6754
4, 38975, Pitch_bend_c, 2, 6719
4, 38978, Pitch_bend_c, 2, 6684
4, 38982, Pitch_bend_c, 2, 6636
4, 38985, Pitch_bend_c, 2, 6600
4, 38989, Pitch_bend_c, 2, 6551
4, 38992, Pitch_bend_c, 2, 6513
4, 38996, Pitch_bend_c, 2, 6462
4, 38999, Pitch_bend_c, 2, 6424
4, 39003, Pitch_bend_c, 2, 6372
4, 39006, Pitch_bend_c, 2, 6333
4, 39009, Pitch_bend_c, 2, 6293
4, 39013, Pitch_bend_c, 2, 6240
4, 39016, Pitch_bend_c, 2, 6199
4, 39020, Pitch_bend_c, 2, 6144
4, 39023, Pitch_bend_c, 2, 6102
4, 39027, Pitch_bend_c, 2, 6046
4, 39030, Pitch_bend_c, 2, 6003
4, 39034, Pitch_bend_c, 2, 5945
4, 39037, Pitch_bend_c, 2, 5902
4, 39040, Pitch_bend_c, 2, 5858
4, 39044, Pitch_bend_c, 2, 5798
4, 39047, Pitch_bend_c, 2, 5753
4, 39051, Pitch_bend_c, 2, 5692
4, 39054, Pitch_bend_c, 2, 5646
4, 39058, Pitch_bend_c, 2, 5584
4, 39061, Pitch_bend_c, 2, 5537
4, 39064, Pitch_bend_c, 2, 5490
4, 39068, Pitch_bend_c, 2, 5426
4, 39071, Pitch_bend_c, 2, 5378
4, 39075, Pitch_bend_c, 2, 5312
4, 39078, Pitch_bend_c, 2, 5262
4, 39082, Pitch_bend_c, 2, 5196
4, 39085, Pitch_bend_c, 2, 5146
4, 39089, Pitch_bend_c, 2, 5078
4, 39092, Pitch_bend_c, 2, 5026
4, 39095, Pitch_bend_c, 2, 4975
4, 39099, Pitch_bend_c, 2, 4905
4, 39102, Pitch_bend_c, 2, 4852
4, 39106, Pitch_bend_c, 2, 4781
4, 39109, Pitch_bend_c, 2, 4727
4, 39113, Pitch_bend_c, 2, 4655
4, 39116, Pitch_bend_c, 2, 4600
4, 39120, Pitch_bend_c, 2, 4526
4, 39123, Pitch_bend_c, 2, 4470
4, 39126, Pitch_bend_c, 2, 4414
4, 39130, Pitch_bend_c, 2, 4338
4, 39133, Pitch_bend_c, 2, 4281
4, 39137, Pitch_bend_c, 2, 4205
4, 39140, Pitch_bend_c, 2, 4146
4, 39144, Pitch_bend_c, 2, 4068
4, 39147, Pitch_bend_c, 2, 4009
4, 39150, Pitch_bend_c, 2, 3950
4, 39154, Pitch_bend_c, 2, 3870
4, 39157, Pitch_bend_c, 2, 3809
4, 39161, Pitch_bend_c, 2, 3728
4, 39164, Pitch_bend_c, 2, 3666
4, 39168, Pitch_bend_c, 2, 3584
4, 39171, Pitch_bend_c, 2, 3521
4, 39175, Pitch_bend_c, 2, 3437
4, 39178, Pitch_bend_c, 2, 3374
4, 39181, Pitch_bend_c, 2, 3310
4, 39184, Pitch_bend_c, 2, 3328
4, 39253, Note_off_c, 2, 79, 64
4, 39496, Pitch_bend_c, 2, 8192
4, 39600, Note_on_c, 2, 81, 127
4, 39730, Pitch_bend_c, 2, 8187
4, 39733, Pitch_bend_c, 2, 8185
4, 39737, Pitch_bend_c, 2, 8181
4, 39740, Pitch_bend_c, 2, 8178
4, 39743, Pitch_bend_c, 2, 8175
4, 39747, Pitch_bend_c, 2, 8169
4, 39750, Pitch_bend_c, 2, 8164
4, 39754, Pitch_bend_c, 2, 8157
4, 39757, Pitch_bend_c, 2, 8151
4, 39761, Pitch_bend_c, 2, 8143
4, 39764, Pitch_bend_c, 2, 8136
4, 39768, Pitch_bend_c, 2, 8126
4, 39771, Pitch_bend_c, 2, 8119
4, 39774, Pitch_bend_c, 2, 8111
4, 39778, Pitch_bend_c, 2, 8099
4, 39781, Pitch_bend_c, 2, 8090
4, 39785, Pitch_bend_c, 2, 8077
4, 39788, Pitch_bend_c, 2, 8066
4, 39792, Pitch_bend_c, 2, 8052
4, 39795, Pitch_bend_c, 2, 8041
4, 39799, Pitch_bend_c, 2, 8025
4, 39802, Pitch_bend_c, 2, 8013
4, 39805, Pitch_bend_c, 2, 8000
4, 39809, Pitch_bend_c, 2, 7983
4, 39812, Pitch_bend_c, 2, 7969
4, 39816, Pitch_bend_c, 2, 7950
4, 39819, Pitch_bend_c, 2, 7935
4, 39823, Pitch_bend_c, 2, 7915
4, 39826, Pitch_bend_c, 2, 7899
4, 39829, Pitch_bend_c, 2, 7883
4, 39833, Pitch_bend_c, 2, 7861
4, 39836, Pitch_bend_c, 2, 7843
4, 39840, Pitch_bend_c, 2, 7819
4, 39843, Pitch_bend_c, 2, 7801
4, 39847, Pitch_bend_c, 2, 7777
4, 39850, Pitch_bend_c, 2, 7757
4, 39854, Pitch_bend_c, 2, 7731
4, 39857, Pitch_bend_c, 2, 7710
4, 39860, Pitch_bend_c, 2, 7689
4, 39864, Pitch_bend_c, 2, 7661
4, 39867, Pitch_bend_c, 2, 7639
4, 39871, Pitch_bend_c, 2, 7610
4, 39874, Pitch_bend_c, 2, 7587
4, 39878, Pitch_bend_c, 2, 7556
4, 39881, Pitch_bend_c, 2, 7532
4, 39885, Pitch_bend_c, 2, 7500
4, 39888, Pitch_bend_c, 2, 7475
4, 39891, Pitch_bend_c, 2, 7450
4, 39895, Pitch_bend_c, 2, 7416
4, 39898, Pitch_bend_c, 2, 7389
4, 39902, Pitch_bend_c, 2, 7353
4, 39905, Pitch_bend_c, 2, 7326
4, 39909, Pitch_bend_c, 2, 7289
4, 39912, Pitch_bend_c, 2, 7261
4, 39915, Pitch_bend_c, 2, 7232
4, 39919, Pitch_bend_c, 2, 7193
4, 39922, Pitch_bend_c, 2, 7163
4, 39926, Pitch_bend_c, 2, 7123
4, 39929, Pitch_bend_c, 2, 7093
4, 39933, Pitch_bend_c, 2, 7051
4, 39936, Pitch_bend_c, 2, 7019
4, 39940, Pitch_bend_c, 2, 6976
4, 39943, Pitch_bend_c, 2, 6943
4, 39946, Pitch_bend_c, 2, 6910
4, 39950, Pitch_bend_c, 2, 6865
4, 39953, Pitch_bend_c, 2, 6831
4, 39957, Pitch_bend_c, 2, 6784
4, 39960, Pitch_bend_c, 2, 6749
4, 39964, Pitch_bend_c, 2, 6701
4, 39967, Pitch_bend_c, 2, 6665
4, 39971, Pitch_bend_c, 2, 6616
4, 39974, Pitch_bend_c, 2, 6579
4, 39977, Pitch_bend_c, 2, 6542
4, 39981, Pitch_bend_c, 2, 6491
4, 39984, Pitch_bend_c, 2, 6452
4, 39988, Pitch_bend_c, 2, 6399
4, 39991, Pitch_bend_c, 2, 6360
4, 39995, Pitch_bend_c, 2, 6306
4, 39998, Pitch_bend_c, 2, 6265
4, 40001, Pitch_bend_c, 2, 6224
4, 40005, Pitch_bend_c, 2, 6168
4, 40008, Pitch_bend_c, 2, 6126
4, 40012, Pitch_bend_c, 2, 6069
4, 40015, Pitch_bend_c, 2, 6026
4, 40019, Pitch_bend_c, 2, 5967
4, 40022, Pitch_bend_c, 2, 5923
4, 40026, Pitch_bend_c, 2, 5863
4, 40029, Pitch_bend_c, 2, 5818
4, 40032, Pitch_bend_c, 2, 5772
4, 40036, Pitch_bend_c, 2, 5710
4, 40039, Pitch_bend_c, 2, 5664
4, 40043, Pitch_bend_c, 2, 5601
4, 40046, Pitch_bend_c, 2, 5553
4, 40050, Pitch_bend_c, 2, 5489
4, 40053, Pitch_bend_c, 2, 5440
4, 40057, Pitch_bend_c, 2, 5375
4, 40060, Pitch_bend_c, 2, 5324
4, 40063, Pitch_bend_c, 2, 5274
4, 40067, Pitch_bend_c, 2, 5206
4, 40070, Pitch_bend_c, 2, 5155
4, 40074, Pitch_bend_c, 2, 5086
4, 40077, Pitch_bend_c, 2, 5034
4, 40081, Pitch_bend_c, 2, 4964
4, 40084, Pitch_bend_c, 2, 4910
4, 40087, Pitch_bend_c, 2, 4857
4, 40091, Pitch_bend_c, 2, 4785
4, 40094, Pitch_bend_c, 2, 4730
4, 40098, Pitch_bend_c, 2, 4656
4, 40101, Pitch_bend_c, 2, 4600
4, 40105, Pitch_bend_c, 2, 4525
4, 40108, Pitch_bend_c, 2, 4468
4, 40112, Pitch_bend_c, 2, 4392
4, 40115, Pitch_bend_c, 2, 4334
4, 40118, Pitch_bend_c, 2, 4276
4, 40122, Pitch_bend_c, 2, 4198
4, 40125, Pitch_bend_c, 2, 4139
4, 40129, Pitch_bend_c, 2, 4059
4, 40132, Pitch_bend_c, 2, 3999
4, 40136, Pitch_bend_c, 2, 3918
4, 40139, Pitch_bend_c, 2, 3857
4, 40143, Pitch_bend_c, 2, 3774
4, 40146, Pitch_bend_c, 2, 3712
4, 40149, Pitch_bend_c, 2, 3649
4, 40153, Pitch_bend_c, 2, 3565
4, 40156, Pitch_bend_c, 2, 3501
4, 40160, Pitch_bend_c, 2, 3415
4, 40163, Pitch_bend_c, 2, 3350
4, 40167, Pitch_bend_c, 2, 3263
4, 40168, Pitch_bend_c, 2, 3328
4, 40213, Note_off_c, 2, 81, 64
4, 40312, Pitch_bend_c, 2, 8192
4, 41984, Control_c, 2, 5, 0
4, 42184, Control_c, 2, 65, 64
4, 42207, Control_c, 2, 7, 66
4, 42224, Control_c, 2, 7, 94
4, 42240, Note_on_c, 2, 63, 127
4, 42336, Control_c, 2, 5, 16
4, 42480, Note_off_c, 2, 63, 64
4, 42480, Note_on_c, 2, 61, 127
4, 42600, Note_off_c, 2, 61, 64
4, 42600, Note_on_c, 2, 63, 127
4, 42623, Control_c, 2, 5, 28
4, 42624, Control_c, 2, 5, 68
4, 42720, Note_off_c, 2, 63, 64
4, 42720, Note_on_c, 2, 66, 127
4, 42960, Note_off_c, 2, 66, 64
4, 42960, Note_on_c, 2, 71, 127
4, 43200, Note_off_c, 2, 71, 64
4, 43200, Note_on_c, 2, 71, 127
4, 43223, Control_c, 2, 5, 46
4, 43224, Control_c, 2, 5, 80
4, 43680, Note_off_c, 2, 71, 64
4, 43680, Note_on_c, 2, 69, 127
4, 43832, Control_c, 2, 5, 64
4, 43920, Note_off_c, 2, 69, 64
4, 43920, Note_on_c, 2, 74, 127
4, 44023, Control_c, 2, 5, 64
4, 44024, Control_c, 2, 5, 80
4, 44160, Note_off_c, 2, 74, 64
4, 44160, Note_on_c, 2, 71, 127
4, 44255, Control_c, 2, 65, 54
4, 44264, Control_c, 2, 65, 0
4, 44271, Control_c, 2, 5, 78
4, 44279, Control_c, 2, 5, 78
4, 45118, Note_off_c, 2, 71, 64
4, 45120, Note_on_c, 2, 75, 127
4, 45168, Control_c, 2, 65, 0
4, 45225, Note_off_c, 2, 75, 64
4, 45240, Note_on_c, 2, 75, 127
4, 45345, Note_off_c, 2, 75, 64
4, 45360, Note_on_c, 2, 75, 127
4, 45465, Note_off_c, 2, 75, 64
4, 45480, Note_on_c, 2, 75, 127
4, 45496, Control_c, 2, 65, 0
4, 45585, Note_off_c, 2, 75, 64
4, 45600, Note_on_c, 2, 73, 127
4, 45840, Note_on_c, 2, 78, 127
4, 45864, Note_off_c, 2, 73, 64
4, 45880, Control_c, 2, 65, 0
4, 45921, Note_off_c, 2, 78, 64
4, 45960, Note_on_c, 2, 75, 127
4, 46079, Control_c, 2, 65, 0
4, 46149, Pitch_bend_c, 2, 8177
4, 46152, Pitch_bend_c, 2, 8149
4, 46156, Pitch_bend_c, 2, 8086
4, 46159, Pitch_bend_c, 2, 8020
4, 46163, Pitch_bend_c, 2, 7908
4, 46166, Pitch_bend_c, 2, 7805
4, 46169, Pitch_bend_c, 2, 7686
4, 46173, Pitch_bend_c, 2, 7504
4, 46176, Pitch_bend_c, 2, 7349
4, 46180, Pitch_bend_c, 2, 7118
4, 46183, Pitch_bend_c, 2, 6925
4, 46184, Note_off_c, 2, 75, 64
4, 46187, Pitch_bend_c, 2, 6644
4, 46190, Pitch_bend_c, 2, 6416
4, 46194, Pitch_bend_c, 2, 6086
4, 46197, Pitch_bend_c, 2, 5819
4, 46200, Pitch_bend_c, 2, 5538
4, 46200, Pitch_bend_c, 2, 5632
4, 46200, Note_on_c, 2, 71, 127
4, 46208, Pitch_bend_c, 2, 8192
4, 46305, Note_off_c, 2, 71, 64
4, 46310, Pitch_bend_c, 2, 8192
4, 46320, Note_on_c, 2, 71, 127
4, 46425, Note_off_c, 2, 71, 64
4, 46440, Note_on_c, 2, 71, 127
4, 46545, Note_off_c, 2, 71, 64
4, 46560, Note_on_c, 2, 69, 127
4, 46773, Pitch_bend_c, 2, 8255
4, 46776, Pitch_bend_c, 2, 8383
4, 46780, Pitch_bend_c, 2, 8669
4, 46783, Pitch_bend_c, 2, 8971
4, 46787, Pitch_bend_c, 2, 9481
4, 46790, Pitch_bend_c, 2, 9944
4, 46794, Pitch_bend_c, 2, 10676
4, 46797, Pitch_bend_c, 2, 11313
4, 46800, Pitch_bend_c, 2, 12014
4, 46800, Pitch_bend_c, 2, 11776
4, 46897, Note_off_c, 2, 69, 64
4, 46912, Pitch_bend_c, 2, 8192
4, 46920, Note_on_c, 2, 71, 127
4, 47205, Note_off_c, 2, 71, 64
4, 47640, Note_on_c, 2, 69, 127
4, 47671, Note_off_c, 2, 69, 64
4, 47700, Note_on_c, 2, 71, 127
4, 47731, Note_off_c, 2, 71, 64
4, 47760, Note_on_c, 2, 72, 127
4, 47865, Note_off_c, 2, 72, 64
4, 47880, Note_on_c, 2, 74, 127
4, 47985, Note_off_c, 2, 74, 64
4, 48000, Note_on_c, 2, 66, 127
4, 48046, Note_off_c, 2, 66, 64
4, 48060, Note_on_c, 2, 69, 127
4, 48098, Note_off_c, 2, 69, 64
4, 48120, Note_on_c, 2, 71, 127
4, 48154, Note_off_c, 2, 71, 64
4, 48180, Note_on_c, 2, 69, 127
4, 48212, Note_off_c, 2, 69, 64
4, 48240, Note_on_c, 2, 71, 127
4, 48314, Note_off_c, 2, 71, 64
4, 48360, Note_on_c, 2, 66, 127
4, 48406, Note_off_c, 2, 66, 64
4, 48420, Note_on_c, 2, 69, 127
4, 48458, Note_off_c, 2, 69, 64
4, 48480, Note_on_c, 2, 71, 127
4, 48514, Note_off_c, 2, 71, 64
4, 48540, Note_on_c, 2, 69, 127
4, 48572, Note_off_c, 2, 69, 64
4, 48600, Note_on_c, 2, 71, 127
4, 48674, Note_off_c, 2, 71, 64
4, 48720, Note_on_c, 2, 66, 127
4, 48766, Note_off_c, 2, 66, 64
4, 48780, Note_on_c, 2, 69, 127
4, 48818, Note_off_c, 2, 69, 64
4, 48840, Note_on_c, 2, 71, 127
4, 48874, Note_off_c, 2, 71, 64
4, 48900, Note_on_c, 2, 69, 127
4, 48932, Note_off_c, 2, 69, 64
4, 48960, Note_on_c, 2, 71, 127
4, 48994, Note_off_c, 2, 71, 64
4, 49020, Note_on_c, 2, 69, 127
4, 49052, Note_off_c, 2, 69, 64
4, 49080, Note_on_c, 2, 71, 127
4, 49114, Note_off_c, 2, 71, 64
4, 49140, Note_on_c, 2, 69, 127
4, 49172, Note_off_c, 2, 69, 64
4, 49200, Note_on_c, 2, 66, 127
4, 49618, Note_off_c, 2, 66, 64
4, 53760, Note_on_c, 2, 61, 118
4, 53760, Note_on_c, 2, 57, 118
4, 53760, Note_on_c, 2, 52, 118
4, 53849, Note_off_c, 2, 61, 64
4, 53849, Note_off_c, 2, 57, 64
4, 53849, Note_off_c, 2, 52, 64
4, 54000, Note_on_c, 2, 61, 118
4, 54000, Note_on_c, 2, 57, 118
4, 54000, Note_on_c, 2, 52, 118
4, 54089, Note_off_c, 2, 61, 64
4, 54089, Note_off_c, 2, 57, 64
4, 54089, Note_off_c, 2, 52, 64
4, 54240, Note_on_c, 2, 61, 118
4, 54240, Note_on_c, 2, 57, 118
4, 54240, Note_on_c, 2, 52, 118
4, 54329, Note_off_c, 2, 61, 64
4, 54329, Note_off_c, 2, 57, 64
4, 54329, Note_off_c, 2, 52, 64
4, 54480, Note_on_c, 2, 61, 118
4, 54480, Note_on_c, 2, 57, 118
4, 54480, Note_on_c, 2, 52, 118
4, 54553, Note_off_c, 2, 52, 64
4, 54569, Note_off_c, 2, 61, 64
4, 54569, Note_off_c, 2, 57, 64
4, 54720, Note_on_c, 2, 60, 118
4, 54720, Note_on_c, 2, 55, 118
4, 54720, Note_on_c, 2, 52, 118
4, 54809, Note_off_c, 2, 60, 64
4, 54809, Note_off_c, 2, 55, 64
4, 54809, Note_off_c, 2, 52, 64
4, 54960, Note_on_c, 2, 60, 118
4, 54960, Note_on_c, 2, 55, 118
4, 54960, Note_on_c, 2, 52, 118
4, 55049, Note_off_c, 2, 60, 64
4, 55049, Note_off_c, 2, 55, 64
4, 55057, Note_off_c, 2, 52, 64
4, 55200, Note_on_c, 2, 62, 118
4, 55200, Note_on_c, 2, 57, 118
4, 55200, Note_on_c, 2, 54, 118
4, 55289, Note_off_c, 2, 62, 64
4, 55289, Note_off_c, 2, 57, 64
4, 55289, Note_off_c, 2, 54, 64
4, 55440, Note_on_c, 2, 62, 118
4, 55440, Note_on_c, 2, 57, 118
4, 55440, Note_on_c, 2, 54, 118
4, 55521, Note_off_c, 2, 54, 64
4, 55529, Note_off_c, 2, 62, 64
4, 55529, Note_off_c, 2, 57, 64
4, 55680, Note_on_c, 2, 61, 118
4, 55680, Note_on_c, 2, 57, 118
4, 55680, Note_on_c, 2, 52, 118
4, 55769, Note_off_c, 2, 61, 64
4, 55769, Note_off_c, 2, 57, 64
4, 55769, Note_off_c, 2, 52, 64
4, 55920, Note_on_c, 2, 61, 118
4, 55920, Note_on_c, 2, 57, 118
4, 55920, Note_on_c, 2, 52, 118
4, 56009, Note_off_c, 2, 61, 64
4, 56009, Note_off_c, 2, 57, 64
4, 56009, Note_off_c, 2, 52, 64
4, 56160, Note_on_c, 2, 61, 118
4, 56160, Note_on_c, 2, 57, 118
4, 56160, Note_on_c, 2, 52, 118
4, 56249, Note_off_c, 2, 61, 64
4, 56249, Note_off_c, 2, 57, 64
4, 56249, Note_off_c, 2, 52, 64
4, 56400, Note_on_c, 2, 61, 118
4, 56400, Note_on_c, 2, 57, 118
4, 56400, Note_on_c, 2, 52, 118
4, 56489, Note_off_c, 2, 61, 64
4, 56489, Note_off_c, 2, 57, 64
4, 56489, Note_off_c, 2, 52, 64
4, 56640, Note_on_c, 2, 60, 118
4, 56640, Note_on_c, 2, 55, 118
4, 56640, Note_on_c, 2, 52, 118
4, 56729, Note_off_c, 2, 60, 64
4, 56729, Note_off_c, 2, 55, 64
4, 56729, Note_off_c, 2, 52, 64
4, 56880, Note_on_c, 2, 60, 118
4, 56880, Note_on_c, 2, 55, 118
4, 56880, Note_on_c, 2, 52, 118
4, 56953, Note_off_c, 2, 52, 64
4, 56969, Note_off_c, 2, 60, 64
4, 56969, Note_off_c, 2, 55, 64
4, 57120, Note_on_c, 2, 60, 118
4, 57120, Note_on_c, 2, 55, 118
4, 57120, Note_on_c, 2, 52, 118
4, 57209, Note_off_c, 2, 60, 64
4, 57209, Note_off_c, 2, 55, 64
4, 57209, Note_off_c, 2, 52, 64
4, 57360, Note_on_c, 2, 60, 118
4, 57360, Note_on_c, 2, 55, 118
4, 57360, Note_on_c, 2, 52, 118
4, 57441, Note_off_c, 2, 52, 64
4, 57449, Note_off_c, 2, 60, 64
4, 57449, Note_off_c, 2, 55, 64
4, 57600, Note_on_c, 2, 62, 118
4, 57600, Note_on_c, 2, 57, 118
4, 57600, Note_on_c, 2, 54, 118
4, 57689, Note_off_c, 2, 62, 64
4, 57689, Note_off_c, 2, 57, 64
4, 57689, Note_off_c, 2, 54, 64
4, 57840, Note_on_c, 2, 62, 118
4, 57840, Note_on_c, 2, 57, 118
4, 57840, Note_on_c, 2, 54, 118
4, 57929, Note_off_c, 2, 62, 64
4, 57929, Note_off_c, 2, 57, 64
4, 57929, Note_off_c, 2, 54, 64
4, 58080, Note_on_c, 2, 62, 118
4, 58080, Note_on_c, 2, 57, 118
4, 58080, Note_on_c, 2, 54, 118
4, 58169, Note_off_c, 2, 62, 64
4, 58169, Note_off_c, 2, 57, 64
4, 58169, Note_off_c, 2, 54, 64
4, 58320, Note_on_c, 2, 62, 118
4, 58320, Note_on_c, 2, 57, 118
4, 58320, Note_on_c, 2, 54, 118
4, 58401, Note_off_c, 2, 54, 64
4, 58409, Note_off_c, 2, 62, 64
4, 58409, Note_off_c, 2, 57, 64
4, 59440, Control_c, 2, 7, 34
4, 59444, Control_c, 2, 7, 34
4, 59449, Control_c, 2, 7, 35
4, 59454, Control_c, 2, 7, 36
4, 59459, Control_c, 2, 7, 37
4, 59464, Control_c, 2, 7, 38
4, 59469, Control_c, 2, 7, 39
4, 59474, Control_c, 2, 7, 40
4, 59479, Control_c, 2, 7, 41
4, 59483, Control_c, 2, 7, 42
4, 59488, Control_c, 2, 5, 68
4, 59488, Control_c, 2, 7, 43
4, 59493, Control_c, 2, 7, 44
4, 59498, Control_c, 2, 7, 45
4, 59503, Control_c, 2, 7, 46
4, 59508, Control_c, 2, 7, 47
4, 59513, Control_c, 2, 7, 48
4, 59517, Control_c, 2, 7, 49
4, 59520, Note_on_c, 2, 81, 110
4, 59522, Control_c, 2, 7, 50
4, 59527, Control_c, 2, 7, 51
4, 59532, Control_c, 2, 7, 52
4, 59537, Control_c, 2, 7, 53
4, 59542, Control_c, 2, 7, 54
4, 59547, Control_c, 2, 7, 55
4, 59552, Control_c, 2, 7, 56
4, 59556, Control_c, 2, 7, 57
4, 59561, Control_c, 2, 7, 58
4, 59566, Control_c, 2, 7, 59
4, 59571, Control_c, 2, 7, 60
4, 59576, Control_c, 2, 7, 61
4, 59581, Control_c, 2, 7, 62
4, 59586, Control_c, 2, 7, 63
4, 59590, Control_c, 2, 7, 64
4, 59595, Control_c, 2, 7, 65
4, 59600, Control_c, 2, 7, 66
4, 59605, Control_c, 2, 7, 67
4, 59610, Control_c, 2, 7, 68
4, 59615, Control_c, 2, 7, 69
4, 59620, Control_c, 2, 7, 70
4, 59625, Control_c, 2, 7, 71
4, 59629, Control_c, 2, 7, 72
4, 59634, Control_c, 2, 7, 73
4, 59639, Control_c, 2, 7, 74
4, 59644, Control_c, 2, 7, 75
4, 59649, Control_c, 2, 7, 76
4, 59654, Control_c, 2, 7, 77
4, 59659, Control_c, 2, 7, 78
4, 59663, Control_c, 2, 7, 80
4, 59666, Control_c, 2, 7, 78
4, 59679, Control_c, 2, 7, 80
4, 59760, Note_on_c, 2, 76, 110
4, 59767, Note_off_c, 2, 81, 64
4, 59879, Note_off_c, 2, 76, 64
4, 59880, Note_on_c, 2, 78, 110
4, 59999, Note_off_c, 2, 78, 64
4, 60000, Note_on_c, 2, 81, 110
4, 60056, Control_c, 2, 65, 64
4, 60119, Note_off_c, 2, 81, 64
4, 60120, Note_on_c, 2, 84, 110
4, 60272, Control_c, 2, 65, 68
4, 60343, Note_off_c, 2, 84, 64
4, 60360, Note_on_c, 2, 81, 110
4, 60551, Control_c, 2, 65, 68
4, 60552, Control_c, 2, 65, 0
4, 60719, Note_off_c, 2, 81, 64
4, 60720, Note_on_c, 2, 76, 110
4, 60839, Note_off_c, 2, 76, 64
4, 60840, Note_on_c, 2, 78, 110
4, 60959, Note_off_c, 2, 78, 64
4, 60960, Note_on_c, 2, 81, 110
4, 61056, Control_c, 2, 65, 64
4, 61079, Note_off_c, 2, 81, 64
4, 61080, Note_on_c, 2, 84, 110
4, 61272, Control_c, 2, 65, 68
4, 61303, Note_off_c, 2, 84, 64
4, 61320, Note_on_c, 2, 81, 110
4, 61559, Control_c, 2, 65, 68
4, 61568, Control_c, 2, 65, 0
4, 61679, Note_off_c, 2, 81, 64
4, 61680, Note_on_c, 2, 76, 110
4, 61799, Note_off_c, 2, 76, 64
4, 61800, Note_on_c, 2, 78, 110
4, 61919, Note_off_c, 2, 78, 64
4, 61920, Note_on_c, 2, 81, 110
4, 62008, Control_c, 2, 65, 64
4, 62039, Note_off_c, 2, 81, 64
4, 62040, Note_on_c, 2, 84, 110
4, 62168, Control_c, 2, 65, 68
4, 62263, Note_off_c, 2, 84, 64
4, 62280, Note_on_c, 2, 81, 110
4, 62431, Control_c, 2, 65, 68
4, 62432, Control_c, 2, 65, 0
4, 63351, Note_off_c, 2, 81, 64
4, 64895, Control_c, 2, 7, 80
4, 65520, Note_on_c, 2, 79, 127
4, 65650, Pitch_bend_c, 2, 8188
4, 65653, Pitch_bend_c, 2, 8186
4, 65657, Pitch_bend_c, 2, 8182
4, 65660, Pitch_bend_c, 2, 8179
4, 65663, Pitch_bend_c, 2, 8176
4, 65667, Pitch_bend_c, 2, 8170
4, 65670, Pitch_bend_c, 2, 8165
4, 65674, Pitch_bend_c, 2, 8159
4, 65677, Pitch_bend_c, 2, 8153
4, 65681, Pitch_bend_c, 2, 8145
4, 65684, Pitch_bend_c, 2, 8138
4, 65688, Pitch_bend_c, 2, 8129
4, 65691, Pitch_bend_c, 2, 8122
4, 65694, Pitch_bend_c, 2, 8114
4, 65698, Pitch_bend_c, 2, 8102
4, 65701, Pitch_bend_c, 2, 8093
4, 65705, Pitch_bend_c, 2, 8081
4, 65708, Pitch_bend_c, 2, 8071
4, 65712, Pitch_bend_c, 2, 8057
4, 65715, Pitch_bend_c, 2, 8046
4, 65718, Pitch_bend_c, 2, 8035
4, 65722, Pitch_bend_c, 2, 8019
4, 65725, Pitch_bend_c, 2, 8007
4, 65729, Pitch_bend_c, 2, 7990
4, 65732, Pitch_bend_c, 2, 7976
4, 65736, Pitch_bend_c, 2, 7958
4, 65739, Pitch_bend_c, 2, 7944
4, 65743, Pitch_bend_c, 2, 7924
4, 65746, Pitch_bend_c, 2, 7909
4, 65749, Pitch_bend_c, 2, 7893
4, 65753, Pitch_bend_c, 2, 7872
4, 65756, Pitch_bend_c, 2, 7855
4, 65760, Pitch_bend_c, 2, 7832
4, 65763, Pitch_bend_c, 2, 7815
4, 65767, Pitch_bend_c, 2, 7791
4, 65770, Pitch_bend_c, 2, 7773
4, 65774, Pitch_bend_c, 2, 7747
4, 65777, Pitch_bend_c, 2, 7728
4, 65780, Pitch_bend_c, 2, 7707
4, 65784, Pitch_bend_c, 2, 7680
4, 65787, Pitch_bend_c, 2, 7659
4, 65791, Pitch_bend_c, 2, 7631
4, 65794, Pitch_bend_c, 2, 7608
4, 65798, Pitch_bend_c, 2, 7578
4, 65801, Pitch_bend_c, 2, 7556
4, 65804, Pitch_bend_c, 2, 7532
4, 65808, Pitch_bend_c, 2, 7500
4, 65811, Pitch_bend_c, 2, 7476
4, 65815, Pitch_bend_c, 2, 7443
4, 65818, Pitch_bend_c, 2, 7417
4, 65822, Pitch_bend_c, 2, 7383
4, 65825, Pitch_bend_c, 2, 7357
4, 65829, Pitch_bend_c, 2, 7321
4, 65832, Pitch_bend_c, 2, 7294
4, 65835, Pitch_bend_c, 2, 7266
4, 65839, Pitch_bend_c, 2, 7229
4, 65842, Pitch_bend_c, 2, 7200
4, 65846, Pitch_bend_c, 2, 7161
4, 65849, Pitch_bend_c, 2, 7131
4, 65853, Pitch_bend_c, 2, 7091
4, 65856, Pitch_bend_c, 2, 7060
4, 65860, Pitch_bend_c, 2, 7019
4, 65863, Pitch_bend_c, 2, 6988
4, 65866, Pitch_bend_c, 2, 6956
4, 65870, Pitch_bend_c, 2, 6912
4, 65873, Pitch_bend_c, 2, 6879
4, 65877, Pitch_bend_c, 2, 6834
4, 65880, Pitch_bend_c, 2, 6800
4, 65884, Pitch_bend_c, 2, 6754
4, 65887, Pitch_bend_c, 2, 6719
4, 65890, Pitch_bend_c, 2, 6684
4, 65894, Pitch_bend_c, 2, 6636
4, 65897, Pitch_bend_c, 2, 6600
4, 65901, Pitch_bend_c, 2, 6551
4, 65904, Pitch_bend_c, 2, 6513
4, 65908, Pitch_bend_c, 2, 6462
4, 65911, Pitch_bend_c, 2, 6424
4, 65915, Pitch_bend_c, 2, 6372
4, 65918, Pitch_bend_c, 2, 6333
4, 65921, Pitch_bend_c, 2, 6293
4, 65925, Pitch_bend_c, 2, 6240
4, 65928, Pitch_bend_c, 2, 6199
4, 65932, Pitch_bend_c, 2, 6144
4, 65935, Pitch_bend_c, 2, 6102
4, 65939, Pitch_bend_c, 2, 6046
4, 65942, Pitch_bend_c, 2, 6003
4, 65946, Pitch_bend_c, 2, 5945
4, 65949, Pitch_bend_c, 2, 5902
4, 65952, Pitch_bend_c, 2, 5858
4, 65956, Pitch_bend_c, 2, 5798
4, 65959, Pitch_bend_c, 2, 5753
4, 65963, Pitch_bend_c, 2, 5692
4, 65966, Pitch_bend_c, 2, 5646
4, 65970, Pitch_bend_c, 2, 5584
4, 65973, Pitch_bend_c, 2, 5537
4, 65976, Pitch_bend_c, 2, 5490
4, 65980, Pitch_bend_c, 2, 5426
4, 65983, Pitch_bend_c, 2, 5378
4, 65987, Pitch_bend_c, 2, 5312
4, 65990, Pitch_bend_c, 2, 5262
4, 65994, Pitch_bend_c, 2, 5196
4, 65997, Pitch_bend_c, 2, 5146
4, 66001, Pitch_bend_c, 2, 5078
4, 66004, Pitch_bend_c, 2, 5026
4, 66007, Pitch_bend_c, 2, 4975
4, 66011, Pitch_bend_c, 2, 4905
4, 66014, Pitch_bend_c, 2, 4852
4, 66018, Pitch_bend_c, 2, 4781
4, 66021, Pitch_bend_c, 2, 4727
4, 66025, Pitch_bend_c, 2, 4655
4, 66028, Pitch_bend_c, 2, 4600
4, 66032, Pitch_bend_c, 2, 4526
4, 66035, Pitch_bend_c, 2, 4470
4, 66038, Pitch_bend_c, 2, 4414
4, 66042, Pitch_bend_c, 2, 4338
4, 66045, Pitch_bend_c, 2, 4281
4, 66049, Pitch_bend_c, 2, 4205
4, 66052, Pitch_bend_c, 2, 4146
4, 66056, Pitch_bend_c, 2, 4068
4, 66059, Pitch_bend_c, 2, 4009
4, 66062, Pitch_bend_c, 2, 3950
4, 66066, Pitch_bend_c, 2, 3870
4, 66069, Pitch_bend_c, 2, 3809
4, 66073, Pitch_bend_c, 2, 3728
4, 66076, Pitch_bend_c, 2, 3666
4, 66080, Pitch_bend_c, 2, 3584
4, 66083, Pitch_bend_c, 2, 3521
4, 66087, Pitch_bend_c, 2, 3437
4, 66090, Pitch_bend_c, 2, 3374
4, 66093, Pitch_bend_c, 2, 3310
4, 66096, Pitch_bend_c, 2, 3328
4, 66133, Note_off_c, 2, 79, 64
4, 66408, Pitch_bend_c, 2, 8192
4, 66480, Note_on_c, 2, 81, 127
4, 66642, Pitch_bend_c, 2, 8187
4, 66645, Pitch_bend_c, 2, 8185
4, 66649, Pitch_bend_c, 2, 8181
4, 66652, Pitch_bend_c, 2, 8178
4, 66655, Pitch_bend_c, 2, 8175
4, 66659, Pitch_bend_c, 2, 8169
4, 66662, Pitch_bend_c, 2, 8164
4, 66666, Pitch_bend_c, 2, 8157
4, 66669, Pitch_bend_c, 2, 8151
4, 66673, Pitch_bend_c, 2, 8143
4, 66676, Pitch_bend_c, 2, 8136
4, 66680, Pitch_bend_c, 2, 8126
4, 66683, Pitch_bend_c, 2, 8119
4, 66686, Pitch_bend_c, 2, 8111
4, 66690, Pitch_bend_c, 2, 8099
4, 66693, Pitch_bend_c, 2, 8090
4, 66697, Pitch_bend_c, 2, 8077
4, 66700, Pitch_bend_c, 2, 8066
4, 66704, Pitch_bend_c, 2, 8052
4, 66707, Pitch_bend_c, 2, 8041
4, 66711, Pitch_bend_c, 2, 8025
4, 66714, Pitch_bend_c, 2, 8013
4, 66717, Pitch_bend_c, 2, 8000
4, 66721, Pitch_bend_c, 2, 7983
4, 66724, Pitch_bend_c, 2, 7969
4, 66728, Pitch_bend_c, 2, 7950
4, 66731, Pitch_bend_c, 2, 7935
4, 66735, Pitch_bend_c, 2, 7915
4, 66738, Pitch_bend_c, 2, 7899
4, 66741, Pitch_bend_c, 2, 7883
4, 66745, Pitch_bend_c, 2, 7861
4, 66748, Pitch_bend_c, 2, 7843
4, 66752, Pitch_bend_c, 2, 7819
4, 66755, Pitch_bend_c, 2, 7801
4, 66759, Pitch_bend_c, 2, 7777
4, 66762, Pitch_bend_c, 2, 7757
4, 66766, Pitch_bend_c, 2, 7731
4, 66769, Pitch_bend_c, 2, 7710
4, 66772, Pitch_bend_c, 2, 7689
4, 66776, Pitch_bend_c, 2, 7661
4, 66779, Pitch_bend_c, 2, 7639
4, 66783, Pitch_bend_c, 2, 7610
4, 66786, Pitch_bend_c, 2, 7587
4, 66790, Pitch_bend_c, 2, 7556
4, 66793, Pitch_bend_c, 2, 7532
4, 66797, Pitch_bend_c, 2, 7500
4, 66800, Pitch_bend_c, 2, 7475
4, 66803, Pitch_bend_c, 2, 7450
4, 66807, Pitch_bend_c, 2, 7416
4, 66810, Pitch_bend_c, 2, 7389
4, 66814, Pitch_bend_c, 2, 7353
4, 66817, Pitch_bend_c, 2, 7326
4, 66821, Pitch_bend_c, 2, 7289
4, 66824, Pitch_bend_c, 2, 7261
4, 66827, Pitch_bend_c, 2, 7232
4, 66831, Pitch_bend_c, 2, 7193
4, 66834, Pitch_bend_c, 2, 7163
4, 66838, Pitch_bend_c, 2, 7123
4, 66841, Pitch_bend_c, 2, 7093
4, 66845, Pitch_bend_c, 2, 7051
4, 66848, Pitch_bend_c, 2, 7019
4, 66852, Pitch_bend_c, 2, 6976
4, 66855, Pitch_bend_c, 2, 6943
4, 66858, Pitch_bend_c, 2, 6910
4, 66862, Pitch_bend_c, 2, 6865
4, 66865, Pitch_bend_c, 2, 6831
4, 66869, Pitch_bend_c, 2, 6784
4, 66872, Pitch_bend_c, 2, 6749
4, 66876, Pitch_bend_c, 2, 6701
4, 66879, Pitch_bend_c, 2, 6665
4, 66883, Pitch_bend_c, 2, 6616
4, 66886, Pitch_bend_c, 2, 6579
4, 66889, Pitch_bend_c, 2, 6542
4, 66893, Pitch_bend_c, 2, 6491
4, 66896, Pitch_bend_c, 2, 6452
4, 66900, Pitch_bend_c, 2, 6399
4, 66903, Pitch_bend_c, 2, 6360
4, 66907, Pitch_bend_c, 2, 6306
4, 66910, Pitch_bend_c, 2, 6265
4, 66913, Pitch_bend_c, 2, 6224
4, 66917, Pitch_bend_c, 2, 6168
4, 66920, Pitch_bend_c, 2, 6126
4, 66924, Pitch_bend_c, 2, 6069
4, 66927, Pitch_bend_c, 2, 6026
4, 66931, Pitch_bend_c, 2, 5967
4, 66934, Pitch_bend_c, 2, 5923
4, 66938, Pitch_bend_c, 2, 5863
4, 66941, Pitch_bend_c, 2, 5818
4, 66944, Pitch_bend_c, 2, 5772
4, 66948, Pitch_bend_c, 2, 5710
4, 66951, Pitch_bend_c, 2, 5664
4, 66955, Pitch_bend_c, 2, 5601
4, 66958, Pitch_bend_c, 2, 5553
4, 66962, Pitch_bend_c, 2, 5489
4, 66965, Pitch_bend_c, 2, 5440
4, 66969, Pitch_bend_c, 2, 5375
4, 66972, Pitch_bend_c, 2, 5324
4, 66975, Pitch_bend_c, 2, 5274
4, 66979, Pitch_bend_c, 2, 5206
4, 66982, Pitch_bend_c, 2, 5155
4, 66986, Pitch_bend_c, 2, 5086
4, 66989, Pitch_bend_c, 2, 5034
4, 66993, Pitch_bend_c, 2, 4964
4, 66996, Pitch_bend_c, 2, 4910
4, 66999, Pitch_bend_c, 2, 4857
4, 67003, Pitch_bend_c, 2, 4785
4, 67006, Pitch_bend_c, 2, 4730
4, 67010, Pitch_bend_c, 2, 4656
4, 67013, Pitch_bend_c, 2, 4600
4, 67017, Pitch_bend_c, 2, 4525
4, 67020, Pitch_bend_c, 2, 4468
4, 67024, Pitch_bend_c, 2, 4392
4, 67027, Pitch_bend_c, 2, 4334
4, 67030, Pitch_bend_c, 2, 4276
4, 67034, Pitch_bend_c, 2, 4198
4, 67037, Pitch_bend_c, 2, 4139
4, 67041, Pitch_bend_c, 2, 4059
4, 67044, Pitch_bend_c, 2, 3999
4, 67048, Pitch_bend_c, 2, 3918
4, 67051, Pitch_bend_c, 2, 3857
4, 67055, Pitch_bend_c, 2, 3774
4, 67058, Pitch_bend_c, 2, 3712
4, 67061, Pitch_bend_c, 2, 3649
4, 67065, Pitch_bend_c, 2, 3565
4, 67068, Pitch_bend_c, 2, 3501
4, 67072, Pitch_bend_c, 2, 3415
4, 67075, Pitch_bend_c, 2, 3350
4, 67079, Pitch_bend_c, 2, 3263
4, 67080, Pitch_bend_c, 2, 3328
4, 67093, Note_off_c, 2, 81, 64
4, 67440, Note_on_c, 2, 83, 127
4, 67472, Pitch_bend_c, 2, 8192
4, 67713, Pitch_bend_c, 2, 8187
4, 67716, Pitch_bend_c, 2, 8172
4, 67719, Pitch_bend_c, 2, 8158
4, 67723, Pitch_bend_c, 2, 8138
4, 67726, Pitch_bend_c, 2, 8124
4, 67730, Pitch_bend_c, 2, 8104
4, 67733, Pitch_bend_c, 2, 8090
4, 67737, Pitch_bend_c, 2, 8070
4, 67740, Pitch_bend_c, 2, 8056
4, 67744, Pitch_bend_c, 2, 8036
4, 67747, Pitch_bend_c, 2, 8022
4, 67750, Pitch_bend_c, 2, 8007
4, 67754, Pitch_bend_c, 2, 7988
4, 67757, Pitch_bend_c, 2, 7973
4, 67761, Pitch_bend_c, 2, 7954
4, 67764, Pitch_bend_c, 2, 7939
4, 67768, Pitch_bend_c, 2, 7920
4, 67771, Pitch_bend_c, 2, 7905
4, 67775, Pitch_bend_c, 2, 7886
4, 67778, Pitch_bend_c, 2, 7871
4, 67781, Pitch_bend_c, 2, 7857
4, 67785, Pitch_bend_c, 2, 7837
4, 67788, Pitch_bend_c, 2, 7823
4, 67792, Pitch_bend_c, 2, 7803
4, 67795, Pitch_bend_c, 2, 7789
4, 67799, Pitch_bend_c, 2, 7769
4, 67802, Pitch_bend_c, 2, 7755
4, 67806, Pitch_bend_c, 2, 7735
4, 67809, Pitch_bend_c, 2, 7721
4, 67813, Pitch_bend_c, 2, 7701
4, 67816, Pitch_bend_c, 2, 7687
4, 67819, Pitch_bend_c, 2, 7672
4, 67823, Pitch_bend_c, 2, 7653
4, 67826, Pitch_bend_c, 2, 7638
4, 67830, Pitch_bend_c, 2, 7619
4, 67833, Pitch_bend_c, 2, 7604
4, 67837, Pitch_bend_c, 2, 7585
4, 67840, Pitch_bend_c, 2, 7571
4, 67844, Pitch_bend_c, 2, 7551
4, 67847, Pitch_bend_c, 2, 7537
4, 67850, Pitch_bend_c, 2, 7522
4, 67854, Pitch_bend_c, 2, 7503
4, 67857, Pitch_bend_c, 2, 7488
4, 67861, Pitch_bend_c, 2, 7469
4, 67864, Pitch_bend_c, 2, 7454
4, 67868, Pitch_bend_c, 2, 7435
4, 67871, Pitch_bend_c, 2, 7420
4, 67875, Pitch_bend_c, 2, 7401
4, 67878, Pitch_bend_c, 2, 7386
4, 67881, Pitch_bend_c, 2, 7372
4, 67885, Pitch_bend_c, 2, 7352
4, 67888, Pitch_bend_c, 2, 7338
4, 67892, Pitch_bend_c, 2, 7318
4, 67895, Pitch_bend_c, 2, 7304
4, 67899, Pitch_bend_c, 2, 7284
4, 67902, Pitch_bend_c, 2, 7270
4, 67906, Pitch_bend_c, 2, 7250
4, 67909, Pitch_bend_c, 2, 7236
4, 67912, Pitch_bend_c, 2, 7221
4, 67916, Pitch_bend_c, 2, 7202
4, 67919, Pitch_bend_c, 2, 7187
4, 67923, Pitch_bend_c, 2, 7168
4, 67926, Pitch_bend_c, 2, 7153
4, 67930, Pitch_bend_c, 2, 7134
4, 67933, Pitch_bend_c, 2, 7119
4, 67937, Pitch_bend_c, 2, 7100
4, 67940, Pitch_bend_c, 2, 7085
4, 67943, Pitch_bend_c, 2, 7071
4, 67947, Pitch_bend_c, 2, 7051
4, 67950, Pitch_bend_c, 2, 7037
4, 67954, Pitch_bend_c, 2, 7017
4, 67957, Pitch_bend_c, 2, 7003
4, 67961, Pitch_bend_c, 2, 6983
4, 67964, Pitch_bend_c, 2, 6969
4, 67968, Pitch_bend_c, 2, 6950
4, 67971, Pitch_bend_c, 2, 6935
4, 67974, Pitch_bend_c, 2, 6920
4, 67978, Pitch_bend_c, 2, 6901
4, 67981, Pitch_bend_c, 2, 6886
4, 67985, Pitch_bend_c, 2, 6867
4, 67988, Pitch_bend_c, 2, 6852
4, 67992, Pitch_bend_c, 2, 6833
4, 67995, Pitch_bend_c, 2, 6819
4, 67999, Pitch_bend_c, 2, 6799
4, 68002, Pitch_bend_c, 2, 6785
4, 68005, Pitch_bend_c, 2, 6770
4, 68009, Pitch_bend_c, 2, 6751
4, 68012, Pitch_bend_c, 2, 6736
4, 68016, Pitch_bend_c, 2, 6717
4, 68019, Pitch_bend_c, 2, 6702
4, 68023, Pitch_bend_c, 2, 6683
4, 68026, Pitch_bend_c, 2, 6668
4, 68030, Pitch_bend_c, 2, 6649
4, 68033, Pitch_bend_c, 2, 6634
4, 68036, Pitch_bend_c, 2, 6620
4, 68040, Pitch_bend_c, 2, 6600
4, 68043, Pitch_bend_c, 2, 6586
4, 68047, Pitch_bend_c, 2, 6566
4, 68050, Pitch_bend_c, 2, 6552
4, 68054, Pitch_bend_c, 2, 6532
4, 68057, Pitch_bend_c, 2, 6518
4, 68061, Pitch_bend_c, 2, 6498
4, 68064, Pitch_bend_c, 2, 6484
4, 68067, Pitch_bend_c, 2, 6469
4, 68071, Pitch_bend_c, 2, 6450
4, 68074, Pitch_bend_c, 2, 6435
4, 68078, Pitch_bend_c, 2, 6416
4, 68081, Pitch_bend_c, 2, 6401
4, 68085, Pitch_bend_c, 2, 6382
4, 68088, Pitch_bend_c, 2, 6367
4, 68092, Pitch_bend_c, 2, 6348
4, 68095, Pitch_bend_c, 2, 6333
4, 68098, Pitch_bend_c, 2, 6319
4, 68102, Pitch_bend_c, 2, 6299
4, 68105, Pitch_bend_c, 2, 6285
4, 68109, Pitch_bend_c, 2, 6265
4, 68112, Pitch_bend_c, 2, 6251
4, 68116, Pitch_bend_c, 2, 6231
4, 68119, Pitch_bend_c, 2, 6217
4, 68123, Pitch_bend_c, 2, 6198
4, 68126, Pitch_bend_c, 2, 6183
4, 68129, Pitch_bend_c, 2, 6168
4, 68133, Pitch_bend_c, 2, 6149
4, 68136, Pitch_bend_c, 2, 6134
4, 68140, Pitch_bend_c, 2, 6115
4, 68143, Pitch_bend_c, 2, 6100
4, 68147, Pitch_bend_c, 2, 6081
4, 68150, Pitch_bend_c, 2, 6067
4, 68154, Pitch_bend_c, 2, 6047
4, 68157, Pitch_bend_c, 2, 6033
4, 68160, Pitch_bend_c, 2, 6018
4, 68164, Pitch_bend_c, 2, 5999
4, 68167, Pitch_bend_c, 2, 5984
4, 68171, Pitch_bend_c, 2, 5965
4, 68174, Pitch_bend_c, 2, 5950
4, 68178, Pitch_bend_c, 2, 5931
4, 68181, Pitch_bend_c, 2, 5916
4, 68185, Pitch_bend_c, 2, 5897
4, 68188, Pitch_bend_c, 2, 5882
4, 68191, Pitch_bend_c, 2, 5868
4, 68195, Pitch_bend_c, 2, 5848
4, 68198, Pitch_bend_c, 2, 5834
4, 68202, Pitch_bend_c, 2, 5814
4, 68205, Pitch_bend_c, 2, 5800
4, 68209, Pitch_bend_c, 2, 5780
4, 68212, Pitch_bend_c, 2, 5766
4, 68216, Pitch_bend_c, 2, 5746
4, 68219, Pitch_bend_c, 2, 5732
4, 68222, Pitch_bend_c, 2, 5717
4, 68226, Pitch_bend_c, 2, 5698
4, 68229, Pitch_bend_c, 2, 5683
4, 68233, Pitch_bend_c, 2, 5664
4, 68236, Pitch_bend_c, 2, 5649
4, 68240, Pitch_bend_c, 2, 5630
4, 68243, Pitch_bend_c, 2, 5615
4, 68247, Pitch_bend_c, 2, 5596
4, 68250, Pitch_bend_c, 2, 5581
4, 68254, Pitch_bend_c, 2, 5562
4, 68257, Pitch_bend_c, 2, 5547
4, 68260, Pitch_bend_c, 2, 5533
4, 68264, Pitch_bend_c, 2, 5513
4, 68267, Pitch_bend_c, 2, 5499
4, 68271, Pitch_bend_c, 2, 5479
4, 68274, Pitch_bend_c, 2, 5465
4, 68278, Pitch_bend_c, 2, 5446
4, 68281, Pitch_bend_c, 2, 5431
4, 68285, Pitch_bend_c, 2, 5412
4, 68288, Pitch_bend_c, 2, 5397
4, 68291, Pitch_bend_c, 2, 5382
4, 68295, Pitch_bend_c, 2, 5363
4, 68298, Pitch_bend_c, 2, 5348
4, 68302, Pitch_bend_c, 2, 5329
4, 68305, Pitch_bend_c, 2, 5315
4, 68309, Pitch_bend_c, 2, 5295
4, 68312, Pitch_bend_c, 2, 5281
4, 68316, Pitch_bend_c, 2, 5261
4, 68319, Pitch_bend_c, 2, 5247
4, 68322, Pitch_bend_c, 2, 5232
4, 68326, Pitch_bend_c, 2, 5213
4, 68329, Pitch_bend_c, 2, 5198
4, 68333, Pitch_bend_c, 2, 5179
4, 68336, Pitch_bend_c, 2, 5164
4, 68340, Pitch_bend_c, 2, 5145
4, 68343, Pitch_bend_c, 2, 5130
4, 68347, Pitch_bend_c, 2, 5111
4, 68350, Pitch_bend_c, 2, 5096
4, 68353, Pitch_bend_c, 2, 5082
4, 68357, Pitch_bend_c, 2, 5062
4, 68360, Pitch_bend_c, 2, 5048
4, 68364, Pitch_bend_c, 2, 5028
4, 68367, Pitch_bend_c, 2, 5014
4, 68371, Pitch_bend_c, 2, 4994
4, 68374, Pitch_bend_c, 2, 4980
4, 68378, Pitch_bend_c, 2, 4960
4, 68381, Pitch_bend_c, 2, 4946
4, 68384, Pitch_bend_c, 2, 4931
4, 68388, Pitch_bend_c, 2, 4912
4, 68391, Pitch_bend_c, 2, 4897
4, 68395, Pitch_bend_c, 2, 4878
4, 68398, Pitch_bend_c, 2, 4863
4, 68402, Pitch_bend_c, 2, 4844
4, 68405, Pitch_bend_c, 2, 4829
4, 68409, Pitch_bend_c, 2, 4810
4, 68412, Pitch_bend_c, 2, 4795
4, 68415, Pitch_bend_c, 2, 4781
4, 68419, Pitch_bend_c, 2, 4761
4, 68422, Pitch_bend_c, 2, 4747
4, 68426, Pitch_bend_c, 2, 4727
4, 68429, Pitch_bend_c, 2, 4713
4, 68433, Pitch_bend_c, 2, 4694
4, 68436, Pitch_bend_c, 2, 4679
4, 68440, Pitch_bend_c, 2, 4660
4, 68443, Pitch_bend_c, 2, 4645
4, 68446, Pitch_bend_c, 2, 4630
4, 68450, Pitch_bend_c, 2, 4611
4, 68453, Pitch_bend_c, 2, 4596
4, 68457, Pitch_bend_c, 2, 4577
4, 68460, Pitch_bend_c, 2, 4563
4, 68464, Pitch_bend_c, 2, 4543
4, 68467, Pitch_bend_c, 2, 4529
4, 68471, Pitch_bend_c, 2, 4509
4, 68474, Pitch_bend_c, 2, 4495
4, 68477, Pitch_bend_c, 2, 4480
4, 68481, Pitch_bend_c, 2, 4461
4, 68484, Pitch_bend_c, 2, 4446
4, 68488, Pitch_bend_c, 2, 4427
4, 68491, Pitch_bend_c, 2, 4412
4, 68495, Pitch_bend_c, 2, 4393
4, 68498, Pitch_bend_c, 2, 4378
4, 68502, Pitch_bend_c, 2, 4359
4, 68505, Pitch_bend_c, 2, 4344
4, 68508, Pitch_bend_c, 2, 4330
4, 68512, Pitch_bend_c, 2, 4310
4, 68515, Pitch_bend_c, 2, 4296
4, 68519, Pitch_bend_c, 2, 4276
4, 68522, Pitch_bend_c, 2, 4262
4, 68526, Pitch_bend_c, 2, 4242
4, 68529, Pitch_bend_c, 2, 4228
4, 68533, Pitch_bend_c, 2, 4208
4, 68536, Pitch_bend_c, 2, 4194
4, 68539, Pitch_bend_c, 2, 4179
4, 68543, Pitch_bend_c, 2, 4160
4, 68546, Pitch_bend_c, 2, 4145
4, 68550, Pitch_bend_c, 2, 4126
4, 68553, Pitch_bend_c, 2, 4111
4, 68557, Pitch_bend_c, 2, 4092
4, 68560, Pitch_bend_c, 2, 4077
4, 68564, Pitch_bend_c, 2, 4058
4, 68567, Pitch_bend_c, 2, 4043
4, 68570, Pitch_bend_c, 2, 4029
4, 68574, Pitch_bend_c, 2, 4009
4, 68577, Pitch_bend_c, 2, 3995
4, 68581, Pitch_bend_c, 2, 3975
4, 68584, Pitch_bend_c, 2, 3961
4, 68588, Pitch_bend_c, 2, 3942
4, 68591, Pitch_bend_c, 2, 3927
4, 68595, Pitch_bend_c, 2, 3908
4, 68598, Pitch_bend_c, 2, 3893
4, 68601, Pitch_bend_c, 2, 3878
4, 68605, Pitch_bend_c, 2, 3859
4, 68608, Pitch_bend_c, 2, 3845
4, 68612, Pitch_bend_c, 2, 3825
4, 68615, Pitch_bend_c, 2, 3811
4, 68619, Pitch_bend_c, 2, 3791
4, 68622, Pitch_bend_c, 2, 3777
4, 68626, Pitch_bend_c, 2, 3757
4, 68629, Pitch_bend_c, 2, 3743
4, 68632, Pitch_bend_c, 2, 3728
4, 68636, Pitch_bend_c, 2, 3709
4, 68639, Pitch_bend_c, 2, 3694
4, 68643, Pitch_bend_c, 2, 3675
4, 68646, Pitch_bend_c, 2, 3660
4, 68650, Pitch_bend_c, 2, 3641
4, 68653, Pitch_bend_c, 2, 3626
4, 68657, Pitch_bend_c, 2, 3607
4, 68660, Pitch_bend_c, 2, 3592
4, 68663, Pitch_bend_c, 2, 3578
4, 68667, Pitch_bend_c, 2, 3558
4, 68670, Pitch_bend_c, 2, 3544
4, 68674, Pitch_bend_c, 2, 3524
4, 68677, Pitch_bend_c, 2, 3510
4, 68681, Pitch_bend_c, 2, 3490
4, 68684, Pitch_bend_c, 2, 3476
4, 68688, Pitch_bend_c, 2, 3456
4, 68691, Pitch_bend_c, 2, 3442
4, 68695, Pitch_bend_c, 2, 3422
4, 68698, Pitch_bend_c, 2, 3408
4, 68701, Pitch_bend_c, 2, 3393
4, 68705, Pitch_bend_c, 2, 3374
4, 68708, Pitch_bend_c, 2, 3359
4, 68712, Pitch_bend_c, 2, 3340
4, 68715, Pitch_bend_c, 2, 3325
4, 68719, Pitch_bend_c, 2, 3306
4, 68722, Pitch_bend_c, 2, 3291
4, 68726, Pitch_bend_c, 2, 3272
4, 68729, Pitch_bend_c, 2, 3257
4, 68732, Pitch_bend_c, 2, 3243
4, 68736, Pitch_bend_c, 2, 3224
4, 68739, Pitch_bend_c, 2, 3209
4, 68743, Pitch_bend_c, 2, 3190
4, 68746, Pitch_bend_c, 2, 3175
4, 68750, Pitch_bend_c, 2, 3156
4, 68753, Pitch_bend_c, 2, 3141
4, 68757, Pitch_bend_c, 2, 3122
4, 68760, Pitch_bend_c, 2, 3107
4, 68763, Pitch_bend_c, 2, 3093
4, 68767, Pitch_bend_c, 2, 3073
4, 68770, Pitch_bend_c, 2, 3059
4, 68774, Pitch_bend_c, 2, 3039
4, 68777, Pitch_bend_c, 2, 3025
4, 68781, Pitch_bend_c, 2, 3005
4, 68784, Pitch_bend_c, 2, 2991
4, 68788, Pitch_bend_c, 2, 2971
4, 68791, Pitch_bend_c, 2, 2957
4, 68794, Pitch_bend_c, 2, 2942
4, 68798, Pitch_bend_c, 2, 2923
4, 68801, Pitch_bend_c, 2, 2908
4, 68805, Pitch_bend_c, 2, 2889
4, 68808, Pitch_bend_c, 2, 2874
4, 68812, Pitch_bend_c, 2, 2855
4, 68815, Pitch_bend_c, 2, 2840
4, 68819, Pitch_bend_c, 2, 2821
4, 68822, Pitch_bend_c, 2, 2806
4, 68825, Pitch_bend_c, 2, 2792
4, 68829, Pitch_bend_c, 2, 2772
4, 68832, Pitch_bend_c, 2, 2758
4, 68836, Pitch_bend_c, 2, 2738
4, 68839, Pitch_bend_c, 2, 2724
4, 68843, Pitch_bend_c, 2, 2704
4, 68846, Pitch_bend_c, 2, 2690
4, 68850, Pitch_bend_c, 2, 2670
4, 68853, Pitch_bend_c, 2, 2656
4, 68856, Pitch_bend_c, 2, 2641
4, 68860, Pitch_bend_c, 2, 2622
4, 68863, Pitch_bend_c, 2, 2607
4, 68867, Pitch_bend_c, 2, 2588
4, 68870, Pitch_bend_c, 2, 2573
4, 68874, Pitch_bend_c, 2, 2554
4, 68877, Pitch_bend_c, 2, 2539
4, 68881, Pitch_bend_c, 2, 2520
4, 68884, Pitch_bend_c, 2, 2505
4, 68887, Pitch_bend_c, 2, 2491
4, 68891, Pitch_bend_c, 2, 2472
4, 68894, Pitch_bend_c, 2, 2457
4, 68898, Pitch_bend_c, 2, 2438
4, 68901, Pitch_bend_c, 2, 2423
4, 68905, Pitch_bend_c, 2, 2404
4, 68908, Pitch_bend_c, 2, 2389
4, 68912, Pitch_bend_c, 2, 2370
4, 68915, Pitch_bend_c, 2, 2355
4, 68918, Pitch_bend_c, 2, 2341
4, 68922, Pitch_bend_c, 2, 2321
4, 68925, Pitch_bend_c, 2, 2307
4, 68929, Pitch_bend_c, 2, 2287
4, 68932, Pitch_bend_c, 2, 2273
4, 68936, Pitch_bend_c, 2, 2253
4, 68939, Pitch_bend_c, 2, 2239
4, 68943, Pitch_bend_c, 2, 2219
4, 68946, Pitch_bend_c, 2, 2205
4, 68949, Pitch_bend_c, 2, 2190
4, 68953, Pitch_bend_c, 2, 2171
4, 68956, Pitch_bend_c, 2, 2156
4, 68960, Pitch_bend_c, 2, 2137
4, 68963, Pitch_bend_c, 2, 2122
4, 68967, Pitch_bend_c, 2, 2103
4, 68970, Pitch_bend_c, 2, 2088
4, 68974, Pitch_bend_c, 2, 2069
4, 68977, Pitch_bend_c, 2, 2054
4, 68980, Pitch_bend_c, 2, 2040
4, 68984, Pitch_bend_c, 2, 2020
4, 68987, Pitch_bend_c, 2, 2006
4, 68991, Pitch_bend_c, 2, 1986
4, 68994, Pitch_bend_c, 2, 1972
4, 68998, Pitch_bend_c, 2, 1952
4, 69001, Pitch_bend_c, 2, 1938
4, 69005, Pitch_bend_c, 2, 1918
4, 69008, Pitch_bend_c, 2, 1904
4, 69011, Pitch_bend_c, 2, 1889
4, 69015, Pitch_bend_c, 2, 1870
4, 69018, Pitch_bend_c, 2, 1855
4, 69022, Pitch_bend_c, 2, 1836
4, 69025, Pitch_bend_c, 2, 1821
4, 69029, Pitch_bend_c, 2, 1802
4, 69032, Pitch_bend_c, 2, 1787
4, 69036, Pitch_bend_c, 2, 1768
4, 69039, Pitch_bend_c, 2, 1753
4, 69042, Pitch_bend_c, 2, 1739
4, 69046, Pitch_bend_c, 2, 1720
4, 69049, Pitch_bend_c, 2, 1705
4, 69053, Pitch_bend_c, 2, 1686
4, 69056, Pitch_bend_c, 2, 1671
4, 69060, Pitch_bend_c, 2, 1652
4, 69063, Pitch_bend_c, 2, 1637
4, 69067, Pitch_bend_c, 2, 1618
4, 69070, Pitch_bend_c, 2, 1603
4, 69073, Pitch_bend_c, 2, 1589
4, 69077, Pitch_bend_c, 2, 1569
4, 69080, Pitch_bend_c, 2, 1555
4, 69084, Pitch_bend_c, 2, 1535
4, 69087, Pitch_bend_c, 2, 1521
4, 69091, Pitch_bend_c, 2, 1501
4, 69094, Pitch_bend_c, 2, 1487
4, 69098, Pitch_bend_c, 2, 1467
4, 69101, Pitch_bend_c, 2, 1453
4, 69104, Pitch_bend_c, 2, 1438
4, 69108, Pitch_bend_c, 2, 1419
4, 69111, Pitch_bend_c, 2, 1404
4, 69115, Pitch_bend_c, 2, 1385
4, 69118, Pitch_bend_c, 2, 1024
4, 69138, Pitch_bend_c, 2, 1024
4, 69139, Pitch_bend_c, 2, 960
4, 69142, Pitch_bend_c, 2, 932
4, 69146, Pitch_bend_c, 2, 896
4, 69149, Pitch_bend_c, 2, 868
4, 69153, Pitch_bend_c, 2, 832
4, 69156, Pitch_bend_c, 2, 804
4, 69159, Pitch_bend_c, 2, 768
4, 69160, Pitch_bend_c, 2, 665
4, 69163, Pitch_bend_c, 2, 658
4, 69167, Pitch_bend_c, 2, 648
4, 69170, Pitch_bend_c, 2, 641
4, 69174, Pitch_bend_c, 2, 631
4, 69177, Pitch_bend_c, 2, 624
4, 69181, Pitch_bend_c, 2, 614
4, 69184, Pitch_bend_c, 2, 607
4, 69188, Pitch_bend_c, 2, 597
4, 69191, Pitch_bend_c, 2, 590
4, 69195, Pitch_bend_c, 2, 580
4, 69198, Pitch_bend_c, 2, 573
4, 69202, Pitch_bend_c, 2, 563
4, 69205, Pitch_bend_c, 2, 555
4, 69209, Pitch_bend_c, 2, 546
4, 69212, Pitch_bend_c, 2, 538
4, 69216, Pitch_bend_c, 2, 529
4, 69219, Pitch_bend_c, 2, 521
4, 69222, Pitch_bend_c, 2, 512
4, 69226, Pitch_bend_c, 2, 620
4, 69229, Pitch_bend_c, 2, 635
4, 69232, Pitch_bend_c, 2, 650
4, 69236, Pitch_bend_c, 2, 670
4, 69239, Pitch_bend_c, 2, 684
4, 69243, Pitch_bend_c, 2, 704
4, 69246, Pitch_bend_c, 2, 719
4, 69250, Pitch_bend_c, 2, 739
4, 69253, Pitch_bend_c, 2, 753
4, 69257, Pitch_bend_c, 2, 773
4, 69260, Pitch_bend_c, 2, 788
4, 69263, Pitch_bend_c, 2, 803
4, 69267, Pitch_bend_c, 2, 822
4, 69270, Pitch_bend_c, 2, 837
4, 69274, Pitch_bend_c, 2, 857
4, 69277, Pitch_bend_c, 2, 872
4, 69281, Pitch_bend_c, 2, 891
4, 69284, Pitch_bend_c, 2, 906
4, 69287, Pitch_bend_c, 2, 921
4, 69291, Pitch_bend_c, 2, 941
4, 69294, Pitch_bend_c, 2, 956
4, 69298, Pitch_bend_c, 2, 975
4, 69301, Pitch_bend_c, 2, 990
4, 69305, Pitch_bend_c, 2, 1010
4, 69308, Pitch_bend_c, 2, 1025
4, 69312, Pitch_bend_c, 2, 1044
4, 69315, Pitch_bend_c, 2, 1059
4, 69318, Pitch_bend_c, 2, 1074
4, 69322, Pitch_bend_c, 2, 1094
4, 69325, Pitch_bend_c, 2, 1108
4, 69329, Pitch_bend_c, 2, 1128
4, 69332, Pitch_bend_c, 2, 1143
4, 69336, Pitch_bend_c, 2, 1163
4, 69339, Pitch_bend_c, 2, 1177
4, 69342, Pitch_bend_c, 2, 1192
4, 69346, Pitch_bend_c, 2, 1212
4, 69349, Pitch_bend_c, 2, 1227
4, 69353, Pitch_bend_c, 2, 1246
4, 69356, Pitch_bend_c, 2, 1261
4, 69360, Pitch_bend_c, 2, 1281
4, 69363, Pitch_bend_c, 2, 1296
4, 69367, Pitch_bend_c, 2, 1315
4, 69370, Pitch_bend_c, 2, 1330
4, 69373, Pitch_bend_c, 2, 1345
4, 69377, Pitch_bend_c, 2, 1365
4, 69380, Pitch_bend_c, 2, 1379
4, 69384, Pitch_bend_c, 2, 1399
4, 69387, Pitch_bend_c, 2, 1414
4, 69391, Pitch_bend_c, 2, 1434
4, 69394, Pitch_bend_c, 2, 1448
4, 69397, Pitch_bend_c, 2, 1463
4, 69401, Pitch_bend_c, 2, 1483
4, 69404, Pitch_bend_c, 2, 1498
4, 69408, Pitch_bend_c, 2, 1518
4, 69411, Pitch_bend_c, 2, 1532
4, 69415, Pitch_bend_c, 2, 1552
4, 69418, Pitch_bend_c, 2, 1567
4, 69422, Pitch_bend_c, 2, 1587
4, 69425, Pitch_bend_c, 2, 1601
4, 69428, Pitch_bend_c, 2, 1616
4, 69432, Pitch_bend_c, 2, 1636
4, 69435, Pitch_bend_c, 2, 1651
4, 69439, Pitch_bend_c, 2, 1670
4, 69442, Pitch_bend_c, 2, 1685
4, 69446, Pitch_bend_c, 2, 1705
4, 69449, Pitch_bend_c, 2, 1720
4, 69452, Pitch_bend_c, 2, 1734
4, 69456, Pitch_bend_c, 2, 1754
4, 69459, Pitch_bend_c, 2, 1769
4, 69463, Pitch_bend_c, 2, 1789
4, 69466, Pitch_bend_c, 2, 1803
4, 69470, Pitch_bend_c, 2, 1823
4, 69473, Pitch_bend_c, 2, 1838
4, 69477, Pitch_bend_c, 2, 1858
4, 69480, Pitch_bend_c, 2, 1872
4, 69483, Pitch_bend_c, 2, 1887
4, 69487, Pitch_bend_c, 2, 1907
4, 69490, Pitch_bend_c, 2, 1922
4, 69494, Pitch_bend_c, 2, 1941
4, 69497, Pitch_bend_c, 2, 1956
4, 69501, Pitch_bend_c, 2, 1976
4, 69504, Pitch_bend_c, 2, 1991
4, 69507, Pitch_bend_c, 2, 2006
4, 69511, Pitch_bend_c, 2, 2025
4, 69514, Pitch_bend_c, 2, 2040
4, 69518, Pitch_bend_c, 2, 2060
4, 69521, Pitch_bend_c, 2, 2075
4, 69525, Pitch_bend_c, 2, 2094
4, 69528, Pitch_bend_c, 2, 2109
4, 69532, Pitch_bend_c, 2, 2129
4, 69535, Pitch_bend_c, 2, 2144
4, 69538, Pitch_bend_c, 2, 2158
4, 69542, Pitch_bend_c, 2, 2178
4, 69545, Pitch_bend_c, 2, 2193
4, 69549, Pitch_bend_c, 2, 2213
4, 69552, Pitch_bend_c, 2, 2227
4, 69556, Pitch_bend_c, 2, 2247
4, 69559, Pitch_bend_c, 2, 2262
4, 69562, Pitch_bend_c, 2, 2277
4, 69566, Pitch_bend_c, 2, 2296
4, 69569, Pitch_bend_c, 2, 2311
4, 69573, Pitch_bend_c, 2, 2331
4, 69576, Pitch_bend_c, 2, 2346
4, 69580, Pitch_bend_c, 2, 2365
4, 69583, Pitch_bend_c, 2, 2380
4, 69587, Pitch_bend_c, 2, 2400
4, 69590, Pitch_bend_c, 2, 2415
4, 69593, Pitch_bend_c, 2, 2429
4, 69597, Pitch_bend_c, 2, 2449
4, 69600, Pitch_bend_c, 2, 2464
4, 69604, Pitch_bend_c, 2, 2484
4, 69607, Pitch_bend_c, 2, 2499
4, 69611, Pitch_bend_c, 2, 2518
4, 69614, Pitch_bend_c, 2, 2533
4, 69617, Pitch_bend_c, 2, 2548
4, 69621, Pitch_bend_c, 2, 2568
4, 69624, Pitch_bend_c, 2, 2582
4, 69628, Pitch_bend_c, 2, 2602
4, 69631, Pitch_bend_c, 2, 2617
4, 69635, Pitch_bend_c, 2, 2637
4, 69638, Pitch_bend_c, 2, 2651
4, 69642, Pitch_bend_c, 2, 2671
4, 69645, Pitch_bend_c, 2, 2686
4, 69648, Pitch_bend_c, 2, 2701
4, 69652, Pitch_bend_c, 2, 2720
4, 69655, Pitch_bend_c, 2, 2735
4, 69659, Pitch_bend_c, 2, 2755
4, 69662, Pitch_bend_c, 2, 2770
4, 69666, Pitch_bend_c, 2, 2789
4, 69669, Pitch_bend_c, 2, 2804
4, 69672, Pitch_bend_c, 2, 2819
4, 69676, Pitch_bend_c, 2, 2839
4, 69679, Pitch_bend_c, 2, 2853
4, 69683, Pitch_bend_c, 2, 2873
4, 69686, Pitch_bend_c, 2, 2888
4, 69690, Pitch_bend_c, 2, 2908
4, 69693, Pitch_bend_c, 2, 2922
4, 69697, Pitch_bend_c, 2, 2942
4, 69700, Pitch_bend_c, 2, 2957
4, 69703, Pitch_bend_c, 2, 2972
4, 69707, Pitch_bend_c, 2, 2991
4, 69710, Pitch_bend_c, 2, 3006
4, 69714, Pitch_bend_c, 2, 3026
4, 69717, Pitch_bend_c, 2, 3041
4, 69721, Pitch_bend_c, 2, 3060
4, 69724, Pitch_bend_c, 2, 3075
4, 69727, Pitch_bend_c, 2, 3090
4, 69731, Pitch_bend_c, 2, 3110
4, 69734, Pitch_bend_c, 2, 3125
4, 69738, Pitch_bend_c, 2, 3144
4, 69741, Pitch_bend_c, 2, 3159
4, 69745, Pitch_bend_c, 2, 3179
4, 69748, Pitch_bend_c, 2, 3194
4, 69752, Pitch_bend_c, 2, 3213
4, 69755, Pitch_bend_c, 2, 3228
4, 69758, Pitch_bend_c, 2, 3243
4, 69762, Pitch_bend_c, 2, 3263
4, 69765, Pitch_bend_c, 2, 3277
4, 69769, Pitch_bend_c, 2, 3297
4, 69772, Pitch_bend_c, 2, 3312
4, 69776, Pitch_bend_c, 2, 3332
4, 69779, Pitch_bend_c, 2, 3346
4, 69782, Pitch_bend_c, 2, 3361
4, 69786, Pitch_bend_c, 2, 3381
4, 69789, Pitch_bend_c, 2, 3396
4, 69793, Pitch_bend_c, 2, 3415
4, 69796, Pitch_bend_c, 2, 3430
4, 69800, Pitch_bend_c, 2, 3450
4, 69803, Pitch_bend_c, 2, 3465
4, 69807, Pitch_bend_c, 2, 3484
4, 69810, Pitch_bend_c, 2, 3499
4, 69813, Pitch_bend_c, 2, 3514
4, 69817, Pitch_bend_c, 2, 3534
4, 69820, Pitch_bend_c, 2, 3549
4, 69824, Pitch_bend_c, 2, 3568
4, 69827, Pitch_bend_c, 2, 3583
4, 69831, Pitch_bend_c, 2, 3603
4, 69834, Pitch_bend_c, 2, 3618
4, 69837, Pitch_bend_c, 2, 3632
4, 69841, Pitch_bend_c, 2, 3652
4, 69844, Pitch_bend_c, 2, 3667
4, 69848, Pitch_bend_c, 2, 3687
4, 69851, Pitch_bend_c, 2, 3701
4, 69855, Pitch_bend_c, 2, 3721
4, 69858, Pitch_bend_c, 2, 3736
4, 69862, Pitch_bend_c, 2, 3756
4, 69865, Pitch_bend_c, 2, 3770
4, 69868, Pitch_bend_c, 2, 3785
4, 69872, Pitch_bend_c, 2, 3805
4, 69875, Pitch_bend_c, 2, 3820
4, 69879, Pitch_bend_c, 2, 3839
4, 69882, Pitch_bend_c, 2, 3854
4, 69886, Pitch_bend_c, 2, 3874
4, 69889, Pitch_bend_c, 2, 3889
4, 69892, Pitch_bend_c, 2, 3903
4, 69896, Pitch_bend_c, 2, 3923
4, 69899, Pitch_bend_c, 2, 3938
4, 69903, Pitch_bend_c, 2, 3958
4, 69906, Pitch_bend_c, 2, 3972
4, 69910, Pitch_bend_c, 2, 3992
4, 69913, Pitch_bend_c, 2, 4007
4, 69917, Pitch_bend_c, 2, 4027
4, 69920, Pitch_bend_c, 2, 4042
4, 69923, Pitch_bend_c, 2, 4056
4, 69927, Pitch_bend_c, 2, 4076
4, 69930, Pitch_bend_c, 2, 4091
4, 69934, Pitch_bend_c, 2, 4111
4, 69937, Pitch_bend_c, 2, 4125
4, 69941, Pitch_bend_c, 2, 4145
4, 69944, Pitch_bend_c, 2, 4160
4, 69947, Pitch_bend_c, 2, 4175
4, 69951, Pitch_bend_c, 2, 4194
4, 69954, Pitch_bend_c, 2, 4209
4, 69958, Pitch_bend_c, 2, 4229
4, 69961, Pitch_bend_c, 2, 4244
4, 69965, Pitch_bend_c, 2, 4263
4, 69968, Pitch_bend_c, 2, 4278
4, 69972, Pitch_bend_c, 2, 4298
4, 69975, Pitch_bend_c, 2, 4313
4, 69978, Pitch_bend_c, 2, 4327
4, 69982, Pitch_bend_c, 2, 4347
4, 69985, Pitch_bend_c, 2, 4362
4, 69989, Pitch_bend_c, 2, 4382
4, 69992, Pitch_bend_c, 2, 4396
4, 69996, Pitch_bend_c, 2, 4416
4, 69999, Pitch_bend_c, 2, 4431
4, 70002, Pitch_bend_c, 2, 4446
4, 70006, Pitch_bend_c, 2, 4465
4, 70009, Pitch_bend_c, 2, 4480
4, 70013, Pitch_bend_c, 2, 4500
4, 70016, Pitch_bend_c, 2, 4515
4, 70020, Pitch_bend_c, 2, 4534
4, 70023, Pitch_bend_c, 2, 4549
4, 70027, Pitch_bend_c, 2, 4569
4, 70030, Pitch_bend_c, 2, 4584
4, 70033, Pitch_bend_c, 2, 4599
4, 70037, Pitch_bend_c, 2, 4618
4, 70040, Pitch_bend_c, 2, 4633
4, 70044, Pitch_bend_c, 2, 4653
4, 70047, Pitch_bend_c, 2, 4668
4, 70051, Pitch_bend_c, 2, 4687
4, 70054, Pitch_bend_c, 2, 4702
4, 70057, Pitch_bend_c, 2, 4717
4, 70061, Pitch_bend_c, 2, 4737
4, 70064, Pitch_bend_c, 2, 4751
4, 70068, Pitch_bend_c, 2, 4771
4, 70071, Pitch_bend_c, 2, 4786
4, 70075, Pitch_bend_c, 2, 4806
4, 70078, Pitch_bend_c, 2, 4820
4, 70082, Pitch_bend_c, 2, 4840
4, 70085, Pitch_bend_c, 2, 4855
4, 70088, Pitch_bend_c, 2, 4870
4, 70092, Pitch_bend_c, 2, 4889
4, 70095, Pitch_bend_c, 2, 4904
4, 70099, Pitch_bend_c, 2, 4924
4, 70102, Pitch_bend_c, 2, 4939
4, 70106, Pitch_bend_c, 2, 4958
4, 70109, Pitch_bend_c, 2, 4973
4, 70112, Pitch_bend_c, 2, 4988
4, 70116, Pitch_bend_c, 2, 5008
4, 70119, Pitch_bend_c, 2, 5023
4, 70123, Pitch_bend_c, 2, 5042
4, 70126, Pitch_bend_c, 2, 5057
4, 70130, Pitch_bend_c, 2, 5077
4, 70133, Pitch_bend_c, 2, 5092
4, 70137, Pitch_bend_c, 2, 5111
4, 70140, Pitch_bend_c, 2, 5126
4, 70143, Pitch_bend_c, 2, 5141
4, 70147, Pitch_bend_c, 2, 5161
4, 70150, Pitch_bend_c, 2, 5175
4, 70154, Pitch_bend_c, 2, 5195
4, 70157, Pitch_bend_c, 2, 5210
4, 70161, Pitch_bend_c, 2, 5230
4, 70164, Pitch_bend_c, 2, 5244
4, 70167, Pitch_bend_c, 2, 5259
4, 70171, Pitch_bend_c, 2, 5279
4, 70174, Pitch_bend_c, 2, 5294
4, 70178, Pitch_bend_c, 2, 5313
4, 70181, Pitch_bend_c, 2, 5328
4, 70185, Pitch_bend_c, 2, 5348
4, 70188, Pitch_bend_c, 2, 5363
4, 70192, Pitch_bend_c, 2, 5382
4, 70195, Pitch_bend_c, 2, 5397
4, 70198, Pitch_bend_c, 2, 5412
4, 70202, Pitch_bend_c, 2, 5432
4, 70205, Pitch_bend_c, 2, 5446
4, 70209, Pitch_bend_c, 2, 5466
4, 70212, Pitch_bend_c, 2, 5481
4, 70216, Pitch_bend_c, 2, 5501
4, 70219, Pitch_bend_c, 2, 5515
4, 70222, Pitch_bend_c, 2, 5530
4, 70226, Pitch_bend_c, 2, 5550
4, 70229, Pitch_bend_c, 2, 5565
4, 70233, Pitch_bend_c, 2, 5584
4, 70236, Pitch_bend_c, 2, 5599
4, 70240, Pitch_bend_c, 2, 5619
4, 70243, Pitch_bend_c, 2, 5634
4, 70247, Pitch_bend_c, 2, 5654
4, 70250, Pitch_bend_c, 2, 5668
4, 70253, Pitch_bend_c, 2, 5683
4, 70257, Pitch_bend_c, 2, 5703
4, 70260, Pitch_bend_c, 2, 5718
4, 70264, Pitch_bend_c, 2, 5737
4, 70267, Pitch_bend_c, 2, 5752
4, 70271, Pitch_bend_c, 2, 5772
4, 70274, Pitch_bend_c, 2, 5787
4, 70277, Pitch_bend_c, 2, 5801
4, 70281, Pitch_bend_c, 2, 5821
4, 70284, Pitch_bend_c, 2, 5836
4, 70288, Pitch_bend_c, 2, 5856
4, 70291, Pitch_bend_c, 2, 5870
4, 70295, Pitch_bend_c, 2, 5890
4, 70298, Pitch_bend_c, 2, 5905
4, 70302, Pitch_bend_c, 2, 5925
4, 70305, Pitch_bend_c, 2, 5939
4, 70308, Pitch_bend_c, 2, 5954
4, 70312, Pitch_bend_c, 2, 5974
4, 70315, Pitch_bend_c, 2, 5989
4, 70319, Pitch_bend_c, 2, 6008
4, 70322, Pitch_bend_c, 2, 6023
4, 70326, Pitch_bend_c, 2, 6043
4, 70329, Pitch_bend_c, 2, 6058
4, 70332, Pitch_bend_c, 2, 6073
4, 70336, Pitch_bend_c, 2, 6092
4, 70339, Pitch_bend_c, 2, 6107
4, 70343, Pitch_bend_c, 2, 6127
4, 70346, Pitch_bend_c, 2, 6142
4, 70350, Pitch_bend_c, 2, 6161
4, 70353, Pitch_bend_c, 2, 6176
4, 70357, Pitch_bend_c, 2, 6196
4, 70360, Pitch_bend_c, 2, 6211
4, 70363, Pitch_bend_c, 2, 6225
4, 70367, Pitch_bend_c, 2, 6245
4, 70370, Pitch_bend_c, 2, 6260
4, 70374, Pitch_bend_c, 2, 6280
4, 70377, Pitch_bend_c, 2, 6294
4, 70381, Pitch_bend_c, 2, 6314
4, 70384, Pitch_bend_c, 2, 6329
4, 70387, Pitch_bend_c, 2, 6344
4, 70391, Pitch_bend_c, 2, 6363
4, 70394, Pitch_bend_c, 2, 6378
4, 70398, Pitch_bend_c, 2, 6398
4, 70401, Pitch_bend_c, 2, 6413
4, 70405, Pitch_bend_c, 2, 6432
4, 70408, Pitch_bend_c, 2, 6447
4, 70412, Pitch_bend_c, 2, 6467
4, 70415, Pitch_bend_c, 2, 6482
4, 70418, Pitch_bend_c, 2, 6496
4, 70422, Pitch_bend_c, 2, 6516
4, 70425, Pitch_bend_c, 2, 6531
4, 70429, Pitch_bend_c, 2, 6551
4, 70432, Pitch_bend_c, 2, 6566
4, 70436, Pitch_bend_c, 2, 6585
4, 70439, Pitch_bend_c, 2, 6600
4, 70442, Pitch_bend_c, 2, 6615
4, 70446, Pitch_bend_c, 2, 6635
4, 70449, Pitch_bend_c, 2, 6649
4, 70453, Pitch_bend_c, 2, 6669
4, 70456, Pitch_bend_c, 2, 6684
4, 70460, Pitch_bend_c, 2, 6704
4, 70463, Pitch_bend_c, 2, 6718
4, 70467, Pitch_bend_c, 2, 6738
4, 70470, Pitch_bend_c, 2, 6753
4, 70473, Pitch_bend_c, 2, 6768
4, 70477, Pitch_bend_c, 2, 6787
4, 70480, Pitch_bend_c, 2, 6802
4, 70484, Pitch_bend_c, 2, 6822
4, 70487, Pitch_bend_c, 2, 6837
4, 70491, Pitch_bend_c, 2, 6856
4, 70494, Pitch_bend_c, 2, 6871
4, 70497, Pitch_bend_c, 2, 6886
4, 70501, Pitch_bend_c, 2, 6906
4, 70504, Pitch_bend_c, 2, 6920
4, 70508, Pitch_bend_c, 2, 6940
4, 70511, Pitch_bend_c, 2, 6955
4, 70515, Pitch_bend_c, 2, 6975
4, 70518, Pitch_bend_c, 2, 6989
4, 70522, Pitch_bend_c, 2, 7009
4, 70525, Pitch_bend_c, 2, 7024
4, 70528, Pitch_bend_c, 2, 7039
4, 70532, Pitch_bend_c, 2, 7058
4, 70535, Pitch_bend_c, 2, 7073
4, 70539, Pitch_bend_c, 2, 7093
4, 70542, Pitch_bend_c, 2, 7108
4, 70546, Pitch_bend_c, 2, 7127
4, 70549, Pitch_bend_c, 2, 7142
4, 70552, Pitch_bend_c, 2, 7157
4, 70556, Pitch_bend_c, 2, 7177
4, 70559, Pitch_bend_c, 2, 7192
4, 70563, Pitch_bend_c, 2, 7211
4, 70566, Pitch_bend_c, 2, 7226
4, 70570, Pitch_bend_c, 2, 7246
4, 70573, Pitch_bend_c, 2, 7261
4, 70577, Pitch_bend_c, 2, 7280
4, 70580, Pitch_bend_c, 2, 7295
4, 70583, Pitch_bend_c, 2, 7310
4, 70587, Pitch_bend_c, 2, 7330
4, 70590, Pitch_bend_c, 2, 7344
4, 70594, Pitch_bend_c, 2, 7364
4, 70597, Pitch_bend_c, 2, 7379
4, 70601, Pitch_bend_c, 2, 7399
4, 70604, Pitch_bend_c, 2, 7413
4, 70607, Pitch_bend_c, 2, 7428
4, 70611, Pitch_bend_c, 2, 7448
4, 70614, Pitch_bend_c, 2, 7463
4, 70618, Pitch_bend_c, 2, 7482
4, 70621, Pitch_bend_c, 2, 7497
4, 70625, Pitch_bend_c, 2, 7517
4, 70628, Pitch_bend_c, 2, 7532
4, 70632, Pitch_bend_c, 2, 7551
4, 70635, Pitch_bend_c, 2, 7566
4, 70638, Pitch_bend_c, 2, 7581
4, 70642, Pitch_bend_c, 2, 7601
4, 70645, Pitch_bend_c, 2, 7616
4, 70649, Pitch_bend_c, 2, 7635
4, 70652, Pitch_bend_c, 2, 7650
4, 70656, Pitch_bend_c, 2, 7670
4, 70659, Pitch_bend_c, 2, 7685
4, 70662, Pitch_bend_c, 2, 7699
4, 70666, Pitch_bend_c, 2, 7719
4, 70669, Pitch_bend_c, 2, 7734
4, 70673, Pitch_bend_c, 2, 7754
4, 70676, Pitch_bend_c, 2, 7768
4, 70680, Pitch_bend_c, 2, 7788
4, 70683, Pitch_bend_c, 2, 7803
4, 70687, Pitch_bend_c, 2, 7823
4, 70690, Pitch_bend_c, 2, 7837
4, 70693, Pitch_bend_c, 2, 7852
4, 70697, Pitch_bend_c, 2, 7872
4, 70700, Pitch_bend_c, 2, 7887
4, 70704, Pitch_bend_c, 2, 7906
4, 70707, Pitch_bend_c, 2, 7921
4, 70711, Pitch_bend_c, 2, 7941
4, 70714, Pitch_bend_c, 2, 7956
4, 70717, Pitch_bend_c, 2, 7970
4, 70721, Pitch_bend_c, 2, 7990
4, 70724, Pitch_bend_c, 2, 8005
4, 70728, Pitch_bend_c, 2, 8025
4, 70731, Pitch_bend_c, 2, 8039
4, 70735, Pitch_bend_c, 2, 8059
4, 70738, Pitch_bend_c, 2, 8074
4, 70742, Pitch_bend_c, 2, 8094
4, 70745, Pitch_bend_c, 2, 8108
4, 70748, Pitch_bend_c, 2, 8123
4, 70752, Pitch_bend_c, 2, 8143
4, 70755, Pitch_bend_c, 2, 8158
4, 70759, Pitch_bend_c, 2, 8178
4, 70762, Pitch_bend_c, 2, 8192
4, 70766, Pitch_bend_c, 2, 8212
4, 70769, Pitch_bend_c, 2, 8227
4, 70772, Pitch_bend_c, 2, 8242
4, 70776, Pitch_bend_c, 2, 8261
4, 70779, Pitch_bend_c, 2, 8276
4, 70783, Pitch_bend_c, 2, 8296
4, 70786, Pitch_bend_c, 2, 8311
4, 70790, Pitch_bend_c, 2, 8330
4, 70793, Pitch_bend_c, 2, 8345
4, 70797, Pitch_bend_c, 2, 8365
4, 70800, Pitch_bend_c, 2, 8380
4, 70803, Pitch_bend_c, 2, 8394
4, 70807, Pitch_bend_c, 2, 8414
4, 70810, Pitch_bend_c, 2, 8429
4, 70814, Pitch_bend_c, 2, 8449
4, 70817, Pitch_bend_c, 2, 8463
4, 70821, Pitch_bend_c, 2, 8483
4, 70824, Pitch_bend_c, 2, 8498
4, 70827, Pitch_bend_c, 2, 8513
4, 70831, Pitch_bend_c, 2, 8532
4, 70834, Pitch_bend_c, 2, 8547
4, 70838, Pitch_bend_c, 2, 8567
4, 70841, Pitch_bend_c, 2, 8582
4, 70845, Pitch_bend_c, 2, 8601
4, 70848, Pitch_bend_c, 2, 8616
4, 70852, Pitch_bend_c, 2, 8636
4, 70855, Pitch_bend_c, 2, 8651
4, 70858, Pitch_bend_c, 2, 8666
4, 70862, Pitch_bend_c, 2, 8685
4, 70865, Pitch_bend_c, 2, 8700
4, 70869, Pitch_bend_c, 2, 8720
4, 70872, Pitch_bend_c, 2, 8735
4, 70876, Pitch_bend_c, 2, 8754
4, 70879, Pitch_bend_c, 2, 8769
4, 70882, Pitch_bend_c, 2, 8784
4, 70886, Pitch_bend_c, 2, 8804
4, 70889, Pitch_bend_c, 2, 8818
4, 70893, Pitch_bend_c, 2, 8838
4, 70896, Pitch_bend_c, 2, 8853
4, 70900, Pitch_bend_c, 2, 8873
4, 70903, Pitch_bend_c, 2, 8887
4, 70907, Pitch_bend_c, 2, 8907
4, 70910, Pitch_bend_c, 2, 8922
4, 70913, Pitch_bend_c, 2, 8937
4, 70917, Pitch_bend_c, 2, 8956
4, 70920, Pitch_bend_c, 2, 8971
4, 70924, Pitch_bend_c, 2, 8991
4, 70927, Pitch_bend_c, 2, 9006
4, 70931, Pitch_bend_c, 2, 9025
4, 70934, Pitch_bend_c, 2, 9040
4, 70937, Pitch_bend_c, 2, 9055
4, 70941, Pitch_bend_c, 2, 9075
4, 70944, Pitch_bend_c, 2, 9090
4, 70948, Pitch_bend_c, 2, 9109
4, 70951, Pitch_bend_c, 2, 9124
4, 70955, Pitch_bend_c, 2, 9144
4, 70958, Pitch_bend_c, 2, 9159
4, 70962, Pitch_bend_c, 2, 9178
4, 70965, Pitch_bend_c, 2, 9193
4, 70968, Pitch_bend_c, 2, 9208
4, 70972, Pitch_bend_c, 2, 9228
4, 70975, Pitch_bend_c, 2, 9242
4, 70979, Pitch_bend_c, 2, 9262
4, 70982, Pitch_bend_c, 2, 9277
4, 70986, Pitch_bend_c, 2, 9297
4, 70989, Pitch_bend_c, 2, 9311
4, 70992, Pitch_bend_c, 2, 9326
4, 70996, Pitch_bend_c, 2, 9346
4, 70999, Pitch_bend_c, 2, 9361
4, 71003, Pitch_bend_c, 2, 9380
4, 71006, Pitch_bend_c, 2, 9395
4, 71010, Pitch_bend_c, 2, 9415
4, 71013, Pitch_bend_c, 2, 9430
4, 71017, Pitch_bend_c, 2, 9449
4, 71020, Pitch_bend_c, 2, 9464
4, 71023, Pitch_bend_c, 2, 9479
4, 71027, Pitch_bend_c, 2, 9499
4, 71030, Pitch_bend_c, 2, 9513
4, 71034, Pitch_bend_c, 2, 9533
4, 71037, Pitch_bend_c, 2, 9548
4, 71041, Pitch_bend_c, 2, 9568
4, 71044, Pitch_bend_c, 2, 9582
4, 71047, Pitch_bend_c, 2, 9597
4, 71051, Pitch_bend_c, 2, 9617
4, 71054, Pitch_bend_c, 2, 9632
4, 71058, Pitch_bend_c, 2, 9651
4, 71061, Pitch_bend_c, 2, 9666
4, 71065, Pitch_bend_c, 2, 9686
4, 71068, Pitch_bend_c, 2, 9701
4, 71071, Pitch_bend_c, 2, 9728
4, 71141, Note_off_c, 2, 83, 64
4, 71279, Note_on_c, 2, 57, 110
4, 71280, Pitch_bend_c, 2, 8192
4, 71397, Note_off_c, 2, 57, 64
4, 71519, Note_on_c, 2, 57, 110
4, 71637, Note_off_c, 2, 57, 64
4, 71759, Note_on_c, 2, 57, 110
4, 71877, Note_off_c, 2, 57, 64
4, 71999, Note_on_c, 2, 59, 110
4, 72117, Note_off_c, 2, 59, 64
4, 72239, Note_on_c, 2, 59, 110
4, 72357, Note_off_c, 2, 59, 64
4, 72479, Note_on_c, 2, 59, 110
4, 72597, Note_off_c, 2, 59, 64
4, 72719, Note_on_c, 2, 59, 110
4, 72837, Note_off_c, 2, 59, 64
4, 72959, Note_on_c, 2, 60, 110
4, 73077, Note_off_c, 2, 60, 64
4, 73199, Note_on_c, 2, 60, 110
4, 73317, Note_off_c, 2, 60, 64
4, 73439, Note_on_c, 2, 60, 110
4, 73557, Note_off_c, 2, 60, 64
4, 73679, Note_on_c, 2, 60, 110
4, 73797, Note_off_c, 2, 60, 64
4, 73919, Note_on_c, 2, 62, 110
4, 74037, Note_off_c, 2, 62, 64
4, 74159, Note_on_c, 2, 62, 110
4, 74277, Note_off_c, 2, 62, 64
4, 74399, Note_on_c, 2, 62, 110
4, 74517, Note_off_c, 2, 62, 64
4, 74639, Note_on_c, 2, 62, 110
4, 74757, Note_off_c, 2, 62, 64
4, 74879, Note_on_c, 2, 64, 110
4, 74997, Note_off_c, 2, 64, 64
4, 75119, Note_on_c, 2, 64, 110
4, 75237, Note_off_c, 2, 64, 64
4, 75359, Note_on_c, 2, 64, 110
4, 75477, Note_off_c, 2, 64, 64
4, 75599, Note_on_c, 2, 64, 110
4, 75717, Note_off_c, 2, 64, 64
4, 75839, Note_on_c, 2, 66, 110
4, 75912, Note_off_c, 2, 66, 64
4, 75959, Note_on_c, 2, 66, 110
4, 76032, Note_off_c, 2, 66, 64
4, 76079, Note_on_c, 2, 66, 110
4, 76152, Note_off_c, 2, 66, 64
4, 76199, Note_on_c, 2, 66, 110
4, 76272, Note_off_c, 2, 66, 64
4, 76319, Note_on_c, 2, 66, 110
4, 76392, Note_off_c, 2, 66, 64
4, 76439, Note_on_c, 2, 66, 110
4, 76512, Note_off_c, 2, 66, 64
4, 76559, Note_on_c, 2, 66, 110
4, 76632, Note_off_c, 2, 66, 64
4, 76679, Note_on_c, 2, 66, 110
4, 76752, Note_off_c, 2, 66, 64
4, 76799, Note_on_c, 2, 67, 110
4, 76872, Note_off_c, 2, 67, 64
4, 76919, Note_on_c, 2, 67, 110
4, 76992, Note_off_c, 2, 67, 64
4, 77039, Note_on_c, 2, 67, 110
4, 77112, Note_off_c, 2, 67, 64
4, 77159, Note_on_c, 2, 67, 110
4, 77232, Note_off_c, 2, 67, 64
4, 77279, Note_on_c, 2, 67, 110
4, 77352, Note_off_c, 2, 67, 64
4, 77399, Note_on_c, 2, 67, 110
4, 77472, Note_off_c, 2, 67, 64
4, 77519, Note_on_c, 2, 67, 110
4, 77592, Note_off_c, 2, 67, 64
4, 77639, Note_on_c, 2, 67, 110
4, 77712, Note_off_c, 2, 67, 64
4, 77759, Note_on_c, 2, 69, 110
4, 77832, Note_off_c, 2, 69, 64
4, 77879, Note_on_c, 2, 69, 110
4, 77952, Note_off_c, 2, 69, 64
4, 77999, Note_on_c, 2, 69, 110
4, 78072, Note_off_c, 2, 69, 64
4, 78119, Note_on_c, 2, 69, 110
4, 78192, Note_off_c, 2, 69, 64
4, 78239, Note_on_c, 2, 69, 110
4, 78312, Note_off_c, 2, 69, 64
4, 78359, Note_on_c, 2, 69, 110
4, 78432, Note_off_c, 2, 69, 64
4, 78479, Note_on_c, 2, 69, 110
4, 78552, Note_off_c, 2, 69, 64
4, 78599, Note_on_c, 2, 69, 110
4, 78672, Note_off_c, 2, 69, 64
4, 78721, Note_on_c, 2, 71, 110
4, 78794, Note_off_c, 2, 71, 64
4, 78841, Note_on_c, 2, 71, 110
4, 78914, Note_off_c, 2, 71, 64
4, 78961, Note_on_c, 2, 71, 110
4, 79034, Note_off_c, 2, 71, 64
4, 79081, Note_on_c, 2, 71, 110
4, 79154, Note_off_c, 2, 71, 64
4, 79201, Note_on_c, 2, 71, 110
4, 79274, Note_off_c, 2, 71, 64
4, 79321, Note_on_c, 2, 71, 110
4, 79394, Note_off_c, 2, 71, 64
4, 79441, Note_on_c, 2, 71, 110
4, 79514, Note_off_c, 2, 71, 64
4, 79561, Note_on_c, 2, 71, 110
4, 79634, Note_off_c, 2, 71, 64
4, 79681, Note_on_c, 2, 72, 110
4, 79754, Note_off_c, 2, 72, 64
4, 79801, Note_on_c, 2, 72, 110
4, 79874, Note_off_c, 2, 72, 64
4, 79921, Note_on_c, 2, 72, 110
4, 79994, Note_off_c, 2, 72, 64
4, 80041, Note_on_c, 2, 72, 110
4, 80114, Note_off_c, 2, 72, 64
4, 80161, Note_on_c, 2, 72, 110
4, 80234, Note_off_c, 2, 72, 64
4, 80281, Note_on_c, 2, 72, 110
4, 80354, Note_off_c, 2, 72, 64
4, 80401, Note_on_c, 2, 72, 110
4, 80474, Note_off_c, 2, 72, 64
4, 80521, Note_on_c, 2, 72, 110
4, 80594, Note_off_c, 2, 72, 64
4, 80641, Note_on_c, 2, 74, 110
4, 80714, Note_off_c, 2, 74, 64
4, 80761, Note_on_c, 2, 74, 110
4, 80834, Note_off_c, 2, 74, 64
4, 80881, Note_on_c, 2, 74, 110
4, 80954, Note_off_c, 2, 74, 64
4, 81001, Note_on_c, 2, 74, 110
4, 81074, Note_off_c, 2, 74, 64
4, 81121, Note_on_c, 2, 74, 110
4, 81194, Note_off_c, 2, 74, 64
4, 81241, Note_on_c, 2, 74, 110
4, 81314, Note_off_c, 2, 74, 64
4, 81361, Note_on_c, 2, 74, 110
4, 81434, Note_off_c, 2, 74, 64
4, 81481, Note_on_c, 2, 74, 110
4, 81554, Note_off_c, 2, 74, 64
4, 81601, Note_on_c, 2, 76, 110
4, 81674, Note_off_c, 2, 76, 64
4, 81721, Note_on_c, 2, 76, 110
4, 81794, Note_off_c, 2, 76, 64
4, 81841, Note_on_c, 2, 76, 110
4, 81914, Note_off_c, 2, 76, 64
4, 81961, Note_on_c, 2, 76, 110
4, 82034, Note_off_c, 2, 76, 64
4, 82081, Note_on_c, 2, 76, 110
4, 82154, Note_off_c, 2, 76, 64
4, 82201, Note_on_c, 2, 76, 110
4, 82274, Note_off_c, 2, 76, 64
4, 82321, Note_on_c, 2, 76, 110
4, 82394, Note_off_c, 2, 76, 64
4, 82441, Note_on_c, 2, 76, 110
4, 82514, Note_off_c, 2, 76, 64
4, 82561, Note_on_c, 2, 78, 110
4, 82634, Note_off_c, 2, 78, 64
4, 82681, Note_on_c, 2, 78, 110
4, 82754, Note_off_c, 2, 78, 64
4, 82801, Note_on_c, 2, 78, 110
4, 82874, Note_off_c, 2, 78, 64
4, 82921, Note_on_c, 2, 78, 110
4, 82994, Note_off_c, 2, 78, 64
4, 83041, Note_on_c, 2, 78, 110
4, 83114, Note_off_c, 2, 78, 64
4, 83161, Note_on_c, 2, 78, 110
4, 83234, Note_off_c, 2, 78, 64
4, 83281, Note_on_c, 2, 78, 110
4, 83354, Note_off_c, 2, 78, 64
4, 83401, Note_on_c, 2, 78, 110
4, 83474, Note_off_c, 2, 78, 64
4, 83521, Note_on_c, 2, 79, 110
4, 83594, Note_off_c, 2, 79, 64
4, 83641, Note_on_c, 2, 79, 110
4, 83714, Note_off_c, 2, 79, 64
4, 83761, Note_on_c, 2, 79, 110
4, 83834, Note_off_c, 2, 79, 64
4, 83881, Note_on_c, 2, 79, 110
4, 83954, Note_off_c, 2, 79, 64
4, 84001, Note_on_c, 2, 79, 110
4, 84074, Note_off_c, 2, 79, 64
4, 84121, Note_on_c, 2, 79, 110
4, 84194, Note_off_c, 2, 79, 64
4, 84241, Note_on_c, 2, 79, 110
4, 84314, Note_off_c, 2, 79, 64
4, 84361, Note_on_c, 2, 79, 110
4, 84434, Note_off_c, 2, 79, 64
4, 84480, Note_on_c, 2, 81, 110
4, 84553, Note_off_c, 2, 81, 64
4, 84600, Note_on_c, 2, 81, 110
4, 84673, Note_off_c, 2, 81, 64
4, 84720, Note_on_c, 2, 81, 110
4, 84793, Note_off_c, 2, 81, 64
4, 84840, Note_on_c, 2, 81, 110
4, 84913, Note_off_c, 2, 81, 64
4, 84960, Note_on_c, 2, 81, 110
4, 85033, Note_off_c, 2, 81, 64
4, 85080, Note_on_c, 2, 81, 110
4, 85153, Note_off_c, 2, 81, 64
4, 85200, Note_on_c, 2, 81, 110
4, 85273, Note_off_c, 2, 81, 64
4, 85320, Note_on_c, 2, 81, 110
4, 85393, Note_off_c, 2, 81, 64
4, 85440, Note_on_c, 2, 83, 110
4, 85483, Note_off_c, 2, 83, 64
4, 85500, Note_on_c, 2, 83, 110
4, 85543, Note_off_c, 2, 83, 64
4, 85560, Note_on_c, 2, 83, 110
4, 85603, Note_off_c, 2, 83, 64
4, 85620, Note_on_c, 2, 83, 110
4, 85663, Note_off_c, 2, 83, 64
4, 85680, Note_on_c, 2, 83, 110
4, 85723, Note_off_c, 2, 83, 64
4, 85740, Note_on_c, 2, 83, 110
4, 85783, Note_off_c, 2, 83, 64
4, 85800, Note_on_c, 2, 83, 110
4, 85843, Note_off_c, 2, 83, 64
4, 85860, Note_on_c, 2, 83, 110
4, 85903, Note_off_c, 2, 83, 64
4, 85920, Note_on_c, 2, 83, 110
4, 85963, Note_off_c, 2, 83, 64
4, 85980, Note_on_c, 2, 83, 110
4, 86023, Note_off_c, 2, 83, 64
4, 86040, Note_on_c, 2, 83, 110
4, 86083, Note_off_c, 2, 83, 64
4, 86100, Note_on_c, 2, 83, 110
4, 86143, Note_off_c, 2, 83, 64
4, 86160, Note_on_c, 2, 83, 110
4, 86203, Note_off_c, 2, 83, 64
4, 86220, Note_on_c, 2, 83, 110
4, 86263, Note_off_c, 2, 83, 64
4, 86280, Note_on_c, 2, 83, 110
4, 86323, Note_off_c, 2, 83, 64
4, 86340, Note_on_c, 2, 83, 110
4, 86383, Note_off_c, 2, 83, 64
4, 86400, Note_on_c, 2, 84, 110
4, 86443, Note_off_c, 2, 84, 64
4, 86460, Note_on_c, 2, 84, 110
4, 86503, Note_off_c, 2, 84, 64
4, 86520, Note_on_c, 2, 84, 110
4, 86563, Note_off_c, 2, 84, 64
4, 86580, Note_on_c, 2, 84, 110
4, 86623, Note_off_c, 2, 84, 64
4, 86640, Note_on_c, 2, 84, 110
4, 86683, Note_off_c, 2, 84, 64
4, 86700, Note_on_c, 2, 84, 110
4, 86743, Note_off_c, 2, 84, 64
4, 86760, Note_on_c, 2, 84, 110
4, 86803, Note_off_c, 2, 84, 64
4, 86820, Note_on_c, 2, 84, 110
4, 86863, Note_off_c, 2, 84, 64
4, 86880, Note_on_c, 2, 84, 110
4, 86923, Note_off_c, 2, 84, 64
4, 86940, Note_on_c, 2, 84, 110
4, 86983, Note_off_c, 2, 84, 64
4, 87000, Note_on_c, 2, 84, 110
4, 87043, Note_off_c, 2, 84, 64
4, 87060, Note_on_c, 2, 84, 110
4, 87103, Note_off_c, 2, 84, 64
4, 87120, Note_on_c, 2, 84, 110
4, 87163, Note_off_c, 2, 84, 64
4, 87180, Note_on_c, 2, 84, 110
4, 87223, Note_off_c, 2, 84, 64
4, 87240, Note_on_c, 2, 84, 110
4, 87283, Note_off_c, 2, 84, 64
4, 87300, Note_on_c, 2, 84, 110
4, 87343, Note_off_c, 2, 84, 64
4, 87360, Note_on_c, 2, 86, 110
4, 87403, Note_off_c, 2, 86, 64
4, 87420, Note_on_c, 2, 86, 110
4, 87463, Note_off_c, 2, 86, 64
4, 87480, Note_on_c, 2, 86, 110
4, 87523, Note_off_c, 2, 86, 64
4, 87540, Note_on_c, 2, 86, 110
4, 87583, Note_off_c, 2, 86, 64
4, 87600, Note_on_c, 2, 86, 110
4, 87643, Note_off_c, 2, 86, 64
4, 87660, Note_on_c, 2, 86, 110
4, 87703, Note_off_c, 2, 86, 64
4, 87720, Note_on_c, 2, 86, 110
4, 87763, Note_off_c, 2, 86, 64
4, 87780, Note_on_c, 2, 86, 110
4, 87823, Note_off_c, 2, 86, 64
4, 87840, Note_on_c, 2, 86, 110
4, 87883, Note_off_c, 2, 86, 64
4, 87900, Note_on_c, 2, 86, 110
4, 87943, Note_off_c, 2, 86, 64
4, 87960, Note_on_c, 2, 86, 110
4, 88003, Note_off_c, 2, 86, 64
4, 88020, Note_on_c, 2, 86, 110
4, 88063, Note_off_c, 2, 86, 64
4, 88080, Note_on_c, 2, 86, 110
4, 88123, Note_off_c, 2, 86, 64
4, 88140, Note_on_c, 2, 86, 110
4, 88183, Note_off_c, 2, 86, 64
4, 88200, Note_on_c, 2, 86, 110
4, 88243, Note_off_c, 2, 86, 64
4, 88260, Note_on_c, 2, 86, 110
4, 88303, Note_off_c, 2, 86, 64
4, 88320, Note_on_c, 2, 88, 110
4, 88363, Note_off_c, 2, 88, 64
4, 88380, Note_on_c, 2, 88, 110
4, 88423, Note_off_c, 2, 88, 64
4, 88440, Note_on_c, 2, 88, 110
4, 88483, Note_off_c, 2, 88, 64
4, 88500, Note_on_c, 2, 88, 110
4, 88543, Note_off_c, 2, 88, 64
4, 88560, Note_on_c, 2, 88, 110
4, 88603, Note_off_c, 2, 88, 64
4, 88620, Note_on_c, 2, 88, 110
4, 88663, Note_off_c, 2, 88, 64
4, 88680, Note_on_c, 2, 88, 110
4, 88723, Note_off_c, 2, 88, 64
4, 88740, Note_on_c, 2, 88, 110
4, 88783, Note_off_c, 2, 88, 64
4, 88800, Note_on_c, 2, 88, 110
4, 88843, Note_off_c, 2, 88, 64
4, 88860, Note_on_c, 2, 88, 110
4, 88903, Note_off_c, 2, 88, 64
4, 88920, Note_on_c, 2, 88, 110
4, 88963, Note_off_c, 2, 88, 64
4, 88980, Note_on_c, 2, 88, 110
4, 89023, Note_off_c, 2, 88, 64
4, 89040, Note_on_c, 2, 88, 110
4, 89083, Note_off_c, 2, 88, 64
4, 89100, Note_on_c, 2, 88, 110
4, 89143, Note_off_c, 2, 88, 64
4, 89160, Note_on_c, 2, 88, 110
4, 89203, Note_off_c, 2, 88, 64
4, 89220, Note_on_c, 2, 88, 110
4, 89263, Note_off_c, 2, 88, 64
4, 89280, Note_on_c, 2, 90, 110
4, 89323, Note_off_c, 2, 90, 64
4, 89340, Note_on_c, 2, 90, 110
4, 89383, Note_off_c, 2, 90, 64
4, 89400, Note_on_c, 2, 90, 110
4, 89443, Note_off_c, 2, 90, 64
4, 89460, Note_on_c, 2, 90, 110
4, 89503, Note_off_c, 2, 90, 64
4, 89520, Note_on_c, 2, 90, 110
4, 89563, Note_off_c, 2, 90, 64
4, 89580, Note_on_c, 2, 90, 110
4, 89623, Note_off_c, 2, 90, 64
4, 89640, Note_on_c, 2, 90, 110
4, 89683, Note_off_c, 2, 90, 64
4, 89700, Note_on_c, 2, 90, 110
4, 89743, Note_off_c, 2, 90, 64
4, 89760, Note_on_c, 2, 90, 110
4, 89803, Note_off_c, 2, 90, 64
4, 89820, Note_on_c, 2, 90, 110
4, 89863, Note_off_c, 2, 90, 64
4, 89880, Note_on_c, 2, 90, 110
4, 89923, Note_off_c, 2, 90, 64
4, 89940, Note_on_c, 2, 90, 110
4, 89983, Note_off_c, 2, 90, 64
4, 90000, Note_on_c, 2, 90, 110
4, 90043, Note_off_c, 2, 90, 64
4, 90060, Note_on_c, 2, 90, 110
4, 90103, Note_off_c, 2, 90, 64
4, 90120, Note_on_c, 2, 90, 110
4, 90163, Note_off_c, 2, 90, 64
4, 90180, Note_on_c, 2, 90, 110
4, 90223, Note_off_c, 2, 90, 64
4, 90240, Note_on_c, 2, 91, 110
4, 90283, Note_off_c, 2, 91, 64
4, 90300, Note_on_c, 2, 91, 110
4, 90343, Note_off_c, 2, 91, 64
4, 90360, Note_on_c, 2, 91, 110
4, 90403, Note_off_c, 2, 91, 64
4, 90420, Note_on_c, 2, 91, 110
4, 90463, Note_off_c, 2, 91, 64
4, 90480, Note_on_c, 2, 91, 110
4, 90523, Note_off_c, 2, 91, 64
4, 90540, Note_on_c, 2, 91, 110
4, 90583, Note_off_c, 2, 91, 64
4, 90600, Note_on_c, 2, 91, 110
4, 90643, Note_off_c, 2, 91, 64
4, 90660, Note_on_c, 2, 91, 110
4, 90703, Note_off_c, 2, 91, 64
4, 90720, Note_on_c, 2, 91, 110
4, 90763, Note_off_c, 2, 91, 64
4, 90780, Note_on_c, 2, 91, 110
4, 90823, Note_off_c, 2, 91, 64
4, 90840, Note_on_c, 2, 91, 110
4, 90883, Note_off_c, 2, 91, 64
4, 90900, Note_on_c, 2, 91, 110
4, 90943, Note_off_c, 2, 91, 64
4, 90960, Note_on_c, 2, 91, 110
4, 91003, Note_off_c, 2, 91, 64
4, 91020, Note_on_c, 2, 91, 110
4, 91063, Note_off_c, 2, 91, 64
4, 91080, Note_on_c, 2, 91, 110
4, 91123, Note_off_c, 2, 91, 64
4, 91140, Note_on_c, 2, 91, 110
4, 91183, Note_off_c, 2, 91, 64
4, 91200, Note_on_c, 2, 93, 110
4, 91243, Note_off_c, 2, 93, 64
4, 91260, Note_on_c, 2, 93, 110
4, 91303, Note_off_c, 2, 93, 64
4, 91320, Note_on_c, 2, 93, 110
4, 91363, Note_off_c, 2, 93, 64
4, 91380, Note_on_c, 2, 93, 110
4, 91423, Note_off_c, 2, 93, 64
4, 91440, Note_on_c, 2, 93, 110
4, 91483, Note_off_c, 2, 93, 64
4, 91500, Note_on_c, 2, 93, 110
4, 91543, Note_off_c, 2, 93, 64
4, 91560, Note_on_c, 2, 93, 110
4, 91603, Note_off_c, 2, 93, 64
4, 91620, Note_on_c, 2, 93, 110
4, 91663, Note_off_c, 2, 93, 64
4, 91680, Note_on_c, 2, 93, 110
4, 91723, Note_off_c, 2, 93, 64
4, 91740, Note_on_c, 2, 93, 110
4, 91783, Note_off_c, 2, 93, 64
4, 91800, Note_on_c, 2, 93, 110
4, 91843, Note_off_c, 2, 93, 64
4, 91860, Note_on_c, 2, 93, 110
4, 91903, Note_off_c, 2, 93, 64
4, 91920, Note_on_c, 2, 93, 110
4, 91963, Note_off_c, 2, 93, 64
4, 91980, Note_on_c, 2, 93, 110
4, 92023, Note_off_c, 2, 93, 64
4, 92040, Note_on_c, 2, 93, 110
4, 92083, Note_off_c, 2, 93, 64
4, 92100, Note_on_c, 2, 93, 110
4, 92143, Note_off_c, 2, 93, 64
4, 92160, Note_on_c, 2, 95, 110
4, 92203, Note_off_c, 2, 95, 64
4, 92220, Note_on_c, 2, 95, 110
4, 92263, Note_off_c, 2, 95, 64
4, 92280, Note_on_c, 2, 95, 110
4, 92323, Note_off_c, 2, 95, 64
4, 92340, Note_on_c, 2, 95, 110
4, 92383, Note_off_c, 2, 95, 64
4, 92400, Note_on_c, 2, 95, 110
4, 92443, Note_off_c, 2, 95, 64
4, 92460, Note_on_c, 2, 95, 110
4, 92503, Note_off_c, 2, 95, 64
4, 92520, Note_on_c, 2, 95, 110
4, 92563, Note_off_c, 2, 95, 64
4, 92580, Note_on_c, 2, 95, 110
4, 92623, Note_off_c, 2, 95, 64
4, 92640, Note_on_c, 2, 95, 110
4, 92683, Note_off_c, 2, 95, 64
4, 92700, Note_on_c, 2, 95, 110
4, 92743, Note_off_c, 2, 95, 64
4, 92760, Note_on_c, 2, 95, 110
4, 92803, Note_off_c, 2, 95, 64
4, 92820, Note_on_c, 2, 95, 110
4, 92863, Note_off_c, 2, 95, 64
4, 92880, Note_on_c, 2, 95, 110
4, 92923, Note_off_c, 2, 95, 64
4, 92940, Note_on_c, 2, 95, 110
4, 92983, Note_off_c, 2, 95, 64
4, 93000, Note_on_c, 2, 95, 110
4, 93043, Note_off_c, 2, 95, 64
4, 93060, Note_on_c, 2, 95, 110
4, 93103, Note_off_c, 2, 95, 64
4, 93120, Note_on_c, 2, 96, 110
4, 93163, Note_off_c, 2, 96, 64
4, 93180, Note_on_c, 2, 96, 110
4, 93223, Note_off_c, 2, 96, 64
4, 93240, Note_on_c, 2, 96, 110
4, 93283, Note_off_c, 2, 96, 64
4, 93300, Note_on_c, 2, 96, 110
4, 93343, Note_off_c, 2, 96, 64
4, 93360, Note_on_c, 2, 96, 110
4, 93403, Note_off_c, 2, 96, 64
4, 93420, Note_on_c, 2, 96, 110
4, 93463, Note_off_c, 2, 96, 64
4, 93480, Note_on_c, 2, 96, 110
4, 93523, Note_off_c, 2, 96, 64
4, 93540, Note_on_c, 2, 96, 110
4, 93583, Note_off_c, 2, 96, 64
4, 93600, Note_on_c, 2, 96, 110
4, 93643, Note_off_c, 2, 96, 64
4, 93660, Note_on_c, 2, 96, 110
4, 93703, Note_off_c, 2, 96, 64
4, 93720, Note_on_c, 2, 96, 110
4, 93763, Note_off_c, 2, 96, 64
4, 93780, Note_on_c, 2, 96, 110
4, 93823, Note_off_c, 2, 96, 64
4, 93840, Note_on_c, 2, 96, 110
4, 93883, Note_off_c, 2, 96, 64
4, 93900, Note_on_c, 2, 96, 110
4, 93943, Note_off_c, 2, 96, 64
4, 93960, Note_on_c, 2, 96, 110
4, 94003, Note_off_c, 2, 96, 64
4, 94020, Note_on_c, 2, 96, 110
4, 94063, Note_off_c, 2, 96, 64
4, 94080, Note_on_c, 2, 98, 110
4, 94123, Note_off_c, 2, 98, 64
4, 94140, Note_on_c, 2, 98, 110
4, 94183, Note_off_c, 2, 98, 64
4, 94200, Note_on_c, 2, 98, 110
4, 94243, Note_off_c, 2, 98, 64
4, 94260, Note_on_c, 2, 98, 110
4, 94303, Note_off_c, 2, 98, 64
4, 94320, Note_on_c, 2, 98, 110
4, 94363, Note_off_c, 2, 98, 64
4, 94380, Note_on_c, 2, 98, 110
4, 94423, Note_off_c, 2, 98, 64
4, 94440, Note_on_c, 2, 98, 110
4, 94483, Note_off_c, 2, 98, 64
4, 94500, Note_on_c, 2, 98, 110
4, 94543, Note_off_c, 2, 98, 64
4, 94560, Note_on_c, 2, 98, 110
4, 94603, Note_off_c, 2, 98, 64
4, 94620, Note_on_c, 2, 98, 110
4, 94663, Note_off_c, 2, 98, 64
4, 94680, Note_on_c, 2, 98, 110
4, 94723, Note_off_c, 2, 98, 64
4, 94740, Note_on_c, 2, 98, 110
4, 94783, Note_off_c, 2, 98, 64
4, 94800, Note_on_c, 2, 98, 110
4, 94843, Note_off_c, 2, 98, 64
4, 94860, Note_on_c, 2, 98, 110
4, 94903, Note_off_c, 2, 98, 64
4, 94920, Note_on_c, 2, 98, 110
4, 94963, Note_off_c, 2, 98, 64
4, 94980, Note_on_c, 2, 98, 110
4, 95023, Note_off_c, 2, 98, 64
4, 96000, Pitch_bend_c, 2, 8192
4, 96000, End_track
5, 0, Start_track
5, 0, Title_t, "I Am The Walrus"
5, 0, Control_c, 3, 93, 6
5, 0, Control_c, 3, 93, 0
5, 0, Control_c, 3, 7, 96
5, 12, Control_c, 3, 101, 0
5, 12, Control_c, 3, 100, 0
5, 12, Control_c, 3, 91, 20
5, 16, Control_c, 3, 0, 127
5, 16, Control_c, 3, 100, 0
5, 16, Control_c, 3, 101, 0
5, 96, Program_c, 3, 48
5, 168, Control_c, 3, 6, 12
5, 200, Control_c, 3, 10, 127
5, 1920, Note_on_c, 3, 54, 102
5, 1920, Note_on_c, 3, 51, 102
5, 1920, Note_on_c, 3, 47, 102
5, 2375, Note_off_c, 3, 54, 64
5, 2375, Note_off_c, 3, 51, 64
5, 2375, Note_off_c, 3, 47, 64
5, 2400, Note_on_c, 3, 52, 102
5, 2400, Note_on_c, 3, 49, 102
5, 2400, Note_on_c, 3, 45, 102
5, 2855, Note_off_c, 3, 52, 64
5, 2855, Note_off_c, 3, 49, 64
5, 2855, Note_off_c, 3, 45, 64
5, 2880, Note_on_c, 3, 50, 102
5, 2880, Note_on_c, 3, 47, 102
5, 2880, Note_on_c, 3, 43, 102
5, 3335, Note_off_c, 3, 50, 64
5, 3335, Note_off_c, 3, 47, 64
5, 3335, Note_off_c, 3, 43, 64
5, 3360, Note_on_c, 3, 48, 102
5, 3360, Note_on_c, 3, 45, 102
5, 3360, Note_on_c, 3, 41, 102
5, 3815, Note_off_c, 3, 48, 64
5, 3815, Note_off_c, 3, 45, 64
5, 3815, Note_off_c, 3, 41, 64
5, 3840, Note_on_c, 3, 52, 102
5, 3840, Note_on_c, 3, 40, 102
5, 4005, Note_off_c, 3, 52, 64
5, 4005, Note_off_c, 3, 40, 64
5, 4080, Note_on_c, 3, 52, 102
5, 4080, Note_on_c, 3, 40, 102
5, 4245, Note_off_c, 3, 52, 64
5, 4245, Note_off_c, 3, 40, 64
5, 4320, Note_on_c, 3, 52, 102
5, 4320, Note_on_c, 3, 40, 102
5, 4380, Note_off_c, 3, 52, 64
5, 4380, Note_off_c, 3, 40, 64
5, 4440, Note_on_c, 3, 52, 102
5, 4440, Note_on_c, 3, 40, 102
5, 4500, Note_off_c, 3, 52, 64
5, 4500, Note_off_c, 3, 40, 64
5, 4560, Note_on_c, 3, 52, 102
5, 4560, Note_on_c, 3, 40, 102
5, 4725, Note_off_c, 3, 52, 64
5, 4725, Note_off_c, 3, 40, 64
5, 4800, Note_on_c, 3, 52, 102
5, 4800, Note_on_c, 3, 40, 102
5, 4848, Note_off_c, 3, 52, 64
5, 4848, Note_off_c, 3, 40, 64
5, 4920, Note_on_c, 3, 56, 102
5, 4920, Note_on_c, 3, 44, 102
5, 4968, Note_off_c, 3, 56, 64
5, 4968, Note_off_c, 3, 44, 64
5, 5040, Note_on_c, 3, 59, 102
5, 5040, Note_on_c, 3, 47, 102
5, 5088, Note_off_c, 3, 59, 64
5, 5088, Note_off_c, 3, 47, 64
5, 5160, Note_on_c, 3, 52, 102
5, 5160, Note_on_c, 3, 40, 102
5, 5208, Note_off_c, 3, 52, 64
5, 5208, Note_off_c, 3, 40, 64
5, 5280, Note_on_c, 3, 56, 102
5, 5280, Note_on_c, 3, 44, 102
5, 5328, Note_off_c, 3, 56, 64
5, 5328, Note_off_c, 3, 44, 64
5, 5400, Note_on_c, 3, 59, 102
5, 5400, Note_on_c, 3, 47, 102
5, 5448, Note_off_c, 3, 59, 64
5, 5448, Note_off_c, 3, 47, 64
5, 5520, Note_on_c, 3, 52, 102
5, 5520, Note_on_c, 3, 40, 102
5, 5673, Note_off_c, 3, 52, 64
5, 5673, Note_off_c, 3, 40, 64
5, 5714, Note_on_c, 3, 51, 102
5, 5714, Note_on_c, 3, 39, 102
5, 5759, Note_off_c, 3, 51, 64
5, 5759, Note_off_c, 3, 39, 64
5, 5760, Note_on_c, 3, 50, 102
5, 5760, Note_on_c, 3, 38, 102
5, 5925, Note_off_c, 3, 50, 64
5, 5925, Note_off_c, 3, 38, 64
5, 6000, Note_on_c, 3, 50, 102
5, 6000, Note_on_c, 3, 38, 102
5, 6165, Note_off_c, 3, 50, 64
5, 6165, Note_off_c, 3, 38, 64
5, 6240, Note_on_c, 3, 50, 102
5, 6240, Note_on_c, 3, 38, 102
5, 6300, Note_off_c, 3, 50, 64
5, 6300, Note_off_c, 3, 38, 64
5, 6360, Note_on_c, 3, 50, 102
5, 6360, Note_on_c, 3, 38, 102
5, 6420, Note_off_c, 3, 50, 64
5, 6420, Note_off_c, 3, 38, 64
5, 6480, Note_on_c, 3, 50, 102
5, 6480, Note_on_c, 3, 38, 102
5, 6645, Note_off_c, 3, 50, 64
5, 6645, Note_off_c, 3, 38, 64
5, 6720, Control_c, 3, 7, 127
5, 6720, Note_on_c, 3, 38, 127
5, 6804, Control_c, 3, 65, 64
5, 6846, Control_c, 3, 5, 74
5, 6938, Note_on_c, 3, 42, 127
5, 6940, Note_off_c, 3, 38, 64
5, 7080, Control_c, 3, 65, 2
5, 7158, Note_off_c, 3, 42, 64
5, 7200, Note_on_c, 3, 45, 127
5, 7384, Control_c, 3, 65, 64
5, 7420, Note_off_c, 3, 45, 64
5, 7420, Note_on_c, 3, 48, 127
5, 7590, Control_c, 3, 5, 0
5, 7640, Note_off_c, 3, 48, 64
5, 7680, Control_c, 3, 7, 112
5, 7680, Note_on_c, 3, 45, 125
5, 7786, Note_off_c, 3, 45, 64
5, 7920, Note_on_c, 3, 45, 127
5, 8026, Note_off_c, 3, 45, 64
5, 8160, Note_on_c, 3, 43, 124
5, 8266, Note_off_c, 3, 43, 64
5, 8400, Note_on_c, 3, 43, 127
5, 8496, Control_c, 3, 5, 58
5, 8592, Note_on_c, 3, 48, 125
5, 8618, Note_off_c, 3, 43, 64
5, 8663, Control_c, 3, 5, 33
5, 8672, Control_c, 3, 5, 0
5, 8766, Note_off_c, 3, 48, 64
5, 8880, Note_on_c, 3, 48, 127
5, 8986, Note_off_c, 3, 48, 64
5, 9120, Note_on_c, 3, 50, 124
5, 9226, Note_off_c, 3, 50, 64
5, 9360, Note_on_c, 3, 52, 127
5, 9436, Control_c, 3, 5, 64
5, 9511, Note_on_c, 3, 45, 127
5, 9514, Note_off_c, 3, 52, 64
5, 9651, Control_c, 3, 5, 31
5, 9656, Control_c, 3, 5, 0
5, 10000, Pitch_bend_c, 3, 8192
5, 10003, Pitch_bend_c, 3, 8374
5, 10006, Pitch_bend_c, 3, 8556
5, 10010, Pitch_bend_c, 3, 8799
5, 10013, Pitch_bend_c, 3, 8982
5, 10017, Pitch_bend_c, 3, 9225
5, 10020, Pitch_bend_c, 3, 9407
5, 10024, Pitch_bend_c, 3, 9651
5, 10027, Pitch_bend_c, 3, 9833
5, 10031, Pitch_bend_c, 3, 10076
5, 10034, Pitch_bend_c, 3, 10259
5, 10038, Pitch_bend_c, 3, 10502
5, 10041, Pitch_bend_c, 3, 10684
5, 10045, Pitch_bend_c, 3, 10927
5, 10048, Pitch_bend_c, 3, 11110
5, 10052, Pitch_bend_c, 3, 11353
5, 10055, Pitch_bend_c, 3, 11535
5, 10059, Pitch_bend_c, 3, 11779
5, 10062, Pitch_bend_c, 3, 11961
5, 10066, Pitch_bend_c, 3, 12204
5, 10069, Pitch_bend_c, 3, 12386
5, 10073, Pitch_bend_c, 3, 12630
5, 10076, Pitch_bend_c, 3, 12812
5, 10079, Pitch_bend_c, 3, 13056
5, 10188, Pitch_bend_c, 3, 13056
5, 10192, Pitch_bend_c, 3, 12800
5, 10196, Pitch_bend_c, 3, 12544
5, 10199, Pitch_bend_c, 3, 12288
5, 10308, Pitch_bend_c, 3, 12288
5, 10312, Pitch_bend_c, 3, 12544
5, 10316, Pitch_bend_c, 3, 12800
5, 10319, Pitch_bend_c, 3, 13056
5, 10428, Pitch_bend_c, 3, 13056
5, 10432, Pitch_bend_c, 3, 12800
5, 10436, Pitch_bend_c, 3, 12544
5, 10439, Pitch_bend_c, 3, 12288
5, 10512, Control_c, 3, 7, 112
5, 10553, Note_off_c, 3, 45, 64
5, 10560, Pitch_bend_c, 3, 8192
5, 10560, Note_on_c, 3, 36, 125
5, 10560, Note_on_c, 3, 48, 125
5, 10666, Note_off_c, 3, 36, 64
5, 10666, Note_off_c, 3, 48, 64
5, 10800, Note_on_c, 3, 36, 127
5, 10800, Note_on_c, 3, 48, 127
5, 10906, Note_off_c, 3, 36, 64
5, 10906, Note_off_c, 3, 48, 64
5, 11040, Note_on_c, 3, 36, 125
5, 11040, Note_on_c, 3, 48, 125
5, 11146, Note_off_c, 3, 36, 64
5, 11146, Note_off_c, 3, 48, 64
5, 11280, Note_on_c, 3, 36, 127
5, 11280, Note_on_c, 3, 48, 127
5, 11386, Note_off_c, 3, 36, 64
5, 11386, Note_off_c, 3, 48, 64
5, 11520, Note_on_c, 3, 38, 125
5, 11520, Note_on_c, 3, 50, 125
5, 11626, Note_off_c, 3, 38, 64
5, 11626, Note_off_c, 3, 50, 64
5, 11760, Note_on_c, 3, 50, 127
5, 11805, Note_off_c, 3, 50, 64
5, 11820, Note_on_c, 3, 48, 127
5, 11869, Note_off_c, 3, 48, 64
5, 11880, Note_on_c, 3, 45, 127
5, 11914, Note_off_c, 3, 45, 64
5, 12000, Note_on_c, 3, 45, 127
5, 12366, Note_off_c, 3, 45, 64
5, 12480, Note_on_c, 3, 45, 125
5, 12816, Pitch_bend_c, 3, 8192
5, 12819, Pitch_bend_c, 3, 8293
5, 12823, Pitch_bend_c, 3, 8428
5, 12912, Pitch_bend_c, 3, 8192
5, 12915, Pitch_bend_c, 3, 8488
5, 12919, Pitch_bend_c, 3, 8884
5, 12923, Pitch_bend_c, 3, 9279
5, 12926, Pitch_bend_c, 3, 9576
5, 12930, Pitch_bend_c, 3, 9972
5, 12934, Pitch_bend_c, 3, 10367
5, 12937, Pitch_bend_c, 3, 10664
5, 12941, Pitch_bend_c, 3, 11060
5, 12945, Pitch_bend_c, 3, 11455
5, 12948, Pitch_bend_c, 3, 11752
5, 12952, Pitch_bend_c, 3, 12148
5, 12955, Pitch_bend_c, 3, 12544
5, 12956, Pitch_bend_c, 3, 12920
5, 12959, Pitch_bend_c, 3, 13056
5, 13068, Pitch_bend_c, 3, 13056
5, 13072, Pitch_bend_c, 3, 12800
5, 13076, Pitch_bend_c, 3, 12544
5, 13079, Pitch_bend_c, 3, 12288
5, 13188, Pitch_bend_c, 3, 12288
5, 13192, Pitch_bend_c, 3, 12544
5, 13196, Pitch_bend_c, 3, 12800
5, 13199, Pitch_bend_c, 3, 13056
5, 13308, Pitch_bend_c, 3, 13056
5, 13312, Pitch_bend_c, 3, 12800
5, 13316, Pitch_bend_c, 3, 12544
5, 13319, Pitch_bend_c, 3, 12288
5, 13428, Pitch_bend_c, 3, 12288
5, 13432, Pitch_bend_c, 3, 12544
5, 13436, Pitch_bend_c, 3, 12800
5, 13439, Pitch_bend_c, 3, 13056
5, 13548, Pitch_bend_c, 3, 13056
5, 13552, Pitch_bend_c, 3, 12800
5, 13556, Pitch_bend_c, 3, 12544
5, 13559, Pitch_bend_c, 3, 12288
5, 13668, Pitch_bend_c, 3, 12288
5, 13672, Pitch_bend_c, 3, 12544
5, 13676, Pitch_bend_c, 3, 12800
5, 13679, Pitch_bend_c, 3, 13056
5, 13788, Pitch_bend_c, 3, 13056
5, 13792, Pitch_bend_c, 3, 12800
5, 13796, Pitch_bend_c, 3, 12544
5, 13799, Pitch_bend_c, 3, 12288
5, 13914, Note_off_c, 3, 45, 64
5, 13920, Pitch_bend_c, 3, 8192
5, 13920, Note_on_c, 3, 52, 127
5, 13959, Note_off_c, 3, 52, 64
5, 13980, Note_on_c, 3, 55, 127
5, 14019, Note_off_c, 3, 55, 64
5, 14040, Note_on_c, 3, 57, 127
5, 14071, Note_off_c, 3, 57, 64
5, 14100, Note_on_c, 3, 60, 127
5, 14132, Note_off_c, 3, 60, 64
5, 14160, Note_on_c, 3, 57, 127
5, 14382, Note_off_c, 3, 57, 64
5, 14383, Control_c, 3, 7, 112
5, 14384, Control_c, 3, 7, 96
5, 14400, Note_on_c, 3, 50, 127
5, 14400, Note_on_c, 3, 54, 127
5, 14858, Note_off_c, 3, 50, 64
5, 14858, Note_off_c, 3, 54, 64
5, 14880, Note_on_c, 3, 53, 127
5, 14880, Note_on_c, 3, 57, 127
5, 14887, Control_c, 3, 7, 96
5, 15074, Note_off_c, 3, 53, 64
5, 15074, Note_off_c, 3, 57, 64
5, 15120, Note_on_c, 3, 55, 127
5, 15120, Note_on_c, 3, 59, 127
5, 15314, Note_off_c, 3, 55, 64
5, 15314, Note_off_c, 3, 59, 64
5, 15335, Control_c, 3, 7, 96
5, 15336, Control_c, 3, 7, 112
5, 15360, Note_on_c, 3, 52, 127
5, 15420, Note_on_c, 3, 55, 127
5, 15422, Note_off_c, 3, 52, 64
5, 15474, Note_off_c, 3, 55, 64
5, 15480, Note_on_c, 3, 62, 127
5, 15514, Note_off_c, 3, 62, 64
5, 15540, Note_on_c, 3, 61, 127
5, 15572, Note_off_c, 3, 61, 64
5, 15600, Note_on_c, 3, 57, 127
5, 15840, Note_on_c, 3, 55, 127
5, 15842, Note_off_c, 3, 57, 64
5, 16270, Note_off_c, 3, 55, 64
5, 16320, Note_on_c, 3, 53, 127
5, 16320, Note_on_c, 3, 41, 127
5, 16374, Note_off_c, 3, 53, 64
5, 16374, Note_off_c, 3, 41, 64
5, 16440, Note_on_c, 3, 53, 127
5, 16440, Note_on_c, 3, 41, 127
5, 16494, Note_off_c, 3, 53, 64
5, 16494, Note_off_c, 3, 41, 64
5, 16560, Note_on_c, 3, 53, 127
5, 16560, Note_on_c, 3, 41, 127
5, 16614, Note_off_c, 3, 53, 64
5, 16614, Note_off_c, 3, 41, 64
5, 16680, Note_on_c, 3, 53, 127
5, 16680, Note_on_c, 3, 41, 127
5, 16734, Note_off_c, 3, 53, 64
5, 16734, Note_off_c, 3, 41, 64
5, 16800, Note_on_c, 3, 53, 127
5, 16800, Note_on_c, 3, 41, 127
5, 16854, Note_off_c, 3, 53, 64
5, 16854, Note_off_c, 3, 41, 64
5, 16920, Note_on_c, 3, 53, 127
5, 16920, Note_on_c, 3, 41, 127
5, 16974, Note_off_c, 3, 53, 64
5, 16974, Note_off_c, 3, 41, 64
5, 17040, Note_on_c, 3, 53, 127
5, 17040, Note_on_c, 3, 41, 127
5, 17094, Note_off_c, 3, 53, 64
5, 17094, Note_off_c, 3, 41, 64
5, 17160, Note_on_c, 3, 53, 127
5, 17160, Note_on_c, 3, 41, 127
5, 17214, Note_off_c, 3, 53, 64
5, 17214, Note_off_c, 3, 41, 64
5, 17280, Note_on_c, 3, 54, 127
5, 17326, Note_off_c, 3, 54, 64
5, 17340, Note_on_c, 3, 57, 127
5, 17378, Note_off_c, 3, 57, 64
5, 17400, Note_on_c, 3, 59, 127
5, 17434, Note_off_c, 3, 59, 64
5, 17460, Note_on_c, 3, 57, 127
5, 17492, Note_off_c, 3, 57, 64
5, 17520, Note_on_c, 3, 59, 127
5, 17606, Note_off_c, 3, 59, 64
5, 17640, Note_on_c, 3, 54, 127
5, 17686, Note_off_c, 3, 54, 64
5, 17700, Note_on_c, 3, 57, 127
5, 17738, Note_off_c, 3, 57, 64
5, 17760, Note_on_c, 3, 59, 127
5, 17794, Note_off_c, 3, 59, 64
5, 17820, Note_on_c, 3, 57, 127
5, 17852, Note_off_c, 3, 57, 64
5, 17880, Note_on_c, 3, 59, 127
5, 17966, Note_off_c, 3, 59, 64
5, 18000, Note_on_c, 3, 54, 127
5, 18046, Note_off_c, 3, 54, 64
5, 18060, Note_on_c, 3, 57, 127
5, 18098, Note_off_c, 3, 57, 64
5, 18120, Note_on_c, 3, 59, 127
5, 18154, Note_off_c, 3, 59, 64
5, 18180, Note_on_c, 3, 57, 127
5, 18212, Note_off_c, 3, 57, 64
5, 18240, Note_on_c, 3, 59, 127
5, 18274, Note_off_c, 3, 59, 64
5, 18300, Note_on_c, 3, 57, 127
5, 18332, Note_off_c, 3, 57, 64
5, 18360, Note_on_c, 3, 59, 127
5, 18394, Note_off_c, 3, 59, 64
5, 18420, Note_on_c, 3, 57, 127
5, 18452, Note_off_c, 3, 57, 64
5, 18480, Note_on_c, 3, 54, 127
5, 18898, Note_off_c, 3, 54, 64
5, 18960, Note_on_c, 3, 55, 127
5, 19407, Pitch_bend_c, 3, 8181
5, 19410, Pitch_bend_c, 3, 8176
5, 19414, Pitch_bend_c, 3, 8167
5, 19417, Pitch_bend_c, 3, 8160
5, 19420, Pitch_bend_c, 3, 8151
5, 19424, Pitch_bend_c, 3, 8138
5, 19427, Pitch_bend_c, 3, 8126
5, 19431, Pitch_bend_c, 3, 8110
5, 19434, Pitch_bend_c, 3, 8095
5, 19438, Pitch_bend_c, 3, 8075
5, 19441, Pitch_bend_c, 3, 8059
5, 19445, Pitch_bend_c, 3, 8036
5, 19448, Pitch_bend_c, 3, 8017
5, 19448, Control_c, 3, 5, 0
5, 19451, Pitch_bend_c, 3, 7997
5, 19455, Pitch_bend_c, 3, 7969
5, 19458, Pitch_bend_c, 3, 7946
5, 19462, Pitch_bend_c, 3, 7915
5, 19465, Pitch_bend_c, 3, 7890
5, 19469, Pitch_bend_c, 3, 7855
5, 19472, Pitch_bend_c, 3, 7828
5, 19476, Pitch_bend_c, 3, 7790
5, 19479, Pitch_bend_c, 3, 7760
5, 19482, Pitch_bend_c, 3, 7730
5, 19486, Pitch_bend_c, 3, 7687
5, 19489, Pitch_bend_c, 3, 7654
5, 19493, Pitch_bend_c, 3, 7608
5, 19496, Pitch_bend_c, 3, 7572
5, 19500, Pitch_bend_c, 3, 7522
5, 19503, Pitch_bend_c, 3, 7484
5, 19506, Pitch_bend_c, 3, 7445
5, 19510, Pitch_bend_c, 3, 7391
5, 19513, Pitch_bend_c, 3, 7349
5, 19517, Pitch_bend_c, 3, 7292
5, 19520, Pitch_bend_c, 3, 7247
5, 19524, Pitch_bend_c, 3, 7187
5, 19527, Pitch_bend_c, 3, 7140
5, 19531, Pitch_bend_c, 3, 7076
5, 19534, Pitch_bend_c, 3, 7027
5, 19537, Pitch_bend_c, 3, 6977
5, 19541, Pitch_bend_c, 3, 6908
5, 19544, Pitch_bend_c, 3, 6855
5, 19548, Pitch_bend_c, 3, 6783
5, 19551, Pitch_bend_c, 3, 6728
5, 19555, Pitch_bend_c, 3, 6652
5, 19558, Pitch_bend_c, 3, 6595
5, 19562, Pitch_bend_c, 3, 6516
5, 19565, Pitch_bend_c, 3, 6456
5, 19568, Pitch_bend_c, 3, 6394
5, 19572, Pitch_bend_c, 3, 6311
5, 19575, Pitch_bend_c, 3, 6247
5, 19579, Pitch_bend_c, 3, 6161
5, 19582, Pitch_bend_c, 3, 6095
5, 19586, Pitch_bend_c, 3, 6005
5, 19589, Pitch_bend_c, 3, 5936
5, 19592, Pitch_bend_c, 3, 5867
5, 19596, Pitch_bend_c, 3, 5771
5, 19599, Pitch_bend_c, 3, 5699
5, 19603, Pitch_bend_c, 3, 5601
5, 19606, Pitch_bend_c, 3, 5526
5, 19610, Pitch_bend_c, 3, 5425
5, 19613, Pitch_bend_c, 3, 5348
5, 19617, Pitch_bend_c, 3, 5243
5, 19620, Pitch_bend_c, 3, 5164
5, 19623, Pitch_bend_c, 3, 5083
5, 19627, Pitch_bend_c, 3, 4974
5, 19630, Pitch_bend_c, 3, 4890
5, 19634, Pitch_bend_c, 3, 4778
5, 19637, Pitch_bend_c, 3, 4692
5, 19641, Pitch_bend_c, 3, 4576
5, 19644, Pitch_bend_c, 3, 4488
5, 19648, Pitch_bend_c, 3, 4369
5, 19651, Pitch_bend_c, 3, 4278
5, 19654, Pitch_bend_c, 3, 4187
5, 19658, Pitch_bend_c, 3, 4063
5, 19661, Pitch_bend_c, 3, 3968
5, 19665, Pitch_bend_c, 3, 3841
5, 19668, Pitch_bend_c, 3, 3744
5, 19672, Pitch_bend_c, 3, 3613
5, 19675, Pitch_bend_c, 3, 3514
5, 19678, Pitch_bend_c, 3, 3414
5, 19682, Pitch_bend_c, 3, 3278
5, 19684, Pitch_bend_c, 3, 3328
5, 19739, Control_c, 3, 5, 0
5, 19744, Control_c, 3, 5, 0
5, 20069, Note_off_c, 3, 55, 64
5, 20153, Pitch_bend_c, 3, 8192
5, 20160, Note_on_c, 3, 57, 127
5, 20366, Pitch_bend_c, 3, 8181
5, 20369, Pitch_bend_c, 3, 8176
5, 20373, Pitch_bend_c, 3, 8167
5, 20376, Pitch_bend_c, 3, 8160
5, 20380, Pitch_bend_c, 3, 8148
5, 20383, Pitch_bend_c, 3, 8138
5, 20386, Pitch_bend_c, 3, 8126
5, 20390, Pitch_bend_c, 3, 8110
5, 20393, Pitch_bend_c, 3, 8095
5, 20397, Pitch_bend_c, 3, 8075
5, 20400, Pitch_bend_c, 3, 8059
5, 20404, Pitch_bend_c, 3, 8036
5, 20407, Pitch_bend_c, 3, 8017
5, 20410, Pitch_bend_c, 3, 7997
5, 20414, Pitch_bend_c, 3, 7969
5, 20417, Pitch_bend_c, 3, 7946
5, 20421, Pitch_bend_c, 3, 7915
5, 20424, Pitch_bend_c, 3, 7890
5, 20428, Pitch_bend_c, 3, 7855
5, 20431, Pitch_bend_c, 3, 7828
5, 20435, Pitch_bend_c, 3, 7790
5, 20438, Pitch_bend_c, 3, 7760
5, 20441, Pitch_bend_c, 3, 7730
5, 20445, Pitch_bend_c, 3, 7687
5, 20448, Pitch_bend_c, 3, 7654
5, 20452, Pitch_bend_c, 3, 7608
5, 20455, Pitch_bend_c, 3, 7572
5, 20459, Pitch_bend_c, 3, 7522
5, 20460, Control_c, 3, 5, 0
5, 20462, Pitch_bend_c, 3, 7484
5, 20466, Pitch_bend_c, 3, 7432
5, 20469, Pitch_bend_c, 3, 7391
5, 20472, Pitch_bend_c, 3, 7349
5, 20476, Pitch_bend_c, 3, 7292
5, 20479, Pitch_bend_c, 3, 7247
5, 20483, Pitch_bend_c, 3, 7187
5, 20486, Pitch_bend_c, 3, 7140
5, 20490, Pitch_bend_c, 3, 7076
5, 20493, Pitch_bend_c, 3, 7027
5, 20496, Pitch_bend_c, 3, 6977
5, 20500, Pitch_bend_c, 3, 6908
5, 20503, Pitch_bend_c, 3, 6855
5, 20507, Pitch_bend_c, 3, 6783
5, 20510, Pitch_bend_c, 3, 6728
5, 20514, Pitch_bend_c, 3, 6652
5, 20517, Pitch_bend_c, 3, 6595
5, 20521, Pitch_bend_c, 3, 6516
5, 20524, Pitch_bend_c, 3, 6456
5, 20527, Pitch_bend_c, 3, 6394
5, 20531, Pitch_bend_c, 3, 6311
5, 20534, Pitch_bend_c, 3, 6247
5, 20538, Pitch_bend_c, 3, 6161
5, 20541, Pitch_bend_c, 3, 6095
5, 20545, Pitch_bend_c, 3, 6005
5, 20548, Pitch_bend_c, 3, 5936
5, 20552, Pitch_bend_c, 3, 5843
5, 20555, Pitch_bend_c, 3, 5771
5, 20558, Pitch_bend_c, 3, 5699
5, 20562, Pitch_bend_c, 3, 5601
5, 20565, Pitch_bend_c, 3, 5526
5, 20569, Pitch_bend_c, 3, 5425
5, 20572, Pitch_bend_c, 3, 5348
5, 20576, Pitch_bend_c, 3, 5243
5, 20579, Pitch_bend_c, 3, 5164
5, 20582, Pitch_bend_c, 3, 5083
5, 20586, Pitch_bend_c, 3, 4974
5, 20589, Pitch_bend_c, 3, 4890
5, 20593, Pitch_bend_c, 3, 4778
5, 20596, Pitch_bend_c, 3, 4692
5, 20600, Pitch_bend_c, 3, 4576
5, 20603, Pitch_bend_c, 3, 4488
5, 20607, Pitch_bend_c, 3, 4369
5, 20610, Pitch_bend_c, 3, 4278
5, 20613, Pitch_bend_c, 3, 4187
5, 20617, Pitch_bend_c, 3, 4063
5, 20620, Pitch_bend_c, 3, 3968
5, 20624, Pitch_bend_c, 3, 3841
5, 20627, Pitch_bend_c, 3, 3744
5, 20631, Pitch_bend_c, 3, 3613
5, 20634, Pitch_bend_c, 3, 3514
5, 20638, Pitch_bend_c, 3, 3380
5, 20641, Pitch_bend_c, 3, 3278
5, 20643, Pitch_bend_c, 3, 3328
5, 20711, Control_c, 3, 5, 0
5, 20716, Control_c, 3, 5, 0
5, 21031, Note_off_c, 3, 57, 64
5, 21119, Pitch_bend_c, 3, 8192
5, 21120, Note_on_c, 3, 59, 127
5, 21325, Pitch_bend_c, 3, 8181
5, 21328, Pitch_bend_c, 3, 8176
5, 21332, Pitch_bend_c, 3, 8167
5, 21335, Pitch_bend_c, 3, 8160
5, 21339, Pitch_bend_c, 3, 8148
5, 21342, Pitch_bend_c, 3, 8138
5, 21345, Pitch_bend_c, 3, 8126
5, 21349, Pitch_bend_c, 3, 8110
5, 21352, Pitch_bend_c, 3, 8095
5, 21356, Pitch_bend_c, 3, 8075
5, 21359, Pitch_bend_c, 3, 8059
5, 21363, Pitch_bend_c, 3, 8036
5, 21366, Pitch_bend_c, 3, 8017
5, 21370, Pitch_bend_c, 3, 7990
5, 21373, Pitch_bend_c, 3, 7969
5, 21376, Pitch_bend_c, 3, 7946
5, 21380, Pitch_bend_c, 3, 7915
5, 21383, Pitch_bend_c, 3, 7890
5, 21387, Pitch_bend_c, 3, 7855
5, 21390, Pitch_bend_c, 3, 7828
5, 21394, Pitch_bend_c, 3, 7790
5, 21397, Pitch_bend_c, 3, 7760
5, 21400, Pitch_bend_c, 3, 7730
5, 21404, Pitch_bend_c, 3, 7687
5, 21407, Pitch_bend_c, 3, 7654
5, 21411, Pitch_bend_c, 3, 7608
5, 21414, Pitch_bend_c, 3, 7572
5, 21418, Pitch_bend_c, 3, 7522
5, 21421, Pitch_bend_c, 3, 7484
5, 21425, Pitch_bend_c, 3, 7432
5, 21428, Pitch_bend_c, 3, 7391
5, 21431, Pitch_bend_c, 3, 7349
5, 21435, Pitch_bend_c, 3, 7292
5, 21438, Pitch_bend_c, 3, 7247
5, 21442, Pitch_bend_c, 3, 7187
5, 21445, Pitch_bend_c, 3, 7140
5, 21449, Pitch_bend_c, 3, 7076
5, 21452, Pitch_bend_c, 3, 7027
5, 21456, Pitch_bend_c, 3, 6960
5, 21456, Control_c, 3, 5, 0
5, 21459, Pitch_bend_c, 3, 6908
5, 21462, Pitch_bend_c, 3, 6855
5, 21466, Pitch_bend_c, 3, 6783
5, 21469, Pitch_bend_c, 3, 6728
5, 21473, Pitch_bend_c, 3, 6652
5, 21476, Pitch_bend_c, 3, 6595
5, 21480, Pitch_bend_c, 3, 6516
5, 21483, Pitch_bend_c, 3, 6456
5, 21486, Pitch_bend_c, 3, 6394
5, 21490, Pitch_bend_c, 3, 6311
5, 21493, Pitch_bend_c, 3, 6247
5, 21497, Pitch_bend_c, 3, 6161
5, 21500, Pitch_bend_c, 3, 6095
5, 21504, Pitch_bend_c, 3, 6005
5, 21507, Pitch_bend_c, 3, 5936
5, 21511, Pitch_bend_c, 3, 5843
5, 21514, Pitch_bend_c, 3, 5771
5, 21517, Pitch_bend_c, 3, 5699
5, 21521, Pitch_bend_c, 3, 5601
5, 21524, Pitch_bend_c, 3, 5526
5, 21528, Pitch_bend_c, 3, 5425
5, 21531, Pitch_bend_c, 3, 5348
5, 21535, Pitch_bend_c, 3, 5243
5, 21538, Pitch_bend_c, 3, 5164
5, 21542, Pitch_bend_c, 3, 5056
5, 21545, Pitch_bend_c, 3, 4974
5, 21548, Pitch_bend_c, 3, 4890
5, 21552, Pitch_bend_c, 3, 4778
5, 21555, Pitch_bend_c, 3, 4692
5, 21559, Pitch_bend_c, 3, 4576
5, 21562, Pitch_bend_c, 3, 4488
5, 21566, Pitch_bend_c, 3, 4369
5, 21569, Pitch_bend_c, 3, 4278
5, 21572, Pitch_bend_c, 3, 4187
5, 21576, Pitch_bend_c, 3, 4063
5, 21579, Pitch_bend_c, 3, 3968
5, 21583, Pitch_bend_c, 3, 3841
5, 21586, Pitch_bend_c, 3, 3744
5, 21590, Pitch_bend_c, 3, 3613
5, 21593, Pitch_bend_c, 3, 3514
5, 21597, Pitch_bend_c, 3, 3380
5, 21600, Pitch_bend_c, 3, 3278
5, 21602, Pitch_bend_c, 3, 3328
5, 21703, Control_c, 3, 5, 0
5, 21708, Control_c, 3, 5, 0
5, 21847, Note_off_c, 3, 59, 64
5, 21931, Pitch_bend_c, 3, 8192
5, 21960, Note_on_c, 3, 52, 127
5, 22001, Pitch_bend_c, 3, 8145
5, 22005, Pitch_bend_c, 3, 8091
5, 22008, Pitch_bend_c, 3, 8031
5, 22012, Pitch_bend_c, 3, 7936
5, 22015, Pitch_bend_c, 3, 7855
5, 22019, Pitch_bend_c, 3, 7721
5, 22022, Pitch_bend_c, 3, 7607
5, 22025, Pitch_bend_c, 3, 7485
5, 22029, Pitch_bend_c, 3, 7297
5, 22032, Pitch_bend_c, 3, 7142
5, 22036, Pitch_bend_c, 3, 6920
5, 22039, Pitch_bend_c, 3, 6738
5, 22043, Pitch_bend_c, 3, 6475
5, 22046, Pitch_bend_c, 3, 6266
5, 22049, Pitch_bend_c, 3, 6044
5, 22053, Pitch_bend_c, 3, 5728
5, 22056, Pitch_bend_c, 3, 5479
5, 22060, Pitch_bend_c, 3, 5128
5, 22063, Pitch_bend_c, 3, 4846
5, 22067, Pitch_bend_c, 3, 4455
5, 22070, Pitch_bend_c, 3, 4152
5, 22074, Pitch_bend_c, 3, 3722
5, 22077, Pitch_bend_c, 3, 3385
5, 22080, Pitch_bend_c, 3, 3041
5, 22080, Pitch_bend_c, 3, 3328
5, 22161, Note_off_c, 3, 52, 64
5, 22176, Pitch_bend_c, 3, 3328
5, 22238, Pitch_bend_c, 3, 3328
5, 22239, Pitch_bend_c, 3, 8192
5, 22320, Note_on_c, 3, 45, 127
5, 22418, Note_off_c, 3, 45, 64
5, 22560, Note_on_c, 3, 43, 127
5, 22658, Note_off_c, 3, 43, 64
5, 22800, Note_on_c, 3, 43, 127
5, 22898, Note_off_c, 3, 43, 64
5, 23016, Control_c, 3, 7, 96
5, 23040, Note_on_c, 3, 48, 127
5, 23040, Note_on_c, 3, 52, 127
5, 23138, Note_off_c, 3, 48, 64
5, 23138, Note_off_c, 3, 52, 64
5, 23280, Note_on_c, 3, 48, 127
5, 23280, Note_on_c, 3, 52, 127
5, 23378, Note_off_c, 3, 48, 64
5, 23378, Note_off_c, 3, 52, 64
5, 23520, Note_on_c, 3, 50, 127
5, 23520, Note_on_c, 3, 54, 127
5, 23618, Note_off_c, 3, 50, 64
5, 23618, Note_off_c, 3, 54, 64
5, 23655, Control_c, 3, 7, 96
5, 23656, Control_c, 3, 7, 112
5, 23760, Note_on_c, 3, 50, 127
5, 23760, Note_on_c, 3, 54, 127
5, 23858, Note_off_c, 3, 50, 64
5, 23858, Note_off_c, 3, 54, 64
5, 24000, Note_on_c, 3, 52, 127
5, 24098, Note_off_c, 3, 52, 64
5, 24204, Note_on_c, 3, 55, 127
5, 24240, Note_on_c, 3, 57, 127
5, 24241, Note_off_c, 3, 55, 64
5, 24338, Note_off_c, 3, 57, 64
5, 24444, Note_on_c, 3, 59, 127
5, 24480, Note_on_c, 3, 57, 127
5, 24481, Note_off_c, 3, 59, 64
5, 24578, Note_off_c, 3, 57, 64
5, 24600, Note_on_c, 3, 52, 127
5, 24630, Note_off_c, 3, 52, 64
5, 24660, Note_on_c, 3, 55, 127
5, 24690, Note_off_c, 3, 55, 64
5, 24720, Note_on_c, 3, 57, 127
5, 24750, Note_off_c, 3, 57, 64
5, 24780, Note_on_c, 3, 59, 127
5, 24810, Note_off_c, 3, 59, 64
5, 24839, Note_on_c, 3, 57, 127
5, 25920, Note_on_c, 3, 45, 127
5, 25945, Note_off_c, 3, 57, 64
5, 25949, Note_off_c, 3, 45, 64
5, 26000, Note_on_c, 3, 56, 127
5, 26000, Note_on_c, 3, 44, 127
5, 26029, Note_off_c, 3, 56, 64
5, 26029, Note_off_c, 3, 44, 64
5, 26080, Note_on_c, 3, 55, 127
5, 26080, Note_on_c, 3, 43, 127
5, 26109, Note_off_c, 3, 55, 64
5, 26109, Note_off_c, 3, 43, 64
5, 26160, Note_on_c, 3, 54, 127
5, 26160, Note_on_c, 3, 42, 127
5, 26189, Note_off_c, 3, 54, 64
5, 26189, Note_off_c, 3, 42, 64
5, 26240, Note_on_c, 3, 53, 127
5, 26240, Note_on_c, 3, 41, 127
5, 26269, Note_off_c, 3, 53, 64
5, 26269, Note_off_c, 3, 41, 64
5, 26320, Note_on_c, 3, 52, 127
5, 26320, Note_on_c, 3, 40, 127
5, 26349, Note_off_c, 3, 52, 64
5, 26349, Note_off_c, 3, 40, 64
5, 26400, Note_on_c, 3, 51, 127
5, 26400, Note_on_c, 3, 39, 127
5, 26429, Note_off_c, 3, 51, 64
5, 26429, Note_off_c, 3, 39, 64
5, 26480, Note_on_c, 3, 50, 127
5, 26480, Note_on_c, 3, 38, 127
5, 26509, Note_off_c, 3, 50, 64
5, 26509, Note_off_c, 3, 38, 64
5, 26560, Note_on_c, 3, 49, 127
5, 26560, Note_on_c, 3, 37, 127
5, 26589, Note_off_c, 3, 49, 64
5, 26589, Note_off_c, 3, 37, 64
5, 26640, Note_on_c, 3, 48, 127
5, 26640, Note_on_c, 3, 36, 127
5, 26669, Note_off_c, 3, 48, 64
5, 26669, Note_off_c, 3, 36, 64
5, 26720, Note_on_c, 3, 47, 127
5, 26720, Note_on_c, 3, 35, 127
5, 26749, Note_off_c, 3, 47, 64
5, 26749, Note_off_c, 3, 35, 64
5, 26800, Note_on_c, 3, 46, 127
5, 26800, Note_on_c, 3, 34, 127
5, 26829, Note_off_c, 3, 46, 64
5, 26829, Note_off_c, 3, 34, 64
5, 26880, Note_on_c, 3, 45, 127
5, 26880, Note_on_c, 3, 33, 127
5, 27749, Note_off_c, 3, 45, 64
5, 27749, Note_off_c, 3, 33, 64
5, 27840, Note_on_c, 3, 50, 127
5, 27840, Note_on_c, 3, 38, 127
5, 27898, Note_off_c, 3, 50, 64
5, 27898, Note_off_c, 3, 38, 64
5, 27960, Note_on_c, 3, 50, 127
5, 27960, Note_on_c, 3, 38, 127
5, 28018, Note_off_c, 3, 50, 64
5, 28018, Note_off_c, 3, 38, 64
5, 28080, Note_on_c, 3, 50, 127
5, 28080, Note_on_c, 3, 38, 127
5, 28138, Note_off_c, 3, 50, 64
5, 28138, Note_off_c, 3, 38, 64
5, 28200, Note_on_c, 3, 50, 127
5, 28200, Note_on_c, 3, 38, 127
5, 28258, Note_off_c, 3, 50, 64
5, 28258, Note_off_c, 3, 38, 64
5, 28320, Note_on_c, 3, 55, 127
5, 28438, Note_off_c, 3, 55, 64
5, 28440, Note_on_c, 3, 54, 127
5, 28486, Note_off_c, 3, 54, 64
5, 28560, Note_on_c, 3, 55, 127
5, 28678, Note_off_c, 3, 55, 64
5, 28680, Note_on_c, 3, 54, 127
5, 28726, Note_off_c, 3, 54, 64
5, 28800, Note_on_c, 3, 55, 127
5, 28918, Note_off_c, 3, 55, 64
5, 28920, Note_on_c, 3, 54, 127
5, 28966, Note_off_c, 3, 54, 64
5, 29040, Note_on_c, 3, 55, 127
5, 29158, Note_off_c, 3, 55, 64
5, 29160, Note_on_c, 3, 54, 127
5, 29206, Note_off_c, 3, 54, 64
5, 29280, Note_on_c, 3, 55, 127
5, 29398, Note_off_c, 3, 55, 64
5, 29400, Note_on_c, 3, 54, 127
5, 29446, Note_off_c, 3, 54, 64
5, 29520, Note_on_c, 3, 55, 127
5, 29566, Note_off_c, 3, 55, 64
5, 29580, Note_on_c, 3, 54, 127
5, 29626, Note_off_c, 3, 54, 64
5, 29640, Note_on_c, 3, 50, 127
5, 29706, Note_off_c, 3, 50, 64
5, 29760, Note_on_c, 3, 45, 127
5, 29864, Pitch_bend_c, 3, 8192
5, 29868, Pitch_bend_c, 3, 7872
5, 29872, Pitch_bend_c, 3, 7552
5, 29876, Pitch_bend_c, 3, 7232
5, 29879, Pitch_bend_c, 3, 6912
5, 30550, Note_off_c, 3, 45, 64
5, 30720, Pitch_bend_c, 3, 8192
5, 30720, Note_on_c, 3, 40, 127
5, 31670, Note_off_c, 3, 40, 64
5, 31680, Note_on_c, 3, 38, 127
5, 32102, Note_off_c, 3, 38, 64
5, 32120, Note_on_c, 3, 41, 127
5, 32160, Note_off_c, 3, 41, 64
5, 32160, Note_on_c, 3, 42, 127
5, 32590, Note_off_c, 3, 42, 64
5, 32600, Note_on_c, 3, 44, 127
5, 32638, Note_off_c, 3, 44, 64
5, 32640, Note_on_c, 3, 45, 127
5, 32782, Note_off_c, 3, 45, 64
5, 32880, Note_on_c, 3, 45, 127
5, 33022, Note_off_c, 3, 45, 64
5, 33120, Note_on_c, 3, 52, 127
5, 33130, Control_c, 3, 7, 96
5, 33174, Note_off_c, 3, 52, 64
5, 33180, Note_on_c, 3, 55, 127
5, 33234, Note_off_c, 3, 55, 64
5, 33240, Note_on_c, 3, 57, 127
5, 33271, Note_off_c, 3, 57, 64
5, 33300, Note_on_c, 3, 60, 127
5, 33332, Note_off_c, 3, 60, 64
5, 33360, Note_on_c, 3, 57, 127
5, 33582, Note_off_c, 3, 57, 64
5, 33600, Control_c, 3, 7, 84
5, 33600, Note_on_c, 3, 50, 127
5, 33600, Note_on_c, 3, 54, 127
5, 34058, Note_off_c, 3, 50, 64
5, 34058, Note_off_c, 3, 54, 64
5, 34080, Note_on_c, 3, 53, 127
5, 34080, Note_on_c, 3, 57, 127
5, 34274, Note_off_c, 3, 53, 64
5, 34274, Note_off_c, 3, 57, 64
5, 34320, Note_on_c, 3, 55, 127
5, 34320, Note_on_c, 3, 59, 127
5, 34514, Note_off_c, 3, 55, 64
5, 34514, Note_off_c, 3, 59, 64
5, 34560, Control_c, 3, 7, 96
5, 34560, Note_on_c, 3, 52, 127
5, 34620, Note_on_c, 3, 55, 127
5, 34622, Note_off_c, 3, 52, 64
5, 34674, Note_off_c, 3, 55, 64
5, 34680, Note_on_c, 3, 62, 127
5, 34714, Note_off_c, 3, 62, 64
5, 34740, Note_on_c, 3, 61, 127
5, 34772, Note_off_c, 3, 61, 64
5, 34800, Note_on_c, 3, 57, 127
5, 35040, Note_on_c, 3, 55, 127
5, 35042, Note_off_c, 3, 57, 64
5, 35470, Note_off_c, 3, 55, 64
5, 35520, Control_c, 3, 7, 112
5, 35520, Note_on_c, 3, 53, 127
5, 35520, Note_on_c, 3, 41, 127
5, 35574, Note_off_c, 3, 53, 64
5, 35574, Note_off_c, 3, 41, 64
5, 35640, Note_on_c, 3, 53, 127
5, 35640, Note_on_c, 3, 41, 127
5, 35694, Note_off_c, 3, 53, 64
5, 35694, Note_off_c, 3, 41, 64
5, 35760, Note_on_c, 3, 53, 127
5, 35760, Note_on_c, 3, 41, 127
5, 35814, Note_off_c, 3, 53, 64
5, 35814, Note_off_c, 3, 41, 64
5, 35880, Note_on_c, 3, 53, 127
5, 35880, Note_on_c, 3, 41, 127
5, 35934, Note_off_c, 3, 53, 64
5, 35934, Note_off_c, 3, 41, 64
5, 36000, Note_on_c, 3, 53, 127
5, 36000, Note_on_c, 3, 41, 127
5, 36054, Note_off_c, 3, 53, 64
5, 36054, Note_off_c, 3, 41, 64
5, 36120, Note_on_c, 3, 53, 127
5, 36120, Note_on_c, 3, 41, 127
5, 36174, Note_off_c, 3, 53, 64
5, 36174, Note_off_c, 3, 41, 64
5, 36240, Note_on_c, 3, 53, 127
5, 36240, Note_on_c, 3, 41, 127
5, 36294, Note_off_c, 3, 53, 64
5, 36294, Note_off_c, 3, 41, 64
5, 36360, Note_on_c, 3, 53, 127
5, 36360, Note_on_c, 3, 41, 127
5, 36414, Note_off_c, 3, 53, 64
5, 36414, Note_off_c, 3, 41, 64
5, 36480, Note_on_c, 3, 54, 127
5, 36526, Note_off_c, 3, 54, 64
5, 36540, Note_on_c, 3, 57, 127
5, 36578, Note_off_c, 3, 57, 64
5, 36600, Note_on_c, 3, 59, 127
5, 36634, Note_off_c, 3, 59, 64
5, 36660, Note_on_c, 3, 57, 127
5, 36692, Note_off_c, 3, 57, 64
5, 36720, Note_on_c, 3, 59, 127
5, 36806, Note_off_c, 3, 59, 64
5, 36840, Note_on_c, 3, 54, 127
5, 36886, Note_off_c, 3, 54, 64
5, 36900, Note_on_c, 3, 57, 127
5, 36938, Note_off_c, 3, 57, 64
5, 36960, Note_on_c, 3, 59, 127
5, 36994, Note_off_c, 3, 59, 64
5, 37020, Note_on_c, 3, 57, 127
5, 37052, Note_off_c, 3, 57, 64
5, 37080, Note_on_c, 3, 59, 127
5, 37166, Note_off_c, 3, 59, 64
5, 37200, Note_on_c, 3, 54, 127
5, 37246, Note_off_c, 3, 54, 64
5, 37260, Note_on_c, 3, 57, 127
5, 37298, Note_off_c, 3, 57, 64
5, 37320, Note_on_c, 3, 59, 127
5, 37354, Note_off_c, 3, 59, 64
5, 37380, Note_on_c, 3, 57, 127
5, 37412, Note_off_c, 3, 57, 64
5, 37440, Note_on_c, 3, 59, 127
5, 37474, Note_off_c, 3, 59, 64
5, 37500, Note_on_c, 3, 57, 127
5, 37532, Note_off_c, 3, 57, 64
5, 37560, Note_on_c, 3, 59, 127
5, 37594, Note_off_c, 3, 59, 64
5, 37620, Note_on_c, 3, 57, 127
5, 37652, Note_off_c, 3, 57, 64
5, 37680, Note_on_c, 3, 54, 127
5, 38098, Note_off_c, 3, 54, 64
5, 38160, Note_on_c, 3, 55, 127
5, 38607, Pitch_bend_c, 3, 8181
5, 38610, Pitch_bend_c, 3, 8176
5, 38614, Pitch_bend_c, 3, 8167
5, 38617, Pitch_bend_c, 3, 8160
5, 38620, Pitch_bend_c, 3, 8151
5, 38624, Pitch_bend_c, 3, 8138
5, 38627, Pitch_bend_c, 3, 8126
5, 38631, Pitch_bend_c, 3, 8110
5, 38634, Pitch_bend_c, 3, 8095
5, 38638, Pitch_bend_c, 3, 8075
5, 38641, Pitch_bend_c, 3, 8059
5, 38645, Pitch_bend_c, 3, 8036
5, 38648, Pitch_bend_c, 3, 8017
5, 38651, Pitch_bend_c, 3, 7997
5, 38655, Pitch_bend_c, 3, 7969
5, 38658, Pitch_bend_c, 3, 7946
5, 38662, Pitch_bend_c, 3, 7915
5, 38665, Pitch_bend_c, 3, 7890
5, 38669, Pitch_bend_c, 3, 7855
5, 38672, Pitch_bend_c, 3, 7828
5, 38676, Pitch_bend_c, 3, 7790
5, 38679, Pitch_bend_c, 3, 7760
5, 38682, Pitch_bend_c, 3, 7730
5, 38686, Pitch_bend_c, 3, 7687
5, 38689, Pitch_bend_c, 3, 7654
5, 38693, Pitch_bend_c, 3, 7608
5, 38696, Pitch_bend_c, 3, 7572
5, 38700, Pitch_bend_c, 3, 7522
5, 38703, Pitch_bend_c, 3, 7484
5, 38706, Pitch_bend_c, 3, 7445
5, 38710, Pitch_bend_c, 3, 7391
5, 38713, Pitch_bend_c, 3, 7349
5, 38717, Pitch_bend_c, 3, 7292
5, 38720, Pitch_bend_c, 3, 7247
5, 38724, Pitch_bend_c, 3, 7187
5, 38727, Pitch_bend_c, 3, 7140
5, 38731, Pitch_bend_c, 3, 7076
5, 38734, Pitch_bend_c, 3, 7027
5, 38737, Pitch_bend_c, 3, 6977
5, 38741, Pitch_bend_c, 3, 6908
5, 38744, Pitch_bend_c, 3, 6855
5, 38748, Pitch_bend_c, 3, 6783
5, 38751, Pitch_bend_c, 3, 6728
5, 38755, Pitch_bend_c, 3, 6652
5, 38758, Pitch_bend_c, 3, 6595
5, 38762, Pitch_bend_c, 3, 6516
5, 38765, Pitch_bend_c, 3, 6456
5, 38768, Pitch_bend_c, 3, 6394
5, 38772, Pitch_bend_c, 3, 6311
5, 38775, Pitch_bend_c, 3, 6247
5, 38779, Pitch_bend_c, 3, 6161
5, 38782, Pitch_bend_c, 3, 6095
5, 38786, Pitch_bend_c, 3, 6005
5, 38789, Pitch_bend_c, 3, 5936
5, 38792, Pitch_bend_c, 3, 5867
5, 38796, Pitch_bend_c, 3, 5771
5, 38799, Pitch_bend_c, 3, 5699
5, 38803, Pitch_bend_c, 3, 5601
5, 38806, Pitch_bend_c, 3, 5526
5, 38810, Pitch_bend_c, 3, 5425
5, 38813, Pitch_bend_c, 3, 5348
5, 38817, Pitch_bend_c, 3, 5243
5, 38820, Pitch_bend_c, 3, 5164
5, 38823, Pitch_bend_c, 3, 5083
5, 38827, Pitch_bend_c, 3, 4974
5, 38830, Pitch_bend_c, 3, 4890
5, 38834, Pitch_bend_c, 3, 4778
5, 38837, Pitch_bend_c, 3, 4692
5, 38841, Pitch_bend_c, 3, 4576
5, 38844, Pitch_bend_c, 3, 4488
5, 38848, Pitch_bend_c, 3, 4369
5, 38851, Pitch_bend_c, 3, 4278
5, 38854, Pitch_bend_c, 3, 4187
5, 38858, Pitch_bend_c, 3, 4063
5, 38861, Pitch_bend_c, 3, 3968
5, 38865, Pitch_bend_c, 3, 3841
5, 38868, Pitch_bend_c, 3, 3744
5, 38872, Pitch_bend_c, 3, 3613
5, 38875, Pitch_bend_c, 3, 3514
5, 38878, Pitch_bend_c, 3, 3414
5, 38882, Pitch_bend_c, 3, 3278
5, 38884, Pitch_bend_c, 3, 3328
5, 39269, Note_off_c, 3, 55, 64
5, 39353, Pitch_bend_c, 3, 8192
5, 39360, Note_on_c, 3, 57, 127
5, 39566, Pitch_bend_c, 3, 8181
5, 39569, Pitch_bend_c, 3, 8176
5, 39573, Pitch_bend_c, 3, 8167
5, 39576, Pitch_bend_c, 3, 8160
5, 39580, Pitch_bend_c, 3, 8148
5, 39583, Pitch_bend_c, 3, 8138
5, 39586, Pitch_bend_c, 3, 8126
5, 39590, Pitch_bend_c, 3, 8110
5, 39593, Pitch_bend_c, 3, 8095
5, 39597, Pitch_bend_c, 3, 8075
5, 39600, Pitch_bend_c, 3, 8059
5, 39604, Pitch_bend_c, 3, 8036
5, 39607, Pitch_bend_c, 3, 8017
5, 39610, Pitch_bend_c, 3, 7997
5, 39614, Pitch_bend_c, 3, 7969
5, 39617, Pitch_bend_c, 3, 7946
5, 39621, Pitch_bend_c, 3, 7915
5, 39624, Pitch_bend_c, 3, 7890
5, 39628, Pitch_bend_c, 3, 7855
5, 39631, Pitch_bend_c, 3, 7828
5, 39635, Pitch_bend_c, 3, 7790
5, 39638, Pitch_bend_c, 3, 7760
5, 39641, Pitch_bend_c, 3, 7730
5, 39645, Pitch_bend_c, 3, 7687
5, 39648, Pitch_bend_c, 3, 7654
5, 39652, Pitch_bend_c, 3, 7608
5, 39655, Pitch_bend_c, 3, 7572
5, 39659, Pitch_bend_c, 3, 7522
5, 39662, Pitch_bend_c, 3, 7484
5, 39666, Pitch_bend_c, 3, 7432
5, 39669, Pitch_bend_c, 3, 7391
5, 39672, Pitch_bend_c, 3, 7349
5, 39676, Pitch_bend_c, 3, 7292
5, 39679, Pitch_bend_c, 3, 7247
5, 39683, Pitch_bend_c, 3, 7187
5, 39686, Pitch_bend_c, 3, 7140
5, 39690, Pitch_bend_c, 3, 7076
5, 39693, Pitch_bend_c, 3, 7027
5, 39696, Pitch_bend_c, 3, 6977
5, 39700, Pitch_bend_c, 3, 6908
5, 39703, Pitch_bend_c, 3, 6855
5, 39707, Pitch_bend_c, 3, 6783
5, 39710, Pitch_bend_c, 3, 6728
5, 39714, Pitch_bend_c, 3, 6652
5, 39717, Pitch_bend_c, 3, 6595
5, 39721, Pitch_bend_c, 3, 6516
5, 39724, Pitch_bend_c, 3, 6456
5, 39727, Pitch_bend_c, 3, 6394
5, 39731, Pitch_bend_c, 3, 6311
5, 39734, Pitch_bend_c, 3, 6247
5, 39738, Pitch_bend_c, 3, 6161
5, 39741, Pitch_bend_c, 3, 6095
5, 39745, Pitch_bend_c, 3, 6005
5, 39748, Pitch_bend_c, 3, 5936
5, 39752, Pitch_bend_c, 3, 5843
5, 39755, Pitch_bend_c, 3, 5771
5, 39758, Pitch_bend_c, 3, 5699
5, 39762, Pitch_bend_c, 3, 5601
5, 39765, Pitch_bend_c, 3, 5526
5, 39769, Pitch_bend_c, 3, 5425
5, 39772, Pitch_bend_c, 3, 5348
5, 39776, Pitch_bend_c, 3, 5243
5, 39779, Pitch_bend_c, 3, 5164
5, 39782, Pitch_bend_c, 3, 5083
5, 39786, Pitch_bend_c, 3, 4974
5, 39789, Pitch_bend_c, 3, 4890
5, 39793, Pitch_bend_c, 3, 4778
5, 39796, Pitch_bend_c, 3, 4692
5, 39800, Pitch_bend_c, 3, 4576
5, 39803, Pitch_bend_c, 3, 4488
5, 39807, Pitch_bend_c, 3, 4369
5, 39810, Pitch_bend_c, 3, 4278
5, 39813, Pitch_bend_c, 3, 4187
5, 39817, Pitch_bend_c, 3, 4063
5, 39820, Pitch_bend_c, 3, 3968
5, 39824, Pitch_bend_c, 3, 3841
5, 39827, Pitch_bend_c, 3, 3744
5, 39831, Pitch_bend_c, 3, 3613
5, 39834, Pitch_bend_c, 3, 3514
5, 39838, Pitch_bend_c, 3, 3380
5, 39841, Pitch_bend_c, 3, 3278
5, 39843, Pitch_bend_c, 3, 3328
5, 40231, Note_off_c, 3, 57, 64
5, 40319, Pitch_bend_c, 3, 8192
5, 40320, Note_on_c, 3, 59, 127
5, 40525, Pitch_bend_c, 3, 8181
5, 40528, Pitch_bend_c, 3, 8176
5, 40532, Pitch_bend_c, 3, 8167
5, 40535, Pitch_bend_c, 3, 8160
5, 40539, Pitch_bend_c, 3, 8148
5, 40542, Pitch_bend_c, 3, 8138
5, 40545, Pitch_bend_c, 3, 8126
5, 40549, Pitch_bend_c, 3, 8110
5, 40552, Pitch_bend_c, 3, 8095
5, 40556, Pitch_bend_c, 3, 8075
5, 40559, Pitch_bend_c, 3, 8059
5, 40563, Pitch_bend_c, 3, 8036
5, 40566, Pitch_bend_c, 3, 8017
5, 40570, Pitch_bend_c, 3, 7990
5, 40573, Pitch_bend_c, 3, 7969
5, 40576, Pitch_bend_c, 3, 7946
5, 40580, Pitch_bend_c, 3, 7915
5, 40583, Pitch_bend_c, 3, 7890
5, 40587, Pitch_bend_c, 3, 7855
5, 40590, Pitch_bend_c, 3, 7828
5, 40594, Pitch_bend_c, 3, 7790
5, 40597, Pitch_bend_c, 3, 7760
5, 40600, Pitch_bend_c, 3, 7730
5, 40604, Pitch_bend_c, 3, 7687
5, 40607, Pitch_bend_c, 3, 7654
5, 40611, Pitch_bend_c, 3, 7608
5, 40614, Pitch_bend_c, 3, 7572
5, 40618, Pitch_bend_c, 3, 7522
5, 40621, Pitch_bend_c, 3, 7484
5, 40625, Pitch_bend_c, 3, 7432
5, 40628, Pitch_bend_c, 3, 7391
5, 40631, Pitch_bend_c, 3, 7349
5, 40635, Pitch_bend_c, 3, 7292
5, 40638, Pitch_bend_c, 3, 7247
5, 40642, Pitch_bend_c, 3, 7187
5, 40645, Pitch_bend_c, 3, 7140
5, 40649, Pitch_bend_c, 3, 7076
5, 40652, Pitch_bend_c, 3, 7027
5, 40656, Pitch_bend_c, 3, 6960
5, 40659, Pitch_bend_c, 3, 6908
5, 40662, Pitch_bend_c, 3, 6855
5, 40666, Pitch_bend_c, 3, 6783
5, 40669, Pitch_bend_c, 3, 6728
5, 40673, Pitch_bend_c, 3, 6652
5, 40676, Pitch_bend_c, 3, 6595
5, 40680, Pitch_bend_c, 3, 6516
5, 40683, Pitch_bend_c, 3, 6456
5, 40686, Pitch_bend_c, 3, 6394
5, 40690, Pitch_bend_c, 3, 6311
5, 40693, Pitch_bend_c, 3, 6247
5, 40697, Pitch_bend_c, 3, 6161
5, 40700, Pitch_bend_c, 3, 6095
5, 40704, Pitch_bend_c, 3, 6005
5, 40707, Pitch_bend_c, 3, 5936
5, 40711, Pitch_bend_c, 3, 5843
5, 40714, Pitch_bend_c, 3, 5771
5, 40717, Pitch_bend_c, 3, 5699
5, 40721, Pitch_bend_c, 3, 5601
5, 40724, Pitch_bend_c, 3, 5526
5, 40728, Pitch_bend_c, 3, 5425
5, 40731, Pitch_bend_c, 3, 5348
5, 40735, Pitch_bend_c, 3, 5243
5, 40738, Pitch_bend_c, 3, 5164
5, 40742, Pitch_bend_c, 3, 5056
5, 40745, Pitch_bend_c, 3, 4974
5, 40748, Pitch_bend_c, 3, 4890
5, 40752, Pitch_bend_c, 3, 4778
5, 40755, Pitch_bend_c, 3, 4692
5, 40759, Pitch_bend_c, 3, 4576
5, 40762, Pitch_bend_c, 3, 4488
5, 40766, Pitch_bend_c, 3, 4369
5, 40769, Pitch_bend_c, 3, 4278
5, 40772, Pitch_bend_c, 3, 4187
5, 40776, Pitch_bend_c, 3, 4063
5, 40779, Pitch_bend_c, 3, 3968
5, 40783, Pitch_bend_c, 3, 3841
5, 40786, Pitch_bend_c, 3, 3744
5, 40790, Pitch_bend_c, 3, 3613
5, 40793, Pitch_bend_c, 3, 3514
5, 40797, Pitch_bend_c, 3, 3380
5, 40800, Pitch_bend_c, 3, 3278
5, 40802, Pitch_bend_c, 3, 3328
5, 41112, Pitch_bend_c, 3, 3328
5, 41171, Pitch_bend_c, 3, 3328
5, 41252, Note_off_c, 3, 59, 64
5, 41432, Pitch_bend_c, 3, 8192
5, 41527, Pitch_bend_c, 3, 8192
5, 41680, Control_c, 3, 6, 12
5, 42144, Control_c, 3, 10, 64
5, 42240, Note_on_c, 3, 54, 126
5, 42240, Note_on_c, 3, 51, 126
5, 42240, Note_on_c, 3, 47, 126
5, 42710, Note_off_c, 3, 54, 64
5, 42710, Note_off_c, 3, 51, 64
5, 42710, Note_off_c, 3, 47, 64
5, 42720, Note_on_c, 3, 52, 126
5, 42720, Note_on_c, 3, 49, 126
5, 42720, Note_on_c, 3, 45, 126
5, 43190, Note_off_c, 3, 52, 64
5, 43190, Note_off_c, 3, 49, 64
5, 43190, Note_off_c, 3, 45, 64
5, 43200, Note_on_c, 3, 50, 126
5, 43200, Note_on_c, 3, 47, 126
5, 43200, Note_on_c, 3, 43, 126
5, 43670, Note_off_c, 3, 50, 64
5, 43670, Note_off_c, 3, 47, 64
5, 43670, Note_off_c, 3, 43, 64
5, 43680, Note_on_c, 3, 48, 126
5, 43680, Note_on_c, 3, 45, 126
5, 43680, Note_on_c, 3, 41, 126
5, 44150, Note_off_c, 3, 48, 64
5, 44150, Note_off_c, 3, 45, 64
5, 44150, Note_off_c, 3, 41, 64
5, 44160, Note_on_c, 3, 47, 126
5, 44160, Note_on_c, 3, 44, 126
5, 44160, Note_on_c, 3, 40, 126
5, 44184, Control_c, 3, 10, 64
5, 44198, Control_c, 3, 10, 64
5, 44213, Control_c, 3, 10, 65
5, 44228, Control_c, 3, 10, 66
5, 44242, Control_c, 3, 10, 67
5, 44257, Control_c, 3, 10, 68
5, 44272, Control_c, 3, 10, 69
5, 44286, Control_c, 3, 10, 70
5, 44301, Control_c, 3, 10, 71
5, 44316, Control_c, 3, 10, 72
5, 44330, Control_c, 3, 10, 73
5, 44345, Control_c, 3, 10, 74
5, 44352, Pitch_bend_c, 3, 8192
5, 44356, Pitch_bend_c, 3, 8218
5, 44359, Pitch_bend_c, 3, 8237
5, 44360, Control_c, 3, 10, 75
5, 44362, Pitch_bend_c, 3, 8257
5, 44366, Pitch_bend_c, 3, 8283
5, 44369, Pitch_bend_c, 3, 8303
5, 44373, Pitch_bend_c, 3, 8329
5, 44374, Control_c, 3, 10, 76
5, 44376, Pitch_bend_c, 3, 8348
5, 44380, Pitch_bend_c, 3, 8374
5, 44383, Pitch_bend_c, 3, 8394
5, 44387, Pitch_bend_c, 3, 8420
5, 44389, Control_c, 3, 10, 77
5, 44390, Pitch_bend_c, 3, 8440
5, 44393, Pitch_bend_c, 3, 8459
5, 44397, Pitch_bend_c, 3, 8486
5, 44400, Pitch_bend_c, 3, 8505
5, 44404, Pitch_bend_c, 3, 8531
5, 44404, Control_c, 3, 10, 78
5, 44407, Pitch_bend_c, 3, 8551
5, 44411, Pitch_bend_c, 3, 8577
5, 44414, Pitch_bend_c, 3, 8597
5, 44418, Pitch_bend_c, 3, 8623
5, 44418, Control_c, 3, 10, 79
5, 44421, Pitch_bend_c, 3, 8642
5, 44424, Pitch_bend_c, 3, 8662
5, 44428, Pitch_bend_c, 3, 8688
5, 44431, Pitch_bend_c, 3, 8708
5, 44433, Control_c, 3, 10, 80
5, 44435, Pitch_bend_c, 3, 8734
5, 44438, Pitch_bend_c, 3, 8754
5, 44442, Pitch_bend_c, 3, 8780
5, 44445, Pitch_bend_c, 3, 8799
5, 44448, Control_c, 3, 10, 81
5, 44449, Pitch_bend_c, 3, 8825
5, 44452, Pitch_bend_c, 3, 8845
5, 44455, Pitch_bend_c, 3, 8865
5, 44459, Pitch_bend_c, 3, 8891
5, 44462, Pitch_bend_c, 3, 8910
5, 44462, Control_c, 3, 10, 82
5, 44466, Pitch_bend_c, 3, 8937
5, 44469, Pitch_bend_c, 3, 8956
5, 44473, Pitch_bend_c, 3, 8982
5, 44476, Pitch_bend_c, 3, 9002
5, 44477, Control_c, 3, 10, 83
5, 44479, Pitch_bend_c, 3, 9021
5, 44483, Pitch_bend_c, 3, 9048
5, 44486, Pitch_bend_c, 3, 9067
5, 44490, Pitch_bend_c, 3, 9093
5, 44492, Control_c, 3, 10, 84
5, 44493, Pitch_bend_c, 3, 9113
5, 44497, Pitch_bend_c, 3, 9139
5, 44500, Pitch_bend_c, 3, 9159
5, 44504, Pitch_bend_c, 3, 9185
5, 44506, Control_c, 3, 10, 85
5, 44507, Pitch_bend_c, 3, 9204
5, 44510, Pitch_bend_c, 3, 9224
5, 44514, Pitch_bend_c, 3, 9250
5, 44517, Pitch_bend_c, 3, 9270
5, 44521, Pitch_bend_c, 3, 9296
5, 44521, Control_c, 3, 10, 86
5, 44524, Pitch_bend_c, 3, 9316
5, 44528, Pitch_bend_c, 3, 9342
5, 44531, Pitch_bend_c, 3, 9361
5, 44535, Pitch_bend_c, 3, 9387
5, 44536, Control_c, 3, 10, 87
5, 44538, Pitch_bend_c, 3, 9407
5, 44541, Pitch_bend_c, 3, 9427
5, 44545, Pitch_bend_c, 3, 9453
5, 44548, Pitch_bend_c, 3, 9472
5, 44550, Control_c, 3, 10, 88
5, 44552, Pitch_bend_c, 3, 9499
5, 44555, Pitch_bend_c, 3, 9518
5, 44559, Pitch_bend_c, 3, 9544
5, 44562, Pitch_bend_c, 3, 9564
5, 44565, Control_c, 3, 10, 89
5, 44566, Pitch_bend_c, 3, 9590
5, 44569, Pitch_bend_c, 3, 9610
5, 44572, Pitch_bend_c, 3, 9629
5, 44576, Pitch_bend_c, 3, 9655
5, 44579, Pitch_bend_c, 3, 9675
5, 44580, Control_c, 3, 10, 90
5, 44583, Pitch_bend_c, 3, 9701
5, 44586, Pitch_bend_c, 3, 9721
5, 44590, Pitch_bend_c, 3, 9747
5, 44593, Pitch_bend_c, 3, 9766
5, 44594, Control_c, 3, 10, 91
5, 44596, Pitch_bend_c, 3, 9786
5, 44600, Pitch_bend_c, 3, 9812
5, 44603, Pitch_bend_c, 3, 9832
5, 44607, Pitch_bend_c, 3, 9858
5, 44609, Control_c, 3, 10, 92
5, 44610, Pitch_bend_c, 3, 9878
5, 44614, Pitch_bend_c, 3, 9904
5, 44617, Pitch_bend_c, 3, 9923
5, 44621, Pitch_bend_c, 3, 9949
5, 44624, Pitch_bend_c, 3, 9969
5, 44624, Control_c, 3, 10, 93
5, 44627, Pitch_bend_c, 3, 9989
5, 44631, Pitch_bend_c, 3, 10015
5, 44634, Pitch_bend_c, 3, 10034
5, 44638, Pitch_bend_c, 3, 10061
5, 44638, Control_c, 3, 10, 94
5, 44641, Pitch_bend_c, 3, 10080
5, 44645, Pitch_bend_c, 3, 10106
5, 44648, Pitch_bend_c, 3, 10126
5, 44652, Pitch_bend_c, 3, 10152
5, 44653, Control_c, 3, 10, 95
5, 44655, Pitch_bend_c, 3, 10172
5, 44658, Pitch_bend_c, 3, 10191
5, 44662, Pitch_bend_c, 3, 10217
5, 44665, Pitch_bend_c, 3, 10237
5, 44668, Control_c, 3, 10, 96
5, 44669, Pitch_bend_c, 3, 10263
5, 44672, Pitch_bend_c, 3, 10283
5, 44676, Pitch_bend_c, 3, 10309
5, 44679, Pitch_bend_c, 3, 10328
5, 44682, Control_c, 3, 10, 97
5, 44683, Pitch_bend_c, 3, 10355
5, 44686, Pitch_bend_c, 3, 10374
5, 44689, Pitch_bend_c, 3, 10394
5, 44693, Pitch_bend_c, 3, 10420
5, 44696, Pitch_bend_c, 3, 10440
5, 44697, Control_c, 3, 10, 98
5, 44700, Pitch_bend_c, 3, 10466
5, 44703, Pitch_bend_c, 3, 10485
5, 44707, Pitch_bend_c, 3, 10511
5, 44710, Pitch_bend_c, 3, 10531
5, 44712, Control_c, 3, 10, 99
5, 44714, Pitch_bend_c, 3, 10557
5, 44717, Pitch_bend_c, 3, 10577
5, 44720, Pitch_bend_c, 3, 10596
5, 44724, Pitch_bend_c, 3, 10623
5, 44726, Control_c, 3, 10, 100
5, 44727, Pitch_bend_c, 3, 10642
5, 44731, Pitch_bend_c, 3, 10668
5, 44734, Pitch_bend_c, 3, 10688
5, 44738, Pitch_bend_c, 3, 10714
5, 44741, Pitch_bend_c, 3, 10734
5, 44741, Control_c, 3, 10, 101
5, 44744, Pitch_bend_c, 3, 10753
5, 44748, Pitch_bend_c, 3, 10779
5, 44751, Pitch_bend_c, 3, 10799
5, 44755, Pitch_bend_c, 3, 10825
5, 44756, Control_c, 3, 10, 102
5, 44758, Pitch_bend_c, 3, 10845
5, 44762, Pitch_bend_c, 3, 10871
5, 44765, Pitch_bend_c, 3, 10891
5, 44769, Pitch_bend_c, 3, 10917
5, 44770, Control_c, 3, 10, 103
5, 44772, Pitch_bend_c, 3, 10936
5, 44775, Pitch_bend_c, 3, 10956
5, 44779, Pitch_bend_c, 3, 10982
5, 44782, Pitch_bend_c, 3, 11002
5, 44785, Control_c, 3, 10, 104
5, 44786, Pitch_bend_c, 3, 11028
5, 44789, Pitch_bend_c, 3, 11047
5, 44793, Pitch_bend_c, 3, 11074
5, 44796, Pitch_bend_c, 3, 11093
5, 44800, Pitch_bend_c, 3, 11119
5, 44800, Control_c, 3, 10, 105
5, 44803, Pitch_bend_c, 3, 11139
5, 44806, Pitch_bend_c, 3, 11158
5, 44810, Pitch_bend_c, 3, 11185
5, 44813, Pitch_bend_c, 3, 11204
5, 44814, Control_c, 3, 10, 106
5, 44817, Pitch_bend_c, 3, 11230
5, 44820, Pitch_bend_c, 3, 11250
5, 44824, Pitch_bend_c, 3, 11276
5, 44827, Pitch_bend_c, 3, 11296
5, 44829, Control_c, 3, 10, 107
5, 44831, Pitch_bend_c, 3, 11322
5, 44834, Pitch_bend_c, 3, 11341
5, 44837, Pitch_bend_c, 3, 11361
5, 44841, Pitch_bend_c, 3, 11387
5, 44844, Pitch_bend_c, 3, 11407
5, 44844, Control_c, 3, 10, 108
5, 44848, Pitch_bend_c, 3, 11433
5, 44851, Pitch_bend_c, 3, 11453
5, 44855, Pitch_bend_c, 3, 11479
5, 44858, Pitch_bend_c, 3, 11498
5, 44858, Control_c, 3, 10, 109
5, 44861, Pitch_bend_c, 3, 11518
5, 44865, Pitch_bend_c, 3, 11544
5, 44868, Pitch_bend_c, 3, 11564
5, 44872, Pitch_bend_c, 3, 11590
5, 44873, Control_c, 3, 10, 110
5, 44875, Pitch_bend_c, 3, 11609
5, 44879, Pitch_bend_c, 3, 11636
5, 44880, Control_c, 3, 7, 127
5, 44882, Pitch_bend_c, 3, 11655
5, 44886, Pitch_bend_c, 3, 11681
5, 44888, Control_c, 3, 10, 111
5, 44889, Pitch_bend_c, 3, 11701
5, 44891, Control_c, 3, 7, 127
5, 44892, Pitch_bend_c, 3, 11720
5, 44896, Pitch_bend_c, 3, 11747
5, 44899, Pitch_bend_c, 3, 11766
5, 44902, Control_c, 3, 10, 112
5, 44902, Control_c, 3, 7, 126
5, 44903, Pitch_bend_c, 3, 11792
5, 44906, Pitch_bend_c, 3, 11812
5, 44910, Pitch_bend_c, 3, 11838
5, 44913, Pitch_bend_c, 3, 11858
5, 44913, Control_c, 3, 7, 125
5, 44917, Pitch_bend_c, 3, 11884
5, 44917, Control_c, 3, 10, 113
5, 44920, Pitch_bend_c, 3, 11903
5, 44923, Pitch_bend_c, 3, 11923
5, 44924, Control_c, 3, 7, 124
5, 44927, Pitch_bend_c, 3, 11949
5, 44930, Pitch_bend_c, 3, 11969
5, 44932, Control_c, 3, 10, 114
5, 44934, Pitch_bend_c, 3, 11995
5, 44935, Control_c, 3, 7, 123
5, 44937, Pitch_bend_c, 3, 12015
5, 44941, Pitch_bend_c, 3, 12041
5, 44944, Pitch_bend_c, 3, 12060
5, 44946, Control_c, 3, 10, 115
5, 44946, Control_c, 3, 7, 122
5, 44948, Pitch_bend_c, 3, 12086
5, 44951, Pitch_bend_c, 3, 12106
5, 44954, Pitch_bend_c, 3, 12126
5, 44957, Control_c, 3, 7, 121
5, 44958, Pitch_bend_c, 3, 12152
5, 44961, Pitch_bend_c, 3, 12171
5, 44961, Control_c, 3, 10, 116
5, 44965, Pitch_bend_c, 3, 12198
5, 44968, Pitch_bend_c, 3, 12217
5, 44968, Control_c, 3, 7, 120
5, 44972, Pitch_bend_c, 3, 12243
5, 44975, Pitch_bend_c, 3, 12263
5, 44976, Control_c, 3, 10, 117
5, 44978, Pitch_bend_c, 3, 12283
5, 44979, Control_c, 3, 7, 119
5, 44982, Pitch_bend_c, 3, 12309
5, 44985, Pitch_bend_c, 3, 12328
5, 44989, Pitch_bend_c, 3, 12354
5, 44990, Control_c, 3, 10, 118
5, 44990, Control_c, 3, 7, 118
5, 44992, Pitch_bend_c, 3, 12374
5, 44996, Pitch_bend_c, 3, 12400
5, 44999, Pitch_bend_c, 3, 12420
5, 45001, Control_c, 3, 7, 117
5, 45003, Pitch_bend_c, 3, 12446
5, 45005, Control_c, 3, 10, 119
5, 45006, Pitch_bend_c, 3, 12465
5, 45009, Pitch_bend_c, 3, 12485
5, 45012, Control_c, 3, 7, 116
5, 45013, Pitch_bend_c, 3, 12511
5, 45016, Pitch_bend_c, 3, 12531
5, 45020, Pitch_bend_c, 3, 12557
5, 45020, Control_c, 3, 10, 120
5, 45023, Pitch_bend_c, 3, 12577
5, 45023, Control_c, 3, 7, 115
5, 45027, Pitch_bend_c, 3, 12603
5, 45030, Pitch_bend_c, 3, 12622
5, 45034, Pitch_bend_c, 3, 12648
5, 45034, Control_c, 3, 10, 121
5, 45034, Control_c, 3, 7, 114
5, 45037, Pitch_bend_c, 3, 12668
5, 45040, Pitch_bend_c, 3, 12688
5, 45044, Pitch_bend_c, 3, 12714
5, 45045, Control_c, 3, 7, 113
5, 45047, Pitch_bend_c, 3, 12733
5, 45049, Control_c, 3, 10, 122
5, 45051, Pitch_bend_c, 3, 12760
5, 45054, Pitch_bend_c, 3, 12779
5, 45056, Control_c, 3, 7, 112
5, 45058, Pitch_bend_c, 3, 12805
5, 45061, Pitch_bend_c, 3, 12825
5, 45064, Control_c, 3, 10, 123
5, 45065, Pitch_bend_c, 3, 12851
5, 45067, Control_c, 3, 7, 111
5, 45068, Pitch_bend_c, 3, 12871
5, 45071, Pitch_bend_c, 3, 12890
5, 45075, Pitch_bend_c, 3, 12916
5, 45078, Pitch_bend_c, 3, 12936
5, 45078, Control_c, 3, 10, 124
5, 45078, Control_c, 3, 7, 110
5, 45082, Pitch_bend_c, 3, 12962
5, 45085, Pitch_bend_c, 3, 12982
5, 45089, Pitch_bend_c, 3, 13008
5, 45089, Control_c, 3, 7, 109
5, 45092, Pitch_bend_c, 3, 13028
5, 45093, Control_c, 3, 10, 125
5, 45095, Pitch_bend_c, 3, 13056
5, 45100, Control_c, 3, 7, 108
5, 45107, Control_c, 3, 10, 127
5, 45111, Control_c, 3, 7, 107
5, 45112, Pitch_bend_c, 3, 13056
5, 45122, Control_c, 3, 7, 106
5, 45133, Control_c, 3, 7, 105
5, 45143, Control_c, 3, 7, 104
5, 45590, Note_off_c, 3, 47, 64
5, 45590, Note_off_c, 3, 44, 64
5, 45590, Note_off_c, 3, 40, 64
5, 45600, Pitch_bend_c, 3, 8192
5, 45600, Note_on_c, 3, 52, 126
5, 45600, Note_on_c, 3, 49, 126
5, 45600, Note_on_c, 3, 45, 126
5, 46070, Note_off_c, 3, 52, 64
5, 46070, Note_off_c, 3, 49, 64
5, 46070, Note_off_c, 3, 45, 64
5, 46080, Note_on_c, 3, 50, 126
5, 46080, Note_on_c, 3, 47, 126
5, 46080, Note_on_c, 3, 43, 126
5, 46550, Note_off_c, 3, 50, 64
5, 46550, Note_off_c, 3, 47, 64
5, 46550, Note_off_c, 3, 43, 64
5, 46560, Note_on_c, 3, 48, 126
5, 46560, Note_on_c, 3, 45, 126
5, 46560, Note_on_c, 3, 41, 126
5, 47030, Note_off_c, 3, 48, 64
5, 47030, Note_off_c, 3, 45, 64
5, 47030, Note_off_c, 3, 41, 64
5, 47040, Note_on_c, 3, 47, 126
5, 47040, Note_on_c, 3, 44, 126
5, 47040, Note_on_c, 3, 40, 126
5, 47510, Note_off_c, 3, 47, 64
5, 47510, Note_off_c, 3, 44, 64
5, 47510, Note_off_c, 3, 40, 64
5, 47520, Note_on_c, 3, 48, 126
5, 47520, Note_on_c, 3, 45, 126
5, 47520, Note_on_c, 3, 41, 126
5, 47990, Note_off_c, 3, 48, 64
5, 47990, Note_off_c, 3, 45, 64
5, 47990, Note_off_c, 3, 41, 64
5, 48000, Note_on_c, 3, 35, 126
5, 48000, Note_on_c, 3, 47, 126
5, 48074, Note_off_c, 3, 35, 64
5, 48074, Note_off_c, 3, 47, 64
5, 48120, Note_on_c, 3, 35, 102
5, 48120, Note_on_c, 3, 47, 102
5, 48194, Note_off_c, 3, 35, 64
5, 48194, Note_off_c, 3, 47, 64
5, 48240, Note_on_c, 3, 35, 126
5, 48240, Note_on_c, 3, 47, 126
5, 48314, Note_off_c, 3, 35, 64
5, 48314, Note_off_c, 3, 47, 64
5, 48360, Note_on_c, 3, 35, 102
5, 48360, Note_on_c, 3, 47, 102
5, 48434, Note_off_c, 3, 35, 64
5, 48434, Note_off_c, 3, 47, 64
5, 48480, Note_on_c, 3, 35, 126
5, 48480, Note_on_c, 3, 47, 126
5, 48554, Note_off_c, 3, 35, 64
5, 48554, Note_off_c, 3, 47, 64
5, 48600, Note_on_c, 3, 35, 102
5, 48600, Note_on_c, 3, 47, 102
5, 48674, Note_off_c, 3, 35, 64
5, 48674, Note_off_c, 3, 47, 64
5, 48720, Note_on_c, 3, 35, 126
5, 48720, Note_on_c, 3, 47, 126
5, 48794, Note_off_c, 3, 35, 64
5, 48794, Note_off_c, 3, 47, 64
5, 48840, Note_on_c, 3, 35, 102
5, 48840, Note_on_c, 3, 47, 102
5, 48914, Note_off_c, 3, 35, 64
5, 48914, Note_off_c, 3, 47, 64
5, 48960, Note_on_c, 3, 35, 126
5, 48960, Note_on_c, 3, 47, 126
5, 49034, Note_off_c, 3, 35, 64
5, 49034, Note_off_c, 3, 47, 64
5, 49080, Note_on_c, 3, 35, 102
5, 49080, Note_on_c, 3, 47, 102
5, 49154, Note_off_c, 3, 35, 64
5, 49154, Note_off_c, 3, 47, 64
5, 49200, Note_on_c, 3, 35, 126
5, 49200, Note_on_c, 3, 47, 126
5, 49274, Note_off_c, 3, 35, 64
5, 49274, Note_off_c, 3, 47, 64
5, 49320, Note_on_c, 3, 35, 102
5, 49320, Note_on_c, 3, 47, 102
5, 49394, Note_off_c, 3, 35, 64
5, 49394, Note_off_c, 3, 47, 64
5, 49440, Note_on_c, 3, 35, 126
5, 49440, Note_on_c, 3, 47, 126
5, 49514, Note_off_c, 3, 35, 64
5, 49514, Note_off_c, 3, 47, 64
5, 49560, Note_on_c, 3, 35, 102
5, 49560, Note_on_c, 3, 47, 102
5, 49634, Note_off_c, 3, 35, 64
5, 49634, Note_off_c, 3, 47, 64
5, 49680, Note_on_c, 3, 35, 126
5, 49680, Note_on_c, 3, 47, 126
5, 49754, Note_off_c, 3, 35, 64
5, 49754, Note_off_c, 3, 47, 64
5, 49800, Note_on_c, 3, 35, 102
5, 49800, Note_on_c, 3, 47, 102
5, 49874, Note_off_c, 3, 35, 64
5, 49874, Note_off_c, 3, 47, 64
5, 49920, Note_on_c, 3, 36, 126
5, 49920, Note_on_c, 3, 48, 126
5, 49920, Note_on_c, 3, 52, 126
5, 49994, Note_off_c, 3, 36, 64
5, 49994, Note_off_c, 3, 48, 64
5, 49994, Note_off_c, 3, 52, 64
5, 50040, Note_on_c, 3, 36, 102
5, 50040, Note_on_c, 3, 48, 102
5, 50040, Note_on_c, 3, 52, 102
5, 50114, Note_off_c, 3, 36, 64
5, 50114, Note_off_c, 3, 48, 64
5, 50114, Note_off_c, 3, 52, 64
5, 50160, Note_on_c, 3, 36, 126
5, 50160, Note_on_c, 3, 48, 126
5, 50160, Note_on_c, 3, 52, 126
5, 50234, Note_off_c, 3, 36, 64
5, 50234, Note_off_c, 3, 48, 64
5, 50234, Note_off_c, 3, 52, 64
5, 50280, Note_on_c, 3, 36, 102
5, 50280, Note_on_c, 3, 48, 102
5, 50280, Note_on_c, 3, 52, 102
5, 50354, Note_off_c, 3, 36, 64
5, 50354, Note_off_c, 3, 48, 64
5, 50354, Note_off_c, 3, 52, 64
5, 50400, Note_on_c, 3, 36, 126
5, 50400, Note_on_c, 3, 48, 126
5, 50400, Note_on_c, 3, 52, 126
5, 50474, Note_off_c, 3, 36, 64
5, 50474, Note_off_c, 3, 48, 64
5, 50474, Note_off_c, 3, 52, 64
5, 50520, Note_on_c, 3, 36, 102
5, 50520, Note_on_c, 3, 48, 102
5, 50520, Note_on_c, 3, 52, 102
5, 50594, Note_off_c, 3, 36, 64
5, 50594, Note_off_c, 3, 48, 64
5, 50594, Note_off_c, 3, 52, 64
5, 50640, Note_on_c, 3, 36, 126
5, 50640, Note_on_c, 3, 48, 126
5, 50640, Note_on_c, 3, 52, 126
5, 50714, Note_off_c, 3, 36, 64
5, 50714, Note_off_c, 3, 48, 64
5, 50714, Note_off_c, 3, 52, 64
5, 50760, Note_on_c, 3, 36, 102
5, 50760, Note_on_c, 3, 48, 102
5, 50760, Note_on_c, 3, 52, 102
5, 50834, Note_off_c, 3, 36, 64
5, 50834, Note_off_c, 3, 48, 64
5, 50834, Note_off_c, 3, 52, 64
5, 50880, Note_on_c, 3, 38, 126
5, 50880, Note_on_c, 3, 50, 126
5, 50880, Note_on_c, 3, 54, 126
5, 50954, Note_off_c, 3, 38, 64
5, 50954, Note_off_c, 3, 50, 64
5, 50954, Note_off_c, 3, 54, 64
5, 51000, Note_on_c, 3, 38, 102
5, 51000, Note_on_c, 3, 50, 102
5, 51000, Note_on_c, 3, 54, 102
5, 51074, Note_off_c, 3, 38, 64
5, 51074, Note_off_c, 3, 50, 64
5, 51074, Note_off_c, 3, 54, 64
5, 51120, Note_on_c, 3, 38, 126
5, 51120, Note_on_c, 3, 50, 126
5, 51120, Note_on_c, 3, 54, 126
5, 51194, Note_off_c, 3, 38, 64
5, 51194, Note_off_c, 3, 50, 64
5, 51194, Note_off_c, 3, 54, 64
5, 51240, Note_on_c, 3, 38, 102
5, 51240, Note_on_c, 3, 50, 102
5, 51240, Note_on_c, 3, 54, 102
5, 51314, Note_off_c, 3, 38, 64
5, 51314, Note_off_c, 3, 50, 64
5, 51314, Note_off_c, 3, 54, 64
5, 51360, Note_on_c, 3, 38, 126
5, 51360, Note_on_c, 3, 50, 126
5, 51360, Note_on_c, 3, 54, 126
5, 51434, Note_off_c, 3, 38, 64
5, 51434, Note_off_c, 3, 50, 64
5, 51434, Note_off_c, 3, 54, 64
5, 51480, Note_on_c, 3, 38, 102
5, 51480, Note_on_c, 3, 50, 102
5, 51480, Note_on_c, 3, 54, 102
5, 51554, Note_off_c, 3, 38, 64
5, 51554, Note_off_c, 3, 50, 64
5, 51554, Note_off_c, 3, 54, 64
5, 51600, Note_on_c, 3, 38, 126
5, 51600, Note_on_c, 3, 50, 126
5, 51600, Note_on_c, 3, 54, 126
5, 51674, Note_off_c, 3, 38, 64
5, 51674, Note_off_c, 3, 50, 64
5, 51674, Note_off_c, 3, 54, 64
5, 51720, Note_on_c, 3, 38, 102
5, 51720, Note_on_c, 3, 50, 102
5, 51720, Note_on_c, 3, 54, 102
5, 51794, Note_off_c, 3, 38, 64
5, 51794, Note_off_c, 3, 50, 64
5, 51794, Note_off_c, 3, 54, 64
5, 51840, Note_on_c, 3, 40, 126
5, 51840, Note_on_c, 3, 52, 126
5, 51840, Note_on_c, 3, 56, 126
5, 51914, Note_off_c, 3, 40, 64
5, 51914, Note_off_c, 3, 52, 64
5, 51914, Note_off_c, 3, 56, 64
5, 51960, Note_on_c, 3, 40, 102
5, 51960, Note_on_c, 3, 52, 102
5, 51960, Note_on_c, 3, 56, 102
5, 52034, Note_off_c, 3, 40, 64
5, 52034, Note_off_c, 3, 52, 64
5, 52034, Note_off_c, 3, 56, 64
5, 52080, Note_on_c, 3, 40, 126
5, 52080, Note_on_c, 3, 52, 126
5, 52080, Note_on_c, 3, 56, 126
5, 52154, Note_off_c, 3, 40, 64
5, 52154, Note_off_c, 3, 52, 64
5, 52154, Note_off_c, 3, 56, 64
5, 52200, Note_on_c, 3, 40, 102
5, 52200, Note_on_c, 3, 52, 102
5, 52200, Note_on_c, 3, 56, 102
5, 52274, Note_off_c, 3, 40, 64
5, 52274, Note_off_c, 3, 52, 64
5, 52274, Note_off_c, 3, 56, 64
5, 52320, Note_on_c, 3, 40, 126
5, 52320, Note_on_c, 3, 52, 126
5, 52320, Note_on_c, 3, 56, 126
5, 52394, Note_off_c, 3, 40, 64
5, 52394, Note_off_c, 3, 52, 64
5, 52394, Note_off_c, 3, 56, 64
5, 52440, Note_on_c, 3, 40, 102
5, 52440, Note_on_c, 3, 52, 102
5, 52440, Note_on_c, 3, 56, 102
5, 52514, Note_off_c, 3, 40, 64
5, 52514, Note_off_c, 3, 52, 64
5, 52514, Note_off_c, 3, 56, 64
5, 52560, Note_on_c, 3, 40, 126
5, 52560, Note_on_c, 3, 52, 126
5, 52560, Note_on_c, 3, 56, 126
5, 52634, Note_off_c, 3, 40, 64
5, 52634, Note_off_c, 3, 52, 64
5, 52634, Note_off_c, 3, 56, 64
5, 52680, Note_on_c, 3, 40, 102
5, 52680, Note_on_c, 3, 52, 102
5, 52680, Note_on_c, 3, 56, 102
5, 52754, Note_off_c, 3, 40, 64
5, 52754, Note_off_c, 3, 52, 64
5, 52754, Note_off_c, 3, 56, 64
5, 52800, Note_on_c, 3, 38, 126
5, 52800, Note_on_c, 3, 50, 126
5, 52800, Note_on_c, 3, 54, 126
5, 52800, Note_on_c, 3, 57, 126
5, 52874, Note_off_c, 3, 38, 64
5, 52874, Note_off_c, 3, 50, 64
5, 52874, Note_off_c, 3, 54, 64
5, 52874, Note_off_c, 3, 57, 64
5, 52920, Note_on_c, 3, 38, 102
5, 52920, Note_on_c, 3, 50, 102
5, 52920, Note_on_c, 3, 54, 102
5, 52920, Note_on_c, 3, 57, 102
5, 52994, Note_off_c, 3, 38, 64
5, 52994, Note_off_c, 3, 50, 64
5, 52994, Note_off_c, 3, 54, 64
5, 52994, Note_off_c, 3, 57, 64
5, 53040, Note_on_c, 3, 38, 126
5, 53040, Note_on_c, 3, 50, 126
5, 53040, Note_on_c, 3, 54, 126
5, 53040, Note_on_c, 3, 57, 126
5, 53114, Note_off_c, 3, 38, 64
5, 53114, Note_off_c, 3, 50, 64
5, 53114, Note_off_c, 3, 54, 64
5, 53114, Note_off_c, 3, 57, 64
5, 53160, Note_on_c, 3, 38, 102
5, 53160, Note_on_c, 3, 50, 102
5, 53160, Note_on_c, 3, 54, 102
5, 53160, Note_on_c, 3, 57, 102
5, 53234, Note_off_c, 3, 38, 64
5, 53234, Note_off_c, 3, 50, 64
5, 53234, Note_off_c, 3, 54, 64
5, 53234, Note_off_c, 3, 57, 64
5, 53280, Note_on_c, 3, 38, 126
5, 53280, Note_on_c, 3, 50, 126
5, 53280, Note_on_c, 3, 54, 126
5, 53280, Note_on_c, 3, 57, 126
5, 53354, Note_off_c, 3, 38, 64
5, 53354, Note_off_c, 3, 50, 64
5, 53354, Note_off_c, 3, 54, 64
5, 53354, Note_off_c, 3, 57, 64
5, 53400, Note_on_c, 3, 38, 102
5, 53400, Note_on_c, 3, 50, 102
5, 53400, Note_on_c, 3, 54, 102
5, 53400, Note_on_c, 3, 57, 102
5, 53474, Note_off_c, 3, 38, 64
5, 53474, Note_off_c, 3, 50, 64
5, 53474, Note_off_c, 3, 54, 64
5, 53474, Note_off_c, 3, 57, 64
5, 53520, Note_on_c, 3, 38, 126
5, 53520, Note_on_c, 3, 50, 126
5, 53520, Note_on_c, 3, 54, 126
5, 53520, Note_on_c, 3, 57, 126
5, 53594, Note_off_c, 3, 38, 64
5, 53594, Note_off_c, 3, 50, 64
5, 53594, Note_off_c, 3, 54, 64
5, 53594, Note_off_c, 3, 57, 64
5, 53640, Note_on_c, 3, 38, 102
5, 53640, Note_on_c, 3, 50, 102
5, 53640, Note_on_c, 3, 54, 102
5, 53640, Note_on_c, 3, 57, 102
5, 53714, Note_off_c, 3, 38, 64
5, 53714, Note_off_c, 3, 50, 64
5, 53714, Note_off_c, 3, 54, 64
5, 53714, Note_off_c, 3, 57, 64
5, 53760, Control_c, 3, 7, 112
5, 53760, Note_on_c, 3, 45, 125
5, 53866, Note_off_c, 3, 45, 64
5, 54000, Note_on_c, 3, 45, 127
5, 54106, Note_off_c, 3, 45, 64
5, 54240, Note_on_c, 3, 43, 124
5, 54346, Note_off_c, 3, 43, 64
5, 54480, Note_on_c, 3, 43, 127
5, 54576, Control_c, 3, 5, 58
5, 54672, Note_on_c, 3, 48, 125
5, 54698, Note_off_c, 3, 43, 64
5, 54743, Control_c, 3, 5, 33
5, 54752, Control_c, 3, 5, 0
5, 54846, Note_off_c, 3, 48, 64
5, 54960, Note_on_c, 3, 48, 127
5, 55066, Note_off_c, 3, 48, 64
5, 55200, Note_on_c, 3, 50, 124
5, 55306, Note_off_c, 3, 50, 64
5, 55440, Note_on_c, 3, 52, 127
5, 55516, Control_c, 3, 5, 64
5, 55591, Note_on_c, 3, 45, 127
5, 55594, Note_off_c, 3, 52, 64
5, 55731, Control_c, 3, 5, 31
5, 55736, Control_c, 3, 5, 0
5, 55753, Note_off_c, 3, 45, 64
5, 55920, Note_on_c, 3, 45, 125
5, 56026, Note_off_c, 3, 45, 64
5, 56160, Note_on_c, 3, 43, 127
5, 56266, Note_off_c, 3, 43, 64
5, 56400, Note_on_c, 3, 43, 125
5, 56506, Note_off_c, 3, 43, 64
5, 56640, Note_on_c, 3, 36, 125
5, 56746, Note_off_c, 3, 36, 64
5, 56880, Note_on_c, 3, 36, 127
5, 56986, Note_off_c, 3, 36, 64
5, 57120, Note_on_c, 3, 36, 125
5, 57226, Note_off_c, 3, 36, 64
5, 57360, Note_on_c, 3, 36, 127
5, 57466, Note_off_c, 3, 36, 64
5, 57600, Note_on_c, 3, 38, 125
5, 57706, Note_off_c, 3, 38, 64
5, 57792, Control_c, 3, 7, 124
5, 57840, Note_on_c, 3, 50, 127
5, 57863, Control_c, 3, 7, 124
5, 57885, Note_off_c, 3, 50, 64
5, 57900, Note_on_c, 3, 48, 127
5, 57949, Note_off_c, 3, 48, 64
5, 57960, Note_on_c, 3, 45, 127
5, 57994, Note_off_c, 3, 45, 64
5, 58080, Note_on_c, 3, 45, 127
5, 58446, Note_off_c, 3, 45, 64
5, 58560, Note_on_c, 3, 45, 125
5, 59392, Control_c, 3, 65, 0
5, 59434, Note_off_c, 3, 45, 64
5, 59520, Note_on_c, 3, 45, 110
5, 59520, Control_c, 3, 7, 102
5, 59628, Control_c, 3, 5, 80
5, 59760, Note_on_c, 3, 40, 110
5, 59761, Note_off_c, 3, 45, 64
5, 59879, Note_off_c, 3, 40, 64
5, 59880, Note_on_c, 3, 42, 110
5, 59919, Control_c, 3, 7, 102
5, 59999, Note_off_c, 3, 42, 64
5, 60000, Note_on_c, 3, 45, 110
5, 60048, Control_c, 3, 65, 64
5, 60119, Note_off_c, 3, 45, 64
5, 60120, Note_on_c, 3, 48, 110
5, 60264, Control_c, 3, 65, 68
5, 60360, Note_on_c, 3, 45, 110
5, 60361, Note_off_c, 3, 48, 64
5, 60543, Control_c, 3, 65, 68
5, 60544, Control_c, 3, 65, 0
5, 60719, Note_off_c, 3, 45, 64
5, 60720, Note_on_c, 3, 40, 110
5, 60839, Note_off_c, 3, 40, 64
5, 60840, Note_on_c, 3, 42, 110
5, 60959, Note_off_c, 3, 42, 64
5, 60960, Note_on_c, 3, 45, 110
5, 61048, Control_c, 3, 65, 64
5, 61079, Note_off_c, 3, 45, 64
5, 61080, Note_on_c, 3, 48, 110
5, 61264, Control_c, 3, 65, 68
5, 61320, Note_on_c, 3, 45, 110
5, 61321, Note_off_c, 3, 48, 64
5, 61551, Control_c, 3, 65, 68
5, 61560, Control_c, 3, 65, 0
5, 61679, Note_off_c, 3, 45, 64
5, 61680, Note_on_c, 3, 40, 110
5, 61799, Note_off_c, 3, 40, 64
5, 61800, Note_on_c, 3, 42, 110
5, 61919, Note_off_c, 3, 42, 64
5, 61920, Note_on_c, 3, 45, 110
5, 62000, Control_c, 3, 65, 64
5, 62039, Note_off_c, 3, 45, 64
5, 62040, Note_on_c, 3, 48, 110
5, 62160, Control_c, 3, 65, 68
5, 62280, Note_on_c, 3, 45, 110
5, 62281, Note_off_c, 3, 48, 64
5, 62423, Control_c, 3, 65, 68
5, 62424, Control_c, 3, 65, 0
5, 63351, Note_off_c, 3, 45, 64
5, 63360, Note_on_c, 3, 42, 127
5, 63360, Control_c, 3, 7, 90
5, 63406, Note_off_c, 3, 42, 64
5, 63420, Note_on_c, 3, 45, 127
5, 63458, Note_off_c, 3, 45, 64
5, 63480, Note_on_c, 3, 47, 127
5, 63514, Note_off_c, 3, 47, 64
5, 63540, Note_on_c, 3, 45, 127
5, 63551, Control_c, 3, 7, 90
5, 63572, Note_off_c, 3, 45, 64
5, 63600, Note_on_c, 3, 47, 127
5, 63686, Note_off_c, 3, 47, 64
5, 63720, Note_on_c, 3, 42, 127
5, 63766, Note_off_c, 3, 42, 64
5, 63780, Note_on_c, 3, 45, 127
5, 63818, Note_off_c, 3, 45, 64
5, 63840, Note_on_c, 3, 47, 127
5, 63874, Note_off_c, 3, 47, 64
5, 63900, Note_on_c, 3, 45, 127
5, 63932, Note_off_c, 3, 45, 64
5, 63960, Note_on_c, 3, 47, 127
5, 64046, Note_off_c, 3, 47, 64
5, 64080, Note_on_c, 3, 42, 127
5, 64126, Note_off_c, 3, 42, 64
5, 64140, Note_on_c, 3, 45, 127
5, 64178, Note_off_c, 3, 45, 64
5, 64200, Note_on_c, 3, 47, 127
5, 64234, Note_off_c, 3, 47, 64
5, 64260, Note_on_c, 3, 45, 127
5, 64292, Note_off_c, 3, 45, 64
5, 64320, Note_on_c, 3, 47, 127
5, 64354, Note_off_c, 3, 47, 64
5, 64380, Note_on_c, 3, 45, 127
5, 64412, Note_off_c, 3, 45, 64
5, 64440, Note_on_c, 3, 47, 127
5, 64474, Note_off_c, 3, 47, 64
5, 64500, Note_on_c, 3, 45, 127
5, 64532, Note_off_c, 3, 45, 64
5, 64560, Note_on_c, 3, 42, 127
5, 64978, Note_off_c, 3, 42, 64
5, 65004, Control_c, 3, 7, 114
5, 65039, Control_c, 3, 7, 114
5, 65040, Note_on_c, 3, 55, 127
5, 65487, Pitch_bend_c, 3, 8181
5, 65490, Pitch_bend_c, 3, 8176
5, 65494, Pitch_bend_c, 3, 8167
5, 65497, Pitch_bend_c, 3, 8160
5, 65500, Pitch_bend_c, 3, 8151
5, 65504, Pitch_bend_c, 3, 8138
5, 65507, Pitch_bend_c, 3, 8126
5, 65511, Pitch_bend_c, 3, 8110
5, 65514, Pitch_bend_c, 3, 8095
5, 65518, Pitch_bend_c, 3, 8075
5, 65521, Pitch_bend_c, 3, 8059
5, 65525, Pitch_bend_c, 3, 8036
5, 65528, Pitch_bend_c, 3, 8017
5, 65531, Pitch_bend_c, 3, 7997
5, 65535, Pitch_bend_c, 3, 7969
5, 65538, Pitch_bend_c, 3, 7946
5, 65542, Pitch_bend_c, 3, 7915
5, 65545, Pitch_bend_c, 3, 7890
5, 65549, Pitch_bend_c, 3, 7855
5, 65552, Pitch_bend_c, 3, 7828
5, 65556, Pitch_bend_c, 3, 7790
5, 65559, Pitch_bend_c, 3, 7760
5, 65562, Pitch_bend_c, 3, 7730
5, 65566, Pitch_bend_c, 3, 7687
5, 65569, Pitch_bend_c, 3, 7654
5, 65573, Pitch_bend_c, 3, 7608
5, 65576, Pitch_bend_c, 3, 7572
5, 65580, Pitch_bend_c, 3, 7522
5, 65583, Pitch_bend_c, 3, 7484
5, 65586, Pitch_bend_c, 3, 7445
5, 65590, Pitch_bend_c, 3, 7391
5, 65593, Pitch_bend_c, 3, 7349
5, 65597, Pitch_bend_c, 3, 7292
5, 65600, Pitch_bend_c, 3, 7247
5, 65604, Pitch_bend_c, 3, 7187
5, 65607, Pitch_bend_c, 3, 7140
5, 65611, Pitch_bend_c, 3, 7076
5, 65614, Pitch_bend_c, 3, 7027
5, 65617, Pitch_bend_c, 3, 6977
5, 65621, Pitch_bend_c, 3, 6908
5, 65624, Pitch_bend_c, 3, 6855
5, 65628, Pitch_bend_c, 3, 6783
5, 65631, Pitch_bend_c, 3, 6728
5, 65635, Pitch_bend_c, 3, 6652
5, 65638, Pitch_bend_c, 3, 6595
5, 65642, Pitch_bend_c, 3, 6516
5, 65645, Pitch_bend_c, 3, 6456
5, 65648, Pitch_bend_c, 3, 6394
5, 65652, Pitch_bend_c, 3, 6311
5, 65655, Pitch_bend_c, 3, 6247
5, 65659, Pitch_bend_c, 3, 6161
5, 65662, Pitch_bend_c, 3, 6095
5, 65666, Pitch_bend_c, 3, 6005
5, 65669, Pitch_bend_c, 3, 5936
5, 65672, Pitch_bend_c, 3, 5867
5, 65676, Pitch_bend_c, 3, 5771
5, 65679, Pitch_bend_c, 3, 5699
5, 65683, Pitch_bend_c, 3, 5601
5, 65686, Pitch_bend_c, 3, 5526
5, 65690, Pitch_bend_c, 3, 5425
5, 65693, Pitch_bend_c, 3, 5348
5, 65697, Pitch_bend_c, 3, 5243
5, 65700, Pitch_bend_c, 3, 5164
5, 65703, Pitch_bend_c, 3, 5083
5, 65707, Pitch_bend_c, 3, 4974
5, 65710, Pitch_bend_c, 3, 4890
5, 65714, Pitch_bend_c, 3, 4778
5, 65717, Pitch_bend_c, 3, 4692
5, 65721, Pitch_bend_c, 3, 4576
5, 65724, Pitch_bend_c, 3, 4488
5, 65728, Pitch_bend_c, 3, 4369
5, 65731, Pitch_bend_c, 3, 4278
5, 65734, Pitch_bend_c, 3, 4187
5, 65738, Pitch_bend_c, 3, 4063
5, 65741, Pitch_bend_c, 3, 3968
5, 65745, Pitch_bend_c, 3, 3841
5, 65748, Pitch_bend_c, 3, 3744
5, 65752, Pitch_bend_c, 3, 3613
5, 65755, Pitch_bend_c, 3, 3514
5, 65758, Pitch_bend_c, 3, 3414
5, 65762, Pitch_bend_c, 3, 3278
5, 65764, Pitch_bend_c, 3, 3328
5, 66149, Note_off_c, 3, 55, 64
5, 66233, Pitch_bend_c, 3, 8192
5, 66240, Note_on_c, 3, 57, 127
5, 66446, Pitch_bend_c, 3, 8181
5, 66449, Pitch_bend_c, 3, 8176
5, 66453, Pitch_bend_c, 3, 8167
5, 66456, Pitch_bend_c, 3, 8160
5, 66460, Pitch_bend_c, 3, 8148
5, 66463, Pitch_bend_c, 3, 8138
5, 66466, Pitch_bend_c, 3, 8126
5, 66470, Pitch_bend_c, 3, 8110
5, 66473, Pitch_bend_c, 3, 8095
5, 66477, Pitch_bend_c, 3, 8075
5, 66480, Pitch_bend_c, 3, 8059
5, 66484, Pitch_bend_c, 3, 8036
5, 66487, Pitch_bend_c, 3, 8017
5, 66490, Pitch_bend_c, 3, 7997
5, 66494, Pitch_bend_c, 3, 7969
5, 66497, Pitch_bend_c, 3, 7946
5, 66501, Pitch_bend_c, 3, 7915
5, 66504, Pitch_bend_c, 3, 7890
5, 66508, Pitch_bend_c, 3, 7855
5, 66511, Pitch_bend_c, 3, 7828
5, 66515, Pitch_bend_c, 3, 7790
5, 66518, Pitch_bend_c, 3, 7760
5, 66521, Pitch_bend_c, 3, 7730
5, 66525, Pitch_bend_c, 3, 7687
5, 66528, Pitch_bend_c, 3, 7654
5, 66532, Pitch_bend_c, 3, 7608
5, 66535, Pitch_bend_c, 3, 7572
5, 66539, Pitch_bend_c, 3, 7522
5, 66542, Pitch_bend_c, 3, 7484
5, 66546, Pitch_bend_c, 3, 7432
5, 66549, Pitch_bend_c, 3, 7391
5, 66552, Pitch_bend_c, 3, 7349
5, 66556, Pitch_bend_c, 3, 7292
5, 66559, Pitch_bend_c, 3, 7247
5, 66563, Pitch_bend_c, 3, 7187
5, 66566, Pitch_bend_c, 3, 7140
5, 66570, Pitch_bend_c, 3, 7076
5, 66573, Pitch_bend_c, 3, 7027
5, 66576, Pitch_bend_c, 3, 6977
5, 66580, Pitch_bend_c, 3, 6908
5, 66583, Pitch_bend_c, 3, 6855
5, 66587, Pitch_bend_c, 3, 6783
5, 66590, Pitch_bend_c, 3, 6728
5, 66594, Pitch_bend_c, 3, 6652
5, 66597, Pitch_bend_c, 3, 6595
5, 66601, Pitch_bend_c, 3, 6516
5, 66604, Pitch_bend_c, 3, 6456
5, 66607, Pitch_bend_c, 3, 6394
5, 66611, Pitch_bend_c, 3, 6311
5, 66614, Pitch_bend_c, 3, 6247
5, 66618, Pitch_bend_c, 3, 6161
5, 66621, Pitch_bend_c, 3, 6095
5, 66625, Pitch_bend_c, 3, 6005
5, 66628, Pitch_bend_c, 3, 5936
5, 66632, Pitch_bend_c, 3, 5843
5, 66635, Pitch_bend_c, 3, 5771
5, 66638, Pitch_bend_c, 3, 5699
5, 66642, Pitch_bend_c, 3, 5601
5, 66645, Pitch_bend_c, 3, 5526
5, 66649, Pitch_bend_c, 3, 5425
5, 66652, Pitch_bend_c, 3, 5348
5, 66656, Pitch_bend_c, 3, 5243
5, 66659, Pitch_bend_c, 3, 5164
5, 66662, Pitch_bend_c, 3, 5083
5, 66666, Pitch_bend_c, 3, 4974
5, 66669, Pitch_bend_c, 3, 4890
5, 66673, Pitch_bend_c, 3, 4778
5, 66676, Pitch_bend_c, 3, 4692
5, 66680, Pitch_bend_c, 3, 4576
5, 66683, Pitch_bend_c, 3, 4488
5, 66687, Pitch_bend_c, 3, 4369
5, 66690, Pitch_bend_c, 3, 4278
5, 66693, Pitch_bend_c, 3, 4187
5, 66697, Pitch_bend_c, 3, 4063
5, 66700, Pitch_bend_c, 3, 3968
5, 66704, Pitch_bend_c, 3, 3841
5, 66707, Pitch_bend_c, 3, 3744
5, 66711, Pitch_bend_c, 3, 3613
5, 66714, Pitch_bend_c, 3, 3514
5, 66718, Pitch_bend_c, 3, 3380
5, 66721, Pitch_bend_c, 3, 3278
5, 66723, Pitch_bend_c, 3, 3328
5, 67111, Note_off_c, 3, 57, 64
5, 67199, Pitch_bend_c, 3, 8192
5, 67200, Note_on_c, 3, 59, 127
5, 67344, Pitch_bend_c, 3, 8192
5, 67346, Pitch_bend_c, 3, 8182
5, 67348, Pitch_bend_c, 3, 8173
5, 67350, Pitch_bend_c, 3, 8164
5, 67351, Pitch_bend_c, 3, 8160
5, 67353, Pitch_bend_c, 3, 8151
5, 67355, Pitch_bend_c, 3, 8142
5, 67356, Pitch_bend_c, 3, 8137
5, 67358, Pitch_bend_c, 3, 8128
5, 67360, Pitch_bend_c, 3, 8119
5, 67361, Pitch_bend_c, 3, 8114
5, 67363, Pitch_bend_c, 3, 8105
5, 67365, Pitch_bend_c, 3, 8096
5, 67366, Pitch_bend_c, 3, 8092
5, 67368, Pitch_bend_c, 3, 8082
5, 67370, Pitch_bend_c, 3, 8073
5, 67371, Pitch_bend_c, 3, 8069
5, 67373, Pitch_bend_c, 3, 8060
5, 67375, Pitch_bend_c, 3, 8051
5, 67376, Pitch_bend_c, 3, 8046
5, 67378, Pitch_bend_c, 3, 8037
5, 67380, Pitch_bend_c, 3, 8028
5, 67381, Pitch_bend_c, 3, 8023
5, 67383, Pitch_bend_c, 3, 8014
5, 67385, Pitch_bend_c, 3, 8005
5, 67386, Pitch_bend_c, 3, 8001
5, 67388, Pitch_bend_c, 3, 7992
5, 67390, Pitch_bend_c, 3, 7983
5, 67391, Pitch_bend_c, 3, 7978
5, 67393, Pitch_bend_c, 3, 7969
5, 67395, Pitch_bend_c, 3, 7960
5, 67397, Pitch_bend_c, 3, 7951
5, 67398, Pitch_bend_c, 3, 7946
5, 67400, Pitch_bend_c, 3, 7937
5, 67402, Pitch_bend_c, 3, 7928
5, 67403, Pitch_bend_c, 3, 7923
5, 67405, Pitch_bend_c, 3, 7914
5, 67407, Pitch_bend_c, 3, 7905
5, 67408, Pitch_bend_c, 3, 7901
5, 67410, Pitch_bend_c, 3, 7892
5, 67412, Pitch_bend_c, 3, 7883
5, 67413, Pitch_bend_c, 3, 7878
5, 67415, Pitch_bend_c, 3, 7869
5, 67417, Pitch_bend_c, 3, 7860
5, 67418, Pitch_bend_c, 3, 7855
5, 67420, Pitch_bend_c, 3, 7846
5, 67422, Pitch_bend_c, 3, 7837
5, 67423, Pitch_bend_c, 3, 7833
5, 67425, Pitch_bend_c, 3, 7824
5, 67427, Pitch_bend_c, 3, 7814
5, 67428, Pitch_bend_c, 3, 7810
5, 67430, Pitch_bend_c, 3, 7801
5, 67432, Pitch_bend_c, 3, 7792
5, 67433, Pitch_bend_c, 3, 7787
5, 67435, Pitch_bend_c, 3, 7778
5, 67437, Pitch_bend_c, 3, 7769
5, 67439, Pitch_bend_c, 3, 7760
5, 67440, Pitch_bend_c, 3, 7755
5, 67442, Pitch_bend_c, 3, 7746
5, 67444, Pitch_bend_c, 3, 7737
5, 67445, Pitch_bend_c, 3, 7733
5, 67447, Pitch_bend_c, 3, 7724
5, 67449, Pitch_bend_c, 3, 7714
5, 67450, Pitch_bend_c, 3, 7710
5, 67452, Pitch_bend_c, 3, 7701
5, 67454, Pitch_bend_c, 3, 7692
5, 67455, Pitch_bend_c, 3, 7687
5, 67457, Pitch_bend_c, 3, 7678
5, 67459, Pitch_bend_c, 3, 7669
5, 67460, Pitch_bend_c, 3, 7665
5, 67462, Pitch_bend_c, 3, 7655
5, 67464, Pitch_bend_c, 3, 7646
5, 67465, Pitch_bend_c, 3, 7642
5, 67467, Pitch_bend_c, 3, 7633
5, 67469, Pitch_bend_c, 3, 7624
5, 67470, Pitch_bend_c, 3, 7619
5, 67472, Pitch_bend_c, 3, 7610
5, 67474, Pitch_bend_c, 3, 7601
5, 67475, Pitch_bend_c, 3, 7596
5, 67477, Pitch_bend_c, 3, 7587
5, 67479, Pitch_bend_c, 3, 7578
5, 67481, Pitch_bend_c, 3, 7569
5, 67482, Pitch_bend_c, 3, 7565
5, 67484, Pitch_bend_c, 3, 7555
5, 67486, Pitch_bend_c, 3, 7546
5, 67487, Pitch_bend_c, 3, 7542
5, 67489, Pitch_bend_c, 3, 7533
5, 67491, Pitch_bend_c, 3, 7524
5, 67492, Pitch_bend_c, 3, 7519
5, 67494, Pitch_bend_c, 3, 7510
5, 67496, Pitch_bend_c, 3, 7501
5, 67497, Pitch_bend_c, 3, 7496
5, 67499, Pitch_bend_c, 3, 7487
5, 67501, Pitch_bend_c, 3, 7478
5, 67502, Pitch_bend_c, 3, 7474
5, 67504, Pitch_bend_c, 3, 7465
5, 67506, Pitch_bend_c, 3, 7456
5, 67507, Pitch_bend_c, 3, 7451
5, 67509, Pitch_bend_c, 3, 7442
5, 67511, Pitch_bend_c, 3, 7433
5, 67512, Pitch_bend_c, 3, 7428
5, 67514, Pitch_bend_c, 3, 7419
5, 67516, Pitch_bend_c, 3, 7410
5, 67517, Pitch_bend_c, 3, 7406
5, 67519, Pitch_bend_c, 3, 7396
5, 67521, Pitch_bend_c, 3, 7387
5, 67523, Pitch_bend_c, 3, 7378
5, 67524, Pitch_bend_c, 3, 7374
5, 67526, Pitch_bend_c, 3, 7365
5, 67528, Pitch_bend_c, 3, 7356
5, 67529, Pitch_bend_c, 3, 7351
5, 67531, Pitch_bend_c, 3, 7342
5, 67533, Pitch_bend_c, 3, 7333
5, 67534, Pitch_bend_c, 3, 7328
5, 67536, Pitch_bend_c, 3, 7319
5, 67538, Pitch_bend_c, 3, 7310
5, 67539, Pitch_bend_c, 3, 7306
5, 67541, Pitch_bend_c, 3, 7297
5, 67543, Pitch_bend_c, 3, 7287
5, 67544, Pitch_bend_c, 3, 7283
5, 67546, Pitch_bend_c, 3, 7274
5, 67548, Pitch_bend_c, 3, 7265
5, 67549, Pitch_bend_c, 3, 7260
5, 67551, Pitch_bend_c, 3, 7251
5, 67553, Pitch_bend_c, 3, 7242
5, 67554, Pitch_bend_c, 3, 7237
5, 67556, Pitch_bend_c, 3, 7228
5, 67558, Pitch_bend_c, 3, 7219
5, 67559, Pitch_bend_c, 3, 7215
5, 67561, Pitch_bend_c, 3, 7206
5, 67563, Pitch_bend_c, 3, 7197
5, 67565, Pitch_bend_c, 3, 7188
5, 67566, Pitch_bend_c, 3, 7183
5, 67568, Pitch_bend_c, 3, 7174
5, 67570, Pitch_bend_c, 3, 7165
5, 67571, Pitch_bend_c, 3, 7160
5, 67573, Pitch_bend_c, 3, 7151
5, 67575, Pitch_bend_c, 3, 7142
5, 67576, Pitch_bend_c, 3, 7138
5, 67578, Pitch_bend_c, 3, 7128
5, 67580, Pitch_bend_c, 3, 7119
5, 67581, Pitch_bend_c, 3, 7115
5, 67583, Pitch_bend_c, 3, 7106
5, 67585, Pitch_bend_c, 3, 7097
5, 67586, Pitch_bend_c, 3, 7092
5, 67588, Pitch_bend_c, 3, 7083
5, 67590, Pitch_bend_c, 3, 7074
5, 67591, Pitch_bend_c, 3, 7069
5, 67593, Pitch_bend_c, 3, 7060
5, 67595, Pitch_bend_c, 3, 7051
5, 67596, Pitch_bend_c, 3, 7047
5, 67598, Pitch_bend_c, 3, 7038
5, 67600, Pitch_bend_c, 3, 7029
5, 67601, Pitch_bend_c, 3, 7024
5, 67603, Pitch_bend_c, 3, 7015
5, 67605, Pitch_bend_c, 3, 7006
5, 67606, Pitch_bend_c, 3, 7001
5, 67608, Pitch_bend_c, 3, 6992
5, 67610, Pitch_bend_c, 3, 6983
5, 67612, Pitch_bend_c, 3, 6974
5, 67613, Pitch_bend_c, 3, 6969
5, 67615, Pitch_bend_c, 3, 6960
5, 67617, Pitch_bend_c, 3, 6951
5, 67618, Pitch_bend_c, 3, 6947
5, 67620, Pitch_bend_c, 3, 6938
5, 67622, Pitch_bend_c, 3, 6929
5, 67623, Pitch_bend_c, 3, 6924
5, 67625, Pitch_bend_c, 3, 6915
5, 67627, Pitch_bend_c, 3, 6906
5, 67628, Pitch_bend_c, 3, 6901
5, 67630, Pitch_bend_c, 3, 6892
5, 67632, Pitch_bend_c, 3, 6883
5, 67633, Pitch_bend_c, 3, 6879
5, 67635, Pitch_bend_c, 3, 6869
5, 67637, Pitch_bend_c, 3, 6860
5, 67638, Pitch_bend_c, 3, 6856
5, 67640, Pitch_bend_c, 3, 6847
5, 67642, Pitch_bend_c, 3, 6838
5, 67643, Pitch_bend_c, 3, 6833
5, 67645, Pitch_bend_c, 3, 6824
5, 67647, Pitch_bend_c, 3, 6815
5, 67648, Pitch_bend_c, 3, 6810
5, 67650, Pitch_bend_c, 3, 6801
5, 67652, Pitch_bend_c, 3, 6792
5, 67654, Pitch_bend_c, 3, 6783
5, 67655, Pitch_bend_c, 3, 6779
5, 67657, Pitch_bend_c, 3, 6770
5, 67659, Pitch_bend_c, 3, 6760
5, 67660, Pitch_bend_c, 3, 6756
5, 67662, Pitch_bend_c, 3, 6747
5, 67664, Pitch_bend_c, 3, 6738
5, 67665, Pitch_bend_c, 3, 6733
5, 67667, Pitch_bend_c, 3, 6724
5, 67669, Pitch_bend_c, 3, 6715
5, 67670, Pitch_bend_c, 3, 6710
5, 67672, Pitch_bend_c, 3, 6701
5, 67674, Pitch_bend_c, 3, 6692
5, 67675, Pitch_bend_c, 3, 6688
5, 67677, Pitch_bend_c, 3, 6679
5, 67679, Pitch_bend_c, 3, 6670
5, 67680, Pitch_bend_c, 3, 6665
5, 67682, Pitch_bend_c, 3, 6656
5, 67684, Pitch_bend_c, 3, 6647
5, 67685, Pitch_bend_c, 3, 6642
5, 67687, Pitch_bend_c, 3, 6633
5, 67689, Pitch_bend_c, 3, 6624
5, 67690, Pitch_bend_c, 3, 6620
5, 67692, Pitch_bend_c, 3, 6611
5, 67694, Pitch_bend_c, 3, 6601
5, 67696, Pitch_bend_c, 3, 6592
5, 67697, Pitch_bend_c, 3, 6588
5, 67699, Pitch_bend_c, 3, 6579
5, 67701, Pitch_bend_c, 3, 6570
5, 67702, Pitch_bend_c, 3, 6565
5, 67704, Pitch_bend_c, 3, 6556
5, 67706, Pitch_bend_c, 3, 6547
5, 67707, Pitch_bend_c, 3, 6542
5, 67709, Pitch_bend_c, 3, 6533
5, 67711, Pitch_bend_c, 3, 6524
5, 67712, Pitch_bend_c, 3, 6520
5, 67714, Pitch_bend_c, 3, 6511
5, 67716, Pitch_bend_c, 3, 6502
5, 67717, Pitch_bend_c, 3, 6497
5, 67719, Pitch_bend_c, 3, 6488
5, 67721, Pitch_bend_c, 3, 6479
5, 67722, Pitch_bend_c, 3, 6474
5, 67724, Pitch_bend_c, 3, 6465
5, 67726, Pitch_bend_c, 3, 6456
5, 67727, Pitch_bend_c, 3, 6452
5, 67729, Pitch_bend_c, 3, 6442
5, 67731, Pitch_bend_c, 3, 6433
5, 67732, Pitch_bend_c, 3, 6429
5, 67734, Pitch_bend_c, 3, 6420
5, 67736, Pitch_bend_c, 3, 6411
5, 67738, Pitch_bend_c, 3, 6402
5, 67739, Pitch_bend_c, 3, 6397
5, 67741, Pitch_bend_c, 3, 6388
5, 67743, Pitch_bend_c, 3, 6379
5, 67744, Pitch_bend_c, 3, 6374
5, 67746, Pitch_bend_c, 3, 6365
5, 67748, Pitch_bend_c, 3, 6356
5, 67749, Pitch_bend_c, 3, 6352
5, 67751, Pitch_bend_c, 3, 6343
5, 67753, Pitch_bend_c, 3, 6333
5, 67754, Pitch_bend_c, 3, 6329
5, 67756, Pitch_bend_c, 3, 6320
5, 67758, Pitch_bend_c, 3, 6311
5, 67759, Pitch_bend_c, 3, 6306
5, 67761, Pitch_bend_c, 3, 6297
5, 67763, Pitch_bend_c, 3, 6288
5, 67764, Pitch_bend_c, 3, 6283
5, 67766, Pitch_bend_c, 3, 6274
5, 67768, Pitch_bend_c, 3, 6265
5, 67769, Pitch_bend_c, 3, 6261
5, 67771, Pitch_bend_c, 3, 6252
5, 67773, Pitch_bend_c, 3, 6243
5, 67774, Pitch_bend_c, 3, 6238
5, 67776, Pitch_bend_c, 3, 6229
5, 67778, Pitch_bend_c, 3, 6220
5, 67780, Pitch_bend_c, 3, 6211
5, 67781, Pitch_bend_c, 3, 6206
5, 67783, Pitch_bend_c, 3, 6197
5, 67785, Pitch_bend_c, 3, 6188
5, 67786, Pitch_bend_c, 3, 6184
5, 67788, Pitch_bend_c, 3, 6174
5, 67790, Pitch_bend_c, 3, 6165
5, 67791, Pitch_bend_c, 3, 6161
5, 67793, Pitch_bend_c, 3, 6152
5, 67795, Pitch_bend_c, 3, 6143
5, 67796, Pitch_bend_c, 3, 6138
5, 67798, Pitch_bend_c, 3, 6129
5, 67800, Pitch_bend_c, 3, 6120
5, 67801, Pitch_bend_c, 3, 6115
5, 67803, Pitch_bend_c, 3, 6106
5, 67805, Pitch_bend_c, 3, 6097
5, 67806, Pitch_bend_c, 3, 6093
5, 67808, Pitch_bend_c, 3, 6084
5, 67810, Pitch_bend_c, 3, 6074
5, 67811, Pitch_bend_c, 3, 6070
5, 67813, Pitch_bend_c, 3, 6061
5, 67815, Pitch_bend_c, 3, 6052
5, 67816, Pitch_bend_c, 3, 6047
5, 67818, Pitch_bend_c, 3, 6038
5, 67820, Pitch_bend_c, 3, 6029
5, 67821, Pitch_bend_c, 3, 6025
5, 67823, Pitch_bend_c, 3, 6015
5, 67825, Pitch_bend_c, 3, 6006
5, 67827, Pitch_bend_c, 3, 5997
5, 67828, Pitch_bend_c, 3, 5993
5, 67830, Pitch_bend_c, 3, 5984
5, 67832, Pitch_bend_c, 3, 5975
5, 67833, Pitch_bend_c, 3, 5970
5, 67835, Pitch_bend_c, 3, 5961
5, 67837, Pitch_bend_c, 3, 5952
5, 67838, Pitch_bend_c, 3, 5947
5, 67840, Pitch_bend_c, 3, 5938
5, 67842, Pitch_bend_c, 3, 5929
5, 67843, Pitch_bend_c, 3, 5925
5, 67845, Pitch_bend_c, 3, 5915
5, 67847, Pitch_bend_c, 3, 5906
5, 67848, Pitch_bend_c, 3, 5902
5, 67850, Pitch_bend_c, 3, 5893
5, 67852, Pitch_bend_c, 3, 5884
5, 67853, Pitch_bend_c, 3, 5879
5, 67855, Pitch_bend_c, 3, 5870
5, 67857, Pitch_bend_c, 3, 5861
5, 67858, Pitch_bend_c, 3, 5856
5, 67860, Pitch_bend_c, 3, 5847
5, 67862, Pitch_bend_c, 3, 5838
5, 67863, Pitch_bend_c, 3, 5834
5, 67865, Pitch_bend_c, 3, 5825
5, 67867, Pitch_bend_c, 3, 5816
5, 67869, Pitch_bend_c, 3, 5806
5, 67870, Pitch_bend_c, 3, 5802
5, 67872, Pitch_bend_c, 3, 5793
5, 67874, Pitch_bend_c, 3, 5784
5, 67875, Pitch_bend_c, 3, 5779
5, 67877, Pitch_bend_c, 3, 5770
5, 67879, Pitch_bend_c, 3, 5761
5, 67880, Pitch_bend_c, 3, 5756
5, 67882, Pitch_bend_c, 3, 5747
5, 67884, Pitch_bend_c, 3, 5738
5, 67885, Pitch_bend_c, 3, 5734
5, 67887, Pitch_bend_c, 3, 5725
5, 67889, Pitch_bend_c, 3, 5716
5, 67890, Pitch_bend_c, 3, 5711
5, 67892, Pitch_bend_c, 3, 5702
5, 67894, Pitch_bend_c, 3, 5693
5, 67895, Pitch_bend_c, 3, 5688
5, 67897, Pitch_bend_c, 3, 5679
5, 67899, Pitch_bend_c, 3, 5670
5, 67900, Pitch_bend_c, 3, 5666
5, 67902, Pitch_bend_c, 3, 5657
5, 67904, Pitch_bend_c, 3, 5647
5, 67905, Pitch_bend_c, 3, 5643
5, 67907, Pitch_bend_c, 3, 5634
5, 67909, Pitch_bend_c, 3, 5625
5, 67911, Pitch_bend_c, 3, 5616
5, 67912, Pitch_bend_c, 3, 5611
5, 67914, Pitch_bend_c, 3, 5602
5, 67916, Pitch_bend_c, 3, 5593
5, 67917, Pitch_bend_c, 3, 5588
5, 67919, Pitch_bend_c, 3, 5579
5, 67920, Control_c, 3, 7, 110
5, 67921, Pitch_bend_c, 3, 5570
5, 67922, Pitch_bend_c, 3, 5566
5, 67924, Pitch_bend_c, 3, 5557
5, 67926, Pitch_bend_c, 3, 5547
5, 67927, Pitch_bend_c, 3, 5543
5, 67929, Pitch_bend_c, 3, 5534
5, 67931, Pitch_bend_c, 3, 5525
5, 67932, Pitch_bend_c, 3, 5520
5, 67934, Pitch_bend_c, 3, 5511
5, 67936, Pitch_bend_c, 3, 5502
5, 67937, Pitch_bend_c, 3, 5498
5, 67939, Pitch_bend_c, 3, 5488
5, 67941, Pitch_bend_c, 3, 5479
5, 67942, Pitch_bend_c, 3, 5475
5, 67944, Pitch_bend_c, 3, 5466
5, 67946, Pitch_bend_c, 3, 5457
5, 67947, Pitch_bend_c, 3, 5452
5, 67949, Pitch_bend_c, 3, 5443
5, 67951, Pitch_bend_c, 3, 5434
5, 67953, Pitch_bend_c, 3, 5425
5, 67954, Pitch_bend_c, 3, 5420
5, 67956, Pitch_bend_c, 3, 5411
5, 67958, Pitch_bend_c, 3, 5402
5, 67959, Pitch_bend_c, 3, 5398
5, 67960, Control_c, 3, 7, 109
5, 67961, Pitch_bend_c, 3, 5388
5, 67963, Pitch_bend_c, 3, 5379
5, 67964, Pitch_bend_c, 3, 5375
5, 67966, Pitch_bend_c, 3, 5366
5, 67968, Pitch_bend_c, 3, 5357
5, 67969, Pitch_bend_c, 3, 5352
5, 67971, Pitch_bend_c, 3, 5343
5, 67973, Pitch_bend_c, 3, 5334
5, 67974, Pitch_bend_c, 3, 5329
5, 67976, Pitch_bend_c, 3, 5320
5, 67978, Pitch_bend_c, 3, 5311
5, 67979, Pitch_bend_c, 3, 5307
5, 67981, Pitch_bend_c, 3, 5298
5, 67983, Pitch_bend_c, 3, 5289
5, 67984, Pitch_bend_c, 3, 5284
5, 67986, Pitch_bend_c, 3, 5275
5, 67988, Pitch_bend_c, 3, 5266
5, 67989, Pitch_bend_c, 3, 5261
5, 67991, Pitch_bend_c, 3, 5252
5, 67993, Pitch_bend_c, 3, 5243
5, 67995, Pitch_bend_c, 3, 5234
5, 67996, Pitch_bend_c, 3, 5229
5, 67998, Pitch_bend_c, 3, 5220
5, 68000, Pitch_bend_c, 3, 5211
5, 68000, Control_c, 3, 7, 108
5, 68001, Pitch_bend_c, 3, 5207
5, 68003, Pitch_bend_c, 3, 5198
5, 68005, Pitch_bend_c, 3, 5189
5, 68006, Pitch_bend_c, 3, 5184
5, 68008, Pitch_bend_c, 3, 5175
5, 68010, Pitch_bend_c, 3, 5166
5, 68011, Pitch_bend_c, 3, 5161
5, 68013, Pitch_bend_c, 3, 5152
5, 68015, Pitch_bend_c, 3, 5143
5, 68016, Pitch_bend_c, 3, 5139
5, 68018, Pitch_bend_c, 3, 5130
5, 68020, Pitch_bend_c, 3, 5120
5, 68021, Pitch_bend_c, 3, 5116
5, 68023, Pitch_bend_c, 3, 5107
5, 68025, Pitch_bend_c, 3, 5098
5, 68026, Pitch_bend_c, 3, 5093
5, 68028, Pitch_bend_c, 3, 5084
5, 68030, Pitch_bend_c, 3, 5075
5, 68031, Pitch_bend_c, 3, 5070
5, 68033, Pitch_bend_c, 3, 5061
5, 68035, Pitch_bend_c, 3, 5052
5, 68036, Pitch_bend_c, 3, 5048
5, 68038, Pitch_bend_c, 3, 5039
5, 68040, Pitch_bend_c, 3, 5030
5, 68040, Control_c, 3, 7, 107
5, 68042, Pitch_bend_c, 3, 5021
5, 68043, Pitch_bend_c, 3, 5016
5, 68045, Pitch_bend_c, 3, 5007
5, 68047, Pitch_bend_c, 3, 4998
5, 68048, Pitch_bend_c, 3, 4993
5, 68050, Pitch_bend_c, 3, 4984
5, 68052, Pitch_bend_c, 3, 4975
5, 68053, Pitch_bend_c, 3, 4971
5, 68055, Pitch_bend_c, 3, 4961
5, 68057, Pitch_bend_c, 3, 4952
5, 68058, Pitch_bend_c, 3, 4948
5, 68060, Pitch_bend_c, 3, 4939
5, 68062, Pitch_bend_c, 3, 4930
5, 68063, Pitch_bend_c, 3, 4925
5, 68065, Pitch_bend_c, 3, 4916
5, 68067, Pitch_bend_c, 3, 4907
5, 68068, Pitch_bend_c, 3, 4902
5, 68070, Pitch_bend_c, 3, 4893
5, 68072, Pitch_bend_c, 3, 4884
5, 68073, Pitch_bend_c, 3, 4880
5, 68075, Pitch_bend_c, 3, 4871
5, 68077, Pitch_bend_c, 3, 4862
5, 68078, Pitch_bend_c, 3, 4857
5, 68080, Pitch_bend_c, 3, 4848
5, 68080, Control_c, 3, 7, 106
5, 68082, Pitch_bend_c, 3, 4839
5, 68084, Pitch_bend_c, 3, 4830
5, 68085, Pitch_bend_c, 3, 4825
5, 68087, Pitch_bend_c, 3, 4816
5, 68089, Pitch_bend_c, 3, 4807
5, 68090, Pitch_bend_c, 3, 4802
5, 68092, Pitch_bend_c, 3, 4793
5, 68094, Pitch_bend_c, 3, 4784
5, 68095, Pitch_bend_c, 3, 4780
5, 68097, Pitch_bend_c, 3, 4771
5, 68099, Pitch_bend_c, 3, 4762
5, 68100, Pitch_bend_c, 3, 4757
5, 68102, Pitch_bend_c, 3, 4748
5, 68104, Pitch_bend_c, 3, 4739
5, 68105, Pitch_bend_c, 3, 4734
5, 68107, Pitch_bend_c, 3, 4725
5, 68109, Pitch_bend_c, 3, 4716
5, 68110, Pitch_bend_c, 3, 4712
5, 68112, Pitch_bend_c, 3, 4703
5, 68114, Pitch_bend_c, 3, 4693
5, 68115, Pitch_bend_c, 3, 4689
5, 68117, Pitch_bend_c, 3, 4680
5, 68119, Pitch_bend_c, 3, 4671
5, 68120, Pitch_bend_c, 3, 4666
5, 68120, Control_c, 3, 7, 105
5, 68122, Pitch_bend_c, 3, 4657
5, 68124, Pitch_bend_c, 3, 4648
5, 68126, Pitch_bend_c, 3, 4639
5, 68127, Pitch_bend_c, 3, 4634
5, 68129, Pitch_bend_c, 3, 4625
5, 68131, Pitch_bend_c, 3, 4616
5, 68132, Pitch_bend_c, 3, 4612
5, 68134, Pitch_bend_c, 3, 4603
5, 68136, Pitch_bend_c, 3, 4593
5, 68137, Pitch_bend_c, 3, 4589
5, 68139, Pitch_bend_c, 3, 4580
5, 68141, Pitch_bend_c, 3, 4571
5, 68142, Pitch_bend_c, 3, 4566
5, 68144, Pitch_bend_c, 3, 4557
5, 68146, Pitch_bend_c, 3, 4548
5, 68147, Pitch_bend_c, 3, 4543
5, 68149, Pitch_bend_c, 3, 4534
5, 68151, Pitch_bend_c, 3, 4525
5, 68152, Pitch_bend_c, 3, 4521
5, 68154, Pitch_bend_c, 3, 4512
5, 68156, Pitch_bend_c, 3, 4503
5, 68157, Pitch_bend_c, 3, 4498
5, 68159, Pitch_bend_c, 3, 4489
5, 68160, Control_c, 3, 7, 104
5, 68161, Pitch_bend_c, 3, 4480
5, 68162, Pitch_bend_c, 3, 4475
5, 68164, Pitch_bend_c, 3, 4466
5, 68166, Pitch_bend_c, 3, 4457
5, 68168, Pitch_bend_c, 3, 4448
5, 68169, Pitch_bend_c, 3, 4444
5, 68171, Pitch_bend_c, 3, 4434
5, 68173, Pitch_bend_c, 3, 4425
5, 68174, Pitch_bend_c, 3, 4421
5, 68176, Pitch_bend_c, 3, 4412
5, 68178, Pitch_bend_c, 3, 4403
5, 68179, Pitch_bend_c, 3, 4398
5, 68181, Pitch_bend_c, 3, 4389
5, 68183, Pitch_bend_c, 3, 4380
5, 68184, Pitch_bend_c, 3, 4375
5, 68186, Pitch_bend_c, 3, 4366
5, 68188, Pitch_bend_c, 3, 4357
5, 68189, Pitch_bend_c, 3, 4353
5, 68191, Pitch_bend_c, 3, 4344
5, 68193, Pitch_bend_c, 3, 4335
5, 68194, Pitch_bend_c, 3, 4330
5, 68196, Pitch_bend_c, 3, 4321
5, 68198, Pitch_bend_c, 3, 4312
5, 68199, Pitch_bend_c, 3, 4307
5, 68200, Control_c, 3, 7, 103
5, 68201, Pitch_bend_c, 3, 4298
5, 68203, Pitch_bend_c, 3, 4289
5, 68204, Pitch_bend_c, 3, 4285
5, 68206, Pitch_bend_c, 3, 4275
5, 68208, Pitch_bend_c, 3, 4266
5, 68210, Pitch_bend_c, 3, 4257
5, 68211, Pitch_bend_c, 3, 4253
5, 68213, Pitch_bend_c, 3, 4244
5, 68215, Pitch_bend_c, 3, 4235
5, 68216, Pitch_bend_c, 3, 4230
5, 68218, Pitch_bend_c, 3, 4221
5, 68220, Pitch_bend_c, 3, 4212
5, 68221, Pitch_bend_c, 3, 4207
5, 68223, Pitch_bend_c, 3, 4198
5, 68225, Pitch_bend_c, 3, 4189
5, 68226, Pitch_bend_c, 3, 4185
5, 68228, Pitch_bend_c, 3, 4176
5, 68230, Pitch_bend_c, 3, 4166
5, 68231, Pitch_bend_c, 3, 4162
5, 68233, Pitch_bend_c, 3, 4153
5, 68235, Pitch_bend_c, 3, 4144
5, 68236, Pitch_bend_c, 3, 4139
5, 68238, Pitch_bend_c, 3, 4130
5, 68240, Pitch_bend_c, 3, 4121
5, 68240, Control_c, 3, 7, 102
5, 68241, Pitch_bend_c, 3, 4116
5, 68243, Pitch_bend_c, 3, 4107
5, 68245, Pitch_bend_c, 3, 4098
5, 68246, Pitch_bend_c, 3, 4094
5, 68248, Pitch_bend_c, 3, 4085
5, 68250, Pitch_bend_c, 3, 4076
5, 68251, Pitch_bend_c, 3, 4071
5, 68253, Pitch_bend_c, 3, 4062
5, 68255, Pitch_bend_c, 3, 4053
5, 68257, Pitch_bend_c, 3, 4044
5, 68258, Pitch_bend_c, 3, 4039
5, 68260, Pitch_bend_c, 3, 4030
5, 68262, Pitch_bend_c, 3, 4021
5, 68263, Pitch_bend_c, 3, 4017
5, 68265, Pitch_bend_c, 3, 4007
5, 68267, Pitch_bend_c, 3, 3998
5, 68268, Pitch_bend_c, 3, 3994
5, 68270, Pitch_bend_c, 3, 3985
5, 68272, Pitch_bend_c, 3, 3976
5, 68273, Pitch_bend_c, 3, 3971
5, 68275, Pitch_bend_c, 3, 3962
5, 68277, Pitch_bend_c, 3, 3953
5, 68278, Pitch_bend_c, 3, 3948
5, 68280, Pitch_bend_c, 3, 3939
5, 68280, Control_c, 3, 7, 101
5, 68282, Pitch_bend_c, 3, 3930
5, 68283, Pitch_bend_c, 3, 3926
5, 68285, Pitch_bend_c, 3, 3917
5, 68287, Pitch_bend_c, 3, 3907
5, 68288, Pitch_bend_c, 3, 3903
5, 68290, Pitch_bend_c, 3, 3894
5, 68292, Pitch_bend_c, 3, 3885
5, 68293, Pitch_bend_c, 3, 3880
5, 68295, Pitch_bend_c, 3, 3871
5, 68297, Pitch_bend_c, 3, 3862
5, 68299, Pitch_bend_c, 3, 3853
5, 68300, Pitch_bend_c, 3, 3848
5, 68302, Pitch_bend_c, 3, 3839
5, 68304, Pitch_bend_c, 3, 3830
5, 68305, Pitch_bend_c, 3, 3826
5, 68307, Pitch_bend_c, 3, 3817
5, 68309, Pitch_bend_c, 3, 3808
5, 68310, Pitch_bend_c, 3, 3803
5, 68312, Pitch_bend_c, 3, 3794
5, 68314, Pitch_bend_c, 3, 3785
5, 68315, Pitch_bend_c, 3, 3780
5, 68317, Pitch_bend_c, 3, 3771
5, 68319, Pitch_bend_c, 3, 3762
5, 68320, Pitch_bend_c, 3, 3758
5, 68320, Control_c, 3, 7, 100
5, 68322, Pitch_bend_c, 3, 3748
5, 68324, Pitch_bend_c, 3, 3739
5, 68325, Pitch_bend_c, 3, 3735
5, 68327, Pitch_bend_c, 3, 3726
5, 68329, Pitch_bend_c, 3, 3717
5, 68330, Pitch_bend_c, 3, 3712
5, 68332, Pitch_bend_c, 3, 3703
5, 68334, Pitch_bend_c, 3, 3694
5, 68335, Pitch_bend_c, 3, 3689
5, 68337, Pitch_bend_c, 3, 3680
5, 68339, Pitch_bend_c, 3, 3671
5, 68341, Pitch_bend_c, 3, 3662
5, 68342, Pitch_bend_c, 3, 3658
5, 68344, Pitch_bend_c, 3, 3649
5, 68346, Pitch_bend_c, 3, 3639
5, 68347, Pitch_bend_c, 3, 3635
5, 68349, Pitch_bend_c, 3, 3626
5, 68351, Pitch_bend_c, 3, 3617
5, 68352, Pitch_bend_c, 3, 3612
5, 68354, Pitch_bend_c, 3, 3603
5, 68356, Pitch_bend_c, 3, 3594
5, 68357, Pitch_bend_c, 3, 3589
5, 68359, Pitch_bend_c, 3, 3580
5, 68360, Control_c, 3, 7, 99
5, 68361, Pitch_bend_c, 3, 3571
5, 68362, Pitch_bend_c, 3, 3567
5, 68364, Pitch_bend_c, 3, 3558
5, 68366, Pitch_bend_c, 3, 3549
5, 68367, Pitch_bend_c, 3, 3544
5, 68369, Pitch_bend_c, 3, 3535
5, 68371, Pitch_bend_c, 3, 3526
5, 68372, Pitch_bend_c, 3, 3521
5, 68374, Pitch_bend_c, 3, 3512
5, 68376, Pitch_bend_c, 3, 3503
5, 68377, Pitch_bend_c, 3, 3499
5, 68379, Pitch_bend_c, 3, 3490
5, 68381, Pitch_bend_c, 3, 3480
5, 68383, Pitch_bend_c, 3, 3471
5, 68384, Pitch_bend_c, 3, 3467
5, 68386, Pitch_bend_c, 3, 3458
5, 68388, Pitch_bend_c, 3, 3449
5, 68389, Pitch_bend_c, 3, 3444
5, 68391, Pitch_bend_c, 3, 3435
5, 68393, Pitch_bend_c, 3, 3426
5, 68394, Pitch_bend_c, 3, 3421
5, 68396, Pitch_bend_c, 3, 3412
5, 68398, Pitch_bend_c, 3, 3403
5, 68399, Pitch_bend_c, 3, 3399
5, 68400, Control_c, 3, 7, 98
5, 68401, Pitch_bend_c, 3, 3390
5, 68403, Pitch_bend_c, 3, 3380
5, 68404, Pitch_bend_c, 3, 3376
5, 68406, Pitch_bend_c, 3, 3367
5, 68408, Pitch_bend_c, 3, 3358
5, 68409, Pitch_bend_c, 3, 3353
5, 68411, Pitch_bend_c, 3, 3344
5, 68413, Pitch_bend_c, 3, 3335
5, 68414, Pitch_bend_c, 3, 3331
5, 68416, Pitch_bend_c, 3, 3321
5, 68418, Pitch_bend_c, 3, 3312
5, 68419, Pitch_bend_c, 3, 3308
5, 68421, Pitch_bend_c, 3, 3299
5, 68423, Pitch_bend_c, 3, 3290
5, 68425, Pitch_bend_c, 3, 3281
5, 68426, Pitch_bend_c, 3, 3276
5, 68428, Pitch_bend_c, 3, 3267
5, 68430, Pitch_bend_c, 3, 3258
5, 68431, Pitch_bend_c, 3, 3253
5, 68433, Pitch_bend_c, 3, 3244
5, 68435, Pitch_bend_c, 3, 3235
5, 68436, Pitch_bend_c, 3, 3231
5, 68438, Pitch_bend_c, 3, 3221
5, 68440, Pitch_bend_c, 3, 3212
5, 68440, Control_c, 3, 7, 97
5, 68441, Pitch_bend_c, 3, 3208
5, 68443, Pitch_bend_c, 3, 3199
5, 68445, Pitch_bend_c, 3, 3190
5, 68446, Pitch_bend_c, 3, 3185
5, 68448, Pitch_bend_c, 3, 3176
5, 68450, Pitch_bend_c, 3, 3167
5, 68451, Pitch_bend_c, 3, 3162
5, 68453, Pitch_bend_c, 3, 3153
5, 68455, Pitch_bend_c, 3, 3144
5, 68456, Pitch_bend_c, 3, 3140
5, 68458, Pitch_bend_c, 3, 3131
5, 68460, Pitch_bend_c, 3, 3122
5, 68461, Pitch_bend_c, 3, 3117
5, 68463, Pitch_bend_c, 3, 3108
5, 68465, Pitch_bend_c, 3, 3099
5, 68466, Pitch_bend_c, 3, 3094
5, 68468, Pitch_bend_c, 3, 3085
5, 68470, Pitch_bend_c, 3, 3076
5, 68472, Pitch_bend_c, 3, 3067
5, 68473, Pitch_bend_c, 3, 3062
5, 68475, Pitch_bend_c, 3, 3053
5, 68477, Pitch_bend_c, 3, 3044
5, 68478, Pitch_bend_c, 3, 3040
5, 68480, Pitch_bend_c, 3, 3031
5, 68480, Control_c, 3, 7, 96
5, 68482, Pitch_bend_c, 3, 3022
5, 68483, Pitch_bend_c, 3, 3017
5, 68485, Pitch_bend_c, 3, 3008
5, 68487, Pitch_bend_c, 3, 2999
5, 68488, Pitch_bend_c, 3, 2994
5, 68490, Pitch_bend_c, 3, 2985
5, 68492, Pitch_bend_c, 3, 2976
5, 68493, Pitch_bend_c, 3, 2972
5, 68495, Pitch_bend_c, 3, 2963
5, 68497, Pitch_bend_c, 3, 2953
5, 68498, Pitch_bend_c, 3, 2949
5, 68500, Pitch_bend_c, 3, 2940
5, 68502, Pitch_bend_c, 3, 2931
5, 68503, Pitch_bend_c, 3, 2926
5, 68505, Pitch_bend_c, 3, 2917
5, 68507, Pitch_bend_c, 3, 2908
5, 68508, Pitch_bend_c, 3, 2903
5, 68510, Pitch_bend_c, 3, 2894
5, 68512, Pitch_bend_c, 3, 2885
5, 68514, Pitch_bend_c, 3, 2876
5, 68515, Pitch_bend_c, 3, 2872
5, 68517, Pitch_bend_c, 3, 2863
5, 68519, Pitch_bend_c, 3, 2854
5, 68520, Pitch_bend_c, 3, 2849
5, 68520, Control_c, 3, 7, 95
5, 68522, Pitch_bend_c, 3, 2840
5, 68524, Pitch_bend_c, 3, 2831
5, 68525, Pitch_bend_c, 3, 2826
5, 68527, Pitch_bend_c, 3, 2817
5, 68529, Pitch_bend_c, 3, 2808
5, 68530, Pitch_bend_c, 3, 2804
5, 68532, Pitch_bend_c, 3, 2794
5, 68534, Pitch_bend_c, 3, 2785
5, 68535, Pitch_bend_c, 3, 2781
5, 68537, Pitch_bend_c, 3, 2772
5, 68539, Pitch_bend_c, 3, 2763
5, 68540, Pitch_bend_c, 3, 2758
5, 68542, Pitch_bend_c, 3, 2749
5, 68544, Pitch_bend_c, 3, 2740
5, 68545, Pitch_bend_c, 3, 2735
5, 68547, Pitch_bend_c, 3, 2726
5, 68549, Pitch_bend_c, 3, 2717
5, 68550, Pitch_bend_c, 3, 2713
5, 68552, Pitch_bend_c, 3, 2704
5, 68554, Pitch_bend_c, 3, 2695
5, 68556, Pitch_bend_c, 3, 2685
5, 68557, Pitch_bend_c, 3, 2681
5, 68559, Pitch_bend_c, 3, 2672
5, 68560, Control_c, 3, 7, 94
5, 68561, Pitch_bend_c, 3, 2663
5, 68562, Pitch_bend_c, 3, 2658
5, 68564, Pitch_bend_c, 3, 2649
5, 68566, Pitch_bend_c, 3, 2640
5, 68567, Pitch_bend_c, 3, 2635
5, 68569, Pitch_bend_c, 3, 2626
5, 68571, Pitch_bend_c, 3, 2617
5, 68572, Pitch_bend_c, 3, 2613
5, 68574, Pitch_bend_c, 3, 2604
5, 68576, Pitch_bend_c, 3, 2595
5, 68577, Pitch_bend_c, 3, 2590
5, 68579, Pitch_bend_c, 3, 2581
5, 68581, Pitch_bend_c, 3, 2572
5, 68582, Pitch_bend_c, 3, 2567
5, 68584, Pitch_bend_c, 3, 2558
5, 68586, Pitch_bend_c, 3, 2549
5, 68587, Pitch_bend_c, 3, 2545
5, 68589, Pitch_bend_c, 3, 2536
5, 68591, Pitch_bend_c, 3, 2526
5, 68592, Pitch_bend_c, 3, 2522
5, 68594, Pitch_bend_c, 3, 2513
5, 68596, Pitch_bend_c, 3, 2504
5, 68598, Pitch_bend_c, 3, 2495
5, 68599, Pitch_bend_c, 3, 2490
5, 68600, Control_c, 3, 7, 93
5, 68601, Pitch_bend_c, 3, 2481
5, 68603, Pitch_bend_c, 3, 2472
5, 68604, Pitch_bend_c, 3, 2467
5, 68606, Pitch_bend_c, 3, 2458
5, 68608, Pitch_bend_c, 3, 2449
5, 68609, Pitch_bend_c, 3, 2445
5, 68611, Pitch_bend_c, 3, 2436
5, 68613, Pitch_bend_c, 3, 2426
5, 68614, Pitch_bend_c, 3, 2422
5, 68616, Pitch_bend_c, 3, 2413
5, 68618, Pitch_bend_c, 3, 2404
5, 68619, Pitch_bend_c, 3, 2399
5, 68621, Pitch_bend_c, 3, 2390
5, 68623, Pitch_bend_c, 3, 2381
5, 68624, Pitch_bend_c, 3, 2377
5, 68626, Pitch_bend_c, 3, 2367
5, 68628, Pitch_bend_c, 3, 2358
5, 68629, Pitch_bend_c, 3, 2354
5, 68631, Pitch_bend_c, 3, 2345
5, 68633, Pitch_bend_c, 3, 2336
5, 68634, Pitch_bend_c, 3, 2331
5, 68636, Pitch_bend_c, 3, 2322
5, 68638, Pitch_bend_c, 3, 2313
5, 68639, Pitch_bend_c, 3, 2304
5, 68640, Note_on_c, 3, 50, 127
5, 68640, Control_c, 3, 7, 92
5, 68641, Pitch_bend_c, 3, 8189
5, 68642, Note_off_c, 3, 59, 64
5, 68643, Pitch_bend_c, 3, 8184
5, 68645, Pitch_bend_c, 3, 8179
5, 68646, Pitch_bend_c, 3, 8177
5, 68648, Pitch_bend_c, 3, 8172
5, 68650, Pitch_bend_c, 3, 8167
5, 68651, Pitch_bend_c, 3, 8164
5, 68653, Pitch_bend_c, 3, 8160
5, 68655, Pitch_bend_c, 3, 8155
5, 68656, Pitch_bend_c, 3, 8152
5, 68658, Pitch_bend_c, 3, 8147
5, 68660, Pitch_bend_c, 3, 8142
5, 68661, Pitch_bend_c, 3, 8140
5, 68663, Pitch_bend_c, 3, 8135
5, 68665, Pitch_bend_c, 3, 8130
5, 68667, Pitch_bend_c, 3, 8125
5, 68668, Pitch_bend_c, 3, 8123
5, 68670, Pitch_bend_c, 3, 8118
5, 68672, Pitch_bend_c, 3, 8113
5, 68673, Pitch_bend_c, 3, 8110
5, 68675, Pitch_bend_c, 3, 8105
5, 68677, Pitch_bend_c, 3, 8100
5, 68678, Pitch_bend_c, 3, 8098
5, 68680, Pitch_bend_c, 3, 8093
5, 68680, Control_c, 3, 7, 91
5, 68682, Pitch_bend_c, 3, 8088
5, 68683, Pitch_bend_c, 3, 8086
5, 68685, Pitch_bend_c, 3, 8081
5, 68687, Pitch_bend_c, 3, 8076
5, 68688, Pitch_bend_c, 3, 8073
5, 68690, Pitch_bend_c, 3, 8068
5, 68692, Pitch_bend_c, 3, 8064
5, 68693, Pitch_bend_c, 3, 8061
5, 68695, Pitch_bend_c, 3, 8056
5, 68697, Pitch_bend_c, 3, 8051
5, 68698, Pitch_bend_c, 3, 8049
5, 68700, Pitch_bend_c, 3, 8044
5, 68702, Pitch_bend_c, 3, 8039
5, 68703, Pitch_bend_c, 3, 8036
5, 68705, Pitch_bend_c, 3, 8032
5, 68707, Pitch_bend_c, 3, 8027
5, 68708, Pitch_bend_c, 3, 8024
5, 68710, Pitch_bend_c, 3, 8019
5, 68712, Pitch_bend_c, 3, 8014
5, 68714, Pitch_bend_c, 3, 8009
5, 68715, Pitch_bend_c, 3, 8007
5, 68717, Pitch_bend_c, 3, 8002
5, 68719, Pitch_bend_c, 3, 7997
5, 68720, Pitch_bend_c, 3, 7995
5, 68720, Control_c, 3, 7, 90
5, 68722, Pitch_bend_c, 3, 7990
5, 68724, Pitch_bend_c, 3, 7985
5, 68725, Pitch_bend_c, 3, 7982
5, 68727, Pitch_bend_c, 3, 7977
5, 68729, Pitch_bend_c, 3, 7972
5, 68730, Pitch_bend_c, 3, 7970
5, 68732, Pitch_bend_c, 3, 7965
5, 68734, Pitch_bend_c, 3, 7960
5, 68735, Pitch_bend_c, 3, 7958
5, 68737, Pitch_bend_c, 3, 7953
5, 68739, Pitch_bend_c, 3, 7948
5, 68740, Pitch_bend_c, 3, 7945
5, 68742, Pitch_bend_c, 3, 7940
5, 68744, Pitch_bend_c, 3, 7936
5, 68745, Pitch_bend_c, 3, 7933
5, 68747, Pitch_bend_c, 3, 7928
5, 68749, Pitch_bend_c, 3, 7923
5, 68750, Pitch_bend_c, 3, 7921
5, 68752, Pitch_bend_c, 3, 7916
5, 68754, Pitch_bend_c, 3, 7911
5, 68756, Pitch_bend_c, 3, 7906
5, 68757, Pitch_bend_c, 3, 7904
5, 68759, Pitch_bend_c, 3, 7899
5, 68760, Control_c, 3, 7, 89
5, 68761, Pitch_bend_c, 3, 7894
5, 68762, Pitch_bend_c, 3, 7891
5, 68764, Pitch_bend_c, 3, 7886
5, 68766, Pitch_bend_c, 3, 7881
5, 68767, Pitch_bend_c, 3, 7879
5, 68769, Pitch_bend_c, 3, 7874
5, 68771, Pitch_bend_c, 3, 7869
5, 68772, Pitch_bend_c, 3, 7867
5, 68774, Pitch_bend_c, 3, 7862
5, 68776, Pitch_bend_c, 3, 7857
5, 68777, Pitch_bend_c, 3, 7854
5, 68779, Pitch_bend_c, 3, 7849
5, 68781, Pitch_bend_c, 3, 7845
5, 68782, Pitch_bend_c, 3, 7842
5, 68784, Pitch_bend_c, 3, 7837
5, 68786, Pitch_bend_c, 3, 7832
5, 68787, Pitch_bend_c, 3, 7830
5, 68789, Pitch_bend_c, 3, 7825
5, 68791, Pitch_bend_c, 3, 7820
5, 68792, Pitch_bend_c, 3, 7817
5, 68794, Pitch_bend_c, 3, 7813
5, 68796, Pitch_bend_c, 3, 7808
5, 68798, Pitch_bend_c, 3, 7803
5, 68799, Pitch_bend_c, 3, 7800
5, 68800, Control_c, 3, 7, 88
5, 68801, Pitch_bend_c, 3, 7795
5, 68803, Pitch_bend_c, 3, 7790
5, 68804, Pitch_bend_c, 3, 7788
5, 68806, Pitch_bend_c, 3, 7783
5, 68808, Pitch_bend_c, 3, 7778
5, 68809, Pitch_bend_c, 3, 7776
5, 68811, Pitch_bend_c, 3, 7771
5, 68813, Pitch_bend_c, 3, 7766
5, 68814, Pitch_bend_c, 3, 7763
5, 68816, Pitch_bend_c, 3, 7758
5, 68818, Pitch_bend_c, 3, 7753
5, 68819, Pitch_bend_c, 3, 7751
5, 68821, Pitch_bend_c, 3, 7746
5, 68823, Pitch_bend_c, 3, 7741
5, 68824, Pitch_bend_c, 3, 7739
5, 68826, Pitch_bend_c, 3, 7734
5, 68828, Pitch_bend_c, 3, 7729
5, 68829, Pitch_bend_c, 3, 7726
5, 68831, Pitch_bend_c, 3, 7721
5, 68833, Pitch_bend_c, 3, 7717
5, 68834, Pitch_bend_c, 3, 7714
5, 68836, Pitch_bend_c, 3, 7709
5, 68838, Pitch_bend_c, 3, 7704
5, 68840, Pitch_bend_c, 3, 7699
5, 68840, Control_c, 3, 7, 87
5, 68841, Pitch_bend_c, 3, 7697
5, 68843, Pitch_bend_c, 3, 7692
5, 68845, Pitch_bend_c, 3, 7687
5, 68846, Pitch_bend_c, 3, 7685
5, 68848, Pitch_bend_c, 3, 7680
5, 68850, Pitch_bend_c, 3, 7675
5, 68851, Pitch_bend_c, 3, 7672
5, 68853, Pitch_bend_c, 3, 7667
5, 68855, Pitch_bend_c, 3, 7662
5, 68856, Pitch_bend_c, 3, 7660
5, 68858, Pitch_bend_c, 3, 7655
5, 68860, Pitch_bend_c, 3, 7650
5, 68861, Pitch_bend_c, 3, 7648
5, 68863, Pitch_bend_c, 3, 7643
5, 68865, Pitch_bend_c, 3, 7638
5, 68866, Pitch_bend_c, 3, 7635
5, 68868, Pitch_bend_c, 3, 7630
5, 68870, Pitch_bend_c, 3, 7625
5, 68871, Pitch_bend_c, 3, 7623
5, 68873, Pitch_bend_c, 3, 7618
5, 68875, Pitch_bend_c, 3, 7613
5, 68876, Pitch_bend_c, 3, 7611
5, 68878, Pitch_bend_c, 3, 7606
5, 68880, Pitch_bend_c, 3, 7601
5, 68880, Control_c, 3, 7, 86
5, 68882, Pitch_bend_c, 3, 7596
5, 68883, Pitch_bend_c, 3, 7593
5, 68885, Pitch_bend_c, 3, 7589
5, 68887, Pitch_bend_c, 3, 7584
5, 68888, Pitch_bend_c, 3, 7581
5, 68890, Pitch_bend_c, 3, 7576
5, 68892, Pitch_bend_c, 3, 7571
5, 68893, Pitch_bend_c, 3, 7569
5, 68895, Pitch_bend_c, 3, 7564
5, 68897, Pitch_bend_c, 3, 7559
5, 68898, Pitch_bend_c, 3, 7557
5, 68900, Pitch_bend_c, 3, 7552
5, 68902, Pitch_bend_c, 3, 7547
5, 68903, Pitch_bend_c, 3, 7544
5, 68905, Pitch_bend_c, 3, 7539
5, 68907, Pitch_bend_c, 3, 7534
5, 68908, Pitch_bend_c, 3, 7532
5, 68910, Pitch_bend_c, 3, 7527
5, 68912, Pitch_bend_c, 3, 7522
5, 68913, Pitch_bend_c, 3, 7520
5, 68915, Pitch_bend_c, 3, 7515
5, 68917, Pitch_bend_c, 3, 7510
5, 68918, Pitch_bend_c, 3, 7507
5, 68920, Pitch_bend_c, 3, 7502
5, 68920, Control_c, 3, 7, 85
5, 68922, Pitch_bend_c, 3, 7498
5, 68923, Pitch_bend_c, 3, 7495
5, 68925, Pitch_bend_c, 3, 7490
5, 68927, Pitch_bend_c, 3, 7485
5, 68929, Pitch_bend_c, 3, 7480
5, 68930, Pitch_bend_c, 3, 7478
5, 68932, Pitch_bend_c, 3, 7473
5, 68934, Pitch_bend_c, 3, 7468
5, 68935, Pitch_bend_c, 3, 7466
5, 68937, Pitch_bend_c, 3, 7461
5, 68939, Pitch_bend_c, 3, 7456
5, 68940, Pitch_bend_c, 3, 7453
5, 68942, Pitch_bend_c, 3, 7448
5, 68944, Pitch_bend_c, 3, 7443
5, 68945, Pitch_bend_c, 3, 7441
5, 68947, Pitch_bend_c, 3, 7436
5, 68949, Pitch_bend_c, 3, 7431
5, 68950, Pitch_bend_c, 3, 7429
5, 68952, Pitch_bend_c, 3, 7424
5, 68954, Pitch_bend_c, 3, 7419
5, 68955, Pitch_bend_c, 3, 7416
5, 68957, Pitch_bend_c, 3, 7411
5, 68959, Pitch_bend_c, 3, 7406
5, 68960, Pitch_bend_c, 3, 7404
5, 68960, Control_c, 3, 7, 84
5, 68962, Pitch_bend_c, 3, 7399
5, 68964, Pitch_bend_c, 3, 7394
5, 68965, Pitch_bend_c, 3, 7392
5, 68967, Pitch_bend_c, 3, 7387
5, 68969, Pitch_bend_c, 3, 7382
5, 68971, Pitch_bend_c, 3, 7377
5, 68972, Pitch_bend_c, 3, 7374
5, 68974, Pitch_bend_c, 3, 7370
5, 68976, Pitch_bend_c, 3, 7365
5, 68977, Pitch_bend_c, 3, 7362
5, 68979, Pitch_bend_c, 3, 7357
5, 68981, Pitch_bend_c, 3, 7352
5, 68982, Pitch_bend_c, 3, 7350
5, 68984, Pitch_bend_c, 3, 7345
5, 68986, Pitch_bend_c, 3, 7340
5, 68987, Pitch_bend_c, 3, 7338
5, 68989, Pitch_bend_c, 3, 7333
5, 68991, Pitch_bend_c, 3, 7328
5, 68992, Pitch_bend_c, 3, 7325
5, 68994, Pitch_bend_c, 3, 7320
5, 68996, Pitch_bend_c, 3, 7315
5, 68997, Pitch_bend_c, 3, 7313
5, 68999, Pitch_bend_c, 3, 7308
5, 69000, Control_c, 3, 7, 83
5, 69001, Pitch_bend_c, 3, 7303
5, 69002, Pitch_bend_c, 3, 7301
5, 69004, Pitch_bend_c, 3, 7296
5, 69006, Pitch_bend_c, 3, 7291
5, 69007, Pitch_bend_c, 3, 7288
5, 69009, Pitch_bend_c, 3, 7283
5, 69011, Pitch_bend_c, 3, 7278
5, 69013, Pitch_bend_c, 3, 7274
5, 69014, Pitch_bend_c, 3, 7271
5, 69016, Pitch_bend_c, 3, 7266
5, 69018, Pitch_bend_c, 3, 7261
5, 69019, Pitch_bend_c, 3, 7259
5, 69021, Pitch_bend_c, 3, 7254
5, 69023, Pitch_bend_c, 3, 7249
5, 69024, Pitch_bend_c, 3, 7247
5, 69026, Pitch_bend_c, 3, 7242
5, 69028, Pitch_bend_c, 3, 7237
5, 69029, Pitch_bend_c, 3, 7234
5, 69031, Pitch_bend_c, 3, 7229
5, 69033, Pitch_bend_c, 3, 7224
5, 69034, Pitch_bend_c, 3, 7222
5, 69036, Pitch_bend_c, 3, 7217
5, 69038, Pitch_bend_c, 3, 7212
5, 69039, Pitch_bend_c, 3, 7210
5, 69040, Control_c, 3, 7, 82
5, 69041, Pitch_bend_c, 3, 7205
5, 69043, Pitch_bend_c, 3, 7200
5, 69044, Pitch_bend_c, 3, 7197
5, 69046, Pitch_bend_c, 3, 7192
5, 69048, Pitch_bend_c, 3, 7187
5, 69049, Pitch_bend_c, 3, 7185
5, 69051, Pitch_bend_c, 3, 7180
5, 69053, Pitch_bend_c, 3, 7175
5, 69055, Pitch_bend_c, 3, 7170
5, 69056, Pitch_bend_c, 3, 7168
5, 69058, Pitch_bend_c, 3, 7163
5, 69060, Pitch_bend_c, 3, 7158
5, 69061, Pitch_bend_c, 3, 7155
5, 69063, Pitch_bend_c, 3, 7151
5, 69065, Pitch_bend_c, 3, 7146
5, 69066, Pitch_bend_c, 3, 7143
5, 69068, Pitch_bend_c, 3, 7138
5, 69070, Pitch_bend_c, 3, 7133
5, 69071, Pitch_bend_c, 3, 7131
5, 69073, Pitch_bend_c, 3, 7126
5, 69075, Pitch_bend_c, 3, 7121
5, 69076, Pitch_bend_c, 3, 7119
5, 69078, Pitch_bend_c, 3, 7114
5, 69080, Pitch_bend_c, 3, 7109
5, 69080, Control_c, 3, 7, 81
5, 69081, Pitch_bend_c, 3, 7106
5, 69083, Pitch_bend_c, 3, 7101
5, 69085, Pitch_bend_c, 3, 7096
5, 69086, Pitch_bend_c, 3, 7094
5, 69088, Pitch_bend_c, 3, 7089
5, 69090, Pitch_bend_c, 3, 7084
5, 69091, Pitch_bend_c, 3, 7082
5, 69093, Pitch_bend_c, 3, 7077
5, 69095, Pitch_bend_c, 3, 7072
5, 69097, Pitch_bend_c, 3, 7067
5, 69098, Pitch_bend_c, 3, 7064
5, 69100, Pitch_bend_c, 3, 7059
5, 69102, Pitch_bend_c, 3, 7055
5, 69103, Pitch_bend_c, 3, 7052
5, 69105, Pitch_bend_c, 3, 7047
5, 69107, Pitch_bend_c, 3, 7042
5, 69108, Pitch_bend_c, 3, 7040
5, 69110, Pitch_bend_c, 3, 7035
5, 69112, Pitch_bend_c, 3, 7030
5, 69113, Pitch_bend_c, 3, 7027
5, 69115, Pitch_bend_c, 3, 7023
5, 69117, Pitch_bend_c, 3, 7018
5, 69118, Pitch_bend_c, 3, 7015
5, 69120, Pitch_bend_c, 3, 7010
5, 69120, Control_c, 3, 7, 80
5, 69122, Pitch_bend_c, 3, 7005
5, 69123, Pitch_bend_c, 3, 7003
5, 69125, Pitch_bend_c, 3, 6998
5, 69127, Pitch_bend_c, 3, 6993
5, 69128, Pitch_bend_c, 3, 6991
5, 69130, Pitch_bend_c, 3, 6986
5, 69132, Pitch_bend_c, 3, 6981
5, 69133, Pitch_bend_c, 3, 6978
5, 69135, Pitch_bend_c, 3, 6973
5, 69137, Pitch_bend_c, 3, 6968
5, 69138, Pitch_bend_c, 3, 6966
5, 69140, Pitch_bend_c, 3, 6961
5, 69142, Pitch_bend_c, 3, 6956
5, 69144, Pitch_bend_c, 3, 6951
5, 69145, Pitch_bend_c, 3, 6949
5, 69147, Pitch_bend_c, 3, 6944
5, 69149, Pitch_bend_c, 3, 6939
5, 69150, Pitch_bend_c, 3, 6936
5, 69152, Pitch_bend_c, 3, 6932
5, 69154, Pitch_bend_c, 3, 6927
5, 69155, Pitch_bend_c, 3, 6924
5, 69157, Pitch_bend_c, 3, 6919
5, 69159, Pitch_bend_c, 3, 6914
5, 69160, Pitch_bend_c, 3, 6912
5, 69160, Control_c, 3, 7, 79
5, 69162, Pitch_bend_c, 3, 6907
5, 69164, Pitch_bend_c, 3, 6902
5, 69165, Pitch_bend_c, 3, 6900
5, 69167, Pitch_bend_c, 3, 6895
5, 69169, Pitch_bend_c, 3, 6890
5, 69170, Pitch_bend_c, 3, 6887
5, 69172, Pitch_bend_c, 3, 6882
5, 69174, Pitch_bend_c, 3, 6877
5, 69175, Pitch_bend_c, 3, 6875
5, 69177, Pitch_bend_c, 3, 6870
5, 69179, Pitch_bend_c, 3, 6865
5, 69180, Pitch_bend_c, 3, 6863
5, 69182, Pitch_bend_c, 3, 6858
5, 69184, Pitch_bend_c, 3, 6853
5, 69186, Pitch_bend_c, 3, 6848
5, 69187, Pitch_bend_c, 3, 6845
5, 69189, Pitch_bend_c, 3, 6840
5, 69191, Pitch_bend_c, 3, 6836
5, 69192, Pitch_bend_c, 3, 6833
5, 69194, Pitch_bend_c, 3, 6828
5, 69196, Pitch_bend_c, 3, 6823
5, 69197, Pitch_bend_c, 3, 6821
5, 69199, Pitch_bend_c, 3, 6816
5, 69200, Control_c, 3, 7, 78
5, 69201, Pitch_bend_c, 3, 6811
5, 69202, Pitch_bend_c, 3, 6808
5, 69204, Pitch_bend_c, 3, 6804
5, 69206, Pitch_bend_c, 3, 6799
5, 69207, Pitch_bend_c, 3, 6796
5, 69209, Pitch_bend_c, 3, 6791
5, 69211, Pitch_bend_c, 3, 6786
5, 69212, Pitch_bend_c, 3, 6784
5, 69214, Pitch_bend_c, 3, 6779
5, 69216, Pitch_bend_c, 3, 6774
5, 69217, Pitch_bend_c, 3, 6772
5, 69219, Pitch_bend_c, 3, 6767
5, 69221, Pitch_bend_c, 3, 6762
5, 69222, Pitch_bend_c, 3, 6759
5, 69224, Pitch_bend_c, 3, 6754
5, 69226, Pitch_bend_c, 3, 6749
5, 69228, Pitch_bend_c, 3, 6744
5, 69229, Pitch_bend_c, 3, 6742
5, 69231, Pitch_bend_c, 3, 6737
5, 69233, Pitch_bend_c, 3, 6732
5, 69234, Pitch_bend_c, 3, 6730
5, 69236, Pitch_bend_c, 3, 6725
5, 69238, Pitch_bend_c, 3, 6720
5, 69239, Pitch_bend_c, 3, 6717
5, 69240, Control_c, 3, 7, 77
5, 69241, Pitch_bend_c, 3, 6712
5, 69243, Pitch_bend_c, 3, 6708
5, 69244, Pitch_bend_c, 3, 6705
5, 69246, Pitch_bend_c, 3, 6700
5, 69248, Pitch_bend_c, 3, 6695
5, 69249, Pitch_bend_c, 3, 6693
5, 69251, Pitch_bend_c, 3, 6688
5, 69253, Pitch_bend_c, 3, 6683
5, 69254, Pitch_bend_c, 3, 6680
5, 69256, Pitch_bend_c, 3, 6676
5, 69258, Pitch_bend_c, 3, 6671
5, 69259, Pitch_bend_c, 3, 6668
5, 69261, Pitch_bend_c, 3, 6663
5, 69263, Pitch_bend_c, 3, 6658
5, 69264, Pitch_bend_c, 3, 6656
5, 69266, Pitch_bend_c, 3, 6651
5, 69268, Pitch_bend_c, 3, 6646
5, 69270, Pitch_bend_c, 3, 6641
5, 69271, Pitch_bend_c, 3, 6639
5, 69273, Pitch_bend_c, 3, 6634
5, 69275, Pitch_bend_c, 3, 6629
5, 69276, Pitch_bend_c, 3, 6626
5, 69278, Pitch_bend_c, 3, 6621
5, 69280, Pitch_bend_c, 3, 6617
5, 69280, Control_c, 3, 7, 76
5, 69281, Pitch_bend_c, 3, 6614
5, 69283, Pitch_bend_c, 3, 6609
5, 69285, Pitch_bend_c, 3, 6604
5, 69286, Pitch_bend_c, 3, 6602
5, 69288, Pitch_bend_c, 3, 6597
5, 69290, Pitch_bend_c, 3, 6592
5, 69291, Pitch_bend_c, 3, 6589
5, 69293, Pitch_bend_c, 3, 6585
5, 69295, Pitch_bend_c, 3, 6580
5, 69296, Pitch_bend_c, 3, 6577
5, 69298, Pitch_bend_c, 3, 6572
5, 69300, Pitch_bend_c, 3, 6567
5, 69301, Pitch_bend_c, 3, 6565
5, 69303, Pitch_bend_c, 3, 6560
5, 69305, Pitch_bend_c, 3, 6555
5, 69306, Pitch_bend_c, 3, 6553
5, 69308, Pitch_bend_c, 3, 6548
5, 69310, Pitch_bend_c, 3, 6543
5, 69312, Pitch_bend_c, 3, 6538
5, 69313, Pitch_bend_c, 3, 6535
5, 69315, Pitch_bend_c, 3, 6530
5, 69317, Pitch_bend_c, 3, 6525
5, 69318, Pitch_bend_c, 3, 6523
5, 69320, Pitch_bend_c, 3, 6518
5, 69320, Control_c, 3, 7, 75
5, 69322, Pitch_bend_c, 3, 6513
5, 69323, Pitch_bend_c, 3, 6511
5, 69325, Pitch_bend_c, 3, 6506
5, 69327, Pitch_bend_c, 3, 6501
5, 69328, Pitch_bend_c, 3, 6498
5, 69330, Pitch_bend_c, 3, 6493
5, 69332, Pitch_bend_c, 3, 6489
5, 69333, Pitch_bend_c, 3, 6486
5, 69335, Pitch_bend_c, 3, 6481
5, 69337, Pitch_bend_c, 3, 6476
5, 69338, Pitch_bend_c, 3, 6474
5, 69340, Pitch_bend_c, 3, 6469
5, 69342, Pitch_bend_c, 3, 6464
5, 69343, Pitch_bend_c, 3, 6461
5, 69345, Pitch_bend_c, 3, 6457
5, 69347, Pitch_bend_c, 3, 6452
5, 69348, Pitch_bend_c, 3, 6449
5, 69350, Pitch_bend_c, 3, 6444
5, 69352, Pitch_bend_c, 3, 6439
5, 69353, Pitch_bend_c, 3, 6437
5, 69355, Pitch_bend_c, 3, 6432
5, 69357, Pitch_bend_c, 3, 6427
5, 69359, Pitch_bend_c, 3, 6422
5, 69360, Pitch_bend_c, 3, 6420
5, 69360, Control_c, 3, 7, 74
5, 69362, Pitch_bend_c, 3, 6415
5, 69364, Pitch_bend_c, 3, 6410
5, 69365, Pitch_bend_c, 3, 6407
5, 69367, Pitch_bend_c, 3, 6402
5, 69369, Pitch_bend_c, 3, 6397
5, 69370, Pitch_bend_c, 3, 6395
5, 69372, Pitch_bend_c, 3, 6390
5, 69374, Pitch_bend_c, 3, 6385
5, 69375, Pitch_bend_c, 3, 6383
5, 69377, Pitch_bend_c, 3, 6378
5, 69379, Pitch_bend_c, 3, 6373
5, 69380, Pitch_bend_c, 3, 6370
5, 69382, Pitch_bend_c, 3, 6365
5, 69384, Pitch_bend_c, 3, 6361
5, 69385, Pitch_bend_c, 3, 6358
5, 69387, Pitch_bend_c, 3, 6353
5, 69389, Pitch_bend_c, 3, 6348
5, 69390, Pitch_bend_c, 3, 6346
5, 69392, Pitch_bend_c, 3, 6341
5, 69394, Pitch_bend_c, 3, 6336
5, 69395, Pitch_bend_c, 3, 6333
5, 69397, Pitch_bend_c, 3, 6329
5, 69399, Pitch_bend_c, 3, 6324
5, 69400, Control_c, 3, 7, 73
5, 69401, Pitch_bend_c, 3, 6319
5, 69402, Pitch_bend_c, 3, 6316
5, 69404, Pitch_bend_c, 3, 6311
5, 69406, Pitch_bend_c, 3, 6306
5, 69407, Pitch_bend_c, 3, 6304
5, 69409, Pitch_bend_c, 3, 6299
5, 69411, Pitch_bend_c, 3, 6294
5, 69412, Pitch_bend_c, 3, 6292
5, 69414, Pitch_bend_c, 3, 6287
5, 69416, Pitch_bend_c, 3, 6282
5, 69417, Pitch_bend_c, 3, 6279
5, 69419, Pitch_bend_c, 3, 6274
5, 69421, Pitch_bend_c, 3, 6270
5, 69422, Pitch_bend_c, 3, 6267
5, 69424, Pitch_bend_c, 3, 6262
5, 69426, Pitch_bend_c, 3, 6257
5, 69427, Pitch_bend_c, 3, 6255
5, 69429, Pitch_bend_c, 3, 6250
5, 69431, Pitch_bend_c, 3, 6245
5, 69432, Pitch_bend_c, 3, 6242
5, 69434, Pitch_bend_c, 3, 6238
5, 69436, Pitch_bend_c, 3, 6233
5, 69437, Pitch_bend_c, 3, 6230
5, 69439, Pitch_bend_c, 3, 6225
5, 69440, Control_c, 3, 7, 72
5, 69441, Pitch_bend_c, 3, 6220
5, 69443, Pitch_bend_c, 3, 6215
5, 69444, Pitch_bend_c, 3, 6213
5, 69446, Pitch_bend_c, 3, 6208
5, 69448, Pitch_bend_c, 3, 6203
5, 69449, Pitch_bend_c, 3, 6201
5, 69451, Pitch_bend_c, 3, 6196
5, 69453, Pitch_bend_c, 3, 6191
5, 69454, Pitch_bend_c, 3, 6188
5, 69456, Pitch_bend_c, 3, 6183
5, 69458, Pitch_bend_c, 3, 6178
5, 69459, Pitch_bend_c, 3, 6176
5, 69461, Pitch_bend_c, 3, 6171
5, 69463, Pitch_bend_c, 3, 6166
5, 69464, Pitch_bend_c, 3, 6164
5, 69466, Pitch_bend_c, 3, 6159
5, 69468, Pitch_bend_c, 3, 6154
5, 69469, Pitch_bend_c, 3, 6151
5, 69471, Pitch_bend_c, 3, 6146
5, 69473, Pitch_bend_c, 3, 6142
5, 69474, Pitch_bend_c, 3, 6139
5, 69476, Pitch_bend_c, 3, 6134
5, 69478, Pitch_bend_c, 3, 6129
5, 69479, Pitch_bend_c, 3, 6127
5, 69480, Control_c, 3, 7, 71
5, 69481, Pitch_bend_c, 3, 6122
5, 69483, Pitch_bend_c, 3, 6117
5, 69485, Pitch_bend_c, 3, 6112
5, 69486, Pitch_bend_c, 3, 6110
5, 69488, Pitch_bend_c, 3, 6105
5, 69490, Pitch_bend_c, 3, 6100
5, 69491, Pitch_bend_c, 3, 6097
5, 69493, Pitch_bend_c, 3, 6092
5, 69495, Pitch_bend_c, 3, 6087
5, 69496, Pitch_bend_c, 3, 6085
5, 69498, Pitch_bend_c, 3, 6080
5, 69500, Pitch_bend_c, 3, 6075
5, 69501, Pitch_bend_c, 3, 6073
5, 69503, Pitch_bend_c, 3, 6068
5, 69505, Pitch_bend_c, 3, 6063
5, 69506, Pitch_bend_c, 3, 6060
5, 69508, Pitch_bend_c, 3, 6055
5, 69510, Pitch_bend_c, 3, 6050
5, 69511, Pitch_bend_c, 3, 6048
5, 69513, Pitch_bend_c, 3, 6043
5, 69515, Pitch_bend_c, 3, 6038
5, 69516, Pitch_bend_c, 3, 6036
5, 69518, Pitch_bend_c, 3, 6031
5, 69520, Pitch_bend_c, 3, 6026
5, 69520, Control_c, 3, 7, 70
5, 69521, Pitch_bend_c, 3, 6023
5, 69523, Pitch_bend_c, 3, 6018
5, 69525, Pitch_bend_c, 3, 6014
5, 69527, Pitch_bend_c, 3, 6009
5, 69528, Pitch_bend_c, 3, 6006
5, 69530, Pitch_bend_c, 3, 6001
5, 69532, Pitch_bend_c, 3, 5996
5, 69533, Pitch_bend_c, 3, 5994
5, 69535, Pitch_bend_c, 3, 5989
5, 69537, Pitch_bend_c, 3, 5984
5, 69538, Pitch_bend_c, 3, 5982
5, 69540, Pitch_bend_c, 3, 5977
5, 69542, Pitch_bend_c, 3, 5972
5, 69543, Pitch_bend_c, 3, 5969
5, 69545, Pitch_bend_c, 3, 5964
5, 69547, Pitch_bend_c, 3, 5959
5, 69548, Pitch_bend_c, 3, 5957
5, 69550, Pitch_bend_c, 3, 5952
5, 69552, Pitch_bend_c, 3, 5947
5, 69553, Pitch_bend_c, 3, 5945
5, 69555, Pitch_bend_c, 3, 5940
5, 69557, Pitch_bend_c, 3, 5935
5, 69558, Pitch_bend_c, 3, 5932
5, 69560, Pitch_bend_c, 3, 5927
5, 69560, Control_c, 3, 7, 69
5, 69562, Pitch_bend_c, 3, 5923
5, 69563, Pitch_bend_c, 3, 5920
5, 69565, Pitch_bend_c, 3, 5915
5, 69567, Pitch_bend_c, 3, 5910
5, 69568, Pitch_bend_c, 3, 5908
5, 69570, Pitch_bend_c, 3, 5903
5, 69572, Pitch_bend_c, 3, 5898
5, 69574, Pitch_bend_c, 3, 5893
5, 69575, Pitch_bend_c, 3, 5891
5, 69577, Pitch_bend_c, 3, 5886
5, 69579, Pitch_bend_c, 3, 5881
5, 69580, Pitch_bend_c, 3, 5878
5, 69582, Pitch_bend_c, 3, 5873
5, 69584, Pitch_bend_c, 3, 5868
5, 69585, Pitch_bend_c, 3, 5866
5, 69587, Pitch_bend_c, 3, 5861
5, 69589, Pitch_bend_c, 3, 5856
5, 69590, Pitch_bend_c, 3, 5854
5, 69592, Pitch_bend_c, 3, 5849
5, 69594, Pitch_bend_c, 3, 5844
5, 69595, Pitch_bend_c, 3, 5841
5, 69597, Pitch_bend_c, 3, 5836
5, 69599, Pitch_bend_c, 3, 5831
5, 69600, Pitch_bend_c, 3, 5829
5, 69600, Control_c, 3, 7, 68
5, 69602, Pitch_bend_c, 3, 5824
5, 69604, Pitch_bend_c, 3, 5819
5, 69605, Pitch_bend_c, 3, 5817
5, 69607, Pitch_bend_c, 3, 5812
5, 69609, Pitch_bend_c, 3, 5807
5, 69610, Pitch_bend_c, 3, 5804
5, 69612, Pitch_bend_c, 3, 5799
5, 69614, Pitch_bend_c, 3, 5795
5, 69616, Pitch_bend_c, 3, 5790
5, 69617, Pitch_bend_c, 3, 5787
5, 69619, Pitch_bend_c, 3, 5782
5, 69621, Pitch_bend_c, 3, 5777
5, 69622, Pitch_bend_c, 3, 5775
5, 69624, Pitch_bend_c, 3, 5770
5, 69626, Pitch_bend_c, 3, 5765
5, 69627, Pitch_bend_c, 3, 5763
5, 69629, Pitch_bend_c, 3, 5758
5, 69631, Pitch_bend_c, 3, 5753
5, 69632, Pitch_bend_c, 3, 5750
5, 69634, Pitch_bend_c, 3, 5745
5, 69636, Pitch_bend_c, 3, 5740
5, 69637, Pitch_bend_c, 3, 5738
5, 69639, Pitch_bend_c, 3, 5733
5, 69640, Control_c, 3, 7, 67
5, 69641, Pitch_bend_c, 3, 5728
5, 69642, Pitch_bend_c, 3, 5726
5, 69644, Pitch_bend_c, 3, 5721
5, 69646, Pitch_bend_c, 3, 5716
5, 69647, Pitch_bend_c, 3, 5713
5, 69649, Pitch_bend_c, 3, 5708
5, 69651, Pitch_bend_c, 3, 5703
5, 69652, Pitch_bend_c, 3, 5701
5, 69654, Pitch_bend_c, 3, 5696
5, 69656, Pitch_bend_c, 3, 5691
5, 69658, Pitch_bend_c, 3, 5686
5, 69659, Pitch_bend_c, 3, 5684
5, 69661, Pitch_bend_c, 3, 5679
5, 69663, Pitch_bend_c, 3, 5674
5, 69664, Pitch_bend_c, 3, 5672
5, 69666, Pitch_bend_c, 3, 5667
5, 69668, Pitch_bend_c, 3, 5662
5, 69669, Pitch_bend_c, 3, 5659
5, 69671, Pitch_bend_c, 3, 5654
5, 69673, Pitch_bend_c, 3, 5649
5, 69674, Pitch_bend_c, 3, 5647
5, 69676, Pitch_bend_c, 3, 5642
5, 69678, Pitch_bend_c, 3, 5637
5, 69679, Pitch_bend_c, 3, 5635
5, 69680, Control_c, 3, 7, 66
5, 69681, Pitch_bend_c, 3, 5630
5, 69683, Pitch_bend_c, 3, 5625
5, 69684, Pitch_bend_c, 3, 5622
5, 69686, Pitch_bend_c, 3, 5617
5, 69688, Pitch_bend_c, 3, 5612
5, 69689, Pitch_bend_c, 3, 5610
5, 69691, Pitch_bend_c, 3, 5605
5, 69693, Pitch_bend_c, 3, 5600
5, 69694, Pitch_bend_c, 3, 5598
5, 69696, Pitch_bend_c, 3, 5593
5, 69698, Pitch_bend_c, 3, 5588
5, 69700, Pitch_bend_c, 3, 5583
5, 69701, Pitch_bend_c, 3, 5580
5, 69703, Pitch_bend_c, 3, 5576
5, 69705, Pitch_bend_c, 3, 5571
5, 69706, Pitch_bend_c, 3, 5568
5, 69708, Pitch_bend_c, 3, 5563
5, 69710, Pitch_bend_c, 3, 5558
5, 69711, Pitch_bend_c, 3, 5556
5, 69713, Pitch_bend_c, 3, 5551
5, 69715, Pitch_bend_c, 3, 5546
5, 69716, Pitch_bend_c, 3, 5544
5, 69718, Pitch_bend_c, 3, 5539
5, 69720, Pitch_bend_c, 3, 5534
5, 69720, Control_c, 3, 7, 65
5, 69721, Pitch_bend_c, 3, 5531
5, 69723, Pitch_bend_c, 3, 5526
5, 69725, Pitch_bend_c, 3, 5521
5, 69726, Pitch_bend_c, 3, 5519
5, 69728, Pitch_bend_c, 3, 5514
5, 69730, Pitch_bend_c, 3, 5509
5, 69731, Pitch_bend_c, 3, 5507
5, 69733, Pitch_bend_c, 3, 5502
5, 69735, Pitch_bend_c, 3, 5497
5, 69736, Pitch_bend_c, 3, 5494
5, 69738, Pitch_bend_c, 3, 5489
5, 69740, Pitch_bend_c, 3, 5484
5, 69742, Pitch_bend_c, 3, 5480
5, 69743, Pitch_bend_c, 3, 5477
5, 69745, Pitch_bend_c, 3, 5472
5, 69747, Pitch_bend_c, 3, 5467
5, 69748, Pitch_bend_c, 3, 5465
5, 69750, Pitch_bend_c, 3, 5460
5, 69752, Pitch_bend_c, 3, 5455
5, 69753, Pitch_bend_c, 3, 5452
5, 69755, Pitch_bend_c, 3, 5448
5, 69757, Pitch_bend_c, 3, 5443
5, 69758, Pitch_bend_c, 3, 5440
5, 69760, Pitch_bend_c, 3, 5435
5, 69760, Control_c, 3, 7, 64
5, 69762, Pitch_bend_c, 3, 5430
5, 69763, Pitch_bend_c, 3, 5428
5, 69765, Pitch_bend_c, 3, 5423
5, 69767, Pitch_bend_c, 3, 5418
5, 69768, Pitch_bend_c, 3, 5416
5, 69770, Pitch_bend_c, 3, 5411
5, 69772, Pitch_bend_c, 3, 5406
5, 69773, Pitch_bend_c, 3, 5403
5, 69775, Pitch_bend_c, 3, 5398
5, 69777, Pitch_bend_c, 3, 5393
5, 69778, Pitch_bend_c, 3, 5391
5, 69780, Pitch_bend_c, 3, 5386
5, 69782, Pitch_bend_c, 3, 5381
5, 69783, Pitch_bend_c, 3, 5379
5, 69785, Pitch_bend_c, 3, 5374
5, 69787, Pitch_bend_c, 3, 5369
5, 69789, Pitch_bend_c, 3, 5364
5, 69790, Pitch_bend_c, 3, 5361
5, 69792, Pitch_bend_c, 3, 5357
5, 69794, Pitch_bend_c, 3, 5352
5, 69795, Pitch_bend_c, 3, 5349
5, 69797, Pitch_bend_c, 3, 5344
5, 69799, Pitch_bend_c, 3, 5339
5, 69800, Pitch_bend_c, 3, 5337
5, 69800, Control_c, 3, 7, 63
5, 69802, Pitch_bend_c, 3, 5332
5, 69804, Pitch_bend_c, 3, 5327
5, 69805, Pitch_bend_c, 3, 5325
5, 69807, Pitch_bend_c, 3, 5320
5, 69809, Pitch_bend_c, 3, 5315
5, 69810, Pitch_bend_c, 3, 5312
5, 69812, Pitch_bend_c, 3, 5307
5, 69814, Pitch_bend_c, 3, 5302
5, 69815, Pitch_bend_c, 3, 5300
5, 69817, Pitch_bend_c, 3, 5295
5, 69819, Pitch_bend_c, 3, 5290
5, 69820, Pitch_bend_c, 3, 5288
5, 69822, Pitch_bend_c, 3, 5283
5, 69824, Pitch_bend_c, 3, 5278
5, 69825, Pitch_bend_c, 3, 5275
5, 69827, Pitch_bend_c, 3, 5270
5, 69829, Pitch_bend_c, 3, 5265
5, 69831, Pitch_bend_c, 3, 5261
5, 69832, Pitch_bend_c, 3, 5258
5, 69834, Pitch_bend_c, 3, 5253
5, 69836, Pitch_bend_c, 3, 5248
5, 69837, Pitch_bend_c, 3, 5246
5, 69839, Pitch_bend_c, 3, 5241
5, 69840, Control_c, 3, 7, 62
5, 69841, Pitch_bend_c, 3, 5236
5, 69842, Pitch_bend_c, 3, 5233
5, 69844, Pitch_bend_c, 3, 5229
5, 69846, Pitch_bend_c, 3, 5224
5, 69847, Pitch_bend_c, 3, 5221
5, 69849, Pitch_bend_c, 3, 5216
5, 69851, Pitch_bend_c, 3, 5211
5, 69852, Pitch_bend_c, 3, 5209
5, 69854, Pitch_bend_c, 3, 5204
5, 69856, Pitch_bend_c, 3, 5199
5, 69857, Pitch_bend_c, 3, 5197
5, 69859, Pitch_bend_c, 3, 5192
5, 69861, Pitch_bend_c, 3, 5187
5, 69862, Pitch_bend_c, 3, 5184
5, 69864, Pitch_bend_c, 3, 5179
5, 69866, Pitch_bend_c, 3, 5174
5, 69867, Pitch_bend_c, 3, 5172
5, 69869, Pitch_bend_c, 3, 5167
5, 69871, Pitch_bend_c, 3, 5162
5, 69873, Pitch_bend_c, 3, 5157
5, 69874, Pitch_bend_c, 3, 5155
5, 69876, Pitch_bend_c, 3, 5150
5, 69878, Pitch_bend_c, 3, 5145
5, 69879, Pitch_bend_c, 3, 5142
5, 69880, Control_c, 3, 7, 61
5, 69881, Pitch_bend_c, 3, 5137
5, 69883, Pitch_bend_c, 3, 5133
5, 69884, Pitch_bend_c, 3, 5130
5, 69886, Pitch_bend_c, 3, 5125
5, 69888, Pitch_bend_c, 3, 5120
5, 69889, Pitch_bend_c, 3, 5118
5, 69891, Pitch_bend_c, 3, 5113
5, 69893, Pitch_bend_c, 3, 5108
5, 69894, Pitch_bend_c, 3, 5105
5, 69896, Pitch_bend_c, 3, 5101
5, 69898, Pitch_bend_c, 3, 5096
5, 69899, Pitch_bend_c, 3, 5093
5, 69901, Pitch_bend_c, 3, 5088
5, 69903, Pitch_bend_c, 3, 5083
5, 69904, Pitch_bend_c, 3, 5081
5, 69906, Pitch_bend_c, 3, 5076
5, 69908, Pitch_bend_c, 3, 5071
5, 69909, Pitch_bend_c, 3, 5069
5, 69911, Pitch_bend_c, 3, 5064
5, 69913, Pitch_bend_c, 3, 5059
5, 69915, Pitch_bend_c, 3, 5054
5, 69916, Pitch_bend_c, 3, 5051
5, 69918, Pitch_bend_c, 3, 5046
5, 69920, Pitch_bend_c, 3, 5042
5, 69920, Control_c, 3, 7, 60
5, 69921, Pitch_bend_c, 3, 5039
5, 69923, Pitch_bend_c, 3, 5034
5, 69925, Pitch_bend_c, 3, 5029
5, 69926, Pitch_bend_c, 3, 5027
5, 69928, Pitch_bend_c, 3, 5022
5, 69930, Pitch_bend_c, 3, 5017
5, 69931, Pitch_bend_c, 3, 5014
5, 69933, Pitch_bend_c, 3, 5010
5, 69935, Pitch_bend_c, 3, 5005
5, 69936, Pitch_bend_c, 3, 5002
5, 69938, Pitch_bend_c, 3, 4997
5, 69940, Pitch_bend_c, 3, 4992
5, 69941, Pitch_bend_c, 3, 4990
5, 69943, Pitch_bend_c, 3, 4985
5, 69945, Pitch_bend_c, 3, 4980
5, 69946, Pitch_bend_c, 3, 4978
5, 69948, Pitch_bend_c, 3, 4973
5, 69950, Pitch_bend_c, 3, 4968
5, 69951, Pitch_bend_c, 3, 4965
5, 69953, Pitch_bend_c, 3, 4960
5, 69955, Pitch_bend_c, 3, 4955
5, 69957, Pitch_bend_c, 3, 4950
5, 69958, Pitch_bend_c, 3, 4948
5, 69960, Pitch_bend_c, 3, 4943
5, 69960, Control_c, 3, 7, 59
5, 69962, Pitch_bend_c, 3, 4938
5, 69963, Pitch_bend_c, 3, 4936
5, 69965, Pitch_bend_c, 3, 4931
5, 69967, Pitch_bend_c, 3, 4926
5, 69968, Pitch_bend_c, 3, 4923
5, 69970, Pitch_bend_c, 3, 4918
5, 69972, Pitch_bend_c, 3, 4914
5, 69973, Pitch_bend_c, 3, 4911
5, 69975, Pitch_bend_c, 3, 4906
5, 69977, Pitch_bend_c, 3, 4901
5, 69978, Pitch_bend_c, 3, 4899
5, 69980, Pitch_bend_c, 3, 4894
5, 69982, Pitch_bend_c, 3, 4889
5, 69983, Pitch_bend_c, 3, 4886
5, 69985, Pitch_bend_c, 3, 4882
5, 69987, Pitch_bend_c, 3, 4877
5, 69988, Pitch_bend_c, 3, 4874
5, 69990, Pitch_bend_c, 3, 4869
5, 69992, Pitch_bend_c, 3, 4864
5, 69993, Pitch_bend_c, 3, 4862
5, 69995, Pitch_bend_c, 3, 4857
5, 69997, Pitch_bend_c, 3, 4852
5, 69998, Pitch_bend_c, 3, 4850
5, 70000, Pitch_bend_c, 3, 4845
5, 70000, Control_c, 3, 7, 58
5, 70002, Pitch_bend_c, 3, 4840
5, 70004, Pitch_bend_c, 3, 4835
5, 70005, Pitch_bend_c, 3, 4832
5, 70007, Pitch_bend_c, 3, 4827
5, 70009, Pitch_bend_c, 3, 4822
5, 70010, Pitch_bend_c, 3, 4820
5, 70012, Pitch_bend_c, 3, 4815
5, 70014, Pitch_bend_c, 3, 4810
5, 70015, Pitch_bend_c, 3, 4808
5, 70017, Pitch_bend_c, 3, 4803
5, 70019, Pitch_bend_c, 3, 4798
5, 70020, Pitch_bend_c, 3, 4795
5, 70022, Pitch_bend_c, 3, 4790
5, 70024, Pitch_bend_c, 3, 4786
5, 70025, Pitch_bend_c, 3, 4783
5, 70027, Pitch_bend_c, 3, 4778
5, 70029, Pitch_bend_c, 3, 4773
5, 70030, Pitch_bend_c, 3, 4771
5, 70032, Pitch_bend_c, 3, 4766
5, 70034, Pitch_bend_c, 3, 4761
5, 70035, Pitch_bend_c, 3, 4758
5, 70037, Pitch_bend_c, 3, 4754
5, 70039, Pitch_bend_c, 3, 4749
5, 70040, Pitch_bend_c, 3, 4746
5, 70040, Control_c, 3, 7, 57
5, 70042, Pitch_bend_c, 3, 4741
5, 70044, Pitch_bend_c, 3, 4736
5, 70046, Pitch_bend_c, 3, 4731
5, 70047, Pitch_bend_c, 3, 4729
5, 70049, Pitch_bend_c, 3, 4724
5, 70051, Pitch_bend_c, 3, 4719
5, 70052, Pitch_bend_c, 3, 4717
5, 70054, Pitch_bend_c, 3, 4712
5, 70056, Pitch_bend_c, 3, 4707
5, 70057, Pitch_bend_c, 3, 4704
5, 70059, Pitch_bend_c, 3, 4699
5, 70061, Pitch_bend_c, 3, 4695
5, 70062, Pitch_bend_c, 3, 4692
5, 70064, Pitch_bend_c, 3, 4687
5, 70066, Pitch_bend_c, 3, 4682
5, 70067, Pitch_bend_c, 3, 4680
5, 70069, Pitch_bend_c, 3, 4675
5, 70071, Pitch_bend_c, 3, 4670
5, 70072, Pitch_bend_c, 3, 4667
5, 70074, Pitch_bend_c, 3, 4663
5, 70076, Pitch_bend_c, 3, 4658
5, 70077, Pitch_bend_c, 3, 4655
5, 70079, Pitch_bend_c, 3, 4650
5, 70080, Control_c, 3, 7, 56
5, 70081, Pitch_bend_c, 3, 4645
5, 70082, Pitch_bend_c, 3, 4643
5, 70084, Pitch_bend_c, 3, 4638
5, 70086, Pitch_bend_c, 3, 4633
5, 70088, Pitch_bend_c, 3, 4628
5, 70089, Pitch_bend_c, 3, 4626
5, 70091, Pitch_bend_c, 3, 4621
5, 70093, Pitch_bend_c, 3, 4616
5, 70094, Pitch_bend_c, 3, 4613
5, 70096, Pitch_bend_c, 3, 4608
5, 70098, Pitch_bend_c, 3, 4603
5, 70099, Pitch_bend_c, 3, 4601
5, 70101, Pitch_bend_c, 3, 4596
5, 70103, Pitch_bend_c, 3, 4591
5, 70104, Pitch_bend_c, 3, 4589
5, 70106, Pitch_bend_c, 3, 4584
5, 70108, Pitch_bend_c, 3, 4579
5, 70109, Pitch_bend_c, 3, 4576
5, 70111, Pitch_bend_c, 3, 4571
5, 70113, Pitch_bend_c, 3, 4567
5, 70114, Pitch_bend_c, 3, 4564
5, 70116, Pitch_bend_c, 3, 4559
5, 70118, Pitch_bend_c, 3, 4554
5, 70119, Pitch_bend_c, 3, 4552
5, 70120, Control_c, 3, 7, 55
5, 70121, Pitch_bend_c, 3, 4547
5, 70123, Pitch_bend_c, 3, 4542
5, 70124, Pitch_bend_c, 3, 4539
5, 70126, Pitch_bend_c, 3, 4535
5, 70128, Pitch_bend_c, 3, 4530
5, 70130, Pitch_bend_c, 3, 4525
5, 70131, Pitch_bend_c, 3, 4522
5, 70133, Pitch_bend_c, 3, 4517
5, 70135, Pitch_bend_c, 3, 4512
5, 70136, Pitch_bend_c, 3, 4510
5, 70138, Pitch_bend_c, 3, 4505
5, 70140, Pitch_bend_c, 3, 4500
5, 70141, Pitch_bend_c, 3, 4498
5, 70143, Pitch_bend_c, 3, 4493
5, 70145, Pitch_bend_c, 3, 4488
5, 70146, Pitch_bend_c, 3, 4485
5, 70148, Pitch_bend_c, 3, 4480
5, 70150, Pitch_bend_c, 3, 4475
5, 70151, Pitch_bend_c, 3, 4473
5, 70153, Pitch_bend_c, 3, 4468
5, 70155, Pitch_bend_c, 3, 4463
5, 70156, Pitch_bend_c, 3, 4461
5, 70158, Pitch_bend_c, 3, 4456
5, 70160, Pitch_bend_c, 3, 4451
5, 70160, Control_c, 3, 7, 54
5, 70161, Pitch_bend_c, 3, 4448
5, 70163, Pitch_bend_c, 3, 4443
5, 70165, Pitch_bend_c, 3, 4439
5, 70166, Pitch_bend_c, 3, 4436
5, 70168, Pitch_bend_c, 3, 4431
5, 70170, Pitch_bend_c, 3, 4426
5, 70172, Pitch_bend_c, 3, 4421
5, 70173, Pitch_bend_c, 3, 4419
5, 70175, Pitch_bend_c, 3, 4414
5, 70177, Pitch_bend_c, 3, 4409
5, 70178, Pitch_bend_c, 3, 4407
5, 70180, Pitch_bend_c, 3, 4402
5, 70182, Pitch_bend_c, 3, 4397
5, 70183, Pitch_bend_c, 3, 4394
5, 70185, Pitch_bend_c, 3, 4389
5, 70187, Pitch_bend_c, 3, 4384
5, 70188, Pitch_bend_c, 3, 4382
5, 70190, Pitch_bend_c, 3, 4377
5, 70192, Pitch_bend_c, 3, 4372
5, 70193, Pitch_bend_c, 3, 4370
5, 70195, Pitch_bend_c, 3, 4365
5, 70197, Pitch_bend_c, 3, 4360
5, 70198, Pitch_bend_c, 3, 4357
5, 70200, Pitch_bend_c, 3, 4352
5, 70200, Control_c, 3, 7, 53
5, 70202, Pitch_bend_c, 3, 4348
5, 70203, Pitch_bend_c, 3, 4345
5, 70205, Pitch_bend_c, 3, 4340
5, 70207, Pitch_bend_c, 3, 4335
5, 70208, Pitch_bend_c, 3, 4333
5, 70210, Pitch_bend_c, 3, 4328
5, 70212, Pitch_bend_c, 3, 4323
5, 70213, Pitch_bend_c, 3, 4320
5, 70215, Pitch_bend_c, 3, 4316
5, 70217, Pitch_bend_c, 3, 4311
5, 70219, Pitch_bend_c, 3, 4306
5, 70220, Pitch_bend_c, 3, 4303
5, 70222, Pitch_bend_c, 3, 4298
5, 70224, Pitch_bend_c, 3, 4293
5, 70225, Pitch_bend_c, 3, 4291
5, 70227, Pitch_bend_c, 3, 4286
5, 70229, Pitch_bend_c, 3, 4281
5, 70230, Pitch_bend_c, 3, 4279
5, 70232, Pitch_bend_c, 3, 4274
5, 70234, Pitch_bend_c, 3, 4269
5, 70235, Pitch_bend_c, 3, 4266
5, 70237, Pitch_bend_c, 3, 4261
5, 70239, Pitch_bend_c, 3, 4256
5, 70240, Pitch_bend_c, 3, 4254
5, 70240, Control_c, 3, 7, 52
5, 70242, Pitch_bend_c, 3, 4249
5, 70244, Pitch_bend_c, 3, 4244
5, 70245, Pitch_bend_c, 3, 4242
5, 70247, Pitch_bend_c, 3, 4237
5, 70249, Pitch_bend_c, 3, 4232
5, 70250, Pitch_bend_c, 3, 4229
5, 70252, Pitch_bend_c, 3, 4224
5, 70254, Pitch_bend_c, 3, 4220
5, 70255, Pitch_bend_c, 3, 4217
5, 70257, Pitch_bend_c, 3, 4212
5, 70259, Pitch_bend_c, 3, 4207
5, 70261, Pitch_bend_c, 3, 4202
5, 70262, Pitch_bend_c, 3, 4200
5, 70264, Pitch_bend_c, 3, 4195
5, 70266, Pitch_bend_c, 3, 4190
5, 70267, Pitch_bend_c, 3, 4188
5, 70269, Pitch_bend_c, 3, 4183
5, 70271, Pitch_bend_c, 3, 4178
5, 70272, Pitch_bend_c, 3, 4175
5, 70274, Pitch_bend_c, 3, 4170
5, 70276, Pitch_bend_c, 3, 4165
5, 70277, Pitch_bend_c, 3, 4163
5, 70279, Pitch_bend_c, 3, 4158
5, 70280, Control_c, 3, 7, 51
5, 70281, Pitch_bend_c, 3, 4153
5, 70282, Pitch_bend_c, 3, 4151
5, 70284, Pitch_bend_c, 3, 4146
5, 70286, Pitch_bend_c, 3, 4141
5, 70287, Pitch_bend_c, 3, 4138
5, 70289, Pitch_bend_c, 3, 4133
5, 70291, Pitch_bend_c, 3, 4128
5, 70292, Pitch_bend_c, 3, 4126
5, 70294, Pitch_bend_c, 3, 4121
5, 70296, Pitch_bend_c, 3, 4116
5, 70297, Pitch_bend_c, 3, 4114
5, 70299, Pitch_bend_c, 3, 4109
5, 70301, Pitch_bend_c, 3, 4104
5, 70303, Pitch_bend_c, 3, 4099
5, 70304, Pitch_bend_c, 3, 4097
5, 70306, Pitch_bend_c, 3, 4092
5, 70308, Pitch_bend_c, 3, 4087
5, 70309, Pitch_bend_c, 3, 4084
5, 70311, Pitch_bend_c, 3, 4079
5, 70313, Pitch_bend_c, 3, 4074
5, 70314, Pitch_bend_c, 3, 4072
5, 70316, Pitch_bend_c, 3, 4067
5, 70318, Pitch_bend_c, 3, 4062
5, 70319, Pitch_bend_c, 3, 4060
5, 70320, Control_c, 3, 7, 50
5, 70321, Pitch_bend_c, 3, 4055
5, 70323, Pitch_bend_c, 3, 4050
5, 70324, Pitch_bend_c, 3, 4047
5, 70326, Pitch_bend_c, 3, 4042
5, 70328, Pitch_bend_c, 3, 4037
5, 70329, Pitch_bend_c, 3, 4035
5, 70331, Pitch_bend_c, 3, 4030
5, 70333, Pitch_bend_c, 3, 4025
5, 70334, Pitch_bend_c, 3, 4023
5, 70336, Pitch_bend_c, 3, 4018
5, 70338, Pitch_bend_c, 3, 4013
5, 70339, Pitch_bend_c, 3, 4010
5, 70341, Pitch_bend_c, 3, 4005
5, 70343, Pitch_bend_c, 3, 4001
5, 70345, Pitch_bend_c, 3, 3996
5, 70346, Pitch_bend_c, 3, 3993
5, 70348, Pitch_bend_c, 3, 3988
5, 70350, Pitch_bend_c, 3, 3983
5, 70351, Pitch_bend_c, 3, 3981
5, 70353, Pitch_bend_c, 3, 3976
5, 70355, Pitch_bend_c, 3, 3971
5, 70356, Pitch_bend_c, 3, 3969
5, 70358, Pitch_bend_c, 3, 3964
5, 70360, Pitch_bend_c, 3, 3959
5, 70360, Control_c, 3, 7, 49
5, 70361, Pitch_bend_c, 3, 3956
5, 70363, Pitch_bend_c, 3, 3951
5, 70365, Pitch_bend_c, 3, 3946
5, 70366, Pitch_bend_c, 3, 3944
5, 70368, Pitch_bend_c, 3, 3939
5, 70370, Pitch_bend_c, 3, 3934
5, 70371, Pitch_bend_c, 3, 3932
5, 70373, Pitch_bend_c, 3, 3927
5, 70375, Pitch_bend_c, 3, 3922
5, 70376, Pitch_bend_c, 3, 3919
5, 70378, Pitch_bend_c, 3, 3914
5, 70380, Pitch_bend_c, 3, 3909
5, 70381, Pitch_bend_c, 3, 3907
5, 70383, Pitch_bend_c, 3, 3902
5, 70385, Pitch_bend_c, 3, 3897
5, 70387, Pitch_bend_c, 3, 3892
5, 70388, Pitch_bend_c, 3, 3890
5, 70390, Pitch_bend_c, 3, 3885
5, 70392, Pitch_bend_c, 3, 3880
5, 70393, Pitch_bend_c, 3, 3877
5, 70395, Pitch_bend_c, 3, 3873
5, 70397, Pitch_bend_c, 3, 3868
5, 70398, Pitch_bend_c, 3, 3865
5, 70400, Pitch_bend_c, 3, 3860
5, 70400, Control_c, 3, 7, 48
5, 70402, Pitch_bend_c, 3, 3855
5, 70403, Pitch_bend_c, 3, 3853
5, 70405, Pitch_bend_c, 3, 3848
5, 70407, Pitch_bend_c, 3, 3843
5, 70408, Pitch_bend_c, 3, 3841
5, 70410, Pitch_bend_c, 3, 3836
5, 70412, Pitch_bend_c, 3, 3831
5, 70413, Pitch_bend_c, 3, 3828
5, 70415, Pitch_bend_c, 3, 3823
5, 70417, Pitch_bend_c, 3, 3818
5, 70418, Pitch_bend_c, 3, 3816
5, 70420, Pitch_bend_c, 3, 3811
5, 70422, Pitch_bend_c, 3, 3806
5, 70423, Pitch_bend_c, 3, 3804
5, 70425, Pitch_bend_c, 3, 3799
5, 70427, Pitch_bend_c, 3, 3794
5, 70428, Pitch_bend_c, 3, 3791
5, 70430, Pitch_bend_c, 3, 3786
5, 70432, Pitch_bend_c, 3, 3782
5, 70434, Pitch_bend_c, 3, 3777
5, 70435, Pitch_bend_c, 3, 3774
5, 70437, Pitch_bend_c, 3, 3769
5, 70439, Pitch_bend_c, 3, 3764
5, 70440, Pitch_bend_c, 3, 3762
5, 70440, Control_c, 3, 7, 47
5, 70442, Pitch_bend_c, 3, 3757
5, 70444, Pitch_bend_c, 3, 3752
5, 70445, Pitch_bend_c, 3, 3750
5, 70447, Pitch_bend_c, 3, 3745
5, 70449, Pitch_bend_c, 3, 3740
5, 70450, Pitch_bend_c, 3, 3737
5, 70452, Pitch_bend_c, 3, 3732
5, 70454, Pitch_bend_c, 3, 3727
5, 70455, Pitch_bend_c, 3, 3725
5, 70457, Pitch_bend_c, 3, 3720
5, 70459, Pitch_bend_c, 3, 3715
5, 70460, Pitch_bend_c, 3, 3713
5, 70462, Pitch_bend_c, 3, 3708
5, 70464, Pitch_bend_c, 3, 3703
5, 70465, Pitch_bend_c, 3, 3700
5, 70467, Pitch_bend_c, 3, 3695
5, 70469, Pitch_bend_c, 3, 3690
5, 70470, Pitch_bend_c, 3, 3688
5, 70472, Pitch_bend_c, 3, 3683
5, 70474, Pitch_bend_c, 3, 3678
5, 70476, Pitch_bend_c, 3, 3673
5, 70477, Pitch_bend_c, 3, 3671
5, 70479, Pitch_bend_c, 3, 3666
5, 70480, Control_c, 3, 7, 46
5, 70481, Pitch_bend_c, 3, 3661
5, 70482, Pitch_bend_c, 3, 3658
5, 70484, Pitch_bend_c, 3, 3654
5, 70486, Pitch_bend_c, 3, 3649
5, 70487, Pitch_bend_c, 3, 3646
5, 70489, Pitch_bend_c, 3, 3641
5, 70491, Pitch_bend_c, 3, 3636
5, 70492, Pitch_bend_c, 3, 3634
5, 70494, Pitch_bend_c, 3, 3629
5, 70496, Pitch_bend_c, 3, 3624
5, 70497, Pitch_bend_c, 3, 3622
5, 70499, Pitch_bend_c, 3, 3617
5, 70501, Pitch_bend_c, 3, 3612
5, 70502, Pitch_bend_c, 3, 3609
5, 70504, Pitch_bend_c, 3, 3604
5, 70506, Pitch_bend_c, 3, 3599
5, 70507, Pitch_bend_c, 3, 3597
5, 70509, Pitch_bend_c, 3, 3592
5, 70511, Pitch_bend_c, 3, 3587
5, 70512, Pitch_bend_c, 3, 3585
5, 70514, Pitch_bend_c, 3, 3580
5, 70516, Pitch_bend_c, 3, 3575
5, 70518, Pitch_bend_c, 3, 3570
5, 70519, Pitch_bend_c, 3, 3567
5, 70520, Control_c, 3, 7, 45
5, 70521, Pitch_bend_c, 3, 3562
5, 70523, Pitch_bend_c, 3, 3558
5, 70524, Pitch_bend_c, 3, 3555
5, 70526, Pitch_bend_c, 3, 3550
5, 70528, Pitch_bend_c, 3, 3545
5, 70529, Pitch_bend_c, 3, 3543
5, 70531, Pitch_bend_c, 3, 3538
5, 70533, Pitch_bend_c, 3, 3533
5, 70534, Pitch_bend_c, 3, 3530
5, 70536, Pitch_bend_c, 3, 3526
5, 70538, Pitch_bend_c, 3, 3521
5, 70539, Pitch_bend_c, 3, 3518
5, 70541, Pitch_bend_c, 3, 3513
5, 70543, Pitch_bend_c, 3, 3508
5, 70544, Pitch_bend_c, 3, 3506
5, 70546, Pitch_bend_c, 3, 3501
5, 70548, Pitch_bend_c, 3, 3496
5, 70549, Pitch_bend_c, 3, 3494
5, 70551, Pitch_bend_c, 3, 3489
5, 70553, Pitch_bend_c, 3, 3484
5, 70554, Pitch_bend_c, 3, 3481
5, 70556, Pitch_bend_c, 3, 3476
5, 70558, Pitch_bend_c, 3, 3471
5, 70560, Pitch_bend_c, 3, 3467
5, 70560, Control_c, 3, 7, 44
5, 70561, Pitch_bend_c, 3, 3464
5, 70563, Pitch_bend_c, 3, 3459
5, 70565, Pitch_bend_c, 3, 3454
5, 70566, Pitch_bend_c, 3, 3452
5, 70568, Pitch_bend_c, 3, 3447
5, 70570, Pitch_bend_c, 3, 3442
5, 70571, Pitch_bend_c, 3, 3439
5, 70573, Pitch_bend_c, 3, 3435
5, 70575, Pitch_bend_c, 3, 3430
5, 70576, Pitch_bend_c, 3, 3427
5, 70578, Pitch_bend_c, 3, 3422
5, 70580, Pitch_bend_c, 3, 3417
5, 70581, Pitch_bend_c, 3, 3415
5, 70583, Pitch_bend_c, 3, 3410
5, 70585, Pitch_bend_c, 3, 3405
5, 70586, Pitch_bend_c, 3, 3403
5, 70588, Pitch_bend_c, 3, 3398
5, 70590, Pitch_bend_c, 3, 3393
5, 70591, Pitch_bend_c, 3, 3390
5, 70593, Pitch_bend_c, 3, 3385
5, 70595, Pitch_bend_c, 3, 3380
5, 70596, Pitch_bend_c, 3, 3378
5, 70598, Pitch_bend_c, 3, 3373
5, 70600, Pitch_bend_c, 3, 3368
5, 70600, Control_c, 3, 7, 43
5, 70602, Pitch_bend_c, 3, 3363
5, 70603, Pitch_bend_c, 3, 3361
5, 70605, Pitch_bend_c, 3, 3356
5, 70607, Pitch_bend_c, 3, 3351
5, 70608, Pitch_bend_c, 3, 3348
5, 70610, Pitch_bend_c, 3, 3343
5, 70612, Pitch_bend_c, 3, 3339
5, 70613, Pitch_bend_c, 3, 3336
5, 70615, Pitch_bend_c, 3, 3331
5, 70617, Pitch_bend_c, 3, 3326
5, 70618, Pitch_bend_c, 3, 3324
5, 70620, Pitch_bend_c, 3, 3319
5, 70622, Pitch_bend_c, 3, 3314
5, 70623, Pitch_bend_c, 3, 3311
5, 70625, Pitch_bend_c, 3, 3307
5, 70627, Pitch_bend_c, 3, 3302
5, 70628, Pitch_bend_c, 3, 3299
5, 70630, Pitch_bend_c, 3, 3294
5, 70632, Pitch_bend_c, 3, 3289
5, 70633, Pitch_bend_c, 3, 3287
5, 70635, Pitch_bend_c, 3, 3282
5, 70637, Pitch_bend_c, 3, 3277
5, 70638, Pitch_bend_c, 3, 3275
5, 70640, Pitch_bend_c, 3, 3270
5, 70640, Control_c, 3, 7, 42
5, 70642, Pitch_bend_c, 3, 3265
5, 70643, Pitch_bend_c, 3, 3262
5, 70645, Pitch_bend_c, 3, 3257
5, 70647, Pitch_bend_c, 3, 3252
5, 70649, Pitch_bend_c, 3, 3247
5, 70650, Pitch_bend_c, 3, 3245
5, 70652, Pitch_bend_c, 3, 3240
5, 70654, Pitch_bend_c, 3, 3235
5, 70655, Pitch_bend_c, 3, 3233
5, 70657, Pitch_bend_c, 3, 3228
5, 70659, Pitch_bend_c, 3, 3223
5, 70660, Pitch_bend_c, 3, 3220
5, 70662, Pitch_bend_c, 3, 3215
5, 70664, Pitch_bend_c, 3, 3211
5, 70665, Pitch_bend_c, 3, 3208
5, 70667, Pitch_bend_c, 3, 3203
5, 70669, Pitch_bend_c, 3, 3198
5, 70670, Pitch_bend_c, 3, 3196
5, 70672, Pitch_bend_c, 3, 3191
5, 70674, Pitch_bend_c, 3, 3186
5, 70675, Pitch_bend_c, 3, 3183
5, 70677, Pitch_bend_c, 3, 3179
5, 70679, Pitch_bend_c, 3, 3174
5, 70680, Pitch_bend_c, 3, 3171
5, 70680, Control_c, 3, 7, 41
5, 70682, Pitch_bend_c, 3, 3166
5, 70684, Pitch_bend_c, 3, 3161
5, 70685, Pitch_bend_c, 3, 3159
5, 70687, Pitch_bend_c, 3, 3154
5, 70689, Pitch_bend_c, 3, 3149
5, 70691, Pitch_bend_c, 3, 3144
5, 70692, Pitch_bend_c, 3, 3142
5, 70694, Pitch_bend_c, 3, 3137
5, 70696, Pitch_bend_c, 3, 3132
5, 70697, Pitch_bend_c, 3, 3129
5, 70699, Pitch_bend_c, 3, 3124
5, 70701, Pitch_bend_c, 3, 3120
5, 70702, Pitch_bend_c, 3, 3117
5, 70704, Pitch_bend_c, 3, 3112
5, 70706, Pitch_bend_c, 3, 3107
5, 70707, Pitch_bend_c, 3, 3105
5, 70709, Pitch_bend_c, 3, 3100
5, 70711, Pitch_bend_c, 3, 3095
5, 70712, Pitch_bend_c, 3, 3092
5, 70714, Pitch_bend_c, 3, 3088
5, 70716, Pitch_bend_c, 3, 3083
5, 70717, Pitch_bend_c, 3, 3080
5, 70719, Pitch_bend_c, 3, 3075
5, 70720, Control_c, 3, 7, 40
5, 70721, Pitch_bend_c, 3, 3070
5, 70722, Pitch_bend_c, 3, 3068
5, 70724, Pitch_bend_c, 3, 3063
5, 70726, Pitch_bend_c, 3, 3058
5, 70727, Pitch_bend_c, 3, 3056
5, 70729, Pitch_bend_c, 3, 3051
5, 70731, Pitch_bend_c, 3, 3046
5, 70733, Pitch_bend_c, 3, 3041
5, 70734, Pitch_bend_c, 3, 3038
5, 70736, Pitch_bend_c, 3, 3033
5, 70738, Pitch_bend_c, 3, 3028
5, 70739, Pitch_bend_c, 3, 3026
5, 70741, Pitch_bend_c, 3, 3021
5, 70743, Pitch_bend_c, 3, 3016
5, 70744, Pitch_bend_c, 3, 3014
5, 70746, Pitch_bend_c, 3, 3009
5, 70748, Pitch_bend_c, 3, 3004
5, 70749, Pitch_bend_c, 3, 3001
5, 70751, Pitch_bend_c, 3, 2996
5, 70753, Pitch_bend_c, 3, 2992
5, 70754, Pitch_bend_c, 3, 2989
5, 70756, Pitch_bend_c, 3, 2984
5, 70758, Pitch_bend_c, 3, 2979
5, 70759, Pitch_bend_c, 3, 2977
5, 70760, Control_c, 3, 7, 39
5, 70761, Pitch_bend_c, 3, 2972
5, 70763, Pitch_bend_c, 3, 2967
5, 70764, Pitch_bend_c, 3, 2964
5, 70766, Pitch_bend_c, 3, 2960
5, 70768, Pitch_bend_c, 3, 2955
5, 70769, Pitch_bend_c, 3, 2952
5, 70771, Pitch_bend_c, 3, 2947
5, 70773, Pitch_bend_c, 3, 2942
5, 70775, Pitch_bend_c, 3, 2937
5, 70776, Pitch_bend_c, 3, 2935
5, 70778, Pitch_bend_c, 3, 2930
5, 70780, Pitch_bend_c, 3, 2925
5, 70781, Pitch_bend_c, 3, 2923
5, 70783, Pitch_bend_c, 3, 2918
5, 70785, Pitch_bend_c, 3, 2913
5, 70786, Pitch_bend_c, 3, 2910
5, 70788, Pitch_bend_c, 3, 2905
5, 70790, Pitch_bend_c, 3, 2900
5, 70791, Pitch_bend_c, 3, 2898
5, 70793, Pitch_bend_c, 3, 2893
5, 70795, Pitch_bend_c, 3, 2888
5, 70796, Pitch_bend_c, 3, 2886
5, 70798, Pitch_bend_c, 3, 2881
5, 70800, Pitch_bend_c, 3, 2876
5, 70800, Control_c, 3, 7, 38
5, 70801, Pitch_bend_c, 3, 2873
5, 70803, Pitch_bend_c, 3, 2868
5, 70805, Pitch_bend_c, 3, 2864
5, 70806, Pitch_bend_c, 3, 2861
5, 70808, Pitch_bend_c, 3, 2856
5, 70810, Pitch_bend_c, 3, 2851
5, 70811, Pitch_bend_c, 3, 2849
5, 70813, Pitch_bend_c, 3, 2844
5, 70815, Pitch_bend_c, 3, 2839
5, 70817, Pitch_bend_c, 3, 2834
5, 70818, Pitch_bend_c, 3, 2832
5, 70820, Pitch_bend_c, 3, 2827
5, 70822, Pitch_bend_c, 3, 2822
5, 70823, Pitch_bend_c, 3, 2819
5, 70825, Pitch_bend_c, 3, 2814
5, 70827, Pitch_bend_c, 3, 2809
5, 70828, Pitch_bend_c, 3, 2807
5, 70830, Pitch_bend_c, 3, 2802
5, 70832, Pitch_bend_c, 3, 2797
5, 70833, Pitch_bend_c, 3, 2795
5, 70835, Pitch_bend_c, 3, 2790
5, 70837, Pitch_bend_c, 3, 2785
5, 70838, Pitch_bend_c, 3, 2782
5, 70840, Pitch_bend_c, 3, 2777
5, 70840, Control_c, 3, 7, 37
5, 70842, Pitch_bend_c, 3, 2773
5, 70843, Pitch_bend_c, 3, 2770
5, 70845, Pitch_bend_c, 3, 2765
5, 70847, Pitch_bend_c, 3, 2760
5, 70848, Pitch_bend_c, 3, 2758
5, 70850, Pitch_bend_c, 3, 2753
5, 70852, Pitch_bend_c, 3, 2748
5, 70853, Pitch_bend_c, 3, 2745
5, 70855, Pitch_bend_c, 3, 2741
5, 70857, Pitch_bend_c, 3, 2736
5, 70858, Pitch_bend_c, 3, 2733
5, 70860, Pitch_bend_c, 3, 2728
5, 70862, Pitch_bend_c, 3, 2723
5, 70864, Pitch_bend_c, 3, 2718
5, 70865, Pitch_bend_c, 3, 2716
5, 70867, Pitch_bend_c, 3, 2711
5, 70869, Pitch_bend_c, 3, 2706
5, 70870, Pitch_bend_c, 3, 2704
5, 70872, Pitch_bend_c, 3, 2699
5, 70874, Pitch_bend_c, 3, 2694
5, 70875, Pitch_bend_c, 3, 2691
5, 70877, Pitch_bend_c, 3, 2686
5, 70879, Pitch_bend_c, 3, 2681
5, 70880, Pitch_bend_c, 3, 2679
5, 70880, Control_c, 3, 7, 36
5, 70882, Pitch_bend_c, 3, 2674
5, 70884, Pitch_bend_c, 3, 2669
5, 70885, Pitch_bend_c, 3, 2667
5, 70887, Pitch_bend_c, 3, 2662
5, 70889, Pitch_bend_c, 3, 2657
5, 70890, Pitch_bend_c, 3, 2654
5, 70892, Pitch_bend_c, 3, 2649
5, 70894, Pitch_bend_c, 3, 2645
5, 70895, Pitch_bend_c, 3, 2642
5, 70897, Pitch_bend_c, 3, 2637
5, 70899, Pitch_bend_c, 3, 2632
5, 70900, Pitch_bend_c, 3, 2630
5, 70902, Pitch_bend_c, 3, 2625
5, 70904, Pitch_bend_c, 3, 2620
5, 70906, Pitch_bend_c, 3, 2615
5, 70907, Pitch_bend_c, 3, 2613
5, 70909, Pitch_bend_c, 3, 2608
5, 70911, Pitch_bend_c, 3, 2603
5, 70912, Pitch_bend_c, 3, 2600
5, 70914, Pitch_bend_c, 3, 2595
5, 70916, Pitch_bend_c, 3, 2590
5, 70917, Pitch_bend_c, 3, 2588
5, 70919, Pitch_bend_c, 3, 2583
5, 70920, Control_c, 3, 7, 35
5, 70921, Pitch_bend_c, 3, 2578
5, 70922, Pitch_bend_c, 3, 2576
5, 70924, Pitch_bend_c, 3, 2571
5, 70926, Pitch_bend_c, 3, 2566
5, 70927, Pitch_bend_c, 3, 2563
5, 70929, Pitch_bend_c, 3, 2558
5, 70931, Pitch_bend_c, 3, 2553
5, 70932, Pitch_bend_c, 3, 2551
5, 70934, Pitch_bend_c, 3, 2546
5, 70936, Pitch_bend_c, 3, 2541
5, 70937, Pitch_bend_c, 3, 2539
5, 70939, Pitch_bend_c, 3, 2534
5, 70941, Pitch_bend_c, 3, 2529
5, 70942, Pitch_bend_c, 3, 2526
5, 70944, Pitch_bend_c, 3, 2522
5, 70946, Pitch_bend_c, 3, 2517
5, 70948, Pitch_bend_c, 3, 2512
5, 70949, Pitch_bend_c, 3, 2509
5, 70951, Pitch_bend_c, 3, 2504
5, 70953, Pitch_bend_c, 3, 2499
5, 70954, Pitch_bend_c, 3, 2497
5, 70956, Pitch_bend_c, 3, 2492
5, 70958, Pitch_bend_c, 3, 2487
5, 70959, Pitch_bend_c, 3, 2485
5, 70960, Control_c, 3, 7, 34
5, 70961, Pitch_bend_c, 3, 2480
5, 70963, Pitch_bend_c, 3, 2475
5, 70964, Pitch_bend_c, 3, 2472
5, 70966, Pitch_bend_c, 3, 2467
5, 70968, Pitch_bend_c, 3, 2462
5, 70969, Pitch_bend_c, 3, 2460
5, 70971, Pitch_bend_c, 3, 2455
5, 70973, Pitch_bend_c, 3, 2450
5, 70974, Pitch_bend_c, 3, 2448
5, 70976, Pitch_bend_c, 3, 2443
5, 70978, Pitch_bend_c, 3, 2438
5, 70979, Pitch_bend_c, 3, 2435
5, 70981, Pitch_bend_c, 3, 2430
5, 70983, Pitch_bend_c, 3, 2426
5, 70984, Pitch_bend_c, 3, 2423
5, 70986, Pitch_bend_c, 3, 2418
5, 70988, Pitch_bend_c, 3, 2413
5, 70990, Pitch_bend_c, 3, 2408
5, 70991, Pitch_bend_c, 3, 2406
5, 70993, Pitch_bend_c, 3, 2401
5, 70995, Pitch_bend_c, 3, 2396
5, 70996, Pitch_bend_c, 3, 2394
5, 70998, Pitch_bend_c, 3, 2389
5, 71000, Pitch_bend_c, 3, 2384
5, 71000, Control_c, 3, 7, 33
5, 71001, Pitch_bend_c, 3, 2381
5, 71003, Pitch_bend_c, 3, 2376
5, 71005, Pitch_bend_c, 3, 2371
5, 71006, Pitch_bend_c, 3, 2369
5, 71008, Pitch_bend_c, 3, 2364
5, 71010, Pitch_bend_c, 3, 2359
5, 71011, Pitch_bend_c, 3, 2357
5, 71013, Pitch_bend_c, 3, 2352
5, 71015, Pitch_bend_c, 3, 2347
5, 71016, Pitch_bend_c, 3, 2344
5, 71018, Pitch_bend_c, 3, 2339
5, 71020, Pitch_bend_c, 3, 2334
5, 71021, Pitch_bend_c, 3, 2332
5, 71023, Pitch_bend_c, 3, 2327
5, 71025, Pitch_bend_c, 3, 2322
5, 71026, Pitch_bend_c, 3, 2320
5, 71028, Pitch_bend_c, 3, 2315
5, 71030, Pitch_bend_c, 3, 2310
5, 71031, Pitch_bend_c, 3, 2304
5, 71034, Note_off_c, 3, 50, 64
5, 71039, Control_c, 3, 7, 32
5, 71040, Control_c, 3, 7, 114
5, 71040, Pitch_bend_c, 3, 8192
5, 71040, Note_on_c, 3, 45, 127
5, 71040, Note_on_c, 3, 33, 127
5, 71159, Note_off_c, 3, 45, 64
5, 71159, Note_off_c, 3, 33, 64
5, 71280, Note_on_c, 3, 45, 127
5, 71280, Note_on_c, 3, 33, 127
5, 71399, Note_off_c, 3, 45, 64
5, 71399, Note_off_c, 3, 33, 64
5, 71520, Note_on_c, 3, 45, 127
5, 71520, Note_on_c, 3, 33, 127
5, 71639, Note_off_c, 3, 45, 64
5, 71639, Note_off_c, 3, 33, 64
5, 71760, Note_on_c, 3, 45, 127
5, 71760, Note_on_c, 3, 33, 127
5, 71879, Note_off_c, 3, 45, 64
5, 71879, Note_off_c, 3, 33, 64
5, 72000, Note_on_c, 3, 43, 127
5, 72000, Note_on_c, 3, 31, 127
5, 72119, Note_off_c, 3, 43, 64
5, 72119, Note_off_c, 3, 31, 64
5, 72240, Note_on_c, 3, 43, 127
5, 72240, Note_on_c, 3, 31, 127
5, 72359, Note_off_c, 3, 43, 64
5, 72359, Note_off_c, 3, 31, 64
5, 72480, Note_on_c, 3, 43, 127
5, 72480, Note_on_c, 3, 31, 127
5, 72599, Note_off_c, 3, 43, 64
5, 72599, Note_off_c, 3, 31, 64
5, 72720, Note_on_c, 3, 43, 127
5, 72720, Note_on_c, 3, 31, 127
5, 72839, Note_off_c, 3, 43, 64
5, 72839, Note_off_c, 3, 31, 64
5, 72960, Note_on_c, 3, 41, 127
5, 72960, Note_on_c, 3, 29, 127
5, 73079, Note_off_c, 3, 41, 64
5, 73079, Note_off_c, 3, 29, 64
5, 73200, Note_on_c, 3, 41, 127
5, 73200, Note_on_c, 3, 29, 127
5, 73319, Note_off_c, 3, 41, 64
5, 73319, Note_off_c, 3, 29, 64
5, 73440, Note_on_c, 3, 41, 127
5, 73440, Note_on_c, 3, 29, 127
5, 73559, Note_off_c, 3, 41, 64
5, 73559, Note_off_c, 3, 29, 64
5, 73680, Note_on_c, 3, 41, 127
5, 73680, Note_on_c, 3, 29, 127
5, 73799, Note_off_c, 3, 41, 64
5, 73799, Note_off_c, 3, 29, 64
5, 73920, Note_on_c, 3, 40, 127
5, 73920, Note_on_c, 3, 28, 127
5, 74039, Note_off_c, 3, 40, 64
5, 74039, Note_off_c, 3, 28, 64
5, 74160, Note_on_c, 3, 40, 127
5, 74160, Note_on_c, 3, 28, 127
5, 74279, Note_off_c, 3, 40, 64
5, 74279, Note_off_c, 3, 28, 64
5, 74400, Note_on_c, 3, 40, 127
5, 74400, Note_on_c, 3, 28, 127
5, 74519, Note_off_c, 3, 40, 64
5, 74519, Note_off_c, 3, 28, 64
5, 74640, Note_on_c, 3, 40, 127
5, 74640, Note_on_c, 3, 28, 127
5, 74759, Note_off_c, 3, 40, 64
5, 74759, Note_off_c, 3, 28, 64
5, 74880, Note_on_c, 3, 38, 127
5, 74880, Note_on_c, 3, 26, 127
5, 74999, Note_off_c, 3, 38, 64
5, 74999, Note_off_c, 3, 26, 64
5, 75120, Note_on_c, 3, 38, 127
5, 75120, Note_on_c, 3, 26, 127
5, 75239, Note_off_c, 3, 38, 64
5, 75239, Note_off_c, 3, 26, 64
5, 75360, Note_on_c, 3, 38, 127
5, 75360, Note_on_c, 3, 26, 127
5, 75479, Note_off_c, 3, 38, 64
5, 75479, Note_off_c, 3, 26, 64
5, 75600, Note_on_c, 3, 38, 127
5, 75600, Note_on_c, 3, 26, 127
5, 75719, Note_off_c, 3, 38, 64
5, 75719, Note_off_c, 3, 26, 64
5, 75840, Note_on_c, 3, 48, 127
5, 75840, Note_on_c, 3, 36, 127
5, 75959, Note_off_c, 3, 48, 64
5, 75959, Note_off_c, 3, 36, 64
5, 76080, Note_on_c, 3, 48, 127
5, 76080, Note_on_c, 3, 36, 127
5, 76199, Note_off_c, 3, 48, 64
5, 76199, Note_off_c, 3, 36, 64
5, 76320, Note_on_c, 3, 48, 127
5, 76320, Note_on_c, 3, 36, 127
5, 76439, Note_off_c, 3, 48, 64
5, 76439, Note_off_c, 3, 36, 64
5, 76560, Note_on_c, 3, 48, 127
5, 76560, Note_on_c, 3, 36, 127
5, 76679, Note_off_c, 3, 48, 64
5, 76679, Note_off_c, 3, 36, 64
5, 76800, Note_on_c, 3, 47, 127
5, 76800, Note_on_c, 3, 35, 127
5, 76919, Note_off_c, 3, 47, 64
5, 76919, Note_off_c, 3, 35, 64
5, 77040, Note_on_c, 3, 47, 127
5, 77040, Note_on_c, 3, 35, 127
5, 77159, Note_off_c, 3, 47, 64
5, 77159, Note_off_c, 3, 35, 64
5, 77280, Note_on_c, 3, 47, 127
5, 77280, Note_on_c, 3, 35, 127
5, 77399, Note_off_c, 3, 47, 64
5, 77399, Note_off_c, 3, 35, 64
5, 77520, Note_on_c, 3, 47, 127
5, 77520, Note_on_c, 3, 35, 127
5, 77639, Note_off_c, 3, 47, 64
5, 77639, Note_off_c, 3, 35, 64
5, 77760, Note_on_c, 3, 45, 127
5, 77760, Note_on_c, 3, 33, 127
5, 77879, Note_off_c, 3, 45, 64
5, 77879, Note_off_c, 3, 33, 64
5, 78000, Note_on_c, 3, 45, 127
5, 78000, Note_on_c, 3, 33, 127
5, 78119, Note_off_c, 3, 45, 64
5, 78119, Note_off_c, 3, 33, 64
5, 78240, Note_on_c, 3, 45, 127
5, 78240, Note_on_c, 3, 33, 127
5, 78359, Note_off_c, 3, 45, 64
5, 78359, Note_off_c, 3, 33, 64
5, 78480, Note_on_c, 3, 45, 127
5, 78480, Note_on_c, 3, 33, 127
5, 78599, Note_off_c, 3, 45, 64
5, 78599, Note_off_c, 3, 33, 64
5, 78720, Note_on_c, 3, 43, 127
5, 78720, Note_on_c, 3, 31, 127
5, 78839, Note_off_c, 3, 43, 64
5, 78839, Note_off_c, 3, 31, 64
5, 78960, Note_on_c, 3, 43, 127
5, 78960, Note_on_c, 3, 31, 127
5, 79079, Note_off_c, 3, 43, 64
5, 79079, Note_off_c, 3, 31, 64
5, 79200, Note_on_c, 3, 43, 127
5, 79200, Note_on_c, 3, 31, 127
5, 79319, Note_off_c, 3, 43, 64
5, 79319, Note_off_c, 3, 31, 64
5, 79440, Note_on_c, 3, 43, 127
5, 79440, Note_on_c, 3, 31, 127
5, 79559, Note_off_c, 3, 43, 64
5, 79559, Note_off_c, 3, 31, 64
5, 79680, Note_on_c, 3, 41, 127
5, 79680, Note_on_c, 3, 29, 127
5, 79799, Note_off_c, 3, 41, 64
5, 79799, Note_off_c, 3, 29, 64
5, 79920, Note_on_c, 3, 41, 127
5, 79920, Note_on_c, 3, 29, 127
5, 80039, Note_off_c, 3, 41, 64
5, 80039, Note_off_c, 3, 29, 64
5, 80160, Note_on_c, 3, 41, 127
5, 80160, Note_on_c, 3, 29, 127
5, 80279, Note_off_c, 3, 41, 64
5, 80279, Note_off_c, 3, 29, 64
5, 80400, Note_on_c, 3, 41, 127
5, 80400, Note_on_c, 3, 29, 127
5, 80519, Note_off_c, 3, 41, 64
5, 80519, Note_off_c, 3, 29, 64
5, 80640, Note_on_c, 3, 40, 127
5, 80640, Note_on_c, 3, 28, 127
5, 80759, Note_off_c, 3, 40, 64
5, 80759, Note_off_c, 3, 28, 64
5, 80880, Note_on_c, 3, 40, 127
5, 80880, Note_on_c, 3, 28, 127
5, 80999, Note_off_c, 3, 40, 64
5, 80999, Note_off_c, 3, 28, 64
5, 81120, Note_on_c, 3, 40, 127
5, 81120, Note_on_c, 3, 28, 127
5, 81239, Note_off_c, 3, 40, 64
5, 81239, Note_off_c, 3, 28, 64
5, 81360, Note_on_c, 3, 40, 127
5, 81360, Note_on_c, 3, 28, 127
5, 81479, Note_off_c, 3, 40, 64
5, 81479, Note_off_c, 3, 28, 64
5, 81600, Note_on_c, 3, 38, 127
5, 81600, Note_on_c, 3, 26, 127
5, 81719, Note_off_c, 3, 38, 64
5, 81719, Note_off_c, 3, 26, 64
5, 81840, Note_on_c, 3, 38, 127
5, 81840, Note_on_c, 3, 26, 127
5, 81959, Note_off_c, 3, 38, 64
5, 81959, Note_off_c, 3, 26, 64
5, 82080, Note_on_c, 3, 38, 127
5, 82080, Note_on_c, 3, 26, 127
5, 82199, Note_off_c, 3, 38, 64
5, 82199, Note_off_c, 3, 26, 64
5, 82320, Note_on_c, 3, 38, 127
5, 82320, Note_on_c, 3, 26, 127
5, 82439, Note_off_c, 3, 38, 64
5, 82439, Note_off_c, 3, 26, 64
5, 82560, Note_on_c, 3, 48, 127
5, 82560, Note_on_c, 3, 36, 127
5, 82679, Note_off_c, 3, 48, 64
5, 82679, Note_off_c, 3, 36, 64
5, 82800, Note_on_c, 3, 48, 127
5, 82800, Note_on_c, 3, 36, 127
5, 82919, Note_off_c, 3, 48, 64
5, 82919, Note_off_c, 3, 36, 64
5, 83040, Note_on_c, 3, 48, 127
5, 83040, Note_on_c, 3, 36, 127
5, 83159, Note_off_c, 3, 48, 64
5, 83159, Note_off_c, 3, 36, 64
5, 83280, Note_on_c, 3, 48, 127
5, 83280, Note_on_c, 3, 36, 127
5, 83399, Note_off_c, 3, 48, 64
5, 83399, Note_off_c, 3, 36, 64
5, 83520, Note_on_c, 3, 47, 127
5, 83520, Note_on_c, 3, 35, 127
5, 83639, Note_off_c, 3, 47, 64
5, 83639, Note_off_c, 3, 35, 64
5, 83760, Note_on_c, 3, 47, 127
5, 83760, Note_on_c, 3, 35, 127
5, 83879, Note_off_c, 3, 47, 64
5, 83879, Note_off_c, 3, 35, 64
5, 84000, Note_on_c, 3, 47, 127
5, 84000, Note_on_c, 3, 35, 127
5, 84119, Note_off_c, 3, 47, 64
5, 84119, Note_off_c, 3, 35, 64
5, 84240, Note_on_c, 3, 47, 127
5, 84240, Note_on_c, 3, 35, 127
5, 84359, Note_off_c, 3, 47, 64
5, 84359, Note_off_c, 3, 35, 64
5, 84480, Note_on_c, 3, 45, 127
5, 84480, Note_on_c, 3, 33, 127
5, 84599, Note_off_c, 3, 45, 64
5, 84599, Note_off_c, 3, 33, 64
5, 84720, Note_on_c, 3, 45, 127
5, 84720, Note_on_c, 3, 33, 127
5, 84839, Note_off_c, 3, 45, 64
5, 84839, Note_off_c, 3, 33, 64
5, 84960, Note_on_c, 3, 45, 127
5, 84960, Note_on_c, 3, 33, 127
5, 85079, Note_off_c, 3, 45, 64
5, 85079, Note_off_c, 3, 33, 64
5, 85200, Note_on_c, 3, 45, 127
5, 85200, Note_on_c, 3, 33, 127
5, 85319, Note_off_c, 3, 45, 64
5, 85319, Note_off_c, 3, 33, 64
5, 85440, Note_on_c, 3, 43, 127
5, 85440, Note_on_c, 3, 31, 127
5, 85559, Note_off_c, 3, 43, 64
5, 85559, Note_off_c, 3, 31, 64
5, 85680, Note_on_c, 3, 43, 127
5, 85680, Note_on_c, 3, 31, 127
5, 85799, Note_off_c, 3, 43, 64
5, 85799, Note_off_c, 3, 31, 64
5, 85920, Note_on_c, 3, 43, 127
5, 85920, Note_on_c, 3, 31, 127
5, 86039, Note_off_c, 3, 43, 64
5, 86039, Note_off_c, 3, 31, 64
5, 86160, Note_on_c, 3, 43, 127
5, 86160, Note_on_c, 3, 31, 127
5, 86279, Note_off_c, 3, 43, 64
5, 86279, Note_off_c, 3, 31, 64
5, 86400, Note_on_c, 3, 41, 127
5, 86400, Note_on_c, 3, 29, 127
5, 86519, Note_off_c, 3, 41, 64
5, 86519, Note_off_c, 3, 29, 64
5, 86640, Note_on_c, 3, 41, 127
5, 86640, Note_on_c, 3, 29, 127
5, 86759, Note_off_c, 3, 41, 64
5, 86759, Note_off_c, 3, 29, 64
5, 86880, Note_on_c, 3, 41, 127
5, 86880, Note_on_c, 3, 29, 127
5, 86999, Note_off_c, 3, 41, 64
5, 86999, Note_off_c, 3, 29, 64
5, 87120, Note_on_c, 3, 41, 127
5, 87120, Note_on_c, 3, 29, 127
5, 87239, Note_off_c, 3, 41, 64
5, 87239, Note_off_c, 3, 29, 64
5, 87360, Note_on_c, 3, 40, 127
5, 87360, Note_on_c, 3, 28, 127
5, 87479, Note_off_c, 3, 40, 64
5, 87479, Note_off_c, 3, 28, 64
5, 87600, Note_on_c, 3, 40, 127
5, 87600, Note_on_c, 3, 28, 127
5, 87719, Note_off_c, 3, 40, 64
5, 87719, Note_off_c, 3, 28, 64
5, 87840, Note_on_c, 3, 40, 127
5, 87840, Note_on_c, 3, 28, 127
5, 87959, Note_off_c, 3, 40, 64
5, 87959, Note_off_c, 3, 28, 64
5, 88080, Note_on_c, 3, 40, 127
5, 88080, Note_on_c, 3, 28, 127
5, 88199, Note_off_c, 3, 40, 64
5, 88199, Note_off_c, 3, 28, 64
5, 88320, Note_on_c, 3, 38, 127
5, 88320, Note_on_c, 3, 26, 127
5, 88439, Note_off_c, 3, 38, 64
5, 88439, Note_off_c, 3, 26, 64
5, 88560, Note_on_c, 3, 38, 127
5, 88560, Note_on_c, 3, 26, 127
5, 88679, Note_off_c, 3, 38, 64
5, 88679, Note_off_c, 3, 26, 64
5, 88800, Note_on_c, 3, 38, 127
5, 88800, Note_on_c, 3, 26, 127
5, 88919, Note_off_c, 3, 38, 64
5, 88919, Note_off_c, 3, 26, 64
5, 89040, Note_on_c, 3, 38, 127
5, 89040, Note_on_c, 3, 26, 127
5, 89159, Note_off_c, 3, 38, 64
5, 89159, Note_off_c, 3, 26, 64
5, 89280, Note_on_c, 3, 48, 127
5, 89280, Note_on_c, 3, 36, 127
5, 89399, Note_off_c, 3, 48, 64
5, 89399, Note_off_c, 3, 36, 64
5, 89520, Note_on_c, 3, 48, 127
5, 89520, Note_on_c, 3, 36, 127
5, 89639, Note_off_c, 3, 48, 64
5, 89639, Note_off_c, 3, 36, 64
5, 89760, Note_on_c, 3, 48, 127
5, 89760, Note_on_c, 3, 36, 127
5, 89879, Note_off_c, 3, 48, 64
5, 89879, Note_off_c, 3, 36, 64
5, 90000, Note_on_c, 3, 48, 127
5, 90000, Note_on_c, 3, 36, 127
5, 90119, Note_off_c, 3, 48, 64
5, 90119, Note_off_c, 3, 36, 64
5, 90240, Note_on_c, 3, 47, 127
5, 90240, Note_on_c, 3, 35, 127
5, 90359, Note_off_c, 3, 47, 64
5, 90359, Note_off_c, 3, 35, 64
5, 90480, Note_on_c, 3, 47, 127
5, 90480, Note_on_c, 3, 35, 127
5, 90599, Note_off_c, 3, 47, 64
5, 90599, Note_off_c, 3, 35, 64
5, 90720, Note_on_c, 3, 47, 127
5, 90720, Note_on_c, 3, 35, 127
5, 90839, Note_off_c, 3, 47, 64
5, 90839, Note_off_c, 3, 35, 64
5, 90960, Note_on_c, 3, 47, 127
5, 90960, Note_on_c, 3, 35, 127
5, 91079, Note_off_c, 3, 47, 64
5, 91079, Note_off_c, 3, 35, 64
5, 91200, Note_on_c, 3, 45, 127
5, 91200, Note_on_c, 3, 33, 127
5, 91319, Note_off_c, 3, 45, 64
5, 91319, Note_off_c, 3, 33, 64
5, 91440, Note_on_c, 3, 45, 127
5, 91440, Note_on_c, 3, 33, 127
5, 91559, Note_off_c, 3, 45, 64
5, 91559, Note_off_c, 3, 33, 64
5, 91680, Note_on_c, 3, 45, 127
5, 91680, Note_on_c, 3, 33, 127
5, 91799, Note_off_c, 3, 45, 64
5, 91799, Note_off_c, 3, 33, 64
5, 91920, Note_on_c, 3, 45, 127
5, 91920, Note_on_c, 3, 33, 127
5, 92039, Note_off_c, 3, 45, 64
5, 92039, Note_off_c, 3, 33, 64
5, 92160, Note_on_c, 3, 43, 127
5, 92160, Note_on_c, 3, 31, 127
5, 92279, Note_off_c, 3, 43, 64
5, 92279, Note_off_c, 3, 31, 64
5, 92400, Note_on_c, 3, 43, 127
5, 92400, Note_on_c, 3, 31, 127
5, 92519, Note_off_c, 3, 43, 64
5, 92519, Note_off_c, 3, 31, 64
5, 92640, Note_on_c, 3, 43, 127
5, 92640, Note_on_c, 3, 31, 127
5, 92759, Note_off_c, 3, 43, 64
5, 92759, Note_off_c, 3, 31, 64
5, 92880, Note_on_c, 3, 43, 127
5, 92880, Note_on_c, 3, 31, 127
5, 92999, Note_off_c, 3, 43, 64
5, 92999, Note_off_c, 3, 31, 64
5, 93120, Note_on_c, 3, 41, 127
5, 93120, Note_on_c, 3, 29, 127
5, 93239, Note_off_c, 3, 41, 64
5, 93239, Note_off_c, 3, 29, 64
5, 93360, Note_on_c, 3, 41, 127
5, 93360, Note_on_c, 3, 29, 127
5, 93479, Note_off_c, 3, 41, 64
5, 93479, Note_off_c, 3, 29, 64
5, 93600, Note_on_c, 3, 41, 127
5, 93600, Note_on_c, 3, 29, 127
5, 93719, Note_off_c, 3, 41, 64
5, 93719, Note_off_c, 3, 29, 64
5, 93840, Note_on_c, 3, 41, 127
5, 93840, Note_on_c, 3, 29, 127
5, 93959, Note_off_c, 3, 41, 64
5, 93959, Note_off_c, 3, 29, 64
5, 94080, Note_on_c, 3, 40, 127
5, 94080, Note_on_c, 3, 28, 127
5, 94199, Note_off_c, 3, 40, 64
5, 94199, Note_off_c, 3, 28, 64
5, 94320, Note_on_c, 3, 40, 127
5, 94320, Note_on_c, 3, 28, 127
5, 94439, Note_off_c, 3, 40, 64
5, 94439, Note_off_c, 3, 28, 64
5, 94560, Note_on_c, 3, 40, 127
5, 94560, Note_on_c, 3, 28, 127
5, 94679, Note_off_c, 3, 40, 64
5, 94679, Note_off_c, 3, 28, 64
5, 94800, Note_on_c, 3, 40, 127
5, 94800, Note_on_c, 3, 28, 127
5, 94919, Note_off_c, 3, 40, 64
5, 94919, Note_off_c, 3, 28, 64
5, 96000, Pitch_bend_c, 3, 8192
5, 96000, End_track
6, 0, Start_track
6, 0, Title_t, "I Am The Walrus"
6, 0, Control_c, 4, 0, 127
6, 0, Control_c, 4, 93, 10
6, 0, Control_c, 4, 10, 2
6, 0, Control_c, 4, 7, 108
6, 12, Control_c, 4, 91, 40
6, 84, Program_c, 4, 5
6, 480, Note_on_c, 4, 66, 118
6, 480, Note_on_c, 4, 54, 118
6, 480, Note_on_c, 4, 63, 118
6, 480, Note_on_c, 4, 51, 118
6, 480, Note_on_c, 4, 47, 118
6, 600, Note_on_c, 4, 59, 118
6, 665, Note_off_c, 4, 66, 64
6, 665, Note_off_c, 4, 63, 64
6, 720, Note_on_c, 4, 66, 118
6, 720, Note_on_c, 4, 63, 118
6, 745, Note_off_c, 4, 59, 64
6, 840, Note_on_c, 4, 59, 118
6, 905, Note_off_c, 4, 66, 64
6, 905, Note_off_c, 4, 63, 64
6, 960, Note_on_c, 4, 66, 118
6, 960, Note_on_c, 4, 63, 118
6, 985, Note_off_c, 4, 59, 64
6, 1080, Note_on_c, 4, 59, 118
6, 1145, Note_off_c, 4, 66, 64
6, 1145, Note_off_c, 4, 63, 64
6, 1200, Note_on_c, 4, 66, 118
6, 1200, Note_on_c, 4, 63, 118
6, 1225, Note_off_c, 4, 59, 64
6, 1320, Note_on_c, 4, 59, 118
6, 1385, Note_off_c, 4, 66, 64
6, 1385, Note_off_c, 4, 63, 64
6, 1440, Note_on_c, 4, 66, 118
6, 1440, Note_on_c, 4, 63, 118
6, 1465, Note_off_c, 4, 59, 64
6, 1560, Note_on_c, 4, 59, 118
6, 1625, Note_off_c, 4, 66, 64
6, 1625, Note_off_c, 4, 63, 64
6, 1680, Note_on_c, 4, 66, 118
6, 1680, Note_on_c, 4, 63, 118
6, 1705, Note_off_c, 4, 59, 64
6, 1800, Note_on_c, 4, 59, 118
6, 1865, Note_off_c, 4, 66, 64
6, 1865, Note_off_c, 4, 63, 64
6, 1895, Note_off_c, 4, 54, 64
6, 1895, Note_off_c, 4, 51, 64
6, 1895, Note_off_c, 4, 47, 64
6, 1920, Note_on_c, 4, 66, 118
6, 1920, Note_on_c, 4, 63, 118
6, 1920, Note_on_c, 4, 54, 118
6, 1920, Note_on_c, 4, 51, 118
6, 1920, Note_on_c, 4, 47, 118
6, 1955, Note_off_c, 4, 59, 64
6, 2040, Note_on_c, 4, 59, 118
6, 2105, Note_off_c, 4, 66, 64
6, 2105, Note_off_c, 4, 63, 64
6, 2160, Note_on_c, 4, 66, 118
6, 2160, Note_on_c, 4, 63, 118
6, 2185, Note_off_c, 4, 59, 64
6, 2280, Note_on_c, 4, 59, 118
6, 2345, Note_off_c, 4, 66, 64
6, 2345, Note_off_c, 4, 63, 64
6, 2375, Note_off_c, 4, 54, 64
6, 2375, Note_off_c, 4, 51, 64
6, 2375, Note_off_c, 4, 47, 64
6, 2400, Note_on_c, 4, 64, 118
6, 2400, Note_on_c, 4, 61, 118
6, 2400, Note_on_c, 4, 52, 118
6, 2400, Note_on_c, 4, 49, 118
6, 2400, Note_on_c, 4, 45, 118
6, 2435, Note_off_c, 4, 59, 64
6, 2520, Note_on_c, 4, 57, 118
6, 2545, Note_off_c, 4, 61, 64
6, 2585, Note_off_c, 4, 64, 64
6, 2640, Note_on_c, 4, 66, 118
6, 2640, Note_on_c, 4, 63, 118
6, 2673, Note_off_c, 4, 57, 64
6, 2760, Note_on_c, 4, 57, 118
6, 2825, Note_off_c, 4, 66, 64
6, 2825, Note_off_c, 4, 63, 64
6, 2855, Note_off_c, 4, 52, 64
6, 2855, Note_off_c, 4, 49, 64
6, 2855, Note_off_c, 4, 45, 64
6, 2880, Note_on_c, 4, 62, 118
6, 2880, Note_on_c, 4, 59, 118
6, 2880, Note_on_c, 4, 50, 118
6, 2880, Note_on_c, 4, 47, 118
6, 2880, Note_on_c, 4, 43, 118
6, 2923, Note_off_c, 4, 57, 64
6, 3000, Note_on_c, 4, 55, 118
6, 3065, Note_off_c, 4, 62, 64
6, 3065, Note_off_c, 4, 59, 64
6, 3120, Note_on_c, 4, 63, 118
6, 3120, Note_on_c, 4, 59, 118
6, 3137, Note_off_c, 4, 55, 64
6, 3240, Note_on_c, 4, 55, 118
6, 3305, Note_off_c, 4, 63, 64
6, 3305, Note_off_c, 4, 59, 64
6, 3335, Note_off_c, 4, 50, 64
6, 3335, Note_off_c, 4, 47, 64
6, 3335, Note_off_c, 4, 43, 64
6, 3360, Note_on_c, 4, 60, 118
6, 3360, Note_on_c, 4, 57, 118
6, 3360, Note_on_c, 4, 48, 118
6, 3360, Note_on_c, 4, 45, 118
6, 3360, Note_on_c, 4, 41, 118
6, 3387, Note_off_c, 4, 55, 64
6, 3480, Note_on_c, 4, 53, 118
6, 3545, Note_off_c, 4, 60, 64
6, 3545, Note_off_c, 4, 57, 64
6, 3600, Note_on_c, 4, 62, 118
6, 3600, Note_on_c, 4, 57, 118
6, 3617, Note_off_c, 4, 53, 64
6, 3720, Note_on_c, 4, 53, 118
6, 3785, Note_off_c, 4, 62, 64
6, 3785, Note_off_c, 4, 57, 64
6, 3815, Note_off_c, 4, 48, 64
6, 3815, Note_off_c, 4, 45, 64
6, 3815, Note_off_c, 4, 41, 64
6, 3840, Note_on_c, 4, 59, 118
6, 3840, Note_on_c, 4, 56, 118
6, 3840, Note_on_c, 4, 47, 118
6, 3840, Note_on_c, 4, 44, 118
6, 3840, Note_on_c, 4, 40, 118
6, 3867, Note_off_c, 4, 53, 64
6, 3960, Note_on_c, 4, 52, 118
6, 4025, Note_off_c, 4, 59, 64
6, 4025, Note_off_c, 4, 56, 64
6, 4080, Note_on_c, 4, 59, 118
6, 4080, Note_on_c, 4, 56, 118
6, 4145, Note_off_c, 4, 52, 64
6, 4200, Note_on_c, 4, 52, 118
6, 4265, Note_off_c, 4, 59, 64
6, 4265, Note_off_c, 4, 56, 64
6, 4320, Note_on_c, 4, 59, 118
6, 4320, Note_on_c, 4, 56, 118
6, 4385, Note_off_c, 4, 52, 64
6, 4440, Note_on_c, 4, 52, 118
6, 4505, Note_off_c, 4, 59, 64
6, 4505, Note_off_c, 4, 56, 64
6, 4560, Note_on_c, 4, 59, 118
6, 4560, Note_on_c, 4, 56, 118
6, 4625, Note_off_c, 4, 52, 64
6, 4680, Note_on_c, 4, 52, 118
6, 4743, Note_on_c, 4, 61, 118
6, 4743, Note_on_c, 4, 57, 118
6, 4745, Note_off_c, 4, 59, 64
6, 4745, Note_off_c, 4, 56, 64
6, 4780, Note_off_c, 4, 61, 64
6, 4780, Note_off_c, 4, 57, 64
6, 4795, Note_on_c, 4, 62, 118
6, 4795, Note_on_c, 4, 59, 118
6, 4865, Note_off_c, 4, 52, 64
6, 4920, Note_on_c, 4, 52, 118
6, 4980, Note_off_c, 4, 62, 64
6, 4980, Note_off_c, 4, 59, 64
6, 5040, Note_on_c, 4, 62, 118
6, 5040, Note_on_c, 4, 59, 118
6, 5105, Note_off_c, 4, 52, 64
6, 5160, Note_on_c, 4, 52, 118
6, 5225, Note_off_c, 4, 62, 64
6, 5225, Note_off_c, 4, 59, 64
6, 5280, Note_on_c, 4, 62, 118
6, 5280, Note_on_c, 4, 59, 118
6, 5345, Note_off_c, 4, 52, 64
6, 5400, Note_on_c, 4, 52, 118
6, 5465, Note_off_c, 4, 62, 64
6, 5465, Note_off_c, 4, 59, 64
6, 5520, Note_on_c, 4, 62, 118
6, 5520, Note_on_c, 4, 59, 118
6, 5585, Note_off_c, 4, 52, 64
6, 5640, Note_on_c, 4, 52, 118
6, 5705, Note_off_c, 4, 62, 64
6, 5705, Note_off_c, 4, 59, 64
6, 5735, Note_off_c, 4, 47, 64
6, 5735, Note_off_c, 4, 44, 64
6, 5735, Note_off_c, 4, 40, 64
6, 5760, Note_on_c, 4, 57, 118
6, 5760, Note_on_c, 4, 54, 118
6, 5760, Note_on_c, 4, 45, 118
6, 5760, Note_on_c, 4, 42, 118
6, 5760, Note_on_c, 4, 38, 118
6, 5785, Note_off_c, 4, 52, 64
6, 5880, Note_on_c, 4, 50, 118
6, 5945, Note_off_c, 4, 57, 64
6, 5945, Note_off_c, 4, 54, 64
6, 6000, Note_on_c, 4, 57, 118
6, 6000, Note_on_c, 4, 54, 118
6, 6065, Note_off_c, 4, 50, 64
6, 6120, Note_on_c, 4, 50, 118
6, 6185, Note_off_c, 4, 57, 64
6, 6185, Note_off_c, 4, 54, 64
6, 6240, Note_on_c, 4, 57, 118
6, 6240, Note_on_c, 4, 54, 118
6, 6305, Note_off_c, 4, 50, 64
6, 6360, Note_on_c, 4, 50, 118
6, 6425, Note_off_c, 4, 57, 64
6, 6425, Note_off_c, 4, 54, 64
6, 6480, Note_on_c, 4, 57, 118
6, 6480, Note_on_c, 4, 54, 118
6, 6545, Note_off_c, 4, 50, 64
6, 6600, Note_on_c, 4, 50, 118
6, 6660, Note_on_c, 4, 59, 118
6, 6660, Note_on_c, 4, 55, 118
6, 6665, Note_off_c, 4, 57, 64
6, 6665, Note_off_c, 4, 54, 64
6, 6695, Note_off_c, 4, 59, 64
6, 6695, Note_off_c, 4, 55, 64
6, 6714, Note_on_c, 4, 60, 118
6, 6714, Note_on_c, 4, 57, 118
6, 6785, Note_off_c, 4, 50, 64
6, 6840, Note_on_c, 4, 50, 118
6, 6899, Note_off_c, 4, 60, 64
6, 6899, Note_off_c, 4, 57, 64
6, 6960, Note_on_c, 4, 60, 118
6, 6960, Note_on_c, 4, 57, 118
6, 7025, Note_off_c, 4, 50, 64
6, 7080, Note_on_c, 4, 50, 118
6, 7145, Note_off_c, 4, 60, 64
6, 7145, Note_off_c, 4, 57, 64
6, 7200, Note_on_c, 4, 60, 118
6, 7200, Note_on_c, 4, 57, 118
6, 7265, Note_off_c, 4, 50, 64
6, 7320, Note_on_c, 4, 50, 118
6, 7385, Note_off_c, 4, 60, 64
6, 7385, Note_off_c, 4, 57, 64
6, 7440, Note_on_c, 4, 60, 118
6, 7440, Note_on_c, 4, 57, 118
6, 7505, Note_off_c, 4, 50, 64
6, 7560, Note_on_c, 4, 50, 118
6, 7625, Note_off_c, 4, 60, 64
6, 7625, Note_off_c, 4, 57, 64
6, 7655, Note_off_c, 4, 45, 64
6, 7655, Note_off_c, 4, 42, 64
6, 7655, Note_off_c, 4, 38, 64
6, 7680, Note_on_c, 4, 61, 118
6, 7680, Note_on_c, 4, 57, 118
6, 7680, Note_on_c, 4, 45, 118
6, 7680, Note_on_c, 4, 33, 118
6, 7680, Note_on_c, 4, 52, 118
6, 7697, Note_off_c, 4, 50, 64
6, 7865, Note_off_c, 4, 61, 64
6, 7865, Note_off_c, 4, 57, 64
6, 7865, Note_off_c, 4, 52, 64
6, 7920, Note_on_c, 4, 61, 118
6, 7920, Note_on_c, 4, 57, 118
6, 7920, Note_on_c, 4, 52, 118
6, 8105, Note_off_c, 4, 61, 64
6, 8105, Note_off_c, 4, 57, 64
6, 8105, Note_off_c, 4, 52, 64
6, 8137, Note_off_c, 4, 45, 64
6, 8137, Note_off_c, 4, 33, 64
6, 8160, Note_on_c, 4, 61, 118
6, 8160, Note_on_c, 4, 57, 118
6, 8160, Note_on_c, 4, 43, 118
6, 8160, Note_on_c, 4, 31, 118
6, 8160, Note_on_c, 4, 52, 118
6, 8345, Note_off_c, 4, 61, 64
6, 8345, Note_off_c, 4, 57, 64
6, 8345, Note_off_c, 4, 52, 64
6, 8400, Note_on_c, 4, 61, 118
6, 8400, Note_on_c, 4, 57, 118
6, 8400, Note_on_c, 4, 52, 118
6, 8577, Note_off_c, 4, 52, 64
6, 8585, Note_off_c, 4, 61, 64
6, 8585, Note_off_c, 4, 57, 64
6, 8617, Note_off_c, 4, 43, 64
6, 8617, Note_off_c, 4, 31, 64
6, 8640, Note_on_c, 4, 60, 118
6, 8640, Note_on_c, 4, 55, 118
6, 8640, Note_on_c, 4, 36, 118
6, 8640, Note_on_c, 4, 24, 118
6, 8640, Note_on_c, 4, 52, 118
6, 8825, Note_off_c, 4, 60, 64
6, 8825, Note_off_c, 4, 55, 64
6, 8825, Note_off_c, 4, 52, 64
6, 8880, Note_on_c, 4, 60, 118
6, 8880, Note_on_c, 4, 55, 118
6, 8880, Note_on_c, 4, 52, 118
6, 9057, Note_off_c, 4, 52, 64
6, 9065, Note_off_c, 4, 60, 64
6, 9065, Note_off_c, 4, 55, 64
6, 9097, Note_off_c, 4, 36, 64
6, 9097, Note_off_c, 4, 24, 64
6, 9120, Note_on_c, 4, 62, 118
6, 9120, Note_on_c, 4, 57, 118
6, 9120, Note_on_c, 4, 38, 118
6, 9120, Note_on_c, 4, 26, 118
6, 9120, Note_on_c, 4, 54, 118
6, 9305, Note_off_c, 4, 62, 64
6, 9305, Note_off_c, 4, 57, 64
6, 9305, Note_off_c, 4, 54, 64
6, 9360, Note_on_c, 4, 62, 118
6, 9360, Note_on_c, 4, 57, 118
6, 9360, Note_on_c, 4, 54, 118
6, 9537, Note_off_c, 4, 54, 64
6, 9545, Note_off_c, 4, 62, 64
6, 9545, Note_off_c, 4, 57, 64
6, 9577, Note_off_c, 4, 38, 64
6, 9577, Note_off_c, 4, 26, 64
6, 9600, Note_on_c, 4, 61, 118
6, 9600, Note_on_c, 4, 57, 118
6, 9600, Note_on_c, 4, 45, 118
6, 9600, Note_on_c, 4, 33, 118
6, 9600, Note_on_c, 4, 52, 118
6, 9785, Note_off_c, 4, 61, 64
6, 9785, Note_off_c, 4, 57, 64
6, 9785, Note_off_c, 4, 52, 64
6, 9840, Note_on_c, 4, 61, 118
6, 9840, Note_on_c, 4, 57, 118
6, 9840, Note_on_c, 4, 52, 118
6, 10025, Note_off_c, 4, 61, 64
6, 10025, Note_off_c, 4, 57, 64
6, 10025, Note_off_c, 4, 52, 64
6, 10057, Note_off_c, 4, 45, 64
6, 10057, Note_off_c, 4, 33, 64
6, 10080, Note_on_c, 4, 61, 118
6, 10080, Note_on_c, 4, 57, 118
6, 10080, Note_on_c, 4, 43, 118
6, 10080, Note_on_c, 4, 31, 118
6, 10080, Note_on_c, 4, 52, 118
6, 10265, Note_off_c, 4, 61, 64
6, 10265, Note_off_c, 4, 57, 64
6, 10265, Note_off_c, 4, 52, 64
6, 10320, Note_on_c, 4, 61, 118
6, 10320, Note_on_c, 4, 57, 118
6, 10320, Note_on_c, 4, 52, 118
6, 10505, Note_off_c, 4, 61, 64
6, 10505, Note_off_c, 4, 57, 64
6, 10505, Note_off_c, 4, 52, 64
6, 10537, Note_off_c, 4, 43, 64
6, 10537, Note_off_c, 4, 31, 64
6, 10560, Note_on_c, 4, 60, 118
6, 10560, Note_on_c, 4, 55, 118
6, 10560, Note_on_c, 4, 48, 118
6, 10560, Note_on_c, 4, 36, 118
6, 10560, Note_on_c, 4, 52, 118
6, 10745, Note_off_c, 4, 60, 64
6, 10745, Note_off_c, 4, 55, 64
6, 10745, Note_off_c, 4, 52, 64
6, 10800, Note_on_c, 4, 60, 118
6, 10800, Note_on_c, 4, 55, 118
6, 10800, Note_on_c, 4, 52, 118
6, 10969, Note_off_c, 4, 52, 64
6, 10985, Note_off_c, 4, 60, 64
6, 10985, Note_off_c, 4, 55, 64
6, 11017, Note_off_c, 4, 48, 64
6, 11017, Note_off_c, 4, 36, 64
6, 11040, Note_on_c, 4, 60, 118
6, 11040, Note_on_c, 4, 55, 118
6, 11040, Note_on_c, 4, 48, 118
6, 11040, Note_on_c, 4, 36, 118
6, 11040, Note_on_c, 4, 52, 118
6, 11225, Note_off_c, 4, 60, 64
6, 11225, Note_off_c, 4, 55, 64
6, 11225, Note_off_c, 4, 52, 64
6, 11280, Note_on_c, 4, 60, 118
6, 11280, Note_on_c, 4, 55, 118
6, 11280, Note_on_c, 4, 52, 118
6, 11465, Note_off_c, 4, 60, 64
6, 11465, Note_off_c, 4, 55, 64
6, 11465, Note_off_c, 4, 52, 64
6, 11497, Note_off_c, 4, 48, 64
6, 11497, Note_off_c, 4, 36, 64
6, 11520, Note_on_c, 4, 62, 118
6, 11520, Note_on_c, 4, 57, 118
6, 11520, Note_on_c, 4, 50, 118
6, 11520, Note_on_c, 4, 38, 118
6, 11520, Note_on_c, 4, 54, 118
6, 11705, Note_off_c, 4, 62, 64
6, 11705, Note_off_c, 4, 57, 64
6, 11705, Note_off_c, 4, 54, 64
6, 11760, Note_on_c, 4, 62, 118
6, 11760, Note_on_c, 4, 57, 118
6, 11760, Note_on_c, 4, 54, 118
6, 11945, Note_off_c, 4, 62, 64
6, 11945, Note_off_c, 4, 57, 64
6, 11945, Note_off_c, 4, 54, 64
6, 11977, Note_off_c, 4, 50, 64
6, 11977, Note_off_c, 4, 38, 64
6, 12000, Note_on_c, 4, 62, 118
6, 12000, Note_on_c, 4, 57, 118
6, 12000, Note_on_c, 4, 50, 118
6, 12000, Note_on_c, 4, 38, 118
6, 12000, Note_on_c, 4, 54, 118
6, 12185, Note_off_c, 4, 62, 64
6, 12185, Note_off_c, 4, 57, 64
6, 12185, Note_off_c, 4, 54, 64
6, 12240, Note_on_c, 4, 62, 118
6, 12240, Note_on_c, 4, 57, 118
6, 12240, Note_on_c, 4, 54, 118
6, 12417, Note_off_c, 4, 54, 64
6, 12425, Note_off_c, 4, 62, 64
6, 12425, Note_off_c, 4, 57, 64
6, 12457, Note_off_c, 4, 50, 64
6, 12457, Note_off_c, 4, 38, 64
6, 12480, Note_on_c, 4, 61, 118
6, 12480, Note_on_c, 4, 57, 118
6, 12480, Note_on_c, 4, 45, 118
6, 12480, Note_on_c, 4, 33, 118
6, 12480, Note_on_c, 4, 52, 118
6, 13409, Note_off_c, 4, 61, 64
6, 13409, Note_off_c, 4, 57, 64
6, 13409, Note_off_c, 4, 52, 64
6, 13425, Note_off_c, 4, 45, 64
6, 13425, Note_off_c, 4, 33, 64
6, 13440, Note_on_c, 4, 61, 118
6, 13440, Note_on_c, 4, 57, 118
6, 13440, Note_on_c, 4, 45, 118
6, 13440, Note_on_c, 4, 33, 118
6, 13440, Note_on_c, 4, 52, 118
6, 13625, Note_off_c, 4, 61, 64
6, 13625, Note_off_c, 4, 57, 64
6, 13625, Note_off_c, 4, 52, 64
6, 13680, Note_on_c, 4, 61, 118
6, 13680, Note_on_c, 4, 57, 118
6, 13680, Note_on_c, 4, 52, 118
6, 13865, Note_off_c, 4, 61, 64
6, 13865, Note_off_c, 4, 57, 64
6, 13865, Note_off_c, 4, 52, 64
6, 13897, Note_off_c, 4, 45, 64
6, 13897, Note_off_c, 4, 33, 64
6, 13920, Note_on_c, 4, 61, 118
6, 13920, Note_on_c, 4, 57, 118
6, 13920, Note_on_c, 4, 43, 118
6, 13920, Note_on_c, 4, 31, 118
6, 13920, Note_on_c, 4, 52, 118
6, 14105, Note_off_c, 4, 61, 64
6, 14105, Note_off_c, 4, 57, 64
6, 14105, Note_off_c, 4, 52, 64
6, 14160, Note_on_c, 4, 61, 118
6, 14160, Note_on_c, 4, 57, 118
6, 14160, Note_on_c, 4, 52, 118
6, 14337, Note_off_c, 4, 52, 64
6, 14345, Note_off_c, 4, 61, 64
6, 14345, Note_off_c, 4, 57, 64
6, 14377, Note_off_c, 4, 43, 64
6, 14377, Note_off_c, 4, 31, 64
6, 14400, Note_on_c, 4, 62, 118
6, 14400, Note_on_c, 4, 57, 118
6, 14400, Note_on_c, 4, 42, 118
6, 14400, Note_on_c, 4, 30, 118
6, 14400, Note_on_c, 4, 54, 118
6, 14585, Note_off_c, 4, 62, 64
6, 14585, Note_off_c, 4, 57, 64
6, 14585, Note_off_c, 4, 54, 64
6, 14640, Note_on_c, 4, 62, 118
6, 14640, Note_on_c, 4, 57, 118
6, 14640, Note_on_c, 4, 54, 118
6, 14817, Note_off_c, 4, 54, 64
6, 14825, Note_off_c, 4, 62, 64
6, 14825, Note_off_c, 4, 57, 64
6, 14857, Note_off_c, 4, 42, 64
6, 14857, Note_off_c, 4, 30, 64
6, 14880, Note_on_c, 4, 60, 118
6, 14880, Note_on_c, 4, 57, 118
6, 14880, Note_on_c, 4, 41, 118
6, 14880, Note_on_c, 4, 29, 118
6, 14880, Note_on_c, 4, 53, 118
6, 15065, Note_off_c, 4, 60, 64
6, 15065, Note_off_c, 4, 57, 64
6, 15071, Note_off_c, 4, 53, 64
6, 15120, Note_on_c, 4, 62, 118
6, 15120, Note_on_c, 4, 59, 118
6, 15120, Note_on_c, 4, 43, 118
6, 15120, Note_on_c, 4, 31, 118
6, 15120, Note_on_c, 4, 55, 118
6, 15127, Note_off_c, 4, 41, 64
6, 15127, Note_off_c, 4, 29, 64
6, 15297, Note_off_c, 4, 55, 64
6, 15305, Note_off_c, 4, 62, 64
6, 15305, Note_off_c, 4, 59, 64
6, 15360, Note_on_c, 4, 61, 118
6, 15360, Note_on_c, 4, 57, 118
6, 15360, Note_on_c, 4, 45, 118
6, 15360, Note_on_c, 4, 33, 118
6, 15360, Note_on_c, 4, 52, 118
6, 15367, Note_off_c, 4, 43, 64
6, 15367, Note_off_c, 4, 31, 64
6, 15545, Note_off_c, 4, 61, 64
6, 15545, Note_off_c, 4, 57, 64
6, 15545, Note_off_c, 4, 52, 64
6, 15600, Note_on_c, 4, 61, 118
6, 15600, Note_on_c, 4, 57, 118
6, 15600, Note_on_c, 4, 52, 118
6, 15785, Note_off_c, 4, 61, 64
6, 15785, Note_off_c, 4, 57, 64
6, 15785, Note_off_c, 4, 52, 64
6, 15817, Note_off_c, 4, 45, 64
6, 15817, Note_off_c, 4, 33, 64
6, 15840, Note_on_c, 4, 61, 118
6, 15840, Note_on_c, 4, 57, 118
6, 15840, Note_on_c, 4, 43, 118
6, 15840, Note_on_c, 4, 31, 118
6, 15840, Note_on_c, 4, 52, 118
6, 16025, Note_off_c, 4, 61, 64
6, 16025, Note_off_c, 4, 57, 64
6, 16025, Note_off_c, 4, 52, 64
6, 16080, Note_on_c, 4, 61, 118
6, 16080, Note_on_c, 4, 57, 118
6, 16080, Note_on_c, 4, 52, 118
6, 16201, Note_off_c, 4, 52, 64
6, 16265, Note_off_c, 4, 61, 64
6, 16265, Note_off_c, 4, 57, 64
6, 16297, Note_off_c, 4, 43, 64
6, 16297, Note_off_c, 4, 31, 64
6, 16320, Note_on_c, 4, 60, 118
6, 16320, Note_on_c, 4, 57, 118
6, 16320, Note_on_c, 4, 41, 118
6, 16320, Note_on_c, 4, 29, 118
6, 16320, Note_on_c, 4, 53, 118
6, 16505, Note_off_c, 4, 60, 64
6, 16505, Note_off_c, 4, 57, 64
6, 16505, Note_off_c, 4, 53, 64
6, 16560, Note_on_c, 4, 60, 118
6, 16560, Note_on_c, 4, 57, 118
6, 16560, Note_on_c, 4, 53, 118
6, 16745, Note_off_c, 4, 60, 64
6, 16745, Note_off_c, 4, 57, 64
6, 16745, Note_off_c, 4, 53, 64
6, 16777, Note_off_c, 4, 41, 64
6, 16777, Note_off_c, 4, 29, 64
6, 16800, Note_on_c, 4, 60, 118
6, 16800, Note_on_c, 4, 57, 118
6, 16800, Note_on_c, 4, 41, 118
6, 16800, Note_on_c, 4, 29, 118
6, 16800, Note_on_c, 4, 53, 118
6, 16985, Note_off_c, 4, 60, 64
6, 16985, Note_off_c, 4, 57, 64
6, 16985, Note_off_c, 4, 53, 64
6, 17040, Note_on_c, 4, 60, 118
6, 17040, Note_on_c, 4, 57, 118
6, 17040, Note_on_c, 4, 53, 118
6, 17217, Note_off_c, 4, 53, 64
6, 17225, Note_off_c, 4, 60, 64
6, 17225, Note_off_c, 4, 57, 64
6, 17257, Note_off_c, 4, 41, 64
6, 17257, Note_off_c, 4, 29, 64
6, 17280, Note_on_c, 4, 63, 118
6, 17280, Note_on_c, 4, 57, 118
6, 17280, Note_on_c, 4, 47, 118
6, 17280, Note_on_c, 4, 35, 118
6, 17280, Note_on_c, 4, 54, 118
6, 17465, Note_off_c, 4, 63, 64
6, 17465, Note_off_c, 4, 57, 64
6, 17465, Note_off_c, 4, 54, 64
6, 17520, Note_on_c, 4, 63, 118
6, 17520, Note_on_c, 4, 57, 118
6, 17520, Note_on_c, 4, 54, 118
6, 17705, Note_off_c, 4, 63, 64
6, 17705, Note_off_c, 4, 57, 64
6, 17705, Note_off_c, 4, 54, 64
6, 17737, Note_off_c, 4, 47, 64
6, 17737, Note_off_c, 4, 35, 64
6, 17760, Note_on_c, 4, 63, 118
6, 17760, Note_on_c, 4, 57, 118
6, 17760, Note_on_c, 4, 47, 118
6, 17760, Note_on_c, 4, 35, 118
6, 17760, Note_on_c, 4, 54, 118
6, 17945, Note_off_c, 4, 63, 64
6, 17945, Note_off_c, 4, 57, 64
6, 17945, Note_off_c, 4, 54, 64
6, 18000, Note_on_c, 4, 63, 118
6, 18000, Note_on_c, 4, 57, 118
6, 18000, Note_on_c, 4, 54, 118
6, 18177, Note_off_c, 4, 54, 64
6, 18185, Note_off_c, 4, 63, 64
6, 18185, Note_off_c, 4, 57, 64
6, 18217, Note_off_c, 4, 47, 64
6, 18217, Note_off_c, 4, 35, 64
6, 18240, Note_on_c, 4, 63, 118
6, 18240, Note_on_c, 4, 57, 118
6, 18240, Note_on_c, 4, 47, 118
6, 18240, Note_on_c, 4, 35, 118
6, 18240, Note_on_c, 4, 54, 118
6, 18425, Note_off_c, 4, 63, 64
6, 18425, Note_off_c, 4, 57, 64
6, 18425, Note_off_c, 4, 54, 64
6, 18480, Note_on_c, 4, 63, 119
6, 18480, Note_on_c, 4, 57, 119
6, 18480, Note_on_c, 4, 54, 119
6, 18665, Note_off_c, 4, 63, 64
6, 18665, Note_off_c, 4, 57, 64
6, 18665, Note_off_c, 4, 54, 64
6, 18697, Note_off_c, 4, 47, 64
6, 18697, Note_off_c, 4, 35, 64
6, 18720, Note_on_c, 4, 63, 119
6, 18720, Note_on_c, 4, 57, 119
6, 18720, Note_on_c, 4, 47, 119
6, 18720, Note_on_c, 4, 35, 119
6, 18720, Note_on_c, 4, 54, 119
6, 18905, Note_off_c, 4, 63, 64
6, 18905, Note_off_c, 4, 57, 64
6, 18905, Note_off_c, 4, 54, 64
6, 18960, Note_on_c, 4, 63, 119
6, 18960, Note_on_c, 4, 57, 119
6, 18960, Note_on_c, 4, 54, 119
6, 19137, Note_off_c, 4, 54, 64
6, 19145, Note_off_c, 4, 63, 64
6, 19145, Note_off_c, 4, 57, 64
6, 19177, Note_off_c, 4, 47, 64
6, 19177, Note_off_c, 4, 35, 64
6, 19200, Note_on_c, 4, 60, 119
6, 19200, Note_on_c, 4, 48, 119
6, 19200, Note_on_c, 4, 36, 119
6, 19200, Note_on_c, 4, 55, 119
6, 19200, Note_on_c, 4, 52, 119
6, 19385, Note_off_c, 4, 60, 64
6, 19385, Note_off_c, 4, 55, 64
6, 19385, Note_off_c, 4, 52, 64
6, 19440, Note_on_c, 4, 60, 119
6, 19440, Note_on_c, 4, 55, 119
6, 19440, Note_on_c, 4, 52, 119
6, 19625, Note_off_c, 4, 60, 64
6, 19625, Note_off_c, 4, 55, 64
6, 19625, Note_off_c, 4, 52, 64
6, 19657, Note_off_c, 4, 48, 64
6, 19657, Note_off_c, 4, 36, 64
6, 19680, Note_on_c, 4, 60, 119
6, 19680, Note_on_c, 4, 48, 119
6, 19680, Note_on_c, 4, 36, 119
6, 19680, Note_on_c, 4, 55, 119
6, 19680, Note_on_c, 4, 52, 119
6, 19865, Note_off_c, 4, 60, 64
6, 19865, Note_off_c, 4, 55, 64
6, 19865, Note_off_c, 4, 52, 64
6, 19920, Note_on_c, 4, 60, 119
6, 19920, Note_on_c, 4, 55, 119
6, 19920, Note_on_c, 4, 52, 119
6, 20097, Note_off_c, 4, 52, 64
6, 20105, Note_off_c, 4, 60, 64
6, 20105, Note_off_c, 4, 55, 64
6, 20137, Note_off_c, 4, 48, 64
6, 20137, Note_off_c, 4, 36, 64
6, 20160, Note_on_c, 4, 62, 119
6, 20160, Note_on_c, 4, 57, 119
6, 20160, Note_on_c, 4, 50, 119
6, 20160, Note_on_c, 4, 38, 119
6, 20160, Note_on_c, 4, 54, 119
6, 20345, Note_off_c, 4, 62, 64
6, 20345, Note_off_c, 4, 57, 64
6, 20345, Note_off_c, 4, 54, 64
6, 20400, Note_on_c, 4, 62, 119
6, 20400, Note_on_c, 4, 57, 119
6, 20400, Note_on_c, 4, 54, 119
6, 20585, Note_off_c, 4, 62, 64
6, 20585, Note_off_c, 4, 57, 64
6, 20585, Note_off_c, 4, 54, 64
6, 20617, Note_off_c, 4, 50, 64
6, 20617, Note_off_c, 4, 38, 64
6, 20640, Note_on_c, 4, 62, 119
6, 20640, Note_on_c, 4, 57, 119
6, 20640, Note_on_c, 4, 50, 119
6, 20640, Note_on_c, 4, 38, 119
6, 20640, Note_on_c, 4, 54, 119
6, 20825, Note_off_c, 4, 62, 64
6, 20825, Note_off_c, 4, 57, 64
6, 20825, Note_off_c, 4, 54, 64
6, 20880, Note_on_c, 4, 62, 119
6, 20880, Note_on_c, 4, 57, 119
6, 20880, Note_on_c, 4, 54, 119
6, 21057, Note_off_c, 4, 54, 64
6, 21065, Note_off_c, 4, 62, 64
6, 21065, Note_off_c, 4, 57, 64
6, 21097, Note_off_c, 4, 50, 64
6, 21097, Note_off_c, 4, 38, 64
6, 21120, Note_on_c, 4, 64, 119
6, 21120, Note_on_c, 4, 59, 119
6, 21120, Note_on_c, 4, 52, 119
6, 21120, Note_on_c, 4, 40, 119
6, 21120, Note_on_c, 4, 56, 119
6, 21305, Note_off_c, 4, 64, 64
6, 21305, Note_off_c, 4, 59, 64
6, 21305, Note_off_c, 4, 56, 64
6, 21360, Note_on_c, 4, 64, 119
6, 21360, Note_on_c, 4, 59, 119
6, 21360, Note_on_c, 4, 56, 119
6, 21545, Note_off_c, 4, 64, 64
6, 21545, Note_off_c, 4, 59, 64
6, 21545, Note_off_c, 4, 56, 64
6, 21577, Note_off_c, 4, 52, 64
6, 21577, Note_off_c, 4, 40, 64
6, 21600, Note_on_c, 4, 64, 119
6, 21600, Note_on_c, 4, 59, 119
6, 21600, Note_on_c, 4, 52, 119
6, 21600, Note_on_c, 4, 40, 119
6, 21600, Note_on_c, 4, 56, 119
6, 21785, Note_off_c, 4, 64, 64
6, 21785, Note_off_c, 4, 59, 64
6, 21785, Note_off_c, 4, 56, 64
6, 21840, Note_on_c, 4, 64, 119
6, 21840, Note_on_c, 4, 59, 119
6, 21840, Note_on_c, 4, 56, 119
6, 22017, Note_off_c, 4, 56, 64
6, 22025, Note_off_c, 4, 64, 64
6, 22025, Note_off_c, 4, 59, 64
6, 22057, Note_off_c, 4, 52, 64
6, 22057, Note_off_c, 4, 40, 64
6, 22080, Note_on_c, 4, 61, 119
6, 22080, Note_on_c, 4, 57, 119
6, 22080, Note_on_c, 4, 45, 119
6, 22080, Note_on_c, 4, 33, 119
6, 22080, Note_on_c, 4, 52, 119
6, 22265, Note_off_c, 4, 61, 64
6, 22265, Note_off_c, 4, 57, 64
6, 22265, Note_off_c, 4, 52, 64
6, 22320, Note_on_c, 4, 61, 119
6, 22320, Note_on_c, 4, 57, 119
6, 22320, Note_on_c, 4, 52, 119
6, 22505, Note_off_c, 4, 61, 64
6, 22505, Note_off_c, 4, 57, 64
6, 22505, Note_off_c, 4, 52, 64
6, 22537, Note_off_c, 4, 45, 64
6, 22537, Note_off_c, 4, 33, 64
6, 22560, Note_on_c, 4, 61, 119
6, 22560, Note_on_c, 4, 57, 119
6, 22560, Note_on_c, 4, 43, 119
6, 22560, Note_on_c, 4, 31, 119
6, 22560, Note_on_c, 4, 52, 119
6, 22745, Note_off_c, 4, 61, 64
6, 22745, Note_off_c, 4, 57, 64
6, 22745, Note_off_c, 4, 52, 64
6, 22800, Note_on_c, 4, 61, 119
6, 22800, Note_on_c, 4, 57, 119
6, 22800, Note_on_c, 4, 52, 119
6, 22985, Note_off_c, 4, 61, 64
6, 22985, Note_off_c, 4, 57, 64
6, 22985, Note_off_c, 4, 52, 64
6, 23017, Note_off_c, 4, 43, 64
6, 23017, Note_off_c, 4, 31, 64
6, 23040, Note_on_c, 4, 60, 119
6, 23040, Note_on_c, 4, 55, 119
6, 23040, Note_on_c, 4, 36, 119
6, 23040, Note_on_c, 4, 24, 119
6, 23040, Note_on_c, 4, 52, 119
6, 23225, Note_off_c, 4, 60, 64
6, 23225, Note_off_c, 4, 55, 64
6, 23225, Note_off_c, 4, 52, 64
6, 23280, Note_on_c, 4, 60, 119
6, 23280, Note_on_c, 4, 55, 119
6, 23280, Note_on_c, 4, 52, 119
6, 23465, Note_off_c, 4, 60, 64
6, 23465, Note_off_c, 4, 55, 64
6, 23473, Note_off_c, 4, 52, 64
6, 23497, Note_off_c, 4, 36, 64
6, 23497, Note_off_c, 4, 24, 64
6, 23520, Note_on_c, 4, 62, 119
6, 23520, Note_on_c, 4, 57, 119
6, 23520, Note_on_c, 4, 38, 119
6, 23520, Note_on_c, 4, 26, 119
6, 23520, Note_on_c, 4, 54, 119
6, 23705, Note_off_c, 4, 62, 64
6, 23705, Note_off_c, 4, 57, 64
6, 23705, Note_off_c, 4, 54, 64
6, 23760, Note_on_c, 4, 62, 119
6, 23760, Note_on_c, 4, 57, 119
6, 23760, Note_on_c, 4, 54, 119
6, 23937, Note_off_c, 4, 54, 64
6, 23945, Note_off_c, 4, 62, 64
6, 23945, Note_off_c, 4, 57, 64
6, 23977, Note_off_c, 4, 38, 64
6, 23977, Note_off_c, 4, 26, 64
6, 24000, Note_on_c, 4, 61, 119
6, 24000, Note_on_c, 4, 57, 119
6, 24000, Note_on_c, 4, 45, 119
6, 24000, Note_on_c, 4, 33, 119
6, 24000, Note_on_c, 4, 52, 119
6, 24185, Note_off_c, 4, 61, 64
6, 24185, Note_off_c, 4, 57, 64
6, 24185, Note_off_c, 4, 52, 64
6, 24240, Note_on_c, 4, 61, 119
6, 24240, Note_on_c, 4, 57, 119
6, 24240, Note_on_c, 4, 52, 119
6, 24425, Note_off_c, 4, 61, 64
6, 24425, Note_off_c, 4, 57, 64
6, 24425, Note_off_c, 4, 52, 64
6, 24457, Note_off_c, 4, 45, 64
6, 24457, Note_off_c, 4, 33, 64
6, 24480, Note_on_c, 4, 61, 119
6, 24480, Note_on_c, 4, 57, 119
6, 24480, Note_on_c, 4, 43, 119
6, 24480, Note_on_c, 4, 31, 119
6, 24480, Note_on_c, 4, 52, 119
6, 24665, Note_off_c, 4, 61, 64
6, 24665, Note_off_c, 4, 57, 64
6, 24665, Note_off_c, 4, 52, 64
6, 24720, Note_on_c, 4, 61, 119
6, 24720, Note_on_c, 4, 57, 119
6, 24720, Note_on_c, 4, 52, 119
6, 24897, Note_off_c, 4, 52, 64
6, 24905, Note_off_c, 4, 61, 64
6, 24905, Note_off_c, 4, 57, 64
6, 24937, Note_off_c, 4, 43, 64
6, 24937, Note_off_c, 4, 31, 64
6, 24960, Note_on_c, 4, 60, 119
6, 24960, Note_on_c, 4, 55, 119
6, 24960, Note_on_c, 4, 48, 119
6, 24960, Note_on_c, 4, 36, 119
6, 24960, Note_on_c, 4, 52, 119
6, 25145, Note_off_c, 4, 60, 64
6, 25145, Note_off_c, 4, 55, 64
6, 25145, Note_off_c, 4, 52, 64
6, 25200, Note_on_c, 4, 60, 119
6, 25200, Note_on_c, 4, 55, 119
6, 25200, Note_on_c, 4, 52, 119
6, 25369, Note_off_c, 4, 52, 64
6, 25385, Note_off_c, 4, 60, 64
6, 25385, Note_off_c, 4, 55, 64
6, 25417, Note_off_c, 4, 48, 64
6, 25417, Note_off_c, 4, 36, 64
6, 25440, Note_on_c, 4, 60, 119
6, 25440, Note_on_c, 4, 55, 119
6, 25440, Note_on_c, 4, 48, 119
6, 25440, Note_on_c, 4, 36, 119
6, 25440, Note_on_c, 4, 52, 119
6, 25625, Note_off_c, 4, 60, 64
6, 25625, Note_off_c, 4, 55, 64
6, 25625, Note_off_c, 4, 52, 64
6, 25680, Note_on_c, 4, 60, 119
6, 25680, Note_on_c, 4, 55, 119
6, 25680, Note_on_c, 4, 52, 119
6, 25865, Note_off_c, 4, 60, 64
6, 25865, Note_off_c, 4, 55, 64
6, 25865, Note_off_c, 4, 52, 64
6, 25897, Note_off_c, 4, 48, 64
6, 25897, Note_off_c, 4, 36, 64
6, 25920, Note_on_c, 4, 62, 119
6, 25920, Note_on_c, 4, 57, 119
6, 25920, Note_on_c, 4, 50, 119
6, 25920, Note_on_c, 4, 38, 119
6, 25920, Note_on_c, 4, 54, 119
6, 26105, Note_off_c, 4, 62, 64
6, 26105, Note_off_c, 4, 57, 64
6, 26105, Note_off_c, 4, 54, 64
6, 26160, Note_on_c, 4, 62, 119
6, 26160, Note_on_c, 4, 57, 119
6, 26160, Note_on_c, 4, 54, 119
6, 26345, Note_off_c, 4, 62, 64
6, 26345, Note_off_c, 4, 57, 64
6, 26345, Note_off_c, 4, 54, 64
6, 26377, Note_off_c, 4, 50, 64
6, 26377, Note_off_c, 4, 38, 64
6, 26400, Note_on_c, 4, 62, 119
6, 26400, Note_on_c, 4, 57, 119
6, 26400, Note_on_c, 4, 50, 119
6, 26400, Note_on_c, 4, 38, 119
6, 26400, Note_on_c, 4, 54, 119
6, 26585, Note_off_c, 4, 62, 64
6, 26585, Note_off_c, 4, 57, 64
6, 26585, Note_off_c, 4, 54, 64
6, 26640, Note_on_c, 4, 62, 119
6, 26640, Note_on_c, 4, 57, 119
6, 26640, Note_on_c, 4, 54, 119
6, 26817, Note_off_c, 4, 54, 64
6, 26825, Note_off_c, 4, 62, 64
6, 26825, Note_off_c, 4, 57, 64
6, 26857, Note_off_c, 4, 50, 64
6, 26857, Note_off_c, 4, 38, 64
6, 26880, Note_on_c, 4, 61, 119
6, 26880, Note_on_c, 4, 57, 119
6, 26880, Note_on_c, 4, 45, 119
6, 26880, Note_on_c, 4, 33, 119
6, 26880, Note_on_c, 4, 52, 119
6, 27065, Note_off_c, 4, 61, 64
6, 27065, Note_off_c, 4, 57, 64
6, 27065, Note_off_c, 4, 52, 64
6, 27120, Note_on_c, 4, 61, 119
6, 27120, Note_on_c, 4, 57, 119
6, 27120, Note_on_c, 4, 52, 119
6, 27305, Note_off_c, 4, 61, 64
6, 27305, Note_off_c, 4, 57, 64
6, 27305, Note_off_c, 4, 52, 64
6, 27360, Note_on_c, 4, 61, 119
6, 27360, Note_on_c, 4, 57, 119
6, 27360, Note_on_c, 4, 52, 119
6, 27545, Note_off_c, 4, 61, 64
6, 27545, Note_off_c, 4, 57, 64
6, 27545, Note_off_c, 4, 52, 64
6, 27600, Note_on_c, 4, 61, 119
6, 27600, Note_on_c, 4, 57, 119
6, 27600, Note_on_c, 4, 52, 119
6, 27781, Note_off_c, 4, 52, 64
6, 27785, Note_off_c, 4, 61, 64
6, 27785, Note_off_c, 4, 57, 64
6, 27825, Note_off_c, 4, 45, 64
6, 27825, Note_off_c, 4, 33, 64
6, 27840, Note_on_c, 4, 62, 119
6, 27840, Note_on_c, 4, 55, 119
6, 27840, Note_on_c, 4, 50, 119
6, 27840, Note_on_c, 4, 38, 119
6, 27960, Note_on_c, 4, 54, 119
6, 28025, Note_off_c, 4, 62, 64
6, 28025, Note_off_c, 4, 55, 64
6, 28033, Note_off_c, 4, 54, 64
6, 28080, Note_on_c, 4, 62, 119
6, 28080, Note_on_c, 4, 55, 119
6, 28200, Note_on_c, 4, 54, 119
6, 28265, Note_off_c, 4, 62, 64
6, 28265, Note_off_c, 4, 55, 64
6, 28273, Note_off_c, 4, 54, 64
6, 28320, Note_on_c, 4, 62, 119
6, 28320, Note_on_c, 4, 55, 119
6, 28440, Note_on_c, 4, 54, 119
6, 28505, Note_off_c, 4, 62, 64
6, 28505, Note_off_c, 4, 55, 64
6, 28513, Note_off_c, 4, 54, 64
6, 28560, Note_on_c, 4, 62, 119
6, 28560, Note_on_c, 4, 55, 119
6, 28680, Note_on_c, 4, 54, 119
6, 28745, Note_off_c, 4, 62, 64
6, 28745, Note_off_c, 4, 55, 64
6, 28753, Note_off_c, 4, 54, 64
6, 28785, Note_off_c, 4, 50, 64
6, 28785, Note_off_c, 4, 38, 64
6, 28800, Note_on_c, 4, 62, 119
6, 28800, Note_on_c, 4, 55, 119
6, 28800, Note_on_c, 4, 50, 119
6, 28800, Note_on_c, 4, 38, 119
6, 28920, Note_on_c, 4, 54, 119
6, 28985, Note_off_c, 4, 62, 64
6, 28985, Note_off_c, 4, 55, 64
6, 28993, Note_off_c, 4, 54, 64
6, 29040, Note_on_c, 4, 62, 119
6, 29040, Note_on_c, 4, 55, 119
6, 29160, Note_on_c, 4, 54, 119
6, 29225, Note_off_c, 4, 62, 64
6, 29225, Note_off_c, 4, 55, 64
6, 29233, Note_off_c, 4, 54, 64
6, 29280, Note_on_c, 4, 62, 119
6, 29280, Note_on_c, 4, 55, 119
6, 29400, Note_on_c, 4, 54, 119
6, 29465, Note_off_c, 4, 62, 64
6, 29465, Note_off_c, 4, 55, 64
6, 29473, Note_off_c, 4, 54, 64
6, 29520, Note_on_c, 4, 62, 119
6, 29520, Note_on_c, 4, 55, 119
6, 29640, Note_on_c, 4, 54, 119
6, 29705, Note_off_c, 4, 62, 64
6, 29705, Note_off_c, 4, 55, 64
6, 29745, Note_off_c, 4, 50, 64
6, 29745, Note_off_c, 4, 38, 64
6, 29745, Note_off_c, 4, 54, 64
6, 29760, Note_on_c, 4, 61, 119
6, 29760, Note_on_c, 4, 57, 119
6, 29760, Note_on_c, 4, 45, 119
6, 29760, Note_on_c, 4, 33, 119
6, 29760, Note_on_c, 4, 52, 119
6, 29945, Note_off_c, 4, 61, 64
6, 29945, Note_off_c, 4, 57, 64
6, 29945, Note_off_c, 4, 52, 64
6, 30000, Note_on_c, 4, 61, 119
6, 30000, Note_on_c, 4, 57, 119
6, 30000, Note_on_c, 4, 52, 119
6, 30185, Note_off_c, 4, 61, 64
6, 30185, Note_off_c, 4, 57, 64
6, 30185, Note_off_c, 4, 52, 64
6, 30240, Note_on_c, 4, 61, 119
6, 30240, Note_on_c, 4, 57, 119
6, 30240, Note_on_c, 4, 52, 119
6, 30425, Note_off_c, 4, 61, 64
6, 30425, Note_off_c, 4, 57, 64
6, 30425, Note_off_c, 4, 52, 64
6, 30480, Note_on_c, 4, 61, 119
6, 30480, Note_on_c, 4, 57, 119
6, 30480, Note_on_c, 4, 52, 119
6, 30661, Note_off_c, 4, 52, 64
6, 30665, Note_off_c, 4, 61, 64
6, 30665, Note_off_c, 4, 57, 64
6, 30705, Note_off_c, 4, 45, 64
6, 30705, Note_off_c, 4, 33, 64
6, 30720, Note_on_c, 4, 64, 119
6, 30720, Note_on_c, 4, 62, 119
6, 30720, Note_on_c, 4, 59, 119
6, 30720, Note_on_c, 4, 52, 119
6, 30720, Note_on_c, 4, 40, 119
6, 30720, Note_on_c, 4, 56, 119
6, 30905, Note_off_c, 4, 64, 64
6, 30905, Note_off_c, 4, 62, 64
6, 30905, Note_off_c, 4, 59, 64
6, 30905, Note_off_c, 4, 56, 64
6, 30960, Note_on_c, 4, 64, 119
6, 30960, Note_on_c, 4, 62, 119
6, 30960, Note_on_c, 4, 59, 119
6, 30960, Note_on_c, 4, 56, 119
6, 31145, Note_off_c, 4, 64, 64
6, 31145, Note_off_c, 4, 62, 64
6, 31145, Note_off_c, 4, 59, 64
6, 31145, Note_off_c, 4, 56, 64
6, 31200, Note_on_c, 4, 64, 119
6, 31200, Note_on_c, 4, 62, 119
6, 31200, Note_on_c, 4, 59, 119
6, 31200, Note_on_c, 4, 56, 119
6, 31385, Note_off_c, 4, 64, 64
6, 31385, Note_off_c, 4, 62, 64
6, 31385, Note_off_c, 4, 59, 64
6, 31385, Note_off_c, 4, 56, 64
6, 31440, Note_on_c, 4, 64, 119
6, 31440, Note_on_c, 4, 62, 119
6, 31440, Note_on_c, 4, 59, 119
6, 31440, Note_on_c, 4, 56, 119
6, 31625, Note_off_c, 4, 64, 64
6, 31625, Note_off_c, 4, 62, 64
6, 31625, Note_off_c, 4, 59, 64
6, 31625, Note_off_c, 4, 56, 64
6, 31665, Note_off_c, 4, 52, 64
6, 31665, Note_off_c, 4, 40, 64
6, 31680, Note_on_c, 4, 62, 119
6, 31680, Note_on_c, 4, 60, 119
6, 31680, Note_on_c, 4, 57, 119
6, 31680, Note_on_c, 4, 50, 119
6, 31680, Note_on_c, 4, 38, 119
6, 31680, Note_on_c, 4, 54, 119
6, 31865, Note_off_c, 4, 62, 64
6, 31865, Note_off_c, 4, 60, 64
6, 31865, Note_off_c, 4, 57, 64
6, 31865, Note_off_c, 4, 54, 64
6, 31920, Note_on_c, 4, 62, 119
6, 31920, Note_on_c, 4, 60, 119
6, 31920, Note_on_c, 4, 57, 119
6, 31920, Note_on_c, 4, 54, 119
6, 32105, Note_off_c, 4, 62, 64
6, 32105, Note_off_c, 4, 60, 64
6, 32105, Note_off_c, 4, 57, 64
6, 32105, Note_off_c, 4, 54, 64
6, 32160, Note_on_c, 4, 62, 119
6, 32160, Note_on_c, 4, 60, 119
6, 32160, Note_on_c, 4, 57, 119
6, 32160, Note_on_c, 4, 54, 119
6, 32345, Note_off_c, 4, 62, 64
6, 32345, Note_off_c, 4, 60, 64
6, 32345, Note_off_c, 4, 57, 64
6, 32345, Note_off_c, 4, 54, 64
6, 32400, Note_on_c, 4, 62, 119
6, 32400, Note_on_c, 4, 60, 119
6, 32400, Note_on_c, 4, 57, 119
6, 32400, Note_on_c, 4, 54, 119
6, 32585, Note_off_c, 4, 62, 64
6, 32585, Note_off_c, 4, 60, 64
6, 32585, Note_off_c, 4, 57, 64
6, 32593, Note_off_c, 4, 54, 64
6, 32625, Note_off_c, 4, 50, 64
6, 32625, Note_off_c, 4, 38, 64
6, 32640, Note_on_c, 4, 61, 118
6, 32640, Note_on_c, 4, 57, 118
6, 32640, Note_on_c, 4, 45, 118
6, 32640, Note_on_c, 4, 33, 118
6, 32640, Note_on_c, 4, 52, 118
6, 32825, Note_off_c, 4, 61, 64
6, 32825, Note_off_c, 4, 57, 64
6, 32825, Note_off_c, 4, 52, 64
6, 32880, Note_on_c, 4, 61, 118
6, 32880, Note_on_c, 4, 57, 118
6, 32880, Note_on_c, 4, 52, 118
6, 33065, Note_off_c, 4, 61, 64
6, 33065, Note_off_c, 4, 57, 64
6, 33065, Note_off_c, 4, 52, 64
6, 33097, Note_off_c, 4, 45, 64
6, 33097, Note_off_c, 4, 33, 64
6, 33120, Note_on_c, 4, 61, 118
6, 33120, Note_on_c, 4, 57, 118
6, 33120, Note_on_c, 4, 43, 118
6, 33120, Note_on_c, 4, 31, 118
6, 33120, Note_on_c, 4, 52, 118
6, 33305, Note_off_c, 4, 61, 64
6, 33305, Note_off_c, 4, 57, 64
6, 33305, Note_off_c, 4, 52, 64
6, 33360, Note_on_c, 4, 61, 118
6, 33360, Note_on_c, 4, 57, 118
6, 33360, Note_on_c, 4, 52, 118
6, 33545, Note_off_c, 4, 61, 64
6, 33545, Note_off_c, 4, 57, 64
6, 33545, Note_off_c, 4, 52, 64
6, 33577, Note_off_c, 4, 43, 64
6, 33577, Note_off_c, 4, 31, 64
6, 33600, Note_on_c, 4, 62, 118
6, 33600, Note_on_c, 4, 57, 118
6, 33600, Note_on_c, 4, 42, 118
6, 33600, Note_on_c, 4, 30, 118
6, 33600, Note_on_c, 4, 54, 118
6, 33785, Note_off_c, 4, 62, 64
6, 33785, Note_off_c, 4, 57, 64
6, 33785, Note_off_c, 4, 54, 64
6, 33840, Note_on_c, 4, 62, 118
6, 33840, Note_on_c, 4, 57, 118
6, 33840, Note_on_c, 4, 54, 118
6, 34017, Note_off_c, 4, 54, 64
6, 34025, Note_off_c, 4, 62, 64
6, 34025, Note_off_c, 4, 57, 64
6, 34057, Note_off_c, 4, 42, 64
6, 34057, Note_off_c, 4, 30, 64
6, 34080, Note_on_c, 4, 60, 118
6, 34080, Note_on_c, 4, 57, 118
6, 34080, Note_on_c, 4, 41, 118
6, 34080, Note_on_c, 4, 29, 118
6, 34080, Note_on_c, 4, 53, 118
6, 34265, Note_off_c, 4, 60, 64
6, 34265, Note_off_c, 4, 57, 64
6, 34271, Note_off_c, 4, 53, 64
6, 34320, Note_on_c, 4, 62, 118
6, 34320, Note_on_c, 4, 59, 118
6, 34320, Note_on_c, 4, 43, 118
6, 34320, Note_on_c, 4, 31, 118
6, 34320, Note_on_c, 4, 55, 118
6, 34327, Note_off_c, 4, 41, 64
6, 34327, Note_off_c, 4, 29, 64
6, 34497, Note_off_c, 4, 55, 64
6, 34505, Note_off_c, 4, 62, 64
6, 34505, Note_off_c, 4, 59, 64
6, 34560, Note_on_c, 4, 61, 118
6, 34560, Note_on_c, 4, 57, 118
6, 34560, Note_on_c, 4, 45, 118
6, 34560, Note_on_c, 4, 33, 118
6, 34560, Note_on_c, 4, 52, 118
6, 34567, Note_off_c, 4, 43, 64
6, 34567, Note_off_c, 4, 31, 64
6, 34745, Note_off_c, 4, 61, 64
6, 34745, Note_off_c, 4, 57, 64
6, 34745, Note_off_c, 4, 52, 64
6, 34800, Note_on_c, 4, 61, 118
6, 34800, Note_on_c, 4, 57, 118
6, 34800, Note_on_c, 4, 52, 118
6, 34985, Note_off_c, 4, 61, 64
6, 34985, Note_off_c, 4, 57, 64
6, 34985, Note_off_c, 4, 52, 64
6, 35017, Note_off_c, 4, 45, 64
6, 35017, Note_off_c, 4, 33, 64
6, 35040, Note_on_c, 4, 61, 118
6, 35040, Note_on_c, 4, 57, 118
6, 35040, Note_on_c, 4, 43, 118
6, 35040, Note_on_c, 4, 31, 118
6, 35040, Note_on_c, 4, 52, 118
6, 35225, Note_off_c, 4, 61, 64
6, 35225, Note_off_c, 4, 57, 64
6, 35225, Note_off_c, 4, 52, 64
6, 35280, Note_on_c, 4, 61, 118
6, 35280, Note_on_c, 4, 57, 118
6, 35280, Note_on_c, 4, 52, 118
6, 35465, Note_off_c, 4, 61, 64
6, 35465, Note_off_c, 4, 57, 64
6, 35465, Note_off_c, 4, 52, 64
6, 35497, Note_off_c, 4, 43, 64
6, 35497, Note_off_c, 4, 31, 64
6, 35520, Note_on_c, 4, 60, 118
6, 35520, Note_on_c, 4, 57, 118
6, 35520, Note_on_c, 4, 41, 118
6, 35520, Note_on_c, 4, 29, 118
6, 35520, Note_on_c, 4, 53, 118
6, 35705, Note_off_c, 4, 60, 64
6, 35705, Note_off_c, 4, 57, 64
6, 35705, Note_off_c, 4, 53, 64
6, 35760, Note_on_c, 4, 60, 118
6, 35760, Note_on_c, 4, 57, 118
6, 35760, Note_on_c, 4, 53, 118
6, 35945, Note_off_c, 4, 60, 64
6, 35945, Note_off_c, 4, 57, 64
6, 35945, Note_off_c, 4, 53, 64
6, 35977, Note_off_c, 4, 41, 64
6, 35977, Note_off_c, 4, 29, 64
6, 36000, Note_on_c, 4, 60, 118
6, 36000, Note_on_c, 4, 57, 118
6, 36000, Note_on_c, 4, 41, 118
6, 36000, Note_on_c, 4, 29, 118
6, 36000, Note_on_c, 4, 53, 118
6, 36185, Note_off_c, 4, 60, 64
6, 36185, Note_off_c, 4, 57, 64
6, 36185, Note_off_c, 4, 53, 64
6, 36240, Note_on_c, 4, 60, 118
6, 36240, Note_on_c, 4, 57, 118
6, 36240, Note_on_c, 4, 53, 118
6, 36425, Note_off_c, 4, 60, 64
6, 36425, Note_off_c, 4, 57, 64
6, 36425, Note_off_c, 4, 53, 64
6, 36457, Note_off_c, 4, 41, 64
6, 36457, Note_off_c, 4, 29, 64
6, 36480, Note_on_c, 4, 63, 118
6, 36480, Note_on_c, 4, 57, 118
6, 36480, Note_on_c, 4, 47, 118
6, 36480, Note_on_c, 4, 35, 118
6, 36480, Note_on_c, 4, 54, 118
6, 36665, Note_off_c, 4, 63, 64
6, 36665, Note_off_c, 4, 57, 64
6, 36665, Note_off_c, 4, 54, 64
6, 36720, Note_on_c, 4, 63, 118
6, 36720, Note_on_c, 4, 57, 118
6, 36720, Note_on_c, 4, 54, 118
6, 36905, Note_off_c, 4, 63, 64
6, 36905, Note_off_c, 4, 57, 64
6, 36905, Note_off_c, 4, 54, 64
6, 36937, Note_off_c, 4, 47, 64
6, 36937, Note_off_c, 4, 35, 64
6, 36960, Note_on_c, 4, 63, 118
6, 36960, Note_on_c, 4, 57, 118
6, 36960, Note_on_c, 4, 47, 118
6, 36960, Note_on_c, 4, 35, 118
6, 36960, Note_on_c, 4, 54, 118
6, 37145, Note_off_c, 4, 63, 64
6, 37145, Note_off_c, 4, 57, 64
6, 37145, Note_off_c, 4, 54, 64
6, 37200, Note_on_c, 4, 63, 118
6, 37200, Note_on_c, 4, 57, 118
6, 37200, Note_on_c, 4, 54, 118
6, 37385, Note_off_c, 4, 63, 64
6, 37385, Note_off_c, 4, 57, 64
6, 37385, Note_off_c, 4, 54, 64
6, 37417, Note_off_c, 4, 47, 64
6, 37417, Note_off_c, 4, 35, 64
6, 37440, Note_on_c, 4, 63, 118
6, 37440, Note_on_c, 4, 57, 118
6, 37440, Note_on_c, 4, 47, 118
6, 37440, Note_on_c, 4, 35, 118
6, 37440, Note_on_c, 4, 54, 118
6, 37625, Note_off_c, 4, 63, 64
6, 37625, Note_off_c, 4, 57, 64
6, 37625, Note_off_c, 4, 54, 64
6, 37680, Note_on_c, 4, 63, 119
6, 37680, Note_on_c, 4, 57, 119
6, 37680, Note_on_c, 4, 54, 119
6, 37865, Note_off_c, 4, 63, 64
6, 37865, Note_off_c, 4, 57, 64
6, 37865, Note_off_c, 4, 54, 64
6, 37897, Note_off_c, 4, 47, 64
6, 37897, Note_off_c, 4, 35, 64
6, 37920, Note_on_c, 4, 63, 119
6, 37920, Note_on_c, 4, 57, 119
6, 37920, Note_on_c, 4, 47, 119
6, 37920, Note_on_c, 4, 35, 119
6, 37920, Note_on_c, 4, 54, 119
6, 38105, Note_off_c, 4, 63, 64
6, 38105, Note_off_c, 4, 57, 64
6, 38105, Note_off_c, 4, 54, 64
6, 38160, Note_on_c, 4, 63, 119
6, 38160, Note_on_c, 4, 57, 119
6, 38160, Note_on_c, 4, 54, 119
6, 38345, Note_off_c, 4, 63, 64
6, 38345, Note_off_c, 4, 57, 64
6, 38353, Note_off_c, 4, 54, 64
6, 38377, Note_off_c, 4, 47, 64
6, 38377, Note_off_c, 4, 35, 64
6, 38400, Note_on_c, 4, 60, 119
6, 38400, Note_on_c, 4, 55, 119
6, 38400, Note_on_c, 4, 48, 119
6, 38400, Note_on_c, 4, 36, 119
6, 38400, Note_on_c, 4, 52, 119
6, 38585, Note_off_c, 4, 60, 64
6, 38585, Note_off_c, 4, 55, 64
6, 38585, Note_off_c, 4, 52, 64
6, 38640, Note_on_c, 4, 60, 119
6, 38640, Note_on_c, 4, 55, 119
6, 38640, Note_on_c, 4, 52, 119
6, 38825, Note_off_c, 4, 60, 64
6, 38825, Note_off_c, 4, 55, 64
6, 38825, Note_off_c, 4, 52, 64
6, 38857, Note_off_c, 4, 48, 64
6, 38857, Note_off_c, 4, 36, 64
6, 38880, Note_on_c, 4, 60, 119
6, 38880, Note_on_c, 4, 55, 119
6, 38880, Note_on_c, 4, 48, 119
6, 38880, Note_on_c, 4, 36, 119
6, 38880, Note_on_c, 4, 52, 119
6, 39065, Note_off_c, 4, 60, 64
6, 39065, Note_off_c, 4, 55, 64
6, 39065, Note_off_c, 4, 52, 64
6, 39120, Note_on_c, 4, 60, 119
6, 39120, Note_on_c, 4, 55, 119
6, 39120, Note_on_c, 4, 52, 119
6, 39305, Note_off_c, 4, 60, 64
6, 39305, Note_off_c, 4, 55, 64
6, 39305, Note_off_c, 4, 52, 64
6, 39337, Note_off_c, 4, 48, 64
6, 39337, Note_off_c, 4, 36, 64
6, 39360, Note_on_c, 4, 62, 119
6, 39360, Note_on_c, 4, 57, 119
6, 39360, Note_on_c, 4, 50, 119
6, 39360, Note_on_c, 4, 38, 119
6, 39360, Note_on_c, 4, 54, 119
6, 39545, Note_off_c, 4, 62, 64
6, 39545, Note_off_c, 4, 57, 64
6, 39545, Note_off_c, 4, 54, 64
6, 39600, Note_on_c, 4, 62, 119
6, 39600, Note_on_c, 4, 57, 119
6, 39600, Note_on_c, 4, 54, 119
6, 39785, Note_off_c, 4, 62, 64
6, 39785, Note_off_c, 4, 57, 64
6, 39785, Note_off_c, 4, 54, 64
6, 39817, Note_off_c, 4, 50, 64
6, 39817, Note_off_c, 4, 38, 64
6, 39840, Note_on_c, 4, 62, 119
6, 39840, Note_on_c, 4, 57, 119
6, 39840, Note_on_c, 4, 50, 119
6, 39840, Note_on_c, 4, 38, 119
6, 39840, Note_on_c, 4, 54, 119
6, 40025, Note_off_c, 4, 62, 64
6, 40025, Note_off_c, 4, 57, 64
6, 40025, Note_off_c, 4, 54, 64
6, 40080, Note_on_c, 4, 62, 119
6, 40080, Note_on_c, 4, 57, 119
6, 40080, Note_on_c, 4, 54, 119
6, 40249, Note_off_c, 4, 54, 64
6, 40265, Note_off_c, 4, 62, 64
6, 40265, Note_off_c, 4, 57, 64
6, 40297, Note_off_c, 4, 50, 64
6, 40297, Note_off_c, 4, 38, 64
6, 40320, Note_on_c, 4, 64, 119
6, 40320, Note_on_c, 4, 59, 119
6, 40320, Note_on_c, 4, 52, 119
6, 40320, Note_on_c, 4, 40, 119
6, 40320, Note_on_c, 4, 56, 119
6, 40505, Note_off_c, 4, 64, 64
6, 40505, Note_off_c, 4, 59, 64
6, 40505, Note_off_c, 4, 56, 64
6, 40560, Note_on_c, 4, 64, 119
6, 40560, Note_on_c, 4, 59, 119
6, 40560, Note_on_c, 4, 56, 119
6, 40745, Note_off_c, 4, 64, 64
6, 40745, Note_off_c, 4, 59, 64
6, 40745, Note_off_c, 4, 56, 64
6, 40777, Note_off_c, 4, 52, 64
6, 40777, Note_off_c, 4, 40, 64
6, 40800, Note_on_c, 4, 64, 119
6, 40800, Note_on_c, 4, 59, 119
6, 40800, Note_on_c, 4, 52, 119
6, 40800, Note_on_c, 4, 40, 119
6, 40800, Note_on_c, 4, 56, 119
6, 40985, Note_off_c, 4, 64, 64
6, 40985, Note_off_c, 4, 59, 64
6, 40985, Note_off_c, 4, 56, 64
6, 41040, Note_on_c, 4, 64, 119
6, 41040, Note_on_c, 4, 59, 119
6, 41040, Note_on_c, 4, 56, 119
6, 41217, Note_off_c, 4, 56, 64
6, 41225, Note_off_c, 4, 64, 64
6, 41225, Note_off_c, 4, 59, 64
6, 41257, Note_off_c, 4, 52, 64
6, 41257, Note_off_c, 4, 40, 64
6, 45120, Note_on_c, 4, 66, 118
6, 45120, Note_on_c, 4, 63, 118
6, 45120, Note_on_c, 4, 54, 118
6, 45120, Note_on_c, 4, 51, 118
6, 45120, Note_on_c, 4, 47, 118
6, 45240, Note_on_c, 4, 59, 118
6, 45305, Note_off_c, 4, 66, 64
6, 45305, Note_off_c, 4, 63, 64
6, 45360, Note_on_c, 4, 66, 118
6, 45360, Note_on_c, 4, 63, 118
6, 45385, Note_off_c, 4, 59, 64
6, 45480, Note_on_c, 4, 59, 118
6, 45545, Note_off_c, 4, 66, 64
6, 45545, Note_off_c, 4, 63, 64
6, 45575, Note_off_c, 4, 54, 64
6, 45575, Note_off_c, 4, 51, 64
6, 45575, Note_off_c, 4, 47, 64
6, 45600, Note_on_c, 4, 64, 118
6, 45600, Note_on_c, 4, 61, 118
6, 45600, Note_on_c, 4, 52, 118
6, 45600, Note_on_c, 4, 49, 118
6, 45600, Note_on_c, 4, 45, 118
6, 45635, Note_off_c, 4, 59, 64
6, 45720, Note_on_c, 4, 57, 118
6, 45745, Note_off_c, 4, 61, 64
6, 45785, Note_off_c, 4, 64, 64
6, 45840, Note_on_c, 4, 66, 118
6, 45840, Note_on_c, 4, 63, 118
6, 45873, Note_off_c, 4, 57, 64
6, 45960, Note_on_c, 4, 57, 118
6, 46025, Note_off_c, 4, 66, 64
6, 46025, Note_off_c, 4, 63, 64
6, 46055, Note_off_c, 4, 52, 64
6, 46055, Note_off_c, 4, 49, 64
6, 46055, Note_off_c, 4, 45, 64
6, 46080, Note_on_c, 4, 62, 118
6, 46080, Note_on_c, 4, 59, 118
6, 46080, Note_on_c, 4, 50, 118
6, 46080, Note_on_c, 4, 47, 118
6, 46080, Note_on_c, 4, 43, 118
6, 46123, Note_off_c, 4, 57, 64
6, 46200, Note_on_c, 4, 55, 118
6, 46265, Note_off_c, 4, 62, 64
6, 46265, Note_off_c, 4, 59, 64
6, 46320, Note_on_c, 4, 63, 118
6, 46320, Note_on_c, 4, 59, 118
6, 46337, Note_off_c, 4, 55, 64
6, 46440, Note_on_c, 4, 55, 118
6, 46505, Note_off_c, 4, 63, 64
6, 46505, Note_off_c, 4, 59, 64
6, 46535, Note_off_c, 4, 50, 64
6, 46535, Note_off_c, 4, 47, 64
6, 46535, Note_off_c, 4, 43, 64
6, 46560, Note_on_c, 4, 60, 118
6, 46560, Note_on_c, 4, 57, 118
6, 46560, Note_on_c, 4, 48, 118
6, 46560, Note_on_c, 4, 45, 118
6, 46560, Note_on_c, 4, 41, 118
6, 46587, Note_off_c, 4, 55, 64
6, 46680, Note_on_c, 4, 53, 118
6, 46745, Note_off_c, 4, 60, 64
6, 46745, Note_off_c, 4, 57, 64
6, 46800, Note_on_c, 4, 62, 118
6, 46800, Note_on_c, 4, 57, 118
6, 46817, Note_off_c, 4, 53, 64
6, 46920, Note_on_c, 4, 53, 118
6, 46985, Note_off_c, 4, 62, 64
6, 46985, Note_off_c, 4, 57, 64
6, 47015, Note_off_c, 4, 48, 64
6, 47015, Note_off_c, 4, 45, 64
6, 47015, Note_off_c, 4, 41, 64
6, 47040, Note_on_c, 4, 59, 118
6, 47040, Note_on_c, 4, 56, 118
6, 47040, Note_on_c, 4, 47, 118
6, 47040, Note_on_c, 4, 44, 118
6, 47040, Note_on_c, 4, 40, 118
6, 47067, Note_off_c, 4, 53, 64
6, 47160, Note_on_c, 4, 52, 118
6, 47225, Note_off_c, 4, 59, 64
6, 47225, Note_off_c, 4, 56, 64
6, 47280, Note_on_c, 4, 59, 118
6, 47280, Note_on_c, 4, 56, 118
6, 47297, Note_off_c, 4, 52, 64
6, 47400, Note_on_c, 4, 52, 118
6, 47465, Note_off_c, 4, 59, 64
6, 47465, Note_off_c, 4, 56, 64
6, 47495, Note_off_c, 4, 47, 64
6, 47495, Note_off_c, 4, 44, 64
6, 47495, Note_off_c, 4, 40, 64
6, 47497, Note_off_c, 4, 52, 64
6, 47520, Note_on_c, 4, 60, 118
6, 47520, Note_on_c, 4, 57, 118
6, 47520, Note_on_c, 4, 48, 118
6, 47520, Note_on_c, 4, 45, 118
6, 47520, Note_on_c, 4, 41, 118
6, 47640, Note_on_c, 4, 53, 118
6, 47705, Note_off_c, 4, 60, 64
6, 47705, Note_off_c, 4, 57, 64
6, 47760, Note_on_c, 4, 60, 118
6, 47760, Note_on_c, 4, 57, 118
6, 47777, Note_off_c, 4, 53, 64
6, 47880, Note_on_c, 4, 53, 118
6, 47945, Note_off_c, 4, 60, 64
6, 47945, Note_off_c, 4, 57, 64
6, 47975, Note_off_c, 4, 48, 64
6, 47975, Note_off_c, 4, 45, 64
6, 47975, Note_off_c, 4, 41, 64
6, 47977, Note_off_c, 4, 53, 64
6, 48000, Note_on_c, 4, 63, 118
6, 48000, Note_on_c, 4, 57, 118
6, 48000, Note_on_c, 4, 47, 118
6, 48000, Note_on_c, 4, 35, 118
6, 48000, Note_on_c, 4, 54, 118
6, 48185, Note_off_c, 4, 63, 64
6, 48185, Note_off_c, 4, 57, 64
6, 48185, Note_off_c, 4, 54, 64
6, 48240, Note_on_c, 4, 63, 118
6, 48240, Note_on_c, 4, 57, 118
6, 48240, Note_on_c, 4, 54, 118
6, 48425, Note_off_c, 4, 63, 64
6, 48425, Note_off_c, 4, 57, 64
6, 48425, Note_off_c, 4, 54, 64
6, 48457, Note_off_c, 4, 47, 64
6, 48457, Note_off_c, 4, 35, 64
6, 48480, Note_on_c, 4, 63, 118
6, 48480, Note_on_c, 4, 57, 118
6, 48480, Note_on_c, 4, 47, 118
6, 48480, Note_on_c, 4, 35, 118
6, 48480, Note_on_c, 4, 54, 118
6, 48665, Note_off_c, 4, 63, 64
6, 48665, Note_off_c, 4, 57, 64
6, 48665, Note_off_c, 4, 54, 64
6, 48720, Note_on_c, 4, 63, 118
6, 48720, Note_on_c, 4, 57, 118
6, 48720, Note_on_c, 4, 54, 118
6, 48905, Note_off_c, 4, 63, 64
6, 48905, Note_off_c, 4, 57, 64
6, 48905, Note_off_c, 4, 54, 64
6, 48937, Note_off_c, 4, 47, 64
6, 48937, Note_off_c, 4, 35, 64
6, 48960, Note_on_c, 4, 63, 118
6, 48960, Note_on_c, 4, 57, 118
6, 48960, Note_on_c, 4, 47, 118
6, 48960, Note_on_c, 4, 35, 118
6, 48960, Note_on_c, 4, 54, 118
6, 49145, Note_off_c, 4, 63, 64
6, 49145, Note_off_c, 4, 57, 64
6, 49145, Note_off_c, 4, 54, 64
6, 49200, Note_on_c, 4, 63, 119
6, 49200, Note_on_c, 4, 57, 119
6, 49200, Note_on_c, 4, 54, 119
6, 49385, Note_off_c, 4, 63, 64
6, 49385, Note_off_c, 4, 57, 64
6, 49385, Note_off_c, 4, 54, 64
6, 49417, Note_off_c, 4, 47, 64
6, 49417, Note_off_c, 4, 35, 64
6, 49440, Note_on_c, 4, 63, 119
6, 49440, Note_on_c, 4, 57, 119
6, 49440, Note_on_c, 4, 47, 119
6, 49440, Note_on_c, 4, 35, 119
6, 49440, Note_on_c, 4, 54, 119
6, 49625, Note_off_c, 4, 63, 64
6, 49625, Note_off_c, 4, 57, 64
6, 49625, Note_off_c, 4, 54, 64
6, 49680, Note_on_c, 4, 63, 119
6, 49680, Note_on_c, 4, 57, 119
6, 49680, Note_on_c, 4, 54, 119
6, 49849, Note_off_c, 4, 54, 64
6, 49865, Note_off_c, 4, 63, 64
6, 49865, Note_off_c, 4, 57, 64
6, 49897, Note_off_c, 4, 47, 64
6, 49897, Note_off_c, 4, 35, 64
6, 49920, Note_on_c, 4, 60, 119
6, 49920, Note_on_c, 4, 55, 119
6, 49920, Note_on_c, 4, 48, 119
6, 49920, Note_on_c, 4, 36, 119
6, 49920, Note_on_c, 4, 52, 119
6, 50105, Note_off_c, 4, 60, 64
6, 50105, Note_off_c, 4, 55, 64
6, 50105, Note_off_c, 4, 52, 64
6, 50160, Note_on_c, 4, 60, 119
6, 50160, Note_on_c, 4, 55, 119
6, 50160, Note_on_c, 4, 52, 119
6, 50345, Note_off_c, 4, 60, 64
6, 50345, Note_off_c, 4, 55, 64
6, 50345, Note_off_c, 4, 52, 64
6, 50377, Note_off_c, 4, 48, 64
6, 50377, Note_off_c, 4, 36, 64
6, 50400, Note_on_c, 4, 60, 119
6, 50400, Note_on_c, 4, 55, 119
6, 50400, Note_on_c, 4, 48, 119
6, 50400, Note_on_c, 4, 36, 119
6, 50400, Note_on_c, 4, 52, 119
6, 50585, Note_off_c, 4, 60, 64
6, 50585, Note_off_c, 4, 55, 64
6, 50585, Note_off_c, 4, 52, 64
6, 50640, Note_on_c, 4, 60, 119
6, 50640, Note_on_c, 4, 55, 119
6, 50640, Note_on_c, 4, 52, 119
6, 50825, Note_off_c, 4, 60, 64
6, 50825, Note_off_c, 4, 55, 64
6, 50825, Note_off_c, 4, 52, 64
6, 50857, Note_off_c, 4, 48, 64
6, 50857, Note_off_c, 4, 36, 64
6, 50880, Note_on_c, 4, 62, 119
6, 50880, Note_on_c, 4, 57, 119
6, 50880, Note_on_c, 4, 50, 119
6, 50880, Note_on_c, 4, 38, 119
6, 50880, Note_on_c, 4, 54, 119
6, 51065, Note_off_c, 4, 62, 64
6, 51065, Note_off_c, 4, 57, 64
6, 51065, Note_off_c, 4, 54, 64
6, 51120, Note_on_c, 4, 62, 119
6, 51120, Note_on_c, 4, 57, 119
6, 51120, Note_on_c, 4, 54, 119
6, 51305, Note_off_c, 4, 62, 64
6, 51305, Note_off_c, 4, 57, 64
6, 51305, Note_off_c, 4, 54, 64
6, 51337, Note_off_c, 4, 50, 64
6, 51337, Note_off_c, 4, 38, 64
6, 51360, Note_on_c, 4, 62, 119
6, 51360, Note_on_c, 4, 57, 119
6, 51360, Note_on_c, 4, 50, 119
6, 51360, Note_on_c, 4, 38, 119
6, 51360, Note_on_c, 4, 54, 119
6, 51545, Note_off_c, 4, 62, 64
6, 51545, Note_off_c, 4, 57, 64
6, 51545, Note_off_c, 4, 54, 64
6, 51600, Note_on_c, 4, 62, 119
6, 51600, Note_on_c, 4, 57, 119
6, 51600, Note_on_c, 4, 54, 119
6, 51785, Note_off_c, 4, 62, 64
6, 51785, Note_off_c, 4, 57, 64
6, 51785, Note_off_c, 4, 54, 64
6, 51817, Note_off_c, 4, 50, 64
6, 51817, Note_off_c, 4, 38, 64
6, 51840, Note_on_c, 4, 64, 119
6, 51840, Note_on_c, 4, 59, 119
6, 51840, Note_on_c, 4, 52, 119
6, 51840, Note_on_c, 4, 40, 119
6, 51840, Note_on_c, 4, 56, 119
6, 52025, Note_off_c, 4, 64, 64
6, 52025, Note_off_c, 4, 59, 64
6, 52025, Note_off_c, 4, 56, 64
6, 52080, Note_on_c, 4, 64, 119
6, 52080, Note_on_c, 4, 59, 119
6, 52080, Note_on_c, 4, 56, 119
6, 52265, Note_off_c, 4, 64, 64
6, 52265, Note_off_c, 4, 59, 64
6, 52265, Note_off_c, 4, 56, 64
6, 52297, Note_off_c, 4, 52, 64
6, 52297, Note_off_c, 4, 40, 64
6, 52320, Note_on_c, 4, 64, 119
6, 52320, Note_on_c, 4, 59, 119
6, 52320, Note_on_c, 4, 52, 119
6, 52320, Note_on_c, 4, 40, 119
6, 52320, Note_on_c, 4, 56, 119
6, 52505, Note_off_c, 4, 64, 64
6, 52505, Note_off_c, 4, 59, 64
6, 52505, Note_off_c, 4, 56, 64
6, 52560, Note_on_c, 4, 64, 119
6, 52560, Note_on_c, 4, 59, 119
6, 52560, Note_on_c, 4, 56, 119
6, 52737, Note_off_c, 4, 56, 64
6, 52745, Note_off_c, 4, 64, 64
6, 52745, Note_off_c, 4, 59, 64
6, 52777, Note_off_c, 4, 52, 64
6, 52777, Note_off_c, 4, 40, 64
6, 52800, Note_on_c, 4, 62, 119
6, 52800, Note_on_c, 4, 57, 119
6, 52800, Note_on_c, 4, 50, 119
6, 52800, Note_on_c, 4, 38, 119
6, 52800, Note_on_c, 4, 54, 119
6, 52985, Note_off_c, 4, 62, 64
6, 52985, Note_off_c, 4, 57, 64
6, 52985, Note_off_c, 4, 54, 64
6, 53040, Note_on_c, 4, 62, 119
6, 53040, Note_on_c, 4, 57, 119
6, 53040, Note_on_c, 4, 54, 119
6, 53225, Note_off_c, 4, 62, 64
6, 53225, Note_off_c, 4, 57, 64
6, 53225, Note_off_c, 4, 54, 64
6, 53257, Note_off_c, 4, 50, 64
6, 53257, Note_off_c, 4, 38, 64
6, 53280, Note_on_c, 4, 62, 119
6, 53280, Note_on_c, 4, 57, 119
6, 53280, Note_on_c, 4, 50, 119
6, 53280, Note_on_c, 4, 38, 119
6, 53280, Note_on_c, 4, 54, 119
6, 53465, Note_off_c, 4, 62, 64
6, 53465, Note_off_c, 4, 57, 64
6, 53465, Note_off_c, 4, 54, 64
6, 53520, Note_on_c, 4, 62, 119
6, 53520, Note_on_c, 4, 57, 119
6, 53520, Note_on_c, 4, 54, 119
6, 53689, Note_off_c, 4, 54, 64
6, 53705, Note_off_c, 4, 62, 64
6, 53705, Note_off_c, 4, 57, 64
6, 53737, Note_off_c, 4, 50, 64
6, 53737, Note_off_c, 4, 38, 64
6, 53760, Note_on_c, 4, 61, 118
6, 53760, Note_on_c, 4, 57, 118
6, 53760, Note_on_c, 4, 45, 118
6, 53760, Note_on_c, 4, 33, 118
6, 53760, Note_on_c, 4, 52, 118
6, 53945, Note_off_c, 4, 61, 64
6, 53945, Note_off_c, 4, 57, 64
6, 53945, Note_off_c, 4, 52, 64
6, 54000, Note_on_c, 4, 61, 118
6, 54000, Note_on_c, 4, 57, 118
6, 54000, Note_on_c, 4, 52, 118
6, 54185, Note_off_c, 4, 61, 64
6, 54185, Note_off_c, 4, 57, 64
6, 54185, Note_off_c, 4, 52, 64
6, 54217, Note_off_c, 4, 45, 64
6, 54217, Note_off_c, 4, 33, 64
6, 54240, Note_on_c, 4, 61, 118
6, 54240, Note_on_c, 4, 57, 118
6, 54240, Note_on_c, 4, 43, 118
6, 54240, Note_on_c, 4, 31, 118
6, 54240, Note_on_c, 4, 52, 118
6, 54425, Note_off_c, 4, 61, 64
6, 54425, Note_off_c, 4, 57, 64
6, 54425, Note_off_c, 4, 52, 64
6, 54480, Note_on_c, 4, 61, 118
6, 54480, Note_on_c, 4, 57, 118
6, 54480, Note_on_c, 4, 52, 118
6, 54649, Note_off_c, 4, 52, 64
6, 54665, Note_off_c, 4, 61, 64
6, 54665, Note_off_c, 4, 57, 64
6, 54697, Note_off_c, 4, 43, 64
6, 54697, Note_off_c, 4, 31, 64
6, 54720, Note_on_c, 4, 60, 118
6, 54720, Note_on_c, 4, 55, 118
6, 54720, Note_on_c, 4, 36, 118
6, 54720, Note_on_c, 4, 24, 118
6, 54720, Note_on_c, 4, 52, 118
6, 54905, Note_off_c, 4, 60, 64
6, 54905, Note_off_c, 4, 55, 64
6, 54905, Note_off_c, 4, 52, 64
6, 54960, Note_on_c, 4, 60, 118
6, 54960, Note_on_c, 4, 55, 118
6, 54960, Note_on_c, 4, 52, 118
6, 55145, Note_off_c, 4, 60, 64
6, 55145, Note_off_c, 4, 55, 64
6, 55153, Note_off_c, 4, 52, 64
6, 55177, Note_off_c, 4, 36, 64
6, 55177, Note_off_c, 4, 24, 64
6, 55200, Note_on_c, 4, 62, 118
6, 55200, Note_on_c, 4, 57, 118
6, 55200, Note_on_c, 4, 38, 118
6, 55200, Note_on_c, 4, 26, 118
6, 55200, Note_on_c, 4, 54, 118
6, 55385, Note_off_c, 4, 62, 64
6, 55385, Note_off_c, 4, 57, 64
6, 55385, Note_off_c, 4, 54, 64
6, 55440, Note_on_c, 4, 62, 118
6, 55440, Note_on_c, 4, 57, 118
6, 55440, Note_on_c, 4, 54, 118
6, 55617, Note_off_c, 4, 54, 64
6, 55625, Note_off_c, 4, 62, 64
6, 55625, Note_off_c, 4, 57, 64
6, 55657, Note_off_c, 4, 38, 64
6, 55657, Note_off_c, 4, 26, 64
6, 55680, Note_on_c, 4, 61, 118
6, 55680, Note_on_c, 4, 57, 118
6, 55680, Note_on_c, 4, 45, 118
6, 55680, Note_on_c, 4, 33, 118
6, 55680, Note_on_c, 4, 52, 118
6, 55865, Note_off_c, 4, 61, 64
6, 55865, Note_off_c, 4, 57, 64
6, 55865, Note_off_c, 4, 52, 64
6, 55920, Note_on_c, 4, 61, 118
6, 55920, Note_on_c, 4, 57, 118
6, 55920, Note_on_c, 4, 52, 118
6, 56105, Note_off_c, 4, 61, 64
6, 56105, Note_off_c, 4, 57, 64
6, 56105, Note_off_c, 4, 52, 64
6, 56137, Note_off_c, 4, 45, 64
6, 56137, Note_off_c, 4, 33, 64
6, 56160, Note_on_c, 4, 61, 118
6, 56160, Note_on_c, 4, 57, 118
6, 56160, Note_on_c, 4, 43, 118
6, 56160, Note_on_c, 4, 31, 118
6, 56160, Note_on_c, 4, 52, 118
6, 56345, Note_off_c, 4, 61, 64
6, 56345, Note_off_c, 4, 57, 64
6, 56345, Note_off_c, 4, 52, 64
6, 56400, Note_on_c, 4, 61, 118
6, 56400, Note_on_c, 4, 57, 118
6, 56400, Note_on_c, 4, 52, 118
6, 56585, Note_off_c, 4, 61, 64
6, 56585, Note_off_c, 4, 57, 64
6, 56585, Note_off_c, 4, 52, 64
6, 56617, Note_off_c, 4, 43, 64
6, 56617, Note_off_c, 4, 31, 64
6, 56640, Note_on_c, 4, 60, 118
6, 56640, Note_on_c, 4, 55, 118
6, 56640, Note_on_c, 4, 48, 118
6, 56640, Note_on_c, 4, 36, 118
6, 56640, Note_on_c, 4, 52, 118
6, 56825, Note_off_c, 4, 60, 64
6, 56825, Note_off_c, 4, 55, 64
6, 56825, Note_off_c, 4, 52, 64
6, 56880, Note_on_c, 4, 60, 118
6, 56880, Note_on_c, 4, 55, 118
6, 56880, Note_on_c, 4, 52, 118
6, 57049, Note_off_c, 4, 52, 64
6, 57065, Note_off_c, 4, 60, 64
6, 57065, Note_off_c, 4, 55, 64
6, 57097, Note_off_c, 4, 48, 64
6, 57097, Note_off_c, 4, 36, 64
6, 57120, Note_on_c, 4, 60, 118
6, 57120, Note_on_c, 4, 55, 118
6, 57120, Note_on_c, 4, 48, 118
6, 57120, Note_on_c, 4, 36, 118
6, 57120, Note_on_c, 4, 52, 118
6, 57305, Note_off_c, 4, 60, 64
6, 57305, Note_off_c, 4, 55, 64
6, 57305, Note_off_c, 4, 52, 64
6, 57360, Note_on_c, 4, 60, 118
6, 57360, Note_on_c, 4, 55, 118
6, 57360, Note_on_c, 4, 52, 118
6, 57537, Note_off_c, 4, 52, 64
6, 57545, Note_off_c, 4, 60, 64
6, 57545, Note_off_c, 4, 55, 64
6, 57577, Note_off_c, 4, 48, 64
6, 57577, Note_off_c, 4, 36, 64
6, 57600, Note_on_c, 4, 62, 118
6, 57600, Note_on_c, 4, 57, 118
6, 57600, Note_on_c, 4, 50, 118
6, 57600, Note_on_c, 4, 38, 118
6, 57600, Note_on_c, 4, 54, 118
6, 57785, Note_off_c, 4, 62, 64
6, 57785, Note_off_c, 4, 57, 64
6, 57785, Note_off_c, 4, 54, 64
6, 57840, Note_on_c, 4, 62, 118
6, 57840, Note_on_c, 4, 57, 118
6, 57840, Note_on_c, 4, 54, 118
6, 58025, Note_off_c, 4, 62, 64
6, 58025, Note_off_c, 4, 57, 64
6, 58025, Note_off_c, 4, 54, 64
6, 58057, Note_off_c, 4, 50, 64
6, 58057, Note_off_c, 4, 38, 64
6, 58080, Note_on_c, 4, 62, 118
6, 58080, Note_on_c, 4, 57, 118
6, 58080, Note_on_c, 4, 50, 118
6, 58080, Note_on_c, 4, 38, 118
6, 58080, Note_on_c, 4, 54, 118
6, 58265, Note_off_c, 4, 62, 64
6, 58265, Note_off_c, 4, 57, 64
6, 58265, Note_off_c, 4, 54, 64
6, 58320, Note_on_c, 4, 62, 118
6, 58320, Note_on_c, 4, 57, 118
6, 58320, Note_on_c, 4, 54, 118
6, 58497, Note_off_c, 4, 54, 64
6, 58505, Note_off_c, 4, 62, 64
6, 58505, Note_off_c, 4, 57, 64
6, 58537, Note_off_c, 4, 50, 64
6, 58537, Note_off_c, 4, 38, 64
6, 58560, Note_on_c, 4, 61, 118
6, 58560, Note_on_c, 4, 57, 118
6, 58560, Note_on_c, 4, 45, 118
6, 58560, Note_on_c, 4, 33, 118
6, 58560, Note_on_c, 4, 52, 118
6, 58745, Note_off_c, 4, 61, 64
6, 58745, Note_off_c, 4, 57, 64
6, 58745, Note_off_c, 4, 52, 64
6, 58800, Note_on_c, 4, 61, 118
6, 58800, Note_on_c, 4, 57, 118
6, 58800, Note_on_c, 4, 52, 118
6, 58985, Note_off_c, 4, 61, 64
6, 58985, Note_off_c, 4, 57, 64
6, 58985, Note_off_c, 4, 52, 64
6, 59040, Note_on_c, 4, 61, 118
6, 59040, Note_on_c, 4, 57, 118
6, 59040, Note_on_c, 4, 52, 118
6, 59225, Note_off_c, 4, 61, 64
6, 59225, Note_off_c, 4, 57, 64
6, 59225, Note_off_c, 4, 52, 64
6, 59280, Note_on_c, 4, 61, 118
6, 59280, Note_on_c, 4, 57, 118
6, 59280, Note_on_c, 4, 52, 118
6, 59465, Note_off_c, 4, 61, 64
6, 59465, Note_off_c, 4, 57, 64
6, 59465, Note_off_c, 4, 52, 64
6, 59505, Note_off_c, 4, 45, 64
6, 59505, Note_off_c, 4, 33, 64
6, 59520, Note_on_c, 4, 61, 118
6, 59520, Note_on_c, 4, 57, 118
6, 59520, Note_on_c, 4, 45, 118
6, 59520, Note_on_c, 4, 33, 118
6, 59520, Note_on_c, 4, 52, 118
6, 59705, Note_off_c, 4, 61, 64
6, 59705, Note_off_c, 4, 57, 64
6, 59705, Note_off_c, 4, 52, 64
6, 59760, Note_on_c, 4, 61, 118
6, 59760, Note_on_c, 4, 57, 118
6, 59760, Note_on_c, 4, 52, 118
6, 59945, Note_off_c, 4, 61, 64
6, 59945, Note_off_c, 4, 57, 64
6, 59945, Note_off_c, 4, 52, 64
6, 59977, Note_off_c, 4, 45, 64
6, 59977, Note_off_c, 4, 33, 64
6, 60000, Note_on_c, 4, 61, 118
6, 60000, Note_on_c, 4, 57, 118
6, 60000, Note_on_c, 4, 43, 118
6, 60000, Note_on_c, 4, 31, 118
6, 60000, Note_on_c, 4, 52, 118
6, 60185, Note_off_c, 4, 61, 64
6, 60185, Note_off_c, 4, 57, 64
6, 60185, Note_off_c, 4, 52, 64
6, 60240, Note_on_c, 4, 61, 118
6, 60240, Note_on_c, 4, 57, 118
6, 60240, Note_on_c, 4, 52, 118
6, 60425, Note_off_c, 4, 61, 64
6, 60425, Note_off_c, 4, 57, 64
6, 60425, Note_off_c, 4, 52, 64
6, 60457, Note_off_c, 4, 43, 64
6, 60457, Note_off_c, 4, 31, 64
6, 60480, Note_on_c, 4, 62, 118
6, 60480, Note_on_c, 4, 57, 118
6, 60480, Note_on_c, 4, 42, 118
6, 60480, Note_on_c, 4, 30, 118
6, 60480, Note_on_c, 4, 54, 118
6, 60665, Note_off_c, 4, 62, 64
6, 60665, Note_off_c, 4, 57, 64
6, 60665, Note_off_c, 4, 54, 64
6, 60720, Note_on_c, 4, 62, 118
6, 60720, Note_on_c, 4, 57, 118
6, 60720, Note_on_c, 4, 54, 118
6, 60897, Note_off_c, 4, 54, 64
6, 60905, Note_off_c, 4, 62, 64
6, 60905, Note_off_c, 4, 57, 64
6, 60937, Note_off_c, 4, 42, 64
6, 60937, Note_off_c, 4, 30, 64
6, 60960, Note_on_c, 4, 60, 118
6, 60960, Note_on_c, 4, 57, 118
6, 60960, Note_on_c, 4, 41, 118
6, 60960, Note_on_c, 4, 29, 118
6, 60960, Note_on_c, 4, 53, 118
6, 61143, Note_off_c, 4, 53, 64
6, 61145, Note_off_c, 4, 60, 64
6, 61145, Note_off_c, 4, 57, 64
6, 61200, Note_on_c, 4, 62, 118
6, 61200, Note_on_c, 4, 59, 118
6, 61200, Note_on_c, 4, 43, 118
6, 61200, Note_on_c, 4, 31, 118
6, 61200, Note_on_c, 4, 55, 118
6, 61207, Note_off_c, 4, 41, 64
6, 61207, Note_off_c, 4, 29, 64
6, 61377, Note_off_c, 4, 55, 64
6, 61385, Note_off_c, 4, 62, 64
6, 61385, Note_off_c, 4, 59, 64
6, 61440, Note_on_c, 4, 61, 118
6, 61440, Note_on_c, 4, 57, 118
6, 61440, Note_on_c, 4, 45, 118
6, 61440, Note_on_c, 4, 33, 118
6, 61440, Note_on_c, 4, 52, 118
6, 61447, Note_off_c, 4, 43, 64
6, 61447, Note_off_c, 4, 31, 64
6, 61625, Note_off_c, 4, 61, 64
6, 61625, Note_off_c, 4, 57, 64
6, 61625, Note_off_c, 4, 52, 64
6, 61680, Note_on_c, 4, 61, 118
6, 61680, Note_on_c, 4, 57, 118
6, 61680, Note_on_c, 4, 52, 118
6, 61865, Note_off_c, 4, 61, 64
6, 61865, Note_off_c, 4, 57, 64
6, 61865, Note_off_c, 4, 52, 64
6, 61897, Note_off_c, 4, 45, 64
6, 61897, Note_off_c, 4, 33, 64
6, 61920, Note_on_c, 4, 61, 118
6, 61920, Note_on_c, 4, 57, 118
6, 61920, Note_on_c, 4, 43, 118
6, 61920, Note_on_c, 4, 31, 118
6, 61920, Note_on_c, 4, 52, 118
6, 62105, Note_off_c, 4, 61, 64
6, 62105, Note_off_c, 4, 57, 64
6, 62105, Note_off_c, 4, 52, 64
6, 62160, Note_on_c, 4, 61, 118
6, 62160, Note_on_c, 4, 57, 118
6, 62160, Note_on_c, 4, 52, 118
6, 62337, Note_off_c, 4, 52, 64
6, 62345, Note_off_c, 4, 61, 64
6, 62345, Note_off_c, 4, 57, 64
6, 62377, Note_off_c, 4, 43, 64
6, 62377, Note_off_c, 4, 31, 64
6, 62400, Note_on_c, 4, 60, 118
6, 62400, Note_on_c, 4, 57, 118
6, 62400, Note_on_c, 4, 41, 118
6, 62400, Note_on_c, 4, 29, 118
6, 62400, Note_on_c, 4, 53, 118
6, 62585, Note_off_c, 4, 60, 64
6, 62585, Note_off_c, 4, 57, 64
6, 62585, Note_off_c, 4, 53, 64
6, 62640, Note_on_c, 4, 60, 118
6, 62640, Note_on_c, 4, 57, 118
6, 62640, Note_on_c, 4, 53, 118
6, 62825, Note_off_c, 4, 60, 64
6, 62825, Note_off_c, 4, 57, 64
6, 62825, Note_off_c, 4, 53, 64
6, 62857, Note_off_c, 4, 41, 64
6, 62857, Note_off_c, 4, 29, 64
6, 62880, Note_on_c, 4, 60, 118
6, 62880, Note_on_c, 4, 57, 118
6, 62880, Note_on_c, 4, 41, 118
6, 62880, Note_on_c, 4, 29, 118
6, 62880, Note_on_c, 4, 53, 118
6, 63065, Note_off_c, 4, 60, 64
6, 63065, Note_off_c, 4, 57, 64
6, 63065, Note_off_c, 4, 53, 64
6, 63120, Note_on_c, 4, 60, 118
6, 63120, Note_on_c, 4, 57, 118
6, 63120, Note_on_c, 4, 53, 118
6, 63297, Note_off_c, 4, 53, 64
6, 63305, Note_off_c, 4, 60, 64
6, 63305, Note_off_c, 4, 57, 64
6, 63337, Note_off_c, 4, 41, 64
6, 63337, Note_off_c, 4, 29, 64
6, 63360, Note_on_c, 4, 63, 118
6, 63360, Note_on_c, 4, 57, 118
6, 63360, Note_on_c, 4, 47, 118
6, 63360, Note_on_c, 4, 35, 118
6, 63360, Note_on_c, 4, 54, 118
6, 63545, Note_off_c, 4, 63, 64
6, 63545, Note_off_c, 4, 57, 64
6, 63545, Note_off_c, 4, 54, 64
6, 63600, Note_on_c, 4, 63, 118
6, 63600, Note_on_c, 4, 57, 118
6, 63600, Note_on_c, 4, 54, 118
6, 63785, Note_off_c, 4, 63, 64
6, 63785, Note_off_c, 4, 57, 64
6, 63785, Note_off_c, 4, 54, 64
6, 63817, Note_off_c, 4, 47, 64
6, 63817, Note_off_c, 4, 35, 64
6, 63840, Note_on_c, 4, 63, 118
6, 63840, Note_on_c, 4, 57, 118
6, 63840, Note_on_c, 4, 47, 118
6, 63840, Note_on_c, 4, 35, 118
6, 63840, Note_on_c, 4, 54, 118
6, 64025, Note_off_c, 4, 63, 64
6, 64025, Note_off_c, 4, 57, 64
6, 64025, Note_off_c, 4, 54, 64
6, 64080, Note_on_c, 4, 63, 118
6, 64080, Note_on_c, 4, 57, 118
6, 64080, Note_on_c, 4, 54, 118
6, 64249, Note_off_c, 4, 54, 64
6, 64265, Note_off_c, 4, 63, 64
6, 64265, Note_off_c, 4, 57, 64
6, 64297, Note_off_c, 4, 47, 64
6, 64297, Note_off_c, 4, 35, 64
6, 64320, Note_on_c, 4, 63, 118
6, 64320, Note_on_c, 4, 57, 118
6, 64320, Note_on_c, 4, 47, 118
6, 64320, Note_on_c, 4, 35, 118
6, 64320, Note_on_c, 4, 54, 118
6, 64505, Note_off_c, 4, 63, 64
6, 64505, Note_off_c, 4, 57, 64
6, 64505, Note_off_c, 4, 54, 64
6, 64560, Note_on_c, 4, 63, 119
6, 64560, Note_on_c, 4, 57, 119
6, 64560, Note_on_c, 4, 54, 119
6, 64745, Note_off_c, 4, 63, 64
6, 64745, Note_off_c, 4, 57, 64
6, 64745, Note_off_c, 4, 54, 64
6, 64777, Note_off_c, 4, 47, 64
6, 64777, Note_off_c, 4, 35, 64
6, 64800, Note_on_c, 4, 63, 119
6, 64800, Note_on_c, 4, 57, 119
6, 64800, Note_on_c, 4, 47, 119
6, 64800, Note_on_c, 4, 35, 119
6, 64800, Note_on_c, 4, 54, 119
6, 64985, Note_off_c, 4, 63, 64
6, 64985, Note_off_c, 4, 57, 64
6, 64985, Note_off_c, 4, 54, 64
6, 65040, Note_on_c, 4, 63, 119
6, 65040, Note_on_c, 4, 57, 119
6, 65040, Note_on_c, 4, 54, 119
6, 65209, Note_off_c, 4, 54, 64
6, 65225, Note_off_c, 4, 63, 64
6, 65225, Note_off_c, 4, 57, 64
6, 65257, Note_off_c, 4, 47, 64
6, 65257, Note_off_c, 4, 35, 64
6, 65280, Note_on_c, 4, 60, 119
6, 65280, Note_on_c, 4, 55, 119
6, 65280, Note_on_c, 4, 48, 119
6, 65280, Note_on_c, 4, 36, 119
6, 65280, Note_on_c, 4, 52, 119
6, 65465, Note_off_c, 4, 60, 64
6, 65465, Note_off_c, 4, 55, 64
6, 65465, Note_off_c, 4, 52, 64
6, 65520, Note_on_c, 4, 60, 119
6, 65520, Note_on_c, 4, 55, 119
6, 65520, Note_on_c, 4, 52, 119
6, 65705, Note_off_c, 4, 60, 64
6, 65705, Note_off_c, 4, 55, 64
6, 65705, Note_off_c, 4, 52, 64
6, 65737, Note_off_c, 4, 48, 64
6, 65737, Note_off_c, 4, 36, 64
6, 65760, Note_on_c, 4, 60, 119
6, 65760, Note_on_c, 4, 55, 119
6, 65760, Note_on_c, 4, 48, 119
6, 65760, Note_on_c, 4, 36, 119
6, 65760, Note_on_c, 4, 52, 119
6, 65945, Note_off_c, 4, 60, 64
6, 65945, Note_off_c, 4, 55, 64
6, 65945, Note_off_c, 4, 52, 64
6, 66000, Note_on_c, 4, 60, 119
6, 66000, Note_on_c, 4, 55, 119
6, 66000, Note_on_c, 4, 52, 119
6, 66185, Note_off_c, 4, 60, 64
6, 66185, Note_off_c, 4, 55, 64
6, 66185, Note_off_c, 4, 52, 64
6, 66217, Note_off_c, 4, 48, 64
6, 66217, Note_off_c, 4, 36, 64
6, 66240, Note_on_c, 4, 62, 119
6, 66240, Note_on_c, 4, 57, 119
6, 66240, Note_on_c, 4, 50, 119
6, 66240, Note_on_c, 4, 38, 119
6, 66240, Note_on_c, 4, 54, 119
6, 66425, Note_off_c, 4, 62, 64
6, 66425, Note_off_c, 4, 57, 64
6, 66425, Note_off_c, 4, 54, 64
6, 66480, Note_on_c, 4, 62, 119
6, 66480, Note_on_c, 4, 57, 119
6, 66480, Note_on_c, 4, 54, 119
6, 66665, Note_off_c, 4, 62, 64
6, 66665, Note_off_c, 4, 57, 64
6, 66665, Note_off_c, 4, 54, 64
6, 66697, Note_off_c, 4, 50, 64
6, 66697, Note_off_c, 4, 38, 64
6, 66720, Note_on_c, 4, 62, 119
6, 66720, Note_on_c, 4, 57, 119
6, 66720, Note_on_c, 4, 50, 119
6, 66720, Note_on_c, 4, 38, 119
6, 66720, Note_on_c, 4, 54, 119
6, 66905, Note_off_c, 4, 62, 64
6, 66905, Note_off_c, 4, 57, 64
6, 66905, Note_off_c, 4, 54, 64
6, 66960, Note_on_c, 4, 62, 119
6, 66960, Note_on_c, 4, 57, 119
6, 66960, Note_on_c, 4, 54, 119
6, 67137, Note_off_c, 4, 54, 64
6, 67145, Note_off_c, 4, 62, 64
6, 67145, Note_off_c, 4, 57, 64
6, 67177, Note_off_c, 4, 50, 64
6, 67177, Note_off_c, 4, 38, 64
6, 67200, Note_on_c, 4, 64, 119
6, 67200, Note_on_c, 4, 59, 119
6, 67200, Note_on_c, 4, 52, 119
6, 67200, Note_on_c, 4, 40, 119
6, 67200, Note_on_c, 4, 56, 119
6, 67385, Note_off_c, 4, 64, 64
6, 67385, Note_off_c, 4, 59, 64
6, 67385, Note_off_c, 4, 56, 64
6, 67440, Note_on_c, 4, 64, 119
6, 67440, Note_on_c, 4, 59, 119
6, 67440, Note_on_c, 4, 56, 119
6, 67625, Note_off_c, 4, 64, 64
6, 67625, Note_off_c, 4, 59, 64
6, 67625, Note_off_c, 4, 56, 64
6, 67657, Note_off_c, 4, 52, 64
6, 67657, Note_off_c, 4, 40, 64
6, 67680, Note_on_c, 4, 64, 119
6, 67680, Note_on_c, 4, 59, 119
6, 67680, Note_on_c, 4, 52, 119
6, 67680, Note_on_c, 4, 40, 119
6, 67680, Note_on_c, 4, 56, 119
6, 67865, Note_off_c, 4, 64, 64
6, 67865, Note_off_c, 4, 59, 64
6, 67865, Note_off_c, 4, 56, 64
6, 67920, Note_on_c, 4, 64, 119
6, 67920, Note_on_c, 4, 59, 119
6, 67920, Note_on_c, 4, 56, 119
6, 68097, Note_off_c, 4, 56, 64
6, 68105, Note_off_c, 4, 64, 64
6, 68105, Note_off_c, 4, 59, 64
6, 68137, Note_off_c, 4, 52, 64
6, 68137, Note_off_c, 4, 40, 64
6, 68160, Note_on_c, 4, 62, 119
6, 68160, Note_on_c, 4, 57, 119
6, 68160, Note_on_c, 4, 50, 119
6, 68160, Note_on_c, 4, 38, 119
6, 68160, Note_on_c, 4, 54, 119
6, 68345, Note_off_c, 4, 62, 64
6, 68345, Note_off_c, 4, 57, 64
6, 68345, Note_off_c, 4, 54, 64
6, 68400, Note_on_c, 4, 62, 119
6, 68400, Note_on_c, 4, 57, 119
6, 68400, Note_on_c, 4, 54, 119
6, 68585, Note_off_c, 4, 62, 64
6, 68585, Note_off_c, 4, 57, 64
6, 68585, Note_off_c, 4, 54, 64
6, 68617, Note_off_c, 4, 50, 64
6, 68617, Note_off_c, 4, 38, 64
6, 68640, Note_on_c, 4, 62, 119
6, 68640, Note_on_c, 4, 57, 119
6, 68640, Note_on_c, 4, 50, 119
6, 68640, Note_on_c, 4, 38, 119
6, 68640, Note_on_c, 4, 54, 119
6, 68825, Note_off_c, 4, 62, 64
6, 68825, Note_off_c, 4, 57, 64
6, 68825, Note_off_c, 4, 54, 64
6, 68880, Note_on_c, 4, 62, 119
6, 68880, Note_on_c, 4, 57, 119
6, 68880, Note_on_c, 4, 54, 119
6, 69065, Note_off_c, 4, 62, 64
6, 69065, Note_off_c, 4, 57, 64
6, 69065, Note_off_c, 4, 54, 64
6, 69097, Note_off_c, 4, 50, 64
6, 69097, Note_off_c, 4, 38, 64
6, 69120, Note_on_c, 4, 60, 119
6, 69120, Note_on_c, 4, 55, 119
6, 69120, Note_on_c, 4, 48, 119
6, 69120, Note_on_c, 4, 36, 119
6, 69120, Note_on_c, 4, 52, 119
6, 69305, Note_off_c, 4, 60, 64
6, 69305, Note_off_c, 4, 55, 64
6, 69305, Note_off_c, 4, 52, 64
6, 69360, Note_on_c, 4, 60, 119
6, 69360, Note_on_c, 4, 55, 119
6, 69360, Note_on_c, 4, 52, 119
6, 69545, Note_off_c, 4, 60, 64
6, 69545, Note_off_c, 4, 55, 64
6, 69545, Note_off_c, 4, 52, 64
6, 69577, Note_off_c, 4, 48, 64
6, 69577, Note_off_c, 4, 36, 64
6, 69600, Note_on_c, 4, 60, 119
6, 69600, Note_on_c, 4, 55, 119
6, 69600, Note_on_c, 4, 48, 119
6, 69600, Note_on_c, 4, 36, 119
6, 69600, Note_on_c, 4, 52, 119
6, 69785, Note_off_c, 4, 60, 64
6, 69785, Note_off_c, 4, 55, 64
6, 69785, Note_off_c, 4, 52, 64
6, 69840, Note_on_c, 4, 60, 119
6, 69840, Note_on_c, 4, 55, 119
6, 69840, Note_on_c, 4, 52, 119
6, 70017, Note_off_c, 4, 52, 64
6, 70025, Note_off_c, 4, 60, 64
6, 70025, Note_off_c, 4, 55, 64
6, 70057, Note_off_c, 4, 48, 64
6, 70057, Note_off_c, 4, 36, 64
6, 70080, Note_on_c, 4, 63, 119
6, 70080, Note_on_c, 4, 57, 119
6, 70080, Note_on_c, 4, 47, 119
6, 70080, Note_on_c, 4, 35, 119
6, 70080, Note_on_c, 4, 54, 119
6, 70265, Note_off_c, 4, 63, 64
6, 70265, Note_off_c, 4, 57, 64
6, 70265, Note_off_c, 4, 54, 64
6, 70320, Note_on_c, 4, 63, 119
6, 70320, Note_on_c, 4, 57, 119
6, 70320, Note_on_c, 4, 54, 119
6, 70499, Note_off_c, 4, 54, 64
6, 70505, Note_off_c, 4, 63, 64
6, 70505, Note_off_c, 4, 57, 64
6, 70537, Note_off_c, 4, 47, 64
6, 70537, Note_off_c, 4, 35, 64
6, 70560, Note_on_c, 4, 63, 119
6, 70560, Note_on_c, 4, 57, 119
6, 70560, Note_on_c, 4, 47, 119
6, 70560, Note_on_c, 4, 35, 119
6, 70560, Note_on_c, 4, 54, 119
6, 70745, Note_off_c, 4, 63, 64
6, 70745, Note_off_c, 4, 57, 64
6, 70745, Note_off_c, 4, 54, 64
6, 70800, Note_on_c, 4, 63, 119
6, 70800, Note_on_c, 4, 57, 119
6, 70800, Note_on_c, 4, 54, 119
6, 70961, Note_off_c, 4, 54, 64
6, 70985, Note_off_c, 4, 63, 64
6, 70985, Note_off_c, 4, 57, 64
6, 71017, Note_off_c, 4, 47, 64
6, 71017, Note_off_c, 4, 35, 64
6, 71040, Note_on_c, 4, 61, 119
6, 71040, Note_on_c, 4, 57, 119
6, 71040, Note_on_c, 4, 45, 119
6, 71040, Note_on_c, 4, 33, 119
6, 71040, Note_on_c, 4, 52, 119
6, 71225, Note_off_c, 4, 61, 64
6, 71225, Note_off_c, 4, 57, 64
6, 71225, Note_off_c, 4, 52, 64
6, 71280, Note_on_c, 4, 61, 119
6, 71280, Note_on_c, 4, 57, 119
6, 71280, Note_on_c, 4, 52, 119
6, 71435, Note_off_c, 4, 52, 64
6, 71465, Note_off_c, 4, 61, 64
6, 71465, Note_off_c, 4, 57, 64
6, 71497, Note_off_c, 4, 45, 64
6, 71497, Note_off_c, 4, 33, 64
6, 71520, Note_on_c, 4, 61, 119
6, 71520, Note_on_c, 4, 57, 119
6, 71520, Note_on_c, 4, 45, 119
6, 71520, Note_on_c, 4, 33, 119
6, 71520, Note_on_c, 4, 52, 119
6, 71705, Note_off_c, 4, 61, 64
6, 71705, Note_off_c, 4, 57, 64
6, 71705, Note_off_c, 4, 52, 64
6, 71760, Note_on_c, 4, 61, 119
6, 71760, Note_on_c, 4, 57, 119
6, 71760, Note_on_c, 4, 52, 119
6, 71929, Note_off_c, 4, 52, 64
6, 71945, Note_off_c, 4, 61, 64
6, 71945, Note_off_c, 4, 57, 64
6, 71977, Note_off_c, 4, 45, 64
6, 71977, Note_off_c, 4, 33, 64
6, 72000, Note_on_c, 4, 59, 119
6, 72000, Note_on_c, 4, 55, 119
6, 72000, Note_on_c, 4, 43, 119
6, 72000, Note_on_c, 4, 31, 119
6, 72000, Note_on_c, 4, 50, 119
6, 72185, Note_off_c, 4, 59, 64
6, 72185, Note_off_c, 4, 55, 64
6, 72185, Note_off_c, 4, 50, 64
6, 72240, Note_on_c, 4, 59, 119
6, 72240, Note_on_c, 4, 55, 119
6, 72240, Note_on_c, 4, 50, 119
6, 72419, Note_off_c, 4, 50, 64
6, 72425, Note_off_c, 4, 59, 64
6, 72425, Note_off_c, 4, 55, 64
6, 72457, Note_off_c, 4, 43, 64
6, 72457, Note_off_c, 4, 31, 64
6, 72480, Note_on_c, 4, 59, 119
6, 72480, Note_on_c, 4, 55, 119
6, 72480, Note_on_c, 4, 43, 119
6, 72480, Note_on_c, 4, 31, 119
6, 72480, Note_on_c, 4, 50, 119
6, 72665, Note_off_c, 4, 59, 64
6, 72665, Note_off_c, 4, 55, 64
6, 72665, Note_off_c, 4, 50, 64
6, 72720, Note_on_c, 4, 59, 119
6, 72720, Note_on_c, 4, 55, 119
6, 72720, Note_on_c, 4, 50, 119
6, 72897, Note_off_c, 4, 50, 64
6, 72905, Note_off_c, 4, 59, 64
6, 72905, Note_off_c, 4, 55, 64
6, 72937, Note_off_c, 4, 43, 64
6, 72937, Note_off_c, 4, 31, 64
6, 72960, Note_on_c, 4, 60, 119
6, 72960, Note_on_c, 4, 57, 119
6, 72960, Note_on_c, 4, 41, 119
6, 72960, Note_on_c, 4, 29, 119
6, 72960, Note_on_c, 4, 53, 119
6, 73145, Note_off_c, 4, 60, 64
6, 73145, Note_off_c, 4, 57, 64
6, 73145, Note_off_c, 4, 53, 64
6, 73200, Note_on_c, 4, 60, 119
6, 73200, Note_on_c, 4, 57, 119
6, 73200, Note_on_c, 4, 53, 119
6, 73355, Note_off_c, 4, 53, 64
6, 73385, Note_off_c, 4, 60, 64
6, 73385, Note_off_c, 4, 57, 64
6, 73417, Note_off_c, 4, 41, 64
6, 73417, Note_off_c, 4, 29, 64
6, 73440, Note_on_c, 4, 60, 119
6, 73440, Note_on_c, 4, 57, 119
6, 73440, Note_on_c, 4, 41, 119
6, 73440, Note_on_c, 4, 29, 119
6, 73440, Note_on_c, 4, 53, 119
6, 73625, Note_off_c, 4, 60, 64
6, 73625, Note_off_c, 4, 57, 64
6, 73625, Note_off_c, 4, 53, 64
6, 73680, Note_on_c, 4, 60, 119
6, 73680, Note_on_c, 4, 57, 119
6, 73680, Note_on_c, 4, 53, 119
6, 73849, Note_off_c, 4, 53, 64
6, 73865, Note_off_c, 4, 60, 64
6, 73865, Note_off_c, 4, 57, 64
6, 73897, Note_off_c, 4, 41, 64
6, 73897, Note_off_c, 4, 29, 64
6, 73920, Note_on_c, 4, 62, 119
6, 73920, Note_on_c, 4, 56, 119
6, 73920, Note_on_c, 4, 40, 119
6, 73920, Note_on_c, 4, 28, 119
6, 73920, Note_on_c, 4, 52, 119
6, 74105, Note_off_c, 4, 62, 64
6, 74105, Note_off_c, 4, 56, 64
6, 74105, Note_off_c, 4, 52, 64
6, 74160, Note_on_c, 4, 62, 119
6, 74160, Note_on_c, 4, 56, 119
6, 74160, Note_on_c, 4, 52, 119
6, 74315, Note_off_c, 4, 52, 64
6, 74345, Note_off_c, 4, 62, 64
6, 74345, Note_off_c, 4, 56, 64
6, 74377, Note_off_c, 4, 40, 64
6, 74377, Note_off_c, 4, 28, 64
6, 74400, Note_on_c, 4, 62, 119
6, 74400, Note_on_c, 4, 56, 119
6, 74400, Note_on_c, 4, 40, 119
6, 74400, Note_on_c, 4, 28, 119
6, 74400, Note_on_c, 4, 52, 119
6, 74585, Note_off_c, 4, 62, 64
6, 74585, Note_off_c, 4, 56, 64
6, 74585, Note_off_c, 4, 52, 64
6, 74640, Note_on_c, 4, 62, 119
6, 74640, Note_on_c, 4, 56, 119
6, 74640, Note_on_c, 4, 52, 119
6, 74817, Note_off_c, 4, 52, 64
6, 74825, Note_off_c, 4, 62, 64
6, 74825, Note_off_c, 4, 56, 64
6, 74857, Note_off_c, 4, 40, 64
6, 74857, Note_off_c, 4, 28, 64
6, 74880, Note_on_c, 4, 62, 119
6, 74880, Note_on_c, 4, 57, 119
6, 74880, Note_on_c, 4, 50, 119
6, 74880, Note_on_c, 4, 38, 119
6, 74880, Note_on_c, 4, 54, 119
6, 75065, Note_off_c, 4, 62, 64
6, 75065, Note_off_c, 4, 57, 64
6, 75065, Note_off_c, 4, 54, 64
6, 75120, Note_on_c, 4, 62, 119
6, 75120, Note_on_c, 4, 57, 119
6, 75120, Note_on_c, 4, 54, 119
6, 75305, Note_off_c, 4, 62, 64
6, 75305, Note_off_c, 4, 57, 64
6, 75305, Note_off_c, 4, 54, 64
6, 75337, Note_off_c, 4, 50, 64
6, 75337, Note_off_c, 4, 38, 64
6, 75360, Note_on_c, 4, 62, 119
6, 75360, Note_on_c, 4, 57, 119
6, 75360, Note_on_c, 4, 50, 119
6, 75360, Note_on_c, 4, 38, 119
6, 75360, Note_on_c, 4, 54, 119
6, 75545, Note_off_c, 4, 62, 64
6, 75545, Note_off_c, 4, 57, 64
6, 75545, Note_off_c, 4, 54, 64
6, 75600, Note_on_c, 4, 62, 119
6, 75600, Note_on_c, 4, 57, 119
6, 75600, Note_on_c, 4, 54, 119
6, 75777, Note_off_c, 4, 54, 64
6, 75785, Note_off_c, 4, 62, 64
6, 75785, Note_off_c, 4, 57, 64
6, 75817, Note_off_c, 4, 50, 64
6, 75817, Note_off_c, 4, 38, 64
6, 75840, Note_on_c, 4, 60, 119
6, 75840, Note_on_c, 4, 54, 119
6, 75840, Note_on_c, 4, 48, 119
6, 75840, Note_on_c, 4, 36, 119
6, 75840, Note_on_c, 4, 52, 119
6, 76025, Note_off_c, 4, 60, 64
6, 76025, Note_off_c, 4, 54, 64
6, 76025, Note_off_c, 4, 52, 64
6, 76080, Note_on_c, 4, 60, 119
6, 76080, Note_on_c, 4, 54, 119
6, 76080, Note_on_c, 4, 52, 119
6, 76265, Note_off_c, 4, 60, 64
6, 76265, Note_off_c, 4, 54, 64
6, 76265, Note_off_c, 4, 52, 64
6, 76297, Note_off_c, 4, 48, 64
6, 76297, Note_off_c, 4, 36, 64
6, 76320, Note_on_c, 4, 60, 119
6, 76320, Note_on_c, 4, 54, 119
6, 76320, Note_on_c, 4, 48, 119
6, 76320, Note_on_c, 4, 36, 119
6, 76320, Note_on_c, 4, 52, 119
6, 76505, Note_off_c, 4, 60, 64
6, 76505, Note_off_c, 4, 54, 64
6, 76505, Note_off_c, 4, 52, 64
6, 76560, Note_on_c, 4, 60, 119
6, 76560, Note_on_c, 4, 54, 119
6, 76560, Note_on_c, 4, 52, 119
6, 76745, Note_off_c, 4, 60, 64
6, 76745, Note_off_c, 4, 54, 64
6, 76745, Note_off_c, 4, 52, 64
6, 76777, Note_off_c, 4, 48, 64
6, 76777, Note_off_c, 4, 36, 64
6, 76800, Note_on_c, 4, 63, 119
6, 76800, Note_on_c, 4, 57, 119
6, 76800, Note_on_c, 4, 47, 119
6, 76800, Note_on_c, 4, 35, 119
6, 76800, Note_on_c, 4, 55, 119
6, 76985, Note_off_c, 4, 63, 64
6, 76985, Note_off_c, 4, 57, 64
6, 76985, Note_off_c, 4, 55, 64
6, 77040, Note_on_c, 4, 63, 119
6, 77040, Note_on_c, 4, 57, 119
6, 77040, Note_on_c, 4, 55, 119
6, 77195, Note_off_c, 4, 55, 64
6, 77225, Note_off_c, 4, 63, 64
6, 77225, Note_off_c, 4, 57, 64
6, 77257, Note_off_c, 4, 47, 64
6, 77257, Note_off_c, 4, 35, 64
6, 77280, Note_on_c, 4, 63, 119
6, 77280, Note_on_c, 4, 57, 119
6, 77280, Note_on_c, 4, 47, 119
6, 77280, Note_on_c, 4, 35, 119
6, 77280, Note_on_c, 4, 55, 119
6, 77465, Note_off_c, 4, 63, 64
6, 77465, Note_off_c, 4, 57, 64
6, 77465, Note_off_c, 4, 55, 64
6, 77520, Note_on_c, 4, 63, 119
6, 77520, Note_on_c, 4, 57, 119
6, 77520, Note_on_c, 4, 55, 119
6, 77689, Note_off_c, 4, 55, 64
6, 77705, Note_off_c, 4, 63, 64
6, 77705, Note_off_c, 4, 57, 64
6, 77737, Note_off_c, 4, 47, 64
6, 77737, Note_off_c, 4, 35, 64
6, 77760, Note_on_c, 4, 61, 119
6, 77760, Note_on_c, 4, 57, 119
6, 77760, Note_on_c, 4, 45, 119
6, 77760, Note_on_c, 4, 33, 119
6, 77760, Note_on_c, 4, 52, 119
6, 77945, Note_off_c, 4, 61, 64
6, 77945, Note_off_c, 4, 57, 64
6, 77945, Note_off_c, 4, 52, 64
6, 78000, Note_on_c, 4, 61, 119
6, 78000, Note_on_c, 4, 57, 119
6, 78000, Note_on_c, 4, 52, 119
6, 78155, Note_off_c, 4, 52, 64
6, 78185, Note_off_c, 4, 61, 64
6, 78185, Note_off_c, 4, 57, 64
6, 78217, Note_off_c, 4, 45, 64
6, 78217, Note_off_c, 4, 33, 64
6, 78240, Note_on_c, 4, 61, 119
6, 78240, Note_on_c, 4, 57, 119
6, 78240, Note_on_c, 4, 45, 119
6, 78240, Note_on_c, 4, 33, 119
6, 78240, Note_on_c, 4, 52, 119
6, 78425, Note_off_c, 4, 61, 64
6, 78425, Note_off_c, 4, 57, 64
6, 78425, Note_off_c, 4, 52, 64
6, 78480, Note_on_c, 4, 61, 119
6, 78480, Note_on_c, 4, 57, 119
6, 78480, Note_on_c, 4, 52, 119
6, 78657, Note_off_c, 4, 52, 64
6, 78665, Note_off_c, 4, 61, 64
6, 78665, Note_off_c, 4, 57, 64
6, 78697, Note_off_c, 4, 45, 64
6, 78697, Note_off_c, 4, 33, 64
6, 78720, Note_on_c, 4, 59, 119
6, 78720, Note_on_c, 4, 55, 119
6, 78720, Note_on_c, 4, 43, 119
6, 78720, Note_on_c, 4, 31, 119
6, 78720, Note_on_c, 4, 50, 119
6, 78905, Note_off_c, 4, 59, 64
6, 78905, Note_off_c, 4, 55, 64
6, 78905, Note_off_c, 4, 50, 64
6, 78960, Note_on_c, 4, 59, 119
6, 78960, Note_on_c, 4, 55, 119
6, 78960, Note_on_c, 4, 50, 119
6, 79115, Note_off_c, 4, 50, 64
6, 79145, Note_off_c, 4, 59, 64
6, 79145, Note_off_c, 4, 55, 64
6, 79177, Note_off_c, 4, 43, 64
6, 79177, Note_off_c, 4, 31, 64
6, 79200, Note_on_c, 4, 59, 119
6, 79200, Note_on_c, 4, 55, 119
6, 79200, Note_on_c, 4, 43, 119
6, 79200, Note_on_c, 4, 31, 119
6, 79200, Note_on_c, 4, 50, 119
6, 79385, Note_off_c, 4, 59, 64
6, 79385, Note_off_c, 4, 55, 64
6, 79385, Note_off_c, 4, 50, 64
6, 79440, Note_on_c, 4, 59, 119
6, 79440, Note_on_c, 4, 55, 119
6, 79440, Note_on_c, 4, 50, 119
6, 79609, Note_off_c, 4, 50, 64
6, 79625, Note_off_c, 4, 59, 64
6, 79625, Note_off_c, 4, 55, 64
6, 79657, Note_off_c, 4, 43, 64
6, 79657, Note_off_c, 4, 31, 64
6, 79680, Note_on_c, 4, 60, 119
6, 79680, Note_on_c, 4, 57, 119
6, 79680, Note_on_c, 4, 41, 119
6, 79680, Note_on_c, 4, 29, 119
6, 79680, Note_on_c, 4, 53, 119
6, 79865, Note_off_c, 4, 60, 64
6, 79865, Note_off_c, 4, 57, 64
6, 79865, Note_off_c, 4, 53, 64
6, 79920, Note_on_c, 4, 60, 119
6, 79920, Note_on_c, 4, 57, 119
6, 79920, Note_on_c, 4, 53, 119
6, 80075, Note_off_c, 4, 53, 64
6, 80105, Note_off_c, 4, 60, 64
6, 80105, Note_off_c, 4, 57, 64
6, 80137, Note_off_c, 4, 41, 64
6, 80137, Note_off_c, 4, 29, 64
6, 80160, Note_on_c, 4, 60, 119
6, 80160, Note_on_c, 4, 57, 119
6, 80160, Note_on_c, 4, 41, 119
6, 80160, Note_on_c, 4, 29, 119
6, 80160, Note_on_c, 4, 53, 119
6, 80345, Note_off_c, 4, 60, 64
6, 80345, Note_off_c, 4, 57, 64
6, 80345, Note_off_c, 4, 53, 64
6, 80400, Note_on_c, 4, 60, 119
6, 80400, Note_on_c, 4, 57, 119
6, 80400, Note_on_c, 4, 53, 119
6, 80585, Note_off_c, 4, 60, 64
6, 80585, Note_off_c, 4, 57, 64
6, 80585, Note_off_c, 4, 53, 64
6, 80617, Note_off_c, 4, 41, 64
6, 80617, Note_off_c, 4, 29, 64
6, 80640, Note_on_c, 4, 62, 119
6, 80640, Note_on_c, 4, 56, 119
6, 80640, Note_on_c, 4, 40, 119
6, 80640, Note_on_c, 4, 28, 119
6, 80640, Note_on_c, 4, 52, 119
6, 80825, Note_off_c, 4, 62, 64
6, 80825, Note_off_c, 4, 56, 64
6, 80825, Note_off_c, 4, 52, 64
6, 80880, Note_on_c, 4, 62, 119
6, 80880, Note_on_c, 4, 56, 119
6, 80880, Note_on_c, 4, 52, 119
6, 81059, Note_off_c, 4, 52, 64
6, 81065, Note_off_c, 4, 62, 64
6, 81065, Note_off_c, 4, 56, 64
6, 81097, Note_off_c, 4, 40, 64
6, 81097, Note_off_c, 4, 28, 64
6, 81120, Note_on_c, 4, 62, 119
6, 81120, Note_on_c, 4, 56, 119
6, 81120, Note_on_c, 4, 40, 119
6, 81120, Note_on_c, 4, 28, 119
6, 81120, Note_on_c, 4, 52, 119
6, 81305, Note_off_c, 4, 62, 64
6, 81305, Note_off_c, 4, 56, 64
6, 81305, Note_off_c, 4, 52, 64
6, 81360, Note_on_c, 4, 62, 119
6, 81360, Note_on_c, 4, 56, 119
6, 81360, Note_on_c, 4, 52, 119
6, 81537, Note_off_c, 4, 52, 64
6, 81545, Note_off_c, 4, 62, 64
6, 81545, Note_off_c, 4, 56, 64
6, 81577, Note_off_c, 4, 40, 64
6, 81577, Note_off_c, 4, 28, 64
6, 81600, Note_on_c, 4, 62, 119
6, 81600, Note_on_c, 4, 57, 119
6, 81600, Note_on_c, 4, 50, 119
6, 81600, Note_on_c, 4, 38, 119
6, 81600, Note_on_c, 4, 54, 119
6, 81785, Note_off_c, 4, 62, 64
6, 81785, Note_off_c, 4, 57, 64
6, 81785, Note_off_c, 4, 54, 64
6, 81840, Note_on_c, 4, 62, 119
6, 81840, Note_on_c, 4, 57, 119
6, 81840, Note_on_c, 4, 54, 119
6, 82025, Note_off_c, 4, 62, 64
6, 82025, Note_off_c, 4, 57, 64
6, 82025, Note_off_c, 4, 54, 64
6, 82057, Note_off_c, 4, 50, 64
6, 82057, Note_off_c, 4, 38, 64
6, 82080, Note_on_c, 4, 62, 119
6, 82080, Note_on_c, 4, 57, 119
6, 82080, Note_on_c, 4, 50, 119
6, 82080, Note_on_c, 4, 38, 119
6, 82080, Note_on_c, 4, 54, 119
6, 82265, Note_off_c, 4, 62, 64
6, 82265, Note_off_c, 4, 57, 64
6, 82265, Note_off_c, 4, 54, 64
6, 82320, Note_on_c, 4, 62, 119
6, 82320, Note_on_c, 4, 57, 119
6, 82320, Note_on_c, 4, 54, 119
6, 82497, Note_off_c, 4, 54, 64
6, 82505, Note_off_c, 4, 62, 64
6, 82505, Note_off_c, 4, 57, 64
6, 82537, Note_off_c, 4, 50, 64
6, 82537, Note_off_c, 4, 38, 64
6, 82560, Note_on_c, 4, 60, 119
6, 82560, Note_on_c, 4, 54, 119
6, 82560, Note_on_c, 4, 48, 119
6, 82560, Note_on_c, 4, 36, 119
6, 82560, Note_on_c, 4, 52, 119
6, 82745, Note_off_c, 4, 60, 64
6, 82745, Note_off_c, 4, 54, 64
6, 82745, Note_off_c, 4, 52, 64
6, 82800, Note_on_c, 4, 60, 119
6, 82800, Note_on_c, 4, 54, 119
6, 82800, Note_on_c, 4, 52, 119
6, 82985, Note_off_c, 4, 60, 64
6, 82985, Note_off_c, 4, 54, 64
6, 82985, Note_off_c, 4, 52, 64
6, 83017, Note_off_c, 4, 48, 64
6, 83017, Note_off_c, 4, 36, 64
6, 83040, Note_on_c, 4, 60, 119
6, 83040, Note_on_c, 4, 54, 119
6, 83040, Note_on_c, 4, 48, 119
6, 83040, Note_on_c, 4, 36, 119
6, 83040, Note_on_c, 4, 52, 119
6, 83225, Note_off_c, 4, 60, 64
6, 83225, Note_off_c, 4, 54, 64
6, 83225, Note_off_c, 4, 52, 64
6, 83280, Note_on_c, 4, 60, 119
6, 83280, Note_on_c, 4, 54, 119
6, 83280, Note_on_c, 4, 52, 119
6, 83441, Note_off_c, 4, 52, 64
6, 83465, Note_off_c, 4, 60, 64
6, 83465, Note_off_c, 4, 54, 64
6, 83497, Note_off_c, 4, 48, 64
6, 83497, Note_off_c, 4, 36, 64
6, 83520, Note_on_c, 4, 63, 119
6, 83520, Note_on_c, 4, 57, 119
6, 83520, Note_on_c, 4, 47, 119
6, 83520, Note_on_c, 4, 35, 119
6, 83520, Note_on_c, 4, 54, 119
6, 83705, Note_off_c, 4, 63, 64
6, 83705, Note_off_c, 4, 57, 64
6, 83705, Note_off_c, 4, 54, 64
6, 83760, Note_on_c, 4, 63, 119
6, 83760, Note_on_c, 4, 57, 119
6, 83760, Note_on_c, 4, 54, 119
6, 83915, Note_off_c, 4, 54, 64
6, 83945, Note_off_c, 4, 63, 64
6, 83945, Note_off_c, 4, 57, 64
6, 83977, Note_off_c, 4, 47, 64
6, 83977, Note_off_c, 4, 35, 64
6, 84000, Note_on_c, 4, 63, 119
6, 84000, Note_on_c, 4, 57, 119
6, 84000, Note_on_c, 4, 47, 119
6, 84000, Note_on_c, 4, 35, 119
6, 84000, Note_on_c, 4, 54, 119
6, 84185, Note_off_c, 4, 63, 64
6, 84185, Note_off_c, 4, 57, 64
6, 84185, Note_off_c, 4, 54, 64
6, 84240, Note_on_c, 4, 63, 119
6, 84240, Note_on_c, 4, 57, 119
6, 84240, Note_on_c, 4, 54, 119
6, 84409, Note_off_c, 4, 54, 64
6, 84425, Note_off_c, 4, 63, 64
6, 84425, Note_off_c, 4, 57, 64
6, 84457, Note_off_c, 4, 47, 64
6, 84457, Note_off_c, 4, 35, 64
6, 84480, Note_on_c, 4, 61, 119
6, 84480, Note_on_c, 4, 57, 119
6, 84480, Note_on_c, 4, 45, 119
6, 84480, Note_on_c, 4, 33, 119
6, 84480, Note_on_c, 4, 52, 119
6, 84665, Note_off_c, 4, 61, 64
6, 84665, Note_off_c, 4, 57, 64
6, 84665, Note_off_c, 4, 52, 64
6, 84720, Note_on_c, 4, 61, 119
6, 84720, Note_on_c, 4, 57, 119
6, 84720, Note_on_c, 4, 52, 119
6, 84875, Note_off_c, 4, 52, 64
6, 84905, Note_off_c, 4, 61, 64
6, 84905, Note_off_c, 4, 57, 64
6, 84937, Note_off_c, 4, 45, 64
6, 84937, Note_off_c, 4, 33, 64
6, 84960, Note_on_c, 4, 61, 119
6, 84960, Note_on_c, 4, 57, 119
6, 84960, Note_on_c, 4, 45, 119
6, 84960, Note_on_c, 4, 33, 119
6, 84960, Note_on_c, 4, 52, 119
6, 85145, Note_off_c, 4, 61, 64
6, 85145, Note_off_c, 4, 57, 64
6, 85145, Note_off_c, 4, 52, 64
6, 85200, Note_on_c, 4, 61, 119
6, 85200, Note_on_c, 4, 57, 119
6, 85200, Note_on_c, 4, 52, 119
6, 85377, Note_off_c, 4, 52, 64
6, 85385, Note_off_c, 4, 61, 64
6, 85385, Note_off_c, 4, 57, 64
6, 85417, Note_off_c, 4, 45, 64
6, 85417, Note_off_c, 4, 33, 64
6, 85440, Note_on_c, 4, 59, 119
6, 85440, Note_on_c, 4, 55, 119
6, 85440, Note_on_c, 4, 43, 119
6, 85440, Note_on_c, 4, 31, 119
6, 85440, Note_on_c, 4, 50, 119
6, 85625, Note_off_c, 4, 59, 64
6, 85625, Note_off_c, 4, 55, 64
6, 85625, Note_off_c, 4, 50, 64
6, 85680, Note_on_c, 4, 59, 119
6, 85680, Note_on_c, 4, 55, 119
6, 85680, Note_on_c, 4, 50, 119
6, 85835, Note_off_c, 4, 50, 64
6, 85865, Note_off_c, 4, 59, 64
6, 85865, Note_off_c, 4, 55, 64
6, 85897, Note_off_c, 4, 43, 64
6, 85897, Note_off_c, 4, 31, 64
6, 85920, Note_on_c, 4, 59, 119
6, 85920, Note_on_c, 4, 55, 119
6, 85920, Note_on_c, 4, 43, 119
6, 85920, Note_on_c, 4, 31, 119
6, 85920, Note_on_c, 4, 50, 119
6, 86105, Note_off_c, 4, 59, 64
6, 86105, Note_off_c, 4, 55, 64
6, 86105, Note_off_c, 4, 50, 64
6, 86160, Note_on_c, 4, 59, 119
6, 86160, Note_on_c, 4, 55, 119
6, 86160, Note_on_c, 4, 50, 119
6, 86329, Note_off_c, 4, 50, 64
6, 86345, Note_off_c, 4, 59, 64
6, 86345, Note_off_c, 4, 55, 64
6, 86377, Note_off_c, 4, 43, 64
6, 86377, Note_off_c, 4, 31, 64
6, 86400, Note_on_c, 4, 60, 119
6, 86400, Note_on_c, 4, 57, 119
6, 86400, Note_on_c, 4, 41, 119
6, 86400, Note_on_c, 4, 29, 119
6, 86400, Note_on_c, 4, 53, 119
6, 86585, Note_off_c, 4, 60, 64
6, 86585, Note_off_c, 4, 57, 64
6, 86585, Note_off_c, 4, 53, 64
6, 86640, Note_on_c, 4, 60, 119
6, 86640, Note_on_c, 4, 57, 119
6, 86640, Note_on_c, 4, 53, 119
6, 86795, Note_off_c, 4, 53, 64
6, 86825, Note_off_c, 4, 60, 64
6, 86825, Note_off_c, 4, 57, 64
6, 86857, Note_off_c, 4, 41, 64
6, 86857, Note_off_c, 4, 29, 64
6, 86880, Note_on_c, 4, 60, 119
6, 86880, Note_on_c, 4, 57, 119
6, 86880, Note_on_c, 4, 41, 119
6, 86880, Note_on_c, 4, 29, 119
6, 86880, Note_on_c, 4, 53, 119
6, 87065, Note_off_c, 4, 60, 64
6, 87065, Note_off_c, 4, 57, 64
6, 87065, Note_off_c, 4, 53, 64
6, 87120, Note_on_c, 4, 60, 119
6, 87120, Note_on_c, 4, 57, 119
6, 87120, Note_on_c, 4, 53, 119
6, 87281, Note_off_c, 4, 53, 64
6, 87305, Note_off_c, 4, 60, 64
6, 87305, Note_off_c, 4, 57, 64
6, 87337, Note_off_c, 4, 41, 64
6, 87337, Note_off_c, 4, 29, 64
6, 87360, Note_on_c, 4, 62, 119
6, 87360, Note_on_c, 4, 56, 119
6, 87360, Note_on_c, 4, 40, 119
6, 87360, Note_on_c, 4, 28, 119
6, 87360, Note_on_c, 4, 52, 119
6, 87545, Note_off_c, 4, 62, 64
6, 87545, Note_off_c, 4, 56, 64
6, 87545, Note_off_c, 4, 52, 64
6, 87600, Note_on_c, 4, 62, 119
6, 87600, Note_on_c, 4, 56, 119
6, 87600, Note_on_c, 4, 52, 119
6, 87755, Note_off_c, 4, 52, 64
6, 87785, Note_off_c, 4, 62, 64
6, 87785, Note_off_c, 4, 56, 64
6, 87817, Note_off_c, 4, 40, 64
6, 87817, Note_off_c, 4, 28, 64
6, 87840, Note_on_c, 4, 62, 119
6, 87840, Note_on_c, 4, 56, 119
6, 87840, Note_on_c, 4, 40, 119
6, 87840, Note_on_c, 4, 28, 119
6, 87840, Note_on_c, 4, 52, 119
6, 88025, Note_off_c, 4, 62, 64
6, 88025, Note_off_c, 4, 56, 64
6, 88025, Note_off_c, 4, 52, 64
6, 88080, Note_on_c, 4, 62, 119
6, 88080, Note_on_c, 4, 56, 119
6, 88080, Note_on_c, 4, 52, 119
6, 88241, Note_off_c, 4, 52, 64
6, 88265, Note_off_c, 4, 62, 64
6, 88265, Note_off_c, 4, 56, 64
6, 88297, Note_off_c, 4, 40, 64
6, 88297, Note_off_c, 4, 28, 64
6, 88320, Note_on_c, 4, 62, 119
6, 88320, Note_on_c, 4, 57, 119
6, 88320, Note_on_c, 4, 50, 119
6, 88320, Note_on_c, 4, 38, 119
6, 88320, Note_on_c, 4, 54, 119
6, 88505, Note_off_c, 4, 62, 64
6, 88505, Note_off_c, 4, 57, 64
6, 88505, Note_off_c, 4, 54, 64
6, 88560, Note_on_c, 4, 62, 119
6, 88560, Note_on_c, 4, 57, 119
6, 88560, Note_on_c, 4, 54, 119
6, 88745, Note_off_c, 4, 62, 64
6, 88745, Note_off_c, 4, 57, 64
6, 88745, Note_off_c, 4, 54, 64
6, 88777, Note_off_c, 4, 50, 64
6, 88777, Note_off_c, 4, 38, 64
6, 88800, Note_on_c, 4, 62, 119
6, 88800, Note_on_c, 4, 57, 119
6, 88800, Note_on_c, 4, 50, 119
6, 88800, Note_on_c, 4, 38, 119
6, 88800, Note_on_c, 4, 54, 119
6, 88985, Note_off_c, 4, 62, 64
6, 88985, Note_off_c, 4, 57, 64
6, 88985, Note_off_c, 4, 54, 64
6, 89040, Note_on_c, 4, 62, 119
6, 89040, Note_on_c, 4, 57, 119
6, 89040, Note_on_c, 4, 54, 119
6, 89225, Note_off_c, 4, 62, 64
6, 89225, Note_off_c, 4, 57, 64
6, 89225, Note_off_c, 4, 54, 64
6, 89257, Note_off_c, 4, 50, 64
6, 89257, Note_off_c, 4, 38, 64
6, 89280, Note_on_c, 4, 60, 119
6, 89280, Note_on_c, 4, 54, 119
6, 89280, Note_on_c, 4, 48, 119
6, 89280, Note_on_c, 4, 36, 119
6, 89280, Note_on_c, 4, 52, 119
6, 89465, Note_off_c, 4, 60, 64
6, 89465, Note_off_c, 4, 54, 64
6, 89465, Note_off_c, 4, 52, 64
6, 89520, Note_on_c, 4, 60, 119
6, 89520, Note_on_c, 4, 54, 119
6, 89520, Note_on_c, 4, 52, 119
6, 89705, Note_off_c, 4, 60, 64
6, 89705, Note_off_c, 4, 54, 64
6, 89705, Note_off_c, 4, 52, 64
6, 89737, Note_off_c, 4, 48, 64
6, 89737, Note_off_c, 4, 36, 64
6, 89760, Note_on_c, 4, 60, 119
6, 89760, Note_on_c, 4, 54, 119
6, 89760, Note_on_c, 4, 48, 119
6, 89760, Note_on_c, 4, 36, 119
6, 89760, Note_on_c, 4, 52, 119
6, 89945, Note_off_c, 4, 60, 64
6, 89945, Note_off_c, 4, 54, 64
6, 89945, Note_off_c, 4, 52, 64
6, 90000, Note_on_c, 4, 60, 119
6, 90000, Note_on_c, 4, 54, 119
6, 90000, Note_on_c, 4, 52, 119
6, 90177, Note_off_c, 4, 52, 64
6, 90185, Note_off_c, 4, 60, 64
6, 90185, Note_off_c, 4, 54, 64
6, 90217, Note_off_c, 4, 48, 64
6, 90217, Note_off_c, 4, 36, 64
6, 90240, Note_on_c, 4, 63, 119
6, 90240, Note_on_c, 4, 57, 119
6, 90240, Note_on_c, 4, 47, 119
6, 90240, Note_on_c, 4, 35, 119
6, 90240, Note_on_c, 4, 54, 119
6, 90425, Note_off_c, 4, 63, 64
6, 90425, Note_off_c, 4, 57, 64
6, 90425, Note_off_c, 4, 54, 64
6, 90480, Note_on_c, 4, 63, 119
6, 90480, Note_on_c, 4, 57, 119
6, 90480, Note_on_c, 4, 54, 119
6, 90635, Note_off_c, 4, 54, 64
6, 90665, Note_off_c, 4, 63, 64
6, 90665, Note_off_c, 4, 57, 64
6, 90697, Note_off_c, 4, 47, 64
6, 90697, Note_off_c, 4, 35, 64
6, 90720, Note_on_c, 4, 63, 119
6, 90720, Note_on_c, 4, 57, 119
6, 90720, Note_on_c, 4, 47, 119
6, 90720, Note_on_c, 4, 35, 119
6, 90720, Note_on_c, 4, 54, 119
6, 90905, Note_off_c, 4, 63, 64
6, 90905, Note_off_c, 4, 57, 64
6, 90905, Note_off_c, 4, 54, 64
6, 90960, Note_on_c, 4, 63, 119
6, 90960, Note_on_c, 4, 57, 119
6, 90960, Note_on_c, 4, 54, 119
6, 91137, Note_off_c, 4, 54, 64
6, 91145, Note_off_c, 4, 63, 64
6, 91145, Note_off_c, 4, 57, 64
6, 91177, Note_off_c, 4, 47, 64
6, 91177, Note_off_c, 4, 35, 64
6, 91200, Note_on_c, 4, 61, 119
6, 91200, Note_on_c, 4, 57, 119
6, 91200, Note_on_c, 4, 45, 119
6, 91200, Note_on_c, 4, 33, 119
6, 91200, Note_on_c, 4, 52, 119
6, 91385, Note_off_c, 4, 61, 64
6, 91385, Note_off_c, 4, 57, 64
6, 91385, Note_off_c, 4, 52, 64
6, 91440, Note_on_c, 4, 61, 119
6, 91440, Note_on_c, 4, 57, 119
6, 91440, Note_on_c, 4, 52, 119
6, 91595, Note_off_c, 4, 52, 64
6, 91625, Note_off_c, 4, 61, 64
6, 91625, Note_off_c, 4, 57, 64
6, 91657, Note_off_c, 4, 45, 64
6, 91657, Note_off_c, 4, 33, 64
6, 91680, Note_on_c, 4, 61, 119
6, 91680, Note_on_c, 4, 57, 119
6, 91680, Note_on_c, 4, 45, 119
6, 91680, Note_on_c, 4, 33, 119
6, 91680, Note_on_c, 4, 52, 119
6, 91865, Note_off_c, 4, 61, 64
6, 91865, Note_off_c, 4, 57, 64
6, 91865, Note_off_c, 4, 52, 64
6, 91920, Note_on_c, 4, 61, 119
6, 91920, Note_on_c, 4, 57, 119
6, 91920, Note_on_c, 4, 52, 119
6, 92097, Note_off_c, 4, 52, 64
6, 92105, Note_off_c, 4, 61, 64
6, 92105, Note_off_c, 4, 57, 64
6, 92137, Note_off_c, 4, 45, 64
6, 92137, Note_off_c, 4, 33, 64
6, 92160, Note_on_c, 4, 59, 119
6, 92160, Note_on_c, 4, 55, 119
6, 92160, Note_on_c, 4, 43, 119
6, 92160, Note_on_c, 4, 31, 119
6, 92160, Note_on_c, 4, 50, 119
6, 92345, Note_off_c, 4, 59, 64
6, 92345, Note_off_c, 4, 55, 64
6, 92345, Note_off_c, 4, 50, 64
6, 92400, Note_on_c, 4, 59, 119
6, 92400, Note_on_c, 4, 55, 119
6, 92400, Note_on_c, 4, 50, 119
6, 92555, Note_off_c, 4, 50, 64
6, 92585, Note_off_c, 4, 59, 64
6, 92585, Note_off_c, 4, 55, 64
6, 92617, Note_off_c, 4, 43, 64
6, 92617, Note_off_c, 4, 31, 64
6, 92640, Note_on_c, 4, 59, 119
6, 92640, Note_on_c, 4, 55, 119
6, 92640, Note_on_c, 4, 43, 119
6, 92640, Note_on_c, 4, 31, 119
6, 92640, Note_on_c, 4, 50, 119
6, 92825, Note_off_c, 4, 59, 64
6, 92825, Note_off_c, 4, 55, 64
6, 92825, Note_off_c, 4, 50, 64
6, 92880, Note_on_c, 4, 59, 119
6, 92880, Note_on_c, 4, 55, 119
6, 92880, Note_on_c, 4, 50, 119
6, 93065, Note_off_c, 4, 59, 64
6, 93065, Note_off_c, 4, 55, 64
6, 93065, Note_off_c, 4, 50, 64
6, 93097, Note_off_c, 4, 43, 64
6, 93097, Note_off_c, 4, 31, 64
6, 93120, Note_on_c, 4, 60, 119
6, 93120, Note_on_c, 4, 57, 119
6, 93120, Note_on_c, 4, 41, 119
6, 93120, Note_on_c, 4, 29, 119
6, 93120, Note_on_c, 4, 53, 119
6, 93305, Note_off_c, 4, 60, 64
6, 93305, Note_off_c, 4, 57, 64
6, 93305, Note_off_c, 4, 53, 64
6, 93360, Note_on_c, 4, 60, 119
6, 93360, Note_on_c, 4, 57, 119
6, 93360, Note_on_c, 4, 53, 119
6, 93515, Note_off_c, 4, 53, 64
6, 93545, Note_off_c, 4, 60, 64
6, 93545, Note_off_c, 4, 57, 64
6, 93577, Note_off_c, 4, 41, 64
6, 93577, Note_off_c, 4, 29, 64
6, 93600, Note_on_c, 4, 60, 119
6, 93600, Note_on_c, 4, 57, 119
6, 93600, Note_on_c, 4, 41, 119
6, 93600, Note_on_c, 4, 29, 119
6, 93600, Note_on_c, 4, 53, 119
6, 93785, Note_off_c, 4, 60, 64
6, 93785, Note_off_c, 4, 57, 64
6, 93785, Note_off_c, 4, 53, 64
6, 93840, Note_on_c, 4, 60, 119
6, 93840, Note_on_c, 4, 57, 119
6, 93840, Note_on_c, 4, 53, 119
6, 94025, Note_off_c, 4, 60, 64
6, 94025, Note_off_c, 4, 57, 64
6, 94025, Note_off_c, 4, 53, 64
6, 94057, Note_off_c, 4, 41, 64
6, 94057, Note_off_c, 4, 29, 64
6, 94080, Note_on_c, 4, 62, 119
6, 94080, Note_on_c, 4, 56, 119
6, 94080, Note_on_c, 4, 40, 119
6, 94080, Note_on_c, 4, 28, 119
6, 94080, Note_on_c, 4, 52, 119
6, 94265, Note_off_c, 4, 62, 64
6, 94265, Note_off_c, 4, 56, 64
6, 94265, Note_off_c, 4, 52, 64
6, 94320, Note_on_c, 4, 62, 119
6, 94320, Note_on_c, 4, 56, 119
6, 94320, Note_on_c, 4, 52, 119
6, 94475, Note_off_c, 4, 52, 64
6, 94505, Note_off_c, 4, 62, 64
6, 94505, Note_off_c, 4, 56, 64
6, 94537, Note_off_c, 4, 40, 64
6, 94537, Note_off_c, 4, 28, 64
6, 94560, Note_on_c, 4, 62, 119
6, 94560, Note_on_c, 4, 56, 119
6, 94560, Note_on_c, 4, 40, 119
6, 94560, Note_on_c, 4, 28, 119
6, 94560, Note_on_c, 4, 52, 119
6, 94745, Note_off_c, 4, 62, 64
6, 94745, Note_off_c, 4, 56, 64
6, 94745, Note_off_c, 4, 52, 64
6, 94800, Note_on_c, 4, 62, 119
6, 94800, Note_on_c, 4, 56, 119
6, 94800, Note_on_c, 4, 52, 119
6, 94985, Note_off_c, 4, 62, 64
6, 94985, Note_off_c, 4, 56, 64
6, 94993, Note_off_c, 4, 52, 64
6, 95017, Note_off_c, 4, 40, 64
6, 95017, Note_off_c, 4, 28, 64
6, 96000, End_track
7, 0, Start_track
7, 0, Title_t, "I Am The Walrus"
7, 0, Control_c, 5, 93, 0
7, 0, Control_c, 5, 7, 86
7, 12, Control_c, 5, 0, 127
7, 12, Control_c, 5, 91, 126
7, 12, Control_c, 5, 10, 112
7, 144, Program_c, 5, 92
7, 12000, Note_on_c, 5, 69, 127
7, 12000, Note_on_c, 5, 66, 127
7, 12196, Note_off_c, 5, 69, 64
7, 12196, Note_off_c, 5, 66, 64
7, 12240, Note_on_c, 5, 72, 127
7, 12240, Note_on_c, 5, 69, 127
7, 12291, Note_off_c, 5, 72, 64
7, 12291, Note_off_c, 5, 69, 64
7, 12306, Note_on_c, 5, 74, 127
7, 12306, Note_on_c, 5, 71, 127
7, 12473, Note_off_c, 5, 74, 64
7, 12473, Note_off_c, 5, 71, 64
7, 12480, Note_on_c, 5, 76, 127
7, 12480, Note_on_c, 5, 73, 127
7, 13419, Note_off_c, 5, 76, 64
7, 13423, Note_off_c, 5, 73, 64
7, 22760, Note_on_c, 5, 63, 127
7, 22782, Note_off_c, 5, 63, 64
7, 22800, Note_on_c, 5, 62, 127
7, 22872, Note_off_c, 5, 62, 64
7, 22989, Note_on_c, 5, 60, 127
7, 23024, Note_off_c, 5, 60, 64
7, 23040, Note_on_c, 5, 57, 127
7, 23627, Note_off_c, 5, 57, 64
7, 23720, Note_on_c, 5, 51, 127
7, 23742, Note_off_c, 5, 51, 64
7, 23760, Note_on_c, 5, 52, 127
7, 23796, Note_off_c, 5, 52, 64
7, 23949, Note_on_c, 5, 48, 127
7, 23984, Note_off_c, 5, 48, 64
7, 24000, Note_on_c, 5, 45, 127
7, 24883, Note_off_c, 5, 45, 64
7, 24948, Control_c, 5, 7, 76
7, 24948, Control_c, 5, 7, 66
7, 24960, Control_c, 5, 7, 72
7, 24960, Note_on_c, 5, 69, 127
7, 24960, Note_on_c, 5, 67, 127
7, 25079, Note_off_c, 5, 69, 64
7, 25079, Note_off_c, 5, 67, 64
7, 25200, Note_on_c, 5, 69, 127
7, 25200, Note_on_c, 5, 67, 127
7, 25319, Note_off_c, 5, 69, 64
7, 25319, Note_off_c, 5, 67, 64
7, 25440, Note_on_c, 5, 69, 127
7, 25440, Note_on_c, 5, 67, 127
7, 25559, Note_off_c, 5, 69, 64
7, 25559, Note_off_c, 5, 67, 64
7, 25680, Note_on_c, 5, 69, 127
7, 25680, Note_on_c, 5, 67, 127
7, 25799, Note_off_c, 5, 69, 64
7, 25799, Note_off_c, 5, 67, 64
7, 25920, Note_on_c, 5, 69, 127
7, 25920, Note_on_c, 5, 66, 127
7, 25973, Note_off_c, 5, 69, 64
7, 25973, Note_off_c, 5, 66, 64
7, 26040, Note_on_c, 5, 69, 127
7, 26040, Note_on_c, 5, 66, 127
7, 26093, Note_off_c, 5, 69, 64
7, 26093, Note_off_c, 5, 66, 64
7, 26160, Note_on_c, 5, 69, 127
7, 26160, Note_on_c, 5, 66, 127
7, 26213, Note_off_c, 5, 69, 64
7, 26213, Note_off_c, 5, 66, 64
7, 26280, Note_on_c, 5, 69, 127
7, 26280, Note_on_c, 5, 66, 127
7, 26333, Note_off_c, 5, 69, 64
7, 26333, Note_off_c, 5, 66, 64
7, 26400, Note_on_c, 5, 69, 127
7, 26400, Note_on_c, 5, 66, 127
7, 26453, Note_off_c, 5, 69, 64
7, 26453, Note_off_c, 5, 66, 64
7, 26520, Note_on_c, 5, 69, 127
7, 26520, Note_on_c, 5, 66, 127
7, 26573, Note_off_c, 5, 69, 64
7, 26573, Note_off_c, 5, 66, 64
7, 26640, Note_on_c, 5, 69, 127
7, 26640, Note_on_c, 5, 66, 127
7, 26693, Note_off_c, 5, 69, 64
7, 26693, Note_off_c, 5, 66, 64
7, 26760, Note_on_c, 5, 69, 127
7, 26760, Note_on_c, 5, 66, 127
7, 26813, Note_off_c, 5, 69, 64
7, 26813, Note_off_c, 5, 66, 64
7, 26880, Note_on_c, 5, 64, 127
7, 26880, Note_on_c, 5, 61, 127
7, 27829, Note_off_c, 5, 64, 64
7, 27829, Note_off_c, 5, 61, 64
7, 32616, Control_c, 5, 7, 110
7, 32640, Note_on_c, 5, 69, 127
7, 32817, Note_off_c, 5, 69, 64
7, 32880, Note_on_c, 5, 64, 127
7, 32938, Note_off_c, 5, 64, 64
7, 33000, Note_on_c, 5, 66, 127
7, 33058, Note_off_c, 5, 66, 64
7, 33120, Note_on_c, 5, 69, 127
7, 33178, Note_off_c, 5, 69, 64
7, 33240, Note_on_c, 5, 72, 127
7, 33452, Note_off_c, 5, 72, 64
7, 33480, Note_on_c, 5, 69, 127
7, 33772, Note_off_c, 5, 69, 64
7, 33840, Note_on_c, 5, 64, 127
7, 33898, Note_off_c, 5, 64, 64
7, 33960, Note_on_c, 5, 66, 127
7, 34018, Note_off_c, 5, 66, 64
7, 34080, Note_on_c, 5, 69, 127
7, 34138, Note_off_c, 5, 69, 64
7, 34200, Note_on_c, 5, 72, 127
7, 34412, Note_off_c, 5, 72, 64
7, 34440, Note_on_c, 5, 69, 127
7, 35040, Control_c, 5, 7, 110
7, 35076, Control_c, 5, 7, 109
7, 35112, Control_c, 5, 7, 108
7, 35148, Control_c, 5, 7, 107
7, 35184, Control_c, 5, 7, 106
7, 35220, Control_c, 5, 7, 105
7, 35256, Control_c, 5, 7, 104
7, 35292, Control_c, 5, 7, 103
7, 35328, Control_c, 5, 7, 102
7, 35364, Control_c, 5, 7, 101
7, 35400, Control_c, 5, 7, 100
7, 35436, Control_c, 5, 7, 99
7, 35472, Control_c, 5, 7, 98
7, 35508, Control_c, 5, 7, 97
7, 35544, Control_c, 5, 7, 96
7, 35580, Control_c, 5, 7, 95
7, 35616, Control_c, 5, 7, 94
7, 35652, Control_c, 5, 7, 93
7, 35688, Control_c, 5, 7, 92
7, 35724, Control_c, 5, 7, 91
7, 35760, Control_c, 5, 7, 90
7, 35796, Control_c, 5, 7, 89
7, 35832, Control_c, 5, 7, 88
7, 35868, Control_c, 5, 7, 87
7, 35904, Control_c, 5, 7, 86
7, 35940, Control_c, 5, 7, 85
7, 35976, Control_c, 5, 7, 84
7, 36012, Control_c, 5, 7, 83
7, 36048, Control_c, 5, 7, 82
7, 36084, Control_c, 5, 7, 81
7, 36120, Control_c, 5, 7, 80
7, 36156, Control_c, 5, 7, 79
7, 36192, Control_c, 5, 7, 78
7, 36228, Control_c, 5, 7, 77
7, 36264, Control_c, 5, 7, 76
7, 36300, Control_c, 5, 7, 75
7, 36336, Control_c, 5, 7, 74
7, 36372, Control_c, 5, 7, 73
7, 36408, Control_c, 5, 7, 72
7, 36444, Control_c, 5, 7, 71
7, 36468, Note_off_c, 5, 69, 64
7, 36480, Control_c, 5, 7, 70
7, 36516, Control_c, 5, 7, 69
7, 36552, Control_c, 5, 7, 68
7, 36588, Control_c, 5, 7, 67
7, 36623, Control_c, 5, 7, 66
7, 38400, Note_on_c, 5, 67, 127
7, 38400, Note_on_c, 5, 64, 127
7, 38519, Note_off_c, 5, 67, 64
7, 38519, Note_off_c, 5, 64, 64
7, 38640, Note_on_c, 5, 67, 127
7, 38640, Note_on_c, 5, 64, 127
7, 38759, Note_off_c, 5, 67, 64
7, 38759, Note_off_c, 5, 64, 64
7, 38880, Note_on_c, 5, 67, 127
7, 38880, Note_on_c, 5, 64, 127
7, 38999, Note_off_c, 5, 67, 64
7, 38999, Note_off_c, 5, 64, 64
7, 39120, Note_on_c, 5, 67, 127
7, 39120, Note_on_c, 5, 64, 127
7, 39239, Note_off_c, 5, 67, 64
7, 39239, Note_off_c, 5, 64, 64
7, 39360, Note_on_c, 5, 69, 127
7, 39360, Note_on_c, 5, 66, 127
7, 39479, Note_off_c, 5, 69, 64
7, 39479, Note_off_c, 5, 66, 64
7, 39600, Note_on_c, 5, 69, 127
7, 39600, Note_on_c, 5, 66, 127
7, 39719, Note_off_c, 5, 69, 64
7, 39719, Note_off_c, 5, 66, 64
7, 39840, Note_on_c, 5, 69, 127
7, 39840, Note_on_c, 5, 66, 127
7, 39959, Note_off_c, 5, 69, 64
7, 39959, Note_off_c, 5, 66, 64
7, 40080, Note_on_c, 5, 69, 127
7, 40080, Note_on_c, 5, 66, 127
7, 40199, Note_off_c, 5, 69, 64
7, 40199, Note_off_c, 5, 66, 64
7, 40320, Note_on_c, 5, 71, 127
7, 40320, Note_on_c, 5, 68, 127
7, 40439, Note_off_c, 5, 71, 64
7, 40439, Note_off_c, 5, 68, 64
7, 40560, Note_on_c, 5, 71, 127
7, 40560, Note_on_c, 5, 68, 127
7, 40679, Note_off_c, 5, 71, 64
7, 40679, Note_off_c, 5, 68, 64
7, 40800, Note_on_c, 5, 71, 127
7, 40800, Note_on_c, 5, 68, 127
7, 40840, Note_off_c, 5, 71, 64
7, 40840, Note_off_c, 5, 68, 64
7, 40860, Note_on_c, 5, 71, 127
7, 40860, Note_on_c, 5, 68, 127
7, 40923, Note_off_c, 5, 71, 64
7, 40923, Note_off_c, 5, 68, 64
7, 40995, Note_on_c, 5, 71, 127
7, 40995, Note_on_c, 5, 68, 127
7, 41021, Note_off_c, 5, 71, 64
7, 41021, Note_off_c, 5, 68, 64
7, 41040, Note_on_c, 5, 71, 127
7, 41040, Note_on_c, 5, 68, 127
7, 41255, Note_off_c, 5, 71, 64
7, 41255, Note_off_c, 5, 68, 64
7, 58512, Control_c, 5, 7, 66
7, 58525, Control_c, 5, 7, 66
7, 58539, Control_c, 5, 7, 67
7, 58552, Control_c, 5, 7, 68
7, 58560, Note_on_c, 5, 64, 110
7, 58560, Note_on_c, 5, 61, 110
7, 58560, Note_on_c, 5, 57, 110
7, 58566, Control_c, 5, 7, 69
7, 58579, Control_c, 5, 7, 70
7, 58593, Control_c, 5, 7, 71
7, 58606, Control_c, 5, 7, 72
7, 58620, Control_c, 5, 7, 73
7, 58633, Control_c, 5, 7, 74
7, 58647, Control_c, 5, 7, 75
7, 58660, Control_c, 5, 7, 76
7, 58674, Control_c, 5, 7, 77
7, 58687, Control_c, 5, 7, 78
7, 58701, Control_c, 5, 7, 79
7, 58714, Control_c, 5, 7, 80
7, 58728, Control_c, 5, 7, 81
7, 58741, Control_c, 5, 7, 82
7, 58755, Control_c, 5, 7, 83
7, 58768, Control_c, 5, 7, 84
7, 58782, Control_c, 5, 7, 85
7, 58795, Control_c, 5, 7, 86
7, 58809, Control_c, 5, 7, 87
7, 58822, Control_c, 5, 7, 88
7, 58836, Control_c, 5, 7, 89
7, 58849, Control_c, 5, 7, 90
7, 58863, Control_c, 5, 7, 91
7, 58876, Control_c, 5, 7, 92
7, 58890, Control_c, 5, 7, 93
7, 58903, Control_c, 5, 7, 94
7, 58917, Control_c, 5, 7, 95
7, 58930, Control_c, 5, 7, 96
7, 58944, Control_c, 5, 7, 97
7, 58957, Control_c, 5, 7, 98
7, 58971, Control_c, 5, 7, 99
7, 58984, Control_c, 5, 7, 100
7, 58998, Control_c, 5, 7, 101
7, 59011, Control_c, 5, 7, 102
7, 59025, Control_c, 5, 7, 103
7, 59038, Control_c, 5, 7, 104
7, 59052, Control_c, 5, 7, 105
7, 59065, Control_c, 5, 7, 106
7, 59079, Control_c, 5, 7, 107
7, 59092, Control_c, 5, 7, 108
7, 59106, Control_c, 5, 7, 109
7, 59119, Control_c, 5, 7, 110
7, 59133, Control_c, 5, 7, 111
7, 59146, Control_c, 5, 7, 112
7, 59159, Control_c, 5, 7, 114
7, 59160, Control_c, 5, 7, 114
7, 59168, Control_c, 5, 7, 113
7, 59177, Control_c, 5, 7, 112
7, 59186, Control_c, 5, 7, 111
7, 59195, Control_c, 5, 7, 110
7, 59203, Control_c, 5, 7, 109
7, 59212, Control_c, 5, 7, 108
7, 59221, Control_c, 5, 7, 107
7, 59230, Control_c, 5, 7, 106
7, 59238, Control_c, 5, 7, 105
7, 59247, Control_c, 5, 7, 104
7, 59256, Control_c, 5, 7, 103
7, 59265, Control_c, 5, 7, 102
7, 59273, Control_c, 5, 7, 101
7, 59282, Control_c, 5, 7, 100
7, 59291, Control_c, 5, 7, 99
7, 59300, Control_c, 5, 7, 98
7, 59308, Control_c, 5, 7, 97
7, 59317, Control_c, 5, 7, 96
7, 59326, Control_c, 5, 7, 95
7, 59335, Control_c, 5, 7, 94
7, 59343, Control_c, 5, 7, 93
7, 59352, Control_c, 5, 7, 92
7, 59361, Control_c, 5, 7, 91
7, 59370, Control_c, 5, 7, 90
7, 59378, Control_c, 5, 7, 89
7, 59387, Control_c, 5, 7, 88
7, 59396, Control_c, 5, 7, 87
7, 59405, Control_c, 5, 7, 86
7, 59413, Control_c, 5, 7, 85
7, 59422, Control_c, 5, 7, 84
7, 59431, Control_c, 5, 7, 83
7, 59440, Control_c, 5, 7, 82
7, 59448, Control_c, 5, 7, 81
7, 59455, Note_off_c, 5, 64, 64
7, 59455, Note_off_c, 5, 61, 64
7, 59455, Note_off_c, 5, 57, 64
7, 59457, Control_c, 5, 7, 80
7, 59466, Control_c, 5, 7, 79
7, 59475, Control_c, 5, 7, 78
7, 59483, Control_c, 5, 7, 77
7, 59492, Control_c, 5, 7, 76
7, 59501, Control_c, 5, 7, 75
7, 59510, Control_c, 5, 7, 74
7, 59518, Control_c, 5, 7, 73
7, 59527, Control_c, 5, 7, 72
7, 59536, Control_c, 5, 7, 71
7, 59545, Control_c, 5, 7, 70
7, 59553, Control_c, 5, 7, 69
7, 59562, Control_c, 5, 7, 68
7, 59571, Control_c, 5, 7, 67
7, 59579, Control_c, 5, 7, 66
7, 96000, End_track
8, 0, Start_track
8, 0, Title_t, "I Am The Walrus"
8, 0, Control_c, 8, 91, 28
8, 12, Control_c, 8, 7, 110
8, 12, Control_c, 8, 10, 40
8, 12, Program_c, 8, 0
8, 12, Control_c, 8, 93, 0
8, 5240, Note_on_c, 8, 38, 126
8, 5275, Note_off_c, 8, 38, 64
8, 5280, Note_on_c, 8, 38, 126
8, 5315, Note_off_c, 8, 38, 64
8, 5357, Note_on_c, 8, 38, 126
8, 5392, Note_off_c, 8, 38, 64
8, 5400, Note_on_c, 8, 38, 126
8, 5435, Note_off_c, 8, 38, 64
8, 5520, Note_on_c, 8, 45, 126
8, 5555, Note_off_c, 8, 45, 64
8, 5597, Note_on_c, 8, 38, 126
8, 5632, Note_off_c, 8, 38, 64
8, 5640, Note_on_c, 8, 38, 126
8, 5675, Note_off_c, 8, 38, 64
8, 5760, Note_on_c, 8, 35, 110
8, 5878, Note_off_c, 8, 35, 64
8, 6000, Note_on_c, 8, 38, 110
8, 6139, Note_off_c, 8, 38, 64
8, 6240, Note_on_c, 8, 35, 110
8, 6358, Note_off_c, 8, 35, 64
8, 6360, Note_on_c, 8, 35, 110
8, 6478, Note_off_c, 8, 35, 64
8, 6480, Note_on_c, 8, 38, 110
8, 6598, Note_off_c, 8, 38, 64
8, 6720, Note_on_c, 8, 35, 110
8, 6838, Note_off_c, 8, 35, 64
8, 6960, Note_on_c, 8, 38, 110
8, 7078, Note_off_c, 8, 38, 64
8, 7200, Note_on_c, 8, 35, 110
8, 7318, Note_off_c, 8, 35, 64
8, 7320, Note_on_c, 8, 35, 110
8, 7438, Note_off_c, 8, 35, 64
8, 7440, Note_on_c, 8, 38, 110
8, 7558, Note_off_c, 8, 38, 64
8, 7680, Note_on_c, 8, 35, 110
8, 7798, Note_off_c, 8, 35, 64
8, 7920, Note_on_c, 8, 38, 110
8, 8059, Note_off_c, 8, 38, 64
8, 8160, Note_on_c, 8, 35, 110
8, 8278, Note_off_c, 8, 35, 64
8, 8280, Note_on_c, 8, 35, 110
8, 8398, Note_off_c, 8, 35, 64
8, 8400, Note_on_c, 8, 38, 110
8, 8518, Note_off_c, 8, 38, 64
8, 8640, Note_on_c, 8, 35, 110
8, 8758, Note_off_c, 8, 35, 64
8, 8880, Note_on_c, 8, 38, 110
8, 8998, Note_off_c, 8, 38, 64
8, 9120, Note_on_c, 8, 35, 110
8, 9238, Note_off_c, 8, 35, 64
8, 9240, Note_on_c, 8, 35, 110
8, 9358, Note_off_c, 8, 35, 64
8, 9360, Note_on_c, 8, 38, 110
8, 9478, Note_off_c, 8, 38, 64
8, 9600, Note_on_c, 8, 35, 110
8, 9718, Note_off_c, 8, 35, 64
8, 9840, Note_on_c, 8, 38, 110
8, 9979, Note_off_c, 8, 38, 64
8, 10080, Note_on_c, 8, 35, 110
8, 10198, Note_off_c, 8, 35, 64
8, 10200, Note_on_c, 8, 35, 110
8, 10318, Note_off_c, 8, 35, 64
8, 10320, Note_on_c, 8, 38, 110
8, 10438, Note_off_c, 8, 38, 64
8, 10560, Note_on_c, 8, 35, 110
8, 10678, Note_off_c, 8, 35, 64
8, 10800, Note_on_c, 8, 38, 110
8, 10918, Note_off_c, 8, 38, 64
8, 11040, Note_on_c, 8, 35, 110
8, 11158, Note_off_c, 8, 35, 64
8, 11160, Note_on_c, 8, 35, 110
8, 11278, Note_off_c, 8, 35, 64
8, 11280, Note_on_c, 8, 38, 110
8, 11398, Note_off_c, 8, 38, 64
8, 11520, Note_on_c, 8, 35, 110
8, 11638, Note_off_c, 8, 35, 64
8, 11760, Note_on_c, 8, 38, 110
8, 11899, Note_off_c, 8, 38, 64
8, 12000, Note_on_c, 8, 35, 110
8, 12118, Note_off_c, 8, 35, 64
8, 12120, Note_on_c, 8, 35, 110
8, 12238, Note_off_c, 8, 35, 64
8, 12240, Note_on_c, 8, 38, 110
8, 12358, Note_off_c, 8, 38, 64
8, 12480, Note_on_c, 8, 35, 110
8, 12598, Note_off_c, 8, 35, 64
8, 13200, Note_on_c, 8, 38, 126
8, 13235, Note_off_c, 8, 38, 64
8, 13277, Note_on_c, 8, 38, 126
8, 13312, Note_off_c, 8, 38, 64
8, 13320, Note_on_c, 8, 38, 126
8, 13355, Note_off_c, 8, 38, 64
8, 13440, Note_on_c, 8, 35, 110
8, 13558, Note_off_c, 8, 35, 64
8, 13680, Note_on_c, 8, 38, 110
8, 13819, Note_off_c, 8, 38, 64
8, 13920, Note_on_c, 8, 35, 110
8, 14038, Note_off_c, 8, 35, 64
8, 14040, Note_on_c, 8, 35, 110
8, 14158, Note_off_c, 8, 35, 64
8, 14160, Note_on_c, 8, 38, 110
8, 14278, Note_off_c, 8, 38, 64
8, 14400, Note_on_c, 8, 35, 110
8, 14518, Note_off_c, 8, 35, 64
8, 14640, Note_on_c, 8, 38, 110
8, 14758, Note_off_c, 8, 38, 64
8, 14880, Note_on_c, 8, 35, 110
8, 14998, Note_off_c, 8, 35, 64
8, 15000, Note_on_c, 8, 35, 110
8, 15118, Note_off_c, 8, 35, 64
8, 15120, Note_on_c, 8, 38, 110
8, 15238, Note_off_c, 8, 38, 64
8, 15360, Note_on_c, 8, 35, 110
8, 15478, Note_off_c, 8, 35, 64
8, 15600, Note_on_c, 8, 38, 110
8, 15739, Note_off_c, 8, 38, 64
8, 15840, Note_on_c, 8, 35, 110
8, 15958, Note_off_c, 8, 35, 64
8, 15960, Note_on_c, 8, 35, 110
8, 16078, Note_off_c, 8, 35, 64
8, 16080, Note_on_c, 8, 38, 110
8, 16198, Note_off_c, 8, 38, 64
8, 16320, Note_on_c, 8, 35, 110
8, 16438, Note_off_c, 8, 35, 64
8, 16560, Note_on_c, 8, 38, 110
8, 16678, Note_off_c, 8, 38, 64
8, 16800, Note_on_c, 8, 35, 110
8, 16918, Note_off_c, 8, 35, 64
8, 16920, Note_on_c, 8, 35, 110
8, 17038, Note_off_c, 8, 35, 64
8, 17040, Note_on_c, 8, 38, 110
8, 17158, Note_off_c, 8, 38, 64
8, 17280, Note_on_c, 8, 35, 110
8, 17398, Note_off_c, 8, 35, 64
8, 17520, Note_on_c, 8, 38, 110
8, 17659, Note_off_c, 8, 38, 64
8, 17760, Note_on_c, 8, 35, 110
8, 17878, Note_off_c, 8, 35, 64
8, 17880, Note_on_c, 8, 35, 110
8, 17998, Note_off_c, 8, 35, 64
8, 18000, Note_on_c, 8, 38, 110
8, 18118, Note_off_c, 8, 38, 64
8, 18240, Note_on_c, 8, 35, 110
8, 18358, Note_off_c, 8, 35, 64
8, 18480, Note_on_c, 8, 38, 110
8, 18598, Note_off_c, 8, 38, 64
8, 18720, Note_on_c, 8, 35, 110
8, 18838, Note_off_c, 8, 35, 64
8, 18840, Note_on_c, 8, 35, 110
8, 18958, Note_off_c, 8, 35, 64
8, 18960, Note_on_c, 8, 38, 110
8, 19078, Note_off_c, 8, 38, 64
8, 19200, Note_on_c, 8, 35, 110
8, 19318, Note_off_c, 8, 35, 64
8, 19440, Note_on_c, 8, 38, 110
8, 19579, Note_off_c, 8, 38, 64
8, 19680, Note_on_c, 8, 35, 110
8, 19798, Note_off_c, 8, 35, 64
8, 19800, Note_on_c, 8, 35, 110
8, 19918, Note_off_c, 8, 35, 64
8, 19920, Note_on_c, 8, 38, 110
8, 20038, Note_off_c, 8, 38, 64
8, 20160, Note_on_c, 8, 35, 110
8, 20278, Note_off_c, 8, 35, 64
8, 20400, Note_on_c, 8, 38, 110
8, 20518, Note_off_c, 8, 38, 64
8, 20640, Note_on_c, 8, 35, 110
8, 20758, Note_off_c, 8, 35, 64
8, 20760, Note_on_c, 8, 35, 110
8, 20878, Note_off_c, 8, 35, 64
8, 20880, Note_on_c, 8, 38, 110
8, 20998, Note_off_c, 8, 38, 64
8, 21120, Note_on_c, 8, 35, 110
8, 21238, Note_off_c, 8, 35, 64
8, 21360, Note_on_c, 8, 38, 110
8, 21499, Note_off_c, 8, 38, 64
8, 21600, Note_on_c, 8, 35, 110
8, 21718, Note_off_c, 8, 35, 64
8, 21720, Note_on_c, 8, 35, 110
8, 21838, Note_off_c, 8, 35, 64
8, 21840, Note_on_c, 8, 38, 110
8, 21958, Note_off_c, 8, 38, 64
8, 22080, Note_on_c, 8, 35, 110
8, 22198, Note_off_c, 8, 35, 64
8, 22320, Note_on_c, 8, 38, 110
8, 22438, Note_off_c, 8, 38, 64
8, 22560, Note_on_c, 8, 35, 110
8, 22678, Note_off_c, 8, 35, 64
8, 22680, Note_on_c, 8, 35, 110
8, 22798, Note_off_c, 8, 35, 64
8, 22800, Note_on_c, 8, 38, 110
8, 22918, Note_off_c, 8, 38, 64
8, 23040, Note_on_c, 8, 35, 110
8, 23158, Note_off_c, 8, 35, 64
8, 23280, Note_on_c, 8, 38, 110
8, 23419, Note_off_c, 8, 38, 64
8, 23520, Note_on_c, 8, 35, 110
8, 23638, Note_off_c, 8, 35, 64
8, 23640, Note_on_c, 8, 35, 110
8, 23758, Note_off_c, 8, 35, 64
8, 23760, Note_on_c, 8, 38, 110
8, 23878, Note_off_c, 8, 38, 64
8, 24000, Note_on_c, 8, 35, 110
8, 24118, Note_off_c, 8, 35, 64
8, 24240, Note_on_c, 8, 38, 110
8, 24358, Note_off_c, 8, 38, 64
8, 24480, Note_on_c, 8, 35, 110
8, 24598, Note_off_c, 8, 35, 64
8, 24600, Note_on_c, 8, 35, 110
8, 24718, Note_off_c, 8, 35, 64
8, 24720, Note_on_c, 8, 38, 110
8, 24838, Note_off_c, 8, 38, 64
8, 24960, Note_on_c, 8, 35, 110
8, 25078, Note_off_c, 8, 35, 64
8, 25200, Note_on_c, 8, 38, 110
8, 25339, Note_off_c, 8, 38, 64
8, 25440, Note_on_c, 8, 35, 110
8, 25558, Note_off_c, 8, 35, 64
8, 25560, Note_on_c, 8, 35, 110
8, 25678, Note_off_c, 8, 35, 64
8, 25680, Note_on_c, 8, 38, 110
8, 25798, Note_off_c, 8, 38, 64
8, 25920, Note_on_c, 8, 35, 110
8, 26038, Note_off_c, 8, 35, 64
8, 26160, Note_on_c, 8, 38, 110
8, 26278, Note_off_c, 8, 38, 64
8, 26400, Note_on_c, 8, 35, 110
8, 26518, Note_off_c, 8, 35, 64
8, 26520, Note_on_c, 8, 35, 110
8, 26638, Note_off_c, 8, 35, 64
8, 26640, Note_on_c, 8, 38, 110
8, 26758, Note_off_c, 8, 38, 64
8, 26880, Note_on_c, 8, 35, 110
8, 26998, Note_off_c, 8, 35, 64
8, 27120, Note_on_c, 8, 38, 110
8, 27259, Note_off_c, 8, 38, 64
8, 27360, Note_on_c, 8, 35, 110
8, 27478, Note_off_c, 8, 35, 64
8, 27480, Note_on_c, 8, 35, 110
8, 27598, Note_off_c, 8, 35, 64
8, 27600, Note_on_c, 8, 38, 110
8, 27718, Note_off_c, 8, 38, 64
8, 27840, Note_on_c, 8, 35, 110
8, 27958, Note_off_c, 8, 35, 64
8, 28080, Note_on_c, 8, 38, 110
8, 28198, Note_off_c, 8, 38, 64
8, 28320, Note_on_c, 8, 35, 110
8, 28438, Note_off_c, 8, 35, 64
8, 28440, Note_on_c, 8, 35, 110
8, 28558, Note_off_c, 8, 35, 64
8, 28560, Note_on_c, 8, 38, 110
8, 28678, Note_off_c, 8, 38, 64
8, 28800, Note_on_c, 8, 35, 110
8, 28918, Note_off_c, 8, 35, 64
8, 29040, Note_on_c, 8, 38, 110
8, 29179, Note_off_c, 8, 38, 64
8, 29280, Note_on_c, 8, 35, 110
8, 29398, Note_off_c, 8, 35, 64
8, 29400, Note_on_c, 8, 35, 110
8, 29518, Note_off_c, 8, 35, 64
8, 29520, Note_on_c, 8, 38, 110
8, 29638, Note_off_c, 8, 38, 64
8, 29760, Note_on_c, 8, 35, 110
8, 29878, Note_off_c, 8, 35, 64
8, 30000, Note_on_c, 8, 38, 110
8, 30118, Note_off_c, 8, 38, 64
8, 30240, Note_on_c, 8, 35, 110
8, 30358, Note_off_c, 8, 35, 64
8, 30360, Note_on_c, 8, 35, 110
8, 30478, Note_off_c, 8, 35, 64
8, 30480, Note_on_c, 8, 38, 110
8, 30598, Note_off_c, 8, 38, 64
8, 30720, Note_on_c, 8, 35, 110
8, 30838, Note_off_c, 8, 35, 64
8, 30960, Note_on_c, 8, 38, 110
8, 31099, Note_off_c, 8, 38, 64
8, 31200, Note_on_c, 8, 35, 110
8, 31318, Note_off_c, 8, 35, 64
8, 31320, Note_on_c, 8, 35, 110
8, 31438, Note_off_c, 8, 35, 64
8, 31440, Note_on_c, 8, 38, 110
8, 31558, Note_off_c, 8, 38, 64
8, 31680, Note_on_c, 8, 35, 110
8, 31798, Note_off_c, 8, 35, 64
8, 31920, Note_on_c, 8, 38, 110
8, 32038, Note_off_c, 8, 38, 64
8, 32160, Note_on_c, 8, 35, 110
8, 32278, Note_off_c, 8, 35, 64
8, 32280, Note_on_c, 8, 35, 110
8, 32398, Note_off_c, 8, 35, 64
8, 32400, Note_on_c, 8, 38, 110
8, 32518, Note_off_c, 8, 38, 64
8, 32640, Note_on_c, 8, 35, 110
8, 32758, Note_off_c, 8, 35, 64
8, 32880, Note_on_c, 8, 38, 110
8, 33019, Note_off_c, 8, 38, 64
8, 33120, Note_on_c, 8, 35, 110
8, 33238, Note_off_c, 8, 35, 64
8, 33240, Note_on_c, 8, 35, 110
8, 33358, Note_off_c, 8, 35, 64
8, 33360, Note_on_c, 8, 38, 110
8, 33478, Note_off_c, 8, 38, 64
8, 33600, Note_on_c, 8, 35, 110
8, 33718, Note_off_c, 8, 35, 64
8, 33840, Note_on_c, 8, 38, 110
8, 33958, Note_off_c, 8, 38, 64
8, 34080, Note_on_c, 8, 35, 110
8, 34198, Note_off_c, 8, 35, 64
8, 34200, Note_on_c, 8, 35, 110
8, 34318, Note_off_c, 8, 35, 64
8, 34320, Note_on_c, 8, 38, 110
8, 34438, Note_off_c, 8, 38, 64
8, 34560, Note_on_c, 8, 35, 110
8, 34678, Note_off_c, 8, 35, 64
8, 34800, Note_on_c, 8, 38, 110
8, 34939, Note_off_c, 8, 38, 64
8, 35040, Note_on_c, 8, 35, 110
8, 35158, Note_off_c, 8, 35, 64
8, 35160, Note_on_c, 8, 35, 110
8, 35278, Note_off_c, 8, 35, 64
8, 35280, Note_on_c, 8, 38, 110
8, 35398, Note_off_c, 8, 38, 64
8, 35520, Note_on_c, 8, 35, 110
8, 35638, Note_off_c, 8, 35, 64
8, 35760, Note_on_c, 8, 38, 110
8, 35878, Note_off_c, 8, 38, 64
8, 36000, Note_on_c, 8, 35, 110
8, 36118, Note_off_c, 8, 35, 64
8, 36120, Note_on_c, 8, 35, 110
8, 36238, Note_off_c, 8, 35, 64
8, 36240, Note_on_c, 8, 38, 110
8, 36358, Note_off_c, 8, 38, 64
8, 36480, Note_on_c, 8, 35, 110
8, 36598, Note_off_c, 8, 35, 64
8, 36720, Note_on_c, 8, 38, 110
8, 36859, Note_off_c, 8, 38, 64
8, 36960, Note_on_c, 8, 35, 110
8, 37078, Note_off_c, 8, 35, 64
8, 37080, Note_on_c, 8, 35, 110
8, 37198, Note_off_c, 8, 35, 64
8, 37200, Note_on_c, 8, 38, 110
8, 37318, Note_off_c, 8, 38, 64
8, 37440, Note_on_c, 8, 35, 110
8, 37558, Note_off_c, 8, 35, 64
8, 37680, Note_on_c, 8, 38, 110
8, 37798, Note_off_c, 8, 38, 64
8, 37920, Note_on_c, 8, 35, 110
8, 38038, Note_off_c, 8, 35, 64
8, 38040, Note_on_c, 8, 35, 110
8, 38158, Note_off_c, 8, 35, 64
8, 38160, Note_on_c, 8, 38, 110
8, 38278, Note_off_c, 8, 38, 64
8, 38400, Note_on_c, 8, 35, 110
8, 38518, Note_off_c, 8, 35, 64
8, 38640, Note_on_c, 8, 38, 110
8, 38779, Note_off_c, 8, 38, 64
8, 38880, Note_on_c, 8, 35, 110
8, 38998, Note_off_c, 8, 35, 64
8, 39000, Note_on_c, 8, 35, 110
8, 39118, Note_off_c, 8, 35, 64
8, 39120, Note_on_c, 8, 38, 110
8, 39238, Note_off_c, 8, 38, 64
8, 39360, Note_on_c, 8, 35, 110
8, 39478, Note_off_c, 8, 35, 64
8, 39600, Note_on_c, 8, 38, 110
8, 39718, Note_off_c, 8, 38, 64
8, 39840, Note_on_c, 8, 35, 110
8, 39958, Note_off_c, 8, 35, 64
8, 39960, Note_on_c, 8, 35, 110
8, 40078, Note_off_c, 8, 35, 64
8, 40080, Note_on_c, 8, 38, 110
8, 40198, Note_off_c, 8, 38, 64
8, 40320, Note_on_c, 8, 35, 110
8, 40438, Note_off_c, 8, 35, 64
8, 40560, Note_on_c, 8, 38, 110
8, 40699, Note_off_c, 8, 38, 64
8, 40800, Note_on_c, 8, 35, 110
8, 40918, Note_off_c, 8, 35, 64
8, 40920, Note_on_c, 8, 35, 110
8, 41038, Note_off_c, 8, 35, 64
8, 41040, Note_on_c, 8, 38, 110
8, 41158, Note_off_c, 8, 38, 64
8, 45120, Note_on_c, 8, 35, 110
8, 45238, Note_off_c, 8, 35, 64
8, 45360, Note_on_c, 8, 38, 110
8, 45478, Note_off_c, 8, 38, 64
8, 45600, Note_on_c, 8, 35, 110
8, 45718, Note_off_c, 8, 35, 64
8, 45720, Note_on_c, 8, 35, 110
8, 45838, Note_off_c, 8, 35, 64
8, 45840, Note_on_c, 8, 38, 110
8, 45958, Note_off_c, 8, 38, 64
8, 46080, Note_on_c, 8, 35, 110
8, 46198, Note_off_c, 8, 35, 64
8, 46320, Note_on_c, 8, 38, 110
8, 46459, Note_off_c, 8, 38, 64
8, 46560, Note_on_c, 8, 35, 110
8, 46678, Note_off_c, 8, 35, 64
8, 46680, Note_on_c, 8, 35, 110
8, 46798, Note_off_c, 8, 35, 64
8, 46800, Note_on_c, 8, 38, 110
8, 46918, Note_off_c, 8, 38, 64
8, 47040, Note_on_c, 8, 35, 110
8, 47158, Note_off_c, 8, 35, 64
8, 47280, Note_on_c, 8, 38, 110
8, 47398, Note_off_c, 8, 38, 64
8, 47520, Note_on_c, 8, 35, 110
8, 47638, Note_off_c, 8, 35, 64
8, 47640, Note_on_c, 8, 35, 110
8, 47758, Note_off_c, 8, 35, 64
8, 47760, Note_on_c, 8, 38, 110
8, 47878, Note_off_c, 8, 38, 64
8, 48000, Note_on_c, 8, 35, 110
8, 48118, Note_off_c, 8, 35, 64
8, 48240, Note_on_c, 8, 38, 110
8, 48379, Note_off_c, 8, 38, 64
8, 48480, Note_on_c, 8, 35, 110
8, 48598, Note_off_c, 8, 35, 64
8, 48600, Note_on_c, 8, 35, 110
8, 48718, Note_off_c, 8, 35, 64
8, 48720, Note_on_c, 8, 38, 110
8, 48838, Note_off_c, 8, 38, 64
8, 48960, Note_on_c, 8, 35, 110
8, 49078, Note_off_c, 8, 35, 64
8, 49200, Note_on_c, 8, 38, 110
8, 49318, Note_off_c, 8, 38, 64
8, 49440, Note_on_c, 8, 35, 110
8, 49558, Note_off_c, 8, 35, 64
8, 49560, Note_on_c, 8, 35, 110
8, 49678, Note_off_c, 8, 35, 64
8, 49680, Note_on_c, 8, 38, 110
8, 49798, Note_off_c, 8, 38, 64
8, 49920, Note_on_c, 8, 35, 110
8, 50038, Note_off_c, 8, 35, 64
8, 50160, Note_on_c, 8, 38, 110
8, 50299, Note_off_c, 8, 38, 64
8, 50400, Note_on_c, 8, 35, 110
8, 50518, Note_off_c, 8, 35, 64
8, 50520, Note_on_c, 8, 35, 110
8, 50638, Note_off_c, 8, 35, 64
8, 50640, Note_on_c, 8, 38, 110
8, 50758, Note_off_c, 8, 38, 64
8, 50880, Note_on_c, 8, 35, 110
8, 50998, Note_off_c, 8, 35, 64
8, 51120, Note_on_c, 8, 38, 110
8, 51238, Note_off_c, 8, 38, 64
8, 51360, Note_on_c, 8, 35, 110
8, 51478, Note_off_c, 8, 35, 64
8, 51480, Note_on_c, 8, 35, 110
8, 51598, Note_off_c, 8, 35, 64
8, 51600, Note_on_c, 8, 38, 110
8, 51718, Note_off_c, 8, 38, 64
8, 51840, Note_on_c, 8, 35, 110
8, 51958, Note_off_c, 8, 35, 64
8, 52080, Note_on_c, 8, 38, 110
8, 52219, Note_off_c, 8, 38, 64
8, 52320, Note_on_c, 8, 35, 110
8, 52438, Note_off_c, 8, 35, 64
8, 52440, Note_on_c, 8, 35, 110
8, 52558, Note_off_c, 8, 35, 64
8, 52560, Note_on_c, 8, 38, 110
8, 52678, Note_off_c, 8, 38, 64
8, 52800, Note_on_c, 8, 35, 110
8, 52918, Note_off_c, 8, 35, 64
8, 53040, Note_on_c, 8, 38, 110
8, 53158, Note_off_c, 8, 38, 64
8, 53280, Note_on_c, 8, 35, 110
8, 53398, Note_off_c, 8, 35, 64
8, 53400, Note_on_c, 8, 35, 110
8, 53518, Note_off_c, 8, 35, 64
8, 53520, Note_on_c, 8, 38, 110
8, 53638, Note_off_c, 8, 38, 64
8, 53760, Note_on_c, 8, 35, 110
8, 53878, Note_off_c, 8, 35, 64
8, 54000, Note_on_c, 8, 38, 110
8, 54139, Note_off_c, 8, 38, 64
8, 54240, Note_on_c, 8, 35, 110
8, 54358, Note_off_c, 8, 35, 64
8, 54360, Note_on_c, 8, 35, 110
8, 54478, Note_off_c, 8, 35, 64
8, 54480, Note_on_c, 8, 38, 110
8, 54598, Note_off_c, 8, 38, 64
8, 54720, Note_on_c, 8, 35, 110
8, 54838, Note_off_c, 8, 35, 64
8, 54960, Note_on_c, 8, 38, 110
8, 55078, Note_off_c, 8, 38, 64
8, 55200, Note_on_c, 8, 35, 110
8, 55318, Note_off_c, 8, 35, 64
8, 55320, Note_on_c, 8, 35, 110
8, 55438, Note_off_c, 8, 35, 64
8, 55440, Note_on_c, 8, 38, 110
8, 55558, Note_off_c, 8, 38, 64
8, 55680, Note_on_c, 8, 35, 110
8, 55798, Note_off_c, 8, 35, 64
8, 55920, Note_on_c, 8, 38, 110
8, 56059, Note_off_c, 8, 38, 64
8, 56160, Note_on_c, 8, 35, 110
8, 56278, Note_off_c, 8, 35, 64
8, 56280, Note_on_c, 8, 35, 110
8, 56398, Note_off_c, 8, 35, 64
8, 56400, Note_on_c, 8, 38, 110
8, 56518, Note_off_c, 8, 38, 64
8, 56640, Note_on_c, 8, 35, 110
8, 56758, Note_off_c, 8, 35, 64
8, 56880, Note_on_c, 8, 38, 110
8, 56998, Note_off_c, 8, 38, 64
8, 57120, Note_on_c, 8, 35, 110
8, 57120, Note_on_c, 8, 38, 110
8, 57238, Note_off_c, 8, 35, 64
8, 57238, Note_off_c, 8, 38, 64
8, 57240, Note_on_c, 8, 35, 110
8, 57358, Note_off_c, 8, 35, 64
8, 57360, Note_on_c, 8, 38, 110
8, 57478, Note_off_c, 8, 38, 64
8, 57600, Note_on_c, 8, 35, 110
8, 57600, Note_on_c, 8, 38, 110
8, 57718, Note_off_c, 8, 35, 64
8, 57739, Note_off_c, 8, 38, 64
8, 57840, Note_on_c, 8, 38, 110
8, 57979, Note_off_c, 8, 38, 64
8, 58080, Note_on_c, 8, 35, 110
8, 58080, Note_on_c, 8, 38, 110
8, 58198, Note_off_c, 8, 35, 64
8, 58198, Note_off_c, 8, 38, 64
8, 58200, Note_on_c, 8, 35, 110
8, 58318, Note_off_c, 8, 35, 64
8, 58320, Note_on_c, 8, 38, 110
8, 58438, Note_off_c, 8, 38, 64
8, 58560, Note_on_c, 8, 35, 110
8, 58678, Note_off_c, 8, 35, 64
8, 59280, Note_on_c, 8, 38, 126
8, 59315, Note_off_c, 8, 38, 64
8, 59357, Note_on_c, 8, 38, 126
8, 59392, Note_off_c, 8, 38, 64
8, 59400, Note_on_c, 8, 38, 126
8, 59435, Note_off_c, 8, 38, 64
8, 59520, Note_on_c, 8, 35, 110
8, 59638, Note_off_c, 8, 35, 64
8, 59760, Note_on_c, 8, 38, 110
8, 59899, Note_off_c, 8, 38, 64
8, 60000, Note_on_c, 8, 35, 110
8, 60118, Note_off_c, 8, 35, 64
8, 60120, Note_on_c, 8, 35, 110
8, 60238, Note_off_c, 8, 35, 64
8, 60240, Note_on_c, 8, 38, 110
8, 60358, Note_off_c, 8, 38, 64
8, 60480, Note_on_c, 8, 35, 110
8, 60598, Note_off_c, 8, 35, 64
8, 60720, Note_on_c, 8, 38, 110
8, 60838, Note_off_c, 8, 38, 64
8, 60960, Note_on_c, 8, 35, 110
8, 61078, Note_off_c, 8, 35, 64
8, 61080, Note_on_c, 8, 35, 110
8, 61198, Note_off_c, 8, 35, 64
8, 61200, Note_on_c, 8, 38, 110
8, 61318, Note_off_c, 8, 38, 64
8, 61440, Note_on_c, 8, 35, 110
8, 61558, Note_off_c, 8, 35, 64
8, 61680, Note_on_c, 8, 38, 110
8, 61819, Note_off_c, 8, 38, 64
8, 61920, Note_on_c, 8, 35, 110
8, 62038, Note_off_c, 8, 35, 64
8, 62040, Note_on_c, 8, 35, 110
8, 62158, Note_off_c, 8, 35, 64
8, 62160, Note_on_c, 8, 38, 110
8, 62278, Note_off_c, 8, 38, 64
8, 62400, Note_on_c, 8, 35, 110
8, 62518, Note_off_c, 8, 35, 64
8, 62640, Note_on_c, 8, 38, 110
8, 62758, Note_off_c, 8, 38, 64
8, 62880, Note_on_c, 8, 35, 110
8, 62998, Note_off_c, 8, 35, 64
8, 63000, Note_on_c, 8, 35, 110
8, 63118, Note_off_c, 8, 35, 64
8, 63120, Note_on_c, 8, 38, 110
8, 63238, Note_off_c, 8, 38, 64
8, 63360, Note_on_c, 8, 35, 110
8, 63478, Note_off_c, 8, 35, 64
8, 63600, Note_on_c, 8, 38, 110
8, 63739, Note_off_c, 8, 38, 64
8, 63840, Note_on_c, 8, 35, 110
8, 63958, Note_off_c, 8, 35, 64
8, 63960, Note_on_c, 8, 35, 110
8, 64078, Note_off_c, 8, 35, 64
8, 64080, Note_on_c, 8, 38, 110
8, 64198, Note_off_c, 8, 38, 64
8, 64320, Note_on_c, 8, 35, 110
8, 64438, Note_off_c, 8, 35, 64
8, 64560, Note_on_c, 8, 38, 110
8, 64678, Note_off_c, 8, 38, 64
8, 64800, Note_on_c, 8, 35, 110
8, 64918, Note_off_c, 8, 35, 64
8, 64920, Note_on_c, 8, 35, 110
8, 65038, Note_off_c, 8, 35, 64
8, 65040, Note_on_c, 8, 38, 110
8, 65158, Note_off_c, 8, 38, 64
8, 65280, Note_on_c, 8, 35, 110
8, 65398, Note_off_c, 8, 35, 64
8, 65520, Note_on_c, 8, 38, 110
8, 65659, Note_off_c, 8, 38, 64
8, 65760, Note_on_c, 8, 35, 110
8, 65878, Note_off_c, 8, 35, 64
8, 65880, Note_on_c, 8, 35, 110
8, 65998, Note_off_c, 8, 35, 64
8, 66000, Note_on_c, 8, 38, 110
8, 66118, Note_off_c, 8, 38, 64
8, 66240, Note_on_c, 8, 35, 110
8, 66358, Note_off_c, 8, 35, 64
8, 66480, Note_on_c, 8, 38, 110
8, 66598, Note_off_c, 8, 38, 64
8, 66720, Note_on_c, 8, 35, 110
8, 66838, Note_off_c, 8, 35, 64
8, 66840, Note_on_c, 8, 35, 110
8, 66958, Note_off_c, 8, 35, 64
8, 66960, Note_on_c, 8, 38, 110
8, 67078, Note_off_c, 8, 38, 64
8, 67200, Note_on_c, 8, 35, 110
8, 67318, Note_off_c, 8, 35, 64
8, 67440, Note_on_c, 8, 38, 110
8, 67579, Note_off_c, 8, 38, 64
8, 67680, Note_on_c, 8, 35, 110
8, 67798, Note_off_c, 8, 35, 64
8, 67800, Note_on_c, 8, 35, 110
8, 67918, Note_off_c, 8, 35, 64
8, 67920, Note_on_c, 8, 38, 110
8, 68038, Note_off_c, 8, 38, 64
8, 68160, Note_on_c, 8, 35, 110
8, 68278, Note_off_c, 8, 35, 64
8, 68400, Note_on_c, 8, 38, 110
8, 68518, Note_off_c, 8, 38, 64
8, 68640, Note_on_c, 8, 35, 110
8, 68758, Note_off_c, 8, 35, 64
8, 68760, Note_on_c, 8, 35, 110
8, 68878, Note_off_c, 8, 35, 64
8, 68880, Note_on_c, 8, 38, 110
8, 68998, Note_off_c, 8, 38, 64
8, 69120, Note_on_c, 8, 35, 110
8, 69238, Note_off_c, 8, 35, 64
8, 69360, Note_on_c, 8, 38, 110
8, 69499, Note_off_c, 8, 38, 64
8, 69600, Note_on_c, 8, 35, 110
8, 69718, Note_off_c, 8, 35, 64
8, 69720, Note_on_c, 8, 35, 110
8, 69838, Note_off_c, 8, 35, 64
8, 69840, Note_on_c, 8, 38, 110
8, 69958, Note_off_c, 8, 38, 64
8, 70080, Note_on_c, 8, 35, 110
8, 70198, Note_off_c, 8, 35, 64
8, 70320, Note_on_c, 8, 38, 110
8, 70438, Note_off_c, 8, 38, 64
8, 70560, Note_on_c, 8, 35, 110
8, 70678, Note_off_c, 8, 35, 64
8, 70680, Note_on_c, 8, 35, 110
8, 70798, Note_off_c, 8, 35, 64
8, 70800, Note_on_c, 8, 38, 110
8, 70918, Note_off_c, 8, 38, 64
8, 71040, Note_on_c, 8, 35, 110
8, 71158, Note_off_c, 8, 35, 64
8, 71280, Note_on_c, 8, 38, 110
8, 71419, Note_off_c, 8, 38, 64
8, 71520, Note_on_c, 8, 35, 110
8, 71638, Note_off_c, 8, 35, 64
8, 71640, Note_on_c, 8, 35, 110
8, 71758, Note_off_c, 8, 35, 64
8, 71760, Note_on_c, 8, 38, 110
8, 71878, Note_off_c, 8, 38, 64
8, 72000, Note_on_c, 8, 35, 110
8, 72118, Note_off_c, 8, 35, 64
8, 72240, Note_on_c, 8, 38, 110
8, 72358, Note_off_c, 8, 38, 64
8, 72480, Note_on_c, 8, 35, 110
8, 72598, Note_off_c, 8, 35, 64
8, 72600, Note_on_c, 8, 35, 110
8, 72718, Note_off_c, 8, 35, 64
8, 72720, Note_on_c, 8, 38, 110
8, 72838, Note_off_c, 8, 38, 64
8, 72960, Note_on_c, 8, 35, 110
8, 73078, Note_off_c, 8, 35, 64
8, 73200, Note_on_c, 8, 38, 110
8, 73339, Note_off_c, 8, 38, 64
8, 73440, Note_on_c, 8, 35, 110
8, 73558, Note_off_c, 8, 35, 64
8, 73560, Note_on_c, 8, 35, 110
8, 73678, Note_off_c, 8, 35, 64
8, 73680, Note_on_c, 8, 38, 110
8, 73798, Note_off_c, 8, 38, 64
8, 73920, Note_on_c, 8, 35, 110
8, 74038, Note_off_c, 8, 35, 64
8, 74160, Note_on_c, 8, 38, 110
8, 74278, Note_off_c, 8, 38, 64
8, 74400, Note_on_c, 8, 35, 110
8, 74518, Note_off_c, 8, 35, 64
8, 74520, Note_on_c, 8, 35, 110
8, 74638, Note_off_c, 8, 35, 64
8, 74640, Note_on_c, 8, 38, 110
8, 74758, Note_off_c, 8, 38, 64
8, 74880, Note_on_c, 8, 35, 110
8, 74998, Note_off_c, 8, 35, 64
8, 75075, Note_on_c, 8, 35, 64
8, 75120, Note_on_c, 8, 38, 110
8, 75144, Note_off_c, 8, 35, 64
8, 75259, Note_off_c, 8, 38, 64
8, 75360, Note_on_c, 8, 35, 110
8, 75478, Note_off_c, 8, 35, 64
8, 75480, Note_on_c, 8, 35, 110
8, 75598, Note_off_c, 8, 35, 64
8, 75600, Note_on_c, 8, 38, 110
8, 75718, Note_off_c, 8, 38, 64
8, 75839, Note_on_c, 8, 35, 110
8, 75957, Note_off_c, 8, 35, 64
8, 76034, Note_on_c, 8, 35, 64
8, 76079, Note_on_c, 8, 38, 110
8, 76103, Note_off_c, 8, 35, 64
8, 76218, Note_off_c, 8, 38, 64
8, 76320, Note_on_c, 8, 35, 110
8, 76438, Note_off_c, 8, 35, 64
8, 76440, Note_on_c, 8, 35, 110
8, 76558, Note_off_c, 8, 35, 64
8, 76560, Note_on_c, 8, 38, 110
8, 76678, Note_off_c, 8, 38, 64
8, 76800, Note_on_c, 8, 35, 110
8, 76880, Note_on_c, 8, 70, 110
8, 76915, Note_off_c, 8, 70, 64
8, 76918, Note_off_c, 8, 35, 64
8, 76920, Note_on_c, 8, 82, 110
8, 76955, Note_off_c, 8, 82, 64
8, 76993, Note_on_c, 8, 35, 64
8, 77038, Note_on_c, 8, 38, 110
8, 77062, Note_off_c, 8, 35, 64
8, 77120, Note_on_c, 8, 70, 110
8, 77155, Note_off_c, 8, 70, 64
8, 77160, Note_on_c, 8, 82, 92
8, 77177, Note_off_c, 8, 38, 64
8, 77195, Note_off_c, 8, 82, 64
8, 77278, Note_on_c, 8, 35, 110
8, 77360, Note_on_c, 8, 70, 110
8, 77395, Note_off_c, 8, 70, 64
8, 77396, Note_off_c, 8, 35, 64
8, 77398, Note_on_c, 8, 35, 110
8, 77400, Note_on_c, 8, 82, 110
8, 77435, Note_off_c, 8, 82, 64
8, 77516, Note_off_c, 8, 35, 64
8, 77518, Note_on_c, 8, 38, 110
8, 77600, Note_on_c, 8, 70, 110
8, 77635, Note_off_c, 8, 70, 64
8, 77636, Note_off_c, 8, 38, 64
8, 77640, Note_on_c, 8, 82, 92
8, 77675, Note_off_c, 8, 82, 64
8, 77757, Note_on_c, 8, 35, 110
8, 77840, Note_on_c, 8, 70, 110
8, 77875, Note_off_c, 8, 35, 64
8, 77875, Note_off_c, 8, 70, 64
8, 77880, Note_on_c, 8, 82, 110
8, 77915, Note_off_c, 8, 82, 64
8, 77952, Note_on_c, 8, 35, 64
8, 77997, Note_on_c, 8, 38, 110
8, 78021, Note_off_c, 8, 35, 64
8, 78080, Note_on_c, 8, 70, 110
8, 78115, Note_off_c, 8, 70, 64
8, 78120, Note_on_c, 8, 82, 92
8, 78136, Note_off_c, 8, 38, 64
8, 78155, Note_off_c, 8, 82, 64
8, 78238, Note_on_c, 8, 35, 110
8, 78320, Note_on_c, 8, 70, 110
8, 78355, Note_off_c, 8, 70, 64
8, 78356, Note_off_c, 8, 35, 64
8, 78358, Note_on_c, 8, 35, 110
8, 78360, Note_on_c, 8, 82, 110
8, 78395, Note_off_c, 8, 82, 64
8, 78476, Note_off_c, 8, 35, 64
8, 78478, Note_on_c, 8, 38, 110
8, 78560, Note_on_c, 8, 70, 110
8, 78595, Note_off_c, 8, 70, 64
8, 78596, Note_off_c, 8, 38, 64
8, 78600, Note_on_c, 8, 82, 92
8, 78635, Note_off_c, 8, 82, 64
8, 78720, Note_on_c, 8, 35, 110
8, 78800, Note_on_c, 8, 70, 110
8, 78835, Note_off_c, 8, 70, 64
8, 78838, Note_off_c, 8, 35, 64
8, 78840, Note_on_c, 8, 82, 110
8, 78875, Note_off_c, 8, 82, 64
8, 78913, Note_on_c, 8, 35, 64
8, 78958, Note_on_c, 8, 38, 110
8, 78982, Note_off_c, 8, 35, 64
8, 79040, Note_on_c, 8, 70, 110
8, 79075, Note_off_c, 8, 70, 64
8, 79080, Note_on_c, 8, 82, 92
8, 79097, Note_off_c, 8, 38, 64
8, 79115, Note_off_c, 8, 82, 64
8, 79198, Note_on_c, 8, 35, 110
8, 79280, Note_on_c, 8, 70, 110
8, 79315, Note_off_c, 8, 70, 64
8, 79316, Note_off_c, 8, 35, 64
8, 79318, Note_on_c, 8, 35, 110
8, 79320, Note_on_c, 8, 82, 110
8, 79355, Note_off_c, 8, 82, 64
8, 79436, Note_off_c, 8, 35, 64
8, 79438, Note_on_c, 8, 38, 110
8, 79520, Note_on_c, 8, 70, 110
8, 79555, Note_off_c, 8, 70, 64
8, 79556, Note_off_c, 8, 38, 64
8, 79560, Note_on_c, 8, 82, 92
8, 79595, Note_off_c, 8, 82, 64
8, 79677, Note_on_c, 8, 35, 110
8, 79760, Note_on_c, 8, 70, 110
8, 79795, Note_off_c, 8, 35, 64
8, 79795, Note_off_c, 8, 70, 64
8, 79800, Note_on_c, 8, 82, 110
8, 79835, Note_off_c, 8, 82, 64
8, 79872, Note_on_c, 8, 35, 64
8, 79917, Note_on_c, 8, 38, 110
8, 79941, Note_off_c, 8, 35, 64
8, 80000, Note_on_c, 8, 70, 110
8, 80035, Note_off_c, 8, 70, 64
8, 80040, Note_on_c, 8, 82, 92
8, 80056, Note_off_c, 8, 38, 64
8, 80075, Note_off_c, 8, 82, 64
8, 80158, Note_on_c, 8, 35, 110
8, 80240, Note_on_c, 8, 70, 110
8, 80275, Note_off_c, 8, 70, 64
8, 80276, Note_off_c, 8, 35, 64
8, 80278, Note_on_c, 8, 35, 110
8, 80280, Note_on_c, 8, 82, 110
8, 80315, Note_off_c, 8, 82, 64
8, 80396, Note_off_c, 8, 35, 64
8, 80398, Note_on_c, 8, 38, 110
8, 80480, Note_on_c, 8, 70, 110
8, 80515, Note_off_c, 8, 70, 64
8, 80516, Note_off_c, 8, 38, 64
8, 80520, Note_on_c, 8, 82, 92
8, 80555, Note_off_c, 8, 82, 64
8, 80640, Note_on_c, 8, 35, 110
8, 80720, Note_on_c, 8, 70, 110
8, 80755, Note_off_c, 8, 70, 64
8, 80758, Note_off_c, 8, 35, 64
8, 80760, Note_on_c, 8, 82, 110
8, 80795, Note_off_c, 8, 82, 64
8, 80833, Note_on_c, 8, 35, 64
8, 80878, Note_on_c, 8, 38, 110
8, 80902, Note_off_c, 8, 35, 64
8, 80960, Note_on_c, 8, 70, 110
8, 80995, Note_off_c, 8, 70, 64
8, 81000, Note_on_c, 8, 82, 92
8, 81017, Note_off_c, 8, 38, 64
8, 81035, Note_off_c, 8, 82, 64
8, 81118, Note_on_c, 8, 35, 110
8, 81200, Note_on_c, 8, 70, 110
8, 81235, Note_off_c, 8, 70, 64
8, 81236, Note_off_c, 8, 35, 64
8, 81238, Note_on_c, 8, 35, 110
8, 81240, Note_on_c, 8, 82, 110
8, 81275, Note_off_c, 8, 82, 64
8, 81356, Note_off_c, 8, 35, 64
8, 81358, Note_on_c, 8, 38, 110
8, 81440, Note_on_c, 8, 70, 110
8, 81475, Note_off_c, 8, 70, 64
8, 81476, Note_off_c, 8, 38, 64
8, 81480, Note_on_c, 8, 82, 92
8, 81515, Note_off_c, 8, 82, 64
8, 81597, Note_on_c, 8, 35, 110
8, 81680, Note_on_c, 8, 70, 110
8, 81715, Note_off_c, 8, 35, 64
8, 81715, Note_off_c, 8, 70, 64
8, 81720, Note_on_c, 8, 82, 110
8, 81755, Note_off_c, 8, 82, 64
8, 81792, Note_on_c, 8, 35, 64
8, 81837, Note_on_c, 8, 38, 110
8, 81861, Note_off_c, 8, 35, 64
8, 81920, Note_on_c, 8, 70, 110
8, 81955, Note_off_c, 8, 70, 64
8, 81960, Note_on_c, 8, 82, 92
8, 81976, Note_off_c, 8, 38, 64
8, 81995, Note_off_c, 8, 82, 64
8, 82078, Note_on_c, 8, 35, 110
8, 82160, Note_on_c, 8, 70, 110
8, 82195, Note_off_c, 8, 70, 64
8, 82196, Note_off_c, 8, 35, 64
8, 82198, Note_on_c, 8, 35, 110
8, 82200, Note_on_c, 8, 82, 110
8, 82235, Note_off_c, 8, 82, 64
8, 82316, Note_off_c, 8, 35, 64
8, 82318, Note_on_c, 8, 38, 110
8, 82400, Note_on_c, 8, 70, 110
8, 82435, Note_off_c, 8, 70, 64
8, 82436, Note_off_c, 8, 38, 64
8, 82440, Note_on_c, 8, 82, 92
8, 82475, Note_off_c, 8, 82, 64
8, 82560, Note_on_c, 8, 35, 110
8, 82640, Note_on_c, 8, 70, 110
8, 82675, Note_off_c, 8, 70, 64
8, 82678, Note_off_c, 8, 35, 64
8, 82680, Note_on_c, 8, 82, 110
8, 82715, Note_off_c, 8, 82, 64
8, 82753, Note_on_c, 8, 35, 64
8, 82798, Note_on_c, 8, 38, 110
8, 82822, Note_off_c, 8, 35, 64
8, 82880, Note_on_c, 8, 70, 110
8, 82915, Note_off_c, 8, 70, 64
8, 82920, Note_on_c, 8, 82, 92
8, 82937, Note_off_c, 8, 38, 64
8, 82955, Note_off_c, 8, 82, 64
8, 83038, Note_on_c, 8, 35, 110
8, 83120, Note_on_c, 8, 70, 110
8, 83155, Note_off_c, 8, 70, 64
8, 83156, Note_off_c, 8, 35, 64
8, 83158, Note_on_c, 8, 35, 110
8, 83160, Note_on_c, 8, 82, 110
8, 83195, Note_off_c, 8, 82, 64
8, 83276, Note_off_c, 8, 35, 64
8, 83278, Note_on_c, 8, 38, 110
8, 83360, Note_on_c, 8, 70, 110
8, 83395, Note_off_c, 8, 70, 64
8, 83396, Note_off_c, 8, 38, 64
8, 83400, Note_on_c, 8, 82, 92
8, 83435, Note_off_c, 8, 82, 64
8, 83517, Note_on_c, 8, 35, 110
8, 83600, Note_on_c, 8, 70, 110
8, 83635, Note_off_c, 8, 35, 64
8, 83635, Note_off_c, 8, 70, 64
8, 83640, Note_on_c, 8, 82, 110
8, 83675, Note_off_c, 8, 82, 64
8, 83712, Note_on_c, 8, 35, 64
8, 83757, Note_on_c, 8, 38, 110
8, 83781, Note_off_c, 8, 35, 64
8, 83840, Note_on_c, 8, 70, 110
8, 83875, Note_off_c, 8, 70, 64
8, 83880, Note_on_c, 8, 82, 92
8, 83896, Note_off_c, 8, 38, 64
8, 83915, Note_off_c, 8, 82, 64
8, 83998, Note_on_c, 8, 35, 110
8, 84080, Note_on_c, 8, 70, 110
8, 84115, Note_off_c, 8, 70, 64
8, 84116, Note_off_c, 8, 35, 64
8, 84118, Note_on_c, 8, 35, 110
8, 84120, Note_on_c, 8, 82, 110
8, 84155, Note_off_c, 8, 82, 64
8, 84236, Note_off_c, 8, 35, 64
8, 84238, Note_on_c, 8, 38, 110
8, 84320, Note_on_c, 8, 70, 110
8, 84355, Note_off_c, 8, 70, 64
8, 84356, Note_off_c, 8, 38, 64
8, 84360, Note_on_c, 8, 82, 92
8, 84395, Note_off_c, 8, 82, 64
8, 84480, Note_on_c, 8, 35, 110
8, 84560, Note_on_c, 8, 70, 110
8, 84595, Note_off_c, 8, 70, 64
8, 84598, Note_off_c, 8, 35, 64
8, 84600, Note_on_c, 8, 82, 110
8, 84635, Note_off_c, 8, 82, 64
8, 84673, Note_on_c, 8, 35, 64
8, 84718, Note_on_c, 8, 38, 110
8, 84742, Note_off_c, 8, 35, 64
8, 84800, Note_on_c, 8, 70, 110
8, 84835, Note_off_c, 8, 70, 64
8, 84840, Note_on_c, 8, 82, 92
8, 84857, Note_off_c, 8, 38, 64
8, 84875, Note_off_c, 8, 82, 64
8, 84958, Note_on_c, 8, 35, 110
8, 85040, Note_on_c, 8, 70, 110
8, 85075, Note_off_c, 8, 70, 64
8, 85076, Note_off_c, 8, 35, 64
8, 85078, Note_on_c, 8, 35, 110
8, 85080, Note_on_c, 8, 82, 110
8, 85115, Note_off_c, 8, 82, 64
8, 85196, Note_off_c, 8, 35, 64
8, 85198, Note_on_c, 8, 38, 110
8, 85280, Note_on_c, 8, 70, 110
8, 85315, Note_off_c, 8, 70, 64
8, 85316, Note_off_c, 8, 38, 64
8, 85320, Note_on_c, 8, 82, 92
8, 85355, Note_off_c, 8, 82, 64
8, 85437, Note_on_c, 8, 35, 110
8, 85520, Note_on_c, 8, 70, 110
8, 85555, Note_off_c, 8, 35, 64
8, 85555, Note_off_c, 8, 70, 64
8, 85560, Note_on_c, 8, 82, 110
8, 85595, Note_off_c, 8, 82, 64
8, 85632, Note_on_c, 8, 35, 64
8, 85677, Note_on_c, 8, 38, 110
8, 85701, Note_off_c, 8, 35, 64
8, 85760, Note_on_c, 8, 70, 110
8, 85795, Note_off_c, 8, 70, 64
8, 85800, Note_on_c, 8, 82, 92
8, 85816, Note_off_c, 8, 38, 64
8, 85835, Note_off_c, 8, 82, 64
8, 85918, Note_on_c, 8, 35, 110
8, 86000, Note_on_c, 8, 70, 110
8, 86035, Note_off_c, 8, 70, 64
8, 86036, Note_off_c, 8, 35, 64
8, 86038, Note_on_c, 8, 35, 110
8, 86040, Note_on_c, 8, 82, 110
8, 86075, Note_off_c, 8, 82, 64
8, 86156, Note_off_c, 8, 35, 64
8, 86158, Note_on_c, 8, 38, 110
8, 86240, Note_on_c, 8, 70, 110
8, 86275, Note_off_c, 8, 70, 64
8, 86276, Note_off_c, 8, 38, 64
8, 86280, Note_on_c, 8, 82, 92
8, 86315, Note_off_c, 8, 82, 64
8, 86400, Note_on_c, 8, 35, 110
8, 86480, Note_on_c, 8, 70, 110
8, 86515, Note_off_c, 8, 70, 64
8, 86518, Note_off_c, 8, 35, 64
8, 86520, Note_on_c, 8, 82, 110
8, 86555, Note_off_c, 8, 82, 64
8, 86593, Note_on_c, 8, 35, 64
8, 86638, Note_on_c, 8, 38, 110
8, 86662, Note_off_c, 8, 35, 64
8, 86720, Note_on_c, 8, 70, 110
8, 86755, Note_off_c, 8, 70, 64
8, 86760, Note_on_c, 8, 82, 92
8, 86777, Note_off_c, 8, 38, 64
8, 86795, Note_off_c, 8, 82, 64
8, 86878, Note_on_c, 8, 35, 110
8, 86960, Note_on_c, 8, 70, 110
8, 86995, Note_off_c, 8, 70, 64
8, 86996, Note_off_c, 8, 35, 64
8, 86998, Note_on_c, 8, 35, 110
8, 87000, Note_on_c, 8, 82, 110
8, 87035, Note_off_c, 8, 82, 64
8, 87116, Note_off_c, 8, 35, 64
8, 87118, Note_on_c, 8, 38, 110
8, 87200, Note_on_c, 8, 70, 110
8, 87235, Note_off_c, 8, 70, 64
8, 87236, Note_off_c, 8, 38, 64
8, 87240, Note_on_c, 8, 82, 92
8, 87275, Note_off_c, 8, 82, 64
8, 87357, Note_on_c, 8, 35, 110
8, 87440, Note_on_c, 8, 70, 110
8, 87475, Note_off_c, 8, 35, 64
8, 87475, Note_off_c, 8, 70, 64
8, 87480, Note_on_c, 8, 82, 110
8, 87515, Note_off_c, 8, 82, 64
8, 87552, Note_on_c, 8, 35, 64
8, 87597, Note_on_c, 8, 38, 110
8, 87621, Note_off_c, 8, 35, 64
8, 87680, Note_on_c, 8, 70, 110
8, 87715, Note_off_c, 8, 70, 64
8, 87720, Note_on_c, 8, 82, 92
8, 87736, Note_off_c, 8, 38, 64
8, 87755, Note_off_c, 8, 82, 64
8, 87838, Note_on_c, 8, 35, 110
8, 87920, Note_on_c, 8, 70, 110
8, 87955, Note_off_c, 8, 70, 64
8, 87956, Note_off_c, 8, 35, 64
8, 87958, Note_on_c, 8, 35, 110
8, 87960, Note_on_c, 8, 82, 110
8, 87995, Note_off_c, 8, 82, 64
8, 88076, Note_off_c, 8, 35, 64
8, 88078, Note_on_c, 8, 38, 110
8, 88160, Note_on_c, 8, 70, 110
8, 88195, Note_off_c, 8, 70, 64
8, 88196, Note_off_c, 8, 38, 64
8, 88200, Note_on_c, 8, 82, 92
8, 88235, Note_off_c, 8, 82, 64
8, 88320, Note_on_c, 8, 35, 110
8, 88400, Note_on_c, 8, 70, 110
8, 88435, Note_off_c, 8, 70, 64
8, 88438, Note_off_c, 8, 35, 64
8, 88440, Note_on_c, 8, 82, 110
8, 88475, Note_off_c, 8, 82, 64
8, 88513, Note_on_c, 8, 35, 64
8, 88558, Note_on_c, 8, 38, 110
8, 88582, Note_off_c, 8, 35, 64
8, 88640, Note_on_c, 8, 70, 110
8, 88675, Note_off_c, 8, 70, 64
8, 88680, Note_on_c, 8, 82, 92
8, 88697, Note_off_c, 8, 38, 64
8, 88715, Note_off_c, 8, 82, 64
8, 88798, Note_on_c, 8, 35, 110
8, 88880, Note_on_c, 8, 70, 110
8, 88915, Note_off_c, 8, 70, 64
8, 88916, Note_off_c, 8, 35, 64
8, 88918, Note_on_c, 8, 35, 110
8, 88920, Note_on_c, 8, 82, 110
8, 88955, Note_off_c, 8, 82, 64
8, 89036, Note_off_c, 8, 35, 64
8, 89038, Note_on_c, 8, 38, 110
8, 89120, Note_on_c, 8, 70, 110
8, 89155, Note_off_c, 8, 70, 64
8, 89156, Note_off_c, 8, 38, 64
8, 89160, Note_on_c, 8, 82, 92
8, 89195, Note_off_c, 8, 82, 64
8, 89277, Note_on_c, 8, 35, 110
8, 89360, Note_on_c, 8, 70, 110
8, 89395, Note_off_c, 8, 35, 64
8, 89395, Note_off_c, 8, 70, 64
8, 89400, Note_on_c, 8, 82, 110
8, 89435, Note_off_c, 8, 82, 64
8, 89472, Note_on_c, 8, 35, 64
8, 89517, Note_on_c, 8, 38, 110
8, 89541, Note_off_c, 8, 35, 64
8, 89600, Note_on_c, 8, 70, 110
8, 89635, Note_off_c, 8, 70, 64
8, 89640, Note_on_c, 8, 82, 92
8, 89656, Note_off_c, 8, 38, 64
8, 89675, Note_off_c, 8, 82, 64
8, 89758, Note_on_c, 8, 35, 110
8, 89840, Note_on_c, 8, 70, 110
8, 89875, Note_off_c, 8, 70, 64
8, 89876, Note_off_c, 8, 35, 64
8, 89878, Note_on_c, 8, 35, 110
8, 89880, Note_on_c, 8, 82, 110
8, 89915, Note_off_c, 8, 82, 64
8, 89996, Note_off_c, 8, 35, 64
8, 89998, Note_on_c, 8, 38, 110
8, 90080, Note_on_c, 8, 70, 110
8, 90115, Note_off_c, 8, 70, 64
8, 90116, Note_off_c, 8, 38, 64
8, 90120, Note_on_c, 8, 82, 92
8, 90155, Note_off_c, 8, 82, 64
8, 90240, Note_on_c, 8, 35, 110
8, 90320, Note_on_c, 8, 70, 110
8, 90355, Note_off_c, 8, 70, 64
8, 90358, Note_off_c, 8, 35, 64
8, 90360, Note_on_c, 8, 82, 110
8, 90395, Note_off_c, 8, 82, 64
8, 90433, Note_on_c, 8, 35, 64
8, 90478, Note_on_c, 8, 38, 110
8, 90502, Note_off_c, 8, 35, 64
8, 90560, Note_on_c, 8, 70, 110
8, 90595, Note_off_c, 8, 70, 64
8, 90600, Note_on_c, 8, 82, 92
8, 90617, Note_off_c, 8, 38, 64
8, 90635, Note_off_c, 8, 82, 64
8, 90718, Note_on_c, 8, 35, 110
8, 90800, Note_on_c, 8, 70, 110
8, 90835, Note_off_c, 8, 70, 64
8, 90836, Note_off_c, 8, 35, 64
8, 90838, Note_on_c, 8, 35, 110
8, 90840, Note_on_c, 8, 82, 110
8, 90875, Note_off_c, 8, 82, 64
8, 90956, Note_off_c, 8, 35, 64
8, 90958, Note_on_c, 8, 38, 110
8, 91040, Note_on_c, 8, 70, 110
8, 91075, Note_off_c, 8, 70, 64
8, 91076, Note_off_c, 8, 38, 64
8, 91080, Note_on_c, 8, 82, 92
8, 91115, Note_off_c, 8, 82, 64
8, 91197, Note_on_c, 8, 35, 110
8, 91280, Note_on_c, 8, 70, 110
8, 91315, Note_off_c, 8, 35, 64
8, 91315, Note_off_c, 8, 70, 64
8, 91320, Note_on_c, 8, 82, 110
8, 91355, Note_off_c, 8, 82, 64
8, 91392, Note_on_c, 8, 35, 64
8, 91437, Note_on_c, 8, 38, 110
8, 91461, Note_off_c, 8, 35, 64
8, 91520, Note_on_c, 8, 70, 110
8, 91555, Note_off_c, 8, 70, 64
8, 91560, Note_on_c, 8, 82, 92
8, 91576, Note_off_c, 8, 38, 64
8, 91595, Note_off_c, 8, 82, 64
8, 91678, Note_on_c, 8, 35, 110
8, 91760, Note_on_c, 8, 70, 110
8, 91795, Note_off_c, 8, 70, 64
8, 91796, Note_off_c, 8, 35, 64
8, 91798, Note_on_c, 8, 35, 110
8, 91800, Note_on_c, 8, 82, 110
8, 91835, Note_off_c, 8, 82, 64
8, 91916, Note_off_c, 8, 35, 64
8, 91918, Note_on_c, 8, 38, 110
8, 92000, Note_on_c, 8, 70, 110
8, 92035, Note_off_c, 8, 70, 64
8, 92036, Note_off_c, 8, 38, 64
8, 92040, Note_on_c, 8, 82, 92
8, 92075, Note_off_c, 8, 82, 64
8, 92160, Note_on_c, 8, 35, 110
8, 92240, Note_on_c, 8, 70, 110
8, 92275, Note_off_c, 8, 70, 64
8, 92278, Note_off_c, 8, 35, 64
8, 92280, Note_on_c, 8, 82, 110
8, 92315, Note_off_c, 8, 82, 64
8, 92353, Note_on_c, 8, 35, 64
8, 92398, Note_on_c, 8, 38, 110
8, 92422, Note_off_c, 8, 35, 64
8, 92480, Note_on_c, 8, 70, 110
8, 92515, Note_off_c, 8, 70, 64
8, 92520, Note_on_c, 8, 82, 92
8, 92537, Note_off_c, 8, 38, 64
8, 92555, Note_off_c, 8, 82, 64
8, 92638, Note_on_c, 8, 35, 110
8, 92720, Note_on_c, 8, 70, 110
8, 92755, Note_off_c, 8, 70, 64
8, 92756, Note_off_c, 8, 35, 64
8, 92758, Note_on_c, 8, 35, 110
8, 92760, Note_on_c, 8, 82, 110
8, 92795, Note_off_c, 8, 82, 64
8, 92876, Note_off_c, 8, 35, 64
8, 92878, Note_on_c, 8, 38, 110
8, 92960, Note_on_c, 8, 70, 110
8, 92995, Note_off_c, 8, 70, 64
8, 92996, Note_off_c, 8, 38, 64
8, 93000, Note_on_c, 8, 82, 92
8, 93035, Note_off_c, 8, 82, 64
8, 93117, Note_on_c, 8, 35, 110
8, 93200, Note_on_c, 8, 70, 110
8, 93235, Note_off_c, 8, 35, 64
8, 93235, Note_off_c, 8, 70, 64
8, 93240, Note_on_c, 8, 82, 110
8, 93275, Note_off_c, 8, 82, 64
8, 93312, Note_on_c, 8, 35, 64
8, 93357, Note_on_c, 8, 38, 110
8, 93381, Note_off_c, 8, 35, 64
8, 93440, Note_on_c, 8, 70, 110
8, 93475, Note_off_c, 8, 70, 64
8, 93480, Note_on_c, 8, 82, 92
8, 93496, Note_off_c, 8, 38, 64
8, 93515, Note_off_c, 8, 82, 64
8, 93598, Note_on_c, 8, 35, 110
8, 93680, Note_on_c, 8, 70, 110
8, 93715, Note_off_c, 8, 70, 64
8, 93716, Note_off_c, 8, 35, 64
8, 93718, Note_on_c, 8, 35, 110
8, 93720, Note_on_c, 8, 82, 110
8, 93755, Note_off_c, 8, 82, 64
8, 93836, Note_off_c, 8, 35, 64
8, 93838, Note_on_c, 8, 38, 110
8, 93920, Note_on_c, 8, 70, 110
8, 93955, Note_off_c, 8, 70, 64
8, 93956, Note_off_c, 8, 38, 64
8, 93960, Note_on_c, 8, 82, 92
8, 93995, Note_off_c, 8, 82, 64
8, 94080, Note_on_c, 8, 35, 110
8, 94160, Note_on_c, 8, 70, 110
8, 94195, Note_off_c, 8, 70, 64
8, 94198, Note_off_c, 8, 35, 64
8, 94200, Note_on_c, 8, 82, 110
8, 94235, Note_off_c, 8, 82, 64
8, 94273, Note_on_c, 8, 35, 64
8, 94318, Note_on_c, 8, 38, 110
8, 94342, Note_off_c, 8, 35, 64
8, 94400, Note_on_c, 8, 70, 110
8, 94435, Note_off_c, 8, 70, 64
8, 94440, Note_on_c, 8, 82, 92
8, 94457, Note_off_c, 8, 38, 64
8, 94475, Note_off_c, 8, 82, 64
8, 94558, Note_on_c, 8, 35, 110
8, 94640, Note_on_c, 8, 70, 110
8, 94675, Note_off_c, 8, 70, 64
8, 94676, Note_off_c, 8, 35, 64
8, 94678, Note_on_c, 8, 35, 110
8, 94680, Note_on_c, 8, 82, 110
8, 94715, Note_off_c, 8, 82, 64
8, 94796, Note_off_c, 8, 35, 64
8, 94798, Note_on_c, 8, 38, 110
8, 94880, Note_on_c, 8, 70, 110
8, 94915, Note_off_c, 8, 70, 64
8, 94916, Note_off_c, 8, 38, 64
8, 94920, Note_on_c, 8, 82, 92
8, 94955, Note_off_c, 8, 82, 64
8, 95037, Note_on_c, 8, 35, 110
8, 95155, Note_off_c, 8, 35, 64
8, 96000, End_track
9, 0, Start_track
9, 0, Title_t, "I Am The Walrus"
9, 0, Control_c, 9, 91, 40
9, 0, Control_c, 9, 7, 127
9, 12, Control_c, 9, 93, 0
9, 12, Control_c, 9, 10, 2
9, 24, Program_c, 9, 0
9, 480, Note_on_c, 9, 82, 110
9, 515, Note_off_c, 9, 82, 64
9, 560, Note_on_c, 9, 70, 110
9, 595, Note_off_c, 9, 70, 64
9, 600, Note_on_c, 9, 82, 110
9, 635, Note_off_c, 9, 82, 64
9, 680, Note_on_c, 9, 70, 110
9, 715, Note_off_c, 9, 70, 64
9, 720, Note_on_c, 9, 82, 110
9, 755, Note_off_c, 9, 82, 64
9, 800, Note_on_c, 9, 70, 110
9, 835, Note_off_c, 9, 70, 64
9, 840, Note_on_c, 9, 82, 92
9, 875, Note_off_c, 9, 82, 64
9, 920, Note_on_c, 9, 70, 94
9, 955, Note_off_c, 9, 70, 64
9, 960, Note_on_c, 9, 82, 110
9, 995, Note_off_c, 9, 82, 64
9, 1040, Note_on_c, 9, 70, 110
9, 1075, Note_off_c, 9, 70, 64
9, 1080, Note_on_c, 9, 82, 110
9, 1115, Note_off_c, 9, 82, 64
9, 1160, Note_on_c, 9, 70, 110
9, 1195, Note_off_c, 9, 70, 64
9, 1200, Note_on_c, 9, 82, 110
9, 1235, Note_off_c, 9, 82, 64
9, 1280, Note_on_c, 9, 70, 110
9, 1315, Note_off_c, 9, 70, 64
9, 1320, Note_on_c, 9, 82, 92
9, 1355, Note_off_c, 9, 82, 64
9, 1400, Note_on_c, 9, 70, 94
9, 1435, Note_off_c, 9, 70, 64
9, 1440, Note_on_c, 9, 82, 110
9, 1475, Note_off_c, 9, 82, 64
9, 1520, Note_on_c, 9, 70, 110
9, 1555, Note_off_c, 9, 70, 64
9, 1560, Note_on_c, 9, 82, 110
9, 1595, Note_off_c, 9, 82, 64
9, 1640, Note_on_c, 9, 70, 110
9, 1675, Note_off_c, 9, 70, 64
9, 1680, Note_on_c, 9, 82, 110
9, 1715, Note_off_c, 9, 82, 64
9, 1760, Note_on_c, 9, 70, 110
9, 1795, Note_off_c, 9, 70, 64
9, 1800, Note_on_c, 9, 82, 92
9, 1835, Note_off_c, 9, 82, 64
9, 1880, Note_on_c, 9, 70, 94
9, 1915, Note_off_c, 9, 70, 64
9, 1920, Note_on_c, 9, 82, 110
9, 1955, Note_off_c, 9, 82, 64
9, 2000, Note_on_c, 9, 70, 110
9, 2035, Note_off_c, 9, 70, 64
9, 2040, Note_on_c, 9, 82, 110
9, 2075, Note_off_c, 9, 82, 64
9, 2120, Note_on_c, 9, 70, 110
9, 2155, Note_off_c, 9, 70, 64
9, 2160, Note_on_c, 9, 82, 110
9, 2195, Note_off_c, 9, 82, 64
9, 2240, Note_on_c, 9, 70, 110
9, 2275, Note_off_c, 9, 70, 64
9, 2280, Note_on_c, 9, 82, 92
9, 2315, Note_off_c, 9, 82, 64
9, 2360, Note_on_c, 9, 70, 94
9, 2395, Note_off_c, 9, 70, 64
9, 2400, Note_on_c, 9, 82, 110
9, 2435, Note_off_c, 9, 82, 64
9, 2480, Note_on_c, 9, 70, 110
9, 2515, Note_off_c, 9, 70, 64
9, 2520, Note_on_c, 9, 82, 110
9, 2555, Note_off_c, 9, 82, 64
9, 2600, Note_on_c, 9, 70, 110
9, 2635, Note_off_c, 9, 70, 64
9, 2640, Note_on_c, 9, 82, 110
9, 2675, Note_off_c, 9, 82, 64
9, 2720, Note_on_c, 9, 70, 110
9, 2755, Note_off_c, 9, 70, 64
9, 2760, Note_on_c, 9, 82, 92
9, 2795, Note_off_c, 9, 82, 64
9, 2840, Note_on_c, 9, 70, 94
9, 2875, Note_off_c, 9, 70, 64
9, 2880, Note_on_c, 9, 82, 110
9, 2915, Note_off_c, 9, 82, 64
9, 2960, Note_on_c, 9, 70, 110
9, 2995, Note_off_c, 9, 70, 64
9, 3000, Note_on_c, 9, 82, 110
9, 3035, Note_off_c, 9, 82, 64
9, 3080, Note_on_c, 9, 70, 110
9, 3115, Note_off_c, 9, 70, 64
9, 3120, Note_on_c, 9, 82, 110
9, 3155, Note_off_c, 9, 82, 64
9, 3200, Note_on_c, 9, 70, 110
9, 3235, Note_off_c, 9, 70, 64
9, 3240, Note_on_c, 9, 82, 92
9, 3275, Note_off_c, 9, 82, 64
9, 3320, Note_on_c, 9, 70, 94
9, 3355, Note_off_c, 9, 70, 64
9, 3360, Note_on_c, 9, 82, 110
9, 3395, Note_off_c, 9, 82, 64
9, 3440, Note_on_c, 9, 70, 110
9, 3475, Note_off_c, 9, 70, 64
9, 3480, Note_on_c, 9, 82, 110
9, 3515, Note_off_c, 9, 82, 64
9, 3560, Note_on_c, 9, 70, 110
9, 3595, Note_off_c, 9, 70, 64
9, 3600, Note_on_c, 9, 82, 110
9, 3635, Note_off_c, 9, 82, 64
9, 3680, Note_on_c, 9, 70, 110
9, 3715, Note_off_c, 9, 70, 64
9, 3720, Note_on_c, 9, 82, 92
9, 3755, Note_off_c, 9, 82, 64
9, 3800, Note_on_c, 9, 70, 94
9, 3835, Note_off_c, 9, 70, 64
9, 3840, Note_on_c, 9, 82, 110
9, 3875, Note_off_c, 9, 82, 64
9, 3920, Note_on_c, 9, 70, 110
9, 3955, Note_off_c, 9, 70, 64
9, 3960, Note_on_c, 9, 82, 110
9, 3995, Note_off_c, 9, 82, 64
9, 4040, Note_on_c, 9, 70, 110
9, 4075, Note_off_c, 9, 70, 64
9, 4080, Note_on_c, 9, 82, 110
9, 4115, Note_off_c, 9, 82, 64
9, 4160, Note_on_c, 9, 70, 110
9, 4195, Note_off_c, 9, 70, 64
9, 4200, Note_on_c, 9, 82, 92
9, 4235, Note_off_c, 9, 82, 64
9, 4280, Note_on_c, 9, 70, 94
9, 4315, Note_off_c, 9, 70, 64
9, 4320, Note_on_c, 9, 82, 110
9, 4355, Note_off_c, 9, 82, 64
9, 4400, Note_on_c, 9, 70, 110
9, 4435, Note_off_c, 9, 70, 64
9, 4440, Note_on_c, 9, 82, 110
9, 4475, Note_off_c, 9, 82, 64
9, 4520, Note_on_c, 9, 70, 110
9, 4555, Note_off_c, 9, 70, 64
9, 4560, Note_on_c, 9, 82, 110
9, 4595, Note_off_c, 9, 82, 64
9, 4640, Note_on_c, 9, 70, 110
9, 4675, Note_off_c, 9, 70, 64
9, 4680, Note_on_c, 9, 82, 92
9, 4715, Note_off_c, 9, 82, 64
9, 4760, Note_on_c, 9, 70, 94
9, 4795, Note_off_c, 9, 70, 64
9, 4800, Note_on_c, 9, 82, 110
9, 4835, Note_off_c, 9, 82, 64
9, 4880, Note_on_c, 9, 70, 110
9, 4915, Note_off_c, 9, 70, 64
9, 4920, Note_on_c, 9, 82, 110
9, 4955, Note_off_c, 9, 82, 64
9, 5000, Note_on_c, 9, 70, 110
9, 5035, Note_off_c, 9, 70, 64
9, 5040, Note_on_c, 9, 82, 110
9, 5075, Note_off_c, 9, 82, 64
9, 5120, Note_on_c, 9, 70, 110
9, 5155, Note_off_c, 9, 70, 64
9, 5160, Note_on_c, 9, 82, 92
9, 5195, Note_off_c, 9, 82, 64
9, 5240, Note_on_c, 9, 38, 126
9, 5240, Note_on_c, 9, 70, 94
9, 5275, Note_off_c, 9, 38, 64
9, 5275, Note_off_c, 9, 70, 64
9, 5280, Note_on_c, 9, 38, 126
9, 5280, Note_on_c, 9, 82, 110
9, 5315, Note_off_c, 9, 38, 64
9, 5315, Note_off_c, 9, 82, 64
9, 5357, Note_on_c, 9, 38, 126
9, 5360, Note_on_c, 9, 70, 110
9, 5392, Note_off_c, 9, 38, 64
9, 5395, Note_off_c, 9, 70, 64
9, 5400, Note_on_c, 9, 38, 126
9, 5400, Note_on_c, 9, 82, 110
9, 5435, Note_off_c, 9, 38, 64
9, 5435, Note_off_c, 9, 82, 64
9, 5480, Note_on_c, 9, 70, 110
9, 5515, Note_off_c, 9, 70, 64
9, 5520, Note_on_c, 9, 45, 126
9, 5520, Note_on_c, 9, 82, 110
9, 5555, Note_off_c, 9, 45, 64
9, 5555, Note_off_c, 9, 82, 64
9, 5597, Note_on_c, 9, 38, 126
9, 5600, Note_on_c, 9, 70, 110
9, 5632, Note_off_c, 9, 38, 64
9, 5635, Note_off_c, 9, 70, 64
9, 5640, Note_on_c, 9, 38, 126
9, 5640, Note_on_c, 9, 82, 92
9, 5675, Note_off_c, 9, 38, 64
9, 5675, Note_off_c, 9, 82, 64
9, 5720, Note_on_c, 9, 70, 94
9, 5755, Note_off_c, 9, 70, 64
9, 5760, Note_on_c, 9, 44, 126
9, 5760, Note_on_c, 9, 82, 110
9, 5795, Note_off_c, 9, 82, 64
9, 5840, Note_on_c, 9, 70, 110
9, 5875, Note_off_c, 9, 70, 64
9, 5878, Note_off_c, 9, 44, 64
9, 5880, Note_on_c, 9, 44, 126
9, 5880, Note_on_c, 9, 82, 110
9, 5915, Note_off_c, 9, 82, 64
9, 5960, Note_on_c, 9, 70, 110
9, 5995, Note_off_c, 9, 70, 64
9, 5998, Note_off_c, 9, 44, 64
9, 6000, Note_on_c, 9, 46, 126
9, 6000, Note_on_c, 9, 38, 126
9, 6000, Note_on_c, 9, 82, 110
9, 6035, Note_off_c, 9, 82, 64
9, 6080, Note_on_c, 9, 70, 110
9, 6115, Note_off_c, 9, 70, 64
9, 6118, Note_off_c, 9, 46, 64
9, 6120, Note_on_c, 9, 82, 92
9, 6155, Note_off_c, 9, 82, 64
9, 6200, Note_on_c, 9, 70, 94
9, 6235, Note_off_c, 9, 70, 64
9, 6238, Note_off_c, 9, 38, 64
9, 6240, Note_on_c, 9, 44, 126
9, 6240, Note_on_c, 9, 82, 110
9, 6275, Note_off_c, 9, 82, 64
9, 6320, Note_on_c, 9, 70, 110
9, 6355, Note_off_c, 9, 70, 64
9, 6358, Note_off_c, 9, 44, 64
9, 6360, Note_on_c, 9, 44, 126
9, 6360, Note_on_c, 9, 82, 110
9, 6395, Note_off_c, 9, 82, 64
9, 6440, Note_on_c, 9, 70, 110
9, 6475, Note_off_c, 9, 70, 64
9, 6478, Note_off_c, 9, 44, 64
9, 6480, Note_on_c, 9, 46, 126
9, 6480, Note_on_c, 9, 38, 126
9, 6480, Note_on_c, 9, 82, 110
9, 6515, Note_off_c, 9, 82, 64
9, 6560, Note_on_c, 9, 70, 110
9, 6595, Note_off_c, 9, 70, 64
9, 6598, Note_off_c, 9, 46, 64
9, 6600, Note_on_c, 9, 82, 92
9, 6635, Note_off_c, 9, 82, 64
9, 6680, Note_on_c, 9, 70, 94
9, 6715, Note_off_c, 9, 70, 64
9, 6718, Note_off_c, 9, 38, 64
9, 6720, Note_on_c, 9, 44, 126
9, 6720, Note_on_c, 9, 82, 110
9, 6755, Note_off_c, 9, 82, 64
9, 6800, Note_on_c, 9, 70, 110
9, 6835, Note_off_c, 9, 70, 64
9, 6838, Note_off_c, 9, 44, 64
9, 6840, Note_on_c, 9, 44, 126
9, 6840, Note_on_c, 9, 82, 110
9, 6875, Note_off_c, 9, 82, 64
9, 6920, Note_on_c, 9, 70, 110
9, 6955, Note_off_c, 9, 70, 64
9, 6958, Note_off_c, 9, 44, 64
9, 6960, Note_on_c, 9, 46, 126
9, 6960, Note_on_c, 9, 38, 126
9, 6960, Note_on_c, 9, 82, 110
9, 6995, Note_off_c, 9, 82, 64
9, 7040, Note_on_c, 9, 70, 110
9, 7075, Note_off_c, 9, 70, 64
9, 7078, Note_off_c, 9, 46, 64
9, 7080, Note_on_c, 9, 82, 92
9, 7115, Note_off_c, 9, 82, 64
9, 7160, Note_on_c, 9, 70, 94
9, 7195, Note_off_c, 9, 70, 64
9, 7198, Note_off_c, 9, 38, 64
9, 7200, Note_on_c, 9, 44, 126
9, 7200, Note_on_c, 9, 82, 110
9, 7235, Note_off_c, 9, 82, 64
9, 7280, Note_on_c, 9, 70, 110
9, 7315, Note_off_c, 9, 70, 64
9, 7318, Note_off_c, 9, 44, 64
9, 7320, Note_on_c, 9, 44, 126
9, 7320, Note_on_c, 9, 82, 110
9, 7355, Note_off_c, 9, 82, 64
9, 7400, Note_on_c, 9, 70, 110
9, 7435, Note_off_c, 9, 70, 64
9, 7438, Note_off_c, 9, 44, 64
9, 7440, Note_on_c, 9, 46, 126
9, 7440, Note_on_c, 9, 38, 126
9, 7440, Note_on_c, 9, 82, 110
9, 7475, Note_off_c, 9, 82, 64
9, 7520, Note_on_c, 9, 70, 110
9, 7555, Note_off_c, 9, 70, 64
9, 7558, Note_off_c, 9, 46, 64
9, 7560, Note_on_c, 9, 82, 92
9, 7595, Note_off_c, 9, 82, 64
9, 7640, Note_on_c, 9, 70, 94
9, 7675, Note_off_c, 9, 70, 64
9, 7678, Note_off_c, 9, 38, 64
9, 7680, Note_on_c, 9, 44, 126
9, 7680, Note_on_c, 9, 82, 110
9, 7715, Note_off_c, 9, 82, 64
9, 7760, Note_on_c, 9, 70, 110
9, 7795, Note_off_c, 9, 70, 64
9, 7798, Note_off_c, 9, 44, 64
9, 7800, Note_on_c, 9, 44, 126
9, 7800, Note_on_c, 9, 82, 110
9, 7835, Note_off_c, 9, 82, 64
9, 7880, Note_on_c, 9, 70, 110
9, 7915, Note_off_c, 9, 70, 64
9, 7918, Note_off_c, 9, 44, 64
9, 7920, Note_on_c, 9, 46, 126
9, 7920, Note_on_c, 9, 38, 126
9, 7920, Note_on_c, 9, 82, 110
9, 7955, Note_off_c, 9, 82, 64
9, 8000, Note_on_c, 9, 70, 110
9, 8035, Note_off_c, 9, 70, 64
9, 8038, Note_off_c, 9, 46, 64
9, 8040, Note_on_c, 9, 82, 92
9, 8075, Note_off_c, 9, 82, 64
9, 8120, Note_on_c, 9, 70, 94
9, 8155, Note_off_c, 9, 70, 64
9, 8158, Note_off_c, 9, 38, 64
9, 8160, Note_on_c, 9, 44, 126
9, 8160, Note_on_c, 9, 82, 110
9, 8195, Note_off_c, 9, 82, 64
9, 8240, Note_on_c, 9, 70, 110
9, 8275, Note_off_c, 9, 70, 64
9, 8278, Note_off_c, 9, 44, 64
9, 8280, Note_on_c, 9, 44, 126
9, 8280, Note_on_c, 9, 82, 110
9, 8315, Note_off_c, 9, 82, 64
9, 8360, Note_on_c, 9, 70, 110
9, 8395, Note_off_c, 9, 70, 64
9, 8398, Note_off_c, 9, 44, 64
9, 8400, Note_on_c, 9, 46, 126
9, 8400, Note_on_c, 9, 38, 126
9, 8400, Note_on_c, 9, 82, 110
9, 8435, Note_off_c, 9, 82, 64
9, 8480, Note_on_c, 9, 70, 110
9, 8515, Note_off_c, 9, 70, 64
9, 8518, Note_off_c, 9, 46, 64
9, 8520, Note_on_c, 9, 82, 92
9, 8555, Note_off_c, 9, 82, 64
9, 8600, Note_on_c, 9, 70, 94
9, 8635, Note_off_c, 9, 70, 64
9, 8638, Note_off_c, 9, 38, 64
9, 8640, Note_on_c, 9, 44, 126
9, 8640, Note_on_c, 9, 82, 110
9, 8675, Note_off_c, 9, 82, 64
9, 8720, Note_on_c, 9, 70, 110
9, 8755, Note_off_c, 9, 70, 64
9, 8758, Note_off_c, 9, 44, 64
9, 8760, Note_on_c, 9, 44, 126
9, 8760, Note_on_c, 9, 82, 110
9, 8795, Note_off_c, 9, 82, 64
9, 8840, Note_on_c, 9, 70, 110
9, 8875, Note_off_c, 9, 70, 64
9, 8878, Note_off_c, 9, 44, 64
9, 8880, Note_on_c, 9, 46, 126
9, 8880, Note_on_c, 9, 38, 126
9, 8880, Note_on_c, 9, 82, 110
9, 8915, Note_off_c, 9, 82, 64
9, 8960, Note_on_c, 9, 70, 110
9, 8995, Note_off_c, 9, 70, 64
9, 8998, Note_off_c, 9, 46, 64
9, 9000, Note_on_c, 9, 82, 92
9, 9035, Note_off_c, 9, 82, 64
9, 9080, Note_on_c, 9, 70, 94
9, 9115, Note_off_c, 9, 70, 64
9, 9118, Note_off_c, 9, 38, 64
9, 9120, Note_on_c, 9, 44, 126
9, 9120, Note_on_c, 9, 82, 110
9, 9155, Note_off_c, 9, 82, 64
9, 9200, Note_on_c, 9, 70, 110
9, 9235, Note_off_c, 9, 70, 64
9, 9238, Note_off_c, 9, 44, 64
9, 9240, Note_on_c, 9, 44, 126
9, 9240, Note_on_c, 9, 82, 110
9, 9275, Note_off_c, 9, 82, 64
9, 9320, Note_on_c, 9, 70, 110
9, 9355, Note_off_c, 9, 70, 64
9, 9358, Note_off_c, 9, 44, 64
9, 9360, Note_on_c, 9, 46, 126
9, 9360, Note_on_c, 9, 38, 126
9, 9360, Note_on_c, 9, 82, 110
9, 9395, Note_off_c, 9, 82, 64
9, 9440, Note_on_c, 9, 70, 110
9, 9475, Note_off_c, 9, 70, 64
9, 9478, Note_off_c, 9, 46, 64
9, 9480, Note_on_c, 9, 82, 92
9, 9515, Note_off_c, 9, 82, 64
9, 9560, Note_on_c, 9, 70, 94
9, 9595, Note_off_c, 9, 70, 64
9, 9598, Note_off_c, 9, 38, 64
9, 9600, Note_on_c, 9, 44, 126
9, 9600, Note_on_c, 9, 82, 110
9, 9635, Note_off_c, 9, 82, 64
9, 9680, Note_on_c, 9, 70, 110
9, 9715, Note_off_c, 9, 70, 64
9, 9718, Note_off_c, 9, 44, 64
9, 9720, Note_on_c, 9, 44, 126
9, 9720, Note_on_c, 9, 82, 110
9, 9755, Note_off_c, 9, 82, 64
9, 9800, Note_on_c, 9, 70, 110
9, 9835, Note_off_c, 9, 70, 64
9, 9838, Note_off_c, 9, 44, 64
9, 9840, Note_on_c, 9, 46, 126
9, 9840, Note_on_c, 9, 38, 126
9, 9840, Note_on_c, 9, 82, 110
9, 9875, Note_off_c, 9, 82, 64
9, 9920, Note_on_c, 9, 70, 110
9, 9955, Note_off_c, 9, 70, 64
9, 9958, Note_off_c, 9, 46, 64
9, 9960, Note_on_c, 9, 82, 92
9, 9995, Note_off_c, 9, 82, 64
9, 10040, Note_on_c, 9, 70, 94
9, 10075, Note_off_c, 9, 70, 64
9, 10078, Note_off_c, 9, 38, 64
9, 10080, Note_on_c, 9, 44, 126
9, 10080, Note_on_c, 9, 82, 110
9, 10115, Note_off_c, 9, 82, 64
9, 10160, Note_on_c, 9, 70, 110
9, 10195, Note_off_c, 9, 70, 64
9, 10198, Note_off_c, 9, 44, 64
9, 10200, Note_on_c, 9, 44, 126
9, 10200, Note_on_c, 9, 82, 110
9, 10235, Note_off_c, 9, 82, 64
9, 10280, Note_on_c, 9, 70, 110
9, 10315, Note_off_c, 9, 70, 64
9, 10318, Note_off_c, 9, 44, 64
9, 10320, Note_on_c, 9, 46, 126
9, 10320, Note_on_c, 9, 38, 126
9, 10320, Note_on_c, 9, 82, 110
9, 10355, Note_off_c, 9, 82, 64
9, 10400, Note_on_c, 9, 70, 110
9, 10435, Note_off_c, 9, 70, 64
9, 10438, Note_off_c, 9, 46, 64
9, 10440, Note_on_c, 9, 82, 92
9, 10475, Note_off_c, 9, 82, 64
9, 10520, Note_on_c, 9, 70, 94
9, 10555, Note_off_c, 9, 70, 64
9, 10558, Note_off_c, 9, 38, 64
9, 10560, Note_on_c, 9, 44, 126
9, 10560, Note_on_c, 9, 38, 126
9, 10560, Note_on_c, 9, 82, 110
9, 10595, Note_off_c, 9, 82, 64
9, 10640, Note_on_c, 9, 70, 110
9, 10675, Note_off_c, 9, 70, 64
9, 10678, Note_off_c, 9, 44, 64
9, 10680, Note_on_c, 9, 44, 126
9, 10680, Note_on_c, 9, 82, 110
9, 10715, Note_off_c, 9, 82, 64
9, 10760, Note_on_c, 9, 70, 110
9, 10795, Note_off_c, 9, 70, 64
9, 10798, Note_off_c, 9, 38, 64
9, 10798, Note_off_c, 9, 44, 64
9, 10800, Note_on_c, 9, 46, 126
9, 10800, Note_on_c, 9, 38, 126
9, 10800, Note_on_c, 9, 82, 110
9, 10835, Note_off_c, 9, 82, 64
9, 10880, Note_on_c, 9, 70, 110
9, 10915, Note_off_c, 9, 70, 64
9, 10918, Note_off_c, 9, 46, 64
9, 10920, Note_on_c, 9, 82, 92
9, 10955, Note_off_c, 9, 82, 64
9, 11000, Note_on_c, 9, 70, 94
9, 11035, Note_off_c, 9, 70, 64
9, 11038, Note_off_c, 9, 38, 64
9, 11040, Note_on_c, 9, 44, 126
9, 11040, Note_on_c, 9, 38, 126
9, 11040, Note_on_c, 9, 82, 110
9, 11075, Note_off_c, 9, 82, 64
9, 11120, Note_on_c, 9, 70, 110
9, 11155, Note_off_c, 9, 70, 64
9, 11158, Note_off_c, 9, 44, 64
9, 11160, Note_on_c, 9, 44, 126
9, 11160, Note_on_c, 9, 82, 110
9, 11195, Note_off_c, 9, 82, 64
9, 11240, Note_on_c, 9, 70, 110
9, 11275, Note_off_c, 9, 70, 64
9, 11278, Note_off_c, 9, 38, 64
9, 11278, Note_off_c, 9, 44, 64
9, 11280, Note_on_c, 9, 46, 126
9, 11280, Note_on_c, 9, 38, 126
9, 11280, Note_on_c, 9, 82, 110
9, 11315, Note_off_c, 9, 82, 64
9, 11360, Note_on_c, 9, 70, 110
9, 11395, Note_off_c, 9, 70, 64
9, 11398, Note_off_c, 9, 46, 64
9, 11400, Note_on_c, 9, 82, 92
9, 11435, Note_off_c, 9, 82, 64
9, 11480, Note_on_c, 9, 70, 94
9, 11515, Note_off_c, 9, 70, 64
9, 11518, Note_off_c, 9, 38, 64
9, 11520, Note_on_c, 9, 44, 126
9, 11520, Note_on_c, 9, 38, 126
9, 11520, Note_on_c, 9, 82, 110
9, 11555, Note_off_c, 9, 82, 64
9, 11600, Note_on_c, 9, 70, 110
9, 11635, Note_off_c, 9, 70, 64
9, 11638, Note_off_c, 9, 44, 64
9, 11640, Note_on_c, 9, 44, 126
9, 11640, Note_on_c, 9, 82, 110
9, 11675, Note_off_c, 9, 82, 64
9, 11720, Note_on_c, 9, 70, 110
9, 11755, Note_off_c, 9, 70, 64
9, 11758, Note_off_c, 9, 38, 64
9, 11758, Note_off_c, 9, 44, 64
9, 11760, Note_on_c, 9, 46, 126
9, 11760, Note_on_c, 9, 38, 126
9, 11760, Note_on_c, 9, 82, 110
9, 11795, Note_off_c, 9, 82, 64
9, 11840, Note_on_c, 9, 70, 110
9, 11875, Note_off_c, 9, 70, 64
9, 11878, Note_off_c, 9, 46, 64
9, 11880, Note_on_c, 9, 82, 92
9, 11915, Note_off_c, 9, 82, 64
9, 11960, Note_on_c, 9, 70, 94
9, 11995, Note_off_c, 9, 70, 64
9, 11998, Note_off_c, 9, 38, 64
9, 12000, Note_on_c, 9, 44, 126
9, 12000, Note_on_c, 9, 38, 126
9, 12000, Note_on_c, 9, 82, 110
9, 12035, Note_off_c, 9, 82, 64
9, 12080, Note_on_c, 9, 70, 110
9, 12115, Note_off_c, 9, 70, 64
9, 12118, Note_off_c, 9, 44, 64
9, 12120, Note_on_c, 9, 44, 126
9, 12120, Note_on_c, 9, 82, 110
9, 12155, Note_off_c, 9, 82, 64
9, 12200, Note_on_c, 9, 70, 110
9, 12235, Note_off_c, 9, 70, 64
9, 12238, Note_off_c, 9, 38, 64
9, 12238, Note_off_c, 9, 44, 64
9, 12240, Note_on_c, 9, 46, 126
9, 12240, Note_on_c, 9, 38, 126
9, 12240, Note_on_c, 9, 82, 110
9, 12275, Note_off_c, 9, 82, 64
9, 12320, Note_on_c, 9, 70, 110
9, 12355, Note_off_c, 9, 70, 64
9, 12358, Note_off_c, 9, 46, 64
9, 12360, Note_on_c, 9, 82, 92
9, 12395, Note_off_c, 9, 82, 64
9, 12440, Note_on_c, 9, 70, 94
9, 12475, Note_off_c, 9, 70, 64
9, 12478, Note_off_c, 9, 38, 64
9, 12840, Note_on_c, 9, 46, 92
9, 12958, Note_off_c, 9, 46, 64
9, 12960, Note_on_c, 9, 46, 109
9, 13078, Note_off_c, 9, 46, 64
9, 13080, Note_on_c, 9, 46, 125
9, 13198, Note_off_c, 9, 46, 64
9, 13200, Note_on_c, 9, 38, 126
9, 13235, Note_off_c, 9, 38, 64
9, 13277, Note_on_c, 9, 38, 126
9, 13312, Note_off_c, 9, 38, 64
9, 13320, Note_on_c, 9, 38, 126
9, 13355, Note_off_c, 9, 38, 64
9, 13440, Note_on_c, 9, 44, 126
9, 13440, Note_on_c, 9, 57, 110
9, 13440, Note_on_c, 9, 82, 110
9, 13475, Note_off_c, 9, 82, 64
9, 13520, Note_on_c, 9, 70, 110
9, 13555, Note_off_c, 9, 70, 64
9, 13558, Note_off_c, 9, 44, 64
9, 13560, Note_on_c, 9, 44, 126
9, 13560, Note_on_c, 9, 82, 110
9, 13595, Note_off_c, 9, 82, 64
9, 13640, Note_on_c, 9, 70, 110
9, 13675, Note_off_c, 9, 70, 64
9, 13678, Note_off_c, 9, 44, 64
9, 13680, Note_on_c, 9, 46, 126
9, 13680, Note_on_c, 9, 38, 126
9, 13680, Note_on_c, 9, 82, 110
9, 13715, Note_off_c, 9, 82, 64
9, 13760, Note_on_c, 9, 70, 110
9, 13795, Note_off_c, 9, 70, 64
9, 13798, Note_off_c, 9, 46, 64
9, 13800, Note_on_c, 9, 82, 92
9, 13835, Note_off_c, 9, 82, 64
9, 13880, Note_on_c, 9, 70, 94
9, 13915, Note_off_c, 9, 70, 64
9, 13918, Note_off_c, 9, 38, 64
9, 13920, Note_on_c, 9, 44, 126
9, 13920, Note_on_c, 9, 82, 110
9, 13955, Note_off_c, 9, 82, 64
9, 14000, Note_on_c, 9, 70, 110
9, 14035, Note_off_c, 9, 70, 64
9, 14038, Note_off_c, 9, 44, 64
9, 14040, Note_on_c, 9, 44, 126
9, 14040, Note_on_c, 9, 82, 110
9, 14075, Note_off_c, 9, 82, 64
9, 14120, Note_on_c, 9, 70, 110
9, 14155, Note_off_c, 9, 70, 64
9, 14158, Note_off_c, 9, 44, 64
9, 14160, Note_on_c, 9, 46, 126
9, 14160, Note_on_c, 9, 38, 126
9, 14160, Note_on_c, 9, 82, 110
9, 14195, Note_off_c, 9, 82, 64
9, 14240, Note_on_c, 9, 70, 110
9, 14275, Note_off_c, 9, 70, 64
9, 14278, Note_off_c, 9, 46, 64
9, 14280, Note_on_c, 9, 82, 92
9, 14315, Note_off_c, 9, 82, 64
9, 14360, Note_on_c, 9, 70, 94
9, 14384, Note_off_c, 9, 57, 64
9, 14395, Note_off_c, 9, 70, 64
9, 14398, Note_off_c, 9, 38, 64
9, 14400, Note_on_c, 9, 44, 126
9, 14400, Note_on_c, 9, 82, 110
9, 14435, Note_off_c, 9, 82, 64
9, 14480, Note_on_c, 9, 70, 110
9, 14515, Note_off_c, 9, 70, 64
9, 14518, Note_off_c, 9, 44, 64
9, 14520, Note_on_c, 9, 44, 126
9, 14520, Note_on_c, 9, 82, 110
9, 14555, Note_off_c, 9, 82, 64
9, 14600, Note_on_c, 9, 70, 110
9, 14635, Note_off_c, 9, 70, 64
9, 14638, Note_off_c, 9, 44, 64
9, 14640, Note_on_c, 9, 46, 126
9, 14640, Note_on_c, 9, 38, 126
9, 14640, Note_on_c, 9, 82, 110
9, 14675, Note_off_c, 9, 82, 64
9, 14720, Note_on_c, 9, 70, 110
9, 14755, Note_off_c, 9, 70, 64
9, 14758, Note_off_c, 9, 46, 64
9, 14760, Note_on_c, 9, 82, 92
9, 14795, Note_off_c, 9, 82, 64
9, 14840, Note_on_c, 9, 70, 94
9, 14875, Note_off_c, 9, 70, 64
9, 14878, Note_off_c, 9, 38, 64
9, 14880, Note_on_c, 9, 44, 126
9, 14880, Note_on_c, 9, 82, 110
9, 14915, Note_off_c, 9, 82, 64
9, 14960, Note_on_c, 9, 70, 110
9, 14995, Note_off_c, 9, 70, 64
9, 14998, Note_off_c, 9, 44, 64
9, 15000, Note_on_c, 9, 44, 126
9, 15000, Note_on_c, 9, 82, 110
9, 15035, Note_off_c, 9, 82, 64
9, 15080, Note_on_c, 9, 70, 110
9, 15115, Note_off_c, 9, 70, 64
9, 15118, Note_off_c, 9, 44, 64
9, 15120, Note_on_c, 9, 46, 126
9, 15120, Note_on_c, 9, 38, 126
9, 15120, Note_on_c, 9, 82, 110
9, 15155, Note_off_c, 9, 82, 64
9, 15200, Note_on_c, 9, 70, 110
9, 15235, Note_off_c, 9, 70, 64
9, 15238, Note_off_c, 9, 46, 64
9, 15240, Note_on_c, 9, 82, 92
9, 15275, Note_off_c, 9, 82, 64
9, 15320, Note_on_c, 9, 70, 94
9, 15355, Note_off_c, 9, 70, 64
9, 15358, Note_off_c, 9, 38, 64
9, 15360, Note_on_c, 9, 44, 126
9, 15360, Note_on_c, 9, 82, 110
9, 15395, Note_off_c, 9, 82, 64
9, 15440, Note_on_c, 9, 70, 110
9, 15475, Note_off_c, 9, 70, 64
9, 15478, Note_off_c, 9, 44, 64
9, 15480, Note_on_c, 9, 44, 126
9, 15480, Note_on_c, 9, 82, 110
9, 15515, Note_off_c, 9, 82, 64
9, 15560, Note_on_c, 9, 70, 110
9, 15595, Note_off_c, 9, 70, 64
9, 15598, Note_off_c, 9, 44, 64
9, 15600, Note_on_c, 9, 46, 126
9, 15600, Note_on_c, 9, 38, 126
9, 15600, Note_on_c, 9, 82, 110
9, 15635, Note_off_c, 9, 82, 64
9, 15680, Note_on_c, 9, 70, 110
9, 15715, Note_off_c, 9, 70, 64
9, 15718, Note_off_c, 9, 46, 64
9, 15720, Note_on_c, 9, 82, 92
9, 15755, Note_off_c, 9, 82, 64
9, 15800, Note_on_c, 9, 70, 94
9, 15835, Note_off_c, 9, 70, 64
9, 15838, Note_off_c, 9, 38, 64
9, 15840, Note_on_c, 9, 44, 126
9, 15840, Note_on_c, 9, 82, 110
9, 15875, Note_off_c, 9, 82, 64
9, 15920, Note_on_c, 9, 70, 110
9, 15955, Note_off_c, 9, 70, 64
9, 15958, Note_off_c, 9, 44, 64
9, 15960, Note_on_c, 9, 44, 126
9, 15960, Note_on_c, 9, 82, 110
9, 15995, Note_off_c, 9, 82, 64
9, 16040, Note_on_c, 9, 70, 110
9, 16075, Note_off_c, 9, 70, 64
9, 16078, Note_off_c, 9, 44, 64
9, 16080, Note_on_c, 9, 46, 126
9, 16080, Note_on_c, 9, 38, 126
9, 16080, Note_on_c, 9, 82, 110
9, 16115, Note_off_c, 9, 82, 64
9, 16160, Note_on_c, 9, 70, 110
9, 16195, Note_off_c, 9, 70, 64
9, 16198, Note_off_c, 9, 46, 64
9, 16200, Note_on_c, 9, 82, 92
9, 16235, Note_off_c, 9, 82, 64
9, 16280, Note_on_c, 9, 70, 94
9, 16315, Note_off_c, 9, 70, 64
9, 16318, Note_off_c, 9, 38, 64
9, 16320, Note_on_c, 9, 44, 126
9, 16320, Note_on_c, 9, 82, 110
9, 16320, Note_on_c, 9, 38, 126
9, 16355, Note_off_c, 9, 82, 64
9, 16400, Note_on_c, 9, 70, 110
9, 16435, Note_off_c, 9, 70, 64
9, 16438, Note_off_c, 9, 44, 64
9, 16440, Note_on_c, 9, 44, 126
9, 16440, Note_on_c, 9, 82, 110
9, 16475, Note_off_c, 9, 82, 64
9, 16520, Note_on_c, 9, 70, 110
9, 16555, Note_off_c, 9, 70, 64
9, 16558, Note_off_c, 9, 38, 64
9, 16558, Note_off_c, 9, 44, 64
9, 16560, Note_on_c, 9, 46, 126
9, 16560, Note_on_c, 9, 38, 126
9, 16560, Note_on_c, 9, 82, 110
9, 16595, Note_off_c, 9, 82, 64
9, 16640, Note_on_c, 9, 70, 110
9, 16675, Note_off_c, 9, 70, 64
9, 16678, Note_off_c, 9, 46, 64
9, 16680, Note_on_c, 9, 82, 92
9, 16715, Note_off_c, 9, 82, 64
9, 16760, Note_on_c, 9, 70, 94
9, 16795, Note_off_c, 9, 70, 64
9, 16798, Note_off_c, 9, 38, 64
9, 16800, Note_on_c, 9, 44, 126
9, 16800, Note_on_c, 9, 82, 110
9, 16800, Note_on_c, 9, 38, 126
9, 16835, Note_off_c, 9, 82, 64
9, 16880, Note_on_c, 9, 70, 110
9, 16915, Note_off_c, 9, 70, 64
9, 16918, Note_off_c, 9, 44, 64
9, 16920, Note_on_c, 9, 44, 126
9, 16920, Note_on_c, 9, 82, 110
9, 16955, Note_off_c, 9, 82, 64
9, 17000, Note_on_c, 9, 70, 110
9, 17035, Note_off_c, 9, 70, 64
9, 17038, Note_off_c, 9, 38, 64
9, 17038, Note_off_c, 9, 44, 64
9, 17040, Note_on_c, 9, 46, 126
9, 17040, Note_on_c, 9, 38, 126
9, 17040, Note_on_c, 9, 82, 110
9, 17075, Note_off_c, 9, 82, 64
9, 17120, Note_on_c, 9, 70, 110
9, 17155, Note_off_c, 9, 70, 64
9, 17158, Note_off_c, 9, 46, 64
9, 17160, Note_on_c, 9, 82, 92
9, 17195, Note_off_c, 9, 82, 64
9, 17240, Note_on_c, 9, 70, 94
9, 17275, Note_off_c, 9, 70, 64
9, 17278, Note_off_c, 9, 38, 64
9, 17280, Note_on_c, 9, 44, 126
9, 17280, Note_on_c, 9, 38, 126
9, 17280, Note_on_c, 9, 82, 110
9, 17315, Note_off_c, 9, 82, 64
9, 17360, Note_on_c, 9, 70, 110
9, 17395, Note_off_c, 9, 70, 64
9, 17398, Note_off_c, 9, 44, 64
9, 17400, Note_on_c, 9, 44, 126
9, 17400, Note_on_c, 9, 82, 110
9, 17435, Note_off_c, 9, 82, 64
9, 17480, Note_on_c, 9, 70, 110
9, 17515, Note_off_c, 9, 70, 64
9, 17518, Note_off_c, 9, 38, 64
9, 17518, Note_off_c, 9, 44, 64
9, 17520, Note_on_c, 9, 46, 126
9, 17520, Note_on_c, 9, 38, 126
9, 17520, Note_on_c, 9, 82, 110
9, 17555, Note_off_c, 9, 82, 64
9, 17600, Note_on_c, 9, 70, 110
9, 17635, Note_off_c, 9, 70, 64
9, 17638, Note_off_c, 9, 46, 64
9, 17640, Note_on_c, 9, 82, 92
9, 17675, Note_off_c, 9, 82, 64
9, 17720, Note_on_c, 9, 70, 94
9, 17755, Note_off_c, 9, 70, 64
9, 17758, Note_off_c, 9, 38, 64
9, 17760, Note_on_c, 9, 44, 126
9, 17760, Note_on_c, 9, 38, 126
9, 17760, Note_on_c, 9, 82, 110
9, 17795, Note_off_c, 9, 82, 64
9, 17840, Note_on_c, 9, 70, 110
9, 17875, Note_off_c, 9, 70, 64
9, 17878, Note_off_c, 9, 44, 64
9, 17880, Note_on_c, 9, 44, 126
9, 17880, Note_on_c, 9, 82, 110
9, 17915, Note_off_c, 9, 82, 64
9, 17960, Note_on_c, 9, 70, 110
9, 17995, Note_off_c, 9, 70, 64
9, 17998, Note_off_c, 9, 38, 64
9, 17998, Note_off_c, 9, 44, 64
9, 18000, Note_on_c, 9, 46, 126
9, 18000, Note_on_c, 9, 38, 126
9, 18000, Note_on_c, 9, 82, 110
9, 18035, Note_off_c, 9, 82, 64
9, 18080, Note_on_c, 9, 70, 110
9, 18115, Note_off_c, 9, 70, 64
9, 18118, Note_off_c, 9, 46, 64
9, 18120, Note_on_c, 9, 82, 92
9, 18155, Note_off_c, 9, 82, 64
9, 18200, Note_on_c, 9, 70, 94
9, 18235, Note_off_c, 9, 70, 64
9, 18238, Note_off_c, 9, 38, 64
9, 18240, Note_on_c, 9, 44, 126
9, 18240, Note_on_c, 9, 82, 110
9, 18240, Note_on_c, 9, 38, 126
9, 18275, Note_off_c, 9, 82, 64
9, 18320, Note_on_c, 9, 70, 110
9, 18355, Note_off_c, 9, 70, 64
9, 18358, Note_off_c, 9, 44, 64
9, 18360, Note_on_c, 9, 44, 126
9, 18360, Note_on_c, 9, 82, 110
9, 18395, Note_off_c, 9, 82, 64
9, 18440, Note_on_c, 9, 70, 110
9, 18475, Note_off_c, 9, 70, 64
9, 18478, Note_off_c, 9, 38, 64
9, 18478, Note_off_c, 9, 44, 64
9, 18480, Note_on_c, 9, 46, 126
9, 18480, Note_on_c, 9, 38, 126
9, 18480, Note_on_c, 9, 82, 110
9, 18515, Note_off_c, 9, 82, 64
9, 18560, Note_on_c, 9, 70, 110
9, 18595, Note_off_c, 9, 70, 64
9, 18598, Note_off_c, 9, 46, 64
9, 18600, Note_on_c, 9, 82, 92
9, 18635, Note_off_c, 9, 82, 64
9, 18680, Note_on_c, 9, 70, 94
9, 18715, Note_off_c, 9, 70, 64
9, 18718, Note_off_c, 9, 38, 64
9, 18720, Note_on_c, 9, 44, 126
9, 18720, Note_on_c, 9, 82, 110
9, 18720, Note_on_c, 9, 38, 126
9, 18755, Note_off_c, 9, 82, 64
9, 18800, Note_on_c, 9, 70, 110
9, 18835, Note_off_c, 9, 70, 64
9, 18838, Note_off_c, 9, 44, 64
9, 18840, Note_on_c, 9, 44, 126
9, 18840, Note_on_c, 9, 82, 110
9, 18875, Note_off_c, 9, 82, 64
9, 18920, Note_on_c, 9, 70, 110
9, 18955, Note_off_c, 9, 70, 64
9, 18958, Note_off_c, 9, 38, 64
9, 18958, Note_off_c, 9, 44, 64
9, 18960, Note_on_c, 9, 46, 126
9, 18960, Note_on_c, 9, 38, 126
9, 18960, Note_on_c, 9, 82, 110
9, 18995, Note_off_c, 9, 82, 64
9, 19040, Note_on_c, 9, 70, 110
9, 19075, Note_off_c, 9, 70, 64
9, 19078, Note_off_c, 9, 46, 64
9, 19080, Note_on_c, 9, 82, 92
9, 19115, Note_off_c, 9, 82, 64
9, 19160, Note_on_c, 9, 70, 94
9, 19195, Note_off_c, 9, 70, 64
9, 19198, Note_off_c, 9, 38, 64
9, 19200, Note_on_c, 9, 44, 126
9, 19200, Note_on_c, 9, 82, 110
9, 19235, Note_off_c, 9, 82, 64
9, 19280, Note_on_c, 9, 70, 110
9, 19315, Note_off_c, 9, 70, 64
9, 19318, Note_off_c, 9, 44, 64
9, 19320, Note_on_c, 9, 44, 126
9, 19320, Note_on_c, 9, 82, 110
9, 19355, Note_off_c, 9, 82, 64
9, 19400, Note_on_c, 9, 70, 110
9, 19435, Note_off_c, 9, 70, 64
9, 19438, Note_off_c, 9, 44, 64
9, 19440, Note_on_c, 9, 46, 126
9, 19440, Note_on_c, 9, 38, 126
9, 19440, Note_on_c, 9, 82, 110
9, 19475, Note_off_c, 9, 82, 64
9, 19520, Note_on_c, 9, 70, 110
9, 19555, Note_off_c, 9, 70, 64
9, 19558, Note_off_c, 9, 46, 64
9, 19560, Note_on_c, 9, 82, 92
9, 19595, Note_off_c, 9, 82, 64
9, 19640, Note_on_c, 9, 70, 94
9, 19675, Note_off_c, 9, 70, 64
9, 19678, Note_off_c, 9, 38, 64
9, 19680, Note_on_c, 9, 44, 126
9, 19680, Note_on_c, 9, 82, 110
9, 19715, Note_off_c, 9, 82, 64
9, 19760, Note_on_c, 9, 70, 110
9, 19795, Note_off_c, 9, 70, 64
9, 19798, Note_off_c, 9, 44, 64
9, 19800, Note_on_c, 9, 44, 126
9, 19800, Note_on_c, 9, 82, 110
9, 19835, Note_off_c, 9, 82, 64
9, 19880, Note_on_c, 9, 70, 110
9, 19915, Note_off_c, 9, 70, 64
9, 19918, Note_off_c, 9, 44, 64
9, 19920, Note_on_c, 9, 46, 126
9, 19920, Note_on_c, 9, 38, 126
9, 19920, Note_on_c, 9, 82, 110
9, 19955, Note_off_c, 9, 82, 64
9, 20000, Note_on_c, 9, 70, 110
9, 20035, Note_off_c, 9, 70, 64
9, 20038, Note_off_c, 9, 46, 64
9, 20040, Note_on_c, 9, 82, 92
9, 20075, Note_off_c, 9, 82, 64
9, 20120, Note_on_c, 9, 70, 94
9, 20155, Note_off_c, 9, 70, 64
9, 20158, Note_off_c, 9, 38, 64
9, 20160, Note_on_c, 9, 44, 126
9, 20160, Note_on_c, 9, 82, 110
9, 20195, Note_off_c, 9, 82, 64
9, 20240, Note_on_c, 9, 70, 110
9, 20275, Note_off_c, 9, 70, 64
9, 20278, Note_off_c, 9, 44, 64
9, 20280, Note_on_c, 9, 44, 126
9, 20280, Note_on_c, 9, 82, 110
9, 20315, Note_off_c, 9, 82, 64
9, 20360, Note_on_c, 9, 70, 110
9, 20395, Note_off_c, 9, 70, 64
9, 20398, Note_off_c, 9, 44, 64
9, 20400, Note_on_c, 9, 46, 126
9, 20400, Note_on_c, 9, 38, 126
9, 20400, Note_on_c, 9, 82, 110
9, 20435, Note_off_c, 9, 82, 64
9, 20480, Note_on_c, 9, 70, 110
9, 20515, Note_off_c, 9, 70, 64
9, 20518, Note_off_c, 9, 46, 64
9, 20520, Note_on_c, 9, 82, 92
9, 20555, Note_off_c, 9, 82, 64
9, 20600, Note_on_c, 9, 70, 94
9, 20635, Note_off_c, 9, 70, 64
9, 20638, Note_off_c, 9, 38, 64
9, 20640, Note_on_c, 9, 44, 126
9, 20640, Note_on_c, 9, 82, 110
9, 20675, Note_off_c, 9, 82, 64
9, 20720, Note_on_c, 9, 70, 110
9, 20755, Note_off_c, 9, 70, 64
9, 20758, Note_off_c, 9, 44, 64
9, 20760, Note_on_c, 9, 44, 126
9, 20760, Note_on_c, 9, 82, 110
9, 20795, Note_off_c, 9, 82, 64
9, 20840, Note_on_c, 9, 70, 110
9, 20875, Note_off_c, 9, 70, 64
9, 20878, Note_off_c, 9, 44, 64
9, 20880, Note_on_c, 9, 46, 126
9, 20880, Note_on_c, 9, 38, 126
9, 20880, Note_on_c, 9, 82, 110
9, 20915, Note_off_c, 9, 82, 64
9, 20960, Note_on_c, 9, 70, 110
9, 20995, Note_off_c, 9, 70, 64
9, 20998, Note_off_c, 9, 46, 64
9, 21000, Note_on_c, 9, 82, 92
9, 21035, Note_off_c, 9, 82, 64
9, 21080, Note_on_c, 9, 70, 94
9, 21115, Note_off_c, 9, 70, 64
9, 21118, Note_off_c, 9, 38, 64
9, 21120, Note_on_c, 9, 44, 126
9, 21120, Note_on_c, 9, 82, 110
9, 21155, Note_off_c, 9, 82, 64
9, 21200, Note_on_c, 9, 70, 110
9, 21235, Note_off_c, 9, 70, 64
9, 21238, Note_off_c, 9, 44, 64
9, 21240, Note_on_c, 9, 44, 126
9, 21240, Note_on_c, 9, 82, 110
9, 21275, Note_off_c, 9, 82, 64
9, 21320, Note_on_c, 9, 70, 110
9, 21355, Note_off_c, 9, 70, 64
9, 21358, Note_off_c, 9, 44, 64
9, 21360, Note_on_c, 9, 46, 126
9, 21360, Note_on_c, 9, 38, 126
9, 21360, Note_on_c, 9, 82, 110
9, 21395, Note_off_c, 9, 82, 64
9, 21440, Note_on_c, 9, 70, 110
9, 21475, Note_off_c, 9, 70, 64
9, 21478, Note_off_c, 9, 46, 64
9, 21480, Note_on_c, 9, 82, 92
9, 21515, Note_off_c, 9, 82, 64
9, 21560, Note_on_c, 9, 70, 94
9, 21595, Note_off_c, 9, 70, 64
9, 21598, Note_off_c, 9, 38, 64
9, 21600, Note_on_c, 9, 44, 126
9, 21600, Note_on_c, 9, 82, 110
9, 21635, Note_off_c, 9, 82, 64
9, 21680, Note_on_c, 9, 70, 110
9, 21715, Note_off_c, 9, 70, 64
9, 21718, Note_off_c, 9, 44, 64
9, 21720, Note_on_c, 9, 44, 126
9, 21720, Note_on_c, 9, 82, 110
9, 21755, Note_off_c, 9, 82, 64
9, 21800, Note_on_c, 9, 70, 110
9, 21835, Note_off_c, 9, 70, 64
9, 21838, Note_off_c, 9, 44, 64
9, 21840, Note_on_c, 9, 46, 126
9, 21840, Note_on_c, 9, 38, 126
9, 21840, Note_on_c, 9, 82, 110
9, 21875, Note_off_c, 9, 82, 64
9, 21920, Note_on_c, 9, 70, 110
9, 21955, Note_off_c, 9, 70, 64
9, 21958, Note_off_c, 9, 46, 64
9, 21960, Note_on_c, 9, 82, 92
9, 21995, Note_off_c, 9, 82, 64
9, 22040, Note_on_c, 9, 70, 94
9, 22075, Note_off_c, 9, 70, 64
9, 22078, Note_off_c, 9, 38, 64
9, 22080, Note_on_c, 9, 44, 126
9, 22080, Note_on_c, 9, 57, 110
9, 22080, Note_on_c, 9, 82, 110
9, 22115, Note_off_c, 9, 82, 64
9, 22160, Note_on_c, 9, 70, 110
9, 22195, Note_off_c, 9, 70, 64
9, 22198, Note_off_c, 9, 44, 64
9, 22200, Note_on_c, 9, 44, 126
9, 22200, Note_on_c, 9, 82, 110
9, 22235, Note_off_c, 9, 82, 64
9, 22280, Note_on_c, 9, 70, 110
9, 22315, Note_off_c, 9, 70, 64
9, 22318, Note_off_c, 9, 44, 64
9, 22320, Note_on_c, 9, 46, 126
9, 22320, Note_on_c, 9, 38, 126
9, 22320, Note_on_c, 9, 82, 110
9, 22355, Note_off_c, 9, 82, 64
9, 22400, Note_on_c, 9, 70, 110
9, 22435, Note_off_c, 9, 70, 64
9, 22438, Note_off_c, 9, 46, 64
9, 22440, Note_on_c, 9, 82, 92
9, 22475, Note_off_c, 9, 82, 64
9, 22520, Note_on_c, 9, 70, 94
9, 22555, Note_off_c, 9, 70, 64
9, 22558, Note_off_c, 9, 38, 64
9, 22560, Note_on_c, 9, 44, 126
9, 22560, Note_on_c, 9, 82, 110
9, 22595, Note_off_c, 9, 82, 64
9, 22640, Note_on_c, 9, 70, 110
9, 22675, Note_off_c, 9, 70, 64
9, 22678, Note_off_c, 9, 44, 64
9, 22680, Note_on_c, 9, 44, 126
9, 22680, Note_on_c, 9, 82, 110
9, 22715, Note_off_c, 9, 82, 64
9, 22760, Note_on_c, 9, 70, 110
9, 22795, Note_off_c, 9, 70, 64
9, 22798, Note_off_c, 9, 44, 64
9, 22800, Note_on_c, 9, 46, 126
9, 22800, Note_on_c, 9, 38, 126
9, 22800, Note_on_c, 9, 82, 110
9, 22835, Note_off_c, 9, 82, 64
9, 22880, Note_on_c, 9, 70, 110
9, 22915, Note_off_c, 9, 70, 64
9, 22918, Note_off_c, 9, 46, 64
9, 22920, Note_on_c, 9, 82, 92
9, 22943, Note_off_c, 9, 57, 64
9, 22955, Note_off_c, 9, 82, 64
9, 23000, Note_on_c, 9, 70, 94
9, 23035, Note_off_c, 9, 70, 64
9, 23038, Note_off_c, 9, 38, 64
9, 23040, Note_on_c, 9, 44, 126
9, 23040, Note_on_c, 9, 82, 110
9, 23075, Note_off_c, 9, 82, 64
9, 23120, Note_on_c, 9, 70, 110
9, 23155, Note_off_c, 9, 70, 64
9, 23158, Note_off_c, 9, 44, 64
9, 23160, Note_on_c, 9, 44, 126
9, 23160, Note_on_c, 9, 82, 110
9, 23195, Note_off_c, 9, 82, 64
9, 23240, Note_on_c, 9, 70, 110
9, 23275, Note_off_c, 9, 70, 64
9, 23278, Note_off_c, 9, 44, 64
9, 23280, Note_on_c, 9, 46, 126
9, 23280, Note_on_c, 9, 38, 126
9, 23280, Note_on_c, 9, 82, 110
9, 23315, Note_off_c, 9, 82, 64
9, 23360, Note_on_c, 9, 70, 110
9, 23395, Note_off_c, 9, 70, 64
9, 23398, Note_off_c, 9, 46, 64
9, 23400, Note_on_c, 9, 82, 92
9, 23435, Note_off_c, 9, 82, 64
9, 23480, Note_on_c, 9, 70, 94
9, 23515, Note_off_c, 9, 70, 64
9, 23518, Note_off_c, 9, 38, 64
9, 23520, Note_on_c, 9, 44, 126
9, 23520, Note_on_c, 9, 82, 110
9, 23555, Note_off_c, 9, 82, 64
9, 23600, Note_on_c, 9, 70, 110
9, 23635, Note_off_c, 9, 70, 64
9, 23638, Note_off_c, 9, 44, 64
9, 23640, Note_on_c, 9, 44, 126
9, 23640, Note_on_c, 9, 82, 110
9, 23675, Note_off_c, 9, 82, 64
9, 23720, Note_on_c, 9, 70, 110
9, 23755, Note_off_c, 9, 70, 64
9, 23758, Note_off_c, 9, 44, 64
9, 23760, Note_on_c, 9, 46, 126
9, 23760, Note_on_c, 9, 38, 126
9, 23760, Note_on_c, 9, 82, 110
9, 23795, Note_off_c, 9, 82, 64
9, 23840, Note_on_c, 9, 70, 110
9, 23875, Note_off_c, 9, 70, 64
9, 23878, Note_off_c, 9, 46, 64
9, 23880, Note_on_c, 9, 82, 92
9, 23915, Note_off_c, 9, 82, 64
9, 23960, Note_on_c, 9, 70, 94
9, 23995, Note_off_c, 9, 70, 64
9, 23998, Note_off_c, 9, 38, 64
9, 24000, Note_on_c, 9, 44, 126
9, 24000, Note_on_c, 9, 82, 110
9, 24035, Note_off_c, 9, 82, 64
9, 24080, Note_on_c, 9, 70, 110
9, 24115, Note_off_c, 9, 70, 64
9, 24118, Note_off_c, 9, 44, 64
9, 24120, Note_on_c, 9, 44, 126
9, 24120, Note_on_c, 9, 82, 110
9, 24155, Note_off_c, 9, 82, 64
9, 24200, Note_on_c, 9, 70, 110
9, 24235, Note_off_c, 9, 70, 64
9, 24238, Note_off_c, 9, 44, 64
9, 24240, Note_on_c, 9, 46, 126
9, 24240, Note_on_c, 9, 38, 126
9, 24240, Note_on_c, 9, 82, 110
9, 24275, Note_off_c, 9, 82, 64
9, 24320, Note_on_c, 9, 70, 110
9, 24355, Note_off_c, 9, 70, 64
9, 24358, Note_off_c, 9, 46, 64
9, 24360, Note_on_c, 9, 82, 92
9, 24395, Note_off_c, 9, 82, 64
9, 24440, Note_on_c, 9, 70, 94
9, 24475, Note_off_c, 9, 70, 64
9, 24478, Note_off_c, 9, 38, 64
9, 24480, Note_on_c, 9, 44, 126
9, 24480, Note_on_c, 9, 82, 110
9, 24515, Note_off_c, 9, 82, 64
9, 24560, Note_on_c, 9, 70, 110
9, 24595, Note_off_c, 9, 70, 64
9, 24598, Note_off_c, 9, 44, 64
9, 24600, Note_on_c, 9, 44, 126
9, 24600, Note_on_c, 9, 82, 110
9, 24635, Note_off_c, 9, 82, 64
9, 24680, Note_on_c, 9, 70, 110
9, 24715, Note_off_c, 9, 70, 64
9, 24718, Note_off_c, 9, 44, 64
9, 24720, Note_on_c, 9, 46, 126
9, 24720, Note_on_c, 9, 38, 126
9, 24720, Note_on_c, 9, 82, 110
9, 24755, Note_off_c, 9, 82, 64
9, 24800, Note_on_c, 9, 70, 110
9, 24835, Note_off_c, 9, 70, 64
9, 24838, Note_off_c, 9, 46, 64
9, 24840, Note_on_c, 9, 82, 92
9, 24875, Note_off_c, 9, 82, 64
9, 24920, Note_on_c, 9, 70, 94
9, 24955, Note_off_c, 9, 70, 64
9, 24958, Note_off_c, 9, 38, 64
9, 24960, Note_on_c, 9, 44, 126
9, 24960, Note_on_c, 9, 82, 110
9, 24995, Note_off_c, 9, 82, 64
9, 25040, Note_on_c, 9, 70, 110
9, 25075, Note_off_c, 9, 70, 64
9, 25078, Note_off_c, 9, 44, 64
9, 25080, Note_on_c, 9, 44, 126
9, 25080, Note_on_c, 9, 82, 110
9, 25115, Note_off_c, 9, 82, 64
9, 25160, Note_on_c, 9, 70, 110
9, 25195, Note_off_c, 9, 70, 64
9, 25198, Note_off_c, 9, 44, 64
9, 25200, Note_on_c, 9, 46, 126
9, 25200, Note_on_c, 9, 38, 126
9, 25200, Note_on_c, 9, 82, 110
9, 25235, Note_off_c, 9, 82, 64
9, 25280, Note_on_c, 9, 70, 110
9, 25315, Note_off_c, 9, 70, 64
9, 25318, Note_off_c, 9, 46, 64
9, 25320, Note_on_c, 9, 82, 92
9, 25355, Note_off_c, 9, 82, 64
9, 25400, Note_on_c, 9, 70, 94
9, 25435, Note_off_c, 9, 70, 64
9, 25438, Note_off_c, 9, 38, 64
9, 25440, Note_on_c, 9, 44, 126
9, 25440, Note_on_c, 9, 82, 110
9, 25475, Note_off_c, 9, 82, 64
9, 25520, Note_on_c, 9, 70, 110
9, 25555, Note_off_c, 9, 70, 64
9, 25558, Note_off_c, 9, 44, 64
9, 25560, Note_on_c, 9, 44, 126
9, 25560, Note_on_c, 9, 82, 110
9, 25595, Note_off_c, 9, 82, 64
9, 25640, Note_on_c, 9, 70, 110
9, 25675, Note_off_c, 9, 70, 64
9, 25678, Note_off_c, 9, 44, 64
9, 25680, Note_on_c, 9, 46, 126
9, 25680, Note_on_c, 9, 38, 126
9, 25680, Note_on_c, 9, 82, 110
9, 25715, Note_off_c, 9, 82, 64
9, 25760, Note_on_c, 9, 70, 110
9, 25795, Note_off_c, 9, 70, 64
9, 25798, Note_off_c, 9, 46, 64
9, 25800, Note_on_c, 9, 82, 92
9, 25835, Note_off_c, 9, 82, 64
9, 25880, Note_on_c, 9, 70, 94
9, 25915, Note_off_c, 9, 70, 64
9, 25918, Note_off_c, 9, 38, 64
9, 25920, Note_on_c, 9, 44, 126
9, 25920, Note_on_c, 9, 82, 110
9, 25955, Note_off_c, 9, 82, 64
9, 26000, Note_on_c, 9, 70, 110
9, 26035, Note_off_c, 9, 70, 64
9, 26038, Note_off_c, 9, 44, 64
9, 26040, Note_on_c, 9, 44, 126
9, 26040, Note_on_c, 9, 82, 110
9, 26075, Note_off_c, 9, 82, 64
9, 26120, Note_on_c, 9, 70, 110
9, 26155, Note_off_c, 9, 70, 64
9, 26158, Note_off_c, 9, 44, 64
9, 26160, Note_on_c, 9, 46, 126
9, 26160, Note_on_c, 9, 38, 126
9, 26160, Note_on_c, 9, 82, 110
9, 26195, Note_off_c, 9, 82, 64
9, 26240, Note_on_c, 9, 70, 110
9, 26275, Note_off_c, 9, 70, 64
9, 26278, Note_off_c, 9, 46, 64
9, 26280, Note_on_c, 9, 82, 92
9, 26315, Note_off_c, 9, 82, 64
9, 26360, Note_on_c, 9, 70, 94
9, 26395, Note_off_c, 9, 70, 64
9, 26398, Note_off_c, 9, 38, 64
9, 26400, Note_on_c, 9, 44, 126
9, 26400, Note_on_c, 9, 82, 110
9, 26435, Note_off_c, 9, 82, 64
9, 26480, Note_on_c, 9, 70, 110
9, 26515, Note_off_c, 9, 70, 64
9, 26518, Note_off_c, 9, 44, 64
9, 26520, Note_on_c, 9, 44, 126
9, 26520, Note_on_c, 9, 82, 110
9, 26555, Note_off_c, 9, 82, 64
9, 26600, Note_on_c, 9, 70, 110
9, 26635, Note_off_c, 9, 70, 64
9, 26638, Note_off_c, 9, 44, 64
9, 26640, Note_on_c, 9, 46, 126
9, 26640, Note_on_c, 9, 38, 126
9, 26640, Note_on_c, 9, 82, 110
9, 26675, Note_off_c, 9, 82, 64
9, 26720, Note_on_c, 9, 70, 110
9, 26755, Note_off_c, 9, 70, 64
9, 26758, Note_off_c, 9, 46, 64
9, 26760, Note_on_c, 9, 82, 92
9, 26795, Note_off_c, 9, 82, 64
9, 26840, Note_on_c, 9, 70, 94
9, 26875, Note_off_c, 9, 70, 64
9, 26878, Note_off_c, 9, 38, 64
9, 26880, Note_on_c, 9, 44, 126
9, 26880, Note_on_c, 9, 82, 110
9, 26915, Note_off_c, 9, 82, 64
9, 26960, Note_on_c, 9, 70, 110
9, 26995, Note_off_c, 9, 70, 64
9, 26998, Note_off_c, 9, 44, 64
9, 27000, Note_on_c, 9, 44, 126
9, 27000, Note_on_c, 9, 82, 110
9, 27035, Note_off_c, 9, 82, 64
9, 27080, Note_on_c, 9, 70, 110
9, 27115, Note_off_c, 9, 70, 64
9, 27118, Note_off_c, 9, 44, 64
9, 27120, Note_on_c, 9, 46, 126
9, 27120, Note_on_c, 9, 38, 126
9, 27120, Note_on_c, 9, 82, 110
9, 27155, Note_off_c, 9, 82, 64
9, 27200, Note_on_c, 9, 70, 110
9, 27235, Note_off_c, 9, 70, 64
9, 27238, Note_off_c, 9, 46, 64
9, 27240, Note_on_c, 9, 82, 92
9, 27275, Note_off_c, 9, 82, 64
9, 27320, Note_on_c, 9, 70, 94
9, 27355, Note_off_c, 9, 70, 64
9, 27358, Note_off_c, 9, 38, 64
9, 27360, Note_on_c, 9, 44, 126
9, 27360, Note_on_c, 9, 82, 110
9, 27395, Note_off_c, 9, 82, 64
9, 27440, Note_on_c, 9, 70, 110
9, 27475, Note_off_c, 9, 70, 64
9, 27478, Note_off_c, 9, 44, 64
9, 27480, Note_on_c, 9, 44, 126
9, 27480, Note_on_c, 9, 82, 110
9, 27515, Note_off_c, 9, 82, 64
9, 27560, Note_on_c, 9, 70, 110
9, 27595, Note_off_c, 9, 70, 64
9, 27598, Note_off_c, 9, 44, 64
9, 27600, Note_on_c, 9, 46, 126
9, 27600, Note_on_c, 9, 38, 126
9, 27600, Note_on_c, 9, 82, 110
9, 27635, Note_off_c, 9, 82, 64
9, 27680, Note_on_c, 9, 70, 110
9, 27715, Note_off_c, 9, 70, 64
9, 27718, Note_off_c, 9, 46, 64
9, 27720, Note_on_c, 9, 82, 92
9, 27755, Note_off_c, 9, 82, 64
9, 27800, Note_on_c, 9, 70, 94
9, 27835, Note_off_c, 9, 70, 64
9, 27838, Note_off_c, 9, 38, 64
9, 27840, Note_on_c, 9, 44, 126
9, 27840, Note_on_c, 9, 82, 110
9, 27875, Note_off_c, 9, 82, 64
9, 27920, Note_on_c, 9, 70, 110
9, 27955, Note_off_c, 9, 70, 64
9, 27958, Note_off_c, 9, 44, 64
9, 27960, Note_on_c, 9, 44, 126
9, 27960, Note_on_c, 9, 82, 110
9, 27995, Note_off_c, 9, 82, 64
9, 28040, Note_on_c, 9, 70, 110
9, 28075, Note_off_c, 9, 70, 64
9, 28078, Note_off_c, 9, 44, 64
9, 28080, Note_on_c, 9, 46, 126
9, 28080, Note_on_c, 9, 38, 126
9, 28080, Note_on_c, 9, 82, 110
9, 28115, Note_off_c, 9, 82, 64
9, 28160, Note_on_c, 9, 70, 110
9, 28195, Note_off_c, 9, 70, 64
9, 28198, Note_off_c, 9, 46, 64
9, 28200, Note_on_c, 9, 82, 92
9, 28235, Note_off_c, 9, 82, 64
9, 28280, Note_on_c, 9, 70, 94
9, 28315, Note_off_c, 9, 70, 64
9, 28318, Note_off_c, 9, 38, 64
9, 28320, Note_on_c, 9, 44, 126
9, 28320, Note_on_c, 9, 82, 110
9, 28355, Note_off_c, 9, 82, 64
9, 28400, Note_on_c, 9, 70, 110
9, 28435, Note_off_c, 9, 70, 64
9, 28438, Note_off_c, 9, 44, 64
9, 28440, Note_on_c, 9, 44, 126
9, 28440, Note_on_c, 9, 82, 110
9, 28475, Note_off_c, 9, 82, 64
9, 28520, Note_on_c, 9, 70, 110
9, 28555, Note_off_c, 9, 70, 64
9, 28558, Note_off_c, 9, 44, 64
9, 28560, Note_on_c, 9, 46, 126
9, 28560, Note_on_c, 9, 38, 126
9, 28560, Note_on_c, 9, 82, 110
9, 28595, Note_off_c, 9, 82, 64
9, 28640, Note_on_c, 9, 70, 110
9, 28675, Note_off_c, 9, 70, 64
9, 28678, Note_off_c, 9, 46, 64
9, 28680, Note_on_c, 9, 82, 92
9, 28715, Note_off_c, 9, 82, 64
9, 28760, Note_on_c, 9, 70, 94
9, 28795, Note_off_c, 9, 70, 64
9, 28798, Note_off_c, 9, 38, 64
9, 28800, Note_on_c, 9, 44, 126
9, 28800, Note_on_c, 9, 82, 110
9, 28835, Note_off_c, 9, 82, 64
9, 28880, Note_on_c, 9, 70, 110
9, 28915, Note_off_c, 9, 70, 64
9, 28918, Note_off_c, 9, 44, 64
9, 28920, Note_on_c, 9, 44, 126
9, 28920, Note_on_c, 9, 82, 110
9, 28955, Note_off_c, 9, 82, 64
9, 29000, Note_on_c, 9, 70, 110
9, 29035, Note_off_c, 9, 70, 64
9, 29038, Note_off_c, 9, 44, 64
9, 29040, Note_on_c, 9, 46, 126
9, 29040, Note_on_c, 9, 38, 126
9, 29040, Note_on_c, 9, 82, 110
9, 29075, Note_off_c, 9, 82, 64
9, 29120, Note_on_c, 9, 70, 110
9, 29155, Note_off_c, 9, 70, 64
9, 29158, Note_off_c, 9, 46, 64
9, 29160, Note_on_c, 9, 82, 92
9, 29195, Note_off_c, 9, 82, 64
9, 29240, Note_on_c, 9, 70, 94
9, 29275, Note_off_c, 9, 70, 64
9, 29278, Note_off_c, 9, 38, 64
9, 29280, Note_on_c, 9, 47, 126
9, 29315, Note_off_c, 9, 47, 64
9, 29357, Note_on_c, 9, 38, 126
9, 29392, Note_off_c, 9, 38, 64
9, 29400, Note_on_c, 9, 45, 126
9, 29435, Note_off_c, 9, 45, 64
9, 29477, Note_on_c, 9, 43, 126
9, 29512, Note_off_c, 9, 43, 64
9, 29520, Note_on_c, 9, 38, 126
9, 29555, Note_off_c, 9, 38, 64
9, 29597, Note_on_c, 9, 38, 126
9, 29632, Note_off_c, 9, 38, 64
9, 29640, Note_on_c, 9, 38, 126
9, 29675, Note_off_c, 9, 38, 64
9, 29760, Note_on_c, 9, 44, 126
9, 29760, Note_on_c, 9, 82, 110
9, 29795, Note_off_c, 9, 82, 64
9, 29840, Note_on_c, 9, 70, 110
9, 29875, Note_off_c, 9, 70, 64
9, 29878, Note_off_c, 9, 44, 64
9, 29880, Note_on_c, 9, 44, 126
9, 29880, Note_on_c, 9, 82, 110
9, 29915, Note_off_c, 9, 82, 64
9, 29960, Note_on_c, 9, 70, 110
9, 29995, Note_off_c, 9, 70, 64
9, 29998, Note_off_c, 9, 44, 64
9, 30000, Note_on_c, 9, 46, 126
9, 30000, Note_on_c, 9, 38, 126
9, 30000, Note_on_c, 9, 82, 110
9, 30035, Note_off_c, 9, 82, 64
9, 30080, Note_on_c, 9, 70, 110
9, 30115, Note_off_c, 9, 70, 64
9, 30118, Note_off_c, 9, 46, 64
9, 30120, Note_on_c, 9, 82, 92
9, 30155, Note_off_c, 9, 82, 64
9, 30200, Note_on_c, 9, 70, 94
9, 30235, Note_off_c, 9, 70, 64
9, 30238, Note_off_c, 9, 38, 64
9, 30240, Note_on_c, 9, 44, 126
9, 30240, Note_on_c, 9, 82, 110
9, 30275, Note_off_c, 9, 82, 64
9, 30320, Note_on_c, 9, 70, 110
9, 30355, Note_off_c, 9, 70, 64
9, 30358, Note_off_c, 9, 44, 64
9, 30360, Note_on_c, 9, 44, 126
9, 30360, Note_on_c, 9, 82, 110
9, 30395, Note_off_c, 9, 82, 64
9, 30440, Note_on_c, 9, 70, 110
9, 30475, Note_off_c, 9, 70, 64
9, 30478, Note_off_c, 9, 44, 64
9, 30480, Note_on_c, 9, 46, 126
9, 30480, Note_on_c, 9, 38, 126
9, 30480, Note_on_c, 9, 82, 110
9, 30515, Note_off_c, 9, 82, 64
9, 30560, Note_on_c, 9, 70, 110
9, 30595, Note_off_c, 9, 70, 64
9, 30598, Note_off_c, 9, 46, 64
9, 30600, Note_on_c, 9, 82, 92
9, 30635, Note_off_c, 9, 82, 64
9, 30680, Note_on_c, 9, 70, 94
9, 30715, Note_off_c, 9, 70, 64
9, 30718, Note_off_c, 9, 38, 64
9, 30720, Note_on_c, 9, 44, 126
9, 30720, Note_on_c, 9, 82, 110
9, 30755, Note_off_c, 9, 82, 64
9, 30800, Note_on_c, 9, 70, 110
9, 30835, Note_off_c, 9, 70, 64
9, 30838, Note_off_c, 9, 44, 64
9, 30840, Note_on_c, 9, 44, 126
9, 30840, Note_on_c, 9, 82, 110
9, 30875, Note_off_c, 9, 82, 64
9, 30920, Note_on_c, 9, 70, 110
9, 30955, Note_off_c, 9, 70, 64
9, 30958, Note_off_c, 9, 44, 64
9, 30960, Note_on_c, 9, 46, 126
9, 30960, Note_on_c, 9, 38, 126
9, 30960, Note_on_c, 9, 82, 110
9, 30995, Note_off_c, 9, 82, 64
9, 31040, Note_on_c, 9, 70, 110
9, 31075, Note_off_c, 9, 70, 64
9, 31078, Note_off_c, 9, 46, 64
9, 31080, Note_on_c, 9, 82, 92
9, 31115, Note_off_c, 9, 82, 64
9, 31160, Note_on_c, 9, 70, 94
9, 31195, Note_off_c, 9, 70, 64
9, 31198, Note_off_c, 9, 38, 64
9, 31200, Note_on_c, 9, 44, 126
9, 31200, Note_on_c, 9, 82, 110
9, 31235, Note_off_c, 9, 82, 64
9, 31280, Note_on_c, 9, 70, 110
9, 31315, Note_off_c, 9, 70, 64
9, 31318, Note_off_c, 9, 44, 64
9, 31320, Note_on_c, 9, 44, 126
9, 31320, Note_on_c, 9, 82, 110
9, 31355, Note_off_c, 9, 82, 64
9, 31400, Note_on_c, 9, 70, 110
9, 31435, Note_off_c, 9, 70, 64
9, 31438, Note_off_c, 9, 44, 64
9, 31440, Note_on_c, 9, 46, 126
9, 31440, Note_on_c, 9, 38, 126
9, 31440, Note_on_c, 9, 82, 110
9, 31475, Note_off_c, 9, 82, 64
9, 31520, Note_on_c, 9, 70, 110
9, 31555, Note_off_c, 9, 70, 64
9, 31558, Note_off_c, 9, 46, 64
9, 31560, Note_on_c, 9, 82, 92
9, 31595, Note_off_c, 9, 82, 64
9, 31640, Note_on_c, 9, 70, 94
9, 31675, Note_off_c, 9, 70, 64
9, 31678, Note_off_c, 9, 38, 64
9, 31680, Note_on_c, 9, 44, 126
9, 31680, Note_on_c, 9, 82, 110
9, 31715, Note_off_c, 9, 82, 64
9, 31760, Note_on_c, 9, 70, 110
9, 31795, Note_off_c, 9, 70, 64
9, 31798, Note_off_c, 9, 44, 64
9, 31800, Note_on_c, 9, 44, 126
9, 31800, Note_on_c, 9, 82, 110
9, 31835, Note_off_c, 9, 82, 64
9, 31880, Note_on_c, 9, 70, 110
9, 31915, Note_off_c, 9, 70, 64
9, 31918, Note_off_c, 9, 44, 64
9, 31920, Note_on_c, 9, 46, 126
9, 31920, Note_on_c, 9, 38, 126
9, 31920, Note_on_c, 9, 82, 110
9, 31955, Note_off_c, 9, 82, 64
9, 32000, Note_on_c, 9, 70, 110
9, 32035, Note_off_c, 9, 70, 64
9, 32038, Note_off_c, 9, 46, 64
9, 32040, Note_on_c, 9, 82, 92
9, 32075, Note_off_c, 9, 82, 64
9, 32120, Note_on_c, 9, 70, 94
9, 32155, Note_off_c, 9, 70, 64
9, 32158, Note_off_c, 9, 38, 64
9, 32160, Note_on_c, 9, 44, 126
9, 32160, Note_on_c, 9, 82, 110
9, 32195, Note_off_c, 9, 82, 64
9, 32240, Note_on_c, 9, 70, 110
9, 32275, Note_off_c, 9, 70, 64
9, 32278, Note_off_c, 9, 44, 64
9, 32280, Note_on_c, 9, 44, 126
9, 32280, Note_on_c, 9, 82, 110
9, 32315, Note_off_c, 9, 82, 64
9, 32360, Note_on_c, 9, 70, 110
9, 32395, Note_off_c, 9, 70, 64
9, 32398, Note_off_c, 9, 44, 64
9, 32400, Note_on_c, 9, 46, 126
9, 32400, Note_on_c, 9, 82, 110
9, 32400, Note_on_c, 9, 38, 126
9, 32435, Note_off_c, 9, 82, 64
9, 32435, Note_off_c, 9, 38, 64
9, 32477, Note_on_c, 9, 38, 126
9, 32480, Note_on_c, 9, 70, 110
9, 32512, Note_off_c, 9, 38, 64
9, 32515, Note_off_c, 9, 70, 64
9, 32518, Note_off_c, 9, 46, 64
9, 32520, Note_on_c, 9, 82, 92
9, 32520, Note_on_c, 9, 38, 126
9, 32555, Note_off_c, 9, 82, 64
9, 32555, Note_off_c, 9, 38, 64
9, 32600, Note_on_c, 9, 70, 94
9, 32635, Note_off_c, 9, 70, 64
9, 32640, Note_on_c, 9, 44, 126
9, 32640, Note_on_c, 9, 82, 110
9, 32675, Note_off_c, 9, 82, 64
9, 32720, Note_on_c, 9, 70, 110
9, 32755, Note_off_c, 9, 70, 64
9, 32758, Note_off_c, 9, 44, 64
9, 32760, Note_on_c, 9, 44, 126
9, 32760, Note_on_c, 9, 82, 110
9, 32795, Note_off_c, 9, 82, 64
9, 32840, Note_on_c, 9, 70, 110
9, 32875, Note_off_c, 9, 70, 64
9, 32878, Note_off_c, 9, 44, 64
9, 32880, Note_on_c, 9, 46, 126
9, 32880, Note_on_c, 9, 82, 110
9, 32880, Note_on_c, 9, 38, 126
9, 32915, Note_off_c, 9, 82, 64
9, 32960, Note_on_c, 9, 70, 110
9, 32995, Note_off_c, 9, 70, 64
9, 32998, Note_off_c, 9, 46, 64
9, 33000, Note_on_c, 9, 82, 92
9, 33035, Note_off_c, 9, 82, 64
9, 33080, Note_on_c, 9, 70, 94
9, 33115, Note_off_c, 9, 70, 64
9, 33118, Note_off_c, 9, 38, 64
9, 33120, Note_on_c, 9, 44, 126
9, 33120, Note_on_c, 9, 82, 110
9, 33155, Note_off_c, 9, 82, 64
9, 33200, Note_on_c, 9, 70, 110
9, 33235, Note_off_c, 9, 70, 64
9, 33238, Note_off_c, 9, 44, 64
9, 33240, Note_on_c, 9, 44, 126
9, 33240, Note_on_c, 9, 82, 110
9, 33275, Note_off_c, 9, 82, 64
9, 33320, Note_on_c, 9, 70, 110
9, 33355, Note_off_c, 9, 70, 64
9, 33358, Note_off_c, 9, 44, 64
9, 33360, Note_on_c, 9, 46, 126
9, 33360, Note_on_c, 9, 38, 126
9, 33360, Note_on_c, 9, 82, 110
9, 33395, Note_off_c, 9, 82, 64
9, 33440, Note_on_c, 9, 70, 110
9, 33475, Note_off_c, 9, 70, 64
9, 33478, Note_off_c, 9, 46, 64
9, 33480, Note_on_c, 9, 82, 92
9, 33515, Note_off_c, 9, 82, 64
9, 33560, Note_on_c, 9, 70, 94
9, 33595, Note_off_c, 9, 70, 64
9, 33598, Note_off_c, 9, 38, 64
9, 33600, Note_on_c, 9, 44, 126
9, 33600, Note_on_c, 9, 82, 110
9, 33635, Note_off_c, 9, 82, 64
9, 33680, Note_on_c, 9, 70, 110
9, 33715, Note_off_c, 9, 70, 64
9, 33718, Note_off_c, 9, 44, 64
9, 33720, Note_on_c, 9, 44, 126
9, 33720, Note_on_c, 9, 82, 110
9, 33755, Note_off_c, 9, 82, 64
9, 33800, Note_on_c, 9, 70, 110
9, 33835, Note_off_c, 9, 70, 64
9, 33838, Note_off_c, 9, 44, 64
9, 33840, Note_on_c, 9, 46, 126
9, 33840, Note_on_c, 9, 38, 126
9, 33840, Note_on_c, 9, 82, 110
9, 33875, Note_off_c, 9, 82, 64
9, 33920, Note_on_c, 9, 70, 110
9, 33955, Note_off_c, 9, 70, 64
9, 33958, Note_off_c, 9, 46, 64
9, 33960, Note_on_c, 9, 82, 92
9, 33995, Note_off_c, 9, 82, 64
9, 34040, Note_on_c, 9, 70, 94
9, 34075, Note_off_c, 9, 70, 64
9, 34078, Note_off_c, 9, 38, 64
9, 34080, Note_on_c, 9, 44, 126
9, 34080, Note_on_c, 9, 82, 110
9, 34115, Note_off_c, 9, 82, 64
9, 34160, Note_on_c, 9, 70, 110
9, 34195, Note_off_c, 9, 70, 64
9, 34198, Note_off_c, 9, 44, 64
9, 34200, Note_on_c, 9, 44, 126
9, 34200, Note_on_c, 9, 82, 110
9, 34235, Note_off_c, 9, 82, 64
9, 34280, Note_on_c, 9, 70, 110
9, 34315, Note_off_c, 9, 70, 64
9, 34318, Note_off_c, 9, 44, 64
9, 34320, Note_on_c, 9, 46, 126
9, 34320, Note_on_c, 9, 38, 126
9, 34320, Note_on_c, 9, 82, 110
9, 34355, Note_off_c, 9, 82, 64
9, 34400, Note_on_c, 9, 70, 110
9, 34435, Note_off_c, 9, 70, 64
9, 34438, Note_off_c, 9, 46, 64
9, 34440, Note_on_c, 9, 82, 92
9, 34475, Note_off_c, 9, 82, 64
9, 34520, Note_on_c, 9, 70, 94
9, 34555, Note_off_c, 9, 70, 64
9, 34558, Note_off_c, 9, 38, 64
9, 34560, Note_on_c, 9, 44, 126
9, 34560, Note_on_c, 9, 82, 110
9, 34595, Note_off_c, 9, 82, 64
9, 34640, Note_on_c, 9, 70, 110
9, 34675, Note_off_c, 9, 70, 64
9, 34678, Note_off_c, 9, 44, 64
9, 34680, Note_on_c, 9, 44, 126
9, 34680, Note_on_c, 9, 82, 110
9, 34715, Note_off_c, 9, 82, 64
9, 34760, Note_on_c, 9, 70, 110
9, 34795, Note_off_c, 9, 70, 64
9, 34798, Note_off_c, 9, 44, 64
9, 34800, Note_on_c, 9, 46, 126
9, 34800, Note_on_c, 9, 38, 126
9, 34800, Note_on_c, 9, 82, 110
9, 34835, Note_off_c, 9, 82, 64
9, 34880, Note_on_c, 9, 70, 110
9, 34915, Note_off_c, 9, 70, 64
9, 34918, Note_off_c, 9, 46, 64
9, 34920, Note_on_c, 9, 82, 92
9, 34955, Note_off_c, 9, 82, 64
9, 35000, Note_on_c, 9, 70, 94
9, 35035, Note_off_c, 9, 70, 64
9, 35038, Note_off_c, 9, 38, 64
9, 35040, Note_on_c, 9, 44, 126
9, 35040, Note_on_c, 9, 82, 110
9, 35075, Note_off_c, 9, 82, 64
9, 35120, Note_on_c, 9, 70, 110
9, 35155, Note_off_c, 9, 70, 64
9, 35158, Note_off_c, 9, 44, 64
9, 35160, Note_on_c, 9, 44, 126
9, 35160, Note_on_c, 9, 82, 110
9, 35195, Note_off_c, 9, 82, 64
9, 35240, Note_on_c, 9, 70, 110
9, 35275, Note_off_c, 9, 70, 64
9, 35278, Note_off_c, 9, 44, 64
9, 35280, Note_on_c, 9, 46, 126
9, 35280, Note_on_c, 9, 38, 126
9, 35280, Note_on_c, 9, 82, 110
9, 35315, Note_off_c, 9, 82, 64
9, 35360, Note_on_c, 9, 70, 110
9, 35395, Note_off_c, 9, 70, 64
9, 35398, Note_off_c, 9, 46, 64
9, 35400, Note_on_c, 9, 82, 92
9, 35435, Note_off_c, 9, 82, 64
9, 35480, Note_on_c, 9, 70, 94
9, 35515, Note_off_c, 9, 70, 64
9, 35518, Note_off_c, 9, 38, 64
9, 35520, Note_on_c, 9, 44, 126
9, 35520, Note_on_c, 9, 82, 110
9, 35520, Note_on_c, 9, 38, 126
9, 35555, Note_off_c, 9, 82, 64
9, 35600, Note_on_c, 9, 70, 110
9, 35635, Note_off_c, 9, 70, 64
9, 35638, Note_off_c, 9, 44, 64
9, 35640, Note_on_c, 9, 44, 126
9, 35640, Note_on_c, 9, 82, 110
9, 35675, Note_off_c, 9, 82, 64
9, 35720, Note_on_c, 9, 70, 110
9, 35755, Note_off_c, 9, 70, 64
9, 35758, Note_off_c, 9, 38, 64
9, 35758, Note_off_c, 9, 44, 64
9, 35760, Note_on_c, 9, 46, 126
9, 35760, Note_on_c, 9, 38, 126
9, 35760, Note_on_c, 9, 82, 110
9, 35795, Note_off_c, 9, 82, 64
9, 35840, Note_on_c, 9, 70, 110
9, 35875, Note_off_c, 9, 70, 64
9, 35878, Note_off_c, 9, 46, 64
9, 35880, Note_on_c, 9, 82, 92
9, 35915, Note_off_c, 9, 82, 64
9, 35960, Note_on_c, 9, 70, 94
9, 35995, Note_off_c, 9, 70, 64
9, 35998, Note_off_c, 9, 38, 64
9, 36000, Note_on_c, 9, 44, 126
9, 36000, Note_on_c, 9, 82, 110
9, 36000, Note_on_c, 9, 38, 126
9, 36035, Note_off_c, 9, 82, 64
9, 36080, Note_on_c, 9, 70, 110
9, 36115, Note_off_c, 9, 70, 64
9, 36118, Note_off_c, 9, 44, 64
9, 36120, Note_on_c, 9, 44, 126
9, 36120, Note_on_c, 9, 82, 110
9, 36155, Note_off_c, 9, 82, 64
9, 36200, Note_on_c, 9, 70, 110
9, 36235, Note_off_c, 9, 70, 64
9, 36238, Note_off_c, 9, 38, 64
9, 36238, Note_off_c, 9, 44, 64
9, 36240, Note_on_c, 9, 46, 126
9, 36240, Note_on_c, 9, 38, 126
9, 36240, Note_on_c, 9, 82, 110
9, 36275, Note_off_c, 9, 82, 64
9, 36320, Note_on_c, 9, 70, 110
9, 36355, Note_off_c, 9, 70, 64
9, 36358, Note_off_c, 9, 46, 64
9, 36360, Note_on_c, 9, 82, 92
9, 36395, Note_off_c, 9, 82, 64
9, 36440, Note_on_c, 9, 70, 94
9, 36475, Note_off_c, 9, 70, 64
9, 36478, Note_off_c, 9, 38, 64
9, 36480, Note_on_c, 9, 44, 126
9, 36480, Note_on_c, 9, 38, 126
9, 36480, Note_on_c, 9, 82, 110
9, 36515, Note_off_c, 9, 82, 64
9, 36560, Note_on_c, 9, 70, 110
9, 36595, Note_off_c, 9, 70, 64
9, 36598, Note_off_c, 9, 44, 64
9, 36600, Note_on_c, 9, 44, 126
9, 36600, Note_on_c, 9, 82, 110
9, 36635, Note_off_c, 9, 82, 64
9, 36680, Note_on_c, 9, 70, 110
9, 36715, Note_off_c, 9, 70, 64
9, 36718, Note_off_c, 9, 38, 64
9, 36718, Note_off_c, 9, 44, 64
9, 36720, Note_on_c, 9, 46, 126
9, 36720, Note_on_c, 9, 38, 126
9, 36720, Note_on_c, 9, 82, 110
9, 36755, Note_off_c, 9, 82, 64
9, 36800, Note_on_c, 9, 70, 110
9, 36835, Note_off_c, 9, 70, 64
9, 36838, Note_off_c, 9, 46, 64
9, 36840, Note_on_c, 9, 82, 92
9, 36875, Note_off_c, 9, 82, 64
9, 36920, Note_on_c, 9, 70, 94
9, 36955, Note_off_c, 9, 70, 64
9, 36958, Note_off_c, 9, 38, 64
9, 36960, Note_on_c, 9, 44, 126
9, 36960, Note_on_c, 9, 38, 126
9, 36960, Note_on_c, 9, 82, 110
9, 36995, Note_off_c, 9, 82, 64
9, 37040, Note_on_c, 9, 70, 110
9, 37075, Note_off_c, 9, 70, 64
9, 37078, Note_off_c, 9, 44, 64
9, 37080, Note_on_c, 9, 44, 126
9, 37080, Note_on_c, 9, 82, 110
9, 37115, Note_off_c, 9, 82, 64
9, 37160, Note_on_c, 9, 70, 110
9, 37195, Note_off_c, 9, 70, 64
9, 37198, Note_off_c, 9, 38, 64
9, 37198, Note_off_c, 9, 44, 64
9, 37200, Note_on_c, 9, 46, 126
9, 37200, Note_on_c, 9, 38, 126
9, 37200, Note_on_c, 9, 82, 110
9, 37235, Note_off_c, 9, 82, 64
9, 37280, Note_on_c, 9, 70, 110
9, 37315, Note_off_c, 9, 70, 64
9, 37318, Note_off_c, 9, 46, 64
9, 37320, Note_on_c, 9, 82, 92
9, 37355, Note_off_c, 9, 82, 64
9, 37400, Note_on_c, 9, 70, 94
9, 37435, Note_off_c, 9, 70, 64
9, 37438, Note_off_c, 9, 38, 64
9, 37440, Note_on_c, 9, 44, 126
9, 37440, Note_on_c, 9, 82, 110
9, 37475, Note_off_c, 9, 82, 64
9, 37520, Note_on_c, 9, 70, 110
9, 37555, Note_off_c, 9, 70, 64
9, 37558, Note_off_c, 9, 44, 64
9, 37560, Note_on_c, 9, 44, 126
9, 37560, Note_on_c, 9, 82, 110
9, 37595, Note_off_c, 9, 82, 64
9, 37640, Note_on_c, 9, 70, 110
9, 37675, Note_off_c, 9, 70, 64
9, 37678, Note_off_c, 9, 44, 64
9, 37680, Note_on_c, 9, 46, 126
9, 37680, Note_on_c, 9, 38, 126
9, 37680, Note_on_c, 9, 82, 110
9, 37715, Note_off_c, 9, 82, 64
9, 37760, Note_on_c, 9, 70, 110
9, 37795, Note_off_c, 9, 70, 64
9, 37798, Note_off_c, 9, 46, 64
9, 37800, Note_on_c, 9, 82, 92
9, 37835, Note_off_c, 9, 82, 64
9, 37880, Note_on_c, 9, 70, 94
9, 37915, Note_off_c, 9, 70, 64
9, 37918, Note_off_c, 9, 38, 64
9, 37920, Note_on_c, 9, 44, 126
9, 37920, Note_on_c, 9, 82, 110
9, 37955, Note_off_c, 9, 82, 64
9, 38000, Note_on_c, 9, 70, 110
9, 38035, Note_off_c, 9, 70, 64
9, 38038, Note_off_c, 9, 44, 64
9, 38040, Note_on_c, 9, 44, 126
9, 38040, Note_on_c, 9, 82, 110
9, 38075, Note_off_c, 9, 82, 64
9, 38120, Note_on_c, 9, 70, 110
9, 38155, Note_off_c, 9, 70, 64
9, 38158, Note_off_c, 9, 44, 64
9, 38160, Note_on_c, 9, 46, 126
9, 38160, Note_on_c, 9, 38, 126
9, 38160, Note_on_c, 9, 82, 110
9, 38195, Note_off_c, 9, 82, 64
9, 38240, Note_on_c, 9, 70, 110
9, 38275, Note_off_c, 9, 70, 64
9, 38278, Note_off_c, 9, 46, 64
9, 38280, Note_on_c, 9, 82, 92
9, 38315, Note_off_c, 9, 82, 64
9, 38360, Note_on_c, 9, 70, 94
9, 38395, Note_off_c, 9, 70, 64
9, 38398, Note_off_c, 9, 38, 64
9, 38400, Note_on_c, 9, 44, 126
9, 38400, Note_on_c, 9, 82, 110
9, 38435, Note_off_c, 9, 82, 64
9, 38480, Note_on_c, 9, 70, 110
9, 38515, Note_off_c, 9, 70, 64
9, 38518, Note_off_c, 9, 44, 64
9, 38520, Note_on_c, 9, 44, 126
9, 38520, Note_on_c, 9, 82, 110
9, 38555, Note_off_c, 9, 82, 64
9, 38600, Note_on_c, 9, 70, 110
9, 38635, Note_off_c, 9, 70, 64
9, 38638, Note_off_c, 9, 44, 64
9, 38640, Note_on_c, 9, 46, 126
9, 38640, Note_on_c, 9, 38, 126
9, 38640, Note_on_c, 9, 82, 110
9, 38675, Note_off_c, 9, 82, 64
9, 38720, Note_on_c, 9, 70, 110
9, 38755, Note_off_c, 9, 70, 64
9, 38758, Note_off_c, 9, 46, 64
9, 38760, Note_on_c, 9, 82, 92
9, 38795, Note_off_c, 9, 82, 64
9, 38840, Note_on_c, 9, 70, 94
9, 38875, Note_off_c, 9, 70, 64
9, 38878, Note_off_c, 9, 38, 64
9, 38880, Note_on_c, 9, 44, 126
9, 38880, Note_on_c, 9, 82, 110
9, 38915, Note_off_c, 9, 82, 64
9, 38960, Note_on_c, 9, 70, 110
9, 38995, Note_off_c, 9, 70, 64
9, 38998, Note_off_c, 9, 44, 64
9, 39000, Note_on_c, 9, 44, 126
9, 39000, Note_on_c, 9, 82, 110
9, 39035, Note_off_c, 9, 82, 64
9, 39080, Note_on_c, 9, 70, 110
9, 39115, Note_off_c, 9, 70, 64
9, 39118, Note_off_c, 9, 44, 64
9, 39120, Note_on_c, 9, 46, 126
9, 39120, Note_on_c, 9, 38, 126
9, 39120, Note_on_c, 9, 82, 110
9, 39155, Note_off_c, 9, 82, 64
9, 39200, Note_on_c, 9, 70, 110
9, 39235, Note_off_c, 9, 70, 64
9, 39238, Note_off_c, 9, 46, 64
9, 39240, Note_on_c, 9, 82, 92
9, 39275, Note_off_c, 9, 82, 64
9, 39320, Note_on_c, 9, 70, 94
9, 39355, Note_off_c, 9, 70, 64
9, 39358, Note_off_c, 9, 38, 64
9, 39360, Note_on_c, 9, 44, 126
9, 39360, Note_on_c, 9, 82, 110
9, 39395, Note_off_c, 9, 82, 64
9, 39440, Note_on_c, 9, 70, 110
9, 39475, Note_off_c, 9, 70, 64
9, 39478, Note_off_c, 9, 44, 64
9, 39480, Note_on_c, 9, 44, 126
9, 39480, Note_on_c, 9, 82, 110
9, 39515, Note_off_c, 9, 82, 64
9, 39560, Note_on_c, 9, 70, 110
9, 39595, Note_off_c, 9, 70, 64
9, 39598, Note_off_c, 9, 44, 64
9, 39600, Note_on_c, 9, 46, 126
9, 39600, Note_on_c, 9, 38, 126
9, 39600, Note_on_c, 9, 82, 110
9, 39635, Note_off_c, 9, 82, 64
9, 39680, Note_on_c, 9, 70, 110
9, 39715, Note_off_c, 9, 70, 64
9, 39718, Note_off_c, 9, 46, 64
9, 39720, Note_on_c, 9, 82, 92
9, 39755, Note_off_c, 9, 82, 64
9, 39800, Note_on_c, 9, 70, 94
9, 39835, Note_off_c, 9, 70, 64
9, 39838, Note_off_c, 9, 38, 64
9, 39840, Note_on_c, 9, 44, 126
9, 39840, Note_on_c, 9, 82, 110
9, 39875, Note_off_c, 9, 82, 64
9, 39920, Note_on_c, 9, 70, 110
9, 39955, Note_off_c, 9, 70, 64
9, 39958, Note_off_c, 9, 44, 64
9, 39960, Note_on_c, 9, 44, 126
9, 39960, Note_on_c, 9, 82, 110
9, 39995, Note_off_c, 9, 82, 64
9, 40040, Note_on_c, 9, 70, 110
9, 40075, Note_off_c, 9, 70, 64
9, 40078, Note_off_c, 9, 44, 64
9, 40080, Note_on_c, 9, 46, 126
9, 40080, Note_on_c, 9, 38, 126
9, 40080, Note_on_c, 9, 82, 110
9, 40115, Note_off_c, 9, 82, 64
9, 40160, Note_on_c, 9, 70, 110
9, 40195, Note_off_c, 9, 70, 64
9, 40198, Note_off_c, 9, 46, 64
9, 40200, Note_on_c, 9, 82, 92
9, 40235, Note_off_c, 9, 82, 64
9, 40280, Note_on_c, 9, 70, 94
9, 40315, Note_off_c, 9, 70, 64
9, 40318, Note_off_c, 9, 38, 64
9, 40320, Note_on_c, 9, 44, 126
9, 40320, Note_on_c, 9, 82, 110
9, 40355, Note_off_c, 9, 82, 64
9, 40400, Note_on_c, 9, 70, 110
9, 40435, Note_off_c, 9, 70, 64
9, 40438, Note_off_c, 9, 44, 64
9, 40440, Note_on_c, 9, 44, 126
9, 40440, Note_on_c, 9, 82, 110
9, 40475, Note_off_c, 9, 82, 64
9, 40520, Note_on_c, 9, 70, 110
9, 40555, Note_off_c, 9, 70, 64
9, 40558, Note_off_c, 9, 44, 64
9, 40560, Note_on_c, 9, 46, 126
9, 40560, Note_on_c, 9, 38, 126
9, 40560, Note_on_c, 9, 82, 110
9, 40595, Note_off_c, 9, 82, 64
9, 40640, Note_on_c, 9, 70, 110
9, 40675, Note_off_c, 9, 70, 64
9, 40678, Note_off_c, 9, 46, 64
9, 40680, Note_on_c, 9, 82, 92
9, 40715, Note_off_c, 9, 82, 64
9, 40760, Note_on_c, 9, 70, 94
9, 40795, Note_off_c, 9, 70, 64
9, 40798, Note_off_c, 9, 38, 64
9, 40800, Note_on_c, 9, 44, 126
9, 40800, Note_on_c, 9, 82, 110
9, 40835, Note_off_c, 9, 82, 64
9, 40880, Note_on_c, 9, 70, 110
9, 40915, Note_off_c, 9, 70, 64
9, 40918, Note_off_c, 9, 44, 64
9, 40920, Note_on_c, 9, 44, 126
9, 40920, Note_on_c, 9, 82, 110
9, 40955, Note_off_c, 9, 82, 64
9, 41000, Note_on_c, 9, 70, 110
9, 41035, Note_off_c, 9, 70, 64
9, 41038, Note_off_c, 9, 44, 64
9, 41040, Note_on_c, 9, 46, 126
9, 41040, Note_on_c, 9, 38, 126
9, 41040, Note_on_c, 9, 82, 110
9, 41075, Note_off_c, 9, 82, 64
9, 41120, Note_on_c, 9, 70, 110
9, 41155, Note_off_c, 9, 70, 64
9, 41158, Note_off_c, 9, 46, 64
9, 41160, Note_on_c, 9, 82, 92
9, 41195, Note_off_c, 9, 82, 64
9, 41240, Note_on_c, 9, 70, 94
9, 41275, Note_off_c, 9, 70, 64
9, 41278, Note_off_c, 9, 38, 64
9, 45120, Note_on_c, 9, 44, 126
9, 45120, Note_on_c, 9, 82, 110
9, 45155, Note_off_c, 9, 82, 64
9, 45200, Note_on_c, 9, 70, 110
9, 45235, Note_off_c, 9, 70, 64
9, 45238, Note_off_c, 9, 44, 64
9, 45240, Note_on_c, 9, 44, 126
9, 45240, Note_on_c, 9, 82, 110
9, 45275, Note_off_c, 9, 82, 64
9, 45320, Note_on_c, 9, 70, 110
9, 45355, Note_off_c, 9, 70, 64
9, 45358, Note_off_c, 9, 44, 64
9, 45360, Note_on_c, 9, 46, 126
9, 45360, Note_on_c, 9, 38, 126
9, 45360, Note_on_c, 9, 82, 110
9, 45395, Note_off_c, 9, 82, 64
9, 45440, Note_on_c, 9, 70, 110
9, 45475, Note_off_c, 9, 70, 64
9, 45478, Note_off_c, 9, 46, 64
9, 45480, Note_on_c, 9, 82, 92
9, 45515, Note_off_c, 9, 82, 64
9, 45560, Note_on_c, 9, 70, 94
9, 45595, Note_off_c, 9, 70, 64
9, 45598, Note_off_c, 9, 38, 64
9, 45600, Note_on_c, 9, 44, 126
9, 45600, Note_on_c, 9, 82, 110
9, 45635, Note_off_c, 9, 82, 64
9, 45680, Note_on_c, 9, 70, 110
9, 45715, Note_off_c, 9, 70, 64
9, 45718, Note_off_c, 9, 44, 64
9, 45720, Note_on_c, 9, 44, 126
9, 45720, Note_on_c, 9, 82, 110
9, 45755, Note_off_c, 9, 82, 64
9, 45800, Note_on_c, 9, 70, 110
9, 45835, Note_off_c, 9, 70, 64
9, 45838, Note_off_c, 9, 44, 64
9, 45840, Note_on_c, 9, 46, 126
9, 45840, Note_on_c, 9, 38, 126
9, 45840, Note_on_c, 9, 82, 110
9, 45875, Note_off_c, 9, 82, 64
9, 45920, Note_on_c, 9, 70, 110
9, 45955, Note_off_c, 9, 70, 64
9, 45958, Note_off_c, 9, 46, 64
9, 45960, Note_on_c, 9, 82, 92
9, 45995, Note_off_c, 9, 82, 64
9, 46040, Note_on_c, 9, 70, 94
9, 46075, Note_off_c, 9, 70, 64
9, 46078, Note_off_c, 9, 38, 64
9, 46080, Note_on_c, 9, 44, 126
9, 46080, Note_on_c, 9, 82, 110
9, 46115, Note_off_c, 9, 82, 64
9, 46160, Note_on_c, 9, 70, 110
9, 46195, Note_off_c, 9, 70, 64
9, 46198, Note_off_c, 9, 44, 64
9, 46200, Note_on_c, 9, 44, 126
9, 46200, Note_on_c, 9, 82, 110
9, 46235, Note_off_c, 9, 82, 64
9, 46280, Note_on_c, 9, 70, 110
9, 46315, Note_off_c, 9, 70, 64
9, 46318, Note_off_c, 9, 44, 64
9, 46320, Note_on_c, 9, 46, 126
9, 46320, Note_on_c, 9, 38, 126
9, 46320, Note_on_c, 9, 82, 110
9, 46355, Note_off_c, 9, 82, 64
9, 46400, Note_on_c, 9, 70, 110
9, 46435, Note_off_c, 9, 70, 64
9, 46438, Note_off_c, 9, 46, 64
9, 46440, Note_on_c, 9, 82, 92
9, 46475, Note_off_c, 9, 82, 64
9, 46520, Note_on_c, 9, 70, 94
9, 46555, Note_off_c, 9, 70, 64
9, 46558, Note_off_c, 9, 38, 64
9, 46560, Note_on_c, 9, 44, 126
9, 46560, Note_on_c, 9, 82, 110
9, 46595, Note_off_c, 9, 82, 64
9, 46640, Note_on_c, 9, 70, 110
9, 46675, Note_off_c, 9, 70, 64
9, 46678, Note_off_c, 9, 44, 64
9, 46680, Note_on_c, 9, 44, 126
9, 46680, Note_on_c, 9, 82, 110
9, 46715, Note_off_c, 9, 82, 64
9, 46760, Note_on_c, 9, 70, 110
9, 46795, Note_off_c, 9, 70, 64
9, 46798, Note_off_c, 9, 44, 64
9, 46800, Note_on_c, 9, 46, 126
9, 46800, Note_on_c, 9, 38, 126
9, 46800, Note_on_c, 9, 82, 110
9, 46835, Note_off_c, 9, 82, 64
9, 46880, Note_on_c, 9, 70, 110
9, 46915, Note_off_c, 9, 70, 64
9, 46918, Note_off_c, 9, 46, 64
9, 46920, Note_on_c, 9, 82, 92
9, 46955, Note_off_c, 9, 82, 64
9, 47000, Note_on_c, 9, 70, 94
9, 47035, Note_off_c, 9, 70, 64
9, 47038, Note_off_c, 9, 38, 64
9, 47040, Note_on_c, 9, 44, 126
9, 47040, Note_on_c, 9, 82, 110
9, 47075, Note_off_c, 9, 82, 64
9, 47120, Note_on_c, 9, 70, 110
9, 47155, Note_off_c, 9, 70, 64
9, 47158, Note_off_c, 9, 44, 64
9, 47160, Note_on_c, 9, 44, 126
9, 47160, Note_on_c, 9, 82, 110
9, 47195, Note_off_c, 9, 82, 64
9, 47240, Note_on_c, 9, 70, 110
9, 47275, Note_off_c, 9, 70, 64
9, 47278, Note_off_c, 9, 44, 64
9, 47280, Note_on_c, 9, 46, 126
9, 47280, Note_on_c, 9, 38, 126
9, 47280, Note_on_c, 9, 82, 110
9, 47315, Note_off_c, 9, 82, 64
9, 47360, Note_on_c, 9, 70, 110
9, 47395, Note_off_c, 9, 70, 64
9, 47398, Note_off_c, 9, 46, 64
9, 47400, Note_on_c, 9, 82, 92
9, 47435, Note_off_c, 9, 82, 64
9, 47480, Note_on_c, 9, 70, 94
9, 47515, Note_off_c, 9, 70, 64
9, 47518, Note_off_c, 9, 38, 64
9, 47520, Note_on_c, 9, 44, 126
9, 47520, Note_on_c, 9, 82, 110
9, 47555, Note_off_c, 9, 82, 64
9, 47600, Note_on_c, 9, 70, 110
9, 47635, Note_off_c, 9, 70, 64
9, 47638, Note_off_c, 9, 44, 64
9, 47640, Note_on_c, 9, 44, 126
9, 47640, Note_on_c, 9, 82, 110
9, 47675, Note_off_c, 9, 82, 64
9, 47720, Note_on_c, 9, 70, 110
9, 47755, Note_off_c, 9, 70, 64
9, 47758, Note_off_c, 9, 44, 64
9, 47760, Note_on_c, 9, 46, 126
9, 47760, Note_on_c, 9, 38, 126
9, 47760, Note_on_c, 9, 82, 110
9, 47795, Note_off_c, 9, 82, 64
9, 47840, Note_on_c, 9, 70, 110
9, 47875, Note_off_c, 9, 70, 64
9, 47878, Note_off_c, 9, 46, 64
9, 47880, Note_on_c, 9, 82, 92
9, 47915, Note_off_c, 9, 82, 64
9, 47960, Note_on_c, 9, 70, 94
9, 47995, Note_off_c, 9, 70, 64
9, 47998, Note_off_c, 9, 38, 64
9, 48000, Note_on_c, 9, 44, 126
9, 48000, Note_on_c, 9, 82, 110
9, 48000, Note_on_c, 9, 38, 126
9, 48035, Note_off_c, 9, 82, 64
9, 48080, Note_on_c, 9, 70, 110
9, 48115, Note_off_c, 9, 70, 64
9, 48118, Note_off_c, 9, 44, 64
9, 48120, Note_on_c, 9, 44, 126
9, 48120, Note_on_c, 9, 82, 110
9, 48155, Note_off_c, 9, 82, 64
9, 48200, Note_on_c, 9, 70, 110
9, 48235, Note_off_c, 9, 70, 64
9, 48238, Note_off_c, 9, 38, 64
9, 48238, Note_off_c, 9, 44, 64
9, 48240, Note_on_c, 9, 46, 126
9, 48240, Note_on_c, 9, 38, 126
9, 48240, Note_on_c, 9, 82, 110
9, 48275, Note_off_c, 9, 82, 64
9, 48320, Note_on_c, 9, 70, 110
9, 48355, Note_off_c, 9, 70, 64
9, 48358, Note_off_c, 9, 46, 64
9, 48360, Note_on_c, 9, 82, 92
9, 48395, Note_off_c, 9, 82, 64
9, 48440, Note_on_c, 9, 70, 94
9, 48475, Note_off_c, 9, 70, 64
9, 48478, Note_off_c, 9, 38, 64
9, 48480, Note_on_c, 9, 44, 126
9, 48480, Note_on_c, 9, 82, 110
9, 48480, Note_on_c, 9, 38, 126
9, 48515, Note_off_c, 9, 82, 64
9, 48560, Note_on_c, 9, 70, 110
9, 48595, Note_off_c, 9, 70, 64
9, 48598, Note_off_c, 9, 44, 64
9, 48600, Note_on_c, 9, 44, 126
9, 48600, Note_on_c, 9, 82, 110
9, 48635, Note_off_c, 9, 82, 64
9, 48680, Note_on_c, 9, 70, 110
9, 48715, Note_off_c, 9, 70, 64
9, 48718, Note_off_c, 9, 38, 64
9, 48718, Note_off_c, 9, 44, 64
9, 48720, Note_on_c, 9, 46, 126
9, 48720, Note_on_c, 9, 38, 126
9, 48720, Note_on_c, 9, 82, 110
9, 48755, Note_off_c, 9, 82, 64
9, 48800, Note_on_c, 9, 70, 110
9, 48835, Note_off_c, 9, 70, 64
9, 48838, Note_off_c, 9, 46, 64
9, 48840, Note_on_c, 9, 82, 92
9, 48875, Note_off_c, 9, 82, 64
9, 48920, Note_on_c, 9, 70, 94
9, 48955, Note_off_c, 9, 70, 64
9, 48958, Note_off_c, 9, 38, 64
9, 48960, Note_on_c, 9, 44, 126
9, 48960, Note_on_c, 9, 82, 110
9, 48960, Note_on_c, 9, 38, 126
9, 48995, Note_off_c, 9, 82, 64
9, 49040, Note_on_c, 9, 70, 110
9, 49075, Note_off_c, 9, 70, 64
9, 49078, Note_off_c, 9, 44, 64
9, 49080, Note_on_c, 9, 44, 126
9, 49080, Note_on_c, 9, 82, 110
9, 49115, Note_off_c, 9, 82, 64
9, 49160, Note_on_c, 9, 70, 110
9, 49195, Note_off_c, 9, 70, 64
9, 49198, Note_off_c, 9, 38, 64
9, 49198, Note_off_c, 9, 44, 64
9, 49200, Note_on_c, 9, 46, 126
9, 49200, Note_on_c, 9, 38, 126
9, 49200, Note_on_c, 9, 82, 110
9, 49235, Note_off_c, 9, 82, 64
9, 49280, Note_on_c, 9, 70, 110
9, 49315, Note_off_c, 9, 70, 64
9, 49318, Note_off_c, 9, 46, 64
9, 49320, Note_on_c, 9, 82, 92
9, 49355, Note_off_c, 9, 82, 64
9, 49400, Note_on_c, 9, 70, 94
9, 49435, Note_off_c, 9, 70, 64
9, 49438, Note_off_c, 9, 38, 64
9, 49440, Note_on_c, 9, 44, 126
9, 49440, Note_on_c, 9, 82, 110
9, 49440, Note_on_c, 9, 38, 126
9, 49475, Note_off_c, 9, 82, 64
9, 49520, Note_on_c, 9, 70, 110
9, 49555, Note_off_c, 9, 70, 64
9, 49558, Note_off_c, 9, 44, 64
9, 49560, Note_on_c, 9, 44, 126
9, 49560, Note_on_c, 9, 82, 110
9, 49595, Note_off_c, 9, 82, 64
9, 49640, Note_on_c, 9, 70, 110
9, 49675, Note_off_c, 9, 70, 64
9, 49678, Note_off_c, 9, 38, 64
9, 49678, Note_off_c, 9, 44, 64
9, 49680, Note_on_c, 9, 46, 126
9, 49680, Note_on_c, 9, 38, 126
9, 49680, Note_on_c, 9, 82, 110
9, 49715, Note_off_c, 9, 82, 64
9, 49760, Note_on_c, 9, 70, 110
9, 49795, Note_off_c, 9, 70, 64
9, 49798, Note_off_c, 9, 46, 64
9, 49800, Note_on_c, 9, 82, 92
9, 49835, Note_off_c, 9, 82, 64
9, 49880, Note_on_c, 9, 70, 94
9, 49915, Note_off_c, 9, 70, 64
9, 49918, Note_off_c, 9, 38, 64
9, 49920, Note_on_c, 9, 44, 126
9, 49920, Note_on_c, 9, 82, 110
9, 49955, Note_off_c, 9, 82, 64
9, 50000, Note_on_c, 9, 70, 110
9, 50035, Note_off_c, 9, 70, 64
9, 50038, Note_off_c, 9, 44, 64
9, 50040, Note_on_c, 9, 44, 126
9, 50040, Note_on_c, 9, 82, 110
9, 50075, Note_off_c, 9, 82, 64
9, 50120, Note_on_c, 9, 70, 110
9, 50155, Note_off_c, 9, 70, 64
9, 50158, Note_off_c, 9, 44, 64
9, 50160, Note_on_c, 9, 46, 126
9, 50160, Note_on_c, 9, 38, 126
9, 50160, Note_on_c, 9, 82, 110
9, 50195, Note_off_c, 9, 82, 64
9, 50240, Note_on_c, 9, 70, 110
9, 50275, Note_off_c, 9, 70, 64
9, 50278, Note_off_c, 9, 46, 64
9, 50280, Note_on_c, 9, 82, 92
9, 50315, Note_off_c, 9, 82, 64
9, 50360, Note_on_c, 9, 70, 94
9, 50395, Note_off_c, 9, 70, 64
9, 50398, Note_off_c, 9, 38, 64
9, 50400, Note_on_c, 9, 44, 126
9, 50400, Note_on_c, 9, 82, 110
9, 50435, Note_off_c, 9, 82, 64
9, 50480, Note_on_c, 9, 70, 110
9, 50515, Note_off_c, 9, 70, 64
9, 50518, Note_off_c, 9, 44, 64
9, 50520, Note_on_c, 9, 44, 126
9, 50520, Note_on_c, 9, 82, 110
9, 50555, Note_off_c, 9, 82, 64
9, 50600, Note_on_c, 9, 70, 110
9, 50635, Note_off_c, 9, 70, 64
9, 50638, Note_off_c, 9, 44, 64
9, 50640, Note_on_c, 9, 46, 126
9, 50640, Note_on_c, 9, 38, 126
9, 50640, Note_on_c, 9, 82, 110
9, 50675, Note_off_c, 9, 82, 64
9, 50720, Note_on_c, 9, 70, 110
9, 50755, Note_off_c, 9, 70, 64
9, 50758, Note_off_c, 9, 46, 64
9, 50760, Note_on_c, 9, 82, 92
9, 50795, Note_off_c, 9, 82, 64
9, 50840, Note_on_c, 9, 70, 94
9, 50875, Note_off_c, 9, 70, 64
9, 50878, Note_off_c, 9, 38, 64
9, 50880, Note_on_c, 9, 44, 126
9, 50880, Note_on_c, 9, 82, 110
9, 50915, Note_off_c, 9, 82, 64
9, 50960, Note_on_c, 9, 70, 110
9, 50995, Note_off_c, 9, 70, 64
9, 50998, Note_off_c, 9, 44, 64
9, 51000, Note_on_c, 9, 44, 126
9, 51000, Note_on_c, 9, 82, 110
9, 51035, Note_off_c, 9, 82, 64
9, 51080, Note_on_c, 9, 70, 110
9, 51115, Note_off_c, 9, 70, 64
9, 51118, Note_off_c, 9, 44, 64
9, 51120, Note_on_c, 9, 46, 126
9, 51120, Note_on_c, 9, 38, 126
9, 51120, Note_on_c, 9, 82, 110
9, 51155, Note_off_c, 9, 82, 64
9, 51200, Note_on_c, 9, 70, 110
9, 51235, Note_off_c, 9, 70, 64
9, 51238, Note_off_c, 9, 46, 64
9, 51240, Note_on_c, 9, 82, 92
9, 51275, Note_off_c, 9, 82, 64
9, 51320, Note_on_c, 9, 70, 94
9, 51355, Note_off_c, 9, 70, 64
9, 51358, Note_off_c, 9, 38, 64
9, 51360, Note_on_c, 9, 44, 126
9, 51360, Note_on_c, 9, 82, 110
9, 51395, Note_off_c, 9, 82, 64
9, 51440, Note_on_c, 9, 70, 110
9, 51475, Note_off_c, 9, 70, 64
9, 51478, Note_off_c, 9, 44, 64
9, 51480, Note_on_c, 9, 44, 126
9, 51480, Note_on_c, 9, 82, 110
9, 51515, Note_off_c, 9, 82, 64
9, 51560, Note_on_c, 9, 70, 110
9, 51595, Note_off_c, 9, 70, 64
9, 51598, Note_off_c, 9, 44, 64
9, 51600, Note_on_c, 9, 46, 126
9, 51600, Note_on_c, 9, 38, 126
9, 51600, Note_on_c, 9, 82, 110
9, 51635, Note_off_c, 9, 82, 64
9, 51680, Note_on_c, 9, 70, 110
9, 51715, Note_off_c, 9, 70, 64
9, 51718, Note_off_c, 9, 46, 64
9, 51720, Note_on_c, 9, 82, 92
9, 51755, Note_off_c, 9, 82, 64
9, 51800, Note_on_c, 9, 70, 94
9, 51835, Note_off_c, 9, 70, 64
9, 51838, Note_off_c, 9, 38, 64
9, 51840, Note_on_c, 9, 44, 126
9, 51840, Note_on_c, 9, 82, 110
9, 51875, Note_off_c, 9, 82, 64
9, 51920, Note_on_c, 9, 70, 110
9, 51955, Note_off_c, 9, 70, 64
9, 51958, Note_off_c, 9, 44, 64
9, 51960, Note_on_c, 9, 44, 126
9, 51960, Note_on_c, 9, 82, 110
9, 51995, Note_off_c, 9, 82, 64
9, 52040, Note_on_c, 9, 70, 110
9, 52075, Note_off_c, 9, 70, 64
9, 52078, Note_off_c, 9, 44, 64
9, 52080, Note_on_c, 9, 46, 126
9, 52080, Note_on_c, 9, 38, 126
9, 52080, Note_on_c, 9, 82, 110
9, 52115, Note_off_c, 9, 82, 64
9, 52160, Note_on_c, 9, 70, 110
9, 52195, Note_off_c, 9, 70, 64
9, 52198, Note_off_c, 9, 46, 64
9, 52200, Note_on_c, 9, 82, 92
9, 52235, Note_off_c, 9, 82, 64
9, 52280, Note_on_c, 9, 70, 94
9, 52315, Note_off_c, 9, 70, 64
9, 52318, Note_off_c, 9, 38, 64
9, 52320, Note_on_c, 9, 44, 126
9, 52320, Note_on_c, 9, 82, 110
9, 52355, Note_off_c, 9, 82, 64
9, 52400, Note_on_c, 9, 70, 110
9, 52435, Note_off_c, 9, 70, 64
9, 52438, Note_off_c, 9, 44, 64
9, 52440, Note_on_c, 9, 44, 126
9, 52440, Note_on_c, 9, 82, 110
9, 52475, Note_off_c, 9, 82, 64
9, 52520, Note_on_c, 9, 70, 110
9, 52555, Note_off_c, 9, 70, 64
9, 52558, Note_off_c, 9, 44, 64
9, 52560, Note_on_c, 9, 46, 126
9, 52560, Note_on_c, 9, 38, 126
9, 52560, Note_on_c, 9, 82, 110
9, 52595, Note_off_c, 9, 82, 64
9, 52640, Note_on_c, 9, 70, 110
9, 52675, Note_off_c, 9, 70, 64
9, 52678, Note_off_c, 9, 46, 64
9, 52680, Note_on_c, 9, 82, 92
9, 52715, Note_off_c, 9, 82, 64
9, 52760, Note_on_c, 9, 70, 94
9, 52795, Note_off_c, 9, 70, 64
9, 52798, Note_off_c, 9, 38, 64
9, 52800, Note_on_c, 9, 44, 126
9, 52800, Note_on_c, 9, 82, 110
9, 52835, Note_off_c, 9, 82, 64
9, 52880, Note_on_c, 9, 70, 110
9, 52915, Note_off_c, 9, 70, 64
9, 52918, Note_off_c, 9, 44, 64
9, 52920, Note_on_c, 9, 44, 126
9, 52920, Note_on_c, 9, 82, 110
9, 52955, Note_off_c, 9, 82, 64
9, 53000, Note_on_c, 9, 70, 110
9, 53035, Note_off_c, 9, 70, 64
9, 53038, Note_off_c, 9, 44, 64
9, 53040, Note_on_c, 9, 46, 126
9, 53040, Note_on_c, 9, 38, 126
9, 53040, Note_on_c, 9, 82, 110
9, 53075, Note_off_c, 9, 82, 64
9, 53120, Note_on_c, 9, 70, 110
9, 53155, Note_off_c, 9, 70, 64
9, 53158, Note_off_c, 9, 46, 64
9, 53160, Note_on_c, 9, 82, 92
9, 53195, Note_off_c, 9, 82, 64
9, 53240, Note_on_c, 9, 70, 94
9, 53275, Note_off_c, 9, 70, 64
9, 53278, Note_off_c, 9, 38, 64
9, 53280, Note_on_c, 9, 82, 110
9, 53280, Note_on_c, 9, 46, 126
9, 53315, Note_off_c, 9, 82, 64
9, 53357, Note_on_c, 9, 38, 126
9, 53360, Note_on_c, 9, 70, 110
9, 53392, Note_off_c, 9, 38, 64
9, 53395, Note_off_c, 9, 70, 64
9, 53398, Note_off_c, 9, 46, 64
9, 53400, Note_on_c, 9, 82, 110
9, 53400, Note_on_c, 9, 45, 126
9, 53435, Note_off_c, 9, 82, 64
9, 53435, Note_off_c, 9, 45, 64
9, 53477, Note_on_c, 9, 38, 126
9, 53480, Note_on_c, 9, 70, 110
9, 53512, Note_off_c, 9, 38, 64
9, 53515, Note_off_c, 9, 70, 64
9, 53520, Note_on_c, 9, 82, 110
9, 53520, Note_on_c, 9, 38, 126
9, 53555, Note_off_c, 9, 82, 64
9, 53555, Note_off_c, 9, 38, 64
9, 53597, Note_on_c, 9, 45, 126
9, 53600, Note_on_c, 9, 70, 110
9, 53632, Note_off_c, 9, 45, 64
9, 53635, Note_off_c, 9, 70, 64
9, 53640, Note_on_c, 9, 82, 92
9, 53640, Note_on_c, 9, 43, 126
9, 53675, Note_off_c, 9, 82, 64
9, 53675, Note_off_c, 9, 43, 64
9, 53720, Note_on_c, 9, 70, 94
9, 53755, Note_off_c, 9, 70, 64
9, 53760, Note_on_c, 9, 44, 126
9, 53760, Note_on_c, 9, 57, 126
9, 53760, Note_on_c, 9, 82, 110
9, 53795, Note_off_c, 9, 82, 64
9, 53840, Note_on_c, 9, 70, 110
9, 53875, Note_off_c, 9, 70, 64
9, 53878, Note_off_c, 9, 44, 64
9, 53880, Note_on_c, 9, 44, 126
9, 53880, Note_on_c, 9, 82, 110
9, 53915, Note_off_c, 9, 82, 64
9, 53960, Note_on_c, 9, 70, 110
9, 53995, Note_off_c, 9, 70, 64
9, 53998, Note_off_c, 9, 44, 64
9, 54000, Note_on_c, 9, 46, 126
9, 54000, Note_on_c, 9, 38, 126
9, 54000, Note_on_c, 9, 82, 110
9, 54035, Note_off_c, 9, 82, 64
9, 54080, Note_on_c, 9, 70, 110
9, 54115, Note_off_c, 9, 70, 64
9, 54118, Note_off_c, 9, 46, 64
9, 54120, Note_on_c, 9, 82, 92
9, 54155, Note_off_c, 9, 82, 64
9, 54200, Note_on_c, 9, 70, 94
9, 54235, Note_off_c, 9, 70, 64
9, 54238, Note_off_c, 9, 38, 64
9, 54240, Note_on_c, 9, 44, 126
9, 54240, Note_on_c, 9, 82, 110
9, 54275, Note_off_c, 9, 82, 64
9, 54320, Note_on_c, 9, 70, 110
9, 54355, Note_off_c, 9, 70, 64
9, 54358, Note_off_c, 9, 44, 64
9, 54360, Note_on_c, 9, 44, 126
9, 54360, Note_on_c, 9, 82, 110
9, 54395, Note_off_c, 9, 82, 64
9, 54440, Note_on_c, 9, 70, 110
9, 54475, Note_off_c, 9, 70, 64
9, 54478, Note_off_c, 9, 44, 64
9, 54480, Note_on_c, 9, 46, 126
9, 54480, Note_on_c, 9, 38, 126
9, 54480, Note_on_c, 9, 82, 110
9, 54515, Note_off_c, 9, 82, 64
9, 54560, Note_on_c, 9, 70, 110
9, 54595, Note_off_c, 9, 70, 64
9, 54598, Note_off_c, 9, 46, 64
9, 54600, Note_on_c, 9, 82, 92
9, 54606, Note_off_c, 9, 57, 64
9, 54635, Note_off_c, 9, 82, 64
9, 54680, Note_on_c, 9, 70, 94
9, 54715, Note_off_c, 9, 70, 64
9, 54718, Note_off_c, 9, 38, 64
9, 54720, Note_on_c, 9, 44, 126
9, 54720, Note_on_c, 9, 82, 110
9, 54755, Note_off_c, 9, 82, 64
9, 54800, Note_on_c, 9, 70, 110
9, 54835, Note_off_c, 9, 70, 64
9, 54838, Note_off_c, 9, 44, 64
9, 54840, Note_on_c, 9, 44, 126
9, 54840, Note_on_c, 9, 82, 110
9, 54875, Note_off_c, 9, 82, 64
9, 54920, Note_on_c, 9, 70, 110
9, 54955, Note_off_c, 9, 70, 64
9, 54958, Note_off_c, 9, 44, 64
9, 54960, Note_on_c, 9, 46, 126
9, 54960, Note_on_c, 9, 38, 126
9, 54960, Note_on_c, 9, 82, 110
9, 54995, Note_off_c, 9, 82, 64
9, 55040, Note_on_c, 9, 70, 110
9, 55075, Note_off_c, 9, 70, 64
9, 55078, Note_off_c, 9, 46, 64
9, 55080, Note_on_c, 9, 82, 92
9, 55115, Note_off_c, 9, 82, 64
9, 55160, Note_on_c, 9, 70, 94
9, 55195, Note_off_c, 9, 70, 64
9, 55198, Note_off_c, 9, 38, 64
9, 55200, Note_on_c, 9, 44, 126
9, 55200, Note_on_c, 9, 82, 110
9, 55235, Note_off_c, 9, 82, 64
9, 55280, Note_on_c, 9, 70, 110
9, 55315, Note_off_c, 9, 70, 64
9, 55318, Note_off_c, 9, 44, 64
9, 55320, Note_on_c, 9, 44, 126
9, 55320, Note_on_c, 9, 82, 110
9, 55355, Note_off_c, 9, 82, 64
9, 55400, Note_on_c, 9, 70, 110
9, 55435, Note_off_c, 9, 70, 64
9, 55438, Note_off_c, 9, 44, 64
9, 55440, Note_on_c, 9, 46, 126
9, 55440, Note_on_c, 9, 38, 126
9, 55440, Note_on_c, 9, 82, 110
9, 55475, Note_off_c, 9, 82, 64
9, 55520, Note_on_c, 9, 70, 110
9, 55555, Note_off_c, 9, 70, 64
9, 55558, Note_off_c, 9, 46, 64
9, 55560, Note_on_c, 9, 82, 92
9, 55595, Note_off_c, 9, 82, 64
9, 55640, Note_on_c, 9, 70, 94
9, 55675, Note_off_c, 9, 70, 64
9, 55678, Note_off_c, 9, 38, 64
9, 55680, Note_on_c, 9, 44, 126
9, 55680, Note_on_c, 9, 82, 110
9, 55715, Note_off_c, 9, 82, 64
9, 55760, Note_on_c, 9, 70, 110
9, 55795, Note_off_c, 9, 70, 64
9, 55798, Note_off_c, 9, 44, 64
9, 55800, Note_on_c, 9, 44, 126
9, 55800, Note_on_c, 9, 82, 110
9, 55835, Note_off_c, 9, 82, 64
9, 55880, Note_on_c, 9, 70, 110
9, 55915, Note_off_c, 9, 70, 64
9, 55918, Note_off_c, 9, 44, 64
9, 55920, Note_on_c, 9, 46, 126
9, 55920, Note_on_c, 9, 38, 126
9, 55920, Note_on_c, 9, 82, 110
9, 55955, Note_off_c, 9, 82, 64
9, 56000, Note_on_c, 9, 70, 110
9, 56035, Note_off_c, 9, 70, 64
9, 56038, Note_off_c, 9, 46, 64
9, 56040, Note_on_c, 9, 82, 92
9, 56075, Note_off_c, 9, 82, 64
9, 56120, Note_on_c, 9, 70, 94
9, 56155, Note_off_c, 9, 70, 64
9, 56158, Note_off_c, 9, 38, 64
9, 56160, Note_on_c, 9, 44, 126
9, 56160, Note_on_c, 9, 82, 110
9, 56195, Note_off_c, 9, 82, 64
9, 56240, Note_on_c, 9, 70, 110
9, 56275, Note_off_c, 9, 70, 64
9, 56278, Note_off_c, 9, 44, 64
9, 56280, Note_on_c, 9, 44, 126
9, 56280, Note_on_c, 9, 82, 110
9, 56315, Note_off_c, 9, 82, 64
9, 56360, Note_on_c, 9, 70, 110
9, 56395, Note_off_c, 9, 70, 64
9, 56398, Note_off_c, 9, 44, 64
9, 56400, Note_on_c, 9, 46, 126
9, 56400, Note_on_c, 9, 38, 126
9, 56400, Note_on_c, 9, 82, 110
9, 56435, Note_off_c, 9, 82, 64
9, 56480, Note_on_c, 9, 70, 110
9, 56515, Note_off_c, 9, 70, 64
9, 56518, Note_off_c, 9, 46, 64
9, 56520, Note_on_c, 9, 82, 92
9, 56555, Note_off_c, 9, 82, 64
9, 56600, Note_on_c, 9, 70, 94
9, 56635, Note_off_c, 9, 70, 64
9, 56638, Note_off_c, 9, 38, 64
9, 56640, Note_on_c, 9, 44, 126
9, 56640, Note_on_c, 9, 82, 110
9, 56640, Note_on_c, 9, 38, 126
9, 56675, Note_off_c, 9, 82, 64
9, 56720, Note_on_c, 9, 70, 110
9, 56755, Note_off_c, 9, 70, 64
9, 56758, Note_off_c, 9, 44, 64
9, 56760, Note_on_c, 9, 44, 126
9, 56760, Note_on_c, 9, 82, 110
9, 56795, Note_off_c, 9, 82, 64
9, 56840, Note_on_c, 9, 70, 110
9, 56875, Note_off_c, 9, 70, 64
9, 56878, Note_off_c, 9, 38, 64
9, 56878, Note_off_c, 9, 44, 64
9, 56880, Note_on_c, 9, 46, 126
9, 56880, Note_on_c, 9, 38, 126
9, 56880, Note_on_c, 9, 82, 110
9, 56915, Note_off_c, 9, 82, 64
9, 56960, Note_on_c, 9, 70, 110
9, 56995, Note_off_c, 9, 70, 64
9, 56998, Note_off_c, 9, 46, 64
9, 57000, Note_on_c, 9, 82, 92
9, 57035, Note_off_c, 9, 82, 64
9, 57080, Note_on_c, 9, 70, 94
9, 57115, Note_off_c, 9, 70, 64
9, 57118, Note_off_c, 9, 38, 64
9, 57120, Note_on_c, 9, 44, 126
9, 57120, Note_on_c, 9, 82, 110
9, 57120, Note_on_c, 9, 38, 126
9, 57155, Note_off_c, 9, 82, 64
9, 57200, Note_on_c, 9, 70, 110
9, 57235, Note_off_c, 9, 70, 64
9, 57238, Note_off_c, 9, 44, 64
9, 57240, Note_on_c, 9, 44, 126
9, 57240, Note_on_c, 9, 82, 110
9, 57275, Note_off_c, 9, 82, 64
9, 57320, Note_on_c, 9, 70, 110
9, 57355, Note_off_c, 9, 70, 64
9, 57358, Note_off_c, 9, 38, 64
9, 57358, Note_off_c, 9, 44, 64
9, 57360, Note_on_c, 9, 46, 126
9, 57360, Note_on_c, 9, 38, 126
9, 57360, Note_on_c, 9, 82, 110
9, 57395, Note_off_c, 9, 82, 64
9, 57440, Note_on_c, 9, 70, 110
9, 57475, Note_off_c, 9, 70, 64
9, 57478, Note_off_c, 9, 46, 64
9, 57480, Note_on_c, 9, 82, 92
9, 57515, Note_off_c, 9, 82, 64
9, 57560, Note_on_c, 9, 70, 94
9, 57595, Note_off_c, 9, 70, 64
9, 57598, Note_off_c, 9, 38, 64
9, 57600, Note_on_c, 9, 44, 126
9, 57600, Note_on_c, 9, 82, 110
9, 57600, Note_on_c, 9, 38, 126
9, 57635, Note_off_c, 9, 82, 64
9, 57680, Note_on_c, 9, 70, 110
9, 57715, Note_off_c, 9, 70, 64
9, 57718, Note_off_c, 9, 44, 64
9, 57720, Note_on_c, 9, 44, 126
9, 57720, Note_on_c, 9, 82, 110
9, 57755, Note_off_c, 9, 82, 64
9, 57800, Note_on_c, 9, 70, 110
9, 57835, Note_off_c, 9, 70, 64
9, 57838, Note_off_c, 9, 38, 64
9, 57838, Note_off_c, 9, 44, 64
9, 57840, Note_on_c, 9, 46, 126
9, 57840, Note_on_c, 9, 38, 126
9, 57840, Note_on_c, 9, 82, 110
9, 57875, Note_off_c, 9, 82, 64
9, 57920, Note_on_c, 9, 70, 110
9, 57955, Note_off_c, 9, 70, 64
9, 57958, Note_off_c, 9, 46, 64
9, 57960, Note_on_c, 9, 82, 92
9, 57995, Note_off_c, 9, 82, 64
9, 58040, Note_on_c, 9, 70, 94
9, 58075, Note_off_c, 9, 70, 64
9, 58078, Note_off_c, 9, 38, 64
9, 58080, Note_on_c, 9, 44, 126
9, 58080, Note_on_c, 9, 82, 110
9, 58080, Note_on_c, 9, 38, 126
9, 58115, Note_off_c, 9, 82, 64
9, 58160, Note_on_c, 9, 70, 110
9, 58195, Note_off_c, 9, 70, 64
9, 58198, Note_off_c, 9, 44, 64
9, 58200, Note_on_c, 9, 44, 126
9, 58200, Note_on_c, 9, 82, 110
9, 58235, Note_off_c, 9, 82, 64
9, 58280, Note_on_c, 9, 70, 110
9, 58315, Note_off_c, 9, 70, 64
9, 58318, Note_off_c, 9, 38, 64
9, 58318, Note_off_c, 9, 44, 64
9, 58320, Note_on_c, 9, 46, 126
9, 58320, Note_on_c, 9, 38, 126
9, 58320, Note_on_c, 9, 82, 110
9, 58355, Note_off_c, 9, 82, 64
9, 58400, Note_on_c, 9, 70, 110
9, 58435, Note_off_c, 9, 70, 64
9, 58438, Note_off_c, 9, 46, 64
9, 58440, Note_on_c, 9, 82, 92
9, 58475, Note_off_c, 9, 82, 64
9, 58520, Note_on_c, 9, 70, 94
9, 58555, Note_off_c, 9, 70, 64
9, 58558, Note_off_c, 9, 38, 64
9, 58560, Note_on_c, 9, 82, 110
9, 58595, Note_off_c, 9, 82, 64
9, 58640, Note_on_c, 9, 70, 110
9, 58675, Note_off_c, 9, 70, 64
9, 58680, Note_on_c, 9, 82, 110
9, 58715, Note_off_c, 9, 82, 64
9, 58760, Note_on_c, 9, 70, 110
9, 58795, Note_off_c, 9, 70, 64
9, 58800, Note_on_c, 9, 82, 110
9, 58835, Note_off_c, 9, 82, 64
9, 58880, Note_on_c, 9, 70, 110
9, 58915, Note_off_c, 9, 70, 64
9, 58920, Note_on_c, 9, 46, 120
9, 58920, Note_on_c, 9, 82, 120
9, 58955, Note_off_c, 9, 82, 64
9, 59000, Note_on_c, 9, 70, 94
9, 59035, Note_off_c, 9, 70, 64
9, 59038, Note_off_c, 9, 46, 64
9, 59040, Note_on_c, 9, 46, 122
9, 59040, Note_on_c, 9, 82, 122
9, 59075, Note_off_c, 9, 82, 64
9, 59120, Note_on_c, 9, 70, 110
9, 59155, Note_off_c, 9, 70, 64
9, 59158, Note_off_c, 9, 46, 64
9, 59160, Note_on_c, 9, 46, 126
9, 59160, Note_on_c, 9, 82, 126
9, 59195, Note_off_c, 9, 82, 64
9, 59240, Note_on_c, 9, 70, 110
9, 59275, Note_off_c, 9, 70, 64
9, 59278, Note_off_c, 9, 46, 64
9, 59280, Note_on_c, 9, 38, 126
9, 59280, Note_on_c, 9, 82, 110
9, 59315, Note_off_c, 9, 38, 64
9, 59315, Note_off_c, 9, 82, 64
9, 59357, Note_on_c, 9, 38, 126
9, 59360, Note_on_c, 9, 70, 110
9, 59392, Note_off_c, 9, 38, 64
9, 59395, Note_off_c, 9, 70, 64
9, 59400, Note_on_c, 9, 38, 126
9, 59400, Note_on_c, 9, 82, 92
9, 59435, Note_off_c, 9, 38, 64
9, 59435, Note_off_c, 9, 82, 64
9, 59480, Note_on_c, 9, 70, 94
9, 59515, Note_off_c, 9, 70, 64
9, 59520, Note_on_c, 9, 44, 126
9, 59520, Note_on_c, 9, 82, 110
9, 59520, Note_on_c, 9, 57, 110
9, 59555, Note_off_c, 9, 82, 64
9, 59600, Note_on_c, 9, 70, 110
9, 59635, Note_off_c, 9, 70, 64
9, 59638, Note_off_c, 9, 44, 64
9, 59640, Note_on_c, 9, 44, 126
9, 59640, Note_on_c, 9, 82, 110
9, 59675, Note_off_c, 9, 82, 64
9, 59720, Note_on_c, 9, 70, 110
9, 59755, Note_off_c, 9, 70, 64
9, 59758, Note_off_c, 9, 44, 64
9, 59760, Note_on_c, 9, 46, 126
9, 59760, Note_on_c, 9, 38, 126
9, 59760, Note_on_c, 9, 82, 110
9, 59795, Note_off_c, 9, 82, 64
9, 59840, Note_on_c, 9, 70, 110
9, 59875, Note_off_c, 9, 70, 64
9, 59878, Note_off_c, 9, 46, 64
9, 59880, Note_on_c, 9, 82, 92
9, 59915, Note_off_c, 9, 82, 64
9, 59960, Note_on_c, 9, 70, 94
9, 59995, Note_off_c, 9, 70, 64
9, 59998, Note_off_c, 9, 38, 64
9, 60000, Note_on_c, 9, 44, 126
9, 60000, Note_on_c, 9, 82, 110
9, 60035, Note_off_c, 9, 82, 64
9, 60080, Note_on_c, 9, 70, 110
9, 60115, Note_off_c, 9, 70, 64
9, 60118, Note_off_c, 9, 44, 64
9, 60120, Note_on_c, 9, 44, 126
9, 60120, Note_on_c, 9, 82, 110
9, 60155, Note_off_c, 9, 82, 64
9, 60200, Note_on_c, 9, 70, 110
9, 60235, Note_off_c, 9, 70, 64
9, 60238, Note_off_c, 9, 44, 64
9, 60240, Note_on_c, 9, 46, 126
9, 60240, Note_on_c, 9, 38, 126
9, 60240, Note_on_c, 9, 82, 110
9, 60275, Note_off_c, 9, 82, 64
9, 60320, Note_on_c, 9, 70, 110
9, 60355, Note_off_c, 9, 70, 64
9, 60358, Note_off_c, 9, 46, 64
9, 60360, Note_on_c, 9, 82, 92
9, 60383, Note_off_c, 9, 57, 64
9, 60395, Note_off_c, 9, 82, 64
9, 60440, Note_on_c, 9, 70, 94
9, 60475, Note_off_c, 9, 70, 64
9, 60478, Note_off_c, 9, 38, 64
9, 60480, Note_on_c, 9, 44, 126
9, 60480, Note_on_c, 9, 82, 110
9, 60515, Note_off_c, 9, 82, 64
9, 60560, Note_on_c, 9, 70, 110
9, 60595, Note_off_c, 9, 70, 64
9, 60598, Note_off_c, 9, 44, 64
9, 60600, Note_on_c, 9, 44, 126
9, 60600, Note_on_c, 9, 82, 110
9, 60635, Note_off_c, 9, 82, 64
9, 60680, Note_on_c, 9, 70, 110
9, 60715, Note_off_c, 9, 70, 64
9, 60718, Note_off_c, 9, 44, 64
9, 60720, Note_on_c, 9, 46, 126
9, 60720, Note_on_c, 9, 38, 126
9, 60720, Note_on_c, 9, 82, 110
9, 60755, Note_off_c, 9, 82, 64
9, 60800, Note_on_c, 9, 70, 110
9, 60835, Note_off_c, 9, 70, 64
9, 60838, Note_off_c, 9, 46, 64
9, 60840, Note_on_c, 9, 82, 92
9, 60875, Note_off_c, 9, 82, 64
9, 60920, Note_on_c, 9, 70, 94
9, 60955, Note_off_c, 9, 70, 64
9, 60958, Note_off_c, 9, 38, 64
9, 60960, Note_on_c, 9, 44, 126
9, 60960, Note_on_c, 9, 82, 110
9, 60995, Note_off_c, 9, 82, 64
9, 61040, Note_on_c, 9, 70, 110
9, 61075, Note_off_c, 9, 70, 64
9, 61078, Note_off_c, 9, 44, 64
9, 61080, Note_on_c, 9, 44, 126
9, 61080, Note_on_c, 9, 82, 110
9, 61115, Note_off_c, 9, 82, 64
9, 61160, Note_on_c, 9, 70, 110
9, 61195, Note_off_c, 9, 70, 64
9, 61198, Note_off_c, 9, 44, 64
9, 61200, Note_on_c, 9, 46, 126
9, 61200, Note_on_c, 9, 38, 126
9, 61200, Note_on_c, 9, 82, 110
9, 61235, Note_off_c, 9, 82, 64
9, 61280, Note_on_c, 9, 70, 110
9, 61315, Note_off_c, 9, 70, 64
9, 61318, Note_off_c, 9, 46, 64
9, 61320, Note_on_c, 9, 82, 92
9, 61355, Note_off_c, 9, 82, 64
9, 61400, Note_on_c, 9, 70, 94
9, 61435, Note_off_c, 9, 70, 64
9, 61438, Note_off_c, 9, 38, 64
9, 61440, Note_on_c, 9, 44, 126
9, 61440, Note_on_c, 9, 82, 110
9, 61475, Note_off_c, 9, 82, 64
9, 61520, Note_on_c, 9, 70, 110
9, 61555, Note_off_c, 9, 70, 64
9, 61558, Note_off_c, 9, 44, 64
9, 61560, Note_on_c, 9, 44, 126
9, 61560, Note_on_c, 9, 82, 110
9, 61595, Note_off_c, 9, 82, 64
9, 61640, Note_on_c, 9, 70, 110
9, 61675, Note_off_c, 9, 70, 64
9, 61678, Note_off_c, 9, 44, 64
9, 61680, Note_on_c, 9, 46, 126
9, 61680, Note_on_c, 9, 38, 126
9, 61680, Note_on_c, 9, 82, 110
9, 61715, Note_off_c, 9, 82, 64
9, 61760, Note_on_c, 9, 70, 110
9, 61795, Note_off_c, 9, 70, 64
9, 61798, Note_off_c, 9, 46, 64
9, 61800, Note_on_c, 9, 82, 92
9, 61835, Note_off_c, 9, 82, 64
9, 61880, Note_on_c, 9, 70, 94
9, 61915, Note_off_c, 9, 70, 64
9, 61918, Note_off_c, 9, 38, 64
9, 61920, Note_on_c, 9, 44, 126
9, 61920, Note_on_c, 9, 82, 110
9, 61955, Note_off_c, 9, 82, 64
9, 62000, Note_on_c, 9, 70, 110
9, 62035, Note_off_c, 9, 70, 64
9, 62038, Note_off_c, 9, 44, 64
9, 62040, Note_on_c, 9, 44, 126
9, 62040, Note_on_c, 9, 82, 110
9, 62075, Note_off_c, 9, 82, 64
9, 62120, Note_on_c, 9, 70, 110
9, 62155, Note_off_c, 9, 70, 64
9, 62158, Note_off_c, 9, 44, 64
9, 62160, Note_on_c, 9, 46, 126
9, 62160, Note_on_c, 9, 38, 126
9, 62160, Note_on_c, 9, 82, 110
9, 62195, Note_off_c, 9, 82, 64
9, 62240, Note_on_c, 9, 70, 110
9, 62275, Note_off_c, 9, 70, 64
9, 62278, Note_off_c, 9, 46, 64
9, 62280, Note_on_c, 9, 82, 92
9, 62315, Note_off_c, 9, 82, 64
9, 62360, Note_on_c, 9, 70, 94
9, 62395, Note_off_c, 9, 70, 64
9, 62398, Note_off_c, 9, 38, 64
9, 62400, Note_on_c, 9, 44, 126
9, 62400, Note_on_c, 9, 82, 110
9, 62400, Note_on_c, 9, 38, 126
9, 62435, Note_off_c, 9, 82, 64
9, 62480, Note_on_c, 9, 70, 110
9, 62515, Note_off_c, 9, 70, 64
9, 62518, Note_off_c, 9, 44, 64
9, 62520, Note_on_c, 9, 44, 126
9, 62520, Note_on_c, 9, 82, 110
9, 62555, Note_off_c, 9, 82, 64
9, 62600, Note_on_c, 9, 70, 110
9, 62635, Note_off_c, 9, 70, 64
9, 62638, Note_off_c, 9, 38, 64
9, 62638, Note_off_c, 9, 44, 64
9, 62640, Note_on_c, 9, 46, 126
9, 62640, Note_on_c, 9, 38, 126
9, 62640, Note_on_c, 9, 82, 110
9, 62675, Note_off_c, 9, 82, 64
9, 62720, Note_on_c, 9, 70, 110
9, 62755, Note_off_c, 9, 70, 64
9, 62758, Note_off_c, 9, 46, 64
9, 62760, Note_on_c, 9, 82, 92
9, 62795, Note_off_c, 9, 82, 64
9, 62840, Note_on_c, 9, 70, 94
9, 62875, Note_off_c, 9, 70, 64
9, 62878, Note_off_c, 9, 38, 64
9, 62880, Note_on_c, 9, 44, 126
9, 62880, Note_on_c, 9, 82, 110
9, 62880, Note_on_c, 9, 38, 126
9, 62915, Note_off_c, 9, 82, 64
9, 62960, Note_on_c, 9, 70, 110
9, 62995, Note_off_c, 9, 70, 64
9, 62998, Note_off_c, 9, 44, 64
9, 63000, Note_on_c, 9, 44, 126
9, 63000, Note_on_c, 9, 82, 110
9, 63035, Note_off_c, 9, 82, 64
9, 63080, Note_on_c, 9, 70, 110
9, 63115, Note_off_c, 9, 70, 64
9, 63118, Note_off_c, 9, 38, 64
9, 63118, Note_off_c, 9, 44, 64
9, 63120, Note_on_c, 9, 46, 126
9, 63120, Note_on_c, 9, 38, 126
9, 63120, Note_on_c, 9, 82, 110
9, 63155, Note_off_c, 9, 82, 64
9, 63200, Note_on_c, 9, 70, 110
9, 63235, Note_off_c, 9, 70, 64
9, 63238, Note_off_c, 9, 46, 64
9, 63240, Note_on_c, 9, 82, 92
9, 63275, Note_off_c, 9, 82, 64
9, 63320, Note_on_c, 9, 70, 94
9, 63355, Note_off_c, 9, 70, 64
9, 63358, Note_off_c, 9, 38, 64
9, 63360, Note_on_c, 9, 44, 126
9, 63360, Note_on_c, 9, 82, 110
9, 63360, Note_on_c, 9, 38, 126
9, 63395, Note_off_c, 9, 82, 64
9, 63440, Note_on_c, 9, 70, 110
9, 63475, Note_off_c, 9, 70, 64
9, 63478, Note_off_c, 9, 44, 64
9, 63480, Note_on_c, 9, 44, 126
9, 63480, Note_on_c, 9, 82, 110
9, 63515, Note_off_c, 9, 82, 64
9, 63560, Note_on_c, 9, 70, 110
9, 63595, Note_off_c, 9, 70, 64
9, 63598, Note_off_c, 9, 38, 64
9, 63598, Note_off_c, 9, 44, 64
9, 63600, Note_on_c, 9, 46, 126
9, 63600, Note_on_c, 9, 38, 126
9, 63600, Note_on_c, 9, 82, 110
9, 63635, Note_off_c, 9, 82, 64
9, 63680, Note_on_c, 9, 70, 110
9, 63715, Note_off_c, 9, 70, 64
9, 63718, Note_off_c, 9, 46, 64
9, 63720, Note_on_c, 9, 82, 92
9, 63755, Note_off_c, 9, 82, 64
9, 63800, Note_on_c, 9, 70, 94
9, 63835, Note_off_c, 9, 70, 64
9, 63838, Note_off_c, 9, 38, 64
9, 63840, Note_on_c, 9, 44, 126
9, 63840, Note_on_c, 9, 82, 110
9, 63840, Note_on_c, 9, 38, 126
9, 63875, Note_off_c, 9, 82, 64
9, 63920, Note_on_c, 9, 70, 110
9, 63955, Note_off_c, 9, 70, 64
9, 63958, Note_off_c, 9, 44, 64
9, 63960, Note_on_c, 9, 44, 126
9, 63960, Note_on_c, 9, 82, 110
9, 63995, Note_off_c, 9, 82, 64
9, 64040, Note_on_c, 9, 70, 110
9, 64075, Note_off_c, 9, 70, 64
9, 64078, Note_off_c, 9, 38, 64
9, 64078, Note_off_c, 9, 44, 64
9, 64080, Note_on_c, 9, 46, 126
9, 64080, Note_on_c, 9, 38, 126
9, 64080, Note_on_c, 9, 82, 110
9, 64115, Note_off_c, 9, 82, 64
9, 64160, Note_on_c, 9, 70, 110
9, 64195, Note_off_c, 9, 70, 64
9, 64198, Note_off_c, 9, 46, 64
9, 64200, Note_on_c, 9, 82, 92
9, 64235, Note_off_c, 9, 82, 64
9, 64280, Note_on_c, 9, 70, 94
9, 64315, Note_off_c, 9, 70, 64
9, 64318, Note_off_c, 9, 38, 64
9, 64320, Note_on_c, 9, 44, 126
9, 64320, Note_on_c, 9, 82, 110
9, 64355, Note_off_c, 9, 82, 64
9, 64400, Note_on_c, 9, 70, 110
9, 64435, Note_off_c, 9, 70, 64
9, 64438, Note_off_c, 9, 44, 64
9, 64440, Note_on_c, 9, 44, 126
9, 64440, Note_on_c, 9, 82, 110
9, 64475, Note_off_c, 9, 82, 64
9, 64520, Note_on_c, 9, 70, 110
9, 64555, Note_off_c, 9, 70, 64
9, 64558, Note_off_c, 9, 44, 64
9, 64560, Note_on_c, 9, 46, 126
9, 64560, Note_on_c, 9, 38, 126
9, 64560, Note_on_c, 9, 82, 110
9, 64595, Note_off_c, 9, 82, 64
9, 64640, Note_on_c, 9, 70, 110
9, 64675, Note_off_c, 9, 70, 64
9, 64678, Note_off_c, 9, 46, 64
9, 64680, Note_on_c, 9, 82, 92
9, 64715, Note_off_c, 9, 82, 64
9, 64760, Note_on_c, 9, 70, 94
9, 64795, Note_off_c, 9, 70, 64
9, 64798, Note_off_c, 9, 38, 64
9, 64800, Note_on_c, 9, 44, 126
9, 64800, Note_on_c, 9, 82, 110
9, 64835, Note_off_c, 9, 82, 64
9, 64880, Note_on_c, 9, 70, 110
9, 64915, Note_off_c, 9, 70, 64
9, 64918, Note_off_c, 9, 44, 64
9, 64920, Note_on_c, 9, 44, 126
9, 64920, Note_on_c, 9, 82, 110
9, 64955, Note_off_c, 9, 82, 64
9, 65000, Note_on_c, 9, 70, 110
9, 65035, Note_off_c, 9, 70, 64
9, 65038, Note_off_c, 9, 44, 64
9, 65040, Note_on_c, 9, 46, 126
9, 65040, Note_on_c, 9, 38, 126
9, 65040, Note_on_c, 9, 82, 110
9, 65075, Note_off_c, 9, 82, 64
9, 65120, Note_on_c, 9, 70, 110
9, 65155, Note_off_c, 9, 70, 64
9, 65158, Note_off_c, 9, 46, 64
9, 65160, Note_on_c, 9, 82, 92
9, 65195, Note_off_c, 9, 82, 64
9, 65240, Note_on_c, 9, 70, 94
9, 65275, Note_off_c, 9, 70, 64
9, 65278, Note_off_c, 9, 38, 64
9, 65280, Note_on_c, 9, 44, 126
9, 65280, Note_on_c, 9, 82, 110
9, 65315, Note_off_c, 9, 82, 64
9, 65360, Note_on_c, 9, 70, 110
9, 65395, Note_off_c, 9, 70, 64
9, 65398, Note_off_c, 9, 44, 64
9, 65400, Note_on_c, 9, 44, 126
9, 65400, Note_on_c, 9, 82, 110
9, 65435, Note_off_c, 9, 82, 64
9, 65480, Note_on_c, 9, 70, 110
9, 65515, Note_off_c, 9, 70, 64
9, 65518, Note_off_c, 9, 44, 64
9, 65520, Note_on_c, 9, 46, 126
9, 65520, Note_on_c, 9, 38, 126
9, 65520, Note_on_c, 9, 82, 110
9, 65555, Note_off_c, 9, 82, 64
9, 65600, Note_on_c, 9, 70, 110
9, 65635, Note_off_c, 9, 70, 64
9, 65638, Note_off_c, 9, 46, 64
9, 65640, Note_on_c, 9, 82, 92
9, 65675, Note_off_c, 9, 82, 64
9, 65720, Note_on_c, 9, 70, 94
9, 65755, Note_off_c, 9, 70, 64
9, 65758, Note_off_c, 9, 38, 64
9, 65760, Note_on_c, 9, 44, 126
9, 65760, Note_on_c, 9, 82, 110
9, 65795, Note_off_c, 9, 82, 64
9, 65840, Note_on_c, 9, 70, 110
9, 65875, Note_off_c, 9, 70, 64
9, 65878, Note_off_c, 9, 44, 64
9, 65880, Note_on_c, 9, 44, 126
9, 65880, Note_on_c, 9, 82, 110
9, 65915, Note_off_c, 9, 82, 64
9, 65960, Note_on_c, 9, 70, 110
9, 65995, Note_off_c, 9, 70, 64
9, 65998, Note_off_c, 9, 44, 64
9, 66000, Note_on_c, 9, 46, 126
9, 66000, Note_on_c, 9, 38, 126
9, 66000, Note_on_c, 9, 82, 110
9, 66035, Note_off_c, 9, 82, 64
9, 66080, Note_on_c, 9, 70, 110
9, 66115, Note_off_c, 9, 70, 64
9, 66118, Note_off_c, 9, 46, 64
9, 66120, Note_on_c, 9, 82, 92
9, 66155, Note_off_c, 9, 82, 64
9, 66200, Note_on_c, 9, 70, 94
9, 66235, Note_off_c, 9, 70, 64
9, 66238, Note_off_c, 9, 38, 64
9, 66240, Note_on_c, 9, 44, 126
9, 66240, Note_on_c, 9, 82, 110
9, 66275, Note_off_c, 9, 82, 64
9, 66320, Note_on_c, 9, 70, 110
9, 66355, Note_off_c, 9, 70, 64
9, 66358, Note_off_c, 9, 44, 64
9, 66360, Note_on_c, 9, 44, 126
9, 66360, Note_on_c, 9, 82, 110
9, 66395, Note_off_c, 9, 82, 64
9, 66440, Note_on_c, 9, 70, 110
9, 66475, Note_off_c, 9, 70, 64
9, 66478, Note_off_c, 9, 44, 64
9, 66480, Note_on_c, 9, 46, 126
9, 66480, Note_on_c, 9, 38, 126
9, 66480, Note_on_c, 9, 82, 110
9, 66515, Note_off_c, 9, 82, 64
9, 66560, Note_on_c, 9, 70, 110
9, 66595, Note_off_c, 9, 70, 64
9, 66598, Note_off_c, 9, 46, 64
9, 66600, Note_on_c, 9, 82, 92
9, 66635, Note_off_c, 9, 82, 64
9, 66680, Note_on_c, 9, 70, 94
9, 66715, Note_off_c, 9, 70, 64
9, 66718, Note_off_c, 9, 38, 64
9, 66720, Note_on_c, 9, 44, 126
9, 66720, Note_on_c, 9, 82, 110
9, 66755, Note_off_c, 9, 82, 64
9, 66800, Note_on_c, 9, 70, 110
9, 66835, Note_off_c, 9, 70, 64
9, 66838, Note_off_c, 9, 44, 64
9, 66840, Note_on_c, 9, 44, 126
9, 66840, Note_on_c, 9, 82, 110
9, 66875, Note_off_c, 9, 82, 64
9, 66920, Note_on_c, 9, 70, 110
9, 66955, Note_off_c, 9, 70, 64
9, 66958, Note_off_c, 9, 44, 64
9, 66960, Note_on_c, 9, 46, 126
9, 66960, Note_on_c, 9, 38, 126
9, 66960, Note_on_c, 9, 82, 110
9, 66995, Note_off_c, 9, 82, 64
9, 67040, Note_on_c, 9, 70, 110
9, 67075, Note_off_c, 9, 70, 64
9, 67078, Note_off_c, 9, 46, 64
9, 67080, Note_on_c, 9, 82, 92
9, 67115, Note_off_c, 9, 82, 64
9, 67160, Note_on_c, 9, 70, 94
9, 67195, Note_off_c, 9, 70, 64
9, 67198, Note_off_c, 9, 38, 64
9, 67200, Note_on_c, 9, 44, 126
9, 67200, Note_on_c, 9, 82, 110
9, 67235, Note_off_c, 9, 82, 64
9, 67280, Note_on_c, 9, 70, 110
9, 67315, Note_off_c, 9, 70, 64
9, 67318, Note_off_c, 9, 44, 64
9, 67320, Note_on_c, 9, 44, 126
9, 67320, Note_on_c, 9, 82, 110
9, 67355, Note_off_c, 9, 82, 64
9, 67400, Note_on_c, 9, 70, 110
9, 67435, Note_off_c, 9, 70, 64
9, 67438, Note_off_c, 9, 44, 64
9, 67440, Note_on_c, 9, 46, 126
9, 67440, Note_on_c, 9, 38, 126
9, 67440, Note_on_c, 9, 82, 110
9, 67475, Note_off_c, 9, 82, 64
9, 67520, Note_on_c, 9, 70, 110
9, 67555, Note_off_c, 9, 70, 64
9, 67558, Note_off_c, 9, 46, 64
9, 67560, Note_on_c, 9, 82, 92
9, 67595, Note_off_c, 9, 82, 64
9, 67640, Note_on_c, 9, 70, 94
9, 67675, Note_off_c, 9, 70, 64
9, 67678, Note_off_c, 9, 38, 64
9, 67680, Note_on_c, 9, 44, 126
9, 67680, Note_on_c, 9, 82, 110
9, 67715, Note_off_c, 9, 82, 64
9, 67760, Note_on_c, 9, 70, 110
9, 67795, Note_off_c, 9, 70, 64
9, 67798, Note_off_c, 9, 44, 64
9, 67800, Note_on_c, 9, 44, 126
9, 67800, Note_on_c, 9, 82, 110
9, 67835, Note_off_c, 9, 82, 64
9, 67880, Note_on_c, 9, 70, 110
9, 67915, Note_off_c, 9, 70, 64
9, 67918, Note_off_c, 9, 44, 64
9, 67920, Note_on_c, 9, 46, 126
9, 67920, Note_on_c, 9, 38, 126
9, 67920, Note_on_c, 9, 82, 110
9, 67955, Note_off_c, 9, 82, 64
9, 68000, Note_on_c, 9, 70, 110
9, 68035, Note_off_c, 9, 70, 64
9, 68038, Note_off_c, 9, 46, 64
9, 68040, Note_on_c, 9, 82, 92
9, 68075, Note_off_c, 9, 82, 64
9, 68120, Note_on_c, 9, 70, 94
9, 68155, Note_off_c, 9, 70, 64
9, 68158, Note_off_c, 9, 38, 64
9, 68160, Note_on_c, 9, 44, 126
9, 68160, Note_on_c, 9, 82, 110
9, 68195, Note_off_c, 9, 82, 64
9, 68240, Note_on_c, 9, 70, 110
9, 68275, Note_off_c, 9, 70, 64
9, 68278, Note_off_c, 9, 44, 64
9, 68280, Note_on_c, 9, 44, 126
9, 68280, Note_on_c, 9, 82, 110
9, 68315, Note_off_c, 9, 82, 64
9, 68360, Note_on_c, 9, 70, 110
9, 68395, Note_off_c, 9, 70, 64
9, 68398, Note_off_c, 9, 44, 64
9, 68400, Note_on_c, 9, 46, 126
9, 68400, Note_on_c, 9, 38, 126
9, 68400, Note_on_c, 9, 82, 110
9, 68435, Note_off_c, 9, 82, 64
9, 68480, Note_on_c, 9, 70, 110
9, 68515, Note_off_c, 9, 70, 64
9, 68518, Note_off_c, 9, 46, 64
9, 68520, Note_on_c, 9, 82, 92
9, 68555, Note_off_c, 9, 82, 64
9, 68600, Note_on_c, 9, 70, 94
9, 68635, Note_off_c, 9, 70, 64
9, 68638, Note_off_c, 9, 38, 64
9, 68640, Note_on_c, 9, 44, 126
9, 68640, Note_on_c, 9, 82, 110
9, 68675, Note_off_c, 9, 82, 64
9, 68720, Note_on_c, 9, 70, 110
9, 68755, Note_off_c, 9, 70, 64
9, 68758, Note_off_c, 9, 44, 64
9, 68760, Note_on_c, 9, 44, 126
9, 68760, Note_on_c, 9, 82, 110
9, 68795, Note_off_c, 9, 82, 64
9, 68840, Note_on_c, 9, 70, 110
9, 68875, Note_off_c, 9, 70, 64
9, 68878, Note_off_c, 9, 44, 64
9, 68880, Note_on_c, 9, 46, 126
9, 68880, Note_on_c, 9, 38, 126
9, 68880, Note_on_c, 9, 82, 110
9, 68915, Note_off_c, 9, 82, 64
9, 68960, Note_on_c, 9, 70, 110
9, 68995, Note_off_c, 9, 70, 64
9, 68998, Note_off_c, 9, 46, 64
9, 69000, Note_on_c, 9, 82, 92
9, 69035, Note_off_c, 9, 82, 64
9, 69080, Note_on_c, 9, 70, 94
9, 69115, Note_off_c, 9, 70, 64
9, 69118, Note_off_c, 9, 38, 64
9, 69120, Note_on_c, 9, 44, 126
9, 69120, Note_on_c, 9, 82, 110
9, 69155, Note_off_c, 9, 82, 64
9, 69200, Note_on_c, 9, 70, 110
9, 69235, Note_off_c, 9, 70, 64
9, 69238, Note_off_c, 9, 44, 64
9, 69240, Note_on_c, 9, 44, 126
9, 69240, Note_on_c, 9, 82, 110
9, 69275, Note_off_c, 9, 82, 64
9, 69320, Note_on_c, 9, 70, 110
9, 69355, Note_off_c, 9, 70, 64
9, 69358, Note_off_c, 9, 44, 64
9, 69360, Note_on_c, 9, 46, 126
9, 69360, Note_on_c, 9, 38, 126
9, 69360, Note_on_c, 9, 82, 110
9, 69395, Note_off_c, 9, 82, 64
9, 69440, Note_on_c, 9, 70, 110
9, 69475, Note_off_c, 9, 70, 64
9, 69478, Note_off_c, 9, 46, 64
9, 69480, Note_on_c, 9, 82, 92
9, 69515, Note_off_c, 9, 82, 64
9, 69560, Note_on_c, 9, 70, 94
9, 69595, Note_off_c, 9, 70, 64
9, 69598, Note_off_c, 9, 38, 64
9, 69600, Note_on_c, 9, 44, 126
9, 69600, Note_on_c, 9, 82, 110
9, 69635, Note_off_c, 9, 82, 64
9, 69680, Note_on_c, 9, 70, 110
9, 69715, Note_off_c, 9, 70, 64
9, 69718, Note_off_c, 9, 44, 64
9, 69720, Note_on_c, 9, 44, 126
9, 69720, Note_on_c, 9, 82, 110
9, 69755, Note_off_c, 9, 82, 64
9, 69800, Note_on_c, 9, 70, 110
9, 69835, Note_off_c, 9, 70, 64
9, 69838, Note_off_c, 9, 44, 64
9, 69840, Note_on_c, 9, 46, 126
9, 69840, Note_on_c, 9, 38, 126
9, 69840, Note_on_c, 9, 82, 110
9, 69875, Note_off_c, 9, 82, 64
9, 69920, Note_on_c, 9, 70, 110
9, 69955, Note_off_c, 9, 70, 64
9, 69958, Note_off_c, 9, 46, 64
9, 69960, Note_on_c, 9, 82, 92
9, 69995, Note_off_c, 9, 82, 64
9, 70040, Note_on_c, 9, 70, 94
9, 70075, Note_off_c, 9, 70, 64
9, 70078, Note_off_c, 9, 38, 64
9, 70080, Note_on_c, 9, 44, 126
9, 70080, Note_on_c, 9, 82, 110
9, 70115, Note_off_c, 9, 82, 64
9, 70160, Note_on_c, 9, 70, 110
9, 70195, Note_off_c, 9, 70, 64
9, 70198, Note_off_c, 9, 44, 64
9, 70200, Note_on_c, 9, 44, 126
9, 70200, Note_on_c, 9, 82, 110
9, 70235, Note_off_c, 9, 82, 64
9, 70280, Note_on_c, 9, 70, 110
9, 70315, Note_off_c, 9, 70, 64
9, 70318, Note_off_c, 9, 44, 64
9, 70320, Note_on_c, 9, 46, 126
9, 70320, Note_on_c, 9, 38, 126
9, 70320, Note_on_c, 9, 82, 110
9, 70355, Note_off_c, 9, 82, 64
9, 70400, Note_on_c, 9, 70, 110
9, 70435, Note_off_c, 9, 70, 64
9, 70438, Note_off_c, 9, 46, 64
9, 70440, Note_on_c, 9, 82, 92
9, 70475, Note_off_c, 9, 82, 64
9, 70520, Note_on_c, 9, 70, 94
9, 70555, Note_off_c, 9, 70, 64
9, 70558, Note_off_c, 9, 38, 64
9, 70560, Note_on_c, 9, 82, 118
9, 70560, Note_on_c, 9, 47, 118
9, 70595, Note_off_c, 9, 82, 64
9, 70595, Note_off_c, 9, 47, 64
9, 70637, Note_on_c, 9, 38, 118
9, 70640, Note_on_c, 9, 70, 118
9, 70672, Note_off_c, 9, 38, 64
9, 70675, Note_off_c, 9, 70, 64
9, 70680, Note_on_c, 9, 82, 118
9, 70680, Note_on_c, 9, 45, 118
9, 70715, Note_off_c, 9, 82, 64
9, 70715, Note_off_c, 9, 45, 64
9, 70757, Note_on_c, 9, 43, 118
9, 70760, Note_on_c, 9, 70, 118
9, 70792, Note_off_c, 9, 43, 64
9, 70795, Note_off_c, 9, 70, 64
9, 70800, Note_on_c, 9, 82, 118
9, 70800, Note_on_c, 9, 38, 118
9, 70835, Note_off_c, 9, 82, 64
9, 70835, Note_off_c, 9, 38, 64
9, 70877, Note_on_c, 9, 38, 118
9, 70880, Note_on_c, 9, 70, 118
9, 70912, Note_off_c, 9, 38, 64
9, 70915, Note_off_c, 9, 70, 64
9, 70920, Note_on_c, 9, 82, 118
9, 70920, Note_on_c, 9, 43, 118
9, 70955, Note_off_c, 9, 82, 64
9, 70955, Note_off_c, 9, 43, 64
9, 71000, Note_on_c, 9, 70, 94
9, 71035, Note_off_c, 9, 70, 64
9, 71040, Note_on_c, 9, 44, 126
9, 71040, Note_on_c, 9, 57, 126
9, 71040, Note_on_c, 9, 82, 110
9, 71075, Note_off_c, 9, 82, 64
9, 71120, Note_on_c, 9, 70, 110
9, 71155, Note_off_c, 9, 70, 64
9, 71158, Note_off_c, 9, 44, 64
9, 71160, Note_on_c, 9, 44, 126
9, 71160, Note_on_c, 9, 82, 110
9, 71195, Note_off_c, 9, 82, 64
9, 71240, Note_on_c, 9, 70, 110
9, 71275, Note_off_c, 9, 70, 64
9, 71278, Note_off_c, 9, 44, 64
9, 71280, Note_on_c, 9, 46, 126
9, 71280, Note_on_c, 9, 38, 126
9, 71280, Note_on_c, 9, 82, 110
9, 71315, Note_off_c, 9, 82, 64
9, 71360, Note_on_c, 9, 70, 110
9, 71395, Note_off_c, 9, 70, 64
9, 71398, Note_off_c, 9, 46, 64
9, 71400, Note_on_c, 9, 82, 92
9, 71435, Note_off_c, 9, 82, 64
9, 71480, Note_on_c, 9, 70, 94
9, 71515, Note_off_c, 9, 70, 64
9, 71518, Note_off_c, 9, 38, 64
9, 71520, Note_on_c, 9, 44, 126
9, 71520, Note_on_c, 9, 82, 110
9, 71555, Note_off_c, 9, 82, 64
9, 71600, Note_on_c, 9, 70, 110
9, 71635, Note_off_c, 9, 70, 64
9, 71638, Note_off_c, 9, 44, 64
9, 71640, Note_on_c, 9, 44, 126
9, 71640, Note_on_c, 9, 82, 110
9, 71675, Note_off_c, 9, 82, 64
9, 71717, Note_on_c, 9, 43, 64
9, 71720, Note_on_c, 9, 70, 64
9, 71752, Note_off_c, 9, 43, 64
9, 71755, Note_off_c, 9, 70, 64
9, 71758, Note_off_c, 9, 44, 64
9, 71760, Note_on_c, 9, 46, 126
9, 71760, Note_on_c, 9, 82, 110
9, 71760, Note_on_c, 9, 38, 126
9, 71795, Note_off_c, 9, 82, 64
9, 71837, Note_on_c, 9, 38, 88
9, 71839, Note_off_c, 9, 38, 64
9, 71839, Note_off_c, 9, 38, 64
9, 71840, Note_on_c, 9, 70, 88
9, 71875, Note_off_c, 9, 70, 64
9, 71878, Note_off_c, 9, 46, 64
9, 71880, Note_on_c, 9, 82, 78
9, 71880, Note_on_c, 9, 43, 78
9, 71915, Note_off_c, 9, 82, 64
9, 71915, Note_off_c, 9, 43, 64
9, 71960, Note_on_c, 9, 70, 94
9, 71966, Note_off_c, 9, 57, 64
9, 71995, Note_off_c, 9, 70, 64
9, 72000, Note_on_c, 9, 44, 126
9, 72000, Note_on_c, 9, 82, 110
9, 72035, Note_off_c, 9, 82, 64
9, 72080, Note_on_c, 9, 70, 110
9, 72115, Note_off_c, 9, 70, 64
9, 72118, Note_off_c, 9, 44, 64
9, 72120, Note_on_c, 9, 44, 126
9, 72120, Note_on_c, 9, 82, 110
9, 72155, Note_off_c, 9, 82, 64
9, 72197, Note_on_c, 9, 43, 60
9, 72200, Note_on_c, 9, 70, 110
9, 72232, Note_off_c, 9, 43, 64
9, 72235, Note_off_c, 9, 70, 64
9, 72238, Note_off_c, 9, 44, 64
9, 72240, Note_on_c, 9, 46, 126
9, 72240, Note_on_c, 9, 38, 126
9, 72240, Note_on_c, 9, 82, 110
9, 72275, Note_off_c, 9, 82, 64
9, 72320, Note_on_c, 9, 70, 110
9, 72355, Note_off_c, 9, 70, 64
9, 72358, Note_off_c, 9, 46, 64
9, 72360, Note_on_c, 9, 82, 92
9, 72395, Note_off_c, 9, 82, 64
9, 72440, Note_on_c, 9, 70, 94
9, 72475, Note_off_c, 9, 70, 64
9, 72478, Note_off_c, 9, 38, 64
9, 72480, Note_on_c, 9, 44, 126
9, 72480, Note_on_c, 9, 82, 110
9, 72515, Note_off_c, 9, 82, 64
9, 72560, Note_on_c, 9, 70, 110
9, 72595, Note_off_c, 9, 70, 64
9, 72598, Note_off_c, 9, 44, 64
9, 72600, Note_on_c, 9, 44, 126
9, 72600, Note_on_c, 9, 82, 110
9, 72635, Note_off_c, 9, 82, 64
9, 72677, Note_on_c, 9, 43, 60
9, 72680, Note_on_c, 9, 70, 60
9, 72712, Note_off_c, 9, 43, 64
9, 72715, Note_off_c, 9, 70, 64
9, 72718, Note_off_c, 9, 44, 64
9, 72720, Note_on_c, 9, 46, 126
9, 72720, Note_on_c, 9, 82, 110
9, 72720, Note_on_c, 9, 38, 126
9, 72755, Note_off_c, 9, 82, 64
9, 72796, Note_off_c, 9, 38, 64
9, 72797, Note_on_c, 9, 38, 88
9, 72800, Note_on_c, 9, 70, 88
9, 72832, Note_off_c, 9, 38, 64
9, 72835, Note_off_c, 9, 70, 64
9, 72838, Note_off_c, 9, 46, 64
9, 72840, Note_on_c, 9, 82, 78
9, 72840, Note_on_c, 9, 43, 78
9, 72875, Note_off_c, 9, 82, 64
9, 72875, Note_off_c, 9, 43, 64
9, 72920, Note_on_c, 9, 70, 94
9, 72955, Note_off_c, 9, 70, 64
9, 72960, Note_on_c, 9, 44, 126
9, 72960, Note_on_c, 9, 82, 110
9, 72995, Note_off_c, 9, 82, 64
9, 73040, Note_on_c, 9, 70, 110
9, 73075, Note_off_c, 9, 70, 64
9, 73078, Note_off_c, 9, 44, 64
9, 73080, Note_on_c, 9, 44, 126
9, 73080, Note_on_c, 9, 82, 110
9, 73115, Note_off_c, 9, 82, 64
9, 73160, Note_on_c, 9, 70, 110
9, 73195, Note_off_c, 9, 70, 64
9, 73198, Note_off_c, 9, 44, 64
9, 73200, Note_on_c, 9, 46, 126
9, 73200, Note_on_c, 9, 38, 126
9, 73200, Note_on_c, 9, 82, 110
9, 73235, Note_off_c, 9, 82, 64
9, 73280, Note_on_c, 9, 70, 110
9, 73315, Note_off_c, 9, 70, 64
9, 73318, Note_off_c, 9, 46, 64
9, 73320, Note_on_c, 9, 82, 92
9, 73355, Note_off_c, 9, 82, 64
9, 73400, Note_on_c, 9, 70, 94
9, 73435, Note_off_c, 9, 70, 64
9, 73438, Note_off_c, 9, 38, 64
9, 73440, Note_on_c, 9, 44, 126
9, 73440, Note_on_c, 9, 82, 110
9, 73475, Note_off_c, 9, 82, 64
9, 73520, Note_on_c, 9, 70, 110
9, 73555, Note_off_c, 9, 70, 64
9, 73558, Note_off_c, 9, 44, 64
9, 73560, Note_on_c, 9, 44, 126
9, 73560, Note_on_c, 9, 82, 110
9, 73595, Note_off_c, 9, 82, 64
9, 73637, Note_on_c, 9, 43, 64
9, 73640, Note_on_c, 9, 70, 64
9, 73672, Note_off_c, 9, 43, 64
9, 73675, Note_off_c, 9, 70, 64
9, 73678, Note_off_c, 9, 44, 64
9, 73680, Note_on_c, 9, 46, 126
9, 73680, Note_on_c, 9, 82, 110
9, 73680, Note_on_c, 9, 38, 126
9, 73715, Note_off_c, 9, 82, 64
9, 73757, Note_on_c, 9, 38, 88
9, 73759, Note_off_c, 9, 38, 64
9, 73759, Note_off_c, 9, 38, 64
9, 73760, Note_on_c, 9, 70, 88
9, 73795, Note_off_c, 9, 70, 64
9, 73798, Note_off_c, 9, 46, 64
9, 73800, Note_on_c, 9, 82, 78
9, 73800, Note_on_c, 9, 43, 78
9, 73835, Note_off_c, 9, 82, 64
9, 73835, Note_off_c, 9, 43, 64
9, 73880, Note_on_c, 9, 70, 94
9, 73915, Note_off_c, 9, 70, 64
9, 73920, Note_on_c, 9, 44, 126
9, 73920, Note_on_c, 9, 82, 110
9, 73955, Note_off_c, 9, 82, 64
9, 74000, Note_on_c, 9, 70, 110
9, 74035, Note_off_c, 9, 70, 64
9, 74038, Note_off_c, 9, 44, 64
9, 74040, Note_on_c, 9, 44, 126
9, 74040, Note_on_c, 9, 82, 110
9, 74075, Note_off_c, 9, 82, 64
9, 74120, Note_on_c, 9, 70, 110
9, 74155, Note_off_c, 9, 70, 64
9, 74158, Note_off_c, 9, 44, 64
9, 74160, Note_on_c, 9, 46, 126
9, 74160, Note_on_c, 9, 38, 126
9, 74160, Note_on_c, 9, 82, 110
9, 74195, Note_off_c, 9, 82, 64
9, 74240, Note_on_c, 9, 70, 110
9, 74275, Note_off_c, 9, 70, 64
9, 74278, Note_off_c, 9, 46, 64
9, 74280, Note_on_c, 9, 82, 92
9, 74315, Note_off_c, 9, 82, 64
9, 74360, Note_on_c, 9, 70, 94
9, 74395, Note_off_c, 9, 70, 64
9, 74398, Note_off_c, 9, 38, 64
9, 74400, Note_on_c, 9, 82, 118
9, 74400, Note_on_c, 9, 47, 118
9, 74435, Note_off_c, 9, 82, 64
9, 74435, Note_off_c, 9, 47, 64
9, 74477, Note_on_c, 9, 38, 118
9, 74480, Note_on_c, 9, 70, 118
9, 74512, Note_off_c, 9, 38, 64
9, 74515, Note_off_c, 9, 70, 64
9, 74520, Note_on_c, 9, 82, 118
9, 74520, Note_on_c, 9, 45, 118
9, 74555, Note_off_c, 9, 82, 64
9, 74555, Note_off_c, 9, 45, 64
9, 74597, Note_on_c, 9, 43, 118
9, 74600, Note_on_c, 9, 70, 118
9, 74632, Note_off_c, 9, 43, 64
9, 74635, Note_off_c, 9, 70, 64
9, 74640, Note_on_c, 9, 82, 118
9, 74640, Note_on_c, 9, 38, 118
9, 74675, Note_off_c, 9, 82, 64
9, 74675, Note_off_c, 9, 38, 64
9, 74717, Note_on_c, 9, 38, 118
9, 74720, Note_on_c, 9, 70, 118
9, 74752, Note_off_c, 9, 38, 64
9, 74755, Note_off_c, 9, 70, 64
9, 74760, Note_on_c, 9, 82, 118
9, 74760, Note_on_c, 9, 43, 118
9, 74795, Note_off_c, 9, 82, 64
9, 74795, Note_off_c, 9, 43, 64
9, 74840, Note_on_c, 9, 70, 94
9, 74875, Note_off_c, 9, 70, 64
9, 74880, Note_on_c, 9, 44, 126
9, 74880, Note_on_c, 9, 82, 110
9, 74915, Note_off_c, 9, 82, 64
9, 74960, Note_on_c, 9, 70, 110
9, 74995, Note_off_c, 9, 70, 64
9, 74998, Note_off_c, 9, 44, 64
9, 75000, Note_on_c, 9, 44, 126
9, 75000, Note_on_c, 9, 82, 110
9, 75035, Note_off_c, 9, 82, 64
9, 75077, Note_on_c, 9, 43, 64
9, 75080, Note_on_c, 9, 70, 64
9, 75112, Note_off_c, 9, 43, 64
9, 75115, Note_off_c, 9, 70, 64
9, 75118, Note_off_c, 9, 44, 64
9, 75120, Note_on_c, 9, 46, 126
9, 75120, Note_on_c, 9, 82, 110
9, 75120, Note_on_c, 9, 38, 126
9, 75155, Note_off_c, 9, 82, 64
9, 75197, Note_on_c, 9, 38, 88
9, 75199, Note_off_c, 9, 38, 64
9, 75199, Note_off_c, 9, 38, 64
9, 75200, Note_on_c, 9, 70, 88
9, 75235, Note_off_c, 9, 70, 64
9, 75238, Note_off_c, 9, 46, 64
9, 75240, Note_on_c, 9, 82, 78
9, 75240, Note_on_c, 9, 43, 78
9, 75275, Note_off_c, 9, 82, 64
9, 75275, Note_off_c, 9, 43, 64
9, 75320, Note_on_c, 9, 70, 94
9, 75355, Note_off_c, 9, 70, 64
9, 75360, Note_on_c, 9, 44, 126
9, 75360, Note_on_c, 9, 82, 110
9, 75395, Note_off_c, 9, 82, 64
9, 75440, Note_on_c, 9, 70, 110
9, 75475, Note_off_c, 9, 70, 64
9, 75478, Note_off_c, 9, 44, 64
9, 75480, Note_on_c, 9, 44, 126
9, 75480, Note_on_c, 9, 82, 110
9, 75515, Note_off_c, 9, 82, 64
9, 75560, Note_on_c, 9, 70, 110
9, 75563, Note_on_c, 9, 43, 64
9, 75595, Note_off_c, 9, 70, 64
9, 75598, Note_off_c, 9, 44, 64
9, 75598, Note_off_c, 9, 43, 64
9, 75600, Note_on_c, 9, 46, 126
9, 75600, Note_on_c, 9, 38, 126
9, 75600, Note_on_c, 9, 82, 110
9, 75635, Note_off_c, 9, 82, 64
9, 75680, Note_on_c, 9, 70, 110
9, 75715, Note_off_c, 9, 70, 64
9, 75718, Note_off_c, 9, 46, 64
9, 75720, Note_on_c, 9, 82, 92
9, 75755, Note_off_c, 9, 82, 64
9, 75800, Note_on_c, 9, 70, 94
9, 75835, Note_off_c, 9, 70, 64
9, 75838, Note_off_c, 9, 38, 64
9, 75840, Note_on_c, 9, 44, 126
9, 75840, Note_on_c, 9, 82, 110
9, 75875, Note_off_c, 9, 82, 64
9, 75920, Note_on_c, 9, 70, 110
9, 75955, Note_off_c, 9, 70, 64
9, 75958, Note_off_c, 9, 44, 64
9, 75960, Note_on_c, 9, 44, 126
9, 75960, Note_on_c, 9, 82, 110
9, 75995, Note_off_c, 9, 82, 64
9, 76037, Note_on_c, 9, 43, 64
9, 76040, Note_on_c, 9, 70, 64
9, 76072, Note_off_c, 9, 43, 64
9, 76075, Note_off_c, 9, 70, 64
9, 76078, Note_off_c, 9, 44, 64
9, 76080, Note_on_c, 9, 46, 126
9, 76080, Note_on_c, 9, 82, 110
9, 76080, Note_on_c, 9, 38, 126
9, 76115, Note_off_c, 9, 82, 64
9, 76157, Note_on_c, 9, 38, 88
9, 76159, Note_off_c, 9, 38, 64
9, 76159, Note_off_c, 9, 38, 64
9, 76160, Note_on_c, 9, 70, 88
9, 76195, Note_off_c, 9, 70, 64
9, 76198, Note_off_c, 9, 46, 64
9, 76200, Note_on_c, 9, 82, 78
9, 76200, Note_on_c, 9, 43, 78
9, 76235, Note_off_c, 9, 82, 64
9, 76235, Note_off_c, 9, 43, 64
9, 76280, Note_on_c, 9, 70, 94
9, 76315, Note_off_c, 9, 70, 64
9, 76320, Note_on_c, 9, 44, 126
9, 76320, Note_on_c, 9, 82, 110
9, 76355, Note_off_c, 9, 82, 64
9, 76400, Note_on_c, 9, 70, 110
9, 76435, Note_off_c, 9, 70, 64
9, 76438, Note_off_c, 9, 44, 64
9, 76440, Note_on_c, 9, 44, 126
9, 76440, Note_on_c, 9, 82, 110
9, 76475, Note_off_c, 9, 82, 64
9, 76520, Note_on_c, 9, 70, 110
9, 76523, Note_on_c, 9, 43, 64
9, 76555, Note_off_c, 9, 70, 64
9, 76558, Note_off_c, 9, 44, 64
9, 76558, Note_off_c, 9, 43, 64
9, 76560, Note_on_c, 9, 46, 126
9, 76560, Note_on_c, 9, 38, 126
9, 76560, Note_on_c, 9, 82, 110
9, 76595, Note_off_c, 9, 82, 64
9, 76640, Note_on_c, 9, 70, 110
9, 76675, Note_off_c, 9, 70, 64
9, 76678, Note_off_c, 9, 46, 64
9, 76680, Note_on_c, 9, 82, 92
9, 76715, Note_off_c, 9, 82, 64
9, 76760, Note_on_c, 9, 70, 94
9, 76795, Note_off_c, 9, 70, 64
9, 76798, Note_off_c, 9, 38, 64
9, 76800, Note_on_c, 9, 44, 126
9, 76800, Note_on_c, 9, 82, 110
9, 76835, Note_off_c, 9, 82, 64
9, 76880, Note_on_c, 9, 70, 110
9, 76915, Note_off_c, 9, 70, 64
9, 76918, Note_off_c, 9, 44, 64
9, 76920, Note_on_c, 9, 44, 126
9, 76920, Note_on_c, 9, 82, 110
9, 76955, Note_off_c, 9, 82, 64
9, 77000, Note_on_c, 9, 70, 110
9, 77003, Note_on_c, 9, 43, 64
9, 77035, Note_off_c, 9, 70, 64
9, 77038, Note_off_c, 9, 44, 64
9, 77038, Note_off_c, 9, 43, 64
9, 77040, Note_on_c, 9, 46, 126
9, 77040, Note_on_c, 9, 38, 126
9, 77040, Note_on_c, 9, 82, 110
9, 77075, Note_off_c, 9, 82, 64
9, 77120, Note_on_c, 9, 70, 110
9, 77155, Note_off_c, 9, 70, 64
9, 77158, Note_off_c, 9, 46, 64
9, 77160, Note_on_c, 9, 82, 92
9, 77195, Note_off_c, 9, 82, 64
9, 77240, Note_on_c, 9, 70, 94
9, 77275, Note_off_c, 9, 70, 64
9, 77278, Note_off_c, 9, 38, 64
9, 77280, Note_on_c, 9, 44, 126
9, 77280, Note_on_c, 9, 82, 110
9, 77315, Note_off_c, 9, 82, 64
9, 77360, Note_on_c, 9, 70, 110
9, 77395, Note_off_c, 9, 70, 64
9, 77398, Note_off_c, 9, 44, 64
9, 77400, Note_on_c, 9, 44, 126
9, 77400, Note_on_c, 9, 82, 110
9, 77435, Note_off_c, 9, 82, 64
9, 77480, Note_on_c, 9, 70, 110
9, 77515, Note_off_c, 9, 70, 64
9, 77518, Note_off_c, 9, 44, 64
9, 77520, Note_on_c, 9, 46, 126
9, 77520, Note_on_c, 9, 38, 126
9, 77520, Note_on_c, 9, 82, 110
9, 77555, Note_off_c, 9, 82, 64
9, 77600, Note_on_c, 9, 70, 110
9, 77635, Note_off_c, 9, 70, 64
9, 77638, Note_off_c, 9, 46, 64
9, 77640, Note_on_c, 9, 82, 92
9, 77675, Note_off_c, 9, 82, 64
9, 77720, Note_on_c, 9, 70, 94
9, 77755, Note_off_c, 9, 70, 64
9, 77758, Note_off_c, 9, 38, 64
9, 77760, Note_on_c, 9, 44, 126
9, 77760, Note_on_c, 9, 82, 110
9, 77795, Note_off_c, 9, 82, 64
9, 77840, Note_on_c, 9, 70, 110
9, 77875, Note_off_c, 9, 70, 64
9, 77878, Note_off_c, 9, 44, 64
9, 77880, Note_on_c, 9, 44, 126
9, 77880, Note_on_c, 9, 82, 110
9, 77915, Note_off_c, 9, 82, 64
9, 77957, Note_on_c, 9, 43, 64
9, 77960, Note_on_c, 9, 70, 64
9, 77992, Note_off_c, 9, 43, 64
9, 77995, Note_off_c, 9, 70, 64
9, 77998, Note_off_c, 9, 44, 64
9, 78000, Note_on_c, 9, 46, 126
9, 78000, Note_on_c, 9, 82, 110
9, 78000, Note_on_c, 9, 38, 126
9, 78035, Note_off_c, 9, 82, 64
9, 78077, Note_on_c, 9, 38, 88
9, 78079, Note_off_c, 9, 38, 64
9, 78079, Note_off_c, 9, 38, 64
9, 78080, Note_on_c, 9, 70, 88
9, 78115, Note_off_c, 9, 70, 64
9, 78118, Note_off_c, 9, 46, 64
9, 78120, Note_on_c, 9, 82, 78
9, 78120, Note_on_c, 9, 43, 78
9, 78155, Note_off_c, 9, 82, 64
9, 78155, Note_off_c, 9, 43, 64
9, 78197, Note_on_c, 9, 38, 88
9, 78200, Note_on_c, 9, 70, 94
9, 78232, Note_off_c, 9, 38, 64
9, 78235, Note_off_c, 9, 70, 64
9, 78240, Note_on_c, 9, 82, 118
9, 78240, Note_on_c, 9, 47, 118
9, 78275, Note_off_c, 9, 82, 64
9, 78275, Note_off_c, 9, 47, 64
9, 78317, Note_on_c, 9, 38, 118
9, 78320, Note_on_c, 9, 70, 118
9, 78352, Note_off_c, 9, 38, 64
9, 78355, Note_off_c, 9, 70, 64
9, 78360, Note_on_c, 9, 82, 118
9, 78360, Note_on_c, 9, 45, 118
9, 78395, Note_off_c, 9, 82, 64
9, 78395, Note_off_c, 9, 45, 64
9, 78437, Note_on_c, 9, 43, 118
9, 78440, Note_on_c, 9, 70, 118
9, 78472, Note_off_c, 9, 43, 64
9, 78475, Note_off_c, 9, 70, 64
9, 78480, Note_on_c, 9, 82, 118
9, 78480, Note_on_c, 9, 38, 118
9, 78515, Note_off_c, 9, 82, 64
9, 78515, Note_off_c, 9, 38, 64
9, 78557, Note_on_c, 9, 38, 118
9, 78560, Note_on_c, 9, 70, 118
9, 78592, Note_off_c, 9, 38, 64
9, 78595, Note_off_c, 9, 70, 64
9, 78600, Note_on_c, 9, 82, 118
9, 78600, Note_on_c, 9, 43, 118
9, 78635, Note_off_c, 9, 82, 64
9, 78635, Note_off_c, 9, 43, 64
9, 78680, Note_on_c, 9, 70, 94
9, 78715, Note_off_c, 9, 70, 64
9, 78720, Note_on_c, 9, 44, 126
9, 78720, Note_on_c, 9, 82, 110
9, 78755, Note_off_c, 9, 82, 64
9, 78800, Note_on_c, 9, 70, 110
9, 78835, Note_off_c, 9, 70, 64
9, 78838, Note_off_c, 9, 44, 64
9, 78840, Note_on_c, 9, 44, 126
9, 78840, Note_on_c, 9, 82, 110
9, 78875, Note_off_c, 9, 82, 64
9, 78917, Note_on_c, 9, 43, 64
9, 78920, Note_on_c, 9, 70, 64
9, 78952, Note_off_c, 9, 43, 64
9, 78955, Note_off_c, 9, 70, 64
9, 78958, Note_off_c, 9, 44, 64
9, 78960, Note_on_c, 9, 46, 126
9, 78960, Note_on_c, 9, 82, 110
9, 78960, Note_on_c, 9, 38, 126
9, 78995, Note_off_c, 9, 82, 64
9, 79037, Note_on_c, 9, 38, 88
9, 79039, Note_off_c, 9, 38, 64
9, 79039, Note_off_c, 9, 38, 64
9, 79040, Note_on_c, 9, 70, 88
9, 79075, Note_off_c, 9, 70, 64
9, 79078, Note_off_c, 9, 46, 64
9, 79080, Note_on_c, 9, 82, 78
9, 79080, Note_on_c, 9, 43, 78
9, 79115, Note_off_c, 9, 82, 64
9, 79115, Note_off_c, 9, 43, 64
9, 79160, Note_on_c, 9, 70, 94
9, 79195, Note_off_c, 9, 70, 64
9, 79200, Note_on_c, 9, 82, 118
9, 79200, Note_on_c, 9, 47, 118
9, 79235, Note_off_c, 9, 82, 64
9, 79235, Note_off_c, 9, 47, 64
9, 79277, Note_on_c, 9, 38, 118
9, 79280, Note_on_c, 9, 70, 118
9, 79312, Note_off_c, 9, 38, 64
9, 79315, Note_off_c, 9, 70, 64
9, 79320, Note_on_c, 9, 82, 118
9, 79320, Note_on_c, 9, 45, 118
9, 79355, Note_off_c, 9, 82, 64
9, 79355, Note_off_c, 9, 45, 64
9, 79397, Note_on_c, 9, 43, 118
9, 79400, Note_on_c, 9, 70, 118
9, 79432, Note_off_c, 9, 43, 64
9, 79435, Note_off_c, 9, 70, 64
9, 79440, Note_on_c, 9, 82, 118
9, 79440, Note_on_c, 9, 38, 118
9, 79475, Note_off_c, 9, 82, 64
9, 79475, Note_off_c, 9, 38, 64
9, 79517, Note_on_c, 9, 38, 118
9, 79520, Note_on_c, 9, 70, 118
9, 79552, Note_off_c, 9, 38, 64
9, 79555, Note_off_c, 9, 70, 64
9, 79560, Note_on_c, 9, 82, 118
9, 79560, Note_on_c, 9, 43, 118
9, 79595, Note_off_c, 9, 82, 64
9, 79595, Note_off_c, 9, 43, 64
9, 79640, Note_on_c, 9, 70, 94
9, 79675, Note_off_c, 9, 70, 64
9, 79680, Note_on_c, 9, 44, 126
9, 79680, Note_on_c, 9, 82, 110
9, 79715, Note_off_c, 9, 82, 64
9, 79760, Note_on_c, 9, 70, 110
9, 79795, Note_off_c, 9, 70, 64
9, 79798, Note_off_c, 9, 44, 64
9, 79800, Note_on_c, 9, 44, 126
9, 79800, Note_on_c, 9, 82, 110
9, 79835, Note_off_c, 9, 82, 64
9, 79877, Note_on_c, 9, 43, 64
9, 79880, Note_on_c, 9, 70, 64
9, 79912, Note_off_c, 9, 43, 64
9, 79915, Note_off_c, 9, 70, 64
9, 79918, Note_off_c, 9, 44, 64
9, 79920, Note_on_c, 9, 46, 126
9, 79920, Note_on_c, 9, 82, 110
9, 79920, Note_on_c, 9, 38, 126
9, 79955, Note_off_c, 9, 82, 64
9, 79997, Note_on_c, 9, 38, 88
9, 79999, Note_off_c, 9, 38, 64
9, 79999, Note_off_c, 9, 38, 64
9, 80000, Note_on_c, 9, 70, 88
9, 80035, Note_off_c, 9, 70, 64
9, 80038, Note_off_c, 9, 46, 64
9, 80040, Note_on_c, 9, 82, 78
9, 80040, Note_on_c, 9, 43, 78
9, 80075, Note_off_c, 9, 82, 64
9, 80075, Note_off_c, 9, 43, 64
9, 80120, Note_on_c, 9, 70, 94
9, 80155, Note_off_c, 9, 70, 64
9, 80160, Note_on_c, 9, 82, 118
9, 80160, Note_on_c, 9, 47, 118
9, 80195, Note_off_c, 9, 82, 64
9, 80195, Note_off_c, 9, 47, 64
9, 80237, Note_on_c, 9, 38, 118
9, 80240, Note_on_c, 9, 70, 118
9, 80272, Note_off_c, 9, 38, 64
9, 80275, Note_off_c, 9, 70, 64
9, 80280, Note_on_c, 9, 82, 118
9, 80280, Note_on_c, 9, 45, 118
9, 80315, Note_off_c, 9, 82, 64
9, 80315, Note_off_c, 9, 45, 64
9, 80357, Note_on_c, 9, 43, 118
9, 80360, Note_on_c, 9, 70, 118
9, 80392, Note_off_c, 9, 43, 64
9, 80395, Note_off_c, 9, 70, 64
9, 80400, Note_on_c, 9, 82, 118
9, 80400, Note_on_c, 9, 38, 118
9, 80435, Note_off_c, 9, 82, 64
9, 80435, Note_off_c, 9, 38, 64
9, 80477, Note_on_c, 9, 38, 118
9, 80480, Note_on_c, 9, 70, 118
9, 80512, Note_off_c, 9, 38, 64
9, 80515, Note_off_c, 9, 70, 64
9, 80520, Note_on_c, 9, 82, 118
9, 80520, Note_on_c, 9, 43, 118
9, 80555, Note_off_c, 9, 82, 64
9, 80555, Note_off_c, 9, 43, 64
9, 80600, Note_on_c, 9, 70, 94
9, 80635, Note_off_c, 9, 70, 64
9, 80640, Note_on_c, 9, 82, 118
9, 80640, Note_on_c, 9, 47, 118
9, 80675, Note_off_c, 9, 82, 64
9, 80675, Note_off_c, 9, 47, 64
9, 80717, Note_on_c, 9, 38, 118
9, 80720, Note_on_c, 9, 70, 118
9, 80752, Note_off_c, 9, 38, 64
9, 80755, Note_off_c, 9, 70, 64
9, 80760, Note_on_c, 9, 82, 118
9, 80760, Note_on_c, 9, 45, 118
9, 80795, Note_off_c, 9, 82, 64
9, 80795, Note_off_c, 9, 45, 64
9, 80840, Note_on_c, 9, 70, 118
9, 80875, Note_off_c, 9, 70, 64
9, 80880, Note_on_c, 9, 82, 118
9, 80880, Note_on_c, 9, 38, 118
9, 80915, Note_off_c, 9, 82, 64
9, 80915, Note_off_c, 9, 38, 64
9, 80957, Note_on_c, 9, 38, 118
9, 80960, Note_on_c, 9, 70, 118
9, 80992, Note_off_c, 9, 38, 64
9, 80995, Note_off_c, 9, 70, 64
9, 81000, Note_on_c, 9, 82, 118
9, 81000, Note_on_c, 9, 43, 118
9, 81035, Note_off_c, 9, 82, 64
9, 81035, Note_off_c, 9, 43, 64
9, 81080, Note_on_c, 9, 70, 94
9, 81115, Note_off_c, 9, 70, 64
9, 81120, Note_on_c, 9, 44, 126
9, 81120, Note_on_c, 9, 82, 110
9, 81155, Note_off_c, 9, 82, 64
9, 81200, Note_on_c, 9, 70, 110
9, 81235, Note_off_c, 9, 70, 64
9, 81238, Note_off_c, 9, 44, 64
9, 81240, Note_on_c, 9, 44, 126
9, 81240, Note_on_c, 9, 82, 110
9, 81275, Note_off_c, 9, 82, 64
9, 81317, Note_on_c, 9, 43, 64
9, 81320, Note_on_c, 9, 70, 64
9, 81352, Note_off_c, 9, 43, 64
9, 81355, Note_off_c, 9, 70, 64
9, 81358, Note_off_c, 9, 44, 64
9, 81360, Note_on_c, 9, 46, 126
9, 81360, Note_on_c, 9, 82, 110
9, 81360, Note_on_c, 9, 38, 126
9, 81395, Note_off_c, 9, 82, 64
9, 81437, Note_on_c, 9, 38, 88
9, 81439, Note_off_c, 9, 38, 64
9, 81439, Note_off_c, 9, 38, 64
9, 81440, Note_on_c, 9, 70, 88
9, 81475, Note_off_c, 9, 70, 64
9, 81478, Note_off_c, 9, 46, 64
9, 81480, Note_on_c, 9, 82, 78
9, 81480, Note_on_c, 9, 43, 78
9, 81515, Note_off_c, 9, 82, 64
9, 81515, Note_off_c, 9, 43, 64
9, 81557, Note_on_c, 9, 38, 88
9, 81560, Note_on_c, 9, 70, 94
9, 81592, Note_off_c, 9, 38, 64
9, 81595, Note_off_c, 9, 70, 64
9, 81600, Note_on_c, 9, 82, 118
9, 81600, Note_on_c, 9, 47, 118
9, 81635, Note_off_c, 9, 82, 64
9, 81635, Note_off_c, 9, 47, 64
9, 81677, Note_on_c, 9, 38, 118
9, 81680, Note_on_c, 9, 70, 118
9, 81712, Note_off_c, 9, 38, 64
9, 81715, Note_off_c, 9, 70, 64
9, 81720, Note_on_c, 9, 82, 118
9, 81720, Note_on_c, 9, 45, 118
9, 81755, Note_off_c, 9, 82, 64
9, 81755, Note_off_c, 9, 45, 64
9, 81797, Note_on_c, 9, 43, 118
9, 81800, Note_on_c, 9, 70, 118
9, 81832, Note_off_c, 9, 43, 64
9, 81835, Note_off_c, 9, 70, 64
9, 81840, Note_on_c, 9, 82, 118
9, 81840, Note_on_c, 9, 38, 118
9, 81875, Note_off_c, 9, 82, 64
9, 81875, Note_off_c, 9, 38, 64
9, 81917, Note_on_c, 9, 38, 118
9, 81920, Note_on_c, 9, 70, 118
9, 81952, Note_off_c, 9, 38, 64
9, 81955, Note_off_c, 9, 70, 64
9, 81960, Note_on_c, 9, 82, 118
9, 81960, Note_on_c, 9, 43, 118
9, 81995, Note_off_c, 9, 82, 64
9, 81995, Note_off_c, 9, 43, 64
9, 82040, Note_on_c, 9, 70, 94
9, 82075, Note_off_c, 9, 70, 64
9, 82080, Note_on_c, 9, 44, 126
9, 82080, Note_on_c, 9, 82, 110
9, 82115, Note_off_c, 9, 82, 64
9, 82160, Note_on_c, 9, 70, 110
9, 82195, Note_off_c, 9, 70, 64
9, 82198, Note_off_c, 9, 44, 64
9, 82200, Note_on_c, 9, 44, 126
9, 82200, Note_on_c, 9, 82, 110
9, 82235, Note_off_c, 9, 82, 64
9, 82280, Note_on_c, 9, 70, 110
9, 82315, Note_off_c, 9, 70, 64
9, 82318, Note_off_c, 9, 44, 64
9, 82320, Note_on_c, 9, 46, 126
9, 82320, Note_on_c, 9, 38, 126
9, 82320, Note_on_c, 9, 82, 110
9, 82355, Note_off_c, 9, 82, 64
9, 82400, Note_on_c, 9, 70, 110
9, 82435, Note_off_c, 9, 70, 64
9, 82438, Note_off_c, 9, 46, 64
9, 82440, Note_on_c, 9, 82, 92
9, 82475, Note_off_c, 9, 82, 64
9, 82520, Note_on_c, 9, 70, 94
9, 82555, Note_off_c, 9, 70, 64
9, 82558, Note_off_c, 9, 38, 64
9, 82558, Note_on_c, 9, 47, 118
9, 82560, Note_on_c, 9, 82, 92
9, 82593, Note_off_c, 9, 47, 64
9, 82595, Note_off_c, 9, 82, 64
9, 82635, Note_on_c, 9, 38, 118
9, 82636, Note_on_c, 9, 70, 110
9, 82670, Note_off_c, 9, 38, 64
9, 82671, Note_off_c, 9, 70, 64
9, 82676, Note_on_c, 9, 82, 110
9, 82678, Note_on_c, 9, 45, 118
9, 82711, Note_off_c, 9, 82, 64
9, 82713, Note_off_c, 9, 45, 64
9, 82756, Note_on_c, 9, 70, 110
9, 82791, Note_off_c, 9, 70, 64
9, 82796, Note_on_c, 9, 82, 110
9, 82798, Note_on_c, 9, 38, 118
9, 82831, Note_off_c, 9, 82, 64
9, 82833, Note_off_c, 9, 38, 64
9, 82875, Note_on_c, 9, 38, 118
9, 82876, Note_on_c, 9, 70, 110
9, 82910, Note_off_c, 9, 38, 64
9, 82911, Note_off_c, 9, 70, 64
9, 82916, Note_on_c, 9, 82, 92
9, 82918, Note_on_c, 9, 43, 118
9, 82951, Note_off_c, 9, 82, 64
9, 82953, Note_off_c, 9, 43, 64
9, 82996, Note_on_c, 9, 70, 94
9, 83031, Note_off_c, 9, 70, 64
9, 83038, Note_on_c, 9, 44, 126
9, 83040, Note_on_c, 9, 82, 110
9, 83075, Note_off_c, 9, 82, 64
9, 83119, Note_on_c, 9, 70, 110
9, 83154, Note_off_c, 9, 70, 64
9, 83156, Note_off_c, 9, 44, 64
9, 83158, Note_on_c, 9, 44, 126
9, 83159, Note_on_c, 9, 82, 110
9, 83194, Note_off_c, 9, 82, 64
9, 83235, Note_on_c, 9, 43, 64
9, 83239, Note_on_c, 9, 70, 110
9, 83270, Note_off_c, 9, 43, 64
9, 83274, Note_off_c, 9, 70, 64
9, 83276, Note_off_c, 9, 44, 64
9, 83278, Note_on_c, 9, 46, 126
9, 83278, Note_on_c, 9, 38, 126
9, 83279, Note_on_c, 9, 82, 110
9, 83314, Note_off_c, 9, 82, 64
9, 83355, Note_on_c, 9, 38, 88
9, 83357, Note_off_c, 9, 38, 64
9, 83357, Note_off_c, 9, 38, 64
9, 83359, Note_on_c, 9, 70, 110
9, 83394, Note_off_c, 9, 70, 64
9, 83396, Note_off_c, 9, 46, 64
9, 83398, Note_on_c, 9, 43, 78
9, 83399, Note_on_c, 9, 82, 92
9, 83433, Note_off_c, 9, 43, 64
9, 83434, Note_off_c, 9, 82, 64
9, 83475, Note_on_c, 9, 38, 88
9, 83479, Note_on_c, 9, 70, 94
9, 83510, Note_off_c, 9, 38, 64
9, 83514, Note_off_c, 9, 70, 64
9, 83519, Note_on_c, 9, 82, 110
9, 83520, Note_on_c, 9, 47, 118
9, 83554, Note_off_c, 9, 82, 64
9, 83555, Note_off_c, 9, 47, 64
9, 83595, Note_on_c, 9, 38, 118
9, 83595, Note_on_c, 9, 70, 110
9, 83630, Note_off_c, 9, 38, 64
9, 83630, Note_off_c, 9, 70, 64
9, 83638, Note_on_c, 9, 45, 118
9, 83638, Note_on_c, 9, 82, 110
9, 83673, Note_off_c, 9, 45, 64
9, 83673, Note_off_c, 9, 82, 64
9, 83715, Note_on_c, 9, 43, 118
9, 83715, Note_on_c, 9, 70, 110
9, 83750, Note_off_c, 9, 43, 64
9, 83750, Note_off_c, 9, 70, 64
9, 83755, Note_on_c, 9, 82, 110
9, 83758, Note_on_c, 9, 38, 118
9, 83790, Note_off_c, 9, 82, 64
9, 83793, Note_off_c, 9, 38, 64
9, 83835, Note_on_c, 9, 38, 118
9, 83835, Note_on_c, 9, 70, 110
9, 83870, Note_off_c, 9, 38, 64
9, 83870, Note_off_c, 9, 70, 64
9, 83875, Note_on_c, 9, 82, 92
9, 83878, Note_on_c, 9, 41, 118
9, 83910, Note_off_c, 9, 82, 64
9, 83913, Note_off_c, 9, 41, 64
9, 83955, Note_on_c, 9, 70, 94
9, 83990, Note_off_c, 9, 70, 64
9, 83998, Note_on_c, 9, 44, 126
9, 84001, Note_on_c, 9, 82, 110
9, 84036, Note_off_c, 9, 82, 64
9, 84078, Note_on_c, 9, 70, 110
9, 84113, Note_off_c, 9, 70, 64
9, 84116, Note_off_c, 9, 44, 64
9, 84118, Note_on_c, 9, 44, 126
9, 84118, Note_on_c, 9, 82, 110
9, 84153, Note_off_c, 9, 82, 64
9, 84198, Note_on_c, 9, 70, 110
9, 84233, Note_off_c, 9, 70, 64
9, 84236, Note_off_c, 9, 44, 64
9, 84238, Note_on_c, 9, 46, 126
9, 84238, Note_on_c, 9, 38, 126
9, 84238, Note_on_c, 9, 82, 110
9, 84273, Note_off_c, 9, 82, 64
9, 84318, Note_on_c, 9, 70, 110
9, 84353, Note_off_c, 9, 70, 64
9, 84356, Note_off_c, 9, 46, 64
9, 84358, Note_on_c, 9, 82, 92
9, 84393, Note_off_c, 9, 82, 64
9, 84438, Note_on_c, 9, 70, 94
9, 84473, Note_off_c, 9, 70, 64
9, 84476, Note_off_c, 9, 38, 64
9, 84480, Note_on_c, 9, 82, 110
9, 84480, Note_on_c, 9, 47, 118
9, 84515, Note_off_c, 9, 82, 64
9, 84515, Note_off_c, 9, 47, 64
9, 84555, Note_on_c, 9, 38, 118
9, 84560, Note_on_c, 9, 70, 110
9, 84590, Note_off_c, 9, 38, 64
9, 84595, Note_off_c, 9, 70, 64
9, 84598, Note_on_c, 9, 45, 118
9, 84600, Note_on_c, 9, 82, 110
9, 84633, Note_off_c, 9, 45, 64
9, 84635, Note_off_c, 9, 82, 64
9, 84675, Note_on_c, 9, 43, 118
9, 84680, Note_on_c, 9, 70, 110
9, 84710, Note_off_c, 9, 43, 64
9, 84715, Note_off_c, 9, 70, 64
9, 84718, Note_on_c, 9, 38, 118
9, 84720, Note_on_c, 9, 82, 110
9, 84753, Note_off_c, 9, 38, 64
9, 84755, Note_off_c, 9, 82, 64
9, 84795, Note_on_c, 9, 38, 118
9, 84800, Note_on_c, 9, 70, 110
9, 84830, Note_off_c, 9, 38, 64
9, 84835, Note_off_c, 9, 70, 64
9, 84838, Note_on_c, 9, 43, 118
9, 84840, Note_on_c, 9, 82, 92
9, 84873, Note_off_c, 9, 43, 64
9, 84875, Note_off_c, 9, 82, 64
9, 84918, Note_on_c, 9, 41, 118
9, 84920, Note_on_c, 9, 70, 94
9, 84953, Note_off_c, 9, 41, 64
9, 84955, Note_off_c, 9, 70, 64
9, 84960, Note_on_c, 9, 44, 126
9, 84960, Note_on_c, 9, 82, 110
9, 84995, Note_off_c, 9, 82, 64
9, 85040, Note_on_c, 9, 70, 110
9, 85075, Note_off_c, 9, 70, 64
9, 85078, Note_off_c, 9, 44, 64
9, 85080, Note_on_c, 9, 44, 126
9, 85080, Note_on_c, 9, 82, 110
9, 85115, Note_off_c, 9, 82, 64
9, 85155, Note_on_c, 9, 43, 118
9, 85160, Note_on_c, 9, 70, 110
9, 85190, Note_off_c, 9, 43, 64
9, 85195, Note_off_c, 9, 70, 64
9, 85198, Note_off_c, 9, 44, 64
9, 85200, Note_on_c, 9, 46, 126
9, 85200, Note_on_c, 9, 38, 126
9, 85200, Note_on_c, 9, 82, 110
9, 85235, Note_off_c, 9, 82, 64
9, 85280, Note_on_c, 9, 70, 110
9, 85315, Note_off_c, 9, 70, 64
9, 85318, Note_off_c, 9, 46, 64
9, 85320, Note_on_c, 9, 82, 92
9, 85355, Note_off_c, 9, 82, 64
9, 85400, Note_on_c, 9, 70, 94
9, 85435, Note_off_c, 9, 70, 64
9, 85438, Note_off_c, 9, 38, 64
9, 85440, Note_on_c, 9, 44, 126
9, 85440, Note_on_c, 9, 82, 110
9, 85475, Note_off_c, 9, 82, 64
9, 85520, Note_on_c, 9, 70, 110
9, 85555, Note_off_c, 9, 70, 64
9, 85558, Note_off_c, 9, 44, 64
9, 85560, Note_on_c, 9, 44, 126
9, 85560, Note_on_c, 9, 82, 110
9, 85595, Note_off_c, 9, 82, 64
9, 85640, Note_on_c, 9, 70, 110
9, 85675, Note_off_c, 9, 70, 64
9, 85678, Note_off_c, 9, 44, 64
9, 85680, Note_on_c, 9, 46, 126
9, 85680, Note_on_c, 9, 38, 126
9, 85680, Note_on_c, 9, 82, 110
9, 85715, Note_off_c, 9, 82, 64
9, 85760, Note_on_c, 9, 70, 110
9, 85795, Note_off_c, 9, 70, 64
9, 85798, Note_off_c, 9, 46, 64
9, 85800, Note_on_c, 9, 82, 92
9, 85835, Note_off_c, 9, 82, 64
9, 85880, Note_on_c, 9, 70, 94
9, 85915, Note_off_c, 9, 70, 64
9, 85918, Note_off_c, 9, 38, 64
9, 85918, Note_on_c, 9, 47, 118
9, 85920, Note_on_c, 9, 82, 92
9, 85953, Note_off_c, 9, 47, 64
9, 85955, Note_off_c, 9, 82, 64
9, 85995, Note_on_c, 9, 38, 118
9, 85996, Note_on_c, 9, 70, 110
9, 86030, Note_off_c, 9, 38, 64
9, 86031, Note_off_c, 9, 70, 64
9, 86036, Note_on_c, 9, 82, 110
9, 86038, Note_on_c, 9, 45, 118
9, 86071, Note_off_c, 9, 82, 64
9, 86073, Note_off_c, 9, 45, 64
9, 86116, Note_on_c, 9, 70, 110
9, 86151, Note_off_c, 9, 70, 64
9, 86156, Note_on_c, 9, 82, 110
9, 86158, Note_on_c, 9, 38, 118
9, 86191, Note_off_c, 9, 82, 64
9, 86193, Note_off_c, 9, 38, 64
9, 86235, Note_on_c, 9, 38, 118
9, 86236, Note_on_c, 9, 70, 110
9, 86270, Note_off_c, 9, 38, 64
9, 86271, Note_off_c, 9, 70, 64
9, 86276, Note_on_c, 9, 82, 92
9, 86278, Note_on_c, 9, 43, 118
9, 86311, Note_off_c, 9, 82, 64
9, 86313, Note_off_c, 9, 43, 64
9, 86356, Note_on_c, 9, 70, 94
9, 86391, Note_off_c, 9, 70, 64
9, 86398, Note_on_c, 9, 44, 126
9, 86400, Note_on_c, 9, 82, 110
9, 86435, Note_off_c, 9, 82, 64
9, 86479, Note_on_c, 9, 70, 110
9, 86514, Note_off_c, 9, 70, 64
9, 86516, Note_off_c, 9, 44, 64
9, 86518, Note_on_c, 9, 44, 126
9, 86519, Note_on_c, 9, 82, 110
9, 86554, Note_off_c, 9, 82, 64
9, 86595, Note_on_c, 9, 43, 64
9, 86599, Note_on_c, 9, 70, 110
9, 86630, Note_off_c, 9, 43, 64
9, 86634, Note_off_c, 9, 70, 64
9, 86636, Note_off_c, 9, 44, 64
9, 86638, Note_on_c, 9, 46, 126
9, 86638, Note_on_c, 9, 38, 126
9, 86639, Note_on_c, 9, 82, 110
9, 86674, Note_off_c, 9, 82, 64
9, 86715, Note_on_c, 9, 38, 88
9, 86717, Note_off_c, 9, 38, 64
9, 86717, Note_off_c, 9, 38, 64
9, 86719, Note_on_c, 9, 70, 110
9, 86754, Note_off_c, 9, 70, 64
9, 86756, Note_off_c, 9, 46, 64
9, 86758, Note_on_c, 9, 43, 78
9, 86759, Note_on_c, 9, 82, 92
9, 86793, Note_off_c, 9, 43, 64
9, 86794, Note_off_c, 9, 82, 64
9, 86835, Note_on_c, 9, 38, 88
9, 86839, Note_on_c, 9, 70, 94
9, 86870, Note_off_c, 9, 38, 64
9, 86874, Note_off_c, 9, 70, 64
9, 86879, Note_on_c, 9, 82, 110
9, 86880, Note_on_c, 9, 47, 118
9, 86914, Note_off_c, 9, 82, 64
9, 86915, Note_off_c, 9, 47, 64
9, 86955, Note_on_c, 9, 38, 118
9, 86955, Note_on_c, 9, 70, 110
9, 86990, Note_off_c, 9, 38, 64
9, 86990, Note_off_c, 9, 70, 64
9, 86998, Note_on_c, 9, 45, 118
9, 86998, Note_on_c, 9, 82, 110
9, 87033, Note_off_c, 9, 45, 64
9, 87033, Note_off_c, 9, 82, 64
9, 87075, Note_on_c, 9, 43, 118
9, 87075, Note_on_c, 9, 70, 110
9, 87110, Note_off_c, 9, 43, 64
9, 87110, Note_off_c, 9, 70, 64
9, 87115, Note_on_c, 9, 82, 110
9, 87118, Note_on_c, 9, 38, 118
9, 87150, Note_off_c, 9, 82, 64
9, 87153, Note_off_c, 9, 38, 64
9, 87195, Note_on_c, 9, 38, 118
9, 87195, Note_on_c, 9, 70, 110
9, 87230, Note_off_c, 9, 38, 64
9, 87230, Note_off_c, 9, 70, 64
9, 87235, Note_on_c, 9, 82, 92
9, 87238, Note_on_c, 9, 41, 118
9, 87270, Note_off_c, 9, 82, 64
9, 87273, Note_off_c, 9, 41, 64
9, 87315, Note_on_c, 9, 70, 94
9, 87350, Note_off_c, 9, 70, 64
9, 87358, Note_on_c, 9, 44, 126
9, 87361, Note_on_c, 9, 82, 110
9, 87396, Note_off_c, 9, 82, 64
9, 87438, Note_on_c, 9, 70, 110
9, 87473, Note_off_c, 9, 70, 64
9, 87476, Note_off_c, 9, 44, 64
9, 87478, Note_on_c, 9, 44, 126
9, 87478, Note_on_c, 9, 82, 110
9, 87513, Note_off_c, 9, 82, 64
9, 87558, Note_on_c, 9, 70, 110
9, 87593, Note_off_c, 9, 70, 64
9, 87596, Note_off_c, 9, 44, 64
9, 87598, Note_on_c, 9, 46, 126
9, 87598, Note_on_c, 9, 38, 126
9, 87598, Note_on_c, 9, 82, 110
9, 87633, Note_off_c, 9, 82, 64
9, 87678, Note_on_c, 9, 70, 110
9, 87713, Note_off_c, 9, 70, 64
9, 87716, Note_off_c, 9, 46, 64
9, 87718, Note_on_c, 9, 82, 92
9, 87753, Note_off_c, 9, 82, 64
9, 87798, Note_on_c, 9, 70, 94
9, 87833, Note_off_c, 9, 70, 64
9, 87836, Note_off_c, 9, 38, 64
9, 87840, Note_on_c, 9, 82, 110
9, 87840, Note_on_c, 9, 47, 118
9, 87875, Note_off_c, 9, 82, 64
9, 87875, Note_off_c, 9, 47, 64
9, 87915, Note_on_c, 9, 38, 118
9, 87920, Note_on_c, 9, 70, 110
9, 87950, Note_off_c, 9, 38, 64
9, 87955, Note_off_c, 9, 70, 64
9, 87958, Note_on_c, 9, 45, 118
9, 87960, Note_on_c, 9, 82, 110
9, 87993, Note_off_c, 9, 45, 64
9, 87995, Note_off_c, 9, 82, 64
9, 88035, Note_on_c, 9, 43, 118
9, 88040, Note_on_c, 9, 70, 110
9, 88070, Note_off_c, 9, 43, 64
9, 88075, Note_off_c, 9, 70, 64
9, 88078, Note_on_c, 9, 38, 118
9, 88080, Note_on_c, 9, 82, 110
9, 88113, Note_off_c, 9, 38, 64
9, 88115, Note_off_c, 9, 82, 64
9, 88155, Note_on_c, 9, 38, 118
9, 88160, Note_on_c, 9, 70, 110
9, 88190, Note_off_c, 9, 38, 64
9, 88195, Note_off_c, 9, 70, 64
9, 88198, Note_on_c, 9, 43, 118
9, 88200, Note_on_c, 9, 82, 92
9, 88233, Note_off_c, 9, 43, 64
9, 88235, Note_off_c, 9, 82, 64
9, 88278, Note_on_c, 9, 41, 118
9, 88280, Note_on_c, 9, 70, 94
9, 88313, Note_off_c, 9, 41, 64
9, 88315, Note_off_c, 9, 70, 64
9, 88320, Note_on_c, 9, 44, 126
9, 88320, Note_on_c, 9, 82, 110
9, 88355, Note_off_c, 9, 82, 64
9, 88400, Note_on_c, 9, 70, 110
9, 88435, Note_off_c, 9, 70, 64
9, 88438, Note_off_c, 9, 44, 64
9, 88440, Note_on_c, 9, 44, 126
9, 88440, Note_on_c, 9, 82, 110
9, 88475, Note_off_c, 9, 82, 64
9, 88515, Note_on_c, 9, 43, 118
9, 88520, Note_on_c, 9, 70, 110
9, 88550, Note_off_c, 9, 43, 64
9, 88555, Note_off_c, 9, 70, 64
9, 88558, Note_off_c, 9, 44, 64
9, 88560, Note_on_c, 9, 46, 126
9, 88560, Note_on_c, 9, 38, 126
9, 88560, Note_on_c, 9, 82, 110
9, 88595, Note_off_c, 9, 82, 64
9, 88640, Note_on_c, 9, 70, 110
9, 88675, Note_off_c, 9, 70, 64
9, 88678, Note_off_c, 9, 46, 64
9, 88680, Note_on_c, 9, 82, 92
9, 88715, Note_off_c, 9, 82, 64
9, 88760, Note_on_c, 9, 70, 94
9, 88795, Note_off_c, 9, 70, 64
9, 88798, Note_off_c, 9, 38, 64
9, 88800, Note_on_c, 9, 44, 126
9, 88800, Note_on_c, 9, 82, 110
9, 88835, Note_off_c, 9, 82, 64
9, 88880, Note_on_c, 9, 70, 110
9, 88915, Note_off_c, 9, 70, 64
9, 88918, Note_off_c, 9, 44, 64
9, 88920, Note_on_c, 9, 44, 126
9, 88920, Note_on_c, 9, 82, 110
9, 88955, Note_off_c, 9, 82, 64
9, 89000, Note_on_c, 9, 70, 110
9, 89035, Note_off_c, 9, 70, 64
9, 89038, Note_off_c, 9, 44, 64
9, 89040, Note_on_c, 9, 46, 126
9, 89040, Note_on_c, 9, 38, 126
9, 89040, Note_on_c, 9, 82, 110
9, 89075, Note_off_c, 9, 82, 64
9, 89120, Note_on_c, 9, 70, 110
9, 89155, Note_off_c, 9, 70, 64
9, 89158, Note_off_c, 9, 46, 64
9, 89160, Note_on_c, 9, 82, 92
9, 89195, Note_off_c, 9, 82, 64
9, 89240, Note_on_c, 9, 70, 94
9, 89275, Note_off_c, 9, 70, 64
9, 89278, Note_off_c, 9, 38, 64
9, 89278, Note_on_c, 9, 47, 118
9, 89280, Note_on_c, 9, 82, 92
9, 89313, Note_off_c, 9, 47, 64
9, 89315, Note_off_c, 9, 82, 64
9, 89355, Note_on_c, 9, 38, 118
9, 89356, Note_on_c, 9, 70, 110
9, 89390, Note_off_c, 9, 38, 64
9, 89391, Note_off_c, 9, 70, 64
9, 89396, Note_on_c, 9, 82, 110
9, 89398, Note_on_c, 9, 45, 118
9, 89431, Note_off_c, 9, 82, 64
9, 89433, Note_off_c, 9, 45, 64
9, 89476, Note_on_c, 9, 70, 110
9, 89511, Note_off_c, 9, 70, 64
9, 89516, Note_on_c, 9, 82, 110
9, 89518, Note_on_c, 9, 38, 118
9, 89551, Note_off_c, 9, 82, 64
9, 89553, Note_off_c, 9, 38, 64
9, 89595, Note_on_c, 9, 38, 118
9, 89596, Note_on_c, 9, 70, 110
9, 89630, Note_off_c, 9, 38, 64
9, 89631, Note_off_c, 9, 70, 64
9, 89636, Note_on_c, 9, 82, 92
9, 89638, Note_on_c, 9, 43, 118
9, 89671, Note_off_c, 9, 82, 64
9, 89673, Note_off_c, 9, 43, 64
9, 89716, Note_on_c, 9, 70, 94
9, 89751, Note_off_c, 9, 70, 64
9, 89758, Note_on_c, 9, 44, 126
9, 89760, Note_on_c, 9, 82, 110
9, 89795, Note_off_c, 9, 82, 64
9, 89839, Note_on_c, 9, 70, 110
9, 89874, Note_off_c, 9, 70, 64
9, 89876, Note_off_c, 9, 44, 64
9, 89878, Note_on_c, 9, 44, 126
9, 89879, Note_on_c, 9, 82, 110
9, 89914, Note_off_c, 9, 82, 64
9, 89955, Note_on_c, 9, 43, 64
9, 89959, Note_on_c, 9, 70, 110
9, 89990, Note_off_c, 9, 43, 64
9, 89994, Note_off_c, 9, 70, 64
9, 89996, Note_off_c, 9, 44, 64
9, 89998, Note_on_c, 9, 46, 126
9, 89998, Note_on_c, 9, 38, 126
9, 89999, Note_on_c, 9, 82, 110
9, 90034, Note_off_c, 9, 82, 64
9, 90075, Note_on_c, 9, 38, 88
9, 90077, Note_off_c, 9, 38, 64
9, 90077, Note_off_c, 9, 38, 64
9, 90079, Note_on_c, 9, 70, 110
9, 90114, Note_off_c, 9, 70, 64
9, 90116, Note_off_c, 9, 46, 64
9, 90118, Note_on_c, 9, 43, 78
9, 90119, Note_on_c, 9, 82, 92
9, 90153, Note_off_c, 9, 43, 64
9, 90154, Note_off_c, 9, 82, 64
9, 90195, Note_on_c, 9, 38, 88
9, 90199, Note_on_c, 9, 70, 94
9, 90230, Note_off_c, 9, 38, 64
9, 90234, Note_off_c, 9, 70, 64
9, 90239, Note_on_c, 9, 82, 110
9, 90240, Note_on_c, 9, 47, 118
9, 90274, Note_off_c, 9, 82, 64
9, 90275, Note_off_c, 9, 47, 64
9, 90315, Note_on_c, 9, 38, 118
9, 90315, Note_on_c, 9, 70, 110
9, 90350, Note_off_c, 9, 38, 64
9, 90350, Note_off_c, 9, 70, 64
9, 90358, Note_on_c, 9, 45, 118
9, 90358, Note_on_c, 9, 82, 110
9, 90393, Note_off_c, 9, 45, 64
9, 90393, Note_off_c, 9, 82, 64
9, 90435, Note_on_c, 9, 43, 118
9, 90435, Note_on_c, 9, 70, 110
9, 90470, Note_off_c, 9, 43, 64
9, 90470, Note_off_c, 9, 70, 64
9, 90475, Note_on_c, 9, 82, 110
9, 90478, Note_on_c, 9, 38, 118
9, 90510, Note_off_c, 9, 82, 64
9, 90513, Note_off_c, 9, 38, 64
9, 90555, Note_on_c, 9, 38, 118
9, 90555, Note_on_c, 9, 70, 110
9, 90590, Note_off_c, 9, 38, 64
9, 90590, Note_off_c, 9, 70, 64
9, 90595, Note_on_c, 9, 82, 92
9, 90598, Note_on_c, 9, 41, 118
9, 90630, Note_off_c, 9, 82, 64
9, 90633, Note_off_c, 9, 41, 64
9, 90675, Note_on_c, 9, 70, 94
9, 90710, Note_off_c, 9, 70, 64
9, 90718, Note_on_c, 9, 44, 126
9, 90721, Note_on_c, 9, 82, 110
9, 90756, Note_off_c, 9, 82, 64
9, 90798, Note_on_c, 9, 70, 110
9, 90833, Note_off_c, 9, 70, 64
9, 90836, Note_off_c, 9, 44, 64
9, 90838, Note_on_c, 9, 44, 126
9, 90838, Note_on_c, 9, 82, 110
9, 90873, Note_off_c, 9, 82, 64
9, 90918, Note_on_c, 9, 70, 110
9, 90953, Note_off_c, 9, 70, 64
9, 90956, Note_off_c, 9, 44, 64
9, 90958, Note_on_c, 9, 46, 126
9, 90958, Note_on_c, 9, 38, 126
9, 90958, Note_on_c, 9, 82, 110
9, 90993, Note_off_c, 9, 82, 64
9, 91038, Note_on_c, 9, 70, 110
9, 91073, Note_off_c, 9, 70, 64
9, 91076, Note_off_c, 9, 46, 64
9, 91078, Note_on_c, 9, 82, 92
9, 91113, Note_off_c, 9, 82, 64
9, 91158, Note_on_c, 9, 70, 94
9, 91193, Note_off_c, 9, 70, 64
9, 91196, Note_off_c, 9, 38, 64
9, 91200, Note_on_c, 9, 82, 110
9, 91200, Note_on_c, 9, 47, 118
9, 91235, Note_off_c, 9, 82, 64
9, 91235, Note_off_c, 9, 47, 64
9, 91275, Note_on_c, 9, 38, 118
9, 91280, Note_on_c, 9, 70, 110
9, 91310, Note_off_c, 9, 38, 64
9, 91315, Note_off_c, 9, 70, 64
9, 91318, Note_on_c, 9, 45, 118
9, 91320, Note_on_c, 9, 82, 110
9, 91353, Note_off_c, 9, 45, 64
9, 91355, Note_off_c, 9, 82, 64
9, 91395, Note_on_c, 9, 43, 118
9, 91400, Note_on_c, 9, 70, 110
9, 91430, Note_off_c, 9, 43, 64
9, 91435, Note_off_c, 9, 70, 64
9, 91438, Note_on_c, 9, 38, 118
9, 91440, Note_on_c, 9, 82, 110
9, 91473, Note_off_c, 9, 38, 64
9, 91475, Note_off_c, 9, 82, 64
9, 91515, Note_on_c, 9, 38, 118
9, 91520, Note_on_c, 9, 70, 110
9, 91550, Note_off_c, 9, 38, 64
9, 91555, Note_off_c, 9, 70, 64
9, 91558, Note_on_c, 9, 43, 118
9, 91560, Note_on_c, 9, 82, 92
9, 91593, Note_off_c, 9, 43, 64
9, 91595, Note_off_c, 9, 82, 64
9, 91638, Note_on_c, 9, 41, 118
9, 91640, Note_on_c, 9, 70, 94
9, 91673, Note_off_c, 9, 41, 64
9, 91675, Note_off_c, 9, 70, 64
9, 91680, Note_on_c, 9, 44, 126
9, 91680, Note_on_c, 9, 82, 110
9, 91715, Note_off_c, 9, 82, 64
9, 91760, Note_on_c, 9, 70, 110
9, 91795, Note_off_c, 9, 70, 64
9, 91798, Note_off_c, 9, 44, 64
9, 91800, Note_on_c, 9, 44, 126
9, 91800, Note_on_c, 9, 82, 110
9, 91835, Note_off_c, 9, 82, 64
9, 91875, Note_on_c, 9, 43, 118
9, 91880, Note_on_c, 9, 70, 110
9, 91910, Note_off_c, 9, 43, 64
9, 91915, Note_off_c, 9, 70, 64
9, 91918, Note_off_c, 9, 44, 64
9, 91920, Note_on_c, 9, 46, 126
9, 91920, Note_on_c, 9, 38, 126
9, 91920, Note_on_c, 9, 82, 110
9, 91955, Note_off_c, 9, 82, 64
9, 92000, Note_on_c, 9, 70, 110
9, 92035, Note_off_c, 9, 70, 64
9, 92038, Note_off_c, 9, 46, 64
9, 92040, Note_on_c, 9, 82, 92
9, 92075, Note_off_c, 9, 82, 64
9, 92120, Note_on_c, 9, 70, 94
9, 92155, Note_off_c, 9, 70, 64
9, 92158, Note_off_c, 9, 38, 64
9, 92160, Note_on_c, 9, 44, 126
9, 92160, Note_on_c, 9, 82, 110
9, 92195, Note_off_c, 9, 82, 64
9, 92240, Note_on_c, 9, 70, 110
9, 92275, Note_off_c, 9, 70, 64
9, 92278, Note_off_c, 9, 44, 64
9, 92280, Note_on_c, 9, 44, 126
9, 92280, Note_on_c, 9, 82, 110
9, 92315, Note_off_c, 9, 82, 64
9, 92360, Note_on_c, 9, 70, 110
9, 92395, Note_off_c, 9, 70, 64
9, 92398, Note_off_c, 9, 44, 64
9, 92400, Note_on_c, 9, 46, 126
9, 92400, Note_on_c, 9, 38, 126
9, 92400, Note_on_c, 9, 82, 110
9, 92435, Note_off_c, 9, 82, 64
9, 92480, Note_on_c, 9, 70, 110
9, 92515, Note_off_c, 9, 70, 64
9, 92518, Note_off_c, 9, 46, 64
9, 92520, Note_on_c, 9, 82, 92
9, 92555, Note_off_c, 9, 82, 64
9, 92600, Note_on_c, 9, 70, 94
9, 92635, Note_off_c, 9, 70, 64
9, 92638, Note_off_c, 9, 38, 64
9, 92638, Note_on_c, 9, 47, 118
9, 92640, Note_on_c, 9, 82, 92
9, 92673, Note_off_c, 9, 47, 64
9, 92675, Note_off_c, 9, 82, 64
9, 92715, Note_on_c, 9, 38, 118
9, 92716, Note_on_c, 9, 70, 110
9, 92750, Note_off_c, 9, 38, 64
9, 92751, Note_off_c, 9, 70, 64
9, 92756, Note_on_c, 9, 82, 110
9, 92758, Note_on_c, 9, 45, 118
9, 92791, Note_off_c, 9, 82, 64
9, 92793, Note_off_c, 9, 45, 64
9, 92836, Note_on_c, 9, 70, 110
9, 92871, Note_off_c, 9, 70, 64
9, 92876, Note_on_c, 9, 82, 110
9, 92878, Note_on_c, 9, 38, 118
9, 92911, Note_off_c, 9, 82, 64
9, 92913, Note_off_c, 9, 38, 64
9, 92955, Note_on_c, 9, 38, 118
9, 92956, Note_on_c, 9, 70, 110
9, 92990, Note_off_c, 9, 38, 64
9, 92991, Note_off_c, 9, 70, 64
9, 92996, Note_on_c, 9, 82, 92
9, 92998, Note_on_c, 9, 43, 118
9, 93031, Note_off_c, 9, 82, 64
9, 93033, Note_off_c, 9, 43, 64
9, 93076, Note_on_c, 9, 70, 94
9, 93111, Note_off_c, 9, 70, 64
9, 93118, Note_on_c, 9, 44, 126
9, 93120, Note_on_c, 9, 82, 110
9, 93155, Note_off_c, 9, 82, 64
9, 93199, Note_on_c, 9, 70, 110
9, 93234, Note_off_c, 9, 70, 64
9, 93236, Note_off_c, 9, 44, 64
9, 93238, Note_on_c, 9, 44, 126
9, 93239, Note_on_c, 9, 82, 110
9, 93274, Note_off_c, 9, 82, 64
9, 93315, Note_on_c, 9, 43, 64
9, 93319, Note_on_c, 9, 70, 110
9, 93350, Note_off_c, 9, 43, 64
9, 93354, Note_off_c, 9, 70, 64
9, 93356, Note_off_c, 9, 44, 64
9, 93358, Note_on_c, 9, 46, 126
9, 93358, Note_on_c, 9, 38, 126
9, 93359, Note_on_c, 9, 82, 110
9, 93394, Note_off_c, 9, 82, 64
9, 93435, Note_on_c, 9, 38, 88
9, 93437, Note_off_c, 9, 38, 64
9, 93437, Note_off_c, 9, 38, 64
9, 93439, Note_on_c, 9, 70, 110
9, 93474, Note_off_c, 9, 70, 64
9, 93476, Note_off_c, 9, 46, 64
9, 93478, Note_on_c, 9, 43, 78
9, 93479, Note_on_c, 9, 82, 92
9, 93513, Note_off_c, 9, 43, 64
9, 93514, Note_off_c, 9, 82, 64
9, 93555, Note_on_c, 9, 38, 88
9, 93559, Note_on_c, 9, 70, 94
9, 93590, Note_off_c, 9, 38, 64
9, 93594, Note_off_c, 9, 70, 64
9, 93599, Note_on_c, 9, 82, 110
9, 93600, Note_on_c, 9, 47, 118
9, 93634, Note_off_c, 9, 82, 64
9, 93635, Note_off_c, 9, 47, 64
9, 93675, Note_on_c, 9, 38, 118
9, 93675, Note_on_c, 9, 70, 110
9, 93710, Note_off_c, 9, 38, 64
9, 93710, Note_off_c, 9, 70, 64
9, 93718, Note_on_c, 9, 45, 118
9, 93718, Note_on_c, 9, 82, 110
9, 93753, Note_off_c, 9, 45, 64
9, 93753, Note_off_c, 9, 82, 64
9, 93795, Note_on_c, 9, 43, 118
9, 93795, Note_on_c, 9, 70, 110
9, 93830, Note_off_c, 9, 43, 64
9, 93830, Note_off_c, 9, 70, 64
9, 93835, Note_on_c, 9, 82, 110
9, 93838, Note_on_c, 9, 38, 118
9, 93870, Note_off_c, 9, 82, 64
9, 93873, Note_off_c, 9, 38, 64
9, 93915, Note_on_c, 9, 38, 118
9, 93915, Note_on_c, 9, 70, 110
9, 93950, Note_off_c, 9, 38, 64
9, 93950, Note_off_c, 9, 70, 64
9, 93955, Note_on_c, 9, 82, 92
9, 93958, Note_on_c, 9, 41, 118
9, 93990, Note_off_c, 9, 82, 64
9, 93993, Note_off_c, 9, 41, 64
9, 94035, Note_on_c, 9, 70, 94
9, 94070, Note_off_c, 9, 70, 64
9, 94078, Note_on_c, 9, 44, 126
9, 94081, Note_on_c, 9, 82, 110
9, 94116, Note_off_c, 9, 82, 64
9, 94158, Note_on_c, 9, 70, 110
9, 94193, Note_off_c, 9, 70, 64
9, 94196, Note_off_c, 9, 44, 64
9, 94198, Note_on_c, 9, 44, 126
9, 94198, Note_on_c, 9, 82, 110
9, 94233, Note_off_c, 9, 82, 64
9, 94278, Note_on_c, 9, 70, 110
9, 94313, Note_off_c, 9, 70, 64
9, 94316, Note_off_c, 9, 44, 64
9, 94318, Note_on_c, 9, 46, 126
9, 94318, Note_on_c, 9, 38, 126
9, 94318, Note_on_c, 9, 82, 110
9, 94353, Note_off_c, 9, 82, 64
9, 94398, Note_on_c, 9, 70, 110
9, 94433, Note_off_c, 9, 70, 64
9, 94436, Note_off_c, 9, 46, 64
9, 94438, Note_on_c, 9, 82, 92
9, 94473, Note_off_c, 9, 82, 64
9, 94518, Note_on_c, 9, 70, 94
9, 94553, Note_off_c, 9, 70, 64
9, 94556, Note_off_c, 9, 38, 64
9, 94560, Note_on_c, 9, 82, 110
9, 94560, Note_on_c, 9, 47, 118
9, 94595, Note_off_c, 9, 82, 64
9, 94595, Note_off_c, 9, 47, 64
9, 94635, Note_on_c, 9, 38, 118
9, 94640, Note_on_c, 9, 70, 110
9, 94670, Note_off_c, 9, 38, 64
9, 94675, Note_off_c, 9, 70, 64
9, 94678, Note_on_c, 9, 45, 118
9, 94680, Note_on_c, 9, 82, 110
9, 94713, Note_off_c, 9, 45, 64
9, 94715, Note_off_c, 9, 82, 64
9, 94755, Note_on_c, 9, 43, 118
9, 94760, Note_on_c, 9, 70, 110
9, 94790, Note_off_c, 9, 43, 64
9, 94795, Note_off_c, 9, 70, 64
9, 94798, Note_on_c, 9, 38, 118
9, 94800, Note_on_c, 9, 82, 110
9, 94833, Note_off_c, 9, 38, 64
9, 94835, Note_off_c, 9, 82, 64
9, 94875, Note_on_c, 9, 38, 118
9, 94880, Note_on_c, 9, 70, 110
9, 94910, Note_off_c, 9, 38, 64
9, 94915, Note_off_c, 9, 70, 64
9, 94918, Note_on_c, 9, 43, 118
9, 94920, Note_on_c, 9, 82, 92
9, 94953, Note_off_c, 9, 43, 64
9, 94955, Note_off_c, 9, 82, 64
9, 94998, Note_on_c, 9, 41, 118
9, 95000, Note_on_c, 9, 70, 94
9, 95033, Note_off_c, 9, 41, 64
9, 95035, Note_off_c, 9, 70, 64
9, 96000, End_track
0, 0, End_of_file
